<svg xmlns="http://www.w3.org/2000/svg" width="250" height="250" viewBox="0 0 250 250" version="1.1">
	<path fill-opacity="0.290" d="M 0 125.004 L 0 250.008 125.250 249.754 L 250.500 249.500 250.754 124.750 L 251.008 0 125.504 0 L 0 0 0 125.004 M 0.485 125.500 C 0.485 194.250, 0.604 222.228, 0.750 187.672 C 0.896 153.117, 0.896 96.867, 0.750 62.672 C 0.604 28.478, 0.485 56.750, 0.485 125.500 M 22.500 101.967 C 18.621 103.832, 15 106.315, 15 107.110 C 15 107.325, 16.738 107.500, 18.863 107.500 C 22.295 107.500, 22.955 107.082, 24.780 103.750 C 25.910 101.688, 26.759 100.010, 26.667 100.022 C 26.575 100.034, 24.700 100.909, 22.500 101.967 M 29.661 101.823 C 27.733 103.952, 24.802 113, 26.039 113 C 26.503 113, 27.124 112.608, 27.420 112.129 C 28.350 110.624, 33.622 110.057, 37.284 111.068 C 41.578 112.254, 46.681 117.269, 47.531 121.140 C 48.232 124.331, 49.166 124.710, 50.972 122.533 C 51.965 121.337, 51.665 120.585, 49.345 118.453 C 46.382 115.730, 48.116 116.112, 51.345 118.893 C 53.052 120.363, 53.334 120.306, 55.095 118.131 C 57.426 115.252, 57.448 114.120, 55.228 111.328 C 53.542 109.208, 51.414 108.664, 45.683 108.889 C 43.340 108.981, 42.972 109.337, 43.500 111 C 44.728 114.868, 42.906 112.946, 40.893 108.250 C 39.773 105.638, 38.144 102.713, 37.274 101.750 C 35.222 99.483, 31.748 99.516, 29.661 101.823 M 39.199 100.750 C 42.309 107.133, 42.137 107, 47.295 107 L 52.270 107 49.693 104.973 C 47.331 103.115, 40.914 100, 39.449 100 C 39.110 100, 38.998 100.338, 39.199 100.750 M 14.348 109.693 C 13.139 109.929, 11.662 111.402, 10.979 113.051 C 9.961 115.507, 10.031 116.398, 11.404 118.494 C 13.142 121.147, 14.485 121.642, 15.497 120.005 C 15.835 119.458, 17.099 118.531, 18.306 117.945 C 20.018 117.113, 19.870 117.453, 17.632 119.493 C 14.889 121.993, 14.846 122.167, 16.632 123.479 C 18.324 124.721, 18.604 124.551, 19.605 121.675 C 20.212 119.929, 21.027 116.362, 21.416 113.750 C 22.119 109.021, 22.110 109.001, 19.311 109.136 C 17.765 109.211, 15.532 109.462, 14.348 109.693 M 75.314 113.950 C 71.179 116.471, 70 118.820, 70 124.534 C 70 128.507, 70.505 129.705, 73.400 132.600 C 76.174 135.374, 77.564 136, 80.950 136 C 85.550 136, 90.440 133.901, 91.347 131.537 C 92.132 129.492, 89.269 129.520, 85.101 131.600 C 81.045 133.623, 76.613 132.087, 74.453 127.909 C 72.504 124.140, 72.616 122.758, 75.131 119.560 C 78.281 115.556, 81.452 114.660, 85.306 116.686 C 90.950 119.652, 93.826 118.969, 90.345 115.488 C 86.483 111.626, 80.183 110.981, 75.314 113.950 M 142.889 112.750 C 142.828 113.162, 142.861 114.513, 142.961 115.750 C 143.079 117.206, 142.589 118, 141.572 118 C 139.533 118, 139.531 120.606, 141.569 121.388 C 142.816 121.867, 143.088 123.376, 142.893 128.745 C 142.688 134.390, 142.924 135.553, 144.324 135.823 C 145.765 136.101, 146 135.151, 146 129.042 C 146 123.649, 146.361 121.799, 147.500 121.362 C 148.325 121.045, 149 120.159, 149 119.393 C 149 118.627, 148.325 118, 147.500 118 C 146.500 118, 146 117, 146 115 C 146 113, 145.500 112, 144.500 112 C 143.675 112, 142.950 112.338, 142.889 112.750 M 171 123.861 L 171 136 173.757 136 C 177.642 136, 183.211 134.271, 184.164 132.768 C 185.648 130.431, 185.090 125.150, 183.250 124.112 C 181.848 123.321, 181.749 122.873, 182.750 121.862 C 183.438 121.168, 184 119.651, 184 118.491 C 184 114.759, 181.780 112.998, 176.250 112.343 L 171 111.721 171 123.861 M 227 124 C 227 134, 227.250 136, 228.500 136 C 229.583 136, 230 134.889, 230 132 C 230 129.800, 230.338 128.017, 230.750 128.038 C 231.162 128.059, 232.733 129.859, 234.240 132.038 C 236.234 134.920, 237.683 136, 239.557 136 L 242.134 136 238.420 131.468 L 234.707 126.936 237.916 122.468 C 241.093 118.044, 241.101 118, 238.798 118 C 237.163 118, 235.738 119.188, 234 122 C 232.640 124.200, 231.184 126, 230.764 126 C 230.344 126, 230 122.850, 230 119 C 230 113.444, 229.690 112, 228.500 112 C 227.250 112, 227 114, 227 124 M 29.213 115.507 C 22.691 118.340, 21.278 128.572, 26.712 133.609 C 29.685 136.365, 37.326 136.945, 40.460 134.653 C 43.216 132.638, 40.587 131.569, 37.634 133.504 C 32.587 136.811, 26 132.027, 26 125.054 C 26 118.810, 32.192 114.400, 37.538 116.835 C 39.047 117.523, 40.148 117.569, 40.524 116.960 C 41.167 115.922, 36.942 113.975, 34.185 114.039 C 33.258 114.061, 31.021 114.721, 29.213 115.507 M 174 118.531 C 174 121.629, 176.597 122.831, 178.714 120.714 C 180.831 118.597, 179.629 116, 176.531 116 C 174.490 116, 174 116.490, 174 118.531 M 95 127.179 C 95 134.353, 95.280 136, 96.500 136 C 97.666 136, 98 134.671, 98 130.039 C 98 125.194, 98.410 123.696, 100.189 122.039 C 101.392 120.918, 102.630 120.006, 102.939 120.013 C 103.247 120.020, 104.712 123.246, 106.193 127.181 C 108.699 133.840, 108.786 134.577, 107.443 137.791 C 105.637 142.113, 105.625 142, 107.891 142 C 109.140 142, 110.299 140.726, 111.303 138.250 C 112.139 136.188, 114.433 130.757, 116.403 126.182 C 119.880 118.103, 119.919 117.872, 117.772 118.182 C 116.143 118.416, 115.030 119.880, 113.538 123.750 C 112.425 126.638, 111.246 129, 110.919 129 C 110.592 129, 109.486 126.534, 108.462 123.519 L 106.599 118.038 100.799 118.198 L 95 118.358 95 127.179 M 122 130 C 122 140, 122.250 142, 123.500 142 C 124.586 142, 125 140.885, 125 137.965 C 125 134.285, 125.170 134.021, 126.934 134.965 C 132.881 138.147, 139.455 133.966, 139.455 127 C 139.455 120.034, 132.881 115.853, 126.934 119.035 C 125.601 119.749, 125 119.749, 125 119.035 C 125 118.466, 124.325 118, 123.500 118 C 122.250 118, 122 120, 122 130 M 152.455 120.455 C 150.648 122.261, 150 123.990, 150 127 C 150 132.630, 153.371 136, 159.002 136 C 164.377 136, 168 132.376, 168 127 C 168 118.875, 158.172 114.737, 152.455 120.455 M 190.881 119.007 C 186.465 121.587, 186.067 131.533, 190.262 134.471 C 192.901 136.319, 198.103 136.469, 199.925 134.750 C 200.985 133.750, 201.342 133.750, 201.708 134.750 C 201.960 135.438, 202.804 136, 203.583 136 C 204.701 136, 205 134.098, 205 127 C 205 119.902, 204.701 118, 203.583 118 C 202.804 118, 201.960 118.563, 201.708 119.250 C 201.342 120.250, 200.985 120.250, 199.925 119.250 C 198.374 117.787, 193.207 117.648, 190.881 119.007 M 208 127.206 C 208 135.333, 208.152 136, 210 136 C 211.794 136, 212 135.333, 212 129.535 C 212 124.167, 212.328 122.895, 213.934 122.035 C 216.436 120.696, 216.569 120.712, 218.429 122.571 C 219.504 123.647, 220 126.015, 220 130.071 C 220 134.675, 220.335 136, 221.500 136 C 222.697 136, 223 134.517, 223 128.655 C 223 119.360, 221.865 118.087, 213.750 118.277 L 208 118.411 208 127.206 M 30 125.500 L 30 132.115 34.148 131.807 C 39.418 131.417, 41.244 129.033, 38.553 126.059 C 37.528 124.926, 35.635 124, 34.345 124 C 32.667 124, 32 123.431, 32 122 C 32 120.637, 32.667 120, 34.094 120 C 35.346 120, 36.397 120.803, 36.710 122 C 37.428 124.746, 39.215 124.535, 38.820 121.750 C 38.554 119.880, 37.783 119.448, 34.250 119.193 L 30 118.885 30 125.500 M 57.036 120.457 C 56.078 121.611, 56.156 122.385, 57.413 124.180 C 58.984 126.422, 59 126.407, 59 122.723 C 59 118.589, 58.789 118.345, 57.036 120.457 M 8 124.069 C 8 128.076, 8.104 128.245, 9.468 126.441 C 11.355 123.946, 11.364 122.547, 9.500 121 C 8.206 119.926, 8 120.348, 8 124.069 M 126.939 123.061 C 124.157 125.843, 124.719 130.001, 128.135 131.909 C 130.495 133.227, 131.042 133.202, 133.385 131.667 C 136.764 129.454, 136.965 124.789, 133.777 122.557 C 130.825 120.489, 129.407 120.593, 126.939 123.061 M 155.174 123.314 C 152.395 126.273, 152.429 128.115, 155.314 130.826 C 158.366 133.693, 160.407 133.569, 162.927 130.365 C 165.562 127.016, 165.530 126.439, 162.545 123.455 C 159.490 120.399, 157.941 120.369, 155.174 123.314 M 193.223 122.557 C 189.033 125.491, 191.550 133, 196.723 133 C 198.689 133, 202 129.236, 202 127 C 202 124.764, 198.689 121, 196.723 121 C 196.020 121, 194.445 121.701, 193.223 122.557 M 49.703 128.354 C 43.544 134.341, 43.614 135.443, 50.106 134.674 C 57.943 133.746, 60.049 130.751, 56.203 126.003 L 54.406 123.784 49.703 128.354 M 11.035 126.934 C 8.296 132.052, 10.515 135, 17.106 135 C 21.244 135, 21.752 134.769, 21.314 133.093 C 20.874 131.411, 13.966 125, 12.594 125 C 12.306 125, 11.605 125.870, 11.035 126.934 M 174.667 125.667 C 174.300 126.033, 174 127.637, 174 129.230 C 174 131.879, 174.270 132.100, 177.149 131.813 C 181.354 131.395, 183.236 128.430, 180.559 126.441 C 178.504 124.915, 175.777 124.557, 174.667 125.667 M 32 128.500 C 32 131.360, 34.943 131.979, 36.964 129.544 C 38.579 127.598, 37.441 126, 34.441 126 C 32.504 126, 32 126.516, 32 128.500 M 54 137 C 53.175 137.533, 50.587 137.976, 48.250 137.985 C 44.840 137.997, 44 138.353, 44 139.789 C 44 140.772, 43.107 143.329, 42.015 145.470 C 40.923 147.612, 40.147 149.480, 40.289 149.623 C 40.695 150.028, 48.324 146.258, 50.041 144.805 C 50.888 144.087, 52.854 141.813, 54.409 139.750 C 57.171 136.088, 57.016 135.051, 54 137 M 11.890 138.764 C 14.163 142.937, 23.853 150, 27.305 150 C 27.509 150, 26.510 147.549, 25.087 144.554 C 22.767 139.670, 22.171 139.102, 19.315 139.054 C 17.563 139.024, 14.964 138.556, 13.538 138.014 C 11.242 137.141, 11.053 137.227, 11.890 138.764 M 27.568 142.192 C 31.313 152.808, 37.703 152.761, 41.468 142.090 L 42.989 137.779 39.245 138.562 C 34.448 139.565, 32.148 139.596, 28.791 138.703 L 26.083 137.983 27.568 142.192" stroke="none" fill="black" fill-rule="evenodd"/>
	<path fill-opacity="0.205" d="M 0 125.004 L 0 250.008 125.250 249.754 L 250.500 249.500 250.754 124.750 L 251.008 0 125.504 0 L 0 0 0 125.004 M 0.485 125.500 C 0.485 194.250, 0.604 222.228, 0.750 187.672 C 0.896 153.117, 0.896 96.867, 0.750 62.672 C 0.604 28.478, 0.485 56.750, 0.485 125.500 M 31.229 99.669 C 29.615 100.319, 26.908 105.507, 25.930 109.823 C 25.281 112.692, 25.405 113.047, 26.839 112.421 C 29.523 111.248, 34.805 110.734, 37.420 111.391 C 41.380 112.384, 45.881 116.872, 47.143 121.083 C 48.271 124.849, 48.403 124.946, 50.196 123.322 C 51.227 122.389, 51.835 121.012, 51.547 120.261 C 51.245 119.474, 51.468 119.171, 52.074 119.546 C 53.481 120.415, 57 117.135, 57 114.956 C 57 111.508, 53.628 108.828, 48.461 108.171 L 43.500 107.540 47.943 107.020 L 52.386 106.500 48.443 103.920 C 41.782 99.562, 34.680 98, 39.422 101.936 C 41.250 103.452, 43.233 109, 41.948 109 C 41.427 109, 41 108.341, 41 107.535 C 41 105.675, 35.172 98.974, 33.646 99.079 C 33.016 99.122, 31.928 99.388, 31.229 99.669 M 20.322 102.989 C 13.302 107.015, 12.928 108, 18.421 108 C 22.709 108, 23.072 107.779, 25 104 C 26.122 101.800, 26.694 100.004, 26.270 100.009 C 25.847 100.015, 23.170 101.355, 20.322 102.989 M 14 109.694 C 9.869 111.170, 8.756 116.565, 11.981 119.483 C 13.696 121.035, 14.200 121.089, 15.731 119.888 C 17.361 118.609, 17.385 118.646, 16.038 120.358 C 14.734 122.015, 14.781 122.367, 16.465 123.598 C 17.504 124.358, 18.552 124.781, 18.794 124.540 C 19.035 124.298, 20.023 120.703, 20.988 116.550 L 22.743 109 19.122 109.079 C 17.130 109.122, 14.825 109.399, 14 109.694 M 74.095 114.574 C 72.413 115.989, 70.520 118.870, 69.889 120.976 C 68.913 124.234, 69.022 125.368, 70.621 128.588 C 73.231 133.842, 76.867 136.251, 82.079 136.179 C 86.349 136.121, 90.930 133.710, 91.814 131.057 C 92.149 130.052, 91.445 129.899, 88.877 130.415 C 79.429 132.317, 78.946 132.298, 76.439 129.942 C 73.153 126.856, 73.094 121.200, 76.314 118.174 C 78.995 115.656, 83.731 115.330, 86.559 117.468 C 87.626 118.276, 89.528 118.951, 90.785 118.968 C 92.759 118.996, 92.925 118.729, 92.006 117.010 C 89.160 111.693, 79.138 110.330, 74.095 114.574 M 142 115 C 142 116.650, 141.550 118, 141 118 C 140.450 118, 140 118.900, 140 120 C 140 121.100, 140.450 122, 141 122 C 141.571 122, 142 125, 142 129 C 142 135.333, 142.190 136, 144 136 C 145.810 136, 146 135.333, 146 129 C 146 123.444, 146.310 122, 147.500 122 C 148.333 122, 149 121.111, 149 120 C 149 118.889, 148.333 118, 147.500 118 C 146.500 118, 146 117, 146 115 C 146 112.667, 145.556 112, 144 112 C 142.444 112, 142 112.667, 142 115 M 170 124.120 L 170 136.240 176.149 135.796 C 181.089 135.438, 182.673 134.887, 184.210 132.989 C 186.307 130.399, 185.966 126.745, 183.357 123.849 C 182.363 122.746, 182.223 121.980, 182.935 121.540 C 183.521 121.178, 184 119.584, 184 117.998 C 184 114.103, 180.766 112, 174.777 112 L 170 112 170 124.120 M 226 124 C 226 135.333, 226.111 136, 228 136 C 229.681 136, 230.005 135.322, 230.033 131.750 L 230.067 127.500 232.149 130 C 233.294 131.375, 234.808 133.322, 235.513 134.326 C 236.343 135.508, 237.738 136.038, 239.469 135.826 L 242.142 135.500 238.489 131.245 L 234.835 126.989 237.967 122.745 C 241.085 118.518, 241.089 118.499, 238.821 118.151 C 237.300 117.917, 236.039 118.563, 235.022 120.096 C 234.185 121.359, 232.727 123.316, 231.783 124.446 C 230.129 126.425, 230.065 126.234, 230.033 119.250 C 230.003 112.678, 229.813 112, 228 112 C 226.111 112, 226 112.667, 226 124 M 29.500 114.945 C 20.972 118.436, 21.122 132.064, 29.728 135.660 C 33.704 137.321, 39.096 136.794, 40.948 134.563 C 42.423 132.786, 40.360 131.240, 38.713 132.887 C 38.101 133.499, 36.054 134, 34.165 134 C 26.472 134, 23.215 124.631, 28.923 118.923 C 32.126 115.720, 33.616 115.412, 37.457 117.162 C 40.638 118.612, 42.177 117.334, 39.557 115.418 C 37.445 113.873, 32.668 113.649, 29.500 114.945 M 175 118.500 C 175 120.665, 175.404 121.082, 177.250 120.820 C 178.727 120.610, 179.500 119.813, 179.500 118.500 C 179.500 117.187, 178.727 116.390, 177.250 116.180 C 175.404 115.918, 175 116.335, 175 118.500 M 30 125 L 30 132 33.878 132 C 38.565 132, 40.968 129.780, 39.253 127.034 C 38.634 126.042, 38.377 124.276, 38.682 123.110 C 39.471 120.089, 37.303 118, 33.378 118 L 30 118 30 125 M 94 127.179 C 94 135.851, 94.071 136.129, 96.208 135.820 C 98.204 135.531, 98.390 135.001, 98.138 130.320 C 97.915 126.177, 98.273 124.727, 99.930 123.070 C 101.068 121.932, 102.338 121.007, 102.750 121.015 C 103.162 121.024, 104.680 124.061, 106.122 127.765 C 108.473 133.805, 108.602 134.779, 107.372 137.200 C 105.526 140.833, 105.644 142, 107.856 142 C 109.255 142, 110.885 139.348, 114.466 131.250 C 117.080 125.338, 119.443 119.938, 119.717 119.250 C 120.033 118.455, 119.324 118, 117.769 118 C 115.700 118, 115.038 118.843, 113.455 123.500 C 112.427 126.525, 111.311 129, 110.976 129 C 110.640 129, 109.587 126.531, 108.635 123.513 L 106.906 118.025 100.453 118.122 L 94 118.219 94 127.179 M 121 130 C 121 141.333, 121.111 142, 123 142 C 124.619 142, 125 141.333, 125 138.500 C 125 134.581, 124.922 134.639, 128.397 135.961 C 133.680 137.969, 140 133.088, 140 127 C 140 124.126, 137.424 119.377, 135.455 118.621 C 132.770 117.591, 127.478 117.922, 126.200 119.200 C 125.267 120.133, 125 120.133, 125 119.200 C 125 118.540, 124.100 118, 123 118 C 121.111 118, 121 118.667, 121 130 M 153.656 119.133 C 152.642 119.722, 151.174 121.733, 150.393 123.602 C 146.374 133.220, 159.600 140.977, 166.250 132.903 C 168.898 129.688, 168.545 123.454, 165.545 120.455 C 162.880 117.789, 157.078 117.144, 153.656 119.133 M 189.455 120.455 C 184.754 125.156, 187.223 135.045, 193.393 136.224 C 194.734 136.481, 197.219 136.107, 198.916 135.393 C 200.626 134.674, 202 134.521, 202 135.048 C 202 135.572, 202.900 136, 204 136 C 205.852 136, 206 135.333, 206 127 C 206 118.667, 205.852 118, 204 118 C 202.900 118, 202 118.540, 202 119.200 C 202 120.133, 201.733 120.133, 200.800 119.200 C 198.635 117.035, 192.158 117.751, 189.455 120.455 M 208 127.107 C 208 135.333, 208.150 136, 210 136 C 211.775 136, 212 135.333, 212 130.071 C 212 123.797, 213.743 120.580, 216.557 121.660 C 218.925 122.569, 220 125.464, 220 130.934 C 220 135.421, 220.241 136, 222.109 136 C 224.104 136, 224.198 135.586, 223.835 128.402 C 223.367 119.133, 222.278 118.014, 213.843 118.133 L 208 118.215 208 127.107 M 7.618 122.160 C 6.362 128.442, 7.241 129.674, 10.134 125.684 C 11.653 123.590, 11.644 123.278, 10.002 121.251 L 8.236 119.070 7.618 122.160 M 57.131 120.343 C 55.965 121.748, 56.013 122.371, 57.462 124.582 C 59.613 127.865, 59.949 127.468, 59.143 122.598 C 58.570 119.130, 58.346 118.879, 57.131 120.343 M 32 122 C 32 123.646, 32.518 124.065, 34.250 123.820 C 35.487 123.644, 36.500 122.825, 36.500 122 C 36.500 121.175, 35.487 120.356, 34.250 120.180 C 32.518 119.935, 32 120.354, 32 122 M 127.369 123.359 C 125.307 125.132, 124.840 126.228, 125.325 128.157 C 126.127 131.353, 129.706 133.073, 132.728 131.715 C 136.995 129.798, 136.861 124.169, 132.501 122.182 C 130.417 121.233, 129.632 121.413, 127.369 123.359 M 156.008 122.707 C 153.329 124.583, 153.617 129.690, 156.509 131.599 C 159.411 133.513, 163.394 131.371, 163.822 127.666 C 164.388 122.770, 159.945 119.949, 156.008 122.707 M 194.338 122.071 C 191.831 122.998, 190.580 126.102, 191.521 129.065 C 192.865 133.302, 200.185 133.144, 201.548 128.848 C 202.939 124.468, 198.680 120.464, 194.338 122.071 M 50.735 126.750 C 47.720 129.061, 45 132.759, 45 134.547 C 45 135.391, 51.855 135.006, 54.461 134.015 C 55.885 133.473, 57.316 132.340, 57.640 131.497 C 58.268 129.858, 56.237 124, 55.040 124 C 54.645 124, 52.708 125.237, 50.735 126.750 M 11.035 126.934 C 8.338 131.975, 10.788 135.290, 17.305 135.418 C 20.955 135.489, 21.461 135.240, 21.202 133.500 C 20.924 131.640, 14.386 125.048, 12.785 125.015 C 12.392 125.007, 11.605 125.870, 11.035 126.934 M 175 128.500 C 175 131.290, 175.391 132, 176.929 132 C 177.989 132, 179.619 131.238, 180.550 130.307 C 182.140 128.717, 182.107 128.505, 180.010 126.807 C 176.531 123.990, 175 124.507, 175 128.500 M 32 127.941 C 32 130.526, 33.515 131.330, 35.942 130.031 C 38.532 128.645, 37.516 126, 34.393 126 C 32.691 126, 32 126.560, 32 127.941 M 10.682 137.374 C 13.244 141.839, 15.862 144.454, 20.340 147.022 C 23.178 148.650, 26.023 149.985, 26.661 149.991 C 27.359 149.996, 26.759 147.809, 25.161 144.519 C 23.016 140.101, 22.015 139.026, 20 138.975 C 18.625 138.940, 15.820 138.313, 13.768 137.580 C 11.242 136.679, 10.244 136.612, 10.682 137.374 M 53.198 137.050 C 51.933 137.558, 45.302 138.092, 38.464 138.237 C 24.515 138.532, 25.033 138.092, 29.112 146.177 C 32.443 152.782, 36.838 151.982, 41.060 144.001 C 42.078 142.075, 42.930 141.175, 42.952 142 C 42.974 142.825, 42.067 145.018, 40.936 146.874 L 38.879 150.247 41.681 149.544 C 45.632 148.552, 52.784 143.097, 55.176 139.250 C 57.290 135.850, 56.998 135.526, 53.198 137.050" stroke="none" fill="black" fill-rule="evenodd"/>
	<path fill-opacity="0.701" d="M 0 125.004 L 0 250.008 125.250 249.754 L 250.500 249.500 250.754 124.750 L 251.008 0 125.504 0 L 0 0 0 125.004 M 0.485 125.500 C 0.485 194.250, 0.604 222.228, 0.750 187.672 C 0.896 153.117, 0.896 96.867, 0.750 62.672 C 0.604 28.478, 0.485 56.750, 0.485 125.500 M 29.681 100.800 C 28.017 102.639, 25 110.211, 25 112.549 C 25 113.560, 25.684 113.506, 28.092 112.304 C 31.761 110.474, 37.855 111.020, 41.671 113.520 C 43.097 114.455, 45.179 117.383, 46.295 120.026 C 48.302 124.775, 48.355 124.814, 50.739 123.251 C 52.066 122.382, 54.234 120.078, 55.557 118.131 C 57.716 114.954, 57.817 114.369, 56.543 112.425 C 52.611 106.424, 46.622 101.612, 41.123 100.035 C 37.672 99.045, 37.341 99.545, 39.532 102.441 C 40.339 103.509, 41 104.846, 41 105.414 C 41 105.981, 40.259 105.332, 39.354 103.973 C 35.878 98.753, 32.528 97.654, 29.681 100.800 M 21 102.113 C 19.075 103.271, 16.670 104.953, 15.655 105.850 C 13.875 107.425, 13.892 107.506, 16.155 108.142 C 18.426 108.780, 18.416 108.804, 15.818 108.900 C 13.461 108.988, 9 113.258, 9 115.427 C 9 115.767, 10.857 118.060, 13.127 120.522 C 17.444 125.206, 19.989 126.214, 20.015 123.250 C 20.050 119.319, 24.171 105.313, 26.047 102.750 C 27.913 100.201, 27.930 100, 26.280 100.004 C 25.301 100.006, 22.925 100.955, 21 102.113 M 48.813 107.683 C 49.534 107.972, 50.397 107.936, 50.729 107.604 C 51.061 107.272, 50.471 107.036, 49.417 107.079 C 48.252 107.127, 48.015 107.364, 48.813 107.683 M 78.542 111.729 C 70.296 113.824, 66.648 123.954, 71.483 131.333 C 73.821 134.901, 79.438 137.328, 83.568 136.553 C 86.926 135.923, 93 131.646, 93 129.911 C 93 128.474, 88.582 128.849, 86.441 130.468 C 83.469 132.716, 79.234 132.325, 76.455 129.545 C 69.997 123.088, 78.346 112.013, 85.559 117.468 C 87.635 119.038, 93 119.547, 93 118.174 C 93 116.805, 88.687 113.204, 85.685 112.067 C 82.744 110.952, 81.780 110.907, 78.542 111.729 M 142 115 C 142 116.650, 141.550 118, 141 118 C 140.450 118, 140 118.900, 140 120 C 140 121.100, 140.450 122, 141 122 C 141.571 122, 142 125, 142 129 C 142 135.800, 142.071 136, 144.500 136 C 146.929 136, 147 135.800, 147 129 C 147 125, 147.429 122, 148 122 C 148.550 122, 149 121.100, 149 120 C 149 118.900, 148.550 118, 148 118 C 147.450 118, 147 116.650, 147 115 C 147 112.467, 146.611 112, 144.500 112 C 142.389 112, 142 112.467, 142 115 M 170 123.950 L 170 136 175.365 136 C 179.279 136, 181.443 135.439, 183.365 133.927 C 186.366 131.567, 186.913 127.056, 184.492 124.635 C 183.264 123.407, 183.204 122.647, 184.166 120.535 C 185.168 118.335, 185.040 117.530, 183.322 115.221 C 181.599 112.907, 180.451 112.455, 175.648 112.200 L 170 111.900 170 123.950 M 226 124 L 226 136 228.609 136 C 231.003 136, 231.185 135.710, 230.810 132.500 C 230.585 130.575, 230.649 129.003, 230.951 129.007 C 231.253 129.011, 232.571 130.586, 233.879 132.507 C 235.668 135.134, 236.969 136, 239.129 136 C 240.708 136, 242 135.734, 242 135.409 C 242 135.084, 240.439 132.994, 238.530 130.764 L 235.061 126.711 238.030 122.962 C 241.638 118.407, 241.677 118, 238.509 118 C 236.763 118, 235.343 119.042, 233.759 121.488 C 232.517 123.406, 231.275 124.982, 231 124.990 C 230.725 124.998, 230.651 122.078, 230.835 118.502 C 231.166 112.089, 231.135 112, 228.585 112 L 226 112 226 124 M 26.400 117.400 C 23.522 120.278, 23 121.504, 23 125.384 C 23 128.972, 23.597 130.637, 25.750 133.046 C 29.261 136.975, 35.638 138.123, 39.586 135.536 C 42.749 133.463, 41.494 131.130, 38.173 132.907 C 37.050 133.508, 34.864 133.964, 33.316 133.920 C 31.068 133.855, 31.408 133.603, 35 132.670 C 38.507 131.758, 39.572 130.991, 39.827 129.195 C 40.006 127.927, 39.647 126.280, 39.028 125.534 C 38.253 124.600, 38.230 123.976, 38.951 123.530 C 41.555 121.921, 39.039 118.879, 34.354 117.975 L 30.500 117.230 34.191 117.115 C 36.221 117.052, 38.174 117.472, 38.530 118.049 C 38.972 118.764, 39.629 118.723, 40.600 117.917 C 42.793 116.097, 39.429 114.070, 34.150 114.032 C 30.514 114.005, 29.242 114.558, 26.400 117.400 M 175 118.500 C 175 120.308, 175.537 121, 176.941 121 C 179.494 121, 180.476 119.279, 178.964 117.456 C 177.065 115.169, 175 115.713, 175 118.500 M 99.585 117.862 C 99.290 118.340, 97.912 118.515, 96.524 118.249 L 94 117.767 94 126.883 C 94 135.941, 94.016 136, 96.500 136 C 98.909 136, 99 135.764, 99 129.535 C 99 124.119, 99.321 122.899, 100.977 122.012 C 102.688 121.097, 103.138 121.396, 104.324 124.233 C 108.154 133.400, 108.307 134.330, 106.638 138.324 L 105.049 142.128 107.643 141.814 C 109.885 141.543, 110.836 140.138, 114.630 131.504 C 120.676 117.742, 120.619 118, 117.609 118 C 115.480 118, 114.802 118.788, 113.306 123 C 112.330 125.750, 111.245 128, 110.895 128 C 110.546 128, 109.681 125.934, 108.975 123.409 C 108.268 120.884, 107.197 118.671, 106.595 118.492 C 102.767 117.354, 100.050 117.110, 99.585 117.862 M 128.047 117.907 C 127.248 118.436, 125.335 118.617, 123.797 118.309 L 121 117.750 121 129.875 L 121 142 123.500 142 C 125.695 142, 126 141.569, 126 138.465 C 126 135.206, 126.161 135.016, 128.059 136.031 C 136.042 140.304, 143.977 127.631, 137.750 120.555 C 135.281 117.749, 130.328 116.398, 128.047 117.907 M 155.388 117.942 C 152.177 119.297, 149 123.918, 149 127.235 C 149 129.295, 150.077 131.277, 152.527 133.727 C 155.646 136.846, 156.477 137.184, 159.723 136.658 C 167.849 135.339, 171.466 126.010, 165.977 120.524 C 163.190 117.739, 158.551 116.608, 155.388 117.942 M 189.923 119.923 C 187.561 122.285, 187 123.707, 187 127.334 C 187 131.150, 187.476 132.223, 190.180 134.498 C 192.713 136.629, 193.986 137.042, 196.430 136.526 C 198.119 136.169, 200.963 135.905, 202.750 135.938 L 206 135.999 206 126.999 C 206 118.667, 205.852 118, 204 118 C 202.900 118, 202 118.476, 202 119.057 C 202 119.649, 201.023 119.429, 199.777 118.557 C 196.437 116.217, 193.177 116.669, 189.923 119.923 M 214.185 117.864 C 213.462 118.323, 211.775 118.488, 210.435 118.232 L 208 117.767 208 126.883 C 208 135.333, 208.146 136, 210 136 C 211.749 136, 212 135.333, 212 130.691 C 212 124.739, 213.678 121.600, 216.566 122.152 C 218.213 122.466, 218.544 123.520, 218.796 129.260 C 219.077 135.669, 219.212 136, 221.546 136 C 223.919 136, 224 135.768, 224 128.955 C 224 122.808, 223.687 121.596, 221.545 119.455 C 219.028 116.937, 216.507 116.392, 214.185 117.864 M 56.814 120.160 C 55.339 122.412, 55.390 122.750, 57.615 125.532 L 59.990 128.500 59.925 125 C 59.889 123.075, 59.529 120.658, 59.124 119.629 C 58.439 117.886, 58.281 117.922, 56.814 120.160 M 7.581 120.649 C 6.699 122.947, 6.887 129, 7.839 129 C 8.301 129, 9.218 127.817, 9.877 126.371 C 10.536 124.925, 11.285 123.952, 11.542 124.208 C 11.799 124.465, 11.325 126.045, 10.490 127.719 C 7.888 132.935, 10.877 136, 18.565 136 C 21.375 136, 22 135.622, 22 133.924 C 22 132.783, 20.787 130.870, 19.305 129.674 C 17.822 128.478, 14.709 125.618, 12.386 123.317 C 9.138 120.101, 8.028 119.484, 7.581 120.649 M 26.975 121.565 C 25.668 125.003, 25.793 127.014, 27.500 130 C 28.846 132.355, 28.931 132.109, 28.965 125.750 C 29.003 118.509, 28.522 117.498, 26.975 121.565 M 32.667 120.667 C 31.307 122.026, 32.062 124, 33.941 124 C 36.437 124, 37.666 122.036, 35.878 120.904 C 34.205 119.844, 33.538 119.795, 32.667 120.667 M 126.408 124.500 C 124.891 126.816, 124.891 127.184, 126.408 129.500 C 127.419 131.042, 128.986 132, 130.500 132 C 132.014 132, 133.581 131.042, 134.592 129.500 C 136.109 127.184, 136.109 126.816, 134.592 124.500 C 133.581 122.958, 132.014 122, 130.500 122 C 128.986 122, 127.419 122.958, 126.408 124.500 M 155.200 123.200 C 154.540 123.860, 154 125.570, 154 127 C 154 130.351, 155.703 132, 159.165 132 C 161.932 132, 164 129.707, 164 126.637 C 164 122.908, 157.882 120.518, 155.200 123.200 M 192.655 123.829 C 190.504 126.206, 190.560 128.291, 192.829 130.345 C 195.470 132.735, 198.703 132.383, 200.592 129.500 C 202.109 127.184, 202.109 126.816, 200.592 124.500 C 198.644 121.528, 195.015 121.221, 192.655 123.829 M 50.370 126.799 C 48.099 128.834, 45.721 131.512, 45.085 132.750 C 43.965 134.932, 44.076 135, 48.742 135 C 56.881 135, 60.536 130.210, 56.250 125.159 C 54.502 123.099, 54.496 123.101, 50.370 126.799 M 32 127.930 C 32 129.487, 32.638 130, 34.573 130 C 37.856 130, 37.564 126.655, 34.240 126.180 C 32.539 125.938, 32 126.359, 32 127.930 M 175 129 C 175 132.285, 176.482 132.830, 179.471 130.645 C 181.962 128.823, 180.783 126, 177.531 126 C 175.385 126, 175 126.457, 175 129 M 54.500 136.227 C 52.481 137.405, 42.330 138.309, 31.750 138.253 C 25.298 138.218, 25.134 138.495, 27.937 144.669 C 31.203 151.864, 36.079 152.692, 39.914 146.705 C 41.043 144.942, 41.974 143.962, 41.983 144.527 C 41.992 145.093, 41.279 146.584, 40.398 147.842 C 38.080 151.152, 39.012 151.297, 44.629 148.497 C 49.720 145.960, 53.384 142.639, 56.486 137.750 C 58.347 134.815, 57.731 134.343, 54.500 136.227 M 10 136.620 C 10 138.201, 15.428 144.255, 18.913 146.561 C 25.080 150.643, 32.145 151.855, 27.553 148.044 C 26.757 147.383, 25.345 144.853, 24.417 142.421 C 22.771 138.112, 22.616 138, 18.298 138 C 15.862 138, 12.998 137.534, 11.934 136.965 C 10.870 136.395, 10 136.240, 10 136.620" stroke="none" fill="black" fill-rule="evenodd"/>
	<path fill-opacity="0.559" d="M 0.464 1.242 C 0.201 1.934, 0.101 58.075, 0.243 126 L 0.500 249.500 124.393 249.754 C 215.119 249.940, 248.649 249.706, 249.643 248.881 C 250.772 247.944, 251 226.981, 251 123.893 L 251 0.030 125.971 0.008 C 26.455 -0.010, 0.845 0.242, 0.464 1.242 M 0.485 125 C 0.485 193.475, 0.604 221.488, 0.750 187.250 C 0.896 153.013, 0.896 96.988, 0.750 62.750 C 0.604 28.513, 0.485 56.525, 0.485 125 M 22.500 101.047 C 18.300 103.113, 10.470 110.945, 9.476 114.075 C 9.156 115.083, 9.626 117.026, 10.522 118.393 C 12.117 120.827, 18.898 126.542, 19.372 125.851 C 19.672 125.412, 21.673 116.677, 22.545 112 C 22.904 110.075, 24.278 106.531, 25.599 104.124 C 26.919 101.717, 28 99.580, 28 99.374 C 28 98.636, 26.435 99.112, 22.500 101.047 M 29.502 100.998 C 27.970 102.691, 23.745 113.078, 24.344 113.677 C 24.453 113.787, 26.682 113.172, 29.296 112.312 C 33.664 110.874, 34.408 110.884, 38.485 112.441 C 43.166 114.229, 47 118.923, 47 122.868 C 47 126.140, 48.923 125.438, 53.743 120.408 C 56.719 117.302, 57.940 115.279, 57.517 114.158 C 55.178 107.968, 46.498 100.631, 40 99.352 C 36.664 98.695, 36.569 98.753, 37.983 100.581 C 39.417 102.437, 39.398 102.442, 37.404 100.750 C 34.685 98.442, 31.731 98.535, 29.502 100.998 M 75.299 112.960 C 64.138 119.765, 69.106 137, 82.228 137 C 86.429 137, 92.844 132.669, 92.968 129.750 C 93.026 128.398, 87.984 128.965, 85.505 130.588 C 82.892 132.301, 77.893 131.816, 76.191 129.686 C 72.847 125.497, 74.315 118.941, 79.033 116.986 C 81.372 116.017, 82.480 116.093, 85.101 117.400 C 88.517 119.105, 93 119.544, 93 118.174 C 93 117.093, 89.087 113.552, 86.316 112.125 C 83.063 110.450, 78.897 110.765, 75.299 112.960 M 142 114.441 C 142 115.784, 141.550 117.160, 141 117.500 C 139.724 118.289, 139.688 122, 140.956 122 C 141.482 122, 142.045 125.263, 142.206 129.250 C 142.469 135.735, 142.711 136.500, 144.500 136.500 C 146.279 136.500, 146.533 135.733, 146.800 129.574 C 147.014 124.615, 147.558 122.313, 148.712 121.469 C 150.445 120.201, 149.771 116.405, 148.007 117.496 C 147.415 117.862, 147 116.858, 147 115.059 C 147 112.463, 146.622 112, 144.500 112 C 142.516 112, 142 112.504, 142 114.441 M 170.219 124.206 L 170.500 136.412 176 136.165 C 180.651 135.955, 181.925 135.458, 184.250 132.943 C 185.762 131.307, 187 130.447, 187 131.032 C 187 131.617, 188.191 133.199, 189.646 134.548 C 192.536 137.226, 197.754 137.846, 199.842 135.758 C 200.664 134.936, 201.323 134.863, 201.792 135.542 C 202.181 136.106, 203.175 136.552, 204 136.533 C 206.266 136.483, 206.766 118.231, 204.525 117.371 C 203.672 117.044, 202.345 117.298, 201.576 117.937 C 200.619 118.731, 199.974 118.767, 199.530 118.049 C 197.523 114.801, 188.020 119.212, 186.464 124.113 C 185.851 126.044, 185.760 126.054, 184.502 124.333 C 183.629 123.140, 183.490 121.953, 184.091 120.830 C 185.477 118.240, 185.196 116.587, 182.961 114.189 C 181.342 112.450, 179.792 112, 175.430 112 L 169.938 112 170.219 124.206 M 226.219 124.250 C 226.483 135.740, 226.624 136.500, 228.500 136.500 C 230.095 136.500, 230.564 135.729, 230.814 132.690 L 231.128 128.879 233.814 132.572 C 235.833 135.347, 237.307 136.327, 239.750 136.516 C 241.537 136.654, 243 136.554, 243 136.293 C 243 136.032, 241.425 133.978, 239.500 131.729 C 237.575 129.480, 236 127.223, 236 126.714 C 236 126.205, 237.350 124.083, 239 122 C 242.595 117.461, 242.653 117.091, 239.750 117.239 C 236.904 117.384, 235.155 118.716, 232.842 122.500 L 231.007 125.500 231.004 118.750 C 231 112.196, 230.927 112, 228.469 112 L 225.938 112 226.219 124.250 M 29.325 114.459 C 25.212 116.248, 22.768 120.068, 22.641 124.907 C 22.516 129.687, 24.290 133.149, 27.983 135.331 C 31.349 137.319, 37.803 137.465, 40.250 135.608 C 42.215 134.117, 42.586 132, 40.883 132 C 40.268 132, 39.996 131.123, 40.278 130.046 C 40.559 128.972, 40.214 127.307, 39.511 126.346 C 38.576 125.067, 38.521 124.139, 39.307 122.881 C 40.887 120.349, 38.508 118.033, 34.128 117.840 L 30.500 117.680 33.877 117.267 C 35.735 117.040, 37.702 117.302, 38.249 117.849 C 39.377 118.977, 42 118.273, 42 116.842 C 42 115.816, 35.862 112.976, 33.782 113.039 C 33.077 113.061, 31.071 113.700, 29.325 114.459 M 94.383 118.445 C 94.125 119.117, 94.046 123.455, 94.207 128.084 C 94.473 135.736, 94.682 136.500, 96.500 136.500 C 98.270 136.500, 98.534 135.735, 98.794 129.840 C 99.016 124.803, 99.483 123.029, 100.711 122.557 C 102.846 121.738, 103.455 122.474, 105.992 128.947 C 108.051 134.203, 108.066 134.528, 106.407 138.207 C 104.468 142.505, 104.875 143.510, 108.203 142.641 C 110.013 142.168, 111.561 139.543, 115.500 130.270 L 120.500 118.500 121 130.500 C 121.465 141.667, 121.639 142.500, 123.500 142.500 C 125.083 142.500, 125.604 141.667, 126 138.500 C 126.316 135.970, 126.797 134.959, 127.309 135.750 C 128.746 137.970, 133.783 137.166, 137.121 134.184 C 139.746 131.838, 140.273 130.637, 140.273 127 C 140.273 123.363, 139.746 122.162, 137.121 119.816 C 133.770 116.823, 129.286 116.114, 127.158 118.242 C 126.318 119.082, 125.688 119.145, 125.208 118.437 C 124.213 116.966, 116.350 116.863, 115.203 118.306 C 114.681 118.963, 113.656 121.188, 112.926 123.250 C 112.196 125.313, 111.297 127, 110.929 127 C 110.561 127, 109.693 124.975, 109 122.500 C 108.307 120.025, 107.461 117.940, 107.120 117.867 C 103.322 117.054, 94.768 117.442, 94.383 118.445 M 154.110 118.396 C 152.796 119.124, 151.124 120.796, 150.396 122.110 C 144.163 133.355, 160.798 143.077, 167.335 132.010 C 169.939 127.602, 169.436 124.236, 165.600 120.400 C 161.901 116.701, 158.300 116.073, 154.110 118.396 M 175 119 C 175 121.280, 177.210 121.656, 178.869 119.658 C 180.190 118.066, 179.374 117, 176.833 117 C 175.667 117, 175 117.727, 175 119 M 207.452 117.882 C 207.203 118.130, 207 122.308, 207 127.167 L 207 136 210 136 L 213 136 213 129.469 C 213 124.561, 213.376 122.793, 214.513 122.357 C 217.332 121.275, 218.898 123.937, 219.204 130.335 C 219.463 135.735, 219.748 136.500, 221.500 136.500 C 223.293 136.500, 223.531 135.734, 223.797 129.114 C 224.055 122.672, 223.815 121.432, 221.920 119.415 C 220.079 117.455, 218.843 117.127, 213.825 117.266 C 210.568 117.356, 207.700 117.633, 207.452 117.882 M 51.250 125.712 C 47.263 129.795, 44 133.506, 44 133.959 C 44 135.486, 49.045 136.065, 53.020 134.994 C 58.204 133.599, 59.572 131.066, 57.470 126.759 L 55.880 123.500 57.918 126 L 59.956 128.500 59.978 123.809 C 59.990 121.229, 59.663 118.931, 59.250 118.703 C 58.837 118.475, 55.237 121.629, 51.250 125.712 M 7.022 124.750 L 7.044 130.500 9.003 128 L 10.961 125.500 9.730 128.837 C 8.601 131.899, 8.695 132.332, 10.861 134.087 C 12.385 135.322, 14.778 136, 17.611 136 C 21.567 136, 22 135.765, 22 133.620 C 22 131.990, 20.505 130.027, 17.250 127.383 C 14.637 125.262, 11.680 122.507, 10.677 121.263 C 7.836 117.735, 6.998 118.534, 7.022 124.750 M 27.607 120.582 C 26.639 123.105, 26.905 129.823, 28 130.500 C 28.625 130.886, 29 128.844, 29 125.059 C 29 118.852, 28.674 117.802, 27.607 120.582 M 32.250 122.250 C 32.479 122.938, 33.267 123.500, 34 123.500 C 34.733 123.500, 35.521 122.938, 35.750 122.250 C 35.998 121.506, 35.289 121, 34 121 C 32.711 121, 32.002 121.506, 32.250 122.250 M 127.750 123.080 C 125.740 124.251, 125.401 129.001, 127.200 130.800 C 127.860 131.460, 129.345 132, 130.500 132 C 133.330 132, 135 130.144, 135 127 C 135 122.567, 131.697 120.781, 127.750 123.080 M 155.536 123.960 C 151.460 128.464, 157.536 134.540, 162.040 130.464 C 164.493 128.244, 164.540 125.798, 162.171 123.655 C 159.758 121.471, 157.704 121.565, 155.536 123.960 M 193.200 123.200 C 192.540 123.860, 192 125.570, 192 127 C 192 130.144, 193.670 132, 196.500 132 C 199.330 132, 201 130.144, 201 127 C 201 123.856, 199.330 122, 196.500 122 C 195.345 122, 193.860 122.540, 193.200 123.200 M 175 128.500 C 175 130.782, 175.366 131.091, 177.750 130.816 C 179.728 130.589, 180.500 129.938, 180.500 128.500 C 180.500 127.062, 179.728 126.411, 177.750 126.184 C 175.366 125.909, 175 126.218, 175 128.500 M 32 128.570 C 32 129.612, 32.729 130.032, 34.172 129.820 C 37.373 129.348, 37.716 127, 34.583 127 C 32.903 127, 32 127.549, 32 128.570 M 34.500 133 L 31.500 133.763 34.191 133.882 C 35.671 133.947, 37.160 133.550, 37.500 133 C 37.840 132.450, 37.979 132.053, 37.809 132.118 C 37.639 132.183, 36.150 132.580, 34.500 133 M 10.436 137.877 C 13.369 143.548, 20.691 148.929, 27.794 150.633 L 30.500 151.282 28.330 148.891 C 27.136 147.576, 25.400 144.588, 24.471 142.250 C 22.944 138.406, 22.455 138, 19.359 138 C 17.476 138, 14.376 137.348, 12.469 136.551 L 9.002 135.103 10.436 137.877 M 55 136 C 54.175 136.533, 50.530 136.976, 46.899 136.985 C 43.269 136.993, 38.918 137.481, 37.231 138.069 C 35.094 138.814, 33.028 138.826, 30.425 138.107 C 28.370 137.539, 26.335 137.293, 25.904 137.560 C 24.766 138.263, 26.889 143.978, 29.689 147.750 C 32.400 151.402, 35.284 151.898, 38.404 149.250 C 40.367 147.583, 40.401 147.583, 39.110 149.250 C 35.852 153.457, 45.147 149.669, 50.954 144.422 C 56.890 139.060, 59.872 132.851, 55 136" stroke="none" fill="black" fill-rule="evenodd"/>
</svg>