<?xml version="1.0"?><svg xmlns="http://www.w3.org/2000/svg" width="36" height="36" shape-rendering="geometricPrecision" text-rendering="geometricPrecision" image-rendering="optimizeQuality" fill-rule="evenodd" clip-rule="evenodd" viewBox="0 0 36 36"><path fill="#141414" d="m-0.1-0.1h36v36h-36v-36z"></path><path fill="#dfdfde" d="m3.2 15.5c-0.4-0.2-0.8-0.2-1.3 0 0.5-0.7 1.1-1 1.9-1-0.2 0.3-0.4 0.6-0.6 1z"></path><path fill="#8a8a89" d="m3.2 15.5c0.1 0.2 0 0.3-0.1 0.4-0.1-0.2-0.3-0.3-0.5-0.3-0.3 0.1-0.5 0.1-0.8 0.2l0.1-0.3c0.5-0.2 0.9-0.2 1.3 0z"></path><path fill="#dddddc" d="m3.1 15.9c-0.1 0.7-0.2 1.4-0.5 2-0.8-0.3-1.1-0.9-1.2-1.7 0.1-0.2 0.2-0.4 0.4-0.4 0.3-0.1 0.5-0.1 0.8-0.2 0.2 0 0.4 0.1 0.5 0.3z"></path><path fill="#dbdbda" d="m5.3 14.3c0.8 0 1.5 0.3 2.1 1l-0.8 0.1c0.6 0 1.1 0.2 1.5 0.7 0.1 0.2 0.1 0.4 0 0.7-0.3 0.5-0.7 0.8-1.2 1.1-0.5-1.8-1.6-2.4-3.3-1.6-0.1-0.6 0.1-1.2 0.4-1.7 0.4-0.4 0.8-0.5 1.3-0.3z"></path><path fill="#626262" d="m5.3 14.3c0.4 0.3 0.7 0.7 0.8 1.3-0.1 0.1-0.2 0-0.3-0.1l-0.5-1.2z"></path><path fill="#d3d3d2" d="m20.4 16.1h0.7c0 0.4 0.1 0.8 0.3 1.1-0.3 0.8-0.4 1.5-0.3 2.3h-0.7c0-0.8-0.1-1.5-0.3-2.3 0.2-0.3 0.3-0.7 0.3-1.1z"></path><path fill="#b3b3b2" d="m26 16.2h-1.4v3.3c-0.2-1.1-0.2-2.3-0.2-3.4 0.6-0.1 1.1 0 1.6 0.1z"></path><path fill="#dbdbda" d="m26 16.2c0.1 0.1 0.3 0.2 0.4 0.3 0.1 0.4 0 0.8-0.1 1.1 0.6 0.8 0.5 1.4-0.3 1.8-0.5 0.1-1 0.1-1.4 0.1v-3.3h1.4z"></path><path fill="#dcdcdb" d="m33 16.1c0 0.6 0 1.3 0.2 2 0.1 0 0.1-0.1 0.1-0.2 0.2-0.7 0.6-1 1.3-0.9-0.3 0.4-0.6 0.8-0.8 1.2 0.3 0.4 0.7 0.8 1 1.2-0.3 0.1-0.6 0.1-0.9 0l-0.6-0.9c-0.1 0.3-0.1 0.7-0.1 1h-0.7v-3.4h0.5z"></path><path fill="#7b7b7b" d="m33 16.1l0.3 1.8c0 0.1 0 0.2-0.1 0.2-0.2-0.7-0.2-1.4-0.2-2z"></path><path fill="#101010" d="m25.1 16.8c0.3-0.1 0.6 0 0.7 0.3-0.1 0.2-0.4 0.3-0.7 0.3v-0.6z"></path><path fill="#e0e0df" d="m4.4 16.8c-0.2 0-0.3 0.1-0.4 0.3-0.4 0.5-0.4 1.1 0 1.7 0 0.1 0.1 0.2 0.2 0.1 0 0.2 0.1 0.3 0.2 0.3 0.5 0.1 0.9 0 1.3-0.3 0.1 0.1 0.2 0.2 0.3 0.3-0.9 0.7-1.8 0.6-2.5-0.3-0.6-1.7 0.1-2.6 1.9-2.5 0.2 0.1 0.3 0.2 0.4 0.4-0.4 0-0.9 0-1.4 0z"></path><path fill="#dbdbda" d="m10.9 16.1c0.5-0.1 1 0 1.6 0 0.3 0.2 0.6 0.5 0.8 0.8l-0.4 0.2c-0.4-0.2-0.9-0.4-1.3-0.5-0.9 0.2-1.2 0.7-0.9 1.6 0.3 0.7 0.8 0.9 1.5 0.7 0.3-0.4 0.7-0.5 1.1-0.3-1.1 1.4-2.2 1.4-3.2 0-0.2-0.4-0.3-0.9-0.2-1.4 0.3-0.4 0.6-0.8 1-1.1z"></path><path fill="#151515" d="m4 17.1c0.2 0.5 0.2 1.1 0 1.7-0.4-0.6-0.4-1.2 0-1.7z"></path><path fill="#dadad9" d="m18.4 16.8c1.5 0 2 0.8 1.5 2.3-0.5 0.6-1.1 0.7-1.8 0.3 0 0.3-0.1 0.6 0 1h-0.7v-3.5c0.2 0 0.4 0 0.7 0.2 0.1-0.1 0.2-0.2 0.3-0.3z"></path><path fill="#d9d9d8" d="m30.7 16.8c0.5-0.1 0.9 0.1 1.3 0.4 0.2 0.8 0.2 1.5 0.2 2.3h-0.7c0-0.6 0-1.2-0.1-1.9-0.3-0.2-0.6-0.1-0.9 0.2 0 0.6-0.1 1.1 0 1.7h-0.6v-2.6c0.2 0 0.4 0 0.6 0.2 0.1-0.1 0.2-0.2 0.2-0.3z"></path><path fill="#e8e8e7" d="m8.4 17.2c0.1 0.9 0 1-0.4 0.3 0.1-0.2 0.2-0.4 0.4-0.6 0 0.1 0 0.2 0 0.3z"></path><path fill="#c9c9c8" d="m0.9 17.1c0.4 0.1 0.6 0.3 0.8 0.6-0.3 0.3-0.4 0.5-0.6 0.8-0.2-0.5-0.2-0.9-0.2-1.4z"></path><path fill="#939392" d="m4.4 16.8l0.9 0.3h-1.1v1.8c-0.1 0.1-0.2 0-0.2-0.1 0.2-0.6 0.2-1.2 0-1.7 0.1-0.2 0.2-0.3 0.4-0.3z"></path><path fill="#dbdbda" d="m27.4 16.9c0.5 0 0.9 0 1.3 0.1l0.2 0.2c0.2-0.2 0.4-0.3 0.7-0.3v2.6c-0.3 0.1-0.5 0-0.7-0.3-0.6 0.6-1.2 0.6-1.8-0.1-0.4-0.8-0.3-1.6 0.3-2.2z"></path><path fill="#131313" d="m27.9 17.5c1 0 1.2 0.5 0.7 1.4-1.2 0-1.4-0.5-0.7-1.4z"></path><path fill="#d9d9d8" d="m22.4 16.8c1.4 0 2 0.7 1.6 2.1-0.9 1.1-1.8 1-2.5-0.3-0.2-0.8 0.1-1.4 0.9-1.8z"></path><path fill="#151515" d="m22.4 17.5c1.1-0.1 1.4 0.4 0.9 1.4-1.2 0.1-1.5-0.4-0.9-1.4z"></path><path fill="#161616" d="m18.4 17.5c0.7-0.1 1.1 0.3 1 1-0.4 0.6-0.9 0.6-1.4 0-0.1-0.2-0.1-0.4 0-0.6 0.2-0.1 0.3-0.2 0.4-0.4z"></path><path fill="#e0e0df" d="m7.7 17.8c0.2 0.1 0.4 0.2 0.6 0.4 0 0.4-0.1 0.7-0.3 1-0.6 0.2-1.1 0.2-1.7 0.1 0.3-0.6 0.8-1.1 1.4-1.5z"></path><path fill="#797979" d="m8.4 17.2c0.2 0.4 0.2 0.7 0.1 1.2-0.1-0.1-0.1-0.2-0.2-0.2-0.2-0.2-0.4-0.3-0.6-0.4 0.1-0.2 0.1-0.3 0.3-0.3 0.4 0.7 0.5 0.6 0.4-0.3z"></path><path fill="#131313" d="m25.1 18.1c0.9-0.1 1 0.1 0.6 0.8-0.2 0-0.4 0.1-0.6 0v-0.8z"></path><path fill="#dadad9" d="m1.7 17.9c0.4 0.2 0.8 0.5 1.2 0.7 0.1 0.3 0.2 0.6 0.2 0.9-0.6 0.1-1.1 0-1.7-0.3-0.1-0.4 0-0.9 0.3-1.3z"></path><path fill="#dedede" d="m5.3 17.1c0.5 0.1 0.5 0.4 0.1 0.8 0.4 0.4 0.4 0.7-0.1 1h-1.1v-1.8h1.1z"></path><path fill="#1a1a1a" d="m4.5 18.1h0.8v0.5h-0.8v-0.5z"></path><path fill="#161616" d="m4.5 17.4c0.3-0.1 0.5 0 0.8 0.1-0.2 0.2-0.5 0.3-0.8 0.3v-0.4z"></path><path fill="#dcdcdb" d="m13.5 16.9c0.6 0 1.2 0 1.8 0.1 0.2 0.4 0.4 0.9 0.6 1.4 0.2-0.5 0.4-0.9 0.6-1.3 0.2-0.2 0.5-0.2 0.7 0-0.5 1-1 2.1-1.4 3.2-0.3 0.1-0.5 0.1-0.8 0 0.3-0.3 0.4-0.7 0.5-1.1-0.2-0.6-0.5-1.3-0.8-1.8l-0.4 0.2c-0.1 0.7-0.1 1.3-0.1 1.9h-0.7v-2.6z"></path><path fill="#7e7e7e" d="m4.2 18.9h1.1l-0.9 0.3c-0.1 0-0.2-0.1-0.2-0.3z"></path><path fill="#d7d7d6" d="m1.4 19.5c0.6 0.2 1.2 0.4 1.8 0.4 0.3 0.7 0.5 1.2 0.8 1.8-1.3-0.3-2.1-1.1-2.6-2.2z"></path><path fill="#dddddc" d="m8 19.4c0.1-0.1 0.2 0 0.3 0-0.5 1.1-1.4 1.8-2.5 2.1l-0.1-0.1c0.2-0.4 0.4-0.8 0.3-1.2-0.9 2-1.7 1.9-2.3-0.3 1.2 0 2.4-0.1 3.7-0.2 0.3 0 0.5-0.1 0.6-0.3z"></path></svg>