<?xml version="1.0" encoding="UTF-8"?>
<!DOCTYPE svg PUBLIC "-//W3C//DTD SVG 1.1//EN" "http://www.w3.org/Graphics/SVG/1.1/DTD/svg11.dtd">
<svg xmlns="http://www.w3.org/2000/svg" version="1.1" width="100px" height="100px" style="shape-rendering:geometricPrecision; text-rendering:geometricPrecision; image-rendering:optimizeQuality; fill-rule:evenodd; clip-rule:evenodd" xmlns:xlink="http://www.w3.org/1999/xlink">
<g><path style="opacity:0.947" fill="#1a1a1a" d="M 39.5,-0.5 C 46.1667,-0.5 52.8333,-0.5 59.5,-0.5C 80.9474,5.28038 94.2807,18.947 99.5,40.5C 99.5,46.5 99.5,52.5 99.5,58.5C 94.1667,80.5 80.5,94.1667 58.5,99.5C 52.5,99.5 46.5,99.5 40.5,99.5C 18.9345,94.2679 5.26785,80.9346 -0.5,59.5C -0.5,52.8333 -0.5,46.1667 -0.5,39.5C 5.17928,18.4874 18.5126,5.15406 39.5,-0.5 Z M 22.5,11.5 C 22.0269,12.9063 21.0269,13.573 19.5,13.5C 19.9731,12.0937 20.9731,11.427 22.5,11.5 Z M 31.5,6.5 C 29.8185,8.00751 27.8185,9.00751 25.5,9.5C 26.911,7.46095 28.911,6.46095 31.5,6.5 Z M 78.5,85.5 C 95.7208,68.3891 99.2208,48.7224 89,26.5C 76.4031,7.7927 58.9031,0.459363 36.5,4.5C 65.4065,-1.46652 84.9065,9.53348 95,37.5C 98.4299,53.4449 95.0965,67.7783 85,80.5C 83.2228,82.7899 81.0562,84.4566 78.5,85.5 Z M 13.5,19.5 C 13.573,21.0269 12.9063,22.0269 11.5,22.5C 11.427,20.9731 12.0937,19.9731 13.5,19.5 Z M 11.5,22.5 C 11.573,24.0269 10.9063,25.0269 9.5,25.5C 9.42702,23.9731 10.0937,22.9731 11.5,22.5 Z M 6.5,31.5 C 2.11003,45.0944 2.7767,58.4277 8.5,71.5C 4.11741,64.9712 2.11741,57.6378 2.5,49.5C 2.1962,43.0047 3.52953,37.0047 6.5,31.5 Z M 8.5,71.5 C 22.7026,92.3477 42.0359,99.3477 66.5,92.5C 45.3121,100.327 27.1454,95.6606 12,78.5C 10.295,76.4234 9.12835,74.09 8.5,71.5 Z M 78.5,85.5 C 75.4501,89.3617 71.4501,91.695 66.5,92.5C 70.4921,90.17 74.4921,87.8367 78.5,85.5 Z"/></g>
<g><path style="opacity:0.998" fill="#1e1e1e" d="M 78.5,85.5 C 74.4921,87.8367 70.4921,90.17 66.5,92.5C 42.0359,99.3477 22.7026,92.3477 8.5,71.5C 2.7767,58.4277 2.11003,45.0944 6.5,31.5C 7.33825,31.1583 7.67158,30.4916 7.5,29.5C 8.33825,29.1583 8.67158,28.4916 8.5,27.5C 9.33825,27.1583 9.67158,26.4916 9.5,25.5C 10.9063,25.0269 11.573,24.0269 11.5,22.5C 12.9063,22.0269 13.573,21.0269 13.5,19.5C 14.1667,19.5 14.5,19.1667 14.5,18.5C 15.1667,18.5 15.5,18.1667 15.5,17.5C 16.1667,17.5 16.5,17.1667 16.5,16.5C 17.1667,16.5 17.5,16.1667 17.5,15.5C 18.1667,15.5 18.5,15.1667 18.5,14.5C 19.1667,14.5 19.5,14.1667 19.5,13.5C 21.0269,13.573 22.0269,12.9063 22.5,11.5C 23.1667,11.5 23.5,11.1667 23.5,10.5C 24.4916,10.6716 25.1583,10.3382 25.5,9.5C 27.8185,9.00751 29.8185,8.00751 31.5,6.5C 32.4916,6.67158 33.1583,6.33825 33.5,5.5C 34.791,5.73731 35.791,5.40397 36.5,4.5C 58.9031,0.459363 76.4031,7.7927 89,26.5C 99.2208,48.7224 95.7208,68.3891 78.5,85.5 Z"/></g>
<g><path style="opacity:1" fill="#fcfcfa" d="M 67.5,27.5 C 62.1667,27.5 56.8333,27.5 51.5,27.5C 42.1667,27.5 32.8333,27.5 23.5,27.5C 21.5,27.5 19.5,27.5 17.5,27.5C 17.5,25.5 17.5,23.5 17.5,21.5C 34.1667,21.5 50.8333,21.5 67.5,21.5C 67.5,23.5 67.5,25.5 67.5,27.5 Z"/></g>
<g><path style="opacity:1" fill="#262523" d="M 23.5,27.5 C 32.8333,27.5 42.1667,27.5 51.5,27.5C 51.5,27.8333 51.5,28.1667 51.5,28.5C 42.8269,28.3336 34.1603,28.5002 25.5,29C 16.8121,40.8484 16.3121,53.015 24,65.5C 26.7663,68.7768 29.933,71.4434 33.5,73.5C 33.2155,75.4147 33.5489,77.0813 34.5,78.5C 36.1667,78.5 37.8333,78.5 39.5,78.5C 40.3382,78.1583 40.6716,77.4916 40.5,76.5C 42.1667,77.1667 43.8333,77.8333 45.5,78.5C 47.1667,78.5 48.8333,78.5 50.5,78.5C 50.8333,78.5 51.1667,78.5 51.5,78.5C 51.8333,78.5 52.1667,78.5 52.5,78.5C 55.6248,79.4794 58.9581,79.8128 62.5,79.5C 62.5,71.1667 62.5,62.8333 62.5,54.5C 69.9818,53.508 77.6484,53.1746 85.5,53.5C 78.342,78.4798 62.0087,88.3131 36.5,83C 15.2826,72.7224 8.11593,56.2224 15,33.5C 16.6872,29.7845 19.5206,27.7845 23.5,27.5 Z"/></g>
<g><path style="opacity:1" fill="#6b4c16" d="M 51.5,27.5 C 56.8333,27.5 62.1667,27.5 67.5,27.5C 73.69,27.1771 79.69,27.5104 85.5,28.5C 74.5,28.5 63.5,28.5 52.5,28.5C 52.5,31.1667 52.5,33.8333 52.5,36.5C 51.5269,34.0521 51.1936,31.3854 51.5,28.5C 51.5,28.1667 51.5,27.8333 51.5,27.5 Z"/></g>
<g><path style="opacity:1" fill="#f49d00" d="M 85.5,28.5 C 85.5,31.1667 85.5,33.8333 85.5,36.5C 74.5,36.5 63.5,36.5 52.5,36.5C 52.5,33.8333 52.5,31.1667 52.5,28.5C 63.5,28.5 74.5,28.5 85.5,28.5 Z"/></g>
<g><path style="opacity:1" fill="#2e2d2c" d="M 51.5,28.5 C 51.1936,31.3854 51.5269,34.0521 52.5,36.5C 60.3159,37.4924 68.3159,37.8257 76.5,37.5C 76.9926,39.8056 77.3259,42.139 77.5,44.5C 80.3854,44.1936 83.0521,44.5269 85.5,45.5C 74.5,45.5 63.5,45.5 52.5,45.5C 52.5,56.5 52.5,67.5 52.5,78.5C 52.1667,78.5 51.8333,78.5 51.5,78.5C 51.5,65.1667 51.5,51.8333 51.5,38.5C 49.2646,38.2053 47.2646,38.5386 45.5,39.5C 45.5,52.5 45.5,65.5 45.5,78.5C 43.8333,77.8333 42.1667,77.1667 40.5,76.5C 40.5,63.8333 40.5,51.1667 40.5,38.5C 38.1667,38.5 35.8333,38.5 33.5,38.5C 33.5,50.1667 33.5,61.8333 33.5,73.5C 29.933,71.4434 26.7663,68.7768 24,65.5C 16.3121,53.015 16.8121,40.8484 25.5,29C 34.1603,28.5002 42.8269,28.3336 51.5,28.5 Z"/></g>
<g><path style="opacity:1" fill="#4e3a17" d="M 85.5,28.5 C 86.4767,31.2869 86.81,34.2869 86.5,37.5C 83.1667,37.5 79.8333,37.5 76.5,37.5C 68.3159,37.8257 60.3159,37.4924 52.5,36.5C 63.5,36.5 74.5,36.5 85.5,36.5C 85.5,33.8333 85.5,31.1667 85.5,28.5 Z"/></g>
<g><path style="opacity:1" fill="#fdfefb" d="M 45.5,39.5 C 47.1667,39.5 48.8333,39.5 50.5,39.5C 50.5,52.5 50.5,65.5 50.5,78.5C 48.8333,78.5 47.1667,78.5 45.5,78.5C 45.5,65.5 45.5,52.5 45.5,39.5 Z"/></g>
<g><path style="opacity:1" fill="#b8b8b7" d="M 45.5,39.5 C 47.2646,38.5386 49.2646,38.2053 51.5,38.5C 51.5,51.8333 51.5,65.1667 51.5,78.5C 51.1667,78.5 50.8333,78.5 50.5,78.5C 50.5,65.5 50.5,52.5 50.5,39.5C 48.8333,39.5 47.1667,39.5 45.5,39.5 Z"/></g>
<g><path style="opacity:1" fill="#f49c00" d="M 85.5,45.5 C 85.5,48.1667 85.5,50.8333 85.5,53.5C 77.6484,53.1746 69.9818,53.508 62.5,54.5C 61.5076,62.3159 61.1743,70.3159 61.5,78.5C 58.5,78.5 55.5,78.5 52.5,78.5C 52.5,67.5 52.5,56.5 52.5,45.5C 63.5,45.5 74.5,45.5 85.5,45.5 Z"/></g>
<g><path style="opacity:1" fill="#929291" d="M 40.5,76.5 C 40.6716,77.4916 40.3382,78.1583 39.5,78.5C 39.5,65.5 39.5,52.5 39.5,39.5C 37.8333,39.5 36.1667,39.5 34.5,39.5C 34.5,52.5 34.5,65.5 34.5,78.5C 33.5489,77.0813 33.2155,75.4147 33.5,73.5C 33.5,61.8333 33.5,50.1667 33.5,38.5C 35.8333,38.5 38.1667,38.5 40.5,38.5C 40.5,51.1667 40.5,63.8333 40.5,76.5 Z"/></g>
<g><path style="opacity:1" fill="#fdfefb" d="M 39.5,78.5 C 37.8333,78.5 36.1667,78.5 34.5,78.5C 34.5,65.5 34.5,52.5 34.5,39.5C 36.1667,39.5 37.8333,39.5 39.5,39.5C 39.5,52.5 39.5,65.5 39.5,78.5 Z"/></g>
<g><path style="opacity:1" fill="#895e12" d="M 62.5,54.5 C 62.5,62.8333 62.5,71.1667 62.5,79.5C 58.9581,79.8128 55.6248,79.4794 52.5,78.5C 55.5,78.5 58.5,78.5 61.5,78.5C 61.1743,70.3159 61.5076,62.3159 62.5,54.5 Z"/></g>
</svg>
