<?xml version="1.0"?><svg xmlns="http://www.w3.org/2000/svg" width="36" height="36" shape-rendering="geometricPrecision" text-rendering="geometricPrecision" image-rendering="optimizeQuality" fill-rule="evenodd" clip-rule="evenodd" viewBox="0 0 36 36"><path fill="#fefdfd" d="m-0.1-0.1h36v36h-36v-36z"></path><path fill="#e02427" d="m25.1 13.2c0.1-0.3 0-0.6 0-0.9-0.1 0.2-0.2 0.3-0.2 0.5-0.4 1-0.8 2.1-1.2 3.2 0.8 0.3 1.5 0.5 2.3 0.6 0.3 0.4 0.3 0.7 0.2 1.1-0.3 0.9-0.5 1.9-0.7 2.8-0.1 0.1-0.2 0.2-0.1 0.4h0.4v0.3h-0.9v-0.3c0.2-0.4 0.3-0.8 0.4-1.2 0.1-0.2 0.2-0.4 0.2-0.7 0.1-0.7 0.2-1.3 0.3-2-0.8-0.1-1.6-0.3-2.5-0.5 0-0.1-0.1-0.2-0.2-0.2 0.7-2 1.5-3.9 2.2-5.8 0.1-0.2 0.3-0.2 0.5-0.1l0 0.7c-0.1 0.6-0.2 1.3-0.3 1.9 2.9 0.6 5.1 2.1 6.6 4.7 0.5 1 0.9 2 1.3 3.1 0.6-3 0.1-5.8-1.5-8.4-1.4-1.9-3.2-3.4-5.4-4.5 0.1-0.9-0.3-1.3-1.2-1.3-1 2.7-2.1 5.4-3.2 8-0.2-1.6-0.4-3.2-0.6-4.8-0.6-0.5-1.2-1.1-1.7-1.8-0.1-0.3-0.1-0.7-0.1-1.1 0.1-0.3 0.1-0.6 0.3-0.9-0.6 0-1.2 0.1-1.8 0.2-1.7 0.8-3 1.9-4 3.5-0.2 1-0.3 2.1-0.4 3.1-0.1 0.5-0.2 1-0.4 1.5 0-0.1 0-0.2-0.1-0.3-0.8-2.4-1.7-4.7-2.7-7.1-0.6-0.2-1-0.1-1.2 0.5 0.1 0.3 0.1 0.5 0 0.8-3.5 1.6-5.8 4.2-6.9 7.9-0.2 1.3-0.2 2.6-0.2 3.9 0 0.4 0 0.8 0.1 1.2 0.1 0.1 0.2 0.1 0.4 0.1v-0.5c1-4.1 3.5-6.6 7.5-7.6 0.1-0.1 0.1-0.3 0.1-0.4-0.2-0.7-0.2-1.4-0.1-2.2 0.1 0.1 0.1 0.1 0.2 0.1 0.7 1.8 1.4 3.6 2 5.4l-0.1 0.3c-0.5 0.1-1 0.3-1.4 0.5-0.5 0.1-0.9 0.3-1 0.7 0.2 1.2 0.5 2.4 0.7 3.6h-0.4v-0.3c0-0.2 0-0.3-0.1-0.4-0.3-1.1-0.5-2.2-0.6-3.3 0.7-0.5 1.5-0.9 2.4-1.1 0-0.3-0.1-0.6-0.2-0.9-0.3-0.8-0.7-1.6-1-2.4 0 0.2-0.1 0.5-0.2 0.8-3.3 0.7-5.7 2.6-7 5.7-0.2 0.8-0.4 1.6-0.7 2.4-0.3 0.3-0.6 0.2-0.8-0.2-1-6.1 1.2-10.6 6.7-13.6 0.2-1.2 0.9-1.7 2.1-1.3 0.8 2 1.6 4 2.4 5.9 0.2-0.9 0.3-1.9 0.4-2.9 1.3-2 3.1-3.3 5.4-4 0.4-0.1 0.8-0.1 1.2 0 0.3 0.4 0.3 0.8-0.2 1.1 0 0.3 0 0.7 0 1 0.5 0.6 1 1.2 1.6 1.7 0 0.2 0.1 0.3 0.2 0.4 0.2 1 0.3 2 0.5 3 0.8-2.2 1.7-4.3 2.6-6.4 1.2-0.3 1.9 0.1 2.1 1.3 5.5 3 7.7 7.5 6.5 13.7-0.2 0.1-0.4 0.2-0.7 0.1-0.8-4.4-3.4-7.2-7.8-8.3z"></path><path fill="#170b0a" d="m13.3 14c-0.1 0-0.2 0-0.2 0.1-0.4-0.7-0.7-1.5-1.1-2.2-0.5-1.6-1.1-3.1-1.7-4.6h-0.6c0 0.2 0 0.5 0.1 0.7 1.1 2.9 2.1 5.7 3.2 8.5-0.3 0.1-0.5 0.3-0.7 0.5-0.1-0.1-0.1-0.2-0.1-0.3-0.4 0-0.8 0.1-1.2 0.2 0.4-0.2 0.9-0.4 1.4-0.5l0.1-0.3c-0.6-1.8-1.3-3.6-2-5.4 0-0.1-0.1-0.2-0.2-0.2-0.3 0.2-0.4 0.4-0.3 0.7 0.1 0.7 0.2 1.3 0.3 2-4 1-6.5 3.5-7.5 7.6-0.1 0.1-0.2 0.2-0.2 0.4-0.1-0.4-0.2-0.8-0.3-1.2 0-1.3 0-2.6 0.2-3.9 1.1-3.7 3.4-6.3 6.9-7.9 0.1-0.3 0.1-0.5 0-0.8 0.2-0.6 0.6-0.7 1.2-0.5 1 2.4 1.9 4.7 2.7 7.1z"></path><path fill="#661c21" d="m21.4 11.1c-0.1 0.3-0.1 0.6-0.1 0.9-0.1-0.7-0.1-1.4-0.3-2-0.4-0.5-0.8-0.9-1.3-1.4 0-0.1 0-0.2 0.1-0.2 0.3 0.5 0.8 0.9 1.2 1.2 0.4 0.5 0.5 0.9 0.4 1.5z"></path><path fill="#b2b2b2" d="m9.7 8.7c0.2 0.3 0.4 0.7 0.5 1.1-0.3 0.3-0.5 0.8-0.6 1.2 0.1 0.7 0.2 1.3 0.5 1.9-3.8 1-6.3 3.3-7.5 7-0.2-1.4 0-2.6 0.4-3.9 0 0.1 0 0.3 0 0.4 1.2-3.4 3.4-5.9 6.6-7.4 0.1-0.1 0.1-0.2 0.1-0.3z"></path><path fill="#332722" d="m13.1 14.1c0.2 0.7 0.4 1.4 0.7 2-0.2 0.3-0.4 0.5-0.7 0.6-0.1 0-0.1-0.1-0.1-0.2-1.1-2.8-2.1-5.6-3.2-8.5-0.1-0.2-0.1-0.5-0.1-0.7h0.6c0.6 1.5 1.2 3 1.7 4.6 0.4 0.7 0.7 1.5 1.1 2.2z"></path><path fill="#0a0303" d="m19.7 6.9h-0.3c0 0.5 0 1-0.1 1.5l0.2 0.3c0-0.1 0.1-0.1 0.2-0.1 0.5 0.5 0.9 0.9 1.3 1.4 0.2 0.6 0.2 1.3 0.3 2v0.9c0 0.5 0.1 1 0.2 1.4 0.1 0.5 0 0.9 0 1.3-0.6 0.7-1.1 1.5-1.5 2.3 0.1 0 0.3 0 0.4-0.2 0.1-0.3 0.3-0.6 0.6-0.9 0.1 0 0.2 0.1 0.3 0.2 0.1 0.2 0.2 0.4 0.3 0.6 0.1-0.2 0.2-0.2 0.4-0.1-0.2 0.8-0.6 1.4-1.1 2l0.1 0c0.8-0.7 1.3-1.5 1.6-2.5-0.1-0.1-0.2-0.2-0.3-0.3 0-0.1 0-0.2 0.1-0.2 0.2 0.1 0.3 0.1 0.4 0 0.2 0.1 0.3 0.1 0.5 0 0.9 0.2 1.7 0.4 2.5 0.5-0.1 0.7-0.2 1.3-0.3 2-0.2 0.2-0.3 0.4-0.2 0.7-0.1 0.4-0.2 0.8-0.4 1.2h-0.3c0 0.4 0.2 0.6 0.7 0.6-0.7 0-1.4 0.1-2.1 0.2-0.1 1.3-0.1 2.7-0.1 4.1 0.7 0.1 1.4 0.2 2 0.4 0.1 0 0.1 0.1 0.2 0.1 0.1-0.3 0.1-0.5 0.1-0.8-0.4-0.2-0.8-0.3-1.3-0.4v-1h0.4c0.7 0.3 1 0.1 0.9-0.6-0.2 0-0.4-0.1-0.6-0.2h-0.7v-0.7c0.4 0 0.6-0.1 0.8-0.3 0.1 0 0.2 0 0.2 0.1 0 0.3 0 0.5 0.2 0.7 0.3-0.3 0.6-0.6 1-0.9 0.1 0.2 0.1 0.3 0.1 0.5h0.5c0.4 0.1 0.7 0.2 0.9 0.4 0 0.9-0.3 1.7-0.9 2.3-0.2 0.2-0.4 0.2-0.6 0.3h-0.5c0 0.3 0 0.7 0 1-0.3 0.2-0.6 0.4-0.7 0.7-0.2 0.1-0.5 0.3-0.7 0.4-0.2 0-0.4-0.1-0.6-0.1-0.2-0.1-0.4-0.2-0.7-0.3-0.6-0.1-1.2-0.2-1.8-0.2-0.9 1.2-2.1 2.1-3.5 2.7-0.4-0.2-0.9-0.4-1.3-0.7-0.7-0.6-1.4-1.2-2.2-1.8 0-0.1-0.1-0.2-0.2-0.2-0.5 0-0.9 0.1-1.2 0.3-0.5 0.1-1.1 0.2-1.6 0.3-0.4-0.4-0.8-0.7-1.1-1.1 0-0.3 0-0.7-0.1-1-0.2-0.1-0.4-0.1-0.6-0.1-0.9-0.6-1.3-1.4-1.2-2.5 0.2-0.1 0.4-0.2 0.6-0.4h0.8c0.1-0.2 0-0.3-0.1-0.4 0-0.1-0.1-0.1-0.2-0.1-0.1-0.2-0.3-0.5-0.3-0.8 0.1-0.2 0.3-0.4 0.5-0.5h0.7v0.3h0.4c-0.2-1.2-0.5-2.4-0.7-3.6 0.1-0.4 0.5-0.6 1-0.7 0.4-0.1 0.8-0.2 1.2-0.2 0 0.1 0 0.2 0.1 0.3 0.2-0.2 0.4-0.4 0.7-0.5 0 0.1 0 0.2 0.1 0.2 0.3-0.1 0.5-0.3 0.7-0.6-0.3-0.6-0.5-1.3-0.7-2 0-0.1 0.1-0.1 0.2-0.1 0.1 0.1 0.1 0.2 0.1 0.3 0.1 0.4 0.2 0.4 0.3 0.2 0.1-0.6 0.1-1.2 0.1-1.7 0.1-1 0.2-2.1 0.4-3.1 1-1.6 2.3-2.7 4-3.5 0.6-0.1 1.2-0.2 1.8-0.2-0.2 0.3-0.2 0.6-0.3 0.9z"></path><path fill="#a1a2a1" d="m16.4 8.8c-0.4 0.3-0.8 0.7-1.1 1.2-0.3 0.7-0.5 1.5-0.7 2.3-0.1 1.3-0.1 2.5 0 3.7 0.2 0.3 0.3 0.5 0.4 0.8-0.3-0.3-0.6-0.6-0.8-1 0-1.6 0.1-3.2 0.3-4.8 0.2-1.1 0.8-1.9 1.9-2.2z"></path><path fill="#a6a8a8" d="m18.8 6.6c0.1 0 0.2 0 0.3 0-1 0.6-1.8 1.2-2.6 2-0.2 0.1-0.5 0.1-0.7 0.1 0.8-1 1.8-1.7 3-2.1z"></path><path fill="#626262" d="m20.6 13v-0.1c-0.6-1.8-1.8-2.4-3.6-1.6-0.5 0.2-0.9 0.4-1.4 0.7-0.3 0.4-0.4 0.8-0.5 1.2-0.2 1.7 0 3.2 0.8 4.6-0.4-0.3-0.7-0.6-0.9-1-0.1-0.3-0.2-0.5-0.4-0.8-0.1-1.2-0.1-2.4 0-3.7 0.2-0.8 0.4-1.6 0.7-2.3 0.3-0.5 0.7-0.9 1.1-1.2 0 0 0.1-0.1 0.2-0.1 0-0.1-0.1-0.1-0.1-0.1 0.8-0.8 1.6-1.4 2.6-2-0.1 0-0.2 0-0.3 0 0.2-0.2 0.4-0.2 0.6-0.1-0.5 0.5-0.8 1.1-1 1.8 0.1 0.4 0.2 0.8 0.6 1.1-0.5-0.1-1 0-1.5 0.2-0.4 0.3-0.7 0.6-0.9 1.1 0.4-0.2 0.8-0.4 1.2-0.6 0.6-0.1 1.1 0 1.6 0.4 1.6 1.4 2 3.1 1.5 5.1 0-0.9 0-1.8-0.3-2.6z"></path><path fill="#b41e26" d="m10.5 10.7c-0.1 0-0.1 0-0.2-0.1-0.1 0.8-0.1 1.5 0.1 2.2 0 0.1 0 0.3-0.1 0.4-0.1-0.7-0.2-1.3-0.3-2-0.1-0.3 0-0.5 0.3-0.7 0.1 0 0.2 0.1 0.2 0.2z"></path><path fill="#ab242a" d="m21.4 11.1c0.1 0.7 0.2 1.4 0.1 2.1 0.1 0.1 0 0.2 0 0.2 0-0.2-0.1-0.4-0.2-0.5v-0.9c0-0.3 0-0.6 0.1-0.9z"></path><path fill="#e9e8ea" d="m9.7 8.7c0 0.1 0 0.2-0.1 0.3-3.2 1.5-5.4 4-6.6 7.4 0-0.1 0-0.3 0-0.4 0.9-3.4 3-5.9 6.3-7.3 0.2-0.1 0.3-0.1 0.4 0z"></path><path fill="#190b0a" d="m23.3 16.5c-0.2 0.1-0.3 0.1-0.5 0 1-2.6 1.9-5.2 2.8-7.8 0.1-0.1 0.2-0.1 0.3-0.1 0-0.1-0.1-0.2-0.1-0.3 0.2-0.4 0.3-0.8 0.4-1.3h-0.7c-1.1 3-2.3 6-3.5 9 0.1 0.2 0.3 0.3 0.4 0.5-0.1 0-0.1 0.1-0.1 0.2-0.2-0.2-0.5-0.3-0.8-0.3 0.1 0.2 0.3 0.5 0.5 0.6 0.1 0.2 0.1 0.4 0 0.5-0.2-0.1-0.3-0.1-0.4 0.1-0.1-0.2-0.2-0.4-0.3-0.6-0.1-0.1-0.2-0.2-0.3-0.2 0.2-0.4 0.5-0.8 0.8-1.2 0.1-0.7 0-1.4-0.1-2 0-0.2-0.1-0.3-0.2-0.4 0.1-0.7 0-1.4-0.1-2.1 0.1-0.6 0-1-0.4-1.5-0.4-0.3-0.9-0.7-1.2-1.2-0.1 0-0.1 0.1-0.1 0.2-0.1 0-0.2 0-0.2 0.1l-0.2-0.3c0.1-0.5 0.1-1 0.1-1.5h0.3c0 0.4 0 0.8 0.1 1.1 0.5 0.7 1.1 1.3 1.7 1.8 0.2 1.6 0.4 3.2 0.6 4.8 1.1-2.6 2.2-5.3 3.2-8 0.9 0 1.3 0.4 1.2 1.3 2.2 1.1 4 2.6 5.4 4.5 1.6 2.6 2.1 5.4 1.5 8.4-0.4-1.1-0.8-2.1-1.3-3.1-1.5-2.6-3.7-4.1-6.6-4.7 0.1-0.6 0.2-1.3 0.3-1.9l0-0.7c-0.2-0.1-0.4-0.1-0.5 0.1-0.7 1.9-1.5 3.8-2.2 5.8 0.1 0 0.2 0.1 0.2 0.2z"></path><path fill="#e6e5e6" d="m33.1 17.2c0 0.2 0 0.4 0 0.6-0.8-4.2-3-7.2-6.8-9-0.1-0.1-0.2-0.3-0.1-0.4 0-0.1 0-0.1 0.1-0.1 3.9 1.7 6.2 4.6 6.8 8.9z"></path><path fill="#b2b2b2" d="m26.2 8.4c-0.1 0.1 0 0.3 0.1 0.4 3.8 1.8 6 4.8 6.8 9 0-0.2 0-0.4 0-0.6 0.2 0.7 0.2 1.5 0.1 2.3-1.2-3.6-3.7-5.9-7.4-6.7 0.3-0.9 0.4-1.7 0.3-2.6-0.1-0.2-0.3-0.4-0.5-0.6 0.2-0.4 0.3-0.8 0.6-1.2z"></path><path fill="#332723" d="m22.8 16.5c-0.1 0.1-0.2 0.1-0.4 0-0.1-0.2-0.3-0.3-0.4-0.5 1.2-3 2.4-6 3.5-9h0.7c-0.1 0.5-0.2 0.9-0.4 1.3 0 0.1 0.1 0.2 0.1 0.2-0.1 0.1-0.2 0.1-0.2 0.2-1 2.6-1.9 5.2-2.9 7.8z"></path><path fill="#e17b7f" d="m25.1 13.2l-0.2-0.4c0-0.2 0.1-0.3 0.2-0.5 0 0.3 0.1 0.6 0 0.9z"></path><path fill="#ee1c23" d="m19.5 13.7c-0.1 0-0.3 0-0.4-0.1 0.1-0.2 0.2-0.4 0.3-0.6 0.2-0.2 0.3-0.2 0.6-0.2 0.1 0.4-0.1 0.7-0.5 0.9z"></path><path fill="#ea1b22" d="m17 13.4c-0.2 0.3-0.4 0.3-0.7 0.3-0.3-0.2-0.5-0.5-0.4-0.9 0.2 0 0.3 0 0.5 0 0.1 0.3 0.3 0.5 0.6 0.6z"></path><path fill="#831a1f" d="m17 13.4c0.3 0.1 0.3 0.2 0.2 0.3-0.4 0.1-0.7 0.1-0.9 0 0.3 0 0.5 0 0.7-0.3z"></path><path fill="#991b20" d="m19.4 13c-0.1 0.2-0.2 0.4-0.3 0.6 0.1 0.1 0.3 0.1 0.4 0.1-0.3 0.1-0.6 0.1-0.9 0 0.3-0.3 0.5-0.5 0.8-0.7z"></path><path fill="#69191f" d="m21.3 12.9c0.1 0.1 0.2 0.3 0.2 0.5 0 0 0.1-0.1 0-0.2 0.1 0.1 0.2 0.2 0.2 0.4-0.2 0.2-0.2 0.5-0.2 0.7-0.1-0.4-0.2-0.9-0.2-1.4z"></path><path fill="#b61f27" d="m18.2 14.1c0.2 0.2 0.2 0.3 0.1 0.6-0.1-0.2-0.2-0.4-0.1-0.6z"></path><path fill="#581016" d="m13.8 12.8c0 0.5 0 1.1-0.1 1.7-0.1 0.2-0.2 0.2-0.3-0.2 0.2-0.5 0.3-1 0.4-1.5z"></path><path fill="#a52027" d="m21.7 13.6c0.1 0.6 0.2 1.3 0.1 2-0.3 0.4-0.6 0.8-0.8 1.2-0.3 0.3-0.5 0.6-0.6 0.9-0.1 0.2-0.3 0.2-0.4 0.2 0.4-0.8 0.9-1.6 1.5-2.3 0-0.4 0.1-0.8 0-1.3 0-0.2 0-0.5 0.2-0.7z"></path><path fill="#666" d="m15.8 21.4c-1.4-0.1-2.5-0.6-3.5-1.7 0.3-0.3 0.5-0.7 0.8-1 0.6 0.6 1.2 0.9 2 1-0.1 0-0.1-0.1-0.2-0.2-0.3-0.6-0.7-1.2-1.1-1.9 0-0.3 0.1-0.5 0.2-0.8 0.1-0.1 0.1-0.1 0.2 0 0.6 1.4 1.5 2.4 2.7 3.2 0.6 0.3 1.2 0.4 1.8 0.3 0.3-0.2 0.6-0.3 0.8-0.4-1.1 0.9-2.3 1.4-3.7 1.5z"></path><path fill="#a3a2a2" d="m14 16.8c-0.1 0.3-0.2 0.5-0.2 0.8 0.4 0.7 0.8 1.3 1.1 1.9-0.8-0.6-1.3-1.3-1.5-2.2 0.2-0.3 0.4-0.4 0.6-0.5z"></path><path fill="#8c2229" d="m20.6 12.9v0.1c0 0.6-0.3 1.1-0.7 1.6l-0.1 2.1-0.8 0.6c0 0.2-0.1 0.4-0.2 0.6-0.2 0.2-0.5 0.4-0.9 0.5 0-0.1 0-0.2 0.1-0.3 0.2-0.1 0.4-0.2 0.6-0.4l0.2-1.2c0.1 0.1 0.2 0.3 0.2 0.4l0.6-0.3c0-0.5 0-1-0.1-1.5-0.1 0.1-0.2 0-0.3-0.1 0.2-0.4 0.5-0.7 0.8-1 0.5-0.7 0.4-1.3-0.3-1.8 0.1-0.1 0.2-0.1 0.3 0 0.2 0.2 0.4 0.4 0.6 0.7z"></path><path fill="#b71f27" d="m22.3 16.7c0.1 0.1 0.2 0.2 0.3 0.3-0.3 1-0.8 1.8-1.6 2.5l-0.1 0c0.5-0.6 0.9-1.2 1.1-2 0.1-0.1 0.1-0.3 0-0.5-0.2-0.1-0.4-0.4-0.5-0.6 0.3 0 0.6 0.1 0.8 0.3z"></path><path fill="#a9a8a8" d="m13.1 18.7c-0.3 0.3-0.5 0.7-0.8 1 1 1.1 2.1 1.6 3.5 1.7-1.7 0.2-3-0.4-4-1.7 0.3-0.4 0.6-0.8 1-1.1 0.1-0.1 0.2 0 0.3 0.1z"></path><path fill="#ffcfcf" d="m26.2 17.7c-0.1 1-0.3 2-0.7 2.8 0.2-0.9 0.4-1.9 0.7-2.8z"></path><path fill="#a11f25" d="m23.3 18.4c0.1-0.1 0.2-0.1 0.3-0.1 0.3 0.3 0.6 0.7 0.8 1.1-0.2 0.3-0.4 0.6-0.6 0.9l-0.1-0.2c0.1-0.2 0.2-0.4 0.3-0.6-0.1-0.5-0.3-0.8-0.7-1.1z"></path><path fill="#85181d" d="m25.5 19c0 0.3-0.1 0.5-0.2 0.7-0.1-0.3 0-0.5 0.2-0.7z"></path><path fill="#a11f26" d="m22.4 19.2c0.3 0.1 0.4 0.3 0.5 0.6-0.2 0.3-0.5 0.5-0.8 0.7-0.2 0.1-0.4 0.1-0.6 0.1 0.4-0.3 0.8-0.6 1.1-0.9-0.1-0.2-0.2-0.3-0.2-0.5z"></path><path fill="#9d171e" d="m2.3 20c0.1 0.4 0.2 0.8 0.3 1.2 0-0.2 0.1-0.3 0.2-0.4v0.5c-0.2 0-0.3 0-0.4-0.1-0.1-0.4-0.1-0.8-0.1-1.2z"></path><path fill="#c78e92" d="m10.2 20.5c0.1 0.1 0.1 0.2 0.1 0.4h-0.7c0.2-0.1 0.4-0.2 0.6-0.4z"></path><path fill="#d49498" d="m25.5 20.5c0.3 0.2 0.7 0.3 1.1 0.4h-1.2c-0.1-0.2 0-0.3 0.1-0.4z"></path><path fill="#220d0b" d="m24.9 20.9v0.3h0.9v-0.3h0.8c0.2 0.1 0.4 0.2 0.5 0.5-0.2 0.3-0.3 0.5-0.4 0.8-0.1 0.1-0.2 0.1-0.2 0.2 0.2 0.1 0.3 0.2 0.4 0.3h-0.5c0-0.2 0-0.3-0.1-0.5 0.1-0.2 0.2-0.4 0.3-0.7-0.2-0.4-0.5-0.4-0.8 0-0.2 0.4-0.4 0.7-0.7 0.9 0-0.1-0.1-0.1-0.2-0.1 0-0.1 0.1-0.3 0.2-0.4 0.1 0 0.1-0.1 0.2-0.1-0.7-0.1-1.4-0.2-2.1-0.1 0.7-0.1 1.4-0.2 2.1-0.2-0.5 0-0.7-0.2-0.7-0.6h0.3z"></path><path fill="#a9232b" d="m12.7 21.8c-0.6-0.1-1.1 0-1.6 0.1 0.1 0.1 0.2 0.3 0.2 0.5-0.2-0.2-0.4-0.4-0.4-0.7 0.6-0.1 1.2 0 1.8 0.1z"></path><path fill="#d9d8d9" d="m9.6 21.2c0.2 0 0.3 0 0.5 0.1l0.8 1c0.1 0.3 0.1 0.6 0 0.8-0.5-0.4-0.9-0.9-1.3-1.3-0.1-0.2-0.1-0.4 0-0.6z"></path><path fill="#9c1920" d="m20.3 22.9c0-0.2 0-0.3-0.1-0.4-0.3-0.1-0.7-0.1-1-0.1 0 0.2 0 0.4 0.1 0.5-0.2-0.2-0.3-0.4-0.2-0.7 0.4 0 0.8 0 1.2 0.1 0.2 0.2 0.2 0.4 0 0.6z"></path><path fill="#941c22" d="m22.7 23.3v-0.9c-0.6 0-1.2 0-1.8 0.1-0.1 0.3-0.2 0.7-0.1 1.1-0.2-0.4-0.2-0.8-0.2-1.3h2.2c0 0.4 0 0.7-0.1 1z"></path><path fill="#d7d7d8" d="m26.3 22.2c-0.4 0.3-0.7 0.6-1 0.9-0.2-0.2-0.2-0.4-0.2-0.7 0.3-0.2 0.5-0.5 0.7-0.9 0.3-0.4 0.6-0.4 0.8 0-0.1 0.3-0.2 0.5-0.3 0.7z"></path><path fill="#dc2f30" d="m9.4 22.2c0.1 0 0.2 0 0.2 0.1-0.2 0.2-0.4 0.3-0.7 0.4-0.2 0.2-0.4 0.3-0.6 0.4 0.1-0.6 0.5-0.9 1.1-0.9z"></path><path fill="#701115" d="m9.6 22.3c0.1 0.1 0.2 0.2 0.1 0.4h-0.8c0.3-0.1 0.5-0.2 0.7-0.4z"></path><path fill="#e3252b" d="m26.7 22.2c0.6 0.1 1 0.4 1.1 0.9-0.2-0.2-0.5-0.3-0.9-0.4-0.1-0.1-0.2-0.2-0.4-0.3 0-0.1 0.1-0.1 0.2-0.2z"></path><path fill="#f61821" d="m25.1 21.9c-0.1 0.1-0.2 0.3-0.2 0.4-0.2 0.2-0.4 0.3-0.8 0.3v0.7h0.7c0.2 0.1 0.4 0.2 0.6 0.2 0.1 0.7-0.2 0.9-0.9 0.6h-0.4v1c0.5 0.1 0.9 0.2 1.3 0.4 0 0.3 0 0.5-0.1 0.8-0.1 0-0.1-0.1-0.2-0.1-0.5-0.3-1.2-0.5-1.9-0.5v-3.9c0.7-0.1 1.3 0 1.9 0.1z"></path><path fill="#eb1b23" d="m22.7 23.3h-0.7v-0.3h-0.5c0 0.2 0.1 0.3 0.2 0.4 0.3 0.3 0.7 0.5 1.1 0.7v1.5h-0.8c-0.1-0.1-0.1-0.1-0.2-0.2-0.4 0-0.7 0-1 0v-0.8c0.2 0 0.5 0 0.7 0.1 0.1 0.2 0.3 0.3 0.5 0.2 0-0.1 0-0.3-0.1-0.4-0.3-0.4-0.7-0.7-1.1-0.9-0.1-0.4 0-0.8 0.1-1.1 0.6-0.1 1.2-0.1 1.8-0.1v0.9z"></path><path fill="#a12129" d="m13.1 22.1c0.1 0 0.1 0.1 0.2 0.1 0.1 1 0 2-0.1 2.9 0.1-1 0-2-0.1-3z"></path><path fill="#ad1a21" d="m15.5 22.9h-0.6c0.1-0.1 0.3-0.1 0.5-0.1v-0.4h-1.6c-0.1 1.1 0 2.1 0.2 3.1-0.1 0.1-0.3 0.1-0.4 0.1v-3.3h1.9v0.6z"></path><path fill="#f81821" d="m14.9 22.9h-0.6v0.7h1.1v0.4c-0.3 0-0.6 0-0.8 0.1h-0.1c-0.2 0.3-0.2 0.5-0.2 0.8h1.1v0.4c-0.3-0.1-0.6 0-0.9 0-0.1 0.1-0.1 0.1-0.2 0.2h-0.3c-0.2-1-0.3-2-0.2-3.1h1.6v0.4c-0.2 0-0.4 0-0.5 0.1z"></path><path fill="#741318" d="m14.9 22.9h0.6c-0.3 0.1-0.7 0.1-1 0.1v0.5h1v0.6h-0.9c0.2-0.1 0.5-0.1 0.8-0.1v-0.4h-1.1v-0.7h0.6z"></path><path fill="#4f0205" d="m15.8 22.3v3h0.7c-0.3 0.1-0.5 0.1-0.8 0.1 0-1.1 0-2.1 0.1-3.1z"></path><path fill="#5e0305" d="m20.3 22.9c-0.1 0.6-0.1 1.3 0 1.9-0.1-0.3-0.2-0.6-0.2-0.9 0-0.4 0.1-0.7 0.2-1z"></path><path fill="#dbdbdc" d="m26.6 23c0.3-0.1 0.6 0 0.8 0.3 0.1 0.9-0.3 1.6-1 2-0.2 0.1-0.5 0.1-0.7 0 0.3-0.2 0.6-0.4 0.8-0.7-0.1-0.5 0.1-0.9 0.4-1.3-0.1-0.1-0.2-0.2-0.3-0.3z"></path><path fill="#e31d25" d="m18.6 22.3c0.1 1 0 1.9-0.1 2.8 0-0.9 0-1.8-0.1-2.7-0.2 0.1-0.4 0.2-0.6 0.2-0.2 0.3-0.3 0.7-0.2 1.1 0.2-0.5 0.3-0.4 0.3 0.1-0.2 0.4-0.4 0.8-0.4 1.3h-0.5c-0.1-0.4-0.2-0.8-0.3-1.2 0.2 0.1 0.3 0.3 0.3 0.5 0.1-0.1 0.2-0.2 0.3-0.3-0.1-0.1-0.2-0.2-0.3-0.3 0.3 0 0.4-0.2 0.4-0.5 0-0.7 0.4-1.1 1.2-1z"></path><path fill="#fb161d" d="m18.5 25.1h-0.6v-1.3c0-0.5-0.1-0.6-0.3-0.1-0.1-0.4 0-0.8 0.2-1.1 0.2 0 0.4-0.1 0.6-0.2 0.1 0.9 0.1 1.8 0.1 2.7z"></path><path fill="#fa161f" d="m17 23.8c0.1 0.1 0.2 0.2 0.3 0.3-0.1 0.1-0.2 0.2-0.3 0.3 0-0.2-0.1-0.4-0.3-0.5 0-0.1 0-0.1-0.1-0.1-0.1 0.4-0.2 0.9-0.2 1.3h-0.5v-2.7h0.8c0.1 0.5 0.3 0.9 0.3 1.4z"></path><path fill="#dcdbdc" d="m9.2 22.9c0.4 0 0.4 0.1 0 0.4 0.4 0.4 0.5 0.8 0.4 1.3 0.3 0.3 0.5 0.5 0.8 0.7-0.3 0.1-0.5 0.1-0.8 0-0.6-0.5-1-1.1-0.9-2 0.1-0.1 0.3-0.3 0.5-0.4z"></path><path fill="#90161c" d="m24.8 23.3c0.2 0.1 0.4 0.2 0.6 0.2 0.1 0.7-0.2 0.9-0.9 0.6 0.2 0.1 0.5 0 0.7-0.1 0.1-0.1 0.1-0.2 0-0.3-0.2-0.1-0.3-0.2-0.4-0.4z"></path><path fill="#f91720" d="m12.7 21.8l0.4 0.3c0.1 1 0.2 2 0.1 3-0.3 0.6-0.9 0.9-1.6 0.8h-0.9v-0.3h0.5c0-0.3-0.1-0.4-0.3-0.5h-0.2c0-0.5 0-1 0.1-1.5 0.2 0.1 0.4 0.1 0.6-0.1-0.1 0.6 0 1.1 0.2 1.6h0.8v-2.7c-0.4 0.1-0.7 0.1-1.1 0 0-0.2-0.1-0.4-0.2-0.5 0.5-0.1 1-0.2 1.6-0.1z"></path><path fill="#a21a20" d="m11.3 22.4c0.4 0.1 0.7 0.1 1.1 0v2.7h-0.5c0.1-0.1 0.2-0.1 0.4-0.1v-2.4h-0.7v2.5c-0.2-0.5-0.3-1-0.2-1.6-0.2 0.2-0.4 0.2-0.6 0.1-0.1 0.5-0.1 1-0.1 1.5-0.2-0.5-0.3-1.1-0.2-1.8 0.3 0.1 0.5 0.1 0.7 0 0.1-0.2 0.1-0.5 0.1-0.9z"></path><path fill="#0e0202" d="m11.9 25.1h-0.3v-2.5h0.7v2.4c-0.2 0-0.3 0-0.4 0.1z"></path><path fill="#f01a22" d="m20.3 22.9c-0.1 0.3-0.2 0.6-0.2 1 0 0.3 0.1 0.6 0.2 0.9v0.5h-1.2c0.1-0.8 0.2-1.6 0.2-2.4-0.1-0.1-0.1-0.3-0.1-0.5 0.3 0 0.7 0 1 0.1 0.1 0.1 0.1 0.2 0.1 0.4z"></path><path fill="#841319" d="m21.5 24.7c-0.2-0.1-0.5-0.1-0.7-0.1v0.8c0.3 0 0.6 0 1 0 0.1 0.1 0.1 0.1 0.2 0.2-0.5-0.1-0.9-0.1-1.4-0.1v-1.1c0.4-0.1 0.7 0 0.9 0.3z"></path><path fill="#6f1117" d="m18.6 22.3c0.1 1 0.2 2 0.1 3-0.3 0.1-0.6 0.1-0.8-0.2h0.6c0.1-0.9 0.2-1.8 0.1-2.8z"></path><path fill="#b81d26" d="m17.4 23.3c0 0.3-0.1 0.5-0.4 0.5 0-0.5-0.2-0.9-0.3-1.4h-0.8v2.7h0.5c0-0.4 0.1-0.9 0.2-1.3 0.1 0 0.1 0 0.1 0.1l-0.2 1.4h-0.7v-3c0.3-0.1 0.6-0.1 0.9 0 0.2 0.4 0.4 0.8 0.5 1.3 0-0.1 0.1-0.2 0.2-0.3z"></path><path fill="#b5252c" d="m14.5 24.1v0.7h1v0.6l-1.2 0.1c0.1-0.1 0.1-0.1 0.2-0.2 0.3 0 0.6-0.1 0.9 0v-0.4h-1.1c0-0.3 0-0.5 0.2-0.8z"></path><path fill="#8a1317" d="m20.3 24.8c0.1 0.2 0.2 0.4 0.1 0.6-0.5 0-0.9 0-1.3-0.1h1.2v-0.5z"></path><path fill="#91151c" d="m10.9 25.1c0.2 0.1 0.3 0.2 0.3 0.5h-0.5c0.3-0.1 0.3-0.3 0.2-0.5z"></path><path fill="#b02028" d="m23.2 21.7c0.7-0.1 1.4 0 2.1 0.1-0.1 0-0.1 0.1-0.2 0.1-0.6-0.1-1.2-0.2-1.9-0.1v3.9c0.7 0 1.4 0.2 1.9 0.5-0.6-0.2-1.3-0.3-2-0.4 0-1.4 0-2.8 0.1-4.1z"></path><path fill="#aa1b22" d="m10.7 25.6v0.3h0.9c-0.3 0.2-0.7 0.3-1.1 0.4 0-0.3 0-0.5 0.2-0.7z"></path><path fill="#921c20" d="m9.5 25.6c0.2 0 0.4 0 0.6 0.1 0.1 0.3 0.1 0.7 0.1 1-0.1-0.3-0.2-0.6-0.2-0.9-0.1 0.1-0.2 0.2-0.3 0.2 0-0.1 0-0.3-0.2-0.4z"></path><path fill="#e32528" d="m26.3 25.7c0 0.4 0 0.8-0.1 1.2-0.5 0.5-1 0.9-1.4 1.3-1-0.1-2.1-0.3-3.1-0.6-0.6 0.6-1.2 1.1-1.8 1.7-0.7 0.4-1.3 0.8-2.1 1-1.4-0.5-2.7-1.4-3.7-2.6-0.8 0-1.5 0.2-2.2 0.5-0.3 0.1-0.5 0.1-0.7 0-0.5-0.4-1-0.8-1.4-1.3-0.1-0.3-0.1-0.6-0.1-0.9 0.1 0 0.2-0.1 0.3-0.2 0 0.3 0.1 0.6 0.2 0.9 0.3 0.4 0.7 0.7 1.1 1.1 0.5-0.1 1.1-0.2 1.6-0.3 0.5-0.1 1-0.1 1.4-0.1 0.8 0.6 1.5 1.2 2.2 1.9 0.4 0.2 0.9 0.4 1.3 0.6 1.4-0.6 2.6-1.5 3.5-2.7 0.6 0 1.2 0.1 1.8 0.3 0.3 0 0.5 0.1 0.7 0.2 0.6 0.4 1 0.3 1.3-0.3 0.1-0.3 0.4-0.5 0.7-0.7 0-0.3 0-0.7 0-1h0.5z"></path><path fill="#8e141b" d="m25.1 27.4c-0.3 0.6-0.7 0.7-1.3 0.3 0.2 0 0.4 0.1 0.6 0.1 0.2-0.1 0.5-0.3 0.7-0.4z"></path><path fill="#a31a21" d="m14.3 27.4c-0.4 0-0.9 0-1.4 0.1 0.3-0.2 0.7-0.3 1.2-0.3 0.1 0 0.2 0.1 0.2 0.2z"></path><path fill="#5e5e5e" d="m15.6 26.9c0.5 0 1 0 1.4 0.1 0.6 0.7 1.1 0.7 1.6 0 0.4-0.1 0.7-0.1 1 0-0.5 0.5-1 0.9-1.7 1.3l-0.2 0.4c-0.5-0.2-1-0.5-1.4-0.9-0.3-0.2-0.6-0.5-0.7-0.9z"></path></svg>