<?xml version="1.0"?><svg xmlns="http://www.w3.org/2000/svg" width="36" height="36" shape-rendering="geometricPrecision" text-rendering="geometricPrecision" image-rendering="optimizeQuality" fill-rule="evenodd" clip-rule="evenodd" viewBox="0 0 36 36"><path fill="#606060" d="m21.7-0.1h1.2c0.1 0.1 0.2 0.3 0.4 0.4 1 0.3 2 0.6 2.9 1 0.4 0.3 0.7 0.6 1 0.9-0.6-0.3-1.3-0.5-2-0.7-0.4-0.3-0.8-0.5-1.2-0.8-0.8-0.3-1.5-0.6-2.3-0.8z" opacity=".086"></path><path fill="#c6c6c6" d="m10.3-0.1h1.2c-1 0.5-1.9 0.9-2.9 1.4-1.9 1.1-3.7 2.5-5.2 4.3-1.3 1.7-2.5 3.5-3.5 5.4v-1.1c0.4-0.6 0.7-1.2 1.2-1.8 0.1 0 0.3 0 0.4-0.2 2.1-3.4 4.9-5.9 8.6-7.5 0.1-0.2 0.2-0.3 0.2-0.5z" opacity=".035"></path><path fill="#dcbf65" d="m15.7 0.2h4.5c0.1 0.1 0.3 0.2 0.5 0.2 0.2 0.1 0.4 0.1 0.6 0.1h0.4c0.1 0.1 0.2 0.2 0.3 0.1h0.1c0.2 0.2 0.4 0.2 0.6 0.2 0.1 0.1 0.2 0.1 0.3 0.1h0.3c0 0.1 0.1 0.2 0.3 0.2h0.1c0 0.1 0.1 0.1 0.3 0.1v0.1c-1-0.2-1.9-0.4-2.8-0.5-0.2 0.4-0.3 0.8-0.4 1.2-0.1-0.4 0-0.9 0.2-1.3-0.2-0.1-0.3-0.1-0.5-0.1 0 0.5-0.1 1-0.3 1.4 0-0.3 0-0.8-0.1-1.2 0 0.3-0.2 0.6-0.3 0.9 0.2 0.3 0.1 0.4-0.3 0.3h-2.6c-0.1-0.1-0.2-0.1-0.4-0.1 0-0.4 0-0.8 0-1.1-0.2 0.3-0.3 0.3-0.3-0.2-0.1 0.5-0.1 0.9-0.1 1.3-0.1-0.3-0.2-0.6-0.2-1-0.1 0.3-0.2 0.3-0.3-0.1-0.1 0.4 0 0.8 0.1 1.2-0.2 0.1-0.3 0-0.4 0-0.1-0.3-0.1-0.8 0-1.4-0.6 0.1-1.2 0.2-1.7 0.4 0.2 0 0.4 0.1 0.5 0.3l0.1-0.4c0.1 0.2 0.2 0.2 0.3 0 0.1 0.4 0.2 0.4 0.3 0 0.1 0.3 0.2 0.6 0.3 1l-0.1 0.1c-0.1-0.1-0.2-0.3-0.2-0.5-0.2 0.8-0.4 0.8-0.6 0.1-0.1 0.3-0.2 0.5-0.3 0.7-0.2-0.4-0.3-0.8-0.5-1.2-0.5 0-1 0.1-1.5 0.2v-0.1c0.1 0 0.2 0 0.3-0.1h0.1c0.1 0 0.2-0.1 0.3-0.2 0.1 0 0.2 0 0.3-0.1h0.2c0.2 0 0.3 0 0.3-0.2h0.5c0.1 0.1 0.2 0 0.2-0.1h0.5c0.1 0 0.2 0 0.2-0.1h0.3c0.2 0 0.4-0.1 0.6-0.2z"></path><path fill="#cfab4f" d="m24 1.3l0.5 0.5c0 0.2-0.1 0.5-0.2 0.8l0.2 0.4c0.1-0.3 0.3-0.7 0.5-1-0.1 0.3-0.1 0.6 0.2 0.9 0.1-0.6 0.3-0.7 0.6-0.2-0.5 1.1-0.5 1.2 0.1 0 0.1-0.1 0.2-0.1 0.3 0-0.1 0.4-0.2 0.9-0.4 1.3-0.8-0.3-1.5-0.7-2.2-1 0.1-0.4 0.2-0.9 0.3-1.4-0.2 0.4-0.4 0.8-0.6 1.1-0.1-0.4-0.1-0.8 0-1.2-0.2 0.4-0.4 0.8-0.4 1.2-1.2-0.2-2.3-0.4-3.4-0.7 0.4 0.1 0.5 0 0.3-0.3 0.1-0.3 0.3-0.6 0.3-0.9 0.1 0.4 0.1 0.9 0.1 1.2 0.2-0.4 0.3-0.9 0.3-1.4 0.2 0 0.3 0 0.5 0.1-0.2 0.4-0.3 0.9-0.2 1.3 0.1-0.4 0.2-0.8 0.4-1.2 0.9 0.1 1.8 0.3 2.8 0.5z"></path><path fill="#bbb" d="m26.1 0.5c1.1 0.4 2.2 1 3.2 1.8 0 0.2 0 0.3 0 0.4h-0.5c0-0.1-0.1-0.3-0.2-0.4-0.7-0.5-1.4-0.9-2.1-1.3-0.2-0.2-0.3-0.3-0.4-0.5z" opacity=".035"></path><path fill="#e8d482" d="m16.9 2c-2.6 0.2-5 1-7.3 2.3-0.2 0.1-0.3 0.1-0.5 0-0.6 1-1.1 0.9-1.4-0.3l0.6 0.3-0.1-0.7c0-0.1 0.1-0.1 0.2-0.2 0.3 0.6 0.5 0.6 0.3-0.1l0.4 0.1c0.1-0.1 0.1-0.2 0-0.4l0.2-0.1c0.2 0.1 0.4 0.3 0.5 0.5 0.1-0.2 0-0.4-0.2-0.7 0.2-0.1 0.4-0.1 0.5 0 0.1-0.1 0.1-0.2 0.1-0.4 0.4 0.1 0.7 0.4 0.8 0.9-0.1-0.4-0.1-0.8-0.2-1.2h0.4c0 0.4 0.1 0.7 0.3 1 0.1-0.3 0-0.6-0.2-0.9 0.2-0.3 0.4-0.5 0.7-0.6 0 0-0.1 0-0.1 0v-0.2c0.5-0.1 1-0.2 1.5-0.2 0.2 0.4 0.3 0.8 0.5 1.2 0.1-0.2 0.2-0.4 0.3-0.7 0.2 0.7 0.4 0.7 0.6-0.1 0 0.2 0.1 0.4 0.2 0.5l0.1-0.1c-0.1-0.4-0.2-0.7-0.3-1-0.1 0.4-0.2 0.4-0.3 0-0.1 0.2-0.2 0.2-0.3 0l-0.1 0.4c-0.1-0.2-0.3-0.3-0.5-0.3 0.5-0.2 1.1-0.3 1.7-0.4-0.1 0.6-0.1 1.1 0 1.4 0.1 0 0.2 0.1 0.4 0-0.1-0.4-0.2-0.8-0.1-1.2 0.1 0.4 0.2 0.4 0.3 0.1 0 0.4 0.1 0.7 0.2 1 0-0.4 0-0.8 0.1-1.3 0 0.5 0.1 0.5 0.3 0.2 0 0.3 0 0.7 0 1.1 0.2 0 0.3 0 0.4 0.1z"></path><path fill="#201f1f" d="m16.9 2h2.6c1.1 0.3 2.2 0.5 3.4 0.7 0.2 0.2 0.4 0.3 0.7 0.3 0.7 0.3 1.4 0.7 2.2 1 0 0.1 0.1 0.1 0.1 0.1 0.5 0.4 0.9 0.7 1.5 0.9 0.2 0.3 0.5 0.5 0.8 0.7 0.2 0.3 0.5 0.6 0.8 0.7 0.1 0.2 0.3 0.3 0.5 0.4-0.1 0.2 0 0.3 0.1 0.3 0.1 0.2 0.3 0.4 0.6 0.6 0.2 0.3 0.4 0.6 0.7 0.9 0 0.2 0.1 0.3 0.2 0.3 0.7 1.2 1.3 2.4 1.9 3.7 0 0.1 0 0.2 0.1 0.3 0.7 2.4 0.9 4.9 0.6 7.4-0.4 2.1-1.1 4.1-2.1 5.9-1.5 2.1-3.3 3.9-5.4 5.4-3 1.6-6.1 2.3-9.5 2.2-0.8-0.1-1.6-0.2-2.4-0.4-0.3-0.1-0.7-0.2-1-0.3-2.8-0.9-5.2-2.5-7.2-4.6-0.7-0.8-1.4-1.7-2-2.7-0.6-1.2-1.1-2.6-1.5-3.9-0.1-0.3-0.1-0.6-0.3-0.9-0.5-2.6-0.3-5.2 0.4-7.7 0.9-2.6 2.3-4.8 4.1-6.8 0.9-0.8 1.9-1.5 2.8-2.2 2.3-1.3 4.7-2.1 7.3-2.3z"></path><path fill="#e2cb76" d="m23.6 3c-0.3 0-0.5-0.1-0.7-0.3 0-0.4 0.2-0.8 0.4-1.2-0.1 0.4-0.1 0.8 0 1.2 0.2-0.3 0.4-0.7 0.6-1.1-0.1 0.5-0.2 1-0.3 1.4z"></path><path fill="#3a3a39" d="m25.2 1.6v-0.1c0.7 0.2 1.4 0.4 2 0.7 0.2 0.2 0.4 0.3 0.7 0.3 0 0.1 0 0.3 0.2 0.4 0.5 0.3 0.9 0.6 1.2 1.1-0.1 0-0.1 0.1-0.1 0.1-0.2 0-0.3-0.1-0.3-0.2 0-0.1 0-0.2-0.1-0.2 0-0.1-0.1-0.1-0.2-0.1 0-0.2-0.1-0.2-0.1 0-0.1 0-0.2-0.1-0.2-0.2s0-0.1-0.1-0.1c-0.1-0.2-0.1-0.2-0.1 0-0.1 0-0.2 0-0.2-0.1s0-0.2-0.1-0.2c-0.1-0.2-0.1-0.2-0.2 0-0.1 0-0.1 0-0.1-0.1s-0.1-0.2-0.1-0.2c-0.1-0.1-0.1-0.1-0.2 0-0.1 0-0.1 0-0.1-0.1-0.1-0.2-0.1-0.2-0.2 0-0.1 0-0.1 0-0.1-0.1s-0.1-0.2-0.2-0.2c0-0.1-0.1-0.1-0.2-0.1-0.1-0.2-0.1-0.2-0.2 0-0.1 0-0.2 0-0.3-0.2-0.1 0.1-0.2 0-0.2-0.1-0.2 0-0.3 0-0.3-0.1 0.1-0.1 0.1-0.2-0.2-0.2z" opacity=".094"></path><path fill="#e0e0e0" d="m9.9-0.1h0.4c0 0.2-0.1 0.3-0.2 0.5-3.7 1.6-6.5 4.1-8.6 7.5-0.1 0.2-0.3 0.2-0.4 0.2 1.4-2.8 3.5-5 6.1-6.7 0.9-0.5 1.8-1 2.7-1.5z" opacity=".02"></path><path fill="#c79e3e" d="m11.3 1.3h0.6v0.2c-2.6 0.8-4.8 2.3-6.6 4.3-1.8 1.8-3.1 3.9-4 6.2h-0.1v-0.3c0.1 0 0.1 0 0.1-0.1v-0.3c0.1 0 0.2 0 0.2-0.1v-0.2c0.1 0 0.1 0 0.1-0.1v-0.3c0.1 0 0.2 0 0.2-0.1 0.1-0.1 0.1-0.2 0.1-0.3v-0.1c0.1 0 0.1-0.1 0.1-0.2 0.2 0 0.2-0.1 0.2-0.3v-0.1c0.1-0.1 0.1-0.1 0.1-0.3 0.1 0 0.2 0 0.2-0.1 0.1 0 0.1-0.1 0.1-0.2v-0.1c0.1 0 0.1-0.1 0.1-0.2v-0.1c0.1 0 0.2 0 0.2-0.1 0.1 0 0.1-0.1 0.1-0.2v-0.1c0.1 0 0.2-0.1 0.2-0.2 0.1 0 0.1 0 0.1-0.1v-0.1c0.1 0 0.1-0.1 0.1-0.2 0.1 0 0.2 0 0.2-0.1v-0.2c0.1 0 0.1 0 0.1-0.1 0.1 0 0.2 0 0.2-0.1 0.1-0.1 0.2-0.2 0.2-0.3v-0.2c0.1 0 0.2 0 0.2-0.1 0.1 0 0.1 0 0.1-0.1 0.1 0 0.2-0.1 0.2-0.2 0.1 0 0.1 0 0.1-0.1 0.1 0 0.2-0.1 0.2-0.2 0.1 0 0.2-0.1 0.2-0.2v-0.2c0.1 0 0.2 0 0.2-0.1 0.1 0 0.1-0.1 0.1-0.2h0.2c0.1 0 0.2-0.1 0.2-0.2 0.1 0 0.2-0.1 0.2-0.2 0.1 0 0.1 0 0.1-0.1 0.1 0 0.2-0.1 0.2-0.2 0.1 0 0.1 0 0.1-0.1 0.1 0 0.1-0.1 0.1-0.2h0.2c0.1 0 0.2-0.1 0.3-0.2 0.1 0 0.1-0.1 0.1-0.2 0.1 0 0.1 0 0.1-0.1h0.2c0.1 0 0.1-0.1 0.1-0.2 0.1 0 0.2 0 0.2-0.1h0.1c0.1 0 0.1 0 0.1-0.1 0.1 0 0.2-0.1 0.2-0.2h0.1c0.1 0 0.2 0 0.2-0.1 0.1 0 0.1-0.1 0.1-0.2h0.1c0.1 0 0.2 0 0.2-0.1h0.1c0.1 0 0.2 0 0.2-0.1 0.1 0 0.1-0.1 0.1-0.2 0.2 0 0.2 0 0.3-0.1h0.1c0.2 0 0.3 0 0.3-0.2 0.2 0.1 0.2 0 0.3-0.1 0.1 0 0.2 0 0.3-0.1 0.1 0 0.1-0.1 0.1-0.2h0.3c0.1 0 0.1 0 0.1-0.1h0.2c0.1 0 0.1-0.1 0.1-0.2z"></path><path fill="#bd902f" d="m24.5 1.8c1.8 0.6 3.3 1.5 4.7 2.8-0.2 0.1-0.5 0.3-0.7 0.5-0.2-0.3-0.1-0.5 0.3-0.7-0.3-0.1-0.4 0-0.5 0.2-0.1 0.2-0.3 0.4-0.5 0.6 0.1 0.1 0.3 0 0.4-0.1 0.2 0.2 0.2 0.4 0 0.6-0.3-0.2-0.6-0.4-0.8-0.7 0.4-0.3 0.6-0.7 0.7-1.1-0.2 0.3-0.5 0.6-0.8 1-0.1-0.1-0.2-0.2-0.2-0.3 0.2-0.3 0.5-0.6 0.7-0.9-0.1-0.1-0.2-0.1-0.3 0-0.1 0.1-0.2 0.3-0.4 0.4 0.1-0.3 0.1-0.6 0-0.9l-0.7 0.9c-0.1-0.4 0-0.8 0.2-1.2-0.3 0.4-0.5 0.8-0.7 1.2 0 0-0.1 0-0.1-0.1 0.2-0.4 0.3-0.9 0.4-1.3-0.1-0.1-0.2-0.1-0.3 0-0.6 1.2-0.6 1.1-0.1 0-0.3-0.5-0.5-0.4-0.6 0.2-0.3-0.3-0.3-0.6-0.2-0.9-0.2 0.3-0.4 0.7-0.5 1l-0.2-0.4c0.1-0.3 0.2-0.6 0.2-0.8z"></path><path fill="#bdb6a3" d="m21.3 4.4l-0.6-0.4c0-0.1 0-0.2 0.1-0.3 0.3 0.2 0.4 0.4 0.5 0.7z"></path><path fill="#dabb64" d="m27.4 5c-0.6-0.2-1-0.5-1.5-0.9 0.2-0.4 0.4-0.8 0.7-1.2-0.2 0.4-0.3 0.8-0.2 1.2l0.7-0.9c0.1 0.3 0.1 0.6 0 0.9 0.2-0.1 0.3-0.3 0.4-0.4 0.1-0.1 0.2-0.1 0.3 0-0.2 0.3-0.5 0.6-0.7 0.9 0 0.1 0.1 0.2 0.2 0.3 0.3-0.4 0.6-0.7 0.8-1-0.1 0.4-0.3 0.8-0.7 1.1z"></path><path fill="#636363" d="m13.3-0.1h0.8c-5.9 1.6-10.2 5.1-13 10.6-0.1-0.2 0-0.4 0-0.6 2.8-5 6.8-8.3 12.2-10z" opacity=".082"></path><path fill="#f1e38b" d="m17.8 3.6c0.3 0.1 0.5 0.4 0.6 0.7 0.3 0.2 0.6 0.3 0.9 0.3l-0.7 0.7 0.3 0.9c-0.3-0.1-0.7-0.3-1-0.5-0.2 0.2-0.5 0.4-0.7 0.6-0.1-0.4-0.1-0.8 0-1.2-0.2-0.2-0.4-0.4-0.7-0.5 0.3-0.1 0.7-0.2 1-0.2 0.2-0.3 0.3-0.5 0.3-0.8z"></path><path fill="#efe29c" d="m11.9 1.5c0 0 0.1 0 0.1 0-0.3 0.1-0.5 0.3-0.7 0.6 0.2 0.3 0.3 0.6 0.2 0.9-0.2-0.3-0.3-0.6-0.3-1h-0.4c0.1 0.4 0.1 0.8 0.2 1.2-0.1-0.5-0.4-0.8-0.8-0.9 0 0.2 0 0.3-0.1 0.4-0.1-0.1-0.3-0.1-0.5 0 0.2 0.3 0.3 0.5 0.2 0.7-0.1-0.2-0.3-0.4-0.5-0.5l-0.2 0.1c0.1 0.2 0.1 0.3 0 0.4l-0.4-0.1c0.2 0.7 0 0.7-0.3 0.1-0.1 0.1-0.2 0.1-0.2 0.2l0.1 0.7-0.6-0.3c0.3 1.2 0.8 1.3 1.4 0.3 0.2 0.1 0.3 0.1 0.5 0-0.9 0.7-1.9 1.4-2.8 2.2 0-0.3-0.1-0.5-0.2-0.8l0.4 0.4c0.1-0.1 0.2-0.2 0.2-0.3-0.2-0.3-0.5-0.6-0.7-0.9-0.2 0.4-0.4 0.6-0.7 0.8 0.1 0.1 0.1 0.1 0.2 0.2-0.2 0.1-0.3 0-0.4-0.2-0.1 0.1-0.2 0.1-0.3 0.1 1.8-2 4-3.5 6.6-4.3z"></path><path fill="#818181" d="m22.9-0.1h1.9c0.2 0.2 0.5 0.4 0.7 0.5 0.2 0.1 0.4 0.1 0.6 0.1 0.1 0.2 0.2 0.3 0.4 0.5 0.7 0.4 1.4 0.8 2.1 1.3 0.1 0.1 0.2 0.3 0.2 0.4h0.5c0 0.1 0 0.2 0.1 0.3 1.5 1.3 2.9 2.7 4.2 4.2 0.1 0.2 0.1 0.4 0.1 0.6 0.1 0 0.3 0 0.4 0.1 0.1 0.2 0.2 0.4 0.4 0.5 0.5 1.3 0.9 2.5 1.4 3.8v0.7c-0.1 0-0.1-0.1-0.2-0.2-0.2-0.9-0.5-1.8-0.8-2.6-0.5-0.6-0.9-1.2-1.2-1.7-1.1-1.2-2.2-2.5-3.2-3.8-0.3-0.4-0.7-0.6-1.2-0.6-0.3-0.5-0.7-0.8-1.2-1.1-0.2-0.1-0.2-0.3-0.2-0.4-0.3 0-0.5-0.1-0.7-0.3-0.3-0.3-0.6-0.6-1-0.9-0.9-0.4-1.9-0.7-2.9-1-0.2-0.1-0.3-0.3-0.4-0.4z" opacity=".067"></path><path fill="#e2dca1" d="m24 1.3h0.5c0 0.1 0.1 0.2 0.2 0.2 0 0.1 0.1 0.1 0.3 0.1h0.2c0 0.1 0.1 0.2 0.2 0.2 0 0.1 0.1 0.1 0.3 0.1 0 0.1 0.1 0.2 0.2 0.1 0.1 0.2 0.2 0.2 0.3 0.2h0.2c0 0.1 0.1 0.1 0.2 0.1 0.1 0 0.2 0.1 0.2 0.2s0 0.1 0.1 0.1h0.2c0 0.1 0 0.1 0.1 0.1h0.2c0 0 0.1 0.1 0.1 0.2s0 0.1 0.1 0.1h0.2c0.1 0 0.1 0.1 0.1 0.2s0.1 0.1 0.2 0.1h0.1c0.1 0 0.1 0.1 0.1 0.1s0.1 0.2 0.2 0.2h0.1c0.1 0 0.2 0 0.2 0.1 0.1 0 0.1 0.1 0.1 0.2 0 0.1 0.1 0.2 0.3 0.2h0.1c0 0.1 0.1 0.2 0.2 0.2 0 0.1 0 0.1 0.1 0.1 0 0.1 0 0.2 0.1 0.2 0 0.1 0.1 0.1 0.2 0.1 0 0.1 0 0.2 0.1 0.2 0.1 0.1 0.2 0.2 0.3 0.2h0.1c0 0.1 0.1 0.2 0.2 0.2 0 0.1 0 0.1 0.1 0.1v0.2c0.1 0.1 0.2 0.2 0.3 0.2 0 0.1 0.1 0.2 0.1 0.2 0 0.1 0.1 0.1 0.2 0.1 0 0.1 0 0.2 0.1 0.2 0 0.1 0.1 0.1 0.2 0.1 0 0.1 0 0.1 0.1 0.1v0.2c0.1 0.1 0.2 0.2 0.3 0.3 0 0.1 0 0.1 0.1 0.1 0 0.1 0.1 0.1 0.2 0.1v0.2c0 0.1 0 0.1 0.1 0.1 0 0.1 0.1 0.2 0.2 0.2v0.1c0 0.1 0 0.1 0.1 0.1 0 0.1 0 0.2 0.1 0.2v0.1c0 0.1 0.1 0.2 0.2 0.2 0 0.1 0 0.1 0.1 0.1v0.1c0 0.1 0.1 0.2 0.2 0.2v0.1c0 0.1 0 0.2 0.1 0.2 0 0.1 0 0.1 0.1 0.1 0 0.2 0.1 0.2 0.2 0.3v0.1c0 0.2 0 0.3 0.1 0.3 0 0.2 0 0.2 0.2 0.3-0.1 0.1 0 0.2 0.1 0.3 0 0.1 0 0.1 0.1 0.1v0.3c0 0.1 0.1 0.1 0.2 0.1v0.2c0 0.1 0 0.1 0.1 0.1v0.6c-0.1 0-0.1-0.1-0.1-0.2-0.1-0.1-0.2-0.3-0.3-0.4-0.6-1.7-1.6-3.3-2.8-4.6-0.4-0.6-0.8-1.1-1.4-1.6-0.2-0.3-0.4-0.4-0.7-0.5-1.4-1.3-2.9-2.2-4.7-2.8l-0.5-0.5z" opacity=".831"></path><path fill="#afafaf" d="m29.3 2.7c0.9 0.3 1.5 0.9 1.9 1.7 1.3 0.9 2.4 2.1 3.3 3.4 0 0.2 0 0.4 0 0.6-0.2-0.1-0.3-0.3-0.4-0.5-0.1-0.1-0.3-0.1-0.4-0.1 0-0.2 0-0.4-0.1-0.6-1.3-1.5-2.7-2.9-4.2-4.2-0.1-0.1-0.1-0.2-0.1-0.3z" opacity=".043"></path><path fill="#858585" d="m11.5-0.1h1.8c-5.4 1.7-9.4 5-12.2 10 0 0.2-0.1 0.4 0 0.6-0.5 1.2-0.8 2.4-1.2 3.6v-1.9c0.2-0.4 0.4-0.8 0.4-1.3l0.5-0.3c0.1-0.4 0.2-0.8 0.3-1.2 0.9-1.2 1.7-2.5 2.4-3.7 1.6-1.7 3.3-3.1 5.1-4.4 1-0.5 1.9-0.9 2.9-1.4z" opacity=".067"></path><path fill="#e1e1e1" d="m24.8-0.1h1.1c4.5 2.2 7.9 5.5 10 10v0.6c-0.2-0.4-0.4-0.9-0.6-1.3-0.2-0.3-0.5-0.6-0.8-0.8 0-0.2 0-0.4 0-0.6-0.9-1.3-2-2.5-3.3-3.4-0.4-0.8-1-1.4-1.9-1.7 0-0.1 0-0.2 0-0.4-1-0.8-2.1-1.4-3.2-1.8-0.2 0-0.4 0-0.6-0.1-0.2-0.1-0.5-0.3-0.7-0.5z" opacity=".02"></path><path fill="#a5a5a5" d="m8.6 1.3c-1.8 1.3-3.5 2.7-5.1 4.4-0.7 1.2-1.5 2.5-2.4 3.7-0.1 0.4-0.2 0.8-0.3 1.2l-0.5 0.3c0 0.5-0.2 0.9-0.4 1.3v-1.2c1-1.9 2.2-3.7 3.5-5.4 1.5-1.8 3.3-3.2 5.2-4.3z" opacity=".047"></path><path fill="#b9b9b9" d="m34.5 8.4c0.3 0.2 0.6 0.5 0.8 0.8 0.2 0.4 0.4 0.9 0.6 1.3v1.7c-0.5-1.3-0.9-2.5-1.4-3.8z" opacity=".039"></path><path fill="#5f5f5f" d="m33.7 8.4c0.3 0.5 0.7 1.1 1.2 1.7 0.3 0.8 0.6 1.7 0.8 2.6 0.1 0.1 0.1 0.2 0.2 0.2v1.9c-0.5-2-1.2-4-2.1-5.9-0.1-0.2-0.1-0.3-0.1-0.5z" opacity=".09"></path><path fill="#6f6f6f" d="m-0.1 21.7c0.5 1 0.8 2 1 3.1 0.9 1.1 1.4 2.2 1.6 3.5-0.5-0.2-0.8-0.6-1-1.1-0.6-1.5-1.2-3-1.6-4.5v-1z" opacity=".071"></path><path fill="#b0b0b0" d="m-0.1 22.7c0.4 1.5 1 3 1.6 4.5 0.2 0.5 0.5 0.9 1 1.1-0.1 0.2 0 0.4 0.1 0.6 0.5 0.7 0.9 1.3 1.4 2-0.7-0.5-1.3-1.2-1.7-2-0.3-0.1-0.6-0.3-0.8-0.6-0.6-1-1.1-2.1-1.6-3.2v-2.4z" opacity=".035"></path><path fill="#403f3f" d="m14.1-0.1h7.6c0.8 0.2 1.5 0.5 2.3 0.8 0.4 0.3 0.8 0.5 1.2 0.8-0.1 0-0.2 0-0.2 0.1-0.2 0-0.3 0-0.3-0.1-0.1 0-0.2-0.1-0.2-0.2-0.1-0.2-0.1-0.2-0.2 0h-0.3v-0.1c-0.2 0-0.3 0-0.3-0.1-0.1-0.2-0.1-0.2-0.1 0-0.2 0-0.3-0.1-0.3-0.2 0-0.2-0.1-0.2-0.3 0-0.1 0-0.2 0-0.3-0.1-0.2 0-0.4 0-0.6-0.2 0.3-0.1 0.3-0.1-0.1 0-0.1 0.1-0.2 0-0.3-0.1 0-0.2-0.1-0.2-0.4 0-0.2 0-0.4 0-0.6-0.1-0.2 0-0.4-0.1-0.5-0.2-0.3-0.2-0.6-0.2-0.9 0h-2.8c-0.3-0.2-0.5-0.2-0.8 0-0.2 0.1-0.4 0.2-0.6 0.2-0.1-0.2-0.2-0.2-0.3 0 0 0.1-0.1 0.1-0.2 0.1-0.3-0.2-0.4-0.2-0.5 0 0 0.1-0.1 0.2-0.2 0.1-0.2-0.2-0.3-0.2-0.5 0 0 0.2-0.1 0.2-0.3 0.2 0-0.2 0-0.2-0.1 0h-0.1c-0.3-0.1-0.4 0-0.3 0.1-0.1 0.1-0.2 0.2-0.3 0.2 0-0.2-0.1-0.2-0.1 0-0.1 0.1-0.2 0.1-0.3 0.1v0.1h-0.3c-0.1-0.2-0.2-0.2-0.3 0 0 0.1 0 0.2-0.1 0.2-0.1-0.2-0.1-0.2-0.2 0 0 0.1 0 0.1-0.1 0.1-0.1-0.2-0.2-0.2-0.3 0-0.2 0-0.3 0.1-0.1 0.2-0.1 0.1-0.2 0.1-0.3 0.1-0.1 0.1-0.1 0.2-0.3 0.1 0 0.2-0.1 0.2-0.3 0.2 0-0.2-0.1-0.2-0.1 0-0.1 0-0.2 0-0.3 0.1-0.1 0-0.1 0.1-0.1 0.2s-0.1 0.1-0.2 0.1c0-0.2-0.1-0.2-0.1 0 0 0.1-0.1 0.1-0.2 0.1 0-0.1 0-0.1-0.1 0-0.1 0-0.1 0.1-0.1 0.2s-0.1 0.1-0.2 0.1c0-0.2-0.1-0.2-0.1 0-0.1 0-0.2 0.1-0.2 0.2s0 0.1-0.1 0.1c0-0.2-0.1-0.2-0.1 0-0.1 0-0.2 0.1-0.2 0.1s0 0.2-0.1 0.2c-0.1-0.2-0.1-0.2-0.2 0-0.1 0-0.1 0-0.1 0.1-0.1 0-0.1 0.1-0.1 0.2-0.1 0.1-0.2 0.2-0.3 0.2-0.1-0.1-0.1-0.1-0.2 0-0.1 0-0.1 0.1-0.1 0.2-0.1 0-0.1 0-0.1 0.1-0.1 0-0.2 0.1-0.2 0.2-0.1 0-0.1 0-0.1 0.1-0.1 0-0.2 0.1-0.2 0.2 0 0.1-0.1 0.2-0.2 0.2-0.1-0.2-0.1-0.2-0.2 0-0.1 0-0.1 0.1-0.1 0.2-0.1 0-0.2 0-0.2 0.1-0.2 0.1-0.2 0.1 0 0.2 0 0.1-0.1 0.2-0.2 0.2-0.1 0-0.2 0.1-0.2 0.2-0.1 0-0.1 0-0.1 0.1-0.1 0-0.2 0.1-0.2 0.2-0.1 0-0.1 0-0.1 0.1-0.1 0-0.2 0-0.2 0.1-0.1 0.1-0.1 0.1 0 0.2 0 0.1-0.1 0.2-0.2 0.3-0.1 0-0.2 0-0.2 0.1-0.1 0-0.1 0-0.1 0.1-0.2 0.1-0.2 0.1 0 0.2 0 0.1-0.1 0.1-0.2 0.1s-0.1 0.1-0.1 0.2c-0.2 0-0.2 0.1 0 0.1 0 0.1 0 0.1-0.1 0.1s-0.2 0.1-0.2 0.2c-0.2 0-0.2 0.1 0 0.1 0 0.1 0 0.2-0.1 0.2s-0.2 0-0.2 0.1c-0.1 0.1-0.1 0.1 0 0.1 0 0.1 0 0.2-0.1 0.2-0.2 0-0.2 0.1 0 0.1 0 0.1 0 0.2-0.1 0.2s-0.2 0-0.2 0.1c-0.1 0.1-0.1 0.2-0.1 0.3-0.2 0-0.2 0.1 0 0.1 0 0.2 0 0.3-0.2 0.3 0 0.1 0 0.2-0.1 0.2-0.2 0-0.2 0 0 0.1 0 0.1 0 0.2-0.1 0.3-0.1-0.2-0.2-0.1-0.2 0.1-0.2 0.1-0.2 0.2 0 0.3 0 0.1 0 0.1-0.1 0.1-0.2 0.1-0.2 0.1 0 0.2 0 0.1-0.1 0.1-0.2 0.1-0.2 0.1-0.2 0.2 0 0.3 0 0.1 0 0.1-0.1 0.1-0.2 0.1-0.2 0.1 0 0.2v0.1c0 0.1-0.1 0.2-0.1 0.2-0.2 0-0.2 0.1 0 0.1 0 0.2-0.1 0.3-0.2 0.4 0 0.2 0 0.3-0.1 0.3-0.2 0.1-0.2 0.1 0 0.1 0 0.3 0 0.5-0.2 0.6-0.1-0.3-0.1-0.2 0 0.2 0.1 0.1 0 0.2-0.1 0.2-0.2 0-0.2 0.1 0 0.3 0 0.2 0 0.3-0.1 0.4-0.2 0.1-0.2 0.2 0 0.3 0 0.3-0.1 0.5-0.2 0.7-0.2 0.2-0.2 0.4 0 0.7v2.8c-0.2 0.4-0.2 0.6 0 0.7h0.2v0.7c0.1 0.2 0.1 0.5 0.1 0.7-0.1 0.4-0.1 0.5 0 0.2 0.1 0.1 0.2 0.2 0.1 0.4-0.1 0.2-0.1 0.3 0 0.3 0.2 0.1 0.2 0.2 0.2 0.4-0.2 0.1-0.2 0.1 0 0.2 0.1 0 0.1 0.1 0.1 0.2 0.1 0.1 0.2 0.3 0.2 0.5 0.1 0.1 0.1 0.2 0.1 0.4 0.1 0 0.2 0.1 0.1 0.3-0.1 0.1-0.1 0.2 0 0.1 0.2 0 0.2 0.1 0.2 0.3-0.2 0-0.2 0.1 0 0.1 0.1 0 0.1 0.1 0.1 0.2-0.2 0.1-0.2 0.1 0 0.2 0 0.3 0.1 0.3 0.2 0.2 0.1 0 0.1 0.1 0.1 0.3 0.1 0 0.2 0.1 0.1 0.2h0.2v0.3c-0.2 0.1-0.2 0.1 0 0.2 0 0.1 0 0.2 0.1 0.2 0 0.1 0.1 0.2 0.2 0.2s0.1 0 0.1 0.1c-0.2 0.1-0.2 0.1 0 0.2 0.1 0 0.1 0 0.1 0.1-0.1 0.1-0.1 0.1 0 0.2 0 0 0.1 0.1 0.2 0.1s0.1 0 0.1 0.1c-0.2 0.1-0.2 0.1 0 0.2 0 0.1 0.1 0.1 0.2 0.1s0.1 0.1 0.1 0.2c-0.2 0-0.2 0 0 0.1 0 0.1 0.1 0.1 0.1 0.1s0.2 0.1 0.2 0.2c-0.2 0-0.2 0.1 0 0.1 0 0.1 0 0.2 0.1 0.2 0 0.1 0.1 0.1 0.2 0.1 0.1 0 0.2 0.1 0.2 0.3-0.1 0-0.1 0.1 0 0.1 0 0.1 0.1 0.2 0.2 0.2 0 0.1 0 0.1 0.1 0.1 0 0.1 0.1 0.1 0.2 0.1 0 0.1 0 0.2 0.1 0.2 0 0.1 0.1 0.1 0.2 0.1 0.1 0.1 0.2 0.2 0.2 0.3-0.2 0.1-0.2 0.1 0 0.1 0 0.1 0.1 0.2 0.2 0.2 0 0.1 0 0.1 0.1 0.1 0.1 0.2 0.1 0.2 0.2 0 0.1 0.1 0.2 0.2 0.2 0.3 0 0.1 0.1 0.1 0.2 0.1 0 0.1 0 0.2 0.1 0.2 0 0.1 0.1 0.1 0.2 0.1 0 0.1 0 0.2 0.1 0.2 0 0.1 0 0.1 0.1 0.1 0.1 0.2 0.1 0.2 0.2 0 0.1 0.1 0.2 0.2 0.3 0.3 0 0.1 0 0.1 0.1 0.1 0 0.1 0 0.2 0.1 0.2 0.1 0.2 0.1 0.2 0.2 0 0.1 0 0.1 0 0.1 0.1s0.1 0.2 0.2 0.2c0 0.1 0.1 0.1 0.1 0 0.1 0 0.1 0 0.1 0.1s0.1 0.1 0.2 0.1c0 0.2 0.1 0.2 0.1 0 0.1 0 0.2 0.1 0.2 0.2s0 0.1 0.1 0.1c0.1 0.2 0.1 0.2 0.1 0 0.1 0 0.2 0.1 0.2 0.2 0 0.1 0.1 0.1 0.1 0 0.1 0 0.2 0 0.2 0.1s0 0.1 0.1 0.1c0.1 0.2 0.2 0.2 0.3 0.2 0 0.2 0.1 0.2 0.1 0 0.2 0 0.3 0 0.3 0.1 0.2 0 0.2 0 0.3 0.2 0.1-0.1 0.2 0 0.3 0.1-0.2 0.1-0.1 0.1 0.1 0.1 0.1 0.2 0.2 0.2 0.3 0 0.1 0 0.1 0.1 0.1 0.2 0.1 0.2 0.1 0.2 0.2 0 0.1 0 0.1 0 0.1 0.1 0.1 0.2 0.2 0.2 0.3 0 0.1 0 0.1 0.1 0.1 0.2 0.1 0.2 0.1 0.2 0.2 0 0.1-0.1 0.2 0 0.3 0.1 0 0.2 0.1 0.2 0.1 0 0.1 0 0.2 0 0.3 0.1 0 0.2 0 0.2 0.3 0 0.1 0 0.2 0.1 0.2 0.2 0.3-0.1 0.5 0 0.6 0.1-0.3 0.2-0.2 0.2 0.2 0h0.2v0.2c0.1 0.1 0.2 0.1 0.5 0 0.1-0.1 0.2 0 0.2 0.1 0.1 0.2 0.2 0.2 0.3 0 0.3 0 0.5 0 0.7 0.1 0.2 0.2 0.4 0.2 0.7 0h2.8c0.4 0.2 0.6 0.2 0.7 0 0.2-0.1 0.5-0.1 0.7-0.1 0.1 0.2 0.2 0.2 0.3 0 0.1-0.1 0.2-0.2 0.3-0.1 0.3 0.1 0.4 0.1 0.4 0 0.1-0.2 0.2-0.2 0.3-0.2 0.4 0.2 0.4 0.2 0.1 0 0.2-0.1 0.4-0.2 0.6-0.1 0.1 0.2 0.1 0.2 0.2 0 0-0.1 0.1-0.2 0.2-0.2 0.1-0.1 0.3-0.1 0.5-0.1v-0.1h0.4c0-0.2 0.1-0.2 0.3-0.2 0.1 0.2 0.2 0.2 0.1 0 0-0.1 0.1-0.1 0.3-0.1 0 0.2 0.1 0.2 0.1 0 0-0.1 0.1-0.2 0.2-0.2 0.1 0.2 0.1 0.2 0.2 0 0.3 0 0.3 0 0.2-0.1 0-0.1 0.1-0.2 0.3-0.1 0-0.2 0.1-0.2 0.2-0.2 0.1-0.1 0.2-0.1 0.3-0.1 0.1 0.2 0.1 0.2 0.2 0 0.1 0 0.2 0 0.2-0.2 0.1 0 0.2 0 0.2-0.1s0-0.1 0.1-0.1c0.1 0.1 0.1 0.1 0.2 0 0-0.1 0-0.2 0.1-0.2 0.1 0.2 0.1 0.2 0.2 0 0 0 0.1 0 0.1-0.1s0-0.2 0.1-0.2c0.1 0.2 0.1 0.2 0.2 0 0.1 0 0.1 0 0.1-0.1s0.1-0.1 0.2-0.1c0 0.1 0 0.1 0.1 0 0.1 0 0.1-0.1 0.1-0.2s0.1-0.1 0.2-0.1c0 0.2 0.1 0.2 0.1 0 0.1 0 0.2-0.1 0.2-0.2 0.1 0 0.1 0 0.1-0.1 0-0.1 0.1-0.2 0.3-0.3 0 0.2 0.1 0.2 0.1 0 0.1 0 0.2 0 0.2-0.1 0.1 0 0.1-0.1 0.1-0.2 0.1 0 0.1 0 0.1-0.1 0.1 0 0.2-0.1 0.2-0.2 0.1 0 0.1 0 0.1-0.1 0.1-0.1 0.2-0.2 0.3-0.3 0.1 0.2 0.1 0.2 0.1 0 0.1 0 0.2 0 0.2-0.1 0.1 0 0.1-0.1 0.1-0.2 0.2 0 0.2 0 0-0.1 0.1-0.1 0.2-0.2 0.3-0.3 0.1 0 0.1 0 0.1-0.1 0.1 0 0.2-0.1 0.2-0.2 0.1 0 0.1 0 0.1-0.1 0.1 0 0.2 0 0.2-0.1 0.1 0 0.1-0.1 0.1-0.2 0.2 0 0.2-0.1 0-0.1 0.1-0.2 0.2-0.3 0.3-0.3 0.1 0 0.1 0 0.1-0.1 0.1 0 0.2-0.1 0.2-0.2 0.2 0 0.2-0.1 0-0.1 0-0.1 0-0.2 0.1-0.2s0.2 0 0.2-0.1c0.1-0.1 0.1-0.1 0-0.1 0-0.1 0-0.2 0.1-0.2s0.1 0 0.1-0.1c0.2-0.1 0.2-0.1 0-0.2 0-0.1 0.1-0.1 0.2-0.1s0.1-0.1 0.1-0.1c0.2-0.1 0.2-0.1 0-0.2 0-0.1 0.1-0.1 0.2-0.1 0.1-0.1 0.1-0.1 0-0.2 0-0.1 0-0.1 0.1-0.1s0.1-0.1 0.1-0.2c0.2 0 0.2-0.1 0.2-0.2 0.2-0.1 0.2-0.1 0-0.2 0-0.1 0-0.2 0.1-0.3 0-0.1 0-0.2 0.2-0.2-0.1-0.2 0-0.3 0.1-0.3 0.1 0.1 0.1 0.1 0.1-0.2 0.2-0.1 0.2-0.1 0-0.2 0-0.1 0.1-0.2 0.2-0.2 0.2 0 0.2-0.1 0-0.1 0-0.2 0-0.3 0.1-0.3 0.2 0.1 0.2 0 0-0.1 0-0.2 0-0.3 0.2-0.3-0.1-0.2 0-0.3 0.1-0.4 0-0.2 0-0.4 0.1-0.5 0-0.1 0.1-0.2 0.2-0.2 0.2-0.1 0.2-0.1 0-0.2 0-0.2 0-0.3 0.1-0.4 0.2 0 0.2-0.1 0-0.3 0-0.1 0-0.2 0.2-0.3 0.1 0.1 0.1 0 0-0.3-0.1-0.2 0-0.5 0.1-0.7 0-0.2 0-0.5 0.1-0.7 0.2-0.1 0.2-0.3 0-0.7v-2.8c0.2-0.3 0.2-0.5 0-0.7-0.1-0.2-0.1-0.4-0.1-0.7 0.2-0.1 0.2-0.2 0-0.3-0.1-0.1-0.2-0.2-0.1-0.4 0.1-0.2 0.1-0.3 0-0.3-0.2 0-0.2-0.1-0.2-0.2 0.2-0.4 0.2-0.5 0-0.2-0.1-0.1-0.2-0.3-0.1-0.6-0.1-0.1-0.2-0.2-0.2-0.4 0.2 0 0.2-0.1 0-0.1-0.1-0.1-0.1-0.2-0.1-0.3 0.2 0 0.2-0.1 0-0.1-0.1-0.1-0.2-0.2-0.1-0.3h-0.2v-0.3c0.2-0.1 0.2-0.2 0-0.3-0.1 0-0.1 0-0.1-0.1 0.2-0.1 0.2-0.1 0-0.2-0.1 0-0.2 0-0.2-0.1 0.2-0.1 0.2-0.2 0-0.3 0-0.2 0-0.3-0.1-0.1-0.1-0.1-0.2-0.2-0.1-0.3-0.2-0.1-0.2-0.1-0.2-0.3-0.1 0-0.1-0.1-0.1-0.3 0.2 0 0.2-0.1 0-0.1 0-0.1 0-0.2-0.2-0.3-0.1 0-0.1 0-0.1-0.1-0.1 0-0.1-0.1-0.1-0.2 0.1 0 0.1-0.1 0-0.1-0.1 0-0.2-0.1-0.2-0.2 0.2 0 0.2 0 0-0.1-0.1 0-0.1 0-0.1-0.1-0.1 0-0.2-0.1-0.2-0.2 0.2 0 0.2-0.1 0-0.1-0.1 0-0.1-0.1-0.1-0.2-0.1 0-0.1 0-0.1-0.1 0.1 0 0.1-0.1 0-0.1-0.1 0-0.2-0.1-0.2-0.2-0.1 0-0.1 0-0.1-0.1 0.2-0.1 0.2-0.1 0-0.2-0.1 0-0.2 0-0.2-0.1-0.1 0-0.1 0-0.1-0.1-0.1-0.1-0.2-0.2-0.3-0.3 0.2-0.1 0.2-0.1 0-0.2-0.1 0-0.1 0-0.1-0.1-0.1 0-0.2 0-0.2-0.1-0.1 0-0.1-0.1-0.1-0.2-0.1 0-0.2 0-0.2-0.1 0 0-0.1-0.1-0.1-0.2-0.1 0-0.2-0.1-0.3-0.2 0.2-0.1 0.2-0.1 0-0.2-0.1 0-0.1 0-0.1-0.1-0.1 0-0.2-0.1-0.2-0.2 0-0.2 0-0.2-0.1 0-0.1 0-0.2-0.1-0.3-0.2-0.1 0-0.1-0.1-0.1-0.2-0.1 0-0.2 0-0.2-0.1-0.1 0-0.1-0.1-0.1-0.2-0.1 0-0.1 0-0.1-0.1-0.1 0-0.2-0.1-0.2-0.2v-0.1c0.5 0 0.9 0.2 1.2 0.6 1 1.3 2.1 2.6 3.2 3.8 0 0.2 0 0.3 0.1 0.5 0.9 1.9 1.6 3.9 2.1 5.9v6.9c-0.3 1.1-0.6 2.3-1 3.4-0.5 0.4-0.8 1-1 1.7l-1.6 2.1c-0.5 1.1-1.3 2.1-2.3 2.9l-1.7 1.2c-0.2 0.2-0.5 0.3-0.8 0.3-0.4 0.4-0.8 0.7-1.3 0.9-0.6 0.1-1.1 0.4-1.5 0.8-1 0.3-2 0.6-3 0.9h-7.6c-0.7-0.2-1.5-0.4-2.3-0.7-1.7-0.8-3.3-1.7-5-2.6l-3.5-3.7c-0.3-0.2-0.6-0.4-0.8-0.6-0.2-1.3-0.7-2.4-1.6-3.5-0.2-1.1-0.5-2.1-1-3.1v-7.6c0.4-1.2 0.7-2.4 1.2-3.6 2.8-5.5 7.1-9 13-10.6z" opacity=".086"></path><path fill="#d0a143" d="m23.8 28.2c0.3 0.1 0.6 0.2 0.8 0.4 0.3-0.1 0.6-0.2 0.9-0.4 0 0.3-0.1 0.7-0.3 1 0.3 0.3 0.5 0.5 0.7 0.8-0.7-0.1-1.3 0.2-1.6 0.9-0.1-0.4-0.1-0.7-0.2-1-0.4 0-0.7-0.1-1.1-0.2l0.7-0.5c0.1-0.3 0.2-0.7 0.1-1z"></path><path fill="#ebc34b" d="m11.3 27.6c0.2 0.3 0.4 0.5 0.6 0.8l1 0.1c-0.7 0.5-0.8 1-0.3 1.7l-0.1 0.1c-0.5-0.5-1.1-0.5-1.6 0 0-0.7-0.3-1.2-0.8-1.5 0.3-0.2 0.6-0.2 0.9-0.2 0.1-0.3 0.2-0.7 0.3-1z"></path><path fill="#e5d181" d="m33.7 20.3c0.1 0.1 0.2 0.3 0.1 0.4 0.5 0 0.9 0.1 1.3 0.3-0.3 0-0.7 0-1-0.1-0.5 0.2-0.5 0.4 0.1 0.5-0.2 0-0.5 0.1-0.7 0.3 0.5 0.2 0.9 0.3 1.4 0.2 0.1 0.3 0 0.7-0.2 1-0.2-0.1-0.2-0.2 0-0.3-0.6-0.2-0.6-0.3 0-0.4-0.4 0-0.8 0-1.2-0.1-0.2 0.4-0.2 0.7-0.1 1.1l-0.4 0.4c0.3 0.1 0.6 0.2 0.9 0.4 0.1-0.1 0.2-0.1 0.3-0.2 0.1 0.3 0.1 0.6 0 0.9-0.6 1.2-1.2 2.4-2 3.5-0.5 0.7-1.1 1.4-1.8 2-0.2 0-0.4 0.2-0.6 0.4l-0.1-0.2c-0.1 0.3-0.2 0.4-0.3 0.6l-0.8-1c0.1-0.1 0.1-0.2 0.2-0.3 0.5 0.6 0.6 0.6 0.2 0 0.2-0.3 0.4-0.5 0.7-0.7 0.6 0.4 0.6 0.3 0-0.2l0.2-0.1 0.8 0.3-0.5-0.6 0.1-0.1 1 0.4c-0.3-0.3-0.5-0.5-0.9-0.7l0.6-0.3c-0.1-0.1-0.1-0.1-0.1-0.2 0.1-0.3 0.4-0.6 0.7-0.8-0.1-0.1-0.1-0.3 0-0.5 1-1.8 1.7-3.8 2.1-5.9z"></path><path fill="#cd973d" d="m27.8 25.9c0.1 0.3 0.2 0.7 0.2 1l0.8 0.5c-0.8 0.1-1.2 0.5-1.3 1.2-0.3-0.6-0.9-0.8-1.6-0.8 0.6-0.4 0.7-0.9 0.3-1.5 0.3 0 0.6 0.1 0.9 0.2 0.2-0.1 0.5-0.3 0.7-0.6z"></path><path fill="#d09b3b" d="m8.9 25.5c0.3 0.3 0.5 0.6 0.5 1 1.2 0.1 1.2 0.4 0.2 0.9l-0.2 0.9c-0.4-0.6-0.9-0.7-1.5-0.2 0-0.3 0-0.6 0.2-0.9-0.1-0.3-0.3-0.6-0.6-0.8 0.8 0.2 1.3-0.1 1.4-0.9z"></path><path fill="#d9d6a4" d="m2.2 25.9h0.1c0.9 1.7 2 3.2 3.4 4.5 0 0.1 0 0.2 0.1 0.2 0.7 0.7 1.5 1.4 2.4 2v0.2h-0.1c-0.1 0-0.2 0-0.2-0.1s0-0.1-0.1-0.1h-0.1c-0.1 0-0.2-0.1-0.2-0.2s0-0.1-0.1-0.1h-0.2c-0.1 0-0.1-0.1-0.1-0.2-0.1 0-0.1 0-0.1-0.1-0.1-0.1-0.2-0.2-0.3-0.3h-0.2c-0.1 0-0.1 0-0.1-0.1-0.1 0-0.1-0.1-0.1-0.2-0.1 0-0.2 0-0.2-0.1-0.1 0-0.1-0.1-0.1-0.2-0.1 0-0.2 0-0.2-0.1 0-0.1-0.1-0.2-0.2-0.3h-0.2c-0.1 0-0.1 0-0.1-0.1-0.1 0-0.2-0.1-0.2-0.2v-0.1c0-0.1-0.1-0.2-0.2-0.3-0.1 0-0.2 0-0.2-0.1-0.1 0-0.1-0.1-0.1-0.2-0.1 0-0.2 0-0.2-0.1-0.1 0-0.1 0-0.1-0.1-0.1 0-0.2-0.1-0.2-0.2v-0.1c0-0.2-0.1-0.3-0.2-0.3-0.1 0-0.2 0-0.2-0.1-0.1 0-0.1-0.1-0.1-0.2v-0.1c0-0.1-0.1-0.2-0.2-0.2s-0.1 0-0.1-0.1v-0.1c0-0.1 0-0.2-0.1-0.2s-0.2 0-0.2-0.1v-0.2c0-0.1 0-0.1-0.1-0.1s-0.2-0.1-0.2-0.1v-0.2c0-0.1 0-0.1-0.1-0.1v-0.2c0-0.1 0-0.1-0.1-0.1s-0.2-0.1-0.2-0.2c0-0.1 0-0.2-0.1-0.2v-0.5z" opacity=".745"></path><path fill="#d5a03c" d="m29.6 23c0.1 0.3 0.3 0.6 0.4 1 0.2 0.2 0.5 0.3 0.9 0.3-0.3 0.2-0.5 0.4-0.8 0.5 0.1 1.2-0.1 1.3-0.8 0.5-0.4 0-0.7 0-1.1 0.2 0.5-0.6 0.5-1.1 0-1.6 0.7 0.1 1.2-0.2 1.4-0.9z"></path><path fill="#d39c37" d="m7.2 23c0.1 0.3 0.2 0.7 0.3 1.1 0.3 0.1 0.5 0.3 0.7 0.4-0.7 0.1-1.1 0.5-1.2 1.3-0.2-0.2-0.3-0.4-0.5-0.6l-0.9-0.2c0.4-0.4 0.5-0.9 0.1-1.4l0.1-0.2c0.7 0.4 1.1 0.3 1.4-0.4z"></path><path fill="#ece090" d="m0.5 18.9c0.1 2.5 0.7 4.8 1.8 7h-0.3c0.1-0.1 0-0.2-0.1-0.2 0-0.2 0-0.3-0.1-0.3 0-0.1-0.1-0.2-0.2-0.2v-0.2c0-0.1 0-0.2-0.1-0.2v-0.1c0-0.2 0-0.3-0.2-0.3v-0.1c0.1-0.2 0-0.3-0.1-0.3 0-0.2 0-0.3-0.1-0.4 0-0.2-0.1-0.4-0.2-0.5 0-0.1 0-0.2-0.1-0.2v-0.2c0-0.2 0-0.3-0.2-0.4v-0.3c0.1-0.2 0-0.3-0.1-0.4v-0.2c0-0.2 0-0.5-0.1-0.7v-0.7c-0.1-0.4 0-0.7 0.1-1.1z" opacity=".98"></path><path fill="#dccd8e" d="m20.2 23c0.1 0.9 0 1.8-0.3 2.7v-0.2c-0.1-0.9 0-1.7 0.3-2.5z"></path><path fill="#d9bb64" d="m2.6 21.9c0.4 1.3 0.9 2.7 1.5 3.9-0.1 0.4-0.4 0.6-0.8 0.7-0.2 0-0.2-0.1 0-0.2 0.3-0.1 0.5-0.2 0.7-0.4l-0.1-0.1c-0.5 0-0.8 0.1-1.2 0.4-0.1-0.1-0.1-0.2 0-0.3 0.3-0.1 0.6-0.2 0.9-0.4-0.4 0.2-0.9 0.2-1.3 0.1 0.7-0.5 0.6-0.6-0.3-0.6 0.3-0.2 0.7-0.4 1-0.5l-0.4-0.2c-0.2 0.1-0.4 0.1-0.6 0l0.9-0.4-0.4-0.2c-0.3 0.1-0.6 0.2-0.9 0.2 0.4-0.2 0.7-0.4 1.1-0.6-0.4 0.1-0.8 0.1-1.2 0 0.3-0.2 0.7-0.4 1.1-0.5l-1.3 0.1c-0.1-0.1-0.1-0.2 0-0.3 0.2 0 0.3-0.1 0.5 0v-0.5c-0.2 0-0.4 0.1-0.6 0.2l-0.1-0.2c0.5-0.2 1-0.3 1.5-0.2z"></path><path fill="#c9a244" d="m2.3 21c0.2 0.3 0.2 0.6 0.3 0.9-0.5-0.1-1 0-1.5 0.2l0.1 0.2c0.2-0.1 0.4-0.2 0.6-0.2v0.5c-0.2-0.1-0.3 0-0.5 0-0.1 0.1-0.1 0.2 0 0.3l1.3-0.1c-0.4 0.1-0.8 0.3-1.1 0.5 0.4 0.1 0.8 0.1 1.2 0-0.4 0.2-0.7 0.4-1.1 0.6 0.3 0 0.6-0.1 0.9-0.2l0.4 0.2-0.9 0.4c0.2 0.1 0.4 0.1 0.6 0l0.4 0.2c-0.3 0.1-0.7 0.3-1 0.5 0.9 0 1 0.1 0.3 0.6 0.4 0.1 0.9 0.1 1.3-0.1-0.3 0.2-0.6 0.3-0.9 0.4-0.1 0.1-0.1 0.2 0 0.3 0.4-0.3 0.7-0.4 1.2-0.4l0.1 0.1c-0.2 0.2-0.4 0.3-0.7 0.4-0.2 0.1-0.2 0.2 0 0.2 0.4-0.1 0.7-0.3 0.8-0.7 0.6 1 1.3 1.9 2 2.7-0.4 0.3-0.8 0.7-1.1 1 0.4-0.1 0.8-0.4 1-0.7 0.2 0.1 0.3 0.2 0.2 0.4l-0.8 0.8c0.4-0.2 0.8-0.4 1.1-0.8 0.1 0.1 0.2 0.2 0.1 0.4-0.3 0.3-0.6 0.6-0.9 0.8-1.4-1.3-2.5-2.8-3.4-4.5-1.1-2.2-1.7-4.5-1.8-7 0.4-0.3 0.9-0.3 1.4-0.3v0.5c-1.7 0-1.7 0 0 0.1v0.4c-0.4 0-0.9 0-1.3 0.2 0.2 0.1 0.4 0.2 0.7 0.2 0.2 0 0.5-0.1 0.7 0-1.6 0.4-1.6 0.5 0 0.3v0.4c-0.4 0-0.7 0.1-1.1 0.3 1.7-0.1 1.7 0.1 0 0.6 0.1 0.1 0.2 0.2 0.3 0.3 0.2-0.1 0.2-0.2 0-0.2 0.2-0.1 0.4-0.1 0.6 0 0.1-0.2 0.3-0.3 0.5-0.3v-0.4z"></path><path fill="#4b2f1c" d="m23.1 22.7l0.3 0.2c-1 0.1-2.1 0.1-3.2 0.1 0.9-0.3 1.9-0.4 2.9-0.3z"></path><path fill="#6e3c19" d="m12.7 19.8c0.2 0.9 0.2 1.8 0.2 2.8 1.1 0.1 2.2 0.2 3.3 0.2 0.2 0.9 0.2 1.8 0.2 2.7h3.5v0.2h-3.8v-2.8h-3.5c-0.1-1.1 0-2.1 0.1-3.1z"></path><path fill="#eeca58" d="m4.7 20c0.3 0.2 0.5 0.3 0.8 0.5 0.3-0.2 0.7-0.3 1-0.4-0.1 0.3-0.2 0.6-0.2 0.9 0.1 0.3 0.4 0.6 0.7 0.8-0.7-0.1-1.2 0.2-1.5 0.8-0.2-0.3-0.4-0.5-0.5-0.8l-1-0.1c0.3-0.3 0.6-0.5 0.9-0.8-0.2-0.3-0.2-0.6-0.2-0.9z"></path><path fill="#e6c14d" d="m30.4 19.9c0.3 0.1 0.5 0.4 0.6 0.7 0.4 0.1 0.7 0.2 1.1 0.2-0.7 0.4-0.8 1-0.4 1.7l-0.1 0.1c-0.6-0.6-1.1-0.6-1.6 0-0.1-0.4-0.2-0.8-0.2-1.2-0.2 0-0.4-0.2-0.5-0.4 0.3-0.2 0.5-0.3 0.9-0.3 0.2-0.3 0.2-0.5 0.2-0.8z"></path><path fill="#e2b239" d="m23.1 20v2.7c-1-0.1-2 0-2.9 0.3-0.3 0.8-0.4 1.6-0.3 2.5h-3.5c0-0.9 0-1.8-0.2-2.7-1.1 0-2.2-0.1-3.3-0.2 0.6 0 1.1-0.1 1.7-0.4l5.4-2.1c1.1-0.1 2.1-0.1 3.1-0.1z"></path><path fill="#f0e39f" d="m23.1 19.8c0.3 0.9 0.4 2 0.3 3.1l-0.3-0.2v-2.9z"></path><path fill="#f0c74b" d="m19.9 18.2v1.7c0.2 0 0.3 0 0.4-0.1h2.8v0.2c-1 0-2 0-3.1 0.1l-5.4 2.1c-0.6 0.3-1.1 0.4-1.7 0.4 0-1 0-1.9-0.2-2.8h3.4c0.1-0.1 0.2-0.1 0.2-0.2 0.1-0.4 0.1-0.9 0.1-1.4 1.1-0.3 2.2-0.8 3.3-1.3 0 0.5 0.1 0.9 0.2 1.3z"></path><path fill="#e3daa1" d="m20.2 16.2c-0.1 1.2 0 2.4 0.1 3.6-0.1 0.1-0.2 0.1-0.4 0.1v-1.7c0-0.7 0-1.4 0.1-2.1 0 0.1 0.1 0.1 0.2 0.1z"></path><path fill="#cb9339" d="m30.6 16.5c0.3 0.2 0.6 0.4 0.8 0.7 1.2-0.4 1.3-0.2 0.5 0.7 0.6 0.7 0.5 1-0.5 0.7-0.3 0.2-0.5 0.5-0.7 0.7l-0.3-0.9c-0.9-0.3-0.9-0.6 0-0.9 0.2-0.3 0.2-0.6 0.2-1z"></path><path fill="#d9b95f" d="m34.5 11.9h0.2c-0.1 0.1 0 0.2 0.1 0.3v0.1c0 0.1 0 0.2 0.1 0.3v0.1c0 0.2 0.1 0.3 0.2 0.4-0.1 0.3 0 0.5 0.1 0.6v0.2c0 0.1 0 0.2 0.2 0.2v0.3c-0.1 0.2 0 0.3 0.1 0.4v0.3c0 0.3 0 0.5 0.1 0.7v4.2c-0.1 0.2-0.1 0.5-0.1 0.7-0.1 0.2-0.2 0.5-0.1 0.7v0.3c-0.2 0.1-0.2 0.2-0.2 0.3v0.3c-0.1 0.1-0.1 0.2-0.1 0.4v0.2c-0.1 0-0.2 0.1-0.2 0.2-0.1 0.1-0.1 0.3-0.1 0.5-0.1 0.1-0.2 0.2-0.1 0.4-0.2 0-0.2 0.1-0.2 0.3v0.1c-0.1 0-0.1 0.1-0.1 0.3h-0.2c0.1-0.3 0.1-0.6 0-0.9-0.1 0.1-0.2 0.1-0.3 0.2-0.3-0.2-0.6-0.3-0.9-0.4l0.4-0.4c-0.1-0.4-0.1-0.7 0.1-1.1 0.4 0.1 0.8 0.1 1.2 0.1-0.6 0.1-0.6 0.2 0 0.4-0.2 0.1-0.2 0.2 0 0.3 0.2-0.3 0.3-0.7 0.2-1-0.5 0.1-0.9 0-1.4-0.2 0.2-0.2 0.5-0.3 0.7-0.3-0.6-0.1-0.6-0.3-0.1-0.5 0.3 0.1 0.7 0.1 1 0.1-0.4-0.2-0.8-0.3-1.3-0.3 0.1-0.1 0-0.3-0.1-0.4 0.3-2.5 0.1-5-0.6-7.4 0.4-0.2 0.9-0.2 1.3-0.2-0.3 0.1-0.6 0.2-0.9 0.3-0.1 0.1-0.1 0.3 0 0.4 0.4-0.2 0.8-0.2 1.2-0.2-0.4 0.3-0.8 0.5-1.2 0.7l0.1 0.1c0.4-0.2 0.8-0.3 1.2-0.2-0.3 0.2-0.7 0.3-1.1 0.3 0 0.2 0 0.3 0.1 0.5 0.3-0.2 0.7-0.3 1.1-0.3-0.1-0.8-0.2-1.6-0.4-2.4z"></path><path fill="#f3ebbd" d="m4.6 16.5c0.4 0.5 1 0.7 1.7 0.7-0.2 0.2-0.3 0.5-0.5 0.7 0.2 0.3 0.3 0.6 0.5 0.8-0.4 0-0.7 0-1 0l-0.7 0.6-0.1-0.9c-1.1-0.4-1-0.7 0.1-0.9v-1z"></path><path fill="#7f4e24" d="m23.1 15.8l0.2 0.3h-3.1c0-0.1 0-0.2 0.1-0.2 1-0.1 1.9-0.1 2.8-0.1z"></path><path fill="#dbbc61" d="m1.2 12h0.1c0 0.1 0.1 0.2 0.2 0.3 0.3-0.2 0.5-0.1 0.8 0.1l-0.3 0.1c0.3 0.1 0.5 0.2 0.7 0.3-0.3 0-0.7-0.1-1-0.2l-0.2 0.1c0.2 0.1 0.4 0.2 0.7 0.2l-0.3 0.2c0.2 0.1 0.4 0 0.6-0.1 0.1 0.1 0.2 0.2 0.2 0.3-0.7 2.5-0.9 5.1-0.4 7.7v0.4c-0.2 0-0.4 0.1-0.5 0.3-0.2-0.1-0.4-0.1-0.6 0 0.2 0 0.2 0.1 0 0.2-0.1-0.1-0.2-0.2-0.3-0.3 1.7-0.5 1.7-0.7 0-0.6 0.4-0.2 0.7-0.3 1.1-0.3v-0.4c-1.6 0.2-1.6 0.1 0-0.3-0.2-0.1-0.5 0-0.7 0-0.3 0-0.5-0.1-0.7-0.2 0.4-0.2 0.9-0.2 1.3-0.2v-0.4c-1.7-0.1-1.7-0.1 0-0.1v-0.5c-0.5 0-1 0-1.4 0.3-0.1 0.4-0.2 0.7-0.1 1.1h-0.2v-4.2c0.1-0.2 0.2-0.4 0.2-0.7v-0.3c0.1-0.1 0.1-0.2 0.1-0.4v-0.3c0.1 0 0.2-0.1 0.1-0.2v-0.2c0.2-0.1 0.2-0.3 0.2-0.6v-0.1c0.1 0 0.1-0.1 0.1-0.3 0.1-0.1 0.2-0.2 0.2-0.4v-0.1c0 0 0.1-0.1 0.1-0.2z"></path><path fill="#d9a840" d="m29.9 13.3c0.3 0.1 0.5 0.3 0.8 0.4 0.3-0.1 0.6-0.3 0.9-0.4l0.1 0.1c-0.1 0.3-0.2 0.5-0.3 0.8 0.2 0.3 0.4 0.6 0.7 0.8-0.7 0-1.2 0.3-1.4 1-0.2-0.4-0.4-0.7-0.5-1l-1-0.1c0.3-0.2 0.5-0.4 0.8-0.6 0-0.4 0-0.7-0.1-1z"></path><path fill="#eccf68" d="m5.3 13.1c0.2 0.3 0.4 0.5 0.5 0.8 1.2-0.1 1.4 0.2 0.5 0.8v1.1c-0.5-0.5-1-0.5-1.5 0l-0.2-1.1c-0.8-0.5-0.7-0.7 0.4-0.7 0.2-0.3 0.3-0.5 0.3-0.9z"></path><path fill="#f7da76" d="m23.1 14.1v1.7c-0.9 0-1.8 0-2.8 0.1-0.1 0-0.1 0.1-0.1 0.2v0.1c-0.1 0-0.2 0-0.2-0.1-0.1 0.7-0.1 1.4-0.1 2.1-0.1-0.4-0.2-0.8-0.2-1.3-1.1 0.5-2.2 1-3.3 1.3v-2.1c2.1-0.9 4.3-1.7 6.5-2.5 0 0.2 0.1 0.4 0.2 0.5z"></path><path fill="#f9e392" d="m23.1 14.1c-0.1-0.1-0.2-0.3-0.2-0.5-2.2 0.8-4.4 1.6-6.5 2.5-0.1 0-0.2-0.1-0.3-0.2-1-0.1-2-0.1-3-0.1 2.1-0.8 4.2-1.7 6.4-2.4 1.2-0.1 2.4-0.1 3.6-0.1v0.8z"></path><path fill="#774723" d="m12.7 13c0 0.1 0.1 0.1 0.2 0.1-0.1 1 0 1.9 0.2 2.7 1 0 2 0 3 0.1 0.1 0.1 0.2 0.2 0.3 0.2v2.1c0 0.5 0 1-0.1 1.4 0 0.1-0.1 0.1-0.2 0.2v-3.7h-3.5c-0.1-1.1 0-2.1 0.1-3.1z"></path><path fill="#6f6a59" d="m15.8 13c-1 0-2 0-2.9 0.1-0.1 0-0.2 0-0.2-0.1 1.1-0.2 2.1-0.2 3.1 0z"></path><path fill="#c3993a" d="m34.4 11.7c0 0.1 0 0.2 0.1 0.2 0.2 0.8 0.3 1.6 0.4 2.4-0.4 0-0.8 0.1-1.1 0.3-0.1-0.2-0.1-0.3-0.1-0.5 0.4 0 0.8-0.1 1.1-0.3-0.4-0.1-0.8 0-1.2 0.2l-0.1-0.1c0.4-0.2 0.8-0.4 1.2-0.7-0.4 0-0.8 0-1.2 0.2-0.1-0.1-0.1-0.3 0-0.4 0.3-0.1 0.6-0.2 0.9-0.3-0.4 0-0.9 0-1.3 0.2-0.1-0.1-0.1-0.2-0.1-0.3 0.4-0.1 0.8-0.3 1.2-0.6l0-0.1c-0.4 0.2-0.8 0.4-1.2 0.3 0.4-0.2 0.9-0.3 1.4-0.5z"></path><path fill="#faecb5" d="m20.2 9.9v3.1h3.2c0.1 1.1 0 2.1-0.1 3.1l-0.2-0.3v-2.5c-1.2 0-2.4 0-3.6 0.1-2.2 0.7-4.3 1.6-6.4 2.4-0.2-0.8-0.3-1.7-0.2-2.7 0.9-0.1 1.9-0.1 2.9-0.1h0.3c0.1 0 0.2-0.1 0.2-0.1 0.1-1 0.1-1.9-0.1-2.8 1.4-0.2 2.7-0.2 4-0.2z"></path><path fill="#f3d46a" d="m29.7 10.2l0.3 0.8c0.3 0.1 0.5 0.3 0.7 0.5-0.8 0.1-1.1 0.6-1 1.4-0.3-0.7-0.8-1-1.5-0.9 0.1-0.3 0.3-0.5 0.4-0.7-0.2-0.3-0.3-0.6-0.4-0.9 0.3 0 0.6 0.1 0.8 0.2 0.3-0.1 0.5-0.2 0.7-0.4z"></path><path fill="#7d5d40" d="m20.2 9.9c-1.3 0-2.6 0-4 0.2 0.2 0.9 0.2 1.8 0.1 2.8 0 0-0.1 0.1-0.2 0.1v-3.2c1.4-0.1 2.7 0 4.1 0.1z"></path><path fill="#f1d35d" d="m7 10.1c0.2 0.2 0.3 0.5 0.3 0.8 0.3 0.2 0.6 0.3 0.9 0.4-0.2 0.2-0.5 0.4-0.7 0.6l-0.2 0.8c-0.4-0.6-0.9-0.7-1.5-0.3l-0.1-0.1c0.4-0.5 0.3-1-0.1-1.5l0.9-0.1c0.3-0.2 0.4-0.4 0.5-0.6z"></path><path fill="#d7b862" d="m34.1 11.3c0.1 0.1 0.2 0.3 0.3 0.4-0.5 0.2-1 0.3-1.4 0.5 0.4 0.1 0.8-0.1 1.2-0.3l0 0.1c-0.4 0.3-0.8 0.5-1.2 0.6-0.6-1.3-1.2-2.5-1.9-3.7 0.4-0.3 0.9-0.5 1.3-0.6-0.4 0.2-0.6 0.5-0.8 0.8l0.8-0.1c-0.2 0.2-0.3 0.4-0.3 0.6 0.3-0.1 0.6-0.2 0.8-0.4l0.1 0.2c-0.4 0.1-0.7 0.4-0.9 0.7 0.4-0.1 0.8-0.2 1.2-0.3-0.3 0.2-0.3 0.3-0.2 0.5-0.2 0.2-0.4 0.2-0.6 0-0.3 0.2-0.3 0.3 0 0.5 1.3-0.6 1.4-0.5 0.2 0.3 0.4 0 0.7-0.1 1.1-0.3l0 0.1c-0.3 0.2-0.7 0.5-1.1 0.6 0.1 0.2 0.2 0.2 0.3 0.2 0.4-0.1 0.7-0.3 1.1-0.4z"></path><path fill="#a4a489" d="m30 11l-0.3-0.8c0.1-0.1 0.2-0.2 0.3-0.3 0 0.4 0 0.8 0 1.1z"></path><path fill="#e4ce7b" d="m6.8 6.5c-1.8 2-3.2 4.2-4.1 6.8 0-0.1-0.1-0.2-0.2-0.3-0.2 0.1-0.4 0.2-0.6 0.1l0.3-0.2c-0.3 0-0.5-0.1-0.7-0.2l0.2-0.1c0.3 0.1 0.7 0.2 1 0.2-0.2-0.1-0.4-0.2-0.7-0.3l0.3-0.1c-0.3-0.2-0.5-0.3-0.8-0.1-0.1-0.1-0.2-0.2-0.2-0.3 0.9-2.3 2.2-4.4 4-6.2 0.1 0 0.2 0 0.3-0.1 0.1 0.2 0.2 0.3 0.4 0.2-0.1-0.1-0.1-0.1-0.2-0.2 0.3-0.2 0.5-0.4 0.7-0.8 0.2 0.3 0.5 0.6 0.7 0.9 0 0.1-0.1 0.2-0.2 0.3l-0.4-0.4c0.1 0.3 0.2 0.5 0.2 0.8z"></path><path fill="#eddc7e" d="m9.4 7.5c0.1 0.3 0.1 0.7 0.2 1 0.8 0.5 0.8 0.7-0.2 0.7-0.1 0.4-0.2 0.8-0.3 1.1-0.3-0.7-0.8-1-1.6-0.9 0.7-0.5 0.7-1.1 0.2-1.7 0.3 0.1 0.6 0.2 0.9 0.4 0.3-0.2 0.6-0.4 0.8-0.6z"></path><path fill="#f0e5b7" d="m27.4 7.1c0.2 0.2 0.4 0.6 0.4 1 0.3 0 0.6 0.1 1 0.3-0.3 0.1-0.6 0.3-0.8 0.5-0.1 0.4-0.1 0.8 0 1.2-0.4-0.8-1-0.9-1.6-0.5l-0.2-0.1c0.4-0.5 0.4-1-0.1-1.4 0.7 0 1.1-0.3 1.3-1z"></path><path fill="#bb8d2e" d="m31.3 6.7c1.2 1.3 2.2 2.9 2.8 4.6-0.4 0.1-0.7 0.3-1.1 0.4-0.1 0-0.2 0-0.3-0.2 0.4-0.1 0.8-0.4 1.1-0.6l0-0.1c-0.4 0.2-0.7 0.3-1.1 0.3 1.2-0.8 1.1-0.9-0.2-0.3-0.3-0.2-0.3-0.3 0-0.5 0.2 0.2 0.4 0.2 0.6 0-0.1-0.2-0.1-0.3 0.2-0.5-0.4 0.1-0.8 0.2-1.2 0.3 0.2-0.3 0.5-0.6 0.9-0.7l-0.1-0.2c-0.2 0.2-0.5 0.3-0.8 0.4 0-0.2 0.1-0.4 0.3-0.6l-0.8 0.1c0.2-0.3 0.4-0.6 0.8-0.8-0.4 0.1-0.9 0.3-1.3 0.6-0.1 0-0.2-0.1-0.2-0.3 0.4-0.2 0.8-0.5 1.1-0.8l-0.1-0.1c-1.1 0.7-1.2 0.6-0.2-0.4-0.3 0-0.5 0.1-0.7 0.4l-0.1-0.2c0.1-0.3 0.3-0.5 0.4-0.8z"></path><path fill="#d6b45c" d="m31.3 6.7c-0.1 0.3-0.3 0.5-0.4 0.8l0.1 0.2c0.2-0.3 0.4-0.4 0.7-0.4-1 1-0.9 1.1 0.2 0.4l0.1 0.1c-0.3 0.3-0.7 0.6-1.1 0.8-0.3-0.3-0.5-0.6-0.7-0.9 0.3-0.4 0.7-0.7 1.1-1z"></path><path fill="#f4e995" d="m10.8 5.6c0.4 0.4 0.9 0.5 1.5 0.1 0.1 0.3 0 0.6-0.1 0.8 0.1 0.3 0.4 0.5 0.6 0.7 0.1 0.1 0.1 0.2 0 0.3-0.3-0.1-0.6-0.2-0.9 0l-0.5 0.7c-0.1-0.2-0.3-0.5-0.4-0.8-0.3-0.1-0.5-0.3-0.8-0.4 0.5-0.4 0.7-0.8 0.6-1.4z"></path><path fill="#d7ba66" d="m29.6 7.1c-0.1 0-0.2-0.1-0.1-0.3 0.2-0.3 0.5-0.7 0.9-1-0.1 0.4-0.2 0.6-0.5 0.8 0.1 0.1 0.2 0.2 0.3 0.2 0.2-0.1 0.4-0.3 0.6-0.5-0.1 0.3-0.3 0.6-0.6 0.9-0.2 0-0.4-0.1-0.5-0.2 0 0-0.1 0-0.1 0.1z"></path><path fill="#edcd59" d="m24.3 5.1c0.3 0.1 0.5 0.3 0.5 0.6 0.4 0.1 0.8 0.2 1.1 0.2-0.2 0.2-0.4 0.5-0.7 0.8 0.1 0.3 0.3 0.6 0.5 0.9-0.4 0-0.7-0.2-1-0.4-0.3 0.2-0.5 0.4-0.8 0.6l-0.1-1.1c-0.3-0.1-0.5-0.3-0.7-0.5 0.4-0.1 0.7-0.3 1-0.4 0.1-0.2 0.2-0.4 0.2-0.7z"></path><path fill="#b98a2a" d="m29.9 5.1c0.6 0.5 1 1 1.4 1.6-0.4 0.3-0.8 0.6-1.1 1-0.3-0.2-0.5-0.4-0.6-0.6 0-0.1 0.1-0.1 0.1-0.1 0.1 0.1 0.3 0.2 0.5 0.2 0.3-0.3 0.5-0.6 0.6-0.9-0.2 0.2-0.4 0.4-0.6 0.5-0.1 0-0.2-0.1-0.3-0.2 0.3-0.2 0.4-0.4 0.5-0.8-0.4 0.3-0.7 0.7-0.9 1-0.2-0.1-0.4-0.2-0.5-0.4 0.5-0.2 0.8-0.5 1-1l-0.7 0.7-0.1-0.1c0.2-0.3 0.5-0.6 0.7-0.9z"></path><path fill="#ceaa53" d="m29.2 4.6c0.3 0.1 0.5 0.2 0.7 0.5-0.2 0.3-0.5 0.6-0.7 0.9l0.1 0.1 0.7-0.7c-0.2 0.5-0.5 0.8-1 1-0.3-0.1-0.6-0.4-0.8-0.7 0.2-0.2 0.2-0.4 0-0.6-0.1 0.1-0.3 0.2-0.4 0.1 0.2-0.2 0.4-0.4 0.5-0.6 0.1-0.2 0.2-0.3 0.5-0.2-0.4 0.2-0.5 0.4-0.3 0.7 0.2-0.2 0.5-0.4 0.7-0.5z"></path><path fill="#ede397" d="m14.1 4c0.3 0.2 0.5 0.4 0.7 0.6h1.2c-0.7 0.6-0.8 1.1-0.2 1.7-0.7-0.2-1.3 0-1.7 0.7l-0.2-1.2c-1-0.4-0.9-0.6 0.2-0.8v-1z"></path><path fill="#f1d868" d="m20.7 4l0.6 0.4c0.4-0.1 0.8-0.1 1.1 0-0.4 0.6-0.3 1.1 0.2 1.5-0.7 0-1.3 0.2-1.6 0.8-0.1-0.4-0.1-0.7-0.3-1-1-0.2-1-0.5-0.1-0.8 0.1-0.3 0.2-0.6 0.1-0.9z"></path><path fill="#d0a244" d="m20.9 29.2c0.2 0.1 0.4 0.3 0.5 0.5 0.4 0.2 0.8 0.2 1.2 0.3-0.2 0.2-0.3 0.5-0.5 0.7 0.7 1 0.6 1.2-0.4 0.7-0.4 0.2-0.6 0.4-0.9 0.7 0-0.4-0.1-0.7-0.2-1.1-0.9-0.4-0.8-0.7 0.3-0.8v-1z"></path><path fill="#f1e6a2" d="m31.6 26.2c-0.1 0.2-0.1 0.4 0 0.5-0.3 0.2-0.6 0.5-0.7 0.8 0 0.1 0 0.1 0.1 0.2l-0.6 0.3c0.4 0.2 0.6 0.4 0.9 0.7l-1-0.4-0.1 0.1 0.5 0.6-0.8-0.3-0.2 0.1c0.6 0.5 0.6 0.6 0 0.2-0.3 0.2-0.5 0.4-0.7 0.7 0.4 0.6 0.3 0.6-0.2 0-0.1 0.1-0.1 0.2-0.2 0.3l0.8 1c0.1-0.2 0.2-0.3 0.3-0.6l0.1 0.2c0.2-0.2 0.4-0.4 0.6-0.4-0.9 1.1-2 2-3.3 2.6 0.3-0.3 0.7-0.6 1-0.8-0.2-1.3-0.6-1.4-1.4-0.4-0.1-0.1-0.3-0.1-0.5 0 2.1-1.5 3.9-3.3 5.4-5.4z"></path><path fill="#d7d7d7" d="m35.9 25.1v0.8c-2.1 4.5-5.5 7.9-10 10h-1.4c0.9-0.3 1.7-0.7 2.6-1 0.1-0.1 0.1-0.2 0.1-0.4 3.6-1.8 6.2-4.6 7.8-8.3 0.3-0.3 0.7-0.7 0.9-1.1z" opacity=".024"></path><path fill="#cc973e" d="m17.8 29.6c0.3 0.2 0.5 0.5 0.7 0.9 0.3 0 0.6 0.1 0.8 0.2-0.2 0.2-0.5 0.4-0.7 0.7 0.2 0.4 0.2 0.7 0.2 1-0.5-0.6-1-0.7-1.6-0.1-0.1-0.3-0.1-0.6 0-0.9-0.2-0.2-0.4-0.5-0.7-0.7 0.3-0.2 0.7-0.3 1-0.3 0.2-0.2 0.3-0.5 0.3-0.8z"></path><path fill="#898989" d="m2.5 28.3c0.2 0.2 0.5 0.4 0.8 0.6 0 0.2 0 0.4 0.1 0.6 0.3 0.2 0.5 0.5 0.7 0.8 0.7 0.5 1.3 1.1 1.9 1.8 0.3 0.2 0.5 0.3 0.8 0.5 0 0.1 0.1 0.3 0.2 0.4-0.3-0.2-0.7-0.3-1-0.4-0.5-0.5-1.1-1-1.7-1.5-0.2 0-0.2-0.1-0.3-0.2-0.5-0.7-0.9-1.3-1.4-2-0.1-0.2-0.2-0.4-0.1-0.6z" opacity=".051"></path><path fill="#cf9838" d="m14 29c0.2 0.3 0.5 0.5 0.8 0.6 0.4-0.1 0.7-0.2 1-0.3l0 0.2c-0.2 0.2-0.3 0.5-0.4 0.8 0.1 0.4 0.2 0.7 0.4 1-0.3-0.2-0.6-0.2-1-0.1l-0.6 0.7c-0.1-0.4-0.1-0.7-0.1-1-0.4-0.1-0.7-0.2-1.1-0.4 0.3-0.2 0.5-0.3 0.9-0.5 0.1-0.3 0.1-0.6 0.1-1z"></path><path fill="#828282" d="m35.9 21.7v1.6c-0.3 0.5-0.5 1.1-0.5 1.8-0.7 1.3-1.4 2.6-2.2 3.8-1.4 1.9-3.1 3.5-5.1 4.7-0.4 0.3-0.6 0.6-0.9 0.9-0.3 0-0.6 0.1-0.8 0.2 0.2-0.3 0.4-0.5 0.7-0.7 3.7-2 6.3-5 7.8-8.9 0.4-1.1 0.7-2.3 1-3.4z" opacity=".059"></path><path fill="#606060" d="m3.3 28.9l3.5 3.7c-0.3-0.2-0.5-0.3-0.8-0.5-0.6-0.7-1.2-1.3-1.9-1.8-0.2-0.3-0.4-0.6-0.7-0.8-0.1-0.2-0.1-0.4-0.1-0.6z" opacity=".082"></path><path fill="#b99137" d="m34.2 24.7h0.2v0.1c-0.1 0-0.2 0.1-0.2 0.2v0.2c-0.1 0-0.1 0.1-0.1 0.2-0.1 0-0.2 0.1-0.1 0.3-0.2 0-0.2 0.1-0.2 0.2-0.1 0.1-0.1 0.2-0.1 0.3v0.2c-0.1 0-0.2 0.1-0.2 0.2-0.1 0-0.1 0.1-0.1 0.2-0.1 0-0.1 0-0.1 0.1v0.2c-0.1 0-0.2 0-0.2 0.1v0.2c-0.1 0-0.1 0-0.1 0.1-0.1 0-0.2 0-0.2 0.1v0.2c-0.1 0-0.1 0-0.1 0.1-0.1 0-0.1 0.1-0.1 0.2v0.1c-0.1 0-0.2 0-0.2 0.1-0.1 0-0.1 0.1-0.1 0.2v0.1c-0.1 0-0.2 0.1-0.2 0.2-0.1 0-0.1 0-0.1 0.1-0.1 0-0.2 0.1-0.3 0.3v0.1c-0.1 0-0.1 0.1-0.1 0.2-0.1 0-0.2 0-0.2 0.1-0.1 0-0.1 0-0.1 0.1-0.1 0-0.2 0.1-0.2 0.2 0 0-0.1 0-0.1 0.1-0.1 0.1-0.2 0.2-0.3 0.3v0.1c-0.1 0-0.1 0.1-0.1 0.2-0.1 0-0.2 0-0.2 0.1h-0.1c-0.1 0.1-0.2 0.2-0.3 0.3-0.1 0-0.1 0.1-0.1 0.1-0.1 0-0.2 0.1-0.2 0.2-0.1 0-0.1 0-0.1 0.1-0.1 0-0.1 0.1-0.1 0.2-0.1 0-0.2 0-0.2 0.1h-0.1c-0.2 0.1-0.3 0.2-0.3 0.3-0.1 0-0.1 0-0.1 0.1-0.1 0-0.2 0.1-0.2 0.2h-0.1c-0.1 0-0.2 0-0.2 0.1-0.1 0-0.1 0.1-0.1 0.2h-0.1c-0.1 0-0.2 0-0.2 0.1-0.1 0-0.1 0-0.1 0.1h-0.2c-0.1 0-0.1 0.1-0.1 0.2-0.1 0-0.1 0-0.1 0.1h-0.2c-0.1 0-0.1 0.1-0.1 0.2h-0.2c-0.1 0-0.1 0-0.1 0.1-0.1 0-0.2 0-0.2 0.1-0.1 0-0.2 0.1-0.2 0.2h-0.2c-0.1 0-0.2 0-0.3 0.1-0.1 0-0.2 0-0.2 0.2-0.2-0.1-0.3 0-0.3 0.1-0.1 0-0.2 0-0.2 0.1h-0.2c-0.1 0-0.2 0.1-0.2 0.2h-0.1c-0.2 0-0.3 0-0.3 0.1h-0.1c-0.2 0-0.3 0-0.3 0.2h-0.4c1.2-0.5 2.4-1.1 3.5-1.9 1.3-0.6 2.4-1.5 3.3-2.6 0.7-0.6 1.3-1.3 1.8-2 0.8-1.1 1.4-2.3 2-3.5z" opacity=".776"></path><path fill="#6a6a6a" d="m34.9 25.1c-1.5 3.9-4.1 6.9-7.8 8.9-0.3 0.2-0.5 0.4-0.7 0.7-0.9 0.4-1.8 0.8-2.7 1.2h-2c1-0.3 2-0.6 3-0.9 0.4-0.4 0.9-0.7 1.5-0.8 0.5-0.2 0.9-0.5 1.3-0.9 0.3 0 0.6-0.1 0.8-0.3l1.7-1.2c1-0.8 1.8-1.8 2.3-2.9l1.6-2.1c0.2-0.7 0.5-1.3 1-1.7z" opacity=".075"></path><path fill="#e0e0e0" d="m-0.1 25.1c0.5 1.1 1 2.2 1.6 3.2 0.2 0.3 0.5 0.5 0.8 0.6 0.4 0.8 1 1.5 1.7 2 0.1 0.1 0.1 0.2 0.3 0.2 0 0.2 0 0.2 0.1 0.3 0.8 0.8 1.7 1.7 2.6 2.5 1.1 0.8 2.4 1.5 3.6 2h-0.7c-4.5-2.1-7.8-5.5-10-10v-0.8z" opacity=".02"></path><path fill="#c9a243" d="m13.3 33.1c0.3 0.1 0.7 0.2 1 0.3-0.2 0-0.3 0.1-0.3 0.2-0.1 0.4-0.2 0.8-0.3 1.2-0.2 0-0.4 0-0.6-0.1 0.3-0.4 0.4-0.8 0.4-1.3-0.2 0.4-0.3 0.7-0.4 1.1-0.1 0.1-0.2 0.1-0.4 0.2-1.6-0.5-3.1-1.2-4.5-2.1-0.9-0.6-1.7-1.3-2.4-2 0.4 0 0.7-0.2 1-0.6-0.1 0.3-0.2 0.6-0.5 0.8l0.1 0.1c0.3-0.3 0.7-0.6 1-0.9l0.1 0.2c-0.3 0.6-0.3 0.7 0.2 0.1 0.1 0.1 0.2 0.2 0.2 0.3-0.2 0.4-0.4 0.7-0.6 1.1 0.2 0.1 0.4 0 0.6-0.3 0 0.2 0 0.4-0.2 0.5l0.1 0.1c0.2-0.2 0.4-0.4 0.5-0.6 0.1 0.2 0.2 0.2 0.3 0-0.2 0.3-0.2 0.7-0.3 1l0.8-1.1c0.1 0.1 0.2 0.2 0.3 0.3-0.3 0.2-0.4 0.5-0.4 0.8l0.6-0.8c0.1 0.1 0.2 0.1 0.3 0.2-0.1 0.1-0.1 0.2-0.1 0.3 0.2-0.1 0.4-0.1 0.5 0-0.2 0.4-0.4 0.7-0.5 1.2 0.2-0.4 0.5-0.7 0.7-0.7 0 0.3 0 0.6-0.1 0.9 0.2-0.4 0.4-0.7 0.7-0.8l-0.1 1.1c0.1-0.4 0.4-0.8 0.6-1.1l0.1 0.3c-0.2 0.3-0.2 0.7-0.2 1.1 0.7-1.7 0.8-1.6 0.6 0.1 0.1-0.4 0.3-0.8 0.6-1.1l0.2 0.2c-0.2 0.4-0.3 0.7-0.2 1.1 0.1-0.5 0.3-0.9 0.6-1.3z"></path><path fill="#e2c66e" d="m6.1 28.5c2 2.1 4.4 3.7 7.2 4.6-0.3 0.4-0.5 0.8-0.6 1.3-0.1-0.4 0-0.7 0.2-1.1l-0.2-0.2c-0.3 0.3-0.5 0.7-0.6 1.1 0.2-1.7 0.1-1.8-0.6-0.1 0-0.4 0-0.8 0.2-1.1l-0.1-0.3c-0.2 0.3-0.5 0.7-0.6 1.1l0.1-1.1c-0.3 0.1-0.5 0.4-0.7 0.8 0.1-0.3 0.1-0.6 0.1-0.9-0.2 0-0.5 0.3-0.7 0.7 0.1-0.5 0.3-0.8 0.5-1.2-0.1-0.1-0.3-0.1-0.5 0 0-0.1 0-0.2 0.1-0.3-0.1-0.1-0.2-0.1-0.3-0.2l-0.6 0.8c0-0.3 0.1-0.6 0.4-0.8-0.1-0.1-0.2-0.2-0.3-0.3l-0.8 1.1c0.1-0.3 0.1-0.7 0.3-1-0.1 0.2-0.2 0.2-0.3 0-0.1 0.2-0.3 0.4-0.5 0.6l-0.1-0.1c0.2-0.1 0.2-0.3 0.2-0.5-0.2 0.3-0.4 0.4-0.6 0.3 0.2-0.4 0.4-0.7 0.6-1.1 0-0.1-0.1-0.2-0.2-0.3-0.5 0.6-0.5 0.5-0.2-0.1l-0.1-0.2c-0.3 0.3-0.7 0.6-1 0.9l-0.1-0.1c0.3-0.2 0.4-0.5 0.5-0.8-0.3 0.4-0.6 0.6-1 0.6-0.1 0-0.1-0.1-0.1-0.2 0.3-0.2 0.6-0.5 0.9-0.8 0.1-0.2 0-0.3-0.1-0.4-0.3 0.4-0.7 0.6-1.1 0.8l0.8-0.8c0.1-0.2 0-0.3-0.2-0.4-0.2 0.3-0.6 0.6-1 0.7 0.3-0.3 0.7-0.7 1.1-1z"></path><path fill="#a4a4a4" d="m35.9 23.3v1.8c-0.2 0.4-0.6 0.8-0.9 1.1-1.6 3.7-4.2 6.5-7.8 8.3 0.3-0.3 0.5-0.6 0.9-0.9 2-1.2 3.7-2.8 5.1-4.7 0.8-1.2 1.5-2.5 2.2-3.8 0-0.7 0.2-1.3 0.5-1.8z" opacity=".051"></path><path fill="#e4ce77" d="m8.2 32.6c1.4 0.9 2.9 1.6 4.5 2.1 0.2-0.1 0.3-0.1 0.4-0.2 0.1-0.4 0.2-0.7 0.4-1.1 0 0.5-0.1 0.9-0.4 1.3 0.2 0.1 0.4 0.1 0.6 0.1 0.2 0.2 0.5 0.3 0.9 0.4-0.2 0-0.3 0-0.5 0h-0.4c-0.1-0.1-0.3-0.2-0.6-0.1 0-0.1-0.1-0.2-0.2-0.2h-0.3c-0.1-0.1-0.2-0.1-0.3-0.1h-0.1c-0.1-0.1-0.2-0.2-0.3-0.1h-0.2c0-0.1 0-0.2-0.1-0.2h-0.3c0-0.1 0-0.1-0.1-0.1h-0.2c0-0.1 0-0.2-0.1-0.2h-0.3c0-0.1 0-0.1-0.1-0.1-0.1-0.1-0.2-0.2-0.3-0.1-0.1-0.2-0.1-0.2-0.3-0.2 0-0.1-0.1-0.1-0.3-0.1h-0.1c-0.1-0.1-0.1-0.2-0.3-0.2-0.1 0-0.1 0-0.1-0.1s-0.1-0.1-0.2-0.1h-0.1c0-0.1-0.1-0.2-0.2-0.2h-0.1c-0.1 0-0.1 0-0.1-0.1s-0.1-0.2-0.2-0.2v-0.2z"></path><path fill="#6e6e6e" d="m6.8 32.6c1.7 0.9 3.3 1.8 5 2.6 0.8 0.3 1.6 0.5 2.3 0.7h-0.8c-1.5-0.4-2.9-0.9-4.4-1.4-0.4-0.3-0.7-0.6-1-1l-0.8-0.2c-0.1-0.1-0.2-0.2-0.1-0.3-0.1-0.1-0.2-0.3-0.2-0.4z" opacity=".071"></path><path fill="#e5ce79" d="m27.1 32.8c-1.1 0.8-2.3 1.4-3.5 1.9-0.9 0.2-1.8 0.4-2.7 0.4 0-0.5-0.1-0.9-0.3-1.3 0 0.4-0.1 0.8-0.2 1.3-0.1-0.3-0.2-0.7-0.3-1 0 0.4-0.1 0.8-0.3 1.1-0.1-0.4-0.2-0.8-0.3-1.2 0 0.3-0.1 0.7-0.1 1.1-0.2 0.3-0.5 0.4-0.8 0.3-0.1-0.5-0.1-1-0.1-1.4h-0.4c-0.1 1.8-0.1 1.8-0.2 0h-0.4c0 1.6-0.2 1.6-0.4 0-0.3 1.6-0.5 1.6-0.6 0-0.2 0.4-0.3 0.8-0.3 1.2-0.1-0.4-0.1-0.9-0.2-1.3 0.2-0.1 0.4-0.1 0.7-0.1 3.4 0.1 6.5-0.6 9.5-2.2 0.2-0.1 0.4-0.1 0.5 0 0.8-1 1.2-0.9 1.4 0.4-0.3 0.2-0.7 0.5-1 0.8z"></path><path fill="#d7b65a" d="m14.3 33.4c0.8 0.2 1.6 0.3 2.4 0.4-0.3 0-0.5 0-0.7 0.1 0.1 0.4 0.1 0.9 0.2 1.3 0-0.4 0.1-0.8 0.3-1.2 0.1 1.6 0.3 1.6 0.6 0 0.2 1.6 0.4 1.6 0.4 0h0.4c0.1 1.8 0.1 1.8 0.2 0h0.4c0 0.4 0 0.9 0.1 1.4 0.3 0.1 0.6 0 0.8-0.3 0-0.4 0.1-0.8 0.1-1.1 0.1 0.4 0.2 0.8 0.3 1.2 0.2-0.3 0.3-0.7 0.3-1.1 0.1 0.3 0.2 0.7 0.3 1 0.1-0.5 0.2-0.9 0.2-1.3 0.2 0.4 0.3 0.8 0.3 1.3 0.9 0 1.8-0.2 2.7-0.4v0.1c-0.2 0-0.4 0-0.5 0.1-0.1 0-0.2 0.1-0.2 0.2h-0.2c-0.2-0.1-0.4 0-0.6 0.1h-0.1c-0.1 0-0.2 0-0.3 0.2h-0.4c-0.1-0.1-0.2 0-0.3 0.1h-0.3c-0.2 0-0.5 0-0.7 0.1h-4.2c-0.2-0.1-0.4-0.1-0.7-0.1h-0.3c0-0.1-0.1-0.2-0.2-0.1h-0.5v-0.2c0.2 0 0.3 0 0.5 0-0.4-0.1-0.7-0.2-0.9-0.4 0.1-0.4 0.2-0.8 0.3-1.2 0-0.1 0.1-0.2 0.3-0.2z"></path><path fill="#a8a8a8" d="m27.2 34.5c0 0.2 0 0.3-0.1 0.4-0.9 0.3-1.7 0.7-2.6 1h-0.8c0.9-0.4 1.8-0.8 2.7-1.2 0.2-0.1 0.5-0.2 0.8-0.2z" opacity=".047"></path><path fill="#adadad" d="m4.3 31.1c0.6 0.5 1.2 1 1.7 1.5 0.3 0.1 0.7 0.2 1 0.4-0.1 0.1 0 0.2 0.1 0.3l0.8 0.2c0.3 0.4 0.6 0.7 1 1 1.5 0.5 2.9 1 4.4 1.4h-2.7c-1.2-0.5-2.5-1.2-3.6-2-0.9-0.8-1.8-1.7-2.6-2.5-0.1-0.1-0.1-0.1-0.1-0.3z" opacity=".031"></path></svg>