<svg xmlns="http://www.w3.org/2000/svg" version="1.1" width="100px" height="100px" style="shape-rendering:geometricPrecision; text-rendering:geometricPrecision; image-rendering:optimizeQuality; fill-rule:evenodd; clip-rule:evenodd" xmlns:xlink="http://www.w3.org/1999/xlink">
<g><path style="opacity:0.871" fill="#e69690" d="M 39.5,-0.5 C 46.1667,-0.5 52.8333,-0.5 59.5,-0.5C 61.8876,0.348502 64.2209,1.3485 66.5,2.5C 65.8333,3.5 65.1667,4.5 64.5,5.5C 64.1193,4.06888 63.1193,3.23555 61.5,3C 54.0247,1.33468 46.5247,1.16801 39,2.5C 36.5241,3.14482 34.6907,4.47816 33.5,6.5C 32.6554,5.32855 31.9887,3.99522 31.5,2.5C 31.9382,2.56544 32.2716,2.39877 32.5,2C 31.8333,1.66667 31.1667,1.33333 30.5,1C 31.8989,0.405439 33.2322,0.572106 34.5,1.5C 36.3361,0.972438 38.0028,0.305771 39.5,-0.5 Z"/></g>
<g><path style="opacity:0.928" fill="#fcf9f9" d="M 31.5,2.5 C 31.9887,3.99522 32.6554,5.32855 33.5,6.5C 34.1667,8.5 34.8333,10.5 35.5,12.5C 35.5,12.8333 35.5,13.1667 35.5,13.5C 31.499,14.3322 27.8323,15.9988 24.5,18.5C 23.0613,16.6397 21.3947,14.973 19.5,13.5C 19.1667,12.8333 18.8333,12.1667 18.5,11.5C 18.5,11.1667 18.5,10.8333 18.5,10.5C 19.1667,10.5 19.5,10.1667 19.5,9.5C 23.1718,6.66201 27.1718,4.32867 31.5,2.5 Z"/></g>
<g><path style="opacity:0.937" fill="#fbf8f7" d="M 66.5,2.5 C 71.2844,4.0579 75.6178,6.39123 79.5,9.5C 79.5,10.1667 79.8333,10.5 80.5,10.5C 80.5,11.1667 80.5,11.8333 80.5,12.5C 78.1394,14.1939 76.1394,16.1939 74.5,18.5C 71.0767,16.9287 67.7434,15.0954 64.5,13C 63.7476,12.3292 63.4142,11.4959 63.5,10.5C 63.6287,8.7839 63.962,7.11723 64.5,5.5C 65.1667,4.5 65.8333,3.5 66.5,2.5 Z"/></g>
<g><path style="opacity:1" fill="#c13329" d="M 64.5,5.5 C 63.962,7.11723 63.6287,8.7839 63.5,10.5C 62.6618,10.8417 62.3284,11.5084 62.5,12.5C 58.1909,10.7006 53.6909,9.70056 49,9.5C 44.196,9.32708 39.696,10.3271 35.5,12.5C 34.8333,10.5 34.1667,8.5 33.5,6.5C 34.6907,4.47816 36.5241,3.14482 39,2.5C 46.5247,1.16801 54.0247,1.33468 61.5,3C 63.1193,3.23555 64.1193,4.06888 64.5,5.5 Z"/></g>
<g><path style="opacity:1" fill="#7e241e" d="M 62.5,12.5 C 57.3586,11.9289 52.0253,11.9289 46.5,12.5C 46.7093,13.086 47.0426,13.586 47.5,14C 50.0356,14.1862 52.369,14.6862 54.5,15.5C 49.737,15.2256 45.0704,15.559 40.5,16.5C 40.5,15.8333 40.5,15.1667 40.5,14.5C 38.81,13.9829 37.1433,13.6495 35.5,13.5C 35.5,13.1667 35.5,12.8333 35.5,12.5C 39.696,10.3271 44.196,9.32708 49,9.5C 53.6909,9.70056 58.1909,10.7006 62.5,12.5 Z"/></g>
<g><path style="opacity:1" fill="#c23228" d="M 19.5,13.5 C 21.3947,14.973 23.0613,16.6397 24.5,18.5C 24.5,18.8333 24.5,19.1667 24.5,19.5C 17.5918,25.6498 13.5918,33.3164 12.5,42.5C 12.5,42.8333 12.5,43.1667 12.5,43.5C 8.82116,43.2756 5.1545,42.9422 1.5,42.5C 1.16667,38.5 0.833333,38.5 0.5,42.5C 0.166667,42.5 -0.166667,42.5 -0.5,42.5C -0.5,41.1667 -0.5,39.8333 -0.5,38.5C 0.28997,37.3915 0.78997,36.0581 1,34.5C 1.33333,35.8333 1.66667,37.1667 2,38.5C 2.66198,36.1873 3.16198,33.854 3.5,31.5C 4.16667,31.5 4.5,31.1667 4.5,30.5C 5.67504,30.719 6.67504,30.3857 7.5,29.5C 10.4019,23.2753 14.4019,17.942 19.5,13.5 Z"/></g>
<g><path style="opacity:1" fill="#adabab" d="M 35.5,13.5 C 37.1433,13.6495 38.81,13.9829 40.5,14.5C 36.2211,15.9728 32.2211,17.9728 28.5,20.5C 27.0413,20.5674 25.7079,20.2341 24.5,19.5C 24.5,19.1667 24.5,18.8333 24.5,18.5C 27.8323,15.9988 31.499,14.3322 35.5,13.5 Z"/></g>
<g><path style="opacity:1" fill="#848281" d="M 40.5,14.5 C 40.5,15.1667 40.5,15.8333 40.5,16.5C 36.6837,17.9094 33.0171,19.576 29.5,21.5C 28.8333,21.5 28.5,21.1667 28.5,20.5C 32.2211,17.9728 36.2211,15.9728 40.5,14.5 Z"/></g>
<g><path style="opacity:1" fill="#a5a1a0" d="M 63.5,10.5 C 63.4142,11.4959 63.7476,12.3292 64.5,13C 67.7434,15.0954 71.0767,16.9287 74.5,18.5C 74.5,18.8333 74.5,19.1667 74.5,19.5C 73.475,19.8966 73.3083,20.5632 74,21.5C 76.2089,23.3734 78.0422,25.54 79.5,28C 78.9558,28.7172 78.2891,29.2172 77.5,29.5C 74.3348,25.502 70.6681,22.002 66.5,19C 67.8333,18 67.8333,17 66.5,16C 64.143,13.8772 61.9763,14.0439 60,16.5C 58.2341,15.7665 56.4008,15.4332 54.5,15.5C 52.369,14.6862 50.0356,14.1862 47.5,14C 47.0426,13.586 46.7093,13.086 46.5,12.5C 52.0253,11.9289 57.3586,11.9289 62.5,12.5C 62.3284,11.5084 62.6618,10.8417 63.5,10.5 Z"/></g>
<g><path style="opacity:1" fill="#c1332a" d="M 80.5,12.5 C 83.1591,17.1291 86.3258,21.4624 90,25.5C 90.4828,24.552 90.6495,23.552 90.5,22.5C 91.1667,22.5 91.5,22.1667 91.5,21.5C 95.5753,26.3788 97.9086,32.0454 98.5,38.5C 97.5655,39.5676 97.2322,40.901 97.5,42.5C 93.4517,42.3946 89.4517,42.7279 85.5,43.5C 85.1667,41.5 84.8333,39.5 84.5,37.5C 84.4411,33.9541 83.6077,30.6208 82,27.5C 79.9718,24.3078 77.4718,21.6411 74.5,19.5C 74.5,19.1667 74.5,18.8333 74.5,18.5C 76.1394,16.1939 78.1394,14.1939 80.5,12.5 Z"/></g>
<g><path style="opacity:0.745" fill="#db6762" d="M 79.5,9.5 C 79.8966,8.47498 80.5632,8.30831 81.5,9C 82.8333,9.66667 82.8333,10.3333 81.5,11C 83.365,13.6309 85.5316,15.1309 88,15.5C 87.3829,17.0948 87.7163,18.4281 89,19.5C 90.6255,18.5881 91.4588,19.2547 91.5,21.5C 90.8333,21.5 90.5,21.8333 90.5,22.5C 90.6495,23.552 90.4828,24.552 90,25.5C 86.3258,21.4624 83.1591,17.1291 80.5,12.5C 80.5,11.8333 80.5,11.1667 80.5,10.5C 79.8333,10.5 79.5,10.1667 79.5,9.5 Z"/></g>
<g><path style="opacity:0.635" fill="#d5635a" d="M 19.5,9.5 C 18.8333,9.5 18.5,9.83333 18.5,10.5C 17.1667,10.8333 17.1667,11.1667 18.5,11.5C 18.8333,12.1667 19.1667,12.8333 19.5,13.5C 14.4019,17.942 10.4019,23.2753 7.5,29.5C 6.67504,30.3857 5.67504,30.719 4.5,30.5C 5.72212,29.063 5.72212,27.563 4.5,26C 5.78652,23.9288 6.95319,21.7621 8,19.5C 9.9823,18.9063 11.8156,17.7396 13.5,16C 12.5494,15.2825 12.3828,14.4491 13,13.5C 14.5,12 16,10.5 17.5,9C 18.4368,8.30831 19.1034,8.47498 19.5,9.5 Z"/></g>
<g><path style="opacity:1" fill="#88261e" d="M 24.5,19.5 C 25.7079,20.2341 27.0413,20.5674 28.5,20.5C 28.5,21.1667 28.8333,21.5 29.5,21.5C 28.1667,23.5 26.5,25.1667 24.5,26.5C 22.7259,25.119 21.2259,25.4523 20,27.5C 18.2138,30.7365 16.7138,34.0698 15.5,37.5C 15.2231,39.7281 14.2231,41.3947 12.5,42.5C 13.5918,33.3164 17.5918,25.6498 24.5,19.5 Z"/></g>
<g><path style="opacity:0.694" fill="#701d15" d="M 78.5,34.5 C 78.6716,35.4916 78.3382,36.1583 77.5,36.5C 76.8333,36.5 76.5,36.8333 76.5,37.5C 76.5,37.8333 76.5,38.1667 76.5,38.5C 75.4608,36.0987 74.1274,33.7654 72.5,31.5C 72.7093,30.914 73.0426,30.414 73.5,30C 71.8333,28.3333 70.1667,26.6667 68.5,25C 67.451,24.5078 66.451,24.6744 65.5,25.5C 63.7241,24.6852 63.0574,23.5185 63.5,22C 59.2893,20.863 54.9559,20.6963 50.5,21.5C 48.1667,21.3333 45.8333,21.1667 43.5,21C 45.5,20.6667 47.5,20.3333 49.5,20C 43.1446,19.2286 37.4779,20.8953 32.5,25C 33.3279,25.9147 34.3279,26.5814 35.5,27C 33.6183,27.1981 31.9516,27.6981 30.5,28.5C 30.8333,29.1667 31.1667,29.8333 31.5,30.5C 33.3724,33.9166 34.3724,37.5832 34.5,41.5C 33.7784,41.0825 33.2784,40.4158 33,39.5C 32.6667,40.1667 32.3333,40.8333 32,41.5C 30.7132,37.6305 29.0465,33.9638 27,30.5C 25.3117,31.3247 25.1451,32.3247 26.5,33.5C 23.8961,37.8117 22.3961,42.4784 22,47.5C 21.8019,45.6183 21.3019,43.9516 20.5,42.5C 20.9703,33.4196 25.3036,26.2529 33.5,21C 49.8077,13.1185 63.9743,15.9518 76,29.5C 77.0945,31.0779 77.9278,32.7446 78.5,34.5 Z M 40.5,34.5 C 44.0781,34.5488 47.4115,35.2154 50.5,36.5C 48.7085,36.366 47.0418,36.6993 45.5,37.5C 44.779,35.6182 43.779,35.2848 42.5,36.5C 41.5,36.1667 40.8333,35.5 40.5,34.5 Z"/></g>
<g><path style="opacity:0.008" fill="#e17070" d="M 3.5,31.5 C 2.47498,31.1034 2.30831,30.4368 3,29.5C 3.46434,30.0944 3.63101,30.7611 3.5,31.5 Z"/></g>
<g><path style="opacity:0.424" fill="#e29089" d="M 30.5,28.5 C 37.4824,29.6081 44.4824,30.6081 51.5,31.5C 52.9187,32.4511 54.5853,32.7845 56.5,32.5C 59.986,33.5333 63.6526,34.3666 67.5,35C 70.3489,38.0162 73.3489,40.8496 76.5,43.5C 77.3857,42.675 77.719,41.675 77.5,40.5C 77.8333,40.5 78.1667,40.5 78.5,40.5C 78.5,41.8333 78.5,43.1667 78.5,44.5C 78.1667,44.5 77.8333,44.5 77.5,44.5C 75.4862,44.6085 73.8195,43.9418 72.5,42.5C 70.3702,40.8729 68.3702,39.0396 66.5,37C 59.9192,35.2922 53.2525,34.1255 46.5,33.5C 46.0825,32.7784 45.4158,32.2784 44.5,32C 40.1371,31.6306 35.8038,31.1306 31.5,30.5C 31.1667,29.8333 30.8333,29.1667 30.5,28.5 Z"/></g>
<g><path style="opacity:1" fill="#d2cac9" d="M 24.5,26.5 C 22.0916,30.3133 19.9249,34.3133 18,38.5C 17.3292,37.7476 16.4959,37.4142 15.5,37.5C 16.7138,34.0698 18.2138,30.7365 20,27.5C 21.2259,25.4523 22.7259,25.119 24.5,26.5 Z"/></g>
<g><path style="opacity:0.986" fill="#c2362b" d="M 77.5,29.5 C 79.4841,31.4597 80.3174,33.793 80,36.5C 79.7216,35.5842 79.2216,34.9175 78.5,34.5C 77.9278,32.7446 77.0945,31.0779 76,29.5C 63.9743,15.9518 49.8077,13.1185 33.5,21C 25.3036,26.2529 20.9703,33.4196 20.5,42.5C 20.4928,45.0379 20.1595,47.5379 19.5,50C 20,52.5 20.5,55 21,57.5C 21.3333,56.1667 21.6667,54.8333 22,53.5C 22.7876,59.4065 24.9542,64.7398 28.5,69.5C 28.3764,70.1067 28.0431,70.44 27.5,70.5C 27.5,69.8333 27.1667,69.5 26.5,69.5C 25.475,69.8966 25.3083,70.5632 26,71.5C 27.5,73 29,74.5 30.5,76C 28.9343,76.2997 27.601,75.7997 26.5,74.5C 23.7606,70.6963 21.2606,66.6963 19,62.5C 18.0754,63.0465 17.2421,63.7132 16.5,64.5C 17.1272,65.4168 17.4606,66.4168 17.5,67.5C 16.8333,67.5 16.5,67.8333 16.5,68.5C 14.0237,65.7118 13.0237,62.3785 13.5,58.5C 9.55096,58.3068 9.55096,57.8068 13.5,57C 12.552,56.5172 11.552,56.3505 10.5,56.5C 12.2303,55.0882 13.7303,55.4215 15,57.5C 15.9246,56.9535 16.7579,56.2868 17.5,55.5C 16.8992,51.8406 16.2325,48.1739 15.5,44.5C 14.5832,43.8728 13.5832,43.5394 12.5,43.5C 12.5,43.1667 12.5,42.8333 12.5,42.5C 14.2231,41.3947 15.2231,39.7281 15.5,37.5C 16.4959,37.4142 17.3292,37.7476 18,38.5C 19.9249,34.3133 22.0916,30.3133 24.5,26.5C 26.5,25.1667 28.1667,23.5 29.5,21.5C 33.0171,19.576 36.6837,17.9094 40.5,16.5C 45.0704,15.559 49.737,15.2256 54.5,15.5C 56.4008,15.4332 58.2341,15.7665 60,16.5C 61.9763,14.0439 64.143,13.8772 66.5,16C 67.8333,17 67.8333,18 66.5,19C 70.6681,22.002 74.3348,25.502 77.5,29.5 Z"/></g>
<g><path style="opacity:0.012" fill="#ff9c8b" d="M 51.5,31.5 C 54.7167,30.4047 58.05,30.5713 61.5,32C 59.8659,32.4935 58.1992,32.6602 56.5,32.5C 55.0813,31.5489 53.4147,31.2155 51.5,31.5 Z"/></g>
<g><path style="opacity:0.718" fill="#711e17" d="M 36.5,33.5 C 41.3684,38.616 46.7017,43.2827 52.5,47.5C 52.6716,48.4916 52.3382,49.1583 51.5,49.5C 51.1667,49.5 50.8333,49.5 50.5,49.5C 48.1203,46.1195 45.1203,43.4528 41.5,41.5C 41.5,40.8333 41.1667,40.5 40.5,40.5C 40.5,39.8333 40.1667,39.5 39.5,39.5C 39.1583,38.6618 38.4916,38.3284 37.5,38.5C 37.5,37.8333 37.1667,37.5 36.5,37.5C 35.8592,36.5178 35.1925,35.5178 34.5,34.5C 34.9569,33.7025 35.6236,33.3691 36.5,33.5 Z"/></g>
<g><path style="opacity:1" fill="#f2eeee" d="M -0.5,42.5 C -0.166667,42.5 0.166667,42.5 0.5,42.5C 0.833333,45.1667 1.16667,45.1667 1.5,42.5C 5.1545,42.9422 8.82116,43.2756 12.5,43.5C 13.5832,43.5394 14.5832,43.8728 15.5,44.5C 16.2325,48.1739 16.8992,51.8406 17.5,55.5C 16.7579,56.2868 15.9246,56.9535 15,57.5C 13.7303,55.4215 12.2303,55.0882 10.5,56.5C 8.05035,56.298 5.71702,56.6314 3.5,57.5C 2.83333,57.5 2.16667,57.5 1.5,57.5C 1.65668,56.1266 1.49001,54.7932 1,53.5C 0.504543,55.4727 0.337876,57.4727 0.5,59.5C 0.5,59.8333 0.5,60.1667 0.5,60.5C 0.166667,60.5 -0.166667,60.5 -0.5,60.5C -0.5,54.5 -0.5,48.5 -0.5,42.5 Z"/></g>
<g><path style="opacity:1" fill="#efe3e1" d="M 84.5,37.5 C 84.8333,39.5 85.1667,41.5 85.5,43.5C 89.4517,42.7279 93.4517,42.3946 97.5,42.5C 98.5211,42.1007 98.8545,40.7674 98.5,38.5C 98.8333,38.5 99.1667,38.5 99.5,38.5C 99.5,45.8333 99.5,53.1667 99.5,60.5C 99.1667,60.5 98.8333,60.5 98.5,60.5C 98.8545,58.2326 98.5211,56.8993 97.5,56.5C 96.5,56.5 95.5,56.5 94.5,56.5C 91.6114,55.992 88.7781,55.3253 86,54.5C 84.8502,57.4177 84.0169,60.4177 83.5,63.5C 82.8485,64.0906 82.1818,64.7573 81.5,65.5C 81.1667,65 80.8333,64.5 80.5,64C 81.584,59.0785 83.2506,54.4118 85.5,50C 84.1008,45.8172 82.7675,41.6505 81.5,37.5C 81.281,36.325 81.6143,35.325 82.5,34.5C 83.1757,35.6016 83.8423,36.6016 84.5,37.5 Z"/></g>
<g><path style="opacity:0.106" fill="#d57167" d="M 37.5,32.5 C 37.8417,33.3382 38.5084,33.6716 39.5,33.5C 39.5,34.1667 39.8333,34.5 40.5,34.5C 40.8333,35.5 41.5,36.1667 42.5,36.5C 43.779,35.2848 44.779,35.6182 45.5,37.5C 45.0618,37.4346 44.7284,37.6012 44.5,38C 46.0151,40.6228 48.0151,41.6228 50.5,41C 50.0111,42.5523 50.6777,43.719 52.5,44.5C 53.1667,45.8333 53.8333,45.8333 54.5,44.5C 55.1667,44.5 55.5,44.1667 55.5,43.5C 58.8204,42.2387 59.1537,40.572 56.5,38.5C 57.8333,38.5 59.1667,38.5 60.5,38.5C 60.8333,39.8333 61.1667,39.8333 61.5,38.5C 62.2389,38.369 62.9056,38.5357 63.5,39C 61.2707,41.4003 58.9374,43.567 56.5,45.5C 55.3951,46.6005 54.0618,47.2671 52.5,47.5C 46.7017,43.2827 41.3684,38.616 36.5,33.5C 36.5,32.8333 36.8333,32.5 37.5,32.5 Z"/></g>
<g><path style="opacity:0.012" fill="#d18c8b" d="M 55.5,43.5 C 54.8333,43.5 54.5,43.8333 54.5,44.5C 53.8333,44.5 53.1667,44.5 52.5,44.5C 53.221,42.6182 54.221,42.2848 55.5,43.5 Z"/></g>
<g><path style="opacity:1" fill="#7a261f" d="M 37.5,32.5 C 40.5176,32.7038 43.5176,33.0371 46.5,33.5C 53.2525,34.1255 59.9192,35.2922 66.5,37C 68.3702,39.0396 70.3702,40.8729 72.5,42.5C 72.5,43.1667 72.5,43.8333 72.5,44.5C 71.8333,44.1667 71.1667,43.8333 70.5,43.5C 70.1667,42.1667 69.8333,42.1667 69.5,43.5C 67.5853,43.2155 65.9187,43.5489 64.5,44.5C 62.5227,43.1285 60.8561,43.4618 59.5,45.5C 58.8333,45.8333 58.1667,46.1667 57.5,46.5C 56.8333,46.5 56.5,46.1667 56.5,45.5C 58.9374,43.567 61.2707,41.4003 63.5,39C 62.9056,38.5357 62.2389,38.369 61.5,38.5C 61.1667,38.5 60.8333,38.5 60.5,38.5C 59.1667,37.1667 57.8333,37.1667 56.5,38.5C 49.4694,38.4812 49.136,37.9812 55.5,37C 53.8659,36.5065 52.1992,36.3398 50.5,36.5C 47.4115,35.2154 44.0781,34.5488 40.5,34.5C 39.8333,34.5 39.5,34.1667 39.5,33.5C 38.5084,33.6716 37.8417,33.3382 37.5,32.5 Z"/></g>
<g><path style="opacity:0.455" fill="#e4a6a1" d="M 69.5,43.5 C 69.8333,43.5 70.1667,43.5 70.5,43.5C 71.1667,43.8333 71.8333,44.1667 72.5,44.5C 67.9915,45.6761 63.3248,46.6761 58.5,47.5C 57.8933,47.3764 57.56,47.0431 57.5,46.5C 58.1667,46.1667 58.8333,45.8333 59.5,45.5C 61.4147,45.7845 63.0813,45.4511 64.5,44.5C 66.4147,44.7845 68.0813,44.4511 69.5,43.5 Z"/></g>
<g><path style="opacity:0.28" fill="#a32a21" d="M 74.5,19.5 C 77.4718,21.6411 79.9718,24.3078 82,27.5C 83.6077,30.6208 84.4411,33.9541 84.5,37.5C 83.8423,36.6016 83.1757,35.6016 82.5,34.5C 81.6143,35.325 81.281,36.325 81.5,37.5C 81.0414,40.5075 80.7081,43.5075 80.5,46.5C 79.4949,48.7043 79.1616,51.7043 79.5,55.5C 78.6829,53.0314 78.1829,50.3647 78,47.5C 77.6174,46.944 77.1174,46.6107 76.5,46.5C 74.9382,46.7329 73.6049,47.3995 72.5,48.5C 72.5,47.8333 72.1667,47.5 71.5,47.5C 71.0831,46.8761 70.4164,46.5427 69.5,46.5C 65.5178,47.2594 61.5178,47.9261 57.5,48.5C 55.9704,48.6399 54.9704,49.3065 54.5,50.5C 55.9516,51.3019 57.6183,51.8019 59.5,52C 58.552,52.4828 57.552,52.6495 56.5,52.5C 56.8064,55.3854 56.4731,58.0521 55.5,60.5C 55.1667,49.8333 54.8333,49.8333 54.5,60.5C 53.5386,62.2646 53.2053,64.2646 53.5,66.5C 53.5,66.8333 53.5,67.1667 53.5,67.5C 53.5,67.8333 53.5,68.1667 53.5,68.5C 52.8333,68.5 52.5,68.8333 52.5,69.5C 51.9284,66.2226 51.7618,61.5559 52,55.5C 51.6174,56.056 51.1174,56.3893 50.5,56.5C 50.1348,53.9213 50.1348,51.588 50.5,49.5C 50.8333,50.8333 51.1667,50.8333 51.5,49.5C 52.3382,49.1583 52.6716,48.4916 52.5,47.5C 54.0618,47.2671 55.3951,46.6005 56.5,45.5C 56.5,46.1667 56.8333,46.5 57.5,46.5C 57.56,47.0431 57.8933,47.3764 58.5,47.5C 63.3248,46.6761 67.9915,45.6761 72.5,44.5C 72.5,43.8333 72.5,43.1667 72.5,42.5C 73.8195,43.9418 75.4862,44.6085 77.5,44.5C 77.8333,45.8333 78.1667,45.8333 78.5,44.5C 79.8333,43.1667 79.8333,41.8333 78.5,40.5C 78.1667,37.8333 77.8333,37.8333 77.5,40.5C 76.6618,40.1583 76.3284,39.4916 76.5,38.5C 76.5,38.1667 76.5,37.8333 76.5,37.5C 77.1667,37.5 77.5,37.1667 77.5,36.5C 78.3382,36.1583 78.6716,35.4916 78.5,34.5C 79.2216,34.9175 79.7216,35.5842 80,36.5C 80.3174,33.793 79.4841,31.4597 77.5,29.5C 78.2891,29.2172 78.9558,28.7172 79.5,28C 78.0422,25.54 76.2089,23.3734 74,21.5C 73.3083,20.5632 73.475,19.8966 74.5,19.5 Z"/></g>
<g><path style="opacity:0.937" fill="#cb473c" d="M 31.5,30.5 C 35.8038,31.1306 40.1371,31.6306 44.5,32C 45.4158,32.2784 46.0825,32.7784 46.5,33.5C 43.5176,33.0371 40.5176,32.7038 37.5,32.5C 36.8333,32.5 36.5,32.8333 36.5,33.5C 35.6236,33.3691 34.9569,33.7025 34.5,34.5C 35.1925,35.5178 35.8592,36.5178 36.5,37.5C 37.1667,37.5 37.5,37.8333 37.5,38.5C 37.4088,40.6977 38.0755,41.0311 39.5,39.5C 40.1667,39.5 40.5,39.8333 40.5,40.5C 41.1667,40.5 41.5,40.8333 41.5,41.5C 39.4559,44.3723 39.6226,47.3723 42,50.5C 42.3333,49.8333 42.6667,49.1667 43,48.5C 43.5946,49.8989 43.4279,51.2322 42.5,52.5C 42.9943,54.0255 43.661,55.3588 44.5,56.5C 44.3284,57.4916 44.6618,58.1583 45.5,58.5C 45.369,59.2389 45.5357,59.9056 46,60.5C 46.7697,59.4019 47.603,59.4019 48.5,60.5C 47.4188,63.3315 47.5855,65.9982 49,68.5C 49.4974,65.854 49.6641,63.1873 49.5,60.5C 50.4345,59.4324 50.7678,58.099 50.5,56.5C 51.1174,56.3893 51.6174,56.056 52,55.5C 51.7618,61.5559 51.9284,66.2226 52.5,69.5C 53.1667,69.5 53.5,69.1667 53.5,68.5C 54.8333,68.1667 54.8333,67.8333 53.5,67.5C 53.5,67.1667 53.5,66.8333 53.5,66.5C 54.4916,66.6716 55.1583,66.3382 55.5,65.5C 56.1667,65.5 56.5,65.1667 56.5,64.5C 57.8333,64.1667 57.8333,63.8333 56.5,63.5C 56.7376,61.5956 57.7376,60.2623 59.5,59.5C 60.0778,60.547 60.7445,60.3803 61.5,59C 61.2716,58.6012 60.9382,58.4346 60.5,58.5C 60.7376,56.5956 61.7376,55.2623 63.5,54.5C 64.3274,55.4387 64.9941,55.1054 65.5,53.5C 66.1667,53.5 66.5,53.1667 66.5,52.5C 66.7822,51.2223 67.4489,50.2223 68.5,49.5C 69.1667,49.5 69.5,49.1667 69.5,48.5C 70.1667,48.1667 70.8333,47.8333 71.5,47.5C 72.1667,47.5 72.5,47.8333 72.5,48.5C 64.7899,57.5415 57.2899,66.8748 50,76.5C 45.6206,66.7043 41.6206,56.7043 38,46.5C 37.5831,45.244 36.7498,44.5774 35.5,44.5C 34.7784,44.9175 34.2784,45.5842 34,46.5C 33.6155,44.8034 33.7822,43.1368 34.5,41.5C 34.3724,37.5832 33.3724,33.9166 31.5,30.5 Z M 64.5,50.5 C 59.1667,50.8333 59.1667,51.1667 64.5,51.5C 64.5,52.1667 64.5,52.8333 64.5,53.5C 63.8333,53.5 63.5,53.8333 63.5,54.5C 61.7376,55.2623 60.7376,56.5956 60.5,58.5C 59.8333,58.5 59.5,58.8333 59.5,59.5C 57.7376,60.2623 56.7376,61.5956 56.5,63.5C 55.596,62.791 55.2627,61.791 55.5,60.5C 56.4731,58.0521 56.8064,55.3854 56.5,52.5C 57.552,52.6495 58.552,52.4828 59.5,52C 57.6183,51.8019 55.9516,51.3019 54.5,50.5C 58.0151,49.761 61.3485,49.761 64.5,50.5 Z M 48.5,60.5 C 48.8333,60.5 49.1667,60.5 49.5,60.5C 49.6641,63.1873 49.4974,65.854 49,68.5C 47.5855,65.9982 47.4188,63.3315 48.5,60.5 Z M 54.5,60.5 C 54.2155,62.4147 54.5489,64.0813 55.5,65.5C 55.1583,66.3382 54.4916,66.6716 53.5,66.5C 53.2053,64.2646 53.5386,62.2646 54.5,60.5 Z"/></g>
<g><path style="opacity:0.796" fill="#792018" d="M 35.5,44.5 C 36.7498,44.5774 37.5831,45.244 38,46.5C 41.6206,56.7043 45.6206,66.7043 50,76.5C 57.2899,66.8748 64.7899,57.5415 72.5,48.5C 73.6049,47.3995 74.9382,46.7329 76.5,46.5C 75.7101,47.7942 74.7101,48.9609 73.5,50C 74.4506,50.7175 74.6172,51.5509 74,52.5C 72.6381,53.9247 71.1381,54.758 69.5,55C 70.4506,55.7175 70.6172,56.5509 70,57.5C 68.2434,57.1329 66.7434,57.9662 65.5,60C 66.4506,60.7175 66.6172,61.5509 66,62.5C 64.0177,63.0937 62.1844,64.2604 60.5,66C 61.7836,67.2975 61.6169,68.4642 60,69.5C 59.0862,68.3463 58.2529,68.513 57.5,70C 58.4506,70.7175 58.6172,71.5509 58,72.5C 56.0177,73.0937 54.1844,74.2604 52.5,76C 52.9121,77.5639 53.2454,79.0639 53.5,80.5C 52.209,80.7373 51.209,80.404 50.5,79.5C 49.1667,79.8333 47.8333,80.1667 46.5,80.5C 45.0813,79.5489 43.4147,79.2155 41.5,79.5C 42.9516,78.6981 44.6183,78.1981 46.5,78C 44.8542,75.7706 44.5208,73.4373 45.5,71C 44.724,68.0053 43.5574,65.172 42,62.5C 41.6667,63.1667 41.3333,63.8333 41,64.5C 40.8047,62.7928 40.8047,61.1261 41,59.5C 40.3333,58.1667 39.6667,58.1667 39,59.5C 39.6424,56.043 38.9757,52.7096 37,49.5C 36.6667,50.1667 36.3333,50.8333 36,51.5C 36.5218,49.1201 36.3552,46.7868 35.5,44.5 Z M 64.5,50.5 C 59.1667,50.8333 59.1667,51.1667 64.5,51.5C 64.5,52.1667 64.5,52.8333 64.5,53.5C 63.8333,53.5 63.5,53.8333 63.5,54.5C 61.7376,55.2623 60.7376,56.5956 60.5,58.5C 59.8333,58.5 59.5,58.8333 59.5,59.5C 57.7376,60.2623 56.7376,61.5956 56.5,63.5C 55.596,62.791 55.2627,61.791 55.5,60.5C 56.4731,58.0521 56.8064,55.3854 56.5,52.5C 57.552,52.6495 58.552,52.4828 59.5,52C 57.6183,51.8019 55.9516,51.3019 54.5,50.5C 58.0151,49.761 61.3485,49.761 64.5,50.5 Z M 48.5,60.5 C 48.8333,60.5 49.1667,60.5 49.5,60.5C 49.6641,63.1873 49.4974,65.854 49,68.5C 47.5855,65.9982 47.4188,63.3315 48.5,60.5 Z M 54.5,60.5 C 54.2155,62.4147 54.5489,64.0813 55.5,65.5C 55.1583,66.3382 54.4916,66.6716 53.5,66.5C 53.2053,64.2646 53.5386,62.2646 54.5,60.5 Z"/></g>
<g><path style="opacity:0.012" fill="#ab563f" d="M 45.5,58.5 C 45.6716,57.5084 45.3382,56.8417 44.5,56.5C 44.2342,54.6526 44.5675,53.986 45.5,54.5C 46.7053,55.9948 46.7053,57.3281 45.5,58.5 Z"/></g>
<g><path style="opacity:0.576" fill="#66271e" d="M 71.5,47.5 C 70.8333,47.8333 70.1667,48.1667 69.5,48.5C 65.1617,48.6219 64.8284,48.9553 68.5,49.5C 67.4489,50.2223 66.7822,51.2223 66.5,52.5C 65.8333,52.5 65.5,52.8333 65.5,53.5C 65.1667,53.5 64.8333,53.5 64.5,53.5C 64.5,52.8333 64.5,52.1667 64.5,51.5C 65.8333,51.1667 65.8333,50.8333 64.5,50.5C 61.3485,49.761 58.0151,49.761 54.5,50.5C 54.9704,49.3065 55.9704,48.6399 57.5,48.5C 61.5178,47.9261 65.5178,47.2594 69.5,46.5C 70.4164,46.5427 71.0831,46.8761 71.5,47.5 Z"/></g>
<g><path style="opacity:1" fill="#c23027" d="M 94.5,56.5 C 93.0615,68.3819 87.7282,78.0485 78.5,85.5C 78.1667,85.5 77.8333,85.5 77.5,85.5C 76.7515,83.6675 75.7515,82.0009 74.5,80.5C 78.2278,76.2618 81.3945,71.5951 84,66.5C 84.4696,65.4232 84.3029,64.4232 83.5,63.5C 84.0169,60.4177 84.8502,57.4177 86,54.5C 88.7781,55.3253 91.6114,55.992 94.5,56.5 Z"/></g>
<g><path style="opacity:1" fill="#c13026" d="M 10.5,56.5 C 11.552,56.3505 12.552,56.5172 13.5,57C 9.55096,57.8068 9.55096,58.3068 13.5,58.5C 13.0237,62.3785 14.0237,65.7118 16.5,68.5C 18.7305,73.0657 21.7305,77.0657 25.5,80.5C 24.5589,82.7721 23.2255,84.7721 21.5,86.5C 21.1667,86.5 20.8333,86.5 20.5,86.5C 12.048,78.4909 6.38136,68.8242 3.5,57.5C 5.71702,56.6314 8.05035,56.298 10.5,56.5 Z"/></g>
<g><path style="opacity:0.012" fill="#a83103" d="M 97.5,60.5 C 97.8333,60.5 98.1667,60.5 98.5,60.5C 98.7678,62.099 98.4345,63.4324 97.5,64.5C 97.5,63.1667 97.5,61.8333 97.5,60.5 Z"/></g>
<g><path style="opacity:1" fill="#faeae8" d="M 26.5,74.5 C 25.5768,75.3029 24.5768,75.4696 23.5,75C 21.636,72.3123 19.636,69.8123 17.5,67.5C 17.4606,66.4168 17.1272,65.4168 16.5,64.5C 17.2421,63.7132 18.0754,63.0465 19,62.5C 21.2606,66.6963 23.7606,70.6963 26.5,74.5 Z"/></g>
<g><path style="opacity:0.008" fill="#b53225" d="M 54.5,60.5 C 54.8333,60.5 55.1667,60.5 55.5,60.5C 55.2627,61.791 55.596,62.791 56.5,63.5C 56.5,63.8333 56.5,64.1667 56.5,64.5C 55.8333,64.5 55.5,64.8333 55.5,65.5C 54.5489,64.0813 54.2155,62.4147 54.5,60.5 Z"/></g>
<g><path style="opacity:0.882" fill="#c84b41" d="M 81.5,37.5 C 82.7675,41.6505 84.1008,45.8172 85.5,50C 83.2506,54.4118 81.584,59.0785 80.5,64C 80.8333,64.5 81.1667,65 81.5,65.5C 82.1818,64.7573 82.8485,64.0906 83.5,63.5C 84.3029,64.4232 84.4696,65.4232 84,66.5C 81.3945,71.5951 78.2278,76.2618 74.5,80.5C 73.7326,79.828 73.0659,78.9947 72.5,78C 74.3333,76.1667 76.1667,74.3333 78,72.5C 78.6917,71.5632 78.525,70.8966 77.5,70.5C 77.0679,69.2905 76.4013,68.2905 75.5,67.5C 76.8069,66.1984 76.8069,64.865 75.5,63.5C 76.0983,62.2054 76.5983,60.8721 77,59.5C 77.6667,60.8333 78.3333,60.8333 79,59.5C 79.49,58.2068 79.6567,56.8734 79.5,55.5C 80.4767,52.7131 80.81,49.7131 80.5,46.5C 80.7081,43.5075 81.0414,40.5075 81.5,37.5 Z"/></g>
<g><path style="opacity:0.012" fill="#700002" d="M 96.5,64.5 C 96.8333,64.5 97.1667,64.5 97.5,64.5C 97.1667,67.1667 96.8333,67.1667 96.5,64.5 Z"/></g>
<g><path style="opacity:0.012" fill="#540000" d="M 95.5,67.5 C 96.8333,68.1667 96.8333,68.8333 95.5,69.5C 95.5,68.8333 95.5,68.1667 95.5,67.5 Z"/></g>
<g><path style="opacity:0.008" fill="#7e0000" d="M 94.5,69.5 C 94.8333,69.5 95.1667,69.5 95.5,69.5C 95.6716,70.4916 95.3382,71.1583 94.5,71.5C 94.5,70.8333 94.5,70.1667 94.5,69.5 Z"/></g>
<g><path style="opacity:1" fill="#fcf7f7" d="M 77.5,70.5 C 78.525,70.8966 78.6917,71.5632 78,72.5C 76.1667,74.3333 74.3333,76.1667 72.5,78C 73.0659,78.9947 73.7326,79.828 74.5,80.5C 75.7515,82.0009 76.7515,83.6675 77.5,85.5C 74.908,88.804 71.5747,91.1373 67.5,92.5C 67.1667,92.5 66.8333,92.5 66.5,92.5C 66.233,90.0347 65.5664,87.7014 64.5,85.5C 66.8633,83.4156 68.53,80.7489 69.5,77.5C 72.1864,75.1442 74.853,72.8109 77.5,70.5 Z"/></g>
<g><path style="opacity:0.737" fill="#751d16" d="M 1.5,57.5 C 2.16667,57.5 2.83333,57.5 3.5,57.5C 6.38136,68.8242 12.048,78.4909 20.5,86.5C 20.6716,87.4916 20.3382,88.1583 19.5,88.5C 16.8697,86.3719 14.3697,84.0386 12,81.5C 10.8525,82.4581 9.85252,82.1247 9,80.5C 7.2467,77.9952 5.7467,75.3286 4.5,72.5C 4.83333,71.8333 5.16667,71.1667 5.5,70.5C 4.39064,68.6147 3.55731,66.6147 3,64.5C 2.66667,65.1667 2.33333,65.8333 2,66.5C 1.18701,64.5643 0.687013,62.5643 0.5,60.5C 0.5,60.1667 0.5,59.8333 0.5,59.5C 1.33825,59.1583 1.67158,58.4916 1.5,57.5 Z"/></g>
<g><path style="opacity:1" fill="#fbf7f7" d="M 37.5,87.5 C 36.2616,89.2143 35.595,91.2143 35.5,93.5C 34.8333,93.5 34.5,93.8333 34.5,94.5C 29.663,92.6652 25.3296,89.9985 21.5,86.5C 23.2255,84.7721 24.5589,82.7721 25.5,80.5C 26.2216,80.0825 26.7216,79.4158 27,78.5C 28.6574,81.16 30.3241,81.16 32,78.5C 35.5983,80.6461 39.4316,82.3128 43.5,83.5C 41.4657,84.8322 39.4657,86.1656 37.5,87.5 Z"/></g>
<g><path style="opacity:0.592" fill="#7a1e17" d="M 94.5,56.5 C 95.5,56.5 96.5,56.5 97.5,56.5C 97.5,57.8333 97.5,59.1667 97.5,60.5C 96.5655,61.5676 96.2322,62.901 96.5,64.5C 95.596,65.209 95.2627,66.209 95.5,67.5C 94.6618,67.8417 94.3284,68.5084 94.5,69.5C 93.1667,70.1667 93.1667,70.8333 94.5,71.5C 93.5023,75.5055 91.5023,78.8388 88.5,81.5C 88.1667,80.1667 87.8333,80.1667 87.5,81.5C 86.8333,81.5 86.5,81.8333 86.5,82.5C 85.8333,82.5 85.5,82.8333 85.5,83.5C 84.8333,83.5 84.5,83.8333 84.5,84.5C 83.8333,84.5 83.5,84.8333 83.5,85.5C 82.8333,85.5 82.5,85.8333 82.5,86.5C 81.8333,86.5 81.5,86.8333 81.5,87.5C 80.8333,87.5 80.5,87.8333 80.5,88.5C 80.1667,88.5 79.8333,88.5 79.5,88.5C 79.4431,87.391 79.1098,86.391 78.5,85.5C 87.7282,78.0485 93.0615,68.3819 94.5,56.5 Z"/></g>
<g><path style="opacity:0.012" fill="#540000" d="M 87.5,81.5 C 87.8333,81.5 88.1667,81.5 88.5,81.5C 88.3147,82.1701 87.9813,82.1701 87.5,81.5 Z"/></g>
<g><path style="opacity:0.016" fill="#3e0000" d="M 86.5,82.5 C 86.8333,82.5 87.1667,82.5 87.5,82.5C 87.3147,83.1701 86.9813,83.1701 86.5,82.5 Z"/></g>
<g><path style="opacity:0.004" fill="#270900" d="M 85.5,83.5 C 85.8333,83.5 86.1667,83.5 86.5,83.5C 86.5,85.5 85.5,86.5 83.5,86.5C 83.5,86.1667 83.5,85.8333 83.5,85.5C 84.1667,85.5 84.5,85.1667 84.5,84.5C 85.1667,84.5 85.5,84.1667 85.5,83.5 Z"/></g>
<g><path style="opacity:1" fill="#de827a" d="M 75.5,67.5 C 76.4013,68.2905 77.0679,69.2905 77.5,70.5C 74.853,72.8109 72.1864,75.1442 69.5,77.5C 68.53,80.7489 66.8633,83.4156 64.5,85.5C 59.4344,87.8543 54.101,89.1876 48.5,89.5C 44.614,89.5458 40.9473,88.8791 37.5,87.5C 39.4657,86.1656 41.4657,84.8322 43.5,83.5C 39.4316,82.3128 35.5983,80.6461 32,78.5C 30.3241,81.16 28.6574,81.16 27,78.5C 26.7216,79.4158 26.2216,80.0825 25.5,80.5C 21.7305,77.0657 18.7305,73.0657 16.5,68.5C 16.5,67.8333 16.8333,67.5 17.5,67.5C 19.636,69.8123 21.636,72.3123 23.5,75C 24.5768,75.4696 25.5768,75.3029 26.5,74.5C 27.601,75.7997 28.9343,76.2997 30.5,76C 29,74.5 27.5,73 26,71.5C 25.3083,70.5632 25.475,69.8966 26.5,69.5C 27.1667,69.5 27.5,69.8333 27.5,70.5C 31.1149,75.1111 35.7816,78.1111 41.5,79.5C 42.9187,80.4511 44.5853,80.7845 46.5,80.5C 48.8333,81.8333 51.1667,81.8333 53.5,80.5C 58.802,80.4009 63.4687,78.7342 67.5,75.5C 68.1667,75.5 68.5,75.1667 68.5,74.5C 71.6872,72.8925 73.1872,70.5591 73,67.5C 73.7697,66.4019 74.603,66.4019 75.5,67.5 Z M 50.5,79.5 C 51.209,80.404 52.209,80.7373 53.5,80.5C 51.1667,81.8333 48.8333,81.8333 46.5,80.5C 47.8333,80.1667 49.1667,79.8333 50.5,79.5 Z"/></g>
<g><path style="opacity:0.999" fill="#fbf2f1" d="M 60.5,81.5 C 62.0481,81.8212 62.7148,82.8212 62.5,84.5C 58.2464,85.6462 53.913,86.3129 49.5,86.5C 49.5,85.5 49.5,84.5 49.5,83.5C 53.4578,83.7489 57.1244,83.0823 60.5,81.5 Z"/></g>
<g><path style="opacity:0.004" fill="#d5a7a5" d="M 68.5,74.5 C 67.8333,74.5 67.5,74.8333 67.5,75.5C 65.0248,75.2533 65.0248,74.5866 67.5,73.5C 68.1067,73.6236 68.44,73.9569 68.5,74.5 Z"/></g>
<g><path style="opacity:1" fill="#c13127" d="M 64.5,85.5 C 65.5664,87.7014 66.233,90.0347 66.5,92.5C 61.2558,95.8744 55.4225,97.2078 49,96.5C 45.8333,96.3333 42.6667,96.1667 39.5,96C 37.563,95.8784 36.2297,95.045 35.5,93.5C 35.595,91.2143 36.2616,89.2143 37.5,87.5C 40.9473,88.8791 44.614,89.5458 48.5,89.5C 54.101,89.1876 59.4344,87.8543 64.5,85.5 Z"/></g>
<g><path style="opacity:0.004" fill="#3d1e04" d="M 82.5,86.5 C 82.8333,86.5 83.1667,86.5 83.5,86.5C 83.5,87.8333 82.8333,88.5 81.5,88.5C 81.5,88.1667 81.5,87.8333 81.5,87.5C 82.1667,87.5 82.5,87.1667 82.5,86.5 Z"/></g>
<g><path style="opacity:0.016" fill="#3e3f3e" d="M 80.5,88.5 C 80.8333,88.5 81.1667,88.5 81.5,88.5C 81.3147,89.1701 80.9813,89.1701 80.5,88.5 Z"/></g>
<g><path style="opacity:0.587" fill="#8d8b89" d="M 20.5,86.5 C 20.8333,86.5 21.1667,86.5 21.5,86.5C 25.3296,89.9985 29.663,92.6652 34.5,94.5C 34.5,95.5 34.5,96.5 34.5,97.5C 34.5,97.8333 34.5,98.1667 34.5,98.5C 31.4017,98.5875 31.0684,98.0875 33.5,97C 28.2697,94.8943 23.603,92.061 19.5,88.5C 20.3382,88.1583 20.6716,87.4916 20.5,86.5 Z"/></g>
<g><path style="opacity:0.012" fill="#545554" d="M 79.5,89.5 C 79.8333,89.5 80.1667,89.5 80.5,89.5C 80.3147,90.1701 79.9813,90.1701 79.5,89.5 Z"/></g>
<g><path style="opacity:0.012" fill="#545554" d="M 78.5,90.5 C 78.8333,90.5 79.1667,90.5 79.5,90.5C 79.3147,91.1701 78.9813,91.1701 78.5,90.5 Z"/></g>
<g><path style="opacity:0.633" fill="#8d8d8d" d="M 77.5,85.5 C 77.8333,85.5 78.1667,85.5 78.5,85.5C 79.1098,86.391 79.4431,87.391 79.5,88.5C 79.5,88.8333 79.5,89.1667 79.5,89.5C 78.8333,89.5 78.5,89.8333 78.5,90.5C 77.5084,90.3284 76.8417,90.6618 76.5,91.5C 75.8333,91.5 75.5,91.8333 75.5,92.5C 74.5084,92.3284 73.8417,92.6618 73.5,93.5C 72.5084,93.3284 71.8417,93.6618 71.5,94.5C 70.391,94.5569 69.391,94.8902 68.5,95.5C 67.8902,94.609 67.5569,93.609 67.5,92.5C 71.5747,91.1373 74.908,88.804 77.5,85.5 Z"/></g>
<g><path style="opacity:0.004" fill="#373737" d="M 76.5,92.5 C 76.5,92.1667 76.5,91.8333 76.5,91.5C 77.1667,91.5 77.8333,91.5 78.5,91.5C 78.1583,92.3382 77.4916,92.6716 76.5,92.5 Z"/></g>
<g><path style="opacity:0.012" fill="#a9aaa9" d="M 75.5,92.5 C 75.8333,92.5 76.1667,92.5 76.5,92.5C 76.3147,93.1701 75.9813,93.1701 75.5,92.5 Z"/></g>
<g><path style="opacity:0.004" fill="#c2c2c2" d="M 73.5,94.5 C 73.5,94.1667 73.5,93.8333 73.5,93.5C 74.1667,93.5 74.8333,93.5 75.5,93.5C 75.1583,94.3382 74.4916,94.6716 73.5,94.5 Z"/></g>
<g><path style="opacity:0.008" fill="#535353" d="M 71.5,95.5 C 71.5,95.1667 71.5,94.8333 71.5,94.5C 72.1667,94.5 72.8333,94.5 73.5,94.5C 73.1583,95.3382 72.4916,95.6716 71.5,95.5 Z"/></g>
<g><path style="opacity:0.012" fill="#545554" d="M 71.5,95.5 C 70.8333,96.1667 70.8333,96.1667 71.5,95.5 Z"/></g>
<g><path style="opacity:0.008" fill="#7e7f7e" d="M 67.5,97.5 C 67.5,97.1667 67.5,96.8333 67.5,96.5C 70.1667,96.8333 70.1667,97.1667 67.5,97.5 Z"/></g>
<g><path style="opacity:1" fill="#681915" d="M 66.5,92.5 C 66.8333,92.5 67.1667,92.5 67.5,92.5C 67.5569,93.609 67.8902,94.609 68.5,95.5C 67.8333,95.5 67.5,95.8333 67.5,96.5C 64.8333,96.8333 64.8333,97.1667 67.5,97.5C 66.791,98.404 65.791,98.7373 64.5,98.5C 63.8333,97.1667 63.1667,97.1667 62.5,98.5C 60.5853,98.2155 58.9187,98.5489 57.5,99.5C 52.1667,99.5 46.8333,99.5 41.5,99.5C 40.0813,98.5489 38.4147,98.2155 36.5,98.5C 36.1583,97.6618 35.4916,97.3284 34.5,97.5C 34.5,96.5 34.5,95.5 34.5,94.5C 34.5,93.8333 34.8333,93.5 35.5,93.5C 36.2297,95.045 37.563,95.8784 39.5,96C 42.6667,96.1667 45.8333,96.3333 49,96.5C 55.4225,97.2078 61.2558,95.8744 66.5,92.5 Z"/></g>
<g><path style="opacity:0.012" fill="#620000" d="M 34.5,99.5 C 34.5,99.1667 34.5,98.8333 34.5,98.5C 35.1667,98.5 35.8333,98.5 36.5,98.5C 36.5,98.8333 36.5,99.1667 36.5,99.5C 35.8333,99.5 35.1667,99.5 34.5,99.5 Z"/></g>
<g><path style="opacity:0.012" fill="#4d0000" d="M 62.5,99.5 C 62.5,99.1667 62.5,98.8333 62.5,98.5C 63.1667,98.5 63.8333,98.5 64.5,98.5C 64.5,98.8333 64.5,99.1667 64.5,99.5C 63.8333,99.5 63.1667,99.5 62.5,99.5 Z"/></g>
</svg>
