<?xml version="1.0"?><svg xmlns="http://www.w3.org/2000/svg" width="36" height="36" shape-rendering="geometricPrecision" text-rendering="geometricPrecision" image-rendering="optimizeQuality" fill-rule="evenodd" clip-rule="evenodd" viewBox="0 0 36 36"><path fill="#9a9a1c" d="m14.9-0.1h6.1c2.5 0.5 4.9 1.4 7 2.9-0.1 0-0.2 0.1-0.2 0.2-5.6-3.4-11.4-3.8-17.4-1.4-0.8 0.3-1.5 0.7-2.1 1.3-0.2 0.1-0.4 0.1-0.6 0.1 0.8-0.7 1.7-1.3 2.7-1.7 1.5-0.5 3-1 4.5-1.4z" opacity=".565"></path><path fill="#b5b552" d="m28 2.8c0 0.2 0 0.3 0.2 0.4 1.8 1.3 3.3 2.9 4.6 4.8l-0.2 0.1c-2.3-3-5.1-5.2-8.6-6.7-1.4-0.2-2.7-0.5-4.1-0.8-2.2-0.2-4.5-0.1-6.7 0.5-0.8 0.2-1.5 0.4-2.2 0.8-0.7 0.2-1.4 0.4-2 0.8-1.4 0.9-2.7 2-3.9 3.1-0.1 0-0.2-0.1-0.1-0.3 0.8-0.8 1.6-1.5 2.5-2.3 0.1 0 0.1-0.1 0.1-0.2h0.1c0.2 0 0.4 0 0.6-0.1 0.6-0.6 1.3-1 2.1-1.3 6-2.4 11.8-2 17.4 1.4 0-0.1 0.1-0.2 0.2-0.2z"></path><path fill="#949400" d="m28 2.8c4.3 3 7 7 7.9 12.1v4.9c-0.1-0.3-0.2-0.6-0.3-0.9-0.5 1.6-0.9 3.1-1.3 4.6-2.5 6-6.9 9.8-13.2 11.3-2.6 0.4-5.1 0.3-7.6-0.2-1.3-0.2-2.4-0.6-3.5-1.3-3.4-2.1-6.1-5-8.1-8.6-0.5-1.8-1-3.5-1.3-5.3-0.1-0.2-0.2-0.3-0.3-0.5-0.1 0.3-0.3 0.6-0.4 0.9v-4.9c0.3-1.1 0.6-2.2 1-3.3-0.3 1.2-0.5 2.4-0.5 3.6 0.7-1.9 1.5-3.8 2.3-5.6 0.6-1.1 1.3-2.1 2.1-3 0.7-0.9 1.6-1.7 2.5-2.4 1.2-0.8 2.5-1.5 3.7-2.3 0.7-0.4 1.4-0.6 2.2-0.8 2.2-0.6 4.5-0.7 6.7-0.5 1.4 0.3 2.7 0.6 4.1 0.8 3.5 1.5 6.3 3.7 8.6 6.7l0.2-0.1c-1.3-1.9-2.8-3.5-4.6-4.8-0.2-0.1-0.2-0.2-0.2-0.4z" opacity=".999"></path><path fill="#b5c800" d="m16.1 5.7c2.6-0.1 4.6 1 5.9 3.3 0.5 2.1 0.9 4.2 1.2 6.3 2.6 2 3.7 4.7 3.2 8-1.5 4.6-4.6 6.7-9.5 6.2-4.5-1.4-6.5-4.4-6.1-9.1 0.1-0.5 0.2-1 0.3-1.5 0.4-0.7 0.8-1.5 1.1-2.3-0.3-1.8-0.5-3.6-0.9-5.4 0.4-2.9 1.9-4.8 4.8-5.5z"></path><path fill="#949400" d="m16.1 8.7c1.4-0.2 2.5 0.4 3.2 1.6 0.3 1.1 0.4 2.3 0.5 3.5-1.7-0.2-3.4 0-4.9 0.8-0.3-1.4-0.5-2.8-0.5-4.2 0.4-0.7 0.9-1.3 1.7-1.7z"></path><path fill="#9d9d1c" d="m11 1.9c-1.2 0.8-2.5 1.5-3.7 2.3-0.9 0.7-1.8 1.5-2.5 2.4-0.8 0.9-1.5 1.9-2.1 3-0.8 1.8-1.6 3.7-2.3 5.6 0-1.2 0.2-2.4 0.5-3.6 1.3-3.6 3.5-6.4 6.7-8.6 0 0.1 0 0.2-0.1 0.2-0.9 0.8-1.7 1.5-2.5 2.3-0.1 0.2 0 0.3 0.1 0.3 1.2-1.1 2.5-2.2 3.9-3.1 0.6-0.4 1.3-0.6 2-0.8z"></path><path fill="#959500" d="m17.5 15.8c0.4 0 0.7 0.1 1.1 0.3 0.1 0.8 0.2 1.6 0.2 2.4-0.4 0-0.9 0-1.3 0.1-0.2 0-0.3-0.1-0.4-0.2 0-0.7-0.2-1.3-0.3-2 0.2-0.2 0.4-0.4 0.7-0.6z"></path><path fill="#959600" d="m21 16.6c0.8-0.1 1.3 0.3 1.5 1-0.4 0.7-0.9 1.4-1.5 2.1-0.5-0.3-0.9-0.7-1.3-1.1 0.4-0.6 0.8-1.3 1.3-2z m-6.7 1c0.8 0.5 1.5 1 2.2 1.6-0.3 0.5-0.6 0.9-1 1.3-0.7-0.4-1.3-0.8-1.9-1.3-0.2-0.3-0.2-0.6-0.1-1 0.3-0.2 0.6-0.4 0.8-0.6z"></path><path fill="#858500" d="m10 33.3c-0.2 0.1-0.4 0-0.6 0-0.5-0.5-1.2-0.9-1.8-1.2-0.8-0.8-1.7-1.6-2.6-2.4-0.5-0.6-1-1.2-1.5-1.9-0.3 0-0.6 0-0.8-0.1-1.4-2-2.3-4.3-2.8-6.7v-1.2c0.1-0.3 0.3-0.6 0.4-0.9 0.1 0.2 0.2 0.3 0.3 0.5 0.3 1.8 0.8 3.5 1.3 5.3 2 3.6 4.7 6.5 8.1 8.6z" opacity=".86"></path><path fill="#868600" d="m35.9 19.8v1.2c-0.4 1.8-1 3.6-1.8 5.3-0.2 0-0.2 0-0.3-0.1 0.3-0.4 0.5-0.9 0.5-1.5-0.5 0.9-1 1.8-1.6 2.7-1.2 1.4-2.4 2.8-3.6 4.1-4.7 3.6-9.9 4.7-15.6 3.1 2.5 0.5 5 0.6 7.6 0.2 6.3-1.5 10.7-5.3 13.2-11.3 0.4-1.5 0.8-3 1.3-4.6 0.1 0.3 0.2 0.6 0.3 0.9z" opacity=".839"></path><path fill="#959600" d="m23.4 19.9c0.6 0 0.9 0.4 1 1-0.1 0.2-0.1 0.5-0.1 0.8l-2.6 0.4c-0.1-0.6-0.1-1.2-0.2-1.9 0.7 0.1 1.3 0 1.9-0.3z m-9.2 1.5c0.4-0.1 0.8 0 1.2 0.1 0.1 0.6 0.1 1.1 0.1 1.6-0.8 0.1-1.7 0.2-2.5 0.2-0.2-0.5-0.3-1-0.3-1.6 0.6-0.1 1-0.2 1.5-0.3z"></path><path fill="#959500" d="m21.4 22.8c0.7 0.4 1.4 0.9 2.1 1.5 0.1 0.9-0.2 1.3-1.1 1.3-0.7-0.4-1.3-0.9-1.9-1.4 0.4-0.4 0.7-0.9 0.9-1.4z"></path><path fill="#959600" d="m15.9 23.7c0.5 0.3 1 0.7 1.5 1.1-0.5 0.6-0.9 1.2-1.3 1.8-1.1 0.3-1.5-0.1-1.4-1.2 0.4-0.5 0.8-1.1 1.2-1.7z m3 1c0.4 0 0.7 0 1 0.1 0.3 0.8 0.4 1.6 0.3 2.3-0.5 0.5-1.1 0.6-1.7 0.3 0-0.8-0.1-1.7-0.3-2.6 0.3 0.1 0.5 0 0.7-0.1z"></path><path fill="#828200" d="m7.4 32.8c-1.7-1.2-3.1-2.7-4.3-4.4 0-0.1 0-0.3 0.1-0.4 1.2 1.8 2.7 3.3 4.4 4.6-0.1 0.1-0.1 0.2-0.2 0.2z" opacity=".227"></path><path fill="#838300" d="m32.8 28.4c-1.2 1.7-2.7 3.2-4.4 4.4-0.1 0-0.3 0-0.4-0.1 1.9-1.3 3.4-2.8 4.7-4.7 0.1 0.1 0.1 0.3 0.1 0.4z" opacity=".271"></path><path fill="#686800" d="m34.1 26.3c-0.4 0.7-0.9 1.5-1.3 2.1 0-0.1 0-0.3-0.1-0.4-1.3 1.9-2.8 3.4-4.7 4.7 0.1 0.1 0.3 0.1 0.4 0.1-2.2 1.6-4.7 2.6-7.4 3.1h-0.3c-0.1-0.1-0.1-0.1-0.2-0.2l-0.6-0.1c-2.1 0.2-4.2 0.2-6.3 0-2.3-0.5-4.3-1.5-6.2-2.8 0.1 0 0.1-0.1 0.2-0.2-1.7-1.3-3.2-2.8-4.4-4.6-0.1 0.1-0.1 0.3-0.1 0.4-0.2-0.2-0.3-0.4-0.4-0.7 0.2 0.1 0.5 0.1 0.8 0.1 0.5 0.7 1 1.3 1.5 1.9 0.9 0.8 1.8 1.6 2.6 2.4 0.6 0.3 1.3 0.7 1.8 1.2 0.2 0 0.4 0.1 0.6 0 1.1 0.7 2.2 1.1 3.5 1.3 5.7 1.6 10.9 0.5 15.6-3.1 1.2-1.3 2.4-2.7 3.6-4.1 0.6-0.9 1.1-1.8 1.6-2.7 0 0.6-0.2 1.1-0.5 1.5 0.1 0.1 0.1 0.1 0.3 0.1z"></path><path fill="#7b7b00" d="m13.6 35.6c2.1 0.2 4.2 0.2 6.3 0l0.6 0.1c0.1 0.1 0.1 0.1 0.2 0.2h-5.8c-0.4-0.1-0.8-0.2-1.3-0.3z" opacity=".48"></path></svg>