<svg xmlns="http://www.w3.org/2000/svg" width="250" height="250" viewBox="0 0 250 250" version="1.1">
	<path fill-opacity="0.298" d="M 114.500 0.586 C 112.850 0.821, 107.900 1.491, 103.500 2.074 C 87.603 4.183, 66.107 13.002, 52.388 23.042 C 49.150 25.412, 42.748 30.985, 38.161 35.426 C 19.429 53.564, 7.827 74.199, 3.036 97.900 C -2.721 126.378, 0.555 155.067, 12.339 179.388 C 29.593 214.999, 63.903 241.290, 102 248.095 C 111.671 249.823, 138.329 249.823, 148 248.095 C 178.572 242.634, 207.562 224.098, 227.128 197.500 C 238.163 182.499, 247.179 158.955, 248.682 141.217 C 249.021 137.211, 249.682 133.697, 250.150 133.408 C 250.617 133.118, 251 128.832, 251 123.882 C 251 118.137, 250.638 115.105, 250 115.500 C 249.395 115.874, 249 114.479, 249 111.966 C 249 105.986, 245.451 89.443, 242.442 81.400 C 238.726 71.465, 231.975 59.145, 225.658 50.768 C 219.264 42.288, 206.019 29.195, 197.612 23.042 C 184.452 13.411, 165.307 5.285, 149.121 2.461 C 140.310 0.924, 119.896 -0.181, 114.500 0.586 M 0.360 125 C 0.360 130.225, 0.529 132.363, 0.735 129.750 C 0.941 127.138, 0.941 122.862, 0.735 120.250 C 0.529 117.638, 0.360 119.775, 0.360 125" stroke="none" fill="black" fill-rule="evenodd"/>
	<path fill-opacity="0.056" d="M 111.762 1.707 C 113.006 1.946, 114.806 1.937, 115.762 1.687 C 116.718 1.437, 115.700 1.241, 113.500 1.252 C 111.300 1.263, 110.518 1.468, 111.762 1.707 M 134.762 1.707 C 136.006 1.946, 137.806 1.937, 138.762 1.687 C 139.718 1.437, 138.700 1.241, 136.500 1.252 C 134.300 1.263, 133.518 1.468, 134.762 1.707 M 103.750 2.662 C 104.438 2.940, 105.563 2.940, 106.250 2.662 C 106.938 2.385, 106.375 2.158, 105 2.158 C 103.625 2.158, 103.063 2.385, 103.750 2.662 M 143.750 2.662 C 144.438 2.940, 145.563 2.940, 146.250 2.662 C 146.938 2.385, 146.375 2.158, 145 2.158 C 143.625 2.158, 143.063 2.385, 143.750 2.662 M 102.500 5.588 C 81.037 9.365, 64.189 17.121, 45.500 31.824 C 40.802 35.521, 39.486 36.260, 41.500 34.073 C 44.061 31.290, 55.313 22.419, 61.595 18.230 C 63.202 17.158, 63.109 17.142, 61 18.130 C 47.635 24.387, 26.936 45.453, 16.108 63.816 C -0.137 91.369, -3.946 131.744, 6.562 165 C 17.108 198.375, 47.519 229.953, 80.664 241.946 C 95.367 247.266, 107.573 249.287, 125 249.287 C 142.427 249.287, 154.633 247.266, 169.336 241.946 C 196.802 232.008, 222.533 208.810, 236.550 181.350 C 243.800 167.147, 248.989 147.538, 248.997 134.309 C 248.999 131.454, 249.450 128.840, 250 128.500 C 250.550 128.160, 251 126.082, 251 123.882 C 251 121.682, 250.613 120.121, 250.139 120.414 C 249.666 120.707, 249.039 117.246, 248.747 112.723 C 247.390 91.733, 239.720 71.128, 226.161 52.052 C 217.642 40.065, 198.468 22.562, 189 18.130 C 186.891 17.142, 186.798 17.158, 188.405 18.230 C 194.687 22.419, 205.939 31.290, 208.500 34.073 C 210.514 36.260, 209.198 35.521, 204.500 31.824 C 185.649 16.993, 168.613 9.209, 147.074 5.586 C 135.499 3.639, 113.568 3.639, 102.500 5.588 M 84 7 C 82.172 8.181, 83.751 8.181, 86.500 7 C 87.819 6.433, 87.989 6.122, 87 6.086 C 86.175 6.055, 84.825 6.467, 84 7 M 163.500 7 C 166.249 8.181, 167.828 8.181, 166 7 C 165.175 6.467, 163.825 6.055, 163 6.086 C 162.011 6.122, 162.181 6.433, 163.500 7 M 105.070 42.968 C 97.389 45.811, 92.281 49.634, 87.500 56.117 C 79.211 67.357, 78.493 74.988, 83.054 103.333 C 85.396 117.882, 85.406 118.226, 83.588 121.333 C 76.392 133.628, 74.409 141.637, 75.298 154.819 C 76.286 169.453, 80.949 179.789, 91.179 190.019 C 98.995 197.835, 110.715 203.764, 121.388 205.302 C 153.106 209.871, 182.268 186.108, 183.787 154.455 C 184.593 137.653, 179.299 124.080, 167.330 112.262 C 162.548 107.540, 160 104.244, 160 102.779 C 160 101.544, 158.844 93.326, 157.430 84.517 C 154.409 65.684, 151.707 58.841, 144.488 51.740 C 137.141 44.512, 130.422 41.703, 119.500 41.294 C 112.351 41.027, 109.383 41.371, 105.070 42.968 M 110.500 62.164 C 104.026 65.736, 100 71.839, 100 78.081 C 100 82.030, 102.849 102.129, 103.507 102.824 C 103.676 103.002, 105.318 102.369, 107.157 101.418 C 112.923 98.435, 120.172 97.024, 129.795 97.012 L 139.091 97 138.547 93.750 C 138.248 91.963, 137.358 86.307, 136.569 81.183 C 135.004 71.015, 132.568 66.537, 126.634 62.919 C 123.101 60.764, 113.824 60.331, 110.500 62.164 M 119.106 111.885 C 116.727 113.714, 116.720 113.773, 117.981 121.881 C 118.679 126.367, 119.575 130.237, 119.971 130.482 C 120.792 130.989, 130.789 129.545, 131.520 128.814 C 131.783 128.550, 131.473 124.620, 130.831 120.079 C 129.803 112.813, 129.376 111.713, 127.267 110.911 C 123.768 109.581, 121.797 109.816, 119.106 111.885 M 143.763 119.856 C 141.844 122.410, 139.463 125.773, 138.471 127.329 C 136.670 130.152, 136.673 130.164, 139.583 132.518 C 143.101 135.363, 146.862 137.492, 147.359 136.918 C 150.183 133.660, 157 123.466, 157 122.501 C 157 120.278, 153.618 117.006, 150.375 116.092 C 147.437 115.264, 147.040 115.490, 143.763 119.856 M 0.272 125 C 0.272 127.475, 0.467 128.488, 0.706 127.250 C 0.944 126.013, 0.944 123.987, 0.706 122.750 C 0.467 121.513, 0.272 122.525, 0.272 125 M 96.851 125.255 C 95.394 126.490, 93.988 128.770, 93.726 130.323 C 93.300 132.847, 93.952 133.665, 99.875 138.038 C 103.519 140.729, 107.041 142.946, 107.702 142.965 C 109.297 143.011, 115.277 134.257, 114.504 133.007 C 113.665 131.649, 101.443 122.999, 100.373 123.005 C 99.893 123.008, 98.308 124.020, 96.851 125.255 M 156 140.358 C 152.425 140.986, 149.508 141.950, 149.518 142.500 C 149.529 143.050, 149.882 145.863, 150.303 148.750 C 151.169 154.685, 150.893 154.577, 160.918 152.897 C 164.607 152.279, 168.049 151.096, 168.750 150.206 C 171.678 146.485, 168.906 138.901, 164.693 139.108 C 163.487 139.167, 159.575 139.730, 156 140.358 M 96.777 149.724 C 89.210 151.169, 89.041 151.266, 88.429 154.529 C 87.678 158.529, 90.545 164.244, 92.965 163.571 C 93.809 163.337, 96.975 162.855, 100 162.500 C 109.081 161.436, 109.274 161.315, 108.559 157.153 C 107.206 149.276, 106.799 148.004, 105.671 148.125 C 105.027 148.194, 101.025 148.914, 96.777 149.724 M 146.193 163.529 C 144.437 166.020, 143.013 168.383, 143.029 168.779 C 143.063 169.619, 153.960 177.664, 156.259 178.546 C 158.872 179.549, 163.981 176.266, 164.150 173.474 C 164.233 172.113, 164.345 170.584, 164.400 170.076 C 164.509 169.072, 151.629 159, 150.237 159 C 149.768 159, 147.948 161.038, 146.193 163.529 M 106.053 171.750 C 103.312 175.463, 101.054 179.037, 101.035 179.694 C 100.977 181.693, 105.333 185.764, 108.223 186.413 C 110.681 186.965, 111.432 186.367, 115.938 180.262 C 118.684 176.543, 120.946 173.014, 120.965 172.420 C 120.997 171.423, 112.894 165, 111.604 165 C 111.292 165, 108.793 168.037, 106.053 171.750 M 132.065 172.135 C 129.076 172.631, 126.499 173.167, 126.340 173.327 C 126.044 173.623, 127.613 184.709, 128.517 188.706 C 128.869 190.262, 130.009 191.099, 132.387 191.545 C 136.688 192.352, 142.327 189.698, 141.625 187.198 C 141.363 186.264, 140.624 182.238, 139.984 178.250 C 139.343 174.262, 138.522 171.053, 138.160 171.117 C 137.797 171.181, 135.054 171.639, 132.065 172.135" stroke="none" fill="black" fill-rule="evenodd"/>
	<path fill-opacity="0.189" d="M 110 6.150 C 68.751 10.441, 31.251 38.212, 12.488 78.364 C 10.019 83.646, 8 88.377, 8 88.877 C 8 89.377, 7.399 90.017, 6.665 90.298 C 1.471 92.292, -0.498 135.726, 3.790 153.709 C 9.400 177.230, 19.735 195.699, 36.914 212.901 C 61.720 237.740, 89.195 249, 125 249 C 160.805 249, 188.280 237.740, 213.086 212.901 C 230.265 195.699, 240.600 177.230, 246.210 153.709 C 249.259 140.923, 249.460 111.684, 246.585 99.155 C 245.532 94.566, 244.069 90.580, 243.335 90.298 C 242.601 90.017, 242 89.377, 242 88.877 C 242 86.549, 232.444 67.896, 227.432 60.441 C 206.444 29.222, 174.360 9.673, 138.144 6.039 C 126.478 4.868, 122.156 4.885, 110 6.150 M 107.169 41.501 C 96.351 44.543, 87.101 52.970, 81.757 64.651 C 78.759 71.203, 78.936 83.689, 82.305 103.306 L 84.848 118.112 81.933 122.806 C 63.428 152.610, 79.347 193.731, 113.458 204.238 C 127.602 208.594, 146.459 206.062, 158.744 198.155 C 169.125 191.475, 179.314 178.312, 182.447 167.535 C 188.238 147.614, 182.976 126.893, 168.468 112.480 L 161.401 105.461 158.550 87.480 C 156.982 77.591, 154.828 67.122, 153.764 64.215 C 151.072 56.860, 142.563 47.895, 134.509 43.930 C 126.747 40.109, 115.634 39.121, 107.169 41.501 M 114.500 61.715 C 107.561 63.389, 103.060 67.818, 101.001 74.997 C 100.237 77.660, 101.532 90.311, 103.523 99.630 L 103.978 101.760 110.739 99.219 C 116.273 97.140, 119.360 96.662, 127.745 96.589 C 136.144 96.516, 137.990 96.230, 137.992 95 C 137.995 92.441, 134.970 75.673, 133.896 72.300 C 132.598 68.220, 127.141 63.411, 122.277 62.060 C 118.314 60.959, 117.736 60.934, 114.500 61.715 M 120.244 111.998 L 117.319 113.777 118.517 121.412 C 119.175 125.612, 119.951 129.285, 120.241 129.574 C 120.530 129.863, 123.069 129.794, 125.883 129.421 C 130.829 128.765, 130.997 128.638, 130.904 125.621 C 130.851 123.905, 130.288 120.054, 129.654 117.064 C 128.676 112.455, 128.094 111.520, 125.835 110.923 C 124.022 110.444, 122.234 110.788, 120.244 111.998 M 142.586 122.432 C 140.064 125.966, 138 129.264, 138 129.760 C 138 130.255, 139.958 132.067, 142.351 133.786 L 146.702 136.910 151.351 130.447 C 153.908 126.893, 156 123.363, 156 122.603 C 156 120.425, 152.754 117.269, 149.836 116.608 C 147.452 116.068, 146.691 116.680, 142.586 122.432 M 97.216 125.750 C 96.113 126.713, 94.939 128.702, 94.606 130.170 C 94.062 132.573, 94.703 133.351, 100.992 137.925 L 107.981 143.009 110.991 138.854 C 112.646 136.569, 114 134.323, 114 133.861 C 114 132.753, 101.939 124, 100.411 124 C 99.757 124, 98.319 124.787, 97.216 125.750 M 155.135 141.213 L 149.769 142.189 150.374 145.845 C 150.706 147.855, 150.983 150.350, 150.989 151.388 C 150.999 153.113, 151.562 153.219, 157.511 152.609 C 161.092 152.242, 165.083 151.539, 166.380 151.045 C 169.374 149.907, 170.343 145.454, 168.283 142.309 C 166.606 139.750, 164.257 139.554, 155.135 141.213 M 96.748 150.253 C 90.343 151.184, 89.953 151.395, 89.143 154.367 C 88.521 156.648, 88.716 158.248, 89.860 160.250 C 91.636 163.359, 91.115 163.290, 100.500 161.666 C 108.148 160.342, 107.616 161.072, 107.179 152.500 C 106.979 148.587, 107.474 148.694, 96.748 150.253 M 146.750 163.931 C 145.238 166.070, 144.022 168.198, 144.049 168.660 C 144.076 169.122, 147.073 171.612, 150.710 174.192 C 156.999 178.655, 157.455 178.816, 160.034 177.482 C 162.448 176.234, 163.946 173.561, 163.986 170.431 C 164 169.355, 151.625 159.982, 150.242 160.021 C 149.834 160.033, 148.262 161.792, 146.750 163.931 M 106.442 172.530 C 102.097 178.619, 101.863 179.256, 102.988 181.972 C 103.822 183.985, 105.151 185.094, 107.294 185.564 C 110.636 186.299, 111.119 185.882, 118.017 176.311 L 121.037 172.122 116.588 169.061 C 114.142 167.377, 111.906 166, 111.620 166 C 111.335 166, 109.004 168.938, 106.442 172.530 M 131.500 172.727 C 129.850 172.962, 128.179 173.463, 127.786 173.841 C 127.394 174.218, 127.619 178.089, 128.286 182.443 C 129.436 189.941, 129.654 190.400, 132.417 191.137 C 136.352 192.188, 141.306 189.387, 140.609 186.506 C 140.341 185.403, 139.812 181.688, 139.432 178.250 C 138.682 171.459, 138.974 171.663, 131.500 172.727" stroke="none" fill="black" fill-rule="evenodd"/>
	<path fill-opacity="0.227" d="M 8 165.477 C 8 165.740, 9.143 168.991, 10.540 172.703 C 16.171 187.662, 25.960 201.911, 39.619 215.030 C 55.935 230.700, 74.123 240.723, 95.500 245.824 C 105.315 248.167, 108.492 248.449, 125 248.449 C 141.508 248.449, 144.685 248.167, 154.500 245.824 C 187.194 238.022, 216.750 215.568, 233.276 185.976 C 237.026 179.260, 242.395 166.062, 241.671 165.338 C 241.447 165.113, 239.178 169.039, 236.630 174.061 C 229.358 188.396, 223.376 196.632, 211.510 208.650 C 190.056 230.376, 167.559 241.175, 137.547 244.152 C 127.538 245.145, 122.462 245.145, 112.453 244.152 C 82.441 241.175, 59.944 230.376, 38.490 208.650 C 26.631 196.640, 20.642 188.395, 13.387 174.096 C 9.262 165.965, 8 163.946, 8 165.477" stroke="none" fill="black" fill-rule="evenodd"/>
</svg>