<?xml version="1.0" encoding="UTF-8"?>
<!DOCTYPE svg PUBLIC "-//W3C//DTD SVG 1.1//EN" "http://www.w3.org/Graphics/SVG/1.1/DTD/svg11.dtd">
<svg xmlns="http://www.w3.org/2000/svg" version="1.1" width="256px" height="256px" style="shape-rendering:geometricPrecision; text-rendering:geometricPrecision; image-rendering:optimizeQuality; fill-rule:evenodd; clip-rule:evenodd" xmlns:xlink="http://www.w3.org/1999/xlink">
<g><path style="opacity:0.709" fill="#38d8a8" d="M 111.5,-0.5 C 122.167,-0.5 132.833,-0.5 143.5,-0.5C 205.86,11.8604 243.194,49.1937 255.5,111.5C 255.5,122.167 255.5,132.833 255.5,143.5C 243.194,205.806 205.86,243.14 143.5,255.5C 132.833,255.5 122.167,255.5 111.5,255.5C 49.1435,243.144 11.8102,205.81 -0.5,143.5C -0.5,132.833 -0.5,122.167 -0.5,111.5C 11.8102,49.1898 49.1435,11.8565 111.5,-0.5 Z"/></g>
<g><path style="opacity:0.957" fill="#acf4d8" d="M 137.5,11.5 C 127.801,11.2747 118.134,11.608 108.5,12.5C 109.263,11.7321 110.263,11.2321 111.5,11C 120.343,10.1764 129.01,10.3431 137.5,11.5 Z"/></g>
<g><path style="opacity:1" fill="#d8feea" d="M 137.5,11.5 C 188.377,17.8711 222.544,45.2045 240,93.5C 241.516,100.831 242.683,108.164 243.5,115.5C 242.957,121.491 242.124,127.491 241,133.5C 240.957,130.783 239.957,130.116 238,131.5C 234.585,130.14 231.252,129.14 228,128.5C 226.149,130.781 224.482,130.781 223,128.5C 222.667,124.833 222.333,121.167 222,117.5C 221.826,122.684 221.326,127.684 220.5,132.5C 220.5,128.167 220.5,123.833 220.5,119.5C 220.875,113.468 219.875,107.802 217.5,102.5C 206.653,66.6513 182.986,44.6513 146.5,36.5C 104.054,29.3051 70.8874,43.6385 47,79.5C 40.9228,89.9143 36.7561,100.914 34.5,112.5C 32.8429,116.644 32.0096,121.644 32,127.5C 31.3333,124.833 30.6667,124.833 30,127.5C 29.3333,126.833 28.6667,126.167 28,125.5C 27.0094,126.939 25.676,127.939 24,128.5C 23.6667,129.5 23.3333,130.5 23,131.5C 20.5652,128.772 18.5652,129.106 17,132.5C 15.3542,130.945 15.0209,129.279 16,127.5C 14.8525,126.542 13.8525,126.875 13,128.5C 12.8247,123.981 12.3247,119.647 11.5,115.5C 18.3026,66.8604 44.6359,33.6938 90.5,16C 94.0189,15.6047 97.3522,14.6047 100.5,13C 103.146,12.5026 105.813,12.3359 108.5,12.5C 118.134,11.608 127.801,11.2747 137.5,11.5 Z"/></g>
<g><path style="opacity:1" fill="#32ce91" d="M 146.5,36.5 C 182.986,44.6513 206.653,66.6513 217.5,102.5C 218.488,107.789 219.155,113.122 219.5,118.5C 215.392,101.947 207.392,87.6133 195.5,75.5C 183.038,61.0969 167.371,52.0969 148.5,48.5C 145.167,47.5 141.833,46.5 138.5,45.5C 139.683,44.4955 141.016,43.6622 142.5,43C 142.167,42 141.833,41 141.5,40C 144.167,39.3333 144.167,38.6667 141.5,38C 143.025,36.9914 144.692,36.4914 146.5,36.5 Z"/></g>
<g><path style="opacity:1" fill="#47dd9e" d="M 125.5,45.5 C 129.833,45.5 134.167,45.5 138.5,45.5C 141.833,46.5 145.167,47.5 148.5,48.5C 147.766,49.7079 147.433,51.0413 147.5,52.5C 150.598,52.4125 150.932,52.9125 148.5,54C 149.167,54.3333 149.833,54.6667 150.5,55C 148.915,55.0848 147.582,55.2514 146.5,55.5C 147.034,57.6145 148.034,59.4478 149.5,61C 148.833,61.3333 148.167,61.6667 147.5,62C 148.357,62.6891 149.023,63.5224 149.5,64.5C 148.359,65.4255 148.359,66.2588 149.5,67C 147.158,68.3919 147.158,69.2252 149.5,69.5C 145.853,70.9832 143.353,73.6499 142,77.5C 140.75,82.4195 140.25,87.4195 140.5,92.5C 137.833,92.5 135.167,92.5 132.5,92.5C 135.323,80.6491 130.656,73.9824 118.5,72.5C 116.369,71.6862 114.036,71.1862 111.5,71C 114.167,70.528 116.5,69.528 118.5,68C 115.046,67.7071 114.712,66.3738 117.5,64C 116.833,63.3333 116.167,62.6667 115.5,62C 116.641,61.2588 116.641,60.4255 115.5,59.5C 116.529,59.7036 117.529,59.2036 118.5,58C 116.892,57.5313 115.225,56.8646 113.5,56C 116.364,53.9888 116.698,51.8221 114.5,49.5C 114.977,48.5224 115.643,47.6891 116.5,47C 119.695,46.8195 122.695,46.3195 125.5,45.5 Z"/></g>
<g><path style="opacity:1" fill="#42dca1" d="M 125.5,45.5 C 122.695,46.3195 119.695,46.8195 116.5,47C 115.643,47.6891 114.977,48.5224 114.5,49.5C 116.698,51.8221 116.364,53.9888 113.5,56C 115.225,56.8646 116.892,57.5313 118.5,58C 117.529,59.2036 116.529,59.7036 115.5,59.5C 116.641,60.4255 116.641,61.2588 115.5,62C 116.167,62.6667 116.833,63.3333 117.5,64C 114.712,66.3738 115.046,67.7071 118.5,68C 116.5,69.528 114.167,70.528 111.5,71C 114.036,71.1862 116.369,71.6862 118.5,72.5C 109.5,72.5 100.5,72.5 91.5,72.5C 86.4327,71.1757 81.266,71.1757 76,72.5C 75.8333,72.1667 75.6667,71.8333 75.5,71.5C 76.9814,70.5197 78.3147,69.353 79.5,68C 75.8564,66.1697 76.1898,64.5031 80.5,63C 78.0885,61.4108 75.9218,61.9108 74,64.5C 73.6012,64.2716 73.4346,63.9382 73.5,63.5C 88.7076,51.7625 106.041,45.7625 125.5,45.5 Z"/></g>
<g><path style="opacity:1" fill="#29cb96" d="M 146.5,36.5 C 144.692,36.4914 143.025,36.9914 141.5,38C 144.167,38.6667 144.167,39.3333 141.5,40C 141.833,41 142.167,42 142.5,43C 141.016,43.6622 139.683,44.4955 138.5,45.5C 134.167,45.5 129.833,45.5 125.5,45.5C 106.041,45.7625 88.7076,51.7625 73.5,63.5C 63.187,70.3137 54.687,78.9804 48,89.5C 39.9521,102.473 35.4521,116.473 34.5,131.5C 34.5,126.5 34.5,121.5 34.5,116.5C 34.5,115.167 34.5,113.833 34.5,112.5C 36.7561,100.914 40.9228,89.9143 47,79.5C 70.8874,43.6385 104.054,29.3051 146.5,36.5 Z"/></g>
<g><path style="opacity:1" fill="#3cd9a5" d="M 91.5,72.5 C 85.1021,72.2427 78.7688,72.7427 72.5,74C 62.3884,82.3934 62.2217,90.8934 72,99.5C 72.6667,116.5 72.6667,133.5 72,150.5C 63.3438,157.761 62.5105,165.761 69.5,174.5C 73.426,177.037 77.7593,178.037 82.5,177.5C 80.3926,178.468 78.0593,178.802 75.5,178.5C 76.6886,179.795 77.5219,181.795 78,184.5C 78.2492,183.376 78.7492,182.376 79.5,181.5C 79.8333,182 80.1667,182.5 80.5,183C 80.8503,185.944 79.517,188.277 76.5,190C 77.1667,190.667 77.8333,191.333 78.5,192C 77.1271,195.097 78.1271,197.263 81.5,198.5C 81.0623,199.506 80.3957,199.506 79.5,198.5C 76.6956,201.064 77.0289,202.897 80.5,204C 79.6634,205.011 79.33,206.178 79.5,207.5C 57.5931,193.907 43.2598,174.574 36.5,149.5C 35.9084,146.873 35.5751,144.206 35.5,141.5C 35.1667,138.167 34.8333,134.833 34.5,131.5C 35.4521,116.473 39.9521,102.473 48,89.5C 54.687,78.9804 63.187,70.3137 73.5,63.5C 73.4346,63.9382 73.6012,64.2716 74,64.5C 75.9218,61.9108 78.0885,61.4108 80.5,63C 76.1898,64.5031 75.8564,66.1697 79.5,68C 78.3147,69.353 76.9814,70.5197 75.5,71.5C 75.6667,71.8333 75.8333,72.1667 76,72.5C 81.266,71.1757 86.4327,71.1757 91.5,72.5 Z"/></g>
<g><path style="opacity:1" fill="#4ee09b" d="M 148.5,48.5 C 167.371,52.0969 183.038,61.0969 195.5,75.5C 194.087,79.2249 194.421,82.8915 196.5,86.5C 196.333,87.1667 196.167,87.8333 196,88.5C 194.334,87.6598 194.167,88.1598 195.5,90C 194.833,90.3333 194.167,90.6667 193.5,91C 194.545,92.6158 195.545,94.2825 196.5,96C 194.085,98.9094 194.751,101.243 198.5,103C 197.328,103.353 196.162,103.187 195,102.5C 193.699,103.098 192.865,104.098 192.5,105.5C 194.441,107.316 195.108,109.316 194.5,111.5C 197.629,112.389 199.962,114.222 201.5,117C 200.299,117.903 199.465,119.069 199,120.5C 198.667,120.167 198.333,119.833 198,119.5C 196.638,120.925 195.138,121.758 193.5,122C 194.079,125.139 195.079,128.139 196.5,131C 193.833,131.667 193.833,132.333 196.5,133C 191.901,135.341 191.901,138.008 196.5,141C 194.598,143.65 195.264,145.984 198.5,148C 196.347,149.628 194.013,150.961 191.5,152C 193.061,152.941 194.395,154.108 195.5,155.5C 194.624,156.251 193.624,156.751 192.5,157C 194.569,157.324 194.902,158.158 193.5,159.5C 195.991,160.541 195.991,161.374 193.5,162C 193.959,164.866 195.292,167.199 197.5,169C 197.333,169.5 197.167,170 197,170.5C 196.333,169.167 195.333,168.167 194,167.5C 193.493,168.996 193.993,170.163 195.5,171C 194.809,172.067 194.309,173.234 194,174.5C 193.201,170.576 192.701,170.576 192.5,174.5C 192.667,175.5 192.833,176.5 193,177.5C 193.914,176.346 194.747,176.513 195.5,178C 195.167,178.333 194.833,178.667 194.5,179C 196.246,179.471 197.913,180.138 199.5,181C 197.071,181.451 196.904,182.285 199,183.5C 200.011,182.663 201.178,182.33 202.5,182.5C 191.308,198.012 176.641,209.012 158.5,215.5C 157.07,215.579 155.736,215.246 154.5,214.5C 151.844,216.681 149.177,216.848 146.5,215C 148.125,214.147 148.458,213.147 147.5,212C 151.272,210.611 151.272,209.611 147.5,209C 148.022,206.814 148.022,204.481 147.5,202C 148.5,201.667 149.5,201.333 150.5,201C 149.09,200.632 148.09,199.799 147.5,198.5C 149.203,198.851 150.87,198.184 152.5,196.5C 151.726,195.289 150.893,195.289 150,196.5C 149.5,195.333 148.667,194.5 147.5,194C 148.5,193.667 149.5,193.333 150.5,193C 149.862,191.293 149.862,189.46 150.5,187.5C 160.172,187.666 169.839,187.5 179.5,187C 189.678,182.815 192.511,175.649 188,165.5C 183.03,160.208 176.864,158.208 169.5,159.5C 169.5,150.167 169.5,140.833 169.5,131.5C 185.213,131.636 190.713,124.303 186,109.5C 181.592,104.64 176.092,102.64 169.5,103.5C 169.666,95.16 169.5,86.8267 169,78.5C 165.049,70.0496 158.549,67.0496 149.5,69.5C 147.158,69.2252 147.158,68.3919 149.5,67C 148.359,66.2588 148.359,65.4255 149.5,64.5C 149.023,63.5224 148.357,62.6891 147.5,62C 148.167,61.6667 148.833,61.3333 149.5,61C 148.034,59.4478 147.034,57.6145 146.5,55.5C 147.582,55.2514 148.915,55.0848 150.5,55C 149.833,54.6667 149.167,54.3333 148.5,54C 150.932,52.9125 150.598,52.4125 147.5,52.5C 147.433,51.0413 147.766,49.7079 148.5,48.5 Z"/></g>
<g><path style="opacity:1" fill="#2ece99" d="M 150.5,187.5 C 140.584,187.819 130.75,187.486 121,186.5C 119.14,189.204 116.64,190.871 113.5,191.5C 102.402,192.742 96.4021,187.742 95.5,176.5C 91.1186,176.372 86.7853,176.705 82.5,177.5C 77.7593,178.037 73.426,177.037 69.5,174.5C 62.5105,165.761 63.3438,157.761 72,150.5C 72.6667,133.5 72.6667,116.5 72,99.5C 62.2217,90.8934 62.3884,82.3934 72.5,74C 78.7688,72.7427 85.1021,72.2427 91.5,72.5C 100.5,72.5 109.5,72.5 118.5,72.5C 130.656,73.9824 135.323,80.6491 132.5,92.5C 135.167,92.5 137.833,92.5 140.5,92.5C 140.25,87.4195 140.75,82.4195 142,77.5C 143.353,73.6499 145.853,70.9832 149.5,69.5C 158.549,67.0496 165.049,70.0496 169,78.5C 169.5,86.8267 169.666,95.16 169.5,103.5C 176.092,102.64 181.592,104.64 186,109.5C 190.713,124.303 185.213,131.636 169.5,131.5C 169.5,140.833 169.5,150.167 169.5,159.5C 176.864,158.208 183.03,160.208 188,165.5C 192.511,175.649 189.678,182.815 179.5,187C 169.839,187.5 160.172,187.666 150.5,187.5 Z"/></g>
<g><path style="opacity:1" fill="#fbf2d6" d="M 162.5,124.5 C 161.504,138.657 161.171,152.99 161.5,167.5C 167.167,167.5 172.833,167.5 178.5,167.5C 183.444,170.768 183.777,174.601 179.5,179C 160.167,179.667 140.833,179.667 121.5,179C 117.166,174.187 117.832,170.354 123.5,167.5C 125.167,167.5 126.833,167.5 128.5,167.5C 128.5,146.5 128.5,125.5 128.5,104.5C 131.889,98.1687 136.055,97.8354 141,103.5C 141.5,124.497 141.667,145.497 141.5,166.5C 143.607,167.468 145.941,167.802 148.5,167.5C 148.5,138.5 148.5,109.5 148.5,80.5C 151.267,76.2556 154.934,75.4223 159.5,78C 160.701,78.9025 161.535,80.0692 162,81.5C 162.5,91.1609 162.666,100.828 162.5,110.5C 167.179,110.334 171.845,110.501 176.5,111C 180.292,113.053 181.458,116.219 180,120.5C 179.5,121.667 178.667,122.5 177.5,123C 172.316,123.174 167.316,123.674 162.5,124.5 Z"/></g>
<g><path style="opacity:1" fill="#fdf2d6" d="M 117.5,93.5 C 116.503,112.659 116.17,131.993 116.5,151.5C 118.5,151.5 120.5,151.5 122.5,151.5C 124.71,151.894 126.043,153.227 126.5,155.5C 126.5,157.167 126.5,158.833 126.5,160.5C 124.109,163.917 120.775,165.25 116.5,164.5C 116.666,169.844 116.499,175.177 116,180.5C 112.992,184.902 109.325,185.569 105,182.5C 103.612,177.628 103.112,172.628 103.5,167.5C 95.3759,167.565 87.3759,168.565 79.5,170.5C 73.6284,169.786 71.4618,166.452 73,160.5C 74.8357,158.292 77.169,156.958 80,156.5C 80.5,135.503 80.6666,114.503 80.5,93.5C 74.3802,92.9386 71.8802,89.6053 73,83.5C 73.8333,82.6667 74.6667,81.8333 75.5,81C 83.3333,80.8333 91.1667,80.6667 99,80.5C 107.597,80.3615 116.097,80.8615 124.5,82C 127.558,89.3085 125.225,93.1419 117.5,93.5 Z"/></g>
<g><path style="opacity:1" fill="#55d3a2" d="M 148.5,80.5 C 148.5,109.5 148.5,138.5 148.5,167.5C 145.941,167.802 143.607,167.468 141.5,166.5C 143.5,166.5 145.5,166.5 147.5,166.5C 147.169,137.662 147.502,108.995 148.5,80.5 Z"/></g>
<g><path style="opacity:1" fill="#52e199" d="M 195.5,75.5 C 207.392,87.6133 215.392,101.947 219.5,118.5C 219.5,119.167 219.833,119.5 220.5,119.5C 220.5,123.833 220.5,128.167 220.5,132.5C 220.533,136.869 220.2,141.202 219.5,145.5C 216.707,159.239 211.04,171.572 202.5,182.5C 201.178,182.33 200.011,182.663 199,183.5C 196.904,182.285 197.071,181.451 199.5,181C 197.913,180.138 196.246,179.471 194.5,179C 194.833,178.667 195.167,178.333 195.5,178C 194.747,176.513 193.914,176.346 193,177.5C 192.833,176.5 192.667,175.5 192.5,174.5C 192.701,170.576 193.201,170.576 194,174.5C 194.309,173.234 194.809,172.067 195.5,171C 193.993,170.163 193.493,168.996 194,167.5C 195.333,168.167 196.333,169.167 197,170.5C 197.167,170 197.333,169.5 197.5,169C 195.292,167.199 193.959,164.866 193.5,162C 195.991,161.374 195.991,160.541 193.5,159.5C 194.902,158.158 194.569,157.324 192.5,157C 193.624,156.751 194.624,156.251 195.5,155.5C 194.395,154.108 193.061,152.941 191.5,152C 194.013,150.961 196.347,149.628 198.5,148C 195.264,145.984 194.598,143.65 196.5,141C 191.901,138.008 191.901,135.341 196.5,133C 193.833,132.333 193.833,131.667 196.5,131C 195.079,128.139 194.079,125.139 193.5,122C 195.138,121.758 196.638,120.925 198,119.5C 198.333,119.833 198.667,120.167 199,120.5C 199.465,119.069 200.299,117.903 201.5,117C 199.962,114.222 197.629,112.389 194.5,111.5C 195.108,109.316 194.441,107.316 192.5,105.5C 192.865,104.098 193.699,103.098 195,102.5C 196.162,103.187 197.328,103.353 198.5,103C 194.751,101.243 194.085,98.9094 196.5,96C 195.545,94.2825 194.545,92.6158 193.5,91C 194.167,90.6667 194.833,90.3333 195.5,90C 194.167,88.1598 194.334,87.6598 196,88.5C 196.167,87.8333 196.333,87.1667 196.5,86.5C 194.421,82.8915 194.087,79.2249 195.5,75.5 Z"/></g>
<g><path style="opacity:1" fill="#72d8aa" d="M 117.5,93.5 C 117.5,112.5 117.5,131.5 117.5,150.5C 119.415,150.216 121.081,150.549 122.5,151.5C 120.5,151.5 118.5,151.5 116.5,151.5C 116.17,131.993 116.503,112.659 117.5,93.5 Z"/></g>
<g><path style="opacity:1" fill="#2ccd99" d="M 93.5,93.5 C 96.8333,93.5 100.167,93.5 103.5,93.5C 103.5,97.1667 103.5,100.833 103.5,104.5C 100.167,104.5 96.8333,104.5 93.5,104.5C 93.5,100.833 93.5,97.1667 93.5,93.5 Z"/></g>
<g><path style="opacity:1" fill="#70deb2" d="M 217.5,102.5 C 219.875,107.802 220.875,113.468 220.5,119.5C 219.833,119.5 219.5,119.167 219.5,118.5C 219.155,113.122 218.488,107.789 217.5,102.5 Z"/></g>
<g><path style="opacity:1" fill="#7adaae" d="M 128.5,104.5 C 128.5,125.5 128.5,146.5 128.5,167.5C 126.833,167.5 125.167,167.5 123.5,167.5C 124.568,166.566 125.901,166.232 127.5,166.5C 127.795,164.265 127.461,162.265 126.5,160.5C 126.5,158.833 126.5,157.167 126.5,155.5C 127.167,138.5 127.833,121.5 128.5,104.5 Z"/></g>
<g><path style="opacity:1" fill="#d4fdf0" d="M 34.5,112.5 C 34.5,113.833 34.5,115.167 34.5,116.5C 33.8348,119.817 33.5014,123.317 33.5,127C 33.2933,132.102 33.96,136.935 35.5,141.5C 35.5751,144.206 35.9084,146.873 36.5,149.5C 35.8287,154.076 36.3287,158.743 38,163.5C 57.9936,213.804 94.8269,234.97 148.5,227C 189.133,215.535 213.133,189.035 220.5,147.5C 220.457,146.584 220.124,145.917 219.5,145.5C 220.2,141.202 220.533,136.869 220.5,132.5C 221.326,127.684 221.826,122.684 222,117.5C 222.333,121.167 222.667,124.833 223,128.5C 224.482,130.781 226.149,130.781 228,128.5C 231.252,129.14 234.585,130.14 238,131.5C 239.957,130.116 240.957,130.783 241,133.5C 242.124,127.491 242.957,121.491 243.5,115.5C 246.462,169.418 224.129,208.918 176.5,234C 125.107,254.634 79.9401,245.467 41,206.5C 17.8628,180.586 8.02944,150.253 11.5,115.5C 12.3247,119.647 12.8247,123.981 13,128.5C 13.8525,126.875 14.8525,126.542 16,127.5C 15.0209,129.279 15.3542,130.945 17,132.5C 18.5652,129.106 20.5652,128.772 23,131.5C 23.3333,130.5 23.6667,129.5 24,128.5C 25.676,127.939 27.0094,126.939 28,125.5C 28.6667,126.167 29.3333,126.833 30,127.5C 30.6667,124.833 31.3333,124.833 32,127.5C 32.0096,121.644 32.8429,116.644 34.5,112.5 Z"/></g>
<g><path style="opacity:1" fill="#2acd98" d="M 93.5,143.5 C 96.8333,143.5 100.167,143.5 103.5,143.5C 103.5,146.833 103.5,150.167 103.5,153.5C 100.119,153.46 96.7861,153.793 93.5,154.5C 93.5,150.833 93.5,147.167 93.5,143.5 Z"/></g>
<g><path style="opacity:1" fill="#91eac7" d="M 34.5,116.5 C 34.5,121.5 34.5,126.5 34.5,131.5C 34.8333,134.833 35.1667,138.167 35.5,141.5C 33.96,136.935 33.2933,132.102 33.5,127C 33.5014,123.317 33.8348,119.817 34.5,116.5 Z"/></g>
<g><path style="opacity:1" fill="#a6e1b9" d="M 162.5,124.5 C 162.5,138.5 162.5,152.5 162.5,166.5C 168.026,166.179 173.36,166.512 178.5,167.5C 172.833,167.5 167.167,167.5 161.5,167.5C 161.171,152.99 161.504,138.657 162.5,124.5 Z"/></g>
<g><path style="opacity:1" fill="#76d9ac" d="M 93.5,118.5 C 96.6248,117.521 99.9581,117.187 103.5,117.5C 103.5,121.833 103.5,126.167 103.5,130.5C 99.9581,130.813 96.6248,130.479 93.5,129.5C 96.5,129.5 99.5,129.5 102.5,129.5C 102.5,125.833 102.5,122.167 102.5,118.5C 99.5,118.5 96.5,118.5 93.5,118.5 Z"/></g>
<g><path style="opacity:1" fill="#22cc97" d="M 93.5,118.5 C 96.5,118.5 99.5,118.5 102.5,118.5C 102.5,122.167 102.5,125.833 102.5,129.5C 99.5,129.5 96.5,129.5 93.5,129.5C 93.5,125.833 93.5,122.167 93.5,118.5 Z"/></g>
<g><path style="opacity:1" fill="#ebfef4" d="M 219.5,145.5 C 220.124,145.917 220.457,146.584 220.5,147.5C 213.133,189.035 189.133,215.535 148.5,227C 94.8269,234.97 57.9936,213.804 38,163.5C 36.3287,158.743 35.8287,154.076 36.5,149.5C 43.2598,174.574 57.5931,193.907 79.5,207.5C 84.746,210.955 90.4126,213.622 96.5,215.5C 100.502,217.61 104.835,218.943 109.5,219.5C 109.833,219.5 110.167,219.5 110.5,219.5C 115.423,220.954 120.589,221.621 126,221.5C 129.352,221.498 132.518,221.165 135.5,220.5C 143.523,219.964 151.19,218.297 158.5,215.5C 176.641,209.012 191.308,198.012 202.5,182.5C 211.04,171.572 216.707,159.239 219.5,145.5 Z"/></g>
<g><path style="opacity:1" fill="#42dca2" d="M 113.5,191.5 C 113.389,193.648 114.056,193.981 115.5,192.5C 116.981,193.48 118.315,194.647 119.5,196C 116.911,197.657 114.244,197.991 111.5,197C 113.164,199.982 114.831,202.982 116.5,206C 116.047,208.481 115.047,209.814 113.5,210C 115.198,210.697 116.198,212.031 116.5,214C 114.393,215.264 113.393,217.097 113.5,219.5C 112.5,219.5 111.5,219.5 110.5,219.5C 110.167,219.5 109.833,219.5 109.5,219.5C 105.498,217.39 101.165,216.057 96.5,215.5C 90.4126,213.622 84.746,210.955 79.5,207.5C 79.33,206.178 79.6634,205.011 80.5,204C 77.0289,202.897 76.6956,201.064 79.5,198.5C 80.3957,199.506 81.0623,199.506 81.5,198.5C 78.1271,197.263 77.1271,195.097 78.5,192C 77.8333,191.333 77.1667,190.667 76.5,190C 79.517,188.277 80.8503,185.944 80.5,183C 80.1667,182.5 79.8333,182 79.5,181.5C 78.7492,182.376 78.2492,183.376 78,184.5C 77.5219,181.795 76.6886,179.795 75.5,178.5C 78.0593,178.802 80.3926,178.468 82.5,177.5C 86.7853,176.705 91.1186,176.372 95.5,176.5C 96.4021,187.742 102.402,192.742 113.5,191.5 Z"/></g>
<g><path style="opacity:1" fill="#47dd9f" d="M 150.5,187.5 C 149.862,189.46 149.862,191.293 150.5,193C 149.5,193.333 148.5,193.667 147.5,194C 148.667,194.5 149.5,195.333 150,196.5C 150.893,195.289 151.726,195.289 152.5,196.5C 150.87,198.184 149.203,198.851 147.5,198.5C 148.09,199.799 149.09,200.632 150.5,201C 149.5,201.333 148.5,201.667 147.5,202C 148.022,204.481 148.022,206.814 147.5,209C 151.272,209.611 151.272,210.611 147.5,212C 148.458,213.147 148.125,214.147 146.5,215C 149.177,216.848 151.844,216.681 154.5,214.5C 155.736,215.246 157.07,215.579 158.5,215.5C 151.19,218.297 143.523,219.964 135.5,220.5C 128.138,220.635 120.804,220.302 113.5,219.5C 113.393,217.097 114.393,215.264 116.5,214C 116.198,212.031 115.198,210.697 113.5,210C 115.047,209.814 116.047,208.481 116.5,206C 114.831,202.982 113.164,199.982 111.5,197C 114.244,197.991 116.911,197.657 119.5,196C 118.315,194.647 116.981,193.48 115.5,192.5C 114.056,193.981 113.389,193.648 113.5,191.5C 116.64,190.871 119.14,189.204 121,186.5C 130.75,187.486 140.584,187.819 150.5,187.5 Z"/></g>
<g><path style="opacity:1" fill="#7be5bb" d="M 96.5,215.5 C 101.165,216.057 105.498,217.39 109.5,219.5C 104.835,218.943 100.502,217.61 96.5,215.5 Z"/></g>
<g><path style="opacity:1" fill="#a6f0d0" d="M 110.5,219.5 C 111.5,219.5 112.5,219.5 113.5,219.5C 120.804,220.302 128.138,220.635 135.5,220.5C 132.518,221.165 129.352,221.498 126,221.5C 120.589,221.621 115.423,220.954 110.5,219.5 Z"/></g>
</svg>
