<svg xmlns="http://www.w3.org/2000/svg" width="250" height="250" viewBox="0 0 250 250" version="1.1">
	<path fill-opacity="0.224" d="M 86.957 22.352 C 77.563 25.669, 68.495 30.740, 64.099 35.136 C 58.432 40.803, 56.580 47.663, 57.282 60.392 C 57.773 69.321, 57.678 70.208, 56.466 68 C 54.466 64.358, 52.733 55.349, 52.775 48.818 C 52.819 41.952, 51.613 41.959, 46.722 48.853 C 34.849 65.591, 36.083 80.016, 50.732 95.750 C 53.421 98.637, 55.470 101, 55.286 101 C 53.581 101, 41.157 91.850, 38.014 88.278 L 34 83.718 34.024 91.109 C 34.057 101.092, 35.440 106.513, 39.537 112.721 C 43.735 119.083, 46.113 120.708, 56.451 124.282 L 64.500 127.064 57 126.832 C 51.015 126.647, 49.564 126.882, 49.815 127.996 C 50.493 130.996, 59.527 137.733, 69.831 142.922 C 77.895 146.983, 93.175 153.159, 93.746 152.588 C 93.985 152.348, 92.270 150.079, 89.934 147.545 L 85.687 142.937 90.539 145.017 C 93.208 146.161, 98.903 149.186, 103.196 151.739 C 110.484 156.075, 111 156.605, 111 159.768 C 111 162.095, 109.251 166.084, 105.406 172.528 C 99.953 181.665, 99.843 181.997, 101.027 185.701 C 102.826 191.329, 103.403 191.468, 106.486 187.020 C 108.032 184.789, 109.433 183.099, 109.599 183.265 C 109.765 183.431, 108.355 187.377, 106.467 192.033 C 104.579 196.690, 103.026 201.065, 103.017 201.756 C 103.008 202.446, 105.813 207.480, 109.250 212.942 C 115.462 222.812, 115.504 222.854, 116.203 219.687 C 116.590 217.934, 117.215 212, 117.593 206.500 C 118.497 193.333, 119.489 190.695, 120.396 199.046 C 120.782 202.595, 121.786 210.225, 122.628 216 C 123.470 221.775, 124.219 227.282, 124.291 228.238 C 124.679 233.333, 126.045 226.633, 127.602 212 C 128.568 202.925, 129.663 195.137, 130.036 194.693 C 130.409 194.249, 130.993 197.174, 131.334 201.193 C 131.675 205.212, 132.252 211.987, 132.615 216.250 C 132.979 220.512, 133.551 223.990, 133.888 223.978 C 134.225 223.965, 137.529 219.258, 141.232 213.516 L 147.964 203.077 144.482 193.953 C 142.567 188.934, 141 184.553, 141 184.217 C 141 183.881, 142.438 185.561, 144.195 187.951 L 147.390 192.296 148.619 188.898 C 150.614 183.383, 150.254 181.897, 144.904 173.547 C 139.556 165.200, 137.931 159.993, 139.925 157.590 C 141.560 155.621, 153.463 148.552, 159.388 146.032 L 164.275 143.953 160.638 147.979 C 158.637 150.194, 157 152.411, 157 152.907 C 157 155.545, 186.636 141.283, 195.250 134.499 C 203.409 128.074, 203.007 126.949, 192.750 127.504 L 184.500 127.950 189.333 126.557 C 203.199 122.562, 208.412 118.884, 213.190 109.722 C 214.962 106.324, 215.455 103.450, 215.716 95 C 216.033 84.720, 216.003 84.552, 214.270 87 C 211.558 90.831, 207.668 94.126, 200.844 98.372 L 194.621 102.244 200.753 95.449 C 208.181 87.219, 211.508 79.457, 211.483 70.414 C 211.470 65.443, 210.796 62.972, 207.801 56.914 C 205.785 52.836, 202.755 48.178, 201.068 46.563 L 198 43.626 197.983 48.563 C 197.961 54.664, 195.550 66.375, 193.800 68.878 C 192.706 70.444, 192.555 69.063, 192.847 60.164 C 193.370 44.234, 191.006 38.691, 180.648 31.558 C 175.055 27.705, 163.629 22.680, 157.949 21.575 L 154.500 20.904 157 22.972 C 168.013 32.082, 175.079 41.948, 176.969 50.853 C 178.572 58.406, 177.581 70.446, 174.953 75.348 C 173.079 78.846, 173.081 78.929, 175.206 83.691 C 176.622 86.863, 177.504 91.285, 177.798 96.683 C 178.332 106.489, 176.487 111.279, 169.767 117.530 L 165.500 121.500 169.140 117.500 C 175.288 110.744, 176.440 107.595, 176.458 97.500 C 176.466 92.550, 175.983 87.662, 175.384 86.637 C 174.434 85.013, 174.150 85.346, 173.170 89.239 C 170.907 98.226, 161.405 109.682, 151.231 115.691 C 147.738 117.754, 146.354 119.530, 143.611 125.467 C 141.767 129.457, 139.792 133.010, 139.223 133.362 C 138.554 133.776, 137.940 130.704, 137.488 124.684 C 136.833 115.944, 136.947 115.060, 139.332 110.433 C 140.731 107.720, 142.182 103.700, 142.557 101.500 L 143.239 97.500 138.869 101.698 C 135.742 104.703, 133.121 106.202, 129.648 106.975 C 120.931 108.914, 115.526 113.101, 112.553 120.218 C 110.306 125.597, 110.623 126.223, 113.923 122.923 C 116.797 120.049, 119 119.158, 119 120.869 C 119 121.822, 111.111 132, 110.372 132 C 109.766 132, 104.002 119.785, 104.001 118.498 C 104 117.947, 101.867 116.372, 99.260 114.998 C 89.696 109.957, 78.776 96.427, 77.067 87.500 L 76.301 83.500 75.021 86.500 C 74.316 88.150, 73.739 92.906, 73.737 97.068 C 73.733 105.626, 75.107 109.362, 80.753 116.145 C 84.378 120.500, 84.378 120.500, 81.100 117.500 C 79.297 115.850, 76.624 112.475, 75.161 110 C 72.824 106.049, 72.506 104.464, 72.553 97 C 72.595 90.326, 73.113 87.353, 74.965 83.159 C 77.222 78.049, 77.252 77.696, 75.643 74.972 C 73.230 70.888, 71.951 58.994, 73.134 51.647 C 73.673 48.299, 75.249 43.475, 76.636 40.927 C 79.333 35.972, 88.565 25.722, 93.500 22.203 C 97.424 19.404, 95.160 19.456, 86.957 22.352" stroke="none" fill="black" fill-rule="evenodd"/>
	<path fill-opacity="0.373" d="M 87.418 22.465 C 73.079 27.351, 63.074 34.318, 59.815 41.685 C 57.428 47.081, 56.511 57.594, 57.760 65.250 C 58.275 68.412, 58.549 71, 58.369 71 C 58.188 71, 57.141 69.237, 56.042 67.083 C 53.804 62.695, 51.582 50.300, 52.236 45.846 L 52.663 42.934 49.404 46.093 C 47.611 47.831, 44.652 52.009, 42.829 55.376 C 39.863 60.856, 39.514 62.345, 39.507 69.525 C 39.497 80.759, 43.831 89.677, 53.447 98.209 C 55.126 99.700, 55.971 100.937, 55.325 100.959 C 53.138 101.035, 40.139 91.526, 36.924 87.500 L 33.731 83.500 34.389 92.590 C 35.221 104.075, 36.149 107.246, 40.539 113.621 C 44.351 119.157, 50.108 122.462, 61.066 125.407 L 66.500 126.868 58.250 126.934 C 53.712 126.970, 50 127.362, 50 127.804 C 50 128.824, 55.557 134.038, 59.560 136.774 C 63.749 139.637, 83.628 149.446, 88.317 150.964 C 90.416 151.643, 92.393 151.941, 92.709 151.624 C 93.025 151.308, 91.453 149.218, 89.216 146.980 C 86.129 143.894, 85.673 143.073, 87.324 143.579 C 90.773 144.636, 101.060 149.849, 106.250 153.169 C 112.950 157.456, 112.839 160.649, 105.570 172.707 C 100.315 181.424, 100.174 181.847, 101.192 185.857 C 101.770 188.136, 102.601 190, 103.039 190 C 103.476 190, 105.427 188.088, 107.373 185.750 L 110.912 181.500 106.901 191.482 C 102.323 202.875, 102.134 201.579, 110.199 214.121 L 115.491 222.349 116.156 218.425 C 116.522 216.266, 117.142 210, 117.533 204.500 C 117.924 199, 118.565 193.901, 118.958 193.168 C 119.350 192.436, 120.219 196.486, 120.890 202.168 C 122.295 214.076, 123.975 224.832, 124.769 227 C 125.383 228.680, 127.487 214.103, 128.557 200.750 C 128.942 195.938, 129.588 192, 129.991 192 C 130.395 192, 131.268 198.412, 131.933 206.250 C 132.598 214.088, 133.388 221.361, 133.690 222.413 C 134.230 224.297, 134.254 224.297, 135.279 222.413 C 135.852 221.361, 138.724 216.792, 141.660 212.259 C 144.597 207.727, 147 203.301, 147 202.426 C 147 201.550, 145.636 197.426, 143.968 193.262 C 140.538 184.694, 140.500 181.837, 143.891 187.323 C 145.140 189.345, 146.518 191, 146.952 191 C 147.385 191, 148.308 188.972, 149.002 186.494 C 150.187 182.260, 150.111 181.761, 147.737 178.244 C 140.191 167.060, 137.312 160.577, 138.878 158.299 C 140.972 155.254, 160.859 144, 164.146 144 C 164.880 144, 163.560 145.863, 161.214 148.140 C 158.867 150.418, 157.170 152.503, 157.442 152.775 C 158.403 153.737, 177.039 145.606, 186.885 139.929 C 193.210 136.283, 200.997 129.814, 201.002 128.202 C 201.004 127.816, 197.066 127.607, 192.252 127.739 L 183.500 127.977 192 125.438 C 202.548 122.286, 206.798 119.549, 210.776 113.345 C 214.576 107.417, 215.944 101.808, 215.976 92.018 L 216 84.536 213.524 88.179 C 212.162 90.184, 207.625 94.113, 203.440 96.912 C 195.061 102.516, 191.467 103.712, 197.196 98.990 C 202.282 94.797, 208.553 85.051, 210.522 78.277 C 211.924 73.455, 211.996 71.659, 210.996 66.574 C 209.568 59.315, 206.406 52.871, 201.636 47.500 L 198.083 43.500 198.042 48.614 C 197.986 55.464, 196.450 63.180, 194.124 68.299 L 192.214 72.500 192.745 61.979 C 193.688 43.285, 189.582 35.834, 174.028 28.014 C 166.932 24.446, 156.081 20.585, 155.312 21.355 C 155.120 21.546, 156.794 22.971, 159.031 24.522 C 164.066 28.011, 172.293 38.216, 175.269 44.665 C 178.418 51.489, 178.505 68.322, 175.425 75 L 173.349 79.500 175.613 84.500 C 178.540 90.964, 178.867 104.763, 176.208 109.621 C 174.307 113.096, 169.463 118.727, 166.460 120.953 C 165.382 121.752, 166.143 120.627, 168.152 118.453 C 175.751 110.227, 178.254 101.200, 175.936 90.383 L 174.676 84.500 173.581 88.500 C 171.739 95.236, 168.007 101.178, 161.593 107.593 C 158.220 110.965, 153.535 114.707, 151.182 115.907 C 148.828 117.108, 146.650 118.858, 146.342 119.795 C 144.992 123.898, 139.688 134, 138.884 134 C 138.398 134, 137.977 132.988, 137.949 131.750 C 137.920 130.512, 137.540 126.350, 137.104 122.500 C 136.365 115.981, 136.498 115.157, 139.046 110.500 C 140.551 107.750, 142.077 103.700, 142.436 101.500 L 143.090 97.500 140.467 100.756 C 137.283 104.711, 135.479 105.724, 128.295 107.595 C 121.400 109.391, 115.802 113.711, 113.079 119.337 C 110.411 124.849, 110.410 127.020, 113.078 123.629 C 114.220 122.176, 116.020 120.524, 117.078 119.958 C 118.685 119.098, 119 119.267, 119 120.987 C 119 122.935, 111.591 132, 109.999 132 C 109.589 132, 107.960 128.678, 106.380 124.618 C 103.795 117.972, 103.060 116.999, 99.019 114.868 C 89.222 109.700, 77 94.528, 77 87.533 C 77 86.140, 76.606 85, 76.125 85 C 73.671 85, 73.237 102.239, 75.553 107.780 C 76.407 109.824, 78.923 113.747, 81.144 116.498 C 85.179 121.496, 85.178 121.496, 79.628 115.743 C 75.868 111.846, 73.702 108.614, 72.926 105.743 C 71.343 99.890, 72.316 88.495, 74.880 82.866 L 76.991 78.233 74.799 73.366 C 73.056 69.497, 72.596 66.551, 72.554 58.980 C 72.504 50.106, 72.733 48.988, 75.931 42.480 C 78.391 37.477, 81.582 33.305, 87.199 27.750 C 91.510 23.487, 94.916 20.012, 94.768 20.026 C 94.621 20.040, 91.313 21.137, 87.418 22.465" stroke="none" fill="black" fill-rule="evenodd"/>
	<path fill-opacity="0.718" d="M 86.500 22.884 C 72.717 27.878, 62.723 35.187, 59.367 42.726 C 57.598 46.699, 56.949 62.796, 58.338 68.250 C 58.734 69.807, 58.627 71, 58.091 71 C 56.316 71, 52.916 59.717, 52.305 51.805 L 51.697 43.916 48.834 46.659 C 47.259 48.168, 44.515 52.349, 42.735 55.951 C 39.955 61.580, 39.501 63.554, 39.507 70 C 39.515 79.554, 42.401 86.078, 50.475 94.800 C 53.663 98.244, 56.074 101.259, 55.833 101.501 C 54.838 102.495, 38.897 90.743, 36.544 87.280 C 34.177 83.796, 34.001 83.708, 34.008 86.018 C 34.013 87.383, 34.479 92.538, 35.044 97.474 C 36.146 107.090, 38.375 112.175, 43.712 117.246 C 46.841 120.220, 57.221 124.686, 63.250 125.654 C 65.313 125.985, 67 126.672, 67 127.180 C 67 127.727, 63.534 127.823, 58.500 127.415 C 53.312 126.994, 50 127.095, 50 127.675 C 50 130.133, 60.564 137.774, 71.500 143.226 C 80.256 147.591, 92.040 152.294, 92.662 151.671 C 92.921 151.413, 91.212 149.356, 88.865 147.101 C 82.241 140.736, 87.929 142.254, 102.328 150.694 C 113.662 157.337, 113.920 158.955, 105.825 172.684 C 100.768 181.263, 100.314 183.077, 102.077 187.685 L 103.154 190.500 105.524 187.756 C 106.828 186.246, 108.334 184.225, 108.872 183.264 C 109.410 182.303, 110.140 181.807, 110.494 182.161 C 110.849 182.515, 110.679 183.637, 110.118 184.653 C 108.571 187.451, 106.226 192.996, 104.528 197.868 L 103.005 202.236 107.700 209.868 C 110.281 214.066, 113.145 218.496, 114.062 219.714 C 115.692 221.876, 115.746 221.781, 116.354 215.714 C 116.697 212.296, 117.274 205.563, 117.636 200.750 C 117.999 195.938, 118.679 192, 119.148 192 C 119.616 192, 119.997 192.338, 119.992 192.750 C 119.957 196.152, 124.448 225, 125.013 225 C 125.810 225, 126.345 221.378, 128.115 204 C 129.222 193.129, 130.936 187.034, 131.053 193.550 C 131.140 198.339, 133.664 221.998, 134.140 222.473 C 134.606 222.939, 144.494 208.205, 146.140 204.592 C 146.898 202.928, 146.310 200.164, 143.562 192.468 L 140.002 182.500 142.974 186 C 144.609 187.925, 145.958 189.838, 145.973 190.250 C 145.988 190.662, 146.395 191, 146.878 191 C 147.361 191, 148.249 189.088, 148.852 186.750 C 149.875 182.776, 149.740 182.175, 146.772 177.500 C 142.027 170.028, 138 161.951, 138 159.907 C 138 157.745, 144.112 153.375, 154.738 147.941 C 164.849 142.770, 166.481 142.916, 161 148.500 C 158.571 150.975, 156.885 153, 157.254 153 C 160.503 153, 182.158 142.870, 190 137.682 C 195.209 134.237, 200 129.987, 200 128.813 C 200 128.366, 196.063 127.959, 191.250 127.910 L 182.500 127.819 189 126.065 C 208.331 120.847, 214.738 113.305, 215.774 94.546 L 216.273 85.500 212.387 89.695 C 208.381 94.018, 195.040 103.374, 194.150 102.483 C 193.875 102.208, 195.741 99.891, 198.297 97.334 C 205.109 90.523, 208.042 85.815, 210.100 78.397 C 211.626 72.892, 211.750 70.925, 210.842 66.643 C 209.201 58.906, 201.650 45, 199.090 45 C 198.646 45, 198.046 48.774, 197.759 53.386 C 197.393 59.256, 196.507 63.378, 194.807 67.125 L 192.378 72.477 192.405 59.489 C 192.436 44.813, 191.592 41.913, 185.530 35.858 C 181.369 31.703, 172.676 26.813, 164.369 23.955 C 156.316 21.184, 155.214 21.518, 160.097 25.250 C 166.329 30.013, 174.782 41.559, 176.620 47.816 C 179.176 56.523, 178.240 71.440, 174.791 76.963 C 173.997 78.235, 174.256 80.067, 175.819 84.247 C 180.504 96.768, 179.573 106.565, 172.896 115.013 C 170.762 117.712, 168.039 120.444, 166.845 121.083 C 165.330 121.894, 165.897 120.775, 168.725 117.372 C 175.065 109.746, 176.009 107.181, 175.930 97.800 C 175.891 93.235, 175.473 88.600, 175 87.500 L 174.141 85.500 174.048 87.500 C 173.897 90.785, 170.269 97.875, 165.992 103.248 C 161.914 108.369, 152.332 116.442, 149.123 117.461 C 148.153 117.769, 146.379 120.379, 145.180 123.260 C 142.549 129.586, 139.084 135.418, 138.377 134.711 C 138.094 134.428, 137.471 130.021, 136.992 124.919 C 136.138 115.810, 136.175 115.542, 139.059 110.071 C 140.674 107.007, 141.997 103.441, 141.998 102.146 C 142 99.797, 141.994 99.798, 138.616 102.764 C 136.687 104.458, 132.266 106.636, 128.327 107.832 C 120.436 110.229, 114.451 115.333, 112.322 121.483 L 111.047 125.166 114.558 122.083 C 116.490 120.387, 118.481 119, 118.983 119 C 120.702 119, 117.925 124.471, 113.995 128.828 L 110.090 133.155 107.045 126.439 C 105.370 122.746, 104 119.431, 104 119.074 C 104 118.716, 101.116 116.528, 97.592 114.211 C 87.701 107.708, 78.702 96.672, 76.525 88.373 C 75.838 85.757, 75.698 85.679, 74.956 87.500 C 73.774 90.400, 73.838 101.875, 75.060 106.278 C 75.638 108.357, 78.153 112.565, 80.650 115.632 C 86.044 122.253, 84.048 121.565, 78.229 114.797 C 76.005 112.210, 73.640 108.438, 72.972 106.415 C 71.239 101.164, 72.184 88.573, 74.741 82.824 C 76.797 78.205, 76.799 78.101, 74.936 74.324 C 72.332 69.042, 71.406 57.510, 72.989 50.053 C 74.781 41.610, 84.056 28.367, 92.093 22.779 C 95.327 20.530, 92.868 20.576, 86.500 22.884" stroke="none" fill="black" fill-rule="evenodd"/>
	<path fill-opacity="0.943" d="M 86 23.443 C 71.989 28.549, 64.021 34.213, 60.380 41.657 C 57.947 46.629, 57.810 47.689, 58.144 58.977 C 58.340 65.590, 58.218 71, 57.873 71 C 56.099 71, 52.843 60.152, 52.297 52.423 C 51.713 44.147, 51.658 44, 49.774 45.705 C 46.585 48.590, 41.149 59.206, 39.916 64.955 C 37.742 75.093, 41.587 85.564, 51.062 95.307 C 54.306 98.643, 56.757 101.576, 56.508 101.825 C 55.599 102.734, 44.542 95.365, 39.491 90.483 L 34.300 85.467 34.709 92.483 C 35.334 103.229, 36.765 108.156, 40.802 113.476 C 45.224 119.301, 48.640 121.333, 59.079 124.347 C 63.410 125.598, 67.302 126.992, 67.727 127.446 C 68.152 127.900, 64.338 127.969, 59.250 127.600 C 53.485 127.181, 50 127.293, 50 127.897 C 50 131.483, 72.671 144.751, 87.985 150.128 L 93.469 152.054 89.235 147.739 C 86.906 145.366, 85 143.117, 85 142.741 C 85 141.536, 97.278 147.222, 104.221 151.643 C 113.898 157.804, 113.998 159.448, 105.549 173.366 C 100.704 181.348, 100.371 182.814, 102.348 187.449 L 103.606 190.398 105.553 187.652 C 106.624 186.142, 108.322 183.915, 109.326 182.703 C 111.030 180.648, 111.118 180.634, 110.645 182.500 C 110.366 183.600, 108.667 188.237, 106.871 192.805 C 104.171 199.668, 103.783 201.579, 104.638 203.805 C 105.847 206.953, 115.032 221.301, 115.524 220.810 C 115.707 220.626, 116.409 213.844, 117.082 205.738 C 118.794 185.118, 119.361 185.661, 122.553 210.980 C 124.861 229.293, 125.219 229.042, 127.511 207.500 C 129.787 186.096, 130.343 185.538, 131.961 203.034 C 132.545 209.340, 133.277 216.462, 133.589 218.859 L 134.155 223.219 137.334 218.359 C 147.236 203.222, 147.287 203.119, 146.191 200.234 C 145.619 198.730, 143.961 194.419, 142.506 190.654 C 139.869 183.831, 139.821 180.875, 142.407 184.560 C 143.156 185.627, 144.633 187.565, 145.689 188.868 L 147.609 191.236 148.648 186.697 C 149.669 182.233, 149.600 182.024, 144.414 173.865 C 138.688 164.857, 137.090 159.801, 139.176 157.288 C 141.662 154.293, 157.880 145.290, 164 143.508 C 166.190 142.870, 165.973 143.325, 162.250 147.178 C 159.913 149.597, 158 151.853, 158 152.192 C 158 153.172, 167.631 149.270, 178.583 143.853 C 188.742 138.829, 200 130.936, 200 128.838 C 200 128.032, 197.562 127.892, 191.560 128.354 C 186.918 128.711, 182.889 128.630, 182.608 128.175 C 182.327 127.720, 185.004 126.770, 188.558 126.063 C 192.111 125.357, 195.266 124.379, 195.568 123.890 C 195.871 123.400, 196.924 123, 197.909 123 C 200.813 123, 207.873 117.269, 210.954 112.412 C 213.922 107.731, 216 98.841, 216 90.820 L 216 86.304 210.717 91.402 C 205.413 96.520, 195.133 103.466, 194.217 102.551 C 193.948 102.282, 196.273 99.312, 199.383 95.953 C 212.014 82.310, 214.315 69.934, 206.836 55.860 C 205.187 52.757, 202.548 48.983, 200.971 47.472 L 198.103 44.724 198.130 50.612 C 198.159 56.942, 196.553 64.815, 194.328 69.250 C 193.569 70.763, 192.784 72, 192.582 72 C 192.381 72, 192.280 66.487, 192.358 59.750 C 192.480 49.195, 192.207 46.867, 190.385 42.927 C 187.032 35.680, 176.934 28.622, 163.116 23.868 C 160.130 22.841, 157.595 22, 157.484 22 C 157.372 22, 160.567 25.341, 164.585 29.424 C 172.938 37.913, 176.398 44.001, 178.090 53.188 C 179.421 60.411, 178.358 69.335, 175.433 75.500 C 173.823 78.892, 173.848 79.211, 176.111 84.260 C 177.972 88.413, 178.464 91.264, 178.480 98 C 178.497 105.435, 178.166 107.064, 175.835 111 C 172.821 116.090, 166.365 122.699, 165.375 121.708 C 165.015 121.348, 166.408 119.354, 168.470 117.277 C 174.222 111.484, 175.964 106.851, 175.908 97.500 C 175.881 93.100, 175.473 88.600, 175 87.500 C 174.200 85.638, 174.136 85.666, 174.070 87.900 C 173.857 95.194, 161.332 110.960, 151.745 116 C 148.262 117.831, 146.701 119.378, 145.908 121.781 C 144.623 125.671, 140.215 133.749, 138.949 134.531 C 137.836 135.220, 137.279 132.546, 136.537 122.952 C 135.991 115.889, 136.146 115.055, 138.959 109.952 C 140.611 106.954, 141.972 103.435, 141.982 102.134 C 142 99.832, 141.897 99.860, 138.230 103.173 C 135.661 105.494, 132.677 106.978, 128.861 107.832 C 122.672 109.217, 116.038 114.092, 113.400 119.193 C 111.455 122.954, 112.014 123.590, 114.993 121.006 C 118.184 118.238, 120.340 118.353, 119.423 121.241 C 118.780 123.269, 111.230 133, 110.301 133 C 109.683 133, 104.002 120.624, 104.001 119.276 C 104 118.602, 102.537 117.307, 100.750 116.396 C 90.700 111.279, 80.898 100.510, 77.042 90.352 L 75.298 85.758 74.649 89.004 C 72.456 99.970, 75.030 109.354, 82.261 116.750 C 85.078 119.631, 85.894 121, 84.793 121 C 82.699 121, 75.173 112.528, 73.256 108.013 C 70.822 102.282, 71.221 91.505, 74.128 84.429 L 76.623 78.359 74.561 74.429 C 72.843 71.153, 72.500 68.672, 72.500 59.500 C 72.500 49.711, 72.788 47.894, 75.112 43 C 78.280 36.331, 85.094 27.846, 90.447 23.905 C 95.190 20.414, 94.508 20.343, 86 23.443" stroke="none" fill="black" fill-rule="evenodd"/>
</svg>