<svg xmlns="http://www.w3.org/2000/svg" version="1.1" width="256px" height="256px" style="shape-rendering:geometricPrecision; text-rendering:geometricPrecision; image-rendering:optimizeQuality; fill-rule:evenodd; clip-rule:evenodd" xmlns:xlink="http://www.w3.org/1999/xlink">
<g><path style="opacity:0.995" fill="#1c74bb" d="M 5.5,239.5 C 6.45559,228.765 7.95559,218.099 10,207.5C 16.3333,203.5 22.6667,199.5 29,195.5C 30.5122,190.583 31.1788,185.583 31,180.5C 25.0322,184.895 18.8655,188.895 12.5,192.5C 13.2378,181.001 14.9044,169.668 17.5,158.5C 24.0836,154.625 30.5836,150.625 37,146.5C 44.5876,99.5528 51.7543,52.5528 58.5,5.5C 98.8347,5.33334 139.168,5.50001 179.5,6C 191.075,6.55813 201.742,9.89147 211.5,16C 215.036,19.2012 218.203,22.7012 221,26.5C 226.421,21.9141 232.255,17.9141 238.5,14.5C 244.895,21.1801 248.062,29.1801 248,38.5C 242.585,42.1249 237.085,45.6249 231.5,49C 230.941,49.7247 230.608,50.5581 230.5,51.5C 231.182,55.1379 231.682,58.8046 232,62.5C 237.667,58.8333 243.333,55.1667 249,51.5C 249.63,62.3899 248.297,73.0566 245,83.5C 238.828,87.2519 232.828,91.2519 227,95.5C 217.397,132.714 193.564,153.881 155.5,159C 138.17,159.5 120.837,159.667 103.5,159.5C 98.8865,189.795 94.5531,220.128 90.5,250.5C 67.5,250.5 44.5,250.5 21.5,250.5C 22.1122,243.063 22.9456,235.73 24,228.5C 17.7231,232.052 11.5564,235.719 5.5,239.5 Z M 119.5,57.5 C 128.839,57.3335 138.173,57.5002 147.5,58C 161.006,61.8347 166.173,70.668 163,84.5C 159.73,97.437 151.563,105.27 138.5,108C 129.506,108.5 120.506,108.666 111.5,108.5C 114.06,91.4723 116.727,74.4723 119.5,57.5 Z"/></g>
<g><path style="opacity:0.137" fill="#1674b6" d="M 12.5,192.5 C 11.8333,193.167 11.8333,193.167 12.5,192.5 Z"/></g>
<g><path style="opacity:0.169" fill="#1876be" d="M 5.5,239.5 C 4.83333,240.167 4.83333,240.167 5.5,239.5 Z"/></g>
</svg>
