<svg xmlns="http://www.w3.org/2000/svg" version="1.1" width="320px" height="237px" style="shape-rendering:geometricPrecision; text-rendering:geometricPrecision; image-rendering:optimizeQuality; fill-rule:evenodd; clip-rule:evenodd" xmlns:xlink="http://www.w3.org/1999/xlink">
<g><path style="opacity:1" fill="#3a2b44" d="M -0.5,-0.5 C 106.167,-0.5 212.833,-0.5 319.5,-0.5C 319.5,78.5 319.5,157.5 319.5,236.5C 248.167,236.5 176.833,236.5 105.5,236.5C 105.051,228.037 103.051,220.037 99.5,212.5C 101.099,212.768 102.432,212.434 103.5,211.5C 104.794,210.71 105.961,209.71 107,208.5C 108.305,211.306 110.472,212.14 113.5,211C 114.973,210.29 115.64,209.124 115.5,207.5C 116.468,209.607 116.802,211.941 116.5,214.5C 115.957,214.56 115.624,214.893 115.5,215.5C 117.167,216.833 118.833,216.833 120.5,215.5C 119.754,214.264 119.421,212.93 119.5,211.5C 122.238,212.035 124.072,211.035 125,208.5C 127.532,212.014 130.365,212.347 133.5,209.5C 132.352,208.836 131.019,208.669 129.5,209C 128.663,207.989 128.33,206.822 128.5,205.5C 129.833,205.5 131.167,205.5 132.5,205.5C 131.022,200.518 128.522,200.185 125,204.5C 124.057,202.046 122.224,201.046 119.5,201.5C 117.667,201.585 116.334,202.252 115.5,203.5C 112.611,200.951 109.611,200.951 106.5,203.5C 104.473,201.661 102.14,201.161 99.5,202C 96.9298,203.857 94.9298,206.191 93.5,209C 91.2511,209.863 89.4178,209.363 88,207.5C 87.1786,204.446 87.3452,201.446 88.5,198.5C 91.7512,197.041 94.0845,198.041 95.5,201.5C 96.4519,199.955 96.7852,198.288 96.5,196.5C 95.0413,196.567 93.7079,196.234 92.5,195.5C 91.3915,194.71 90.0581,194.21 88.5,194C 89.8333,193.667 91.1667,193.333 92.5,193C 91.8724,190.2 90.8724,187.533 89.5,185C 90.1667,184.667 90.8333,184.333 91.5,184C 89.2922,183.809 87.2922,183.309 85.5,182.5C 87.5,182.5 89.5,182.5 91.5,182.5C 91.3341,177.489 91.5007,172.489 92,167.5C 95.2451,160.676 98.7451,154.009 102.5,147.5C 100.167,146.167 97.8333,146.167 95.5,147.5C 93.4227,151.581 91.256,155.581 89,159.5C 87.295,157.423 86.1283,155.09 85.5,152.5C 85.1307,150.559 84.464,148.725 83.5,147C 83.9574,146.586 84.2907,146.086 84.5,145.5C 82.0824,141.83 80.0824,137.996 78.5,134C 79.0691,129.067 78.2357,124.234 76,119.5C 71.9527,111.367 68.2861,103.034 65,94.5C 63.702,93.4404 62.5353,92.2737 61.5,91C 60.8128,86.3783 59.6462,81.8783 58,77.5C 56,75.8333 54,74.1667 52,72.5C 49.1569,60.9926 45.9902,49.6592 42.5,38.5C 42.5,36.5 42.5,34.5 42.5,32.5C 38.7488,25.8047 33.7488,20.3047 27.5,16C 18.3771,14.2137 9.04376,12.3804 -0.5,10.5C -0.5,6.83333 -0.5,3.16667 -0.5,-0.5 Z"/></g>
<g><path style="opacity:1" fill="#1c1628" d="M -0.5,17.5 C 1.9052,20.5738 5.23853,23.4072 9.5,26C 15.5267,26.4609 21.36,25.6275 27,23.5C 28,24.5 29,25.5 30,26.5C 31.4608,31.4191 33.4608,36.0858 36,40.5C 37.4171,52.7531 39.9171,64.7531 43.5,76.5C 43.3201,77.5539 42.9867,78.5539 42.5,79.5C 43.1418,84.3654 43.8084,89.1987 44.5,94C 43.7402,95.4411 43.0736,96.9411 42.5,98.5C 43.2537,101.777 43.7537,105.11 44,108.5C 45.4499,111.257 47.2832,113.757 49.5,116C 50.3553,117.451 50.5219,118.951 50,120.5C 50.3333,120.167 50.6667,119.833 51,119.5C 51.9025,120.701 53.0692,121.535 54.5,122C 53.6598,123.666 54.1598,123.833 56,122.5C 56.3076,123.308 56.8076,123.975 57.5,124.5C 59.4427,123.638 61.776,123.138 64.5,123C 64.4225,126.729 64.4225,130.395 64.5,134C 66.6801,136.418 67.0135,139.084 65.5,142C 67.7151,143.391 67.7151,145.057 65.5,147C 66.756,147.417 67.4226,148.25 67.5,149.5C 62.4749,147.05 57.1415,146.05 51.5,146.5C 51.5,158.5 51.5,170.5 51.5,182.5C 53.2646,183.461 55.2646,183.795 57.5,183.5C 57.5,178.833 57.5,174.167 57.5,169.5C 60.2671,173.517 62.9337,177.684 65.5,182C 67.8333,182.667 70.1667,182.667 72.5,182C 69.8943,177.065 66.8943,172.398 63.5,168C 68.2869,165.264 70.6202,161.097 70.5,155.5C 71.807,157.223 71.807,159.057 70.5,161C 72.8454,161.17 75.1788,160.837 77.5,160C 76.3774,158.956 75.0441,158.29 73.5,158C 74.3081,157.692 74.9747,157.192 75.5,156.5C 74.3995,154.358 73.3995,152.192 72.5,150C 72.9743,148.271 73.9743,147.105 75.5,146.5C 78.1596,153.152 81.3262,159.486 85,165.5C 85.4994,171.157 85.6661,176.824 85.5,182.5C 87.2922,183.309 89.2922,183.809 91.5,184C 90.8333,184.333 90.1667,184.667 89.5,185C 90.8724,187.533 91.8724,190.2 92.5,193C 91.1667,193.333 89.8333,193.667 88.5,194C 90.0581,194.21 91.3915,194.71 92.5,195.5C 84.5286,196.538 82.0286,200.872 85,208.5C 88.9704,212.142 93.3037,212.475 98,209.5C 99.4443,211.155 101.278,211.822 103.5,211.5C 102.432,212.434 101.099,212.768 99.5,212.5C 103.051,220.037 105.051,228.037 105.5,236.5C 92.5,236.5 79.5,236.5 66.5,236.5C 66.7066,232.04 66.7066,227.873 66.5,224C 65.2161,223.316 64.0495,223.483 63,224.5C 62.3605,221.888 61.1938,219.554 59.5,217.5C 60.1279,215.742 61.1279,214.242 62.5,213C 61.3531,210.915 62.0197,209.415 64.5,208.5C 64.8333,209.167 65.1667,209.833 65.5,210.5C 66.6517,207.894 66.8184,205.227 66,202.5C 64.108,201.87 62.4413,200.87 61,199.5C 61.2179,197.413 61.0512,195.413 60.5,193.5C 56.3148,189.485 51.8148,185.818 47,182.5C 47.6441,176.31 45.9774,170.977 42,166.5C 41.8528,163.89 41.0194,161.556 39.5,159.5C 40.3398,158.265 41.3398,157.265 42.5,156.5C 42.5,153.833 42.5,151.167 42.5,148.5C 42.2975,141.744 41.2975,134.911 39.5,128C 39.9583,118.833 39.9583,109.667 39.5,100.5C 37.4686,98.7508 37.1353,96.7508 38.5,94.5C 36.9713,92.2927 36.3047,89.7927 36.5,87C 38.0706,77.6901 37.5706,68.5234 35,59.5C 32.7624,62.0799 30.5957,61.9132 28.5,59C 28.2448,55.1154 28.5782,51.1154 29.5,47C 28.8135,40.5167 28.3135,34.0167 28,27.5C 27.6667,33.5 27.3333,39.5 27,45.5C 26.6667,44.8333 26.3333,44.1667 26,43.5C 25.8333,45.1667 25.6667,46.8333 25.5,48.5C 26.7185,59.8346 26.7185,71.168 25.5,82.5C 24.8076,83.0253 24.3076,83.6919 24,84.5C 23.2825,83.5494 22.4491,83.3828 21.5,84C 22.1667,85 22.8333,86 23.5,87C 21.447,88.2022 19.447,88.5356 17.5,88C 16.5,89 15.5,90 14.5,91C 15.6721,91.4186 16.6721,92.0853 17.5,93C 16.2192,95.4033 14.3858,97.2367 12,98.5C 11.9115,96.8866 12.7448,95.7199 14.5,95C 14,94.5 13.5,94 13,93.5C 11.8455,94.7433 10.5122,95.7433 9,96.5C 8.66667,95.8333 8.33333,95.1667 8,94.5C 6.0684,99.3489 4.23507,99.0156 2.5,93.5C 3.79901,86.1939 3.79901,78.8606 2.5,71.5C 1.74917,72.376 1.24917,73.376 1,74.5C 0.78997,72.9419 0.28997,71.6085 -0.5,70.5C -0.5,52.8333 -0.5,35.1667 -0.5,17.5 Z"/></g>
<g><path style="opacity:1" fill="#e6e4e7" d="M 139.5,25.5 C 168.573,22.4821 191.406,32.8154 208,56.5C 218.917,74.841 220.25,93.841 212,113.5C 203.15,125.567 191.15,131.567 176,131.5C 140.352,129.157 116.018,111.49 103,78.5C 100.352,54.9754 109.852,38.142 131.5,28C 134.457,27.7206 137.123,26.8873 139.5,25.5 Z"/></g>
<g><path style="opacity:1" fill="#292130" d="M 143.5,29.5 C 139.147,30.8461 135.147,33.0127 131.5,36C 128.961,36.7958 126.628,36.6291 124.5,35.5C 130.44,32.298 136.773,30.298 143.5,29.5 Z"/></g>
<g><path style="opacity:1" fill="#d1cdd2" d="M 165.5,32.5 C 160.205,31.3855 154.872,30.8855 149.5,31C 150.167,32 150.833,33 151.5,34C 156.532,34.3357 161.532,34.8357 166.5,35.5C 166.5,34.5 166.5,33.5 166.5,32.5C 167.167,33.8333 167.833,35.1667 168.5,36.5C 173.764,37.7986 178.431,40.1319 182.5,43.5C 181.508,43.3284 180.842,43.6618 180.5,44.5C 177.111,43.3689 173.778,42.0355 170.5,40.5C 169.171,44.1407 168.338,47.8074 168,51.5C 169.753,52.627 171.587,53.627 173.5,54.5C 175.827,51.5061 178.494,48.8394 181.5,46.5C 182.492,46.3284 183.158,46.6618 183.5,47.5C 181.983,47.5106 180.816,48.1772 180,49.5C 178.25,51.7343 176.75,54.0676 175.5,56.5C 172.161,55.5105 171.828,56.1771 174.5,58.5C 172.204,60.4006 170.371,62.7339 169,65.5C 168.018,66.7589 167.685,68.0922 168,69.5C 171.044,66.9491 174.211,64.6158 177.5,62.5C 178.167,63.1667 178.833,63.8333 179.5,64.5C 175.934,65.2885 172.934,67.1218 170.5,70C 172.572,70.0363 174.572,69.5363 176.5,68.5C 176.5,68.8333 176.5,69.1667 176.5,69.5C 175.167,70.5 173.833,71.5 172.5,72.5C 173.609,73.29 174.942,73.79 176.5,74C 173.833,76 171.167,76 168.5,74C 168.833,73.6667 169.167,73.3333 169.5,73C 167.826,71.4941 166.826,69.6607 166.5,67.5C 167.924,64.2324 169.591,61.0657 171.5,58C 170.924,56.2856 169.757,55.1189 168,54.5C 166.509,58.5431 165.342,62.5431 164.5,66.5C 164.737,65.209 164.404,64.209 163.5,63.5C 164.294,60.198 164.96,56.8647 165.5,53.5C 165.5,52.8333 165.5,52.1667 165.5,51.5C 166.645,47.6766 167.145,43.6766 167,39.5C 164,38.8333 161,38.1667 158,37.5C 157.25,38.1258 156.416,38.6258 155.5,39C 157.135,42.7393 158.469,46.5726 159.5,50.5C 161.415,50.2155 163.081,50.5489 164.5,51.5C 162.5,51.5 160.5,51.5 158.5,51.5C 157.139,47.4116 155.472,43.4116 153.5,39.5C 150.184,38.9641 147.184,39.9641 144.5,42.5C 147.624,46.6334 151.291,49.9668 155.5,52.5C 154.074,53.3412 152.74,54.3412 151.5,55.5C 150.387,50.3782 147.387,46.7115 142.5,44.5C 140.377,46.7454 139.377,49.4121 139.5,52.5C 138.778,51.4489 137.778,50.7822 136.5,50.5C 136.503,47.325 137.503,44.4916 139.5,42C 135.982,39.1453 132.482,38.9787 129,41.5C 127.384,43.7133 126.217,46.0466 125.5,48.5C 125.672,47.5084 125.338,46.8417 124.5,46.5C 125.17,43.6623 126.504,41.1623 128.5,39C 126.866,38.5065 125.199,38.3398 123.5,38.5C 123.263,37.209 123.596,36.209 124.5,35.5C 126.628,36.6291 128.961,36.7958 131.5,36C 135.147,33.0127 139.147,30.8461 143.5,29.5C 144.496,29.4142 145.329,29.7476 146,30.5C 147.87,29.2565 150.036,28.5899 152.5,28.5C 156.541,28.6735 160.541,29.1735 164.5,30C 165.252,30.6708 165.586,31.5041 165.5,32.5 Z"/></g>
<g><path style="opacity:1" fill="#32273c" d="M 143.5,31.5 C 146.599,31.0923 148.933,32.259 150.5,35C 147.339,36.4131 144.339,38.0797 141.5,40C 138.725,39.6263 136.058,38.6263 133.5,37C 136.731,34.8769 140.064,33.0435 143.5,31.5 Z"/></g>
<g><path style="opacity:1" fill="#2e253a" d="M 165.5,32.5 C 165.833,32.5 166.167,32.5 166.5,32.5C 166.5,33.5 166.5,34.5 166.5,35.5C 161.532,34.8357 156.532,34.3357 151.5,34C 150.833,33 150.167,32 149.5,31C 154.872,30.8855 160.205,31.3855 165.5,32.5 Z"/></g>
<g><path style="opacity:1" fill="#32263d" d="M 182.5,43.5 C 178.431,40.1319 173.764,37.7986 168.5,36.5C 168.281,35.325 168.614,34.325 169.5,33.5C 175.277,35.5547 180.611,38.388 185.5,42C 184.756,43.0386 183.756,43.5386 182.5,43.5 Z"/></g>
<g><path style="opacity:1" fill="#362a40" d="M 136.5,50.5 C 133.287,50.8915 129.954,51.2248 126.5,51.5C 125.614,50.675 125.281,49.675 125.5,48.5C 126.217,46.0466 127.384,43.7133 129,41.5C 132.482,38.9787 135.982,39.1453 139.5,42C 137.503,44.4916 136.503,47.325 136.5,50.5 Z"/></g>
<g><path style="opacity:1" fill="#32273d" d="M 158.5,51.5 C 157.209,51.2627 156.209,51.596 155.5,52.5C 151.291,49.9668 147.624,46.6334 144.5,42.5C 147.184,39.9641 150.184,38.9641 153.5,39.5C 155.472,43.4116 157.139,47.4116 158.5,51.5 Z"/></g>
<g><path style="opacity:1" fill="#34273d" d="M 165.5,51.5 C 165.167,51.5 164.833,51.5 164.5,51.5C 163.081,50.5489 161.415,50.2155 159.5,50.5C 158.469,46.5726 157.135,42.7393 155.5,39C 156.416,38.6258 157.25,38.1258 158,37.5C 161,38.1667 164,38.8333 167,39.5C 167.145,43.6766 166.645,47.6766 165.5,51.5 Z"/></g>
<g><path style="opacity:1" fill="#32263d" d="M 123.5,38.5 C 125.199,38.3398 126.866,38.5065 128.5,39C 126.504,41.1623 125.17,43.6623 124.5,46.5C 123.699,48.0418 123.366,49.7085 123.5,51.5C 119.668,51.9444 116.168,53.2777 113,55.5C 112.952,47.5882 116.452,41.9215 123.5,38.5 Z"/></g>
<g><path style="opacity:1" fill="#a6a0aa" d="M 198.5,52.5 C 195.833,50.5 193.5,48.1667 191.5,45.5C 191.047,44.5416 190.381,43.7083 189.5,43C 190.167,42.3333 190.833,42.3333 191.5,43C 194.667,46.1667 197.833,49.3333 201,52.5C 201.667,53.1667 201.667,53.8333 201,54.5C 200.292,53.6195 199.458,52.9528 198.5,52.5 Z"/></g>
<g><path style="opacity:1" fill="#372840" d="M 180.5,44.5 C 180.833,45.1667 181.167,45.8333 181.5,46.5C 178.494,48.8394 175.827,51.5061 173.5,54.5C 171.587,53.627 169.753,52.627 168,51.5C 168.338,47.8074 169.171,44.1407 170.5,40.5C 173.778,42.0355 177.111,43.3689 180.5,44.5 Z"/></g>
<g><path style="opacity:1" fill="#35283f" d="M 151.5,55.5 C 150.778,55.9175 150.278,56.5842 150,57.5C 146.949,54.8913 143.449,53.2246 139.5,52.5C 139.377,49.4121 140.377,46.7454 142.5,44.5C 147.387,46.7115 150.387,50.3782 151.5,55.5 Z"/></g>
<g><path style="opacity:1" fill="#362941" d="M 183.5,47.5 C 186.334,49.5015 188.667,52.0015 190.5,55C 187.314,57.0009 183.98,58.8343 180.5,60.5C 178.815,59.0473 177.149,57.714 175.5,56.5C 176.75,54.0676 178.25,51.7343 180,49.5C 180.816,48.1772 181.983,47.5106 183.5,47.5 Z"/></g>
<g><path style="opacity:1" fill="#35293f" d="M 191.5,45.5 C 193.5,48.1667 195.833,50.5 198.5,52.5C 197.201,54.0986 195.535,54.5986 193.5,54C 191.205,50.7026 188.538,47.7026 185.5,45C 186.025,44.3076 186.692,43.8076 187.5,43.5C 188.622,44.6302 189.956,45.2969 191.5,45.5 Z"/></g>
<g><path style="opacity:1" fill="#302638" d="M 110.5,50.5 C 112.389,54.6921 111.223,58.0254 107,60.5C 107.359,56.9419 108.525,53.6086 110.5,50.5 Z"/></g>
<g><path style="opacity:1" fill="#35273f" d="M 123.5,53.5 C 124.074,58.8296 125.407,63.9963 127.5,69C 124.694,72.1336 121.528,74.967 118,77.5C 114.607,71.2634 112.774,64.5968 112.5,57.5C 116.021,55.7709 119.687,54.4375 123.5,53.5 Z"/></g>
<g><path style="opacity:1" fill="#231a2e" d="M 158.5,53.5 C 160.212,66.3303 159.212,66.6636 155.5,54.5C 156.391,53.8902 157.391,53.5569 158.5,53.5 Z"/></g>
<g><path style="opacity:1" fill="#3b2c44" d="M 139.5,54.5 C 143.198,55.182 146.531,56.682 149.5,59C 150.406,60.6995 150.739,62.5328 150.5,64.5C 147.428,64.8174 144.428,64.4841 141.5,63.5C 140.067,60.667 139.4,57.667 139.5,54.5 Z"/></g>
<g><path style="opacity:1" fill="#372a41" d="M 125.5,52.5 C 128.833,52.5 132.167,52.5 135.5,52.5C 135.795,56.5128 136.795,60.3461 138.5,64C 138.43,64.7648 138.097,65.2648 137.5,65.5C 135.072,66.2122 132.739,67.2122 130.5,68.5C 126.997,63.8432 125.33,58.5098 125.5,52.5 Z"/></g>
<g><path style="opacity:1" fill="#352840" d="M 193.5,59.5 C 195.097,62.3188 195.597,65.3188 195,68.5C 190.503,67.8059 186.003,67.1392 181.5,66.5C 181.215,64.712 181.548,63.0453 182.5,61.5C 185.003,59.5047 187.836,58.1714 191,57.5C 192.301,57.6387 193.134,58.3054 193.5,59.5 Z"/></g>
<g><path style="opacity:1" fill="#bab6bc" d="M 164.5,53.5 C 163.167,53.5 161.833,53.5 160.5,53.5C 161.314,58.1191 161.647,62.7858 161.5,67.5C 159.286,68.111 157.286,68.111 155.5,67.5C 152.731,65.6609 152.065,63.3275 153.5,60.5C 152.348,58.0909 153.014,56.0909 155.5,54.5C 159.212,66.6636 160.212,66.3303 158.5,53.5C 160.611,52.2584 162.611,52.2584 164.5,53.5 Z"/></g>
<g><path style="opacity:1" fill="#18121e" d="M 153.5,60.5 C 153.351,59.448 153.517,58.448 154,57.5C 155.301,59.4021 155.968,61.4021 156,63.5C 155.148,62.4293 154.315,61.4293 153.5,60.5 Z"/></g>
<g><path style="opacity:1" fill="#2c2135" d="M 166.5,67.5 C 165.075,69.0311 164.409,68.6977 164.5,66.5C 165.342,62.5431 166.509,58.5431 168,54.5C 169.757,55.1189 170.924,56.2856 171.5,58C 169.591,61.0657 167.924,64.2324 166.5,67.5 Z"/></g>
<g><path style="opacity:1" fill="#2d2439" d="M 174.5,58.5 C 176.262,59.2623 177.262,60.5956 177.5,62.5C 174.211,64.6158 171.044,66.9491 168,69.5C 167.685,68.0922 168.018,66.7589 169,65.5C 170.371,62.7339 172.204,60.4006 174.5,58.5 Z"/></g>
<g><path style="opacity:1" fill="#1b152a" d="M 164.5,53.5 C 164.833,53.5 165.167,53.5 165.5,53.5C 164.96,56.8647 164.294,60.198 163.5,63.5C 163.34,65.153 162.674,66.4863 161.5,67.5C 161.647,62.7858 161.314,58.1191 160.5,53.5C 161.833,53.5 163.167,53.5 164.5,53.5 Z"/></g>
<g><path style="opacity:1" fill="#33283a" d="M 179.5,64.5 C 179.532,66.6188 178.532,67.9522 176.5,68.5C 174.572,69.5363 172.572,70.0363 170.5,70C 172.934,67.1218 175.934,65.2885 179.5,64.5 Z"/></g>
<g><path style="opacity:1" fill="#372940" d="M 140.5,67.5 C 142.939,71.4423 145.939,74.9423 149.5,78C 148.349,79.8231 147.182,81.6564 146,83.5C 144.951,84.5171 143.784,84.6838 142.5,84C 139.631,80.9621 136.631,78.1288 133.5,75.5C 133.08,73.9064 132.414,72.4064 131.5,71C 133.942,68.5718 136.942,67.4052 140.5,67.5 Z"/></g>
<g><path style="opacity:1" fill="#30263c" d="M 203.5,61.5 C 205.151,65.7751 206.318,70.1085 207,74.5C 204.966,72.9684 202.799,71.6351 200.5,70.5C 199.448,65.8203 197.782,61.487 195.5,57.5C 195.791,56.3509 196.624,55.6842 198,55.5C 200.507,56.8218 202.341,58.8218 203.5,61.5 Z"/></g>
<g><path style="opacity:1" fill="#33263d" d="M 109.5,60.5 C 111.365,66.7492 113.698,72.9159 116.5,79C 114.548,81.7316 112.715,84.5649 111,87.5C 110.617,86.944 110.117,86.6107 109.5,86.5C 106.094,79.5374 104.927,72.2041 106,64.5C 107.405,63.2695 108.571,61.9361 109.5,60.5 Z"/></g>
<g><path style="opacity:1" fill="#382d42" d="M 143.5,65.5 C 145.857,65.3367 148.19,65.5034 150.5,66C 152.473,67.973 154.473,69.973 156.5,72C 154.714,72.7845 153.214,73.9512 152,75.5C 147.866,73.2048 145.033,69.8715 143.5,65.5 Z"/></g>
<g><path style="opacity:1" fill="#2f2339" d="M 181.5,69.5 C 185.902,69.2281 190.235,69.5614 194.5,70.5C 195.21,73.4682 194.377,76.1349 192,78.5C 190.729,77.1175 189.229,76.1175 187.5,75.5C 185.703,74.2702 183.703,73.6036 181.5,73.5C 181.5,72.1667 181.5,70.8333 181.5,69.5 Z"/></g>
<g><path style="opacity:1" fill="#3b3542" d="M 176.5,69.5 C 178.942,69.3537 179.609,70.187 178.5,72C 176.527,72.4955 174.527,72.6621 172.5,72.5C 173.833,71.5 175.167,70.5 176.5,69.5 Z"/></g>
<g><path style="opacity:1" fill="#cdc9cf" d="M 125.5,52.5 C 125.33,58.5098 126.997,63.8432 130.5,68.5C 132.739,67.2122 135.072,66.2122 137.5,65.5C 138.5,66.1667 139.5,66.8333 140.5,67.5C 136.942,67.4052 133.942,68.5718 131.5,71C 132.414,72.4064 133.08,73.9064 133.5,75.5C 133.5,75.8333 133.5,76.1667 133.5,76.5C 131.549,75.2842 130.049,73.6175 129,71.5C 124.884,73.3023 121.718,76.1356 119.5,80C 123.672,85.9987 128.339,91.4987 133.5,96.5C 132.833,96.5 132.5,96.8333 132.5,97.5C 126.789,92.7901 121.789,87.4568 117.5,81.5C 115.479,84.2347 113.479,86.9014 111.5,89.5C 110.449,88.7777 109.782,87.7777 109.5,86.5C 110.117,86.6107 110.617,86.944 111,87.5C 112.715,84.5649 114.548,81.7316 116.5,79C 113.698,72.9159 111.365,66.7492 109.5,60.5C 110.167,59.1667 111.167,58.1667 112.5,57.5C 112.774,64.5968 114.607,71.2634 118,77.5C 121.528,74.967 124.694,72.1336 127.5,69C 125.407,63.9963 124.074,58.8296 123.5,53.5C 124.167,53.1667 124.833,52.8333 125.5,52.5 Z"/></g>
<g><path style="opacity:1" fill="#372a41" d="M 133.5,76.5 C 136.761,79.961 139.761,83.6277 142.5,87.5C 140.349,91.1289 138.182,94.7956 136,98.5C 135.292,97.6195 134.458,96.9528 133.5,96.5C 128.339,91.4987 123.672,85.9987 119.5,80C 121.718,76.1356 124.884,73.3023 129,71.5C 130.049,73.6175 131.549,75.2842 133.5,76.5 Z"/></g>
<g><path style="opacity:1" fill="#3a2f41" d="M 156.5,73.5 C 157.693,73.9704 158.36,74.9704 158.5,76.5C 158.097,79.7629 156.764,79.7629 154.5,76.5C 155.193,75.4822 155.859,74.4822 156.5,73.5 Z"/></g>
<g><path style="opacity:1" fill="#32263d" d="M 186.5,76.5 C 187.936,77.4286 189.269,78.5952 190.5,80C 187.873,81.8969 185.039,83.3969 182,84.5C 180.404,81.6305 178.57,78.9639 176.5,76.5C 178.094,76.0805 179.594,75.4138 181,74.5C 182.8,75.3195 184.634,75.9862 186.5,76.5 Z"/></g>
<g><path style="opacity:1" fill="#2f243a" d="M 206.5,62.5 C 210.49,68.0572 212.823,74.3905 213.5,81.5C 212.236,79.7299 210.736,78.0632 209,76.5C 208.654,71.7243 207.821,67.0577 206.5,62.5 Z"/></g>
<g><path style="opacity:1" fill="#2d2139" d="M -0.5,10.5 C 9.04376,12.3804 18.3771,14.2137 27.5,16C 33.7488,20.3047 38.7488,25.8047 42.5,32.5C 42.5,34.5 42.5,36.5 42.5,38.5C 45.9902,49.6592 49.1569,60.9926 52,72.5C 54,74.1667 56,75.8333 58,77.5C 59.6462,81.8783 60.8128,86.3783 61.5,91C 62.5353,92.2737 63.702,93.4404 65,94.5C 68.2861,103.034 71.9527,111.367 76,119.5C 78.2357,124.234 79.0691,129.067 78.5,134C 80.0824,137.996 82.0824,141.83 84.5,145.5C 84.2907,146.086 83.9574,146.586 83.5,147C 84.464,148.725 85.1307,150.559 85.5,152.5C 83.9899,150.678 82.6566,148.678 81.5,146.5C 79.7078,145.691 77.7078,145.191 75.5,145C 76.1874,142.768 76.5207,140.602 76.5,138.5C 75.2921,131.938 72.4588,126.272 68,121.5C 66.8042,113.332 63.8042,105.999 59,99.5C 58.1218,93.1292 55.9551,87.2959 52.5,82C 50.5975,81.8008 49.0975,80.9675 48,79.5C 47.1553,73.9648 45.3219,68.7981 42.5,64C 43.5013,61.3022 43.0013,58.8022 41,56.5C 40.2477,48.2901 38.581,40.2901 36,32.5C 33.8614,29.0607 31.3614,25.894 28.5,23C 25.9925,22.9071 23.8259,22.0738 22,20.5C 19.6016,21.0997 16.9349,21.0997 14,20.5C 9.76789,17.2727 4.93456,15.2727 -0.5,14.5C -0.5,13.1667 -0.5,11.8333 -0.5,10.5 Z"/></g>
<g><path style="opacity:1" fill="#18141c" d="M 165.5,78.5 C 166.031,82.7119 165.031,83.3785 162.5,80.5C 163.242,78.6503 164.242,77.9836 165.5,78.5 Z"/></g>
<g><path style="opacity:1" fill="#34273f" d="M 162.5,84.5 C 163.209,85.404 164.209,85.7373 165.5,85.5C 165.037,88.4824 164.704,91.4824 164.5,94.5C 157.469,93.3895 151.469,90.3895 146.5,85.5C 147.842,82.8342 149.675,80.5008 152,78.5C 154.928,79.7598 156.761,81.9265 157.5,85C 159.197,85.3845 160.863,85.2178 162.5,84.5 Z"/></g>
<g><path style="opacity:1" fill="#33263d" d="M 213.5,85.5 C 213.5,87.8333 213.5,90.1667 213.5,92.5C 211.963,95.9 210.13,99.2333 208,102.5C 206.5,98.6667 205,94.8333 203.5,91C 206.009,87.1472 207.842,82.9805 209,78.5C 210.524,80.8981 212.024,83.2314 213.5,85.5 Z"/></g>
<g><path style="opacity:1" fill="#372941" d="M 132.5,97.5 C 133.833,98.1667 134.833,99.1667 135.5,100.5C 133.5,103.833 131.5,107.167 129.5,110.5C 122.038,104.708 116.038,97.7084 111.5,89.5C 113.479,86.9014 115.479,84.2347 117.5,81.5C 121.789,87.4568 126.789,92.7901 132.5,97.5 Z"/></g>
<g><path style="opacity:1" fill="#352840" d="M 145.5,87.5 C 150.635,92.0674 156.635,95.0674 163.5,96.5C 162.99,100.884 162.157,105.218 161,109.5C 160.586,109.957 160.086,110.291 159.5,110.5C 151.582,107.874 144.249,104.208 137.5,99.5C 139.684,95.1189 142.35,91.1189 145.5,87.5 Z"/></g>
<g><path style="opacity:1" fill="#d0cdd2" d="M 206.5,62.5 C 207.821,67.0577 208.654,71.7243 209,76.5C 210.736,78.0632 212.236,79.7299 213.5,81.5C 214.354,82.6316 214.354,83.965 213.5,85.5C 212.024,83.2314 210.524,80.8981 209,78.5C 207.842,82.9805 206.009,87.1472 203.5,91C 205,94.8333 206.5,98.6667 208,102.5C 210.13,99.2333 211.963,95.9 213.5,92.5C 214.623,94.9787 214.623,97.312 213.5,99.5C 213.631,98.7611 213.464,98.0944 213,97.5C 212.163,99.8442 210.829,101.844 209,103.5C 208.204,106.039 208.371,108.372 209.5,110.5C 209.027,111.906 208.027,112.573 206.5,112.5C 206.662,110.473 206.495,108.473 206,106.5C 201.183,111.384 195.349,114.05 188.5,114.5C 188.549,117.374 188.216,120.208 187.5,123C 187.684,124.376 188.351,125.209 189.5,125.5C 188.791,126.404 187.791,126.737 186.5,126.5C 186.737,125.209 186.404,124.209 185.5,123.5C 186.038,121.883 186.371,120.216 186.5,118.5C 186.5,117.5 186.5,116.5 186.5,115.5C 181.833,115.5 177.167,115.5 172.5,115.5C 169.026,114.475 165.36,113.808 161.5,113.5C 161.101,117.116 160.101,120.45 158.5,123.5C 158.5,122.833 158.167,122.5 157.5,122.5C 158.037,119.357 159.037,116.357 160.5,113.5C 152.424,110.295 144.757,106.295 137.5,101.5C 134.727,104.71 132.727,108.377 131.5,112.5C 130.5,112.167 129.833,111.5 129.5,110.5C 131.5,107.167 133.5,103.833 135.5,100.5C 136.492,100.672 137.158,100.338 137.5,99.5C 144.249,104.208 151.582,107.874 159.5,110.5C 160.086,110.291 160.586,109.957 161,109.5C 162.157,105.218 162.99,100.884 163.5,96.5C 156.635,95.0674 150.635,92.0674 145.5,87.5C 145.328,86.5084 145.662,85.8417 146.5,85.5C 151.469,90.3895 157.469,93.3895 164.5,94.5C 164.704,91.4824 165.037,88.4824 165.5,85.5C 164.209,85.7373 163.209,85.404 162.5,84.5C 161.314,83.0387 161.314,81.7054 162.5,80.5C 165.031,83.3785 166.031,82.7119 165.5,78.5C 166.167,78.1667 166.833,77.8333 167.5,77.5C 167.5,79.5 167.5,81.5 167.5,83.5C 171.463,84.44 175.463,84.6067 179.5,84C 178.001,81.6721 176.334,79.5054 174.5,77.5C 175.167,77.1667 175.833,76.8333 176.5,76.5C 178.57,78.9639 180.404,81.6305 182,84.5C 185.039,83.3969 187.873,81.8969 190.5,80C 189.269,78.5952 187.936,77.4286 186.5,76.5C 187.167,76.5 187.5,76.1667 187.5,75.5C 189.229,76.1175 190.729,77.1175 192,78.5C 194.377,76.1349 195.21,73.4682 194.5,70.5C 190.235,69.5614 185.902,69.2281 181.5,69.5C 181.5,68.5 181.5,67.5 181.5,66.5C 186.003,67.1392 190.503,67.8059 195,68.5C 195.597,65.3188 195.097,62.3188 193.5,59.5C 194.833,59.5 195.5,58.8333 195.5,57.5C 197.782,61.487 199.448,65.8203 200.5,70.5C 202.799,71.6351 204.966,72.9684 207,74.5C 206.318,70.1085 205.151,65.7751 203.5,61.5C 203.772,59.7712 203.772,58.1045 203.5,56.5C 205.038,58.2433 206.038,60.2433 206.5,62.5 Z"/></g>
<g><path style="opacity:1" fill="#35293e" d="M 166.5,86.5 C 171.492,86.9992 176.492,87.4992 181.5,88C 183.404,90.8774 184.404,94.0441 184.5,97.5C 178.642,98.0125 172.975,97.3458 167.5,95.5C 166.516,92.5719 166.183,89.5719 166.5,86.5 Z"/></g>
<g><path style="opacity:1" fill="#35283f" d="M 192.5,82.5 C 196.123,84.1232 198.79,86.7899 200.5,90.5C 196.756,94.9308 192.09,96.5974 186.5,95.5C 185.805,92.7198 184.805,90.0531 183.5,87.5C 187.01,86.5824 190.01,84.9158 192.5,82.5 Z"/></g>
<g><path style="opacity:1" fill="#32273c" d="M 167.5,77.5 C 169.833,77.5 172.167,77.5 174.5,77.5C 176.334,79.5054 178.001,81.6721 179.5,84C 175.463,84.6067 171.463,84.44 167.5,83.5C 167.5,81.5 167.5,79.5 167.5,77.5 Z"/></g>
<g><path style="opacity:1" fill="#34273e" d="M 198.5,71.5 C 201.806,72.8202 204.806,74.6535 207.5,77C 206.359,81.0724 204.692,84.9058 202.5,88.5C 199.45,86.4509 197.117,83.7843 195.5,80.5C 197.371,77.7659 198.371,74.7659 198.5,71.5 Z"/></g>
<g><path style="opacity:1" fill="#35283f" d="M 200.5,92.5 C 201.376,92.3691 202.043,92.7025 202.5,93.5C 204.865,97.2129 205.698,101.213 205,105.5C 200.164,109.333 194.664,111.666 188.5,112.5C 188.46,107.807 188.127,103.141 187.5,98.5C 192.63,98.0217 196.963,96.0217 200.5,92.5 Z"/></g>
<g><path style="opacity:1" fill="#34273d" d="M 165.5,97.5 C 172.073,98.8039 178.74,99.8039 185.5,100.5C 186.439,104.765 186.772,109.098 186.5,113.5C 178.344,113.991 170.344,113.158 162.5,111C 163.596,106.541 164.596,102.041 165.5,97.5 Z"/></g>
<g><path style="opacity:1" fill="#291d36" d="M 213.5,99.5 C 212.02,103.07 210.687,106.737 209.5,110.5C 208.371,108.372 208.204,106.039 209,103.5C 210.829,101.844 212.163,99.8442 213,97.5C 213.464,98.0944 213.631,98.7611 213.5,99.5 Z"/></g>
<g><path style="opacity:1" fill="#372941" d="M 157.5,122.5 C 156.778,122.918 156.278,123.584 156,124.5C 147.259,121.713 139.093,117.713 131.5,112.5C 132.727,108.377 134.727,104.71 137.5,101.5C 144.757,106.295 152.424,110.295 160.5,113.5C 159.037,116.357 158.037,119.357 157.5,122.5 Z"/></g>
<g><path style="opacity:1" fill="#34283e" d="M 206.5,112.5 C 205.947,115.587 204.28,118.087 201.5,120C 197.637,122.122 193.637,123.955 189.5,125.5C 188.351,125.209 187.684,124.376 187.5,123C 188.216,120.208 188.549,117.374 188.5,114.5C 195.349,114.05 201.183,111.384 206,106.5C 206.495,108.473 206.662,110.473 206.5,112.5 Z"/></g>
<g><path style="opacity:1" fill="#372942" d="M 172.5,115.5 C 177.279,115.953 181.946,116.953 186.5,118.5C 186.371,120.216 186.038,121.883 185.5,123.5C 183.228,126.549 180.062,127.882 176,127.5C 170.977,126.997 165.977,126.33 161,125.5C 159.624,125.316 158.791,124.649 158.5,123.5C 160.101,120.45 161.101,117.116 161.5,113.5C 165.36,113.808 169.026,114.475 172.5,115.5 Z"/></g>
<g><path style="opacity:1" fill="#000000" d="M 172.5,115.5 C 177.167,115.5 181.833,115.5 186.5,115.5C 186.5,116.5 186.5,117.5 186.5,118.5C 181.946,116.953 177.279,115.953 172.5,115.5 Z"/></g>
<g><path style="opacity:1" fill="#1f192e" d="M -0.5,14.5 C 4.93456,15.2727 9.76789,17.2727 14,20.5C 16.9349,21.0997 19.6016,21.0997 22,20.5C 23.8259,22.0738 25.9925,22.9071 28.5,23C 31.3614,25.894 33.8614,29.0607 36,32.5C 38.581,40.2901 40.2477,48.2901 41,56.5C 43.0013,58.8022 43.5013,61.3022 42.5,64C 45.3219,68.7981 47.1553,73.9648 48,79.5C 49.0975,80.9675 50.5975,81.8008 52.5,82C 55.9551,87.2959 58.1218,93.1292 59,99.5C 63.8042,105.999 66.8042,113.332 68,121.5C 72.4588,126.272 75.2921,131.938 76.5,138.5C 76.5207,140.602 76.1874,142.768 75.5,145C 77.7078,145.191 79.7078,145.691 81.5,146.5C 79.5,146.5 77.5,146.5 75.5,146.5C 73.9743,147.105 72.9743,148.271 72.5,150C 73.3995,152.192 74.3995,154.358 75.5,156.5C 74.9747,157.192 74.3081,157.692 73.5,158C 75.0441,158.29 76.3774,158.956 77.5,160C 75.1788,160.837 72.8454,161.17 70.5,161C 71.807,159.057 71.807,157.223 70.5,155.5C 69.7992,153.412 68.7992,151.412 67.5,149.5C 67.4226,148.25 66.756,147.417 65.5,147C 67.7151,145.057 67.7151,143.391 65.5,142C 67.0135,139.084 66.6801,136.418 64.5,134C 64.4225,130.395 64.4225,126.729 64.5,123C 61.776,123.138 59.4427,123.638 57.5,124.5C 56.8076,123.975 56.3076,123.308 56,122.5C 54.1598,123.833 53.6598,123.666 54.5,122C 53.0692,121.535 51.9025,120.701 51,119.5C 50.6667,119.833 50.3333,120.167 50,120.5C 50.5219,118.951 50.3553,117.451 49.5,116C 47.2832,113.757 45.4499,111.257 44,108.5C 43.7537,105.11 43.2537,101.777 42.5,98.5C 43.0736,96.9411 43.7402,95.4411 44.5,94C 43.8084,89.1987 43.1418,84.3654 42.5,79.5C 42.9867,78.5539 43.3201,77.5539 43.5,76.5C 39.9171,64.7531 37.4171,52.7531 36,40.5C 33.4608,36.0858 31.4608,31.4191 30,26.5C 29,25.5 28,24.5 27,23.5C 21.36,25.6275 15.5267,26.4609 9.5,26C 5.23853,23.4072 1.9052,20.5738 -0.5,17.5C -0.5,16.5 -0.5,15.5 -0.5,14.5 Z"/></g>
<g><path style="opacity:1" fill="#f1f0f1" d="M 287.5,144.5 C 292.522,154.55 297.022,164.884 301,175.5C 301.977,177.74 302.477,180.073 302.5,182.5C 297.541,182.99 294.874,180.656 294.5,175.5C 289.88,174.507 285.214,174.173 280.5,174.5C 280.617,180.89 277.617,183.39 271.5,182C 277.001,169.507 282.334,157.007 287.5,144.5 Z"/></g>
<g><path style="opacity:1" fill="#edecee" d="M 41.5,148.5 C 41.8016,151.059 41.4682,153.393 40.5,155.5C 29.677,149.607 23.677,152.941 22.5,165.5C 23.2822,174.778 28.2822,178.612 37.5,177C 38.9814,176.02 40.3147,174.853 41.5,173.5C 42.48,176.086 42.8134,178.753 42.5,181.5C 23.473,186.019 14.973,178.352 17,158.5C 21.8458,146.993 30.0124,143.66 41.5,148.5 Z"/></g>
<g><path style="opacity:1" fill="#f3f3f4" d="M 67.5,149.5 C 68.7992,151.412 69.7992,153.412 70.5,155.5C 70.6202,161.097 68.2869,165.264 63.5,168C 66.8943,172.398 69.8943,177.065 72.5,182C 70.1667,182.667 67.8333,182.667 65.5,182C 62.9337,177.684 60.2671,173.517 57.5,169.5C 56.4988,173.06 56.1655,177.393 56.5,182.5C 54.8333,182.5 53.1667,182.5 51.5,182.5C 51.5,170.5 51.5,158.5 51.5,146.5C 57.1415,146.05 62.4749,147.05 67.5,149.5 Z"/></g>
<g><path style="opacity:1" fill="#ecebed" d="M 75.5,146.5 C 77.5,146.5 79.5,146.5 81.5,146.5C 82.6566,148.678 83.9899,150.678 85.5,152.5C 86.1283,155.09 87.295,157.423 89,159.5C 91.256,155.581 93.4227,151.581 95.5,147.5C 97.8333,146.167 100.167,146.167 102.5,147.5C 98.7451,154.009 95.2451,160.676 92,167.5C 91.5007,172.489 91.3341,177.489 91.5,182.5C 89.5,182.5 87.5,182.5 85.5,182.5C 85.6661,176.824 85.4994,171.157 85,165.5C 81.3262,159.486 78.1596,153.152 75.5,146.5 Z"/></g>
<g><path style="opacity:1" fill="#f6f6f7" d="M 119.5,168.5 C 117.833,168.5 116.167,168.5 114.5,168.5C 114.5,173.167 114.5,177.833 114.5,182.5C 112.833,182.5 111.167,182.5 109.5,182.5C 109.5,170.5 109.5,158.5 109.5,146.5C 113.936,146.21 118.27,146.71 122.5,148C 127.155,151.745 128.655,156.578 127,162.5C 125.52,165.817 123.02,167.817 119.5,168.5 Z"/></g>
<g><path style="opacity:1" fill="#eeecee" d="M 132.5,146.5 C 139.167,146.5 145.833,146.5 152.5,146.5C 152.5,148.5 152.5,150.5 152.5,152.5C 150.167,152.5 147.833,152.5 145.5,152.5C 145.5,162.5 145.5,172.5 145.5,182.5C 143.5,182.5 141.5,182.5 139.5,182.5C 139.5,172.5 139.5,162.5 139.5,152.5C 137.167,152.5 134.833,152.5 132.5,152.5C 132.5,150.5 132.5,148.5 132.5,146.5 Z"/></g>
<g><path style="opacity:1" fill="#f1f0f1" d="M 169.5,146.5 C 187.185,146.127 194.352,154.793 191,172.5C 185.241,183.309 176.741,186.142 165.5,181C 157.162,172.976 155.662,163.809 161,153.5C 163.441,150.546 166.275,148.213 169.5,146.5 Z"/></g>
<g><path style="opacity:1" fill="#f5f4f5" d="M 210.5,147.5 C 217.363,148.191 221.863,151.858 224,158.5C 226.757,168.809 223.59,176.643 214.5,182C 209.511,182.499 204.511,182.666 199.5,182.5C 199.5,170.833 199.5,159.167 199.5,147.5C 203.167,147.5 206.833,147.5 210.5,147.5 Z"/></g>
<g><path style="opacity:1" fill="#948e98" d="M 237.5,147.5 C 235.833,147.5 234.167,147.5 232.5,147.5C 232.5,159.167 232.5,170.833 232.5,182.5C 231.505,170.678 231.172,158.678 231.5,146.5C 233.735,146.205 235.735,146.539 237.5,147.5 Z"/></g>
<g><path style="opacity:1" fill="#fcfcfc" d="M 237.5,147.5 C 237.5,159.167 237.5,170.833 237.5,182.5C 235.833,182.5 234.167,182.5 232.5,182.5C 232.5,170.833 232.5,159.167 232.5,147.5C 234.167,147.5 235.833,147.5 237.5,147.5 Z"/></g>
<g><path style="opacity:1" fill="#ecebed" d="M 244.5,146.5 C 246.792,146.244 248.959,146.577 251,147.5C 253.663,154.822 256.33,162.156 259,169.5C 261.944,162.161 264.777,154.828 267.5,147.5C 269.396,146.534 271.396,146.201 273.5,146.5C 269.635,159.761 264.968,172.761 259.5,185.5C 254.089,172.722 249.089,159.722 244.5,146.5 Z"/></g>
<g><path style="opacity:1" fill="#99949c" d="M 210.5,147.5 C 206.833,147.5 203.167,147.5 199.5,147.5C 199.5,159.167 199.5,170.833 199.5,182.5C 198.505,170.678 198.172,158.678 198.5,146.5C 202.702,146.183 206.702,146.517 210.5,147.5 Z"/></g>
<g><path style="opacity:1" fill="#938e97" d="M 41.5,148.5 C 41.8333,148.5 42.1667,148.5 42.5,148.5C 42.5,151.167 42.5,153.833 42.5,156.5C 41.5084,156.672 40.8417,156.338 40.5,155.5C 41.4682,153.393 41.8016,151.059 41.5,148.5 Z"/></g>
<g><path style="opacity:1" fill="#8f8b93" d="M 57.5,152.5 C 57.5,155.833 57.5,159.167 57.5,162.5C 58.5,162.5 59.5,162.5 60.5,162.5C 59.4324,163.434 58.099,163.768 56.5,163.5C 56.185,159.629 56.5184,155.962 57.5,152.5 Z"/></g>
<g><path style="opacity:1" fill="#382b42" d="M 170.5,152.5 C 182.968,152.461 187.801,158.461 185,170.5C 180.365,178.078 174.365,179.411 167,174.5C 161.514,166.014 162.68,158.68 170.5,152.5 Z"/></g>
<g><path style="opacity:1" fill="#382943" d="M 204.5,152.5 C 216.674,153.508 220.841,159.841 217,171.5C 216.535,172.931 215.701,174.097 214.5,175C 211.382,176.727 208.049,177.561 204.5,177.5C 204.5,169.167 204.5,160.833 204.5,152.5 Z"/></g>
<g><path style="opacity:1" fill="#191620" d="M 57.5,152.5 C 62.3685,152.529 64.5352,154.863 64,159.5C 63.5776,161.426 62.4109,162.426 60.5,162.5C 59.5,162.5 58.5,162.5 57.5,162.5C 57.5,159.167 57.5,155.833 57.5,152.5 Z"/></g>
<g><path style="opacity:1" fill="#3f3249" d="M 114.5,152.5 C 121.606,152.556 123.606,155.556 120.5,161.5C 118.677,162.747 116.677,163.414 114.5,163.5C 114.5,159.833 114.5,156.167 114.5,152.5 Z"/></g>
<g><path style="opacity:1" fill="#382c42" d="M 287.5,159.5 C 289.33,161.826 290.663,164.493 291.5,167.5C 289.257,168.474 286.924,168.808 284.5,168.5C 284.741,165.185 285.741,162.185 287.5,159.5 Z"/></g>
<g><path style="opacity:1" fill="#736d77" d="M 119.5,168.5 C 118.432,169.434 117.099,169.768 115.5,169.5C 115.818,174.032 115.485,178.366 114.5,182.5C 114.5,177.833 114.5,173.167 114.5,168.5C 116.167,168.5 117.833,168.5 119.5,168.5 Z"/></g>
<g><path style="opacity:1" fill="#87828b" d="M 57.5,169.5 C 57.5,174.167 57.5,178.833 57.5,183.5C 55.2646,183.795 53.2646,183.461 51.5,182.5C 53.1667,182.5 54.8333,182.5 56.5,182.5C 56.1655,177.393 56.4988,173.06 57.5,169.5 Z"/></g>
<g><path style="opacity:1" fill="#181322" d="M 42.5,148.5 C 42.1667,148.5 41.8333,148.5 41.5,148.5C 30.0124,143.66 21.8458,146.993 17,158.5C 14.973,178.352 23.473,186.019 42.5,181.5C 42.8134,178.753 42.48,176.086 41.5,173.5C 40.3147,174.853 38.9814,176.02 37.5,177C 28.2822,178.612 23.2822,174.778 22.5,165.5C 23.677,152.941 29.677,149.607 40.5,155.5C 40.8417,156.338 41.5084,156.672 42.5,156.5C 41.3398,157.265 40.3398,158.265 39.5,159.5C 41.0194,161.556 41.8528,163.89 42,166.5C 45.9774,170.977 47.6441,176.31 47,182.5C 51.8148,185.818 56.3148,189.485 60.5,193.5C 61.0512,195.413 61.2179,197.413 61,199.5C 62.4413,200.87 64.108,201.87 66,202.5C 66.8184,205.227 66.6517,207.894 65.5,210.5C 65.1667,209.833 64.8333,209.167 64.5,208.5C 62.0197,209.415 61.3531,210.915 62.5,213C 61.1279,214.242 60.1279,215.742 59.5,217.5C 61.1938,219.554 62.3605,221.888 63,224.5C 64.0495,223.483 65.2161,223.316 66.5,224C 66.7066,227.873 66.7066,232.04 66.5,236.5C 44.1667,236.5 21.8333,236.5 -0.5,236.5C -0.5,181.167 -0.5,125.833 -0.5,70.5C 0.28997,71.6085 0.78997,72.9419 1,74.5C 1.24917,73.376 1.74917,72.376 2.5,71.5C 3.79901,78.8606 3.79901,86.1939 2.5,93.5C 4.23507,99.0156 6.0684,99.3489 8,94.5C 8.33333,95.1667 8.66667,95.8333 9,96.5C 10.5122,95.7433 11.8455,94.7433 13,93.5C 13.5,94 14,94.5 14.5,95C 12.7448,95.7199 11.9115,96.8866 12,98.5C 14.3858,97.2367 16.2192,95.4033 17.5,93C 16.6721,92.0853 15.6721,91.4186 14.5,91C 15.5,90 16.5,89 17.5,88C 19.447,88.5356 21.447,88.2022 23.5,87C 22.8333,86 22.1667,85 21.5,84C 22.4491,83.3828 23.2825,83.5494 24,84.5C 24.3076,83.6919 24.8076,83.0253 25.5,82.5C 26.7185,71.168 26.7185,59.8346 25.5,48.5C 25.6667,46.8333 25.8333,45.1667 26,43.5C 26.3333,44.1667 26.6667,44.8333 27,45.5C 27.3333,39.5 27.6667,33.5 28,27.5C 28.3135,34.0167 28.8135,40.5167 29.5,47C 28.5782,51.1154 28.2448,55.1154 28.5,59C 30.5957,61.9132 32.7624,62.0799 35,59.5C 37.5706,68.5234 38.0706,77.6901 36.5,87C 36.3047,89.7927 36.9713,92.2927 38.5,94.5C 37.1353,96.7508 37.4686,98.7508 39.5,100.5C 39.9583,109.667 39.9583,118.833 39.5,128C 41.2975,134.911 42.2975,141.744 42.5,148.5 Z"/></g>
<g><path style="opacity:1" fill="#b0abb4" d="M 154.5,196.5 C 155.5,196.5 156.5,196.5 157.5,196.5C 157.5,197.5 157.5,198.5 157.5,199.5C 156.5,199.5 155.5,199.5 154.5,199.5C 154.5,198.5 154.5,197.5 154.5,196.5 Z"/></g>
<g><path style="opacity:1" fill="#8b858f" d="M 156.5,201.5 C 160.371,201.185 164.038,201.518 167.5,202.5C 166.209,202.263 165.209,202.596 164.5,203.5C 163.833,203.5 163.167,203.5 162.5,203.5C 161.167,202.167 159.833,202.167 158.5,203.5C 157.539,205.265 157.205,207.265 157.5,209.5C 156.527,207.052 156.194,204.385 156.5,201.5 Z"/></g>
<g><path style="opacity:1" fill="#e3e1e4" d="M 180.5,197.5 C 183.304,196.362 186.304,196.195 189.5,197C 191.037,198.11 191.703,199.61 191.5,201.5C 193.467,201.261 195.301,201.594 197,202.5C 197.497,204.81 197.663,207.143 197.5,209.5C 198.5,209.5 199.5,209.5 200.5,209.5C 200.756,207.208 200.423,205.041 199.5,203C 202.83,202.588 205.83,201.422 208.5,199.5C 211.661,201.692 214.994,202.526 218.5,202C 220.34,204.826 221.006,207.993 220.5,211.5C 215.974,211.335 211.641,211.168 207.5,211C 206.726,208.595 206.226,206.095 206,203.5C 205,203.833 204,204.167 203,204.5C 202.221,206.807 202.721,208.807 204.5,210.5C 200.217,211.492 195.884,211.826 191.5,211.5C 191.188,208.112 192.521,205.612 195.5,204C 194.451,203.508 193.451,203.674 192.5,204.5C 191.808,203.975 191.308,203.308 191,202.5C 189.211,204.229 187.044,204.896 184.5,204.5C 184.229,206.821 184.896,208.821 186.5,210.5C 184.167,211.833 181.833,211.833 179.5,210.5C 180.694,208.377 181.36,206.043 181.5,203.5C 181.495,201.304 181.162,199.304 180.5,197.5 Z"/></g>
<g><path style="opacity:1" fill="#2a2031" d="M 187.5,198.5 C 188.954,200.263 188.62,201.597 186.5,202.5C 185.876,202.083 185.543,201.416 185.5,200.5C 185.747,199.287 186.414,198.62 187.5,198.5 Z"/></g>
<g><path style="opacity:1" fill="#7d7781" d="M 187.5,198.5 C 186.414,198.62 185.747,199.287 185.5,200.5C 185.543,201.416 185.876,202.083 186.5,202.5C 186.44,203.043 186.107,203.376 185.5,203.5C 184.534,201.604 184.201,199.604 184.5,197.5C 185.791,197.263 186.791,197.596 187.5,198.5 Z"/></g>
<g><path style="opacity:1" fill="#e5e3e6" d="M 223.5,201.5 C 227.287,201.78 230.953,201.78 234.5,201.5C 235.583,202.365 235.749,203.365 235,204.5C 234.586,204.043 234.086,203.709 233.5,203.5C 232.276,205.828 232.276,208.161 233.5,210.5C 230.102,210.857 226.768,211.024 223.5,211C 220.888,207.836 220.888,204.669 223.5,201.5 Z"/></g>
<g><path style="opacity:1" fill="#d4d1d5" d="M 92.5,195.5 C 93.7079,196.234 95.0413,196.567 96.5,196.5C 96.7852,198.288 96.4519,199.955 95.5,201.5C 94.0845,198.041 91.7512,197.041 88.5,198.5C 87.3452,201.446 87.1786,204.446 88,207.5C 89.4178,209.363 91.2511,209.863 93.5,209C 94.9298,206.191 96.9298,203.857 99.5,202C 102.14,201.161 104.473,201.661 106.5,203.5C 109.611,200.951 112.611,200.951 115.5,203.5C 115.5,204.833 115.5,206.167 115.5,207.5C 115.64,209.124 114.973,210.29 113.5,211C 110.472,212.14 108.305,211.306 107,208.5C 105.961,209.71 104.794,210.71 103.5,211.5C 101.278,211.822 99.4443,211.155 98,209.5C 93.3037,212.475 88.9704,212.142 85,208.5C 82.0286,200.872 84.5286,196.538 92.5,195.5 Z"/></g>
<g><path style="opacity:1" fill="#dad8db" d="M 133.5,209.5 C 130.365,212.347 127.532,212.014 125,208.5C 124.072,211.035 122.238,212.035 119.5,211.5C 119.421,212.93 119.754,214.264 120.5,215.5C 118.833,216.833 117.167,216.833 115.5,215.5C 115.624,214.893 115.957,214.56 116.5,214.5C 117.161,212.866 117.494,211.033 117.5,209C 117.453,206.705 116.787,204.871 115.5,203.5C 116.334,202.252 117.667,201.585 119.5,201.5C 122.224,201.046 124.057,202.046 125,204.5C 128.522,200.185 131.022,200.518 132.5,205.5C 131.167,205.5 129.833,205.5 128.5,205.5C 128.33,206.822 128.663,207.989 129.5,209C 131.019,208.669 132.352,208.836 133.5,209.5 Z"/></g>
<g><path style="opacity:1" fill="#dbd9dc" d="M 169.5,201.5 C 172.288,201.077 174.288,202.077 175.5,204.5C 173.955,205.452 172.288,205.785 170.5,205.5C 170.33,206.822 170.663,207.989 171.5,209C 172.951,208.737 174.284,208.904 175.5,209.5C 173.085,212.128 170.585,212.128 168,209.5C 167.282,206.593 167.782,203.926 169.5,201.5 Z"/></g>
<g><path style="opacity:1" fill="#33263c" d="M 109.5,203.5 C 113.35,203.701 114.35,205.534 112.5,209C 111.552,209.483 110.552,209.649 109.5,209.5C 109.5,207.5 109.5,205.5 109.5,203.5 Z"/></g>
<g><path style="opacity:1" fill="#33223e" d="M 215.5,203.5 C 217.308,204.918 217.975,206.918 217.5,209.5C 216.5,209.5 215.5,209.5 214.5,209.5C 214.325,207.379 214.659,205.379 215.5,203.5 Z"/></g>
<g><path style="opacity:1" fill="#292430" d="M 100.5,203.5 C 101.5,203.5 102.5,203.5 103.5,203.5C 103.5,205.5 103.5,207.5 103.5,209.5C 99.5564,209.116 98.5564,207.116 100.5,203.5 Z"/></g>
<g><path style="opacity:1" fill="#e7e5e8" d="M 158.5,203.5 C 159.833,202.167 161.167,202.167 162.5,203.5C 162.737,207.289 163.404,207.289 164.5,203.5C 165.209,202.596 166.209,202.263 167.5,202.5C 166.287,205.637 164.787,208.637 163,211.5C 161.74,208.641 160.24,205.974 158.5,203.5 Z"/></g>
<g><path style="opacity:1" fill="#171226" d="M 162.5,203.5 C 163.167,203.5 163.833,203.5 164.5,203.5C 163.404,207.289 162.737,207.289 162.5,203.5 Z"/></g>
<g><path style="opacity:1" fill="#3b3045" d="M 228.5,203.5 C 229.693,203.97 230.36,204.97 230.5,206.5C 230.167,207.5 229.833,208.5 229.5,209.5C 228.28,208.289 227.113,208.289 226,209.5C 224.978,208.646 224.145,207.646 223.5,206.5C 225.655,205.999 227.322,204.999 228.5,203.5 Z"/></g>
<g><path style="opacity:1" fill="#2f2832" d="M 119.5,203.5 C 120.496,203.414 121.329,203.748 122,204.5C 122.798,206.259 122.631,207.926 121.5,209.5C 119.717,207.977 119.051,205.977 119.5,203.5 Z"/></g>
<g><path style="opacity:1" fill="#dddbdf" d="M 156.5,201.5 C 156.194,204.385 156.527,207.052 157.5,209.5C 158.043,209.56 158.376,209.893 158.5,210.5C 157,210.833 155.5,211.167 154,211.5C 149.481,211.402 144.981,211.402 140.5,211.5C 140.269,208.215 141.603,205.715 144.5,204C 144.167,203.833 143.833,203.667 143.5,203.5C 141.629,204.767 139.796,204.767 138,203.5C 135.935,206.045 136.102,208.379 138.5,210.5C 137.667,210.833 136.833,211.167 136,211.5C 134.624,211.316 133.791,210.649 133.5,209.5C 134.811,207.44 134.811,205.274 133.5,203C 134.025,202.308 134.692,201.808 135.5,201.5C 138.618,202.483 141.951,202.65 145.5,202C 146.12,204.473 146.786,206.973 147.5,209.5C 148.016,205.95 149.016,202.617 150.5,199.5C 152.179,201.104 154.179,201.771 156.5,201.5 Z"/></g>
<g><path style="opacity:1" fill="#1c1624" d="M 151.5,203.5 C 152.5,203.5 153.5,203.5 154.5,203.5C 154.849,206.045 154.016,208.045 152,209.5C 151.505,207.527 151.338,205.527 151.5,203.5 Z"/></g>
<g><path style="opacity:1" fill="#23162d" d="M 209.5,203.5 C 210.496,203.414 211.329,203.748 212,204.5C 212.667,206.167 212.667,207.833 212,209.5C 211.333,208.167 210.667,208.167 210,209.5C 209.505,207.527 209.338,205.527 209.5,203.5 Z"/></g>
<g><path style="opacity:1" fill="#260f30" d="M 142.5,207.5 C 144.337,207.639 144.67,208.306 143.5,209.5C 142.702,209.043 142.369,208.376 142.5,207.5 Z"/></g>
<g><path style="opacity:1" fill="#1f1131" d="M 193.5,207.5 C 195.337,207.639 195.67,208.306 194.5,209.5C 193.702,209.043 193.369,208.376 193.5,207.5 Z"/></g>
<g><path style="opacity:1" fill="#88828b" d="M 115.5,203.5 C 116.787,204.871 117.453,206.705 117.5,209C 117.494,211.033 117.161,212.866 116.5,214.5C 116.802,211.941 116.468,209.607 115.5,207.5C 115.5,206.167 115.5,204.833 115.5,203.5 Z"/></g>
</svg>
