<?xml version="1.0"?><svg xmlns="http://www.w3.org/2000/svg" width="36" height="36" shape-rendering="geometricPrecision" text-rendering="geometricPrecision" image-rendering="optimizeQuality" fill-rule="evenodd" clip-rule="evenodd" viewBox="0 0 36 36"><path fill="#3a2b44" d="m-0.1 4.6h36v26.7h-24c-0.1-1-0.3-1.9-0.7-2.7 0.2 0 0.3 0 0.4-0.1 0.2-0.1 0.3-0.2 0.4-0.4 0.2 0.3 0.4 0.4 0.8 0.3 0.1-0.1 0.2-0.2 0.2-0.4 0.1 0.2 0.1 0.5 0.1 0.8-0.1 0-0.1 0-0.1 0.1 0.2 0.2 0.4 0.2 0.6 0-0.1-0.1-0.2-0.3-0.2-0.4 0.4 0 0.6-0.1 0.7-0.4 0.2 0.4 0.6 0.5 0.9 0.1-0.1 0-0.3-0.1-0.4 0-0.1-0.1-0.2-0.3-0.1-0.4h0.4c-0.2-0.6-0.4-0.6-0.8-0.1-0.1-0.3-0.3-0.4-0.7-0.4-0.2 0-0.3 0.1-0.4 0.3-0.3-0.3-0.7-0.3-1 0-0.2-0.2-0.5-0.3-0.8-0.2-0.3 0.2-0.5 0.5-0.7 0.8-0.2 0.1-0.4 0-0.6-0.2-0.1-0.3-0.1-0.7 0.1-1 0.3-0.2 0.6-0.1 0.7 0.3 0.2-0.1 0.2-0.3 0.2-0.5-0.2 0-0.4-0.1-0.5-0.1-0.1-0.1-0.3-0.2-0.4-0.2l0.4-0.1c-0.1-0.3-0.2-0.6-0.3-0.9l0.2-0.1c-0.3-0.1-0.5-0.1-0.7-0.2h0.7c0-0.6 0-1.1 0.1-1.7 0.3-0.8 0.7-1.5 1.1-2.2-0.2-0.2-0.5-0.2-0.8 0-0.2 0.4-0.4 0.9-0.7 1.3-0.2-0.2-0.3-0.5-0.4-0.8 0-0.2-0.1-0.4-0.2-0.6 0 0 0.1-0.1 0.1-0.2-0.3-0.4-0.5-0.8-0.7-1.3 0.1-0.5 0-1.1-0.2-1.6-0.5-0.9-0.9-1.8-1.3-2.8-0.1-0.1-0.3-0.3-0.4-0.4-0.1-0.5-0.2-1-0.4-1.5l-0.6-0.6c-0.4-1.3-0.7-2.5-1.1-3.8v-0.7c-0.4-0.7-1-1.3-1.7-1.8-1-0.2-2.1-0.4-3.2-0.6v-1.3z"></path><path fill="#1c1628" d="m-0.1 6.6c0.3 0.4 0.7 0.7 1.2 1 0.6 0 1.3 0 1.9-0.3l0.4 0.4c0.1 0.5 0.4 1 0.6 1.5 0.2 1.4 0.5 2.8 0.9 4.1 0 0.1-0.1 0.2-0.1 0.3 0.1 0.6 0.1 1.1 0.2 1.6-0.1 0.2-0.2 0.4-0.2 0.5 0.1 0.4 0.1 0.8 0.2 1.2 0.1 0.3 0.3 0.6 0.6 0.8 0.1 0.2 0.1 0.4 0 0.5l0.1-0.1c0.1 0.1 0.3 0.2 0.4 0.3-0.1 0.2 0 0.2 0.2 0 0 0.1 0.1 0.2 0.2 0.3 0.2-0.1 0.4-0.2 0.8-0.2-0.1 0.4-0.1 0.8 0 1.2 0.2 0.3 0.2 0.6 0.1 0.9 0.2 0.2 0.2 0.4 0 0.6 0.1 0.1 0.2 0.1 0.2 0.3-0.6-0.3-1.2-0.4-1.8-0.3v4c0.2 0.1 0.4 0.1 0.7 0.1v-1.6c0.3 0.5 0.6 1 0.9 1.4 0.2 0.1 0.5 0.1 0.8 0-0.3-0.5-0.7-1-1.1-1.5 0.6-0.3 0.8-0.8 0.8-1.4 0.2 0.2 0.2 0.4 0 0.6 0.3 0 0.6 0 0.8-0.1-0.1-0.1-0.3-0.2-0.4-0.3 0.1 0 0.1 0 0.2-0.1-0.1-0.3-0.2-0.5-0.3-0.8 0-0.2 0.1-0.3 0.3-0.3 0.3 0.7 0.6 1.4 1.1 2.1 0 0.6 0 1.3 0 1.9 0.2 0.1 0.4 0.1 0.7 0.2l-0.2 0.1c0.1 0.3 0.2 0.6 0.3 0.9l-0.4 0.1c0.1 0 0.3 0.1 0.4 0.2-0.9 0.1-1.2 0.6-0.8 1.4 0.4 0.4 0.9 0.5 1.4 0.1 0.2 0.2 0.4 0.3 0.6 0.3-0.1 0.1-0.2 0.1-0.4 0.1 0.4 0.8 0.6 1.7 0.7 2.7h-4.4c0-0.5 0-1 0-1.4-0.2-0.1-0.3-0.1-0.4 0-0.1-0.3-0.2-0.5-0.4-0.8 0.1-0.2 0.2-0.3 0.3-0.5-0.1-0.2 0-0.4 0.3-0.5l0.1 0.2c0.1-0.2 0.1-0.5 0-0.9-0.2 0-0.4-0.1-0.5-0.3 0-0.2 0-0.4-0.1-0.7-0.5-0.4-1-0.8-1.5-1.2 0.1-0.7-0.1-1.3-0.6-1.8 0-0.3-0.1-0.6-0.3-0.8 0.1-0.1 0.3-0.2 0.4-0.3v-0.9c0-0.8-0.2-1.6-0.4-2.3 0.1-1.1 0.1-2.1 0-3.1-0.2-0.2-0.2-0.4-0.1-0.7-0.1-0.2-0.2-0.5-0.2-0.8 0.2-1.1 0.1-2.1-0.2-3.1-0.2 0.3-0.5 0.2-0.7-0.1 0-0.4 0-0.9 0.1-1.3-0.1-0.8-0.1-1.5-0.1-2.2l-0.2 2-0.1-0.2 0 0.5c0.1 1.3 0.1 2.6 0 3.9-0.1 0-0.2 0.1-0.2 0.2-0.1-0.1-0.2-0.2-0.3-0.1l0.2 0.4c-0.2 0.1-0.4 0.1-0.6 0.1l-0.4 0.3c0.2 0.1 0.3 0.1 0.4 0.2-0.2 0.3-0.4 0.5-0.6 0.7-0.1-0.2 0-0.4 0.2-0.4l-0.1-0.2c-0.2 0.1-0.3 0.2-0.5 0.3l-0.1-0.2c-0.2 0.5-0.4 0.5-0.6-0.1 0.1-0.8 0.1-1.7 0-2.5-0.1 0.1-0.2 0.2-0.2 0.4 0-0.2-0.1-0.4-0.2-0.5v-6z"></path><path fill="#e6e4e7" d="m15.7 7.5c3.3-0.3 5.8 0.9 7.7 3.5 1.2 2.1 1.4 4.2 0.4 6.4-0.9 1.4-2.3 2.1-4 2.1-4-0.3-6.7-2.3-8.2-6-0.3-2.6 0.8-4.5 3.2-5.7 0.3 0 0.6-0.1 0.9-0.3z"></path><path fill="#292130" d="m16.1 8c-0.4 0.1-0.9 0.4-1.3 0.7-0.3 0.1-0.6 0.1-0.8 0 0.7-0.4 1.4-0.6 2.1-0.7z"></path><path fill="#d1cdd2" d="m18.6 8.3c-0.6-0.1-1.2-0.2-1.8-0.1l0.2 0.3c0.6 0 1.2 0.1 1.7 0.2v-0.4l0.3 0.5c0.5 0.1 1.1 0.4 1.5 0.8-0.1-0.1-0.2 0-0.2 0.1-0.4-0.2-0.7-0.3-1.1-0.5-0.2 0.4-0.3 0.8-0.3 1.3 0.2 0.1 0.4 0.2 0.6 0.3 0.3-0.3 0.6-0.6 0.9-0.9 0.1 0 0.2 0 0.2 0.1-0.1 0-0.3 0.1-0.3 0.2-0.2 0.3-0.4 0.6-0.6 0.8-0.3-0.1-0.4 0-0.1 0.3-0.2 0.2-0.4 0.4-0.6 0.7-0.1 0.2-0.1 0.3-0.1 0.5 0.3-0.3 0.7-0.6 1.1-0.8l0.2 0.2c-0.4 0.1-0.7 0.3-1 0.6 0.2 0 0.4 0 0.7-0.1v0.1l-0.5 0.3c0.1 0.1 0.3 0.2 0.5 0.2-0.3 0.2-0.6 0.2-0.9 0l0.1-0.1c-0.2-0.2-0.3-0.4-0.4-0.6 0.2-0.4 0.4-0.8 0.6-1.1-0.1-0.2-0.2-0.3-0.4-0.4-0.2 0.5-0.3 0.9-0.4 1.4 0-0.2 0-0.3-0.1-0.4 0.1-0.4 0.2-0.7 0.2-1.1v-0.2c0.1-0.5 0.2-0.9 0.2-1.4l-1-0.2c-0.1 0.1-0.2 0.1-0.3 0.2 0.2 0.4 0.3 0.8 0.4 1.2 0.3 0 0.4 0.1 0.6 0.2h-0.7c-0.1-0.5-0.3-0.9-0.5-1.4-0.4 0-0.7 0.1-1 0.4 0.3 0.4 0.7 0.8 1.2 1.1-0.2 0.1-0.3 0.2-0.5 0.3-0.1-0.6-0.4-1-1-1.2-0.2 0.2-0.3 0.5-0.3 0.9-0.1-0.1-0.2-0.2-0.3-0.2 0-0.4 0.1-0.7 0.3-1-0.4-0.3-0.8-0.3-1.2-0.1-0.2 0.3-0.3 0.5-0.4 0.8 0-0.1 0-0.2-0.1-0.2 0.1-0.3 0.2-0.6 0.5-0.8-0.2-0.1-0.4-0.1-0.6-0.1 0-0.1 0-0.3 0.1-0.3 0.2 0.1 0.5 0.1 0.8 0 0.4-0.3 0.9-0.6 1.3-0.7 0.2 0 0.2 0 0.3 0.1 0.2-0.1 0.5-0.2 0.8-0.2 0.4 0 0.9 0.1 1.3 0.1 0.1 0.1 0.1 0.2 0.1 0.3z"></path><path fill="#32273c" d="m16.1 8.2c0.4 0 0.7 0.1 0.8 0.4-0.3 0.2-0.7 0.4-1 0.6-0.3-0.1-0.6-0.2-0.9-0.4 0.4-0.2 0.8-0.4 1.1-0.6z"></path><path fill="#2e253a" d="m18.6 8.3h0.1v0.4c-0.5-0.1-1.1-0.2-1.7-0.2l-0.2-0.3c0.6-0.1 1.2 0 1.8 0.1z"></path><path fill="#32263d" d="m20.5 9.6c-0.4-0.4-1-0.7-1.5-0.8-0.1-0.2 0-0.3 0.1-0.4 0.6 0.3 1.2 0.6 1.8 1-0.1 0.1-0.2 0.2-0.4 0.2z"></path><path fill="#362a40" d="m15.4 10.3c-0.4 0.1-0.8 0.1-1.2 0.2-0.1-0.1-0.1-0.2-0.1-0.4 0.1-0.3 0.2-0.5 0.4-0.8 0.4-0.2 0.8-0.2 1.2 0.1-0.2 0.3-0.3 0.6-0.3 1z"></path><path fill="#32273d" d="m17.8 10.5c-0.1-0.1-0.2 0-0.3 0.1-0.5-0.3-0.9-0.7-1.2-1.1 0.3-0.3 0.6-0.4 1-0.4 0.2 0.5 0.4 0.9 0.5 1.4z"></path><path fill="#34273d" d="m18.6 10.5h-0.1c-0.2-0.1-0.3-0.2-0.6-0.2-0.1-0.4-0.2-0.8-0.4-1.2 0.1-0.1 0.2-0.1 0.3-0.2l1 0.2c0 0.5-0.1 0.9-0.2 1.4z"></path><path fill="#32263d" d="m13.9 9c0.2 0 0.4 0 0.6 0.1-0.3 0.2-0.4 0.5-0.5 0.8-0.1 0.2-0.1 0.4-0.1 0.6-0.4 0-0.8 0.2-1.2 0.4 0-0.9 0.4-1.5 1.2-1.9z"></path><path fill="#a6a0aa" d="m22.3 10.6c-0.3-0.2-0.5-0.5-0.8-0.8 0-0.1-0.1-0.2-0.2-0.3 0.1-0.1 0.2-0.1 0.2 0l1.1 1.1c0.1 0.1 0.1 0.1 0 0.2-0.1-0.1-0.2-0.2-0.3-0.2z"></path><path fill="#372840" d="m20.3 9.7l0.1 0.2c-0.3 0.3-0.6 0.6-0.9 0.9-0.2-0.1-0.4-0.2-0.6-0.3 0-0.5 0.1-0.9 0.3-1.3 0.4 0.2 0.7 0.3 1.1 0.5z"></path><path fill="#35283f" d="m17 10.9c0 0.1-0.1 0.1-0.1 0.2-0.4-0.3-0.8-0.4-1.2-0.5 0-0.4 0.1-0.7 0.3-0.9 0.6 0.2 0.9 0.6 1 1.2z"></path><path fill="#362941" d="m20.6 10c0.4 0.2 0.6 0.5 0.8 0.9-0.3 0.2-0.7 0.4-1.1 0.6-0.2-0.2-0.4-0.3-0.6-0.5 0.2-0.2 0.4-0.5 0.6-0.8 0-0.1 0.2-0.2 0.3-0.2z"></path><path fill="#35293f" d="m21.5 9.8c0.3 0.3 0.5 0.5 0.8 0.8-0.1 0.2-0.3 0.2-0.5 0.1-0.3-0.3-0.6-0.7-0.9-1 0 0 0.1-0.1 0.2-0.1 0.1 0.1 0.3 0.2 0.4 0.2z"></path><path fill="#302638" d="m12.4 10.3c0.2 0.5 0.1 0.9-0.4 1.2 0.1-0.4 0.2-0.8 0.4-1.2z"></path><path fill="#35273f" d="m13.9 10.7c0.1 0.6 0.2 1.2 0.4 1.7-0.3 0.4-0.6 0.7-1 1-0.4-0.7-0.6-1.5-0.6-2.3 0.4-0.2 0.8-0.3 1.2-0.4z"></path><path fill="#231a2e" d="m17.8 10.7c0.2 1.4 0.1 1.5-0.3 0.1 0.1-0.1 0.2-0.1 0.3-0.1z"></path><path fill="#3b2c44" d="m15.7 10.8c0.4 0.1 0.8 0.2 1.1 0.5 0.1 0.2 0.2 0.4 0.1 0.6-0.3 0.1-0.7 0-1-0.1-0.1-0.3-0.2-0.6-0.2-1z"></path><path fill="#372a41" d="m14.1 10.6h1.1c0.1 0.4 0.2 0.9 0.4 1.3 0 0.1-0.1 0.1-0.1 0.1-0.3 0.1-0.6 0.2-0.8 0.4-0.4-0.5-0.6-1.1-0.6-1.8z"></path><path fill="#352840" d="m21.8 11.4c0.1 0.3 0.2 0.6 0.1 1-0.5-0.1-1-0.2-1.5-0.2 0-0.3 0-0.4 0.1-0.6 0.3-0.2 0.6-0.4 1-0.5 0.1 0.1 0.2 0.1 0.3 0.3z"></path><path fill="#bab6bc" d="m18.5 10.7h-0.4c0 0.5 0.1 1 0.1 1.6-0.3 0-0.5 0-0.7 0-0.3-0.2-0.4-0.5-0.2-0.8-0.2-0.3-0.1-0.5 0.2-0.7 0.4 1.4 0.5 1.3 0.3-0.1 0.3-0.2 0.5-0.2 0.7 0z"></path><path fill="#18121e" d="m17.3 11.5c0-0.1 0-0.3 0-0.4 0.2 0.3 0.2 0.5 0.3 0.7-0.1-0.1-0.2-0.2-0.3-0.3z"></path><path fill="#2c2135" d="m18.7 12.3c-0.1 0.1-0.2 0.1-0.2-0.1 0.1-0.5 0.2-0.9 0.4-1.4 0.2 0.1 0.3 0.2 0.4 0.4-0.2 0.3-0.4 0.7-0.6 1.1z"></path><path fill="#2d2439" d="m19.6 11.3c0.2 0 0.3 0.2 0.4 0.4-0.4 0.2-0.8 0.5-1.1 0.8 0-0.2 0-0.3 0.1-0.5 0.2-0.3 0.4-0.5 0.6-0.7z"></path><path fill="#1b152a" d="m18.5 10.7h0.1c0 0.4-0.1 0.7-0.2 1.1 0 0.2-0.1 0.3-0.2 0.5 0-0.6-0.1-1.1-0.1-1.6h0.4z"></path><path fill="#33283a" d="m20.2 11.9c0 0.3-0.1 0.4-0.3 0.5-0.3 0.1-0.5 0.1-0.7 0.1 0.3-0.3 0.6-0.5 1-0.6z"></path><path fill="#372940" d="m15.8 12.3c0.3 0.4 0.6 0.8 1 1.1-0.1 0.2-0.2 0.5-0.4 0.7-0.1 0.1-0.2 0.1-0.4 0-0.3-0.3-0.6-0.6-1-0.9 0-0.2-0.1-0.4-0.2-0.5 0.3-0.3 0.6-0.4 1-0.4z"></path><path fill="#30263c" d="m22.9 11.6c0.2 0.5 0.3 1 0.4 1.5-0.2-0.2-0.5-0.4-0.7-0.5-0.2-0.5-0.3-1-0.6-1.5 0-0.1 0.1-0.2 0.3-0.2 0.3 0.2 0.5 0.4 0.6 0.7z"></path><path fill="#33263d" d="m12.3 11.5c0.2 0.7 0.5 1.4 0.8 2.1-0.2 0.3-0.4 0.6-0.6 0.9-0.1-0.1-0.1-0.1-0.2-0.1-0.4-0.8-0.5-1.6-0.4-2.5 0.2-0.1 0.3-0.3 0.4-0.4z"></path><path fill="#382d42" d="m16.1 12c0.3 0 0.6 0 0.8 0.1l0.7 0.7c-0.2 0.1-0.4 0.2-0.5 0.4-0.5-0.3-0.8-0.7-1-1.2z"></path><path fill="#2f2339" d="m20.4 12.5c0.5 0 1 0 1.5 0.1 0.1 0.3 0 0.6-0.3 0.9-0.1-0.2-0.3-0.3-0.5-0.3-0.2-0.2-0.4-0.3-0.7-0.3v-0.4z"></path><path fill="#3b3542" d="m19.9 12.5c0.2 0 0.3 0.1 0.2 0.3-0.2 0-0.5 0-0.7 0l0.5-0.3z"></path><path fill="#cdc9cf" d="m14.1 10.6c0 0.7 0.2 1.3 0.6 1.8 0.2-0.2 0.5-0.3 0.8-0.4l0.3 0.3c-0.4 0-0.7 0.1-1 0.4 0.1 0.1 0.2 0.3 0.2 0.5v0.1c-0.2-0.2-0.4-0.3-0.5-0.6-0.5 0.2-0.8 0.5-1.1 1 0.5 0.6 1 1.3 1.6 1.8-0.1 0-0.1 0.1-0.1 0.1-0.6-0.5-1.2-1.1-1.7-1.8-0.2 0.3-0.4 0.6-0.7 0.9-0.1 0-0.1-0.2-0.2-0.3 0.1 0 0.1 0 0.2 0.1 0.2-0.3 0.4-0.6 0.6-0.9-0.3-0.7-0.6-1.4-0.8-2.1 0.1-0.2 0.2-0.3 0.4-0.4 0 0.8 0.2 1.6 0.6 2.3 0.4-0.3 0.7-0.6 1-1-0.2-0.5-0.3-1.1-0.4-1.7l0.2-0.1z"></path><path fill="#372a41" d="m15 13.3c0.4 0.4 0.7 0.8 1 1.2-0.2 0.4-0.5 0.8-0.7 1.3-0.1-0.1-0.2-0.2-0.3-0.3-0.6-0.5-1.1-1.2-1.6-1.8 0.3-0.5 0.6-0.8 1.1-1 0.1 0.3 0.3 0.4 0.5 0.6z"></path><path fill="#3a2f41" d="m17.6 12.9c0.1 0.1 0.2 0.2 0.2 0.4 0 0.3-0.2 0.3-0.4 0 0.1-0.1 0.1-0.3 0.2-0.4z"></path><path fill="#32263d" d="m21 13.3c0.1 0.1 0.3 0.2 0.4 0.4-0.3 0.2-0.6 0.4-0.9 0.5-0.2-0.3-0.4-0.6-0.6-0.9 0.1-0.1 0.3-0.1 0.5-0.2 0.2 0 0.4 0.1 0.6 0.2z"></path><path fill="#2f243a" d="m23.2 11.7c0.5 0.6 0.7 1.3 0.8 2.1-0.1-0.2-0.3-0.3-0.5-0.5 0-0.6-0.1-1.1-0.3-1.6z"></path><path fill="#2d2139" d="m-0.1 5.9c1.1 0.2 2.2 0.4 3.2 0.6 0.7 0.5 1.3 1.1 1.7 1.8v0.7c0.4 1.3 0.7 2.5 1 3.8l0.7 0.6c0.2 0.5 0.3 1 0.4 1.5 0.1 0.1 0.3 0.3 0.4 0.4 0.4 1 0.8 1.9 1.2 2.8 0.3 0.5 0.4 1.1 0.3 1.6 0.2 0.5 0.4 0.9 0.7 1.3 0 0.1-0.1 0.2-0.1 0.2 0.1 0.2 0.2 0.4 0.2 0.6-0.2-0.2-0.3-0.4-0.4-0.6-0.2-0.1-0.5-0.2-0.7-0.2 0.1-0.3 0.1-0.5 0.1-0.7-0.1-0.8-0.4-1.4-1-2-0.1-0.9-0.4-1.7-1-2.4-0.1-0.8-0.3-1.4-0.7-2-0.2 0-0.4-0.1-0.5-0.3-0.1-0.6-0.3-1.2-0.6-1.7 0.1-0.3 0-0.6-0.2-0.9-0.1-0.9-0.3-1.8-0.6-2.7-0.2-0.4-0.5-0.7-0.8-1-0.3-0.1-0.5-0.1-0.7-0.3-0.3 0-0.6 0-0.9 0-0.5-0.4-1-0.6-1.7-0.7v-0.4z"></path><path fill="#18141c" d="m18.6 13.5c0.1 0.5 0 0.5-0.3 0.2 0.1-0.2 0.2-0.3 0.3-0.2z"></path><path fill="#34273f" d="m18.3 14.2c0.1 0.1 0.2 0.1 0.3 0.1 0 0.3-0.1 0.7-0.1 1-0.8-0.1-1.5-0.5-2-1 0.1-0.3 0.3-0.6 0.6-0.8 0.3 0.1 0.5 0.4 0.6 0.7 0.2 0.1 0.4 0.1 0.6 0z"></path><path fill="#33263d" d="m24 14.3v0.8c-0.2 0.4-0.4 0.7-0.6 1.1l-0.5-1.3c0.3-0.4 0.5-0.9 0.6-1.4 0.2 0.3 0.4 0.5 0.5 0.8z"></path><path fill="#372941" d="m14.9 15.6c0.2 0.1 0.3 0.2 0.3 0.4l-0.6 1.1c-0.9-0.7-1.5-1.4-2.1-2.4 0.3-0.3 0.5-0.6 0.7-0.9 0.5 0.7 1.1 1.3 1.7 1.8z"></path><path fill="#352840" d="m16.4 14.5c0.5 0.5 1.2 0.9 2 1-0.1 0.5-0.2 1-0.3 1.5 0 0-0.1 0.1-0.2 0.1-0.8-0.3-1.7-0.7-2.4-1.2 0.2-0.5 0.5-1 0.9-1.4z"></path><path fill="#d0cdd2" d="m23.2 11.7c0.2 0.5 0.3 1 0.3 1.6 0.2 0.2 0.4 0.3 0.5 0.5 0.1 0.2 0.1 0.3 0 0.5-0.1-0.3-0.3-0.5-0.5-0.8-0.1 0.5-0.3 1-0.6 1.4l0.5 1.3c0.2-0.4 0.4-0.7 0.6-1.1 0.1 0.3 0.1 0.5 0 0.8 0-0.1 0-0.2 0-0.3-0.1 0.3-0.3 0.5-0.5 0.7-0.1 0.3-0.1 0.6 0.1 0.8-0.1 0.2-0.2 0.2-0.4 0.2 0-0.2 0-0.4 0-0.6-0.6 0.5-1.2 0.8-2 0.9 0 0.3 0 0.6-0.1 0.9 0 0.2 0.1 0.3 0.2 0.3-0.1 0.1-0.2 0.1-0.3 0.1 0-0.1 0-0.3-0.1-0.3 0-0.2 0.1-0.4 0.1-0.6v-0.3h-1.6c-0.4-0.2-0.8-0.2-1.2-0.3-0.1 0.4-0.2 0.8-0.4 1.2 0-0.1 0-0.1-0.1-0.1 0.1-0.4 0.2-0.7 0.4-1.1-1-0.3-1.8-0.8-2.6-1.3-0.3 0.3-0.6 0.8-0.7 1.2-0.1 0-0.2-0.1-0.2-0.2l0.6-1.1c0.2 0 0.2 0 0.3-0.1 0.7 0.5 1.6 0.9 2.4 1.2 0.1 0 0.2-0.1 0.2-0.1 0.1-0.5 0.2-1 0.3-1.5-0.8-0.1-1.5-0.5-2-1-0.1-0.1 0-0.2 0.1-0.2 0.5 0.5 1.2 0.9 2 1 0-0.3 0.1-0.7 0.1-1-0.1 0-0.2 0-0.3-0.1-0.2-0.2-0.2-0.3 0-0.5 0.3 0.3 0.4 0.3 0.3-0.2l0.2-0.1v0.7c0.5 0.1 0.9 0.1 1.4 0-0.2-0.2-0.4-0.5-0.6-0.7l0.3-0.1c0.2 0.3 0.4 0.6 0.6 0.9 0.3-0.1 0.6-0.3 0.9-0.5-0.1-0.2-0.3-0.3-0.4-0.4 0.1 0 0.1-0.1 0.1-0.1 0.2 0 0.4 0.1 0.5 0.3 0.3-0.3 0.4-0.6 0.3-0.9-0.5-0.1-1-0.1-1.5-0.1v-0.3c0.5 0 1 0.1 1.5 0.2 0.1-0.4 0-0.7-0.1-1 0.1 0 0.2-0.1 0.2-0.3 0.3 0.5 0.4 1 0.6 1.5 0.2 0.1 0.5 0.3 0.7 0.5-0.1-0.5-0.2-1-0.4-1.5 0-0.2 0-0.4 0-0.6 0.2 0.2 0.3 0.4 0.3 0.7z"></path><path fill="#35293e" d="m18.7 14.4l1.7 0.2c0.2 0.3 0.3 0.6 0.4 1-0.7 0.1-1.3 0-2-0.2-0.1-0.3-0.1-0.7-0.1-1z"></path><path fill="#35283f" d="m21.7 14c0.4 0.1 0.7 0.4 0.9 0.9-0.5 0.4-1 0.6-1.6 0.5-0.1-0.3-0.2-0.6-0.4-0.9 0.4-0.1 0.8-0.3 1.1-0.5z"></path><path fill="#32273c" d="m18.8 13.4h0.8c0.2 0.2 0.4 0.5 0.6 0.7-0.5 0.1-0.9 0.1-1.4 0v-0.7z"></path><path fill="#34273e" d="m22.3 12.7c0.4 0.2 0.7 0.4 1 0.6-0.1 0.5-0.3 0.9-0.5 1.3-0.4-0.2-0.6-0.5-0.8-0.9 0.2-0.3 0.3-0.6 0.3-1z"></path><path fill="#35283f" d="m22.6 15.1c0.1 0 0.1 0 0.2 0.1 0.2 0.4 0.3 0.9 0.3 1.3-0.6 0.5-1.2 0.7-1.9 0.8 0-0.5 0-1-0.1-1.5 0.6-0.1 1.1-0.3 1.5-0.7z"></path><path fill="#34273d" d="m18.6 15.6c0.8 0.2 1.5 0.3 2.3 0.4 0.1 0.5 0.1 0.9 0.1 1.4-0.9 0.1-1.8 0-2.7-0.2 0.1-0.5 0.2-1.1 0.3-1.6z"></path><path fill="#291d36" d="m24 15.9c-0.1 0.4-0.3 0.8-0.4 1.2-0.2-0.2-0.2-0.5-0.1-0.8 0.2-0.2 0.4-0.4 0.5-0.7 0 0.1 0 0.2 0 0.3z"></path><path fill="#372941" d="m17.7 18.4c-0.1 0.1-0.1 0.2-0.1 0.3-1-0.3-2-0.8-2.8-1.4 0.1-0.4 0.4-0.9 0.7-1.2 0.8 0.5 1.6 1 2.6 1.3-0.2 0.4-0.3 0.7-0.4 1z"></path><path fill="#34283e" d="m23.2 17.3c0 0.4-0.2 0.7-0.5 0.9-0.5 0.2-0.9 0.4-1.4 0.6-0.1 0-0.2-0.1-0.2-0.3 0.1-0.3 0.1-0.6 0.1-1 0.8 0 1.4-0.3 2-0.9 0 0.3 0 0.5 0 0.7z"></path><path fill="#372942" d="m19.4 17.7c0.5 0 1.1 0.1 1.6 0.3 0 0.2-0.1 0.4-0.1 0.6-0.3 0.3-0.6 0.5-1.1 0.4-0.6 0-1.1-0.1-1.7-0.2-0.1 0-0.2-0.1-0.3-0.2 0.2-0.4 0.3-0.8 0.4-1.2 0.4 0.1 0.8 0.1 1.2 0.3z"></path><path d="m19.4 17.7h1.6v0.3c-0.5-0.2-1.1-0.3-1.6-0.3z"></path><path fill="#1f192e" d="m-0.1 6.3c0.7 0.1 1.2 0.3 1.7 0.7 0.3 0 0.6 0 0.9 0 0.2 0.2 0.4 0.2 0.7 0.3 0.3 0.3 0.6 0.6 0.9 1 0.2 0.9 0.4 1.8 0.5 2.7 0.2 0.3 0.3 0.6 0.2 0.9 0.3 0.5 0.5 1.1 0.6 1.7 0.1 0.2 0.3 0.3 0.5 0.3 0.4 0.6 0.6 1.2 0.7 2 0.6 0.7 0.9 1.5 1.1 2.4 0.5 0.6 0.8 1.2 0.9 2 0 0.2 0 0.4-0.1 0.7 0.2 0 0.5 0.1 0.7 0.1h-0.7c-0.2 0.1-0.3 0.2-0.3 0.4 0.1 0.3 0.2 0.5 0.3 0.8-0.1 0.1-0.1 0.1-0.2 0.1 0.1 0.1 0.3 0.2 0.4 0.3-0.2 0.1-0.5 0.1-0.8 0.1 0.2-0.2 0.2-0.4 0-0.6 0-0.3-0.2-0.5-0.3-0.7 0-0.2-0.1-0.2-0.2-0.3 0.2-0.2 0.2-0.4 0-0.6 0.1-0.3 0.1-0.6-0.1-0.9-0.1-0.4-0.1-0.8 0-1.2-0.4 0-0.6 0.1-0.8 0.2-0.1-0.1-0.2-0.2-0.2-0.3-0.2 0.2-0.3 0.2-0.2 0-0.1-0.1-0.3-0.2-0.4-0.3l-0.1 0.1c0.1-0.1 0.1-0.3 0-0.5-0.3-0.2-0.5-0.5-0.6-0.8-0.1-0.4-0.1-0.8-0.2-1.1 0-0.2 0.1-0.4 0.2-0.6-0.1-0.5-0.1-1-0.2-1.6 0-0.1 0.1-0.2 0.1-0.3-0.4-1.3-0.7-2.7-0.9-4.1-0.2-0.5-0.5-1-0.6-1.5l-0.4-0.4c-0.6 0.3-1.3 0.3-1.9 0.3-0.5-0.3-0.9-0.6-1.2-1v-0.3z"></path><path fill="#f1f0f1" d="m32.3 20.9c0.6 1.2 1.1 2.3 1.6 3.5 0.1 0.3 0.1 0.5 0.1 0.8-0.5 0.1-0.8-0.2-0.9-0.8-0.5-0.1-1-0.1-1.5-0.1 0 0.7-0.4 1-1.1 0.8 0.7-1.4 1.3-2.8 1.8-4.2z"></path><path fill="#edecee" d="m4.7 21.4c0 0.3 0 0.5-0.1 0.8-1.3-0.7-1.9-0.3-2.1 1.1 0.1 1 0.7 1.5 1.7 1.3 0.2-0.1 0.3-0.3 0.5-0.4 0.1 0.3 0.1 0.6 0.1 0.9-2.2 0.5-3.1-0.4-2.9-2.6 0.6-1.3 1.5-1.7 2.8-1.1z"></path><path fill="#f3f3f4" d="m7.6 21.5c0.1 0.2 0.3 0.4 0.3 0.7 0 0.6-0.2 1.1-0.8 1.4 0.4 0.5 0.8 1 1.1 1.5-0.3 0.1-0.6 0.1-0.8 0-0.3-0.4-0.6-0.9-0.9-1.4-0.1 0.4-0.2 0.9-0.1 1.5h-0.6v-4.1c0.6 0 1.2 0.1 1.8 0.4z"></path><path fill="#ecebed" d="m8.5 21.2h0.7c0.1 0.2 0.2 0.4 0.4 0.6 0.1 0.3 0.2 0.6 0.4 0.8 0.3-0.4 0.5-0.9 0.7-1.3 0.3-0.2 0.6-0.2 0.8 0-0.4 0.7-0.8 1.4-1.2 2.2 0 0.6 0 1.1 0 1.7h-0.7c0-0.6 0-1.3 0-1.9-0.5-0.7-0.8-1.4-1.1-2.1z"></path><path fill="#f6f6f7" d="m13.4 23.6h-0.5v1.6h-0.6v-4.1c0.5 0 1 0.1 1.5 0.2 0.5 0.4 0.7 1 0.5 1.6-0.2 0.4-0.5 0.6-0.9 0.7z"></path><path fill="#eeecee" d="m14.9 21.2h2.3v0.6h-0.8v3.4h-0.7v-3.4h-0.8v-0.6z"></path><path fill="#f1f0f1" d="m19.1 21.2c2-0.1 2.8 0.9 2.4 2.9-0.7 1.2-1.6 1.5-2.9 0.9-0.9-0.9-1.1-1.9-0.5-3.1 0.3-0.3 0.6-0.6 1-0.7z"></path><path fill="#f5f4f5" d="m23.7 21.3c0.8 0 1.3 0.5 1.5 1.2 0.3 1.2 0 2-1.1 2.6-0.5 0.1-1.1 0.1-1.7 0.1v-3.9h1.3z"></path><path fill="#948e98" d="m26.7 21.3h-0.5v3.9c-0.2-1.3-0.2-2.7-0.2-4.1 0.3 0 0.5 0.1 0.7 0.2z"></path><path fill="#fcfcfc" d="m26.7 21.3v3.9h-0.5v-3.9h0.5z"></path><path fill="#ecebed" d="m27.5 21.2c0.3-0.1 0.5 0 0.7 0.1l0.9 2.4c0.4-0.8 0.7-1.6 1-2.4 0.2-0.1 0.4-0.2 0.7-0.1-0.5 1.4-1 2.9-1.6 4.3-0.6-1.4-1.2-2.9-1.7-4.3z"></path><path fill="#99949c" d="m23.7 21.3h-1.3v3.9c-0.1-1.3-0.1-2.7-0.1-4.1 0.5 0 1 0.1 1.4 0.2z"></path><path fill="#938e97" d="m4.7 21.4h0.1v0.9c-0.1 0-0.2 0-0.2-0.1 0.1-0.3 0.1-0.5 0.1-0.8z"></path><path fill="#8f8b93" d="m6.5 21.8v1.1h0.3c-0.1 0.2-0.3 0.2-0.4 0.2-0.1-0.5 0-0.9 0.1-1.3z"></path><path fill="#382b42" d="m19.2 21.8c1.4 0 1.9 0.7 1.6 2-0.5 0.9-1.2 1.1-2 0.5-0.6-1-0.5-1.8 0.4-2.5z"></path><path fill="#382943" d="m23 21.8c1.4 0.1 1.8 0.9 1.4 2.2 0 0.1-0.1 0.3-0.3 0.4-0.3 0.2-0.7 0.2-1.1 0.2v-2.8z"></path><path fill="#191620" d="m6.5 21.8c0.5 0 0.8 0.3 0.7 0.8 0 0.2-0.2 0.3-0.4 0.3h-0.3v-1.1z"></path><path fill="#3f3249" d="m12.9 21.8c0.8 0 1 0.4 0.7 1-0.2 0.2-0.5 0.3-0.7 0.3v-1.3z"></path><path fill="#382c42" d="m32.3 22.6c0.2 0.3 0.4 0.6 0.5 0.9-0.3 0.1-0.5 0.2-0.8 0.1 0-0.3 0.1-0.7 0.3-1z"></path><path fill="#736d77" d="m13.4 23.6c-0.1 0.1-0.2 0.2-0.4 0.1 0 0.5 0 1-0.1 1.5v-1.6h0.5z"></path><path fill="#87828b" d="m6.5 23.7v1.6c-0.3 0-0.5 0-0.7-0.1h0.6c-0.1-0.6 0-1.1 0.1-1.5z"></path><path fill="#181322" d="m4.8 21.4h-0.1c-1.3-0.6-2.2-0.2-2.8 1.1-0.2 2.2 0.7 3.1 2.9 2.6 0-0.3 0-0.6-0.1-0.9-0.2 0.1-0.3 0.3-0.5 0.4-1 0.2-1.6-0.3-1.7-1.3 0.2-1.4 0.8-1.8 2.1-1.1 0 0.1 0.1 0.1 0.2 0.1-0.1 0.1-0.3 0.2-0.4 0.3 0.2 0.2 0.3 0.5 0.3 0.8 0.5 0.5 0.7 1.1 0.6 1.8 0.5 0.4 1 0.8 1.5 1.2 0.1 0.3 0.1 0.5 0.1 0.7 0.1 0.2 0.3 0.3 0.5 0.4 0.1 0.3 0.1 0.6 0 0.9l-0.1-0.3c-0.3 0.1-0.4 0.3-0.3 0.5-0.1 0.2-0.2 0.3-0.3 0.5 0.2 0.3 0.3 0.5 0.4 0.8 0.1-0.1 0.2-0.1 0.4 0 0 0.4 0 0.9 0 1.4h-7.6v-18.7c0.1 0.1 0.2 0.3 0.2 0.5 0-0.2 0.1-0.3 0.2-0.4 0.1 0.8 0.1 1.7 0 2.5 0.2 0.6 0.4 0.6 0.6 0.1l0.1 0.2c0.2-0.1 0.3-0.2 0.5-0.3l0.1 0.2c-0.2 0-0.3 0.2-0.3 0.4 0.3-0.2 0.5-0.4 0.7-0.7-0.1-0.1-0.2-0.1-0.4-0.2l0.4-0.3c0.2 0 0.4 0 0.6-0.1l-0.2-0.4c0.1-0.1 0.2 0 0.3 0.1 0-0.1 0.1-0.2 0.2-0.2 0.1-1.3 0.1-2.6 0-3.9l0-0.5 0.1 0.2 0.1-2c0.1 0.7 0.1 1.4 0.2 2.2-0.1 0.4-0.1 0.9-0.1 1.3 0.2 0.3 0.5 0.4 0.7 0.1 0.3 1 0.4 2 0.2 3.1 0 0.3 0.1 0.6 0.2 0.8-0.1 0.3-0.1 0.5 0.1 0.7 0.1 1 0.1 2 0 3.1 0.2 0.7 0.4 1.5 0.4 2.3z"></path><path fill="#b0abb4" d="m17.4 26.8h0.3v0.3h-0.3v-0.3z"></path><path fill="#8b858f" d="m17.6 27.3c0.4 0 0.9 0 1.2 0.2-0.1-0.1-0.2 0-0.3 0.1h-0.2c-0.2-0.2-0.3-0.2-0.5 0-0.1 0.2-0.1 0.4-0.1 0.6-0.1-0.2-0.1-0.5-0.1-0.9z"></path><path fill="#e3e1e4" d="m20.3 26.9c0.3-0.1 0.7-0.2 1-0.1 0.2 0.2 0.3 0.3 0.2 0.5 0.3 0 0.5 0 0.7 0.2 0 0.2 0 0.5 0 0.7h0.4c0-0.2-0.1-0.5-0.2-0.7 0.4 0 0.8-0.2 1.1-0.4 0.3 0.3 0.7 0.4 1.1 0.3 0.2 0.3 0.3 0.7 0.2 1.1-0.5-0.1-1-0.1-1.5-0.1 0-0.3-0.1-0.5-0.1-0.8l-0.4 0.1c-0.1 0.2 0 0.5 0.2 0.7-0.5 0.1-1 0.1-1.5 0.1 0-0.4 0.2-0.7 0.5-0.9-0.1 0-0.2 0-0.3 0.1-0.1-0.1-0.2-0.2-0.2-0.2-0.2 0.1-0.5 0.2-0.7 0.2-0.1 0.2 0 0.5 0.2 0.7-0.3 0.1-0.5 0.1-0.8 0 0.1-0.3 0.2-0.6 0.2-0.8 0-0.3 0-0.5-0.1-0.7z"></path><path fill="#2a2031" d="m21.1 27c0.2 0.2 0.1 0.3-0.1 0.4-0.1 0-0.1-0.1-0.1-0.2 0-0.1 0.1-0.2 0.2-0.2z"></path><path fill="#7d7781" d="m21.1 27c-0.1 0-0.2 0.1-0.2 0.2 0 0.1 0 0.2 0.1 0.3 0 0-0.1 0-0.1 0.1-0.1-0.3-0.2-0.5-0.1-0.7 0.1 0 0.2 0 0.3 0.1z"></path><path fill="#e5e3e6" d="m25.1 27.3c0.5 0.1 0.9 0.1 1.3 0 0.1 0.1 0.1 0.2 0 0.4 0-0.1-0.1-0.1-0.1-0.1-0.2 0.2-0.2 0.5 0 0.8-0.4 0-0.8 0-1.2 0-0.3-0.3-0.3-0.7 0-1.1z"></path><path fill="#d4d1d5" d="m10.4 26.7c0.1 0 0.3 0.1 0.5 0.1 0 0.2 0 0.4-0.2 0.5-0.1-0.4-0.4-0.5-0.7-0.3-0.2 0.3-0.2 0.7-0.1 1 0.2 0.2 0.4 0.3 0.6 0.2 0.2-0.3 0.4-0.6 0.7-0.8 0.3-0.1 0.6 0 0.8 0.2 0.3-0.3 0.7-0.3 1 0v0.4c0 0.2-0.1 0.3-0.2 0.4-0.4 0.1-0.6 0-0.8-0.3-0.1 0.2-0.2 0.3-0.4 0.4-0.2 0-0.4-0.1-0.6-0.3-0.5 0.4-1 0.3-1.4-0.1-0.4-0.8-0.1-1.3 0.8-1.4z"></path><path fill="#dad8db" d="m15 28.2c-0.3 0.4-0.7 0.3-0.9-0.1-0.1 0.3-0.3 0.4-0.7 0.4 0 0.1 0.1 0.3 0.2 0.4-0.2 0.2-0.4 0.2-0.6 0 0-0.1 0-0.1 0.1-0.1 0.1-0.2 0.1-0.4 0.1-0.6 0-0.3-0.1-0.5-0.2-0.6 0.1-0.2 0.2-0.3 0.4-0.3 0.4 0 0.6 0.1 0.7 0.4 0.4-0.5 0.6-0.5 0.8 0.1h-0.4c-0.1 0.1 0 0.3 0.1 0.4 0.1-0.1 0.3 0 0.4 0z"></path><path fill="#dbd9dc" d="m19.1 27.3c0.3 0 0.5 0.1 0.6 0.4-0.1 0.1-0.3 0.1-0.5 0.1 0 0.1 0 0.3 0.1 0.4 0.2 0 0.3 0 0.4 0-0.2 0.3-0.5 0.3-0.8 0-0.1-0.3 0-0.6 0.2-0.9z"></path><path fill="#33263c" d="m12.3 27.6c0.5 0 0.6 0.2 0.4 0.6-0.2 0-0.3 0.1-0.4 0v-0.6z"></path><path fill="#33223e" d="m24.2 27.6c0.2 0.1 0.3 0.3 0.3 0.6h-0.4c0-0.2 0-0.4 0.1-0.6z"></path><path fill="#292430" d="m11.3 27.6h0.3v0.6c-0.4 0-0.5-0.2-0.3-0.6z"></path><path fill="#e7e5e8" d="m17.8 27.6c0.2-0.2 0.3-0.2 0.5 0 0 0.4 0.1 0.4 0.2 0 0.1-0.1 0.2-0.2 0.3-0.2-0.1 0.4-0.3 0.7-0.5 1.1-0.1-0.4-0.3-0.7-0.5-0.9z"></path><path fill="#171226" d="m18.3 27.6h0.2c-0.1 0.4-0.2 0.4-0.2 0z"></path><path fill="#3b3045" d="m25.7 27.6c0.1 0 0.2 0.1 0.2 0.3l-0.1 0.3c-0.1-0.1-0.2-0.1-0.4 0-0.1-0.1-0.2-0.2-0.3-0.3 0.3-0.1 0.5-0.2 0.6-0.3z"></path><path fill="#2f2832" d="m13.4 27.6c0.2 0 0.2 0 0.3 0.1 0.1 0.2 0.1 0.4 0 0.5-0.2-0.1-0.3-0.4-0.3-0.6z"></path><path fill="#dddbdf" d="m17.6 27.3c0 0.4 0 0.7 0.1 0.9 0.1 0 0.1 0.1 0.1 0.2l-0.5 0.1c-0.5 0-1 0-1.5 0 0-0.4 0.1-0.7 0.5-0.9l-0.2 0c-0.2 0.1-0.4 0.1-0.6 0-0.2 0.2-0.2 0.5 0.1 0.8l-0.3 0.1c-0.2-0.1-0.2-0.1-0.3-0.3 0.2-0.2 0.2-0.4 0-0.7 0.1-0.1 0.2-0.1 0.2-0.2 0.4 0.1 0.8 0.2 1.2 0.1 0 0.3 0.1 0.6 0.2 0.8 0.1-0.4 0.2-0.7 0.3-1.1 0.2 0.2 0.4 0.3 0.7 0.2z"></path><path fill="#1c1624" d="m17 27.6h0.4c0 0.2-0.1 0.5-0.3 0.6-0.1-0.2-0.1-0.4-0.1-0.6z"></path><path fill="#23162d" d="m23.6 27.6c0.1 0 0.2 0 0.3 0.1 0 0.2 0 0.3 0 0.5-0.1-0.1-0.2-0.1-0.3 0 0-0.2 0-0.4 0-0.6z"></path><path fill="#260f30" d="m16 28c0.2 0 0.3 0.1 0.1 0.2 0 0-0.1-0.1-0.1-0.2z"></path><path fill="#1f1131" d="m21.8 28c0.2 0 0.2 0.1 0.1 0.2-0.1 0-0.1-0.1-0.1-0.2z"></path><path fill="#88828b" d="m13 27.6c0.1 0.1 0.2 0.3 0.2 0.6 0 0.2 0 0.4-0.1 0.6 0-0.3 0-0.6-0.1-0.8v-0.4z"></path></svg>