<?xml version="1.0"?><svg xmlns="http://www.w3.org/2000/svg" width="36" height="36" shape-rendering="geometricPrecision" text-rendering="geometricPrecision" image-rendering="optimizeQuality" fill-rule="evenodd" clip-rule="evenodd" viewBox="0 0 36 36"><path fill="#15335a" d="m32.3 5c-0.1-0.1-0.2-0.2-0.1-0.4 0-0.4-0.1-0.7-0.2-0.9 0-0.2 0.1-0.3 0.3-0.4 0 0.5 0.1 1.1 0 1.7z" opacity=".765"></path><path fill="#0b2e56" d="m5.7 5.3c-0.2 0-0.3 0.1-0.4 0.2-0.1-0.3-0.3-0.5-0.5-0.7-0.1-0.2-0.2-0.3-0.4-0.4 0-0.1-0.1-0.3-0.3-0.4-0.1 0.4-0.1 0.8 0.1 1.2 0 0.1 0 0.1-0.2 0.1h-0.3c-0.1-0.6 0-1.3 0.1-2 0.6 0.6 1.3 1.3 1.9 2z" opacity=".565"></path><path fill="#133054" d="m4.4 4.4c0 0.3 0 0.5-0.2 0.8-0.2-0.4-0.2-0.8-0.1-1.2 0.2 0.1 0.3 0.3 0.3 0.4z" opacity=".997"></path><path fill="#072045" d="m32 3.7c0.1 0.2 0.2 0.5 0.2 0.9-0.2-0.3-0.5-0.4-0.8-0.4 0.1-0.2 0.3-0.4 0.6-0.5z" opacity=".998"></path><path fill="#112e55" d="m31.4 4.2c0.3 0 0.6 0.1 0.8 0.4-0.1 0.2 0 0.3 0.1 0.4v0.2h-0.5c-0.3-0.1-0.3-0.2 0-0.3-0.1-0.1-0.3-0.1-0.4-0.1v-0.6z"></path><path fill="#0b2449" d="m31.4 4.2v1.3c-0.2-0.1-0.2-0.3-0.2-0.5h-0.5c0.1-0.3 0.4-0.6 0.7-0.8z"></path><path fill="#1b446d" d="m4.4 4.4c0.2 0.1 0.3 0.2 0.4 0.4-0.1 0.2 0 0.4 0.2 0.6-0.1 0.1-0.3 0.2-0.4 0.1l-0.4-0.3c0.2-0.3 0.2-0.5 0.2-0.8z" opacity=".998"></path><path fill="#143860" d="m4.8 4.8c0.2 0.2 0.4 0.4 0.5 0.7v0.4c-0.1 0-0.1 0.1-0.1 0.2-0.2 0-0.2-0.1-0.2-0.2l-0.4-0.4c0.1 0.1 0.3 0 0.4-0.1-0.2-0.2-0.3-0.4-0.2-0.6z"></path><path fill="#133763" d="m30.7 5h0.5c0 0.2 0 0.4 0.2 0.5v0.2c-0.1 0-0.2 0.1-0.2 0.2l-0.7 0.6v-1c0-0.1-0.1-0.2-0.2-0.2 0-0.1 0.2-0.3 0.4-0.3z"></path><path fill="#173e6b" d="m31.4 4.8c0.1 0 0.3 0 0.4 0.1-0.3 0.1-0.3 0.2 0 0.3 0 0.2-0.1 0.4-0.4 0.5v-0.9z"></path><path fill="#0f2f55" d="m5.7 5.3c0.7 0.6 1.3 1.2 1.9 1.9-0.3 0-0.5-0.2-0.8-0.4-0.1-0.2-0.3-0.4-0.5-0.5-0.3-0.2-0.6-0.3-1-0.4v-0.4c0.1-0.1 0.2-0.2 0.4-0.2z"></path><path fill="#0d2c52" d="m4.2 5.2l0.4 0.3 0.4 0.4c-0.2 0.1-0.3 0.3-0.2 0.6l-0.4-0.4c-0.1-0.1-0.3-0.2-0.4-0.3 0.2-0.1 0.2-0.3 0-0.5 0.2 0 0.2 0 0.2-0.1z" opacity=".135"></path><path fill="#113965" d="m30.3 5.3c0.1 0 0.2 0.1 0.2 0.2-0.5 0.3-0.5 0.7 0 1-0.1 0.2-0.2 0.3-0.4 0.3-0.1 0-0.2 0-0.2-0.1-0.1-0.3-0.2-0.5-0.6-0.4 0.3-0.4 0.6-0.7 1-1z"></path><path fill="#255987" d="m30.5 5.5v1c-0.5-0.3-0.5-0.7 0-1z"></path><path fill="#11325c" d="m31.8 5.2h0.5v1.6c-0.1-0.1-0.3-0.1-0.5-0.1 0.2-0.3 0.3-0.6 0.3-1-0.4 0.2-0.5 0.5-0.5 1v0.3c-0.2-0.2-0.2-0.4-0.2-0.7l-0.2-0.4c0.1 0 0.2-0.1 0.2-0.2 0.3-0.1 0.4-0.3 0.4-0.5z"></path><path fill="#17365b" d="m5.3 5.9c0.4 0.1 0.7 0.2 1 0.4v0.5c-0.4-0.2-0.7-0.5-1-0.9z"></path><path fill="#123a65" d="m3.7 5.3h0.3c0.2 0.2 0.2 0.4 0 0.5 0.1 0.1 0.3 0.2 0.4 0.3v0.6c-0.1-0.1-0.2-0.2-0.3-0.4-0.1 0.4-0.1 0.7-0.1 1.1h-0.2c0-0.1 0-0.2-0.1-0.2v-1.9z" opacity=".826"></path><path fill="#09305d" d="m31.4 6.3c0 0.3 0 0.5 0.2 0.7v0.4h-0.4c0-0.4 0-0.8 0.2-1.1z" opacity=".044"></path><path fill="#102b50" d="m31.8 6.7h-0.2c0-0.5 0.1-0.8 0.5-1 0 0.4-0.1 0.7-0.3 1z"></path><path fill="#0e2f57" d="m5.3 5.9c0.3 0.4 0.6 0.7 1 0.9v0.4c-0.5-0.3-0.8-0.7-1.1-1.1 0-0.1 0-0.2 0.1-0.2z"></path><path fill="#1a426b" d="m6.3 6.3c0.2 0.1 0.4 0.3 0.5 0.5v0.6c-0.1 0-0.1 0.1-0.1 0.2-0.2-0.1-0.4-0.2-0.4-0.4v-0.9z"></path><path fill="#153d67" d="m29.3 6.3c0.4-0.1 0.5 0.1 0.6 0.4-0.4-0.2-0.6-0.1-0.6 0.5h-0.3c0.2-0.2 0.2-0.4 0-0.5 0-0.2 0.2-0.4 0.3-0.4z"></path><path fill="#0f3967" d="m4.4 6.1l0.4 0.4v1.5h-0.4v-1.9z" opacity=".187"></path><path fill="#1c4b79" d="m29.9 6.7c0 0.1 0.1 0.1 0.2 0.1-0.1 0.2-0.2 0.4-0.4 0.4-0.1-0.2-0.2-0.2-0.4 0 0-0.6 0.2-0.7 0.6-0.5z" opacity=".569"></path><path fill="#102f58" d="m31.6 6.7h0.2c0.2 0 0.4 0 0.5 0.1v1.5h-0.1c-0.1-0.1-0.1-0.3-0.2-0.5-0.2-0.2-0.2-0.5-0.1-0.8-0.1 0.1-0.2 0.2-0.3 0.2v-0.5z" opacity=".918"></path><path fill="#0f345e" d="m29 6.7c0.2 0.1 0.2 0.3 0 0.5l-0.8 0.2c0.2-0.3 0.5-0.6 0.8-0.7z"></path><path fill="#13375e" d="m6.8 6.8c0.3 0.2 0.5 0.4 0.8 0.4 0.2 0.1 0.3 0.2 0.4 0.4h-0.2c-0.3-0.2-0.5-0.1-0.4 0.4l-0.6-0.6v-0.6z" opacity=".212"></path><path fill="#1f4e7b" d="m4.4 6.7v0.9c-0.2 0-0.3 0-0.4-0.2 0-0.4 0-0.7 0.1-1.1 0.1 0.2 0.2 0.3 0.3 0.4z"></path><path fill="#163760" d="m32 7.8c-0.1 0.1-0.2 0.2-0.4 0.2-0.3-0.2-0.3-0.4 0-0.6v-0.2c0.1 0 0.2-0.1 0.3-0.2-0.1 0.3-0.1 0.6 0.1 0.8z" opacity=".998"></path><path fill="#1b4976" d="m3.8 7.4h0.2c0.1 0.2 0.2 0.2 0.4 0.2v0.7c-0.4-0.1-0.5-0.5-0.6-0.9z"></path><path fill="#10345e" d="m6.8 7.4l0.6 0.6 0.2 0.3h-0.2c-0.3-0.1-0.6-0.4-0.7-0.7 0-0.1 0-0.2 0.1-0.2z" opacity=".498"></path><path fill="#0f3963" d="m7.8 7.6h0.2c0.5 0.4 1 0.9 1.5 1.5-0.5-0.2-0.9-0.5-1.2-0.8-0.1 0.1-0.2 0.2-0.3 0.2 0-0.2 0-0.3 0.2-0.4-0.2-0.2-0.3-0.3-0.4-0.5z" opacity=".578"></path><path fill="#1c436d" d="m29 7.2l-0.4 1.1h-0.4v-0.9l0.8-0.2z"></path><path fill="#0a284f" d="m29.7 7.2c-0.3 0.5-0.7 0.8-1.1 1.1l0.4-1.1h0.3c0.2-0.2 0.3-0.2 0.4 0z" opacity=".498"></path><path fill="#143b65" d="m3.7 7.2c0.1 0 0.1 0.1 0.1 0.2 0.1 0.4 0.2 0.8 0.6 0.9v0.4c-0.3 0.2-0.5 0.4-0.6 0.8 0.1 0.3 0 0.5-0.1 0.7v-3z" opacity=".562"></path><path fill="#103562" d="m4.4 8h0.4v1.3c-0.3 0.1-0.5 0.4-0.4 0.7-0.2 0-0.4-0.1-0.4-0.3 0.2-0.3 0.4-0.6 0.4-1v-0.7z" opacity=".195"></path><path fill="#1e4a73" d="m7.8 7.6c0.1 0.2 0.2 0.3 0.4 0.5-0.2 0.1-0.2 0.2-0.2 0.4l-0.4-0.2-0.2-0.3c-0.1-0.5 0.1-0.6 0.4-0.4z"></path><path fill="#0f3057" d="m28.2 7.4v0.9c-0.3-0.2-0.6-0.2-0.9 0 0.2-0.3 0.5-0.6 0.9-0.9z"></path><path fill="#0c335f" d="m31.2 7.4h0.4c-0.3 0.2-0.3 0.4 0 0.6 0.1 0.3 0.2 0.6 0.2 0.9v0.2c-0.2 0.1-0.2 0.2-0.3 0.4-0.1-0.1-0.2-0.2-0.3-0.2v-1.9z" opacity=".531"></path><path fill="#16385e" d="m28.2 8.3c-0.2 0.4-0.5 0.7-0.9 1 0-0.3-0.1-0.5-0.4-0.6 0.1-0.2 0.2-0.3 0.4-0.4 0.3-0.2 0.6-0.2 0.9 0z" opacity=".992"></path><path fill="#0d2b52" d="m32.2 8.3h0.1v1.4h-0.5v-0.8c0.1 0 0.2 0.1 0.3 0.2 0.1-0.2 0.1-0.5 0.1-0.8z" opacity=".718"></path><path fill="#0f3965" d="m7.4 8.3h0.2l0.4 0.2c0.1 0.2 0.3 0.3 0.5 0.3-0.1 0.3 0 0.5 0.4 0.7 0.1 0.2 0.2 0.3 0.4 0.3v0.4c-0.7-0.5-1.3-1.2-1.9-1.9z" opacity=".322"></path><path fill="#1d4974" d="m9.5 9.1l-0.6 0.4c-0.4-0.2-0.5-0.4-0.4-0.7-0.2 0-0.4-0.1-0.5-0.3 0.1 0 0.2-0.1 0.3-0.2 0.3 0.3 0.7 0.6 1.2 0.8z" opacity=".988"></path><path fill="#0a2f59" d="m28.2 8.3h0.4c-0.4 0.5-0.8 1-1.3 1.4h-0.2v-0.2c0.1 0 0.2-0.1 0.2-0.2 0.4-0.3 0.7-0.6 0.9-1z" opacity=".51"></path><path fill="#0c2449" d="m32 7.8c0.1 0.2 0.1 0.4 0.2 0.5 0 0.3 0 0.6-0.1 0.8-0.1-0.1-0.2-0.2-0.3-0.2 0-0.3-0.1-0.6-0.2-0.9 0.2 0 0.3-0.1 0.4-0.2z"></path><path fill="#1d4972" d="m26.9 8.7c0.3 0.1 0.4 0.3 0.4 0.6 0 0.1-0.1 0.2-0.2 0.2-0.1-0.2-0.2-0.3-0.4-0.2v-0.4c0-0.1 0.1-0.2 0.2-0.2z"></path><path fill="#1e4c79" d="m4.4 8.7c0 0.4-0.2 0.7-0.4 1 0-0.2 0-0.2-0.2-0.2 0.1-0.4 0.3-0.6 0.6-0.8z"></path><path fill="#0b2b54" d="m4.8 9.3v0.9l-0.4-0.2c-0.1-0.3 0.1-0.6 0.4-0.7z" opacity=".18"></path><path fill="#163f68" d="m9.5 9.1c0.3 0.2 0.5 0.4 0.7 0.7-0.3 0-0.5-0.1-0.7-0.3-0.2 0.1-0.2 0.2-0.2 0.3-0.2 0-0.3-0.1-0.4-0.3l0.6-0.4z" opacity=".996"></path><path fill="#255681" d="m26.7 9.3c0.2-0.1 0.3 0 0.4 0.2v0.2l-0.4 0.1h-0.2c0-0.2 0-0.4 0.2-0.5z" opacity=".998"></path><path fill="#0e2d55" d="m31.8 9.1v0.6h0.5v0.7h-0.5c0-0.3-0.1-0.5-0.4-0.6-0.1-0.1-0.2-0.3-0.2-0.5 0.1 0 0.2 0.1 0.3 0.2 0.1-0.2 0.1-0.3 0.3-0.4z" opacity=".031"></path><path fill="#15406b" d="m26.7 8.9v0.4c-0.2 0.1-0.2 0.3-0.2 0.5-0.3 0-0.7 0.1-0.9 0.4h-0.2c0.4-0.5 0.8-0.9 1.3-1.3z"></path><path fill="#24547f" d="m26.5 9.8h0.2c-0.2 0.3-0.4 0.6-0.5 1-0.3 0-0.4 0.1-0.6 0.2v-0.8c0.2-0.3 0.6-0.4 0.9-0.4z"></path><path fill="#1d4972" d="m10.2 9.8c0.1 0 0.2 0.1 0.2 0.2v0.4c-0.4 0.2-0.7 0.2-0.9 0-0.2 0-0.2-0.1-0.2-0.2v-0.4c0-0.1 0-0.2 0.2-0.3 0.2 0.2 0.4 0.3 0.7 0.3z" opacity=".992"></path><path fill="#092953" d="m3.8 9.5c0.2 0 0.2 0 0.2 0.2 0 0.2 0.2 0.3 0.4 0.3l0.4 0.2c-0.4 0.3-0.8 0.3-1.1 0 0.1-0.2 0.2-0.4 0.1-0.7z" opacity=".384"></path><path fill="#08264a" d="m31.4 9.8c0.3 0.1 0.4 0.3 0.4 0.6h-0.6c0-0.2 0-0.4 0.2-0.6z" opacity=".465"></path><path fill="#144674" d="m27.1 9.7h0.2c-0.3 0.4-0.7 0.8-1.1 1.1 0.1-0.4 0.3-0.7 0.5-1l0.4-0.1z" opacity=".486"></path><path fill="#173e67" d="m10.4 10.4c0 0.2-0.2 0.4-0.4 0.6-0.2-0.2-0.4-0.3-0.5-0.6 0.2 0.2 0.5 0.2 0.9 0z" opacity=".996"></path><path fill="#1e4f7b" d="m25.4 10.2h0.2v0.8c0 0.1-0.1 0.2-0.2 0.2 0-0.2 0-0.3-0.1-0.4-0.2 0.1-0.4 0.2-0.6 0.2 0.1-0.3 0.4-0.6 0.7-0.8z"></path><path fill="#245a85" d="m25.4 11.2c0 0.1-0.1 0.1-0.2 0.1-0.3 0-0.5 0.1-0.7 0.2v-0.3c0-0.2 0-0.2 0.2-0.2 0.2 0 0.4-0.1 0.6-0.2 0.1 0.1 0.1 0.2 0.1 0.4z"></path><path fill="#275e89" d="m11.3 11l0.2 0.7h-0.3c-0.2-0.2-0.3-0.4-0.4-0.5 0.1-0.2 0.3-0.3 0.5-0.2z"></path><path fill="#154774" d="m26.2 10.8c-0.3 0.4-0.6 0.7-1 0.9v-0.4c0.1 0 0.2 0 0.2-0.1 0.1 0 0.2-0.1 0.2-0.2 0.2-0.1 0.3-0.2 0.6-0.2z" opacity=".455"></path><path fill="#113d69" d="m8.9 11.7c-0.1 0-0.2 0.1-0.2 0.2-0.2 0.3-0.2 0.6-0.2 0.9h-0.3c-0.1-0.6 0-1.2 0.1-1.8 0.2 0.2 0.4 0.4 0.6 0.7z"></path><path fill="#16436e" d="m10.4 10c0.4 0.3 0.7 0.6 0.9 1-0.2-0.1-0.4 0-0.5 0.2 0.1 0.1 0.2 0.3 0.4 0.5 0.1 0.2 0.1 0.4 0.1 0.6-0.5-0.4-0.9-0.8-1.3-1.3 0.2-0.2 0.4-0.4 0.4-0.6v-0.4z" opacity=".349"></path><path fill="#184a75" d="m11.3 11c0.5 0.3 1 0.8 1.4 1.3h-0.4c-0.2-0.3-0.5-0.5-0.8-0.6l-0.2-0.7z" opacity=".994"></path><path fill="#2c6792" d="m25.2 11.3v0.4c-0.3 0-0.5 0.1-0.6 0.4-0.1-0.2-0.2-0.3-0.3-0.4 0-0.1 0-0.2 0.2-0.2 0.2-0.1 0.4-0.2 0.7-0.2z"></path><path fill="#184874" d="m27.8 11.7l-0.3 0.4c-0.2-0.3-0.4-0.3-0.6 0h-0.2c0.3-0.4 0.7-0.8 1.1-1.1 0 0.2 0.1 0.5 0 0.7z" opacity=".996"></path><path fill="#0e3964" d="m8.9 11.7c0.3 0.2 0.6 0.5 0.8 0.8-0.2 0-0.2 0-0.2 0.2h-0.4c0-0.2 0.1-0.3 0.2-0.3-0.2-0.2-0.4-0.3-0.6-0.5 0-0.1 0.1-0.2 0.2-0.2z" opacity=".373"></path><path fill="#265984" d="m11.2 11.7h0.3c0.3 0.1 0.6 0.3 0.8 0.6h-1c0-0.2 0-0.4-0.1-0.6z"></path><path fill="#154875" d="m24.5 11.2v0.3c-0.2 0-0.2 0.1-0.2 0.2-0.4 0.3-0.7 0.6-1 1-0.1 0.1-0.3 0.1-0.5 0.1 0.5-0.6 1-1.1 1.7-1.6z"></path><path fill="#194c78" d="m26.7 12.1h0.2v0.2l-0.9 0.9h-0.4c0.3-0.4 0.7-0.8 1.1-1.1z"></path><path fill="#204e78" d="m27.5 12.1v0.4c-0.2 0-0.4 0-0.5 0.2-0.1-0.2-0.1-0.3-0.1-0.4v-0.2c0.2-0.3 0.4-0.3 0.6 0z" opacity=".998"></path><path fill="#295e89" d="m11.7 12.3h0.8c-0.1 0.2-0.2 0.4-0.2 0.5-0.3-0.1-0.5-0.3-0.6-0.5z"></path><path fill="#1e4973" d="m8.7 11.9c0.2 0.2 0.4 0.3 0.6 0.5-0.1 0-0.2 0.1-0.2 0.3-0.1 0-0.2 0-0.2 0.1l-0.4 0.2v-0.2c0-0.3 0-0.6 0.2-0.9z"></path><path fill="#124975" d="m11.3 12.3h0.4c0.1 0.2 0.3 0.4 0.6 0.5v0.4c-0.4-0.2-0.7-0.5-1-0.9z"></path><path fill="#1c4a74" d="m12.5 12.3h0.2c0.3 0.2 0.5 0.4 0.7 0.7-0.3 0-0.5 0.1-0.6 0.4-0.1-0.2-0.3-0.3-0.5-0.4v-0.2c0-0.1 0.1-0.3 0.2-0.5z"></path><path fill="#1e5381" d="m24.3 11.7c0.1 0.1 0.2 0.2 0.3 0.4 0.1-0.3 0.3-0.4 0.6-0.4-0.4 0.5-0.8 1-1.3 1.3 0.4-0.4 0.5-0.8 0.4-1.3z" opacity=".518"></path><path fill="#184773" d="m27.8 11.7v1.9c-0.1 0.1-0.2 0.2-0.1 0.4-0.2-0.3-0.4-0.4-0.6-0.6 0.4-0.3 0.5-0.6 0.4-0.9v-0.4l0.3-0.4z" opacity=".625"></path><path fill="#194570" d="m9.7 12.5c0.1 0 0.3 0.2 0.3 0.3-0.1 0.2-0.1 0.4-0.2 0.6v0.2c-0.1 0-0.1-0.1-0.1-0.2l-0.2-0.7c0-0.2 0-0.2 0.2-0.2z"></path><path fill="#2a628d" d="m24.3 11.7c0.1 0.5 0 0.9-0.4 1.3h-0.4l-0.2-0.3c0.3-0.4 0.6-0.7 1-1z"></path><path fill="#265b87" d="m26.9 12.3c0 0.1 0 0.2 0.1 0.4 0.1-0.2 0.3-0.2 0.5-0.2 0.1 0.3 0 0.6-0.4 0.9h-0.4c-0.1-0.2-0.2-0.2-0.4 0 0-0.2-0.1-0.2-0.3-0.2l0.9-0.9z" opacity=".993"></path><path fill="#215987" d="m23.3 12.7l0.2 0.3c0 0.2 0 0.2-0.2 0.2-0.1 0-0.2-0.1-0.4-0.2-0.2 0.1-0.3 0.3-0.3 0.4-0.1 0-0.2 0.1-0.2 0.2h-0.4c0.2-0.3 0.5-0.6 0.8-0.8 0.2 0 0.4 0 0.5-0.1z"></path><path fill="#1a436c" d="m8.9 12.8c0.3 0.1 0.4 0.3 0.4 0.6-0.2 0-0.3 0-0.4 0.2-0.3-0.1-0.4-0.3-0.4-0.6l0.4-0.2z" opacity=".314"></path><path fill="#224e77" d="m8.9 12.8c0-0.1 0.1-0.1 0.2-0.1h0.4l0.2 0.7h-0.4c0-0.3-0.1-0.5-0.4-0.6z"></path><path fill="#113862" d="m10 12.8c0.3 0.2 0.6 0.5 0.8 0.8-0.3-0.1-0.6-0.2-1-0.2 0.1-0.2 0.1-0.4 0.2-0.6z" opacity=".345"></path><path fill="#11406b" d="m12.3 13c0.2 0.1 0.4 0.2 0.5 0.4 0.2 0.2 0.2 0.4 0.2 0.6-0.3-0.2-0.5-0.5-0.7-0.8v-0.2z" opacity=".341"></path><path fill="#215380" d="m13.4 13v0.4c-0.2 0.3-0.2 0.6 0 0.9-0.2 0-0.3-0.1-0.4-0.3 0-0.2 0-0.4-0.2-0.6 0.1-0.3 0.3-0.4 0.6-0.4z"></path><path fill="#2c638f" d="m23.3 13.2c-0.1 0.3-0.3 0.5-0.5 0.6 0-0.2 0-0.3-0.2-0.4 0-0.1 0.1-0.3 0.3-0.4 0.2 0.1 0.3 0.2 0.4 0.2z"></path><path fill="#1d5787" d="m23.5 13h0.4c-0.6 0.8-1.3 1.5-2.1 2.1v-0.2l0.6-0.7c0.2-0.1 0.3-0.2 0.4-0.4 0.2-0.1 0.4-0.3 0.5-0.6 0.2 0 0.2 0 0.2-0.2z" opacity=".51"></path><path fill="#204f79" d="m25.8 13.2h0.2c0.2 0 0.3 0 0.3 0.2 0 0.2-0.1 0.3-0.3 0.4-0.1-0.2-0.2-0.2-0.4-0.2l0.2-0.4z" opacity=".996"></path><path fill="#133962" d="m8.9 13.6c0.1-0.2 0.2-0.2 0.4-0.2h0.4c0 0.1 0 0.2 0.1 0.2 0.2 0.1 0.3 0.2 0.2 0.4v0.2l-0.7-0.6h-0.4z" opacity=".02"></path><path fill="#1d4772" d="m9.8 13.6v-0.2c0.4 0 0.7 0.1 1 0.2 0 0.2 0.1 0.4 0.2 0.6h-0.6l-0.4-0.2c0.1-0.2 0-0.3-0.2-0.4z"></path><path fill="#2d6997" d="m13.4 13.4c0.2 0.1 0.3 0.2 0.4 0.4-0.3 0.2-0.3 0.4 0 0.5h-0.4c-0.2-0.3-0.2-0.6 0-0.9z"></path><path fill="#316f9c" d="m22.6 13.4c0.2 0.1 0.2 0.2 0.2 0.4-0.1 0.2-0.2 0.3-0.4 0.4-0.2 0-0.3-0.1-0.4-0.2 0.3 0 0.4-0.2 0.4-0.4 0-0.1 0.1-0.2 0.2-0.2z"></path><path fill="#174a77" d="m26.7 13.4c-0.2 0.3-0.4 0.6-0.7 0.8h-0.2l0.2-0.4c0.2-0.1 0.3-0.2 0.3-0.4 0.2-0.2 0.3-0.2 0.4 0z" opacity=".365"></path><path fill="#164674" d="m25.6 13.2h0.2l-0.2 0.4c-0.1 0.6-0.3 0.7-0.8 0.4 0.2-0.3 0.5-0.6 0.8-0.8z"></path><path fill="#10345e" d="m8.2 12.8h0.3v0.2c0 0.3 0.1 0.5 0.4 0.6h0.4v0.4h-0.2c-0.6-0.1-0.8 0.2-0.8 0.7h-0.1v-1.9z" opacity=".5"></path><path fill="#23527d" d="m13.8 13.8c0.3 0.1 0.5 0.3 0.4 0.5-0.1 0.5-0.2 0.5-0.4 0-0.3-0.1-0.3-0.3 0-0.5z" opacity=".996"></path><path fill="#1f4f7d" d="m26.9 13.4h0.2c0.2 0.2 0.4 0.3 0.6 0.6 0 0.3-0.1 0.7-0.2 1.1-0.1 0.2-0.2 0.2-0.4 0v-0.4c0.5 0 0.5-0.1 0-0.3l0.2-0.1c-0.2-0.1-0.4-0.2-0.6-0.1l0.2-0.8z"></path><path fill="#1a4470" d="m9.1 14c-0.1 0.1-0.2 0.3-0.2 0.5-0.2 0-0.3 0.1-0.4 0.2h-0.2c0-0.5 0.2-0.8 0.8-0.7z"></path><path fill="#0e3764" d="m9.1 14h0.2v2h-0.4c0-0.1-0.1-0.2-0.2-0.2 0.2-0.4 0.2-0.8 0.2-1.3 0-0.2 0.1-0.4 0.2-0.5z" opacity=".235"></path><path fill="#154170" d="m10 14l0.4 0.2c0.1 0.2 0.3 0.4 0.6 0.5v0.4c-0.4-0.3-0.7-0.6-1-0.9v-0.2z" opacity=".247"></path><path fill="#174773" d="m13.4 13c0.4 0.3 0.7 0.6 0.9 1v0.3h-0.1c0.1-0.2-0.1-0.4-0.4-0.5-0.1-0.2-0.2-0.3-0.4-0.4v-0.4z"></path><path fill="#17507a" d="m24.8 14v0.3c-0.1 0.3-0.4 0.4-0.7 0.4 0.2-0.3 0.4-0.5 0.7-0.7z"></path><path fill="#275c88" d="m25.6 13.6c0.2 0 0.3 0 0.4 0.2l-0.2 0.4-0.6 0.3c0-0.1-0.2-0.2-0.4-0.2v-0.3c0.5 0.3 0.7 0.2 0.8-0.4z"></path><path fill="#22517d" d="m10.4 14.2h0.6c0.2 0.1 0.4 0.3 0.5 0.5h-0.5c-0.3-0.1-0.5-0.3-0.6-0.5z"></path><path fill="#1c4d7b" d="m13.4 14.3h0.4c0.2 0.5 0.3 0.5 0.4 0h0.1c0.2 0.3 0.5 0.4 0.8 0.4 0.2 0.1 0.4 0.3 0.6 0.6-0.4-0.1-0.6-0.2-0.9-0.4l-0.3 0.3c0.3 0.1 0.5 0.2 0.6 0.5v0.1h-0.2c-0.6-0.4-1.1-0.9-1.5-1.5z"></path><path fill="#113d68" d="m14.3 14c0.4 0.2 0.6 0.4 0.8 0.7-0.3 0-0.6-0.1-0.8-0.4v-0.3z" opacity=".606"></path><path fill="#306d99" d="m22 14c0.1 0.1 0.2 0.2 0.4 0.2l-0.6 0.7c-0.1 0-0.2 0-0.3-0.2 0.1-0.3 0.3-0.6 0.5-0.7z"></path><path fill="#0e406f" d="m10.8 13.6c0.4 0.2 0.7 0.6 0.9 0.9v0.2h-0.2c-0.1-0.2-0.3-0.4-0.5-0.5-0.1-0.2-0.2-0.4-0.2-0.6z"></path><path fill="#235f8c" d="m22 13.6h0.4c0 0.2-0.1 0.4-0.4 0.4-0.2 0.1-0.4 0.4-0.5 0.7 0.1 0.2 0.2 0.2 0.3 0.2v0.2c-0.1 0.2-0.3 0.4-0.5 0.6-0.2-0.3-0.2-0.7-0.1-1-0.6 0.4-0.8 0.8-0.7 1.3v0.4l-0.3-0.2c-0.1-0.3 0-0.6 0.1-0.9 0.5-0.6 1.1-1.2 1.7-1.7z" opacity=".996"></path><path fill="#185181" d="m25.8 14.2h0.2c-0.5 0.5-1 1-1.5 1.5 0.1-0.5 0.4-0.9 0.7-1.2l0.6-0.3z" opacity=".59"></path><path fill="#0f3964" d="m26.7 14.2c0.2-0.1 0.4 0 0.6 0.1l-0.2 0.1c0.5 0.2 0.5 0.3 0 0.3h-0.2c-0.1-0.1-0.2-0.3-0.2-0.5z"></path><path fill="#1a4976" d="m11 14.7h0.3c0 0.1 0 0.2-0.1 0.3 0.2 0.1 0.4 0.4 0.5 0.7v0.1c-0.3-0.1-0.5-0.4-0.7-0.7v-0.4z"></path><path fill="#255683" d="m11.3 14.7h0.4v0.6c0.3-0.1 0.4 0 0.6 0.2-0.2 0.1-0.3 0.2-0.6 0.2-0.1-0.3-0.3-0.6-0.5-0.7 0.1-0.1 0.1-0.2 0.1-0.3z"></path><path fill="#113d6a" d="m11.7 14.5c0.5 0.3 0.8 0.7 1.1 1.2-0.1 0-0.1 0-0.1 0.1h-0.2c0-0.1-0.1-0.3-0.2-0.3-0.2-0.2-0.3-0.3-0.6-0.2v-0.8z"></path><path fill="#113660" d="m8.2 14.7h0.3c0.3 0.4 0.2 0.8-0.2 1.1 0.2 0.2 0.3 0.2 0.4 0 0.1 0 0.2 0.1 0.2 0.2v0.2h-0.7v-1.5z" opacity=".506"></path><path fill="#2a628d" d="m24.8 14.3c0.2 0 0.4 0.1 0.4 0.2-0.3 0.3-0.6 0.7-0.7 1.2h-0.2c0-0.3 0-0.5-0.2-0.6v-0.4c0.3 0 0.6-0.1 0.7-0.4z" opacity=".992"></path><path fill="#164d7f" d="m27.8 13.6v2.2l-0.3-0.7c0.1-0.4 0.2-0.8 0.2-1.1-0.1-0.2 0-0.3 0.1-0.4z" opacity=".549"></path><path fill="#2d6a96" d="m21.3 15.7h-0.2l-0.6 0.3c-0.1-0.5 0.1-0.9 0.7-1.3-0.1 0.3-0.1 0.7 0.1 1z" opacity=".995"></path><path fill="#245887" d="m27.1 15.1c0.2 0.2 0.3 0.2 0.4 0l0.3 0.7v0.4c-0.2-0.3-0.4-0.4-0.7-0.2v-0.9z"></path><path fill="#245a87" d="m15.7 15.3c0.1 0 0.1 0 0.1 0.2h-0.1c-0.3 0-0.4 0-0.6 0.2-0.1-0.3-0.3-0.4-0.6-0.5l0.3-0.3c0.3 0.2 0.5 0.3 0.9 0.4z" opacity=".984"></path><path fill="#1c5685" d="m24.1 14.7v0.4c0 0.3-0.1 0.4-0.3 0.2-0.1 0.1-0.2 0.2-0.3 0.4h-0.3c0.2-0.4 0.5-0.7 0.9-1z"></path><path fill="#2c6490" d="m24.1 15.1c0.2 0.1 0.2 0.3 0.2 0.6l-0.4 0.1c-0.1-0.1-0.2-0.2-0.4-0.1 0.1-0.2 0.2-0.3 0.3-0.4 0.2 0.2 0.3 0.1 0.3-0.2z"></path><path fill="#1d4770" d="m8.9 14.5c0 0.5 0 0.9-0.2 1.3-0.1 0.2-0.2 0.2-0.4 0 0.4-0.3 0.5-0.7 0.2-1.1 0.1-0.1 0.2-0.2 0.4-0.2z"></path><path fill="#104475" d="m26.9 14.7h0.2v1.5c-0.1 0-0.2 0-0.2-0.2-0.1-0.4-0.1-0.9 0-1.3z"></path><path fill="#235480" d="m12.5 15.8h0.2c0.2 0.2 0.4 0.4 0.5 0.6-0.2 0-0.4 0-0.5 0.2-0.2-0.3-0.4-0.3-0.6 0 0-0.1-0.1-0.2-0.2-0.2v-0.2c0.2-0.1 0.4-0.2 0.6-0.4z"></path><path fill="#114270" d="m12.8 15.7c0.3 0.1 0.5 0.3 0.6 0.5v0.2h-0.2c-0.1-0.2-0.3-0.4-0.5-0.6 0-0.1 0-0.1 0.1-0.1z" opacity=".302"></path><path fill="#113c69" d="m8.9 16.2v-0.2h2.4c0.2 0.2 0.4 0.3 0.6 0.2v0.2h-0.6c-0.3-0.1-0.7-0.1-1.1 0-0.4 0-0.9-0.1-1.3-0.2z" opacity=".569"></path><path fill="#1b4673" d="m12.3 15.5c0.1 0 0.2 0.2 0.2 0.3-0.2 0.2-0.4 0.3-0.6 0.4-0.2 0.1-0.4 0-0.6-0.2 0.2 0.1 0.4 0 0.4-0.2v-0.1c0.3 0 0.4-0.1 0.6-0.2z" opacity=".529"></path><path fill="#296491" d="m15.7 15.5c-0.3 0.2-0.3 0.3 0 0.5-0.1 0.2-0.3 0.3-0.4 0.3 0.3 0.3 0.4 0.6 0.4 1-0.2 0-0.2 0-0.2-0.1-0.2-0.5-0.3-0.9-0.4-1.4v-0.1c0.2-0.2 0.3-0.2 0.6-0.2z"></path><path fill="#195382" d="m15.7 15.5h0.1v1.8h-0.1c0-0.4-0.1-0.7-0.4-1 0.1 0 0.3-0.1 0.4-0.3-0.3-0.2-0.3-0.3 0-0.5z" opacity=".802"></path><path fill="#275d88" d="m21.1 15.7c-0.1 0.3-0.1 0.7 0 1-0.1 0.1-0.2 0.1-0.4 0.1h-0.2v-0.8l0.6-0.3z" opacity=".992"></path><path fill="#16497a" d="m21.1 15.7h0.2v3h-0.2v-0.2c0.1-0.6 0-1.1-0.2-1.5-0.1 0-0.2-0.1-0.2-0.2 0.2 0 0.3 0 0.4-0.1-0.1-0.3-0.1-0.7 0-1z" opacity=".111"></path><path fill="#17517f" d="m23.2 15.7c0 0.4-0.2 0.6-0.6 0.7h-0.2c0.2-0.3 0.4-0.6 0.8-0.7z"></path><path fill="#2e6995" d="m23.2 15.7h0.3c0.2-0.1 0.3 0 0.4 0.1l0.2 0.8h-0.2c0-0.2-0.1-0.3-0.3-0.4-0.1 0.4-0.4 0.7-0.8 0.8-0.1-0.2-0.2-0.4-0.2-0.6 0.4-0.1 0.6-0.3 0.6-0.7z"></path><path fill="#215986" d="m24.3 16h1.1l-0.2 0.4c-0.2-0.2-0.5-0.2-0.7 0l-0.2-0.4z" opacity=".586"></path><path fill="#1d5482" d="m25.4 16h1.5c0 0.2 0.1 0.2 0.2 0.2l-0.2 0.4-0.4-0.2c-0.4 0-0.8 0-1.1 0.2-0.1 0-0.2-0.1-0.2-0.2l0.2-0.4z" opacity=".597"></path><path fill="#1b446e" d="m8.3 16.2h0.6c0.4 0.1 0.9 0.2 1.3 0.2v0.4c-0.5-0.2-1-0.2-1.5 0l-0.4-0.6z" opacity=".998"></path><path fill="#225b88" d="m24.3 15.7h0.2l-0.2 0.3 0.2 0.4c-0.1 0.2-0.2 0.2-0.4 0.2l-0.2-0.8 0.4-0.1z"></path><path fill="#266292" d="m27.8 16.2v0.8c-0.2-0.1-0.4-0.3-0.4-0.6-0.1 0.2-0.3 0.4-0.5 0.4v-0.2l0.2-0.4v-0.2c0.3-0.2 0.5-0.1 0.7 0.2z" opacity=".757"></path><path fill="#113861" d="m8.2 16.2h0.1l0.4 0.6c-0.2 0-0.4 0.1-0.4 0.4-0.1-0.3-0.2-0.6-0.1-1z" opacity=".514"></path><path fill="#1f4d79" d="m11.3 16.4l-0.1 0.4h-1v-0.4c0.4-0.1 0.8-0.1 1.1 0z"></path><path fill="#245582" d="m11.3 16.4h0.6c0.1 0 0.2 0.1 0.2 0.2-0.1 0-0.2 0.1-0.2 0.2h-0.7l0.1-0.4z"></path><path fill="#1f5b89" d="m22.4 16.4h0.2c0 0.2 0.1 0.4 0.2 0.6v0.3c0 0.3-0.1 0.6-0.2 1h-0.2v-1.9z" opacity=".737"></path><path fill="#265f8b" d="m23.9 16.6c-0.2 0.1-0.2 0.1 0 0.2l-0.6 0.4v0.1c-0.1 0-0.1 0.1-0.1 0.2l-0.4-0.2v-0.3c0.4-0.1 0.7-0.4 0.8-0.8 0.2 0.1 0.3 0.2 0.3 0.4z" opacity=".98"></path><path fill="#2c6491" d="m25.2 16.4c0 0.1 0.1 0.2 0.2 0.2v0.2h-1.5c-0.2-0.1-0.2-0.1 0-0.2h0.2c0.2 0 0.3 0 0.4-0.2 0.2-0.2 0.5-0.2 0.7 0z"></path><path fill="#265986" d="m26.5 16.4c0 0.2-0.2 0.3-0.3 0.4h-0.8v-0.2c0.3-0.2 0.7-0.2 1.1-0.2z"></path><path fill="#246595" d="m26.5 16.4l0.4 0.2v0.2c-0.1 0.2-0.3 0.2-0.6 0.2-0.1 0-0.1-0.1-0.1-0.2 0.1-0.1 0.3-0.2 0.3-0.4z"></path><path fill="#0d315c" d="m10.2 16.8h0.2l-0.2 0.4h-1.9c0-0.3 0.2-0.4 0.4-0.4 0.5-0.2 1-0.2 1.5 0z" opacity=".166"></path><path fill="#123d6e" d="m10.4 16.8h1.1v0.4h-1.3l0.2-0.4z" opacity=".243"></path><path fill="#0b305c" d="m11.5 16.8h0.4c0.5-0.1 0.6 0 0.4 0.4h-0.8v-0.4z" opacity=".218"></path><path fill="#15365f" d="m12.7 16.6c0.2 0 0.3 0 0.5 0.1-0.3 0.1-0.4 0.2-0.5 0.5h-0.4c0.2-0.4 0.1-0.5-0.4-0.4 0-0.1 0.1-0.2 0.2-0.2 0.2-0.3 0.4-0.3 0.6 0z" opacity=".188"></path><path fill="#1b446e" d="m13.4 16.2c0.2 0.4 0.3 0.9 0.2 1.3-0.2-0.1-0.3-0.3-0.4-0.4 0.2-0.2 0.2-0.4 0.2-0.7v-0.2z" opacity=".957"></path><path fill="#235783" d="m14.9 15.8h0.2c0.1 0.5 0.2 0.9 0.4 1.4-0.2-0.2-0.4-0.2-0.6-0.2-0.2-0.4-0.2-0.8 0-1.2z"></path><path fill="#185382" d="m23.9 16.8h1.3v0.4h-1.9l0.6-0.4z" opacity=".251"></path><path fill="#164d7e" d="m25.2 16.8h1c0 0.1 0 0.2 0.1 0.2v0.2h-1.1v-0.4z" opacity=".246"></path><path fill="#1c5788" d="m27.8 17c-0.4 0.2-0.9 0.2-1.5 0.2v-0.2c0.3 0 0.5 0 0.6-0.2 0.2 0 0.4-0.2 0.5-0.4 0 0.3 0.2 0.5 0.4 0.6z" opacity=".278"></path><path fill="#193c63" d="m12.7 16.6c0.1-0.2 0.3-0.2 0.5-0.2h0.2c0 0.3 0 0.5-0.2 0.7 0.1 0.1 0.2 0.3 0.4 0.4v0.2l-0.9-0.4v-0.1c0.1-0.3 0.2-0.4 0.5-0.5-0.2-0.1-0.3-0.1-0.5-0.1z"></path><path fill="#1e4a75" d="m14.9 17c0.2 0 0.4 0 0.6 0.2 0 0.1 0 0.1 0.2 0.1h0.1v1h-0.3v-0.2c0.1-0.5 0-0.6-0.6-0.4v-0.7z"></path><path fill="#205683" d="m20.2 16.2l0.3 0.2v0.4c0 0.3-0.1 0.6-0.2 0.9h-0.1v-1.5z" opacity=".673"></path><path fill="#23527c" d="m15.5 18.1c-0.2 0-0.4-0.1-0.6-0.2v-0.2c0.6-0.2 0.7-0.1 0.6 0.4z"></path><path fill="#2b6490" d="m20.5 16.8h0.2c0 0.1 0.1 0.2 0.2 0.2-0.2 0.5-0.2 1 0 1.5l-0.2 0.3c-0.5 0.1-0.5-0.2 0-0.6-0.1-0.1-0.3-0.3-0.4-0.5 0.1-0.3 0.2-0.6 0.2-0.9z"></path><path fill="#204d77" d="m12.7 17.3l0.9 0.4v0.8c-0.2-0.1-0.4 0-0.6 0.2h-0.3v-1.4z"></path><path fill="#205785" d="m20.9 17c0.2 0.4 0.3 0.9 0.2 1.5h-0.2c-0.2-0.5-0.2-1 0-1.5z"></path><path fill="#245884" d="m20.2 17.7h0.1c0.1 0.2 0.3 0.4 0.4 0.5-0.5 0.4-0.5 0.7 0 0.6 0.3 0.2 0.3 0.5 0 0.7 0.1 0.1 0.3 0.1 0.4 0.1 0 0.1-0.1 0.2-0.2 0.2l-0.4 0.2c-0.1-0.3-0.1-0.5 0-0.7-0.1-0.1-0.2-0.1-0.3-0.1v-1.5z" opacity=".835"></path><path fill="#1e466e" d="m14.9 17.9c0.2 0.1 0.4 0.2 0.6 0.2v0.2c0.2 0.1 0.2 0.3 0 0.4-0.2-0.1-0.3-0.2-0.3-0.4-0.1 0.1-0.2 0.1-0.3 0.2v-0.6z"></path><path fill="#2a628e" d="m22.8 17.3l0.4 0.2v1.2c-0.3-0.1-0.5-0.2-0.6-0.4 0.1-0.4 0.2-0.7 0.2-1z"></path><path fill="#164069" d="m15.5 18.3h0.3v1.7c-0.1 0-0.2-0.1-0.3-0.2 0-0.4 0-0.7 0-1.1 0.2-0.1 0.2-0.3 0-0.4z" opacity=".793"></path><path fill="#1d4e7b" d="m20.9 18.5h0.2v1.1c-0.1 0-0.3 0-0.4-0.1 0.3-0.2 0.3-0.5 0-0.7l0.2-0.3z"></path><path fill="#28608d" d="m22.6 18.3c0.1 0.2 0.3 0.3 0.6 0.4 0 0.4 0 0.6-0.2 0.7l-0.4-1.1z"></path><path fill="#214d78" d="m15.5 18.7c0 0.4 0 0.7 0 1.1 0.1 0.1 0.2 0.2 0.3 0.2v0.2h-0.5c-0.2-0.3-0.2-0.5 0-0.8-0.1-0.2-0.2-0.3-0.4-0.4-0.2-0.2-0.2-0.3 0-0.5 0.1-0.1 0.2-0.1 0.3-0.2 0 0.2 0.1 0.3 0.3 0.4z"></path><path fill="#1d4872" d="m12.7 18.7h0.3c0.1 0.2 0.1 0.5 0 0.9l-0.3-0.2v-0.7z"></path><path fill="#1e507c" d="m22.4 18.3h0.2l0.4 1.1h-0.2c-0.1-0.2-0.2-0.2-0.4 0v-1.1z" opacity=".718"></path><path fill="#183a61" d="m13 18.7c0.2-0.2 0.4-0.3 0.6-0.2v1.1h-0.6c0.1-0.4 0.1-0.7 0-0.9z" opacity=".916"></path><path fill="#1f527e" d="m23.3 17.3v2.5h-0.5v-0.4h0.2c0.2-0.1 0.2-0.3 0.2-0.7v-1.2c0-0.1 0-0.2 0.1-0.2z"></path><path fill="#1a436c" d="m14.9 19c0.2 0.1 0.3 0.2 0.4 0.4-0.2 0.3-0.2 0.5 0 0.8-0.1 0.1-0.2 0.2-0.4 0.1v-1.3z" opacity=".945"></path><path fill="#1b446f" d="m20.2 19.2c0.1 0 0.2 0 0.3 0.1-0.1 0.2-0.1 0.4 0 0.7 0.1 0.2 0 0.4-0.2 0.5 0.1-0.2 0-0.4-0.1-0.5v-0.8z" opacity=".902"></path><path fill="#1a446e" d="m22.8 19.4v0.4c0 0.3 0 0.5 0.2 0.7-0.2 0-0.2 0.1-0.2 0.2l-0.4 0.4v-1.7c0.2-0.2 0.3-0.2 0.4 0z" opacity=".714"></path><path fill="#193d65" d="m12.7 19.4l0.3 0.2h0.6v0.6h-0.2c-0.1-0.1-0.2-0.2-0.3-0.4l-0.2 0.4c0-0.2-0.1-0.3-0.2-0.4v-0.4z"></path><path fill="#143f6e" d="m21.1 18.7h0.2v3.3h-0.2v-0.7c0-0.4 0-0.7-0.2-1v-0.5c0.1 0 0.2-0.1 0.2-0.2v-0.9z" opacity=".106"></path><path fill="#21507d" d="m12.7 19.8c0.1 0.1 0.2 0.2 0.2 0.4l0.2-0.4c0.1 0.2 0.2 0.3 0.3 0.4-0.1 0.3-0.3 0.4-0.6 0.3 0.3 0.2 0.4 0.4 0.4 0.6h-0.5v-1.3z" opacity=".998"></path><path fill="#224e79" d="m20.9 19.8v0.5c-0.1 0.4-0.2 0.7-0.2 1-0.1-0.2-0.3-0.5-0.4-0.8 0.2-0.1 0.3-0.3 0.2-0.5l0.4-0.2z"></path><path fill="#1c456e" d="m15.3 20.2h0.4c0 0.2 0 0.3-0.1 0.5-0.2-0.2-0.4-0.2-0.5 0 0.1 0.6 0.3 0.6 0.5 0.2 0.1 0.3 0 0.5-0.1 0.8h-0.6c-0.1-0.5-0.1-0.9 0-1.4 0.2 0.1 0.3 0 0.4-0.1z"></path><path fill="#224f79" d="m22.8 19.8h0.5c-0.1 0.3-0.1 0.7-0.1 1.1-0.2-0.1-0.3-0.2-0.2-0.4-0.2-0.2-0.2-0.4-0.2-0.7z"></path><path fill="#173f69" d="m15.7 20.2h0.1v1.6c-0.1 0.1-0.3 0-0.3-0.1 0.1-0.3 0.2-0.5 0.1-0.8-0.2 0.4-0.4 0.4-0.5-0.2 0.1-0.2 0.3-0.2 0.5 0 0.1-0.2 0.1-0.3 0.1-0.5z" opacity=".739"></path><path fill="#1a456e" d="m13.4 20.2h0.2v0.9h-0.4c0-0.2-0.1-0.4-0.4-0.6 0.3 0.1 0.5 0 0.6-0.3z" opacity=".949"></path><path fill="#1d4772" d="m20.2 20c0.1 0.1 0.2 0.3 0.1 0.5 0.1 0.3 0.3 0.6 0.4 0.8 0 0.1 0 0.2-0.2 0.2l-0.3 0.2v-1.7z" opacity=".931"></path><path fill="#1a4671" d="m20.9 20.3c0.2 0.3 0.2 0.6 0.2 1h-0.4c0-0.3 0.1-0.6 0.2-1z"></path><path fill="#163d66" d="m22.8 20.7c0 0.4 0 0.8-0.2 1.1h-0.2v-0.7l0.4-0.4z"></path><path fill="#1b4a78" d="m12.7 21.1h0.9v1.1h-0.2l-0.2-0.7c-0.1-0.2-0.3-0.2-0.5 0v-0.4z" opacity=".859"></path><path fill="#204d78" d="m14.9 21.8v-0.1h0.6c0 0.1 0.2 0.2 0.3 0.1v0.2c-0.1 0.3-0.2 0.6-0.3 1h-0.2c-0.2-0.3-0.2-0.5 0.2-0.7-0.1-0.3-0.3-0.4-0.6-0.5z"></path><path fill="#1e4c78" d="m20.5 21.5c0.1 0.3 0 0.6-0.2 0.9v0.4h-0.1v-1.1l0.3-0.2z" opacity=".769"></path><path fill="#275c87" d="m20.7 21.3h0.4v0.7c-0.2 0.2-0.5 0.4-0.8 0.4 0.2-0.3 0.3-0.6 0.2-0.9 0.2 0 0.2-0.1 0.2-0.2z"></path><path fill="#204b73" d="m23 20.5c-0.1 0.2 0 0.3 0.2 0.4-0.1 0.4 0 0.8 0.1 1.1-0.2 0-0.4 0-0.5-0.2h-0.2c0.2-0.3 0.2-0.7 0.2-1.1 0-0.1 0-0.2 0.2-0.2z"></path><path fill="#113d6d" d="m23.3 17.2h0.2c0.1 3.7 0 7.5-0.2 11.2v-6.4c-0.1-0.3-0.2-0.7-0.1-1.1 0-0.4 0-0.8 0.1-1.1v-2.6z" opacity=".06"></path><path fill="#1e4c7a" d="m13.2 21.5c-0.1 0-0.3 0.1-0.4 0.3 0.3 0.1 0.3 0.3 0 0.4h-0.1v-0.7c0.2-0.2 0.4-0.2 0.5 0z" opacity=".992"></path><path fill="#265987" d="m13.2 21.5l0.2 0.7-0.2 0.4c-0.3 0.2-0.4 0.1-0.4-0.4 0.3-0.1 0.3-0.3 0-0.4 0.1-0.2 0.3-0.3 0.4-0.3z"></path><path fill="#133962" d="m22.4 21.8h0.4c-0.2 0.4-0.2 0.7-0.2 1h-0.2v-1z" opacity=".735"></path><path fill="#1c446c" d="m22.8 21.8c0.1 0.2 0.3 0.2 0.5 0.2v0.2c-0.3 0-0.4 0.1-0.1 0.3-0.2 0.1-0.3 0.3-0.4 0.5-0.1 0-0.2-0.1-0.2-0.2 0-0.3 0-0.6 0.2-1z"></path><path fill="#173960" d="m14.9 21.8c0.3 0.1 0.5 0.2 0.6 0.5-0.4 0.2-0.4 0.4-0.2 0.7-0.1 0.2-0.2 0.4-0.4 0.5v-1.7z"></path><path fill="#092d56" d="m4.6 22.6v-0.2h3.9v0.4h-3c-0.2-0.2-0.5-0.3-0.9-0.2z" opacity=".35"></path><path fill="#0e3c69" d="m8.5 22.4h1.2l0.3 0.4h-1.5v-0.4z" opacity=".519"></path><path fill="#0f4070" d="m9.7 22.4h1.6v0.6c-0.3-0.2-0.7-0.3-1.1-0.2h-0.2l-0.3-0.4z" opacity=".5"></path><path fill="#133e69" d="m24.7 22.6c0.5-0.2 1-0.3 1.6-0.2v0.4h-0.1c-0.2-0.2-0.5-0.3-0.8-0.2h-0.7z" opacity=".333"></path><path fill="#144978" d="m26.3 22.4h3l0.2 0.4h-0.9c-0.2 0-0.4-0.1-0.6-0.2-0.5-0.1-1 0-1.5 0.2h-0.2v-0.4z" opacity=".351"></path><path fill="#0f3662" d="m29.7 22.4h1.3v0.4h-0.9c-0.3 0-0.4-0.1-0.4-0.4z" opacity=".337"></path><path fill="#10325b" d="m31 22.4h0.8v0.6h-0.4c-0.1-0.2-0.2-0.3-0.4-0.2v-0.4z" opacity=".306"></path><path fill="#1a5384" d="m26.5 22.8c0.5-0.2 1-0.3 1.5-0.2v0.4c-0.3-0.3-0.6-0.3-0.9 0.1 0.2 0.1 0.5 0.1 0.7 0.1l-0.1 0.3h-0.2c-0.2-0.1-0.5-0.2-0.8-0.2 0.3-0.3 0.3-0.5-0.2-0.5z"></path><path fill="#173961" d="m7 22.8h1.2l0.1 0.4h-1.3v-0.4z"></path><path fill="#1e4c79" d="m8.2 22.8h1.5v0.4h-1.4l-0.1-0.4z" opacity=".996"></path><path fill="#1b4e7e" d="m10.2 22.8c0.4-0.1 0.8 0 1.1 0.2v0.2h-0.7l-0.4-0.4z" opacity=".98"></path><path fill="#225684" d="m12.7 22.2h0.1c0 0.5 0.1 0.6 0.4 0.4 0 0.3-0.1 0.6-0.2 0.9l-0.3-0.2v-1.1z"></path><path fill="#1f4a74" d="m21.1 22v0.6c-0.1 0.1-0.3 0.3-0.5 0.4-0.1 0-0.2-0.1-0.3-0.2v-0.4c0.3 0 0.6-0.2 0.8-0.4z"></path><path fill="#194c7b" d="m24.7 22.6h0.7c-0.1 0.2-0.2 0.3-0.2 0.6-0.1-0.1-0.2-0.1-0.3-0.2 0 0.1-0.1 0.3-0.2 0.3v-0.7z" opacity=".584"></path><path fill="#215b8c" d="m28 22.6c0.2 0.1 0.4 0.2 0.6 0.2l-0.2 0.4c-0.1 0.2-0.2 0.2-0.4 0v-0.6z" opacity=".988"></path><path fill="#225786" d="m28.6 22.8h0.9v0.5c-0.4-0.1-0.7-0.1-1.1-0.1l0.2-0.4z" opacity=".993"></path><path fill="#1a3f68" d="m30.1 22.8h0.9c0.2-0.1 0.3 0 0.4 0.2-0.1 0-0.2 0-0.2 0.2h-0.9l-0.2-0.4z"></path><path fill="#001a3f" d="m4.6 22.6c0.4-0.1 0.7 0 0.9 0.2h-0.2c-1 0.1-1 0.2 0 0.4 0 0.1 0 0.1-0.1 0.1h-0.8c0-0.3 0-0.5 0.2-0.7z"></path><path fill="#112d50" d="m5.3 22.8l0.4 0.4h-0.4c-1-0.2-1-0.3 0-0.4z"></path><path fill="#123055" d="m5.3 22.8h0.8l0.4 0.4c-0.2 0-0.2 0-0.2 0.1-0.2-0.1-0.4-0.1-0.6-0.1l-0.4-0.4z"></path><path fill="#173b63" d="m6.1 22.8h0.9v0.4h-0.5l-0.4-0.4z"></path><path fill="#1a4874" d="m9.7 22.8h0.5l0.4 0.4h-0.2c-0.2 0.1-0.5 0.1-0.7 0v-0.4z" opacity=".986"></path><path fill="#173c65" d="m13.4 22.2h0.2v1.7h-0.4c-0.1-0.1-0.2-0.2-0.2-0.4 0.1-0.3 0.2-0.6 0.2-0.9l0.2-0.4z"></path><path fill="#1a4068" d="m21.1 22.6v0.7c-0.3-0.2-0.5-0.1-0.6 0.2h-0.3v-0.7h0.1c0.1 0.1 0.2 0.2 0.3 0.2 0.2-0.1 0.4-0.3 0.5-0.4z" opacity=".689"></path><path fill="#133d66" d="m22.4 22.8h0.2c0 0.1 0.1 0.2 0.2 0.2v0.5l-0.2 0.4h-0.2v-1.1z" opacity=".888"></path><path fill="#1d4a73" d="m23.3 22.2v1.1c-0.2 0.1-0.4 0.1-0.5 0.2v-0.5c0.1-0.2 0.2-0.4 0.4-0.5-0.3-0.2-0.2-0.3 0.1-0.3z"></path><path fill="#12365b" d="m25.4 22.6c0.3-0.1 0.6 0 0.8 0.2v0.4c-0.2 0-0.2 0-0.2 0.1-0.3 0.1-0.6 0-0.8-0.1 0-0.3 0.1-0.4 0.2-0.6z" opacity=".984"></path><path fill="#215582" d="m26.2 22.8h0.3c0.5 0 0.5 0.2 0.2 0.5-0.2 0.1-0.4 0-0.5-0.1v-0.4z" opacity=".98"></path><path fill="#265e8c" d="m28 23v0.2h-0.2c-0.2 0-0.5 0-0.7-0.1 0.3-0.4 0.6-0.4 0.9-0.1z" opacity=".992"></path><path fill="#184370" d="m29.3 22.4h0.4c0 0.3 0.1 0.4 0.4 0.4l0.2 0.4c-0.3 0.1-0.5 0.1-0.8 0v-0.4l-0.2-0.4z"></path><path fill="#153763" d="m31.2 23.2c0-0.2 0.1-0.2 0.2-0.2h0.4v0.5h-1c0.3-0.1 0.5-0.2 0.8-0.2-0.1-0.1-0.2-0.2-0.4-0.1z" opacity=".301"></path><path fill="#0e274c" d="m4.6 22.4v0.2c-0.2 0.2-0.2 0.4-0.2 0.7h0.8v0.2h-1c-0.1-0.5 0.1-0.8 0.4-1.1z" opacity=".295"></path><path fill="#0b2b54" d="m5.3 23.2h0.4c0.2 0 0.4 0 0.6 0.1v0.2h-1.1v-0.2c0.1 0 0.1 0 0.1-0.1z" opacity=".265"></path><path fill="#0b2f5b" d="m6.5 23.2h0.5v0.3h-0.7v-0.2c0-0.1 0-0.1 0.2-0.1z" opacity=".276"></path><path fill="#092a55" d="m7 23.2h1.5v0.3h-1.5v-0.3z" opacity=".273"></path><path fill="#0e3c6e" d="m8.5 23.2h1l-0.2 0.3h-0.8v-0.3z" opacity=".237"></path><path fill="#0f3a6b" d="m9.5 23.2h0.2c0.2 0.1 0.5 0.1 0.7 0l0.2 0.3h-1.3l0.2-0.3z" opacity=".25"></path><path fill="#0e4071" d="m10.4 23.2h0.9c-0.1 0.3-0.3 0.4-0.7 0.3l-0.2-0.3z" opacity=".278"></path><path fill="#184875" d="m15.8 22v1.7h-0.1c-0.2-0.2-0.2-0.5-0.2-0.7 0.1-0.4 0.2-0.7 0.3-1z" opacity=".792"></path><path fill="#103967" d="m25.2 23.2c0.2 0.1 0.5 0.2 0.8 0.1v0.2c-0.5 0.1-0.9 0-1.3-0.2 0.1 0 0.2-0.2 0.2-0.3 0.1 0.1 0.2 0.1 0.3 0.2z" opacity=".216"></path><path fill="#164777" d="m26.2 23.2c0.1 0.1 0.3 0.2 0.5 0.1 0.3 0 0.6 0.1 0.8 0.2h-1.5v-0.2c0-0.1 0-0.1 0.2-0.1z" opacity=".26"></path><path fill="#16487a" d="m27.8 23.2h0.2c0.2 0.2 0.3 0.2 0.4 0 0.4 0 0.7 0 1.1 0.1v0.2h-1.8l0.1-0.3z" opacity=".235"></path><path fill="#0d325f" d="m29.5 23.2c0.3 0.1 0.5 0.1 0.8 0h0.9c0.2-0.1 0.3 0 0.4 0.1-0.3 0-0.5 0.1-0.8 0.2h-1.3v-0.3z" opacity=".26"></path><path fill="#1b436d" d="m15.3 23h0.2c0 0.2 0 0.5 0.2 0.7-0.2 0-0.4 0-0.6 0.1 0.2 0.1 0.4 0.2 0.4 0.5 0 0.2-0.2 0.4-0.4 0.4h-0.2v-1.2c0.2-0.1 0.3-0.3 0.4-0.5z"></path><path fill="#123a67" d="m21.1 22h0.2c0 1 0 2-0.1 3-0.1 0.1-0.2 0.2-0.3 0.2h-0.4c0.2-0.1 0.3-0.3 0.5-0.4 0.1-0.2 0.1-0.4-0.1-0.5 0-0.3 0.1-0.6 0.2-1v-1.3z" opacity=".082"></path><path fill="#205484" d="m12.7 23.3l0.3 0.2c0 0.2 0.1 0.3 0.2 0.4-0.1 0.3-0.3 0.4-0.5 0.4v-1z"></path><path fill="#163961" d="m13.2 23.9h0.4v0.8c-0.2-0.2-0.3-0.2-0.4 0-0.2-0.1-0.4-0.1-0.5-0.2v-0.2c0.2 0 0.4-0.1 0.5-0.4z"></path><path fill="#1c466f" d="m20.2 23.5h0.3c0.2 0.4 0.1 0.6-0.3 0.8v-0.8z" opacity=".663"></path><path fill="#204d75" d="m21.1 23.3c-0.1 0.4-0.2 0.7-0.2 1-0.2 0.1-0.5 0.2-0.7 0.3 0.2 0.1 0.2 0.3 0 0.4-0.2-0.1-0.2-0.3-0.2-0.5v-0.2h0.2c0.4-0.2 0.5-0.4 0.3-0.8 0.1-0.3 0.3-0.4 0.6-0.2z" opacity=".996"></path><path fill="#183d66" d="m15.7 23.7h0.1c0 0.3 0.1 0.5 0.4 0.6v0.2c0 0.1 0 0.2-0.1 0.3 0-0.1-0.1-0.3-0.3-0.3l-0.3-0.2c0-0.3-0.2-0.4-0.4-0.5 0.2-0.1 0.4-0.1 0.6-0.1z" opacity=".955"></path><path fill="#173c66" d="m17.5 24.3h1.3l-0.1 0.4c-0.4-0.3-0.7-0.3-1 0-0.1-0.1-0.2-0.2-0.2-0.4z" opacity=".913"></path><path fill="#235784" d="m23.3 23.3v0.2c-0.2 0.5-0.3 0.9-0.3 1.3h-0.2c-0.2-0.2-0.3-0.5-0.2-0.9l0.2-0.4c0.1-0.1 0.3-0.1 0.5-0.2z" opacity=".998"></path><path fill="#1a4f7d" d="m23.3 23.5v1.5h-0.1c-0.2 0-0.2 0-0.2-0.2 0-0.4 0.1-0.8 0.3-1.3z" opacity=".984"></path><path fill="#23517c" d="m15.5 24.3l0.3 0.2v0.7h-0.3c0-0.1 0.1-0.2 0.2-0.3-0.3 0-0.5-0.1-0.6-0.2 0.2 0 0.4-0.2 0.4-0.4z" opacity=".996"></path><path fill="#15365f" d="m16.2 24.5v-0.2h1.1c-0.2 0.3-0.2 0.5 0.2 0.6-0.1 0.1-0.3 0.2-0.3 0.3-0.2 0-0.4 0-0.6 0.1 0.2 0.1 0.3 0.3 0.4 0.5-0.2 0-0.2 0-0.2 0.2-0.1 0-0.2-0.1-0.2-0.2-0.2-0.5-0.2-0.9 0-1.2-0.1-0.1-0.2-0.2-0.4-0.1z"></path><path fill="#163459" d="m18.7 24.7c0.1 0 0.1 0 0.1 0.1-0.4 0.1-0.8 0-1.1-0.1 0.3-0.3 0.6-0.3 1 0z" opacity=".996"></path><path fill="#235580" d="m18.8 24.3h1.2v0.2c-0.2 0.2-0.4 0.2-0.5 0l-0.3 0.5-0.4-0.2c0-0.1 0-0.1-0.1-0.1l0.1-0.4z"></path><path fill="#1f4871" d="m20 24.5c0 0.2 0 0.4 0.2 0.5-0.3 0.2-0.3 0.4 0 0.6l-0.4 0.2v-0.4c-0.1-0.3-0.3-0.4-0.6-0.4l0.3-0.5c0.1 0.2 0.3 0.2 0.5 0z" opacity=".993"></path><path fill="#0d2749" d="m4.4 24.8h1.1c0.3 0.2 0.3 0.4 0 0.6-0.1-0.2-0.3-0.3-0.5-0.4-0.3 0.1-0.5 0-0.6-0.2z" opacity=".835"></path><path fill="#12355d" d="m6.5 24.8h1.5c-0.4 0.2-0.7 0.6-0.8 1h-0.7v-1z" opacity=".857"></path><path fill="#153f6b" d="m9.3 24.8h0.5v0.6c-0.3 0.1-0.5-0.1-0.5-0.6z" opacity=".859"></path><path fill="#114171" d="m10.4 24.8h0.9c0.1 0.4 0 0.7-0.1 1 0-0.3 0-0.5-0.1-0.8-0.2 0.2-0.5 0.3-0.7 0.4v-0.6z" opacity=".867"></path><path fill="#1e4976" d="m12.7 24.5c0.1 0.1 0.3 0.1 0.5 0.2 0.3 0.2 0.2 0.4-0.1 0.5-0.1-0.5-0.2-0.5-0.3 0 0.2 0.4 0.4 0.7 0.6 1 0.1 0.3-0.1 0.6-0.4 0.7-0.2-0.2-0.2-0.5 0-0.7 0-0.2-0.2-0.4-0.3-0.4v-1.3z"></path><path fill="#183b65" d="m15.8 24.5c0.2 0 0.3 0.2 0.3 0.3 0.1-0.1 0.1-0.2 0.1-0.3 0.2-0.1 0.3 0 0.4 0.1-0.2 0.3-0.2 0.7 0 1.2h-0.4c0.1-0.4 0-0.6-0.4-0.8v-0.5z"></path><path fill="#1f4d78" d="m17.3 24.3h0.2c0 0.2 0.1 0.3 0.2 0.4 0.3 0.1 0.7 0.2 1.1 0.1v0.4h-1.6c0-0.1 0.2-0.2 0.3-0.3-0.4-0.1-0.4-0.3-0.2-0.6z"></path><path fill="#1b446c" d="m20.9 24.3c0.2 0.1 0.2 0.3 0.1 0.5-0.2 0.1-0.3 0.3-0.5 0.4 0 0.2-0.2 0.3-0.3 0.4-0.3-0.2-0.3-0.4 0-0.6 0.2-0.1 0.2-0.3 0-0.4 0.2-0.1 0.5-0.2 0.7-0.3z" opacity=".994"></path><path fill="#27608e" d="m22.8 24.8h0.2c0 0.2 0 0.2 0.2 0.2 0 0.5-0.2 0.7-0.6 0.8 0-0.4 0-0.7 0.2-1z" opacity=".999"></path><path fill="#154b7b" d="m26.2 25v-0.2h1.5v0.2c-0.3 0.1-0.6 0.1-1 0-0.2 0.3-0.4 0.3-0.5 0z" opacity=".855"></path><path fill="#163b67" d="m29.5 24.8h1c0 0.2 0 0.4-0.1 0.6-0.2-0.2-0.3-0.2-0.5-0.1 0.2 0.1 0.3 0.3 0.4 0.5h-0.8v-0.4c0.2-0.1 0.2-0.2 0-0.4v-0.2z" opacity=".975"></path><path fill="#14355e" d="m30.5 24.8h0.7c0 0.2 0.1 0.4 0.2 0.5-0.3 0.1-0.5 0.2-0.6 0.5h-0.5c-0.1-0.2-0.2-0.4-0.4-0.5 0.2-0.1 0.3-0.1 0.5 0.1 0.1-0.2 0.1-0.4 0.1-0.6z" opacity=".827"></path><path fill="#0b2140" d="m5.5 24.8h1v0.8c-0.3-0.2-0.6-0.2-1-0.2 0.3-0.2 0.3-0.4 0-0.6z" opacity=".996"></path><path fill="#143b65" d="m8.2 24.8h1.1c0 0.5 0.2 0.7 0.5 0.6l0.4 0.2c0.1 0 0.2 0.1 0.2 0.2h-1.5c0.2-0.3 0.2-0.5-0.1-0.8-0.1 0.2-0.3 0.2-0.5 0-0.1 0-0.1 0-0.1-0.2z" opacity=".985"></path><path fill="#123862" d="m9.8 24.8h0.6v0.6c-0.1 0-0.2 0.1-0.2 0.2l-0.4-0.2v-0.6z" opacity=".994"></path><path fill="#153a63" d="m13.6 24.7v1.5h-0.2c-0.2-0.3-0.4-0.6-0.6-1 0.1-0.5 0.2-0.5 0.3 0 0.3-0.1 0.4-0.3 0.1-0.5 0.1-0.2 0.2-0.2 0.4 0z" opacity=".918"></path><path fill="#143c67" d="m14.9 24.7h0.2c0.1 0.1 0.3 0.2 0.6 0.2-0.1 0.1-0.2 0.2-0.2 0.3 0 0.1-0.1 0.2-0.2 0.2-0.3-0.1-0.4-0.4-0.4-0.7z"></path><path fill="#16416b" d="m18.8 24.8l0.4 0.2c0.3 0 0.5 0.1 0.6 0.4h-0.4c-0.1-0.2-0.3-0.2-0.6-0.2v-0.4z" opacity=".902"></path><path fill="#154b7b" d="m22.4 23.9h0.2c-0.1 0.4 0 0.7 0.2 0.9-0.2 0.3-0.2 0.6-0.2 1v0.2h-0.2v-2.1z" opacity=".701"></path><path fill="#154d7d" d="m26 24.8c-0.4 0.2-0.7 0.3-1.2 0.3 0.2 0.2 0.2 0.3 0.2 0.5-0.1 0-0.2 0.1-0.2 0.2-0.1-0.3-0.2-0.6-0.1-1h1.3z" opacity=".706"></path><path fill="#205888" d="m26 24.8h0.2v0.2c-0.2 0.2-0.4 0.3-0.6 0.4-0.2 0.1-0.4 0.2-0.6 0.2 0-0.2 0-0.3-0.2-0.5 0.5 0 0.8-0.1 1.2-0.3z" opacity=".97"></path><path fill="#225889" d="m28.4 25c0.4 0.2 0.8 0.2 1.1 0 0.2 0.2 0.2 0.3 0 0.4-0.2 0.2-0.5 0.2-0.7 0-0.2 0.1-0.2 0.2-0.2 0.4h-0.8c0.2-0.3 0.4-0.6 0.6-0.8z"></path><path fill="#174d7e" d="m27.7 25v-0.2h1.8v0.2c-0.3 0.2-0.7 0.2-1.1 0h-0.7z"></path><path fill="#0b2346" d="m4.4 24.8c0.1 0.2 0.3 0.3 0.6 0.2 0 0.3 0 0.6 0.2 0.8h-1c0-0.4 0-0.7 0.2-1z" opacity=".996"></path><path fill="#245986" d="m26.2 25c0.1 0.3 0.3 0.3 0.5 0v0.4c-0.4 0.2-0.8 0.2-1.1 0 0.2-0.1 0.4-0.2 0.6-0.4z" opacity=".996"></path><path fill="#225685" d="m26.7 25c0.4 0.1 0.7 0.1 1 0h0.1c-0.2 0.6-0.6 0.7-1.1 0.4v-0.4z"></path><path fill="#0d2546" d="m5 25c0.2 0.1 0.4 0.2 0.5 0.4 0.4 0 0.7 0 1 0.2v0.2h-1.3c-0.2-0.2-0.2-0.5-0.2-0.8z" opacity=".988"></path><path fill="#163e68" d="m8 24.8h0.2c0 0.2 0 0.2 0.1 0.2 0 0.2-0.1 0.3-0.3 0.2-0.4 0.1-0.5 0.3-0.2 0.6h-0.6c0.1-0.4 0.4-0.8 0.8-1z" opacity=".928"></path><path fill="#18416c" d="m8.3 25c0.2 0.2 0.4 0.2 0.5 0 0.3 0.3 0.3 0.5 0.1 0.8h-0.6c0-0.3-0.1-0.4-0.3-0.6 0.2 0.1 0.3 0 0.3-0.2z" opacity=".966"></path><path fill="#0d335e" d="m20.5 25.2h0.4c-0.3 0.5-0.7 0.8-1.1 1.1h-0.2c0-0.2 0.1-0.4 0.2-0.5l0.4-0.2c0.1-0.1 0.3-0.2 0.3-0.4z" opacity=".383"></path><path fill="#0c294e" d="m31.2 24.8h0.2c0.1 0.3 0.2 0.5 0.2 0.8-0.2-0.1-0.4 0-0.6 0.2h-0.2c0.1-0.3 0.3-0.4 0.6-0.5-0.1-0.1-0.2-0.3-0.2-0.5z"></path><path fill="#143760" d="m8 25.2c0.2 0.2 0.3 0.3 0.3 0.6h-0.5c-0.3-0.3-0.2-0.5 0.2-0.6z" opacity=".922"></path><path fill="#16406e" d="m11.2 25.8h-0.8c0-0.1-0.1-0.2-0.2-0.2 0-0.1 0.1-0.2 0.2-0.2 0.2-0.1 0.5-0.2 0.7-0.4 0.1 0.3 0.1 0.5 0.1 0.8z" opacity=".886"></path><path fill="#123962" d="m15.5 25.2h0.3c0.3 0.3 0.3 0.5-0.1 0.6-0.2-0.1-0.4-0.2-0.4-0.4 0.1 0 0.2-0.1 0.2-0.2z"></path><path fill="#1d5484" d="m25.6 25.4c0.3 0.2 0.7 0.2 1.1 0v0.4h-1.9c0-0.1 0.1-0.2 0.2-0.2 0.2 0 0.4-0.1 0.6-0.2z" opacity=".894"></path><path fill="#1e5182" d="m27.8 25h0.6c-0.2 0.2-0.4 0.5-0.6 0.8h-1.1v-0.4c0.5 0.3 0.9 0.2 1.1-0.4z" opacity=".922"></path><path fill="#1e5284" d="m29.5 25.4v0.4h-0.9c0-0.2 0-0.3 0.2-0.4 0.2 0.2 0.5 0.2 0.7 0z" opacity=".903"></path><path fill="#17355b" d="m31.4 24.8c0.3 0.2 0.5 0.6 0.4 1h-0.8c0.2-0.2 0.4-0.3 0.6-0.2 0-0.3-0.1-0.5-0.2-0.8z" opacity=".506"></path><path fill="#1f5787" d="m23.2 25h0.1v1.2c-0.1 0-0.1 0-0.1 0.1-0.2 0-0.3-0.2-0.3-0.3-0.1 0.1-0.2 0.3-0.3 0.3v-0.5c0.4-0.1 0.6-0.3 0.6-0.8z" opacity=".988"></path><path fill="#10355d" d="m15.8 25c0.4 0.2 0.5 0.4 0.4 0.8 0 0.2 0.1 0.4 0.2 0.5-0.3-0.1-0.5-0.3-0.7-0.5 0.4-0.1 0.4-0.3 0.1-0.6v-0.2z" opacity=".91"></path><path fill="#1d4974" d="m16.2 25.8h0.4c0 0.1 0.1 0.2 0.2 0.2s0.2 0 0.2 0.2c-0.2 0.1-0.4 0.1-0.6 0.1-0.1-0.1-0.2-0.3-0.2-0.5z" opacity=".986"></path><path fill="#123e6b" d="m16.8 26c0-0.2 0-0.2 0.2-0.2 0.3 0.2 0.7 0.5 0.9 0.9 0 0.2 0 0.3-0.2 0.4 0.1-0.2 0-0.3-0.2-0.4-0.1-0.2-0.3-0.4-0.5-0.5 0-0.2-0.1-0.2-0.2-0.2z" opacity=".796"></path><path fill="#133a64" d="m19.4 25.4h0.2c-0.1 0.2-0.2 0.5-0.3 0.8-0.1-0.3-0.2-0.3-0.3 0h-0.3c0.1-0.4 0.4-0.6 0.7-0.8z" opacity=".992"></path><path fill="#1f4972" d="m19.6 25.4h0.2v0.4c-0.1 0.1-0.2 0.3-0.2 0.5l-0.6 0.4v-0.5c0.1-0.3 0.2-0.3 0.3 0 0.1-0.3 0.2-0.6 0.3-0.8z"></path><path fill="#10365f" d="m17 26.2c-0.1 0.2-0.1 0.4 0 0.5v0.2c-0.4 0-0.6-0.2-0.6-0.6 0.2 0 0.4 0 0.6-0.1z"></path><path fill="#204d79" d="m17 26.2c0.2 0.1 0.4 0.3 0.5 0.5-0.2 0.3-0.3 0.3-0.5 0-0.1-0.1-0.1-0.3 0-0.5z" opacity=".996"></path><path fill="#1c4a75" d="m18.7 26.2h0.3v0.5c-0.1 0-0.2 0.1-0.2 0.2-0.1-0.1-0.2-0.2-0.2-0.4-0.2 0.2-0.3 0.2-0.5 0.2 0.1-0.2 0.3-0.4 0.6-0.5z" opacity=".988"></path><path fill="#19416d" d="m12.7 25.8c0.1 0 0.3 0.2 0.3 0.4-0.2 0.2-0.2 0.5 0 0.7l-0.3 0.2v-1.3z"></path><path fill="#1a4673" d="m17 26.7c0.2 0.3 0.3 0.3 0.5 0 0.2 0.1 0.3 0.2 0.2 0.4-0.2 0.2-0.5 0.2-0.7 0v-0.4z" opacity=".98"></path><path fill="#21517e" d="m18.8 26.9c0.2 0 0.2 0.1 0.2 0.2-0.4 0-0.7 0.2-0.9 0.6-0.1-0.3-0.2-0.5-0.4-0.6 0.2-0.1 0.2-0.2 0.2-0.4h0.2c0.2 0 0.3 0 0.5-0.2 0 0.2 0.1 0.3 0.2 0.4z" opacity=".99"></path><path fill="#0c3560" d="m19.6 26.3h0.2c-0.2 0.4-0.5 0.6-0.8 0.8 0-0.1 0-0.2-0.2-0.2 0-0.1 0.1-0.2 0.2-0.2l0.6-0.4z" opacity=".078"></path><path fill="#285d8b" d="m23.2 26.3c-0.1 0.3-0.2 0.7-0.2 1-0.3-0.3-0.4-0.6-0.4-1 0.1 0 0.2-0.2 0.3-0.3 0 0.1 0.1 0.3 0.3 0.3z"></path><path fill="#1a4674" d="m13.4 26.2h0.2v1.3l-0.6-0.4v-0.2c0.3-0.1 0.5-0.4 0.4-0.7z"></path><path fill="#1a4875" d="m23.3 26.2v0.9l-0.3 0.2c0-0.3 0.1-0.7 0.2-1 0-0.1 0-0.1 0.1-0.1z"></path><path fill="#1e4f7e" d="m22.4 26h0.2v0.3c0 0.4 0.1 0.7 0.4 1-0.2 0.3-0.2 0.6 0 0.9 0 0.2-0.1 0.3-0.2 0.4v-0.2c0-0.2-0.1-0.4-0.4-0.4v-2z" opacity=".813"></path><path fill="#16416e" d="m17 27.1c0.2 0.2 0.5 0.2 0.7 0 0.2 0.1 0.3 0.3 0.4 0.6-0.1 0.1-0.3 0.1-0.6 0-0.2-0.2-0.4-0.4-0.5-0.6z"></path><path fill="#1c4776" d="m13 26.9v0.2c0 0.3 0 0.5-0.2 0.7v0.8c-0.1-0.5-0.2-1-0.1-1.5l0.3-0.2z"></path><path fill="#1f4c7a" d="m13 27.1l0.6 0.4v0.5c-0.2-0.1-0.5-0.2-0.8-0.2 0.2-0.2 0.2-0.4 0.2-0.7z"></path><path fill="#28618f" d="m23.3 27.1v0.6l-0.3 0.5c-0.2-0.3-0.2-0.6 0-0.9l0.3-0.2z"></path><path fill="#123c69" d="m19 27.1c-0.2 0.6-0.7 0.8-1.3 0.8-0.1 0-0.1-0.1-0.2-0.2 0.3 0.1 0.5 0.1 0.6 0 0.2-0.4 0.5-0.6 0.9-0.6z" opacity=".122"></path><path fill="#205080" d="m12.8 27.8c0.3 0 0.6 0.1 0.8 0.2v0.8c-0.2-0.2-0.5-0.2-0.8-0.2v-0.8z" opacity=".999"></path><path fill="#174775" d="m23.3 27.7v0.7c-0.1 0.3-0.3 0.4-0.5 0.6v-0.4c0.1-0.1 0.2-0.2 0.2-0.4l0.3-0.5z" opacity=".986"></path><path fill="#134170" d="m13.6 28c0.5 0.4 0.9 0.8 1.3 1.3-0.3 0-0.5-0.1-0.7-0.3-0.2-0.3-0.4-0.5-0.6-0.6v-0.4z" opacity=".784"></path><path fill="#184774" d="m22.4 28c0.3 0 0.4 0.2 0.4 0.4-0.5-0.1-0.8 0.1-0.8 0.8h-0.3v-0.4c0.1-0.3 0.4-0.6 0.7-0.8z"></path><path fill="#1b426d" d="m13.6 28.4c0.2 0.1 0.4 0.3 0.6 0.6 0 0.1-0.1 0.2-0.2 0.2-0.2-0.1-0.3-0.2-0.4-0.4v-0.4z" opacity=".994"></path><path fill="#265c8a" d="m22.8 28.4v0.6c-0.2-0.1-0.2-0.2-0.3-0.4-0.2 0.2-0.3 0.4-0.5 0.6 0-0.7 0.3-0.9 0.8-0.8z"></path><path fill="#17436f" d="m12.8 28.6c0.3 0 0.6 0 0.8 0.2 0.1 0.2 0.2 0.3 0.4 0.4 0.1 0.2 0.2 0.5 0.4 0.7 0.1-0.1 0.2-0.2 0.3-0.2l0.2 0.4c0 0.2 0 0.3-0.2 0.4-0.7-0.6-1.3-1.2-1.9-1.9z" opacity=".965"></path><path fill="#1a4976" d="m22.8 29c-0.1 0.2-0.2 0.3-0.4 0.3-0.2 0.1-0.3 0-0.4-0.1 0.2-0.2 0.3-0.4 0.5-0.6 0.1 0.2 0.1 0.3 0.3 0.4z" opacity=".996"></path><path fill="#225381" d="m14.2 29c0.2 0.2 0.4 0.3 0.7 0.3l-0.2 0.4c-0.1 0-0.2 0.1-0.3 0.2-0.2-0.2-0.3-0.5-0.4-0.7 0.1 0 0.2-0.1 0.2-0.2z"></path><path fill="#275f8c" d="m18.3 29.3v0.2c-0.2 0-0.3 0-0.4 0.1 0.2 0.2 0.3 0.5 0.4 0.7h-0.6c-0.1-0.2-0.2-0.4-0.2-0.6 0.2-0.3 0.4-0.4 0.8-0.4z"></path><path fill="#164a79" d="m18.3 29.5v-0.2h0.2c0.3 0.2 0.5 0.5 0.7 0.8h-0.2l-0.3-0.2c-0.1-0.2-0.2-0.3-0.4-0.4z" opacity=".251"></path><path fill="#22507b" d="m21.7 29.2c0 0.1 0.1 0.2 0.1 0.3 0 0.3-0.1 0.3-0.2 0-0.1 0.1-0.2 0.3-0.1 0.4 0 0.1-0.1 0.2-0.2 0.2 0-0.1-0.1-0.2-0.2-0.2 0-0.4 0.2-0.6 0.6-0.7z"></path><path fill="#194a77" d="m14.9 29.3c0.3 0.2 0.6 0.5 0.8 0.8-0.2 0-0.4 0-0.4 0.2l-0.4-0.2-0.2-0.4 0.2-0.4z"></path><path fill="#184975" d="m18.5 29.3h-0.2c-0.4 0-0.6 0.1-0.8 0.4l-0.5 0.8c0-0.2-0.1-0.3-0.2-0.4 0.3-0.6 0.8-1 1.5-1 0.1 0 0.1 0.1 0.2 0.2z" opacity=".98"></path><path fill="#133c66" d="m21.7 28.8v0.4c-0.4 0.1-0.6 0.3-0.6 0.7-0.3 0-0.5 0.1-0.6 0.4h-0.3c0.4-0.6 0.9-1.1 1.5-1.5z"></path><path fill="#153a63" d="m21.7 29.2h0.3c0.1 0.1 0.2 0.2 0.4 0.1-0.1 0.3-0.3 0.5-0.6 0.6h-0.3c-0.1-0.1 0-0.3 0.1-0.4 0.1 0.3 0.2 0.3 0.2 0 0-0.1-0.1-0.2-0.1-0.3z" opacity=".063"></path><path fill="#2b6595" d="m18.3 29.5c0.2 0.1 0.3 0.2 0.4 0.4-0.1 0.2-0.2 0.3-0.4 0.4-0.1-0.2-0.2-0.5-0.4-0.7 0.1-0.1 0.2-0.1 0.4-0.1z"></path><path fill="#1c436a" d="m21.1 29.9c0.1 0 0.2 0.1 0.2 0.2-0.1 0.2-0.2 0.3-0.4 0.4h-0.2c0-0.2 0-0.2-0.2-0.2 0.1-0.3 0.3-0.4 0.6-0.4z" opacity=".99"></path><path fill="#225482" d="m18.7 29.9l0.3 0.2v0.7c-0.1 0-0.3-0.2-0.4-0.3-0.1 0-0.1 0.1-0.1 0.2-0.2-0.1-0.3-0.2-0.4-0.4h0.2c0.2-0.1 0.3-0.2 0.4-0.4z"></path><path fill="#1a436e" d="m19 30.1h0.2c0.2 0.1 0.3 0.2 0.4 0.4-0.1 0-0.2 0-0.2 0.2-0.1 0-0.2 0-0.2 0.1h-0.2v-0.7z"></path><path fill="#1b4c78" d="m20.2 30.3h0.3c0.2 0 0.2 0 0.2 0.2-0.2 0-0.4 0-0.5 0.2h-0.8c0-0.2 0.1-0.2 0.2-0.2 0.2 0 0.4-0.1 0.6-0.2z"></path><path fill="#16416b" d="m14.9 30.1l0.4 0.2c0 0.3 0.1 0.6 0.4 0.9-0.4-0.2-0.7-0.4-1-0.7 0.2-0.1 0.2-0.2 0.2-0.4z" opacity=".925"></path><path fill="#13406b" d="m15.7 30.1c0.1 0.1 0.3 0.2 0.5 0.4 0.2-0.2 0.4-0.3 0.6-0.4 0.1 0.1 0.2 0.2 0.2 0.4l-0.6 0.3h-0.4c-0.2-0.2-0.3-0.4-0.3-0.7z" opacity=".69"></path><path fill="#245481" d="m17.5 29.7c0 0.2 0.1 0.4 0.2 0.6l-0.5 0.4c-0.2 0-0.2-0.1-0.2-0.2l0.5-0.8z"></path><path fill="#0c315b" d="m21.5 29.9h0.3c-0.2 0.4-0.5 0.7-0.9 0.9v-0.3c0.2-0.1 0.3-0.2 0.4-0.4 0.1 0 0.2-0.1 0.2-0.2z" opacity=".535"></path><path fill="#21527e" d="m15.3 30.3c0-0.2 0.2-0.2 0.4-0.2 0 0.3 0.1 0.5 0.3 0.7-0.2 0.3-0.2 0.4 0.2 0.5-0.2 0.1-0.3 0.1-0.5 0.1v-0.2c-0.3-0.3-0.4-0.6-0.4-0.9z"></path><path fill="#1f4b75" d="m17 30.5c0 0.1 0 0.2 0.2 0.2l-0.2 0.3c-0.2 0-0.3 0.1-0.4 0.2-0.2 0-0.2-0.2-0.2-0.4l0.6-0.3z" opacity=".988"></path><path fill="#154473" d="m17.7 30.3h0.2c-0.2 0.4-0.6 0.7-0.9 0.9v-0.2l0.2-0.3 0.5-0.4z" opacity=".671"></path><path fill="#184069" d="m20.7 30.5h0.2v0.3c-0.2 0.4-0.4 0.6-0.7 0.8v-0.9c0.1-0.2 0.3-0.2 0.5-0.2z" opacity=".996"></path><path fill="#1a446e" d="m16 30.8h0.4c0 0.2 0 0.4 0.2 0.4-0.1 0.2-0.2 0.4-0.4 0.5 0.1 0.1 0.1 0.1 0.2 0.1 0 0.1-0.1 0.1-0.2 0.2l-0.5-0.6c0.2 0 0.3 0 0.5-0.1-0.4-0.1-0.4-0.2-0.2-0.5z" opacity=".994"></path><path fill="#14416f" d="m19 30.8h0.2c0.1 0.4 0.3 0.7 0.6 0.8 0 0.1-0.1 0.2-0.2 0.2-0.4-0.3-0.8-0.7-1.1-1.1 0-0.1 0-0.2 0.1-0.2 0.1 0.1 0.3 0.3 0.4 0.3z" opacity=".494"></path><path fill="#255884" d="m19.4 30.7h0.8v0.3c-0.3 0.1-0.5 0.3-0.4 0.6-0.3-0.1-0.5-0.4-0.6-0.8 0-0.1 0.1-0.1 0.2-0.1z"></path><path fill="#113d6b" d="m17 31v0.2c-0.2 0.3-0.3 0.5-0.6 0.6-0.1 0-0.1 0-0.2-0.1 0.2-0.1 0.3-0.3 0.4-0.5 0.1-0.1 0.2-0.2 0.4-0.2z" opacity=".635"></path><path fill="#1a4873" d="m20.2 31v0.6c-0.2 0.3-0.4 0.4-0.6 0.2 0.1 0 0.2-0.1 0.2-0.2-0.1-0.3 0.1-0.5 0.4-0.6z" opacity=".996"></path></svg>