<?xml version="1.0"?><svg xmlns="http://www.w3.org/2000/svg" width="36" height="36" shape-rendering="geometricPrecision" text-rendering="geometricPrecision" image-rendering="optimizeQuality" fill-rule="evenodd" clip-rule="evenodd" viewBox="0 0 36 36"><path fill="#fefefe" d="m9.2 32.8c-0.2-0.1-0.5-0.2-0.8-0.2-0.2-0.2-0.2-0.4-0.2-0.6-0.3 0-0.6-0.1-0.8-0.3-0.1-0.1-0.3-0.2-0.4-0.2l0.1-0.1c-0.2-0.2-0.5-0.3-0.7-0.3-0.2-0.2-0.3-0.4-0.3-0.7-0.5 0.1-0.8-0.1-0.7-0.7-0.5 0-0.8-0.3-0.8-0.8-0.4-0.3-0.7-0.7-0.7-1.3-0.2 0.1-0.4 0-0.6-0.1-0.1-0.3-0.2-0.6-0.3-0.9-0.1-0.1-0.2-0.1-0.4-0.2l0.1-0.1c-0.2-0.3-0.3-0.7-0.3-1.1-0.2-0.1-0.3-0.1-0.5-0.2 0.2-0.1 0.1-0.2-0.1-0.3l-0.1-1.4c-0.4-0.1-0.5-0.4-0.6-0.7-0.1-3.1-0.1-6.2 0-9.3 0.1-0.4 0.2-0.6 0.6-0.7l0.1-1.4c0.1-0.3 0.3-0.5 0.5-0.6 0.1-0.6 0.3-1.1 0.7-1.5l0.1 0.1c-0.1-0.6 0.2-0.9 0.8-1-0.1-0.2 0-0.4 0-0.5 0.4-0.5 0.7-0.9 1-1.4 0.1-0.1 0.3-0.2 0.5-0.2-0.1-0.5 0.2-0.8 0.7-0.7 0-0.4 0.3-0.7 0.7-0.8 0.3-0.4 0.8-0.7 1.4-0.7 0-0.6 0.3-0.8 0.9-0.8 0.3-0.4 0.9-0.7 1.5-0.8 0.1-0.2 0.3-0.4 0.6-0.5l1.4-0.1c0.1-0.4 0.3-0.5 0.7-0.6 3.1-0.1 6.2-0.1 9.3 0 0.3 0.1 0.6 0.2 0.7 0.6l1.4 0.1c0.1 0.2 0.2 0.3 0.3 0.1 0.2 0.4 0.6 0.7 1.1 0.6 0.2 0.2 0.4 0.3 0.7 0.5l-0.2 0.1c0.7-0.1 1 0.2 1 0.8 0.5 0 0.9 0.2 1.3 0.5l-0.1 0.1c0.3 0.1 0.6 0.3 0.9 0.5 0 0.1 0.1 0.3 0 0.4 0.6-0.1 0.8 0.2 0.7 0.7 0.6 0 0.9 0.3 0.9 0.9 0.5 0.2 0.7 0.7 0.7 1.2 0.2 0 0.4 0 0.6 0.2 0 0.5 0.2 0.8 0.7 1l-0.2 0.2c0.2 0.3 0.4 0.6 0.4 1l0.5 0.2c-0.2 0.2-0.2 0.3 0 0.4l0.2 1.4c0.3 0.1 0.5 0.3 0.5 0.7 0.1 3.1 0.1 6.2 0 9.3 0 0.3-0.2 0.6-0.5 0.7l-0.2 1.4c-0.4 0.3-0.7 0.8-0.7 1.4-0.4 0.4-0.7 0.8-0.7 1.4-0.2 0.1-0.4 0.2-0.6 0.1-0.1 0.5-0.2 0.9-0.5 1.3l-0.1-0.1-0.4 0.8c-0.2 0.1-0.4 0.2-0.6 0.1 0.1 0.6-0.1 0.8-0.7 0.7 0.1 0.3 0 0.5-0.2 0.7-0.5 0.1-1 0.4-1.3 0.8-0.2 0.1-0.4 0.1-0.6 0.1 0.1 0.2 0 0.4-0.1 0.6-0.6 0-1 0.3-1.4 0.7-0.6 0-1.1 0.3-1.4 0.7l-1.4 0.2c-0.1 0.3-0.4 0.5-0.7 0.5-3.1 0.1-6.2 0.1-9.3 0-0.4 0-0.6-0.2-0.7-0.5l-1.4-0.2c-0.7-0.4-1.3-0.8-2-1.2z" opacity=".884"></path><path fill="#e3e3e3" d="m17.1 9.4c0.1 0.1 0.2 0.2 0.4 0.2 0.2 0.1 0.5 0.2 0.7 0.2 0.7 0.2 1.3 0.5 2 0.8v0.2h-0.6c-0.2-0.2-0.4-0.3-0.7-0.3 0-0.2-0.1-0.3-0.3-0.4-0.2 0-0.4-0.1-0.7 0-0.2 0-0.4-0.1-0.5-0.2-0.8-0.7-1.6-0.7-2.4 0-0.5 0.1-0.9 0.1-1.3 0.3h-0.3v-0.1c0.7-0.2 1.3-0.4 1.9-0.8 0.6-0.1 1.2-0.1 1.8 0.1z"></path><path fill="#d4d4d4" d="m17.4 9.9c-0.4-0.1-0.8-0.3-1.2-0.4-0.1 0-0.2 0-0.2 0.1l-1 0.3c0.8-0.7 1.6-0.7 2.4 0z"></path><path fill="#bfbfbf" d="m16 9.6c0.4 0.3 0.8 0.5 1.2 0.6-0.7-0.2-1.4-0.2-2.1 0 0.4-0.1 0.7-0.3 0.9-0.6z"></path><path fill="#cacaca" d="m16 9.6c0-0.1 0.1-0.1 0.2-0.1 0.4 0.1 0.8 0.3 1.2 0.4 0.1 0.1 0.3 0.2 0.5 0.2 0.3 0.1 0.7 0.3 1 0.4 0.2 0.2 0.4 0.3 0.7 0.3v0.1c-0.6-0.1-1.2-0.2-1.7-0.6-0.2-0.1-0.4-0.1-0.7-0.1-0.4-0.1-0.8-0.3-1.2-0.6z"></path><path fill="#f3f3f3" d="m18.2 9.8c-0.2 0-0.5-0.1-0.7-0.2 0-0.2-0.2-0.3-0.4-0.2-0.6-0.2-1.2-0.2-1.8-0.1-0.6 0.4-1.2 0.6-1.9 0.8-0.3-0.1-0.6 0-0.8 0.2 0-0.1 0-0.2 0.1-0.3 0.4-0.2 0.9-0.3 1.3-0.3l0.8-0.6c0.9-0.1 1.8-0.1 2.7 0 0.3 0.2 0.5 0.4 0.7 0.7z"></path><path fill="#eaeaea" d="m17.1 9.4c0.2-0.1 0.4 0 0.4 0.2-0.2 0-0.3-0.1-0.4-0.2z"></path><path fill="#f4f4f4" d="m18.2 9.8c0.4 0 0.8 0 1.1 0 0.2 0.3 0.5 0.5 0.7 0.6 0.8-0.1 1.3 0.2 1.7 0.8h-0.3c-0.2-0.5-0.7-0.7-1.2-0.6-0.7-0.3-1.3-0.6-2-0.8z"></path><path fill="#c8c8c8" d="m16 9.6c-0.2 0.3-0.5 0.5-0.9 0.6h-0.3l0.2-0.3 1-0.3z"></path><path fill="#d9d9d9" d="m17.9 10.1c0.3-0.1 0.5 0 0.7 0 0.2 0.1 0.3 0.2 0.3 0.4-0.3-0.1-0.7-0.3-1-0.4z"></path><path fill="#cdcdcd" d="m15 9.9l-0.2 0.3c-0.6 0.1-1.1 0.3-1.7 0.6 0.3-0.2 0.5-0.4 0.6-0.6 0.4-0.2 0.8-0.2 1.3-0.3z"></path><path fill="#bfbfbf" d="m14.8 10.2h0.3v0.1c-0.2 0-0.5 0-0.7 0.2-0.5 0.4-1 0.6-1.7 0.5l0.4-0.2c0.6-0.3 1.1-0.5 1.7-0.6z"></path><path fill="#b5b5b5" d="m15.1 10.3h2.5c0 0.3 0.1 0.5 0.3 0.7 0.4 0 0.7 0.1 1 0 0.5 0 0.9 0.1 1.1 0.5 0.5 0.2 0.9 0.2 1.3 0.2h0.1c0.1 0.3 0.2 0.5 0.5 0.5 0.3 0.2 0.7 0.3 1.1 0.2h0.3c0 0.2 0.1 0.4 0.3 0.5 0.5 0.2 1 0.3 1.5 0.3-0.2 0.1-0.3 0.1-0.4 0.2-0.6 0.1-1.1 0.3-1.6 0.6-0.5 0-1 0-1.5 0.2-0.4 0.4-0.9 0.6-1.5 0.6-0.2 0.1-0.3 0.3-0.3 0.5l-1.7 0.3c-0.2 0.1-0.3 0.3-0.3 0.5-0.3 0-0.5 0-0.7 0.1-0.5 0.2-0.8 0.5-0.9 1-0.3-0.7-0.9-1-1.6-1h-0.2c-0.5-0.6-1.1-0.8-2-0.7-0.3-0.5-0.7-0.7-1.4-0.7h-0.1v-0.1c0-0.4-0.2-0.6-0.6-0.6-0.5-0.1-1-0.1-1.5-0.1 0-0.3-0.1-0.5-0.2-0.7-0.2 0.1-0.3 0.1-0.4-0.2 0.4-0.1 0.7-0.4 1-0.7h0.2c0.6 0.1 1.1-0.1 1.5-0.6 0.5-0.1 0.9-0.1 1.4-0.3 0.2-0.1 0.3-0.2 0.3-0.5h0.1c0.7 0.1 1.2-0.1 1.7-0.5 0.2-0.2 0.5-0.2 0.7-0.2z"></path><path fill="#b9b9b9" d="m17.2 10.2c0.3 0 0.5 0 0.7 0.1 0 0.2 0.1 0.3 0.2 0.4 0.3 0.1 0.5 0.2 0.8 0.3-0.3 0.1-0.6 0-1 0-0.2-0.2-0.3-0.4-0.3-0.7h-2.5v-0.1c0.7-0.2 1.4-0.2 2.1 0z"></path><path fill="#dcdcdc" d="m13.4 10.2h0.3c-0.1 0.2-0.3 0.4-0.6 0.6h-0.7c0.4-0.3 0.7-0.5 1-0.6z"></path><path fill="#f4f4f4" d="m12.6 10.3c-0.4 0.2-0.8 0.4-1.3 0.6-0.1 0.1-0.1 0.2-0.1 0.3h-0.6c0-0.2 0.1-0.4 0.3-0.5 0.6-0.2 1.1-0.3 1.7-0.4z"></path><path fill="#d6d6d6" d="m18.9 10.5c0.3 0 0.5 0.1 0.7 0.3-0.3 0-0.5-0.1-0.7-0.3z"></path><path fill="#f6f6f6" d="m29.6 11.3c-0.3-0.1-0.6-0.1-1-0.1 0.1-0.6 0.4-0.7 0.9-0.3 0 0.1 0.1 0.3 0.1 0.4z"></path><path fill="#eee" d="m20.2 10.8v-0.2c0.5-0.1 1 0.1 1.2 0.6h-0.5c-0.1-0.3-0.4-0.5-0.7-0.4z"></path><path fill="#e9e9e9" d="m13.4 10.1v0.1c-0.3 0.1-0.6 0.3-1 0.6-0.2-0.1-0.4 0-0.5 0.1-0.3 0.1-0.5 0.1-0.7 0.3 0-0.1 0-0.2 0.1-0.3 0.5-0.2 0.9-0.4 1.3-0.6 0.2-0.2 0.5-0.3 0.8-0.2z"></path><path fill="#dfdfdf" d="m19.6 10.9v-0.1h0.6c0.3-0.1 0.6 0.1 0.7 0.4-0.4-0.2-0.7-0.3-1.1-0.3h-0.2z"></path><path fill="#cdcdcd" d="m12.4 10.8h0.7l-0.4 0.2h-0.1c-0.4 0.1-0.7 0.3-1 0.5-0.2 0.1-0.5 0.1-0.7 0.1l0.4-0.3c0.3 0 0.5-0.2 0.6-0.4 0.1-0.1 0.3-0.2 0.5-0.1z"></path><path fill="#c0c0c0" d="m17.9 10.3c0.5 0.4 1.1 0.5 1.7 0.6h0.2c0.3 0.3 0.6 0.5 1.1 0.6l0.4 0.2c-0.4 0-0.8 0-1.3-0.2-0.2-0.4-0.6-0.5-1.1-0.5-0.3-0.1-0.5-0.2-0.8-0.3-0.1-0.1-0.2-0.2-0.2-0.4z"></path><path fill="#cecece" d="m19.8 10.9c0.4 0 0.7 0.1 1.1 0.3v0.3c-0.5-0.1-0.8-0.3-1.1-0.6z"></path><path fill="#f5f5f5" d="m10.6 11.2c-0.2 0.1-0.4 0.2-0.7 0.3-0.4 0-0.8 0.1-1.1 0.4 0.4-0.6 1-0.9 1.8-0.7z"></path><path fill="#e8e8e8" d="m28.6 11.3v-0.1c0.4 0 0.7 0 1 0.1v0.9c-0.2 0-0.3 0-0.4 0.1v-0.3c0.3-0.1 0.3-0.3 0-0.5-0.2-0.2-0.4-0.2-0.6-0.2z"></path><path fill="#e2e2e2" d="m11.9 10.9c-0.1 0.2-0.3 0.4-0.6 0.4-0.4 0-0.7 0.1-1.1 0.2-0.2 0.3-0.5 0.5-0.8 0.5l0.5-0.5c0.3-0.1 0.5-0.2 0.7-0.3h0.6c0.2-0.2 0.4-0.2 0.7-0.3z"></path><path fill="#f4f4f4" d="m21.7 11.2c0.5 0 1 0 1.4 0.2 0.1 0.1 0.2 0.3 0.3 0.5-0.5-0.3-1.1-0.5-1.7-0.7z"></path><path fill="#e2e2e2" d="m28.6 11.3c0.2 0 0.4 0 0.6 0.2-0.7-0.1-1.2 0.1-1.6 0.5h-0.4c0.4-0.5 0.8-0.7 1.4-0.7z"></path><path fill="#ededed" d="m9.9 11.5l-0.5 0.5h-0.2c-0.2 0-0.5 0.1-0.7 0.2h-0.3l0.2-0.3h0.4c0.3-0.3 0.7-0.4 1.1-0.4z"></path><path fill="#c9c9c9" d="m10.5 11.7c-0.3 0.4-0.7 0.7-1.1 0.7h-0.6l0.4-0.2c0.5-0.1 0.9-0.2 1.3-0.5z"></path><path fill="#c0c0c0" d="m12.6 11c0 0.3-0.1 0.4-0.3 0.5-0.5 0.2-0.9 0.2-1.4 0.3-0.4 0.5-0.9 0.7-1.5 0.6 0.4 0 0.8-0.3 1.1-0.7 0.1-0.1 0.2-0.1 0.4-0.1 0.2 0 0.5 0 0.7-0.1 0.3-0.2 0.6-0.4 1-0.5z"></path><path fill="#bebebe" d="m21.4 11.7c0.5 0.4 1 0.6 1.6 0.7-0.4 0.1-0.8 0-1.1-0.2-0.3 0-0.4-0.2-0.5-0.5z"></path><path fill="#cacaca" d="m20.9 11.5h0.7c0.4 0.4 0.9 0.6 1.5 0.7 0.5 0.1 0.9 0.3 1.3 0.5 0.2 0.2 0.4 0.2 0.7 0.2v0.1c-0.3 0-0.6 0-0.8-0.1l-1-0.5h-0.3c-0.6-0.1-1.1-0.3-1.6-0.7h-0.1l-0.4-0.2z"></path><path fill="#cfcfcf" d="m29.2 11.5c0.3 0.2 0.3 0.4 0 0.5-0.5 0-0.9 0.2-1.1 0.6 0 0.1-0.1 0.1-0.2 0.1h-0.1v-0.1c0.2-0.2 0.1-0.4-0.2-0.4v-0.2c0.4-0.4 0.9-0.6 1.6-0.5z"></path><path fill="#d8d8d8" d="m21.6 11.5c0.6 0 1.1 0.2 1.5 0.7-0.6-0.1-1.1-0.3-1.5-0.7z"></path><path fill="#f4f4f4" d="m28.6 11.2v0.1c-0.6 0-1 0.2-1.4 0.7h-0.3c-0.4 0-0.7 0.1-1.1 0.2s-0.7 0.1-1.1 0.1c-0.5-0.1-0.9-0.3-1.3-0.4 1.1 0.2 2.3 0.2 3.4-0.1 0.4-0.6 1.1-0.8 1.8-0.6z"></path><path fill="#d5d5d5" d="m11.3 11.3l-0.4 0.3c-0.2 0-0.3 0-0.4 0.1-0.4 0.3-0.8 0.4-1.3 0.5v-0.2h0.2c0.3 0 0.6-0.2 0.8-0.5 0.4-0.1 0.7-0.2 1.1-0.2z"></path><path fill="#e9e9e9" d="m8.2 12.2c-0.1 0.1-0.3 0.2-0.5 0.2 0.1-0.2 0.3-0.3 0.5-0.2z"></path><path fill="#d7d7d7" d="m9.2 12v0.2l-0.4 0.2h-0.4l0.1-0.2c0.2-0.1 0.5-0.2 0.7-0.2z"></path><path fill="#e4e4e4" d="m20.9 11.2h0.8c0.6 0.2 1.2 0.4 1.7 0.7 0.4 0.1 0.8 0.3 1.3 0.4 0.1 0.2 0.2 0.3 0.5 0.3 0.3 0 0.6-0.1 0.6-0.4 0.4-0.1 0.7-0.2 1.1-0.2-0.4 0.1-0.8 0.3-1.1 0.7-0.5 0-0.9 0-1.4 0-0.3-0.4-0.7-0.6-1.3-0.5-0.4-0.5-0.9-0.7-1.5-0.7h-0.7v-0.3z"></path><path fill="#efefef" d="m25.8 12.2c0 0.3-0.3 0.4-0.6 0.4-0.3 0-0.4-0.1-0.5-0.3 0.4 0 0.7 0 1.1-0.1z"></path><path fill="#ccc" d="m27.6 12.2c0.3 0 0.4 0.2 0.2 0.4-0.4-0.2-0.7-0.2-1.2-0.2 0.3-0.2 0.7-0.2 1-0.2z"></path><path fill="#d8d8d8" d="m29.2 12v0.3h-0.3l-0.8 0.3c0.2-0.4 0.6-0.6 1.1-0.6z"></path><path fill="#e0e0e0" d="m8.2 12.2h0.3l-0.1 0.2c-0.3 0.1-0.5 0.2-0.7 0.2v-0.2c0.2 0 0.4-0.1 0.5-0.2z"></path><path fill="#c9c9c9" d="m8.4 12.4h0.4c-0.1 0.2-0.2 0.3-0.3 0.4-0.3 0.1-0.6 0.2-0.8 0.3h-0.3c0.3-0.2 0.6-0.4 1-0.7z"></path><path fill="#bebebe" d="m8.8 12.4h0.4c-0.3 0.3-0.6 0.6-1 0.7h-0.5c0.2-0.1 0.5-0.2 0.8-0.3 0.1-0.1 0.2-0.2 0.3-0.4z"></path><path fill="#bfbfbf" d="m23.3 12.4l1 0.5c0.2 0.1 0.5 0.1 0.8 0.1h0.1c0.1 0.1 0.3 0.2 0.5 0.2-0.4 0.2-0.7 0.2-1 0.2 0.1-0.1 0.2-0.1 0.4-0.2-0.5 0-1-0.1-1.5-0.3-0.2-0.1-0.3-0.3-0.3-0.5z"></path><path fill="#d7d7d7" d="m23.1 12.2c0.6-0.1 1 0.1 1.3 0.5-0.4-0.2-0.8-0.4-1.3-0.5z"></path><path fill="#d8d8d8" d="m26.9 12h0.7v0.2c-0.3 0-0.7 0-1 0.2h-0.4c-0.2 0.4-0.6 0.6-1.1 0.5-0.3 0-0.5 0-0.7-0.2 0.5 0 0.9 0 1.4 0 0.3-0.4 0.7-0.6 1.1-0.7z"></path><path fill="#d1d1d1" d="m26.2 12.4c0.1 0.2 0.3 0.4 0.4 0.5-0.1 0-0.2 0.2-0.2 0.4v0.1h-0.5c0.1-0.1 0.2-0.2 0.3-0.3-0.3-0.1-0.6-0.1-1-0.1h-0.1v-0.1c0.5 0.1 0.9-0.1 1.1-0.5z"></path><path fill="#cbcbcb" d="m26.2 12.4h0.4c0.1 0.2 0.3 0.2 0.4 0.3 0.2-0.1 0.5-0.1 0.8-0.1v0.1l-1.2 0.2c-0.1-0.1-0.3-0.3-0.4-0.5z"></path><path fill="#c2c2c2" d="m26.6 12.4c0.5 0 0.8 0 1.2 0.2-0.3 0-0.6 0-0.8 0.1-0.1-0.1-0.3-0.1-0.4-0.3z"></path><path fill="#f2f2f2" d="m29.6 12.2c-0.1 0.2-0.3 0.3-0.6 0.2 0.1 0.4-0.1 0.6-0.4 0.7-0.4 0-0.7 0.1-1.1 0 0.6 0 1.1-0.3 1.4-0.8h0.3c0.1-0.1 0.2-0.1 0.4-0.1z"></path><path fill="#e8e8e8" d="m7.7 12.6c-0.2 0.1-0.4 0.3-0.6 0.4v-0.4h0.6z"></path><path fill="#d8d8d8" d="m27.8 12.7h0.1c-0.5 0.2-1 0.4-1.5 0.6 0-0.2 0.1-0.4 0.2-0.4l1.2-0.2z"></path><path fill="#cacaca" d="m25.2 13c0.4 0 0.7 0 1 0.1-0.1 0.1-0.2 0.2-0.3 0.3-0.3 0.1-0.6 0.2-0.9 0.3-0.3 0-0.6 0.1-0.9 0.3 0.2-0.2 0.3-0.4 0.6-0.6 0.3 0 0.6 0 1-0.2-0.2 0-0.4-0.1-0.5-0.2z"></path><path fill="#e6e6e6" d="m28.9 12.3c-0.3 0.5-0.8 0.8-1.4 0.8-0.4 0.1-0.8 0.2-1.1 0.5v-0.3c0.5-0.2 1-0.4 1.5-0.6 0.1 0 0.2 0 0.2-0.1l0.8-0.3z"></path><path fill="#d8d8d8" d="m8.4 12.4c-0.4 0.3-0.7 0.5-1 0.7-0.2 3.5-0.2 7-0.2 10.5-0.1-3.5-0.1-7.1-0.1-10.6 0.2-0.1 0.4-0.3 0.6-0.4 0.2 0 0.4-0.1 0.7-0.2z"></path><path fill="#c1c1c1" d="m7.4 13.1h0.1c0 0.3 0 0.6 0.1 0.9 0.4-0.5 0.7-0.5 0.9 0-0.2 0-0.4 0-0.6 0.1-0.1 0.1-0.1 0.2-0.2 0.3-0.1 2.9-0.1 5.8 0 8.7l0.2 0.2c-0.1 0.1-0.3 0.1-0.5 0.1v-10.3z"></path><path fill="#b9b9b9" d="m7.5 13.1h0.7c0.1 0.3 0.2 0.3 0.4 0.2 0.1 0.2 0.2 0.4 0.2 0.7 0.5 0 1 0 1.5 0.1 0.4 0 0.6 0.2 0.6 0.6-0.4 0-0.6-0.2-0.8-0.5-0.3-0.1-0.5-0.1-0.7-0.1-0.4 0.1-0.6 0-0.9-0.1-0.2-0.5-0.5-0.5-0.9 0-0.1-0.3-0.1-0.6-0.1-0.9z"></path><path fill="#bfbfbf" d="m24.7 13.4c-0.3 0.2-0.4 0.4-0.6 0.6-0.2 0-0.3 0-0.4 0.1h-0.6v-0.1c0.5-0.3 1-0.5 1.6-0.6z"></path><path fill="#dadada" d="m25.9 13.4h0.5v0.2l-1.4 0.1c0.3-0.1 0.6-0.2 0.9-0.3z"></path><path fill="#f4f4f4" d="m27.5 13.1c-0.1 0.2-0.2 0.3-0.3 0.5-0.5 0.2-1.1 0.3-1.7 0.5-0.4 0.4-0.9 0.6-1.5 0.5 0.7-0.5 1.5-0.8 2.4-1 0.3-0.3 0.7-0.4 1.1-0.5z"></path><path fill="#d3d3d3" d="m25 13.7c-0.4 0.4-0.8 0.5-1.3 0.6v-0.2c0.1-0.1 0.2-0.1 0.4-0.1 0.3-0.2 0.6-0.3 0.9-0.3z"></path><path fill="#f4f4f4" d="m8.4 11.9l-0.2 0.3c-0.2-0.1-0.4 0-0.5 0.2v0.2h-0.6v0.4c-0.1 3.6-0.2 7.2-0.1 10.8-0.2-3.6-0.2-7.3-0.1-11.1 0.3-0.6 0.8-0.9 1.5-0.8z"></path><path fill="#bebebe" d="m9.4 14.1c0.2 0 0.4 0 0.7 0.1 0.2 0.3 0.4 0.5 0.8 0.5v0.1h-0.6c-0.2-0.3-0.6-0.5-0.9-0.7z"></path><path fill="#f4f4f4" d="m27.6 16.7c0.3-0.1 0.6-0.3 0.7-0.6 0.4-0.1 0.7-0.2 1-0.4v-0.2c0.2-0.3 0.2-0.7 0.1-1.1-0.4-0.2-0.7-0.1-0.9 0.3-0.8 0.1-1.6 0.4-2.3 0.7 0-0.1 0.1-0.3 0.2-0.4 0.8 0 1.5-0.3 2.1-0.8 0.9-0.3 1.3 0 1.2 0.9 0 0.7-0.3 1.1-1.1 1.1-0.2 0.4-0.5 0.5-1 0.5z"></path><path fill="#c9c9c9" d="m7.9 14.1c0.2-0.1 0.4-0.1 0.6-0.1 0.3 0.1 0.5 0.2 0.9 0.1 0.3 0.2 0.7 0.4 0.9 0.7-0.3-0.1-0.7-0.2-1.1-0.5-0.3 0-0.5 0-0.8 0-0.1-0.2-0.3-0.2-0.5-0.2z"></path><path fill="#e7e7e7" d="m7.1 13c0 3.5 0 7.1 0.1 10.6 0.1 0.1 0.1 0.3 0.2 0.4-0.2 0-0.3-0.1-0.4-0.2-0.1-3.6 0-7.2 0.1-10.8z"></path><path fill="#d8d8d8" d="m7.9 14.6c0 2.7 0 5.5 0.1 8.3 0.3 0.3 0.6 0.5 0.9 0.8-0.4-0.1-0.8-0.3-1-0.7-0.1-2.8-0.1-5.7 0-8.4z"></path><path fill="#e4e4e4" d="m7.9 14.6h0.2c-0.1 2.7 0 5.4 0.1 8.1 0.1 0.1 0.2 0.2 0.3 0.2 0 0.2 0.1 0.3 0.3 0.4 0.4 0.1 0.7 0.3 1 0.5-0.3 0.1-0.6 0-0.9-0.1-0.3-0.3-0.6-0.5-0.9-0.8-0.1-2.8-0.1-5.6-0.1-8.3z"></path><path fill="#efefef" d="m8.1 14.6c0.3 0 0.6 0.1 1 0.2 0 0 0.1 0.1 0.1 0.2-0.3-0.2-0.6-0.2-0.8 0-0.2 2.6-0.2 5.1-0.2 7.7-0.1-2.7-0.2-5.4-0.1-8.1z"></path><path fill="#e7e7e7" d="m8.1 14.6c0.6-0.3 1-0.2 1.4 0.4h-0.3c0-0.1-0.1-0.2-0.1-0.2-0.4-0.1-0.7-0.2-1-0.2z"></path><path fill="#d4d4d4" d="m23.7 14.3c-0.4 0.2-0.8 0.3-1.3 0.5 0.3-0.4 0.8-0.6 1.3-0.5z"></path><path fill="#bababa" d="m23.1 14v0.1c-1.1 0.5-2.2 1-3.3 1.4-0.8-0.1-1.4 0.2-1.9 0.7h-0.8c0.2-0.1 0.4-0.1 0.7-0.1 0-0.2 0.1-0.4 0.3-0.5l1.7-0.3c0-0.2 0.1-0.4 0.3-0.5 0.6 0 1.1-0.2 1.5-0.6 0.5-0.2 1-0.2 1.5-0.2z"></path><path fill="#f6f6f6" d="m9.2 15h0.3l0.1 0.3c-0.3-0.1-0.6-0.1-0.9 0 0 2.3-0.1 4.6-0.2 7 0 0.2 0.1 0.4 0.3 0.6h-0.3c-0.1 0-0.2-0.1-0.3-0.2 0-2.6 0-5.1 0.2-7.7 0.2-0.2 0.5-0.2 0.8 0z"></path><path fill="#bfbfbf" d="m11 14.8c0.7 0 1.1 0.2 1.4 0.7-0.5-0.1-0.9-0.4-1.4-0.7z"></path><path fill="#d9d9d9" d="m8.4 14.3c0.3 0 0.5 0 0.8 0 0.4 0.3 0.8 0.4 1.1 0.5 0.4 0.2 0.8 0.4 1.2 0.6h-0.3c-0.6-0.2-1.1-0.4-1.7-0.4-0.4-0.6-0.8-0.7-1.4-0.4h-0.2c0.1-0.3 0.2-0.4 0.5-0.3z"></path><path fill="#cacaca" d="m10.3 14.8h0.7c0.5 0.3 0.9 0.6 1.4 0.7v0.2h-0.2c-0.3 0-0.6-0.1-0.7-0.3-0.4-0.2-0.8-0.4-1.2-0.6z m12.8-0.7h0.6v0.2c-0.5-0.1-1 0.1-1.3 0.5-0.1 0.1-0.3 0.2-0.5 0.2-0.4-0.1-0.7 0-0.9 0.3-0.4 0.1-0.7 0.3-1.1 0.5h-0.3c-0.4 0.1-0.8 0.2-1.1 0.4 0.3-0.4 0.7-0.6 1.3-0.7 1.1-0.4 2.2-0.9 3.3-1.4z"></path><path fill="#e6e6e6" d="m29.3 15.5c0.1-0.3 0-0.6-0.2-0.8-0.5 0.2-1.1 0.4-1.6 0.6-0.7 0.2-1.4 0.4-2.1 0.5l0.8-0.4c0.7-0.3 1.5-0.6 2.3-0.7 0.2-0.4 0.5-0.5 0.9-0.3 0.1 0.4 0.1 0.8-0.1 1.1z"></path><path fill="#fefefe" d="m9.6 15.3h0.2c0.4 0 0.7 0.2 1 0.6 0.1 0.1 0.3 0.1 0.5 0.1h0.2c0.4 0.1 0.8 0.3 1.1 0.6 0.4 0.1 0.9 0.2 1.4 0.3 0.3 0.5 0.8 0.7 1.4 0.6 0 0.5-0.1 1-0.3 1.5 0.2 0.3 0.2 0.7 0.3 1-0.4 1.3-0.4 2.5 0 3.7-0.1 0.4-0.1 0.7-0.3 1.1l0.3 0.5c0 0.2-0.1 0.2-0.3 0.2h-0.3c-0.1-0.2-0.2-0.3-0.4-0.5-0.8-0.1-1.6-0.3-2.2-0.7-0.3-0.2-0.7-0.2-1-0.3-0.3-0.4-0.8-0.7-1.4-0.6h-0.3c-0.2-0.3-0.4-0.5-0.7-0.5-0.2-0.2-0.3-0.4-0.3-0.6 0.1-2.4 0.2-4.7 0.2-7 0.3-0.1 0.6-0.1 0.9 0z"></path><path fill="#d5d5d5" d="m21.9 15c-0.3 0.2-0.5 0.3-0.9 0.3 0.2-0.3 0.5-0.4 0.9-0.3z"></path><path fill="#e5e5e5" d="m26.4 13.6c-0.9 0.2-1.7 0.5-2.4 1-1.1 0.2-2.1 0.6-3 1.2-0.4 0.1-0.9 0.2-1.4 0.2v-0.2h0.3c0.5 0 0.9-0.2 1.1-0.5 0.4 0 0.6-0.1 0.9-0.3 0.2 0 0.4-0.1 0.5-0.2 0.5-0.2 0.9-0.3 1.3-0.5 0.5-0.1 0.9-0.2 1.3-0.6l1.4-0.1z"></path><path fill="#f5f5f5" d="m9.8 15.3c0.5-0.1 1 0.1 1.4 0.4l0.1 0.3c-0.2 0-0.4 0-0.5-0.1-0.3-0.4-0.6-0.6-1-0.6z"></path><path fill="#e9e9e9" d="m9.5 15c0.6 0 1.1 0.2 1.7 0.4v0.3c-0.4-0.3-0.9-0.5-1.4-0.4h-0.2l-0.1-0.3z"></path><path fill="#d7d7d7" d="m21 15.3c-0.2 0.3-0.6 0.5-1.1 0.5 0.4-0.2 0.7-0.4 1.1-0.5z"></path><path fill="#f3f3f3" d="m24 14.6c-0.2 0.2-0.4 0.4-0.7 0.6-0.7 0-1.3 0.2-1.7 0.7l-1.4 0.3c-0.1 0.2-0.3 0.3-0.4 0.4-0.5 0.1-1 0.2-1.4 0.3-0.3 0.4-0.7 0.6-1.2 0.6 0.3-0.3 0.7-0.6 1-0.8 0.6 0 1.1-0.2 1.4-0.7 0.5 0 1-0.1 1.4-0.2 0.9-0.6 1.9-1 3-1.2z"></path><path fill="#e0e0e0" d="m11.2 15.4h0.3c0.1 0.2 0.4 0.3 0.7 0.3l0.1 0.3h-0.3c-0.2-0.2-0.5-0.3-0.8-0.3v-0.3z"></path><path fill="#bfbfbf" d="m12.4 15.7v-0.2c0.9-0.1 1.5 0.1 2 0.7-0.4 0-0.8-0.2-1.1-0.4-0.3-0.1-0.6-0.1-0.9-0.1z"></path><path fill="#c0c0c0" d="m19.8 15.5c-0.6 0.1-1 0.3-1.3 0.7h-0.6c0.5-0.5 1.1-0.8 1.9-0.7z"></path><path fill="#ededed" d="m11.2 15.7c0.3 0 0.6 0.1 0.8 0.3h-0.7l-0.1-0.3z"></path><path fill="#d8d8d8" d="m12.2 15.7h0.2c0.2 0.1 0.5 0.2 0.7 0.2 0.2 0.1 0.3 0.2 0.3 0.3-0.3-0.1-0.7-0.2-1.1-0.2l-0.1-0.3z"></path><path fill="#cacaca" d="m12.4 15.7c0.3 0 0.6 0 0.9 0.1 0.3 0.2 0.7 0.4 1.1 0.4h0.2c0.4 0.2 0.8 0.4 1.1 0.9h-0.3c-0.2-0.3-0.4-0.4-0.7-0.4-0.3-0.2-0.6-0.3-1-0.3l-0.3-0.2c0-0.1-0.1-0.2-0.3-0.3-0.2 0-0.5-0.1-0.7-0.2z"></path><path fill="#e5e5e5" d="m25.4 15.8c-0.4 0.5-0.8 0.7-1.4 0.7v-0.1c0.5-0.1 0.9-0.3 1.4-0.6z"></path><path fill="#ccc" d="m27.2 16.2c-0.1 0.2-0.2 0.2-0.4 0.2-0.3 0-0.7 0-1-0.1-0.1-0.1-0.1-0.2 0-0.3 0.5-0.2 0.9-0.2 1.4-0.2v0.4z"></path><path fill="#e5e5e5" d="m29.3 15.7c-0.3 0.2-0.6 0.3-1 0.4-0.2 0-0.4 0.1-0.7 0.1 0-0.1 0.1-0.3 0.3-0.3 0.5-0.1 1-0.2 1.4-0.2z"></path><path fill="#f5f5f5" d="m11.5 16h0.8c0.5 0.4 1.1 0.7 1.8 0.7 0.1 0.3 0.3 0.5 0.6 0.5 0.3 0.1 0.5 0.2 0.7 0.3-0.6 0.1-1.1-0.1-1.4-0.6-0.5-0.1-1-0.2-1.4-0.3-0.3-0.3-0.7-0.5-1.1-0.6z"></path><path fill="#d8d8d8" d="m29.3 15.5v0.2c-0.4 0-0.9 0.1-1.4 0.2-0.2 0-0.3 0.2-0.3 0.3h-0.4v-0.4c-0.5 0-0.9 0-1.4 0.2-0.2 0-0.4 0.2-0.4 0.5-0.3 0-0.6 0.1-0.9 0.2-0.4-0.1-0.8 0.1-1.1 0.5-0.3 0-0.5 0-0.8 0l1.4-0.7c0.6 0 1-0.2 1.4-0.7 0.7-0.1 1.4-0.3 2.1-0.5 0.5-0.2 1.1-0.4 1.6-0.6 0.2 0.2 0.3 0.5 0.2 0.8z"></path><path fill="#cdcdcd" d="m27.5 15.3c0.5-0.1 1-0.2 1.5-0.2v0.4c-0.5 0.1-1 0.2-1.5 0.2v-0.4z"></path><path fill="#c2c2c2" d="m28.1 15.3c0.7 0 0.7 0 0 0.2l-0.3 0c0.1-0.1 0.2-0.1 0.3-0.2z"></path><path fill="#d1d1d1" d="m25.8 16c-0.1 0.1-0.1 0.2 0 0.3 0.3 0.1 0.7 0.1 1 0.1v0.1h-0.7c-0.4 0-0.5 0.1-0.6 0.4-0.1 0.2-0.2 0.2-0.4 0.2v-0.2c-0.1-0.1-0.3-0.2-0.4-0.2h-0.2c0.3-0.1 0.6-0.2 0.9-0.2 0-0.3 0.2-0.5 0.4-0.5z"></path><path fill="#c2c2c2" d="m26.2 16c0.3-0.1 0.5 0 0.7 0.1-0.3 0.2-0.6 0.2-1 0.1 0.2-0.1 0.3-0.1 0.3-0.2z"></path><path fill="#f3f3f3" d="m26.2 15.4l-0.8 0.4c-0.5 0.3-0.9 0.5-1.4 0.6h-0.9c0.3-0.1 0.7-0.2 1-0.2 0.6-0.6 1.3-0.8 2.1-0.8z"></path><path fill="#eaeaea" d="m28.3 16.1c-0.1 0.3-0.4 0.5-0.7 0.6-0.3-0.1-0.7 0-1.1 0-0.3 0.2-0.5 0.4-0.8 0.5l0.1-0.3c0.2 0 0.3-0.2 0.3-0.4h0.7c0.3 0.1 0.6 0 0.8-0.3 0.3 0 0.5-0.1 0.7-0.1z"></path><path fill="#e6e6e6" d="m12.3 16c0.4 0 0.8 0.1 1.1 0.2l0.3 0.2 0.4 0.3c-0.7 0-1.3-0.3-1.8-0.7z"></path><path fill="#d9d9d9" d="m13.7 16.4c0.4 0 0.7 0.1 1 0.3h-0.6l-0.4-0.3z"></path><path fill="#cbcbcb" d="m17.8 16.2h0.6c-0.8 0.3-1.4 0.6-2 1.2 0.3-0.6 0.8-0.9 1.4-1.2z"></path><path fill="#d8d8d8" d="m19.6 15.8v0.2c-0.4 0.2-0.9 0.5-1.4 0.7-0.6 0-1.2 0.3-1.5 0.8-0.2 0.5-0.2 1.1-0.2 1.7-0.1-0.6-0.2-1.2-0.1-1.8 0.6-0.6 1.2-0.9 2-1.2h0.1c0.3-0.2 0.7-0.3 1.1-0.4z"></path><path fill="#e6e6e6" d="m19.6 16c-0.3 0.5-0.8 0.7-1.4 0.7 0.5-0.2 1-0.5 1.4-0.7z"></path><path fill="#e0e0e0" d="m27.2 16.2h0.4c-0.2 0.3-0.5 0.4-0.8 0.3v-0.1c0.2 0 0.3 0 0.4-0.2z"></path><path fill="#d8d8d8" d="m26.1 16.5c0 0.2-0.1 0.4-0.3 0.4h-0.3c0.1-0.3 0.2-0.4 0.6-0.4z"></path><path fill="#eee" d="m14.1 16.7h0.3l0.3 0.5c-0.3 0-0.5-0.2-0.6-0.5z"></path><path fill="#d5d5d5" d="m14.7 16.7c0.3 0 0.5 0.1 0.7 0.4-0.3 0-0.5-0.2-0.7-0.4z"></path><path fill="#c2c2c2" d="m24.7 16.7c0.1 0 0.3 0.1 0.4 0.2-0.3 0.1-0.7 0-1 0 0.2-0.1 0.4-0.1 0.6-0.2z"></path><path fill="#f3f3f3" d="m27.6 16.7c-0.3 0.1-0.6 0.2-1 0.2-0.1 0.3-0.3 0.5-0.7 0.5-0.3 0.1-0.7 0.1-1.1 0.1 0.2-0.2 0.5-0.3 0.9-0.3 0.3-0.1 0.5-0.3 0.8-0.5 0.4 0 0.8-0.1 1.1 0z"></path><path fill="#c1c1c1" d="m14.6 16.2c0.7 0 1.3 0.3 1.6 1 0.1-0.5 0.4-0.8 0.9-1h0.7c-0.6 0.3-1.1 0.6-1.4 1.2-0.2 0.6-0.2 1.3-0.1 1.9l0.2 0.2c1.6 0.1 1.7 0.2 0.2 0.5-0.2 0.2-0.3 0.4-0.4 0.6-0.1 0.8-0.1 1.5 0 2.3 0.4 0.1 0.7 0.3 1.1 0.5h-0.2c-0.4 0-0.7 0.2-0.8 0.6-0.2 1-0.1 1.9 0.3 2.9-0.2 0-0.4 0.1-0.5 0.2-0.3-0.1-0.5-0.4-0.5-0.7 0.1-0.3 0.2-0.5 0.3-0.7 0-2.8 0-5.7-0.1-8.5-0.1-0.1-0.1-0.1-0.2-0.1-0.3-0.5-0.7-0.7-1.1-0.9z"></path><path fill="#e8e8e8" d="m18.2 16.7c-0.3 0.2-0.7 0.5-1 0.8h-0.1c-0.3 0.5-0.4 1-0.3 1.6-0.1-0.5-0.2-1-0.1-1.6 0.3-0.5 0.9-0.8 1.5-0.8z"></path><path fill="#eee" d="m21.4 17.2c0 0.4-0.3 0.6-0.7 0.6 0.2-0.3 0.4-0.5 0.7-0.6z"></path><path fill="#cbcbcb" d="m24.5 16.7h0.2c-0.2 0.1-0.4 0.1-0.6 0.2 0.3 0 0.7 0.1 1 0v0.2h-0.1c-0.6-0.1-1.1 0.2-1.3 0.7h-0.4c-0.5 0-1 0-1.4-0.2 0.2-0.1 0.4-0.3 0.7-0.4 0.3 0 0.5 0 0.8 0 0.3-0.4 0.7-0.6 1.1-0.5z"></path><path fill="#d8d8d8" d="m25 17.1c-0.5 0.2-0.9 0.4-1.3 0.7 0.2-0.5 0.7-0.8 1.3-0.7z"></path><path fill="#e3e3e3" d="m14.4 16.7h0.3c0.2 0.2 0.4 0.4 0.7 0.4 0.1 0.1 0.2 0.3 0.4 0.4 0 2.7 0 5.4 0 8.2h-0.3c0.1-2.8 0-5.5-0.1-8.2-0.2-0.1-0.4-0.2-0.7-0.3l-0.3-0.5z"></path><path fill="#e1e1e1" d="m16.7 17.5c-0.1 0.6 0 1.1 0.1 1.6v0.1h-0.3c0-0.6 0-1.2 0.2-1.7z"></path><path fill="#f5f5f5" d="m23.1 16.4c0 0.2-0.1 0.3-0.2 0.5-0.5 0.1-1 0.2-1.5 0.3-0.3 0.1-0.5 0.3-0.7 0.6-0.6 0-1.2 0.2-1.6 0.7-0.8 0-1.6 0.2-2.3 0.6-0.1-0.6 0-1.1 0.3-1.6-0.1 0.3 0 0.6 0.1 0.9 0.6 0 1.2 0 1.7-0.1l0.3-0.4c0.5-0.2 0.9-0.3 1.4-0.3 0.4-0.5 1-0.8 1.7-0.7 0.3-0.2 0.5-0.4 0.8-0.5z m6.5 2.5c0-0.3 0-0.6-0.1-0.8-0.1 0-0.2-0.1-0.2-0.2-0.5-0.1-1-0.1-1.5 0v0.5c-0.4 0-0.8 0.1-1.2 0.2-0.5-0.1-0.8 0.1-0.9 0.6h-0.2c-0.2 0-0.5 0-0.7 0.1-0.4 0.1-0.8 0.2-1.1 0.5 0.1-0.2 0.2-0.4 0.4-0.5 0.5-0.2 0.9-0.3 1.4-0.3l0.3-0.4c0.5-0.2 0.9-0.3 1.4-0.3 0.6-0.6 1.4-0.8 2.3-0.6 0.3 0.4 0.3 0.8 0.1 1.2z"></path><path fill="#e6e6e6" d="m23.1 16.4h0.9v0.1l-1.4 0.7c-1.2 0.5-2.3 0.9-3.5 1.3 0.4-0.5 1-0.7 1.6-0.7 0.4 0 0.7-0.2 0.7-0.6 0.5-0.1 1-0.2 1.5-0.3 0.1-0.2 0.2-0.3 0.2-0.5z"></path><path fill="#dedede" d="m28.6 18.1c0.2-0.2 0.5-0.2 0.7-0.2 0 0.1 0.1 0.2 0.2 0.2 0 0.3-0.1 0.5-0.3 0.7 0.2-0.6 0-0.8-0.6-0.7z"></path><path fill="#f4f4f4" d="m24.8 17.5c-0.1 0.3-0.2 0.5-0.5 0.6-0.4 0.1-0.8 0.1-1.2 0.1 0.6-0.1 1.2-0.4 1.7-0.7z"></path><path fill="#e6e6e6" d="m25.5 16.9h0.3l-0.1 0.3c-0.4 0-0.7 0.1-0.9 0.3-0.5 0.3-1.1 0.6-1.7 0.7-0.4 0.1-0.7 0.2-1.1 0.4 0.1-0.2 0.2-0.4 0.4-0.5 0.4 0 0.6-0.1 0.9-0.3h0.4c0.4-0.3 0.8-0.5 1.3-0.7h0.1c0.2 0 0.3 0 0.4-0.2z"></path><path fill="#d2d2d2" d="m28.6 18.1c0.6-0.1 0.8 0.1 0.6 0.7-0.2 0-0.3 0.1-0.3 0.3l-0.6 0.1c0.1-0.2 0.2-0.4 0.2-0.6h-0.6c0.1-0.3 0.4-0.5 0.7-0.5z"></path><path fill="#e6e6e6" d="m29.3 17.9c-0.2 0-0.5 0-0.7 0.2-0.3 0-0.6 0.2-0.7 0.5h-1.3c0.4-0.1 0.8-0.2 1.2-0.2v-0.5c0.5-0.1 1-0.1 1.5 0z"></path><path fill="#eaeaea" d="m19.1 18.5c-0.5 0.1-0.9 0.3-1.3 0.6-0.3 0.1-0.7 0.1-1 0.1v-0.1c0.7-0.4 1.5-0.6 2.3-0.6z"></path><path fill="#ededed" d="m26.6 18.6c-0.3 0.3-0.6 0.4-0.9 0.6 0.1-0.5 0.4-0.7 0.9-0.6z"></path><path fill="#cdcdcd" d="m27.8 18.6h0.7c0 0.2-0.1 0.4-0.2 0.6h-0.1c-0.4-0.3-0.9-0.4-1.4-0.3l1-0.3z"></path><path fill="#e9e9e9" d="m29.5 18.1c0.1 0.2 0.1 0.5 0.1 0.8-0.3 0-0.5 0.2-0.6 0.4h-0.2l0.1-0.2c0-0.2 0.1-0.3 0.3-0.3 0.2-0.2 0.3-0.4 0.3-0.7z"></path><path fill="#dedede" d="m26.6 18.6h1.2l-1 0.3c-0.4 0.3-0.8 0.4-1.3 0.4v-0.1h0.2c0.3-0.2 0.6-0.3 0.9-0.6z"></path><path fill="#d0d0d0" d="m18.8 18.9c0 0.2 0.1 0.2 0.3 0.3-0.2 0.1-0.4 0.2-0.6 0.2-0.1 0.2-0.2 0.4-0.4 0.5 0.1-0.3 0-0.5-0.5-0.4 0.5-0.1 0.8-0.3 1.2-0.6z"></path><path fill="#e5e5e5" d="m22 18.6c-0.6 0.2-1.1 0.5-1.7 0.8-0.4 0.1-0.7 0.1-1.1 0.1 0.7-0.1 1.3-0.4 1.8-0.8 0.3-0.1 0.7-0.1 1-0.1z"></path><path fill="#c8c8c8" d="m26.8 18.9c0.5-0.1 1 0 1.4 0.3-0.5 0-0.9 0-1.4 0.1v-0.4z"></path><path fill="#f5f5f5" d="m29.6 18.9c0 0.4-0.2 0.6-0.6 0.6v-0.2c0.1-0.2 0.3-0.4 0.6-0.4z"></path><path fill="#d7d7d7" d="m22.6 17.2c-0.3 0.1-0.5 0.3-0.7 0.4 0.4 0.2 0.9 0.2 1.4 0.2-0.3 0.2-0.5 0.3-0.9 0.3-0.2 0.1-0.3 0.3-0.4 0.5-0.3 0-0.7 0-1 0.1-0.5 0.4-1.1 0.7-1.8 0.8h-0.6c0 0.2 0 0.4-0.1 0.5h-0.7c0-0.1 0.1-0.1 0.3-0.1 0.2-0.1 0.3-0.3 0.4-0.5 0.2 0 0.4-0.1 0.6-0.2h0.1c0.3 0 0.6 0 0.8-0.1 0.2-0.1 0.4-0.3 0.5-0.5 0.4-0.1 0.8-0.1 1.2-0.2 0.1 0 0.1-0.1 0.2-0.2-0.6-0.2-1.2-0.2-1.7 0-0.2 0.3-0.5 0.5-0.9 0.6-0.2-0.1-0.4 0-0.5 0.1-0.4 0.3-0.7 0.5-1.2 0.6-0.3 0-0.6 0-0.9-0.1-0.1 0-0.2-0.1-0.2-0.2h0.3c0.3 0 0.7 0 1-0.1 0.4-0.3 0.8-0.5 1.3-0.6 1.2-0.4 2.3-0.8 3.5-1.3z"></path><path fill="#c2c2c2" d="m18.8 18.9c0.3 0 0.6 0 1 0.1-0.3 0-0.4 0.1-0.6 0.2h-0.1c-0.2-0.1-0.3-0.1-0.3-0.3z"></path><path fill="#cacaca" d="m18.8 18.9c0.1-0.1 0.3-0.2 0.5-0.1 0.4-0.1 0.6 0 0.7 0.3-0.2 0.1-0.5 0.1-0.8 0.1 0.2-0.1 0.3-0.2 0.6-0.2-0.4-0.1-0.7-0.1-1-0.1z"></path><path fill="#c9c9c9" d="m20.5 18.6c-0.2 0-0.3-0.2-0.3-0.4 0.5-0.2 1.1-0.2 1.7 0-0.1 0.1-0.1 0.2-0.2 0.2-0.4 0.1-0.8 0.1-1.2 0.2z"></path><path fill="#d0d0d0" d="m20.2 18.2c0 0.2 0.1 0.4 0.3 0.4-0.1 0.2-0.3 0.4-0.5 0.5-0.1-0.3-0.3-0.4-0.7-0.3 0.4-0.1 0.7-0.3 0.9-0.6z"></path><path fill="#d4d4d4" d="m26.8 18.9v0.4c0.5-0.1 0.9-0.1 1.4-0.1-0.4 0.1-0.8 0.2-1.1 0.4-0.1 0.1-0.2 0.2-0.2 0.3-0.5 0.1-1 0.3-1.5 0.4-0.2 0.1-0.4 0.1-0.6 0.3v-0.4h-1c0.4-0.1 0.8-0.3 1.2-0.6 0.2 0.4 0.5 0.5 0.9 0.4 0.3-0.1 0.5-0.2 0.7-0.3-0.3-0.2-0.7-0.3-1.1-0.2v-0.2c0.5 0 0.9-0.1 1.3-0.4z"></path><path fill="#e1e1e1" d="m28.9 19.1l-0.1 0.2c-0.4 0.1-0.8 0.2-1.2 0.2-0.2 0.1-0.3 0.2-0.4 0.4h-0.3c0-0.1 0.1-0.2 0.2-0.3 0.3-0.2 0.7-0.3 1.1-0.4h0.1l0.6-0.1z"></path><path fill="#eee" d="m28.8 19.3h0.2v0.2l-0.8 0.1c-0.4 0-0.7 0.2-1 0.4v-0.1c0.1-0.2 0.2-0.3 0.4-0.4 0.4 0 0.8-0.1 1.2-0.2z"></path><path fill="#f6f6f6" d="m15.4 17.5c0.1 2.7 0.2 5.4 0.1 8.2-0.1 0-0.3 0-0.4-0.2 0.2 0 0.3 0 0.3-0.2l-0.3-0.5c0.2-0.4 0.2-0.7 0.3-1.1-0.4-1.2-0.4-2.4 0-3.7-0.1-0.3-0.1-0.7-0.3-1 0.2-0.5 0.3-1 0.3-1.5z"></path><path fill="#cdcdcd" d="m25.5 19.5c0.4-0.1 0.8 0 1.1 0.2-0.2 0.1-0.4 0.2-0.7 0.3-0.4 0.1-0.7 0-0.9-0.4 0.1-0.1 0.3-0.2 0.5-0.1z"></path><path fill="#c2c2c2" d="m25.4 19.6c0.3 0 0.6 0 1 0.1-0.3 0-0.6 0.1-0.9 0.2-0.1-0.1-0.1-0.2-0.1-0.3z"></path><path fill="#f5f5f5" d="m28.2 19.6c-0.5 0.6-1.2 0.9-2 0.7 0.3-0.1 0.7-0.2 1-0.3 0.3-0.2 0.6-0.4 1-0.4z"></path><path fill="#e6e6e6" d="m19.2 19.5c-0.2 0.3-0.4 0.5-0.7 0.5 0.1-0.1 0.1-0.3 0.1-0.5h0.6z"></path><path fill="#f4f4f4" d="m22.9 19.9l-0.2 0.3c-0.2 0-0.3 0.1-0.3 0.3h-0.4c0.1-0.5 0.4-0.7 0.9-0.6z"></path><path fill="#ececec" d="m24.8 19.3c-0.6 0.5-1.3 0.8-2.1 0.9l0.2-0.3c0.2 0 0.5 0 0.8-0.1 0.3-0.3 0.7-0.4 1.1-0.5z"></path><path fill="#e7e7e7" d="m26.9 19.9h0.3v0.1c-0.3 0.1-0.7 0.2-1 0.3-0.1 0-0.2 0-0.3 0.2-0.3 0-0.5 0.1-0.8 0.2l0.3-0.4c0.5-0.1 1-0.3 1.5-0.4z"></path><path fill="#e8e8e8" d="m22.7 20.2v0.3h-0.3c0-0.2 0.1-0.3 0.3-0.3z"></path><path fill="#e0e0e0" d="m25.5 19.2v0.3c-0.2-0.1-0.4 0-0.5 0.1-0.4 0.3-0.8 0.5-1.2 0.6-0.2-0.1-0.4 0-0.5 0.1l-0.6 0.2v-0.3c0.8-0.1 1.5-0.4 2.1-0.9 0.2-0.1 0.5-0.1 0.7-0.1z"></path><path fill="#cdcdcd" d="m23.8 20.2h1v0.4h-0.5c-0.2 0.1-0.5 0.2-0.7 0.1-0.4 0.1-0.5-0.1-0.3-0.4 0.1-0.1 0.3-0.2 0.5-0.1z"></path><path fill="#e8e8e8" d="m17.8 20h0.7c-0.3 0.2-0.6 0.3-1 0.4-0.1 0.2-0.3 0.4-0.6 0.5-0.1 0.4-0.1 0.8-0.1 1.2 0.7 0.1 1.3 0 2-0.1l-0.2 0.3h-0.2c-0.3 0-0.6 0-0.9 0.1-0.2 0-0.4 0-0.6 0.2-0.2-0.5-0.3-1-0.2-1.6 0-0.1 0-0.3 0.1-0.4 0.3-0.2 0.7-0.4 1-0.6z"></path><path fill="#c4c4c4" d="m24.3 20.6c-0.3 0-0.4 0-0.6-0.1 0.2-0.2 0.5-0.2 0.7-0.1-0.1 0-0.1 0.1-0.1 0.2z"></path><path fill="#f4f4f4" d="m23.1 18.2c0 0.2-0.1 0.3-0.2 0.5-0.8 0.1-1.6 0.3-2.2 0.8l-1.1 0.2c-0.5 0.5-1.1 0.8-1.8 0.8-1.3 1.2-1.1 1.6 0.6 1.3 0.3-0.4 0.8-0.6 1.4-0.5-0.3 0.2-0.7 0.3-1 0.3v0.4c-0.7 0.1-1.3 0.2-2 0.1 0-0.4 0-0.8 0.1-1.2 0.3-0.1 0.5-0.3 0.6-0.5 0.4-0.1 0.7-0.2 1-0.4 0.3 0 0.5-0.2 0.7-0.5 0.4 0 0.7 0 1.1-0.1 0.6-0.3 1.1-0.6 1.7-0.8 0.4-0.2 0.7-0.3 1.1-0.4z"></path><path fill="#d0d0d0" d="m23.3 20.3c-0.2 0.3-0.1 0.5 0.3 0.4-0.3 0.4-0.7 0.6-1.2 0.6 0.1-0.1 0.2-0.2 0.3-0.2-0.3-0.1-0.5-0.1-0.8-0.1 0.2-0.1 0.4-0.2 0.7-0.3 0-0.1 0.1-0.1 0.1-0.2l0.6-0.2z"></path><path fill="#d9d9d9" d="m17.8 20c-0.3 0.2-0.7 0.4-1 0.6-0.1 0.1-0.1 0.3-0.1 0.4h-0.2c0.1-0.7 0.5-1.1 1.3-1z"></path><path fill="#f2f2f2" d="m22 20.5c-0.2 0.1-0.5 0.2-0.7 0.4-0.2 0-0.4 0.1-0.6 0.3-0.3 0-0.6 0.1-0.9 0.1 0.5-0.6 1.3-0.9 2.2-0.8z"></path><path fill="#e6e6e6" d="m22 20.5h0.4c-0.3 0.2-0.7 0.4-1.1 0.4 0.2-0.2 0.5-0.3 0.7-0.4z"></path><path fill="#f3f3f3" d="m29.6 21.3h-0.1c-0.2-0.2-0.5-0.2-0.7-0.1-0.8 0.3-1.6 0.6-2.4 0.8 0.2-0.2 0.4-0.4 0.7-0.6 0.7 0 1.4-0.3 1.9-0.8 0.4 0.1 0.6 0.3 0.6 0.7z"></path><path fill="#cacaca" d="m16.4 17.4c-0.1 0.6 0 1.2 0.1 1.8 0 0.1 0.1 0.2 0.2 0.2 0.3 0.1 0.6 0.1 0.9 0.1 0.5-0.1 0.6 0.1 0.5 0.4-0.2 0-0.3 0-0.3 0.1-0.8-0.1-1.2 0.3-1.3 1-0.2 0.6-0.1 1.2 0.1 1.9 0.3 0.1 0.7 0.1 1 0.1v0.4h-0.2c-0.4-0.2-0.7-0.4-1.1-0.5-0.1-0.8-0.1-1.5 0-2.3 0.1-0.2 0.2-0.4 0.4-0.6 1.5-0.3 1.4-0.4-0.2-0.5l-0.2-0.2c-0.1-0.6-0.1-1.3 0.1-1.9z"></path><path fill="#cfcfcf" d="m15.4 17.1h0.3c0.1 0 0.1 0 0.2 0.1 0.1 2.8 0.1 5.7 0.1 8.5h-0.2c0-2.8 0-5.5 0-8.2-0.2-0.1-0.3-0.3-0.4-0.4z"></path><path fill="#d9d9d9" d="m25.4 20.3l-0.3 0.4c-0.5 0-0.9 0.1-1.3 0.3-0.2 0.1-0.4 0.2-0.7 0.4-0.2 0-0.5 0.1-0.8 0v-0.1h0.1c0.5 0 0.9-0.2 1.2-0.6 0.2 0.1 0.5 0 0.7-0.1h0.5c0.2-0.2 0.4-0.2 0.6-0.3z"></path><path fill="#e7e7e7" d="m25.1 20.7c-0.4 0.3-0.8 0.4-1.3 0.3 0.4-0.2 0.8-0.3 1.3-0.3z"></path><path fill="#c4c4c4" d="m21.9 21c0.3 0 0.5 0 0.8 0.1-0.1 0-0.2 0.1-0.3 0.2h-0.1c-0.2 0-0.4 0-0.6-0.1 0.1 0 0.2-0.1 0.2-0.2z"></path><path fill="#cecece" d="m21.9 21c0 0.1-0.1 0.2-0.2 0.2 0.2 0.1 0.4 0.1 0.6 0.1v0.1c0 0.1-0.1 0.2-0.2 0.2h-0.7v0.4c-0.9 0.1-1.7 0.4-2.5 0.9-0.4 0-0.9-0.1-1.3-0.3 0.3-0.1 0.5-0.2 0.8-0.3h0.2c0.4 0 0.6-0.1 0.7-0.4 0.5-0.2 1.1-0.3 1.6-0.4 0.2-0.4 0.5-0.6 1-0.5z"></path><path fill="#f4f4f4" d="m25.9 20.5c0 0.2 0 0.3-0.2 0.5-0.7 0-1.4 0.2-1.9 0.7-0.4 0.1-0.9 0.1-1.4 0.2 0.4-0.3 0.9-0.4 1.4-0.5v-0.4c0.5 0.1 0.9 0 1.3-0.3 0.3-0.1 0.5-0.2 0.8-0.2z"></path><path fill="#e6e6e6" d="m20.7 21.2c-0.4 0.2-0.9 0.4-1.4 0.7-0.1 0.1-0.3 0.1-0.5 0.1v-0.4c0.3 0 0.7-0.1 1-0.3 0.3 0 0.6-0.1 0.9-0.1z"></path><path fill="#d9d9d9" d="m22.4 20.5h0.3c0 0.1-0.1 0.1-0.1 0.2-0.3 0.1-0.5 0.2-0.7 0.3-0.5-0.1-0.8 0.1-1 0.5-0.5 0.1-1.1 0.2-1.6 0.4 0.5-0.3 1-0.5 1.4-0.7 0.2-0.2 0.4-0.3 0.6-0.3 0.4 0 0.8-0.2 1.1-0.4z m-0.3 1.1c-0.2 0.1-0.4 0.2-0.7 0.4v-0.4h0.7z"></path><path fill="#c9c9c9" d="m28.1 21.7c0.3 0 0.7 0 1.1 0.2-0.2 0.2-0.4 0.3-0.7 0.2-0.5 0.1-0.6 0-0.4-0.4z"></path><path fill="#c3c3c3" d="m20.2 21.7c0.2 0 0.4 0 0.5 0.2-0.2 0.1-0.5 0.2-0.8 0 0.1 0 0.2-0.1 0.3-0.2z"></path><path fill="#e7e7e7" d="m23.8 21v0.4c-0.5 0.1-1 0.2-1.4 0.5-0.5 0.2-1.1 0.4-1.7 0.5 0.3-0.1 0.5-0.3 0.7-0.4 0.3-0.2 0.5-0.3 0.7-0.4 0.1 0 0.2-0.1 0.2-0.2 0.3 0.1 0.6 0 0.8 0 0.3-0.2 0.5-0.3 0.7-0.4z"></path><path fill="#d9d9d9" d="m27.8 21.9c-0.1 0.1-0.2 0.2-0.3 0.3l-1.3 0.2h-0.1c0.5-0.2 1.1-0.4 1.7-0.5z m-8.5 0c-0.1 0.3-0.3 0.4-0.7 0.4l0.2-0.3c0.2 0 0.4 0 0.5-0.1z"></path><path fill="#e5e5e5" d="m29.5 21.3v0.4c-0.1-0.1-0.3-0.3-0.5-0.4-0.3 0.1-0.7 0.2-0.9 0.4-0.2 0-0.3 0-0.3 0.2-0.6 0.1-1.2 0.3-1.7 0.5-0.3 0.4-0.7 0.5-1.1 0.6h-0.2v-0.3c0.5-0.3 1-0.5 1.6-0.7 0.8-0.2 1.6-0.5 2.4-0.8 0.2-0.1 0.5-0.1 0.7 0.1z"></path><path fill="#ddd" d="m21.4 22c-0.2 0.1-0.4 0.3-0.7 0.4h-0.2c-0.6 0.2-1.1 0.4-1.6 0.6v-0.1c0.8-0.5 1.6-0.8 2.5-0.9z"></path><path fill="#f2f2f2" d="m26.4 22c-0.6 0.2-1.1 0.4-1.6 0.7 0.3-0.6 0.8-0.8 1.6-0.7z"></path><path fill="#cdcdcd" d="m28.1 21.7c-0.2 0.4-0.1 0.5 0.4 0.4-0.4 0.3-0.8 0.6-1.3 0.8-0.3-0.1-0.7 0-1 0.1-0.1-0.2-0.1-0.4 0-0.6l1.3-0.2c0.1-0.1 0.2-0.2 0.3-0.3 0-0.2 0.1-0.2 0.3-0.2z"></path><path fill="#d7d7d7" d="m29.5 21.7c0 0.2-0.1 0.4-0.3 0.5-0.7 0.1-1.3 0.4-1.8 0.8h-0.2v-0.1c0.5-0.2 0.9-0.5 1.3-0.8 0.3 0.1 0.5 0 0.7-0.2-0.4-0.2-0.8-0.2-1.1-0.2 0.2-0.2 0.6-0.3 0.9-0.4 0.2 0.1 0.4 0.3 0.5 0.4z"></path><path fill="#e2e2e2" d="m16.5 21h0.2c-0.1 0.6 0 1.1 0.2 1.6 0.2-0.2 0.4-0.2 0.6-0.2-0.2 0.3-0.5 0.3-0.8 0.2-0.2-0.5-0.2-1.1-0.2-1.6z"></path><path fill="#d3d3d3" d="m16.5 21c0 0.5 0 1.1 0.2 1.6 0.3 0.1 0.6 0.1 0.8-0.2 0.3-0.1 0.6-0.1 0.9-0.1-0.3 0.1-0.5 0.2-0.8 0.3 0.4 0.2 0.9 0.3 1.3 0.3v0.1h-0.3c-0.4-0.1-0.7 0-1 0.4v-0.4c-0.3 0-0.7 0-1-0.1-0.2-0.7-0.3-1.3-0.1-1.9z"></path><path fill="#f4f4f4" d="m22.4 21.9c0 0.2-0.1 0.3-0.3 0.5-0.4 0.1-0.9 0.2-1.4 0.2-0.5 0.5-1.1 0.7-1.8 0.7 0.6-0.2 1.1-0.5 1.6-0.9h0.2c0.6-0.1 1.2-0.3 1.7-0.5z"></path><path fill="#d3d3d3" d="m26.1 22.4h0.1c-0.1 0.2-0.1 0.4 0 0.6 0.3-0.1 0.7-0.2 1-0.1v0.1c-0.6 0.1-1.1 0.3-1.5 0.6v-0.2c0.2 0 0.2-0.1 0.2-0.3-0.2-0.1-0.4-0.1-0.5 0h-0.4v-0.1c0.4-0.1 0.8-0.2 1.1-0.6z"></path><path fill="#c2c2c2" d="m26.8 22.4c0.2 0.1 0.4 0.1 0.6 0.2-0.4 0.1-0.7 0.1-1 0 0.1 0 0.3-0.1 0.4-0.2z"></path><path fill="#f5f5f5" d="m29.5 22.4c-0.4 0.2-0.7 0.4-1 0.7-0.3 0.1-0.7 0.2-1 0.2v-0.2c0.7-0.1 1.4-0.3 2-0.7z"></path><path fill="#cdcdcd" d="m7.4 13.1v10.3c0.2 0 0.4 0 0.5-0.1l-0.2-0.2c-0.1-2.9-0.1-5.8 0-8.7 0.1-0.1 0.1-0.2 0.2-0.3 0.2 0 0.4 0 0.5 0.2-0.3-0.1-0.4 0-0.5 0.3-0.1 2.7-0.1 5.6 0 8.4 0.2 0.4 0.6 0.6 1 0.7 0.3 0.1 0.6 0.2 0.9 0.1h0.1c0.3 0.6 0.7 0.9 1.4 0.7v0.2c-0.3 0-0.6 0-1 0.1 0.3 0 0.4 0 0.6 0.2h-0.7c-0.2-0.2-0.4-0.4-0.6-0.5-0.9-0.1-1.7-0.4-2.4-0.9 0-3.5 0-7 0.2-10.5z"></path><path fill="#ececec" d="m8.5 22.9h0.3c0.1 0.3 0.3 0.5 0.7 0.5h0.3c0.3 0.2 0.7 0.4 1 0.7-0.2 0-0.3 0-0.5-0.1-0.1-0.1-0.2-0.2-0.4-0.2h-0.1c-0.3-0.2-0.6-0.4-1-0.5-0.2-0.1-0.3-0.2-0.3-0.4z"></path><path fill="#f6f6f6" d="m8.8 22.9c0.3 0 0.5 0.2 0.7 0.5-0.4 0-0.6-0.2-0.7-0.5z"></path><path fill="#e9e9e9" d="m29.5 21.3h0.1c0 0.4 0 0.8-0.1 1.1-0.6 0.4-1.3 0.6-2 0.7h-0.1v-0.1c0.5-0.4 1.1-0.7 1.8-0.8 0.2-0.1 0.3-0.3 0.3-0.5v-0.4z"></path><path fill="#d8d8d8" d="m18.6 23c-0.4 0.3-0.9 0.6-1.5 0.7l0.1-0.3h0.4c0.3-0.4 0.6-0.5 1-0.4z"></path><path fill="#ccc" d="m25.4 23.1c0.1-0.1 0.3-0.1 0.5 0 0 0.2 0 0.3-0.2 0.3-0.1-0.1-0.2-0.2-0.3-0.3z"></path><path fill="#e9e9e9" d="m24.8 22.9v0.1c-0.8 0.3-1.6 0.6-2.5 0.8-0.3 0.2-0.6 0.4-1 0.5v-0.2c0.2-0.1 0.3-0.2 0.4-0.3 1.1-0.2 2.1-0.5 3.1-0.9z"></path><path fill="#d8d8d8" d="m24.8 23h0.2v0.1c-0.2 0-0.4 0-0.5 0.2-0.5 0.3-1.1 0.5-1.6 0.7-0.2-0.1-0.4 0-0.5 0.1-0.2 0.2-0.4 0.3-0.7 0.3 0.3-0.1 0.4-0.3 0.6-0.6 0.9-0.2 1.7-0.5 2.5-0.8z"></path><path fill="#c4c4c4" d="m25 23.1h0.4c0.1 0.1 0.2 0.2 0.3 0.3-0.4 0.1-0.8 0-1.2-0.1 0.1-0.2 0.3-0.2 0.5-0.2z"></path><path fill="#f6f6f6" d="m27.4 23.3c-0.2 0.3-0.5 0.5-0.9 0.5 0.2-0.2 0.5-0.4 0.9-0.5z"></path><path fill="#f5f5f5" d="m24.8 22.7v0.2c-1 0.4-2 0.7-3.1 0.9-0.1 0.1-0.2 0.2-0.4 0.3 0-0.2 0.1-0.4 0.4-0.5 0.3-0.1 0.7-0.2 1.2-0.3 0.5-0.5 1.1-0.7 1.9-0.6z"></path><path fill="#cecece" d="m24.5 23.3c0.4 0.1 0.8 0.2 1.2 0.1v0.2h-0.2c-0.4-0.1-0.7 0-1.1 0.2-0.1 0.2-0.3 0.3-0.6 0.3-0.3-0.1-0.6-0.2-0.9-0.1 0.5-0.2 1.1-0.4 1.6-0.7z"></path><path fill="#f1f1f1" d="m9.8 23.4c0.6-0.1 1.1 0.2 1.4 0.6 0.3 0.1 0.7 0.1 1 0.3 0.1 0.1 0.2 0.3 0.2 0.5-0.3-0.3-0.6-0.4-1.1-0.4l-0.5-0.3c-0.3-0.3-0.7-0.5-1-0.7z"></path><path fill="#d0d0d0" d="m17.2 23.4l-0.1 0.3c-0.2 0-0.4 0-0.5 0.1-0.1 0.6-0.1 1.3-0.1 1.9-0.1-0.6-0.2-1.1-0.1-1.7 0.1-0.4 0.4-0.6 0.8-0.6z"></path><path fill="#d5d5d5" d="m25.5 23.6c-0.4 0.1-0.8 0.2-1.1 0.5-0.2 0.1-0.3 0.2-0.6 0.2v-0.2c0.3 0 0.5-0.1 0.6-0.3 0.4-0.2 0.7-0.3 1.1-0.2z"></path><path fill="#e7e7e7" d="m20.5 22.4c-0.5 0.4-1 0.7-1.6 0.9h-0.1c-0.6 0.4-1.3 0.6-2 0.7l0.3-0.3c0.6-0.1 1.1-0.4 1.5-0.7h0.3c0.5-0.2 1-0.4 1.6-0.6z"></path><path fill="#e0e0e0" d="m27.2 23h0.2v0.1c-0.9 0.4-1.8 0.8-2.7 1h-0.3c0.3-0.3 0.7-0.4 1.1-0.5h0.2c0.4-0.3 0.9-0.5 1.5-0.6z"></path><path fill="#e9e9e9" d="m7.5 24c0.2 0.1 0.4 0.2 0.4 0.4-0.2 0-0.4-0.1-0.4-0.4z"></path><path fill="#d7d7d7" d="m9.9 23.8c0.2 0 0.3 0.1 0.4 0.2 0 0.2 0.1 0.3 0.3 0.3 0.2 0.1 0.5 0.1 0.7 0.1v0.1c-0.7 0.2-1.1-0.1-1.4-0.7z"></path><path fill="#c8c8c8" d="m22.9 24c0.3-0.1 0.6 0 0.9 0.1v0.2c-0.4-0.1-0.7 0-1.1 0.1-0.1 0-0.2-0.1-0.3-0.3 0.1-0.1 0.3-0.2 0.5-0.1z"></path><path fill="#f0f0f0" d="m27.4 23.1h0.1v0.2h-0.1c-0.4 0.1-0.7 0.3-0.9 0.5-0.3 0.1-0.7 0.2-1.1 0.3-0.4 0.5-0.9 0.7-1.6 0.6h-0.1c0.4-0.2 0.7-0.4 1-0.6 0.9-0.2 1.8-0.6 2.7-1z"></path><path fill="#dfdfdf" d="m10.3 24c0.2 0.1 0.3 0.1 0.5 0.1l0.5 0.3c-0.2 0-0.5 0-0.7-0.1-0.2 0-0.3-0.1-0.3-0.3z"></path><path fill="#d1d1d1" d="m22.4 24.1c0.1 0.2 0.2 0.3 0.3 0.3 0 0.2-0.1 0.3-0.3 0.4 0-0.1 0-0.1-0.1-0.2-0.4-0.1-0.9-0.1-1.3-0.1 0.2-0.1 0.5-0.1 0.7-0.1 0.3 0 0.5-0.1 0.7-0.3z"></path><path fill="#dbdbdb" d="m7.2 23.6c0.7 0.5 1.5 0.8 2.4 0.9 0.2 0.1 0.4 0.3 0.6 0.5-0.7-0.4-1.4-0.6-2.1-0.6h-0.2c0-0.2-0.2-0.3-0.4-0.4h-0.1c-0.1-0.1-0.1-0.3-0.2-0.4z"></path><path fill="#f5f5f5" d="m12.2 24.3c0.6 0.4 1.4 0.6 2.2 0.7 0.2 0.2 0.3 0.3 0.4 0.5-0.2 0-0.4-0.1-0.5-0.3-0.3-0.1-0.5-0.1-0.7-0.1-0.4-0.1-0.8-0.2-1.2-0.3 0-0.2-0.1-0.4-0.2-0.5z"></path><path fill="#d8d8d8" d="m23.8 24.3c-0.4 0.2-0.9 0.4-1.4 0.7v-0.2c0.2-0.1 0.3-0.2 0.3-0.4 0.4-0.1 0.7-0.2 1.1-0.1z"></path><path fill="#e0e0e0" d="m17.1 23.7l-0.3 0.3c-0.1 0.5-0.2 1.1-0.1 1.7h-0.2c0-0.6 0-1.3 0.1-1.9 0.1-0.1 0.3-0.1 0.5-0.1z"></path><path fill="#e1e1e1" d="m22.3 23.8c-0.2 0.3-0.3 0.5-0.6 0.6-0.2 0-0.5 0-0.7 0.1-0.4 0.1-0.8 0.3-1.1 0.6h-0.3l0.9-0.7c0.2-0.1 0.5-0.2 0.8-0.1 0.4-0.1 0.7-0.3 1-0.5z"></path><path fill="#cbcbcb" d="m21 24.5c0.4 0 0.9 0 1.3 0.1 0.1 0.1 0.1 0.1 0.1 0.2v0.2c-0.5 0-1 0.1-1.5 0.1-0.2-0.2-0.2-0.4 0.1-0.4v-0.2z"></path><path fill="#f4f4f4" d="m7 23.8c0.1 0.1 0.2 0.2 0.4 0.2h0.1c0 0.3 0.2 0.4 0.4 0.4h0.2c0.6 0.2 1.1 0.4 1.7 0.8 0.2 0 0.4 0.1 0.7 0v0.2c-0.8 0.1-1.5-0.1-2-0.6-0.5-0.1-1-0.2-1.4-0.5-0.1-0.2-0.1-0.3-0.1-0.5z"></path><path fill="#e5e5e5" d="m8.1 24.4c0.7 0 1.4 0.2 2.1 0.6h0.1c0.2 0.1 0.4 0.1 0.6 0.1v0.1h-0.4c-0.3 0.1-0.5 0-0.7 0-0.6-0.4-1.1-0.6-1.7-0.8z"></path><path fill="#c1c1c1" d="m11.3 24.7c0 0.2-0.2 0.3-0.4 0.3-0.2-0.2-0.3-0.2-0.6-0.2 0.4-0.1 0.7-0.1 1-0.1z"></path><path fill="#d2d2d2" d="m11.3 24.5c0.6 0.3 1.1 0.5 1.7 0.7-0.4 0-0.8 0.1-1.1 0.3-0.2-0.3-0.6-0.5-1-0.4-0.2 0-0.4 0-0.6-0.1h0.6c0.2 0 0.4-0.1 0.4-0.3v-0.2z m9.7 0v0.2c-0.3 0-0.3 0.2-0.1 0.4-0.1 0.1-0.1 0.3-0.2 0.4 0 0.1 0 0.2-0.1 0.2h-0.1c0-0.1 0.1-0.2 0.1-0.3-0.2-0.2-0.5-0.2-0.7-0.2v-0.1c0.3-0.3 0.7-0.5 1.1-0.6z"></path><path fill="#c1c1c1" d="m21 24.7c0.4 0 0.8 0 1.1 0.1-0.3 0-0.6 0.1-0.9 0.2-0.1-0.1-0.1-0.2-0.2-0.3z"></path><path fill="#e7e7e7" d="m24.4 24.1h0.3c-0.3 0.2-0.6 0.4-1 0.6-0.4 0.2-0.8 0.3-1.3 0.5h-0.5l0.5-0.2c0.5-0.3 1-0.5 1.4-0.7 0.3 0 0.4-0.1 0.6-0.2z"></path><path fill="#f5f5f5" d="m23.7 24.7h0.1c-0.3 0.5-0.8 0.7-1.4 0.7v-0.2c0.5-0.2 0.9-0.3 1.3-0.5z"></path><path fill="#f4f4f4" d="m18.8 23.3c0 0.1 0 0.3-0.2 0.4-0.4 0.2-0.8 0.3-1.2 0.4-0.2 0.5-0.3 0.9-0.3 1.4 0.4 0.1 0.7-0.1 0.8-0.5 0.5-0.1 1-0.2 1.4-0.2 0.6-0.6 1.2-0.8 2-0.7v0.2c-0.3-0.1-0.6 0-0.8 0.1-0.4-0.1-0.7 0.1-0.9 0.4-0.6 0.2-1.3 0.4-1.8 0.8-0.3 0.1-0.7 0.1-1 0.1v-1.7c0.7-0.1 1.4-0.3 2-0.7z"></path><path fill="#e1e1e1" d="m11.3 24.5v-0.1c0.5 0 0.8 0.1 1.1 0.4 0.4 0.1 0.8 0.2 1.2 0.3 0.4 0.3 0.8 0.5 1.2 0.7-0.5 0-1-0.1-1.4-0.4-0.1-0.1-0.2-0.2-0.4-0.2-0.6-0.2-1.1-0.4-1.7-0.7z"></path><path fill="#ededed" d="m13.6 25.1c0.2 0 0.4 0 0.7 0.1 0.1 0.2 0.3 0.3 0.5 0.3h0.3c0.1 0.2 0.3 0.2 0.4 0.2-0.2 0.1-0.4 0.1-0.7 0.1-0.4-0.2-0.8-0.4-1.2-0.7z"></path><path fill="#d9d9d9" d="m22.4 25l-0.5 0.2c-0.3 0.1-0.6 0.2-0.9 0.3h-0.3c0.1-0.1 0.1-0.3 0.2-0.4 0.5 0 1-0.1 1.5-0.1z"></path><path fill="#dfdfdf" d="m10.9 25.2c0.4 0 0.6 0.1 0.7 0.5-0.2-0.2-0.5-0.3-0.7-0.5z"></path><path fill="#ccc" d="m13 25.2c0.2 0 0.3 0.1 0.4 0.2v0.4c-0.2 0-0.5 0-0.7-0.1 0.1-0.1 0.2-0.2 0.3-0.2-0.3-0.1-0.6-0.1-0.8 0 0.1 0 0.2 0.1 0.2 0.2-0.2 0-0.4 0-0.5-0.2 0.3-0.2 0.7-0.3 1.1-0.3z"></path><path fill="#e9e9e9" d="m16.8 24v1.7c0.3 0 0.7 0 1-0.1 0.5-0.4 1.2-0.6 1.8-0.8 0.2-0.3 0.5-0.5 0.9-0.4l-0.9 0.7c-0.6 0-1.1 0.2-1.4 0.7-0.5 0-1 0-1.5-0.1-0.1-0.6 0-1.2 0.1-1.7z"></path><path fill="#eee" d="m21.9 25.2h0.5v0.2c-0.2 0-0.4 0-0.7 0.1-0.3 0.1-0.6 0.1-0.8 0.3l0.1-0.3c0.3-0.1 0.6-0.2 0.9-0.3z"></path><path fill="#f5f5f5" d="m10.5 25.4c0.7 0.3 1.4 0.6 2.1 0.8-0.5 0-1-0.1-1.4-0.2-0.3-0.1-0.6-0.3-0.7-0.6z"></path><path fill="#d5d5d5" d="m10.9 25.2v-0.1c0.4-0.1 0.8 0.1 1 0.4 0.1 0.2 0.3 0.2 0.5 0.2h0.3c0.2 0.1 0.5 0.1 0.7 0.1v-0.4c0.4 0.3 0.9 0.4 1.4 0.4v0.1h-1.1v0.5c0.2-0.1 0.3 0 0.4 0.1h-0.4c-0.6-0.4-1.3-0.7-2.1-0.8-0.1-0.4-0.3-0.5-0.7-0.5z"></path><path fill="#c2c2c2" d="m12.7 25.7h-0.3c0-0.1-0.1-0.2-0.2-0.2 0.2-0.1 0.5-0.1 0.8 0-0.1 0-0.2 0.1-0.3 0.2z"></path><path fill="#d7d7d7" d="m19.6 25.1h0.3v0.1c-0.3 0.1-0.7 0.1-1 0.2-0.1 0.3-0.3 0.4-0.7 0.4 0.3-0.5 0.8-0.7 1.4-0.7z"></path><path fill="#c9c9c9" d="m19.9 25.2c0.2 0 0.5 0 0.7 0.2 0 0.1-0.1 0.2-0.1 0.3-0.5 0-0.9 0.1-1.3 0.1-0.2 0-0.3-0.2-0.3-0.4 0.3-0.1 0.7-0.1 1-0.2z"></path><path fill="#f4f4f4" d="m21.7 25.5c0 0.3-0.1 0.5-0.4 0.5-0.7 0-1.3 0.2-1.8 0.7-0.2 0.1-0.4 0.1-0.6 0.1 0.1-0.1 0.3-0.2 0.4-0.2 0.1-0.1 0.2-0.2 0.2-0.4v-0.1c0.5 0 0.9-0.1 1.4-0.3 0.2-0.2 0.5-0.2 0.8-0.3z"></path><path fill="#e9e9e9" d="m10.5 25.4v-0.2h0.4c0.2 0.2 0.5 0.3 0.7 0.5 0.8 0.1 1.5 0.4 2.1 0.8l0.6 0.3h-0.9c-0.2-0.2-0.5-0.4-0.8-0.6-0.7-0.2-1.4-0.5-2.1-0.8z"></path><path fill="#dedede" d="m15.5 25.7h0.2c-0.2 0.2-0.5 0.3-0.9 0.2v-0.1c0.3 0 0.5 0 0.7-0.1z"></path><path fill="#dbdbdb" d="m20.5 25.7h0.1l-1.1 0.4v0.1c-0.3 0.2-0.6 0.3-0.9 0.3h-0.2c0.1-0.2 0.4-0.3 0.7-0.3 0.1-0.1 0.1-0.3 0.1-0.4 0.4 0 0.8-0.1 1.3-0.1z"></path><path fill="#e6e6e6" d="m20.7 25.5h0.3l-0.1 0.3c-0.5 0.2-0.9 0.3-1.4 0.3l1.1-0.4c0.1 0 0.1-0.1 0.1-0.2z"></path><path fill="#cdcdcd" d="m15.7 25.7h0.3c-0.1 0.2-0.2 0.4-0.3 0.7 0 0.3 0.2 0.6 0.5 0.7h0.7v0.1c-0.4 0-0.9 0-1.4-0.1 0 0-0.1-0.1-0.1-0.2 0-0.1 0-0.2-0.1-0.3-0.3-0.1-0.6-0.1-0.9-0.1h-0.3c-0.1-0.1-0.2-0.2-0.4-0.1v-0.5h1.1c0.4 0.1 0.7 0 0.9-0.2z"></path><path fill="#c4c4c4" d="m14 26.2c0.3-0.2 0.6-0.2 1 0-0.3 0.1-0.7 0.1-1 0z"></path><path fill="#ccc" d="m16.4 24c-0.1 0.6 0 1.1 0.1 1.7 0.1 0.5 0.4 0.6 0.9 0.4l0.8-0.3c0.4 0 0.6-0.1 0.7-0.4 0 0.2 0.1 0.4 0.3 0.4 0 0.1 0 0.3-0.1 0.4-0.3 0-0.6 0.1-0.7 0.3h-1.3c0 0.2-0.1 0.4-0.2 0.6h-0.7c0.1-0.1 0.3-0.2 0.5-0.2-0.4-1-0.5-1.9-0.3-2.9z"></path><path fill="#d8d8d8" d="m16.5 25.7h0.2c0.5 0.1 1 0.1 1.5 0.1l-0.8 0.3c-0.5 0.2-0.8 0.1-0.9-0.4z"></path><path fill="#c2c2c2" d="m17.4 26.1c0.3 0 0.7 0 1.1 0.1-0.4 0.2-0.8 0.2-1.1-0.1z"></path><path fill="#f5f5f5" d="m12.6 26.2c0.3 0.2 0.6 0.4 0.8 0.6-0.4 0.1-0.7-0.1-0.8-0.6z"></path><path fill="#d4d4d4" d="m14.4 26.5c0.3 0 0.6 0 0.9 0.1 0.1 0.1 0.1 0.2 0.1 0.3-0.3-0.1-0.7-0.3-1-0.4z"></path><path fill="#ededed" d="m19.5 26.2c0 0.2-0.1 0.3-0.2 0.4-0.1 0-0.3 0.1-0.4 0.2h-0.8l0.5-0.3c0.3 0 0.6-0.1 0.9-0.3z"></path><path fill="#fefffe" d="m3 26.6c-0.1 0.1-0.1 0.1 0 0z" opacity=".02"></path><path fill="#dfdfdf" d="m13.7 26.5h0.7c0.3 0.1 0.7 0.3 1 0.4 0 0.1 0.1 0.2 0.1 0.2 0.5 0.1 1 0.1 1.4 0.1-0.3 0.1-0.7 0.2-1.1 0.2h-0.4c-0.2-0.3-0.5-0.5-0.8-0.6h-0.3l-0.6-0.3z"></path><path fill="#d5d5d5" d="m17.9 26.5c-0.3 0.2-0.6 0.4-1 0.6 0.1-0.2 0.2-0.4 0.2-0.6h0.8z"></path><path fill="#e9e9e9" d="m14.6 26.8c0.3 0.1 0.6 0.3 0.8 0.6-0.4-0.1-0.7-0.3-0.8-0.6z"></path><path fill="#e0e0e0" d="m17.9 26.5h0.7l-0.5 0.3-1.2 0.4v-0.1c0.4-0.2 0.7-0.4 1-0.6z"></path><path fill="#f5f5f5" d="m13.9 26.8h0.7c0.1 0.3 0.4 0.5 0.8 0.6h0.4c0.4 0.1 0.8 0.1 1.3 0.1-0.8 0.2-1.6 0.1-2.4-0.1-0.3-0.2-0.6-0.4-0.8-0.6z"></path><path fill="#f6f6f6" d="m18.1 26.9c-0.1 0.5-0.4 0.7-0.9 0.6 0.3-0.1 0.6-0.3 0.9-0.6z"></path><path fill="#ededed" d="m18.1 26.8v0.1c-0.3 0.3-0.6 0.5-0.9 0.6h-0.1c-0.5 0-0.9 0-1.3-0.1 0.4 0 0.8-0.1 1.1-0.2l1.2-0.4z"></path><path fill="#fefffe" d="m7.4 31.7c-0.1 0.1-0.1 0.1 0 0z m1.8 1.1c-0.1 0.1-0.1 0.1 0 0z" opacity=".02"></path></svg>