<?xml version="1.0"?><svg xmlns="http://www.w3.org/2000/svg" width="36" height="36" shape-rendering="geometricPrecision" text-rendering="geometricPrecision" image-rendering="optimizeQuality" fill-rule="evenodd" clip-rule="evenodd" viewBox="0 0 36 36"><path fill="#fefefe" d="m-0.1-0.1h36v36h-36v-36z"></path><path fill="#e5e5e5" d="m0.4 8.9c5.8 0 11.7-0.1 17.5-0.1 5.9 0 11.8 0.1 17.6 0.3-0.1-0.1-0.3-0.2-0.5-0.2h-34.6z"></path><path fill="#99a7a0" d="m0.4 8.9h34.6v0.2h-25.2c-3.1-0.1-6.3 0-9.4 0.1-0.1 5.8-0.2 11.6-0.1 17.4v0.1c-0.1-2.9-0.1-5.9-0.1-8.9 0-3 0-5.9 0.2-8.9z"></path><path fill="#768b81" d="m0.4 9.2c3.1-0.1 6.3-0.2 9.4-0.1l-4.3 0.2h-1.3v0.3c0.4 0 0.8 0 1.3 0.1-0.5 0.1-1.1 0.1-1.6 0 0-0.3-0.2-0.5-0.5-0.5-0.9 0.1-1.7 0.1-2.6 0.1h-0.1c0-0.1-0.2-0.2-0.3-0.1z"></path><path fill="#667f73" d="m9.8 9.1h25.2c0.2-0.1 0.2 0 0.3 0.1v0.2h-0.1c-9.9-0.1-19.7-0.2-29.6-0.1h-0.1l4.3-0.2z"></path><path fill="#6a8a7b" d="m5.6 9.3c9.9-0.1 19.7 0 29.6 0.1-3.4 0-6.7 0-10.1 0.1 2.9 0 5.6 0.2 8.4 0.3h-10.5c-0.2 0-0.4 0.1-0.4 0.3-0.2 0-0.2 0.1-0.3 0.2-0.2-0.1-0.2-0.2-0.2-0.5 0.4-0.1 0.8-0.3 1.2-0.3-5.8-0.1-11.7-0.1-17.5 0-0.1 0-0.2-0.1-0.2-0.2z"></path><path fill="#94aca0" d="m5.3 9.3c0.1 0.1 0.2 0.3 0.2 0.4-0.5-0.1-0.9-0.1-1.3-0.1v-0.3h1.1z"></path><path fill="#6f9082" d="m5.3 9.3h0.3c0 0.1 0.1 0.2 0.2 0.2 5.8-0.1 11.7-0.1 17.5-0.1-0.4 0.1-0.8 0.3-1.2 0.4h-0.8c-3.2-0.1-6.4-0.1-9.7 0l-0.2 0.3c-0.2-0.2-0.4-0.3-0.7-0.3-0.2 0.1-0.5 0.1-0.7 0.2-1.5-0.3-3-0.3-4.5-0.3 0-0.1-0.1-0.3-0.2-0.4z"></path><path fill="#719382" d="m35.2 9.4h0.1v2.2h-0.1c-0.2 0.2-0.2 0.5-0.2 0.7-0.1-0.1-0.2-0.3-0.2-0.6 0.1-0.7 0.1-1.4 0-2.1-0.2 0-0.3 0.1-0.3 0.2h-1c-2.8-0.1-5.5-0.3-8.4-0.3 3.4-0.1 6.7-0.1 10.1-0.1z"></path><path fill="#98aca3" d="m3.9 9.7c-0.1 0-0.1 0.1-0.1 0.1-0.1 0.8-0.2 1.5-0.1 2.3v0.7h-0.2v-3c-0.3 0-0.6 0-0.9 0.2-0.2 0.2-0.4 0.5-0.6 0.7h-0.1c0-0.2 0.1-0.4 0.3-0.5 0.1-0.1 0.3-0.2 0.3-0.4-0.5-0.1-1.1-0.2-1.7-0.1-0.1-0.2-0.1-0.3 0-0.4 0.9 0 1.7 0 2.6-0.1 0.3 0 0.5 0.2 0.5 0.5z"></path><path fill="#5b7367" d="m3.9 9.7c0.5 0.1 1.1 0.1 1.6 0 1.5 0 3 0 4.5 0.3v0.2c-0.4 0.2-0.6 0.5-0.7 0.9-0.3 0.1-0.3 0.2-0.2 0.4h-5.3v-1.7c0 0 0-0.1 0.1-0.1z"></path><path fill="#5a7366" d="m23.1 9.8h10.1v0.3c-0.2 0.1-0.4 0.4-0.5 0.6-0.2 0.1-0.3 0.2-0.4 0.4-0.2 0.1-0.3 0.3-0.3 0.5 0.1 0.1 0.2 0.2 0.3 0.2-0.1 0.1-0.3 0.1-0.5 0.1-0.2-0.1-0.4-0.2-0.6-0.4-1.5-0.1-3-0.1-4.5 0 0 0-0.1 0.1-0.1 0.1-1.1 0.1-2.2 0-3.3-0.2 0.2 0 0.2-0.1 0.3-0.2 0.1-0.2 0.2-0.4 0.3-0.6 0.4-0.2 0.5-0.1 0.3 0.3-0.1 0.1-0.2 0.3-0.2 0.5 0.2 0 0.4 0 0.5-0.2 0.1-0.3 0.2-0.5 0.4-0.7 0.2 0 0.4 0.1 0.5 0.2-0.2 0.2-0.4 0.4-0.4 0.7 0.4 0.1 0.7 0 1-0.1-0.1-0.1-0.2-0.2-0.3-0.3h0.6v-0.5h0.3v-0.3c-0.3-0.1-0.6 0-0.9 0.1-0.8-0.1-1.7-0.1-2.6-0.1v-0.4z"></path><path fill="#6c8a7b" d="m0.7 9.3h0.1c-0.1 0.1-0.1 0.2 0 0.4 0.6-0.1 1.2 0 1.7 0.1 0 0.2-0.2 0.3-0.3 0.4-0.1-0.2-0.2-0.3-0.4-0.4-0.3 0.1-0.5 0.2-0.8 0.2 0 0.2-0.1 0.4-0.2 0.6 0.2 0.2 0.3 0.5 0.4 0.7v0.5c-0.4-0.1-0.5 0.1-0.6 0.4 0.1 0.4 0.2 0.8 0.2 1.2 0 1.4 0 2.7 0 4 0 0.8 0 1.6-0.2 2.3-0.1-3.4-0.1-6.8 0-10.3 0-0.1 0.1-0.1 0.1-0.1z"></path><path fill="#bcc3c0" d="m11.4 10.1h-0.1c-0.1-0.1-0.2-0.2-0.3-0.1 0 0.2-0.1 0.3-0.3 0.4 0-0.3-0.2-0.3-0.4-0.1 0-0.3-0.2-0.3-0.3-0.1v-0.2c0.2-0.1 0.5-0.1 0.7-0.2 0.3 0 0.5 0.1 0.7 0.3z"></path><path fill="#96a19b" d="m13.1 10.3v-0.1c0.8-0.1 1.6 0 2.4 0.1h-1.8c-0.1 0.3-0.2 0.6-0.4 0.9-0.1 0-0.2-0.1-0.2-0.2 0.1-0.2 0.2-0.4 0.3-0.6-0.1-0.1-0.2-0.1-0.3-0.1z"></path><path fill="#96a29b" d="m23 9.8h0.1v0.4c0.9 0 1.8 0 2.6 0.1-0.1 0.1-0.2 0.3-0.3 0.4-0.1-0.1-0.3-0.2-0.5-0.2 0-0.1-0.1-0.2-0.2-0.2-0.4 0-0.7 0-1 0.1-0.1 0.2-0.3 0.4-0.4 0.6-0.1 0-0.2 0.1-0.3 0.2-0.1-0.1-0.1-0.1-0.1-0.2 0.1-0.2 0.3-0.4 0.4-0.6 0-0.1-0.2-0.1-0.3-0.1v-0.5z"></path><path fill="#aeb9b3" d="m21.3 9.8h0.8c0 0.3 0 0.4 0.2 0.5 0 0.1-0.2 0.1-0.3 0.1v-0.4c-0.4 0-0.8 0.2-1 0.5l0.3-0.7z"></path><path fill="#b7c1bc" d="m23.7 10.4c0.3-0.1 0.6-0.1 1-0.1-0.1 0.2-0.2 0.4-0.5 0.6 0.2-0.4 0.1-0.5-0.3-0.3 0-0.1-0.1-0.2-0.2-0.2z"></path><path fill="#95a19b" d="m15.7 10.3c0.7 0 1.4-0.1 2.1-0.1 0.1 0.1 0 0.2-0.1 0.3-0.1-0.2-0.2-0.2-0.4-0.2-0.1 0.3-0.2 0.5-0.4 0.8-0.2 0.2-0.3 0.1-0.3-0.1 0.2-0.2 0.2-0.4 0.2-0.6-0.2 0-0.4 0.1-0.5 0.3 0-0.1-0.1-0.1-0.2-0.2-0.1 0.1-0.2 0.1-0.3 0.1 0.1-0.1 0.3-0.2 0.5-0.2-0.2-0.1-0.4-0.1-0.6-0.1z"></path><path fill="#b2bdb7" d="m33.2 10.1c-0.1 0.3-0.2 0.5-0.5 0.6 0.1-0.2 0.3-0.5 0.5-0.6z"></path><path fill="#788b83" d="m11.6 9.8c0.5 0.2 1 0.4 1.5 0.4v0.1c-0.1 0.1-0.2 0.3-0.2 0.4-0.2 0.2-0.4 0.3-0.5 0.6 0.7 0.1 1.5 0.2 2.2 0.1v0.2c-1.2 0-2.4 0-3.6 0l0.1-0.2c-0.4 0.1-0.7 0.2-1 0.4-0.1-0.1-0.2-0.1-0.3-0.2 0.1-0.1 0.2-0.1 0.4-0.1v-0.4c0.1 0.1 0.1 0.2 0.1 0.3h0.3c0.2-0.4 0.4-0.9 0.7-1.3h0.1l0.2-0.3z"></path><path fill="#a9b4ae" d="m12.7 10.5c-0.1-0.2-0.2-0.2-0.4-0.1 0 0.1-0.1 0.2-0.2 0.3 0-0.2 0-0.3-0.2-0.2-0.1-0.2-0.2-0.3-0.4-0.1 0.4-0.2 0.8-0.3 1.3-0.2 0 0.1 0 0.2-0.1 0.3z"></path><path fill="#556a5f" d="m2.2 10.2c-0.2 0.1-0.3 0.3-0.3 0.5-0.1 0.1-0.2 0.2-0.3 0.4-0.1 0-0.3 0.1-0.4 0.2-0.1-0.2-0.2-0.5-0.4-0.7 0.1-0.2 0.2-0.4 0.2-0.6 0.3 0 0.5-0.1 0.8-0.2 0.2 0.1 0.3 0.2 0.4 0.4z"></path><path fill="#c8ceca" d="m15.5 10.3h0.2c0.2 0 0.4 0 0.6 0.1-0.2 0-0.4 0.1-0.5 0.2l-0.2 0.4c-0.1 0-0.2 0.2-0.1 0.3h-0.4l-0.2-0.1c0.1-0.2 0.2-0.4 0.3-0.6l-0.1-0.2c-0.1 0.1-0.2 0.2-0.3 0.3 0-0.1 0-0.2-0.1-0.3-0.2 0.2-0.3 0.3-0.5 0.5-0.1 0.1-0.1 0.2-0.1 0.4-0.3 0-0.5 0-0.8-0.1 0.2-0.3 0.3-0.6 0.4-0.9h1.8z"></path><path fill="#e1e4e1" d="m14.9 11.2l-0.2 0.1c-0.2 0-0.3 0-0.4-0.1 0.2-0.1 0.4-0.3 0.5-0.5 0.1-0.1 0.2-0.2 0.3-0.3l0.1 0.2c-0.1 0.2-0.2 0.4-0.3 0.6z"></path><path fill="#d7ddda" d="m16.6 11c-0.1 0-0.1 0.2-0.1 0.3-0.2 0-0.3 0-0.4-0.2 0.1-0.1 0.1-0.3 0.2-0.4 0.1-0.2 0.3-0.3 0.5-0.3 0 0.2 0 0.4-0.2 0.6z"></path><path fill="#d9e0dc" d="m17.7 10.5c-0.2 0.2-0.4 0.5-0.4 0.8h-0.1c-0.2 0-0.3-0.1-0.3-0.2 0.2-0.3 0.3-0.5 0.4-0.8 0.2 0 0.3 0 0.4 0.2z"></path><path fill="#d8e1de" d="m11.9 10.5c-0.2 0.1-0.3 0.2-0.4 0.4-0.1 0.2-0.2 0.3-0.4 0.4-0.1-0.1-0.2-0.2-0.1-0.3 0.2-0.2 0.4-0.4 0.5-0.6 0.2-0.2 0.3-0.1 0.4 0.1z"></path><path fill="#86908a" d="m14.8 10.7c-0.1 0.2-0.3 0.4-0.5 0.5-0.1-0.1-0.1-0.2-0.1-0.3 0.2-0.2 0.3-0.3 0.5-0.5 0.1 0.1 0.1 0.2 0.1 0.3z"></path><path fill="#62756d" d="m16.3 10.7c-0.1 0.1-0.1 0.3-0.2 0.4-0.1 0-0.2 0-0.3 0.1-0.2 0-0.2-0.1-0.2-0.2l0.2-0.4c0.1 0 0.2 0 0.3-0.1 0.1 0.1 0.2 0.1 0.2 0.2z"></path><path fill="#c6cec9" d="m19.7 10.3c0.2 0 0.3 0.1 0.3 0.2-0.2 0.2-0.3 0.4-0.5 0.6-0.1-0.3-0.2-0.6-0.3-0.8-0.6 0.3-0.6 0.4 0 0.4v0.5h0.3c0 0.1 0 0.1-0.1 0.1h-0.3c0-0.2 0-0.3-0.1-0.4-0.1 0-0.1 0-0.2 0.1 0 0.1-0.2 0.2-0.3 0.3-0.1 0-0.2 0-0.2-0.1 0.2-0.3 0.4-0.6 0.5-0.9 0.2-0.1 0.4-0.2 0.6-0.1 0 0.4 0.1 0.4 0.3 0.1z"></path><path fill="#e5e7e4" d="m19.5 11.1v0.1h-0.3v-0.5c-0.6 0-0.6-0.1 0-0.4 0.1 0.2 0.2 0.5 0.3 0.8z"></path><path fill="#b7c0bb" d="m22 11.3c-0.1 0.1-0.3 0.1-0.5 0.1 0.1-0.2 0-0.4 0-0.7-0.1 0.1-0.1 0.1-0.2 0.2 0-0.2 0.1-0.3 0.2-0.4 0.2 0.3 0.2 0.5 0.2 0.8h0.3z"></path><path fill="#b8c1bc" d="m23 9.8v0.5c-0.3 0.3-0.4 0.6-0.3 1 0-0.1 0.1-0.2 0.2-0.3 0 0.1 0 0.1 0.1 0.2 0.1-0.1 0.2-0.2 0.3-0.2 0 0.1 0.1 0.2 0.3 0.2-0.1 0.1-0.1 0.2-0.3 0.2h-0.9c-0.1-0.1-0.2-0.1-0.4-0.1 0.3-0.4 0.6-0.8 0.9-1.2-0.1-0.2-0.2-0.2-0.3 0 0-0.2 0.2-0.3 0.4-0.3z"></path><path fill="#dbe0dc" d="m23.7 10.4c0.1 0 0.2 0.1 0.2 0.2-0.1 0.2-0.2 0.4-0.3 0.6-0.2 0-0.3-0.1-0.3-0.2 0.1-0.2 0.3-0.4 0.4-0.6z"></path><path fill="#d2dbd6" d="m25.7 10.3c0.2 0 0.5 0 0.7 0.1-0.1 0-0.2 0-0.4 0v0.5c-0.1-0.1-0.2 0-0.3 0.1-0.1 0-0.1 0.2-0.1 0.3-0.2 0-0.3 0-0.5 0 0.2-0.2 0.3-0.3 0.3-0.6 0.1-0.1 0.2-0.3 0.3-0.4z"></path><path fill="#87998e" d="m25.7 10.3c0.3-0.1 0.6-0.2 0.9-0.1v0.3h-0.3v0.5h-0.6c0.1-0.1 0.2-0.2 0.3-0.1v-0.5c0.2 0 0.3 0 0.4-0.1-0.2 0-0.5 0-0.7 0z"></path><path fill="#e4e5e4" d="m33.2 11.4c-0.1 0-0.2 0-0.3 0 0.4-0.3 0.7-0.5 1.1-0.7 0.1-0.1 0.2-0.2 0.1-0.4-0.4 0-0.7 0.2-0.9 0.7-0.3 0.2-0.5 0.1-0.5-0.3 0.3-0.1 0.4-0.3 0.5-0.6 0.4-0.1 0.7-0.2 1.1-0.1 0 0.3 0 0.6-0.1 1-0.3 0.2-0.6 0.3-1 0.4z"></path><path fill="#e0e2df" d="m3.5 12l-0.9-0.6c-0.2-0.2-0.4-0.4-0.6-0.7 0.2-0.2 0.4-0.5 0.6-0.7 0.3-0.2 0.6-0.2 0.9-0.2v2.2z"></path><path fill="#d3d9d5" d="m11.3 10.1c-0.3 0.4-0.5 0.9-0.7 1.3h-0.3c0-0.1 0-0.2-0.1-0.3-0.1-0.2-0.2-0.2-0.4 0-0.1 0.1-0.2 0.2-0.4 0.2-0.1 0-0.1-0.1-0.1-0.2 0.1-0.4 0.3-0.7 0.7-0.9 0.1-0.2 0.3-0.2 0.3 0.1-0.1 0.1-0.1 0.3-0.1 0.4 0.2 0.1 0.3 0 0.4-0.2 0.1 0 0.1 0 0.1-0.1 0.2-0.1 0.3-0.2 0.3-0.4 0.1-0.1 0.2 0 0.3 0.1z"></path><path fill="#93a29c" d="m10.3 10.3c0 0.2 0.1 0.2 0.3 0.2-0.1 0.2-0.2 0.3-0.4 0.2 0-0.1 0-0.3 0.1-0.4z"></path><path fill="#64746f" d="m10.7 10.4c0 0.1 0 0.1-0.1 0.1-0.2 0-0.3 0-0.3-0.2 0.2-0.2 0.4-0.2 0.4 0.1z"></path><path fill="#dde3e0" d="m12.7 10.5c-0.2 0.3-0.5 0.6-0.7 0.8-0.1 0-0.2 0-0.2-0.1 0-0.2 0.1-0.3 0.3-0.5 0.1-0.1 0.2-0.2 0.2-0.4 0.2 0 0.3 0 0.4 0.2z"></path><path fill="#d9deda" d="m13.1 10.3c0.1 0 0.2 0 0.3 0.1-0.1 0.2-0.2 0.4-0.3 0.6-0.1 0-0.1 0.2-0.1 0.3-0.1 0-0.3 0-0.3-0.1 0.1-0.1 0.2-0.3 0.2-0.5 0-0.1 0.1-0.3 0.2-0.4z"></path><path fill="#d9e3dd" d="m23 10.3c0.1 0 0.3 0 0.3 0.1-0.1 0.2-0.3 0.4-0.4 0.6-0.1 0.1-0.2 0.2-0.2 0.3-0.1-0.4 0-0.7 0.3-1z"></path><path fill="#d8e0db" d="m24.7 10.3c0.1 0 0.2 0.1 0.2 0.2-0.2 0.2-0.3 0.4-0.4 0.7-0.2 0-0.3-0.2-0.3-0.3 0.3-0.2 0.4-0.4 0.5-0.6z"></path><path fill="#788e84" d="m3.8 9.8v1.8c0.2 0.1 0.4 0.2 0.6 0.3 0 0.1-0.2 0.1-0.3 0.2-0.1-0.2-0.3-0.2-0.4 0-0.1-0.8 0-1.5 0.1-2.3z"></path><path fill="#879490" d="m12.1 10.7c-0.2 0.2-0.3 0.3-0.3 0.5-0.2 0-0.3-0.2-0.3-0.3 0.1-0.2 0.2-0.3 0.4-0.4 0.2-0.1 0.2 0 0.2 0.2z"></path><path fill="#9ba9a2" d="m18.8 11c0.1-0.1 0.1-0.1 0.2-0.1 0.1 0.1 0.1 0.2 0.1 0.4h0.3c-0.1 0.1-0.3 0.1-0.4 0.1 0-0.2-0.1-0.3-0.2-0.4z"></path><path fill="#e5e7e4" d="m22.3 10.3c0.1-0.1 0.1-0.2 0.3-0.2 0.1-0.2 0.2-0.2 0.3 0-0.3 0.4-0.6 0.8-0.9 1.2h-0.3c0-0.3 0-0.5-0.2-0.8-0.1 0.1-0.2 0.2-0.2 0.4-0.1 0.1-0.3 0.2-0.3 0.4-0.2 0-0.3 0-0.4-0.2 0.1-0.2 0.2-0.4 0.4-0.6 0.2-0.3 0.6-0.5 1-0.5v0.4c0.1 0 0.3 0 0.3-0.1z"></path><path fill="#85928c" d="m17.8 10.2c0.4 0 0.7 0 1 0.1-0.1 0.3-0.3 0.6-0.5 0.9 0 0.1 0.1 0.1 0.2 0.1-0.2 0-0.4 0-0.6 0 0.1-0.2 0.3-0.5 0.4-0.7 0.1-0.1 0.1-0.2 0-0.3-0.3 0.2-0.5 0.5-0.7 0.9 0.1 0.1 0.1 0.1 0.2 0.1-0.2 0-0.4 0-0.5 0 0-0.3 0.2-0.6 0.4-0.8 0.1-0.1 0.2-0.2 0.1-0.3z"></path><path fill="#d0d7d2" d="m17.9 11.3h-0.1c-0.1 0-0.1 0-0.2-0.1 0.2-0.4 0.4-0.7 0.7-0.9 0.1 0.1 0.1 0.2 0 0.3-0.1 0.2-0.3 0.5-0.4 0.7z"></path><path fill="#5e766c" d="m21.3 9.8l-0.3 0.7c-0.2 0.2-0.3 0.4-0.4 0.6-0.1 0-0.2 0.1-0.2 0.3 0.2 0.1 0.4 0 0.6-0.1 0-0.2 0.2-0.3 0.3-0.4 0.1-0.1 0.1-0.1 0.2-0.2 0 0.3 0.1 0.5 0 0.7 0.2 0 0.4 0 0.5-0.1 0.2 0 0.3 0 0.4 0.1 0.1 0.1 0.1 0.1 0.2 0.2-1.1 0-2 0.1-3 0.3h-0.3v0.3c-0.1-0.1-0.1-0.3-0.1-0.4l-3.4-0.3c0.4 0 0.7 0 1.1 0 0.1-0.1 0.2-0.1 0.3-0.2h0.1c0.1 0 0.3 0 0.5 0h0.1c0.2 0 0.4 0 0.6 0 0.1-0.1 0.3-0.2 0.3-0.3 0.1 0.1 0.2 0.2 0.2 0.4 0.1 0 0.3 0 0.4-0.1 0.1 0 0.1 0 0.1-0.1v-0.1c0.2-0.2 0.3-0.4 0.5-0.6 0.1 0 0.2-0.1 0.2-0.3-0.2 0-0.3 0-0.5 0.1-0.2 0.3-0.3 0.3-0.3-0.1-0.2-0.1-0.4 0-0.6 0.1-0.3-0.1-0.6-0.1-1-0.1-0.7 0-1.4 0.1-2.1 0.1h-0.2c-0.8-0.1-1.6-0.2-2.4-0.1-0.5 0-1-0.2-1.5-0.4 3.3-0.1 6.5-0.1 9.7 0z"></path><path fill="#8b9f95" d="m19.7 10.3c0.2-0.1 0.3-0.1 0.5-0.1 0 0.2-0.1 0.3-0.2 0.3 0-0.1-0.1-0.2-0.3-0.2z"></path><path fill="#a2b1aa" d="m24.2 10.9c0 0.1 0.1 0.3 0.3 0.3-0.1 0.2-0.3 0.2-0.5 0.2 0-0.2 0.1-0.4 0.2-0.5z"></path><path fill="#899991" d="m9.3 11.1c0 0.1 0 0.2 0.1 0.2 0.2 0 0.3-0.1 0.4-0.2v0.3c-0.1 0-0.3 0-0.4 0.1h-0.3c-0.1-0.2-0.1-0.3 0.2-0.4z"></path><path fill="#b8c3be" d="m11.5 10.9c0 0.1 0.1 0.3 0.3 0.3 0 0.1 0.1 0.1 0.2 0.1-0.3 0.1-0.6 0.2-0.9 0.1v-0.1c0.2-0.1 0.3-0.2 0.4-0.4z"></path><path fill="#b3bbb7" d="m12.9 10.7c0 0.2-0.1 0.4-0.2 0.5 0 0.1 0.2 0.1 0.3 0.1 0-0.1 0-0.3 0.1-0.3 0 0.1 0.1 0.2 0.2 0.2 0.3 0.1 0.5 0.1 0.8 0.1 0-0.2 0-0.3 0.1-0.4 0 0.1 0 0.2 0.1 0.3 0.1 0.1 0.2 0.1 0.4 0.1v0.1h-0.1c-0.7 0.1-1.5 0-2.2-0.1 0.1-0.3 0.3-0.4 0.5-0.6z"></path><path fill="#afb9b4" d="m15.6 11c0 0.1 0 0.2 0.2 0.2 0.1-0.1 0.2-0.1 0.3-0.1 0.1 0.2 0.2 0.2 0.4 0.2 0-0.1 0-0.3 0.1-0.3 0 0.2 0.1 0.3 0.3 0.1 0 0.1 0.1 0.2 0.3 0.2-0.1 0.1-0.2 0.1-0.3 0.2-0.4 0-0.7 0-1.1 0-0.3 0.1-0.5 0-0.7-0.2h0.4c-0.1-0.1 0-0.3 0.1-0.3z"></path><path fill="#9aa7a1" d="m20.6 11.1c0.1 0.2 0.2 0.2 0.4 0.2-0.2 0.1-0.4 0.2-0.6 0.1 0-0.2 0.1-0.3 0.2-0.3z"></path><path fill="#adb9b3" d="m25.4 10.7c0 0.3-0.1 0.4-0.3 0.6 0.2 0 0.3 0 0.5 0 0-0.1 0-0.3 0.1-0.3 0.1 0.1 0.2 0.2 0.3 0.3-0.3 0.1-0.6 0.2-1 0.1 0-0.3 0.2-0.5 0.4-0.7z"></path><path fill="#647e73" d="m10.2 11.1v0.4c-0.2 0-0.3 0-0.4 0.1l-0.2-0.1h-0.2c0.1-0.1 0.3-0.1 0.4-0.1v-0.3c0.2-0.2 0.3-0.2 0.4 0z"></path><path fill="#698a7a" d="m31.2 11.5c-1.5 0-3.1 0-4.6 0.1 0 0 0.1-0.1 0.1-0.1 1.5-0.1 3-0.1 4.5 0z"></path><path fill="#d5d8d6" d="m33.2 11.4v0.1c-0.3 0.1-0.6 0-1-0.1 0.1-0.1 0.1-0.2 0.1-0.3 0.1-0.2 0.2-0.3 0.4-0.4 0 0.4 0.2 0.5 0.5 0.3 0.2-0.5 0.5-0.7 0.9-0.7 0.1 0.2 0 0.3-0.1 0.4-0.4 0.2-0.7 0.4-1.1 0.7 0.1 0 0.2 0 0.3 0z"></path><path fill="#b9bdba" d="m33.2 9.8h1.3c0 1 0 1.9-0.1 2.7v-1.1c-0.3 0.1-0.6 0.2-0.9 0.4 0-0.2-0.1-0.3-0.3-0.3v-0.1c0.4-0.1 0.7-0.2 1-0.4 0.1-0.4 0.1-0.7 0.1-1-0.4-0.1-0.7 0-1.1 0.1v-0.3z"></path><path fill="#c6cac6" d="m1.9 10.7h0.1c0.2 0.3 0.4 0.5 0.6 0.7-0.4 0.3-0.8 0.3-1.3 0.1 0.1-0.1 0.2-0.3 0.3-0.4 0.1-0.2 0.2-0.3 0.3-0.4z"></path><path fill="#334a3e" d="m3.8 11.6v-0.1h5.8c-0.8 0.1-1.7 0.2-2.6 0.2-0.1 0.1-0.1 0.2-0.1 0.4h-0.3c0-0.1 0-0.2 0.1-0.3-1-0.2-2-0.2-2.9-0.2z"></path><path fill="#3e574c" d="m14.6 11.4h0.1c0.1 0 0.2 0 0.2 0.1-0.1 0.1-0.2 0.2-0.3 0.1v-0.2z"></path><path fill="#709884" d="m14.9 11.2l0.2 0.1c0.2 0.2 0.4 0.3 0.7 0.2l3.4 0.3c-2.8 0-5.6 0-8.5 0 0.1-0.1 0.2-0.2 0.3-0.2 1.2 0 2.4 0 3.6 0 0.1 0.1 0.2 0 0.3-0.1 0-0.1-0.1-0.1-0.2-0.1v-0.1l0.2-0.1z"></path><path fill="#7fa993" d="m19.2 11.8c0 0.1 0 0.3 0.1 0.4h0.3c2 0 4 0 6 0.1-1.6 0.1-3.3 0.2-5 0.1 0 0.2 0.1 0.3 0.2 0.4v0.1c0.6 0 1.4 0 2.1 0 0 0.2 0 0.3 0.1 0.5 0.2 0.1 0.5 0.2 0.8 0.3 0.1-0.1 0.2 0 0.2 0.1-1 0.1-2.1 0.1-3.2 0.1-0.1 0.2 0 0.3 0.1 0.4 1.9 0 3.9 0 5.8 0.1 0.2 0.1 0.4 0.2 0.5 0.4-1.2 0.1-2.3 0.1-3.4 0.1h-0.3c-0.1 0.1-0.2 0.3-0.2 0.5 0.6-0.1 1.2 0 1.7 0.3 0.2 0.1 0.4 0.1 0.6 0.1 0.9 0 1.8 0 2.7 0.1v0.2h-0.3c-0.7-0.1-1.3-0.1-2 0-0.3 0-0.6 0.1-0.9 0.3 0.2 0.4 0.2 0.7 0.2 1.1v-0.3c-0.2-0.1-0.3 0-0.4 0-0.1 0.3-0.3 0.5-0.4 0.7v-0.3h-2.4c0 0.2 0 0.3 0.1 0.3h2.2c-0.2 0.2-0.2 0.4 0 0.6h-3.4c0 0.2 0 0.3 0.1 0.3h2.8c0 0.2 0 0.4 0.1 0.5h0.4c0.7 0 1.3 0 2 0.1 0.1 0.2 0.3 0.2 0.6 0.2 0.5-0.1 1-0.2 1.5-0.3 0.7-0.1 1.4 0 2 0.3h0.2c0 0.1 0.1 0.2 0.3 0.1 0 0.4 0 0.7 0.1 0.9v0.4h-1.1c0 0.1 0 0.3 0.1 0.4 0.4 0 0.7 0.1 1.1 0.1-0.7 0.2-1.4 0.2-2.1 0.2h-0.5c-0.1 0-0.1 0.1-0.1 0.3h-2.8c-0.3-0.1-0.7-0.2-1-0.2-0.2 0.4 0 0.6 0.4 0.6-0.3 0.1-0.7 0-1-0.2-0.1-0.2-0.1-0.4 0.1-0.5l-0.1-0.2c-0.2 0.3-0.5 0.4-0.8 0.4 0.1-0.1 0-0.2 0-0.4-0.5 0.1-1 0.1-1.4 0-0.3 0.3-0.4 0.6-0.4 0.9h1.2c-0.3 0.3-0.6 0.5-0.9 0.8l-1.3 0.3c0 0.1-0.1 0.2-0.2 0.2-1.2 0.1-2.4 0.1-3.6 0.1 0-0.2 0-0.3-0.1-0.3l-6.2-0.3c0.4-0.1 0.7-0.1 1.1-0.1h3.7v-0.3c-0.7 0-1.5 0-2.2-0.1 0-0.2 0-0.3-0.1-0.4-0.4-0.1-0.7-0.2-0.9-0.4 0-0.1-0.1-0.1-0.1-0.2 1.1-0.1 2.1-0.1 3.2 0.1 0.1-0.2 0-0.4-0.1-0.5-0.1-0.1-0.2-0.1-0.3-0.1 0.1-0.1 0.3-0.2 0.4-0.3-0.3-0.1-0.5 0-0.7 0.2-0.3-0.1-0.6-0.1-1-0.1 0-0.2 0-0.4-0.1-0.6-0.1 0.2-0.3 0.3-0.5 0.2 0-0.2-0.1-0.4-0.3-0.6 0.2-0.4 0.3-0.8 0.4-1.2-0.3 0-0.6 0-0.8 0.2-0.1 0-0.1 0-0.1 0.1h-0.2c0-0.1-0.1-0.1-0.2-0.1-0.1-0.2-0.3-0.2-0.5-0.2-0.2-0.6 0-0.8 0.6-0.5 0.2-0.1 0.3-0.2 0.4-0.4 0.6 0 1.2 0.1 1.8 0.2 0-0.2 0-0.4-0.1-0.6 0-0.1-0.1-0.1-0.2-0.1-0.5 0.1-1.1 0.1-1.6 0.1v-0.3c0.2-0.1 0.3-0.2 0.5-0.2h2.5v-0.4c-0.9 0.1-1.8 0-2.7-0.2v-0.5h0.5c0-0.2 0-0.5-0.1-0.8-0.2-0.1-0.4-0.1-0.6-0.1 0.2-0.8-0.1-1.1-0.9-0.9-0.1-0.2-0.1-0.4-0.1-0.7h-0.5v-0.4h-3v-0.3c0-0.1 0-0.2 0.1-0.2-0.2-0.1-0.4-0.1-0.6-0.1v-0.4h2.5l1.1 0.5c1 0.2 2 0.2 3.1 0.2v-0.6c-0.2 0-0.3 0-0.4 0.1-0.9 0-1.9 0-2.9 0-0.1-0.3-0.1-0.4 0.2-0.4 2.9 0 5.7 0 8.5 0z"></path><path fill="#6f9281" d="m22.4 11.4h0.9c1.1 0.2 2.2 0.3 3.3 0.2l1.9 0.3h-8.9c1-0.2 1.9-0.3 3-0.3-0.1-0.1-0.1-0.1-0.2-0.2z"></path><path fill="#889d91" d="m1.6 11.1c-0.1 0.1-0.2 0.3-0.3 0.4 0.5 0.2 0.9 0.2 1.3-0.1 0.1 1 0.1 2 0 3.1h0.9c0.1-0.6 0.1-1.2 0.2-1.7 0.1 0 0.1 0.1 0.1 0.2-0.1 0.5-0.1 1-0.1 1.6h-1.2v-0.5c0.1-0.4 0-0.8-0.1-1.2v-1c-0.4 0-0.8 0-1.2-0.1v-0.5c0.1-0.1 0.3-0.2 0.4-0.2z"></path><path fill="#7fa894" d="m31.2 11.5c0.2 0.2 0.4 0.3 0.6 0.4 0.2 0 0.4 0.1 0.5 0.3 0 0.2-0.2 0.3-0.3 0.4-0.3 0-0.5 0-0.8 0.1-0.1 0-0.1 0.1-0.1 0.3-0.5 0-1-0.1-1.5-0.1l-1.1-1-1.9-0.3c1.5-0.1 3.1-0.1 4.6-0.1z"></path><path fill="#e6e6e6" d="m34.4 12.5c-0.3 0.3-0.6 0.4-0.9 0.5v-1.2c0.3-0.2 0.6-0.3 0.9-0.4v1.1z"></path><path fill="#6c8b7b" d="m1.2 11.8c0.4 0.1 0.8 0.1 1.2 0.1v1c-0.4-0.2-0.8-0.4-1.1-0.7-0.1-0.2-0.1-0.3-0.1-0.4z"></path><path fill="#4f7362" d="m19.6 11.9h8.9l1.1 1c-0.2 0-0.2 0.2 0 0.4-0.4 0.1-0.9 0.2-1.4 0.1v-0.4c0.3 0 0.7 0 1-0.1-0.2-0.3-0.5-0.6-0.8-0.7-0.7-0.1-1.5-0.1-2.2 0-0.3 0.2-0.5 0.4-0.8 0.6-0.1 0.1 0 0.1 0.1 0.2l0.5 0.3c0.6 0 1.2 0 1.7 0 0-0.1 0-0.2 0.1-0.3 0 0.1 0.1 0.2 0.2 0.3-0.7 0.1-1.3 0.2-2 0.3-0.4-0.2-0.9-0.4-1.3-0.7 0-0.1-0.1-0.1-0.1-0.2-1.3-0.1-2.6 0-3.8 0.2v-0.1c-0.1-0.1-0.2-0.2-0.2-0.4 1.7 0.1 3.4 0 5-0.1 0.1 0 0.1 0 0.1-0.1-2-0.1-4.1-0.1-6.1 0h-0.3v-0.3h0.3z"></path><path fill="#6c8f7e" d="m32 11.6h1.1c-0.1 0.2-0.3 0.2-0.5 0.2 0 0.2-0.1 0.3-0.3 0.4-0.1-0.2-0.3-0.3-0.5-0.3 0.2 0 0.4 0 0.5-0.1-0.1 0-0.2-0.1-0.3-0.2z"></path><path fill="#6a907e" d="m19.6 12.2c2-0.1 4.1-0.1 6.1 0 0 0.1 0 0.1-0.1 0.1-2-0.1-4-0.1-6-0.1z"></path><path fill="#a4b2aa" d="m32.3 11.1c0 0.1 0 0.2-0.1 0.3 0.4 0.1 0.7 0.2 1 0.1 0.2 0 0.3 0.1 0.3 0.3v2.7h0.9v-1.3c0.1 0.4 0.1 0.9 0.1 1.4-0.4 0-0.8 0-1.1-0.3v-2.3c0-0.2-0.1-0.3-0.3-0.4h-1.1c0-0.2 0.1-0.4 0.3-0.5z"></path><path fill="#7ca290" d="m9.6 12h-2.5v0.4c0.2 0 0.4 0 0.6 0.1-0.1 0-0.1 0.1-0.1 0.2h-0.1c-0.1-0.1-0.2-0.2-0.4-0.2-0.9 0.1-1.9 0-2.8-0.2 0.7-0.2 1.5-0.3 2.3-0.2 0.1 0.1 0.3 0.1 0.4 0.1v-0.3c0.9-0.1 1.8 0 2.6 0.1z"></path><path fill="#4f6d5e" d="m11.1 11.4l-0.1 0.2c-0.1 0-0.2 0.1-0.3 0.2-0.3 0-0.3 0.1-0.2 0.4 1 0 2 0 2.9 0 0.2 0 0.3 0.2 0.3 0.3h-3l-1.1-0.5c-0.8-0.1-1.7-0.2-2.6-0.1v0.3c-0.1 0-0.3 0-0.4-0.1h0.3c0-0.2 0-0.3 0.1-0.4 0.9 0 1.8-0.1 2.6-0.2l0.2 0.1c0.1 0.1 0.2 0.1 0.3 0.2 0.3-0.2 0.6-0.3 1-0.4z"></path><path fill="#6a8776" d="m4.3 12.3c0.9 0.2 1.9 0.3 2.8 0.2-0.8 0.2-1.7 0.2-2.7 0.2-0.4-0.1-0.4-0.2-0.1-0.4z"></path><path fill="#678e79" d="m13.4 12.2c0.1-0.1 0.2-0.1 0.4-0.1v0.6c-1.1 0-2.1 0-3.1-0.2h3c0-0.1-0.1-0.3-0.3-0.3z"></path><path fill="#a9b6ad" d="m35 9.1v-0.2c0.2 0 0.4 0.1 0.5 0.2 0 5.9 0 11.8-0.1 17.6 0-5.9 0-11.7-0.1-17.5-0.1-0.1-0.1-0.2-0.3-0.1z"></path><path fill="#2e4838" d="m7.1 12.5c0.2 0 0.3 0.1 0.4 0.2 0 0.1-0.1 0.3-0.2 0.3l-0.3-0.1-2.6-0.2c1 0 1.9 0 2.7-0.2z"></path><path fill="#213328" d="m20.8 12.8c0-0.3 0.1-0.3 0.3-0.1-0.1 0.1-0.2 0.1-0.3 0.1z"></path><path fill="#6f9783" d="m24.7 12.9c-0.4-0.1-0.8 0-1.1 0.2-0.2-0.1-0.3-0.1-0.5 0 0.3 0.2 0.5 0.4 0.7 0.6-0.3-0.1-0.6-0.2-0.8-0.3-0.1-0.2-0.1-0.3-0.1-0.5-0.7 0-1.5 0-2.1 0 1.2-0.2 2.5-0.3 3.8-0.2 0 0.1 0.1 0.1 0.1 0.2z"></path><path fill="#1e3c2c" d="m31.2 12.7h0.4v0.4h-0.4v-0.4z"></path><path fill="#7fa792" d="m28.2 13h-0.4c-0.1 0.1-0.1 0.2-0.1 0.3-0.5 0-1.1 0-1.7 0l-0.5-0.3c-0.1-0.1-0.2-0.1-0.1-0.2 0.3-0.2 0.5-0.4 0.8-0.6 0.7-0.1 1.5-0.1 2.2 0 0.3 0.1 0.6 0.4 0.8 0.7-0.3 0.1-0.7 0.1-1 0.1z"></path><path fill="#567e6a" d="m31.2 12.7v0.4c0.1 0.1 0.2 0.2 0.4 0.2-0.1 0.1-0.1 0.1-0.2 0.1-0.4-0.1-0.9-0.1-1.4-0.1 0 0.2 0 0.3-0.1 0.4 0-0.3-0.1-0.6-0.3-0.8 0.5 0 1 0.1 1.5 0.1 0-0.2 0-0.3 0.1-0.3z"></path><path fill="#c0bfbf" d="m34.4 12.5v1.6c-0.1-0.2-0.2-0.4-0.3-0.7-0.2 0.2-0.5 0.4-0.6 0.6v-1c0.3-0.1 0.6-0.2 0.9-0.5z"></path><path fill="#668a7c" d="m9.2 14.1h-0.3c0.1-0.2 0.1-0.4 0-0.7h-1.5c0 0.2 0 0.4-0.1 0.5v-0.3c-1 0-1.9 0-2.9-0.2 1.6-0.1 3.2-0.1 4.8-0.1v0.8z"></path><path fill="#628674" d="m7.6 13h3v0.4h0.5c0 0.3 0 0.5 0.1 0.7 0.8-0.2 1.1 0.1 0.9 0.9 0.2 0 0.4 0 0.6 0.1 0.1 0.3 0.1 0.6 0.1 0.8h-0.5v0.5c-0.1-0.2-0.1-0.4-0.1-0.6 0.4 0 0.5-0.2 0.5-0.6-0.7 0.1-1-0.2-0.8-0.9-0.3 0-0.5 0-0.8-0.1-0.1-0.2-0.2-0.4-0.1-0.6-0.3-0.1-0.5 0-0.7 0.2-0.1 0.1-0.2 0.1-0.3 0.1-0.2 0-0.3-0.1-0.4-0.2v-0.4c0.3 0 0.5 0 0.8 0l-0.2-0.1c-0.9-0.1-1.8-0.1-2.6-0.2z"></path><path fill="#658474" d="m33.4 12v1.3c-0.2 0-0.4 0-0.6-0.1-0.3 0.4-0.6 0.7-0.9 1.1-0.2 0.1-0.4 0-0.6-0.1 0.3-0.3 0.5-0.7 0.7-1.1 0.2-0.3 0.5-0.5 0.8-0.7 0.1-0.1 0.1-0.2 0.1-0.3 0.2 0 0.3 0 0.5-0.1z"></path><path fill="#80a795" d="m10.3 13.8c-0.2 0-0.4-0.1-0.6-0.2 0.2-0.2 0.4-0.2 0.6-0.2v0.4z"></path><path fill="#3d5e4f" d="m29.6 12.9c0.2 0.2 0.3 0.5 0.3 0.8-1.3-0.1-2.6-0.2-3.9-0.1 0.7-0.1 1.3-0.2 2-0.3-0.1-0.1-0.2-0.2-0.2-0.3h0.4v0.4c0.5 0.1 1 0 1.4-0.1-0.2-0.2-0.2-0.4 0-0.4z"></path><path fill="#78a08d" d="m31.4 13.4c0 0.1-0.1 0.2-0.2 0.2-0.3 0.1-0.7 0.1-1 0.1v0.4c-0.3 0.1-0.5 0-0.7-0.2 0.2-0.1 0.3-0.2 0.4-0.2 0.1-0.1 0.1-0.2 0.1-0.4 0.5 0 1 0 1.4 0.1z"></path><path fill="#486659" d="m3.8 11.6c0.9 0 1.9 0 2.9 0.2-0.1 0.1-0.1 0.2-0.1 0.3-0.8-0.1-1.6 0-2.3 0.2-0.3 0.2-0.3 0.3 0.1 0.4l2.6 0.2c-0.9-0.1-1.8 0-2.8 0.1l0.1 0.1c0.5 0.1 1 0.1 1.5 0.1 0.6 0 1-0.1 1.5-0.2 0.1 0 0.2-0.2 0.2-0.3h0.1v0.3c0.8 0.1 1.7 0.1 2.6 0.2l0.2 0.1c-0.3 0-0.5 0-0.8 0v0.4c-0.1-0.1-0.1-0.1-0.2-0.1-0.1 0.2-0.2 0.3-0.2 0.5v-0.8c-1.6 0-3.2 0-4.8 0.1 1 0.2 1.9 0.2 2.9 0.2v0.3c-0.9-0.1-1.7-0.1-2.5 0-0.2 0-0.4 0-0.6-0.1-0.1-0.1-0.1-0.2 0-0.3-0.1-0.1-0.2-0.1-0.3-0.1 0-0.1 0-0.3-0.1-0.4 0-0.1 0-0.2-0.1-0.2v-0.7c0.1-0.2 0.3-0.2 0.4 0 0.1-0.1 0.3-0.1 0.3-0.2-0.2-0.1-0.4-0.2-0.6-0.3z"></path><path fill="#638778" d="m7 12.9l0.3 0.1c-0.5 0.1-0.9 0.2-1.5 0.2-0.5 0-1 0-1.5-0.1l-0.1-0.1c1-0.1 1.9-0.2 2.8-0.1z"></path><path fill="#67907d" d="m24 13.8c0.1 0 0.2 0 0.2 0.1-1.1 0.1-2.2 0.1-3.3 0.1v0.3c-0.1-0.1-0.2-0.2-0.1-0.4 1.1 0 2.2 0 3.2-0.1z"></path><path fill="#729281" d="m35 12.9v1.9c-0.1-0.3-0.2-0.6-0.2-1 0-0.3 0.1-0.6 0.2-0.9z"></path><path fill="#bec0bd" d="m2.6 11.4l0.9 0.6v0.8h0.2c-0.1 0.5-0.1 1.1-0.2 1.7h-0.9c0.1-1.1 0.1-2.1 0-3.1z"></path><path fill="#e5e7e4" d="m3.5 12.8c0.1 0.2 0 0.4-0.1 0.6-0.1-0.2-0.3-0.4-0.5-0.5-0.1-0.3-0.2-0.5-0.1-0.8 0.4 0.1 0.6 0.3 0.7 0.7z"></path><path fill="#233c2f" d="m28.2 14c-0.1 0.1-0.2 0.1-0.4 0.1v-0.3c0.3-0.2 0.4-0.1 0.4 0.2z"></path><path fill="#608171" d="m28.2 14c0.4 0 0.8 0 1.1 0.1-0.5 0.1-1 0.1-1.5 0 0.2 0 0.3 0 0.4-0.1z"></path><path fill="#e4e3e2" d="m34.4 14.1v0.4h-0.9v-0.5c0.1-0.2 0.4-0.4 0.6-0.6 0.1 0.3 0.2 0.5 0.3 0.7z"></path><path fill="#517767" d="m23.6 13.1c0.4 0.3 0.9 0.5 1.3 0.9l1.8 0.1c0.4 0.2 0.8 0.5 1.1 0.8-0.1 0-0.1 0-0.2 0.1-1.3 0.1-2.6 0-3.8-0.1 1.1 0 2.2 0 3.4-0.1-0.1-0.2-0.3-0.3-0.5-0.4-1.9-0.1-3.9-0.1-5.8-0.1v-0.3c1.1 0 2.2 0 3.3-0.1 0-0.1-0.1-0.1-0.2-0.1 0-0.1-0.1-0.2-0.2-0.1-0.2-0.2-0.4-0.4-0.7-0.6 0.2-0.1 0.3-0.1 0.5 0z"></path><path fill="#7da590" d="m24.7 12.9c0.4 0.3 0.9 0.5 1.3 0.7l1.8 0.2v0.3c0.5 0.1 1 0.1 1.5 0 0.1 0.1 0.2 0.2 0.3 0.3-0.2 0.1-0.3 0.2-0.3 0.5h-1.5c-0.3-0.3-0.7-0.6-1.1-0.8l-1.8-0.2c-0.4-0.3-0.9-0.5-1.3-0.8 0.3-0.2 0.7-0.3 1.1-0.2z"></path><path fill="#516f60" d="m33.1 11.6c0.2 0.1 0.3 0.2 0.3 0.4-0.2 0.1-0.3 0.1-0.5 0.1 0 0.1 0 0.2-0.1 0.3-0.3 0.2-0.6 0.4-0.8 0.7-0.2 0.4-0.4 0.8-0.7 1.1v0.3c-0.1 0-0.1 0.1-0.1 0.3-0.4 0-0.7 0-1.1 0.1 0 0.1 0.1 0.2 0.1 0.2-0.7 0-1.5 0-2.2 0-0.1-0.1-0.1-0.1-0.2-0.2h1.5c0-0.3 0.1-0.4 0.3-0.5-0.1-0.1-0.2-0.2-0.3-0.3-0.3-0.1-0.7-0.1-1.1-0.1 0-0.3-0.1-0.4-0.4-0.2l-1.8-0.2c1.3-0.1 2.6 0 3.9 0.1-0.1 0-0.2 0.1-0.4 0.2 0.2 0.2 0.4 0.3 0.7 0.2v-0.4c0.3 0 0.7 0 1-0.1 0.1 0 0.2-0.1 0.2-0.2 0.1 0 0.1 0 0.2-0.1-0.2 0-0.3-0.1-0.4-0.2h0.4v-0.4h-0.4c0.3-0.1 0.5-0.1 0.8-0.1 0.1-0.1 0.3-0.2 0.3-0.4 0.2-0.1 0.3-0.2 0.3-0.4 0.2 0 0.4 0 0.5-0.2z"></path><path fill="#3f6254" d="m5.6 14.1h0.3v0.5h-0.4c-0.4-0.1-0.7-0.2-1.1-0.3 0.4 0 0.8-0.1 1.2-0.2z"></path><path fill="#506c5b" d="m8.9 14.1c-0.1 0.3-0.3 0.3-0.5 0.1-0.1 0.1-0.2 0.1-0.2 0.2 0.2 0.6 0 0.9-0.6 0.9-0.1 0.1-0.1 0.2-0.1 0.4-0.1-0.2-0.2-0.4-0.1-0.6 0.7 0.2 0.9-0.1 0.5-0.7 0.3-0.3 0.7-0.3 1-0.3z"></path><path fill="#628071" d="m3.8 13c0.1 0.1 0.1 0.3 0.1 0.4 0.1 0 0.2 0 0.3 0.1-0.1 0.1-0.1 0.2 0 0.3 0.2 0.1 0.4 0.1 0.6 0.1 0.2 0.2 0.4 0.3 0.8 0.2-0.4 0.1-0.8 0.2-1.2 0.2 0.4 0.1 0.7 0.2 1.1 0.3h-1.1c0.2 0.3 0.2 0.7 0.3 1.1-0.2-0.3-0.5-0.4-0.9-0.3l-0.1-0.7h-0.6v0.5c-0.1-0.2-0.2-0.4-0.1-0.6h0.7c0-0.6 0-1.1 0.1-1.6z"></path><path fill="#5d7a6b" d="m33.4 13.3v0.1h-0.4c0 0.3 0 0.6 0 0.8-0.1 0-0.1-0.1-0.2-0.1-0.1 0.2-0.3 0.2-0.5 0.2-0.2 0.6-0.4 1.2-0.5 1.8h-0.8v0.8h-2.6c0.2-0.1 0.2-0.3 0.2-0.5-0.4 0-0.8 0-1.2-0.2 0.2-0.1 0.4-0.1 0.6-0.1h0.3c0.2 0.1 0.4 0.1 0.7 0.1-0.2 0.1-0.3 0.3-0.3 0.5 0.8 0 1.4-0.1 1.7-0.2 0-0.3 0.1-0.5 0.4-0.6 0 0 0.1-0.1 0.1-0.2-0.1-0.2-0.2-0.3-0.4-0.5 0.8 0.3 1.2 0.1 1.3-0.7-0.2 0-0.3-0.1-0.5 0v-0.3c0.2 0.1 0.4 0.2 0.6 0.1 0.3-0.4 0.6-0.7 0.9-1.1 0.2 0.1 0.4 0.1 0.6 0.1z"></path><path fill="#b8dbc7" d="m18.3 14.9c0 0.1 0.1 0.2 0.1 0.2-0.2 0.1-0.4 0.2-0.7 0.1 0.1-0.2 0.3-0.3 0.6-0.3z"></path><path fill="#35554a" d="m23.5 14.9h0.3c1.2 0.1 2.5 0.2 3.8 0.1l-3.2 0.2h-0.9v-0.3z"></path><path fill="#203e37" d="m27.8 14.9c0.1 0.1 0.1 0.1 0.2 0.2 0.7 0 1.5 0 2.2 0-1.6 0.1-3.2 0.2-4.8 0.1v0.4c-0.1 0.1-0.2 0.1-0.4 0.1 0-0.1 0-0.2-0.1-0.3-0.2 0-0.4-0.1-0.5-0.2l3.2-0.2c0.1-0.1 0.1-0.1 0.2-0.1z"></path><path fill="#6a887b" d="m31.3 14.5c0.2-0.1 0.3 0 0.5 0-0.1 0.8-0.5 1-1.3 0.7-0.1 0-0.2-0.1-0.3-0.1 0 0-0.1-0.1-0.1-0.2 0.4-0.1 0.7-0.1 1.1-0.1 0-0.2 0-0.3 0.1-0.3z"></path><path fill="#7fa691" d="m8.9 14.1c-0.3 0-0.7 0-1 0.3 0.4 0.6 0.2 0.9-0.5 0.7-0.1 0.2 0 0.4 0.1 0.6 0 0.1 0.1 0.1 0.2 0.1v0.5h-1.8c-0.1-0.1-0.2-0.2-0.3-0.3-0.3-0.1-0.6-0.2-0.9-0.3-0.1-0.4-0.1-0.8-0.3-1.1h1.5v-0.5h-0.3c-0.4 0.1-0.6 0-0.8-0.2 0.8-0.1 1.6-0.1 2.5 0 0.1-0.1 0.1-0.3 0.1-0.5h1.5c0.1 0.3 0.1 0.5 0 0.7z"></path><path fill="#2c4d46" d="m30.2 15.1c0.1 0 0.2 0.1 0.3 0.1 0.2 0.2 0.3 0.3 0.4 0.5 0 0.1-0.1 0.2-0.1 0.2l-0.5-0.2c-1.6-0.1-3.3-0.2-4.9-0.1v-0.4c1.6 0.1 3.2 0 4.8-0.1z"></path><path fill="#597e6c" d="m23.5 14.9v0.3h0.9c0.1 0.1 0.3 0.2 0.5 0.2 0.1 0.1 0.1 0.2 0.1 0.3-0.5-0.3-1.1-0.4-1.7-0.3 0-0.2 0.1-0.4 0.2-0.5z"></path><path fill="#4da275" d="m17.6 15.5c0.4-0.1 0.7 0 1 0.2-0.3 0.1-0.6 0.1-0.9 0-0.1 0.1-0.1 0.2 0 0.3h-0.2v-0.1c0-0.1 0-0.3 0.1-0.4z"></path><path fill="#587b6e" d="m25.4 15.6c1.6-0.1 3.3 0 4.9 0.1-1.6 0-3.2 0-4.7 0.1-0.2 0-0.4 0-0.6-0.1 0.2 0 0.3 0 0.4-0.1z"></path><path fill="#567465" d="m4.7 15.7c0.3 0.1 0.6 0.2 0.9 0.3-0.2 0-0.3 0-0.4 0.1-0.2-0.1-0.4-0.1-0.5 0-0.2 0.3-0.3 0.6-0.3 1 0.1 0.4 0.1 0.8 0 1.1l0.2 0.1c0-0.3 0.1-0.6 0.3-0.8v0.4h2.2c-0.7 0.1-1.4 0.2-2.2 0.2 0.8 0 1.5 0.1 2.2 0.2h0.4c0.5 0.2 1 0.3 1.6 0.2 0-0.1-0.1-0.3-0.2-0.3v-0.1c0.2 0.1 0.3 0.3 0.3 0.5 0.3-0.1 0.6-0.2 1-0.3v0.4c-1 0-1.9 0-2.8 0.1l-0.3 0.4c0-0.2-0.2-0.3-0.4-0.2-0.8-0.2-1.7-0.4-2.6-0.5 0 0.2 0 0.3-0.1 0.3 0-0.3 0.2-0.6 0.3-1-0.1-0.5-0.2-1.1-0.2-1.7h-0.4c-0.1 0.4 0 0.7 0.1 1.1-0.1 0.3-0.2 0.6-0.3 0.9 0.1-0.6 0-1.2-0.1-1.7-0.2 0-0.3-0.1-0.3-0.3 0.1 0.1 0.2 0 0.3 0-0.1-0.3-0.2-0.6-0.3-0.9v-0.5h0.6l0.1 0.7c0.4-0.1 0.7 0 0.9 0.3z"></path><path fill="#7eb499" d="m18.3 14.9c0.1 0 0.3 0 0.4 0.1 0 0.2 0.1 0.4 0.1 0.6 0.4 0.1 0.7 0.1 1.1 0.2 0 0 0.1 0 0.1 0.1-0.4 0-0.8 0-1.2 0.1-0.1 0-0.3 0.1-0.4 0.1l0.2-0.4c-0.3-0.2-0.6-0.3-1-0.2 0-0.1 0-0.2 0.1-0.3 0.3 0.1 0.5 0 0.7-0.1 0 0-0.1-0.1-0.1-0.2z"></path><path fill="#7da091" d="m25.6 15.8c1.5-0.1 3.1-0.1 4.7-0.1 0 0.4-0.3 0.5-0.7 0.4-0.4-0.1-0.8-0.2-1.3-0.2-0.9-0.1-1.8-0.1-2.7-0.1z"></path><path fill="#317753" d="m18.6 15.7l-0.2 0.4c-0.3 0.1-0.5 0-0.7-0.1-0.1-0.1-0.1-0.2 0-0.3 0.3 0.1 0.6 0.1 0.9 0z"></path><path fill="#a1cab4" d="m17.5 15.9v0.1c-1.1-0.3-1.5 0.1-1.3 1.2 0-0.1 0.1-0.1 0.2-0.2-0.1 0.5-0.3 0.5-0.5 0-0.1-1.1 0.5-1.5 1.6-1.1z"></path><path fill="#466052" d="m7.5 15.7h0.4c0 0.3 0.2 0.6 0.4 0.8 0-0.3 0.1-0.5 0.2-0.7 0 0.4 0.1 0.8 0.2 1.2-0.2 0-0.3-0.2-0.4-0.4l-0.1 0.3c0.1 0.3 0.1 0.6 0 0.9 0 0.1 0 0.2 0.1 0.3 0.2-0.2 0.4-0.2 0.6 0-0.2 0-0.4 0-0.6 0.1-0.3-0.1-0.4-0.3-0.4-0.6 0.1-0.2 0.2-0.3 0.1-0.6h-1v0.5h-0.1v-0.3h-0.3l-0.4-0.3h1.2c0-0.1 0-0.2-0.1-0.3-0.5-0.1-1.1-0.2-1.6-0.2-0.2 0-0.4-0.1-0.5-0.3 0.1-0.1 0.2-0.1 0.4-0.1 0.1 0.1 0.2 0.2 0.3 0.3 0.6 0.1 1.3 0.1 1.9 0.1 0.1-0.2 0-0.4-0.1-0.6-0.1 0-0.2 0-0.2-0.1z"></path><path fill="#cadfd2" d="m17.5 16h0.2c0.2 0.1 0.4 0.2 0.7 0.1 0.1 0 0.3-0.1 0.4-0.1 1.1-0.2 1.5 0.3 1.3 1.3 0 0-0.1 0.1-0.1 0.1-0.2-0.3-0.5-0.5-0.9-0.6-0.3 0.1-0.5 0.3-0.6 0.6-0.3 0.1-0.5 0.1-0.8 0-0.1-0.2-0.2-0.4-0.3-0.5-0.1-0.1-0.2-0.2-0.4-0.2-0.3 0-0.5 0.1-0.5 0.3h-0.1c-0.1 0.1-0.2 0.1-0.2 0.2-0.2-1.1 0.2-1.5 1.3-1.2z"></path><path fill="#4c7566" d="m26 16.1c-0.2 0.3-0.5 0.3-0.9 0.3 0.3-0.2 0.6-0.3 0.9-0.3z"></path><path fill="#618170" d="m7.7 15.8c0.1 0.2 0.2 0.4 0.1 0.6-0.6 0-1.3 0-1.9-0.1h1.8v-0.5z"></path><path fill="#9ac6af" d="m18.8 16c0.4-0.1 0.8-0.1 1.2-0.1 0.3 0.4 0.4 0.8 0.3 1.3l-0.2 0.1c0.2-1-0.2-1.5-1.3-1.3z"></path><path fill="#5c7769" d="m35 12.3v0.6c-0.1 0.3-0.2 0.6-0.2 0.9 0 0.4 0.1 0.7 0.2 1v0.7c-0.1 0.7-0.2 1.5-0.2 2.3l0.1 2.3c0 0 0.1 0.1 0.1 0.1v0.4c-0.2 1.7-0.3 3.5-0.2 5.2-0.2-1.5-0.3-3.1-0.2-4.7 0-0.5-0.1-0.9-0.3-1.4 0-0.1 0.1-0.2 0.3-0.2 0-1.3 0-2.6-0.1-3.9v-1c0-0.5 0-1-0.1-1.4v-0.7c0.1-0.8 0.1-1.7 0.1-2.7 0-0.1 0.1-0.2 0.3-0.2 0.1 0.7 0.1 1.4 0 2.1 0 0.3 0.1 0.5 0.2 0.6z"></path><path fill="#45695c" d="m30.3 15.7l0.5 0.2c-0.3 0.1-0.4 0.3-0.4 0.6-0.3 0.1-0.9 0.2-1.7 0.2 0-0.2 0.1-0.4 0.3-0.5-0.3 0-0.5 0-0.7-0.1v-0.2c0.5 0 0.9 0.1 1.3 0.2 0.4 0.1 0.7 0 0.7-0.4z"></path><path fill="#6d8d7c" d="m2.5 14.1v0.5h0.5c-0.1 0.2 0 0.4 0.1 0.6 0.1 0.3 0.2 0.6 0.3 0.9-0.1 0-0.2 0.1-0.3 0h-0.6c0 0.5 0 1 0 1.5 0.2 0.1 0.4 0.1 0.6 0.1v0.4c-0.2-0.1-0.4 0-0.5 0.1-0.1 0.4-0.1 0.9-0.1 1.3 0.3 0 0.4 0.1 0.5 0.2 0.1 0.3 0 0.4-0.4 0.4v0.4c-0.2 0.4-0.5 0.6-0.9 0.8-0.1 0.1-0.3 0.2-0.4 0.4-0.1-0.7-0.2-1.3-0.1-2 0.2-0.2 0.4-0.5 0.5-0.7 0.1-0.2 0.2-0.5 0.2-0.7h0.3c0-0.6 0-1.1-0.1-1.7h-0.4c0.1-0.5-0.1-1-0.5-1.4-0.1-0.7 0-1.5 0.1-2.2 0.4 0.3 0.9 0.7 1.2 1.1z"></path><path fill="#648574" d="m3.1 16.1c0 0.2 0.1 0.3 0.3 0.3 0.1 0.5 0.2 1.1 0.1 1.7 0 0.6-0.2 1.1-0.5 1.6-0.1-0.1-0.2-0.2-0.5-0.2 0-0.4 0-0.9 0.1-1.3 0.1-0.1 0.3-0.2 0.5-0.1v-0.4c-0.2 0-0.4 0-0.6-0.1 0-0.5 0-1 0-1.5h0.6z"></path><path fill="#b7dcc8" d="m17.4 16.9c-0.3 0-0.6 0-0.9 0.1 0-0.2 0.2-0.3 0.5-0.3 0.2 0 0.3 0.1 0.4 0.2z"></path><path fill="#648878" d="m5.2 16.1c0.1 0.2 0.3 0.3 0.5 0.3 0.5 0 1.1 0.1 1.6 0.2 0.1 0.1 0.1 0.2 0.1 0.3h-1.2c-0.4 0.1-0.9 0-1.4-0.1 0.7-0.2 0.7-0.3-0.1-0.3v-0.4c0.1-0.1 0.3-0.1 0.5 0z"></path><path fill="#7ba593" d="m7.3 16.6c-0.3 0.1-0.5 0.2-0.8 0.2l-0.8-0.1c0.5-0.1 1-0.1 1.6-0.1z"></path><path fill="#12251a" d="m14.6 16.7c0.4 0.1 0.4 0.2 0 0.2v-0.2z"></path><path fill="#5a7a69" d="m8.8 15.2c-0.1 0.4-0.1 0.7-0.1 1.1h0.6c-0.2 0.2-0.2 0.4 0 0.6 0.1-0.1 0.2-0.2 0.3-0.4 0.2-0.1 0.4 0 0.6 0.1-0.7 0.1-0.7 0.2-0.1 0.4 0.1 0 0.2-0.1 0.2-0.2 0.1 0.1 0.2 0.2 0.3 0.2 0.6-0.1 0.6 0 0.1 0.4-0.1 0.1-0.2 0.1-0.4 0.1v-0.3c-0.5-0.1-0.5 0.1-0.2 0.3 0.1 0.1 0.1 0.2 0.1 0.3-0.6-0.1-1.1-0.4-1.5-0.8-0.1-0.4-0.2-0.8-0.2-1.2 0-0.3 0.1-0.5 0.3-0.6z"></path><path fill="#668474" d="m12.3 16.4c0.9 0.2 1.8 0.3 2.7 0.2v0.4h-2.5c0.7-0.1 1.4-0.1 2.1-0.1 0.4 0 0.4-0.1 0-0.2-0.7 0-1.4 0-2.1 0-0.1-0.1-0.2-0.2-0.2-0.3z"></path><path fill="#4c6c5d" d="m4.7 16.1v0.4c0.8 0 0.8 0.1 0.1 0.3 0.5 0.1 1 0.2 1.4 0.1l0.4 0.3c0 0.1 0 0.2 0.1 0.3h-1.8c-0.2 0.2-0.3 0.5-0.3 0.8l-0.2-0.1c0.1-0.3 0.1-0.7 0-1.1 0-0.4 0.1-0.7 0.3-1z"></path><path fill="#698f7e" d="m7.9 17.6v-0.3c-0.3-0.1-0.6 0-0.9 0.2v-0.5h1c0.1 0.3 0 0.4-0.1 0.6z"></path><path fill="#42584a" d="m9.6 13.7c0.1 0.1 0.2 0.2 0.4 0.2 0.1 0 0.2 0 0.3-0.1 0.2-0.2 0.4-0.3 0.7-0.2-0.1 0.2 0 0.4 0.1 0.6 0.3 0.1 0.5 0.1 0.8 0.1-0.2 0.7 0.1 1 0.8 0.9 0 0.4-0.1 0.6-0.5 0.6 0 0.2 0 0.4 0.1 0.6 0 0.1 0.1 0.2 0.2 0.3 0.7 0 1.4 0 2.1 0v0.2c-0.7 0-1.4 0-2.1 0.1-0.2 0-0.3 0.1-0.5 0.2-0.1 0.2-0.1 0.5 0 0.7-0.3 0.1-0.6 0.1-0.9 0.1-0.2 0.2-0.3 0.4-0.4 0.7-0.1 0-0.3 0-0.5 0v-0.4c-0.4 0.1-0.7 0.2-1 0.3 0-0.2-0.1-0.4-0.3-0.5-0.2-0.2-0.4-0.2-0.6 0-0.1-0.1-0.1-0.2-0.1-0.3 0.1-0.3 0.1-0.6 0-0.9l0.1-0.3c0.1 0.2 0.2 0.4 0.4 0.4 0.4 0.4 0.9 0.7 1.5 0.8 0-0.1 0-0.2-0.1-0.3-0.3-0.2-0.3-0.4 0.2-0.3v0.3c0.2 0 0.3 0 0.4-0.1 0.5-0.4 0.5-0.5-0.1-0.4-0.1 0-0.2-0.1-0.3-0.2l-0.1-0.2c-0.2-0.1-0.4-0.2-0.6-0.1-0.1 0.2-0.2 0.3-0.3 0.4-0.2-0.2-0.2-0.4 0-0.6 0.1-0.2 0.2-0.3 0.2-0.5 0.2-0.1 0.3-0.2 0.5-0.3 0 0 0.1 0 0.1 0.1-0.1 0.2-0.2 0.3-0.1 0.5 0.3 0.1 0.6 0 0.6-0.4 0.1-0.1 0.2-0.1 0.3-0.2 0 0 0.1 0.1 0.1 0.2v0.2c-0.3 0.3-0.4 0.6-0.4 0.9 0.3 0 0.6 0 0.9 0 0-0.4 0-0.8-0.1-1.2v-0.1c0-0.3-0.1-0.4-0.3-0.4-0.1-0.1-0.2-0.2-0.4-0.2-0.1-0.2-0.4-0.4-0.7-0.3-0.5 0-0.8 0.1-1.1 0.5 0 0.1 0 0.1-0.1 0.1-0.2 0.1-0.3 0.3-0.3 0.6-0.1 0.2-0.2 0.4-0.2 0.7-0.2-0.2-0.4-0.5-0.4-0.8h-0.4c0-0.2 0-0.3 0.1-0.4 0.6 0 0.8-0.3 0.6-0.9 0-0.1 0.1-0.1 0.2-0.2 0.2 0.2 0.4 0.2 0.5-0.1h0.3c0-0.2 0.1-0.3 0.2-0.5 0.1 0 0.1 0 0.2 0.1z"></path><path fill="#7c9c8c" d="m10.2 16.6l0.1 0.2c0 0.1-0.1 0.2-0.2 0.2-0.6-0.2-0.6-0.3 0.1-0.4z"></path><path fill="#547162" d="m11.4 15.6c0.1 0.4 0.1 0.8 0.1 1.2-0.3 0-0.6 0-0.9 0 0-0.3 0.1-0.6 0.4-0.9v0.4h0.4v-0.7z"></path><path fill="#798" d="m11.4 15.5v0.8h-0.4v-0.6c0.1-0.2 0.2-0.2 0.4-0.2z"></path><path fill="#72917e" d="m10.6 15.7c0 0.4-0.3 0.5-0.6 0.4-0.1-0.2 0-0.3 0.1-0.5 0.2-0.2 0.4-0.2 0.5 0.1z"></path><path fill="#7ca390" d="m10.7 14.9c0.2 0 0.3 0.1 0.4 0.2-0.5 0.1-0.9 0.2-1.4 0.3-0.1 0.1-0.2 0.2-0.2 0.4 0 0.2-0.1 0.3-0.2 0.5h-0.6c0-0.4 0-0.7 0.1-1.1 0.1 0 0.1 0 0.1-0.1 0.2 0 0.4-0.1 0.5-0.3 0.4 0 0.9 0 1.3 0.1z"></path><path fill="#577362" d="m11.1 15.1c0.2 0 0.3 0.1 0.3 0.4-0.2 0-0.3 0-0.4 0.2 0-0.1-0.1-0.2-0.1-0.2-0.1 0.1-0.2 0.1-0.3 0.2-0.1-0.3-0.3-0.3-0.5-0.1 0-0.1-0.1-0.1-0.1-0.1-0.2 0.1-0.3 0.2-0.5 0.3 0-0.2 0.1-0.3 0.2-0.4 0.5-0.1 0.9-0.2 1.4-0.3z"></path><path fill="#617f6f" d="m10.7 14.9c-0.4-0.1-0.9-0.1-1.3-0.1-0.1 0.2-0.3 0.3-0.5 0.3 0.3-0.4 0.6-0.5 1.1-0.5 0.3-0.1 0.6 0.1 0.7 0.3z"></path><path fill="#7fbf9c" d="m20.1 17.3l0.2-0.1h0.1v0.1c-0.1 0-0.1 0-0.1 0.1-0.2 0.1-0.3 0.3-0.6 0.3 0.1-0.4 0-0.4-0.2-0.1 0-0.4-0.2-0.5-0.6-0.3-0.1 0.1-0.1 0.2-0.1 0.3 0 0-0.1 0-0.1-0.1-0.1 0.1-0.1 0.3-0.1 0.4 0 0.1-0.1 0.2-0.2 0.2-0.3-0.3-0.6-0.3-0.8 0.1-0.1 0-0.2 0-0.3-0.1 0.2-0.1 0.2-0.3 0.1-0.5-0.1 0.3-0.4 0.4-0.7 0.3-0.1-0.1-0.1-0.2-0.1-0.3-0.1-0.1-0.3-0.1-0.5 0-0.1-0.1-0.1-0.2-0.2-0.3v-0.3c0.2 0.5 0.4 0.5 0.5 0h0.1c0.3-0.1 0.6-0.1 0.9-0.1 0.1 0.1 0.2 0.3 0.3 0.5 0.3 0.1 0.5 0.1 0.8 0 0.1-0.3 0.3-0.5 0.6-0.6 0.4 0.1 0.7 0.3 0.9 0.6 0 0 0.1-0.1 0.1-0.1z"></path><path fill="#77977f" d="m27.8 17.2v0.1c0 0.1 0 0.2-0.2 0.2-0.2-0.4-0.5-0.4-0.9-0.1-0.1 0-0.1 0-0.1 0.1-0.1 0.3-0.1 0.5-0.1 0.8 0.2 0 0.4-0.1 0.6-0.1 0.1 0.1 0.3 0.2 0.4 0.3 0.6 0 1.2 0 1.8 0-0.1 0.1-0.2 0.1-0.3 0.2 0.4 0 0.8 0 1.2 0 0 0.2 0 0.3-0.1 0.4-0.4-0.1-0.9-0.2-1.4-0.1h-2.2c0.2-0.2 0.4-0.3 0.7-0.3v-0.3c-0.3 0-0.6 0-0.9 0.1v-0.3c-0.2 0-0.4 0-0.6 0.1-0.1-0.4-0.1-0.8 0-1.1 0.7-0.1 1.4-0.1 2.1 0z"></path><path fill="#739481" d="m28.4 17c0.8 0 1.6 0.1 2.4 0.2-0.4 0.1-0.8 0.1-1.2 0.1-0.2-0.1-0.5-0.2-0.9-0.1v0.3h-0.3v-0.5z"></path><path fill="#1a312a" d="m6.6 17.2h0.3v0.3h-0.2c-0.1-0.1-0.1-0.2-0.1-0.3z"></path><path fill="#81a995" d="m7.9 17.6c0 0.3 0.1 0.5 0.4 0.6 0.2-0.1 0.4-0.1 0.6-0.1v0.1c-0.4 0.2-0.8 0.3-1.3 0.2v-0.7c-0.9 0.2-1.7 0.2-2.6 0 0.6-0.1 1.2-0.1 1.8 0 0.1 0 0.2-0.1 0.2-0.2 0.3-0.2 0.6-0.3 0.9-0.2v0.3z"></path><path fill="#b3dbc2" d="m19.5 17.6c0 0.1 0 0.1-0.1 0.1-0.2 0.2-0.4 0.1-0.6-0.1 0-0.1 0-0.2 0.1-0.3 0.4-0.2 0.6-0.1 0.6 0.3z"></path><path fill="#dbe6d8" d="m19.4 17.7c-0.3 0.1-0.4 0-0.4-0.3 0.3-0.2 0.4 0 0.4 0.3z"></path><path fill="#cfe6d8" d="m16.8 17.2c0.5 0 0.6 0.2 0.4 0.6-0.5 0-0.6-0.2-0.4-0.6z"></path><path fill="#4a6c5c" d="m12 17.2v0.3c0.5 0.1 1.1 0.1 1.7 0.2-0.6 0.1-1.1 0.2-1.6 0.2h-0.1c-0.1-0.2-0.1-0.5 0-0.7z"></path><path fill="#4d9e73" d="m19.7 17.7c-0.2 0.5-0.6 0.6-1.1 0.2 0-0.1 0-0.3 0.1-0.4 0 0.1 0.1 0.1 0.1 0.1 0.2 0.2 0.4 0.3 0.6 0.1 0.1 0 0.1 0 0.1-0.1 0.2-0.3 0.3-0.3 0.2 0.1z"></path><path fill="#406457" d="m24.5 17.9h-2.1c0-0.3-0.1-0.3-0.2 0-0.1 0-0.1-0.1-0.1-0.3h2.4v0.3z"></path><path fill="#98b8a0" d="m27.8 17.3h0.4c-0.1 0.3-0.2 0.6-0.4 0.9-0.2-0.1-0.5-0.1-0.8-0.3-0.1 0.1-0.2 0.2-0.4 0.2 0-0.3 0-0.5 0.1-0.7 0.4-0.3 0.7-0.3 0.9 0.1 0.2 0 0.2-0.1 0.2-0.2z"></path><path fill="#749885" d="m4.9 17.5h2.1c0 0.1-0.1 0.2-0.2 0.2-0.6-0.1-1.2-0.1-1.8 0 0.9 0.2 1.7 0.2 2.6 0v0.7c0.5 0.1 0.9 0 1.3-0.2 0.1 0 0.2 0.2 0.2 0.3-0.6 0.1-1.1 0-1.6-0.2v-0.4h-2.6v-0.4z"></path><path fill="#6d9680" d="m20.3 19.5v-0.9h0.3v-0.7c0.1-0.2 0-0.5-0.2-0.6v-0.1c0.1 0 0.2-0.1 0.3-0.2 0.1 0.6 0.1 1.2 0.1 1.8h-0.4c0.1 0.3 0 0.5-0.1 0.7z"></path><path fill="#08170a" d="m22.4 17.9h-0.2c0.1-0.3 0.2-0.3 0.2 0z"></path><path fill="#709885" d="m12.1 17.9c0.5 0 1-0.1 1.6-0.2-0.6-0.1-1.2-0.1-1.7-0.2 0.5 0 1.1 0 1.6-0.1 0.1 0 0.2 0 0.2 0.1 0.1 0.2 0.1 0.4 0.1 0.6-0.6-0.1-1.2-0.2-1.8-0.2z"></path><path fill="#3f8e65" d="m20.4 17.3c0.2 0.1 0.3 0.4 0.2 0.6-0.1 0-0.3 0.1-0.3 0.3l-0.2 0.3c0-0.4 0.1-0.8 0.2-1.1 0-0.1 0-0.1 0.1-0.1z"></path><path fill="#6e9481" d="m29.4 17.6c0.4 0 0.8 0 1.3 0.1 0.1 0.1 0.1 0.2 0 0.4-0.4 0-0.8 0.1-1.2 0.2l-0.2 0.2c-0.1-0.2-0.3-0.3-0.6-0.3 0.1-0.1 0.1-0.2 0.2-0.2 0.5 0 1.1-0.1 1.6-0.2-0.3 0-0.7-0.1-1.1-0.2z"></path><path fill="#5f7c6d" d="m1.2 11.8c0 0.1 0 0.2 0.1 0.4 0.3 0.3 0.7 0.5 1.1 0.7 0.1 0.4 0.2 0.8 0.1 1.2-0.3-0.4-0.8-0.8-1.2-1.1-0.1 0.7-0.2 1.5-0.1 2.2 0.4 0.4 0.6 0.9 0.5 1.4h0.4c0.1 0.6 0.1 1.1 0.1 1.7h-0.3c0 0.2-0.1 0.5-0.2 0.7-0.1 0.2-0.3 0.5-0.5 0.7-0.1 0.7 0 1.3 0.1 2 0.1-0.2 0.3-0.3 0.4-0.4 0 0.3-0.2 0.5-0.4 0.7-0.2-0.2-0.4-0.2-0.6 0 0.1-0.3 0.1-0.6 0.1-0.9 0-0.5-0.1-0.9-0.2-1.4 0.2-0.7 0.2-1.5 0.2-2.3 0-1.3 0-2.6 0-4 0-0.4-0.1-0.8-0.2-1.2 0.1-0.3 0.2-0.5 0.6-0.4z"></path><path fill="#395a49" d="m7.1 17.9h0.4v0.4h-0.4c-0.7-0.1-1.4-0.2-2.2-0.2 0.8 0 1.5-0.1 2.2-0.2z"></path><path fill="#64b689" d="m15.8 17.3h0.1c0.1 0.1 0.1 0.2 0.2 0.3 0.2-0.1 0.4-0.1 0.5 0-0.1 0.2-0.2 0.4-0.1 0.6h-0.5c0-0.2-0.1-0.3-0.3-0.3 0-0.2 0-0.4 0.1-0.6z"></path><path fill="#acd5bf" d="m25.3 17.5c-0.2 0.3-0.2 0.6 0.1 0.9-0.4 0.1-0.7 0.1-1 0.1-0.2-0.2-0.2-0.4 0-0.6h0.1c0.1-0.2 0.3-0.4 0.4-0.7 0.1 0 0.2-0.1 0.4 0v0.3z"></path><path fill="#65856e" d="m28 16.1c-0.2 0-0.4 0-0.6 0.1 0.4 0.2 0.8 0.2 1.2 0.2 0 0.2 0 0.4-0.2 0.5v0.1c-0.2 0-0.4 0-0.6 0.2-0.7-0.1-1.4-0.1-2.1 0-0.1 0.3-0.1 0.7 0 1.1 0.2-0.1 0.4-0.1 0.6-0.1v0.3c0.3-0.1 0.6-0.1 0.9-0.1v0.3c-0.3 0-0.5 0.1-0.7 0.3-0.4-0.1-0.9-0.1-1.4 0v-0.4c-1.3-0.1-2.7 0-4 0.2-0.1 0-0.1-0.1-0.1-0.3h3.4c0.3 0 0.6 0 1-0.1-0.3-0.3-0.3-0.6-0.1-0.9 0-0.4 0-0.7-0.2-1.1 0.4 0 0.7 0 0.9-0.3 0.7-0.1 1.3-0.1 2 0z"></path><path fill="#7c9b83" d="m26.3 16.4c0.6 0 1.2 0 1.8 0.1 0 0.1 0.1 0.1 0.1 0.2-0.9 0.1-1.7 0.1-2.5 0l-0.2-0.1c0.3-0.1 0.5-0.2 0.8-0.2z"></path><path fill="#6e8e7d" d="m1.2 16c0.1 0.1 0.2 0.3 0.3 0.5 0 0.5 0.1 0.9 0.2 1.4 0 0.4-0.2 0.8-0.5 1.2 0-1 0-2.1 0-3.1z"></path><path fill="#4aaf7a" d="m16.6 17.6c0 0.1 0 0.2 0.1 0.3 0.3 0.1 0.6 0 0.7-0.3 0.1 0.2 0.1 0.4-0.1 0.5 0.1 0.1 0.2 0.1 0.3 0.1v0.3c-0.3 0-0.5 0.1-0.6 0.3-0.1 0.1-0.3 0.2-0.4 0.3-0.2-0.1-0.3-0.2-0.5-0.3l-0.1-0.6h0.5c-0.1-0.2 0-0.4 0.1-0.6z"></path><path fill="#2d8051" d="m18.4 18.1c0 0 0 0.1 0.1 0.1-0.1 0.1-0.2 0.2-0.4 0.2l-0.4-0.1c0.2-0.1 0.5-0.2 0.7-0.2z"></path><path fill="#173e26" d="m20.6 17.9v0.7h-0.3v-0.4c0-0.2 0.2-0.3 0.3-0.3z"></path><path fill="#8eb099" d="m28.4 17v0.5h0.3v-0.3c0.4-0.1 0.7 0 0.9 0.1-0.2-0.1-0.4 0-0.5 0.2 0.1 0.1 0.2 0.1 0.3 0.1 0.4 0.1 0.8 0.2 1.1 0.2-0.5 0.1-1.1 0.2-1.6 0.2-0.1 0-0.1 0.1-0.2 0.2 0.3 0 0.5 0.1 0.6 0.3-0.6 0-1.2 0-1.8 0-0.1-0.1-0.3-0.2-0.4-0.3-0.2 0-0.4 0.1-0.6 0.1 0-0.3 0-0.5 0-0.8 0.1-0.1 0.1-0.1 0.2-0.1-0.1 0.2-0.1 0.4-0.1 0.7 0.2 0 0.3-0.1 0.4-0.2 0.3 0.2 0.6 0.2 0.8 0.3 0.2-0.3 0.3-0.6 0.4-0.9h-0.4v-0.1c0.2-0.2 0.4-0.2 0.6-0.2z"></path><path fill="#6c8d7c" d="m7.1 18.3c-0.2 0.1-0.6 0.2-1 0.2l-1-0.1c0.7-0.1 1.4-0.2 2-0.1z"></path><path fill="#6a8b7a" d="m12 17.9h0.1c-0.1 0.2-0.2 0.3-0.4 0.4-0.6-0.3-0.8-0.1-0.6 0.5h-3.7c0.9-0.1 1.8-0.1 2.8-0.1 0.2 0 0.4 0 0.5 0 0.1-0.3 0.2-0.5 0.4-0.7 0.3 0 0.6 0 0.9-0.1z"></path><path fill="#4cb17c" d="m20.3 17.4c-0.1 0.3-0.2 0.7-0.2 1.1-0.1 0.1-0.2 0.3-0.2 0.4-0.4 0.1-0.7 0-1.1-0.2 0-0.2-0.1-0.4-0.3-0.5-0.1 0-0.1-0.1-0.1-0.1 0.1 0 0.2-0.1 0.2-0.2 0.5 0.4 0.9 0.3 1.1-0.2 0.3 0 0.4-0.2 0.6-0.3z"></path><path fill="#4d7262" d="m26.5 19c0.1 0.1 0.3 0.1 0.4 0.1v0.3h-0.5c-0.7-0.1-1.3-0.1-2-0.1 0.1-0.3 0-0.4-0.4-0.3v0.3c-0.1-0.1-0.1-0.3-0.1-0.5h-2.8c1.3-0.2 2.7-0.3 4-0.2v0.4c0.5-0.1 1-0.1 1.4 0z"></path><path fill="#5f7f6e" d="m34.5 15.6c0.1 1.3 0.1 2.6 0.1 3.9-0.2 0-0.3 0.1-0.3 0.2-0.1-0.1-0.3-0.3-0.4-0.4-0.3-0.8-0.4-1.6-0.3-2.4 0.1 0.1 0.3 0 0.4-0.1 0.1-0.4 0.3-0.8 0.5-1.2z"></path><path fill="#708f7f" d="m34.4 16.7c0.1 0.9 0.1 1.8 0 2.7-0.2-0.3-0.3-0.7-0.4-1.2 0.2-0.5 0.3-1 0.4-1.5z"></path><path fill="#315043" d="m4.9 19h1.8c0.2-0.1 0.4 0 0.4 0.2-0.7 0-1.5-0.1-2.2-0.2z"></path><path fill="#407758" d="m15.8 17.3c-0.1 0.2-0.1 0.4-0.1 0.6 0.2 0 0.3 0.1 0.3 0.3l0.1 0.6c-0.2 0.3-0.2 0.6-0.2 0.9 0-0.3-0.2-0.7-0.3-1.1-0.1-0.4-0.2-0.9-0.1-1.4 0.1-0.1 0.2 0 0.3 0.1z"></path><path fill="#153121" d="m15.6 18.6c0-0.1 0-0.3 0.1-0.4l0.1 0.2c0 0.1-0.1 0.2-0.2 0.2z"></path><path fill="#264136" d="m24.4 19.3h-0.4v-0.3c0.4-0.1 0.5 0 0.4 0.3z"></path><path fill="#557b69" d="m29.5 18.3v0.3h0.8c0 0.4 0.1 0.7 0.2 1-0.6-0.3-1.3-0.4-2-0.3 0.1-0.2 0.1-0.3 0.2-0.3 0.5-0.1 1 0 1.4 0.1 0.1-0.1 0.1-0.2 0.1-0.4-0.4 0-0.8 0-1.2 0 0.1-0.1 0.2-0.1 0.3-0.2l0.2-0.2z"></path><path fill="#3a9163" d="m18.4 18.1c-0.2 0-0.5 0.1-0.7 0.2l0.4 0.1c0.2 0 0.3-0.1 0.4-0.2 0.2 0.1 0.3 0.3 0.3 0.5 0.4 0.2 0.7 0.3 1.1 0.2 0-0.1 0.1-0.3 0.2-0.4 0 0.4 0 0.7-0.1 1.1-0.2 0.2-0.4 0.3-0.6 0.3-0.9 0.1-1.9 0.1-2.8 0-0.4-0.2-0.5-0.6-0.5-1.1 0.2 0.1 0.3 0.2 0.5 0.3 0.1-0.1 0.3-0.2 0.4-0.3 0.1-0.2 0.3-0.3 0.6-0.3v-0.3c0.2-0.4 0.5-0.4 0.8-0.1z"></path><path fill="#518e6c" d="m17 18.8l0.7-0.1v0.6h-0.7v-0.5z"></path><path fill="#3a7555" d="m18.8 18.7c0 0.2-0.1 0.4-0.1 0.6-0.1-0.1-0.1-0.2-0.1-0.3h-0.4c0 0.1 0 0.2-0.1 0.3-0.2-0.2-0.2-0.4-0.2-0.6h0.9z"></path><path fill="#5d7a6c" d="m31.1 20.6c-0.1-0.2-0.1-0.5-0.1-0.9-0.2 0.1-0.3 0-0.3-0.1 0 0 0.1 0 0.2 0-0.2-0.1-0.3-0.3-0.2-0.5 0-0.2 0.1-0.4 0.2-0.6 0.2 0.2 0.4 0.3 0.7 0.3 0 0.3-0.1 0.5-0.2 0.7 0.5 0.1 0.5 0.2 0 0.3l0.5 0.1c-0.3 0.1-0.5 0.1-0.8 0.2v0.5z"></path><path fill="#617e6f" d="m6.7 19h-2.1c-0.1 0.3-0.1 0.7 0 1.1-0.4 0-0.7 0-1.1-0.1 0.3-0.4 0.4-0.8 0.5-1.2 0.1 0 0.1-0.1 0.1-0.3 0.9 0.1 1.8 0.3 2.6 0.5z"></path><path fill="#64846e" d="m26.5 19h2.2c-0.1 0-0.1 0.1-0.2 0.3-0.5 0.1-1 0.2-1.5 0.3-0.3 0-0.5 0-0.6-0.2h0.5v-0.3c-0.1 0-0.3 0-0.4-0.1z"></path><path fill="#648273" d="m32.3 16.1c0.4 0 0.7 0 0.9 0.2-0.4 0.1-0.4 0.2 0 0.4-0.5 0.1-0.5 0.2 0 0.3-0.1 0-0.2 0.1-0.3 0 0 0.3-0.1 0.6-0.2 0.9 0.2 0 0.4 0.1 0.5 0v0.8h-0.3v1c0.4 0.1 0.4 0.1 0 0.3 0.4 0 0.4 0.2 0.1 0.4 0.2 0.1 0.3 0.2 0.1 0.4-0.9-1.4-1.2-3-0.8-4.7z"></path><path fill="#6c8d7c" d="m33.4 14.3c0.3 0.3 0.7 0.3 1.1 0.3v1c-0.2 0.4-0.4 0.8-0.5 1.2-0.1 0.1-0.3 0.2-0.4 0.1-0.1 0.8 0 1.6 0.3 2.4 0.1 0.1 0.3 0.3 0.4 0.4 0.2 0.5 0.3 0.9 0.3 1.4h-0.1c-0.5-0.1-0.9 0-1.3 0.2 0.1-0.2 0-0.4-0.1-0.5 0.2-0.2 0.1-0.3-0.1-0.4 0.3-0.2 0.3-0.4-0.1-0.4 0.4-0.2 0.4-0.2 0-0.3v-1h0.3v-0.8c-0.1 0.1-0.3 0-0.5 0 0.1-0.3 0.2-0.6 0.2-0.9 0.1 0.1 0.2 0 0.3 0-0.5-0.1-0.5-0.2 0-0.3-0.4-0.2-0.4-0.3 0-0.4-0.2-0.2-0.5-0.2-0.9-0.2 0.2-0.6 0.6-1.2 1.1-1.8z"></path><path fill="#749684" d="m35 15.5v4.7c0 0-0.1-0.1-0.1-0.1l-0.1-2.3c0-0.8 0.1-1.6 0.2-2.3z"></path><path fill="#789c89" d="m10.5 19.2c0.1-0.1 0.2-0.2 0.4-0.1-0.1 0.3 0 0.6 0.1 0.9-1.8-0.1-3.5-0.2-5.3-0.2-0.2-0.1-0.2-0.2 0-0.3 0.5-0.1 0.9-0.1 1.4 0.1 0.3 0 0.6-0.1 0.8-0.4 0.2 0.3 0.1 0.5-0.3 0.5 0.8 0 1.6 0 2.4 0 0.1 0 0.3-0.1 0.4-0.2h0.3c0.1-0.2 0-0.3-0.2-0.3z"></path><path fill="#4a695b" d="m4 18.8c-0.1 0.4-0.2 0.8-0.5 1.2 0.4 0.1 0.7 0.1 1.1 0.1-0.1-0.4-0.1-0.8 0-1.1h0.3c0.7 0.1 1.5 0.2 2.2 0.2h0.8c-0.2 0.3-0.5 0.4-0.8 0.4-0.5-0.2-0.9-0.2-1.4-0.1-0.2 0.1-0.2 0.2 0 0.3 1.8 0 3.5 0.1 5.3 0.2 0.3-0.1 0.5 0 0.6 0.2v0.3c-1 0-2.1 0-3.1 0.1 0 0.1 0 0.1 0.1 0.2 0.2 0.1 0.4 0.3 0.7 0.4 1.5 0.1 3 0.2 4.6 0.2 0.3 0 0.5 0 0.8-0.1v0.2c-1.1 0-2.1 0-3.2 0.1 0.1 0.2 0.3 0.3 0.5 0.3 0.2 0.2 0.5 0.3 0.9 0.4 0.1 0.1 0.1 0.2 0.1 0.4h-0.5c-0.4-0.4-1-0.8-1.5-1-0.6-0.1-1.2-0.2-1.8-0.2-0.5-0.2-0.8-0.5-1.2-0.9 1.1-0.2 2.3-0.2 3.4-0.2v-0.3c-2-0.1-4-0.2-6.1-0.1v-0.4h-0.6c-0.1 0.2 0 0.3 0.1 0.4 0.2 0 0.3 0.1 0.4 0.3-0.2-0.1-0.3-0.1-0.5-0.1 0 0.2-0.1 0.4-0.3 0.5 0.6 0.1 1.2 0.1 1.7 0-0.2 0-0.4-0.1-0.5-0.3 0.8-0.1 1.5 0 2.2 0.2h-1.2c0 0.2 0 0.4-0.1 0.5-0.1 0-0.2 0-0.3 0.1 0.1 0.1 0.2 0.2 0.3 0.3h-0.1c-0.1 0-0.3-0.1-0.4-0.1-0.5-0.1-1.1-0.1-1.7-0.1v-0.5h-0.5l-1.2-0.3v-0.4c0.4 0 0.5-0.1 0.4-0.4 0.3-0.5 0.5-1 0.5-1.6 0.1-0.3 0.2-0.6 0.3-0.9-0.1-0.4-0.2-0.7-0.1-1.1h0.4c0 0.6 0.1 1.2 0.2 1.7-0.1 0.4-0.3 0.7-0.3 1z"></path><path fill="#789587" d="m4.8 19.2c0.2 0 0.4 0 0.7 0-0.2 0.3-0.4 0.4-0.7 0.3v-0.3z"></path><path fill="#30483d" d="m8 20.6h-0.2c-0.7-0.2-1.4-0.3-2.2-0.2-0.2 0-0.3 0-0.4-0.1-0.1-0.2-0.2-0.3-0.4-0.3-0.1-0.1-0.2-0.2-0.1-0.4h0.6v0.4c2.1-0.1 4.1 0 6.1 0.1v0.3c-1.1 0-2.3 0-3.4 0.2z"></path><path fill="#27583b" d="m20.3 18.2v1.3c-0.1 0.3-0.3 0.5-0.6 0.7-1.1 0.1-2.2 0.1-3.3 0-0.2-0.2-0.3-0.3-0.5-0.5 0-0.3 0-0.6 0.2-0.9 0 0.5 0.1 0.9 0.5 1.1 0.9 0.1 1.9 0.1 2.8 0 0.2 0 0.4-0.1 0.6-0.3 0.1-0.4 0.1-0.7 0.1-1.1l0.2-0.3z"></path><path fill="#84ab98" d="m7.4 18.8h3.7c0.2 0 0.4 0 0.5 0.2h-0.6c0 0.1 0 0.3 0 0.5 0.2-0.1 0.4-0.1 0.6 0 0.1-0.1 0.2-0.3 0.2-0.4h0.2c0 0.4 0.2 0.5 0.5 0.4v-0.5h-0.4c0.2-0.2 0.5-0.2 0.8-0.2-0.1 0.4-0.2 0.8-0.4 1.2 0.2 0.2 0.3 0.4 0.3 0.6 0.2 0.1 0.4 0 0.5-0.2 0.1 0.2 0.1 0.4 0.1 0.6 0.4 0 0.7 0 1 0.1 0.2-0.2 0.4-0.3 0.7-0.2-0.1 0.1-0.3 0.2-0.4 0.3h-5.4c-0.3-0.1-0.5-0.3-0.7-0.4 1.2-0.2 2.4-0.2 3.7 0 0.3-0.1 0.4-0.3 0.4-0.6h-1.1c-0.1-0.2-0.3-0.3-0.6-0.2-0.1-0.3-0.2-0.6-0.1-0.9-0.2-0.1-0.3 0-0.4 0.1-0.1 0.1-0.1 0.2-0.1 0.3-0.1 0.1-0.3 0.2-0.4 0.2-0.8 0-1.6 0-2.4 0 0.4 0 0.5-0.2 0.3-0.5h-0.8l0.3-0.4z"></path><path fill="#a2c3b2" d="m12.1 19h0.4v0.5c-0.3 0.1-0.5 0-0.5-0.4 0-0.1 0-0.1 0.1-0.1z"></path><path fill="#586e63" d="m10.5 19.2c0.2 0 0.3 0.1 0.2 0.3h-0.3c0-0.1 0-0.2 0.1-0.3z"></path><path fill="#638374" d="m8.4 19.1h0.3v0.3h-0.3v-0.3z"></path><path fill="#a6c6b6" d="m11.6 19c0.1 0 0.2 0 0.2 0.1 0 0.1-0.1 0.3-0.2 0.4-0.2-0.1-0.4-0.1-0.6 0 0-0.2 0-0.4 0-0.5h0.6z"></path><path fill="#799d8c" d="m5.2 20.3c0.1 0.1 0.2 0.1 0.4 0.1 0.1 0.2 0.3 0.3 0.5 0.3-0.5 0.1-1.1 0.1-1.7 0 0.2-0.1 0.3-0.3 0.3-0.5 0.2 0 0.3 0 0.5 0.1z"></path><path fill="#5c8475" d="m11.6 20.2h1.1c0 0.3-0.1 0.5-0.4 0.6-1.3-0.2-2.5-0.2-3.7 0-0.1-0.1-0.1-0.1-0.1-0.2 1-0.1 2.1-0.1 3.1-0.1v-0.3z"></path><path fill="#325546" d="m12 20.3h0.4v0.3c-0.2 0.1-0.4 0-0.4-0.3z"></path><path fill="#6c8f7b" d="m35.2 11.6h0.1v14.9h-0.5v-0.7c-0.1-1.7 0-3.5 0.2-5.2 0 0.3 0 0.5-0.1 0.8 0.1 1.6 0.2 3.3 0.2 5 0.1-4.9 0.1-9.8 0.1-14.8z"></path><path fill="#587264" d="m2.6 20.5l1.2 0.3c-0.4 0.1-0.7 0.1-1 0-0.1 0-0.2 0-0.3 0.1 0.4 0.1 0.9 0.1 1.3 0.1v1.4h-0.1v-1.3c-0.5 0-0.9 0-1.3 0.1-0.2 0.3-0.5 0.7-0.7 1-0.1 0.1-0.2 0.1-0.3 0.2l-0.2 0.3c-0.1 0.2-0.2 0.4-0.4 0.6h-0.1v-1.3c0.2-0.2 0.4-0.2 0.6 0 0.2-0.2 0.4-0.4 0.4-0.7 0.4-0.2 0.7-0.4 0.9-0.8z"></path><path fill="#486154" d="m3.8 20.8h0.5v0.5c-0.1 0.2-0.1 0.3 0 0.5 0.4-0.2 0.8-0.3 1.2-0.2-0.3 0.1-0.5 0.2-0.7 0.3-0.2 0-0.3 0-0.4 0.2l-0.6 0.3v-1.4c-0.4 0-0.9 0-1.3-0.1 0.1-0.1 0.2-0.1 0.3-0.1 0.3 0.1 0.6 0.1 1 0z"></path><path fill="#516b5e" d="m33.4 13.4v0.9c-0.5 0.6-0.9 1.2-1.1 1.8-0.4 1.7-0.1 3.3 0.8 4.7 0.1 0.1 0.2 0.3 0.1 0.5l-0.3 0.4c-0.5 0-1 0.1-1.5 0.1 0.1-0.2 0-0.3-0.1-0.4-0.3 0-0.7-0.1-1.1-0.2 0.3-0.1 0.6-0.1 0.9-0.2v-0.9c0.3-0.1 0.5-0.1 0.8-0.2l-0.5-0.1c0.5-0.1 0.5-0.2 0-0.3 0.1-0.2 0.2-0.4 0.2-0.7-0.3 0-0.5-0.1-0.7-0.3-0.1 0.2-0.2 0.4-0.2 0.6-0.1 0.2 0 0.4 0.2 0.5-0.1 0-0.2 0-0.2 0h-0.2c-0.1-0.3-0.2-0.6-0.2-1h-0.8v-0.3c0.4-0.1 0.8-0.2 1.2-0.2 0.1-0.2 0.1-0.3 0-0.4-0.5-0.1-0.9-0.1-1.3-0.1-0.1 0-0.2 0-0.3-0.1 0.1-0.2 0.3-0.3 0.5-0.2 0.4 0 0.8 0 1.2-0.1-0.8-0.1-1.6-0.2-2.4-0.2v-0.1h2.6v-0.8h0.8c0.1-0.6 0.3-1.2 0.5-1.8 0.2 0 0.4 0 0.5-0.2 0.1 0 0.1 0.1 0.2 0.1 0-0.2 0-0.5 0-0.8h0.4z"></path><path fill="#0e2116" d="m30.7 19.1c-0.3 0-0.3-0.1-0.2-0.3 0.1 0.1 0.2 0.2 0.2 0.3z"></path><path fill="#6e9281" d="m9.3 21.2h5.4v0.1c-0.3 0.1-0.5 0.1-0.8 0.1-1.6 0-3.1-0.1-4.6-0.2z"></path><path fill="#e7e7e6" d="m2.8 21.2h0.7v0.8c-0.3 0.3-0.7 0.6-1.1 0.9h-0.8c0.2-0.2 0.4-0.3 0.6-0.3-0.1-0.2-0.1-0.3-0.1-0.5h0.3c0.1-0.3 0.2-0.6 0.4-0.9z"></path><path fill="#638877" d="m6.5 21.1c0 0.1 0 0.2 0.1 0.3 0.4 0 0.7 0 1.1 0-0.4 0.1-0.8 0.2-1.2 0.1-0.1-0.1-0.2-0.2-0.3-0.3 0.1-0.1 0.2-0.1 0.3-0.1z"></path><path fill="#162b1e" d="m14.7 21.2c0.1 0 0.2 0 0.3 0.1 0 0.2-0.1 0.3-0.3 0.2v-0.3z"></path><path fill="#6a8f7b" d="m15 21.3c0.1 0.1 0.2 0.3 0.1 0.5-1.1-0.2-2.1-0.2-3.2-0.1 0 0.1 0.1 0.1 0.1 0.2-0.2 0-0.4-0.1-0.5-0.3 1.1-0.1 2.1-0.1 3.2-0.1 0.2 0.1 0.3 0 0.3-0.2z"></path><path fill="#d0d2d0" d="m34.5 21.2v0.8c-0.2 0-0.4-0.1-0.6-0.2-0.1-0.2-0.2-0.4-0.4-0.5 0.3-0.1 0.6-0.1 1-0.1z"></path><path fill="#5f8472" d="m31.1 21c-0.3 0.1-0.6 0.1-0.9 0.2 0.4 0.1 0.8 0.2 1.1 0.2 0.1 0.1 0.2 0.2 0.1 0.4h-2.3v-0.1c0.7 0 1.4 0 2.1-0.2-0.4 0-0.7-0.1-1.1-0.1-0.1-0.1-0.1-0.3-0.1-0.4h1.1z"></path><path fill="#638674" d="m4.3 21.3c0.6 0 1.2 0 1.7 0.1h-0.3v0.5h-0.9c0.2-0.1 0.4-0.2 0.7-0.3-0.4-0.1-0.8 0-1.2 0.2-0.1-0.2-0.1-0.3 0-0.5z"></path><path fill="#688478" d="m6.4 21.5h0.1c0.3 0.2 0.7 0.3 1.2 0.3-0.6 0.1-1.1 0.1-1.7 0.1 0.2-0.1 0.3-0.2 0.4-0.4z"></path><path fill="#2f5343" d="m29.1 21.8h2.3l-2.3 0.2c-0.5-0.1-0.5-0.2 0-0.2z"></path><path fill="#d4d4d1" d="m2.8 21.2c-0.2 0.3-0.3 0.6-0.4 0.9h-0.3c0 0.2 0 0.3 0.1 0.5-0.2 0-0.4 0.1-0.6 0.3 0 0-0.1-0.1-0.1-0.1 0.1-0.2 0.2-0.4 0.2-0.6 0.4-0.3 0.7-0.6 1.1-1z"></path><path fill="#7da492" d="m6 21.4c0.1 0 0.3 0.1 0.4 0.1-0.1 0.2-0.2 0.3-0.4 0.4-0.1 0.1-0.1 0.2-0.1 0.3-0.5 0.1-1 0-1.5-0.1 0.1-0.2 0.2-0.2 0.4-0.2h0.9v-0.5h0.3z"></path><path fill="#425d50" d="m7.7 21.4c0.3 0 0.5 0.1 0.5 0.5 0.2 0.1 0.5 0.1 0.7 0.2-0.3 0-0.6 0-0.9 0v0.5h-0.3v-0.5c-0.5 0-1 0-1.5 0.1l0.3 0.4c-0.1 0-0.2 0.1-0.3 0.1l-0.2-0.1v-0.7c0.6 0 1.1 0 1.7-0.1-0.5 0-0.9-0.1-1.2-0.3 0.4 0.1 0.8 0 1.2-0.1z"></path><path fill="#7ea591" d="m7.8 20.6h0.2c0.4 0.4 0.7 0.7 1.2 0.9 0.6 0 1.2 0.1 1.8 0.2 0.5 0.2 1.1 0.6 1.5 1-0.4 0.1-0.8 0.1-1.3 0.1-0.5-0.3-0.9-0.5-1.4-0.9-0.5 0-1.1 0-1.6 0 0-0.4-0.2-0.5-0.5-0.5-0.4 0-0.7 0-1.1 0-0.1-0.1-0.1-0.2-0.1-0.3 0.1-0.1 0.1-0.3 0.1-0.5h1.2z"></path><path fill="#b9bebc" d="m34.5 21.1v0.1c-0.4 0-0.7 0-1 0.1 0.2 0.1 0.3 0.3 0.4 0.5 0.2 0.1 0.4 0.2 0.6 0.2v3.8c-0.3 0.1-0.6 0-0.9-0.1-0.1-0.9-0.2-1.8-0.1-2.8-0.4 0-0.7 0-0.9-0.1 1.3 0.2 1.5-0.1 0.5-1-0.1 0.1-0.3 0.2-0.4 0.3 0-0.2 0.1-0.3 0.2-0.4l0.3-0.4c0.4-0.2 0.8-0.3 1.3-0.2z"></path><path fill="#597e71" d="m32.9 21.7c-0.1 0.1-0.2 0.2-0.2 0.4h-0.2c-0.2-0.1-0.3-0.1-0.5-0.1-0.5 0.1-1.1 0.2-1.7 0.2-0.4 0-0.9-0.1-1.2-0.2l2.3-0.2c0.5 0 1-0.1 1.5-0.1z"></path><path fill="#4e7264" d="m28.6 21.7h0.5v0.1c-0.5 0-0.5 0.1 0 0.2 0.3 0.1 0.8 0.2 1.2 0.2 0.6 0 1.2-0.1 1.7-0.2 0.2 0 0.3 0 0.5 0.1-0.2 0.3-0.4 0.6-0.5 0.9h1.4v0.8c-0.3-0.1-0.5-0.2-0.7-0.3l-0.1 0.1c0.1 0.1 0.2 0.2 0.2 0.4-0.7-0.1-1.4 0-2 0.2h-0.6c-1.3-0.2-2.7-0.3-4-0.2-0.3-0.3-0.6-0.2-0.8 0l-0.3 0.1-3-0.2c1 0 2 0 3-0.1 0.3-0.2 0.3-0.3 0-0.5-0.6 0-1.2-0.1-1.8-0.3 0.7 0 1.4 0 2.1 0.1l0.3 0.1c0.1 0.3 0.3 0.4 0.6 0.4 0.8 0.1 1.7 0.1 2.6 0.1-0.9 0.1-1.7 0.1-2.6 0.2 2 0 4.1 0 6.2 0-1.2-0.2-2.4-0.2-3.5-0.2v-0.2c1-0.1 1.9 0 2.9 0.2 0-0.3-0.1-0.5-0.1-0.8h-3.1c0 0.1-0.1 0.1-0.3 0.1v-0.6h-3v-0.3h3.2v-0.4z"></path><path fill="#e1e4e2" d="m32.6 22.8c-0.2-0.3-0.1-0.5 0.1-0.7 0.1-0.1 0.3-0.2 0.4-0.3 1 0.9 0.8 1.2-0.5 1z"></path><path fill="#507364" d="m7.7 22.6h-1c0 0.1 0 0.2 0.1 0.3 0.2 0.1 0.3 0.3 0.5 0.4-0.1 0-0.2 0.1-0.2 0.2-0.3-0.2-0.6-0.5-0.9-0.8 0.1 0 0.2-0.1 0.3-0.1l-0.3-0.4c0.5-0.1 1-0.1 1.5-0.1v0.5z"></path><path fill="#779d89" d="m25.7 22h-0.4v0.6c0.3-0.1 0.7 0 1.1 0-0.2 0.1-0.1 0.2 0.1 0.2 0.1-0.1 0.3-0.2 0.4-0.2v0.3c-0.3 0-0.7 0-1.1 0-0.1 0.1-0.1 0.2-0.1 0.3l-0.3-0.1c-0.7-0.1-1.4-0.1-2.1-0.1-0.2 0-0.5 0-0.7-0.1 0.6 0.2 0.8-0.1 0.7-0.7-0.2 0-0.5 0-0.6 0.2h-1.2c0-0.3 0.1-0.6 0.4-0.9 0.4 0.1 0.9 0.1 1.4 0 0 0.2 0.1 0.3 0 0.4 0.3 0 0.6-0.1 0.8-0.4l0.1 0.2c-0.2 0.1-0.2 0.3-0.1 0.5 0.3 0.2 0.7 0.3 1 0.2-0.4 0-0.6-0.2-0.4-0.6 0.3 0 0.7 0.1 1 0.2z"></path><path fill="#c1c2c1" d="m3.5 22v0.7c-0.1-0.1-0.3 0-0.3 0.2-0.2 0.1-0.4 0.2-0.4 0.4h-0.2c0.1-0.2 0-0.3-0.2-0.4 0.4-0.3 0.8-0.6 1.1-0.9z"></path><path fill="#597c6d" d="m6 21.9v0.7h-1.2c0 0.1 0 0.2-0.1 0.3v-0.5c-0.4 0-0.5 0.2-0.5 0.5h-0.5v-0.5h0.1l0.6-0.3c0.5 0.1 1 0.2 1.5 0.1 0-0.1 0-0.2 0.1-0.3z"></path><path fill="#668c7a" d="m28.6 21.7v0.4h-3.2v0.3h3v0.5c-0.1-0.1-0.1-0.2-0.1-0.3h-1.4c-0.1 0-0.3 0.1-0.4 0.2-0.2 0-0.3-0.1-0.1-0.2-0.4 0-0.8-0.1-1.1 0v-0.6h3.2c0-0.2 0-0.3 0.1-0.3z"></path><path fill="#678b7b" d="m31.8 22.7h-2.9c0.4-0.2 0.9-0.3 1.4-0.3 0.5 0 1 0.1 1.5 0.3z"></path><path fill="#355649" d="m4.7 22.9c-0.2 0.1-0.3 0.1-0.5 0 0-0.3 0.1-0.5 0.5-0.5v0.5z"></path><path fill="#709582" d="m9.8 22.3h-1.5c0 0.2 0 0.3-0.1 0.4-0.3 0-0.6 0-0.9 0-0.2 0-0.4 0.1-0.5 0.2-0.1-0.1-0.1-0.2-0.1-0.3h1.3c0.1-0.1 0.2-0.2 0.2-0.4 0.5 0 1.1 0 1.6 0.1z"></path><path fill="#314f40" d="m28.9 22.7h2.9c-1 0-2 0.1-3.1 0.2-0.1 0-0.1 0-0.2-0.1 0.1-0.1 0.2-0.2 0.4-0.1z"></path><path fill="#d8d8d7" d="m3.5 22.7v3.1h-0.9v-2.5h0.2v2.4h0.6c0-1 0-1.9 0-2.9-0.1 0-0.1 0.1-0.2 0.1 0-0.2 0.2-0.3 0.3-0.2z"></path><path fill="#8ea196" d="m1.4 22.4c0 0.2 0 0.4-0.1 0.5 0.3 0.1 0.7 0.1 1 0.1-0.3 0.1-0.7 0.2-1.1 0.1v-0.4l0.2-0.3z"></path><path fill="#7ea792" d="m9.8 22.3c0.3 0.1 0.5 0.3 0.7 0.4-0.2 0.2-0.5 0.3-0.7 0.5 0 0.1-0.1 0.2-0.2 0.2-0.8 0.1-1.6 0.1-2.3-0.1-0.2-0.1-0.3-0.3-0.5-0.4 0.1-0.1 0.3-0.2 0.5-0.2 0.3 0 0.6 0 0.9 0 0.1-0.1 0.1-0.2 0.1-0.4h1.5z"></path><path fill="#4d705d" d="m8.2 21.9c0.5 0 1.1 0 1.6 0 0.5 0.4 0.9 0.6 1.4 0.9 1.2 0.1 2.5 0.1 3.8 0.1-1.2 0.1-2.3 0.1-3.5 0.2-0.4 0-0.7 0-1.1 0.1-0.1 0-0.2 0-0.2 0.1-0.1 0-0.2-0.1-0.4-0.1 0.2-0.2 0.5-0.3 0.7-0.5-0.2-0.1-0.4-0.3-0.7-0.4-0.5-0.1-1.1-0.1-1.6-0.1 0 0.2-0.1 0.3-0.2 0.4v-0.5c0.3 0 0.6 0 0.9-0.1-0.2 0-0.5 0-0.7-0.1z"></path><path fill="#557c6a" d="m12.5 22.7h0.5c0.7 0.1 1.5 0.1 2.2 0.1v0.3h-3.7c1.2-0.1 2.3-0.1 3.5-0.2-1.3 0-2.6 0-3.8-0.1 0.5 0 0.9 0 1.3-0.1z"></path><path fill="#7fa893" d="m26.9 22.6h1.4c0 0.1 0 0.2 0.1 0.3v0.1c1.1 0 2.2 0 3.3 0.1-0.1 0-0.2 0.1-0.3 0.1-0.8 0.1-1.6 0.2-2.4 0.3v0.2h-0.1c-0.9 0-1.8 0-2.6-0.1-0.3 0-0.5-0.1-0.6-0.4 0-0.1 0-0.2 0.1-0.2 0.4-0.1 0.8-0.1 1.1-0.1v-0.3z"></path><path fill="#688a7b" d="m22.6 22.9c0.2 0.1 0.5 0.1 0.7 0.1 0.6 0.2 1.2 0.3 1.8 0.3h-2.9v-0.4h0.4z"></path><path fill="#709a81" d="m35.2 11.6c0 5 0 9.9-0.1 14.8 0-1.7-0.1-3.4-0.2-5 0.1-0.3 0.1-0.5 0.1-0.8v-8.3c0-0.2 0-0.5 0.2-0.7z"></path><path fill="#80a793" d="m6 22.6l0.2 0.1c0.3 0.3 0.6 0.6 0.9 0.8l0.2 0.2c0.5 0.2 1.1 0.3 1.8 0.3-0.1 0-0.1 0.1-0.2 0.1v0.1c-0.2 0.1-0.4 0.2-0.5 0.4v-0.4c-1.2 0.1-2.4 0-3.6 0-0.3-0.4-0.7-0.5-1.1-0.5v-0.8h0.5c0.2 0.1 0.3 0.1 0.5 0 0.1-0.1 0.1-0.2 0.1-0.3h1.2z"></path><path fill="#729585" d="m10.4 23.2l6.2 0.3c-2.2 0-4.3 0-6.4-0.2 0-0.1 0.1-0.1 0.2-0.1z"></path><path fill="#698e7e" d="m28.7 22.9h3.1c0 0.3 0.1 0.5 0.1 0.8-1-0.2-1.9-0.3-2.9-0.2 0.8-0.1 1.6-0.2 2.4-0.3 0.1 0 0.2-0.1 0.3-0.1-1.1-0.1-2.2-0.1-3.3-0.1 0.2 0 0.3 0 0.3-0.1z"></path><path fill="#7ea592" d="m22.6 22.9h-0.4v0.4h2.9c0.3 0.2 0.3 0.3 0 0.5-1 0.1-2 0.1-3 0.1-0.4 0-0.7 0-1.1-0.1v0.3c-0.2 0-0.3 0-0.4-0.1-0.1 0.1-0.2 0.1-0.2 0.2l-0.2 0.4c0-0.3 0-0.5-0.1-0.7h-3.4v-0.1c1.2 0 2.4 0 3.6-0.1 0.1 0 0.2-0.1 0.2-0.2l1.3-0.3c0.3-0.3 0.6-0.5 0.9-0.8 0.1-0.2 0.4-0.2 0.6-0.2 0.1 0.6-0.1 0.9-0.7 0.7z"></path><path fill="#4b6859" d="m9.8 23.2c0.2 0 0.3 0.1 0.4 0.1 2.1 0.2 4.2 0.2 6.4 0.2-3 0.2-6.1 0.3-9.2 0.2h-0.1l-0.2-0.2c0-0.1 0.1-0.2 0.2-0.2 0.7 0.2 1.5 0.2 2.3 0.1 0.1 0 0.2-0.1 0.2-0.2z"></path><path fill="#678979" d="m16.6 23.5c0.1 0 0.1 0.1 0.1 0.3v0.1h-0.6l-8.7-0.2c3.1 0.1 6.2 0 9.2-0.2z"></path><path fill="#668676" d="m1.2 22.7v0.4c0.4 0.1 0.8 0 1.1-0.1 0.2 0 0.3 0.2 0.2 0.3-0.1 0.3-0.1 0.6-0.1 0.9h-1.6v-0.9c0.2-0.2 0.3-0.4 0.4-0.6z"></path><path fill="#729a88" d="m7.3 23.7h0.1l8.7 0.2c-2.3 0-4.6 0-6.9 0.1v0.1h-0.3c0.1 0 0.1-0.1 0.2-0.1-0.7 0-1.3-0.1-1.8-0.3z"></path><path fill="#395f55" d="m28.9 23.7h0.1c1.1 0 2.3 0 3.5 0.2-2.1 0-4.2 0-6.2 0 0.9-0.1 1.7-0.1 2.6-0.2z"></path><path fill="#416158" d="m9.2 24.1v-0.1c1.8 0 3.6 0 5.4 0.1-0.1 0-0.2 0-0.3 0.1h-3.8c-0.4-0.1-0.9-0.1-1.3-0.1z"></path><path fill="#375244" d="m22.1 23.9l3 0.2h-4.1v-0.3c0.4 0.1 0.7 0.1 1.1 0.1z"></path><path fill="#769987" d="m30.2 24.2c-1.6 0.1-3.3 0-4.8-0.2 0.2-0.2 0.5-0.3 0.8 0 1.3-0.1 2.7 0 4 0.2z"></path><path fill="#6e8e7f" d="m33.4 23.8v0.4h-2.6c0.6-0.2 1.3-0.3 2-0.2 0-0.2-0.1-0.3-0.2-0.4l0.1-0.1c0.2 0.1 0.4 0.2 0.7 0.3z"></path><path fill="#92a19d" d="m8.9 24.2v-0.1h0.3c0.4 0 0.9 0 1.3 0.1 0 0.4-0.1 0.7-0.3 0.9 0-0.3 0.1-0.6 0.2-0.9h-1.5z"></path><path fill="#9aaca2" d="m21 24.1h1.2c0.2 0.2 0.1 0.4-0.1 0.5v-0.4h-1.7c0-0.1 0.1-0.1 0.2-0.2 0.1 0.1 0.2 0.1 0.4 0.1z"></path><path fill="#698a7a" d="m3.7 24c0.3 0 0.5 0.1 0.7 0.3-0.2 0.1-0.5 0-0.7-0.1v-0.2z"></path><path fill="#acb8b4" d="m14.6 24.1c0.4 0 0.9 0 1.3 0.1h-0.4c0 0.3 0 0.4-0.1 0.6v-0.3h-0.6c0-0.1-0.1-0.1-0.1-0.1-0.2 0.1-0.4 0.3-0.6 0.4l0.2-0.6c0.1-0.1 0.2-0.1 0.3-0.1z"></path><path fill="#587367" d="m9.2 24c2.3-0.1 4.6-0.1 6.9-0.1h3.6v0.1c-1.2 0-2.4 0-3.6 0.1 1.3 0.1 2.5 0.2 3.8 0.1 0.1 0 0.2-0.1 0.2-0.3 0.1 0.2 0.1 0.4 0.1 0.7-0.3 0.3-0.4 0.6-0.5 1-0.1 0-0.1 0.1-0.1 0.2h-0.2v-0.1c0-0.2 0.1-0.4 0.2-0.6 0.1 0 0.2-0.1 0.1-0.3-0.7 0-1.4 0-2.1 0.1-0.1 0.2-0.2 0.3-0.3 0.5-0.1 0-0.1-0.1-0.1-0.1v-0.2c0.1 0 0.1-0.1 0.1-0.3-0.5 0-0.9 0-1.3 0.1 0-0.2 0-0.4-0.1-0.7-0.4-0.1-0.9-0.1-1.3-0.1-1.8-0.1-3.6-0.1-5.4-0.1z"></path><path fill="#1f3529" d="m19.7 23.9h0.4c0 0.2-0.1 0.3-0.2 0.3l-0.2-0.2v-0.1z"></path><path fill="#3f5f56" d="m19.7 24l0.2 0.2c-1.3 0.1-2.5 0-3.8-0.1 1.2-0.1 2.4-0.1 3.6-0.1z"></path><path fill="#5a7266" d="m25.4 24c1.5 0.2 3.2 0.3 4.8 0.2h3.2v1.6h-5.3v-0.3c0.3-0.5 0.2-0.7-0.4-0.7-0.2 0-0.3 0.1-0.4 0.2-0.2 0.1-0.3 0.2-0.2 0.4-0.1 0.1-0.1 0.2-0.2 0.3l-0.2-0.8c-0.6-0.1-1 0.2-1.1 0.8h-0.6v-0.4c0.1-0.1 0.2-0.2 0.1-0.4-0.3 0-0.5 0.1-0.5 0.5l-0.2 0.3h-0.6v-0.2c0.2-0.1 0.3-0.3 0.2-0.6-0.6-0.1-1.1-0.1-1.7 0h-0.1c-0.1 0-0.1-0.1-0.1-0.2v-0.1c0.2-0.1 0.3-0.3 0.1-0.5h2.9l0.3-0.1z"></path><path fill="#597265" d="m3.7 23.7c0.4 0 0.8 0.1 1.1 0.5 1.2 0 2.4 0.1 3.6 0v0.4c-0.1 0-0.2 0.1-0.1 0.2-0.3 0.3-0.4 0.6-0.4 1-1.4 0.1-2.8 0-4.2-0.1v-1.5c0.2 0.1 0.5 0.2 0.7 0.1-0.2-0.2-0.4-0.3-0.7-0.3v-0.3z"></path><path fill="#adbab1" d="m1.7 22.2c0 0.2-0.1 0.4-0.2 0.6 0 0 0.1 0.1 0.1 0.1h0.8c0.2 0.1 0.3 0.2 0.2 0.4v2.5h-0.1v-2.5c0.1-0.1 0-0.3-0.2-0.3-0.3 0-0.7 0-1-0.1 0.1-0.1 0.1-0.3 0.1-0.5 0.1-0.1 0.2-0.1 0.3-0.2z"></path><path fill="#c1c8c3" d="m8.9 24.2h0.8c0.1 0.3 0 0.5-0.2 0.6 0-0.1 0-0.2-0.2-0.2-0.1 0-0.2 0.1-0.2 0.2v-0.4c-0.4 0.1-0.6 0.3-0.8 0.6v-0.2c-0.1-0.1 0-0.2 0.1-0.2 0.1-0.2 0.3-0.3 0.5-0.4z"></path><path fill="#ebebea" d="m2.8 23.3c0-0.2 0.2-0.3 0.4-0.4 0.1 0 0.1-0.1 0.2-0.1 0 1 0 1.9 0 2.9h-0.6v-2.4z"></path><path fill="#ebebe9" d="m9.1 24.8l-0.2 0.2c-0.1 0.1-0.2 0.2-0.2 0.4-0.2 0.1-0.2 0.2-0.2 0.4h-0.3c0-0.2 0-0.5 0.1-0.8 0.2-0.3 0.4-0.5 0.8-0.6v0.4z"></path><path fill="#e2e6e3" d="m9.7 24.2h0.7c-0.1 0.3-0.2 0.6-0.2 0.9-0.1 0.1-0.2 0.2-0.1 0.3-0.1 0.1-0.2 0.2-0.3 0.3-0.2 0.1-0.5 0.1-0.7 0 0.1 0 0.2-0.2 0.2-0.3l0.2-0.6c0.2-0.1 0.3-0.3 0.2-0.6z"></path><path fill="#8a9a90" d="m17.6 24.9c0.7-0.1 1.4-0.1 2.1-0.1 0.1 0.2 0 0.3-0.1 0.3-0.6-0.2-1.3-0.3-2-0.2z"></path><path fill="#798a82" d="m15.9 24.2c0.1 0.3 0.1 0.5 0.1 0.7 0.4-0.1 0.8-0.1 1.3-0.1 0 0.2 0 0.3-0.1 0.3-0.2-0.1-0.3-0.2-0.6-0.2-0.4 0-0.7 0.2-0.8 0.7-0.1 0.1-0.3 0.1-0.4 0.1 0.2-0.5 0.3-1 0.5-1.5z"></path><path fill="#a8b5ad" d="m28.1 25.5c-0.1 0.1-0.2 0.3-0.1 0.5-0.2 0.1-0.3 0-0.4-0.1 0.2 0 0.3-0.2 0.2-0.4h-0.3c0-0.2 0-0.3 0.1-0.4-0.1-0.1-0.2-0.1-0.3-0.1 0.1-0.1 0.2-0.2 0.4-0.2 0.6 0 0.7 0.2 0.4 0.7z"></path><path fill="#bcc4c0" d="m20.2 24.6c0 0.1 0 0.3-0.1 0.4 0 0.3-0.2 0.5-0.4 0.6 0.1-0.4 0.2-0.7 0.5-1z"></path><path fill="#6c8478" d="m0.4 9.2c0.1-0.1 0.3 0 0.3 0.1 0 0-0.1 0-0.1 0.1-0.1 3.5-0.1 6.9 0 10.3 0.1 0.5 0.2 0.9 0.2 1.4 0 0.3 0 0.6-0.1 0.9v1.3c-0.1-0.2-0.1-0.4-0.1-0.6-0.1 1.2-0.1 2.4-0.1 3.7-0.1 0-0.1 0.1-0.1 0.2h-0.1c-0.1-5.8 0-11.6 0.1-17.4z"></path><path fill="#657870" d="m9.5 24.8l-0.2 0.6c-0.4 0.3-0.6 0.2-0.4-0.4l0.2-0.2c0-0.1 0.1-0.2 0.2-0.2 0.2 0 0.2 0.1 0.2 0.2z"></path><path fill="#5c7268" d="m10.5 24.2h3.8l-0.2 0.6c-0.2 0.3-0.3 0.6-0.4 0.9-0.4 0.1-0.8 0.1-1.2 0.1-0.1 0-0.2-0.2-0.3-0.3 0.3 0 0.4-0.1 0.2-0.3 0.1-0.1 0.3-0.1 0.4-0.1v-0.3c-0.7 0-1.5 0-2.2 0.1-0.1 0-0.1 0.1-0.1 0.2-0.1 0.1-0.1 0.2-0.1 0.3-0.1 0.1-0.2 0.2-0.2 0.3-0.1-0.1-0.2-0.2-0.1-0.3-0.1-0.1 0-0.2 0.1-0.3 0.2-0.2 0.3-0.5 0.3-0.9z"></path><path fill="#829089" d="m12.2 25.5c0-0.2 0.2-0.4 0.3-0.5-0.4-0.1-0.7 0.1-0.7 0.6-0.2 0.2-0.3 0.1-0.3-0.1 0.1-0.2 0.1-0.3 0.3-0.5l-0.2-0.1c-0.1 0.1-0.3 0.2-0.3 0.4-0.2-0.5-0.5-0.5-0.8-0.2 0-0.1 0-0.2 0.1-0.2 0.7-0.1 1.5-0.1 2.2-0.1v0.3c-0.1 0-0.3 0-0.4 0.1 0.2 0.2 0.1 0.3-0.2 0.3z"></path><path fill="#d8ddda" d="m15.9 24.2c-0.2 0.5-0.3 1-0.5 1.5-0.1 0.2-0.2 0.3-0.4 0.2-0.1-0.1-0.1-0.2-0.2-0.4-0.2-0.1-0.4 0-0.5 0.2-0.1 0-0.2 0-0.3 0.1l-0.1-0.2c0.1-0.3 0.1-0.5 0.2-0.8 0.2-0.1 0.4-0.3 0.6-0.4 0 0 0.1 0 0.1 0.1-0.1 0.2-0.1 0.4-0.1 0.6 0.1 0.1 0.2 0 0.3-0.1h0.1l0.3-0.2c0.1-0.2 0.1-0.3 0.1-0.6h0.4z"></path><path fill="#899790" d="m14.8 24.5h0.6v0.3l-0.3 0.2c0-0.1 0-0.2 0.1-0.4-0.2-0.1-0.3 0-0.4 0.3 0 0.1 0.1 0.1 0.2 0.1-0.1 0.1-0.2 0.2-0.3 0.1 0-0.2 0-0.4 0.1-0.6z"></path><path fill="#586a62" d="m15.1 25h-0.1c-0.1 0-0.2 0-0.2-0.1 0.1-0.3 0.2-0.4 0.4-0.3-0.1 0.2-0.1 0.3-0.1 0.4z"></path><path fill="#95a69e" d="m27.3 25c0 0.2-0.1 0.3-0.2 0.4-0.1-0.2 0-0.3 0.2-0.4z"></path><path fill="#86948d" d="m22.3 24.9c0.6-0.1 1.1-0.1 1.7 0 0.1 0.3 0 0.5-0.2 0.6 0-0.1 0-0.3 0.1-0.4-0.1-0.1-0.1-0.1-0.2 0-0.1 0.2-0.3 0.4-0.4 0.6 0 0-0.1 0-0.1 0.1h-0.2c0.1-0.2 0.2-0.5 0.3-0.8-0.3-0.1-0.6-0.1-1-0.1z"></path><path fill="#e1e5e2" d="m20.4 24.2h0.6c0.1 0.2 0.1 0.3 0 0.4-0.2 0.1-0.3 0.3-0.4 0.5-0.1 0.2-0.2 0.4-0.2 0.6 0.3 0.1 0.5 0 0.6-0.3 0.2-0.1 0.3-0.3 0.3-0.6 0.2-0.1 0.3-0.3 0.2-0.6h0.6v0.5c-0.1 0.4-0.4 0.9-0.7 1.2-0.6 0.1-1.2 0-1.8-0.1 0-0.1 0-0.2 0.1-0.2 0.2-0.1 0.4-0.3 0.4-0.6 0.1-0.1 0.1-0.3 0.1-0.4l0.2-0.4z"></path><path fill="#abb8b1" d="m21.3 24.8c0 0.3-0.1 0.5-0.3 0.6 0-0.3 0.1-0.5 0.3-0.6z"></path><path fill="#5c7067" d="m21 24.6c0.2 0 0.3 0 0.3 0.2-0.2 0.1-0.3 0.3-0.3 0.6-0.3 0.1-0.4 0.1-0.4-0.3 0.2-0.1 0.4-0.3 0.4-0.5z"></path><path fill="#96a29b" d="m21 24.6c0 0.2-0.2 0.4-0.4 0.5 0.1-0.2 0.2-0.4 0.4-0.5z"></path><path fill="#bbc7c1" d="m21 24.2h0.5c0.1 0.3 0 0.5-0.2 0.6 0-0.2-0.1-0.2-0.3-0.2 0.1-0.1 0.1-0.2 0-0.4z"></path><path fill="#cdd7d1" d="m27.3 25c0.1 0 0.2 0 0.3 0.1-0.1 0.1-0.1 0.2-0.1 0.4h0.3c0.1 0.2 0 0.4-0.2 0.4 0-0.1 0-0.2-0.2-0.2l-0.3 0.2c-0.1 0-0.2-0.1-0.2-0.2 0.1-0.1 0.1-0.2 0.2-0.3 0.1-0.1 0.2-0.2 0.2-0.4z"></path><path fill="#b2c0b7" d="m14.1 24.8c-0.1 0.3-0.1 0.5-0.2 0.8l0.1 0.2c0.1-0.1 0.2-0.1 0.3-0.1-0.1 0.3-0.3 0.4-0.6 0.3v-0.3c0.1-0.3 0.2-0.6 0.4-0.9z"></path><path fill="#8ea297" d="m3.7 22.4v3.6c-0.5 0.1-0.8 0-1.2-0.2h1v-4.6h-0.7c-0.4 0.4-0.7 0.7-1.1 1 0.2-0.3 0.5-0.7 0.7-1 0.4-0.1 0.8-0.1 1.3-0.1v1.3z"></path><path fill="#83998d" d="m34.5 21.1h0.1c-0.1 1.6 0 3.2 0.2 4.7v0.2c-1.3 0.1-2.6 0.1-3.9 0v0.5h-0.8v-0.6c1.1 0.1 2.2 0 3.3-0.1v-2.8h-1.4c0.1-0.3 0.3-0.6 0.5-0.9h0.2c-0.2 0.2-0.3 0.4-0.1 0.7 0.2 0.1 0.5 0.1 0.9 0.1-0.1 1 0 1.9 0.1 2.8 0.3 0.1 0.6 0.2 0.9 0.1v-4.7z"></path><path fill="#ebeae9" d="m34.4 25.1v0.6h-0.7v-1.5c0.5 0.1 0.6 0.3 0.3 0.7 0.1 0.1 0.2 0.2 0.4 0.2z"></path><path fill="#dddcdc" d="m34.4 25.1c-0.2 0-0.3-0.1-0.4-0.2 0.3-0.4 0.2-0.6-0.3-0.7v1.5h-0.1v-2.7c0.3 0 0.5 0.1 0.7 0.3 0.1 0.6 0.1 1.2 0.1 1.8z"></path><path fill="#7a9487" d="m8.3 24.8v0.2c-0.3 0.3-0.3 0.6-0.1 1 0.4 0.1 0.9 0.1 1.4 0 0.1-0.1 0.2-0.2 0.2-0.3 0.1-0.1 0.2-0.2 0.3-0.3-0.1 0.1 0 0.2 0.1 0.3v0.3c0.3 0.1 0.4 0 0.4-0.3 0-0.1 0.1-0.1 0.1-0.1 0.2 0.2 0.4 0.3 0.6 0.3 0.1 0 0.1 0 0.2-0.1 0.3 0.2 0.6 0.3 1 0.2-1.4 0.2-2.9 0.2-4.5 0.1 0-0.1-0.1-0.2-0.1-0.3 0-0.4 0.1-0.7 0.4-1z"></path><path fill="#7c9387" d="m22.1 24.7c0 0.1 0 0.2 0.1 0.2l-0.2 0.7c-0.1 0.1-0.1 0.3-0.1 0.4-1.9 0.2-3.9 0.2-5.8 0 0.3 0.1 0.5 0 0.7 0 0.1-0.1 0.1-0.1 0.1-0.2 0-0.2 0.1-0.4 0.3-0.5 0 0 0 0.1 0.1 0.1v0.1c-0.2 0.1-0.3 0.3-0.3 0.5 0.8 0.1 1.5 0 2.3 0 0.1-0.1 0.1-0.1 0.1-0.2h0.1c0.3 0.2 0.6 0.2 1 0.2 0.3 0 0.6 0 0.9-0.1 0.3-0.3 0.6-0.8 0.7-1.2z"></path><path fill="#6c8e7d" d="m0.7 23.3h0.1v2.6h1.6v-1.7c0-0.3 0-0.6 0.1-0.9v2.5c0.4 0.2 0.7 0.3 1.2 0.2v-0.3c1.4 0.1 2.8 0.2 4.2 0.1 0 0.1 0.1 0.2 0.1 0.3 1.6 0.1 3.1 0.1 4.5-0.1v-0.2c0.4 0 0.8 0 1.2-0.1v0.3c0.3 0.1 0.5 0 0.6-0.3 0.1-0.2 0.3-0.3 0.5-0.2 0.1 0.2 0.1 0.3 0.2 0.4 0.4 0.1 0.7 0.2 1.1 0.1 1.9 0.2 3.9 0.2 5.8 0 0.4 0.1 0.8 0 1.1-0.2h0.2c0.1 0.2 0.3 0.2 0.5 0.2 0.7 0 0.7-0.1 0.1-0.3h0.6v0.3h0.9c0.2 0.1 0.4 0 0.5-0.1 0.1-0.2 0.3-0.3 0.6-0.3v0.3h0.3v-1l0.2 0.8c0 0.1 0.1 0.2 0.2 0.2l0.3-0.2c0.2 0 0.2 0.1 0.2 0.2 0.1 0.1 0.2 0.2 0.4 0.1-0.1-0.2 0-0.4 0.1-0.5v0.3h5.3c-1.1 0.1-2.2 0.2-3.3 0.1v0.6c-9.9 0-19.8 0-29.6-0.1 0-1.3 0-2.5 0.1-3.7 0 0.2 0 0.4 0.1 0.6z"></path><path fill="#90a199" d="m25 25.3v0.4h0.6c0 0.2 0.1 0.2 0.2 0.2-0.1 0.1-0.3 0.2-0.5 0.1-0.1-0.1-0.2-0.2-0.4-0.2v-0.3c0-0.1 0-0.2 0.1-0.2z"></path><path fill="#aebcb3" d="m24.6 25.4c0 0.7 0.1 0.7 0.3 0.1v0.3c0.2 0 0.3 0.1 0.4 0.2h-0.9v-0.3l0.2-0.3z"></path><path fill="#a2b5ac" d="m19.5 25.8h0.1c0.6 0.1 1.2 0.2 1.8 0.1-0.3 0.1-0.6 0.1-0.9 0.1-0.4 0-0.7 0-1-0.2z"></path><path fill="#a1b1a9" d="m18.8 25.3c0 0.1 0 0.2-0.1 0.3 0.1 0.1 0.2 0.1 0.3 0.1 0.1 0.1 0.2 0.1 0.4 0v0.1c0 0.1 0 0.1-0.1 0.2-0.8 0-1.5 0.1-2.3 0 0-0.2 0.1-0.4 0.3-0.5-0.1 0.1 0 0.3 0.1 0.4 0.2-0.2 0.3-0.5 0.3-0.8 0.1 0 0.2 0 0.4 0.1l-0.3 0.7c0.3 0 0.5 0 0.7 0 0-0.3 0.1-0.5 0.3-0.6z"></path><path fill="#92a49c" d="m16.9 25.8c0 0.1 0 0.1-0.1 0.2-0.2 0-0.4 0.1-0.7 0-0.4 0.1-0.7 0-1.1-0.1 0.2 0.1 0.3 0 0.4-0.2 0.1 0 0.3 0 0.4-0.1v0.3h0.3c0-0.3 0.1-0.6 0.4-0.8l0.2 0.1c-0.1 0.2-0.2 0.4-0.3 0.6 0.1 0.1 0.3 0.1 0.5 0z"></path><path fill="#a6b6af" d="m11.5 25.5c0 0.2 0.1 0.3 0.3 0.1-0.1 0.1 0 0.2 0.1 0.3 0.1-0.1 0.2-0.2 0.3-0.4 0.1 0.1 0.2 0.3 0.3 0.3v0.2c-0.4 0.1-0.7 0-1-0.2-0.1 0.1-0.1 0.1-0.2 0.1 0-0.2 0.1-0.3 0.2-0.4z"></path><path fill="#abb9b0" d="m23.8 25.5v0.2c0.6 0.2 0.6 0.3-0.1 0.3-0.2 0-0.4 0-0.5-0.2 0-0.1 0.1-0.1 0.1-0.1 0.1 0.2 0.2 0.3 0.4 0.2 0-0.1 0-0.3 0.1-0.4z"></path><path fill="#a9b6af" d="m22.4 25.5c0 0.1 0.1 0.2 0.3 0.2 0 0.3 0.1 0.3 0.3 0.1-0.3 0.2-0.7 0.3-1.1 0.2 0-0.1 0-0.3 0.1-0.4 0 0.1 0 0.2 0.1 0.2 0.1-0.1 0.2-0.3 0.3-0.3z"></path><path fill="#c1cdc6" d="m8.3 25c-0.1 0.3-0.1 0.6-0.1 0.8h0.3c0-0.2 0-0.3 0.2-0.4v0.3h0.4c0.2 0.1 0.5 0.1 0.7 0 0 0.1-0.1 0.2-0.2 0.3-0.5 0.1-1 0.1-1.4 0-0.2-0.4-0.2-0.7 0.1-1z"></path><path fill="#ced9d4" d="m22.2 24.9h0.1c0.4 0 0.7 0 1 0.1-0.1 0.3-0.2 0.6-0.3 0.8-0.2 0.2-0.3 0.2-0.3-0.1 0-0.2 0-0.3 0.1-0.4-0.2-0.2-0.3-0.1-0.4 0.2-0.1 0-0.2 0.2-0.3 0.3-0.1 0-0.1-0.1-0.1-0.2l0.2-0.7z"></path><path fill="#adbbb4" d="m10.4 25.4c0 0.1 0 0.3 0.1 0.4 0 0 0.1-0.1 0.1-0.1 0 0.3-0.1 0.4-0.4 0.3v-0.3c0-0.1 0.1-0.2 0.2-0.3z"></path><path fill="#d5ddd8" d="m23.8 25.5c-0.1 0.1-0.1 0.3-0.1 0.4-0.2 0.1-0.3 0-0.4-0.2 0.1-0.2 0.3-0.4 0.4-0.6 0.1-0.1 0.1-0.1 0.2 0-0.1 0.1-0.1 0.3-0.1 0.4z"></path><path fill="#7f8f8a" d="m22.7 25.7c-0.2 0-0.3-0.1-0.3-0.2 0.1-0.3 0.2-0.4 0.4-0.2-0.1 0.1-0.1 0.2-0.1 0.4z"></path><path fill="#a2aca7" d="m8.9 25c-0.2 0.6 0 0.7 0.4 0.4 0 0.1-0.1 0.3-0.2 0.3h-0.4v-0.3c0-0.2 0.1-0.3 0.2-0.4z"></path><path fill="#cbd5d1" d="m26.7 24.9v1h-0.3v-0.3c-0.3 0-0.5 0.1-0.6 0.3-0.1 0-0.2 0-0.2-0.2 0.1-0.6 0.5-0.9 1.1-0.8z"></path><path fill="#ced7d1" d="m25 25.3c-0.1 0-0.1 0.1-0.1 0.2-0.2 0.6-0.3 0.6-0.3-0.1 0-0.4 0.2-0.5 0.5-0.5 0.1 0.2 0 0.3-0.1 0.4z"></path><path fill="#8b9892" d="m20.6 25.1c0 0.4 0.1 0.4 0.4 0.3-0.1 0.3-0.3 0.4-0.6 0.3 0-0.2 0.1-0.4 0.2-0.6z"></path><path fill="#d1d6d2" d="m12.2 25.5c-0.1 0.2-0.2 0.3-0.3 0.4-0.1-0.1-0.2-0.2-0.1-0.3 0-0.5 0.3-0.7 0.7-0.6-0.1 0.1-0.3 0.3-0.3 0.5z"></path><path fill="#d1d7d4" d="m11.5 25.5c-0.1 0.1-0.2 0.2-0.2 0.4-0.2 0-0.4-0.1-0.6-0.3 0 0-0.1 0-0.1 0.1 0 0-0.1 0.1-0.1 0.1-0.1-0.1-0.1-0.3-0.1-0.4 0-0.1 0-0.2 0.1-0.3 0.3-0.3 0.6-0.3 0.8 0.2 0-0.2 0.2-0.3 0.3-0.4l0.2 0.1c-0.2 0.2-0.2 0.3-0.3 0.5z"></path><path fill="#d3d8d4" d="m17.2 25.1v0.2c-0.2 0.1-0.3 0.3-0.3 0.5-0.2 0.1-0.4 0.1-0.5 0 0.1-0.2 0.2-0.4 0.3-0.6l-0.2-0.1c-0.3 0.2-0.4 0.5-0.4 0.8h-0.3v-0.3c0.1-0.5 0.4-0.7 0.8-0.7 0.3 0 0.4 0.1 0.6 0.2z"></path><path fill="#c8d0cb" d="m17.6 24.9c0.7-0.1 1.4 0 2 0.2-0.1 0.2-0.2 0.4-0.2 0.6-0.2 0.1-0.3 0.1-0.4 0-0.1-0.2 0-0.4 0.2-0.5-0.2-0.1-0.3-0.1-0.4 0.1-0.2 0.1-0.3 0.3-0.3 0.6-0.2 0-0.4 0-0.7 0l0.3-0.7c-0.2-0.1-0.3-0.1-0.4-0.1 0 0.3-0.1 0.6-0.3 0.8-0.1-0.1-0.2-0.3-0.1-0.4v-0.1c0.1-0.2 0.2-0.3 0.3-0.5z"></path><path fill="#77847f" d="m19 25.7c-0.1 0-0.2 0-0.3-0.1 0.1-0.1 0.1-0.2 0.1-0.3 0.1-0.2 0.2-0.2 0.4-0.1-0.2 0.1-0.3 0.3-0.2 0.5z"></path><path fill="#5b7467" d="m0.8 24.2h1.6v1.7h-1.6v-1.7z"></path><path fill="#8ca597" d="m34.8 26v0.5h-3.9v-0.5c1.3 0.1 2.6 0.1 3.9 0z"></path><path fill="#4d6a5c" d="m0.5 26.4c9.8 0.1 19.7 0.1 29.6 0.1h5.2c-11.6 0.1-23.3 0.1-34.9 0.1 0-0.1 0-0.2 0.1-0.2z"></path><path fill="#7e9287" d="m35.3 9.2c0.1 5.8 0.1 11.6 0.1 17.5h-35.1v-0.1h0.1c11.6 0 23.3 0 34.9-0.1v-17.3z"></path></svg>