<svg xmlns="http://www.w3.org/2000/svg" width="256" height="256" viewBox="0 0 256 256" version="1.1">
	<path fill-opacity="0.376" d="M 109 4.585 C 63.455 11.873, 24.381 44.667, 10.109 87.580 C -2.623 125.866, 2.463 164.972, 24.477 198.039 C 53.981 242.358, 108.538 263.024, 160.340 249.506 C 206.374 237.493, 241.280 200.914, 251.478 154 C 254.089 141.989, 254.586 121.212, 252.557 108.895 C 248.139 82.074, 236.687 59.672, 217.537 40.396 C 199.359 22.098, 178.863 10.992, 153 5.427 C 142.304 3.126, 120.701 2.712, 109 4.585 M 185.607 75.332 C 179.773 83.267, 175 90.038, 175 90.380 C 175 90.721, 177.717 91, 181.037 91 L 187.074 91 186.787 125.909 L 186.500 160.817 183.394 164.659 C 178.879 170.242, 174.899 172.203, 166.916 172.774 C 155.241 173.609, 146.628 168.523, 144.060 159.277 C 143.410 156.934, 143.009 140.391, 143.006 115.714 L 143 75.928 133.250 76.214 L 123.500 76.500 123.500 119 C 123.500 157.704, 123.665 161.991, 125.350 167 C 127.605 173.702, 131.520 179.202, 136.806 183.089 C 151.885 194.178, 181.942 192.648, 196.277 180.062 C 198.302 178.284, 201.431 173.841, 203.229 170.189 L 206.500 163.549 206.807 127.319 L 207.114 91.089 213.449 90.794 L 219.784 90.500 208.811 76 C 202.776 68.025, 197.473 61.366, 197.026 61.202 C 196.579 61.038, 191.440 67.397, 185.607 75.332 M 59 132 L 59 188 94.627 188 L 130.255 188 126.198 183.599 C 123.967 181.179, 121.206 177.364, 120.061 175.121 L 117.981 171.042 98.240 170.771 L 78.500 170.500 78.240 123.250 L 77.980 76 68.490 76 L 59 76 59 132" stroke="none" fill="black" fill-rule="evenodd"/>
	<path fill-opacity="0.233" d="M 115.268 4.032 C 68.003 9, 26.754 41.614, 10.627 86.766 C 1.328 112.801, 1.333 144.320, 10.641 170.234 C 21.489 200.434, 44.540 226.236, 73.777 240.907 C 106.152 257.151, 148.171 257.193, 182.704 241.016 C 204.465 230.822, 225.763 211.030, 237.491 190.105 C 252.105 164.029, 257.026 133.445, 251.389 103.731 C 242.721 58.035, 206.225 19.406, 160.495 7.524 C 145.291 3.574, 130.495 2.431, 115.268 4.032 M 185.269 75.250 L 174.086 90.500 180.591 90.797 L 187.097 91.094 186.799 125.372 L 186.500 159.650 183.749 163.805 C 180.355 168.931, 174.486 172.055, 166.968 172.737 C 157.283 173.615, 149.645 169.993, 145.727 162.666 C 143.544 158.582, 143.494 157.692, 143.190 117.250 L 142.879 76 132.940 76 L 123 76 123 116.833 C 123 143.531, 123.397 159.641, 124.146 163.371 C 127.360 179.375, 140.258 189.339, 159.519 190.699 C 180.208 192.159, 196.678 184.500, 203.730 170.142 L 206.500 164.500 206.796 127.795 L 207.092 91.089 213.655 90.795 L 220.218 90.500 208.566 75.250 C 202.156 66.862, 196.809 60, 196.683 60 C 196.556 60, 191.420 66.862, 185.269 75.250 M 59 132.500 L 59 189 94.500 189 C 114.025 189, 130 188.769, 130 188.486 C 130 188.203, 128.088 185.608, 125.750 182.719 C 123.412 179.830, 120.610 175.787, 119.523 173.733 L 117.545 170 97.773 170 L 78 170 78 123 L 78 76 68.500 76 L 59 76 59 132.500" stroke="none" fill="black" fill-rule="evenodd"/>
	<path fill-opacity="0.500" d="M 106.555 5.614 C 54.486 15.013, 14.594 55.520, 5.365 108.364 C 3.417 119.516, 4.018 144.931, 6.468 155 C 17.279 199.434, 47.607 232.955, 89.611 246.895 C 117.214 256.055, 149.411 254.773, 176.275 243.443 C 215.306 226.982, 243.518 192.033, 251.672 150.043 C 253.884 138.651, 253.836 116.315, 251.576 105.500 C 242.172 60.500, 210.922 24.373, 169.322 10.408 C 150.704 4.158, 125.346 2.221, 106.555 5.614 M 185.087 75.015 C 178.989 83.274, 174 90.249, 174 90.515 C 174 90.782, 176.952 91, 180.560 91 L 187.121 91 186.810 124.750 C 186.539 154.240, 186.286 158.891, 184.801 161.602 C 182.292 166.182, 176.561 170.794, 172.271 171.684 C 166.599 172.861, 157.574 172.350, 154.356 170.670 C 150.590 168.703, 146.387 164.187, 145.064 160.685 C 144.375 158.863, 144 143.426, 144 116.935 L 144 76 133.452 76 L 122.904 76 123.202 120.750 L 123.500 165.500 126.300 171.203 C 129.798 178.325, 137.248 185.156, 144.798 188.164 C 149.734 190.130, 152.313 190.436, 164 190.442 C 175.390 190.448, 178.403 190.112, 183.275 188.292 C 194.183 184.216, 201.778 176.911, 205.775 166.652 C 207.129 163.178, 207.455 156.665, 207.774 126.750 L 208.155 91 214.161 91 C 217.464 91, 220.017 90.598, 219.833 90.106 C 219.217 88.455, 197.508 60.062, 196.837 60.031 C 196.472 60.014, 191.185 66.757, 185.087 75.015 M 58.473 76.214 C 58.202 76.921, 58.097 102.475, 58.240 133 L 58.500 188.500 94.750 188.762 C 114.688 188.907, 131 188.851, 131 188.638 C 131 188.425, 129.381 186.507, 127.402 184.376 C 125.423 182.244, 122.455 178.137, 120.806 175.250 L 117.809 170 98.414 170 L 79.020 170 78.760 122.750 L 78.500 75.500 68.733 75.214 C 61.480 75.001, 58.838 75.258, 58.473 76.214" stroke="none" fill="black" fill-rule="evenodd"/>
	<path fill-opacity="0.115" d="M 106.655 5.597 C 82.653 9.933, 58.607 22.707, 40.657 40.657 C 16.914 64.400, 4.012 95.186, 4.003 128.119 C 3.994 161.033, 16.013 190.564, 39.188 214.569 C 63.707 239.966, 95.426 253.339, 129.881 252.804 L 142.500 252.609 132.363 252.054 L 122.226 251.500 103.670 233.359 C 93.464 223.382, 84.864 215.470, 84.557 215.776 C 84.251 216.083, 84 215.808, 84 215.167 C 84 214.525, 82.987 213.993, 81.750 213.985 C 80.238 213.974, 79.913 213.707, 80.761 213.169 C 81.701 212.572, 81.411 211.795, 79.616 210.109 C 78.078 208.664, 76.971 208.237, 76.546 208.925 C 76.169 209.536, 76.641 210, 77.641 210 C 78.936 210, 79.106 210.294, 78.283 211.117 C 76.676 212.724, 74.160 210.114, 74.825 207.530 C 75.289 205.726, 75.158 205.655, 73.649 206.893 C 71.395 208.742, 70.459 207.684, 72.524 205.619 C 73.414 204.729, 73.693 204, 73.143 204 C 72.593 204, 71.464 204.678, 70.635 205.508 C 69.806 206.337, 68.871 206.600, 68.558 206.093 C 68.244 205.586, 68.408 205.020, 68.921 204.835 C 69.937 204.470, 60.233 193.509, 58.339 192.883 C 56.492 192.273, 48.653 181.060, 45.489 174.500 C 43.897 171.200, 42.297 168.275, 41.934 168 C 41.570 167.725, 40.249 164.238, 38.997 160.250 C 37.746 156.262, 36.157 153, 35.468 153 C 34.778 153, 33.941 152.288, 33.607 151.418 C 32.668 148.972, 32.872 148.649, 34.500 150 C 35.766 151.051, 36 150.849, 36 148.706 C 36 147.309, 35.480 145.993, 34.843 145.781 C 33.434 145.311, 33.233 110.139, 34.634 109.141 C 35.528 108.505, 37.648 102.020, 38.686 96.750 C 38.983 95.238, 39.626 94, 40.113 94 C 40.601 94, 41 93.100, 41 92 C 41 90.900, 41.436 90, 41.969 90 C 42.501 90, 42.678 89.325, 42.362 88.500 C 42.045 87.675, 42.284 87, 42.893 87 C 43.502 87, 44 86.100, 44 85 C 44 83.900, 44.450 83, 45 83 C 45.550 83, 46 82.295, 46 81.433 C 46 79.923, 48.647 75.923, 53.968 69.393 C 55.361 67.684, 57.276 65.329, 58.225 64.160 C 59.174 62.991, 59.694 61.239, 59.381 60.267 C 58.909 58.804, 58.991 58.755, 59.858 59.982 C 60.745 61.238, 61.408 61.008, 64.187 58.482 C 65.992 56.842, 67.700 55.242, 67.984 54.927 C 68.268 54.612, 69.319 54.052, 70.319 53.682 C 71.596 53.210, 71.948 52.412, 71.502 51.005 C 71.122 49.808, 71.319 49, 71.992 49 C 72.611 49, 72.840 49.450, 72.500 50 C 72.160 50.550, 72.359 51, 72.941 51 C 73.523 51, 74 50.602, 74 50.117 C 74 49.631, 74.787 48.964, 75.750 48.636 C 76.713 48.307, 79.770 46.735, 82.545 45.143 C 85.319 43.552, 89.032 41.932, 90.795 41.545 C 93.079 41.043, 94 40.275, 94 38.871 C 94 37.326, 94.360 37.102, 95.666 37.833 C 97.495 38.857, 102.965 37.674, 103.978 36.036 C 105.738 33.188, 144.862 32.085, 145.786 34.858 C 145.995 35.486, 147.734 36, 149.649 36 C 151.564 36, 153.889 36.405, 154.816 36.901 C 155.742 37.396, 157.947 38.030, 159.715 38.308 C 161.484 38.587, 164.253 39.756, 165.870 40.907 C 167.486 42.058, 169.697 43, 170.782 43 C 171.867 43, 173.315 43.675, 174 44.500 C 174.685 45.325, 175.865 46, 176.622 46 C 177.380 46, 178 46.450, 178 47 C 178 47.550, 178.787 48.006, 179.750 48.013 C 180.713 48.021, 183.975 50.265, 187 53 C 190.025 55.735, 192.838 57.979, 193.250 57.987 C 194.949 58.017, 193.786 61.293, 190.406 65.998 C 188.430 68.749, 187.041 71, 187.321 71 C 187.601 71, 189.521 68.638, 191.588 65.750 C 193.656 62.863, 195.653 60.139, 196.026 59.697 C 196.400 59.256, 200.173 63.419, 204.411 68.947 C 208.649 74.476, 212.341 79, 212.617 79 C 212.892 79, 211.009 76.261, 208.433 72.913 C 205.589 69.218, 204.585 67.348, 205.875 68.154 C 207.044 68.884, 208 69.849, 208 70.300 C 208 70.750, 208.520 70.797, 209.155 70.405 C 209.923 69.930, 210.035 70.134, 209.490 71.015 C 208.901 71.969, 209.124 72.166, 210.285 71.721 C 211.472 71.265, 211.735 71.528, 211.279 72.715 C 210.867 73.789, 211.051 74.087, 211.830 73.605 C 212.474 73.207, 213 73.371, 213 73.968 C 213 75.396, 216.373 79.112, 235.500 98.752 C 244.442 107.934, 251.815 116.355, 252.214 117.841 C 252.606 119.303, 252.706 117.464, 252.436 113.754 C 251.249 97.440, 243.380 76.270, 232.342 59.689 C 213.877 31.952, 185.178 12.761, 152.077 6.016 C 140.221 3.600, 118.803 3.402, 106.655 5.597 M 115.762 31.707 C 117.006 31.946, 118.806 31.937, 119.762 31.687 C 120.718 31.437, 119.700 31.241, 117.500 31.252 C 115.300 31.263, 114.518 31.468, 115.762 31.707 M 202 64 C 202.589 65.100, 203.295 66, 203.570 66 C 203.845 66, 203.589 65.100, 203 64 C 202.411 62.900, 201.705 62, 201.430 62 C 201.155 62, 201.411 62.900, 202 64 M 184.872 73.750 C 183.629 75.336, 183.664 75.371, 185.250 74.128 C 186.213 73.373, 187 72.585, 187 72.378 C 187 71.555, 186.179 72.084, 184.872 73.750 M 61.250 74.728 C 63.313 74.944, 66.688 74.944, 68.750 74.728 C 70.813 74.513, 69.125 74.336, 65 74.336 C 60.875 74.336, 59.188 74.513, 61.250 74.728 M 57.405 91.500 C 57.406 100.300, 57.559 103.766, 57.745 99.203 C 57.930 94.639, 57.929 87.439, 57.742 83.203 C 57.555 78.966, 57.404 82.700, 57.405 91.500 M 181.872 77.750 C 180.629 79.336, 180.664 79.371, 182.250 78.128 C 183.213 77.373, 184 76.585, 184 76.378 C 184 75.555, 183.179 76.084, 181.872 77.750 M 79.240 123.250 L 79 170 98.750 169.773 L 118.500 169.546 99.260 169.251 L 80.020 168.957 79.750 122.728 L 79.480 76.500 79.240 123.250 M 144.456 117 C 144.456 139.275, 144.588 148.388, 144.749 137.250 C 144.910 126.113, 144.910 107.888, 144.749 96.750 C 144.588 85.613, 144.456 94.725, 144.456 117 M 213 80.378 C 213 80.585, 213.787 81.373, 214.750 82.128 C 216.336 83.371, 216.371 83.336, 215.128 81.750 C 213.821 80.084, 213 79.555, 213 80.378 M 218.437 87.329 C 219.977 89.348, 221.440 91, 221.687 91 C 222.381 91, 218.052 85.150, 216.772 84.359 C 216.148 83.973, 216.897 85.310, 218.437 87.329 M 177 92.558 C 180.787 93.382, 186 93.522, 186 92.799 C 186 92.360, 183.637 92.052, 180.750 92.116 C 177.863 92.180, 176.175 92.379, 177 92.558 M 208.236 125.250 L 208.472 158.500 208.749 125.821 C 209.005 95.773, 209.167 93.105, 210.764 92.687 C 212.054 92.349, 211.922 92.202, 210.250 92.116 L 208 92 208.236 125.250 M 214.250 92.689 C 215.213 92.941, 216.787 92.941, 217.750 92.689 C 218.713 92.438, 217.925 92.232, 216 92.232 C 214.075 92.232, 213.287 92.438, 214.250 92.689 M 36.459 98.067 C 36.096 98.653, 36.014 99.348, 36.276 99.610 C 36.538 99.872, 37.019 99.392, 37.345 98.543 C 38.021 96.781, 37.445 96.471, 36.459 98.067 M 57.483 149 L 57.500 189.500 94.500 189.519 L 131.500 189.538 94.761 189.257 L 58.022 188.975 57.744 148.738 L 57.466 108.500 57.483 149 M 253.286 128.500 C 253.294 131.250, 253.488 132.256, 253.718 130.736 C 253.947 129.216, 253.941 126.966, 253.704 125.736 C 253.467 124.506, 253.279 125.750, 253.286 128.500 M 252.272 141 C 252.272 143.475, 252.467 144.488, 252.706 143.250 C 252.944 142.012, 252.944 139.988, 252.706 138.750 C 252.467 137.512, 252.272 138.525, 252.272 141 M 251.195 148.500 C 251.215 150.150, 251.439 150.704, 251.693 149.731 C 251.947 148.758, 251.930 147.408, 251.656 146.731 C 251.382 146.054, 251.175 146.850, 251.195 148.500 M 250.158 154 C 250.158 155.375, 250.385 155.938, 250.662 155.250 C 250.940 154.563, 250.940 153.438, 250.662 152.750 C 250.385 152.063, 250.158 152.625, 250.158 154 M 122.300 158 C 122.300 161.025, 122.487 162.262, 122.716 160.750 C 122.945 159.238, 122.945 156.762, 122.716 155.250 C 122.487 153.738, 122.300 154.975, 122.300 158 M 184.645 157.816 C 183.841 162.847, 180.674 166.789, 175.579 169.104 C 173.335 170.122, 172.085 170.966, 172.800 170.978 C 175.114 171.017, 179.697 168.148, 182.341 165.006 C 184.734 162.163, 186.870 155.536, 185.753 154.420 C 185.485 154.152, 184.987 155.680, 184.645 157.816 M 248.571 159.571 C 248.204 161.037, 248.096 162.429, 248.331 162.665 C 248.567 162.900, 249.061 161.894, 249.429 160.429 C 249.796 158.963, 249.904 157.571, 249.669 157.335 C 249.433 157.100, 248.939 158.106, 248.571 159.571 M 145.039 158.800 C 144.977 160.878, 147.595 165.335, 150.148 167.495 L 152.500 169.486 150.304 166.986 C 149.096 165.611, 147.426 162.914, 146.593 160.993 C 145.760 159.072, 145.061 158.085, 145.039 158.800 M 207.158 162 C 207.158 163.375, 207.385 163.938, 207.662 163.250 C 207.940 162.563, 207.940 161.438, 207.662 160.750 C 207.385 160.063, 207.158 160.625, 207.158 162 M 123.079 165.583 C 123.127 166.748, 123.364 166.985, 123.683 166.188 C 123.972 165.466, 123.936 164.603, 123.604 164.271 C 123.272 163.939, 123.036 164.529, 123.079 165.583 M 204.641 169.541 C 202.148 175.585, 195.709 182.355, 189 185.987 C 185.975 187.624, 183.950 188.968, 184.500 188.973 C 186.735 188.992, 195.829 182.932, 199.254 179.141 C 203.098 174.886, 207.333 167.487, 206.808 165.943 C 206.639 165.443, 205.664 167.063, 204.641 169.541 M 124 168.373 C 124 169.599, 127.928 176.837, 128.929 177.456 C 129.455 177.781, 128.710 175.899, 127.274 173.274 C 124.305 167.847, 124 167.391, 124 168.373 M 160.728 171.722 C 162.503 171.943, 165.653 171.946, 167.728 171.730 C 169.802 171.513, 168.350 171.333, 164.500 171.328 C 160.650 171.324, 158.952 171.501, 160.728 171.722 M 122.683 177.768 C 123.656 179.565, 126.246 182.715, 128.437 184.768 L 132.422 188.500 128.461 184 C 126.282 181.525, 123.693 178.375, 122.706 177 C 120.974 174.585, 120.973 174.611, 122.683 177.768 M 131.690 181.110 C 132.895 182.424, 135.370 184.357, 137.190 185.406 C 141.353 187.802, 140.794 187.192, 134.500 182.471 C 131.555 180.261, 130.400 179.702, 131.690 181.110 M 149.813 190.683 C 150.534 190.972, 151.397 190.936, 151.729 190.604 C 152.061 190.272, 151.471 190.036, 150.417 190.079 C 149.252 190.127, 149.015 190.364, 149.813 190.683 M 176.750 190.662 C 177.438 190.940, 178.563 190.940, 179.250 190.662 C 179.938 190.385, 179.375 190.158, 178 190.158 C 176.625 190.158, 176.063 190.385, 176.750 190.662 M 154.750 191.706 C 155.988 191.944, 158.012 191.944, 159.250 191.706 C 160.488 191.467, 159.475 191.272, 157 191.272 C 154.525 191.272, 153.512 191.467, 154.750 191.706 M 169.762 191.707 C 171.006 191.946, 172.806 191.937, 173.762 191.687 C 174.718 191.437, 173.700 191.241, 171.500 191.252 C 169.300 191.263, 168.518 191.468, 169.762 191.707 M 59 196.333 C 59 197.260, 59.777 197.993, 60.750 197.985 C 61.749 197.976, 62.071 197.649, 61.500 197.223 C 60.950 196.813, 60.163 196.069, 59.750 195.572 C 59.337 195.074, 59 195.417, 59 196.333 M 61.500 200 C 61.840 200.550, 62.316 201, 62.559 201 C 62.802 201, 63 200.550, 63 200 C 63 199.450, 62.523 199, 61.941 199 C 61.359 199, 61.160 199.450, 61.500 200 M 215.946 216.750 L 212.500 220.500 216.250 217.054 C 219.740 213.846, 220.460 213, 219.696 213 C 219.529 213, 217.842 214.688, 215.946 216.750 M 206.872 224.750 C 205.629 226.336, 205.664 226.371, 207.250 225.128 C 208.916 223.821, 209.445 223, 208.622 223 C 208.415 223, 207.627 223.787, 206.872 224.750 M 155.813 249.683 C 156.534 249.972, 157.397 249.936, 157.729 249.604 C 158.061 249.272, 157.471 249.036, 156.417 249.079 C 155.252 249.127, 155.015 249.364, 155.813 249.683 M 150.750 250.662 C 151.438 250.940, 152.563 250.940, 153.250 250.662 C 153.938 250.385, 153.375 250.158, 152 250.158 C 150.625 250.158, 150.063 250.385, 150.750 250.662 M 145.269 251.693 C 146.242 251.947, 147.592 251.930, 148.269 251.656 C 148.946 251.382, 148.150 251.175, 146.500 251.195 C 144.850 251.215, 144.296 251.439, 145.269 251.693" stroke="none" fill="black" fill-rule="evenodd"/>
</svg>