<?xml version="1.0" encoding="UTF-8"?>
<!DOCTYPE svg PUBLIC "-//W3C//DTD SVG 1.1//EN" "http://www.w3.org/Graphics/SVG/1.1/DTD/svg11.dtd">
<svg xmlns="http://www.w3.org/2000/svg" version="1.1" width="256px" height="256px" style="shape-rendering:geometricPrecision; text-rendering:geometricPrecision; image-rendering:optimizeQuality; fill-rule:evenodd; clip-rule:evenodd" xmlns:xlink="http://www.w3.org/1999/xlink">
<g><path style="opacity:1" fill="#b165cf" d="M 138.5,2.5 C 142.733,2.53866 146.733,3.20532 150.5,4.5C 147.15,4.66501 143.817,4.49834 140.5,4C 139.584,3.72158 138.918,3.22158 138.5,2.5 Z"/></g>
<g><path style="opacity:1" fill="#9317ca" d="M 138.5,2.5 C 138.918,3.22158 139.584,3.72158 140.5,4C 143.817,4.49834 147.15,4.66501 150.5,4.5C 201.64,15.1384 234.807,45.4718 250,95.5C 251.416,100.412 252.249,105.412 252.5,110.5C 252.66,112.199 252.494,113.866 252,115.5C 247.297,110.965 242.797,106.298 238.5,101.5C 239.072,99.8812 239.405,98.2145 239.5,96.5C 238.811,94.556 238.311,92.556 238,90.5C 235.107,82.8828 231.273,75.7161 226.5,69C 226.833,68.6667 227.167,68.3333 227.5,68C 225.023,64.1922 222.19,60.6922 219,57.5C 218.51,56.2068 218.343,54.8734 218.5,53.5C 212.833,49.9576 207.833,45.4576 203.5,40C 199.217,37.3847 195.217,34.3847 191.5,31C 178.92,23.4134 165.254,18.0801 150.5,15C 145.989,14.5989 141.489,14.0989 137,13.5C 134.721,13.4387 132.721,14.1054 131,15.5C 116.083,12.6999 101.583,14.3665 87.5,20.5C 86.914,20.2907 86.414,19.9574 86,19.5C 84.6598,20.8678 83.3264,22.2011 82,23.5C 77.6341,24.6773 73.4674,26.344 69.5,28.5C 47.3657,42.125 31.1991,60.7917 21,84.5C 5.75608,128.582 12.5894,168.582 41.5,204.5C 48.0424,210.879 54.7091,217.045 61.5,223C 70.8843,228.275 80.2177,232.942 89.5,237C 95.1199,238.464 100.787,239.964 106.5,241.5C 107.506,241.062 107.506,240.396 106.5,239.5C 105.397,239.002 104.397,238.669 103.5,238.5C 104.005,237.081 105.005,236.415 106.5,236.5C 111.965,241.464 117.298,246.63 122.5,252C 119.518,252.498 116.518,252.665 113.5,252.5C 71.4329,246.92 39.5995,225.92 18,189.5C 15.5965,185.365 13.7632,181.032 12.5,176.5C 12.9198,174.604 12.9198,172.771 12.5,171C 10.537,165.961 8.20366,161.128 5.5,156.5C 5.5,155.833 5.5,155.167 5.5,154.5C 3.87231,140.555 3.20565,126.555 3.5,112.5C 12.0084,59.4911 41.6751,24.3244 92.5,7C 107.575,3.02183 122.908,1.52183 138.5,2.5 Z"/></g>
<g><path style="opacity:1" fill="#9711ce" d="M 238.5,101.5 C 227.115,90.6171 215.782,79.4505 204.5,68C 203.906,67.5357 203.239,67.369 202.5,67.5C 201.164,65.9897 199.997,64.3231 199,62.5C 198.184,61.1772 197.017,60.5106 195.5,60.5C 173.497,38.9227 146.164,30.0894 113.5,34C 73.8749,41.6176 48.0416,64.7843 36,103.5C 28.9429,133.929 34.6096,161.596 53,186.5C 53.6667,185.167 54.3333,183.833 55,182.5C 55.1705,184.715 55.8372,186.715 57,188.5C 57.1674,150.664 57.6674,112.998 58.5,75.5C 58.5,112.833 58.5,150.167 58.5,187.5C 58.5,188.167 58.8333,188.5 59.5,188.5C 75.1667,204.5 90.8333,220.5 106.5,236.5C 105.005,236.415 104.005,237.081 103.5,238.5C 104.397,238.669 105.397,239.002 106.5,239.5C 107.506,240.396 107.506,241.062 106.5,241.5C 100.787,239.964 95.1199,238.464 89.5,237C 80.2177,232.942 70.8843,228.275 61.5,223C 54.7091,217.045 48.0424,210.879 41.5,204.5C 12.5894,168.582 5.75608,128.582 21,84.5C 31.1991,60.7917 47.3657,42.125 69.5,28.5C 73.4674,26.344 77.6341,24.6773 82,23.5C 83.3264,22.2011 84.6598,20.8678 86,19.5C 86.414,19.9574 86.914,20.2907 87.5,20.5C 101.583,14.3665 116.083,12.6999 131,15.5C 132.721,14.1054 134.721,13.4387 137,13.5C 141.489,14.0989 145.989,14.5989 150.5,15C 165.254,18.0801 178.92,23.4134 191.5,31C 195.217,34.3847 199.217,37.3847 203.5,40C 207.833,45.4576 212.833,49.9576 218.5,53.5C 218.343,54.8734 218.51,56.2068 219,57.5C 222.19,60.6922 225.023,64.1922 227.5,68C 227.167,68.3333 226.833,68.6667 226.5,69C 231.273,75.7161 235.107,82.8828 238,90.5C 238.311,92.556 238.811,94.556 239.5,96.5C 239.405,98.2145 239.072,99.8812 238.5,101.5 Z"/></g>
<g><path style="opacity:1" fill="#9c16d4" d="M 195.5,60.5 C 189.185,69.4758 182.519,78.1425 175.5,86.5C 175.822,84.2776 175.155,82.4443 173.5,81C 168.443,76.6071 163.11,72.6071 157.5,69C 152.32,67.6955 147.653,66.0289 143.5,64C 133.5,63.3333 123.5,63.3333 113.5,64C 108.58,66.1957 103.58,68.1957 98.5,70C 96.0426,71.5123 96.0426,72.8456 98.5,74C 94.7594,76.7323 90.7594,79.0657 86.5,81C 89.0352,81.9282 90.0352,83.7615 89.5,86.5C 85.7173,83.417 82.0506,80.0837 78.5,76.5C 78.5,75.8333 78.1667,75.5 77.5,75.5C 71.1667,75.5 64.8333,75.5 58.5,75.5C 57.6674,112.998 57.1674,150.664 57,188.5C 55.8372,186.715 55.1705,184.715 55,182.5C 54.3333,183.833 53.6667,185.167 53,186.5C 34.6096,161.596 28.9429,133.929 36,103.5C 48.0416,64.7843 73.8749,41.6176 113.5,34C 146.164,30.0894 173.497,38.9227 195.5,60.5 Z"/></g>
<g><path style="opacity:1" fill="#fdfcfd" d="M 195.5,60.5 C 197.017,60.5106 198.184,61.1772 199,62.5C 199.997,64.3231 201.164,65.9897 202.5,67.5C 208.143,74.8146 213.809,82.148 219.5,89.5C 215.217,90.4922 210.884,90.8256 206.5,90.5C 206.667,113.836 206.5,137.169 206,160.5C 201.509,178.979 189.675,188.812 170.5,190C 154.831,192.546 141.331,188.379 130,177.5C 125.939,171.816 123.772,165.482 123.5,158.5C 123.5,131.167 123.5,103.833 123.5,76.5C 129.833,76.5 136.167,76.5 142.5,76.5C 142.169,103.005 142.502,129.339 143.5,155.5C 146.749,169.213 155.416,174.713 169.5,172C 178.148,170.682 183.648,165.848 186,157.5C 186.5,144.504 186.667,131.504 186.5,118.5C 186.5,113.167 186.5,107.833 186.5,102.5C 186.5,98.5 186.5,94.5 186.5,90.5C 182.5,90.5 178.5,90.5 174.5,90.5C 174.062,90.5654 173.728,90.3988 173.5,90C 174.823,89.1841 175.489,88.0174 175.5,86.5C 182.519,78.1425 189.185,69.4758 195.5,60.5 Z"/></g>
<g><path style="opacity:1" fill="#a51fdc" d="M 175.5,86.5 C 175.489,88.0174 174.823,89.1841 173.5,90C 173.728,90.3988 174.062,90.5654 174.5,90.5C 178.167,94.8333 182.167,98.8333 186.5,102.5C 186.5,107.833 186.5,113.167 186.5,118.5C 171.935,104.995 157.602,91.3286 143.5,77.5C 136.913,75.5388 129.913,74.8721 122.5,75.5C 122.5,90.1667 122.5,104.833 122.5,119.5C 111.167,108.833 100.167,97.8333 89.5,86.5C 90.0352,83.7615 89.0352,81.9282 86.5,81C 90.7594,79.0657 94.7594,76.7323 98.5,74C 96.0426,72.8456 96.0426,71.5123 98.5,70C 103.58,68.1957 108.58,66.1957 113.5,64C 123.5,63.3333 133.5,63.3333 143.5,64C 147.653,66.0289 152.32,67.6955 157.5,69C 163.11,72.6071 168.443,76.6071 173.5,81C 175.155,82.4443 175.822,84.2776 175.5,86.5 Z"/></g>
<g><path style="opacity:1" fill="#fefefe" d="M 58.5,75.5 C 64.8333,75.5 71.1667,75.5 77.5,75.5C 77.5,107.167 77.5,138.833 77.5,170.5C 90.8333,170.5 104.167,170.5 117.5,170.5C 120.346,176.682 124.346,182.015 129.5,186.5C 106.006,187.498 82.3392,187.831 58.5,187.5C 58.5,150.167 58.5,112.833 58.5,75.5 Z"/></g>
<g><path style="opacity:1" fill="#652e90" d="M 202.5,67.5 C 203.239,67.369 203.906,67.5357 204.5,68C 215.782,79.4505 227.115,90.6171 238.5,101.5C 242.797,106.298 247.297,110.965 252,115.5C 252.494,113.866 252.66,112.199 252.5,110.5C 255.128,124.456 254.794,138.456 251.5,152.5C 250.782,154.246 249.782,154.912 248.5,154.5C 248.872,157.383 248.872,160.383 248.5,163.5C 244.055,179.391 236.722,193.724 226.5,206.5C 223.074,205.378 220.407,206.545 218.5,210C 219.71,214.403 219.21,214.57 217,210.5C 216.51,211.793 216.343,213.127 216.5,214.5C 215.5,214.5 214.5,214.5 213.5,214.5C 213.5,216.5 213.5,218.5 213.5,220.5C 184.9,245.983 151.566,256.65 113.5,252.5C 116.518,252.665 119.518,252.498 122.5,252C 117.298,246.63 111.965,241.464 106.5,236.5C 90.8333,220.5 75.1667,204.5 59.5,188.5C 83.1761,188.833 106.843,188.5 130.5,187.5C 130.376,186.893 130.043,186.56 129.5,186.5C 124.346,182.015 120.346,176.682 117.5,170.5C 104.677,169.505 91.6774,169.171 78.5,169.5C 78.5,138.5 78.5,107.5 78.5,76.5C 82.0506,80.0837 85.7173,83.417 89.5,86.5C 100.167,97.8333 111.167,108.833 122.5,119.5C 122.171,132.677 122.505,145.677 123.5,158.5C 123.772,165.482 125.939,171.816 130,177.5C 141.331,188.379 154.831,192.546 170.5,190C 189.675,188.812 201.509,178.979 206,160.5C 206.5,137.169 206.667,113.836 206.5,90.5C 210.884,90.8256 215.217,90.4922 219.5,89.5C 213.809,82.148 208.143,74.8146 202.5,67.5 Z"/></g>
<g><path style="opacity:1" fill="#652d90" d="M 143.5,77.5 C 157.602,91.3286 171.935,104.995 186.5,118.5C 186.667,131.504 186.5,144.504 186,157.5C 183.648,165.848 178.148,170.682 169.5,172C 155.416,174.713 146.749,169.213 143.5,155.5C 143.5,129.5 143.5,103.5 143.5,77.5 Z"/></g>
<g><path style="opacity:1" fill="#cbacd8" d="M 143.5,77.5 C 143.5,103.5 143.5,129.5 143.5,155.5C 142.502,129.339 142.169,103.005 142.5,76.5C 136.167,76.5 129.833,76.5 123.5,76.5C 123.5,103.833 123.5,131.167 123.5,158.5C 122.505,145.677 122.171,132.677 122.5,119.5C 122.5,104.833 122.5,90.1667 122.5,75.5C 129.913,74.8721 136.913,75.5388 143.5,77.5 Z"/></g>
<g><path style="opacity:1" fill="#662f90" d="M 174.5,90.5 C 178.5,90.5 182.5,90.5 186.5,90.5C 186.5,94.5 186.5,98.5 186.5,102.5C 182.167,98.8333 178.167,94.8333 174.5,90.5 Z"/></g>
<g><path style="opacity:1" fill="#a751c9" d="M 3.5,112.5 C 3.20565,126.555 3.87231,140.555 5.5,154.5C 4.16823,150.736 3.33489,146.736 3,142.5C 2.17508,132.325 2.34174,122.325 3.5,112.5 Z"/></g>
<g><path style="opacity:1" fill="#8e64ab" d="M 251.5,152.5 C 251.258,156.479 250.258,160.146 248.5,163.5C 248.872,160.383 248.872,157.383 248.5,154.5C 249.782,154.912 250.782,154.246 251.5,152.5 Z"/></g>
<g><path style="opacity:1" fill="#af94c2" d="M 77.5,75.5 C 78.1667,75.5 78.5,75.8333 78.5,76.5C 78.5,107.5 78.5,138.5 78.5,169.5C 91.6774,169.171 104.677,169.505 117.5,170.5C 104.167,170.5 90.8333,170.5 77.5,170.5C 77.5,138.833 77.5,107.167 77.5,75.5 Z"/></g>
<g><path style="opacity:1" fill="#a54bcd" d="M 5.5,156.5 C 8.20366,161.128 10.537,165.961 12.5,171C 12.9198,172.771 12.9198,174.604 12.5,176.5C 9.26247,170.253 6.92914,163.587 5.5,156.5 Z"/></g>
<g><path style="opacity:1" fill="#b193be" d="M 129.5,186.5 C 130.043,186.56 130.376,186.893 130.5,187.5C 106.843,188.5 83.1761,188.833 59.5,188.5C 58.8333,188.5 58.5,188.167 58.5,187.5C 82.3392,187.831 106.006,187.498 129.5,186.5 Z"/></g>
<g><path style="opacity:1" fill="#7b4a9d" d="M 226.5,206.5 C 222.622,211.589 218.289,216.255 213.5,220.5C 213.5,218.5 213.5,216.5 213.5,214.5C 214.5,214.5 215.5,214.5 216.5,214.5C 216.343,213.127 216.51,211.793 217,210.5C 219.21,214.57 219.71,214.403 218.5,210C 220.407,206.545 223.074,205.378 226.5,206.5 Z"/></g>
</svg>
