<?xml version="1.0"?><svg xmlns="http://www.w3.org/2000/svg" width="36" height="36" shape-rendering="geometricPrecision" text-rendering="geometricPrecision" image-rendering="optimizeQuality" fill-rule="evenodd" clip-rule="evenodd" viewBox="0 0 36 36"><path fill="#b165cf" d="m19.5 0.4c0.6 0 1.1 0.1 1.7 0.2-0.5 0.1-1 0-1.4 0-0.2-0.1-0.3-0.1-0.3-0.2z"></path><path fill="#9317ca" d="m19.5 0.4c0 0.1 0.1 0.1 0.3 0.2 0.4 0 0.9 0.1 1.4 0 7.2 1.5 11.8 5.8 14 12.8 0.2 0.7 0.3 1.4 0.3 2.1 0 0.3 0 0.5-0.1 0.7-0.6-0.6-1.3-1.3-1.9-1.9 0.1-0.3 0.2-0.5 0.2-0.7-0.1-0.3-0.2-0.6-0.2-0.9-0.4-1-1-2.1-1.6-3l0.1-0.1c-0.4-0.6-0.8-1.1-1.2-1.5-0.1-0.2-0.1-0.4-0.1-0.6-0.8-0.5-1.5-1.1-2.1-1.9-0.6-0.3-1.1-0.8-1.7-1.2-1.7-1.1-3.7-1.9-5.7-2.3-0.7 0-1.3-0.1-1.9-0.2-0.4 0-0.6 0.1-0.9 0.3-2.1-0.4-4.1-0.2-6.1 0.7-0.1 0-0.1-0.1-0.2-0.2-0.2 0.2-0.4 0.4-0.6 0.6-0.6 0.2-1.2 0.4-1.7 0.7-3.1 1.9-5.4 4.5-6.8 7.9-2.2 6.2-1.2 11.8 2.8 16.9 1 0.9 1.9 1.7 2.8 2.6 1.4 0.7 2.7 1.4 4 1.9 0.8 0.2 1.6 0.4 2.4 0.7 0.1-0.1 0.1-0.2 0-0.3-0.2-0.1-0.3-0.1-0.4-0.2 0-0.2 0.2-0.3 0.4-0.2 0.7 0.7 1.5 1.4 2.2 2.1-0.4 0.1-0.8 0.1-1.2 0.1-6-0.8-10.4-3.7-13.5-8.9-0.3-0.5-0.6-1.1-0.7-1.8 0-0.2 0-0.5 0-0.8-0.3-0.7-0.6-1.3-1-2v-0.3c-0.3-1.9-0.3-3.9-0.3-5.9 1.2-7.4 5.4-12.4 12.5-14.8 2.1-0.6 4.3-0.8 6.5-0.6z"></path><path fill="#9711ce" d="m33.5 14.3c-1.6-1.6-3.2-3.1-4.7-4.7-0.1-0.1-0.2-0.1-0.3-0.1-0.2-0.2-0.4-0.5-0.5-0.7-0.1-0.2-0.3-0.3-0.5-0.3-3.1-3-6.9-4.3-11.5-3.7-5.6 1.1-9.2 4.3-10.9 9.8-1 4.2-0.2 8.1 2.4 11.6l0.2-0.5c0.1 0.3 0.2 0.6 0.3 0.8 0-5.3 0.1-10.6 0.2-15.9v15.8c0 0.1 0.1 0.1 0.2 0.1l6.6 6.8c-0.2-0.1-0.4 0-0.4 0.2 0.1 0.1 0.2 0.1 0.4 0.2 0.1 0.1 0.1 0.2 0 0.3-0.8-0.3-1.6-0.5-2.4-0.7-1.3-0.5-2.6-1.2-4-1.9-0.9-0.9-1.8-1.7-2.8-2.6-4-5.1-5-10.7-2.8-16.9 1.4-3.4 3.7-6 6.8-7.9 0.5-0.3 1.1-0.5 1.7-0.7 0.2-0.2 0.4-0.4 0.6-0.6 0.1 0.1 0.1 0.2 0.2 0.2 2-0.9 4-1.1 6.1-0.7 0.3-0.2 0.5-0.3 0.9-0.3 0.6 0.1 1.2 0.2 1.9 0.2 2 0.4 4 1.2 5.7 2.3 0.6 0.4 1.1 0.9 1.7 1.2 0.6 0.8 1.3 1.4 2.1 1.9 0 0.2 0 0.4 0.1 0.6 0.4 0.4 0.8 0.9 1.2 1.5l-0.1 0.1c0.6 0.9 1.2 2 1.6 3 0 0.3 0.1 0.6 0.2 0.9 0 0.2-0.1 0.4-0.2 0.7z"></path><path fill="#9c16d4" d="m27.5 8.5c-0.9 1.3-1.8 2.5-2.8 3.7 0-0.3-0.1-0.6-0.3-0.8-0.7-0.6-1.5-1.2-2.3-1.7-0.7-0.2-1.3-0.4-1.9-0.7-1.4-0.1-2.8-0.1-4.2 0-0.7 0.3-1.4 0.6-2.1 0.8-0.4 0.3-0.4 0.4 0 0.6-0.6 0.4-1.1 0.7-1.7 1 0.3 0.1 0.5 0.4 0.4 0.8-0.5-0.5-1.1-0.9-1.6-1.4 0-0.1 0-0.2-0.1-0.2h-2.7c-0.1 5.3-0.2 10.6-0.2 15.9-0.1-0.2-0.2-0.5-0.3-0.8l-0.2 0.5c-2.6-3.5-3.4-7.4-2.4-11.6 1.7-5.5 5.3-8.7 10.9-9.8 4.6-0.6 8.4 0.7 11.5 3.7z"></path><path fill="#fdfcfd" d="m27.5 8.5c0.2 0 0.4 0.1 0.5 0.3 0.1 0.2 0.3 0.5 0.5 0.7 0.8 1 1.6 2.1 2.4 3.1-0.6 0.1-1.2 0.2-1.9 0.1 0.1 3.3 0 6.6 0 9.9-0.7 2.6-2.3 4-5 4.1-2.2 0.4-4.1-0.2-5.7-1.7-0.6-0.8-0.9-1.7-0.9-2.7v-11.5h2.6c0 3.7 0 7.4 0.2 11.1 0.4 1.9 1.7 2.7 3.6 2.3 1.3-0.2 2-0.9 2.4-2.1 0-1.8 0.1-3.6 0-5.4v-4h-1.7c0 0-0.1 0-0.1 0 0.2-0.2 0.3-0.3 0.3-0.5 1-1.2 1.9-2.4 2.8-3.7z"></path><path fill="#a51fdc" d="m24.7 12.2c0 0.2-0.1 0.3-0.3 0.5 0 0 0.1 0 0.1 0 0.6 0.6 1.1 1.2 1.7 1.7v2.3c-2-1.9-4-3.9-6-5.8-0.9-0.3-1.9-0.4-3-0.3v6.2c-1.6-1.5-3.1-3-4.6-4.6 0.1-0.4-0.1-0.7-0.4-0.8 0.6-0.3 1.1-0.6 1.7-1-0.4-0.2-0.4-0.3 0-0.6 0.7-0.2 1.4-0.5 2.1-0.8 1.4-0.1 2.8-0.1 4.2 0 0.6 0.3 1.2 0.5 1.9 0.7 0.8 0.5 1.6 1.1 2.3 1.7 0.2 0.2 0.3 0.5 0.3 0.8z"></path><path fill="#fefefe" d="m8.2 10.6h2.7v13.4h5.6c0.4 0.8 1 1.6 1.7 2.2-3.3 0.2-6.6 0.2-10 0.2v-15.8z"></path><path fill="#652e90" d="m28.5 9.5c0.1 0 0.2 0 0.3 0.1 1.5 1.6 3.1 3.1 4.7 4.7 0.6 0.6 1.3 1.3 1.9 1.9 0.1-0.2 0.1-0.4 0.1-0.7 0.4 2 0.3 4-0.1 5.9-0.1 0.3-0.3 0.4-0.5 0.3 0.1 0.4 0.1 0.9 0 1.3-0.6 2.2-1.6 4.2-3 6-0.5-0.1-0.9 0-1.2 0.5 0.2 0.7 0.1 0.7-0.2 0.1-0.1 0.2-0.1 0.4-0.1 0.6h-0.4v0.8c-4 3.6-8.7 5.1-14 4.5 0.4 0 0.8 0 1.2-0.1-0.7-0.7-1.5-1.4-2.2-2.1l-6.6-6.8c3.3 0.1 6.6 0 10-0.1-0.1-0.1-0.1-0.2-0.2-0.2-0.7-0.6-1.3-1.4-1.7-2.2-1.8-0.2-3.6-0.2-5.5-0.2v-13c0.5 0.5 1.1 0.9 1.6 1.4 1.5 1.6 3 3.1 4.6 4.6 0 1.9 0 3.7 0.2 5.5 0 1 0.3 1.9 0.9 2.7 1.6 1.5 3.5 2.1 5.7 1.7 2.7-0.1 4.3-1.5 5-4.1 0-3.3 0.1-6.6 0-9.9 0.7 0.1 1.3 0 1.9-0.1-0.8-1-1.6-2.1-2.4-3.1z"></path><path fill="#652d90" d="m20.2 10.9c2 1.9 4 3.9 6 5.8 0.1 1.8 0 3.6 0 5.4-0.4 1.2-1.1 1.9-2.4 2.1-1.9 0.4-3.2-0.4-3.6-2.3v-11z"></path><path fill="#cbacd8" d="m20.2 10.9v11c-0.2-3.7-0.2-7.4-0.2-11.1h-2.6v11.5c-0.2-1.8-0.2-3.6-0.2-5.5v-6.2c1.1-0.1 2.1 0 3 0.3z"></path><path fill="#662f90" d="m24.5 12.7h1.7v1.7c-0.6-0.5-1.1-1.1-1.7-1.7z"></path><path fill="#a751c9" d="m0.5 15.8c0 2 0 4 0.3 5.9-0.2-0.5-0.3-1.1-0.4-1.7-0.1-1.4-0.1-2.8 0.1-4.2z"></path><path fill="#8e64ab" d="m35.4 21.4c-0.1 0.6-0.2 1.1-0.5 1.6 0.1-0.4 0.1-0.9 0-1.3 0.2 0.1 0.4 0 0.5-0.3z"></path><path fill="#af94c2" d="m10.9 10.6c0.1 0 0.1 0.1 0.1 0.2v13c1.9 0 3.7 0 5.5 0.2h-5.6v-13.4z"></path><path fill="#a54bcd" d="m0.8 22c0.4 0.7 0.7 1.3 1 2 0 0.3 0 0.6 0 0.8-0.5-0.9-0.8-1.8-1-2.8z"></path><path fill="#b193be" d="m18.2 26.2c0.1 0 0.1 0.1 0.2 0.2-3.4 0.1-6.7 0.2-10 0.1-0.1 0-0.2 0-0.2-0.1 3.4 0 6.7 0 10-0.2z"></path><path fill="#7b4a9d" d="m31.9 29c-0.6 0.8-1.2 1.4-1.9 2v-0.8h0.4c0-0.2 0-0.4 0.1-0.6 0.3 0.6 0.4 0.6 0.2-0.1 0.3-0.5 0.7-0.6 1.2-0.5z"></path></svg>