<?xml version="1.0" encoding="UTF-8"?>
<!DOCTYPE svg PUBLIC "-//W3C//DTD SVG 1.1//EN" "http://www.w3.org/Graphics/SVG/1.1/DTD/svg11.dtd">
<svg xmlns="http://www.w3.org/2000/svg" version="1.1" width="64px" height="64px" style="shape-rendering:geometricPrecision; text-rendering:geometricPrecision; image-rendering:optimizeQuality; fill-rule:evenodd; clip-rule:evenodd" xmlns:xlink="http://www.w3.org/1999/xlink">
<g><path style="opacity:1" fill="#b2299f" d="M -0.5,-0.5 C 5.5,-0.5 11.5,-0.5 17.5,-0.5C 16.9084,2.12717 16.5751,4.79384 16.5,7.5C 15.1667,7.5 13.8333,7.5 12.5,7.5C 12.5608,11.0487 11.7275,14.3821 10,17.5C 8.89037,19.0368 7.39037,19.7035 5.5,19.5C 4.92604,23.3246 3.75937,26.9913 2,30.5C 1.58309,31.756 0.749754,32.4226 -0.5,32.5C -0.5,21.5 -0.5,10.5 -0.5,-0.5 Z"/></g>
<g><path style="opacity:1" fill="#ab2aa4" d="M 17.5,-0.5 C 21.1667,-0.5 24.8333,-0.5 28.5,-0.5C 27.1783,2.02371 26.0116,4.69038 25,7.5C 22.2526,9.60197 20.7526,12.4353 20.5,16C 12.5762,26.3762 5.57623,37.2096 -0.5,48.5C -0.5,43.1667 -0.5,37.8333 -0.5,32.5C 0.749754,32.4226 1.58309,31.756 2,30.5C 3.75937,26.9913 4.92604,23.3246 5.5,19.5C 7.39037,19.7035 8.89037,19.0368 10,17.5C 11.7275,14.3821 12.5608,11.0487 12.5,7.5C 13.8333,7.5 15.1667,7.5 16.5,7.5C 16.5751,4.79384 16.9084,2.12717 17.5,-0.5 Z"/></g>
<g><path style="opacity:1" fill="#a42da9" d="M 28.5,-0.5 C 30.8333,-0.5 33.1667,-0.5 35.5,-0.5C 34.7954,2.37546 33.1287,4.54212 30.5,6C 31.8333,6.66667 33.1667,7.33333 34.5,8C 33.944,8.38258 33.6107,8.88258 33.5,9.5C 31.7259,8.11899 30.2259,8.45232 29,10.5C 26.9621,15.4077 24.7954,20.2411 22.5,25C 23.0253,25.6924 23.6919,26.1924 24.5,26.5C 26.7223,25.2217 29.0557,24.2217 31.5,23.5C 32.4164,23.5427 33.0831,23.8761 33.5,24.5C 32.448,24.3505 31.448,24.5172 30.5,25C 32.437,25.1216 33.7703,25.955 34.5,27.5C 26.3441,26.8211 22.8441,30.4878 24,38.5C 25.7581,40.7655 27.9248,42.4322 30.5,43.5C 29.5,44.5 28.5,45.5 27.5,46.5C 25.681,44.6314 23.8477,42.6314 22,40.5C 20.7475,37.9865 20.2475,35.3198 20.5,32.5C 18.0901,32.9209 16.2568,34.2542 15,36.5C 12.451,39.765 10.2843,43.265 8.5,47C 8.73362,48.7324 9.73362,49.5658 11.5,49.5C 13.4534,48.8444 15.4534,48.5111 17.5,48.5C 16.3207,51.9437 14.6541,54.277 12.5,55.5C 11.5,55.5 10.5,55.5 9.5,55.5C 9.63489,58.4175 8.96823,61.0842 7.5,63.5C 4.83333,63.5 2.16667,63.5 -0.5,63.5C -0.5,58.5 -0.5,53.5 -0.5,48.5C 5.57623,37.2096 12.5762,26.3762 20.5,16C 20.7526,12.4353 22.2526,9.60197 25,7.5C 26.0116,4.69038 27.1783,2.02371 28.5,-0.5 Z"/></g>
<g><path style="opacity:1" fill="#fcf8fc" d="M 33.5,9.5 C 35.6903,14.7152 38.0236,19.8819 40.5,25C 39.944,25.3826 39.6107,25.8826 39.5,26.5C 37.5,25.8333 35.5,25.1667 33.5,24.5C 33.0831,23.8761 32.4164,23.5427 31.5,23.5C 29.0557,24.2217 26.7223,25.2217 24.5,26.5C 23.6919,26.1924 23.0253,25.6924 22.5,25C 24.7954,20.2411 26.9621,15.4077 29,10.5C 30.2259,8.45232 31.7259,8.11899 33.5,9.5 Z"/></g>
<g><path style="opacity:1" fill="#8d2ab8" d="M 60.5,-0.5 C 61.5,-0.5 62.5,-0.5 63.5,-0.5C 63.5,6.16667 63.5,12.8333 63.5,19.5C 58.9672,25.5598 55.4672,32.2265 53,39.5C 52.0228,38.2264 51.1894,38.2264 50.5,39.5C 48.2733,37.3932 46.2733,35.0599 44.5,32.5C 43.8333,31.8333 43.1667,31.1667 42.5,30.5C 43.9717,28.8657 45.6383,27.3657 47.5,26C 47.0426,25.586 46.7093,25.086 46.5,24.5C 48.2821,21.9815 49.7821,19.3148 51,16.5C 54.1835,14.803 55.8502,12.1363 56,8.5C 59.964,6.81083 61.464,3.81083 60.5,-0.5 Z"/></g>
<g><path style="opacity:1" fill="#972bb1" d="M 35.5,-0.5 C 43.8333,-0.5 52.1667,-0.5 60.5,-0.5C 61.464,3.81083 59.964,6.81083 56,8.5C 55.8502,12.1363 54.1835,14.803 51,16.5C 49.7821,19.3148 48.2821,21.9815 46.5,24.5C 46.7093,25.086 47.0426,25.586 47.5,26C 45.6383,27.3657 43.9717,28.8657 42.5,30.5C 42.2624,28.5956 41.2624,27.2623 39.5,26.5C 39.6107,25.8826 39.944,25.3826 40.5,25C 38.0236,19.8819 35.6903,14.7152 33.5,9.5C 33.6107,8.88258 33.944,8.38258 34.5,8C 33.1667,7.33333 31.8333,6.66667 30.5,6C 33.1287,4.54212 34.7954,2.37546 35.5,-0.5 Z"/></g>
<g><path style="opacity:1" fill="#fdfbfd" d="M 34.5,27.5 C 40.7957,31.81 41.1291,36.6433 35.5,42C 33.9751,43.0086 32.3084,43.5086 30.5,43.5C 27.9248,42.4322 25.7581,40.7655 24,38.5C 22.8441,30.4878 26.3441,26.8211 34.5,27.5 Z"/></g>
<g><path style="opacity:1" fill="#8628bd" d="M 63.5,19.5 C 63.5,34.1667 63.5,48.8333 63.5,63.5C 50.5,63.5 37.5,63.5 24.5,63.5C 24.4802,61.857 25.1468,60.5237 26.5,59.5C 26.2907,58.914 25.9574,58.414 25.5,58C 29.4864,54.2687 32.3198,49.7687 34,44.5C 34.49,45.7932 34.6567,47.1266 34.5,48.5C 36.1667,48.5 37.8333,48.5 39.5,48.5C 44.1859,48.838 48.8525,49.0047 53.5,49C 54.0219,48.4387 54.3552,47.772 54.5,47C 52.5225,44.8526 51.1892,42.3526 50.5,39.5C 51.1894,38.2264 52.0228,38.2264 53,39.5C 55.4672,32.2265 58.9672,25.5598 63.5,19.5 Z"/></g>
<g><path style="opacity:1" fill="#fcf8fc" d="M 27.5,46.5 C 24.4115,47.7846 21.0781,48.4512 17.5,48.5C 15.4534,48.5111 13.4534,48.8444 11.5,49.5C 9.73362,49.5658 8.73362,48.7324 8.5,47C 10.2843,43.265 12.451,39.765 15,36.5C 16.2568,34.2542 18.0901,32.9209 20.5,32.5C 20.2475,35.3198 20.7475,37.9865 22,40.5C 23.8477,42.6314 25.681,44.6314 27.5,46.5 Z"/></g>
<g><path style="opacity:1" fill="#fcf9fc" d="M 44.5,32.5 C 46.2733,35.0599 48.2733,37.3932 50.5,39.5C 51.1892,42.3526 52.5225,44.8526 54.5,47C 54.3552,47.772 54.0219,48.4387 53.5,49C 48.8525,49.0047 44.1859,48.838 39.5,48.5C 38.4324,47.5655 37.099,47.2322 35.5,47.5C 35.281,46.325 35.6143,45.325 36.5,44.5C 38.4717,43.6948 39.9717,42.3615 41,40.5C 41.6379,37.3991 42.8046,34.7324 44.5,32.5 Z"/></g>
<g><path style="opacity:1" fill="#962db2" d="M 33.5,24.5 C 35.5,25.1667 37.5,25.8333 39.5,26.5C 41.2624,27.2623 42.2624,28.5956 42.5,30.5C 43.1667,31.1667 43.8333,31.8333 44.5,32.5C 42.8046,34.7324 41.6379,37.3991 41,40.5C 39.9717,42.3615 38.4717,43.6948 36.5,44.5C 35.6143,45.325 35.281,46.325 35.5,47.5C 37.099,47.2322 38.4324,47.5655 39.5,48.5C 37.8333,48.5 36.1667,48.5 34.5,48.5C 34.6567,47.1266 34.49,45.7932 34,44.5C 32.3198,49.7687 29.4864,54.2687 25.5,58C 25.9574,58.414 26.2907,58.914 26.5,59.5C 25.1468,60.5237 24.4802,61.857 24.5,63.5C 18.8333,63.5 13.1667,63.5 7.5,63.5C 8.96823,61.0842 9.63489,58.4175 9.5,55.5C 10.5,55.5 11.5,55.5 12.5,55.5C 14.6541,54.277 16.3207,51.9437 17.5,48.5C 21.0781,48.4512 24.4115,47.7846 27.5,46.5C 28.5,45.5 29.5,44.5 30.5,43.5C 32.3084,43.5086 33.9751,43.0086 35.5,42C 41.1291,36.6433 40.7957,31.81 34.5,27.5C 33.7703,25.955 32.437,25.1216 30.5,25C 31.448,24.5172 32.448,24.3505 33.5,24.5 Z"/></g>
</svg>
