<?xml version="1.0"?><svg xmlns="http://www.w3.org/2000/svg" width="36" height="36" shape-rendering="geometricPrecision" text-rendering="geometricPrecision" image-rendering="optimizeQuality" fill-rule="evenodd" clip-rule="evenodd" viewBox="0 0 36 36"><path fill="#feff00" d="m14.6 1.4c0.5 0.3 0.5 0.3 0 0z" opacity=".004"></path><path fill="#ffaba7" d="m22.9 2.2c-0.1-0.3 0-0.5 0.1-0.8 0.3 0.4 0.2 0.6-0.1 0.8z" opacity=".008"></path><path fill="#feff00" d="m11.3 2.2c0.5 0.2 0.5 0.2 0 0z" opacity=".004"></path><path fill="#feff7e" d="m11 3.6c-0.3-0.5-0.3-0.5 0 0z" opacity=".008"></path><path fill="#f4d591" d="m20.3 2.5v0.4h-1c-0.5 0.1-0.9 0.3-1.1 0.7-0.4-0.1-0.4-0.4 0-0.7-0.6-0.4-1.2-0.5-1.8-0.4-0.2-0.2-0.4-0.4-0.7-0.5 0.5-0.3 1-0.5 1.6-0.6 1 0.4 2.1 0.7 3 1.1z"></path><path fill="#efa425" d="m19.3 2.9c-0.2 2.2-1.2 3.4-3.3 3.6 0.6 0.3 1.2 0.4 1.8 0.5-0.9 0.2-1.9 0.4-2.9 0.6h-1c-0.1-0.6 0.1-1 0.3-1.5 0.6 0.5 1 0.3 1.1-0.5-0.2-0.5-0.4-0.9-0.7-1.3 0.5-0.2 0.8-0.6 1.1-1.1 0.2 0.7 0.3 1.5 0.3 2.2 1.6 0.4 2.3-0.2 2.2-1.8 0.2-0.4 0.6-0.6 1.1-0.7z"></path><path fill="#ca2d1f" d="m16.4 2.5c0.6-0.1 1.2 0 1.8 0.4-0.4 0.3-0.4 0.6 0 0.7 0.1 1.6-0.6 2.2-2.2 1.8 0-0.7-0.1-1.5-0.3-2.2 0.3-0.1 0.6-0.3 0.7-0.7z"></path><path fill="#c51d19" d="m14.6 4.3c0.3 0.4 0.5 0.8 0.7 1.3-0.1 0.8-0.5 1-1.1 0.5-0.7-0.5-0.8-1.2-0.3-2 0.3-0.2 0.5-0.1 0.7 0.2z"></path><path fill="#f1b55c" d="m22.5 2.2c-0.2 0-0.4 0.1-0.4 0.3-0.2 0.9-0.5 1.8-0.7 2.7 0 0.4 0.1 0.7 0.4 0.9v2.2c-0.6 0.1-1.1 0-1.5-0.4 0.5 0.1 0.8 0 1.1-0.3-0.3-1.3-0.4-2.7-0.5-4-0.3-0.2-0.5-0.4-0.6-0.7 0.5-0.1 0.5-0.3 0-0.4 0.4-0.5 0.9-0.8 1.5-1.1 0.4 0.1 0.7 0.4 0.7 0.8z" opacity=".878"></path><path fill="#9b4b62" d="m22.5 2.2h0.4c0.1 0.7 0.2 1.4 0.1 2.1-0.2-0.7-0.3-0.8-0.5-0.2 0.1 0.7 0.5 1.2 1.1 1.5-0.5 0.1-0.8 0.2-1.1 0.5h-0.7c-0.3-0.2-0.4-0.5-0.4-0.9 0.2-0.9 0.5-1.8 0.7-2.7 0.3 0 0.4-0.1 0.4-0.3z" opacity=".29"></path><path d="m10.6 5.8c0.5 0.2 0.5 0.2 0 0z" opacity=".004"></path><path fill="#852857" d="m11.7 5.4h0.4c0.1 0.4 0.3 0.6 0.7 0.7v0.4c-0.1 0.3-0.4 0.4-0.7 0.3-0.3-0.3-0.5-0.7-0.8-1 0.1-0.3 0.2-0.4 0.4-0.4z" opacity=".408"></path><path fill="#feff00" d="m24.3 6.5c0.3-0.4 0.6-0.5 1.1-0.2-0.4 0.2-0.7 0.2-1.1 0.2z" opacity=".009"></path><path fill="#c7511c" d="m19.3 2.9h1c0.1 0.3 0.3 0.5 0.6 0.7 0.1 1.3 0.2 2.7 0.5 4-0.3 0.3-0.6 0.4-1.1 0.3-0.8-0.1-1.5 0-2.1 0.4h-0.7c-0.7-0.3-1.4-0.3-2.2 0-0.8 0-0.9-0.2-0.4-0.7 1-0.2 2-0.4 2.9-0.6-0.6-0.1-1.2-0.2-1.8-0.5 2.1-0.2 3.1-1.4 3.3-3.6z"></path><path fill="#f8c631" d="m21.8 6.1h0.7c0.6 0.1 1.2 0.2 1.8 0.4 0.4 0.3 0.9 0.4 1.4 0.3v1.5c-0.3 0.1-0.4 0.3-0.3 0.7-0.3 0.2-0.5 0.4-0.6 0.7-0.1-0.2-0.3-0.3-0.5-0.3-0.4 0-0.8 0.1-1.1 0.3 0-0.9-0.5-1.4-1.4-1.4v-2.2z" opacity=".997"></path><path fill="#fedd8a" d="m16.4 2.5c-0.1 0.4-0.4 0.6-0.7 0.7-0.3 0.5-0.6 0.9-1.1 1.1-0.2-0.3-0.4-0.4-0.7-0.2-0.5 0.8-0.4 1.5 0.3 2-0.2 0.5-0.4 0.9-0.3 1.5h1c-0.5 0.5-0.4 0.7 0.4 0.7-0.6 0.3-1.4 0.6-2.2 0.7 0.3-0.6 0.4-1.2 0.4-1.8-1 0-2 0.3-2.9 0.7 0.4-0.5 0.8-0.9 1.5-1.1 0.3 0.1 0.6 0 0.7-0.3 0.5-0.1 0.5-0.3 0-0.4 0-0.5-0.3-0.7-0.7-0.7h-0.4l-0.7-1.8c0.2-0.2 0.4-0.4 0.5-0.7 0.8 1 1.7 1.2 2.7 0.5-0.9-0.1-0.9-0.4-0.2-0.9 0.4 0.4 0.6 0.3 0.8-0.3l0.7 0.7c0.2-0.3 0.5-0.4 0.9-0.4z"></path><path fill="#ff90fc" d="m26.1 8.3c-0.1-0.4 0-0.8 0.2-1.1 0.2 0.4 0.2 0.8-0.2 1.1z" opacity=".008"></path><path fill="#fdd43a" d="m13.1 9c-0.4 0-0.7 0.2-0.7 0.7-0.1 0.5-0.2 0.5-0.3 0-0.5-0.4-0.9-0.4-1.5 0-0.4-0.6-0.4-1.2 0-1.8 0.9-0.4 1.9-0.7 2.9-0.7 0 0.6-0.1 1.2-0.4 1.8z"></path><path fill="#fefde1" d="m20.3 7.9c0.4 0.4 0.9 0.5 1.5 0.4 0.9 0 1.4 0.5 1.4 1.4-0.9 0.6-2 0.9-3.2 0.7-0.6-0.4-1.1-0.3-1.5 0.4-0.3-0.8-0.4-1.6-0.3-2.5 0.6-0.4 1.3-0.5 2.1-0.4z"></path><path fill="#f8f7d9" d="m17.5 8.3c0 1.1-0.1 2.2-0.4 3.2-0.7-0.4-1.3-0.9-2-1.4l-1.1 1.8c-0.2 0.3-0.1 0.6 0.2 0.9 0.7 0.3 1.2 0.6 1.8 0.9-0.4 0.3-0.9 0.4-1.4 0.5-0.3 0.4-0.4 0.8-0.4 1.3-0.9-1.9-1.5-3.8-1.8-5.8 0-0.5 0.3-0.7 0.7-0.7 0.8-0.1 1.6-0.4 2.2-0.7 0.8-0.3 1.5-0.3 2.2 0z"></path><path fill="#fdf8d7" d="m10.6 7.9c-0.4 0.6-0.4 1.2 0 1.8 0.6-0.4 1-0.4 1.5 0-0.5 0.6-0.5 1.3 0 2-0.2 0.4-0.4 0.6-0.8 0.5-0.2-0.1-0.4-0.2-0.7-0.3-0.3 0.7-0.5 1.4-0.7 2.1l2.2 1.1v0.7h-0.8c-0.7 0.1-1.3-0.2-1.8-0.7-0.4-1-1.1-1.9-2.1-2.5-0.3-0.2-0.7-0.5-1.1-0.7 0.1-0.5 0.3-0.5 0.5 0 0.7-0.4 0.9-0.8 0.6-1.3 0.8 0.2 1.7-0.1 2.5-0.7-0.3-0.1-0.6-0.4-0.7-0.7 0.3-0.4 0.3-0.8 0-1.1 0.4-0.2 0.9-0.2 1.4-0.2z" opacity=".998"></path><path fill="#f3eacc" d="m25.7 8.3h0.4c-0.1 0.7 0.2 1.2 0.7 1.6l-0.7 0.4 1.8 0.9c0.2 0.2 0.5 0.5 0.9 0.7 1 0.1 2.1-0.1 3.1-0.7-0.7 0.7-1.5 1.2-2.6 1.4-0.3-0.5-0.7-0.5-1 0-1.1 0.7-2 1.7-2.6 2.9h-2.8v-0.4c0.5-0.1 0.8-0.5 0.9-1.1 0.4 0.9 0.9 1 1.6 0.2l-0.7-0.7c0.5-0.4 0.8-0.9 0.7-1.6-0.8-0.1-1.5 0.1-2 0.7-0.1-0.1-0.2-0.2-0.2-0.4 0.2-1 0.6-1.9 1.1-2.8 0.2 0 0.4 0.1 0.5 0.3 0.1-0.3 0.3-0.5 0.6-0.7 0.3-0.1 0.4-0.4 0.3-0.7z" opacity=".998"></path><path fill="#ffc63a" d="m31.9 10.4c0.1-0.3 0.3-0.4 0.7-0.1-0.2 0.1-0.5 0.2-0.7 0.1z" opacity=".012"></path><path fill="#ff6459" d="m2 11.2c0.1-0.4 0.4-0.5 0.7-0.2-0.2 0.1-0.5 0.2-0.7 0.2z" opacity=".008"></path><path fill="#fefffe" d="m27.9 10.8c0.5 0.2 0.5 0.2 0 0z" opacity=".012"></path><path fill="#f66b57" d="m20 10.4c0.5 0.3 1 0.5 1.6 0.8 0.2 0.3 0.1 0.7-0.2 1-0.6 0.3-1.2 0.7-1.8 1.1-0.5-0.8-0.9-1.6-1.1-2.5 0.4-0.7 0.9-0.8 1.5-0.4z"></path><path fill="#fdd692" d="m2.3 11.5c1.1 0.6 2.2 1.1 3.3 1.5 0.3 0.4 0.8 0.6 1.4 0.7 0.1 0.3 0 0.6-0.3 0.7-0.4 0-0.8-0.1-1.1-0.4-1.2-0.7-2.3-1.6-3.3-2.5z" opacity=".89"></path><path fill="#2a6271" d="m17.1 11.5c-0.3 1-0.6 1.7-1.1 2.2-0.6-0.3-1.2-0.6-1.8-0.9-0.3-0.3-0.4-0.6-0.2-0.9l1.1-1.8c0.7 0.5 1.3 1 2 1.4z"></path><path fill="#e9cfa1" d="m24.3 9.4c-0.5 0.9-0.9 1.8-1.1 2.8-0.9 0.5-0.9 1.1 0 1.7-0.7 0.3-0.8 0.7-0.3 1.2l-1.5-2.9c0.3-0.3 0.4-0.7 0.2-1-0.6-0.3-1.1-0.5-1.6-0.8 1.2 0.2 2.3-0.1 3.2-0.7 0.3-0.2 0.7-0.3 1.1-0.3z"></path><path fill="#2f5d6c" d="m22.9 15.1c-0.5-0.5-0.4-0.9 0.3-1.2-0.9-0.6-0.9-1.2 0-1.7 0 0.2 0.1 0.3 0.2 0.4 0.5-0.6 1.2-0.8 2-0.7 0.1 0.7-0.2 1.2-0.7 1.6l0.7 0.7c-0.7 0.8-1.2 0.7-1.6-0.2-0.1 0.6-0.4 1-0.9 1.1z"></path><path fill="#fe0000" d="m34 12.6c0.5 0.2 0.5 0.2 0 0z" opacity=".004"></path><path fill="#703a28" d="m1.3 12.6c0 0.4 0 0.7-0.2 1.1-0.3-0.5-0.2-0.8 0.2-1.1z" opacity=".012"></path><path fill="#e07918" d="m2.3 11.5c1 0.9 2.1 1.8 3.3 2.5l-3.3-0.5c-0.3-0.4-0.4-0.8-0.3-1.3-0.1-0.3 0-0.6 0.3-0.7z"></path><path fill="#f16157" d="m11.3 12.2c0.5 0.3 1 0.5 1.5 0.8-0.2 0.7-0.5 1.5-0.7 2.1l-2.2-1.1c0.2-0.7 0.4-1.4 0.7-2.1 0.3 0.1 0.5 0.2 0.7 0.3z"></path><path fill="#e4983a" d="m32.9 11.2c0.1 0.5 0 1-0.3 1.4-1.2 0.2-2.3 0.5-3.3 1.1-0.6 0-1.2 0.1-1.8 0.3 0.5-0.4 0.9-0.8 1.1-1.4h0.7c1.1-0.2 1.9-0.7 2.6-1.4 0.3-0.5 0.7-0.5 1 0z" opacity=".988"></path><path fill="#fce995" d="m17.5 8.3h0.7c-0.1 0.9 0 1.7 0.3 2.5 0.2 0.9 0.6 1.7 1.1 2.5 0.6-0.4 1.2-0.8 1.8-1.1l1.5 2.9v0.4h-8.7c0-0.5 0.1-0.9 0.4-1.3 0.5-0.1 1-0.2 1.4-0.5 0.5-0.5 0.8-1.2 1.1-2.2 0.3-1 0.4-2.1 0.4-3.2z"></path><path fill="#cb4a42" d="m29.3 13.7c1-0.1 2 0 2.9 0.3-0.2 0.4-0.5 0.8-0.7 1.1-0.6 0.6-0.9 1.3-1.1 2.2 0.1-0.8 0-1.5-0.3-2.2-0.3 0.5-0.7 0.8-1.1 1.1 0-0.4 0-0.7-0.2-1.1-0.5-0.2-1-0.6-1.3-1.1 0.6-0.2 1.2-0.3 1.8-0.3z"></path><path fill="#a52e49" d="m5.6 13c0.5-0.4 1.1-0.5 1.8-0.4 1 0.6 1.7 1.5 2.1 2.5-1 0.4-2 0.5-3.2 0.4v1.1h-0.4c0-0.9 0.2-1.6 0.8-2.2 0.3-0.1 0.4-0.4 0.3-0.7-0.3-0.6-0.7-0.8-1.4-0.7z"></path><path fill="#81335b" d="m33.7 14.8c-0.7 0.3-1.4 0.4-2.2 0.3 0.2-0.3 0.5-0.7 0.7-1.1-0.9-0.3-1.9-0.4-2.9-0.3 1-0.6 2.1-0.9 3.3-1.1 0.3-0.4 0.4-0.9 0.3-1.4 0.5-0.5 0.9-0.4 1.1 0.3-0.7 1.6-0.2 2.5 1.5 2.7-0.7 0.1-1.3 0.3-1.8 0.6z" opacity=".643"></path><path fill="#bd3b4d" d="m2 12.2c-0.1 0.5 0 0.9 0.3 1.3l3.3 0.5c0.3 0.3 0.7 0.4 1.1 0.4-0.6 0.6-0.8 1.3-0.8 2.2-0.3 0.9-0.4 1.8-0.3 2.8l-0.7-3.2v-1.4c-1.1-0.2-2 0-2.9 0.3h-0.4c-0.1-0.2-0.4-0.4-0.7-0.5 0.7-0.6 0.9-1.3 0.4-2-0.1-0.8 0.2-0.9 0.7-0.4z"></path><path fill="#eccea0" d="m12.1 9.7c0.1 0.5 0.2 0.5 0.3 0 0.3 2 0.9 3.9 1.8 5.8h1.5v0.3h-3.6v-0.7c0.2-0.6 0.5-1.4 0.7-2.1-0.5-0.3-1-0.5-1.5-0.8 0.4 0.1 0.6-0.1 0.8-0.5-0.5-0.7-0.5-1.4 0-2z"></path><path fill="#f58c66" d="m15.7 15.8v-0.3h8.6c0.5 0.2 0.9 0.6 1.1 1.1h-3.3c-1.8-0.7-4-0.9-6.4-0.8z"></path><path fill="#faab8d" d="m1.6 15.1h0.4c0.4 0.6 1 0.9 1.8 0.9-0.6 0.1-1 0.5-1.1 1.1 0.3 0.6 0.4 1.3 0.4 2 0 0.4-0.1 0.8-0.4 1.1-0.4-1.3-1-2.5-1.8-3.6 0-0.3-0.1-0.4-0.4-0.4-0.1-0.5-0.2-0.5-0.3 0h-0.4v-0.7c0.3-0.2 0.5-0.4 0.6-0.7 0.3 0.3 0.7 0.4 1.2 0.3z" opacity=".996"></path><path fill="#b63956" d="m28.3 12.6h0.3c-0.2 0.6-0.6 1-1.1 1.4 0.3 0.5 0.8 0.9 1.3 1.1 0.2 0.4 0.2 0.7 0.2 1.1l-0.7 6.5c0.8 0.1 1.5 0 2.1-0.4h0.4c0 1.3 0.5 1.5 1.4 0.6 0.3-0.8 0.6-1.6 0.7-2.4 0.4 1 0.5 2.1 0.4 3.3-1.8-0.2-3.6-0.5-5.4-0.8v2.2h-0.4v-1.8c0.4-1.9 0.6-3.8 0.8-5.8 0.2-0.7 0.3-1.4 0.3-2.1h-2.9c0.6-1.2 1.5-2.2 2.6-2.9z"></path><path fill="#f57e67" d="m33.7 14.8h1.8v1c-0.3 0-0.4 0.2-0.4 0.4-0.6 0.3-1 0.8-1.1 1.4-0.3 0.3-0.5 0.7-0.7 1.1-0.9-0.3-1.6-0.9-2-1.8l-0.5 5.4h-0.4v-5c0.2-0.9 0.5-1.6 1.1-2.2 0.8 0.1 1.5 0 2.2-0.3z"></path><path fill="#3e2b1a" d="m35.5 15.8h0.3v0.8h-0.3v-0.8z" opacity=".004"></path><path fill="#ef6d4e" d="m4.9 16.2v1.4l-1.8 1.5c0-0.7-0.1-1.4-0.4-2 0.1-0.6 0.5-1 1.1-1.1-0.8 0-1.4-0.3-1.8-0.9 0.9-0.3 1.8-0.5 2.9-0.3v1.4z"></path><path fill="#f6b287" d="m9.5 15.1c0.5 0.5 1.1 0.8 1.8 0.7 0.3 0.3 0.5 0.5 0.8 0.8-0.6 0.4-1.2 0.8-1.8 1-1.4 0.3-2 1.1-1.8 2.6-0.8 0.3-0.9 0.1-0.4-0.8-0.2-0.4-0.4-0.7-0.7-1-0.3 1-0.5 1.9-0.7 2.8 0-1.5-0.1-3.1-0.4-4.6v-1.1c1.2 0.1 2.2 0 3.2-0.4z"></path><path fill="#f37357" d="m13.9 15.8h1.8c2.4-0.1 4.6 0.1 6.4 0.8-1.1 0.3-2.3 0.4-3.6 0.5 0.3 0.1 0.6 0.3 0.8 0.5-0.3 0.4-0.4 0.7-0.4 1.1-0.3 0.2-0.6 0.4-0.9 0.7 0-0.7-0.3-1.1-0.9-1.4l-0.7 1.1c-0.7-0.5-1.3-0.5-2 0-0.6-0.9-1.5-1.3-2.7-1.1 0.3-0.5 0.8-0.9 1.4-1.1 0.7 0.5 1.3 0.3 1.8-0.3-0.4-0.3-0.7-0.5-1-0.8z"></path><path fill="#ee4d4c" d="m22.1 16.6h2.6c0.3 0.2 0.5 0.6 0.7 1-0.2 0.9-0.4 1.7-0.6 2.6 0-0.6-0.2-1.1-0.5-1.5h-0.4c-0.6-0.1-1.2 0-1.8 0.4h-0.3c-0.7-0.5-1.5-0.5-2.2 0-0.1-0.3-0.3-0.4-0.7-0.4 0-0.4 0.1-0.7 0.4-1.1-0.2-0.2-0.5-0.4-0.8-0.5 1.3-0.1 2.5-0.2 3.6-0.5z"></path><path fill="#fa9665" d="m11.3 15.8h2.6c0.3 0.3 0.6 0.5 1 0.8-0.5 0.6-1.1 0.8-1.8 0.3-0.6 0.2-1.1 0.6-1.4 1.1v4c-0.3-0.8-0.5-1.6-0.4-2.6 0.1-0.5 0-1-0.3-1.4-0.5 0.5-0.8 0.4-0.7-0.4 0.6-0.2 1.2-0.6 1.8-1-0.3-0.3-0.5-0.5-0.8-0.8z"></path><path fill="#e54f4b" d="m24.3 15.5h4.3c0 0.7-0.1 1.4-0.3 2.1-1.2 0.3-1.4 0.7-0.4 1.3l-0.4 0.5c-0.3-0.2-0.7-0.4-1-0.7-0.5-0.6-0.4-1.1 0.3-1.6-0.4-0.3-0.9-0.5-1.4-0.5-0.2-0.5-0.6-0.9-1.1-1.1z"></path><path fill="#ffea60" d="m-0.2 17.3h0.4c0 0.3-0.1 0.6-0.4 0.7v-0.7z" opacity=".004"></path><path fill="#dc4744" d="m30.4 17.3v5c-0.6 0.4-1.3 0.5-2.1 0.4l0.7-6.5c0.4-0.3 0.8-0.6 1.1-1.1 0.3 0.7 0.4 1.4 0.3 2.2z"></path><path fill="#8e3961" d="m0.2 16.2h0.3c0.3 0 0.4 0.1 0.4 0.4 0.8 1.1 1.4 2.3 1.8 3.6 0 0.2-0.1 0.3-0.4 0.3-0.3 0.4-0.4 0.9-0.3 1.5h-0.4c0.5-1.3 0.3-2.4-0.5-3.3-0.6 0.3-0.7 0.1-0.2-0.5-0.2-0.4-0.4-0.7-0.7-0.9v-1.1z" opacity=".42"></path><path d="m35.1 18h0.4c0 0.4-0.1 0.6-0.4 0.7v-0.7z" opacity=".004"></path><path fill="#e63c4a" d="m24.7 16.6h0.7c0.5 0 1 0.2 1.4 0.5-0.7 0.5-0.8 1-0.3 1.6-0.7 1.6-1.5 3.2-2.4 4.7-0.3-0.5-0.7-0.7-1.2-0.7-0.3 0-0.5 0-0.8-0.2 0.6-0.2 1.2-0.2 1.8-0.2 0.1-1.2 0.2-2.4 0.4-3.6 0.3 0.4 0.5 0.9 0.5 1.5 0.2-0.9 0.4-1.7 0.6-2.6-0.2-0.4-0.4-0.8-0.7-1z"></path><path fill="#fb8a6d" d="m10.3 17.6c-0.1 0.8 0.2 0.9 0.7 0.4 0.3 0.4 0.4 0.9 0.3 1.4-0.8 0.7-1.8 1.2-2.8 1.5v-0.7c-0.2-1.5 0.4-2.3 1.8-2.6z"></path><path fill="#e54649" d="m28.3 17.6c-0.2 2-0.4 3.9-0.8 5.8-0.5 0.1-1-0.2-1.2-0.7-0.3 0.5-0.7 0.8-1.3 0.9 0.6 0.2 0.8 0.7 0.7 1.2h-8.6v-0.3c0.1-0.6-0.2-1-0.7-1.3 0.7-0.1 0.9-0.4 0.3-0.9h2.9c-0.3 0.9-0.9 1.5-1.8 1.8l1.8 0.4c0.8-0.1 1.5-0.3 2-0.7 0.3 0.6 0.7 0.8 1.3 0.3-0.2-0.2-0.5-0.4-0.8-0.5 0.5-0.2 0.7-0.5 0.8-0.9 0.5 0 0.9 0.2 1.2 0.7 0.9-1.5 1.7-3.1 2.4-4.7 0.3 0.3 0.7 0.5 1 0.7l0.4-0.5c-1-0.6-0.8-1 0.4-1.3z"></path><path fill="#2f0e00" d="m34.7 18.7h0.4c0.1 0.4-0.1 0.6-0.4 0.7v-0.7z" opacity=".004"></path><path fill="#d6ad59" d="m11.7 18c1.2-0.2 2.1 0.2 2.7 1.1 0.7-0.5 1.3-0.5 2 0v2.9c-0.6 0.2-1.2 0.4-1.8 0.3-0.3-0.5-0.4-1.1-0.4-1.8h-1.1v1.5h-1.4v-4z"></path><path fill="#dfbb59" d="m17.1 18c0.6 0.3 0.9 0.7 0.9 1.4 0.3-0.3 0.6-0.5 0.9-0.7-0.1 1.1 0 2.1 0.4 3.1-0.6 0.2-1 0-1.3-0.6-0.1 0.3-0.3 0.6-0.5 0.8-0.4-1.3-0.5-2.7-0.4-4z"></path><path fill="#ed5253" d="m4.9 17.6c0.1 2.1 0.2 4.1 0.3 6.2-1-0.2-2 0-2.9 0.3h-0.3c-0.3-0.7-0.4-1.4-0.4-2.1h0.4c-0.1 0.5 0 0.9 0.2 1.4 0.1-1 0.2-1.9 0.1-2.9 0.3 0 0.4-0.1 0.4-0.3 0.3-0.3 0.4-0.7 0.4-1.1l1.8-1.5z"></path><path fill="#f69a6e" d="m8.5 20.2v0.7c0.1 1 0 1.9-0.4 2.9-0.5-1.4-0.8-1.3-0.7 0.3-0.3-0.2-0.5-0.6-0.4-1.1 0-0.6-0.1-1.2-0.3-1.8 0.2-0.9 0.4-1.8 0.7-2.8 0.3 0.3 0.5 0.6 0.7 1-0.5 0.9-0.4 1.1 0.4 0.8z"></path><path fill="#e3bc5d" d="m23.9 18.7c-0.5 1-0.7 2.1-0.7 3.3h-1.1v-2.9c0.6-0.4 1.2-0.5 1.8-0.4z"></path><path fill="#e4c36a" d="m21.8 19.1v2.9h-2.2v-2.9c0.7-0.5 1.5-0.5 2.2 0z"></path><path fill="#af6845" d="m17.1 18c-0.1 1.3 0 2.7 0.4 4 0.2-0.2 0.4-0.5 0.5-0.8 0.3 0.6 0.7 0.8 1.3 0.6-0.4-1-0.5-2-0.4-3.1 0.4 0 0.6 0.1 0.7 0.4v3.2h-2.9c0-0.2-0.1-0.3-0.3-0.3v-2.9l0.7-1.1z"></path><path fill="#e8594a" d="m5.9 16.6h0.4c0.3 1.5 0.4 3.1 0.4 4.6 0.2 0.6 0.3 1.2 0.3 1.8h-1.4v-3.6c-0.1-1 0-1.9 0.3-2.8z"></path><path fill="#f87b59" d="m11.3 19.4c-0.1 1 0.1 1.8 0.4 2.6h1.4c-0.8 0.2-1.6 0.5-2.5 0.9 0.6 0.2 0.8 0.6 0.7 1.2h-3.9c-0.1-1.6 0.2-1.7 0.7-0.3 0.4-1 0.5-1.9 0.4-2.9 1-0.3 2-0.8 2.8-1.5z"></path><path fill="#ec484c" d="m33.3 18.7c-0.3 0.6-0.4 1.2-0.4 1.8-0.1 0.8-0.4 1.6-0.7 2.4-0.9 0.9-1.4 0.7-1.4-0.6l0.5-5.4c0.4 0.9 1.1 1.5 2 1.8z"></path><path fill="#fa7651" d="m14.6 22.3c0.3 0.3 0.6 0.5 1.1 0.6l-2.2 0.3c0.3 0.1 0.5 0.3 0.7 0.6-0.4 0.3-0.9 0.4-1.4 0.3h-1.5c0.1-0.6-0.1-1-0.7-1.2 0.9-0.4 1.7-0.7 2.5-0.9v-1.5h1.1c0 0.7 0.1 1.3 0.4 1.8z"></path><path fill="#f66f4e" d="m16.4 22c0.2 0 0.3 0.1 0.3 0.3 0.6 0.5 0.4 0.8-0.3 0.9 0.5 0.3 0.8 0.7 0.7 1.3-1.5 0.1-3 0-4.3-0.4 0.5 0.1 1 0 1.4-0.3-0.2-0.3-0.4-0.5-0.7-0.6l2.2-0.3c-0.5-0.1-0.8-0.3-1.1-0.6 0.6 0.1 1.2-0.1 1.8-0.3z"></path><path fill="#e05d4c" d="m23.9 18.7h0.4c-0.2 1.2-0.3 2.4-0.4 3.6-0.6 0-1.2 0-1.8 0.2 0.3 0.2 0.5 0.2 0.8 0.2-0.1 0.4-0.3 0.7-0.8 0.9 0.3 0.1 0.6 0.3 0.8 0.5-0.6 0.5-1 0.3-1.3-0.3-0.5 0.4-1.2 0.6-2 0.7l-1.8-0.4c0.9-0.3 1.5-0.9 1.8-1.8v-0.3h2.2v-2.9h0.3v2.9h1.1c0-1.2 0.2-2.3 0.7-3.3z"></path><path fill="#cf344b" d="m27.5 23.4v1.8c-1.8-0.1-3.6 0-5.4 0.4-1.7-0.3-3.4-0.5-5-0.8h8.6c0.1-0.5-0.1-1-0.7-1.2 0.6-0.1 1-0.4 1.3-0.9 0.2 0.5 0.7 0.8 1.2 0.7z"></path><path fill="#952c5c" d="m4.9 16.2l0.7 3.2v3.6h1.4c-0.1 0.5 0.1 0.9 0.4 1.1h5.4c1.3 0.4 2.8 0.5 4.3 0.4v0.3c-1.8-0.1-3.4 0-5 0.4-1.2-0.2-2.2 0-2.9 0.7h-1.5c-0.4-0.3-0.8-0.4-1.4-0.5 0.8-0.2 0.8-0.4 0.2-0.6-1.4 0.4-2.8 0.6-4.2 0.6-0.6-0.4-0.7-0.8-0.3-1.3 0.1 0.5 0.2 0.5 0.3 0 0.9-0.3 1.9-0.5 2.9-0.3-0.1-2.1-0.2-4.1-0.3-6.2v-1.4z" opacity=".358"></path><path fill="#83235f" d="m34 17.6c0.2 0 0.3 0.1 0.4 0.2-0.6 0.7-0.8 1.5-0.7 2.4v3.9c-0.9 0-1.7 0-2.6 0.2 0.3 0.2 0.4 0.5 0.4 0.9h-2.5c0 0.4 0 0.7-0.2 1.1-0.1-0.5-0.3-0.8-0.5-1.1h-0.4v-2.2c1.8 0.3 3.6 0.6 5.4 0.8 0.1-1.2 0-2.3-0.4-3.3 0-0.6 0.1-1.2 0.4-1.8 0.2-0.4 0.4-0.8 0.7-1.1z" opacity=".341"></path><path fill="#802554" d="m35.1 16.2c0 0.2 0.1 0.4 0.4 0.4-0.1 0.3 0 0.6 0.3 0.7v0.7h-0.3c-0.2-0.5-0.3-0.5-0.4 0-0.3 0.1-0.4 0.4-0.4 0.7-0.4 0.3-0.4 0.5 0 0.7-0.4 1.4-0.4 2.8 0 4.2-0.2 0.4-0.4 0.8-0.5 1.2-0.9 0.4-1.8 0.5-2.7 0.4 0-0.4-0.1-0.7-0.4-0.9 0.9-0.2 1.7-0.2 2.6-0.2v-0.7c0.4-1.1 0.4-2.2 0-3.2-0.1-0.9 0.1-1.7 0.7-2.4-0.1-0.1-0.2-0.2-0.4-0.2 0.1-0.6 0.5-1.1 1.1-1.4z" opacity=".336"></path><path fill="#db9345" d="m17.1 24.8c1.6 0.3 3.3 0.5 5 0.8 0.8-0.1 1.6 0 2.2 0.3h-7.6c-1.4-0.3-3-0.5-4.6-0.3v-0.4c1.6-0.4 3.2-0.5 5-0.4z"></path><path fill="#c30553" d="m30.4 25.9c1-0.4 2.1-0.4 3.3-0.2-1.1 0.2-2.2 0.3-3.3 0.2z" opacity=".008"></path><path fill="#8e3661" d="m22.1 25.6c1.8-0.4 3.6-0.5 5.4-0.4h0.8v1.8c-0.8 0.1-1.5-0.1-2.2-0.4-0.4-0.6-1-0.8-1.8-0.7-0.6-0.3-1.4-0.4-2.2-0.3z" opacity=".389"></path><path fill="#faebaf" d="m12.1 25.2v0.4c-0.4-0.1-0.8 0-1.1 0.1l0.3 0.4c-0.4 0.2-0.7 0.5-1 0.9-0.3-0.1-0.5-0.3-0.8-0.4-0.8-0.1-1.4 0.1-1.8 0.8l-0.7-0.4c-0.1-0.5-0.2-0.5-0.3 0-0.6-0.2-0.8-0.5-0.6-1.1 0.5 0.2 1 0.2 1.6 0 0.5 0.5 1 0.5 1.5 0 0.7-0.7 1.7-0.9 2.9-0.7z" opacity=".808"></path><path fill="#fbcd0f" d="m15.7 25.9v2.5h-1.8c-0.8-0.3-1.6-0.4-2.6-0.5 1.2-1.3 2.6-2 4.4-2z"></path><path fill="#f9d144" d="m12.1 25.6c1.6-0.2 3.2 0 4.6 0.3h-1c-1.8 0-3.2 0.7-4.4 2 1 0.1 1.8 0.2 2.6 0.5h-1.5c-0.8 0-1.7-0.1-2.5-0.3l-0.4-1.5c0.3 0.1 0.5 0.3 0.8 0.4 0.3-0.4 0.6-0.7 1-0.9l-0.3-0.4c0.3-0.1 0.7-0.2 1.1-0.1z"></path><path fill="#7d413d" d="m15.7 25.9h1v0.7c-0.1 0.7-0.5 1.1-1 1.5v-2.2z"></path><path fill="#e7921b" d="m22.9 25.9h1.4c0.2 0.3 0.4 0.5 0.7 0.6l-1.1 2.5 0.8 0.3c-0.6 0.2-1.2 0.3-1.8 0.2h-1.8l-2.9-0.7h1.1v-2.2c1.2-0.1 2.4-0.3 3.6-0.7z"></path><path fill="#7a3559" d="m6.7 27h0.3l0.7 0.4c0.5 0.5 0.5 1 0 1.4 0-0.2-0.1-0.4-0.3-0.4-0.2-0.6-0.5-0.7-0.9-0.3-0.2-0.4-0.1-0.8 0.2-1.1z" opacity=".38"></path><path fill="#ebaf1c" d="m16.7 25.9h6.2c-1.2 0.4-2.4 0.6-3.6 0.7v2.2h-1.1c-0.9 0.1-1.8 0-2.5-0.4v-0.3c0.5-0.4 0.9-0.8 1-1.5v-0.7z"></path><path fill="#864838" d="m16.7 26.6h2.2v1.8h-1.1c0-1.3-0.3-1.3-0.7 0-0.3-0.5-0.5-1.1-0.4-1.8z"></path><path fill="#e9822c" d="m16.4 32c-0.5-0.1-0.8-0.5-0.9-1-0.2 0.4-0.3 0.9-0.2 1.4h-0.4c-0.4-1.1-1.1-1.9-2.1-2.5-0.1-0.4 0-0.8 0.2-1.1 0.7 0.3 1.5 0.5 2.3 0.4-0.1 0.5 0 0.9 0.2 1.4 0.3-0.5 0.7-0.5 1.1 0 0.2 0.6 0.2 1-0.2 1.4z" opacity=".998"></path><path fill="#ca581f" d="m12.4 28.4h3.3c0.7 0.4 1.6 0.5 2.5 0.4l2.9 0.7c-0.3 0.1-0.5 0.4-0.4 0.7-0.8 0.1-1.5 0-2.2-0.3-0.4 1.1-1 2.1-1.9 2.9-0.2-0.3-0.3-0.5-0.2-0.8 0.4-0.4 0.4-0.8 0.2-1.4-0.4-0.5-0.8-0.5-1.1 0-0.2-0.5-0.3-0.9-0.2-1.4-0.8 0.1-1.6-0.1-2.3-0.4-0.2 0.3-0.3 0.7-0.2 1.1h-0.4v-1.5z"></path><path fill="#933f66" d="m27.9 28.4h0.4c0 0.3 0.1 0.4 0.3 0.6-0.3 0.1-0.5 0.3-0.7 0.5-0.2 0-0.4 0.1-0.4 0.4l-0.7 0.3c-0.2-0.7 0.2-1.3 1.1-1.8z" opacity=".318"></path><path fill="#f1b137" d="m9.5 26.6l0.4 1.5c0.4 0.5 0.8 1 1.1 1.6-1.3 0-2.5 0.3-3.6 0.9-0.3 0-0.4 0.1-0.4 0.4-0.5-0.9-0.4-1.8 0.4-2.6 0.2 0 0.3 0.2 0.3 0.4 0.5-0.4 0.5-0.9 0-1.4 0.4-0.7 1-0.9 1.8-0.8z"></path><path d="m27.9 29.5c0.5 0.3 0.5 0.3 0 0z" opacity=".004"></path><path fill="#fe0000" d="m27.5 29.9h0.4c-0.1 0.2-0.2 0.2-0.4 0z" opacity=".004"></path><path fill="#e17719" d="m20.7 30.2c0.1 1.1-0.4 1.8-1.4 2-1.1 0.1-2 0.4-2.9 0.9-0.6 0-0.9-0.2-1.1-0.7-0.1-0.5 0-1 0.2-1.4 0.1 0.5 0.4 0.9 0.9 1-0.1 0.3 0 0.5 0.2 0.8 0.9-0.8 1.5-1.8 1.9-2.9 0.7 0.3 1.4 0.4 2.2 0.3z" opacity=".999"></path><path fill="#dc8415" d="m24.3 25.9c0.8-0.1 1.4 0.1 1.8 0.7v0.4c-0.2 0-0.3 0.1-0.4 0.4l0.8 0.7c-0.5 0.6-0.9 1.3-1.1 2.1-0.7 0.2-1.2 0.6-1.5 1.1h-1.4c0.4-0.6 1-1 1.8-1.2-0.6-0.1-1-0.3-1.4-0.6 0.6 0.1 1.2 0 1.8-0.2l-0.8-0.3 1.1-2.5c-0.3-0.1-0.5-0.3-0.7-0.6z"></path><path fill="#efc04f" d="m26.1 27c0.7 0.3 1.5 0.5 2.3 0.7l0.4-0.3c0.2 0.5 0 0.9-0.5 1-0.2-0.4-0.3-0.4-0.4 0-0.9 0.5-1.3 1.1-1.1 1.8 0.3 1.1 0.6 1.2 0.9 0.4 0.2 0.3 0.3 0.6 0.6 0.9-0.3 0.3-0.4 0.6-0.6 0.9-0.1-0.3-0.3-0.6-0.5-0.7-1.1 0.1-2.2-0.1-3.3-0.4 0.3-0.5 0.8-0.9 1.5-1.1 0.2-0.8 0.6-1.5 1.1-2.1l-0.8-0.7c0.1-0.3 0.2-0.4 0.4-0.4z" opacity=".992"></path><path fill="#a41a0a" d="m10.6 31.3c0.3 0 0.5 0 0.7 0.2-0.3 0.2-0.5 0.2-0.7-0.2z" opacity=".004"></path><path d="m7.7 32c0.3-0.3 0.7-0.4 1.1-0.1-0.3 0.1-0.7 0.2-1.1 0.1z" opacity=".004"></path><path fill="#892356" d="m21.4 31.3c0.4 0.5 0.7 0.5 1.1 0h1.4c1.1 0.3 2.2 0.5 3.3 0.4 0.1 0.4-0.1 0.8-0.4 1.1-1.4 0.4-2.8 0.4-4.3 0.1l3.6-0.3-4-0.4c-0.4-0.1-0.7-0.4-0.7-0.9z" opacity=".39"></path><path fill="#892b47" d="m9.9 28.1c0.8 0.2 1.7 0.3 2.5 0.3v1.1c-1.4 0.1-1.4 0.3 0 0.4h0.4c1 0.6 1.7 1.4 2.1 2.5 0 0.4-0.1 0.8-0.3 1.1-0.8-1-1.8-2.1-3.1-3.3-0.2 0.5-0.5 0.8-0.9 1.1-1.3 0.1-2.5 0-3.6-0.3 0.3 0 0.4-0.2 0.4-0.4 1.1-0.6 2.3-0.9 3.6-0.9-0.3-0.6-0.7-1.1-1.1-1.6z" opacity=".255"></path><path fill="#7e0000" d="m20.3 32.8c0.5 0.2 0.5 0.2 0 0z" opacity=".008"></path><path fill="#52170a" d="m19.6 33.1h0.7c-0.2 0.5-0.4 0.5-0.7 0z" opacity=".004"></path><path fill="#8e2c50" d="m21.1 29.5h1.8c0.4 0.3 0.8 0.5 1.4 0.6-0.8 0.2-1.4 0.6-1.8 1.2-0.4 0.5-0.7 0.5-1.1 0-0.3 0.3-0.6 0.8-1.1 1.5-0.3-0.1-0.6 0-0.7 0.3-0.3 0-0.6 0.1-0.7 0.4-0.5-0.1-0.8 0-1.1 0.3-0.3 0-0.6 0.1-0.7 0.4-0.6 0-1.2-0.1-1.8-0.4-0.1-0.4-0.2-0.4-0.4 0-0.2 0-0.3-0.1-0.3-0.3 0.2-0.3 0.3-0.7 0.3-1.1h0.4c0.2 0.5 0.5 0.7 1.1 0.7 0.9-0.5 1.8-0.8 2.9-0.9 1-0.2 1.5-0.9 1.4-2-0.1-0.3 0.1-0.6 0.4-0.7z" opacity=".345"></path><path fill="#fe0000" d="m18.9 33.5c0.5 0.2 0.5 0.2 0 0z" opacity=".004"></path><path d="m14.9 33.8h0.4c-0.1 0.3-0.2 0.3-0.4 0z" opacity=".004"></path><path fill="#fe0000" d="m17.8 34.2v-0.4c1 0.2 1 0.3 0 0.4z" opacity=".004"></path><path fill="#2f0e00" d="m17.1 34.6v-0.4h0.7v0.4h-0.7z" opacity=".004"></path></svg>