<svg xmlns="http://www.w3.org/2000/svg" version="1.1" width="100px" height="100px" style="shape-rendering:geometricPrecision; text-rendering:geometricPrecision; image-rendering:optimizeQuality; fill-rule:evenodd; clip-rule:evenodd" xmlns:xlink="http://www.w3.org/1999/xlink">
<g><path style="opacity:1" fill="#fbfbfb" d="M -0.5,-0.5 C 20.5,-0.5 41.5,-0.5 62.5,-0.5C 60.0521,0.473067 57.3854,0.8064 54.5,0.5C 32.6564,-0.289333 16.3231,8.71067 5.5,27.5C 4.88258,27.3893 4.38258,27.056 4,26.5C 3.02655,28.3921 2.35989,30.3921 2,32.5C 1.76445,30.8807 0.931117,29.8807 -0.5,29.5C -0.5,19.5 -0.5,9.5 -0.5,-0.5 Z"/></g>
<g><path style="opacity:1" fill="#fcfaf8" d="M 62.5,-0.5 C 74.8333,-0.5 87.1667,-0.5 99.5,-0.5C 99.5,15.1667 99.5,30.8333 99.5,46.5C 99.1667,46.5 98.8333,46.5 98.5,46.5C 97.742,36.2061 94.0753,27.2061 87.5,19.5C 84.7689,15.7657 81.4356,12.7657 77.5,10.5C 74.8388,7.4977 71.5055,5.4977 67.5,4.5C 65.5786,3.63732 63.5786,2.97065 61.5,2.5C 58.9902,2.07332 56.6568,1.40666 54.5,0.5C 57.3854,0.8064 60.0521,0.473067 62.5,-0.5 Z"/></g>
<g><path style="opacity:1" fill="#e95415" d="M 61.5,2.5 C 63.5786,2.97065 65.5786,3.63732 67.5,4.5C 65.2084,6.26708 62.5418,7.26708 59.5,7.5C 58.1667,7.5 56.8333,7.5 55.5,7.5C 55.5,7.16667 55.5,6.83333 55.5,6.5C 57.7952,5.52544 59.7952,4.19211 61.5,2.5 Z"/></g>
<g><path style="opacity:1" fill="#e5bdba" d="M 55.5,6.5 C 55.5,6.83333 55.5,7.16667 55.5,7.5C 49.4638,7.35988 43.4638,7.69322 37.5,8.5C 38.2625,7.73209 39.2625,7.23209 40.5,7C 45.4889,6.50074 50.4889,6.33407 55.5,6.5 Z"/></g>
<g><path style="opacity:1" fill="#fafaf9" d="M 55.5,7.5 C 56.8333,7.5 58.1667,7.5 59.5,7.5C 64.7054,9.24276 69.7054,11.5761 74.5,14.5C 77.1413,16.8044 79.808,19.1377 82.5,21.5C 84.4325,24.3661 86.0991,27.3661 87.5,30.5C 86.0568,31.3351 85.0568,32.6684 84.5,34.5C 82.4706,33.3707 82.1373,33.8707 83.5,36C 82.9558,36.7172 82.2891,37.2172 81.5,37.5C 80.2878,31.1103 76.6212,26.6103 70.5,24C 66.2214,22.7561 61.888,22.4228 57.5,23C 54.6032,25.41 51.6032,27.5767 48.5,29.5C 45.8103,26.8154 42.8103,24.4821 39.5,22.5C 35.8476,20.6265 32.0143,19.9598 28,20.5C 26.1746,21.1029 24.3413,21.7696 22.5,22.5C 21.7542,23.7362 21.4208,25.0695 21.5,26.5C 20.0695,26.4208 18.7362,26.7542 17.5,27.5C 16.4822,26.8075 15.4822,26.1408 14.5,25.5C 19.783,16.6839 27.4496,11.0172 37.5,8.5C 43.4638,7.69322 49.4638,7.35988 55.5,7.5 Z"/></g>
<g><path style="opacity:1" fill="#ec8718" d="M 67.5,4.5 C 71.5055,5.4977 74.8388,7.4977 77.5,10.5C 76.1224,11.5451 75.1224,12.8784 74.5,14.5C 69.7054,11.5761 64.7054,9.24276 59.5,7.5C 62.5418,7.26708 65.2084,6.26708 67.5,4.5 Z"/></g>
<g><path style="opacity:1" fill="#e65011" d="M 77.5,10.5 C 81.4356,12.7657 84.7689,15.7657 87.5,19.5C 86.2101,20.0577 85.3768,21.0577 85,22.5C 84.6582,20.3808 83.8249,20.0474 82.5,21.5C 79.808,19.1377 77.1413,16.8044 74.5,14.5C 75.1224,12.8784 76.1224,11.5451 77.5,10.5 Z"/></g>
<g><path style="opacity:1" fill="#ca0d24" d="M 39.5,22.5 C 42.8103,24.4821 45.8103,26.8154 48.5,29.5C 47.453,30.0778 47.6197,30.7445 49,31.5C 49.4996,38.1583 49.6663,44.825 49.5,51.5C 48.5,51.5 47.5,51.5 46.5,51.5C 36.9838,48.0372 27.3171,45.0372 17.5,42.5C 16.4026,37.8739 17.4026,33.5406 20.5,29.5C 25.6077,24.0673 31.941,21.734 39.5,22.5 Z"/></g>
<g><path style="opacity:1" fill="#e10b15" d="M 81.5,37.5 C 81.7845,39.4147 81.4511,41.0813 80.5,42.5C 70.5556,44.9009 60.8889,48.0676 51.5,52C 56.4198,53.9011 61.4198,55.5678 66.5,57C 67.756,57.4169 68.4226,58.2502 68.5,59.5C 62.5,67.8333 56.5,76.1667 50.5,84.5C 50.1667,84.5 49.8333,84.5 49.5,84.5C 49.5,73.5 49.5,62.5 49.5,51.5C 49.6663,44.825 49.4996,38.1583 49,31.5C 47.6197,30.7445 47.453,30.0778 48.5,29.5C 51.6032,27.5767 54.6032,25.41 57.5,23C 61.888,22.4228 66.2214,22.7561 70.5,24C 76.6212,26.6103 80.2878,31.1103 81.5,37.5 Z"/></g>
<g><path style="opacity:1" fill="#faf7f6" d="M 39.5,22.5 C 31.941,21.734 25.6077,24.0673 20.5,29.5C 17.4026,33.5406 16.4026,37.8739 17.5,42.5C 21.1467,48.14 25.1467,53.4734 29.5,58.5C 34.4471,65.9538 39.6137,73.2872 45,80.5C 46.3712,82.0414 47.8712,83.3747 49.5,84.5C 49.8333,84.5 50.1667,84.5 50.5,84.5C 49.4019,85.397 49.4019,86.2303 50.5,87C 49.8333,87.3333 49.1667,87.6667 48.5,88C 49.9494,89.117 51.6161,89.7837 53.5,90C 50.5682,90.3112 47.9016,90.4779 45.5,90.5C 48.7683,91.487 52.1016,91.8204 55.5,91.5C 44.3395,93.4631 34.0062,91.1298 24.5,84.5C 22.5248,82.863 20.5248,81.1964 18.5,79.5C 16.3971,76.2802 14.0638,73.2802 11.5,70.5C 10.3953,66.6483 9.06196,62.9816 7.5,59.5C 4.38897,46.8983 6.7223,35.565 14.5,25.5C 15.4822,26.1408 16.4822,26.8075 17.5,27.5C 18.7362,26.7542 20.0695,26.4208 21.5,26.5C 21.4208,25.0695 21.7542,23.7362 22.5,22.5C 24.3413,21.7696 26.1746,21.1029 28,20.5C 32.0143,19.9598 35.8476,20.6265 39.5,22.5 Z"/></g>
<g><path style="opacity:1" fill="#fbfafa" d="M 87.5,30.5 C 90.8907,35.9151 92.224,41.9151 91.5,48.5C 91.2534,68.5003 81.9201,82.3337 63.5,90C 60.8323,90.567 58.1656,91.067 55.5,91.5C 52.1016,91.8204 48.7683,91.487 45.5,90.5C 47.9016,90.4779 50.5682,90.3112 53.5,90C 51.6161,89.7837 49.9494,89.117 48.5,88C 49.1667,87.6667 49.8333,87.3333 50.5,87C 49.4019,86.2303 49.4019,85.397 50.5,84.5C 56.5,76.1667 62.5,67.8333 68.5,59.5C 73.2703,54.3932 77.2703,48.7266 80.5,42.5C 81.4511,41.0813 81.7845,39.4147 81.5,37.5C 82.2891,37.2172 82.9558,36.7172 83.5,36C 82.1373,33.8707 82.4706,33.3707 84.5,34.5C 85.0568,32.6684 86.0568,31.3351 87.5,30.5 Z"/></g>
<g><path style="opacity:1" fill="#e01819" d="M 54.5,0.5 C 56.6568,1.40666 58.9902,2.07332 61.5,2.5C 59.7952,4.19211 57.7952,5.52544 55.5,6.5C 50.4889,6.33407 45.4889,6.50074 40.5,7C 39.2625,7.23209 38.2625,7.73209 37.5,8.5C 27.4496,11.0172 19.783,16.6839 14.5,25.5C 6.7223,35.565 4.38897,46.8983 7.5,59.5C 7.47249,62.9164 6.47249,65.9164 4.5,68.5C -1.10592,54.6641 -0.772583,40.9974 5.5,27.5C 16.3231,8.71067 32.6564,-0.289333 54.5,0.5 Z"/></g>
<g><path style="opacity:1" fill="#a9120b" d="M 80.5,42.5 C 77.2703,48.7266 73.2703,54.3932 68.5,59.5C 68.4226,58.2502 67.756,57.4169 66.5,57C 61.4198,55.5678 56.4198,53.9011 51.5,52C 60.8889,48.0676 70.5556,44.9009 80.5,42.5 Z"/></g>
<g><path style="opacity:1" fill="#881515" d="M 17.5,42.5 C 27.3171,45.0372 36.9838,48.0372 46.5,51.5C 41.976,54.2235 36.976,55.8902 31.5,56.5C 30.2867,56.7472 29.62,57.4138 29.5,58.5C 25.1467,53.4734 21.1467,48.14 17.5,42.5 Z"/></g>
<g><path style="opacity:1" fill="#a3181d" d="M 46.5,51.5 C 47.5,51.5 48.5,51.5 49.5,51.5C 49.5,62.5 49.5,73.5 49.5,84.5C 47.8712,83.3747 46.3712,82.0414 45,80.5C 39.6137,73.2872 34.4471,65.9538 29.5,58.5C 29.62,57.4138 30.2867,56.7472 31.5,56.5C 36.976,55.8902 41.976,54.2235 46.5,51.5 Z"/></g>
<g><path style="opacity:1" fill="#e01e1c" d="M 87.5,19.5 C 94.0753,27.2061 97.742,36.2061 98.5,46.5C 97.6765,71.3092 85.6765,87.9759 62.5,96.5C 47.9557,100.524 34.6224,98.1909 22.5,89.5C 22.2454,88.0639 21.9121,86.5639 21.5,85C 22.448,84.5172 23.448,84.3505 24.5,84.5C 34.0062,91.1298 44.3395,93.4631 55.5,91.5C 58.1656,91.067 60.8323,90.567 63.5,90C 81.9201,82.3337 91.2534,68.5003 91.5,48.5C 92.224,41.9151 90.8907,35.9151 87.5,30.5C 86.0991,27.3661 84.4325,24.3661 82.5,21.5C 83.8249,20.0474 84.6582,20.3808 85,22.5C 85.3768,21.0577 86.2101,20.0577 87.5,19.5 Z"/></g>
<g><path style="opacity:1" fill="#fbfbfb" d="M 98.5,46.5 C 98.8333,46.5 99.1667,46.5 99.5,46.5C 99.5,64.1667 99.5,81.8333 99.5,99.5C 85.8333,99.5 72.1667,99.5 58.5,99.5C 59.5903,98.1429 60.9236,97.1429 62.5,96.5C 85.6765,87.9759 97.6765,71.3092 98.5,46.5 Z"/></g>
<g><path style="opacity:1" fill="#fbf9f8" d="M 5.5,27.5 C -0.772583,40.9974 -1.10592,54.6641 4.5,68.5C 5.5,70.5 6.5,72.5 7.5,74.5C 9.45279,78.1203 12.1195,81.1203 15.5,83.5C 17.2393,86.2427 19.5726,88.2427 22.5,89.5C 34.6224,98.1909 47.9557,100.524 62.5,96.5C 60.9236,97.1429 59.5903,98.1429 58.5,99.5C 38.8333,99.5 19.1667,99.5 -0.5,99.5C -0.5,76.1667 -0.5,52.8333 -0.5,29.5C 0.931117,29.8807 1.76445,30.8807 2,32.5C 2.35989,30.3921 3.02655,28.3921 4,26.5C 4.38258,27.056 4.88258,27.3893 5.5,27.5 Z"/></g>
<g><path style="opacity:1" fill="#e96015" d="M 7.5,59.5 C 9.06196,62.9816 10.3953,66.6483 11.5,70.5C 10.8333,72.5 9.5,73.8333 7.5,74.5C 6.5,72.5 5.5,70.5 4.5,68.5C 6.47249,65.9164 7.47249,62.9164 7.5,59.5 Z"/></g>
<g><path style="opacity:1" fill="#ee8310" d="M 11.5,70.5 C 14.0638,73.2802 16.3971,76.2802 18.5,79.5C 17.6588,80.9264 16.6588,82.2597 15.5,83.5C 12.1195,81.1203 9.45279,78.1203 7.5,74.5C 9.5,73.8333 10.8333,72.5 11.5,70.5 Z"/></g>
<g><path style="opacity:1" fill="#e85f15" d="M 18.5,79.5 C 20.5248,81.1964 22.5248,82.863 24.5,84.5C 23.448,84.3505 22.448,84.5172 21.5,85C 21.9121,86.5639 22.2454,88.0639 22.5,89.5C 19.5726,88.2427 17.2393,86.2427 15.5,83.5C 16.6588,82.2597 17.6588,80.9264 18.5,79.5 Z"/></g>
</svg>
