<svg xmlns="http://www.w3.org/2000/svg" width="100" height="100" viewBox="0 0 100 100" version="1.1">
	<path fill-opacity="0.227" d="M 36.912 2.383 C 20.433 7.150, 6.764 21.043, 2.361 37.500 C 0.546 44.286, 0.656 56.466, 2.593 63.068 C 7.581 80.068, 22.867 94.378, 39.799 97.898 C 74.026 105.014, 105.071 73.962, 97.885 39.799 C 94.526 23.829, 82.876 10.356, 66.830 3.884 C 60.151 1.190, 43.860 0.373, 36.912 2.383 M 41 8.314 C 33.359 10.064, 23.762 15.450, 18.912 20.711 C 16.667 23.147, 13.502 27.977, 11.879 31.444 C 5.849 44.330, 6.049 56.603, 12.501 69.685 C 16.698 78.193, 22.447 83.679, 31.888 88.185 C 40.934 92.502, 53.456 93.252, 62.917 90.043 C 76.259 85.517, 85.513 76.273, 90.028 62.960 C 91.856 57.571, 92.138 55.007, 91.725 47.500 C 91.173 37.444, 89.151 31.698, 83.417 23.887 C 74.199 11.329, 56.388 4.790, 41 8.314 M 32.914 23.437 C 25.276 24.990, 19.679 29.503, 18.014 35.451 C 17.321 37.926, 16.963 40.749, 17.220 41.725 C 17.877 44.228, 49.108 86.137, 50.056 85.787 C 51.151 85.384, 83 42.322, 83 41.245 C 83 40.760, 82.332 38.112, 81.515 35.362 C 79.586 28.865, 73.850 24.475, 65.605 23.182 C 60.144 22.325, 59.770 22.414, 55.223 25.647 C 52.629 27.491, 50.120 29, 49.647 29 C 49.174 29, 47.148 27.725, 45.144 26.166 C 40.199 22.320, 39.342 22.129, 32.914 23.437" stroke="none" fill="black" fill-rule="evenodd"/>
	<path fill-opacity="0.285" d="M 38.348 2.420 C 12.294 8.740, -4.142 35.836, 2.533 61.465 C 4.775 70.072, 8.667 76.612, 16 84.096 C 23.503 91.753, 30.314 95.542, 40.374 97.657 C 63.779 102.578, 88.044 88.623, 95.928 65.710 C 102.166 47.578, 97.417 28.167, 83.574 15.219 C 77.111 9.173, 67.481 3.808, 60 2.085 C 54.079 0.722, 44.755 0.866, 38.348 2.420 M 39.105 8.515 C 31.090 10.770, 24.586 14.687, 18.935 20.662 C -1.811 42.598, 6.047 78.464, 34 89.421 C 54.602 97.497, 78.365 88.396, 87.897 68.780 C 96.390 51.301, 92.413 30.781, 78.008 17.745 C 72.302 12.582, 72.132 12.289, 73.782 10.466 C 75.454 8.618, 75.443 8.614, 73.381 10.320 C 71.353 11.998, 71.030 11.983, 65.935 9.974 C 58.836 7.176, 46.289 6.494, 39.105 8.515 M 31.026 23.735 C 26.205 24.637, 20.198 29.970, 18.548 34.813 C 17.697 37.312, 17 39.993, 17 40.772 C 17 41.551, 24.301 52.044, 33.226 64.091 C 48.551 84.778, 49.545 85.897, 51.137 84.247 C 52.065 83.286, 59.628 73.337, 67.944 62.139 C 77.444 49.345, 82.884 41.168, 82.580 40.139 C 82.313 39.237, 81.790 37.150, 81.416 35.500 C 80.026 29.354, 73.206 24.394, 64.785 23.405 C 59.475 22.781, 58.983 22.921, 54.502 26.343 L 49.796 29.936 45.254 26.468 C 40.704 22.994, 37.885 22.452, 31.026 23.735 M 13.564 78.707 C 13.022 80.132, 13.136 80.247, 14.124 79.267 C 14.808 78.588, 15.115 77.781, 14.807 77.474 C 14.499 77.166, 13.940 77.721, 13.564 78.707" stroke="none" fill="black" fill-rule="evenodd"/>
	<path fill-opacity="0.383" d="M 39.263 2.453 C 11.130 8.840, -5.748 39.218, 4.146 65.660 C 6.198 71.145, 6.251 71.193, 8.149 69.296 C 9.977 67.468, 9.996 67.081, 8.536 61.476 C 4.517 46.048, 8.598 30.704, 19.626 19.781 C 29.330 10.169, 40.047 6.350, 54.750 7.265 C 61.164 7.664, 63 7.486, 63 6.463 C 63 5.739, 63.788 4.968, 64.750 4.751 C 67.508 4.126, 59.352 2.057, 52 1.516 C 48.195 1.236, 42.914 1.625, 39.263 2.453 M 82.240 14.500 C 82.944 15.780, 80.481 18.104, 79.390 17.190 C 78.463 16.414, 79.192 17.461, 84.279 24.216 C 103.107 49.215, 88.770 85.598, 57.568 92 C 47.529 94.060, 34.297 91.405, 25.772 85.620 L 22.393 83.327 21.314 85.615 C 20.001 88.396, 21.207 89.694, 28.500 93.346 C 36.198 97.201, 41.986 98.273, 52.753 97.841 C 61.519 97.489, 63.324 97.068, 70.320 93.746 C 80.830 88.754, 88.749 80.836, 93.758 70.308 C 97.180 63.118, 97.502 61.670, 97.836 52 C 98.242 40.189, 96.335 32.410, 90.963 23.976 C 88.521 20.142, 80.628 11.568, 82.240 14.500 M 31.913 23.931 C 25.225 25.238, 20.034 30.089, 18.109 36.828 C 17.052 40.529, 17.105 41.511, 18.473 43.599 C 23.059 50.599, 49.153 85, 49.876 85 C 50.340 85, 57.804 75.444, 66.463 63.764 L 82.207 42.528 81.597 38.079 C 81.262 35.632, 80.370 32.687, 79.615 31.535 C 77.078 27.664, 70.752 24.183, 65 23.494 C 59.762 22.866, 59.273 23.008, 54.724 26.483 L 49.947 30.132 45.090 26.566 C 40.204 22.980, 38.512 22.641, 31.913 23.931" stroke="none" fill="black" fill-rule="evenodd"/>
	<path fill-opacity="0.379" d="M 43 2.045 C 23.967 4.962, 8.667 18.271, 3.449 36.451 C 1.568 43.004, 1.240 56.932, 2.871 61 C 3.538 62.664, 3.894 62.932, 3.937 61.800 C 3.971 60.865, 4.623 59.740, 5.384 59.300 C 6.374 58.728, 6.881 55.623, 7.163 48.421 C 7.515 39.404, 7.916 37.613, 10.964 31.421 C 17.445 18.255, 30.064 9.052, 44.354 7.071 C 48.124 6.549, 51.949 5.465, 52.854 4.664 C 53.759 3.862, 55.400 2.987, 56.500 2.719 C 57.914 2.375, 57.621 2.194, 55.500 2.102 C 53.850 2.031, 51.600 1.799, 50.500 1.587 C 49.400 1.375, 46.025 1.581, 43 2.045 M 87.403 22.739 C 87.056 23.970, 86.387 24.739, 85.916 24.448 C 85.445 24.157, 86.663 27.294, 88.622 31.419 C 102.740 61.148, 79.768 95.026, 47.050 92.728 C 42.897 92.436, 37.140 91.261, 34.256 90.116 C 31.371 88.970, 29.062 88.364, 29.124 88.767 C 29.478 91.068, 28.840 92.153, 27.448 91.618 C 26.594 91.291, 26.153 91.439, 26.467 91.947 C 26.781 92.455, 29.617 93.892, 32.769 95.140 C 41.016 98.406, 58.932 98.428, 67.119 95.182 C 79.460 90.289, 89.600 80.231, 94.631 67.891 C 100.401 53.741, 98.134 33.182, 89.626 22.500 C 88.044 20.513, 88.029 20.515, 87.403 22.739 M 32.802 24.027 C 27.149 24.980, 21.211 29.251, 19.352 33.699 C 16.508 40.506, 17.028 41.606, 33.656 63.988 C 42.267 75.579, 49.641 84.936, 50.042 84.781 C 50.444 84.627, 57.822 75.050, 66.439 63.500 C 81.346 43.518, 82.079 42.321, 81.551 38.809 C 81.245 36.778, 80.593 34.060, 80.101 32.767 C 78.704 29.091, 71.649 24.799, 65.391 23.818 C 60.016 22.975, 59.687 23.059, 55.036 26.474 C 52.394 28.413, 49.959 30, 49.625 30 C 49.291 30, 46.954 28.425, 44.432 26.500 C 41.910 24.575, 39.319 23.053, 38.673 23.118 C 38.028 23.182, 35.386 23.592, 32.802 24.027" stroke="none" fill="black" fill-rule="evenodd"/>
</svg>