<?xml version="1.0"?><svg xmlns="http://www.w3.org/2000/svg" width="36" height="36" shape-rendering="geometricPrecision" text-rendering="geometricPrecision" image-rendering="optimizeQuality" fill-rule="evenodd" clip-rule="evenodd" viewBox="0 0 36 36"><path fill="#e7e6e7" d="m19.7 0.1v-0.2h16.2v15.1l-0.3-0.7c-0.2-1.3-0.6-2.6-1.2-3.9-0.8-1.7-1.8-3.2-3.1-4.5-0.3-0.6-0.8-1.1-1.4-1.5-1.7-1.4-3.5-2.4-5.5-3.2-0.2-0.3-0.5-0.4-0.8-0.4-0.2 0.1-0.4 0-0.5-0.1-0.3-0.1-0.6-0.2-0.9-0.2h-0.1c-0.4-0.2-0.8-0.3-1.2-0.3-0.4 0-0.8 0-1.2-0.1z"></path><path fill="#171717" d="m19.7 0.1c0.4 0.1 0.8 0.1 1.2 0.1 0.3 0.2 0.8 0.3 1.2 0.3h0.1c0.1 0.1 0.2 0.1 0.4 0.2-0.4 0-0.7 0-1.1-0.1h-0.4c-1.8-0.3-3.6-0.4-5.4-0.2-0.6 0.1-1.1 0.2-1.6 0.3-0.3 0-0.5 0.1-0.8 0.3-0.5 0-0.9 0.2-1.4 0.3-0.1 0-0.2 0-0.3-0.1 1.1-0.5 2.2-0.8 3.4-0.9 1.6-0.2 3.2-0.3 4.7-0.2z"></path><path fill="#6f6f6f" d="m16.3-0.1h3.4v0.2c-1.5-0.1-3.1 0-4.7 0.2 0.4-0.2 0.8-0.3 1.3-0.4z"></path><path fill="#797979" d="m20.9 0.2c0.4 0 0.8 0.1 1.2 0.3-0.4 0-0.9-0.1-1.2-0.3z"></path><path fill="#c1c1c1" d="m21.1 0.6c-2.3-0.2-4.7-0.1-7 0.1 0.5-0.1 1-0.2 1.6-0.3 1.8-0.2 3.6-0.1 5.4 0.2z"></path><path fill="#fcfcfc" d="m21.1 0.6h0.4c0.5 0.2 1.1 0.4 1.6 0.5 5.8 1.8 9.7 5.7 11.7 11.4 0 0.3 0.1 0.5 0.2 0.7 0.1 0.1 0.2 0.3 0.2 0.5 0 0.5 0.1 1 0.3 1.5 0.2 0.9 0.2 1.8 0.2 2.7 0 0.7 0 1.3-0.1 1.8-0.2 0.4-0.3 0.7-0.3 1.2-0.3 0.2-0.3 0.6-0.1 0.9-0.2 0.4-0.3 0.9-0.3 1.3-1.4 4.6-4.3 8.1-8.5 10.5-0.3 0-0.5 0.1-0.7 0.3-1.8 0.9-3.7 1.4-5.7 1.6-1.7 0-3.4 0-5.1-0.1h-0.1c-0.7-0.3-1.4-0.5-2.1-0.6-0.2-0.2-0.2-0.3 0.1-0.4-0.2 0-0.3-0.1-0.3-0.3-0.1 0.2-0.1 0.3-0.1 0.5-0.4-0.1-0.9-0.2-1.3-0.3-3.7-1.6-6.5-4.2-8.5-7.7-0.4-0.8-0.8-1.6-1.1-2.4-0.1-0.3-0.2-0.6-0.3-0.9-0.1-0.6-0.2-1.1-0.5-1.6v-0.2c0-0.4 0-0.8 0.1-1.2-0.1-0.2-0.2-0.5-0.2-0.8-0.1-1.7-0.1-3.4 0.1-5.2 0.2-0.2 0.2-0.5 0.3-0.9 0.1-0.2 0.2-0.4 0.2-0.7v-0.2c0.3-0.3 0.4-0.6 0.4-1.1 0.6-1.6 1.5-3 2.5-4.3 0.4-0.2 0.6-0.5 0.7-0.9 1.6-1.8 3.5-3.2 5.7-4.3 0.4-0.2 0.8-0.3 1.3-0.4 0.5-0.1 1-0.3 1.5-0.5 0.3 0 0.6-0.1 0.8-0.3 2.3-0.2 4.7-0.3 7-0.1z"></path><path fill="#656565" d="m22.2 0.5c0.3 0 0.6 0.1 0.9 0.2-0.5 0.1-0.5 0.2 0 0.4-0.5-0.1-1.1-0.3-1.6-0.5 0.4 0.1 0.7 0.1 1.1 0.1-0.2-0.1-0.3-0.1-0.4-0.2z"></path><path fill="#9d9b9c" d="m14.1 0.7c-0.2 0.2-0.5 0.3-0.8 0.3 0.3-0.2 0.5-0.3 0.8-0.3z"></path><path fill="#8a8a8a" d="m23.6 0.8c0.3 0 0.6 0.1 0.8 0.4-0.3-0.1-0.6-0.2-0.8-0.4z"></path><path fill="#a9a8a8" d="m13.3 1c-0.5 0.2-1 0.4-1.5 0.5l0.1-0.2c0.5-0.1 0.9-0.3 1.4-0.3z"></path><path fill="#7a7879" d="m29.9 4.4c0.6 0.4 1.1 0.9 1.4 1.5-0.5-0.4-1-0.9-1.4-1.5z"></path><path fill="#222122" d="m11.6 1.2c0.1 0.1 0.2 0.1 0.3 0.1l-0.1 0.2c-0.5 0.1-0.9 0.2-1.3 0.4-2.2 1.1-4.1 2.5-5.7 4.3-0.3 0.3-0.5 0.6-0.7 0.9-1 1.3-1.9 2.7-2.5 4.3-0.2 0.4-0.3 0.7-0.4 1.1v0.2c-0.2 0.2-0.3 0.4-0.2 0.7-0.2 0.3-0.3 0.6-0.3 0.9-0.1 0.5-0.2 1-0.3 1.5 0 1.3 0 2.6 0 3.9 0.1 0.7 0.2 1.3 0.3 1.8v0.2c0.1 0.6 0.2 1.1 0.5 1.6 0 0.2 0 0.3-0.1 0.5-0.1-0.3-0.2-0.6-0.4-0.9-0.1-0.3-0.2-0.6-0.2-0.9 0-0.6-0.2-1.2-0.3-1.8v-0.5c-0.1-1.4 0-2.8 0.1-4.2 1-6.3 4.3-10.9 9.9-13.8 0.5-0.1 1-0.3 1.4-0.5z"></path><path fill="#a09e9f" d="m4.8 6.2c-0.1 0.4-0.3 0.7-0.7 0.9 0.2-0.3 0.4-0.6 0.7-0.9z"></path><path fill="#9e9e9e" d="m1.6 11.4c0 0.5-0.1 0.8-0.4 1.1 0.1-0.4 0.2-0.7 0.4-1.1z"></path><path fill="#979797" d="m1.2 12.7c0 0.3-0.1 0.5-0.2 0.7-0.1-0.3 0-0.5 0.2-0.7z"></path><path fill="#9e9e9e" d="m34.8 12.5c0.2 0.2 0.3 0.4 0.2 0.7-0.1-0.2-0.2-0.4-0.2-0.7z"></path><path fill="#858585" d="m1 13.4c-0.1 0.4-0.1 0.7-0.3 0.9 0-0.3 0.1-0.6 0.3-0.9z"></path><path fill="#daf9d8" d="m32.5 17.6c0.5-0.6 0.8-1.3 0.6-2-0.3-0.1-0.7-0.2-1.1-0.1 0-0.5-0.1-0.8-0.3-1.2 0-0.1-0.1-0.1-0.1-0.2-0.3 0.1-0.4 0.2-0.6 0.2h-0.2c0-0.3 0.2-0.5 0.6-0.5l0.5 0.1c0.1 0.4 0.2 0.7 0.3 0.9-0.1 0.2-0.1 0.4 0 0.6 1.1-0.4 1.5 0 1.2 1-0.2 0.4-0.4 0.7-0.5 1-0.1 0.1-0.3 0.2-0.4 0.2z"></path><path fill="#488d3f" d="m31.7 14.3h-0.7c0.2 0 0.3-0.1 0.6-0.2 0 0.1 0.1 0.1 0.1 0.2z"></path><path fill="#858283" d="m35.2 13.7c0.2 0.4 0.3 1 0.3 1.5-0.2-0.5-0.3-1-0.3-1.5z"></path><path fill="#48a94b" d="m30.5 14.7c-0.3 0.5-0.5 1-0.5 1.6l0.1 0.1c0.1-0.2 0.2-0.2 0.3-0.3 0 0.3-0.1 0.4-0.3 0.6-0.3-0.5-0.3-1-0.1-1.6 0.2-0.1 0.4-0.3 0.5-0.4z"></path><path fill="#14b516" d="m30.8 14.3h0.9c0 0.4 0 0.7 0.1 1.1-0.2-0.1-0.4 0-0.6 0.1 0-0.1 0-0.3-0.1-0.4-0.1 0.1-0.1 0.1-0.2 0.1-0.1-0.1-0.1-0.1-0.2 0-0.1 0.4-0.2 0.7-0.3 0.9-0.1 0.1-0.2 0.1-0.3 0.3l-0.1-0.1c0-0.6 0.2-1.1 0.5-1.6l0.3-0.4z"></path><path fill="#d7f8db" d="m4.7 16.1l0.1-0.2c0.5-0.3 1.1-0.5 1.8-0.5-0.8-0.1-1.5 0-2.2 0.3 0.2-0.2 0.4-0.3 0.6-0.4 0.7-0.1 1.4-0.1 2.1 0.1l0 0.1-0.2 0.1c-0.8 0.1-1.5 0.3-2.2 0.5z"></path><path fill="#29a42f" d="m31.7 14.3c0.2 0.4 0.3 0.7 0.3 1.2-0.5-0.1-0.8 0.1-1.2 0.4 0-0.2 0-0.4 0.1-0.7 0.1 0 0.1 0 0.2-0.1 0.1 0.1 0.1 0.3 0.1 0.4 0.2-0.1 0.4-0.2 0.6-0.1-0.1-0.4-0.1-0.7-0.1-1.1z"></path><path fill="#47a04b" d="m4.8 15.9c-0.1 0-0.1 0-0.2-0.1-0.2 0.1-0.5 0.2-0.7 0.3 0.1-0.2 0.3-0.3 0.5-0.4 0.7-0.3 1.4-0.4 2.2-0.3-0.7 0-1.3 0.2-1.8 0.5z"></path><path fill="#847e80" d="m35.6 14.3l0.3 0.7v0.9c-0.1-0.5-0.2-1-0.3-1.6z"></path><path fill="#1cb01c" d="m33.1 15.6c0.2 0.7-0.1 1.4-0.6 2-0.7 0.3-1.4 0.4-2.1 0.3 0.3-0.2 0.7-0.3 1-0.5 0.4-0.2 0.7-0.4 0.9-0.7-0.3 0.1-0.6 0.2-0.9 0.5-1.3 0.8-1.6 0.4-0.7-1 0.7-0.6 1.5-0.8 2.4-0.6z"></path><path fill="#397538" d="m11.2 16c0 0.1 0 0.1 0.1 0.1-0.1 0.2-0.2 0.2-0.3 0 0 0 0.1-0.1 0.2-0.1z"></path><path fill="#b33f74" d="m18.3 16.1c0.5 0 1 0.1 1.6 0.2 0.2 0.4 0.1 0.8-0.4 1.1 1.1-0.1 1.3 0.3 0.8 1.2-0.5 0.6-1 0.9-1.6 1.1l-0.3-0.1c0.9-0.3 1.5-0.8 1.9-1.6 0-0.1 0-0.2-0.1-0.2l-0.5-0.1c-0.5 0.1-1 0.3-1.5 0.5 0 0.5 0 1-0.1 1.5l-0.3-3.1c-0.3 0.2-0.6 0.3-0.9 0.2 0.5-0.3 0.9-0.5 1.4-0.7z"></path><path fill="#2faa2f" d="m4.8 15.9l-0.1 0.2c-0.2 0-0.3 0.1-0.4 0.3-0.2 0.2-0.3 0.4-0.4 0.6l-0.2 0.3c0.1-0.7-0.1-0.7-0.5-0.3-0.3 0.8-0.3 1.6 0 2.4 0 0.1 0 0.1-0.1 0.1-0.3-0.6-0.4-1.3-0.3-2 0.2-0.5 0.5-1 0.9-1.4h0.2c0.2-0.1 0.5-0.2 0.7-0.3 0.1 0.1 0.1 0.1 0.2 0.1z"></path><path fill="#e5f6e4" d="m15.7 15.6c0.9-0.1 1.2 0.2 0.8 1.1-0.8 0-1.1-0.4-0.8-1.1z"></path><path fill="#191919" d="m6.5 16.5c0.3 0 0.4 0.2 0.3 0.5-0.2-0.1-0.3-0.3-0.3-0.5z"></path><path fill="#a3f0a3" d="m30.9 15.2c-0.1 0.3-0.1 0.5-0.1 0.7 0.4-0.3 0.7-0.5 1.2-0.4 0.4-0.1 0.8 0 1.1 0.1-0.9-0.2-1.7 0-2.4 0.6-0.9 1.4-0.6 1.8 0.7 1 0.3-0.3 0.6-0.4 0.9-0.5-0.2 0.3-0.5 0.5-0.9 0.7-0.3 0.2-0.7 0.3-1 0.5h-0.3v-1.2c0.2-0.2 0.3-0.3 0.3-0.6 0.1-0.2 0.2-0.5 0.3-0.9 0.1-0.1 0.1-0.1 0.2 0z"></path><path fill="#d1f8d7" d="m10.4 15.7c0.1 0.1 0.2 0.2 0.2 0.3 0.2-0.1 0.4-0.1 0.6 0-0.1 0-0.2 0.1-0.2 0.1 0.1 0.2 0.2 0.2 0.3 0 0.1 0.2 0.1 0.4 0 0.6 0 0.3 0.2 0.5 0.4 0.6 0.1-0.3 0.3-0.4 0.5-0.5 0.2 0 0.3 0.1 0.3 0.2-0.2 0-0.4 0.1-0.5 0.4 0.3-0.1 0.5 0.1 0.5 0.5-0.2-0.1-0.5-0.3-0.7-0.5l-0.2 0.2c0 0.7-0.1 1.5-0.2 2.1 0.1-0.9 0-1.8-0.2-2.7-0.1 0.3-0.2 0.6-0.1 0.9-0.1-0.4-0.2-0.8-0.2-1.3-0.1-0.2-0.1-0.3-0.3-0.5-0.1 0.3-0.2 0.5-0.4 0.7 0 0.1-0.1 0.1-0.2 0.1 0.1-0.2 0.2-0.4 0.4-0.5 0-0.3 0-0.5 0-0.7z"></path><path fill="#1a1a1a" d="m5.7 16.7c0.3 0 0.5 0.1 0.7 0.4-0.4 0.1-0.6-0.1-0.7-0.4z"></path><path fill="#3aa240" d="m10.4 15.7c0 0.2 0 0.4-0.1 0.7-0.1 0.1-0.2 0.3-0.3 0.5-0.4 0.3-0.8 0.7-1.1 1-0.1 0-0.1-0.1-0.1-0.2 0.5-0.7 1-1.4 1.6-2z"></path><path fill="#140b11" d="m7.6 16.8c0.1 0.1 0.1 0.2-0.1 0.4 0-0.2 0-0.3 0.1-0.4z"></path><path fill="#85cb86" d="m8.5 16.1c0.1 0.6 0.1 1.1 0.2 1.7 0 0 0.1-0.1 0.1-0.1 0 0.1 0 0.2 0.1 0.2v0.5h-0.3c-0.1-0.8-0.1-1.5-0.1-2.3z"></path><path fill="#9f5075" d="m24.2 17.9c0.2-0.6 0.6-0.9 1.2-0.8 0.1 0.1 0.1 0.2 0.1 0.4-0.2-0.1-0.5-0.2-0.7-0.2-0.2 0.2-0.4 0.4-0.6 0.6z"></path><path fill="#ac3e70" d="m26.4 18.5c-0.1 0.4-0.2 0.7-0.2 1.1-0.2-0.8-0.2-1.6-0.2-2.4 0.1-0.1 0.1-0.1 0.2-0.2l0.2 0.9c0.1-0.3 0.4-0.6 0.7-0.8 0.1-0.1 0.3-0.1 0.5 0 0.2 0.1 0.2 0.3 0 0.4-0.2-0.1-0.3-0.2-0.5-0.2-0.4 0.4-0.6 0.8-0.7 1.2z"></path><path fill="#eafaea" d="m16.1 18.3v0.4c-0.2 0.3-0.4 0.6-0.3 1h-0.3c0-0.3 0.1-0.6 0.2-0.9l-0.1-0.3c-0.1 0.3-0.2 0.6-0.5 0.8 0.1-0.4 0.3-0.7 0.4-1 0.1-0.4 0.1-0.8 0.1-1.1-0.2-0.1-0.3 0-0.4 0.1 0.1 0.1 0.1 0.2 0.2 0.4-0.1 0.3-0.2 0.6-0.3 0.9-0.1 0.1-0.2 0.2-0.3 0.2-0.1 0-0.2-0.1-0.3-0.2-0.1-0.5-0.2-1-0.3-1.6-0.1 0.4-0.4 0.7-0.6 0.9-0.1-0.4 0-0.8 0.4-1 0.6 0 1.2 0 1.8 0.1 0.2 0.4 0.1 0.8-0.1 1.2l0.1 0.2c0.1-0.1 0.2-0.1 0.3-0.1z"></path><path fill="#111212" d="m5.3 17.3c0.3-0.1 0.5 0 0.7 0.2-0.2 0.1-0.5 0.1-0.8 0 0.1-0.1 0.1-0.2 0.1-0.2z"></path><path fill="#f8eefa" d="m18.4 16.4c0.4 0 0.8 0 1.2 0 0.2 0.2 0.2 0.4 0.1 0.6-0.4 0.5-0.9 0.8-1.5 0.9-0.1-0.5 0-1 0.2-1.5z"></path><path fill="#555" d="m0.3 15.5c-0.1 1.4-0.2 2.8-0.1 4.2-0.2-1.2-0.2-2.6-0.1-3.9 0-0.1 0.1-0.2 0.2-0.3z"></path><path fill="#ad3f6f" d="m21.4 19c0.6 0.5 1.2 0.4 1.6-0.4 0 0.2 0 0.4-0.2 0.6-0.6 0.6-1.1 0.6-1.6 0-0.1-0.4-0.1-0.8 0-1.1 0-0.2 0.2-0.4 0.3-0.5 0-0.1 0.1-0.2 0.2-0.3 0.2-0.1 0.4-0.3 0.6-0.4 0.7 0.1 0.8 0.4 0.3 0.9-0.4 0.2-0.8 0.3-1.2 0.4v0.8z"></path><path fill="#f7d6ee" d="m21.5 17.6c0.3-0.1 0.6-0.3 0.8-0.4 0.4 0 0.5 0.2 0.1 0.5-0.2 0.2-0.5 0.2-0.9 0.2v-0.3z"></path><path fill="#acd9b0" d="m3.9 17c-0.2 0.5-0.3 1-0.2 1.5h-0.2c0-0.4 0.1-0.8 0.2-1.2l0.2-0.3z"></path><path fill="#53a850" d="m15.1 19.3c-0.1 0.1-0.2 0.2-0.2 0.4h-0.3c0-0.1-0.1-0.3-0.1-0.4l0.1-0.2c0 0.1 0.2 0.2 0.3 0.1 0.1-0.2 0.2-0.4 0.2-0.6 0.1-0.3 0.2-0.6 0.3-0.9-0.1-0.2-0.1-0.3-0.2-0.4 0.1-0.1 0.2-0.2 0.4-0.1 0 0.3 0 0.7-0.1 1.1-0.1 0.3-0.3 0.6-0.4 1z"></path><path fill="#0eb613" d="m3.7 17.3c-0.1 0.4-0.2 0.8-0.2 1.2 0.1 0.5 0.2 0.9 0.5 1.4-0.1 0.1-0.3 0.1-0.5 0.1-0.1-0.2-0.2-0.3-0.4-0.5 0.1 0 0.1 0 0.1-0.1-0.3-0.8-0.3-1.6-0.1-2.4 0.5-0.4 0.7-0.4 0.6 0.3z"></path><path fill="#1e1e1e" d="m5.5 17.9c0.6-0.1 0.7 0.1 0.3 0.4-0.2 0.2-0.4 0.2-0.6 0.2 0-0.2 0.1-0.4 0.3-0.6z"></path><path fill="#65c56a" d="m16.5 18.8c-0.1-0.5-0.2-1.1-0.2-1.8 0 0.6-0.1 1.2 0 1.8-0.1 0-0.2 0-0.2-0.1v-1.8h0.4v1.9z"></path><path fill="#dcfad4" d="m10.2 19.2c0.1 0 0.2 0 0.4 0.1 0.2-0.1 0.2-0.1 0-0.2-0.3-0.3-0.7-0.4-1.1-0.5 0.4 0 0.8 0.1 1.2 0.1 0.2-0.2 0.2 0 0 0.7-0.2 0-0.4 0-0.5-0.2z"></path><path fill="#f9e4f3" d="m22.8 19.2c0.2-0.2 0.2-0.4 0.1-0.6-0.3 0.8-0.9 0.9-1.5 0.4 0.3 0.1 0.6 0.1 0.9 0 0-0.2 0.1-0.5 0.2-0.7 0.3 0.1 0.5 0.1 0.7-0.1 0.3 0.5 0.3 1 0.2 1.5l-0.1-1.1c-0.1 0.1-0.2 0.3-0.2 0.5-0.1 0.1-0.2 0.1-0.3 0.1z"></path><path fill="#af3c70" d="m23.9 17.2c0.1 0.3 0.2 0.5 0.3 0.7-0.1 0.6-0.2 1.2-0.3 1.8-0.1 0-0.1 0-0.1-0.1 0-0.8 0-1.6 0.1-2.4z"></path><path fill="#181818" d="m6.8 18.6c0.3 0.2 0.3 0.5 0.1 0.8-0.2-0.2-0.3-0.5-0.1-0.8z"></path><path fill="#171218" d="m7.4 18.4c0.3 0.1 0.3 0.3 0.2 0.6-0.2-0.2-0.2-0.4-0.2-0.6z"></path><path fill="#f1b6d9" d="m26 17.2c0 0.8 0 1.6 0.2 2.4 0-0.4 0.1-0.7 0.2-1.1v1.2h-0.5c0-0.8 0-1.7 0.1-2.5z"></path><path fill="#0e0e0e" d="m6.1 18.5c0.3 0.2 0.3 0.4 0 0.6-0.1 0.1-0.2 0.1-0.3 0.1 0-0.3 0.1-0.5 0.3-0.7z"></path><path fill="#3da93c" d="m12.5 17c0.1 0.2 0.1 0.3 0.2 0.4 0.1 0.5 0.3 1.1 0.5 1.7 0.1-0.1 0.1-0.2 0.1-0.4 0.2-0.2 0.2-0.5 0.3-0.8 0.2-0.2 0.5-0.5 0.6-0.9 0.1 0.6 0.2 1.1 0.3 1.6l0.1 0.5-0.1 0.2c-0.2-0.4-0.4-0.9-0.5-1.4-0.3 0.6-0.6 1.2-0.7 1.8h-0.4c0-0.6-0.2-1.2-0.4-1.8 0-0.4-0.2-0.6-0.5-0.5 0.1-0.3 0.3-0.4 0.5-0.4z"></path><path fill="#e0fcdc" d="m12.7 17.4c0.1 0 0.2 0 0.4 0.1-0.1 0.5 0 0.9 0.2 1.2 0 0.2 0 0.3-0.1 0.4-0.2-0.6-0.4-1.2-0.5-1.7z"></path><path fill="#c0f5ae" d="m14.5 18.6c0.1 0.1 0.2 0.2 0.3 0.2 0.1 0 0.2-0.1 0.3-0.2 0 0.2-0.1 0.4-0.2 0.6-0.1 0.1-0.3 0-0.3-0.1l-0.1-0.5z"></path><path fill="#42af3c" d="m8.5 16.1c0 0.8 0 1.5 0.1 2.3h0.3c0.2 0.1 0.4 0.2 0.6 0.2 0.4 0.1 0.8 0.2 1.1 0.5 0.2 0.1 0.2 0.1 0 0.2-0.2-0.1-0.3-0.1-0.4-0.1h-0.2c-0.5-0.2-0.9-0.4-1.3-0.6-0.1 0.4-0.1 0.7-0.1 1-0.1 0.1-0.2 0.1-0.2 0.1-0.1-1-0.2-2.1-0.2-3.1v-0.5h0.3z"></path><path fill="#e39cc0" d="m23.9 17.2c-0.1 0.8-0.1 1.6-0.1 2.4-0.2-0.8-0.2-1.7 0-2.6 0.1 0.1 0.1 0.1 0.1 0.2z"></path><path fill="#419448" d="m16.5 18.8c0 0.4 0 0.7 0 0.9-0.1 0-0.1 0-0.2-0.1 0-0.2-0.1-0.5 0-0.8-0.1-0.6 0-1.2 0-1.8 0 0.7 0.1 1.3 0.2 1.8z"></path><path fill="#cef9cd" d="m3.7 18.5c0.3 0.4 0.5 0.8 0.6 1.2-0.3-0.3-0.6-0.7-0.6-1.2z"></path><path fill="#5cb857" d="m11.4 19.7h-0.3v-1.8c-0.1-0.3 0-0.6 0.1-0.9 0.2 0.9 0.3 1.8 0.2 2.7z"></path><path fill="#b04574" d="m29.9 20.6h-0.4c0-0.6 0-1.3 0-2-0.1 0.1-0.2 0.2-0.2 0.4-0.4 0.3-0.7 0.2-0.9-0.3-0.3-0.5-0.3-1-0.3-1.5l0.3 0.2c0 0.5 0.1 0.9 0.3 1.3 0.1 0.1 0.2 0.1 0.3 0.1 0.5-0.4 0.7-1 0.6-1.8h0.4c-0.2 1.2-0.2 2.4-0.1 3.6z"></path><path fill="#c7c7c7" d="m0.7 14.3c-0.2 1.8-0.2 3.5-0.1 5.2 0 0.3 0.1 0.6 0.2 0.8-0.1 0.4-0.1 0.8-0.1 1.2-0.1-0.5-0.2-1.1-0.3-1.8 0-1.3 0-2.6 0-3.9 0.1-0.5 0.2-1 0.3-1.5z"></path><path fill="#ddfadb" d="m3.7 16.1c-0.4 0.4-0.7 0.9-0.9 1.4-0.1 0.7 0 1.4 0.3 2 0.2 0.2 0.3 0.3 0.4 0.5 0 0.1 0 0.1 0.1 0.2 0.2 0.1 0.4 0.2 0.5 0.3-0.4 0-0.8-0.1-1.1-0.4-0.1-0.4-0.2-0.8-0.4-1.1-0.3-1.3 0-2.2 1.1-2.9z"></path><path fill="#eafaec" d="m8.2 16.6c0 1 0.1 2.1 0.2 3.1 0 0 0.1 0 0.1-0.1 0.1-0.3 0.1-0.6 0.2-1 0.4 0.2 0.8 0.4 1.3 0.6h-0.6v0.3c-0.2 0-0.3 0-0.5 0.1l0.3 0.1c-0.2 0.1-0.3 0.2-0.3 0.4-0.5-0.1-0.8 0.2-0.9 0.8-0.1 0-0.2 0.1-0.3 0.1-0.6 0-1.1 0-1.7 0 0.4 0.1 0.8 0.2 1.1 0.3-0.7 0.1-1.5 0.2-2.3 0.2 0.2-0.1 0.3-0.2 0.5-0.2v-0.3c-0.3 0-0.6-0.1-0.9-0.4 0.4 0.2 0.7 0.2 1.1 0.3 0.5 0 1.1-0.1 1.6-0.3-0.4-0.1-0.8-0.1-1.2-0.1-0.6 0-1.2-0.3-1.6-0.8 0.3 0 0.5 0.2 0.7 0.4 0.7 0.1 1.4 0.2 2.1 0.3 0-0.1 0.1-0.2 0.2-0.3 0.2 0 0.4 0.1 0.6 0.2 0.1-0.1 0.2-0.3 0.2-0.4 0.1-1.1 0.1-2.2 0.1-3.3z"></path><path fill="#f5b6d9" d="m29.9 20.6c-0.1 0.3-0.2 0.3-0.4 0.2 0-0.7-0.1-1.3-0.2-1.8 0-0.2 0.1-0.3 0.2-0.4 0 0.7 0 1.4 0 2h0.4z"></path><path fill="#2bac29" d="m3.5 18.5h0.2c0 0.5 0.3 0.9 0.6 1.2 0.4 0.5 1 0.8 1.6 0.8 0 0.1 0.1 0.2 0.1 0.2-0.2 0-0.4 0.1-0.5 0.2-0.4-0.1-0.7-0.1-1.1-0.3-0.1 0-0.2 0-0.3-0.1-0.1-0.1-0.3-0.2-0.5-0.3-0.1-0.1-0.1-0.1-0.1-0.2 0.2 0 0.4 0 0.5-0.1-0.3-0.5-0.4-0.9-0.5-1.4z"></path><path fill="#4ba44c" d="m5.9 20.5c0.4 0 0.8 0 1.2 0.1-0.5 0.2-1.1 0.3-1.6 0.3 0.1-0.1 0.3-0.2 0.5-0.2 0 0-0.1-0.1-0.1-0.2z"></path><path fill="#8f8f8f" d="m0.2 20.2c0.1 0.6 0.3 1.2 0.3 1.8-0.2-0.6-0.4-1.2-0.3-1.8z"></path><path fill="#c3c3c3" d="m35.6 19.7c-0.1 1.2-0.3 2.3-0.7 3.4 0-0.4 0.1-0.9 0.3-1.3-0.2-0.3-0.2-0.7 0.1-0.9 0-0.5 0.1-0.8 0.3-1.2z"></path><path fill="#e7e6e7" d="m-0.1-0.1h16.4c-0.5 0.1-0.9 0.2-1.3 0.4-1.2 0.1-2.3 0.4-3.4 0.9-0.4 0.2-0.9 0.4-1.4 0.5-5.6 2.9-8.9 7.5-9.9 13.8-0.1 0.1-0.2 0.2-0.2 0.3-0.1 1.3-0.1 2.7 0.1 3.9v0.5c-0.1 0.6 0.1 1.2 0.3 1.8 0 0.3 0.1 0.6 0.2 0.9 0.1 0.5 0.3 1.1 0.4 1.6 0.1 0.1 0.2 0.2 0.3 0.3 2.6 6 7.1 9.6 13.5 10.9l0.5 0.2h-15.5v-36z"></path><path fill="#959595" d="m0.7 21.7c0.3 0.5 0.4 1 0.5 1.6-0.3-0.5-0.4-1-0.5-1.6z"></path><path fill="#bcbcbc" d="m35.9 20v1.7c-0.1 0-0.2 0.1-0.2 0.3-0.1 0.4-0.1 0.8-0.2 1.2 0 0.1 0.1 0.3 0.1 0.4-0.4 0.2-0.6 0.5-0.6 1-0.1 0.2-0.3 0.3-0.4 0.4 0.6-1.6 1.1-3.3 1.3-5z"></path><path fill="#595959" d="m0.7 22.9c0.2 0.3 0.3 0.6 0.4 0.9 0.1-0.2 0.1-0.3 0.1-0.5 0.1 0.3 0.2 0.6 0.3 0.9-0.1-0.1-0.2-0.1-0.2 0.2 0 0.1 0.1 0.3 0.1 0.4-0.1-0.1-0.2-0.2-0.3-0.3-0.1-0.5-0.3-1.1-0.4-1.6z"></path><path fill="#e7e6e6" d="m35.9 21.7v14.2h-14.2c0.3-0.1 0.7-0.2 1-0.5 3.8-1.1 7-3.2 9.5-6.3 0.3-0.1 0.4-0.3 0.5-0.6 0.5-0.8 1-1.6 1.5-2.5 0.1-0.3 0.3-0.6 0.4-1 0.1-0.1 0.3-0.2 0.4-0.4 0-0.5 0.2-0.8 0.6-1 0-0.1-0.1-0.3-0.1-0.4 0.1-0.4 0.1-0.8 0.2-1.2 0-0.2 0.1-0.3 0.2-0.3z"></path><path fill="#8e8e8d" d="m32.7 28.5c-0.1 0.3-0.2 0.5-0.5 0.6 0.1-0.3 0.2-0.5 0.5-0.6z"></path><path fill="#252324" d="m23.1 0.7c0.1 0.1 0.3 0.2 0.5 0.1 0.2 0.2 0.5 0.3 0.8 0.4 2 0.8 3.8 1.8 5.5 3.2 0.4 0.6 0.9 1.1 1.4 1.5 1.3 1.3 2.3 2.8 3.1 4.5 0.6 1.3 1 2.6 1.2 3.9 0.1 0.6 0.2 1.1 0.3 1.6v4.1c-0.2 1.7-0.7 3.4-1.3 5-0.1 0.4-0.3 0.7-0.4 1-0.5 0.9-1 1.7-1.5 2.5-0.3 0.1-0.4 0.3-0.5 0.6-2.5 3.1-5.7 5.2-9.5 6.3-1.1 0.2-2.1 0.4-3.2 0.5h-2.7c-0.6-0.1-1.2-0.1-1.9-0.2-6.4-1.3-10.9-4.9-13.5-10.9 0-0.1-0.1-0.3-0.1-0.4 0-0.3 0.1-0.3 0.2-0.2 0.3 0.8 0.7 1.6 1.1 2.4 2 3.5 4.8 6.1 8.5 7.7 1.1 0.6 2.4 0.9 3.7 1.1h0.1c1 0.2 2 0.4 3 0.3l1.6 0c0.2-0.1 0.3-0.1 0.5-0.2 2-0.2 3.9-0.7 5.7-1.6 0.3 0 0.5-0.1 0.7-0.3 4.2-2.4 7.1-5.9 8.5-10.5 0.4-1.1 0.6-2.2 0.7-3.4 0.1-0.5 0.1-1.1 0.1-1.8 0-0.9 0-1.8-0.2-2.7 0-0.5-0.1-1.1-0.3-1.5 0-0.2-0.1-0.4-0.2-0.5 0.1-0.3 0-0.5-0.2-0.7-2-5.7-5.9-9.6-11.7-11.4-0.5-0.2-0.5-0.3 0-0.4z"></path><path fill="#c4c1c2" d="m14.8 35.4c-1.3-0.2-2.6-0.5-3.7-1.1 0.4 0.1 0.9 0.2 1.3 0.3 0-0.2 0-0.3 0.1-0.5 0 0.2 0.1 0.3 0.3 0.3-0.3 0.1-0.3 0.2-0.1 0.4 0.7 0.1 1.4 0.3 2.1 0.6z"></path><path fill="#807e7f" d="m26.4 33.6c-0.2 0.2-0.4 0.3-0.7 0.3 0.2-0.2 0.4-0.3 0.7-0.3z"></path><path fill="#b2b2b2" d="m14.9 35.4c1.7 0.1 3.4 0.1 5.1 0.1-0.2 0.1-0.3 0.1-0.5 0.2l-1.6 0c-1 0.1-2-0.1-3-0.3z"></path><path fill="#6a6a6a" d="m14.9 35.7c0.7 0.1 1.3 0.1 1.9 0.2h-1.4l-0.5-0.2z"></path><path fill="#b8b8b8" d="m22.7 35.4c-0.3 0.3-0.7 0.4-1 0.5h-2.2c1.1-0.1 2.1-0.3 3.2-0.5z"></path></svg>