<?xml version="1.0" encoding="UTF-8"?>
<!DOCTYPE svg PUBLIC "-//W3C//DTD SVG 1.1//EN" "http://www.w3.org/Graphics/SVG/1.1/DTD/svg11.dtd">
<svg xmlns="http://www.w3.org/2000/svg" version="1.1" width="93px" height="100px" style="shape-rendering:geometricPrecision; text-rendering:geometricPrecision; image-rendering:optimizeQuality; fill-rule:evenodd; clip-rule:evenodd" xmlns:xlink="http://www.w3.org/1999/xlink">
<g><path style="opacity:1" fill="#fbfdfb" d="M -0.5,-0.5 C 30.5,-0.5 61.5,-0.5 92.5,-0.5C 92.5,32.8333 92.5,66.1667 92.5,99.5C 61.5,99.5 30.5,99.5 -0.5,99.5C -0.5,66.1667 -0.5,32.8333 -0.5,-0.5 Z"/></g>
<g><path style="opacity:1" fill="#25e617" d="M 37.5,0.5 C 65.7389,-0.795479 83.5722,12.2045 91,39.5C 94.444,64.4446 85.2773,82.9446 63.5,95C 38.6193,103.041 19.4526,95.8739 6,73.5C -4.80965,49.2589 -0.64298,28.0923 18.5,10C 24.3784,5.72741 30.7117,2.56075 37.5,0.5 Z"/></g>
<g><path style="opacity:1" fill="#f4fbf3" d="M 64.5,21.5 C 72.4699,21.4402 74.9699,25.1069 72,32.5C 66.2941,39.1054 59.1275,43.2721 50.5,45C 46.0892,51.0767 42.0892,57.41 38.5,64C 46.4853,74.3343 55.1519,75.001 64.5,66C 65.448,65.5172 66.448,65.3505 67.5,65.5C 65.7236,73.2476 60.7236,76.9143 52.5,76.5C 48.4814,76.4934 44.8147,75.3268 41.5,73C 37.4518,69.2838 33.1185,65.9504 28.5,63C 23.3333,61.5 21.5,63.3333 23,68.5C 23.8926,69.0814 24.8926,69.4148 26,69.5C 28.4676,68.4968 30.9676,67.9968 33.5,68C 34.4122,70.4882 33.4122,72.1548 30.5,73C 20.4983,74.9995 16.665,71.1661 19,61.5C 24.0619,57.616 29.2286,57.616 34.5,61.5C 38.1667,56.1667 41.8333,50.8333 45.5,45.5C 41.5408,44.6735 37.5408,44.1735 33.5,44C 32.1667,43 32.1667,42 33.5,41C 45.5611,42.398 56.5611,39.7314 66.5,33C 71.1961,26.0352 69.8627,24.3686 62.5,28C 60.1667,31 57.8333,34 55.5,37C 53.5527,37.9913 51.5527,38.3247 49.5,38C 53.4947,31.451 58.4947,25.951 64.5,21.5 Z"/></g>
</svg>
