<svg xmlns="http://www.w3.org/2000/svg" version="1.1" width="160px" height="160px" style="shape-rendering:geometricPrecision; text-rendering:geometricPrecision; image-rendering:optimizeQuality; fill-rule:evenodd; clip-rule:evenodd" xmlns:xlink="http://www.w3.org/1999/xlink">
<g><path style="opacity:0.008" fill="#ff9a8e" d="M 57.5,-0.5 C 58.8333,-0.5 60.1667,-0.5 61.5,-0.5C 61.5,-0.166667 61.5,0.166667 61.5,0.5C 60.209,0.262695 59.209,0.596028 58.5,1.5C 57.209,1.26269 56.209,1.59603 55.5,2.5C 54.448,2.64945 53.448,2.48278 52.5,2C 54.3146,1.24316 55.9812,0.409824 57.5,-0.5 Z"/></g>
<g><path style="opacity:0.008" fill="#ffaaa8" d="M 98.5,-0.5 C 99.5,-0.5 100.5,-0.5 101.5,-0.5C 101.5,-0.166667 101.5,0.166667 101.5,0.5C 100.209,0.737305 99.209,0.403972 98.5,-0.5 Z"/></g>
<g><path style="opacity:0.02" fill="#dbae9e" d="M 101.5,1.5 C 101.5,1.16667 101.5,0.833333 101.5,0.5C 103.308,0.491364 104.975,0.991364 106.5,2C 105.552,2.48278 104.552,2.64945 103.5,2.5C 103.158,1.66175 102.492,1.32842 101.5,1.5 Z"/></g>
<g><path style="opacity:0.722" fill="#e2908a" d="M 65.5,-0.5 C 74.8333,-0.5 84.1667,-0.5 93.5,-0.5C 95.9052,0.768202 98.5718,1.43487 101.5,1.5C 101.842,2.33825 102.508,2.67158 103.5,2.5C 104.5,3.16667 105.5,3.83333 106.5,4.5C 105.599,5.29049 104.932,6.29049 104.5,7.5C 90.7766,3.67398 76.7766,2.50731 62.5,4C 59.1007,5.17695 55.7674,6.34362 52.5,7.5C 51.8902,6.60895 51.5569,5.60895 51.5,4.5C 52.9952,4.01131 54.3285,3.34464 55.5,2.5C 56.791,2.73731 57.791,2.40397 58.5,1.5C 59.791,1.73731 60.791,1.40397 61.5,0.5C 63.099,0.767809 64.4324,0.434475 65.5,-0.5 Z"/></g>
<g><path style="opacity:0.955" fill="#fbf9f9" d="M 106.5,4.5 C 107.833,4.83333 109.167,5.16667 110.5,5.5C 112.649,6.73623 114.982,7.73623 117.5,8.5C 117.5,9.16667 117.833,9.5 118.5,9.5C 120.619,11.3998 122.953,13.0664 125.5,14.5C 127.139,15.4725 128.473,16.8058 129.5,18.5C 128.5,18.8333 127.833,19.5 127.5,20.5C 124.822,23.8726 122.156,27.2059 119.5,30.5C 114.652,27.5779 109.985,24.4112 105.5,21C 103.866,20.5065 102.199,20.3398 100.5,20.5C 100.5,20.1667 100.5,19.8333 100.5,19.5C 101.636,15.4262 102.969,11.4262 104.5,7.5C 104.932,6.29049 105.599,5.29049 106.5,4.5 Z"/></g>
<g><path style="opacity:0.006" fill="#fefffe" d="M 110.5,5.5 C 110.897,4.47498 111.563,4.30831 112.5,5C 111.906,5.46434 111.239,5.63101 110.5,5.5 Z"/></g>
<g><path style="opacity:0.94" fill="#fdfbfa" d="M 51.5,4.5 C 51.5569,5.60895 51.8902,6.60895 52.5,7.5C 54.0349,11.4379 55.3682,15.4379 56.5,19.5C 50.5114,22.3488 44.8447,26.0155 39.5,30.5C 37.1377,27.808 34.8044,25.1413 32.5,22.5C 31.5,21.1667 30.5,19.8333 29.5,18.5C 34.9221,12.703 42.2555,8.03638 51.5,4.5 Z"/></g>
<g><path style="opacity:0.004" fill="#fefffe" d="M 114.5,5.5 C 115.833,6.16667 115.833,6.16667 114.5,5.5 Z"/></g>
<g><path style="opacity:1" fill="#c23227" d="M 104.5,7.5 C 102.969,11.4262 101.636,15.4262 100.5,19.5C 90.4691,15.9755 80.1357,14.8088 69.5,16C 65.0729,16.6995 61.0729,18.1995 57.5,20.5C 57.5,19.8333 57.1667,19.5 56.5,19.5C 55.3682,15.4379 54.0349,11.4379 52.5,7.5C 55.7674,6.34362 59.1007,5.17695 62.5,4C 76.7766,2.50731 90.7766,3.67398 104.5,7.5 Z"/></g>
<g><path style="opacity:0.009" fill="#fefffe" d="M 117.5,8.5 C 118.497,7.28749 119.497,7.45415 120.5,9C 119.906,9.46434 119.239,9.63101 118.5,9.5C 117.833,9.5 117.5,9.16667 117.5,8.5 Z"/></g>
<g><path style="opacity:0.004" fill="#fefffe" d="M 125.5,13.5 C 126.833,14.1667 126.833,14.1667 125.5,13.5 Z"/></g>
<g><path style="opacity:0.012" fill="#eab988" d="M 130.5,18.5 C 132.685,17.9131 134.352,18.9131 135.5,21.5C 134.833,21.5 134.167,21.5 133.5,21.5C 133.5,20.8333 133.167,20.5 132.5,20.5C 132.5,19.8333 132.167,19.5 131.5,19.5C 131.5,18.8333 131.167,18.5 130.5,18.5 Z"/></g>
<g><path style="opacity:0.012" fill="#936765" d="M 25.5,21.5 C 24.8333,21.5 24.5,21.8333 24.5,22.5C 23.9569,22.44 23.6236,22.1067 23.5,21.5C 24.2565,20.2267 24.9232,20.2267 25.5,21.5 Z"/></g>
<g><path style="opacity:1" fill="#6e1c17" d="M 100.5,19.5 C 100.5,19.8333 100.5,20.1667 100.5,20.5C 100.167,21.1667 99.8333,21.8333 99.5,22.5C 93.8289,20.6936 87.9956,19.6936 82,19.5C 79.3897,19.5332 77.223,20.1999 75.5,21.5C 75.5,22.5 75.5,23.5 75.5,24.5C 72.1667,24.8333 68.8333,25.1667 65.5,25.5C 65.7373,24.209 65.404,23.209 64.5,22.5C 63.0011,21.506 61.3344,21.506 59.5,22.5C 58.5,22.1667 57.8333,21.5 57.5,20.5C 61.0729,18.1995 65.0729,16.6995 69.5,16C 80.1357,14.8088 90.4691,15.9755 100.5,19.5 Z"/></g>
<g><path style="opacity:0.004" fill="#fe0000" d="M 135.5,21.5 C 136.833,22.1667 136.833,22.1667 135.5,21.5 Z"/></g>
<g><path style="opacity:1" fill="#86807e" d="M 75.5,21.5 C 83.3883,21.1276 91.055,22.1276 98.5,24.5C 98.5,25.8333 97.8333,26.5 96.5,26.5C 89.6154,24.8411 82.6154,24.1744 75.5,24.5C 75.5,23.5 75.5,22.5 75.5,21.5 Z"/></g>
<g><path style="opacity:1" fill="#e5dede" d="M 99.5,22.5 C 99.5,22.8333 99.5,23.1667 99.5,23.5C 99.5,23.8333 99.5,24.1667 99.5,24.5C 99.1667,24.5 98.8333,24.5 98.5,24.5C 91.055,22.1276 83.3883,21.1276 75.5,21.5C 77.223,20.1999 79.3897,19.5332 82,19.5C 87.9956,19.6936 93.8289,20.6936 99.5,22.5 Z"/></g>
<g><path style="opacity:1" fill="#8c8a8a" d="M 100.5,20.5 C 102.199,20.3398 103.866,20.5065 105.5,21C 109.985,24.4112 114.652,27.5779 119.5,30.5C 119.5,30.8333 119.5,31.1667 119.5,31.5C 118.5,31.8333 117.833,32.5 117.5,33.5C 114.939,31.6286 112.439,29.6286 110,27.5C 109.617,28.056 109.117,28.3893 108.5,28.5C 106.284,25.5558 103.284,23.8891 99.5,23.5C 99.5,23.1667 99.5,22.8333 99.5,22.5C 99.8333,21.8333 100.167,21.1667 100.5,20.5 Z"/></g>
<g><path style="opacity:1" fill="#eeecec" d="M 64.5,22.5 C 58.2683,25.6239 52.2683,29.2906 46.5,33.5C 45.8333,33.1667 45.1667,32.8333 44.5,32.5C 48.9839,28.4225 53.9839,25.0891 59.5,22.5C 61.3344,21.506 63.0011,21.506 64.5,22.5 Z"/></g>
<g><path style="opacity:1" fill="#bf291d" d="M 99.5,23.5 C 103.284,23.8891 106.284,25.5558 108.5,28.5C 105.314,27.4031 102.314,26.0697 99.5,24.5C 99.5,24.1667 99.5,23.8333 99.5,23.5 Z"/></g>
<g><path style="opacity:1" fill="#bf3127" d="M 32.5,22.5 C 34.8044,25.1413 37.1377,27.808 39.5,30.5C 39.5,30.8333 39.5,31.1667 39.5,31.5C 36.5361,33.9619 33.7028,36.6286 31,39.5C 26.1954,48.609 22.3621,58.109 19.5,68C 20.7932,68.49 22.1266,68.6567 23.5,68.5C 23.3379,66.4727 23.5045,64.4727 24,62.5C 24.4169,61.244 25.2502,60.5774 26.5,60.5C 27.8471,61.1712 29.0138,61.1712 30,60.5C 32.1601,54.1974 35.3268,48.5308 39.5,43.5C 41.8333,40.5 44.5,37.8333 47.5,35.5C 53.2446,31.6295 59.2446,28.2962 65.5,25.5C 68.8333,25.1667 72.1667,24.8333 75.5,24.5C 82.6154,24.1744 89.6154,24.8411 96.5,26.5C 100.211,27.8519 103.878,29.5185 107.5,31.5C 114.289,35.7123 119.955,41.0456 124.5,47.5C 126.42,50.3388 128.087,53.3388 129.5,56.5C 132.092,62.2041 133.426,68.2041 133.5,74.5C 134.833,74.5 136.167,74.5 137.5,74.5C 137.5,77.8333 137.5,81.1667 137.5,84.5C 136.167,84.5 134.833,84.5 133.5,84.5C 132.769,90.757 131.102,96.757 128.5,102.5C 128.855,103.522 129.522,104.189 130.5,104.5C 130.611,105.117 130.944,105.617 131.5,106C 130.092,109.339 128.092,112.173 125.5,114.5C 125.5,114.167 125.5,113.833 125.5,113.5C 126.806,111.184 128.139,108.85 129.5,106.5C 128.998,105.479 128.332,105.312 127.5,106C 126.54,107.419 125.707,108.919 125,110.5C 124.282,111.451 123.449,111.617 122.5,111C 123.167,110 123.833,109 124.5,108C 123.587,106.586 123.587,105.086 124.5,103.5C 124.167,102.167 123.833,102.167 123.5,103.5C 123.167,103.5 122.833,103.5 122.5,103.5C 122.995,100.507 124.495,98.1736 127,96.5C 130.422,85.0425 130.089,73.7092 126,62.5C 125.667,62.8333 125.333,63.1667 125,63.5C 124.209,62.255 123.709,60.9217 123.5,59.5C 123.5,59.1667 123.5,58.8333 123.5,58.5C 123.833,58.5 124.167,58.5 124.5,58.5C 126.344,57.7961 126.844,56.4628 126,54.5C 113.413,33.834 94.9132,25.0007 70.5,28C 49.8719,33.2939 36.3719,46.1273 30,66.5C 29.3333,69.1667 29.3333,71.8333 30,74.5C 30.6708,73.7476 31.5041,73.4142 32.5,73.5C 32.3713,75.2161 32.038,76.8828 31.5,78.5C 30.6851,77.5707 29.8518,76.5707 29,75.5C 28.8213,79.0252 28.3213,82.3586 27.5,85.5C 26.6167,80.8969 26.2834,76.2303 26.5,71.5C 18.4315,70.3775 10.4315,69.0441 2.5,67.5C 2.5,66.8333 2.16667,66.5 1.5,66.5C 1.39469,62.313 2.22802,58.313 4,54.5C 4.33333,54.8333 4.66667,55.1667 5,55.5C 6.71229,53.5818 7.21229,51.5818 6.5,49.5C 7.33825,49.1583 7.67158,48.4916 7.5,47.5C 7.83333,47.5 8.16667,47.5 8.5,47.5C 9.80163,48.8069 11.135,48.8069 12.5,47.5C 17.5426,38.0964 24.2093,29.7631 32.5,22.5 Z M 62.5,54.5 C 64.099,54.2322 65.4324,54.5655 66.5,55.5C 65.8333,55.5 65.5,55.8333 65.5,56.5C 64.2905,56.0679 63.2905,55.4013 62.5,54.5 Z M 66.5,56.5 C 66.5,56.1667 66.5,55.8333 66.5,55.5C 71.0758,55.4379 75.4091,56.1045 79.5,57.5C 78.1266,57.3433 76.7932,57.51 75.5,58C 78.4318,58.9533 81.4318,59.4533 84.5,59.5C 88.262,60.585 91.9287,61.9183 95.5,63.5C 91.7675,67.3126 87.7675,69.9793 83.5,71.5C 81.9731,71.573 80.9731,70.9063 80.5,69.5C 80.6277,67.8708 79.6277,66.5375 77.5,65.5C 77.1667,64.5 76.5,63.8333 75.5,63.5C 75.631,64.2389 75.4643,64.9056 75,65.5C 72.7818,62.9982 70.9485,60.3315 69.5,57.5C 68.609,56.8902 67.609,56.5569 66.5,56.5 Z M 94.5,60.5 C 96.4147,60.2155 98.0813,60.5489 99.5,61.5C 99.5,62.1667 99.1667,62.5 98.5,62.5C 97.1667,61.8333 95.8333,61.1667 94.5,60.5 Z M 112.5,70.5 C 108.705,71.6167 104.705,72.2833 100.5,72.5C 100.328,71.5084 100.662,70.8417 101.5,70.5C 102.167,69.5 102.833,68.5 103.5,67.5C 104.482,66.8592 105.482,66.1925 106.5,65.5C 108.519,67.1897 110.519,68.8564 112.5,70.5 Z M 97.5,71.5 C 98.209,72.404 99.209,72.7373 100.5,72.5C 99.0813,73.4511 97.4147,73.7845 95.5,73.5C 95.8333,72.5 96.5,71.8333 97.5,71.5 Z M 107.5,78.5 C 108.919,77.5489 110.585,77.2155 112.5,77.5C 112.167,78.5 111.5,79.1667 110.5,79.5C 109.791,78.596 108.791,78.2627 107.5,78.5 Z"/></g>
<g><path style="opacity:0.997" fill="#c23329" d="M 127.5,20.5 C 131.059,25.5676 135.226,30.2343 140,34.5C 140.912,37.2385 142.412,39.5719 144.5,41.5C 145.386,40.675 145.719,39.675 145.5,38.5C 145.833,38.5 146.167,38.5 146.5,38.5C 146.833,39.8333 147.167,39.8333 147.5,38.5C 147.5,38.1667 147.5,37.8333 147.5,37.5C 150.079,40.6096 151.412,43.9429 151.5,47.5C 152.022,50.5682 152.855,53.5682 154,56.5C 154.333,55.5 154.667,54.5 155,53.5C 156.359,57.4052 157.192,61.4052 157.5,65.5C 156.662,65.8417 156.328,66.5084 156.5,67.5C 150.489,68.0731 144.489,68.7397 138.5,69.5C 139.537,67.2625 139.703,64.9291 139,62.5C 136.183,53.8636 132.183,45.8636 127,38.5C 124.002,36.6671 121.502,34.3338 119.5,31.5C 119.5,31.1667 119.5,30.8333 119.5,30.5C 122.156,27.2059 124.822,23.8726 127.5,20.5 Z"/></g>
<g><path style="opacity:1" fill="#671c18" d="M 98.5,24.5 C 98.8333,24.5 99.1667,24.5 99.5,24.5C 102.314,26.0697 105.314,27.4031 108.5,28.5C 108.5,28.8333 108.5,29.1667 108.5,29.5C 107.662,29.8417 107.328,30.5084 107.5,31.5C 103.878,29.5185 100.211,27.8519 96.5,26.5C 97.8333,26.5 98.5,25.8333 98.5,24.5 Z"/></g>
<g><path style="opacity:1" fill="#818382" d="M 64.5,22.5 C 65.404,23.209 65.7373,24.209 65.5,25.5C 59.2446,28.2962 53.2446,31.6295 47.5,35.5C 46.6618,35.1583 46.3284,34.4916 46.5,33.5C 52.2683,29.2906 58.2683,25.6239 64.5,22.5 Z"/></g>
<g><path style="opacity:1" fill="#918f8f" d="M 56.5,19.5 C 57.1667,19.5 57.5,19.8333 57.5,20.5C 57.8333,21.5 58.5,22.1667 59.5,22.5C 53.9839,25.0891 48.9839,28.4225 44.5,32.5C 42.6017,33.7345 40.935,33.4011 39.5,31.5C 39.5,31.1667 39.5,30.8333 39.5,30.5C 44.8447,26.0155 50.5114,22.3488 56.5,19.5 Z"/></g>
<g><path style="opacity:0.98" fill="#d25f55" d="M 29.5,18.5 C 30.5,19.8333 31.5,21.1667 32.5,22.5C 24.2093,29.7631 17.5426,38.0964 12.5,47.5C 11.135,48.8069 9.80163,48.8069 8.5,47.5C 8.16667,46.1667 7.83333,46.1667 7.5,47.5C 6.95691,47.44 6.62358,47.1067 6.5,46.5C 7.94858,42.2729 10.2819,39.4396 13.5,38C 12.8253,35.7579 13.3253,33.5912 15,31.5C 15.6667,30.1667 16.3333,30.1667 17,31.5C 18.2837,30.4281 18.6171,29.0948 18,27.5C 18.8525,25.8753 19.8525,25.5419 21,26.5C 22.3756,25.2949 23.5423,23.9616 24.5,22.5C 25.1667,22.5 25.5,22.1667 25.5,21.5C 26.8333,20.5 28.1667,19.5 29.5,18.5 Z"/></g>
<g><path style="opacity:0.917" fill="#6b1a14" d="M 124.5,58.5 C 124.167,57.1667 123.833,57.1667 123.5,58.5C 123.5,58.8333 123.5,59.1667 123.5,59.5C 120.432,55.6795 118.265,51.6795 117,47.5C 116.667,47.8333 116.333,48.1667 116,48.5C 114.167,46.6667 112.333,44.8333 110.5,43C 111.458,41.8525 111.125,40.8525 109.5,40C 108.034,39.3645 106.7,38.5312 105.5,37.5C 104.833,37.8333 104.167,38.1667 103.5,38.5C 101.269,37.0966 98.9361,35.9299 96.5,35C 97.1667,34.6667 97.8333,34.3333 98.5,34C 86.5,29.3333 74.5,29.3333 62.5,34C 63.1667,34.3333 63.8333,34.6667 64.5,35C 58.8291,35.3277 53.8291,37.661 49.5,42C 50.6091,43.813 49.9424,44.6463 47.5,44.5C 47.1667,43.1667 46.8333,43.1667 46.5,44.5C 45.8333,44.5 45.5,44.8333 45.5,45.5C 45.5,45.8333 45.5,46.1667 45.5,46.5C 44.8333,46.5 44.5,46.8333 44.5,47.5C 42.2721,48.3218 41.6054,49.6552 42.5,51.5C 39.3361,56.807 36.8361,62.4737 35,68.5C 34.6667,67.5 34.3333,66.5 34,65.5C 32.9207,68.0627 32.4207,70.7294 32.5,73.5C 31.5041,73.4142 30.6708,73.7476 30,74.5C 29.3333,71.8333 29.3333,69.1667 30,66.5C 36.3719,46.1273 49.8719,33.2939 70.5,28C 94.9132,25.0007 113.413,33.834 126,54.5C 126.844,56.4628 126.344,57.7961 124.5,58.5 Z M 62.5,54.5 C 64.099,54.2322 65.4324,54.5655 66.5,55.5C 65.8333,55.5 65.5,55.8333 65.5,56.5C 64.2905,56.0679 63.2905,55.4013 62.5,54.5 Z"/></g>
<g><path style="opacity:1" fill="#e8e3e3" d="M 117.5,33.5 C 120.997,37.1659 124.331,40.9992 127.5,45C 127.272,45.3988 126.938,45.5654 126.5,45.5C 121.394,39.0551 115.394,33.7218 108.5,29.5C 108.5,29.1667 108.5,28.8333 108.5,28.5C 109.117,28.3893 109.617,28.056 110,27.5C 112.439,29.6286 114.939,31.6286 117.5,33.5 Z"/></g>
<g><path style="opacity:1" fill="#858585" d="M 108.5,29.5 C 115.394,33.7218 121.394,39.0551 126.5,45.5C 126.167,46.5 125.5,47.1667 124.5,47.5C 119.955,41.0456 114.289,35.7123 107.5,31.5C 107.328,30.5084 107.662,29.8417 108.5,29.5 Z"/></g>
<g><path style="opacity:1" fill="#d56259" d="M 129.5,18.5 C 129.833,18.5 130.167,18.5 130.5,18.5C 131.167,18.5 131.5,18.8333 131.5,19.5C 132.167,19.5 132.5,19.8333 132.5,20.5C 133.167,20.5 133.5,20.8333 133.5,21.5C 135.823,25.0419 138.656,27.3752 142,28.5C 143.844,31.5279 145.678,34.5279 147.5,37.5C 147.5,37.8333 147.5,38.1667 147.5,38.5C 147.167,38.5 146.833,38.5 146.5,38.5C 146.167,37.1667 145.833,37.1667 145.5,38.5C 145.719,39.675 145.386,40.675 144.5,41.5C 142.412,39.5719 140.912,37.2385 140,34.5C 135.226,30.2343 131.059,25.5676 127.5,20.5C 127.833,19.5 128.5,18.8333 129.5,18.5 Z"/></g>
<g><path style="opacity:0.004" fill="#fe0000" d="M 151.5,47.5 C 151.369,46.7611 151.536,46.0944 152,45.5C 152.692,46.4368 152.525,47.1034 151.5,47.5 Z"/></g>
<g><path style="opacity:0.004" fill="#380c00" d="M 45.5,46.5 C 45.8333,46.5 46.1667,46.5 46.5,46.5C 46.2893,48.4241 45.6226,48.7574 44.5,47.5C 45.1667,47.5 45.5,47.1667 45.5,46.5 Z"/></g>
<g><path style="opacity:0.004" fill="#000000" d="M 6.5,49.5 C 5.83333,48.1667 5.83333,48.1667 6.5,49.5 Z"/></g>
<g><path style="opacity:1" fill="#89231c" d="M 39.5,31.5 C 40.935,33.4011 42.6017,33.7345 44.5,32.5C 45.1667,32.8333 45.8333,33.1667 46.5,33.5C 46.3284,34.4916 46.6618,35.1583 47.5,35.5C 44.5,37.8333 41.8333,40.5 39.5,43.5C 38.0985,40.201 36.2652,39.8677 34,42.5C 30.388,47.3892 27.5547,52.7226 25.5,58.5C 25.8627,59.1835 26.1961,59.8501 26.5,60.5C 25.2502,60.5774 24.4169,61.244 24,62.5C 23.5045,64.4727 23.3379,66.4727 23.5,68.5C 22.1266,68.6567 20.7932,68.49 19.5,68C 22.3621,58.109 26.1954,48.609 31,39.5C 33.7028,36.6286 36.5361,33.9619 39.5,31.5 Z"/></g>
<g><path style="opacity:0.004" fill="#fe0000" d="M 152.5,48.5 C 153.833,49.1667 153.833,49.1667 152.5,48.5 Z"/></g>
<g><path style="opacity:1" fill="#88211a" d="M 119.5,31.5 C 121.502,34.3338 124.002,36.6671 127,38.5C 132.183,45.8636 136.183,53.8636 139,62.5C 139.703,64.9291 139.537,67.2625 138.5,69.5C 136.099,65.311 134.432,60.6444 133.5,55.5C 132.041,55.4326 130.708,55.7659 129.5,56.5C 128.087,53.3388 126.42,50.3388 124.5,47.5C 125.5,47.1667 126.167,46.5 126.5,45.5C 126.938,45.5654 127.272,45.3988 127.5,45C 124.331,40.9992 120.997,37.1659 117.5,33.5C 117.833,32.5 118.5,31.8333 119.5,31.5 Z"/></g>
<g><path style="opacity:0.824" fill="#e59188" d="M 49.5,45.5 C 58.2074,47.8694 67.0408,48.8694 76,48.5C 83.1944,49.8722 90.3611,51.3722 97.5,53C 96.1667,53.3333 94.8333,53.6667 93.5,54C 98.5721,54.6784 103.572,55.6784 108.5,57C 111.036,59.705 113.703,62.205 116.5,64.5C 116.5,65.1667 116.833,65.5 117.5,65.5C 117.5,66.1667 117.833,66.5 118.5,66.5C 119.833,68.1667 121.167,69.8333 122.5,71.5C 121.448,71.6495 120.448,71.4828 119.5,71C 115.833,67.3333 112.167,63.6667 108.5,60C 106.975,58.9914 105.308,58.4914 103.5,58.5C 90.2864,55.658 76.9531,53.3247 63.5,51.5C 59.8171,49.7501 55.8171,49.0834 51.5,49.5C 50.3995,48.3951 49.7329,47.0618 49.5,45.5 Z"/></g>
<g><path style="opacity:1" fill="#bebfbf" d="M 39.5,43.5 C 35.3268,48.5308 32.1601,54.1974 30,60.5C 29.0138,61.1712 27.8471,61.1712 26.5,60.5C 26.1961,59.8501 25.8627,59.1835 25.5,58.5C 27.5547,52.7226 30.388,47.3892 34,42.5C 36.2652,39.8677 38.0985,40.201 39.5,43.5 Z"/></g>
<g><path style="opacity:0.992" fill="#802019" d="M 63.5,51.5 C 76.9531,53.3247 90.2864,55.658 103.5,58.5C 102.9,59.8999 101.9,60.8999 100.5,61.5C 100.167,61.5 99.8333,61.5 99.5,61.5C 98.0813,60.5489 96.4147,60.2155 94.5,60.5C 93.0813,59.5489 91.4147,59.2155 89.5,59.5C 86.4115,58.2154 83.0781,57.5488 79.5,57.5C 75.4091,56.1045 71.0758,55.4379 66.5,55.5C 65.4324,54.5655 64.099,54.2322 62.5,54.5C 62.5,53.8333 62.1667,53.5 61.5,53.5C 61.1667,53.5 60.8333,53.5 60.5,53.5C 60.0825,52.7784 59.4158,52.2784 58.5,52C 60.1341,51.5065 61.8008,51.3398 63.5,51.5 Z"/></g>
<g><path style="opacity:0.012" fill="#711a10" d="M 84.5,59.5 C 86.1667,59.5 87.8333,59.5 89.5,59.5C 90.9187,60.4511 92.5853,60.7845 94.5,60.5C 95.8333,61.1667 97.1667,61.8333 98.5,62.5C 97.8333,62.5 97.5,62.8333 97.5,63.5C 96.8333,63.5 96.1667,63.5 95.5,63.5C 91.9287,61.9183 88.262,60.585 84.5,59.5 Z"/></g>
<g><path style="opacity:1" fill="#b63228" d="M 103.5,58.5 C 105.308,58.4914 106.975,58.9914 108.5,60C 112.167,63.6667 115.833,67.3333 119.5,71C 120.448,71.4828 121.448,71.6495 122.5,71.5C 123.606,72.1494 124.606,72.4827 125.5,72.5C 125.145,73.5223 124.478,74.189 123.5,74.5C 123.5,73.8333 123.167,73.5 122.5,73.5C 121.178,73.33 120.011,73.6634 119,74.5C 113.015,82.9786 106.515,90.9786 99.5,98.5C 104.407,91.7128 109.574,85.0461 115,78.5C 115.692,77.5632 115.525,76.8966 114.5,76.5C 115.859,74.9907 115.359,74.324 113,74.5C 106.499,75.5559 99.9986,76.5559 93.5,77.5C 100.898,75.2181 108.565,73.5515 116.5,72.5C 116.043,71.7025 115.376,71.3691 114.5,71.5C 114.5,71.1667 114.5,70.8333 114.5,70.5C 115.239,70.631 115.906,70.4643 116.5,70C 113.318,66.6507 109.985,63.484 106.5,60.5C 102.369,64.9772 97.7027,68.6439 92.5,71.5C 95.9378,68.5653 99.2711,65.3986 102.5,62C 101.906,61.5357 101.239,61.369 100.5,61.5C 101.9,60.8999 102.9,59.8999 103.5,58.5 Z"/></g>
<g><path style="opacity:0.004" fill="#e44738" d="M 116.5,64.5 C 116.897,63.475 117.563,63.3083 118.5,64C 119.774,64.9772 119.774,65.8106 118.5,66.5C 117.833,66.5 117.5,66.1667 117.5,65.5C 116.833,65.5 116.5,65.1667 116.5,64.5 Z"/></g>
<g><path style="opacity:0.922" fill="#7a2019" d="M 61.5,57.5 C 68.0897,61.7532 74.0897,66.7532 79.5,72.5C 80.4577,73.9616 81.6244,75.2949 83,76.5C 83.6917,77.4368 83.525,78.1034 82.5,78.5C 82.1667,78.5 81.8333,78.5 81.5,78.5C 80.6993,76.4916 79.366,75.9916 77.5,77C 77.2571,74.7252 75.9237,72.8918 73.5,71.5C 73.5,70.8333 73.1667,70.5 72.5,70.5C 69.8103,67.8154 66.8103,65.4821 63.5,63.5C 63.5,62.8333 63.1667,62.5 62.5,62.5C 62.5,61.8333 62.1667,61.5 61.5,61.5C 61.5,60.8333 61.1667,60.5 60.5,60.5C 60.5,59.8333 60.1667,59.5 59.5,59.5C 59.5,58.8333 59.1667,58.5 58.5,58.5C 58.5,57.8333 58.1667,57.5 57.5,57.5C 57.0472,56.5416 56.3805,55.7083 55.5,55C 55.8333,54.8333 56.1667,54.6667 56.5,54.5C 57.9397,55.9524 59.6064,56.9524 61.5,57.5 Z"/></g>
<g><path style="opacity:0.004" fill="#e21b42" d="M 62.5,66.5 C 64.5195,67.5383 64.8528,68.8716 63.5,70.5C 63.6716,69.5084 63.3382,68.8417 62.5,68.5C 62.5,67.8333 62.5,67.1667 62.5,66.5 Z"/></g>
<g><path style="opacity:0.831" fill="#dd7e76" d="M 60.5,53.5 C 60.8333,53.5 61.1667,53.5 61.5,53.5C 62.1667,53.5 62.5,53.8333 62.5,54.5C 63.2905,55.4013 64.2905,56.0679 65.5,56.5C 65.8333,57.8333 66.1667,57.8333 66.5,56.5C 67.609,56.5569 68.609,56.8902 69.5,57.5C 70.9485,60.3315 72.7818,62.9982 75,65.5C 75.4643,64.9056 75.631,64.2389 75.5,63.5C 76.5,63.8333 77.1667,64.5 77.5,65.5C 77.3723,67.1292 78.3723,68.4625 80.5,69.5C 80.9731,70.9063 81.9731,71.573 83.5,71.5C 84.0024,73.0847 85.0024,73.5847 86.5,73C 90.359,69.9684 94.0257,66.8017 97.5,63.5C 98.1667,63.5 98.5,63.1667 98.5,62.5C 99.1667,62.5 99.5,62.1667 99.5,61.5C 99.8333,61.5 100.167,61.5 100.5,61.5C 101.239,61.369 101.906,61.5357 102.5,62C 99.2711,65.3986 95.9378,68.5653 92.5,71.5C 91.8333,71.5 91.5,71.8333 91.5,72.5C 89.264,73.3891 87.264,74.7224 85.5,76.5C 83.736,74.7224 81.736,73.3891 79.5,72.5C 74.0897,66.7532 68.0897,61.7532 61.5,57.5C 60.7101,56.2058 59.7101,55.0391 58.5,54C 59.0944,53.5357 59.7611,53.369 60.5,53.5 Z"/></g>
<g><path style="opacity:1" fill="#f3f0ef" d="M 138.5,69.5 C 144.489,68.7397 150.489,68.0731 156.5,67.5C 156.5,75.5 156.5,83.5 156.5,91.5C 155.833,91.5 155.167,91.5 154.5,91.5C 148.817,90.2745 143.15,88.9411 137.5,87.5C 136.031,91.0428 135.031,94.7095 134.5,98.5C 133.707,100.918 132.374,102.918 130.5,104.5C 129.522,104.189 128.855,103.522 128.5,102.5C 131.102,96.757 132.769,90.757 133.5,84.5C 134.833,84.5 136.167,84.5 137.5,84.5C 137.5,81.1667 137.5,77.8333 137.5,74.5C 136.167,74.5 134.833,74.5 133.5,74.5C 133.426,68.2041 132.092,62.2041 129.5,56.5C 130.708,55.7659 132.041,55.4326 133.5,55.5C 134.432,60.6444 136.099,65.311 138.5,69.5 Z"/></g>
<g><path style="opacity:1" fill="#f5f4f4" d="M 1.5,66.5 C 1.3336,74.84 1.50027,83.1733 2,91.5C 2.49971,83.5069 2.66638,75.5069 2.5,67.5C 10.4315,69.0441 18.4315,70.3775 26.5,71.5C 26.2834,76.2303 26.6167,80.8969 27.5,85.5C 27.5,87.5 27.5,89.5 27.5,91.5C 25.4458,91.6347 23.7791,90.968 22.5,89.5C 16.7272,89.962 11.0605,90.962 5.5,92.5C 4.83333,92.5 4.16667,92.5 3.5,92.5C 3.16667,92.5 2.83333,92.5 2.5,92.5C 2.16667,92.5 1.83333,92.5 1.5,92.5C 0.166667,83.8333 0.166667,75.1667 1.5,66.5 Z"/></g>
<g><path style="opacity:0.005" fill="#210a00" d="M 72.5,70.5 C 73.1667,70.5 73.5,70.8333 73.5,71.5C 72.5029,72.7125 71.5029,72.5458 70.5,71C 71.0944,70.5357 71.7611,70.369 72.5,70.5 Z"/></g>
<g><path style="opacity:0.66" fill="#6d1f18" d="M 114.5,70.5 C 114.167,70.5 113.833,70.5 113.5,70.5C 111.521,67.8544 109.188,65.5211 106.5,63.5C 105.019,64.4803 103.685,65.647 102.5,67C 102.728,67.3988 103.062,67.5654 103.5,67.5C 102.833,68.5 102.167,69.5 101.5,70.5C 100.662,70.8417 100.328,71.5084 100.5,72.5C 99.209,72.7373 98.209,72.404 97.5,71.5C 96.5,71.8333 95.8333,72.5 95.5,73.5C 94.5084,73.3284 93.8417,73.6618 93.5,74.5C 92.609,75.1098 91.609,75.4431 90.5,75.5C 90.5569,74.391 90.8902,73.391 91.5,72.5C 91.5,71.8333 91.8333,71.5 92.5,71.5C 97.7027,68.6439 102.369,64.9772 106.5,60.5C 109.985,63.484 113.318,66.6507 116.5,70C 115.906,70.4643 115.239,70.631 114.5,70.5 Z"/></g>
<g><path style="opacity:0.562" fill="#8e2318" d="M 45.5,45.5 C 45.5,44.8333 45.8333,44.5 46.5,44.5C 46.8333,44.5 47.1667,44.5 47.5,44.5C 47.8417,45.3382 48.5084,45.6716 49.5,45.5C 49.7329,47.0618 50.3995,48.3951 51.5,49.5C 51.3398,51.1992 51.5065,52.8659 52,54.5C 58.9999,70.8211 65.9999,87.1544 73,103.5C 74.5322,108.433 75.8655,113.433 77,118.5C 77.9042,122.645 79.7375,123.311 82.5,120.5C 81.8333,122.167 81.1667,123.833 80.5,125.5C 81.8502,126.65 81.6836,127.317 80,127.5C 79.0546,127.095 78.3879,126.428 78,125.5C 77.6667,125.833 77.3333,126.167 77,126.5C 72.8267,119.552 70.4934,112.218 70,104.5C 69.6667,105.167 69.3333,105.833 69,106.5C 67.8608,103.417 66.5275,100.417 65,97.5C 65.0109,93.1031 64.0109,88.7698 62,84.5C 61.6667,84.8333 61.3333,85.1667 61,85.5C 58.8928,81.6194 57.0595,77.6194 55.5,73.5C 56.1667,73.1667 56.8333,72.8333 57.5,72.5C 55.7725,69.7127 54.6058,66.7127 54,63.5C 53.6667,64.1667 53.3333,64.8333 53,65.5C 51.8608,62.4167 50.5275,59.4167 49,56.5C 49.7197,52.8173 48.8864,49.484 46.5,46.5C 46.5,45.8333 46.1667,45.5 45.5,45.5 Z"/></g>
<g><path style="opacity:0.769" fill="#e6918a" d="M 112.5,70.5 C 112.833,70.5 113.167,70.5 113.5,70.5C 113.5,71.1667 113.833,71.5 114.5,71.5C 115.376,71.3691 116.043,71.7025 116.5,72.5C 108.565,73.5515 100.898,75.2181 93.5,77.5C 93.1667,77.5 92.8333,77.5 92.5,77.5C 91.1667,77.5 90.5,76.8333 90.5,75.5C 91.609,75.4431 92.609,75.1098 93.5,74.5C 94.4916,74.6716 95.1583,74.3382 95.5,73.5C 97.4147,73.7845 99.0813,73.4511 100.5,72.5C 104.705,72.2833 108.705,71.6167 112.5,70.5 Z"/></g>
<g><path style="opacity:0.924" fill="#681912" d="M 114.5,76.5 C 114.167,76.5 113.833,76.5 113.5,76.5C 112.833,76.5 112.5,76.8333 112.5,77.5C 110.585,77.2155 108.919,77.5489 107.5,78.5C 100.757,79.0684 94.0908,80.0684 87.5,81.5C 87.1961,80.8501 86.8627,80.1835 86.5,79.5C 88.6309,78.8313 90.6309,78.1646 92.5,77.5C 92.8333,77.5 93.1667,77.5 93.5,77.5C 99.9986,76.5559 106.499,75.5559 113,74.5C 115.359,74.324 115.859,74.9907 114.5,76.5 Z"/></g>
<g><path style="opacity:1" fill="#c13026" d="M 154.5,91.5 C 154.007,93.8056 153.674,96.139 153.5,98.5C 152.5,98.5 151.5,98.5 150.5,98.5C 145.978,113.861 137.645,126.861 125.5,137.5C 123.179,134.204 120.846,130.871 118.5,127.5C 122.067,125.443 125.234,122.777 128,119.5C 128.892,116.048 130.558,113.048 133,110.5C 134.695,107.569 135.862,104.402 136.5,101C 135.491,100.645 134.824,99.8121 134.5,98.5C 135.031,94.7095 136.031,91.0428 137.5,87.5C 143.15,88.9411 148.817,90.2745 154.5,91.5 Z"/></g>
<g><path style="opacity:1" fill="#c03026" d="M 22.5,89.5 C 22.0338,91.2012 22.0338,92.7012 22.5,94C 21.8333,94.6667 21.1667,95.3333 20.5,96C 21.3298,98.8017 22.1632,101.635 23,104.5C 26.5158,110.878 30.5158,116.878 35,122.5C 37.0627,124.734 39.2294,126.734 41.5,128.5C 39.1542,131.871 36.8208,135.204 34.5,138.5C 33.7611,138.631 33.0944,138.464 32.5,138C 24.4666,130.638 17.9666,122.138 13,112.5C 10.8721,108.11 9.53876,103.443 9,98.5C 8.0749,96.3104 6.90823,94.3104 5.5,92.5C 11.0605,90.962 16.7272,89.962 22.5,89.5 Z"/></g>
<g><path style="opacity:0.008" fill="#8f2013" d="M 1.5,92.5 C 1.83333,92.5 2.16667,92.5 2.5,92.5C 2.23219,94.099 2.56552,95.4324 3.5,96.5C 3.5,97.8333 3.5,99.1667 3.5,100.5C 1.96046,98.1617 1.29379,95.4951 1.5,92.5 Z"/></g>
<g><path style="opacity:0.996" fill="#c84438" d="M 31.5,78.5 C 32.9673,88.176 36.634,98.5094 42.5,109.5C 41.2086,110.527 41.2086,111.527 42.5,112.5C 40.9719,112.517 40.4719,113.184 41,114.5C 43.8333,117.333 46.6667,120.167 49.5,123C 48.8333,123.667 48.1667,123.667 47.5,123C 45.9625,121.293 44.2959,119.793 42.5,118.5C 38.0141,112.873 34.0141,106.873 30.5,100.5C 28.0544,101.427 27.2211,103.094 28,105.5C 30.6338,111.272 34.1338,116.439 38.5,121C 39.5768,121.47 40.5768,121.303 41.5,120.5C 43.5,123.167 45.8333,125.5 48.5,127.5C 48.44,128.043 48.1067,128.376 47.5,128.5C 46.5,127.833 45.5,127.167 44.5,126.5C 43.4822,127.193 42.4822,127.859 41.5,128.5C 39.2294,126.734 37.0627,124.734 35,122.5C 30.5158,116.878 26.5158,110.878 23,104.5C 22.1632,101.635 21.3298,98.8017 20.5,96C 21.1667,95.3333 21.8333,94.6667 22.5,94C 22.0338,92.7012 22.0338,91.2012 22.5,89.5C 23.7791,90.968 25.4458,91.6347 27.5,91.5C 27.5,89.5 27.5,87.5 27.5,85.5C 28.3213,82.3586 28.8213,79.0252 29,75.5C 29.8518,76.5707 30.6851,77.5707 31.5,78.5 Z"/></g>
<g><path style="opacity:0.016" fill="#957864" d="M 96.5,97.5 C 95.8333,97.5 95.5,97.8333 95.5,98.5C 95.1667,98.5 94.8333,98.5 94.5,98.5C 95.032,95.5404 95.6987,95.2071 96.5,97.5 Z"/></g>
<g><path style="opacity:0.012" fill="#801912" d="M 3.5,100.5 C 3.83333,100.5 4.16667,100.5 4.5,100.5C 4.5,101.5 4.5,102.5 4.5,103.5C 3.59603,102.791 3.26269,101.791 3.5,100.5 Z"/></g>
<g><path style="opacity:1" fill="#fcf3f2" d="M 42.5,118.5 C 42.1667,119.167 41.8333,119.833 41.5,120.5C 40.5768,121.303 39.5768,121.47 38.5,121C 34.1338,116.439 30.6338,111.272 28,105.5C 27.2211,103.094 28.0544,101.427 30.5,100.5C 34.0141,106.873 38.0141,112.873 42.5,118.5 Z"/></g>
<g><path style="opacity:0.008" fill="#5f0b01" d="M 4.5,103.5 C 4.83333,103.5 5.16667,103.5 5.5,103.5C 5.16667,107.5 4.83333,107.5 4.5,103.5 Z"/></g>
<g><path style="opacity:0.741" fill="#ce5d53" d="M 113.5,76.5 C 113.833,76.5 114.167,76.5 114.5,76.5C 115.525,76.8966 115.692,77.5632 115,78.5C 109.574,85.0461 104.407,91.7128 99.5,98.5C 96.2531,104.083 92.2531,109.083 87.5,113.5C 82.7301,117.723 81.7301,117.056 84.5,111.5C 85.6266,110.878 86.6266,110.045 87.5,109C 86.565,106.619 86.2317,104.119 86.5,101.5C 87.29,102.609 87.79,103.942 88,105.5C 90.1193,105.493 91.9526,104.326 93.5,102C 92.2004,100.421 92.5337,99.2545 94.5,98.5C 94.8333,99.8333 95.1667,99.8333 95.5,98.5C 96.1667,98.5 96.5,98.1667 96.5,97.5C 97.5964,95.8968 98.9297,94.3968 100.5,93C 100.043,92.586 99.7093,92.086 99.5,91.5C 100.908,90.7568 102.241,89.9234 103.5,89C 102.689,86.7088 103.523,84.8754 106,83.5C 106.914,84.6537 107.747,84.487 108.5,83C 108.043,82.586 107.709,82.086 107.5,81.5C 108.602,80.8243 109.602,80.1577 110.5,79.5C 111.5,79.1667 112.167,78.5 112.5,77.5C 113.167,77.5 113.5,77.1667 113.5,76.5 Z"/></g>
<g><path style="opacity:0.004" fill="#d20002" d="M 153.5,104.5 C 153.833,104.5 154.167,104.5 154.5,104.5C 154.167,107.167 153.833,107.167 153.5,104.5 Z"/></g>
<g><path style="opacity:0.004" fill="#000000" d="M 6.5,108.5 C 5.83333,109.167 5.83333,109.167 6.5,108.5 Z"/></g>
<g><path style="opacity:0.004" fill="#4e0e06" d="M 94.5,109.5 C 94.8333,109.5 95.1667,109.5 95.5,109.5C 94.968,112.46 94.3013,112.793 93.5,110.5C 94.1667,110.5 94.5,110.167 94.5,109.5 Z"/></g>
<g><path style="opacity:0.669" fill="#6a1b13" d="M 122.5,73.5 C 123.167,73.5 123.5,73.8333 123.5,74.5C 123.459,76.7453 122.625,77.4119 121,76.5C 119.716,77.5719 119.383,78.9052 120,80.5C 118.453,82.8261 116.619,83.9928 114.5,84C 115.451,84.7175 115.617,85.5509 115,86.5C 113.719,86.3808 112.552,86.8808 111.5,88C 112.451,88.7175 112.617,89.5509 112,90.5C 109.667,92.1667 107.333,93.8333 105,95.5C 103.354,97.0548 103.021,98.7215 104,100.5C 101.189,101.223 98.6891,103.056 96.5,106C 97.2871,107.313 96.9538,108.48 95.5,109.5C 95.1667,108.167 94.8333,108.167 94.5,109.5C 93.8333,109.5 93.5,109.833 93.5,110.5C 90.6613,113.448 88.328,116.282 86.5,119C 87.4506,119.718 87.6172,120.551 87,121.5C 85.134,123.809 82.9673,125.142 80.5,125.5C 81.1667,123.833 81.8333,122.167 82.5,120.5C 84.5798,118.427 86.2464,116.093 87.5,113.5C 92.2531,109.083 96.2531,104.083 99.5,98.5C 106.515,90.9786 113.015,82.9786 119,74.5C 120.011,73.6634 121.178,73.33 122.5,73.5 Z"/></g>
<g><path style="opacity:0.012" fill="#620000" d="M 8.5,112.5 C 8.5,113.167 8.5,113.833 8.5,114.5C 7.16667,113.833 7.16667,113.167 8.5,112.5 Z"/></g>
<g><path style="opacity:1" fill="#faf6f6" d="M 125.5,113.5 C 125.5,113.833 125.5,114.167 125.5,114.5C 123.246,118.26 120.412,121.593 117,124.5C 116.415,125.998 116.915,126.998 118.5,127.5C 120.846,130.871 123.179,134.204 125.5,137.5C 125.5,137.833 125.5,138.167 125.5,138.5C 123.996,140.836 121.996,142.669 119.5,144C 115.434,145.509 111.434,147.009 107.5,148.5C 106.718,144.937 105.384,141.603 103.5,138.5C 103.167,137.167 102.833,135.833 102.5,134.5C 104.608,132.941 106.941,131.608 109.5,130.5C 109.833,128.5 110.167,126.5 110.5,124.5C 115.311,121.523 119.311,117.689 122.5,113C 123.577,112.53 124.577,112.697 125.5,113.5 Z"/></g>
<g><path style="opacity:1" fill="#d15d54" d="M 134.5,98.5 C 134.824,99.8121 135.491,100.645 136.5,101C 135.862,104.402 134.695,107.569 133,110.5C 130.558,113.048 128.892,116.048 128,119.5C 125.234,122.777 122.067,125.443 118.5,127.5C 116.915,126.998 116.415,125.998 117,124.5C 120.412,121.593 123.246,118.26 125.5,114.5C 128.092,112.173 130.092,109.339 131.5,106C 130.944,105.617 130.611,105.117 130.5,104.5C 132.374,102.918 133.707,100.918 134.5,98.5 Z"/></g>
<g><path style="opacity:1" fill="#bf362c" d="M 51.5,49.5 C 55.8171,49.0834 59.8171,49.7501 63.5,51.5C 61.8008,51.3398 60.1341,51.5065 58.5,52C 59.4158,52.2784 60.0825,52.7784 60.5,53.5C 59.7611,53.369 59.0944,53.5357 58.5,54C 59.7101,55.0391 60.7101,56.2058 61.5,57.5C 59.6064,56.9524 57.9397,55.9524 56.5,54.5C 56.1667,54.6667 55.8333,54.8333 55.5,55C 56.3805,55.7083 57.0472,56.5416 57.5,57.5C 58.1667,57.5 58.5,57.8333 58.5,58.5C 59.1667,58.5 59.5,58.8333 59.5,59.5C 60.1667,59.5 60.5,59.8333 60.5,60.5C 61.1667,60.5 61.5,60.8333 61.5,61.5C 62.1667,61.5 62.5,61.8333 62.5,62.5C 63.1667,62.5 63.5,62.8333 63.5,63.5C 62.8902,64.391 62.5569,65.391 62.5,66.5C 61.1667,67.1667 61.1667,67.8333 62.5,68.5C 62.3284,69.4916 62.6618,70.1583 63.5,70.5C 64.1712,71.8471 64.1712,73.0138 63.5,74C 64.9308,74.4652 66.0975,75.2986 67,76.5C 67.7246,78.9494 68.7246,81.2827 70,83.5C 70.5946,84.8989 70.4279,86.2322 69.5,87.5C 70,88.5 70.5,89.5 71,90.5C 71.6543,89.3044 72.1543,89.3044 72.5,90.5C 71.435,92.8528 71.6017,95.1861 73,97.5C 73.3333,96.8333 73.6667,96.1667 74,95.5C 75.0804,97.9962 76.4138,100.33 78,102.5C 78.6869,104.568 78.5202,106.568 77.5,108.5C 78.0983,109.795 78.5983,111.128 79,112.5C 80.2431,104.164 80.4098,95.8312 79.5,87.5C 79.6779,84.2626 80.3446,81.2626 81.5,78.5C 81.8333,79.8333 82.1667,79.8333 82.5,78.5C 83.525,78.1034 83.6917,77.4368 83,76.5C 81.6244,75.2949 80.4577,73.9616 79.5,72.5C 81.736,73.3891 83.736,74.7224 85.5,76.5C 87.264,74.7224 89.264,73.3891 91.5,72.5C 90.8902,73.391 90.5569,74.391 90.5,75.5C 90.5,76.8333 91.1667,77.5 92.5,77.5C 90.6309,78.1646 88.6309,78.8313 86.5,79.5C 86.8627,80.1835 87.1961,80.8501 87.5,81.5C 87.6107,82.1174 87.944,82.6174 88.5,83C 87.3427,89.069 86.6761,95.2357 86.5,101.5C 85.6768,104.684 85.0101,108.017 84.5,111.5C 81.7301,117.056 82.7301,117.723 87.5,113.5C 86.2464,116.093 84.5798,118.427 82.5,120.5C 79.7375,123.311 77.9042,122.645 77,118.5C 75.8655,113.433 74.5322,108.433 73,103.5C 65.9999,87.1544 58.9999,70.8211 52,54.5C 51.5065,52.8659 51.3398,51.1992 51.5,49.5 Z"/></g>
<g><path style="opacity:0.976" fill="#d6695e" d="M 122.5,103.5 C 122.833,104.833 123.167,104.833 123.5,103.5C 123.833,103.5 124.167,103.5 124.5,103.5C 123.587,105.086 123.587,106.586 124.5,108C 123.833,109 123.167,110 122.5,111C 123.449,111.617 124.282,111.451 125,110.5C 125.707,108.919 126.54,107.419 127.5,106C 128.332,105.312 128.998,105.479 129.5,106.5C 128.139,108.85 126.806,111.184 125.5,113.5C 124.577,112.697 123.577,112.53 122.5,113C 119.311,117.689 115.311,121.523 110.5,124.5C 110.167,126.5 109.833,128.5 109.5,130.5C 106.941,131.608 104.608,132.941 102.5,134.5C 101.596,133.791 101.263,132.791 101.5,131.5C 104.358,131.405 106.691,130.238 108.5,128C 105.613,127.933 102.946,128.767 100.5,130.5C 99.8333,130.5 99.1667,130.5 98.5,130.5C 103.092,128.286 107.758,125.119 112.5,121C 111.906,120.536 111.239,120.369 110.5,120.5C 111.058,119.21 112.058,118.377 113.5,118C 112.833,117.667 112.167,117.333 111.5,117C 113.853,113.898 116.519,111.898 119.5,111C 119.043,110.586 118.709,110.086 118.5,109.5C 119.5,107.187 120.834,105.187 122.5,103.5 Z"/></g>
<g><path style="opacity:0.708" fill="#7d1f17" d="M 3.5,92.5 C 4.16667,92.5 4.83333,92.5 5.5,92.5C 6.90823,94.3104 8.0749,96.3104 9,98.5C 9.53876,103.443 10.8721,108.11 13,112.5C 17.9666,122.138 24.4666,130.638 32.5,138C 33.0944,138.464 33.7611,138.631 34.5,138.5C 34.5,138.833 34.5,139.167 34.5,139.5C 33.0937,139.973 32.427,140.973 32.5,142.5C 31.2928,141.811 29.9594,141.645 28.5,142C 25.616,139.439 23.616,136.605 22.5,133.5C 21.1082,131.076 19.2748,129.743 17,129.5C 14.4989,126.203 12.9989,122.87 12.5,119.5C 12.1667,118.167 11.8333,118.167 11.5,119.5C 9.74973,118.341 8.74973,116.674 8.5,114.5C 9.83333,113.833 9.83333,113.167 8.5,112.5C 8.3404,110.847 7.67373,109.514 6.5,108.5C 7.26139,106.741 6.92806,105.074 5.5,103.5C 5.73731,102.209 5.40397,101.209 4.5,100.5C 4.76781,98.901 4.43448,97.5676 3.5,96.5C 3.5,95.1667 3.5,93.8333 3.5,92.5 Z"/></g>
<g><path style="opacity:0.008" fill="#7f1310" d="M 147.5,118.5 C 147.833,118.5 148.167,118.5 148.5,118.5C 148.672,119.492 148.338,120.158 147.5,120.5C 147.5,119.833 147.5,119.167 147.5,118.5 Z"/></g>
<g><path style="opacity:0.008" fill="#760000" d="M 11.5,119.5 C 11.8333,119.5 12.1667,119.5 12.5,119.5C 12.1667,122.167 11.8333,122.167 11.5,119.5 Z"/></g>
<g><path style="opacity:0.012" fill="#a90000" d="M 146.5,120.5 C 146.833,120.5 147.167,120.5 147.5,120.5C 147.315,121.17 146.981,121.17 146.5,120.5 Z"/></g>
<g><path style="opacity:1" fill="#faf8f8" d="M 69.5,135.5 C 68.7387,136.391 67.7387,137.058 66.5,137.5C 64.5466,136.844 62.5466,136.511 60.5,136.5C 60.5,137.5 60.5,138.5 60.5,139.5C 58.5947,143.216 57.2613,147.216 56.5,151.5C 56.1667,151.5 55.8333,151.5 55.5,151.5C 51.5045,148.997 47.1711,147.164 42.5,146C 39.6447,143.969 36.978,141.803 34.5,139.5C 34.5,139.167 34.5,138.833 34.5,138.5C 36.8208,135.204 39.1542,131.871 41.5,128.5C 42.4822,127.859 43.4822,127.193 44.5,126.5C 45.5,127.167 46.5,127.833 47.5,128.5C 48.1067,128.376 48.44,128.043 48.5,127.5C 49.4822,126.859 50.4822,126.193 51.5,125.5C 56.8674,129.519 62.8674,131.853 69.5,132.5C 69.5,133.5 69.5,134.5 69.5,135.5 Z"/></g>
<g><path style="opacity:0.004" fill="#2f0e00" d="M 142.5,126.5 C 142.833,126.5 143.167,126.5 143.5,126.5C 143.672,127.492 143.338,128.158 142.5,128.5C 142.5,127.833 142.5,127.167 142.5,126.5 Z"/></g>
<g><path style="opacity:0.918" fill="#832f25" d="M 157.5,65.5 C 158.658,74.6575 158.824,83.9908 158,93.5C 157.502,97.4914 156.335,101.158 154.5,104.5C 154.167,103.167 153.833,103.167 153.5,104.5C 151.585,106.416 151.585,108.083 153.5,109.5C 152.833,109.833 152.167,110.167 151.5,110.5C 152.235,113.716 151.235,116.382 148.5,118.5C 148.167,117.167 147.833,117.167 147.5,118.5C 146.662,118.842 146.328,119.508 146.5,120.5C 145.167,120.833 145.167,121.167 146.5,121.5C 146.119,122.931 145.119,123.764 143.5,124C 144.774,124.977 144.774,125.811 143.5,126.5C 143.167,125.167 142.833,125.167 142.5,126.5C 141.167,127.167 141.167,127.833 142.5,128.5C 142.167,129.5 141.5,130.167 140.5,130.5C 140.167,129.167 139.833,129.167 139.5,130.5C 138.167,130.833 138.167,131.167 139.5,131.5C 138.9,132.9 137.9,133.9 136.5,134.5C 135.833,134.5 135.5,134.833 135.5,135.5C 134.833,135.5 134.5,135.833 134.5,136.5C 133.833,136.5 133.5,136.833 133.5,137.5C 132.833,137.5 132.5,137.833 132.5,138.5C 131.833,138.5 131.5,138.833 131.5,139.5C 130.167,140.167 128.833,140.833 127.5,141.5C 127.068,140.29 126.401,139.29 125.5,138.5C 125.5,138.167 125.5,137.833 125.5,137.5C 137.645,126.861 145.978,113.861 150.5,98.5C 151.5,98.5 152.5,98.5 153.5,98.5C 153.674,96.139 154.007,93.8056 154.5,91.5C 155.167,91.5 155.833,91.5 156.5,91.5C 157.499,83.5864 157.832,74.9197 157.5,65.5 Z"/></g>
<g><path style="opacity:0.784" fill="#e08c85" d="M 42.5,112.5 C 43.397,113.598 44.2303,113.598 45,112.5C 46,113.5 47,114.5 48,115.5C 47.8516,116.825 48.0183,117.992 48.5,119C 50.957,121.257 53.6236,122.257 56.5,122C 56.8333,123 57.1667,124 57.5,125C 73.8906,132.706 89.8906,132.206 105.5,123.5C 106.167,123.5 106.5,123.167 106.5,122.5C 107.833,121.833 109.167,121.167 110.5,120.5C 111.239,120.369 111.906,120.536 112.5,121C 107.758,125.119 103.092,128.286 98.5,130.5C 92.8659,132.938 86.8659,133.938 80.5,133.5C 80.5,135.167 80.5,136.833 80.5,138.5C 87.3222,138.46 93.9889,137.46 100.5,135.5C 100.5,133.833 100.5,132.167 100.5,130.5C 102.946,128.767 105.613,127.933 108.5,128C 106.691,130.238 104.358,131.405 101.5,131.5C 101.263,132.791 101.596,133.791 102.5,134.5C 102.833,135.833 103.167,137.167 103.5,138.5C 98.7132,137.97 94.3798,139.137 90.5,142C 80.2776,143.157 70.2776,142.324 60.5,139.5C 60.5,138.5 60.5,137.5 60.5,136.5C 62.5466,136.511 64.5466,136.844 66.5,137.5C 67.7387,137.058 68.7387,136.391 69.5,135.5C 69.5,134.5 69.5,133.5 69.5,132.5C 62.8674,131.853 56.8674,129.519 51.5,125.5C 50.4822,126.193 49.4822,126.859 48.5,127.5C 45.8333,125.5 43.5,123.167 41.5,120.5C 41.8333,119.833 42.1667,119.167 42.5,118.5C 44.2959,119.793 45.9625,121.293 47.5,123C 48.1667,123.667 48.8333,123.667 49.5,123C 46.6667,120.167 43.8333,117.333 41,114.5C 40.4719,113.184 40.9719,112.517 42.5,112.5 Z"/></g>
<g><path style="opacity:0.012" fill="#c58d60" d="M 106.5,122.5 C 105.833,122.5 105.5,122.833 105.5,123.5C 103.025,123.253 103.025,122.587 105.5,121.5C 106.107,121.624 106.44,121.957 106.5,122.5 Z"/></g>
<g><path style="opacity:0.02" fill="#653300" d="M 139.5,130.5 C 139.833,130.5 140.167,130.5 140.5,130.5C 140.315,131.17 139.981,131.17 139.5,130.5 Z"/></g>
<g><path style="opacity:1" fill="#fcf5f5" d="M 98.5,130.5 C 99.1667,130.5 99.8333,130.5 100.5,130.5C 100.5,132.167 100.5,133.833 100.5,135.5C 93.9889,137.46 87.3222,138.46 80.5,138.5C 80.5,136.833 80.5,135.167 80.5,133.5C 86.8659,133.938 92.8659,132.938 98.5,130.5 Z"/></g>
<g><path style="opacity:0.012" fill="#540000" d="M 22.5,133.5 C 21.8333,134.167 21.8333,134.167 22.5,133.5 Z"/></g>
<g><path style="opacity:0.004" fill="#000000" d="M 136.5,134.5 C 137.833,135.167 137.833,135.167 136.5,134.5 Z"/></g>
<g><path style="opacity:0.004" fill="#000000" d="M 22.5,135.5 C 23.8333,136.167 23.8333,136.167 22.5,135.5 Z"/></g>
<g><path style="opacity:0.008" fill="#000000" d="M 135.5,135.5 C 135.833,135.5 136.167,135.5 136.5,135.5C 136.315,136.17 135.981,136.17 135.5,135.5 Z"/></g>
<g><path style="opacity:0.008" fill="#7e0000" d="M 134.5,136.5 C 134.833,136.5 135.167,136.5 135.5,136.5C 135.315,137.17 134.981,137.17 134.5,136.5 Z"/></g>
<g><path style="opacity:1" fill="#c32c22" d="M 69.5,135.5 C 72.8004,136.093 76.1337,136.76 79.5,137.5C 76.5541,138.655 73.5541,138.821 70.5,138C 69.7476,137.329 69.4142,136.496 69.5,135.5 Z"/></g>
<g><path style="opacity:0.012" fill="#540000" d="M 133.5,137.5 C 133.833,137.5 134.167,137.5 134.5,137.5C 134.315,138.17 133.981,138.17 133.5,137.5 Z"/></g>
<g><path style="opacity:0.012" fill="#540000" d="M 132.5,138.5 C 132.833,138.5 133.167,138.5 133.5,138.5C 133.315,139.17 132.981,139.17 132.5,138.5 Z"/></g>
<g><path style="opacity:0.012" fill="#540000" d="M 131.5,139.5 C 131.833,139.5 132.167,139.5 132.5,139.5C 132.315,140.17 131.981,140.17 131.5,139.5 Z"/></g>
<g><path style="opacity:1" fill="#c13127" d="M 103.5,138.5 C 105.384,141.603 106.718,144.937 107.5,148.5C 107.5,148.833 107.5,149.167 107.5,149.5C 102.756,150.469 98.0895,151.969 93.5,154C 80.7939,156.421 68.4606,155.587 56.5,151.5C 57.2613,147.216 58.5947,143.216 60.5,139.5C 70.2776,142.324 80.2776,143.157 90.5,142C 94.3798,139.137 98.7132,137.97 103.5,138.5 Z"/></g>
<g><path style="opacity:0.678" fill="#888888" d="M 125.5,138.5 C 126.401,139.29 127.068,140.29 127.5,141.5C 127.167,142.167 126.833,142.833 126.5,143.5C 125.29,143.932 124.29,144.599 123.5,145.5C 122.833,145.5 122.5,145.833 122.5,146.5C 121.508,146.328 120.842,146.662 120.5,147.5C 119.833,147.5 119.5,147.833 119.5,148.5C 118.508,148.328 117.842,148.662 117.5,149.5C 116.833,149.5 116.5,149.833 116.5,150.5C 115.508,150.328 114.842,150.662 114.5,151.5C 112.883,152.038 111.216,152.371 109.5,152.5C 109.068,151.29 108.401,150.29 107.5,149.5C 107.5,149.167 107.5,148.833 107.5,148.5C 111.434,147.009 115.434,145.509 119.5,144C 121.996,142.669 123.996,140.836 125.5,138.5 Z"/></g>
<g><path style="opacity:0.008" fill="#000000" d="M 32.5,143.5 C 31.8333,144.167 31.8333,144.167 32.5,143.5 Z"/></g>
<g><path style="opacity:0.008" fill="#7e7f7e" d="M 126.5,143.5 C 127.833,144.167 127.833,144.167 126.5,143.5 Z"/></g>
<g><path style="opacity:0.016" fill="#7e7f7e" d="M 123.5,145.5 C 124.833,146.167 124.833,146.167 123.5,145.5 Z"/></g>
<g><path style="opacity:0.012" fill="#545554" d="M 122.5,146.5 C 122.833,146.5 123.167,146.5 123.5,146.5C 123.315,147.17 122.981,147.17 122.5,146.5 Z"/></g>
<g><path style="opacity:0.755" fill="#7e7e7e" d="M 34.5,139.5 C 36.978,141.803 39.6447,143.969 42.5,146C 47.1711,147.164 51.5045,148.997 55.5,151.5C 55.5,152.833 55.5,154.167 55.5,155.5C 54.8333,155.5 54.5,155.833 54.5,156.5C 52.6916,156.509 51.0249,156.009 49.5,155C 50.1667,154.667 50.8333,154.333 51.5,154C 47.0129,152.397 42.8463,150.23 39,147.5C 38.2825,148.451 37.4491,148.617 36.5,148C 36.6685,145.637 35.3352,144.137 32.5,143.5C 32.5,143.167 32.5,142.833 32.5,142.5C 32.427,140.973 33.0937,139.973 34.5,139.5 Z"/></g>
<g><path style="opacity:0.004" fill="#444444" d="M 120.5,147.5 C 121.167,147.5 121.833,147.5 122.5,147.5C 122.027,148.906 121.027,149.573 119.5,149.5C 119.5,149.167 119.5,148.833 119.5,148.5C 120.167,148.5 120.5,148.167 120.5,147.5 Z"/></g>
<g><path style="opacity:0.004" fill="#343434" d="M 117.5,149.5 C 118.167,149.5 118.833,149.5 119.5,149.5C 119.027,150.906 118.027,151.573 116.5,151.5C 116.5,151.167 116.5,150.833 116.5,150.5C 117.167,150.5 117.5,150.167 117.5,149.5 Z"/></g>
<g><path style="opacity:0.004" fill="#000000" d="M 114.5,151.5 C 115.167,151.5 115.833,151.5 116.5,151.5C 115.833,152.833 115.167,152.833 114.5,151.5 Z"/></g>
<g><path style="opacity:0.004" fill="#2b2b2b" d="M 109.5,154.5 C 109.5,154.167 109.5,153.833 109.5,153.5C 112.167,153.833 112.167,154.167 109.5,154.5 Z"/></g>
<g><path style="opacity:0.004" fill="#2f0e00" d="M 107.5,155.5 C 107.5,155.167 107.5,154.833 107.5,154.5C 108.167,154.5 108.833,154.5 109.5,154.5C 109.158,155.338 108.492,155.672 107.5,155.5 Z"/></g>
<g><path style="opacity:0.02" fill="#521c15" d="M 54.5,156.5 C 55.5,156.5 56.5,156.5 57.5,156.5C 58.209,157.404 59.209,157.737 60.5,157.5C 61.5,158.167 62.5,158.833 63.5,159.5C 62.1667,159.5 60.8333,159.5 59.5,159.5C 57.7392,158.687 56.0725,157.687 54.5,156.5 Z"/></g>
<g><path style="opacity:0.012" fill="#5a1203" d="M 104.5,155.5 C 105.5,155.5 106.5,155.5 107.5,155.5C 106.22,156.931 104.553,157.598 102.5,157.5C 102.5,157.167 102.5,156.833 102.5,156.5C 103.492,156.672 104.158,156.338 104.5,155.5 Z"/></g>
<g><path style="opacity:0.665" fill="#671914" d="M 107.5,149.5 C 108.401,150.29 109.068,151.29 109.5,152.5C 109.5,152.833 109.5,153.167 109.5,153.5C 108.508,153.328 107.842,153.662 107.5,154.5C 106.209,154.263 105.209,154.596 104.5,155.5C 103.508,155.328 102.842,155.662 102.5,156.5C 100.901,156.232 99.5676,156.566 98.5,157.5C 97.209,157.263 96.209,157.596 95.5,158.5C 93.2646,158.205 91.2646,158.539 89.5,159.5C 82.8333,159.5 76.1667,159.5 69.5,159.5C 66.7273,158.343 63.7273,157.676 60.5,157.5C 59.791,156.596 58.791,156.263 57.5,156.5C 57.1583,155.662 56.4916,155.328 55.5,155.5C 55.5,154.167 55.5,152.833 55.5,151.5C 55.8333,151.5 56.1667,151.5 56.5,151.5C 68.4606,155.587 80.7939,156.421 93.5,154C 98.0895,151.969 102.756,150.469 107.5,149.5 Z"/></g>
<g><path style="opacity:0.012" fill="#450a00" d="M 98.5,157.5 C 99.8333,157.5 101.167,157.5 102.5,157.5C 101.5,158.167 100.5,158.833 99.5,159.5C 98.1667,159.5 96.8333,159.5 95.5,159.5C 95.5,159.167 95.5,158.833 95.5,158.5C 96.791,158.737 97.791,158.404 98.5,157.5 Z"/></g>
</svg>
