<?xml version="1.0"?><svg xmlns="http://www.w3.org/2000/svg" width="36" height="36" shape-rendering="geometricPrecision" text-rendering="geometricPrecision" image-rendering="optimizeQuality" fill-rule="evenodd" clip-rule="evenodd" viewBox="0 0 36 36"><path fill="#ff9a8e" d="m12.9-0.1h0.9v0.2c-0.3 0-0.5 0-0.6 0.2-0.3 0-0.6 0.1-0.7 0.3-0.2 0-0.5 0-0.7-0.1 0.4-0.2 0.8-0.4 1.1-0.6z" opacity=".008"></path><path fill="#ffaaa8" d="m22.2-0.1h0.6v0.2c-0.3 0.1-0.5 0-0.6-0.2z" opacity=".008"></path><path fill="#dbae9e" d="m22.8 0.3v-0.2c0.4 0 0.8 0.1 1.2 0.4-0.3 0.1-0.5 0.1-0.7 0.1-0.1-0.2-0.2-0.3-0.5-0.3z" opacity=".02"></path><path fill="#e2908a" d="m14.7-0.1h6.3c0.6 0.3 1.2 0.4 1.8 0.4 0.1 0.2 0.3 0.3 0.5 0.3l0.7 0.4c-0.2 0.2-0.4 0.4-0.5 0.7-3.1-0.9-6.2-1.1-9.4-0.8-0.8 0.3-1.6 0.5-2.3 0.8-0.1-0.2-0.2-0.4-0.2-0.7 0.3-0.1 0.6-0.2 0.9-0.4 0.3 0 0.5-0.1 0.7-0.3 0.3 0.1 0.5 0 0.6-0.2 0.4 0.1 0.7 0 0.9-0.2z" opacity=".722"></path><path fill="#fbf9f9" d="m24 1l0.9 0.2c0.4 0.3 1 0.5 1.5 0.7 0 0.2 0.1 0.2 0.3 0.2 0.4 0.5 1 0.8 1.5 1.2 0.4 0.2 0.7 0.5 0.9 0.9-0.2 0-0.3 0.2-0.4 0.4-0.6 0.8-1.2 1.5-1.8 2.3-1.1-0.7-2.2-1.4-3.2-2.2-0.3-0.1-0.7-0.1-1.1-0.1v-0.2c0.3-0.9 0.6-1.8 0.9-2.7 0.1-0.3 0.3-0.5 0.5-0.7z" opacity=".955"></path><path fill="#fefffe" d="m24.9 1.2c0.1-0.2 0.2-0.2 0.4-0.1-0.1 0.1-0.3 0.2-0.4 0.1z" opacity=".006"></path><path fill="#fdfbfa" d="m11.6 1c0 0.3 0.1 0.5 0.2 0.7 0.4 0.9 0.7 1.8 0.9 2.7-1.3 0.6-2.6 1.5-3.8 2.5-0.5-0.6-1.1-1.2-1.6-1.8l-0.7-0.9c1.3-1.3 2.9-2.4 5-3.2z" opacity=".94"></path><path fill="#fefffe" d="m25.8 1.2c0.3 0.2 0.3 0.2 0 0z" opacity=".004"></path><path fill="#c23227" d="m23.5 1.7c-0.3 0.9-0.6 1.8-0.9 2.7-2.2-0.8-4.6-1.1-7-0.8-1 0.2-1.9 0.5-2.7 1 0-0.1 0-0.2-0.2-0.2-0.2-0.9-0.5-1.8-0.9-2.7 0.7-0.3 1.5-0.5 2.3-0.8 3.2-0.3 6.3-0.1 9.4 0.8z"></path><path fill="#fefffe" d="m26.4 1.9c0.3-0.3 0.5-0.2 0.7 0.1-0.1 0.1-0.3 0.2-0.4 0.1-0.2 0-0.3 0-0.3-0.2z" opacity=".009"></path><path fill="#fefffe" d="m28.2 3c0.3 0.2 0.3 0.2 0 0z" opacity=".004"></path><path fill="#eab988" d="m29.4 4.2c0.5-0.2 0.8 0.1 1.1 0.6h-0.5c0-0.1 0-0.2-0.2-0.2 0-0.1-0.1-0.2-0.2-0.2 0-0.2-0.1-0.2-0.2-0.2z" opacity=".012"></path><path fill="#936765" d="m5.7 4.8c-0.1 0-0.2 0.1-0.2 0.3-0.1-0.1-0.2-0.1-0.2-0.3 0.2-0.2 0.3-0.2 0.4 0z" opacity=".012"></path><path fill="#6e1c17" d="m22.6 4.4v0.2l-0.2 0.5c-1.3-0.4-2.6-0.7-4-0.7-0.5 0-1 0.1-1.4 0.4v0.7l-2.3 0.2c0.1-0.3 0-0.5-0.2-0.6-0.3-0.3-0.7-0.3-1.1 0-0.2-0.1-0.4-0.3-0.5-0.5 0.8-0.5 1.7-0.8 2.7-1 2.4-0.3 4.8 0 7 0.8z"></path><path fill="#fe0000" d="m30.5 4.8c0.3 0.2 0.3 0.2 0 0z" opacity=".004"></path><path fill="#86807e" d="m17 4.8c1.8 0 3.5 0.2 5.2 0.7 0 0.3-0.2 0.5-0.5 0.5-1.5-0.4-3.1-0.6-4.7-0.5v-0.7z"></path><path fill="#e5dede" d="m22.4 5.1v0.4h-0.2c-1.7-0.5-3.4-0.7-5.2-0.7 0.4-0.3 0.9-0.4 1.4-0.4 1.4 0 2.7 0.3 4 0.7z"></path><path fill="#8c8a8a" d="m22.6 4.6c0.4 0 0.8 0 1.1 0.1 1 0.8 2.1 1.5 3.2 2.2v0.2c-0.2 0.1-0.4 0.2-0.5 0.4-0.5-0.4-1.1-0.8-1.6-1.3-0.1 0.1-0.2 0.2-0.4 0.2-0.5-0.6-1.2-1-2-1.1v-0.2l0.2-0.5z"></path><path fill="#eeecec" d="m14.5 5.1c-1.4 0.7-2.7 1.5-4 2.4l-0.5-0.2c1-0.9 2.1-1.7 3.4-2.2 0.4-0.3 0.8-0.3 1.1 0z"></path><path fill="#bf291d" d="m22.4 5.3c0.8 0.1 1.5 0.5 2 1.1-0.7-0.2-1.4-0.5-2-0.9v-0.2z"></path><path fill="#bf3127" d="m7.3 5.1c0.5 0.6 1.1 1.2 1.6 1.8v0.2c-0.7 0.5-1.3 1.1-1.9 1.8-1.1 2-2 4.2-2.6 6.4 0.3 0.1 0.6 0.1 0.9 0.1 0-0.4 0-0.9 0.1-1.3 0.1-0.3 0.3-0.5 0.6-0.5 0.3 0.2 0.5 0.2 0.7 0 0.5-1.4 1.2-2.7 2.2-3.8 0.5-0.7 1.1-1.3 1.8-1.8 1.3-0.9 2.6-1.6 4-2.3l2.3-0.2c1.6-0.1 3.2 0.1 4.7 0.5 0.8 0.3 1.7 0.6 2.5 1.1 1.5 0.9 2.8 2.1 3.8 3.6 0.4 0.6 0.8 1.3 1.1 2 0.6 1.3 0.9 2.6 0.9 4.1h0.9v2.2h-0.9c-0.1 1.4-0.5 2.8-1.1 4.1 0.1 0.2 0.2 0.3 0.5 0.4 0 0.2 0.1 0.3 0.2 0.4-0.3 0.7-0.8 1.3-1.4 1.9v-0.3c0.3-0.5 0.6-1 0.9-1.5-0.1-0.3-0.2-0.3-0.4-0.1-0.2 0.3-0.4 0.6-0.6 1-0.1 0.2-0.3 0.2-0.5 0.1l0.4-0.7c-0.2-0.3-0.2-0.7 0-1-0.1-0.3-0.1-0.3-0.2 0h-0.2c0.1-0.7 0.4-1.2 1-1.6 0.7-2.6 0.7-5.1-0.3-7.6l-0.2 0.2c-0.2-0.3-0.3-0.6-0.3-0.9v-0.2h0.2c0.4-0.2 0.5-0.5 0.3-0.9-2.8-4.7-6.9-6.7-12.4-6-4.7 1.2-7.7 4.1-9.1 8.7-0.2 0.6-0.2 1.2 0 1.8 0.1-0.2 0.3-0.3 0.5-0.3 0 0.4-0.1 0.8-0.2 1.2-0.2-0.2-0.4-0.5-0.6-0.7 0 0.8-0.1 1.5-0.3 2.2-0.2-1-0.3-2-0.2-3.1-1.9-0.3-3.7-0.6-5.4-0.9 0-0.2-0.1-0.2-0.3-0.2 0-1 0.2-1.9 0.6-2.7l0.2 0.2c0.4-0.4 0.5-0.9 0.4-1.4 0.2 0 0.2-0.2 0.2-0.4h0.2c0.3 0.3 0.6 0.3 0.9 0 1.1-2.1 2.6-4 4.5-5.6z m6.8 7.2c0.3-0.1 0.6 0 0.9 0.2-0.2 0-0.3 0.1-0.3 0.2-0.2-0.1-0.5-0.2-0.6-0.4z m0.9 0.4v-0.2c1 0 2 0.1 2.9 0.4-0.3 0-0.6 0-0.9 0.1 0.6 0.3 1.3 0.4 2 0.4 0.9 0.2 1.7 0.5 2.5 0.9-0.9 0.8-1.8 1.4-2.7 1.8-0.4 0-0.6-0.1-0.7-0.5 0-0.3-0.2-0.6-0.7-0.9 0-0.2-0.2-0.3-0.4-0.4 0 0.2 0 0.3-0.1 0.4-0.5-0.5-0.9-1.1-1.3-1.8-0.2-0.1-0.4-0.2-0.6-0.2z m6.3 0.9c0.4-0.1 0.8 0 1.1 0.2 0 0.2-0.1 0.3-0.2 0.3l-0.9-0.5z m4 2.3c-0.8 0.2-1.7 0.4-2.7 0.4 0-0.2 0-0.4 0.2-0.4l0.5-0.7c0.2-0.2 0.4-0.3 0.7-0.5 0.4 0.4 0.9 0.8 1.3 1.2z m-3.4 0.2c0.2 0.2 0.4 0.3 0.7 0.2-0.3 0.2-0.7 0.3-1.1 0.2 0.1-0.2 0.2-0.3 0.4-0.4z m2.3 1.6c0.3-0.3 0.7-0.3 1.1-0.3-0.1 0.3-0.2 0.4-0.4 0.5-0.2-0.2-0.4-0.3-0.7-0.2z"></path><path fill="#c23329" d="m28.7 4.6c0.8 1.2 1.7 2.2 2.8 3.2 0.2 0.6 0.5 1.1 1 1.5 0.2-0.1 0.3-0.4 0.2-0.6h0.3c0 0.3 0.1 0.3 0.2 0v-0.3c0.6 0.7 0.9 1.5 0.9 2.3 0.1 0.7 0.3 1.4 0.6 2l0.2-0.7c0.3 0.9 0.5 1.8 0.5 2.7-0.2 0.1-0.2 0.3-0.2 0.5-1.3 0.1-2.7 0.3-4 0.4 0.2-0.5 0.2-1 0.1-1.5-0.7-2-1.6-3.8-2.7-5.4-0.7-0.4-1.3-1-1.7-1.6v-0.2c0.6-0.8 1.2-1.5 1.8-2.3z" opacity=".997"></path><path fill="#671c18" d="m22.2 5.5h0.2c0.6 0.4 1.3 0.7 2 0.9v0.2c-0.2 0.1-0.3 0.3-0.2 0.5-0.8-0.5-1.7-0.8-2.5-1.1 0.3 0 0.5-0.2 0.5-0.5z"></path><path fill="#818382" d="m14.5 5.1c0.2 0.1 0.3 0.3 0.2 0.6-1.4 0.7-2.7 1.4-4 2.3-0.2-0.1-0.3-0.2-0.2-0.5 1.3-0.9 2.6-1.7 4-2.4z"></path><path fill="#918f8f" d="m12.7 4.4c0.2 0 0.2 0.1 0.2 0.2 0.1 0.2 0.3 0.4 0.5 0.5-1.3 0.5-2.4 1.3-3.4 2.2-0.4 0.3-0.8 0.2-1.1-0.2v-0.2c1.2-1 2.5-1.9 3.8-2.5z"></path><path fill="#d25f55" d="m6.6 4.2l0.7 0.9c-1.9 1.6-3.4 3.5-4.5 5.6-0.3 0.3-0.6 0.3-0.9 0-0.1-0.3-0.1-0.3-0.2 0-0.1 0-0.2-0.1-0.2-0.2 0.3-1 0.8-1.6 1.5-1.9-0.1-0.6 0-1 0.4-1.5 0.1-0.3 0.3-0.3 0.4 0 0.3-0.3 0.4-0.6 0.2-0.9 0.2-0.4 0.5-0.5 0.7-0.2 0.3-0.3 0.6-0.6 0.8-0.9 0.2 0 0.2-0.1 0.2-0.3l0.9-0.6z" opacity=".98"></path><path fill="#6b1a14" d="m28 13.2c-0.1-0.3-0.1-0.3-0.2 0v0.2c-0.7-0.9-1.2-1.8-1.5-2.7l-0.2 0.2-1.2-1.2c0.2-0.3 0.1-0.5-0.3-0.7-0.3-0.1-0.6-0.3-0.9-0.6l-0.4 0.3c-0.5-0.4-1-0.6-1.6-0.8l0.5-0.3c-2.7-1-5.4-1-8.1 0l0.4 0.3c-1.3 0-2.4 0.6-3.4 1.5 0.3 0.5 0.1 0.6-0.4 0.6-0.1-0.3-0.2-0.3-0.2 0-0.2 0-0.3 0.1-0.3 0.2v0.3c-0.1 0-0.2 0-0.2 0.2-0.5 0.2-0.6 0.5-0.4 0.9-0.7 1.2-1.3 2.5-1.7 3.8l-0.2-0.7c-0.3 0.6-0.4 1.2-0.4 1.8-0.2 0-0.4 0.1-0.5 0.3-0.2-0.6-0.2-1.2 0-1.8 1.4-4.6 4.4-7.5 9.1-8.7 5.5-0.7 9.6 1.3 12.5 6 0.1 0.4 0 0.7-0.4 0.9z m-13.9-0.9c0.3-0.1 0.6 0 0.9 0.2-0.2 0-0.3 0.1-0.3 0.2-0.2-0.1-0.5-0.2-0.6-0.4z" opacity=".917"></path><path fill="#e8e3e3" d="m26.4 7.5c0.8 0.9 1.6 1.7 2.3 2.6-0.1 0.1-0.1 0.2-0.2 0.1-1.2-1.4-2.5-2.6-4.1-3.6v-0.2c0.2 0 0.3-0.1 0.3-0.2 0.6 0.5 1.2 0.9 1.7 1.3z"></path><path fill="#858585" d="m24.4 6.6c1.6 1 2.9 2.2 4.1 3.6-0.1 0.3-0.3 0.4-0.5 0.5-1-1.5-2.3-2.7-3.8-3.6-0.1-0.2 0-0.4 0.2-0.5z"></path><path fill="#d56259" d="m29.1 4.2h0.3c0.1 0 0.2 0 0.2 0.2 0.1 0 0.2 0.1 0.2 0.2 0.2 0 0.2 0.1 0.2 0.2 0.6 0.8 1.2 1.4 2 1.6 0.4 0.7 0.8 1.4 1.2 2v0.3h-0.2c-0.1-0.3-0.2-0.3-0.3 0 0.1 0.2 0 0.5-0.2 0.6-0.5-0.4-0.8-0.9-1-1.5-1.1-1-2-2-2.8-3.2 0.1-0.2 0.2-0.4 0.4-0.4z"></path><path fill="#fe0000" d="m34.1 10.7c0-0.2 0-0.3 0.1-0.5 0.2 0.2 0.1 0.4-0.1 0.5z" opacity=".004"></path><path fill="#380c00" d="m10.2 10.5h0.3c-0.1 0.4-0.2 0.5-0.5 0.2 0.2 0 0.2-0.1 0.2-0.2z" opacity=".004"></path><path d="m1.5 11.1c-0.2-0.3-0.2-0.3 0 0z" opacity=".004"></path><path fill="#89231c" d="m8.9 7.1c0.3 0.4 0.7 0.5 1.1 0.2l0.5 0.2c-0.1 0.3 0 0.4 0.2 0.5-0.7 0.5-1.3 1.1-1.8 1.8-0.3-0.8-0.7-0.8-1.3-0.2-0.8 1.1-1.4 2.3-1.9 3.6 0.1 0.1 0.2 0.3 0.3 0.4-0.3 0-0.5 0.2-0.6 0.5-0.1 0.4-0.1 0.9-0.1 1.3-0.3 0-0.6 0-0.9-0.1 0.6-2.2 1.5-4.4 2.6-6.4 0.6-0.7 1.2-1.3 1.9-1.8z"></path><path fill="#fe0000" d="m34.3 10.9c0.3 0.2 0.3 0.2 0 0z" opacity=".004"></path><path fill="#88211a" d="m26.9 7.1c0.4 0.6 1 1.2 1.7 1.6 1.1 1.6 2 3.4 2.7 5.4 0.1 0.5 0.1 1-0.1 1.5-0.6-0.9-1-2-1.2-3.1-0.3 0-0.6 0-0.9 0.2-0.3-0.7-0.7-1.4-1.1-2 0.2-0.1 0.4-0.2 0.5-0.5 0.1 0.1 0.1 0 0.2-0.1-0.7-0.9-1.5-1.7-2.3-2.6 0.1-0.2 0.3-0.3 0.5-0.4z"></path><path fill="#e59188" d="m11.1 10.2c2 0.6 4 0.8 6 0.7 1.6 0.3 3.2 0.7 4.8 1l-0.9 0.3c1.2 0.1 2.3 0.3 3.4 0.6 0.6 0.6 1.2 1.2 1.8 1.7 0 0.2 0.1 0.2 0.2 0.2 0 0.2 0.1 0.3 0.3 0.3l0.9 1.1c-0.3 0-0.5 0-0.7-0.1l-2.5-2.5c-0.3-0.2-0.7-0.3-1.1-0.3-3-0.7-6-1.2-9-1.6-0.8-0.4-1.7-0.6-2.7-0.5-0.3-0.2-0.4-0.5-0.5-0.9z" opacity=".824"></path><path fill="#bebfbf" d="m8.9 9.8c-1 1.1-1.7 2.4-2.1 3.8-0.3 0.2-0.5 0.2-0.8 0-0.1-0.1-0.2-0.3-0.3-0.4 0.5-1.3 1.1-2.5 2-3.6 0.5-0.6 0.9-0.6 1.2 0.2z"></path><path fill="#802019" d="m14.3 11.6c3 0.4 6 0.9 9 1.6-0.1 0.3-0.4 0.5-0.7 0.6h-0.2c-0.3-0.2-0.7-0.3-1.1-0.2-0.4-0.2-0.7-0.3-1.2-0.2-0.7-0.3-1.4-0.5-2.2-0.5-0.9-0.3-1.9-0.4-2.9-0.4-0.3-0.2-0.6-0.3-0.9-0.2 0-0.2-0.1-0.3-0.3-0.3h-0.2c-0.1-0.1-0.2-0.2-0.4-0.3 0.3-0.1 0.7-0.1 1.1-0.1z" opacity=".992"></path><path fill="#711a10" d="m19 13.4h1.1c0.4 0.2 0.7 0.3 1.2 0.2l0.9 0.5c-0.2 0-0.3 0-0.3 0.2h-0.4c-0.8-0.4-1.6-0.7-2.5-0.9z" opacity=".012"></path><path fill="#b63228" d="m23.3 13.2c0.4 0 0.8 0.1 1.1 0.3l2.5 2.5c0.2 0.1 0.4 0.1 0.7 0.1 0.2 0.1 0.4 0.2 0.6 0.2 0 0.2-0.2 0.4-0.4 0.5 0-0.2-0.1-0.3-0.2-0.3-0.3 0-0.6 0.1-0.8 0.3-1.4 1.9-2.8 3.7-4.4 5.4 1.1-1.6 2.3-3.1 3.5-4.5 0.1-0.2 0.1-0.4-0.1-0.5 0.3-0.3 0.2-0.5-0.4-0.4-1.4 0.2-2.9 0.4-4.4 0.6 1.7-0.5 3.4-0.9 5.2-1.1-0.1-0.2-0.2-0.2-0.4-0.2v-0.2c0.1 0 0.3 0 0.4-0.1-0.7-0.8-1.5-1.5-2.2-2.2-1 1-2 1.8-3.2 2.5 0.8-0.7 1.5-1.4 2.3-2.1-0.2-0.2-0.3-0.2-0.5-0.2 0.3-0.1 0.6-0.3 0.7-0.6z"></path><path fill="#e44738" d="m26.2 14.5c0.1-0.2 0.3-0.3 0.5-0.1 0.2 0.2 0.2 0.4 0 0.6-0.2 0-0.3-0.1-0.3-0.3-0.1 0-0.2 0-0.2-0.2z" opacity=".004"></path><path fill="#7a2019" d="m13.8 12.9c1.5 1 2.9 2.1 4.1 3.4 0.2 0.3 0.5 0.6 0.8 0.9 0.1 0.2 0.1 0.4-0.1 0.5h-0.3c-0.1-0.5-0.4-0.6-0.9-0.4 0-0.5-0.3-0.9-0.9-1.2 0-0.2 0-0.2-0.2-0.2-0.6-0.6-1.3-1.2-2-1.6 0-0.2-0.1-0.2-0.2-0.2 0-0.2-0.1-0.3-0.3-0.3 0-0.1 0-0.2-0.2-0.2 0-0.1-0.1-0.2-0.2-0.2 0-0.2-0.1-0.2-0.2-0.2 0-0.2-0.1-0.3-0.3-0.3-0.1-0.2-0.2-0.4-0.4-0.5l0.2-0.1c0.3 0.3 0.7 0.5 1.1 0.6z" opacity=".922"></path><path fill="#e21b42" d="m14.1 15c0.4 0.2 0.5 0.5 0.2 0.9 0-0.3 0-0.4-0.2-0.5v-0.4z" opacity=".004"></path><path fill="#dd7e76" d="m13.6 12h0.2c0.2 0 0.3 0.1 0.3 0.3 0.1 0.2 0.4 0.3 0.6 0.4 0.1 0.3 0.2 0.3 0.3 0 0.2 0 0.4 0.1 0.6 0.2 0.4 0.7 0.8 1.3 1.3 1.8 0.1-0.1 0.1-0.2 0.1-0.4 0.2 0.1 0.4 0.2 0.4 0.4 0 0.4 0.2 0.7 0.7 0.9 0.1 0.4 0.3 0.5 0.7 0.5 0.1 0.3 0.3 0.5 0.7 0.3 0.8-0.7 1.7-1.4 2.4-2.1 0.2 0 0.3-0.1 0.3-0.2 0.1 0 0.2-0.1 0.2-0.3h0.2c0.2 0 0.3 0 0.5 0.1-0.8 0.8-1.5 1.5-2.3 2.2-0.1 0-0.2 0.1-0.2 0.2-0.5 0.2-1 0.5-1.4 0.9-0.4-0.4-0.8-0.7-1.3-0.9-1.2-1.3-2.6-2.4-4.1-3.4-0.1-0.3-0.4-0.5-0.6-0.7 0.1-0.2 0.2-0.2 0.4-0.2z" opacity=".831"></path><path fill="#f3f0ef" d="m31.2 15.6c1.3-0.1 2.7-0.3 4-0.4v5.4h-0.4c-1.3-0.3-2.6-0.6-3.9-0.9-0.3 0.8-0.5 1.6-0.6 2.5-0.2 0.5-0.5 1-0.9 1.3-0.3-0.1-0.4-0.2-0.5-0.4 0.6-1.3 1-2.7 1.1-4.1h0.9v-2.2h-0.9c0-1.5-0.3-2.8-0.9-4.1 0.3-0.2 0.6-0.2 0.9-0.2 0.2 1.1 0.6 2.2 1.2 3.1z"></path><path fill="#f5f4f4" d="m0.3 15c0 1.8 0 3.7 0.2 5.6 0.1-1.8 0.1-3.6 0.1-5.4 1.7 0.3 3.5 0.6 5.4 0.9-0.1 1.1 0 2.1 0.2 3.1v1.4c-0.5 0-0.8-0.1-1.1-0.5-1.3 0.1-2.6 0.4-3.9 0.7h-0.9c-0.3-1.9-0.3-3.9 0-5.8z"></path><path fill="#210a00" d="m16.3 15.9c0.2 0 0.2 0 0.2 0.2-0.2 0.3-0.4 0.2-0.6-0.1 0.1-0.1 0.2-0.2 0.4-0.1z" opacity=".005"></path><path fill="#6d1f18" d="m25.8 15.9h-0.3c-0.4-0.6-0.9-1.2-1.5-1.6-0.4 0.2-0.7 0.5-0.9 0.8 0 0.1 0.1 0.1 0.2 0.1l-0.5 0.7c-0.2 0-0.2 0.2-0.2 0.4-0.3 0.1-0.5 0-0.7-0.2-0.2 0.1-0.3 0.2-0.4 0.4-0.2 0-0.4 0.1-0.5 0.3-0.2 0.1-0.4 0.2-0.6 0.2 0-0.3 0.1-0.5 0.2-0.7 0-0.1 0.1-0.2 0.2-0.2 1.2-0.7 2.2-1.5 3.2-2.5 0.7 0.7 1.5 1.4 2.2 2.2-0.1 0.1-0.3 0.1-0.4 0.1z" opacity=".66"></path><path fill="#8e2318" d="m10.2 10.2c0-0.1 0.1-0.2 0.3-0.2h0.2c0.1 0.2 0.2 0.3 0.4 0.2 0.1 0.4 0.2 0.7 0.5 0.9 0 0.4 0 0.8 0.1 1.2 1.6 3.6 3.1 7.3 4.7 11 0.4 1.1 0.7 2.2 0.9 3.4 0.2 0.9 0.6 1 1.3 0.4l-0.5 1.1c0.3 0.3 0.3 0.4-0.1 0.5-0.2-0.1-0.4-0.3-0.4-0.5l-0.3 0.3c-0.9-1.6-1.4-3.3-1.5-5l-0.3 0.5c-0.2-0.7-0.5-1.4-0.9-2.1 0-1-0.2-1.9-0.7-2.9l-0.2 0.2c-0.4-0.8-0.9-1.7-1.2-2.7l0.4-0.2c-0.4-0.6-0.6-1.3-0.8-2l-0.2 0.4c-0.2-0.7-0.5-1.3-0.9-2 0.2-0.8 0-1.6-0.5-2.2 0-0.2-0.1-0.3-0.3-0.3z" opacity=".562"></path><path fill="#e6918a" d="m25.3 15.9h0.2c0 0.1 0.1 0.2 0.3 0.2 0.2 0 0.3 0 0.4 0.2-1.8 0.2-3.5 0.6-5.2 1.1h-0.2c-0.3 0-0.4-0.1-0.4-0.4 0.2 0 0.4-0.1 0.6-0.2 0.3 0 0.4-0.1 0.5-0.3 0.4 0.1 0.8 0 1.1-0.2 1 0 1.9-0.2 2.7-0.4z" opacity=".769"></path><path fill="#681912" d="m25.8 17.2h-0.3c-0.1 0-0.2 0.1-0.2 0.2-0.4 0-0.8 0-1.1 0.3-1.5 0.1-3 0.3-4.5 0.6-0.1-0.1-0.2-0.3-0.2-0.4 0.4-0.2 0.9-0.3 1.3-0.5h0.2c1.5-0.2 3-0.4 4.4-0.6 0.6-0.1 0.7 0.1 0.4 0.4z" opacity=".924"></path><path fill="#c13026" d="m34.8 20.6c-0.1 0.5-0.2 1-0.3 1.6h-0.6c-1.1 3.4-2.9 6.3-5.7 8.7-0.5-0.7-1-1.5-1.5-2.2 0.8-0.5 1.5-1.1 2.1-1.8 0.2-0.8 0.6-1.5 1.1-2 0.4-0.7 0.7-1.4 0.8-2.2-0.2-0.1-0.4-0.2-0.4-0.5 0.1-0.9 0.3-1.7 0.6-2.5 1.3 0.3 2.6 0.6 3.9 0.9z"></path><path fill="#c03026" d="m5.1 20.1c-0.1 0.4-0.1 0.8 0 1l-0.5 0.5c0.2 0.6 0.4 1.3 0.6 1.9 0.8 1.4 1.7 2.8 2.7 4.1 0.4 0.5 0.9 0.9 1.4 1.3-0.5 0.8-1 1.5-1.5 2.3-0.2 0-0.4 0-0.5-0.1-1.8-1.7-3.3-3.6-4.4-5.8-0.5-1-0.8-2-0.9-3.1-0.2-0.5-0.4-1-0.8-1.4 1.3-0.3 2.6-0.6 3.9-0.7z"></path><path fill="#8f2013" d="m0.3 20.8h0.3c-0.1 0.4 0 0.7 0.2 0.9v0.9c-0.4-0.5-0.5-1.1-0.5-1.8z" opacity=".008"></path><path fill="#c84438" d="m7.1 17.7c0.3 2.1 1.1 4.5 2.5 6.9-0.3 0.3-0.3 0.5 0 0.7-0.4 0-0.5 0.2-0.4 0.5l1.9 1.9c-0.1 0.1-0.3 0.1-0.4 0-0.4-0.4-0.7-0.7-1.1-1-1-1.3-1.9-2.7-2.7-4.1-0.6 0.2-0.8 0.6-0.6 1.1 0.6 1.3 1.4 2.5 2.4 3.5 0.2 0.1 0.4 0.1 0.6-0.1 0.5 0.6 1 1.1 1.6 1.6 0 0.1-0.1 0.2-0.2 0.2l-0.7-0.4c-0.2 0.1-0.4 0.3-0.7 0.4-0.5-0.4-1-0.8-1.4-1.3-1-1.3-1.9-2.7-2.7-4.1-0.2-0.6-0.4-1.3-0.6-1.9l0.5-0.4c-0.1-0.3-0.1-0.7 0-1.1 0.3 0.4 0.6 0.5 1.1 0.5v-1.4c0.2-0.7 0.3-1.4 0.3-2.2 0.2 0.2 0.4 0.5 0.6 0.7z" opacity=".996"></path><path fill="#957864" d="m21.7 21.9c-0.1 0-0.2 0.1-0.2 0.3h-0.2c0.1-0.7 0.2-0.8 0.4-0.3z" opacity=".016"></path><path fill="#801912" d="m0.8 22.6h0.2v0.7c-0.2-0.2-0.3-0.4-0.2-0.7z" opacity=".012"></path><path fill="#fcf3f2" d="m9.6 26.7l-0.3 0.4c-0.2 0.2-0.4 0.2-0.6 0.1-1-1-1.8-2.2-2.4-3.5-0.2-0.5 0-0.9 0.6-1.1 0.8 1.4 1.7 2.8 2.7 4.1z"></path><path fill="#5f0b01" d="m1 23.3h0.2c0 0.9-0.1 0.9-0.2 0z" opacity=".008"></path><path fill="#ce5d53" d="m25.5 17.2h0.3c0.2 0.1 0.2 0.3 0.1 0.5-1.2 1.4-2.4 2.9-3.5 4.5-0.7 1.2-1.6 2.3-2.7 3.3-1.1 1-1.3 0.8-0.7-0.4 0.3-0.2 0.5-0.3 0.7-0.6-0.2-0.5-0.3-1.1-0.2-1.7 0.1 0.3 0.3 0.6 0.3 0.9 0.5 0 0.9-0.2 1.2-0.8-0.3-0.3-0.2-0.6 0.3-0.7 0 0.3 0.1 0.3 0.2 0 0.1 0 0.2-0.1 0.2-0.3 0.3-0.3 0.6-0.7 0.9-1-0.1-0.1-0.2-0.2-0.2-0.3 0.3-0.2 0.6-0.4 0.9-0.6-0.2-0.5 0-0.9 0.6-1.2 0.2 0.2 0.3 0.2 0.5-0.1-0.1-0.1-0.2-0.2-0.2-0.4 0.2-0.1 0.5-0.3 0.7-0.4 0.2-0.1 0.3-0.2 0.4-0.5 0.2 0 0.2 0 0.2-0.2z" opacity=".741"></path><path fill="#d20002" d="m34.5 23.5h0.3c-0.1 0.6-0.2 0.6-0.3 0z" opacity=".004"></path><path d="m1.5 24.4c-0.2 0.2-0.2 0.2 0 0z" opacity=".004"></path><path fill="#4e0e06" d="m21.3 24.6h0.2c-0.1 0.7-0.3 0.8-0.5 0.3 0.2 0 0.3-0.1 0.3-0.3z" opacity=".004"></path><path fill="#6a1b13" d="m27.6 16.5c0.1 0 0.2 0.1 0.2 0.3 0 0.5-0.2 0.6-0.6 0.4-0.3 0.3-0.3 0.6-0.2 0.9-0.3 0.5-0.8 0.8-1.2 0.8 0.2 0.2 0.2 0.3 0.1 0.6-0.3-0.1-0.6 0-0.8 0.3 0.2 0.2 0.2 0.3 0.1 0.6l-1.6 1.1c-0.3 0.3-0.4 0.7-0.2 1.1-0.6 0.2-1.2 0.6-1.7 1.3 0.2 0.2 0.1 0.5-0.2 0.7-0.1-0.3-0.2-0.3-0.2 0-0.2 0-0.3 0.1-0.3 0.3-0.6 0.6-1.1 1.3-1.5 1.9 0.2 0.1 0.2 0.3 0.1 0.5-0.4 0.6-0.9 0.9-1.5 0.9l0.5-1.1c0.4-0.5 0.8-1 1.1-1.6 1.1-1 2-2.1 2.7-3.3 1.6-1.7 3-3.5 4.4-5.4 0.2-0.2 0.5-0.3 0.8-0.3z" opacity=".669"></path><path fill="#620000" d="m1.9 25.3v0.5c-0.3-0.2-0.3-0.3 0-0.5z" opacity=".012"></path><path fill="#faf6f6" d="m28.2 25.5v0.3c-0.5 0.8-1.1 1.6-1.9 2.2-0.1 0.3 0 0.6 0.4 0.7 0.5 0.7 1 1.5 1.5 2.2v0.3c-0.3 0.5-0.8 0.9-1.3 1.2-0.9 0.3-1.8 0.7-2.7 1-0.2-0.8-0.5-1.5-0.9-2.2l-0.2-0.9c0.4-0.4 1-0.7 1.5-0.9l0.3-1.4c1-0.7 1.9-1.5 2.7-2.6 0.2-0.1 0.4 0 0.6 0.1z"></path><path fill="#d15d54" d="m30.3 22.2c0 0.3 0.2 0.4 0.4 0.5-0.1 0.8-0.4 1.5-0.8 2.2-0.5 0.5-0.9 1.2-1.1 2-0.6 0.7-1.3 1.3-2.1 1.8-0.4-0.1-0.5-0.4-0.4-0.7 0.8-0.6 1.4-1.4 1.9-2.2 0.6-0.6 1.1-1.2 1.4-2-0.1 0-0.2-0.1-0.2-0.3 0.4-0.3 0.7-0.8 0.9-1.3z"></path><path fill="#bf362c" d="m11.6 11.1c1-0.1 1.9 0.1 2.7 0.5-0.4 0-0.8 0-1.1 0.1 0.2 0.1 0.3 0.2 0.4 0.3-0.2 0-0.3 0-0.4 0.2 0.2 0.2 0.5 0.4 0.6 0.7-0.4-0.1-0.8-0.3-1.1-0.6l-0.2 0.1c0.2 0.1 0.3 0.3 0.4 0.5 0.2 0 0.3 0.1 0.3 0.3 0.1 0 0.2 0 0.2 0.2 0.1 0 0.2 0.1 0.2 0.2 0.2 0 0.2 0.1 0.2 0.2 0.2 0 0.3 0.1 0.3 0.3 0.1 0 0.2 0 0.2 0.2-0.1 0.2-0.2 0.4-0.2 0.7-0.3 0.1-0.3 0.3 0 0.4-0.1 0.2 0 0.4 0.2 0.5 0.1 0.3 0.1 0.5 0 0.7 0.3 0.2 0.6 0.3 0.8 0.6 0.1 0.6 0.4 1.1 0.7 1.6 0.1 0.3 0 0.6-0.2 0.9l0.4 0.7c0.1-0.3 0.2-0.3 0.3 0-0.2 0.5-0.2 1 0.1 1.5l0.3-0.4c0.2 0.5 0.5 1.1 0.9 1.6 0.1 0.4 0.1 0.9-0.2 1.3 0.2 0.3 0.3 0.6 0.4 0.9 0.3-1.9 0.3-3.7 0.1-5.6 0-0.7 0.2-1.4 0.4-2 0.1 0.3 0.2 0.3 0.3 0 0.2-0.1 0.2-0.3 0.1-0.5-0.3-0.3-0.6-0.6-0.8-0.9 0.5 0.2 0.9 0.5 1.3 0.9 0.4-0.4 0.9-0.7 1.4-0.9-0.1 0.2-0.2 0.4-0.2 0.7 0 0.3 0.1 0.4 0.4 0.4-0.4 0.2-0.9 0.3-1.3 0.5 0 0.1 0.1 0.3 0.2 0.4 0 0.2 0.1 0.3 0.2 0.4-0.2 1.3-0.4 2.7-0.4 4.1-0.2 0.8-0.4 1.5-0.5 2.3-0.6 1.2-0.4 1.4 0.7 0.4-0.3 0.6-0.7 1.1-1.1 1.6-0.7 0.6-1.1 0.5-1.3-0.4-0.2-1.2-0.5-2.3-0.9-3.4-1.5-3.7-3.1-7.4-4.7-11-0.1-0.4-0.1-0.8-0.1-1.2z"></path><path fill="#d6695e" d="m27.6 23.3c0 0.3 0.1 0.3 0.2 0h0.2c-0.2 0.3-0.2 0.7 0 1l-0.4 0.7c0.2 0.1 0.4 0.1 0.5-0.1 0.2-0.4 0.4-0.7 0.6-1 0.2-0.2 0.3-0.2 0.4 0.1-0.3 0.5-0.6 1-0.9 1.5-0.2-0.1-0.4-0.2-0.6-0.1-0.8 1.1-1.7 1.9-2.7 2.6l-0.3 1.4c-0.5 0.2-1.1 0.5-1.5 0.9-0.2-0.2-0.3-0.4-0.3-0.7 0.7 0 1.2-0.3 1.6-0.8-0.6 0-1.2 0.2-1.8 0.6h-0.4c1-0.5 2-1.2 3.1-2.2-0.1-0.1-0.3-0.1-0.4-0.1 0.1-0.3 0.3-0.5 0.6-0.6l-0.4-0.2c0.5-0.7 1.1-1.1 1.8-1.3-0.1-0.1-0.2-0.2-0.2-0.4 0.2-0.5 0.5-0.9 0.9-1.3z" opacity=".976"></path><path fill="#7d1f17" d="m0.8 20.8h0.4c0.4 0.4 0.6 0.9 0.8 1.4 0.1 1.1 0.4 2.1 0.9 3.1 1.1 2.2 2.6 4.1 4.4 5.8 0.1 0.1 0.3 0.1 0.5 0.1v0.2c-0.4 0.1-0.5 0.3-0.5 0.7-0.3-0.2-0.6-0.2-0.9-0.2-0.6-0.5-1.1-1.2-1.3-1.9-0.4-0.5-0.8-0.8-1.3-0.9-0.5-0.7-0.9-1.5-1-2.2-0.1-0.3-0.1-0.3-0.2 0-0.4-0.3-0.6-0.6-0.7-1.1 0.3-0.2 0.3-0.3 0-0.5 0-0.4-0.2-0.7-0.4-0.9 0.1-0.4 0.1-0.8-0.3-1.1 0.1-0.3 0-0.5-0.2-0.7 0.1-0.3 0-0.6-0.2-0.9v-0.9z" opacity=".708"></path><path fill="#7f1310" d="m33.2 26.7h0.2c0.1 0.2 0 0.3-0.2 0.4v-0.4z" opacity=".008"></path><path fill="#760000" d="m2.6 26.9h0.2c-0.1 0.6-0.1 0.6-0.2 0z" opacity=".008"></path><path fill="#a90000" d="m33 27.1h0.2c-0.1 0.2-0.1 0.2-0.2 0z" opacity=".012"></path><path fill="#faf8f8" d="m15.6 30.5c-0.1 0.2-0.4 0.3-0.6 0.4-0.5-0.1-0.9-0.2-1.4-0.2v0.7c-0.4 0.8-0.7 1.7-0.9 2.7h-0.2c-0.9-0.6-1.9-1-2.9-1.2-0.7-0.5-1.3-1-1.8-1.5v-0.2c0.5-0.8 1-1.5 1.5-2.3 0.3-0.1 0.5-0.3 0.7-0.4l0.7 0.4c0.1 0 0.2-0.1 0.2-0.2 0.2-0.2 0.5-0.3 0.7-0.5 1.2 0.9 2.5 1.5 4 1.6v0.7z"></path><path fill="#2f0e00" d="m32.1 28.5h0.2c0 0.2 0 0.3-0.2 0.4v-0.4z" opacity=".004"></path><path fill="#832f25" d="m35.4 14.7c0.3 2.1 0.3 4.2 0.1 6.3-0.1 0.9-0.3 1.8-0.7 2.5-0.1-0.3-0.2-0.3-0.3 0-0.4 0.4-0.4 0.8 0 1.1l-0.4 0.3c0.2 0.7-0.1 1.3-0.7 1.8-0.1-0.3-0.1-0.3-0.2 0-0.2 0-0.3 0.2-0.2 0.4-0.3 0.1-0.3 0.2 0 0.2-0.1 0.4-0.3 0.5-0.7 0.6 0.3 0.2 0.3 0.4 0 0.6-0.1-0.3-0.2-0.3-0.2 0-0.3 0.1-0.3 0.3 0 0.4-0.1 0.2-0.3 0.4-0.5 0.5-0.1-0.3-0.1-0.3-0.2 0-0.3 0-0.3 0.1 0 0.2-0.1 0.3-0.4 0.5-0.7 0.7-0.1 0-0.2 0-0.2 0.2-0.2 0-0.2 0.1-0.2 0.2-0.2 0-0.3 0.1-0.3 0.2-0.1 0-0.2 0.1-0.2 0.3-0.1 0-0.2 0-0.2 0.2l-0.9 0.4c-0.1-0.2-0.3-0.5-0.5-0.6v-0.3c2.8-2.4 4.6-5.3 5.7-8.7h0.6c0.1-0.6 0.2-1.1 0.3-1.6h0.4c0.2-1.8 0.3-3.7 0.2-5.9z" opacity=".918"></path><path fill="#e08c85" d="m9.6 25.3c0.2 0.3 0.4 0.3 0.5 0l0.7 0.7c0 0.3 0 0.5 0.1 0.8 0.6 0.5 1.2 0.7 1.8 0.7l0.2 0.6c3.7 1.8 7.3 1.6 10.8-0.3 0.2 0 0.3-0.1 0.3-0.2l0.9-0.5c0.1 0 0.3 0 0.4 0.1-1.1 1-2.1 1.7-3.1 2.2-1.3 0.5-2.7 0.7-4.1 0.6v1.2c1.5 0 3-0.3 4.5-0.7v-1.1c0.6-0.4 1.2-0.6 1.8-0.6-0.4 0.5-0.9 0.8-1.6 0.8 0 0.3 0.1 0.5 0.3 0.7l0.2 0.9c-1.1-0.2-2.1 0.1-2.9 0.8-2.3 0.2-4.6 0-6.8-0.6v-0.7c0.5 0 0.9 0.1 1.4 0.2 0.2-0.1 0.5-0.2 0.6-0.4v-0.7c-1.5-0.1-2.8-0.7-4-1.6-0.2 0.2-0.5 0.3-0.7 0.5-0.6-0.5-1.1-1-1.6-1.6l0.3-0.4c0.4 0.3 0.7 0.6 1.1 1 0.1 0.1 0.3 0.1 0.4 0l-1.9-1.9c-0.1-0.3 0-0.5 0.4-0.5z" opacity=".784"></path><path fill="#c58d60" d="m24 27.6c-0.2 0-0.3 0-0.3 0.2-0.5-0.1-0.5-0.2 0-0.5 0.2 0.1 0.2 0.1 0.3 0.3z" opacity=".012"></path><path fill="#653300" d="m31.4 29.4h0.2c0 0.1-0.1 0.1-0.2 0z" opacity=".02"></path><path fill="#fcf5f5" d="m22.2 29.4h0.4v1.1c-1.5 0.4-3 0.7-4.5 0.7v-1.2c1.4 0.1 2.8-0.1 4.1-0.6z"></path><path fill="#540000" d="m5.1 30c-0.2 0.2-0.2 0.2 0 0z" opacity=".012"></path><path d="m30.7 30.3c0.3 0.1 0.3 0.1 0 0z m-25.6 0.2c0.3 0.1 0.3 0.1 0 0z" opacity=".004"></path><path d="m30.5 30.5h0.2c0 0.1-0.1 0.1-0.2 0z" opacity=".008"></path><path fill="#7e0000" d="m30.3 30.7h0.2c-0.1 0.2-0.1 0.2-0.2 0z" opacity=".008"></path><path fill="#c32c22" d="m15.6 30.5c0.8 0.1 1.5 0.3 2.3 0.4-0.7 0.3-1.4 0.3-2 0.2-0.2-0.2-0.3-0.4-0.3-0.6z"></path><path fill="#540000" d="m30 30.9h0.3c-0.1 0.2-0.2 0.2-0.3 0z m-0.2 0.3h0.2c0 0.1-0.1 0.1-0.2 0z m-0.2 0.2h0.2c0 0.1-0.1 0.1-0.2 0z" opacity=".012"></path><path fill="#c13127" d="m23.3 31.2c0.4 0.7 0.7 1.4 0.9 2.2v0.2c-1.1 0.3-2.1 0.6-3.2 1.1-2.8 0.5-5.6 0.3-8.3-0.6 0.2-1 0.5-1.9 0.9-2.7 2.2 0.6 4.5 0.8 6.8 0.6 0.8-0.7 1.8-1 2.9-0.8z"></path><path fill="#888" d="m28.2 31.2c0.2 0.1 0.4 0.4 0.5 0.6l-0.2 0.5c-0.3 0.1-0.5 0.2-0.7 0.4-0.2 0-0.2 0.1-0.2 0.3-0.3-0.1-0.4 0-0.5 0.2-0.1 0-0.2 0.1-0.2 0.2-0.2 0-0.4 0-0.5 0.2-0.1 0-0.2 0.1-0.2 0.3-0.2-0.1-0.4 0-0.4 0.2-0.4 0.1-0.8 0.2-1.2 0.2-0.1-0.3-0.2-0.5-0.4-0.7v-0.2c0.9-0.3 1.8-0.7 2.7-1 0.5-0.3 1-0.7 1.3-1.2z" opacity=".678"></path><path d="m7.3 32.3c-0.1 0.1-0.1 0.1 0 0z" opacity=".008"></path><path fill="#7e7f7e" d="m28.5 32.3c0.3 0.1 0.3 0.1 0 0z" opacity=".008"></path><path fill="#7e7f7e" d="m27.8 32.7c0.3 0.2 0.3 0.2 0 0z" opacity=".016"></path><path fill="#545554" d="m27.6 33h0.2c-0.1 0.1-0.1 0.1-0.2 0z" opacity=".012"></path><path fill="#7e7e7e" d="m7.8 31.4c0.5 0.5 1.1 1 1.8 1.5 1 0.2 2 0.6 2.9 1.2v0.9c-0.2 0-0.2 0.1-0.2 0.2-0.4 0-0.8-0.1-1.2-0.3l0.5-0.3c-1-0.3-2-0.8-2.8-1.4-0.2 0.2-0.4 0.2-0.6 0.1 0.1-0.5-0.2-0.9-0.9-1v-0.2c0-0.4 0.1-0.6 0.5-0.7z" opacity=".755"></path><path fill="#444" d="m27.1 33.2h0.5c-0.1 0.3-0.4 0.5-0.7 0.4v-0.2c0.1 0 0.2-0.1 0.2-0.2z" opacity=".004"></path><path fill="#343434" d="m26.4 33.6h0.5c-0.1 0.4-0.3 0.5-0.7 0.5v-0.2c0.2 0 0.2-0.1 0.2-0.3z" opacity=".004"></path><path d="m25.8 34.1h0.4c-0.1 0.3-0.3 0.3-0.4 0z" opacity=".004"></path><path fill="#2b2b2b" d="m24.6 34.8v-0.3c0.6 0.1 0.6 0.2 0 0.3z" opacity=".004"></path><path fill="#2f0e00" d="m24.2 35v-0.2h0.4c0 0.2-0.2 0.2-0.4 0.2z" opacity=".004"></path><path fill="#521c15" d="m12.3 35.2h0.6c0.2 0.2 0.4 0.3 0.7 0.2l0.7 0.5h-0.9c-0.4-0.2-0.8-0.4-1.1-0.7z" opacity=".02"></path><path fill="#5a1203" d="m23.5 35h0.7c-0.3 0.3-0.7 0.5-1.1 0.4v-0.2c0.2 0.1 0.3 0 0.4-0.2z" opacity=".012"></path><path fill="#671914" d="m24.2 33.6c0.2 0.2 0.3 0.4 0.4 0.7v0.2c-0.2 0-0.3 0.1-0.4 0.3-0.3-0.1-0.5 0-0.7 0.2-0.2-0.1-0.4 0-0.4 0.2-0.4 0-0.7 0-0.9 0.2-0.3 0-0.6 0.1-0.7 0.3-0.5-0.1-1 0-1.4 0.2h-4.5c-0.6-0.3-1.3-0.4-2-0.5-0.1-0.2-0.4-0.2-0.7-0.2 0-0.2-0.2-0.3-0.4-0.2v-0.9h0.2c2.7 0.9 5.5 1.1 8.3 0.6 1.1-0.5 2.1-0.8 3.2-1.1z" opacity=".665"></path><path fill="#450a00" d="m22.2 35.4h0.9l-0.7 0.5h-0.9v-0.2c0.3 0 0.5-0.1 0.7-0.3z" opacity=".012"></path></svg>