<svg xmlns="http://www.w3.org/2000/svg" width="160" height="160" viewBox="0 0 160 160" version="1.1">
	<path fill-opacity="0.404" d="M 70.500 0.945 C 63.402 2.106, 53.880 4.720, 52.794 5.806 C 52.233 6.367, 52.873 9.189, 54.436 13.036 C 55.846 16.506, 57 19.710, 57 20.156 C 57 20.601, 54.814 22.074, 52.143 23.428 C 49.471 24.782, 45.833 27.111, 44.057 28.605 L 40.830 31.321 35.506 25.411 L 30.182 19.500 25.994 23.500 C 17.569 31.545, 8.871 46.954, 5.589 59.644 C 4.715 63.024, 4 66.413, 4 67.175 C 4 68.177, 7.061 69.003, 15.040 70.154 C 21.111 71.029, 26.224 71.915, 26.400 72.123 C 26.577 72.330, 27.005 76.678, 27.352 81.785 C 27.892 89.734, 27.754 91.157, 26.391 91.680 C 25.515 92.016, 24.428 91.693, 23.976 90.961 C 23.294 89.857, 21.569 89.876, 13.827 91.071 L 4.500 92.511 4.845 95.987 C 5.371 101.283, 10.538 114.609, 14.910 121.943 C 25.120 139.069, 44.009 152.960, 63.258 157.499 C 72.323 159.636, 88.995 159.431, 98.234 157.068 C 117.289 152.194, 135.277 138.727, 145.279 121.845 C 150.160 113.607, 154.864 101.355, 155.219 95.957 L 155.500 91.690 147.500 89.903 C 143.100 88.919, 139.037 88.089, 138.471 88.057 C 137.906 88.026, 136.646 91.095, 135.671 94.878 C 133.770 102.259, 131.904 105.677, 130.312 104.693 C 129.698 104.313, 130.201 101.497, 131.635 97.290 C 132.907 93.556, 133.960 89.487, 133.974 88.250 C 133.992 86.675, 134.600 86, 136 86 C 137.778 86, 138 85.333, 138 80 C 138 74.667, 137.778 74, 136 74 C 134.369 74, 133.986 73.308, 133.923 70.250 C 133.791 63.815, 133.441 60.589, 132.594 58 C 132.016 56.236, 132.090 55.797, 132.847 56.509 C 133.436 57.064, 134.660 60.439, 135.567 64.009 C 136.475 67.579, 137.317 70.611, 137.439 70.747 C 137.561 70.883, 140.325 70.539, 143.581 69.981 C 146.836 69.424, 151.015 68.719, 152.867 68.416 C 156.158 67.878, 156.220 67.777, 155.611 63.968 C 153.567 51.184, 144.106 33.355, 134.249 23.712 L 129.354 18.924 124.637 24.928 L 119.921 30.932 113.404 26.471 C 109.821 24.018, 105.788 21.734, 104.444 21.397 C 101.499 20.657, 101.480 20.240, 104.039 12.076 C 105.147 8.543, 105.703 5.332, 105.276 4.939 C 102.178 2.092, 79.449 -0.519, 70.500 0.945 M 76 21 C 76 21.550, 78.588 22.007, 81.750 22.016 C 84.912 22.024, 90.196 22.665, 93.492 23.441 C 99.045 24.747, 101.092 24.759, 99.811 23.478 C 99.524 23.191, 96.187 22.299, 92.395 21.495 C 84.414 19.805, 76 19.550, 76 21 M 58.667 24.446 C 51.308 27.472, 44.743 31.776, 45.535 33.056 C 45.893 33.636, 47.234 33.265, 48.820 32.146 C 52.778 29.355, 61.704 25, 63.467 25 C 64.310 25, 65 24.325, 65 23.500 C 65 21.672, 65.647 21.576, 58.667 24.446 M 111 30.728 C 112.375 31.621, 116.537 35.438, 120.250 39.212 C 123.963 42.985, 127 45.584, 127 44.988 C 127 43.125, 112.193 28.997, 110.298 29.052 C 108.835 29.095, 108.966 29.407, 111 30.728 M 73.580 31.079 C 50.317 34.583, 32.030 56.333, 32.025 80.500 C 32.023 94.793, 36.384 106.062, 45.828 116.157 C 65.463 137.146, 95.910 137.343, 115.821 116.608 C 125.529 106.498, 130.017 95.386, 129.976 81.568 C 129.946 71.718, 128.798 66.459, 124.896 58.282 C 115.847 39.321, 94.386 27.944, 73.580 31.079 M 34.123 44.047 C 31.074 48.171, 25.961 59.128, 26.601 60.164 C 27.484 61.592, 29.972 61.092, 29.400 59.601 C 28.830 58.114, 33.022 49.096, 36.135 45.115 C 37.161 43.803, 38 42.341, 38 41.865 C 38 40.128, 36.323 41.072, 34.123 44.047 M 51.628 55.750 C 53.549 60.563, 56.423 67.875, 58.014 72 C 59.605 76.125, 63.214 85.350, 66.032 92.500 C 73.920 112.509, 78.100 123.326, 78.704 125.291 C 79.007 126.276, 79.599 126.951, 80.021 126.791 C 80.945 126.440, 124.258 72.841, 123.779 72.641 C 123.594 72.563, 120.081 69.260, 115.972 65.300 L 108.500 58.100 78.797 52.550 C 62.460 49.498, 48.878 47, 48.614 47 C 48.351 47, 49.707 50.938, 51.628 55.750 M 61.550 54.816 C 62.313 55.471, 75.912 66.868, 84.210 73.808 C 85.746 75.092, 86.765 74.534, 94.153 68.372 L 102.385 61.506 83.443 57.805 C 63.738 53.956, 59.945 53.438, 61.550 54.816 M 60.954 66.736 C 70.622 91.733, 79.179 113.512, 79.430 113.764 C 79.582 113.916, 80.463 107.394, 81.387 99.270 C 82.310 91.147, 83.290 83.365, 83.563 81.978 C 83.995 79.778, 82.745 78.360, 73.779 70.885 C 68.126 66.172, 62.078 61.113, 60.339 59.643 L 57.178 56.972 60.954 66.736 M 100.173 69.127 C 96.191 72.504, 93.124 75.457, 93.357 75.690 C 93.764 76.097, 115.088 72.246, 115.673 71.660 C 115.830 71.503, 114.035 69.488, 111.685 67.182 L 107.412 62.988 100.173 69.127 M 99.250 79.277 C 90.563 80.863, 87.990 81.692, 87.957 82.915 C 87.934 83.787, 87.115 91.138, 86.138 99.250 C 85.162 107.362, 84.618 113.986, 84.931 113.969 C 85.244 113.951, 86.380 112.714, 87.455 111.219 C 88.530 109.723, 95.168 101.412, 102.205 92.750 C 116.688 74.923, 116.934 76.048, 99.250 79.277 M 29.057 102.944 C 27.847 103.709, 27.821 104.312, 28.899 106.678 C 30.656 110.537, 38.907 122, 39.928 122 C 40.383 122, 41.303 121.340, 41.972 120.534 C 42.964 119.338, 42.548 118.277, 39.715 114.784 C 37.804 112.428, 35.278 108.588, 34.100 106.250 C 31.847 101.777, 31.383 101.472, 29.057 102.944 M 116.807 119.998 C 111.956 124.869, 110.252 127.249, 110.617 128.642 C 110.996 130.094, 110.126 131.123, 107.060 132.846 C 104.827 134.101, 103 135.247, 103 135.392 C 103 136.164, 108.276 148.599, 108.838 149.149 C 109.202 149.506, 112.650 147.820, 116.500 145.402 C 120.350 142.985, 124.139 140.607, 124.920 140.118 C 126.060 139.405, 125.396 137.907, 121.551 132.520 L 116.763 125.809 121.418 121.083 C 124.648 117.804, 125.877 115.842, 125.430 114.678 C 125.076 113.755, 124.497 113.062, 124.143 113.138 C 123.789 113.215, 120.488 116.301, 116.807 119.998 M 49.831 127.598 C 48.578 128.851, 47.790 128.958, 46.177 128.095 C 44.337 127.110, 43.649 127.651, 39.625 133.247 L 35.128 139.500 37.814 141.689 C 39.291 142.894, 44.009 145.709, 48.298 147.946 L 56.097 152.013 57.386 148.756 C 58.096 146.965, 59.449 143.395, 60.393 140.821 C 62.087 136.207, 62.153 136.157, 65.163 137.207 C 67.556 138.041, 68.404 137.972, 69.092 136.885 C 70.693 134.357, 70.036 133.229, 66.581 132.581 C 64.701 132.228, 60.539 130.609, 57.331 128.983 C 54.124 127.356, 51.484 126.020, 51.464 126.013 C 51.445 126.006, 50.710 126.719, 49.831 127.598 M 97.077 132.095 C 95.744 132.628, 91.333 133.558, 87.274 134.161 C 80.623 135.150, 79.925 135.466, 80.197 137.363 C 80.461 139.198, 81.076 139.430, 85 139.176 C 87.475 139.016, 92.088 138.176, 95.250 137.310 C 100.188 135.959, 101 135.402, 101 133.368 C 101 130.774, 100.659 130.664, 97.077 132.095" stroke="none" fill="black" fill-rule="evenodd"/>
	<path fill-opacity="0.125" d="M 69.500 3.580 C 68.400 3.847, 64.237 4.793, 60.250 5.682 C 56.263 6.571, 53 7.628, 53 8.030 C 53 8.433, 54.125 11.751, 55.500 15.404 C 58.447 23.234, 58.417 23, 56.475 23 C 53.964 23, 41.941 31.072, 42.562 32.341 C 42.875 32.979, 40.180 30.350, 36.574 26.500 C 32.968 22.650, 30.014 20.032, 30.009 20.683 C 30.004 21.333, 29.132 22.141, 28.072 22.477 C 25.337 23.345, 15.871 36.157, 11.531 44.864 C 7.644 52.662, 3.467 66.928, 4.742 68.051 C 5.159 68.419, 9.550 69.259, 14.500 69.918 C 28.381 71.767, 28.305 71.735, 27.698 75.471 C 27.413 77.231, 27.511 81.488, 27.917 84.931 C 28.598 90.704, 28.494 91.253, 26.578 91.973 C 25.096 92.530, 24.401 92.326, 24.154 91.261 C 23.892 90.128, 22.930 89.917, 20.154 90.384 C 18.145 90.722, 14.098 91.291, 11.162 91.647 C 8.135 92.015, 5.601 92.877, 5.309 93.636 C 3.486 98.389, 12.842 119.958, 21.320 130.548 C 26.410 136.906, 32.660 142.714, 33.470 141.838 C 34.945 140.242, 43 127.782, 43 127.097 C 43 126.611, 42.261 125.930, 41.357 125.583 C 40.453 125.237, 39.991 124.676, 40.330 124.337 C 40.668 123.998, 42.611 124.991, 44.646 126.543 C 48.280 129.316, 48.369 129.330, 49.670 127.371 C 50.971 125.411, 51.111 125.433, 57.747 128.673 C 61.461 130.487, 65.175 131.953, 66 131.931 C 66.825 131.909, 65.315 131.004, 62.644 129.920 C 56.572 127.457, 49.368 122.556, 47.965 119.934 C 47.356 118.797, 46.385 118.239, 45.700 118.632 C 45.040 119.011, 44.803 118.983, 45.174 118.570 C 45.545 118.156, 44.282 115.766, 42.368 113.259 C 35.089 103.723, 31.706 93.646, 31.706 81.500 C 31.706 55.996, 49.167 35.052, 73.976 30.797 C 99.984 26.338, 126.006 46.461, 130.092 74.191 C 132.057 87.527, 128.688 100.434, 120.021 112.776 C 114.515 120.617, 108.565 125.936, 101.943 128.941 C 99.499 130.049, 98.310 130.966, 99.300 130.978 C 103.248 131.026, 113.832 123.620, 120.672 116.023 C 123.528 112.851, 124.001 112.652, 125.414 114.027 C 126.834 115.409, 126.551 116.048, 122.440 120.747 C 117.385 126.526, 117.338 125.843, 123.409 134.865 L 127 140.201 121.030 144.059 C 117.746 146.181, 113.688 148.627, 112.012 149.494 C 109.176 150.960, 108.919 150.946, 108.318 149.285 C 107.963 148.303, 106.669 145.191, 105.444 142.369 L 103.215 137.238 97.358 139.252 C 87.865 142.516, 70.915 142.591, 62.613 139.405 C 61.619 139.024, 60.696 140.427, 59.469 144.182 C 56.462 153.392, 56.707 153.195, 51.246 150.818 C 48.636 149.681, 43.916 147.044, 40.758 144.958 C 33.882 140.414, 31.924 141.475, 38.648 146.102 C 45.787 151.014, 59.578 156.748, 67.441 158.074 C 76.921 159.673, 92.718 158.730, 101.209 156.057 C 108.532 153.752, 119.608 147.822, 127.575 141.941 C 138.750 133.693, 150.182 116.066, 153.805 101.500 C 156.365 91.205, 156.935 92.336, 148.252 90.483 C 143.988 89.573, 139.803 88.641, 138.951 88.411 C 137.775 88.093, 137.105 89.378, 136.167 93.746 C 135.489 96.911, 134.260 101.046, 133.437 102.935 C 132.126 105.946, 131.761 106.190, 130.481 104.910 C 129.201 103.630, 129.252 102.836, 130.895 98.475 C 131.926 95.739, 133.087 91.577, 133.476 89.227 C 134.007 86.021, 134.598 85.023, 135.842 85.227 C 137.180 85.447, 137.558 84.487, 137.802 80.250 C 138.068 75.638, 137.872 75, 136.188 75 C 134.683 75, 134.143 74.060, 133.671 70.616 C 133.340 68.205, 132.398 64.282, 131.577 61.899 C 130.434 58.581, 130.365 57.392, 131.284 56.825 C 133.098 55.703, 134.071 57.227, 135.971 64.169 C 136.925 67.651, 137.883 70.450, 138.102 70.389 C 138.321 70.328, 142.402 69.724, 147.172 69.047 L 155.844 67.816 155.284 64.158 C 154.486 58.949, 149.532 45.593, 146.373 40.136 C 142.745 33.867, 136.543 26.093, 132.504 22.752 L 129.182 20.005 124.905 25.252 C 122.552 28.139, 120.339 30.850, 119.986 31.277 C 119.634 31.705, 116.307 30.017, 112.593 27.526 C 108.879 25.036, 104.752 22.725, 103.420 22.391 C 100.499 21.658, 100.504 21.753, 103 14.500 C 104.928 8.897, 105.597 5.070, 104.447 6.220 C 104.143 6.524, 101.781 6.118, 99.197 5.318 C 94.555 3.880, 73.370 2.640, 69.500 3.580 M 76.144 20.932 C 76.388 21.665, 79.114 22.340, 82.899 22.603 C 88.418 22.987, 92.607 23.693, 97.875 25.126 C 98.631 25.332, 99.430 25.016, 99.650 24.425 C 100.264 22.774, 93.399 20.948, 84.117 20.293 C 77.719 19.842, 75.831 19.993, 76.144 20.932 M 57.892 24.354 C 53.363 26.217, 48.856 28.790, 45.107 31.652 C 44.892 31.817, 45.259 32.607, 45.924 33.409 C 46.969 34.667, 47.414 34.586, 49.188 32.812 C 50.318 31.682, 54.577 29.217, 58.652 27.334 C 62.728 25.451, 65.797 23.481, 65.472 22.955 C 64.667 21.652, 64.296 21.720, 57.892 24.354 M 109 29.284 C 109 29.991, 110.350 31.366, 112.001 32.341 C 116.516 35.009, 125.150 44.167, 124.571 45.676 C 123.986 47.201, 126.575 47.497, 127.494 46.010 C 128.188 44.887, 111.933 28, 110.156 28 C 109.520 28, 109 28.578, 109 29.284 M 32.998 45.504 C 29.668 50.343, 26.058 57.716, 26.022 59.750 C 26.010 60.438, 27.012 60.992, 28.250 60.983 C 30.025 60.969, 31.028 59.755, 33 55.233 C 34.375 52.080, 35.506 48.969, 35.513 48.321 C 35.520 47.672, 35.929 46.772, 36.423 46.321 C 36.946 45.843, 36.981 46.086, 36.506 46.905 C 35.953 47.857, 36.068 48.076, 36.862 47.585 C 37.506 47.187, 37.743 46.393, 37.388 45.819 C 37.034 45.246, 37.309 44.427, 38 44 C 39.301 43.196, 38.561 41, 36.989 41 C 36.498 41, 34.702 43.027, 32.998 45.504 M 49 47.374 C 49 47.715, 55.750 65.321, 64 86.500 C 72.250 107.679, 79 125.455, 79 126.003 C 79 127.756, 80.442 127.017, 82.482 124.219 C 83.573 122.723, 93.135 110.763, 103.732 97.640 C 114.330 84.517, 122.967 73.492, 122.926 73.140 C 122.885 72.788, 119.374 69.501, 115.124 65.836 L 107.397 59.171 85.448 55.014 C 73.377 52.727, 60.800 50.382, 57.500 49.802 C 54.200 49.222, 50.938 48.300, 50.250 47.752 C 49.563 47.204, 49 47.034, 49 47.374 M 60 53.908 C 60 54.429, 65.796 59.806, 72.879 65.859 L 85.758 76.863 94.330 69.683 C 99.045 65.733, 102.560 62.160, 102.142 61.742 C 101.723 61.323, 93.083 59.414, 82.941 57.498 C 72.798 55.583, 63.487 53.779, 62.250 53.489 C 61.013 53.199, 60 53.388, 60 53.908 M 57.367 58.500 C 61.993 70.971, 79.411 114.922, 79.638 114.695 C 79.947 114.387, 84 82.548, 84 80.435 C 84 79.488, 67.305 64.762, 58.563 57.999 C 56.773 56.614, 56.682 56.652, 57.367 58.500 M 99.500 69.219 C 91.717 76.003, 89.654 78.539, 92.644 77.650 C 94.651 77.053, 115.675 73, 116.763 73 C 117.127 73, 115.209 70.750, 112.500 68 C 109.791 65.250, 107.333 63.026, 107.038 63.059 C 106.742 63.091, 103.350 65.863, 99.500 69.219 M 101.019 78.667 C 94.155 80.020, 88.399 81.267, 88.228 81.438 C 87.681 81.985, 83.891 114.174, 84.248 115.244 C 84.437 115.810, 85.332 115.142, 86.239 113.759 C 89.021 109.513, 114.165 78.521, 115.117 78.165 C 116.113 77.791, 115.281 75.940, 114.191 76.103 C 113.811 76.160, 107.884 77.313, 101.019 78.667 M 29.267 102.357 L 27.094 103.520 30.033 108.893 C 31.649 111.849, 34.434 116.172, 36.222 118.501 C 39.351 122.577, 39.555 122.675, 41.639 121.118 L 43.806 119.500 40.555 115.500 C 38.767 113.300, 35.984 109.181, 34.372 106.347 C 31.680 101.615, 31.262 101.289, 29.267 102.357 M 45.924 123.364 C 47.258 124.814, 48.775 126, 49.297 126 C 50.639 126, 48.069 123.101, 45.582 121.810 C 43.724 120.845, 43.761 121.012, 45.924 123.364 M 105.753 130.424 C 100.540 133.312, 100.704 135.702, 105.932 133.035 C 108.095 131.931, 110.127 130.603, 110.448 130.083 C 111.596 128.226, 109.439 128.383, 105.753 130.424 M 91.813 132.683 C 92.534 132.972, 93.397 132.936, 93.729 132.604 C 94.061 132.272, 93.471 132.036, 92.417 132.079 C 91.252 132.127, 91.015 132.364, 91.813 132.683 M 83.750 133.662 C 84.438 133.940, 85.563 133.940, 86.250 133.662 C 86.938 133.385, 86.375 133.158, 85 133.158 C 83.625 133.158, 83.063 133.385, 83.750 133.662 M 69.459 137.067 C 68.551 138.536, 68.796 138.640, 74.750 139.313 C 78.735 139.763, 80 139.587, 80 138.584 C 80 137.833, 78.380 136.994, 76.250 136.642 C 71.078 135.787, 70.216 135.841, 69.459 137.067" stroke="none" fill="black" fill-rule="evenodd"/>
	<path fill-opacity="0.406" d="M 71 4.933 C 63.784 5.936, 54 8.820, 54 9.945 C 54 10.434, 54.900 12.934, 56 15.500 C 57.100 18.066, 58 21.077, 58 22.190 C 58 23.731, 58.417 24.039, 59.750 23.478 C 60.712 23.074, 62.513 22.523, 63.750 22.255 C 65.621 21.849, 66 22.195, 66 24.306 C 66 26.301, 65.280 27.083, 62.638 27.954 C 60.789 28.565, 56.633 30.655, 53.403 32.601 L 47.530 36.137 45.850 34.063 C 44.674 32.610, 44.017 32.365, 43.658 33.244 C 43.345 34.012, 40.956 32.085, 37.509 28.285 L 31.871 22.069 26.408 28.192 C 23.403 31.559, 18.832 37.506, 16.251 41.407 C 13.669 45.308, 10.781 49.346, 9.833 50.380 C 7.968 52.414, 4.231 66.564, 5.281 67.614 C 5.633 67.967, 10.092 68.875, 15.189 69.633 C 28.948 71.678, 27.998 70.923, 28.014 79.817 C 28.021 84.043, 28.282 88.451, 28.594 89.612 C 29.028 91.228, 28.613 91.871, 26.831 92.347 C 25.398 92.729, 24.110 92.449, 23.488 91.618 C 22.639 90.486, 21.119 90.483, 14.105 91.599 C 9.502 92.332, 5.511 93.155, 5.237 93.429 C 4.359 94.308, 7.977 106.993, 11.018 113.701 C 12.637 117.271, 15.955 122.962, 18.391 126.346 C 22.704 132.338, 32.679 142.821, 33.228 141.940 C 33.379 141.698, 35.388 138.746, 37.693 135.381 L 41.884 129.262 36.972 124.165 C 34.270 121.362, 30.471 115.914, 28.530 112.059 C 24.410 103.879, 23.913 101.655, 27.566 107.750 C 30.811 113.164, 31.686 113.264, 28.954 107.909 C 26.946 103.973, 26.935 103.766, 28.683 102.441 C 29.682 101.683, 30.811 101.049, 31.191 101.032 C 31.572 101.014, 33.296 103.651, 35.022 106.890 C 36.749 110.130, 39.586 114.068, 41.327 115.640 C 43.904 117.968, 44.093 118.035, 42.342 116 C 38.626 111.680, 33.812 102.699, 33.517 99.536 C 33.361 97.866, 32.673 93.398, 31.989 89.607 C 29.637 76.576, 32.867 62.776, 40.966 51.242 C 58.664 26.042, 93.543 22.901, 115.495 44.532 C 127.673 56.532, 133.527 75.408, 129.906 91 C 129.331 93.475, 128.662 97.021, 128.420 98.879 C 127.714 104.289, 124.623 110.059, 118.978 116.500 L 113.721 122.500 119.166 117 C 122.161 113.975, 125.543 109.925, 126.682 108 C 128.776 104.460, 132.317 94.216, 133.510 88.250 C 133.867 86.463, 134.778 85, 135.534 85 C 136.318 85, 137.121 83.603, 137.402 81.750 C 138.159 76.746, 137.813 75, 136.062 75 C 133.698 75, 129.661 58.112, 131.546 56.108 C 132.647 54.938, 133.107 55.320, 134.440 58.510 C 135.312 60.597, 136.309 64.083, 136.657 66.257 C 137.280 70.149, 137.344 70.201, 140.895 69.653 C 142.878 69.346, 146.863 68.791, 149.750 68.419 C 153.408 67.948, 155 67.294, 155 66.266 C 155 63.878, 151.902 52.598, 150.919 51.408 C 150.423 50.807, 150.313 50.020, 150.675 49.658 C 151.037 49.296, 150.822 49, 150.197 49 C 149.572 49, 146.714 45.513, 143.845 41.250 C 140.976 36.987, 136.239 30.986, 133.318 27.913 C 130.397 24.840, 128.305 22.028, 128.670 21.663 C 129.035 21.298, 129.074 21, 128.758 21 C 128.441 21, 125.867 23.947, 123.036 27.549 L 117.889 34.098 123.008 39.700 C 127.560 44.680, 127.961 45.467, 126.627 46.802 C 125.292 48.137, 124.814 47.927, 122.313 44.910 C 118.892 40.784, 115.555 37.571, 111.259 34.268 C 108.780 32.362, 108.151 31.247, 108.583 29.526 C 109.062 27.618, 108.510 27.021, 104.949 25.596 C 101.033 24.029, 100.626 24.028, 98.912 25.579 C 97.748 26.633, 96.420 26.971, 95.287 26.502 C 94.304 26.095, 89.675 25.477, 85 25.131 C 77.170 24.550, 76.475 24.323, 76.180 22.250 C 75.878 20.119, 76.198 20, 82.213 20 C 85.706 20, 91.024 20.638, 94.031 21.418 C 97.037 22.198, 99.690 22.644, 99.925 22.408 C 100.160 22.173, 101.332 18.893, 102.528 15.118 L 104.704 8.256 98.102 6.701 C 89.671 4.714, 78.038 3.956, 71 4.933 M 33.336 44.752 C 27.364 53.713, 24.486 61, 26.918 61 C 27.423 61, 28.454 61.237, 29.208 61.526 C 30.090 61.865, 31.007 60.869, 31.779 58.736 C 32.438 56.911, 34.543 52.820, 36.456 49.643 C 39.404 44.747, 39.750 43.573, 38.726 41.934 C 38.062 40.870, 37.290 40.001, 37.009 40.002 C 36.729 40.003, 35.076 42.140, 33.336 44.752 M 54.382 61.250 C 57.244 68.537, 64.067 86.078, 69.543 100.228 C 75.019 114.379, 79.835 125.854, 80.245 125.728 C 80.655 125.603, 90.422 113.807, 101.950 99.515 C 115.799 82.346, 122.502 73.291, 121.705 72.828 C 121.042 72.442, 117.824 69.578, 114.554 66.464 C 111.284 63.349, 107.557 60.402, 106.272 59.913 C 103.906 59.014, 65.492 51.665, 56.738 50.437 C 54.118 50.070, 51.729 49.371, 51.429 48.885 C 51.128 48.398, 50.498 48, 50.030 48 C 49.561 48, 51.519 53.962, 54.382 61.250 M 59 53.961 C 59 55.139, 84.692 77, 86.077 77 C 87.858 77, 103.829 62.523, 103.007 61.653 C 102.373 60.982, 62.684 53.053, 59.750 53.011 C 59.337 53.005, 59 53.432, 59 53.961 M 56 57.362 C 56 58.112, 57.384 62.049, 59.075 66.112 C 60.765 70.176, 63.434 76.875, 65.005 81 C 66.576 85.125, 70.138 94.350, 72.920 101.500 C 75.702 108.650, 77.983 115.063, 77.989 115.750 C 77.995 116.438, 78.723 117, 79.607 117 C 80.549 117, 80.999 116.439, 80.694 115.644 C 80.407 114.898, 81.018 107.811, 82.050 99.894 C 84.611 80.262, 84.576 79.239, 81.263 76.644 C 79.758 75.465, 73.687 70.338, 67.771 65.250 C 61.855 60.163, 56.787 56, 56.508 56 C 56.228 56, 56 56.613, 56 57.362 M 98.222 70.174 C 93.670 74.081, 90.148 77.481, 90.396 77.730 C 91.086 78.420, 117 73.643, 117 72.826 C 117 72.072, 108.330 63.654, 107.173 63.285 C 106.803 63.167, 102.775 66.267, 98.222 70.174 M 100.622 78.522 C 94.089 79.843, 88.495 81.172, 88.191 81.476 C 87.887 81.780, 86.836 88.435, 85.856 96.264 C 84.876 104.094, 83.812 111.963, 83.492 113.750 C 83.152 115.644, 83.328 117, 83.913 117 C 84.926 117, 116.102 78.894, 116.360 77.339 C 116.617 75.798, 112.597 76.101, 100.622 78.522 M 137.639 88.694 C 137.288 89.046, 137 90.313, 137 91.510 C 137 92.707, 136.100 96.303, 135 99.500 C 132.689 106.216, 132.672 106.321, 133.997 105.502 C 135.174 104.774, 134.027 108.072, 131.140 113.716 C 128.404 119.063, 120.999 128.118, 119.911 127.445 C 117.869 126.183, 120.085 129.967, 127.850 141 C 128.044 141.275, 131.459 138.055, 135.440 133.845 C 143.389 125.438, 149.420 115.006, 152.900 103.645 C 156.300 92.544, 156.274 92.482, 147.250 90.489 C 142.988 89.547, 139.225 88.614, 138.889 88.416 C 138.554 88.217, 137.991 88.342, 137.639 88.694 M 129.487 105.979 C 130.171 107.086, 128.761 110.096, 126.499 112.358 C 125.649 113.208, 125.397 114.128, 125.925 114.454 C 126.442 114.773, 127.995 113.142, 129.375 110.828 C 131.804 106.753, 131.957 105, 129.882 105 C 129.332 105, 129.154 105.441, 129.487 105.979 M 41 122.464 C 41 123.981, 48.012 129.321, 48.874 128.460 C 49.315 128.018, 42.259 121, 41.374 121 C 41.168 121, 41 121.659, 41 122.464 M 105.760 131.294 C 100.433 134.436, 101.090 135.368, 106.500 132.344 C 110.773 129.956, 111.921 128.946, 110.250 129.044 C 109.838 129.069, 107.817 130.081, 105.760 131.294 M 69.415 137.136 C 69.199 137.486, 70.030 138.043, 71.261 138.373 C 74.661 139.284, 80 139.115, 80 138.097 C 80 137.068, 70.017 136.162, 69.415 137.136 M 101.612 139.180 C 94.847 143.026, 76.197 144.359, 66.279 141.705 L 61.057 140.308 58.399 147.265 C 55.344 155.259, 55.317 155.212, 64 157.218 C 75.745 159.932, 96.043 158.373, 107.157 153.903 L 109.814 152.835 107.560 147.667 C 106.321 144.825, 104.900 141.512, 104.403 140.304 C 103.660 138.495, 103.166 138.297, 101.612 139.180" stroke="none" fill="black" fill-rule="evenodd"/>
	<path fill-opacity="0.266" d="M 101.522 13.935 C 100.596 16.721, 99.538 18.984, 99.170 18.964 C 98.801 18.945, 95.800 18.277, 92.500 17.480 C 83.178 15.229, 73.399 15.736, 60.168 19.156 C 59.381 19.359, 58.153 17.794, 57.168 15.333 C 54.421 8.471, 53.750 9.095, 56.390 16.056 C 58.815 22.450, 58.861 22.498, 62.417 22.207 C 65.359 21.966, 66 22.249, 66 23.790 C 66 26.593, 66.628 26.808, 71.534 25.685 C 75.539 24.769, 75.994 24.380, 75.761 22.079 L 75.500 19.500 83 19.721 C 87.125 19.843, 92.608 20.578, 95.185 21.354 L 99.870 22.765 101.885 16.165 C 104.258 8.388, 103.964 6.581, 101.522 13.935 M 69.750 20.716 C 68.237 20.945, 67 21.747, 67 22.497 C 67 23.559, 67.716 23.655, 70.243 22.930 C 72.027 22.419, 73.602 22, 73.743 22 C 73.885 22, 74 21.550, 74 21 C 74 20.450, 73.662 20.067, 73.250 20.150 C 72.838 20.232, 71.263 20.487, 69.750 20.716 M 125.201 25.412 C 123.961 27.221, 121.852 29.730, 120.515 30.986 L 118.082 33.271 122.308 38.102 C 124.632 40.759, 127.876 45.535, 129.517 48.716 C 131.158 51.897, 132.791 54.725, 133.147 55 C 133.504 55.275, 134.795 58.798, 136.019 62.828 C 138.015 69.409, 138.464 70.100, 140.413 69.611 C 141.607 69.312, 145.165 68.763, 148.320 68.392 C 151.475 68.021, 154.246 67.411, 154.477 67.037 C 154.709 66.662, 151.327 66.873, 146.962 67.505 C 139.492 68.588, 138.990 68.544, 138.421 66.753 C 138.089 65.706, 138.048 64.619, 138.329 64.338 C 139.211 63.455, 135.945 53.756, 132.704 47.635 C 130.996 44.409, 127.672 39.627, 125.316 37.007 L 121.034 32.244 124.615 27.553 C 126.585 24.974, 128.030 22.696, 127.826 22.492 C 127.622 22.289, 126.441 23.602, 125.201 25.412 M 35.414 27.266 L 39.160 32.032 35.197 36.766 C 27.929 45.450, 22.424 57.727, 21.742 66.772 C 21.547 69.364, 21.920 69.316, 12.864 67.911 C 9.003 67.312, 5.644 67.023, 5.398 67.268 C 5.153 67.514, 9.958 68.484, 16.077 69.423 C 22.196 70.362, 27.297 70.989, 27.414 70.816 C 27.530 70.642, 28.146 68.718, 28.783 66.541 C 29.681 63.471, 29.667 62.407, 28.721 61.806 C 26.881 60.637, 25.447 60.847, 26.701 62.101 C 27.396 62.796, 27.503 64.245, 26.993 66.026 C 26.547 67.579, 26.442 69.108, 26.758 69.425 C 27.074 69.741, 26.310 70, 25.060 70 C 23.500 70, 22.958 69.551, 23.334 68.571 C 23.636 67.785, 24.181 65.423, 24.544 63.321 C 25.655 56.910, 31.865 45.456, 37.352 39.700 L 42.533 34.265 37.100 28.382 C 32.491 23.392, 32.235 23.222, 35.414 27.266 M 99.404 26.156 C 99.072 26.693, 98.957 27.247, 99.150 27.386 C 102.958 30.135, 106.950 31.650, 107.895 30.705 C 109.612 28.988, 109.251 28.347, 105.750 26.895 C 101.491 25.128, 100.136 24.970, 99.404 26.156 M 75 27.661 C 61.045 29.367, 44.897 39.494, 38.369 50.633 C 36.941 53.069, 35.341 54.711, 34.750 54.346 C 34.124 53.958, 33.986 54.168, 34.413 54.858 C 34.809 55.501, 34.204 58.512, 33.067 61.550 C 31.930 64.589, 31.052 68.521, 31.116 70.288 C 31.186 72.238, 31.401 72.715, 31.663 71.500 C 33.690 62.081, 38.883 52.077, 45.355 45.119 C 50.094 40.023, 59.578 34.211, 66.783 31.985 C 91.906 24.226, 120.086 38.995, 128.194 64.172 C 130.044 69.915, 130.558 70.724, 131.220 68.934 C 132.129 66.478, 130.348 58.667, 129.060 59.463 C 128.594 59.751, 127.952 58.944, 127.632 57.670 C 127.312 56.396, 125.907 53.668, 124.509 51.608 C 123.111 49.548, 122.272 47.331, 122.644 46.681 C 123.016 46.032, 122.959 45.827, 122.518 46.226 C 122.076 46.625, 119.044 44.479, 115.779 41.456 C 109.483 35.627, 104.823 32.864, 96.407 29.968 C 90.848 28.055, 80.708 26.962, 75 27.661 M 44.419 33.801 C 45.179 35.099, 40.879 40, 38.980 40 C 38.475 40, 38.322 40.675, 38.638 41.500 C 39.433 43.569, 39.965 43.390, 44.244 39.608 L 47.988 36.299 45.822 34.399 C 44.631 33.355, 43.999 33.086, 44.419 33.801 M 117.500 41 C 118.495 42.100, 119.535 43, 119.810 43 C 120.085 43, 119.495 42.100, 118.500 41 C 117.505 39.900, 116.465 39, 116.190 39 C 115.915 39, 116.505 39.900, 117.500 41 M 125.709 47.625 C 125.365 47.968, 126.077 50.106, 127.292 52.375 C 128.506 54.644, 129.583 56.658, 129.683 56.850 C 129.784 57.043, 130.332 56.913, 130.901 56.561 C 131.564 56.151, 131.157 54.319, 129.769 51.461 C 127.630 47.058, 126.933 46.400, 125.709 47.625 M 50.035 49.550 C 50.055 50.072, 50.749 51.625, 51.577 53 L 53.083 55.500 52.429 53 C 51.747 50.392, 49.971 47.833, 50.035 49.550 M 58.001 51.642 C 58.002 52.114, 67.790 54.245, 79.751 56.379 C 91.713 58.512, 102.175 60.491, 103 60.776 C 104.019 61.128, 104.179 60.961, 103.500 60.255 C 102.950 59.683, 93.500 57.554, 82.500 55.523 C 71.500 53.492, 61.487 51.594, 60.250 51.307 C 59.013 51.019, 58.001 51.169, 58.001 51.642 M 55.500 55 C 55.160 55.550, 55.399 56, 56.032 56 C 56.664 56, 62.653 60.615, 69.341 66.257 C 84.497 79.041, 84.945 79.389, 85.517 78.817 C 85.972 78.361, 57.597 54, 56.611 54 C 56.340 54, 55.840 54.450, 55.500 55 M 55 61.366 C 55 62.699, 61.200 78.134, 61.582 77.751 C 61.793 77.540, 60.595 73.805, 58.919 69.452 C 56.014 61.910, 55 59.817, 55 61.366 M 101 65.645 C 97.975 68.176, 94.206 71.335, 92.624 72.664 C 91.043 73.994, 89.989 75.322, 90.282 75.615 C 90.575 75.908, 91.869 75.256, 93.157 74.165 C 104.348 64.692, 106.519 63, 107.487 63 C 108.096 63, 110.352 64.800, 112.500 67 C 114.648 69.200, 116.860 71, 117.415 71 C 117.971 71, 116.209 68.750, 113.500 66 C 110.791 63.250, 108.108 61.010, 107.538 61.022 C 106.967 61.033, 104.025 63.114, 101 65.645 M 130.079 66.583 C 130.127 67.748, 130.364 67.985, 130.683 67.188 C 130.972 66.466, 130.936 65.603, 130.604 65.271 C 130.272 64.939, 130.036 65.529, 130.079 66.583 M 132.195 71.500 C 132.215 73.150, 132.439 73.704, 132.693 72.731 C 132.947 71.758, 132.930 70.408, 132.656 69.731 C 132.382 69.054, 132.175 69.850, 132.195 71.500 M 28.607 73.582 C 27.833 75.598, 28.026 84.585, 28.927 88.500 C 29.330 90.248, 29.593 87.433, 29.559 81.752 C 29.526 76.391, 29.436 72.003, 29.357 72.002 C 29.278 72.001, 28.941 72.712, 28.607 73.582 M 114.235 81.750 C 93.023 107.749, 82.732 120.633, 82.286 121.750 C 82.011 122.438, 81.122 123, 80.310 123 C 79.498 123, 78.995 123.484, 79.192 124.075 C 79.389 124.666, 79.893 125.130, 80.312 125.105 C 81.379 125.041, 123.219 73, 122.203 73 C 121.747 73, 118.162 76.938, 114.235 81.750 M 101 76.755 C 93.575 78.137, 87.313 79.433, 87.083 79.634 C 85.513 81.013, 89.282 80.683, 99.976 78.505 C 106.740 77.127, 113.338 76, 114.638 76 C 115.937 76, 117 75.550, 117 75 C 117 73.754, 117.284 73.723, 101 76.755 M 134.800 76.200 C 136.389 77.789, 136.430 84.384, 134.845 83.405 C 134.130 82.962, 133.962 83.130, 134.405 83.845 C 135.944 86.336, 137 84.771, 137 80 C 137 75.961, 136.673 75, 135.300 75 C 133.978 75, 133.867 75.267, 134.800 76.200 M 62.609 81 C 62.945 82.375, 64.066 85.300, 65.098 87.500 C 66.130 89.700, 66.690 90.377, 66.342 89.004 C 65.994 87.631, 64.874 84.706, 63.853 82.504 C 62.832 80.302, 62.272 79.625, 62.609 81 M 131.636 89.636 C 131.283 92.216, 131.186 94.520, 131.422 94.755 C 131.657 94.991, 132.163 93.096, 132.545 90.545 C 132.928 87.995, 133.025 85.691, 132.760 85.427 C 132.496 85.162, 131.990 87.057, 131.636 89.636 M 137.399 91.547 C 137.047 92.947, 137.039 94.372, 137.380 94.713 C 137.721 95.054, 138 94.381, 138 93.216 C 138 92.052, 138.787 90.641, 139.750 90.080 C 141.397 89.121, 141.398 89.059, 139.769 89.030 C 138.735 89.012, 137.781 90.025, 137.399 91.547 M 13.750 91.837 C 8.937 92.689, 5 93.797, 5 94.300 C 5 94.803, 5.763 94.921, 6.696 94.563 C 7.628 94.205, 11.678 93.402, 15.696 92.777 C 19.713 92.152, 23 91.272, 23 90.821 C 23 90.369, 22.887 90.065, 22.750 90.144 C 22.613 90.223, 18.563 90.985, 13.750 91.837 M 142.500 90.441 C 145.182 91.677, 155 93.715, 155 93.036 C 155 92.610, 153.537 92.007, 151.750 91.695 C 143.893 90.326, 141.565 90.010, 142.500 90.441 M 25.500 93 C 23.870 93.701, 23.812 93.872, 25.191 93.930 C 26.121 93.968, 27.160 93.550, 27.500 93 C 28.211 91.850, 28.176 91.850, 25.500 93 M 67.031 92.500 C 67.031 93.050, 67.467 94.175, 68 95 C 68.533 95.825, 68.969 96.050, 68.969 95.500 C 68.969 94.950, 68.533 93.825, 68 93 C 67.467 92.175, 67.031 91.950, 67.031 92.500 M 151.544 100.250 C 147.112 112.816, 140.519 123.966, 132.307 132.783 L 127.386 138.065 124.131 133.533 C 119.288 126.789, 119.336 128.049, 124.193 135.165 L 128.401 141.330 135.083 134.197 C 142.794 125.965, 150.332 112.374, 153.052 101.797 C 155.122 93.749, 154.178 92.781, 151.544 100.250 M 6 96.547 C 6 96.912, 6.707 99.940, 7.571 103.276 C 10.486 114.523, 19.096 128.919, 28.181 137.735 L 32.545 141.970 37.307 135.235 L 42.069 128.500 37.724 133.347 L 33.379 138.194 26.226 130.535 C 20.643 124.557, 17.859 120.406, 13.537 111.618 C 10.492 105.426, 8 99.631, 8 98.739 C 8 97.848, 7.550 96.840, 7 96.500 C 6.450 96.160, 6 96.181, 6 96.547 M 130.079 97.583 C 130.127 98.748, 130.364 98.985, 130.683 98.188 C 130.972 97.466, 130.936 96.603, 130.604 96.271 C 130.272 95.939, 130.036 96.529, 130.079 97.583 M 69.031 97.500 C 69.031 98.050, 69.467 99.175, 70 100 C 70.533 100.825, 70.969 101.050, 70.969 100.500 C 70.969 99.950, 70.533 98.825, 70 98 C 69.467 97.175, 69.031 96.950, 69.031 97.500 M 33 102.642 C 33 103.179, 33.700 104.491, 34.555 105.559 C 36.022 107.389, 36.042 107.357, 34.920 105 C 33.462 101.939, 33 101.372, 33 102.642 M 71.609 104 C 71.945 105.375, 73.066 108.300, 74.098 110.500 C 75.130 112.700, 75.690 113.377, 75.342 112.004 C 74.994 110.631, 73.874 107.706, 72.853 105.504 C 71.832 103.302, 71.272 102.625, 71.609 104 M 76.031 115.500 C 76.031 116.050, 76.467 117.175, 77 118 C 77.533 118.825, 77.969 119.050, 77.969 118.500 C 77.969 117.950, 77.533 116.825, 77 116 C 76.467 115.175, 76.031 114.950, 76.031 115.500 M 44.417 125.405 C 46.571 127.382, 48.596 128.713, 48.917 128.363 C 49.237 128.013, 48.921 127.520, 48.213 127.267 C 47.505 127.015, 45.480 125.684, 43.713 124.310 C 41.616 122.679, 41.861 123.059, 44.417 125.405 M 105 132 C 103.075 133.054, 101.860 133.935, 102.300 133.958 C 103.359 134.014, 109 131.081, 109 130.474 C 109 129.820, 108.941 129.842, 105 132 M 76.269 138.693 C 77.242 138.947, 78.592 138.930, 79.269 138.656 C 79.946 138.382, 79.150 138.175, 77.500 138.195 C 75.850 138.215, 75.296 138.439, 76.269 138.693 M 103.031 139.500 C 103.031 140.050, 103.467 141.175, 104 142 C 104.533 142.825, 104.969 143.050, 104.969 142.500 C 104.969 141.950, 104.533 140.825, 104 140 C 103.467 139.175, 103.031 138.950, 103.031 139.500 M 60.564 142.107 C 60.298 142.873, 59.173 145.948, 58.064 148.940 C 56.955 151.933, 56.168 154.501, 56.316 154.649 C 56.463 154.796, 59.070 155.565, 62.108 156.356 C 70.690 158.591, 81.745 159.273, 89.500 158.045 C 97.144 156.835, 109.044 153.235, 108.926 152.168 C 108.885 151.801, 107.986 149.700, 106.928 147.500 C 105.344 144.206, 105.173 145.559, 106.669 149.554 C 106.892 150.151, 103.155 151.616, 98.064 152.929 C 90.291 154.933, 87.460 155.177, 77.283 154.725 C 70.802 154.436, 63.826 153.688, 61.780 153.062 L 58.060 151.922 60.067 146.831 C 61.170 144.031, 61.842 141.509, 61.560 141.227 C 61.278 140.945, 60.829 141.341, 60.564 142.107" stroke="none" fill="black" fill-rule="evenodd"/>
</svg>