<svg xmlns="http://www.w3.org/2000/svg" width="100" height="100" viewBox="0 0 100 100" version="1.1">
	<path fill-opacity="0.259" d="M 37.024 6.603 C 15.715 12.329, 0.958 35.773, 4.873 57.680 C 7.124 70.272, 14.168 81.276, 24.318 88.053 C 52.142 106.634, 89.214 90.767, 95.114 57.752 C 99.093 35.483, 84.291 12.216, 62.540 6.552 C 55.172 4.633, 44.273 4.655, 37.024 6.603 M 27.985 30.250 C 22.299 33.132, 20.241 36.829, 18.793 46.765 C 17.494 55.681, 18.310 58.191, 23.647 61.689 C 27.208 64.022, 35.611 63.749, 40.736 61.135 C 44.605 59.161, 44.727 58.935, 45.659 52.055 L 46.614 45 39.923 45 C 33.581 45, 33.208 45.130, 32.755 47.500 C 32.336 49.696, 32.626 50, 35.139 50 C 37.606 50, 38 50.386, 38 52.800 C 38 56.465, 36.338 58, 32.371 58 C 27.025 58, 25.651 55.705, 26.307 47.875 C 26.617 44.176, 27.583 39.773, 28.454 38.090 C 30.935 33.291, 37.608 32.485, 39.487 36.756 C 40.863 39.883, 47 40.029, 47 36.934 C 47 33.558, 45.054 30.920, 41.452 29.415 C 36.692 27.427, 33.118 27.648, 27.985 30.250 M 61.401 29.905 C 56.220 32.258, 53.250 36.408, 51.989 43.056 C 50.165 52.678, 50.623 55.823, 54.400 59.600 C 57.476 62.676, 58.347 63, 63.532 63 C 74.116 63, 79.411 57.190, 80.613 44.259 C 81.394 35.856, 79.620 31.575, 74.466 29.421 C 69.933 27.527, 66.345 27.660, 61.401 29.905 M 63.299 35.503 C 60.872 37.203, 59.438 41.128, 58.487 48.668 C 57.929 53.090, 58.135 54.135, 59.918 55.918 C 63.974 59.974, 69.945 57.728, 72.048 51.354 C 73.746 46.211, 73.789 37.664, 72.128 35.658 C 70.417 33.592, 66.134 33.517, 63.299 35.503" stroke="none" fill="black" fill-rule="evenodd"/>
	<path fill-opacity="0.471" d="M 32.657 8.450 C 25.500 11.393, 25.326 11.559, 27.127 13.744 C 28.441 15.338, 27.952 16.110, 21.810 22.131 C 16.296 27.536, 14.835 28.506, 13.901 27.381 C 12.047 25.147, 11.413 25.688, 8.637 31.875 C 5.422 39.039, 5.376 40, 8.250 40 C 10.433 40, 10.500 40.296, 10.500 50 C 10.500 59.840, 10.462 60, 8.142 60 C 6.070 60, 5.866 60.335, 6.465 62.750 C 7.565 67.186, 10.809 74, 11.821 74 C 12.335 74, 13.312 73.329, 13.993 72.508 C 15.056 71.228, 15.650 71.547, 18.184 74.758 C 19.807 76.816, 22.894 79.903, 25.042 81.618 C 28.801 84.618, 28.879 84.800, 27.100 86.410 C 25.348 87.995, 24.944 87.808, 19.376 82.848 L 13.500 77.614 18 82.366 C 22.894 87.534, 34.165 93.660, 40 94.323 C 41.925 94.542, 42.712 94.527, 41.750 94.291 C 40.750 94.045, 40 92.926, 39.999 91.680 C 39.998 89.585, 40.389 89.500, 49.997 89.500 C 59.605 89.500, 59.997 89.585, 59.998 91.680 C 59.999 92.928, 59.251 94.045, 58.250 94.291 C 57.288 94.527, 58.075 94.542, 60 94.323 C 65.835 93.660, 77.106 87.534, 82 82.366 L 86.500 77.614 80.624 82.848 C 75.078 87.789, 74.646 87.990, 72.918 86.426 C 71.164 84.839, 71.264 84.621, 75.294 81.261 C 77.607 79.331, 80.586 76.230, 81.914 74.370 C 84.160 71.223, 84.452 71.099, 86.101 72.592 C 88.516 74.777, 89.524 73.888, 91.935 67.443 C 94.525 60.523, 94.512 60, 91.750 60 C 89.567 60, 89.500 59.704, 89.500 50 C 89.500 40.296, 89.567 40, 91.750 40 C 94.624 40, 94.578 39.039, 91.363 31.875 C 88.587 25.688, 87.953 25.147, 86.099 27.381 C 85.165 28.506, 83.704 27.536, 78.190 22.131 C 72.383 16.439, 71.608 15.277, 72.713 13.921 C 74.589 11.620, 74.456 11.439, 69.250 9.238 C 60.789 5.660, 60 5.570, 60 8.183 C 60 10.451, 59.790 10.500, 50 10.500 C 40.296 10.500, 40 10.433, 40 8.250 C 40 5.482, 39.867 5.485, 32.657 8.450 M 28.379 29.381 C 22.985 31.824, 20.105 36.764, 18.782 45.839 C 17.759 52.863, 17.815 54.390, 19.210 57.313 C 22.384 63.969, 33.304 65.927, 41.279 61.269 C 44.474 59.403, 45.211 57.746, 46.413 49.730 L 47.123 45 40.168 45 C 34.749 45, 33.080 45.349, 32.607 46.582 C 31.526 49.399, 31.947 50, 35 50 C 37.510 50, 38 50.397, 38 52.429 C 38 57.476, 32.699 59.579, 28.099 56.357 C 25.912 54.825, 25.798 54.274, 26.418 48.228 C 27.165 40.936, 29.024 36.593, 32.103 34.945 C 35.037 33.375, 39 34.567, 39 37.019 C 39 38.663, 39.679 39, 43 39 C 46.723 39, 47 38.804, 47 36.174 C 47 29.787, 36.190 25.843, 28.379 29.381 M 62 29.066 C 55.058 31.977, 51 40.097, 51 51.076 C 51 55.966, 51.407 57.224, 53.829 59.817 C 61.288 67.802, 76.728 62.847, 79.891 51.453 C 80.495 49.279, 80.991 44.695, 80.994 41.266 C 80.999 35.830, 80.637 34.626, 78.168 31.862 C 75.761 29.168, 74.523 28.642, 69.918 28.355 C 66.938 28.170, 63.375 28.490, 62 29.066 M 63.503 36.250 C 60.702 38.666, 59.062 43.949, 59.024 50.679 C 59 54.929, 60.887 58, 63.524 58 C 69.181 58, 73 51.774, 73 42.551 C 73 34.271, 68.929 31.570, 63.503 36.250 M 47.750 95.706 C 48.987 95.944, 51.013 95.944, 52.250 95.706 C 53.487 95.467, 52.475 95.272, 50 95.272 C 47.525 95.272, 46.513 95.467, 47.750 95.706" stroke="none" fill="black" fill-rule="evenodd"/>
	<path fill-opacity="0.440" d="M 33.657 8.469 C 26.478 11.397, 26.219 11.647, 28.250 13.679 C 29.759 15.187, 29.542 15.569, 25.381 18.747 C 22.905 20.637, 19.608 23.938, 18.055 26.083 C 15.637 29.421, 15.052 29.768, 13.993 28.491 C 13.312 27.671, 12.444 27, 12.063 27 C 11.250 27, 8.105 33.300, 6.946 37.250 C 6.241 39.656, 6.413 40, 8.320 40 C 10.415 40, 10.500 40.391, 10.500 50 C 10.500 59.790, 10.451 60, 8.183 60 C 5.603 60, 5.682 60.745, 9.109 68.750 C 10.998 73.160, 11.850 73.750, 13.683 71.917 C 14.460 71.140, 16.794 72.863, 21.948 78.017 C 28.641 84.710, 29.021 85.319, 27.534 86.963 C 26.041 88.612, 26.249 88.859, 30.719 90.749 C 39.213 94.341, 40 94.432, 40 91.817 C 40 89.549, 40.210 89.500, 50 89.500 C 59.790 89.500, 60 89.549, 60 91.817 C 60 94.432, 60.787 94.341, 69.281 90.749 C 73.751 88.859, 73.959 88.612, 72.466 86.963 C 70.979 85.319, 71.359 84.710, 78.052 78.017 C 83.206 72.863, 85.540 71.140, 86.317 71.917 C 88.150 73.750, 89.002 73.160, 90.891 68.750 C 94.318 60.745, 94.397 60, 91.817 60 C 89.549 60, 89.500 59.790, 89.500 50 C 89.500 40.391, 89.585 40, 91.680 40 C 93.587 40, 93.759 39.656, 93.054 37.250 C 91.895 33.300, 88.750 27, 87.937 27 C 87.556 27, 86.688 27.671, 86.007 28.491 C 84.948 29.768, 84.363 29.421, 81.945 26.083 C 80.392 23.938, 77.095 20.637, 74.619 18.747 C 70.458 15.569, 70.241 15.187, 71.750 13.679 C 73.781 11.647, 73.522 11.397, 66.343 8.469 L 60.500 6.085 60.207 8.293 C 59.928 10.399, 59.462 10.501, 50.002 10.522 C 40.496 10.543, 40.077 10.453, 39.794 8.315 L 39.500 6.085 33.657 8.469 M 26.990 30.250 C 20.452 34.700, 18.139 40.254, 18.044 51.734 C 18.007 56.111, 18.467 57.491, 20.851 60.160 C 23.339 62.943, 24.481 63.407, 29.796 63.792 C 34.625 64.141, 36.815 63.784, 40.355 62.070 C 45.533 59.563, 45.574 59.487, 46.523 50.628 L 47.243 43.907 39.871 44.204 L 32.500 44.500 32.500 47.500 C 32.500 49.850, 32.988 50.569, 34.750 50.820 C 36.499 51.068, 37 51.792, 37 54.070 C 37 56.878, 36.812 57, 32.479 57 C 28.685 57, 27.782 56.616, 26.871 54.616 C 25.398 51.383, 27.378 42.291, 30.212 39.274 C 33.180 36.115, 37.691 36.228, 39.182 39.500 C 40.058 41.422, 41.074 42, 43.581 42 C 46.372 42, 46.934 41.579, 47.484 39.073 C 48.230 35.677, 45.992 30.601, 43.055 29.030 C 39.477 27.115, 30.606 27.789, 26.990 30.250 M 60.097 30.082 C 53.455 34.131, 50.749 40.120, 50.600 51.099 C 50.527 56.423, 50.821 57.282, 53.691 60.153 C 56.298 62.760, 57.846 63.406, 62.388 63.782 C 67.040 64.168, 68.617 63.828, 72.361 61.634 C 78.533 58.017, 81.218 52.274, 81.379 42.348 C 81.499 34.920, 81.470 34.833, 77.765 31.430 C 74.496 28.429, 73.371 28, 68.765 28.004 C 65.202 28.006, 62.400 28.678, 60.097 30.082 M 62.543 39.366 C 59.844 42.066, 58.006 52.200, 59.722 54.922 C 61.389 57.564, 67.928 56.984, 70.122 54 C 72.507 50.757, 73.747 40.605, 72.013 38.516 C 70.106 36.218, 65.256 36.653, 62.543 39.366" stroke="none" fill="black" fill-rule="evenodd"/>
	<path fill-opacity="0.446" d="M 33.280 8.826 C 28.020 10.963, 26.068 12.708, 28.083 13.472 C 30.261 14.298, 39.311 10.488, 39.584 8.630 C 39.881 6.606, 38.650 6.645, 33.280 8.826 M 60.403 8.540 C 60.555 9.575, 62.616 11.006, 65.578 12.134 C 73.369 15.102, 75.829 12.627, 68.240 9.456 C 61.938 6.822, 60.120 6.610, 60.403 8.540 M 42.467 11.461 C 39.149 12.190, 34.350 13.765, 31.804 14.962 C 26.531 17.441, 18.573 25.110, 15.463 30.711 C 8.273 43.662, 9.304 61.550, 17.902 72.993 C 27.744 86.090, 42.466 91.806, 58.011 88.565 C 79.060 84.176, 91.814 65.686, 88.833 43.884 C 87.608 34.929, 83.889 28.061, 76.546 21.191 C 71.577 16.544, 68.750 14.764, 63.828 13.187 C 55.029 10.367, 49.490 9.919, 42.467 11.461 M 11.291 28.238 C 10.174 29.684, 7 37.596, 7 38.932 C 7 40.358, 10.347 39.468, 10.830 37.913 C 11.071 37.136, 12.059 34.828, 13.027 32.784 C 14.427 29.827, 14.529 28.854, 13.526 28.021 C 12.634 27.282, 11.980 27.345, 11.291 28.238 M 30.256 28.117 C 22.109 30.470, 17.592 39.474, 17.672 53.205 C 17.714 60.459, 19.150 63.742, 23.538 66.617 C 27.125 68.967, 36.179 68.590, 40.982 65.890 C 44.509 63.907, 44.814 63.350, 45.872 56.945 C 46.492 53.188, 47 48.719, 47 47.014 L 47 43.912 39.750 44.206 L 32.500 44.500 32.500 49.500 C 32.500 54.060, 32.700 54.493, 34.777 54.418 C 36.030 54.372, 36.893 54.822, 36.694 55.418 C 36.496 56.013, 34.346 56.500, 31.917 56.500 L 27.500 56.500 27.229 51 C 26.842 43.143, 29.480 39, 34.869 39 C 37.967 39, 38.878 39.424, 39.307 41.065 C 39.754 42.775, 40.504 43.076, 43.673 42.815 C 47.370 42.511, 47.510 42.363, 47.798 38.446 C 48.174 33.323, 45.365 29.473, 40.205 28.040 C 35.887 26.841, 34.642 26.851, 30.256 28.117 M 63.791 27.945 C 56.443 30.279, 52.628 35.236, 50.872 44.733 C 49.230 53.617, 50.520 60.720, 54.497 64.697 C 57.387 67.587, 58.450 68, 62.999 68 C 73.214 68, 78.490 63.243, 80.652 52.081 C 83.096 39.461, 81.649 32.023, 76.179 29.096 C 73.316 27.564, 66.875 26.965, 63.791 27.945 M 86.141 28.330 C 85.523 29.075, 85.351 30.017, 85.759 30.425 C 86.166 30.833, 87.219 33.005, 88.098 35.252 C 88.977 37.499, 90.440 39.447, 91.348 39.581 C 93.384 39.879, 93.389 39.498, 91.427 33.740 C 89.536 28.191, 87.763 26.376, 86.141 28.330 M 62.188 41.488 C 59.745 44.594, 58.499 52.196, 59.980 54.962 C 61.155 57.158, 64.892 57.664, 67.929 56.038 C 71.195 54.290, 74.089 43.017, 71.937 40.424 C 69.963 38.046, 64.420 38.651, 62.188 41.488 M 7 60.963 C 7 62.487, 10.041 70.344, 11.146 71.676 C 11.957 72.654, 12.621 72.729, 13.558 71.951 C 14.599 71.088, 14.387 69.876, 12.478 65.755 C 11.173 62.938, 9.406 60.530, 8.552 60.405 C 7.699 60.279, 7 60.531, 7 60.963 M 87.633 65.417 C 86.011 68.930, 85.591 70.890, 86.275 71.762 C 87.748 73.640, 89.579 71.685, 91.427 66.260 C 93.362 60.580, 93.365 60.333, 91.491 60.333 C 90.650 60.333, 88.940 62.588, 87.633 65.417 M 28.049 86.442 C 26.663 88.111, 28.263 89.476, 33.962 91.487 C 39.320 93.377, 39.878 93.373, 39.595 91.448 C 39.470 90.594, 37.062 88.827, 34.245 87.522 C 30.124 85.613, 28.912 85.401, 28.049 86.442 M 64.572 87.973 C 59.876 90.183, 58.581 93.561, 62.825 92.528 C 66.737 91.577, 72.305 88.656, 72.410 87.500 C 72.563 85.800, 68.691 86.034, 64.572 87.973" stroke="none" fill="black" fill-rule="evenodd"/>
</svg>