<?xml version="1.0" encoding="UTF-8"?>
<!DOCTYPE svg PUBLIC "-//W3C//DTD SVG 1.1//EN" "http://www.w3.org/Graphics/SVG/1.1/DTD/svg11.dtd">
<svg xmlns="http://www.w3.org/2000/svg" version="1.1" width="320px" height="320px" style="shape-rendering:geometricPrecision; text-rendering:geometricPrecision; image-rendering:optimizeQuality; fill-rule:evenodd; clip-rule:evenodd" xmlns:xlink="http://www.w3.org/1999/xlink">
<g><path style="opacity:1" fill="#fefefe" d="M -0.5,-0.5 C 106.167,-0.5 212.833,-0.5 319.5,-0.5C 319.5,106.167 319.5,212.833 319.5,319.5C 212.833,319.5 106.167,319.5 -0.5,319.5C -0.5,212.833 -0.5,106.167 -0.5,-0.5 Z"/></g>
<g><path style="opacity:1" fill="#df6a47" d="M 114.5,81.5 C 102.829,81.3335 91.1619,81.5001 79.5,82C 76.2799,83.3524 72.9466,84.1857 69.5,84.5C 74.4211,81.9202 79.7544,80.4202 85.5,80C 95.3756,79.2528 105.042,79.7528 114.5,81.5 Z"/></g>
<g><path style="opacity:1" fill="#df6b49" d="M 239.5,81.5 C 226.833,81.5 214.167,81.5 201.5,81.5C 214.174,78.9379 226.84,78.9379 239.5,81.5 Z"/></g>
<g><path style="opacity:1" fill="#ed5a2a" d="M 114.5,81.5 C 124.731,82.0324 134.398,84.3658 143.5,88.5C 144.398,89.1577 145.398,89.8243 146.5,90.5C 145.5,91.1667 144.5,91.8333 143.5,92.5C 145.672,93.2048 147.672,94.2048 149.5,95.5C 149.833,95.1667 150.167,94.8333 150.5,94.5C 149.833,93.8333 149.167,93.1667 148.5,92.5C 152.213,90.6891 154.546,91.6891 155.5,95.5C 162.289,93.0177 168.955,90.351 175.5,87.5C 183.843,84.5829 192.51,82.5829 201.5,81.5C 214.167,81.5 226.833,81.5 239.5,81.5C 256.334,84.5874 268.334,93.9208 275.5,109.5C 275.324,114.723 274.657,119.89 273.5,125C 273.833,125.833 274.167,126.667 274.5,127.5C 275.185,124.373 276.185,121.373 277.5,118.5C 279.287,126.755 279.787,135.088 279,143.5C 276.725,149.179 274.892,155.012 273.5,161C 274.233,162.766 274.567,164.599 274.5,166.5C 273.5,166.5 272.5,166.5 271.5,166.5C 271.5,169.5 271.5,172.5 271.5,175.5C 268.339,182.492 264.672,189.159 260.5,195.5C 255.636,201.876 250.303,207.876 244.5,213.5C 242.408,213.439 240.908,212.439 240,210.5C 239.424,212.377 239.591,214.211 240.5,216C 239.924,217.714 238.757,218.881 237,219.5C 235.991,221.025 235.491,222.692 235.5,224.5C 234.833,224.5 234.5,224.833 234.5,225.5C 232.906,225.92 231.406,226.586 230,227.5C 229.055,227.095 228.388,226.428 228,225.5C 227.808,227.577 227.308,229.577 226.5,231.5C 225.575,230.359 224.741,230.359 224,231.5C 223.389,233.75 222.056,235.417 220,236.5C 219.517,237.448 219.351,238.448 219.5,239.5C 213.833,244.833 208.167,250.167 202.5,255.5C 197.553,259.748 192.22,263.748 186.5,267.5C 184.533,267.739 182.699,267.406 181,266.5C 178.031,267.603 177.864,268.936 180.5,270.5C 174.336,270.831 168.836,272.831 164,276.5C 162.715,276.05 161.548,275.383 160.5,274.5C 160.167,275 159.833,275.5 159.5,276C 160.707,277.3 161.374,278.8 161.5,280.5C 162.5,280.5 163.5,280.5 164.5,280.5C 164.5,281.5 164.5,282.5 164.5,283.5C 162.234,283.859 160.401,283.192 159,281.5C 156.806,283.837 154.306,284.17 151.5,282.5C 144.398,277.913 137.398,273.079 130.5,268C 127.568,265.715 124.902,263.215 122.5,260.5C 121.089,258.086 119.089,256.419 116.5,255.5C 99.5729,242.575 84.2396,227.908 70.5,211.5C 69.9872,209.146 68.8205,207.146 67,205.5C 66.1841,204.177 65.0174,203.511 63.5,203.5C 49.017,187.197 39.8503,168.197 36,146.5C 35.0558,139.25 35.5558,132.25 37.5,125.5C 39.7711,123.047 41.1045,120.047 41.5,116.5C 42.7059,118.484 42.7059,120.484 41.5,122.5C 42.2739,123.711 43.1072,123.711 44,122.5C 44.3108,120.444 44.8108,118.444 45.5,116.5C 44.675,115.614 43.675,115.281 42.5,115.5C 42.8185,111.864 43.9852,108.531 46,105.5C 48.5525,102.806 49.7192,103.473 49.5,107.5C 50.5,107.5 51.5,107.5 52.5,107.5C 52.6715,105.508 52.0049,103.842 50.5,102.5C 52.5352,97.7568 55.5352,93.7568 59.5,90.5C 62.1612,87.4977 65.4945,85.4977 69.5,84.5C 72.9466,84.1857 76.2799,83.3524 79.5,82C 91.1619,81.5001 102.829,81.3335 114.5,81.5 Z"/></g>
<g><path style="opacity:1" fill="#db6334" d="M 175.5,87.5 C 168.955,90.351 162.289,93.0177 155.5,95.5C 154.546,91.6891 152.213,90.6891 148.5,92.5C 149.167,93.1667 149.833,93.8333 150.5,94.5C 150.167,94.8333 149.833,95.1667 149.5,95.5C 147.672,94.2048 145.672,93.2048 143.5,92.5C 144.5,91.8333 145.5,91.1667 146.5,90.5C 145.398,89.8243 144.398,89.1577 143.5,88.5C 148.546,89.5773 153.546,90.9106 158.5,92.5C 164.126,90.624 169.792,88.9573 175.5,87.5 Z"/></g>
<g><path style="opacity:1" fill="#e1643b" d="M 59.5,90.5 C 55.5352,93.7568 52.5352,97.7568 50.5,102.5C 52.0049,103.842 52.6715,105.508 52.5,107.5C 51.5,107.5 50.5,107.5 49.5,107.5C 49.7192,103.473 48.5525,102.806 46,105.5C 43.9852,108.531 42.8185,111.864 42.5,115.5C 43.675,115.281 44.675,115.614 45.5,116.5C 44.8108,118.444 44.3108,120.444 44,122.5C 43.1072,123.711 42.2739,123.711 41.5,122.5C 42.7059,120.484 42.7059,118.484 41.5,116.5C 41.1045,120.047 39.7711,123.047 37.5,125.5C 39.5615,110.348 46.8948,98.6815 59.5,90.5 Z"/></g>
<g><path style="opacity:1" fill="#f6e9d4" d="M 198.5,137.5 C 201.787,144.903 199.453,147.57 191.5,145.5C 191.5,143.167 191.5,140.833 191.5,138.5C 193.806,138.007 196.139,137.674 198.5,137.5 Z"/></g>
<g><path style="opacity:1" fill="#f7f2e6" d="M 149.5,137.5 C 152.101,140.337 152.101,143.17 149.5,146C 145.652,146.987 143.652,145.487 143.5,141.5C 144.122,138.224 146.122,136.891 149.5,137.5 Z"/></g>
<g><path style="opacity:1" fill="#fdfaf5" d="M 127.5,138.5 C 129.265,139.461 131.265,139.795 133.5,139.5C 133.5,153.833 133.5,168.167 133.5,182.5C 131.167,182.5 128.833,182.5 126.5,182.5C 126.171,167.657 126.504,152.99 127.5,138.5 Z"/></g>
<g><path style="opacity:1" fill="#fbbfa4" d="M 127.5,138.5 C 129.833,138.5 132.167,138.5 134.5,138.5C 134.829,153.343 134.496,168.01 133.5,182.5C 133.5,168.167 133.5,153.833 133.5,139.5C 131.265,139.795 129.265,139.461 127.5,138.5 Z"/></g>
<g><path style="opacity:1" fill="#e1653e" d="M 149.5,137.5 C 150.496,137.414 151.329,137.748 152,138.5C 152.186,140.9 152.686,143.234 153.5,145.5C 154.167,144.833 154.833,144.167 155.5,143.5C 156.466,145.396 156.799,147.396 156.5,149.5C 160.507,148.996 164.507,148.83 168.5,149C 166.709,151.106 166.042,153.606 166.5,156.5C 165.661,155.359 164.994,154.026 164.5,152.5C 161.833,151.167 159.167,151.167 156.5,152.5C 159.703,160.112 162.703,167.778 165.5,175.5C 162.932,172.709 161.099,169.376 160,165.5C 159.975,168.917 159.808,172.25 159.5,175.5C 158.671,170.198 158.171,164.864 158,159.5C 155.563,156.624 154.23,153.29 154,149.5C 152.116,147.424 149.949,147.09 147.5,148.5C 148.602,149.176 149.602,149.842 150.5,150.5C 148.167,150.5 145.833,150.5 143.5,150.5C 143.5,158.833 143.5,167.167 143.5,175.5C 142.167,164.167 142.167,152.833 143.5,141.5C 143.652,145.487 145.652,146.987 149.5,146C 152.101,143.17 152.101,140.337 149.5,137.5 Z"/></g>
<g><path style="opacity:1" fill="#e26437" d="M 275.5,109.5 C 282.653,124.096 284.319,139.43 280.5,155.5C 278.102,162.395 275.102,169.062 271.5,175.5C 271.5,172.5 271.5,169.5 271.5,166.5C 272.5,166.5 273.5,166.5 274.5,166.5C 274.567,164.599 274.233,162.766 273.5,161C 274.892,155.012 276.725,149.179 279,143.5C 279.787,135.088 279.287,126.755 277.5,118.5C 276.185,121.373 275.185,124.373 274.5,127.5C 274.167,126.667 273.833,125.833 273.5,125C 274.657,119.89 275.324,114.723 275.5,109.5 Z"/></g>
<g><path style="opacity:1" fill="#d47059" d="M 232.5,152.5 C 235.167,153.167 236.833,154.833 237.5,157.5C 235.5,156.167 233.833,154.5 232.5,152.5 Z"/></g>
<g><path style="opacity:1" fill="#f9f5ee" d="M 109.5,174.5 C 106.183,173.835 102.683,173.501 99,173.5C 95.0982,173.512 91.5982,174.179 88.5,175.5C 88.5,175.833 88.5,176.167 88.5,176.5C 87.2291,178.109 86.2291,179.942 85.5,182C 82.854,182.497 80.1873,182.664 77.5,182.5C 79.5132,177.493 81.5132,172.493 83.5,167.5C 85.4031,164.021 87.0698,160.354 88.5,156.5C 90.9342,151.687 93.2675,146.854 95.5,142C 98.1667,141.333 100.833,141.333 103.5,142C 109.645,155.122 115.645,168.289 121.5,181.5C 118.5,182.833 115.5,182.833 112.5,181.5C 111.688,179.055 110.688,176.722 109.5,174.5 Z"/></g>
<g><path style="opacity:1" fill="#e06339" d="M 105.5,164.5 C 101.627,166.43 97.294,167.097 92.5,166.5C 94.2884,160.924 96.6218,155.59 99.5,150.5C 101.698,155.099 103.698,159.766 105.5,164.5 Z"/></g>
<g><path style="opacity:1" fill="#e8b9ae" d="M 150.5,150.5 C 151.167,150.5 151.5,150.833 151.5,151.5C 151.167,151.5 150.833,151.5 150.5,151.5C 148.5,151.5 146.5,151.5 144.5,151.5C 144.5,161.5 144.5,171.5 144.5,181.5C 144.167,181.5 143.833,181.5 143.5,181.5C 143.5,179.5 143.5,177.5 143.5,175.5C 143.5,167.167 143.5,158.833 143.5,150.5C 145.833,150.5 148.167,150.5 150.5,150.5 Z"/></g>
<g><path style="opacity:1" fill="#f7fcf8" d="M 150.5,151.5 C 150.5,161.5 150.5,171.5 150.5,181.5C 148.5,181.5 146.5,181.5 144.5,181.5C 144.5,171.5 144.5,161.5 144.5,151.5C 146.5,151.5 148.5,151.5 150.5,151.5 Z"/></g>
<g><path style="opacity:1" fill="#fee2d1" d="M 150.5,151.5 C 150.833,151.5 151.167,151.5 151.5,151.5C 151.5,161.833 151.5,172.167 151.5,182.5C 148.833,182.5 146.167,182.5 143.5,182.5C 143.5,182.167 143.5,181.833 143.5,181.5C 143.833,181.5 144.167,181.5 144.5,181.5C 146.5,181.5 148.5,181.5 150.5,181.5C 150.5,171.5 150.5,161.5 150.5,151.5 Z"/></g>
<g><path style="opacity:1" fill="#fbf9f4" d="M 192.5,151.5 C 194.833,151.5 197.167,151.5 199.5,151.5C 199.5,161.833 199.5,172.167 199.5,182.5C 197.167,182.5 194.833,182.5 192.5,182.5C 192.5,182.167 192.5,181.833 192.5,181.5C 192.5,171.5 192.5,161.5 192.5,151.5 Z"/></g>
<g><path style="opacity:1" fill="#f9f4ea" d="M 232.5,152.5 C 233.833,154.5 235.5,156.167 237.5,157.5C 241.793,168.63 238.793,176.963 228.5,182.5C 213.662,184.082 206.329,177.415 206.5,162.5C 211.932,151.469 220.599,148.136 232.5,152.5 Z"/></g>
<g><path style="opacity:1" fill="#d86641" d="M 230.5,162.5 C 227.746,161.378 224.913,160.378 222,159.5C 219.491,159.863 217.324,160.863 215.5,162.5C 216.649,158.997 219.149,157.331 223,157.5C 226.851,157.331 229.351,158.997 230.5,162.5 Z"/></g>
<g><path style="opacity:1" fill="#cf7453" d="M 186.5,153.5 C 186.833,153.5 187.167,153.5 187.5,153.5C 187.263,156.647 186.43,159.647 185,162.5C 184.623,163.942 183.79,164.942 182.5,165.5C 183.84,161.49 185.174,157.49 186.5,153.5 Z"/></g>
<g><path style="opacity:1" fill="#ec5b2c" d="M 230.5,162.5 C 230.968,166.936 229.968,170.936 227.5,174.5C 227.158,175.338 226.492,175.672 225.5,175.5C 225.509,173.692 225.009,172.025 224,170.5C 223.276,172.959 221.943,173.959 220,173.5C 219.667,170.833 219.333,168.167 219,165.5C 218.506,167.134 218.34,168.801 218.5,170.5C 217.5,170.5 216.5,170.5 215.5,170.5C 214.167,167.833 214.167,165.167 215.5,162.5C 217.324,160.863 219.491,159.863 222,159.5C 224.913,160.378 227.746,161.378 230.5,162.5 Z"/></g>
<g><path style="opacity:1" fill="#e55e33" d="M 198.5,137.5 C 199.496,137.414 200.329,137.748 201,138.5C 201.667,140.5 201.667,142.5 201,144.5C 199.366,146.497 197.532,148.164 195.5,149.5C 194.167,149.5 192.833,149.5 191.5,149.5C 191.172,160.346 191.506,171.013 192.5,181.5C 192.5,181.833 192.5,182.167 192.5,182.5C 190.83,180.022 189.163,177.355 187.5,174.5C 190.047,170.638 190.547,166.638 189,162.5C 188.77,166.29 187.437,169.624 185,172.5C 184.923,165.099 183.756,164.766 181.5,171.5C 184.913,174.484 185.08,177.484 182,180.5C 181.798,178.744 181.298,177.078 180.5,175.5C 179.393,178.601 178.06,181.601 176.5,184.5C 173.689,183.92 171.023,183.254 168.5,182.5C 171.167,182.5 173.833,182.5 176.5,182.5C 178.224,176.723 180.224,171.056 182.5,165.5C 183.79,164.942 184.623,163.942 185,162.5C 186.43,159.647 187.263,156.647 187.5,153.5C 187.5,152.5 187.5,151.5 187.5,150.5C 184.941,150.198 182.607,150.532 180.5,151.5C 179.833,152.5 179.167,153.5 178.5,154.5C 178.286,152.856 178.62,151.356 179.5,150C 181.878,149.489 184.212,148.822 186.5,148C 182.789,147.825 179.122,147.325 175.5,146.5C 177.407,145.63 179.24,144.63 181,143.5C 184.225,145.261 187.725,145.928 191.5,145.5C 199.453,147.57 201.787,144.903 198.5,137.5 Z"/></g>
<g><path style="opacity:1" fill="#edc3a4" d="M 180.5,151.5 C 182.607,150.532 184.941,150.198 187.5,150.5C 187.5,151.5 187.5,152.5 187.5,153.5C 187.167,153.5 186.833,153.5 186.5,153.5C 185.082,151.692 183.082,151.025 180.5,151.5 Z"/></g>
<g><path style="opacity:1" fill="#d2683e" d="M 88.5,156.5 C 87.0698,160.354 85.4031,164.021 83.5,167.5C 83.7955,163.206 85.4622,159.539 88.5,156.5 Z"/></g>
<g><path style="opacity:1" fill="#f3bead" d="M 105.5,164.5 C 106.404,165.209 106.737,166.209 106.5,167.5C 101.637,167.819 96.97,167.486 92.5,166.5C 97.294,167.097 101.627,166.43 105.5,164.5 Z"/></g>
<g><path style="opacity:1" fill="#f5b59d" d="M 192.5,151.5 C 194.607,150.532 196.941,150.198 199.5,150.5C 200.833,161.167 200.833,171.833 199.5,182.5C 199.5,172.167 199.5,161.833 199.5,151.5C 197.167,151.5 194.833,151.5 192.5,151.5 Z"/></g>
<g><path style="opacity:1" fill="#be6c47" d="M 195.5,149.5 C 197.099,149.232 198.432,149.566 199.5,150.5C 196.941,150.198 194.607,150.532 192.5,151.5C 192.5,161.5 192.5,171.5 192.5,181.5C 191.506,171.013 191.172,160.346 191.5,149.5C 192.833,149.5 194.167,149.5 195.5,149.5 Z"/></g>
<g><path style="opacity:1" fill="#de6736" d="M 225.5,175.5 C 222.229,176.91 219.229,176.244 216.5,173.5C 215.873,172.583 215.539,171.583 215.5,170.5C 216.5,170.5 217.5,170.5 218.5,170.5C 218.34,168.801 218.506,167.134 219,165.5C 219.333,168.167 219.667,170.833 220,173.5C 221.943,173.959 223.276,172.959 224,170.5C 225.009,172.025 225.509,173.692 225.5,175.5 Z"/></g>
<g><path style="opacity:1" fill="#cb6f4f" d="M 230.5,162.5 C 231.638,165.304 231.805,168.304 231,171.5C 230.241,173.063 229.074,174.063 227.5,174.5C 229.968,170.936 230.968,166.936 230.5,162.5 Z"/></g>
<g><path style="opacity:1" fill="#d6886b" d="M 109.5,174.5 C 102.412,174.205 95.4122,174.538 88.5,175.5C 91.5982,174.179 95.0982,173.512 99,173.5C 102.683,173.501 106.183,173.835 109.5,174.5 Z"/></g>
<g><path style="opacity:1" fill="#d96744" d="M 206.5,162.5 C 206.329,177.415 213.662,184.082 228.5,182.5C 222.861,183.966 217.194,183.633 211.5,181.5C 205.937,176.153 204.27,169.819 206.5,162.5 Z"/></g>
<g><path style="opacity:1" fill="#f8f5ef" d="M 166.5,156.5 C 167.065,160.537 168.399,164.203 170.5,167.5C 170.383,169.484 171.05,171.15 172.5,172.5C 174.641,168.41 175.975,164.076 176.5,159.5C 177.537,158.07 178.204,156.403 178.5,154.5C 179.167,153.5 179.833,152.5 180.5,151.5C 183.082,151.025 185.082,151.692 186.5,153.5C 185.174,157.49 183.84,161.49 182.5,165.5C 180.224,171.056 178.224,176.723 176.5,182.5C 173.833,182.5 171.167,182.5 168.5,182.5C 167.833,182.5 167.5,182.167 167.5,181.5C 167.125,179.302 166.458,177.302 165.5,175.5C 162.703,167.778 159.703,160.112 156.5,152.5C 159.167,151.167 161.833,151.167 164.5,152.5C 164.994,154.026 165.661,155.359 166.5,156.5 Z"/></g>
<g><path style="opacity:1" fill="#d7653b" d="M 176.5,159.5 C 175.975,164.076 174.641,168.41 172.5,172.5C 171.05,171.15 170.383,169.484 170.5,167.5C 171.117,167.611 171.617,167.944 172,168.5C 172.502,165.487 173.002,162.487 173.5,159.5C 174.5,159.5 175.5,159.5 176.5,159.5 Z"/></g>
<g><path style="opacity:1" fill="#d37257" d="M 165.5,175.5 C 166.458,177.302 167.125,179.302 167.5,181.5C 165.692,180.082 165.025,178.082 165.5,175.5 Z"/></g>
<g><path style="opacity:1" fill="#ca6e42" d="M 88.5,176.5 C 88.683,178.936 88.0163,181.103 86.5,183C 83.3035,183.805 80.3035,183.638 77.5,182.5C 80.1873,182.664 82.854,182.497 85.5,182C 86.2291,179.942 87.2291,178.109 88.5,176.5 Z"/></g>
<g><path style="opacity:1" fill="#fbf2e9" d="M 280.5,155.5 C 280.497,160.527 280.164,165.527 279.5,170.5C 277.61,170.297 276.11,170.963 275,172.5C 275,174.5 275,176.5 275,178.5C 273.745,179.211 272.579,180.044 271.5,181C 272.449,181.617 273.282,181.451 274,180.5C 275.959,182.943 275.292,184.61 272,185.5C 270.202,190.81 269.202,190.476 269,184.5C 266.053,187.159 264.386,190.492 264,194.5C 262.989,195.337 261.822,195.67 260.5,195.5C 264.672,189.159 268.339,182.492 271.5,175.5C 275.102,169.062 278.102,162.395 280.5,155.5 Z"/></g>
<g><path style="opacity:1" fill="#d86435" d="M 151.5,151.5 C 152.495,162.321 152.828,173.321 152.5,184.5C 148.988,185.055 145.988,184.388 143.5,182.5C 146.167,182.5 148.833,182.5 151.5,182.5C 151.5,172.167 151.5,161.833 151.5,151.5 Z"/></g>
<g><path style="opacity:1" fill="#cd6e4b" d="M 63.5,203.5 C 65.0174,203.511 66.1841,204.177 67,205.5C 68.8205,207.146 69.9872,209.146 70.5,211.5C 67.4503,209.451 65.117,206.784 63.5,203.5 Z"/></g>
<g><path style="opacity:1" fill="#db633f" d="M 244.5,213.5 C 241.833,217.167 239.167,220.833 236.5,224.5C 236.167,224.5 235.833,224.5 235.5,224.5C 235.491,222.692 235.991,221.025 237,219.5C 238.757,218.881 239.924,217.714 240.5,216C 239.591,214.211 239.424,212.377 240,210.5C 240.908,212.439 242.408,213.439 244.5,213.5 Z"/></g>
<g><path style="opacity:1" fill="#d9663e" d="M 234.5,225.5 C 229.732,230.39 224.732,235.056 219.5,239.5C 219.351,238.448 219.517,237.448 220,236.5C 222.056,235.417 223.389,233.75 224,231.5C 224.741,230.359 225.575,230.359 226.5,231.5C 227.308,229.577 227.808,227.577 228,225.5C 228.388,226.428 229.055,227.095 230,227.5C 231.406,226.586 232.906,225.92 234.5,225.5 Z"/></g>
<g><path style="opacity:1" fill="#f8f0e0" d="M 235.5,224.5 C 235.833,224.5 236.167,224.5 236.5,224.5C 235.52,227.116 234.02,229.449 232,231.5C 228.803,232.789 226.137,234.789 224,237.5C 222.562,238.9 221.729,240.567 221.5,242.5C 219.052,242.085 217.719,243.085 217.5,245.5C 218.36,247.272 219.693,248.605 221.5,249.5C 221,249.833 220.5,250.167 220,250.5C 217.775,248.722 215.275,248.222 212.5,249C 213.458,250.147 213.125,251.147 211.5,252C 208.236,252.638 205.236,253.804 202.5,255.5C 208.167,250.167 213.833,244.833 219.5,239.5C 224.732,235.056 229.732,230.39 234.5,225.5C 234.5,224.833 234.833,224.5 235.5,224.5 Z"/></g>
<g><path style="opacity:1" fill="#d0704e" d="M 116.5,255.5 C 119.089,256.419 121.089,258.086 122.5,260.5C 119.911,259.581 117.911,257.914 116.5,255.5 Z"/></g>
<g><path style="opacity:1" fill="#e45f31" d="M 186.5,267.5 C 178.307,274.195 169.973,280.695 161.5,287C 157.256,287.603 153.923,286.103 151.5,282.5C 154.306,284.17 156.806,283.837 159,281.5C 160.401,283.192 162.234,283.859 164.5,283.5C 164.5,282.5 164.5,281.5 164.5,280.5C 163.5,280.5 162.5,280.5 161.5,280.5C 161.374,278.8 160.707,277.3 159.5,276C 159.833,275.5 160.167,275 160.5,274.5C 161.548,275.383 162.715,276.05 164,276.5C 168.836,272.831 174.336,270.831 180.5,270.5C 177.864,268.936 178.031,267.603 181,266.5C 182.699,267.406 184.533,267.739 186.5,267.5 Z"/></g>
</svg>
