<?xml version="1.0" encoding="UTF-8"?>
<!DOCTYPE svg PUBLIC "-//W3C//DTD SVG 1.1//EN" "http://www.w3.org/Graphics/SVG/1.1/DTD/svg11.dtd">
<svg xmlns="http://www.w3.org/2000/svg" version="1.1" width="320px" height="320px" style="shape-rendering:geometricPrecision; text-rendering:geometricPrecision; image-rendering:optimizeQuality; fill-rule:evenodd; clip-rule:evenodd" xmlns:xlink="http://www.w3.org/1999/xlink">
<g><path style="opacity:1" fill="#fbd533" d="M -0.5,-0.5 C 105.833,-0.5 212.167,-0.5 318.5,-0.5C 318.5,105.833 318.5,212.167 318.5,318.5C 212.167,318.5 105.833,318.5 -0.5,318.5C -0.5,212.167 -0.5,105.833 -0.5,-0.5 Z"/></g>
<g><path style="opacity:1" fill="#1c1c1b" d="M 190.5,99.5 C 202.06,118.277 210.56,138.277 216,159.5C 221.204,179.517 220.204,199.183 213,218.5C 205.525,236.482 192.359,247.815 173.5,252.5C 186.501,243.825 195.834,232.159 201.5,217.5C 202.793,214.321 203.46,210.988 203.5,207.5C 206.579,189.001 203.079,171.668 193,155.5C 177.147,131.645 156.813,112.645 132,98.5C 132.134,96.8107 132.634,95.144 133.5,93.5C 140.75,83.0685 148.25,72.7352 156,62.5C 157.351,60.981 158.851,59.6477 160.5,58.5C 171.298,71.6238 181.298,85.2904 190.5,99.5 Z"/></g>
<g><path style="opacity:1" fill="#1c1c1b" d="M 130.5,102.5 C 145.084,112.398 158.917,123.398 172,135.5C 186.063,150.293 195.396,167.626 200,187.5C 200.499,191.821 200.666,196.154 200.5,200.5C 199.558,204.418 198.892,208.418 198.5,212.5C 192.208,232.457 179.208,245.791 159.5,252.5C 132.184,257.334 110.017,248.667 93,226.5C 81.0161,207.375 73.5161,186.708 70.5,164.5C 70.1998,155.988 69.5331,147.655 68.5,139.5C 68.5,133.5 68.5,127.5 68.5,121.5C 69.4949,112.308 70.4949,102.975 71.5,93.5C 72.4122,87.8687 73.0789,82.202 73.5,76.5C 93.3846,83.2765 112.385,91.9431 130.5,102.5 Z"/></g>
<g><path style="opacity:1" fill="#1c1b1b" d="M 247.5,99.5 C 249.731,118.79 250.064,138.124 248.5,157.5C 246.193,183.258 238.026,206.924 224,228.5C 219.833,232.667 215.667,236.833 211.5,241C 206.358,244.904 200.691,247.738 194.5,249.5C 214.26,233.401 223.927,212.568 223.5,187C 222.015,156.048 213.015,127.548 196.5,101.5C 196.586,100.504 196.252,99.6708 195.5,99C 211.097,89.6462 227.43,82.1462 244.5,76.5C 245.582,84.1523 246.582,91.8189 247.5,99.5 Z"/></g>
<g><path style="opacity:1" fill="#caaf44" d="M 71.5,93.5 C 70.4949,102.975 69.4949,112.308 68.5,121.5C 68.4566,114.317 68.7899,107.151 69.5,100C 69.5332,97.3897 70.1999,95.223 71.5,93.5 Z"/></g>
<g><path style="opacity:1" fill="#eac93d" d="M 133.5,93.5 C 132.634,95.144 132.134,96.8107 132,98.5C 156.813,112.645 177.147,131.645 193,155.5C 203.079,171.668 206.579,189.001 203.5,207.5C 203.666,200.825 203.5,194.158 203,187.5C 202.667,186.833 202.333,186.167 202,185.5C 201.826,190.684 201.326,195.684 200.5,200.5C 200.666,196.154 200.499,191.821 200,187.5C 195.396,167.626 186.063,150.293 172,135.5C 158.917,123.398 145.084,112.398 130.5,102.5C 131.192,99.8607 130.859,97.1941 129.5,94.5C 130.325,92.2997 131.658,91.9663 133.5,93.5 Z"/></g>
<g><path style="opacity:1" fill="#e3c440" d="M 247.5,99.5 C 248.675,99.281 249.675,99.6143 250.5,100.5C 249.905,102.44 249.572,104.44 249.5,106.5C 250.123,121.676 250.79,136.843 251.5,152C 250.769,154.083 249.769,155.916 248.5,157.5C 250.064,138.124 249.731,118.79 247.5,99.5 Z"/></g>
<g><path style="opacity:1" fill="#d7ba43" d="M 68.5,139.5 C 69.5331,147.655 70.1998,155.988 70.5,164.5C 69.71,163.391 69.21,162.058 69,160.5C 68.5004,153.508 68.3337,146.508 68.5,139.5 Z"/></g>
<g><path style="opacity:1" fill="#f8d337" d="M 203.5,207.5 C 203.46,210.988 202.793,214.321 201.5,217.5C 200.142,218.626 198.808,218.626 197.5,217.5C 198.309,215.929 198.643,214.262 198.5,212.5C 198.892,208.418 199.558,204.418 200.5,200.5C 201.326,195.684 201.826,190.684 202,185.5C 202.333,186.167 202.667,186.833 203,187.5C 203.5,194.158 203.666,200.825 203.5,207.5 Z"/></g>
<g><path style="opacity:1" fill="#e8c73d" d="M 190.5,99.5 C 191.931,100.082 193.264,100.915 194.5,102C 193.112,102.889 193.278,103.389 195,103.5C 196.03,103.164 196.53,102.497 196.5,101.5C 213.015,127.548 222.015,156.048 223.5,187C 223.927,212.568 214.26,233.401 194.5,249.5C 192.821,249.892 191.154,250.392 189.5,251C 188.304,251.654 188.304,252.154 189.5,252.5C 190.417,251.873 191.417,251.539 192.5,251.5C 190.349,253.289 187.849,254.622 185,255.5C 181.999,255.576 181.833,254.409 184.5,252C 182.865,251.46 181.532,251.96 180.5,253.5C 179.833,253.167 179.167,252.833 178.5,252.5C 176.382,253.946 174.049,254.613 171.5,254.5C 172.167,253.833 172.833,253.167 173.5,252.5C 192.359,247.815 205.525,236.482 213,218.5C 220.204,199.183 221.204,179.517 216,159.5C 210.56,138.277 202.06,118.277 190.5,99.5 Z"/></g>
<g><path style="opacity:1" fill="#e7c73c" d="M 198.5,212.5 C 198.643,214.262 198.309,215.929 197.5,217.5C 198.808,218.626 200.142,218.626 201.5,217.5C 195.834,232.159 186.501,243.825 173.5,252.5C 171.784,252.629 170.117,252.962 168.5,253.5C 166.956,253.703 165.622,254.37 164.5,255.5C 163.707,254.645 164.04,253.811 165.5,253C 163.527,252.505 161.527,252.338 159.5,252.5C 179.208,245.791 192.208,232.457 198.5,212.5 Z"/></g>
<g><path style="opacity:1" fill="#77662d" d="M 194.5,249.5 C 194.167,250.5 193.5,251.167 192.5,251.5C 191.417,251.539 190.417,251.873 189.5,252.5C 188.304,252.154 188.304,251.654 189.5,251C 191.154,250.392 192.821,249.892 194.5,249.5 Z"/></g>
<g><path style="opacity:1" fill="#61552b" d="M 173.5,252.5 C 172.833,253.167 172.167,253.833 171.5,254.5C 170.209,254.737 169.209,254.404 168.5,253.5C 170.117,252.962 171.784,252.629 173.5,252.5 Z"/></g>
<g><path style="opacity:1" fill="#f6ea9f" d="M 318.5,-0.5 C 318.833,-0.5 319.167,-0.5 319.5,-0.5C 319.5,106.167 319.5,212.833 319.5,319.5C 212.833,319.5 106.167,319.5 -0.5,319.5C -0.5,319.167 -0.5,318.833 -0.5,318.5C 105.833,318.5 212.167,318.5 318.5,318.5C 318.5,212.167 318.5,105.833 318.5,-0.5 Z"/></g>
</svg>
