<?xml version="1.0"?><svg xmlns="http://www.w3.org/2000/svg" width="36" height="36" shape-rendering="geometricPrecision" text-rendering="geometricPrecision" image-rendering="optimizeQuality" fill-rule="evenodd" clip-rule="evenodd" viewBox="0 0 36 36"><path fill="#fefefe" d="m1.7-0.1h32.4v36h-32.4v-36z"></path><path fill="#40114d" d="m16.1 5.3c0.7-0.1 1.4-0.1 2.1 0-0.3 0-0.6 0-0.9 0.1 0.4 0.1 0.9 0.2 1.3 0.3-0.1 0.1-0.2 0.2-0.3 0.2-0.4 0-0.9 0-1.3-0.2-0.2-0.2-0.5-0.3-0.9-0.4z"></path><path fill="#62117a" d="m18.2 5.3c0.3 0 0.6 0.1 0.9 0.2-0.2 0.1-0.3 0.2-0.5 0.2-0.4-0.1-0.9-0.2-1.3-0.3 0.3-0.1 0.6-0.1 0.9-0.1z"></path><path fill="#120912" d="m16.1 5.3c0.4 0.1 0.7 0.2 0.9 0.4 0.4 0.2 0.9 0.2 1.3 0.2-1.8 1-3.4 2.3-4.9 3.8-0.1 0-0.1-0.1 0-0.2 0.3-0.4 0.6-0.8 0.9-1.2 0.4-0.4 0.7-0.8 1.1-1.1-1.1-0.1-2.1 0.3-2.8 1.1-0.1 0.1-0.1 0.2-0.1 0.3-0.1 0.2-0.2 0.2-0.4 0.1 0.8-1.8 2.1-2.9 4-3.4z"></path><path fill="#160e17" d="m20.4 6.5c-1 0.5-2 1.1-2.9 1.8 0-0.1 0-0.3 0-0.4-0.2-0.3-0.4-0.3-0.7-0.3 1.4-1 3-1.8 4.7-2.2 0.4-0.1 0.7-0.1 1.1 0-0.8 0.3-1.5 0.7-2.2 1.1z"></path><path fill="#151316" d="m23.5 6.2c-2.4 0.8-4.5 1.8-6.6 3.2 0 0-0.1-0.1-0.1-0.1 0.2-0.1 0.3-0.2 0.5-0.3l-0.3-0.1c0.2-0.2 0.4-0.4 0.6-0.5 1-0.6 2-1.2 3-1.7 0.8-0.3 1.7-0.6 2.5-0.7 0.5-0.1 0.9-0.1 1.3 0.1-0.4 0-0.7 0.1-0.9 0.1z"></path><path fill="#dcd9dd" d="m23.5 6.2c-0.3 0.3-0.3 0.4 0.2 0.4-1.5 0.4-2.9 0.9-4.2 1.7-1.2 0.5-2.3 1.1-3.4 1.9-0.2 0.1-0.4 0.2-0.6 0.3l0.1-0.2c0.5-0.3 0.9-0.6 1.3-0.9 2.1-1.4 4.2-2.4 6.6-3.2z"></path><path fill="#d0ced2" d="m20.4 6.5c0.1 0.1 0.1 0.2 0.2 0.2-1 0.5-2 1.1-3 1.7-0.1 0-0.1-0.1-0.1-0.1 0.9-0.7 1.9-1.3 2.9-1.8z"></path><path fill="#261128" d="m16.8 7.6c0.3 0 0.5 0 0.7 0.3 0 0.1 0 0.3 0 0.4 0 0 0 0.1 0.1 0.1-0.2 0.1-0.4 0.3-0.6 0.5l0.3 0.1c-0.2 0.1-0.3 0.2-0.5 0.3 0 0 0.1 0.1 0.1 0.1-0.4 0.3-0.8 0.6-1.3 0.9 0-0.4 0.2-0.6 0.5-0.7 0.4 0.1 0.5-0.1 0.6-0.4 0-0.1 0.1-0.2 0.2-0.2-0.3-0.4-0.1-0.6 0.4-0.7-0.1-0.1-0.1-0.3 0-0.5-0.5 0.2-1.1 0.4-1.6 0.6 0.3-0.4 0.7-0.6 1.1-0.8z"></path><path fill="#efecf0" d="m24.8 7.4c-0.5 0.7-1.1 1.4-1.8 2-0.2-0.3-0.4-0.7-0.6-1 0-0.2-0.1-0.2-0.3-0.2-0.1 0-0.2 0-0.3 0.1-0.5 0-0.9 0.1-1.3 0.3-0.3 0.1-0.6 0.2-1 0.2 0.2-0.1 0.3-0.2 0.5-0.3 1.1-0.5 2.3-0.9 3.6-1.2 0.4-0.1 0.8-0.1 1.2 0.1z"></path><path fill="#472c83" d="m14.3 8.3c-0.6 0-1.2 0.1-1.8 0.3 0-0.1 0-0.2 0.1-0.3 0.7-0.8 1.7-1.2 2.8-1.1-0.4 0.3-0.7 0.7-1.1 1.1z"></path><path fill="#131215" d="m25.1 7.8v-0.4h-0.3c-0.4-0.2-0.8-0.2-1.2-0.1-1.3 0.3-2.5 0.7-3.6 1.2-0.2-0.1-0.3-0.2-0.5-0.2 1.3-0.8 2.7-1.3 4.2-1.7 0.5-0.2 1-0.2 1.6 0 0.2 0.5 0.2 0.8-0.2 1.2z"></path><path fill="#2d153f" d="m24.8 7.4h0.3v0.4c-0.5 0.9-1.2 1.6-2 2.3l-0.2 1.5c0 0.2 0 0.3-0.1 0.4v-0.7c0.1-0.6 0.1-1.3 0.2-1.9 0.7-0.6 1.3-1.3 1.8-2z"></path><path fill="#140b18" d="m19.5 8.3c0.2 0 0.3 0.1 0.5 0.2-0.2 0.1-0.3 0.2-0.5 0.3 0.4 0 0.7-0.1 1-0.2 0 0.1-0.1 0.1-0.2 0.2l0.2 0.1c-0.2 0-0.5 0.1-0.8 0 0.1 0.2 0 0.3-0.1 0.4-0.2-0.2-0.4-0.3-0.6-0.1 0 0.1 0.1 0.2 0.3 0.3-0.3 0-0.5 0-0.7 0.2-0.8 0.3-1.7 0.7-2.5 1.2v-0.4c0.6 0 0.6-0.1 0-0.3 1.1-0.8 2.2-1.4 3.4-1.9z"></path><path fill="#140529" d="m21.8 8.3c-0.1 0-0.2 0.2-0.3 0.3-0.2 0-0.5 0-0.7 0.2 0 0.7-0.1 1.4-0.3 2.1 0.2 0.2 0.3 0.5 0.4 0.8 0 0.2-0.1 0.4-0.3 0.5-0.1 0.7-0.1 1.4-0.1 2.1-0.3 0.1-0.4 0.2-0.1 0.3-0.2 0.1-0.2 0.2 0 0.3 0.2-0.2 0.4-0.3 0.6-0.5 0.2-0.1 0.4-0.1 0.5-0.1-0.5 0.7-1.1 1.1-1.9 1.4h-0.4c-0.2 0-0.4 0-0.6-0.2 0.3-0.1 0.5-0.3 0.7-0.5 0.1-0.3 0-0.6-0.2-0.9 0 0.3-0.1 0.5-0.4 0.7-0.1 0.1-0.3 0.1-0.4 0.1 0.5-0.6 0.9-1.3 1.3-2 0.2-1 0.2-2 0-2.9-0.1-0.2-0.3-0.4-0.5-0.4-0.2 0-0.3 0.1-0.4 0.1h-0.1c0.2-0.2 0.4-0.2 0.7-0.3-0.2 0-0.3-0.1-0.3-0.2 0.2-0.2 0.4-0.1 0.6 0.1 0.1-0.1 0.2-0.2 0.1-0.4 0.3 0.1 0.6 0 0.8 0l-0.2-0.1c0.1-0.1 0.2-0.1 0.2-0.2 0.4-0.2 0.8-0.3 1.3-0.3z"></path><path fill="#2d032d" d="m16.1 9.6c0-0.4-0.2-0.5-0.5-0.2 0-0.1-0.1-0.2-0.2-0.3 0.1-0.1 0.2-0.2 0.3-0.2-0.3-0.1-0.5 0-0.8 0 0.2-0.2 0.5-0.4 0.8-0.5 0.5-0.2 1.1-0.4 1.6-0.6-0.1 0.2-0.1 0.4 0 0.5-0.5 0.1-0.7 0.3-0.4 0.7-0.1 0-0.2 0.1-0.2 0.2-0.1 0.3-0.2 0.5-0.6 0.4z"></path><path fill="#460b5d" d="m22.4 8.4c0.2 0.3 0.4 0.7 0.6 1-0.1 0.6-0.1 1.3-0.2 1.9h-0.4c0.1-0.3 0-0.7 0-1-0.3-0.5-0.5-1-0.6-1.6 0.1-0.4 0.3-0.5 0.6-0.3z"></path><path fill="#310632" d="m16.1 10.2c0.6 0.2 0.6 0.3 0 0.3v0.7c-0.3 0-0.7 0.2-1 0.4-0.1 0.1-0.1 0-0.2-0.1 0.2-0.1 0.3-0.3 0.5-0.4 0.1-0.2 0-0.3-0.2-0.3 0.1-0.1 0.2-0.2 0.3-0.3 0.2-0.1 0.4-0.2 0.6-0.3z"></path><path fill="#572b83" d="m18.6 9.7h0.1c-0.2 0.2-0.2 0.4 0 0.5-1 0-1 0.1 0 0.5l-0.3 0.1c0.1 0.1 0.1 0.2 0.1 0.3-1.4 0.1-2.7 0.6-3.9 1.2l-0.1-0.2c0.2-0.1 0.4-0.3 0.6-0.5 0.3-0.2 0.7-0.4 1-0.4v-0.3c0.8-0.5 1.7-0.9 2.5-1.2z"></path><path fill="#a92da6" d="m13.2 10.4c0.2 0 0.4 0.1 0.4 0.3-1 0.8-1.8 1.7-2.5 2.7 0 0.2-0.1 0.2-0.1 0 0 0 0-0.1 0.1-0.2 0.6-1 1.3-2 2.1-2.8z"></path><path fill="#50094e" d="m16.1 9.6c-0.3 0.1-0.5 0.3-0.5 0.7l-0.1 0.2c-0.1 0.1-0.2 0.2-0.3 0.3 0.2 0 0.3 0.1 0.2 0.3-0.2 0.1-0.3 0.3-0.5 0.4 0.1 0.1 0.1 0.2 0.2 0.1-0.2 0.2-0.4 0.4-0.6 0.5-0.2-0.2-0.1-0.4 0.1-0.6-0.2-0.1-0.3-0.2-0.3-0.4h0.5c0-0.2 0-0.3 0.1-0.4-0.1-0.1-0.1-0.1-0.2-0.2-0.2 0.2-0.4 0.3-0.7 0.2 0.4-0.4 0.7-0.8 1.1-1.1l-0.1-0.1c-0.5 0.4-1 0.8-1.4 1.2 0-0.2-0.2-0.3-0.4-0.3 0.5-0.5 1.1-1 1.7-1.5 0.3 0 0.5-0.1 0.8 0-0.1 0-0.2 0.1-0.3 0.2 0.1 0.1 0.2 0.2 0.2 0.3 0.3-0.3 0.5-0.2 0.5 0.2z"></path><path fill="#faf8fa" d="m18.5 11.1c0.1 2.6-1.1 4-3.7 4.1-0.4-0.1-0.8-0.2-1.2-0.4-0.7 0.2-1.4 0.3-2.1 0.3l0.4-0.6c0.4-0.6 0.9-1.1 1.4-1.5 0.4-0.3 0.8-0.5 1.3-0.7 1.2-0.6 2.5-1.1 3.9-1.2z"></path><path fill="#6c0c6a" d="m14.5 12.1l0.1 0.2c-0.5 0.2-0.9 0.4-1.3 0.7 0.1-0.2 0.1-0.3 0-0.4 0.3-0.2 0.3-0.3-0.1-0.3v-0.4h0.5c0-0.2 0-0.3-0.1-0.5-0.2 0.1-0.3 0.2-0.5 0.2 0.3-0.3 0.6-0.6 0.9-0.9 0.3 0.1 0.5 0 0.7-0.2 0.1 0.1 0.1 0.1 0.2 0.2-0.1 0.1-0.1 0.2-0.1 0.4h-0.5c0 0.2 0.1 0.3 0.3 0.4-0.2 0.2-0.3 0.4-0.1 0.6z"></path><path fill="#1c0430" d="m21.5 8.6c0.2 0.8 0.2 1.5 0 2.3 0 0.5 0.1 1 0.3 1.4 0 0.1-0.1 0.2-0.1 0.3 0 0 0.1 0.1 0.2 0.2-0.1 0.2-0.3 0.4-0.4 0.5l0.1 0.3c0.1-0.1 0.2-0.2 0.4-0.2 0.1-0.4 0.3-0.8 0.5-1.3 0.1-0.1 0.2-0.1 0.3-0.1-0.2 0.9-0.6 1.7-1.3 2.3-0.1 0-0.3 0-0.5 0.1-0.2 0.2-0.4 0.3-0.6 0.5-0.2-0.1-0.2-0.2 0-0.3-0.3-0.1-0.2-0.2 0.1-0.3 0-0.7 0-1.4 0.1-2.1 0.2-0.1 0.3-0.3 0.3-0.5-0.1-0.3-0.2-0.6-0.4-0.8 0.2-0.7 0.3-1.4 0.3-2.1 0.2-0.2 0.5-0.2 0.7-0.2z"></path><path fill="#f8e7f8" d="m14 10.7c-0.3 0.3-0.6 0.6-0.9 0.9-0.6 0.7-1.2 1.5-1.6 2.3l-0.2 0.1c0-0.1 0-0.2-0.1-0.3-0.2 0-0.3 0-0.5 0 0.1-0.3 0.2-0.4 0.4-0.5-0.1 0.1-0.1 0.2-0.1 0.2 0 0.2 0.1 0.2 0.1 0 0.7-1 1.5-1.9 2.5-2.7 0.4-0.4 0.9-0.8 1.4-1.2l0.1 0.1c-0.4 0.3-0.7 0.7-1.1 1.1z"></path><path fill="#a417a2" d="m13.3 13c-0.5 0.4-1 0.9-1.4 1.5 0-0.3 0-0.5 0.1-0.8l-0.1-0.1c-0.1 0.1-0.2 0.2-0.4 0.3 0.4-0.8 1-1.6 1.6-2.3 0.2 0 0.3-0.1 0.5-0.2 0.1 0.2 0.1 0.3 0.1 0.5h-0.5v0.4c0.4 0 0.4 0.1 0.1 0.3 0.1 0.1 0.1 0.2 0 0.4z"></path><path fill="#3f2d8d" d="m18.3 14.9c-0.7 0.3-1.4 0.6-2.2 0.7-0.4-0.1-0.9-0.2-1.3-0.4 2.6-0.1 3.8-1.5 3.7-4.1 0-0.1 0-0.2-0.1-0.3l0.3-0.1c-1-0.4-1-0.5 0-0.5-0.2-0.1-0.2-0.3 0-0.5 0.1 0 0.2-0.1 0.4-0.1 0.2 0 0.4 0.2 0.5 0.4 0.2 0.9 0.2 1.9 0 2.9-0.4 0.7-0.8 1.4-1.3 2z"></path><path fill="#26053f" d="m22.4 8.4c-0.3-0.2-0.5-0.1-0.6 0.3 0.1 0.6 0.3 1.1 0.6 1.6 0 0.3 0.1 0.7 0 1h0.4v0.7c-0.1 0-0.2 0-0.3 0.1-0.2 0.5-0.4 0.9-0.5 1.3-0.2 0-0.3 0.1-0.4 0.2l-0.1-0.3c0.1-0.1 0.3-0.3 0.4-0.5-0.1-0.1-0.2-0.2-0.2-0.2 0-0.1 0.1-0.2 0.1-0.3-0.2-0.4-0.3-0.9-0.3-1.4 0.2-0.8 0.2-1.5 0-2.3 0.1-0.1 0.2-0.3 0.3-0.3 0.1-0.1 0.2-0.1 0.3-0.1 0.2 0 0.3 0 0.3 0.2z"></path><path fill="#d62fd4" d="m11.9 14.5l-0.4 0.6c-0.1 0.2-0.2 0.3-0.3 0.4-0.2-0.1-0.3-0.3-0.3-0.5 0.1-0.3 0.3-0.7 0.4-1l0.2-0.1c0.2-0.1 0.3-0.2 0.4-0.3l0.1 0.1c-0.1 0.3-0.1 0.5-0.1 0.8z"></path><path fill="#171318" d="m14.8 15.2c0.4 0.2 0.9 0.3 1.3 0.4 0 0.1 0.1 0.2 0.2 0.2 0.1-0.1 0.3-0.2 0.5-0.2 0.8 0.4 1.6 0.4 2.4 0.1h0.4c-1.2 0.6-2.5 0.7-3.9 0.3-0.6-0.3-1.2-0.5-1.7-0.8-0.5 0.1-0.9 0.2-1.3 0.3-0.6 0.1-1 0.1-1.5 0 0.1-0.1 0.2-0.2 0.3-0.4 0.7 0 1.4-0.1 2.1-0.3 0.4 0.2 0.8 0.3 1.2 0.4z"></path><path fill="#08021b" d="m19.2 15.7c-0.8 0.3-1.6 0.3-2.4-0.1-0.2 0-0.4 0.1-0.5 0.2-0.1 0-0.2-0.1-0.2-0.2 0.8-0.1 1.5-0.4 2.2-0.7 0.1 0 0.3 0 0.4-0.1 0.3-0.2 0.4-0.4 0.4-0.7 0.2 0.3 0.3 0.6 0.3 0.9-0.3 0.2-0.5 0.4-0.8 0.5 0.2 0.2 0.4 0.2 0.6 0.2z"></path><path fill="#626262" d="m18.8 18.8h-1.9v0.4c-0.1-0.1-0.1-0.3-0.1-0.5 0.7 0 1.4 0 2 0.1z"></path><path fill="#171717" d="m15.4 18.8c0 0.1 0.1 0.1 0.1 0.2 0.1 0.4 0.1 0.8-0.1 1.1-0.6 0.1-1.2 0.1-1.8 0.1v0.7h-0.4v-2.1h2.2z"></path><path fill="#1d1d1d" d="m20.2 18.7c0.7 0 1.4 0 2.1 0.1 0.3 0.3 0.3 0.7 0.2 1.2l-0.2 0.1c-0.5 0.1-1.1 0.1-1.7 0.1v0.7h-0.4v-2.2z"></path><path fill="#ebebeb" d="m13.6 19.2h1.5v0.5h-1.5v-0.5z"></path><path fill="#e6e6e6" d="m20.5 19.2h1.7v0.5h-1.7v-0.5z"></path><path fill="#777" d="m15.4 18.8h-2.2v2.1c-0.1-0.7-0.1-1.4-0.1-2.2 0.8 0 1.5 0 2.3 0.1z"></path><path fill="#101010" d="m18.8 18.8c0.1 0.1 0.2 0.1 0.2 0.2 0.1 0.3 0.1 0.7-0.2 1-0.6 0.1-1.2 0.1-1.8 0.1v0.3h2.1v0.5h-2.4c0-0.4 0-0.7 0.1-1l0.1-0.2c0.6-0.1 1.2-0.1 1.8-0.1v-0.4h-1.8v-0.4h1.9z"></path><path fill="#8160ba" d="m13.1 21.8h0.8v0.4c-0.3 0-0.5 0.1-0.7 0.2-0.1-0.2-0.1-0.4-0.1-0.6z"></path><path fill="#6942b1" d="m19.7 21.8c0.3 0 0.5 0 0.7 0l-0.4 0.1c0.4 0.2 0.4 0.3 0 0.4l0.4 0.1c-0.2 0-0.4 0.1-0.7 0v-0.6z"></path><path fill="#eddffa" d="m19.7 21.8c0.4-0.1 0.8-0.1 1.2 0v0.6h0.4c-0.5 0.2-1 0.2-1.6 0 0.3 0.1 0.5 0 0.7 0l-0.4-0.1c0.4-0.1 0.4-0.2 0-0.4l0.4-0.1c-0.2 0-0.4 0-0.7 0z"></path><path fill="#2e0f7f" d="m20.9 21.8c0.6 0 0.6 0 0.1 0.1v0.4c0.2 0 0.3 0 0.4 0.1h-0.5v-0.6z"></path><path fill="#51259d" d="m16.4 21.8h0.6c0.1 0.2 0 0.4 0 0.6-0.2-0.2-0.4-0.2-0.5 0-0.1-0.2-0.2-0.4-0.1-0.6z"></path><path fill="#e9c2ff" d="m16.6 21.9c0.1 0 0.2 0 0.3 0.1-0.1 0.1-0.3 0.1-0.3-0.1z"></path><path fill="#6d49af" d="m17.6 21.9c0.2-0.1 0.4-0.2 0.6-0.1v0.4c-0.6 0-0.6 0.1 0 0.2-0.3 0-0.5 0.1-0.7 0 0-0.3 0.2-0.5 0.6-0.5-0.2 0-0.3 0-0.5 0z"></path><path fill="#8260c4" d="m18.6 21.8h0.8v0.4c-0.3 0-0.5 0.1-0.7 0.2-0.1-0.2-0.1-0.4-0.1-0.6z"></path><path fill="#c5a8ea" d="m20.9 21.8c0.2-0.1 0.4-0.2 0.6-0.1-0.1 0.2-0.1 0.5-0.1 0.7-0.1-0.1-0.2-0.1-0.4-0.1v-0.4c0.5-0.1 0.5-0.1-0.1-0.1z"></path><path fill="#9976c9" d="m22 21.8c0.1 0 0.3 0.1 0.4 0.2-0.2 0-0.3 0.1-0.3 0.2 0 0.1 0 0.2-0.1 0.2-0.2-0.2-0.2-0.4 0-0.6z"></path><path fill="#412082" d="m22 21.8h0.6c0 0.2 0 0.4-0.1 0.6-0.1-0.1-0.2-0.2-0.4-0.2 0-0.1 0.1-0.2 0.3-0.2-0.1-0.1-0.3-0.2-0.4-0.2z"></path><path fill="#e8d8f9" d="m15.9 21.9l0.2 0.7c-0.4 0-0.8-0.1-1.2-0.2-0.2 0.2-0.5 0.2-0.8 0.2v-0.9c0.5 0 1 0 1.5 0l0.4 0.1c0 0 0 0.1-0.1 0.1z"></path><path fill="#482894" d="m15.9 21.9c-0.5 0-0.5 0-0.1 0.2-0.1 0.1-0.2 0.1-0.3 0.2 0.5 0.1 0.5 0.1-0.1 0.1v-0.6c0.2-0.1 0.4 0 0.5 0.1z"></path><path fill="#513093" d="m14.9 22.4h-0.7v-0.6c0.3 0 0.5 0 0.7 0l-0.4 0.1c0.4 0.2 0.4 0.3 0 0.4 0.1 0 0.3 0.1 0.4 0.1z"></path><path fill="#9f9f9f" d="m17.7 24.5h0.8v0.4c-0.3 0-0.5 0.1-0.7 0.2-0.1-0.2-0.1-0.4-0.1-0.6z"></path><path fill="#767676" d="m14.1 24.5c0.2 0 0.5 0 0.7 0-0.2 0.1-0.4 0.1-0.6 0.1v0.4c0.2 0 0.4 0 0.6 0.1-0.2 0-0.5 0.1-0.7 0v-0.6z"></path><path fill="#8c8c8c" d="m15.4 24.5h0.6c0 0.2 0 0.5-0.1 0.6l-0.3-0.2c-0.1 0.1-0.2 0.2-0.2 0.2 0-0.2-0.1-0.4 0-0.6z"></path><path fill="#979797" d="m16.6 24.5c0.2 0.1 0.4 0.1 0.7 0-0.2 0.2-0.3 0.4-0.4 0.6-0.1-0.2-0.2-0.4-0.3-0.6z"></path><path fill="#7c7c7c" d="m19 24.6c0.5-0.1 0.6-0.1 0.3 0 0 0.2 0 0.4-0.1 0.5 0-0.2-0.1-0.4-0.2-0.5z m1.1-0.1h0.7v0.6h-0.7v-0.6z"></path><path fill="#ededed" d="m20.2 24.6h0.4v0.4h-0.4v-0.4z"></path><path fill="#a4a4a4" d="m20.8 26c0.2 0 0.5 0 0.7 0.2-0.1 0.2-0.2 0.4-0.3 0.6-0.1-0.1-0.1-0.3-0.1-0.5-0.2 0-0.3-0.1-0.3-0.3z"></path><path fill="#919191" d="m15.5 26c0.1 0.1 0.3 0.1 0.4 0.3l0.2-0.1c0.2 0.2 0.2 0.4 0.1 0.6l-0.1-0.4c-0.1 0.1-0.3 0.1-0.4 0.1 0 0.1 0 0.2-0.1 0.3-0.1-0.2-0.2-0.5-0.1-0.8z"></path><path fill="#999" d="m16.7 26c0.2 0.1 0.3 0.1 0.5 0.3l0.3-0.3c0.1 0.3 0.1 0.6 0 0.8-0.1-0.1-0.2-0.3-0.2-0.4-0.1 0.1-0.2 0.1-0.4 0.1 0.1 0.1 0 0.2-0.1 0.3-0.1-0.2-0.1-0.5-0.1-0.8z"></path><path fill="#7b7b7b" d="m19.2 26c0.2 0.2 0.3 0.3 0.5 0.5l0.1-0.3c0.1 0.6-0.1 0.7-0.4 0.2l-0.2 0.3c0-0.2 0-0.4 0-0.7z"></path><path fill="#8c8c8c" d="m21.9 26.2c0.3 0.1 0.5 0.1 0.8 0-0.2 0.1-0.3 0.3-0.4 0.5-0.1-0.2-0.2-0.4-0.4-0.5z"></path><path fill="#9d9d9d" d="m13.2 26c0.3 0 0.5 0 0.7 0.2-0.2 0.1-0.4 0.1-0.6 0.1v0.3c0.2 0 0.4 0 0.6 0.1-0.2 0.1-0.4 0.2-0.7 0.1v-0.8z"></path><path fill="#b2b2b2" d="m14.3 26h0.7v0.8h-0.7v-0.8z"></path><path fill="#a1a1a1" d="m17.9 26c0.2 0.2 0.3 0.3 0.3 0.6h0.3c0-0.2 0-0.4 0.1-0.6 0.3 0.7 0.1 1-0.6 0.7-0.1-0.2-0.1-0.4-0.1-0.7z"></path><path fill="#838383" d="m19.3 27.7c0.2 0.1 0.4 0.2 0.5 0.4l0.1-0.4c0.1 0.3 0.1 0.5 0 0.7-0.3-0.4-0.4-0.4-0.5 0-0.1-0.2-0.1-0.4-0.1-0.7z"></path><path fill="#929292" d="m15.8 27.8c0.2-0.1 0.4-0.1 0.7 0-0.2 0.2-0.3 0.4-0.4 0.6 0-0.2-0.1-0.4-0.3-0.6z"></path><path fill="#8c8c8c" d="m16.9 27.7h0.7c0 0.3 0 0.5-0.1 0.7-0.2-0.3-0.4-0.3-0.5 0-0.1-0.2-0.1-0.4-0.1-0.7z"></path><path fill="#a5a5a5" d="m18.2 27.7h0.6v0.7h-0.6v-0.7z"></path><path fill="#a8a8a8" d="m18.8 29.3h0.7v0.8h-0.7v-0.8z"></path><path fill="#a0a0a0" d="m14 29.3c0.2 0.1 0.4 0.3 0.5 0.5 0-0.2 0.1-0.4 0.2-0.5 0.1 0.3 0.1 0.5 0 0.8-0.2-0.1-0.3-0.2-0.4-0.3 0 0.1-0.1 0.2-0.2 0.3-0.1-0.3-0.1-0.5-0.1-0.8z"></path><path fill="#7d7d7d" d="m15.2 29.4c0.7 0 0.7 0.1 0.2 0.2 0.4 0.1 0.4 0.1 0 0.3 0.5 0.1 0.5 0.2-0.2 0.2v-0.7z"></path><path fill="#a3a3a3" d="m16.3 29.3c0.2 0 0.4 0 0.6 0.1-0.1 0.2-0.2 0.4-0.3 0.7-0.1-0.3-0.2-0.5-0.3-0.8z"></path><path fill="#8a8a8a" d="m17.4 29.4c0.1 0.1 0.2 0.1 0.3 0.2 0.1-0.2 0.2-0.2 0.4 0 0.1-0.2 0.2-0.2 0.3-0.1l-0.3 0.6-0.2-0.5c-0.3 0.6-0.5 0.5-0.5-0.2z"></path><path fill="#979797" d="m20 29.3h0.6c0.1 0.3 0 0.5 0 0.8-0.2-0.3-0.4-0.3-0.6 0 0-0.3 0-0.5 0-0.8z"></path><path fill="#919191" d="m21.1 29.3c0.2 0 0.2 0.2 0.3 0.3 0.4-0.4 0.4-0.4 0.1 0.1 0.3 0.4 0.3 0.4-0.1 0.2l-0.2 0.2c-0.1-0.3-0.1-0.5-0.1-0.8z"></path></svg>