<?xml version="1.0" encoding="UTF-8"?>
<!DOCTYPE svg PUBLIC "-//W3C//DTD SVG 1.1//EN" "http://www.w3.org/Graphics/SVG/1.1/DTD/svg11.dtd">
<svg xmlns="http://www.w3.org/2000/svg" version="1.1" width="288px" height="320px" style="shape-rendering:geometricPrecision; text-rendering:geometricPrecision; image-rendering:optimizeQuality; fill-rule:evenodd; clip-rule:evenodd" xmlns:xlink="http://www.w3.org/1999/xlink">
<g><path style="opacity:1" fill="#fefefe" d="M -0.5,-0.5 C 95.5,-0.5 191.5,-0.5 287.5,-0.5C 287.5,106.167 287.5,212.833 287.5,319.5C 191.5,319.5 95.5,319.5 -0.5,319.5C -0.5,212.833 -0.5,106.167 -0.5,-0.5 Z"/></g>
<g><path style="opacity:1" fill="#40114d" d="M 127.5,47.5 C 133.5,46.1667 139.5,46.1667 145.5,47.5C 142.813,47.3359 140.146,47.5026 137.5,48C 141.465,49.0656 145.465,49.8989 149.5,50.5C 148.71,51.4013 147.71,52.0679 146.5,52.5C 142.753,52.6076 139.086,52.1076 135.5,51C 133.133,49.1552 130.467,47.9886 127.5,47.5 Z"/></g>
<g><path style="opacity:1" fill="#62117a" d="M 145.5,47.5 C 148.271,47.4207 150.937,47.9207 153.5,49C 152.255,49.7914 150.922,50.2914 149.5,50.5C 145.465,49.8989 141.465,49.0656 137.5,48C 140.146,47.5026 142.813,47.3359 145.5,47.5 Z"/></g>
<g><path style="opacity:1" fill="#120912" d="M 127.5,47.5 C 130.467,47.9886 133.133,49.1552 135.5,51C 139.086,52.1076 142.753,52.6076 146.5,52.5C 130.529,61.7612 116.029,73.0945 103,86.5C 102.333,85.8333 102.333,85.1667 103,84.5C 105.842,80.8033 108.675,77.1366 111.5,73.5C 114.296,70.2026 117.296,67.0359 120.5,64C 110.82,63.2272 102.654,66.3939 96,73.5C 95.5172,74.448 95.3505,75.448 95.5,76.5C 94.3647,78.0878 93.0314,78.4212 91.5,77.5C 98.3772,61.2845 110.377,51.2845 127.5,47.5 Z"/></g>
<g><path style="opacity:1" fill="#160e17" d="M 165.5,57.5 C 156.527,62.3207 147.86,67.654 139.5,73.5C 139.402,72.4514 139.402,71.2847 139.5,70C 138.022,67.9614 136.022,67.1281 133.5,67.5C 146.085,58.2356 160.085,51.7356 175.5,48C 178.5,47.3333 181.5,47.3333 184.5,48C 177.796,50.6854 171.462,53.8521 165.5,57.5 Z"/></g>
<g><path style="opacity:1" fill="#151316" d="M 192.5,55.5 C 171.876,62.1453 152.543,71.4786 134.5,83.5C 133.957,83.44 133.624,83.1067 133.5,82.5C 134.908,81.7568 136.241,80.9234 137.5,80C 136.833,79.6667 136.167,79.3333 135.5,79C 137.063,77.264 138.73,75.764 140.5,74.5C 149.374,69.2307 158.374,64.2307 167.5,59.5C 174.609,56.7209 181.943,54.5542 189.5,53C 193.362,52.0867 197.028,52.4201 200.5,54C 197.635,54.1829 194.969,54.6829 192.5,55.5 Z"/></g>
<g><path style="opacity:1" fill="#dcd9dd" d="M 192.5,55.5 C 189.96,57.666 190.627,58.666 194.5,58.5C 181.62,62.1052 169.287,67.1052 157.5,73.5C 146.843,78.1577 136.843,83.8244 127.5,90.5C 125.483,91.5294 123.483,92.5294 121.5,93.5C 121.833,92.8333 122.167,92.1667 122.5,91.5C 126.795,89.1923 130.795,86.5256 134.5,83.5C 152.543,71.4786 171.876,62.1453 192.5,55.5 Z"/></g>
<g><path style="opacity:1" fill="#d0ced2" d="M 165.5,57.5 C 165.833,58.5 166.5,59.1667 167.5,59.5C 158.374,64.2307 149.374,69.2307 140.5,74.5C 139.833,74.5 139.5,74.1667 139.5,73.5C 147.86,67.654 156.527,62.3207 165.5,57.5 Z"/></g>
<g><path style="opacity:1" fill="#261128" d="M 133.5,67.5 C 136.022,67.1281 138.022,67.9614 139.5,70C 139.402,71.2847 139.402,72.4514 139.5,73.5C 139.5,74.1667 139.833,74.5 140.5,74.5C 138.73,75.764 137.063,77.264 135.5,79C 136.167,79.3333 136.833,79.6667 137.5,80C 136.241,80.9234 134.908,81.7568 133.5,82.5C 133.624,83.1067 133.957,83.44 134.5,83.5C 130.795,86.5256 126.795,89.1923 122.5,91.5C 122.377,87.9601 124.043,85.9601 127.5,85.5C 130.388,85.7804 131.888,84.4471 132,81.5C 132.75,80.8742 133.584,80.3742 134.5,80C 131.953,76.7781 132.953,74.7781 137.5,74C 137.034,72.7012 137.034,71.2012 137.5,69.5C 132.893,71.1277 128.226,72.7944 123.5,74.5C 126.275,71.3954 129.608,69.0621 133.5,67.5 Z"/></g>
<g><path style="opacity:1" fill="#efecf0" d="M 204.5,65.5 C 200.252,72.4177 194.919,78.4177 188.5,83.5C 186.661,80.7042 184.994,77.7042 183.5,74.5C 183.03,73.3065 182.03,72.6399 180.5,72.5C 179.274,72.5195 178.274,72.8529 177.5,73.5C 173.521,73.7424 169.854,74.7424 166.5,76.5C 163.502,77.3416 160.502,77.8416 157.5,78C 158.858,77.0656 160.192,76.2323 161.5,75.5C 171.909,71.3084 182.575,67.8084 193.5,65C 197.358,64.1901 201.024,64.3567 204.5,65.5 Z"/></g>
<g><path style="opacity:1" fill="#472c83" d="M 111.5,73.5 C 105.925,73.4419 100.592,74.4419 95.5,76.5C 95.3505,75.448 95.5172,74.448 96,73.5C 102.654,66.3939 110.82,63.2272 120.5,64C 117.296,67.0359 114.296,70.2026 111.5,73.5 Z"/></g>
<g><path style="opacity:1" fill="#131215" d="M 207.5,69.5 C 207.5,68.1667 207.5,66.8333 207.5,65.5C 206.5,65.5 205.5,65.5 204.5,65.5C 201.024,64.3567 197.358,64.1901 193.5,65C 182.575,67.8084 171.909,71.3084 161.5,75.5C 160.395,74.3995 159.062,73.7329 157.5,73.5C 169.287,67.1052 181.62,62.1052 194.5,58.5C 199.223,57.0068 203.89,57.1735 208.5,59C 210.883,62.6741 210.55,66.1741 207.5,69.5 Z"/></g>
<g><path style="opacity:1" fill="#2d153f" d="M 204.5,65.5 C 205.5,65.5 206.5,65.5 207.5,65.5C 207.5,66.8333 207.5,68.1667 207.5,69.5C 202.608,77.2298 196.442,83.8965 189,89.5C 188.667,94.1667 188.333,98.8333 188,103.5C 187.768,104.737 187.268,105.737 186.5,106.5C 186.5,104.5 186.5,102.5 186.5,100.5C 187.12,94.7999 187.787,89.1333 188.5,83.5C 194.919,78.4177 200.252,72.4177 204.5,65.5 Z"/></g>
<g><path style="opacity:1" fill="#140b18" d="M 157.5,73.5 C 159.062,73.7329 160.395,74.3995 161.5,75.5C 160.192,76.2323 158.858,77.0656 157.5,78C 160.502,77.8416 163.502,77.3416 166.5,76.5C 166.082,77.2216 165.416,77.7216 164.5,78C 165.167,78.3333 165.833,78.6667 166.5,79C 164.19,79.4966 161.857,79.6633 159.5,79.5C 159.719,80.675 159.386,81.675 158.5,82.5C 156.736,80.5213 154.736,80.188 152.5,81.5C 153.09,82.7989 154.09,83.6322 155.5,84C 152.949,84.0023 150.949,84.8356 149.5,86.5C 141.903,89.2995 134.569,92.6329 127.5,96.5C 127.5,95.5 127.5,94.5 127.5,93.5C 132.421,93.3536 132.421,92.3536 127.5,90.5C 136.843,83.8244 146.843,78.1577 157.5,73.5 Z"/></g>
<g><path style="opacity:1" fill="#140529" d="M 177.5,73.5 C 176.449,74.2223 175.782,75.2223 175.5,76.5C 172.956,76.1043 170.789,76.771 169,78.5C 169.03,84.8371 168.197,91.0038 166.5,97C 168.04,99.0829 169.04,101.416 169.5,104C 169.532,105.971 168.698,107.471 167,108.5C 166.5,114.825 166.334,121.158 166.5,127.5C 163.282,127.651 162.949,128.484 165.5,130C 163.604,131.065 163.437,131.898 165,132.5C 166.723,130.92 168.556,129.42 170.5,128C 172.134,127.506 173.801,127.34 175.5,127.5C 171.07,133.218 165.403,137.218 158.5,139.5C 157.167,139.5 155.833,139.5 154.5,139.5C 152.863,139.705 151.196,139.205 149.5,138C 151.76,136.665 153.927,135.165 156,133.5C 156.279,130.615 155.612,127.948 154,125.5C 154.029,127.932 152.862,130.098 150.5,132C 149.207,132.49 147.873,132.657 146.5,132.5C 150.962,126.724 154.962,120.724 158.5,114.5C 159.833,105.833 159.833,97.1667 158.5,88.5C 157.326,86.766 155.66,85.766 153.5,85.5C 152.274,85.5195 151.274,85.8529 150.5,86.5C 150.167,86.5 149.833,86.5 149.5,86.5C 150.949,84.8356 152.949,84.0023 155.5,84C 154.09,83.6322 153.09,82.7989 152.5,81.5C 154.736,80.188 156.736,80.5213 158.5,82.5C 159.386,81.675 159.719,80.675 159.5,79.5C 161.857,79.6633 164.19,79.4966 166.5,79C 165.833,78.6667 165.167,78.3333 164.5,78C 165.416,77.7216 166.082,77.2216 166.5,76.5C 169.854,74.7424 173.521,73.7424 177.5,73.5 Z"/></g>
<g><path style="opacity:1" fill="#2d032d" d="M 127.5,85.5 C 126.971,81.8083 125.471,81.1416 123,83.5C 122.355,82.354 121.522,81.354 120.5,80.5C 121.376,79.7492 122.376,79.2492 123.5,79C 121.153,78.6664 118.819,78.833 116.5,79.5C 118.55,77.4525 120.883,75.7859 123.5,74.5C 128.226,72.7944 132.893,71.1277 137.5,69.5C 137.034,71.2012 137.034,72.7012 137.5,74C 132.953,74.7781 131.953,76.7781 134.5,80C 133.584,80.3742 132.75,80.8742 132,81.5C 131.888,84.4471 130.388,85.7804 127.5,85.5 Z"/></g>
<g><path style="opacity:1" fill="#460b5d" d="M 183.5,74.5 C 184.994,77.7042 186.661,80.7042 188.5,83.5C 187.787,89.1333 187.12,94.7999 186.5,100.5C 185.5,100.5 184.5,100.5 183.5,100.5C 183.665,97.4816 183.498,94.4816 183,91.5C 180.489,87.1384 178.655,82.4717 177.5,77.5C 178.246,73.8129 180.246,72.8129 183.5,74.5 Z"/></g>
<g><path style="opacity:1" fill="#310632" d="M 127.5,90.5 C 132.421,92.3536 132.421,93.3536 127.5,93.5C 127.5,94.5 127.5,95.5 127.5,96.5C 127.5,97.5 127.5,98.5 127.5,99.5C 124.104,99.8843 121.104,101.218 118.5,103.5C 117.624,103.631 116.957,103.298 116.5,102.5C 117.865,101.059 119.365,99.7256 121,98.5C 121.456,97.2559 120.956,96.4226 119.5,96C 120.381,95.2917 121.047,94.4584 121.5,93.5C 123.483,92.5294 125.483,91.5294 127.5,90.5 Z"/></g>
<g><path style="opacity:1" fill="#572b83" d="M 149.5,86.5 C 149.833,86.5 150.167,86.5 150.5,86.5C 148.069,88.0682 148.069,89.5682 150.5,91C 141.38,90.5492 141.38,91.8826 150.5,95C 149.5,95.3333 148.5,95.6667 147.5,96C 148.252,96.6708 148.586,97.5041 148.5,98.5C 136.122,99.9597 124.455,103.626 113.5,109.5C 113.167,108.833 112.833,108.167 112.5,107.5C 114.795,106.525 116.795,105.192 118.5,103.5C 121.104,101.218 124.104,99.8843 127.5,99.5C 127.5,98.5 127.5,97.5 127.5,96.5C 134.569,92.6329 141.903,89.2995 149.5,86.5 Z"/></g>
<g><path style="opacity:1" fill="#a92da6" d="M 101.5,92.5 C 103.5,92.5 104.5,93.5 104.5,95.5C 96.0871,102.411 88.9204,110.411 83,119.5C 82.3457,120.696 81.8457,120.696 81.5,119.5C 81.8627,118.817 82.1961,118.15 82.5,117.5C 87.682,108.315 94.0153,99.9812 101.5,92.5 Z"/></g>
<g><path style="opacity:1" fill="#50094e" d="M 127.5,85.5 C 124.043,85.9601 122.377,87.9601 122.5,91.5C 122.167,92.1667 121.833,92.8333 121.5,93.5C 121.047,94.4584 120.381,95.2917 119.5,96C 120.956,96.4226 121.456,97.2559 121,98.5C 119.365,99.7256 117.865,101.059 116.5,102.5C 116.957,103.298 117.624,103.631 118.5,103.5C 116.795,105.192 114.795,106.525 112.5,107.5C 111.288,105.736 111.621,104.07 113.5,102.5C 112.147,101.476 111.48,100.143 111.5,98.5C 112.833,98.5 114.167,98.5 115.5,98.5C 115.33,97.1779 115.663,96.0113 116.5,95C 115.975,94.3076 115.308,93.8076 114.5,93.5C 112.821,95.1045 110.821,95.7711 108.5,95.5C 111.629,91.8691 114.963,88.3691 118.5,85C 118.167,84.8333 117.833,84.6667 117.5,84.5C 112.95,87.9371 108.617,91.6038 104.5,95.5C 104.5,93.5 103.5,92.5 101.5,92.5C 106.179,87.8223 111.179,83.489 116.5,79.5C 118.819,78.833 121.153,78.6664 123.5,79C 122.376,79.2492 121.376,79.7492 120.5,80.5C 121.522,81.354 122.355,82.354 123,83.5C 125.471,81.1416 126.971,81.8083 127.5,85.5 Z"/></g>
<g><path style="opacity:1" fill="#faf8fa" d="M 148.5,98.5 C 149.746,121.642 138.746,133.975 115.5,135.5C 111.866,134.603 108.366,133.27 105,131.5C 98.9415,133.212 92.7748,134.212 86.5,134.5C 87.5,132.5 88.5,130.5 89.5,128.5C 93.6225,123.887 97.9559,119.554 102.5,115.5C 106.007,113.246 109.673,111.246 113.5,109.5C 124.455,103.626 136.122,99.9597 148.5,98.5 Z"/></g>
<g><path style="opacity:1" fill="#6c0c6a" d="M 112.5,107.5 C 112.833,108.167 113.167,108.833 113.5,109.5C 109.673,111.246 106.007,113.246 102.5,115.5C 103.171,114.153 103.171,112.986 102.5,112C 105.051,110.484 104.718,109.651 101.5,109.5C 101.5,108.167 101.5,106.833 101.5,105.5C 102.833,105.5 104.167,105.5 105.5,105.5C 105.762,104.022 105.429,102.689 104.5,101.5C 103.378,102.63 102.044,103.297 100.5,103.5C 102.833,100.5 105.5,97.8333 108.5,95.5C 110.821,95.7711 112.821,95.1045 114.5,93.5C 115.308,93.8076 115.975,94.3076 116.5,95C 115.663,96.0113 115.33,97.1779 115.5,98.5C 114.167,98.5 112.833,98.5 111.5,98.5C 111.48,100.143 112.147,101.476 113.5,102.5C 111.621,104.07 111.288,105.736 112.5,107.5 Z"/></g>
<g><path style="opacity:1" fill="#1c0430" d="M 175.5,76.5 C 177.311,83.2341 177.311,90.0674 175.5,97C 175.275,101.397 175.942,105.564 177.5,109.5C 177.392,110.442 177.059,111.275 176.5,112C 177.308,112.308 177.975,112.808 178.5,113.5C 177.422,115.401 176.422,116.901 175.5,118C 175.667,118.833 175.833,119.667 176,120.5C 177.011,119.663 178.178,119.33 179.5,119.5C 180.782,115.81 182.282,111.81 184,107.5C 184.671,106.748 185.504,106.414 186.5,106.5C 185.173,114.824 181.507,121.824 175.5,127.5C 173.801,127.34 172.134,127.506 170.5,128C 168.556,129.42 166.723,130.92 165,132.5C 163.437,131.898 163.604,131.065 165.5,130C 162.949,128.484 163.282,127.651 166.5,127.5C 166.334,121.158 166.5,114.825 167,108.5C 168.698,107.471 169.532,105.971 169.5,104C 169.04,101.416 168.04,99.0829 166.5,97C 168.197,91.0038 169.03,84.8371 169,78.5C 170.789,76.771 172.956,76.1043 175.5,76.5 Z"/></g>
<g><path style="opacity:1" fill="#f8e7f8" d="M 108.5,95.5 C 105.5,97.8333 102.833,100.5 100.5,103.5C 94.8387,109.496 90.172,116.163 86.5,123.5C 85.8333,123.833 85.1667,124.167 84.5,124.5C 84.5858,123.504 84.2524,122.671 83.5,122C 81.9154,121.915 80.5821,121.749 79.5,121.5C 79.8148,119.517 80.8148,118.184 82.5,117.5C 82.1961,118.15 81.8627,118.817 81.5,119.5C 81.8457,120.696 82.3457,120.696 83,119.5C 88.9204,110.411 96.0871,102.411 104.5,95.5C 108.617,91.6038 112.95,87.9371 117.5,84.5C 117.833,84.6667 118.167,84.8333 118.5,85C 114.963,88.3691 111.629,91.8691 108.5,95.5 Z"/></g>
<g><path style="opacity:1" fill="#a417a2" d="M 102.5,115.5 C 97.9559,119.554 93.6225,123.887 89.5,128.5C 89.3801,126.266 89.7135,124.099 90.5,122C 90.1667,121.5 89.8333,121 89.5,120.5C 88.7124,121.77 87.7124,122.77 86.5,123.5C 90.172,116.163 94.8387,109.496 100.5,103.5C 102.044,103.297 103.378,102.63 104.5,101.5C 105.429,102.689 105.762,104.022 105.5,105.5C 104.167,105.5 102.833,105.5 101.5,105.5C 101.5,106.833 101.5,108.167 101.5,109.5C 104.718,109.651 105.051,110.484 102.5,112C 103.171,112.986 103.171,114.153 102.5,115.5 Z"/></g>
<g><path style="opacity:1" fill="#3f2d8d" d="M 146.5,132.5 C 140.478,135.337 134.145,137.337 127.5,138.5C 123.232,138.131 119.232,137.131 115.5,135.5C 138.746,133.975 149.746,121.642 148.5,98.5C 148.586,97.5041 148.252,96.6708 147.5,96C 148.5,95.6667 149.5,95.3333 150.5,95C 141.38,91.8826 141.38,90.5492 150.5,91C 148.069,89.5682 148.069,88.0682 150.5,86.5C 151.274,85.8529 152.274,85.5195 153.5,85.5C 155.66,85.766 157.326,86.766 158.5,88.5C 159.833,97.1667 159.833,105.833 158.5,114.5C 154.962,120.724 150.962,126.724 146.5,132.5 Z"/></g>
<g><path style="opacity:1" fill="#26053f" d="M 183.5,74.5 C 180.246,72.8129 178.246,73.8129 177.5,77.5C 178.655,82.4717 180.489,87.1384 183,91.5C 183.498,94.4816 183.665,97.4816 183.5,100.5C 184.5,100.5 185.5,100.5 186.5,100.5C 186.5,102.5 186.5,104.5 186.5,106.5C 185.504,106.414 184.671,106.748 184,107.5C 182.282,111.81 180.782,115.81 179.5,119.5C 178.178,119.33 177.011,119.663 176,120.5C 175.833,119.667 175.667,118.833 175.5,118C 176.422,116.901 177.422,115.401 178.5,113.5C 177.975,112.808 177.308,112.308 176.5,112C 177.059,111.275 177.392,110.442 177.5,109.5C 175.942,105.564 175.275,101.397 175.5,97C 177.311,90.0674 177.311,83.2341 175.5,76.5C 175.782,75.2223 176.449,74.2223 177.5,73.5C 178.274,72.8529 179.274,72.5195 180.5,72.5C 182.03,72.6399 183.03,73.3065 183.5,74.5 Z"/></g>
<g><path style="opacity:1" fill="#d62fd4" d="M 89.5,128.5 C 88.5,130.5 87.5,132.5 86.5,134.5C 85.7281,135.694 84.7281,136.694 83.5,137.5C 81.7538,136.751 80.7538,135.417 80.5,133.5C 81.8528,130.489 83.1862,127.489 84.5,124.5C 85.1667,124.167 85.8333,123.833 86.5,123.5C 87.7124,122.77 88.7124,121.77 89.5,120.5C 89.8333,121 90.1667,121.5 90.5,122C 89.7135,124.099 89.3801,126.266 89.5,128.5 Z"/></g>
<g><path style="opacity:1" fill="#171318" d="M 115.5,135.5 C 119.232,137.131 123.232,138.131 127.5,138.5C 127.369,139.376 127.702,140.043 128.5,140.5C 130.059,139.553 131.726,138.887 133.5,138.5C 140.444,141.887 147.444,142.221 154.5,139.5C 155.833,139.5 157.167,139.5 158.5,139.5C 147.296,144.95 135.629,145.784 123.5,142C 118.331,139.66 113.164,137.494 108,135.5C 104.172,136.331 100.339,137.164 96.5,138C 91.9796,138.814 87.6463,138.647 83.5,137.5C 84.7281,136.694 85.7281,135.694 86.5,134.5C 92.7748,134.212 98.9415,133.212 105,131.5C 108.366,133.27 111.866,134.603 115.5,135.5 Z"/></g>
<g><path style="opacity:1" fill="#08021b" d="M 154.5,139.5 C 147.444,142.221 140.444,141.887 133.5,138.5C 131.726,138.887 130.059,139.553 128.5,140.5C 127.702,140.043 127.369,139.376 127.5,138.5C 134.145,137.337 140.478,135.337 146.5,132.5C 147.873,132.657 149.207,132.49 150.5,132C 152.862,130.098 154.029,127.932 154,125.5C 155.612,127.948 156.279,130.615 156,133.5C 153.927,135.165 151.76,136.665 149.5,138C 151.196,139.205 152.863,139.705 154.5,139.5 Z"/></g>
<g><path style="opacity:1" fill="#626262" d="M 151.5,167.5 C 145.833,167.5 140.167,167.5 134.5,167.5C 134.5,168.5 134.5,169.5 134.5,170.5C 133.566,169.432 133.232,168.099 133.5,166.5C 139.69,166.177 145.69,166.51 151.5,167.5 Z"/></g>
<g><path style="opacity:1" fill="#171717" d="M 120.5,167.5 C 121.117,167.611 121.617,167.944 122,168.5C 123.023,172.317 122.523,175.817 120.5,179C 115.177,179.499 109.844,179.666 104.5,179.5C 104.5,181.5 104.5,183.5 104.5,185.5C 103.5,185.5 102.5,185.5 101.5,185.5C 101.5,179.5 101.5,173.5 101.5,167.5C 107.833,167.5 114.167,167.5 120.5,167.5 Z"/></g>
<g><path style="opacity:1" fill="#1d1d1d" d="M 163.5,166.5 C 169.842,166.334 176.175,166.5 182.5,167C 184.523,170.183 185.023,173.683 184,177.5C 183.5,178 183,178.5 182.5,179C 177.511,179.499 172.511,179.666 167.5,179.5C 167.5,181.5 167.5,183.5 167.5,185.5C 166.167,185.5 164.833,185.5 163.5,185.5C 163.5,179.167 163.5,172.833 163.5,166.5 Z"/></g>
<g><path style="opacity:1" fill="#ebebeb" d="M 104.5,170.5 C 109.167,170.5 113.833,170.5 118.5,170.5C 118.5,172.167 118.5,173.833 118.5,175.5C 113.833,175.5 109.167,175.5 104.5,175.5C 104.5,173.833 104.5,172.167 104.5,170.5 Z"/></g>
<g><path style="opacity:1" fill="#e6e6e6" d="M 166.5,170.5 C 171.5,170.5 176.5,170.5 181.5,170.5C 181.5,172.167 181.5,173.833 181.5,175.5C 176.5,175.5 171.5,175.5 166.5,175.5C 166.5,173.833 166.5,172.167 166.5,170.5 Z"/></g>
<g><path style="opacity:1" fill="#777777" d="M 120.5,167.5 C 114.167,167.5 107.833,167.5 101.5,167.5C 101.5,173.5 101.5,179.5 101.5,185.5C 100.51,179.355 100.177,173.022 100.5,166.5C 107.354,166.176 114.021,166.509 120.5,167.5 Z"/></g>
<g><path style="opacity:1" fill="#101010" d="M 151.5,167.5 C 152.117,167.611 152.617,167.944 153,168.5C 154.004,171.993 153.504,175.159 151.5,178C 146.177,178.499 140.844,178.666 135.5,178.5C 135.5,179.5 135.5,180.5 135.5,181.5C 141.5,181.5 147.5,181.5 153.5,181.5C 153.5,182.833 153.5,184.167 153.5,185.5C 146.5,185.5 139.5,185.5 132.5,185.5C 132.335,182.482 132.502,179.482 133,176.5C 133.5,176 134,175.5 134.5,175C 139.823,174.501 145.156,174.334 150.5,174.5C 150.5,173.167 150.5,171.833 150.5,170.5C 145.167,170.5 139.833,170.5 134.5,170.5C 134.5,169.5 134.5,168.5 134.5,167.5C 140.167,167.5 145.833,167.5 151.5,167.5 Z"/></g>
<g><path style="opacity:1" fill="#8160ba" d="M 100.5,193.5 C 102.833,193.5 105.167,193.5 107.5,193.5C 107.5,194.833 107.5,196.167 107.5,197.5C 105.179,197.229 103.179,197.896 101.5,199.5C 100.534,197.604 100.201,195.604 100.5,193.5 Z"/></g>
<g><path style="opacity:1" fill="#6942b1" d="M 159.5,193.5 C 161.527,193.338 163.527,193.505 165.5,194C 164.167,194.333 162.833,194.667 161.5,195C 165.5,196 165.5,197 161.5,198C 162.833,198.333 164.167,198.667 165.5,199C 163.527,199.495 161.527,199.662 159.5,199.5C 159.5,197.5 159.5,195.5 159.5,193.5 Z"/></g>
<g><path style="opacity:1" fill="#eddffa" d="M 159.5,193.5 C 162.972,192.816 166.305,192.816 169.5,193.5C 169.5,195.5 169.5,197.5 169.5,199.5C 170.833,199.5 172.167,199.5 173.5,199.5C 168.833,200.833 164.167,200.833 159.5,199.5C 161.527,199.662 163.527,199.495 165.5,199C 164.167,198.667 162.833,198.333 161.5,198C 165.5,197 165.5,196 161.5,195C 162.833,194.667 164.167,194.333 165.5,194C 163.527,193.505 161.527,193.338 159.5,193.5 Z"/></g>
<g><path style="opacity:1" fill="#2e0f7f" d="M 169.5,193.5 C 175.167,193.664 175.5,193.997 170.5,194.5C 170.5,195.833 170.5,197.167 170.5,198.5C 172.099,198.232 173.432,198.566 174.5,199.5C 174.167,199.5 173.833,199.5 173.5,199.5C 172.167,199.5 170.833,199.5 169.5,199.5C 169.5,197.5 169.5,195.5 169.5,193.5 Z"/></g>
<g><path style="opacity:1" fill="#51259d" d="M 129.5,193.5 C 131.5,193.5 133.5,193.5 135.5,193.5C 135.662,195.527 135.495,197.527 135,199.5C 133.437,196.956 131.937,196.956 130.5,199.5C 129.534,197.604 129.201,195.604 129.5,193.5 Z"/></g>
<g><path style="opacity:1" fill="#e9c2ff" d="M 131.5,194.5 C 132.675,194.281 133.675,194.614 134.5,195.5C 132.948,196.798 131.948,196.465 131.5,194.5 Z"/></g>
<g><path style="opacity:1" fill="#6d49af" d="M 140.5,194.5 C 141.919,193.549 143.585,193.216 145.5,193.5C 145.5,194.833 145.5,196.167 145.5,197.5C 140.206,197.682 140.206,198.182 145.5,199C 143.527,199.495 141.527,199.662 139.5,199.5C 139.433,196.234 141.099,194.734 144.5,195C 143.207,194.51 141.873,194.343 140.5,194.5 Z"/></g>
<g><path style="opacity:1" fill="#8260c4" d="M 149.5,193.5 C 151.833,193.5 154.167,193.5 156.5,193.5C 156.5,194.833 156.5,196.167 156.5,197.5C 154.179,197.229 152.179,197.896 150.5,199.5C 149.534,197.604 149.201,195.604 149.5,193.5 Z"/></g>
<g><path style="opacity:1" fill="#c5a8ea" d="M 169.5,193.5 C 171.265,192.539 173.265,192.205 175.5,192.5C 174.639,195.032 174.305,197.365 174.5,199.5C 173.432,198.566 172.099,198.232 170.5,198.5C 170.5,197.167 170.5,195.833 170.5,194.5C 175.5,193.997 175.167,193.664 169.5,193.5 Z"/></g>
<g><path style="opacity:1" fill="#9976c9" d="M 179.5,193.5 C 180.718,194.161 182.051,194.828 183.5,195.5C 181.602,195.996 180.602,196.663 180.5,197.5C 180.631,198.376 180.298,199.043 179.5,199.5C 178.207,197.364 178.207,195.364 179.5,193.5 Z"/></g>
<g><path style="opacity:1" fill="#412082" d="M 179.5,193.5 C 181.167,193.5 182.833,193.5 184.5,193.5C 184.662,195.527 184.495,197.527 184,199.5C 183.184,198.177 182.017,197.511 180.5,197.5C 180.602,196.663 181.602,195.996 183.5,195.5C 182.051,194.828 180.718,194.161 179.5,193.5 Z"/></g>
<g><path style="opacity:1" fill="#e8d8f9" d="M 125.5,194.5 C 126.167,196.5 126.833,198.5 127.5,200.5C 123.785,200.577 120.119,200.244 116.5,199.5C 114.393,200.468 112.059,200.802 109.5,200.5C 109.5,197.833 109.5,195.167 109.5,192.5C 114.086,192.98 118.586,192.98 123,192.5C 124.167,192.833 125.333,193.167 126.5,193.5C 126.376,194.107 126.043,194.44 125.5,194.5 Z"/></g>
<g><path style="opacity:1" fill="#482894" d="M 125.5,194.5 C 120.959,194.331 120.626,194.998 124.5,196.5C 123.624,197.251 122.624,197.751 121.5,198C 126.541,199.008 126.208,199.508 120.5,199.5C 120.5,197.5 120.5,195.5 120.5,193.5C 122.415,193.216 124.081,193.549 125.5,194.5 Z"/></g>
<g><path style="opacity:1" fill="#513093" d="M 116.5,199.5 C 114.5,199.5 112.5,199.5 110.5,199.5C 110.5,197.5 110.5,195.5 110.5,193.5C 112.527,193.338 114.527,193.505 116.5,194C 115.167,194.333 113.833,194.667 112.5,195C 116.5,196 116.5,197 112.5,198C 114.058,198.21 115.391,198.71 116.5,199.5 Z"/></g>
<g><path style="opacity:1" fill="#9f9f9f" d="M 141.5,217.5 C 143.833,217.5 146.167,217.5 148.5,217.5C 148.5,218.833 148.5,220.167 148.5,221.5C 146.179,221.229 144.179,221.896 142.5,223.5C 141.534,221.604 141.201,219.604 141.5,217.5 Z"/></g>
<g><path style="opacity:1" fill="#767676" d="M 109.5,217.5 C 111.527,217.338 113.527,217.505 115.5,218C 113.866,218.494 112.199,218.66 110.5,218.5C 110.5,219.833 110.5,221.167 110.5,222.5C 112.199,222.34 113.866,222.506 115.5,223C 113.527,223.495 111.527,223.662 109.5,223.5C 109.5,221.5 109.5,219.5 109.5,217.5 Z"/></g>
<g><path style="opacity:1" fill="#8c8c8c" d="M 120.5,217.5 C 122.5,217.5 124.5,217.5 126.5,217.5C 126.365,219.924 126.032,221.924 125.5,223.5C 124.5,222.833 123.5,222.167 122.5,221.5C 121.808,222.025 121.308,222.692 121,223.5C 120.505,221.527 120.338,219.527 120.5,217.5 Z"/></g>
<g><path style="opacity:1" fill="#979797" d="M 131.5,217.5 C 133.5,218.626 135.5,218.793 137.5,218C 136.134,219.6 135.134,221.433 134.5,223.5C 133.451,221.472 132.451,219.472 131.5,217.5 Z"/></g>
<g><path style="opacity:1" fill="#7c7c7c" d="M 152.5,218.5 C 156.908,217.373 157.908,217.373 155.5,218.5C 155.66,220.199 155.494,221.866 155,223.5C 154.95,221.256 154.117,219.589 152.5,218.5 Z"/></g>
<g><path style="opacity:1" fill="#7c7c7c" d="M 162.5,217.5 C 164.5,217.5 166.5,217.5 168.5,217.5C 168.5,219.5 168.5,221.5 168.5,223.5C 166.5,223.5 164.5,223.5 162.5,223.5C 162.5,221.5 162.5,219.5 162.5,217.5 Z"/></g>
<g><path style="opacity:1" fill="#ededed" d="M 163.5,218.5 C 164.833,218.5 166.167,218.5 167.5,218.5C 167.5,219.833 167.5,221.167 167.5,222.5C 166.167,222.5 164.833,222.5 163.5,222.5C 163.5,221.167 163.5,219.833 163.5,218.5 Z"/></g>
<g><path style="opacity:1" fill="#a4a4a4" d="M 168.5,231.5 C 170.924,231.192 173.257,231.526 175.5,232.5C 174.173,234.311 173.173,236.311 172.5,238.5C 171.548,236.955 171.215,235.288 171.5,233.5C 169.821,233.715 168.821,233.048 168.5,231.5 Z"/></g>
<g><path style="opacity:1" fill="#919191" d="M 121.5,231.5 C 123.044,231.703 124.378,232.37 125.5,233.5C 126.167,233.167 126.833,232.833 127.5,232.5C 128.641,234.421 128.808,236.421 128,238.5C 127.667,237.167 127.333,235.833 127,234.5C 125.989,235.337 124.822,235.67 123.5,235.5C 123.719,236.675 123.386,237.675 122.5,238.5C 121.526,236.257 121.192,233.924 121.5,231.5 Z"/></g>
<g><path style="opacity:1" fill="#999999" d="M 132.5,231.5 C 134.044,231.703 135.378,232.37 136.5,233.5C 137.5,232.833 138.5,232.167 139.5,231.5C 140.833,233.833 140.833,236.167 139.5,238.5C 138.719,237.271 138.219,235.938 138,234.5C 136.989,235.337 135.822,235.67 134.5,235.5C 134.719,236.675 134.386,237.675 133.5,238.5C 132.526,236.257 132.192,233.924 132.5,231.5 Z"/></g>
<g><path style="opacity:1" fill="#7b7b7b" d="M 154.5,231.5 C 156.129,232.625 157.629,233.959 159,235.5C 159.333,234.5 159.667,233.5 160,232.5C 160.844,238.121 159.511,238.787 156,234.5C 155.667,235.5 155.333,236.5 155,237.5C 154.505,235.527 154.338,233.527 154.5,231.5 Z"/></g>
<g><path style="opacity:1" fill="#8c8c8c" d="M 178.5,232.5 C 180.898,233.562 183.231,233.562 185.5,232.5C 184.139,234.028 182.972,235.695 182,237.5C 181.777,235.119 180.61,233.453 178.5,232.5 Z"/></g>
<g><path style="opacity:1" fill="#9d9d9d" d="M 101.5,231.5 C 103.604,231.201 105.604,231.534 107.5,232.5C 105.955,233.452 104.288,233.785 102.5,233.5C 102.5,234.5 102.5,235.5 102.5,236.5C 104.288,236.215 105.955,236.548 107.5,237.5C 105.604,238.466 103.604,238.799 101.5,238.5C 101.5,236.167 101.5,233.833 101.5,231.5 Z"/></g>
<g><path style="opacity:1" fill="#b2b2b2" d="M 111.5,231.5 C 113.5,231.5 115.5,231.5 117.5,231.5C 117.5,233.833 117.5,236.167 117.5,238.5C 115.5,238.5 113.5,238.5 111.5,238.5C 111.5,236.167 111.5,233.833 111.5,231.5 Z"/></g>
<g><path style="opacity:1" fill="#a1a1a1" d="M 143.5,231.5 C 145.256,232.552 145.923,234.219 145.5,236.5C 146.5,236.5 147.5,236.5 148.5,236.5C 148.215,234.712 148.548,233.045 149.5,231.5C 151.89,237.608 150.056,239.608 144,237.5C 143.505,235.527 143.338,233.527 143.5,231.5 Z"/></g>
<g><path style="opacity:1" fill="#838383" d="M 155.5,246.5 C 157.371,246.859 158.871,247.859 160,249.5C 160.333,248.5 160.667,247.5 161,246.5C 161.808,248.579 161.641,250.579 160.5,252.5C 158.663,248.787 157.163,248.787 156,252.5C 155.505,250.527 155.338,248.527 155.5,246.5 Z"/></g>
<g><path style="opacity:1" fill="#929292" d="M 124.5,247.5 C 126.288,246.378 128.288,246.211 130.5,247C 129.08,248.53 128.08,250.363 127.5,252.5C 126.999,250.345 125.999,248.678 124.5,247.5 Z"/></g>
<g><path style="opacity:1" fill="#8c8c8c" d="M 134.5,246.5 C 136.5,246.5 138.5,246.5 140.5,246.5C 140.365,248.924 140.032,250.924 139.5,252.5C 137.88,249.942 136.38,249.942 135,252.5C 134.505,250.527 134.338,248.527 134.5,246.5 Z"/></g>
<g><path style="opacity:1" fill="#a5a5a5" d="M 145.5,246.5 C 147.5,246.5 149.5,246.5 151.5,246.5C 151.5,248.5 151.5,250.5 151.5,252.5C 149.5,252.5 147.5,252.5 145.5,252.5C 145.5,250.5 145.5,248.5 145.5,246.5 Z"/></g>
<g><path style="opacity:1" fill="#a8a8a8" d="M 151.5,260.5 C 153.5,260.5 155.5,260.5 157.5,260.5C 157.5,262.833 157.5,265.167 157.5,267.5C 155.5,267.5 153.5,267.5 151.5,267.5C 151.5,265.167 151.5,262.833 151.5,260.5 Z"/></g>
<g><path style="opacity:1" fill="#a0a0a0" d="M 108.5,260.5 C 110.193,261.475 111.693,262.808 113,264.5C 113.219,263.062 113.719,261.729 114.5,260.5C 115.833,262.833 115.833,265.167 114.5,267.5C 113.186,266.687 112.019,265.687 111,264.5C 110.751,265.624 110.251,266.624 109.5,267.5C 108.526,265.257 108.192,262.924 108.5,260.5 Z"/></g>
<g><path style="opacity:1" fill="#7d7d7d" d="M 119.5,261.5 C 125.208,261.492 125.541,261.992 120.5,263C 124.361,263.569 124.361,264.402 120.5,265.5C 125.657,266.987 125.324,267.653 119.5,267.5C 119.5,265.5 119.5,263.5 119.5,261.5 Z"/></g>
<g><path style="opacity:1" fill="#a3a3a3" d="M 128.5,260.5 C 130.604,260.201 132.604,260.534 134.5,261.5C 133.173,263.311 132.173,265.311 131.5,267.5C 130.593,265.061 129.593,262.728 128.5,260.5 Z"/></g>
<g><path style="opacity:1" fill="#8a8a8a" d="M 138.5,261.5 C 139.458,261.953 140.292,262.619 141,263.5C 142.154,261.043 143.488,261.043 145,263.5C 145.535,261.729 146.369,261.396 147.5,262.5C 146.667,264.167 145.833,265.833 145,267.5C 144.333,266.167 143.667,264.833 143,263.5C 140.591,268.39 139.091,267.723 138.5,261.5 Z"/></g>
<g><path style="opacity:1" fill="#979797" d="M 161.5,260.5 C 163.5,260.5 165.5,260.5 167.5,260.5C 167.663,262.857 167.497,265.19 167,267.5C 165.216,264.997 163.549,264.997 162,267.5C 161.503,265.19 161.337,262.857 161.5,260.5 Z"/></g>
<g><path style="opacity:1" fill="#919191" d="M 171.5,260.5 C 172.931,260.881 173.764,261.881 174,263.5C 177.508,259.389 178.008,259.556 175.5,264C 178.186,267.476 177.853,267.976 174.5,265.5C 173.833,266.167 173.167,266.833 172.5,267.5C 171.526,265.257 171.192,262.924 171.5,260.5 Z"/></g>
</svg>
