<svg xmlns="http://www.w3.org/2000/svg" width="288" height="320" viewBox="0 0 288 320" version="1.1">
	<path fill-opacity="0.220" d="M 127.402 47.486 C 112.175 50.798, 98.272 62.298, 92.463 76.384 C 90.937 80.084, 90.947 80.229, 92.681 79.470 C 97.862 77.199, 108.367 73.928, 109.622 74.195 C 110.647 74.413, 109.882 76.060, 106.944 79.962 C 99.476 89.882, 99.794 91.046, 107.814 83.142 C 117.295 73.796, 129.797 64.312, 143.636 55.965 C 149.376 52.503, 153.718 49.343, 153.286 48.942 C 152.034 47.782, 142.295 45.993, 137.701 46.079 C 135.390 46.123, 130.756 46.756, 127.402 47.486 M 173.500 48.903 C 141.659 56.891, 100.610 87.406, 84.841 114.809 C 81.269 121.016, 81.552 122.760, 85.241 117.270 C 88.376 112.603, 100.466 100.316, 109.059 93.063 L 115.500 87.626 110.926 92.563 C 93.630 111.233, 80.002 131.282, 81.469 135.901 C 82.915 140.458, 90.580 140.976, 104.227 137.441 C 109.946 135.959, 109.962 135.961, 115.235 138.937 C 126.734 145.427, 143.658 146.779, 156.289 142.215 C 174.722 135.556, 187.658 118.495, 188.766 99.381 L 189.237 91.262 197.278 83.381 C 212.505 68.457, 215.297 59.654, 205.232 58.304 C 194.373 56.848, 168.478 66.467, 140.250 82.444 C 129.351 88.612, 133.511 85.350, 145.870 78.036 C 168.116 64.872, 191.024 55.102, 199.980 54.960 L 202.500 54.920 199.878 53.495 C 194.307 50.468, 177.128 55.305, 157.250 65.498 C 150.512 68.953, 145 71.594, 145 71.367 C 145 71.141, 148.713 68.544, 153.250 65.597 C 162.096 59.852, 174.424 53.451, 182.457 50.433 C 186.975 48.735, 187.197 48.509, 184.957 47.885 C 181.515 46.925, 181.316 46.942, 173.500 48.903 M 195 66 C 185.948 67.538, 160.073 76.406, 161.238 77.571 C 161.426 77.759, 164.936 76.878, 169.040 75.613 C 173.143 74.348, 178.158 73.003, 180.184 72.623 L 183.869 71.934 186.062 77.949 L 188.255 83.963 191.377 81.367 C 194.709 78.596, 201.541 70.726, 203.030 67.943 C 204.650 64.917, 203.299 64.590, 195 66 M 137.081 101.595 C 127.318 104.480, 116.362 108.913, 108.591 113.122 C 103.509 115.874, 88 130.909, 88 133.083 C 88 134.304, 91.957 134.240, 99.685 132.894 C 105.043 131.961, 106.563 132.039, 109.419 133.394 C 113.828 135.487, 123.310 135.454, 129.572 133.324 C 136.274 131.045, 145.045 122.274, 147.324 115.572 C 148.246 112.861, 149 108.024, 149 104.822 C 149 97.924, 149.262 97.995, 137.081 101.595 M 101 176.500 C 101 185.967, 101.009 186, 103.500 186 C 105.611 186, 106 185.533, 106 183 L 106 180 113.300 180 C 117.644 180, 121.086 179.514, 121.800 178.800 C 122.460 178.140, 123 175.755, 123 173.500 C 123 171.245, 122.460 168.860, 121.800 168.200 C 121.030 167.430, 117.089 167, 110.800 167 L 101 167 101 176.500 M 134 169 C 134 170.833, 134.667 171, 142 171 C 149.333 171, 150 171.167, 150 173 C 150 174.833, 149.333 175, 142.035 175 C 133.077 175, 132 175.798, 132 182.434 L 132 186 143.406 186 C 154.320 186, 154.790 185.914, 154.290 184 C 153.819 182.201, 152.926 182, 145.383 182 C 138.701 182, 137 181.704, 137 180.540 C 137 179.402, 138.818 179.017, 145.250 178.790 L 153.500 178.500 153.811 173.597 C 154.017 170.351, 153.679 168.412, 152.811 167.862 C 152.090 167.405, 147.563 167.024, 142.750 167.015 C 134.662 167.001, 134 167.151, 134 169 M 163.833 167.977 C 163.650 168.514, 163.646 172.789, 163.823 177.477 C 164.113 185.113, 164.347 186, 166.073 186 C 167.547 186, 168 185.295, 168 183 L 168 180 175.965 180 C 182.816 180, 184.074 179.730, 184.965 178.066 C 186.370 175.441, 186.273 169.673, 184.800 168.200 C 183.330 166.730, 164.328 166.528, 163.833 167.977 M 106 173 C 106 174.202, 106.699 175.038, 107.750 175.096 C 117.881 175.652, 118.493 175.550, 118.820 173.250 C 119.123 171.113, 118.810 171, 112.570 171 C 106.667 171, 106 171.203, 106 173 M 168 172.899 C 168 174.412, 168.865 174.870, 172.250 175.149 C 178.773 175.688, 181 175.123, 181 172.930 C 181 171.221, 180.255 171, 174.500 171 C 168.782 171, 168 171.228, 168 172.899 M 101.452 193.882 C 100.556 194.778, 101.024 200, 102 200 C 102.550 200, 103 199.550, 103 199 C 103 198.450, 104.156 198, 105.570 198 C 107.637 198, 108.077 197.576, 107.820 195.833 C 107.584 194.238, 106.760 193.634, 104.702 193.548 C 103.163 193.483, 101.700 193.633, 101.452 193.882 M 111 196.739 C 111 199.772, 111.227 199.993, 114.250 199.900 C 117.329 199.806, 117.369 199.759, 115 199 C 113.333 198.466, 113.083 198.166, 114.250 198.100 C 115.213 198.045, 116 197.583, 116 197.073 C 116 196.564, 115.213 195.941, 114.250 195.689 C 112.933 195.345, 113.057 195.203, 114.750 195.116 C 115.987 195.052, 117 194.603, 117 194.117 C 117 193.631, 115.650 193.289, 114 193.356 C 111.305 193.466, 111 193.810, 111 196.739 M 120.464 193.870 C 120.209 194.125, 120 195.608, 120 197.167 C 120 199.792, 120.276 199.993, 123.750 199.900 C 127.097 199.811, 127.231 199.715, 125 199 C 123.333 198.466, 123.083 198.166, 124.250 198.100 C 125.213 198.045, 126 197.583, 126 197.073 C 126 196.564, 125.213 195.941, 124.250 195.689 C 123.023 195.369, 123.222 195.197, 124.917 195.116 C 126.246 195.052, 126.996 194.662, 126.584 194.250 C 125.755 193.421, 121.196 193.138, 120.464 193.870 M 130 196.710 C 130 198.520, 130.450 200, 131 200 C 131.550 200, 132 199.460, 132 198.800 C 132 197.867, 132.267 197.867, 133.200 198.800 C 135.323 200.923, 136.703 200.107, 136.600 196.788 C 136.509 193.868, 136.204 193.569, 133.250 193.498 C 130.226 193.425, 130 193.649, 130 196.710 M 141 193.980 C 141 194.541, 142.012 195.045, 143.250 195.100 C 145.390 195.194, 145.378 195.233, 143.005 195.894 C 141.633 196.275, 140.363 197.355, 140.182 198.294 C 139.916 199.677, 140.577 199.978, 143.677 199.882 C 147.447 199.765, 147.458 199.753, 144.500 199 C 142.027 198.371, 141.900 198.216, 143.781 198.118 C 145.905 198.008, 147.877 195.544, 146.746 194.413 C 145.695 193.362, 141 193.009, 141 193.980 M 150.529 193.805 C 149.576 194.757, 149.975 200, 151 200 C 151.550 200, 152 199.550, 152 199 C 152 198.450, 153.125 198, 154.500 198 C 156.333 198, 157 197.467, 157 196 C 157 194.900, 156.662 193.943, 156.250 193.872 C 153.375 193.383, 150.979 193.355, 150.529 193.805 M 160 196.480 C 160 199.699, 160.248 200, 162.906 200 C 165.294 200, 165.722 199.652, 165.304 198.054 C 165.024 196.983, 164.053 195.910, 163.147 195.670 C 162.114 195.395, 162.401 195.189, 163.917 195.116 C 166.870 194.974, 166.182 194.082, 162.623 193.436 C 160.199 192.997, 160 193.228, 160 196.480 M 169.660 193.875 C 169.493 194.219, 169.282 195.738, 169.190 197.250 C 169.034 199.805, 169.287 199.993, 172.761 199.900 C 176.102 199.811, 176.234 199.715, 174 199 C 172.333 198.466, 172.083 198.166, 173.250 198.100 C 175.770 197.956, 175.406 196.217, 172.750 195.706 C 170.861 195.342, 170.951 195.251, 173.309 195.136 C 174.854 195.061, 175.875 194.606, 175.577 194.125 C 174.962 193.129, 170.122 192.925, 169.660 193.875 M 179.639 193.694 C 178.606 194.727, 178.908 200, 180 200 C 180.550 200, 181 199.460, 181 198.800 C 181 197.867, 181.267 197.867, 182.200 198.800 C 182.860 199.460, 183.889 200, 184.487 200 C 185.705 200, 186.468 194.042, 185.266 193.926 C 184.845 193.885, 183.550 193.672, 182.389 193.453 C 181.228 193.234, 179.991 193.343, 179.639 193.694 M 103 195.393 C 103 195.609, 103.675 196.045, 104.500 196.362 C 105.325 196.678, 106 196.501, 106 195.969 C 106 195.436, 105.325 195, 104.500 195 C 103.675 195, 103 195.177, 103 195.393 M 132 196 C 132 196.550, 132.423 197, 132.941 197 C 133.459 197, 134.160 196.550, 134.500 196 C 134.840 195.450, 134.416 195, 133.559 195 C 132.702 195, 132 195.450, 132 196 M 152.813 195.683 C 153.534 195.972, 154.397 195.936, 154.729 195.604 C 155.061 195.272, 154.471 195.036, 153.417 195.079 C 152.252 195.127, 152.015 195.364, 152.813 195.683 M 181 195.969 C 181 196.501, 181.675 196.678, 182.500 196.362 C 183.325 196.045, 184 195.609, 184 195.393 C 184 195.177, 183.325 195, 182.500 195 C 181.675 195, 181 195.436, 181 195.969 M 101.910 219.832 C 103.095 222.046, 106.013 224.593, 105.967 223.372 C 105.925 222.287, 102.405 218, 101.555 218 C 101.211 218, 101.371 218.825, 101.910 219.832 M 110 221 C 110 223.738, 110.283 223.991, 113.250 223.900 C 116.243 223.809, 116.303 223.746, 114.005 223.106 C 110.388 222.100, 110.183 219.249, 113.691 218.722 C 116.379 218.318, 116.360 218.293, 113.250 218.150 C 110.272 218.013, 110 218.251, 110 221 M 121.015 221.250 C 121.027 223.677, 121.269 224.122, 121.974 223.008 C 122.725 221.820, 123.170 221.770, 124.158 222.758 C 126.034 224.634, 126.553 224.289, 126.803 221 C 127.010 218.279, 126.751 218, 124.016 218 C 121.277 218, 121.001 218.298, 121.015 221.250 M 133.306 221 C 133.929 222.650, 134.691 224, 135 224 C 135.309 224, 136.071 222.650, 136.694 221 C 137.872 217.878, 137.260 217.140, 135.200 219.200 C 134.267 220.133, 134 220.133, 134 219.200 C 134 218.540, 133.589 218, 133.087 218 C 132.585 218, 132.683 219.350, 133.306 221 M 142 221 C 142 222.650, 142.450 224, 143 224 C 143.550 224, 144 223.581, 144 223.070 C 144 222.558, 145.008 221.995, 146.240 221.820 C 147.472 221.644, 148.630 220.713, 148.813 219.750 C 149.080 218.348, 148.437 218, 145.573 218 C 142.270 218, 142 218.226, 142 221 M 153.250 218.689 C 154.324 218.970, 155.045 220.181, 155.116 221.823 C 155.205 223.878, 155.341 224.035, 155.700 222.500 C 155.958 221.400, 156.892 219.938, 157.775 219.250 C 159.134 218.193, 158.773 218.018, 155.441 218.116 C 153.274 218.180, 152.287 218.438, 153.250 218.689 M 163 221 C 163 223.651, 163.341 224, 165.933 224 C 167.983 224, 169.055 223.401, 169.497 222.009 C 170.392 219.190, 169.336 218, 165.941 218 C 163.340 218, 163 218.347, 163 221 M 175.059 220.653 C 173.911 222.112, 173.192 223.525, 173.461 223.794 C 173.999 224.333, 177.913 219.950, 177.967 218.750 C 178.027 217.402, 177.180 217.955, 175.059 220.653 M 183.041 220.942 C 181.844 222.624, 181.293 224, 181.817 224 C 182.955 224, 186.364 219.031, 185.689 218.356 C 185.430 218.097, 184.238 219.261, 183.041 220.942 M 122.800 220.200 C 123.733 221.133, 124.267 221.133, 125.200 220.200 C 126.133 219.267, 125.867 219, 124 219 C 122.133 219, 121.867 219.267, 122.800 220.200 M 144 220 C 144 220.550, 144.675 221, 145.500 221 C 146.325 221, 147 220.550, 147 220 C 147 219.450, 146.325 219, 145.500 219 C 144.675 219, 144 219.450, 144 220 M 164.500 220 C 163.663 221.354, 164.792 223, 166.559 223 C 167.352 223, 168 222.100, 168 221 C 168 218.930, 165.587 218.240, 164.500 220 M 102 235.500 C 102 238.722, 102.238 239, 105 239 C 106.650 239, 108 238.550, 108 238 C 108 237.450, 106.875 237, 105.500 237 C 103.944 237, 103 236.433, 103 235.500 C 103 234.567, 103.944 234, 105.500 234 C 106.875 234, 108 233.550, 108 233 C 108 232.450, 106.650 232, 105 232 C 102.238 232, 102 232.278, 102 235.500 M 112.187 235.250 C 112.444 237.917, 112.972 238.555, 115.128 238.805 C 117.384 239.066, 117.821 238.675, 118.206 236.049 C 118.751 232.339, 118.463 232, 114.770 232 C 112.104 232, 111.898 232.259, 112.187 235.250 M 122 235.559 C 122 239.067, 123.917 239.649, 124.079 236.191 C 124.131 235.084, 124.337 234.946, 124.676 235.792 C 125.074 236.784, 125.520 236.813, 126.597 235.919 C 127.728 234.981, 128 235.178, 128 236.937 C 128 238.136, 128.376 238.886, 128.836 238.601 C 129.296 238.317, 129.558 237.053, 129.419 235.792 C 129.280 234.532, 129.129 233.107, 129.083 232.628 C 129.037 232.148, 128.306 232.331, 127.458 233.035 C 126.289 234.005, 125.634 234.034, 124.758 233.158 C 122.782 231.182, 122 231.862, 122 235.559 M 133 235.500 C 133 239.287, 134.949 240.459, 135.079 236.750 C 135.122 235.512, 135.391 235.081, 135.676 235.792 C 136.074 236.784, 136.520 236.813, 137.597 235.919 C 138.726 234.983, 139 235.170, 139 236.878 C 139 238.045, 139.450 239, 140 239 C 141.104 239, 141.389 233.722, 140.342 232.675 C 139.980 232.313, 139.061 232.534, 138.300 233.166 C 137.256 234.032, 136.630 234.030, 135.758 233.158 C 133.789 231.189, 133 231.859, 133 235.500 M 144.606 233.192 C 143.150 236.369, 144.318 238.500, 147.514 238.500 C 150.171 238.500, 150.535 238.131, 150.821 235.147 C 151.031 232.953, 150.772 232.023, 150.071 232.456 C 149.482 232.820, 149 233.991, 149 235.059 C 149 238.068, 146.183 237.365, 145.757 234.250 C 145.456 232.047, 145.227 231.837, 144.606 233.192 M 155.136 235.576 C 155.223 238.079, 155.434 238.650, 155.718 237.153 L 156.165 234.806 158.582 237.077 L 161 239.349 160.864 235.424 C 160.777 232.921, 160.566 232.350, 160.282 233.847 L 159.835 236.194 157.418 233.923 L 155 231.651 155.136 235.576 M 165.252 235.500 C 165.263 237.700, 165.468 238.482, 165.707 237.238 C 165.946 235.994, 165.937 234.194, 165.687 233.238 C 165.437 232.282, 165.241 233.300, 165.252 235.500 M 170 233 C 170 233.550, 170.450 234, 171 234 C 171.550 234, 172 235.152, 172 236.559 C 172 238.010, 172.433 238.851, 173 238.500 C 173.550 238.160, 174 237.009, 174 235.941 C 174 234.873, 174.450 234, 175 234 C 175.550 234, 176 233.550, 176 233 C 176 232.450, 174.650 232, 173 232 C 171.350 232, 170 232.450, 170 233 M 179.837 233.304 C 180.432 234.021, 181.315 235.676, 181.798 236.982 C 182.671 239.342, 182.686 239.336, 184.338 236.024 C 186.395 231.900, 186.415 231.411, 184.458 233.035 C 183.289 234.005, 182.634 234.034, 181.758 233.158 C 180.164 231.564, 178.499 231.691, 179.837 233.304 M 113 235.500 C 113 236.333, 113.889 237, 115 237 C 116.111 237, 117 236.333, 117 235.500 C 117 234.667, 116.111 234, 115 234 C 113.889 234, 113 234.667, 113 235.500 M 101.810 248.582 C 103.101 251.069, 106 253.639, 106 252.297 C 106 251.775, 104.814 250.258, 103.364 248.924 C 101.012 246.761, 100.845 246.724, 101.810 248.582 M 111.174 249.314 C 108.680 251.970, 108.231 253.883, 110.555 251.955 C 112.074 250.694, 114.426 247, 113.709 247 C 113.511 247, 112.370 248.042, 111.174 249.314 M 118.652 249.600 C 117.635 250.995, 117.024 252.357, 117.293 252.626 C 117.562 252.895, 118.762 251.739, 119.959 250.058 C 121.156 248.376, 121.768 247.014, 121.318 247.031 C 120.868 247.049, 119.668 248.204, 118.652 249.600 M 125.750 247.662 C 126.438 247.940, 127 249.254, 127 250.583 C 127 251.912, 127.450 253, 128 253 C 128.550 253, 129 251.912, 129 250.583 C 129 249.254, 129.563 247.940, 130.250 247.662 C 130.938 247.385, 129.925 247.158, 128 247.158 C 126.075 247.158, 125.063 247.385, 125.750 247.662 M 135 250.137 C 135 252.638, 135.275 253.125, 136.176 252.224 C 137.047 251.353, 137.703 251.338, 138.700 252.166 C 140.357 253.541, 140.878 253.082, 141.228 249.938 C 141.461 247.850, 141.033 247.455, 138.250 247.187 C 135.183 246.891, 135 247.057, 135 250.137 M 145.362 248.500 C 144.339 251.164, 145.811 253, 148.969 253 C 151.670 253, 152 252.674, 152 250 C 152 247.326, 151.670 247, 148.969 247 C 147.197 247, 145.698 247.623, 145.362 248.500 M 156.116 250.250 C 156.180 252.037, 156.438 252.713, 156.689 251.750 C 156.941 250.787, 157.402 250, 157.713 250 C 158.025 250, 158.883 250.787, 159.621 251.750 C 160.793 253.280, 161.088 253.311, 161.966 252 C 163.265 250.058, 163.286 247, 162 247 C 161.450 247, 161 247.745, 161 248.655 C 161 250.195, 160.873 250.195, 159.171 248.655 C 156.551 246.283, 155.985 246.579, 156.116 250.250 M 166 247.703 C 166 248.225, 167.186 249.742, 168.636 251.076 C 170.988 253.239, 171.155 253.276, 170.190 251.418 C 168.899 248.931, 166 246.361, 166 247.703 M 174.058 247.500 C 174.039 248.909, 177.753 253.581, 178.387 252.946 C 178.676 252.658, 177.823 251.089, 176.492 249.461 C 175.161 247.832, 174.066 246.950, 174.058 247.500 M 183.041 249.942 C 181.844 251.624, 181.293 253, 181.817 253 C 182.955 253, 186.364 248.031, 185.689 247.356 C 185.430 247.097, 184.238 248.261, 183.041 249.942 M 137 249 C 137 249.550, 137.675 250, 138.500 250 C 139.325 250, 140 249.550, 140 249 C 140 248.450, 139.325 248, 138.500 248 C 137.675 248, 137 248.450, 137 249 M 147 250 C 147 251.111, 147.667 252, 148.500 252 C 149.333 252, 150 251.111, 150 250 C 150 248.889, 149.333 248, 148.500 248 C 147.667 248, 147 248.889, 147 250 M 109 264.500 C 109 266.425, 109.450 268, 110 268 C 110.550 268, 111 267.255, 111 266.345 C 111 264.805, 111.127 264.805, 112.829 266.345 C 115.399 268.671, 116 268.427, 116 265.059 C 116 261.596, 114.025 259.799, 113.948 263.191 L 113.895 265.500 112.326 263.250 C 110.093 260.049, 109 260.460, 109 264.500 M 119.491 262.250 C 118.476 265.091, 119.711 267.504, 122.339 267.816 C 123.803 267.990, 125 267.667, 125 267.098 C 125 266.529, 124.371 266.304, 123.601 266.600 C 122.832 266.895, 121.905 266.656, 121.542 266.068 C 121.151 265.436, 121.825 264.959, 123.191 264.900 C 125.469 264.802, 125.466 264.790, 123 264 C 120.602 263.232, 120.591 263.195, 122.750 263.100 C 123.987 263.045, 125 262.550, 125 262 C 125 260.546, 120.019 260.772, 119.491 262.250 M 129 262 C 129 262.550, 129.450 263, 130 263 C 130.550 263, 131 264.125, 131 265.500 C 131 266.875, 131.450 268, 132 268 C 132.550 268, 133 266.875, 133 265.500 C 133 264.125, 133.450 263, 134 263 C 134.550 263, 135 262.550, 135 262 C 135 261.450, 133.650 261, 132 261 C 130.350 261, 129 261.450, 129 262 M 139.503 263.500 C 140.332 267.394, 141.744 268.831, 142.585 266.638 C 143.191 265.059, 143.328 265.065, 144.544 266.721 C 145.752 268.365, 145.935 268.280, 146.958 265.599 C 148.152 262.471, 147.717 259.328, 146.498 262.279 C 145.794 263.985, 145.709 263.985, 144.453 262.279 C 143.197 260.574, 143.114 260.574, 142.453 262.279 C 141.792 263.985, 141.704 263.985, 140.314 262.279 C 138.992 260.657, 138.920 260.765, 139.503 263.500 M 152.667 261.667 C 152.300 262.033, 152 263.608, 152 265.167 C 152 267.648, 152.373 268, 155 268 C 157.762 268, 158 267.722, 158 264.500 C 158 261.500, 157.667 261, 155.667 261 C 154.383 261, 153.033 261.300, 152.667 261.667 M 162.015 264.750 C 162.027 267.515, 162.281 268.106, 162.985 267 C 163.774 265.760, 164.291 265.718, 165.969 266.758 C 167.863 267.932, 168 267.781, 168 264.508 C 168 261.277, 167.763 261, 165 261 C 162.197 261, 162.001 261.247, 162.015 264.750 M 172.032 264.250 C 172.014 266.313, 172.450 268, 173 268 C 173.550 268, 174 267.255, 174 266.345 C 174 264.857, 174.201 264.872, 176 266.500 C 177.100 267.495, 178 267.817, 178 267.214 C 178 266.611, 177.528 265.826, 176.951 265.470 C 176.237 265.028, 176.282 264.365, 177.094 263.387 C 177.749 262.597, 178.060 261.727, 177.785 261.452 C 177.510 261.177, 176.712 261.643, 176.011 262.487 C 174.873 263.858, 174.594 263.834, 173.400 262.261 C 172.208 260.691, 172.060 260.906, 172.032 264.250 M 103.041 265.058 C 104.238 266.739, 105.430 267.903, 105.689 267.644 C 106.364 266.969, 102.955 262, 101.817 262 C 101.293 262, 101.844 263.376, 103.041 265.058 M 183.500 264 C 182.498 265.107, 181.904 266.237, 182.179 266.512 C 182.454 266.787, 183.498 266.107, 184.500 265 C 185.502 263.893, 186.096 262.763, 185.821 262.488 C 185.546 262.213, 184.502 262.893, 183.500 264 M 153 264.500 C 153 265.333, 153.889 266, 155 266 C 156.111 266, 157 265.333, 157 264.500 C 157 263.667, 156.111 263, 155 263 C 153.889 263, 153 263.667, 153 264.500 M 163.750 263.662 C 164.438 263.940, 165.563 263.940, 166.250 263.662 C 166.938 263.385, 166.375 263.158, 165 263.158 C 163.625 263.158, 163.063 263.385, 163.750 263.662" stroke="none" fill="black" fill-rule="evenodd"/>
	<path fill-opacity="0.442" d="M 121.893 49.374 C 110.043 53.558, 99.767 62.575, 94.134 73.735 L 91.111 79.723 96.978 77.353 C 100.205 76.049, 104.996 74.688, 107.624 74.328 L 112.402 73.673 108.870 78.087 C 100.437 88.626, 100.712 89.362, 109.896 80.828 C 120.428 71.042, 130.129 63.813, 144.406 55.107 L 154.185 49.145 150.343 48.078 C 143.343 46.135, 129.253 46.777, 121.893 49.374 M 169.501 50.136 C 155.725 54.060, 132.962 66.691, 118.019 78.703 C 104.351 89.690, 91.891 103.587, 85.029 115.500 L 82.725 119.500 86.089 115.500 C 92.841 107.473, 100.679 99.644, 108.500 93.115 C 121.102 82.595, 121.195 82.779, 109.487 95.067 C 94.504 110.794, 81.435 130.057, 82.191 135.302 C 82.895 140.190, 88.625 140.728, 103.218 137.277 L 109.937 135.688 115.822 138.824 C 127.927 145.276, 142.424 146.502, 155.087 142.143 C 163.565 139.225, 166.393 137.499, 173.324 131.016 C 183.136 121.837, 189 108.851, 189 96.300 L 189 91.021 196.951 83.425 C 210.628 70.358, 214.176 62.269, 207.607 59.134 C 198.726 54.896, 161.857 68.790, 132.500 87.438 C 125.273 92.028, 125 92.177, 125 91.529 C 125 90.602, 143.385 78.943, 155.660 72.086 C 173.481 62.130, 191.472 55, 198.769 55 C 200.080 55, 200.845 54.558, 200.500 54 C 199.572 52.498, 192.449 52.795, 185.064 54.642 C 175.832 56.951, 161.220 63.081, 150.724 69.049 C 145.812 71.842, 141.621 73.954, 141.410 73.743 C 141.199 73.532, 145.887 70.140, 151.827 66.204 C 160.922 60.180, 170.447 55.154, 184 49.228 C 188.587 47.223, 177.232 47.934, 169.501 50.136 M 188 67.347 C 179.196 69.679, 161.628 76.194, 159 78.100 C 157.680 79.058, 157.686 79.130, 159.048 78.703 C 162.762 77.539, 176.783 73.650, 179.720 72.970 C 183.448 72.107, 184.198 72.768, 185.990 78.500 C 187.786 84.242, 188.586 84.730, 191.625 81.937 C 196.242 77.695, 204.951 66.730, 204.406 65.848 C 203.508 64.394, 196.850 65.003, 188 67.347 M 140 100.552 C 123.501 104.959, 107.533 112.162, 100.867 118.206 C 96.580 122.093, 87 133.008, 87 134.005 C 87 134.878, 95.017 134.241, 101.152 132.880 C 105.030 132.019, 106.362 132.140, 109.152 133.607 C 117.483 137.986, 132.326 134.607, 140.451 126.482 C 146.952 119.981, 151.615 106.267, 149.323 100.391 L 148.500 98.282 140 100.552 M 101.667 167.667 C 101.300 168.033, 101 172.308, 101 177.167 C 101 185.333, 101.151 186, 103 186 C 104.556 186, 105 185.333, 105 183 L 105 180 112.800 180 C 117.533 180, 121.072 179.528, 121.800 178.800 C 123.354 177.246, 123.354 169.754, 121.800 168.200 C 120.523 166.923, 102.878 166.455, 101.667 167.667 M 134.710 169 C 134.220 170.875, 134.680 171, 142.094 171 C 149.333 171, 150 171.169, 150 173 C 150 174.807, 149.333 175, 143.082 175 C 133.461 175, 133 175.279, 133 181.107 L 133 186 143.500 186 C 153.333 186, 154 185.873, 154 184 C 154 182.151, 153.333 182, 145.167 182 C 137.981 182, 136.333 181.720, 136.333 180.500 C 136.333 179.298, 137.848 179, 143.967 179 C 152.664 179, 154 178.201, 154 173 C 154 167.736, 152.702 167, 143.417 167 C 136.074 167, 135.180 167.206, 134.710 169 M 164 176.500 C 164 185.333, 164.140 186, 166 186 C 167.556 186, 168 185.333, 168 183 L 168 180 175.300 180 C 179.644 180, 183.086 179.514, 183.800 178.800 C 184.460 178.140, 185 175.755, 185 173.500 C 185 171.245, 184.460 168.860, 183.800 168.200 C 183.039 167.439, 179.200 167, 173.300 167 L 164 167 164 176.500 M 105 173.500 C 105 175.929, 105.200 176, 112 176 C 118.800 176, 119 175.929, 119 173.500 C 119 171.071, 118.800 171, 112 171 C 105.200 171, 105 171.071, 105 173.500 M 168 173.500 C 168 176.062, 168.077 176.088, 174.750 175.796 C 180.735 175.534, 181.500 175.273, 181.500 173.500 C 181.500 171.727, 180.735 171.466, 174.750 171.204 C 168.077 170.912, 168 170.938, 168 173.500 M 101 196.937 C 101 198.621, 101.450 200, 102 200 C 102.550 200, 103 199.581, 103 199.070 C 103 198.558, 104.013 197.995, 105.250 197.820 C 108.786 197.317, 108.024 194.551, 104.250 194.187 C 101.222 193.895, 101 194.083, 101 196.937 M 111 197 C 111 199.742, 111.279 199.990, 114.250 199.882 L 117.500 199.763 114.500 199.110 C 112.507 198.677, 111.920 198.193, 112.750 197.670 C 113.438 197.236, 114.450 197.160, 115 197.500 C 115.550 197.840, 116 197.641, 116 197.059 C 116 196.477, 114.987 195.947, 113.750 195.882 C 111.931 195.786, 112.075 195.617, 114.500 195 L 117.500 194.237 114.250 194.118 C 111.279 194.010, 111 194.258, 111 197 M 121 197 C 121 199.639, 121.331 199.984, 123.750 199.864 C 126.130 199.746, 126.195 199.669, 124.235 199.292 C 122.990 199.053, 122.233 198.432, 122.554 197.912 C 122.875 197.393, 123.557 197.226, 124.069 197.543 C 124.581 197.859, 125 197.641, 125 197.059 C 125 196.477, 124.213 195.955, 123.250 195.900 C 122.083 195.834, 122.333 195.534, 124 195 L 126.500 194.199 123.750 194.100 C 121.339 194.012, 121 194.370, 121 197 M 130.015 197.250 C 130.027 199.697, 130.266 200.129, 130.985 199 C 131.774 197.760, 132.291 197.718, 133.969 198.758 C 135.839 199.917, 136 199.779, 136 197.008 C 136 194.332, 135.669 194, 133 194 C 130.279 194, 130.001 194.302, 130.015 197.250 M 143 195 C 144.375 195.440, 145.162 195.902, 144.750 196.025 C 143.353 196.444, 142.004 196.750, 141 196.875 C 140.450 196.944, 140 197.675, 140 198.500 C 140 199.546, 140.983 199.970, 143.250 199.900 C 146.329 199.806, 146.369 199.759, 144 199 C 141.602 198.232, 141.591 198.195, 143.750 198.100 C 145.300 198.031, 146 197.378, 146 196 C 146 194.461, 145.367 194.023, 143.250 194.100 L 140.500 194.199 143 195 M 150 196.937 C 150 198.621, 150.450 200, 151 200 C 151.550 200, 152 199.581, 152 199.070 C 152 198.558, 153.012 197.995, 154.250 197.820 C 157.786 197.317, 157.024 194.551, 153.250 194.187 C 150.222 193.895, 150 194.083, 150 196.937 M 160 197 C 160 199.746, 160.275 199.988, 163.250 199.864 C 165.600 199.765, 165.877 199.608, 164.250 199.294 C 163.012 199.056, 162 198.394, 162 197.823 C 162 197.253, 162.675 197.045, 163.500 197.362 C 164.325 197.678, 165 197.501, 165 196.969 C 165 196.436, 163.988 195.947, 162.750 195.882 C 160.931 195.786, 161.075 195.617, 163.500 195 L 166.500 194.237 163.250 194.118 C 160.279 194.010, 160 194.258, 160 197 M 170 197 C 170 199.742, 170.279 199.990, 173.250 199.882 L 176.500 199.763 173.500 199 C 171.850 198.580, 171.287 198.183, 172.250 198.118 C 173.213 198.053, 174 197.550, 174 197 C 174 196.450, 173.213 195.947, 172.250 195.882 C 171.287 195.817, 171.850 195.420, 173.500 195 L 176.500 194.237 173.250 194.118 C 170.279 194.010, 170 194.258, 170 197 M 179 197.122 C 179 199.785, 179.221 200.061, 180.500 199 C 181.632 198.061, 182.338 198.036, 183.378 198.899 C 184.465 199.801, 184.877 199.580, 185.330 197.848 C 186.117 194.837, 185.380 194, 181.941 194 C 179.314 194, 179 194.334, 179 197.122 M 103 196 C 103 196.550, 103.675 197, 104.500 197 C 105.325 197, 106 196.550, 106 196 C 106 195.450, 105.325 195, 104.500 195 C 103.675 195, 103 195.450, 103 196 M 131.500 196 C 131.840 196.550, 132.766 197, 133.559 197 C 134.352 197, 135 196.550, 135 196 C 135 195.450, 134.073 195, 132.941 195 C 131.809 195, 131.160 195.450, 131.500 196 M 152 196 C 152 196.550, 152.675 197, 153.500 197 C 154.325 197, 155 196.550, 155 196 C 155 195.450, 154.325 195, 153.500 195 C 152.675 195, 152 195.450, 152 196 M 180.500 196 C 180.840 196.550, 181.766 197, 182.559 197 C 183.352 197, 184 196.550, 184 196 C 184 195.450, 183.073 195, 181.941 195 C 180.809 195, 180.160 195.450, 180.500 196 M 110.184 220.750 C 110.439 222.973, 111.029 223.523, 113.262 223.622 C 115.792 223.733, 115.813 223.707, 113.512 223.305 C 109.933 222.681, 110.110 219.268, 113.750 218.716 C 116.259 218.336, 116.209 218.287, 113.184 218.150 C 110.126 218.012, 109.892 218.215, 110.184 220.750 M 121.015 221.250 C 121.027 223.697, 121.266 224.129, 121.985 223 C 122.721 221.842, 123.345 221.751, 124.719 222.601 C 126.257 223.551, 126.529 223.312, 126.710 220.851 C 126.897 218.311, 126.596 218, 123.960 218 C 121.284 218, 121.001 218.312, 121.015 221.250 M 132.967 219.500 C 133.774 220.600, 134.489 221.615, 134.556 221.756 C 134.624 221.897, 135.539 221.005, 136.589 219.773 C 138.136 217.961, 138.167 217.793, 136.750 218.890 C 135.276 220.031, 134.724 220.028, 133.250 218.872 C 131.631 217.603, 131.610 217.650, 132.967 219.500 M 144.269 218.693 C 145.242 218.947, 146.592 218.930, 147.269 218.656 C 147.946 218.382, 147.150 218.175, 145.500 218.195 C 143.850 218.215, 143.296 218.439, 144.269 218.693 M 153.649 218.765 C 154.281 219.169, 155.007 220.625, 155.263 222 L 155.728 224.500 155.864 221.823 C 155.947 220.193, 156.684 218.968, 157.750 218.689 C 158.713 218.438, 157.925 218.187, 156 218.131 C 154.075 218.076, 153.017 218.361, 153.649 218.765 M 163.362 219.500 C 162.404 221.995, 163.789 224, 166.469 224 C 168.615 224, 169 223.543, 169 221 C 169 218.457, 168.615 218, 166.469 218 C 165.076 218, 163.678 218.675, 163.362 219.500 M 175.511 220.623 C 174.566 222.066, 174.287 222.941, 174.891 222.567 C 176.045 221.854, 178.374 218, 177.650 218 C 177.419 218, 176.457 219.180, 175.511 220.623 M 183.606 220.848 L 181.712 223.500 184.050 221.278 C 185.337 220.056, 186.189 218.862, 185.944 218.626 C 185.700 218.389, 184.648 219.389, 183.606 220.848 M 103.511 221.377 C 104.457 222.820, 105.419 224, 105.650 224 C 106.374 224, 104.045 220.146, 102.891 219.433 C 102.287 219.059, 102.566 219.934, 103.511 221.377 M 122 220 C 122 220.550, 122.900 221, 124 221 C 125.100 221, 126 220.550, 126 220 C 126 219.450, 125.100 219, 124 219 C 122.900 219, 122 219.450, 122 220 M 164 221 C 164 222.333, 164.667 223, 166 223 C 167.333 223, 168 222.333, 168 221 C 168 219.667, 167.333 219, 166 219 C 164.667 219, 164 219.667, 164 221 M 145 221 L 142.500 221.801 145.250 221.900 C 146.762 221.955, 148 221.550, 148 221 C 148 220.450, 147.887 220.045, 147.750 220.100 C 147.613 220.155, 146.375 220.560, 145 221 M 102.195 235.500 C 102.215 237.150, 102.439 237.704, 102.693 236.731 C 102.947 235.758, 102.930 234.408, 102.656 233.731 C 102.382 233.054, 102.175 233.850, 102.195 235.500 M 112.195 235.500 C 112.215 237.150, 112.439 237.704, 112.693 236.731 C 112.947 235.758, 112.930 234.408, 112.656 233.731 C 112.382 233.054, 112.175 233.850, 112.195 235.500 M 117.195 235.500 C 117.215 237.150, 117.439 237.704, 117.693 236.731 C 117.947 235.758, 117.930 234.408, 117.656 233.731 C 117.382 233.054, 117.175 233.850, 117.195 235.500 M 122.493 235.023 C 122.121 236.193, 122.083 237.417, 122.409 237.742 C 122.734 238.067, 123 237.589, 123 236.678 C 123 234.584, 127.203 234.845, 128.180 237 C 128.627 237.987, 128.883 237.560, 128.930 235.750 C 129.001 232.967, 127.520 231.950, 126.746 234.250 C 126.413 235.238, 125.995 235.227, 124.747 234.197 C 123.406 233.091, 123.066 233.216, 122.493 235.023 M 134 233.771 C 134 234.329, 134.675 235.045, 135.500 235.362 C 137.280 236.045, 140 235.157, 140 233.893 C 140 232.543, 138.226 232.823, 137.746 234.250 C 137.418 235.225, 136.959 235.198, 135.663 234.128 C 134.748 233.373, 134 233.212, 134 233.771 M 155.070 235.750 C 155.127 237.952, 155.285 238.132, 155.867 236.653 C 156.527 234.976, 156.716 234.953, 157.920 236.403 C 159.892 238.779, 161.014 238.343, 160.884 235.250 C 160.813 233.558, 160.592 233.173, 160.311 234.250 C 159.750 236.396, 158.414 236.521, 157.638 234.500 C 156.679 232, 154.995 232.819, 155.070 235.750 M 165.195 235.500 C 165.215 237.150, 165.439 237.704, 165.693 236.731 C 165.947 235.758, 165.930 234.408, 165.656 233.731 C 165.382 233.054, 165.175 233.850, 165.195 235.500 M 172.195 235.500 C 172.215 237.150, 172.439 237.704, 172.693 236.731 C 172.947 235.758, 172.930 234.408, 172.656 233.731 C 172.382 233.054, 172.175 233.850, 172.195 235.500 M 180.664 234 C 181.251 234.825, 181.921 236.114, 182.154 236.863 C 182.415 237.708, 183.058 237.168, 183.843 235.445 C 184.914 233.096, 184.896 232.841, 183.731 233.808 C 182.691 234.671, 182.014 234.651, 180.974 233.726 C 179.845 232.721, 179.789 232.771, 180.664 234 M 149.500 237 C 149.160 237.550, 149.359 238, 149.941 238 C 150.523 238, 151 237.550, 151 237 C 151 236.450, 150.802 236, 150.559 236 C 150.316 236, 149.840 236.450, 149.500 237 M 126.250 247.689 C 127.213 247.941, 128.787 247.941, 129.750 247.689 C 130.713 247.438, 129.925 247.232, 128 247.232 C 126.075 247.232, 125.287 247.438, 126.250 247.689 M 135.015 250.250 C 135.027 252.697, 135.266 253.129, 135.985 252 C 136.732 250.825, 137.334 250.745, 138.766 251.631 C 140.363 252.620, 140.620 252.400, 140.812 249.881 C 141.009 247.295, 140.723 247, 138.016 247 C 135.277 247, 135.001 247.298, 135.015 250.250 M 146 247.795 C 146 248.305, 147.125 248.508, 148.500 248.245 C 150.530 247.857, 151 248.165, 151 249.883 C 151 252.231, 147.539 252.922, 146.662 250.750 C 146.371 250.027, 146.125 250.266, 146.079 251.316 C 146.018 252.722, 146.622 253.061, 148.750 252.816 C 150.932 252.565, 151.500 251.984, 151.500 250 C 151.500 248.016, 150.932 247.435, 148.750 247.184 C 147.238 247.010, 146 247.285, 146 247.795 M 156.136 250.076 C 156.236 252.590, 156.391 252.877, 156.718 251.153 L 157.165 248.806 159.582 251.077 L 162 253.349 161.864 249.924 C 161.764 247.410, 161.609 247.123, 161.282 248.847 L 160.835 251.194 158.418 248.923 L 156 246.651 156.136 250.076 M 166.970 248.944 C 167.543 250.014, 168.505 251.194, 169.109 251.567 C 169.713 251.941, 169.434 251.066, 168.489 249.623 C 166.487 246.568, 165.451 246.105, 166.970 248.944 M 110.511 250.623 C 109.566 252.066, 109.287 252.941, 109.891 252.567 C 111.045 251.854, 113.374 248, 112.650 248 C 112.419 248, 111.457 249.180, 110.511 250.623 M 118.494 250.006 C 117.496 251.110, 116.864 252.190, 117.089 252.408 C 117.315 252.626, 118.309 251.723, 119.297 250.402 C 121.479 247.484, 120.994 247.245, 118.494 250.006 M 136 249 C 136 249.550, 136.900 250, 138 250 C 139.100 250, 140 249.550, 140 249 C 140 248.450, 139.100 248, 138 248 C 136.900 248, 136 248.450, 136 249 M 175.500 250 C 176.495 251.100, 177.535 252, 177.810 252 C 178.085 252, 177.495 251.100, 176.500 250 C 175.505 248.900, 174.465 248, 174.190 248 C 173.915 248, 174.505 248.900, 175.500 250 M 183.405 250.250 L 181.500 252.500 183.750 250.595 C 185.864 248.805, 186.455 248, 185.655 248 C 185.465 248, 184.453 249.012, 183.405 250.250 M 111.500 264.415 C 113.150 265.738, 114.676 266.647, 114.892 266.435 C 115.432 265.904, 110.735 262.073, 109.500 262.038 C 108.950 262.023, 109.850 263.092, 111.500 264.415 M 120.015 264.750 C 120.002 267.665, 120.283 267.986, 122.750 267.864 C 125.108 267.747, 125.179 267.666, 123.250 267.294 C 120.595 266.783, 120.227 265.035, 122.750 264.921 C 124.144 264.858, 124.195 264.726, 123 264.271 C 122.175 263.957, 121.169 263.205, 120.765 262.600 C 120.361 261.995, 120.024 262.962, 120.015 264.750 M 142.668 263.423 C 142.308 264.360, 141.561 264.847, 141.007 264.504 C 140.453 264.162, 140 264.332, 140 264.882 C 140 266.739, 141.785 267.002, 142.467 265.244 C 143.108 263.590, 143.209 263.589, 144.420 265.234 C 145.673 266.936, 147 266.644, 147 264.667 C 147 264.117, 146.707 263.960, 146.349 264.318 C 145.991 264.676, 145.163 264.238, 144.510 263.344 C 143.419 261.852, 143.268 261.858, 142.668 263.423 M 152.184 264.750 C 152.435 266.932, 153.016 267.500, 155 267.500 C 156.984 267.500, 157.565 266.932, 157.816 264.750 C 157.990 263.238, 157.715 262, 157.205 262 C 156.695 262, 156.492 263.125, 156.755 264.500 C 157.150 266.563, 156.843 267, 155 267 C 153.157 267, 152.850 266.563, 153.245 264.500 C 153.508 263.125, 153.305 262, 152.795 262 C 152.285 262, 152.010 263.238, 152.184 264.750 M 162 264.667 C 162 266.133, 162.309 267.024, 162.687 266.646 C 163.693 265.641, 163.807 262, 162.833 262 C 162.375 262, 162 263.200, 162 264.667 M 167 263.417 C 167 264.196, 166.501 265, 165.890 265.203 C 165.148 265.451, 165.231 265.946, 166.140 266.699 C 167.228 267.600, 167.542 267.243, 167.710 264.912 C 167.825 263.311, 167.713 262, 167.460 262 C 167.207 262, 167 262.637, 167 263.417 M 172.270 264.357 C 172.257 266.233, 172.530 266.761, 173.064 265.897 C 173.708 264.854, 174.356 264.988, 176.172 266.540 C 177.936 268.048, 178.153 268.096, 177.110 266.750 C 176.024 265.348, 176.002 264.702, 177 263.500 C 177.860 262.464, 177.898 262, 177.122 262 C 176.505 262, 176 262.450, 176 263 C 176 264.443, 173.248 264.233, 172.728 262.750 C 172.487 262.063, 172.281 262.786, 172.270 264.357 M 103.500 265 C 104.495 266.100, 105.535 267, 105.810 267 C 106.085 267, 105.495 266.100, 104.500 265 C 103.505 263.900, 102.465 263, 102.190 263 C 101.915 263, 102.505 263.900, 103.500 265" stroke="none" fill="black" fill-rule="evenodd"/>
	<path fill-opacity="0.486" d="M 125.105 48.583 C 116.943 50.777, 110.144 54.838, 103.491 61.491 C 98.067 66.915, 91.128 77.461, 92.246 78.580 C 92.491 78.824, 94.756 78.111, 97.281 76.994 C 101.755 75.015, 111.127 72.794, 111.870 73.536 C 112.074 73.741, 110.919 75.616, 109.303 77.704 C 101.674 87.561, 101.780 88.340, 109.724 80.818 C 120.901 70.233, 135.790 59.376, 149.375 51.902 L 154.251 49.220 149.076 48.110 C 142.093 46.612, 131.668 46.818, 125.105 48.583 M 170.500 50.120 C 166.650 51.208, 158.426 54.530, 152.225 57.502 C 126.502 69.830, 102.349 89.717, 88.908 109.637 L 83.619 117.474 92.986 107.676 C 101.023 99.269, 112.396 89.120, 119.500 84.015 C 120.600 83.225, 117.421 86.836, 112.435 92.039 C 100.298 104.705, 91.650 115.624, 92.572 117.117 C 93.027 117.853, 92.883 118.046, 92.197 117.622 C 91.056 116.917, 87.688 122.213, 88.540 123.373 C 88.793 123.718, 88.702 123.777, 88.337 123.504 C 87.313 122.737, 83.868 128.977, 84.633 130.215 C 85.032 130.861, 84.848 131.024, 84.184 130.614 C 82.648 129.665, 81.426 134.865, 82.706 136.905 C 84.152 139.212, 93.092 139.473, 101.500 137.454 C 110.239 135.356, 110.617 135.121, 108.092 133.352 C 106.511 132.245, 105.168 132.138, 102.269 132.889 C 95.740 134.581, 87 135.327, 87 134.192 C 87 130.989, 101.347 116.510, 108.500 112.494 C 121.390 105.256, 147.532 96.772, 149.254 99.268 C 150.646 101.285, 149.412 112.280, 147.243 117.184 C 144.370 123.679, 138.720 129.499, 132.161 132.720 C 127.450 135.033, 125.200 135.500, 118.756 135.500 C 111.206 135.500, 111.068 135.544, 113.256 137.239 C 116.665 139.880, 125.265 142.868, 132.839 144.043 C 141.862 145.443, 151.419 143.913, 160.500 139.616 C 177.066 131.777, 187.091 117.024, 188.690 98.132 L 189.313 90.763 198.499 81.578 C 208.734 71.343, 212.207 65.123, 209.994 60.990 C 208.875 58.898, 208.294 58.788, 200.650 59.223 C 184.462 60.142, 159.045 71.166, 126.500 91.382 C 120.752 94.953, 120.647 94.979, 124 92.009 C 129.359 87.262, 151.395 73.784, 164.640 67.152 C 177.917 60.503, 192.634 55, 197.139 55 C 199.096 55, 199.879 54.613, 199.421 53.872 C 198.331 52.109, 188.015 53.591, 177.982 56.953 C 169.420 59.821, 152.250 68.011, 143 73.637 C 135.095 78.446, 140.761 73.381, 150.819 66.648 C 160.676 60.050, 171.508 54.074, 180.500 50.275 L 185.500 48.162 181.500 48.152 C 179.300 48.147, 174.350 49.032, 170.500 50.120 M 193.500 65.678 C 182.832 68.060, 157 77.464, 157 78.967 C 157 79.347, 162.063 78.181, 168.250 76.376 C 174.438 74.572, 180.451 73.074, 181.614 73.048 C 183.611 73.003, 184.888 75.315, 187.619 83.924 C 187.937 84.927, 189.423 84.041, 192.651 80.924 C 197.955 75.801, 205 67.237, 205 65.910 C 205 64.997, 197.250 64.841, 193.500 65.678 M 101.998 176.750 C 102 184.123, 102.291 186, 103.437 186 C 104.327 186, 104.993 184.763, 105.187 182.750 L 105.500 179.500 113.741 179.210 C 121.434 178.939, 122.021 178.764, 122.569 176.581 C 122.892 175.294, 123.009 172.950, 122.828 171.371 L 122.500 168.500 112.248 168 L 101.995 167.500 101.998 176.750 M 134.999 169.250 C 135 170.771, 136.048 171, 143 171 C 150.333 171, 151 171.167, 151 173 C 151 174.829, 150.333 175, 143.200 175 C 138.467 175, 134.928 175.472, 134.200 176.200 C 133.540 176.860, 133 179.335, 133 181.700 L 133 186 143.500 186 C 153.333 186, 154 185.873, 154 184 C 154 182.148, 153.333 182, 145 182 C 137.667 182, 136 181.722, 136 180.500 C 136 179.308, 137.452 179, 143.066 179 C 152.291 179, 154 178.052, 154 172.933 C 154 168.099, 153.585 167.899, 143.078 167.673 C 135.984 167.521, 134.999 167.713, 134.999 169.250 M 163.999 176.750 C 164 184.124, 164.291 186, 165.437 186 C 166.327 186, 166.993 184.763, 167.187 182.750 L 167.500 179.500 176 179 L 184.500 178.500 184.805 173.740 C 185.025 170.317, 184.708 168.825, 183.678 168.430 C 182.891 168.128, 178.141 167.795, 173.122 167.690 L 163.998 167.500 163.999 176.750 M 105 173.500 C 105 175.929, 105.200 176, 112 176 C 118.800 176, 119 175.929, 119 173.500 C 119 171.071, 118.800 171, 112 171 C 105.200 171, 105 171.071, 105 173.500 M 167.667 171.667 C 167.300 172.033, 167 173.158, 167 174.167 C 167 175.781, 167.894 176, 174.500 176 C 181.833 176, 182 175.944, 182 173.500 C 182 171.077, 181.789 171, 175.167 171 C 171.408 171, 168.033 171.300, 167.667 171.667 M 103.269 194.693 C 104.242 194.947, 105.592 194.930, 106.269 194.656 C 106.946 194.382, 106.150 194.175, 104.500 194.195 C 102.850 194.215, 102.296 194.439, 103.269 194.693 M 111 197 C 111 199.749, 111.272 199.987, 114.250 199.850 C 117.275 199.711, 117.310 199.671, 114.750 199.284 C 112.881 199.001, 112 198.269, 112 197 C 112 195.731, 112.881 194.999, 114.750 194.716 C 117.310 194.329, 117.275 194.289, 114.250 194.150 C 111.272 194.013, 111 194.251, 111 197 M 121 197 C 121 199.639, 121.331 199.984, 123.750 199.864 C 126.108 199.747, 126.179 199.666, 124.250 199.294 C 122.878 199.030, 122 198.135, 122 197 C 122 195.865, 122.878 194.970, 124.250 194.706 C 126.179 194.334, 126.108 194.253, 123.750 194.136 C 121.331 194.016, 121 194.361, 121 197 M 130.221 197.060 C 130.278 199.067, 130.589 199.669, 131.123 198.810 C 131.748 197.806, 132.366 197.765, 133.766 198.631 C 135.363 199.620, 135.620 199.400, 135.812 196.881 C 136.008 194.308, 135.717 194, 133.083 194 C 130.441 194, 130.143 194.319, 130.221 197.060 M 142.500 194.732 C 143.600 195.007, 144.831 195.742, 145.235 196.366 C 145.701 197.086, 145.975 196.861, 145.985 195.750 C 145.996 194.476, 145.252 194.032, 143.250 194.116 C 141.142 194.205, 140.967 194.349, 142.500 194.732 M 152.269 194.693 C 153.242 194.947, 154.592 194.930, 155.269 194.656 C 155.946 194.382, 155.150 194.175, 153.500 194.195 C 151.850 194.215, 151.296 194.439, 152.269 194.693 M 160 195.500 C 160 196.325, 160.477 197, 161.059 197 C 161.641 197, 161.859 196.581, 161.542 196.068 C 161.225 195.555, 162.211 194.948, 163.733 194.718 C 166.329 194.325, 166.299 194.290, 163.250 194.150 C 160.961 194.044, 160 194.444, 160 195.500 M 170 197 C 170 199.639, 170.331 199.984, 172.750 199.864 C 175.108 199.747, 175.179 199.666, 173.250 199.294 C 171.878 199.030, 171 198.135, 171 197 C 171 195.865, 171.878 194.970, 173.250 194.706 C 175.179 194.334, 175.108 194.253, 172.750 194.136 C 170.331 194.016, 170 194.361, 170 197 M 180.250 194.689 C 181.213 194.941, 182.787 194.941, 183.750 194.689 C 184.713 194.438, 183.925 194.232, 182 194.232 C 180.075 194.232, 179.287 194.438, 180.250 194.689 M 131 196 C 131 196.550, 131.900 197, 133 197 C 134.100 197, 135 196.550, 135 196 C 135 195.450, 134.100 195, 133 195 C 131.900 195, 131 195.450, 131 196 M 182.276 196.850 L 180.052 197.500 182.327 198.562 C 184.237 199.454, 184.625 199.333, 184.739 197.812 C 184.814 196.815, 184.791 196.045, 184.688 196.100 C 184.585 196.155, 183.499 196.492, 182.276 196.850 M 103.269 197.693 C 104.242 197.947, 105.592 197.930, 106.269 197.656 C 106.946 197.382, 106.150 197.175, 104.500 197.195 C 102.850 197.215, 102.296 197.439, 103.269 197.693 M 152.269 197.693 C 153.242 197.947, 154.592 197.930, 155.269 197.656 C 155.946 197.382, 155.150 197.175, 153.500 197.195 C 151.850 197.215, 151.296 197.439, 152.269 197.693 M 160 199.173 C 160 199.628, 161.350 200, 163 200 C 164.650 200, 166 199.826, 166 199.613 C 166 199.401, 164.650 199.029, 163 198.787 C 161.350 198.545, 160 198.718, 160 199.173 M 142.269 199.693 C 143.242 199.947, 144.592 199.930, 145.269 199.656 C 145.946 199.382, 145.150 199.175, 143.500 199.195 C 141.850 199.215, 141.296 199.439, 142.269 199.693" stroke="none" fill="black" fill-rule="evenodd"/>
	<path fill-opacity="0.965" d="M 126.500 48.405 C 119.473 50.141, 111.735 53.761, 112.478 54.965 C 112.829 55.533, 112.493 55.743, 111.712 55.443 C 110.947 55.149, 109.686 55.717, 108.910 56.704 C 107.596 58.378, 107.636 58.399, 109.500 57.017 C 111.480 55.549, 111.481 55.557, 109.595 57.767 C 107.581 60.128, 106.405 60.772, 107.580 58.870 C 108.008 58.178, 107.740 57.936, 106.889 58.245 C 106.125 58.523, 105.612 59.256, 105.750 59.875 C 105.887 60.494, 105.437 60.887, 104.750 60.750 C 104.062 60.612, 103.624 61.096, 103.775 61.824 C 103.926 62.553, 103.619 62.883, 103.093 62.558 C 101.997 61.880, 98.840 65.932, 99.558 67.094 C 99.819 67.516, 99.506 68.187, 98.862 68.585 C 98.131 69.037, 97.959 68.876, 98.405 68.155 C 98.797 67.520, 98.909 67, 98.654 67 C 98.079 67, 93 75.591, 93 76.564 C 93 76.954, 94.237 76.033, 95.750 74.517 C 99.856 70.404, 107.819 66.182, 113.829 64.933 C 116.760 64.324, 119.431 64.098, 119.764 64.431 C 120.870 65.537, 112.845 72.871, 111.125 72.326 C 109.840 71.919, 109.786 72.016, 110.869 72.788 C 112.210 73.745, 111.653 74.700, 102.596 86.988 C 101.993 87.806, 104.759 85.331, 108.743 81.488 C 115.762 74.715, 117.850 72.305, 114.250 75.128 C 112.677 76.361, 112.634 76.329, 113.823 74.809 C 114.551 73.880, 115.716 73.338, 116.413 73.605 C 117.632 74.073, 120.694 71.320, 120.316 70.096 C 120.214 69.768, 120.717 69.618, 121.432 69.763 C 122.148 69.908, 123.356 69.259, 124.117 68.321 C 125.043 67.179, 125.087 66.864, 124.250 67.367 C 122.428 68.462, 122.721 67.471, 124.692 65.872 C 125.842 64.940, 126.143 64.901, 125.633 65.750 C 125.220 66.438, 125.303 67, 125.819 67 C 127.223 67, 129.087 64.420, 128.272 63.605 C 127.881 63.214, 128.289 63.174, 129.179 63.515 C 130.069 63.857, 131.138 63.586, 131.553 62.914 C 132.078 62.065, 131.879 61.940, 130.905 62.506 C 130.086 62.981, 129.843 62.946, 130.321 62.423 C 130.772 61.929, 131.897 61.520, 132.821 61.513 C 133.744 61.506, 134.405 60.990, 134.289 60.368 C 134.173 59.745, 134.848 59.295, 135.789 59.368 C 136.730 59.440, 137.405 58.990, 137.289 58.368 C 137.173 57.745, 137.848 57.295, 138.789 57.368 C 139.730 57.440, 140.393 56.954, 140.262 56.286 C 140.131 55.618, 140.581 55.273, 141.262 55.518 C 141.943 55.763, 144.975 54.407, 148 52.504 C 151.025 50.602, 152.964 49.035, 152.309 49.023 C 151.654 49.010, 150.821 49.481, 150.458 50.068 C 150.095 50.656, 149.145 50.886, 148.347 50.580 C 147.549 50.273, 147.142 50.421, 147.442 50.907 C 147.743 51.393, 147.331 52.043, 146.526 52.352 C 145.722 52.660, 144.794 52.475, 144.463 51.940 C 144.132 51.405, 143.373 51.269, 142.776 51.638 C 142.113 52.048, 141.980 51.841, 142.435 51.106 C 143.004 50.185, 143.509 50.177, 144.589 51.074 C 145.603 51.916, 146 51.929, 146 51.122 C 146 50.505, 145.662 49.962, 145.250 49.917 C 144.838 49.871, 143.508 49.723, 142.296 49.587 C 141.084 49.452, 140.351 49.759, 140.667 50.270 C 140.983 50.781, 140.317 50.705, 139.186 50.100 C 138.056 49.495, 135.639 48.922, 133.816 48.827 C 131.992 48.732, 133.425 48.360, 137 48 L 143.500 47.345 137.500 47.258 C 134.200 47.209, 129.250 47.726, 126.500 48.405 M 146.750 48.662 C 147.438 48.940, 148.563 48.940, 149.250 48.662 C 149.938 48.385, 149.375 48.158, 148 48.158 C 146.625 48.158, 146.063 48.385, 146.750 48.662 M 176.500 48.683 C 169.402 50.283, 161.134 53.408, 161.677 54.287 C 162.051 54.891, 161.812 55.002, 161.094 54.558 C 159.602 53.636, 153.816 55.893, 154.565 57.105 C 154.861 57.584, 154.332 57.681, 153.388 57.319 C 152.132 56.836, 151.891 57.015, 152.490 57.985 C 153.015 58.833, 152.921 59.069, 152.229 58.642 C 150.750 57.728, 145.912 60.048, 146.686 61.301 C 147.036 61.867, 146.812 62.002, 146.175 61.608 C 144.728 60.714, 140.753 62.791, 141.524 64.039 C 141.852 64.569, 141.357 64.691, 140.388 64.319 C 139.308 63.904, 138.914 64.052, 139.325 64.717 C 139.695 65.316, 139.235 65.715, 138.263 65.637 C 137.320 65.562, 136.537 66.025, 136.524 66.667 C 136.511 67.308, 136.090 68.208, 135.590 68.667 C 135.052 69.159, 135.007 68.935, 135.479 68.120 C 136.029 67.171, 135.845 66.898, 134.889 67.245 C 134.125 67.523, 133.624 68.290, 133.775 68.949 C 133.926 69.609, 133.592 69.866, 133.033 69.521 C 132.094 68.940, 123 74.457, 123 75.607 C 123 75.888, 123.520 75.797, 124.155 75.405 C 124.854 74.972, 125.038 75.129, 124.622 75.802 C 124.245 76.413, 123.388 76.710, 122.718 76.462 C 122.048 76.214, 119.025 78.224, 116 80.929 C 112.972 83.636, 111.274 85.744, 112.221 85.619 C 113.168 85.494, 114.255 85.078, 114.638 84.696 C 115.020 84.313, 115.821 84.015, 116.417 84.033 C 117.012 84.052, 116.441 84.949, 115.146 86.028 C 113.851 87.107, 112.440 87.772, 112.009 87.506 C 111.579 87.240, 110.701 87.656, 110.057 88.431 C 107.804 91.146, 111.865 89.514, 116.882 85.688 C 122.063 81.737, 124.356 80.844, 121.653 83.831 C 120.741 84.838, 120.245 85.912, 120.550 86.217 C 120.856 86.522, 119.844 87.764, 118.303 88.977 C 116.761 90.189, 115.612 91.365, 115.750 91.591 C 116.200 92.328, 114.850 92.185, 114.167 91.423 C 113.800 91.014, 114.074 91.010, 114.775 91.414 C 115.476 91.818, 115.926 91.697, 115.775 91.145 C 115.624 90.593, 116.400 89.449, 117.500 88.602 C 118.600 87.756, 119.026 87.049, 118.446 87.032 C 117.867 87.014, 115.842 88.643, 113.946 90.650 C 112.051 92.658, 111.063 93.981, 111.750 93.591 C 112.438 93.201, 113 93.343, 113 93.906 C 113 95.148, 109.489 97.156, 108.699 96.366 C 108.389 96.056, 108.365 96.680, 108.645 97.752 C 108.928 98.833, 108.421 100.436, 107.506 101.351 C 106.599 102.258, 106.291 103, 106.822 103 C 108.351 103, 109.141 106.125, 107.969 107.538 C 106.381 109.451, 108.505 110.332, 111.229 108.892 C 112.478 108.231, 116.794 105.476, 120.819 102.768 C 129.429 96.978, 142.141 90.268, 150.311 87.202 L 156.122 85.021 158.259 89.761 C 161.162 96.200, 161.685 106.132, 159.515 113.598 C 154.905 129.453, 143.192 138, 126.073 138 C 121.724 138, 118.017 137.621, 117.833 137.159 C 117.650 136.696, 115.925 136.029, 114 135.676 C 110.728 135.077, 110.628 135.133, 112.471 136.540 C 113.556 137.367, 115.041 137.814, 115.773 137.534 C 116.505 137.253, 116.858 137.421, 116.558 137.907 C 115.855 139.043, 118.846 140.213, 120.245 139.349 C 120.856 138.971, 121.018 139.163, 120.625 139.798 C 119.462 141.680, 129.651 144, 139.076 144 C 148.161 144, 161.631 140.829, 160.477 138.962 C 160.148 138.431, 160.642 138.309, 161.612 138.681 C 162.769 139.125, 163.095 138.962, 162.612 138.181 C 162.177 137.477, 162.406 137.207, 163.198 137.494 C 163.914 137.753, 165.625 137.033, 167 135.895 C 168.375 134.758, 168.868 134.160, 168.095 134.568 C 167.191 135.045, 166.936 134.913, 167.378 134.198 C 167.755 133.587, 168.661 133.317, 169.392 133.597 C 171.485 134.400, 179.957 124.229, 183.631 116.500 C 187.464 108.438, 190.001 94.833, 188.208 91.961 C 187.336 90.566, 187.648 89.771, 189.813 87.865 L 192.500 85.500 190.076 88.250 C 186.721 92.055, 187.956 91.719, 191.563 87.845 C 193.178 86.110, 193.825 85.072, 193 85.537 C 191.707 86.267, 191.689 86.150, 192.872 84.692 C 194.358 82.860, 195.506 82.372, 194.500 84 C 194.160 84.550, 194.317 85, 194.848 85 C 196.048 85, 204.438 75.768, 207.705 70.854 C 210.426 66.760, 211.029 61.265, 208.905 59.920 C 205.628 57.846, 186.083 60.075, 189.120 62.176 C 190.100 62.854, 189.848 62.947, 188.250 62.498 C 185.545 61.737, 181.744 62.777, 182.537 64.061 C 182.849 64.565, 182.434 64.720, 181.616 64.406 C 178.929 63.375, 148.426 77.263, 149.514 79.022 C 149.853 79.571, 149.374 79.697, 148.388 79.319 C 147.231 78.875, 146.905 79.038, 147.388 79.819 C 147.870 80.599, 147.544 80.762, 146.388 80.319 C 145.132 79.836, 144.891 80.015, 145.490 80.985 C 146.030 81.857, 145.922 82.070, 145.175 81.608 C 143.728 80.714, 139.753 82.791, 140.524 84.039 C 140.852 84.569, 140.357 84.691, 139.388 84.319 C 138.308 83.904, 137.914 84.052, 138.325 84.717 C 138.697 85.318, 138.228 85.715, 137.239 85.637 C 136.283 85.562, 135.607 86.046, 135.738 86.714 C 135.885 87.463, 135.343 87.685, 134.324 87.294 C 133.263 86.887, 132.915 87.054, 133.352 87.761 C 133.726 88.366, 133.506 89.187, 132.862 89.585 C 132.088 90.063, 131.960 89.873, 132.485 89.025 C 133.017 88.163, 132.821 87.907, 131.889 88.245 C 131.125 88.523, 130.595 89.203, 130.711 89.757 C 130.827 90.311, 130.163 90.705, 129.235 90.632 C 128.307 90.560, 127.537 91.025, 127.524 91.667 C 127.511 92.308, 127.090 93.208, 126.590 93.667 C 126.052 94.159, 126.007 93.935, 126.479 93.120 C 127.029 92.171, 126.845 91.898, 125.889 92.245 C 125.125 92.523, 124.624 93.290, 124.775 93.949 C 124.926 94.609, 124.589 94.864, 124.027 94.516 C 123.464 94.169, 122.003 94.585, 120.779 95.442 C 117.999 97.390, 115.907 97.520, 118.559 95.581 C 119.626 94.800, 120.500 93.563, 120.500 92.832 C 120.500 92.101, 121.400 91.502, 122.500 91.501 C 123.600 91.501, 124.393 90.954, 124.262 90.286 C 124.115 89.537, 124.657 89.315, 125.676 89.706 C 126.703 90.100, 127.081 89.940, 126.675 89.283 C 126.316 88.702, 126.778 87.613, 127.703 86.863 C 129.126 85.709, 129.256 85.712, 128.553 86.880 C 127.975 87.839, 128.145 88.106, 129.111 87.755 C 129.875 87.477, 130.393 86.760, 130.262 86.161 C 130.131 85.562, 130.648 85.311, 131.411 85.604 C 132.174 85.897, 133.138 85.586, 133.553 84.914 C 134.078 84.065, 133.879 83.940, 132.905 84.506 C 132.086 84.981, 131.843 84.946, 132.321 84.423 C 132.772 83.929, 133.897 83.520, 134.821 83.513 C 135.744 83.506, 136.393 82.954, 136.262 82.286 C 136.115 81.537, 136.657 81.315, 137.676 81.706 C 138.737 82.113, 139.085 81.946, 138.648 81.239 C 138.274 80.634, 138.494 79.813, 139.138 79.415 C 139.912 78.937, 140.040 79.127, 139.515 79.975 C 138.983 80.837, 139.179 81.093, 140.111 80.755 C 140.875 80.477, 141.393 79.760, 141.262 79.161 C 141.131 78.562, 141.648 78.311, 142.411 78.604 C 143.174 78.897, 144.138 78.586, 144.553 77.914 C 145.068 77.080, 144.892 76.949, 144 77.500 C 143.127 78.039, 142.932 77.919, 143.415 77.138 C 143.813 76.494, 144.544 76.218, 145.040 76.525 C 146.462 77.404, 152.156 74.061, 151.378 72.803 C 150.968 72.140, 151.145 71.972, 151.816 72.386 C 153.268 73.284, 159.251 70.215, 158.481 68.969 C 158.148 68.430, 158.635 68.306, 159.612 68.681 C 160.868 69.164, 161.109 68.985, 160.510 68.015 C 159.990 67.174, 160.079 66.931, 160.755 67.349 C 162.264 68.281, 165.119 67.001, 164.340 65.741 C 163.983 65.163, 164.153 64.977, 164.718 65.326 C 165.283 65.675, 169.965 64.125, 175.123 61.882 C 180.280 59.639, 187.531 57.029, 191.236 56.082 C 199.984 53.847, 201.094 52.542, 193.520 53.397 C 181.860 54.712, 147.850 68.331, 149.512 71.019 C 149.853 71.572, 149.378 71.698, 148.388 71.319 C 147.273 70.891, 146.910 71.046, 147.352 71.761 C 147.726 72.366, 147.506 73.187, 146.862 73.585 C 146.088 74.063, 145.960 73.873, 146.485 73.025 C 147.017 72.163, 146.821 71.907, 145.889 72.245 C 145.125 72.523, 144.607 73.240, 144.738 73.839 C 144.875 74.468, 144.278 74.660, 143.324 74.294 C 142.096 73.823, 141.884 74.025, 142.496 75.080 C 142.950 75.861, 142.964 76.178, 142.529 75.785 C 142.093 75.392, 140.858 75.541, 139.783 76.116 C 136.148 78.062, 136.882 76.260, 140.941 73.275 C 143.160 71.643, 144.756 70.014, 144.487 69.654 C 144.219 69.294, 144.284 69.209, 144.631 69.465 C 145.601 70.179, 149.125 68.012, 148.539 67.063 C 148.254 66.602, 148.804 66.288, 149.761 66.363 C 150.717 66.438, 151.393 65.954, 151.262 65.286 C 151.131 64.618, 151.648 64.311, 152.411 64.604 C 153.174 64.897, 154.138 64.586, 154.553 63.914 C 155.082 63.059, 154.887 62.946, 153.905 63.537 C 152.708 64.258, 152.704 64.133, 153.872 62.692 C 155.417 60.788, 156.490 60.398, 155.420 62.130 C 154.992 62.822, 155.260 63.064, 156.111 62.755 C 156.875 62.477, 157.376 61.710, 157.225 61.051 C 157.074 60.391, 157.398 60.128, 157.946 60.467 C 159.434 61.386, 165.186 58.110, 164.378 56.803 C 163.988 56.172, 164.142 55.970, 164.733 56.335 C 166.068 57.160, 180.286 50.619, 179.300 49.633 C 178.894 49.227, 179.307 49.181, 180.220 49.531 C 181.132 49.881, 182.693 49.693, 183.689 49.114 C 185.195 48.238, 184.911 48.075, 182 48.146 C 180.075 48.193, 177.600 48.435, 176.500 48.683 M 174.507 50.989 C 174.157 51.555, 174.558 51.723, 175.448 51.382 C 177.180 50.717, 177.497 50, 176.059 50 C 175.541 50, 174.843 50.445, 174.507 50.989 M 170 51.393 C 170 51.609, 170.698 52.054, 171.552 52.382 C 172.442 52.723, 172.843 52.555, 172.493 51.989 C 171.906 51.038, 170 50.583, 170 51.393 M 178.500 58 C 177.181 58.567, 177.011 58.878, 178 58.914 C 178.825 58.945, 180.175 58.533, 181 58 C 182.828 56.819, 181.249 56.819, 178.500 58 M 174 60.059 C 174 60.641, 174.450 60.840, 175 60.500 C 175.550 60.160, 176 59.684, 176 59.441 C 176 59.198, 175.550 59, 175 59 C 174.450 59, 174 59.477, 174 60.059 M 189.051 66.596 C 186.054 67.402, 182.917 67.799, 182.081 67.478 C 181.245 67.157, 180.896 67.230, 181.306 67.639 C 182.249 68.582, 169.953 73.141, 168.198 72.499 C 167.482 72.237, 167.151 72.435, 167.463 72.939 C 168.197 74.128, 164.373 75.349, 162.854 74.410 C 162.077 73.930, 161.963 74.131, 162.510 75.015 C 163.109 75.985, 162.868 76.164, 161.612 75.681 C 160.593 75.290, 160.144 75.424, 160.507 76.011 C 160.843 76.555, 160.727 77, 160.250 77 C 159.773 77, 158.535 77.620, 157.499 78.377 C 155.794 79.624, 156.005 79.744, 159.743 79.645 C 162.012 79.586, 163.423 79.261, 162.877 78.924 C 162.331 78.587, 165.504 77.280, 169.928 76.021 C 175.995 74.293, 178.304 74.007, 179.327 74.857 C 180.073 75.476, 180.944 75.723, 181.261 75.406 C 182.045 74.622, 183.807 78.072, 184.228 81.216 C 184.417 82.626, 185.157 84.484, 185.872 85.346 C 186.587 86.207, 186.839 87.452, 186.432 88.111 C 185.948 88.893, 186.116 89.046, 186.914 88.553 C 187.586 88.138, 187.895 87.168, 187.600 86.399 C 187.111 85.125, 188.188 84.535, 190.324 84.906 C 190.778 84.985, 190.910 84.663, 190.618 84.190 C 190.326 83.718, 192.145 81.344, 194.662 78.916 C 199.477 74.268, 205 67.288, 205 65.850 C 205 64.515, 195.063 64.980, 189.051 66.596 M 153.543 68.931 C 153.226 69.443, 153.350 70.098, 153.817 70.387 C 154.284 70.676, 154.667 70.257, 154.667 69.456 C 154.667 67.770, 154.351 67.623, 153.543 68.931 M 203.872 69.750 C 202.629 71.336, 202.664 71.371, 204.250 70.128 C 205.213 69.373, 206 68.585, 206 68.378 C 206 67.555, 205.179 68.084, 203.872 69.750 M 126.872 73.750 C 125.629 75.336, 125.664 75.371, 127.250 74.128 C 128.916 72.821, 129.445 72, 128.622 72 C 128.415 72, 127.627 72.787, 126.872 73.750 M 200.872 73.750 C 199.629 75.336, 199.664 75.371, 201.250 74.128 C 202.213 73.373, 203 72.585, 203 72.378 C 203 71.555, 202.179 72.084, 200.872 73.750 M 201.946 75.750 L 198.500 79.500 202.250 76.054 C 204.313 74.158, 206 72.471, 206 72.304 C 206 71.540, 205.154 72.260, 201.946 75.750 M 105.750 73.662 C 106.438 73.940, 107.563 73.940, 108.250 73.662 C 108.938 73.385, 108.375 73.158, 107 73.158 C 105.625 73.158, 105.063 73.385, 105.750 73.662 M 180 73.383 C 180 73.594, 180.901 74.002, 182.001 74.290 C 183.102 74.578, 183.751 74.405, 183.442 73.907 C 182.904 73.036, 180 72.594, 180 73.383 M 101.813 74.683 C 102.534 74.972, 103.397 74.936, 103.729 74.604 C 104.061 74.272, 103.471 74.036, 102.417 74.079 C 101.252 74.127, 101.015 74.364, 101.813 74.683 M 176.510 76.016 C 176.856 76.575, 177.557 76.774, 178.069 76.457 C 179.456 75.600, 179.198 75, 177.441 75 C 176.584 75, 176.165 75.457, 176.510 76.016 M 117.456 80.780 C 115.232 82.826, 114.142 83.938, 115.035 83.250 C 117.070 81.682, 118.346 81.631, 117.405 83.155 C 116.949 83.892, 117.132 84.037, 117.912 83.554 C 118.584 83.139, 118.874 82.541, 118.557 82.224 C 118.241 81.907, 118.964 80.602, 120.165 79.324 C 123.469 75.808, 122.007 76.593, 117.456 80.780 M 185.170 79 C 185.186 79.825, 185.560 81.625, 186 83 C 186.644 85.010, 186.806 85.108, 186.830 83.500 C 186.846 82.400, 186.473 80.600, 186 79.500 C 185.473 78.275, 185.152 78.081, 185.170 79 M 195.601 79.836 C 195.347 80.248, 196.007 80.650, 197.069 80.730 C 199.366 80.903, 199.568 80.432, 197.532 79.651 C 196.725 79.341, 195.856 79.424, 195.601 79.836 M 107.872 87.750 C 106.629 89.336, 106.664 89.371, 108.250 88.128 C 109.916 86.821, 110.445 86, 109.622 86 C 109.415 86, 108.627 86.787, 107.872 87.750 M 185.920 93.417 C 186.409 94.013, 187.015 95.625, 187.268 97 C 187.622 98.925, 187.759 98.676, 187.864 95.917 C 187.961 93.354, 187.577 92.333, 186.516 92.333 C 185.570 92.333, 185.354 92.726, 185.920 93.417 M 143.813 98.683 C 144.534 98.972, 145.397 98.936, 145.729 98.604 C 146.061 98.272, 145.471 98.036, 144.417 98.079 C 143.252 98.127, 143.015 98.364, 143.813 98.683 M 150.286 104.500 C 150.294 107.250, 150.488 108.256, 150.718 106.736 C 150.947 105.216, 150.941 102.966, 150.704 101.736 C 150.467 100.506, 150.279 101.750, 150.286 104.500 M 108.507 101.989 C 108.157 102.555, 108.558 102.723, 109.448 102.382 C 111.180 101.717, 111.497 101, 110.059 101 C 109.541 101, 108.843 101.445, 108.507 101.989 M 186.195 103.500 C 186.215 105.150, 186.439 105.704, 186.693 104.731 C 186.947 103.758, 186.930 102.408, 186.656 101.731 C 186.382 101.054, 186.175 101.850, 186.195 103.500 M 109.768 105.168 C 110.350 105.750, 111.415 106.028, 112.137 105.788 C 112.886 105.538, 112.432 105.085, 111.080 104.731 C 109.417 104.296, 109.026 104.426, 109.768 105.168 M 109 108 C 108.175 108.533, 107.950 108.969, 108.500 108.969 C 109.050 108.969, 110.175 108.533, 111 108 C 111.825 107.467, 112.050 107.031, 111.500 107.031 C 110.950 107.031, 109.825 107.467, 109 108 M 106.441 112.555 C 104.577 114.049, 104.589 114.067, 106.750 113.020 C 107.987 112.420, 109 111.720, 109 111.465 C 109 110.700, 108.481 110.921, 106.441 112.555 M 149.079 112.583 C 149.127 113.748, 149.364 113.985, 149.683 113.188 C 149.972 112.466, 149.936 111.603, 149.604 111.271 C 149.272 110.939, 149.036 111.529, 149.079 112.583 M 183.624 112.539 C 182.659 115.053, 182.943 115.702, 184.122 113.675 C 184.706 112.671, 184.973 111.639, 184.715 111.382 C 184.458 111.124, 183.966 111.645, 183.624 112.539 M 147.144 117.750 C 146.053 120.300, 146.078 120.359, 147.484 118.559 C 148.318 117.491, 149 116.254, 149 115.809 C 149 114.289, 148.322 114.999, 147.144 117.750 M 141.564 125.783 C 138.039 130.008, 137.969 130.187, 140.900 127.500 C 143.676 124.954, 146.720 120.925, 145.785 121.033 C 145.628 121.051, 143.729 123.188, 141.564 125.783 M 177.405 124.250 L 175.500 126.500 177.750 124.595 C 178.988 123.547, 180 122.535, 180 122.345 C 180 121.545, 179.195 122.136, 177.405 124.250 M 172.924 129.750 L 170.500 132.500 173.250 130.076 C 175.820 127.810, 176.459 127, 175.674 127 C 175.495 127, 174.258 128.238, 172.924 129.750 M 102.707 133.011 C 101.171 133.472, 96.896 134.169, 93.207 134.558 C 86.992 135.214, 85.054 136.121, 85.015 138.394 C 84.993 139.699, 98.598 138.394, 104.848 136.492 C 109.762 134.996, 110.046 134.750, 108.348 133.464 C 106.248 131.873, 106.443 131.889, 102.707 133.011 M 131 133.500 C 129.625 134.286, 128.976 134.945, 129.559 134.965 C 130.141 134.984, 131.491 134.339, 132.559 133.532 C 135.028 131.664, 134.239 131.648, 131 133.500 M 105.733 134.124 C 106.412 134.808, 107.219 135.115, 107.526 134.807 C 107.834 134.499, 107.279 133.940, 106.293 133.564 C 104.868 133.022, 104.753 133.136, 105.733 134.124 M 86.507 136.989 C 86.157 137.555, 86.558 137.723, 87.448 137.382 C 89.180 136.717, 89.497 136, 88.059 136 C 87.541 136, 86.843 136.445, 86.507 136.989 M 102.160 177.250 C 102.248 182.338, 102.551 184.925, 102.833 183 L 103.347 179.500 104.042 183 L 104.737 186.500 104.868 182.750 L 105 179 113.393 179 C 122.347 179, 123 178.626, 123 173.500 C 123 168.259, 122.477 168, 111.893 168 L 102 168 102.160 177.250 M 135 169.462 C 135 170.718, 136.469 171, 143 171 C 150.333 171, 151 171.167, 151 173 C 151 174.811, 150.333 175, 143.934 175 C 134.365 175, 132.982 175.863, 133.070 181.785 C 133.123 185.339, 133.352 186.008, 134 184.500 C 134.473 183.400, 134.891 183.032, 134.930 183.681 C 134.977 184.478, 138.093 184.966, 144.502 185.181 C 152.424 185.447, 154.004 185.250, 154.004 184 C 154.003 182.781, 152.364 182.500, 145.252 182.500 C 137.167 182.500, 136.500 182.348, 136.500 180.500 C 136.500 178.696, 137.333 178.451, 145 178 L 153.500 177.500 153.500 173 L 153.500 168.500 144.250 168.212 C 136.469 167.971, 135 168.169, 135 169.462 M 164 176.798 C 164 184.015, 164.279 185.667, 165.500 185.667 C 166.530 185.667, 167 184.634, 167 182.372 L 167 179.078 175.750 178.789 L 184.500 178.500 184.500 173.500 L 184.500 168.500 174.250 168.215 L 164 167.930 164 176.798 M 107.750 169.662 C 108.438 169.940, 109.563 169.940, 110.250 169.662 C 110.938 169.385, 110.375 169.158, 109 169.158 C 107.625 169.158, 107.063 169.385, 107.750 169.662 M 169.750 169.706 C 170.988 169.944, 173.012 169.944, 174.250 169.706 C 175.488 169.467, 174.475 169.272, 172 169.272 C 169.525 169.272, 168.512 169.467, 169.750 169.706 M 177.813 169.683 C 178.534 169.972, 179.397 169.936, 179.729 169.604 C 180.061 169.272, 179.471 169.036, 178.417 169.079 C 177.252 169.127, 177.015 169.364, 177.813 169.683 M 165.232 173 C 165.232 174.925, 165.438 175.713, 165.689 174.750 C 165.941 173.787, 165.941 172.213, 165.689 171.250 C 165.438 170.287, 165.232 171.075, 165.232 173 M 103.195 173.500 C 103.215 175.150, 103.439 175.704, 103.693 174.731 C 103.947 173.758, 103.930 172.408, 103.656 171.731 C 103.382 171.054, 103.175 171.850, 103.195 173.500 M 105 173.500 C 105 175.944, 105.167 176, 112.500 176 C 119.833 176, 120 175.944, 120 173.500 C 120 171.056, 119.833 171, 112.500 171 C 105.167 171, 105 171.056, 105 173.500 M 167 173.500 C 167 175.944, 167.167 176, 174.500 176 C 181.833 176, 182 175.944, 182 173.500 C 182 171.056, 181.833 171, 174.500 171 C 167.167 171, 167 171.056, 167 173.500 M 183.232 175 C 183.232 176.925, 183.438 177.713, 183.689 176.750 C 183.941 175.787, 183.941 174.213, 183.689 173.250 C 183.438 172.287, 183.232 173.075, 183.232 175 M 108.728 177.722 C 110.503 177.943, 113.653 177.946, 115.728 177.730 C 117.802 177.513, 116.350 177.333, 112.500 177.328 C 108.650 177.324, 106.952 177.501, 108.728 177.722 M 165.252 180.500 C 165.263 182.700, 165.468 183.482, 165.707 182.238 C 165.946 180.994, 165.937 179.194, 165.687 178.238 C 165.437 177.282, 165.241 178.300, 165.252 180.500 M 170.728 177.722 C 172.503 177.943, 175.653 177.946, 177.728 177.730 C 179.802 177.513, 178.350 177.333, 174.500 177.328 C 170.650 177.324, 168.952 177.501, 170.728 177.722 M 134.158 180 C 134.158 181.375, 134.385 181.938, 134.662 181.250 C 134.940 180.563, 134.940 179.438, 134.662 178.750 C 134.385 178.063, 134.158 178.625, 134.158 180 M 121.813 194.683 C 122.534 194.972, 123.397 194.936, 123.729 194.604 C 124.061 194.272, 123.471 194.036, 122.417 194.079 C 121.252 194.127, 121.015 194.364, 121.813 194.683 M 132.269 194.693 C 133.242 194.947, 134.592 194.930, 135.269 194.656 C 135.946 194.382, 135.150 194.175, 133.500 194.195 C 131.850 194.215, 131.296 194.439, 132.269 194.693 M 170.813 194.683 C 171.534 194.972, 172.397 194.936, 172.729 194.604 C 173.061 194.272, 172.471 194.036, 171.417 194.079 C 170.252 194.127, 170.015 194.364, 170.813 194.683 M 133 197.378 C 133 197.585, 133.787 198.373, 134.750 199.128 C 136.336 200.371, 136.371 200.336, 135.128 198.750 C 133.821 197.084, 133 196.555, 133 197.378 M 123.813 199.683 C 124.534 199.972, 125.397 199.936, 125.729 199.604 C 126.061 199.272, 125.471 199.036, 124.417 199.079 C 123.252 199.127, 123.015 199.364, 123.813 199.683 M 162.750 199.662 C 163.438 199.940, 164.563 199.940, 165.250 199.662 C 165.938 199.385, 165.375 199.158, 164 199.158 C 162.625 199.158, 162.063 199.385, 162.750 199.662 M 171.269 199.693 C 172.242 199.947, 173.592 199.930, 174.269 199.656 C 174.946 199.382, 174.150 199.175, 172.500 199.195 C 170.850 199.215, 170.296 199.439, 171.269 199.693" stroke="none" fill="black" fill-rule="evenodd"/>
</svg>