<svg xmlns="http://www.w3.org/2000/svg" version="1.1" width="256px" height="256px" style="shape-rendering:geometricPrecision; text-rendering:geometricPrecision; image-rendering:optimizeQuality; fill-rule:evenodd; clip-rule:evenodd" xmlns:xlink="http://www.w3.org/1999/xlink">
<g><path style="opacity:0.996" fill="#00b0e0" d="M 87.5,-0.5 C 114.5,-0.5 141.5,-0.5 168.5,-0.5C 170.181,1.00751 172.181,2.00751 174.5,2.5C 175.29,3.40128 176.29,4.06795 177.5,4.5C 177.5,5.16667 177.833,5.5 178.5,5.5C 179.5,7.16667 180.833,8.5 182.5,9.5C 182.5,10.1667 182.833,10.5 183.5,10.5C 183.932,11.7095 184.599,12.7095 185.5,13.5C 185.66,15.153 186.326,16.4863 187.5,17.5C 187.328,18.4916 187.662,19.1583 188.5,19.5C 188.216,21.4147 188.549,23.0813 189.5,24.5C 189.5,35.5 189.5,46.5 189.5,57.5C 182.5,57.5 175.5,57.5 168.5,57.5C 168.827,47.3194 168.494,37.3194 167.5,27.5C 167.88,25.302 167.213,23.6354 165.5,22.5C 164.4,21.4415 163.066,20.6082 161.5,20C 138.996,19.1704 116.663,19.3371 94.5,20.5C 93.209,20.2627 92.209,20.596 91.5,21.5C 90.5084,21.3284 89.8417,21.6618 89.5,22.5C 88.6618,22.8417 88.3284,23.5084 88.5,24.5C 87.7321,25.2625 87.2321,26.2625 87,27.5C 86.8259,59.5716 86.3259,91.5716 85.5,123.5C 84.8333,123.5 84.5,123.833 84.5,124.5C 83.8333,124.5 83.5,124.833 83.5,125.5C 82.8333,125.5 82.5,125.833 82.5,126.5C 80.5,127.167 79.1667,128.5 78.5,130.5C 76.5,131.167 75.1667,132.5 74.5,134.5C 73.8333,134.5 73.5,134.833 73.5,135.5C 72.8333,135.5 72.5,135.833 72.5,136.5C 71.8333,136.5 71.5,136.833 71.5,137.5C 69.5,138.167 68.1667,139.5 67.5,141.5C 66.8333,141.5 66.5,141.833 66.5,142.5C 65.8333,142.5 65.5,142.833 65.5,143.5C 64.8333,143.5 64.5,143.833 64.5,144.5C 62.5,145.167 61.1667,146.5 60.5,148.5C 59.8333,148.5 59.5,148.833 59.5,149.5C 58.8333,149.5 58.5,149.833 58.5,150.5C 57.8333,150.5 57.5,150.833 57.5,151.5C 55.5,152.167 54.1667,153.5 53.5,155.5C 51.5,156.167 50.1667,157.5 49.5,159.5C 48.8333,159.5 48.5,159.833 48.5,160.5C 47.8333,160.5 47.5,160.833 47.5,161.5C 46.8333,161.5 46.5,161.833 46.5,162.5C 44.5,163.167 43.1667,164.5 42.5,166.5C 41.8333,166.5 41.5,166.833 41.5,167.5C 40.8333,167.5 40.5,167.833 40.5,168.5C 39.8333,168.5 39.5,168.833 39.5,169.5C 37.5,170.167 36.1667,171.5 35.5,173.5C 32.8333,175.5 30.5,177.833 28.5,180.5C 26.7697,181.026 25.4363,182.026 24.5,183.5C 23.8333,183.5 23.5,183.833 23.5,184.5C 22.8333,184.5 22.5,184.833 22.5,185.5C 21.5084,185.328 20.8417,185.662 20.5,186.5C 19.5084,186.328 18.8417,186.662 18.5,187.5C 17.5084,187.328 16.8417,187.662 16.5,188.5C 12.004,190.027 7.67067,189.694 3.5,187.5C 3.5,186.833 3.16667,186.5 2.5,186.5C 2.5,185.833 2.16667,185.5 1.5,185.5C 1.01131,184.005 0.344644,182.671 -0.5,181.5C -0.5,150.167 -0.5,118.833 -0.5,87.5C 1.134,84.232 2.80067,80.8987 4.5,77.5C 5.16667,77.5 5.5,77.1667 5.5,76.5C 7.16667,75.5 8.5,74.1667 9.5,72.5C 10.1667,72.5 10.5,72.1667 10.5,71.5C 11.7095,71.0679 12.7095,70.4013 13.5,69.5C 15.153,69.3404 16.4863,68.6737 17.5,67.5C 30.7428,65.6689 44.0761,65.0022 57.5,65.5C 57.5,72.5 57.5,79.5 57.5,86.5C 47.4944,86.3335 37.4944,86.5002 27.5,87C 26.2625,87.2321 25.2625,87.7321 24.5,88.5C 23.5084,88.3284 22.8417,88.6618 22.5,89.5C 21.6618,89.8417 21.3284,90.5084 21.5,91.5C 20.7321,92.2625 20.2321,93.2625 20,94.5C 19.3333,115.833 19.3333,137.167 20,158.5C 20.7172,157.956 21.2172,157.289 21.5,156.5C 22.1667,156.5 22.5,156.167 22.5,155.5C 23.1667,155.5 23.5,155.167 23.5,154.5C 37.4652,141.035 51.2985,127.369 65,113.5C 65.3333,84.1667 65.6667,54.8333 66,25.5C 66.567,22.8323 67.067,20.1656 67.5,17.5C 69.0709,15.3649 70.4043,13.0316 71.5,10.5C 72.1667,10.5 72.5,10.1667 72.5,9.5C 74.1667,8.5 75.5,7.16667 76.5,5.5C 77.1667,5.5 77.5,5.16667 77.5,4.5C 78.7095,4.06795 79.7095,3.40128 80.5,2.5C 83.0177,1.73623 85.351,0.73623 87.5,-0.5 Z M 165.5,22.5 C 167.213,23.6354 167.88,25.302 167.5,27.5C 166.833,26.5 166.167,25.5 165.5,24.5C 165.5,23.8333 165.5,23.1667 165.5,22.5 Z M 21.5,91.5 C 21.5,112.833 21.5,134.167 21.5,155.5C 20.1667,155.833 20.1667,156.167 21.5,156.5C 21.2172,157.289 20.7172,157.956 20,158.5C 19.3333,137.167 19.3333,115.833 20,94.5C 20.2321,93.2625 20.7321,92.2625 21.5,91.5 Z"/></g>
<g><path style="opacity:0.006" fill="#14daf2" d="M 174.5,2.5 C 173.632,0.108091 174.299,-0.0585759 176.5,2C 175.906,2.46434 175.239,2.63101 174.5,2.5 Z"/></g>
<g><path style="opacity:0.012" fill="#11baff" d="M 80.5,2.5 C 78.0248,2.2533 78.0248,1.58664 80.5,0.5C 81.463,0.969834 81.463,1.6365 80.5,2.5 Z"/></g>
<g><path style="opacity:0.008" fill="#2bb7ff" d="M 77.5,4.5 C 76.8333,4.5 76.5,4.83333 76.5,5.5C 74.0248,5.2533 74.0248,4.58664 76.5,3.5C 77.1067,3.62358 77.44,3.95691 77.5,4.5 Z"/></g>
<g><path style="opacity:0.012" fill="#23b5f8" d="M 177.5,4.5 C 178.497,3.28749 179.497,3.45415 180.5,5C 179.906,5.46434 179.239,5.63101 178.5,5.5C 177.833,5.5 177.5,5.16667 177.5,4.5 Z"/></g>
<g><path style="opacity:0.016" fill="#23b7ff" d="M 72.5,9.5 C 71.8333,9.5 71.5,9.83333 71.5,10.5C 70.2875,9.50289 70.4542,8.50289 72,7.5C 72.4643,8.09442 72.631,8.76109 72.5,9.5 Z"/></g>
<g><path style="opacity:0.012" fill="#3b9fff" d="M 183.5,10.5 C 182.833,10.5 182.5,10.1667 182.5,9.5C 182.747,7.02482 183.413,7.02482 184.5,9.5C 184.376,10.1067 184.043,10.44 183.5,10.5 Z"/></g>
<g><path style="opacity:0.004" fill="#0ee5f2" d="M 185.5,13.5 C 185.747,11.0248 186.413,11.0248 187.5,13.5C 187.03,14.463 186.363,14.463 185.5,13.5 Z"/></g>
<g><path style="opacity:0.005" fill="#1dd9f6" d="M 67.5,17.5 C 66.7784,17.9175 66.2784,18.5842 66,19.5C 65.4795,17.7111 65.8129,16.0444 67,14.5C 67.4828,15.448 67.6495,16.448 67.5,17.5 Z"/></g>
<g><path style="opacity:0.024" fill="#1e97b5" d="M 189.5,19.5 C 189.167,19.5 188.833,19.5 188.5,19.5C 188.672,18.5084 188.338,17.8417 187.5,17.5C 187.369,16.7611 187.536,16.0944 188,15.5C 189.188,16.5634 189.688,17.8967 189.5,19.5 Z"/></g>
<g><path style="opacity:0.004" fill="#00fffe" d="M 94.5,21.5 C 94.5,21.1667 94.5,20.8333 94.5,20.5C 182.5,20.8333 182.5,21.1667 94.5,21.5 Z"/></g>
<g><path style="opacity:0.024" fill="#0bb7d2" d="M 64.5,20.5 C 65.5983,21.6009 65.765,22.9343 65,24.5C 64.51,23.2068 64.3433,21.8734 64.5,20.5 Z"/></g>
<g><path style="opacity:0.012" fill="#328cf6" d="M 91.5,22.5 C 91.5,22.1667 91.5,21.8333 91.5,21.5C 92.5,21.5 93.5,21.5 94.5,21.5C 93.791,22.404 92.791,22.7373 91.5,22.5 Z"/></g>
<g><path style="opacity:0.016" fill="#02b9ff" d="M 89.5,22.5 C 90.1667,22.5 90.8333,22.5 91.5,22.5C 91.1667,23.5 90.5,24.1667 89.5,24.5C 89.5,23.8333 89.5,23.1667 89.5,22.5 Z"/></g>
<g><path style="opacity:0.02" fill="#0cd5ee" d="M 165.5,22.5 C 165.5,23.1667 165.5,23.8333 165.5,24.5C 163.067,23.4523 163.067,22.7856 165.5,22.5 Z"/></g>
<g><path style="opacity:0.008" fill="#3190db" d="M 189.5,19.5 C 190.29,20.6085 190.79,21.9419 191,23.5C 191.667,34.5 191.667,45.5 191,56.5C 190.83,45.6588 190.33,34.9921 189.5,24.5C 189.5,22.8333 189.5,21.1667 189.5,19.5 Z"/></g>
<g><path style="opacity:0.004" fill="#03d2d4" d="M 88.5,24.5 C 88.8333,24.5 89.1667,24.5 89.5,24.5C 89.9856,57.2538 89.4856,89.9204 88,122.5C 87.1954,89.8104 87.362,57.1437 88.5,24.5 Z"/></g>
<g><path style="opacity:0.004" fill="#1f1df5" d="M 165.5,24.5 C 166.167,25.5 166.833,26.5 167.5,27.5C 167.832,37.1896 167.498,46.8563 166.5,56.5C 165.501,45.8541 165.168,35.1874 165.5,24.5 Z"/></g>
<g><path style="opacity:0.02" fill="#1596ce" d="M 168.5,59.5 C 175.321,58.3454 182.321,58.1787 189.5,59C 182.508,59.4996 175.508,59.6663 168.5,59.5 Z"/></g>
<g><path style="opacity:0.008" fill="#088a8f" d="M 19.5,65.5 C 20.6085,64.71 21.9419,64.21 23.5,64C 34.5,63.3333 45.5,63.3333 56.5,64C 44.1463,64.2714 31.813,64.7714 19.5,65.5 Z"/></g>
<g><path style="opacity:0.008" fill="#078281" d="M 235.5,65.5 C 188.851,64.6914 142.185,64.1914 95.5,64C 140.833,63.3333 186.167,63.3333 231.5,64C 233.058,64.21 234.391,64.71 235.5,65.5 Z"/></g>
<g><path style="opacity:0.02" fill="#00baed" d="M 17.5,66.5 C 17.8417,65.6618 18.5084,65.3284 19.5,65.5C 19.1583,66.3382 18.4916,66.6716 17.5,66.5 Z"/></g>
<g><path style="opacity:0.012" fill="#0db1c5" d="M 17.5,66.5 C 17.5,66.8333 17.5,67.1667 17.5,67.5C 14.8333,67.1667 14.8333,66.8333 17.5,66.5 Z"/></g>
<g><path style="opacity:0.008" fill="#248073" d="M 235.5,65.5 C 237.38,65.2291 238.713,65.8958 239.5,67.5C 238.833,67.5 238.167,67.5 237.5,67.5C 236.833,66.8333 236.167,66.1667 235.5,65.5 Z"/></g>
<g><path style="opacity:0.02" fill="#34c897" d="M 94.5,86.5 C 93.346,80.013 93.1794,73.3464 94,66.5C 94.4996,73.1583 94.6663,79.825 94.5,86.5 Z"/></g>
<g><path style="opacity:0.995" fill="#38b6a1" d="M 237.5,67.5 C 237.842,68.3382 238.508,68.6716 239.5,68.5C 239.842,69.3382 240.508,69.6716 241.5,69.5C 242.29,70.4013 243.29,71.0679 244.5,71.5C 244.5,72.1667 244.833,72.5 245.5,72.5C 246.5,74.1667 247.833,75.5 249.5,76.5C 249.5,77.1667 249.833,77.5 250.5,77.5C 250.932,78.7095 251.599,79.7095 252.5,80.5C 252.5,81.1667 252.833,81.5 253.5,81.5C 253.402,83.5529 254.069,85.2196 255.5,86.5C 255.5,113.833 255.5,141.167 255.5,168.5C 252.989,174.345 249.323,179.345 244.5,183.5C 243.833,183.5 243.5,183.833 243.5,184.5C 241.566,185.11 239.899,186.11 238.5,187.5C 224.923,189.336 211.257,190.003 197.5,189.5C 197.5,182.5 197.5,175.5 197.5,168.5C 208.014,168.828 218.347,168.494 228.5,167.5C 229.791,167.737 230.791,167.404 231.5,166.5C 232.167,166.5 232.5,166.167 232.5,165.5C 233.966,164.653 234.8,163.32 235,161.5C 235.667,138.833 235.667,116.167 235,93.5C 234.8,91.6803 233.966,90.347 232.5,89.5C 232.158,88.6618 231.492,88.3284 230.5,88.5C 229.737,87.7321 228.737,87.2321 227.5,87C 183.501,86.5 139.501,86.3333 95.5,86.5C 95.5,79.5 95.5,72.5 95.5,65.5C 140.168,65.3333 184.835,65.5 229.5,66C 232.168,66.567 234.834,67.067 237.5,67.5 Z"/></g>
<g><path style="opacity:0.012" fill="#1e92f0" d="M 13.5,69.5 C 11.0248,69.2533 11.0248,68.5866 13.5,67.5C 14.463,67.9698 14.463,68.6365 13.5,69.5 Z"/></g>
<g><path style="opacity:0.012" fill="#13aab9" d="M 58.5,66.5 C 59.654,72.987 59.8206,79.6536 59,86.5C 58.5004,79.8417 58.3337,73.175 58.5,66.5 Z"/></g>
<g><path style="opacity:0.008" fill="#2b9f88" d="M 239.5,68.5 C 239.5,68.1667 239.5,67.8333 239.5,67.5C 241.103,67.3118 242.437,67.8118 243.5,69C 242.906,69.4643 242.239,69.631 241.5,69.5C 241.158,68.6618 240.492,68.3284 239.5,68.5 Z"/></g>
<g><path style="opacity:0.004" fill="#3be0d3" d="M 244.5,71.5 C 245.497,70.2875 246.497,70.4542 247.5,72C 246.906,72.4643 246.239,72.631 245.5,72.5C 244.833,72.5 244.5,72.1667 244.5,71.5 Z"/></g>
<g><path style="opacity:0.008" fill="#2273f5" d="M 10.5,71.5 C 9.83333,71.5 9.5,71.8333 9.5,72.5C 7.02482,72.2533 7.02482,71.5866 9.5,70.5C 10.1067,70.6236 10.44,70.9569 10.5,71.5 Z"/></g>
<g><path style="opacity:0.004" fill="#36c6ba" d="M 250.5,77.5 C 249.833,77.5 249.5,77.1667 249.5,76.5C 249.747,74.0248 250.413,74.0248 251.5,76.5C 251.376,77.1067 251.043,77.44 250.5,77.5 Z"/></g>
<g><path style="opacity:0.02" fill="#20a6e8" d="M 5.5,76.5 C 4.83333,76.5 4.5,76.8333 4.5,77.5C 3.28749,76.5029 3.45415,75.5029 5,74.5C 5.46434,75.0944 5.63101,75.7611 5.5,76.5 Z"/></g>
<g><path style="opacity:0.02" fill="#2bc4a6" d="M 254.5,81.5 C 254.167,81.5 253.833,81.5 253.5,81.5C 252.833,81.5 252.5,81.1667 252.5,80.5C 253.301,78.2071 253.968,78.5404 254.5,81.5 Z"/></g>
<g><path style="opacity:0.016" fill="#33a980" d="M 254.5,81.5 C 254.833,81.5 255.167,81.5 255.5,81.5C 255.5,82.1667 255.5,82.8333 255.5,83.5C 254.662,83.1583 254.328,82.4916 254.5,81.5 Z"/></g>
<g><path style="opacity:0.004" fill="#000000" d="M 94.5,86.5 C 94.8333,86.5 95.1667,86.5 95.5,86.5C 95.3147,87.1701 94.9813,87.1701 94.5,86.5 Z"/></g>
<g><path style="opacity:0.004" fill="#2525f8" d="M 24.5,89.5 C 24.5,89.1667 24.5,88.8333 24.5,88.5C 35.1559,87.2627 45.8226,87.2627 56.5,88.5C 45.8541,89.4987 35.1874,89.832 24.5,89.5 Z"/></g>
<g><path style="opacity:0.004" fill="#020504" d="M 230.5,88.5 C 230.5,88.8333 230.5,89.1667 230.5,89.5C 185.828,89.8333 141.162,89.4999 96.5,88.5C 141.185,87.1875 185.852,87.1875 230.5,88.5 Z"/></g>
<g><path style="opacity:0.024" fill="#3faf9f" d="M 230.5,89.5 C 231.167,89.5 231.833,89.5 232.5,89.5C 232.5,90.1667 232.5,90.8333 232.5,91.5C 231.5,91.1667 230.833,90.5 230.5,89.5 Z"/></g>
<g><path style="opacity:0.012" fill="#13afc4" d="M 22.5,89.5 C 23.1667,89.5 23.8333,89.5 24.5,89.5C 24.1667,90.5 23.5,91.1667 22.5,91.5C 22.5,90.8333 22.5,90.1667 22.5,89.5 Z"/></g>
<g><path style="opacity:0.008" fill="#33e687" d="M 232.5,91.5 C 233.525,91.8966 233.692,92.5632 233,93.5C 232.536,92.9056 232.369,92.2389 232.5,91.5 Z"/></g>
<g><path style="opacity:0.008" fill="#048488" d="M 21.5,91.5 C 21.8333,91.5 22.1667,91.5 22.5,91.5C 22.1787,112.576 22.512,133.576 23.5,154.5C 22.8333,154.5 22.5,154.833 22.5,155.5C 22.1667,155.5 21.8333,155.5 21.5,155.5C 21.5,134.167 21.5,112.833 21.5,91.5 Z"/></g>
<g><path style="opacity:0.997" fill="#8ac239" d="M 189.5,230.5 C 188.549,231.919 188.216,233.585 188.5,235.5C 185.989,241.345 182.323,246.345 177.5,250.5C 176.833,250.5 176.5,250.833 176.5,251.5C 174.973,251.427 173.973,252.094 173.5,253.5C 172.508,253.328 171.842,253.662 171.5,254.5C 170.209,254.263 169.209,254.596 168.5,255.5C 136.167,255.5 103.833,255.5 71.5,255.5C 71.0269,254.094 70.0269,253.427 68.5,253.5C 67.9744,251.77 66.9744,250.436 65.5,249.5C 65.5,246.5 65.5,243.5 65.5,240.5C 67.1227,236.6 69.2894,232.933 72,229.5C 92.1667,209.333 112.333,189.167 132.5,169C 141.494,168.5 150.494,168.334 159.5,168.5C 159.5,175.5 159.5,182.5 159.5,189.5C 153.31,189.177 147.31,189.51 141.5,190.5C 140.833,190.5 140.5,190.833 140.5,191.5C 139.833,191.5 139.5,191.833 139.5,192.5C 138.833,192.5 138.5,192.833 138.5,193.5C 137.833,193.5 137.5,193.833 137.5,194.5C 136.833,194.5 136.5,194.833 136.5,195.5C 135.833,195.5 135.5,195.833 135.5,196.5C 134.833,196.5 134.5,196.833 134.5,197.5C 133.833,197.5 133.5,197.833 133.5,198.5C 132.833,198.5 132.5,198.833 132.5,199.5C 131.833,199.5 131.5,199.833 131.5,200.5C 130.833,200.5 130.5,200.833 130.5,201.5C 129.833,201.5 129.5,201.833 129.5,202.5C 128.833,202.5 128.5,202.833 128.5,203.5C 127.833,203.5 127.5,203.833 127.5,204.5C 126.833,204.5 126.5,204.833 126.5,205.5C 125.833,205.5 125.5,205.833 125.5,206.5C 124.833,206.5 124.5,206.833 124.5,207.5C 123.833,207.5 123.5,207.833 123.5,208.5C 122.833,208.5 122.5,208.833 122.5,209.5C 121.833,209.5 121.5,209.833 121.5,210.5C 120.833,210.5 120.5,210.833 120.5,211.5C 119.833,211.5 119.5,211.833 119.5,212.5C 118.833,212.5 118.5,212.833 118.5,213.5C 117.833,213.5 117.5,213.833 117.5,214.5C 116.833,214.5 116.5,214.833 116.5,215.5C 115.833,215.5 115.5,215.833 115.5,216.5C 114.833,216.5 114.5,216.833 114.5,217.5C 113.833,217.5 113.5,217.833 113.5,218.5C 112.833,218.5 112.5,218.833 112.5,219.5C 111.833,219.5 111.5,219.833 111.5,220.5C 110.833,220.5 110.5,220.833 110.5,221.5C 109.833,221.5 109.5,221.833 109.5,222.5C 108.833,222.5 108.5,222.833 108.5,223.5C 107.833,223.5 107.5,223.833 107.5,224.5C 106.833,224.5 106.5,224.833 106.5,225.5C 105.833,225.5 105.5,225.833 105.5,226.5C 104.833,226.5 104.5,226.833 104.5,227.5C 103.833,227.5 103.5,227.833 103.5,228.5C 102.833,228.5 102.5,228.833 102.5,229.5C 101.833,229.5 101.5,229.833 101.5,230.5C 100.5,230.833 99.8333,231.5 99.5,232.5C 98.8333,232.5 98.5,232.833 98.5,233.5C 97.7109,233.783 97.0442,234.283 96.5,235C 118.167,235.667 139.833,235.667 161.5,235C 162.737,234.768 163.737,234.268 164.5,233.5C 165.167,233.5 165.5,233.167 165.5,232.5C 166.167,232.5 166.5,232.167 166.5,231.5C 167.268,230.737 167.768,229.737 168,228.5C 168.5,184.168 168.667,139.835 168.5,95.5C 175.5,95.5 182.5,95.5 189.5,95.5C 189.5,140.5 189.5,185.5 189.5,230.5 Z M 98.5,233.5 C 119.167,234.833 139.833,234.833 160.5,233.5C 161.833,233.5 163.167,233.5 164.5,233.5C 163.737,234.268 162.737,234.768 161.5,235C 139.833,235.667 118.167,235.667 96.5,235C 97.0442,234.283 97.7109,233.783 98.5,233.5 Z"/></g>
<g><path style="opacity:0.004" fill="#000100" d="M 166.5,227.5 C 166.167,227.5 165.833,227.5 165.5,227.5C 165.167,183.828 165.5,140.162 166.5,96.5C 167.831,140.331 167.831,183.998 166.5,227.5 Z"/></g>
<g><path style="opacity:0.008" fill="#80f60b" d="M 188.5,235.5 C 189.451,234.081 189.784,232.415 189.5,230.5C 190.333,185.669 190.833,140.669 191,95.5C 191.667,140.833 191.667,186.167 191,231.5C 190.71,233.952 190.044,236.285 189,238.5C 188.517,237.552 188.351,236.552 188.5,235.5 Z"/></g>
<g><path style="opacity:0.02" fill="#0099cc" d="M 85.5,123.5 C 86.8333,124.167 86.8333,124.167 85.5,123.5 Z"/></g>
<g><path style="opacity:0.016" fill="#00bfff" d="M 84.5,124.5 C 84.8333,124.5 85.1667,124.5 85.5,124.5C 85.3147,125.17 84.9813,125.17 84.5,124.5 Z"/></g>
<g><path style="opacity:0.016" fill="#00bfff" d="M 83.5,125.5 C 83.8333,125.5 84.1667,125.5 84.5,125.5C 84.3147,126.17 83.9813,126.17 83.5,125.5 Z"/></g>
<g><path style="opacity:0.02" fill="#0099cc" d="M 82.5,126.5 C 82.8333,126.5 83.1667,126.5 83.5,126.5C 83.3147,127.17 82.9813,127.17 82.5,126.5 Z"/></g>
<g><path style="opacity:0.02" fill="#0099cc" d="M 78.5,130.5 C 79.8333,131.167 79.8333,131.167 78.5,130.5 Z"/></g>
<g><path style="opacity:0.02" fill="#0099cc" d="M 74.5,134.5 C 75.8333,135.167 75.8333,135.167 74.5,134.5 Z"/></g>
<g><path style="opacity:0.016" fill="#00bfff" d="M 73.5,135.5 C 73.8333,135.5 74.1667,135.5 74.5,135.5C 74.3147,136.17 73.9813,136.17 73.5,135.5 Z"/></g>
<g><path style="opacity:0.016" fill="#00bfff" d="M 72.5,136.5 C 72.8333,136.5 73.1667,136.5 73.5,136.5C 73.3147,137.17 72.9813,137.17 72.5,136.5 Z"/></g>
<g><path style="opacity:0.02" fill="#0099cc" d="M 71.5,137.5 C 71.8333,137.5 72.1667,137.5 72.5,137.5C 72.3147,138.17 71.9813,138.17 71.5,137.5 Z"/></g>
<g><path style="opacity:0.02" fill="#0099cc" d="M 67.5,141.5 C 68.8333,142.167 68.8333,142.167 67.5,141.5 Z"/></g>
<g><path style="opacity:0.016" fill="#00bfff" d="M 66.5,142.5 C 66.8333,142.5 67.1667,142.5 67.5,142.5C 67.3147,143.17 66.9813,143.17 66.5,142.5 Z"/></g>
<g><path style="opacity:0.016" fill="#00bfff" d="M 65.5,143.5 C 65.8333,143.5 66.1667,143.5 66.5,143.5C 66.3147,144.17 65.9813,144.17 65.5,143.5 Z"/></g>
<g><path style="opacity:0.02" fill="#0099cc" d="M 64.5,144.5 C 64.8333,144.5 65.1667,144.5 65.5,144.5C 65.3147,145.17 64.9813,145.17 64.5,144.5 Z"/></g>
<g><path style="opacity:0.02" fill="#0099cc" d="M 60.5,148.5 C 61.8333,149.167 61.8333,149.167 60.5,148.5 Z"/></g>
<g><path style="opacity:0.016" fill="#00bfff" d="M 59.5,149.5 C 59.8333,149.5 60.1667,149.5 60.5,149.5C 60.3147,150.17 59.9813,150.17 59.5,149.5 Z"/></g>
<g><path style="opacity:0.016" fill="#00bfff" d="M 58.5,150.5 C 58.8333,150.5 59.1667,150.5 59.5,150.5C 59.3147,151.17 58.9813,151.17 58.5,150.5 Z"/></g>
<g><path style="opacity:0.02" fill="#0099cc" d="M 57.5,151.5 C 57.8333,151.5 58.1667,151.5 58.5,151.5C 58.3147,152.17 57.9813,152.17 57.5,151.5 Z"/></g>
<g><path style="opacity:0.02" fill="#0099cc" d="M 53.5,155.5 C 54.8333,156.167 54.8333,156.167 53.5,155.5 Z"/></g>
<g><path style="opacity:0.02" fill="#0099cc" d="M 49.5,159.5 C 50.8333,160.167 50.8333,160.167 49.5,159.5 Z"/></g>
<g><path style="opacity:0.016" fill="#00bfff" d="M 48.5,160.5 C 48.8333,160.5 49.1667,160.5 49.5,160.5C 49.3147,161.17 48.9813,161.17 48.5,160.5 Z"/></g>
<g><path style="opacity:0.016" fill="#00bfff" d="M 47.5,161.5 C 47.8333,161.5 48.1667,161.5 48.5,161.5C 48.3147,162.17 47.9813,162.17 47.5,161.5 Z"/></g>
<g><path style="opacity:0.02" fill="#0099cc" d="M 46.5,162.5 C 46.8333,162.5 47.1667,162.5 47.5,162.5C 47.3147,163.17 46.9813,163.17 46.5,162.5 Z"/></g>
<g><path style="opacity:0.02" fill="#0099cc" d="M 42.5,166.5 C 43.8333,167.167 43.8333,167.167 42.5,166.5 Z"/></g>
<g><path style="opacity:0.012" fill="#4fa7a6" d="M 232.5,165.5 C 231.833,165.5 231.5,165.833 231.5,166.5C 230.209,166.263 229.209,166.596 228.5,167.5C 218.161,167.666 207.828,167.5 197.5,167C 207.5,166.667 217.5,166.333 227.5,166C 229.329,165.727 230.829,164.893 232,163.5C 232.464,164.094 232.631,164.761 232.5,165.5 Z"/></g>
<g><path style="opacity:0.016" fill="#00bfff" d="M 41.5,167.5 C 41.8333,167.5 42.1667,167.5 42.5,167.5C 42.3147,168.17 41.9813,168.17 41.5,167.5 Z"/></g>
<g><path style="opacity:0.016" fill="#00bfff" d="M 40.5,168.5 C 40.8333,168.5 41.1667,168.5 41.5,168.5C 41.3147,169.17 40.9813,169.17 40.5,168.5 Z"/></g>
<g><path style="opacity:0.02" fill="#0099cc" d="M 39.5,169.5 C 39.8333,169.5 40.1667,169.5 40.5,169.5C 40.3147,170.17 39.9813,170.17 39.5,169.5 Z"/></g>
<g><path style="opacity:0.02" fill="#6da433" d="M 160.5,189.5 C 160.334,182.492 160.5,175.492 161,168.5C 161.821,175.679 161.655,182.679 160.5,189.5 Z"/></g>
<g><path style="opacity:0.02" fill="#34a09d" d="M 195.5,168.5 C 196.655,175.321 196.821,182.321 196,189.5C 195.5,182.508 195.334,175.508 195.5,168.5 Z"/></g>
<g><path style="opacity:0.008" fill="#219480" d="M 255.5,171.5 C 255.5,172.167 255.5,172.833 255.5,173.5C 254.167,172.833 254.167,172.167 255.5,171.5 Z"/></g>
<g><path style="opacity:0.02" fill="#0099cc" d="M 35.5,173.5 C 36.8333,174.167 36.8333,174.167 35.5,173.5 Z"/></g>
<g><path style="opacity:0.02" fill="#0099cc" d="M 28.5,180.5 C 29.8333,181.167 29.8333,181.167 28.5,180.5 Z"/></g>
<g><path style="opacity:0.004" fill="#12cbe0" d="M 24.5,183.5 C 26.7929,184.301 26.4596,184.968 23.5,185.5C 23.5,185.167 23.5,184.833 23.5,184.5C 24.1667,184.5 24.5,184.167 24.5,183.5 Z"/></g>
<g><path style="opacity:0.004" fill="#34c6c6" d="M 244.5,183.5 C 246.975,183.747 246.975,184.413 244.5,185.5C 243.893,185.376 243.56,185.043 243.5,184.5C 244.167,184.5 244.5,184.167 244.5,183.5 Z"/></g>
<g><path style="opacity:0.016" fill="#00bfff" d="M 22.5,185.5 C 22.8333,185.5 23.1667,185.5 23.5,185.5C 23.3147,186.17 22.9813,186.17 22.5,185.5 Z"/></g>
<g><path style="opacity:0.008" fill="#1a99ff" d="M 20.5,187.5 C 20.5,187.167 20.5,186.833 20.5,186.5C 21.1667,186.5 21.8333,186.5 22.5,186.5C 22.1583,187.338 21.4916,187.672 20.5,187.5 Z"/></g>
<g><path style="opacity:0.016" fill="#3795e5" d="M 1.5,185.5 C 2.16667,185.5 2.5,185.833 2.5,186.5C 3.16667,186.5 3.5,186.833 3.5,187.5C 3.10343,188.525 2.43677,188.692 1.5,188C 0.226406,187.023 0.226406,186.189 1.5,185.5 Z"/></g>
<g><path style="opacity:0.012" fill="#4fb0b0" d="M 238.5,187.5 C 239.239,187.369 239.906,187.536 240.5,188C 239.563,188.692 238.897,188.525 238.5,187.5 Z"/></g>
<g><path style="opacity:0.012" fill="#2c9edb" d="M 18.5,187.5 C 19.1667,187.5 19.8333,187.5 20.5,187.5C 19.4617,189.519 18.1284,189.853 16.5,188.5C 17.4916,188.672 18.1583,188.338 18.5,187.5 Z"/></g>
<g><path style="opacity:0.004" fill="#feff00" d="M 159.5,189.5 C 159.833,189.5 160.167,189.5 160.5,189.5C 160.315,190.17 159.981,190.17 159.5,189.5 Z"/></g>
<g><path style="opacity:0.024" fill="#84cd2e" d="M 141.5,191.5 C 141.5,191.167 141.5,190.833 141.5,190.5C 147.5,190.5 153.5,190.5 159.5,190.5C 153.69,191.49 147.69,191.823 141.5,191.5 Z"/></g>
<g><path style="opacity:0.024" fill="#7faa2a" d="M 140.5,191.5 C 140.833,191.5 141.167,191.5 141.5,191.5C 141.315,192.17 140.981,192.17 140.5,191.5 Z"/></g>
<g><path style="opacity:0.024" fill="#7faa2a" d="M 139.5,192.5 C 139.833,192.5 140.167,192.5 140.5,192.5C 140.315,193.17 139.981,193.17 139.5,192.5 Z"/></g>
<g><path style="opacity:0.024" fill="#7fd52a" d="M 138.5,193.5 C 138.833,193.5 139.167,193.5 139.5,193.5C 139.315,194.17 138.981,194.17 138.5,193.5 Z"/></g>
<g><path style="opacity:0.024" fill="#7fd52a" d="M 137.5,194.5 C 137.833,194.5 138.167,194.5 138.5,194.5C 138.315,195.17 137.981,195.17 137.5,194.5 Z"/></g>
<g><path style="opacity:0.024" fill="#7faa2a" d="M 136.5,195.5 C 136.833,195.5 137.167,195.5 137.5,195.5C 137.315,196.17 136.981,196.17 136.5,195.5 Z"/></g>
<g><path style="opacity:0.024" fill="#7fd52a" d="M 135.5,196.5 C 135.833,196.5 136.167,196.5 136.5,196.5C 136.315,197.17 135.981,197.17 135.5,196.5 Z"/></g>
<g><path style="opacity:0.024" fill="#7fd52a" d="M 134.5,197.5 C 134.833,197.5 135.167,197.5 135.5,197.5C 135.315,198.17 134.981,198.17 134.5,197.5 Z"/></g>
<g><path style="opacity:0.024" fill="#7faa2a" d="M 133.5,198.5 C 133.833,198.5 134.167,198.5 134.5,198.5C 134.315,199.17 133.981,199.17 133.5,198.5 Z"/></g>
<g><path style="opacity:0.024" fill="#7faa2a" d="M 132.5,199.5 C 132.833,199.5 133.167,199.5 133.5,199.5C 133.315,200.17 132.981,200.17 132.5,199.5 Z"/></g>
<g><path style="opacity:0.024" fill="#7fd52a" d="M 131.5,200.5 C 131.833,200.5 132.167,200.5 132.5,200.5C 132.315,201.17 131.981,201.17 131.5,200.5 Z"/></g>
<g><path style="opacity:0.024" fill="#7fd52a" d="M 130.5,201.5 C 130.833,201.5 131.167,201.5 131.5,201.5C 131.315,202.17 130.981,202.17 130.5,201.5 Z"/></g>
<g><path style="opacity:0.024" fill="#7faa2a" d="M 129.5,202.5 C 129.833,202.5 130.167,202.5 130.5,202.5C 130.315,203.17 129.981,203.17 129.5,202.5 Z"/></g>
<g><path style="opacity:0.024" fill="#7fd52a" d="M 128.5,203.5 C 128.833,203.5 129.167,203.5 129.5,203.5C 129.315,204.17 128.981,204.17 128.5,203.5 Z"/></g>
<g><path style="opacity:0.024" fill="#7fd52a" d="M 127.5,204.5 C 127.833,204.5 128.167,204.5 128.5,204.5C 128.315,205.17 127.981,205.17 127.5,204.5 Z"/></g>
<g><path style="opacity:0.024" fill="#7faa2a" d="M 126.5,205.5 C 126.833,205.5 127.167,205.5 127.5,205.5C 127.315,206.17 126.981,206.17 126.5,205.5 Z"/></g>
<g><path style="opacity:0.024" fill="#7faa2a" d="M 125.5,206.5 C 125.833,206.5 126.167,206.5 126.5,206.5C 126.315,207.17 125.981,207.17 125.5,206.5 Z"/></g>
<g><path style="opacity:0.024" fill="#7fd52a" d="M 124.5,207.5 C 124.833,207.5 125.167,207.5 125.5,207.5C 125.315,208.17 124.981,208.17 124.5,207.5 Z"/></g>
<g><path style="opacity:0.024" fill="#7fd52a" d="M 123.5,208.5 C 123.833,208.5 124.167,208.5 124.5,208.5C 124.315,209.17 123.981,209.17 123.5,208.5 Z"/></g>
<g><path style="opacity:0.024" fill="#7faa2a" d="M 122.5,209.5 C 122.833,209.5 123.167,209.5 123.5,209.5C 123.315,210.17 122.981,210.17 122.5,209.5 Z"/></g>
<g><path style="opacity:0.024" fill="#7faa2a" d="M 121.5,210.5 C 121.833,210.5 122.167,210.5 122.5,210.5C 122.315,211.17 121.981,211.17 121.5,210.5 Z"/></g>
<g><path style="opacity:0.024" fill="#7fd52a" d="M 120.5,211.5 C 120.833,211.5 121.167,211.5 121.5,211.5C 121.315,212.17 120.981,212.17 120.5,211.5 Z"/></g>
<g><path style="opacity:0.024" fill="#7fd52a" d="M 119.5,212.5 C 119.833,212.5 120.167,212.5 120.5,212.5C 120.315,213.17 119.981,213.17 119.5,212.5 Z"/></g>
<g><path style="opacity:0.024" fill="#7faa2a" d="M 118.5,213.5 C 118.833,213.5 119.167,213.5 119.5,213.5C 119.315,214.17 118.981,214.17 118.5,213.5 Z"/></g>
<g><path style="opacity:0.024" fill="#7fd52a" d="M 117.5,214.5 C 117.833,214.5 118.167,214.5 118.5,214.5C 118.315,215.17 117.981,215.17 117.5,214.5 Z"/></g>
<g><path style="opacity:0.024" fill="#7fd52a" d="M 116.5,215.5 C 116.833,215.5 117.167,215.5 117.5,215.5C 117.315,216.17 116.981,216.17 116.5,215.5 Z"/></g>
<g><path style="opacity:0.024" fill="#7faa2a" d="M 115.5,216.5 C 115.833,216.5 116.167,216.5 116.5,216.5C 116.315,217.17 115.981,217.17 115.5,216.5 Z"/></g>
<g><path style="opacity:0.024" fill="#7faa2a" d="M 114.5,217.5 C 114.833,217.5 115.167,217.5 115.5,217.5C 115.315,218.17 114.981,218.17 114.5,217.5 Z"/></g>
<g><path style="opacity:0.024" fill="#7fd52a" d="M 113.5,218.5 C 113.833,218.5 114.167,218.5 114.5,218.5C 114.315,219.17 113.981,219.17 113.5,218.5 Z"/></g>
<g><path style="opacity:0.024" fill="#7fd52a" d="M 112.5,219.5 C 112.833,219.5 113.167,219.5 113.5,219.5C 113.315,220.17 112.981,220.17 112.5,219.5 Z"/></g>
<g><path style="opacity:0.024" fill="#7faa2a" d="M 111.5,220.5 C 111.833,220.5 112.167,220.5 112.5,220.5C 112.315,221.17 111.981,221.17 111.5,220.5 Z"/></g>
<g><path style="opacity:0.024" fill="#7fd52a" d="M 110.5,221.5 C 110.833,221.5 111.167,221.5 111.5,221.5C 111.315,222.17 110.981,222.17 110.5,221.5 Z"/></g>
<g><path style="opacity:0.024" fill="#7fd52a" d="M 109.5,222.5 C 109.833,222.5 110.167,222.5 110.5,222.5C 110.315,223.17 109.981,223.17 109.5,222.5 Z"/></g>
<g><path style="opacity:0.024" fill="#7faa2a" d="M 108.5,223.5 C 108.833,223.5 109.167,223.5 109.5,223.5C 109.315,224.17 108.981,224.17 108.5,223.5 Z"/></g>
<g><path style="opacity:0.024" fill="#7faa2a" d="M 107.5,224.5 C 107.833,224.5 108.167,224.5 108.5,224.5C 108.315,225.17 107.981,225.17 107.5,224.5 Z"/></g>
<g><path style="opacity:0.024" fill="#7fd52a" d="M 106.5,225.5 C 106.833,225.5 107.167,225.5 107.5,225.5C 107.315,226.17 106.981,226.17 106.5,225.5 Z"/></g>
<g><path style="opacity:0.024" fill="#7fd52a" d="M 105.5,226.5 C 105.833,226.5 106.167,226.5 106.5,226.5C 106.315,227.17 105.981,227.17 105.5,226.5 Z"/></g>
<g><path style="opacity:0.024" fill="#7faa2a" d="M 104.5,227.5 C 104.833,227.5 105.167,227.5 105.5,227.5C 105.315,228.17 104.981,228.17 104.5,227.5 Z"/></g>
<g><path style="opacity:0.024" fill="#7faa2a" d="M 103.5,228.5 C 103.833,228.5 104.167,228.5 104.5,228.5C 104.315,229.17 103.981,229.17 103.5,228.5 Z"/></g>
<g><path style="opacity:0.024" fill="#7fd52a" d="M 102.5,229.5 C 102.833,229.5 103.167,229.5 103.5,229.5C 103.315,230.17 102.981,230.17 102.5,229.5 Z"/></g>
<g><path style="opacity:0.024" fill="#7fd52a" d="M 101.5,230.5 C 101.833,230.5 102.167,230.5 102.5,230.5C 102.315,231.17 101.981,231.17 101.5,230.5 Z"/></g>
<g><path style="opacity:0.004" fill="#eff814" d="M 165.5,227.5 C 165.833,227.5 166.167,227.5 166.5,227.5C 166.5,228.833 166.5,230.167 166.5,231.5C 165.833,231.5 165.5,231.833 165.5,232.5C 164.833,232.5 164.5,232.833 164.5,233.5C 163.167,233.5 161.833,233.5 160.5,233.5C 140.833,233.5 121.167,233.5 101.5,233.5C 121.996,232.668 142.663,232.168 163.5,232C 165.037,230.89 165.703,229.39 165.5,227.5 Z"/></g>
<g><path style="opacity:0.008" fill="#84fd05" d="M 99.5,232.5 C 100.167,232.833 100.833,233.167 101.5,233.5C 121.167,233.5 140.833,233.5 160.5,233.5C 139.833,234.833 119.167,234.833 98.5,233.5C 99.1667,233.5 99.5,233.167 99.5,232.5 Z"/></g>
<g><path style="opacity:0.02" fill="#8bc12d" d="M 65.5,240.5 C 64.5233,243.287 64.19,246.287 64.5,249.5C 62.2415,245.613 62.4082,241.613 65,237.5C 65.4828,238.448 65.6495,239.448 65.5,240.5 Z"/></g>
<g><path style="opacity:0.02" fill="#98cc32" d="M 64.5,249.5 C 64.8333,249.5 65.1667,249.5 65.5,249.5C 65.3147,250.17 64.9813,250.17 64.5,249.5 Z"/></g>
<g><path style="opacity:0.012" fill="#55aa54" d="M 65.5,251.5 C 66.8333,252.167 66.8333,252.167 65.5,251.5 Z"/></g>
<g><path style="opacity:0.004" fill="#bbda34" d="M 177.5,250.5 C 179.793,251.301 179.46,251.968 176.5,252.5C 176.5,252.167 176.5,251.833 176.5,251.5C 177.167,251.5 177.5,251.167 177.5,250.5 Z"/></g>
<g><path style="opacity:0.016" fill="#7fbf3f" d="M 176.5,252.5 C 175.833,253.167 175.833,253.167 176.5,252.5 Z"/></g>
<g><path style="opacity:0.016" fill="#7fbf3f" d="M 68.5,253.5 C 68.5,253.833 68.5,254.167 68.5,254.5C 67.8299,254.019 67.8299,253.685 68.5,253.5 Z"/></g>
<g><path style="opacity:0.02" fill="#98cc32" d="M 173.5,253.5 C 174.833,254.167 174.833,254.167 173.5,253.5 Z"/></g>
<g><path style="opacity:0.016" fill="#7fbf3f" d="M 68.5,254.5 C 69.1667,254.5 69.5,254.833 69.5,255.5C 69.1667,255.167 68.8333,254.833 68.5,254.5 Z"/></g>
<g><path style="opacity:0.008" fill="#83e264" d="M 171.5,255.5 C 171.5,255.167 171.5,254.833 171.5,254.5C 172.167,254.5 172.833,254.5 173.5,254.5C 173.5,254.833 173.5,255.167 173.5,255.5C 172.833,255.5 172.167,255.5 171.5,255.5 Z"/></g>
</svg>
