<svg xmlns="http://www.w3.org/2000/svg" width="256" height="256" viewBox="0 0 256 256" version="1.1">
	<path fill-opacity="0.290" d="M 86.698 1.421 C 81.220 3.408, 75.547 7.603, 72.621 11.830 C 67.066 19.859, 67 20.525, 67 68.884 L 67 113.516 43.500 137 L 20 160.484 20 126.378 L 20 92.273 22.636 89.636 C 25.263 87.009, 25.330 87, 41.136 87 L 57 87 57 76.921 L 57 66.841 38.750 67.173 C 22.088 67.476, 20.132 67.701, 16.277 69.759 C 10.892 72.633, 5.635 77.889, 2.757 83.277 C 0.529 87.446, 0.496 88.055, 0.192 131 C 0.022 154.925, 0.173 176.486, 0.527 178.913 C 1.412 184.973, 5.479 189.008, 10.673 188.978 C 18.795 188.931, 22.019 186.345, 55.245 153.224 L 87 121.570 87 73.422 L 87 25.273 89.636 22.636 L 92.273 20 128 20 L 163.727 20 166.364 22.636 C 168.991 25.263, 169 25.330, 169 41.136 L 169 57 179.079 57 L 189.159 57 188.829 38.750 C 188.503 20.684, 188.470 20.446, 185.546 15.167 C 182.319 9.342, 178.942 6.086, 172.616 2.702 C 168.599 0.553, 167.559 0.494, 129.500 0.271 C 98.415 0.089, 89.728 0.323, 86.698 1.421 M 97 76.973 L 97 87 164.045 87 L 231.091 87 233.545 89.455 L 236 91.909 236 128 L 236 164.091 233.545 166.545 C 231.143 168.948, 230.748 169, 215.045 169 L 199 169 199 179.079 L 199 189.159 217.250 188.829 C 235.316 188.503, 235.554 188.470, 240.833 185.546 C 246.658 182.319, 249.914 178.942, 253.298 172.616 C 255.463 168.568, 255.500 167.827, 255.500 128 C 255.500 87.878, 255.479 87.461, 253.243 83.277 C 250.180 77.544, 244.620 72.181, 239.089 69.623 C 234.572 67.533, 233.421 67.496, 165.750 67.223 L 97 66.947 97 76.973 M 169 163.566 C 169 209.336, 168.662 230.762, 167.920 232.150 C 165.551 236.577, 162.070 237, 128.032 237 C 110.414 237, 96 236.659, 96 236.242 C 96 235.825, 106.466 225.025, 119.258 212.242 L 142.516 189 150.758 189 L 159 189 159 179.072 L 159 169.145 146.668 169.133 L 134.336 169.122 102.773 200.811 C 82.802 220.861, 70.436 234.046, 69.105 236.710 C 66.826 241.269, 66.354 247.924, 68.080 251.150 C 70.551 255.766, 73.072 256, 120.430 256 C 162.792 256, 165.187 255.902, 170.387 253.956 C 176.968 251.494, 183.403 245.527, 186.348 239.156 C 188.476 234.553, 188.503 233.721, 188.777 165.750 L 189.053 97 179.027 97 L 169 97 169 163.566" stroke="none" fill="black" fill-rule="evenodd"/>
	<path fill-opacity="0.056" d="M 86.594 1.623 C 83.073 2.720, 80.065 4.775, 75.933 8.907 C 66.912 17.928, 67 17.329, 67 69.439 L 67 113.516 43.742 136.758 C 30.950 149.541, 20.263 160, 19.992 160.001 C 19.721 160.001, 19.725 144.436, 20 125.411 L 20.500 90.821 22.861 88.910 C 24.963 87.209, 26.961 87, 41.111 87 L 57 87 57 77 L 57 67 41.182 67 C 20.625 67, 16.776 68.064, 8.920 75.920 C -0.051 84.891, -0.004 84.583, 0.024 134.432 C 0.037 157.569, 0.463 178.300, 0.972 180.500 C 2.117 185.458, 6.015 189.003, 10.306 188.990 C 12.063 188.985, 15.975 187.832, 19 186.429 C 23.518 184.333, 30.078 178.309, 55.750 152.685 L 87 121.493 87 73.201 L 87 24.909 89.455 22.455 L 91.909 20 128 20 L 164.091 20 166.545 22.455 C 168.948 24.857, 169 25.252, 169 40.955 L 169 57 179.081 57 L 189.162 57 188.831 39.250 C 188.532 23.210, 188.282 21.057, 186.233 16.900 C 183.345 11.037, 177.963 5.655, 172.100 2.767 C 167.589 0.544, 166.765 0.496, 129.500 0.297 C 97.798 0.128, 90.687 0.347, 86.594 1.623 M 97 76.940 L 97 86.945 163.591 86.986 C 208.788 87.014, 230.822 87.370, 232.175 88.094 C 236.575 90.448, 237 93.965, 237 128 C 237 161.526, 236.660 164.548, 232.504 168 C 231.109 169.158, 227.089 169.577, 214.849 169.838 L 199 170.176 199 179.588 L 199 189 214.818 189 C 235.376 189, 239.390 187.900, 247.145 180.145 C 255.864 171.426, 256 170.625, 256 128 C 256 99.131, 255.713 91.397, 254.490 87.279 C 252.601 80.917, 245.759 73.094, 239.261 69.865 L 234.500 67.500 165.750 67.217 L 97 66.934 97 76.940 M 171.002 163.250 C 171.001 208.858, 170.676 229, 169.941 229 C 169.359 229, 169.174 229.473, 169.532 230.051 C 170.132 231.023, 165.342 236.425, 163.833 236.477 C 163.467 236.490, 162.829 236.838, 162.417 237.250 C 162.004 237.663, 146.878 238, 128.802 238 C 99.620 238, 95.869 237.821, 95.324 236.402 C 94.885 235.257, 101.186 228.326, 117.597 211.902 L 140.484 189 149.242 189 L 158 189 158 179.750 L 158 170.500 145.320 170.687 L 132.639 170.874 103.376 200.124 C 87.282 216.211, 74.320 229.709, 74.573 230.119 C 74.826 230.528, 74.129 231.497, 73.023 232.271 C 71.917 233.046, 71.299 233.966, 71.649 234.316 C 72 234.666, 71.549 235.236, 70.649 235.581 C 69.748 235.927, 69.260 236.612, 69.565 237.105 C 69.869 237.597, 69.656 238, 69.090 238 C 68.525 238, 68.322 238.675, 68.638 239.500 C 68.955 240.325, 68.799 241, 68.292 241 C 66.687 241, 67.681 248.991, 69.542 251.047 C 73.984 255.955, 74.448 256, 120.595 256 C 150.216 256, 164.090 255.663, 164.542 254.932 C 164.905 254.344, 165.777 254.084, 166.479 254.354 C 167.182 254.623, 168.261 254.339, 168.878 253.722 C 169.495 253.105, 170 252.946, 170 253.368 C 170 253.791, 171.350 253.175, 173 252 C 174.650 250.825, 176 250.073, 176 250.329 C 176 250.585, 177.712 249.153, 179.804 247.147 C 181.896 245.141, 183.607 243.275, 183.606 243 C 183.599 241.436, 185.269 238, 186.036 238 C 186.532 238, 186.678 237.325, 186.362 236.500 C 186.045 235.675, 186.222 235, 186.754 235 C 187.287 235, 187.518 233.928, 187.267 232.617 C 187.017 231.307, 187.304 229.930, 187.906 229.558 C 188.680 229.080, 189 209.675, 189.001 163.191 L 189.002 97.500 180.003 97.500 L 171.004 97.500 171.002 163.250" stroke="none" fill="black" fill-rule="evenodd"/>
	<path fill-opacity="0.117" d="M 88.500 1.371 C 79.212 4.374, 73.624 9.193, 69.801 17.500 C 67.521 22.453, 67.497 22.924, 67.215 68 L 66.931 113.500 43.723 136.750 C 30.959 149.537, 20.175 160, 19.758 160 C 19.341 160, 19 145.586, 19 127.968 C 19 102.107, 19.282 95.261, 20.464 92.432 C 22.713 87.050, 26.387 86, 42.968 86 L 57 86 57 76.401 L 57 66.802 39.750 67.189 C 24.473 67.531, 21.916 67.835, 17.393 69.849 C 11.074 72.663, 5.815 77.943, 2.799 84.500 C 0.531 89.432, 0.496 90.079, 0.209 131.943 C -0.149 183.962, 0.310 187.030, 8.680 188.600 C 16.589 190.084, 19.103 188.134, 53.750 153.644 L 86 121.541 86 75.238 C 86 23.418, 86.033 23.138, 92.432 20.464 C 97.492 18.350, 158.420 18.313, 163.466 20.421 C 169.078 22.766, 170 25.876, 170 42.450 L 170 57 179.597 57 L 189.194 57 188.818 39.250 C 188.460 22.383, 188.311 21.251, 185.810 16.500 C 182.681 10.555, 178.153 6.082, 172 2.858 C 167.529 0.515, 167.261 0.499, 130 0.289 C 101.576 0.129, 91.532 0.390, 88.500 1.371 M 97.348 76.029 L 97.500 85.054 162.682 85.013 C 206.375 84.986, 228.075 85.312, 228.502 86.002 C 228.852 86.569, 229.488 86.816, 229.916 86.552 C 230.866 85.965, 235.142 90.576, 236.823 94 C 237.767 95.923, 237.871 104.312, 237.275 130.333 L 236.500 164.165 233.234 167.083 L 229.968 170 215.234 170.118 C 207.130 170.184, 200.162 170.184, 199.750 170.118 C 199.338 170.053, 199 174.305, 199 179.567 L 199 189.135 215.250 188.721 C 229.162 188.368, 234.573 187.900, 235.750 186.952 C 235.887 186.841, 236.338 186.656, 236.750 186.541 C 243.184 184.750, 252.299 175.711, 253.432 170 C 253.486 169.725, 253.974 168.825, 254.515 168 C 255.652 166.268, 256.482 94.570, 255.394 92.094 C 255.009 91.217, 254.606 90.050, 254.499 89.500 C 254.392 88.950, 254.180 88.162, 254.027 87.750 C 253.875 87.338, 253.672 86.662, 253.576 86.250 C 252.901 83.342, 251.721 81, 250.933 81 C 250.420 81, 250.100 80.662, 250.223 80.250 C 250.513 79.272, 243.728 72.487, 242.750 72.777 C 242.338 72.900, 242 72.599, 242 72.109 C 242 71.618, 240.236 70.512, 238.081 69.649 C 234.662 68.281, 225.518 68.073, 166.454 68.021 C 129.214 67.988, 98.397 67.745, 97.971 67.482 C 97.545 67.219, 97.264 71.065, 97.348 76.029" stroke="none" fill="black" fill-rule="evenodd"/>
	<path fill-opacity="0.119" d="M 92.446 1.087 C 92.077 1.685, 90.926 1.952, 89.888 1.681 C 88.851 1.410, 87.745 1.603, 87.432 2.110 C 87.118 2.618, 86.443 2.774, 85.931 2.457 C 85.419 2.141, 85 2.385, 85 3 C 85 3.615, 84.550 3.840, 84 3.500 C 83.450 3.160, 83 3.385, 83 4 C 83 4.615, 82.550 4.840, 82 4.500 C 81.450 4.160, 81 4.359, 81 4.941 C 81 5.523, 80.585 6, 80.077 6 C 78.876 6, 73 11.876, 73 13.077 C 73 13.585, 72.523 14, 71.941 14 C 71.359 14, 71.160 14.450, 71.500 15 C 71.840 15.550, 71.615 16, 71 16 C 70.385 16, 70.160 16.450, 70.500 17 C 70.840 17.550, 70.656 18, 70.090 18 C 69.525 18, 69.322 18.675, 69.638 19.500 C 69.955 20.325, 69.758 21, 69.201 21 C 68.534 21, 68.146 36.620, 68.062 66.750 L 67.935 112.500 43.781 136.694 C 30.497 150.001, 19.261 160.661, 18.814 160.385 C 17.542 159.599, 17.785 94, 19.059 94 C 19.641 94, 19.863 93.588, 19.552 93.084 C 18.840 91.931, 24.867 85.800, 26.015 86.509 C 26.481 86.797, 27.144 86.575, 27.490 86.016 C 27.868 85.404, 33.856 85, 42.559 85 L 57 85 57 76.440 L 57 67.879 39 68.094 C 28.410 68.220, 21 68.700, 21 69.261 C 21 69.785, 20.325 69.955, 19.500 69.638 C 18.675 69.322, 18 69.525, 18 70.090 C 18 70.656, 17.550 70.840, 17 70.500 C 16.450 70.160, 16 70.385, 16 71 C 16 71.615, 15.550 71.840, 15 71.500 C 14.450 71.160, 14 71.359, 14 71.941 C 14 72.523, 13.585 73, 13.077 73 C 11.876 73, 6 78.876, 6 80.077 C 6 80.585, 5.523 81, 4.941 81 C 4.359 81, 4.160 81.450, 4.500 82 C 4.840 82.550, 4.615 83, 4 83 C 3.385 83, 3.160 83.450, 3.500 84 C 3.840 84.550, 3.656 85, 3.090 85 C 2.525 85, 2.322 85.675, 2.638 86.500 C 2.955 87.325, 2.758 88, 2.201 88 C 1.643 88, 1.409 88.849, 1.681 89.887 C 1.952 90.925, 1.685 92.077, 1.087 92.446 C -0.447 93.394, -0.440 175.610, 1.094 176.558 C 1.696 176.930, 1.983 178.307, 1.733 179.617 C 1.482 180.928, 1.612 182, 2.022 182 C 2.432 182, 2.998 182.885, 3.281 183.967 C 3.564 185.050, 5.388 186.694, 7.335 187.623 C 10.589 189.174, 11.139 189.183, 14.147 187.726 C 15.947 186.854, 17.775 186.361, 18.210 186.629 C 18.644 186.898, 19 186.615, 19 186 C 19 185.385, 19.403 185.131, 19.895 185.435 C 20.388 185.740, 21.073 185.252, 21.419 184.351 C 21.764 183.451, 22.251 182.918, 22.500 183.167 C 22.749 183.416, 36.931 169.616, 54.015 152.501 L 85.077 121.381 85.020 74.761 C 84.982 43.650, 85.307 27.928, 85.998 27.501 C 86.567 27.150, 86.797 26.481, 86.509 26.015 C 85.826 24.909, 91.909 18.826, 93.015 19.509 C 93.481 19.797, 94.144 19.575, 94.490 19.016 C 95.352 17.621, 160.648 17.621, 161.510 19.016 C 161.856 19.575, 162.519 19.797, 162.985 19.509 C 164.133 18.800, 170.160 24.931, 169.448 26.084 C 169.137 26.588, 169.359 27, 169.941 27 C 170.639 27, 171 32.121, 171 42.039 L 171 57.078 179.750 56.789 L 188.500 56.500 188.336 42 C 188.195 29.546, 187.719 21.947, 186.959 20 C 186.851 19.725, 186.816 19.162, 186.882 18.750 C 186.947 18.337, 186.605 18, 186.121 18 C 185.638 18, 184.669 16.616, 183.969 14.924 C 182.630 11.692, 177.498 6, 175.923 6 C 175.415 6, 175 5.523, 175 4.941 C 175 4.359, 174.586 4.138, 174.081 4.450 C 173.575 4.763, 172.562 4.420, 171.831 3.688 C 170.167 2.024, 168.847 1.638, 165.839 1.933 C 164.925 2.022, 163.886 1.624, 163.530 1.048 C 162.610 -0.441, 93.367 -0.402, 92.446 1.087" stroke="none" fill="black" fill-rule="evenodd"/>
</svg>