<?xml version="1.0" encoding="UTF-8"?>
<!DOCTYPE svg PUBLIC "-//W3C//DTD SVG 1.1//EN" "http://www.w3.org/Graphics/SVG/1.1/DTD/svg11.dtd">
<svg xmlns="http://www.w3.org/2000/svg" version="1.1" width="100px" height="100px" style="shape-rendering:geometricPrecision; text-rendering:geometricPrecision; image-rendering:optimizeQuality; fill-rule:evenodd; clip-rule:evenodd" xmlns:xlink="http://www.w3.org/1999/xlink">
<g><path style="opacity:1" fill="#1c1a2b" d="M -0.5,-0.5 C 32.8333,-0.5 66.1667,-0.5 99.5,-0.5C 99.5,32.8333 99.5,66.1667 99.5,99.5C 66.1667,99.5 32.8333,99.5 -0.5,99.5C -0.5,66.1667 -0.5,32.8333 -0.5,-0.5 Z"/></g>
<g><path style="opacity:1" fill="#1d1a2a" d="M 55.5,22.5 C 60.1942,25.1942 63.8609,28.8609 66.5,33.5C 67.4984,46.2296 61.8318,53.563 49.5,55.5C 45.4996,55.4966 41.8329,54.4966 38.5,52.5C 28.8733,39.9116 30.8733,29.745 44.5,22C 48.2027,21.4213 51.8694,21.588 55.5,22.5 Z"/></g>
<g><path style="opacity:1" fill="#de8e37" d="M 55.5,22.5 C 55.5,21.8333 55.8333,21.5 56.5,21.5C 62.2723,23.6042 65.939,27.6042 67.5,33.5C 67.1667,33.5 66.8333,33.5 66.5,33.5C 63.8609,28.8609 60.1942,25.1942 55.5,22.5 Z"/></g>
<g><path style="opacity:1" fill="#dd694b" d="M 56.5,21.5 C 55.8333,21.5 55.5,21.8333 55.5,22.5C 51.8694,21.588 48.2027,21.4213 44.5,22C 30.8733,29.745 28.8733,39.9116 38.5,52.5C 37.8333,52.5 37.5,52.8333 37.5,53.5C 30.0349,46.37 28.5349,38.0367 33,28.5C 39.2003,19.9269 47.0336,17.5936 56.5,21.5 Z"/></g>
<g><path style="opacity:1" fill="#a5a5aa" d="M 41.5,29.5 C 47.9876,30.2825 53.9876,32.2825 59.5,35.5C 56.1947,40.6383 52.6947,45.6383 49,50.5C 45.6074,43.8225 43.1074,36.8225 41.5,29.5 Z"/></g>
<g><path style="opacity:1" fill="#22222e" d="M 54.5,37.5 C 55.2389,37.369 55.9056,37.5357 56.5,38C 54.3333,40.8333 52.1667,43.6667 50,46.5C 50.2068,44.2487 50.3735,41.9154 50.5,39.5C 52.3797,39.7709 53.713,39.1042 54.5,37.5 Z"/></g>
<g><path style="opacity:1" fill="#141421" d="M 44.5,35.5 C 48.2519,37.7943 49.4186,41.1277 48,45.5C 46.5405,42.2522 45.3738,38.9188 44.5,35.5 Z"/></g>
<g><path style="opacity:1" fill="#151523" d="M 45.5,33.5 C 48.134,32.4681 50.8007,32.8014 53.5,34.5C 52.5197,35.9814 51.353,37.3147 50,38.5C 48.264,36.9368 46.764,35.2701 45.5,33.5 Z"/></g>
<g><path style="opacity:1" fill="#dca82a" d="M 66.5,33.5 C 66.8333,33.5 67.1667,33.5 67.5,33.5C 69.4165,51.0499 61.4165,58.8832 43.5,57C 41.3083,56.074 39.3083,54.9073 37.5,53.5C 37.5,52.8333 37.8333,52.5 38.5,52.5C 41.8329,54.4966 45.4996,55.4966 49.5,55.5C 61.8318,53.563 67.4984,46.2296 66.5,33.5 Z"/></g>
<g><path style="opacity:1" fill="#dbdbdd" d="M 13.5,65.5 C 15.2884,64.3775 17.2884,64.2109 19.5,65C 18.0041,67.2012 17.0041,69.7012 16.5,72.5C 16.0615,69.7051 15.0615,67.3717 13.5,65.5 Z"/></g>
<g><path style="opacity:1" fill="#cfcfd1" d="M 29.5,64.5 C 31.1439,64.2865 32.6439,64.6198 34,65.5C 34.7581,67.7695 34.5914,69.9361 33.5,72C 31.8876,72.7203 30.3876,72.5536 29,71.5C 28.2967,69.0709 28.4634,66.7375 29.5,64.5 Z"/></g>
<g><path style="opacity:1" fill="#d4d4d6" d="M 73.5,64.5 C 79.3239,64.3466 79.6572,65.0133 74.5,66.5C 79.7298,67.9247 79.7298,69.0914 74.5,70C 79.5945,71.4578 79.2611,72.2912 73.5,72.5C 73.5,69.8333 73.5,67.1667 73.5,64.5 Z"/></g>
<g><path style="opacity:1" fill="#d7d8da" d="M 20.5,64.5 C 22.4672,64.2606 24.3005,64.5939 26,65.5C 25.6094,67.8909 25.6094,70.2243 26,72.5C 24.3601,68.6603 22.8601,68.6603 21.5,72.5C 20.52,69.9135 20.1866,67.2469 20.5,64.5 Z"/></g>
<g><path style="opacity:1" fill="#46474d" d="M 22.5,66.5 C 25.7973,66.3287 26.1306,66.9954 23.5,68.5C 22.7025,68.0431 22.3691,67.3764 22.5,66.5 Z"/></g>
<g><path style="opacity:1" fill="#181826" d="M 30.5,65.5 C 32.2132,66.6354 32.8799,68.302 32.5,70.5C 31.5,70.5 30.5,70.5 29.5,70.5C 29.366,68.7085 29.6993,67.0418 30.5,65.5 Z"/></g>
<g><path style="opacity:1" fill="#dcdcdd" d="M 79.5,65.5 C 81.2884,64.3775 83.2884,64.2109 85.5,65C 84.0041,67.2012 83.0041,69.7012 82.5,72.5C 82.0615,69.7051 81.0615,67.3717 79.5,65.5 Z"/></g>
<g><path style="opacity:1" fill="#c9c9cc" d="M 35.5,64.5 C 37.7525,64.9156 39.2525,66.249 40,68.5C 40.2189,67.062 40.7189,65.7287 41.5,64.5C 42.8333,67.1667 42.8333,69.8333 41.5,72.5C 40.1076,71.3947 38.941,70.0614 38,68.5C 37.7811,69.938 37.2811,71.2713 36.5,72.5C 35.52,69.9135 35.1866,67.2469 35.5,64.5 Z"/></g>
<g><path style="opacity:1" fill="#d2d2d4" d="M 43.5,64.5 C 45.045,65.2297 45.8784,66.563 46,68.5C 47,65.8333 48,65.8333 49,68.5C 49.2189,67.062 49.7189,65.7287 50.5,64.5C 51.4906,67.2441 51.1573,69.9107 49.5,72.5C 48.5522,69.285 47.2189,68.9516 45.5,71.5C 44.0562,69.3921 43.3896,67.0588 43.5,64.5 Z"/></g>
<g><path style="opacity:1" fill="#bdbdc1" d="M 54.5,64.5 C 56.6864,65.8233 58.1864,67.8233 59,70.5C 60.1512,62.526 60.9845,62.526 61.5,70.5C 66.766,71.134 66.766,71.8007 61.5,72.5C 59.3921,72.1401 57.3921,71.4734 55.5,70.5C 54.3279,70.9186 53.3279,71.5853 52.5,72.5C 52.0668,69.7534 52.7335,67.0867 54.5,64.5 Z"/></g>
<g><path style="opacity:1" fill="#3c3c46" d="M 54.5,67.5 C 56.337,67.6395 56.6704,68.3061 55.5,69.5C 54.7025,69.0431 54.3691,68.3764 54.5,67.5 Z"/></g>
<g><path style="opacity:1" fill="#bebfc3" d="M 66.5,64.5 C 68.3079,65.9179 68.9746,67.9179 68.5,70.5C 69.675,70.281 70.675,70.6143 71.5,71.5C 69.9547,72.4519 68.288,72.7852 66.5,72.5C 66.5,69.8333 66.5,67.1667 66.5,64.5 Z"/></g>
<g><path style="opacity:1" fill="#74747c" d="M 14.5,76.5 C 18.226,76.1774 21.8927,76.5108 25.5,77.5C 23.6667,77.8333 21.8333,78.1667 20,78.5C 17.7047,78.4535 15.8714,77.7868 14.5,76.5 Z"/></g>
<g><path style="opacity:1" fill="#7f7f87" d="M 27.5,76.5 C 29.5273,76.3379 31.5273,76.5045 33.5,77C 31.7074,78.3102 29.8741,78.8102 28,78.5C 27.5357,77.9056 27.369,77.2389 27.5,76.5 Z"/></g>
<g><path style="opacity:1" fill="#71717a" d="M 34.5,76.5 C 38.5546,76.1758 42.5546,76.5091 46.5,77.5C 43.7553,77.2296 40.922,77.5629 38,78.5C 36.3189,78.3917 35.1522,77.7251 34.5,76.5 Z"/></g>
<g><path style="opacity:1" fill="#676770" d="M 56.5,75.5 C 57.5,75.5 58.5,75.5 59.5,75.5C 59.6495,76.552 59.4828,77.552 59,78.5C 55.3249,78.6805 51.4916,78.3472 47.5,77.5C 50.6417,76.8326 53.6417,76.166 56.5,75.5 Z"/></g>
<g><path style="opacity:1" fill="#666671" d="M 68.5,75.5 C 73.8192,76.0718 79.1525,76.7385 84.5,77.5C 76.5,78.8333 68.5,78.8333 60.5,77.5C 63.3056,76.8324 65.9723,76.1657 68.5,75.5 Z"/></g>
</svg>
