<?xml version="1.0" encoding="UTF-8"?>
<!DOCTYPE svg PUBLIC "-//W3C//DTD SVG 1.1//EN" "http://www.w3.org/Graphics/SVG/1.1/DTD/svg11.dtd">
<svg xmlns="http://www.w3.org/2000/svg" version="1.1" width="256px" height="256px" style="shape-rendering:geometricPrecision; text-rendering:geometricPrecision; image-rendering:optimizeQuality; fill-rule:evenodd; clip-rule:evenodd" xmlns:xlink="http://www.w3.org/1999/xlink">
<g><path style="opacity:0.884" fill="#fefefe" d="M 65.5,233.5 C 63.6568,232.717 61.6568,232.05 59.5,231.5C 58.5713,230.311 58.238,228.978 58.5,227.5C 56.1417,227.747 54.1417,227.081 52.5,225.5C 51.7375,224.732 50.7375,224.232 49.5,224C 49.8333,223.667 50.1667,223.333 50.5,223C 48.913,222.138 47.2464,221.471 45.5,221C 43.9632,219.89 43.2965,218.39 43.5,216.5C 39.5,217.167 37.8333,215.5 38.5,211.5C 34.7529,211.391 32.7529,209.391 32.5,205.5C 29.5149,203.194 27.8482,200.194 27.5,196.5C 26.0222,196.762 24.6888,196.429 23.5,195.5C 22.9495,193.343 22.2829,191.343 21.5,189.5C 20.7375,188.732 19.7375,188.232 18.5,188C 18.8333,187.667 19.1667,187.333 19.5,187C 17.8787,184.834 17.0454,182.334 17,179.5C 15.9326,178.809 14.7659,178.309 13.5,178C 14.6537,177.086 14.487,176.253 13,175.5C 12.6667,172.167 12.3333,168.833 12,165.5C 9.56029,164.726 8.22695,163.06 8,160.5C 7.33333,138.5 7.33333,116.5 8,94.5C 8.22695,91.9405 9.56029,90.2738 12,89.5C 12.3333,86.1667 12.6667,82.8333 13,79.5C 13.6368,77.6969 14.8035,76.3636 16.5,75.5C 16.9593,71.3899 18.4593,67.7232 21,64.5C 21.3333,64.8333 21.6667,65.1667 22,65.5C 21.503,61.1056 23.3363,58.7723 27.5,58.5C 27.3433,57.1266 27.51,55.7932 28,54.5C 30.793,51.5468 32.9597,48.2135 34.5,44.5C 35.7362,43.7542 37.0695,43.4208 38.5,43.5C 37.8333,39.5 39.5,37.8333 43.5,38.5C 43.561,35.2699 45.2277,33.4365 48.5,33C 50.8131,29.6277 54.1464,27.7943 58.5,27.5C 58.4887,23.6482 60.4887,21.8149 64.5,22C 67.1005,19.0931 70.7672,17.2598 75.5,16.5C 76.3636,14.8035 77.6969,13.6368 79.5,13C 82.8333,12.6667 86.1667,12.3333 89.5,12C 90.2738,9.56029 91.9405,8.22695 94.5,8C 116.5,7.33333 138.5,7.33333 160.5,8C 163.06,8.22695 164.726,9.56029 165.5,12C 168.833,12.3333 172.167,12.6667 175.5,13C 176.253,14.487 177.086,14.6537 178,13.5C 179.38,16.648 181.88,18.148 185.5,18C 187.001,19.2515 188.668,20.2515 190.5,21C 190.167,21.3333 189.833,21.6667 189.5,22C 193.894,21.503 196.228,23.3363 196.5,27.5C 199.745,27.8801 202.745,29.0468 205.5,31C 205.167,31.3333 204.833,31.6667 204.5,32C 206.901,32.795 209.068,33.9617 211,35.5C 211.483,36.448 211.649,37.448 211.5,38.5C 215.5,37.8333 217.167,39.5 216.5,43.5C 220.247,43.6092 222.247,45.6092 222.5,49.5C 225.981,51.4595 227.648,54.4595 227.5,58.5C 228.978,58.238 230.311,58.5713 231.5,59.5C 231.713,63.0764 233.38,65.5764 236.5,67C 236.167,67.3333 235.833,67.6667 235.5,68C 236.971,70.2428 237.971,72.7428 238.5,75.5C 239.5,76 240.5,76.5 241.5,77C 240.346,77.9138 240.513,78.7471 242,79.5C 242.333,82.8333 242.667,86.1667 243,89.5C 245.44,90.2738 246.773,91.9405 247,94.5C 247.667,116.5 247.667,138.5 247,160.5C 246.773,163.06 245.44,164.726 243,165.5C 242.667,168.833 242.333,172.167 242,175.5C 238.822,178.01 237.155,181.343 237,185.5C 233.924,188.09 232.091,191.424 231.5,195.5C 230.311,196.429 228.978,196.762 227.5,196.5C 227.12,199.745 225.953,202.745 224,205.5C 223.667,205.167 223.333,204.833 223,204.5C 222.167,206.5 221.333,208.5 220.5,210.5C 219.264,211.246 217.93,211.579 216.5,211.5C 217.167,215.5 215.5,217.167 211.5,216.5C 211.703,218.39 211.037,219.89 209.5,221C 205.954,222.219 202.954,224.219 200.5,227C 199.207,227.49 197.873,227.657 196.5,227.5C 196.762,228.978 196.429,230.311 195.5,231.5C 191.424,232.091 188.09,233.924 185.5,237C 181.343,237.155 178.01,238.822 175.5,242C 172.167,242.333 168.833,242.667 165.5,243C 164.726,245.44 163.06,246.773 160.5,247C 138.5,247.667 116.5,247.667 94.5,247C 91.9405,246.773 90.2738,245.44 89.5,243C 86.1667,242.667 82.8333,242.333 79.5,242C 74.9185,238.88 70.2519,236.046 65.5,233.5 Z"/></g>
<g><path style="opacity:1" fill="#e3e3e3" d="M 121.5,66.5 C 121.973,67.9063 122.973,68.573 124.5,68.5C 126.117,69.038 127.784,69.3713 129.5,69.5C 134.089,71.4551 138.755,73.4551 143.5,75.5C 143.5,75.8333 143.5,76.1667 143.5,76.5C 142.167,76.5 140.833,76.5 139.5,76.5C 138.22,75.0687 136.553,74.4021 134.5,74.5C 134.423,73.2502 133.756,72.4169 132.5,72C 130.866,71.5065 129.199,71.3398 127.5,71.5C 126.041,71.5674 124.708,71.2341 123.5,70.5C 117.939,65.3313 112.272,65.3313 106.5,70.5C 103.402,70.7556 100.402,71.4222 97.5,72.5C 96.8333,72.5 96.1667,72.5 95.5,72.5C 95.5,72.1667 95.5,71.8333 95.5,71.5C 100.194,70.5456 104.528,68.7122 108.5,66C 113.02,65.1864 117.354,65.353 121.5,66.5 Z"/></g>
<g><path style="opacity:1" fill="#d4d4d4" d="M 123.5,70.5 C 120.87,69.5722 118.204,68.5722 115.5,67.5C 114.584,67.5427 113.917,67.8761 113.5,68.5C 111.167,69.1667 108.833,69.8333 106.5,70.5C 112.272,65.3313 117.939,65.3313 123.5,70.5 Z"/></g>
<g><path style="opacity:1" fill="#bfbfbf" d="M 113.5,68.5 C 116.43,70.1348 119.43,71.4682 122.5,72.5C 117.5,71.1667 112.5,71.1667 107.5,72.5C 110.025,72.0233 112.025,70.6899 113.5,68.5 Z"/></g>
<g><path style="opacity:1" fill="#cacaca" d="M 113.5,68.5 C 113.917,67.8761 114.584,67.5427 115.5,67.5C 118.204,68.5722 120.87,69.5722 123.5,70.5C 124.708,71.2341 126.041,71.5674 127.5,71.5C 129.649,72.7362 131.982,73.7362 134.5,74.5C 135.78,75.9313 137.447,76.5979 139.5,76.5C 139.5,76.8333 139.5,77.1667 139.5,77.5C 135.126,77.1532 131.126,75.8199 127.5,73.5C 125.958,72.6993 124.292,72.366 122.5,72.5C 119.43,71.4682 116.43,70.1348 113.5,68.5 Z"/></g>
<g><path style="opacity:1" fill="#f3f3f3" d="M 129.5,69.5 C 127.784,69.3713 126.117,69.038 124.5,68.5C 124.179,66.9519 123.179,66.2852 121.5,66.5C 117.354,65.353 113.02,65.1864 108.5,66C 104.528,68.7122 100.194,70.5456 95.5,71.5C 93.1417,71.2525 91.1417,71.9192 89.5,73.5C 89.4142,72.5041 89.7476,71.6708 90.5,71C 93.3771,69.8732 96.3771,69.2065 99.5,69C 101.5,67.6667 103.5,66.3333 105.5,65C 111.833,64.3333 118.167,64.3333 124.5,65C 126.66,65.9959 128.327,67.4959 129.5,69.5 Z"/></g>
<g><path style="opacity:1" fill="#eaeaea" d="M 121.5,66.5 C 123.179,66.2852 124.179,66.9519 124.5,68.5C 122.973,68.573 121.973,67.9063 121.5,66.5 Z"/></g>
<g><path style="opacity:1" fill="#f4f4f4" d="M 129.5,69.5 C 132.187,69.3359 134.854,69.5026 137.5,70C 138.96,71.582 140.627,72.9153 142.5,74C 147.741,73.4577 151.741,75.291 154.5,79.5C 153.833,79.5 153.167,79.5 152.5,79.5C 150.416,76.2942 147.416,74.9609 143.5,75.5C 138.755,73.4551 134.089,71.4551 129.5,69.5 Z"/></g>
<g><path style="opacity:1" fill="#c8c8c8" d="M 113.5,68.5 C 112.025,70.6899 110.025,72.0233 107.5,72.5C 106.833,72.5 106.167,72.5 105.5,72.5C 105.833,71.8333 106.167,71.1667 106.5,70.5C 108.833,69.8333 111.167,69.1667 113.5,68.5 Z"/></g>
<g><path style="opacity:1" fill="#d9d9d9" d="M 127.5,71.5 C 129.199,71.3398 130.866,71.5065 132.5,72C 133.756,72.4169 134.423,73.2502 134.5,74.5C 131.982,73.7362 129.649,72.7362 127.5,71.5 Z"/></g>
<g><path style="opacity:1" fill="#cdcdcd" d="M 106.5,70.5 C 106.167,71.1667 105.833,71.8333 105.5,72.5C 101.288,73.4234 97.2881,74.7568 93.5,76.5C 95.1392,75.5275 96.4726,74.1942 97.5,72.5C 100.402,71.4222 103.402,70.7556 106.5,70.5 Z"/></g>
<g><path style="opacity:1" fill="#bfbfbf" d="M 105.5,72.5 C 106.167,72.5 106.833,72.5 107.5,72.5C 107.5,72.8333 107.5,73.1667 107.5,73.5C 105.712,73.2148 104.045,73.5481 102.5,74.5C 99.109,77.355 95.109,78.6884 90.5,78.5C 91.5,77.8333 92.5,77.1667 93.5,76.5C 97.2881,74.7568 101.288,73.4234 105.5,72.5 Z"/></g>
<g><path style="opacity:1" fill="#b5b5b5" d="M 107.5,73.5 C 113.5,73.5 119.5,73.5 125.5,73.5C 125.297,75.3904 125.963,76.8904 127.5,78C 129.81,78.4966 132.143,78.6633 134.5,78.5C 137.961,77.8895 140.628,79.0561 142.5,82C 145.432,82.9533 148.432,83.4533 151.5,83.5C 151.833,83.5 152.167,83.5 152.5,83.5C 152.574,85.4109 153.574,86.5776 155.5,87C 158.063,88.0793 160.729,88.5793 163.5,88.5C 164.167,88.5 164.833,88.5 165.5,88.5C 166.028,89.7206 166.695,90.8873 167.5,92C 171.084,93.0734 174.75,93.7401 178.5,94C 177.263,94.2321 176.263,94.7321 175.5,95.5C 171.464,96.027 167.797,97.3603 164.5,99.5C 160.727,99.2633 157.06,99.7633 153.5,101C 150.707,103.882 147.207,105.382 143,105.5C 141.699,106.098 140.865,107.098 140.5,108.5C 136.5,109.333 132.5,110.167 128.5,111C 127.027,111.71 126.36,112.876 126.5,114.5C 124.585,114.216 122.919,114.549 121.5,115.5C 118.212,116.626 116.045,118.96 115,122.5C 112.785,117.477 108.952,115.144 103.5,115.5C 103.167,115.5 102.833,115.5 102.5,115.5C 98.9238,111.115 94.2572,109.448 88.5,110.5C 86.2791,106.723 82.9458,105.056 78.5,105.5C 78.1667,105.5 77.8333,105.5 77.5,105.5C 77.5,105.167 77.5,104.833 77.5,104.5C 77.4392,101.95 76.1059,100.45 73.5,100C 69.8484,99.5014 66.1817,99.3347 62.5,99.5C 62.5086,97.6916 62.0086,96.0249 61,94.5C 59.841,95.566 59.0076,95.2327 58.5,93.5C 61.1354,92.1891 63.4687,90.5224 65.5,88.5C 65.8333,88.5 66.1667,88.5 66.5,88.5C 70.9609,88.8486 74.6276,87.3486 77.5,84C 80.8772,83.5483 84.2105,82.8816 87.5,82C 88.8228,81.1841 89.4894,80.0174 89.5,78.5C 89.8333,78.5 90.1667,78.5 90.5,78.5C 95.109,78.6884 99.109,77.355 102.5,74.5C 104.045,73.5481 105.712,73.2148 107.5,73.5 Z"/></g>
<g><path style="opacity:1" fill="#b9b9b9" d="M 122.5,72.5 C 124.292,72.366 125.958,72.6993 127.5,73.5C 127.414,74.4959 127.748,75.3292 128.5,76C 130.611,76.8447 132.611,77.678 134.5,78.5C 132.143,78.6633 129.81,78.4966 127.5,78C 125.963,76.8904 125.297,75.3904 125.5,73.5C 119.5,73.5 113.5,73.5 107.5,73.5C 107.5,73.1667 107.5,72.8333 107.5,72.5C 112.5,71.1667 117.5,71.1667 122.5,72.5 Z"/></g>
<g><path style="opacity:1" fill="#dcdcdc" d="M 95.5,72.5 C 96.1667,72.5 96.8333,72.5 97.5,72.5C 96.4726,74.1942 95.1392,75.5275 93.5,76.5C 91.8333,76.5 90.1667,76.5 88.5,76.5C 90.7026,74.8998 93.036,73.5665 95.5,72.5 Z"/></g>
<g><path style="opacity:1" fill="#f4f4f4" d="M 89.5,73.5 C 86.6741,74.9746 83.6741,76.3079 80.5,77.5C 79.7025,77.9569 79.3691,78.6236 79.5,79.5C 78.1667,79.5 76.8333,79.5 75.5,79.5C 75.5106,77.9826 76.1772,76.8159 77.5,76C 81.4398,74.8436 85.4398,74.0103 89.5,73.5 Z"/></g>
<g><path style="opacity:1" fill="#d6d6d6" d="M 134.5,74.5 C 136.553,74.4021 138.22,75.0687 139.5,76.5C 137.447,76.5979 135.78,75.9313 134.5,74.5 Z"/></g>
<g><path style="opacity:1" fill="#f6f6f6" d="M 210.5,80.5 C 208.283,79.6314 205.95,79.298 203.5,79.5C 204.444,75.3545 206.444,74.6879 209.5,77.5C 210.127,78.4168 210.461,79.4168 210.5,80.5 Z"/></g>
<g><path style="opacity:1" fill="#eeeeee" d="M 143.5,76.5 C 143.5,76.1667 143.5,75.8333 143.5,75.5C 147.416,74.9609 150.416,76.2942 152.5,79.5C 151.167,79.5 149.833,79.5 148.5,79.5C 147.7,77.2591 146.034,76.2591 143.5,76.5 Z"/></g>
<g><path style="opacity:1" fill="#e9e9e9" d="M 95.5,71.5 C 95.5,71.8333 95.5,72.1667 95.5,72.5C 93.036,73.5665 90.7026,74.8998 88.5,76.5C 86.901,76.2322 85.5676,76.5655 84.5,77.5C 82.7162,77.8925 81.0495,78.5592 79.5,79.5C 79.3691,78.6236 79.7025,77.9569 80.5,77.5C 83.6741,76.3079 86.6741,74.9746 89.5,73.5C 91.1417,71.9192 93.1417,71.2525 95.5,71.5 Z"/></g>
<g><path style="opacity:1" fill="#dfdfdf" d="M 139.5,77.5 C 139.5,77.1667 139.5,76.8333 139.5,76.5C 140.833,76.5 142.167,76.5 143.5,76.5C 146.034,76.2591 147.7,77.2591 148.5,79.5C 146.118,77.9539 143.451,77.2872 140.5,77.5C 140.167,77.5 139.833,77.5 139.5,77.5 Z"/></g>
<g><path style="opacity:1" fill="#cdcdcd" d="M 88.5,76.5 C 90.1667,76.5 91.8333,76.5 93.5,76.5C 92.5,77.1667 91.5,77.8333 90.5,78.5C 90.1667,78.5 89.8333,78.5 89.5,78.5C 86.91,79.1283 84.5766,80.295 82.5,82C 80.8659,82.4935 79.1992,82.6602 77.5,82.5C 78.5,81.8333 79.5,81.1667 80.5,80.5C 82.4044,80.2624 83.7377,79.2624 84.5,77.5C 85.5676,76.5655 86.901,76.2322 88.5,76.5 Z"/></g>
<g><path style="opacity:1" fill="#c0c0c0" d="M 127.5,73.5 C 131.126,75.8199 135.126,77.1532 139.5,77.5C 139.833,77.5 140.167,77.5 140.5,77.5C 142.579,79.873 145.246,81.2064 148.5,81.5C 149.5,82.1667 150.5,82.8333 151.5,83.5C 148.432,83.4533 145.432,82.9533 142.5,82C 140.628,79.0561 137.961,77.8895 134.5,78.5C 132.611,77.678 130.611,76.8447 128.5,76C 127.748,75.3292 127.414,74.4959 127.5,73.5 Z"/></g>
<g><path style="opacity:1" fill="#cecece" d="M 140.5,77.5 C 143.451,77.2872 146.118,77.9539 148.5,79.5C 148.5,80.1667 148.5,80.8333 148.5,81.5C 145.246,81.2064 142.579,79.873 140.5,77.5 Z"/></g>
<g><path style="opacity:1" fill="#f5f5f5" d="M 75.5,79.5 C 73.9724,80.3092 72.3057,80.9759 70.5,81.5C 67.4475,81.5721 64.7808,82.5721 62.5,84.5C 65.6257,80.0423 69.959,78.3756 75.5,79.5 Z"/></g>
<g><path style="opacity:1" fill="#e8e8e8" d="M 203.5,80.5 C 203.5,80.1667 203.5,79.8333 203.5,79.5C 205.95,79.298 208.283,79.6314 210.5,80.5C 210.5,82.5 210.5,84.5 210.5,86.5C 209.391,86.5569 208.391,86.8902 207.5,87.5C 207.5,86.8333 207.5,86.1667 207.5,85.5C 209.781,84.3656 209.781,83.0322 207.5,81.5C 206.432,80.5655 205.099,80.2322 203.5,80.5 Z"/></g>
<g><path style="opacity:1" fill="#e2e2e2" d="M 84.5,77.5 C 83.7377,79.2624 82.4044,80.2624 80.5,80.5C 77.7835,80.6785 75.1168,81.1785 72.5,82C 70.9366,83.9473 68.9366,85.114 66.5,85.5C 67.8333,84.1667 69.1667,82.8333 70.5,81.5C 72.3057,80.9759 73.9724,80.3092 75.5,79.5C 76.8333,79.5 78.1667,79.5 79.5,79.5C 81.0495,78.5592 82.7162,77.8925 84.5,77.5 Z"/></g>
<g><path style="opacity:1" fill="#f4f4f4" d="M 154.5,79.5 C 157.941,79.3011 161.274,79.8011 164.5,81C 165.305,82.1127 165.972,83.2794 166.5,84.5C 162.655,82.441 158.655,80.7744 154.5,79.5 Z"/></g>
<g><path style="opacity:1" fill="#e2e2e2" d="M 203.5,80.5 C 205.099,80.2322 206.432,80.5655 207.5,81.5C 202.988,80.889 199.322,82.2224 196.5,85.5C 195.5,85.5 194.5,85.5 193.5,85.5C 195.935,82.0703 199.269,80.4037 203.5,80.5 Z"/></g>
<g><path style="opacity:1" fill="#ededed" d="M 70.5,81.5 C 69.1667,82.8333 67.8333,84.1667 66.5,85.5C 66.1667,85.5 65.8333,85.5 65.5,85.5C 63.7085,85.366 62.0418,85.6993 60.5,86.5C 59.8333,86.5 59.1667,86.5 58.5,86.5C 58.8333,85.8333 59.1667,85.1667 59.5,84.5C 60.5,84.5 61.5,84.5 62.5,84.5C 64.7808,82.5721 67.4475,81.5721 70.5,81.5 Z"/></g>
<g><path style="opacity:1" fill="#c9c9c9" d="M 74.5,83.5 C 72.4282,86.1984 69.7616,87.8651 66.5,88.5C 66.1667,88.5 65.8333,88.5 65.5,88.5C 64.5,88.5 63.5,88.5 62.5,88.5C 63.5,87.8333 64.5,87.1667 65.5,86.5C 68.8174,86.3357 71.8174,85.3357 74.5,83.5 Z"/></g>
<g><path style="opacity:1" fill="#c0c0c0" d="M 89.5,78.5 C 89.4894,80.0174 88.8228,81.1841 87.5,82C 84.2105,82.8816 80.8772,83.5483 77.5,84C 74.6276,87.3486 70.9609,88.8486 66.5,88.5C 69.7616,87.8651 72.4282,86.1984 74.5,83.5C 75.209,82.596 76.209,82.2627 77.5,82.5C 79.1992,82.6602 80.8659,82.4935 82.5,82C 84.5766,80.295 86.91,79.1283 89.5,78.5 Z"/></g>
<g><path style="opacity:1" fill="#bebebe" d="M 152.5,83.5 C 155.934,85.7525 159.601,87.4192 163.5,88.5C 160.729,88.5793 158.063,88.0793 155.5,87C 153.574,86.5776 152.574,85.4109 152.5,83.5 Z"/></g>
<g><path style="opacity:1" fill="#cacaca" d="M 148.5,81.5 C 150.167,81.5 151.833,81.5 153.5,81.5C 156.496,84.4617 160.163,86.1283 164.5,86.5C 167.57,87.5318 170.57,88.8652 173.5,90.5C 174.919,91.4511 176.585,91.7845 178.5,91.5C 178.5,91.8333 178.5,92.1667 178.5,92.5C 176.473,92.6621 174.473,92.4955 172.5,92C 170.114,90.8068 167.78,89.6401 165.5,88.5C 164.833,88.5 164.167,88.5 163.5,88.5C 159.601,87.4192 155.934,85.7525 152.5,83.5C 152.167,83.5 151.833,83.5 151.5,83.5C 150.5,82.8333 149.5,82.1667 148.5,81.5 Z"/></g>
<g><path style="opacity:1" fill="#cfcfcf" d="M 207.5,81.5 C 209.781,83.0322 209.781,84.3656 207.5,85.5C 204.079,85.5176 201.412,86.851 199.5,89.5C 199.5,90.1667 199.167,90.5 198.5,90.5C 198.167,90.5 197.833,90.5 197.5,90.5C 197.5,90.1667 197.5,89.8333 197.5,89.5C 198.885,88.0527 198.552,87.0527 196.5,86.5C 196.5,86.1667 196.5,85.8333 196.5,85.5C 199.322,82.2224 202.988,80.889 207.5,81.5 Z"/></g>
<g><path style="opacity:1" fill="#d8d8d8" d="M 153.5,81.5 C 158.045,81.4503 161.711,83.117 164.5,86.5C 160.163,86.1283 156.496,84.4617 153.5,81.5 Z"/></g>
<g><path style="opacity:1" fill="#f4f4f4" d="M 203.5,79.5 C 203.5,79.8333 203.5,80.1667 203.5,80.5C 199.269,80.4037 195.935,82.0703 193.5,85.5C 192.833,85.5 192.167,85.5 191.5,85.5C 188.763,85.4013 186.096,85.7347 183.5,86.5C 180.904,87.2653 178.237,87.5987 175.5,87.5C 172.341,86.6693 169.341,85.6693 166.5,84.5C 174.532,85.9293 182.532,85.7626 190.5,84C 193.774,79.8862 198.107,78.3862 203.5,79.5 Z"/></g>
<g><path style="opacity:1" fill="#d5d5d5" d="M 80.5,80.5 C 79.5,81.1667 78.5,81.8333 77.5,82.5C 76.209,82.2627 75.209,82.596 74.5,83.5C 71.8174,85.3357 68.8174,86.3357 65.5,86.5C 65.5,86.1667 65.5,85.8333 65.5,85.5C 65.8333,85.5 66.1667,85.5 66.5,85.5C 68.9366,85.114 70.9366,83.9473 72.5,82C 75.1168,81.1785 77.7835,80.6785 80.5,80.5 Z"/></g>
<g><path style="opacity:1" fill="#e9e9e9" d="M 58.5,86.5 C 57.4863,87.6737 56.153,88.3404 54.5,88.5C 55.287,86.8958 56.6203,86.2291 58.5,86.5 Z"/></g>
<g><path style="opacity:1" fill="#d7d7d7" d="M 65.5,85.5 C 65.5,85.8333 65.5,86.1667 65.5,86.5C 64.5,87.1667 63.5,87.8333 62.5,88.5C 61.5,88.5 60.5,88.5 59.5,88.5C 59.8333,87.8333 60.1667,87.1667 60.5,86.5C 62.0418,85.6993 63.7085,85.366 65.5,85.5 Z"/></g>
<g><path style="opacity:1" fill="#e4e4e4" d="M 148.5,79.5 C 149.833,79.5 151.167,79.5 152.5,79.5C 153.167,79.5 153.833,79.5 154.5,79.5C 158.655,80.7744 162.655,82.441 166.5,84.5C 169.341,85.6693 172.341,86.6693 175.5,87.5C 176.152,88.7251 177.319,89.3917 179,89.5C 181.626,89.9497 183.126,88.9497 183.5,86.5C 186.096,85.7347 188.763,85.4013 191.5,85.5C 188.417,86.149 185.751,87.649 183.5,90C 180.183,90.4983 176.85,90.665 173.5,90.5C 171.416,87.2942 168.416,85.9609 164.5,86.5C 161.711,83.117 158.045,81.4503 153.5,81.5C 151.833,81.5 150.167,81.5 148.5,81.5C 148.5,80.8333 148.5,80.1667 148.5,79.5 Z"/></g>
<g><path style="opacity:1" fill="#efefef" d="M 183.5,86.5 C 183.126,88.9497 181.626,89.9497 179,89.5C 177.319,89.3917 176.152,88.7251 175.5,87.5C 178.237,87.5987 180.904,87.2653 183.5,86.5 Z"/></g>
<g><path style="opacity:1" fill="#cccccc" d="M 196.5,86.5 C 198.552,87.0527 198.885,88.0527 197.5,89.5C 195.052,88.5269 192.385,88.1936 189.5,88.5C 191.515,87.0762 193.848,86.4095 196.5,86.5 Z"/></g>
<g><path style="opacity:1" fill="#d8d8d8" d="M 207.5,85.5 C 207.5,86.1667 207.5,86.8333 207.5,87.5C 206.833,87.5 206.167,87.5 205.5,87.5C 203.5,88.1667 201.5,88.8333 199.5,89.5C 201.412,86.851 204.079,85.5176 207.5,85.5 Z"/></g>
<g><path style="opacity:1" fill="#e0e0e0" d="M 58.5,86.5 C 59.1667,86.5 59.8333,86.5 60.5,86.5C 60.1667,87.1667 59.8333,87.8333 59.5,88.5C 57.8828,89.038 56.2161,89.3713 54.5,89.5C 54.5,89.1667 54.5,88.8333 54.5,88.5C 56.153,88.3404 57.4863,87.6737 58.5,86.5 Z"/></g>
<g><path style="opacity:1" fill="#c9c9c9" d="M 59.5,88.5 C 60.5,88.5 61.5,88.5 62.5,88.5C 62.0472,89.4584 61.3805,90.2917 60.5,91C 58.2774,91.5662 56.2774,92.3995 54.5,93.5C 54.1667,93.5 53.8333,93.5 53.5,93.5C 53.1667,93.5 52.8333,93.5 52.5,93.5C 54.7331,91.6519 57.0664,89.9852 59.5,88.5 Z"/></g>
<g><path style="opacity:1" fill="#bebebe" d="M 62.5,88.5 C 63.5,88.5 64.5,88.5 65.5,88.5C 63.4687,90.5224 61.1354,92.1891 58.5,93.5C 57.1667,93.5 55.8333,93.5 54.5,93.5C 56.2774,92.3995 58.2774,91.5662 60.5,91C 61.3805,90.2917 62.0472,89.4584 62.5,88.5 Z"/></g>
<g><path style="opacity:1" fill="#bfbfbf" d="M 165.5,88.5 C 167.78,89.6401 170.114,90.8068 172.5,92C 174.473,92.4955 176.473,92.6621 178.5,92.5C 178.833,92.5 179.167,92.5 179.5,92.5C 180.263,93.2679 181.263,93.7679 182.5,94C 180.26,94.977 177.927,95.477 175.5,95.5C 176.263,94.7321 177.263,94.2321 178.5,94C 174.75,93.7401 171.084,93.0734 167.5,92C 166.695,90.8873 166.028,89.7206 165.5,88.5 Z"/></g>
<g><path style="opacity:1" fill="#d7d7d7" d="M 164.5,86.5 C 168.416,85.9609 171.416,87.2942 173.5,90.5C 170.57,88.8652 167.57,87.5318 164.5,86.5 Z"/></g>
<g><path style="opacity:1" fill="#d8d8d8" d="M 191.5,85.5 C 192.167,85.5 192.833,85.5 193.5,85.5C 194.5,85.5 195.5,85.5 196.5,85.5C 196.5,85.8333 196.5,86.1667 196.5,86.5C 193.848,86.4095 191.515,87.0762 189.5,88.5C 188.5,88.5 187.5,88.5 186.5,88.5C 184.653,91.1715 181.986,92.1715 178.5,91.5C 176.585,91.7845 174.919,91.4511 173.5,90.5C 176.85,90.665 180.183,90.4983 183.5,90C 185.751,87.649 188.417,86.149 191.5,85.5 Z"/></g>
<g><path style="opacity:1" fill="#d1d1d1" d="M 186.5,88.5 C 187.1,89.8999 188.1,90.8999 189.5,91.5C 188.094,91.9731 187.427,92.9731 187.5,94.5C 187.5,94.8333 187.5,95.1667 187.5,95.5C 186.5,95.5 185.5,95.5 184.5,95.5C 185.091,94.8485 185.757,94.1818 186.5,93.5C 184.257,92.5258 181.924,92.1924 179.5,92.5C 179.167,92.5 178.833,92.5 178.5,92.5C 178.5,92.1667 178.5,91.8333 178.5,91.5C 181.986,92.1715 184.653,91.1715 186.5,88.5 Z"/></g>
<g><path style="opacity:1" fill="#cbcbcb" d="M 186.5,88.5 C 187.5,88.5 188.5,88.5 189.5,88.5C 190.172,89.2674 191.005,89.9341 192,90.5C 193.699,89.5939 195.533,89.2606 197.5,89.5C 197.5,89.8333 197.5,90.1667 197.5,90.5C 194.833,90.8333 192.167,91.1667 189.5,91.5C 188.1,90.8999 187.1,89.8999 186.5,88.5 Z"/></g>
<g><path style="opacity:1" fill="#c2c2c2" d="M 189.5,88.5 C 192.385,88.1936 195.052,88.5269 197.5,89.5C 195.533,89.2606 193.699,89.5939 192,90.5C 191.005,89.9341 190.172,89.2674 189.5,88.5 Z"/></g>
<g><path style="opacity:1" fill="#f2f2f2" d="M 210.5,86.5 C 209.817,88.1765 208.483,88.8432 206.5,88.5C 206.863,90.9115 205.863,92.4115 203.5,93C 200.854,93.4974 198.187,93.6641 195.5,93.5C 199.739,93.0457 203.072,91.0457 205.5,87.5C 206.167,87.5 206.833,87.5 207.5,87.5C 208.391,86.8902 209.391,86.5569 210.5,86.5 Z"/></g>
<g><path style="opacity:1" fill="#e8e8e8" d="M 54.5,89.5 C 53.205,90.4884 51.8717,91.4884 50.5,92.5C 50.5,91.5 50.5,90.5 50.5,89.5C 51.8333,89.5 53.1667,89.5 54.5,89.5 Z"/></g>
<g><path style="opacity:1" fill="#d8d8d8" d="M 197.5,90.5 C 197.833,90.5 198.167,90.5 198.5,90.5C 194.857,91.6692 191.19,93.0025 187.5,94.5C 187.427,92.9731 188.094,91.9731 189.5,91.5C 192.167,91.1667 194.833,90.8333 197.5,90.5 Z"/></g>
<g><path style="opacity:1" fill="#cacaca" d="M 179.5,92.5 C 181.924,92.1924 184.257,92.5258 186.5,93.5C 185.757,94.1818 185.091,94.8485 184.5,95.5C 181.933,95.7215 179.599,96.3882 177.5,97.5C 175.315,97.7036 173.315,98.3702 171.5,99.5C 172.527,97.8058 173.861,96.4725 175.5,95.5C 177.927,95.477 180.26,94.977 182.5,94C 181.263,93.7679 180.263,93.2679 179.5,92.5 Z"/></g>
<g><path style="opacity:1" fill="#e6e6e6" d="M 205.5,87.5 C 203.072,91.0457 199.739,93.0457 195.5,93.5C 192.447,93.5721 189.781,94.5721 187.5,96.5C 187.5,96.1667 187.5,95.8333 187.5,95.5C 187.5,95.1667 187.5,94.8333 187.5,94.5C 191.19,93.0025 194.857,91.6692 198.5,90.5C 199.167,90.5 199.5,90.1667 199.5,89.5C 201.5,88.8333 203.5,88.1667 205.5,87.5 Z"/></g>
<g><path style="opacity:1" fill="#d8d8d8" d="M 59.5,88.5 C 57.0664,89.9852 54.7331,91.6519 52.5,93.5C 51.5023,117.994 51.169,142.661 51.5,167.5C 50.5023,142.672 50.169,117.672 50.5,92.5C 51.8717,91.4884 53.205,90.4884 54.5,89.5C 56.2161,89.3713 57.8828,89.038 59.5,88.5 Z"/></g>
<g><path style="opacity:1" fill="#c1c1c1" d="M 52.5,93.5 C 52.8333,93.5 53.1667,93.5 53.5,93.5C 53.3379,95.5273 53.5045,97.5273 54,99.5C 56.5478,95.9521 58.7144,95.9521 60.5,99.5C 58.901,99.2322 57.5676,99.5655 56.5,100.5C 55.7784,100.918 55.2784,101.584 55,102.5C 54.3333,123.167 54.3333,143.833 55,164.5C 55.5,165 56,165.5 56.5,166C 55.2068,166.49 53.8734,166.657 52.5,166.5C 52.5,142.167 52.5,117.833 52.5,93.5 Z"/></g>
<g><path style="opacity:1" fill="#b9b9b9" d="M 53.5,93.5 C 53.8333,93.5 54.1667,93.5 54.5,93.5C 55.8333,93.5 57.1667,93.5 58.5,93.5C 59.0076,95.2327 59.841,95.566 61,94.5C 62.0086,96.0249 62.5086,97.6916 62.5,99.5C 66.1817,99.3347 69.8484,99.5014 73.5,100C 76.1059,100.45 77.4392,101.95 77.5,104.5C 74.9158,104.431 72.9158,103.265 71.5,101C 69.8659,100.506 68.1992,100.34 66.5,100.5C 64.2646,100.795 62.2646,100.461 60.5,99.5C 58.7144,95.9521 56.5478,95.9521 54,99.5C 53.5045,97.5273 53.3379,95.5273 53.5,93.5 Z"/></g>
<g><path style="opacity:1" fill="#bfbfbf" d="M 175.5,95.5 C 173.861,96.4725 172.527,97.8058 171.5,99.5C 170.209,99.2627 169.209,99.596 168.5,100.5C 167.167,100.5 165.833,100.5 164.5,100.5C 164.5,100.167 164.5,99.8333 164.5,99.5C 167.797,97.3603 171.464,96.027 175.5,95.5 Z"/></g>
<g><path style="opacity:1" fill="#dadada" d="M 184.5,95.5 C 185.5,95.5 186.5,95.5 187.5,95.5C 187.5,95.8333 187.5,96.1667 187.5,96.5C 184.167,96.8333 180.833,97.1667 177.5,97.5C 179.599,96.3882 181.933,95.7215 184.5,95.5 Z"/></g>
<g><path style="opacity:1" fill="#f4f4f4" d="M 195.5,93.5 C 195.092,94.6431 194.425,95.6431 193.5,96.5C 189.61,97.9837 185.61,99.1503 181.5,100C 178.577,103.173 174.911,104.34 170.5,103.5C 175.823,100.415 181.49,98.0812 187.5,96.5C 189.781,94.5721 192.447,93.5721 195.5,93.5 Z"/></g>
<g><path style="opacity:1" fill="#d3d3d3" d="M 177.5,97.5 C 175.102,99.9743 172.102,101.308 168.5,101.5C 168.5,101.167 168.5,100.833 168.5,100.5C 169.209,99.596 170.209,99.2627 171.5,99.5C 173.315,98.3702 175.315,97.7036 177.5,97.5 Z"/></g>
<g><path style="opacity:1" fill="#f4f4f4" d="M 59.5,84.5 C 59.1667,85.1667 58.8333,85.8333 58.5,86.5C 56.6203,86.2291 55.287,86.8958 54.5,88.5C 54.5,88.8333 54.5,89.1667 54.5,89.5C 53.1667,89.5 51.8333,89.5 50.5,89.5C 50.5,90.5 50.5,91.5 50.5,92.5C 49.5022,117.995 49.1689,143.661 49.5,169.5C 48.3365,143.337 48.1698,117.003 49,90.5C 51.0745,86.1824 54.5745,84.1824 59.5,84.5 Z"/></g>
<g><path style="opacity:1" fill="#bebebe" d="M 66.5,100.5 C 68.1992,100.34 69.8659,100.506 71.5,101C 72.9158,103.265 74.9158,104.431 77.5,104.5C 77.5,104.833 77.5,105.167 77.5,105.5C 76.1667,105.5 74.8333,105.5 73.5,105.5C 71.66,103.086 69.3267,101.419 66.5,100.5 Z"/></g>
<g><path style="opacity:1" fill="#f4f4f4" d="M 196.5,118.5 C 198.662,117.872 200.328,116.539 201.5,114.5C 203.975,113.869 206.309,112.869 208.5,111.5C 208.5,111.167 208.5,110.833 208.5,110.5C 209.634,108.034 209.801,105.367 209,102.5C 206.328,101.241 204.161,101.908 202.5,104.5C 196.904,105.561 191.571,107.228 186.5,109.5C 186.414,108.504 186.748,107.671 187.5,107C 193.077,106.355 198.077,104.355 202.5,101C 208.741,98.8036 211.741,100.97 211.5,107.5C 211.46,112.601 208.793,115.101 203.5,115C 201.933,117.741 199.599,118.908 196.5,118.5 Z"/></g>
<g><path style="opacity:1" fill="#c9c9c9" d="M 56.5,100.5 C 57.5676,99.5655 58.901,99.2322 60.5,99.5C 62.2646,100.461 64.2646,100.795 66.5,100.5C 69.3267,101.419 71.66,103.086 73.5,105.5C 70.7766,104.648 68.11,103.481 65.5,102C 63.5273,101.505 61.5273,101.338 59.5,101.5C 58.791,100.596 57.791,100.263 56.5,100.5 Z"/></g>
<g><path style="opacity:1" fill="#e7e7e7" d="M 50.5,92.5 C 50.169,117.672 50.5023,142.672 51.5,167.5C 51.5569,168.609 51.8902,169.609 52.5,170.5C 51.391,170.443 50.391,170.11 49.5,169.5C 49.1689,143.661 49.5022,117.995 50.5,92.5 Z"/></g>
<g><path style="opacity:1" fill="#d8d8d8" d="M 56.5,103.5 C 56.3334,123.169 56.5,142.836 57,162.5C 59.0627,164.734 61.2294,166.734 63.5,168.5C 60.3864,167.909 57.8864,166.242 56,163.5C 55.1709,143.329 55.3375,123.329 56.5,103.5 Z"/></g>
<g><path style="opacity:1" fill="#e4e4e4" d="M 56.5,103.5 C 56.8333,103.5 57.1667,103.5 57.5,103.5C 57.1697,123.007 57.503,142.341 58.5,161.5C 58.8417,162.338 59.5084,162.672 60.5,162.5C 60.5106,164.017 61.1772,165.184 62.5,166C 65.1868,166.728 67.5201,167.895 69.5,169.5C 67.3792,169.675 65.3792,169.341 63.5,168.5C 61.2294,166.734 59.0627,164.734 57,162.5C 56.5,142.836 56.3334,123.169 56.5,103.5 Z"/></g>
<g><path style="opacity:1" fill="#efefef" d="M 57.5,103.5 C 59.8008,104.06 62.1341,104.56 64.5,105C 65.056,105.383 65.3893,105.883 65.5,106.5C 63.4816,105.377 61.4816,105.377 59.5,106.5C 58.5004,124.821 58.1671,143.155 58.5,161.5C 57.503,142.341 57.1697,123.007 57.5,103.5 Z"/></g>
<g><path style="opacity:1" fill="#e7e7e7" d="M 57.5,103.5 C 61.6642,101.576 64.9975,102.576 67.5,106.5C 66.8333,106.5 66.1667,106.5 65.5,106.5C 65.3893,105.883 65.056,105.383 64.5,105C 62.1341,104.56 59.8008,104.06 57.5,103.5 Z"/></g>
<g><path style="opacity:1" fill="#d4d4d4" d="M 168.5,101.5 C 165.543,102.823 162.543,104.157 159.5,105.5C 161.712,102.642 164.712,101.309 168.5,101.5 Z"/></g>
<g><path style="opacity:1" fill="#bababa" d="M 164.5,99.5 C 164.5,99.8333 164.5,100.167 164.5,100.5C 156.562,103.956 148.562,107.29 140.5,110.5C 135.118,109.699 130.785,111.366 127.5,115.5C 127.167,115.5 126.833,115.5 126.5,115.5C 124.833,115.5 123.167,115.5 121.5,115.5C 122.919,114.549 124.585,114.216 126.5,114.5C 126.36,112.876 127.027,111.71 128.5,111C 132.5,110.167 136.5,109.333 140.5,108.5C 140.865,107.098 141.699,106.098 143,105.5C 147.207,105.382 150.707,103.882 153.5,101C 157.06,99.7633 160.727,99.2633 164.5,99.5 Z"/></g>
<g><path style="opacity:1" fill="#f6f6f6" d="M 65.5,106.5 C 66.1667,106.5 66.8333,106.5 67.5,106.5C 67.8333,107.167 68.1667,107.833 68.5,108.5C 66.1933,108.014 64.0266,108.014 62,108.5C 61.8052,125.192 61.3052,141.858 60.5,158.5C 60.7517,160.073 61.4183,161.406 62.5,162.5C 61.8333,162.5 61.1667,162.5 60.5,162.5C 59.5084,162.672 58.8417,162.338 58.5,161.5C 58.1671,143.155 58.5004,124.821 59.5,106.5C 61.4816,105.377 63.4816,105.377 65.5,106.5 Z"/></g>
<g><path style="opacity:1" fill="#bfbfbf" d="M 78.5,105.5 C 82.9458,105.056 86.2791,106.723 88.5,110.5C 84.8936,109.189 81.5602,107.522 78.5,105.5 Z"/></g>
<g><path style="opacity:1" fill="#d9d9d9" d="M 59.5,101.5 C 61.5273,101.338 63.5273,101.505 65.5,102C 68.11,103.481 70.7766,104.648 73.5,105.5C 76.2542,106.641 78.9209,107.975 81.5,109.5C 80.8333,109.5 80.1667,109.5 79.5,109.5C 75.6516,107.996 71.6516,106.996 67.5,106.5C 64.9975,102.576 61.6642,101.576 57.5,103.5C 57.1667,103.5 56.8333,103.5 56.5,103.5C 56.8212,101.952 57.8212,101.285 59.5,101.5 Z"/></g>
<g><path style="opacity:1" fill="#cacaca" d="M 73.5,105.5 C 74.8333,105.5 76.1667,105.5 77.5,105.5C 77.8333,105.5 78.1667,105.5 78.5,105.5C 81.5602,107.522 84.8936,109.189 88.5,110.5C 88.5,110.833 88.5,111.167 88.5,111.5C 87.8333,111.5 87.1667,111.5 86.5,111.5C 84.4471,111.598 82.7804,110.931 81.5,109.5C 78.9209,107.975 76.2542,106.641 73.5,105.5 Z"/></g>
<g><path style="opacity:1" fill="#cacaca" d="M 164.5,100.5 C 165.833,100.5 167.167,100.5 168.5,100.5C 168.5,100.833 168.5,101.167 168.5,101.5C 164.712,101.309 161.712,102.642 159.5,105.5C 158.292,106.234 156.959,106.567 155.5,106.5C 153.102,106.259 151.102,106.926 149.5,108.5C 146.702,109.65 144.035,110.983 141.5,112.5C 140.833,112.5 140.167,112.5 139.5,112.5C 136.594,112.957 133.928,113.957 131.5,115.5C 133.82,112.516 136.82,110.849 140.5,110.5C 148.562,107.29 156.562,103.956 164.5,100.5 Z"/></g>
<g><path style="opacity:1" fill="#e6e6e6" d="M 208.5,110.5 C 208.819,108.25 208.319,106.25 207,104.5C 203.055,105.784 199.221,107.118 195.5,108.5C 190.58,110.127 185.58,111.46 180.5,112.5C 182.5,111.5 184.5,110.5 186.5,109.5C 191.571,107.228 196.904,105.561 202.5,104.5C 204.161,101.908 206.328,101.241 209,102.5C 209.801,105.367 209.634,108.034 208.5,110.5 Z"/></g>
<g><path style="opacity:1" fill="#fefefe" d="M 68.5,108.5 C 68.8333,108.5 69.1667,108.5 69.5,108.5C 72.3879,108.995 74.7212,110.495 76.5,113C 77.7932,113.49 79.1266,113.657 80.5,113.5C 80.8333,113.5 81.1667,113.5 81.5,113.5C 84.4635,114.258 87.1302,115.758 89.5,118C 92.7895,118.882 96.1228,119.548 99.5,120C 101.806,123.502 105.14,125.002 109.5,124.5C 109.642,128.15 108.975,131.65 107.5,135C 108.474,137.421 109.14,139.921 109.5,142.5C 106.833,151.167 106.833,159.833 109.5,168.5C 109.14,171.079 108.474,173.579 107.5,176C 108.167,177.333 108.833,178.667 109.5,180C 109.164,181.03 108.497,181.53 107.5,181.5C 106.833,181.5 106.167,181.5 105.5,181.5C 104.71,180.206 103.71,179.039 102.5,178C 96.6499,177.218 91.3166,175.385 86.5,172.5C 84.369,171.686 82.0356,171.186 79.5,171C 77.1936,167.498 73.8603,165.998 69.5,166.5C 68.8333,166.5 68.1667,166.5 67.5,166.5C 66.4154,164.413 64.7488,163.08 62.5,162.5C 61.4183,161.406 60.7517,160.073 60.5,158.5C 61.3052,141.858 61.8052,125.192 62,108.5C 64.0266,108.014 66.1933,108.014 68.5,108.5 Z"/></g>
<g><path style="opacity:1" fill="#d5d5d5" d="M 155.5,106.5 C 153.898,108.074 151.898,108.741 149.5,108.5C 151.102,106.926 153.102,106.259 155.5,106.5 Z"/></g>
<g><path style="opacity:1" fill="#e5e5e5" d="M 187.5,96.5 C 181.49,98.0812 175.823,100.415 170.5,103.5C 163.088,105.285 156.088,108.118 149.5,112C 146.243,113.043 142.91,113.543 139.5,113.5C 139.5,113.167 139.5,112.833 139.5,112.5C 140.167,112.5 140.833,112.5 141.5,112.5C 144.921,112.482 147.588,111.149 149.5,108.5C 151.898,108.741 153.898,108.074 155.5,106.5C 156.959,106.567 158.292,106.234 159.5,105.5C 162.543,104.157 165.543,102.823 168.5,101.5C 172.102,101.308 175.102,99.9743 177.5,97.5C 180.833,97.1667 184.167,96.8333 187.5,96.5 Z"/></g>
<g><path style="opacity:1" fill="#f5f5f5" d="M 69.5,108.5 C 73.2206,108.369 76.5539,109.369 79.5,111.5C 79.8333,112.167 80.1667,112.833 80.5,113.5C 79.1266,113.657 77.7932,113.49 76.5,113C 74.7212,110.495 72.3879,108.995 69.5,108.5 Z"/></g>
<g><path style="opacity:1" fill="#e9e9e9" d="M 67.5,106.5 C 71.6516,106.996 75.6516,107.996 79.5,109.5C 79.5,110.167 79.5,110.833 79.5,111.5C 76.5539,109.369 73.2206,108.369 69.5,108.5C 69.1667,108.5 68.8333,108.5 68.5,108.5C 68.1667,107.833 67.8333,107.167 67.5,106.5 Z"/></g>
<g><path style="opacity:1" fill="#d7d7d7" d="M 149.5,108.5 C 147.588,111.149 144.921,112.482 141.5,112.5C 144.035,110.983 146.702,109.65 149.5,108.5 Z"/></g>
<g><path style="opacity:1" fill="#f3f3f3" d="M 170.5,103.5 C 169.327,105.504 167.66,107.004 165.5,108C 160.716,108.07 156.716,109.736 153.5,113C 150.167,113.667 146.833,114.333 143.5,115C 142.833,116.333 141.833,117.333 140.5,118C 137.211,118.882 133.877,119.548 130.5,120C 128.757,122.957 126.09,124.457 122.5,124.5C 124.723,122.503 127.056,120.503 129.5,118.5C 133.91,118.713 137.243,117.046 139.5,113.5C 142.91,113.543 146.243,113.043 149.5,112C 156.088,108.118 163.088,105.285 170.5,103.5 Z"/></g>
<g><path style="opacity:1" fill="#e0e0e0" d="M 79.5,109.5 C 80.1667,109.5 80.8333,109.5 81.5,109.5C 82.7804,110.931 84.4471,111.598 86.5,111.5C 86.8333,112.167 87.1667,112.833 87.5,113.5C 86.8333,113.5 86.1667,113.5 85.5,113.5C 83.7857,112.262 81.7857,111.595 79.5,111.5C 79.5,110.833 79.5,110.167 79.5,109.5 Z"/></g>
<g><path style="opacity:1" fill="#bfbfbf" d="M 88.5,111.5 C 88.5,111.167 88.5,110.833 88.5,110.5C 94.2572,109.448 98.9238,111.115 102.5,115.5C 99.4842,115.159 96.8175,113.993 94.5,112C 92.5273,111.505 90.5273,111.338 88.5,111.5 Z"/></g>
<g><path style="opacity:1" fill="#c0c0c0" d="M 140.5,110.5 C 136.82,110.849 133.82,112.516 131.5,115.5C 131.167,115.5 130.833,115.5 130.5,115.5C 129.5,115.5 128.5,115.5 127.5,115.5C 130.785,111.366 135.118,109.699 140.5,110.5 Z"/></g>
<g><path style="opacity:1" fill="#ededed" d="M 79.5,111.5 C 81.7857,111.595 83.7857,112.262 85.5,113.5C 84.1667,113.5 82.8333,113.5 81.5,113.5C 81.1667,113.5 80.8333,113.5 80.5,113.5C 80.1667,112.833 79.8333,112.167 79.5,111.5 Z"/></g>
<g><path style="opacity:1" fill="#d8d8d8" d="M 86.5,111.5 C 87.1667,111.5 87.8333,111.5 88.5,111.5C 89.9516,112.302 91.6183,112.802 93.5,113C 94.3805,113.708 95.0472,114.542 95.5,115.5C 92.8877,114.629 90.221,113.963 87.5,113.5C 87.1667,112.833 86.8333,112.167 86.5,111.5 Z"/></g>
<g><path style="opacity:1" fill="#cacaca" d="M 88.5,111.5 C 90.5273,111.338 92.5273,111.505 94.5,112C 96.8175,113.993 99.4842,115.159 102.5,115.5C 102.833,115.5 103.167,115.5 103.5,115.5C 106.962,116.277 109.628,118.277 111.5,121.5C 110.833,121.5 110.167,121.5 109.5,121.5C 108.341,119.75 106.674,118.75 104.5,118.5C 102.485,117.076 100.152,116.41 97.5,116.5C 96.8333,116.167 96.1667,115.833 95.5,115.5C 95.0472,114.542 94.3805,113.708 93.5,113C 91.6183,112.802 89.9516,112.302 88.5,111.5 Z"/></g>
<g><path style="opacity:1" fill="#e5e5e5" d="M 180.5,112.5 C 178.059,115.665 174.726,117.331 170.5,117.5C 170.5,117.167 170.5,116.833 170.5,116.5C 174.089,115.702 177.422,114.369 180.5,112.5 Z"/></g>
<g><path style="opacity:1" fill="#cccccc" d="M 193.5,115.5 C 192.791,116.404 191.791,116.737 190.5,116.5C 188.143,116.663 185.81,116.497 183.5,116C 182.402,115.23 182.402,114.397 183.5,113.5C 186.764,112.676 190.098,112.342 193.5,112.5C 193.5,113.5 193.5,114.5 193.5,115.5 Z"/></g>
<g><path style="opacity:1" fill="#e5e5e5" d="M 208.5,111.5 C 206.309,112.869 203.975,113.869 201.5,114.5C 199.784,114.629 198.117,114.962 196.5,115.5C 196.577,114.25 197.244,113.417 198.5,113C 201.827,112.39 205.161,111.89 208.5,111.5 Z"/></g>
<g><path style="opacity:1" fill="#f5f5f5" d="M 81.5,113.5 C 82.8333,113.5 84.1667,113.5 85.5,113.5C 86.1667,113.5 86.8333,113.5 87.5,113.5C 91.065,116.915 95.3983,118.581 100.5,118.5C 100.957,120.773 102.29,122.106 104.5,122.5C 106.403,122.796 108.07,123.463 109.5,124.5C 105.14,125.002 101.806,123.502 99.5,120C 96.1228,119.548 92.7895,118.882 89.5,118C 87.1302,115.758 84.4635,114.258 81.5,113.5 Z"/></g>
<g><path style="opacity:1" fill="#d8d8d8" d="M 208.5,110.5 C 208.5,110.833 208.5,111.167 208.5,111.5C 205.161,111.89 201.827,112.39 198.5,113C 197.244,113.417 196.577,114.25 196.5,115.5C 195.5,115.5 194.5,115.5 193.5,115.5C 193.5,114.5 193.5,113.5 193.5,112.5C 190.098,112.342 186.764,112.676 183.5,113.5C 181.974,114.105 180.974,115.271 180.5,117C 178.292,117.191 176.292,117.691 174.5,118.5C 171.235,118.299 168.569,119.466 166.5,122C 164.527,122.495 162.527,122.662 160.5,122.5C 163.814,120.843 167.148,119.176 170.5,117.5C 174.726,117.331 178.059,115.665 180.5,112.5C 185.58,111.46 190.58,110.127 195.5,108.5C 199.221,107.118 203.055,105.784 207,104.5C 208.319,106.25 208.819,108.25 208.5,110.5 Z"/></g>
<g><path style="opacity:1" fill="#cdcdcd" d="M 195.5,108.5 C 199.119,107.756 202.785,107.423 206.5,107.5C 206.5,108.5 206.5,109.5 206.5,110.5C 202.881,111.244 199.215,111.577 195.5,111.5C 195.5,110.5 195.5,109.5 195.5,108.5 Z"/></g>
<g><path style="opacity:1" fill="#c2c2c2" d="M 199.5,108.5 C 204.6,108.466 204.766,109.132 200,110.5C 199.167,110.333 198.333,110.167 197.5,110C 198.416,109.722 199.082,109.222 199.5,108.5 Z"/></g>
<g><path style="opacity:1" fill="#d1d1d1" d="M 183.5,113.5 C 182.402,114.397 182.402,115.23 183.5,116C 185.81,116.497 188.143,116.663 190.5,116.5C 190.5,116.833 190.5,117.167 190.5,117.5C 188.833,117.5 187.167,117.5 185.5,117.5C 183.027,117.088 181.694,118.088 181.5,120.5C 180.791,121.404 179.791,121.737 178.5,121.5C 178.5,121.167 178.5,120.833 178.5,120.5C 177.71,119.599 176.71,118.932 175.5,118.5C 175.167,118.5 174.833,118.5 174.5,118.5C 176.292,117.691 178.292,117.191 180.5,117C 180.974,115.271 181.974,114.105 183.5,113.5 Z"/></g>
<g><path style="opacity:1" fill="#c2c2c2" d="M 186.5,113.5 C 188.288,113.215 189.955,113.548 191.5,114.5C 189.235,115.647 186.902,115.814 184.5,115C 185.416,114.722 186.082,114.222 186.5,113.5 Z"/></g>
<g><path style="opacity:1" fill="#f3f3f3" d="M 186.5,109.5 C 184.5,110.5 182.5,111.5 180.5,112.5C 177.422,114.369 174.089,115.702 170.5,116.5C 168.5,116.5 166.5,116.5 164.5,116.5C 166.631,115.686 168.964,115.186 171.5,115C 175.673,111.248 180.673,109.415 186.5,109.5 Z"/></g>
<g><path style="opacity:1" fill="#eaeaea" d="M 201.5,114.5 C 200.328,116.539 198.662,117.872 196.5,118.5C 193.813,118.336 191.146,118.503 188.5,119C 186.595,120.421 184.595,121.588 182.5,122.5C 182.833,121.833 183.167,121.167 183.5,120.5C 184.906,120.027 185.573,119.027 185.5,117.5C 187.167,117.5 188.833,117.5 190.5,117.5C 192.898,117.741 194.898,117.074 196.5,115.5C 198.117,114.962 199.784,114.629 201.5,114.5 Z"/></g>
<g><path style="opacity:1" fill="#e6e6e6" d="M 87.5,113.5 C 90.221,113.963 92.8877,114.629 95.5,115.5C 96.1667,115.833 96.8333,116.167 97.5,116.5C 98.5,117.167 99.5,117.833 100.5,118.5C 95.3983,118.581 91.065,116.915 87.5,113.5 Z"/></g>
<g><path style="opacity:1" fill="#d9d9d9" d="M 97.5,116.5 C 100.152,116.41 102.485,117.076 104.5,118.5C 103.833,118.5 103.167,118.5 102.5,118.5C 101.833,118.5 101.167,118.5 100.5,118.5C 99.5,117.833 98.5,117.167 97.5,116.5 Z"/></g>
<g><path style="opacity:1" fill="#cbcbcb" d="M 126.5,115.5 C 126.833,115.5 127.167,115.5 127.5,115.5C 128.5,115.5 129.5,115.5 130.5,115.5C 125.282,117.112 120.615,119.778 116.5,123.5C 118.921,119.751 122.255,117.084 126.5,115.5 Z"/></g>
<g><path style="opacity:1" fill="#d8d8d8" d="M 139.5,112.5 C 139.5,112.833 139.5,113.167 139.5,113.5C 136.333,115.552 133,117.219 129.5,118.5C 124.861,118.824 121.194,120.824 118.5,124.5C 117.517,128.298 117.183,132.298 117.5,136.5C 116.515,132.366 116.182,128.032 116.5,123.5C 120.615,119.778 125.282,117.112 130.5,115.5C 130.833,115.5 131.167,115.5 131.5,115.5C 133.928,113.957 136.594,112.957 139.5,112.5 Z"/></g>
<g><path style="opacity:1" fill="#e6e6e6" d="M 139.5,113.5 C 137.243,117.046 133.91,118.713 129.5,118.5C 133,117.219 136.333,115.552 139.5,113.5 Z"/></g>
<g><path style="opacity:1" fill="#e0e0e0" d="M 193.5,115.5 C 194.5,115.5 195.5,115.5 196.5,115.5C 194.898,117.074 192.898,117.741 190.5,117.5C 190.5,117.167 190.5,116.833 190.5,116.5C 191.791,116.737 192.791,116.404 193.5,115.5 Z"/></g>
<g><path style="opacity:1" fill="#d8d8d8" d="M 185.5,117.5 C 185.573,119.027 184.906,120.027 183.5,120.5C 182.833,120.5 182.167,120.5 181.5,120.5C 181.694,118.088 183.027,117.088 185.5,117.5 Z"/></g>
<g><path style="opacity:1" fill="#eeeeee" d="M 100.5,118.5 C 101.167,118.5 101.833,118.5 102.5,118.5C 103.167,119.833 103.833,121.167 104.5,122.5C 102.29,122.106 100.957,120.773 100.5,118.5 Z"/></g>
<g><path style="opacity:1" fill="#d5d5d5" d="M 104.5,118.5 C 106.674,118.75 108.341,119.75 109.5,121.5C 107.326,121.25 105.659,120.25 104.5,118.5 Z"/></g>
<g><path style="opacity:1" fill="#c2c2c2" d="M 175.5,118.5 C 176.71,118.932 177.71,119.599 178.5,120.5C 176.143,120.663 173.81,120.497 171.5,120C 173.058,119.79 174.391,119.29 175.5,118.5 Z"/></g>
<g><path style="opacity:1" fill="#f3f3f3" d="M 196.5,118.5 C 194.302,119.165 191.969,119.832 189.5,120.5C 188.528,122.636 186.861,123.803 184.5,124C 181.854,124.497 179.187,124.664 176.5,124.5C 178.102,122.926 180.102,122.259 182.5,122.5C 184.595,121.588 186.595,120.421 188.5,119C 191.146,118.503 193.813,118.336 196.5,118.5 Z"/></g>
<g><path style="opacity:1" fill="#c1c1c1" d="M 103.5,115.5 C 108.952,115.144 112.785,117.477 115,122.5C 116.045,118.96 118.212,116.626 121.5,115.5C 123.167,115.5 124.833,115.5 126.5,115.5C 122.255,117.084 118.921,119.751 116.5,123.5C 115.352,127.981 115.185,132.648 116,137.5C 116.5,138 117,138.5 117.5,139C 128.779,139.244 129.113,140.244 118.5,142C 117.54,143.419 116.707,144.919 116,146.5C 115.333,151.833 115.333,157.167 116,162.5C 118.519,163.908 121.019,165.242 123.5,166.5C 123.167,166.5 122.833,166.5 122.5,166.5C 119.487,166.581 117.487,167.914 116.5,170.5C 114.895,177.448 115.562,184.281 118.5,191C 117.263,191.232 116.263,191.732 115.5,192.5C 113.081,191.743 111.747,190.077 111.5,187.5C 112.547,185.944 113.214,184.277 113.5,182.5C 113.667,162.497 113.5,142.497 113,122.5C 112.617,121.944 112.117,121.611 111.5,121.5C 109.628,118.277 106.962,116.277 103.5,115.5 Z"/></g>
<g><path style="opacity:1" fill="#e8e8e8" d="M 129.5,118.5 C 127.056,120.503 124.723,122.503 122.5,124.5C 122.167,124.5 121.833,124.5 121.5,124.5C 119.586,127.684 118.92,131.351 119.5,135.5C 118.518,132.038 118.185,128.371 118.5,124.5C 121.194,120.824 124.861,118.824 129.5,118.5 Z"/></g>
<g><path style="opacity:1" fill="#eeeeee" d="M 152.5,122.5 C 151.871,124.997 150.204,126.33 147.5,126.5C 148.585,124.413 150.251,123.08 152.5,122.5 Z"/></g>
<g><path style="opacity:1" fill="#cbcbcb" d="M 174.5,118.5 C 174.833,118.5 175.167,118.5 175.5,118.5C 174.391,119.29 173.058,119.79 171.5,120C 173.81,120.497 176.143,120.663 178.5,120.5C 178.5,120.833 178.5,121.167 178.5,121.5C 178.167,121.5 177.833,121.5 177.5,121.5C 173.208,121.13 170.208,122.797 168.5,126.5C 167.5,126.5 166.5,126.5 165.5,126.5C 162.102,126.82 158.768,126.487 155.5,125.5C 157.145,124.304 158.811,123.304 160.5,122.5C 162.527,122.662 164.527,122.495 166.5,122C 168.569,119.466 171.235,118.299 174.5,118.5 Z"/></g>
<g><path style="opacity:1" fill="#d8d8d8" d="M 177.5,121.5 C 174.417,122.976 171.417,124.643 168.5,126.5C 170.208,122.797 173.208,121.13 177.5,121.5 Z"/></g>
<g><path style="opacity:1" fill="#e3e3e3" d="M 102.5,118.5 C 103.167,118.5 103.833,118.5 104.5,118.5C 105.659,120.25 107.326,121.25 109.5,121.5C 110.122,122.627 110.955,123.627 112,124.5C 112.5,143.83 112.667,163.164 112.5,182.5C 112.167,182.5 111.833,182.5 111.5,182.5C 111.167,182.5 110.833,182.5 110.5,182.5C 110.83,162.993 110.497,143.659 109.5,124.5C 108.07,123.463 106.403,122.796 104.5,122.5C 103.833,121.167 103.167,119.833 102.5,118.5 Z"/></g>
<g><path style="opacity:1" fill="#e1e1e1" d="M 118.5,124.5 C 118.185,128.371 118.518,132.038 119.5,135.5C 119.5,135.833 119.5,136.167 119.5,136.5C 118.833,136.5 118.167,136.5 117.5,136.5C 117.183,132.298 117.517,128.298 118.5,124.5 Z"/></g>
<g><path style="opacity:1" fill="#f5f5f5" d="M 164.5,116.5 C 163.972,117.721 163.305,118.887 162.5,120C 159.198,121.026 155.865,121.86 152.5,122.5C 150.251,123.08 148.585,124.413 147.5,126.5C 142.756,126.543 138.756,128.21 135.5,131.5C 129.806,131.702 124.472,133.035 119.5,135.5C 118.92,131.351 119.586,127.684 121.5,124.5C 121.244,126.792 121.577,128.959 122.5,131C 126.504,131.144 130.504,130.811 134.5,130C 135.167,129 135.833,128 136.5,127C 139.753,125.964 143.086,125.297 146.5,125C 149.592,121.263 153.592,119.597 158.5,120C 160.405,118.579 162.405,117.412 164.5,116.5 Z"/></g>
<g><path style="opacity:1" fill="#f5f5f5" d="M 210.5,134.5 C 210.795,132.265 210.461,130.265 209.5,128.5C 208.833,128.5 208.5,128.167 208.5,127.5C 204.994,126.502 201.328,126.502 197.5,127.5C 197.5,128.5 197.5,129.5 197.5,130.5C 194.627,130.802 191.961,131.469 189.5,132.5C 185.817,131.68 183.483,133.013 182.5,136.5C 182.167,136.5 181.833,136.5 181.5,136.5C 179.708,136.366 178.042,136.699 176.5,137.5C 173.412,137.639 170.745,138.639 168.5,140.5C 169.29,139.206 170.29,138.039 171.5,137C 174.789,136.118 178.123,135.452 181.5,135C 182.167,134 182.833,133 183.5,132C 186.753,130.964 190.086,130.297 193.5,130C 198.01,125.802 203.343,124.469 209.5,126C 211.673,128.698 212.006,131.531 210.5,134.5 Z"/></g>
<g><path style="opacity:1" fill="#e6e6e6" d="M 164.5,116.5 C 166.5,116.5 168.5,116.5 170.5,116.5C 170.5,116.833 170.5,117.167 170.5,117.5C 167.148,119.176 163.814,120.843 160.5,122.5C 152.414,126.024 144.081,129.024 135.5,131.5C 138.756,128.21 142.756,126.543 147.5,126.5C 150.204,126.33 151.871,124.997 152.5,122.5C 155.865,121.86 159.198,121.026 162.5,120C 163.305,118.887 163.972,117.721 164.5,116.5 Z"/></g>
<g><path style="opacity:1" fill="#dedede" d="M 203.5,128.5 C 204.919,127.549 206.585,127.216 208.5,127.5C 208.5,128.167 208.833,128.5 209.5,128.5C 209.88,130.698 209.213,132.365 207.5,133.5C 209.263,129.584 207.929,127.917 203.5,128.5 Z"/></g>
<g><path style="opacity:1" fill="#f4f4f4" d="M 176.5,124.5 C 175.977,126.708 174.644,128.208 172.5,129C 169.854,129.497 167.187,129.664 164.5,129.5C 168.667,128.422 172.667,126.755 176.5,124.5 Z"/></g>
<g><path style="opacity:1" fill="#e6e6e6" d="M 181.5,120.5 C 182.167,120.5 182.833,120.5 183.5,120.5C 183.167,121.167 182.833,121.833 182.5,122.5C 180.102,122.259 178.102,122.926 176.5,124.5C 172.667,126.755 168.667,128.422 164.5,129.5C 161.646,130.026 158.979,131.026 156.5,132.5C 156.937,130.926 157.937,129.759 159.5,129C 161.852,128.76 163.852,127.927 165.5,126.5C 166.5,126.5 167.5,126.5 168.5,126.5C 171.417,124.643 174.417,122.976 177.5,121.5C 177.833,121.5 178.167,121.5 178.5,121.5C 179.791,121.737 180.791,121.404 181.5,120.5 Z"/></g>
<g><path style="opacity:1" fill="#d2d2d2" d="M 203.5,128.5 C 207.929,127.917 209.263,129.584 207.5,133.5C 206.5,133.833 205.833,134.5 205.5,135.5C 204.167,135.833 202.833,136.167 201.5,136.5C 202.234,135.292 202.567,133.959 202.5,132.5C 201.167,132.5 199.833,132.5 198.5,132.5C 199.353,130.107 201.019,128.774 203.5,128.5 Z"/></g>
<g><path style="opacity:1" fill="#e6e6e6" d="M 208.5,127.5 C 206.585,127.216 204.919,127.549 203.5,128.5C 201.019,128.774 199.353,130.107 198.5,132.5C 198.167,132.5 197.833,132.5 197.5,132.5C 194.833,132.5 192.167,132.5 189.5,132.5C 191.961,131.469 194.627,130.802 197.5,130.5C 197.5,129.5 197.5,128.5 197.5,127.5C 201.328,126.502 204.994,126.502 208.5,127.5 Z"/></g>
<g><path style="opacity:1" fill="#eaeaea" d="M 135.5,131.5 C 132.239,132.319 129.239,133.819 126.5,136C 124.19,136.497 121.857,136.663 119.5,136.5C 119.5,136.167 119.5,135.833 119.5,135.5C 124.472,133.035 129.806,131.702 135.5,131.5 Z"/></g>
<g><path style="opacity:1" fill="#ededed" d="M 189.5,132.5 C 187.337,134.083 185.004,135.416 182.5,136.5C 183.483,133.013 185.817,131.68 189.5,132.5 Z"/></g>
<g><path style="opacity:1" fill="#cdcdcd" d="M 197.5,132.5 C 197.833,132.5 198.167,132.5 198.5,132.5C 199.833,132.5 201.167,132.5 202.5,132.5C 202.567,133.959 202.234,135.292 201.5,136.5C 201.167,136.5 200.833,136.5 200.5,136.5C 197.663,134.598 194.329,133.931 190.5,134.5C 192.833,133.833 195.167,133.167 197.5,132.5 Z"/></g>
<g><path style="opacity:1" fill="#e9e9e9" d="M 209.5,128.5 C 210.461,130.265 210.795,132.265 210.5,134.5C 208.596,134.738 207.262,135.738 206.5,137.5C 205.833,137.5 205.167,137.5 204.5,137.5C 204.833,136.833 205.167,136.167 205.5,135.5C 205.833,134.5 206.5,133.833 207.5,133.5C 209.213,132.365 209.88,130.698 209.5,128.5 Z"/></g>
<g><path style="opacity:1" fill="#dedede" d="M 189.5,132.5 C 192.167,132.5 194.833,132.5 197.5,132.5C 195.167,133.167 192.833,133.833 190.5,134.5C 187.817,136.336 184.817,137.336 181.5,137.5C 181.5,137.167 181.5,136.833 181.5,136.5C 181.833,136.5 182.167,136.5 182.5,136.5C 185.004,135.416 187.337,134.083 189.5,132.5 Z"/></g>
<g><path style="opacity:1" fill="#d0d0d0" d="M 133.5,134.5 C 133.833,135.5 134.5,136.167 135.5,136.5C 134.391,137.29 133.058,137.79 131.5,138C 131.026,139.729 130.026,140.895 128.5,141.5C 129.494,139.146 128.494,138.146 125.5,138.5C 128.395,137.6 131.062,136.267 133.5,134.5 Z"/></g>
<g><path style="opacity:1" fill="#e5e5e5" d="M 156.5,132.5 C 152.284,133.638 148.284,135.471 144.5,138C 141.854,138.497 139.187,138.664 136.5,138.5C 141.224,137.811 145.557,135.977 149.5,133C 151.81,132.503 154.143,132.337 156.5,132.5 Z"/></g>
<g><path style="opacity:1" fill="#c8c8c8" d="M 190.5,134.5 C 194.329,133.931 197.663,134.598 200.5,136.5C 197.119,136.46 193.786,136.793 190.5,137.5C 190.5,136.5 190.5,135.5 190.5,134.5 Z"/></g>
<g><path style="opacity:1" fill="#f5f5f5" d="M 210.5,134.5 C 210.475,137.179 209.142,138.512 206.5,138.5C 206.5,138.167 206.5,137.833 206.5,137.5C 207.262,135.738 208.596,134.738 210.5,134.5 Z"/></g>
<g><path style="opacity:1" fill="#d7d7d7" d="M 160.5,122.5 C 158.811,123.304 157.145,124.304 155.5,125.5C 158.768,126.487 162.102,126.82 165.5,126.5C 163.852,127.927 161.852,128.76 159.5,129C 157.937,129.759 156.937,130.926 156.5,132.5C 154.143,132.337 151.81,132.503 149.5,133C 145.557,135.977 141.224,137.811 136.5,138.5C 135.167,138.5 133.833,138.5 132.5,138.5C 132.567,139.959 132.234,141.292 131.5,142.5C 129.833,142.5 128.167,142.5 126.5,142.5C 126.842,141.662 127.508,141.328 128.5,141.5C 130.026,140.895 131.026,139.729 131.5,138C 133.058,137.79 134.391,137.29 135.5,136.5C 135.833,136.5 136.167,136.5 136.5,136.5C 138.621,136.675 140.621,136.341 142.5,135.5C 143.833,134.833 144.833,133.833 145.5,132.5C 148.456,131.863 151.456,131.363 154.5,131C 154.957,130.586 155.291,130.086 155.5,129.5C 151.488,128.302 147.488,128.302 143.5,129.5C 142.071,131.69 140.071,133.024 137.5,133.5C 135.901,133.232 134.568,133.566 133.5,134.5C 131.062,136.267 128.395,137.6 125.5,138.5C 123.143,138.663 120.81,138.497 118.5,138C 117.944,137.617 117.611,137.117 117.5,136.5C 118.167,136.5 118.833,136.5 119.5,136.5C 121.857,136.663 124.19,136.497 126.5,136C 129.239,133.819 132.239,132.319 135.5,131.5C 144.081,129.024 152.414,126.024 160.5,122.5 Z"/></g>
<g><path style="opacity:1" fill="#c2c2c2" d="M 133.5,134.5 C 135.857,134.337 138.19,134.503 140.5,135C 138.942,135.21 137.609,135.71 136.5,136.5C 136.167,136.5 135.833,136.5 135.5,136.5C 134.5,136.167 133.833,135.5 133.5,134.5 Z"/></g>
<g><path style="opacity:1" fill="#cacaca" d="M 133.5,134.5 C 134.568,133.566 135.901,133.232 137.5,133.5C 139.781,133.077 141.448,133.744 142.5,135.5C 140.621,136.341 138.621,136.675 136.5,136.5C 137.609,135.71 138.942,135.21 140.5,135C 138.19,134.503 135.857,134.337 133.5,134.5 Z"/></g>
<g><path style="opacity:1" fill="#c9c9c9" d="M 145.5,132.5 C 144.094,132.027 143.427,131.027 143.5,129.5C 147.488,128.302 151.488,128.302 155.5,129.5C 155.291,130.086 154.957,130.586 154.5,131C 151.456,131.363 148.456,131.863 145.5,132.5 Z"/></g>
<g><path style="opacity:1" fill="#d0d0d0" d="M 143.5,129.5 C 143.427,131.027 144.094,132.027 145.5,132.5C 144.833,133.833 143.833,134.833 142.5,135.5C 141.448,133.744 139.781,133.077 137.5,133.5C 140.071,133.024 142.071,131.69 143.5,129.5 Z"/></g>
<g><path style="opacity:1" fill="#d4d4d4" d="M 190.5,134.5 C 190.5,135.5 190.5,136.5 190.5,137.5C 193.786,136.793 197.119,136.46 200.5,136.5C 197.861,137.246 195.194,138.246 192.5,139.5C 191.702,139.957 191.369,140.624 191.5,141.5C 187.686,142.368 184.019,143.368 180.5,144.5C 178.938,144.733 177.605,145.4 176.5,146.5C 176.5,145.5 176.5,144.5 176.5,143.5C 174.167,143.5 171.833,143.5 169.5,143.5C 172.361,142.66 175.027,141.327 177.5,139.5C 178.973,142.247 181.306,143.081 184.5,142C 186.384,141.784 188.051,141.117 189.5,140C 187.063,138.625 184.397,138.125 181.5,138.5C 181.5,138.167 181.5,137.833 181.5,137.5C 184.817,137.336 187.817,136.336 190.5,134.5 Z"/></g>
<g><path style="opacity:1" fill="#e1e1e1" d="M 205.5,135.5 C 205.167,136.167 204.833,136.833 204.5,137.5C 201.834,137.933 199.168,138.433 196.5,139C 195.058,139.377 194.058,140.21 193.5,141.5C 192.833,141.5 192.167,141.5 191.5,141.5C 191.369,140.624 191.702,139.957 192.5,139.5C 195.194,138.246 197.861,137.246 200.5,136.5C 200.833,136.5 201.167,136.5 201.5,136.5C 202.833,136.167 204.167,135.833 205.5,135.5 Z"/></g>
<g><path style="opacity:1" fill="#eeeeee" d="M 204.5,137.5 C 205.167,137.5 205.833,137.5 206.5,137.5C 206.5,137.833 206.5,138.167 206.5,138.5C 204.5,138.833 202.5,139.167 200.5,139.5C 197.767,139.703 195.434,140.703 193.5,142.5C 193.5,142.167 193.5,141.833 193.5,141.5C 194.058,140.21 195.058,139.377 196.5,139C 199.168,138.433 201.834,137.933 204.5,137.5 Z"/></g>
<g><path style="opacity:1" fill="#f6f6f6" d="M 109.5,124.5 C 110.497,143.659 110.83,162.993 110.5,182.5C 109.209,182.737 108.209,182.404 107.5,181.5C 108.497,181.53 109.164,181.03 109.5,180C 108.833,178.667 108.167,177.333 107.5,176C 108.474,173.579 109.14,171.079 109.5,168.5C 106.833,159.833 106.833,151.167 109.5,142.5C 109.14,139.921 108.474,137.421 107.5,135C 108.975,131.65 109.642,128.15 109.5,124.5 Z"/></g>
<g><path style="opacity:1" fill="#cdcdcd" d="M 181.5,138.5 C 184.397,138.125 187.063,138.625 189.5,140C 188.051,141.117 186.384,141.784 184.5,142C 181.306,143.081 178.973,142.247 177.5,139.5C 178.568,138.566 179.901,138.232 181.5,138.5 Z"/></g>
<g><path style="opacity:1" fill="#c2c2c2" d="M 180.5,139.5 C 182.857,139.337 185.19,139.503 187.5,140C 185.444,140.311 183.444,140.811 181.5,141.5C 180.702,141.043 180.369,140.376 180.5,139.5 Z"/></g>
<g><path style="opacity:1" fill="#f5f5f5" d="M 200.5,139.5 C 196.924,143.885 192.257,145.552 186.5,144.5C 188.657,143.593 190.99,142.927 193.5,142.5C 195.434,140.703 197.767,139.703 200.5,139.5 Z"/></g>
<g><path style="opacity:1" fill="#e6e6e6" d="M 136.5,138.5 C 135.415,140.587 133.749,141.92 131.5,142.5C 132.234,141.292 132.567,139.959 132.5,138.5C 133.833,138.5 135.167,138.5 136.5,138.5 Z"/></g>
<g><path style="opacity:1" fill="#f4f4f4" d="M 162.5,141.5 C 162.167,142.167 161.833,142.833 161.5,143.5C 160.167,143.5 159.5,144.167 159.5,145.5C 158.5,145.5 157.5,145.5 156.5,145.5C 157.122,142.224 159.122,140.891 162.5,141.5 Z"/></g>
<g><path style="opacity:1" fill="#ececec" d="M 176.5,137.5 C 172.314,141.149 167.314,143.149 161.5,143.5C 161.833,142.833 162.167,142.167 162.5,141.5C 164.621,141.675 166.621,141.341 168.5,140.5C 170.745,138.639 173.412,137.639 176.5,137.5 Z"/></g>
<g><path style="opacity:1" fill="#e7e7e7" d="M 191.5,141.5 C 192.167,141.5 192.833,141.5 193.5,141.5C 193.5,141.833 193.5,142.167 193.5,142.5C 190.99,142.927 188.657,143.593 186.5,144.5C 185.508,144.328 184.842,144.662 184.5,145.5C 182.315,145.704 180.315,146.37 178.5,147.5C 179.167,146.5 179.833,145.5 180.5,144.5C 184.019,143.368 187.686,142.368 191.5,141.5 Z"/></g>
<g><path style="opacity:1" fill="#e8e8e8" d="M 161.5,143.5 C 161.5,144.167 161.5,144.833 161.5,145.5C 160.833,145.5 160.167,145.5 159.5,145.5C 159.5,144.167 160.167,143.5 161.5,143.5 Z"/></g>
<g><path style="opacity:1" fill="#e0e0e0" d="M 181.5,136.5 C 181.5,136.833 181.5,137.167 181.5,137.5C 181.5,137.833 181.5,138.167 181.5,138.5C 179.901,138.232 178.568,138.566 177.5,139.5C 175.027,141.327 172.361,142.66 169.5,143.5C 167.901,143.232 166.568,143.566 165.5,144.5C 164.167,144.833 162.833,145.167 161.5,145.5C 161.5,144.833 161.5,144.167 161.5,143.5C 167.314,143.149 172.314,141.149 176.5,137.5C 178.042,136.699 179.708,136.366 181.5,136.5 Z"/></g>
<g><path style="opacity:1" fill="#cdcdcd" d="M 169.5,143.5 C 171.833,143.5 174.167,143.5 176.5,143.5C 176.5,144.5 176.5,145.5 176.5,146.5C 175.167,146.5 173.833,146.5 172.5,146.5C 171.081,147.451 169.415,147.784 167.5,147.5C 164.752,147.598 164.086,146.598 165.5,144.5C 166.568,143.566 167.901,143.232 169.5,143.5 Z"/></g>
<g><path style="opacity:1" fill="#e8e8e8" d="M 126.5,142.5 C 128.167,142.5 129.833,142.5 131.5,142.5C 129.438,143.776 127.104,144.61 124.5,145C 123.636,146.697 122.303,147.863 120.5,148.5C 119.516,151.428 119.183,154.428 119.5,157.5C 124.203,157.563 128.87,157.229 133.5,156.5C 133.167,157.167 132.833,157.833 132.5,158.5C 131.833,158.5 131.167,158.5 130.5,158.5C 128.379,158.325 126.379,158.659 124.5,159.5C 122.856,159.286 121.356,159.62 120,160.5C 118.663,156.974 118.163,153.308 118.5,149.5C 118.539,148.417 118.873,147.417 119.5,146.5C 121.887,145.08 124.22,143.747 126.5,142.5 Z"/></g>
<g><path style="opacity:1" fill="#c4c4c4" d="M 172.5,146.5 C 171.022,146.762 169.689,146.429 168.5,145.5C 170.074,144.369 171.741,144.202 173.5,145C 172.944,145.383 172.611,145.883 172.5,146.5 Z"/></g>
<g><path style="opacity:1" fill="#f4f4f4" d="M 164.5,129.5 C 163.972,130.721 163.305,131.887 162.5,133C 156.822,133.436 151.822,135.436 147.5,139C 144.833,139.333 142.167,139.667 139.5,140C 135.957,143.587 131.624,145.587 126.5,146C 117.534,154.277 118.867,157.277 130.5,155C 133.07,151.882 136.404,150.715 140.5,151.5C 138.401,152.612 136.067,153.279 133.5,153.5C 133.5,154.5 133.5,155.5 133.5,156.5C 128.87,157.229 124.203,157.563 119.5,157.5C 119.183,154.428 119.516,151.428 120.5,148.5C 122.303,147.863 123.636,146.697 124.5,145C 127.104,144.61 129.438,143.776 131.5,142.5C 133.749,141.92 135.415,140.587 136.5,138.5C 139.187,138.664 141.854,138.497 144.5,138C 148.284,135.471 152.284,133.638 156.5,132.5C 158.979,131.026 161.646,130.026 164.5,129.5 Z"/></g>
<g><path style="opacity:1" fill="#d0d0d0" d="M 165.5,144.5 C 164.086,146.598 164.752,147.598 167.5,147.5C 165.518,150.137 162.852,151.47 159.5,151.5C 159.918,150.778 160.584,150.278 161.5,150C 159.527,149.505 157.527,149.338 155.5,149.5C 157.042,148.837 158.709,148.17 160.5,147.5C 160.863,146.817 161.196,146.15 161.5,145.5C 162.833,145.167 164.167,144.833 165.5,144.5 Z"/></g>
<g><path style="opacity:1" fill="#d9d9d9" d="M 126.5,142.5 C 124.22,143.747 121.887,145.08 119.5,146.5C 118.873,147.417 118.539,148.417 118.5,149.5C 118.167,149.5 117.833,149.5 117.5,149.5C 117.908,144.105 120.908,141.772 126.5,142.5 Z"/></g>
<g><path style="opacity:1" fill="#f2f2f2" d="M 156.5,145.5 C 154.739,146.313 153.072,147.313 151.5,148.5C 149.938,148.733 148.605,149.4 147.5,150.5C 145.194,150.993 142.861,151.326 140.5,151.5C 144.709,146.99 150.042,144.99 156.5,145.5 Z"/></g>
<g><path style="opacity:1" fill="#e6e6e6" d="M 156.5,145.5 C 157.5,145.5 158.5,145.5 159.5,145.5C 157.302,147.397 154.636,148.397 151.5,148.5C 153.072,147.313 154.739,146.313 156.5,145.5 Z"/></g>
<g><path style="opacity:1" fill="#f3f3f3" d="M 210.5,151.5 C 210.167,151.5 209.833,151.5 209.5,151.5C 208.054,150.387 206.387,150.22 204.5,151C 198.796,152.958 193.129,154.791 187.5,156.5C 188.972,154.866 190.638,153.366 192.5,152C 198.035,152.214 202.701,150.38 206.5,146.5C 209.351,147.012 210.684,148.679 210.5,151.5 Z"/></g>
<g><path style="opacity:1" fill="#cacaca" d="M 116.5,123.5 C 116.182,128.032 116.515,132.366 117.5,136.5C 117.611,137.117 117.944,137.617 118.5,138C 120.81,138.497 123.143,138.663 125.5,138.5C 128.494,138.146 129.494,139.146 128.5,141.5C 127.508,141.328 126.842,141.662 126.5,142.5C 120.908,141.772 117.908,144.105 117.5,149.5C 116.109,153.769 116.276,158.102 118,162.5C 120.381,163.435 122.881,163.768 125.5,163.5C 125.5,164.5 125.5,165.5 125.5,166.5C 124.833,166.5 124.167,166.5 123.5,166.5C 121.019,165.242 118.519,163.908 116,162.5C 115.333,157.167 115.333,151.833 116,146.5C 116.707,144.919 117.54,143.419 118.5,142C 129.113,140.244 128.779,139.244 117.5,139C 117,138.5 116.5,138 116,137.5C 115.185,132.648 115.352,127.981 116.5,123.5 Z"/></g>
<g><path style="opacity:1" fill="#cfcfcf" d="M 109.5,121.5 C 110.167,121.5 110.833,121.5 111.5,121.5C 112.117,121.611 112.617,121.944 113,122.5C 113.5,142.497 113.667,162.497 113.5,182.5C 113.167,182.5 112.833,182.5 112.5,182.5C 112.667,163.164 112.5,143.83 112,124.5C 110.955,123.627 110.122,122.627 109.5,121.5 Z"/></g>
<g><path style="opacity:1" fill="#d9d9d9" d="M 180.5,144.5 C 179.833,145.5 179.167,146.5 178.5,147.5C 175.219,147.42 172.219,148.087 169.5,149.5C 167.745,150.072 166.078,150.906 164.5,152C 162.527,152.495 160.527,152.662 158.5,152.5C 158.5,152.167 158.5,151.833 158.5,151.5C 158.833,151.5 159.167,151.5 159.5,151.5C 162.852,151.47 165.518,150.137 167.5,147.5C 169.415,147.784 171.081,147.451 172.5,146.5C 173.833,146.5 175.167,146.5 176.5,146.5C 177.605,145.4 178.938,144.733 180.5,144.5 Z"/></g>
<g><path style="opacity:1" fill="#e7e7e7" d="M 178.5,147.5 C 175.829,149.118 172.829,149.785 169.5,149.5C 172.219,148.087 175.219,147.42 178.5,147.5 Z"/></g>
<g><path style="opacity:1" fill="#c4c4c4" d="M 155.5,149.5 C 157.527,149.338 159.527,149.505 161.5,150C 160.584,150.278 159.918,150.778 159.5,151.5C 159.167,151.5 158.833,151.5 158.5,151.5C 157.127,151.657 155.793,151.49 154.5,151C 155.056,150.617 155.389,150.117 155.5,149.5 Z"/></g>
<g><path style="opacity:1" fill="#cecece" d="M 155.5,149.5 C 155.389,150.117 155.056,150.617 154.5,151C 155.793,151.49 157.127,151.657 158.5,151.5C 158.5,151.833 158.5,152.167 158.5,152.5C 158.5,153.167 158.167,153.5 157.5,153.5C 155.833,153.5 154.167,153.5 152.5,153.5C 152.5,154.5 152.5,155.5 152.5,156.5C 145.89,157.133 139.89,159.133 134.5,162.5C 131.278,162.892 128.278,162.392 125.5,161C 127.315,160.243 128.981,159.41 130.5,158.5C 131.167,158.5 131.833,158.5 132.5,158.5C 135.034,158.741 136.7,157.741 137.5,155.5C 141.048,154.241 144.715,153.407 148.5,153C 149.803,149.956 152.136,148.789 155.5,149.5 Z"/></g>
<g><path style="opacity:1" fill="#f4f4f4" d="M 184.5,145.5 C 184.489,147.017 183.823,148.184 182.5,149C 177.433,149.006 173.1,150.673 169.5,154C 166.207,154.826 162.874,155.326 159.5,155.5C 162.335,153.587 165.668,152.587 169.5,152.5C 169.5,151.5 169.5,150.5 169.5,149.5C 172.829,149.785 175.829,149.118 178.5,147.5C 180.315,146.37 182.315,145.704 184.5,145.5 Z"/></g>
<g><path style="opacity:1" fill="#e6e6e6" d="M 147.5,150.5 C 144.001,151.871 140.667,153.538 137.5,155.5C 136.292,156.234 134.959,156.567 133.5,156.5C 133.5,155.5 133.5,154.5 133.5,153.5C 136.067,153.279 138.401,152.612 140.5,151.5C 142.861,151.326 145.194,150.993 147.5,150.5 Z"/></g>
<g><path style="opacity:1" fill="#d9d9d9" d="M 159.5,145.5 C 160.167,145.5 160.833,145.5 161.5,145.5C 161.196,146.15 160.863,146.817 160.5,147.5C 158.709,148.17 157.042,148.837 155.5,149.5C 152.136,148.789 149.803,149.956 148.5,153C 144.715,153.407 141.048,154.241 137.5,155.5C 140.667,153.538 144.001,151.871 147.5,150.5C 148.605,149.4 149.938,148.733 151.5,148.5C 154.636,148.397 157.302,147.397 159.5,145.5 Z"/></g>
<g><path style="opacity:1" fill="#d9d9d9" d="M 157.5,153.5 C 155.78,154.308 154.113,155.308 152.5,156.5C 152.5,155.5 152.5,154.5 152.5,153.5C 154.167,153.5 155.833,153.5 157.5,153.5 Z"/></g>
<g><path style="opacity:1" fill="#c9c9c9" d="M 199.5,154.5 C 202.247,154.187 204.914,154.52 207.5,155.5C 206.15,156.95 204.484,157.617 202.5,157.5C 199.433,157.879 198.433,156.879 199.5,154.5 Z"/></g>
<g><path style="opacity:1" fill="#c3c3c3" d="M 143.5,154.5 C 144.978,154.238 146.311,154.571 147.5,155.5C 145.579,156.641 143.579,156.808 141.5,156C 142.416,155.722 143.082,155.222 143.5,154.5 Z"/></g>
<g><path style="opacity:1" fill="#e7e7e7" d="M 169.5,149.5 C 169.5,150.5 169.5,151.5 169.5,152.5C 165.668,152.587 162.335,153.587 159.5,155.5C 155.738,157.372 151.738,158.705 147.5,159.5C 149.072,158.313 150.739,157.313 152.5,156.5C 154.113,155.308 155.78,154.308 157.5,153.5C 158.167,153.5 158.5,153.167 158.5,152.5C 160.527,152.662 162.527,152.495 164.5,152C 166.078,150.906 167.745,150.072 169.5,149.5 Z"/></g>
<g><path style="opacity:1" fill="#d9d9d9" d="M 197.5,155.5 C 197.047,156.458 196.381,157.292 195.5,158C 192.487,158.502 189.487,159.002 186.5,159.5C 186.167,159.5 185.833,159.5 185.5,159.5C 189.368,157.864 193.368,156.531 197.5,155.5 Z"/></g>
<g><path style="opacity:1" fill="#d9d9d9" d="M 137.5,155.5 C 136.7,157.741 135.034,158.741 132.5,158.5C 132.833,157.833 133.167,157.167 133.5,156.5C 134.959,156.567 136.292,156.234 137.5,155.5 Z"/></g>
<g><path style="opacity:1" fill="#e5e5e5" d="M 209.5,151.5 C 209.5,152.5 209.5,153.5 209.5,154.5C 208.735,153.34 207.735,152.34 206.5,151.5C 203.873,152.058 201.54,153.058 199.5,154.5C 198.508,154.328 197.842,154.662 197.5,155.5C 193.368,156.531 189.368,157.864 185.5,159.5C 183.348,161.778 180.681,163.112 177.5,163.5C 177.167,163.5 176.833,163.5 176.5,163.5C 176.5,163.167 176.5,162.833 176.5,162.5C 176.5,162.167 176.5,161.833 176.5,161.5C 180.01,159.58 183.677,157.913 187.5,156.5C 193.129,154.791 198.796,152.958 204.5,151C 206.387,150.22 208.054,150.387 209.5,151.5 Z"/></g>
<g><path style="opacity:1" fill="#dddddd" d="M 152.5,156.5 C 150.739,157.313 149.072,158.313 147.5,159.5C 146.833,159.5 146.167,159.5 145.5,159.5C 141.84,160.82 138.174,162.153 134.5,163.5C 134.5,163.167 134.5,162.833 134.5,162.5C 139.89,159.133 145.89,157.133 152.5,156.5 Z"/></g>
<g><path style="opacity:1" fill="#f2f2f2" d="M 187.5,156.5 C 183.677,157.913 180.01,159.58 176.5,161.5C 178.714,157.05 182.381,155.384 187.5,156.5 Z"/></g>
<g><path style="opacity:1" fill="#cdcdcd" d="M 199.5,154.5 C 198.433,156.879 199.433,157.879 202.5,157.5C 199.78,159.527 196.78,161.193 193.5,162.5C 191.08,162.292 188.747,162.626 186.5,163.5C 185.374,162.192 185.374,160.858 186.5,159.5C 189.487,159.002 192.487,158.502 195.5,158C 196.381,157.292 197.047,156.458 197.5,155.5C 197.842,154.662 198.508,154.328 199.5,154.5 Z"/></g>
<g><path style="opacity:1" fill="#d7d7d7" d="M 209.5,154.5 C 209.489,156.017 208.823,157.184 207.5,158C 202.636,158.782 198.302,160.615 194.5,163.5C 194.167,163.5 193.833,163.5 193.5,163.5C 193.5,163.167 193.5,162.833 193.5,162.5C 196.78,161.193 199.78,159.527 202.5,157.5C 204.484,157.617 206.15,156.95 207.5,155.5C 204.914,154.52 202.247,154.187 199.5,154.5C 201.54,153.058 203.873,152.058 206.5,151.5C 207.735,152.34 208.735,153.34 209.5,154.5 Z"/></g>
<g><path style="opacity:1" fill="#e2e2e2" d="M 117.5,149.5 C 117.833,149.5 118.167,149.5 118.5,149.5C 118.163,153.308 118.663,156.974 120,160.5C 121.356,159.62 122.856,159.286 124.5,159.5C 122.799,161.423 120.799,161.757 118.5,160.5C 117.574,156.906 117.241,153.24 117.5,149.5 Z"/></g>
<g><path style="opacity:1" fill="#d3d3d3" d="M 117.5,149.5 C 117.241,153.24 117.574,156.906 118.5,160.5C 120.799,161.757 122.799,161.423 124.5,159.5C 126.379,158.659 128.379,158.325 130.5,158.5C 128.981,159.41 127.315,160.243 125.5,161C 128.278,162.392 131.278,162.892 134.5,162.5C 134.5,162.833 134.5,163.167 134.5,163.5C 133.833,163.5 133.167,163.5 132.5,163.5C 129.325,162.909 126.991,163.909 125.5,166.5C 125.5,165.5 125.5,164.5 125.5,163.5C 122.881,163.768 120.381,163.435 118,162.5C 116.276,158.102 116.109,153.769 117.5,149.5 Z"/></g>
<g><path style="opacity:1" fill="#f4f4f4" d="M 159.5,155.5 C 159.489,157.017 158.823,158.184 157.5,159C 154.211,159.882 150.877,160.548 147.5,161C 143.936,164.481 139.603,165.981 134.5,165.5C 138.566,164.254 142.232,162.254 145.5,159.5C 146.167,159.5 146.833,159.5 147.5,159.5C 151.738,158.705 155.738,157.372 159.5,155.5 Z"/></g>
<g><path style="opacity:1" fill="#d3d3d3" d="M 185.5,159.5 C 185.833,159.5 186.167,159.5 186.5,159.5C 185.374,160.858 185.374,162.192 186.5,163.5C 188.747,162.626 191.08,162.292 193.5,162.5C 193.5,162.833 193.5,163.167 193.5,163.5C 189.464,164.027 185.797,165.36 182.5,167.5C 182.5,167.167 182.5,166.833 182.5,166.5C 184.028,166.483 184.528,165.816 184,164.5C 182.708,163.209 181.542,163.209 180.5,164.5C 179.5,164.5 178.5,164.5 177.5,164.5C 177.5,164.167 177.5,163.833 177.5,163.5C 180.681,163.112 183.348,161.778 185.5,159.5 Z"/></g>
<g><path style="opacity:1" fill="#c2c2c2" d="M 190.5,159.5 C 191.922,159.709 193.255,160.209 194.5,161C 192.167,161.667 189.833,161.667 187.5,161C 188.737,160.768 189.737,160.268 190.5,159.5 Z"/></g>
<g><path style="opacity:1" fill="#f5f5f5" d="M 209.5,159.5 C 206.928,160.724 204.595,162.391 202.5,164.5C 200.218,165.223 197.884,165.557 195.5,165.5C 195.5,165.167 195.5,164.833 195.5,164.5C 200.605,163.646 205.271,161.98 209.5,159.5 Z"/></g>
<g><path style="opacity:1" fill="#cdcdcd" d="M 52.5,93.5 C 52.5,117.833 52.5,142.167 52.5,166.5C 53.8734,166.657 55.2068,166.49 56.5,166C 56,165.5 55.5,165 55,164.5C 54.3333,143.833 54.3333,123.167 55,102.5C 55.2784,101.584 55.7784,100.918 56.5,100.5C 57.791,100.263 58.791,100.596 59.5,101.5C 57.8212,101.285 56.8212,101.952 56.5,103.5C 55.3375,123.329 55.1709,143.329 56,163.5C 57.8864,166.242 60.3864,167.909 63.5,168.5C 65.3792,169.341 67.3792,169.675 69.5,169.5C 69.8333,169.5 70.1667,169.5 70.5,169.5C 72.3827,173.775 75.716,175.442 80.5,174.5C 80.5,174.833 80.5,175.167 80.5,175.5C 78.1432,175.337 75.8098,175.503 73.5,176C 75.0581,176.21 76.3915,176.71 77.5,177.5C 76.1667,177.5 74.8333,177.5 73.5,177.5C 73.1667,177.5 72.8333,177.5 72.5,177.5C 71.36,176.199 70.0267,175.032 68.5,174C 62.1097,173.485 56.443,171.318 51.5,167.5C 51.169,142.661 51.5023,117.994 52.5,93.5 Z"/></g>
<g><path style="opacity:1" fill="#ececec" d="M 60.5,162.5 C 61.1667,162.5 61.8333,162.5 62.5,162.5C 63.2702,164.935 64.9368,166.269 67.5,166.5C 68.1667,166.5 68.8333,166.5 69.5,166.5C 72.0094,167.921 74.3428,169.588 76.5,171.5C 75.391,171.443 74.391,171.11 73.5,170.5C 72.609,169.89 71.609,169.557 70.5,169.5C 70.1667,169.5 69.8333,169.5 69.5,169.5C 67.5201,167.895 65.1868,166.728 62.5,166C 61.1772,165.184 60.5106,164.017 60.5,162.5 Z"/></g>
<g><path style="opacity:1" fill="#f6f6f6" d="M 62.5,162.5 C 64.7488,163.08 66.4154,164.413 67.5,166.5C 64.9368,166.269 63.2702,164.935 62.5,162.5 Z"/></g>
<g><path style="opacity:1" fill="#e9e9e9" d="M 209.5,151.5 C 209.833,151.5 210.167,151.5 210.5,151.5C 210.721,154.279 210.388,156.946 209.5,159.5C 205.271,161.98 200.605,163.646 195.5,164.5C 195.167,164.5 194.833,164.5 194.5,164.5C 194.5,164.167 194.5,163.833 194.5,163.5C 198.302,160.615 202.636,158.782 207.5,158C 208.823,157.184 209.489,156.017 209.5,154.5C 209.5,153.5 209.5,152.5 209.5,151.5 Z"/></g>
<g><path style="opacity:1" fill="#d8d8d8" d="M 132.5,163.5 C 129.286,165.937 125.619,167.604 121.5,168.5C 121.833,167.833 122.167,167.167 122.5,166.5C 122.833,166.5 123.167,166.5 123.5,166.5C 124.167,166.5 124.833,166.5 125.5,166.5C 126.991,163.909 129.325,162.909 132.5,163.5 Z"/></g>
<g><path style="opacity:1" fill="#cccccc" d="M 180.5,164.5 C 181.542,163.209 182.708,163.209 184,164.5C 184.528,165.816 184.028,166.483 182.5,166.5C 182.167,165.5 181.5,164.833 180.5,164.5 Z"/></g>
<g><path style="opacity:1" fill="#e9e9e9" d="M 176.5,162.5 C 176.5,162.833 176.5,163.167 176.5,163.5C 170.703,165.928 164.703,167.928 158.5,169.5C 156.313,170.758 153.98,171.758 151.5,172.5C 151.5,172.167 151.5,171.833 151.5,171.5C 152.627,170.878 153.627,170.045 154.5,169C 162.146,167.503 169.479,165.336 176.5,162.5 Z"/></g>
<g><path style="opacity:1" fill="#d8d8d8" d="M 176.5,163.5 C 176.833,163.5 177.167,163.5 177.5,163.5C 177.5,163.833 177.5,164.167 177.5,164.5C 176.209,164.263 175.209,164.596 174.5,165.5C 170.688,167.659 166.688,169.326 162.5,170.5C 161.209,170.263 160.209,170.596 159.5,171.5C 158.221,172.968 156.554,173.635 154.5,173.5C 156.139,172.527 157.473,171.194 158.5,169.5C 164.703,167.928 170.703,165.928 176.5,163.5 Z"/></g>
<g><path style="opacity:1" fill="#c4c4c4" d="M 177.5,164.5 C 178.5,164.5 179.5,164.5 180.5,164.5C 181.5,164.833 182.167,165.5 182.5,166.5C 179.615,166.806 176.948,166.473 174.5,165.5C 175.209,164.596 176.209,164.263 177.5,164.5 Z"/></g>
<g><path style="opacity:1" fill="#f6f6f6" d="M 194.5,165.5 C 193.292,168.044 191.292,169.378 188.5,169.5C 190.12,167.587 192.12,166.253 194.5,165.5 Z"/></g>
<g><path style="opacity:1" fill="#f5f5f5" d="M 176.5,161.5 C 176.5,161.833 176.5,162.167 176.5,162.5C 169.479,165.336 162.146,167.503 154.5,169C 153.627,170.045 152.627,170.878 151.5,171.5C 151.572,169.689 152.405,168.356 154,167.5C 156.795,166.815 159.628,166.315 162.5,166C 166.351,162.095 171.018,160.595 176.5,161.5 Z"/></g>
<g><path style="opacity:1" fill="#cecece" d="M 174.5,165.5 C 176.948,166.473 179.615,166.806 182.5,166.5C 182.5,166.833 182.5,167.167 182.5,167.5C 182.167,167.5 181.833,167.5 181.5,167.5C 178.729,167.421 176.063,167.921 173.5,169C 172.692,170.706 171.359,171.539 169.5,171.5C 167.393,170.532 165.059,170.198 162.5,170.5C 166.688,169.326 170.688,167.659 174.5,165.5 Z"/></g>
<g><path style="opacity:1" fill="#f1f1f1" d="M 69.5,166.5 C 73.8603,165.998 77.1936,167.498 79.5,171C 82.0356,171.186 84.369,171.686 86.5,172.5C 87.8062,173.467 88.4729,174.801 88.5,176.5C 86.3078,174.41 83.6412,173.41 80.5,173.5C 79.1667,172.833 77.8333,172.167 76.5,171.5C 74.3428,169.588 72.0094,167.921 69.5,166.5 Z"/></g>
<g><path style="opacity:1" fill="#d0d0d0" d="M 122.5,166.5 C 122.167,167.167 121.833,167.833 121.5,168.5C 120.178,168.33 119.011,168.663 118,169.5C 117.501,173.821 117.334,178.154 117.5,182.5C 116.517,178.702 116.183,174.702 116.5,170.5C 117.487,167.914 119.487,166.581 122.5,166.5 Z"/></g>
<g><path style="opacity:1" fill="#d5d5d5" d="M 181.5,167.5 C 178.547,168.262 175.88,169.595 173.5,171.5C 172.432,172.434 171.099,172.768 169.5,172.5C 169.5,172.167 169.5,171.833 169.5,171.5C 171.359,171.539 172.692,170.706 173.5,169C 176.063,167.921 178.729,167.421 181.5,167.5 Z"/></g>
<g><path style="opacity:1" fill="#e7e7e7" d="M 145.5,159.5 C 142.232,162.254 138.566,164.254 134.5,165.5C 134.167,165.5 133.833,165.5 133.5,165.5C 129.273,168.275 124.606,169.942 119.5,170.5C 120.167,169.833 120.833,169.167 121.5,168.5C 125.619,167.604 129.286,165.937 132.5,163.5C 133.167,163.5 133.833,163.5 134.5,163.5C 138.174,162.153 141.84,160.82 145.5,159.5 Z"/></g>
<g><path style="opacity:1" fill="#e0e0e0" d="M 193.5,163.5 C 193.833,163.5 194.167,163.5 194.5,163.5C 194.5,163.833 194.5,164.167 194.5,164.5C 188.352,167.289 182.019,169.622 175.5,171.5C 174.833,171.5 174.167,171.5 173.5,171.5C 175.88,169.595 178.547,168.262 181.5,167.5C 181.833,167.5 182.167,167.5 182.5,167.5C 185.797,165.36 189.464,164.027 193.5,163.5 Z"/></g>
<g><path style="opacity:1" fill="#e9e9e9" d="M 53.5,170.5 C 54.8333,171.167 55.8333,172.167 56.5,173.5C 54.5,173.5 53.5,172.5 53.5,170.5 Z"/></g>
<g><path style="opacity:1" fill="#d7d7d7" d="M 70.5,169.5 C 71.609,169.557 72.609,169.89 73.5,170.5C 73.5774,171.75 74.244,172.583 75.5,173C 77.1341,173.494 78.8008,173.66 80.5,173.5C 80.5,173.833 80.5,174.167 80.5,174.5C 75.716,175.442 72.3827,173.775 70.5,169.5 Z"/></g>
<g><path style="opacity:1" fill="#c8c8c8" d="M 162.5,170.5 C 165.059,170.198 167.393,170.532 169.5,171.5C 169.5,171.833 169.5,172.167 169.5,172.5C 166.615,172.194 163.948,172.527 161.5,173.5C 160.5,173.167 159.833,172.5 159.5,171.5C 160.209,170.596 161.209,170.263 162.5,170.5 Z"/></g>
<g><path style="opacity:1" fill="#f0f0f0" d="M 194.5,164.5 C 194.833,164.5 195.167,164.5 195.5,164.5C 195.5,164.833 195.5,165.167 195.5,165.5C 195.167,165.5 194.833,165.5 194.5,165.5C 192.12,166.253 190.12,167.587 188.5,169.5C 185.972,170.166 183.306,170.832 180.5,171.5C 177.727,175.009 174.06,176.342 169.5,175.5C 169.167,175.5 168.833,175.5 168.5,175.5C 171.06,174.412 173.394,173.079 175.5,171.5C 182.019,169.622 188.352,167.289 194.5,164.5 Z"/></g>
<g><path style="opacity:1" fill="#dfdfdf" d="M 73.5,170.5 C 74.391,171.11 75.391,171.443 76.5,171.5C 77.8333,172.167 79.1667,172.833 80.5,173.5C 78.8008,173.66 77.1341,173.494 75.5,173C 74.244,172.583 73.5774,171.75 73.5,170.5 Z"/></g>
<g><path style="opacity:1" fill="#d1d1d1" d="M 159.5,171.5 C 159.833,172.5 160.5,173.167 161.5,173.5C 161.068,174.71 160.401,175.71 159.5,176.5C 159.389,175.883 159.056,175.383 158.5,175C 155.518,174.502 152.518,174.335 149.5,174.5C 150.919,173.549 152.585,173.216 154.5,173.5C 156.554,173.635 158.221,172.968 159.5,171.5 Z"/></g>
<g><path style="opacity:1" fill="#dbdbdb" d="M 51.5,167.5 C 56.443,171.318 62.1097,173.485 68.5,174C 70.0267,175.032 71.36,176.199 72.5,177.5C 67.8574,175.088 62.8574,173.755 57.5,173.5C 57.1667,173.5 56.8333,173.5 56.5,173.5C 55.8333,172.167 54.8333,171.167 53.5,170.5C 53.1667,170.5 52.8333,170.5 52.5,170.5C 51.8902,169.609 51.5569,168.609 51.5,167.5 Z"/></g>
<g><path style="opacity:1" fill="#f5f5f5" d="M 86.5,172.5 C 91.3166,175.385 96.6499,177.218 102.5,178C 103.71,179.039 104.71,180.206 105.5,181.5C 103.804,181.315 102.471,180.481 101.5,179C 99.8659,178.506 98.1992,178.34 96.5,178.5C 93.9333,177.525 91.2666,176.858 88.5,176.5C 88.4729,174.801 87.8062,173.467 86.5,172.5 Z"/></g>
<g><path style="opacity:1" fill="#d8d8d8" d="M 169.5,172.5 C 166.165,174.17 162.831,175.837 159.5,177.5C 159.5,177.167 159.5,176.833 159.5,176.5C 160.401,175.71 161.068,174.71 161.5,173.5C 163.948,172.527 166.615,172.194 169.5,172.5 Z"/></g>
<g><path style="opacity:1" fill="#e0e0e0" d="M 121.5,168.5 C 120.833,169.167 120.167,169.833 119.5,170.5C 118.517,174.298 118.183,178.298 118.5,182.5C 118.167,182.5 117.833,182.5 117.5,182.5C 117.334,178.154 117.501,173.821 118,169.5C 119.011,168.663 120.178,168.33 121.5,168.5 Z"/></g>
<g><path style="opacity:1" fill="#e1e1e1" d="M 158.5,169.5 C 157.473,171.194 156.139,172.527 154.5,173.5C 152.585,173.216 150.919,173.549 149.5,174.5C 146.387,174.948 143.72,176.282 141.5,178.5C 140.833,178.5 140.167,178.5 139.5,178.5C 141.5,176.833 143.5,175.167 145.5,173.5C 147.379,172.659 149.379,172.325 151.5,172.5C 153.98,171.758 156.313,170.758 158.5,169.5 Z"/></g>
<g><path style="opacity:1" fill="#cbcbcb" d="M 149.5,174.5 C 152.518,174.335 155.518,174.502 158.5,175C 159.056,175.383 159.389,175.883 159.5,176.5C 159.5,176.833 159.5,177.167 159.5,177.5C 155.846,177.942 152.179,178.276 148.5,178.5C 146.871,176.804 147.204,175.804 149.5,175.5C 149.5,175.167 149.5,174.833 149.5,174.5 Z"/></g>
<g><path style="opacity:1" fill="#f4f4f4" d="M 49.5,169.5 C 50.391,170.11 51.391,170.443 52.5,170.5C 52.8333,170.5 53.1667,170.5 53.5,170.5C 53.5,172.5 54.5,173.5 56.5,173.5C 56.8333,173.5 57.1667,173.5 57.5,173.5C 61.716,174.638 65.716,176.471 69.5,179C 71.1341,179.494 72.8008,179.66 74.5,179.5C 74.5,179.833 74.5,180.167 74.5,180.5C 69.0175,181.405 64.3508,179.905 60.5,176C 56.7273,175.988 53.394,174.821 50.5,172.5C 49.8728,171.583 49.5394,170.583 49.5,169.5 Z"/></g>
<g><path style="opacity:1" fill="#e5e5e5" d="M 57.5,173.5 C 62.8574,173.755 67.8574,175.088 72.5,177.5C 72.8333,177.5 73.1667,177.5 73.5,177.5C 74.5676,178.434 75.901,178.768 77.5,178.5C 77.5,178.833 77.5,179.167 77.5,179.5C 76.5,179.5 75.5,179.5 74.5,179.5C 72.8008,179.66 71.1341,179.494 69.5,179C 65.716,176.471 61.716,174.638 57.5,173.5 Z"/></g>
<g><path style="opacity:1" fill="#c1c1c1" d="M 80.5,175.5 C 80.0269,176.906 79.0269,177.573 77.5,177.5C 76.3915,176.71 75.0581,176.21 73.5,176C 75.8098,175.503 78.1432,175.337 80.5,175.5 Z"/></g>
<g><path style="opacity:1" fill="#d2d2d2" d="M 80.5,174.5 C 84.458,176.37 88.458,178.037 92.5,179.5C 89.3019,178.964 86.6353,179.631 84.5,181.5C 83.0087,178.909 80.6753,177.909 77.5,178.5C 75.901,178.768 74.5676,178.434 73.5,177.5C 74.8333,177.5 76.1667,177.5 77.5,177.5C 79.0269,177.573 80.0269,176.906 80.5,175.5C 80.5,175.167 80.5,174.833 80.5,174.5 Z"/></g>
<g><path style="opacity:1" fill="#d2d2d2" d="M 149.5,174.5 C 149.5,174.833 149.5,175.167 149.5,175.5C 147.204,175.804 146.871,176.804 148.5,178.5C 147.89,179.391 147.557,180.391 147.5,181.5C 147.5,182.167 147.167,182.5 146.5,182.5C 146.167,182.5 145.833,182.5 145.5,182.5C 145.804,181.85 146.137,181.183 146.5,180.5C 144.955,179.548 143.288,179.215 141.5,179.5C 141.5,179.167 141.5,178.833 141.5,178.5C 143.72,176.282 146.387,174.948 149.5,174.5 Z"/></g>
<g><path style="opacity:1" fill="#c1c1c1" d="M 149.5,175.5 C 152.187,175.336 154.854,175.503 157.5,176C 155.236,176.236 153.069,176.736 151,177.5C 150.283,176.956 149.783,176.289 149.5,175.5 Z"/></g>
<g><path style="opacity:1" fill="#e7e7e7" d="M 173.5,171.5 C 174.167,171.5 174.833,171.5 175.5,171.5C 173.394,173.079 171.06,174.412 168.5,175.5C 165.524,176.79 162.524,178.123 159.5,179.5C 158.167,179.5 156.833,179.5 155.5,179.5C 156.833,178.833 158.167,178.167 159.5,177.5C 162.831,175.837 166.165,174.17 169.5,172.5C 171.099,172.768 172.432,172.434 173.5,171.5 Z"/></g>
<g><path style="opacity:1" fill="#f5f5f5" d="M 168.5,175.5 C 168.833,175.5 169.167,175.5 169.5,175.5C 167.065,178.93 163.731,180.596 159.5,180.5C 159.5,180.167 159.5,179.833 159.5,179.5C 162.524,178.123 165.524,176.79 168.5,175.5 Z"/></g>
<g><path style="opacity:1" fill="#f4f4f4" d="M 133.5,165.5 C 133.719,166.675 133.386,167.675 132.5,168.5C 129.616,169.816 126.616,170.816 123.5,171.5C 121.973,174.66 121.307,177.993 121.5,181.5C 124.55,182.077 126.55,180.91 127.5,178C 130.789,177.118 134.123,176.452 137.5,176C 141.312,172.094 145.979,170.594 151.5,171.5C 151.5,171.833 151.5,172.167 151.5,172.5C 149.379,172.325 147.379,172.659 145.5,173.5C 142.722,173.022 140.722,174.022 139.5,176.5C 134.767,177.464 130.433,179.298 126.5,182C 124.19,182.497 121.857,182.663 119.5,182.5C 119.5,178.5 119.5,174.5 119.5,170.5C 124.606,169.942 129.273,168.275 133.5,165.5 Z"/></g>
<g><path style="opacity:1" fill="#e1e1e1" d="M 80.5,174.5 C 80.5,174.167 80.5,173.833 80.5,173.5C 83.6412,173.41 86.3078,174.41 88.5,176.5C 91.2666,176.858 93.9333,177.525 96.5,178.5C 99.292,180.645 102.292,182.311 105.5,183.5C 101.779,183.631 98.4461,182.631 95.5,180.5C 94.791,179.596 93.791,179.263 92.5,179.5C 88.458,178.037 84.458,176.37 80.5,174.5 Z"/></g>
<g><path style="opacity:1" fill="#ededed" d="M 96.5,178.5 C 98.1992,178.34 99.8659,178.506 101.5,179C 102.471,180.481 103.804,181.315 105.5,181.5C 106.167,181.5 106.833,181.5 107.5,181.5C 108.209,182.404 109.209,182.737 110.5,182.5C 109.081,183.451 107.415,183.784 105.5,183.5C 102.292,182.311 99.292,180.645 96.5,178.5 Z"/></g>
<g><path style="opacity:1" fill="#d9d9d9" d="M 159.5,177.5 C 158.167,178.167 156.833,178.833 155.5,179.5C 153.421,179.971 151.421,180.637 149.5,181.5C 148.833,181.5 148.167,181.5 147.5,181.5C 147.557,180.391 147.89,179.391 148.5,178.5C 152.179,178.276 155.846,177.942 159.5,177.5 Z"/></g>
<g><path style="opacity:1" fill="#dfdfdf" d="M 77.5,179.5 C 80.285,178.916 81.9517,179.916 82.5,182.5C 80.7121,181.64 79.0455,180.64 77.5,179.5 Z"/></g>
<g><path style="opacity:1" fill="#cccccc" d="M 92.5,179.5 C 93.791,179.263 94.791,179.596 95.5,180.5C 95.5,181.5 95.5,182.5 95.5,183.5C 93.7085,183.634 92.0418,183.301 90.5,182.5C 90.9175,181.778 91.5842,181.278 92.5,181C 90.5,180.333 88.5,180.333 86.5,181C 87.4158,181.278 88.0825,181.778 88.5,182.5C 86.901,182.768 85.5676,182.434 84.5,181.5C 86.6353,179.631 89.3019,178.964 92.5,179.5 Z"/></g>
<g><path style="opacity:1" fill="#e9e9e9" d="M 119.5,170.5 C 119.5,174.5 119.5,178.5 119.5,182.5C 121.857,182.663 124.19,182.497 126.5,182C 130.433,179.298 134.767,177.464 139.5,176.5C 140.722,174.022 142.722,173.022 145.5,173.5C 143.5,175.167 141.5,176.833 139.5,178.5C 135.174,178.396 131.841,180.063 129.5,183.5C 125.629,183.815 121.962,183.482 118.5,182.5C 118.183,178.298 118.517,174.298 119.5,170.5 Z"/></g>
<g><path style="opacity:1" fill="#eeeeee" d="M 155.5,179.5 C 156.833,179.5 158.167,179.5 159.5,179.5C 159.5,179.833 159.5,180.167 159.5,180.5C 157.784,180.629 156.117,180.962 154.5,181.5C 152.315,181.704 150.315,182.37 148.5,183.5C 148.833,182.833 149.167,182.167 149.5,181.5C 151.421,180.637 153.421,179.971 155.5,179.5 Z"/></g>
<g><path style="opacity:1" fill="#f5f5f5" d="M 74.5,180.5 C 79.3276,182.956 84.3276,184.956 89.5,186.5C 86.1606,186.11 82.8273,185.61 79.5,185C 77.3395,184.004 75.6728,182.504 74.5,180.5 Z"/></g>
<g><path style="opacity:1" fill="#d5d5d5" d="M 77.5,179.5 C 77.5,179.167 77.5,178.833 77.5,178.5C 80.6753,177.909 83.0087,178.909 84.5,181.5C 85.5676,182.434 86.901,182.768 88.5,182.5C 89.1667,182.5 89.8333,182.5 90.5,182.5C 92.0418,183.301 93.7085,183.634 95.5,183.5C 95.5,182.5 95.5,181.5 95.5,180.5C 98.4461,182.631 101.779,183.631 105.5,183.5C 105.5,183.833 105.5,184.167 105.5,184.5C 102.833,184.5 100.167,184.5 97.5,184.5C 97.5,185.5 97.5,186.5 97.5,187.5C 98.791,187.263 99.791,187.596 100.5,188.5C 99.5,188.5 98.5,188.5 97.5,188.5C 92.9505,185.442 87.9505,183.442 82.5,182.5C 81.9517,179.916 80.285,178.916 77.5,179.5 Z"/></g>
<g><path style="opacity:1" fill="#c2c2c2" d="M 90.5,182.5 C 89.8333,182.5 89.1667,182.5 88.5,182.5C 88.0825,181.778 87.4158,181.278 86.5,181C 88.5,180.333 90.5,180.333 92.5,181C 91.5842,181.278 90.9175,181.778 90.5,182.5 Z"/></g>
<g><path style="opacity:1" fill="#d7d7d7" d="M 139.5,178.5 C 140.167,178.5 140.833,178.5 141.5,178.5C 141.5,178.833 141.5,179.167 141.5,179.5C 139.139,179.674 136.806,180.007 134.5,180.5C 133.626,182.69 131.959,183.69 129.5,183.5C 131.841,180.063 135.174,178.396 139.5,178.5 Z"/></g>
<g><path style="opacity:1" fill="#c9c9c9" d="M 141.5,179.5 C 143.288,179.215 144.955,179.548 146.5,180.5C 146.137,181.183 145.804,181.85 145.5,182.5C 142.518,182.963 139.518,183.296 136.5,183.5C 134.952,183.179 134.285,182.179 134.5,180.5C 136.806,180.007 139.139,179.674 141.5,179.5 Z"/></g>
<g><path style="opacity:1" fill="#f4f4f4" d="M 154.5,181.5 C 154.426,183.411 153.426,184.578 151.5,185C 146.345,184.715 142.012,186.382 138.5,190C 137.207,190.49 135.873,190.657 134.5,190.5C 135.263,189.732 136.263,189.232 137.5,189C 138.252,188.329 138.586,187.496 138.5,186.5C 138.5,186.167 138.5,185.833 138.5,185.5C 142.078,185.451 145.411,184.785 148.5,183.5C 150.315,182.37 152.315,181.704 154.5,181.5 Z"/></g>
<g><path style="opacity:1" fill="#e9e9e9" d="M 74.5,180.5 C 74.5,180.167 74.5,179.833 74.5,179.5C 75.5,179.5 76.5,179.5 77.5,179.5C 79.0455,180.64 80.7121,181.64 82.5,182.5C 87.9505,183.442 92.9505,185.442 97.5,188.5C 98.8333,189.167 100.167,189.833 101.5,190.5C 100.5,190.5 99.5,190.5 98.5,190.5C 97.5,190.5 96.5,190.5 95.5,190.5C 93.7359,188.879 91.7359,187.546 89.5,186.5C 84.3276,184.956 79.3276,182.956 74.5,180.5 Z"/></g>
<g><path style="opacity:1" fill="#dedede" d="M 110.5,182.5 C 110.833,182.5 111.167,182.5 111.5,182.5C 110.082,184.308 108.082,184.975 105.5,184.5C 105.5,184.167 105.5,183.833 105.5,183.5C 107.415,183.784 109.081,183.451 110.5,182.5 Z"/></g>
<g><path style="opacity:1" fill="#dbdbdb" d="M 145.5,182.5 C 145.833,182.5 146.167,182.5 146.5,182.5C 143.833,183.5 141.167,184.5 138.5,185.5C 138.5,185.833 138.5,186.167 138.5,186.5C 136.685,187.63 134.685,188.296 132.5,188.5C 131.833,188.5 131.167,188.5 130.5,188.5C 131.842,187.207 133.509,186.374 135.5,186C 136.252,185.329 136.586,184.496 136.5,183.5C 139.518,183.296 142.518,182.963 145.5,182.5 Z"/></g>
<g><path style="opacity:1" fill="#e6e6e6" d="M 147.5,181.5 C 148.167,181.5 148.833,181.5 149.5,181.5C 149.167,182.167 148.833,182.833 148.5,183.5C 145.411,184.785 142.078,185.451 138.5,185.5C 141.167,184.5 143.833,183.5 146.5,182.5C 147.167,182.5 147.5,182.167 147.5,181.5 Z"/></g>
<g><path style="opacity:1" fill="#cdcdcd" d="M 111.5,182.5 C 111.833,182.5 112.167,182.5 112.5,182.5C 112.833,182.5 113.167,182.5 113.5,182.5C 113.214,184.277 112.547,185.944 111.5,187.5C 111.747,190.077 113.081,191.743 115.5,192.5C 117.167,192.5 118.833,192.5 120.5,192.5C 120.5,192.833 120.5,193.167 120.5,193.5C 117.15,193.665 113.817,193.498 110.5,193C 109.944,192.617 109.611,192.117 109.5,191.5C 109.586,190.504 109.252,189.671 108.5,189C 106.527,188.505 104.527,188.338 102.5,188.5C 101.833,188.5 101.167,188.5 100.5,188.5C 99.791,187.596 98.791,187.263 97.5,187.5C 97.5,186.5 97.5,185.5 97.5,184.5C 100.167,184.5 102.833,184.5 105.5,184.5C 108.082,184.975 110.082,184.308 111.5,182.5 Z"/></g>
<g><path style="opacity:1" fill="#c4c4c4" d="M 99.5,186.5 C 101.693,185.203 104.027,185.203 106.5,186.5C 104.229,187.363 101.895,187.363 99.5,186.5 Z"/></g>
<g><path style="opacity:1" fill="#cccccc" d="M 116.5,170.5 C 116.183,174.702 116.517,178.702 117.5,182.5C 118.238,186.263 120.238,187.263 123.5,185.5C 125.5,184.833 127.5,184.167 129.5,183.5C 131.959,183.69 133.626,182.69 134.5,180.5C 134.285,182.179 134.952,183.179 136.5,183.5C 136.586,184.496 136.252,185.329 135.5,186C 133.509,186.374 131.842,187.207 130.5,188.5C 129.5,188.5 128.5,188.5 127.5,188.5C 125.5,188.5 123.5,188.5 121.5,188.5C 121.567,189.959 121.234,191.292 120.5,192.5C 118.833,192.5 117.167,192.5 115.5,192.5C 116.263,191.732 117.263,191.232 118.5,191C 115.562,184.281 114.895,177.448 116.5,170.5 Z"/></g>
<g><path style="opacity:1" fill="#d8d8d8" d="M 117.5,182.5 C 117.833,182.5 118.167,182.5 118.5,182.5C 121.962,183.482 125.629,183.815 129.5,183.5C 127.5,184.167 125.5,184.833 123.5,185.5C 120.238,187.263 118.238,186.263 117.5,182.5 Z"/></g>
<g><path style="opacity:1" fill="#c2c2c2" d="M 123.5,185.5 C 126.187,185.336 128.854,185.503 131.5,186C 128.428,188.06 125.762,187.893 123.5,185.5 Z"/></g>
<g><path style="opacity:1" fill="#f5f5f5" d="M 89.5,186.5 C 91.7359,187.546 93.7359,188.879 95.5,190.5C 92.1216,191.109 90.1216,189.776 89.5,186.5 Z"/></g>
<g><path style="opacity:1" fill="#d4d4d4" d="M 102.5,188.5 C 104.527,188.338 106.527,188.505 108.5,189C 109.252,189.671 109.586,190.504 109.5,191.5C 107.176,190.344 104.843,189.344 102.5,188.5 Z"/></g>
<g><path style="opacity:1" fill="#ededed" d="M 138.5,186.5 C 138.586,187.496 138.252,188.329 137.5,189C 136.263,189.232 135.263,189.732 134.5,190.5C 132.5,190.5 130.5,190.5 128.5,190.5C 129.833,189.833 131.167,189.167 132.5,188.5C 134.685,188.296 136.685,187.63 138.5,186.5 Z"/></g>
<g><path style="opacity:0.02" fill="#fefffe" d="M 21.5,189.5 C 20.8333,190.167 20.8333,190.167 21.5,189.5 Z"/></g>
<g><path style="opacity:1" fill="#dfdfdf" d="M 97.5,188.5 C 98.5,188.5 99.5,188.5 100.5,188.5C 101.167,188.5 101.833,188.5 102.5,188.5C 104.843,189.344 107.176,190.344 109.5,191.5C 109.611,192.117 109.944,192.617 110.5,193C 113.817,193.498 117.15,193.665 120.5,193.5C 118.052,194.473 115.385,194.806 112.5,194.5C 111.5,194.5 110.5,194.5 109.5,194.5C 107.853,192.674 105.853,191.34 103.5,190.5C 102.833,190.5 102.167,190.5 101.5,190.5C 100.167,189.833 98.8333,189.167 97.5,188.5 Z"/></g>
<g><path style="opacity:1" fill="#d5d5d5" d="M 127.5,188.5 C 125.192,189.793 122.858,191.126 120.5,192.5C 121.234,191.292 121.567,189.959 121.5,188.5C 123.5,188.5 125.5,188.5 127.5,188.5 Z"/></g>
<g><path style="opacity:1" fill="#e9e9e9" d="M 103.5,190.5 C 105.853,191.34 107.853,192.674 109.5,194.5C 106.802,194.155 104.802,192.822 103.5,190.5 Z"/></g>
<g><path style="opacity:1" fill="#e0e0e0" d="M 127.5,188.5 C 128.5,188.5 129.5,188.5 130.5,188.5C 131.167,188.5 131.833,188.5 132.5,188.5C 131.167,189.167 129.833,189.833 128.5,190.5C 125.833,191.5 123.167,192.5 120.5,193.5C 120.5,193.167 120.5,192.833 120.5,192.5C 122.858,191.126 125.192,189.793 127.5,188.5 Z"/></g>
<g><path style="opacity:1" fill="#f5f5f5" d="M 98.5,190.5 C 99.5,190.5 100.5,190.5 101.5,190.5C 102.167,190.5 102.833,190.5 103.5,190.5C 104.802,192.822 106.802,194.155 109.5,194.5C 110.5,194.5 111.5,194.5 112.5,194.5C 115.287,195.477 118.287,195.81 121.5,195.5C 115.954,196.741 110.287,196.574 104.5,195C 102.591,193.301 100.591,191.801 98.5,190.5 Z"/></g>
<g><path style="opacity:1" fill="#f6f6f6" d="M 128.5,191.5 C 127.878,194.776 125.878,196.109 122.5,195.5C 124.728,194.623 126.728,193.29 128.5,191.5 Z"/></g>
<g><path style="opacity:1" fill="#ededed" d="M 128.5,190.5 C 128.5,190.833 128.5,191.167 128.5,191.5C 126.728,193.29 124.728,194.623 122.5,195.5C 122.167,195.5 121.833,195.5 121.5,195.5C 118.287,195.81 115.287,195.477 112.5,194.5C 115.385,194.806 118.052,194.473 120.5,193.5C 123.167,192.5 125.833,191.5 128.5,190.5 Z"/></g>
<g><path style="opacity:0.02" fill="#fefffe" d="M 52.5,225.5 C 51.8333,226.167 51.8333,226.167 52.5,225.5 Z"/></g>
<g><path style="opacity:0.02" fill="#fefffe" d="M 65.5,233.5 C 64.8333,234.167 64.8333,234.167 65.5,233.5 Z"/></g>
</svg>
