<svg xmlns="http://www.w3.org/2000/svg" width="256" height="256" viewBox="0 0 256 256" version="1.1">
	<path fill-opacity="0.220" d="M 112.450 69.889 C 111.927 70.378, 109.025 71.488, 106 72.356 C 102.975 73.224, 98.717 74.849, 96.539 75.967 C 94.360 77.085, 91.872 78, 91.011 78 C 90.150 78, 88.448 78.698, 87.229 79.552 C 86.011 80.405, 82.753 81.775, 79.990 82.596 C 77.227 83.416, 73.511 84.918, 71.733 85.933 C 69.955 86.948, 66.858 88.065, 64.850 88.416 C 62.843 88.766, 60.675 89.687, 60.031 90.462 C 59.388 91.237, 57.543 92.161, 55.931 92.515 L 53 93.159 53 130.653 C 53 165.840, 53.108 168.123, 54.750 167.764 C 55.761 167.543, 56.289 166.773, 56 165.941 C 55.725 165.148, 55.375 150.837, 55.221 134.137 C 55.011 111.166, 55.244 103.412, 56.178 102.286 C 57.805 100.325, 66.239 101.366, 70.607 104.066 C 72.328 105.130, 74.369 106, 75.143 106 C 75.918 106, 79.239 107.336, 82.525 108.969 C 85.811 110.601, 89.400 111.953, 90.500 111.972 C 91.600 111.992, 93.850 112.822, 95.500 113.818 C 97.150 114.814, 100.585 116.207, 103.134 116.912 C 105.682 117.618, 109.170 119.476, 110.884 121.041 L 114 123.887 114 153.721 C 114 179.165, 113.770 183.884, 112.436 185.788 C 109.568 189.883, 112.529 193.658, 117.610 192.383 C 120.248 191.721, 120.206 190.369, 117.373 184.800 C 115.561 181.236, 115.620 172.988, 117.477 170.337 C 118.289 169.177, 120.089 167.944, 121.477 167.595 C 124.894 166.738, 124.650 165.608, 120.798 164.457 C 116.938 163.304, 115.491 159.113, 116.366 151.624 C 117.166 144.774, 119.212 142, 123.464 142 C 125.344 142, 127.160 141.550, 127.500 141 C 127.875 140.393, 126.424 139.994, 123.809 139.985 C 117.472 139.962, 116.663 139.071, 116.186 131.584 C 115.781 125.223, 115.869 124.931, 119.195 121.605 C 121.165 119.635, 124.466 117.682, 126.962 117.010 C 129.350 116.367, 132.916 114.977, 134.887 113.921 C 136.858 112.864, 139.198 112, 140.086 112 C 140.975 112, 143.720 110.927, 146.187 109.616 C 148.653 108.304, 152.170 106.902, 154.002 106.500 C 155.834 106.097, 158.721 104.922, 160.417 103.888 C 162.113 102.854, 164.175 102.004, 165 102 C 165.825 101.996, 169.200 100.646, 172.500 99 C 175.800 97.354, 179.400 95.999, 180.500 95.988 C 181.600 95.978, 183.101 95.589, 183.835 95.123 C 185.376 94.146, 182.255 93.037, 177.899 93.014 C 176.468 93.006, 173.318 91.951, 170.899 90.669 C 168.480 89.387, 164.955 88.031, 163.066 87.657 C 161.177 87.283, 158.927 86.348, 158.066 85.581 C 157.205 84.814, 154.519 83.658, 152.098 83.014 C 149.677 82.369, 146.084 80.977, 144.113 79.921 C 142.142 78.864, 139.848 77.998, 139.015 77.996 C 138.182 77.994, 134.800 76.646, 131.500 75 C 128.200 73.354, 124.825 72.003, 124 71.998 C 123.175 71.992, 121.211 71.315, 119.636 70.494 C 116.389 68.800, 113.842 68.586, 112.450 69.889 M 201.397 84.833 C 201.884 85.621, 208 85.208, 208 84.387 C 208 84.174, 206.398 84, 204.441 84 C 202.484 84, 201.114 84.375, 201.397 84.833 M 192.500 89.023 C 189.672 89.456, 188.977 89.854, 190.128 90.378 C 191.873 91.174, 199.093 89.719, 197.469 88.900 C 196.936 88.631, 194.700 88.686, 192.500 89.023 M 198 110 C 196.882 110.723, 197.440 110.973, 200.191 110.985 C 202.221 110.993, 204.160 110.550, 204.500 110 C 205.297 108.710, 199.996 108.710, 198 110 M 185 115 C 183.915 115.701, 184.815 115.974, 188.250 115.985 C 190.863 115.993, 193 115.550, 193 115 C 193 113.722, 186.977 113.722, 185 115 M 172.500 120 C 171 120.645, 171.702 120.877, 175.309 120.930 C 178.276 120.973, 179.881 120.617, 179.500 120 C 178.762 118.806, 175.279 118.806, 172.500 120 M 159.573 124.895 C 157.898 125.552, 157.858 125.731, 159.265 126.272 C 161.448 127.109, 168.098 125.968, 167.421 124.872 C 166.776 123.828, 162.264 123.841, 159.573 124.895 M 147.733 129.718 C 144.301 130.237, 145.140 132.006, 148.809 131.985 C 152.485 131.964, 154.773 130.510, 152.502 129.639 C 151.586 129.288, 150.761 129.067, 150.668 129.150 C 150.576 129.232, 149.255 129.488, 147.733 129.718 M 136.500 135.023 C 133.385 135.501, 132.899 135.815, 134.306 136.447 C 136.199 137.296, 143.235 135.800, 141.499 134.918 C 140.950 134.639, 138.700 134.686, 136.500 135.023 M 192.500 136 C 193.240 137.198, 197.713 137.198, 200.500 136 C 201.965 135.370, 201.080 135.122, 197.191 135.070 C 193.890 135.027, 192.116 135.378, 192.500 136 M 180 141 C 180 142.276, 185.026 142.276, 187 141 C 188.099 140.290, 187.362 140.027, 184.250 140.015 C 181.912 140.007, 180 140.450, 180 141 M 167.500 146 C 167.133 146.594, 168.303 147, 170.382 147 C 172.307 147, 174.160 146.550, 174.500 146 C 174.867 145.406, 173.697 145, 171.618 145 C 169.693 145, 167.840 145.450, 167.500 146 M 154.500 151 C 154.127 151.604, 155.490 152, 157.941 152 C 160.173 152, 162 151.550, 162 151 C 162 150.450, 160.452 150, 158.559 150 C 156.666 150, 154.840 150.450, 154.500 151 M 141.500 156 C 139.995 156.647, 140.676 156.877, 144.250 156.930 C 146.863 156.968, 149 156.550, 149 156 C 149 154.799, 144.295 154.799, 141.500 156 M 201 156 C 199.903 156.709, 200.658 156.973, 203.809 156.985 C 206.430 156.994, 207.876 156.608, 207.500 156 C 206.716 154.731, 202.963 154.731, 201 156 M 129.166 160.876 C 128.054 161.581, 128.054 161.806, 129.166 162.229 C 131.174 162.992, 137.060 161.906, 136.431 160.888 C 135.737 159.765, 130.931 159.757, 129.166 160.876 M 188.500 161 C 187 161.645, 187.702 161.877, 191.309 161.930 C 194.276 161.973, 195.881 161.617, 195.500 161 C 194.762 159.806, 191.279 159.806, 188.500 161 M 176.143 165.890 C 175.373 166.379, 175.197 167.004, 175.737 167.337 C 177.143 168.207, 184.050 166.890, 183.421 165.872 C 182.731 164.756, 177.915 164.768, 176.143 165.890 M 61.117 170.878 C 59.024 172.247, 65.043 173.307, 68.061 172.101 C 70.178 171.255, 70.236 171.117, 68.500 171.050 C 67.400 171.007, 65.600 170.748, 64.500 170.473 C 63.400 170.199, 61.878 170.381, 61.117 170.878 M 164 170.925 C 161.680 171.595, 161.644 171.695, 163.500 172.308 C 164.600 172.671, 166.850 172.564, 168.500 172.070 C 170.150 171.576, 170.974 171.133, 170.332 171.086 C 169.689 171.039, 168.564 170.821, 167.832 170.601 C 167.099 170.382, 165.375 170.528, 164 170.925 M 73.573 175.881 C 72.661 177.357, 79.877 178.523, 81.275 177.125 C 82.108 176.292, 81.722 176, 79.782 176 C 78.342 176, 76.497 175.744, 75.683 175.432 C 74.869 175.119, 73.919 175.322, 73.573 175.881 M 151.733 175.718 C 148.473 176.211, 149.057 178, 152.477 178 C 155.699 178, 158.105 176.979, 157.435 175.895 C 156.873 174.986, 156.626 174.978, 151.733 175.718 M 88.154 180.782 C 87.512 180.996, 87.242 181.582, 87.553 182.085 C 88.279 183.261, 95 183.286, 95 182.113 C 95 181.137, 90.004 180.165, 88.154 180.782 M 136.500 182 C 137.286 183.272, 142.032 183.272, 144 182 C 145.083 181.300, 144.165 181.026, 140.691 181.015 C 137.736 181.006, 136.120 181.386, 136.500 182 M 100 187 C 101.977 188.278, 108 188.278, 108 187 C 108 186.450, 105.862 186.007, 103.250 186.015 C 99.815 186.026, 98.915 186.299, 100 187 M 123 187 C 123 187.550, 124.773 188, 126.941 188 C 129.109 188, 131.160 187.550, 131.500 187 C 131.878 186.389, 130.344 186, 127.559 186 C 125.052 186, 123 186.450, 123 187" stroke="none" fill="black" fill-rule="evenodd"/>
	<path fill-opacity="0.035" d="M 113.572 70.571 C 112.559 71.312, 109.760 72.213, 107.353 72.574 C 104.946 72.935, 101.918 74.063, 100.625 75.080 C 99.331 76.098, 96.081 77.421, 93.403 78.022 C 90.724 78.622, 87.843 79.737, 87 80.500 C 86.157 81.263, 83.276 82.378, 80.597 82.978 C 77.919 83.579, 74.667 84.903, 73.372 85.922 C 72.077 86.941, 69.326 88.088, 67.259 88.472 C 65.191 88.855, 62.825 89.749, 62 90.458 C 61.175 91.167, 58.813 92.289, 56.750 92.951 L 53 94.155 53 130.578 C 53 161.496, 53.216 167, 54.430 167 C 55.568 167, 55.670 166.336, 54.930 163.757 C 54.419 161.973, 54 147.848, 54 132.367 C 54 98.527, 53.817 99.129, 63.533 100.915 C 66.815 101.519, 70.625 102.839, 72 103.849 C 73.375 104.860, 76.276 106.019, 78.447 106.425 C 80.618 106.832, 83.426 107.977, 84.688 108.969 C 85.950 109.962, 88.674 111.088, 90.741 111.471 C 92.809 111.854, 95.850 112.992, 97.500 114 C 99.150 115.008, 102.142 116.136, 104.148 116.508 C 106.155 116.880, 109.305 118.444, 111.148 119.983 L 114.500 122.781 114.324 153.641 C 114.227 170.613, 114.002 186.064, 113.824 187.975 C 113.573 190.662, 113.903 191.530, 115.276 191.803 C 116.913 192.129, 117 191.419, 116.387 182.700 C 115.532 170.535, 116.076 168.362, 120.209 167.454 L 123.420 166.749 119.960 165.105 L 116.500 163.461 116.500 153.884 C 116.500 146.980, 116.905 143.819, 117.953 142.557 C 119.234 141.013, 119.205 140.694, 117.703 139.854 C 116.325 139.082, 116 137.404, 116 131.054 C 116 123.390, 116.079 123.138, 119.383 120.237 C 121.244 118.603, 124.482 116.944, 126.580 116.551 C 128.677 116.157, 131.426 115.023, 132.688 114.031 C 133.950 113.038, 136.584 111.925, 138.541 111.558 C 140.498 111.191, 144.169 109.790, 146.699 108.445 C 149.228 107.100, 152.107 106, 153.096 106 C 154.085 106, 157.010 104.875, 159.596 103.500 C 162.182 102.125, 165.295 101, 166.514 101 C 167.733 101, 169.843 100.125, 171.203 99.055 C 172.562 97.986, 175.885 96.550, 178.587 95.865 L 183.500 94.619 177.271 93.484 C 173.846 92.860, 170.246 91.653, 169.271 90.802 C 168.297 89.951, 165.160 88.708, 162.300 88.039 C 159.439 87.371, 156.582 86.201, 155.949 85.439 C 155.317 84.676, 153.157 83.766, 151.150 83.416 C 149.142 83.065, 146.044 81.948, 144.265 80.932 C 142.486 79.916, 139.111 78.574, 136.765 77.950 C 134.419 77.325, 131.825 76.215, 131 75.482 C 130.175 74.750, 127.250 73.610, 124.500 72.950 C 121.750 72.290, 118.580 71.182, 117.457 70.487 C 115.797 69.462, 115.067 69.478, 113.572 70.571 M 204.813 84.683 C 205.534 84.972, 206.397 84.936, 206.729 84.604 C 207.061 84.272, 206.471 84.036, 205.417 84.079 C 204.252 84.127, 204.015 84.364, 204.813 84.683 M 192.269 89.693 C 193.242 89.947, 194.592 89.930, 195.269 89.656 C 195.946 89.382, 195.150 89.175, 193.500 89.195 C 191.850 89.215, 191.296 89.439, 192.269 89.693 M 201.500 110 C 201.160 110.550, 201.359 111, 201.941 111 C 202.523 111, 203 110.550, 203 110 C 203 109.450, 202.802 109, 202.559 109 C 202.316 109, 201.840 109.450, 201.500 110 M 186.750 115.662 C 187.438 115.940, 188.563 115.940, 189.250 115.662 C 189.938 115.385, 189.375 115.158, 188 115.158 C 186.625 115.158, 186.063 115.385, 186.750 115.662 M 174.750 120.662 C 175.438 120.940, 176.563 120.940, 177.250 120.662 C 177.938 120.385, 177.375 120.158, 176 120.158 C 174.625 120.158, 174.063 120.385, 174.750 120.662 M 161.762 125.707 C 163.006 125.946, 164.806 125.937, 165.762 125.687 C 166.718 125.437, 165.700 125.241, 163.500 125.252 C 161.300 125.263, 160.518 125.468, 161.762 125.707 M 148.250 130.689 C 149.213 130.941, 150.787 130.941, 151.750 130.689 C 152.713 130.438, 151.925 130.232, 150 130.232 C 148.075 130.232, 147.287 130.438, 148.250 130.689 M 136.250 135.689 C 137.213 135.941, 138.787 135.941, 139.750 135.689 C 140.713 135.438, 139.925 135.232, 138 135.232 C 136.075 135.232, 135.287 135.438, 136.250 135.689 M 195.750 135.662 C 196.438 135.940, 197.563 135.940, 198.250 135.662 C 198.938 135.385, 198.375 135.158, 197 135.158 C 195.625 135.158, 195.063 135.385, 195.750 135.662 M 123.269 140.693 C 124.242 140.947, 125.592 140.930, 126.269 140.656 C 126.946 140.382, 126.150 140.175, 124.500 140.195 C 122.850 140.215, 122.296 140.439, 123.269 140.693 M 182.813 140.683 C 183.534 140.972, 184.397 140.936, 184.729 140.604 C 185.061 140.272, 184.471 140.036, 183.417 140.079 C 182.252 140.127, 182.015 140.364, 182.813 140.683 M 144.813 156.683 C 145.534 156.972, 146.397 156.936, 146.729 156.604 C 147.061 156.272, 146.471 156.036, 145.417 156.079 C 144.252 156.127, 144.015 156.364, 144.813 156.683 M 130.250 161.689 C 131.213 161.941, 132.787 161.941, 133.750 161.689 C 134.713 161.438, 133.925 161.232, 132 161.232 C 130.075 161.232, 129.287 161.438, 130.250 161.689 M 190.750 161.662 C 191.438 161.940, 192.563 161.940, 193.250 161.662 C 193.938 161.385, 193.375 161.158, 192 161.158 C 190.625 161.158, 190.063 161.385, 190.750 161.662 M 177.250 166.689 C 178.213 166.941, 179.787 166.941, 180.750 166.689 C 181.713 166.438, 180.925 166.232, 179 166.232 C 177.075 166.232, 176.287 166.438, 177.250 166.689 M 63.250 171.689 C 64.213 171.941, 65.787 171.941, 66.750 171.689 C 67.713 171.438, 66.925 171.232, 65 171.232 C 63.075 171.232, 62.288 171.438, 63.250 171.689 M 165.269 171.693 C 166.242 171.947, 167.592 171.930, 168.269 171.656 C 168.946 171.382, 168.150 171.175, 166.500 171.195 C 164.850 171.215, 164.296 171.439, 165.269 171.693 M 75.250 176.689 C 76.213 176.941, 77.787 176.941, 78.750 176.689 C 79.713 176.438, 78.925 176.232, 77 176.232 C 75.075 176.232, 74.287 176.438, 75.250 176.689 M 151.762 176.707 C 153.006 176.946, 154.806 176.937, 155.762 176.687 C 156.718 176.437, 155.700 176.241, 153.500 176.252 C 151.300 176.263, 150.518 176.468, 151.762 176.707 M 88.750 181.662 C 89.438 181.940, 90.563 181.940, 91.250 181.662 C 91.938 181.385, 91.375 181.158, 90 181.158 C 88.625 181.158, 88.063 181.385, 88.750 181.662 M 139.750 181.662 C 140.438 181.940, 141.563 181.940, 142.250 181.662 C 142.938 181.385, 142.375 181.158, 141 181.158 C 139.625 181.158, 139.063 181.385, 139.750 181.662 M 103.813 186.683 C 104.534 186.972, 105.397 186.936, 105.729 186.604 C 106.061 186.272, 105.471 186.036, 104.417 186.079 C 103.252 186.127, 103.015 186.364, 103.813 186.683 M 126.250 186.689 C 127.213 186.941, 128.787 186.941, 129.750 186.689 C 130.713 186.438, 129.925 186.232, 128 186.232 C 126.075 186.232, 125.287 186.438, 126.250 186.689" stroke="none" fill="black" fill-rule="evenodd"/>
	<path fill-opacity="0.047" d="M 109.159 73.200 C 106.222 73.740, 102.992 75.008, 101.981 76.019 C 100.971 77.029, 97.974 78.179, 95.322 78.575 C 92.464 79.001, 89.985 80.024, 89.235 81.088 C 88.483 82.153, 86.046 83.158, 83.235 83.560 C 80.631 83.933, 77.574 85.082, 76.441 86.114 C 75.309 87.145, 72.314 88.375, 69.786 88.848 C 67.257 89.320, 63.960 90.673, 62.459 91.853 C 60.958 93.034, 58.441 94, 56.865 94 C 54.296 94, 54.002 94.336, 54.015 97.250 C 54.024 99.037, 54.361 100.017, 54.765 99.427 C 56.059 97.538, 58.899 97.042, 60.315 98.458 C 61.070 99.213, 63.896 100.147, 66.594 100.535 C 69.292 100.922, 72.426 102.082, 73.559 103.114 C 74.691 104.145, 77.755 105.388, 80.369 105.877 C 82.982 106.365, 86.135 107.717, 87.375 108.882 C 88.782 110.204, 90.940 111, 93.120 111 C 95.274 111, 97.910 111.958, 100 113.500 C 101.864 114.875, 104.710 116, 106.326 116 C 108.377 116, 110.241 117.036, 112.502 119.433 L 115.740 122.867 116.858 120.413 C 118.030 117.841, 121.581 116, 125.371 116 C 126.603 116, 129.136 114.875, 131 113.500 C 132.930 112.076, 135.748 111, 137.548 111 C 139.478 111, 141.694 110.086, 143.242 108.651 C 144.794 107.213, 147.619 106.050, 150.528 105.651 C 153.141 105.293, 155.804 104.283, 156.444 103.407 C 157.084 102.532, 159.753 101.414, 162.375 100.924 C 164.996 100.435, 168.231 99.177, 169.562 98.130 C 170.893 97.083, 173.674 95.872, 175.741 95.440 L 179.500 94.655 174.009 93.907 C 170.106 93.376, 168.119 92.558, 167.137 91.080 C 166.265 89.766, 164.684 89, 162.846 89 C 159.425 89, 153 86.507, 153 85.180 C 153 84.673, 150.813 83.968, 148.141 83.613 C 145.323 83.239, 142.567 82.179, 141.580 81.089 C 140.645 80.055, 137.849 78.905, 135.367 78.532 C 132.886 78.160, 130.050 77.050, 129.065 76.065 C 127.455 74.455, 124.799 73.687, 117 72.575 C 115.625 72.379, 112.097 72.661, 109.159 73.200 M 115 166.500 C 115 167.265, 115.936 167.544, 117.500 167.245 C 118.875 166.982, 120 166.647, 120 166.500 C 120 166.353, 118.875 166.018, 117.500 165.755 C 115.936 165.456, 115 165.735, 115 166.500" stroke="none" fill="black" fill-rule="evenodd"/>
	<path fill-opacity="0.109" d="M 104 76.500 C 103.196 78.614, 102.407 79, 98.889 79 C 95.737 79, 94.168 79.605, 92.412 81.500 C 90.501 83.562, 89.165 84, 84.785 84 C 80.237 84, 79.333 84.323, 78.487 86.250 C 77.747 87.936, 76.509 88.581, 73.548 88.822 C 70.937 89.035, 68.831 89.969, 67.345 91.572 C 65.894 93.139, 63.993 94, 61.989 94 C 60.139 94, 59.136 94.411, 59.510 95.016 C 59.856 95.575, 60.544 95.782, 61.040 95.475 C 61.536 95.169, 62.228 96.062, 62.579 97.459 C 63.152 99.743, 63.707 100, 68.061 100 C 73.514 100, 78 101.652, 78 103.661 C 78 104.529, 79.253 105, 81.566 105 C 85.713 105, 89 106.502, 89 108.396 C 89 109.295, 91.007 109.904, 95.231 110.287 C 99.778 110.700, 101.897 111.390, 103.072 112.841 C 104.039 114.035, 106.548 115.110, 109.351 115.530 C 113.291 116.121, 114.125 116.641, 114.698 118.865 L 115.376 121.500 115.979 119 C 116.487 116.895, 117.406 116.359, 121.791 115.609 C 124.971 115.066, 127 114.208, 127 113.406 C 127 111.909, 132.954 110.014, 137.683 110.006 C 139.923 110.002, 141.043 109.440, 141.466 108.108 C 142.085 106.157, 144.753 105.038, 148.840 105.014 C 150.127 105.006, 151.972 104.021, 152.941 102.825 C 154.302 101.143, 156.079 100.550, 160.764 100.211 C 165.736 99.851, 166.918 99.420, 167.339 97.812 C 167.621 96.734, 168.897 95.572, 170.176 95.230 C 172.287 94.666, 172.179 94.531, 169 93.756 C 167.075 93.287, 164.938 92.850, 164.250 92.785 C 163.563 92.720, 163.221 92.446, 163.491 92.175 C 164.829 90.838, 161.276 89, 157.353 89 C 153.577 89, 152.815 88.644, 152 86.500 C 151.182 84.349, 150.427 84, 146.590 84 C 141.104 84, 137 82.536, 137 80.580 C 137 79.535, 135.624 79.021, 132.250 78.805 C 128.445 78.561, 127.304 78.053, 126.513 76.250 C 125.581 74.126, 124.948 74, 115.238 74 C 105.185 74, 104.929 74.057, 104 76.500" stroke="none" fill="black" fill-rule="evenodd"/>
</svg>