<svg xmlns="http://www.w3.org/2000/svg" version="1.1" width="256px" height="256px" style="shape-rendering:geometricPrecision; text-rendering:geometricPrecision; image-rendering:optimizeQuality; fill-rule:evenodd; clip-rule:evenodd" xmlns:xlink="http://www.w3.org/1999/xlink">
<g><path style="opacity:0.709" fill="#399ffe" d="M 111.5,-0.5 C 122.167,-0.5 132.833,-0.5 143.5,-0.5C 205.864,11.8636 243.197,49.197 255.5,111.5C 255.5,122.167 255.5,132.833 255.5,143.5C 243.201,205.799 205.868,243.132 143.5,255.5C 132.833,255.5 122.167,255.5 111.5,255.5C 49.1357,243.136 11.8023,205.802 -0.5,143.5C -0.5,132.833 -0.5,122.167 -0.5,111.5C 11.8063,49.1937 49.1396,11.8604 111.5,-0.5 Z"/></g>
<g><path style="opacity:1" fill="#e0f4fd" d="M 242.5,105.5 C 243.277,116.148 243.61,126.815 243.5,137.5C 243.5,138.167 243.5,138.833 243.5,139.5C 242.671,132.011 242.171,124.344 242,116.5C 241.654,114.152 240.487,112.319 238.5,111C 239.956,110.577 240.456,109.744 240,108.5C 237.787,108.944 236.12,110.611 235,113.5C 233.415,112.624 232.415,111.291 232,109.5C 230.667,110.833 229.333,110.833 228,109.5C 227.3,111.032 226.134,112.032 224.5,112.5C 223.41,111.609 223.41,110.609 224.5,109.5C 223.833,108.167 223.167,108.167 222.5,109.5C 222.491,117.757 222.324,126.09 222,134.5C 221.827,128.652 221.327,122.985 220.5,117.5C 220.737,116.209 220.404,115.209 219.5,114.5C 215.46,87.2822 202.127,65.7822 179.5,50C 173.164,45.9974 166.497,42.8307 159.5,40.5C 138.622,32.9219 117.622,32.5886 96.5,39.5C 61.7331,52.3746 41.0664,77.0413 34.5,113.5C 33.7321,114.263 33.2321,115.263 33,116.5C 32.6667,121.833 32.3333,127.167 32,132.5C 31.2803,125.464 31.4469,118.464 32.5,111.5C 30.4078,111.439 28.9078,110.439 28,108.5C 27.6827,110.301 27.016,110.634 26,109.5C 25.5172,110.448 25.3505,111.448 25.5,112.5C 23.7988,112.034 22.2988,112.034 21,112.5C 19.8455,111.257 18.5122,110.257 17,109.5C 16.6758,111.569 15.8425,111.902 14.5,110.5C 13.1696,112.347 13.503,113.847 15.5,115C 14.5838,115.374 13.7504,115.874 13,116.5C 12.829,124.344 12.329,132.011 11.5,139.5C 8.67418,81.1659 34.0075,40.3326 87.5,17C 136.677,2.51734 179.177,13.3507 215,49.5C 229.241,65.6493 238.408,84.316 242.5,105.5 Z"/></g>
<g><path style="opacity:1" fill="#2399f1" d="M 159.5,40.5 C 158.841,42.1379 158.174,43.8045 157.5,45.5C 159.206,45.8987 160.706,45.8987 162,45.5C 161.49,47.3801 161.657,49.2134 162.5,51C 161.906,51.4643 161.239,51.631 160.5,51.5C 155.166,50.1665 149.833,48.8331 144.5,47.5C 139.243,46.0249 133.743,45.3582 128,45.5C 122.579,45.3258 117.413,45.9925 112.5,47.5C 103.981,48.3281 95.6472,50.6614 87.5,54.5C 87.3291,52.0072 88.3291,50.1739 90.5,49C 89.3279,48.5814 88.3279,47.9147 87.5,47C 88.9733,46.2904 89.6399,45.1238 89.5,43.5C 93.168,42.4445 96.8347,41.2778 100.5,40C 99.2068,39.51 97.8734,39.3433 96.5,39.5C 117.622,32.5886 138.622,32.9219 159.5,40.5 Z"/></g>
<g><path style="opacity:1" fill="#26a1f1" d="M 159.5,40.5 C 166.497,42.8307 173.164,45.9974 179.5,50C 202.127,65.7822 215.46,87.2822 219.5,114.5C 219.657,115.873 219.49,117.207 219,118.5C 213.915,98.9954 203.748,82.6621 188.5,69.5C 185.424,66.4475 182.09,63.6142 178.5,61C 172.529,57.5296 166.529,54.3629 160.5,51.5C 161.239,51.631 161.906,51.4643 162.5,51C 161.657,49.2134 161.49,47.3801 162,45.5C 160.706,45.8987 159.206,45.8987 157.5,45.5C 158.174,43.8045 158.841,42.1379 159.5,40.5 Z"/></g>
<g><path style="opacity:1" fill="#2695f2" d="M 96.5,39.5 C 97.8734,39.3433 99.2068,39.51 100.5,40C 96.8347,41.2778 93.168,42.4445 89.5,43.5C 89.6399,45.1238 88.9733,46.2904 87.5,47C 88.3279,47.9147 89.3279,48.5814 90.5,49C 88.3291,50.1739 87.3291,52.0072 87.5,54.5C 80.292,58.0491 73.6253,62.3824 67.5,67.5C 47.6995,84.4389 36.3662,105.772 33.5,131.5C 33.3599,125.464 33.6932,119.464 34.5,113.5C 41.0664,77.0413 61.7331,52.3746 96.5,39.5 Z"/></g>
<g><path style="opacity:1" fill="#31b0fd" d="M 144.5,47.5 C 141.111,47.3679 137.777,47.2012 134.5,47C 136.878,47.9745 136.544,48.6411 133.5,49C 135.303,50.262 136.636,51.9287 137.5,54C 134.833,55.3333 134.833,56.6667 137.5,58C 136.833,58.3333 136.167,58.6667 135.5,59C 136.672,59.4186 137.672,60.0853 138.5,61C 137.167,61.6667 135.833,62.3333 134.5,63C 135.056,63.3826 135.389,63.8826 135.5,64.5C 128.935,63.1437 123.602,65.1437 119.5,70.5C 114.489,70.6659 109.489,70.4993 104.5,70C 106.81,69.5034 109.143,69.3367 111.5,69.5C 111.33,68.1779 111.663,67.0113 112.5,66C 110.043,64.8456 110.043,63.5123 112.5,62C 111.366,60.984 111.699,60.3173 113.5,60C 109.337,57.5343 109.504,56.701 114,57.5C 114.333,55.9532 113.833,54.6199 112.5,53.5C 112.977,52.5224 113.643,51.6891 114.5,51C 113.366,49.984 113.699,49.3173 115.5,49C 114.263,48.7679 113.263,48.2679 112.5,47.5C 117.413,45.9925 122.579,45.3258 128,45.5C 133.743,45.3582 139.243,46.0249 144.5,47.5 Z"/></g>
<g><path style="opacity:1" fill="#34abfe" d="M 112.5,47.5 C 113.263,48.2679 114.263,48.7679 115.5,49C 113.699,49.3173 113.366,49.984 114.5,51C 113.643,51.6891 112.977,52.5224 112.5,53.5C 113.833,54.6199 114.333,55.9532 114,57.5C 109.504,56.701 109.337,57.5343 113.5,60C 111.699,60.3173 111.366,60.984 112.5,62C 110.043,63.5123 110.043,64.8456 112.5,66C 111.663,67.0113 111.33,68.1779 111.5,69.5C 109.143,69.3367 106.81,69.5034 104.5,70C 109.489,70.4993 114.489,70.6659 119.5,70.5C 109.008,71.3304 98.3412,71.8304 87.5,72C 80.3351,74.8206 75.8351,79.9872 74,87.5C 73.6667,105.167 73.3333,122.833 73,140.5C 72.4109,147.61 71.2442,154.61 69.5,161.5C 68.3569,161.092 67.3569,160.425 66.5,159.5C 69.4109,155.708 71.0775,151.708 71.5,147.5C 70.5833,146.029 69.5833,144.529 68.5,143C 70.8912,142.309 70.8912,141.309 68.5,140C 71.1667,139.333 71.1667,138.667 68.5,138C 69.727,136.413 69.3937,135.079 67.5,134C 69.0614,133.059 70.3947,131.892 71.5,130.5C 70.6034,130.331 69.6034,129.998 68.5,129.5C 69.6405,128.575 69.6405,127.741 68.5,127C 72.5116,125.197 72.1782,124.197 67.5,124C 68.8782,122.287 70.5448,120.953 72.5,120C 70.9595,117.443 69.2928,114.776 67.5,112C 68.8333,110.667 70.1667,109.333 71.5,108C 70.451,107.508 69.451,107.674 68.5,108.5C 68.2635,107.753 67.9302,106.92 67.5,106C 72.625,103.515 72.2917,101.349 66.5,99.5C 68.0284,98.1387 69.6951,96.972 71.5,96C 70.8333,95.6667 70.1667,95.3333 69.5,95C 70.1667,93 70.8333,91 71.5,89C 70.6433,88.3109 69.9767,87.4776 69.5,86.5C 70.96,83.0494 70.6267,82.3828 68.5,84.5C 67.4063,83.132 67.7397,81.9653 69.5,81C 67.0629,79.7212 66.5629,78.2212 68,76.5C 68.3173,78.3008 68.984,78.6341 70,77.5C 71.722,73.8683 71.722,70.535 70,67.5C 69.0228,68.7736 68.1894,68.7736 67.5,67.5C 73.6253,62.3824 80.292,58.0491 87.5,54.5C 95.6472,50.6614 103.981,48.3281 112.5,47.5 Z"/></g>
<g><path style="opacity:1" fill="#30b7fd" d="M 144.5,47.5 C 149.833,48.8331 155.166,50.1665 160.5,51.5C 166.529,54.3629 172.529,57.5296 178.5,61C 182.09,63.6142 185.424,66.4475 188.5,69.5C 186.38,69.9298 184.38,69.9298 182.5,69.5C 184.991,70.5407 184.991,71.3741 182.5,72C 184.085,72.0848 185.418,72.2514 186.5,72.5C 185.82,73.8599 185.153,75.1932 184.5,76.5C 181.806,74.4862 178.806,72.9862 175.5,72C 165.167,71.6667 154.833,71.3333 144.5,71C 142.578,67.3696 139.578,65.2029 135.5,64.5C 135.389,63.8826 135.056,63.3826 134.5,63C 135.833,62.3333 137.167,61.6667 138.5,61C 137.672,60.0853 136.672,59.4186 135.5,59C 136.167,58.6667 136.833,58.3333 137.5,58C 134.833,56.6667 134.833,55.3333 137.5,54C 136.636,51.9287 135.303,50.262 133.5,49C 136.544,48.6411 136.878,47.9745 134.5,47C 137.777,47.2012 141.111,47.3679 144.5,47.5 Z"/></g>
<g><path style="opacity:1" fill="#35a6fe" d="M 67.5,67.5 C 68.1894,68.7736 69.0228,68.7736 70,67.5C 71.722,70.535 71.722,73.8683 70,77.5C 68.984,78.6341 68.3173,78.3008 68,76.5C 66.5629,78.2212 67.0629,79.7212 69.5,81C 67.7397,81.9653 67.4063,83.132 68.5,84.5C 70.6267,82.3828 70.96,83.0494 69.5,86.5C 69.9767,87.4776 70.6433,88.3109 71.5,89C 70.8333,91 70.1667,93 69.5,95C 70.1667,95.3333 70.8333,95.6667 71.5,96C 69.6951,96.972 68.0284,98.1387 66.5,99.5C 72.2917,101.349 72.625,103.515 67.5,106C 67.9302,106.92 68.2635,107.753 68.5,108.5C 69.451,107.674 70.451,107.508 71.5,108C 70.1667,109.333 68.8333,110.667 67.5,112C 69.2928,114.776 70.9595,117.443 72.5,120C 70.5448,120.953 68.8782,122.287 67.5,124C 72.1782,124.197 72.5116,125.197 68.5,127C 69.6405,127.741 69.6405,128.575 68.5,129.5C 69.6034,129.998 70.6034,130.331 71.5,130.5C 70.3947,131.892 69.0614,133.059 67.5,134C 69.3937,135.079 69.727,136.413 68.5,138C 71.1667,138.667 71.1667,139.333 68.5,140C 70.8912,141.309 70.8912,142.309 68.5,143C 69.5833,144.529 70.5833,146.029 71.5,147.5C 71.0775,151.708 69.4109,155.708 66.5,159.5C 67.3569,160.425 68.3569,161.092 69.5,161.5C 67.8908,165.726 66.5575,170.06 65.5,174.5C 65.8274,179.841 68.1608,183.841 72.5,186.5C 71.0689,186.881 70.2355,187.881 70,189.5C 69.2825,188.549 68.4491,188.383 67.5,189C 67.088,192.437 68.7547,194.77 72.5,196C 71.3279,196.419 70.3279,197.085 69.5,198C 70.364,199.137 71.364,200.47 72.5,202C 71.9056,202.464 71.2389,202.631 70.5,202.5C 53.7042,189.583 42.3709,172.917 36.5,152.5C 35.2546,145.537 34.2546,138.537 33.5,131.5C 36.3662,105.772 47.6995,84.4389 67.5,67.5 Z"/></g>
<g><path style="opacity:1" fill="#2fbdfd" d="M 188.5,69.5 C 203.748,82.6621 213.915,98.9954 219,118.5C 219.49,117.207 219.657,115.873 219.5,114.5C 220.404,115.209 220.737,116.209 220.5,117.5C 221.577,131.532 219.91,145.199 215.5,158.5C 209.222,176.4 198.556,191.067 183.5,202.5C 184.765,198.424 184.765,194.591 183.5,191C 185.901,188.506 185.901,186.173 183.5,184C 186.365,182.642 186.865,180.809 185,178.5C 184.71,180.044 184.044,181.377 183,182.5C 182.283,181.956 181.783,181.289 181.5,180.5C 182.391,178.391 183.558,176.391 185,174.5C 186.44,168.805 185.274,163.805 181.5,159.5C 178.602,157.227 175.602,155.227 172.5,153.5C 173.838,150.824 175.171,148.158 176.5,145.5C 187.31,142.265 190.81,135.265 187,124.5C 184.297,121.066 180.797,119.066 176.5,118.5C 176.337,116.143 176.503,113.81 177,111.5C 178.74,110.284 179.74,108.618 180,106.5C 180.333,103.833 180.667,101.167 181,98.5C 183.594,96.2964 185.428,93.6297 186.5,90.5C 187.528,85.6291 186.861,80.9624 184.5,76.5C 185.153,75.1932 185.82,73.8599 186.5,72.5C 185.418,72.2514 184.085,72.0848 182.5,72C 184.991,71.3741 184.991,70.5407 182.5,69.5C 184.38,69.9298 186.38,69.9298 188.5,69.5 Z"/></g>
<g><path style="opacity:1" fill="#33a0f9" d="M 135.5,64.5 C 139.578,65.2029 142.578,67.3696 144.5,71C 154.833,71.3333 165.167,71.6667 175.5,72C 178.806,72.9862 181.806,74.4862 184.5,76.5C 186.861,80.9624 187.528,85.6291 186.5,90.5C 186.013,86.097 184.846,81.7636 183,77.5C 181.745,76.7894 180.579,75.956 179.5,75C 175.136,73.5991 170.803,73.0991 166.5,73.5C 166.36,74.5695 166.36,75.7361 166.5,77C 169.167,77.3333 171.833,77.6667 174.5,78C 162.505,78.4999 150.505,78.6665 138.5,78.5C 137.736,72.608 134.402,70.4413 128.5,72C 127.29,73.0391 126.29,74.2058 125.5,75.5C 124.596,76.209 124.263,77.209 124.5,78.5C 112.988,78.1719 101.654,78.5052 90.5,79.5C 86.1667,80.5 83.5,83.1667 82.5,87.5C 81.7732,107.349 81.1066,127.349 80.5,147.5C 78.9777,156.398 76.6443,165.065 73.5,173.5C 74.4068,180.456 78.0735,182.289 84.5,179C 85.8742,176.417 87.3742,173.917 89,171.5C 90.5444,174.689 93.0444,175.855 96.5,175C 102.875,171.953 108.708,168.119 114,163.5C 114.333,167.833 114.667,172.167 115,176.5C 116.077,181.115 118.91,182.615 123.5,181C 125.644,180.208 126.977,178.708 127.5,176.5C 128.493,168.35 128.826,160.017 128.5,151.5C 130.833,151.5 133.167,151.5 135.5,151.5C 135.334,159.84 135.5,168.173 136,176.5C 139.478,182.727 143.478,183.06 148,177.5C 148.333,172.5 148.667,167.5 149,162.5C 156.065,169.946 164.565,174.613 174.5,176.5C 171.149,177.01 167.816,178.177 164.5,180C 166.725,181.131 169.058,181.964 171.5,182.5C 173.673,181.418 175.673,181.418 177.5,182.5C 173.382,184.939 169.048,185.106 164.5,183C 161.705,181.7 159.039,180.2 156.5,178.5C 155.824,179.602 155.158,180.602 154.5,181.5C 148.178,189.124 140.511,190.457 131.5,185.5C 125.377,190.285 119.043,190.618 112.5,186.5C 110.497,183.825 108.497,181.158 106.5,178.5C 102.046,181.688 97.0456,183.188 91.5,183C 85.9027,188.753 79.5694,189.92 72.5,186.5C 68.1608,183.841 65.8274,179.841 65.5,174.5C 66.5575,170.06 67.8908,165.726 69.5,161.5C 71.2442,154.61 72.4109,147.61 73,140.5C 73.3333,122.833 73.6667,105.167 74,87.5C 75.8351,79.9872 80.3351,74.8206 87.5,72C 98.3412,71.8304 109.008,71.3304 119.5,70.5C 123.602,65.1437 128.935,63.1437 135.5,64.5 Z"/></g>
<g><path style="opacity:1" fill="#fcf1d7" d="M 138.5,78.5 C 150.993,79.3309 163.66,79.8309 176.5,80C 180.032,83.3899 180.366,87.0566 177.5,91C 169.611,92.4352 161.611,92.9352 153.5,92.5C 153.5,94.1667 153.5,95.8333 153.5,97.5C 158.844,97.334 164.177,97.5006 169.5,98C 173.631,102.026 173.298,105.693 168.5,109C 161.809,109.169 155.142,109.669 148.5,110.5C 153.132,111.328 157.798,111.828 162.5,112C 168.629,114.421 170.962,118.921 169.5,125.5C 172.649,125.211 175.649,125.711 178.5,127C 181.343,130.619 181.01,133.952 177.5,137C 174.854,137.497 172.187,137.664 169.5,137.5C 169.913,146.587 165.58,151.421 156.5,152C 162.484,157.479 169.15,161.979 176.5,165.5C 178.238,169.69 177.571,173.357 174.5,176.5C 164.565,174.613 156.065,169.946 149,162.5C 148.667,167.5 148.333,172.5 148,177.5C 143.478,183.06 139.478,182.727 136,176.5C 135.5,168.173 135.334,159.84 135.5,151.5C 133.052,150.527 130.385,150.194 127.5,150.5C 127.5,159.167 127.5,167.833 127.5,176.5C 126.977,178.708 125.644,180.208 123.5,181C 118.91,182.615 116.077,181.115 115,176.5C 114.667,172.167 114.333,167.833 114,163.5C 108.708,168.119 102.875,171.953 96.5,175C 93.0444,175.855 90.5444,174.689 89,171.5C 87.3742,173.917 85.8742,176.417 84.5,179C 78.0735,182.289 74.4068,180.456 73.5,173.5C 76.6443,165.065 78.9777,156.398 80.5,147.5C 81.29,146.391 81.79,145.058 82,143.5C 82.4999,124.836 82.6666,106.17 82.5,87.5C 83.5,83.1667 86.1667,80.5 90.5,79.5C 102.167,79.5 113.833,79.5 125.5,79.5C 125.5,78.1667 125.5,76.8333 125.5,75.5C 126.29,74.2058 127.29,73.0391 128.5,72C 134.402,70.4413 137.736,72.608 138.5,78.5 Z"/></g>
<g><path style="opacity:1" fill="#3ba4f8" d="M 186.5,90.5 C 185.428,93.6297 183.594,96.2964 181,98.5C 180.667,101.167 180.333,103.833 180,106.5C 179.74,108.618 178.74,110.284 177,111.5C 176.503,113.81 176.337,116.143 176.5,118.5C 180.797,119.066 184.297,121.066 187,124.5C 190.81,135.265 187.31,142.265 176.5,145.5C 175.171,148.158 173.838,150.824 172.5,153.5C 175.602,155.227 178.602,157.227 181.5,159.5C 185.274,163.805 186.44,168.805 185,174.5C 183.558,176.391 182.391,178.391 181.5,180.5C 179.938,180.733 178.605,181.4 177.5,182.5C 175.673,181.418 173.673,181.418 171.5,182.5C 169.058,181.964 166.725,181.131 164.5,180C 167.816,178.177 171.149,177.01 174.5,176.5C 177.571,173.357 178.238,169.69 176.5,165.5C 169.15,161.979 162.484,157.479 156.5,152C 165.58,151.421 169.913,146.587 169.5,137.5C 172.187,137.664 174.854,137.497 177.5,137C 181.01,133.952 181.343,130.619 178.5,127C 175.649,125.711 172.649,125.211 169.5,125.5C 170.962,118.921 168.629,114.421 162.5,112C 157.798,111.828 153.132,111.328 148.5,110.5C 155.142,109.669 161.809,109.169 168.5,109C 173.298,105.693 173.631,102.026 169.5,98C 164.177,97.5006 158.844,97.334 153.5,97.5C 153.5,95.8333 153.5,94.1667 153.5,92.5C 161.611,92.9352 169.611,92.4352 177.5,91C 180.366,87.0566 180.032,83.3899 176.5,80C 163.66,79.8309 150.993,79.3309 138.5,78.5C 150.505,78.6665 162.505,78.4999 174.5,78C 171.833,77.6667 169.167,77.3333 166.5,77C 166.36,75.7361 166.36,74.5695 166.5,73.5C 170.803,73.0991 175.136,73.5991 179.5,75C 180.579,75.956 181.745,76.7894 183,77.5C 184.846,81.7636 186.013,86.097 186.5,90.5 Z"/></g>
<g><path style="opacity:1" fill="#88beed" d="M 125.5,75.5 C 125.5,76.8333 125.5,78.1667 125.5,79.5C 113.833,79.5 102.167,79.5 90.5,79.5C 101.654,78.5052 112.988,78.1719 124.5,78.5C 124.263,77.209 124.596,76.209 125.5,75.5 Z"/></g>
<g><path style="opacity:1" fill="#c4d8e3" d="M 82.5,87.5 C 82.6666,106.17 82.4999,124.836 82,143.5C 81.79,145.058 81.29,146.391 80.5,147.5C 81.1066,127.349 81.7732,107.349 82.5,87.5 Z"/></g>
<g><path style="opacity:1" fill="#2c9dfa" d="M 138.5,96.5 C 133.737,96.7744 129.07,96.441 124.5,95.5C 124.586,94.5041 124.252,93.6708 123.5,93C 129.196,92.1701 134.863,92.3368 140.5,93.5C 140.058,94.7387 139.391,95.7387 138.5,96.5 Z"/></g>
<g><path style="opacity:1" fill="#2f9cfa" d="M 110.5,92.5 C 110.5,93.8333 110.5,95.1667 110.5,96.5C 106.629,96.185 102.962,96.5184 99.5,97.5C 98.1667,98.1667 97.1667,99.1667 96.5,100.5C 95.5386,98.7354 95.2053,96.7354 95.5,94.5C 95.6107,93.8826 95.944,93.3826 96.5,93C 101.155,92.5008 105.821,92.3342 110.5,92.5 Z"/></g>
<g><path style="opacity:1" fill="#85beee" d="M 110.5,92.5 C 111.451,93.9187 111.784,95.5853 111.5,97.5C 107.5,97.5 103.5,97.5 99.5,97.5C 102.962,96.5184 106.629,96.185 110.5,96.5C 110.5,95.1667 110.5,93.8333 110.5,92.5 Z"/></g>
<g><path style="opacity:1" fill="#7cbbef" d="M 124.5,95.5 C 129.07,96.441 133.737,96.7744 138.5,96.5C 136.359,97.1633 134.025,97.4966 131.5,97.5C 128.731,97.4714 126.397,96.8048 124.5,95.5 Z"/></g>
<g><path style="opacity:1" fill="#90c2ec" d="M 95.5,94.5 C 95.2053,96.7354 95.5386,98.7354 96.5,100.5C 96.5,102.5 96.5,104.5 96.5,106.5C 95.5104,112.31 95.1771,118.31 95.5,124.5C 101.833,124.5 108.167,124.5 114.5,124.5C 108.021,125.491 101.354,125.824 94.5,125.5C 94.1724,114.986 94.5058,104.653 95.5,94.5 Z"/></g>
<g><path style="opacity:1" fill="#339ef9" d="M 96.5,106.5 C 97.0577,107.79 98.0577,108.623 99.5,109C 104.533,109.171 109.533,109.671 114.5,110.5C 110.204,111.328 105.871,111.828 101.5,112C 97.5,115.667 97.5,119.333 101.5,123C 106.019,123.175 110.353,123.675 114.5,124.5C 108.167,124.5 101.833,124.5 95.5,124.5C 95.1771,118.31 95.5104,112.31 96.5,106.5 Z"/></g>
<g><path style="opacity:0.937" fill="#a5d4fe" d="M 242.5,105.5 C 244.045,111.419 244.711,117.586 244.5,124C 244.499,128.68 244.166,133.18 243.5,137.5C 243.61,126.815 243.277,116.148 242.5,105.5 Z"/></g>
<g><path style="opacity:1" fill="#d9ecfc" d="M 34.5,113.5 C 33.6932,119.464 33.3599,125.464 33.5,131.5C 34.2546,138.537 35.2546,145.537 36.5,152.5C 35.7321,151.737 35.2321,150.737 35,149.5C 40.0502,182.568 57.5502,206.735 87.5,222C 128.267,237.78 164.434,230.613 196,200.5C 205.135,189.709 212.135,177.709 217,164.5C 217.667,162.167 217.667,159.833 217,157.5C 216.617,158.056 216.117,158.389 215.5,158.5C 219.91,145.199 221.577,131.532 220.5,117.5C 221.327,122.985 221.827,128.652 222,134.5C 222.324,126.09 222.491,117.757 222.5,109.5C 223.167,108.167 223.833,108.167 224.5,109.5C 223.41,110.609 223.41,111.609 224.5,112.5C 226.134,112.032 227.3,111.032 228,109.5C 229.333,110.833 230.667,110.833 232,109.5C 232.415,111.291 233.415,112.624 235,113.5C 236.12,110.611 237.787,108.944 240,108.5C 240.456,109.744 239.956,110.577 238.5,111C 240.487,112.319 241.654,114.152 242,116.5C 242.171,124.344 242.671,132.011 243.5,139.5C 238.886,177.937 220.22,207.437 187.5,228C 146.709,250.312 106.042,249.979 65.5,227C 33.7291,206.383 15.7291,177.216 11.5,139.5C 12.329,132.011 12.829,124.344 13,116.5C 13.7504,115.874 14.5838,115.374 15.5,115C 13.503,113.847 13.1696,112.347 14.5,110.5C 15.8425,111.902 16.6758,111.569 17,109.5C 18.5122,110.257 19.8455,111.257 21,112.5C 22.2988,112.034 23.7988,112.034 25.5,112.5C 25.3505,111.448 25.5172,110.448 26,109.5C 27.016,110.634 27.6827,110.301 28,108.5C 28.9078,110.439 30.4078,111.439 32.5,111.5C 31.4469,118.464 31.2803,125.464 32,132.5C 32.3333,127.167 32.6667,121.833 33,116.5C 33.2321,115.263 33.7321,114.263 34.5,113.5 Z"/></g>
<g><path style="opacity:1" fill="#88c0ed" d="M 135.5,151.5 C 133.167,151.5 130.833,151.5 128.5,151.5C 128.826,160.017 128.493,168.35 127.5,176.5C 127.5,167.833 127.5,159.167 127.5,150.5C 130.385,150.194 133.052,150.527 135.5,151.5 Z"/></g>
<g><path style="opacity:1" fill="#b0d0e6" d="M 101.5,150.5 C 104.247,150.187 106.914,150.52 109.5,151.5C 109.376,152.107 109.043,152.44 108.5,152.5C 106.167,151.833 103.833,151.167 101.5,150.5 Z"/></g>
<g><path style="opacity:1" fill="#38a0f9" d="M 114.5,138.5 C 109.906,139.115 105.239,139.949 100.5,141C 97.627,144.579 97.9603,147.745 101.5,150.5C 103.833,151.167 106.167,151.833 108.5,152.5C 103.647,157.256 97.9808,160.423 91.5,162C 93.0902,155.288 94.0902,148.454 94.5,141.5C 95.404,140.791 95.7373,139.791 95.5,138.5C 101.833,138.5 108.167,138.5 114.5,138.5 Z"/></g>
<g><path style="opacity:1" fill="#7cb8f0" d="M 148.5,137.5 C 150.924,137.192 153.257,137.526 155.5,138.5C 154.333,138.833 153.167,139.167 152,139.5C 150.319,139.392 149.152,138.725 148.5,137.5 Z"/></g>
<g><path style="opacity:1" fill="#7ab6f0" d="M 127.5,137.5 C 130.247,137.187 132.914,137.52 135.5,138.5C 134.167,138.833 132.833,139.167 131.5,139.5C 129.667,139.415 128.334,138.748 127.5,137.5 Z"/></g>
<g><path style="opacity:1" fill="#8ec1ec" d="M 114.5,138.5 C 108.167,138.5 101.833,138.5 95.5,138.5C 95.7373,139.791 95.404,140.791 94.5,141.5C 94.5,140.167 94.5,138.833 94.5,137.5C 101.354,137.176 108.021,137.509 114.5,138.5 Z"/></g>
<g><path style="opacity:1" fill="#80b6f0" d="M 148.5,122.5 C 150.857,122.337 153.19,122.503 155.5,123C 155.957,123.414 156.291,123.914 156.5,124.5C 153.914,125.48 151.247,125.813 148.5,125.5C 148.5,124.5 148.5,123.5 148.5,122.5 Z"/></g>
<g><path style="opacity:1" fill="#7cb4f1" d="M 127.5,122.5 C 130.167,122.5 132.833,122.5 135.5,122.5C 135.5,123.5 135.5,124.5 135.5,125.5C 132.833,125.5 130.167,125.5 127.5,125.5C 127.5,124.5 127.5,123.5 127.5,122.5 Z"/></g>
<g><path style="opacity:1" fill="#43a4f7" d="M 127.5,109.5 C 130.247,109.187 132.914,109.52 135.5,110.5C 134.167,110.833 132.833,111.167 131.5,111.5C 129.667,111.415 128.334,110.748 127.5,109.5 Z"/></g>
<g><path style="opacity:1" fill="#f0fafe" d="M 36.5,152.5 C 42.3709,172.917 53.7042,189.583 70.5,202.5C 81.7709,211.824 94.7709,217.49 109.5,219.5C 125.634,222.714 141.634,221.714 157.5,216.5C 167.099,213.37 175.766,208.703 183.5,202.5C 198.556,191.067 209.222,176.4 215.5,158.5C 216.117,158.389 216.617,158.056 217,157.5C 217.667,159.833 217.667,162.167 217,164.5C 212.135,177.709 205.135,189.709 196,200.5C 164.434,230.613 128.267,237.78 87.5,222C 57.5502,206.735 40.0502,182.568 35,149.5C 35.2321,150.737 35.7321,151.737 36.5,152.5 Z"/></g>
<g><path style="opacity:1" fill="#32b8fd" d="M 177.5,182.5 C 178.605,181.4 179.938,180.733 181.5,180.5C 181.783,181.289 182.283,181.956 183,182.5C 184.044,181.377 184.71,180.044 185,178.5C 186.865,180.809 186.365,182.642 183.5,184C 185.901,186.173 185.901,188.506 183.5,191C 184.765,194.591 184.765,198.424 183.5,202.5C 175.766,208.703 167.099,213.37 157.5,216.5C 155.882,215.549 154.549,214.216 153.5,212.5C 157.077,211.886 157.077,210.553 153.5,208.5C 154.262,208.089 155.262,207.923 156.5,208C 155.833,207.333 155.167,206.667 154.5,206C 154.953,202.773 155.953,199.773 157.5,197C 156.5,196.667 155.5,196.333 154.5,196C 154.833,195.667 155.167,195.333 155.5,195C 154.687,193.686 153.687,192.519 152.5,191.5C 152.938,190.494 153.604,190.494 154.5,191.5C 156.973,189.758 156.973,187.925 154.5,186C 155.413,184.586 155.413,183.086 154.5,181.5C 155.158,180.602 155.824,179.602 156.5,178.5C 159.039,180.2 161.705,181.7 164.5,183C 169.048,185.106 173.382,184.939 177.5,182.5 Z"/></g>
<g><path style="opacity:1" fill="#35acfe" d="M 112.5,186.5 C 111.624,186.369 110.957,186.702 110.5,187.5C 111.5,189.5 112.5,191.5 113.5,193.5C 112.91,194.799 111.91,195.632 110.5,196C 111.424,196.85 111.424,197.85 110.5,199C 111.444,200.477 112.777,201.477 114.5,202C 113.552,202.483 112.552,202.649 111.5,202.5C 111.38,204.734 111.713,206.901 112.5,209C 110.672,210.506 110.338,212.173 111.5,214C 110.833,214.333 110.167,214.667 109.5,215C 112.106,216.65 112.106,218.15 109.5,219.5C 94.7709,217.49 81.7709,211.824 70.5,202.5C 71.2389,202.631 71.9056,202.464 72.5,202C 71.364,200.47 70.364,199.137 69.5,198C 70.3279,197.085 71.3279,196.419 72.5,196C 68.7547,194.77 67.088,192.437 67.5,189C 68.4491,188.383 69.2825,188.549 70,189.5C 70.2355,187.881 71.0689,186.881 72.5,186.5C 79.5694,189.92 85.9027,188.753 91.5,183C 97.0456,183.188 102.046,181.688 106.5,178.5C 108.497,181.158 110.497,183.825 112.5,186.5 Z"/></g>
<g><path style="opacity:1" fill="#32b2fe" d="M 154.5,181.5 C 155.413,183.086 155.413,184.586 154.5,186C 156.973,187.925 156.973,189.758 154.5,191.5C 153.604,190.494 152.938,190.494 152.5,191.5C 153.687,192.519 154.687,193.686 155.5,195C 155.167,195.333 154.833,195.667 154.5,196C 155.5,196.333 156.5,196.667 157.5,197C 155.953,199.773 154.953,202.773 154.5,206C 155.167,206.667 155.833,207.333 156.5,208C 155.262,207.923 154.262,208.089 153.5,208.5C 157.077,210.553 157.077,211.886 153.5,212.5C 154.549,214.216 155.882,215.549 157.5,216.5C 141.634,221.714 125.634,222.714 109.5,219.5C 112.106,218.15 112.106,216.65 109.5,215C 110.167,214.667 110.833,214.333 111.5,214C 110.338,212.173 110.672,210.506 112.5,209C 111.713,206.901 111.38,204.734 111.5,202.5C 112.552,202.649 113.552,202.483 114.5,202C 112.777,201.477 111.444,200.477 110.5,199C 111.424,197.85 111.424,196.85 110.5,196C 111.91,195.632 112.91,194.799 113.5,193.5C 112.5,191.5 111.5,189.5 110.5,187.5C 110.957,186.702 111.624,186.369 112.5,186.5C 119.043,190.618 125.377,190.285 131.5,185.5C 140.511,190.457 148.178,189.124 154.5,181.5 Z"/></g>
</svg>
