<?xml version="1.0"?><svg xmlns="http://www.w3.org/2000/svg" width="36" height="36" shape-rendering="geometricPrecision" text-rendering="geometricPrecision" image-rendering="optimizeQuality" fill-rule="evenodd" clip-rule="evenodd" viewBox="0 0 36 36"><path fill="#fdfdfc" d="m-0.1-0.1h12.6v0.6c0.3 0 0.6 0 0.8 0.1 0.3 0.7 0.8 1.2 1.5 1.5 0.5 0.4 0.4 0.7-0.2 0.9l-0.1-0.1c-0.3 0.1-0.5 0.2-0.8 0.2 0.3 0.2 0.3 0.4 0 0.5 0.2 0.7 0 1.3-0.6 1.9 0.1 0 0.1 0.1 0.2 0.1-0.1 0.2 0 0.2 0.2 0.1 0.2 0 0.3 0.1 0.5 0.2-0.1 0.2-0.1 0.4-0.1 0.5 0.1 0.1 0.2 0 0.3-0.2 0 0.1 0.1 0.2 0.1 0.3 0.2 0.8 0.3 1.6 0.3 2.4 0.1 0.2 0.3 0.1 0.4-0.1 0.2 0.3 0.4 0.5 0.7 0.6 0.1-0.1 0.2-0.1 0.3 0 0 0.1-0.1 0.1-0.2 0.2l0.5 0.1c-0.1 0.2-0.2 0.5-0.4 0.7-0.1-0.2-0.2-0.3-0.4-0.1l0.2 0.2c-0.3 0-0.5 0.1-0.6 0.4 0.4 0.4 0.6 0.4 0.8-0.2 0 0.2 0.1 0.3 0.2 0.2 0.1 0.3 0.1 0.6 0 0.9-0.1-0.2-0.2-0.3-0.2-0.5-0.2 0.3-0.3 0.3-0.4 0-0.1 0.2-0.2 0.3-0.4 0.1-0.7 0.5-0.6 0.9 0.3 1.2-0.4 0.1-0.7 0.2-1.1 0.3 0-0.3 0-0.6 0.2-0.9-0.2 0-0.3 0-0.4 0-0.1-0.6-0.1-1.1 0-1.6-0.2-0.3-0.3-0.2-0.2 0.1-0.1 0-0.2 0-0.3 0-0.1-0.5-0.1-1 0.1-1.6 0.1 0.1 0.2 0.2 0.4 0.3 0.2-0.4 0.2-0.9 0.2-1.4-0.1 0.1-0.3 0.1-0.4 0.1-0.1 0.4-0.3 0.4-0.6 0.1l-0.3 0.3-0.1-0.7c0-0.1-0.1-0.1-0.1-0.1v-0.4h-0.5c0.2-0.2 0.3-0.5 0.2-0.9-0.4 0-0.5-0.2-0.3-0.6 0-0.2-0.1-0.2-0.3-0.3-0.3 0.2-0.5 0.3-0.8 0.5l-0.2-0.3c-0.2 0-0.4 0-0.6 0 0.1-0.1 0.1-0.2-0.1-0.3-0.1 0.1-0.2 0.2-0.2 0.3l-1.1-0.3c-0.7 0.2-1.5 0.2-2.2 0.1 0.1-0.7 0.1-0.7-0.3-0.1-0.1-0.1-0.2 0-0.3 0.2 0.1 0.2 0.2 0.3 0.4 0.4-0.2 0.1-0.4 0.1-0.6-0.1-0.1 0.3-0.3 0.5-0.6 0.5 0.4 0.2 0.6 0.3 0.7 0.6-0.1 0.1-0.1 0.1-0.2 0.1l-0.2-0.3c-0.1 0-0.2 0.1-0.2 0.2l-0.1-0.1c-0.1 0.2-0.2 0.5-0.3 0.7 0 0.3 0.2 0.3 0.4 0.1 0 0.6 0.1 1.1 0.3 1.7 0.1 0.5 0.1 0.9 0 1.4 0 0.1-0.1 0.1-0.1 0.1-0.1-0.1-0.3-0.3-0.4-0.4-0.1 0.1-0.2 0.1-0.3 0-0.2 0.1-0.3 0.2-0.1 0.3-0.7 0-1.1 0.3-1.3 0.9 0.3 0.3 0.6 0.5 0.8 0.8 0.2 0 0.2-0.1 0-0.1 0.4-0.2 0.7-0.3 1-0.3 0-0.5 0.2-0.6 0.5-0.3 0 0.1-0.1 0.2-0.1 0.4 0.3 0.2 0.3 0.4 0.2 0.7 0.5 0.3 0.4 0.5-0.2 0.5v0.4c0.2-0.1 0.3 0 0.3 0.2-0.2 0.1-0.4 0.1-0.7 0.1 0.1-0.1 0-0.2 0-0.3l-0.1 0.1c-0.1-0.1-0.1-0.2-0.2-0.3-0.2 0.1-0.5 0.1-0.8 0.1-0.1 0.1-0.2 0.1-0.3 0.3 0-0.1-0.1-0.1-0.1-0.1-0.4 0.4-0.3 0.7 0.2 0.9 0 0.1-0.1 0.1-0.2 0 0 0.2-0.1 0.3-0.3 0.3-0.3-0.2-0.5-0.4-0.6-0.6l-0.5 0.4c0.1 0.3 0.3 0.6 0.6 0.8-0.1 0-0.2 0.1-0.2 0.1 0.1 0.3 0 0.5-0.3 0.7 0.1 0 0.2 0.1 0.3 0.1-0.3 0.1-0.3 0.3 0 0.4-0.2 0.1-0.3 0.4-0.3 0.6 0.1 0.4 0.2 0.8 0.4 1.2-0.1 0.3 0 0.7 0.1 1 0.2 0.2 0.4 0.4 0.6 0.7 0.4 0.1 0.9 0.2 1.3 0.3 0 0.2 0 0.2 0.1 0.3 1 0.5 2 0.6 3.1 0.5 0.2 0.2 0.4 0.3 0.7 0.1 0.1 0.2 0.2 0.3 0.1 0.5-0.3 0-0.7 0.1-1 0.3-0.2-0.3-0.3-0.3-0.5-0.1l0.3 0.1c-0.4 0.2-0.5 0.5-0.6 0.9-0.1 0.1-0.2 0.2-0.4 0.1h-0.6c0 0.2 0 0.3 0.1 0.4l-0.3 0.2c0.1 0.1 0.2 0.2 0.3 0.4-0.2 0.1-0.3 0.3-0.2 0.6-0.1 0.1-0.2 0.3-0.3 0.4 0.1 0.5 0.1 0.9 0 1.4-0.2 0-0.2 0.1-0.3 0.2-0.1-0.2-0.1-0.2-0.3 0 0.2 0.3 0.4 0.4 0.6 0.3 0.2 0.1 0.4 0.2 0.7 0.3l0.3 0.5c0.1 0.1 0.2 0 0.3-0.2 0 0.2 0.1 0.3 0.1 0.4 0.1 0.1 0.2 0.1 0.4 0.1 0 0.2 0.1 0.3 0.2 0.4 0.3 0.2 0.5 0.2 0.8 0.2-0.3 0.2-0.3 0.3 0.1 0.5 0.5 0 1 0 1.5 0.1 0.2-0.1 0.5-0.2 0.9-0.2-0.1-0.2-0.2-0.3-0.1-0.4h0.5v-0.4h0.4v-0.3h0.3c0.3-0.3 0.6-0.4 1-0.5 0-0.1-0.1-0.1-0.1-0.2 0.1-0.3 0.1-0.7 0.2-1 0.1 0.2 0.3 0.4 0.6 0.6-0.2 0.2-0.2 0.3 0.1 0.5-0.1 0-0.2 0.1-0.2 0.1 0.1 0.8 0.2 1.6 0.2 2.4 0.1-0.3 0.2-0.3 0.2 0-0.1 0.4 0 0.7 0.3 0.9 0-0.1 0.1-0.1 0.2-0.1 0 0.1 0.2 0.1 0.3 0.1 0 0.2 0.1 0.4 0.2 0.5-0.1 0.1-0.2 0.2-0.3 0.1-0.2-0.1-0.2-0.1 0-0.2-0.2-0.1-0.3-0.1-0.5-0.1 0 0.6 0.2 0.9 0.7 1.1l-0.1 0.1c0.1 0.2 0.2 0.4 0.5 0.6 0.2-0.1 0.4-0.1 0.6 0 0.1 0 0.2-0.1 0.4-0.1-0.1-0.1-0.2-0.2-0.1-0.3 0.5 0.2 0.9 0.2 1.4 0.1 0.5 0 0.8 0.1 1 0.5-0.2 0.1-0.5 0.1-0.8 0.1 0.1 0.3 0 0.5-0.3 0.7 0.4 0.3 0.8 0.3 1.3 0.2 0.1 0.1 0.1 0.2-0.1 0.4 0.3 0 0.5 0.2 0.6 0.5 0.1 0.1 0.2 0.1 0.3 0.1v0.5c0.6 0 1.1 0 1.6 0.1h-21.4v-36z"></path><path fill="#fcfcfc" d="m12.5-0.1h23.4v15.5c-0.2 0-0.5 0.2-0.7 0.4-0.3 0-0.6 0-0.8 0-0.2-0.1-0.3-0.3-0.3-0.5-0.1-0.1-0.3-0.1-0.4 0.1 0 0.1-0.1 0.3-0.2 0.4l-0.3-0.1c-0.3 0.5-0.4 1.1-0.2 1.7 0.1 0 0.2 0 0.4 0-0.1 0.4-0.2 0.7-0.4 1-0.1-0.3-0.1-0.6-0.2-0.8 0-0.4 0-0.8-0.1-1.2-0.2 0-0.4-0.1-0.5-0.3 0.1-0.2 0-0.3-0.2-0.4v-0.2c-0.2-0.6-0.6-0.9-1.2-0.8v-0.4c-0.5 0-1-0.1-1.4-0.2-0.5 0.1-0.9 0.2-1.3 0.4 0 0.1-0.1 0.2-0.3 0.2h-0.4v0.4h-0.3c-0.2 0.3-0.3 0.6-0.5 0.9-0.1 0.2-0.1 0.5-0.1 0.7h-2.4c-0.3 0.5-0.4 1.1-0.3 1.7-0.1 0.1-0.2 0.2-0.2 0.3 0 0.4 0 0.7 0 1-0.3 0-0.5 0-0.7-0.2 0.1-0.9 0.1-1.9 0.2-2.8 0 0.1 0.1 0.1 0.1 0l-0.3-0.3h-0.1c-0.1-0.3-0.1-0.6-0.1-0.9 0.3-0.1 0.3-0.2 0-0.3 0.1 0 0.1-0.1 0.2-0.2l-0.5-0.3c0.2-0.2 0.2-0.4 0-0.6 1.1 0.2 1.5-0.2 1.3-1.2 0.1-0.2 0.2-0.3 0.4-0.4 0.1 0.2 0.2 0.2 0.4 0 0.1 0.5 0.1 0.8-0.1 1.2 0.2 0.1 0.3-0.1 0.3-0.4h0.4c0.1-0.2 0-0.4-0.1-0.5 0.2-0.2 0.3-0.2 0.5-0.1-0.1 0.1-0.1 0.2 0 0.3 0.5-0.2 0.8-0.1 1.2 0.2 0-0.3 0.1-0.5 0.2-0.8h0.2c0.3-0.1 0.6-0.2 1-0.2v-0.4l0.6-0.3c-0.2 0.3-0.4 0.6-0.4 0.9-0.3 0-0.4 0.1-0.1 0.1 0.2-0.1 0.3-0.1 0.5-0.1 0.5 0.2 1.1 0.4 1.6 0.5l-1.6 0.3c0.3 0.3 0.6 0.3 0.9 0 0.5 0.4 0.8 0.3 1-0.2 0.4 0.3 0.7 0.2 1-0.1l0.2 0.1c0 0.2 0 0.4-0.1 0.6 0.2-0.1 0.4-0.2 0.6-0.2 0 0.2 0.1 0.4 0.2 0.5 0.1-0.1 0.2-0.1 0.2 0 0.3-0.1 0.3-0.3 0.3-0.6-0.3 0.1-0.6 0-0.8-0.3 0.1-0.1 0.2-0.2 0.4-0.3-0.3-0.4-0.4-0.8-0.3-1.3 0.1 0.4 0.3 0.4 0.6 0.2 0.1-0.2 0.1-0.3 0.1-0.5-0.1-1.3-0.2-2.6-0.4-4-0.1 0.5-0.4 0.6-0.6 0.2-0.2-0.1-0.5-0.2-0.8-0.2-0.4-0.8-0.6-0.8-0.7 0h0.6c0 0.3 0 0.5 0 0.7-0.2 0.3-0.3 0.2-0.3-0.3-0.3 0-0.4 0-0.6 0.2 0-0.2-0.1-0.4-0.1-0.6-0.2 0.4-0.1 0.6 0.1 0.9-0.1 0-0.2 0.1-0.2 0.2 0 0.2 0.1 0.5 0.3 0.7-0.2 0.1-0.4 0.1-0.5 0.2 0-0.3 0.1-0.5 0.1-0.7-0.3-0.1-0.5-0.2-0.7-0.3l0.1-0.1c-0.4-0.5-0.7-1.1-0.9-1.7 0.1-0.1 0.2-0.1 0.3-0.1 0.1-0.6-0.2-0.7-0.6-0.4-0.4 0.1-0.7 0.1-1 0.1-0.7-0.1-1.3-0.1-2-0.1v0.4c-0.3 0-0.7 0.1-1 0.4-0.4 0-0.5 0.3-0.5 0.7v0.2h-0.5c-0.1 0-0.1 0.1-0.2 0.2-0.2 1-0.2 1.9 0 2.8 0.1 0.1 0.2 0.2 0.2 0.4 0 0.3-0.2 0.5-0.5 0.5v0.4h-0.4v0.4h-0.3c-0.2 0.2-0.2 0.4 0 0.6-0.1 0.2-0.3 0.5-0.5 0.6-0.3-0.2-0.3-0.4 0-0.6-0.7 0-1.3-0.2-1.8-0.6-0.1 0-0.2 0.1-0.2 0.2h-0.2c0-0.2-0.1-0.2-0.3-0.1-0.6-0.1-1.3-0.2-2-0.3 0.1-0.1 0.2-0.3 0.3-0.5l0.2 0.1c0.3 0 0.7-0.1 1.1-0.1l-1.7-0.1c0.6-0.1 1.2-0.1 1.8-0.2v-1.9c0.1-0.2 0.3-0.3 0.4-0.4 0.2-0.1 0.4-0.1 0.6-0.1v-0.3h0.1c0.2-0.2 0.3-0.2 0.5-0.2h0.4v-0.7h0.4c0.1-0.6 0.2-1.2 0.2-1.8-0.1-0.6-0.2-1.2-0.2-1.8h-0.7c0.1-0.4-0.1-0.6-0.4-0.7h-0.3c-0.1-0.2-0.3-0.3-0.6-0.3 0-0.2-0.1-0.3-0.3-0.4-0.6-0.1-1.3-0.1-2 0-0.3 0.3-0.7 0.5-1.1 0.4 0.1 0.1 0.1 0.2 0.1 0.3v0.2h-0.5v0.5c0.1 0.2 0 0.3-0.2 0.3-0.3 0.3-0.4 0.6-0.3 1-0.1 0.2-0.2 0.2-0.3 0-0.1 0.4-0.1 0.8-0.1 1.2 0-0.1-0.1-0.2-0.1-0.3-0.1 0.2-0.2 0.3-0.3 0.2 0-0.1 0-0.3 0.1-0.5-0.2-0.1-0.3-0.2-0.5-0.2-0.2 0.1-0.3 0.1-0.2-0.1-0.1 0-0.1-0.1-0.2-0.1 0.6-0.6 0.8-1.2 0.6-1.9 0.3-0.1 0.3-0.3 0-0.5 0.3 0 0.5-0.1 0.8-0.2l0.1 0.1c0.6-0.2 0.7-0.5 0.2-0.9-0.7-0.3-1.2-0.8-1.5-1.5-0.2-0.1-0.5-0.1-0.8-0.1v-0.6z"></path><path fill="#c1c5e0" d="m19.6 3.3l-0.9-0.2h-0.1v-0.5h-1.7v0.4c-0.1 0-0.2 0-0.2 0.1-0.2 0-0.4 0-0.4 0.2h-0.6c0-0.1 0-0.2-0.1-0.3 0.4 0.1 0.8-0.1 1.1-0.4 0.7-0.1 1.4-0.1 2 0 0.2 0.1 0.3 0.2 0.3 0.4 0.3 0 0.5 0.1 0.6 0.3z"></path><path fill="#7173a4" d="m17.7 2.6c0 0.2 0 0.2-0.1 0.3-0.2 0.1-0.4 0.1-0.7 0.1v-0.4h0.8z"></path><path fill="#696b95" d="m17.8 2.6h0.8v0.4c-0.3 0-0.6-0.1-0.8-0.4z"></path><path fill="#454791" d="m17.7 2.6h0.1c0.2 0.3 0.5 0.4 0.8 0.4v0.1h-1.9c0-0.1 0.1-0.1 0.2-0.1 0.3 0 0.5 0 0.7-0.1 0.1-0.1 0.1-0.1 0.1-0.3z"></path><path fill="#606299" d="m15.7 3.3h0.6c-0.2 0.2-0.4 0.3-0.6 0.2v-0.2z"></path><path fill="#333373" d="m18.7 3.1l0.9 0.2h0.3v0.4c-0.3-0.1-0.6-0.1-0.8-0.2-0.1-0.1-0.2-0.3-0.4-0.4z"></path><path fill="#7c7fb0" d="m15.7 3.5v0.5h-0.5v-0.5h0.5z"></path><path fill="#23237c" d="m16.7 3.1h2c0.2 0.1 0.3 0.3 0.4 0.4-0.6-0.1-1.1-0.2-1.7-0.3-0.4 0-0.7 0.1-1 0.3-0.3 0.4-0.6 0.7-0.9 0.9-0.1 0.2-0.2 0.3-0.2 0.5-0.1-0.1-0.2-0.1-0.3-0.1v-0.5c0.2 0 0.3-0.1 0.2-0.3h0.5v-0.5c0.2 0.1 0.4 0 0.6-0.2 0-0.2 0.2-0.2 0.4-0.2z"></path><path fill="#8a8dc4" d="m15 4.3v0.7c-0.1 0.3-0.2 0.6-0.2 0.9 0 0.4 0.1 0.7 0.2 0.9v0.5h-0.3v-2c-0.1-0.4 0-0.7 0.3-1z"></path><path fill="#272777" d="m19.9 3.7h0.3v0.4c0.5 0.2 0.8 0.6 0.7 1.2v1.2c0 0.3 0 0.6-0.3 0.8 0.1-0.8 0.2-1.5 0.2-2.3h-0.4c0-0.5-0.2-0.9-0.7-1.1 0.1-0.1 0.1-0.2 0.2-0.2z"></path><path fill="#191b85" d="m16.4 3.5c-0.1 0.4 0.1 0.6 0.4 0.6 0.6 0 1.1-0.1 1.7-0.3 0.3 0.2 0.4 0.4 0.5 0.8h-0.4c0-0.2 0-0.2-0.1-0.3-0.3-0.1-0.7-0.1-1 0-0.1 0-0.2 0.1-0.2 0.3h-0.4c-0.1-0.1-0.3 0-0.3 0.2-0.1 0.1-0.3 0.2-0.5 0.2 0.1-0.2 0.2-0.4 0.4-0.6-0.1-0.1-0.2-0.2-0.4-0.3-0.3 0.4-0.6 0.8-0.8 1.2-0.3 0.7-0.2 1.4 0.3 1.9-0.1 0-0.1 0.1-0.1 0.2-0.1-0.2-0.3-0.3-0.5-0.3v-2.3c0.1 0 0.2 0 0.3 0.1 0-0.2 0.1-0.3 0.2-0.5 0.3-0.2 0.6-0.5 0.9-0.9z"></path><path fill="#37398f" d="m15 5v1.8c-0.1-0.2-0.2-0.5-0.2-0.9 0-0.3 0.1-0.6 0.2-0.9z"></path><path fill="#6f72b1" d="m20.9 5.3c0.3 0.4 0.3 0.8 0 1.2v-1.2z"></path><path fill="#b3b7e6" d="m14.7 5.3v1.2c-0.1-0.1-0.2-0.2-0.2-0.3 0 0.1-0.1 0.2-0.2 0.3 0-0.4 0-0.8 0.1-1.2 0.1 0.2 0.2 0.2 0.3 0z"></path><path fill="#adb0d7" d="m27.1 5.9c0 0.1 0 0.2 0.1 0.3h-0.7v-0.3h-0.7v0.3h-0.7v-0.4c0.7 0 1.3 0 2 0.1z"></path><path fill="#4d4e8f" d="m27.2 6.2c0.2 0.1 0.4 0.3 0.5 0.4-0.4-0.2-0.9-0.2-1.4-0.2h-0.5c-0.6-0.1-1.1 0-1.6 0.2v0.3h-0.3c0.1-0.1 0.2-0.2 0.2-0.3 0.3-0.3 0.7-0.4 1-0.4h0.7v-0.3h0.7v0.3h0.7z"></path><path fill="#16188c" d="m11.3 6.8h0.1c0 0.1-0.1 0.2-0.1 0.2 0.3 0.4 0.5 0.8 0.7 1.3-0.1-0.1-0.2-0.2-0.2-0.3l-0.1 0.2c-0.2-0.4-0.4-0.7-0.5-1l-0.7-0.1c0.1 0 0.2-0.1 0.2-0.2-0.4-0.1-0.8-0.1-1.2 0 0.3 0 0.6 0 0.9 0 0.2 0.3 0.3 0.6 0.3 0.9h-0.3v-0.3c-0.5 0-1 0-1.5 0-0.2 0.1-0.3 0.2-0.4 0.4-0.2 0.2-0.4 0.3-0.6 0.4-0.1 0.5-0.1 1-0.1 1.5-0.1-0.2-0.1-0.4-0.1-0.6-0.2-0.1-0.4 0-0.6 0.3 0.1 0.5 0.2 1 0.5 1.5 0.6 0.5 1.2 0.8 2 1 0.2 0 0.4-0.1 0.6-0.1 0 0-0.1 0.1-0.1 0.1-0.5 0.1-0.9 0.1-1.4 0.1h-0.1c-0.1-0.1-0.3-0.2-0.4-0.2-0.2-0.4-0.5-0.7-0.8-0.9-0.3-0.5-0.5-0.9-0.7-1.4-0.1-0.5 0-0.9 0.4-1.2 0.1-0.4 0.3-0.9 0.5-1.3 0.7-0.5 1.5-0.8 2.4-0.7 0.5 0.1 0.9 0.2 1.3 0.4z"></path><path fill="#9fa2cc" d="m24.1 6.6c0 0.1-0.1 0.2-0.2 0.3v0.4h-0.3c0-0.4 0.1-0.7 0.5-0.7z"></path><path fill="#151691" d="m19.1 3.5c0.2 0.1 0.5 0.1 0.8 0.2-0.1 0-0.1 0.1-0.2 0.2 0.5 0.2 0.7 0.6 0.7 1.1 0.1 0.3 0.2 0.7 0.2 1.1 0 0.3-0.1 0.5-0.3 0.6 0.1 0.1 0.1 0.2 0.1 0.3-0.5 0.6-1.1 1.2-1.8 1.7-0.2 0.2-0.3 0.4-0.4 0.7-0.1 0.2-0.1 0.5-0.3 0.7-0.1 0.1-0.2 0.1-0.3 0-0.1-0.4-0.2-0.9-0.3-1.4-0.4-0.4-1-0.6-1.6-0.7 0-0.2-0.1-0.4-0.2-0.6 0-0.1 0-0.2 0.1-0.2-0.5-0.5-0.6-1.2-0.3-1.9 0.2-0.4 0.5-0.8 0.8-1.2 0.2 0.1 0.3 0.2 0.4 0.3-0.2 0.2-0.3 0.4-0.4 0.6 0 0.6 0 1.2 0.2 1.8 0.2 0.1 0.4 0.3 0.5 0.6 0.5 0.2 1 0.2 1.5 0.1 0.8-0.1 1.3-0.6 1.3-1.4-0.1-0.4-0.2-0.8-0.1-1.1-0.1-0.2-0.3-0.4-0.5-0.4-0.1-0.4-0.2-0.6-0.5-0.8-0.6 0.2-1.1 0.3-1.7 0.3-0.3 0-0.5-0.2-0.4-0.6 0.3-0.2 0.6-0.3 1-0.3 0.6 0.1 1.1 0.2 1.7 0.3z"></path><path fill="#9295d5" d="m16.3 5.3h0.3c-0.1 0.2-0.2 0.4-0.2 0.6 0 0.3 0.1 0.5 0.2 0.7h-0.3v-1.3z"></path><path fill="#27257c" d="m19 4.6c0.2 0 0.4 0.2 0.5 0.4-0.1 0.3 0 0.7 0.1 1.1 0 0.8-0.5 1.3-1.3 1.4v-0.2c0.1 0 0.2-0.1 0.3-0.2l0.4-0.2c0.1 0 0.2 0 0.2-0.1 0.1-0.5 0.1-1 0-1.5-0.1-0.2-0.2-0.5-0.2-0.7z"></path><path fill="#f4f7fa" d="m18.6 7.1h-1.6c0-0.3 0.1-0.5 0.4-0.7-0.2-0.1-0.4-0.2-0.6-0.2-0.1-0.3-0.1-0.6-0.1-0.9 0-0.1 0.1-0.3 0.2-0.3 0.1-0.1 0.2-0.2 0.1-0.3 0.5-0.1 1 0 1.5 0.1 0.2 0.1 0.3 0.3 0.5 0.5 0 0.3 0.1 0.5 0.1 0.8-0.2 0.3-0.4 0.7-0.5 1z"></path><path fill="#d7dbf3" d="m16.6 5.3h0.1c0 0.3 0 0.6 0.1 0.9 0.2 0 0.4 0.1 0.6 0.2-0.3 0.2-0.4 0.4-0.4 0.7h1.6c-0.1 0.1-0.2 0.2-0.3 0.2h-1.4c0-0.3-0.2-0.5-0.3-0.7-0.1-0.2-0.2-0.4-0.2-0.7 0-0.2 0.1-0.4 0.2-0.6z"></path><path fill="#5b5d98" d="m19.2 5.3c0.1 0.5 0.1 1 0 1.5 0 0.1-0.1 0.1-0.2 0.1 0.1-0.5 0.2-1 0.2-1.6z"></path><path fill="#2f3084" d="m16.6 4.8v0.4c-0.2 0-0.3 0-0.3 0.1v1.3h0.3c0.1 0.2 0.3 0.4 0.3 0.7h0.4c0.2 0.2 0.6 0.2 1 0.2-0.5 0.1-1 0.1-1.5-0.1-0.1-0.3-0.3-0.5-0.5-0.6-0.2-0.6-0.2-1.2-0.2-1.8 0.2 0 0.4-0.1 0.5-0.2z"></path><path fill="#55578f" d="m16.9 4.6v0.4c-0.1 0-0.2 0.2-0.2 0.3h-0.4c0-0.1 0.1-0.1 0.3-0.1v-0.4c0-0.2 0.2-0.3 0.3-0.2z"></path><path fill="#bfc3e6" d="m18.6 4.6h0.4c0 0.2 0.1 0.5 0.2 0.7 0 0.6-0.1 1.1-0.2 1.6l-0.4 0.2c0.1-0.3 0.3-0.7 0.5-1 0-0.3-0.1-0.5-0.1-0.8-0.2-0.2-0.3-0.4-0.5-0.5-0.5-0.1-1-0.2-1.5-0.1 0.1 0.1 0 0.2-0.1 0.3v-0.4h0.4c0.2-0.1 0.4-0.2 0.6-0.3 0.2 0.1 0.5 0.2 0.7 0.3z"></path><path fill="#5455a2" d="m18.6 4.6c-0.2-0.1-0.5-0.2-0.7-0.3-0.2 0.1-0.4 0.2-0.6 0.3 0-0.2 0.1-0.3 0.2-0.3 0.3-0.1 0.7-0.1 1 0 0.1 0.1 0.1 0.1 0.1 0.3z"></path><path fill="#4e4f8d" d="m27.7 6.6l0.7 0.2v0.5c-0.1-0.1-0.1-0.2-0.1-0.4h-0.6v-0.3z"></path><path fill="#16188f" d="m25.8 6.4h0.5c0.4 0.1 0.8 0.2 1.2 0.3 0.1 0.5 0.4 0.8 0.9 0.9 0 0.4 0.2 0.8 0.3 1.2 0 0.5-0.2 0.7-0.6 0.7 0-0.4 0-0.8-0.1-1.1-0.2 0.1-0.4 0-0.5-0.1-0.1-0.4-0.3-0.5-0.7-0.5-0.1-0.2-0.3-0.3-0.6-0.3-0.3-0.1-0.6 0-0.7 0.3-0.3 0.1-0.6 0.2-0.7 0.4v0.3h-0.3c-0.1 0.6 0 1.2 0.1 1.8 0 0.1 0.1 0.2 0.1 0.3-0.3-0.1-0.5-0.3-0.7-0.5-0.1-0.7-0.1-1.4 0-2.1l-0.1-0.1c-0.1 0.3-0.2 0.5-0.4 0.6 0-0.5 0.3-0.8 0.7-0.9 0-0.3 0.1-0.6 0.4-0.8 0.4-0.2 0.8-0.3 1.2-0.4z"></path><path fill="#50518b" d="m7.8 6.6l-0.2 0.5c-0.3 0.2-0.4 0.1-0.2-0.1-0.1-0.1-0.2-0.1-0.3-0.1l0.7-0.3z"></path><path fill="#dcdff1" d="m11.1 6.2c0.3 0.2 0.6 0.3 1 0.3 0.1 0.1 0.1 0.3 0 0.4 0 0.2 0.1 0.2 0.2 0.2h0.5v1.2h-0.1v-0.5h-0.4v-0.5h-0.3c0-0.2-0.1-0.4-0.2-0.5-0.1-0.2-0.3-0.3-0.5-0.2-0.1-0.1-0.2-0.2-0.2-0.4z"></path><path fill="#191b7e" d="m20.4 5h0.4c0 0.8-0.1 1.5-0.2 2.3-0.2 0.2-0.5 0.4-0.8 0.6-0.1 0.2-0.1 0.4-0.1 0.6h-0.1c-0.3 0.1-0.6 0.2-1 0.2 0.7-0.5 1.3-1.1 1.8-1.7 0-0.1 0-0.2-0.1-0.2 0.2-0.2 0.3-0.4 0.3-0.7 0-0.4-0.1-0.8-0.2-1.1z"></path><path fill="#1a1a6d" d="m26.3 6.4c0.5 0 1 0 1.4 0.2v0.3h0.6c0 0.2 0 0.3 0.1 0.4h0.3v0.5c-0.1 0-0.2-0.1-0.3-0.2-0.5-0.1-0.8-0.4-0.9-0.9-0.4-0.1-0.8-0.2-1.2-0.3z"></path><path fill="#7477b3" d="m17.3 7.3h1v0.2c-0.4 0-0.8 0-1-0.2z"></path><path fill="#5a5c8e" d="m12 7.3h0.3v0.3h-0.3v-0.3z"></path><path fill="#2f2f80" d="m15 7.1c0.2 0 0.4 0.1 0.5 0.3 0.1 0.2 0.2 0.4 0.2 0.6v0.2h-0.3v-0.7h-0.4v-0.4z"></path><path fill="#b4b7dc" d="m19.9 3.3c0.3 0.1 0.5 0.3 0.4 0.7h0.7c0 0.6 0.1 1.2 0.2 1.9 0 0.5-0.1 1.1-0.2 1.7h-0.4v-0.3c0.3-0.2 0.3-0.5 0.3-0.8 0.3-0.4 0.3-0.8 0-1.2 0.1-0.6-0.2-1-0.7-1.2v-0.4h-0.3v-0.4z"></path><path fill="#6b6d9c" d="m23.1 7.5h0.5c-0.1 0.1-0.2 0.1-0.4 0.1v0.6h-0.1v-0.7z"></path><path fill="#42459d" d="m26.8 7.8h-1.3c0.1-0.3 0.4-0.4 0.7-0.3 0.3 0 0.5 0.1 0.6 0.3z"></path><path fill="#3d3e91" d="m10.4 7.8h-1.7c0 0.2 0 0.3-0.2 0.4v-0.3c0.1-0.2 0.2-0.3 0.4-0.4 0.5 0 1 0 1.5 0v0.3z"></path><path fill="#161876" d="m25.8 6.4c-0.4 0.1-0.8 0.2-1.2 0.4-0.3 0.2-0.4 0.5-0.4 0.8-0.4 0.1-0.7 0.4-0.7 0.9-0.1 0.3-0.1 0.7-0.2 1-0.1-0.1-0.2-0.2-0.2-0.4 0.1-0.3 0.1-0.6 0.1-0.9v-0.6c0.2 0 0.3 0 0.4-0.1v-0.2h0.3v-0.4h0.3v-0.3c0.5-0.2 1-0.3 1.6-0.2z"></path><path fill="#a7aade" d="m10.4 7.8v0.5h-0.3v-0.4c-0.3 0-0.6 0-0.9 0.1-0.2 0.2-0.4 0.3-0.7 0.3v-0.1c0.2-0.1 0.2-0.2 0.2-0.4h1.7z"></path><path fill="#7173a9" d="m15 7.5h0.4v0.7h0.3c0.1-0.1 0.2 0 0.2 0 0.2 0.2 0.3 0.3 0.4 0.5-0.4-0.2-0.7-0.3-1.1-0.4 0-0.3-0.1-0.6-0.2-0.8z"></path><path fill="#3d3d83" d="m20.6 7.3v0.3c-0.1 0.1-0.2 0.2-0.4 0.2v0.5c-0.2 0-0.3 0-0.5 0.2 0-0.2 0-0.4 0.1-0.6 0.3-0.2 0.6-0.4 0.8-0.6z"></path><path fill="#60619f" d="m7.1 7.3c-0.1 0.3-0.2 0.6-0.2 1h-0.3v-0.5c0.2-0.1 0.3-0.3 0.2-0.5h0.3z"></path><path fill="#191970" d="m7.1 6.9c0.1 0 0.2 0 0.3 0.1-0.2 0.2-0.1 0.3 0.2 0.1-0.2 0.4-0.4 0.9-0.5 1.3-0.4 0.3-0.5 0.7-0.4 1.2 0 0.2 0 0.3-0.1 0.5v-1.8h0.3c0-0.4 0.1-0.7 0.2-1v-0.4z"></path><path fill="#b0b3d5" d="m20.6 7.6v0.7h-0.4v-0.5c0.2 0 0.3-0.1 0.4-0.2z"></path><path fill="#6c6eb3" d="m25.5 7.8v0.5c-0.3-0.1-0.5 0-0.7 0.2v-0.3c0.1-0.2 0.4-0.3 0.7-0.4z"></path><path fill="#bdc0ea" d="m25.5 7.8h1.3c0 0.2 0.1 0.4 0.3 0.5-0.6-0.2-1.1-0.2-1.6 0v-0.5z"></path><path fill="#7e81bf" d="m12.3 7.8h0.4v0.5h-0.4v-0.5z"></path><path fill="#333181" d="m26.8 7.8c0.4 0 0.6 0.1 0.7 0.5 0.1 0.1 0.1 0.3 0 0.4 0.1 0.1 0.2 0.2 0.3 0.1 0.1 0.6 0 1-0.4 1.4 0-0.6 0-1.1-0.1-1.7-0.1-0.1-0.2-0.2-0.2-0.2-0.2-0.1-0.3-0.3-0.3-0.5z"></path><path fill="#ebeef7" d="m29.8 9.1c0.1 0.5 0.1 0.9-0.2 1.4 0-0.1-0.1-0.2-0.1-0.3 0 0.2-0.1 0.4-0.3 0.5l0.2 0.1c-0.1 0.1-0.1 0.1 0 0.2l-0.3 0.2v-1c0.1-0.3 0.2-0.5 0.2-0.9 0-0.3-0.1-0.6-0.2-0.8v-0.7h-0.4v-0.5h-0.3v-0.5l-0.7-0.2c-0.1-0.1-0.3-0.3-0.5-0.4-0.1-0.1-0.1-0.2-0.1-0.3 0.3 0 0.6 0 1-0.1 0.4-0.3 0.7-0.2 0.6 0.4-0.1 0-0.2 0-0.3 0.1 0.2 0.6 0.5 1.2 0.9 1.7l-0.1 0.1c0.2 0.1 0.4 0.2 0.7 0.3 0 0.2-0.1 0.4-0.1 0.7z"></path><path fill="#8486bd" d="m19.6 8.5v0.3c-0.2 0-0.4 0-0.6 0.1-0.1 0.1-0.3 0.2-0.4 0.4v-0.6c0.4 0 0.7-0.1 1-0.2z"></path><path fill="#c4c8dc" d="m23.1 7.5v0.7c-0.2 0.6-0.3 1.3-0.2 2v0.3c-0.2-0.9-0.2-1.8 0-2.8 0.1-0.1 0.1-0.2 0.2-0.2z"></path><path fill="#f4f6f9" d="m10.4 8.3c0.2 0 0.3 0 0.5 0.2 0 0.2 0.1 0.4 0.1 0.7-0.1 0.3-0.2 0.7-0.3 1-0.3 0.1-0.7 0.2-1 0.2l-0.6-0.1c0.1 0 0.1-0.1 0-0.2-0.1 0-0.3 0-0.5 0 0-0.4-0.1-0.6-0.4-0.6v-0.7h0.3v-0.5c0.3 0 0.5-0.1 0.7-0.3 0.3-0.1 0.6-0.1 0.9-0.1v0.4h0.3z"></path><path fill="#8b8ec9" d="m10.9 8.5c0.2 0.5 0.2 1 0.2 1.6v0.2c-0.2 0.1-0.4 0.2-0.7 0.2 0.2 0 0.3-0.2 0.3-0.3 0.1-0.3 0.2-0.7 0.3-1 0-0.3-0.1-0.5-0.1-0.7z"></path><path fill="#17197d" d="m15.7 8.2v-0.2c0.6 0.1 1.2 0.3 1.6 0.7 0.1 0.5 0.2 1 0.3 1.4 0.1 0.1 0.2 0.1 0.3 0 0.2-0.2 0.2-0.5 0.3-0.7 0.1 0.3 0.1 0.6 0.1 0.9-0.2 0.3-0.5 0.5-0.9 0.4 0-0.1 0-0.2-0.1-0.3 0-0.5 0-1-0.1-1.6-0.3-0.1-0.6-0.1-0.9-0.1-0.1-0.2-0.2-0.3-0.4-0.5 0 0-0.1-0.1-0.2 0z"></path><path fill="#a4a7dd" d="m24.8 8.8c0 0.6 0.1 1.1 0.3 1.6-0.1 0-0.2-0.1-0.3-0.2-0.1-0.3-0.2-0.6-0.2-0.9 0-0.2 0.1-0.4 0.2-0.5z"></path><path fill="#f9f9f8" d="m27.1 8.6c0.2 0.3 0.2 0.7 0.2 1.1-0.2 0.1-0.4 0.1-0.6 0.1v0.4c-0.2 0-0.3 0-0.5 0.1 0-0.2-0.1-0.3-0.3-0.3-0.2 0.1-0.5 0.1-0.8 0 0.1-0.2 0-0.4-0.2-0.4 0.2-0.2 0.3-0.5 0.2-0.8 0.4 0.1 0.6 0 0.6-0.4 0.5 0 0.9 0.1 1.4 0.2z"></path><path fill="#a7aad8" d="m27.1 8.3c0 0 0.1 0.1 0.2 0.2 0.1 0.6 0.1 1.1 0.1 1.7-0.3 0.4-0.7 0.6-1.2 0.5-0.3 0-0.5 0-0.7-0.2 0.5 0.1 1 0 1.6-0.2 0.1-0.2 0.2-0.3 0.2-0.6 0-0.4 0-0.8-0.2-1.1v-0.3z"></path><path fill="#22227b" d="m10.4 7.8h0.3c0 0.2 0.1 0.3 0.2 0.1l0.4 0.4c0 0.5 0 1.1 0 1.7-0.1 0-0.1 0.1-0.2 0.1 0-0.6 0-1.1-0.2-1.6-0.2-0.2-0.3-0.2-0.5-0.2v-0.5z"></path><path fill="#5c5e8f" d="m12.7 8.3h0.1v2.2h-0.5c0.1-0.1 0.2-0.1 0.4-0.1v-2.1z"></path><path fill="#24266c" d="m23.1 8.2h0.1c0 0.3 0 0.6-0.1 0.9 0 0.2 0.1 0.3 0.2 0.4 0 0.6 0.1 1.1 0.3 1.7h-0.4v-1h-0.3c-0.1-0.7 0-1.4 0.2-2z"></path><path fill="#1c1c77" d="m29 8.3v2.2c-0.2 0.2-0.3 0.4-0.3 0.7-0.2 0-0.3 0.1-0.5 0.2 0.3-1 0.6-2.1 0.8-3.1z"></path><path fill="#4f5090" d="m28.7 7.8h0.4v0.7c0.1 0.6 0.1 1.1 0 1.7v0.3h-0.1v-2.2c-0.2-0.2-0.2-0.3-0.3-0.5z"></path><path fill="#1e1e75" d="m11.4 6.8h0.4c0.1 0.1 0.2 0.3 0.2 0.5v0.3h0.3v0.7h0.4v2.1c-0.2 0-0.3 0-0.4 0.1v0.7h0.5v0.2c0.3 0.2 0.4 0.5 0.4 0.8l-0.2 0.9c0 0.2-0.1 0.3-0.2 0.3v-0.3h-0.5c0-0.2 0-0.3-0.1-0.4-0.2-0.2-0.3-0.3-0.4-0.5 0.2 0.1 0.5 0.2 0.7 0.2v-0.6h-0.3c-0.1-0.7-0.1-1.4 0-2 0-0.5-0.1-1-0.2-1.5-0.2-0.5-0.4-0.9-0.7-1.3 0 0 0.1-0.1 0.1-0.2z"></path><path fill="#bbbee6" d="m6.6 7.8v2.3c0 0.2 0.1 0.4 0.2 0.6h-0.3c-0.2-0.4-0.3-0.9-0.4-1.4l0.1-0.7c0.2-0.2 0.3-0.5 0.4-0.8z"></path><path fill="#444699" d="m18.6 8.7v0.6c0 0.5-0.1 1-0.3 1.4v-0.4c0-0.3 0-0.6-0.1-0.9 0.1-0.3 0.2-0.5 0.4-0.7z"></path><path fill="#d3d7ec" d="m12.8 8.5c0.3 0.4 0.4 0.9 0.3 1.5-0.1 0.3-0.3 0.7-0.5 1-0.1-0.3-0.2-0.3-0.2 0.1 0.2 0 0.3 0 0.4 0.1h-0.5v-0.7h0.5v-2z"></path><path fill="#46479c" d="m24.8 8.5v0.3c-0.1 0.1-0.2 0.3-0.2 0.5 0 0.3 0.1 0.6 0.2 0.9l-0.2 0.1c-0.1-0.6-0.2-1.2-0.1-1.8h0.3z"></path><path fill="#5859a3" d="m16.3 8.7c0.3 0 0.6 0 0.9 0.1 0.1 0.6 0.1 1.1 0.1 1.6v0.5c-0.1-0.7-0.2-1.4-0.3-2.1h-0.5c-0.1 0.1-0.2 0-0.2-0.1z"></path><path fill="#9194ba" d="m29.1 8.5c0.1 0.2 0.2 0.5 0.2 0.8 0 0.4-0.1 0.6-0.2 0.9 0.1-0.6 0.1-1.1 0-1.7z"></path><path fill="#7f82bc" d="m8.5 8.5v0.3h-0.3v1h0.3c0 0.3 0.1 0.6 0.3 0.7-0.2-0.1-0.5-0.2-0.8-0.2v-1.8h0.5z"></path><path fill="#e9ecf9" d="m27.1 8.3v0.3c-0.5-0.1-0.9-0.2-1.4-0.2 0 0.4-0.2 0.5-0.6 0.4 0.1 0.3 0 0.6-0.2 0.8 0.2 0 0.3 0.2 0.2 0.4 0.3 0.1 0.6 0.1 0.8 0 0.2 0 0.3 0.1 0.3 0.3 0.2-0.1 0.3-0.1 0.5-0.1v-0.4c0.2 0 0.4 0 0.6-0.1 0 0.3-0.1 0.4-0.2 0.6-0.6 0.2-1.1 0.3-1.6 0.2-0.2 0-0.3 0-0.4-0.1-0.2-0.5-0.3-1-0.3-1.6v-0.3c0.2-0.2 0.4-0.3 0.7-0.2 0.5-0.2 1-0.2 1.6 0z"></path><path fill="#3b3c65" d="m18.6 9.3v1.9h-1.3v-0.1h1v-0.4c0.2-0.4 0.3-0.9 0.3-1.4z"></path><path fill="#181985" d="m28.4 7.6c0.1 0.1 0.2 0.2 0.3 0.2 0.1 0.2 0.1 0.3 0.3 0.5-0.2 1-0.5 2.1-0.8 3.1h-0.1c0 0 0-0.1-0.1-0.1-0.8 0.8-1.7 1-2.7 0.8h-1.4c0-0.4 0.2-0.6 0.7-0.6 0.5 0.1 1.1 0.2 1.7 0.3 0.7 0 1.3-0.2 1.7-0.8-0.1-0.2-0.2-0.4-0.4-0.5-0.2 0.2-0.5 0.4-0.8 0.5-0.5 0.1-1.1 0.1-1.7 0.1v-0.4c-0.1 0.1-0.3 0-0.4-0.1 0-0.1-0.1-0.2-0.1-0.3l0.2-0.1c0.1 0.1 0.2 0.2 0.3 0.2 0.1 0.1 0.2 0.1 0.4 0.1 0.2 0.2 0.4 0.2 0.7 0.2 0.5 0.1 0.9-0.1 1.2-0.5 0.4-0.4 0.5-0.8 0.4-1.4-0.1 0.1-0.2 0-0.3-0.1 0.1-0.1 0.1-0.3 0-0.4 0.1 0.1 0.3 0.2 0.5 0.1 0.1 0.3 0.1 0.7 0.1 1.1 0.4 0 0.6-0.2 0.6-0.7-0.1-0.4-0.3-0.8-0.3-1.2z"></path><path fill="#6767a3" d="m22.9 10.2h0.3v1c0 0.1 0 0.3 0 0.4-0.1 0-0.1 0-0.2-0.1-0.1 0.2-0.3 0.3-0.4 0.3v-0.4c0.3 0 0.5-0.2 0.5-0.5 0-0.2-0.1-0.3-0.2-0.4v-0.3z"></path><path fill="#181a7d" d="m8.5 7.9v0.6h-0.5v1.8c0.3 0 0.6 0.1 0.8 0.2v0.2c0.5 0.2 1 0.2 1.5 0.1 0.1-0.1 0.1-0.2 0.1-0.3 0.3 0 0.5-0.1 0.7-0.2-0.1 0.2-0.1 0.4-0.1 0.6-0.6 0.2-1.1 0.3-1.7 0.2-0.8-0.1-1.3-0.5-1.5-1.3 0-0.5 0-1 0.1-1.5 0.2-0.1 0.4-0.2 0.6-0.4z"></path><path fill="#9597bb" d="m16.5 8.8h0.5c0.1 0.7 0.2 1.4 0.3 2.1v0.3h-0.4c0.1-0.7 0-1.4-0.1-2l-0.3-0.4z"></path><path fill="#f5f6fa" d="m14.7 6.5v0.8h0.3v0.2c0.1 0.2 0.2 0.5 0.2 0.8 0.4 0.1 0.7 0.2 1.1 0.4 0 0.1 0.1 0.2 0.2 0.1l0.3 0.4c0.1 0.6 0.2 1.3 0.1 2h1.7c-0.6 0.1-1.2 0.1-1.8 0.2l1.7 0.1c-0.4 0-0.8 0.1-1.1 0.1l-0.2-0.1c-0.1 0.2-0.2 0.4-0.3 0.5 0.7 0.1 1.4 0.2 2 0.3 0.2-0.1 0.3-0.1 0.3 0.1-1 0-2 0-3.1 0.1-0.2 0.1-0.5 0.2-0.7 0.3v0.3c-0.1 0.1-0.2 0.2-0.2 0.3h-0.5c-0.4-0.1-0.7-0.1-1 0-0.1-0.4 0-0.8 0.2-1.3-0.1-0.1-0.2-0.3-0.3-0.5-0.1 0.3-0.2 0.3-0.3-0.1l-0.1 0.1c-0.1-0.1-0.2-0.2-0.4-0.2v-0.2c-0.1-0.1-0.2-0.1-0.4-0.1 0-0.4 0.1-0.4 0.2-0.1 0.2-0.3 0.4-0.7 0.4-1 0.2-0.6 0.1-1.1-0.2-1.5v-1c0 0 0.1 0 0.1 0.1l0.1 0.7 0.3-0.3c0.3 0.3 0.5 0.3 0.6-0.1 0.1 0 0.3 0 0.4-0.1 0 0.5 0 1-0.2 1.4-0.2-0.1-0.3-0.2-0.4-0.3-0.2 0.6-0.2 1.1-0.1 1.6 0.1 0 0.2 0 0.3 0-0.1-0.3 0-0.4 0.2-0.2-0.1 0.6-0.1 1.1 0 1.7 0.1 0 0.2 0 0.4 0-0.2 0.3-0.2 0.6-0.2 0.9 0.4-0.1 0.7-0.2 1.1-0.3-0.9-0.3-1-0.7-0.3-1.2 0.2 0.2 0.3 0.1 0.4-0.1 0.1 0.3 0.2 0.3 0.4 0 0 0.2 0.1 0.3 0.2 0.5 0.1-0.3 0.1-0.6 0-0.9-0.1 0.1-0.2 0-0.2-0.2-0.2 0.6-0.4 0.6-0.8 0.2 0.1-0.3 0.3-0.4 0.6-0.4l-0.2-0.2c0.2-0.2 0.3-0.1 0.4 0.1 0.2-0.2 0.3-0.5 0.4-0.7l-0.5-0.1c0.1-0.1 0.2-0.1 0.2-0.2-0.1-0.1-0.2-0.1-0.3 0-0.3-0.1-0.5-0.3-0.7-0.6-0.1 0.2-0.3 0.3-0.4 0.1 0-0.8-0.1-1.6-0.3-2.4 0.1-0.1 0.2-0.2 0.2-0.3 0 0.1 0.1 0.2 0.2 0.3z"></path><path fill="#181a5e" d="m18.3 10.3v0.8h-1v-0.7c0.1 0.1 0.1 0.2 0.1 0.3 0.4 0.1 0.7-0.1 0.9-0.4z"></path><path fill="#272770" d="m6.7 9.6c0.2 0.5 0.4 0.9 0.7 1.4 0.3 0.2 0.6 0.5 0.8 0.9 0.1 0 0.3 0.1 0.4 0.2h-0.7c0.1-0.2 0-0.3-0.1-0.3h-0.2v-0.4c-0.4 0-0.7-0.2-0.8-0.7-0.1-0.2-0.2-0.4-0.2-0.6 0.1-0.2 0.1-0.3 0.1-0.5z"></path><path fill="#151697" d="m24.7 10.6c0.1 0.1 0.3 0.2 0.4 0.1v0.4c0.6 0 1.2 0 1.7-0.1 0.3-0.1 0.6-0.3 0.8-0.5 0.2 0.1 0.3 0.3 0.4 0.5-0.4 0.6-1 0.8-1.7 0.8-0.6-0.1-1.2-0.2-1.7-0.3-0.5 0-0.7 0.2-0.7 0.6-0.1 0-0.1 0-0.1 0.1-0.2 0.1-0.4 0.2-0.6 0.3l-0.2-0.1c0.1-0.4 0.4-0.7 0.8-0.8-0.1-0.3-0.1-0.7 0-1.1-0.1-0.4-0.3-0.7-0.5-1 0.1-0.3 0.1-0.7 0.2-1 0.2-0.1 0.3-0.3 0.4-0.6l0.1 0.1c-0.1 0.7-0.1 1.4 0 2.1 0.2 0.2 0.4 0.4 0.7 0.5z"></path><path fill="#b4b6d5" d="m29 10.5h0.1v0.7h-0.4c0-0.3 0.1-0.5 0.3-0.7z"></path><path fill="#fcfcf9" d="m28.7 11.5v-0.3h0.4l0.3-0.2c-0.1-0.1-0.1-0.1 0-0.2l-0.2-0.1c0.2-0.1 0.3-0.3 0.3-0.5 0 0.1 0.1 0.2 0.1 0.3 0.3-0.5 0.3-0.9 0.2-1.4 0.1-0.1 0.3-0.1 0.5-0.2-0.2-0.2-0.3-0.5-0.3-0.7 0-0.1 0.1-0.2 0.2-0.2-0.2-0.3-0.3-0.5-0.1-0.9 0 0.2 0.1 0.4 0.1 0.6 0.2-0.2 0.3-0.2 0.6-0.2 0 0.5 0.1 0.6 0.3 0.3 0-0.2 0-0.4 0-0.7h-0.6c0.1-0.8 0.3-0.8 0.7 0 0.3 0 0.6 0.1 0.8 0.2 0.2 0.4 0.5 0.3 0.6-0.2 0.2 1.4 0.3 2.7 0.4 4 0 0.2 0 0.3-0.1 0.5-0.3 0.2-0.5 0.2-0.6-0.2-0.1 0.5 0 0.9 0.3 1.3-0.2 0.1-0.3 0.2-0.4 0.4 0.2 0.2 0.5 0.3 0.8 0.2 0 0.3 0 0.5-0.3 0.6 0-0.1-0.1-0.1-0.2 0-0.1-0.1-0.2-0.3-0.2-0.5-0.2 0-0.4 0.1-0.6 0.2 0.1-0.2 0.1-0.4 0.1-0.5l-0.2-0.2c-0.3 0.3-0.6 0.4-1 0.1-0.2 0.5-0.5 0.6-1 0.2-0.3 0.3-0.6 0.3-0.9 0l1.6-0.3c-0.5-0.1-1.1-0.3-1.6-0.5-0.2 0-0.3 0-0.5 0.1-0.3 0-0.2-0.1 0.1-0.1 0-0.3 0.2-0.6 0.4-0.9z"></path><path fill="#979ac0" d="m6.8 10.7c0.1 0.5 0.4 0.7 0.8 0.7v0.4c-0.2-0.2-0.4-0.3-0.7-0.5-0.1-0.2-0.1-0.4-0.1-0.6z"></path><path fill="#1d1d81" d="m23.3 9.5c0.2 0.3 0.4 0.6 0.5 1-0.1 0.4-0.1 0.8 0 1.1-0.4 0.1-0.7 0.4-0.8 0.8l0.2 0.1c0.2-0.1 0.4-0.2 0.6-0.3v0.2c0 0.2-0.1 0.3-0.2 0.4h-1.4v-0.6h0.4v-0.4c0.1 0 0.3-0.1 0.4-0.3 0.1 0.1 0.1 0.1 0.2 0.1 0-0.1 0-0.3 0-0.4h0.4c-0.2-0.6-0.3-1.1-0.3-1.7z"></path><path fill="#9da0c7" d="m28.7 11.2v0.3l-0.6 0.3v-0.4h0.1c0.2-0.1 0.3-0.2 0.5-0.2z"></path><path fill="#1d1e78" d="m11.8 12.1c-0.7 0-1.3 0-2 0.2 0.2 0 0.4 0 0.5 0.1h-1.5c0-0.1 0-0.2-0.1-0.3 0.5 0 0.9 0 1.4-0.1 0 0 0.1-0.1 0.1-0.1l0.4-0.3c0.4 0.2 0.8 0.4 1.2 0.5z"></path><path fill="#161794" d="m12 8.3c0.1 0.5 0.2 1 0.2 1.5-0.1 0.6-0.1 1.3 0 2h0.3v0.6c-0.2 0-0.5-0.1-0.7-0.2v-0.1c-0.4-0.1-0.8-0.3-1.2-0.5l-0.4 0.3c-0.2 0-0.4 0.1-0.6 0.1-0.8-0.2-1.4-0.5-2-1-0.3-0.5-0.4-1-0.5-1.5 0.2-0.3 0.4-0.4 0.6-0.3 0 0.2 0 0.4 0.1 0.6 0.2 0.8 0.7 1.2 1.5 1.3 0.6 0.1 1.1 0 1.7-0.2 0-0.2 0-0.4 0.1-0.6v-0.2c0.1 0 0.1-0.1 0.2-0.1 0-0.6 0-1.2 0-1.7l-0.4-0.4c-0.1 0.2-0.2 0.1-0.2-0.1 0-0.3-0.1-0.6-0.3-0.9-0.3 0-0.6 0-0.9 0 0.4-0.1 0.8-0.1 1.2 0 0 0.1-0.1 0.2-0.2 0.2l0.7 0.1c0.1 0.3 0.3 0.6 0.5 1l0.1-0.2c0 0.1 0.1 0.2 0.2 0.3z"></path><path fill="#4e50a3" d="m10.1 10.5h0.3c0 0.1 0 0.2-0.1 0.3-0.5 0.1-1 0.1-1.5-0.1 0.5 0.1 0.9 0 1.3-0.2z"></path><path fill="#999cd1" d="m8.8 10.5h1.3c-0.4 0.2-0.8 0.3-1.3 0.2v-0.2z"></path><path fill="#d4d8ef" d="m8.2 9.5c0.3 0 0.4 0.2 0.4 0.6 0.2 0 0.4 0 0.5 0 0.1 0.1 0.1 0.2 0 0.2l0.6 0.1c0.3 0 0.7-0.1 1-0.2 0 0.1-0.1 0.3-0.3 0.3h-1.6c-0.2-0.1-0.3-0.4-0.3-0.7h-0.3v-0.3z"></path><path fill="#7e82b9" d="m22.6 11.8v0.4h-0.4v-0.4h0.4z"></path><path fill="#5f6092" d="m7.8 11.8c0.1 0 0.2 0.1 0.1 0.3h0.8c0.1 0.1 0.1 0.2 0.1 0.3-0.2-0.1-0.5-0.2-0.8-0.2-0.1-0.1-0.2-0.2-0.2-0.4z"></path><path fill="#3c3d81" d="m11.8 12.1v0.1h-0.7c-0.3 0.1-0.5 0.2-0.8 0.2-0.1-0.1-0.3-0.1-0.5-0.1 0.7-0.2 1.3-0.2 2-0.2z"></path><path fill="#20226b" d="m28.1 11.4v0.4h-0.4v0.3c-0.3-0.1-0.5 0.1-0.6 0.3h-2v-0.1c0.4 0 0.5 0 0.2-0.2 1 0.2 1.9 0 2.7-0.8 0.1 0 0.1 0.1 0.1 0.1z"></path><path fill="#515291" d="m23.9 12.1h1.4c0.3 0.2 0.2 0.2-0.2 0.2-0.1-0.1-0.3-0.1-0.5-0.1-0.2 0-0.4 0.1-0.5 0.2h-0.3v-0.2c0-0.1 0-0.1 0.1-0.1z"></path><path fill="#bcc0de" d="m25.1 12.3v0.1c-0.3 0-0.6 0-1 0 0.1-0.1 0.3-0.2 0.5-0.2 0.2 0 0.4 0 0.5 0.1z"></path><path fill="#8789ad" d="m28.1 11.8v0.4c-0.4 0-0.7 0.1-1 0.2 0.1-0.2 0.3-0.4 0.6-0.3v-0.3h0.4z"></path><path fill="#bfc3e4" d="m8 12.2c0.3 0 0.6 0.1 0.8 0.2h1.5c0.3 0 0.5-0.1 0.8-0.2v0.3h-3.1v-0.3z"></path><path fill="#64668d" d="m21.9 12.2h0.3v0.6c-0.2-0.1-0.3-0.3-0.3-0.6z"></path><path fill="#afb2d6" d="m19.2 12.4h0.2c0.1 0 0.1 0 0.1 0.1l-0.2 0.1c0.3 0 0.5 0.1 0.8 0.2 0.1 0.1 0.1 0.3 0.1 0.4-0.4 0.1-0.5-0.1-0.6-0.4h-0.4c-0.1-0.1-0.1-0.2-0.2-0.2l-1.2-0.1c-0.4 0-0.8 0.1-1.1 0.3h-0.7c-0.1 0-0.1 0.2-0.1 0.3h-0.5v-0.3c0.2-0.1 0.5-0.2 0.7-0.3 1.1-0.1 2.1-0.1 3.1-0.1z"></path><path fill="#56589d" d="m19.2 12.8h-2.5c0.3-0.2 0.7-0.3 1.1-0.3l1.2 0.1c0.1 0 0.1 0.1 0.2 0.2z"></path><path fill="#1f1f76" d="m16 12.8h3.6c0.1 0.3 0.2 0.5 0.6 0.4v0.2c-0.3 0.1-0.5 0-0.8-0.1-0.2-0.2-0.4-0.4-0.7-0.4-0.5 0-1.1 0-1.6 0-0.3 0.1-0.7 0.2-1.1 0.3v-0.4z"></path><path fill="#7072b0" d="m16 12.8v0.4c-0.2 0.1-0.4 0.2-0.6 0.2h-0.2c0-0.1 0.1-0.2 0.2-0.3h0.5c0-0.1 0-0.3 0.1-0.3z"></path><path fill="#e5e8f4" d="m12.8 11.4c0.2 0 0.3 0.1 0.4 0.2l0.1-0.1c0.1 0.4 0.2 0.4 0.3 0.1 0.1 0.2 0.2 0.4 0.3 0.6-0.2 0.4-0.3 0.8-0.2 1.2 0.3-0.1 0.6-0.1 1 0v0.4h-0.4v0.3c-0.1 0-0.3 0.1-0.3 0.2-0.3 0.2-0.6 0.2-0.9 0.3 0 0.2 0 0.4 0.1 0.6-0.1 0.1-0.2 0.3-0.2 0.5v1c-0.2 0.6-0.3 1.2-0.2 1.9-0.1-0.9-0.2-1.9-0.1-2.9 0.2-0.4 0.4-0.9 0.4-1.4l0.1 0.2c0.2-0.3 0.4-0.5 0.7-0.7-0.1-0.1-0.3-0.2-0.5-0.2-0.3 0.2-0.6 0.3-0.9 0.2-0.2-0.2-0.5-0.3-0.7-0.4 0-0.2 0-0.3-0.2-0.5-0.3 0-0.6-0.2-0.9-0.4h0.4v-0.3h0.2v0.3c0.3 0.1 0.5 0.2 0.8 0.3 0 0.2 0 0.3 0.2 0.3v0.3h0.5c0.1 0 0.2-0.1 0.2-0.3 0.2-0.1 0.3-0.2 0.3-0.4 0.1 0 0.3-0.1 0.4 0v-0.5h-0.5c0-0.3-0.1-0.6-0.4-0.8z"></path><path fill="#7f81b2" d="m12.3 13.1h0.5v0.3h-0.5v-0.3z"></path><path fill="#4b4d7e" d="m13.2 12.2h0.5v0.5c-0.1-0.1-0.3 0-0.4 0 0 0.2-0.1 0.3-0.3 0.4l0.2-0.9z"></path><path fill="#a9abd3" d="m11.3 12.2h0.5c0.1 0.2 0.2 0.3 0.4 0.5 0.1 0.1 0.1 0.2 0.1 0.4-0.2 0-0.2-0.1-0.2-0.3-0.3-0.1-0.5-0.2-0.8-0.3v-0.3z"></path><path fill="#9497c5" d="m20.2 13.2c0.3 0 0.5 0.1 0.8 0.1 0 0.2 0 0.3 0.1 0.5-0.2-0.1-0.3-0.2-0.2-0.4h-0.7v-0.2z"></path><path fill="#686aa4" d="m14.7 13.4h0.5c-0.1 0.3-0.2 0.4-0.5 0.4v-0.4z"></path><path fill="#eceff7" d="m21.9 12.2c0 0.3 0.1 0.5 0.3 0.6v0.4c0.2 0 0.4 0.1 0.5 0.2h0.4v-0.3h0.5v-0.3c0.1-0.1 0.2-0.2 0.2-0.4h0.3c0.4 0 0.7 0 1 0h1.8c-0.1 0.3-0.2 0.5-0.2 0.8-0.4-0.3-0.7-0.4-1.2-0.2-0.1-0.1-0.1-0.2 0-0.3-0.2-0.1-0.3-0.1-0.5 0.1 0.1 0.1 0.2 0.3 0.1 0.5h-0.4c0 0.3-0.1 0.5-0.3 0.4 0.2-0.4 0.2-0.7 0.1-1.2-0.2 0.2-0.3 0.2-0.4 0-0.2 0.1-0.3 0.2-0.4 0.4 0.2 1-0.2 1.4-1.3 1.2 0.2 0.2 0.2 0.4 0 0.6l0.5 0.3c-0.1 0.1-0.1 0.2-0.2 0.2 0.3 0.1 0.3 0.2 0 0.3h-0.5v-0.8h-0.3v-0.2c-0.2-0.3-0.4-0.4-0.7-0.4 0-0.1 0-0.2-0.1-0.3-0.1-0.2-0.1-0.3-0.1-0.5-0.3 0-0.5-0.1-0.8-0.1 0-0.1 0-0.3-0.1-0.4-0.3-0.1-0.5-0.2-0.8-0.2l0.2-0.1c0-0.1 0-0.1-0.1-0.1 0-0.1 0.1-0.2 0.2-0.2 0.5 0.4 1.1 0.6 1.8 0.6-0.3 0.2-0.3 0.4 0 0.6 0.2-0.1 0.4-0.4 0.5-0.6-0.2-0.2-0.2-0.4 0-0.6z"></path><path fill="#2e2e6f" d="m22.6 12.8h0.5v0.6h-0.4l-0.1-0.6z"></path><path fill="#7679b8" d="m23.1 12.8h0.5v0.3h-0.5v-0.3z"></path><path fill="#606396" d="m22.2 12.8h0.4l0.1 0.6c-0.1-0.1-0.3-0.2-0.5-0.2v-0.4z"></path><path fill="#141687" d="m20.2 13.4c0.1 0.1 0.1 0.2 0 0.3 0.1 0.1 0.2 0.1 0.3 0.1 0 0.1 0 0.2 0.1 0.3 0.2 0 0.3 0 0.4 0 0.2 0.4 0.3 0.4 0.4 0.1 0.1 0.1 0.2 0.1 0.1 0.3 0 0.2 0.1 0.5 0.2 0.8 0.2 0.6 0.5 1.1 0.9 1.6v0.9c-0.1 0-0.2 0.1-0.2 0.1 0 0.6-0.2 1.1-0.6 1.5 0 0.3 0 0.5 0 0.8-0.3 0-0.5 0-0.7 0.1-0.1 0.2-0.2 0.5-0.4 0.7l-0.6-0.1-0.1 0.2c-0.1-0.2-0.1-0.2-0.2 0-0.1-0.1-0.2-0.1-0.3-0.2 0.2-0.5 0.3-1 0.2-1.6h0.5c0 0.3 0 0.6-0.1 0.9 0.3 0.5 0.5 0.4 0.7-0.2-0.1-0.1-0.1-0.2-0.2-0.3 0.3-0.7 0.3-1.3 0-2-0.4-0.2-0.8-0.4-1.1-0.7-0.2-0.3-0.1-0.5 0.2-0.5 0.2 0.2 0.3 0.4 0.4 0.6 0.3 0.1 0.5 0.2 0.8 0.3 0 0.6 0.2 1.3 0.6 1.9 0.6-1.1 0.7-2.3 0.3-3.4-0.2-0.1-0.3-0.1-0.5 0 0 0.1-0.2 0.2-0.3 0.2 0.1-0.3 0.1-0.6-0.1-1-0.5-0.1-0.9-0.3-1.3-0.5-0.3-0.1-0.6-0.1-0.9-0.3 0-0.2-0.2-0.4-0.5-0.4-0.3 0.1-0.7 0.1-1 0.1 0.6-0.2 1.2-0.3 1.9-0.1 0.2 0 0.4-0.1 0.5-0.2-0.3-0.2-0.6-0.4-1-0.6-0.4 0.2-0.9 0.2-1.3 0-0.4 0.1-0.7 0.2-1.2 0.2 0.1 0.1 0 0.3 0 0.4l-0.1-0.1-0.4 0.4-0.1-0.1c-0.1 0.2-0.2 0.2-0.4 0.2 0.1-0.2 0.1-0.5 0.3-0.7 0.2 0 0.4-0.1 0.6-0.2 0.4-0.1 0.8-0.2 1.1-0.3 0.5 0 1.1 0 1.6 0 0.3 0 0.5 0.2 0.7 0.4 0.3 0.1 0.5 0.2 0.8 0.1z"></path><path fill="#323285" d="m20.2 13.4h0.7c-0.1 0.2 0 0.3 0.2 0.4 0.1 0.1 0.1 0.2 0.1 0.3 0 0.1 0.1 0.2 0.2 0.1-0.1 0.3-0.2 0.3-0.4-0.1-0.1 0-0.2 0-0.4 0-0.1-0.1-0.1-0.2-0.1-0.3-0.1 0-0.2 0-0.3-0.1 0.1-0.1 0.1-0.2 0-0.3z"></path><path fill="#888bbe" d="m21.2 14.1c0.3 0 0.5 0.1 0.7 0.4h-0.4c0.1-0.2 0-0.2-0.1-0.3-0.1 0.1-0.2 0-0.2-0.1z"></path><path fill="#f5f7fa" d="m12.3 7.1c-0.1 0-0.2 0-0.2-0.2 0.1-0.1 0.1-0.3 0-0.4-0.4 0-0.7-0.1-1-0.3h-0.4v-0.4c-0.6 0-1.3 0-1.9 0.1v0.3h-0.6v0.4h-0.4l-0.7 0.3v0.4h-0.3c0.1 0.2 0 0.4-0.2 0.5-0.1 0.3-0.2 0.6-0.4 0.8l-0.1 0.7c0.1 0.5 0.2 1 0.4 1.4h0.3c0 0.2 0 0.4 0.1 0.6 0.3 0.2 0.5 0.3 0.7 0.5h0.2c0 0.2 0.1 0.3 0.2 0.4v0.3c0 0.3-0.1 0.5-0.4 0.7 0-0.3-0.1-0.4-0.2-0.1 0 0-0.1-0.1-0.1-0.1-0.1 0.2-0.2 0.4-0.3 0.6l-0.1-0.2c-0.2 0.2-0.4 0.3-0.7 0.3 0.5 0.2 1 0.3 1.6 0.4 0.1-0.1 0.2-0.1 0.3 0.1 0.1-0.2 0.3-0.3 0.5-0.1l0.2-0.7c0.2 0.2 0.4 0.4 0.6 0.5 0 0.2-0.1 0.3-0.2 0.4l0.4 0.1c-0.3 0.4-0.3 0.7 0 1.1-0.3 0.5-0.1 0.8 0.5 0.9 0.3-0.2 0.5-0.2 0.8 0.1 0.2-0.1 0.4-0.2 0.6-0.2 0.2 0.6 0.3 1.3 0.3 2.1h-0.4c0.1-0.6 0-1.2-0.1-1.7-0.6-0.1-1.3-0.1-1.9-0.2-0.2-0.3-0.3-0.6-0.3-0.9-0.3-0.1-0.4-0.3-0.6-0.5h-0.5v-0.3c-0.1-0.2-0.2-0.3-0.4-0.4-0.5-0.1-0.9-0.2-1.4-0.3-0.5 0.1-0.9 0.2-1.3 0.4 0 0.1 0 0.1-0.1 0.2h-0.7v0.4c-0.2 0.2-0.4 0.3-0.4 0.6h-0.5v0.4c-0.1 0.1-0.1 0.2-0.2 0.3-0.1 0.7-0.2 1.5-0.1 2.2-0.2-0.4-0.3-0.8-0.4-1.2 0-0.2 0.1-0.5 0.3-0.6-0.3-0.2-0.3-0.3 0-0.4-0.1 0-0.2-0.1-0.3-0.1 0.3-0.2 0.4-0.4 0.3-0.7 0 0 0.1-0.1 0.2-0.1-0.3-0.2-0.5-0.5-0.6-0.8l0.5-0.4c0.1 0.2 0.3 0.4 0.6 0.6 0.2 0 0.3-0.1 0.3-0.3 0.1 0.1 0.2 0.1 0.2 0-0.5-0.2-0.6-0.5-0.2-0.9 0 0 0.1 0 0.1 0.1 0.1-0.2 0.2-0.2 0.3-0.3 0.3 0 0.6 0 0.8-0.1 0.1 0.1 0.1 0.2 0.2 0.3l0.1-0.1c0 0.1 0.1 0.2 0 0.3 0.3 0 0.5 0 0.7-0.1 0-0.2-0.1-0.3-0.3-0.2v-0.4c0.6 0 0.7-0.2 0.2-0.5 0.1-0.3 0.1-0.5-0.2-0.7 0-0.2 0.1-0.3 0.1-0.4-0.3-0.3-0.5-0.2-0.5 0.3-0.3 0-0.6 0.1-1 0.2 0.2 0.1 0.2 0.2 0 0.2-0.2-0.3-0.5-0.5-0.8-0.8 0.2-0.6 0.6-0.9 1.3-0.9-0.2-0.1-0.1-0.2 0.1-0.3 0.1 0.1 0.2 0.1 0.3 0 0.1 0.1 0.3 0.3 0.4 0.4 0 0 0.1 0 0.1-0.1 0.1-0.5 0.1-0.9 0-1.4-0.2-0.6-0.3-1.1-0.3-1.7-0.2 0.2-0.4 0.2-0.4-0.1 0.1-0.2 0.2-0.5 0.3-0.7l0.1 0.1c0-0.1 0.1-0.2 0.2-0.2l0.2 0.3c0.1 0 0.1 0 0.2-0.1-0.1-0.3-0.3-0.4-0.7-0.6 0.3 0 0.5-0.2 0.6-0.5 0.2 0.2 0.4 0.2 0.6 0.1-0.2-0.1-0.3-0.2-0.4-0.4 0.1-0.2 0.2-0.3 0.3-0.2 0.4-0.6 0.4-0.6 0.3 0.1 0.7 0.1 1.5 0.1 2.2-0.1l1.1 0.3c0-0.1 0.1-0.2 0.2-0.3 0.2 0.1 0.2 0.2 0.1 0.3 0.2 0 0.4 0 0.6 0l0.2 0.3c0.3-0.2 0.5-0.3 0.8-0.5 0.2 0.1 0.3 0.1 0.3 0.3-0.2 0.4-0.1 0.6 0.3 0.6 0.1 0.4 0 0.7-0.2 0.9z"></path><path fill="#afb2d5" d="m8 14.8h-0.4c0-0.1-0.1-0.2-0.1-0.2-0.9-0.1-1.7-0.2-2.6-0.1 0.4-0.2 0.8-0.3 1.3-0.4 0.5 0.1 0.9 0.2 1.4 0.3 0.2 0.1 0.3 0.2 0.4 0.4z"></path><path fill="#7c7fae" d="m11.3 6.6c0.2-0.1 0.4 0 0.5 0.2h-0.5v-0.2z"></path><path fill="#1d1d71" d="m8.8 6.2h1.6c0.3 0.2 0.6 0.3 0.9 0.4v0.2c-0.4-0.2-0.8-0.3-1.3-0.4-0.9-0.1-1.7 0.2-2.4 0.7l0.2-0.5h0.4v-0.4h0.6z"></path><path fill="#6a6da3" d="m10.4 6.2h0.7c0 0.2 0.1 0.3 0.2 0.4-0.3-0.1-0.6-0.2-0.9-0.4z"></path><path fill="#6c6faa" d="m8.8 5.9h1.6v0.3h-1.6v-0.3z"></path><path fill="#bfc2e1" d="m8.8 5.9c0.6-0.1 1.3-0.1 1.9-0.1v0.4h-0.3v-0.3h-1.6z"></path><path fill="#525291" d="m14.3 14.1c0 0.4-0.1 0.6-0.5 0.6 0-0.2 0.1-0.3 0.2-0.4 0-0.1 0.2-0.2 0.3-0.2z"></path><path fill="#131693" d="m17.2 14c-0.3 0.1-0.5 0.3-0.7 0.5-0.1 0.1-0.2 0.1-0.4 0.1-0.2 0.1-0.4 0.3-0.4 0.5-0.1 0-0.3 0-0.3 0.1-0.1 0.3-0.2 0.5-0.3 0.7 0.2 0.8 0.2 1.7 0.1 2.5h-0.2c0.1-0.3 0.1-0.7 0.1-1-0.2 0.1-0.3 0.1-0.5 0 0-0.4 0-0.8 0-1.3h0.3c0.2-0.5 0.2-1 0.2-1.5-0.2 0.1-0.3 0.1-0.5 0.1v-0.4c0.2 0.1 0.4 0 0.5-0.2 0.2 0 0.3 0 0.4-0.2l0.1 0.1 0.4-0.4 0.1 0.1c0-0.1 0.1-0.3 0-0.4 0.5 0 0.8-0.1 1.2-0.2 0.4 0.2 0.9 0.2 1.3 0 0.4 0.2 0.7 0.4 1 0.6-0.1 0.1-0.3 0.2-0.5 0.2-0.7-0.2-1.3-0.1-1.9 0.1z"></path><path fill="#9ea1d2" d="m30.8 14.7c-0.9-0.2-1.8-0.3-2.7-0.2 0.4-0.2 0.8-0.3 1.3-0.4 0.4 0.1 0.9 0.2 1.4 0.2v0.4z"></path><path fill="#313175" d="m4.9 14.5c0.9-0.1 1.7 0 2.6 0.1 0 0 0.1 0.1 0.1 0.2-0.5 0-0.9-0.1-1.4-0.2-0.6 0.2-1.3 0.4-2 0.5v-0.3c0.2 0 0.4 0 0.6-0.1 0.1-0.1 0.1-0.1 0.1-0.2z"></path><path fill="#ccceea" d="m14 14.3c-0.1 0.1-0.2 0.2-0.2 0.4-0.1 0.1-0.2 0.3-0.1 0.4h-0.4v0.4c0 0.1-0.2 0.2-0.3 0.2 0-0.2 0.1-0.4 0.2-0.5-0.1-0.2-0.1-0.4-0.1-0.6 0.3-0.1 0.6-0.1 0.9-0.3z"></path><path fill="#272872" d="m28.1 14.5c0.9-0.1 1.8 0 2.7 0.2 0.1 0.1 0.2 0.1 0.4 0.1v0.3h0.5v0.4h0.3v0.4c-1.2-1.3-2.5-1.6-4.2-0.9v-0.3c0.2 0 0.3-0.1 0.3-0.2z"></path><path fill="#9092b0" d="m4.8 14.7c-0.2 0.1-0.4 0.1-0.6 0.1v0.3h-0.1v-0.4h0.7z"></path><path fill="#121263" d="m19.6 14.6c0.5 0.4 0.5 0.8 0.3 1.3 0 0 0 0.1 0.1 0.2-0.4 0.1-0.7 0.3-0.9 0.5 0.1 0.4 0.3 0.7 0.5 1-0.2 0-0.3-0.1-0.4-0.2-0.2-0.6-0.7-0.8-1.3-0.7v-0.6c0.5 0.1 0.9 0 1.3-0.1v-0.3c0.1-0.2 0.2-0.2 0.3 0 0.1-0.2 0.2-0.4 0.1-0.6-0.2 0-0.4 0-0.6-0.1 0-0.1 0.1-0.1 0.2-0.2-0.2-0.1-0.4-0.2-0.6-0.1h-0.3v-0.4h-0.4c-0.2-0.1-0.4-0.1-0.6 0-0.4 0.3-0.7 0.6-0.9 1.1-0.1 0-0.1 0-0.1 0.1v0.1c-0.3 0.1-0.4 0.3-0.4 0.6 0 0.2 0.1 0.4 0.1 0.5 0.1 0.2 0.2 0.4 0.3 0.6 0.1 0.1 0.2 0.1 0.4 0.1 0.1 0.2 0.3 0.3 0.6 0.3v0.4c0.1-0.1 0.2 0 0.3 0.1-0.1 0.1 0 0.2 0.1 0.2-0.1 0.2-0.1 0.3 0 0.4-0.4 0.1-0.8 0-1.1-0.2 0.6-0.2 0.7-0.4 0.1-0.7-0.2-0.1-0.4-0.3-0.6-0.5 0-0.1-0.2-0.2-0.3-0.1-0.1-0.6-0.1-1.2 0-1.7 0-0.2 0.1-0.3 0.2-0.4 0.1-0.2 0.2-0.4 0.1-0.6 0.2 0 0.3 0 0.4-0.1 0.2-0.2 0.4-0.4 0.7-0.5 0.3 0 0.7 0 1-0.1 0.3 0 0.5 0.2 0.5 0.4 0.3 0.2 0.6 0.2 0.9 0.3z"></path><path fill="#8f91ba" d="m21.9 14.7h0.3v0.8h0.5c0 0.3 0 0.6 0.1 0.9h-0.2v-0.7h-0.5c0-0.4-0.1-0.7-0.2-1z"></path><path fill="#1c1e50" d="m17.9 14.3c-0.2 0.2-0.4 0.3-0.6 0.4v0.4h-0.1c-0.3 0.1-0.6 0.1-0.8 0.3 0.2-0.5 0.5-0.8 0.9-1.1 0.2-0.1 0.4-0.1 0.6 0z"></path><path fill="#a2a5c0" d="m17.9 14.3h0.4v0.4h0.3v0.4h-0.4c0-0.2-0.1-0.4-0.4-0.4-0.1 0.1-0.2 0.2-0.2 0.4h-0.3v-0.4c0.2-0.1 0.4-0.2 0.6-0.4z"></path><path fill="#7679a7" d="m27.8 14.7v0.4h-0.4v-0.4h0.4z"></path><path fill="#a2a5d4" d="m30.8 14.7c0.6-0.1 1 0.2 1.2 0.8h-0.3v-0.4h-0.5v-0.3c-0.2 0-0.3 0-0.4-0.1z"></path><path fill="#494a82" d="m18.6 14.7c0.2-0.1 0.4 0 0.6 0.1-0.1 0.1-0.2 0.1-0.2 0.2 0.2 0.1 0.4 0.1 0.6 0.1 0.1 0.2 0 0.4-0.1 0.6-0.1-0.2-0.2-0.2-0.3 0v-0.6h-0.6v-0.4z"></path><path fill="#333571" d="m4.1 15.1h0.1c0 0.3-0.2 0.5-0.5 0.6 0-0.3 0.2-0.4 0.4-0.6z"></path><path fill="#eceff8" d="m18.6 15.1h0.6v0.9c-0.3 0-0.6 0-0.9 0 0.1-0.1 0.2-0.1 0.3-0.2-0.3-0.1-0.6-0.1-0.9-0.1-0.1 0.1-0.1 0.2-0.1 0.3h-0.3v-0.9h0.3c0-0.2 0.1-0.3 0.2-0.4 0.3 0 0.4 0.2 0.4 0.4h0.4z"></path><path fill="#232476" d="m27.4 15.1h0.4c-0.1 0.3-0.3 0.5-0.4 0.8-0.2 0-0.3 0-0.5 0v0.8c-0.6 0.4-1.2 0.6-2 0.6 0.1 0.1 0.1 0.2 0.2 0.3 0.4 0.2 0.7 0.3 1.1 0.3 0.1 0.1 0.2 0.2 0.3 0.4h-0.5c-0.4-0.2-0.9-0.3-1.4-0.2-0.1-0.4-0.2-0.8-0.3-1.1 0 0.1 0.1 0.1 0.2 0.2 0.5-0.1 1.1-0.2 1.7-0.2-0.2-0.1-0.2-0.2 0-0.3h0.3c0.1-0.3 0.2-0.6 0.3-0.9h0.4c-0.1-0.3 0-0.5 0.2-0.7z"></path><path fill="#2e2d73" d="m7.8 14.8h0.2v0.3h0.5c0.2 0.3 0.3 0.7 0.3 1 0 0.1 0 0.1 0 0.2-0.2-0.4-0.4-0.6-0.8-0.7l-0.2-0.8z"></path><path fill="#595c82" d="m17.2 15.1c-0.2 0.4-0.3 0.7-0.5 0.9v-0.5h-0.4c0-0.1 0-0.1 0.1-0.1 0.2-0.2 0.5-0.2 0.8-0.3z"></path><path fill="#5f609c" d="m27.4 15.1c-0.2 0.2-0.3 0.4-0.2 0.7h-0.4c-0.1 0.3-0.2 0.6-0.3 0.9 0-0.2 0-0.5 0.1-0.7 0.2-0.3 0.3-0.6 0.5-0.9h0.3z"></path><path fill="#636599" d="m3.7 15.7v0.4h-0.5v-0.4h0.5z"></path><path fill="#1b1c81" d="m7.7 16.5v0.5c-0.1 0-0.1-0.1-0.1-0.3 0-0.3-0.1-0.5-0.3-0.7-0.4-0.1-0.7-0.2-1-0.3-0.3 0.1-0.7 0.2-1 0.4 0 0.1-0.1 0.2-0.1 0.3h-0.1c-0.1 0-0.2 0-0.2 0.1-0.1 0.3-0.2 0.5-0.3 0.8 0.1 0.3 0.2 0.5 0.3 0.8v0.7c-0.2-0.1-0.4-0.3-0.6-0.5 0.1-0.5 0.2-0.9 0.2-1.4 0.2-0.3 0.3-0.7 0.5-1.1l0.1 0.1c0.8-0.4 1.6-0.4 2.4 0 0.1 0.2 0.2 0.4 0.2 0.6z"></path><path fill="#151793" d="m8 15.6c0.4 0.1 0.6 0.3 0.8 0.7 0-0.1 0-0.1 0-0.2h0.1c-0.1 0.5 0.1 0.9 0.5 1.1-0.1 0.1-0.1 0.2 0 0.4-0.3 0.2-0.6 0.3-0.9 0.3 0.1-0.3 0.1-0.6 0-0.9-0.3-0.2-0.5-0.3-0.8-0.5 0-0.2-0.1-0.4-0.2-0.6-0.8-0.4-1.6-0.4-2.4 0l-0.1-0.1c-0.2 0.4-0.3 0.8-0.5 1.1 0 0.5-0.1 0.9-0.2 1.4 0.2 0.2 0.4 0.4 0.6 0.5 0.1 0.3 0.1 0.5-0.2 0.7 0.1 0.2 0.2 0.1 0.4-0.1 0.1 0.2 0.2 0.3 0.4 0.1 0.2 0 0.3 0.1 0.4 0.2 0.2-0.2 0.5-0.2 0.7 0 0.2-0.1 0.4-0.1 0.5-0.1v0.6c-0.6 0-1.2 0-1.8-0.1-0.4-0.3-0.8-0.5-1.3-0.7-0.1-0.7-0.3-1.3-0.5-2l0.2-0.8c0.1-0.2 0.3-0.5 0.4-0.8 0.6-0.3 1.3-0.6 1.9-0.9 0.5 0 1 0 1.5 0.1 0 0.4 0.2 0.6 0.5 0.6z"></path><path fill="#797cab" d="m17.7 15.7c0.3 0 0.6 0 0.9 0.1-0.1 0.1-0.2 0.1-0.3 0.2 0.3 0 0.6 0 0.9 0-0.4 0.1-0.8 0.2-1.3 0.1h-0.2v-0.4z"></path><path fill="#565993" d="m32 15.7c0.2 0.1 0.3 0.2 0.2 0.4h-0.2v-0.4z"></path><path fill="#35337a" d="m7.6 16.7h-0.1c0-0.2-0.1-0.3-0.3-0.1-0.3-0.4-0.8-0.5-1.3-0.5l-0.7 0.3c0-0.1 0.1-0.2 0.1-0.3 0.3-0.2 0.7-0.3 1-0.4 0.3 0.1 0.6 0.2 1 0.3 0.2 0.2 0.3 0.4 0.3 0.7z"></path><path fill="#a0a3bb" d="m17.2 15.1h0.1v0.9h0.3c0-0.1 0-0.2 0.1-0.3v0.4c-0.2 0-0.4 0-0.7 0.2 0.3 0.2 0.6 0.3 0.9 0.3v0.4c-0.1 0-0.2-0.1-0.2-0.3h-0.8c0.1-0.3 0-0.5-0.2-0.7 0.2-0.2 0.3-0.5 0.5-0.9z"></path><path fill="#12159a" d="m19.7 16.5c0.2-0.2 0.3-0.1 0.3 0.1 0.2-0.1 0.3-0.1 0.4 0 0.2-0.2 0.4-0.3 0.6-0.5 0.1 0 0.3-0.1 0.3-0.2 0.2-0.1 0.3-0.1 0.5 0 0.4 1.1 0.3 2.3-0.3 3.4-0.4-0.6-0.6-1.3-0.6-1.9-0.3-0.1-0.5-0.2-0.8-0.3-0.1-0.2-0.2-0.4-0.4-0.6z"></path><path fill="#1316a1" d="m15 18.4c-0.1 0.1-0.2 0.3-0.3 0.5-0.2 0-0.4 0.1-0.6 0.2-0.4-0.3-0.4-0.5-0.2-0.9-0.1-0.6-0.1-1.3-0.1-2.1 0.2-0.1 0.3-0.3 0.5-0.4 0-0.4 0.1-0.7 0.3-1 0.2 0 0.3 0 0.5-0.1 0 0.5 0 1-0.2 1.5h-0.3c0 0.5 0 0.9 0 1.3 0.2 0.1 0.3 0.1 0.5 0 0 0.3 0 0.7-0.1 1z"></path><path fill="#5a5c97" d="m16.3 15.6v0.5c-0.2 0.2-0.3 0.3-0.3 0.6 0-0.1-0.1-0.3-0.1-0.5 0-0.3 0.1-0.5 0.4-0.6z"></path><path fill="#191c45" d="m17.7 16.1h0.2v0.5c-0.3 0-0.6-0.1-0.9-0.3 0.3-0.2 0.5-0.2 0.7-0.2z"></path><path fill="#191b6d" d="m21.5 14.5h0.4v0.2c0.1 0.3 0.2 0.6 0.2 1h0.5v1.2c-0.4-0.5-0.7-1-0.9-1.6-0.1-0.3-0.2-0.6-0.2-0.8z"></path><path fill="#fdfdfc" d="m35.9 15.4v20.5h-14.6c-0.5-0.1-1-0.1-1.6-0.1v-0.5c-0.1 0-0.2 0-0.3-0.1-0.1-0.3-0.3-0.5-0.6-0.5 0.2-0.2 0.2-0.3 0.1-0.4-0.5 0.1-0.9 0.1-1.3-0.2 0.3-0.2 0.4-0.4 0.3-0.7 0.3 0 0.6 0 0.8-0.1-0.2-0.4-0.5-0.5-1-0.5-0.5 0.1-0.9 0.1-1.4-0.1-0.1 0.1 0 0.2 0.1 0.3-0.2 0-0.3 0.1-0.4 0.1-0.2-0.1-0.4-0.1-0.6 0-0.3-0.2-0.4-0.4-0.5-0.6l0.1-0.1c-0.5-0.2-0.7-0.5-0.7-1.1 0.2 0 0.3 0 0.5 0.1-0.2 0.1-0.2 0.1 0 0.2 0.1 0.1 0.2 0 0.3-0.1-0.1-0.1-0.2-0.3-0.2-0.5h0.3v0.4h0.5c0 0.2 0.1 0.3 0.3 0.3 0.2 0.2 0.4 0.4 0.7 0.3 0.2 0 0.3 0.2 0.2 0.3 0.6 0.2 1.3 0.2 1.9 0.2 0.3-0.2 0.6-0.3 0.9-0.4 0.2 0.1 0.4 0.1 0.6 0.2-0.1-0.1-0.1-0.2 0-0.3 0.6-0.5 1-1.1 1-1.9 0.2-0.3 0.3-0.6 0.2-1-0.2-0.7-0.4-1.4-0.5-2.2h-0.4c0-0.3-0.2-0.5-0.6-0.6l0.1-0.1c-0.2 0-0.4-0.1-0.6 0 0-0.2 0.1-0.4 0.2-0.5l0.1 0.1c0.1-0.1 0.3-0.1 0.4-0.1-0.1-0.2-0.1-0.2 0.1-0.3-0.1-0.1-0.2-0.2-0.3-0.2 0.2-0.1 0.5-0.1 0.8-0.1 0 0.3-0.1 0.5-0.3 0.7 0.2 0.1 0.2 0.3 0.1 0.4 0.1 0.1 0.2 0.1 0.3 0.2l0.5-0.5c0-0.2-0.1-0.3-0.1-0.5l0.1 0c0.1 0.1 0.2 0.3 0.2 0.4 0.1-0.2 0.1-0.4 0.1-0.7-0.3 0.1-0.6 0-0.8-0.1l0.2-0.1c-0.4-0.2-0.7-0.3-1-0.5 0-0.4 0.3-0.8 0.8-1-0.2-0.1-0.2-0.3 0-0.4 0.1 0.1 0.1 0.2 0.2 0.3h0.9c-0.1 0.2-0.1 0.3 0.2 0.4 0.2-0.1 0.3-0.2 0.4-0.4 0.1 0.2 0.2 0.4 0.3 0.6 0 0.2 0 0.4 0.1 0.5-0.1 0.5-0.2 1.1-0.2 1.6l0.1 1.6c0.1 0.1 0.1 0.1 0.2 0.1-0.1 0.2-0.1 0.3-0.1 0.5 0.3 0.1 0.5 0.3 0.6 0.7 0.1-0.1 0.1-0.1 0.2-0.2 0.1 0.2 0.1 0.4 0.2 0.6 0.1-0.1 0.2-0.1 0.2 0.1-0.1 0.1-0.1 0.2 0 0.4 0.3 0.1 0.6 0.1 0.8 0 0.2 0.1 0.2 0.2 0.1 0.4-0.1 0.1-0.2 0.1-0.3 0.1 0.3 0.3 0.6 0.3 1 0 0 0.1 0.1 0.1 0.1 0.1 0-0.1 0.1-0.3 0.2-0.4 0 0.1 0.1 0.1 0.2 0.2 0.2 0 0.4 0 0.6 0 0-0.5 0.2-0.8 0.7-0.8 0.1-0.2 0.2-0.3 0.3-0.3 0.3 0 0.5 0.1 0.8 0.2l0.1-0.6c0.2 0.2 0.4 0.1 0.5-0.1-0.2-0.1-0.3-0.3-0.3-0.5 0-0.3 0.1-0.5 0.1-0.8v-0.2c0.1-0.1 0.2-0.2 0.3-0.3 0-0.6 0-1.3 0-2h-0.3v-0.6h-0.4v-0.6c-0.3-0.4-0.6-0.8-1-1.2-0.1 0.1-0.1 0.1-0.2 0.2h-0.3c-0.1-0.1-0.2-0.2-0.4-0.3-0.6-0.1-1.3-0.1-2 0-0.3-0.4-0.4-0.4-0.4 0.1-0.2 0.1-0.3 0-0.5 0 0.2-0.2 0.1-0.4-0.1-0.6-0.2-0.1-0.3 0-0.5 0.1h-0.1c0.1-0.2 0.2-0.3 0.4-0.3-0.2-0.1-0.3-0.1-0.3-0.3-0.5 0.3-1.1 0.4-1.6 0.2-0.1 0.3 0 0.5 0.1 0.7-0.2 0.2-0.4 0.3-0.6 0.2v-0.5c0.2-0.3 0.4-0.6 0.3-0.9h0.2c0.4-0.2 0.6-0.5 0.6-0.9 0 0.2 0.2 0.2 0.3 0.1 0.2-0.2 0.2-0.4 0.1-0.6 0-0.1 0.1-0.1 0.2-0.1 0.2 0.2 0.4 0.2 0.7 0.2 0-0.3 0-0.6 0-1 0-0.1 0.1-0.2 0.2-0.3 0.1 0.1 0.2 0.2 0.2 0.3l2 0.1c0.3 0.3 0.4 0.6 0.5 0.9 0.1 0.2 0.3 0.3 0.4 0.4 0 0-0.1 0-0.1 0.1 0.3 0.1 0.6 0.2 0.9 0.3 0.2 0.3 0.3 0.3 0.5 0.3 0.8 0.2 1.6 0.2 2.5 0.1 0.2 0 0.3-0.2 0.4-0.4 0.3-0.1 0.5-0.1 0.8-0.2 0.1-0.2 0.1-0.4 0.1-0.7h0.3v-0.6h0.5v-1.4c0.1 0.2 0.1 0.5 0.2 0.8 0.2-0.3 0.3-0.6 0.4-1-0.2 0-0.3 0-0.4 0-0.2-0.6-0.1-1.2 0.2-1.7l0.3 0.1c0.1-0.1 0.2-0.3 0.2-0.4 0.1-0.2 0.3-0.2 0.4-0.1 0 0.2 0.1 0.4 0.3 0.5 0.2 0 0.5 0 0.8 0 0.2-0.2 0.5-0.4 0.7-0.4z"></path><path fill="#212083" d="m31.3 17.2c0 0.3 0 0.7-0.1 1.1 0.1 0 0.2 0 0.4 0-0.4 0.3-0.8 0.7-1.1 1-0.2 0.1-0.4 0.1-0.6 0.1 0.1-0.1 0.2-0.1 0.3-0.2 0.1 0 0.1-0.1 0.1-0.2 0.1-0.2 0.2-0.3 0.5-0.3v-0.3c0.1 0.1 0.2 0.1 0.2 0 0.1-0.4 0.1-0.9 0-1.2 0-0.3 0-0.4-0.2-0.5v-0.3c-0.3-0.1-0.6-0.1-0.8-0.3-0.5 0-0.9 0.1-1.3 0.3h-0.6c0.2-0.5 0.6-0.8 1.2-0.8 0.6 0.1 1.2 0.3 1.8 0.5 0.2 0.4 0.2 0.7 0.2 1.1z"></path><path fill="#b8bcde" d="m8.5 15.1c0.2 0.2 0.3 0.4 0.6 0.5 0 0.3 0.1 0.6 0.3 0.9 0.6 0.1 1.3 0.1 1.9 0.2h-2.2c0-0.2 0-0.4-0.2-0.6h-0.1c0-0.3-0.1-0.7-0.3-1z"></path><path fill="#898cb9" d="m16.3 16.1c-0.1 0.3 0 0.6 0 0.9 0.2 0.1 0.3 0.2 0.4 0.4-0.2 0-0.3 0-0.4-0.1-0.1-0.2-0.2-0.4-0.3-0.6 0-0.3 0.1-0.4 0.3-0.6z"></path><path fill="#6667a5" d="m32.2 16.1c0.1 0.2 0.3 0.3 0.5 0.3v0.3h-0.4c-0.1-0.2-0.1-0.3-0.1-0.6z"></path><path fill="#47488a" d="m22.6 16.4h0.2c0 0.6 0 1.3-0.1 2 0 0.1-0.1 0.2-0.1 0.2v-2.2z"></path><path fill="#9194bb" d="m3.2 16.1v0.6c-0.1 0.2-0.2 0.5-0.2 0.8l0 0.8c0.1 0 0.1 0.1 0.2 0.1v0.4c-0.1-0.1-0.2-0.1-0.3-0.2-0.1-0.7 0-1.5 0.1-2.2 0.1-0.1 0.1-0.2 0.2-0.3z"></path><path fill="#ebeef8" d="m5.9 16.1c0.5 0 1 0.1 1.3 0.5 0.2-0.2 0.3-0.1 0.3 0.1-0.4 0-0.8-0.1-1.1-0.2-0.3 0-0.5 0.1-0.6 0.3 0.2 0.2 0.4 0.4 0.6 0.5l-0.4 0.2c-0.2-0.3-0.4-0.4-0.8-0.3v1.1c-0.1-0.2-0.2-0.4-0.2-0.7 0.1-0.4 0.2-0.7 0.2-1.1 0.3 0 0.6-0.1 0.7-0.4z"></path><path fill="#45487f" d="m9.5 16.7h1.8v0.3c-0.6 0.1-1.3 0-1.9-0.1 0.1-0.1 0.1-0.1 0.1-0.2z"></path><path fill="#17184c" d="m17.9 16.7c0.6-0.1 1.1 0.1 1.3 0.7h-0.4c-0.2-0.3-0.5-0.4-0.9-0.4v-0.3z"></path><path fill="#4c4d7c" d="m24.1 16.7h2.1c-0.2 0.1-0.2 0.2 0 0.3-0.6 0-1.2 0.1-1.7 0.2-0.1-0.1-0.2-0.1-0.2-0.2 0.1 0.3 0.2 0.7 0.3 1.1h-0.5v-1.4z"></path><path fill="#15188f" d="m14.6 14.7c-0.2 0.3-0.3 0.6-0.3 1-0.2 0.1-0.3 0.3-0.5 0.4 0 0.8 0 1.5 0.1 2.1-0.2 0.4-0.2 0.6 0.2 0.9 0.2-0.1 0.4-0.2 0.6-0.2 0.1-0.2 0.2-0.4 0.3-0.5-0.1 0.5-0.3 1-0.7 1.3-0.3-0.3-0.6-0.6-0.9-0.9-0.1-0.4-0.1-0.8-0.2-1.2 0.3-0.8 0.4-1.5 0.5-2.2 0.2-0.4 0.5-0.6 0.9-0.7z"></path><path fill="#141795" d="m31.3 17.2c0-0.4 0-0.7-0.2-1.1-0.6-0.2-1.2-0.4-1.8-0.5-0.6 0-1 0.3-1.2 0.8 0 0-0.1 0.1-0.1 0.1-0.2 0.1-0.3 0.3-0.3 0.4 0 0.5-0.1 1-0.3 1.5-0.5-0.1-0.9-0.2-1.2-0.5-0.1-0.2-0.2-0.4-0.2-0.6 0.5 0 0.8-0.2 0.9-0.6v-0.3h0.6c0.1-0.3 0.2-0.6 0.3-0.8l0.1 0.1c0-0.1 0.1-0.3 0.2-0.4 1.1-0.6 2.2-0.5 3.2 0.2l-0.1 0.1 0.4 0.2c0 0.1 0.2 0.3 0.3 0.5 0 0.4 0 0.8-0.1 1.2-0.1-0.1-0.3-0.2-0.5-0.3z"></path><path fill="#a2a5d8" d="m30 16.1c0.2 0.2 0.5 0.2 0.8 0.3v0.3c-0.1-0.1-0.3-0.2-0.5-0.2h-0.3v-0.4z"></path><path fill="#7274b7" d="m5.1 16.4c-0.2 0.5-0.2 1.1-0.2 1.7-0.1-0.3-0.2-0.5-0.3-0.8 0.1-0.3 0.2-0.5 0.3-0.8 0-0.1 0.1-0.1 0.2-0.1z"></path><path fill="#767896" d="m17.9 17c0.4 0 0.7 0.1 0.9 0.4-0.3-0.2-0.6-0.3-0.9-0.4z"></path><path fill="#434585" d="m3.2 16.7v1.7c-0.1 0-0.1-0.1-0.2-0.1l0-0.8c0-0.3 0.1-0.6 0.2-0.8z"></path><path fill="#212378" d="m8.9 16.1c0.2 0.2 0.2 0.4 0.2 0.6h0.4c0 0.1 0 0.1-0.1 0.2 0.6 0.1 1.3 0.2 1.9 0.1v1.1h-1.7c0.3-0.1 0.5-0.2 0.8-0.2 0.2-0.3 0.1-0.5-0.2-0.7-0.3 0-0.5-0.1-0.8 0-0.4-0.2-0.6-0.6-0.5-1.1z"></path><path fill="#f3f5fb" d="m30 16.1v0.4h0.3c0 0.2 0.1 0.3 0.2 0.4 0.2 0.5 0.2 0.9 0.2 1.4h-0.4c0 0.4-0.3 0.6-0.7 0.5-0.3 0-0.6-0.1-0.9-0.2h-0.3v-0.7c0.3 0.5 0.7 0.7 1.2 0.7 0.1-0.1 0.3-0.3 0.4-0.4-0.2-0.2-0.2-0.4 0.1-0.6-0.1-0.2-0.2-0.3-0.3-0.4 0.1-0.3 0.1-0.5 0-0.7-0.5 0.1-0.9 0.2-1.4 0.2 0.1-0.2 0.2-0.3 0.3-0.3 0.4-0.2 0.8-0.3 1.3-0.3z"></path><path fill="#f4f8f7" d="m7.5 16.7v1.7c-0.2 0-0.3 0-0.4 0.2v0.1c-0.1 0-0.2 0.1-0.3 0.1-0.5 0.1-1.1 0-1.6-0.2v-1.4c0.4-0.1 0.6 0 0.8 0.3l0.4-0.2c-0.2-0.1-0.4-0.3-0.6-0.5 0.1-0.2 0.3-0.3 0.6-0.3 0.3 0.1 0.7 0.2 1.1 0.2z"></path><path fill="#8c8ed0" d="m7.5 16.7h0.1c0 0.2 0 0.3 0.1 0.3 0.1 0.2 0.1 0.4 0.1 0.6-0.1 0.3-0.1 0.7-0.2 1h-0.5c0.1-0.2 0.2-0.2 0.4-0.2v-1.7z"></path><path fill="#4d4e92" d="m13.3 15.5c-0.3 1.3-0.3 2.6 0 3.9-0.1 0-0.2 0-0.3-0.1v-3.6c0.1 0 0.3-0.1 0.3-0.2z"></path><path fill="#edf2f8" d="m16.3 15.5h0.4v0.5c0.2 0.2 0.3 0.4 0.2 0.7h0.8c0 0.2 0.1 0.3 0.2 0.3 0.3 0.1 0.6 0.2 0.9 0.4h0.4v0.4c0 0.4 0.1 0.7 0.1 1h-0.3c-0.3-0.3-0.7-0.5-1.1-0.7v-0.5c-0.4 0-0.8-0.1-1.2-0.2-0.1-0.2-0.2-0.3-0.4-0.4 0-0.3-0.1-0.6 0-0.9v-0.6z"></path><path fill="#8487b6" d="m13 16.7v1.9h-0.2c-0.1-0.7 0-1.3 0.2-1.9z"></path><path fill="#c6c8e3" d="m16.7 17.4c0.4 0.1 0.8 0.2 1.2 0.2v0.5c-0.2-0.2-0.4-0.3-0.6-0.4-0.3 0-0.5-0.1-0.6-0.3z"></path><path fill="#171986" d="m26.9 16.7c-0.1 0.4-0.4 0.6-0.9 0.6 0 0.2 0.1 0.4 0.2 0.6-0.4 0-0.7-0.1-1.1-0.3-0.1-0.1-0.1-0.2-0.2-0.3 0.8 0 1.4-0.2 2-0.6z"></path><path fill="#c3c6ea" d="m28.3 16.4h0.4c-0.1 0-0.2 0.1-0.3 0.3-0.1 0.2-0.2 0.4-0.2 0.7l0 0.7c0.1-0.1 0.1-0.1 0.2-0.2v0.7c-0.1 0-0.1-0.1-0.2-0.2-0.2-0.7-0.1-1.4 0.1-2z"></path><path fill="#222469" d="m32.3 16.7h0.4v1.9h-0.4v-1.9z"></path><path fill="#8a8cb2" d="m22.8 16.4h0.1c0 0.7 0 1.5-0.1 2.2 0 0.3-0.1 0.5-0.2 0.7v-0.7c0 0 0.1-0.1 0.1-0.2 0.1-0.7 0.1-1.4 0.1-2z"></path><path fill="#0c0e77" d="m16.1 14.6c0.1 0.2 0 0.4-0.1 0.6-0.1 0.1-0.2 0.2-0.2 0.4-0.1 0.5-0.1 1.1 0 1.7 0.1-0.1 0.3 0 0.3 0.1 0.2 0.2 0.4 0.4 0.6 0.5-0.1 0.3-0.2 0.4-0.4 0.5-0.1 0.1-0.2 0.3-0.2 0.4-0.3 0-0.6-0.1-0.9-0.4 0.1-0.8 0.1-1.7-0.1-2.5 0.1-0.2 0.2-0.4 0.3-0.7 0-0.1 0.2-0.1 0.3-0.1 0-0.2 0.2-0.4 0.4-0.5z"></path><path fill="#7577a8" d="m19.2 17.4c0.1 0.1 0.2 0.2 0.4 0.2v0.6c-0.2-0.1-0.3-0.2-0.4-0.4v-0.4z"></path><path fill="#5b5ea3" d="m9.6 18.1h1.7c-0.5 0.1-1 0.3-1.6 0.3l-0.6 0.2v-0.2c0-0.3 0.2-0.4 0.5-0.3z"></path><path fill="#565993" d="m24.6 18.1c0.5-0.1 1 0 1.4 0.2-0.5 0-1 0-1.4-0.2z"></path><path fill="#9397c5" d="m11.3 16.7c0.1 0.5 0.2 1.1 0.1 1.7h-1.7c0.6 0 1.1-0.2 1.6-0.3v-1.4z"></path><path fill="#8689b2" d="m24.1 18.1h0.5c0.4 0.2 0.9 0.2 1.4 0.2h0.5v0.1h-2.4v-0.3z"></path><path fill="#aeb1d7" d="m32.7 16.4c0.1 0.4 0.1 0.8 0.1 1.2v1.4h-0.5v0.6h-0.3l0.3-1h0.4v-2.2z"></path><path fill="#c5c9ea" d="m19.2 17.8c0.1 0.2 0.2 0.3 0.4 0.4v0.6c-0.2 0.2-0.4 0.2-0.6 0h0.3c0-0.3-0.1-0.6-0.1-1z"></path><path fill="#d0d3f1" d="m9.7 18.4h1.6c-0.1 0.2-0.2 0.3-0.4 0.3-0.6-0.1-1.2-0.1-1.7 0l-0.1 0.6c-0.1 0.1-0.2 0.1-0.3 0.1 0.2-0.2 0.2-0.5 0.3-0.8l0.6-0.2z"></path><path fill="#191c49" d="m17.6 18.2c0.3 0 0.5 0.2 0.6 0.5 0.2 0 0.4 0 0.6 0.1-0.2 0-0.5 0.1-0.7 0h-0.4c-0.1-0.1-0.1-0.2 0-0.4-0.1 0-0.2-0.1-0.1-0.2z"></path><path fill="#191a7a" d="m7.6 14.8h0.2l0.2 0.8c-0.3 0-0.5-0.2-0.5-0.6-0.5-0.1-1-0.1-1.5-0.1-0.6 0.3-1.3 0.6-2 0.9 0 0.3-0.2 0.6-0.3 0.8l-0.2 0.8c0.2 0.7 0.4 1.3 0.5 2 0.5 0.2 0.9 0.4 1.3 0.7 0.6 0.1 1.2 0.1 1.8 0.1 0.4 0 0.7-0.1 0.9-0.2v0.3c-0.2 0-0.4 0-0.5 0.2-0.9 0.1-1.8 0-2.7-0.2h-0.2c0-0.1 0-0.2-0.1-0.3-0.4-0.3-0.7-0.6-0.9-1-0.1-0.1-0.2-0.2-0.4-0.2v-2.7h0.5v-0.4c0.3-0.1 0.5-0.3 0.5-0.6 0.7-0.1 1.4-0.3 2-0.5 0.5 0.1 0.9 0.2 1.4 0.2z"></path><path fill="#7375ae" d="m26.5 18.4c0.1 0 0.1 0.1 0.1 0.2 0.1 0.2 0.2 0.4 0.2 0.7-0.2-0.3-0.3-0.6-0.3-0.9z"></path><path fill="#15188d" d="m32 15.9v0.2c0 0.6 0.1 1.1 0.2 1.7-0.1 0.3-0.2 0.7-0.2 1.2-0.1 0.2-0.3 0.3-0.4 0.5-0.4 0.1-0.8 0.4-1.1 0.6-0.9 0.3-1.8 0.2-2.6-0.1-0.4-0.5-0.7-1-1-1.4h-0.3c0-0.1 0-0.2-0.1-0.2v-0.1c-0.1-0.2-0.2-0.3-0.3-0.4 0.3 0.3 0.7 0.4 1.2 0.5 0.2-0.5 0.3-1 0.3-1.5 0-0.1 0.1-0.3 0.3-0.4-0.1 0.3-0.2 0.7-0.3 1 0.2 0.4 0.3 0.8 0.3 1.2h0.3v0.4c0.5 0.2 1 0.3 1.6 0.3 0.2 0 0.4 0 0.6 0 0.3-0.4 0.7-0.8 1.1-1.1-0.2 0-0.3 0-0.4 0 0.1-0.4 0.1-0.8 0.1-1.1 0.2 0.1 0.4 0.2 0.5 0.3 0.1-0.4 0.1-0.8 0.1-1.2-0.1-0.2-0.3-0.4-0.3-0.5l-0.4-0.2 0.1-0.1c-1-0.7-2.1-0.8-3.2-0.2-0.1 0.1-0.2 0.3-0.2 0.4l-0.1-0.1c-0.1 0.2-0.2 0.5-0.3 0.8h-0.6v-0.5c0.2 0 0.3 0 0.5 0 0.1-0.3 0.3-0.5 0.4-0.8v-0.1c1.7-0.7 3-0.4 4.2 0.9z"></path><path fill="#5254a2" d="m31 17.2c0.1 0.3 0.1 0.8 0.1 1.2-0.1 0.1-0.2 0.1-0.3 0 0.1-0.4 0.2-0.8 0.2-1.2z"></path><path fill="#c4c7ea" d="m30.3 16.5c0.2 0 0.4 0.1 0.5 0.2 0.2 0.1 0.2 0.2 0.2 0.5 0 0.4-0.1 0.8-0.2 1.2v0.3c-0.3 0-0.4 0.1-0.5 0.3h-1.6v-0.4c0.3 0.1 0.6 0.2 0.9 0.2 0.4 0.1 0.7-0.1 0.7-0.5h0.4c0-0.5 0-0.9-0.2-1.4-0.1-0.1-0.2-0.2-0.2-0.4z"></path><path fill="#f9faf6" d="m28.4 17.9c-0.1 0.1-0.1 0.1-0.2 0.2l0-0.7c0-0.3 0.1-0.5 0.2-0.7 0.5 0 0.9-0.1 1.4-0.2 0.1 0.2 0.1 0.4 0 0.7 0.1 0.1 0.2 0.2 0.3 0.4-0.3 0.2-0.3 0.4-0.1 0.6-0.1 0.1-0.3 0.3-0.4 0.4-0.5 0-0.9-0.2-1.2-0.7z"></path><path fill="#50519d" d="m4.9 18.4c0.2 0 0.2 0.1 0.2 0.3 0.2 0 0.4 0.1 0.5 0.3-0.3 0-0.5-0.1-0.7-0.2v-0.4z"></path><path fill="#c0c4ea" d="m5.9 16.1c-0.1 0.3-0.4 0.4-0.7 0.4 0 0.4-0.1 0.7-0.2 1.1 0 0.3 0.1 0.5 0.2 0.7v0.3c0.5 0.2 1.1 0.3 1.6 0.2-0.3 0.2-0.7 0.2-1.1 0.2h-0.1c-0.1-0.2-0.3-0.3-0.5-0.3 0-0.2 0-0.3-0.2-0.3v-0.3c0-0.6 0-1.2 0.2-1.7h0.1l0.7-0.3z"></path><path fill="#4f5191" d="m16.6 18.6c0.3 0.2 0.7 0.3 1.1 0.2h0.4v0.2h-1.8v-0.4h0.3z"></path><path fill="#b7bae2" d="m16.3 19h1v0.3h-0.9v0.6c0.1-0.1 0.2 0 0.3 0.1h-0.6c0.1-0.2 0-0.3-0.1-0.5 0.2-0.1 0.3-0.3 0.3-0.5z"></path><path fill="#7578a5" d="m17.3 19h0.6v0.3h-0.6v-0.3z"></path><path fill="#353682" d="m28.1 16.4h0.2c-0.2 0.6-0.3 1.3-0.1 2 0.1 0.1 0.1 0.2 0.2 0.2v0.4h1.9c0 0.1 0 0.2-0.1 0.2-0.1 0.1-0.2 0.1-0.3 0.2-0.6 0-1.1-0.1-1.6-0.3v-0.4h-0.3c0-0.4-0.1-0.8-0.3-1.2 0.1-0.3 0.2-0.7 0.3-1 0 0 0.1-0.1 0.1-0.1z"></path><path fill="#3b3e8f" d="m7.1 18.7c0 0.2 0 0.4-0.2 0.5-0.4 0.1-0.9 0.1-1.3 0 0-0.1 0-0.2 0.1-0.2 0.4 0 0.8 0 1.1-0.2 0.1 0 0.2-0.1 0.3-0.1z"></path><path fill="#8688ad" d="m17.3 17.7c0.2 0.1 0.4 0.2 0.6 0.4 0.4 0.2 0.8 0.4 1.1 0.7 0.2 0.2 0.4 0.2 0.6 0 0.1 0.3 0 0.5-0.2 0.6-0.1 0-0.2 0-0.3-0.1-0.1 0.2-0.2 0.4-0.1 0.7h-0.4v0.3h-0.3v-0.4h0.5l-0.2-0.9h-0.5v-0.2c0.2 0.1 0.5 0 0.7 0-0.2-0.1-0.4-0.1-0.6-0.1-0.1-0.3-0.3-0.5-0.6-0.5-0.1-0.1-0.2-0.2-0.3-0.1v-0.4z"></path><path fill="#e2e6f6" d="m22.9 16.4l0.3 0.3c0 0.1-0.1 0.1-0.1 0-0.1 0.9-0.1 1.9-0.2 2.8-0.1 0-0.2 0-0.2 0.1 0.1 0.2 0.1 0.4-0.1 0.6-0.1 0.1-0.3 0.1-0.3-0.1 0 0.4-0.2 0.7-0.6 0.9l0.2-0.7c0.2-0.1 0.2-0.2 0.2-0.4v-0.3h0.5v-0.3c0.1-0.2 0.2-0.4 0.2-0.7 0.1-0.7 0.1-1.5 0.1-2.2z"></path><path fill="#28287f" d="m9.1 18.4v0.2c-0.1 0.3-0.1 0.6-0.3 0.8v0.2c-0.2 0.1-0.5 0.2-0.8 0.4 0-0.4 0.2-0.7 0.6-0.8 0-0.2 0-0.3-0.1-0.4 0.2-0.1 0.4-0.3 0.6-0.4z"></path><path fill="#585a9a" d="m16.3 19c0 0.2-0.1 0.4-0.3 0.5 0.1 0.2 0.2 0.3 0.1 0.5-0.2-0.3-0.3-0.6-0.1-0.9 0.1-0.1 0.2-0.2 0.3-0.1z"></path><path fill="#505193" d="m26.8 19.3c0.4 0 0.6 0.2 0.6 0.6h-0.2c-0.2-0.2-0.3-0.4-0.4-0.6z"></path><path fill="#f9fafa" d="m8 12.5h2.7c0.3 0.2 0.6 0.4 0.9 0.4 0.2 0.2 0.2 0.3 0.2 0.5 0.2 0.1 0.5 0.2 0.7 0.4 0.3 0.1 0.6 0 0.9-0.2 0.2 0 0.4 0.1 0.5 0.2-0.3 0.2-0.5 0.4-0.7 0.7l-0.1-0.2c0 0.5-0.2 1-0.4 1.4-0.1 1 0 2 0.1 2.9 0 0.4 0.1 0.7 0 1-0.1 0.1-0.3 0.2-0.5 0.2 0.2 0 0.4 0.1 0.6 0.2 0.1 0.3 0.2 0.7 0.2 1-0.1 0.1-0.1 0.2-0.2 0.3-0.1-0.1-0.2-0.1-0.2 0 0.1 0.1 0.2 0.2 0.3 0.2-0.3 0-0.5 0-0.8 0.2-0.2 0.2-0.3 0.5-0.4 0.9-0.3-0.1-0.5 0-0.6 0.2-0.1-0.2-0.3-0.2-0.5-0.2-0.4-0.3-0.8-0.4-1.4-0.4-0.6 0.1-1.1 0.2-1.7 0.4l-0.1 0.6h-0.4c0.1-0.4 0.2-0.7 0.6-0.9l-0.3-0.1c0.2-0.2 0.3-0.2 0.5 0.1 0.3-0.2 0.7-0.3 1-0.3 0.1-0.2 0-0.3-0.1-0.5-0.3 0.2-0.5 0.1-0.7-0.1-1.1 0.1-2.1 0-3.1-0.5-0.1-0.1-0.1-0.1-0.1-0.3h0.7c0.2 0.2 0.4 0.3 0.6 0.3 0.2 0 0.3-0.1 0.4-0.3h0.9c0.2 0 0.3 0.1 0.5 0.2 0.1-0.3 0.3-0.4 0.5-0.4 0-0.3 0.1-0.6 0.3-0.8v-0.2c0.1 0 0.2 0 0.3-0.1l0.1-0.6c0.5-0.1 1.1-0.1 1.7 0 0.2 0 0.3-0.1 0.4-0.3h0.5c0-0.8-0.1-1.5-0.3-2.1-0.2 0-0.4 0.1-0.6 0.2-0.3-0.3-0.5-0.3-0.8-0.1-0.6-0.1-0.8-0.4-0.5-0.9-0.3-0.4-0.3-0.7 0-1.1l-0.4-0.1c0.1-0.1 0.2-0.2 0.2-0.3-0.2-0.2-0.4-0.4-0.6-0.6l-0.2 0.7c-0.2-0.2-0.4-0.1-0.5 0.1-0.1-0.2-0.2-0.2-0.3-0.1-0.6-0.1-1.1-0.2-1.6-0.4 0.3 0 0.5-0.1 0.7-0.3l0.1 0.2c0.1-0.2 0.2-0.4 0.3-0.6 0 0 0.1 0.1 0.1 0.1 0.1-0.3 0.2-0.2 0.3 0.1 0.2-0.2 0.3-0.4 0.3-0.7z"></path><path fill="#18198e" d="m7.7 16.5c0.3 0.2 0.5 0.3 0.8 0.5 0.1 0.3 0.1 0.6 0 0.9 0.3 0 0.6-0.1 0.9-0.3-0.1-0.2-0.1-0.3 0-0.4 0.3-0.1 0.5 0 0.8 0 0.3 0.2 0.4 0.4 0.2 0.7-0.3 0-0.5 0.1-0.8 0.2-0.3-0.1-0.5 0-0.5 0.3-0.2 0.1-0.4 0.3-0.6 0.4 0.1 0.1 0.1 0.2 0.1 0.4-0.4 0.1-0.6 0.4-0.6 0.8-0.2 0.1-0.5 0.2-0.9 0.2v-0.6c-0.1 0-0.3 0-0.5 0.1-0.2-0.2-0.5-0.2-0.7 0-0.1-0.1-0.2-0.2-0.4-0.2-0.2 0.2-0.3 0.1-0.4-0.1-0.2 0.2-0.3 0.3-0.4 0.1 0.3-0.2 0.3-0.4 0.2-0.7 0.2 0.1 0.4 0.2 0.7 0.2h0.1c-0.1 0-0.1 0.1-0.1 0.2 0.4 0.1 0.9 0.1 1.3 0 0.2-0.1 0.2-0.3 0.2-0.5v-0.1h0.5c0.1-0.3 0.1-0.7 0.2-1 0-0.2 0-0.4-0.1-0.6v-0.5z"></path><path fill="#e7e9f3" d="m17.9 19h0.7l0.2 0.9h-0.5v0.4h-0.1c-0.2 0.1-0.3 0.3-0.4 0.5-0.1-0.2-0.2-0.5-0.3-0.7-0.2-0.1-0.4-0.2-0.6-0.1h-0.2c-0.1-0.1-0.2-0.2-0.3-0.1v-0.6h1.5v-0.3z"></path><path fill="#5a5c96" d="m22.6 19.3v0.3h-0.5v-0.3h0.5z"></path><path fill="#48498a" d="m3.2 18.8c0.2 0 0.3 0.1 0.4 0.2 0.2 0.4 0.5 0.7 0.9 1 0.1 0.1 0.1 0.2 0.1 0.3h-0.4c0-0.1 0-0.2 0-0.3-0.3-0.2-0.5-0.4-0.7-0.6-0.1-0.1-0.2-0.1-0.3-0.1v-0.5z"></path><path fill="#e4e7f7" d="m24.1 16.7v1.7h2.4c0 0.3 0.1 0.6 0.3 0.9 0.1 0.2 0.2 0.4 0.4 0.6 0.1 0.1 0 0.2-0.2 0.3 0 0-0.1-0.1-0.1-0.1-0.1-0.1-0.3-0.2-0.4-0.4-0.1-0.3-0.2-0.6-0.5-0.9l-2-0.1c0-0.1-0.1-0.2-0.2-0.3-0.1-0.6 0-1.2 0.3-1.7z"></path><path fill="#161675" d="m15.2 13.4h0.2c-0.2 0.2-0.2 0.5-0.3 0.7-0.1 0.2-0.3 0.3-0.5 0.2v0.4c-0.4 0.1-0.7 0.3-0.9 0.7-0.1 0.7-0.2 1.4-0.5 2.2 0.1 0.4 0.1 0.8 0.2 1.2 0.3 0.3 0.6 0.6 0.9 0.9 0.4-0.3 0.6-0.8 0.7-1.3h0.2c0.3 0.3 0.6 0.4 0.9 0.4 0-0.1 0.1-0.3 0.2-0.4 0.2-0.1 0.3-0.2 0.4-0.5 0.6 0.3 0.5 0.5-0.1 0.7h-0.3v0.4c-0.1-0.1-0.2 0-0.3 0.1-0.2 0.3-0.1 0.6 0.1 0.9h0.6c-0.2 0-0.3 0.1-0.4 0.3-0.4 0-0.7 0-0.9-0.2-0.2 0.4-0.2 0.8 0 1.2-0.3-0.1-0.4-0.4-0.4-0.7-0.6 0-1.1-0.3-1.3-0.9-0.1-0.1-0.3-0.1-0.4-0.1v-0.2c-0.3-1.3-0.3-2.6 0-3.9v-0.4h0.4c-0.1-0.1 0-0.3 0.1-0.4 0.4 0 0.5-0.2 0.5-0.6v-0.3h0.4c0.3 0 0.4-0.1 0.5-0.4z"></path><path fill="#0a0d77" d="m19.6 14.6c0.4 0.2 0.8 0.4 1.3 0.5 0.2 0.4 0.2 0.7 0.1 1-0.2 0.2-0.4 0.3-0.6 0.5-0.1-0.1-0.2-0.1-0.4 0 0-0.2-0.1-0.3-0.3-0.1-0.3 0-0.4 0.2-0.2 0.5 0.3 0.3 0.7 0.5 1.1 0.7 0.3 0.7 0.3 1.3 0 2 0.1 0.1 0.1 0.2 0.2 0.3-0.2 0.6-0.4 0.7-0.7 0.2 0.1-0.3 0.1-0.6 0.1-0.9h-0.5c0.1-0.3 0.2-0.6 0.5-0.7-0.1-0.2-0.1-0.3 0-0.4-0.2-0.2-0.4-0.4-0.6-0.6-0.2-0.3-0.4-0.6-0.5-0.9 0.2-0.3 0.5-0.5 0.9-0.6-0.1-0.1-0.1-0.2-0.1-0.2 0.2-0.5 0.2-0.9-0.3-1.3z"></path><path fill="#b3b6da" d="m13 19.3c0.1 0.1 0.2 0.1 0.3 0.1v0.2c0.1 0.2 0.2 0.3 0.4 0.3v0.4h-0.5c-0.1-0.3-0.2-0.7-0.2-1z"></path><path fill="#535593" d="m22.1 19.9c0 0.2 0 0.3-0.2 0.4-0.1-0.2 0-0.4 0.2-0.4z"></path><path fill="#dee2f1" d="m2.9 18.6c0.1 0.1 0.2 0.1 0.3 0.2v0.5c0.1 0 0.2 0 0.3 0.1 0.2 0.2 0.4 0.4 0.7 0.6 0 0.1 0 0.2 0 0.3h0.6c0 0.1 0.1 0.2 0.1 0.3-0.4-0.1-0.9-0.2-1.3-0.3-0.2-0.3-0.4-0.5-0.6-0.7-0.1-0.3-0.2-0.7-0.1-1z"></path><path fill="#474883" d="m16.7 20h0.2v0.3h0.4v0.6c-0.1-0.2-0.2-0.3-0.1-0.5-0.3 0-0.5 0-0.7-0.1h-0.2c0.1-0.2 0.2-0.3 0.4-0.3z"></path><path fill="#171876" d="m32 16.1h0.2c0 0.3 0 0.4 0.1 0.6v1.9l-0.3 1-0.7 0.3v0.4c-0.2 0-0.4 0-0.5 0.2-0.9 0.1-1.8 0-2.7-0.2h-0.4v-0.4h-0.3c0-0.4-0.2-0.6-0.6-0.6 0-0.3-0.1-0.5-0.2-0.7h0.3c0.3 0.4 0.6 0.9 1 1.4 0.8 0.3 1.7 0.4 2.6 0.1 0.3-0.2 0.7-0.5 1.1-0.6 0.1-0.2 0.3-0.3 0.4-0.5 0-0.5 0.1-0.9 0.2-1.2-0.1-0.6-0.2-1.1-0.2-1.7z"></path><path fill="#696ba4" d="m28.4 18.6h0.3v0.4h-0.3v-0.4z"></path><path fill="#5a5b9c" d="m4.8 20.3c0.9 0.2 1.8 0.3 2.7 0.2v0.1h-2.6c0-0.1-0.1-0.2-0.1-0.3z"></path><path fill="#7c7eaa" d="m13.7 20.3h0.3v0.3-0.3h-0.3z"></path><path fill="#9094c8" d="m5.6 20.6h1c-0.1 0.2-0.2 0.3-0.4 0.3-0.2 0-0.4-0.1-0.6-0.3z"></path><path fill="#cdd0e4" d="m8.8 19.6c-0.2 0.2-0.3 0.5-0.3 0.8-0.2 0-0.4 0.1-0.5 0.4-0.2-0.1-0.3-0.2-0.5-0.2v-0.1c0.1-0.2 0.3-0.2 0.5-0.2v-0.3c0.3-0.2 0.6-0.3 0.8-0.4z"></path><path fill="#1b1b6a" d="m13.3 19.6c0.1 0 0.3 0 0.4 0.1 0.2 0.6 0.7 0.9 1.3 0.9 0 0.3 0.1 0.6 0.4 0.7v0.2h-0.4c0-0.4-0.2-0.6-0.7-0.6-0.1 0-0.3-0.1-0.3-0.3v-0.3h-0.3v-0.4c-0.2 0-0.3-0.1-0.4-0.3z"></path><path fill="#d3d6ee" d="m32 19.6c0 0.3 0 0.5-0.1 0.7-0.3 0.1-0.5 0.1-0.8 0.2-0.1 0.2-0.2 0.4-0.4 0.4-0.9 0.1-1.7 0.1-2.5-0.1-0.2 0-0.3 0-0.5-0.3-0.3-0.1-0.6-0.2-0.9-0.3 0-0.1 0.1-0.1 0.1-0.1 0 0 0.1 0.1 0.1 0.1 0.2-0.1 0.3-0.2 0.2-0.3h0.2v0.4h0.7v0.3h1c0.1 0.2 0.2 0.3 0.4 0.3l0.5-0.1c0 0 0.1-0.1 0.1-0.2 0.2 0.1 0.5 0 0.7-0.1 0.1-0.2 0.3-0.2 0.5-0.2v-0.4l0.7-0.3z"></path><path fill="#56579b" d="m28.1 20.3c0.9 0.2 1.8 0.3 2.7 0.2-0.2 0.1-0.5 0.2-0.7 0.1h-2v-0.3z"></path><path fill="#6c6ea1" d="m27.4 19.9h0.3v0.4h-0.3v-0.4z"></path><path fill="#c9cce4" d="m16.9 20c0.2-0.1 0.4 0 0.6 0.1 0.1 0.2 0.2 0.5 0.3 0.7 0.1-0.2 0.2-0.4 0.4-0.5v0.6h-0.9v-0.6h-0.4v-0.3z"></path><path fill="#9497ca" d="m29.1 20.6h1c0 0.1-0.1 0.2-0.1 0.2l-0.5 0.1c-0.2 0-0.3-0.1-0.4-0.3z"></path><path fill="#6c6fab" d="m21.9 20.3l-0.2 0.7h-0.5v0.3h-0.3c0.1-0.1 0.2-0.2 0.2-0.4h0.4c0.1-0.3 0.2-0.5 0.4-0.6z"></path><path fill="#101057" d="m19.4 19.4c-0.4 0.6-0.6 1.2-0.7 1.8-0.3 0.1-0.7 0.1-1.1 0.1-0.4-0.1-0.8-0.4-1.1-0.7 0.1-0.1 0.1-0.2 0-0.3 0.2 0.1 0.4 0.1 0.7 0.1-0.1 0.2 0 0.3 0.1 0.5 0.3 0.1 0.6 0.1 1 0.1v-0.7h0.3v-0.3h0.4c-0.1-0.3 0-0.5 0.1-0.7 0.1 0.1 0.2 0.1 0.3 0.1z"></path><path fill="#52537e" d="m18.2 20.3h0.1v0.7c-0.4 0-0.7 0-1-0.1h0.9v-0.6z"></path><path fill="#3b3c76" d="m14.3 20.9c0.5 0 0.7 0.2 0.7 0.6-0.2-0.1-0.4-0.2-0.7-0.2v-0.4z"></path><path fill="#151778" d="m19.6 17.6c0.2 0.2 0.4 0.4 0.6 0.6-0.1 0.1-0.1 0.2 0 0.4-0.3 0.1-0.4 0.4-0.5 0.7 0.1 0.6 0 1.1-0.2 1.6 0.1 0.1 0.2 0.1 0.3 0.2 0.1-0.2 0.1-0.2 0.2 0l0.1-0.2 0.6 0.1c0.2-0.2 0.3-0.5 0.4-0.7 0.2-0.1 0.4-0.1 0.7-0.1 0-0.3 0-0.5 0-0.8 0.4-0.4 0.6-0.9 0.6-1.5 0 0 0.1-0.1 0.2-0.1v1.5h-0.5v0.6c-0.2 0-0.3 0.2-0.2 0.4-0.2 0.1-0.3 0.3-0.4 0.6h-0.4c0 0.2-0.1 0.3-0.2 0.4 0 0.2-0.1 0.2-0.3 0.2-0.3 0.1-0.7 0.2-1 0.4-0.2 0-0.5 0.1-0.6 0.3-0.4 0-0.7 0-1.1 0v-0.3c0.3 0.1 0.6 0.1 0.8 0v-0.4c-0.4 0.1-0.8 0-1.1-0.2 0.4 0 0.8 0 1.1-0.1 0.1-0.6 0.3-1.2 0.7-1.8 0.2-0.1 0.3-0.3 0.2-0.6v-1.2z"></path><path fill="#b5b7d7" d="m13 21.5h0.3v0.4c-0.2 0-0.3-0.1-0.4-0.2-0.2 0.1-0.4 0.2-0.6 0.4-0.1 0.2-0.3 0.4-0.5 0.5 0.1-0.4 0.2-0.7 0.4-0.9 0.3-0.2 0.5-0.2 0.8-0.2z"></path><path fill="#d0d3eb" d="m21.5 21c0.1 0.3-0.1 0.6-0.3 0.9-0.3 0-0.7 0-1 0.1v-0.1c0.2-0.1 0.3-0.2 0.4-0.4 0.2 0 0.3 0 0.3-0.2h0.3v-0.3h0.3z"></path><path fill="#bbbdd9" d="m13.3 21.9c0.2 0 0.3 0 0.4 0.2 0.1 0.3 0.1 0.5 0.1 0.8h-0.5c0.1-0.1 0.2-0.1 0.4-0.1v-0.5h-0.4v-0.4z"></path><path fill="#161781" d="m16.3 20.3h0.2c0.1 0.1 0.1 0.2 0 0.3 0.3 0.3 0.7 0.6 1.1 0.7 0.3 0.2 0.7 0.3 1.1 0.2v0.4c-0.2 0.1-0.5 0.1-0.8 0v0.3h-1.6c-0.2 0-0.3-0.1-0.3-0.3h-0.3c-0.1-0.2-0.2-0.3-0.3-0.4v-0.2c-0.2-0.4-0.2-0.8 0-1.2 0.2 0.2 0.5 0.2 0.9 0.2z"></path><path fill="#7274a0" d="m22.6 21.9v0.4h-0.4v-0.4h0.4z"></path><path fill="#626495" d="m23.1 21.9h0.2c0.2 0.1 0.3 0.2 0.3 0.4h-0.1c-0.2-0.1-0.4-0.2-0.4-0.4z"></path><path fill="#d9dcf4" d="m10.7 22.6c-0.8-0.1-1.7 0-2.5 0.1-0.2 0-0.3 0.1-0.4 0.2v0.3h-0.3l0.1-0.6c0.6-0.2 1.1-0.3 1.7-0.4 0.6 0 1 0.1 1.4 0.4z"></path><path fill="#323170" d="m13.3 21.9v0.4h0.4v0.5c-0.2 0-0.3 0-0.4 0.1 0 0.2-0.1 0.3-0.3 0.3 0-0.3 0-0.6-0.1-1-0.2-0.1-0.3-0.1-0.4 0.1 0-0.1-0.1-0.1-0.2-0.2 0.2-0.2 0.4-0.3 0.6-0.4 0.1 0.1 0.2 0.2 0.4 0.2z"></path><path fill="#e7ebf9" d="m23.3 21.9c0.2-0.1 0.3-0.2 0.5-0.1 0.2 0.2 0.3 0.4 0.1 0.6 0.2 0 0.3 0.1 0.5 0 0-0.5 0.1-0.5 0.4-0.1 0.7-0.1 1.4-0.1 2 0 0.2 0.1 0.3 0.2 0.4 0.3-1.1-0.1-2.1 0-3.1 0.2-0.1-0.2-0.3-0.4-0.5-0.5 0-0.2-0.1-0.3-0.3-0.4z"></path><path fill="#4b4d84" d="m23.6 22.3c0.2 0.1 0.4 0.3 0.5 0.5v0.1c-0.3-0.1-0.5-0.2-0.5-0.6z"></path><path fill="#5f609f" d="m10.7 22.6v0.3c-0.2-0.2-0.6-0.3-1.2-0.2-0.5 0-1 0.1-1.6 0.2h-0.1c0.1-0.1 0.2-0.2 0.4-0.2 0.8-0.1 1.7-0.2 2.5-0.1z"></path><path fill="#797baa" d="m27.2 22.6h0.3c0 0 0 0.1-0.1 0.1 0.1 0.1 0.2 0.1 0.3 0.2h-0.6c-0.3-0.2-0.6-0.2-1-0.2-0.4 0-0.7 0-1 0.2h-1v-0.1c1-0.2 2-0.3 3.1-0.2z"></path><path fill="#1e1e6d" d="m22.6 21.9h0.5c0 0.2 0.2 0.3 0.4 0.4-0.2 0-0.4 0-0.6-0.1-0.3 0.2-0.3 0.4 0 0.6 0.1 0.2 0.2 0.5 0.2 0.8-0.2-0.2-0.4-0.5-0.5-0.8-0.2 0-0.3 0-0.4 0v-0.5h0.4v-0.4z"></path><path fill="#8a8dbf" d="m10.7 22.6c0.2 0 0.4 0 0.5 0.2 0.1-0.2 0.3-0.3 0.6-0.2v0.3h-1.1v-0.3z"></path><path fill="#1b1d7d" d="m23.5 22.3h0.1c0 0.4 0.2 0.5 0.5 0.6h1c-0.1 0.2-0.4 0.2-0.6 0.2-0.3 0-0.6-0.1-0.9-0.1 0-0.2-0.1-0.4-0.3-0.4-0.3 0.4-0.2 0.6 0.3 0.7-0.2 1-0.3 1.9-0.3 2.9-0.1-0.2-0.2-0.3-0.2-0.5 0.1-0.3 0.1-0.5 0.1-0.8 0.1-0.4 0-0.9-0.1-1.3 0-0.3-0.1-0.6-0.2-0.8-0.3-0.2-0.3-0.4 0-0.6 0.2 0.1 0.4 0.1 0.6 0.1z"></path><path fill="#202074" d="m27.1 22.9h-2c0.3-0.2 0.6-0.2 1-0.2 0.4 0 0.7 0 1 0.2z"></path><path fill="#f6f7fa" d="m12.8 18.6h0.2v0.7c0 0.3 0.1 0.7 0.2 1h0.5v0.3h0.3c0 0.2 0.2 0.3 0.3 0.3v0.4c0.3 0 0.5 0.1 0.7 0.2 0.2 0.3 0.4 0.4 0.7 0.4v0.4h1c0.3 0.2 0.7 0.3 1.1 0.3 0.5 0 0.8-0.1 1.2-0.3h0.1c0.2 0 0.5 0 0.8 0 0-0.2 0.1-0.3 0.3-0.3 0.3-0.1 0.7-0.1 1-0.1v0.5c0.2 0.1 0.4 0 0.6-0.2-0.1-0.2-0.2-0.4-0.1-0.7 0.5 0.2 1.1 0.1 1.6-0.2 0 0.2 0.1 0.2 0.3 0.3-0.2 0-0.3 0.1-0.4 0.3h-0.1c0-0.1-0.1-0.2-0.2-0.2-0.1 0-0.2 0.1-0.2 0.2h-0.5v0.4c-0.1 0-0.2 0-0.3 0.1 0.2 0.3 0.3 0.5 0.3 0.8 0.2 0 0.3 0 0.4 0.1-0.1 0.2-0.2 0.3-0.4 0.4-0.3-0.1-0.3-0.2-0.2-0.4h-0.9c-0.1-0.1-0.1-0.2-0.2-0.3-0.2 0.1-0.2 0.3 0 0.4-0.5 0.2-0.8 0.6-0.8 1 0.3 0.2 0.6 0.3 1 0.5l-0.2 0.1c0.2 0.1 0.5 0.2 0.8 0.1 0 0.3 0 0.5-0.1 0.7 0-0.1-0.1-0.3-0.2-0.4l-0.1 0c0 0.2 0.1 0.3 0.1 0.5l-0.5 0.5c-0.1-0.1-0.2-0.1-0.3-0.2 0.1-0.1 0.1-0.3-0.1-0.4 0.2-0.2 0.3-0.4 0.3-0.7-0.3 0-0.6 0-0.8 0.1 0.1 0 0.2 0.1 0.3 0.2-0.2 0.1-0.2 0.1-0.1 0.3-0.1 0-0.3 0-0.4 0.1l-0.1-0.1c-0.1 0.1-0.2 0.3-0.2 0.5 0.2-0.1 0.4 0 0.6 0l-0.1 0.1c0.4 0.1 0.6 0.3 0.6 0.6-0.2-0.1-0.4-0.2-0.7-0.3-0.2-0.2-0.4-0.3-0.7-0.3 0-0.3-0.1-0.4-0.4-0.5-0.1-0.7-0.1-1.3-0.1-2h-1.8v2c0 0.2 0 0.4-0.2 0.5-0.3 0.1-0.7 0.1-1 0.2v0.3h-0.5v0.5c0 0.1 0 0.2-0.2 0.2-0.2 0.2-0.3 0.4-0.3 0.7-0.1 0-0.2 0.1-0.2 0.2l-0.1-0.2c-0.1 0.7-0.1 1.3 0 2 0.1 0.1 0.2 0.3 0.3 0.5 0 0.1-0.1 0.1-0.1 0.2-0.1 0-0.2 0-0.2 0.1-0.3-0.2-0.4-0.5-0.3-0.9 0-0.3-0.1-0.3-0.2 0 0-0.8-0.1-1.6-0.2-2.4 0 0 0.1-0.1 0.2-0.1-0.3-0.2-0.3-0.3-0.1-0.5-0.3-0.2-0.5-0.4-0.6-0.6-0.1 0.3-0.1 0.7-0.2 1 0 0.1 0.1 0.1 0.1 0.2-0.4 0.1-0.7 0.2-1 0.5 0.2-0.3 0.3-0.6 0.3-0.9h0.4v-0.8c0.3-0.6 0.3-1.1 0-1.7v-1.1h0.3c0.1-0.3 0.2-0.5 0.2-0.8h0.5c0-0.3 0-0.5-0.1-0.8-0.1-0.2-0.2-0.2-0.4-0.2v-0.4h-0.3c-0.1 0-0.2-0.1-0.3-0.2 0-0.1 0.1-0.1 0.2 0 0.1-0.1 0.1-0.2 0.2-0.3 0-0.3-0.1-0.7-0.2-1-0.2-0.1-0.4-0.2-0.6-0.2 0.2 0 0.4-0.1 0.5-0.2 0.1-0.3 0-0.6 0-1z"></path><path fill="#7477a7" d="m16.7 22.3h2.3c-0.4 0.2-0.7 0.3-1.2 0.3-0.4 0-0.8-0.1-1.1-0.3z"></path><path fill="#9396ba" d="m19.6 21.9h0.6v0.1c-0.2 0-0.3 0.1-0.3 0.3-0.3 0-0.6 0-0.8 0 0.1-0.1 0.3-0.1 0.5-0.1v-0.3z"></path><path fill="#3b3d85" d="m19.6 21.9v0.3c-0.2 0-0.4 0-0.5 0.1h-2.8v-0.1h1.6c0.4 0 0.7 0 1.1 0 0.1-0.2 0.4-0.3 0.6-0.3z"></path><path fill="#9ea1c9" d="m15.7 21.9h0.3c0 0.2 0.1 0.3 0.3 0.3v0.1h-0.6v-0.4z"></path><path fill="#4d5077" d="m23.1 21.9h-0.4c0-0.1 0.1-0.2 0.2-0.2 0.1 0 0.2 0.1 0.2 0.2z"></path><path fill="#383978" d="m20.6 21.5c-0.1 0.2-0.2 0.3-0.4 0.4h-0.6c0.3-0.2 0.7-0.3 1-0.4z"></path><path fill="#4a4b81" d="m15 21.5h0.4c0.1 0.1 0.2 0.2 0.3 0.4-0.3 0-0.5-0.1-0.7-0.4z"></path><path fill="#dbdef4" d="m28.7 23.6l-0.6-0.3c-0.2-0.1-0.3-0.2-0.4-0.4-0.1-0.1-0.2-0.1-0.3-0.2 0.1 0 0.1-0.1 0.1-0.1 0.1-0.1 0.1-0.1 0.2-0.2 0.4 0.4 0.7 0.8 1 1.2z"></path><path fill="#6f71a1" d="m22.2 22.3v0.5c0.1 0 0.2 0 0.4 0 0.1 0.3 0.3 0.6 0.5 0.8 0.1 0.4 0.2 0.9 0.1 1.3-0.1 0.2-0.2 0.3-0.3 0.4 0-0.4 0.1-0.7 0.2-1.1 0-0.1-0.1-0.2-0.2-0.3-0.1-0.2-0.2-0.4-0.3-0.6-0.1-0.1-0.2-0.1-0.4-0.1 0-0.3-0.1-0.5-0.3-0.8 0.1-0.1 0.2-0.1 0.3-0.1z"></path><path fill="#37367f" d="m27.2 22.9h0.5c0.1 0.2 0.2 0.3 0.4 0.4h-0.7c0-0.1-0.1-0.3-0.2-0.4z"></path><path fill="#cacde5" d="m7.1 23.2h0.4v0.4h-0.4c0 0.2-0.1 0.5-0.3 0.6-0.1-0.3-0.1-0.6-0.1-0.9 0.2 0.1 0.3 0 0.4-0.1z"></path><path fill="#14159c" d="m27.4 23.3c0.1 0.3 0.3 0.5 0.6 0.6-0.1 0.5-0.2 0.6-0.5 0.2-0.7-0.3-1.5-0.4-2.2-0.1-0.1 0.1-0.2 0.2-0.2 0.4-0.1-0.2-0.2-0.1-0.3 0.1-0.1 0-0.2 0-0.2 0.2-0.2 0.1-0.5 0.1-0.7 0-0.1-0.4-0.1-0.8-0.2-1.2l0.1-0.1c1.2-0.1 2.4-0.1 3.6-0.1z"></path><path fill="#282777" d="m7.8 22.9h0.1c0.2 0.1 0.3 0.3 0.3 0.4-0.5 0.4-0.9 0.8-1.2 1.3 0 0.3-0.1 0.5-0.2 0.8l0.1 0.1c-0.1 0.2-0.2 0.3-0.2 0.5 0.2 0.5 0.3 1 0.4 1.5h-0.3l-0.2-0.7c-0.1-0.8 0-1.7 0.2-2.6 0.2-0.1 0.3-0.4 0.3-0.6h0.4v-0.4h0.3v-0.3z"></path><path fill="#151795" d="m12.3 26.8v0.1c-0.4 0.4-0.9 0.8-1.4 1.2-0.4-0.3-0.3-0.5 0.2-0.5 0-0.4 0.1-0.7 0.2-1.1 0.1-0.4 0.1-0.8 0.2-1.2-0.1-0.3-0.2-0.5-0.3-0.8-0.2-0.2-0.4-0.4-0.6-0.6-0.7-0.2-1.3-0.1-2 0.2-0.3 0.2-0.5 0.4-0.7 0.7-0.1 0.6-0.1 1.1 0 1.7 0 0.1 0.1 0.2 0.1 0.3 0 0.1 0.1 0.1 0.2 0.1 0 0.3 0.1 0.6 0.3 0.8 0.2 0.1 0.3 0.2 0.4 0.1v0.4c-0.6 0-1-0.3-1.1-0.9l-0.6-0.5c-0.1-0.2-0.1-0.3 0-0.5 0.4-0.4 0.4-0.7 0.1-1l0.1-0.1c-0.1-0.1-0.3-0.1-0.4-0.1 0-0.3 0.2-0.5 0.5-0.6 0.1-0.2 0.2-0.3 0.3-0.4l-0.1-0.1c0.3-0.2 0.4-0.4 0.6-0.7 0-0.1 0.1-0.2 0.2-0.2 0.6-0.1 1.3-0.1 1.9 0 0.2 0.1 0.4 0.2 0.6 0.4 0.4-0.1 0.7-0.2 1-0.4 0.1 0.2 0.2 0.3 0.2 0.5-0.1 0.2-0.1 0.5-0.1 0.8 0.2 0.8 0.2 1.6 0.2 2.4z"></path><path fill="#acafd9" d="m13.3 22.9c0 0.3-0.1 0.5-0.2 0.8h-0.3v1.1h-0.1c-0.1-0.2-0.2-0.2-0.4-0.2v-0.8c0.2 0 0.3 0 0.4-0.1 0-0.2 0.1-0.4 0.3-0.5 0.2 0 0.3-0.1 0.3-0.3z"></path><path fill="#fbfbf7" d="m15.7 26.5c-0.3 0-0.6-0.2-0.9-0.5-0.1 0.4-0.2 0.7-0.2 1.1-0.2-0.2-0.4-0.2-0.7 0-0.2-1.1 0.1-1.5 1.1-1.4l-0.1-0.4c0.2-0.1 0.3-0.2 0.5-0.4 0-0.5-0.1-1-0.3-1.4 0.8-0.1 1.5-0.2 2.2-0.2-0.2 0.1-0.4 0.2-0.5 0.3 0 0.2 0 0.5 0 0.8-0.2 0.2-0.2 0.5-0.2 0.7h-0.5c0.1 0.3 0 0.6 0 0.8-0.3 0.1-0.4 0.3-0.4 0.6z"></path><path fill="#7476b4" d="m28.1 23.3l0.6 0.3v0.3h-0.4c0-0.2-0.1-0.4-0.2-0.6z"></path><path fill="#aeb0d0" d="m19.2 26.3h-0.6v-2.4h-1.3c-0.2 0.6-0.3 1.3-0.4 1.9v-2h1.8c0 0.7 0 1.3 0.1 2 0.3 0.1 0.4 0.2 0.4 0.5z"></path><path fill="#1d1e71" d="m17.3 24.2h1v1.7h-0.1c0-0.4 0-0.8-0.1-1.2-0.2-0.1-0.4-0.1-0.6 0.1-0.1 0.2-0.1 0.4-0.2 0.6v-1.2z"></path><path fill="#7072a4" d="m28.7 24.2h0.4v0.9h-0.1c-0.1-0.3-0.1-0.6-0.3-0.9z"></path><path fill="#161880" d="m11.3 26.5l-0.2 0.1v-1.8h-0.4c0-0.2-0.1-0.2-0.3-0.2 0-0.1-0.1-0.2-0.2-0.3-0.5-0.1-1-0.1-1.5 0.1-0.1 0.1-0.2 0.2-0.2 0.4h-0.5v2c0-0.1-0.1-0.2-0.1-0.3-0.1-0.6-0.1-1.1 0-1.7 0.2-0.3 0.4-0.5 0.7-0.7 0.7-0.3 1.3-0.4 2-0.3 0.2 0.3 0.4 0.5 0.7 0.7 0 0.3 0.1 0.5 0.2 0.8-0.1 0.4-0.1 0.8-0.2 1.2z"></path><path fill="#6a6cb1" d="m10.4 24.6h-0.3c-0.1-0.2-0.3-0.2-0.5-0.2-0.3-0.1-0.5 0-0.8 0.2 0 0.1-0.1 0.2-0.3 0.2 0-0.2 0.1-0.3 0.2-0.4 0.5-0.2 1-0.2 1.5-0.1 0.1 0.1 0.2 0.2 0.2 0.3z"></path><path fill="#979ac4" d="m10.1 24.6h-1.3c0.3-0.2 0.5-0.3 0.8-0.2 0.2 0 0.4 0 0.5 0.2z"></path><path fill="#474880" d="m17.3 23.9h1.3v2h-0.3v-1.7h-1v-0.3z"></path><path fill="#d0d4e9" d="m22.9 23.9c0.1 0.1 0.2 0.2 0.2 0.3-0.1 0.4-0.2 0.7-0.2 1.1 0 0.6 0 1.3 0.2 2v0.4c-0.1 0-0.1 0-0.2-0.1l-0.1-1.6c0-0.5 0.1-1.1 0.2-1.6-0.1-0.1-0.1-0.3-0.1-0.5z"></path><path fill="#6c6eb0" d="m17.3 23.9v2.4h-0.6c0.2-0.1 0.2-0.3 0.2-0.5 0.1-0.6 0.2-1.3 0.4-1.9z"></path><path fill="#191a82" d="m27.4 23.3h0.7c0.1 0.2 0.2 0.4 0.2 0.6h0.4v0.3c0.2 0.3 0.2 0.6 0.3 0.9 0 0.5 0 1-0.3 1.4-0.1-0.4-0.1-0.8 0-1.1-0.3-0.5-0.5-1-0.7-1.5-0.3-0.1-0.5-0.3-0.6-0.6z"></path><path fill="#7375ae" d="m8.5 24.8v0.5h-0.3v1.2h-0.2v-1.7h0.5z"></path><path fill="#e6eaf8" d="m8.8 24.6h1.6c0.2 0 0.3 0 0.3 0.2 0.1 0.3 0.2 0.6 0.3 1-0.1 0.3-0.2 0.7-0.3 1h-0.3c0 0.2 0 0.3-0.1 0.4h-0.2c-0.1-0.2-0.3-0.3-0.5-0.4 0.1-0.1 0.1-0.2 0-0.2 0.2-0.1 0.2-0.2 0.3-0.3 0.1 0.1 0.2 0.2 0.3 0.3 0.2-0.2 0.3-0.3 0.5-0.4 0-0.2 0.1-0.4 0-0.6-0.2 0-0.5-0.1-0.7-0.3 0-0.2-0.1-0.4-0.3-0.5-0.4-0.1-0.7 0-1.1 0.1 0 0.2 0 0.3-0.1 0.4v-0.5c0.2 0 0.3-0.1 0.3-0.2z"></path><path fill="#1a1b79" d="m12.3 22.1c0.1 0.1 0.2 0.1 0.2 0.2 0.1-0.2 0.2-0.2 0.4-0.1 0.1 0.4 0.1 0.7 0.1 1-0.2 0.1-0.3 0.3-0.3 0.5-0.1 0.1-0.2 0.1-0.4 0.1v0.8c0.2 0 0.3 0 0.4 0.2v2h-0.4c0-0.8 0-1.6-0.2-2.4 0-0.3 0-0.6 0.1-0.8 0-0.2-0.1-0.3-0.2-0.5-0.3 0.2-0.6 0.3-1 0.4-0.2-0.2-0.4-0.3-0.6-0.4-0.6-0.1-1.3-0.1-1.9 0-0.1 0-0.2 0.1-0.2 0.2h-0.1c0-0.1-0.1-0.3-0.3-0.4 0.6-0.1 1.1-0.2 1.6-0.2 0.6-0.1 1 0 1.2 0.2h1.1v-0.3c0.2-0.1 0.4-0.3 0.5-0.5z"></path><path fill="#cccfe1" d="m29.1 24.8h0.3c0 0.7 0 1.4 0 2-0.1 0.1-0.2 0.2-0.3 0.3v-0.6c0.1-0.1 0.2-0.3 0.2-0.6 0-0.3 0-0.5-0.2-0.8v-0.3z"></path><path fill="#14167e" d="m18.2 25.9c-0.1 0-0.2 0-0.2-0.1l-0.1-0.8c-0.3 0.4-0.5 0.7-0.6 1.2v-0.8c0.1-0.2 0.1-0.4 0.2-0.6 0.2-0.2 0.4-0.2 0.6-0.1 0.1 0.4 0.1 0.8 0.1 1.2z"></path><path fill="#aeb1da" d="m6.8 24.2c-0.2 0.9-0.3 1.8-0.2 2.6-0.4-0.4-0.6-0.9-0.5-1.5h0.4v-1.1h0.3z"></path><path fill="#bfc3eb" d="m12.8 24.8c0.3 0.6 0.3 1.1 0 1.7v-1.7z"></path><path fill="#787aa1" d="m29.1 25.1c0.2 0.3 0.2 0.5 0.2 0.8 0 0.3-0.1 0.5-0.2 0.6v-1.4z"></path><path fill="#f8faf9" d="m10.1 27.2h-0.9v-0.5c-0.2 0.1-0.4 0-0.6-0.1 0.1-0.1 0.1-0.3-0.1-0.4 0-0.3 0-0.6 0-0.9 0.1-0.1 0.1-0.2 0.1-0.4 0.4-0.1 0.7-0.2 1.1-0.1 0.2 0.1 0.3 0.3 0.3 0.5 0.2 0.2 0.5 0.3 0.7 0.3 0.1 0.2 0 0.4 0 0.6-0.2 0.1-0.3 0.2-0.5 0.4-0.1-0.1-0.2-0.2-0.3-0.3-0.1 0.1-0.1 0.2-0.3 0.3 0.1 0 0.1 0.1 0 0.2 0.2 0.1 0.4 0.2 0.5 0.4z"></path><path fill="#999bd6" d="m10.7 24.8h0.4v1.8c-0.2 0-0.3 0.1-0.4 0.2 0.1-0.3 0.2-0.7 0.3-1-0.1-0.4-0.2-0.7-0.3-1z"></path><path fill="#dddff3" d="m8.5 25.3c0 0.3 0 0.6 0.1 0.9 0.1 0.1 0.1 0.3 0 0.4 0.2 0.1 0.4 0.2 0.6 0.1v0.5h-0.4v-0.4h-0.3v-0.3h-0.3v-1.2h0.3z"></path><path fill="#5a5b98" d="m16.7 26.3c0 0.1 0 0.2-0.1 0.3-0.3 0-0.6 0.1-0.9 0.2v-0.3c0.3-0.1 0.7-0.1 1-0.2z"></path><path fill="#151795" d="m18.2 25.9h0.1c0.2 0.6 0.5 1 1.1 1.2 0 0-0.1 0.1-0.1 0.1 0.7 0.3 1.1 0.7 1.2 1.4-0.1 0.7-0.2 1.3-0.2 1.9-0.2 0-0.4-0.1-0.6-0.2 0.3-0.1 0.3-0.3 0-0.4v-1.2h0.4c0-0.1 0-0.2-0.1-0.3l-0.1 0.1c-0.3-0.3-0.6-0.6-0.9-0.8-0.6-0.1-1.2-0.2-1.7-0.2-0.8 0.1-1.3 0.5-1.3 1.4-0.2 0.1-0.4 0.2-0.6 0.3-0.1-0.3-0.1-0.5-0.3-0.7 0-0.1 0-0.3 0.1-0.4 0.2-0.2 0.3-0.4 0.4-0.6 0.7-0.2 1.3-0.6 1.7-1.2v-0.1c0.1-0.5 0.3-0.8 0.6-1.2l0.1 0.8c0 0.1 0.1 0.1 0.2 0.1z"></path><path fill="#7273a6" d="m19.2 26.3c0.3 0 0.5 0.1 0.7 0.3h-0.6c-0.1-0.1-0.1-0.2-0.1-0.3z"></path><path fill="#f1f3f8" d="m6.7 23.3c0 0.3 0 0.6 0.1 0.9h-0.3v1.1h-0.4c-0.1 0.6 0.1 1.1 0.5 1.5l0.2 0.7h0.3v0.7c0-0.1-0.1-0.2-0.1-0.4-0.1 0.2-0.2 0.3-0.3 0.2l-0.3-0.6c-0.3 0-0.5-0.1-0.7-0.2-0.2 0.1-0.4 0-0.6-0.3 0.2-0.2 0.2-0.2 0.3 0 0.1-0.1 0.1-0.2 0.3-0.2 0.1-0.5 0.1-0.9 0-1.4 0.1-0.1 0.2-0.3 0.3-0.4-0.1-0.3 0-0.5 0.2-0.6-0.1-0.2-0.2-0.3-0.3-0.5l0.3-0.1c-0.1-0.1-0.1-0.2-0.1-0.4h0.6z"></path><path fill="#1a1b7f" d="m16.7 26.3h0.6c-0.4 0.6-1 1-1.7 1.2l0.1-0.2v-0.5c0.3-0.1 0.6-0.2 0.9-0.2 0.1-0.1 0.1-0.2 0.1-0.3z"></path><path fill="#787ba5" d="m15.7 26.8v0.5h-0.5v-0.5h0.5z"></path><path fill="#9c9ecd" d="m19.9 26.6c0.3 0.1 0.5 0.2 0.7 0.3 0.1 0.4 0.1 0.7 0.3 0.9h-0.4v-0.3c0-0.2-0.1-0.2-0.3-0.2v-0.5c-0.2 0.1-0.3 0-0.3-0.2z"></path><path fill="#7679a0" d="m29.1 26.8v0.5c-0.2 0-0.3 0.1-0.4 0.2 0.1-0.3 0.2-0.5 0.4-0.7z"></path><path fill="#67699e" d="m12.3 26.8h0.4v0.4h-0.4v-0.4z"></path><path fill="#222377" d="m19.3 26.6h0.6c0 0.2 0.1 0.3 0.3 0.2v0.5c0.2 0 0.3 0 0.3 0.2-0.1 0.1-0.3 0.1-0.5 0-0.2-0.4-0.4-0.7-0.7-0.9z"></path><path fill="#242470" d="m23.2 24.9c0 0.3 0 0.5-0.1 0.7 0 0.3 0.1 0.4 0.2 0.6 0 0.3 0 0.6 0.2 1 0.3 0.2 0.6 0.5 0.7 0.9 0.1 0 0.3 0.1 0.4 0.1 0.1 0.2 0.3 0.2 0.5 0.2v0.3c-0.2 0.1-0.4 0-0.6-0.2-0.4-0.1-0.6-0.4-0.6-0.8-0.3 0-0.6-0.2-0.8-0.4-0.2-0.7-0.2-1.4-0.2-2 0.1-0.1 0.2-0.2 0.3-0.4z"></path><path fill="#292977" d="m29 25.1h0.1v1.7c-0.2 0.2-0.3 0.4-0.4 0.7v0.2h-0.4c0 0.4-0.2 0.6-0.6 0.7v-0.2c0.2-0.5 0.5-0.8 0.9-1.1 0.1-0.2 0.1-0.4 0.1-0.6 0.3-0.4 0.3-0.9 0.3-1.4z"></path><path fill="#a5a8d5" d="m15 27.5c0.1 0.3 0 0.5-0.2 0.7h-0.1c0-0.3 0.1-0.5 0.3-0.7z"></path><path fill="#54568e" d="m7.1 27.7c0.4 0 0.5 0.1 0.5 0.5h-0.5v-0.5z"></path><path fill="#4e5088" d="m12 27.7v0.5h-0.2c-0.1-0.2 0-0.4 0.2-0.5z"></path><path fill="#8d8fbd" d="m12.7 24.8h0.1v2.5h-0.4c0 0.3-0.1 0.6-0.3 0.9h-0.1v-0.5c0-0.1 0.1-0.2 0.3-0.2v-0.3h0.4v-2.4z"></path><path fill="#16188f" d="m25.1 22.9h2.1c0.1 0.1 0.2 0.3 0.2 0.4-1.2 0-2.4 0-3.6 0.1l-0.1 0.1c0.1 0.4 0.1 0.8 0.2 1.2 0.2 0.1 0.5 0.1 0.7 0 0 0.3-0.2 0.4-0.5 0.4 0 0.7 0 1.3 0.2 1.8l0.1-0.1c0.2 0.2 0.3 0.3 0.4 0.5 0.3 0.1 0.5 0.2 0.7 0.4 0.5 0 1 0 1.5 0 0.8-0.7 1.2-1.5 1.1-2.6-0.5-0.6-1.2-1-2.1-1.1l-0.4 0.1c-0.1 0-0.1 0.1-0.1 0.1-0.1 0.2-0.2 0.3-0.4 0.3h-0.3c0.1-0.2 0.2-0.3 0.3-0.1 0-0.2 0.1-0.3 0.2-0.4 0.7-0.3 1.5-0.2 2.2 0.1 0.3 0.4 0.4 0.3 0.5-0.2 0.2 0.5 0.4 1 0.7 1.5-0.1 0.3-0.1 0.7 0 1.1 0 0.2 0 0.4-0.1 0.6-0.4 0.3-0.7 0.6-0.9 1.1-0.4 0-0.7 0-1.1-0.1-0.1 0.3-0.4 0.4-0.7 0.4-0.5-0.1-0.9-0.2-1.3-0.3-0.1 0-0.3-0.1-0.4-0.1-0.1-0.4-0.4-0.7-0.7-0.9-0.2-0.4-0.2-0.7-0.2-1 0-1 0.1-1.9 0.3-2.9-0.5-0.1-0.6-0.3-0.3-0.7 0.2 0 0.3 0.2 0.3 0.4 0.3 0 0.6 0.1 0.9 0.1 0.2 0 0.5 0 0.6-0.2z"></path><path fill="#1c1d7e" d="m24.6 24.7c0-0.2 0.1-0.2 0.2-0.2h0.3v0.1c0.1 0.1 0 0.2-0.1 0.2-0.3 0.3-0.4 0.6-0.4 1.1 0 0.2 0.1 0.4 0.2 0.6v0.3h0.3v0.5c0.6 0 1.2 0 1.8-0.1 0.2-0.2 0.4-0.4 0.5-0.7v-0.2h0.3c0.2-0.4 0.2-0.7 0-1h-0.3v-0.5c-0.2 0-0.4-0.1-0.6-0.2v-0.1c-0.4-0.2-0.8-0.3-1.3-0.3 0 0 0-0.1 0.1-0.1l0.4-0.1c0.9 0.1 1.6 0.5 2.1 1.1 0.1 1.1-0.3 1.9-1.1 2.6-0.5 0-1 0-1.5 0-0.2-0.2-0.4-0.3-0.7-0.4-0.1-0.2-0.2-0.3-0.4-0.5l-0.1 0.1c-0.2-0.5-0.2-1.1-0.2-1.8 0.3 0 0.5-0.1 0.5-0.4z"></path><path fill="#8184b4" d="m27.3 26.5h0.1c-0.1 0.3-0.3 0.5-0.5 0.7-0.6 0.1-1.2 0.1-1.8 0.1v-0.5h0.4v0.4h1.3c0.1-0.3 0.2-0.6 0.5-0.7z"></path><path fill="#484a8e" d="m27.4 25.3h0.3c0.2 0.3 0.2 0.6 0 1h-0.3v-1z"></path><path fill="#f5f8fa" d="m27.3 26.5c-0.3 0.1-0.4 0.4-0.5 0.7h-1.3v-0.4h-0.4c0.1-0.3 0-0.6-0.2-0.9 0.1-0.3 0.2-0.6 0.5-0.8l-0.1-0.1c0.1-0.1 0.2 0 0.3 0.1 0-0.1 0-0.2 0.1-0.3 0.4-0.1 0.8-0.1 1.1 0 0.1 0.1 0.2 0.2 0.1 0.3h0.4v1.4z"></path><path fill="#aaade5" d="m25 24.8c-0.1 0.6-0.2 1.1-0.2 1.7-0.1-0.2-0.2-0.4-0.2-0.6 0-0.5 0.1-0.8 0.4-1.1z"></path><path fill="#d1d5f2" d="m25.1 24.6h1.7c0.2 0.1 0.4 0.2 0.6 0.2v1.7h-0.1v-1.4h-0.4c0.1-0.1 0-0.2-0.1-0.3-0.3-0.1-0.7-0.1-1.1 0-0.1 0.1-0.1 0.2-0.1 0.3-0.1-0.1-0.2-0.2-0.3-0.1l0.1 0.1c-0.3 0.2-0.4 0.5-0.5 0.8 0.2 0.3 0.3 0.6 0.2 0.9h-0.3v-0.3c0-0.6 0.1-1.1 0.2-1.7 0.1 0 0.2-0.1 0.1-0.2z"></path><path fill="#a2a5d3" d="m26.8 24.5v0.1h-1c0.1-0.2 0.2-0.2 0.4-0.2 0.2 0 0.4 0 0.6 0.1z"></path><path fill="#6d70ba" d="m25.5 24.2c0.5 0 0.9 0.1 1.3 0.3-0.2-0.1-0.4-0.1-0.6-0.1-0.2 0-0.3 0-0.4 0.2h-0.7v-0.1c0.2 0 0.3-0.1 0.4-0.3z"></path><path fill="#989bc4" d="m23.1 27.3c0.2 0.2 0.5 0.4 0.8 0.4 0 0.4 0.2 0.7 0.6 0.8h-0.7c-0.1-0.4-0.3-0.6-0.7-0.8v-0.4z"></path><path fill="#16188a" d="m8.2 23.3h0.1c-0.2 0.3-0.3 0.5-0.6 0.7l0.1 0.1c-0.1 0.1-0.2 0.2-0.3 0.4-0.3 0.1-0.5 0.3-0.5 0.6 0.1 0 0.3 0 0.4 0.1l-0.1 0.1c0.3 0.3 0.3 0.6-0.1 1-0.1 0.2-0.1 0.3 0 0.5l0.6 0.5c0.1 0.6 0.5 0.9 1.1 0.9v-0.4c-0.1 0.1-0.2 0-0.3-0.1-0.3-0.2-0.4-0.5-0.4-0.8 0.1 0.1 0.2 0.2 0.3 0.4 0.6 0.3 1.2 0.3 1.8 0.3 0.2-0.3 0.3-0.5 0.4-0.8 0.1-0.1 0.2-0.2 0.4-0.2l0.2-0.1c-0.1 0.4-0.2 0.7-0.2 1.1-0.5 0-0.6 0.2-0.2 0.5-0.2 0.1-0.3 0.2-0.5 0.4-0.9 0.1-1.8 0-2.6-0.5-0.1-0.3-0.3-0.4-0.7-0.4v-0.1c-0.1-0.5-0.2-1-0.4-1.5 0-0.2 0.1-0.3 0.2-0.5l-0.1-0.1c0.1-0.3 0.2-0.5 0.2-0.8 0.3-0.5 0.7-0.9 1.2-1.3z"></path><path fill="#2b2b7c" d="m8 26.5h0.5v0.3c0 0.2 0.1 0.3 0.2 0.4 0.6 0.1 1.1 0.1 1.6 0 0.1-0.1 0.1-0.2 0.1-0.4h0.3c-0.1 0.3-0.2 0.5-0.4 0.8-0.6 0-1.2 0-1.8-0.3-0.1-0.2-0.2-0.3-0.3-0.4-0.1 0-0.2 0-0.2-0.1v-0.3z"></path><path fill="#8688b7" d="m8.5 26.8h0.3v0.4h1.5c-0.5 0.1-1 0.1-1.6 0-0.1-0.1-0.2-0.2-0.2-0.4z"></path><path fill="#7e80ac" d="m11.8 28.2v0.3h-0.7c0.1-0.2 0.4-0.3 0.7-0.3z"></path><path fill="#1f1f7e" d="m12.3 26.9v0.6c-0.2 0-0.3 0.1-0.3 0.2-0.2 0.1-0.3 0.3-0.2 0.5-0.3 0-0.6 0.1-0.7 0.3-0.2 0.2-0.4 0.3-0.7 0.2h-1.9v-0.3h-0.7c0-0.1-0.1-0.2-0.2-0.2 0-0.4-0.1-0.5-0.5-0.5v-0.1c0.4 0 0.6 0.1 0.7 0.4 0.8 0.5 1.7 0.6 2.6 0.5 0.2-0.2 0.3-0.3 0.5-0.4 0.5-0.4 1-0.8 1.4-1.2z"></path><path fill="#4f5098" d="m7.8 28.4h0.7v0.3c-0.3 0-0.5-0.1-0.7-0.3z"></path><path fill="#c4c7e2" d="m7.1 28.2h0.5c0.1 0 0.2 0.1 0.2 0.2 0.2 0.2 0.4 0.3 0.7 0.3v0.2c-0.3 0-0.5 0-0.8-0.2-0.1-0.1-0.2-0.2-0.2-0.4-0.2 0-0.3 0-0.4-0.1z"></path><path fill="#696cac" d="m14.7 28.2h0.1c-0.1 0.8 0 1.5 0.2 2.2-0.1 0-0.2-0.1-0.3-0.2 0-0.7 0-1.3 0-2z"></path><path fill="#7d7fb7" d="m20.9 27.8c0.4 1.1 0.3 2.2-0.3 3.2h-0.1c0-0.3 0.1-0.4 0.3-0.6 0.1-0.8 0.1-1.7 0.1-2.6z"></path><path fill="#141463" d="m20.5 27.8h0.4c0 0.9 0 1.8-0.1 2.6 0-0.8-0.1-1.7-0.3-2.6z"></path><path fill="#8588c0" d="m8.5 28.9v-0.2h1.9v0.5h-1.6v-0.3h-0.3z"></path><path fill="#dbdef4" d="m11.1 28.5h0.3v0.4h-0.5c-0.1 0.1 0 0.2 0.1 0.4-0.4 0-0.7 0.1-0.9 0.2-0.5-0.1-1-0.1-1.5-0.1-0.4-0.2-0.4-0.3-0.1-0.5h0.3v0.3h1.6v-0.5c0.3 0.1 0.5 0 0.7-0.2z"></path><path fill="#f3f5f9" d="m29.1 27.3c0 0.3-0.1 0.5-0.1 0.8 0 0.2 0.1 0.4 0.3 0.5-0.1 0.2-0.3 0.3-0.5 0.1l-0.1 0.6c-0.3-0.1-0.5-0.2-0.8-0.2-0.1 0-0.2 0.1-0.3 0.3-0.5 0-0.7 0.3-0.7 0.8-0.2 0-0.4 0-0.6 0-0.1-0.1-0.2-0.1-0.2-0.2-0.1 0.1-0.2 0.3-0.2 0.4 0 0-0.1 0-0.1-0.1-0.4 0.3-0.7 0.3-1 0 0.1 0 0.2 0 0.3-0.1 0.1-0.2 0.1-0.3-0.1-0.4-0.2 0.1-0.5 0.1-0.8 0-0.1-0.2-0.1-0.3 0-0.4 0-0.2-0.1-0.2-0.2-0.1-0.1-0.2-0.1-0.4-0.2-0.6-0.1 0.1-0.1 0.1-0.2 0.2-0.1-0.4-0.3-0.6-0.6-0.7 0-0.2 0-0.3 0.1-0.5 0.4 0.2 0.6 0.4 0.7 0.8h0.7c0.2 0.2 0.4 0.3 0.6 0.2 0.1 0.1 0.2 0.2 0.4 0.2v0.3h1.3v-0.5h0.6c0.4 0 0.8-0.2 1.2-0.4l0.1 0.2c0.1-0.2 0.1-0.4-0.1-0.5-0.1 0.3-0.2 0.2-0.2-0.2 0.2 0.1 0.3 0 0.3-0.1v-0.2c0.1-0.1 0.2-0.2 0.4-0.2z"></path><path fill="#7d80c1" d="m25.1 28.7h1.7v0.5h-1.3v-0.3c-0.2 0-0.3-0.1-0.4-0.2z"></path><path fill="#1c1d81" d="m27.7 28.2v0.2c-0.1 0.1-0.2 0.2-0.3 0.3h-2.3v-0.3c-0.2 0-0.4 0-0.5-0.2 0.4 0.1 0.8 0.2 1.3 0.3 0.3 0 0.6-0.1 0.7-0.4 0.4 0.1 0.7 0.1 1.1 0.1z"></path><path fill="#cacce6" d="m28.7 27.7c0 0.1-0.1 0.2-0.3 0.1 0 0.4 0.1 0.5 0.2 0.2 0.2 0.1 0.2 0.3 0.1 0.5l-0.1-0.2c-0.4 0.2-0.8 0.4-1.2 0.4 0.1-0.1 0.2-0.2 0.3-0.3 0.4-0.1 0.6-0.3 0.6-0.7h0.4z"></path><path fill="#171987" d="m18.3 25.9h0.3v0.4h0.6c0 0.1 0 0.2 0.1 0.3 0.3 0.2 0.5 0.5 0.7 0.8 0.2 0.2 0.4 0.2 0.5 0.1v0.3c0.2 0.9 0.3 1.8 0.3 2.6-0.2 0.2-0.3 0.3-0.3 0.6h-0.1c0-0.1 0-0.3-0.1-0.3-0.3 0.2-0.5 0.4-0.6 0.7-0.5 0-0.8 0.2-1.1 0.6-0.4 0.1-0.9 0.1-1.3 0.1-0.4-0.4-0.9-0.6-1.4-0.7-0.2-0.5-0.5-1-0.8-1.4-0.1-0.5-0.1-1 0-1.5 0.2 0.2 0.2 0.4 0.3 0.7 0.2-0.1 0.4-0.2 0.6-0.3 0-0.9 0.5-1.3 1.3-1.4-0.1 0.2-0.2 0.3-0.4 0.3h-0.3v0.6c-0.2 0-0.3 0-0.3 0.1v1.7c0.2 0.1 0.5 0.3 0.6 0.5 0.7 0.1 1.4 0.1 2.1-0.2 0.1 0.1 0.2 0 0.3 0 0-0.3 0.2-0.5 0.4-0.6 0.3 0.1 0.3 0.3 0 0.4 0.2 0.1 0.4 0.2 0.6 0.2 0-0.6 0.1-1.2 0.2-1.9-0.1-0.7-0.5-1.1-1.2-1.4 0 0 0.1-0.1 0.1-0.1-0.6-0.2-0.9-0.6-1.1-1.2z"></path><path fill="#7275af" d="m19.2 29.8c0 0.2-0.1 0.3-0.2 0.4-0.1-0.2 0-0.4 0.2-0.4z"></path><path fill="#1a1c7d" d="m19 27.7c0.3 0.2 0.6 0.5 0.9 0.8l0.1-0.1c0.1 0.1 0.1 0.2 0.1 0.3h-0.4v1.2c-0.2 0.1-0.4 0.3-0.4 0.6-0.1 0-0.2 0.1-0.3 0v-0.3c0.1-0.1 0.2-0.2 0.2-0.4 0.1-0.5 0.1-1.1 0.1-1.6h-0.3v-0.5z"></path><path fill="#616399" d="m19 28.2h0.3c0 0.5 0 1.1-0.1 1.6 0-0.6-0.1-1.1-0.2-1.6z"></path><path fill="#aeb2ed" d="m16.3 28.5h0.3c-0.1 0.2-0.1 0.4-0.2 0.6 0 0.3 0.1 0.5 0.2 0.7h-0.3v-1.3z"></path><path fill="#eceef7" d="m19 28.2c0.1 0.5 0.2 1 0.2 1.6-0.2 0-0.3 0.2-0.2 0.4-0.7 0.4-1.3 0.5-2.1 0.3-0.1-0.2-0.2-0.5-0.3-0.7-0.1-0.2-0.2-0.4-0.2-0.7 0.1-0.2 0.1-0.4 0.2-0.6 0.1-0.1 0.2-0.3 0.3-0.3 0.1-0.1 0.2-0.2 0.1-0.4h1.6v0.4h0.4z"></path><path fill="#f9faf7" d="m17.6 28c0.5-0.1 0.8 0.1 1 0.5l-0.4 0.1c0.3 0.3 0.5 0.6 0.6 1-0.2 0.3-0.4 0.4-0.7 0.3-0.1 0-0.1-0.1-0.2-0.2 0.2-0.2 0.3-0.4 0.2-0.6-0.2 0.1-0.3 0.1-0.4-0.1-0.3 0.2-0.5 0.4-0.5 0.7 0.1 0.1 0.2 0.1 0.3 0.1v0.3c-0.7-0.3-0.9-0.9-0.4-1.6 0.3 0.2 0.6 0.2 1 0.2-0.2-0.2-0.4-0.5-0.5-0.7z"></path><path fill="#585a94" d="m16.9 27.8v0.4c-0.1 0-0.2 0.2-0.3 0.3h-0.3c0-0.1 0.1-0.1 0.3-0.1v-0.6h0.3z"></path><path fill="#9799cd" d="m17.3 27.5c0.5 0 1.1 0.1 1.7 0.2v0.5h-0.4v-0.4h-1.6c0.1 0.2 0 0.3-0.1 0.4v-0.4c0.2 0 0.3-0.1 0.4-0.3z"></path><path fill="#6e70af" d="m16.3 29.8h0.3c0.1 0.2 0.2 0.5 0.3 0.7 0.8 0.2 1.4 0.1 2.1-0.3v0.3c-0.7 0.3-1.4 0.3-2.1 0.2-0.1-0.2-0.4-0.4-0.6-0.5v-0.4z"></path><path fill="#30307d" d="m15.2 27.3h0.5l-0.1 0.2c-0.1 0.2-0.2 0.4-0.4 0.6-0.1 0.1-0.1 0.3-0.1 0.4-0.1 0.5-0.1 1 0 1.5 0.3 0.4 0.6 0.9 0.8 1.4 0.5 0.1 1 0.3 1.4 0.7 0.4 0 0.9 0 1.3-0.1v0.3h-1.7c0.1-0.1 0-0.3-0.2-0.3l-0.7-0.3c-0.2 0-0.3-0.1-0.3-0.3 0-0.3-0.1-0.4-0.5-0.4-0.1-0.2-0.1-0.4-0.2-0.6-0.2-0.7-0.3-1.4-0.2-2.2 0.2-0.2 0.3-0.4 0.2-0.7 0.2 0 0.2-0.1 0.2-0.2z"></path><path fill="#e7eaf9" d="m20.6 26.9h0.4c0.1 0.8 0.3 1.5 0.5 2.2 0.1 0.4 0 0.7-0.2 1 0 0.8-0.4 1.4-1 1.9-0.1 0.1-0.1 0.2 0 0.3-0.2-0.1-0.4-0.1-0.6-0.2-0.3 0.1-0.6 0.2-0.9 0.4 0.1-0.2 0.2-0.3 0.2-0.5h0.2c0.5-0.1 0.9-0.3 1.3-0.6 0.1-0.1 0.2-0.2 0.1-0.4 0.6-1 0.7-2.1 0.3-3.2-0.2-0.2-0.2-0.5-0.3-0.9z"></path><path fill="#cccfeb" d="m14.7 28.2c0 0.7 0 1.3 0 2 0.1 0.1 0.2 0.2 0.3 0.2 0.1 0.2 0.1 0.4 0.2 0.6h-0.3c-0.1 0-0.3 0-0.3-0.1 0-0.1 0.1-0.1 0.1-0.2-0.1-0.2-0.2-0.4-0.3-0.5-0.1-0.7-0.1-1.3 0-2l0.1 0.2c0-0.1 0.1-0.2 0.2-0.2z"></path><path fill="#1f2071" d="m20.4 31c-0.2 0.1-0.2 0.2-0.2 0.4-0.3 0.2-0.7 0.3-1 0.3v0.3h-0.6c0.3-0.4 0.6-0.6 1.1-0.6 0.1-0.3 0.3-0.5 0.6-0.7 0.1 0 0.1 0.2 0.1 0.3z"></path><path fill="#6b6d9d" d="m15.2 31c0.4 0 0.5 0.1 0.5 0.4h-0.5v-0.4z"></path><path fill="#a1a4ce" d="m20.4 31h0.2c0.1 0.2 0 0.3-0.1 0.4-0.4 0.3-0.8 0.5-1.3 0.6v-0.3c0.3 0 0.7-0.1 1-0.3 0-0.2 0-0.3 0.2-0.4z"></path><path fill="#5f6188" d="m16 31.7l0.7 0.3c-0.3 0.1-0.5-0.1-0.7-0.3z"></path><path fill="#7c7e9f" d="m18.6 32h0.4c0 0.2-0.1 0.3-0.2 0.5-0.6 0-1.3 0-1.9-0.2h1.7v-0.3z"></path></svg>