<?xml version="1.0"?><svg xmlns="http://www.w3.org/2000/svg" width="36" height="36" shape-rendering="geometricPrecision" text-rendering="geometricPrecision" image-rendering="optimizeQuality" fill-rule="evenodd" clip-rule="evenodd" viewBox="0 0 36 36"><path fill="#7c7c7c" d="m15.8 1.1c7.6-0.6 13.3 2.4 17.2 8.8 3.1 6.4 2.6 12.6-1.4 18.5-4.7 5.5-10.6 7.6-17.7 6.2-7.1-2-11.3-6.6-12.8-13.8-0.9-6.5 1.1-11.8 6-16 2.6-2 5.5-3.2 8.7-3.7z" opacity=".851"></path><path fill="#010101" d="m16.1 1.8c8.3-0.4 14 3.2 17.3 10.7 1.8 6 0.8 11.4-3.1 16.3-4.7 4.8-10.3 6.5-16.9 5-8-2.9-12-8.6-11.8-17.2 0.9-6.7 4.5-11.4 10.7-13.9 1.3-0.5 2.5-0.8 3.8-0.9z"></path><path fill="#f6f6f6" d="m12.3 9.6c-0.1 0.1-0.2 0.2-0.4 0.1-0.8-0.7-1.7-1.3-2.5-1.9-0.3-0.5-0.5-0.5-0.7 0 0.6 0.9 0.8 2 0.6 3.1-0.2-0.4-0.5-0.6-0.9-0.7 0.4 0.7 0.6 1.3 0.7 2.1h-0.7c0 0.1 0 0.2 0.1 0.4 0.2 0.1 0.5 0.3 0.7 0.4-0.5 0.7-1.1 1.4-1.8 2.1-0.3-2.7 0-5.4 0.9-8 0.2-0.2 0.4-0.3 0.7-0.3 1.4 0.5 2.5 1.4 3.3 2.7z"></path><path fill="#f7f7f7" d="m28.7 15.8c-0.6-0.4-1-0.9-1.2-1.6 0.2-0.3 0.4-0.7 0.6-1.1 0.1-0.2 0.1-0.4-0.1-0.6-0.2 0.2-0.4 0.3-0.5 0.5-0.1 0.1-0.2 0.1-0.3 0l0.3-1.4c-0.3 0.1-0.6 0.2-0.9 0.2 0-0.3 0-0.6 0.1-0.9 0.4-0.9 0.6-1.9 0.8-2.8 0-0.3 0.1-0.5 0.4-0.7-1 0.6-1.9 1.2-2.8 1.8-0.2 0.2-0.4 0.3-0.6 0.1 0.8-1 1.8-1.7 3-2.2 0.3 0 0.5 0.1 0.7 0.3 1.2 2.7 1.4 5.5 0.5 8.4z"></path><path fill="#cccbcb" d="m9.4 7.8c0.3 0.6 0.8 1.3 1.3 1.9 0.4 0.6 0.6 1.3 0.8 1.9l-0.2 0.4c-0.2-0.2-0.4-0.2-0.7 0l0.2 0.3-0.6 0.4c0.1 0.1 0.2 0.3 0.1 0.4-0.3 0.5-0.7 0.9-1.2 1.3 0 0.1 0.1 0.1 0.1 0.1-0.4 0.7-0.8 1.3-1.2 2-0.3-0.4-0.5-0.8-0.6-1.3 0.7-0.7 1.3-1.4 1.8-2.1-0.2-0.1-0.5-0.3-0.7-0.4-0.1-0.2-0.1-0.3-0.1-0.4h0.7c-0.1-0.8-0.3-1.4-0.7-2.1 0.4 0.1 0.7 0.3 0.9 0.7 0.2-1.1 0-2.2-0.6-3.1 0.2-0.5 0.4-0.5 0.7 0z"></path><path fill="#797979" d="m27.5 8.1c-1 0.9-1.8 2-2.3 3.2 0.1 0.3 0.3 0.6 0.6 0.7 0 0.2-0.1 0.2-0.2 0.3 0.3 0.1 0.5 0.3 0.6 0.5-0.2 0.2-0.3 0.4-0.2 0.6 1 1 1.8 2.1 2.4 3.3 0-0.1 0.1-0.2 0.2-0.2 0 0.2-0.1 0.3-0.2 0.5 0.8 1.6 1.5 3.2 2.1 4.8l-0.2 0.3c0.2 0.4 0.1 0.7-0.5 0.8-0.5 2-1.6 3.5-3.3 4.5 1.3-2.4 1.7-4.9 1-7.6-1.1-2.7-3.2-3.9-6.1-3.4-1.2 0.6-2 1.6-2.1 3-0.2 1.2 0 2.3 0.5 3.4-1.1-0.3-2.1-0.4-3.1-0.2 1.1-2.9 0.3-5-2.6-6.2-0.5-0.1-1-0.1-1.5-0.1 0.4-0.1 0.7-0.2 1.1-0.2-1.1-0.1-2.1 0.1-3 0.8-0.3-0.6-0.2-1.2 0.3-1.7 0.6-0.6 1.2-1.2 1.7-1.8l-0.2-0.2c-0.3 0.2-0.6 0.2-0.9 0.2 0.4-0.7 1-1.3 1.7-1.7 0.1-0.1 0.2-0.3 0.1-0.4 3.1-1.4 6.2-1.5 9.3-0.3 0.7-0.5 1.3-1 1.8-1.7 0.2 0.2 0.4 0.1 0.6-0.1 0.9-0.6 1.8-1.2 2.8-1.8-0.3 0.2-0.4 0.4-0.4 0.7z"></path><path fill="#cfcdcd" d="m27.5 8.1c-0.2 0.9-0.4 1.9-0.8 2.8-0.1 0.3-0.1 0.6-0.1 0.9 0.3 0 0.6-0.1 0.9-0.2l-0.3 1.4c0.1 0.1 0.2 0.1 0.3 0 0.1-0.2 0.3-0.3 0.5-0.5 0.2 0.2 0.2 0.4 0.1 0.6-0.2 0.4-0.4 0.8-0.6 1.1 0.2 0.7 0.6 1.2 1.2 1.6 0 0.2 0 0.4-0.1 0.7-0.1 0-0.2 0.1-0.2 0.2-0.6-1.2-1.4-2.3-2.4-3.3-0.1-0.2 0-0.4 0.2-0.6-0.1-0.2-0.3-0.4-0.6-0.5 0.1-0.1 0.2-0.1 0.2-0.3-0.3-0.1-0.5-0.4-0.6-0.7 0.5-1.2 1.3-2.3 2.3-3.2z"></path><path fill="#636363" d="m9.4 7.8c0.8 0.6 1.7 1.2 2.5 1.9 0.2 0.1 0.3 0 0.4-0.1 0.5 0.5 0.8 1.1 1.1 1.7 0.1 0.1 0 0.3-0.1 0.4-0.7 0.4-1.3 1-1.7 1.7 0.3 0 0.6 0 0.9-0.2l0.2 0.2c-0.5 0.6-1.1 1.2-1.7 1.8-0.5 0.5-0.6 1.1-0.3 1.7 0.9-0.7 1.9-0.9 3-0.8-0.4 0-0.7 0.1-1.1 0.2-1.9 0.5-3.2 1.6-3.8 3.5-0.9 2.4-0.6 4.7 0.6 6.9-1.9-1-3.1-2.6-3.4-4.8-0.1 0.1-0.3 0-0.4-0.1 0.1-0.1 0.1-0.3 0.1-0.4 1.6-2 2.8-4.2 3.8-6.6 0.1-0.4 0-0.5-0.3-0.3 0 0-0.1 0-0.1-0.1 0.5-0.4 0.9-0.8 1.2-1.3 0.1-0.1 0-0.3-0.1-0.4l0.6-0.4-0.2-0.3c0.3-0.2 0.5-0.2 0.7 0l0.2-0.4c-0.2-0.6-0.4-1.3-0.8-1.9-0.5-0.6-1-1.3-1.3-1.9z"></path><path fill="#f9f9f9" d="m21.3 12.4c0.4 0 0.8 0 1.1 0.2 0.2 0.2 0.3 0.4 0.3 0.6-0.8 0.2-1.3 0-1.4-0.8z"></path><path fill="#f1f1f1" d="m5.7 21.4c-0.1 0-0.3-0.1-0.4-0.2 1.1-1.4 2-3 2.7-4.7 0.4-0.7 0.8-1.3 1.2-2 0.3-0.2 0.4-0.1 0.3 0.3-1 2.4-2.2 4.6-3.8 6.6z"></path><path fill="#fbfbfb" d="m26.5 27.4c-1.3 0.8-2.7 1.3-4.2 1.6-3.3 0.1-6.5 0-9.7-0.6-1.2-0.3-2.3-0.9-3.2-1.7-1.2-2.2-1.5-4.5-0.6-6.9 0.6-1.9 1.9-3 3.8-3.5 0.5 0 1 0 1.5 0.1 2.9 1.2 3.7 3.3 2.6 6.2-0.1 0.2-0.3 0.3-0.5 0.4-0.1 0.3-0.1 0.5 0 0.7 0.4 0.4 1 0.7 1.6 0.8 0.2 0.5 0.1 0.9-0.4 1.1-1.2 0.3-1.8-0.1-2-1.2-0.1 0.1-0.2 0.2-0.3 0.3 0.7 1.4 1.7 1.6 2.9 0.7 0.9 0.6 1.7 0.5 2.5-0.3 0.2-0.2 0.2-0.4 0.1-0.7-0.3 1-1 1.4-2 1.2-0.4-0.2-0.5-0.6-0.2-1 0.6-0.3 1.2-0.7 1.7-1.1 0.1-0.4 0-0.6-0.3-0.7-0.5-1.1-0.7-2.2-0.5-3.4 0.1-1.4 0.9-2.4 2.1-3 2.9-0.5 5 0.7 6.1 3.4 0.7 2.7 0.3 5.2-1 7.6z"></path><path fill="#191919" d="m22.4 17.6c0.4-0.1 0.7 0 1 0.2l-0.5 0.1c-0.2-0.1-0.4-0.1-0.5-0.3z"></path><path fill="#303030" d="m12.7 17.7c0.4 0 0.5 0.1 0.3 0.4-0.3 0.1-0.5 0.1-0.8 0 0.2-0.2 0.4-0.3 0.5-0.4z"></path><path fill="#0b0b0c" d="m22.4 19.1c2.2 0 3.1 1.1 2.6 3.2-0.8 1.1-1.8 1.4-3 1-1-0.7-1.4-1.6-1.1-2.8 0.4-0.6 0.9-1.1 1.5-1.4z"></path><path fill="#0b0c0c" d="m12.5 19.3c2.3 0 3.1 1.2 2.4 3.3-1.1 1.2-2.3 1.3-3.6 0.3-1-1.6-0.6-2.9 1.2-3.6z"></path><path fill="#ebebeb" d="m12.2 20.1c0.7 0.1 0.9 0.5 0.7 1.1-0.9 0.5-1.2 0.2-1.1-0.8 0.2-0.1 0.3-0.2 0.4-0.3z"></path><path fill="#ececec" d="m22.1 20.1c0.9 0.1 1.1 0.6 0.6 1.3-0.7 0.1-1-0.2-0.9-0.9 0.1-0.1 0.2-0.2 0.3-0.4z"></path><path fill="#ededed" d="m23.7 20.7c0.7 0 0.8 0.3 0.4 0.9-0.8 0-0.9-0.3-0.4-0.9z"></path><path fill="#e7e7e7" d="m13.6 20.9c0.6 0 0.8 0.2 0.5 0.8-0.6 0.1-0.8-0.1-0.5-0.8z"></path><path fill="#6b85a3" d="m21.4 22.3c0.3-0.1 0.4 0 0.6 0.3-0.2 0-0.4-0.1-0.6-0.3z"></path><path fill="#7392b8" d="m24.2 22.2c0.4 0.1 0.4 0.2 0 0.4-0.1-0.1-0.1-0.2 0-0.4z"></path><path fill="#799abf" d="m14.1 22.3c0.2 0.2 0.2 0.3 0 0.5-0.1-0.2-0.1-0.3 0-0.5z"></path><path fill="#131313" d="m19.8 22.8c0.3 0.1 0.4 0.3 0.3 0.7-0.5 0.4-1.1 0.8-1.7 1.1-0.3 0.4-0.2 0.8 0.2 1 1 0.2 1.7-0.2 2-1.2 0.1 0.3 0.1 0.5-0.1 0.7-0.8 0.8-1.6 0.9-2.5 0.3-1.2 0.9-2.2 0.7-2.9-0.7 0.1-0.1 0.2-0.2 0.3-0.3 0.2 1.1 0.8 1.5 2 1.2 0.5-0.2 0.6-0.6 0.4-1.1-0.6-0.1-1.2-0.4-1.6-0.8-0.1-0.2-0.1-0.4 0-0.7 0.2-0.1 0.4-0.2 0.5-0.4 1-0.2 2-0.1 3.1 0.2z"></path><path fill="#7c96b6" d="m11.5 22.6c0.1-0.1 0.3-0.1 0.4 0.1-0.1 0.1-0.3 0-0.4-0.1z"></path><path fill="#627186" d="m12.2 22.6h0.5v0.4h-0.5v-0.4z"></path><path fill="#e9e9e9" d="m17.4 22.8c0.5-0.1 1 0 1.5 0.2-0.5 0.2-1 0.2-1.5 0.1-0.2-0.1-0.2-0.2 0-0.3z"></path><path fill="#7088a8" d="m22.1 22.6c0.2 0 0.4 0 0.6 0.2l-0.3 0.1c-0.2 0-0.3-0.1-0.3-0.3z"></path><path fill="#64758c" d="m23.1 22.5h0.6v0.4h-0.6v-0.4z"></path><path fill="#576679" d="m13 22.6h0.7v0.4h-0.7v-0.4z"></path></svg>