<svg xmlns="http://www.w3.org/2000/svg" width="160" height="160" viewBox="0 0 160 160" version="1.1">
	<path fill-opacity="0.231" d="M 67.750 5.816 C 66.237 5.990, 65 6.580, 65 7.125 C 65 7.671, 64.565 7.849, 64.034 7.521 C 62.472 6.555, 52.051 9.939, 44.521 13.857 C 38.218 17.136, 28.054 25.969, 22.760 32.766 C 21.293 34.649, 21.254 35.020, 22.510 35.125 C 23.329 35.194, 24.563 35.335, 25.250 35.440 C 27.101 35.721, 28.115 34.995, 27.427 33.882 C 27.037 33.250, 26.381 33.269, 25.578 33.936 C 24.691 34.671, 24.333 34.586, 24.333 33.639 C 24.333 32.766, 25.477 32.366, 27.667 32.476 C 31.274 32.656, 31.684 32.168, 29.750 29.998 C 28.695 28.815, 28.760 28.792, 30.169 29.854 C 31.556 30.898, 32.009 30.807, 32.844 29.314 C 33.397 28.325, 34.130 27.796, 34.471 28.138 C 34.813 28.480, 33.484 30.465, 31.517 32.550 C 28.861 35.367, 28.238 36.619, 29.096 37.421 C 29.930 38.201, 30.394 38.104, 30.769 37.069 C 31.054 36.282, 32.269 34.707, 33.468 33.569 C 36.389 30.798, 37.398 27.869, 35.784 26.845 C 34.840 26.246, 34.963 26.027, 36.250 26.015 C 37.212 26.007, 37.887 25.438, 37.750 24.750 C 37.612 24.063, 38.227 23.618, 39.117 23.763 C 40.006 23.908, 41.298 23.345, 41.989 22.513 C 42.680 21.681, 43.865 21, 44.622 21 C 45.380 21, 46 20.550, 46 20 C 46 19.450, 47.013 18.993, 48.250 18.985 C 49.487 18.976, 50.050 18.639, 49.500 18.235 C 48.260 17.324, 47.889 13.813, 49.113 14.570 C 49.601 14.871, 50 15.766, 50 16.559 C 50 17.352, 50.477 18, 51.059 18 C 51.641 18, 51.865 17.591, 51.556 17.090 C 51.247 16.590, 51.273 15.453, 51.614 14.565 C 52.126 13.229, 52.507 13.170, 53.809 14.224 C 55.026 15.211, 55.213 15.216, 54.633 14.250 C 54.211 13.548, 54.372 13, 55 13 C 55.615 13, 55.843 12.555, 55.507 12.011 C 55.166 11.459, 55.537 11.269, 56.347 11.580 C 57.145 11.886, 58.095 11.656, 58.458 11.068 C 58.821 10.481, 59.597 10, 60.181 10 C 60.852 10, 60.785 10.554, 60 11.500 C 59.315 12.325, 59.152 13, 59.637 13 C 60.122 13, 61.073 12.113, 61.750 11.028 C 62.428 9.943, 63.603 9.294, 64.362 9.585 C 65.121 9.877, 66.049 9.314, 66.425 8.335 C 67.007 6.817, 67.246 6.772, 68.054 8.028 C 68.648 8.953, 69.279 9.128, 69.750 8.500 C 70.162 7.950, 71.362 7.500, 72.417 7.500 C 73.471 7.500, 74.505 6.984, 74.716 6.353 C 75.088 5.235, 73.719 5.130, 67.750 5.816 M 75.685 6.379 C 75.103 7.896, 79.480 8.108, 81.750 6.673 C 82.438 6.238, 83 6.321, 83 6.858 C 83 7.395, 84.688 7.698, 86.750 7.531 C 88.813 7.365, 90.752 7.627, 91.059 8.114 C 91.366 8.601, 92.484 8.366, 93.543 7.592 C 95.300 6.308, 95.098 6.203, 91.234 6.400 C 88.905 6.519, 87 6.306, 87 5.925 C 87 5.012, 81.844 5.319, 80.250 6.327 C 79.539 6.777, 79 6.661, 79 6.059 C 79 4.506, 76.304 4.766, 75.685 6.379 M 95.459 8.067 C 94.383 9.808, 95.608 10.177, 96.980 8.524 C 97.769 7.574, 97.845 7, 97.181 7 C 96.597 7, 95.821 7.480, 95.459 8.067 M 98.459 9.067 C 97.286 10.964, 98.996 11.432, 100.738 9.690 C 102.297 8.132, 102.300 8, 100.773 8 C 99.863 8, 98.821 8.480, 98.459 9.067 M 102.459 10.067 C 101.286 11.964, 102.996 12.432, 104.738 10.690 C 106.297 9.132, 106.300 9, 104.773 9 C 103.863 9, 102.821 9.480, 102.459 10.067 M 105.991 11.511 C 104.641 13.137, 105.700 13.476, 107.857 12.110 C 108.681 11.587, 108.824 11.009, 108.220 10.636 C 107.674 10.298, 106.671 10.692, 105.991 11.511 M 109.500 13 C 108.374 14.822, 110.044 16.099, 111.564 14.579 C 112.354 13.789, 113 12.886, 113 12.571 C 113 11.596, 110.152 11.945, 109.500 13 M 69.500 13.549 C 68.950 13.701, 67.231 14.106, 65.679 14.449 C 63.050 15.031, 62.883 15.360, 63.226 19.287 C 63.589 23.432, 63.650 23.494, 67.047 23.156 C 68.946 22.966, 71.175 22.375, 72 21.842 C 73.034 21.174, 72.181 21.052, 69.250 21.448 C 64.337 22.113, 63.274 20.295, 68.021 19.346 C 72.775 18.395, 72.685 16.867, 67.920 17.629 C 64.847 18.120, 63.888 17.990, 64.406 17.152 C 64.798 16.519, 65.879 15.993, 66.809 15.985 C 68.718 15.967, 71.691 14.329, 70.971 13.691 C 70.712 13.462, 70.050 13.398, 69.500 13.549 M 74.430 15.421 C 73.218 20.253, 74.155 21.500, 79 21.500 C 82.700 21.500, 83.527 21.155, 83.790 19.500 C 84.015 18.085, 83.848 17.877, 83.221 18.789 C 82.733 19.498, 81.021 20.173, 79.417 20.289 C 76.883 20.472, 76.457 20.120, 76.170 17.608 C 75.845 14.762, 75.906 14.724, 79.920 15.262 C 82.164 15.563, 84 15.451, 84 15.012 C 84 13.884, 81.336 13, 77.937 13 C 75.704 13, 74.899 13.556, 74.430 15.421 M 87.632 14.690 C 89.537 15.064, 89.677 15.500, 88.938 18.776 C 88.045 22.734, 88.267 23.571, 89.933 22.541 C 90.520 22.179, 91 20.559, 91 18.941 C 91 16.579, 91.443 15.986, 93.250 15.930 C 95.397 15.863, 95.408 15.820, 93.500 15 C 92.400 14.527, 90.150 14.170, 88.500 14.206 C 86.438 14.252, 86.167 14.403, 87.632 14.690 M 112.410 15.145 C 111.922 15.936, 112.525 16.133, 114.360 15.782 C 116.492 15.375, 116.798 15.538, 115.911 16.608 C 115.302 17.341, 113.885 17.842, 112.762 17.721 C 111.639 17.599, 110.592 18.074, 110.435 18.775 C 110.278 19.476, 110.379 19.589, 110.658 19.025 C 111.518 17.292, 113 17.889, 113 19.969 C 113 21.300, 112.519 21.753, 111.512 21.366 C 110.549 20.997, 109.403 21.887, 108.262 23.891 C 107.293 25.594, 106.107 26.990, 105.628 26.994 C 105.148 26.997, 105.315 27.675, 106 28.500 C 107.481 30.285, 106.463 30.512, 104.635 28.804 C 103.596 27.833, 103.605 27.316, 104.686 26.054 C 105.418 25.199, 105.900 24.182, 105.758 23.793 C 105.616 23.404, 106.400 22.358, 107.500 21.469 C 108.600 20.579, 108.985 20.107, 108.355 20.420 C 107.725 20.733, 106.950 20.312, 106.633 19.485 C 106.315 18.658, 105.706 18.058, 105.278 18.152 C 104.850 18.246, 103.233 17.800, 101.685 17.161 C 97.960 15.625, 98.240 15.489, 96.490 19.677 C 95.443 22.183, 95.280 23.680, 95.977 24.377 C 96.674 25.074, 97 24.859, 97 23.700 C 97 21.699, 97.173 21.666, 100.269 23.076 C 102.150 23.934, 102.544 24.748, 102.202 27.076 C 101.907 29.084, 102.200 30.005, 103.137 30.015 C 104.259 30.028, 104.265 30.179, 103.173 30.872 C 102.401 31.361, 100.148 31.128, 97.788 30.315 C 75.591 22.667, 50.321 31.138, 36.829 50.749 C 29.323 61.658, 25.874 76.275, 28.017 88.092 C 28.627 91.456, 28.872 94.461, 28.563 94.771 C 28.253 95.080, 27.968 94.246, 27.930 92.917 C 27.865 90.696, 27.795 90.662, 27.065 92.500 L 26.270 94.500 25.751 92.500 C 25.372 91.041, 25.201 90.946, 25.116 92.150 C 25.044 93.178, 23.116 94.477, 20 95.597 C 15.211 97.319, 15 97.553, 15 101.139 C 15 103.197, 14.615 105.120, 14.144 105.411 C 13.674 105.702, 13.489 104.892, 13.734 103.611 C 14.023 102.102, 13.620 101.068, 12.590 100.673 C 11.715 100.337, 11 100.499, 11 101.031 C 11 101.564, 10.460 102, 9.800 102 C 8.867 102, 8.867 101.733, 9.800 100.800 C 11.424 99.176, 11.313 96.504, 9.559 95.049 C 8.767 94.392, 8.365 93.212, 8.666 92.427 C 8.968 91.642, 8.686 91, 8.040 91 C 7.297 91, 7.113 90.218, 7.540 88.875 C 7.971 87.515, 7.840 86.981, 7.175 87.392 C 5.903 88.178, 5.943 94, 7.220 94 C 7.723 94, 7.815 95.009, 7.423 96.242 C 6.791 98.235, 6.894 98.333, 8.356 97.120 C 10.180 95.606, 10.641 96.959, 8.896 98.704 C 8.098 99.502, 8.090 101.192, 8.866 104.813 C 12.187 120.297, 26.934 138.564, 43.796 148.080 C 46.708 149.724, 53.234 152.492, 58.296 154.231 C 66.795 157.151, 68.495 157.392, 80.500 157.379 C 89.762 157.369, 95.352 156.859, 99.942 155.605 C 132.276 146.774, 154.674 119.841, 157.411 86.500 C 158.603 71.975, 153.460 52.191, 145.269 39.795 C 135.367 24.809, 115.602 9.981, 112.410 15.145 M 52.436 18.413 C 49.688 19.610, 49.415 20.117, 49.791 23.340 C 50.312 27.801, 52.519 28.674, 57.395 26.349 C 61.153 24.557, 61.869 22.492, 59.965 18.934 C 58.763 16.688, 56.720 16.547, 52.436 18.413 M 98.543 18.931 C 97.833 20.079, 99.660 21.328, 100.915 20.553 C 101.418 20.242, 102.007 20.520, 102.224 21.171 C 102.460 21.880, 103.150 22.026, 103.944 21.535 C 104.949 20.913, 104.693 20.395, 102.885 19.393 C 100.001 17.794, 99.292 17.719, 98.543 18.931 M 114.500 19 C 114.160 19.550, 114.584 20, 115.441 20 C 116.298 20, 117 19.550, 117 19 C 117 18.450, 116.577 18, 116.059 18 C 115.541 18, 114.840 18.450, 114.500 19 M 53.750 19.679 C 51.893 20.175, 51.158 26, 52.953 26 C 55.761 26, 59.071 23.496, 58.796 21.579 C 58.493 19.471, 56.847 18.851, 53.750 19.679 M 119.558 20.907 C 119.249 21.405, 119.898 21.578, 120.999 21.290 C 123.334 20.679, 123.629 20, 121.559 20 C 120.766 20, 119.866 20.408, 119.558 20.907 M 39.891 25.955 L 36.936 28.911 39.148 31.455 C 41.886 34.604, 43.662 34.613, 47.479 31.494 C 49.836 29.568, 50.202 28.802, 49.229 27.829 C 48.316 26.916, 48 26.903, 48 27.777 C 48 28.424, 46.858 29.702, 45.462 30.617 C 43.068 32.185, 42.844 32.173, 41.494 30.390 C 40.094 28.541, 39.396 26.062, 40.619 27.286 C 40.960 27.626, 41.918 27.225, 42.748 26.395 C 43.578 25.564, 44.875 25.122, 45.629 25.411 C 46.407 25.710, 47 25.302, 47 24.469 C 47 21.995, 43.018 22.828, 39.891 25.955 M 112.733 25.124 C 113.412 25.808, 114.219 26.115, 114.526 25.807 C 114.834 25.499, 114.279 24.940, 113.293 24.564 C 111.868 24.022, 111.753 24.136, 112.733 25.124 M 109.446 26.087 C 109.077 26.685, 109.179 27.579, 109.673 28.073 C 110.204 28.604, 110.571 28.160, 110.571 26.986 C 110.571 24.713, 110.386 24.566, 109.446 26.087 M 114.612 28.469 C 113.700 29.861, 113.306 31, 113.736 31 C 114.710 31, 117.298 26.965, 116.705 26.371 C 116.466 26.133, 115.525 27.077, 114.612 28.469 M 119.086 31.382 L 116.672 34.500 119.533 31.780 C 121.106 30.284, 122.193 28.881, 121.947 28.662 C 121.701 28.443, 120.414 29.667, 119.086 31.382 M 75.802 29.531 C 75.510 29.824, 74.422 30.258, 73.385 30.496 C 72.348 30.735, 68.125 32.034, 64 33.384 C 58.820 35.078, 57.368 35.863, 59.307 35.919 C 62.712 36.017, 71.136 34.059, 72.450 32.864 C 73.873 31.570, 76.035 31.823, 75.750 33.250 C 75.587 34.064, 77.044 34.610, 79.927 34.816 C 83.850 35.096, 84.206 34.954, 83.055 33.566 C 81.962 32.249, 82.025 32, 83.449 32 C 84.381 32, 85.818 32.675, 86.643 33.500 C 87.468 34.325, 88.673 34.993, 89.321 34.985 C 90.012 34.976, 89.879 34.568, 89 34 C 87.956 33.325, 87.880 32.988, 88.750 32.890 C 91.474 32.585, 91.858 32.476, 92.510 31.823 C 92.883 31.450, 91.458 30.665, 89.344 30.078 C 85.326 28.963, 76.718 28.615, 75.802 29.531 M 34.155 35.153 C 31.017 38.085, 30.954 38.291, 32.618 40.130 C 34.318 42.009, 34.424 41.982, 37.662 38.843 C 39.481 37.079, 40.747 35.414, 40.475 35.141 C 40.202 34.869, 38.715 35.857, 37.170 37.337 C 33.508 40.846, 32.154 39.492, 35.663 35.830 C 39.385 31.945, 38.170 31.400, 34.155 35.153 M 18.411 38.495 C 16.924 39.873, 16.022 41, 16.405 41 C 16.788 41, 16.022 42.462, 14.702 44.250 C 12.032 47.865, 8.601 56.009, 9.758 55.985 C 11.230 55.954, 13.427 54.094, 12.769 53.435 C 12.398 53.065, 12.753 52.104, 13.557 51.300 C 14.361 50.496, 14.763 49.425, 14.450 48.919 C 14.138 48.414, 14.359 48, 14.941 48 C 15.523 48, 16 47.325, 16 46.500 C 16 45.675, 16.337 44.996, 16.750 44.992 C 17.700 44.982, 20.080 39.939, 19.544 39.072 C 19.324 38.716, 20.261 38.332, 21.627 38.219 C 23.372 38.074, 23.888 38.383, 23.363 39.257 C 22.863 40.089, 23.175 40.046, 24.308 39.128 C 25.239 38.373, 26 37.510, 26 37.211 C 26 36.912, 25.716 36.951, 25.369 37.298 C 25.021 37.645, 23.922 37.493, 22.925 36.960 C 21.530 36.213, 20.492 36.567, 18.411 38.495 M 26 46.500 C 25.315 47.325, 24.023 48.014, 23.128 48.030 C 21.648 48.058, 21.651 48.149, 23.164 49.032 C 25.421 50.349, 28 49.208, 28 46.893 C 28 44.608, 27.631 44.535, 26 46.500 M 71.755 50.500 C 72.246 53.068, 73.945 53.985, 74.070 51.750 C 74.109 51.063, 74.527 51.400, 75 52.500 C 75.720 54.176, 75.871 53.974, 75.930 51.250 C 75.990 48.481, 75.650 48, 73.639 48 C 71.659 48, 71.355 48.404, 71.755 50.500 M 88.750 48.662 C 89.438 48.940, 90.563 48.940, 91.250 48.662 C 91.938 48.385, 91.375 48.158, 90 48.158 C 88.625 48.158, 88.063 48.385, 88.750 48.662 M 51.554 55.750 C 52.390 61.527, 52.722 62, 55.937 62 C 58.335 62, 58.828 61.649, 58.392 60.250 C 58.092 59.288, 58.992 60.285, 60.391 62.467 L 62.936 66.434 62.718 63.467 C 62.573 61.489, 62.931 60.588, 63.793 60.764 C 64.786 60.967, 64.836 60.562, 64.008 59.014 C 62.753 56.670, 64.176 56.302, 66 58.500 C 66.685 59.325, 67.752 59.993, 68.372 59.985 C 68.993 59.976, 68.825 59.533, 68 59 C 67.175 58.467, 66.950 57.972, 67.500 57.900 C 68.050 57.828, 68.950 57.665, 69.500 57.537 C 70.050 57.409, 71.063 57.236, 71.750 57.152 C 72.438 57.069, 73 56.566, 73 56.036 C 73 55.503, 68.641 54.944, 63.250 54.786 C 56.102 54.576, 53.567 54.166, 53.750 53.250 C 53.888 52.563, 53.327 52, 52.505 52 C 51.349 52, 51.134 52.847, 51.554 55.750 M 14.536 55.942 C 14.238 56.425, 14.895 58.922, 15.997 61.493 C 17.099 64.063, 18 66.830, 18 67.642 C 18 68.505, 18.481 68.821, 19.158 68.403 C 19.951 67.912, 20.138 68.366, 19.751 69.844 C 18.751 73.668, 20.641 72.152, 24.857 65.750 L 28.972 59.500 25.236 57.912 C 20.244 55.790, 15.203 54.862, 14.536 55.942 M 47 56 C 47 56.550, 47.702 57, 48.559 57 C 49.416 57, 49.840 56.550, 49.500 56 C 49.160 55.450, 48.459 55, 47.941 55 C 47.423 55, 47 55.450, 47 56 M 77.500 56 C 77.160 56.550, 77.332 57, 77.882 57 C 78.432 57, 79.160 56.550, 79.500 56 C 79.840 55.450, 79.668 55, 79.118 55 C 78.568 55, 77.840 55.450, 77.500 56 M 8.459 58.067 C 7.370 59.829, 8.518 60.076, 10.573 58.521 C 12.265 57.241, 12.294 57.060, 10.809 57.032 C 9.879 57.014, 8.821 57.480, 8.459 58.067 M 17 57.766 C 17 58.274, 17.914 59.517, 19.031 60.528 C 20.923 62.241, 21.176 62.253, 22.722 60.707 C 23.634 59.794, 24.183 58.864, 23.940 58.641 C 22.885 57.666, 17 56.923, 17 57.766 M 24.529 60.908 C 24.196 61.957, 23.266 63.068, 22.462 63.376 C 21.658 63.685, 21.016 64.964, 21.036 66.219 C 21.071 68.417, 21.159 68.393, 23.476 65.558 C 24.799 63.940, 25.656 62.253, 25.381 61.808 C 25.107 61.364, 25.359 61, 25.941 61 C 26.523 61, 27 60.550, 27 60 C 27 58.249, 25.158 58.926, 24.529 60.908 M 8.104 60.914 C 7.337 61.400, 6.979 62.504, 7.311 63.367 C 7.642 64.230, 7.452 65.221, 6.888 65.569 C 6.325 65.917, 6.084 66.777, 6.354 67.479 C 6.623 68.182, 6.339 69.261, 5.722 69.878 C 4.948 70.652, 4.934 71, 5.678 71 C 6.270 71, 7.315 70.325, 8 69.500 C 8.993 68.303, 8.993 68, 8 68 C 7.023 68, 7.016 67.686, 7.964 66.544 C 8.628 65.743, 8.880 64.615, 8.523 64.037 C 8.165 63.459, 8.577 62.716, 9.437 62.386 C 10.296 62.056, 11 61.384, 11 60.893 C 11 59.767, 9.903 59.775, 8.104 60.914 M 17.569 62 C 17.939 63.375, 18.624 65.175, 19.091 66 C 19.768 67.198, 19.945 67.085, 19.970 65.441 C 19.986 64.309, 19.302 62.509, 18.448 61.441 C 16.957 59.576, 16.923 59.598, 17.569 62 M 44 62.981 C 44 63.520, 42.875 64.244, 41.500 64.589 C 40.125 64.934, 39 65.870, 39 66.667 C 39 67.491, 39.488 67.816, 40.130 67.420 C 40.798 67.007, 41.082 67.253, 40.826 68.023 C 40.587 68.739, 39.610 69.440, 38.655 69.580 C 37.318 69.776, 37.054 69.336, 37.512 67.668 C 38.089 65.561, 38.048 65.566, 36.053 67.861 C 34.924 69.159, 34 70.843, 34 71.603 C 34 73.464, 38.084 78.066, 39.151 77.407 C 39.618 77.118, 40 77.321, 40 77.858 C 40 78.394, 39.438 79.060, 38.750 79.338 C 37.796 79.723, 37.813 79.861, 38.821 79.921 C 39.548 79.964, 40.818 79.325, 41.643 78.500 C 43.344 76.799, 46 76.494, 46 78 C 46 78.550, 44.987 79.007, 43.750 79.015 C 42.134 79.026, 41.876 79.269, 42.835 79.877 C 43.570 80.343, 44.245 81.116, 44.335 81.595 C 44.426 82.074, 46.188 82.579, 48.250 82.717 C 51.080 82.906, 52 82.587, 52 81.417 C 52 80.309, 51.356 80.025, 49.750 80.423 C 48.513 80.730, 48.062 80.723, 48.748 80.408 C 49.471 80.076, 49.764 78.906, 49.444 77.632 C 48.995 75.842, 49.324 75.424, 51.195 75.403 C 52.463 75.389, 53.818 75.849, 54.206 76.426 C 54.594 77.003, 54.854 76.580, 54.784 75.487 C 54.714 74.394, 54.959 72.584, 55.328 71.464 C 55.848 69.885, 55.563 69.429, 54.055 69.429 C 52.584 69.429, 52.371 69.742, 53.178 70.714 C 54.318 72.088, 52.682 75, 50.771 75 C 50.229 75, 50.045 74.325, 50.362 73.500 C 51.057 71.689, 49.425 71.491, 48.300 73.250 C 47.860 73.938, 46.825 74.545, 46 74.600 C 45.175 74.655, 43.375 75.016, 42 75.402 C 39.863 76.002, 39.724 75.915, 41.039 74.802 C 41.886 74.086, 42.649 72.437, 42.736 71.137 C 42.948 67.935, 43.945 67.151, 45.125 69.258 C 46.580 71.859, 47.545 71.389, 48.739 67.500 C 49.406 65.325, 49.447 64, 48.847 64 C 48.316 64, 48.160 63.550, 48.500 63 C 48.851 62.433, 48.010 62, 46.559 62 C 45.152 62, 44 62.441, 44 62.981 M 5.382 73.191 C 4.977 73.846, 5.194 74.565, 5.865 74.788 C 6.821 75.107, 6.819 75.513, 5.856 76.673 C 4.882 77.847, 4.896 78.318, 5.921 78.951 C 6.831 79.514, 6.886 79.952, 6.107 80.434 C 5.498 80.810, 5 81.631, 5 82.259 C 5 83.064, 5.363 83.037, 6.233 82.167 C 6.912 81.488, 7.531 78.923, 7.608 76.467 C 7.747 72.104, 6.860 70.800, 5.382 73.191 M 83 75 C 82.099 75.582, 81.975 75.975, 82.691 75.985 C 83.346 75.993, 84.160 75.550, 84.500 75 C 85.267 73.758, 84.921 73.758, 83 75 M 12.918 77.250 C 12.873 77.388, 12.632 78.737, 12.384 80.250 C 11.892 83.238, 13.564 84.106, 14.311 81.250 C 14.655 79.933, 14.797 80.057, 14.884 81.750 C 14.948 82.987, 14.550 84, 14 84 C 13.450 84, 13 85.350, 13 87 C 13 89.498, 13.401 90, 15.393 90 C 18.914 90, 20.723 84.078, 17.250 83.921 C 16.205 83.874, 16.003 83.639, 16.750 83.338 C 18.269 82.725, 18.434 77, 16.933 77 C 16.323 77, 16.111 77.964, 16.438 79.250 L 17.011 81.500 15.852 79.250 C 14.892 77.384, 13.243 76.261, 12.918 77.250 M 54.543 81.931 C 54.226 82.443, 54.425 83.144, 54.984 83.490 C 55.543 83.835, 56 83.416, 56 82.559 C 56 80.802, 55.400 80.544, 54.543 81.931 M 6 84.500 C 5.293 85.352, 4.940 86.273, 5.215 86.548 C 5.490 86.823, 6.293 86.352, 7 85.500 C 7.707 84.648, 8.060 83.727, 7.785 83.452 C 7.510 83.177, 6.707 83.648, 6 84.500 M 14 86.500 C 14 87.325, 14.675 88, 15.500 88 C 16.325 88, 17 87.325, 17 86.500 C 17 85.675, 16.325 85, 15.500 85 C 14.675 85, 14 85.675, 14 86.500 M 22.500 91 C 22.840 91.550, 23.316 92, 23.559 92 C 23.802 92, 24 91.550, 24 91 C 24 90.450, 23.523 90, 22.941 90 C 22.359 90, 22.160 90.450, 22.500 91 M 16.430 91.886 C 16.731 92.374, 15.970 93.075, 14.739 93.445 C 12.567 94.097, 12.559 94.141, 14.500 94.933 C 15.600 95.381, 17.271 95.348, 18.213 94.859 C 20.177 93.839, 19.530 91, 17.334 91 C 16.535 91, 16.128 91.399, 16.430 91.886 M 22.143 96.890 C 21.397 97.363, 21.172 97.984, 21.643 98.270 C 22.114 98.556, 23.080 98.162, 23.789 97.395 C 25.218 95.849, 24.253 95.553, 22.143 96.890 M 18.211 99.601 C 17.501 100.370, 17.362 101, 17.902 101 C 18.940 101, 20.443 99.098, 19.850 98.534 C 19.658 98.351, 18.920 98.831, 18.211 99.601 M 11 104.500 C 10.282 105.365, 10.185 106, 10.771 106 C 11.329 106, 12.045 105.325, 12.362 104.500 C 12.678 103.675, 12.781 103, 12.591 103 C 12.401 103, 11.685 103.675, 11 104.500 M 20.500 106 C 20.160 106.550, 20.359 107, 20.941 107 C 21.523 107, 22 106.550, 22 106 C 22 105.450, 21.802 105, 21.559 105 C 21.316 105, 20.840 105.450, 20.500 106" stroke="none" fill="black" fill-rule="evenodd"/>
	<path fill-opacity="0.286" d="M 68.459 7.067 C 67.433 8.727, 68.354 8.957, 69.789 7.399 C 70.499 6.630, 70.638 6, 70.098 6 C 69.559 6, 68.821 6.480, 68.459 7.067 M 63.603 8.167 C 63.886 8.625, 64.541 9, 65.059 9 C 65.577 9, 66 8.625, 66 8.167 C 66 7.708, 65.345 7.333, 64.544 7.333 C 63.743 7.333, 63.320 7.708, 63.603 8.167 M 57.564 9.707 C 57.022 11.132, 57.136 11.247, 58.124 10.267 C 58.808 9.588, 59.115 8.781, 58.807 8.474 C 58.499 8.166, 57.940 8.721, 57.564 9.707 M 54.300 10.250 C 53.860 10.938, 52.862 11.500, 52.083 11.500 C 51.304 11.500, 50.482 12.175, 50.257 13 C 49.921 14.233, 50.019 14.255, 50.812 13.122 C 51.342 12.364, 52.254 12.039, 52.838 12.400 C 53.422 12.761, 54.388 12.143, 54.985 11.028 C 56.160 8.832, 55.608 8.205, 54.300 10.250 M 44.500 14.338 C 42.300 15.527, 40.350 16.837, 40.167 17.250 C 39.983 17.663, 39.360 18, 38.781 18 C 38.203 18, 36.582 19.238, 35.181 20.750 C 33.779 22.262, 32.395 23.354, 32.105 23.176 C 31.815 22.998, 31.318 23.594, 31 24.500 C 30.682 25.406, 29.989 26.034, 29.461 25.895 C 28.932 25.756, 28.457 26.285, 28.404 27.071 C 28.341 28.002, 28.454 28.060, 28.729 27.238 C 28.961 26.544, 29.570 26.235, 30.083 26.551 C 30.595 26.868, 31.284 26.423, 31.614 25.563 C 31.944 24.704, 32.841 24, 33.607 24 C 34.373 24, 35 23.339, 35 22.531 C 35 21.637, 35.586 21.288, 36.500 21.638 C 37.442 22, 38 21.628, 38 20.638 C 38 19.649, 38.558 19.277, 39.500 19.638 C 40.474 20.012, 41 19.613, 41 18.500 C 41 17.369, 41.523 16.987, 42.538 17.376 C 43.396 17.706, 44.316 17.339, 44.621 16.546 C 44.920 15.765, 45.744 15.348, 46.451 15.620 C 47.168 15.895, 47.975 15.203, 48.275 14.057 C 48.571 12.925, 48.742 12.040, 48.656 12.088 C 48.570 12.137, 46.700 13.149, 44.500 14.338 M 76.176 13.870 C 75.379 14.375, 74.981 16.063, 75.176 18.105 C 75.484 21.332, 75.694 21.500, 79.417 21.500 C 82.028 21.500, 83.486 21, 83.792 20 C 84.162 18.789, 83.994 18.741, 82.925 19.750 C 82.196 20.438, 80.311 21, 78.737 21 C 76.115 21, 75.900 20.729, 76.187 17.789 C 76.425 15.348, 77.099 14.413, 79 13.889 C 80.998 13.338, 81.098 13.182, 79.500 13.115 C 78.400 13.069, 76.904 13.408, 76.176 13.870 M 65.155 14.718 C 63.309 15.069, 62.933 15.625, 63.391 17.332 C 63.711 18.524, 63.979 20.465, 63.986 21.645 C 63.999 23.587, 64.337 23.713, 67.579 22.982 C 72.443 21.885, 73.436 20.647, 68.750 21.522 C 65.746 22.083, 65 21.918, 65 20.693 C 65 19.852, 64.747 18.503, 64.437 17.696 C 64.035 16.648, 64.965 15.939, 67.687 15.218 C 71.466 14.216, 69.666 13.861, 65.155 14.718 M 82 15 C 82 15.550, 82.450 16, 83 16 C 83.550 16, 84 15.550, 84 15 C 84 14.450, 83.550 14, 83 14 C 82.450 14, 82 14.450, 82 15 M 86.813 14.683 C 87.534 14.972, 88.397 14.936, 88.729 14.604 C 89.061 14.272, 88.471 14.036, 87.417 14.079 C 86.252 14.127, 86.015 14.364, 86.813 14.683 M 89.425 18.547 C 89.059 20.497, 89.010 22.343, 89.315 22.649 C 89.621 22.954, 90.170 21.609, 90.536 19.659 C 91.014 17.114, 91.808 15.994, 93.351 15.693 C 95.102 15.350, 94.999 15.247, 92.795 15.136 C 90.452 15.018, 90.002 15.473, 89.425 18.547 M 97.373 17.786 C 97.079 18.729, 96.434 20.512, 95.940 21.750 C 95.413 23.073, 95.412 24, 95.938 24 C 96.430 24, 96.995 23.516, 97.192 22.925 C 97.864 20.907, 102.993 23.027, 103.081 25.358 C 103.150 27.177, 103.370 27.048, 104.536 24.500 C 106.385 20.463, 106.458 17.992, 104.656 20.456 C 103.652 21.828, 102.619 22.121, 100.585 21.611 C 97.167 20.753, 97.782 18.433, 101.359 18.688 C 104.827 18.935, 104.698 18.439, 100.955 17.134 C 98.379 16.236, 97.827 16.337, 97.373 17.786 M 52.746 18.625 C 49.883 20.125, 49.610 20.941, 50.658 24.857 C 51.208 26.911, 51.733 27.143, 54.734 26.656 C 60.514 25.718, 62.322 23.190, 59.738 19.657 C 58.628 18.138, 58.478 18.321, 58.488 21.179 C 58.498 23.840, 57.992 24.608, 55.691 25.427 C 53.507 26.205, 52.676 26.102, 51.956 24.964 C 50.186 22.164, 50.946 20.305, 54.249 19.358 C 56.036 18.845, 57.047 18.147, 56.495 17.806 C 55.944 17.465, 54.256 17.834, 52.746 18.625 M 68 18 C 65.673 18.745, 65.651 18.808, 67.691 18.900 C 68.896 18.955, 70.160 18.550, 70.500 18 C 70.840 17.450, 70.979 17.045, 70.809 17.100 C 70.639 17.155, 69.375 17.560, 68 18 M 120 19.059 C 120 19.641, 120.450 19.840, 121 19.500 C 121.550 19.160, 122 18.684, 122 18.441 C 122 18.198, 121.550 18, 121 18 C 120.450 18, 120 18.477, 120 19.059 M 122.500 21 C 122.160 21.550, 122.584 22, 123.441 22 C 124.298 22, 125 21.550, 125 21 C 125 20.450, 124.577 20, 124.059 20 C 123.541 20, 122.840 20.450, 122.500 21 M 107.965 24.565 C 106.337 27.606, 107.359 29.849, 111.243 31.757 C 114.425 33.320, 116.398 32.618, 117.865 29.398 C 119.350 26.137, 119.488 26.465, 115.632 24.082 C 111.221 21.355, 109.629 21.456, 107.965 24.565 M 41.250 24.674 C 38.962 26.270, 38.128 30, 40.059 30 C 40.641 30, 40.828 29.530, 40.473 28.956 C 39.450 27.301, 41.997 25.001, 44.872 24.985 C 46.936 24.973, 47.178 24.761, 46 24 C 44.095 22.769, 43.953 22.789, 41.250 24.674 M 109.196 25.468 C 108.230 27.590, 108.379 28.152, 110.258 29.468 C 113.064 31.434, 113.979 31.397, 115.608 29.250 C 117.514 26.739, 117.346 26.230, 114.050 24.526 C 110.315 22.594, 110.524 22.554, 109.196 25.468 M 126.269 23.693 C 127.242 23.947, 128.592 23.930, 129.269 23.656 C 129.946 23.382, 129.150 23.175, 127.500 23.195 C 125.850 23.215, 125.296 23.439, 126.269 23.693 M 128.500 26 C 128.160 26.550, 128.557 27, 129.382 27 C 130.207 27, 131.160 26.550, 131.500 26 C 131.840 25.450, 131.443 25, 130.618 25 C 129.793 25, 128.840 25.450, 128.500 26 M 132.248 27.579 C 130.373 29.587, 130.728 30.106, 133.500 29.411 C 136.772 28.589, 136.728 29.773, 133.440 31.023 C 132.032 31.558, 131.158 32.447, 131.499 32.998 C 131.839 33.549, 131.645 34, 131.067 34 C 130.489 34, 128.813 35.350, 127.342 37 C 125.872 38.650, 124.181 39.988, 123.585 39.973 C 122.988 39.958, 124.147 38.414, 126.160 36.542 C 128.886 34.007, 129.350 33.173, 127.979 33.277 C 126.967 33.353, 126.220 33.828, 126.319 34.333 C 126.419 34.837, 125.973 35.444, 125.329 35.682 C 124.588 35.955, 124.347 35.388, 124.674 34.139 C 124.958 33.052, 124.763 31.399, 124.241 30.466 C 123.390 28.946, 122.935 29.086, 119.896 31.802 C 118.029 33.470, 116.795 35.128, 117.153 35.487 C 118.049 36.382, 121.828 33.904, 122.428 32.029 C 122.697 31.188, 122.689 32.075, 122.410 34 C 122.132 35.925, 121.871 38.705, 121.832 40.178 C 121.776 42.292, 121.493 42.607, 120.491 41.678 C 119.555 40.810, 119.521 40.291, 120.361 39.705 C 121.059 39.218, 120.726 39.015, 119.500 39.180 C 118.400 39.329, 116.825 39.037, 116 38.533 C 114.667 37.718, 114.667 37.832, 116 39.558 C 116.825 40.626, 117.725 41.725, 118 42 C 121.537 45.537, 120.219 45.367, 116.028 41.746 C 94.049 22.759, 63.239 23.392, 43.664 43.233 C 39.904 47.044, 37.081 50.414, 37.389 50.722 C 37.698 51.031, 38.803 50.230, 39.846 48.942 C 41.631 46.737, 41.843 46.700, 43.443 48.300 C 45.730 50.587, 47.903 50.440, 50.706 47.807 L 53.041 45.613 54.577 47.807 C 55.422 49.013, 57.017 50, 58.122 50 C 59.227 50, 61.002 50.466, 62.066 51.035 C 63.399 51.749, 64 51.749, 64 51.035 C 64 49.500, 66.702 49.780, 67.315 51.378 C 67.606 52.136, 67.339 53.261, 66.722 53.878 C 65.893 54.707, 66.304 55, 68.300 55 C 70.783 55, 71 54.679, 71 51 C 71 47.054, 71.050 47, 74.700 47 C 77.578 47, 78.133 47.267, 77.200 48.200 C 76.540 48.860, 75.999 50.773, 75.999 52.450 L 75.997 55.500 81.444 55.161 L 86.890 54.821 87.195 51.161 C 87.455 48.045, 87.892 47.455, 90.133 47.195 C 92.694 46.898, 92.753 47.014, 92.262 51.366 L 91.758 55.842 96.129 55.271 C 98.533 54.957, 100.781 54.270, 101.125 53.743 C 101.507 53.159, 102.016 53.217, 102.434 53.893 C 102.810 54.502, 104.243 55, 105.618 55 C 110.811 55, 106.646 57.005, 101.191 57.132 C 96.502 57.240, 96.028 57.396, 98.500 58.016 C 101.090 58.666, 100.953 58.724, 97.500 58.437 C 95.300 58.255, 91.475 57.873, 89 57.590 L 84.500 57.074 88.750 58.179 C 91.088 58.787, 93 59.670, 93 60.142 C 93 60.614, 94.098 61, 95.441 61 C 96.784 61, 98.144 61.423, 98.463 61.941 C 98.815 62.509, 97.553 62.608, 95.272 62.191 C 93.198 61.811, 88.125 61.500, 84 61.500 L 76.500 61.500 76.204 68.250 C 76.042 71.963, 75.479 75, 74.954 75 C 74.429 75, 74 74.475, 74 73.833 C 74 73.192, 73.739 72.928, 73.420 73.247 C 73.101 73.566, 73.576 74.949, 74.474 76.321 C 75.555 77.969, 75.751 79.036, 75.054 79.466 C 74.474 79.825, 74 79.641, 74 79.059 C 74 78.477, 73.564 78, 73.031 78 C 72.499 78, 72.322 78.675, 72.638 79.500 C 72.955 80.325, 72.716 81, 72.107 81 C 71.498 81, 71 81.675, 71 82.500 C 71 84.904, 69.574 84.242, 67.618 80.931 C 65.383 77.146, 64.384 77.794, 65.872 82.064 C 67.242 85.993, 66.249 88.029, 64.244 85.401 C 62.858 83.585, 62.823 83.601, 63.464 85.750 C 63.866 87.097, 63.706 88, 63.067 88 C 62.470 88, 62 89.967, 62 92.465 C 62 95.875, 61.537 97.177, 60.041 97.978 C 58.963 98.555, 57.725 98.968, 57.291 98.895 C 54.230 98.384, 52.802 99.136, 53.290 101 C 53.577 102.100, 53.405 103, 52.906 103 C 52.408 103, 52 101.677, 52 100.060 C 52 97.385, 52.337 97.093, 55.750 96.810 C 59.442 96.505, 59.505 96.430, 59.798 91.916 L 60.096 87.332 57.039 87.781 C 55.357 88.028, 53.314 87.676, 52.498 86.998 C 51.682 86.321, 49.773 85.688, 48.257 85.592 C 46.741 85.495, 43.137 84.313, 40.250 82.964 C 36.193 81.069, 35 79.999, 35 78.256 C 35 77.015, 34.491 76, 33.869 76 C 30.954 76, 35.680 64.114, 38.628 64.031 C 39.248 64.014, 40.354 63.278, 41.086 62.396 C 42.044 61.242, 43.479 60.935, 46.208 61.301 C 48.294 61.581, 50.181 61.515, 50.402 61.155 C 50.624 60.795, 49.396 60.398, 47.674 60.272 C 45.824 60.138, 43.870 59.153, 42.899 57.866 C 41.698 56.273, 40.751 55.905, 39.378 56.495 C 34.848 58.442, 34.073 57.787, 36.055 53.684 C 37.096 51.530, 37.088 51.527, 35.448 53.500 C 31.319 58.469, 28.029 69.803, 28.012 79.114 C 27.994 89.070, 29.542 95.660, 33.975 104.500 C 37.871 112.268, 37.900 112.402, 34.993 109.114 C 31.667 105.353, 31.238 105.626, 33.526 110.050 C 34.400 111.741, 34.614 113, 34.026 113 C 33.462 113, 33 112.523, 33 111.941 C 33 111.359, 32.528 111.174, 31.951 111.530 C 31.237 111.972, 31.282 112.634, 32.093 113.612 C 33.059 114.777, 32.973 114.927, 31.630 114.412 C 30.435 113.953, 30.138 114.196, 30.557 115.288 C 30.876 116.118, 30.661 117.092, 30.080 117.451 C 29.421 117.858, 29.264 117.476, 29.663 116.437 C 30.178 115.094, 29.883 114.902, 28.151 115.452 C 26.867 115.860, 26 115.705, 26 115.067 C 26 114.480, 26.648 114, 27.441 114 C 29.885 114, 29.951 112.509, 27.513 112.363 C 25.973 112.270, 24.854 113.026, 24.109 114.660 C 22.638 117.890, 22.669 118, 25.059 118 C 26.199 118, 26.838 118.454, 26.490 119.016 C 26.144 119.575, 25.475 119.794, 25.003 119.502 C 24.531 119.210, 23.846 119.911, 23.481 121.061 C 23.116 122.210, 22.562 122.896, 22.251 122.584 C 21.939 122.272, 21.005 122.576, 20.176 123.259 C 18.872 124.332, 18.767 124.105, 19.397 121.575 C 20.006 119.132, 19.894 118.843, 18.721 119.817 C 16.618 121.562, 15.745 119.940, 17.653 117.831 C 19.106 116.225, 19.120 116, 17.762 116 C 15.128 116, 14.873 119.057, 17.191 122.863 C 20.124 127.680, 30.373 138.370, 36 142.483 C 65.886 164.326, 108.086 161.384, 134.204 135.635 C 148.525 121.517, 155.984 104.475, 156.586 84.500 C 157.218 63.538, 150.704 45.001, 137.742 30.872 C 134.253 27.068, 133.274 26.481, 132.248 27.579 M 48 27.973 C 48 29.859, 44.903 31.929, 42 31.984 C 40.100 32.019, 39.846 32.249, 40.941 32.942 C 43.616 34.635, 50.733 29.399, 48.624 27.290 C 48.281 26.947, 48 27.255, 48 27.973 M 71.150 30.250 C 70.463 30.938, 68.685 31.537, 67.200 31.582 C 64.714 31.657, 55 35.427, 55 36.316 C 55 37.306, 66.232 35.930, 69.586 34.529 C 72.132 33.465, 73.565 33.297, 74.007 34.011 C 74.771 35.248, 88.441 35.690, 91.807 34.586 C 94.999 33.539, 94.195 30.669, 90.488 29.876 C 84.946 28.690, 72.469 28.931, 71.150 30.250 M 31.477 33.024 C 28.871 35.745, 28.746 36.175, 30.158 37.587 C 31.570 38.999, 32.034 38.856, 35.081 36.073 C 36.932 34.383, 37.974 33, 37.397 33 C 36.820 33, 35.286 34.131, 33.988 35.513 C 32.502 37.094, 31.275 37.675, 30.680 37.080 C 30.085 36.485, 30.803 35.213, 32.617 33.652 C 34.203 32.287, 35.242 30.912, 34.927 30.596 C 34.612 30.279, 33.059 31.372, 31.477 33.024 M 127.628 30.792 C 127.359 31.228, 128.017 31.651, 129.091 31.732 C 130.165 31.813, 130.782 31.456, 130.463 30.939 C 129.754 29.793, 128.293 29.717, 127.628 30.792 M 135.500 33 C 135.160 33.550, 135.332 34, 135.882 34 C 136.432 34, 137.160 33.550, 137.500 33 C 137.840 32.450, 137.668 32, 137.118 32 C 136.568 32, 135.840 32.450, 135.500 33 M 36.583 38.083 C 34.979 39.688, 34.113 41, 34.659 41 C 35.847 41, 40.523 36.190, 39.921 35.587 C 39.689 35.356, 38.188 36.479, 36.583 38.083 M 138.500 36 C 138.160 36.550, 138.359 37, 138.941 37 C 139.523 37, 140 36.550, 140 36 C 140 35.450, 139.802 35, 139.559 35 C 139.316 35, 138.840 35.450, 138.500 36 M 67 42 C 66.175 42.533, 65.950 42.969, 66.500 42.969 C 67.050 42.969, 68.175 42.533, 69 42 C 69.825 41.467, 70.050 41.031, 69.500 41.031 C 68.950 41.031, 67.825 41.467, 67 42 M 60.500 45 C 60.160 45.550, 60.584 46, 61.441 46 C 62.298 46, 63 45.550, 63 45 C 63 44.450, 62.577 44, 62.059 44 C 61.541 44, 60.840 44.450, 60.500 45 M 132.583 44.866 C 132.152 45.563, 132.070 46.403, 132.400 46.733 C 133.295 47.628, 134.271 46.312, 133.787 44.862 C 133.449 43.846, 133.213 43.846, 132.583 44.866 M 26 46.941 C 26 47.523, 25.235 48, 24.300 48 C 23.131 48, 22.922 48.322, 23.633 49.033 C 24.740 50.140, 28 49.334, 28 47.952 C 28 47.493, 27.550 46.840, 27 46.500 C 26.450 46.160, 26 46.359, 26 46.941 M 12.507 47.989 C 12.157 48.555, 12.558 48.723, 13.448 48.382 C 15.180 47.717, 15.497 47, 14.059 47 C 13.541 47, 12.843 47.445, 12.507 47.989 M 11.507 50.989 C 11.157 51.555, 11.558 51.723, 12.448 51.382 C 14.180 50.717, 14.497 50, 13.059 50 C 12.541 50, 11.843 50.445, 11.507 50.989 M 112.742 53.085 C 111.775 53.648, 110.565 53.849, 110.053 53.533 C 109.540 53.216, 109.190 53.866, 109.273 54.978 C 109.453 57.358, 109.244 57.302, 112.453 55.839 C 113.854 55.201, 115 54.076, 115 53.339 C 115 51.764, 115.008 51.765, 112.742 53.085 M 15.079 57.583 C 15.127 58.748, 15.364 58.985, 15.683 58.188 C 15.972 57.466, 15.936 56.603, 15.604 56.271 C 15.272 55.939, 15.036 56.529, 15.079 57.583 M 9 58 C 8.099 58.582, 7.975 58.975, 8.691 58.985 C 9.346 58.993, 10.160 58.550, 10.500 58 C 11.267 56.758, 10.921 56.758, 9 58 M 115.076 58.595 C 115.118 59.093, 115.720 61.072, 116.413 62.993 L 117.674 66.486 118.193 63.768 C 118.551 61.900, 118.133 60.525, 116.857 59.370 C 115.835 58.446, 115.034 58.097, 115.076 58.595 M 109 59.819 C 109 61.027, 110.897 62.436, 111.591 61.743 C 111.842 61.491, 111.362 60.716, 110.524 60.020 C 109.574 59.231, 109 59.155, 109 59.819 M 51.260 64.204 C 51.039 67.131, 52.858 69.180, 55.057 68.482 C 56.033 68.172, 57.121 68.387, 57.475 68.959 C 57.829 69.532, 58.766 70, 59.559 70 C 60.573 70, 61 68.816, 61 66 L 61 62 56.213 62 C 51.995 62, 51.406 62.262, 51.260 64.204 M 83.566 63.953 C 82.138 64.472, 81.965 64.860, 82.904 65.440 C 83.602 65.872, 84.668 65.732, 85.270 65.130 C 86.746 63.654, 85.934 63.094, 83.566 63.953 M 87.233 65.750 C 87.552 66.987, 87.405 68, 86.906 68 C 86.408 68, 86 68.625, 86 69.389 C 86 70.153, 85.139 71.841, 84.086 73.139 L 82.173 75.500 80.203 73.231 L 78.233 70.962 77.789 73.981 C 77.412 76.556, 77.669 77, 79.538 77 C 82.191 77, 87 73.408, 87 71.427 C 87 70.176, 88.887 69.498, 91.278 69.891 C 91.706 69.961, 92.316 69.339, 92.635 68.509 C 92.953 67.679, 94.092 67, 95.166 67 C 96.332 67, 96.844 66.557, 96.438 65.899 C 96.040 65.256, 94.502 65.050, 92.736 65.403 C 90.930 65.764, 89.098 65.503, 88.183 64.754 C 86.874 63.681, 86.737 63.825, 87.233 65.750 M 98.651 69.468 C 98.341 70.275, 98.518 71.202, 99.044 71.527 C 99.570 71.852, 100 71.191, 100 70.059 C 100 67.644, 99.444 67.401, 98.651 69.468 M 20 70.500 C 19.282 71.365, 19.185 72, 19.771 72 C 20.329 72, 21.045 71.325, 21.362 70.500 C 21.678 69.675, 21.781 69, 21.591 69 C 21.401 69, 20.685 69.675, 20 70.500 M 119 70.500 C 118.293 71.352, 117.940 72.273, 118.215 72.548 C 118.490 72.823, 119.293 72.352, 120 71.500 C 120.707 70.648, 121.060 69.727, 120.785 69.452 C 120.510 69.177, 119.707 69.648, 119 70.500 M 94 74 C 94 74.550, 94.450 75, 95 75 C 95.550 75, 96 74.550, 96 74 C 96 73.450, 95.550 73, 95 73 C 94.450 73, 94 73.450, 94 74 M 100.813 75.683 C 101.534 75.972, 102.397 75.936, 102.729 75.604 C 103.061 75.272, 102.471 75.036, 101.417 75.079 C 100.252 75.127, 100.015 75.364, 100.813 75.683 M 51.250 76.662 C 49.820 77.239, 49.551 79, 50.893 79 C 51.384 79, 52.045 78.325, 52.362 77.500 C 52.678 76.675, 52.839 76.036, 52.719 76.079 C 52.598 76.122, 51.938 76.385, 51.250 76.662 M 34.188 83.063 C 34.428 83.784, 35.216 84.572, 35.938 84.813 C 36.688 85.063, 37.063 84.688, 36.813 83.938 C 36.572 83.216, 35.784 82.428, 35.063 82.188 C 34.313 81.938, 33.938 82.313, 34.188 83.063 M 78 84 C 78 84.550, 78.423 85, 78.941 85 C 79.459 85, 80.160 84.550, 80.500 84 C 80.840 83.450, 80.416 83, 79.559 83 C 78.702 83, 78 83.450, 78 84 M 15.813 84.683 C 16.534 84.972, 17.397 84.936, 17.729 84.604 C 18.061 84.272, 17.471 84.036, 16.417 84.079 C 15.252 84.127, 15.015 84.364, 15.813 84.683 M 100.015 85.750 C 100.025 86.861, 100.299 87.086, 100.765 86.366 C 101.169 85.742, 102.400 85.007, 103.500 84.732 C 105.033 84.349, 104.858 84.205, 102.750 84.116 C 100.748 84.032, 100.004 84.476, 100.015 85.750 M 40.500 86 C 40.840 86.550, 41.316 87, 41.559 87 C 41.802 87, 42 86.550, 42 86 C 42 85.450, 41.523 85, 40.941 85 C 40.359 85, 40.160 85.450, 40.500 86 M 15.507 88.989 C 15.157 89.555, 15.558 89.723, 16.448 89.382 C 18.180 88.717, 18.497 88, 17.059 88 C 16.541 88, 15.843 88.445, 15.507 88.989 M 97.374 93.860 C 95.474 96.164, 94.308 96.503, 86.374 97.060 L 77.500 97.683 84.601 97.842 C 92.712 98.023, 97.570 96.671, 99.102 93.809 C 100.664 90.890, 99.803 90.916, 97.374 93.860 M 7.500 96 C 7.160 96.550, 7.359 97, 7.941 97 C 8.523 97, 9 96.550, 9 96 C 9 95.450, 8.802 95, 8.559 95 C 8.316 95, 7.840 95.450, 7.500 96 M 18.975 97.658 C 20.522 98.425, 20.209 100.123, 18.250 101.590 C 16.664 102.778, 16.716 102.846, 18.802 102.320 C 20.417 101.913, 21.015 101.130, 20.802 99.698 C 20.636 98.575, 19.926 97.543, 19.225 97.403 C 18.524 97.264, 18.411 97.379, 18.975 97.658 M 125.079 103.583 C 125.127 104.748, 125.364 104.985, 125.683 104.188 C 125.972 103.466, 125.936 102.603, 125.604 102.271 C 125.272 101.939, 125.036 102.529, 125.079 103.583 M 11 107.059 C 11 107.641, 11.450 107.840, 12 107.500 C 12.550 107.160, 13 106.684, 13 106.441 C 13 106.198, 12.550 106, 12 106 C 11.450 106, 11 106.477, 11 107.059 M 20.883 107.295 C 19.685 108.207, 19.562 108.801, 20.405 109.589 C 22.021 111.098, 24 110.178, 24 107.917 C 24 105.714, 23.175 105.550, 20.883 107.295 M 122.867 108.250 C 122.205 109.487, 119.166 113.200, 116.114 116.500 L 110.564 122.500 116.071 117.243 C 121.002 112.535, 125.955 106, 124.592 106 C 124.305 106, 123.529 107.013, 122.867 108.250 M 12.667 109.667 C 12.300 110.033, 12 110.798, 12 111.367 C 12 111.993, 12.466 111.934, 13.183 111.217 C 13.834 110.566, 14.134 109.801, 13.850 109.517 C 13.566 109.233, 13.033 109.300, 12.667 109.667 M 14 114.559 C 14 115.416, 14.450 115.840, 15 115.500 C 15.550 115.160, 16 114.459, 16 113.941 C 16 113.423, 15.550 113, 15 113 C 14.450 113, 14 113.702, 14 114.559 M 21.500 120 C 21.160 120.550, 21.359 121, 21.941 121 C 22.523 121, 23 120.550, 23 120 C 23 119.450, 22.802 119, 22.559 119 C 22.316 119, 21.840 119.450, 21.500 120 M 107.441 123.555 C 105.577 125.049, 105.589 125.067, 107.750 124.020 C 108.987 123.420, 110 122.720, 110 122.465 C 110 121.700, 109.481 121.921, 107.441 123.555 M 22.079 125.583 C 22.127 126.748, 22.364 126.985, 22.683 126.188 C 22.972 125.466, 22.936 124.603, 22.604 124.271 C 22.272 123.939, 22.036 124.529, 22.079 125.583 M 103 126 C 102.099 126.582, 101.975 126.975, 102.691 126.985 C 103.346 126.993, 104.160 126.550, 104.500 126 C 105.267 124.758, 104.921 124.758, 103 126 M 98 128 C 97.175 128.533, 96.950 128.969, 97.500 128.969 C 98.050 128.969, 99.175 128.533, 100 128 C 100.825 127.467, 101.050 127.031, 100.500 127.031 C 99.950 127.031, 98.825 127.467, 98 128 M 24 129.059 C 24 129.641, 24.450 129.840, 25 129.500 C 25.550 129.160, 26 128.684, 26 128.441 C 26 128.198, 25.550 128, 25 128 C 24.450 128, 24 128.477, 24 129.059 M 90.813 130.683 C 91.534 130.972, 92.397 130.936, 92.729 130.604 C 93.061 130.272, 92.471 130.036, 91.417 130.079 C 90.252 130.127, 90.015 130.364, 90.813 130.683 M 84.750 131.662 C 85.438 131.940, 86.563 131.940, 87.250 131.662 C 87.938 131.385, 87.375 131.158, 86 131.158 C 84.625 131.158, 84.063 131.385, 84.750 131.662" stroke="none" fill="black" fill-rule="evenodd"/>
	<path fill-opacity="0.236" d="M 75.158 16 C 75.158 17.375, 75.385 17.938, 75.662 17.250 C 75.940 16.563, 75.940 15.438, 75.662 14.750 C 75.385 14.063, 75.158 14.625, 75.158 16 M 90.079 16.583 C 90.127 17.748, 90.364 17.985, 90.683 17.188 C 90.972 16.466, 90.936 15.603, 90.604 15.271 C 90.272 14.939, 90.036 15.529, 90.079 16.583 M 96.945 19.644 C 96.392 21.098, 95.659 22.743, 95.315 23.299 C 94.972 23.854, 95.166 24.015, 95.747 23.656 C 96.848 22.976, 99.250 17, 98.423 17 C 98.163 17, 97.498 18.190, 96.945 19.644 M 51.750 19.080 C 50.788 19.641, 50.007 20.640, 50.015 21.300 C 50.026 22.130, 50.257 22.165, 50.765 21.415 C 51.169 20.818, 52.400 19.819, 53.500 19.195 C 54.600 18.571, 55.050 18.061, 54.500 18.061 C 53.950 18.061, 52.712 18.519, 51.750 19.080 M 104.600 20.600 C 104.244 21.527, 104.178 22.511, 104.453 22.786 C 104.728 23.061, 105.244 22.527, 105.600 21.600 C 105.956 20.673, 106.022 19.689, 105.747 19.414 C 105.472 19.139, 104.956 19.673, 104.600 20.600 M 108.388 24.531 C 107.475 25.923, 107.015 27.348, 107.365 27.698 C 107.714 28.047, 108 27.808, 108 27.167 C 108 26.525, 108.900 25.100, 110 24 C 111.100 22.900, 111.560 22, 111.023 22 C 110.486 22, 109.300 23.139, 108.388 24.531 M 116.503 27.989 C 116.130 29.166, 114.851 30.522, 113.662 31.001 C 111.530 31.861, 111.529 31.874, 113.581 31.937 C 115.627 31.999, 118.950 27.616, 117.759 26.426 C 117.442 26.109, 116.877 26.812, 116.503 27.989 M 90.813 29.683 C 91.534 29.972, 92.397 29.936, 92.729 29.604 C 93.061 29.272, 92.471 29.036, 91.417 29.079 C 90.252 29.127, 90.015 29.364, 90.813 29.683 M 95 31 C 96.090 31.704, 96.142 31.974, 95.191 31.985 C 94.471 31.993, 94.146 32.427, 94.469 32.950 C 95.523 34.656, 91.445 35.904, 83.398 36.337 C 79.054 36.571, 75.050 36.869, 74.500 37 C 72.502 37.474, 71.533 36.949, 72.857 36.110 C 75.516 34.425, 72.399 34.420, 66 36.099 C 62.425 37.037, 60.388 37.848, 61.473 37.902 C 63.308 37.993, 63.284 38.113, 61.121 39.628 C 59.299 40.904, 59.089 41.442, 60.148 42.113 C 61.936 43.246, 65.269 43.243, 64.568 42.110 C 64.265 41.620, 65.701 40.921, 67.759 40.556 C 69.816 40.192, 72.396 39.627, 73.492 39.302 C 75.187 38.800, 75.295 38.940, 74.217 40.239 C 73.175 41.494, 73.235 41.876, 74.556 42.383 C 77.642 43.567, 83.047 43.042, 83.638 41.500 C 83.955 40.675, 84.867 40, 85.666 40 C 86.465 40, 86.869 39.597, 86.565 39.105 C 86.260 38.612, 86.721 37.937, 87.588 37.605 C 89.856 36.734, 92.796 36.861, 93.411 37.856 C 93.702 38.326, 92.761 38.486, 91.321 38.211 C 89.517 37.866, 88.923 38.066, 89.410 38.855 C 89.800 39.485, 90.799 40, 91.630 40 C 93.492 40, 95.406 41.933, 95.781 44.192 C 96.016 45.614, 95.458 45.791, 92.281 45.301 C 87.890 44.623, 86.718 44, 89.833 44 C 92.549 44, 92.638 42.412, 90 41 C 88.574 40.237, 88 40.240, 88 41.009 C 88 41.602, 87.213 41.955, 86.250 41.794 C 85.085 41.598, 84.592 42.060, 84.777 43.175 C 84.929 44.096, 84.591 45.135, 84.027 45.484 C 83.462 45.833, 83 46.597, 83 47.181 C 83 47.809, 83.682 47.682, 84.663 46.872 C 85.792 45.940, 86.445 45.854, 86.698 46.605 C 86.902 47.212, 88.173 47.498, 89.521 47.241 C 93.047 46.567, 99.188 47.886, 98.407 49.150 C 98.014 49.787, 98.627 49.735, 99.965 49.019 C 101.178 48.369, 102.433 48.099, 102.752 48.419 C 103.072 48.739, 102.788 49, 102.121 49 C 101.455 49, 102.052 50.142, 103.448 51.539 C 105.543 53.634, 106.341 53.888, 108.014 52.993 C 109.129 52.396, 110.435 52.151, 110.916 52.448 C 111.397 52.745, 112.063 52.279, 112.395 51.412 C 113.250 49.184, 113.182 49, 111.500 49 C 110.675 49, 110 48.127, 110 47.059 C 110 43.980, 107.897 43.485, 105.925 46.100 C 104.209 48.375, 104.089 48.396, 103.382 46.553 C 102.924 45.360, 103.092 44.469, 103.820 44.227 C 105.985 43.505, 105.037 42.143, 101.474 40.854 C 99.402 40.105, 98.144 39.068, 98.423 38.341 C 98.725 37.553, 98.279 37.291, 97.199 37.620 C 96.265 37.905, 96.527 37.521, 97.781 36.767 C 100.064 35.395, 99.898 33.718, 97.569 34.612 C 96.889 34.873, 96.333 34.392, 96.333 33.543 C 96.333 31.648, 96.186 31.644, 100.388 33.648 C 102.289 34.555, 104.667 36.824, 105.672 38.692 C 106.678 40.559, 108.400 42.324, 109.500 42.614 C 112.507 43.407, 117.143 49.987, 116.795 52.969 C 116.633 54.361, 115.975 55.500, 115.333 55.500 C 114.692 55.500, 113.792 55.875, 113.333 56.333 C 112.875 56.792, 112.950 57.076, 113.500 56.965 C 116.205 56.419, 117.637 57.279, 118.968 60.250 C 121.690 66.321, 121.988 70.789, 119.782 72.445 C 118.015 73.771, 116.749 77, 117.996 77 C 119.443 77, 121.063 80.673, 120.389 82.428 C 119.622 84.427, 118 84.476, 118 82.500 C 118 81.675, 117.550 81, 117 81 C 116.450 81, 116 80.325, 116 79.500 C 116 78.675, 115.564 78, 115.031 78 C 114.499 78, 114.322 77.325, 114.638 76.500 C 114.955 75.675, 114.702 75, 114.076 75 C 111.847 75, 111.708 78.107, 113.869 79.620 C 116.101 81.184, 116.709 83, 115 83 C 114.450 83, 114 82.339, 114 81.531 C 114 80.699, 113.407 80.290, 112.631 80.588 C 110.707 81.326, 109.744 76.957, 111.407 75.037 C 113.246 72.914, 112.352 70.463, 110.346 72.128 C 109.544 72.794, 108.966 72.925, 109.062 72.419 C 109.680 69.169, 108.828 56, 108 56 C 107.411 56, 107 59.521, 107 64.563 C 107 72.119, 106.794 73.105, 105.250 72.948 C 101.974 72.615, 99.665 72.998, 100.418 73.750 C 100.831 74.162, 102.369 74.551, 103.835 74.613 C 109.319 74.846, 109.384 74.906, 106.896 77.444 C 100.124 84.351, 100.289 84, 103.825 84 C 105.571 84, 107 84.450, 107 85 C 107 85.550, 105.708 86, 104.128 86 C 101.571 86, 101.188 86.421, 100.643 89.831 C 99.913 94.393, 97.602 96.736, 92.934 97.645 C 91.045 98.013, 89.169 98.806, 88.765 99.407 C 88.261 100.157, 88.026 100.108, 88.015 99.250 C 87.992 97.355, 83.242 97.755, 82.080 99.750 C 81.279 101.125, 81.054 101.179, 81.030 100 C 81.012 99.075, 80.042 98.500, 78.500 98.500 C 75.846 98.500, 75.167 99.497, 77.250 100.338 C 77.938 100.615, 77.487 100.878, 76.250 100.921 C 74.921 100.968, 74 100.410, 74 99.559 C 74 98.766, 73.613 97.879, 73.141 97.587 C 72.668 97.295, 72.406 98.196, 72.559 99.590 C 72.901 102.701, 72.649 102.787, 61.500 103.375 C 56.550 103.636, 52.388 103.883, 52.250 103.925 C 52.112 103.966, 52.004 104.787, 52.008 105.750 C 52.012 106.713, 53.137 108.020, 54.508 108.656 C 55.879 109.292, 57 109.404, 57 108.906 C 57 108.408, 57.788 107.968, 58.750 107.930 C 60.246 107.870, 60.210 107.735, 58.500 107 C 56.592 106.180, 56.603 106.137, 58.750 106.070 C 60.608 106.012, 61 106.533, 61 109.059 C 61 110.844, 61.417 111.861, 62 111.500 C 62.550 111.160, 63 111.359, 63 111.941 C 63 112.523, 62.305 113, 61.455 113 C 60.605 113, 58.784 114.125, 57.409 115.500 C 56.034 116.875, 54.657 118, 54.348 118 C 53.537 118, 49.756 113.150, 47.955 109.800 C 46.258 106.642, 46.508 99.578, 48.278 100.672 C 48.952 101.088, 49.095 100.690, 48.670 99.582 C 48.301 98.622, 47.964 97.086, 47.921 96.168 C 47.872 95.129, 47.652 94.971, 47.338 95.750 C 47.060 96.438, 46.373 97, 45.810 97 C 45.247 97, 45.040 96.339, 45.349 95.532 C 45.659 94.725, 45.516 93.819, 45.032 93.520 C 44.548 93.220, 43.921 93.769, 43.640 94.738 C 43.335 95.789, 43.194 95.482, 43.291 93.976 C 43.481 91.019, 40.674 87.914, 36.525 86.490 C 32.871 85.237, 30.577 78.816, 32.067 74.011 C 32.580 72.355, 33.410 69.679, 33.911 68.065 C 34.616 65.796, 34.528 65.244, 33.522 65.630 C 32.798 65.908, 32.446 66.988, 32.727 68.065 C 33.006 69.129, 32.731 70, 32.117 70 C 31.502 70, 31 70.750, 31 71.667 C 31 72.583, 30.750 73.083, 30.444 72.777 C 30.138 72.471, 30.613 69.422, 31.500 66 C 33.566 58.028, 32.859 57.206, 30.404 64.727 C 29.041 68.904, 28.539 73.264, 28.588 80.500 C 28.667 92.165, 30.633 98.735, 36.935 108.389 C 40.989 114.599, 49.104 123, 51.049 123 C 51.637 123, 51.810 123.498, 51.434 124.107 C 51.058 124.715, 50.469 124.825, 50.125 124.351 C 49.781 123.877, 47.851 122.260, 45.837 120.759 C 43.822 119.258, 41.459 117.316, 40.587 116.444 C 39.678 115.535, 39 115.339, 39 115.987 C 39 116.608, 41.004 119.091, 43.453 121.506 C 47.412 125.409, 47.690 125.964, 45.962 126.512 C 44.893 126.851, 43.494 126.806, 42.854 126.410 C 42.162 125.982, 41.959 126.125, 42.355 126.765 C 42.720 127.356, 42.361 128.496, 41.557 129.300 C 40.753 130.104, 40.314 130.981, 40.582 131.249 C 40.850 131.517, 39.929 131.518, 38.535 131.251 C 35.789 130.727, 35.264 131.820, 37.250 133.925 C 38.259 134.994, 38.211 135.163, 37 134.797 C 36.175 134.547, 35.356 133.366, 35.180 132.172 C 34.828 129.777, 33.056 129.344, 31.200 131.200 C 30.540 131.860, 30 132.030, 30 131.578 C 30 131.125, 29.345 131.299, 28.544 131.964 C 26.559 133.611, 24.495 132.313, 26.074 130.411 C 26.782 129.558, 26.843 129, 26.229 129 C 21.496 129, 28.985 137.762, 39.500 144.525 C 45.626 148.465, 56.626 153.210, 64 155.093 C 72.200 157.187, 91.878 156.872, 100 154.516 C 131.028 145.516, 151.712 121.713, 156.002 90.069 C 157.938 75.787, 155.164 60.691, 147.996 46.500 C 144.261 39.106, 143.008 37.457, 140.975 37.260 L 138.500 37.020 140.826 38.006 C 142.971 38.915, 143.026 39.117, 141.528 40.615 C 139.547 42.596, 140.349 43.785, 142.476 42.020 C 143.430 41.228, 144 41.154, 144 41.821 C 144 42.407, 143 43.587, 141.777 44.443 C 140.555 45.299, 140.132 46, 140.837 46 C 141.541 46, 141.835 46.457, 141.490 47.016 C 141.144 47.575, 140.373 47.731, 139.776 47.362 C 139.171 46.987, 138.975 47.151, 139.334 47.732 C 140.215 49.158, 137.572 51.177, 134.594 51.354 C 132.397 51.485, 132.296 51.668, 133.615 53.126 C 134.912 54.560, 134.904 54.823, 133.543 55.345 C 132.694 55.671, 132 55.515, 132 55 C 132 54.485, 131.325 54.322, 130.500 54.638 C 128.699 55.330, 128.461 53.406, 130.250 52.612 C 130.995 52.282, 130.863 52.147, 129.921 52.279 C 129.053 52.401, 127.127 51.150, 125.640 49.500 L 122.938 46.500 125.469 51.192 C 129.376 58.436, 128.422 59.224, 124.035 52.377 C 118.971 44.471, 111.307 37.766, 102.395 33.445 C 95.678 30.188, 91.717 28.878, 95 31 M 119.635 32.073 C 118.186 33.212, 117 34.647, 117 35.260 C 117 35.873, 118.321 35.108, 119.936 33.561 L 122.873 30.748 123.262 35.124 L 123.651 39.500 123.825 34.750 C 124.020 29.445, 123.444 29.077, 119.635 32.073 M 55.894 34.096 C 52.811 35.769, 48.283 39.019, 45.832 41.319 C 43.381 43.619, 42.567 44.474, 44.025 43.219 C 45.733 41.748, 47.354 41.160, 48.587 41.563 C 50.151 42.074, 50.226 41.993, 49 41.120 C 47.889 40.328, 48.926 40.173, 53 40.521 C 57.943 40.944, 58.162 40.885, 55.156 39.943 L 51.812 38.894 54.656 36.448 C 56.220 35.103, 57.950 33.988, 58.500 33.969 C 59.050 33.951, 60.374 33.276, 61.441 32.468 C 64.653 30.039, 61.859 30.858, 55.894 34.096 M 30.872 33.750 C 29.629 35.336, 29.664 35.371, 31.250 34.128 C 32.212 33.373, 33 32.585, 33 32.378 C 33 31.555, 32.179 32.084, 30.872 33.750 M 136.813 34.683 C 137.534 34.972, 138.397 34.936, 138.729 34.604 C 139.061 34.272, 138.471 34.036, 137.417 34.079 C 136.252 34.127, 136.015 34.364, 136.813 34.683 M 125.635 38.583 C 124.059 39.969, 123.061 41.394, 123.417 41.750 C 123.773 42.106, 125.504 40.958, 127.263 39.199 C 131.040 35.421, 129.774 34.942, 125.635 38.583 M 55 38 C 53.781 38.788, 53.910 38.972, 55.691 38.985 C 56.896 38.993, 58.160 38.550, 58.500 38 C 59.287 36.727, 56.970 36.727, 55 38 M 77.189 38.728 C 78.117 38.945, 79.017 39.790, 79.189 40.605 C 79.439 41.797, 79.824 41.707, 81.155 40.144 C 82.749 38.270, 82.677 38.202, 79.155 38.267 C 77.145 38.304, 76.260 38.511, 77.189 38.728 M 71.768 44.168 C 72.350 44.750, 73.415 45.028, 74.137 44.788 C 74.886 44.538, 74.432 44.085, 73.080 43.731 C 71.417 43.296, 71.026 43.426, 71.768 44.168 M 134.190 46.560 C 133.470 47.376, 132.504 47.812, 132.045 47.528 C 131.585 47.244, 130.914 47.783, 130.552 48.725 C 130.190 49.668, 130.214 50.119, 130.605 49.728 C 130.996 49.337, 131.831 49.445, 132.460 49.967 C 134.163 51.381, 138.229 50.040, 137.557 48.287 C 137.250 47.489, 137 46.423, 137 45.918 C 137 44.567, 135.685 44.867, 134.190 46.560 M 142.756 45.664 C 143.447 45.943, 143.761 46.577, 143.454 47.074 C 143.147 47.571, 143.594 47.709, 144.448 47.382 C 146.772 46.490, 146.317 44.989, 143.750 45.079 C 142.512 45.122, 142.065 45.386, 142.756 45.664 M 146 49 C 144.718 49.828, 144.754 49.972, 146.250 49.985 C 147.213 49.993, 148 49.550, 148 49 C 148 47.780, 147.887 47.780, 146 49 M 76 52 C 76 53.650, 76.450 55, 77 55 C 77.550 55, 78 53.650, 78 52 C 78 50.350, 77.550 49, 77 49 C 76.450 49, 76 50.350, 76 52 M 93.136 52.250 C 93.251 55.002, 93.344 55.117, 93.737 53 C 93.993 51.625, 94.719 50.169, 95.351 49.765 C 96.089 49.293, 95.874 49.025, 94.750 49.015 C 93.412 49.004, 93.032 49.764, 93.136 52.250 M 147 53 C 147 53.550, 147.450 54, 148 54 C 148.550 54, 149 53.550, 149 53 C 149 52.450, 148.550 52, 148 52 C 147.450 52, 147 52.450, 147 53 M 96 54.059 C 96 54.641, 96.450 54.840, 97 54.500 C 97.550 54.160, 98 53.684, 98 53.441 C 98 53.198, 97.550 53, 97 53 C 96.450 53, 96 53.477, 96 54.059 M 130.564 57.293 C 130.940 58.279, 131.499 58.834, 131.807 58.526 C 132.115 58.219, 131.808 57.412, 131.124 56.733 C 130.136 55.753, 130.022 55.868, 130.564 57.293 M 150 60 C 150 60.550, 150.450 61, 151 61 C 151.550 61, 152 60.550, 152 60 C 152 59.450, 151.550 59, 151 59 C 150.450 59, 150 59.450, 150 60 M 82.250 61.781 L 76 62.095 76 68.548 C 76 72.183, 76.437 75, 77 75 C 77.935 75, 78.523 70.397, 78.245 65.250 C 78.137 63.253, 78.595 63.002, 82.312 63.016 C 84.615 63.024, 89.088 63.640, 92.250 64.384 C 97.776 65.685, 99.902 65.042, 96.250 63.176 C 93.680 61.863, 89.299 61.426, 82.250 61.781 M 52.500 63 C 52.840 63.550, 54.666 64, 56.559 64 C 58.452 64, 60 63.550, 60 63 C 60 62.450, 58.173 62, 55.941 62 C 53.490 62, 52.127 62.396, 52.500 63 M 112.345 64.543 C 112.019 65.392, 111.976 66.310, 112.249 66.583 C 112.523 66.856, 112.986 66.161, 113.279 65.040 C 113.903 62.657, 113.210 62.289, 112.345 64.543 M 151 64.059 C 151 64.641, 151.450 64.840, 152 64.500 C 152.550 64.160, 153 63.684, 153 63.441 C 153 63.198, 152.550 63, 152 63 C 151.450 63, 151 63.477, 151 64.059 M 55.813 66.683 C 56.534 66.972, 57.397 66.936, 57.729 66.604 C 58.061 66.272, 57.471 66.036, 56.417 66.079 C 55.252 66.127, 55.015 66.364, 55.813 66.683 M 152 68.059 C 152 68.641, 152.450 68.840, 153 68.500 C 153.550 68.160, 154 67.684, 154 67.441 C 154 67.198, 153.550 67, 153 67 C 152.450 67, 152 67.477, 152 68.059 M 102.750 68.689 C 101.787 68.941, 101.007 69.901, 101.015 70.823 C 101.027 72.125, 101.220 72.201, 101.877 71.165 C 102.343 70.430, 103.112 69.901, 103.587 69.990 C 104.062 70.078, 104.611 69.666, 104.808 69.075 C 105.005 68.484, 105.017 68.052, 104.833 68.116 C 104.650 68.180, 103.713 68.438, 102.750 68.689 M 114.015 68.691 C 114.024 69.136, 114.467 70.175, 115 71 C 115.835 72.293, 115.971 72.266, 115.985 70.809 C 115.993 69.879, 115.550 68.840, 115 68.500 C 114.450 68.160, 114.007 68.246, 114.015 68.691 M 92.627 69.707 C 92.282 70.051, 92 74.308, 92 79.167 L 92 88 88.893 88 C 86.638 88, 85.934 87.615, 86.324 86.597 C 87.295 84.068, 84.562 81.766, 80.425 81.630 L 76.500 81.500 76 89.358 L 75.500 97.216 85.181 96.825 C 96.879 96.354, 99.507 94.819, 98.716 88.921 C 98.451 86.947, 98.737 84.470, 99.350 83.416 C 101.351 79.977, 100.862 77, 98.296 77 C 97.033 77, 96 77.450, 96 78 C 96 78.550, 95.550 79, 95 79 C 94.450 79, 94 77.184, 94 74.965 C 94 71.184, 94.132 71, 96.086 72.046 C 97.233 72.660, 98.400 72.934, 98.679 72.655 C 98.958 72.376, 97.851 71.457, 96.220 70.614 C 94.588 69.770, 92.972 69.362, 92.627 69.707 M 152.500 71 C 152.160 71.550, 152.359 72, 152.941 72 C 153.523 72, 154 71.550, 154 71 C 154 70.450, 153.802 70, 153.559 70 C 153.316 70, 152.840 70.450, 152.500 71 M 81.733 73.124 C 82.412 73.808, 83.219 74.115, 83.526 73.807 C 83.834 73.499, 83.279 72.940, 82.293 72.564 C 80.868 72.022, 80.753 72.136, 81.733 73.124 M 84.865 75.039 C 83.416 76.668, 82.559 78, 82.960 78 C 83.732 78, 86.212 75.351, 87.407 73.250 C 88.538 71.262, 87.704 71.849, 84.865 75.039 M 152.500 75 C 152.160 75.550, 152.359 76, 152.941 76 C 153.523 76, 154 75.550, 154 75 C 154 74.450, 153.802 74, 153.559 74 C 153.316 74, 152.840 74.450, 152.500 75 M 29.232 79 C 29.232 80.925, 29.438 81.713, 29.689 80.750 C 29.941 79.787, 29.941 78.213, 29.689 77.250 C 29.438 76.287, 29.232 77.075, 29.232 79 M 152.500 79 C 152.160 79.550, 152.332 80, 152.882 80 C 153.432 80, 154.160 79.550, 154.500 79 C 154.840 78.450, 154.668 78, 154.118 78 C 153.568 78, 152.840 78.450, 152.500 79 M 131.232 85 C 131.232 86.925, 131.438 87.713, 131.689 86.750 C 131.941 85.787, 131.941 84.213, 131.689 83.250 C 131.438 82.287, 131.232 83.075, 131.232 85 M 152.500 83 C 152.160 83.550, 152.332 84, 152.882 84 C 153.432 84, 154.160 83.550, 154.500 83 C 154.840 82.450, 154.668 82, 154.118 82 C 153.568 82, 152.840 82.450, 152.500 83 M 78 84 C 78 84.550, 78.648 85, 79.441 85 C 80.234 85, 81.160 84.550, 81.500 84 C 81.840 83.450, 81.191 83, 80.059 83 C 78.927 83, 78 83.450, 78 84 M 124 87 C 124 87.550, 124.477 88, 125.059 88 C 125.641 88, 125.840 87.550, 125.500 87 C 125.160 86.450, 124.684 86, 124.441 86 C 124.198 86, 124 86.450, 124 87 M 152.500 87 C 152.160 87.550, 152.332 88, 152.882 88 C 153.432 88, 154.160 87.550, 154.500 87 C 154.840 86.450, 154.668 86, 154.118 86 C 153.568 86, 152.840 86.450, 152.500 87 M 116.638 89.500 C 116.955 90.325, 117.391 91, 117.607 91 C 117.823 91, 118 90.325, 118 89.500 C 118 88.675, 117.564 88, 117.031 88 C 116.499 88, 116.322 88.675, 116.638 89.500 M 130 90.569 C 130 92.250, 125.342 102.694, 124.010 104 C 123.730 104.275, 123.500 105.175, 123.500 106 C 123.500 106.825, 122.975 107.500, 122.333 107.500 C 121.692 107.500, 120.792 107.910, 120.333 108.410 C 119.849 108.939, 120.024 109.019, 120.750 108.601 C 122.961 107.329, 122.093 109.181, 118.320 113.785 C 110.166 123.736, 96.855 129.865, 81 130.968 L 70.500 131.698 79.568 131.849 C 99.996 132.189, 117.495 121.644, 126.805 103.384 C 129.262 98.565, 131.532 90.199, 130.628 89.295 C 130.283 88.949, 130 89.523, 130 90.569 M 152.667 89.667 C 152.300 90.033, 152 90.798, 152 91.367 C 152 91.993, 152.466 91.934, 153.183 91.217 C 153.834 90.566, 154.134 89.801, 153.850 89.517 C 153.566 89.233, 153.033 89.300, 152.667 89.667 M 114 90.378 C 114 90.585, 114.787 91.373, 115.750 92.128 C 117.336 93.371, 117.371 93.336, 116.128 91.750 C 114.821 90.084, 114 89.555, 114 90.378 M 151.500 94 C 151.160 94.550, 151.359 95, 151.941 95 C 152.523 95, 153 94.550, 153 94 C 153 93.450, 152.802 93, 152.559 93 C 152.316 93, 151.840 93.450, 151.500 94 M 118 94.882 C 118 95.432, 118.450 96.160, 119 96.500 C 119.550 96.840, 120 96.668, 120 96.118 C 120 95.568, 119.550 94.840, 119 94.500 C 118.450 94.160, 118 94.332, 118 94.882 M 150.500 98 C 150.160 98.550, 150.332 99, 150.882 99 C 151.432 99, 152.160 98.550, 152.500 98 C 152.840 97.450, 152.668 97, 152.118 97 C 151.568 97, 150.840 97.450, 150.500 98 M 149 102 C 149 102.550, 149.423 103, 149.941 103 C 150.459 103, 151.160 102.550, 151.500 102 C 151.840 101.450, 151.416 101, 150.559 101 C 149.702 101, 149 101.450, 149 102 M 71.390 105.427 C 71.088 106.212, 71.009 107.900, 71.214 109.177 C 71.488 110.886, 71.721 110.509, 72.093 107.750 C 72.616 103.868, 72.339 102.952, 71.390 105.427 M 149 105 C 148.099 105.582, 147.975 105.975, 148.691 105.985 C 149.346 105.993, 150.160 105.550, 150.500 105 C 151.267 103.758, 150.921 103.758, 149 105 M 49 106 C 49 106.550, 49.477 107, 50.059 107 C 50.641 107, 50.840 106.550, 50.500 106 C 50.160 105.450, 49.684 105, 49.441 105 C 49.198 105, 49 105.450, 49 106 M 136.500 106 C 136.160 106.550, 136.610 107, 137.500 107 C 138.390 107, 138.840 106.550, 138.500 106 C 138.160 105.450, 137.710 105, 137.500 105 C 137.290 105, 136.840 105.450, 136.500 106 M 21.310 107.431 C 20.656 108.177, 20.362 109.029, 20.658 109.325 C 21.583 110.250, 24 108.853, 24 107.393 C 24 105.648, 22.862 105.664, 21.310 107.431 M 64.581 107.649 C 64.236 108.549, 64.189 109.522, 64.476 109.810 C 64.764 110.098, 65 109.782, 65 109.108 C 65 108.434, 65.450 108.160, 66 108.500 C 66.550 108.840, 67 108.668, 67 108.118 C 67 106.317, 65.224 105.973, 64.581 107.649 M 87.158 108 C 87.158 109.375, 87.385 109.938, 87.662 109.250 C 87.940 108.563, 87.940 107.438, 87.662 106.750 C 87.385 106.063, 87.158 106.625, 87.158 108 M 147 109 C 145.718 109.828, 145.754 109.972, 147.250 109.985 C 148.213 109.993, 149 109.550, 149 109 C 149 107.780, 148.887 107.780, 147 109 M 145.500 112 C 143.870 112.701, 143.812 112.872, 145.191 112.930 C 146.121 112.968, 147.160 112.550, 147.500 112 C 148.211 110.850, 148.176 110.850, 145.500 112 M 143 116 C 143 116.550, 143.423 117, 143.941 117 C 144.459 117, 145.160 116.550, 145.500 116 C 145.840 115.450, 145.416 115, 144.559 115 C 143.702 115, 143 115.450, 143 116 M 71.510 117.016 C 71.856 117.575, 72.557 117.774, 73.069 117.457 C 74.456 116.600, 74.198 116, 72.441 116 C 71.584 116, 71.165 116.457, 71.510 117.016 M 141.500 119 C 139.592 119.820, 139.603 119.863, 141.750 119.930 C 142.988 119.968, 144 119.550, 144 119 C 144 118.450, 143.887 118.032, 143.750 118.070 C 143.613 118.109, 142.600 118.527, 141.500 119 M 31.158 121 C 31.158 122.375, 31.385 122.938, 31.662 122.250 C 31.940 121.563, 31.940 120.438, 31.662 119.750 C 31.385 119.063, 31.158 119.625, 31.158 121 M 26.750 120.662 C 27.438 120.940, 28.563 120.940, 29.250 120.662 C 29.938 120.385, 29.375 120.158, 28 120.158 C 26.625 120.158, 26.063 120.385, 26.750 120.662 M 139.500 122 C 137.592 122.820, 137.603 122.863, 139.750 122.930 C 140.988 122.968, 142 122.550, 142 122 C 142 121.450, 141.887 121.032, 141.750 121.070 C 141.613 121.109, 140.600 121.527, 139.500 122 M 19.872 124.750 C 18.629 126.336, 18.664 126.371, 20.250 125.128 C 21.212 124.373, 22 123.585, 22 123.378 C 22 122.555, 21.179 123.084, 19.872 124.750 M 34 124.559 C 34 125.416, 34.450 125.840, 35 125.500 C 35.550 125.160, 36 124.459, 36 123.941 C 36 123.423, 35.550 123, 35 123 C 34.450 123, 34 123.702, 34 124.559 M 43.500 125 C 43.840 125.550, 44.568 126, 45.118 126 C 45.668 126, 45.840 125.550, 45.500 125 C 45.160 124.450, 44.432 124, 43.882 124 C 43.332 124, 43.160 124.450, 43.500 125 M 54.603 125.833 C 54.320 126.292, 54.723 126.667, 55.500 126.667 C 56.277 126.667, 56.680 126.292, 56.397 125.833 C 56.114 125.375, 55.710 125, 55.500 125 C 55.290 125, 54.886 125.375, 54.603 125.833 M 136.813 125.683 C 137.534 125.972, 138.397 125.936, 138.729 125.604 C 139.061 125.272, 138.471 125.036, 137.417 125.079 C 136.252 125.127, 136.015 125.364, 136.813 125.683 M 23 127.059 C 23 127.641, 22.550 127.840, 22 127.500 C 20.559 126.610, 20.768 127.563, 22.291 128.827 C 23.267 129.637, 23.618 129.422, 23.729 127.949 C 23.810 126.877, 23.679 126, 23.438 126 C 23.197 126, 23 126.477, 23 127.059 M 36.500 126.945 C 35.400 127.388, 34.163 127.554, 33.750 127.316 C 33.337 127.077, 33 127.407, 33 128.049 C 33 128.805, 33.911 128.988, 35.584 128.568 C 37.259 128.148, 37.942 128.285, 37.525 128.960 C 37.171 129.532, 37.359 130, 37.941 130 C 38.523 130, 39 129.100, 39 128 C 39 126.900, 38.888 126.032, 38.750 126.070 C 38.612 126.109, 37.600 126.503, 36.500 126.945 M 59 128 C 59.825 128.533, 60.950 128.969, 61.500 128.969 C 62.050 128.969, 61.825 128.533, 61 128 C 60.175 127.467, 59.050 127.031, 58.500 127.031 C 57.950 127.031, 58.175 127.467, 59 128 M 135 128 C 133.718 128.828, 133.754 128.972, 135.250 128.985 C 136.213 128.993, 137 128.550, 137 128 C 137 126.780, 136.887 126.780, 135 128 M 67.813 130.683 C 68.534 130.972, 69.397 130.936, 69.729 130.604 C 70.061 130.272, 69.471 130.036, 68.417 130.079 C 67.252 130.127, 67.015 130.364, 67.813 130.683 M 31.490 132.016 C 31.144 132.575, 30.443 132.774, 29.931 132.457 C 29.419 132.141, 29 132.864, 29 134.063 C 29 135.775, 29.289 136.005, 30.342 135.131 C 32.026 133.734, 33.060 134.667, 32.244 136.848 C 31.726 138.231, 31.878 138.295, 33.173 137.244 C 34.120 136.474, 34.535 135.021, 34.244 133.494 C 33.748 130.900, 32.570 130.268, 31.490 132.016 M 41.500 133 C 40.181 133.567, 40.011 133.878, 41 133.914 C 41.825 133.945, 43.175 133.533, 44 133 C 45.828 131.819, 44.249 131.819, 41.500 133 M 46.564 135.707 C 46.022 137.132, 46.136 137.247, 47.124 136.267 C 47.808 135.588, 48.115 134.781, 47.807 134.474 C 47.499 134.166, 46.940 134.721, 46.564 135.707 M 125 136.393 C 125 137.342, 127.993 137.820, 128.527 136.956 C 128.852 136.430, 128.191 136, 127.059 136 C 125.927 136, 125 136.177, 125 136.393 M 35.500 139 C 35.160 139.550, 35.332 140, 35.882 140 C 36.432 140, 37.160 139.550, 37.500 139 C 37.840 138.450, 37.668 138, 37.118 138 C 36.568 138, 35.840 138.450, 35.500 139 M 121.710 140 C 121.423 141.100, 121.595 142, 122.094 142 C 122.592 142, 123 141.100, 123 140 C 123 138.900, 122.827 138, 122.617 138 C 122.406 138, 121.998 138.900, 121.710 140 M 124.500 139 C 124.160 139.550, 124.359 140, 124.941 140 C 125.523 140, 126 139.550, 126 139 C 126 138.450, 125.802 138, 125.559 138 C 125.316 138, 124.840 138.450, 124.500 139 M 38.500 141 C 38.160 141.550, 38.359 142, 38.941 142 C 39.523 142, 40 141.550, 40 141 C 40 140.450, 39.802 140, 39.559 140 C 39.316 140, 38.840 140.450, 38.500 141 M 118.710 142 C 118.423 143.100, 118.595 144, 119.094 144 C 119.592 144, 120 143.100, 120 142 C 120 140.900, 119.827 140, 119.617 140 C 119.406 140, 118.998 140.900, 118.710 142 M 41.500 143 C 41.160 143.550, 41.359 144, 41.941 144 C 42.523 144, 43 143.550, 43 143 C 43 142.450, 42.802 142, 42.559 142 C 42.316 142, 41.840 142.450, 41.500 143 M 115.204 144.045 C 114.532 145.120, 114.389 146, 114.885 146 C 115.782 146, 117.328 142.995, 116.736 142.402 C 116.564 142.231, 115.875 142.970, 115.204 144.045 M 45 145 C 45 145.550, 45.450 146, 46 146 C 46.550 146, 47 145.550, 47 145 C 47 144.450, 46.550 144, 46 144 C 45.450 144, 45 144.450, 45 145 M 48.500 147 C 48.160 147.550, 48.359 148, 48.941 148 C 49.523 148, 50 147.550, 50 147 C 50 146.450, 49.802 146, 49.559 146 C 49.316 146, 48.840 146.450, 48.500 147 M 108.564 147.707 C 108.022 149.132, 108.136 149.247, 109.124 148.267 C 109.808 147.588, 110.115 146.781, 109.807 146.474 C 109.499 146.166, 108.940 146.721, 108.564 147.707 M 52.500 148 C 52.160 148.550, 52.359 149, 52.941 149 C 53.523 149, 54 148.550, 54 148 C 54 147.450, 53.802 147, 53.559 147 C 53.316 147, 52.840 147.450, 52.500 148 M 104.667 148.667 C 104.300 149.033, 104 149.798, 104 150.367 C 104 150.993, 104.466 150.934, 105.183 150.217 C 105.834 149.566, 106.134 148.801, 105.850 148.517 C 105.566 148.232, 105.033 148.300, 104.667 148.667 M 55.500 150 C 55.160 150.550, 55.359 151, 55.941 151 C 56.523 151, 57 150.550, 57 150 C 57 149.450, 56.802 149, 56.559 149 C 56.316 149, 55.840 149.450, 55.500 150 M 101 150.500 C 100.282 151.365, 100.185 152, 100.771 152 C 101.329 152, 102.045 151.325, 102.362 150.500 C 102.678 149.675, 102.781 149, 102.591 149 C 102.401 149, 101.685 149.675, 101 150.500 M 59.500 151 C 59.160 151.550, 59.359 152, 59.941 152 C 60.523 152, 61 151.550, 61 151 C 61 150.450, 60.802 150, 60.559 150 C 60.316 150, 59.840 150.450, 59.500 151 M 97.020 151.476 C 96.231 152.426, 96.155 153, 96.819 153 C 98.027 153, 99.436 151.103, 98.743 150.409 C 98.491 150.158, 97.716 150.638, 97.020 151.476 M 63 152.059 C 63 152.641, 63.450 152.840, 64 152.500 C 64.550 152.160, 65 151.684, 65 151.441 C 65 151.198, 64.550 151, 64 151 C 63.450 151, 63 151.477, 63 152.059 M 67.500 152 C 67.160 152.550, 67.359 153, 67.941 153 C 68.523 153, 69 152.550, 69 152 C 69 151.450, 68.802 151, 68.559 151 C 68.316 151, 67.840 151.450, 67.500 152 M 90.020 152.476 C 89.231 153.426, 89.155 154, 89.819 154 C 91.027 154, 92.436 152.103, 91.743 151.409 C 91.491 151.158, 90.716 151.638, 90.020 152.476 M 93.667 151.667 C 93.300 152.033, 93 152.798, 93 153.367 C 93 153.993, 93.466 153.934, 94.183 153.217 C 94.834 152.566, 95.134 151.801, 94.850 151.517 C 94.566 151.232, 94.033 151.300, 93.667 151.667 M 70.500 153 C 70.160 153.550, 70.332 154, 70.882 154 C 71.432 154, 72.160 153.550, 72.500 153 C 72.840 152.450, 72.668 152, 72.118 152 C 71.568 152, 70.840 152.450, 70.500 153 M 74.500 153 C 74.160 153.550, 74.359 154, 74.941 154 C 75.523 154, 76 153.550, 76 153 C 76 152.450, 75.802 152, 75.559 152 C 75.316 152, 74.840 152.450, 74.500 153 M 78.667 152.667 C 78.300 153.033, 78 153.798, 78 154.367 C 78 154.993, 78.466 154.934, 79.183 154.217 C 79.834 153.566, 80.134 152.801, 79.850 152.517 C 79.566 152.232, 79.033 152.300, 78.667 152.667 M 82.667 152.667 C 82.300 153.033, 82 153.798, 82 154.367 C 82 154.993, 82.466 154.934, 83.183 154.217 C 83.834 153.566, 84.134 152.801, 83.850 152.517 C 83.566 152.232, 83.033 152.300, 82.667 152.667" stroke="none" fill="black" fill-rule="evenodd"/>
	<path fill-opacity="0.112" d="M 114.872 30.750 C 113.629 32.336, 113.664 32.371, 115.250 31.128 C 116.213 30.373, 117 29.585, 117 29.378 C 117 28.555, 116.179 29.084, 114.872 30.750 M 119.405 33.250 L 117.500 35.500 119.750 33.595 C 121.864 31.805, 122.455 31, 121.655 31 C 121.465 31, 120.453 32.013, 119.405 33.250 M 125.924 38.750 L 123.500 41.500 126.250 39.076 C 128.820 36.810, 129.459 36, 128.674 36 C 128.495 36, 127.258 37.237, 125.924 38.750 M 112.053 40.493 C 112.849 41.590, 114.513 43.310, 115.750 44.316 C 116.987 45.322, 118 46.787, 118 47.573 C 118 48.358, 118.429 49, 118.953 49 C 120.039 49, 122.504 54.120, 123.446 58.334 C 123.859 60.180, 123.718 60.944, 123.040 60.525 C 122.468 60.171, 122.005 60.246, 122.012 60.691 C 122.046 62.998, 125.058 72.439, 126.426 74.527 C 127.292 75.849, 127.964 77.958, 127.921 79.215 C 127.878 80.472, 127.614 80.935, 127.336 80.244 C 127.057 79.553, 126.341 79.289, 125.745 79.658 C 125.059 80.082, 124.890 79.728, 125.286 78.696 C 125.631 77.798, 125.540 76.834, 125.085 76.553 C 124.631 76.272, 123.937 74.570, 123.544 72.771 C 122.914 69.882, 122.732 69.733, 121.986 71.500 C 120.712 74.514, 120.827 76.216, 122.250 75.412 C 123.142 74.908, 123.123 75.106, 122.183 76.103 C 121.061 77.293, 120.653 77.212, 119.433 75.559 C 118.645 74.491, 118 74.099, 118 74.686 C 118 75.274, 118.686 76.325, 119.525 77.021 C 121.356 78.541, 121.137 86.121, 119.244 86.752 C 118.560 86.980, 118 86.454, 118 85.583 C 118 84.712, 117.550 84, 117 84 C 115.592 84, 115.757 85.554, 117.302 86.836 C 120.505 89.494, 125.583 84.492, 123.422 80.807 C 123.001 80.088, 123.640 80.363, 124.842 81.418 C 126.308 82.703, 126.823 83.981, 126.407 85.293 C 125.976 86.650, 126.149 87.026, 126.970 86.519 C 127.792 86.011, 128.054 86.593, 127.827 88.425 C 127.647 89.875, 127.100 91.010, 126.612 90.946 C 126.123 90.882, 125.350 91.430, 124.892 92.165 C 124.225 93.237, 123.670 93.258, 122.077 92.270 C 120.613 91.364, 119.909 91.338, 119.392 92.175 C 118.978 92.845, 119.136 93.034, 119.776 92.638 C 120.373 92.269, 121.125 92.394, 121.447 92.915 C 121.769 93.436, 121.467 94.211, 120.776 94.638 C 119.912 95.173, 120.296 95.617, 122.010 96.064 L 124.500 96.713 121.710 97.475 C 118.725 98.290, 115 95.997, 115 93.345 C 115 92.605, 114.550 92, 114 92 C 113.450 92, 113 91.277, 113 90.393 C 113 89.401, 113.554 88.999, 114.449 89.342 C 115.416 89.713, 115.714 89.418, 115.344 88.455 C 115.040 87.661, 114.394 87.256, 113.910 87.555 C 113.426 87.855, 113.254 86.840, 113.528 85.300 C 113.952 82.916, 113.476 82.154, 110.326 80.171 C 107.579 78.443, 106.995 78.298, 108.062 79.609 C 109.349 81.189, 109.310 81.303, 107.698 80.699 C 106.616 80.293, 106.140 80.418, 106.507 81.011 C 106.843 81.555, 108.190 82, 109.500 82 C 112.113 82, 113.625 83.496, 112.016 84.490 C 111.457 84.835, 111 84.693, 111 84.173 C 111 82.888, 104.737 81.992, 103.550 83.107 C 102.981 83.642, 104.186 84.047, 106.550 84.116 C 108.722 84.180, 109.713 84.438, 108.750 84.689 C 107.252 85.081, 107 86.403, 107 93.868 L 107 102.589 100.339 102.835 C 96.676 102.970, 93.301 103.314, 92.839 103.599 C 92.378 103.885, 92 105.614, 92 107.442 C 92 110.226, 91.578 110.847, 89.406 111.263 C 86.930 111.736, 86.830 111.583, 87.183 107.879 C 87.499 104.560, 87.260 103.981, 85.526 103.867 C 83.434 103.729, 78.073 103.757, 76.750 103.912 C 76.338 103.960, 76 105.575, 76 107.500 C 76 110.755, 75.781 111, 72.869 111 C 69.850 111, 69.758 110.876, 70.306 107.500 L 70.874 104 61.187 104.199 C 51.995 104.387, 51.884 104.414, 59 104.730 C 66.969 105.084, 69.238 106.375, 68.285 110.017 C 67.867 111.615, 68.466 112.051, 71.815 112.586 C 75.921 113.243, 76.336 114.374, 73.712 117.762 C 72.457 119.384, 70 117.545, 70 114.985 C 70 113.011, 67.738 111.780, 65.611 112.596 C 64.846 112.889, 64.428 113.919, 64.680 114.884 C 65.295 117.236, 63.230 118.780, 58.443 119.545 C 54.770 120.133, 54.222 119.892, 50.802 116.196 C 48.776 114.007, 47.415 111.918, 47.779 111.555 C 48.142 111.191, 47.608 111.213, 46.592 111.603 C 45.282 112.106, 44.205 111.611, 42.894 109.906 C 41.408 107.973, 41.040 107.837, 41.022 109.215 C 41.010 110.158, 41.900 111.411, 43 112 C 44.100 112.589, 45 113.560, 45 114.158 C 45 114.863, 44.466 114.801, 43.477 113.981 C 42.209 112.929, 42.056 112.983, 42.563 114.303 C 43.342 116.334, 52.248 123.143, 57.719 125.890 C 67.345 130.724, 81.716 132.250, 91.955 129.525 C 104.379 126.218, 117.837 116.810, 119.453 110.301 C 119.835 108.761, 120.974 106.600, 121.983 105.500 C 124.587 102.661, 130 91.646, 130 89.185 C 130 88.048, 129.550 86.840, 129 86.500 C 127.489 85.566, 127.802 84, 129.500 84 C 130.568 84, 130.998 82.920, 130.992 80.250 C 130.965 66.806, 124.921 52.168, 115.801 43.461 C 112.943 40.732, 111.256 39.397, 112.053 40.493 M 135.015 46.750 C 135.007 47.438, 134.235 48, 133.300 48 C 132.060 48, 131.899 48.299, 132.704 49.104 C 134.338 50.738, 137.178 48.896, 135.970 46.986 C 135.340 45.990, 135.026 45.912, 135.015 46.750 M 117.047 50.500 C 117.023 51.986, 118.808 54.526, 119.435 53.898 C 119.735 53.599, 119.323 52.487, 118.521 51.427 C 117.720 50.367, 117.056 49.950, 117.047 50.500 M 93.158 53 C 93.158 54.375, 93.385 54.938, 93.662 54.250 C 93.940 53.563, 93.940 52.438, 93.662 51.750 C 93.385 51.063, 93.158 51.625, 93.158 53 M 149 54.004 C 147.719 54.829, 147.755 54.972, 149.250 54.985 C 151.250 55.002, 151.634 57.577, 149.750 58.338 C 149.003 58.639, 149.205 58.874, 150.250 58.921 C 152.778 59.035, 152.399 60.497, 149.500 61.818 C 147.979 62.511, 147 62.574, 147 61.979 C 147 61.440, 147.477 61, 148.059 61 C 148.641 61, 148.802 60.489, 148.416 59.864 C 147.949 59.109, 147.139 59.489, 146 61 C 144.789 62.605, 144.068 62.919, 143.543 62.069 C 143.115 61.377, 143.584 60.273, 144.650 59.465 C 145.690 58.677, 145.963 58.050, 145.273 58.032 C 144.598 58.014, 143.309 59.125, 142.408 60.500 C 140.612 63.242, 138.431 63.925, 139.382 61.448 C 139.709 60.594, 139.568 60.149, 139.069 60.458 C 138.569 60.766, 137.171 59.777, 135.963 58.260 L 133.766 55.500 134.497 59 C 135.109 61.932, 136.525 65.657, 138.827 70.389 C 139.065 70.878, 138.778 70.981, 138.190 70.618 C 137.552 70.223, 137.182 70.772, 137.273 71.978 C 137.357 73.090, 137.780 74, 138.213 74 C 138.646 74, 139 74.450, 139 75 C 139 75.550, 138.100 76, 137 76 C 135.578 76, 135 75.333, 135 73.695 C 135 71.595, 130.247 56.614, 130.074 58.169 C 130.033 58.537, 130.732 61.687, 131.627 65.169 C 134.665 76.993, 131.736 97.945, 125.897 106.144 C 124.854 107.610, 124 109.206, 124 109.692 C 124 111.740, 109.871 123.765, 103.939 126.765 C 95.239 131.166, 84.441 133.360, 75.500 132.544 C 63.579 131.457, 62.894 131.283, 54.904 127.311 C 50.625 125.185, 47.601 124.020, 48.184 124.721 C 48.766 125.423, 52.840 127.798, 57.237 129.999 C 61.634 132.199, 64.418 134, 63.425 134 C 61.742 134, 61.751 134.103, 63.559 135.502 C 65.368 136.903, 65.374 136.961, 63.634 136.351 C 62.004 135.780, 61.909 135.961, 62.884 137.783 C 63.498 138.930, 63.982 140.236, 63.960 140.684 C 63.938 141.133, 63.245 140.256, 62.421 138.736 C 61.142 136.379, 60.623 136.131, 58.897 137.055 C 57.467 137.820, 56.496 137.827, 55.593 137.077 C 54.632 136.279, 54.017 136.667, 53.120 138.637 C 52.463 140.079, 51.681 141.014, 51.382 140.715 C 51.083 140.416, 51.324 139.263, 51.918 138.153 C 52.825 136.458, 52.650 136.024, 50.825 135.445 C 47.810 134.488, 45.431 137.574, 47.551 139.693 C 48.348 140.491, 49 141.464, 49 141.857 C 49 142.250, 49.788 142.631, 50.750 142.703 C 53.724 142.927, 55.908 143.571, 56.721 144.465 C 57.150 144.936, 56.863 144.951, 56.080 144.496 C 55.066 143.908, 54.820 144.088, 55.219 145.128 C 55.526 145.929, 55.151 147.441, 54.385 148.488 C 53.284 149.994, 52.736 150.136, 51.764 149.164 C 50.791 148.191, 50.987 147.816, 52.698 147.369 C 54.025 147.022, 54.654 146.263, 54.326 145.407 C 54.031 144.640, 53.426 144.237, 52.981 144.512 C 52.535 144.787, 51.981 144.672, 51.749 144.256 C 51.517 143.840, 51.452 144.030, 51.604 144.677 C 51.934 146.077, 49.222 148.555, 48.333 147.667 C 47.993 147.327, 48.293 146.352, 48.999 145.501 C 50.080 144.198, 50.024 144.054, 48.641 144.584 C 47.739 144.931, 47 145.602, 47 146.076 C 47 146.549, 46.353 146.689, 45.563 146.386 C 44.730 146.066, 44.372 145.134, 44.710 144.167 C 45.168 142.861, 45.020 142.754, 44.025 143.672 C 42.197 145.360, 39.581 144.209, 41.097 142.383 C 41.933 141.376, 41.940 141, 41.122 141 C 40.505 141, 40 141.436, 40 141.969 C 40 142.501, 39.353 142.689, 38.563 142.386 C 37.761 142.078, 37.361 141.099, 37.657 140.167 C 38.112 138.740, 38.035 138.716, 37.121 140 C 35.752 141.922, 38.048 143.805, 47.500 148.514 C 72.424 160.932, 103.630 158.156, 125.711 141.558 C 144.159 127.690, 154.572 107.867, 155.681 84.500 C 156.415 69.036, 152.612 51.678, 149 54.004 M 138.733 57.124 C 139.412 57.808, 140.219 58.115, 140.526 57.807 C 140.834 57.499, 140.279 56.940, 139.293 56.564 C 137.868 56.022, 137.753 56.136, 138.733 57.124 M 107.607 58.582 C 107.273 59.452, 107 63.023, 107 66.518 L 107 72.873 103.750 73.277 C 100.933 73.626, 101.066 73.701, 104.750 73.840 L 109 74 109 65.500 C 109 56.969, 108.734 55.646, 107.607 58.582 M 136 61.218 C 136 62.133, 136.457 63.165, 137.016 63.510 C 137.575 63.856, 137.815 64.491, 137.548 64.922 C 137.282 65.353, 137.725 66.559, 138.533 67.603 C 139.961 69.448, 140.057 69.435, 142.001 67.139 C 144.354 64.360, 144.546 63, 142.583 63 C 141.804 63, 140.691 64.237, 140.109 65.750 C 139.429 67.518, 139.125 67.786, 139.258 66.500 C 139.372 65.400, 138.686 63.387, 137.733 62.027 C 136.441 60.184, 136 59.978, 136 61.218 M 54 62.387 C 54 62.599, 55.350 62.971, 57 63.213 C 58.650 63.455, 60 63.282, 60 62.827 C 60 62.372, 58.650 62, 57 62 C 55.350 62, 54 62.174, 54 62.387 M 77.006 62.750 C 77.009 63.163, 81.268 63.517, 86.471 63.537 C 91.673 63.558, 95.383 63.227, 94.715 62.803 C 93.149 61.808, 76.998 61.760, 77.006 62.750 M 150 63 C 148.625 63.440, 148.137 63.845, 148.917 63.900 C 149.696 63.955, 150.044 64.289, 149.691 64.643 C 149.337 64.996, 148.436 64.776, 147.687 64.155 C 146.623 63.272, 146.034 63.569, 144.993 65.512 C 144.261 66.881, 143.302 68, 142.862 68 C 142.423 68, 142.350 68.749, 142.701 69.664 C 143.112 70.735, 142.947 71.086, 142.239 70.648 C 141.634 70.274, 140.890 70.369, 140.587 70.860 C 139.919 71.941, 145.804 71.561, 146.798 70.459 C 147.184 70.031, 146.713 69.964, 145.750 70.309 C 144.787 70.655, 144 70.533, 144 70.040 C 144 68.400, 146.940 66.172, 149.990 65.502 C 151.645 65.139, 153 64.202, 153 63.421 C 153 62.639, 152.887 62.045, 152.750 62.100 C 152.613 62.155, 151.375 62.560, 150 63 M 77.079 66.583 C 77.127 67.748, 77.364 67.985, 77.683 67.188 C 77.972 66.466, 77.936 65.603, 77.604 65.271 C 77.272 64.939, 77.036 65.529, 77.079 66.583 M 151.244 66.664 C 149.668 67.300, 150.626 69, 152.559 69 C 153.352 69, 154 68.325, 154 67.500 C 154 65.958, 153.427 65.784, 151.244 66.664 M 92.940 72.083 C 92.906 73.412, 92.794 77.650, 92.690 81.500 L 92.500 88.500 88.182 88.811 C 84.055 89.108, 83.915 89.028, 85.002 86.997 C 85.860 85.393, 85.846 84.520, 84.947 83.436 C 83.691 81.923, 77 81.410, 77 82.827 C 77 83.282, 78.414 83.446, 80.142 83.192 C 82.195 82.891, 83.057 83.098, 82.630 83.790 C 82.270 84.372, 82.754 84.999, 83.705 85.182 C 85.296 85.488, 85.305 85.634, 83.815 87.007 C 82.340 88.367, 82.476 88.658, 85.348 90.281 L 88.500 92.061 85.125 91.424 C 82.780 90.981, 81.959 91.124, 82.434 91.893 C 82.810 92.502, 84.516 93, 86.226 93 C 90.337 93, 89.485 93.599, 84.465 94.238 L 80.431 94.752 80.835 91.126 C 81.317 86.810, 80.095 87.520, 78.986 92.199 C 78.277 95.197, 78.195 95.017, 78.102 90.250 C 77.961 83.014, 76.539 83.631, 76.169 91.088 C 75.873 97.055, 75.914 97.162, 78.184 96.429 C 79.458 96.018, 83.579 95.714, 87.341 95.753 C 94.621 95.829, 98.361 94.105, 97.242 91.189 C 96.862 90.198, 97.066 89.923, 97.830 90.395 C 98.474 90.793, 99 90.690, 99 90.166 C 99 89.642, 98.330 88.957, 97.512 88.643 C 96.694 88.329, 96.131 88.562, 96.262 89.161 C 96.393 89.760, 96.019 90.429, 95.431 90.648 C 94.725 90.911, 94.275 87.555, 94.108 80.784 C 93.968 75.139, 93.662 70.329, 93.427 70.094 C 93.192 69.859, 92.973 70.754, 92.940 72.083 M 152.114 70.929 C 151.255 71.461, 151.152 71.976, 151.824 72.391 C 152.395 72.744, 153.163 72.545, 153.531 71.950 C 154.449 70.464, 153.719 69.938, 152.114 70.929 M 140.750 73.662 C 141.438 73.940, 142.563 73.940, 143.250 73.662 C 143.938 73.385, 143.375 73.158, 142 73.158 C 140.625 73.158, 140.063 73.385, 140.750 73.662 M 152.667 74.667 C 151.452 75.881, 151.976 76.947, 153.500 76.362 C 154.325 76.045, 155 75.384, 155 74.893 C 155 73.845, 153.622 73.711, 152.667 74.667 M 141 77 C 141 78.187, 142.737 78.187, 145.500 77 C 147.176 76.280, 146.974 76.129, 144.250 76.070 C 142.463 76.032, 141 76.450, 141 77 M 153 78.500 C 151.980 79.729, 152.049 80, 153.378 80 C 154.270 80, 155 79.325, 155 78.500 C 155 77.675, 154.830 77, 154.622 77 C 154.415 77, 153.685 77.675, 153 78.500 M 144.813 80.683 C 145.534 80.972, 146.397 80.936, 146.729 80.604 C 147.061 80.272, 146.471 80.036, 145.417 80.079 C 144.252 80.127, 144.015 80.364, 144.813 80.683 M 153.250 81.662 C 151.509 82.365, 151.684 84, 153.500 84 C 154.325 84, 155 83.325, 155 82.500 C 155 81.675, 154.887 81.036, 154.750 81.079 C 154.613 81.122, 153.938 81.385, 153.250 81.662 M 141.750 84.662 C 142.438 84.940, 143.563 84.940, 144.250 84.662 C 144.938 84.385, 144.375 84.158, 143 84.158 C 141.625 84.158, 141.063 84.385, 141.750 84.662 M 152.459 86.067 C 152.096 86.653, 152.040 87.373, 152.333 87.667 C 153.050 88.383, 155 87.121, 155 85.941 C 155 84.663, 153.274 84.748, 152.459 86.067 M 141.146 89.689 C 140.055 90.857, 140.296 90.969, 142.675 90.397 C 146.297 89.527, 146.466 89.355, 144.260 88.778 C 143.260 88.517, 141.858 88.926, 141.146 89.689 M 152 90.026 C 150.747 90.839, 150.726 91.146, 151.870 91.883 C 152.978 92.597, 152.884 92.966, 151.378 93.808 C 150.354 94.381, 149.861 95.194, 150.282 95.615 C 151.509 96.842, 154.205 93.457, 153.836 91.154 C 153.579 89.544, 153.148 89.280, 152 90.026 M 89.813 91.683 C 90.534 91.972, 91.397 91.936, 91.729 91.604 C 92.061 91.272, 91.471 91.036, 90.417 91.079 C 89.252 91.127, 89.015 91.364, 89.813 91.683 M 94.813 92.683 C 95.534 92.972, 96.397 92.936, 96.729 92.604 C 97.061 92.272, 96.471 92.036, 95.417 92.079 C 94.252 92.127, 94.015 92.364, 94.813 92.683 M 139.500 96 C 139.160 96.550, 139.332 97, 139.882 97 C 140.432 97, 141.160 96.550, 141.500 96 C 141.840 95.450, 141.668 95, 141.118 95 C 140.568 95, 139.840 95.450, 139.500 96 M 150.441 97.468 C 148.549 98.900, 148.556 98.937, 150.750 98.968 C 152.097 98.987, 153 98.398, 153 97.500 C 153 95.647, 152.852 95.645, 150.441 97.468 M 102.269 100.693 C 103.242 100.947, 104.592 100.930, 105.269 100.656 C 105.946 100.382, 105.150 100.175, 103.500 100.195 C 101.850 100.215, 101.296 100.439, 102.269 100.693 M 149.427 101.479 C 147.735 102.759, 147.706 102.940, 149.191 102.968 C 150.121 102.986, 151.179 102.520, 151.541 101.933 C 152.630 100.171, 151.482 99.924, 149.427 101.479 M 148.122 104.904 C 147.309 105.418, 147.069 106.302, 147.536 107.058 C 148.095 107.963, 147.854 108.158, 146.715 107.721 C 145.582 107.286, 145.267 107.533, 145.658 108.551 C 146.543 110.858, 149.326 110.356, 148.710 108 C 148.370 106.700, 148.680 106, 149.594 106 C 150.367 106, 151 105.550, 151 105 C 151 103.778, 149.955 103.743, 148.122 104.904 M 136.459 106.067 C 136.096 106.653, 136.040 107.373, 136.333 107.667 C 137.050 108.383, 139 107.121, 139 105.941 C 139 104.663, 137.274 104.748, 136.459 106.067 M 43 107 C 43 107.550, 43.477 108, 44.059 108 C 44.641 108, 44.840 107.550, 44.500 107 C 44.160 106.450, 43.684 106, 43.441 106 C 43.198 106, 43 106.450, 43 107 M 21.500 108 C 21.160 108.550, 21.610 109, 22.500 109 C 23.390 109, 23.840 108.550, 23.500 108 C 23.160 107.450, 22.710 107, 22.500 107 C 22.290 107, 21.840 107.450, 21.500 108 M 145.677 111.772 C 144.593 112.011, 144.073 112.748, 144.395 113.587 C 144.704 114.392, 144.331 115, 143.528 115 C 142.752 115, 141.840 115.450, 141.500 116 C 141.156 116.557, 141.905 116.997, 143.191 116.992 C 144.712 116.987, 145.923 116.074, 146.740 114.315 C 148.155 111.266, 148.139 111.227, 145.677 111.772 M 129.500 117 C 129.160 117.550, 129.359 118, 129.941 118 C 130.523 118, 131 117.550, 131 117 C 131 116.450, 130.802 116, 130.559 116 C 130.316 116, 129.840 116.450, 129.500 117 M 132.733 117.124 C 133.412 117.808, 134.219 118.115, 134.526 117.807 C 134.834 117.499, 134.279 116.940, 133.293 116.564 C 131.868 116.022, 131.753 116.136, 132.733 117.124 M 141.137 118.894 C 139.986 119.623, 139.986 119.844, 141.137 120.312 C 142.068 120.690, 141.787 121.082, 140.250 121.549 C 139.012 121.925, 138 122.856, 138 123.617 C 138 124.377, 137.550 125, 137 125 C 136.450 125, 136 125.695, 136 126.544 C 136 127.459, 135.288 127.968, 134.250 127.794 C 133.053 127.593, 132.594 128.058, 132.797 129.266 C 132.961 130.237, 132.736 130.971, 132.297 130.897 C 131.859 130.824, 130.825 130.848, 130 130.952 C 128.946 131.084, 129.095 131.376, 130.500 131.932 C 133.115 132.967, 135.259 132.117, 134.569 130.319 C 134.269 129.536, 134.417 129.140, 134.898 129.437 C 136.077 130.166, 138.178 127.531, 137.241 126.498 C 136.834 126.048, 137.008 125.969, 137.628 126.323 C 138.573 126.863, 144 120.218, 144 118.521 C 144 117.745, 142.679 117.917, 141.137 118.894 M 127 120 C 126.175 120.533, 125.950 120.969, 126.500 120.969 C 127.050 120.969, 128.175 120.533, 129 120 C 129.825 119.467, 130.050 119.031, 129.500 119.031 C 128.950 119.031, 127.825 119.467, 127 120 M 118.333 121.456 C 118.333 122.257, 118.716 122.676, 119.183 122.387 C 119.650 122.098, 119.774 121.443, 119.457 120.931 C 118.649 119.623, 118.333 119.770, 118.333 121.456 M 122.500 125.056 C 118.556 128.924, 120.172 128.878, 124.304 125.005 C 126.062 123.357, 127.050 122.033, 126.500 122.062 C 125.950 122.091, 124.150 123.438, 122.500 125.056 M 128.500 124 C 128.160 124.550, 128.332 125, 128.882 125 C 129.432 125, 130.160 124.550, 130.500 124 C 130.840 123.450, 130.668 123, 130.118 123 C 129.568 123, 128.840 123.450, 128.500 124 M 109.507 126.989 C 109.157 127.555, 109.558 127.723, 110.448 127.382 C 112.180 126.717, 112.497 126, 111.059 126 C 110.541 126, 109.843 126.445, 109.507 126.989 M 125.211 127.601 C 124.501 128.370, 124.362 129, 124.902 129 C 125.940 129, 127.443 127.098, 126.850 126.534 C 126.658 126.351, 125.920 126.831, 125.211 127.601 M 115 131 C 115 131.550, 115.477 132, 116.059 132 C 116.641 132, 116.840 131.550, 116.500 131 C 116.160 130.450, 115.684 130, 115.441 130 C 115.198 130, 115 130.450, 115 131 M 112 133.031 C 112 133.564, 112.675 134, 113.500 134 C 114.325 134, 115 133.823, 115 133.607 C 115 133.391, 114.325 132.955, 113.500 132.638 C 112.675 132.322, 112 132.499, 112 133.031 M 128 134.500 C 128 135.466, 127.021 136.005, 125.250 136.015 C 123.107 136.027, 122.831 136.245, 124 137 C 125.282 137.828, 125.246 137.972, 123.750 137.985 C 122.787 137.993, 122 138.450, 122 139 C 122 139.550, 121.394 140, 120.653 140 C 119.912 140, 118.817 141.012, 118.220 142.250 C 117.624 143.488, 117.105 143.938, 117.068 143.250 C 116.972 141.480, 115 141.689, 115 143.469 C 115 144.302, 114.407 144.710, 113.629 144.411 C 112.194 143.860, 110.468 146.841, 111.613 147.893 C 111.977 148.227, 112.475 147.938, 112.720 147.250 C 112.966 146.563, 113.670 146, 114.285 146 C 116.293 146, 126 139.611, 126 138.289 C 126 137.580, 126.338 137.095, 126.750 137.212 C 127.763 137.498, 132 134.712, 132 133.759 C 132 133.342, 131.100 133, 130 133 C 128.889 133, 128 133.667, 128 134.500 M 66.813 134.683 C 67.534 134.972, 68.397 134.936, 68.729 134.604 C 69.061 134.272, 68.471 134.036, 67.417 134.079 C 66.252 134.127, 66.015 134.364, 66.813 134.683 M 105.750 136.162 C 104.237 136.715, 103 137.669, 103 138.283 C 103 139.059, 103.366 139.034, 104.200 138.200 C 104.860 137.540, 106.183 137, 107.141 137 C 108.099 137, 109.160 136.550, 109.500 136 C 110.244 134.795, 109.391 134.832, 105.750 136.162 M 48.500 137 C 48.160 137.550, 48.190 138.498, 48.566 139.107 C 49.238 140.194, 50.948 138.528, 50.985 136.750 C 51.007 135.654, 49.221 135.834, 48.500 137 M 66.389 139.446 C 66.278 142.493, 66.281 142.494, 67.361 140 C 67.957 138.625, 68.901 137.182, 69.460 136.794 C 70.018 136.406, 69.580 136.157, 68.487 136.240 C 66.999 136.354, 66.472 137.158, 66.389 139.446 M 32.500 139 C 33.495 140.100, 34.535 141, 34.810 141 C 35.085 141, 34.495 140.100, 33.500 139 C 32.505 137.900, 31.465 137, 31.190 137 C 30.915 137, 31.505 137.900, 32.500 139 M 58.607 139.582 C 57.513 142.433, 57.971 143.421, 59.468 141.441 C 60.276 140.374, 60.951 139.162, 60.968 138.750 C 61.027 137.353, 59.218 137.990, 58.607 139.582 M 98.750 138.689 C 97.787 138.941, 97.007 139.901, 97.015 140.823 C 97.025 141.858, 97.312 142.084, 97.765 141.415 C 98.169 140.818, 99.400 139.819, 100.500 139.195 C 102.532 138.043, 101.911 137.863, 98.750 138.689 M 107.481 138.862 C 107.940 139.668, 107.694 140.580, 106.878 141.096 C 105.972 141.670, 105.908 141.975, 106.691 141.985 C 108.563 142.009, 109.355 139.945, 107.966 138.663 C 106.992 137.763, 106.882 137.808, 107.481 138.862 M 54.667 139.667 C 53.516 140.817, 53.938 142, 55.500 142 C 56.325 142, 57 141.325, 57 140.500 C 57 138.938, 55.817 138.516, 54.667 139.667 M 84 142.101 C 81.610 142.770, 81.632 142.802, 84.500 142.830 C 86.150 142.846, 88.400 142.471, 89.500 141.995 C 91.300 141.218, 91.250 141.145, 89 141.267 C 87.625 141.341, 85.375 141.717, 84 142.101 M 60.241 142.441 C 60.649 142.922, 60.424 144.032, 59.741 144.908 C 58.620 146.346, 58.685 146.355, 60.404 145 C 61.451 144.175, 62.564 143.646, 62.879 143.825 C 63.193 144.004, 63.540 143.655, 63.650 143.050 C 63.785 142.305, 63.681 142.295, 63.328 143.017 C 62.972 143.744, 62.279 143.682, 61.153 142.825 C 60.244 142.132, 59.834 141.960, 60.241 142.441 M 72 144 C 71.411 145.100, 71.170 146, 71.465 146 C 71.759 146, 72.900 145.100, 74 144 C 75.513 142.487, 75.643 142, 74.535 142 C 73.730 142, 72.589 142.900, 72 144 M 77.625 142.798 C 77.354 143.237, 77.545 144.249, 78.051 145.048 C 78.823 146.268, 78.972 146.234, 78.985 144.833 C 78.993 143.917, 79.563 142.940, 80.250 142.662 C 81.020 142.352, 80.850 142.128, 79.809 142.079 C 78.879 142.036, 77.896 142.359, 77.625 142.798 M 92.750 142.662 C 93.438 142.940, 94.563 142.940, 95.250 142.662 C 95.938 142.385, 95.375 142.158, 94 142.158 C 92.625 142.158, 92.063 142.385, 92.750 142.662 M 81.813 144.683 C 82.534 144.972, 83.397 144.936, 83.729 144.604 C 84.061 144.272, 83.471 144.036, 82.417 144.079 C 81.252 144.127, 81.015 144.364, 81.813 144.683 M 107.721 146.716 C 108.042 147.552, 107.689 147.818, 106.740 147.454 C 105.880 147.124, 104.984 147.599, 104.606 148.586 C 103.794 150.701, 104.818 151.912, 105.916 150.136 C 106.360 149.417, 107.011 148.868, 107.362 148.915 C 109.266 149.169, 109.813 148.823, 110.271 147.071 C 110.637 145.672, 110.287 145.178, 108.998 145.275 C 107.974 145.352, 107.433 145.964, 107.721 146.716 M 55.459 149.067 C 55.096 149.653, 55.040 150.373, 55.333 150.667 C 56.050 151.383, 58 150.121, 58 148.941 C 58 147.663, 56.274 147.748, 55.459 149.067 M 101.046 149.914 C 100.272 151.361, 100.257 152, 100.996 152 C 102.209 152, 103.529 149.195, 102.705 148.371 C 102.406 148.073, 101.660 148.767, 101.046 149.914 M 59 150.500 C 57.980 151.729, 58.049 152, 59.378 152 C 60.270 152, 61 151.325, 61 150.500 C 61 149.675, 60.830 149, 60.622 149 C 60.415 149, 59.685 149.675, 59 150.500 M 97.232 151 C 96.208 152.640, 96.233 153, 97.375 153 C 98.140 153, 99.002 152.100, 99.290 151 C 99.577 149.900, 99.513 149, 99.147 149 C 98.781 149, 97.919 149.900, 97.232 151 M 63 151.500 C 61.980 152.729, 62.049 153, 63.378 153 C 64.270 153, 65 152.325, 65 151.500 C 65 150.675, 64.830 150, 64.622 150 C 64.415 150, 63.685 150.675, 63 151.500 M 93.583 151.643 C 92.746 153.825, 93.858 154.839, 95.039 152.971 C 96.222 151.101, 96.247 150, 95.107 150 C 94.616 150, 93.930 150.739, 93.583 151.643 M 66.459 152.067 C 66.096 152.653, 66.040 153.373, 66.333 153.667 C 67.050 154.383, 69 153.121, 69 151.941 C 69 150.663, 67.274 150.748, 66.459 152.067 M 70.606 152.584 C 70.233 153.557, 70.456 154.015, 71.187 153.771 C 72.682 153.273, 73.505 151, 72.190 151 C 71.653 151, 70.941 151.713, 70.606 152.584 M 86.200 152.200 C 84.754 153.646, 84.640 155, 85.965 155 C 86.495 155, 87.411 154.100, 88 153 C 89.179 150.797, 88.088 150.312, 86.200 152.200 M 89.606 152.584 C 89.233 153.557, 89.456 154.015, 90.187 153.771 C 91.682 153.273, 92.505 151, 91.190 151 C 90.653 151, 89.941 151.713, 89.606 152.584 M 74.250 152.662 C 72.560 153.344, 72.661 155, 74.393 155 C 75.159 155, 76.045 154.325, 76.362 153.500 C 76.950 151.967, 76.458 151.771, 74.250 152.662 M 78 153.500 C 76.987 154.721, 77.037 155, 78.271 155 C 79.104 155, 80.045 154.325, 80.362 153.500 C 80.678 152.675, 80.556 152, 80.091 152 C 79.626 152, 78.685 152.675, 78 153.500 M 81.638 153.500 C 81.288 154.414, 81.637 155, 82.531 155 C 83.339 155, 84 154.325, 84 153.500 C 84 152.675, 83.598 152, 83.107 152 C 82.616 152, 81.955 152.675, 81.638 153.500" stroke="none" fill="black" fill-rule="evenodd"/>
</svg>