<?xml version="1.0"?><svg xmlns="http://www.w3.org/2000/svg" width="36" height="36" shape-rendering="geometricPrecision" text-rendering="geometricPrecision" image-rendering="optimizeQuality" fill-rule="evenodd" clip-rule="evenodd" viewBox="0 0 36 36"><path fill="#b85200" d="m15.7-0.1h4.5c8.7 1.8 14 7 15.7 15.8v4.5c-1.7 8.7-7 14-15.7 15.7h-4.5c-8.8-1.7-14-7-15.8-15.7v-4.5c1.8-8.8 7-14 15.8-15.8z" opacity=".706"></path><path fill="#feeb80" d="m19.5 1.6c4.3 0.5 7.9 2.3 10.9 5.5 0.6 0.7 1 1.4 1.5 2.3-0.2-0.3-0.4-0.2-0.4 0.1-0.1-0.1-0.1-0.1-0.2-0.1-0.9 0.2-1.7 0.5-2.5 0.9-0.1-0.1-0.2-0.1-0.3-0.1-2-2.7-4.5-4.4-7.8-5.2-0.4-0.2-0.9-0.3-1.4-0.4-1-0.1-2.1-0.1-3.1 0.1-5.6 1-9.3 4.2-11.1 9.6-0.1 0.7-0.2 1.4-0.4 2.1-0.1 0.8-0.2 1.6-0.2 2.5 0-0.3-0.1-0.6-0.2-0.8l-2.4 0.8c-0.1 0.3-0.2 0.6-0.3 0.9 0-1.6 0-3.2 0.2-4.8 1.2-5.8 4.5-9.9 9.8-12.3 0.8-0.4 1.7-0.6 2.5-0.8 0.4 0 0.7 0 1 0.1 0.2 0 0.2-0.1 0-0.2 1.5-0.2 2.9-0.2 4.4-0.2z"></path><path fill="#eec762" d="m19.5 1.6c-1.5 0-2.9 0-4.4 0.2 0.2 0.1 0.2 0.2 0 0.2-0.3-0.1-0.6-0.1-1-0.1 0.5-0.1 0.9-0.2 1.4-0.4 1.4-0.1 2.7 0 4 0.1z"></path><path fill="#f9d461" d="m16.2 4.7c1-0.2 2.1-0.2 3.1-0.1 0.5 0.1 1 0.2 1.4 0.4h-0.1c-1.4-0.2-2.9-0.3-4.4-0.3z"></path><path fill="#e89915" d="m16.2 4.7c1.5 0 3 0.1 4.4 0.3-0.8 0.1-1 0.6-0.7 1.4-7.3-0.6-12.1 2.5-14.7 9.3-0.2 0.7-0.4 1.4-0.5 2.1v-1.4c0.2-0.7 0.3-1.4 0.4-2.1 1.8-5.4 5.5-8.6 11.1-9.6z"></path><path fill="#e89f16" d="m20.6 5h0.1c3.3 0.8 5.8 2.5 7.8 5.2 0.6 0.7 1 1.5 1.4 2.4 0.2 0.7 0.4 1.3 0.7 2 0 0.3 0 0.6 0.1 0.9 0.1 0.9 0.2 1.8 0.2 2.7-0.5-4.1-2.4-7.3-5.8-9.7-1.6-1-3.3-1.7-5.2-2v-0.1c-0.3-0.8-0.1-1.3 0.7-1.4z"></path><path fill="#feb100" d="m19.9 6.4v0.1c-0.9-0.1-1.9-0.1-2.8 0l1.3 0.1c-0.2 0.6-0.5 1.1-0.8 1.6l0.2 0.1c-0.2 0.5-0.5 1-0.7 1.5l-1.1 0.2c0.2 0.1 0.4 0.1 0.7 0.1-0.9 0.1-1.7 0.1-2.6 0.1 0.1-0.4 0-0.8-0.4-1.1-1.3-0.2-2.2 0.3-2.6 1.7-0.1 1.3 0.1 2.6 0.7 3.8l0.1 0.9c-0.2 3.2-0.2 6.4-0.1 9.6 0.2 0.4 0.3 0.8 0.4 1.3-0.1 0-0.2-0.1-0.2-0.2-0.3 1-0.7 1.9-1.1 2.7-3.3-2-5.3-5-6-8.9-0.1-0.7-0.2-1.5-0.2-2.2 0.1-0.7 0.3-1.4 0.5-2.1 2.6-6.8 7.4-9.9 14.7-9.3z"></path><path fill="#feb800" d="m19.9 6.5c1.9 0.3 3.6 1 5.2 2-0.1 0-0.2 0-0.3 0.1l1.3 1c-0.2 0.3-0.3 0.7-0.4 1-0.7-0.5-1.4-0.8-2.1-0.9-2.3 0-4.6 0.1-6.9 0.4-0.3 0-0.5 0-0.7-0.1l1.1-0.2c0.2-0.5 0.5-1 0.7-1.5l-0.2-0.1c0.3-0.5 0.6-1 0.8-1.6l-1.3-0.1c0.9-0.1 1.9-0.1 2.8 0z"></path><path fill="#d57c07" d="m16.7 10.1c2.3-0.3 4.6-0.4 6.9-0.4 0.7 0.1 1.4 0.4 2.1 0.9 0.8 1 1 2.1 0.6 3.4-0.4 0.8-1 1.2-1.9 1.3-1.8 0-3.7 0-5.5 0.1v0.7c1.6-0.1 3.2 0 4.8 0.4 1.8 0.7 2.5 2.1 2 4-0.3 0.8-0.9 1.3-1.7 1.5-0.8-0.1-1.5-0.2-2.3-0.1-1-0.3-2-0.4-3.1-0.3 0.2 1.4 0.3 2.9 0.2 4.3-0.3 1.2-1.1 1.9-2.3 2.1-1.1 0.1-2.3 0-3.4-0.4-0.4-0.4-0.7-0.8-0.9-1.2-0.1-0.5-0.2-0.9-0.4-1.3-0.1-3.2-0.1-6.4 0.1-9.6l-0.1-0.9c-0.6-1.2-0.8-2.5-0.7-3.8 0.4-1.4 1.3-1.9 2.6-1.7 0.4 0.3 0.5 0.7 0.4 1.1 0.9 0 1.7 0 2.6-0.1z"></path><path fill="#febe01" d="m25.1 8.5c3.4 2.4 5.3 5.6 5.8 9.7v1c-0.2 0.5-0.3 1-0.3 1.5-1.5 5.5-4.9 8.8-10.4 10 0.1-0.1 0.2-0.2 0.4-0.2h-1.4c0.9-2.8 1.8-5.6 2.8-8.4-0.1 0-0.2-0.1-0.3-0.2 0.8-0.1 1.5 0 2.3 0.1 0.8-0.2 1.4-0.7 1.7-1.5 0.5-1.9-0.2-3.3-2-4-1.6-0.4-3.2-0.5-4.8-0.4v-0.7c1.8-0.1 3.7-0.1 5.5-0.1 0.9-0.1 1.5-0.5 1.9-1.3 0.4-1.3 0.2-2.4-0.6-3.4 0.1-0.3 0.2-0.7 0.4-1l-1.3-1c0.1-0.1 0.2-0.1 0.3-0.1z"></path><path fill="#fee569" d="m31.9 9.4c0.5 0.6 0.9 1.4 1.2 2.2-0.9-0.1-1.8 0.1-2.7 0.6 0-0.1-0.1-0.1-0.2-0.2-0.1 0.2-0.2 0.4-0.3 0.6-0.4-0.9-0.8-1.7-1.4-2.4 0.1 0 0.2 0 0.3 0.1 0.8-0.4 1.6-0.7 2.5-0.9 0.1 0 0.1 0 0.2 0.1 0-0.3 0.2-0.4 0.4-0.1z"></path><path fill="#fef0d4" d="m12.9 10.1c0.3-0.1 0.3 0.1 0.1 0.3 0 0.2 0.1 0.4 0.3 0.5 0.6 0.3 1.3 0.4 2 0.4 2.8-0.4 5.6-0.6 8.4-0.5 1.5 0.4 2 1.3 1.6 2.8-0.3 0.4-0.7 0.6-1.2 0.7-1.2 0.1-2.5 0.1-3.7-0.2-0.7 0.1-1.5 0.2-2.2 0.4-0.3 0.8-0.4 1.6-0.3 2.4 0.1 0.1 0.2 0.2 0.3 0.3l4.7 0.1c1.6 0.4 2.2 1.4 1.7 3-0.2 0.3-0.5 0.5-0.8 0.6-2.1-0.3-4.2-0.4-6.3-0.3 0 1.5 0.1 3 0.4 4.4 0 0.9-0.4 1.5-1.1 1.9-1.1 0.3-2.2 0.2-3.2-0.3-0.4-0.5-0.7-1-0.8-1.6l-0.1-3.8c0-2.4 0.1-4.7 0.2-7.1-0.5-0.7-0.8-1.5-0.7-2.4-0.2-0.7 0.1-1.3 0.7-1.6z"></path><path fill="#fee25c" d="m33.1 11.6c0.4 0.6 0.6 1.2 0.6 2-0.2-0.1-0.3-0.3-0.4-0.6-0.9 0.3-1.8 0.6-2.7 1 0.2 0.2 0.2 0.4 0 0.6-0.3-0.7-0.5-1.3-0.7-2 0.1-0.2 0.2-0.4 0.3-0.6 0.1 0.1 0.2 0.1 0.2 0.2 0.9-0.5 1.8-0.7 2.7-0.6z"></path><path fill="#fee151" d="m33.7 13.6c0.1 0.1 0.2 0.3 0.3 0.5 0 0.3 0 0.6-0.1 0.9-0.1-0.1-0.1-0.1-0.2-0.2-0.8 0.3-1.7 0.6-2.5 0.9-0.1 0-0.2 0.1-0.3 0.3 0-0.2-0.1-0.4-0.2-0.5-0.1-0.3-0.1-0.6-0.1-0.9 0.2-0.2 0.2-0.4 0-0.6 0.9-0.4 1.8-0.7 2.7-1 0.1 0.3 0.2 0.5 0.4 0.6z"></path><path fill="#fede42" d="m34 14.1c0.1 0.2 0.1 0.5 0.1 0.7 0.1 1.6 0.2 3.1 0.1 4.7v0.3c0-0.8-0.2-1.5-0.3-2.3-1 0.3-2 0.7-3 1.3v-0.6c0-0.9-0.1-1.8-0.2-2.7 0.1 0.1 0.2 0.3 0.2 0.5 0.1-0.2 0.2-0.3 0.3-0.3 0.8-0.3 1.7-0.6 2.5-0.9 0.1 0.1 0.1 0.1 0.2 0.2 0.1-0.3 0.1-0.6 0.1-0.9z"></path><path fill="#e3af4c" d="m1.8 15c-0.2 1.6-0.2 3.2-0.2 4.8v0.4c-0.1-1.5-0.2-3.1-0.1-4.7 0.1-0.2 0.1-0.4 0.3-0.5z" opacity=".949"></path><path fill="#e9b125" d="m34.1 14.8c0.2 0.9 0.3 1.8 0.3 2.7 0 0.7-0.1 1.3-0.2 2 0.1-1.6 0-3.1-0.1-4.7z" opacity=".957"></path><path fill="#fee669" d="m4.7 16.4v1.4c0 0.7 0.1 1.5 0.2 2.2-0.2 0.1-0.2 0.2-0.2 0.3-0.1-0.2-0.2-0.4-0.2-0.7-0.1 0.3-0.1 0.6-0.1 0.9-0.9 0.1-1.7 0.5-2.5 0.9l-0.3-1.2v-0.4c0.1-0.3 0.2-0.6 0.3-0.9l2.4-0.8c0.1 0.2 0.2 0.5 0.2 0.8 0-0.9 0.1-1.7 0.2-2.5z"></path><path fill="#feda33" d="m34.2 19.8c-0.9 6.6-4.5 11.1-10.6 13.7-8 2.3-14.4 0.2-19.4-6.4-0.5-0.8-0.9-1.6-1.2-2.4 0.8-0.3 1.5-0.5 2.3-0.7-0.1-0.4 0-0.5 0.3-0.3 2.4 5.7 6.8 8.5 13 8.4 6.7-0.9 10.7-4.5 12.1-11.1 0.1-0.4 0.2-0.9 0.3-1.5 0-0.1 0-0.2-0.1-0.3v-0.4c1-0.6 2-1 3-1.3 0.1 0.8 0.3 1.5 0.3 2.3z"></path><path fill="#fee676" d="m30.9 19.2c0.1 0.1 0.1 0.2 0.1 0.3-0.1 0.6-0.2 1.1-0.3 1.5 0.1-0.1 0-0.2-0.1-0.3 0-0.5 0.1-1 0.3-1.5z"></path><path fill="#fde15c" d="m4.7 20.3c0.1 0.6 0.2 1.1 0.3 1.7-0.1-0.1-0.2-0.2-0.2-0.4 0 0.2-0.1 0.5-0.2 0.7-0.6 0.2-1.2 0.4-1.9 0.6-0.2 0.3-0.3 0.6-0.1 0.9-0.4-0.7-0.7-1.5-0.7-2.4 0.8-0.4 1.6-0.8 2.5-0.9 0-0.3 0-0.6 0.1-0.9 0 0.3 0.1 0.5 0.2 0.7z"></path><path fill="#fee152" d="m5 22c0.1 0.6 0.3 1.2 0.6 1.7-0.3-0.2-0.4-0.1-0.3 0.3-0.8 0.2-1.5 0.4-2.3 0.7-0.2-0.2-0.3-0.5-0.4-0.9-0.2-0.3-0.1-0.6 0.1-0.9 0.7-0.2 1.3-0.4 1.9-0.6 0.1-0.2 0.2-0.5 0.2-0.7 0 0.2 0.1 0.3 0.2 0.4z"></path><path fill="#fef1a2" d="m4.9 20c0.7 3.9 2.7 6.9 6 8.9 1.3 1 2.8 1.6 4.5 1.8 0.7 0.2 1.5 0.3 2.2 0.3 0.5 0 1 0 1.5-0.1 0.3-0.1 0.7-0.2 1.1-0.2 5.5-1.2 8.9-4.5 10.4-10 0.1 0.1 0.2 0.2 0.1 0.3-1.4 6.6-5.4 10.2-12.1 11.1-6.2 0.1-10.6-2.7-13-8.4-0.3-0.5-0.5-1.1-0.6-1.7-0.1-0.6-0.2-1.1-0.3-1.7 0-0.1 0-0.2 0.2-0.3z"></path><path fill="#feb902" d="m21.7 21.9c0.1 0.1 0.2 0.2 0.3 0.2-1 2.8-1.9 5.6-2.8 8.4h1.4c-0.2 0-0.3 0.1-0.4 0.2-0.4 0-0.8 0.1-1.1 0.2-1.3 0-2.5-0.1-3.7-0.2-1.7-0.2-3.2-0.8-4.5-1.8 0.4-0.8 0.8-1.7 1.1-2.7 0 0.1 0.1 0.2 0.2 0.2 0.2 0.4 0.5 0.8 0.9 1.2 1.1 0.4 2.3 0.5 3.4 0.4 1.2-0.2 2-0.9 2.3-2.1 0.1-1.4 0-2.9-0.2-4.3 1.1-0.1 2.1 0 3.1 0.3z"></path><path fill="#fedf6b" d="m15.4 30.7c1.2 0.1 2.4 0.2 3.7 0.2-0.5 0.1-1 0.1-1.5 0.1-0.7 0-1.5-0.1-2.2-0.3z"></path></svg>