<?xml version="1.0" encoding="UTF-8"?>
<!DOCTYPE svg PUBLIC "-//W3C//DTD SVG 1.1//EN" "http://www.w3.org/Graphics/SVG/1.1/DTD/svg11.dtd">
<svg xmlns="http://www.w3.org/2000/svg" version="1.1" width="256px" height="256px" style="shape-rendering:geometricPrecision; text-rendering:geometricPrecision; image-rendering:optimizeQuality; fill-rule:evenodd; clip-rule:evenodd" xmlns:xlink="http://www.w3.org/1999/xlink">
<g><path style="opacity:0.706" fill="#b85200" d="M 111.5,-0.5 C 122.167,-0.5 132.833,-0.5 143.5,-0.5C 205.833,11.8333 243.167,49.1667 255.5,111.5C 255.5,122.167 255.5,132.833 255.5,143.5C 243.167,205.833 205.833,243.167 143.5,255.5C 132.833,255.5 122.167,255.5 111.5,255.5C 49.1667,243.167 11.8333,205.833 -0.5,143.5C -0.5,132.833 -0.5,122.167 -0.5,111.5C 11.8333,49.1667 49.1667,11.8333 111.5,-0.5 Z"/></g>
<g><path style="opacity:1" fill="#feeb80" d="M 138.5,11.5 C 169.151,14.7425 194.985,27.7425 216,50.5C 220.142,55.4631 223.642,60.7964 226.5,66.5C 225.175,65.0474 224.342,65.3808 224,67.5C 223.586,67.0426 223.086,66.7093 222.5,66.5C 216.417,68.3577 210.583,70.691 205,73.5C 204.329,72.7476 203.496,72.4142 202.5,72.5C 188.7,53.433 170.367,41.0996 147.5,35.5C 144.423,34.144 141.09,33.3106 137.5,33C 129.988,32.1782 122.655,32.3448 115.5,33.5C 75.6266,40.5406 49.1266,63.2073 36,101.5C 35.3572,106.545 34.5238,111.545 33.5,116.5C 32.6724,122.319 32.1724,128.319 32,134.5C 31.8078,132.423 31.3078,130.423 30.5,128.5C 24.8333,130.5 19.1667,132.5 13.5,134.5C 12.8313,136.631 12.1646,138.631 11.5,140.5C 11.2826,129.14 11.6159,117.807 12.5,106.5C 21.1622,65.6638 44.4955,36.4972 82.5,19C 88.3235,16.4466 94.3235,14.6133 100.5,13.5C 102.92,13.2924 105.253,13.6258 107.5,14.5C 108.696,14.1543 108.696,13.6543 107.5,13C 117.789,11.6963 128.122,11.1963 138.5,11.5 Z"/></g>
<g><path style="opacity:1" fill="#eec762" d="M 138.5,11.5 C 128.122,11.1963 117.789,11.6963 107.5,13C 108.696,13.6543 108.696,14.1543 107.5,14.5C 105.253,13.6258 102.92,13.2924 100.5,13.5C 103.675,12.5713 107.009,11.738 110.5,11C 120.009,10.1757 129.343,10.3424 138.5,11.5 Z"/></g>
<g><path style="opacity:1" fill="#f9d461" d="M 115.5,33.5 C 122.655,32.3448 129.988,32.1782 137.5,33C 141.09,33.3106 144.423,34.144 147.5,35.5C 147.167,35.5 146.833,35.5 146.5,35.5C 136.236,33.9246 125.903,33.2579 115.5,33.5 Z"/></g>
<g><path style="opacity:1" fill="#e89915" d="M 115.5,33.5 C 125.903,33.2579 136.236,33.9246 146.5,35.5C 140.734,36.5521 139.067,39.8854 141.5,45.5C 89.9453,41.3457 55.112,63.3457 37,111.5C 35.6404,116.596 34.4737,121.596 33.5,126.5C 33.5,123.167 33.5,119.833 33.5,116.5C 34.5238,111.545 35.3572,106.545 36,101.5C 49.1266,63.2073 75.6266,40.5406 115.5,33.5 Z"/></g>
<g><path style="opacity:1" fill="#e89f16" d="M 146.5,35.5 C 146.833,35.5 147.167,35.5 147.5,35.5C 170.367,41.0996 188.7,53.433 202.5,72.5C 206.59,77.6729 209.923,83.3395 212.5,89.5C 213.783,94.3519 215.45,99.0185 217.5,103.5C 217.448,105.903 217.781,108.236 218.5,110.5C 219.26,116.804 219.593,123.137 219.5,129.5C 216.326,100.313 202.66,77.3132 178.5,60.5C 167.386,53.1212 155.053,48.4545 141.5,46.5C 141.5,46.1667 141.5,45.8333 141.5,45.5C 139.067,39.8854 140.734,36.5521 146.5,35.5 Z"/></g>
<g><path style="opacity:1" fill="#feb100" d="M 141.5,45.5 C 141.5,45.8333 141.5,46.1667 141.5,46.5C 134.841,45.7781 128.175,45.6114 121.5,46C 124.5,46.3333 127.5,46.6667 130.5,47C 129.213,50.8695 127.547,54.5362 125.5,58C 125.833,58.3333 126.167,58.6667 126.5,59C 124.83,62.7151 123.163,66.3817 121.5,70C 118.833,70.3333 116.167,70.6667 113.5,71C 115.134,71.4935 116.801,71.6602 118.5,71.5C 112.69,72.4896 106.69,72.8229 100.5,72.5C 101.041,69.3484 100.041,66.8484 97.5,65C 88.1034,63.3624 81.9367,67.1957 79,76.5C 77.9558,85.9921 79.6224,94.9921 84,103.5C 84.1667,105.667 84.3333,107.833 84.5,110C 83.4034,132.824 83.2367,155.657 84,178.5C 84.9931,181.474 85.8264,184.474 86.5,187.5C 85.8826,187.389 85.3826,187.056 85,186.5C 83.1325,193.305 80.6325,199.638 77.5,205.5C 54.0289,190.937 39.6955,169.937 34.5,142.5C 33.8058,137.195 33.4724,131.862 33.5,126.5C 34.4737,121.596 35.6404,116.596 37,111.5C 55.112,63.3457 89.9453,41.3457 141.5,45.5 Z"/></g>
<g><path style="opacity:1" fill="#feb800" d="M 141.5,46.5 C 155.053,48.4545 167.386,53.1212 178.5,60.5C 177.761,60.369 177.094,60.5357 176.5,61C 179.5,63.3333 182.5,65.6667 185.5,68C 184.399,70.4721 183.399,72.9721 182.5,75.5C 178.123,72.0897 173.123,69.923 167.5,69C 151.116,68.7478 134.782,69.5811 118.5,71.5C 116.801,71.6602 115.134,71.4935 113.5,71C 116.167,70.6667 118.833,70.3333 121.5,70C 123.163,66.3817 124.83,62.7151 126.5,59C 126.167,58.6667 125.833,58.3333 125.5,58C 127.547,54.5362 129.213,50.8695 130.5,47C 127.5,46.6667 124.5,46.3333 121.5,46C 128.175,45.6114 134.841,45.7781 141.5,46.5 Z"/></g>
<g><path style="opacity:1" fill="#d57c07" d="M 118.5,71.5 C 134.782,69.5811 151.116,68.7478 167.5,69C 173.123,69.923 178.123,72.0897 182.5,75.5C 188.595,82.5046 190.095,90.5046 187,99.5C 184.16,105.004 179.66,108.171 173.5,109C 160.474,108.864 147.474,109.031 134.5,109.5C 134.5,111.167 134.5,112.833 134.5,114.5C 145.995,113.876 157.328,114.709 168.5,117C 181.457,122.414 186.29,131.914 183,145.5C 180.502,151.171 176.335,154.837 170.5,156.5C 165.2,155.656 159.866,155.323 154.5,155.5C 147.404,153.823 140.071,153.157 132.5,153.5C 133.882,163.792 134.382,174.125 134,184.5C 131.636,192.862 126.136,197.695 117.5,199C 109.212,200.171 101.212,199.171 93.5,196C 90.5766,193.584 88.2433,190.75 86.5,187.5C 85.8264,184.474 84.9931,181.474 84,178.5C 83.2367,155.657 83.4034,132.824 84.5,110C 84.3333,107.833 84.1667,105.667 84,103.5C 79.6224,94.9921 77.9558,85.9921 79,76.5C 81.9367,67.1957 88.1034,63.3624 97.5,65C 100.041,66.8484 101.041,69.3484 100.5,72.5C 106.69,72.8229 112.69,72.4896 118.5,71.5 Z"/></g>
<g><path style="opacity:1" fill="#febe01" d="M 178.5,60.5 C 202.66,77.3132 216.326,100.313 219.5,129.5C 219.5,130.833 219.5,132.167 219.5,133.5C 219.5,134.5 219.5,135.5 219.5,136.5C 218.598,139.997 217.931,143.663 217.5,147.5C 207.205,186.128 182.538,209.795 143.5,218.5C 144.263,217.732 145.263,217.232 146.5,217C 143.167,217 139.833,217 136.5,217C 142.649,197.054 149.315,177.221 156.5,157.5C 155.757,156.818 155.091,156.151 154.5,155.5C 159.866,155.323 165.2,155.656 170.5,156.5C 176.335,154.837 180.502,151.171 183,145.5C 186.29,131.914 181.457,122.414 168.5,117C 157.328,114.709 145.995,113.876 134.5,114.5C 134.5,112.833 134.5,111.167 134.5,109.5C 147.474,109.031 160.474,108.864 173.5,109C 179.66,108.171 184.16,105.004 187,99.5C 190.095,90.5046 188.595,82.5046 182.5,75.5C 183.399,72.9721 184.399,70.4721 185.5,68C 182.5,65.6667 179.5,63.3333 176.5,61C 177.094,60.5357 177.761,60.369 178.5,60.5 Z"/></g>
<g><path style="opacity:1" fill="#fee569" d="M 226.5,66.5 C 230.509,71.1773 233.509,76.5106 235.5,82.5C 228.965,82.1042 222.631,83.4376 216.5,86.5C 215.914,86.2907 215.414,85.9574 215,85.5C 214.392,87.0664 213.558,88.3998 212.5,89.5C 209.923,83.3395 206.59,77.6729 202.5,72.5C 203.496,72.4142 204.329,72.7476 205,73.5C 210.583,70.691 216.417,68.3577 222.5,66.5C 223.086,66.7093 223.586,67.0426 224,67.5C 224.342,65.3808 225.175,65.0474 226.5,66.5 Z"/></g>
<g><path style="opacity:1" fill="#fef0d4" d="M 91.5,71.5 C 93.7645,71.4406 94.0978,72.2739 92.5,74C 92.7804,75.395 93.4471,76.5617 94.5,77.5C 98.9284,79.5193 103.595,80.5193 108.5,80.5C 128.407,77.5421 148.407,76.3755 168.5,77C 178.939,79.722 182.773,86.222 180,96.5C 177.9,99.4668 175.066,101.3 171.5,102C 162.613,102.568 153.78,102.068 145,100.5C 139.747,100.771 134.581,101.604 129.5,103C 127.205,108.607 126.371,114.44 127,120.5C 127.75,121.126 128.584,121.626 129.5,122C 140.5,122.333 151.5,122.667 162.5,123C 174.333,125.842 178.5,133.009 175,144.5C 173.503,146.677 171.503,148.01 169,148.5C 154.184,146.521 139.351,145.855 124.5,146.5C 124.325,157.111 125.325,167.611 127.5,178C 127.379,183.911 124.712,188.245 119.5,191C 111.443,193.631 103.776,192.964 96.5,189C 93.7311,185.628 91.8978,181.795 91,177.5C 90.8333,168.5 90.6667,159.5 90.5,150.5C 90.6177,133.795 91.1177,117.128 92,100.5C 88.0751,95.5576 86.2418,89.891 86.5,83.5C 85.4781,78.2269 87.1448,74.2269 91.5,71.5 Z"/></g>
<g><path style="opacity:1" fill="#fee25c" d="M 235.5,82.5 C 238.221,86.6748 239.554,91.3414 239.5,96.5C 238.534,95.8788 237.534,94.5455 236.5,92.5C 230.08,94.6395 223.747,96.9728 217.5,99.5C 218.705,100.995 218.705,102.328 217.5,103.5C 215.45,99.0185 213.783,94.3519 212.5,89.5C 213.558,88.3998 214.392,87.0664 215,85.5C 215.414,85.9574 215.914,86.2907 216.5,86.5C 222.631,83.4376 228.965,82.1042 235.5,82.5 Z"/></g>
<g><path style="opacity:1" fill="#fee151" d="M 239.5,96.5 C 240.345,97.6715 241.011,99.0048 241.5,100.5C 241.662,102.527 241.495,104.527 241,106.5C 240.586,106.043 240.086,105.709 239.5,105.5C 233.704,107.599 227.871,109.599 222,111.5C 221.055,111.905 220.388,112.572 220,113.5C 219.768,112.263 219.268,111.263 218.5,110.5C 217.781,108.236 217.448,105.903 217.5,103.5C 218.705,102.328 218.705,100.995 217.5,99.5C 223.747,96.9728 230.08,94.6395 236.5,92.5C 237.534,94.5455 238.534,95.8788 239.5,96.5 Z"/></g>
<g><path style="opacity:1" fill="#fede42" d="M 241.5,100.5 C 242.451,101.919 242.784,103.585 242.5,105.5C 243.286,116.482 243.619,127.482 243.5,138.5C 243.5,139.167 243.5,139.833 243.5,140.5C 242.952,135.174 242.118,129.841 241,124.5C 234.287,126.718 227.12,129.718 219.5,133.5C 219.5,132.167 219.5,130.833 219.5,129.5C 219.593,123.137 219.26,116.804 218.5,110.5C 219.268,111.263 219.768,112.263 220,113.5C 220.388,112.572 221.055,111.905 222,111.5C 227.871,109.599 233.704,107.599 239.5,105.5C 240.086,105.709 240.586,106.043 241,106.5C 241.495,104.527 241.662,102.527 241.5,100.5 Z"/></g>
<g><path style="opacity:0.949" fill="#e3af4c" d="M 12.5,106.5 C 11.6159,117.807 11.2826,129.14 11.5,140.5C 11.5,141.5 11.5,142.5 11.5,143.5C 10.341,132.674 10.1743,121.674 11,110.5C 11.21,108.942 11.71,107.609 12.5,106.5 Z"/></g>
<g><path style="opacity:0.957" fill="#e9b125" d="M 242.5,105.5 C 244.049,111.587 244.716,117.92 244.5,124.5C 244.499,129.346 244.166,134.012 243.5,138.5C 243.619,127.482 243.286,116.482 242.5,105.5 Z"/></g>
<g><path style="opacity:1" fill="#fee669" d="M 33.5,116.5 C 33.5,119.833 33.5,123.167 33.5,126.5C 33.4724,131.862 33.8058,137.195 34.5,142.5C 33.6618,142.842 33.3284,143.508 33.5,144.5C 32.6981,143.048 32.1981,141.382 32,139.5C 31.5045,141.473 31.3379,143.473 31.5,145.5C 24.9293,146.684 18.9293,149.018 13.5,152.5C 12.8333,149.5 12.1667,146.5 11.5,143.5C 11.5,142.5 11.5,141.5 11.5,140.5C 12.1646,138.631 12.8313,136.631 13.5,134.5C 19.1667,132.5 24.8333,130.5 30.5,128.5C 31.3078,130.423 31.8078,132.423 32,134.5C 32.1724,128.319 32.6724,122.319 33.5,116.5 Z"/></g>
<g><path style="opacity:1" fill="#feda33" d="M 243.5,140.5 C 236.696,187.467 211.363,219.967 167.5,238C 110.994,254.609 65.1611,239.442 30,192.5C 26.6284,187.09 23.7951,181.423 21.5,175.5C 26.6964,173.435 32.0298,171.768 37.5,170.5C 37.1307,168.007 37.7973,167.34 39.5,168.5C 57.1347,208.996 88.1347,228.829 132.5,228C 179.795,222.204 208.461,196.037 218.5,149.5C 219.362,146.177 220.028,142.677 220.5,139C 220.472,137.93 220.139,137.097 219.5,136.5C 219.5,135.5 219.5,134.5 219.5,133.5C 227.12,129.718 234.287,126.718 241,124.5C 242.118,129.841 242.952,135.174 243.5,140.5 Z"/></g>
<g><path style="opacity:1" fill="#fee676" d="M 219.5,136.5 C 220.139,137.097 220.472,137.93 220.5,139C 220.028,142.677 219.362,146.177 218.5,149.5C 218.672,148.508 218.338,147.842 217.5,147.5C 217.931,143.663 218.598,139.997 219.5,136.5 Z"/></g>
<g><path style="opacity:1" fill="#fde15c" d="M 33.5,144.5 C 34.2952,148.476 34.9619,152.476 35.5,156.5C 34.7321,155.737 34.2321,154.737 34,153.5C 33.7978,155.256 33.2978,156.922 32.5,158.5C 28.2041,160.099 23.8708,161.599 19.5,163C 17.4418,164.808 17.1084,166.975 18.5,169.5C 15.4464,164.33 13.7798,158.664 13.5,152.5C 18.9293,149.018 24.9293,146.684 31.5,145.5C 31.3379,143.473 31.5045,141.473 32,139.5C 32.1981,141.382 32.6981,143.048 33.5,144.5 Z"/></g>
<g><path style="opacity:1" fill="#fee152" d="M 35.5,156.5 C 36.5316,160.637 37.8649,164.637 39.5,168.5C 37.7973,167.34 37.1307,168.007 37.5,170.5C 32.0298,171.768 26.6964,173.435 21.5,175.5C 19.9121,173.887 18.9121,171.887 18.5,169.5C 17.1084,166.975 17.4418,164.808 19.5,163C 23.8708,161.599 28.2041,160.099 32.5,158.5C 33.2978,156.922 33.7978,155.256 34,153.5C 34.2321,154.737 34.7321,155.737 35.5,156.5 Z"/></g>
<g><path style="opacity:1" fill="#fef1a2" d="M 34.5,142.5 C 39.6955,169.937 54.0289,190.937 77.5,205.5C 86.9823,212.554 97.649,216.888 109.5,218.5C 114.59,219.965 119.923,220.632 125.5,220.5C 129.018,220.498 132.351,220.165 135.5,219.5C 138.096,218.735 140.763,218.401 143.5,218.5C 182.538,209.795 207.205,186.128 217.5,147.5C 218.338,147.842 218.672,148.508 218.5,149.5C 208.461,196.037 179.795,222.204 132.5,228C 88.1347,228.829 57.1347,208.996 39.5,168.5C 37.8649,164.637 36.5316,160.637 35.5,156.5C 34.9619,152.476 34.2952,148.476 33.5,144.5C 33.3284,143.508 33.6618,142.842 34.5,142.5 Z"/></g>
<g><path style="opacity:1" fill="#feb902" d="M 154.5,155.5 C 155.091,156.151 155.757,156.818 156.5,157.5C 149.315,177.221 142.649,197.054 136.5,217C 139.833,217 143.167,217 146.5,217C 145.263,217.232 144.263,217.732 143.5,218.5C 140.763,218.401 138.096,218.735 135.5,219.5C 126.815,219.536 118.149,219.203 109.5,218.5C 97.649,216.888 86.9823,212.554 77.5,205.5C 80.6325,199.638 83.1325,193.305 85,186.5C 85.3826,187.056 85.8826,187.389 86.5,187.5C 88.2433,190.75 90.5766,193.584 93.5,196C 101.212,199.171 109.212,200.171 117.5,199C 126.136,197.695 131.636,192.862 134,184.5C 134.382,174.125 133.882,163.792 132.5,153.5C 140.071,153.157 147.404,153.823 154.5,155.5 Z"/></g>
<g><path style="opacity:1" fill="#fedf6b" d="M 109.5,218.5 C 118.149,219.203 126.815,219.536 135.5,219.5C 132.351,220.165 129.018,220.498 125.5,220.5C 119.923,220.632 114.59,219.965 109.5,218.5 Z"/></g>
</svg>
