<svg xmlns="http://www.w3.org/2000/svg" version="1.1" width="256px" height="256px" style="shape-rendering:geometricPrecision; text-rendering:geometricPrecision; image-rendering:optimizeQuality; fill-rule:evenodd; clip-rule:evenodd" xmlns:xlink="http://www.w3.org/1999/xlink">
<g><path style="opacity:1" fill="#3180de" d="M 113.5,-0.5 C 122.833,-0.5 132.167,-0.5 141.5,-0.5C 197.915,8.8134 234.748,40.8134 252,95.5C 253.497,101.581 254.664,107.581 255.5,113.5C 255.5,122.833 255.5,132.167 255.5,141.5C 247.889,192.523 220.222,228.023 172.5,248C 162.587,251.344 152.587,253.844 142.5,255.5C 132.5,255.5 122.5,255.5 112.5,255.5C 48.712,243.379 11.0453,205.379 -0.5,141.5C -0.5,135.167 -0.5,128.833 -0.5,122.5C 0.737292,117.04 1.40396,111.373 1.5,105.5C 11.9342,53.8957 42.2675,20.0624 92.5,4C 99.602,2.30289 106.602,0.802889 113.5,-0.5 Z"/></g>
<g><path style="opacity:1" fill="#050c2e" d="M 118.5,11.5 C 178.339,11.4875 218.506,39.4875 239,95.5C 250.157,142.307 238.324,182.14 203.5,215C 161.713,247.512 117.046,251.845 69.5,228C 27.2383,200.305 8.40498,161.138 13,110.5C 25.4798,53.1834 60.6464,20.1834 118.5,11.5 Z"/></g>
<g><path style="opacity:1" fill="#f4f5f8" d="M 130.5,71.5 C 127.687,71.7704 125.021,72.2704 122.5,73C 114.329,65.6615 106.329,58.1615 98.5,50.5C 97.6971,49.5768 97.5304,48.5768 98,47.5C 107.31,39.4308 118.143,35.0975 130.5,34.5C 130.5,46.8333 130.5,59.1667 130.5,71.5 Z"/></g>
<g><path style="opacity:1" fill="#f3f4f7" d="M 168.5,49.5 C 160.338,56.8286 152.672,64.662 145.5,73C 142.979,72.2704 140.313,71.7704 137.5,71.5C 137.5,59.1667 137.5,46.8333 137.5,34.5C 149.003,35.1278 159.337,38.9611 168.5,46C 169.684,47.1455 169.684,48.3121 168.5,49.5 Z"/></g>
<g><path style="opacity:1" fill="#f4f5f7" d="M 188.5,81.5 C 188.5,82.8333 188.5,84.1667 188.5,85.5C 176.5,85.5 164.5,85.5 152.5,85.5C 152.34,83.847 151.674,82.5137 150.5,81.5C 150.586,80.5041 150.252,79.6708 149.5,79C 158.364,70.4702 166.864,61.6369 175,52.5C 182.745,60.6567 187.245,70.3234 188.5,81.5 Z"/></g>
<g><path style="opacity:1" fill="#f1f3f7" d="M 117.5,80.5 C 115.926,82.1016 115.259,84.1016 115.5,86.5C 103.167,86.5 90.8333,86.5 78.5,86.5C 79.0093,73.7915 83.5093,62.7915 92,53.5C 100.53,62.3641 109.363,70.8641 118.5,79C 117.944,79.3826 117.611,79.8826 117.5,80.5 Z"/></g>
<g><path style="opacity:1" fill="#3d82d7" d="M 168.5,49.5 C 168.918,50.2216 169.584,50.7216 170.5,51C 161.625,59.7077 152.958,68.541 144.5,77.5C 142.459,76.7643 140.459,75.9309 138.5,75C 137.663,73.9887 137.33,72.8221 137.5,71.5C 140.313,71.7704 142.979,72.2704 145.5,73C 152.672,64.662 160.338,56.8286 168.5,49.5 Z"/></g>
<g><path style="opacity:1" fill="#3b82da" d="M 98.5,50.5 C 106.329,58.1615 114.329,65.6615 122.5,73C 125.021,72.2704 127.687,71.7704 130.5,71.5C 130.719,72.675 130.386,73.675 129.5,74.5C 127.049,75.4801 124.716,76.3135 122.5,77C 114.637,68.8023 106.47,60.969 98,53.5C 97.2599,52.2506 97.4265,51.2506 98.5,50.5 Z"/></g>
<g><path style="opacity:1" fill="#a3c3e8" d="M 188.5,81.5 C 189.451,82.9187 189.784,84.5853 189.5,86.5C 176.989,86.8286 164.655,86.4952 152.5,85.5C 164.5,85.5 176.5,85.5 188.5,85.5C 188.5,84.1667 188.5,82.8333 188.5,81.5 Z"/></g>
<g><path style="opacity:1" fill="#2f7edb" d="M 117.5,80.5 C 117.804,81.1499 118.137,81.8165 118.5,82.5C 117.123,84.2895 116.123,86.2895 115.5,88.5C 103.185,89.499 90.8513,89.8324 78.5,89.5C 78.5,88.5 78.5,87.5 78.5,86.5C 90.8333,86.5 103.167,86.5 115.5,86.5C 115.259,84.1016 115.926,82.1016 117.5,80.5 Z"/></g>
<g><path style="opacity:1" fill="#2e7fdc" d="M 150.5,81.5 C 151.674,82.5137 152.34,83.847 152.5,85.5C 164.655,86.4952 176.989,86.8286 189.5,86.5C 189.5,87.5 189.5,88.5 189.5,89.5C 177.149,89.8324 164.815,89.499 152.5,88.5C 151.877,86.2895 150.877,84.2895 149.5,82.5C 149.624,81.8933 149.957,81.56 150.5,81.5 Z"/></g>
<g><path style="opacity:1" fill="#f4f5f8" d="M 117.5,102.5 C 104.574,115.091 91.5741,127.757 78.5,140.5C 78.5,124.833 78.5,109.167 78.5,93.5C 90.8513,93.1676 103.185,93.501 115.5,94.5C 116.785,97.0205 117.452,99.6872 117.5,102.5 Z"/></g>
<g><path style="opacity:1" fill="#f5f6f9" d="M 189.5,97.5 C 187.458,107.92 182.958,117.254 176,125.5C 167.632,116.964 159.132,108.631 150.5,100.5C 150.961,98.4496 151.628,96.4496 152.5,94.5C 164.815,93.501 177.149,93.1676 189.5,93.5C 189.5,94.8333 189.5,96.1667 189.5,97.5 Z"/></g>
<g><path style="opacity:1" fill="#f3f4f7" d="M 170.5,131.5 C 161.019,139.552 150.019,143.885 137.5,144.5C 137.333,132.495 137.5,120.495 138,108.5C 140.729,106.679 143.563,106.012 146.5,106.5C 148.356,109.19 150.689,111.356 153.5,113C 159.763,118.757 165.43,124.924 170.5,131.5 Z"/></g>
<g><path style="opacity:1" fill="#f6f7fa" d="M 130.5,169.5 C 113.533,184.465 96.8665,199.798 80.5,215.5C 79.5027,194.34 79.1694,173.007 79.5,151.5C 93.6289,136.203 107.962,121.036 122.5,106C 124.958,107.038 127.625,107.871 130.5,108.5C 130.5,128.833 130.5,149.167 130.5,169.5 Z"/></g>
<g><path style="opacity:1" fill="#3f82d5" d="M 189.5,97.5 C 188.408,109.609 183.908,120.276 176,129.5C 167.667,121.167 159.333,112.833 151,104.5C 150.51,103.207 150.343,101.873 150.5,100.5C 159.132,108.631 167.632,116.964 176,125.5C 182.958,117.254 187.458,107.92 189.5,97.5 Z"/></g>
<g><path style="opacity:0.561" fill="#82b1ee" d="M 1.5,105.5 C 1.40396,111.373 0.737292,117.04 -0.5,122.5C -0.5,119.167 -0.5,115.833 -0.5,112.5C 0.166667,110.167 0.833333,107.833 1.5,105.5 Z"/></g>
<g><path style="opacity:1" fill="#3e81d5" d="M 117.5,102.5 C 117.611,103.117 117.944,103.617 118.5,104C 105.696,117.805 92.5294,131.305 79,144.5C 78.51,143.207 78.3433,141.873 78.5,140.5C 91.5741,127.757 104.574,115.091 117.5,102.5 Z"/></g>
<g><path style="opacity:1" fill="#3c81d7" d="M 170.5,131.5 C 170.539,132.583 170.873,133.583 171.5,134.5C 161.742,142.867 150.409,147.534 137.5,148.5C 137.5,147.167 137.5,145.833 137.5,144.5C 150.019,143.885 161.019,139.552 170.5,131.5 Z"/></g>
<g><path style="opacity:1" fill="#c8cbd4" d="M 79.5,151.5 C 79.1694,173.007 79.5027,194.34 80.5,215.5C 80.1583,216.338 79.4916,216.672 78.5,216.5C 78.1693,194.66 78.5027,172.994 79.5,151.5 Z"/></g>
<g><path style="opacity:1" fill="#3a7fd5" d="M 130.5,169.5 C 130.657,170.873 130.49,172.207 130,173.5C 113,189.167 96,204.833 79,220.5C 78.51,219.207 78.3433,217.873 78.5,216.5C 79.4916,216.672 80.1583,216.338 80.5,215.5C 96.8665,199.798 113.533,184.465 130.5,169.5 Z"/></g>
</svg>
