<?xml version="1.0"?><svg xmlns="http://www.w3.org/2000/svg" width="36" height="36" shape-rendering="geometricPrecision" text-rendering="geometricPrecision" image-rendering="optimizeQuality" fill-rule="evenodd" clip-rule="evenodd" viewBox="0 0 36 36"><path fill="#fdfdfd" d="m0.1 0h35.7v36h-35.7v-36z"></path><path fill="#030303" d="m16 0.2c7.8-0.4 13.7 2.7 17.6 9.4 3.3 6.8 2.8 13.4-1.7 19.5-4.6 5.3-10.4 7.5-17.3 6.4-7.5-1.7-12.2-6.3-14.1-13.8-1.2-6.8 0.8-12.6 5.9-17.3 2.8-2.3 6-3.7 9.6-4.2z"></path><path fill="#fcfcfc" d="m16.4 2.4c6.5-0.2 11.5 2.4 15 7.8 2.8 5.2 2.8 10.4 0 15.6-3.5 5.5-8.5 8.1-15.1 7.7-5.3-0.8-9.4-3.5-12.1-8.2-2.9-6-2.3-11.8 1.7-17.1 2.8-3.3 6.3-5.2 10.5-5.8z"></path><path fill="#030303" d="m17.6 13.2c2.9-0.3 5.3 0.6 7.2 2.7 0.3 0.4 0.5 0.8 0.7 1.2-0.7 0.4-1.4 0.8-2.1 1.1-1.8-2.5-4.1-3.2-7-1.9-2.3 1.8-2.9 4-1.8 6.7 1.1 1.7 2.7 2.9 4.6 3.6 0.9 0.2 1.8 0.4 2.8 0.5 2.3 0.1 4.6 0.1 7-0.1-0.6 0.8-1.3 1.5-2 2.1-2.8 0.6-5.6 0.5-8.4-0.1-2.4-0.8-4.4-2.3-5.9-4.4-2-3.7-1.4-7 1.7-9.8 1-0.7 2.1-1.2 3.2-1.6z m-0.1-3c1.9-0.2 3.7 0.1 5.4 0.7-0.3 0.8-0.6 1.6-1.1 2.3-4-1.4-7.2-0.3-9.7 3-1.8 3.3-1.6 6.5 0.7 9.6 1.8 2.1 4.1 3.4 6.9 3.8 2.1 0.3 4.2 0.3 6.3 0-1 0.8-2.2 1.4-3.5 1.8-2.8 0.1-5.4-0.3-8-1.4-4.4-2.4-6.4-6.1-6-11.1 1.1-4.9 4.1-7.8 9-8.7z m2.3 21.5l1.5 0.2c-4.7 1-8.9 0-12.6-3.1-3.1-3.8-4-8-2.7-12.8 1.6-4.3 4.6-7.2 9-8.5 1.3-0.4 2.5-0.5 3.8-0.4v2.4c-3.6 0-6.5 1.4-8.8 4.2-2.4 3.4-2.8 7-1.3 10.8 1.9 4.1 5.1 6.4 9.6 7.1 0.5 0.1 1 0.1 1.5 0.1z"></path><path fill="#999" d="m19.8 31.7c0.6 0 1.2 0 1.7 0.1 0 0.1-0.1 0.1-0.2 0.1l-1.5-0.2z"></path></svg>