<svg xmlns="http://www.w3.org/2000/svg" width="387" height="390" viewBox="0 0 387 390" version="1.1">
	<path fill-opacity="0.267" d="M 178.500 2.634 C 167.781 3.532, 147.984 7.348, 137.390 10.557 C 73.121 30.025, 22.995 82.295, 6.501 147.043 C 2.037 164.569, 0.730 175.340, 0.683 195 C 0.635 215.578, 2.215 228.287, 7.026 246 C 21.619 299.733, 57.678 343.757, 107.597 368.786 C 120.226 375.119, 142.077 382.763, 152.661 384.552 C 154.222 384.816, 159.100 385.678, 163.500 386.467 C 190.951 391.390, 225.466 388.562, 254.049 379.048 C 315.656 358.540, 362.414 309.211, 379.687 246.500 C 382.983 234.536, 385.956 216.161, 385.997 207.500 C 386.021 202.606, 386.322 200.951, 387 202 C 387.662 203.024, 387.937 200.642, 387.866 194.500 C 387.795 188.238, 387.531 186.413, 387 188.500 C 386.426 190.756, 386.207 189.700, 386.118 184.239 C 385.967 174.947, 383.663 160.224, 380.370 147.500 C 364.941 87.898, 322.871 39.616, 266.257 16.539 C 252.059 10.752, 240.814 7.678, 222 4.442 C 213.326 2.950, 187.523 1.877, 178.500 2.634 M 178.948 27.994 C 139.573 31.726, 104.364 47.858, 76.663 74.860 C 49.255 101.576, 32.961 133.209, 26.884 171.500 C 25.254 181.768, 25.247 209.163, 26.871 219.500 C 32.871 257.686, 49.357 289.569, 76.900 316.254 C 102.710 341.260, 133.532 356.528, 169.500 362.125 C 180.863 363.894, 208.377 363.653, 220.012 361.683 C 272.936 352.724, 318.334 319.805, 342.491 272.870 C 363.674 231.714, 367.238 185.339, 352.585 141.548 C 338.845 100.485, 307.638 64.859, 268.015 45.001 C 241.690 31.807, 207.533 25.285, 178.948 27.994 M 183.810 77.122 C 158.684 80.068, 130.983 91.497, 111.617 106.907 C 102.301 114.320, 87.794 129.996, 81.542 139.405 C 65.660 163.309, 57.738 189.390, 57.669 218 C 57.592 250.052, 67.343 278.929, 87.048 305.007 C 93.904 314.082, 98.750 318.566, 108.841 325.176 C 126.056 336.453, 146.911 344.496, 168.417 348.155 C 178.461 349.863, 183.369 350.129, 197.500 349.733 C 213.662 349.279, 232 346.779, 232 345.029 C 232 344.615, 225.588 344.033, 217.750 343.735 C 179.562 342.287, 146.194 329.469, 122.871 307.291 C 104.262 289.596, 92.025 267.681, 86.970 243 C 83.919 228.101, 84.526 204.064, 88.315 189.723 C 96.623 158.281, 119.008 130.646, 148 116.037 C 162.060 108.952, 177.424 104.944, 196.278 103.443 L 204.057 102.824 203.778 89.662 L 203.500 76.500 197.500 76.360 C 194.200 76.283, 188.039 76.626, 183.810 77.122 M 188.349 111.055 C 175.018 112.793, 159.236 117.949, 148 124.238 C 129.252 134.732, 111.220 153.588, 101.595 172.763 C 92.300 191.280, 88.171 216.708, 91.072 237.566 C 96.447 276.209, 120.360 308.188, 157.256 326.074 C 176.191 335.254, 205.809 341.047, 233.424 340.973 C 242.706 340.948, 244.248 340.648, 253 337.166 C 263.387 333.034, 283.141 321.880, 281.211 321.237 C 280.548 321.016, 274.267 321.611, 267.253 322.558 C 245.165 325.541, 214.911 323.020, 193.980 316.451 C 134.991 297.940, 104.233 243.910, 123.133 192 C 136.614 154.972, 177.526 131.535, 216.730 138.381 C 221.806 139.268, 228.204 140.846, 230.948 141.888 C 234.626 143.286, 236.182 143.483, 236.875 142.642 C 237.726 141.608, 248 120.152, 248 119.408 C 248 119.235, 243.650 117.701, 238.334 115.998 C 221.740 110.682, 204.381 108.966, 188.349 111.055 M 193.315 143.940 C 161.498 149.009, 136.860 170.399, 127.013 201.500 C 123.938 211.213, 123.172 228.714, 125.359 239.283 C 133.491 278.579, 171.357 310.791, 218.095 318.173 C 229.697 320.005, 270.765 319.953, 282 318.092 L 290.500 316.684 302.428 304.854 C 308.989 298.347, 314.102 292.769, 313.791 292.457 C 313.479 292.146, 308.337 292.468, 302.362 293.173 C 287.828 294.887, 242.121 294.902, 231 293.196 C 191.714 287.171, 163.583 267.923, 153.884 240.432 C 144.365 213.452, 160.838 181.617, 188.783 172.985 C 196.427 170.624, 210.878 170.322, 218.500 172.363 C 230.293 175.521, 242.875 184.344, 248.673 193.522 C 250.228 195.983, 251.845 197.997, 252.267 197.998 C 252.979 198, 275.049 187.185, 275.871 186.431 C 276.575 185.786, 271.140 177.489, 266.272 171.777 C 255.952 159.666, 240.260 149.792, 225.130 145.888 C 216.480 143.656, 201.033 142.710, 193.315 143.940 M 0.355 195.500 C 0.352 200.450, 0.521 202.601, 0.731 200.280 C 0.940 197.959, 0.943 193.909, 0.736 191.280 C 0.530 188.651, 0.358 190.550, 0.355 195.500" stroke="none" fill="black" fill-rule="evenodd"/>
	<path fill-opacity="0.251" d="M 177.802 3.105 C 96.846 9.335, 28.448 66.568, 7.029 146 C 2.420 163.094, 0.756 176.445, 0.799 196 C 0.885 235.100, 11.087 269.076, 32.778 302.500 C 69.948 359.776, 139.682 393.825, 208 388.054 C 271.537 382.687, 326.654 348.604, 358.901 294.742 C 375.233 267.461, 385.961 231.647, 386.015 204.220 C 386.026 198.866, 386.328 196.960, 387 198 C 387.691 199.069, 387.940 198.065, 387.866 194.500 C 387.777 190.149, 387.664 189.889, 387 192.500 C 386.455 194.642, 386.199 193.068, 386.105 187 C 385.824 168.801, 380.395 143.644, 372.518 124.045 C 361.374 96.316, 347.242 75.619, 325 54.452 C 293.863 24.821, 251.767 6.469, 207 3.011 C 193.142 1.941, 192.927 1.941, 177.802 3.105 M 175.589 28.100 C 104.392 35.605, 45.412 88.139, 29.188 158.500 C 13.577 226.205, 42.945 298.521, 101.500 336.565 C 161.838 375.766, 240.113 372.433, 296.840 328.247 C 355.751 282.360, 377.375 203.010, 349.889 133.586 C 341.066 111.302, 330.388 95.315, 312.042 76.926 C 296.918 61.766, 283.952 52.371, 266.604 44.004 C 238.354 30.378, 206.607 24.830, 175.589 28.100 M 187.212 77.051 C 153.089 80.440, 123.541 94.382, 99.452 118.458 C 62.261 155.628, 48.960 207.417, 63.481 258.512 C 67.346 272.111, 78.438 293.609, 87.720 305.491 C 96.917 317.263, 105.533 323.955, 123 332.893 C 136.383 339.741, 148.300 343.987, 163 347.143 C 177.187 350.189, 206.483 350.448, 221.248 347.658 C 226.609 346.645, 231.222 345.449, 231.499 345.001 C 231.776 344.553, 231.126 344.416, 230.055 344.696 C 226.506 345.624, 200.838 342.959, 188.760 340.409 C 160.298 334.400, 138.057 322.946, 120.229 305.118 C 97.107 281.996, 84.657 252.030, 84.657 219.500 C 84.657 188.385, 95.491 161.121, 116.662 138.959 C 136.903 117.771, 163.267 105.788, 194.896 103.400 L 204.122 102.704 203.811 89.602 L 203.500 76.500 199.500 76.364 C 197.300 76.289, 191.770 76.598, 187.212 77.051 M 193.500 110.700 C 153.324 114.349, 118.760 138.173, 101.580 174.056 C 71.573 236.730, 103.820 309.327, 171.530 331.538 C 185.944 336.266, 206.859 339.735, 226.135 340.595 C 241.542 341.282, 241.777 341.260, 249.101 338.494 C 262.190 333.550, 284.891 321.090, 280.926 321.026 C 280.061 321.012, 274.661 321.719, 268.926 322.598 C 254.906 324.747, 228.120 324.005, 212 321.021 C 171.967 313.612, 141.476 292.400, 126.443 261.500 C 119.986 248.229, 117.569 237.336, 117.676 222 C 117.741 212.622, 118.296 207.502, 119.898 201.500 C 130.615 161.328, 166.489 135.039, 207.500 137.306 C 213.038 137.612, 220.847 138.814, 225 140 C 229.125 141.178, 233.433 142.372, 234.574 142.654 C 236.360 143.095, 237.299 141.820, 241.331 133.480 C 248.230 119.210, 248.230 119.692, 241.321 117.182 C 226.044 111.633, 208.865 109.304, 193.500 110.700 M 195 143.987 C 168.131 147.316, 144.629 164.068, 132.552 188.500 C 125.918 201.920, 124.575 207.991, 124.590 224.500 C 124.602 237.648, 124.800 239.078, 127.843 248 C 132.637 262.054, 138.831 271.795, 150.500 283.630 C 168.738 302.127, 189.193 312.807, 215.557 317.597 C 228.338 319.919, 268.077 320.235, 280.822 318.117 C 288.168 316.895, 289.766 316.227, 294.440 312.419 C 299.386 308.390, 314.277 292.943, 313.736 292.403 C 313.602 292.269, 306.519 292.834, 297.996 293.659 C 278.531 295.544, 238.537 295.011, 226.482 292.708 C 200.103 287.666, 182.976 279.139, 168.431 263.807 C 150.266 244.660, 146.142 221.976, 156.829 200 C 166.124 180.889, 188.820 168.201, 209.500 170.555 C 225.986 172.431, 239.999 180.622, 249.107 193.704 L 252.033 197.909 263.720 192.417 C 270.148 189.397, 275.609 186.725, 275.855 186.478 C 276.671 185.663, 268.747 174.597, 263.077 168.633 C 245.645 150.294, 219.753 140.921, 195 143.987 M 0.286 195.500 C 0.294 198.250, 0.488 199.256, 0.718 197.736 C 0.947 196.216, 0.941 193.966, 0.704 192.736 C 0.467 191.506, 0.279 192.750, 0.286 195.500" stroke="none" fill="black" fill-rule="evenodd"/>
	<path fill-opacity="0.471" d="M 169 4.090 C 135.828 8.356, 102.694 22.095, 75.500 42.859 C 66.031 50.088, 49.370 66.679, 41.865 76.349 C 14.783 111.250, 1.050 151.138, 0.971 195.129 C 0.871 251.065, 23.184 301.485, 64.681 339.090 C 92.696 364.479, 127.991 380.917, 166.500 386.511 C 179.821 388.446, 207.373 388.417, 220.872 386.455 C 263.599 380.242, 301.862 360.589, 332.027 329.362 C 347.146 313.710, 356.325 300.623, 366.298 280.500 C 378.963 254.946, 384.694 231.593, 385.695 201.466 C 386.983 162.693, 377.623 127.403, 357.189 94 C 327.548 45.546, 277.056 12.639, 219.883 4.512 C 208.649 2.916, 179.979 2.678, 169 4.090 M 170.775 28.466 C 117.899 36.034, 72.556 66.870, 46.468 113 C 14.329 169.830, 18.339 239.855, 56.860 294.500 C 64.110 304.784, 84.216 324.890, 94.500 332.140 C 126.604 354.771, 161.780 365.264, 200.367 363.719 C 275.599 360.707, 338.917 308.869, 356.981 235.500 C 375.798 159.079, 339.253 80.266, 268.542 44.768 C 256.386 38.666, 235.917 31.811, 223 29.518 C 210.078 27.223, 183.236 26.683, 170.775 28.466 M 176.500 78.596 C 117.872 88.981, 73.230 132.186, 60.360 191 C 57.759 202.886, 57.733 232.864, 60.313 244.875 C 67.685 279.197, 85.693 309.203, 107.784 323.975 C 137.960 344.154, 177.114 353.367, 212.500 348.615 C 219.100 347.729, 225.850 346.591, 227.500 346.088 C 230.184 345.268, 229.920 345.161, 225 345.069 C 209.164 344.771, 185.782 340.827, 170.757 335.919 C 127.614 321.827, 96.789 288.307, 86.752 244.573 C 83.922 232.243, 83.749 208.319, 86.400 196 C 91.123 174.052, 100.825 155.554, 115.987 139.589 C 136.745 117.732, 163.367 105.311, 193.750 103.308 L 203 102.698 203 89.849 L 203 77 193.750 77.090 C 188.662 77.139, 180.900 77.817, 176.500 78.596 M 180 112.900 C 134.722 122.922, 101.822 156.234, 92.530 201.466 C 90.401 211.827, 90.366 232.770, 92.458 243.610 C 101.300 289.412, 136.859 324.298, 186 335.383 C 197.014 337.868, 212.854 339.824, 227.500 340.510 L 241.500 341.165 251 337.524 C 262.117 333.263, 281.895 322.561, 280.756 321.422 C 280.599 321.266, 276.202 321.778, 270.985 322.562 C 258.479 324.439, 233.828 324.385, 219.946 322.449 C 184.104 317.450, 156.282 303.051, 137.923 280 C 97.576 229.343, 118.815 157.975, 179.620 139.887 C 188.345 137.291, 207.032 136.291, 216.589 137.908 C 220.390 138.551, 226.341 140.006, 229.814 141.141 C 233.287 142.277, 236.299 143.034, 236.509 142.825 C 237.156 142.178, 247 120.837, 247 120.081 C 247 119.285, 237.628 115.926, 228.500 113.451 C 218.852 110.834, 190.774 110.515, 180 112.900 M 189.075 145.033 C 146.590 153.887, 118.114 194.963, 125.410 236.868 C 131.140 269.784, 158.336 298.913, 195.953 312.426 C 217.303 320.096, 261.092 322.233, 286.315 316.836 C 290.575 315.925, 292.392 314.552, 302.065 304.935 C 308.079 298.956, 313 293.696, 313 293.246 C 313 292.796, 307.262 293.030, 300.250 293.766 C 281.135 295.773, 246.098 295.701, 231.735 293.626 C 208.441 290.261, 190.941 283.277, 176.497 271.581 C 159.044 257.447, 151 242.437, 151 224 C 151 196.094, 172.069 172.959, 199.832 170.379 C 218.107 168.681, 237.377 177.299, 248.037 191.938 L 252.326 197.827 263.663 192.184 C 269.898 189.080, 275 186.039, 275 185.427 C 275 184.815, 272.806 181.189, 270.124 177.371 C 260.667 163.904, 246.535 153.517, 230 147.879 C 221.406 144.949, 219.213 144.615, 207 144.375 C 199.575 144.230, 191.509 144.526, 189.075 145.033" stroke="none" fill="black" fill-rule="evenodd"/>
	<path fill-opacity="0.973" d="M 171.325 4.095 C 91.983 13.340, 26 71.293, 6.582 148.788 C -2.618 185.506, -0.450 226.959, 12.477 261.500 C 22.964 289.519, 36.114 310.096, 56.972 331.121 C 94.011 368.457, 140.986 388, 193.689 388 C 224.303 388, 252.373 381.372, 279.500 367.739 C 336.284 339.201, 373.923 287.141, 384.145 223 C 385.915 211.894, 385.910 179.179, 384.137 168 C 377.385 125.439, 359.079 89.058, 329.493 59.401 C 298.586 28.419, 258.400 9.076, 214.493 4.047 C 204.096 2.856, 181.749 2.881, 171.325 4.095 M 168.928 28.530 C 131.701 34.334, 101.160 49.830, 74.437 76.475 C 50.095 100.746, 35.277 128.016, 27.784 162.336 C 25.850 171.191, 25.564 175.462, 25.564 195.500 C 25.564 220.807, 26.677 228.634, 33.049 248.164 C 46.811 290.344, 77.848 326.280, 117.963 346.481 C 134.271 354.694, 154.202 360.763, 172.324 363.034 C 185.915 364.738, 214.629 363.766, 226.506 361.201 C 291.423 347.181, 340.618 300.263, 356.900 236.840 C 369.392 188.179, 359.035 135.781, 328.823 94.794 C 321.294 84.580, 305.051 68.228, 294.943 60.686 C 271.975 43.550, 242.093 31.444, 214.500 28.097 C 202.564 26.649, 179.592 26.868, 168.928 28.530 M 178.538 78.586 C 148.192 83.302, 122.048 96.689, 99.868 118.868 C 71.249 147.488, 56.761 183.626, 58.323 222.500 C 58.981 238.890, 60.646 248.120, 65.675 263.259 C 74.533 289.925, 89.330 311.286, 107.253 323.280 C 141.593 346.261, 184.901 354.884, 224.500 346.625 L 230.500 345.374 217.647 344.666 C 195.092 343.423, 169.068 337.078, 152.566 328.800 C 120.348 312.637, 96.851 283.737, 87.719 249.039 C 84.916 238.390, 84.676 236.151, 84.603 220 C 84.530 203.977, 84.761 201.553, 87.341 191.282 C 91.206 175.898, 100.360 157.616, 110.247 145.540 C 130.514 120.785, 160.911 105.228, 192.750 103.315 L 203 102.699 203 89.849 L 203 77 195.250 77.097 C 190.988 77.150, 183.467 77.820, 178.538 78.586 M 183.500 112.463 C 160.573 116.663, 139.713 127.513, 123.613 143.613 C 102.534 164.692, 91 192.557, 91 222.404 C 91 248.218, 98.369 270.095, 114.092 290.962 C 121.382 300.637, 129.656 308.272, 141.330 316.099 C 163.641 331.058, 187.087 337.870, 223.837 340.070 L 241.173 341.109 248.337 338.405 C 259.697 334.116, 281.856 322.523, 280.770 321.436 C 280.579 321.245, 276.165 321.784, 270.961 322.634 C 263.805 323.802, 256.627 324.065, 241.500 323.714 C 218.748 323.185, 207.671 321.546, 192.144 316.410 C 155.046 304.139, 129.370 278.948, 119.851 245.482 C 117.992 238.948, 117.573 234.961, 117.540 223.500 C 117.491 206.428, 119.163 198.720, 126.001 184.500 C 136.105 163.485, 152.996 148.752, 176.021 140.871 C 184.646 137.918, 186.806 137.592, 200 137.247 C 214.383 136.872, 220.576 137.803, 234.500 142.436 C 236.251 143.019, 237.150 141.710, 241.728 131.919 C 244.603 125.769, 246.722 120.360, 246.438 119.899 C 245.598 118.541, 230.531 114.103, 221.290 112.491 C 211.048 110.705, 193.168 110.692, 183.500 112.463 M 188.408 145.484 C 159.962 151.674, 136.567 172.941, 128.139 200.274 C 116.397 238.354, 134.068 277.771, 173.616 301.714 C 194.571 314.401, 215.893 319.334, 250 319.384 C 271.348 319.416, 285.780 317.832, 290.500 314.940 C 292.150 313.929, 298 308.526, 303.500 302.934 L 313.500 292.765 306 293.414 C 270.803 296.457, 249.950 296.457, 229.189 293.412 C 193.364 288.158, 167.451 271.278, 155.222 245.228 C 151.857 238.062, 151.564 236.678, 151.187 226.201 C 150.838 216.490, 151.099 213.913, 153.041 207.873 C 164.877 171.063, 209.905 158.018, 239.646 182.782 C 243.027 185.597, 247.245 190.142, 249.021 192.882 L 252.249 197.865 263.625 192.203 C 269.881 189.088, 275 186.157, 275 185.690 C 275 183.699, 267.037 173.036, 261.350 167.412 C 245.764 151.997, 225.768 143.891, 203.792 144.079 C 198.681 144.123, 191.759 144.755, 188.408 145.484" stroke="none" fill="black" fill-rule="evenodd"/>
</svg>