<svg xmlns="http://www.w3.org/2000/svg" version="1.1" width="387px" height="390px" style="shape-rendering:geometricPrecision; text-rendering:geometricPrecision; image-rendering:optimizeQuality; fill-rule:evenodd; clip-rule:evenodd" xmlns:xlink="http://www.w3.org/1999/xlink">
<g><path style="opacity:1" fill="#fdfdfd" d="M -0.5,-0.5 C 128.5,-0.5 257.5,-0.5 386.5,-0.5C 386.5,129.5 386.5,259.5 386.5,389.5C 257.5,389.5 128.5,389.5 -0.5,389.5C -0.5,259.5 -0.5,129.5 -0.5,-0.5 Z"/></g>
<g><path style="opacity:1" fill="#030303" d="M 171.5,2.5 C 256.097,-2.29379 319.93,31.3729 363,103.5C 398.772,178.092 392.439,248.759 344,315.5C 294.34,372.836 231.84,396.003 156.5,385C 75.6438,365.811 24.8105,315.977 4,235.5C -8.89722,161.188 12.2694,98.6879 67.5,48C 97.8153,22.841 132.482,7.67437 171.5,2.5 Z"/></g>
<g><path style="opacity:1" fill="#fcfcfc" d="M 176.5,26.5 C 247.073,23.5318 301.24,51.5318 339,110.5C 368.842,166.809 368.842,223.143 339,279.5C 301.01,338.915 246.51,366.748 175.5,363C 117.156,354.766 73.3227,325.266 44,274.5C 12.6114,208.706 18.6114,146.706 62,88.5C 92.2724,53.28 130.439,32.6134 176.5,26.5 Z"/></g>
<g><path style="opacity:1" fill="#030303" d="M 189.5,143.5 C 220.384,140.068 246.218,149.734 267,172.5C 269.914,176.415 272.414,180.581 274.5,185C 267.27,189.534 259.77,193.701 252,197.5C 232.55,169.679 207.383,162.846 176.5,177C 150.73,195.907 144.23,220.074 157,249.5C 169.085,267.965 185.585,280.798 206.5,288C 216.426,290.432 226.426,292.432 236.5,294C 261.868,294.692 287.201,294.358 312.5,293C 305.833,301 298.5,308.333 290.5,315C 260.429,321.271 230.429,320.937 200.5,314C 173.578,305.395 152.078,289.562 136,266.5C 114.627,226.047 120.794,190.547 154.5,160C 165.219,152.305 176.886,146.805 189.5,143.5 Z"/></g>
<g><path style="opacity:1" fill="#030303" d="M 188.5,110.5 C 208.473,108.83 227.806,111.497 246.5,118.5C 243.714,127.037 239.881,135.037 235,142.5C 191.825,128.228 156.825,139.228 130,175.5C 110.086,211.637 112.42,246.304 137,279.5C 156.774,302.243 181.607,316.076 211.5,321C 234.561,324.313 257.561,324.313 280.5,321C 268.949,329.442 256.282,335.776 242.5,340C 212.325,341.582 183.325,336.582 155.5,325C 107.639,299.12 86.1394,258.953 91,204.5C 102.827,151.503 135.327,120.17 188.5,110.5 Z"/></g>
<g><path style="opacity:1" fill="#030303" d="M 213.5,343.5 C 218.833,344.167 224.167,344.833 229.5,345.5C 178.505,356.43 133.005,345.43 93,312.5C 59.2899,271.287 49.6233,224.954 64,173.5C 81.2824,126.549 113.782,95.7158 161.5,81C 174.894,77.0877 188.561,75.5877 202.5,76.5C 202.5,85.1667 202.5,93.8333 202.5,102.5C 163.267,102.701 131.434,118.034 107,148.5C 81.2778,184.9 76.6111,223.9 93,265.5C 113.744,309.318 148.244,334.818 196.5,342C 202.123,343.029 207.79,343.529 213.5,343.5 Z"/></g>
<g><path style="opacity:1" fill="#999999" d="M 213.5,343.5 C 219.537,343.171 225.537,343.504 231.5,344.5C 231.043,345.298 230.376,345.631 229.5,345.5C 224.167,344.833 218.833,344.167 213.5,343.5 Z"/></g>
</svg>
