<svg xmlns="http://www.w3.org/2000/svg" version="1.1" width="256px" height="256px" style="shape-rendering:geometricPrecision; text-rendering:geometricPrecision; image-rendering:optimizeQuality; fill-rule:evenodd; clip-rule:evenodd" xmlns:xlink="http://www.w3.org/1999/xlink">
<g><path style="opacity:1" fill="#030801" d="M -0.5,-0.5 C 20.8333,-0.5 42.1667,-0.5 63.5,-0.5C 61.1739,0.626895 59.0073,2.62689 57,5.5C 56.6667,5.16667 56.3333,4.83333 56,4.5C 55.6667,5.83333 55.3333,7.16667 55,8.5C 54.6827,6.69923 54.016,6.36589 53,7.5C 53.9326,12.0007 53.2659,12.334 51,8.5C 50.3333,9.83333 49.6667,9.83333 49,8.5C 48.5439,9.74409 49.0439,10.5774 50.5,11C 48.9194,11.7065 47.4194,12.5399 46,13.5C 45.6667,13.1667 45.3333,12.8333 45,12.5C 43.9196,14.9962 42.5862,17.3295 41,19.5C 40,19.1667 39,18.8333 38,18.5C 37.3828,19.4491 37.5494,20.2825 38.5,21C 36.9095,22.0458 35.4095,23.2125 34,24.5C 33.6667,24.1667 33.3333,23.8333 33,23.5C 32.0266,25.3921 31.3599,27.3921 31,29.5C 30.0855,25.8149 29.4189,26.1482 29,30.5C 28,29.8333 27,29.1667 26,28.5C 23.8354,30.5923 22.8354,32.9256 23,35.5C 22.6667,34.5 22.3333,33.5 22,32.5C 21.6667,34.1667 21.3333,35.8333 21,37.5C 20.6667,36.5 20.3333,35.5 20,34.5C 19.7811,35.938 19.2811,37.2713 18.5,38.5C 18.1667,37.8333 17.8333,37.1667 17.5,36.5C 15.997,37.5901 15.6637,38.7567 16.5,40C 13.584,40.0488 12.584,41.2155 13.5,43.5C 12.3687,44.6039 11.5354,44.2705 11,42.5C 10.5368,45.8567 8.8701,47.19 6,46.5C 4.35716,49.9614 2.1905,52.9614 -0.5,55.5C -0.5,36.8333 -0.5,18.1667 -0.5,-0.5 Z"/></g>
<g><path style="opacity:1" fill="#050f03" d="M 63.5,-0.5 C 71.5,-0.5 79.5,-0.5 87.5,-0.5C 85.0284,1.50007 82.8617,3.8334 81,6.5C 80.6667,6.16667 80.3333,5.83333 80,5.5C 65.974,12.676 52.974,21.3426 41,31.5C 40.6667,31.1667 40.3333,30.8333 40,30.5C 39.4389,32.7254 38.4389,34.7254 37,36.5C 36.6667,35.8333 36.3333,35.1667 36,34.5C 35.51,35.7932 35.3433,37.1266 35.5,38.5C 32.7426,38.3784 30.7426,39.5451 29.5,42C 27.1361,46.0021 23.4694,49.3355 18.5,52C 20.9316,53.0875 20.5983,53.5875 17.5,53.5C 16.3777,56.4902 14.5444,59.1569 12,61.5C 10.3333,64.5 8.66667,67.5 7,70.5C 6.66667,70.1667 6.33333,69.8333 6,69.5C 4.05619,71.2206 1.88952,72.554 -0.5,73.5C -0.5,67.5 -0.5,61.5 -0.5,55.5C 2.1905,52.9614 4.35716,49.9614 6,46.5C 8.8701,47.19 10.5368,45.8567 11,42.5C 11.5354,44.2705 12.3687,44.6039 13.5,43.5C 12.584,41.2155 13.584,40.0488 16.5,40C 15.6637,38.7567 15.997,37.5901 17.5,36.5C 17.8333,37.1667 18.1667,37.8333 18.5,38.5C 19.2811,37.2713 19.7811,35.938 20,34.5C 20.3333,35.5 20.6667,36.5 21,37.5C 21.3333,35.8333 21.6667,34.1667 22,32.5C 22.3333,33.5 22.6667,34.5 23,35.5C 22.8354,32.9256 23.8354,30.5923 26,28.5C 27,29.1667 28,29.8333 29,30.5C 29.4189,26.1482 30.0855,25.8149 31,29.5C 31.3599,27.3921 32.0266,25.3921 33,23.5C 33.3333,23.8333 33.6667,24.1667 34,24.5C 35.4095,23.2125 36.9095,22.0458 38.5,21C 37.5494,20.2825 37.3828,19.4491 38,18.5C 39,18.8333 40,19.1667 41,19.5C 42.5862,17.3295 43.9196,14.9962 45,12.5C 45.3333,12.8333 45.6667,13.1667 46,13.5C 47.4194,12.5399 48.9194,11.7065 50.5,11C 49.0439,10.5774 48.5439,9.74409 49,8.5C 49.6667,9.83333 50.3333,9.83333 51,8.5C 53.2659,12.334 53.9326,12.0007 53,7.5C 54.016,6.36589 54.6827,6.69923 55,8.5C 55.3333,7.16667 55.6667,5.83333 56,4.5C 56.3333,4.83333 56.6667,5.16667 57,5.5C 59.0073,2.62689 61.1739,0.626895 63.5,-0.5 Z"/></g>
<g><path style="opacity:1" fill="#091806" d="M 87.5,-0.5 C 98.5,-0.5 109.5,-0.5 120.5,-0.5C 114.127,1.62395 107.627,3.62395 101,5.5C 100.667,5.16667 100.333,4.83333 100,4.5C 98.5836,7.19477 96.5836,7.86144 94,6.5C 93.082,8.63236 91.7487,9.29903 90,8.5C 85.6732,11.1153 81.3399,13.7819 77,16.5C 76.586,16.0426 76.086,15.7093 75.5,15.5C 47.5438,31.3074 25.2104,54.4741 8.5,85C 5.09063,90.3219 2.09063,95.8219 -0.5,101.5C -0.5,92.1667 -0.5,82.8333 -0.5,73.5C 1.88952,72.554 4.05619,71.2206 6,69.5C 6.33333,69.8333 6.66667,70.1667 7,70.5C 8.66667,67.5 10.3333,64.5 12,61.5C 14.5444,59.1569 16.3777,56.4902 17.5,53.5C 20.5983,53.5875 20.9316,53.0875 18.5,52C 23.4694,49.3355 27.1361,46.0021 29.5,42C 30.7426,39.5451 32.7426,38.3784 35.5,38.5C 35.3433,37.1266 35.51,35.7932 36,34.5C 36.3333,35.1667 36.6667,35.8333 37,36.5C 38.4389,34.7254 39.4389,32.7254 40,30.5C 40.3333,30.8333 40.6667,31.1667 41,31.5C 52.974,21.3426 65.974,12.676 80,5.5C 80.3333,5.83333 80.6667,6.16667 81,6.5C 82.8617,3.8334 85.0284,1.50007 87.5,-0.5 Z"/></g>
<g><path style="opacity:1" fill="#0c1f0a" d="M 120.5,-0.5 C 125.167,-0.5 129.833,-0.5 134.5,-0.5C 134.389,0.117425 134.056,0.617425 133.5,1C 66.579,11.8249 23.079,47.6583 3,108.5C 2.09784,110.431 0.93117,112.097 -0.5,113.5C -0.5,109.5 -0.5,105.5 -0.5,101.5C 2.09063,95.8219 5.09063,90.3219 8.5,85C 25.2104,54.4741 47.5438,31.3074 75.5,15.5C 76.086,15.7093 76.586,16.0426 77,16.5C 81.3399,13.7819 85.6732,11.1153 90,8.5C 91.7487,9.29903 93.082,8.63236 94,6.5C 96.5836,7.86144 98.5836,7.19477 100,4.5C 100.333,4.83333 100.667,5.16667 101,5.5C 107.627,3.62395 114.127,1.62395 120.5,-0.5 Z"/></g>
<g><path style="opacity:1" fill="#0e250e" d="M 134.5,-0.5 C 140.5,-0.5 146.5,-0.5 152.5,-0.5C 151.152,0.60064 149.652,1.60064 148,2.5C 142.218,2.72088 136.385,3.88754 130.5,6C 133.742,6.28327 134.076,7.1166 131.5,8.5C 79.0865,12.7969 40.5865,39.4636 16,88.5C 12.972,96.0944 10.472,103.928 8.5,112C 8.16667,112.5 7.83333,113 7.5,113.5C 7.46695,112.011 6.96695,110.678 6,109.5C 4.31174,110.325 4.14507,111.325 5.5,112.5C 2.98432,116.993 0.984319,121.66 -0.5,126.5C -0.5,122.167 -0.5,117.833 -0.5,113.5C 0.93117,112.097 2.09784,110.431 3,108.5C 23.079,47.6583 66.579,11.8249 133.5,1C 134.056,0.617425 134.389,0.117425 134.5,-0.5 Z"/></g>
<g><path style="opacity:1" fill="#15360f" d="M 183.5,-0.5 C 192.833,-0.5 202.167,-0.5 211.5,-0.5C 207.361,3.00076 203.195,6.66743 199,10.5C 198.667,10.1667 198.333,9.83333 198,9.5C 197,10.8333 196,12.1667 195,13.5C 194.586,13.0426 194.086,12.7093 193.5,12.5C 191.379,13.3498 189.212,14.3498 187,15.5C 183.667,15.5 180.333,15.5 177,15.5C 176.333,14.8333 175.667,14.1667 175,13.5C 173.667,14.8333 172.333,14.8333 171,13.5C 170.517,14.448 170.351,15.448 170.5,16.5C 169.167,16.5 167.833,16.5 166.5,16.5C 166.649,17.552 166.483,18.552 166,19.5C 163.83,18.8491 161.663,17.5158 159.5,15.5C 159.539,14.2438 159.039,13.2438 158,12.5C 156.125,13.6231 153.958,13.6231 151.5,12.5C 151.631,11.7611 151.464,11.0944 151,10.5C 150.107,11.7112 149.274,11.7112 148.5,10.5C 149.403,8.37955 150.737,8.04622 152.5,9.5C 153.696,9.15431 153.696,8.65431 152.5,8C 153.825,8.14839 154.992,7.98173 156,7.5C 157.598,9.50893 159.598,9.50893 162,7.5C 165.515,6.90936 168.849,6.90936 172,7.5C 176.264,5.39446 180.097,2.72779 183.5,-0.5 Z"/></g>
<g><path style="opacity:1" fill="#1a4213" d="M 211.5,-0.5 C 220.5,-0.5 229.5,-0.5 238.5,-0.5C 234.948,3.14308 230.615,6.64308 225.5,10C 225.833,10.3333 226.167,10.6667 226.5,11C 222.291,12.187 219.124,14.687 217,18.5C 216.667,18.1667 216.333,17.8333 216,17.5C 213.957,19.208 212.29,21.208 211,23.5C 208.766,22.2946 207.099,22.9613 206,25.5C 202.833,25.3333 199.667,25.1667 196.5,25C 196.167,25.3333 195.833,25.6667 195.5,26C 197.651,27.4053 199.318,29.2386 200.5,31.5C 198.405,32.2294 196.572,31.5628 195,29.5C 194.667,29.8333 194.333,30.1667 194,30.5C 187.724,27.6847 181.224,25.3514 174.5,23.5C 173.914,23.7093 173.414,24.0426 173,24.5C 169.569,23.4585 165.902,22.1252 162,20.5C 159.959,20.3573 157.792,20.6906 155.5,21.5C 154.482,20.8075 153.482,20.1408 152.5,19.5C 143.13,18.083 133.464,17.2497 123.5,17C 132.156,15.7606 140.323,15.2606 148,15.5C 148.333,16.1667 148.667,16.8333 149,17.5C 151.456,16.7045 154.123,16.7045 157,17.5C 158.376,17.3158 159.209,16.6491 159.5,15.5C 161.663,17.5158 163.83,18.8491 166,19.5C 166.483,18.552 166.649,17.552 166.5,16.5C 167.833,16.5 169.167,16.5 170.5,16.5C 170.351,15.448 170.517,14.448 171,13.5C 172.333,14.8333 173.667,14.8333 175,13.5C 175.667,14.1667 176.333,14.8333 177,15.5C 180.333,15.5 183.667,15.5 187,15.5C 189.212,14.3498 191.379,13.3498 193.5,12.5C 194.086,12.7093 194.586,13.0426 195,13.5C 196,12.1667 197,10.8333 198,9.5C 198.333,9.83333 198.667,10.1667 199,10.5C 203.195,6.66743 207.361,3.00076 211.5,-0.5 Z"/></g>
<g><path style="opacity:1" fill="#1e4d15" d="M 238.5,-0.5 C 244.167,-0.5 249.833,-0.5 255.5,-0.5C 255.5,2.16667 255.5,4.83333 255.5,7.5C 253.547,8.62581 252.047,10.2925 251,12.5C 250.259,11.3595 249.425,11.3595 248.5,12.5C 247.585,14.9179 246.085,16.9179 244,18.5C 243.667,18.1667 243.333,17.8333 243,17.5C 242.097,18.7014 240.931,19.5348 239.5,20C 240.167,20.3333 240.833,20.6667 241.5,21C 237.479,21.3515 234.979,23.5182 234,27.5C 233.195,25.0989 232.362,25.2656 231.5,28C 228.456,28.3589 228.122,29.0255 230.5,30C 227.86,30.8965 225.693,32.3965 224,34.5C 222.417,32.0072 220.917,32.1738 219.5,35C 216.291,33.7722 213.791,34.6055 212,37.5C 211.667,36.1667 211.333,34.8333 211,33.5C 210.333,36.1667 209.667,36.1667 209,33.5C 208.293,35.0806 207.46,36.5806 206.5,38C 207.737,38.2321 208.737,38.7321 209.5,39.5C 208.668,40.3285 209.001,41.1618 210.5,42C 206.869,43.1178 203.702,41.9511 201,38.5C 198.903,38.3062 196.737,38.3062 194.5,38.5C 194.704,37.4706 194.204,36.4706 193,35.5C 192.23,36.5981 191.397,36.5981 190.5,35.5C 178.652,28.7013 165.986,24.0346 152.5,21.5C 152.5,20.8333 152.5,20.1667 152.5,19.5C 153.482,20.1408 154.482,20.8075 155.5,21.5C 157.792,20.6906 159.959,20.3573 162,20.5C 165.902,22.1252 169.569,23.4585 173,24.5C 173.414,24.0426 173.914,23.7093 174.5,23.5C 181.224,25.3514 187.724,27.6847 194,30.5C 194.333,30.1667 194.667,29.8333 195,29.5C 196.572,31.5628 198.405,32.2294 200.5,31.5C 199.318,29.2386 197.651,27.4053 195.5,26C 195.833,25.6667 196.167,25.3333 196.5,25C 199.667,25.1667 202.833,25.3333 206,25.5C 207.099,22.9613 208.766,22.2946 211,23.5C 212.29,21.208 213.957,19.208 216,17.5C 216.333,17.8333 216.667,18.1667 217,18.5C 219.124,14.687 222.291,12.187 226.5,11C 226.167,10.6667 225.833,10.3333 225.5,10C 230.615,6.64308 234.948,3.14308 238.5,-0.5 Z"/></g>
<g><path style="opacity:1" fill="#205215" d="M 255.5,7.5 C 255.5,11.1667 255.5,14.8333 255.5,18.5C 252.203,20.4346 248.536,23.6012 244.5,28C 242.774,29.5298 240.774,30.5298 238.5,31C 239.167,31.3333 239.833,31.6667 240.5,32C 237.791,32.5408 235.791,34.0408 234.5,36.5C 232.786,35.3915 232.119,36.0582 232.5,38.5C 229.421,38.8042 226.587,39.8042 224,41.5C 222.853,40.5419 221.853,40.8753 221,42.5C 217.25,41.1947 213.417,40.1947 209.5,39.5C 208.737,38.7321 207.737,38.2321 206.5,38C 207.46,36.5806 208.293,35.0806 209,33.5C 209.667,36.1667 210.333,36.1667 211,33.5C 211.333,34.8333 211.667,36.1667 212,37.5C 213.791,34.6055 216.291,33.7722 219.5,35C 220.917,32.1738 222.417,32.0072 224,34.5C 225.693,32.3965 227.86,30.8965 230.5,30C 228.122,29.0255 228.456,28.3589 231.5,28C 232.362,25.2656 233.195,25.0989 234,27.5C 234.979,23.5182 237.479,21.3515 241.5,21C 240.833,20.6667 240.167,20.3333 239.5,20C 240.931,19.5348 242.097,18.7014 243,17.5C 243.333,17.8333 243.667,18.1667 244,18.5C 246.085,16.9179 247.585,14.9179 248.5,12.5C 249.425,11.3595 250.259,11.3595 251,12.5C 252.047,10.2925 253.547,8.62581 255.5,7.5 Z"/></g>
<g><path style="opacity:1" fill="#153115" d="M 152.5,-0.5 C 162.833,-0.5 173.167,-0.5 183.5,-0.5C 180.097,2.72779 176.264,5.39446 172,7.5C 168.849,6.90936 165.515,6.90936 162,7.5C 159.598,9.50893 157.598,9.50893 156,7.5C 154.992,7.98173 153.825,8.14839 152.5,8C 153.696,8.65431 153.696,9.15431 152.5,9.5C 150.737,8.04622 149.403,8.37955 148.5,10.5C 149.274,11.7112 150.107,11.7112 151,10.5C 151.464,11.0944 151.631,11.7611 151.5,12.5C 147.924,11.5918 144.424,11.5918 141,12.5C 139.721,10.0629 138.221,9.56292 136.5,11C 136.833,11.3333 137.167,11.6667 137.5,12C 97.58,12.7016 64.4134,28.5349 38,59.5C 21.4691,81.5452 11.9691,106.212 9.5,133.5C 9.49586,131.158 8.66253,129.158 7,127.5C 6.38277,128.449 6.54943,129.282 7.5,130C 6.58377,130.374 5.75044,130.874 5,131.5C 4,138.167 3,144.833 2,151.5C 1.14825,152.571 0.314913,153.571 -0.5,154.5C -0.5,145.167 -0.5,135.833 -0.5,126.5C 0.984319,121.66 2.98432,116.993 5.5,112.5C 4.14507,111.325 4.31174,110.325 6,109.5C 6.96695,110.678 7.46695,112.011 7.5,113.5C 7.83333,113 8.16667,112.5 8.5,112C 10.472,103.928 12.972,96.0944 16,88.5C 40.5865,39.4636 79.0865,12.7969 131.5,8.5C 134.076,7.1166 133.742,6.28327 130.5,6C 136.385,3.88754 142.218,2.72088 148,2.5C 149.652,1.60064 151.152,0.60064 152.5,-0.5 Z"/></g>
<g><path style="opacity:1" fill="#245a18" d="M 255.5,18.5 C 255.5,27.5 255.5,36.5 255.5,45.5C 253.621,45.3932 253.288,45.8932 254.5,47C 253.207,47.49 251.873,47.6567 250.5,47.5C 249.386,50.775 247.053,52.9417 243.5,54C 243.07,54.9195 242.736,55.7528 242.5,56.5C 241.833,56.1667 241.167,55.8333 240.5,55.5C 239.167,56.5 237.833,57.5 236.5,58.5C 235.5,57.1667 234.5,57.1667 233.5,58.5C 232.803,56.6155 231.803,56.2822 230.5,57.5C 228.795,55.6973 226.962,55.0306 225,55.5C 224.833,55.8333 224.667,56.1667 224.5,56.5C 225.833,57.1667 227.167,57.8333 228.5,58.5C 227.113,58.8072 225.446,58.8072 223.5,58.5C 214.736,51.4613 205.403,45.4613 195.5,40.5C 192.866,39.8666 191.2,38.1999 190.5,35.5C 191.397,36.5981 192.23,36.5981 193,35.5C 194.204,36.4706 194.704,37.4706 194.5,38.5C 196.737,38.3062 198.903,38.3062 201,38.5C 203.702,41.9511 206.869,43.1178 210.5,42C 209.001,41.1618 208.668,40.3285 209.5,39.5C 213.417,40.1947 217.25,41.1947 221,42.5C 221.853,40.8753 222.853,40.5419 224,41.5C 226.587,39.8042 229.421,38.8042 232.5,38.5C 232.119,36.0582 232.786,35.3915 234.5,36.5C 235.791,34.0408 237.791,32.5408 240.5,32C 239.833,31.6667 239.167,31.3333 238.5,31C 240.774,30.5298 242.774,29.5298 244.5,28C 248.536,23.6012 252.203,20.4346 255.5,18.5 Z"/></g>
<g><path style="opacity:1" fill="#28532f" d="M 130.5,18.5 C 98.1481,21.7862 70.6481,35.1195 48,58.5C 27.5674,82.6242 17.734,110.624 18.5,142.5C 17.8333,140.167 17.1667,137.833 16.5,135.5C 16.0618,135.565 15.7284,135.399 15.5,135C 16.4158,134.722 17.0825,134.222 17.5,133.5C 20.2351,81.5372 45.5684,45.3705 93.5,25C 105.511,21.1091 117.844,18.9425 130.5,18.5 Z"/></g>
<g><path style="opacity:1" fill="#1e4322" d="M 151.5,12.5 C 153.958,13.6231 156.125,13.6231 158,12.5C 159.039,13.2438 159.539,14.2438 159.5,15.5C 159.209,16.6491 158.376,17.3158 157,17.5C 154.123,16.7045 151.456,16.7045 149,17.5C 148.667,16.8333 148.333,16.1667 148,15.5C 140.323,15.2606 132.156,15.7606 123.5,17C 133.464,17.2497 143.13,18.083 152.5,19.5C 152.5,20.1667 152.5,20.8333 152.5,21.5C 150.634,20.9862 148.8,20.3195 147,19.5C 144.45,20.8765 142.117,20.5431 140,18.5C 136.901,18.6728 133.735,18.6728 130.5,18.5C 117.844,18.9425 105.511,21.1091 93.5,25C 45.5684,45.3705 20.2351,81.5372 17.5,133.5C 15.8031,131.695 14.9698,129.361 15,126.5C 14.7745,130.826 13.9411,134.993 12.5,139C 12.3573,141.041 12.6906,143.208 13.5,145.5C 12.9953,146.919 11.9953,147.585 10.5,147.5C 9.97181,144.333 9.30515,141.166 8.5,138C 8.50848,136.293 8.84182,134.793 9.5,133.5C 11.9691,106.212 21.4691,81.5452 38,59.5C 64.4134,28.5349 97.58,12.7016 137.5,12C 137.167,11.6667 136.833,11.3333 136.5,11C 138.221,9.56292 139.721,10.0629 141,12.5C 144.424,11.5918 147.924,11.5918 151.5,12.5 Z"/></g>
<g><path style="opacity:1" fill="#2f6135" d="M 130.5,18.5 C 133.735,18.6728 136.901,18.6728 140,18.5C 142.117,20.5431 144.45,20.8765 147,19.5C 148.8,20.3195 150.634,20.9862 152.5,21.5C 165.986,24.0346 178.652,28.7013 190.5,35.5C 191.2,38.1999 192.866,39.8666 195.5,40.5C 196.463,41.3635 196.463,42.0302 195.5,42.5C 189.419,38.8341 183.086,35.6674 176.5,33C 172.963,31.5133 169.63,30.68 166.5,30.5C 164.715,28.4774 162.549,26.8107 160,25.5C 159.282,26.4506 158.449,26.6172 157.5,26C 158.696,25.3457 158.696,24.8457 157.5,24.5C 152.896,25.7239 148.396,25.3906 144,23.5C 130.027,23.6343 116.193,25.3009 102.5,28.5C 93.7297,31.368 85.063,34.5347 76.5,38C 71.8952,42.2155 66.8952,45.8822 61.5,49C 55.4398,55.6375 49.2732,62.1375 43,68.5C 26.7035,93.6781 20.2035,121.011 23.5,150.5C 24.4037,150.535 25.0704,151.035 25.5,152C 24.8042,154.407 24.4709,156.74 24.5,159C 26.529,166.254 28.8624,173.421 31.5,180.5C 31.5875,183.598 31.0875,183.932 30,181.5C 29.6667,182.5 29.3333,183.5 29,184.5C 28.7216,183.584 28.2216,182.918 27.5,182.5C 22.6353,169.697 19.6353,156.364 18.5,142.5C 17.734,110.624 27.5674,82.6242 48,58.5C 70.6481,35.1195 98.1481,21.7862 130.5,18.5 Z"/></g>
<g><path style="opacity:1" fill="#28671b" d="M 255.5,45.5 C 255.5,52.1667 255.5,58.8333 255.5,65.5C 253.952,65.8212 253.285,66.8212 253.5,68.5C 251.339,68.8258 249.506,69.8258 248,71.5C 245.145,72.0714 242.145,72.0714 239,71.5C 238.667,72.8333 238.333,74.1667 238,75.5C 237.275,76.0585 236.442,76.3918 235.5,76.5C 231.964,74.3454 228.631,71.1787 225.5,67C 223.509,66.6264 221.842,65.793 220.5,64.5C 220.611,63.8826 220.944,63.3826 221.5,63C 220.07,61.114 218.403,59.4473 216.5,58C 220.169,57.7877 223.003,59.2877 225,62.5C 225.5,62 226,61.5 226.5,61C 225.429,60.1482 224.429,59.3149 223.5,58.5C 225.446,58.8072 227.113,58.8072 228.5,58.5C 227.167,57.8333 225.833,57.1667 224.5,56.5C 224.667,56.1667 224.833,55.8333 225,55.5C 226.962,55.0306 228.795,55.6973 230.5,57.5C 231.803,56.2822 232.803,56.6155 233.5,58.5C 234.5,57.1667 235.5,57.1667 236.5,58.5C 237.833,57.5 239.167,56.5 240.5,55.5C 241.167,55.8333 241.833,56.1667 242.5,56.5C 242.736,55.7528 243.07,54.9195 243.5,54C 247.053,52.9417 249.386,50.775 250.5,47.5C 251.873,47.6567 253.207,47.49 254.5,47C 253.288,45.8932 253.621,45.3932 255.5,45.5 Z"/></g>
<g><path style="opacity:1" fill="#444545" d="M 150.5,44.5 C 163.278,47.3809 174.278,53.5476 183.5,63C 185.65,64.4114 187.984,65.2447 190.5,65.5C 185.038,67.6145 180.372,70.9478 176.5,75.5C 186.689,85.5394 193.522,97.5394 197,111.5C 198.776,112.536 200.609,112.536 202.5,111.5C 202.389,112.117 202.056,112.617 201.5,113C 199.167,113.667 196.833,113.667 194.5,113C 192.487,109.873 190.82,106.707 189.5,103.5C 186.884,96.2681 183.217,89.6015 178.5,83.5C 162.143,67.3803 142.476,59.7136 119.5,60.5C 120.598,59.603 120.598,58.7697 119.5,58C 124.489,57.5007 129.489,57.3341 134.5,57.5C 139.5,58.1667 144.5,58.8333 149.5,59.5C 150.329,54.547 150.663,49.547 150.5,44.5 Z"/></g>
<g><path style="opacity:1" fill="#316e30" d="M 152.5,28.5 C 152.917,27.8761 153.584,27.5427 154.5,27.5C 158.596,28.251 162.596,29.251 166.5,30.5C 169.63,30.68 172.963,31.5133 176.5,33C 183.086,35.6674 189.419,38.8341 195.5,42.5C 196.463,42.0302 196.463,41.3635 195.5,40.5C 205.403,45.4613 214.736,51.4613 223.5,58.5C 224.429,59.3149 225.429,60.1482 226.5,61C 226,61.5 225.5,62 225,62.5C 223.003,59.2877 220.169,57.7877 216.5,58C 218.403,59.4473 220.07,61.114 221.5,63C 220.944,63.3826 220.611,63.8826 220.5,64.5C 219.206,63.7101 218.039,62.7101 217,61.5C 216.667,61.8333 216.333,62.1667 216,62.5C 214.956,61.3774 214.29,60.0441 214,58.5C 213.23,59.5981 212.397,59.5981 211.5,58.5C 195.478,45.1786 178.145,35.8452 159.5,30.5C 158.549,31.3256 157.549,31.4922 156.5,31C 157.696,30.3457 157.696,29.8457 156.5,29.5C 155.232,30.4279 153.899,30.5946 152.5,30C 153.738,29.31 153.738,28.81 152.5,28.5 Z"/></g>
<g><path style="opacity:1" fill="#363837" d="M 108.5,38.5 C 107.329,39.3446 105.995,40.0113 104.5,40.5C 103.566,41.5676 103.232,42.901 103.5,44.5C 95.4923,46.782 87.8257,49.9487 80.5,54C 75.2561,58.0956 69.9228,61.9289 64.5,65.5C 62.0968,65.393 60.2635,66.393 59,68.5C 49.9155,79.0023 43.7489,91.0023 40.5,104.5C 39.2223,104.782 38.2223,105.449 37.5,106.5C 46.928,73.9038 67.5946,51.7371 99.5,40C 102.432,39.0467 105.432,38.5467 108.5,38.5 Z"/></g>
<g><path style="opacity:1" fill="#242625" d="M 152.5,39.5 C 167.836,43.8204 181.169,51.487 192.5,62.5C 192.833,63.1667 193.167,63.8333 193.5,64.5C 192.508,64.3284 191.842,64.6618 191.5,65.5C 191.167,65.5 190.833,65.5 190.5,65.5C 187.984,65.2447 185.65,64.4114 183.5,63C 174.278,53.5476 163.278,47.3809 150.5,44.5C 150.567,43.0413 150.234,41.7079 149.5,40.5C 150.209,39.596 151.209,39.2627 152.5,39.5 Z"/></g>
<g><path style="opacity:1" fill="#408746" d="M 152.5,28.5 C 153.738,28.81 153.738,29.31 152.5,30C 153.899,30.5946 155.232,30.4279 156.5,29.5C 157.696,29.8457 157.696,30.3457 156.5,31C 157.549,31.4922 158.549,31.3256 159.5,30.5C 178.145,35.8452 195.478,45.1786 211.5,58.5C 213.796,62.2484 216.463,65.7484 219.5,69C 217.014,69.7051 217.014,70.5384 219.5,71.5C 219.84,73.679 220.84,75.5123 222.5,77C 221.185,78.3946 221.519,79.3946 223.5,80C 223.201,81.3204 223.034,82.8204 223,84.5C 221.904,81.2333 219.737,79.2333 216.5,78.5C 216.918,77.7784 217.584,77.2784 218.5,77C 217.638,74.2656 216.805,74.0989 216,76.5C 206.6,63.2414 194.766,52.9081 180.5,45.5C 171.972,39.6345 162.972,35.4679 153.5,33C 154.696,32.3457 154.696,31.8457 153.5,31.5C 151.568,32.5202 149.568,32.6869 147.5,32C 148.5,31.6667 149.5,31.3333 150.5,31C 148.32,30.5812 146.154,30.7479 144,31.5C 142.624,31.3158 141.791,30.6491 141.5,29.5C 143.451,29.7733 144.951,29.1066 146,27.5C 147.825,29.8238 149.991,30.1572 152.5,28.5 Z"/></g>
<g><path style="opacity:1" fill="#717173" d="M 103.5,44.5 C 103.628,48.8814 103.295,53.2147 102.5,57.5C 100.334,57.4211 98.3337,56.7545 96.5,55.5C 94.9707,55.5288 93.804,56.1955 93,57.5C 89.6197,57.2135 86.2864,57.2135 83,57.5C 81.1741,59.0738 79.0075,59.9071 76.5,60C 76.8333,60.3333 77.1667,60.6667 77.5,61C 76.0254,64.2913 74.0254,67.1246 71.5,69.5C 68.8997,68.5324 66.5664,67.1991 64.5,65.5C 69.9228,61.9289 75.2561,58.0956 80.5,54C 87.8257,49.9487 95.4923,46.782 103.5,44.5 Z"/></g>
<g><path style="opacity:1" fill="#7f8082" d="M 104.5,40.5 C 104.5,46.8333 104.5,53.1667 104.5,59.5C 114.473,56.5033 124.473,55.8367 134.5,57.5C 129.489,57.3341 124.489,57.5007 119.5,58C 120.598,58.7697 120.598,59.603 119.5,60.5C 115.603,61.0552 111.937,62.0552 108.5,63.5C 104.534,64.0439 100.867,65.3772 97.5,67.5C 97.5106,65.9826 98.1772,64.8159 99.5,64C 98.1667,63.6667 96.8333,63.3333 95.5,63C 95.9574,62.586 96.2907,62.086 96.5,61.5C 93.5541,60.3452 90.5541,60.1786 87.5,61C 83.0268,64.5381 78.6935,68.0381 74.5,71.5C 73.2905,71.0679 72.2905,70.4013 71.5,69.5C 74.0254,67.1246 76.0254,64.2913 77.5,61C 77.1667,60.6667 76.8333,60.3333 76.5,60C 79.0075,59.9071 81.1741,59.0738 83,57.5C 86.2864,57.2135 89.6197,57.2135 93,57.5C 93.804,56.1955 94.9707,55.5288 96.5,55.5C 98.3337,56.7545 100.334,57.4211 102.5,57.5C 103.295,53.2147 103.628,48.8814 103.5,44.5C 103.232,42.901 103.566,41.5676 104.5,40.5 Z"/></g>
<g><path style="opacity:1" fill="#e7e3e2" d="M 190.5,65.5 C 190.833,65.5 191.167,65.5 191.5,65.5C 192.239,65.369 192.906,65.5357 193.5,66C 197.635,70.4784 201.635,74.9784 205.5,79.5C 207.659,85.1511 210.326,90.4844 213.5,95.5C 214.329,98.4686 214.495,101.469 214,104.5C 210.527,107.484 206.694,109.817 202.5,111.5C 200.609,112.536 198.776,112.536 197,111.5C 193.522,97.5394 186.689,85.5394 176.5,75.5C 180.372,70.9478 185.038,67.6145 190.5,65.5 Z"/></g>
<g><path style="opacity:1" fill="#47544b" d="M 191.5,65.5 C 191.842,64.6618 192.508,64.3284 193.5,64.5C 198.928,68.2713 202.928,73.2713 205.5,79.5C 201.635,74.9784 197.635,70.4784 193.5,66C 192.906,65.5357 192.239,65.369 191.5,65.5 Z"/></g>
<g><path style="opacity:1" fill="#eceae9" d="M 64.5,65.5 C 66.5664,67.1991 68.8997,68.5324 71.5,69.5C 72.2905,70.4013 73.2905,71.0679 74.5,71.5C 75.5736,72.8846 76.9069,74.0513 78.5,75C 77.6195,75.7083 76.9528,76.5416 76.5,77.5C 71.871,81.432 68.2044,86.0986 65.5,91.5C 61.0764,97.2384 58.0764,103.738 56.5,111C 56.1639,112.03 55.4972,112.53 54.5,112.5C 49.7156,110.942 45.3822,108.609 41.5,105.5C 40.8333,105.5 40.5,105.167 40.5,104.5C 43.7489,91.0023 49.9155,79.0023 59,68.5C 60.2635,66.393 62.0968,65.393 64.5,65.5 Z"/></g>
<g><path style="opacity:1" fill="#acacad" d="M 97.5,67.5 C 91.0434,69.9587 85.3767,73.6253 80.5,78.5C 79.0413,78.5674 77.7079,78.2341 76.5,77.5C 76.9528,76.5416 77.6195,75.7083 78.5,75C 76.9069,74.0513 75.5736,72.8846 74.5,71.5C 78.6935,68.0381 83.0268,64.5381 87.5,61C 90.5541,60.1786 93.5541,60.3452 96.5,61.5C 96.2907,62.086 95.9574,62.586 95.5,63C 96.8333,63.3333 98.1667,63.6667 99.5,64C 98.1772,64.8159 97.5106,65.9826 97.5,67.5 Z"/></g>
<g><path style="opacity:1" fill="#539e66" d="M 140.5,29.5 C 140.833,29.5 141.167,29.5 141.5,29.5C 141.791,30.6491 142.624,31.3158 144,31.5C 146.154,30.7479 148.32,30.5812 150.5,31C 149.5,31.3333 148.5,31.6667 147.5,32C 149.568,32.6869 151.568,32.5202 153.5,31.5C 154.696,31.8457 154.696,32.3457 153.5,33C 162.972,35.4679 171.972,39.6345 180.5,45.5C 180.574,47.4109 181.574,48.5776 183.5,49C 183.167,49.3333 182.833,49.6667 182.5,50C 186.334,53.0024 190,56.1691 193.5,59.5C 193.443,60.609 193.11,61.609 192.5,62.5C 181.169,51.487 167.836,43.8204 152.5,39.5C 143.46,37.1214 134.127,36.1214 124.5,36.5C 119.5,36.6667 114.5,36.8333 109.5,37C 108.944,37.3826 108.611,37.8826 108.5,38.5C 105.432,38.5467 102.432,39.0467 99.5,40C 67.5946,51.7371 46.928,73.9038 37.5,106.5C 35.1706,119.096 34.8373,131.763 36.5,144.5C 35.0801,136.032 34.0801,127.366 33.5,118.5C 32.3351,126.479 32.1684,134.479 33,142.5C 35.2102,150.96 37.7102,159.294 40.5,167.5C 39.7784,167.918 39.2784,168.584 39,169.5C 38.7811,168.062 38.2811,166.729 37.5,165.5C 37.5953,166.691 37.262,168.025 36.5,169.5C 33.1297,161.883 30.6297,153.883 29,145.5C 28.4444,147.595 27.9444,147.762 27.5,146C 28.7994,138.344 28.7994,130.678 27.5,123C 27.6667,122.167 27.8333,121.333 28,120.5C 28.3333,121.833 28.6667,123.167 29,124.5C 33.9899,82.1083 55.8233,52.9416 94.5,37C 109.737,31.7887 125.07,29.2887 140.5,29.5 Z"/></g>
<g><path style="opacity:1" fill="#e8e4e3" d="M 149.5,40.5 C 150.234,41.7079 150.567,43.0413 150.5,44.5C 150.663,49.547 150.329,54.547 149.5,59.5C 144.5,58.8333 139.5,58.1667 134.5,57.5C 124.473,55.8367 114.473,56.5033 104.5,59.5C 104.5,53.1667 104.5,46.8333 104.5,40.5C 105.995,40.0113 107.329,39.3446 108.5,38.5C 121.187,37.0009 133.854,37.1676 146.5,39C 147.527,39.5133 148.527,40.0133 149.5,40.5 Z"/></g>
<g><path style="opacity:1" fill="#434d46" d="M 152.5,39.5 C 151.209,39.2627 150.209,39.596 149.5,40.5C 148.527,40.0133 147.527,39.5133 146.5,39C 133.854,37.1676 121.187,37.0009 108.5,38.5C 108.611,37.8826 108.944,37.3826 109.5,37C 114.5,36.8333 119.5,36.6667 124.5,36.5C 134.127,36.1214 143.46,37.1214 152.5,39.5 Z"/></g>
<g><path style="opacity:1" fill="#438653" d="M 140.5,29.5 C 125.07,29.2887 109.737,31.7887 94.5,37C 55.8233,52.9416 33.9899,82.1083 29,124.5C 28.6667,123.167 28.3333,121.833 28,120.5C 27.8333,121.333 27.6667,122.167 27.5,123C 28.7994,130.678 28.7994,138.344 27.5,146C 27.9444,147.762 28.4444,147.595 29,145.5C 30.6297,153.883 33.1297,161.883 36.5,169.5C 38.0285,174.811 39.6952,179.811 41.5,184.5C 40.7932,188.075 39.7932,188.242 38.5,185C 40.0067,183.333 39.6734,182.166 37.5,181.5C 30.5353,166.6 26.202,150.933 24.5,134.5C 24.9036,102.548 36.5702,75.7149 59.5,54C 66.0797,50.4263 72.413,46.4263 78.5,42C 87.3599,38.0727 96.3599,34.4061 105.5,31C 113.737,30.0244 121.904,28.8578 130,27.5C 133.743,27.4875 137.243,28.1542 140.5,29.5 Z"/></g>
<g><path style="opacity:1" fill="#bef3cd" d="M 133.5,67.5 C 128.5,68.1667 123.5,68.8333 118.5,69.5C 116.621,70.3414 114.621,70.6747 112.5,70.5C 109.888,71.3705 107.221,72.0372 104.5,72.5C 103.5,72.5 102.5,72.5 101.5,72.5C 105.277,70.7099 109.277,69.2099 113.5,68C 120.158,67.5004 126.825,67.3337 133.5,67.5 Z"/></g>
<g><path style="opacity:1" fill="#727273" d="M 121.5,69.5 C 123.167,69.5 124.833,69.5 126.5,69.5C 128.071,72.7787 129.738,76.1121 131.5,79.5C 131.368,81.601 130.368,83.101 128.5,84C 128.833,84.3333 129.167,84.6667 129.5,85C 128.151,85.7724 127.318,86.9391 127,88.5C 124.313,87.287 121.48,86.6203 118.5,86.5C 118.5,86.1667 118.5,85.8333 118.5,85.5C 121.842,84.6642 124.176,82.6642 125.5,79.5C 124.132,76.1097 122.799,72.7764 121.5,69.5 Z"/></g>
<g><path style="opacity:1" fill="#2b362e" d="M 108.5,63.5 C 109.552,65.256 111.219,65.9227 113.5,65.5C 101.999,68.128 91.6657,73.2947 82.5,81C 78.5899,85.2359 75.0899,89.7359 72,94.5C 71.0991,97.0707 69.7658,99.404 68,101.5C 67.51,102.793 67.3433,104.127 67.5,105.5C 66.5139,107.426 65.5139,109.426 64.5,111.5C 64.1667,111.5 63.8333,111.5 63.5,111.5C 62.8902,110.609 62.5569,109.609 62.5,108.5C 63.5828,102.845 65.5828,97.5118 68.5,92.5C 72.0963,87.5641 76.0963,82.8974 80.5,78.5C 85.3767,73.6253 91.0434,69.9587 97.5,67.5C 100.867,65.3772 104.534,64.0439 108.5,63.5 Z"/></g>
<g><path style="opacity:1" fill="#5b605e" d="M 126.5,69.5 C 132.857,69.4763 139.19,69.8096 145.5,70.5C 148.534,73.0164 151.868,75.0164 155.5,76.5C 149.561,74.6037 143.727,72.6037 138,70.5C 137.25,71.1258 136.416,71.6258 135.5,72C 138.075,76.0561 140.075,80.3894 141.5,85C 138.829,87.5976 135.495,90.0976 131.5,92.5C 129.442,91.0669 127.108,90.4003 124.5,90.5C 122.147,89.6597 120.147,88.3264 118.5,86.5C 121.48,86.6203 124.313,87.287 127,88.5C 127.318,86.9391 128.151,85.7724 129.5,85C 129.167,84.6667 128.833,84.3333 128.5,84C 130.368,83.101 131.368,81.601 131.5,79.5C 129.738,76.1121 128.071,72.7787 126.5,69.5 Z"/></g>
<g><path style="opacity:1" fill="#858688" d="M 118.5,69.5 C 119.5,69.5 120.5,69.5 121.5,69.5C 122.799,72.7764 124.132,76.1097 125.5,79.5C 124.176,82.6642 121.842,84.6642 118.5,85.5C 116.833,84.1667 115.167,82.8333 113.5,81.5C 114.239,81.631 114.906,81.4643 115.5,81C 114.26,78.088 112.594,75.4213 110.5,73C 111.381,72.2917 112.047,71.4584 112.5,70.5C 114.621,70.6747 116.621,70.3414 118.5,69.5 Z"/></g>
<g><path style="opacity:1" fill="#51ce7d" d="M 145.5,67.5 C 146.59,68.8571 147.924,69.8571 149.5,70.5C 148.167,70.5 146.833,70.5 145.5,70.5C 141.837,68.5841 137.837,67.5841 133.5,67.5C 126.825,67.3337 120.158,67.5004 113.5,68C 109.277,69.2099 105.277,70.7099 101.5,72.5C 93.8357,75.4852 87.5024,80.1518 82.5,86.5C 77.4651,90.8937 73.4651,96.227 70.5,102.5C 69.2719,103.306 68.2719,104.306 67.5,105.5C 67.3433,104.127 67.51,102.793 68,101.5C 69.7658,99.404 71.0991,97.0707 72,94.5C 75.0899,89.7359 78.5899,85.2359 82.5,81C 91.6657,73.2947 101.999,68.128 113.5,65.5C 124.279,63.8394 134.946,64.506 145.5,67.5 Z"/></g>
<g><path style="opacity:1" fill="#90dda5" d="M 133.5,67.5 C 137.837,67.5841 141.837,68.5841 145.5,70.5C 139.19,69.8096 132.857,69.4763 126.5,69.5C 124.833,69.5 123.167,69.5 121.5,69.5C 120.5,69.5 119.5,69.5 118.5,69.5C 123.5,68.8333 128.5,68.1667 133.5,67.5 Z"/></g>
<g><path style="opacity:1" fill="#4e4f50" d="M 155.5,76.5 C 156.833,77.5 158.167,78.5 159.5,79.5C 158.811,80.7736 157.977,80.7736 157,79.5C 156.833,80 156.667,80.5 156.5,81C 156.892,82.0105 157.559,82.5105 158.5,82.5C 156.889,85.2198 156.056,88.2198 156,91.5C 154.644,92.3802 153.144,92.7135 151.5,92.5C 151.762,93.9778 151.429,95.3112 150.5,96.5C 148.5,97.5 146.5,98.5 144.5,99.5C 143.833,98.5 143.167,97.5 142.5,96.5C 142.002,97.6034 141.669,98.6034 141.5,99.5C 137.75,97.6367 134.417,95.3034 131.5,92.5C 135.495,90.0976 138.829,87.5976 141.5,85C 140.075,80.3894 138.075,76.0561 135.5,72C 136.416,71.6258 137.25,71.1258 138,70.5C 143.727,72.6037 149.561,74.6037 155.5,76.5 Z"/></g>
<g><path style="opacity:1" fill="#2e7320" d="M 211.5,58.5 C 212.397,59.5981 213.23,59.5981 214,58.5C 214.29,60.0441 214.956,61.3774 216,62.5C 216.333,62.1667 216.667,61.8333 217,61.5C 218.039,62.7101 219.206,63.7101 220.5,64.5C 221.842,65.793 223.509,66.6264 225.5,67C 228.631,71.1787 231.964,74.3454 235.5,76.5C 236.442,76.3918 237.275,76.0585 238,75.5C 238.333,74.1667 238.667,72.8333 239,71.5C 242.145,72.0714 245.145,72.0714 248,71.5C 249.506,69.8258 251.339,68.8258 253.5,68.5C 253.285,66.8212 253.952,65.8212 255.5,65.5C 255.5,73.1667 255.5,80.8333 255.5,88.5C 254.778,88.9175 254.278,89.5842 254,90.5C 252.135,88.3268 249.969,87.9934 247.5,89.5C 246.117,86.9244 245.283,87.2577 245,90.5C 244.585,88.7091 243.585,87.3757 242,86.5C 240.084,88.0223 237.917,89.0223 235.5,89.5C 230.567,83.2282 225.233,77.2282 219.5,71.5C 217.014,70.5384 217.014,69.7051 219.5,69C 216.463,65.7484 213.796,62.2484 211.5,58.5 Z"/></g>
<g><path style="opacity:1" fill="#d8f7e0" d="M 101.5,72.5 C 95.4387,77.0643 89.6054,82.0643 84,87.5C 83.6174,86.944 83.1174,86.6107 82.5,86.5C 87.5024,80.1518 93.8357,75.4852 101.5,72.5 Z"/></g>
<g><path style="opacity:1" fill="#ababad" d="M 112.5,70.5 C 112.047,71.4584 111.381,72.2917 110.5,73C 112.594,75.4213 114.26,78.088 115.5,81C 114.906,81.4643 114.239,81.631 113.5,81.5C 111.95,80.5592 110.284,79.8925 108.5,79.5C 106.68,77.5516 104.346,76.5516 101.5,76.5C 102.263,75.7321 103.263,75.2321 104.5,75C 103.402,74.2303 103.402,73.397 104.5,72.5C 107.221,72.0372 109.888,71.3705 112.5,70.5 Z"/></g>
<g><path style="opacity:1" fill="#73ee56" d="M 108.5,79.5 C 111.125,82.8152 114.458,85.1486 118.5,86.5C 120.147,88.3264 122.147,89.6597 124.5,90.5C 129.445,93.4453 134.112,96.7786 138.5,100.5C 139.052,102.331 139.052,103.997 138.5,105.5C 141.05,108.745 140.383,109.245 136.5,107C 137.451,106.282 137.617,105.449 137,104.5C 136,104.167 135,103.833 134,103.5C 133.308,104.025 132.808,104.692 132.5,105.5C 133.612,106.265 134.279,107.265 134.5,108.5C 126.861,103.677 119.195,98.8441 111.5,94C 108.386,93.5572 106.052,94.7238 104.5,97.5C 103.21,96.9423 102.377,95.9423 102,94.5C 100.514,97.8502 99.347,101.184 98.5,104.5C 98.3336,96.4931 98.5003,88.4931 99,80.5C 101.887,78.161 105.054,77.8276 108.5,79.5 Z"/></g>
<g><path style="opacity:1" fill="#30442f" d="M 108.5,79.5 C 110.284,79.8925 111.95,80.5592 113.5,81.5C 115.167,82.8333 116.833,84.1667 118.5,85.5C 118.5,85.8333 118.5,86.1667 118.5,86.5C 114.458,85.1486 111.125,82.8152 108.5,79.5 Z"/></g>
<g><path style="opacity:1" fill="#3f4440" d="M 159.5,79.5 C 166.758,82.4243 172.092,87.4243 175.5,94.5C 172.832,92.6645 170.666,90.3312 169,87.5C 167.69,90.127 166.023,92.4603 164,94.5C 163.667,95.8333 163.333,97.1667 163,98.5C 161.467,98.0563 159.967,97.723 158.5,97.5C 157.808,98.0253 157.308,98.6919 157,99.5C 156.002,96.9722 155.169,96.9722 154.5,99.5C 154.529,101.029 155.196,102.196 156.5,103C 160.975,106.804 165.475,110.637 170,114.5C 170.972,116.305 172.139,117.972 173.5,119.5C 172.675,120.386 171.675,120.719 170.5,120.5C 159.585,114.256 148.918,107.589 138.5,100.5C 134.112,96.7786 129.445,93.4453 124.5,90.5C 127.108,90.4003 129.442,91.0669 131.5,92.5C 134.417,95.3034 137.75,97.6367 141.5,99.5C 141.669,98.6034 142.002,97.6034 142.5,96.5C 143.167,97.5 143.833,98.5 144.5,99.5C 146.5,98.5 148.5,97.5 150.5,96.5C 151.429,95.3112 151.762,93.9778 151.5,92.5C 153.144,92.7135 154.644,92.3802 156,91.5C 156.056,88.2198 156.889,85.2198 158.5,82.5C 157.559,82.5105 156.892,82.0105 156.5,81C 156.667,80.5 156.833,80 157,79.5C 157.977,80.7736 158.811,80.7736 159.5,79.5 Z"/></g>
<g><path style="opacity:1" fill="#51a75e" d="M 180.5,45.5 C 194.766,52.9081 206.6,63.2414 216,76.5C 216.805,74.0989 217.638,74.2656 218.5,77C 217.584,77.2784 216.918,77.7784 216.5,78.5C 216.932,79.7095 217.599,80.7095 218.5,81.5C 219.623,83.5184 219.623,85.5184 218.5,87.5C 221.261,92.6194 223.094,97.9527 224,103.5C 221.936,99.315 219.769,95.315 217.5,91.5C 211.392,79.3951 203.392,68.7284 193.5,59.5C 190,56.1691 186.334,53.0024 182.5,50C 182.833,49.6667 183.167,49.3333 183.5,49C 181.574,48.5776 180.574,47.4109 180.5,45.5 Z"/></g>
<g><path style="opacity:1" fill="#38b366" d="M 145.5,67.5 C 160.064,72.0788 171.398,80.7454 179.5,93.5C 175.29,89.9568 171.29,85.9568 167.5,81.5C 161.978,76.963 155.978,73.2964 149.5,70.5C 147.924,69.8571 146.59,68.8571 145.5,67.5 Z"/></g>
<g><path style="opacity:1" fill="#3f8f3c" d="M 219.5,71.5 C 225.233,77.2282 230.567,83.2282 235.5,89.5C 235.586,90.4959 235.252,91.3292 234.5,92C 236.178,94.1937 237.178,96.6937 237.5,99.5C 234.903,99.7208 234.903,100.221 237.5,101C 236.427,102.313 235.76,103.813 235.5,105.5C 236.419,111.148 237.752,116.648 239.5,122C 239.272,122.399 238.938,122.565 238.5,122.5C 236.723,117.588 234.89,112.588 233,107.5C 232.536,108.094 232.369,108.761 232.5,109.5C 230.401,104.714 228.568,99.7138 227,94.5C 224.143,90.1016 221.309,85.7683 218.5,81.5C 217.599,80.7095 216.932,79.7095 216.5,78.5C 219.737,79.2333 221.904,81.2333 223,84.5C 223.034,82.8204 223.201,81.3204 223.5,80C 221.519,79.3946 221.185,78.3946 222.5,77C 220.84,75.5123 219.84,73.679 219.5,71.5 Z"/></g>
<g><path style="opacity:1" fill="#435446" d="M 205.5,79.5 C 206.458,79.9528 207.292,80.6195 208,81.5C 210.13,86.0867 211.963,90.7533 213.5,95.5C 210.326,90.4844 207.659,85.1511 205.5,79.5 Z"/></g>
<g><path style="opacity:1" fill="#757678" d="M 76.5,77.5 C 77.7079,78.2341 79.0413,78.5674 80.5,78.5C 76.0963,82.8974 72.0963,87.5641 68.5,92.5C 67.7784,92.0825 67.2784,91.4158 67,90.5C 66.6174,91.056 66.1174,91.3893 65.5,91.5C 68.2044,86.0986 71.871,81.432 76.5,77.5 Z"/></g>
<g><path style="opacity:1" fill="#1e251f" d="M 119.5,60.5 C 142.476,59.7136 162.143,67.3803 178.5,83.5C 183.217,89.6015 186.884,96.2681 189.5,103.5C 189.634,105.292 189.301,106.958 188.5,108.5C 186.257,104.314 184.09,99.9811 182,95.5C 181.292,94.6195 180.458,93.9528 179.5,93.5C 171.398,80.7454 160.064,72.0788 145.5,67.5C 134.946,64.506 124.279,63.8394 113.5,65.5C 111.219,65.9227 109.552,65.256 108.5,63.5C 111.937,62.0552 115.603,61.0552 119.5,60.5 Z"/></g>
<g><path style="opacity:1" fill="#8de6a6" d="M 145.5,70.5 C 146.833,70.5 148.167,70.5 149.5,70.5C 155.978,73.2964 161.978,76.963 167.5,81.5C 171.29,85.9568 175.29,89.9568 179.5,93.5C 180.917,97.9884 182.583,102.322 184.5,106.5C 184.5,106.833 184.5,107.167 184.5,107.5C 183.833,107.167 183.167,106.833 182.5,106.5C 181.172,101.835 178.839,97.8349 175.5,94.5C 172.092,87.4243 166.758,82.4243 159.5,79.5C 158.167,78.5 156.833,77.5 155.5,76.5C 151.868,75.0164 148.534,73.0164 145.5,70.5 Z"/></g>
<g><path style="opacity:1" fill="#327e23" d="M 255.5,88.5 C 255.5,100.5 255.5,112.5 255.5,124.5C 254.778,124.082 254.278,123.416 254,122.5C 253.667,122.833 253.333,123.167 253,123.5C 252.801,121.598 251.967,120.098 250.5,119C 251.34,117.334 250.84,117.167 249,118.5C 248.5,115.333 246.667,113.5 243.5,113C 243.957,112.586 244.291,112.086 244.5,111.5C 242.14,107.437 239.807,103.437 237.5,99.5C 237.178,96.6937 236.178,94.1937 234.5,92C 235.252,91.3292 235.586,90.4959 235.5,89.5C 237.917,89.0223 240.084,88.0223 242,86.5C 243.585,87.3757 244.585,88.7091 245,90.5C 245.283,87.2577 246.117,86.9244 247.5,89.5C 249.969,87.9934 252.135,88.3268 254,90.5C 254.278,89.5842 254.778,88.9175 255.5,88.5 Z"/></g>
<g><path style="opacity:1" fill="#387244" d="M 166.5,30.5 C 162.596,29.251 158.596,28.251 154.5,27.5C 153.584,27.5427 152.917,27.8761 152.5,28.5C 149.991,30.1572 147.825,29.8238 146,27.5C 144.951,29.1066 143.451,29.7733 141.5,29.5C 141.167,29.5 140.833,29.5 140.5,29.5C 137.243,28.1542 133.743,27.4875 130,27.5C 121.904,28.8578 113.737,30.0244 105.5,31C 96.3599,34.4061 87.3599,38.0727 78.5,42C 72.413,46.4263 66.0797,50.4263 59.5,54C 36.5702,75.7149 24.9036,102.548 24.5,134.5C 24.1374,139.738 23.804,145.072 23.5,150.5C 20.2035,121.011 26.7035,93.6781 43,68.5C 49.2732,62.1375 55.4398,55.6375 61.5,49C 66.8952,45.8822 71.8952,42.2155 76.5,38C 85.063,34.5347 93.7297,31.368 102.5,28.5C 116.193,25.3009 130.027,23.6343 144,23.5C 148.396,25.3906 152.896,25.7239 157.5,24.5C 158.696,24.8457 158.696,25.3457 157.5,26C 158.449,26.6172 159.282,26.4506 160,25.5C 162.549,26.8107 164.715,28.4774 166.5,30.5 Z"/></g>
<g><path style="opacity:1" fill="#b7ecc5" d="M 82.5,86.5 C 82.69,88.9589 81.69,90.6255 79.5,91.5C 78.8333,92.8333 78.1667,94.1667 77.5,95.5C 75.7745,97.2279 74.4411,99.2279 73.5,101.5C 72.6554,102.671 71.9887,104.005 71.5,105.5C 70.8333,105.833 70.1667,106.167 69.5,106.5C 69.8333,105.167 70.1667,103.833 70.5,102.5C 73.4651,96.227 77.4651,90.8937 82.5,86.5 Z"/></g>
<g><path style="opacity:1" fill="#b9b9ba" d="M 101.5,72.5 C 102.5,72.5 103.5,72.5 104.5,72.5C 103.402,73.397 103.402,74.2303 104.5,75C 103.263,75.2321 102.263,75.7321 101.5,76.5C 97.9088,78.7824 96.5755,82.1157 97.5,86.5C 96.8347,88.6979 96.1681,91.0312 95.5,93.5C 90.078,94.1537 84.7447,93.487 79.5,91.5C 81.69,90.6255 82.69,88.9589 82.5,86.5C 83.1174,86.6107 83.6174,86.944 84,87.5C 89.6054,82.0643 95.4387,77.0643 101.5,72.5 Z"/></g>
<g><path style="opacity:1" fill="#919394" d="M 97.5,86.5 C 97.5,89.8333 97.5,93.1667 97.5,96.5C 96.5655,97.5676 96.2322,98.901 96.5,100.5C 94.4496,100.039 92.4496,99.3721 90.5,98.5C 89.2836,99.0016 88.1169,99.3349 87,99.5C 83.8802,98.0225 80.7136,96.6892 77.5,95.5C 78.1667,94.1667 78.8333,92.8333 79.5,91.5C 84.7447,93.487 90.078,94.1537 95.5,93.5C 96.1681,91.0312 96.8347,88.6979 97.5,86.5 Z"/></g>
<g><path style="opacity:1" fill="#263f25" d="M 101.5,76.5 C 104.346,76.5516 106.68,77.5516 108.5,79.5C 105.054,77.8276 101.887,78.161 99,80.5C 98.5003,88.4931 98.3336,96.4931 98.5,104.5C 98.7373,105.791 98.404,106.791 97.5,107.5C 97.5,103.833 97.5,100.167 97.5,96.5C 97.5,93.1667 97.5,89.8333 97.5,86.5C 96.5755,82.1157 97.9088,78.7824 101.5,76.5 Z"/></g>
<g><path style="opacity:1" fill="#373938" d="M 175.5,94.5 C 178.839,97.8349 181.172,101.835 182.5,106.5C 183.482,109.763 184.149,113.097 184.5,116.5C 183.914,120.144 183.248,123.478 182.5,126.5C 185.152,128.592 185.986,131.258 185,134.5C 184.79,132.942 184.29,131.609 183.5,130.5C 182.833,129.167 181.833,128.167 180.5,127.5C 176.779,125.646 173.446,123.313 170.5,120.5C 171.675,120.719 172.675,120.386 173.5,119.5C 172.139,117.972 170.972,116.305 170,114.5C 165.475,110.637 160.975,106.804 156.5,103C 155.196,102.196 154.529,101.029 154.5,99.5C 155.169,96.9722 156.002,96.9722 157,99.5C 157.308,98.6919 157.808,98.0253 158.5,97.5C 159.967,97.723 161.467,98.0563 163,98.5C 163.333,97.1667 163.667,95.8333 164,94.5C 166.023,92.4603 167.69,90.127 169,87.5C 170.666,90.3312 172.832,92.6645 175.5,94.5 Z"/></g>
<g><path style="opacity:1" fill="#4f4f50" d="M 68.5,92.5 C 65.5828,97.5118 63.5828,102.845 62.5,108.5C 61.5714,109.936 60.4048,111.269 59,112.5C 57.6285,113.001 56.1285,113.001 54.5,112.5C 55.4972,112.53 56.1639,112.03 56.5,111C 58.0764,103.738 61.0764,97.2384 65.5,91.5C 66.1174,91.3893 66.6174,91.056 67,90.5C 67.2784,91.4158 67.7784,92.0825 68.5,92.5 Z"/></g>
<g><path style="opacity:1" fill="#767779" d="M 77.5,95.5 C 80.7136,96.6892 83.8802,98.0225 87,99.5C 88.1169,99.3349 89.2836,99.0016 90.5,98.5C 92.4496,99.3721 94.4496,100.039 96.5,100.5C 96.5,102.5 96.5,104.5 96.5,106.5C 94.1014,106.437 91.6014,106.77 89,107.5C 83.3369,105.712 78.1702,103.712 73.5,101.5C 74.4411,99.2279 75.7745,97.2279 77.5,95.5 Z"/></g>
<g><path style="opacity:1" fill="#5bb76e" d="M 193.5,59.5 C 203.392,68.7284 211.392,79.3951 217.5,91.5C 218.688,96.5651 220.188,101.565 222,106.5C 222.448,111.53 223.114,116.53 224,121.5C 224.82,128.014 224.653,134.347 223.5,140.5C 223.053,136.049 223.053,132.049 223.5,128.5C 221.859,125.442 221.026,122.108 221,118.5C 220.827,124.348 220.327,130.015 219.5,135.5C 220.071,124.984 219.071,114.65 216.5,104.5C 216.472,101.084 215.472,98.0836 213.5,95.5C 211.963,90.7533 210.13,86.0867 208,81.5C 207.292,80.6195 206.458,79.9528 205.5,79.5C 202.928,73.2713 198.928,68.2713 193.5,64.5C 193.167,63.8333 192.833,63.1667 192.5,62.5C 193.11,61.609 193.443,60.609 193.5,59.5 Z"/></g>
<g><path style="opacity:1" fill="#4c4d4e" d="M 121.5,110.5 C 121.586,109.504 121.252,108.671 120.5,108C 117.904,106.864 115.237,106.031 112.5,105.5C 112.5,106.5 112.5,107.5 112.5,108.5C 112.028,110.531 111.028,112.198 109.5,113.5C 109.5,109.5 109.5,105.5 109.5,101.5C 109.141,99.629 108.141,98.129 106.5,97C 108.272,95.5132 110.272,95.1799 112.5,96C 118.698,100.363 125.031,104.53 131.5,108.5C 132.834,110.818 132.168,112.485 129.5,113.5C 127.184,111.506 124.518,110.506 121.5,110.5 Z"/></g>
<g><path style="opacity:1" fill="#63e747" d="M 138.5,100.5 C 148.918,107.589 159.585,114.256 170.5,120.5C 173.446,123.313 176.779,125.646 180.5,127.5C 179.829,128.847 179.829,130.014 180.5,131C 178.364,133.112 176.364,132.945 174.5,130.5C 172.167,131.167 169.833,131.833 167.5,132.5C 166.828,131.051 166.161,129.718 165.5,128.5C 163.039,127.469 160.373,126.802 157.5,126.5C 158.084,123.715 157.084,122.048 154.5,121.5C 147.484,117.662 140.817,113.328 134.5,108.5C 134.279,107.265 133.612,106.265 132.5,105.5C 132.808,104.692 133.308,104.025 134,103.5C 135,103.833 136,104.167 137,104.5C 137.617,105.449 137.451,106.282 136.5,107C 140.383,109.245 141.05,108.745 138.5,105.5C 139.052,103.997 139.052,102.331 138.5,100.5 Z"/></g>
<g><path style="opacity:1" fill="#36ae61" d="M 179.5,93.5 C 180.458,93.9528 181.292,94.6195 182,95.5C 184.09,99.9811 186.257,104.314 188.5,108.5C 189.092,111.127 189.425,113.794 189.5,116.5C 187.999,113.082 186.332,109.749 184.5,106.5C 182.583,102.322 180.917,97.9884 179.5,93.5 Z"/></g>
<g><path style="opacity:1" fill="#2e2f2f" d="M 41.5,105.5 C 45.3822,108.609 49.7156,110.942 54.5,112.5C 56.1285,113.001 57.6285,113.001 59,112.5C 60.4048,111.269 61.5714,109.936 62.5,108.5C 62.5569,109.609 62.8902,110.609 63.5,111.5C 62.7243,118.137 62.391,124.804 62.5,131.5C 58.2149,128.863 53.5482,127.03 48.5,126C 45.8268,124.999 43.4935,123.499 41.5,121.5C 40.5625,116.188 40.5625,110.854 41.5,105.5 Z"/></g>
<g><path style="opacity:1" fill="#4b4c4d" d="M 73.5,101.5 C 78.1702,103.712 83.3369,105.712 89,107.5C 91.6014,106.77 94.1014,106.437 96.5,106.5C 96.6469,111.214 96.3136,115.881 95.5,120.5C 93.0421,119.377 90.8754,119.377 89,120.5C 85.5796,119.818 82.2463,118.818 79,117.5C 75.3917,117.795 72.225,116.462 69.5,113.5C 69.5,112.833 69.5,112.167 69.5,111.5C 70.6298,109.685 71.2964,107.685 71.5,105.5C 71.9887,104.005 72.6554,102.671 73.5,101.5 Z"/></g>
<g><path style="opacity:1" fill="#7dc18e" d="M 71.5,105.5 C 71.2964,107.685 70.6298,109.685 69.5,111.5C 68.71,112.609 68.21,113.942 68,115.5C 67.5004,122.492 67.3337,129.492 67.5,136.5C 66.3439,128.677 66.1772,120.677 67,112.5C 67.5662,110.277 68.3995,108.277 69.5,106.5C 70.1667,106.167 70.8333,105.833 71.5,105.5 Z"/></g>
<g><path style="opacity:1" fill="#4fdf7e" d="M 70.5,102.5 C 70.1667,103.833 69.8333,105.167 69.5,106.5C 68.3995,108.277 67.5662,110.277 67,112.5C 66.1772,120.677 66.3439,128.677 67.5,136.5C 67.6587,140.291 68.3254,143.958 69.5,147.5C 69.7373,148.791 69.404,149.791 68.5,150.5C 67.8571,148.924 66.8571,147.59 65.5,146.5C 65.5,146.167 65.5,145.833 65.5,145.5C 63.2757,134.233 62.9423,122.9 64.5,111.5C 65.5139,109.426 66.5139,107.426 67.5,105.5C 68.2719,104.306 69.2719,103.306 70.5,102.5 Z"/></g>
<g><path style="opacity:1" fill="#468655" d="M 182.5,106.5 C 183.167,106.833 183.833,107.167 184.5,107.5C 184.963,110.482 185.296,113.482 185.5,116.5C 185.167,116.5 184.833,116.5 184.5,116.5C 184.149,113.097 183.482,109.763 182.5,106.5 Z"/></g>
<g><path style="opacity:1" fill="#51ad56" d="M 218.5,81.5 C 221.309,85.7683 224.143,90.1016 227,94.5C 228.568,99.7138 230.401,104.714 232.5,109.5C 232.852,112.428 233.518,115.262 234.5,118C 233.205,122.135 233.205,126.302 234.5,130.5C 234.154,131.696 233.654,131.696 233,130.5C 232.703,127.086 232.036,123.753 231,120.5C 230.932,132.537 230.099,144.204 228.5,155.5C 227.604,156.506 226.938,156.506 226.5,155.5C 227.694,153.516 227.694,151.516 226.5,149.5C 225.482,151.594 224.482,153.594 223.5,155.5C 224.854,151.854 224.854,146.854 223.5,140.5C 224.653,134.347 224.82,128.014 224,121.5C 223.114,116.53 222.448,111.53 222,106.5C 220.188,101.565 218.688,96.5651 217.5,91.5C 219.769,95.315 221.936,99.315 224,103.5C 223.094,97.9527 221.261,92.6194 218.5,87.5C 219.623,85.5184 219.623,83.5184 218.5,81.5 Z"/></g>
<g><path style="opacity:1" fill="#2a2b2b" d="M 213.5,95.5 C 215.472,98.0836 216.472,101.084 216.5,104.5C 215.698,105.952 215.198,107.618 215,109.5C 214.667,108.833 214.333,108.167 214,107.5C 213.502,112.519 213.668,117.519 214.5,122.5C 206.942,125.688 199.275,128.688 191.5,131.5C 191.811,126.234 191.145,121.234 189.5,116.5C 189.425,113.794 189.092,111.127 188.5,108.5C 189.301,106.958 189.634,105.292 189.5,103.5C 190.82,106.707 192.487,109.873 194.5,113C 196.833,113.667 199.167,113.667 201.5,113C 202.056,112.617 202.389,112.117 202.5,111.5C 206.694,109.817 210.527,107.484 214,104.5C 214.495,101.469 214.329,98.4686 213.5,95.5 Z"/></g>
<g><path style="opacity:1" fill="#2f3030" d="M 97.5,96.5 C 97.5,100.167 97.5,103.833 97.5,107.5C 97.5,111.5 97.5,115.5 97.5,119.5C 95.9816,126.605 94.9816,133.938 94.5,141.5C 86.5216,139.533 78.5216,137.366 70.5,135C 71.1513,133.692 70.4846,132.859 68.5,132.5C 68.2946,126.122 68.6279,119.789 69.5,113.5C 72.225,116.462 75.3917,117.795 79,117.5C 82.2463,118.818 85.5796,119.818 89,120.5C 90.8754,119.377 93.0421,119.377 95.5,120.5C 96.3136,115.881 96.6469,111.214 96.5,106.5C 96.5,104.5 96.5,102.5 96.5,100.5C 96.2322,98.901 96.5655,97.5676 97.5,96.5 Z"/></g>
<g><path style="opacity:1" fill="#5de441" d="M 104.5,97.5 C 105.458,97.9528 106.292,98.6195 107,99.5C 107.498,102.482 107.665,105.482 107.5,108.5C 106.815,116.816 106.482,125.149 106.5,133.5C 106.011,136.986 104.844,140.319 103,143.5C 101.288,141.948 99.455,140.615 97.5,139.5C 97.5,136.833 97.5,134.167 97.5,131.5C 97.5,127.5 97.5,123.5 97.5,119.5C 97.5,115.5 97.5,111.5 97.5,107.5C 98.404,106.791 98.7373,105.791 98.5,104.5C 99.347,101.184 100.514,97.8502 102,94.5C 102.377,95.9423 103.21,96.9423 104.5,97.5 Z"/></g>
<g><path style="opacity:1" fill="#27392a" d="M 184.5,116.5 C 184.833,116.5 185.167,116.5 185.5,116.5C 186.165,119.482 186.498,122.648 186.5,126C 186.621,131.411 185.954,136.577 184.5,141.5C 184.5,139.5 184.5,137.5 184.5,135.5C 183.5,135.5 182.5,135.5 181.5,135.5C 182.942,134.18 183.608,132.514 183.5,130.5C 184.29,131.609 184.79,132.942 185,134.5C 185.986,131.258 185.152,128.592 182.5,126.5C 183.248,123.478 183.914,120.144 184.5,116.5 Z"/></g>
<g><path style="opacity:1" fill="#29472f" d="M 69.5,111.5 C 69.5,112.167 69.5,112.833 69.5,113.5C 68.6279,119.789 68.2946,126.122 68.5,132.5C 68.4246,136.897 68.9246,141.23 70,145.5C 70.414,145.957 70.914,146.291 71.5,146.5C 72.2916,149.973 73.2916,153.306 74.5,156.5C 72.2705,153.81 70.6038,150.81 69.5,147.5C 68.3254,143.958 67.6587,140.291 67.5,136.5C 67.3337,129.492 67.5004,122.492 68,115.5C 68.21,113.942 68.71,112.609 69.5,111.5 Z"/></g>
<g><path style="opacity:1" fill="#21542e" d="M 189.5,116.5 C 191.145,121.234 191.811,126.234 191.5,131.5C 191.057,137.606 190.057,143.606 188.5,149.5C 187.833,150.167 187.167,150.833 186.5,151.5C 188.846,144.273 190.179,136.773 190.5,129C 190.024,124.84 189.691,120.673 189.5,116.5 Z"/></g>
<g><path style="opacity:1" fill="#151e13" d="M 109.5,101.5 C 109.5,105.5 109.5,109.5 109.5,113.5C 108.341,123.166 108.341,132.832 109.5,142.5C 111.097,131.23 112.097,119.896 112.5,108.5C 112.5,107.5 112.5,106.5 112.5,105.5C 115.237,106.031 117.904,106.864 120.5,108C 121.252,108.671 121.586,109.504 121.5,110.5C 118.807,109.448 116.14,108.448 113.5,107.5C 113.012,121.164 112.512,134.831 112,148.5C 110.333,149.5 108.667,150.5 107,151.5C 106.501,145.509 106.334,139.509 106.5,133.5C 106.482,125.149 106.815,116.816 107.5,108.5C 108.167,106.167 108.833,103.833 109.5,101.5 Z"/></g>
<g><path style="opacity:1" fill="#242c24" d="M 134.5,108.5 C 140.817,113.328 147.484,117.662 154.5,121.5C 155.141,122.482 155.807,123.482 156.5,124.5C 146.51,130.661 136.177,135.994 125.5,140.5C 125.232,137.881 125.565,135.381 126.5,133C 132.153,130.508 137.487,127.508 142.5,124C 135.465,119.487 128.465,114.987 121.5,110.5C 124.518,110.506 127.184,111.506 129.5,113.5C 132.168,112.485 132.834,110.818 131.5,108.5C 125.031,104.53 118.698,100.363 112.5,96C 110.272,95.1799 108.272,95.5132 106.5,97C 108.141,98.129 109.141,99.629 109.5,101.5C 108.833,103.833 108.167,106.167 107.5,108.5C 107.665,105.482 107.498,102.482 107,99.5C 106.292,98.6195 105.458,97.9528 104.5,97.5C 106.052,94.7238 108.386,93.5572 111.5,94C 119.195,98.8441 126.861,103.677 134.5,108.5 Z"/></g>
<g><path style="opacity:1" fill="#398f28" d="M 237.5,99.5 C 239.807,103.437 242.14,107.437 244.5,111.5C 244.291,112.086 243.957,112.586 243.5,113C 246.667,113.5 248.5,115.333 249,118.5C 250.84,117.167 251.34,117.334 250.5,119C 251.967,120.098 252.801,121.598 253,123.5C 253.333,123.167 253.667,122.833 254,122.5C 254.278,123.416 254.778,124.082 255.5,124.5C 255.5,133.167 255.5,141.833 255.5,150.5C 254.265,150.721 253.265,151.388 252.5,152.5C 252.251,151.418 252.085,150.085 252,148.5C 250.94,148.254 249.773,148.254 248.5,148.5C 247.808,147.975 247.308,147.308 247,146.5C 246.289,148.367 246.789,149.867 248.5,151C 247.092,151.315 245.759,150.982 244.5,150C 244.066,147.208 243.066,144.375 241.5,141.5C 241.593,139.753 241.926,137.919 242.5,136C 242,135.5 241.5,135 241,134.5C 240.479,130.394 239.646,126.394 238.5,122.5C 238.938,122.565 239.272,122.399 239.5,122C 237.752,116.648 236.419,111.148 235.5,105.5C 235.76,103.813 236.427,102.313 237.5,101C 234.903,100.221 234.903,99.7208 237.5,99.5 Z"/></g>
<g><path style="opacity:1" fill="#2b2d2c" d="M 112.5,108.5 C 112.097,119.896 111.097,131.23 109.5,142.5C 108.341,132.832 108.341,123.166 109.5,113.5C 111.028,112.198 112.028,110.531 112.5,108.5 Z"/></g>
<g><path style="opacity:1" fill="#245421" d="M 16.5,135.5 C 17.1667,137.833 17.8333,140.167 18.5,142.5C 19.6353,156.364 22.6353,169.697 27.5,182.5C 27.3418,185.545 28.0085,188.379 29.5,191C 29.1667,191.167 28.8333,191.333 28.5,191.5C 27.1838,191.432 25.8505,191.432 24.5,191.5C 23.9422,188.873 22.9422,186.54 21.5,184.5C 19.9881,177.599 18.3215,170.432 16.5,163C 15.5741,153.927 15.5741,144.76 16.5,135.5 Z"/></g>
<g><path style="opacity:1" fill="#1c261b" d="M 165.5,128.5 C 165.785,130.288 165.452,131.955 164.5,133.5C 157.461,137.564 150.461,141.564 143.5,145.5C 143.167,145.5 142.833,145.5 142.5,145.5C 142.5,144.5 142.5,143.5 142.5,142.5C 140.097,142.448 137.764,142.781 135.5,143.5C 143.525,139.314 151.525,134.814 159.5,130C 161.436,129.187 163.436,128.687 165.5,128.5 Z"/></g>
<g><path style="opacity:1" fill="#50d036" d="M 121.5,110.5 C 128.465,114.987 135.465,119.487 142.5,124C 137.487,127.508 132.153,130.508 126.5,133C 125.565,135.381 125.232,137.881 125.5,140.5C 136.177,135.994 146.51,130.661 156.5,124.5C 155.807,123.482 155.141,122.482 154.5,121.5C 157.084,122.048 158.084,123.715 157.5,126.5C 160.373,126.802 163.039,127.469 165.5,128.5C 163.436,128.687 161.436,129.187 159.5,130C 151.525,134.814 143.525,139.314 135.5,143.5C 131.217,144.975 127.217,146.975 123.5,149.5C 121.841,138.705 120.841,127.705 120.5,116.5C 120.44,115.957 120.107,115.624 119.5,115.5C 118.522,128.212 117.189,140.879 115.5,153.5C 112.634,155.432 109.634,157.099 106.5,158.5C 105.167,158.5 103.833,158.5 102.5,158.5C 102.753,160.827 102.086,162.827 100.5,164.5C 99.7492,163.624 99.2492,162.624 99,161.5C 98.6667,161.833 98.3333,162.167 98,162.5C 97.5003,154.841 97.3336,147.174 97.5,139.5C 99.455,140.615 101.288,141.948 103,143.5C 104.844,140.319 106.011,136.986 106.5,133.5C 106.334,139.509 106.501,145.509 107,151.5C 108.667,150.5 110.333,149.5 112,148.5C 112.512,134.831 113.012,121.164 113.5,107.5C 116.14,108.448 118.807,109.448 121.5,110.5 Z"/></g>
<g><path style="opacity:1" fill="#172116" d="M 126.5,119.5 C 134.737,121.941 135.071,124.608 127.5,127.5C 126.52,124.914 126.187,122.247 126.5,119.5 Z"/></g>
<g><path style="opacity:1" fill="#163a0f" d="M 9.5,133.5 C 8.84182,134.793 8.50848,136.293 8.5,138C 9.30515,141.166 9.97181,144.333 10.5,147.5C 10.835,157.503 10.835,167.337 10.5,177C 9.77338,178.399 9.27338,179.899 9,181.5C 8.33333,180.167 7.66667,180.167 7,181.5C 6.15381,185.849 3.65381,188.849 -0.5,190.5C -0.5,178.5 -0.5,166.5 -0.5,154.5C 0.314913,153.571 1.14825,152.571 2,151.5C 3,144.833 4,138.167 5,131.5C 5.75044,130.874 6.58377,130.374 7.5,130C 6.54943,129.282 6.38277,128.449 7,127.5C 8.66253,129.158 9.49586,131.158 9.5,133.5 Z"/></g>
<g><path style="opacity:1" fill="#205117" d="M 120.5,116.5 C 120.841,127.705 121.841,138.705 123.5,149.5C 122.791,150.404 121.791,150.737 120.5,150.5C 120.5,139.167 120.5,127.833 120.5,116.5 Z"/></g>
<g><path style="opacity:1" fill="#1c6333" d="M 63.5,111.5 C 63.8333,111.5 64.1667,111.5 64.5,111.5C 62.9423,122.9 63.2757,134.233 65.5,145.5C 64.5987,144.71 63.9321,143.71 63.5,142.5C 62.8857,138.865 62.5524,135.198 62.5,131.5C 62.391,124.804 62.7243,118.137 63.5,111.5 Z"/></g>
<g><path style="opacity:1" fill="#4bd02f" d="M 180.5,127.5 C 181.833,128.167 182.833,129.167 183.5,130.5C 183.608,132.514 182.942,134.18 181.5,135.5C 169.255,141.095 157.255,147.095 145.5,153.5C 144.341,152.544 143.174,151.544 142,150.5C 141.228,150.645 140.561,150.978 140,151.5C 139.833,151 139.667,150.5 139.5,150C 140.8,148.42 142.134,146.92 143.5,145.5C 150.461,141.564 157.461,137.564 164.5,133.5C 165.452,131.955 165.785,130.288 165.5,128.5C 166.161,129.718 166.828,131.051 167.5,132.5C 169.833,131.833 172.167,131.167 174.5,130.5C 176.364,132.945 178.364,133.112 180.5,131C 179.829,130.014 179.829,128.847 180.5,127.5 Z"/></g>
<g><path style="opacity:1" fill="#44a13b" d="M 238.5,122.5 C 239.646,126.394 240.479,130.394 241,134.5C 241.5,135 242,135.5 242.5,136C 241.926,137.919 241.593,139.753 241.5,141.5C 241.578,145.954 240.911,150.287 239.5,154.5C 240.374,156.705 239.708,158.538 237.5,160C 237.833,161 238.167,162 238.5,163C 235.599,167.968 233.099,173.135 231,178.5C 229.086,177.324 229.252,176.324 231.5,175.5C 230.975,174.808 230.308,174.308 229.5,174C 230.849,172.365 230.682,170.865 229,169.5C 227.981,172.872 226.481,175.872 224.5,178.5C 225.531,174.573 226.865,170.739 228.5,167C 226.071,166.549 225.904,165.715 228,164.5C 228.498,161.518 228.665,158.518 228.5,155.5C 230.099,144.204 230.932,132.537 231,120.5C 232.036,123.753 232.703,127.086 233,130.5C 233.654,131.696 234.154,131.696 234.5,130.5C 233.205,126.302 233.205,122.135 234.5,118C 233.518,115.262 232.852,112.428 232.5,109.5C 232.369,108.761 232.536,108.094 233,107.5C 234.89,112.588 236.723,117.588 238.5,122.5 Z"/></g>
<g><path style="opacity:1" fill="#2e5f36" d="M 219.5,139.5 C 219.247,143.04 218.581,146.373 217.5,149.5C 217.159,145.84 217.825,142.507 219.5,139.5 Z"/></g>
<g><path style="opacity:1" fill="#1a1a1a" d="M 216.5,104.5 C 219.071,114.65 220.071,124.984 219.5,135.5C 219.5,136.833 219.5,138.167 219.5,139.5C 217.825,142.507 217.159,145.84 217.5,149.5C 217.567,150.959 217.234,152.292 216.5,153.5C 215.833,153.5 215.167,153.5 214.5,153.5C 209.282,148.891 203.282,145.891 196.5,144.5C 193.153,159.194 186.153,171.861 175.5,182.5C 173.014,181.538 173.014,180.705 175.5,180C 174.552,179.517 173.552,179.351 172.5,179.5C 177.135,174.9 181.302,169.9 185,164.5C 186.891,159.662 188.058,154.662 188.5,149.5C 190.057,143.606 191.057,137.606 191.5,131.5C 199.275,128.688 206.942,125.688 214.5,122.5C 213.668,117.519 213.502,112.519 214,107.5C 214.333,108.167 214.667,108.833 215,109.5C 215.198,107.618 215.698,105.952 216.5,104.5 Z"/></g>
<g><path style="opacity:1" fill="#e4dede" d="M 214.5,153.5 C 214.424,156.973 213.758,160.306 212.5,163.5C 209.249,169.001 206.249,174.667 203.5,180.5C 200.129,183.871 197.129,187.537 194.5,191.5C 194.5,192.167 194.167,192.5 193.5,192.5C 186.914,190.208 180.914,186.874 175.5,182.5C 186.153,171.861 193.153,159.194 196.5,144.5C 203.282,145.891 209.282,148.891 214.5,153.5 Z"/></g>
<g><path style="opacity:1" fill="#e4dfde" d="M 61.5,191.5 C 51.1013,180.372 44.1013,167.372 40.5,152.5C 45.1585,148.338 50.4919,145.505 56.5,144C 59.8267,158.155 66.66,170.322 77,180.5C 77.1626,182.387 76.3293,183.887 74.5,185C 70.3812,187.726 66.0479,189.893 61.5,191.5 Z"/></g>
<g><path style="opacity:1" fill="#1f4e2d" d="M 65.5,146.5 C 66.8571,147.59 67.8571,148.924 68.5,150.5C 68.8782,152.921 69.5448,155.254 70.5,157.5C 66.9399,154.867 65.2732,151.201 65.5,146.5 Z"/></g>
<g><path style="opacity:1" fill="#11180f" d="M 120.5,116.5 C 120.5,127.833 120.5,139.167 120.5,150.5C 121.791,150.737 122.791,150.404 123.5,149.5C 127.217,146.975 131.217,144.975 135.5,143.5C 137.764,142.781 140.097,142.448 142.5,142.5C 142.5,143.5 142.5,144.5 142.5,145.5C 131.895,150.867 121.562,156.7 111.5,163C 108.449,163.857 105.783,163.19 103.5,161C 104.571,160.148 105.571,159.315 106.5,158.5C 109.634,157.099 112.634,155.432 115.5,153.5C 117.189,140.879 118.522,128.212 119.5,115.5C 120.107,115.624 120.44,115.957 120.5,116.5 Z"/></g>
<g><path style="opacity:1" fill="#1b4414" d="M 17.5,133.5 C 17.0825,134.222 16.4158,134.722 15.5,135C 15.7284,135.399 16.0618,135.565 16.5,135.5C 15.5741,144.76 15.5741,153.927 16.5,163C 18.3215,170.432 19.9881,177.599 21.5,184.5C 20.8333,184.5 20.5,184.833 20.5,185.5C 19.4907,184.065 18.1574,183.231 16.5,183C 16.9574,182.586 17.2907,182.086 17.5,181.5C 16.3657,178.93 15.5323,176.264 15,173.5C 14.2419,175.769 14.4086,177.936 15.5,180C 14.364,181.53 13.364,182.863 12.5,184C 13.6219,186.478 13.1219,188.645 11,190.5C 10.6667,190.167 10.3333,189.833 10,189.5C 9.50776,190.549 9.67443,191.549 10.5,192.5C 7.0855,195.925 3.41883,198.925 -0.5,201.5C -0.5,197.833 -0.5,194.167 -0.5,190.5C 3.65381,188.849 6.15381,185.849 7,181.5C 7.66667,180.167 8.33333,180.167 9,181.5C 9.27338,179.899 9.77338,178.399 10.5,177C 10.835,167.337 10.835,157.503 10.5,147.5C 11.9953,147.585 12.9953,146.919 13.5,145.5C 12.6906,143.208 12.3573,141.041 12.5,139C 13.9411,134.993 14.7745,130.826 15,126.5C 14.9698,129.361 15.8031,131.695 17.5,133.5 Z"/></g>
<g><path style="opacity:1" fill="#3f5643" d="M 214.5,153.5 C 215.167,153.5 215.833,153.5 216.5,153.5C 216.128,157.297 214.794,160.63 212.5,163.5C 213.758,160.306 214.424,156.973 214.5,153.5 Z"/></g>
<g><path style="opacity:1" fill="#3cba1f" d="M 97.5,131.5 C 97.5,134.167 97.5,136.833 97.5,139.5C 97.3336,147.174 97.5003,154.841 98,162.5C 98.3333,162.167 98.6667,161.833 99,161.5C 99.2492,162.624 99.7492,163.624 100.5,164.5C 102.086,162.827 102.753,160.827 102.5,158.5C 103.833,158.5 105.167,158.5 106.5,158.5C 105.571,159.315 104.571,160.148 103.5,161C 105.783,163.19 108.449,163.857 111.5,163C 121.562,156.7 131.895,150.867 142.5,145.5C 142.833,145.5 143.167,145.5 143.5,145.5C 142.134,146.92 140.8,148.42 139.5,150C 139.667,150.5 139.833,151 140,151.5C 140.561,150.978 141.228,150.645 142,150.5C 143.174,151.544 144.341,152.544 145.5,153.5C 132.509,160.006 119.843,167.172 107.5,175C 105.221,175.473 103.221,176.473 101.5,178C 99.8333,178.667 98.1667,178.667 96.5,178C 95.8553,175.086 95.522,172.086 95.5,169C 95.9741,156.331 96.6408,143.831 97.5,131.5 Z"/></g>
<g><path style="opacity:1" fill="#36743a" d="M 24.5,134.5 C 26.202,150.933 30.5353,166.6 37.5,181.5C 36.6236,181.369 35.9569,181.702 35.5,182.5C 38.1241,187.412 40.4575,192.412 42.5,197.5C 40.5491,196.284 39.0491,194.618 38,192.5C 36.4758,188.041 34.3091,184.041 31.5,180.5C 28.8624,173.421 26.529,166.254 24.5,159C 24.4709,156.74 24.8042,154.407 25.5,152C 25.0704,151.035 24.4037,150.535 23.5,150.5C 23.804,145.072 24.1374,139.738 24.5,134.5 Z"/></g>
<g><path style="opacity:1" fill="#4c9c58" d="M 40.5,167.5 C 45.4028,182.45 53.7362,195.283 65.5,206C 64.4019,206.77 64.4019,207.603 65.5,208.5C 65.1667,208.5 64.8333,208.5 64.5,208.5C 58.6481,205.162 53.4814,200.829 49,195.5C 46.9715,191.42 44.4715,187.754 41.5,184.5C 39.6952,179.811 38.0285,174.811 36.5,169.5C 37.262,168.025 37.5953,166.691 37.5,165.5C 38.2811,166.729 38.7811,168.062 39,169.5C 39.2784,168.584 39.7784,167.918 40.5,167.5 Z"/></g>
<g><path style="opacity:1" fill="#4f7055" d="M 212.5,163.5 C 211.321,170.193 208.321,175.86 203.5,180.5C 206.249,174.667 209.249,169.001 212.5,163.5 Z"/></g>
<g><path style="opacity:1" fill="#131614" d="M 97.5,119.5 C 97.5,123.5 97.5,127.5 97.5,131.5C 96.6408,143.831 95.9741,156.331 95.5,169C 95.522,172.086 95.8553,175.086 96.5,178C 98.1667,178.667 99.8333,178.667 101.5,178C 103.221,176.473 105.221,175.473 107.5,175C 119.843,167.172 132.509,160.006 145.5,153.5C 157.255,147.095 169.255,141.095 181.5,135.5C 182.5,135.5 183.5,135.5 184.5,135.5C 184.5,137.5 184.5,139.5 184.5,141.5C 179.458,164.875 165.458,179.875 142.5,186.5C 134.514,187.099 126.514,187.432 118.5,187.5C 117.833,187.5 117.167,187.5 116.5,187.5C 111.67,185.599 106.67,183.932 101.5,182.5C 89.2589,177.26 80.2589,168.593 74.5,156.5C 73.2916,153.306 72.2916,149.973 71.5,146.5C 70.914,146.291 70.414,145.957 70,145.5C 68.9246,141.23 68.4246,136.897 68.5,132.5C 70.4846,132.859 71.1513,133.692 70.5,135C 78.5216,137.366 86.5216,139.533 94.5,141.5C 94.9816,133.938 95.9816,126.605 97.5,119.5 Z"/></g>
<g><path style="opacity:1" fill="#56bb5b" d="M 226.5,155.5 C 218.046,188.453 198.046,211.287 166.5,224C 160.7,226.045 154.867,227.878 149,229.5C 143.717,230.643 138.217,230.643 132.5,229.5C 130.171,231.002 128.837,230.336 128.5,227.5C 175.929,224.589 207.595,200.589 223.5,155.5C 224.482,153.594 225.482,151.594 226.5,149.5C 227.694,151.516 227.694,153.516 226.5,155.5 Z"/></g>
<g><path style="opacity:1" fill="#4daf47" d="M 226.5,155.5 C 226.938,156.506 227.604,156.506 228.5,155.5C 228.665,158.518 228.498,161.518 228,164.5C 225.904,165.715 226.071,166.549 228.5,167C 226.865,170.739 225.531,174.573 224.5,178.5C 214.855,199.314 199.855,215.148 179.5,226C 174.154,227.781 168.987,229.947 164,232.5C 163.617,231.944 163.117,231.611 162.5,231.5C 160.559,231.869 158.725,232.536 157,233.5C 155.657,232.786 154.324,233.12 153,234.5C 151.501,232.244 149.834,232.244 148,234.5C 146.954,232.805 145.787,232.472 144.5,233.5C 141.806,232.893 138.806,232.893 135.5,233.5C 133.712,232.717 132.712,231.384 132.5,229.5C 138.217,230.643 143.717,230.643 149,229.5C 154.867,227.878 160.7,226.045 166.5,224C 198.046,211.287 218.046,188.453 226.5,155.5 Z"/></g>
<g><path style="opacity:1" fill="#41a22e" d="M 241.5,141.5 C 243.066,144.375 244.066,147.208 244.5,150C 245.759,150.982 247.092,151.315 248.5,151C 246.789,149.867 246.289,148.367 247,146.5C 247.308,147.308 247.808,147.975 248.5,148.5C 249.773,148.254 250.94,148.254 252,148.5C 252.085,150.085 252.251,151.418 252.5,152.5C 253.265,151.388 254.265,150.721 255.5,150.5C 255.5,161.833 255.5,173.167 255.5,184.5C 253.217,187.952 250.383,190.952 247,193.5C 246.667,193.167 246.333,192.833 246,192.5C 245.667,193.833 245.333,195.167 245,196.5C 244.396,194.314 243.23,194.148 241.5,196C 242.956,196.423 243.456,197.256 243,198.5C 242.667,198.167 242.333,197.833 242,197.5C 240.581,198.46 239.081,199.293 237.5,200C 238.696,200.654 238.696,201.154 237.5,201.5C 236.833,200.5 236.167,199.5 235.5,198.5C 232.686,201.053 229.353,202.553 225.5,203C 229.837,203.204 230.337,205.037 227,208.5C 226.667,207.833 226.333,207.167 226,206.5C 223.387,208.551 220.554,210.384 217.5,212C 221.361,213.335 221.361,214.501 217.5,215.5C 216.914,215.291 216.414,214.957 216,214.5C 214.333,216.833 212.667,219.167 211,221.5C 209.16,220.167 208.66,220.334 209.5,222C 208.672,222.915 207.672,223.581 206.5,224C 206.833,224.333 207.167,224.667 207.5,225C 206.146,226.294 204.812,226.46 203.5,225.5C 202.167,226.5 200.833,227.5 199.5,228.5C 198.428,231.18 197.095,233.68 195.5,236C 193.003,237.983 191.836,237.15 192,233.5C 190.16,232.167 189.66,232.334 190.5,234C 189.833,234.667 189.167,235.333 188.5,236C 189.837,238.128 189.504,240.294 187.5,242.5C 185.034,243.123 182.701,243.957 180.5,245C 181.623,246.044 182.956,246.71 184.5,247C 181.995,247.51 180.495,249.01 180,251.5C 179.043,249.291 177.876,249.457 176.5,252C 176.833,252.333 177.167,252.667 177.5,253C 176.142,253.934 174.808,254.768 173.5,255.5C 159.167,255.5 144.833,255.5 130.5,255.5C 129.942,254.21 128.942,253.377 127.5,253C 128.624,252.751 129.624,252.251 130.5,251.5C 130.333,251.167 130.167,250.833 130,250.5C 129.107,251.711 128.274,251.711 127.5,250.5C 128.592,249.169 129.926,248.336 131.5,248C 129.833,247.667 128.167,247.333 126.5,247C 127.956,246.577 128.456,245.744 128,244.5C 126.732,244.616 125.398,244.949 124,245.5C 123.005,244.934 122.172,244.267 121.5,243.5C 125.911,243.021 130.078,243.688 134,245.5C 134.981,242.345 136.315,242.012 138,244.5C 139,243.833 140,243.167 141,242.5C 142.667,243.833 144.333,243.833 146,242.5C 146.333,243.167 146.667,243.833 147,244.5C 147.84,241.536 148.84,241.203 150,243.5C 150.914,239.815 151.581,240.148 152,244.5C 152.284,242.114 153.284,241.448 155,242.5C 156.887,240.114 159.387,238.947 162.5,239C 161.638,236.266 160.805,236.099 160,238.5C 157.72,238.58 155.387,237.913 153,236.5C 152.692,237.308 152.192,237.975 151.5,238.5C 150.494,238.062 150.494,237.396 151.5,236.5C 155.492,235.273 159.159,233.607 162.5,231.5C 163.117,231.611 163.617,231.944 164,232.5C 168.987,229.947 174.154,227.781 179.5,226C 199.855,215.148 214.855,199.314 224.5,178.5C 226.481,175.872 227.981,172.872 229,169.5C 230.682,170.865 230.849,172.365 229.5,174C 230.308,174.308 230.975,174.808 231.5,175.5C 229.252,176.324 229.086,177.324 231,178.5C 233.099,173.135 235.599,167.968 238.5,163C 238.167,162 237.833,161 237.5,160C 239.708,158.538 240.374,156.705 239.5,154.5C 240.911,150.287 241.578,145.954 241.5,141.5 Z"/></g>
<g><path style="opacity:1" fill="#141515" d="M 40.5,104.5 C 40.5,105.167 40.8333,105.5 41.5,105.5C 40.5625,110.854 40.5625,116.188 41.5,121.5C 43.4935,123.499 45.8268,124.999 48.5,126C 53.5482,127.03 58.2149,128.863 62.5,131.5C 62.5524,135.198 62.8857,138.865 63.5,142.5C 62.3501,141.15 61.6834,141.316 61.5,143C 62.3865,147.151 63.2198,151.318 64,155.5C 84.1707,192.451 114.337,204.285 154.5,191C 160.899,187.763 166.899,183.93 172.5,179.5C 173.552,179.351 174.552,179.517 175.5,180C 173.014,180.705 173.014,181.538 175.5,182.5C 180.914,186.874 186.914,190.208 193.5,192.5C 182.046,204.902 168.046,213.235 151.5,217.5C 150.508,217.672 149.842,217.338 149.5,216.5C 149.5,210.167 149.5,203.833 149.5,197.5C 142.001,199.471 134.334,200.471 126.5,200.5C 119.305,200.71 112.305,199.71 105.5,197.5C 104.808,198.025 104.308,198.692 104,199.5C 103.254,205.551 103.421,211.551 104.5,217.5C 91.9632,214.658 80.6298,209.324 70.5,201.5C 66.8604,198.527 63.5271,195.194 60.5,191.5C 60.8333,191.5 61.1667,191.5 61.5,191.5C 66.0479,189.893 70.3812,187.726 74.5,185C 76.3293,183.887 77.1626,182.387 77,180.5C 66.66,170.322 59.8267,158.155 56.5,144C 50.4919,145.505 45.1585,148.338 40.5,152.5C 39.2223,152.218 38.2223,151.551 37.5,150.5C 37.4828,148.435 37.1495,146.435 36.5,144.5C 34.8373,131.763 35.1706,119.096 37.5,106.5C 38.2223,105.449 39.2223,104.782 40.5,104.5 Z"/></g>
<g><path style="opacity:1" fill="#1d4b12" d="M 20.5,185.5 C 21.0522,187.331 21.0522,188.997 20.5,190.5C 21.0736,192.059 21.7402,193.559 22.5,195C 22.0183,196.008 21.8516,197.175 22,198.5C 21.3457,197.304 20.8457,197.304 20.5,198.5C 21.1654,200.101 21.4988,201.601 21.5,203C 19.5125,204.319 18.3459,206.152 18,208.5C 16.7949,209.071 15.6283,209.738 14.5,210.5C 15.0253,211.192 15.6919,211.692 16.5,212C 11.5118,212.619 7.67849,215.453 5,220.5C 4.66667,220.167 4.33333,219.833 4,219.5C 2.53153,220.989 1.03153,222.323 -0.5,223.5C -0.5,216.167 -0.5,208.833 -0.5,201.5C 3.41883,198.925 7.0855,195.925 10.5,192.5C 9.67443,191.549 9.50776,190.549 10,189.5C 10.3333,189.833 10.6667,190.167 11,190.5C 13.1219,188.645 13.6219,186.478 12.5,184C 13.364,182.863 14.364,181.53 15.5,180C 14.4086,177.936 14.2419,175.769 15,173.5C 15.5323,176.264 16.3657,178.93 17.5,181.5C 17.2907,182.086 16.9574,182.586 16.5,183C 18.1574,183.231 19.4907,184.065 20.5,185.5 Z"/></g>
<g><path style="opacity:1" fill="#3e4641" d="M 37.5,150.5 C 38.2223,151.551 39.2223,152.218 40.5,152.5C 44.1013,167.372 51.1013,180.372 61.5,191.5C 61.1667,191.5 60.8333,191.5 60.5,191.5C 48.9757,180.13 41.309,166.463 37.5,150.5 Z"/></g>
<g><path style="opacity:1" fill="#4cce77" d="M 184.5,106.5 C 186.332,109.749 187.999,113.082 189.5,116.5C 189.691,120.673 190.024,124.84 190.5,129C 190.179,136.773 188.846,144.273 186.5,151.5C 185.662,151.842 185.328,152.508 185.5,153.5C 180.696,159.819 176.03,166.319 171.5,173C 151.626,190.334 128.959,195.168 103.5,187.5C 96.6068,182.892 89.6068,178.559 82.5,174.5C 81.9202,172.251 80.5869,170.585 78.5,169.5C 76.963,166.398 74.963,163.732 72.5,161.5C 72.3404,159.847 71.6737,158.514 70.5,157.5C 69.5448,155.254 68.8782,152.921 68.5,150.5C 69.404,149.791 69.7373,148.791 69.5,147.5C 70.6038,150.81 72.2705,153.81 74.5,156.5C 80.2589,168.593 89.2589,177.26 101.5,182.5C 105.948,185.536 110.948,187.202 116.5,187.5C 117.167,187.5 117.833,187.5 118.5,187.5C 121.314,188.165 124.314,188.498 127.5,188.5C 132.745,188.608 137.745,187.942 142.5,186.5C 165.458,179.875 179.458,164.875 184.5,141.5C 185.954,136.577 186.621,131.411 186.5,126C 186.498,122.648 186.165,119.482 185.5,116.5C 185.296,113.482 184.963,110.482 184.5,107.5C 184.5,107.167 184.5,106.833 184.5,106.5 Z"/></g>
<g><path style="opacity:1" fill="#41a92a" d="M 255.5,184.5 C 255.5,190.833 255.5,197.167 255.5,203.5C 254.778,203.918 254.278,204.584 254,205.5C 253.667,204.833 253.333,204.167 253,203.5C 251.829,204.893 250.329,205.727 248.5,206C 251,206.833 251.167,208 249,209.5C 248.333,208.833 247.667,208.167 247,207.5C 246.439,209.725 245.439,211.725 244,213.5C 242.913,211.068 242.413,211.402 242.5,214.5C 240.319,214.284 238.653,215.117 237.5,217C 237.833,217.333 238.167,217.667 238.5,218C 236.56,217.822 234.893,218.822 233.5,221C 233.833,221.333 234.167,221.667 234.5,222C 231.833,223.333 229.167,224.667 226.5,226C 226.833,226.333 227.167,226.667 227.5,227C 225.833,228 224.167,229 222.5,230C 222.833,230.333 223.167,230.667 223.5,231C 220.833,232 218.167,233 215.5,234C 220.508,234.869 220.175,235.536 214.5,236C 216.901,236.805 216.734,237.638 214,238.5C 213.667,238.167 213.333,237.833 213,237.5C 212.641,240.544 211.974,240.878 211,238.5C 210.082,240.632 208.749,241.299 207,240.5C 206.383,241.449 206.549,242.282 207.5,243C 204.456,243.359 204.122,244.026 206.5,245C 203.768,245.398 201.935,246.898 201,249.5C 200.667,249.167 200.333,248.833 200,248.5C 198.833,251 197,252.833 194.5,254C 195.056,254.383 195.389,254.883 195.5,255.5C 188.167,255.5 180.833,255.5 173.5,255.5C 174.808,254.768 176.142,253.934 177.5,253C 177.167,252.667 176.833,252.333 176.5,252C 177.876,249.457 179.043,249.291 180,251.5C 180.495,249.01 181.995,247.51 184.5,247C 182.956,246.71 181.623,246.044 180.5,245C 182.701,243.957 185.034,243.123 187.5,242.5C 189.504,240.294 189.837,238.128 188.5,236C 189.167,235.333 189.833,234.667 190.5,234C 189.66,232.334 190.16,232.167 192,233.5C 191.836,237.15 193.003,237.983 195.5,236C 197.095,233.68 198.428,231.18 199.5,228.5C 200.833,227.5 202.167,226.5 203.5,225.5C 204.812,226.46 206.146,226.294 207.5,225C 207.167,224.667 206.833,224.333 206.5,224C 207.672,223.581 208.672,222.915 209.5,222C 208.66,220.334 209.16,220.167 211,221.5C 212.667,219.167 214.333,216.833 216,214.5C 216.414,214.957 216.914,215.291 217.5,215.5C 221.361,214.501 221.361,213.335 217.5,212C 220.554,210.384 223.387,208.551 226,206.5C 226.333,207.167 226.667,207.833 227,208.5C 230.337,205.037 229.837,203.204 225.5,203C 229.353,202.553 232.686,201.053 235.5,198.5C 236.167,199.5 236.833,200.5 237.5,201.5C 238.696,201.154 238.696,200.654 237.5,200C 239.081,199.293 240.581,198.46 242,197.5C 242.333,197.833 242.667,198.167 243,198.5C 243.456,197.256 242.956,196.423 241.5,196C 243.23,194.148 244.396,194.314 245,196.5C 245.333,195.167 245.667,193.833 246,192.5C 246.333,192.833 246.667,193.167 247,193.5C 250.383,190.952 253.217,187.952 255.5,184.5 Z"/></g>
<g><path style="opacity:1" fill="#5fc66c" d="M 223.5,140.5 C 224.854,146.854 224.854,151.854 223.5,155.5C 207.595,200.589 175.929,224.589 128.5,227.5C 125.513,227.652 122.846,227.985 120.5,228.5C 111.377,225.967 102.377,222.967 93.5,219.5C 93.56,218.957 93.8933,218.624 94.5,218.5C 99.4158,220.46 104.416,222.127 109.5,223.5C 113.704,221.758 118.038,221.258 122.5,222C 123.667,222.5 124.5,223.333 125,224.5C 125.333,223.833 125.667,223.167 126,222.5C 153.875,222.739 177.875,212.739 198,192.5C 198.74,191.251 198.573,190.251 197.5,189.5C 200.255,186.987 202.255,183.987 203.5,180.5C 208.321,175.86 211.321,170.193 212.5,163.5C 214.794,160.63 216.128,157.297 216.5,153.5C 217.234,152.292 217.567,150.959 217.5,149.5C 218.581,146.373 219.247,143.04 219.5,139.5C 219.5,138.167 219.5,136.833 219.5,135.5C 220.327,130.015 220.827,124.348 221,118.5C 221.026,122.108 221.859,125.442 223.5,128.5C 223.053,132.049 223.053,136.049 223.5,140.5 Z"/></g>
<g><path style="opacity:1" fill="#3d843f" d="M 37.5,181.5 C 39.6734,182.166 40.0067,183.333 38.5,185C 39.7932,188.242 40.7932,188.075 41.5,184.5C 44.4715,187.754 46.9715,191.42 49,195.5C 53.4814,200.829 58.6481,205.162 64.5,208.5C 64.0825,209.222 63.4158,209.722 62.5,210C 68.0191,213.062 67.8524,214.562 62,214.5C 60.6288,212.959 59.1288,211.625 57.5,210.5C 56.6993,208.492 55.366,207.992 53.5,209C 51.6298,206.96 49.6298,205.127 47.5,203.5C 46.5569,200.891 44.8903,198.891 42.5,197.5C 40.4575,192.412 38.1241,187.412 35.5,182.5C 35.9569,181.702 36.6236,181.369 37.5,181.5 Z"/></g>
<g><path style="opacity:1" fill="#4b6151" d="M 203.5,180.5 C 202.255,183.987 200.255,186.987 197.5,189.5C 196.5,190.167 195.5,190.833 194.5,191.5C 197.129,187.537 200.129,183.871 203.5,180.5 Z"/></g>
<g><path style="opacity:1" fill="#235917" d="M 31.5,180.5 C 34.3091,184.041 36.4758,188.041 38,192.5C 39.0491,194.618 40.5491,196.284 42.5,197.5C 44.8903,198.891 46.5569,200.891 47.5,203.5C 46.9569,203.56 46.6236,203.893 46.5,204.5C 47.3802,206.429 48.3802,208.263 49.5,210C 49.4301,210.765 49.0967,211.265 48.5,211.5C 46.5401,207.714 43.8734,204.881 40.5,203C 41.9596,206.089 43.793,208.922 46,211.5C 46.8641,216.399 45.8641,216.732 43,212.5C 36.6751,212.817 36.1751,214.317 41.5,217C 39.1925,217.354 38.8592,218.354 40.5,220C 37.945,229.73 31.945,236.563 22.5,240.5C 22.6495,241.552 22.4828,242.552 22,243.5C 21.6667,243.167 21.3333,242.833 21,242.5C 19.9971,245.156 18.3304,246.156 16,245.5C 13.4821,249.61 10.3155,252.943 6.5,255.5C 4.16667,255.5 1.83333,255.5 -0.5,255.5C -0.5,244.833 -0.5,234.167 -0.5,223.5C 1.03153,222.323 2.53153,220.989 4,219.5C 4.33333,219.833 4.66667,220.167 5,220.5C 7.67849,215.453 11.5118,212.619 16.5,212C 15.6919,211.692 15.0253,211.192 14.5,210.5C 15.6283,209.738 16.7949,209.071 18,208.5C 18.3459,206.152 19.5125,204.319 21.5,203C 21.4988,201.601 21.1654,200.101 20.5,198.5C 20.8457,197.304 21.3457,197.304 22,198.5C 21.8516,197.175 22.0183,196.008 22.5,195C 21.7402,193.559 21.0736,192.059 20.5,190.5C 21.0522,188.997 21.0522,187.331 20.5,185.5C 20.5,184.833 20.8333,184.5 21.5,184.5C 22.9422,186.54 23.9422,188.873 24.5,191.5C 25.8505,191.432 27.1838,191.432 28.5,191.5C 28.8333,191.333 29.1667,191.167 29.5,191C 28.0085,188.379 27.3418,185.545 27.5,182.5C 28.2216,182.918 28.7216,183.584 29,184.5C 29.3333,183.5 29.6667,182.5 30,181.5C 31.0875,183.932 31.5875,183.598 31.5,180.5 Z"/></g>
<g><path style="opacity:1" fill="#2a2e2c" d="M 63.5,142.5 C 63.9321,143.71 64.5987,144.71 65.5,145.5C 65.5,145.833 65.5,146.167 65.5,146.5C 65.2732,151.201 66.9399,154.867 70.5,157.5C 71.6737,158.514 72.3404,159.847 72.5,161.5C 73.6401,163.78 74.8068,166.114 76,168.5C 76.6708,169.252 77.5041,169.586 78.5,169.5C 78.7313,172.063 80.0646,173.73 82.5,174.5C 88.1677,180.805 95.1677,185.138 103.5,187.5C 106.183,189.466 109.35,190.8 113,191.5C 140.851,196.339 163.184,187.672 180,165.5C 182.298,161.652 184.132,157.652 185.5,153.5C 185.328,152.508 185.662,151.842 186.5,151.5C 187.167,150.833 187.833,150.167 188.5,149.5C 188.058,154.662 186.891,159.662 185,164.5C 181.302,169.9 177.135,174.9 172.5,179.5C 166.899,183.93 160.899,187.763 154.5,191C 114.337,204.285 84.1707,192.451 64,155.5C 63.2198,151.318 62.3865,147.151 61.5,143C 61.6834,141.316 62.3501,141.15 63.5,142.5 Z"/></g>
<g><path style="opacity:1" fill="#1f6f3b" d="M 185.5,153.5 C 184.132,157.652 182.298,161.652 180,165.5C 163.184,187.672 140.851,196.339 113,191.5C 109.35,190.8 106.183,189.466 103.5,187.5C 128.959,195.168 151.626,190.334 171.5,173C 176.03,166.319 180.696,159.819 185.5,153.5 Z"/></g>
<g><path style="opacity:1" fill="#25582e" d="M 142.5,186.5 C 137.745,187.942 132.745,188.608 127.5,188.5C 124.314,188.498 121.314,188.165 118.5,187.5C 126.514,187.432 134.514,187.099 142.5,186.5 Z"/></g>
<g><path style="opacity:1" fill="#235028" d="M 101.5,182.5 C 106.67,183.932 111.67,185.599 116.5,187.5C 110.948,187.202 105.948,185.536 101.5,182.5 Z"/></g>
<g><path style="opacity:1" fill="#1d723c" d="M 82.5,174.5 C 89.6068,178.559 96.6068,182.892 103.5,187.5C 95.1677,185.138 88.1677,180.805 82.5,174.5 Z"/></g>
<g><path style="opacity:1" fill="#1e6a38" d="M 78.5,169.5 C 80.5869,170.585 81.9202,172.251 82.5,174.5C 80.0646,173.73 78.7313,172.063 78.5,169.5 Z"/></g>
<g><path style="opacity:1" fill="#1d6c39" d="M 72.5,161.5 C 74.963,163.732 76.963,166.398 78.5,169.5C 77.5041,169.586 76.6708,169.252 76,168.5C 74.8068,166.114 73.6401,163.78 72.5,161.5 Z"/></g>
<g><path style="opacity:1" fill="#56ac67" d="M 36.5,144.5 C 37.1495,146.435 37.4828,148.435 37.5,150.5C 41.309,166.463 48.9757,180.13 60.5,191.5C 63.5271,195.194 66.8604,198.527 70.5,201.5C 67.4411,201.203 64.9411,199.87 63,197.5C 62.5,198 62,198.5 61.5,199C 65.9835,201.661 69.9835,204.827 73.5,208.5C 75.8134,211.806 78.8134,214.473 82.5,216.5C 82.1667,216.833 81.8333,217.167 81.5,217.5C 77.4656,215.112 73.4656,212.778 69.5,210.5C 68.0048,210.011 66.6715,209.345 65.5,208.5C 64.4019,207.603 64.4019,206.77 65.5,206C 53.7362,195.283 45.4028,182.45 40.5,167.5C 37.7102,159.294 35.2102,150.96 33,142.5C 32.1684,134.479 32.3351,126.479 33.5,118.5C 34.0801,127.366 35.0801,136.032 36.5,144.5 Z"/></g>
<g><path style="opacity:1" fill="#5cba6f" d="M 197.5,189.5 C 198.573,190.251 198.74,191.251 198,192.5C 177.875,212.739 153.875,222.739 126,222.5C 125.667,223.167 125.333,223.833 125,224.5C 124.5,223.333 123.667,222.5 122.5,222C 118.038,221.258 113.704,221.758 109.5,223.5C 104.416,222.127 99.4158,220.46 94.5,218.5C 93.8933,218.624 93.56,218.957 93.5,219.5C 86.2653,216.882 79.5986,213.216 73.5,208.5C 69.9835,204.827 65.9835,201.661 61.5,199C 62,198.5 62.5,198 63,197.5C 64.9411,199.87 67.4411,201.203 70.5,201.5C 80.6298,209.324 91.9632,214.658 104.5,217.5C 104.833,217.5 105.167,217.5 105.5,217.5C 120.807,221.422 136.14,221.422 151.5,217.5C 168.046,213.235 182.046,204.902 193.5,192.5C 194.167,192.5 194.5,192.167 194.5,191.5C 195.5,190.833 196.5,190.167 197.5,189.5 Z"/></g>
<g><path style="opacity:1" fill="#e6e0df" d="M 149.5,216.5 C 134.928,218.771 120.261,219.104 105.5,217.5C 105.167,217.5 104.833,217.5 104.5,217.5C 103.421,211.551 103.254,205.551 104,199.5C 104.308,198.692 104.808,198.025 105.5,197.5C 112.305,199.71 119.305,200.71 126.5,200.5C 134.334,200.471 142.001,199.471 149.5,197.5C 149.5,203.833 149.5,210.167 149.5,216.5 Z"/></g>
<g><path style="opacity:1" fill="#28671b" d="M 48.5,211.5 C 53.0812,216.274 56.7479,221.774 59.5,228C 58.5838,228.374 57.7504,228.874 57,229.5C 55.5601,226.665 53.7267,226.165 51.5,228C 55.2232,229.968 55.2232,231.635 51.5,233C 52.5171,234.049 52.6838,235.216 52,236.5C 51.6667,236.167 51.3333,235.833 51,235.5C 49.0305,241.303 45.1971,245.303 39.5,247.5C 39.8808,249.942 39.2141,250.609 37.5,249.5C 35.3826,251.55 33.3826,253.55 31.5,255.5C 23.1667,255.5 14.8333,255.5 6.5,255.5C 10.3155,252.943 13.4821,249.61 16,245.5C 18.3304,246.156 19.9971,245.156 21,242.5C 21.3333,242.833 21.6667,243.167 22,243.5C 22.4828,242.552 22.6495,241.552 22.5,240.5C 31.945,236.563 37.945,229.73 40.5,220C 38.8592,218.354 39.1925,217.354 41.5,217C 36.1751,214.317 36.6751,212.817 43,212.5C 45.8641,216.732 46.8641,216.399 46,211.5C 43.793,208.922 41.9596,206.089 40.5,203C 43.8734,204.881 46.5401,207.714 48.5,211.5 Z"/></g>
<g><path style="opacity:1" fill="#45b32b" d="M 255.5,203.5 C 255.5,211.5 255.5,219.5 255.5,227.5C 254.153,228.171 252.986,228.171 252,227.5C 249.167,230.333 246.333,233.167 243.5,236C 244.654,236.914 244.487,237.747 243,238.5C 242.667,237.833 242.333,237.167 242,236.5C 239.177,238.145 237.344,240.479 236.5,243.5C 233.956,244.468 231.789,246.135 230,248.5C 229.667,248.167 229.333,247.833 229,247.5C 226.634,250.364 224.134,253.031 221.5,255.5C 212.833,255.5 204.167,255.5 195.5,255.5C 195.389,254.883 195.056,254.383 194.5,254C 197,252.833 198.833,251 200,248.5C 200.333,248.833 200.667,249.167 201,249.5C 201.935,246.898 203.768,245.398 206.5,245C 204.122,244.026 204.456,243.359 207.5,243C 206.549,242.282 206.383,241.449 207,240.5C 208.749,241.299 210.082,240.632 211,238.5C 211.974,240.878 212.641,240.544 213,237.5C 213.333,237.833 213.667,238.167 214,238.5C 216.734,237.638 216.901,236.805 214.5,236C 220.175,235.536 220.508,234.869 215.5,234C 218.167,233 220.833,232 223.5,231C 223.167,230.667 222.833,230.333 222.5,230C 224.167,229 225.833,228 227.5,227C 227.167,226.667 226.833,226.333 226.5,226C 229.167,224.667 231.833,223.333 234.5,222C 234.167,221.667 233.833,221.333 233.5,221C 234.893,218.822 236.56,217.822 238.5,218C 238.167,217.667 237.833,217.333 237.5,217C 238.653,215.117 240.319,214.284 242.5,214.5C 242.413,211.402 242.913,211.068 244,213.5C 245.439,211.725 246.439,209.725 247,207.5C 247.667,208.167 248.333,208.833 249,209.5C 251.167,208 251,206.833 248.5,206C 250.329,205.727 251.829,204.893 253,203.5C 253.333,204.167 253.667,204.833 254,205.5C 254.278,204.584 254.778,203.918 255.5,203.5 Z"/></g>
<g><path style="opacity:1" fill="#408f3d" d="M 64.5,208.5 C 64.8333,208.5 65.1667,208.5 65.5,208.5C 66.6715,209.345 68.0048,210.011 69.5,210.5C 70.7158,212.451 72.3825,213.951 74.5,215C 73.8333,215.333 73.1667,215.667 72.5,216C 78.1276,220.809 84.1276,224.976 90.5,228.5C 92.4818,229.562 94.3152,230.895 96,232.5C 97.308,231.849 98.1414,232.515 98.5,234.5C 97.8826,234.611 97.3826,234.944 97,235.5C 94.6886,233.89 92.1886,232.557 89.5,231.5C 89.3233,234.078 88.1567,234.078 86,231.5C 85.2828,232.044 84.7828,232.711 84.5,233.5C 83.603,232.402 82.7697,232.402 82,233.5C 80.324,232.939 78.9906,231.939 78,230.5C 77.6667,230.833 77.3333,231.167 77,231.5C 76.0192,228.311 74.6859,227.978 73,230.5C 72.7216,229.584 72.2216,228.918 71.5,228.5C 70.0462,227.48 69.7129,226.313 70.5,225C 66.8439,221.402 63.0106,217.902 59,214.5C 58.2086,213.255 57.7086,211.922 57.5,210.5C 59.1288,211.625 60.6288,212.959 62,214.5C 67.8524,214.562 68.0191,213.062 62.5,210C 63.4158,209.722 64.0825,209.222 64.5,208.5 Z"/></g>
<g><path style="opacity:1" fill="#3f4941" d="M 149.5,216.5 C 149.842,217.338 150.508,217.672 151.5,217.5C 136.14,221.422 120.807,221.422 105.5,217.5C 120.261,219.104 134.928,218.771 149.5,216.5 Z"/></g>
<g><path style="opacity:1" fill="#48bb2d" d="M 255.5,227.5 C 255.5,236.833 255.5,246.167 255.5,255.5C 244.167,255.5 232.833,255.5 221.5,255.5C 224.134,253.031 226.634,250.364 229,247.5C 229.333,247.833 229.667,248.167 230,248.5C 231.789,246.135 233.956,244.468 236.5,243.5C 237.344,240.479 239.177,238.145 242,236.5C 242.333,237.167 242.667,237.833 243,238.5C 244.487,237.747 244.654,236.914 243.5,236C 246.333,233.167 249.167,230.333 252,227.5C 252.986,228.171 254.153,228.171 255.5,227.5 Z"/></g>
<g><path style="opacity:1" fill="#2d721f" d="M 47.5,203.5 C 49.6298,205.127 51.6298,206.96 53.5,209C 55.366,207.992 56.6993,208.492 57.5,210.5C 57.7086,211.922 58.2086,213.255 59,214.5C 63.0106,217.902 66.8439,221.402 70.5,225C 69.7129,226.313 70.0462,227.48 71.5,228.5C 70.5251,230.193 69.1918,231.693 67.5,233C 71.449,233.807 71.449,234.307 67.5,234.5C 68.4271,237.045 68.4271,239.378 67.5,241.5C 68.0253,242.192 68.6919,242.692 69.5,243C 67.0275,244.798 65.3608,247.132 64.5,250C 63.5509,250.617 62.7175,250.451 62,249.5C 61.6759,251.695 60.8425,253.695 59.5,255.5C 50.1667,255.5 40.8333,255.5 31.5,255.5C 33.3826,253.55 35.3826,251.55 37.5,249.5C 39.2141,250.609 39.8808,249.942 39.5,247.5C 45.1971,245.303 49.0305,241.303 51,235.5C 51.3333,235.833 51.6667,236.167 52,236.5C 52.6838,235.216 52.5171,234.049 51.5,233C 55.2232,231.635 55.2232,229.968 51.5,228C 53.7267,226.165 55.5601,226.665 57,229.5C 57.7504,228.874 58.5838,228.374 59.5,228C 56.7479,221.774 53.0812,216.274 48.5,211.5C 49.0967,211.265 49.4301,210.765 49.5,210C 48.3802,208.263 47.3802,206.429 46.5,204.5C 46.6236,203.893 46.9569,203.56 47.5,203.5 Z"/></g>
<g><path style="opacity:1" fill="#327e22" d="M 71.5,228.5 C 72.2216,228.918 72.7216,229.584 73,230.5C 74.6859,227.978 76.0192,228.311 77,231.5C 77.3333,231.167 77.6667,230.833 78,230.5C 78.9906,231.939 80.324,232.939 82,233.5C 82.7697,232.402 83.603,232.402 84.5,233.5C 87.3101,237.129 90.9767,240.629 95.5,244C 94.7417,245.364 95.2417,246.531 97,247.5C 99.4385,246.134 99.9385,246.634 98.5,249C 98.9504,250.285 99.6171,251.452 100.5,252.5C 99.3881,253.265 98.7214,254.265 98.5,255.5C 85.5,255.5 72.5,255.5 59.5,255.5C 60.8425,253.695 61.6759,251.695 62,249.5C 62.7175,250.451 63.5509,250.617 64.5,250C 65.3608,247.132 67.0275,244.798 69.5,243C 68.6919,242.692 68.0253,242.192 67.5,241.5C 68.4271,239.378 68.4271,237.045 67.5,234.5C 71.449,234.307 71.449,233.807 67.5,233C 69.1918,231.693 70.5251,230.193 71.5,228.5 Z"/></g>
<g><path style="opacity:1" fill="#4eaa51" d="M 73.5,208.5 C 79.5986,213.216 86.2653,216.882 93.5,219.5C 102.377,222.967 111.377,225.967 120.5,228.5C 122.846,227.985 125.513,227.652 128.5,227.5C 128.837,230.336 130.171,231.002 132.5,229.5C 132.712,231.384 133.712,232.717 135.5,233.5C 138.806,232.893 141.806,232.893 144.5,233.5C 142.648,234.089 140.815,234.756 139,235.5C 134.468,235.322 129.634,235.322 124.5,235.5C 117.444,234.49 110.444,233.157 103.5,231.5C 102.914,231.709 102.414,232.043 102,232.5C 98.4,230.448 94.5667,229.114 90.5,228.5C 84.1276,224.976 78.1276,220.809 72.5,216C 73.1667,215.667 73.8333,215.333 74.5,215C 72.3825,213.951 70.7158,212.451 69.5,210.5C 73.4656,212.778 77.4656,215.112 81.5,217.5C 81.8333,217.167 82.1667,216.833 82.5,216.5C 78.8134,214.473 75.8134,211.806 73.5,208.5 Z"/></g>
<g><path style="opacity:1" fill="#44a039" d="M 90.5,228.5 C 94.5667,229.114 98.4,230.448 102,232.5C 102.414,232.043 102.914,231.709 103.5,231.5C 110.444,233.157 117.444,234.49 124.5,235.5C 129.634,235.322 134.468,235.322 139,235.5C 140.815,234.756 142.648,234.089 144.5,233.5C 145.787,232.472 146.954,232.805 148,234.5C 149.834,232.244 151.501,232.244 153,234.5C 154.324,233.12 155.657,232.786 157,233.5C 158.725,232.536 160.559,231.869 162.5,231.5C 159.159,233.607 155.492,235.273 151.5,236.5C 150.494,237.396 150.494,238.062 151.5,238.5C 152.192,237.975 152.692,237.308 153,236.5C 155.387,237.913 157.72,238.58 160,238.5C 160.805,236.099 161.638,236.266 162.5,239C 159.387,238.947 156.887,240.114 155,242.5C 153.284,241.448 152.284,242.114 152,244.5C 151.581,240.148 150.914,239.815 150,243.5C 148.84,241.203 147.84,241.536 147,244.5C 146.667,243.833 146.333,243.167 146,242.5C 144.333,243.833 142.667,243.833 141,242.5C 140,243.167 139,243.833 138,244.5C 136.315,242.012 134.981,242.345 134,245.5C 130.078,243.688 125.911,243.021 121.5,243.5C 120.25,243.907 119.083,243.241 118,241.5C 117.333,242.167 116.667,242.833 116,243.5C 113.177,240.751 109.844,238.751 106,237.5C 105.667,237.833 105.333,238.167 105,238.5C 104.641,235.456 103.974,235.122 103,237.5C 102.411,235.137 100.911,234.137 98.5,234.5C 98.1414,232.515 97.308,231.849 96,232.5C 94.3152,230.895 92.4818,229.562 90.5,228.5 Z"/></g>
<g><path style="opacity:1" fill="#398f28" d="M 98.5,234.5 C 100.911,234.137 102.411,235.137 103,237.5C 103.974,235.122 104.641,235.456 105,238.5C 105.333,238.167 105.667,237.833 106,237.5C 109.844,238.751 113.177,240.751 116,243.5C 116.667,242.833 117.333,242.167 118,241.5C 119.083,243.241 120.25,243.907 121.5,243.5C 122.172,244.267 123.005,244.934 124,245.5C 125.398,244.949 126.732,244.616 128,244.5C 128.456,245.744 127.956,246.577 126.5,247C 128.167,247.333 129.833,247.667 131.5,248C 129.926,248.336 128.592,249.169 127.5,250.5C 128.274,251.711 129.107,251.711 130,250.5C 130.167,250.833 130.333,251.167 130.5,251.5C 129.624,252.251 128.624,252.751 127.5,253C 128.942,253.377 129.942,254.21 130.5,255.5C 119.833,255.5 109.167,255.5 98.5,255.5C 98.7214,254.265 99.3881,253.265 100.5,252.5C 99.6171,251.452 98.9504,250.285 98.5,249C 99.9385,246.634 99.4385,246.134 97,247.5C 95.2417,246.531 94.7417,245.364 95.5,244C 90.9767,240.629 87.3101,237.129 84.5,233.5C 84.7828,232.711 85.2828,232.044 86,231.5C 88.1567,234.078 89.3233,234.078 89.5,231.5C 92.1886,232.557 94.6886,233.89 97,235.5C 97.3826,234.944 97.8826,234.611 98.5,234.5 Z"/></g>
</svg>
