<svg xmlns="http://www.w3.org/2000/svg" width="256" height="256" viewBox="0 0 256 256" version="1.1">
	<path fill-opacity="0.431" d="M -0 128.004 L -0 256.008 128.250 255.754 L 256.500 255.500 256.754 127.750 L 257.008 0 128.504 0 L 0 0 -0 128.004 M 0.485 128.500 C 0.485 198.900, 0.604 227.553, 0.750 192.172 C 0.896 156.792, 0.896 99.192, 0.750 64.172 C 0.604 29.153, 0.485 58.100, 0.485 128.500 M 111.235 40.002 C 108.889 40.496, 106.526 41.175, 105.985 41.509 C 104.835 42.220, 104.633 58.655, 105.766 59.355 C 106.187 59.616, 108.985 59.192, 111.984 58.414 C 118.906 56.619, 136.952 56.582, 143.766 58.349 C 146.627 59.092, 149.200 59.467, 149.484 59.183 C 149.768 58.899, 150 54.932, 150 50.369 C 150 42.794, 149.804 41.963, 147.750 40.842 C 144.988 39.334, 117.411 38.700, 111.235 40.002 M 59.520 70.110 C 52.313 78.087, 42.534 95.993, 41.823 102.514 C 41.528 105.216, 42.025 105.758, 47.500 108.709 C 54.920 112.709, 56.590 112.800, 57.446 109.250 C 59.133 102.250, 67.055 88.225, 72.965 81.778 L 79.126 75.056 73.813 71.735 C 63.962 65.578, 63.646 65.543, 59.520 70.110 M 187.473 68.979 C 184.188 70.653, 180.479 72.884, 179.232 73.936 L 176.964 75.850 180.580 79.675 C 187.762 87.273, 198 105.976, 198 111.498 C 198 113.497, 200.363 112.919, 207.228 109.240 C 214.466 105.361, 215.451 103.909, 213.961 99.313 C 211.145 90.625, 203.344 77.193, 196.772 69.718 L 193.447 65.936 187.473 68.979 M 113.479 68.396 C 109.617 69.131, 104.470 70.692, 102.041 71.866 C 99.612 73.040, 97.140 74, 96.547 74 C 95.346 74, 90.959 77.477, 84.563 83.500 C 79.721 88.060, 73.635 96.945, 69.836 105 C 65.913 113.320, 63.457 130.928, 66 132.500 C 66.631 132.890, 67.010 130.421, 67.026 125.809 C 67.078 110.922, 76.986 91.974, 88.760 84.241 C 90.859 82.863, 91.168 82.944, 93.083 85.378 C 94.217 86.820, 95.514 88, 95.964 88 C 96.415 88, 97.170 85.911, 97.642 83.357 C 99.150 75.199, 107.819 70.680, 124.583 69.314 C 148.160 67.392, 170.833 80.996, 182.395 104 C 185.021 109.225, 186.877 112.375, 186.520 111 C 184.874 104.659, 178.597 93.849, 173.038 87.783 C 165.719 79.795, 158.766 75.045, 148.354 70.918 C 141.844 68.337, 138.789 67.741, 130.500 67.432 C 124.669 67.215, 117.573 67.616, 113.479 68.396 M 101.472 80.671 C 99.944 82.199, 99.728 87.165, 99.983 114.919 C 100.013 118.101, 100.448 118.409, 102.301 116.557 C 103.458 115.399, 103.964 115.326, 104.341 116.259 C 104.616 116.942, 104.878 114.714, 104.921 111.309 C 104.964 107.904, 105.445 104.843, 105.989 104.507 C 106.576 104.144, 106.719 104.627, 106.341 105.698 C 105.824 107.164, 105.955 107.269, 107.043 106.260 C 108.361 105.038, 108.187 104.456, 104.250 96.922 C 104.084 96.603, 105.478 95.519, 107.348 94.512 L 110.748 92.681 118.624 97.444 C 122.956 100.063, 127.125 102.308, 127.888 102.432 C 128.652 102.556, 129.821 103.403, 130.487 104.313 C 131.153 105.224, 131.991 105.676, 132.349 105.318 C 132.707 104.960, 133 105.144, 133 105.726 C 133 107.310, 136.073 108.184, 137.494 107.005 C 138.371 106.277, 139.103 106.419, 139.990 107.488 C 140.743 108.395, 140.829 109, 140.206 109 C 139.634 109, 138.987 108.460, 138.766 107.799 C 138.503 107.008, 138.147 106.953, 137.722 107.640 C 137.368 108.213, 138.475 109.714, 140.182 110.976 C 141.889 112.238, 142.970 112.760, 142.584 112.135 C 142.167 111.462, 142.559 111, 143.548 111 C 144.618 111, 145.008 111.537, 144.638 112.500 C 144.219 113.593, 144.801 114.032, 146.781 114.118 C 148.277 114.184, 149.950 114.151, 150.500 114.047 C 151.050 113.943, 150.938 114.429, 150.250 115.129 C 148.100 117.316, 148.887 118.409, 151.170 116.405 C 153.288 114.545, 153.323 114.545, 152.647 116.391 C 152.067 117.974, 152.196 118.083, 153.433 117.055 C 154.247 116.380, 155.335 116.089, 155.851 116.408 C 156.368 116.727, 157.040 116.339, 157.344 115.545 C 157.714 114.582, 157.416 114.287, 156.449 114.658 C 155.519 115.015, 155 114.578, 155 113.440 C 155 112.465, 154.716 111.951, 154.369 112.298 C 153.434 113.233, 149.847 111.057, 150.522 109.965 C 150.861 109.416, 149.840 109.282, 148.050 109.640 C 146.137 110.023, 145 109.842, 145 109.156 C 145 108.532, 145.750 108.344, 146.750 108.719 C 148.306 109.302, 148.342 109.180, 147.073 107.621 C 145.271 105.408, 140.456 102.877, 139.627 103.707 C 139.282 104.051, 139 103.535, 139 102.560 C 139 101.368, 138.491 100.981, 137.448 101.382 C 136.594 101.709, 136.134 101.592, 136.425 101.121 C 136.919 100.322, 108.566 81.160, 104.779 79.733 C 103.780 79.357, 102.392 79.751, 101.472 80.671 M 142.500 107 C 142.840 107.550, 143.316 108, 143.559 108 C 143.802 108, 144 107.550, 144 107 C 144 106.450, 143.523 106, 142.941 106 C 142.359 106, 142.160 106.450, 142.500 107 M 102.079 108.583 C 102.127 109.748, 102.364 109.985, 102.683 109.188 C 102.972 108.466, 102.936 107.603, 102.604 107.271 C 102.272 106.939, 102.036 107.529, 102.079 108.583 M 106.252 113.500 C 106.263 115.700, 106.468 116.482, 106.707 115.238 C 106.946 113.994, 106.937 112.194, 106.687 111.238 C 106.437 110.282, 106.241 111.300, 106.252 113.500 M 116.131 113 C 116.064 115.351, 116.317 116.048, 116.904 115.122 C 117.384 114.364, 118.196 114.003, 118.708 114.320 C 119.221 114.636, 120.959 115.128, 122.570 115.413 L 125.500 115.929 123 113.957 C 121.625 112.873, 119.736 112.165, 118.803 112.385 C 117.829 112.615, 116.919 112.085, 116.669 111.143 C 116.428 110.239, 116.187 111.075, 116.131 113 M 126 115.409 C 126 115.599, 126.675 116.315, 127.500 117 C 128.365 117.718, 129 117.815, 129 117.229 C 129 116.671, 128.325 115.955, 127.500 115.638 C 126.675 115.322, 126 115.219, 126 115.409 M 187.079 116.583 C 187.127 117.748, 187.364 117.985, 187.683 117.188 C 187.972 116.466, 187.936 115.603, 187.604 115.271 C 187.272 114.939, 187.036 115.529, 187.079 116.583 M 188.193 128 C 188.075 132.125, 187.760 137.300, 187.493 139.500 L 187.008 143.500 188.044 140.207 C 188.613 138.396, 188.928 133.221, 188.743 128.707 L 188.407 120.500 188.193 128 M 68.079 146.583 C 68.127 147.748, 68.364 147.985, 68.683 147.188 C 68.972 146.466, 68.936 145.603, 68.604 145.271 C 68.272 144.939, 68.036 145.529, 68.079 146.583 M 49.500 148.071 C 47.300 149.155, 44.399 150.889, 43.054 151.924 L 40.607 153.805 43.299 160.665 C 46.791 169.565, 53.710 181.319, 58.801 187 L 62.834 191.500 67.167 189.241 C 69.550 187.998, 72.828 185.921, 74.450 184.625 L 77.400 182.269 72.268 176.511 C 66.770 170.343, 58.534 155.361, 57.442 149.545 C 56.669 145.421, 55.367 145.179, 49.500 148.071 M 197.059 150.250 C 194.862 157.669, 187.187 171.391, 181.941 177.276 L 176.874 182.962 183.037 186.945 C 192.189 192.861, 192.825 192.927, 196.777 188.381 C 203.383 180.785, 211.159 167.330, 213.990 158.600 C 215.177 154.937, 215.110 154.588, 212.877 152.849 C 210.270 150.819, 200.660 146, 199.220 146 C 198.723 146, 197.750 147.912, 197.059 150.250 M 185.079 148.109 C 185.036 148.994, 183.671 152.353, 182.047 155.573 C 180.423 158.793, 179.290 161.623, 179.530 161.863 C 180.297 162.630, 186.196 149.077, 185.667 147.764 C 185.333 146.935, 185.131 147.053, 185.079 148.109 M 81 169.500 C 82.292 170.875, 83.574 172, 83.849 172 C 84.124 172, 83.292 170.875, 82 169.500 C 80.708 168.125, 79.426 167, 79.151 167 C 78.876 167, 79.708 168.125, 81 169.500 M 169.946 172.750 L 166.500 176.500 170.250 173.054 C 173.740 169.846, 174.460 169, 173.696 169 C 173.529 169, 171.842 170.688, 169.946 172.750 M 158.441 181.555 C 156.577 183.049, 156.589 183.067, 158.750 182.020 C 159.988 181.420, 161 180.720, 161 180.465 C 161 179.700, 160.481 179.921, 158.441 181.555 M 125.264 190.718 C 126.784 190.947, 129.034 190.941, 130.264 190.704 C 131.494 190.467, 130.250 190.279, 127.500 190.286 C 124.750 190.294, 123.744 190.488, 125.264 190.718 M 105.465 200.230 C 105.158 201.032, 105.040 204.989, 105.203 209.025 C 105.495 216.234, 105.553 216.377, 108.500 217.185 C 118.269 219.861, 147.249 218.776, 149.232 215.659 C 150.146 214.223, 150.219 206.347, 149.359 202.045 C 148.827 199.387, 148.359 198.938, 146.609 199.411 C 145.449 199.725, 140.661 200.482, 135.969 201.093 C 127.879 202.148, 115.217 201.377, 108.262 199.407 C 106.772 198.985, 105.837 199.260, 105.465 200.230" stroke="none" fill="black" fill-rule="evenodd"/>
	<path fill-opacity="0.070" d="M 0 128 L 0 256 103.066 256 C 203.472 256, 211.220 255.783, 209.512 253.019 C 209.212 252.535, 209.494 251.813, 210.138 251.415 C 210.912 250.937, 211.040 251.127, 210.515 251.975 C 209.986 252.831, 210.185 253.105, 211.111 252.796 C 211.875 252.542, 212.510 251.696, 212.522 250.917 C 212.535 250.101, 213.320 249.634, 214.373 249.817 C 215.603 250.030, 215.953 249.734, 215.444 248.909 C 214.913 248.050, 215.284 247.841, 216.691 248.209 C 218.324 248.636, 218.647 248.294, 218.435 246.362 C 218.292 245.057, 218.593 244.248, 219.104 244.564 C 219.615 244.880, 219.793 245.526, 219.500 246 C 219.207 246.474, 219.385 247.120, 219.896 247.436 C 220.407 247.752, 220.700 246.872, 220.547 245.481 C 220.395 244.090, 220.729 242.668, 221.289 242.321 C 221.910 241.938, 221.998 242.194, 221.515 242.975 C 220.983 243.837, 221.179 244.093, 222.111 243.755 C 222.875 243.477, 223.376 242.710, 223.225 242.051 C 223.065 241.349, 223.446 241.158, 224.145 241.590 C 224.988 242.111, 225.127 241.773, 224.617 240.445 C 224.220 239.409, 224.219 238.886, 224.616 239.283 C 225.013 239.680, 226.122 239.294, 227.081 238.427 C 228.040 237.559, 229.494 236.751, 230.311 236.631 C 232.177 236.357, 235 234.061, 235 232.819 C 235 232.303, 234.438 232.206, 233.750 232.601 C 233.024 233.019, 232.849 232.939, 233.333 232.410 C 234.170 231.496, 234.637 231.356, 237.607 231.125 C 238.628 231.046, 238.997 230.434, 238.618 229.448 C 238.277 228.558, 238.445 228.157, 239.011 228.507 C 239.555 228.843, 240 228.718, 240 228.228 C 240 227.738, 241.110 226.744, 242.466 226.018 C 243.822 225.292, 244.696 224.316, 244.407 223.849 C 244.118 223.382, 245.034 223, 246.441 223 C 247.848 223, 249 222.550, 249 222 C 249 220.700, 253.275 216.425, 254.250 216.750 C 254.662 216.887, 255.098 216.437, 255.219 215.750 C 255.339 215.062, 255.691 223.725, 256 235 C 256.309 246.275, 256.661 198.013, 256.781 127.750 L 257 0 128.500 0 L 0 0 0 128 M 0.485 128.500 C 0.485 198.900, 0.604 227.553, 0.750 192.172 C 0.896 156.792, 0.896 99.192, 0.750 64.172 C 0.604 29.153, 0.485 58.100, 0.485 128.500 M 114.462 35.555 C 102.210 37.615, 80 46.049, 80 48.641 C 80 48.947, 81.663 48.216, 83.697 47.017 C 88.961 43.910, 102.130 39.261, 110.643 37.502 C 114.643 36.676, 122.547 36.008, 128.208 36.017 C 175.255 36.097, 214.850 71.431, 220.153 118.069 C 223.893 150.961, 209.927 183.752, 184 202.954 C 164.748 217.212, 142.652 223.197, 117.750 220.900 C 106.277 219.842, 98.208 217.501, 86.672 211.885 C 62.960 200.341, 47.440 181.645, 38.423 153.763 C 34.796 142.549, 33.901 123.036, 36.482 111.437 C 38.418 102.736, 44.741 86.516, 48.323 81.061 C 53.549 73.104, 54.210 72, 53.748 72 C 53.483 72, 51.125 75.191, 48.508 79.092 C 35.812 98.014, 30.161 125.359, 34.440 147.162 C 38.754 169.142, 47.298 186.619, 60.963 201.411 C 65.433 206.250, 80.358 218, 82.033 218 C 82.506 218, 85.533 219.547, 88.759 221.438 C 96.797 226.149, 106.172 229.534, 116.667 231.515 C 127.290 233.520, 144.885 234.145, 146.942 232.590 C 148.033 231.765, 148.201 231.804, 147.633 232.750 C 146.844 234.063, 148.172 234.495, 149.356 233.310 C 149.736 232.931, 151.498 232.480, 153.273 232.308 C 156.578 231.987, 160.304 231.311, 160.750 230.952 C 160.887 230.841, 161.338 230.662, 161.750 230.555 C 185.799 224.317, 210.461 204.312, 220.500 182.899 C 222.150 179.380, 223.756 176.275, 224.069 176 C 224.695 175.449, 228.213 166.800, 228.136 166 C 228.109 165.725, 228.274 164.600, 228.502 163.500 C 229.313 159.589, 230.047 151.334, 230.636 139.500 C 231.518 121.775, 227.758 105.173, 218.949 87.899 C 216.410 82.919, 207.065 70.502, 201.328 64.485 C 196.421 59.337, 187.526 52, 186.195 52 C 185.629 52, 185.017 51.663, 184.833 51.250 C 184.284 50.013, 167.861 42.179, 160.229 39.513 C 151.654 36.517, 136.720 33.972, 128.500 34.106 C 125.200 34.160, 118.883 34.812, 114.462 35.555 M 114.464 38.922 C 104.037 40.594, 103.270 41.751, 104.495 53.955 L 105.180 60.771 110.300 59.421 C 121.189 56.548, 132.658 56.588, 146.659 59.546 L 149.818 60.214 150.500 53.847 C 151.437 45.092, 150.220 40.856, 146.452 39.758 C 142.246 38.533, 120.442 37.963, 114.464 38.922 M 75.203 51.429 C 70.558 54.713, 69.905 55.652, 73.827 53.406 C 75.657 52.357, 77.624 50.938, 78.199 50.250 C 79.677 48.483, 78.984 48.756, 75.203 51.429 M 62 62.500 C 57.903 66.625, 54.775 70, 55.050 70 C 55.325 70, 58.903 66.625, 63 62.500 C 67.097 58.375, 70.225 55, 69.950 55 C 69.675 55, 66.097 58.375, 62 62.500 M 89.942 60.948 C 86.421 62.017, 83.003 63.919, 80.624 66.135 C 79.524 67.161, 78.288 68, 77.879 68 C 77.470 68, 76.872 68.827, 76.552 69.837 C 76.008 71.551, 75.589 71.483, 70.343 68.837 C 67.249 67.277, 64.132 66, 63.416 66 C 61.172 66, 51.050 79.988, 46.451 89.445 C 40.942 100.774, 40.217 103.984, 42.670 106.194 C 45.532 108.771, 54.980 113.221, 56.419 112.669 C 57.132 112.396, 58.013 110.687, 58.376 108.872 C 60.151 99.993, 74.077 78.063, 75.625 81.707 C 75.949 82.469, 78.842 80.766, 83.473 77.085 C 87.507 73.879, 93.317 69.821, 96.383 68.067 C 102.741 64.429, 104.043 63, 101 63 C 99.835 63, 99.131 62.597, 99.435 62.105 C 100.631 60.171, 94.832 59.464, 89.942 60.948 M 109.679 68.087 C 91.440 73.288, 77.938 84.832, 69.628 102.332 C 62.128 118.124, 62.458 137.486, 70.516 154.466 C 76.216 166.477, 82.168 173.490, 92.317 180.155 C 102.325 186.726, 110.251 189.524, 122.689 190.875 C 131.422 191.823, 136.049 191.277, 146.859 188.018 C 171.116 180.705, 189.845 155.471, 190.245 129.563 C 190.521 111.647, 181.814 92.473, 168.348 81.343 C 161.346 75.556, 149.364 69.297, 141.933 67.546 C 132.931 65.424, 118.149 65.672, 109.679 68.087 M 187.432 68.075 C 185.194 69.162, 181.828 71.333, 179.951 72.899 L 176.539 75.748 180.077 79.663 C 187.596 87.986, 193.646 98.536, 196.469 108.246 C 198.304 114.559, 198.258 114.550, 206.716 110.072 C 214.010 106.209, 215.345 104.654, 214.632 100.851 C 212.784 91.003, 196.893 65.863, 192.634 66.050 C 192.010 66.077, 189.669 66.989, 187.432 68.075 M 116.750 71.080 C 114.544 72.365, 114.553 73.142, 116.800 75.561 C 119.212 78.157, 120.139 80.796, 118.908 81.557 C 118.254 81.961, 118.313 82.672, 119.074 83.589 C 120.867 85.750, 119.798 85.337, 112.377 81 C 108.612 78.800, 104.522 77, 103.289 77 C 99.947 77, 98.294 80.603, 97.697 89.193 C 97.147 97.120, 95.864 101.207, 94.579 99.128 C 94.196 98.508, 92.615 98, 91.066 98 C 85.558 98, 82.072 96.802, 81.398 94.678 C 80.764 92.681, 80.632 92.718, 78.270 95.547 C 69.458 106.100, 65.103 125.812, 68.298 140.677 C 74.865 171.219, 100.100 190.430, 131.408 188.720 C 147.727 187.829, 157.628 183.355, 169.518 171.500 C 178.293 162.751, 182.699 155.203, 185.610 143.928 C 187.962 134.818, 187.734 120.311, 185.107 112 C 178.984 92.624, 162.352 76.452, 143.496 71.541 C 136.819 69.802, 119.458 69.503, 116.750 71.080 M 101.152 80.316 C 100.096 81.589, 98.989 103.860, 97.404 155.750 L 96.724 178 99.139 178 C 100.468 178, 102.443 177.400, 103.527 176.667 C 104.612 175.934, 110.225 172.849, 116 169.812 C 121.775 166.774, 131.675 161.570, 138 158.246 C 184.827 133.638, 185.048 133.505, 183.497 130.996 C 183.087 130.332, 168.970 120.698, 152.126 109.587 C 101.578 76.243, 103.579 77.392, 101.152 80.316 M 107.905 94.716 C 106.582 95.607, 105.352 96.447, 105.170 96.582 C 104.989 96.716, 105.602 97.989, 106.533 99.410 C 108.085 101.779, 108.135 104.075, 107.130 127.180 C 106.528 141.034, 106.221 152.554, 106.448 152.781 C 107.343 153.676, 112.890 149.532, 113.415 147.576 C 113.722 146.434, 114.023 139.425, 114.085 132 C 114.147 124.575, 114.491 116.121, 114.849 113.213 L 115.500 107.926 128.430 115.713 C 135.542 119.996, 141.522 124.003, 141.720 124.618 C 141.917 125.233, 138.461 127.618, 134.039 129.919 C 126.050 134.075, 126 134.126, 126 138.051 C 126 140.223, 126.338 141.993, 126.750 141.984 C 128.319 141.951, 157.434 126.199, 157.765 125.204 C 158.047 124.359, 119.281 97.896, 112.239 94.128 C 110.794 93.355, 109.705 93.503, 107.905 94.716 M 108.694 96.639 C 108.342 96.991, 108.282 97.647, 108.559 98.096 C 109.183 99.105, 112 98.120, 112 96.893 C 112 95.867, 109.647 95.686, 108.694 96.639 M 118.631 118.761 C 118.333 120.817, 117.800 129.532, 117.445 138.126 L 116.801 153.751 112.151 155.931 C 109.593 157.130, 106.410 158.934, 105.077 159.940 L 102.654 161.770 105.777 163.385 C 107.495 164.273, 109.452 165, 110.125 165 C 110.799 165, 118.359 161.024, 126.925 156.165 C 135.491 151.306, 147.605 144.474, 153.844 140.983 C 161.763 136.553, 165.472 133.888, 166.131 132.156 C 167.820 127.713, 165.599 127.748, 156.902 132.302 C 152.281 134.722, 142.786 139.694, 135.802 143.351 C 128.817 147.008, 122.784 150, 122.395 150 C 122.006 150, 121.966 142.582, 122.307 133.515 C 122.888 118.063, 122.809 116.968, 121.049 116.026 C 119.399 115.143, 119.107 115.474, 118.631 118.761 M 126.766 124.250 C 126.521 126.588, 126.506 128.719, 126.731 128.987 C 127.275 129.634, 134.327 125.519, 134.726 124.322 C 134.973 123.580, 129.048 120, 127.571 120 C 127.373 120, 127.010 121.912, 126.766 124.250 M 49.500 147.593 C 46.750 148.991, 43.635 150.983, 42.577 152.018 C 40.838 153.721, 40.774 154.313, 41.913 158.201 C 44.485 166.986, 56.217 186.615, 61.532 191.026 C 62.600 191.913, 64.006 191.577, 67.745 189.542 C 70.403 188.096, 73.910 185.838, 75.539 184.526 L 78.500 182.139 73.812 177.320 C 67.815 171.154, 61.511 160.364, 58.872 151.750 C 57.735 148.037, 56.287 145.012, 55.653 145.026 C 55.019 145.040, 52.250 146.195, 49.500 147.593 M 196.084 151.750 C 193.260 160.424, 186.936 171.111, 180.752 177.660 L 175.879 182.821 180.190 185.770 C 186.095 189.810, 190.557 192.011, 192.700 191.942 C 195.669 191.846, 203.662 181.207, 209.509 169.571 C 215.419 157.809, 215.989 155.205, 213.209 152.690 C 211.479 151.124, 200.129 145.038, 198.891 145.013 C 198.556 145.006, 197.292 148.037, 196.084 151.750 M 104.480 204.346 C 104.101 207.881, 104.092 212.143, 104.460 213.818 C 105.050 216.506, 105.712 216.987, 110.114 217.931 C 116.579 219.318, 138.461 219.309, 144.951 217.917 L 150 216.834 149.986 209.667 C 149.964 198.083, 149.998 198.129, 142.681 199.663 C 132.602 201.775, 115.593 201.196, 106.834 198.442 C 105.441 198.004, 105.055 198.973, 104.480 204.346 M 230.613 235.183 C 230.902 235.650, 231.557 235.774, 232.069 235.457 C 233.377 234.649, 233.230 234.333, 231.544 234.333 C 230.743 234.333, 230.324 234.716, 230.613 235.183" stroke="none" fill="black" fill-rule="evenodd"/>
	<path fill-opacity="0.481" d="M 0 128.040 L 0 256.080 29.956 255.946 C 56.568 255.826, 60.051 255.627, 61.158 254.156 C 62.208 252.760, 62.183 252.696, 61.002 253.750 C 58.549 255.937, 57.982 255.093, 60.286 252.684 C 61.728 251.175, 63.038 250.625, 64.043 251.108 C 65.159 251.644, 65.629 251.276, 65.742 249.775 C 65.828 248.635, 66.437 247.206, 67.096 246.601 C 68.005 245.766, 68.132 245.957, 67.624 247.391 C 67.054 249.001, 67.183 249.093, 68.488 248.010 C 69.858 246.873, 69.834 246.582, 68.261 245.294 C 67.292 244.501, 67.031 244.117, 67.681 244.442 C 68.330 244.767, 69.144 244.575, 69.490 244.016 C 69.835 243.457, 69.641 243, 69.059 243 C 68.477 243, 68 242.523, 68 241.941 C 68 241.359, 68.563 241.220, 69.250 241.633 C 70.099 242.143, 70.060 241.842, 69.128 240.692 C 68.373 239.761, 68.024 239, 68.353 239 C 68.682 239, 68.544 237.932, 68.048 236.627 C 67.452 235.059, 67.529 233.871, 68.273 233.127 C 69.109 232.291, 69.047 232, 68.033 232 C 67.282 232, 66.925 231.742, 67.240 231.426 C 67.556 231.111, 66.079 228.973, 63.959 226.676 C 55.897 217.941, 53.717 215.370, 50.749 211.095 C 49.067 208.673, 47.568 205.571, 47.418 204.203 C 47.268 202.836, 46.357 200.993, 45.395 200.108 C 43.777 198.622, 43.781 198.727, 45.446 201.500 C 46.967 204.032, 46.989 204.255, 45.590 202.931 C 44.679 202.068, 43.716 200.162, 43.450 198.697 C 43.184 197.231, 41.624 193.754, 39.983 190.972 C 38.342 188.189, 37 185.680, 37 185.396 C 37 185.113, 35.147 180.998, 32.882 176.252 C 26.841 163.597, 24.611 151.994, 24.664 133.500 C 24.700 120.688, 25.078 117.102, 27.254 108.915 C 30.959 94.972, 35.376 84.661, 41.737 75.101 C 65.906 38.777, 105.327 21.261, 149.092 27.400 C 168.198 30.080, 183.618 37.149, 204.159 52.648 C 209.153 56.417, 213.636 59.387, 214.120 59.250 C 214.604 59.112, 215 59.648, 215 60.441 C 215 61.234, 215.520 62.203, 216.155 62.595 C 216.934 63.078, 217.040 62.853, 216.479 61.905 C 214.542 58.626, 225.951 69.885, 228.514 73.783 C 230.064 76.138, 232.269 79.087, 233.416 80.335 C 237.483 84.763, 240.905 89.762, 240.290 90.377 C 239.947 90.719, 240.211 91, 240.877 91 C 241.543 91, 241.955 90.355, 241.794 89.566 C 241.632 88.777, 241.838 88.102, 242.250 88.066 C 244.478 87.871, 245 88.132, 245 89.441 C 245 90.234, 245.408 91.134, 245.907 91.442 C 246.405 91.751, 246.591 91.153, 246.320 90.114 C 246.048 89.076, 246.310 87.927, 246.901 87.561 C 247.573 87.146, 247.746 87.498, 247.362 88.499 C 246.860 89.807, 247.232 89.980, 249.387 89.439 C 251.030 89.027, 252.658 89.290, 253.700 90.138 C 255.183 91.344, 255.289 91.271, 254.628 89.500 C 254.106 88.102, 254.198 87.814, 254.935 88.544 C 255.652 89.255, 256.072 116.098, 256.250 172.544 C 256.452 236.484, 256.568 226.215, 256.756 127.750 L 257 0 128.500 0 L 0 0 0 128.040 M 0.485 128.500 C 0.485 198.900, 0.604 227.553, 0.750 192.172 C 0.896 156.792, 0.896 99.192, 0.750 64.172 C 0.604 29.153, 0.485 58.100, 0.485 128.500 M 106.261 39.007 C 102.280 40.050, 95.503 42.429, 91.201 44.293 C 63.040 56.497, 41.759 83.598, 36.956 113.374 C 35.408 122.971, 36.227 144.369, 38.453 152.480 C 46.125 180.435, 67.952 204.681, 95 215.294 C 109.690 221.058, 130.727 222.586, 147.500 219.107 C 164.656 215.548, 178.672 208.140, 190.791 196.225 C 195.112 191.976, 197.490 189.470, 196.074 190.655 C 193.580 192.743, 193.370 192.759, 189.331 191.155 C 187.039 190.245, 183.061 188.018, 180.493 186.208 L 175.823 182.916 179.696 178.708 C 187.383 170.356, 194.680 157.515, 196.474 149.182 C 196.867 147.358, 197.774 145.640, 198.490 145.365 C 200.174 144.719, 211.551 150.460, 214.570 153.479 L 216.898 155.807 218.199 150.154 C 220.219 141.374, 219.859 113.135, 217.624 105 C 210.294 78.329, 189.451 54.452, 164.395 44.021 C 151.040 38.461, 143.287 36.994, 127.590 37.055 C 117.109 37.096, 111.646 37.596, 106.261 39.007 M 111.530 39.172 C 105.106 40.398, 104 41.418, 104 46.122 C 104 49.974, 102.461 51.366, 101.364 48.507 C 100.649 46.642, 97.789 47.254, 89.154 51.120 C 82.665 54.026, 71.908 61.196, 68.725 64.738 C 67.597 65.992, 66.103 66.551, 64.628 66.269 C 60.374 65.456, 49.951 79.688, 43.717 94.823 C 40.694 102.162, 40.126 104.447, 41.050 105.560 C 42.640 107.476, 56.022 114.104, 57.036 113.478 C 57.482 113.202, 58.156 111.520, 58.535 109.739 C 59.999 102.849, 68 87.790, 68 91.923 C 68 92.496, 72.162 88.810, 77.250 83.732 C 88.895 72.109, 95.913 67.940, 115 61.307 C 116.192 60.892, 116.099 60.636, 114.543 60.057 C 108.425 57.780, 134.864 57.293, 143.432 59.524 C 146.651 60.363, 149.558 60.775, 149.892 60.441 C 150.689 59.645, 150.683 41.350, 149.886 40.553 C 147.553 38.219, 121.450 37.279, 111.530 39.172 M 118.500 65.649 C 103.733 68.015, 92.235 73.693, 82.435 83.459 C 62.611 103.214, 58.039 130.605, 70.402 155.548 C 72.869 160.525, 76.723 166.903, 78.968 169.722 C 87.120 179.961, 101.200 187.679, 118 191.118 C 129.712 193.515, 132.609 193.262, 148.709 188.426 C 155.306 186.445, 158.385 184.795, 164.381 180.030 C 171.837 174.105, 180.793 164.280, 183.373 159.194 C 184.125 157.712, 186.036 152.900, 187.620 148.500 C 190.177 141.399, 190.496 139.208, 190.462 129 C 190.421 116.418, 188.919 109.753, 183.928 100 C 175.916 84.346, 160.706 71.964, 143.955 67.461 C 138.137 65.897, 123.469 64.853, 118.500 65.649 M 188.347 66.995 C 185.462 68.159, 176 74.998, 176 75.919 C 176 76.322, 177.180 77.742, 178.623 79.076 C 185.482 85.416, 193.832 99.402, 196.052 108.267 C 196.709 110.889, 197.672 113.298, 198.193 113.620 C 199.541 114.452, 211.128 108.557, 213.860 105.649 L 216.149 103.213 213.435 96.356 C 209.387 86.127, 207.737 83.168, 201.081 74.190 C 194.803 65.724, 193.427 64.946, 188.347 66.995 M 132 72.582 C 132.825 73.633, 134.063 75.089, 134.750 75.818 C 135.438 76.546, 136.056 77.786, 136.125 78.571 C 136.372 81.396, 136.513 81.845, 137.410 82.667 C 137.951 83.161, 137.987 82.890, 137.500 82 C 137.048 81.173, 137.064 80.850, 137.535 81.279 C 138.711 82.349, 139.044 85.145, 137.912 84.446 C 137.410 84.136, 137 84.536, 137 85.336 C 137 86.136, 135.135 87.714, 132.855 88.842 C 128.719 90.888, 128.701 90.888, 124.854 88.925 C 122.733 87.843, 117.961 85.002, 114.249 82.611 C 100.350 73.659, 98.636 74.909, 97.519 94.820 C 97.170 101.046, 96.637 106.783, 96.335 107.570 C 95.964 108.537, 94.223 109, 90.958 109 C 84.971 109, 82.411 108.015, 78.193 104.088 L 74.886 101.009 72.411 106.606 C 68.739 114.909, 67.732 121.101, 68.223 132.372 C 68.757 144.634, 71.286 152.641, 77.650 162.222 C 92.392 184.411, 120.158 194.067, 146.135 186.039 C 162.917 180.852, 178.822 164.973, 184.029 148.206 C 192.219 121.835, 182.733 94.485, 160.336 79.893 C 152.279 74.644, 145.255 72.041, 137.104 71.285 C 130.709 70.692, 130.547 70.733, 132 72.582 M 100.129 81.250 C 99.677 82.487, 98.780 100.825, 98.135 122 C 97.491 143.175, 96.692 164.390, 96.361 169.144 C 95.788 177.367, 95.863 177.822, 97.905 178.470 C 99.449 178.960, 102.780 177.689, 109.776 173.939 C 115.124 171.073, 133.450 161.310, 150.500 152.244 C 167.550 143.178, 182.063 135.310, 182.750 134.758 C 185.483 132.566, 183.920 130.128, 176.750 125.400 C 169.057 120.327, 136.008 98.628, 117.281 86.353 C 105.313 78.509, 101.540 77.386, 100.129 81.250 M 107.187 95.563 C 105.032 97.089, 104.985 97.326, 106.502 99.003 C 107.959 100.613, 108.056 103.507, 107.415 126.401 C 106.995 141.445, 107.071 151.991, 107.600 151.978 C 108.095 151.966, 109.492 151.178, 110.704 150.228 C 112.800 148.584, 112.941 147.514, 113.605 128.250 C 114.075 114.597, 114.660 108.009, 115.401 108.027 C 117.052 108.067, 142.292 123.340, 142.684 124.537 C 142.871 125.107, 139.196 127.582, 134.518 130.037 C 126.106 134.450, 126.011 134.543, 126.005 138.324 L 126 142.147 142 133.876 C 150.800 129.327, 157.989 125.356, 157.976 125.052 C 157.938 124.178, 113.499 94.942, 111.393 94.406 C 110.352 94.141, 108.459 94.662, 107.187 95.563 M 108.341 96.768 C 107.509 97.297, 107.699 98.145, 109.013 99.767 C 110.615 101.746, 111.166 101.881, 113.429 100.851 C 115.863 99.741, 115.917 99.566, 114.352 97.836 C 112.618 95.920, 110.316 95.511, 108.341 96.768 M 118.580 126.700 C 118.239 132.640, 117.703 141.226, 117.388 145.780 L 116.815 154.060 112.158 156.450 C 109.596 157.765, 106.627 159.495, 105.560 160.296 C 103.689 161.699, 103.733 161.811, 106.771 163.381 L 109.922 165.011 137.455 149.756 C 158.532 138.077, 165.134 133.962, 165.614 132.203 C 166.656 128.381, 165.174 128.368, 158.183 132.137 C 154.508 134.118, 144.873 139.198, 136.774 143.424 L 122.048 151.109 121.774 133.887 C 121.585 122.010, 121.143 116.546, 120.350 116.282 C 119.554 116.018, 119.008 119.230, 118.580 126.700 M 127 125.020 L 127 129.041 131 127 C 133.200 125.878, 135 124.755, 135 124.505 C 135 123.866, 129.318 121, 128.050 121 C 127.472 121, 127 122.809, 127 125.020 M 49.246 147.514 C 39.313 152.483, 39.354 152.391, 42.934 161.660 C 46.785 171.630, 52.138 180.667, 58.118 187.294 L 62.816 192.500 67.282 190.178 C 69.739 188.900, 73.249 186.603, 75.083 185.072 L 78.417 182.288 73.227 176.465 C 67.368 169.892, 60.996 158.316, 58.520 149.750 C 57.606 146.588, 56.725 144, 56.563 144 C 56.401 144, 53.108 145.581, 49.246 147.514 M 212.684 163.685 C 211.226 167.360, 210.443 169.947, 210.945 169.434 C 212.101 168.250, 216.199 157.865, 215.704 157.371 C 215.501 157.168, 214.142 160.009, 212.684 163.685 M 202.560 182.250 C 200.216 185.433, 199.640 186.638, 201.097 185.310 C 203.279 183.321, 207.594 177, 206.770 177 C 206.581 177, 204.687 179.363, 202.560 182.250 M 104.625 201.125 C 103.534 206.579, 103.943 214.540, 105.418 216.559 C 106.711 218.329, 108.365 218.527, 124.168 218.808 C 133.701 218.977, 143.300 218.733, 145.500 218.266 L 149.500 217.415 149.791 208.549 C 149.951 203.672, 149.691 199.291, 149.213 198.813 C 148.720 198.320, 145.561 198.599, 141.922 199.457 C 133.889 201.350, 121.496 201.369, 113 199.500 C 109.425 198.714, 106.219 198.054, 105.875 198.035 C 105.531 198.016, 104.969 199.406, 104.625 201.125 M 68.813 234.683 C 69.534 234.972, 70.397 234.936, 70.729 234.604 C 71.061 234.272, 70.471 234.036, 69.417 234.079 C 68.252 234.127, 68.015 234.364, 68.813 234.683" stroke="none" fill="black" fill-rule="evenodd"/>
	<path fill-opacity="0.714" d="M 0.116 90.250 C 0.180 139.888, 0.439 179.707, 0.692 178.738 C 0.945 177.769, 1.570 177.235, 2.083 177.551 C 2.595 177.868, 3.277 177.311, 3.598 176.313 C 3.919 175.316, 4.604 173.600, 5.120 172.500 C 6.945 168.612, 8.826 160, 7.850 160 C 7.318 160, 7.214 159.463, 7.620 158.806 C 8.026 158.149, 8.506 154.437, 8.688 150.556 C 8.870 146.675, 9.413 142.150, 9.894 140.500 C 10.376 138.850, 10.793 136.600, 10.821 135.500 C 11.546 107.158, 23.089 78.138, 42.649 55.481 C 48.738 48.429, 60.670 38.444, 69 33.430 C 72.575 31.279, 75.725 29.220, 76 28.856 C 77.150 27.334, 90.292 21.991, 101 18.692 C 116.816 13.819, 120.489 13.301, 143.751 12.670 C 147.188 12.576, 150.001 12.725, 150.001 13 C 150.001 13.275, 153.713 13.620, 158.250 13.767 C 169 14.115, 175.525 14.612, 176.620 15.167 C 177.601 15.664, 187.658 15.401, 190 14.818 C 190.825 14.612, 192.092 14.074, 192.817 13.622 C 193.541 13.170, 194.395 13.062, 194.715 13.382 C 195.035 13.702, 196.018 13.139, 196.898 12.131 C 197.779 11.122, 199.313 10.419, 200.306 10.568 C 201.847 10.800, 201.920 10.603, 200.806 9.228 C 200.013 8.249, 199.958 7.891, 200.666 8.315 C 201.322 8.709, 203.146 7.700, 204.839 6.007 C 206.493 4.353, 208.276 3, 208.801 3 C 209.326 3, 210.315 2.325, 211 1.500 C 212.105 0.168, 200.340 0, 106.122 0 L 0 0 0.116 90.250 M 100 41.086 C 96.975 42.153, 90.854 44.843, 86.399 47.063 C 75.966 52.264, 58.589 66, 62.444 66 C 62.689 66, 64.601 64.394, 66.694 62.432 C 75.321 54.344, 92.431 44.615, 100.250 43.351 C 102.313 43.017, 104 42.337, 104 41.840 C 104 41.343, 105.013 40.529, 106.250 40.031 C 110.558 38.300, 105.462 39.159, 100 41.086 M 150.389 41.591 C 151.024 42.962, 153 44.481, 155 45.133 C 163.434 47.885, 179.020 57.005, 185.318 62.874 C 187.256 64.680, 189.238 65.500, 191.665 65.500 L 195.194 65.500 190.374 61.136 C 180.575 52.263, 166.089 44.020, 154.389 40.659 L 149.278 39.190 150.389 41.591 M 117.973 62.058 C 110.407 63.173, 103.619 65.551, 96.500 69.580 C 88.780 73.950, 86.449 75.796, 87.460 76.740 C 87.908 77.158, 88.475 76.938, 88.720 76.250 C 88.966 75.563, 89.804 75, 90.583 75 C 91.362 75, 92 74.550, 92 74 C 92 73.450, 92.787 72.986, 93.750 72.968 C 95.846 72.930, 99.217 70.550, 98.371 69.705 C 98.043 69.376, 98.612 69.129, 99.637 69.155 C 100.662 69.181, 104.649 68.256, 108.497 67.101 C 117.075 64.525, 133.259 64.266, 142.945 66.549 C 157.226 69.915, 172.910 81.044, 181.331 93.786 C 190.111 107.072, 192.944 119.886, 191.075 137.868 C 190.209 146.203, 189.311 149.701, 186.499 155.707 C 184.574 159.816, 183 163.476, 183 163.839 C 182.998 165.669, 162.977 185, 161.083 185 C 160.550 185, 159.413 186, 158.557 187.223 C 157.701 188.445, 157 189.050, 157 188.568 C 157 188.085, 156.075 188.527, 154.946 189.549 C 153.023 191.290, 151.920 191.539, 144.691 191.871 C 142.914 191.953, 142.133 192.407, 142.566 193.107 C 143.039 193.872, 142.324 194.010, 140.249 193.555 C 138.165 193.097, 136.773 193.370, 135.695 194.448 C 133.784 196.359, 120.420 196.748, 121.587 194.859 C 122.095 194.037, 120.829 193.858, 117.062 194.220 C 114.185 194.497, 112.416 194.361, 113.131 193.919 C 114.691 192.955, 111.366 191.499, 105.459 190.561 C 103.328 190.222, 101.278 189.450, 100.904 188.844 C 100.530 188.239, 99.654 188.096, 98.957 188.526 C 98.133 189.036, 97.940 188.906, 98.405 188.155 C 98.797 187.520, 98.571 187, 97.903 187 C 97.235 187, 95.214 185.875, 93.411 184.500 C 91.608 183.125, 89.866 182, 89.540 182 C 89.214 182, 87.496 180.684, 85.723 179.076 C 83.951 177.467, 81.572 175.330, 80.437 174.326 C 77.896 172.076, 71 161.716, 71 160.146 C 71 159.516, 70.568 159, 70.040 159 C 68.569 159, 64.992 146.551, 63.575 136.500 C 62.171 126.543, 62.756 117.838, 65.437 108.769 C 66.368 105.617, 67.189 102.692, 67.259 102.269 C 67.330 101.846, 68.201 100.628, 69.194 99.561 C 70.187 98.495, 71 96.808, 71 95.811 C 71 94.815, 71.450 94, 72 94 C 72.550 94, 73 93.593, 73 93.096 C 73 92.169, 77.339 86.835, 82.295 81.669 C 83.832 80.067, 84.928 78.595, 84.730 78.397 C 84.215 77.882, 76 85.677, 76 86.681 C 76 87.142, 75.180 88.031, 74.178 88.657 C 70.008 91.261, 64.769 102.273, 59.265 120 C 58.925 121.096, 58.557 120.869, 57.898 119.158 C 57.402 117.869, 57.217 116.458, 57.487 116.021 C 58.260 114.770, 54.024 114.040, 51.520 114.993 C 50.067 115.545, 48.850 115.450, 48.127 114.727 C 47.507 114.107, 47 113.970, 47 114.422 C 47 114.875, 46.325 114.685, 45.500 114 C 44.675 113.315, 44 111.764, 44 110.552 C 44 109.340, 42.915 107.330, 41.590 106.084 L 39.179 103.820 37.894 109.660 C 36.182 117.438, 36.164 138.836, 37.862 147.244 L 39.224 153.989 42.255 151.439 C 45.839 148.423, 54.289 144, 56.467 144 C 57.310 144, 58 144.683, 58 145.519 C 58 148.589, 63.076 161.444, 66.241 166.388 C 68.033 169.188, 71.628 174.040, 74.229 177.170 L 78.957 182.861 73.932 186.550 C 71.169 188.578, 67.085 190.776, 64.859 191.434 L 60.810 192.629 67.870 198.616 C 76.189 205.671, 88.926 213.006, 97.915 215.920 C 101.443 217.064, 104.368 218.001, 104.415 218.002 C 104.462 218.004, 104.352 214.352, 104.170 209.888 C 103.989 205.424, 104.099 200.740, 104.416 199.480 C 104.991 197.188, 104.992 197.188, 110.746 198.760 C 118.208 200.798, 136.557 200.792, 143.830 198.749 C 150.366 196.913, 150.361 196.904, 150.442 209.245 L 150.500 218.046 153.500 217.408 C 162.784 215.433, 177.848 207.323, 188.020 198.824 L 194.276 193.597 189.888 191.737 C 183.770 189.145, 176 184.028, 176 182.592 C 176 181.932, 177.609 179.842, 179.575 177.946 C 185.237 172.489, 191.547 162.189, 194.550 153.500 C 196.071 149.100, 197.591 145.176, 197.927 144.781 C 198.716 143.853, 208.500 148.382, 212.808 151.667 C 214.636 153.061, 216.369 153.965, 216.659 153.675 C 217.570 152.763, 219.986 134.760, 219.993 128.822 C 220.001 122.668, 218.308 109.007, 217.150 105.877 C 216.477 104.057, 216.220 104.125, 213.036 106.968 C 211.168 108.636, 209.244 110, 208.761 110 C 208.277 110, 208.203 110.520, 208.595 111.155 C 209.015 111.833, 208.872 112.039, 208.250 111.654 C 207.667 111.294, 205.359 111.977, 203.120 113.172 C 197.432 116.208, 195.015 114.929, 192.120 107.353 C 182.797 82.949, 163.869 66.943, 139 62.431 C 130.699 60.924, 126.208 60.845, 117.973 62.058 M 52.872 75.750 C 51.629 77.336, 51.664 77.371, 53.250 76.128 C 54.916 74.821, 55.445 74, 54.622 74 C 54.415 74, 53.627 74.787, 52.872 75.750 M 114 83.311 C 114 83.544, 115.912 84.996, 118.250 86.537 C 120.588 88.079, 121.972 88.701, 121.327 87.920 C 120.086 86.418, 114 82.589, 114 83.311 M 98.079 88.583 C 98.127 89.748, 98.364 89.985, 98.683 89.188 C 98.972 88.466, 98.936 87.603, 98.604 87.271 C 98.272 86.939, 98.036 87.529, 98.079 88.583 M 123.500 89.706 C 124.050 90.230, 130.350 94.481, 137.500 99.155 C 170.159 120.501, 182.691 128.923, 183.818 130.281 C 186.635 133.675, 188.900 132.254, 133.320 161.959 C 112.245 173.223, 100.340 179.044, 98.820 178.829 C 96.561 178.509, 96.500 178.222, 96.500 168 C 96.500 162.225, 96.889 145.350, 97.364 130.500 C 97.840 115.650, 98.009 103.725, 97.742 104 C 97.276 104.478, 96.078 121.833, 96.025 128.857 C 96.006 131.372, 95.636 132.074, 94.551 131.658 C 93.601 131.293, 93.286 131.582, 93.637 132.497 C 94.084 133.661, 93.622 133.694, 90.836 132.696 C 89.001 132.038, 86.989 130.846, 86.365 130.047 C 85.454 128.881, 85.291 129.144, 85.536 131.381 C 85.821 133.978, 85.723 134.059, 84.090 132.581 C 83.126 131.709, 82.101 131.232, 81.811 131.522 C 81.522 131.811, 80.658 131.276, 79.893 130.332 C 78.685 128.844, 78.699 128.737, 80 129.530 C 81.942 130.713, 84 131.016, 84 130.119 C 84 129.732, 81.951 128.867, 79.447 128.197 C 76.931 127.524, 75.168 126.537, 75.506 125.990 C 75.843 125.445, 75.641 125, 75.059 125 C 74.477 125, 72.987 123.987, 71.750 122.750 L 69.500 120.500 68.896 128.500 C 67.140 151.737, 82.334 174.958, 105.344 184.205 C 113.232 187.374, 113.960 187.481, 127.500 187.441 C 140.171 187.403, 142.129 187.152, 148.123 184.792 C 157.149 181.239, 162.070 177.968, 169.347 170.684 C 176.287 163.737, 180.201 157.623, 183.089 149.215 C 185.557 142.028, 186.759 129.587, 185.085 128.553 C 184.329 128.085, 184.240 127.403, 184.838 126.661 C 185.410 125.950, 185.424 122.982, 184.873 119 C 183.845 111.570, 181.875 104.900, 181.253 106.750 C 181.022 107.438, 180.196 108, 179.417 108 C 178.637 108, 177.944 108.900, 177.875 110 C 177.806 111.100, 177.665 112.563, 177.560 113.250 C 177.456 113.938, 177.962 115.715, 178.685 117.200 C 179.408 118.686, 180 120.823, 180 121.950 C 180 123.078, 180.402 124, 180.893 124 C 181.384 124, 182.036 124.651, 182.341 125.447 C 183.023 127.223, 171.510 120.269, 146.500 103.799 C 128.809 92.148, 121.104 87.428, 123.500 89.706 M 98.272 96 C 98.272 98.475, 98.467 99.487, 98.706 98.250 C 98.944 97.013, 98.944 94.987, 98.706 93.750 C 98.467 92.513, 98.272 93.525, 98.272 96 M 108.250 95.220 C 105.641 96.479, 105.428 97.710, 107.436 99.929 C 108.655 101.277, 108.722 104.622, 107.875 122.119 C 107.327 133.451, 107.019 144.788, 107.190 147.312 L 107.500 151.901 109.930 150.061 C 112.304 148.262, 112.381 147.754, 113.270 127.860 C 113.771 116.662, 114.298 107.379, 114.441 107.232 C 115.292 106.360, 143 123.179, 143 124.567 C 143 125.266, 139.175 127.923, 134.500 130.471 C 126.732 134.706, 126 135.365, 126 138.126 C 126 140.048, 126.454 141.029, 127.250 140.823 C 129.876 140.144, 157 125.825, 157 125.118 C 157 124.453, 111.547 93.902, 110.804 94.068 C 110.637 94.105, 109.487 94.624, 108.250 95.220 M 41.624 96.539 C 40.659 99.053, 40.943 99.702, 42.122 97.675 C 42.706 96.671, 42.973 95.639, 42.715 95.382 C 42.458 95.124, 41.966 95.645, 41.624 96.539 M 108.454 96.410 C 106.620 97.751, 106.611 97.912, 108.263 99.738 C 109.678 101.302, 110.013 103.680, 110.070 112.579 C 110.116 119.612, 110.447 122.788, 111 121.500 C 111.473 120.400, 111.891 117.869, 111.930 115.875 C 112.041 110.145, 113.137 106, 114.542 106 C 115.943 106, 126.766 111.565, 132.919 115.449 C 135.858 117.304, 137.014 117.588, 137.929 116.680 C 138.846 115.771, 138.967 115.898, 138.458 117.236 C 137.982 118.485, 138.468 119.227, 140.189 119.882 C 144.748 121.615, 147.747 128, 144.002 128 C 141.743 128, 140.470 129.646, 142.244 130.274 C 142.935 130.518, 146.131 129.403, 149.346 127.796 L 155.193 124.874 146.346 119.277 C 141.481 116.198, 131.570 109.477, 124.323 104.340 C 117.075 99.203, 110.974 95, 110.764 95 C 110.554 95, 109.515 95.634, 108.454 96.410 M 45.459 111.067 C 45.096 111.653, 45.014 112.348, 45.276 112.610 C 45.538 112.872, 46.019 112.392, 46.345 111.543 C 47.021 109.781, 46.445 109.471, 45.459 111.067 M 208.603 113.833 C 208.320 114.292, 208.723 114.667, 209.500 114.667 C 210.277 114.667, 210.680 114.292, 210.397 113.833 C 210.114 113.375, 209.710 113, 209.500 113 C 209.290 113, 208.886 113.375, 208.603 113.833 M 52.603 115.833 C 52.320 116.292, 52.723 116.667, 53.500 116.667 C 54.277 116.667, 54.680 116.292, 54.397 115.833 C 54.114 115.375, 53.710 115, 53.500 115 C 53.290 115, 52.886 115.375, 52.603 115.833 M 118.551 133.827 C 118.174 143.547, 117.657 152.234, 117.403 153.130 C 117.149 154.027, 114.250 156.038, 110.961 157.601 C 104.713 160.568, 104.026 161.936, 108.082 163.334 C 110.112 164.034, 114.871 161.732, 137.750 148.981 C 161.967 135.485, 165 133.520, 165 131.324 L 165 128.853 159.750 131.792 C 147.919 138.415, 123.164 151, 121.968 151 C 120.950 151, 120.817 147.516, 121.323 134.100 C 121.844 120.320, 121.710 117.103, 120.599 116.676 C 119.496 116.253, 119.106 119.520, 118.551 133.827 M 52.613 119.183 C 52.902 119.650, 53.557 119.774, 54.069 119.457 C 55.377 118.649, 55.230 118.333, 53.544 118.333 C 52.743 118.333, 52.324 118.716, 52.613 119.183 M 127.627 121.707 C 126.856 122.478, 126.788 128, 127.550 128 C 128.447 128, 134 124.987, 134 124.500 C 134 123.617, 128.241 121.093, 127.627 121.707 M 110.583 124.866 C 110.152 125.563, 110.070 126.403, 110.400 126.733 C 111.295 127.628, 112.271 126.312, 111.787 124.862 C 111.449 123.846, 111.213 123.846, 110.583 124.866 M 110 129.059 C 110 129.641, 110.450 129.840, 111 129.500 C 111.550 129.160, 112 128.684, 112 128.441 C 112 128.198, 111.550 128, 111 128 C 110.450 128, 110 128.477, 110 129.059 M 160.800 132.942 C 159.442 134.011, 155.263 136.350, 151.513 138.142 C 147.763 139.933, 145.101 141.531, 145.597 141.693 C 146.907 142.121, 164 133.067, 164 131.945 C 164 130.616, 163.600 130.740, 160.800 132.942 M 41.031 159.500 C 41.031 160.050, 41.467 161.175, 42 162 C 42.533 162.825, 42.969 163.050, 42.969 162.500 C 42.969 161.950, 42.533 160.825, 42 160 C 41.467 159.175, 41.031 158.950, 41.031 159.500 M 52 181.378 C 52 181.585, 52.788 182.373, 53.750 183.128 C 55.336 184.371, 55.371 184.336, 54.128 182.750 C 52.821 181.084, 52 180.555, 52 181.378 M 107.813 193.683 C 108.534 193.972, 109.397 193.936, 109.729 193.604 C 110.061 193.272, 109.471 193.036, 108.417 193.079 C 107.252 193.127, 107.015 193.364, 107.813 193.683 M 123.750 220.732 C 126.087 220.943, 129.912 220.943, 132.250 220.732 C 134.588 220.522, 132.675 220.349, 128 220.349 C 123.325 220.349, 121.412 220.522, 123.750 220.732" stroke="none" fill="black" fill-rule="evenodd"/>
</svg>