<?xml version="1.0" encoding="UTF-8"?>
<!DOCTYPE svg PUBLIC "-//W3C//DTD SVG 1.1//EN" "http://www.w3.org/Graphics/SVG/1.1/DTD/svg11.dtd">
<svg xmlns="http://www.w3.org/2000/svg" version="1.1" width="256px" height="256px" style="shape-rendering:geometricPrecision; text-rendering:geometricPrecision; image-rendering:optimizeQuality; fill-rule:evenodd; clip-rule:evenodd" xmlns:xlink="http://www.w3.org/1999/xlink">
<g><path style="opacity:1" fill="#fefefd" d="M -0.5,-0.5 C 37.8333,-0.5 76.1667,-0.5 114.5,-0.5C 111.833,0.166667 109.167,0.833333 106.5,1.5C 103.219,1.42032 100.219,2.08699 97.5,3.5C 91.0512,4.40326 85.0512,6.40326 79.5,9.5C 72.9142,11.4596 66.9142,14.4596 61.5,18.5C 56.1205,20.8545 51.4538,24.1879 47.5,28.5C 40.1667,33.8333 33.8333,40.1667 28.5,47.5C 24.1879,51.4538 20.8545,56.1205 18.5,61.5C 14.4596,66.9142 11.4596,72.9142 9.5,79.5C 4.61058,90.394 1.27724,101.727 -0.5,113.5C -0.5,75.5 -0.5,37.5 -0.5,-0.5 Z"/></g>
<g><path style="opacity:1" fill="#fefefd" d="M 136.5,-0.5 C 176.167,-0.5 215.833,-0.5 255.5,-0.5C 255.5,38.1667 255.5,76.8333 255.5,115.5C 253.745,98.8209 248.745,83.1542 240.5,68.5C 229.219,47.0482 213.219,29.8816 192.5,17C 187.036,13.9323 181.369,11.4323 175.5,9.5C 172.135,7.53766 168.468,6.03766 164.5,5C 155.137,2.56019 145.804,0.726859 136.5,-0.5 Z"/></g>
<g><path style="opacity:1" fill="#eecf45" d="M 106.5,1.5 C 119.171,1.33345 131.838,1.50012 144.5,2C 154.967,4.03369 165.301,6.53369 175.5,9.5C 181.369,11.4323 187.036,13.9323 192.5,17C 213.219,29.8816 229.219,47.0482 240.5,68.5C 243.303,76.1196 246.136,83.7863 249,91.5C 250.333,96.8333 251.667,102.167 253,107.5C 253.5,120.162 253.667,132.829 253.5,145.5C 253.702,147.95 253.369,150.283 252.5,152.5C 251.442,153.6 250.608,154.934 250,156.5C 248.596,162.873 247.096,169.206 245.5,175.5C 245.293,178.241 244.293,180.574 242.5,182.5C 238.11,188.9 234.11,195.566 230.5,202.5C 225.604,210.067 219.604,216.734 212.5,222.5C 209.833,223.167 208.167,224.833 207.5,227.5C 206.078,228.925 204.411,229.925 202.5,230.5C 195.855,234.628 188.855,238.128 181.5,241C 179.253,242.277 177.253,243.777 175.5,245.5C 170.085,246.194 165.085,247.86 160.5,250.5C 125.545,259.285 92.8787,254.118 62.5,235C 61.2068,234.51 59.8734,234.343 58.5,234.5C 40.0174,223.018 25.6841,207.685 15.5,188.5C 12.2001,178.917 8.53345,169.584 4.5,160.5C 3.56552,159.432 3.23219,158.099 3.5,156.5C 3.12713,149.608 2.12713,142.942 0.5,136.5C 0.362949,116.99 3.36295,97.9897 9.5,79.5C 13.5642,74.0382 16.5642,68.0382 18.5,61.5C 20.8545,56.1205 24.1879,51.4538 28.5,47.5C 35.1667,41.5 41.5,35.1667 47.5,28.5C 51.4538,24.1879 56.1205,20.8545 61.5,18.5C 68.0969,16.5349 74.0969,13.5349 79.5,9.5C 85.784,8.07204 91.784,6.07204 97.5,3.5C 100.219,2.08699 103.219,1.42032 106.5,1.5 Z"/></g>
<g><path style="opacity:1" fill="#caa337" d="M 114.5,-0.5 C 121.833,-0.5 129.167,-0.5 136.5,-0.5C 145.804,0.726859 155.137,2.56019 164.5,5C 168.468,6.03766 172.135,7.53766 175.5,9.5C 165.301,6.53369 154.967,4.03369 144.5,2C 131.838,1.50012 119.171,1.33345 106.5,1.5C 109.167,0.833333 111.833,0.166667 114.5,-0.5 Z"/></g>
<g><path style="opacity:1" fill="#c8a136" d="M 97.5,3.5 C 91.784,6.07204 85.784,8.07204 79.5,9.5C 85.0512,6.40326 91.0512,4.40326 97.5,3.5 Z"/></g>
<g><path style="opacity:1" fill="#d59f26" d="M 126.5,9.5 C 126.818,18.7506 126.485,27.9172 125.5,37C 126.448,37.4828 127.448,37.6495 128.5,37.5C 128.5,61.5 128.5,85.5 128.5,109.5C 128.167,109.5 127.833,109.5 127.5,109.5C 127.5,85.8333 127.5,62.1667 127.5,38.5C 125.833,38.5 124.167,38.5 122.5,38.5C 122.5,62.1667 122.5,85.8333 122.5,109.5C 121.833,109.5 121.167,109.5 120.5,109.5C 120.5,85.8333 120.5,62.1667 120.5,38.5C 118.735,37.5386 116.735,37.2053 114.5,37.5C 114.667,61.5023 114.5,85.5023 114,109.5C 113.759,82.8208 113.259,56.1541 112.5,29.5C 113.5,29.5 114.5,29.5 115.5,29.5C 116.339,34.6677 118.839,35.6677 123,32.5C 124.122,29.1284 122.955,27.1284 119.5,26.5C 119.5,23.1667 119.5,19.8333 119.5,16.5C 118.167,16.5 116.833,16.5 115.5,16.5C 114.791,15.596 113.791,15.2627 112.5,15.5C 112.5,13.8333 112.5,12.1667 112.5,10.5C 117.07,9.55896 121.737,9.22562 126.5,9.5 Z"/></g>
<g><path style="opacity:1" fill="#e1aa25" d="M 126.5,9.5 C 128.5,9.5 130.5,9.5 132.5,9.5C 131.9,19.428 132.567,29.0947 134.5,38.5C 132.833,38.5 131.167,38.5 129.5,38.5C 129.5,62.1667 129.5,85.8333 129.5,109.5C 129.167,109.5 128.833,109.5 128.5,109.5C 128.5,85.5 128.5,61.5 128.5,37.5C 127.448,37.6495 126.448,37.4828 125.5,37C 126.485,27.9172 126.818,18.7506 126.5,9.5 Z"/></g>
<g><path style="opacity:1" fill="#d49e26" d="M 132.5,9.5 C 136.042,9.18723 139.375,9.52056 142.5,10.5C 143.73,12.3562 143.73,14.6895 142.5,17.5C 141.167,17.5 139.833,17.5 138.5,17.5C 138.5,20.5 138.5,23.5 138.5,26.5C 132.361,28.9062 132.027,31.9062 137.5,35.5C 138.833,36.5 140.167,37.5 141.5,38.5C 140.167,38.5 138.833,38.5 137.5,38.5C 137.5,62.5 137.5,86.5 137.5,110.5C 136.833,110.5 136.167,110.5 135.5,110.5C 135.5,109.833 135.167,109.5 134.5,109.5C 134.5,85.8333 134.5,62.1667 134.5,38.5C 132.567,29.0947 131.9,19.428 132.5,9.5 Z"/></g>
<g><path style="opacity:1" fill="#c5932a" d="M 142.5,10.5 C 145.237,10.4013 147.904,10.7347 150.5,11.5C 153.986,16.5394 152.653,18.8728 146.5,18.5C 145.432,17.5655 144.099,17.2322 142.5,17.5C 143.73,14.6895 143.73,12.3562 142.5,10.5 Z"/></g>
<g><path style="opacity:1" fill="#cea937" d="M 79.5,9.5 C 74.0969,13.5349 68.0969,16.5349 61.5,18.5C 66.9142,14.4596 72.9142,11.4596 79.5,9.5 Z"/></g>
<g><path style="opacity:1" fill="#b68829" d="M 112.5,10.5 C 112.5,12.1667 112.5,13.8333 112.5,15.5C 113.791,15.2627 114.791,15.596 115.5,16.5C 113.901,16.2322 112.568,16.5655 111.5,17.5C 106.675,17.8738 102.008,18.8738 97.5,20.5C 96.4324,19.5655 95.099,19.2322 93.5,19.5C 93.7845,17.5853 93.4511,15.9187 92.5,14.5C 98.8085,11.928 105.475,10.5947 112.5,10.5 Z"/></g>
<g><path style="opacity:1" fill="#f3d598" d="M 142.5,17.5 C 144.099,17.2322 145.432,17.5655 146.5,18.5C 144.167,18.5 141.833,18.5 139.5,18.5C 139.5,21.1667 139.5,23.8333 139.5,26.5C 139.167,26.5 138.833,26.5 138.5,26.5C 138.5,23.5 138.5,20.5 138.5,17.5C 139.833,17.5 141.167,17.5 142.5,17.5 Z"/></g>
<g><path style="opacity:1" fill="#d7a948" d="M 111.5,17.5 C 112.568,16.5655 113.901,16.2322 115.5,16.5C 116.833,16.5 118.167,16.5 119.5,16.5C 119.5,19.8333 119.5,23.1667 119.5,26.5C 117.938,26.7329 116.605,27.3995 115.5,28.5C 111.167,28.5 106.833,28.5 102.5,28.5C 105.942,27.2521 109.608,26.4188 113.5,26C 112.221,23.5024 112.221,21.0024 113.5,18.5C 114.067,17.5798 113.401,17.2465 111.5,17.5 Z"/></g>
<g><path style="opacity:1" fill="#cb982b" d="M 146.5,18.5 C 146.082,19.2216 145.416,19.7216 144.5,20C 151.371,18.7271 153.704,21.2271 151.5,27.5C 147.958,27.1872 144.625,27.5206 141.5,28.5C 140.5,28.1667 139.833,27.5 139.5,26.5C 139.5,23.8333 139.5,21.1667 139.5,18.5C 141.833,18.5 144.167,18.5 146.5,18.5 Z"/></g>
<g><path style="opacity:1" fill="#aa8031" d="M 167.5,16.5 C 171.889,17.4025 175.889,19.0692 179.5,21.5C 179.739,23.4672 179.406,25.3005 178.5,27C 181.952,29.8993 185.618,32.5659 189.5,35C 188.167,35 186.833,35 185.5,35C 186.576,36.7261 186.743,38.5594 186,40.5C 184.938,37.971 184.105,35.3043 183.5,32.5C 181.668,31.7515 180.001,30.7515 178.5,29.5C 177.708,31.4648 177.041,33.4648 176.5,35.5C 178.531,37.1747 180.531,38.8414 182.5,40.5C 179.577,39.705 176.91,38.3716 174.5,36.5C 173.611,38.007 172.611,39.3403 171.5,40.5C 166.129,37.7093 160.462,35.7093 154.5,34.5C 154.5,33.1667 154.5,31.8333 154.5,30.5C 153.209,30.7373 152.209,30.404 151.5,29.5C 157.962,30.0423 164.129,31.709 170,34.5C 170.5,34.3333 171,34.1667 171.5,34C 167.67,32.0017 163.67,30.5017 159.5,29.5C 159.192,27.076 159.526,24.7427 160.5,22.5C 163.102,23.6538 165.768,24.1538 168.5,24C 168.374,22.0257 168.208,19.859 168,17.5C 167.667,18.8333 167.333,20.1667 167,21.5C 166.22,19.6131 166.387,17.9464 167.5,16.5 Z"/></g>
<g><path style="opacity:1" fill="#b98b30" d="M 150.5,11.5 C 156.487,12.4093 162.153,14.076 167.5,16.5C 166.387,17.9464 166.22,19.6131 167,21.5C 167.333,20.1667 167.667,18.8333 168,17.5C 168.208,19.859 168.374,22.0257 168.5,24C 165.768,24.1538 163.102,23.6538 160.5,22.5C 159.526,24.7427 159.192,27.076 159.5,29.5C 156.885,28.7094 154.218,28.0427 151.5,27.5C 153.704,21.2271 151.371,18.7271 144.5,20C 145.416,19.7216 146.082,19.2216 146.5,18.5C 152.653,18.8728 153.986,16.5394 150.5,11.5 Z"/></g>
<g><path style="opacity:1" fill="#b58629" d="M 113.5,18.5 C 112.221,21.0024 112.221,23.5024 113.5,26C 109.608,26.4188 105.942,27.2521 102.5,28.5C 99.7938,28.5751 97.1272,28.9084 94.5,29.5C 93.6586,27.6208 93.3253,25.6208 93.5,23.5C 99.8304,20.9173 106.497,19.2507 113.5,18.5 Z"/></g>
<g><path style="opacity:1" fill="#936a28" d="M 92.5,14.5 C 93.4511,15.9187 93.7845,17.5853 93.5,19.5C 95.099,19.2322 96.4324,19.5655 97.5,20.5C 88.7116,22.6425 80.7116,26.3092 73.5,31.5C 68.3346,33.3375 64.0013,36.3375 60.5,40.5C 57.5726,41.7573 55.2393,43.7573 53.5,46.5C 52.8333,46.5 52.1667,46.5 51.5,46.5C 49.9174,44.4922 48.9174,42.1589 48.5,39.5C 61.1654,27.8765 75.832,19.5432 92.5,14.5 Z"/></g>
<g><path style="opacity:1" fill="#e7c57e" d="M 111.5,17.5 C 113.401,17.2465 114.067,17.5798 113.5,18.5C 106.497,19.2507 99.8304,20.9173 93.5,23.5C 86.6186,25.6066 79.9519,28.2732 73.5,31.5C 80.7116,26.3092 88.7116,22.6425 97.5,20.5C 102.008,18.8738 106.675,17.8738 111.5,17.5 Z"/></g>
<g><path style="opacity:1" fill="#d3b520" d="M 119.5,26.5 C 122.955,27.1284 124.122,29.1284 123,32.5C 118.839,35.6677 116.339,34.6677 115.5,29.5C 115.5,29.1667 115.5,28.8333 115.5,28.5C 116.605,27.3995 117.938,26.7329 119.5,26.5 Z"/></g>
<g><path style="opacity:1" fill="#e7c57d" d="M 141.5,28.5 C 144.625,27.5206 147.958,27.1872 151.5,27.5C 154.218,28.0427 156.885,28.7094 159.5,29.5C 163.67,30.5017 167.67,32.0017 171.5,34C 171,34.1667 170.5,34.3333 170,34.5C 164.129,31.709 157.962,30.0423 151.5,29.5C 149.565,28.8505 147.565,28.5172 145.5,28.5C 144.167,28.5 142.833,28.5 141.5,28.5 Z"/></g>
<g><path style="opacity:1" fill="#e6c47e" d="M 102.5,28.5 C 101.167,29.1667 99.8333,29.8333 98.5,30.5C 95.5,31.1667 92.5,31.8333 89.5,32.5C 91.0725,31.3127 92.7392,30.3127 94.5,29.5C 97.1272,28.9084 99.7938,28.5751 102.5,28.5 Z"/></g>
<g><path style="opacity:1" fill="#d3b521" d="M 138.5,26.5 C 138.833,26.5 139.167,26.5 139.5,26.5C 139.833,27.5 140.5,28.1667 141.5,28.5C 142.32,32.1834 140.987,34.5168 137.5,35.5C 132.027,31.9062 132.361,28.9062 138.5,26.5 Z"/></g>
<g><path style="opacity:1" fill="#e5c47e" d="M 89.5,32.5 C 85.8178,35.0078 81.8178,37.0078 77.5,38.5C 80.9136,35.4598 84.9136,33.4598 89.5,32.5 Z"/></g>
<g><path style="opacity:1" fill="#c28f27" d="M 145.5,28.5 C 147.565,28.5172 149.565,28.8505 151.5,29.5C 152.209,30.404 153.209,30.7373 154.5,30.5C 154.5,31.8333 154.5,33.1667 154.5,34.5C 153.292,33.7659 151.959,33.4326 150.5,33.5C 150.216,35.4147 150.549,37.0813 151.5,38.5C 151.5,62.8333 151.5,87.1667 151.5,111.5C 151.5,112.167 151.167,112.5 150.5,112.5C 149.842,87.7355 149.176,63.0689 148.5,38.5C 146.894,35.4239 145.894,32.0906 145.5,28.5 Z"/></g>
<g><path style="opacity:1" fill="#c9a231" d="M 47.5,28.5 C 41.5,35.1667 35.1667,41.5 28.5,47.5C 33.8333,40.1667 40.1667,33.8333 47.5,28.5 Z"/></g>
<g><path style="opacity:1" fill="#a07629" d="M 98.5,30.5 C 99.3446,31.6715 100.011,33.0048 100.5,34.5C 96.0986,35.4056 92.0986,37.0723 88.5,39.5C 84.3447,40.7417 80.678,42.7417 77.5,45.5C 76.5041,45.4142 75.6708,45.7476 75,46.5C 74.6824,44.9391 73.8491,43.7724 72.5,43C 74.2395,41.483 75.9062,39.983 77.5,38.5C 81.8178,37.0078 85.8178,35.0078 89.5,32.5C 92.5,31.8333 95.5,31.1667 98.5,30.5 Z"/></g>
<g><path style="opacity:1" fill="#f1cf6a" d="M 105.5,37.5 C 105.719,36.325 105.386,35.325 104.5,34.5C 99.6641,35.778 94.9974,37.4447 90.5,39.5C 89.8333,39.5 89.1667,39.5 88.5,39.5C 92.0986,37.0723 96.0986,35.4056 100.5,34.5C 102.379,33.6586 104.379,33.3253 106.5,33.5C 106.768,35.099 106.434,36.4324 105.5,37.5 Z"/></g>
<g><path style="opacity:1" fill="#ecc763" d="M 154.5,34.5 C 160.462,35.7093 166.129,37.7093 171.5,40.5C 173.23,41.0256 174.564,42.0256 175.5,43.5C 171.277,41.5558 166.944,39.8892 162.5,38.5C 159.45,36.8993 156.116,35.8993 152.5,35.5C 152.737,36.791 152.404,37.791 151.5,38.5C 150.549,37.0813 150.216,35.4147 150.5,33.5C 151.959,33.4326 153.292,33.7659 154.5,34.5 Z"/></g>
<g><path style="opacity:1" fill="#956d2b" d="M 179.5,21.5 C 185.668,24.0804 191.335,27.4137 196.5,31.5C 194.88,32.8409 193.88,34.6742 193.5,37C 194.71,38.0391 195.71,39.2058 196.5,40.5C 196.5,40.8333 196.5,41.1667 196.5,41.5C 194.883,42.5893 194.05,44.256 194,46.5C 193.329,45.7476 192.496,45.4142 191.5,45.5C 190.833,45.5 190.167,45.5 189.5,45.5C 187.704,43.1 185.37,41.4333 182.5,40.5C 180.531,38.8414 178.531,37.1747 176.5,35.5C 177.041,33.4648 177.708,31.4648 178.5,29.5C 180.001,30.7515 181.668,31.7515 183.5,32.5C 184.105,35.3043 184.938,37.971 186,40.5C 186.743,38.5594 186.576,36.7261 185.5,35C 186.833,35 188.167,35 189.5,35C 185.618,32.5659 181.952,29.8993 178.5,27C 179.406,25.3005 179.739,23.4672 179.5,21.5 Z"/></g>
<g><path style="opacity:1" fill="#e2c27c" d="M 73.5,31.5 C 69.4474,34.8827 65.1141,37.8827 60.5,40.5C 64.0013,36.3375 68.3346,33.3375 73.5,31.5 Z"/></g>
<g><path style="opacity:1" fill="#b07d1b" d="M 104.5,38.5 C 104.5,62.1667 104.5,85.8333 104.5,109.5C 102.833,109.5 101.167,109.5 99.5,109.5C 99.5,85.8333 99.5,62.1667 99.5,38.5C 101.167,38.5 102.833,38.5 104.5,38.5 Z"/></g>
<g><path style="opacity:1" fill="#b47e1b" d="M 109.5,38.5 C 110.5,38.5 111.5,38.5 112.5,38.5C 112.812,65.6881 112.479,92.8548 111.5,120C 111.946,123.35 112.612,126.517 113.5,129.5C 120.5,129.5 127.5,129.5 134.5,129.5C 134.5,131.167 134.5,132.833 134.5,134.5C 127.5,134.5 120.5,134.5 113.5,134.5C 112.502,160.661 112.169,186.995 112.5,213.5C 111.5,213.5 110.5,213.5 109.5,213.5C 109.5,155.167 109.5,96.8333 109.5,38.5 Z"/></g>
<g><path style="opacity:1" fill="#bd8c29" d="M 102.5,28.5 C 106.833,28.5 111.167,28.5 115.5,28.5C 115.5,28.8333 115.5,29.1667 115.5,29.5C 114.5,29.5 113.5,29.5 112.5,29.5C 113.259,56.1541 113.759,82.8208 114,109.5C 114.5,85.5023 114.667,61.5023 114.5,37.5C 116.735,37.2053 118.735,37.5386 120.5,38.5C 118.833,38.5 117.167,38.5 115.5,38.5C 115.5,62.1667 115.5,85.8333 115.5,109.5C 117.167,109.5 118.833,109.5 120.5,109.5C 121.167,109.5 121.833,109.5 122.5,109.5C 124.167,109.5 125.833,109.5 127.5,109.5C 127.833,109.5 128.167,109.5 128.5,109.5C 128.833,109.5 129.167,109.5 129.5,109.5C 131.167,109.5 132.833,109.5 134.5,109.5C 135.167,109.5 135.5,109.833 135.5,110.5C 128.167,110.5 120.833,110.5 113.5,110.5C 113.5,112.833 113.5,115.167 113.5,117.5C 120.5,117.5 127.5,117.5 134.5,117.5C 134.5,119.167 134.5,120.833 134.5,122.5C 127.5,122.5 120.5,122.5 113.5,122.5C 113.5,124.833 113.5,127.167 113.5,129.5C 112.612,126.517 111.946,123.35 111.5,120C 112.479,92.8548 112.812,65.6881 112.5,38.5C 111.5,38.5 110.5,38.5 109.5,38.5C 107.51,61.8098 106.843,85.4764 107.5,109.5C 106.5,109.5 105.5,109.5 104.5,109.5C 104.5,85.8333 104.5,62.1667 104.5,38.5C 105.167,38.5 105.5,38.1667 105.5,37.5C 106.434,36.4324 106.768,35.099 106.5,33.5C 104.379,33.3253 102.379,33.6586 100.5,34.5C 100.011,33.0048 99.3446,31.6715 98.5,30.5C 99.8333,29.8333 101.167,29.1667 102.5,28.5 Z"/></g>
<g><path style="opacity:1" fill="#b17d1b" d="M 120.5,38.5 C 120.5,62.1667 120.5,85.8333 120.5,109.5C 118.833,109.5 117.167,109.5 115.5,109.5C 115.5,85.8333 115.5,62.1667 115.5,38.5C 117.167,38.5 118.833,38.5 120.5,38.5 Z"/></g>
<g><path style="opacity:1" fill="#b3811f" d="M 162.5,38.5 C 162.782,39.7777 163.449,40.7777 164.5,41.5C 163.833,41.5 163.167,41.5 162.5,41.5C 161.5,41.5 160.5,41.5 159.5,41.5C 159.5,64.1667 159.5,86.8333 159.5,109.5C 157.585,109.216 155.919,109.549 154.5,110.5C 153.391,110.557 152.391,110.89 151.5,111.5C 151.5,87.1667 151.5,62.8333 151.5,38.5C 152.404,37.791 152.737,36.791 152.5,35.5C 156.116,35.8993 159.45,36.8993 162.5,38.5 Z"/></g>
<g><path style="opacity:1" fill="#ac7d1a" d="M 109.5,38.5 C 109.5,96.8333 109.5,155.167 109.5,213.5C 107.51,190.19 106.843,166.524 107.5,142.5C 107.5,142.167 107.5,141.833 107.5,141.5C 107.5,139.167 107.5,136.833 107.5,134.5C 104.833,134.5 102.167,134.5 99.5,134.5C 99.5,128.833 99.5,123.167 99.5,117.5C 102.167,117.5 104.833,117.5 107.5,117.5C 107.5,115.167 107.5,112.833 107.5,110.5C 107.5,110.167 107.5,109.833 107.5,109.5C 106.843,85.4764 107.51,61.8098 109.5,38.5 Z"/></g>
<g><path style="opacity:1" fill="#ae7c1a" d="M 127.5,109.5 C 125.833,109.5 124.167,109.5 122.5,109.5C 122.5,85.8333 122.5,62.1667 122.5,38.5C 124.167,38.5 125.833,38.5 127.5,38.5C 127.5,62.1667 127.5,85.8333 127.5,109.5 Z"/></g>
<g><path style="opacity:1" fill="#b27f1c" d="M 141.5,38.5 C 142.498,63.6612 142.831,88.9945 142.5,114.5C 140.833,113.167 139.167,111.833 137.5,110.5C 137.5,86.5 137.5,62.5 137.5,38.5C 138.833,38.5 140.167,38.5 141.5,38.5 Z"/></g>
<g><path style="opacity:1" fill="#b17d1b" d="M 148.5,38.5 C 149.176,63.0689 149.842,87.7355 150.5,112.5C 146.855,120.954 146.522,129.62 149.5,138.5C 150.157,164.189 149.491,189.522 147.5,214.5C 146.5,214.5 145.5,214.5 144.5,214.5C 144.5,155.833 144.5,97.1667 144.5,38.5C 145.833,38.5 147.167,38.5 148.5,38.5 Z"/></g>
<g><path style="opacity:1" fill="#ba9642" d="M 99.5,109.5 C 101.167,109.5 102.833,109.5 104.5,109.5C 105.5,109.5 106.5,109.5 107.5,109.5C 107.5,109.833 107.5,110.167 107.5,110.5C 100.5,110.5 93.5,110.5 86.5,110.5C 87.209,109.596 88.209,109.263 89.5,109.5C 90.5,109.5 91.5,109.5 92.5,109.5C 92.5,86.5 92.5,63.5 92.5,40.5C 94.1667,40.5 95.8333,40.5 97.5,40.5C 96.8436,63.8576 97.5103,86.8576 99.5,109.5 Z"/></g>
<g><path style="opacity:1" fill="#be973c" d="M 162.5,41.5 C 163.167,41.5 163.833,41.5 164.5,41.5C 165.497,63.9939 165.831,86.6605 165.5,109.5C 164.5,109.5 163.5,109.5 162.5,109.5C 162.013,86.8948 162.013,64.2281 162.5,41.5 Z"/></g>
<g><path style="opacity:1" fill="#ab7e2a" d="M 162.5,38.5 C 166.944,39.8892 171.277,41.5558 175.5,43.5C 178.704,44.3833 181.371,46.0499 183.5,48.5C 181.972,49.8021 180.972,51.4687 180.5,53.5C 180.5,51.5 180.5,49.5 180.5,47.5C 178.833,47.5 177.167,47.5 175.5,47.5C 175.5,68.1667 175.5,88.8333 175.5,109.5C 174.5,109.5 173.5,109.5 172.5,109.5C 172.5,87.8333 172.5,66.1667 172.5,44.5C 170.833,44.5 169.167,44.5 167.5,44.5C 167.5,66.1667 167.5,87.8333 167.5,109.5C 166.833,109.5 166.167,109.5 165.5,109.5C 165.831,86.6605 165.497,63.9939 164.5,41.5C 163.449,40.7777 162.782,39.7777 162.5,38.5 Z"/></g>
<g><path style="opacity:1" fill="#e5c47e" d="M 196.5,41.5 C 196.5,41.1667 196.5,40.8333 196.5,40.5C 199.089,41.4194 201.089,43.086 202.5,45.5C 200.246,44.5849 198.246,43.2516 196.5,41.5 Z"/></g>
<g><path style="opacity:1" fill="#b89543" d="M 162.5,41.5 C 162.013,64.2281 162.013,86.8948 162.5,109.5C 163.5,109.5 164.5,109.5 165.5,109.5C 166.167,109.5 166.833,109.5 167.5,109.5C 169.167,109.5 170.833,109.5 172.5,109.5C 173.5,109.5 174.5,109.5 175.5,109.5C 175.5,109.833 175.5,110.167 175.5,110.5C 168.5,110.5 161.5,110.5 154.5,110.5C 155.919,109.549 157.585,109.216 159.5,109.5C 159.5,86.8333 159.5,64.1667 159.5,41.5C 160.5,41.5 161.5,41.5 162.5,41.5 Z"/></g>
<g><path style="opacity:1" fill="#d8b873" d="M 60.5,40.5 C 58.7607,43.2427 56.4274,45.2427 53.5,46.5C 55.2393,43.7573 57.5726,41.7573 60.5,40.5 Z"/></g>
<g><path style="opacity:1" fill="#c8a357" d="M 77.5,38.5 C 75.9062,39.983 74.2395,41.483 72.5,43C 73.8491,43.7724 74.6824,44.9391 75,46.5C 75.6708,45.7476 76.5041,45.4142 77.5,45.5C 77.1667,46.1667 76.8333,46.8333 76.5,47.5C 74.1495,48.8611 71.8162,50.1944 69.5,51.5C 70.6253,49.8712 71.9586,48.3712 73.5,47C 72.6755,43.9456 71.0089,43.1122 68.5,44.5C 70.9505,41.7232 73.9505,39.7232 77.5,38.5 Z"/></g>
<g><path style="opacity:1" fill="#966d29" d="M 84.5,110.5 C 84.1667,111.5 83.5,112.167 82.5,112.5C 82.5,90.8333 82.5,69.1667 82.5,47.5C 80.5,47.5 78.5,47.5 76.5,47.5C 76.8333,46.8333 77.1667,46.1667 77.5,45.5C 80.3939,44.0392 83.3939,43.2058 86.5,43C 84.5169,65.2694 83.8502,87.7694 84.5,110.5 Z"/></g>
<g><path style="opacity:1" fill="#d0a235" d="M 88.5,39.5 C 89.1667,39.5 89.8333,39.5 90.5,39.5C 89.7375,40.2679 88.7375,40.7679 87.5,41C 88,41.5 88.5,42 89,42.5C 89.5,64.8308 89.6666,87.1642 89.5,109.5C 88.209,109.263 87.209,109.596 86.5,110.5C 85.8333,110.5 85.1667,110.5 84.5,110.5C 83.8502,87.7694 84.5169,65.2694 86.5,43C 83.3939,43.2058 80.3939,44.0392 77.5,45.5C 80.678,42.7417 84.3447,40.7417 88.5,39.5 Z"/></g>
<g><path style="opacity:1" fill="#e9c983" d="M 182.5,40.5 C 185.37,41.4333 187.704,43.1 189.5,45.5C 186.63,44.5667 184.296,42.9 182.5,40.5 Z"/></g>
<g><path style="opacity:1" fill="#d9bb75" d="M 202.5,45.5 C 206.167,47.1667 208.833,49.8333 210.5,53.5C 207.5,51.1667 204.833,48.5 202.5,45.5 Z"/></g>
<g><path style="opacity:1" fill="#e7c781" d="M 189.5,45.5 C 190.167,45.5 190.833,45.5 191.5,45.5C 192.5,46.8333 193.5,48.1667 194.5,49.5C 192.251,48.9202 190.585,47.5869 189.5,45.5 Z"/></g>
<g><path style="opacity:1" fill="#dea825" d="M 76.5,47.5 C 78.5,47.5 80.5,47.5 82.5,47.5C 82.5,69.1667 82.5,90.8333 82.5,112.5C 78.5837,121.459 78.5837,130.459 82.5,139.5C 82.5,161.167 82.5,182.833 82.5,204.5C 80.5,204.5 78.5,204.5 76.5,204.5C 76.5,152.167 76.5,99.8333 76.5,47.5 Z"/></g>
<g><path style="opacity:1" fill="#e3ac26" d="M 180.5,53.5 C 180.5,103.833 180.5,154.167 180.5,204.5C 178.833,204.5 177.167,204.5 175.5,204.5C 175.5,183.833 175.5,163.167 175.5,142.5C 175.5,142.167 175.5,141.833 175.5,141.5C 175.5,139.167 175.5,136.833 175.5,134.5C 175.5,128.833 175.5,123.167 175.5,117.5C 175.5,115.167 175.5,112.833 175.5,110.5C 175.5,110.167 175.5,109.833 175.5,109.5C 175.5,88.8333 175.5,68.1667 175.5,47.5C 177.167,47.5 178.833,47.5 180.5,47.5C 180.5,49.5 180.5,51.5 180.5,53.5 Z"/></g>
<g><path style="opacity:1" fill="#eccc86" d="M 51.5,46.5 C 52.1667,46.5 52.8333,46.5 53.5,46.5C 51.8333,48.8333 49.8333,50.8333 47.5,52.5C 48.4151,50.2459 49.7484,48.2459 51.5,46.5 Z"/></g>
<g><path style="opacity:1" fill="#cea236" d="M 172.5,109.5 C 170.833,109.5 169.167,109.5 167.5,109.5C 167.5,87.8333 167.5,66.1667 167.5,44.5C 169.167,44.5 170.833,44.5 172.5,44.5C 172.5,66.1667 172.5,87.8333 172.5,109.5 Z"/></g>
<g><path style="opacity:1" fill="#f1d06b" d="M 183.5,48.5 C 185.404,48.7376 186.738,49.7376 187.5,51.5C 185.596,51.2624 184.262,50.2624 183.5,48.5 Z"/></g>
<g><path style="opacity:1" fill="#af7c1b" d="M 134.5,38.5 C 134.5,62.1667 134.5,85.8333 134.5,109.5C 132.833,109.5 131.167,109.5 129.5,109.5C 129.5,85.8333 129.5,62.1667 129.5,38.5C 131.167,38.5 132.833,38.5 134.5,38.5 Z"/></g>
<g><path style="opacity:1" fill="#e5c57f" d="M 194.5,49.5 C 201.167,54.1667 206.833,59.8333 211.5,66.5C 207.167,62.5 202.833,58.5 198.5,54.5C 197.167,52.8333 195.833,51.1667 194.5,49.5 Z"/></g>
<g><path style="opacity:1" fill="#ebca67" d="M 187.5,51.5 C 190.225,52.713 192.559,54.5464 194.5,57C 193.833,57.6667 193.167,57.6667 192.5,57C 191.295,55.6244 189.962,54.4577 188.5,53.5C 188.167,52.8333 187.833,52.1667 187.5,51.5 Z"/></g>
<g><path style="opacity:1" fill="#dcbd78" d="M 47.5,52.5 C 45.9059,55.7642 43.5725,58.4309 40.5,60.5C 42.0941,57.2358 44.4275,54.5691 47.5,52.5 Z"/></g>
<g><path style="opacity:1" fill="#e1c27c" d="M 210.5,53.5 C 213.243,55.2393 215.243,57.5726 216.5,60.5C 213.757,58.7607 211.757,56.4274 210.5,53.5 Z"/></g>
<g><path style="opacity:1" fill="#d7b65c" d="M 69.5,51.5 C 64.5,57.1667 59.1667,62.5 53.5,67.5C 57.8333,61.1667 63.1667,55.8333 69.5,51.5 Z"/></g>
<g><path style="opacity:1" fill="#e4c564" d="M 198.5,60.5 C 200.58,62.5732 202.246,64.9066 203.5,67.5C 200.281,65.4716 198.114,62.8049 197,59.5C 197.383,60.056 197.883,60.3893 198.5,60.5 Z"/></g>
<g><path style="opacity:1" fill="#906827" d="M 182.5,40.5 C 184.296,42.9 186.63,44.5667 189.5,45.5C 190.585,47.5869 192.251,48.9202 194.5,49.5C 195.833,51.1667 197.167,52.8333 198.5,54.5C 199.641,56.5487 199.641,58.5487 198.5,60.5C 197.883,60.3893 197.383,60.056 197,59.5C 198.114,62.8049 200.281,65.4716 203.5,67.5C 203.5,67.8333 203.5,68.1667 203.5,68.5C 202.167,68.5 200.833,68.5 199.5,68.5C 199.5,72.5 199.5,76.5 199.5,80.5C 200.5,80.5 201.5,80.5 202.5,80.5C 197.833,85.8333 192.833,90.8333 187.5,95.5C 185.694,94.9759 184.028,94.3092 182.5,93.5C 184.167,93.5 185.833,93.5 187.5,93.5C 188.496,80.3438 188.829,67.0105 188.5,53.5C 189.962,54.4577 191.295,55.6244 192.5,57C 193.167,57.6667 193.833,57.6667 194.5,57C 192.559,54.5464 190.225,52.713 187.5,51.5C 186.738,49.7376 185.404,48.7376 183.5,48.5C 181.371,46.0499 178.704,44.3833 175.5,43.5C 174.564,42.0256 173.23,41.0256 171.5,40.5C 172.611,39.3403 173.611,38.007 174.5,36.5C 176.91,38.3716 179.577,39.705 182.5,40.5 Z"/></g>
<g><path style="opacity:1" fill="#e7c882" d="M 216.5,60.5 C 218.262,61.2623 219.262,62.5956 219.5,64.5C 217.738,63.7377 216.738,62.4044 216.5,60.5 Z"/></g>
<g><path style="opacity:1" fill="#835a23" d="M 196.5,31.5 C 215.77,45.3596 229.77,63.3596 238.5,85.5C 237.833,96.8333 237.167,108.167 236.5,119.5C 235.508,119.328 234.842,119.662 234.5,120.5C 233.29,120.932 232.29,121.599 231.5,122.5C 229.167,121.167 226.833,119.833 224.5,118.5C 223.972,117.279 223.305,116.113 222.5,115C 223.653,104.243 223.82,93.41 223,82.5C 221.686,83.3128 220.519,84.3128 219.5,85.5C 218.668,94.1475 218.168,102.814 218,111.5C 217.667,103.5 217.333,95.5 217,87.5C 216.667,95.1667 216.333,102.833 216,110.5C 215.667,103.833 215.333,97.1667 215,90.5C 214.667,96.8333 214.333,103.167 214,109.5C 213.667,103.5 213.333,97.5 213,91.5C 212.667,97.1667 212.333,102.833 212,108.5C 211.667,103.833 211.333,99.1667 211,94.5C 210.667,98.5 210.333,102.5 210,106.5C 210.102,102.044 209.268,98.0442 207.5,94.5C 209.909,92.0976 211.909,89.4309 213.5,86.5C 217.566,83.4372 220.899,79.7706 223.5,75.5C 225.273,74.6857 225.773,73.3524 225,71.5C 223.629,68.7339 221.796,66.4006 219.5,64.5C 219.262,62.5956 218.262,61.2623 216.5,60.5C 215.243,57.5726 213.243,55.2393 210.5,53.5C 208.833,49.8333 206.167,47.1667 202.5,45.5C 201.089,43.086 199.089,41.4194 196.5,40.5C 195.71,39.2058 194.71,38.0391 193.5,37C 193.88,34.6742 194.88,32.8409 196.5,31.5 Z"/></g>
<g><path style="opacity:1" fill="#b88828" d="M 190.5,60.5 C 191.496,60.4142 192.329,60.7476 193,61.5C 193.183,69.4124 193.683,77.2457 194.5,85C 193.207,85.49 191.873,85.6567 190.5,85.5C 190.5,77.1667 190.5,68.8333 190.5,60.5 Z"/></g>
<g><path style="opacity:1" fill="#e9c983" d="M 35.5,67.5 C 35.573,69.0269 34.9063,70.0269 33.5,70.5C 33.427,68.9731 34.0937,67.9731 35.5,67.5 Z"/></g>
<g><path style="opacity:1" fill="#f0cf6a" d="M 53.5,67.5 C 53.2624,69.4044 52.2624,70.7377 50.5,71.5C 50.7376,69.5956 51.7376,68.2623 53.5,67.5 Z"/></g>
<g><path style="opacity:1" fill="#d0ab38" d="M 18.5,61.5 C 16.5642,68.0382 13.5642,74.0382 9.5,79.5C 11.4596,72.9142 14.4596,66.9142 18.5,61.5 Z"/></g>
<g><path style="opacity:1" fill="#af832c" d="M 105.5,37.5 C 105.5,38.1667 105.167,38.5 104.5,38.5C 102.833,38.5 101.167,38.5 99.5,38.5C 99.5,62.1667 99.5,85.8333 99.5,109.5C 97.5103,86.8576 96.8436,63.8576 97.5,40.5C 95.8333,40.5 94.1667,40.5 92.5,40.5C 92.5,63.5 92.5,86.5 92.5,109.5C 91.5,109.5 90.5,109.5 89.5,109.5C 89.6666,87.1642 89.5,64.8308 89,42.5C 88.5,42 88,41.5 87.5,41C 88.7375,40.7679 89.7375,40.2679 90.5,39.5C 94.9974,37.4447 99.6641,35.778 104.5,34.5C 105.386,35.325 105.719,36.325 105.5,37.5 Z"/></g>
<g><path style="opacity:1" fill="#65491c" d="M 203.5,68.5 C 203.5,68.8333 203.5,69.1667 203.5,69.5C 203.5,72.8333 203.5,76.1667 203.5,79.5C 203.5,80.1667 203.167,80.5 202.5,80.5C 201.5,80.5 200.5,80.5 199.5,80.5C 199.5,76.5 199.5,72.5 199.5,68.5C 200.833,68.5 202.167,68.5 203.5,68.5 Z"/></g>
<g><path style="opacity:1" fill="#eecd69" d="M 203.5,67.5 C 205.262,68.2623 206.262,69.5956 206.5,71.5C 205.5,70.8333 204.5,70.1667 203.5,69.5C 203.5,69.1667 203.5,68.8333 203.5,68.5C 203.5,68.1667 203.5,67.8333 203.5,67.5 Z"/></g>
<g><path style="opacity:1" fill="#e8c982" d="M 219.5,64.5 C 221.796,66.4006 223.629,68.7339 225,71.5C 225.773,73.3524 225.273,74.6857 223.5,75.5C 223.414,74.5041 223.748,73.6708 224.5,73C 222.432,70.3582 220.765,67.5248 219.5,64.5 Z"/></g>
<g><path style="opacity:1" fill="#e2c37d" d="M 33.5,70.5 C 33.6287,72.2161 33.962,73.8828 34.5,75.5C 31.2742,74.1233 30.9409,72.4566 33.5,70.5 Z"/></g>
<g><path style="opacity:1" fill="#8a6125" d="M 203.5,69.5 C 204.5,70.1667 205.5,70.8333 206.5,71.5C 206.511,73.0174 207.177,74.1841 208.5,75C 206.963,76.7073 205.296,78.2073 203.5,79.5C 203.5,76.1667 203.5,72.8333 203.5,69.5 Z"/></g>
<g><path style="opacity:1" fill="#e8c866" d="M 50.5,71.5 C 49.4142,75.1488 50.7475,77.8155 54.5,79.5C 60.8333,86.1667 67.1667,92.8333 73.5,99.5C 73.5,99.8333 73.5,100.167 73.5,100.5C 64.8683,92.369 56.3683,84.0357 48,75.5C 47.7207,73.5878 48.5541,72.2544 50.5,71.5 Z"/></g>
<g><path style="opacity:1" fill="#865c23" d="M 196.5,41.5 C 198.246,43.2516 200.246,44.5849 202.5,45.5C 204.833,48.5 207.5,51.1667 210.5,53.5C 211.757,56.4274 213.757,58.7607 216.5,60.5C 216.738,62.4044 217.738,63.7377 219.5,64.5C 220.765,67.5248 222.432,70.3582 224.5,73C 223.748,73.6708 223.414,74.5041 223.5,75.5C 219.434,78.5628 216.101,82.2294 213.5,86.5C 210.833,88.8333 208.167,91.1667 205.5,93.5C 205.5,90.8333 205.5,88.1667 205.5,85.5C 207.477,83.1862 209.477,80.8528 211.5,78.5C 211.333,78.1667 211.167,77.8333 211,77.5C 208.963,79.7059 206.797,81.7059 204.5,83.5C 203.833,83.5 203.5,83.1667 203.5,82.5C 205.68,80.1522 207.68,77.6522 209.5,75C 209.022,73.3576 208.022,72.1909 206.5,71.5C 206.262,69.5956 205.262,68.2623 203.5,67.5C 202.246,64.9066 200.58,62.5732 198.5,60.5C 199.641,58.5487 199.641,56.5487 198.5,54.5C 202.833,58.5 207.167,62.5 211.5,66.5C 206.833,59.8333 201.167,54.1667 194.5,49.5C 193.5,48.1667 192.5,46.8333 191.5,45.5C 192.496,45.4142 193.329,45.7476 194,46.5C 194.05,44.256 194.883,42.5893 196.5,41.5 Z"/></g>
<g><path style="opacity:1" fill="#d3b332" d="M 211.5,66.5 C 213.273,68.4325 215.439,69.7659 218,70.5C 219,75.1667 217.333,76.5 213,74.5C 212.405,73.1011 212.572,71.7678 213.5,70.5C 212.37,69.3777 211.703,68.0443 211.5,66.5 Z"/></g>
<g><path style="opacity:1" fill="#e2c37d" d="M 34.5,75.5 C 38.5658,78.5628 41.8991,82.2294 44.5,86.5C 41.1667,83.5 37.8333,80.5 34.5,77.5C 34.5,76.8333 34.5,76.1667 34.5,75.5 Z"/></g>
<g><path style="opacity:1" fill="#e9d686" d="M 27.5,81.5 C 28.6595,92.9927 28.8261,104.659 28,116.5C 27.3292,117.252 26.4959,117.586 25.5,117.5C 25.7828,116.711 26.2828,116.044 27,115.5C 27.4999,104.172 27.6665,92.8382 27.5,81.5 Z"/></g>
<g><path style="opacity:1" fill="#f1d16c" d="M 205.5,85.5 C 204.662,85.1583 204.328,84.4916 204.5,83.5C 206.797,81.7059 208.963,79.7059 211,77.5C 211.167,77.8333 211.333,78.1667 211.5,78.5C 209.477,80.8528 207.477,83.1862 205.5,85.5 Z"/></g>
<g><path style="opacity:1" fill="#e1c17b" d="M 223.5,75.5 C 220.899,79.7706 217.566,83.4372 213.5,86.5C 216.101,82.2294 219.434,78.5628 223.5,75.5 Z"/></g>
<g><path style="opacity:1" fill="#ac8b4a" d="M 226.5,80.5 C 227.583,80.5394 228.583,80.8728 229.5,81.5C 230.176,93.395 230.843,105.228 231.5,117C 229.893,116.981 228.226,116.815 226.5,116.5C 226.5,104.5 226.5,92.5 226.5,80.5 Z"/></g>
<g><path style="opacity:1" fill="#c6a03f" d="M 9.5,79.5 C 3.36295,97.9897 0.362949,116.99 0.5,136.5C 0.166667,136.5 -0.166667,136.5 -0.5,136.5C -0.5,128.833 -0.5,121.167 -0.5,113.5C 1.27724,101.727 4.61058,90.394 9.5,79.5 Z"/></g>
<g><path style="opacity:1" fill="#794f1f" d="M 238.5,85.5 C 247.747,113.465 247.747,141.465 238.5,169.5C 238.159,157.963 237.159,146.63 235.5,135.5C 235.833,134.833 236.167,134.167 236.5,133.5C 235.417,133.539 234.417,133.873 233.5,134.5C 232.614,133.675 232.281,132.675 232.5,131.5C 234.969,130.431 237.302,129.098 239.5,127.5C 237.142,125.322 234.475,123.655 231.5,122.5C 232.29,121.599 233.29,120.932 234.5,120.5C 235.391,121.11 236.391,121.443 237.5,121.5C 237.167,120.833 236.833,120.167 236.5,119.5C 237.167,108.167 237.833,96.8333 238.5,85.5 Z"/></g>
<g><path style="opacity:1" fill="#e3c37d" d="M 44.5,86.5 C 48.2343,89.2311 51.2343,92.5644 53.5,96.5C 52.5,95.8333 51.5,95.1667 50.5,94.5C 48.0908,92.0976 46.0908,89.4309 44.5,86.5 Z"/></g>
<g><path style="opacity:1" fill="#8e6727" d="M 76.5,47.5 C 76.5,99.8333 76.5,152.167 76.5,204.5C 78.5,204.5 80.5,204.5 82.5,204.5C 82.5,182.833 82.5,161.167 82.5,139.5C 83.5,139.833 84.1667,140.5 84.5,141.5C 84.5,163.833 84.5,186.167 84.5,208.5C 85.5,208.5 86.5,208.5 87.5,208.5C 87.0825,209.222 86.4158,209.722 85.5,210C 86.056,210.383 86.3893,210.883 86.5,211.5C 80.1777,208.674 74.1777,205.341 68.5,201.5C 68.1667,200.833 67.8333,200.167 67.5,199.5C 68.4955,186.677 68.8288,173.677 68.5,160.5C 70.1271,158.37 71.9604,156.37 74,154.5C 74.8288,135.995 74.6621,117.662 73.5,99.5C 67.1667,92.8333 60.8333,86.1667 54.5,79.5C 50.7475,77.8155 49.4142,75.1488 50.5,71.5C 52.2624,70.7377 53.2624,69.4044 53.5,67.5C 59.1667,62.5 64.5,57.1667 69.5,51.5C 71.8162,50.1944 74.1495,48.8611 76.5,47.5 Z"/></g>
<g><path style="opacity:1" fill="#5d431a" d="M 54.5,79.5 C 54.5,75.8333 54.5,72.1667 54.5,68.5C 55.8333,68.5 57.1667,68.5 58.5,68.5C 58.5,72.1667 58.5,75.8333 58.5,79.5C 57.1667,79.5 55.8333,79.5 54.5,79.5 Z"/></g>
<g><path style="opacity:1" fill="#ae8029" d="M 64.5,60.5 C 65.5,60.5 66.5,60.5 67.5,60.5C 67.8312,68.8599 67.4979,77.1932 66.5,85.5C 65.914,85.2907 65.414,84.9574 65,84.5C 64.5003,76.5069 64.3336,68.5069 64.5,60.5 Z"/></g>
<g><path style="opacity:1" fill="#dfa825" d="M 69.5,53.5 C 71.5,53.5 73.5,53.5 75.5,53.5C 75.5,66.5 75.5,79.5 75.5,92.5C 73.5,92.5 71.5,92.5 69.5,92.5C 69.5,79.5 69.5,66.5 69.5,53.5 Z"/></g>
<g><path style="opacity:1" fill="#9a712a" d="M 183.5,48.5 C 184.262,50.2624 185.596,51.2624 187.5,51.5C 187.833,52.1667 188.167,52.8333 188.5,53.5C 188.829,67.0105 188.496,80.3438 187.5,93.5C 187.5,80.1667 187.5,66.8333 187.5,53.5C 185.833,53.5 184.167,53.5 182.5,53.5C 182.5,66.8333 182.5,80.1667 182.5,93.5C 184.028,94.3092 185.694,94.9759 187.5,95.5C 186.207,97.2959 184.707,98.9625 183,100.5C 182.333,118.5 182.333,136.5 183,154.5C 185.04,156.37 186.873,158.37 188.5,160.5C 186.5,160.5 184.5,160.5 182.5,160.5C 182.5,173.833 182.5,187.167 182.5,200.5C 183.689,203.423 185.689,204.089 188.5,202.5C 186.704,204.9 184.37,206.567 181.5,207.5C 180.417,207.539 179.417,207.873 178.5,208.5C 177.646,207.478 176.646,206.645 175.5,206C 177.382,205.802 179.048,205.302 180.5,204.5C 180.5,154.167 180.5,103.833 180.5,53.5C 180.972,51.4687 181.972,49.8021 183.5,48.5 Z"/></g>
<g><path style="opacity:1" fill="#e4ad25" d="M 187.5,93.5 C 185.833,93.5 184.167,93.5 182.5,93.5C 182.5,80.1667 182.5,66.8333 182.5,53.5C 184.167,53.5 185.833,53.5 187.5,53.5C 187.5,66.8333 187.5,80.1667 187.5,93.5 Z"/></g>
<g><path style="opacity:1" fill="#e2c27c" d="M 213.5,86.5 C 211.909,89.4309 209.909,92.0976 207.5,94.5C 206.167,95.5 204.833,96.5 203.5,97.5C 203.733,95.9382 204.4,94.6049 205.5,93.5C 208.167,91.1667 210.833,88.8333 213.5,86.5 Z"/></g>
<g><path style="opacity:1" fill="#ddb85b" d="M 206.5,71.5 C 208.022,72.1909 209.022,73.3576 209.5,75C 207.68,77.6522 205.68,80.1522 203.5,82.5C 197.202,88.2972 191.035,94.2972 185,100.5C 184.333,118.5 184.333,136.5 185,154.5C 189.369,159.037 193.869,163.37 198.5,167.5C 201.796,171.298 205.296,174.964 209,178.5C 209.747,180.928 208.914,182.594 206.5,183.5C 206.511,181.983 207.177,180.816 208.5,180C 201.965,173.297 195.298,166.797 188.5,160.5C 186.873,158.37 185.04,156.37 183,154.5C 182.333,136.5 182.333,118.5 183,100.5C 184.707,98.9625 186.207,97.2959 187.5,95.5C 192.833,90.8333 197.833,85.8333 202.5,80.5C 203.167,80.5 203.5,80.1667 203.5,79.5C 205.296,78.2073 206.963,76.7073 208.5,75C 207.177,74.1841 206.511,73.0174 206.5,71.5 Z"/></g>
<g><path style="opacity:1" fill="#8d6525" d="M 203.5,82.5 C 203.5,83.1667 203.833,83.5 204.5,83.5C 204.328,84.4916 204.662,85.1583 205.5,85.5C 205.5,88.1667 205.5,90.8333 205.5,93.5C 204.4,94.6049 203.733,95.9382 203.5,97.5C 200.536,99.9619 197.703,102.629 195,105.5C 194.172,120.339 194.339,135.006 195.5,149.5C 198.098,153.438 201.098,157.105 204.5,160.5C 205.714,163.204 205.714,165.871 204.5,168.5C 203.833,168.167 203.167,167.833 202.5,167.5C 201.167,167.5 199.833,167.5 198.5,167.5C 193.869,163.37 189.369,159.037 185,154.5C 184.333,136.5 184.333,118.5 185,100.5C 191.035,94.2972 197.202,88.2972 203.5,82.5 Z"/></g>
<g><path style="opacity:1" fill="#f3d46e" d="M 201.5,87.5 C 202.525,87.8966 202.692,88.5632 202,89.5C 197.667,93.8333 193.333,98.1667 189,102.5C 188.333,119.167 188.333,135.833 189,152.5C 204.245,169.01 203.912,169.343 188,153.5C 187.333,136.167 187.333,118.833 188,101.5C 192.703,96.9645 197.203,92.2979 201.5,87.5 Z"/></g>
<g><path style="opacity:1" fill="#f4e491" d="M 43.5,141.5 C 42.7387,140.609 41.7387,139.942 40.5,139.5C 39.3349,131.187 39.1683,122.853 40,114.5C 41.6516,113.601 43.1516,112.601 44.5,111.5C 47.0524,110.307 49.5524,108.973 52,107.5C 52.6667,120.5 52.6667,133.5 52,146.5C 49.3859,144.444 46.5525,142.777 43.5,141.5 Z"/></g>
<g><path style="opacity:1" fill="#fdfbf9" d="M 84.5,110.5 C 85.1667,110.5 85.8333,110.5 86.5,110.5C 93.5,110.5 100.5,110.5 107.5,110.5C 107.5,112.833 107.5,115.167 107.5,117.5C 104.833,117.5 102.167,117.5 99.5,117.5C 96.5,117.5 93.5,117.5 90.5,117.5C 89.5,117.5 88.5,117.5 87.5,117.5C 86.5036,122.463 86.3369,127.463 87,132.5C 87.7096,133.973 88.8762,134.64 90.5,134.5C 93.5,134.5 96.5,134.5 99.5,134.5C 102.167,134.5 104.833,134.5 107.5,134.5C 107.5,136.833 107.5,139.167 107.5,141.5C 100.5,141.5 93.5,141.5 86.5,141.5C 85.8333,141.5 85.1667,141.5 84.5,141.5C 84.1667,140.5 83.5,139.833 82.5,139.5C 78.5837,130.459 78.5837,121.459 82.5,112.5C 83.5,112.167 84.1667,111.5 84.5,110.5 Z"/></g>
<g><path style="opacity:1" fill="#fdfcfb" d="M 135.5,110.5 C 136.167,110.5 136.833,110.5 137.5,110.5C 139.167,111.833 140.833,113.167 142.5,114.5C 141.573,122.558 141.24,130.558 141.5,138.5C 140.167,139.5 138.833,140.5 137.5,141.5C 136.5,141.5 135.5,141.5 134.5,141.5C 127.5,141.5 120.5,141.5 113.5,141.5C 113.5,139.167 113.5,136.833 113.5,134.5C 120.5,134.5 127.5,134.5 134.5,134.5C 134.5,132.833 134.5,131.167 134.5,129.5C 127.5,129.5 120.5,129.5 113.5,129.5C 113.5,127.167 113.5,124.833 113.5,122.5C 120.5,122.5 127.5,122.5 134.5,122.5C 134.5,120.833 134.5,119.167 134.5,117.5C 127.5,117.5 120.5,117.5 113.5,117.5C 113.5,115.167 113.5,112.833 113.5,110.5C 120.833,110.5 128.167,110.5 135.5,110.5 Z"/></g>
<g><path style="opacity:1" fill="#fdfcfa" d="M 154.5,110.5 C 161.5,110.5 168.5,110.5 175.5,110.5C 175.5,112.833 175.5,115.167 175.5,117.5C 174.833,117.5 174.167,117.5 173.5,117.5C 171.5,117.5 169.5,117.5 167.5,117.5C 163.445,117.176 159.445,117.509 155.5,118.5C 154.167,123.5 154.167,128.5 155.5,133.5C 159.445,134.491 163.445,134.824 167.5,134.5C 169.5,134.5 171.5,134.5 173.5,134.5C 174.167,134.5 174.833,134.5 175.5,134.5C 175.5,136.833 175.5,139.167 175.5,141.5C 168.5,141.5 161.5,141.5 154.5,141.5C 153.391,141.443 152.391,141.11 151.5,140.5C 151.167,139.5 150.5,138.833 149.5,138.5C 146.522,129.62 146.855,120.954 150.5,112.5C 151.167,112.5 151.5,112.167 151.5,111.5C 152.391,110.89 153.391,110.557 154.5,110.5 Z"/></g>
<g><path style="opacity:1" fill="#8b6125" d="M 34.5,77.5 C 37.8333,80.5 41.1667,83.5 44.5,86.5C 46.0908,89.4309 48.0908,92.0976 50.5,94.5C 50.5,95.1667 50.1667,95.5 49.5,95.5C 47.5082,94.1696 45.5082,92.8363 43.5,91.5C 43.6309,90.6236 43.2975,89.9569 42.5,89.5C 41.5027,96.8032 41.1694,104.137 41.5,111.5C 42.5,111.5 43.5,111.5 44.5,111.5C 43.1516,112.601 41.6516,113.601 40,114.5C 39.1683,122.853 39.3349,131.187 40.5,139.5C 41.7387,139.942 42.7387,140.609 43.5,141.5C 41.6963,148.432 40.863,155.765 41,163.5C 40.6667,156.833 40.3333,150.167 40,143.5C 39.6667,151.167 39.3333,158.833 39,166.5C 38.6667,158.167 38.3333,149.833 38,141.5C 37.3333,177.5 36.6667,177.5 36,141.5C 35.6667,151.167 35.3333,160.833 35,170.5C 34.6667,160.5 34.3333,150.5 34,140.5C 33.5002,150.828 33.3335,161.161 33.5,171.5C 32.6695,160.674 32.1695,149.674 32,138.5C 31.6667,150.167 31.3333,161.833 31,173.5C 30.6667,161.5 30.3333,149.5 30,137.5C 29.8306,149.007 29.3306,160.341 28.5,171.5C 29.1451,159.452 28.4784,147.785 26.5,136.5C 25.1103,134.831 24.7769,133.164 25.5,131.5C 28.1667,132.833 30.8333,134.167 33.5,135.5C 34.2145,133.435 34.5478,130.601 34.5,127C 34.1667,123.833 33.8333,120.667 33.5,117.5C 32.8933,117.624 32.56,117.957 32.5,118.5C 28.6733,120.246 25.0066,122.246 21.5,124.5C 21.2014,123.24 21.2014,122.073 21.5,121C 23.0931,120.051 24.4264,118.885 25.5,117.5C 26.4959,117.586 27.3292,117.252 28,116.5C 28.8261,104.659 28.6595,92.9927 27.5,81.5C 27.56,80.9569 27.8933,80.6236 28.5,80.5C 29.3325,92.1524 29.8325,103.819 30,115.5C 30.3333,103.5 30.6667,91.5 31,79.5C 31.3333,91.1667 31.6667,102.833 32,114.5C 32.3333,103.5 32.6667,92.5 33,81.5C 33.3333,92.1667 33.6667,102.833 34,113.5C 34.423,101.282 34.5897,89.2815 34.5,77.5 Z"/></g>
<g><path style="opacity:1" fill="#9e793a" d="M 224.5,118.5 C 223.347,124.319 223.181,130.319 224,136.5C 226.943,134.948 229.777,133.281 232.5,131.5C 232.281,132.675 232.614,133.675 233.5,134.5C 234.417,133.873 235.417,133.539 236.5,133.5C 236.167,134.167 235.833,134.833 235.5,135.5C 234.833,135.5 234.167,135.5 233.5,135.5C 231.254,136.455 228.921,137.122 226.5,137.5C 225.854,149.88 226.521,161.88 228.5,173.5C 228.083,174.124 227.416,174.457 226.5,174.5C 224.545,173.547 222.878,172.213 221.5,170.5C 220.878,151.51 219.545,132.843 217.5,114.5C 213.7,112.766 210.034,110.766 206.5,108.5C 205.334,121.154 205.167,133.82 206,146.5C 208.943,144.948 211.777,143.281 214.5,141.5C 214.918,142.222 215.584,142.722 216.5,143C 215.685,150.087 215.185,157.253 215,164.5C 214.667,158.167 214.333,151.833 214,145.5C 213.667,151.167 213.333,156.833 213,162.5C 212.667,157.167 212.333,151.833 212,146.5C 211.333,163.833 210.667,163.833 210,146.5C 209.667,150.833 209.333,155.167 209,159.5C 208.667,155.833 208.333,152.167 208,148.5C 207.54,152.546 207.04,156.212 206.5,159.5C 202.833,156.167 199.167,152.833 195.5,149.5C 195.952,134.834 196.452,120.168 197,105.5C 199.782,103.229 201.949,100.563 203.5,97.5C 204.833,96.5 206.167,95.5 207.5,94.5C 209.268,98.0442 210.102,102.044 210,106.5C 210.333,102.5 210.667,98.5 211,94.5C 211.333,99.1667 211.667,103.833 212,108.5C 212.333,102.833 212.667,97.1667 213,91.5C 213.333,97.5 213.667,103.5 214,109.5C 214.333,103.167 214.667,96.8333 215,90.5C 215.333,97.1667 215.667,103.833 216,110.5C 216.333,102.833 216.667,95.1667 217,87.5C 217.333,95.5 217.667,103.5 218,111.5C 218.168,102.814 218.668,94.1475 219.5,85.5C 220.519,84.3128 221.686,83.3128 223,82.5C 223.82,93.41 223.653,104.243 222.5,115C 223.305,116.113 223.972,117.279 224.5,118.5 Z"/></g>
<g><path style="opacity:1" fill="#f7e794" d="M 217.5,114.5 C 217.666,122.84 217.5,131.173 217,139.5C 216.292,140.381 215.458,141.047 214.5,141.5C 211.777,143.281 208.943,144.948 206,146.5C 205.167,133.82 205.334,121.154 206.5,108.5C 210.034,110.766 213.7,112.766 217.5,114.5 Z"/></g>
<g><path style="opacity:1" fill="#b79653" d="M 32.5,118.5 C 32.56,117.957 32.8933,117.624 33.5,117.5C 33.8333,120.667 34.1667,123.833 34.5,127C 34.5478,130.601 34.2145,133.435 33.5,135.5C 33.8222,129.642 33.4889,123.975 32.5,118.5 Z"/></g>
<g><path style="opacity:1" fill="#cd9f39" d="M 90.5,117.5 C 90.5,123.167 90.5,128.833 90.5,134.5C 88.8762,134.64 87.7096,133.973 87,132.5C 86.3369,127.463 86.5036,122.463 87.5,117.5C 88.5,117.5 89.5,117.5 90.5,117.5 Z"/></g>
<g><path style="opacity:1" fill="#b48931" d="M 90.5,117.5 C 93.5,117.5 96.5,117.5 99.5,117.5C 99.5,123.167 99.5,128.833 99.5,134.5C 96.5,134.5 93.5,134.5 90.5,134.5C 90.5,128.833 90.5,123.167 90.5,117.5 Z"/></g>
<g><path style="opacity:1" fill="#b58c33" d="M 167.5,117.5 C 167.5,123.167 167.5,128.833 167.5,134.5C 163.445,134.824 159.445,134.491 155.5,133.5C 154.167,128.5 154.167,123.5 155.5,118.5C 159.445,117.509 163.445,117.176 167.5,117.5 Z"/></g>
<g><path style="opacity:1" fill="#ca9c33" d="M 167.5,117.5 C 169.5,117.5 171.5,117.5 173.5,117.5C 173.5,123.167 173.5,128.833 173.5,134.5C 171.5,134.5 169.5,134.5 167.5,134.5C 167.5,128.833 167.5,123.167 167.5,117.5 Z"/></g>
<g><path style="opacity:1" fill="#aa7d28" d="M 173.5,117.5 C 174.167,117.5 174.833,117.5 175.5,117.5C 175.5,123.167 175.5,128.833 175.5,134.5C 174.833,134.5 174.167,134.5 173.5,134.5C 173.5,128.833 173.5,123.167 173.5,117.5 Z"/></g>
<g><path style="opacity:1" fill="#f6e794" d="M 32.5,118.5 C 33.4889,123.975 33.8222,129.642 33.5,135.5C 30.8333,134.167 28.1667,132.833 25.5,131.5C 22.9784,129.828 20.3118,128.328 17.5,127C 18.6934,125.905 20.0267,125.072 21.5,124.5C 25.0066,122.246 28.6733,120.246 32.5,118.5 Z"/></g>
<g><path style="opacity:1" fill="#d2b86f" d="M 234.5,120.5 C 234.842,119.662 235.508,119.328 236.5,119.5C 236.833,120.167 237.167,120.833 237.5,121.5C 236.391,121.443 235.391,121.11 234.5,120.5 Z"/></g>
<g><path style="opacity:1" fill="#f5e693" d="M 224.5,118.5 C 226.833,119.833 229.167,121.167 231.5,122.5C 234.475,123.655 237.142,125.322 239.5,127.5C 237.302,129.098 234.969,130.431 232.5,131.5C 229.777,133.281 226.943,134.948 224,136.5C 223.181,130.319 223.347,124.319 224.5,118.5 Z"/></g>
<g><path style="opacity:1" fill="#d5b36e" d="M 203.5,97.5 C 201.949,100.563 199.782,103.229 197,105.5C 196.452,120.168 195.952,134.834 195.5,149.5C 194.339,135.006 194.172,120.339 195,105.5C 197.703,102.629 200.536,99.9619 203.5,97.5 Z"/></g>
<g><path style="opacity:1" fill="#d0b76d" d="M 237.5,121.5 C 238.756,121.461 239.756,121.961 240.5,123C 239.002,123.585 238.002,123.085 237.5,121.5 Z"/></g>
<g><path style="opacity:1" fill="#cca73d" d="M 240.5,68.5 C 248.745,83.1542 253.745,98.8209 255.5,115.5C 255.5,122.5 255.5,129.5 255.5,136.5C 254.833,139.5 254.167,142.5 253.5,145.5C 253.667,132.829 253.5,120.162 253,107.5C 251.667,102.167 250.333,96.8333 249,91.5C 246.136,83.7863 243.303,76.1196 240.5,68.5 Z"/></g>
<g><path style="opacity:1" fill="#d2b86f" d="M 236.5,133.5 C 237.002,131.915 238.002,131.415 239.5,132C 238.756,133.039 237.756,133.539 236.5,133.5 Z"/></g>
<g><path style="opacity:1" fill="#90682b" d="M 48.5,39.5 C 48.9174,42.1589 49.9174,44.4922 51.5,46.5C 49.7484,48.2459 48.4151,50.2459 47.5,52.5C 44.4275,54.5691 42.0941,57.2358 40.5,60.5C 38.1,62.2964 36.4333,64.6298 35.5,67.5C 34.0937,67.9731 33.427,68.9731 33.5,70.5C 30.9409,72.4566 31.2742,74.1233 34.5,75.5C 34.5,76.1667 34.5,76.8333 34.5,77.5C 34.5897,89.2815 34.423,101.282 34,113.5C 33.6667,102.833 33.3333,92.1667 33,81.5C 32.6667,92.5 32.3333,103.5 32,114.5C 31.6667,102.833 31.3333,91.1667 31,79.5C 30.6667,91.5 30.3333,103.5 30,115.5C 29.8325,103.819 29.3325,92.1524 28.5,80.5C 27.8933,80.6236 27.56,80.9569 27.5,81.5C 27.6665,92.8382 27.4999,104.172 27,115.5C 26.2828,116.044 25.7828,116.711 25.5,117.5C 24.4264,118.885 23.0931,120.051 21.5,121C 21.2014,122.073 21.2014,123.24 21.5,124.5C 20.0267,125.072 18.6934,125.905 17.5,127C 20.3118,128.328 22.9784,129.828 25.5,131.5C 24.7769,133.164 25.1103,134.831 26.5,136.5C 27.1473,148.265 27.8139,159.932 28.5,171.5C 29.3306,160.341 29.8306,149.007 30,137.5C 30.3333,149.5 30.6667,161.5 31,173.5C 31.3333,161.833 31.6667,150.167 32,138.5C 32.1695,149.674 32.6695,160.674 33.5,171.5C 33.366,173.292 33.6993,174.958 34.5,176.5C 33.5244,177.815 32.5244,179.148 31.5,180.5C 31.8555,181.522 32.5222,182.189 33.5,182.5C 33.427,184.027 34.0937,185.027 35.5,185.5C 36.5293,188.891 38.5293,191.557 41.5,193.5C 41.5569,194.609 41.8902,195.609 42.5,196.5C 40.9256,196.063 39.7589,195.063 39,193.5C 38.3333,197.167 38.3333,200.833 39,204.5C 41.4536,206.441 43.287,208.775 44.5,211.5C 20.7407,187.953 9.07401,159.286 9.5,125.5C 10.058,91.0598 23.058,62.3931 48.5,39.5 Z"/></g>
<g><path style="opacity:1" fill="#cc9926" d="M 141.5,28.5 C 142.833,28.5 144.167,28.5 145.5,28.5C 145.894,32.0906 146.894,35.4239 148.5,38.5C 147.167,38.5 145.833,38.5 144.5,38.5C 144.5,97.1667 144.5,155.833 144.5,214.5C 141.167,214.5 137.833,214.5 134.5,214.5C 134.5,190.5 134.5,166.5 134.5,142.5C 134.5,142.167 134.5,141.833 134.5,141.5C 135.5,141.5 136.5,141.5 137.5,141.5C 137.5,165.5 137.5,189.5 137.5,213.5C 139.167,213.5 140.833,213.5 142.5,213.5C 142.831,188.328 142.498,163.328 141.5,138.5C 141.24,130.558 141.573,122.558 142.5,114.5C 142.831,88.9945 142.498,63.6612 141.5,38.5C 140.167,37.5 138.833,36.5 137.5,35.5C 140.987,34.5168 142.32,32.1834 141.5,28.5 Z"/></g>
<g><path style="opacity:1" fill="#845a24" d="M 217.5,114.5 C 219.545,132.843 220.878,151.51 221.5,170.5C 222.878,172.213 224.545,173.547 226.5,174.5C 227.416,174.457 228.083,174.124 228.5,173.5C 230.283,161.746 231.117,149.746 231,137.5C 232.308,138.151 233.141,137.485 233.5,135.5C 234.167,135.5 234.833,135.5 235.5,135.5C 237.159,146.63 238.159,157.963 238.5,169.5C 230.389,189.937 217.723,206.937 200.5,220.5C 199.732,218.285 199.065,215.952 198.5,213.5C 203.562,209.441 207.895,204.774 211.5,199.5C 213.914,198.089 215.581,196.089 216.5,193.5C 218.262,192.738 219.262,191.404 219.5,189.5C 222.098,187.155 224.098,184.322 225.5,181C 223.012,177.345 220.012,174.178 216.5,171.5C 216.5,170.167 215.833,169.5 214.5,169.5C 212.237,165.897 209.57,162.564 206.5,159.5C 207.04,156.212 207.54,152.546 208,148.5C 208.333,152.167 208.667,155.833 209,159.5C 209.333,155.167 209.667,150.833 210,146.5C 210.667,163.833 211.333,163.833 212,146.5C 212.333,151.833 212.667,157.167 213,162.5C 213.333,156.833 213.667,151.167 214,145.5C 214.333,151.833 214.667,158.167 215,164.5C 215.185,157.253 215.685,150.087 216.5,143C 215.584,142.722 214.918,142.222 214.5,141.5C 215.458,141.047 216.292,140.381 217,139.5C 217.5,131.173 217.666,122.84 217.5,114.5 Z"/></g>
<g><path style="opacity:1" fill="#ead887" d="M 26.5,136.5 C 28.4784,147.785 29.1451,159.452 28.5,171.5C 27.8139,159.932 27.1473,148.265 26.5,136.5 Z"/></g>
<g><path style="opacity:1" fill="#b27e1b" d="M 141.5,138.5 C 142.498,163.328 142.831,188.328 142.5,213.5C 140.833,213.5 139.167,213.5 137.5,213.5C 137.5,189.5 137.5,165.5 137.5,141.5C 138.833,140.5 140.167,139.5 141.5,138.5 Z"/></g>
<g><path style="opacity:1" fill="#ad8c4b" d="M 233.5,135.5 C 233.141,137.485 232.308,138.151 231,137.5C 231.117,149.746 230.283,161.746 228.5,173.5C 226.521,161.88 225.854,149.88 226.5,137.5C 228.921,137.122 231.254,136.455 233.5,135.5 Z"/></g>
<g><path style="opacity:1" fill="#c29028" d="M 149.5,138.5 C 150.5,138.833 151.167,139.5 151.5,140.5C 151.5,165.167 151.5,189.833 151.5,214.5C 152.5,214.5 153.5,214.5 154.5,214.5C 154.5,223.833 154.5,233.167 154.5,242.5C 152.621,243.341 150.621,243.675 148.5,243.5C 147.506,234.014 147.173,224.348 147.5,214.5C 149.491,189.522 150.157,164.189 149.5,138.5 Z"/></g>
<g><path style="opacity:1" fill="#fefefd" d="M -0.5,136.5 C -0.166667,136.5 0.166667,136.5 0.5,136.5C 0.236159,143.484 1.23616,150.151 3.5,156.5C 3.23219,158.099 3.56552,159.432 4.5,160.5C 6.52928,170.546 10.196,179.879 15.5,188.5C 25.6841,207.685 40.0174,223.018 58.5,234.5C 65.4966,239.669 73.1633,243.836 81.5,247C 92.0497,250.802 102.716,253.635 113.5,255.5C 75.5,255.5 37.5,255.5 -0.5,255.5C -0.5,215.833 -0.5,176.167 -0.5,136.5 Z"/></g>
<g><path style="opacity:1" fill="#fefefd" d="M 255.5,136.5 C 255.5,176.167 255.5,215.833 255.5,255.5C 216.167,255.5 176.833,255.5 137.5,255.5C 145.291,254.475 152.957,252.808 160.5,250.5C 165.915,249.806 170.915,248.14 175.5,245.5C 185.593,242.291 194.593,237.291 202.5,230.5C 204.411,229.925 206.078,228.925 207.5,227.5C 209.5,226.167 211.167,224.5 212.5,222.5C 219.604,216.734 225.604,210.067 230.5,202.5C 235.685,196.625 239.685,189.958 242.5,182.5C 244.293,180.574 245.293,178.241 245.5,175.5C 249.208,168.354 251.542,160.687 252.5,152.5C 253.369,150.283 253.702,147.95 253.5,145.5C 254.167,142.5 254.833,139.5 255.5,136.5 Z"/></g>
<g><path style="opacity:1" fill="#c1993c" d="M 86.5,141.5 C 93.5,141.5 100.5,141.5 107.5,141.5C 107.5,141.833 107.5,142.167 107.5,142.5C 106.5,142.5 105.5,142.5 104.5,142.5C 102.833,142.5 101.167,142.5 99.5,142.5C 97.5101,165.476 96.8435,188.809 97.5,212.5C 95.8333,212.5 94.1667,212.5 92.5,212.5C 92.8331,189.157 92.4997,165.824 91.5,142.5C 90.8333,164.663 90.1667,186.663 89.5,208.5C 89.5,186.5 89.5,164.5 89.5,142.5C 88.209,142.737 87.209,142.404 86.5,141.5 Z"/></g>
<g><path style="opacity:1" fill="#b17d1b" d="M 99.5,142.5 C 101.167,142.5 102.833,142.5 104.5,142.5C 104.5,166.167 104.5,189.833 104.5,213.5C 102.833,213.5 101.167,213.5 99.5,213.5C 99.5,189.833 99.5,166.167 99.5,142.5 Z"/></g>
<g><path style="opacity:1" fill="#dca526" d="M 120.5,142.5 C 121.167,142.5 121.833,142.5 122.5,142.5C 122.5,166.167 122.5,189.833 122.5,213.5C 124.167,213.5 125.833,213.5 127.5,213.5C 128.167,189.833 128.833,166.167 129.5,142.5C 129.5,166.5 129.5,190.5 129.5,214.5C 124.167,214.5 118.833,214.5 113.5,214.5C 113.842,213.662 114.508,213.328 115.5,213.5C 117.167,213.5 118.833,213.5 120.5,213.5C 120.5,189.833 120.5,166.167 120.5,142.5 Z"/></g>
<g><path style="opacity:1" fill="#b07d1b" d="M 129.5,142.5 C 131.167,142.5 132.833,142.5 134.5,142.5C 134.5,166.5 134.5,190.5 134.5,214.5C 132.833,214.5 131.167,214.5 129.5,214.5C 129.5,190.5 129.5,166.5 129.5,142.5 Z"/></g>
<g><path style="opacity:1" fill="#b07d1a" d="M 151.5,140.5 C 152.391,141.11 153.391,141.443 154.5,141.5C 156.167,142.167 157.833,142.833 159.5,143.5C 158.5,143.5 157.5,143.5 156.5,143.5C 157.157,167.524 156.49,191.19 154.5,214.5C 153.5,214.5 152.5,214.5 151.5,214.5C 151.5,189.833 151.5,165.167 151.5,140.5 Z"/></g>
<g><path style="opacity:1" fill="#b68728" d="M 159.5,143.5 C 159.5,166.833 159.5,190.167 159.5,213.5C 160.833,213.5 162.167,213.5 163.5,213.5C 165.671,214.245 168.005,214.412 170.5,214C 167.388,214.851 167.054,216.017 169.5,217.5C 169.291,218.086 168.957,218.586 168.5,219C 169.793,219.49 171.127,219.657 172.5,219.5C 171.626,220.525 170.459,221.192 169,221.5C 167.446,219.062 165.446,217.062 163,215.5C 163.596,223.089 163.596,230.755 163,238.5C 162.283,239.044 161.783,239.711 161.5,240.5C 159.299,241.566 156.965,242.233 154.5,242.5C 154.5,233.167 154.5,223.833 154.5,214.5C 156.49,191.19 157.157,167.524 156.5,143.5C 157.5,143.5 158.5,143.5 159.5,143.5 Z"/></g>
<g><path style="opacity:1" fill="#b79442" d="M 154.5,141.5 C 161.5,141.5 168.5,141.5 175.5,141.5C 175.5,141.833 175.5,142.167 175.5,142.5C 174.5,142.5 173.5,142.5 172.5,142.5C 170.833,142.5 169.167,142.5 167.5,142.5C 166.167,166.167 164.833,189.833 163.5,213.5C 162.167,213.5 160.833,213.5 159.5,213.5C 159.5,190.167 159.5,166.833 159.5,143.5C 157.833,142.833 156.167,142.167 154.5,141.5 Z"/></g>
<g><path style="opacity:1" fill="#a97d2a" d="M 167.5,142.5 C 167.5,164.5 167.5,186.5 167.5,208.5C 169.167,208.5 170.833,208.5 172.5,208.5C 172.5,186.5 172.5,164.5 172.5,142.5C 173.5,142.5 174.5,142.5 175.5,142.5C 175.5,163.167 175.5,183.833 175.5,204.5C 177.167,204.5 178.833,204.5 180.5,204.5C 179.048,205.302 177.382,205.802 175.5,206C 176.646,206.645 177.646,207.478 178.5,208.5C 179.417,207.873 180.417,207.539 181.5,207.5C 180.426,208.885 179.093,210.051 177.5,211C 178.814,211.985 179.814,213.152 180.5,214.5C 177.833,216.167 175.167,217.833 172.5,219.5C 171.127,219.657 169.793,219.49 168.5,219C 168.957,218.586 169.291,218.086 169.5,217.5C 167.054,216.017 167.388,214.851 170.5,214C 168.005,214.412 165.671,214.245 163.5,213.5C 164.833,189.833 166.167,166.167 167.5,142.5 Z"/></g>
<g><path style="opacity:1" fill="#cba037" d="M 167.5,142.5 C 169.167,142.5 170.833,142.5 172.5,142.5C 172.5,164.5 172.5,186.5 172.5,208.5C 170.833,208.5 169.167,208.5 167.5,208.5C 167.5,186.5 167.5,164.5 167.5,142.5 Z"/></g>
<g><path style="opacity:1" fill="#c79f31" d="M 0.5,136.5 C 2.12713,142.942 3.12713,149.608 3.5,156.5C 1.23616,150.151 0.236159,143.484 0.5,136.5 Z"/></g>
<g><path style="opacity:1" fill="#d9a62f" d="M 84.5,141.5 C 85.1667,141.5 85.8333,141.5 86.5,141.5C 87.209,142.404 88.209,142.737 89.5,142.5C 89.5,164.5 89.5,186.5 89.5,208.5C 88.8333,208.5 88.1667,208.5 87.5,208.5C 86.5,208.5 85.5,208.5 84.5,208.5C 84.5,186.167 84.5,163.833 84.5,141.5 Z"/></g>
<g><path style="opacity:1" fill="#e4c37d" d="M 195.5,149.5 C 199.167,152.833 202.833,156.167 206.5,159.5C 209.57,162.564 212.237,165.897 214.5,169.5C 211.167,166.5 207.833,163.5 204.5,160.5C 201.098,157.105 198.098,153.438 195.5,149.5 Z"/></g>
<g><path style="opacity:1" fill="#896325" d="M 68.5,160.5 C 68.8288,173.677 68.4955,186.677 67.5,199.5C 63.1667,195.5 58.8333,191.5 54.5,187.5C 54.5,187.167 54.5,186.833 54.5,186.5C 56.1667,186.5 57.8333,186.5 59.5,186.5C 59.5,182.5 59.5,178.5 59.5,174.5C 57.8333,174.5 56.1667,174.5 54.5,174.5C 58.8333,169.5 63.5,164.833 68.5,160.5 Z"/></g>
<g><path style="opacity:1" fill="#e3ac25" d="M 188.5,161.5 C 188.5,174.5 188.5,187.5 188.5,200.5C 186.833,200.5 185.167,200.5 183.5,200.5C 183.5,187.5 183.5,174.5 183.5,161.5C 185.167,161.5 186.833,161.5 188.5,161.5 Z"/></g>
<g><path style="opacity:1" fill="#c29128" d="M 188.5,160.5 C 188.5,160.833 188.5,161.167 188.5,161.5C 186.833,161.5 185.167,161.5 183.5,161.5C 183.5,174.5 183.5,187.5 183.5,200.5C 183.167,200.5 182.833,200.5 182.5,200.5C 182.5,187.167 182.5,173.833 182.5,160.5C 184.5,160.5 186.5,160.5 188.5,160.5 Z"/></g>
<g><path style="opacity:1" fill="#cba536" d="M 252.5,152.5 C 251.542,160.687 249.208,168.354 245.5,175.5C 247.096,169.206 248.596,162.873 250,156.5C 250.608,154.934 251.442,153.6 252.5,152.5 Z"/></g>
<g><path style="opacity:1" fill="#886125" d="M 188.5,160.5 C 195.298,166.797 201.965,173.297 208.5,180C 207.177,180.816 206.511,181.983 206.5,183.5C 204.738,184.262 203.738,185.596 203.5,187.5C 198.167,192.167 193.167,197.167 188.5,202.5C 185.689,204.089 183.689,203.423 182.5,200.5C 182.833,200.5 183.167,200.5 183.5,200.5C 185.167,200.5 186.833,200.5 188.5,200.5C 188.5,187.5 188.5,174.5 188.5,161.5C 188.5,161.167 188.5,160.833 188.5,160.5 Z"/></g>
<g><path style="opacity:1" fill="#f6d670" d="M 73.5,99.5 C 74.6621,117.662 74.8288,135.995 74,154.5C 71.9604,156.37 70.1271,158.37 68.5,160.5C 63.5,164.833 58.8333,169.5 54.5,174.5C 48.0781,178.04 48.0781,181.707 54.5,185.5C 54.5,185.833 54.5,186.167 54.5,186.5C 54.5,186.833 54.5,187.167 54.5,187.5C 51.5885,185.198 49.2552,182.364 47.5,179C 56,170.5 64.5,162 73,153.5C 73.4999,135.836 73.6666,118.17 73.5,100.5C 73.5,100.167 73.5,99.8333 73.5,99.5 Z"/></g>
<g><path style="opacity:1" fill="#5e441a" d="M 54.5,174.5 C 56.1667,174.5 57.8333,174.5 59.5,174.5C 59.5,178.5 59.5,182.5 59.5,186.5C 57.8333,186.5 56.1667,186.5 54.5,186.5C 54.5,186.167 54.5,185.833 54.5,185.5C 54.5,181.833 54.5,178.167 54.5,174.5 Z"/></g>
<g><path style="opacity:1" fill="#8c6324" d="M 54.5,174.5 C 54.5,178.167 54.5,181.833 54.5,185.5C 48.0781,181.707 48.0781,178.04 54.5,174.5 Z"/></g>
<g><path style="opacity:1" fill="#c19028" d="M 71.5,160.5 C 71.3335,170.172 71.5002,179.839 72,189.5C 71.9165,193.311 72.7499,196.645 74.5,199.5C 73.3281,200.705 71.9948,200.705 70.5,199.5C 70.1667,193 69.8333,186.5 69.5,180C 69.5034,173.131 70.17,166.631 71.5,160.5 Z"/></g>
<g><path style="opacity:1" fill="#c8a236" d="M 4.5,160.5 C 8.53345,169.584 12.2001,178.917 15.5,188.5C 10.196,179.879 6.52928,170.546 4.5,160.5 Z"/></g>
<g><path style="opacity:1" fill="#d8b873" d="M 33.5,182.5 C 32.5222,182.189 31.8555,181.522 31.5,180.5C 32.5244,179.148 33.5244,177.815 34.5,176.5C 36.7966,174.706 38.9633,172.706 41,170.5C 39.5926,173.945 37.2593,176.945 34,179.5C 33.5172,180.448 33.3505,181.448 33.5,182.5 Z"/></g>
<g><path style="opacity:1" fill="#936b2a" d="M 93.5,23.5 C 93.3253,25.6208 93.6586,27.6208 94.5,29.5C 92.7392,30.3127 91.0725,31.3127 89.5,32.5C 84.9136,33.4598 80.9136,35.4598 77.5,38.5C 73.9505,39.7232 70.9505,41.7232 68.5,44.5C 71.0089,43.1122 72.6755,43.9456 73.5,47C 71.9586,48.3712 70.6253,49.8712 69.5,51.5C 63.1667,55.8333 57.8333,61.1667 53.5,67.5C 51.7376,68.2623 50.7376,69.5956 50.5,71.5C 48.5541,72.2544 47.7207,73.5878 48,75.5C 56.3683,84.0357 64.8683,92.369 73.5,100.5C 73.6666,118.17 73.4999,135.836 73,153.5C 64.5,162 56,170.5 47.5,179C 49.2552,182.364 51.5885,185.198 54.5,187.5C 58.1667,193.167 62.8333,197.833 68.5,201.5C 71.429,204.636 74.7623,207.303 78.5,209.5C 77.7659,210.708 77.4326,212.041 77.5,213.5C 75.7839,213.371 74.1172,213.038 72.5,212.5C 75.0516,214.943 78.0516,216.61 81.5,217.5C 81.9731,218.906 82.9731,219.573 84.5,219.5C 83.791,220.404 82.791,220.737 81.5,220.5C 82.1083,225.944 81.4417,230.944 79.5,235.5C 66.1801,229.836 54.5134,221.836 44.5,211.5C 43.287,208.775 41.4536,206.441 39,204.5C 38.3333,200.833 38.3333,197.167 39,193.5C 39.7589,195.063 40.9256,196.063 42.5,196.5C 43.8333,197.5 45.1667,198.5 46.5,199.5C 45.5806,196.911 43.914,194.911 41.5,193.5C 39.984,190.467 37.984,187.8 35.5,185.5C 35.573,183.973 34.9063,182.973 33.5,182.5C 33.3505,181.448 33.5172,180.448 34,179.5C 37.2593,176.945 39.5926,173.945 41,170.5C 38.9633,172.706 36.7966,174.706 34.5,176.5C 33.6993,174.958 33.366,173.292 33.5,171.5C 33.3335,161.161 33.5002,150.828 34,140.5C 34.3333,150.5 34.6667,160.5 35,170.5C 35.3333,160.833 35.6667,151.167 36,141.5C 36.6667,177.5 37.3333,177.5 38,141.5C 38.3333,149.833 38.6667,158.167 39,166.5C 39.3333,158.833 39.6667,151.167 40,143.5C 40.3333,150.167 40.6667,156.833 41,163.5C 40.863,155.765 41.6963,148.432 43.5,141.5C 46.5525,142.777 49.3859,144.444 52,146.5C 52.6667,133.5 52.6667,120.5 52,107.5C 49.5524,108.973 47.0524,110.307 44.5,111.5C 43.5,111.5 42.5,111.5 41.5,111.5C 41.1694,104.137 41.5027,96.8032 42.5,89.5C 43.2975,89.9569 43.6309,90.6236 43.5,91.5C 43.3339,97.1764 43.5006,102.843 44,108.5C 44.3333,103.833 44.6667,99.1667 45,94.5C 45.1725,98.8711 45.6725,103.204 46.5,107.5C 47.8415,105.995 49.5082,105.328 51.5,105.5C 51.7681,101.917 51.1014,98.5836 49.5,95.5C 50.1667,95.5 50.5,95.1667 50.5,94.5C 51.5,95.1667 52.5,95.8333 53.5,96.5C 51.2343,92.5644 48.2343,89.2311 44.5,86.5C 41.8991,82.2294 38.5658,78.5628 34.5,75.5C 33.962,73.8828 33.6287,72.2161 33.5,70.5C 34.9063,70.0269 35.573,69.0269 35.5,67.5C 36.4333,64.6298 38.1,62.2964 40.5,60.5C 43.5725,58.4309 45.9059,55.7642 47.5,52.5C 49.8333,50.8333 51.8333,48.8333 53.5,46.5C 56.4274,45.2427 58.7607,43.2427 60.5,40.5C 65.1141,37.8827 69.4474,34.8827 73.5,31.5C 79.9519,28.2732 86.6186,25.6066 93.5,23.5 Z"/></g>
<g><path style="opacity:1" fill="#e3c162" d="M 44.5,178.5 C 43.8333,178.5 43.5,178.167 43.5,177.5C 47.1309,174.371 50.6309,171.037 54,167.5C 51.8685,171.817 48.7019,175.484 44.5,178.5 Z"/></g>
<g><path style="opacity:1" fill="#e7c680" d="M 61.5,149.5 C 56.2627,156.243 50.4294,162.577 44,168.5C 48.8168,161.505 54.6502,155.171 61.5,149.5 Z"/></g>
<g><path style="opacity:1" fill="#b3924e" d="M 45.5,145.5 C 46.7498,145.577 47.5831,146.244 48,147.5C 48.6667,151.167 48.6667,154.833 48,158.5C 47.586,158.957 47.086,159.291 46.5,159.5C 45.5067,154.88 45.1734,150.214 45.5,145.5 Z"/></g>
<g><path style="opacity:1" fill="#f3d48d" d="M 53.5,96.5 C 56.4172,98.9123 59.2506,101.579 62,104.5C 62.8277,119.672 62.6611,134.672 61.5,149.5C 61.6666,134.83 61.4999,120.163 61,105.5C 57.8883,102.899 55.3883,99.8991 53.5,96.5 Z"/></g>
<g><path style="opacity:1" fill="#dfb95d" d="M 56.5,88.5 C 61.1312,92.6299 65.6312,96.9633 70,101.5C 70.6667,118.5 70.6667,135.5 70,152.5C 66,156.5 62,160.5 58,164.5C 57.3333,163.833 57.3333,163.167 58,162.5C 61.3333,159.167 64.6667,155.833 68,152.5C 68.6667,135.5 68.6667,118.5 68,101.5C 63.5642,97.5724 59.7308,93.2391 56.5,88.5 Z"/></g>
<g><path style="opacity:1" fill="#b69651" d="M 43.5,91.5 C 45.5082,92.8363 47.5082,94.1696 49.5,95.5C 51.1014,98.5836 51.7681,101.917 51.5,105.5C 49.5082,105.328 47.8415,105.995 46.5,107.5C 45.6725,103.204 45.1725,98.8711 45,94.5C 44.6667,99.1667 44.3333,103.833 44,108.5C 43.5006,102.843 43.3339,97.1764 43.5,91.5 Z"/></g>
<g><path style="opacity:1" fill="#e7c665" d="M 45.5,78.5 C 45.8966,77.475 46.5632,77.3083 47.5,78C 50.5968,80.3906 52.7635,83.224 54,86.5C 51.2972,83.6286 48.4639,80.9619 45.5,78.5 Z"/></g>
<g><path style="opacity:1" fill="#d5b51f" d="M 39.5,69.5 C 44.1585,69.0146 45.4919,70.848 43.5,75C 39.2662,75.267 37.9329,73.4336 39.5,69.5 Z"/></g>
<g><path style="opacity:1" fill="#e0c07a" d="M 63.5,48.5 C 57.8695,54.6314 52.0362,60.6314 46,66.5C 45.3333,65.8333 45.3333,65.1667 46,64.5C 51.4242,58.5694 57.2575,53.2361 63.5,48.5 Z"/></g>
<g><path style="opacity:1" fill="#e6c67f" d="M 68.5,44.5 C 67.4154,46.5869 65.7488,47.9202 63.5,48.5C 64.5846,46.4131 66.2512,45.0798 68.5,44.5 Z"/></g>
<g><path style="opacity:1" fill="#c89528" d="M 190.5,168.5 C 192.167,168.5 193.833,168.5 195.5,168.5C 195.5,176.5 195.5,184.5 195.5,192.5C 193.833,192.5 192.167,192.5 190.5,192.5C 190.5,184.5 190.5,176.5 190.5,168.5 Z"/></g>
<g><path style="opacity:1" fill="#d3b31f" d="M 43.5,177.5 C 43.5,178.167 43.8333,178.5 44.5,178.5C 45.2634,182.138 43.9301,183.638 40.5,183C 37.4133,179.118 38.4133,177.284 43.5,177.5 Z"/></g>
<g><path style="opacity:1" fill="#eccb84" d="M 33.5,182.5 C 34.9063,182.973 35.573,183.973 35.5,185.5C 34.0937,185.027 33.427,184.027 33.5,182.5 Z"/></g>
<g><path style="opacity:1" fill="#875e23" d="M 204.5,160.5 C 207.833,163.5 211.167,166.5 214.5,169.5C 215.833,169.5 216.5,170.167 216.5,171.5C 218.557,175.067 221.223,178.234 224.5,181C 222.432,183.642 220.765,186.475 219.5,189.5C 217.738,190.262 216.738,191.596 216.5,193.5C 214.086,194.911 212.419,196.911 211.5,199.5C 206.5,203.833 201.833,208.5 197.5,213.5C 195.983,213.511 194.816,214.177 194,215.5C 193.667,213.5 193.333,211.5 193,209.5C 192.329,210.252 191.496,210.586 190.5,210.5C 191.167,209.5 191.833,208.5 192.5,207.5C 190.596,207.738 189.262,208.738 188.5,210.5C 185.833,211.833 183.167,213.167 180.5,214.5C 179.814,213.152 178.814,211.985 177.5,211C 179.093,210.051 180.426,208.885 181.5,207.5C 184.37,206.567 186.704,204.9 188.5,202.5C 194.5,198.5 199.5,193.5 203.5,187.5C 205.262,186.738 206.262,185.404 206.5,183.5C 208.914,182.594 209.747,180.928 209,178.5C 205.296,174.964 201.796,171.298 198.5,167.5C 199.833,167.5 201.167,167.5 202.5,167.5C 205.434,171.773 208.767,175.773 212.5,179.5C 212.408,183.071 214.074,184.238 217.5,183C 219.413,178.415 218.079,176.915 213.5,178.5C 210.5,175.167 207.5,171.833 204.5,168.5C 205.714,165.871 205.714,163.204 204.5,160.5 Z"/></g>
<g><path style="opacity:1" fill="#d2b120" d="M 212.5,179.5 C 213.167,179.5 213.5,179.167 213.5,178.5C 218.079,176.915 219.413,178.415 217.5,183C 214.074,184.238 212.408,183.071 212.5,179.5 Z"/></g>
<g><path style="opacity:1" fill="#e5c463" d="M 202.5,167.5 C 203.167,167.833 203.833,168.167 204.5,168.5C 207.5,171.833 210.5,175.167 213.5,178.5C 213.5,179.167 213.167,179.5 212.5,179.5C 208.767,175.773 205.434,171.773 202.5,167.5 Z"/></g>
<g><path style="opacity:1" fill="#f0cf6a" d="M 206.5,183.5 C 206.262,185.404 205.262,186.738 203.5,187.5C 203.738,185.596 204.738,184.262 206.5,183.5 Z"/></g>
<g><path style="opacity:1" fill="#e3c47e" d="M 216.5,171.5 C 220.012,174.178 223.012,177.345 225.5,181C 224.098,184.322 222.098,187.155 219.5,189.5C 220.765,186.475 222.432,183.642 224.5,181C 221.223,178.234 218.557,175.067 216.5,171.5 Z"/></g>
<g><path style="opacity:1" fill="#e4c57f" d="M 35.5,185.5 C 37.984,187.8 39.984,190.467 41.5,193.5C 38.5293,191.557 36.5293,188.891 35.5,185.5 Z"/></g>
<g><path style="opacity:1" fill="#dea626" d="M 71.5,160.5 C 72.5,160.5 73.5,160.5 74.5,160.5C 74.5,173.5 74.5,186.5 74.5,199.5C 72.7499,196.645 71.9165,193.311 72,189.5C 71.5002,179.839 71.3335,170.172 71.5,160.5 Z"/></g>
<g><path style="opacity:1" fill="#ecca67" d="M 49.5,190.5 C 47.6614,189.492 46.3281,187.992 45.5,186C 47.5827,186.559 48.916,188.059 49.5,190.5 Z"/></g>
<g><path style="opacity:1" fill="#e4c365" d="M 208.5,190.5 C 208.685,188.804 209.519,187.471 211,186.5C 211.279,188.412 210.446,189.746 208.5,190.5 Z"/></g>
<g><path style="opacity:1" fill="#efcb68" d="M 54.5,187.5 C 58.8333,191.5 63.1667,195.5 67.5,199.5C 67.8333,200.167 68.1667,200.833 68.5,201.5C 62.8333,197.833 58.1667,193.167 54.5,187.5 Z"/></g>
<g><path style="opacity:1" fill="#e7c780" d="M 219.5,189.5 C 219.262,191.404 218.262,192.738 216.5,193.5C 216.738,191.596 217.738,190.262 219.5,189.5 Z"/></g>
<g><path style="opacity:1" fill="#edcd69" d="M 49.5,190.5 C 51.5869,191.585 52.9202,193.251 53.5,195.5C 51.4131,194.415 50.0798,192.749 49.5,190.5 Z"/></g>
<g><path style="opacity:1" fill="#eac867" d="M 208.5,190.5 C 207.92,192.749 206.587,194.415 204.5,195.5C 205.08,193.251 206.413,191.585 208.5,190.5 Z"/></g>
<g><path style="opacity:1" fill="#c29a36" d="M 242.5,182.5 C 239.685,189.958 235.685,196.625 230.5,202.5C 234.11,195.566 238.11,188.9 242.5,182.5 Z"/></g>
<g><path style="opacity:1" fill="#e5c57e" d="M 41.5,193.5 C 43.914,194.911 45.5806,196.911 46.5,199.5C 45.1667,198.5 43.8333,197.5 42.5,196.5C 41.8902,195.609 41.5569,194.609 41.5,193.5 Z"/></g>
<g><path style="opacity:1" fill="#ecc967" d="M 203.5,187.5 C 199.5,193.5 194.5,198.5 188.5,202.5C 193.167,197.167 198.167,192.167 203.5,187.5 Z"/></g>
<g><path style="opacity:1" fill="#e7c781" d="M 216.5,193.5 C 215.581,196.089 213.914,198.089 211.5,199.5C 212.419,196.911 214.086,194.911 216.5,193.5 Z"/></g>
<g><path style="opacity:1" fill="#edca67" d="M 53.5,195.5 C 57.5,198.833 61.1667,202.5 64.5,206.5C 59.8333,203.833 56.1667,200.167 53.5,195.5 Z"/></g>
<g><path style="opacity:1" fill="#e5c162" d="M 204.5,195.5 C 201.5,200.5 197.5,204.5 192.5,207.5C 196.167,203.167 200.167,199.167 204.5,195.5 Z"/></g>
<g><path style="opacity:1" fill="#e6c57f" d="M 46.5,199.5 C 51.1667,203.5 55.5,207.833 59.5,212.5C 54.1667,209.167 49.8333,204.833 46.5,199.5 Z"/></g>
<g><path style="opacity:1" fill="#eac967" d="M 64.5,206.5 C 66.7488,207.08 68.4154,208.413 69.5,210.5C 67.2512,209.92 65.5846,208.587 64.5,206.5 Z"/></g>
<g><path style="opacity:1" fill="#e0bf78" d="M 211.5,199.5 C 207.895,204.774 203.562,209.441 198.5,213.5C 198.167,213.5 197.833,213.5 197.5,213.5C 201.833,208.5 206.5,203.833 211.5,199.5 Z"/></g>
<g><path style="opacity:1" fill="#f3d06c" d="M 192.5,207.5 C 191.833,208.5 191.167,209.5 190.5,210.5C 189.833,210.5 189.167,210.5 188.5,210.5C 189.262,208.738 190.596,207.738 192.5,207.5 Z"/></g>
<g><path style="opacity:1" fill="#ebc866" d="M 68.5,201.5 C 74.1777,205.341 80.1777,208.674 86.5,211.5C 88.8333,212.833 91.1667,214.167 93.5,215.5C 93.5654,215.938 93.3988,216.272 93,216.5C 88.0947,214.297 83.2614,211.964 78.5,209.5C 74.7623,207.303 71.429,204.636 68.5,201.5 Z"/></g>
<g><path style="opacity:1" fill="#f2d16c" d="M 69.5,210.5 C 71.0269,210.427 72.0269,211.094 72.5,212.5C 70.9731,212.573 69.9731,211.906 69.5,210.5 Z"/></g>
<g><path style="opacity:1" fill="#ad812a" d="M 99.5,142.5 C 99.5,166.167 99.5,189.833 99.5,213.5C 101.167,213.5 102.833,213.5 104.5,213.5C 103.898,223.76 104.564,233.76 106.5,243.5C 101.808,243.575 97.4742,242.575 93.5,240.5C 93.5249,232.226 93.5249,223.893 93.5,215.5C 91.1667,214.167 88.8333,212.833 86.5,211.5C 86.3893,210.883 86.056,210.383 85.5,210C 86.4158,209.722 87.0825,209.222 87.5,208.5C 88.1667,208.5 88.8333,208.5 89.5,208.5C 90.1667,186.663 90.8333,164.663 91.5,142.5C 92.4997,165.824 92.8331,189.157 92.5,212.5C 94.1667,212.5 95.8333,212.5 97.5,212.5C 96.8435,188.809 97.5101,165.476 99.5,142.5 Z"/></g>
<g><path style="opacity:1" fill="#c29129" d="M 113.5,134.5 C 113.5,136.833 113.5,139.167 113.5,141.5C 120.5,141.5 127.5,141.5 134.5,141.5C 134.5,141.833 134.5,142.167 134.5,142.5C 132.833,142.5 131.167,142.5 129.5,142.5C 128.833,166.167 128.167,189.833 127.5,213.5C 127.5,189.833 127.5,166.167 127.5,142.5C 125.833,142.5 124.167,142.5 122.5,142.5C 121.833,142.5 121.167,142.5 120.5,142.5C 118.833,142.5 117.167,142.5 115.5,142.5C 115.5,166.167 115.5,189.833 115.5,213.5C 114.508,213.328 113.842,213.662 113.5,214.5C 112.883,214.611 112.383,214.944 112,215.5C 111.194,225.244 111.361,234.911 112.5,244.5C 110.265,244.795 108.265,244.461 106.5,243.5C 104.564,233.76 103.898,223.76 104.5,213.5C 104.5,189.833 104.5,166.167 104.5,142.5C 105.5,142.5 106.5,142.5 107.5,142.5C 106.843,166.524 107.51,190.19 109.5,213.5C 110.5,213.5 111.5,213.5 112.5,213.5C 112.169,186.995 112.502,160.661 113.5,134.5 Z"/></g>
<g><path style="opacity:1" fill="#b07c1a" d="M 122.5,142.5 C 124.167,142.5 125.833,142.5 127.5,142.5C 127.5,166.167 127.5,189.833 127.5,213.5C 125.833,213.5 124.167,213.5 122.5,213.5C 122.5,189.833 122.5,166.167 122.5,142.5 Z"/></g>
<g><path style="opacity:1" fill="#b17d1b" d="M 120.5,142.5 C 120.5,166.167 120.5,189.833 120.5,213.5C 118.833,213.5 117.167,213.5 115.5,213.5C 115.5,189.833 115.5,166.167 115.5,142.5C 117.167,142.5 118.833,142.5 120.5,142.5 Z"/></g>
<g><path style="opacity:1" fill="#e4c47e" d="M 59.5,212.5 C 62.0892,213.419 64.0892,215.086 65.5,217.5C 62.9108,216.581 60.9108,214.914 59.5,212.5 Z"/></g>
<g><path style="opacity:1" fill="#cc9827" d="M 113.5,214.5 C 114.353,218.02 116.353,220.687 119.5,222.5C 121.403,226.395 120.403,229.562 116.5,232C 124.5,232.667 132.5,232.667 140.5,232C 139.271,230.471 137.771,229.304 136,228.5C 135.316,227.216 135.483,226.049 136.5,225C 134.009,224.741 131.509,224.907 129,225.5C 126.747,225.369 124.581,224.869 122.5,224C 127.684,223.826 132.684,223.326 137.5,222.5C 141.236,221.095 143.569,218.429 144.5,214.5C 145.5,214.5 146.5,214.5 147.5,214.5C 147.173,224.348 147.506,234.014 148.5,243.5C 144.057,244.801 139.391,245.468 134.5,245.5C 135.341,243.621 135.675,241.621 135.5,239.5C 137.415,239.784 139.081,239.451 140.5,238.5C 142.099,238.768 143.432,238.434 144.5,237.5C 144.672,236.508 144.338,235.842 143.5,235.5C 143.389,234.883 143.056,234.383 142.5,234C 133.167,233.333 123.833,233.333 114.5,234C 113.944,234.383 113.611,234.883 113.5,235.5C 113.5,235.833 113.5,236.167 113.5,236.5C 112.167,237.167 112.167,237.833 113.5,238.5C 114.209,239.404 115.209,239.737 116.5,239.5C 116.5,241.5 116.5,243.5 116.5,245.5C 115.041,245.567 113.708,245.234 112.5,244.5C 111.361,234.911 111.194,225.244 112,215.5C 112.383,214.944 112.883,214.611 113.5,214.5 Z"/></g>
<g><path style="opacity:1" fill="#a3792b" d="M 78.5,209.5 C 83.2614,211.964 88.0947,214.297 93,216.5C 93.3988,216.272 93.5654,215.938 93.5,215.5C 93.5249,223.893 93.5249,232.226 93.5,240.5C 88.466,239.602 83.7994,237.935 79.5,235.5C 81.4417,230.944 82.1083,225.944 81.5,220.5C 82.791,220.737 83.791,220.404 84.5,219.5C 86.0295,220.067 87.5295,220.733 89,221.5C 89.1667,221.167 89.3333,220.833 89.5,220.5C 87.0293,218.929 84.3626,217.929 81.5,217.5C 78.0516,216.61 75.0516,214.943 72.5,212.5C 74.1172,213.038 75.7839,213.371 77.5,213.5C 77.4326,212.041 77.7659,210.708 78.5,209.5 Z"/></g>
<g><path style="opacity:1" fill="#d4bd26" d="M 113.5,214.5 C 118.833,214.5 124.167,214.5 129.5,214.5C 131.167,214.5 132.833,214.5 134.5,214.5C 137.833,214.5 141.167,214.5 144.5,214.5C 143.569,218.429 141.236,221.095 137.5,222.5C 131.5,222.5 125.5,222.5 119.5,222.5C 116.353,220.687 114.353,218.02 113.5,214.5 Z"/></g>
<g><path style="opacity:1" fill="#e3c27c" d="M 65.5,217.5 C 68.6067,218.889 71.6067,220.555 74.5,222.5C 75.521,223.002 75.6877,223.668 75,224.5C 71.369,222.689 68.2024,220.356 65.5,217.5 Z"/></g>
<g><path style="opacity:1" fill="#eccb68" d="M 188.5,210.5 C 185.743,213.579 182.41,215.912 178.5,217.5C 176.703,218.73 174.703,219.396 172.5,219.5C 175.167,217.833 177.833,216.167 180.5,214.5C 183.167,213.167 185.833,211.833 188.5,210.5 Z"/></g>
<g><path style="opacity:1" fill="#e8c564" d="M 81.5,217.5 C 84.3626,217.929 87.0293,218.929 89.5,220.5C 89.3333,220.833 89.1667,221.167 89,221.5C 87.5295,220.733 86.0295,220.067 84.5,219.5C 82.9731,219.573 81.9731,218.906 81.5,217.5 Z"/></g>
<g><path style="opacity:1" fill="#a37829" d="M 172.5,219.5 C 174.703,219.396 176.703,218.73 178.5,217.5C 179.449,222.74 179.782,228.073 179.5,233.5C 174.003,236.907 168.003,239.241 161.5,240.5C 161.783,239.711 162.283,239.044 163,238.5C 163.596,230.755 163.596,223.089 163,215.5C 165.446,217.062 167.446,219.062 169,221.5C 170.459,221.192 171.626,220.525 172.5,219.5 Z"/></g>
<g><path style="opacity:1" fill="#936a2a" d="M 197.5,213.5 C 197.833,213.5 198.167,213.5 198.5,213.5C 199.065,215.952 199.732,218.285 200.5,220.5C 194.3,226.014 187.3,230.347 179.5,233.5C 179.782,228.073 179.449,222.74 178.5,217.5C 182.41,215.912 185.743,213.579 188.5,210.5C 189.167,210.5 189.833,210.5 190.5,210.5C 191.496,210.586 192.329,210.252 193,209.5C 193.333,211.5 193.667,213.5 194,215.5C 194.816,214.177 195.983,213.511 197.5,213.5 Z"/></g>
<g><path style="opacity:1" fill="#be963b" d="M 212.5,222.5 C 211.167,224.5 209.5,226.167 207.5,227.5C 208.167,224.833 209.833,223.167 212.5,222.5 Z"/></g>
<g><path style="opacity:1" fill="#e1aa25" d="M 119.5,222.5 C 125.5,222.5 131.5,222.5 137.5,222.5C 132.684,223.326 127.684,223.826 122.5,224C 124.581,224.869 126.747,225.369 129,225.5C 131.509,224.907 134.009,224.741 136.5,225C 135.483,226.049 135.316,227.216 136,228.5C 137.771,229.304 139.271,230.471 140.5,232C 132.5,232.667 124.5,232.667 116.5,232C 120.403,229.562 121.403,226.395 119.5,222.5 Z"/></g>
<g><path style="opacity:1" fill="#946c25" d="M 143.5,235.5 C 133.5,235.5 123.5,235.5 113.5,235.5C 113.611,234.883 113.944,234.383 114.5,234C 123.833,233.333 133.167,233.333 142.5,234C 143.056,234.383 143.389,234.883 143.5,235.5 Z"/></g>
<g><path style="opacity:1" fill="#c59e38" d="M 202.5,230.5 C 194.593,237.291 185.593,242.291 175.5,245.5C 177.253,243.777 179.253,242.277 181.5,241C 188.855,238.128 195.855,234.628 202.5,230.5 Z"/></g>
<g><path style="opacity:1" fill="#5f441b" d="M 113.5,235.5 C 123.5,235.5 133.5,235.5 143.5,235.5C 144.338,235.842 144.672,236.508 144.5,237.5C 133.986,237.828 123.653,237.494 113.5,236.5C 113.5,236.167 113.5,235.833 113.5,235.5 Z"/></g>
<g><path style="opacity:1" fill="#c7a13d" d="M 58.5,234.5 C 59.8734,234.343 61.2068,234.51 62.5,235C 92.8787,254.118 125.545,259.285 160.5,250.5C 152.957,252.808 145.291,254.475 137.5,255.5C 129.5,255.5 121.5,255.5 113.5,255.5C 102.716,253.635 92.0497,250.802 81.5,247C 73.1633,243.836 65.4966,239.669 58.5,234.5 Z"/></g>
<g><path style="opacity:1" fill="#9c7122" d="M 113.5,236.5 C 123.653,237.494 133.986,237.828 144.5,237.5C 143.432,238.434 142.099,238.768 140.5,238.5C 131.5,238.5 122.5,238.5 113.5,238.5C 112.167,237.833 112.167,237.167 113.5,236.5 Z"/></g>
<g><path style="opacity:1" fill="#dba426" d="M 113.5,238.5 C 122.5,238.5 131.5,238.5 140.5,238.5C 139.081,239.451 137.415,239.784 135.5,239.5C 135.675,241.621 135.341,243.621 134.5,245.5C 128.5,245.5 122.5,245.5 116.5,245.5C 116.5,243.5 116.5,241.5 116.5,239.5C 115.209,239.737 114.209,239.404 113.5,238.5 Z"/></g>
<g><path style="opacity:1" fill="#c7a035" d="M 175.5,245.5 C 170.915,248.14 165.915,249.806 160.5,250.5C 165.085,247.86 170.085,246.194 175.5,245.5 Z"/></g>
</svg>
