<svg xmlns="http://www.w3.org/2000/svg" width="320" height="320" viewBox="0 0 320 320" version="1.1">
	<path fill-opacity="0.216" d="M 153.680 66.250 C 145.872 76.271, 134.313 92.532, 132.442 96.128 C 131.093 98.721, 131.171 98.820, 138.287 103.539 C 177.658 129.643, 200.195 158.856, 203.883 188.564 C 207.169 215.030, 194.013 241.401, 172.113 252.246 C 168.601 253.986, 166.262 255.587, 166.917 255.806 C 169.289 256.596, 184.736 250.970, 190.547 247.199 C 204.355 238.239, 214.996 222.394, 218.552 205.500 C 220.709 195.252, 220.701 179.096, 218.534 167.533 C 214.596 146.517, 202.683 117.729, 188.706 95.451 C 181.527 84.009, 162.264 58, 160.968 58 C 160.495 58, 157.216 61.712, 153.680 66.250 M 73.557 77.250 C 73.348 77.938, 72.438 83.995, 71.534 90.711 C 65.124 138.346, 69.439 181.408, 83.583 210.950 C 100.792 246.895, 132.590 262.979, 164.641 251.952 C 188.374 243.786, 204.860 215.291, 200.944 189.203 C 197.822 168.401, 187.627 150.628, 167.822 131.460 C 146.776 111.090, 122.763 95.806, 90.186 82.044 C 82.317 78.720, 75.442 76, 74.908 76 C 74.374 76, 73.766 76.563, 73.557 77.250 M 226 83.404 C 213.202 89.034, 199.482 95.772, 195.251 98.504 C 195.113 98.593, 198.547 105.712, 202.880 114.324 C 212.844 134.127, 218.878 151.884, 222.556 172.235 C 223.354 176.648, 223.353 197.647, 222.554 202 C 220.525 213.065, 217.122 222.118, 211.774 230.675 C 207.511 237.497, 197.467 247.411, 191.712 250.477 C 187.998 252.456, 186.450 254.844, 189.750 253.503 C 190.713 253.112, 192.717 252.426, 194.205 251.979 C 204.881 248.769, 220.513 236.013, 228.509 223.986 C 248.140 194.457, 255.161 147.414, 248.056 93 C 246.943 84.475, 246.025 77.162, 246.016 76.750 C 245.980 75.072, 241.724 76.487, 226 83.404" stroke="none" fill="black" fill-rule="evenodd"/>
	<path fill-opacity="0.280" d="M 149.350 72.745 C 138.840 86.929, 132 96.998, 132 98.286 C 132 98.622, 135.488 101.231, 139.750 104.083 C 166.698 122.116, 184.561 140.384, 195.313 160.906 C 202.483 174.592, 204.416 182.245, 204.427 197 C 204.436 208.381, 204.166 210.265, 201.409 218.044 C 199.743 222.743, 196.695 229.128, 194.634 232.232 C 190.006 239.205, 179.505 249.153, 173.215 252.524 C 168.607 254.993, 168.580 255.036, 172 254.404 C 188.356 251.380, 203.979 238.938, 212.058 222.500 C 218.217 209.969, 219.469 203.843, 219.420 186.500 C 219.385 174.317, 218.942 169.716, 217.059 162 C 211.263 138.246, 199.802 112.762, 184.677 90 C 178.781 81.125, 163.524 60.680, 161.618 59.098 C 160.564 58.223, 157.988 61.090, 149.350 72.745 M 73.609 79.270 C 73.272 81.068, 72.097 90.405, 70.998 100.018 C 65.995 143.785, 71.007 185.087, 84.621 212.283 C 103.127 249.253, 138.393 264.323, 170.520 248.991 C 187.830 240.729, 201 218.243, 201 196.950 C 201 173.814, 186.691 147.810, 162.128 126.306 C 147.880 113.833, 127.684 100.316, 110.339 91.644 C 103.885 88.418, 75.515 76, 74.598 76 C 74.391 76, 73.947 77.471, 73.609 79.270 M 232.496 81.056 C 218.774 86.694, 196 97.886, 196 98.990 C 196 99.398, 198.852 105.317, 202.337 112.143 C 217.863 142.551, 225.131 170.159, 223.638 193.061 C 221.936 219.165, 211.451 238.326, 192 250.871 C 189.134 252.720, 188.953 253.012, 191 252.483 C 192.375 252.129, 196.650 250.351, 200.500 248.532 C 224.081 237.397, 239.683 211.868, 247.252 172.033 C 250.287 156.064, 250.486 112.577, 247.619 92 C 246.584 84.575, 245.457 77.966, 245.115 77.314 C 244.677 76.480, 240.928 77.591, 232.496 81.056" stroke="none" fill="black" fill-rule="evenodd"/>
	<path fill-opacity="0.799" d="M 150.171 72.250 C 144.711 79.537, 138.394 88.374, 136.133 91.887 L 132.023 98.274 140.954 104.387 C 173.958 126.980, 194.492 150.946, 201.914 175.535 C 210.759 204.839, 201.170 234.369, 177.726 250.024 C 172.896 253.250, 172.195 254.001, 174.522 253.461 C 176.160 253.081, 180.875 251.180, 185 249.238 C 199.104 242.597, 211.486 227.525, 216.415 210.998 C 226.973 175.598, 210.049 123.387, 171.335 71.933 C 165.983 64.820, 161.266 59, 160.852 59 C 160.438 59, 155.632 64.963, 150.171 72.250 M 74 78.314 C 74 79.036, 73.317 84.774, 72.482 91.064 C 64.807 148.870, 72.623 197.978, 94.142 227.157 C 107.099 244.726, 124.933 254.217, 145 254.221 C 166.455 254.226, 183.430 244.072, 193.219 225.379 C 198.610 215.083, 200.391 208.008, 200.361 197 C 200.332 186.114, 198.464 178.058, 193.449 167.192 C 181.385 141.052, 152.820 114.635, 114.996 94.640 C 105.018 89.365, 76.939 77, 74.939 77 C 74.423 77, 74 77.591, 74 78.314 M 226 84.325 C 216.925 88.291, 206.493 93.221, 202.818 95.279 L 196.136 99.022 203.995 114.761 C 217.752 142.312, 224 164.898, 224 187.078 C 224 202.675, 222.035 212.104, 216.316 223.958 C 212.611 231.637, 210.318 234.848, 204.126 241.027 C 199.932 245.212, 195.375 249.392, 194 250.314 C 192.606 251.249, 194.154 250.872, 197.500 249.462 C 223.810 238.373, 241.284 209.320, 247.697 166 C 250.051 150.100, 250.044 114.284, 247.682 96.500 C 245.337 78.834, 244.954 76.991, 243.639 77.056 C 243.012 77.087, 235.075 80.358, 226 84.325" stroke="none" fill="black" fill-rule="evenodd"/>
	<path fill-opacity="0.931" d="M 154.445 66.750 C 151.257 71.013, 147.549 75.963, 146.205 77.750 C 144.862 79.537, 143.998 81, 144.285 81 C 144.573 81, 148.311 76.290, 152.592 70.534 C 158.537 62.541, 160.679 60.319, 161.654 61.128 C 162.356 61.711, 166.593 67.095, 171.070 73.094 C 175.546 79.092, 179.426 84, 179.691 84 C 180.204 84, 178.339 81.395, 168 67.670 C 164.425 62.924, 161.217 59.032, 160.871 59.020 C 160.525 59.009, 157.634 62.487, 154.445 66.750 M 239.500 78.945 C 234.711 81.211, 235.287 81.614, 240.313 79.514 C 243.859 78.032, 243.871 78.036, 244.285 80.764 C 244.669 83.294, 244.712 83.255, 244.850 80.250 C 245.024 76.479, 244.818 76.429, 239.500 78.945 M 78 79 C 78.825 79.533, 79.950 79.969, 80.500 79.969 C 81.050 79.969, 80.825 79.533, 80 79 C 79.175 78.467, 78.050 78.031, 77.500 78.031 C 76.950 78.031, 77.175 78.467, 78 79 M 73.533 85.533 C 73.143 89.177, 73.034 92.367, 73.291 92.624 C 73.547 92.881, 74.077 90.110, 74.467 86.467 C 74.857 82.823, 74.966 79.633, 74.709 79.376 C 74.453 79.119, 73.923 81.890, 73.533 85.533 M 83 81 C 83.825 81.533, 84.950 81.969, 85.500 81.969 C 86.050 81.969, 85.825 81.533, 85 81 C 84.175 80.467, 83.050 80.031, 82.500 80.031 C 81.950 80.031, 82.175 80.467, 83 81 M 232 82 C 231.175 82.533, 230.950 82.969, 231.500 82.969 C 232.050 82.969, 233.175 82.533, 234 82 C 234.825 81.467, 235.050 81.031, 234.500 81.031 C 233.950 81.031, 232.825 81.467, 232 82 M 93.886 85.516 C 97.948 87.466, 101.446 88.887, 101.661 88.673 C 101.875 88.458, 99.226 87.048, 95.775 85.538 C 86.485 81.473, 85.442 81.461, 93.886 85.516 M 141.872 83.750 C 140.629 85.336, 140.664 85.371, 142.250 84.128 C 143.213 83.373, 144 82.585, 144 82.378 C 144 81.555, 143.179 82.084, 141.872 83.750 M 226 84.500 C 224.625 85.286, 223.950 85.929, 224.500 85.929 C 225.050 85.929, 226.625 85.286, 228 84.500 C 229.375 83.714, 230.050 83.071, 229.500 83.071 C 228.950 83.071, 227.375 83.714, 226 84.500 M 245.195 86.500 C 245.215 88.150, 245.439 88.704, 245.693 87.731 C 245.947 86.758, 245.930 85.408, 245.656 84.731 C 245.382 84.054, 245.175 84.850, 245.195 86.500 M 181.511 87.377 C 182.457 88.820, 183.419 90, 183.650 90 C 184.374 90, 182.045 86.146, 180.891 85.433 C 180.287 85.059, 180.566 85.934, 181.511 87.377 M 216 89 C 214.075 90.054, 212.950 90.916, 213.500 90.916 C 214.050 90.916, 216.075 90.054, 218 89 C 219.925 87.946, 221.050 87.084, 220.500 87.084 C 219.950 87.084, 217.925 87.946, 216 89 M 105.083 90.380 C 106.103 91.309, 116 95.982, 116 95.534 C 116 94.970, 106.450 90, 105.367 90 C 104.982 90, 104.854 90.171, 105.083 90.380 M 246.252 94.500 C 246.263 96.700, 246.468 97.482, 246.707 96.238 C 246.946 94.994, 246.937 93.194, 246.687 92.238 C 246.437 91.282, 246.241 92.300, 246.252 94.500 M 134.168 95.204 C 131.917 98.759, 131.763 98.502, 138.500 102.452 C 140.947 103.887, 141.131 103.907, 139.500 102.562 C 138.400 101.655, 136.600 100.307, 135.500 99.566 C 133.550 98.252, 133.545 98.141, 135.307 95.109 C 137.685 91.015, 136.771 91.092, 134.168 95.204 M 72.252 97.500 C 72.263 99.700, 72.468 100.482, 72.707 99.238 C 72.946 97.994, 72.937 96.194, 72.687 95.238 C 72.437 94.282, 72.241 95.300, 72.252 97.500 M 187 96 C 187.589 97.100, 188.295 98, 188.570 98 C 188.845 98, 188.589 97.100, 188 96 C 187.411 94.900, 186.705 94, 186.430 94 C 186.155 94, 186.411 94.900, 187 96 M 200.815 96.533 L 196.130 98.972 202.815 111.895 C 206.492 119.002, 209.662 124.659, 209.860 124.465 C 210.058 124.271, 207.295 118.509, 203.720 111.659 L 197.219 99.205 201.158 97.429 C 203.324 96.452, 205.326 95.281, 205.607 94.826 C 206.304 93.700, 206.151 93.754, 200.815 96.533 M 117 96.337 C 117 96.597, 119.588 98.267, 122.750 100.050 C 125.912 101.832, 129.625 103.954, 131 104.764 L 133.500 106.237 131.177 104.310 C 128.517 102.102, 117 95.625, 117 96.337 M 196.766 113.660 C 201.020 121.998, 204.649 128.675, 204.830 128.497 C 205.269 128.067, 192.527 103.061, 190.564 100.500 C 189.721 99.400, 192.512 105.322, 196.766 113.660 M 247.252 103.500 C 247.263 105.700, 247.468 106.482, 247.707 105.238 C 247.946 103.994, 247.937 102.194, 247.687 101.238 C 247.437 100.282, 247.241 101.300, 247.252 103.500 M 71.195 105.500 C 71.215 107.150, 71.439 107.704, 71.693 106.731 C 71.947 105.758, 71.930 104.408, 71.656 103.731 C 71.382 103.054, 71.175 103.850, 71.195 105.500 M 142 104.313 C 142 104.556, 145.262 107.132, 149.250 110.039 C 153.238 112.946, 155.935 114.639, 155.245 113.803 C 153.844 112.107, 142 103.620, 142 104.313 M 137 108.350 C 137 108.581, 138.180 109.543, 139.623 110.489 C 141.066 111.434, 141.941 111.713, 141.567 111.109 C 140.854 109.955, 137 107.626, 137 108.350 M 248.343 116.500 C 248.346 120.900, 248.522 122.576, 248.733 120.224 C 248.945 117.872, 248.942 114.272, 248.727 112.224 C 248.512 110.176, 248.339 112.100, 248.343 116.500 M 70.420 131.500 C 70.419 142.500, 70.565 147.136, 70.745 141.803 C 70.924 136.470, 70.925 127.470, 70.746 121.803 C 70.568 116.136, 70.421 120.500, 70.420 131.500 M 143 112.318 C 143 112.561, 145.588 114.701, 148.750 117.075 C 151.912 119.448, 153.958 120.718, 153.295 119.897 C 151.937 118.214, 143 111.635, 143 112.318 M 158 116.141 C 158.825 116.966, 164.900 122.769, 171.500 129.037 C 181.827 138.844, 182.315 139.208, 175 131.644 C 170.325 126.809, 164.250 121.006, 161.500 118.747 C 158.750 116.488, 157.175 115.315, 158 116.141 M 167.083 133 C 173.967 139.875, 181.542 148.537, 183.917 152.250 C 186.292 155.963, 188.434 159, 188.676 159 C 189.241 159, 188.544 157.828, 183.671 150.577 C 179.211 143.941, 167.148 130.972, 159.564 124.660 C 156.815 122.372, 160.198 126.125, 167.083 133 M 210.490 127.750 C 210.877 128.713, 212.117 131.872, 213.244 134.770 C 214.371 137.669, 215.472 139.861, 215.691 139.642 C 216.185 139.148, 210.977 126, 210.287 126 C 210.011 126, 210.103 126.787, 210.490 127.750 M 249.320 132 C 249.320 135.575, 249.502 137.037, 249.723 135.250 C 249.945 133.463, 249.945 130.537, 249.723 128.750 C 249.502 126.963, 249.320 128.425, 249.320 132 M 205.114 130.500 C 205.133 131.050, 206.014 133.300, 207.072 135.500 C 208.130 137.700, 208.715 138.375, 208.373 137 C 207.668 134.169, 205.062 128.970, 205.114 130.500 M 209.020 140.250 C 209.132 141.621, 214.874 158.195, 214.928 157.302 C 215.023 155.730, 210.049 140, 209.456 140 C 209.205 140, 209.009 140.113, 209.020 140.250 M 184.500 143 C 185.495 144.100, 186.535 145, 186.810 145 C 187.085 145, 186.495 144.100, 185.500 143 C 184.505 141.900, 183.465 141, 183.190 141 C 182.915 141, 183.505 141.900, 184.500 143 M 248.320 149 C 248.320 152.575, 248.502 154.037, 248.723 152.250 C 248.945 150.463, 248.945 147.537, 248.723 145.750 C 248.502 143.963, 248.320 145.425, 248.320 149 M 189.463 149.750 C 191.004 152.088, 192.456 154, 192.689 154 C 193.411 154, 189.582 147.914, 188.080 146.673 C 187.299 146.028, 187.921 147.412, 189.463 149.750 M 71.286 156.500 C 71.294 159.250, 71.488 160.256, 71.718 158.736 C 71.947 157.216, 71.941 154.966, 71.704 153.736 C 71.467 152.506, 71.279 153.750, 71.286 156.500 M 220.079 154.583 C 220.127 155.748, 220.364 155.985, 220.683 155.188 C 220.972 154.466, 220.936 153.603, 220.604 153.271 C 220.272 152.939, 220.036 153.529, 220.079 154.583 M 194.500 158 C 195.353 159.650, 196.276 161, 196.551 161 C 196.826 161, 196.353 159.650, 195.500 158 C 194.647 156.350, 193.724 155, 193.449 155 C 193.174 155, 193.647 156.350, 194.500 158 M 221.079 158.583 C 221.127 159.748, 221.364 159.985, 221.683 159.188 C 221.972 158.466, 221.936 157.603, 221.604 157.271 C 221.272 156.939, 221.036 157.529, 221.079 158.583 M 247.252 160.500 C 247.263 162.700, 247.468 163.482, 247.707 162.238 C 247.946 160.994, 247.937 159.194, 247.687 158.238 C 247.437 157.282, 247.241 158.300, 247.252 160.500 M 215.079 160.583 C 215.127 161.748, 215.364 161.985, 215.683 161.188 C 215.972 160.466, 215.936 159.603, 215.604 159.271 C 215.272 158.939, 215.036 159.529, 215.079 160.583 M 222.158 163 C 222.158 164.375, 222.385 164.938, 222.662 164.250 C 222.940 163.563, 222.940 162.438, 222.662 161.750 C 222.385 161.063, 222.158 161.625, 222.158 163 M 191.080 164 C 192.538 167.061, 193 167.628, 193 166.358 C 193 165.821, 192.300 164.509, 191.445 163.441 C 189.978 161.611, 189.958 161.643, 191.080 164 M 72.173 165 C 72.141 166.375, 72.488 169.300, 72.943 171.500 C 73.473 174.066, 73.791 174.604, 73.827 173 C 73.859 171.625, 73.512 168.700, 73.057 166.500 C 72.527 163.934, 72.209 163.396, 72.173 165 M 216.195 165.500 C 216.215 167.150, 216.439 167.704, 216.693 166.731 C 216.947 165.758, 216.930 164.408, 216.656 163.731 C 216.382 163.054, 216.175 163.850, 216.195 165.500 M 198.071 164.500 C 198.071 165.050, 198.714 166.625, 199.500 168 C 200.286 169.375, 200.929 170.050, 200.929 169.500 C 200.929 168.950, 200.286 167.375, 199.500 166 C 198.714 164.625, 198.071 163.950, 198.071 164.500 M 246.232 168 C 246.232 169.925, 246.438 170.713, 246.689 169.750 C 246.941 168.787, 246.941 167.213, 246.689 166.250 C 246.438 165.287, 246.232 166.075, 246.232 168 M 223.729 172.500 C 224.028 176.350, 224.437 179.688, 224.637 179.917 C 225.305 180.683, 224.774 171.539, 223.974 168.500 C 223.495 166.680, 223.398 168.254, 223.729 172.500 M 193.114 168.500 C 193.133 169.050, 194.014 171.300, 195.072 173.500 C 196.130 175.700, 196.715 176.375, 196.373 175 C 195.668 172.169, 193.062 166.970, 193.114 168.500 M 217.232 172 C 217.232 173.925, 217.438 174.713, 217.689 173.750 C 217.941 172.787, 217.941 171.213, 217.689 170.250 C 217.438 169.287, 217.232 170.075, 217.232 172 M 201.157 171.500 C 201.154 172.050, 201.759 174.075, 202.500 176 C 203.241 177.925, 203.862 178.825, 203.879 178 C 203.896 177.175, 203.292 175.150, 202.536 173.500 C 201.781 171.850, 201.160 170.950, 201.157 171.500 M 245.158 175 C 245.158 176.375, 245.385 176.938, 245.662 176.250 C 245.940 175.563, 245.940 174.438, 245.662 173.750 C 245.385 173.063, 245.158 173.625, 245.158 175 M 218.378 187 C 218.378 193.325, 218.541 195.912, 218.739 192.750 C 218.937 189.588, 218.937 184.412, 218.739 181.250 C 218.541 178.088, 218.378 180.675, 218.378 187 M 74.079 178.583 C 74.127 179.748, 74.364 179.985, 74.683 179.188 C 74.972 178.466, 74.936 177.603, 74.604 177.271 C 74.272 176.939, 74.036 177.529, 74.079 178.583 M 197.079 179.583 C 197.127 180.748, 197.364 180.985, 197.683 180.188 C 197.972 179.466, 197.936 178.603, 197.604 178.271 C 197.272 177.939, 197.036 178.529, 197.079 179.583 M 243.556 181.556 C 243.179 183.562, 243.071 185.404, 243.315 185.649 C 243.560 185.893, 244.068 184.451, 244.444 182.444 C 244.821 180.438, 244.929 178.596, 244.685 178.351 C 244.440 178.107, 243.932 179.549, 243.556 181.556 M 204.079 181.583 C 204.127 182.748, 204.364 182.985, 204.683 182.188 C 204.972 181.466, 204.936 180.603, 204.604 180.271 C 204.272 179.939, 204.036 180.529, 204.079 181.583 M 75.079 182.583 C 75.127 183.748, 75.364 183.985, 75.683 183.188 C 75.972 182.466, 75.936 181.603, 75.604 181.271 C 75.272 180.939, 75.036 181.529, 75.079 182.583 M 198.692 187.500 C 198.999 190.800, 199.419 193.688, 199.625 193.917 C 200.294 194.661, 199.786 187.585, 198.949 184.500 C 198.413 182.527, 198.326 183.555, 198.692 187.500 M 225.320 188 C 225.320 191.575, 225.502 193.037, 225.723 191.250 C 225.945 189.463, 225.945 186.537, 225.723 184.750 C 225.502 182.963, 225.320 184.425, 225.320 188 M 205 186.941 C 205 188.559, 205.356 190.102, 205.791 190.371 C 206.226 190.640, 206.402 189.316, 206.182 187.430 C 205.691 183.227, 205 182.941, 205 186.941 M 76.170 186.500 C 76.154 187.600, 76.527 189.400, 77 190.500 C 78.095 193.048, 78.095 190.419, 77 187 C 76.356 184.990, 76.194 184.892, 76.170 186.500 M 242.079 188.583 C 242.127 189.748, 242.364 189.985, 242.683 189.188 C 242.972 188.466, 242.936 187.603, 242.604 187.271 C 242.272 186.939, 242.036 187.529, 242.079 188.583 M 206.180 196.110 C 206.081 198.646, 205.787 202.921, 205.527 205.610 L 205.055 210.500 206.076 205.598 C 206.638 202.902, 206.931 198.627, 206.729 196.098 L 206.360 191.500 206.180 196.110 M 78.121 194 C 78.104 194.825, 78.708 196.850, 79.464 198.500 C 81.232 202.362, 81.258 200.566, 79.500 196 C 78.759 194.075, 78.138 193.175, 78.121 194 M 240.079 194.668 C 240.036 195.311, 239.741 196.661, 239.424 197.668 C 238.877 199.409, 238.906 199.412, 239.995 197.712 C 240.626 196.729, 240.920 195.379, 240.650 194.712 C 240.295 193.837, 240.136 193.825, 240.079 194.668 M 224.232 198 C 224.232 199.925, 224.438 200.713, 224.689 199.750 C 224.941 198.787, 224.941 197.213, 224.689 196.250 C 224.438 195.287, 224.232 196.075, 224.232 198 M 199.286 201.500 C 199.294 204.250, 199.488 205.256, 199.718 203.736 C 199.947 202.216, 199.941 199.966, 199.704 198.736 C 199.467 197.506, 199.279 198.750, 199.286 201.500 M 217.195 202.500 C 217.215 204.150, 217.439 204.704, 217.693 203.731 C 217.947 202.758, 217.930 201.408, 217.656 200.731 C 217.382 200.054, 217.175 200.850, 217.195 202.500 M 81.031 202.500 C 81.031 203.050, 81.467 204.175, 82 205 C 82.533 205.825, 82.969 206.050, 82.969 205.500 C 82.969 204.950, 82.533 203.825, 82 203 C 81.467 202.175, 81.031 201.950, 81.031 202.500 M 223.690 202.750 C 223.002 203.958, 221.769 211.552, 222.356 210.971 C 222.989 210.345, 224.939 202, 224.453 202 C 224.269 202, 223.926 202.338, 223.690 202.750 M 236.624 204.539 C 235.659 207.053, 235.943 207.702, 237.122 205.675 C 237.706 204.671, 237.973 203.639, 237.715 203.382 C 237.458 203.124, 236.966 203.645, 236.624 204.539 M 216.079 207.583 C 216.127 208.748, 216.364 208.985, 216.683 208.188 C 216.972 207.466, 216.936 206.603, 216.604 206.271 C 216.272 205.939, 216.036 206.529, 216.079 207.583 M 83 207.367 C 83 208.450, 87.970 218, 88.534 218 C 88.809 218, 87.847 215.637, 86.397 212.750 C 83.607 207.197, 83 206.235, 83 207.367 M 198.158 210 C 198.158 211.375, 198.385 211.938, 198.662 211.250 C 198.940 210.563, 198.940 209.438, 198.662 208.750 C 198.385 208.063, 198.158 208.625, 198.158 210 M 215.079 211.583 C 215.127 212.748, 215.364 212.985, 215.683 212.188 C 215.972 211.466, 215.936 210.603, 215.604 210.271 C 215.272 209.939, 215.036 210.529, 215.079 211.583 M 233.144 212.750 C 232.053 215.300, 232.078 215.359, 233.484 213.559 C 234.318 212.491, 235 211.254, 235 210.809 C 235 209.289, 234.322 209.999, 233.144 212.750 M 202.714 216.214 C 201.804 219.062, 201.225 221.558, 201.427 221.761 C 201.630 221.964, 202.563 219.821, 203.500 217 C 204.437 214.179, 205.016 211.683, 204.787 211.454 C 204.558 211.224, 203.625 213.367, 202.714 216.214 M 218.416 220.069 C 216.720 224.383, 215.668 227.705, 216.080 227.451 C 217.050 226.851, 222.449 213.107, 221.910 212.607 C 221.685 212.397, 220.112 215.755, 218.416 220.069 M 210.644 222.278 C 206.910 230.087, 198.076 240.466, 191 245.359 C 188.835 246.856, 188.948 246.847, 191.846 245.294 C 197.583 242.218, 207.501 230.789, 211.562 222.572 C 213.625 218.397, 215.131 214.808, 214.907 214.598 C 214.683 214.387, 212.765 217.843, 210.644 222.278 M 229 220 C 228.411 221.100, 228.155 222, 228.430 222 C 228.705 222, 229.411 221.100, 230 220 C 230.589 218.900, 230.845 218, 230.570 218 C 230.295 218, 229.589 218.900, 229 220 M 90 221 C 90.589 222.100, 91.295 223, 91.570 223 C 91.845 223, 91.589 222.100, 91 221 C 90.411 219.900, 89.705 219, 89.430 219 C 89.155 219, 89.411 219.900, 90 221 M 192.092 225.616 C 188.805 231.956, 181.514 240.422, 175.500 244.885 C 173.068 246.689, 172.973 246.881, 175 245.900 C 179.350 243.793, 189.372 232.710, 192.846 226.164 C 194.687 222.696, 196.027 219.694, 195.825 219.492 C 195.623 219.290, 193.943 222.046, 192.092 225.616 M 198.695 226.513 C 197.781 228.431, 197.239 230, 197.490 230 C 198.175 230, 201.210 223.877, 200.753 223.420 C 200.536 223.203, 199.610 224.594, 198.695 226.513 M 223.509 227.988 C 221.495 230.732, 217.294 235.301, 214.173 238.142 C 211.053 240.984, 209.850 242.376, 211.500 241.236 C 216.340 237.891, 229.572 223, 227.704 223 C 227.410 223, 225.523 225.245, 223.509 227.988 M 94.127 227.250 C 97.359 231.889, 108.143 242.162, 112.123 244.392 C 116.268 246.714, 115.231 245.695, 107.676 240.018 C 104.473 237.612, 99.794 233.023, 97.278 229.821 C 92.324 223.515, 90.475 222.007, 94.127 227.250 M 212.511 231.623 C 211.566 233.066, 211.287 233.941, 211.891 233.567 C 213.045 232.854, 215.374 229, 214.650 229 C 214.419 229, 213.457 230.180, 212.511 231.623 M 192.872 235.750 C 191.629 237.336, 191.664 237.371, 193.250 236.128 C 194.916 234.821, 195.445 234, 194.622 234 C 194.415 234, 193.627 234.787, 192.872 235.750 M 202.994 242.266 C 198.866 246.245, 194.591 250.047, 193.494 250.715 C 192.397 251.383, 194.200 250.785, 197.500 249.385 C 200.800 247.985, 203.950 246.371, 204.500 245.798 C 205.050 245.224, 204.449 245.297, 203.164 245.959 C 199.738 247.724, 199.502 246.611, 202.708 243.805 C 206.028 240.899, 211.558 234.993, 210.937 235.016 C 210.697 235.025, 207.122 238.287, 202.994 242.266 M 185.247 244.012 C 181.808 247.281, 177.308 250.845, 175.247 251.933 C 170.309 254.540, 171.579 254.504, 178.712 251.834 C 181.896 250.643, 183.892 249.465, 183.150 249.217 C 182.262 248.921, 183.620 246.922, 187.115 243.383 C 194.210 236.200, 193.060 236.587, 185.247 244.012 M 167 249 C 164.525 250.039, 163.008 250.913, 163.628 250.944 C 165.046 251.014, 172 248.143, 172 247.487 C 172 246.869, 172.281 246.784, 167 249 M 186 248 C 185.099 248.582, 184.975 248.975, 185.691 248.985 C 186.346 248.993, 187.160 248.550, 187.500 248 C 188.267 246.758, 187.921 246.758, 186 248 M 123 250 C 123.825 250.533, 125.175 250.945, 126 250.914 C 126.989 250.878, 126.819 250.567, 125.500 250 C 122.751 248.819, 121.172 248.819, 123 250 M 179.507 249.989 C 179.157 250.555, 179.558 250.723, 180.448 250.382 C 182.180 249.717, 182.497 249, 181.059 249 C 180.541 249, 179.843 249.445, 179.507 249.989 M 132.269 252.693 C 133.242 252.947, 134.592 252.930, 135.269 252.656 C 135.946 252.382, 135.150 252.175, 133.500 252.195 C 131.850 252.215, 131.296 252.439, 132.269 252.693 M 145.500 253 L 136.500 253.622 145 253.693 C 149.675 253.732, 154.850 253.420, 156.500 253 C 160.145 252.073, 158.918 252.073, 145.500 253" stroke="none" fill="black" fill-rule="evenodd"/>
</svg>