<?xml version="1.0"?><svg xmlns="http://www.w3.org/2000/svg" width="36" height="36" shape-rendering="geometricPrecision" text-rendering="geometricPrecision" image-rendering="optimizeQuality" fill-rule="evenodd" clip-rule="evenodd" viewBox="0 0 36 36"><path fill="#03030a" d="m32.7 8.9h0.4c0 0.2-0.1 0.4-0.2 0.6 0 0.1 0.1 0.2 0.2 0.2-0.1 0.1-0.2 0.1-0.3 0.2 0.2 0.4 0.3 0.9 0.1 1.4 0.4 0 0.5-0.2 0.5-0.6 0.1 0 0.2 0 0.3 0-0.1 0.1-0.1 0.2 0.1 0.3 0-0.2 0.1-0.4 0.3-0.5 0.8-0.1 1.4-0.4 1.8-1v0.4c-0.7 0.5-1.4 1-2.1 1.5 0.1 0.1 0.2 0.1 0.3 0 0 0.2 0.1 0.4 0 0.6-0.3 0-0.6 0.1-0.9 0.4-0.1-0.1-0.2-0.1-0.3-0.1-0.1 0-0.2 0-0.3 0.1 0 0.6 0.1 1.1 0.1 1.6-0.1 0.2-0.2 0.4-0.3 0.5-0.1-0.3 0-0.6 0.1-0.9-0.1-0.2-0.2-0.4-0.3-0.5 0.2-0.2 0.3-0.4 0.1-0.7l0.9-0.8c-0.4 0.3-0.9 0.5-1.4 0.8-0.4-0.3-0.6-0.7-0.5-1.3l-0.4 1c0-0.2 0-0.4 0.1-0.6-0.1-0.1-0.1-0.3-0.2-0.5 0 0.2-0.1 0.3-0.2 0.5-0.1-0.2-0.1-0.3-0.1-0.5 0.2-0.2 0.4-0.3 0.7-0.3 0.1-0.1 0.1-0.2-0.2 0 0-0.1 0-0.2 0-0.2 0.7-0.5 1.2-1 1.7-1.6z"></path><path fill="#010106" d="m33.1 8.9h2.8v0.6c-0.4 0.6-1 0.9-1.8 1-0.2 0.1-0.3 0.3-0.3 0.5-0.2-0.1-0.2-0.2-0.1-0.3-0.1 0-0.2 0-0.3 0 0 0.4-0.1 0.6-0.5 0.6 0.2-0.5 0.1-1-0.1-1.4 0.1-0.1 0.2-0.1 0.3-0.2-0.1 0-0.2-0.1-0.2-0.2 0.1-0.2 0.2-0.4 0.2-0.6z"></path><path fill="#03030b" d="m-0.1 8.9h5.6v0.7c-0.2 0.1-0.4 0.2-0.6 0.3 0.4 0.1 0.7 0.1 1.1 0.1v0.4c-2-0.1-4-0.1-6.1-0.2v-1.3z"></path><path fill="#101727" d="m10.6 8.9h5.9v0.9c-0.2 0-0.3 0-0.4-0.1-0.2 0.2-0.4 0.2-0.6 0-0.1 0.3-0.1 0.3-0.2 0-0.4 0.3-0.8 0.3-1.2-0.2-0.3 0.1-0.5 0-0.6-0.3h-0.8c0 0.1-0.1 0.2 0 0.3-0.3 0-0.5 0.2-0.7 0.5 0-0.4-0.2-0.5-0.6-0.3-0.2-0.2-0.4-0.2-0.6 0.1-0.1-0.3-0.2-0.2-0.2 0.1-0.1-0.3 0-0.7 0-1z"></path><path fill="#04040e" d="m24.2 8.9h5.4l-0.5 0.9c-0.5 0.5-1.1 1-1.7 1.5-0.5-0.1-0.9-0.3-1.4-0.5 0.1-0.2 0.2-0.4 0.1-0.6 0.2-0.1 0.4-0.2 0.6-0.4-0.1 0-0.3 0-0.4 0.1-0.1-0.1-0.2-0.1-0.3-0.2-0.1 0.4-0.4 0.6-0.8 0.4-0.1 0.1-0.1 0.2-0.1 0.3-0.1 0-0.2-0.1-0.3-0.1l0.1-0.1c-0.2-0.2-0.4-0.4-0.6-0.6 0-0.3 0-0.5-0.1-0.7z"></path><path fill="#0e1725" d="m16.6 8.9h5.1c-0.1 0.2 0 0.3 0.2 0.4-0.3 0.1-0.3 0.3-0.1 0.5 0.3 0 0.5 0 0.6 0.1-0.2 0.1-0.4 0.2-0.6 0.3 0.1 0.2 0.3 0.3 0.4 0.5 0-0.1 0-0.2 0-0.3h0.5c-0.1 0.5 0 0.5 0.2 0.1 0.1 0.1 0.1 0.2 0.1 0.3 0.2 0.1 0.5 0.2 0.7 0.2 0.5-0.1 0.8 0.1 0.9 0.6-0.3 0.1-0.5 0.1-0.8 0.1-0.1-0.1-0.1-0.1-0.2 0-0.1-0.1-0.2-0.3-0.2-0.4l-0.1 0.1c-0.5-0.1-0.9-0.2-1.4-0.3l0.5-0.1c-0.5 0-0.8-0.2-0.8-0.8-0.1 0.3-0.1 0.3-0.2 0-0.2 0.3-0.3 0.3-0.4-0.1 0 0.2-0.1 0.3-0.2 0.1-0.4 0.1-0.8 0.2-1.3 0.2l0.1 0.1c-0.1 0.1-0.1 0.1-0.2 0.2h-0.1v-0.3c-0.3 0-0.6 0-0.9 0.1 0-0.3 0-0.5 0.1-0.7 0.2 0 0.5-0.1 0.8-0.2-0.3 0-0.6-0.1-0.9 0-0.1-0.5-0.1-0.4-0.1 0.1-0.2 0-0.4-0.1-0.5-0.2-0.2 0.1-0.3 0.3-0.4 0.5 0-0.1 0-0.2 0-0.3h-0.4c0.1 0.2 0.2 0.4 0.4 0.5-0.1 0.1-0.1 0.2-0.1 0.3 0 0.1 0 0.1-0.1 0.2-0.1-0.1-0.2-0.2-0.2-0.3h-0.3c-0.1 0.3-0.1 0.1-0.1-0.4 0.1-0.1 0.2-0.1 0.3 0 0.1-0.3 0-0.3-0.2-0.2-0.1-0.3-0.1-0.6-0.1-0.9z"></path><path fill="#060612" d="m5.5 8.9h4.9c0 0.3 0 0.7-0.1 1-0.1-0.1-0.1-0.2-0.2-0.3 0 0 0 0 0 0.1-0.3-0.2-0.5-0.2-0.7 0.1 0-0.1-0.2-0.2-0.3-0.2-0.3 0.1-0.6 0.1-0.9 0-0.1 0-0.2 0.1-0.2 0.2l-0.1-0.2h-0.7c-0.1 0.1-0.1 0.3-0.1 0.4h0.4c0 0.2-0.1 0.4-0.2 0.5 0.1 0.2 0.3 0.3 0.5 0.5-0.3 0-0.5 0.1-0.7 0.3-0.3-0.2-0.6-0.2-0.9 0-0.1-0.2-0.1-0.3-0.1-0.5h1v-0.4h-0.4c-0.1 0.4-0.2 0.4-0.3 0l-0.1 0.3c-0.1-0.2-0.2-0.4-0.2-0.6 0.2-0.1 0.3-0.2 0.3-0.3 0.3 0.3 0.5 0.2 0.6-0.1-0.3-0.2-0.6-0.1-0.8 0.2l-0.1-0.4-0.1 0.2c-0.2-0.1-0.4-0.1-0.5-0.1v-0.7z"></path><path fill="#05050f" d="m29.6 8.9h3.1c-0.5 0.6-1 1.1-1.7 1.6 0 0 0 0.1 0 0.2 0.3-0.2 0.3-0.1 0.2 0-0.3 0-0.5 0.1-0.7 0.3-0.4 0.2-0.7 0.5-0.9 0.9-0.1-0.2-0.3-0.2-0.5 0l0.1 0.1c-0.2 0.2-0.4 0.4-0.6 0.4-0.1-0.3-0.1-0.6-0.3-0.8-0.1 0.4-0.2 0.4-0.3-0.1 0.2 0 0.2-0.2 0.1-0.4 0.3-0.3 0.6-0.6 0.9-1 0.1-0.1 0.1-0.2 0.1-0.3l0.5-0.9z"></path><path fill="#0e1826" d="m12.7 9.5c0.2-0.1 0.4 0 0.6 0 0.1 0.2 0.1 0.3 0 0.5 0.2 0 0.3 0 0.4-0.2 0.2 0.2 0.5 0.3 0.8 0.3l0.1 0.1c-0.3 0.1-0.4 0.3-0.3 0.5l0.1-0.2c0.1 0.2 0.2 0.4 0.2 0.6-0.3 0.1-0.4 0-0.5-0.2l-0.5 0.5-0.1-0.3c-0.1 0.2-0.1 0.3 0.1 0.4-0.3 0.1-0.6 0.1-0.9 0.1h-0.2c0.2-0.3 0.2-0.5 0-0.7 0.1-0.2 0.2-0.4 0.3-0.5-0.3-0.2-0.3-0.3 0-0.4 0.2 0.2 0.3 0.1 0.4-0.1-0.1 0-0.2 0-0.3-0.2 0 0.1-0.1 0.2-0.2 0.1 0.1-0.1 0.1-0.2 0-0.3z"></path><path fill="#1a2839" d="m16.5 8.9h0.1c0 0.3 0 0.6 0.1 0.9 0.2-0.1 0.3-0.1 0.2 0.2-0.1-0.1-0.2-0.1-0.3 0 0 0.5 0 0.7 0.1 0.4h0.3c0 0.1 0.1 0.2 0.2 0.3l-1.7 0.4c-0.8 0.2-1.5 0.5-2.2 0.8-0.1-0.1-0.2-0.1-0.3 0-0.2 0-0.3-0.1-0.3-0.3 0.3 0 0.6 0 0.9-0.1-0.2-0.1-0.2-0.2-0.1-0.4l0.1 0.3 0.5-0.5c0.1 0.2 0.2 0.3 0.5 0.2 0-0.2-0.1-0.4-0.2-0.6l-0.1 0.2c-0.1-0.2 0-0.4 0.3-0.5l-0.1-0.1c-0.3 0-0.6-0.1-0.8-0.3-0.1 0.2-0.2 0.2-0.4 0.2 0.1-0.2 0.1-0.3 0-0.5-0.2 0-0.4-0.1-0.6-0.1-0.1 0 0-0.1 0-0.2h0.8c0.1 0.3 0.3 0.4 0.6 0.2 0.4 0.6 0.8 0.6 1.2 0.3 0.1 0.3 0.1 0.3 0.2 0 0.2 0.2 0.4 0.2 0.6 0 0.1 0.1 0.2 0.1 0.4 0.1v-0.9z"></path><path fill="#010107" d="m35.9 9.9v3.2c-0.1-0.1-0.2 0-0.2 0.1-0.2-0.4-0.4-0.4-0.5-0.1 0 0.1 0.1 0.2 0.2 0.3-0.3 0.1-0.3 0.2-0.1 0.3-0.9 0.6-1.3 0.3-1.2-0.8 0 0.6-0.1 1-0.3 1.5-0.1 0-0.2 0-0.3-0.1-0.2 0.4-0.4 0.4-0.7 0.1 0.1-0.7 0.1-1.4 0.1-2.1 0.1 0 0.2 0 0.3 0.1 0.3-0.3 0.6-0.4 0.9-0.4 0.1-0.2 0-0.4 0-0.6-0.1 0.1-0.2 0.1-0.3 0 0.7-0.5 1.4-1 2.1-1.5z"></path><path fill="#0b0c1b" d="m10.1 9.7c0 0.1-0.1 0.1-0.1 0.2-0.1-0.1-0.2-0.1-0.3 0 0.2 0.2 0.3 0.2 0.4 0.1 0.2 0.2 0.3 0.4 0.2 0.7 0-0.1 0-0.2 0-0.3h-0.8c0 0.4-0.1 0.4-0.2 0-0.1 0.4-0.2 0.4-0.3 0-0.1 0.1-0.1 0.2-0.1 0.4h0.8c0 0.2 0 0.4 0 0.6-0.1-0.2-0.1-0.4-0.3-0.5 0 0.2-0.1 0.2-0.2 0 0 0.2 0 0.3 0 0.5-0.1-0.2-0.2-0.3-0.3-0.5-0.1 0.2-0.2 0.3-0.4 0.2 0 0.5-0.1 0.5-0.1 0-0.3 0-0.5 0.1-0.6 0.3-0.1-0.3-0.2-0.3-0.3 0l-0.1-0.3c-0.1 0.2-0.2 0.3-0.4 0.4 0 0.1 0 0.1 0 0.2-0.2 0-0.3-0.1-0.5-0.1-0.2 0.3-0.4 0.5-0.6 0.8-0.2 0.1-0.4 0.1-0.6 0.1v-0.7c0.6 0.1 0.9 0 0.9-0.5 0.3-0.2 0.6-0.2 0.9 0 0.2-0.2 0.4-0.3 0.7-0.3-0.2-0.2-0.4-0.3-0.5-0.5 0.1-0.1 0.2-0.3 0.2-0.5h-0.4c0-0.1 0-0.3 0.1-0.4h0.7l0.1 0.2c0-0.1 0.1-0.2 0.2-0.2 0.3 0.1 0.6 0.1 0.9 0 0.1 0 0.3 0.1 0.3 0.2 0.2-0.3 0.4-0.3 0.7-0.1z"></path><path fill="#102437" d="m23.8 11.7l-0.2 0.2c-1.2-0.6-2.5-1-3.9-1.1 0-0.1-0.1-0.1-0.3-0.1 0.1-0.1 0.1-0.1 0.2-0.2l-0.1-0.1c0.5 0 0.9-0.1 1.3-0.2 0.1 0.2 0.2 0.1 0.2-0.1 0.1 0.4 0.2 0.4 0.4 0.1 0.1 0.3 0.1 0.3 0.2 0 0 0.6 0.3 0.8 0.8 0.8l-0.5 0.1c0.5 0.1 0.9 0.2 1.4 0.3l0.1-0.1c0 0.1 0.1 0.3 0.2 0.4 0.1-0.1 0.1-0.1 0.2 0z"></path><path fill="#0c111f" d="m21.7 8.9h2.5c0.1 0.2 0.1 0.4 0.1 0.7 0.2 0.2 0.4 0.4 0.6 0.6l-0.1 0.1c0.1 0 0.2 0.1 0.3 0.1 0.2 0.1 0.2 0.2 0.1 0.4 0-0.2-0.1-0.2-0.3-0.2 0.1 0.2 0.2 0.4 0.2 0.5 0.1-0.2 0.2-0.2 0.4 0 0.3 0.1 0.4 0.3 0.2 0.6h-0.6c0-0.5 0-0.5-0.1-0.1h-0.4c-0.1-0.5-0.4-0.7-0.9-0.6-0.2 0-0.5-0.1-0.7-0.2 0-0.1 0-0.2-0.1-0.3-0.2 0.4-0.3 0.4-0.2-0.1h-0.5c0 0.1 0 0.2 0 0.3-0.1-0.2-0.3-0.3-0.4-0.5 0.2-0.1 0.4-0.2 0.6-0.3-0.1-0.1-0.3-0.1-0.6-0.1-0.2-0.2-0.2-0.4 0.1-0.5-0.2-0.1-0.3-0.2-0.2-0.4z"></path><path fill="#1a293b" d="m19.3 10.7c-0.7 0-1.4 0-2-0.2 0-0.1 0-0.2 0.1-0.3-0.2-0.1-0.3-0.3-0.4-0.5h0.4c0 0.1 0 0.2 0 0.3 0.1-0.2 0.2-0.4 0.4-0.5 0.1 0.1 0.3 0.2 0.5 0.2 0-0.5 0-0.6 0.1-0.1 0.3-0.1 0.6 0 0.9 0-0.3 0.1-0.6 0.2-0.8 0.2-0.1 0.2-0.1 0.4-0.1 0.7 0.3-0.1 0.6-0.1 0.9-0.2v0.4z"></path><path fill="#0b0b18" d="m6.2 11.3c0 0.5-0.3 0.6-0.9 0.5v-0.5c-0.6-0.1-1.2 0-1.8 0 0.2 0.1 0.2 0.2 0 0.3-0.2-0.3-0.6-0.6-1-0.7-0.1 0.1-0.1 0.2 0 0.3-0.4-0.1-0.7 0.1-1 0.4-0.4 0.1-0.8 0.1-1.2-0.1 0.4-0.1 0.4-0.1 0-0.1 0-0.2 0-0.3 0-0.4 0.1 0.2 0.2 0.2 0.3 0 0-0.1 0-0.2 0-0.3-0.2-0.1-0.4-0.2-0.7-0.1v-0.4c2.1 0.1 4.1 0.1 6.1 0.1v-0.3c-0.4 0-0.7 0-1.1-0.1 0.2-0.1 0.4-0.2 0.6-0.3 0.1 0 0.3 0 0.5 0.1l0.1-0.3 0.1 0.5c0.2-0.3 0.5-0.4 0.8-0.2-0.1 0.3-0.3 0.4-0.6 0.1 0 0.1-0.1 0.2-0.3 0.3 0 0.2 0.1 0.4 0.2 0.6l0.1-0.4c0.1 0.5 0.2 0.5 0.3 0h0.4v0.5h-1c0 0.2 0 0.3 0.1 0.4z"></path><path fill="#4e8e9d" d="m17.3 10.5c0.6 0.2 1.3 0.2 2 0.2h0.1c0.2 0 0.3 0 0.3 0.1-0.3 0-0.7 0-1.1 0.2 0.1 0 0.2 0 0.2 0 0.1 0.2 0.2 0.3 0.3 0.3 0.4 0.1 0.4 0.3 0 0.3v0.3c-0.4-0.4-0.9-0.6-1.5-0.5 0.2 0.1 0.3 0.3 0.2 0.5-0.2 0-0.5-0.1-0.7-0.2 0 0.1-0.1 0.3-0.2 0.4 0.6 0.2 1.1 0.4 1.7 0.4 0.4 0.1 0.8 0.2 1.3 0.3 0 0 0.1 0.1 0.1 0.3-0.5 0.2-0.9 0.5-1.3 0.9l-0.6-0.5c-0.5-0.4-1-0.8-1.4-1.2 0.1-0.2 0.1-0.3 0.2-0.5-0.2-0.1-0.5-0.1-0.8-0.1-0.2-0.2-0.4-0.2-0.7-0.2-0.1 0.1 0 0.2 0.1 0.3-0.2 0.1-0.4 0.2-0.5 0.4-0.1-0.1-0.1-0.2-0.2-0.3-0.1 0.1-0.2 0.1-0.3 0.1 0.1-0.2 0.3-0.3 0.6-0.4l-0.2-0.1c0.3-0.1 0.5-0.2 0.6-0.4l1.7-0.4c0.1-0.1 0.1-0.1 0.1-0.2z"></path><path fill="#1a2737" d="m12.7 9.5c0.1 0.1 0.1 0.2 0 0.3 0.1 0.1 0.2 0 0.2-0.1 0.1 0.2 0.2 0.2 0.3 0.2-0.1 0.2-0.2 0.3-0.4 0.1-0.3 0.1-0.3 0.2 0 0.4-0.1 0.1-0.2 0.3-0.3 0.5 0.2 0.2 0.2 0.4 0 0.7-0.4 0-0.8 0.1-1.1 0.3l-0.2-0.1c0 0.2-0.2 0.3-0.3 0.2 0 0.2-0.1 0.3-0.2 0.4 0.1-0.2 0-0.5-0.1-0.6 0.1-0.2 0.2-0.5 0.3-0.7 0.1 0.2 0.2 0.2 0.3 0l0.2 0.3c0.1-0.2 0.3-0.3 0.6-0.3 0-0.1 0-0.2-0.1-0.3-0.2-0.1-0.3-0.1-0.4-0.1-0.1-0.1-0.1-0.2-0.1-0.4h0.5c0 0.2 0 0.3 0 0.4 0.1-0.2 0.1-0.4 0.1-0.6-0.4 0-0.8 0-1.1 0 0.1-0.1 0.3-0.2 0.3-0.3 0.2 0.3 0.2 0.2 0.2-0.1 0.4-0.2 0.6-0.1 0.6 0.3 0.2-0.3 0.4-0.5 0.7-0.6z"></path><path fill="#121429" d="m-0.1 10.6c0.3-0.1 0.5 0 0.7 0.1 0 0.1 0 0.2 0 0.3-0.1 0.2-0.2 0.2-0.3 0 0 0.1 0 0.2 0 0.4 0.4 0 0.4 0 0 0.1 0.4 0.2 0.8 0.2 1.2 0.1 0.3-0.3 0.6-0.5 1-0.4-0.1-0.1-0.1-0.2 0-0.3 0.4 0.1 0.8 0.4 1 0.7 0.1 0 0.2 0.1 0.2 0.2 0.1-0.2 0.3-0.2 0.4 0.1l-0.1 0.1c-0.2-0.1-0.4-0.1-0.6 0 0.2 0.1 0.1 0.2 0 0.3-0.1-0.1-0.1-0.2-0.2-0.3-0.1 0.2-0.3 0.3-0.4 0.3v0.3c0.2 0 0.3-0.1 0.5-0.2 0.2 0.1 0.3 0.2 0.4 0.4 0.1-0.2 0.2-0.4 0.4-0.4 0.1 0.1 0.1 0.2 0 0.4h0.5c-0.1 0.1 0 0.3 0 0.4 0.2-0.2 0.3-0.1 0.3 0.1-0.1 0.1-0.1 0.2-0.2 0.3l-0.6 0.1c-0.3 0-0.5-0.1-0.7-0.2-0.1 0.1-0.1 0.2-0.2 0.3-0.3 0.1-0.6 0-0.9-0.1 0 0.2 0 0.3 0.1 0.5-0.3 0-0.3-0.1-0.2-0.2-0.7-0.5-0.7-0.8 0.1-0.7 0-0.2 0-0.4-0.2-0.6-0.1 0.3-0.1 0.3-0.2 0l0.2-0.2c-0.2 0-0.3-0.2-0.3-0.3 0 0-0.1 0-0.2 0.1-0.2-0.2-0.4-0.3-0.6-0.4 0 0.1-0.1 0.2 0 0.4h-1.1v-1.7z"></path><path fill="#11182d" d="m10.4 8.9h0.2c0 0.3-0.1 0.7 0 1 0-0.3 0.1-0.4 0.2-0.1 0.2-0.3 0.4-0.3 0.6-0.1 0 0.3 0 0.4-0.1 0.1-0.1 0.1-0.3 0.2-0.4 0.3 0.3 0 0.7 0 1.1 0 0 0.2 0 0.4-0.1 0.6 0-0.1 0-0.2 0-0.4h-0.5c0 0.2 0 0.3 0.1 0.4 0.1 0 0.2 0 0.4 0.1 0.1 0.1 0.1 0.2 0.1 0.3-0.3 0-0.5 0.1-0.6 0.3l-0.1-0.3c-0.2 0.2-0.3 0.2-0.4 0-0.1 0.2-0.2 0.5-0.3 0.7 0.1 0.1 0.2 0.4 0.1 0.6-0.1 0.3-0.2 0.6-0.3 0.9h-1.1c0 0.4-0.1 0.4-0.2 0-0.1 0.1-0.3 0-0.4-0.1 0.1-0.2 0.1-0.3 0.2-0.5l0.1 0.4c0.1-0.2 0.1-0.4-0.1-0.5-0.4-0.1-0.8-0.1-1.2-0.1 0-0.1 0.1-0.1 0.1-0.2-0.2-0.1-0.3 0-0.5 0.1-0.1-0.2-0.1-0.5 0-0.7 0.1 0.3 0.2 0.3 0.2 0 0.2 0 0.3 0.1 0.4 0.1 0.2-0.1 0.3-0.1 0.5-0.2-0.5-0.1-0.9-0.2-1.4-0.1 0.2-0.1 0.3-0.2 0.4-0.4l0.1 0.3c0.1-0.3 0.2-0.3 0.3 0 0.1-0.2 0.3-0.3 0.6-0.3 0 0.5 0.1 0.5 0.1 0 0.2 0.1 0.3 0 0.4-0.2 0.1 0.2 0.2 0.3 0.3 0.5 0-0.2 0-0.3 0-0.5 0.1 0.2 0.2 0.2 0.3 0 0.1 0.1 0.1 0.3 0.2 0.5 0-0.2 0-0.4 0-0.6h-0.8c0-0.2 0-0.3 0.1-0.4 0.1 0.4 0.2 0.4 0.3 0 0.1 0.4 0.2 0.4 0.2 0h0.8c0 0.1 0 0.2 0.1 0.3 0-0.3-0.1-0.5-0.3-0.7-0.1 0.1-0.2 0.1-0.4-0.1 0.1-0.1 0.2-0.1 0.3 0 0-0.1 0.1-0.1 0.1-0.2 0-0.1 0-0.1 0-0.1 0.1 0.1 0.1 0.2 0.2 0.3 0.1-0.3 0.1-0.7 0.1-1z"></path><path fill="#293147" d="m16.1 11.7c-0.2 0-0.4 0-0.5 0.1h-0.1c-0.1-0.1-0.2-0.2-0.1-0.3 0.3 0 0.5 0 0.7 0.2z"></path><path fill="#36101b" d="m16.1 11.7c0.2 0.1 0.3 0.2 0.5 0.3-0.3 0.1-0.5 0.3-0.6 0.5-0.2-0.1-0.3-0.2-0.4-0.3v-0.4c0.1-0.1 0.3-0.1 0.5-0.1z"></path><path fill="#73a8b3" d="m19.1 11.9c0.1 0 0.2 0.1 0.2 0.3h-0.6c-0.3-0.1-0.6-0.2-0.9-0.3 0.1-0.2 0-0.4-0.2-0.5 0.6-0.1 1.1 0.1 1.5 0.5z"></path><path fill="#384557" d="m25.7 11.7c0.8 0.1 1.4 0.4 1.9 0.9-0.1 0-0.1 0-0.1 0.1-0.4-0.3-0.7-0.4-1.2-0.3 0-0.1 0-0.2 0.1-0.3-0.3-0.1-0.5-0.1-0.7 0.1-0.1-0.1-0.1-0.1 0-0.2-0.2 0-0.5-0.1-0.7-0.2-0.1 0.5-0.2 0.5-0.2 0h-0.6v0.6c-0.2-0.1-0.4-0.3-0.6-0.5l0.2-0.2c0.3 0 0.5 0 0.8-0.1h0.4c0.1-0.4 0.1-0.4 0.1 0.1h0.6z"></path><path fill="#566678" d="m12.5 11.6h0.2c0 0.2 0.1 0.3 0.3 0.3 0.1-0.1 0.2-0.1 0.3 0-0.2 0.1-0.4 0.2-0.6 0.4-0.2-0.2-0.4-0.2-0.7 0l-0.1-0.3c-0.3 0.1-0.6 0.3-0.8 0.6 0-0.1-0.1-0.1-0.1-0.1-0.4 0.4-0.4 0.9-0.3 1.3 0 0.1-0.2 0.2-0.3 0.3v-0.8c0.1-0.3 0.2-0.6 0.3-0.9 0.1-0.1 0.2-0.2 0.2-0.4 0.1 0.1 0.3 0 0.4-0.2l0.1 0.1c0.3-0.2 0.7-0.3 1.1-0.3z"></path><path fill="#46212c" d="m17.8 11.9c0.3 0.1 0.6 0.2 0.9 0.3 0.4 0.1 0.8 0.2 1.3 0.2-0.5 0.1-0.9 0.1-1.4 0.1-0.6 0-1.1-0.2-1.7-0.4 0.1-0.1 0.2-0.3 0.2-0.4 0.2 0.1 0.5 0.2 0.7 0.2z"></path><path fill="#34778a" d="m18.8 11c0.8 0.3 1.5 0.3 2.3 0.1 0 0.2 0 0.3 0.1 0.4 0.4 0.1 0.8 0.4 1.2 0.7-0.1 0.1-0.1 0.2 0 0.2-0.1 0.1-0.2 0.1-0.2 0.2-0.1-0.2-0.2-0.5-0.3-0.7 0 0.1-0.1 0.2-0.1 0.3-0.3-0.2-0.5-0.2-0.8-0.1 0 0.2 0.1 0.5 0.2 0.7-0.1-0.1-0.3-0.2-0.5-0.3-0.1 0.1-0.2 0.2-0.2 0.3-0.3-0.4-0.7-0.7-1.2-0.7 0-0.1-0.1-0.2-0.2-0.2v-0.3c0.4 0 0.4-0.2 0-0.4-0.1 0.1-0.2 0-0.3-0.2z"></path><path fill="#090d19" d="m29.1 9.8c0 0.1 0 0.2-0.1 0.3-0.3 0.4-0.6 0.7-0.9 1 0.1 0.2 0.1 0.4-0.1 0.4 0.1 0.5 0.2 0.5 0.4 0.1 0.1 0.2 0.1 0.5 0.2 0.8 0.2 0 0.4-0.2 0.6-0.4l-0.1-0.1c0.2-0.2 0.4-0.2 0.5 0 0.1 0.2 0 0.3-0.1 0.1l-0.2 0.2c0.1 0.1 0.1 0.2 0 0.3-0.1 0.2-0.1 0.3-0.2 0.5-0.2-0.1-0.3-0.2-0.5-0.3 0.2-0.1 0.2-0.2 0-0.2-0.2 0.1-0.4 0.2-0.6 0.3-0.1-0.1-0.2-0.1-0.4-0.2-0.5-0.5-1.1-0.8-1.9-0.9 0.2-0.3 0.1-0.5-0.2-0.6-0.2-0.2-0.3-0.2-0.4 0 0-0.1-0.1-0.3-0.2-0.5 0.2 0 0.3 0 0.3 0.2 0.1-0.2 0.1-0.3-0.1-0.5 0 0 0-0.1 0.1-0.2 0.4 0.2 0.7 0 0.8-0.4 0.1 0.1 0.2 0.1 0.3 0.2 0.1-0.1 0.3-0.1 0.4-0.1-0.2 0.2-0.4 0.3-0.6 0.4 0.1 0.2 0 0.4-0.1 0.6 0.5 0.2 0.9 0.4 1.4 0.5 0.6-0.5 1.2-1 1.7-1.5z"></path><path fill="#0a0b20" d="m5.3 11.8v0.7c0.2 0 0.4 0 0.6-0.1 0.2-0.3 0.4-0.5 0.6-0.8 0.2 0 0.3 0.1 0.5 0.1 0-0.1 0-0.1 0-0.2 0.5-0.1 0.9 0 1.4 0.1-0.2 0.1-0.3 0.1-0.5 0.2-0.1 0-0.2-0.1-0.4-0.1 0 0.3-0.1 0.3-0.2 0-0.1 0.2-0.1 0.4 0 0.7 0.2-0.1 0.3-0.2 0.5-0.1 0 0.1-0.1 0.1-0.1 0.2-0.8-0.2-1 0-0.4 0.7-0.2 0.1-0.3 0.2-0.4 0.1-0.1 0.2-0.1 0.4 0 0.6-0.1 0-0.2 0.1-0.3 0.2-0.1-0.1-0.4-0.1-0.6 0 0 0.1 0 0.2-0.1 0.4 0.2 0 0.4 0 0.6 0-0.1 0.1-0.1 0.2-0.3 0.2-0.1-0.1-0.2-0.1-0.2 0-0.1 0.2-0.1 0.3-0.1 0.5 0.1 0.1 0.1 0.2 0.1 0.3-0.3-0.1-0.6-0.2-0.9-0.2 0.2-0.1 0.5-0.1 0.7-0.1 0-0.3-0.1-0.4-0.3-0.5-0.3 0.1-0.5 0.2-0.7 0.4-0.1-0.3-0.3-0.3-0.5 0-0.2-0.3-0.3-0.3-0.3 0.1 0.3 0.1 0.7 0.1 1 0.1-0.3 0.1-0.7 0.1-1 0.1-0.2-0.5-0.3-0.5-0.2-0.1-0.2 0.1-0.3 0.1-0.4-0.1-0.1 0.3-0.1 0.6-0.1 0.9 0.2 0 0.4 0 0.6 0.1-0.1 0.1-0.3 0.1-0.4 0-0.1 0-0.2 0.1-0.2 0.2-1.1-0.1-2.2-0.1-3.4-0.1v-0.9h2.5v-0.7c0.5 0.1 1 0 1.5-0.1-0.2-0.2-0.4-0.2-0.6-0.1-0.3-0.1-0.6-0.3-0.9-0.3-0.1-0.2-0.1-0.3-0.1-0.5 0.3 0.1 0.6 0.2 0.9 0.1 0.1-0.1 0.1-0.2 0.2-0.3 0.2 0.1 0.4 0.2 0.7 0.2l0.6-0.1c0.1-0.1 0.1-0.2 0.2-0.3 0-0.2-0.1-0.3-0.3-0.1 0-0.1-0.1-0.3 0-0.4h-0.5c0.1-0.2 0.1-0.3 0-0.4-0.2 0-0.3 0.2-0.4 0.4-0.1-0.2-0.2-0.3-0.4-0.4-0.2 0.1-0.3 0.2-0.5 0.2v-0.3c0.1 0 0.3-0.1 0.4-0.3 0.1 0.1 0.1 0.2 0.2 0.3 0.1-0.1 0.2-0.2 0-0.3 0.2-0.1 0.4-0.1 0.6 0l0.1-0.1c-0.1-0.3-0.3-0.3-0.4-0.1 0-0.1-0.1-0.2-0.2-0.2 0.2-0.1 0.2-0.2 0-0.3 0.6 0 1.2-0.1 1.8 0v0.5z"></path><path fill="#342c39" d="m18.7 12.2h0.6c0.5-0.1 0.9 0.2 1.2 0.6 0-0.1 0.1-0.2 0.2-0.3 0.2 0.1 0.4 0.2 0.5 0.3 0 0.1 0 0.1 0.1 0.1v0.2c-0.1-0.1-0.2 0-0.3 0.1-0.2-0.2-0.4-0.2-0.6 0.1 0-0.2 0-0.3-0.1-0.4-0.1 0.1-0.2 0.1-0.3 0.2 0-0.2-0.1-0.3-0.1-0.3-0.5-0.1-0.9-0.2-1.3-0.3 0.5 0 0.9 0 1.4-0.1-0.5 0-0.9-0.1-1.3-0.2z"></path><path fill="#121e2f" d="m27.6 12.6c0.2 0.1 0.3 0.1 0.4 0.2 0.2-0.1 0.4-0.2 0.6-0.3 0.2 0 0.2 0.1 0 0.2-0.1 0.1-0.1 0.3-0.2 0.5-0.5 0.2-0.9 0.5-1.1 1 0-0.3-0.2-0.3-0.3 0-0.1-0.2-0.2-0.3-0.4-0.3 0.5-0.1 0.8-0.4 1-0.9-0.3 0.2-0.4 0.3-0.6 0.5-0.4-0.3-0.4-0.3-0.2 0.1-0.1 0.1-0.2 0.1-0.4 0.1 0.1-0.1 0.1-0.2 0-0.2-0.2 0-0.3 0.1-0.5 0.1-0.4-0.4-0.8-0.7-1.2-0.9-0.1-0.1-0.3-0.3-0.5-0.3v-0.6h0.6c0 0.5 0.1 0.5 0.2 0 0.2 0.1 0.5 0.2 0.7 0.2-0.1 0.1-0.1 0.1 0 0.1 0.2-0.1 0.4-0.1 0.7 0-0.1 0.1-0.1 0.2-0.1 0.3 0.5-0.1 0.8 0 1.2 0.3 0-0.1 0-0.1 0.1-0.1z"></path><path fill="#040510" d="m30.5 11c0 0.2 0 0.3 0.1 0.5 0.1-0.2 0.2-0.3 0.2-0.5 0.1 0.2 0.1 0.4 0.2 0.5-0.1 0.2-0.1 0.4-0.1 0.7l0.4-1.1c-0.1 0.6 0.1 1 0.5 1.3 0.5-0.3 1-0.5 1.4-0.8l-0.9 0.8c0.2 0.3 0.1 0.5-0.1 0.7 0.1 0.1 0.2 0.3 0.3 0.5-0.1 0.3-0.2 0.6-0.1 0.9 0.1-0.1 0.2-0.3 0.3-0.5 0-0.5-0.1-1-0.1-1.6 0.1-0.1 0.2-0.1 0.3-0.1 0 0.7 0 1.4-0.1 2.1 0.3 0.3 0.5 0.3 0.7-0.1 0.1 0.1 0.2 0.1 0.3 0.1-0.3 0.3-0.7 0.5-1.1 0.7-0.2-0.2-0.4-0.2-0.6 0-0.1-0.2-0.1-0.4-0.1-0.6l-0.2 0.5-0.1-0.7-0.1 0.3c0-0.3-0.1-0.5-0.3-0.7 0.1-0.3 0.1-0.5-0.2-0.7 0.3-0.2 0.6-0.4 0.9-0.7-0.1 0-0.2 0-0.3 0-0.3 0.3-0.7 0.5-1 0.7-0.2-0.2-0.3-0.4-0.4-0.7-0.1 0.2-0.1 0.4-0.1 0.6-0.1-0.2-0.1-0.4-0.2-0.6-0.1 0.1-0.2 0.2-0.2 0.3 0-0.1-0.1-0.2-0.2-0.3-0.1 0.9-0.2 0.9-0.3 0 0.1-0.1 0.1-0.2 0-0.3l0.2-0.2c0.1 0.2 0.2 0.1 0.1-0.1 0.2-0.4 0.5-0.7 0.9-0.9z"></path><path fill="#377589" d="m15.5 11.8h0.1v0.4c-0.6 0.3-1.1 0.6-1.6 0.9-0.1-0.3-0.2-0.4-0.3-0.3-0.2 0-0.3-0.1-0.4-0.2-0.1 0.3-0.2 0.2-0.2-0.1 0.2 0 0.3 0 0.5-0.1 0.2-0.3 0.5-0.4 0.9-0.4 0.1 0 0.2 0 0.3-0.1 0.1 0.1 0.1 0.2 0.2 0.2 0.1-0.1 0.3-0.2 0.5-0.3z"></path><path fill="#382f3c" d="m16.1 11.7c0.3 0 0.6 0 0.8 0.1-0.1 0.2-0.1 0.3-0.2 0.5 0.4 0.4 0.9 0.8 1.4 1.2h-0.5c-0.3-0.3-0.6-0.5-1-0.8l-0.1 0.3c0.1 0.3 0.2 0.5 0.2 0.8-0.1-0.1-0.1-0.2-0.2-0.4-0.1 0.1-0.2 0.3-0.1 0.4l-0.4-0.4c0.1-0.2 0-0.3-0.1-0.5-0.1 0-0.2-0.2-0.3-0.3 0-0.1 0-0.3 0-0.4 0.1 0.1 0.2 0.2 0.4 0.3 0.1-0.2 0.3-0.4 0.6-0.5-0.2-0.1-0.3-0.2-0.5-0.3z"></path><path fill="#499aa7" d="m19.7 10.8c1.4 0.1 2.7 0.5 3.9 1.1 0.2 0.2 0.4 0.4 0.6 0.5 0.2 0 0.4 0.2 0.5 0.3-0.3 0.1-0.5 0.2-0.7 0.4-0.1 0-0.1 0.1-0.1 0.2-0.2-0.2-0.2-0.2-0.3 0 0.7 0.4 0.7 0.5-0.2 0.2-0.1 0-0.2 0.1-0.3 0.1-0.3-0.3-0.6-0.6-0.9-0.9-0.3 0.1-0.6 0.2-0.9 0.2-0.1 0-0.1 0-0.1-0.1-0.1-0.2-0.2-0.5-0.2-0.7 0.3-0.1 0.5-0.1 0.8 0.1 0-0.1 0.1-0.2 0.1-0.3 0.1 0.2 0.2 0.5 0.3 0.7 0-0.1 0.1-0.1 0.2-0.2-0.1 0-0.1-0.1 0-0.2-0.4-0.3-0.8-0.6-1.2-0.7-0.1-0.1-0.1-0.2-0.1-0.4-0.8 0.2-1.5 0.2-2.3-0.1 0 0-0.1 0-0.2 0 0.4-0.2 0.8-0.2 1.1-0.2z"></path><path fill="#080d1c" d="m29.3 12.5c0.1 0.9 0.2 0.9 0.3 0 0.1 0.1 0.2 0.2 0.2 0.3 0-0.1 0.1-0.2 0.2-0.3 0.1 0.2 0.1 0.4 0.2 0.6 0-0.2 0-0.4 0.1-0.6 0.1 0.3 0.2 0.5 0.4 0.7 0.3-0.2 0.7-0.4 1-0.7 0.1 0 0.2 0 0.3 0-0.3 0.3-0.6 0.5-0.9 0.7 0.3 0.2 0.3 0.4 0.2 0.7 0.2 0.2 0.3 0.4 0.3 0.7l0.1-0.3 0.1 0.7 0.2-0.5c0 0.2 0 0.4 0.1 0.6 0.2-0.2 0.4-0.2 0.6 0 0.4-0.2 0.8-0.4 1.1-0.7 0.2-0.1 0.5-0.1 0.7 0-0.7 0.3-1.4 0.6-2.2 0.9-0.4 0.1-0.8 0.2-1.2 0.5-0.2-0.3-0.4-0.5-0.6-0.7 0-0.2 0.1-0.3 0.2-0.1l0.2-0.2c-0.4 0-0.7-0.1-1-0.3 0.2-0.1 0.2-0.2 0-0.4 0.4-0.3 0.4-0.4-0.1-0.3-0.1 0-0.2-0.1-0.2-0.2-0.1 0.1-0.2 0.3-0.3 0.5-0.4-0.1-0.7-0.4-0.9-0.7v-0.2c0.1-0.2 0.1-0.4 0.2-0.5 0.2 0.1 0.3 0.2 0.5 0.4 0.1-0.3 0.1-0.4 0.2-0.6z"></path><path fill="#73b4c0" d="m15.5 11.1c-0.1 0.2-0.3 0.3-0.6 0.4l0.2 0.1c-0.3 0.1-0.5 0.2-0.6 0.4-0.4 0-0.7 0.1-0.9 0.4-0.4-0.1-0.8 0-1.1 0.3 0.3 0.1 0.6 0.3 0.8 0.7 0 0.1 0 0.1-0.1 0.2-0.1 0-0.2 0-0.3 0.1 0-0.1 0-0.2 0.1-0.3-0.2-0.1-0.5-0.4-0.7-0.6-0.2 0.2-0.4 0.5-0.4 0.8 0.1-0.2 0.3-0.2 0.4-0.1-0.2 0.2-0.4 0.4-0.7 0.5 0.3 0.2 0.6 0.2 0.9 0 0.1 0.3 0.1 0.3 0.2 0 0.1 0.1 0.1 0.2 0.1 0.3-0.1 0.1-0.1 0.2-0.3 0.2-0.4-0.1-0.9-0.2-1.5-0.3-0.1 0.2-0.2 0.3-0.1 0.5-0.3-0.2-0.5-0.2-0.6 0.2-0.1-0.1-0.2 0-0.2 0 0.1 0.1 0.1 0.2 0.2 0.3-0.2 0.1-0.5 0.1-0.7 0.2h-0.2l0.8-1.1c0.1 0 0.2-0.1 0.2-0.2 0.1-0.1 0.3-0.2 0.3-0.3 0.4-0.3 0.8-0.6 1.2-0.9l-0.1-0.1c0.3-0.1 0.6-0.3 0.9-0.5 0.2-0.2 0.4-0.3 0.6-0.4 0.7-0.3 1.4-0.6 2.2-0.8z"></path><path fill="#1f2e41" d="m12.7 12.3c-0.3 0.2-0.6 0.4-0.9 0.5l0.1 0.1c-0.4 0.3-0.8 0.6-1.2 0.9-0.1-0.4-0.1-0.9 0.3-1.3 0 0 0.1 0 0.1 0.1 0.2-0.3 0.5-0.5 0.8-0.6l0.1 0.3c0.3-0.2 0.5-0.2 0.7 0z"></path><path fill="#508b9c" d="m13.2 13.6c0 0.1 0 0.1-0.1 0.2 0.5 0.1 1 0 1.5-0.1 0.1 0 0.3 0.1 0.3 0.2-0.2 0-0.4 0.1-0.7 0.1 0 0.2-0.1 0.3-0.1 0.4-0.1-0.2-0.2-0.3-0.4-0.3-0.1 0-0.2 0.1-0.1 0.2-0.1 0-0.2 0-0.3-0.1 0.1-0.1 0.1-0.2 0-0.3-0.2 0.1-0.3 0.3-0.5 0.4 0-0.1 0-0.2-0.1-0.4-0.1 0.4-0.1 0.4-0.2 0-0.3 0.3-0.6 0.3-0.9 0.1 0.3-0.1 0.5-0.3 0.7-0.5-0.1-0.1-0.3-0.1-0.4 0.1 0-0.3 0.2-0.6 0.4-0.8 0.2 0.2 0.5 0.5 0.7 0.6-0.1 0.1-0.1 0.2-0.1 0.3 0.1-0.1 0.2-0.1 0.3-0.1z"></path><path fill="#702a35" d="m21.3 13.1c0.1 0 0.2 0.1 0.2 0.2l-0.2 0.3-0.3-0.4c0.1-0.1 0.2-0.2 0.3-0.1z"></path><path fill="#5096a5" d="m15.6 12.2c0 0.1 0 0.3 0 0.4-0.3 0.2-0.6 0.4-0.8 0.6l-0.2-0.1 0.3-0.1c-0.3-0.1-0.5 0-0.7 0.2 0.2 0.1 0.4 0.1 0.6 0.1l-0.2 0.2c-0.3-0.3-0.6-0.2-0.9 0.1-0.1-0.1-0.3-0.1-0.5 0 0.1-0.1 0.1-0.1 0.1-0.2-0.2-0.4-0.5-0.6-0.8-0.7 0.3-0.3 0.7-0.4 1.1-0.3-0.2 0.1-0.3 0.1-0.5 0.1 0 0.3 0.1 0.4 0.2 0.1 0.1 0.1 0.2 0.2 0.4 0.2 0.1-0.1 0.2 0 0.3 0.2 0.5-0.2 1-0.5 1.6-0.9z"></path><path fill="#81b8c3" d="m23.1 13.6c0.1 0.1 0.2 0.2 0.4 0.1 0 0.1 0 0.3-0.1 0.4-0.3-0.2-0.5-0.4-0.8-0.6-0.1 0.1 0 0.3 0.1 0.4 0.4 0 0.6 0.2 0.6 0.6 0.1 0.1 0 0.2 0 0.2-0.2 0-0.4 0-0.6 0 0.1-0.4-0.1-0.7-0.5-0.9l-0.7-0.5c0-0.1-0.1-0.2-0.2-0.2v-0.2c0.3 0 0.6-0.1 0.9-0.2 0.3 0.3 0.6 0.6 0.9 0.9z"></path><path fill="#376c81" d="m15.6 12.6c0.1 0.1 0.2 0.3 0.3 0.3 0.1 0.2 0.2 0.3 0.1 0.5-0.1 0.2-0.3 0.4-0.4 0.6 0.3 0.2 0.3 0.4-0.1 0.6 0 0 0 0 0-0.1 0-0.1 0-0.1 0.1-0.2-0.4 0-0.7 0.2-0.9 0.5-0.1 0-0.1 0-0.1-0.1 0.1-0.1 0.2-0.3 0.4-0.4 0-0.2 0-0.3-0.1-0.4 0-0.1-0.2-0.2-0.3-0.2-0.5 0.1-1 0.2-1.5 0.1 0.1-0.1 0.1-0.1 0.1-0.2 0.2-0.1 0.4-0.1 0.5 0 0.3-0.3 0.6-0.4 0.9-0.1l0.2-0.2c-0.2 0-0.4 0-0.6-0.1 0.2-0.2 0.4-0.3 0.7-0.2l-0.3 0.1 0.2 0.1c0.2-0.2 0.5-0.4 0.8-0.6z"></path><path fill="#588c9a" d="m17.6 13.5v0.1c-0.1 0-0.1 0-0.2-0.1-0.1 0.1-0.2 0.3-0.2 0.4-0.1 0-0.3-0.1-0.4-0.1h-0.1c0-0.3-0.1-0.5-0.2-0.8l0.1-0.3c0.4 0.3 0.7 0.5 1 0.8z"></path><path fill="#598394" d="m21 13.2l0.3 0.4-0.5 0.2c-0.4 0.1-0.7 0.1-1.1 0 0.3-0.2 0.5-0.3 0.7-0.5 0.2-0.3 0.4-0.3 0.6-0.1z"></path><path fill="#872c37" d="m17.6 13.6v-0.1h0.5l0.6 0.4c-0.1 0.2-0.1 0.2 0 0.3 0 0.1-0.1 0.1-0.2 0.1h-0.1c-0.2-0.3-0.5-0.5-0.8-0.7z"></path><path fill="#ab2931" d="m21.5 13.3l0.7 0.5c-0.2 0.3-0.4 0.6-0.7 0.9h-0.3c0-0.2 0-0.5-0.1-0.7 0.1-0.1 0.2-0.2 0.2-0.4l0.2-0.3z"></path><path fill="#141c35" d="m7.7 12.5c0.4 0 0.8 0 1.2 0.1 0.2 0.1 0.2 0.3 0.1 0.5l-0.1-0.4c-0.1 0.2-0.1 0.3-0.2 0.5 0.1 0.1 0.3 0.2 0.4 0.1 0.1 0.4 0.2 0.4 0.2 0h1.1v0.8c0 0.1-0.1 0.2-0.2 0.2-0.2 0.1-0.3 0.1-0.5 0.1 0-0.1 0-0.2 0-0.3-0.1 0.1-0.1 0.3-0.2 0.5-0.3 0.1-0.6 0.2-0.8 0.4l-0.1-0.2c-0.4 0.1-0.7 0.2-0.9 0.4-0.1-0.3-0.2-0.3-0.3 0-0.1-0.3-0.2-0.3-0.4 0 0.3 0.1 0.6 0.1 0.9 0.2h-0.3c-0.2 0-0.5 0-0.7 0.1v-0.3c-0.3 0.1-0.5 0.1-0.8-0.1 0.2-0.1 0.1-0.2 0-0.3-0.1 0.2-0.1 0.3-0.2 0.4 0-0.2 0-0.3 0.1-0.5 0-0.1 0.1-0.1 0.2 0 0.2 0 0.2-0.1 0.3-0.2-0.2 0-0.4 0-0.6 0 0.1-0.2 0.1-0.3 0.1-0.4 0.2-0.1 0.5-0.1 0.6 0 0.1-0.1 0.2-0.2 0.3-0.2-0.1-0.2-0.1-0.4 0-0.6 0.1 0.1 0.2 0 0.4-0.1-0.6-0.7-0.4-0.9 0.4-0.7z"></path><path fill="#c1d8e0" d="m17.6 13.6c0.3 0.2 0.6 0.4 0.8 0.7-0.2-0.1-0.4-0.1-0.6-0.1-0.3-0.1-0.6-0.1-0.9-0.1-0.1-0.1-0.1-0.2-0.1-0.3 0.1 0 0.3 0.1 0.4 0.2 0-0.2 0.1-0.4 0.2-0.5 0.1 0.1 0.1 0.1 0.2 0.1z"></path><path fill="#080818" d="m2.4 14.2c0.3 0 0.6 0.2 0.9 0.3 0.2-0.1 0.4-0.1 0.6 0.1-0.5 0.1-1 0.2-1.5 0.1v0.7h-2.5v-3.1h1.1c-0.1-0.2 0-0.3 0-0.4 0.2 0.1 0.4 0.2 0.6 0.4 0.1-0.1 0.2-0.1 0.2-0.1 0 0.1 0.1 0.3 0.3 0.3l-0.2 0.2c0.1 0.3 0.1 0.3 0.2 0 0.2 0.2 0.2 0.4 0.2 0.6-0.8-0.1-0.8 0.2-0.1 0.7-0.1 0.1-0.1 0.2 0.2 0.2z"></path><path fill="#6d2934" d="m21.3 13.6c0 0.2-0.1 0.3-0.2 0.4 0.1 0.2 0.1 0.5 0.1 0.7h0.3c0 0.1 0 0.2-0.1 0.2-0.2 0.1-0.3 0.1-0.4-0.2 0.1-0.3 0-0.5-0.5-0.4-0.1 0-0.3 0-0.4-0.2 0.3 0 0.5-0.1 0.7-0.3l0.5-0.2z"></path><path fill="#61202c" d="m16.7 13.8h0.1c0 0.1 0 0.2 0.1 0.3v0.2c-0.1 0.3-0.2 0.3-0.4 0-0.1-0.1-0.1-0.3-0.1-0.5-0.1-0.1 0-0.3 0.1-0.4 0.1 0.2 0.1 0.3 0.2 0.4z"></path><path fill="#3a1823" d="m20.4 13.3c-0.2 0.2-0.4 0.3-0.7 0.5 0.4 0.1 0.7 0.1 1.1 0-0.2 0.2-0.4 0.3-0.7 0.3 0.1 0.2 0.3 0.2 0.4 0.2l-0.9 0.2c-0.2 0-0.4 0-0.6 0.1-0.1 0.7-0.2 1.4 0 2 0 0.1 0.1 0.1 0.2 0.2-0.2 0.2-0.4 0.5-0.5 0.8-0.3-0.2-0.4-0.4-0.4-0.7-0.1-0.4-0.1-0.8-0.1-1.1 0.2-0.3 0.3-0.6 0.1-0.9 0.2-0.2 0.2-0.4 0.2-0.6 0.1 0 0.2 0 0.2-0.1-0.1-0.1-0.1-0.1 0-0.3 0.4-0.3 0.8-0.6 1.3-0.9 0.1 0 0.2 0 0.3-0.1 0.1 0.1 0.1 0.2 0.1 0.4z"></path><path fill="#669da8" d="m16.9 14.1c0.3 0 0.6 0 0.9 0.1 0 0.1-0.1 0.2-0.3 0.2-0.2 0.1-0.2 0.2-0.3 0.3-0.2-0.1-0.2-0.2 0-0.4-0.1 0-0.2 0-0.3 0v-0.2z"></path><path fill="#0c192d" d="m28.4 13.4c0.2 0.3 0.5 0.6 0.9 0.7 0.1-0.2 0.2-0.4 0.3-0.5 0 0.1 0.1 0.2 0.2 0.2 0.5-0.1 0.5 0 0.1 0.3 0.2 0.2 0.2 0.3 0 0.4 0.3 0.2 0.6 0.3 1 0.3l-0.2 0.2c-0.1-0.2-0.2-0.1-0.2 0.1 0.2 0.2 0.4 0.4 0.6 0.7 0.4-0.3 0.8-0.4 1.2-0.5-0.1 0.1-0.2 0.2-0.3 0.3 0.3 0.1 0.4 0.4 0.3 0.7 0.2 0.1 0.3 0.2 0.5 0.2-0.3 0-0.6 0-0.9-0.3 0.1 0 0.2-0.1 0.3-0.1-0.2-0.1-0.5-0.2-0.8-0.1 0.1 0.1 0.2 0.1 0.3 0.2-0.2 0.1-0.4 0.1-0.6 0.2 0.2 0 0.3 0.1 0.1 0.3 0.1 0.1 0.2 0.2 0.2 0.3 0 0.1 0 0.3-0.1 0.4h-0.6c0-0.1-0.1-0.3-0.3-0.4l0.4-0.1c-0.2-0.2-0.4-0.2-0.6 0l-0.3-0.2 1-0.1c-0.2-0.1-0.3-0.1-0.5-0.1 0-0.1 0.1-0.3 0.3-0.4l-0.2 0c-0.4 0.1-0.8 0.3-1.2 0.4 0.1-0.1 0.1-0.1 0.1-0.2-0.1-0.6-0.2-1.1-0.3-1.7l0.3-0.3c-0.2 0.1-0.3 0.1-0.5 0 0 0.1-0.1 0.1 0 0.2-0.3 0.2-0.5 0.4-0.8 0.6-0.3-0.4-0.4-0.8-0.3-1.3 0.2-0.2 0.4-0.3 0.6-0.4z"></path><path fill="#03030b" d="m35.9 13.1v4.3c-0.6 0-1.2 0-1.8 0 0.1-0.1 0-0.3 0-0.4-0.1 0.3-0.1 0.6-0.1 0.9-0.4 0-0.9 0-1.3 0-0.3 0-0.4-0.1-0.2-0.3 0.1-0.1 0.2-0.2 0.2-0.4h-0.4c0-0.1 0-0.3-0.1-0.5 0.2-0.1 0.4 0 0.6 0-0.1 0.1-0.1 0.1 0 0.2 0.3-0.2 0.4-0.4 0.2-0.7-0.2 0-0.4 0-0.7 0.1 0.1-0.3 0-0.6-0.3-0.7 0.1-0.1 0.2-0.2 0.3-0.3 0.8-0.3 1.5-0.6 2.2-0.9-0.2-0.1-0.5-0.1-0.7 0 0.2-0.5 0.3-0.9 0.3-1.5-0.1 1.1 0.3 1.4 1.2 0.8-0.2-0.1-0.2-0.2 0.1-0.3-0.1-0.1-0.2-0.2-0.2-0.4 0.1-0.2 0.3-0.2 0.5 0.2 0-0.1 0.1-0.2 0.2-0.2z"></path><path fill="#2c566e" d="m14.9 14c0.1 0 0.1 0.1 0.1 0.3-0.2 0.1-0.3 0.3-0.4 0.4-0.2 0.1-0.3 0.2-0.3 0.4-0.1 0-0.3-0.1-0.4-0.1-0.1 0-0.1 0.1-0.2 0.2 0-0.1-0.1-0.3-0.3-0.4 0.1 0 0.1-0.1 0.2-0.2 0.1-0.1 0.1-0.2 0-0.3-0.1-0.1 0-0.2 0.1-0.2 0.2 0 0.3 0.1 0.4 0.3 0-0.1 0.1-0.2 0.1-0.4 0.3 0 0.5-0.1 0.7-0.1z"></path><path fill="#508c9e" d="m12.5 14.5c-0.1 0.1-0.2 0.1-0.3 0-0.3 0.2-0.6 0.3-0.9 0.5 0-0.1 0-0.1 0-0.2-0.1 0.3-0.2 0.3-0.3 0-0.1 0.1-0.2 0.3-0.2 0.4-0.1-0.2-0.3-0.3-0.5-0.4 0.1-0.3 0.3-0.3 0.6-0.1-0.1-0.2 0-0.3 0.1-0.5 0.6 0.1 1.1 0.2 1.5 0.3z"></path><path fill="#a5d4dd" d="m22.2 13.8c0.4 0.2 0.6 0.5 0.5 0.9 0.2 0 0.4 0 0.6 0 0 0 0.1-0.1 0-0.2 0.3 0.3 0.6 0.5 0.9 0.7 0 0.1 0 0.1 0.1 0.2 0.1-0.1 0.2-0.1 0.3 0 0.1 0.2 0.3 0.4 0.5 0.5 0 0.2 0.1 0.4 0.2 0.6-0.2 0.1-0.4 0-0.6-0.1-0.1 0.3-0.1 0.3-0.1-0.1h-0.7c0-0.1 0-0.1-0.1-0.2 0.1 0.1 0.2 0 0.3 0-0.1-0.1-0.3-0.2-0.5-0.2 0.2-0.1 0.4-0.2 0.5-0.3-0.1-0.2-0.3-0.3-0.4-0.5 0 0.1-0.1 0.1-0.1 0.2-0.4-0.4-0.7-0.4-1-0.1 0-0.2-0.1-0.3-0.3-0.3-0.1 0.1-0.2 0.3-0.3 0.5h-0.1v-0.3c-0.2 0-0.3-0.1-0.5-0.1v-0.2c0.1 0 0.1 0 0.1-0.1 0.3-0.3 0.5-0.6 0.7-0.9z"></path><path fill="#14172f" d="m6 15.5h0.4c0 0.2-0.1 0.4-0.3 0.5-0.5 0-1 0-1.5 0l-0.2 0.1c0.2 0.2 0.3 0.4 0.3 0.7-0.5-0.1-1-0.1-1.4 0-0.4-0.2-0.8-0.3-1.2-0.3-0.3 0-0.6 0.1-0.9 0.3 0-0.2-0.1-0.2-0.2-0.3-0.4 0-0.7 0.1-1.1 0.1v-0.3c1.2 0 2.3 0 3.4 0.1 0-0.1 0.1-0.2 0.2-0.2 0.1 0.1 0.3 0.1 0.4 0-0.2-0.1-0.4-0.1-0.6-0.1 0-0.3 0-0.6 0.1-0.9 0.1 0.2 0.2 0.2 0.4 0.1-0.1-0.4 0-0.4 0.2 0.1 0.3 0 0.7 0 1-0.1-0.3 0-0.7 0-1-0.1 0-0.4 0.1-0.4 0.3-0.1 0.2-0.3 0.4-0.3 0.5 0 0.2-0.2 0.4-0.3 0.7-0.4 0.2 0.1 0.3 0.2 0.3 0.5-0.2 0-0.5 0-0.7 0.1 0.3 0 0.6 0.1 0.9 0.2z"></path><path fill="#2c4862" d="m12.5 14.5c0.1 0.1 0 0.2 0 0.4l-0.1-0.2c-0.1 0.2-0.2 0.3-0.4 0.4-0.2-0.1-0.4-0.1-0.7 0v-0.1c0.3-0.2 0.6-0.3 0.9-0.5 0.1 0.1 0.2 0.1 0.3 0z"></path><path fill="#376d83" d="m13.6 14.3c0.1 0.1 0.1 0.2 0 0.3-0.6 0.2-1.1 0.4-1.4 0.6 0.1 0.1 0.1 0.2 0.2 0.3 0.5-0.1 0.6 0 0.5 0.5-0.1-0.1-0.2-0.2-0.3-0.4-0.2 0.2-0.3 0.4-0.5 0.5-0.1-0.1-0.1-0.1-0.2-0.2-0.2 0.1-0.4 0.3-0.5 0.5-0.2-0.1-0.3-0.1-0.4-0.2-0.1 0.1-0.1 0.2-0.1 0.3-0.1 0.1-0.2 0-0.3-0.1 0.1-0.3 0.3-0.5 0.6-0.6-0.4 0-0.4-0.1-0.1-0.3-0.1-0.1-0.2-0.1-0.2-0.1 0.2-0.1 0.3-0.2 0.4-0.3 0.3-0.1 0.5-0.1 0.7 0 0.2-0.1 0.3-0.2 0.4-0.4l0.1 0.1c0-0.1 0.1-0.2 0-0.3 0.2 0 0.2-0.1 0.3-0.2 0.2-0.1 0.3-0.3 0.5-0.4 0.1 0.1 0.1 0.2 0 0.3 0.1 0.1 0.2 0.1 0.3 0.1z"></path><path fill="#508697" d="m20.5 14.3c0.5-0.1 0.6 0.1 0.5 0.4-0.2 0.2-0.5 0.2-0.7 0.3 0.1 0.2 0 0.3-0.2 0.4l0.1 0.1c-0.2 0.3-0.4 0.4-0.7 0.3 0.1 0 0.1 0.1 0.1 0.2-0.2-0.1-0.3-0.3-0.1-0.5-0.2-0.2-0.4-0.4-0.3-0.8 0.2 0.1 0.3 0 0.4-0.2l0.9-0.2z"></path><path fill="#404250" d="m21 14.7c0.1 0.3 0.2 0.3 0.4 0.2v0.1c-0.2 0.1-0.4 0.3-0.5 0.5 0.1-0.1 0.1-0.2 0-0.3-0.3 0.3-0.6 0.6-0.9 0.8-0.1 0.1-0.3 0.1-0.4 0.1v-0.1c0-0.1 0-0.2-0.1-0.2 0.3 0.1 0.5 0 0.7-0.3l-0.1-0.1c0.2-0.1 0.3-0.2 0.2-0.4 0.2-0.1 0.5-0.1 0.7-0.3z"></path><path fill="#36475f" d="m10.2 14.3l-0.8 1.1h-1.5c-0.3-0.1-0.6-0.1-0.9-0.2 0.2-0.3 0.3-0.3 0.4 0 0.1-0.3 0.2-0.3 0.2 0 0.3-0.2 0.6-0.3 0.9-0.4l0.2 0.2c0.2-0.2 0.5-0.3 0.8-0.4 0.1-0.2 0.1-0.4 0.2-0.5 0 0.1 0 0.2 0 0.3 0.2 0 0.3 0 0.5-0.1z"></path><path fill="#54899b" d="m16 13.4l0.4 0.4c0 0.2 0 0.4 0.1 0.5 0 0.2 0 0.3 0.1 0.4-0.2 0.1-0.2 0.2-0.3 0.4 0-0.1-0.1-0.2 0-0.4-0.2 0-0.3 0.1-0.4 0.1 0.1 0.3 0.1 0.5 0.1 0.7-0.1 0-0.1 0.1-0.2 0.1-0.1 0.1-0.2 0-0.2 0 0.1-0.2 0.1-0.3 0.2-0.5l-0.2-0.1c-0.3 0.2-0.5 0.3-0.8 0.3 0.1-0.2 0.1-0.3 0-0.4 0.2-0.2 0.4-0.4 0.7-0.4 0 0.1 0 0.1 0 0.1 0.4-0.2 0.4-0.4 0.1-0.6 0.1-0.2 0.3-0.4 0.4-0.6z"></path><path fill="#2c5068" d="m16.6 14.7c0.1 0.3 0.2 0.5 0.3 0.7-0.1 0-0.2 0.1-0.2 0.2-0.1 0-0.2 0.1-0.3 0.2-0.1-0.2-0.2-0.3-0.2-0.5 0 0.2-0.1 0.4-0.2 0.6-0.1-0.1-0.2-0.2-0.2-0.3 0.1 0 0.1-0.1 0.2-0.1 0-0.2 0-0.4-0.1-0.6 0.1-0.1 0.2-0.2 0.4-0.2-0.1 0.2 0 0.3 0 0.4 0.1-0.2 0.1-0.3 0.3-0.4z"></path><path fill="#323e4c" d="m16.5 14.3c0.2 0.3 0.3 0.3 0.4 0 0.1 0 0.2 0 0.3 0-0.2 0.2-0.2 0.3 0 0.4 0.1-0.1 0.1-0.2 0.3-0.3 0 0.1-0.1 0.3-0.1 0.4 0.1 0.2 0.2 0.3 0.3 0.3 0 0.2-0.1 0.4-0.2 0.5 0.1 0.2 0.1 0.3 0.1 0.5-0.1-0.1-0.1-0.2-0.2-0.2-0.1 0.1-0.1 0.2-0.1 0.3-0.2-0.2-0.3-0.5-0.4-0.8-0.1-0.2-0.2-0.4-0.3-0.7-0.1-0.1-0.1-0.2-0.1-0.4z"></path><path fill="#93acb7" d="m7.6 15.4h1.6c0 0.1 0 0.2-0.1 0.2-0.1-0.1-0.2-0.1-0.4-0.1v0.5h-0.4v-0.3c-0.2-0.1-0.4-0.2-0.7-0.3z"></path><path fill="#6fabb9" d="m10.3 14.8c0.2 0.1 0.4 0.2 0.5 0.4 0-0.1 0.1-0.3 0.2-0.4 0.1 0.3 0.2 0.3 0.3 0 0 0.1 0 0.1 0 0.2v0.1c-0.1 0.1-0.2 0.2-0.4 0.3 0 0 0.1 0 0.2 0.1-0.3 0.2-0.3 0.3 0.1 0.3-0.3 0.1-0.5 0.3-0.6 0.6-0.4 0.1-0.5 0.4-0.2 0.7l0.3-0.1c0 0.1 0 0.2-0.1 0.3 0.4 0.2 0.8 0.1 1.2-0.1 0.1 0.1 0.2 0.1 0.2 0.2 0.1-0.1 0.1-0.1 0.2-0.2 0.1 0.1 0.1 0.2 0.1 0.3 0.1 0 0.3-0.1 0.5-0.1-0.4 0.2-0.8 0.3-1.3 0.3l0.6 0.1c-0.1 0.2-0.2 0.3-0.2 0.4-0.1 0-0.2 0-0.3-0.1-0.1 0.1-0.1 0.2-0.1 0.3h-0.4v0.4h-0.6c0-0.1 0.1-0.1 0.1-0.2-0.4-0.1-0.4-0.3 0-0.5 0-0.4-0.2-0.8-0.5-1-0.1 0.4-0.2 0.4-0.5 0.1 0.1-0.2 0.2-0.3 0.4-0.4l-0.2-0.2c-0.1 0.1-0.2 0.3-0.3 0.4-0.1-0.2-0.3-0.4-0.4-0.6 0.1-0.4 0.3-0.7 0.6-0.9 0-0.1 0-0.1-0.1-0.1 0.2-0.1 0.5-0.1 0.7-0.2-0.1-0.1-0.1-0.2-0.2-0.3 0 0 0.1-0.1 0.2-0.1z"></path><path fill="#5b687e" d="m7.6 15.4c0.3 0.1 0.5 0.2 0.7 0.4-0.2-0.2-0.4-0.2-0.6-0.1l0.2 0.1c-0.2 0.1-0.3 0.2-0.4 0.4-0.2-0.3-0.3-0.3-0.5 0-0.1 0-0.1-0.1-0.1-0.1v-0.6c0.2-0.1 0.5-0.1 0.7-0.1z"></path><path fill="#396d81" d="m15.8 15.6c0 0.1 0.1 0.2 0.2 0.3 0.1-0.2 0.2-0.4 0.2-0.6 0 0.2 0.1 0.3 0.2 0.5 0.1-0.1 0.2-0.2 0.3-0.2 0.1 0.1 0.1 0.2 0.2 0.2-0.4 0.1-0.5 0.2-0.1 0.4 0 0.1 0 0.2 0 0.3-0.4-0.1-0.7-0.3-1.1-0.4 0.3 0 0.3-0.1 0-0.2-0.4 0.1-0.4 0.3 0 0.5-0.1 0-0.2 0.1-0.3 0.1-0.2-0.1-0.3-0.4-0.3-0.6 0 0.2-0.1 0.4-0.3 0.5-0.1-0.1-0.1-0.2-0.2-0.3-0.1 0.1-0.3 0.2-0.4 0.3l0.4-0.8c0-0.1 0-0.3 0-0.4 0.1 0.1 0.1 0.1 0.2 0.1 0.3 0 0.5-0.1 0.8-0.3l0.2 0.1c-0.1 0.2-0.1 0.3-0.2 0.5 0 0 0.1 0.1 0.2 0z"></path><path fill="#416479" d="m19.6 14.5c-0.1 0.2-0.2 0.3-0.4 0.2-0.1 0.4 0.1 0.6 0.3 0.8-0.2 0.2-0.1 0.4 0.1 0.5v0.1c-0.1 0.2-0.3 0.4-0.4 0.7-0.1-0.1-0.2-0.1-0.2-0.2-0.2-0.6-0.1-1.3 0-2 0.2-0.1 0.4-0.1 0.6-0.1z"></path><path fill="#5593a1" d="m21.4 15c0.2 0 0.3 0.1 0.5 0.1v0.3c-0.1 0-0.1 0-0.1 0.1 0.1 0.1 0.2 0.3 0.2 0.5-0.2 0-0.3 0-0.5 0.1-0.4-0.3-0.7-0.2-0.7 0.4-0.3 0.5-0.5 0.5-0.6-0.1l0.7-0.9c0.1-0.2 0.3-0.4 0.5-0.5z"></path><path fill="#3f8999" d="m24 13.1c0.3 0.1 0.5 0.3 0.6 0.5 0.2-0.1 0.4-0.1 0.5 0.1-0.1 0-0.3 0.1-0.4 0.2 0.4 0 0.9 0.2 1.3 0.4 0.5 0.4 0.8 0.9 1.1 1.3 0.1 0.4 0 0.5-0.2 0.2-0.1 0.1-0.3 0.3-0.5 0.4 0.2 0.1 0.4 0.1 0.5-0.1 0.1 0.3 0 0.5-0.3 0.6-0.2-0.2-0.4-0.2-0.6-0.3 0.1-0.2 0-0.5-0.1-0.7 0.2-0.1 0.3-0.1 0.2-0.3-0.1 0.2-0.1 0.2-0.2 0-0.1 0.4-0.2 0.5-0.5 0.2l-0.1 0.2c-0.1-0.3-0.2-0.4-0.4-0.6 0.2 0 0.4 0 0.5 0.2 0.4-0.1 0.4-0.2 0-0.3-0.2-0.3-0.4-0.2-0.6 0.1l-0.3-0.2c0 0.1-0.1 0.2-0.3 0.2-0.3-0.2-0.6-0.4-0.9-0.7 0-0.4-0.2-0.6-0.6-0.6-0.1-0.1-0.2-0.3-0.1-0.4 0.3 0.2 0.5 0.4 0.8 0.6 0.1-0.1 0.1-0.3 0.1-0.4-0.2 0.1-0.3 0-0.4-0.1 0.1 0 0.2-0.1 0.3-0.1 0.9 0.3 0.9 0.2 0.2-0.2 0.1-0.2 0.1-0.2 0.3 0 0-0.1 0-0.2 0.1-0.3z"></path><path fill="#1c334b" d="m28.4 13.2v0.2c-0.2 0.1-0.4 0.2-0.6 0.4-0.1 0.5 0 0.9 0.3 1.3 0.3-0.2 0.5-0.4 0.8-0.6 0.3 0.7 0.4 1.4 0.1 2.1 0.1 0.2 0 0.3-0.3 0.3-0.1 0-0.2-0.1-0.3-0.1-0.7-1.2-1.5-2.3-2.5-3.2 0.2 0 0.3-0.1 0.5-0.1 0.1 0 0.1 0.1 0 0.2 0.2 0 0.3 0 0.4-0.1-0.2-0.4-0.2-0.4 0.2-0.1 0.2-0.2 0.3-0.3 0.6-0.5-0.2 0.5-0.5 0.8-1 0.9 0.2 0 0.3 0.1 0.4 0.3 0.1-0.3 0.3-0.3 0.3 0 0.2-0.5 0.6-0.8 1.1-1z"></path><path fill="#527e91" d="m17.8 14.2c0.2 0 0.4 0 0.6 0.1h0.1c0 0.2 0 0.4-0.2 0.6 0.2 0.3 0.1 0.6-0.1 0.9 0 0.3 0 0.7 0.1 1.1-0.1 0-0.2 0.1-0.1 0.2-0.2-0.3-0.4-0.7-0.6-1 0-0.2 0-0.3-0.1-0.5 0.1-0.1 0.2-0.3 0.2-0.5-0.1 0-0.2-0.1-0.3-0.2 0-0.2 0.1-0.4 0.1-0.5 0.2 0 0.3-0.1 0.3-0.2z"></path><path fill="#57697c" d="m9.1 15.6c-0.1 0.3-0.3 0.5-0.5 0.7-0.1 0.4-0.2 0.8-0.4 1.1 0.1-0.2 0.1-0.5 0-0.8-0.5 0-0.6-0.2-0.3-0.6 0.1 0 0.3 0 0.4 0h0.4v-0.5c0.2 0 0.3 0 0.4 0.1z"></path><path fill="#3e7c91" d="m13.6 14.6c-0.1 0.1-0.1 0.2-0.2 0.2 0.2 0.1 0.3 0.3 0.3 0.4 0.1-0.1 0.1-0.2 0.2-0.2 0.1 0 0.3 0.1 0.4 0.1 0-0.2 0.1-0.3 0.3-0.4 0 0.1 0 0.2 0.1 0.2-0.1 0.3-0.3 0.7-0.7 1-0.1-0.2-0.1-0.4-0.2-0.6-0.1 0-0.2 0-0.4-0.1 0.2 0 0.2-0.1 0-0.1-0.2 0-0.3 0.2-0.4 0.4 0.1 0.1 0.2 0.3 0.2 0.5-0.1 0.1-0.2 0.2-0.3 0.3l0.3 0.1c-0.1 0-0.3 0-0.4 0.1 0.1 0.1 0.1 0.2 0 0.3-0.1-0.4-0.2-0.4-0.4-0.1 0.2 0.1 0.2 0.3 0 0.5 0.2 0.1 0.3 0.2 0.4 0.2-0.2 0-0.4 0.1-0.5 0.2 0-0.2 0-0.3-0.1-0.4-0.1 0.1-0.1 0.1-0.2 0.2 0-0.1-0.1-0.1-0.2-0.2-0.4 0.2-0.8 0.3-1.2 0.1 0.1-0.1 0.1-0.2 0.1-0.3l-0.4 0.1c-0.2-0.3-0.1-0.6 0.3-0.7 0.1 0.1 0.2 0.2 0.3 0.1 0-0.1 0-0.2 0.1-0.3 0.1 0.1 0.2 0.1 0.4 0.2 0.1-0.2 0.3-0.4 0.5-0.5 0.1 0.1 0.1 0.1 0.2 0.2 0.2-0.1 0.3-0.3 0.5-0.5 0.1 0.2 0.2 0.3 0.3 0.4 0.1-0.5 0-0.6-0.5-0.5-0.1-0.1-0.1-0.2-0.2-0.3 0.3-0.2 0.8-0.4 1.4-0.6z"></path><path fill="#311f2c" d="m20.9 15.5l-0.7 0.9-0.5 0.4c-0.1-0.2-0.3-0.2-0.5 0 0.1-0.3 0.3-0.5 0.4-0.7 0.1 0 0.3 0 0.4-0.1 0.3-0.2 0.6-0.5 0.9-0.8 0.1 0.1 0.1 0.2 0 0.3z"></path><path fill="#39465e" d="m8.3 15.8v0.2c-0.1 0-0.3 0-0.4 0-0.3 0.4-0.2 0.6 0.3 0.6-0.3 0.2-0.5 0.2-0.7-0.1-0.2 0.2-0.3 0.3-0.5 0.3l-0.1-0.5c-0.2 0.2-0.4 0.3-0.5 0.3 0-0.1 0.1-0.2 0.1-0.4l0.1 0.1c0.1-0.1 0.2-0.2 0.3-0.2 0 0 0 0.1 0.1 0.1 0.2-0.3 0.3-0.3 0.5 0 0.1-0.2 0.2-0.3 0.4-0.4l-0.2-0.1c0.2-0.1 0.4-0.1 0.6 0z"></path><path fill="#26586e" d="m15.5 14.5c-0.3 0-0.5 0.2-0.7 0.4 0.1 0.1 0.1 0.2 0 0.4-0.1 0-0.1 0-0.2-0.1 0 0.1 0 0.3 0 0.4-0.3 0.3-0.5 0.5-0.8 0.7 0.3 0 0.3 0.1 0 0.2 0.1 0.1 0.1 0.2-0.1 0.3-0.1-0.2-0.3-0.2-0.4 0l-0.1-0.1c0.2-0.1 0.3-0.2 0.5-0.2-0.3-0.3-0.3-0.4 0-0.4-0.2-0.1-0.3-0.2-0.5-0.1 0-0.2-0.1-0.4-0.2-0.5 0.1-0.2 0.2-0.4 0.4-0.4 0.2 0 0.2 0.1 0 0.1 0.2 0.1 0.3 0.1 0.4 0.1 0.1 0.2 0.1 0.4 0.2 0.6 0.4-0.3 0.6-0.7 0.7-1 0.2-0.4 0.5-0.6 0.9-0.6-0.1 0.1-0.1 0.1-0.1 0.2z"></path><path fill="#62a1b0" d="m23.9 16.3c-0.1 0-0.2 0-0.3-0.1-0.2 0.2-0.4 0.4-0.6 0.5 0.1 0 0.2 0.1 0.3 0.2 0-0.1 0.1-0.2 0.2-0.3 0 0.4-0.1 0.7-0.4 0.8-0.2-0.1-0.4-0.2-0.6-0.3-0.2 0.3-0.4 0.6-0.7 0.7 0 0.1 0 0.2-0.1 0.3-0.1-0.1-0.1-0.2-0.1-0.3-0.1 0.1-0.1 0.1-0.2 0 0.1-0.2 0.2-0.3 0.4-0.4 0 0-0.1-0.1-0.1-0.1-0.1-0.1 0-0.1 0-0.2 0.1 0.2 0.2 0.2 0.4 0.2v-0.6l0.1 0c0.1 0 0.2 0.2 0.2 0.3 0.1-0.1 0.2-0.1 0.3-0.2-0.1-0.3-0.1-0.7-0.1-1-0.2 0.3-0.3 0.2-0.2-0.1-0.1-0.1-0.2-0.2-0.4-0.3 0.1-0.2 0.2-0.4 0.3-0.5 0.2 0 0.3 0.1 0.3 0.3 0.3-0.3 0.6-0.3 1 0.1 0-0.1 0.1-0.1 0.1-0.2 0.1 0.2 0.3 0.3 0.4 0.5-0.1 0.1-0.3 0.2-0.5 0.3 0.2 0 0.4 0.1 0.5 0.2-0.1 0-0.2 0.1-0.3 0 0.1 0.1 0.1 0.1 0.1 0.2z"></path><path fill="#4d8a9b" d="m23.9 16.3h0.3c0.3 0.1 0.3 0.2 0 0.4 0.3 0.1 0.3 0.2-0.1 0.2 0.2 0.1 0.3 0.2 0.3 0.4 0.2-0.3 0.3-0.3 0.5 0 0.2-0.1 0.4-0.3 0.6-0.4 0.1 0 0.1 0.1 0.2 0.1 0.1 0.3 0.3 0.3 0.4 0.1l0.4 0.5c0.4-0.7 0.8-0.8 1.2-0.2 0.2 0.3 0.4 0.6 0.5 0.9 0.1 0.2 0.2 0.2 0.3-0.1 0.1 0.2 0.1 0.4 0.1 0.6h-1c0-0.2 0-0.3 0-0.5 0 0-0.1 0-0.2-0.1-0.1 0.2-0.2 0.3-0.1 0.5-0.2-0.3-0.4-0.5-0.6-0.7l-0.2 0.3c0-0.1-0.1-0.1-0.2 0 0-0.1 0-0.3 0-0.4-0.2 0-0.3 0-0.4 0.1 0.2 0.2 0.3 0.3 0.2 0.6-0.2-0.3-0.3-0.3-0.5 0-0.1-0.4-0.3-0.5-0.6-0.4 0.1 0.2 0.2 0.4 0.3 0.6h-0.3c0-0.1 0-0.1-0.1-0.1-0.1-0.3-0.2-0.7-0.3-1 0 0.3-0.1 0.3-0.2 0-0.2 0-0.2 0.1 0 0.2-0.2 0-0.3 0-0.4 0.1-0.2-0.2-0.3-0.3-0.5-0.4 0.2-0.1 0.4 0 0.5 0.2l0.1-0.2c-0.1-0.4-0.4-0.7-0.6-1-0.1 0.1-0.2 0.2-0.2 0.3-0.1-0.1-0.2-0.2-0.3-0.2 0.2-0.1 0.4-0.3 0.6-0.5 0.1 0.1 0.2 0.1 0.3 0.1z"></path><path fill="#59a3b1" d="m24.7 12.7c0.4 0.2 0.8 0.5 1.2 0.9 1 0.9 1.8 2 2.5 3.2 0.1 0.1 0.2 0.2 0.4 0.3 0.2 1 0.4 2.1 0.6 3.1 0 0.3 0 0.5 0 0.7-0.1-0.2-0.2-0.5-0.4-0.7 0 0.2-0.1 0.2-0.1 0.3 0-0.4 0-0.8 0-1.2 0.1-0.3 0.1-0.6 0-1-0.2-0.3-0.3-0.7-0.5-1-0.2 0.1-0.5 0.1-0.7 0.1-0.4-0.6-0.8-0.5-1.1 0.2l-0.5-0.5c-0.1 0.2-0.3 0.2-0.4-0.1 0.1-0.2 0.1-0.4 0.1-0.6-0.2 0-0.3 0-0.4-0.1 0.3-0.3 0.2-0.4-0.3-0.4-0.2-0.1-0.4-0.3-0.5-0.5-0.1-0.1-0.2-0.1-0.3 0-0.1-0.1-0.1-0.1-0.1-0.2 0.2 0 0.3-0.1 0.3-0.2l0.3 0.2c0.2-0.3 0.4-0.4 0.6-0.1 0.4 0.1 0.4 0.2 0 0.3-0.1-0.2-0.3-0.2-0.5-0.2 0.2 0.2 0.3 0.3 0.4 0.6l0.1-0.2c0.3 0.3 0.4 0.2 0.5-0.2 0.1 0.2 0.1 0.2 0.2 0 0.1 0.2 0 0.2-0.2 0.3 0.1 0.2 0.2 0.5 0.1 0.7 0.2 0.1 0.4 0.1 0.6 0.3 0.3-0.1 0.4-0.3 0.3-0.6-0.1 0.2-0.3 0.2-0.5 0.1 0.2-0.1 0.4-0.3 0.5-0.4 0.2 0.3 0.3 0.2 0.2-0.2-0.3-0.4-0.6-0.9-1.1-1.3-0.4-0.2-0.9-0.4-1.3-0.4 0.1-0.1 0.3-0.2 0.4-0.2-0.1-0.2-0.3-0.2-0.5-0.1-0.1-0.2-0.3-0.4-0.6-0.5 0.2-0.2 0.4-0.3 0.7-0.4z"></path><path fill="#233141" d="m32.3 16.3c0.3-0.1 0.5-0.1 0.7-0.1 0.2 0.3 0.1 0.5-0.2 0.7-0.1-0.1-0.1-0.1 0-0.2-0.2 0-0.4-0.1-0.6 0 0.1 0.2 0.1 0.4 0.1 0.5l-0.1 0.2c-0.2 0-0.4-0.1-0.6-0.1 0-0.1-0.1-0.2-0.2-0.3 0-0.1-0.1-0.2-0.2-0.3 0.2-0.2 0.1-0.3-0.1-0.3 0.2-0.1 0.4-0.1 0.6-0.2-0.1-0.1-0.2-0.1-0.3-0.2 0.3-0.1 0.6 0 0.8 0.1-0.1 0-0.2 0.1-0.3 0.1 0.3 0.3 0.6 0.3 0.9 0.3-0.2 0-0.3-0.1-0.5-0.2z"></path><path fill="#0e142d" d="m6.9 15.5v0.6c-0.1 0-0.2 0.1-0.3 0.2l-0.1-0.1c0 0.2-0.1 0.3-0.1 0.4-0.2 0.3-0.4 0.4-0.6 0.4 0 0.2-0.1 0.4-0.1 0.5 0.3-0.2 0.5-0.2 0.7 0-0.2 0.1-0.4 0.3-0.4 0.5-0.2-0.3-0.2-0.2-0.2 0.1 0.4 0 0.8 0 1.2 0.1 0.1 0.2 0.1 0.4 0 0.6-0.1-0.4-0.2-0.4-0.2 0.1h0.5v-0.6c0.1 0.1 0.2 0 0.3-0.1 0.1 0.2 0 0.3-0.2 0.2l0.2 0.8c-0.4 0-0.8 0-1.1-0.1-0.1 0.2-0.2 0.3-0.4 0.1-0.1 0.5-0.2 0.5-0.2 0h-0.4v-0.3h1.1c0-0.5-0.1-0.5-0.2-0.1 0-0.1-0.1-0.2 0-0.4h-0.6v0.4h-0.3c0-0.4 0-0.8 0.1-1.1-0.1 0.1-0.2 0.2-0.2 0.3-0.1-0.1-0.2-0.1-0.3 0.1 0.1 0 0.2 0 0.2 0.1 0 0.3-0.1 0.5-0.4 0.7-0.1-0.1-0.1-0.3-0.1-0.5 0.1 0.2 0.2 0.2 0.2-0.1-0.1-0.1-0.1-0.2-0.2-0.4 0-0.2 0.1-0.1 0.1 0.1 0.1-0.1 0.1-0.2 0.1-0.3 0.2 0 0.3 0 0.5-0.2-0.3-0.1-0.5-0.1-0.7-0.1 0-0.5 0-0.5 0.1-0.1 0.1-0.2 0.1-0.3 0.2-0.5-0.1 0-0.2-0.1-0.3 0 0-0.2 0-0.3 0-0.5 0.1 0.1 0.1 0.2 0.2 0.2 0-0.4 0.2-0.4 0.5 0 0.1-0.2 0.2-0.2 0.2 0 0.1-0.2 0.2-0.4 0.4-0.5 0.2-0.1 0.3-0.3 0.3-0.5h-0.4c0-0.1 0-0.2-0.1-0.3 0.1-0.1 0.1-0.2 0.2-0.4 0.1 0.1 0.2 0.2 0 0.3 0.3 0.2 0.5 0.2 0.8 0.1v0.3z"></path><path fill="#416e85" d="m15 16.9c0 0.2-0.1 0.3-0.3 0.2-0.1 0.1-0.2 0.2-0.4 0.3 0.2 0 0.3 0.1 0.2 0.2 0.1 0.2 0.2 0.4 0.2 0.6 0.1 0 0.3 0 0.4-0.1 0.1 0.2 0 0.3-0.1 0.3-0.4-0.1-0.6 0-0.7 0.4h-0.1c0.1-0.5 0-1-0.2-1.4 0.1-0.1 0.1-0.2 0.1-0.4 0.3 0 0.4 0 0.2-0.2 0.1-0.2 0.2-0.2 0.3-0.3 0.1 0.2 0.3 0.2 0.5 0 0 0.2 0 0.3-0.1 0.4z"></path><path fill="#38637a" d="m21.7 17.3c0 0 0.1 0.1 0.1 0.1-0.2 0.1-0.3 0.2-0.4 0.4 0.1 0.1 0.1 0.1 0.2 0 0 0.1 0 0.2 0.1 0.3 0.1-0.1 0.1-0.2 0.1-0.3h0.2c0 0.4 0.1 0.8 0.3 1.2-0.1 0-0.2-0.1-0.3-0.2-0.4-0.3-0.7-0.7-1-1.1 0.1 0.4 0 0.6-0.5 0.7 0-0.1-0.1-0.2-0.2-0.3 0-0.2 0-0.4 0.2-0.6 0-0.1-0.1-0.1-0.2-0.2-0.1 0.1-0.2 0.1-0.3 0.1-0.1-0.2-0.2-0.3-0.3-0.4v-0.2l0.5-0.4c0.1 0.6 0.3 0.6 0.6 0.1 0.2 0.1 0.2 0.2 0 0.3 0.1 0.1 0.3 0.1 0.4 0 0.1-0.2 0.2-0.4 0.3-0.6 0.3 0.2 0.4 0.3 0.2 0.6 0-0.1-0.1-0.1-0.2-0.2 0 0.2-0.2 0.3-0.3 0.4 0.1 0.2 0.2 0.3 0.5 0.3z"></path><path fill="#7abdc8" d="m25.1 15.9c0.5 0 0.6 0.1 0.3 0.4 0.1 0.1 0.2 0.1 0.4 0.1 0 0.2 0 0.4-0.1 0.6-0.1 0-0.1-0.1-0.2-0.1-0.2 0.1-0.4 0.3-0.6 0.4-0.2-0.3-0.3-0.3-0.5 0 0-0.2-0.1-0.3-0.3-0.4 0.4 0 0.4-0.1 0.1-0.2 0.3-0.2 0.3-0.3 0-0.4h0.4c0 0.4 0 0.4 0.2 0.1 0.1 0.1 0.3 0.2 0.5 0.1-0.1-0.2-0.2-0.4-0.2-0.6z"></path><path fill="#3e7c90" d="m10.5 18.8h-0.7v0.8l-0.2-0.8h-0.5c0-0.2 0.1-0.3 0.3-0.4l-0.1-0.1c0.1-0.1 0.2 0 0.3 0.1 0.3-0.1 0.3-0.3 0.1-0.5-0.1 0.2-0.2 0.2-0.4 0l0.3-0.5c0-0.1-0.1-0.1-0.1 0-0.1 0-0.1-0.1-0.1-0.2l0.1-0.2c0.1-0.1 0.2-0.3 0.3-0.4l0.2 0.2c-0.2 0.1-0.3 0.2-0.4 0.4 0.3 0.3 0.4 0.3 0.5-0.1 0.3 0.2 0.5 0.6 0.5 1-0.4 0.2-0.4 0.4 0 0.5 0 0.1-0.1 0.1-0.1 0.2z"></path><path fill="#40798c" d="m21.9 15.4h0.1c0.2 0.1 0.3 0.2 0.4 0.3-0.1 0.3 0 0.4 0.2 0.1 0 0.3 0 0.7 0.1 1-0.1 0.1-0.2 0.1-0.3 0.2 0-0.1-0.1-0.3-0.2-0.3l-0.1 0v0.6c-0.2 0-0.3 0-0.4-0.2 0 0.1-0.1 0.1 0 0.2-0.3 0-0.4-0.1-0.5-0.3 0.1-0.1 0.3-0.2 0.3-0.3 0.1 0 0.2 0 0.2 0.1 0.2-0.3 0.1-0.4-0.2-0.6-0.1 0.2-0.2 0.4-0.3 0.6-0.1 0.1-0.3 0.1-0.4 0 0.2-0.1 0.2-0.2 0-0.3 0-0.6 0.3-0.7 0.7-0.4 0.2-0.1 0.3-0.1 0.5-0.1 0-0.2-0.1-0.4-0.2-0.5 0-0.1 0-0.1 0.1-0.1z"></path><path fill="#5994a5" d="m16.9 15.4c0.1 0.3 0.2 0.6 0.4 0.8v0.1c-0.1 0.2-0.1 0.3-0.3 0.1 0 0.5 0 1-0.1 1.5l-0.1-0.5c-0.1 0.2-0.3 0.3-0.4 0.3-0.1-0.3-0.2-0.4-0.4-0.2 0.1 0 0.1 0.1 0.1 0.2l-0.3 0.2 0.1 0.2c-0.2 0-0.4 0.1-0.5 0.2v-0.4c-0.2 0-0.3 0-0.4-0.1 0.1-0.3 0.2-0.5 0.5-0.7-0.2-0.1-0.3-0.2-0.5-0.2 0.1-0.1 0.1-0.2 0.1-0.4-0.2 0.2-0.4 0.2-0.5 0-0.1 0.1-0.2 0.2-0.3 0.3 0.2 0.2 0.1 0.2-0.2 0.2 0 0.2 0 0.3-0.1 0.4-0.1 0-0.1-0.1-0.2-0.2-0.3 0.2-0.6 0.2-1 0.2-0.1 0-0.2-0.1-0.4-0.2 0.2-0.2 0.2-0.4 0-0.5 0.2-0.3 0.3-0.3 0.4 0.1 0.1-0.1 0.1-0.2 0-0.3 0.1-0.1 0.3-0.1 0.4-0.1l-0.3-0.1c0.1-0.1 0.2-0.2 0.3-0.3 0.2-0.1 0.3 0 0.5 0.1-0.3 0-0.3 0.1 0 0.4-0.2 0-0.3 0.1-0.5 0.2l0.1 0.1c0.1-0.2 0.3-0.2 0.4 0 0.2-0.1 0.2-0.2 0.1-0.3 0.3-0.1 0.3-0.2 0-0.2 0.3-0.2 0.5-0.4 0.8-0.7l-0.4 0.8c0.1-0.1 0.3-0.2 0.4-0.3 0.1 0.1 0.1 0.2 0.2 0.3 0.2-0.1 0.3-0.3 0.3-0.5 0 0.2 0.1 0.5 0.3 0.6 0.1 0 0.2-0.1 0.3-0.1-0.4-0.2-0.4-0.4 0-0.5 0.3 0.1 0.3 0.2 0 0.2 0.4 0.1 0.7 0.3 1.1 0.4 0-0.1 0-0.2 0-0.3-0.4-0.2-0.3-0.3 0.1-0.4-0.1 0-0.1-0.1-0.2-0.2 0-0.1 0.1-0.2 0.2-0.2z"></path><path fill="#411e29" d="m17.6 16.1c0.2 0.3 0.4 0.7 0.6 1-0.1 0.2-0.1 0.5 0 0.7-0.1 0.1-0.2 0.1-0.3 0.1-0.1-0.2-0.2-0.4-0.3-0.6-0.1-0.3-0.2-0.7-0.3-1v-0.1c0-0.1 0-0.2 0.1-0.3 0.1 0 0.1 0.1 0.2 0.2z"></path><path fill="#181f3b" d="m8.2 16.7c0.1 0.2 0.1 0.5 0 0.7-0.2 0.4-0.2 0.7-0.3 1.1-0.1 0.2-0.2 0.5-0.3 0.7l-0.2-0.7c0.2 0 0.3-0.1 0.3-0.3-0.2 0.1-0.3 0.2-0.4 0.1v0.6h-0.5c0-0.5 0.1-0.5 0.2-0.1 0.1-0.2 0.1-0.4 0-0.6-0.4-0.1-0.8-0.1-1.2-0.1 0-0.3 0-0.4 0.2-0.1 0-0.2 0.2-0.4 0.4-0.4-0.2-0.3-0.4-0.3-0.7 0 0-0.2 0.1-0.4 0.1-0.6 0.2 0 0.4-0.1 0.6-0.3 0.1-0.1 0.3-0.2 0.5-0.4l0.1 0.5c0.2 0 0.3-0.1 0.5-0.3 0.2 0.3 0.4 0.3 0.7 0.2z"></path><path fill="#6e7781" d="m32.3 17.2h0.4c0 0.2-0.1 0.3-0.2 0.4-0.2 0-0.2-0.1-0.3-0.2l0.1-0.2z"></path><path fill="#407589" d="m23.5 16.7c0.2 0.2 0.5 0.5 0.6 0.9l-0.1 0.2c-0.1-0.2-0.3-0.3-0.5-0.2 0.2 0.1 0.3 0.2 0.5 0.4 0.1-0.1 0.2-0.1 0.4-0.1-0.2-0.1-0.2-0.2 0-0.2 0.1 0.3 0.2 0.3 0.2 0 0.1 0.3 0.2 0.7 0.3 1-0.2-0.2-0.4-0.4-0.4-0.7 0 0.1 0 0.2 0 0.3-0.2 0.1-0.3 0-0.4-0.2-0.2 0.1-0.2 0.3-0.2 0.5h-0.8c-0.1-0.4-0.1-0.7-0.1-1-0.2 0.2-0.2 0.4-0.3 0.6-0.1 0-0.3 0-0.5 0 0-0.2 0-0.4 0-0.5-0.1 0-0.1 0.1-0.2 0.1h-0.2c0.3-0.1 0.5-0.4 0.7-0.7 0.2 0.1 0.4 0.2 0.6 0.3 0.3-0.1 0.4-0.4 0.4-0.8z"></path><path fill="#5b222e" d="m19.7 16.8v0.2c-0.3 0.4-0.7 0.8-1 1.2-0.1 0.1-0.2 0.2-0.4 0.4-0.1-0.2-0.3-0.3-0.4-0.5v-0.2c0.1 0 0.2 0 0.3-0.1-0.1-0.2-0.1-0.5 0-0.7-0.1-0.1 0-0.2 0.1-0.2 0 0.3 0.1 0.5 0.4 0.6 0.1-0.2 0.3-0.5 0.5-0.7 0.2-0.2 0.4-0.2 0.5 0z"></path><path fill="#96cad4" d="m9.2 15.4h0.4c0.1 0 0.1 0 0.1 0.1-0.3 0.2-0.5 0.5-0.6 0.9 0.1 0.2 0.3 0.4 0.4 0.6l-0.1 0.2c-0.2 0.1-0.3 0.2-0.1 0.4-0.4 0.3-0.5 0.7-0.5 1.2-0.2-0.1-0.3-0.3-0.1-0.5-0.2-0.3-0.4-0.2-0.5 0.1 0.2 0.1 0.2 0.3 0 0.4-0.1-0.1-0.2-0.3-0.3-0.3 0.1-0.4 0.1-0.7 0.3-1.1 0.2-0.3 0.3-0.7 0.3-1.1 0.3-0.2 0.5-0.4 0.6-0.7 0.1 0 0.1-0.1 0.1-0.2z"></path><path fill="#2b4e66" d="m15 16.9c0.2 0 0.3 0.1 0.5 0.2-0.3 0.2-0.4 0.4-0.5 0.7 0.1 0.1 0.2 0.1 0.4 0.1v0.4c-0.1 0.3-0.2 0.3-0.4 0.1 0.1 0 0.2-0.1 0.1-0.3-0.1 0.1-0.3 0.1-0.4 0.1 0-0.2-0.1-0.4-0.2-0.6 0.1-0.1 0-0.2-0.2-0.2 0.2-0.1 0.3-0.2 0.4-0.3 0.2 0.1 0.3 0 0.3-0.2z"></path><path fill="#4b7a90" d="m17.3 16.3c0.1 0.3 0.2 0.7 0.3 1 0 0.2 0 0.4-0.2 0.5l0.1 0.1c-0.3 0.5-0.7 0.5-1.1 0.2 0.1-0.1 0.1-0.3 0-0.4 0.1 0 0.3-0.1 0.4-0.3l0.1 0.5c0.1-0.5 0.1-1 0.1-1.5 0.2 0.2 0.2 0.1 0.3-0.1z"></path><path fill="#0a0b22" d="m6.1 16c-0.2 0.1-0.3 0.3-0.4 0.5 0-0.2-0.1-0.2-0.2 0-0.3-0.4-0.5-0.4-0.5 0-0.1 0-0.1-0.1-0.2-0.2 0 0.2 0 0.3 0 0.5 0.1-0.1 0.2 0 0.3 0-0.1 0.2-0.1 0.3-0.1 0.5-0.2-0.4-0.2-0.4-0.2 0.1 0.2 0 0.4 0 0.7 0.2-0.2 0.1-0.3 0.1-0.5 0.1 0 0.1 0 0.2-0.1 0.3 0-0.2-0.1-0.3-0.1-0.1 0.1 0.2 0.1 0.3 0.2 0.4 0 0.3-0.1 0.3-0.2 0.2-0.1 0-0.2 0.1-0.1 0.3-0.4 0-0.8 0-1.1 0.1l-0.5-0.2c-0.4 0-0.9 0-1.4 0.1-0.5-0.2-1.1-0.3-1.8-0.2v-2c0.4 0 0.7-0.1 1.1-0.1 0.1 0.1 0.2 0.1 0.2 0.3 0.3-0.2 0.6-0.3 0.9-0.3 0.4 0 0.8 0.1 1.2 0.3 0.4-0.1 0.9-0.1 1.4 0 0-0.3-0.1-0.5-0.3-0.7l0.2-0.1c0.5 0 1 0 1.5 0z"></path><path fill="#5c94a5" d="m19.7 17c0.1 0.1 0.2 0.2 0.3 0.4 0.1 0 0.2 0 0.3-0.1 0.1 0.1 0.2 0.1 0.2 0.2-0.2 0.2-0.2 0.4-0.2 0.6-0.1 0-0.1-0.1-0.2-0.1-0.2 0.2-0.3 0.4-0.4 0.7-0.3 0-0.3-0.1-0.1-0.2-0.1-0.2-0.3-0.2-0.5 0-0.2-0.1-0.3-0.2-0.4-0.3 0.3-0.4 0.7-0.8 1-1.2z"></path><path fill="#9ed8e1" d="m27.7 17.4c0.2 0 0.5 0 0.7-0.1 0.2 0.3 0.3 0.7 0.5 1l-0.3 0.5c0-0.2 0-0.4-0.1-0.6-0.1 0.3-0.2 0.3-0.3 0.1-0.1-0.3-0.3-0.6-0.5-0.9z"></path><path fill="#020208" d="m35.9 17.9v3.2c-0.6 0-1.2 0-1.8-0.1 0-0.9 0-1.8 0.2-2.8 0.1-0.2 0.3-0.2 0.5-0.1 0.3-0.2 0.7-0.3 1.1-0.2z"></path><path fill="#64aaba" d="m9.4 17.2c0 0.1 0 0.2 0.1 0.2 0-0.1 0.1-0.1 0.1 0l-0.3 0.5c0.2 0.2 0.3 0.2 0.4 0 0.2 0.2 0.2 0.4-0.1 0.6-0.1-0.2-0.2-0.3-0.3-0.2l0.1 0.1c-0.2 0.1-0.3 0.2-0.3 0.4h-0.3c0-0.5 0.1-0.9 0.5-1.2-0.2-0.2-0.1-0.3 0.1-0.4z"></path><path fill="#091326" d="m31.4 17c0.1 0.1 0.2 0.2 0.2 0.3 0.2 0 0.4 0.1 0.6 0.1 0.1 0.1 0.1 0.2 0.3 0.2-0.2 0.2-0.1 0.3 0.2 0.3 0.4 0 0.9 0 1.3 0-0.1 0.1-0.3 0.2-0.6 0.3l-0.1-0.1c-0.2 0.2-0.3 0.4-0.4 0.7 0.1 0.5 0.2 1 0.2 1.5-0.2 0.2-0.3 0.3-0.4 0.6 0.2 0 0.4 0.2 0.5 0.4-0.7 0.1-1.3 0.1-2 0-0.1-0.3-0.2-0.5-0.3-0.8 0-0.1 0.1-0.3 0.2-0.4 0 0-0.1-0.1-0.1-0.1 0.1-0.2 0.2-0.2 0.3-0.2-0.1-0.1-0.3-0.1-0.4-0.1 0-0.3 0.1-0.5 0.3-0.7l0.1 0.2c0.1-0.5 0.3-0.5 0.5 0 0.1-0.2 0-0.3-0.1-0.5 0-0.1 0-0.1 0.1-0.2-0.4 0-0.6-0.2-0.5-0.6l-0.3-0.1c0.2-0.1 0.3-0.2 0.3-0.4 0.1-0.1 0.1-0.3 0.1-0.4z"></path><path fill="#050612" d="m35.9 17.4v0.5c-0.4-0.1-0.8 0-1.1 0.2-0.2-0.1-0.4-0.1-0.5 0.1-0.2 1-0.2 1.9-0.2 2.8 0.6 0.1 1.2 0.1 1.8 0.2v0.1h-2.7c-0.1-0.2-0.3-0.4-0.5-0.4 0.1-0.3 0.2-0.4 0.4-0.6 0-0.5-0.1-1-0.2-1.5 0.1-0.3 0.2-0.5 0.4-0.7l0.1 0.1c0.3-0.1 0.5-0.2 0.6-0.3 0-0.3 0-0.6 0.1-0.9 0 0.1 0.1 0.3 0 0.4 0.6 0 1.2 0 1.8 0z"></path><path fill="#6498a9" d="m23.1 18.6c-0.7 0-0.7 0.1 0.1 0.1-0.3 0-0.6 0.1-0.9 0.3-0.2-0.4-0.3-0.8-0.3-1.2 0.1 0 0.1-0.1 0.2-0.1 0 0.1 0 0.3 0 0.5 0.2 0 0.4 0 0.5 0 0.1-0.2 0.1-0.4 0.3-0.7 0 0.4 0 0.7 0.1 1.1z"></path><path fill="#9bc7d0" d="m14 17.4c0.2 0.4 0.3 0.9 0.2 1.4v0.2c0 0-0.1 0.1-0.1 0.1-0.2-0.2-0.4-0.2-0.7-0.2 0-0.6 0.1-0.7 0.2-0.1 0.1-0.1 0.2-0.2 0.3-0.3-0.1-0.5-0.3-0.5-0.6-0.1-0.1 0.1-0.1 0.3 0 0.4 0 0.1-0.1 0.1-0.2 0.1-0.1-0.2-0.3-0.2-0.4-0.2-0.1 0.3-0.2 0.5-0.2 0.8-0.3 0.1-0.4 0-0.4-0.3 0-0.3 0.1-0.6 0.2-0.9-0.1-0.2-0.2-0.2-0.4-0.1 0-0.1 0.1-0.2 0.2-0.4l-0.6-0.1c0.5 0 0.9-0.1 1.3-0.3 0.4 0 0.7 0 1-0.2 0.1 0.1 0.1 0.2 0.2 0.2z"></path><path fill="#8bb9c2" d="m16.4 17.7c0.1 0.1 0.1 0.3 0 0.4 0.4 0.3 0.8 0.3 1.1-0.2l-0.1-0.1c0.2-0.1 0.2-0.3 0.2-0.5 0.1 0.2 0.2 0.4 0.3 0.6v0.2c0.1 0.6 0.4 0.7 0.8 0.3 0.2 0.1 0.3 0.2 0.3 0.4h-1.7c0 0.4-0.1 0.7-0.3 1 0.1-0.3 0.1-0.6 0-1-0.2 1-0.4 1-0.6 0-0.1 0.2-0.2 0.4-0.2 0.7 0-0.3-0.1-0.5-0.2-0.7-0.1 0.5 0 0.9 0.3 1.3-0.3 0.3-0.4 0.7-0.3 1.2 0.1-0.2 0.2-0.4 0.2-0.6 0 0.2 0.1 0.4 0.2 0.6 0-0.3 0.2-0.6 0.3-0.8 0.1 0.1 0.2 0.2 0.2 0.4-0.1 0.2-0.1 0.4-0.1 0.6 0.5 0 0.7-0.3 0.7-0.8 0.4 0 0.7 0.2 0.9 0.4-0.3 0.2-0.5 0.2-0.6-0.1-0.1 0.3-0.2 0.5-0.4 0.7 0.1 0.1 0.2 0.1 0.3 0.2-0.1 0.8-0.2 0.8-0.3 0-0.2 0-0.3 0-0.5 0.1 0.1 0.1 0.2 0.2 0.1 0.4 0 0-0.1-0.1-0.1-0.1-0.2 0.1-0.4 0.1-0.6 0.1l0.5 0.2c-0.1 0-0.2 0.1-0.2 0.2-0.2 0-0.4 0-0.6 0.1-0.1-0.2-0.1-0.5-0.1-0.9 0.3 0.1 0.6 0 0.9 0-0.2-0.1-0.4-0.1-0.7-0.1v-0.3c-0.1 0-0.3 0.1-0.5 0.2-0.2-0.2-0.5-0.3-0.8-0.4 0.2 0 0.3-0.1 0.1-0.3 0.3 0.2 0.5 0.2 0.8 0.1-0.2-0.1-0.4-0.2-0.6-0.3 0.2 0 0.4 0 0.6 0-0.3-0.1-0.6-0.2-0.7-0.5 0.1-0.1 0.2-0.2 0.4-0.2 0 0.2 0.1 0.3 0.1 0.5 0.1-0.1 0.2-0.1 0.3 0 0.1-0.4 0-0.7-0.3-1 0 0.1-0.1 0.1-0.1 0.1v-0.1c0.1-0.1 0.2-0.2 0.3-0.4-0.1-0.1-0.3-0.2-0.6-0.2-0.2 0.1-0.4 0.1-0.6 0 0.4-0.1 0.9-0.1 1.3-0.1-0.5-0.3-0.9-0.4-1.5-0.2 0.1-0.4 0.3-0.5 0.7-0.4 0.2 0.2 0.3 0.2 0.4-0.1 0.1-0.1 0.3-0.2 0.5-0.2l-0.1-0.2 0.3-0.2c0-0.1 0-0.2-0.1-0.2 0.2-0.2 0.3-0.1 0.4 0.2z"></path><path fill="#517b8d" d="m22 18.8c0 0.1 0 0.3 0.1 0.4-0.1 0.1-0.1 0.2-0.2 0.3 0-0.5-0.2-0.7-0.6-0.6 0-0.1 0-0.1-0.1-0.1-0.1 0.7-0.1 1.4-0.1 2.1h-0.1v-0.8h-0.9c-0.1 0.4 0 0.8 0.1 1.2 0.1-0.1 0.1-0.1 0.1-0.2 0.1 0.2 0.3 0.3 0.5 0.4-0.2 0.2-0.4 0.2-0.6 0.2 0.1 0.1 0.2 0.2 0.2 0.2h-0.5c-0.1-0.1-0.2-0.2-0.3-0.3-0.2-0.1-0.5-0.2-0.6-0.3 0.1-0.1 0.2-0.2 0.2-0.4 0.2 0 0.4 0 0.5-0.1 0 0.2 0.1 0.3 0.2 0.5 0.1-0.4 0.1-0.8 0.1-1.2h-0.4v-0.1h0.4c0-0.4 0-0.8-0.1-1.2-0.2 0.2-0.2 0.4-0.2 0.7-0.1 0-0.2 0-0.3-0.1 0.1-0.1 0.2-0.2 0.2-0.3-0.2-0.1-0.3-0.2-0.4-0.3h-0.2c0-0.2-0.1-0.3-0.3-0.3-0.4 0.3-0.7 0.2-0.8-0.4 0.1 0.2 0.3 0.3 0.4 0.5 0.2-0.2 0.3-0.3 0.4-0.4 0.1 0.1 0.2 0.2 0.4 0.3 0.2-0.2 0.4-0.2 0.5 0-0.2 0.1-0.2 0.2 0.1 0.2 0.1-0.3 0.2-0.5 0.4-0.7 0.1 0 0.1 0.1 0.2 0.1 0.1 0.1 0.2 0.2 0.2 0.3 0.5-0.1 0.6-0.3 0.5-0.7 0.3 0.4 0.6 0.8 1 1.1z"></path><path fill="#dff6f9" d="m8.8 18.8h0.8c0.1 0.6 0 1.1-0.1 1.7l-0.1 0.2c-0.1-0.1-0.1-0.2-0.1-0.3-0.3 0.3-0.6 0.5-1 0.5 0-0.5 0-1.1-0.1-1.7-0.1 0.7-0.1 1.3 0.1 2 0.1-0.2 0.3-0.2 0.4 0-0.2 0.1-0.5 0.1-0.8 0.1v-0.5c0-0.7 0-1.4 0.3-2 0.2-0.1 0.2-0.3 0-0.4 0.1-0.3 0.3-0.4 0.5-0.1-0.2 0.2-0.1 0.4 0.1 0.5z"></path><path fill="#6294a3" d="m19.2 18.8c0.1 0.1 0.2 0.2 0.4 0.3 0 0.1-0.1 0.2-0.2 0.3 0.1 0.1 0.2 0.1 0.3 0.1v0.3c-0.1 0-0.2 0-0.3 0.1 0.1 0.1 0.1 0.1 0.2 0.1v0.1c-0.1 0-0.1 0.1-0.2 0.2 0.1 0 0.2 0.1 0.3 0.1v0.4c-0.1 0.1-0.3 0.1-0.5 0.1l-0.2-0.3c-0.4 0.1-0.6-0.1-0.7-0.5 0.1-0.5 0.4-0.7 0.9-0.8-0.3-0.1-0.5-0.2-0.8-0.2 0.3 0 0.6-0.1 0.8-0.3z"></path><path fill="#d8edf1" d="m23.1 18.6h0.2c0.5 0.1 0.9 0.3 1.3 0.5 0.1-0.1 0.1-0.2 0.2-0.3 0.1 0.2 0.2 0.5 0.1 0.8-0.2-0.2-0.3-0.3-0.5-0.4-0.2-0.2-0.4-0.2-0.7-0.2v2.3c-0.1-0.8-0.2-1.6-0.2-2.4-0.1 0.8-0.2 1.6-0.3 2.4v-2.3c-0.5 0-0.9 0.2-1.1 0.7-0.1 0.3-0.4 0.4-0.7 0.2 0.2-0.1 0.3-0.1 0.4-0.2l0.1-0.2c0.1-0.1 0.1-0.2 0.2-0.3-0.1-0.1-0.1-0.3-0.1-0.4 0.1 0.1 0.2 0.2 0.3 0.2 0.3-0.2 0.6-0.3 0.9-0.3-0.8 0-0.8-0.1-0.1-0.1z"></path><path fill="#d4e9ee" d="m28.9 18.3c0.1 0.4 0.1 0.7 0 1.1h-0.9v0.4c0.1 0 0.3 0 0.5 0.1-0.2 0-0.5 0-0.8 0 0-0.3 0-0.6 0.1-0.8l-0.1-0.1c-0.1 0.5-0.1 1 0.1 1.5 0-0.1 0.1-0.2 0-0.4 0.3 0 0.5 0 0.7 0.1-0.5 0-0.6 0.2-0.1 0.4 0.2 0.1 0.3 0 0.5-0.1 0 0.1 0 0.2 0.1 0.3-0.3 0.1-0.6 0.1-0.8 0.1 0.2 0.1 0.5 0.2 0.8 0.3-0.1 0.1-0.3 0.1-0.4 0.1h-0.2c-0.2-0.1-0.4-0.2-0.6-0.4-0.3-0.4-0.5-0.8-0.4-1.4 0-0.3 0.1-0.5 0.2-0.7h1l0.3-0.5z"></path><path fill="#83a3ad" d="m11.9 18.2c-0.1 0.2 0 0.4 0.2 0.5-0.3 0.4-0.3 0.8 0.1 1.2 0.2 0 0.3 0 0.4-0.2 0.1-0.3 0.2-0.5 0.2-0.8 0.2 0.5 0 0.9-0.4 1.2 0.4 0.3 0.6 0.7 0.5 1.2h-0.1c0-0.5-0.1-0.8-0.5-1-0.1 0-0.2 0.1-0.3 0.2 0-0.2 0.1-0.3 0.2-0.4-0.1-0.2-0.3-0.3-0.4-0.3v-0.1c0-0.3 0-0.6-0.2-0.9-0.1 0.3-0.1 0.6 0 0.9-0.1-0.2-0.3-0.3-0.5-0.2-0.2 0-0.3 0.1-0.1 0.3-0.2-0.1-0.4-0.1-0.6-0.1v-0.4c0.3 0.1 0.7 0 1 0-0.4-0.1-0.8-0.1-1.2-0.1v0.7h0.8v0.2c-0.9-0.1-1 0.1-0.4 0.7 0.2 0.1 0.5 0.1 0.7 0.1-0.1-0.1-0.2-0.1-0.2-0.2 0.1 0 0.2 0 0.3 0.1 0 0.2 0 0.3-0.1 0.5-1.1-0.4-1.5-1.1-1.2-2.3 0.4 0 0.8 0 1.2-0.1 0-0.1-0.1-0.1-0.2-0.1v-0.3h0.4c0-0.2 0-0.3 0.1-0.4 0.1 0.1 0.2 0.1 0.3 0.1z"></path><path fill="#def8fb" d="m11 19.8v0.1h-0.8v-0.7c0.4 0 0.8 0 1.2 0.1-0.3 0-0.7 0.1-1 0v0.4c0.2 0 0.4 0 0.6 0.1z"></path><path fill="#e0fcfe" d="m11.8 19.7h-0.2c-0.1-0.3-0.1-0.6 0-0.9 0.2 0.3 0.2 0.6 0.2 0.9z"></path><path fill="#dff0f4" d="m19 18.8h0.2c-0.2 0.2-0.5 0.3-0.8 0.3 0.3 0 0.5 0.1 0.8 0.2-0.5 0.1-0.8 0.3-0.9 0.8 0.1 0.4 0.3 0.6 0.7 0.5l0.2 0.3c0 0.2-0.1 0.3-0.2 0.4h-0.2l-0.4-0.1c-0.2-0.3-0.5-0.5-0.9-0.5 0 0.5-0.2 0.8-0.7 0.8 0-0.2 0-0.4 0.1-0.6 0-0.2-0.1-0.3-0.2-0.4-0.1 0.2-0.3 0.5-0.3 0.8-0.1-0.2-0.2-0.4-0.2-0.6 0 0.2-0.1 0.4-0.2 0.6-0.1-0.5 0-0.9 0.3-1.2-0.3-0.4-0.4-0.8-0.3-1.3 0.1 0.2 0.2 0.4 0.2 0.7 0-0.3 0.1-0.5 0.2-0.7 0.2 1 0.4 1 0.6 0 0.1 0.4 0.1 0.7 0 1 0.2-0.3 0.3-0.6 0.3-1h1.7z"></path><path fill="#e2f0f6" d="m19.6 20c-0.1 0-0.1 0-0.2-0.1 0.1-0.1 0.2-0.1 0.3-0.1v-0.3c0-0.3 0-0.5 0.2-0.7 0.1 0.4 0.1 0.8 0.1 1.2h-0.4z"></path><path fill="#eaf6f9" d="m20.1 18.8c0.2 0.3 0.3 0.6 0.2 1h0.5c-0.1-0.3 0-0.7 0.1-1 0.1 0.4 0.1 0.8 0.1 1.2h-0.9v-1.2z"></path><path fill="#496272" d="m27.6 18.8c-0.1 0.2-0.2 0.4-0.2 0.7-0.1 0.6 0.1 1 0.4 1.4-0.2 0-0.3-0.1-0.5-0.2v-0.9c-0.3 0-0.6 0-0.9 0.1 0.2 0.1 0.4 0.2 0.7 0.1v1.2c-0.3 0-0.5-0.1-0.7-0.2 0.1-0.1 0.3-0.1 0.4-0.1v-0.8c-0.4 0-0.5 0.1-0.2 0.4 0 0.2-0.1 0.2-0.2 0.1-0.4-0.3-0.6-0.7-0.5-1.2 0.5 0 0.9-0.1 1.4-0.2-0.5-0.1-1.1-0.1-1.6-0.1 0 0.5 0.1 1 0.2 1.5-0.1-0.1-0.2-0.2-0.3-0.3 0-0.5 0-0.9 0-1.3h1.6c0 0 0.1 0 0.1-0.1l-1-0.1c-0.4 0-0.7 0-1 0-0.1-0.2-0.2-0.4-0.3-0.6 0.3-0.1 0.5 0 0.6 0.4 0.2-0.3 0.3-0.3 0.5 0 0.1-0.3 0-0.4-0.2-0.6 0.1-0.1 0.2-0.1 0.4-0.1 0 0.1 0 0.3 0 0.4 0.1-0.1 0.2-0.1 0.2 0l0.2-0.3c0.2 0.2 0.4 0.4 0.6 0.7-0.1-0.2 0-0.3 0.1-0.5 0.1 0.1 0.2 0.1 0.2 0.1 0 0.2 0 0.3 0 0.5z"></path><path fill="#54909e" d="m14.2 19v0.9c-0.1 0.2-0.3 0.3-0.5 0.1-0.2 0.2-0.5 0.3-0.8 0.3-0.1-0.1-0.1-0.1-0.1-0.2 0.2-0.3 0.3-0.7 0.3-1.2 0.1 0 0.2 0 0.2-0.1-0.1-0.1-0.1-0.3 0-0.4 0.3-0.4 0.5-0.4 0.6 0.1-0.1 0.1-0.2 0.2-0.3 0.3-0.1-0.6-0.2-0.5-0.2 0.1 0.3 0 0.5 0 0.7 0.2 0 0 0.1-0.1 0.1-0.1z"></path><path fill="#254c63" d="m21.9 19.5l-0.1 0.2h-0.4c0.1-0.2 0-0.3-0.1-0.3 0.1-0.2 0.1-0.3 0-0.5 0.4-0.1 0.6 0.1 0.6 0.6z"></path><path fill="#4b808f" d="m15.7 19.4c-0.1 0.1-0.2 0.2-0.3 0.3h-0.6v-0.3h0.9z"></path><path fill="#9eb5be" d="m9.3 20.4v-1.3c-0.2 0-0.4 0-0.6 0 0.3-0.1 0.5-0.1 0.8-0.1 0.1 0.5 0 0.9-0.2 1.4z"></path><path fill="#abc0c7" d="m25 18.9v-0.1h0.3c0.3 0 0.6 0 1 0l1 0.1c0 0.1-0.1 0.1-0.1 0.1-0.6-0.1-1.1-0.1-1.7-0.1v1.4h-0.2c0-0.4 0-0.8-0.1-1.2 0-0.1-0.1-0.2-0.2-0.2z"></path><path fill="#def1f6" d="m21.3 18.9c0.1 0.2 0.1 0.3 0 0.5v1.9c-0.2-0.1-0.2-0.2-0.2-0.4 0-0.7 0-1.4 0.1-2.1 0.1 0 0.1 0 0.1 0.1z"></path><path fill="#b2c6ce" d="m24.4 19.2h-0.5c-0.1 0.6-0.1 1.3-0.2 2.1v-2.3c0.3 0 0.5 0 0.7 0.2z"></path><path fill="#879aa0" d="m16.5 19.8c0.5 0.3 0.7 0.7 0.7 1.2 0-0.2-0.2-0.5-0.4-0.7-0.1-0.1-0.3 0-0.4 0.2 0-0.2 0-0.3 0.2-0.4-0.1-0.1-0.1-0.2-0.1-0.3z"></path><path fill="#9dc6ce" d="m17.4 19.6c0.1 0 0.1 0 0.2 0.1 0 0.3 0 0.6-0.1 0.9-0.1-0.2-0.3-0.3-0.3-0.5 0.1-0.2 0.1-0.3 0.2-0.5z"></path><path fill="#e1f4f9" d="m22.9 20h-0.8v-0.3c0.1-0.1 0.2-0.2 0.3-0.2 0.1 0 0.1 0 0.2 0.1-0.1 0-0.2 0.1-0.3 0.1 0.2 0.1 0.3 0.1 0.5 0.1 0.1-0.2 0.1-0.4 0.1-0.6 0.1 0.3 0.1 0.6 0 0.8z"></path><path fill="#e1f4f7" d="m13.1 18.9c0 0.5-0.1 0.9-0.3 1.2 0 0.1 0 0.1 0.1 0.2 0.3 0.3 0.3 0.7 0 1 0.1-0.5-0.1-0.9-0.5-1.2 0.4-0.3 0.6-0.7 0.4-1.2 0 0.3-0.1 0.5-0.2 0.8-0.1 0.2-0.2 0.2-0.4 0.2-0.4-0.4-0.4-0.8-0.1-1.2-0.2-0.1-0.3-0.3-0.2-0.5 0.2-0.1 0.3-0.1 0.4 0.1-0.1 0.3-0.2 0.6-0.2 0.9 0 0.3 0.1 0.4 0.4 0.3 0-0.3 0.1-0.5 0.2-0.8 0.1 0 0.3 0 0.4 0.2z"></path><path fill="#6f8993" d="m24.9 18.7c0.1 0 0.1 0 0.1 0.1v2.5h-0.1c0.2-0.8 0-1.5-0.5-2.1 0.2 0.1 0.3 0.2 0.5 0.4 0.1-0.3 0-0.6-0.1-0.8-0.1 0.1-0.1 0.2-0.2 0.3-0.4-0.2-0.8-0.4-1.3-0.5h0.6c0-0.2 0-0.4 0.2-0.5 0.1 0.2 0.2 0.3 0.4 0.2 0-0.1 0-0.2 0-0.3 0 0.3 0.2 0.5 0.4 0.7z"></path><path fill="#598290" d="m28.9 19.4c0 0.3 0 0.7 0 1.1-0.2 0.1-0.3 0.2-0.5 0.1-0.5-0.2-0.4-0.4 0.1-0.4-0.2-0.1-0.4-0.1-0.7-0.1 0.1 0.2 0 0.3 0 0.4-0.2-0.5-0.2-1-0.1-1.5l0.1 0.1c-0.1 0.2-0.1 0.5-0.1 0.8 0.3 0 0.6 0 0.8 0-0.2-0.1-0.4-0.1-0.5-0.1v-0.4h0.9z"></path><path fill="#558e9f" d="m11.6 19.7h0.2v0.1c0 0.1 0 0.2 0.1 0.3-0.2 0.2-0.3 0.4-0.4 0.7h-0.1c-0.1-0.1-0.2-0.1-0.3-0.1-0.7-0.2-0.7-0.4-0.1-0.6v-0.3c-0.2-0.2-0.1-0.3 0.1-0.3 0.2-0.1 0.4 0 0.5 0.2z"></path><path fill="#e3f8fb" d="m11.8 19.8c0.1 0 0.3 0.1 0.4 0.3-0.1 0.1-0.2 0.2-0.2 0.4-0.2 0.2-0.3 0.5-0.5 0.8v-0.5c0.1-0.3 0.2-0.5 0.4-0.7-0.1-0.1-0.1-0.2-0.1-0.3z"></path><path fill="#e6f8fb" d="m21 20.9c0 0.2 0 0.3-0.1 0.4-0.1-0.3-0.2-0.6-0.1-0.9h-0.5v0.8c0 0 0 0-0.1 0.1-0.1-0.4-0.2-0.8-0.1-1.2h0.9v0.8z"></path><path fill="#191f39" d="m7.6 19.2c-0.1 0.5-0.1 0.9-0.1 1.4-0.2 0-0.3 0-0.5 0 0.2 0.1 0.3 0.1 0.4 0.2-0.2 0.3-0.4 0.2-0.5-0.1 0 0.2 0 0.4 0.1 0.6 0 0.2-0.1 0.3-0.2 0.3-0.1-0.2-0.2-0.3-0.4-0.3v-0.5c-0.1 0.1-0.1 0.1-0.2 0.1-0.2-0.1-0.4-0.2-0.5-0.3 0-0.1-0.1-0.1-0.1-0.2 0.3-0.2 0.2-0.4-0.1-0.6l-0.1 0.1c0-0.3-0.1-0.6-0.2-0.9-0.1 0.2-0.1 0.5-0.2 0.7-0.1-0.1-0.2-0.1-0.2 0l0.5 0.6c0.1 0.4-0.1 0.5-0.4 0.2-0.1 0.1-0.3 0.2-0.5 0.2-0.2-0.1-0.5-0.2-0.7-0.2l-0.7-0.1c-0.2-0.1-0.3-0.3-0.4-0.5-0.2 0.7-0.3 0.7-0.3 0-0.1 0.6-0.2 0.6-0.3 0 0 0.7-0.1 0.7-0.3 0.1-0.1 0.3-0.2 0.3-0.2 0-0.1 0.3-0.2 0.3-0.3 0l-0.1 0.3c0-0.3-0.1-0.4-0.3-0.6 0.3 0 0.6-0.1 0.8-0.3 0.1 0 0.1 0.1 0.1 0.3 0.1-0.1 0.2-0.3 0.2-0.5-0.4 0.1-0.7 0-1.1 0 0.6 0 1.1-0.1 1.6-0.2-0.8-0.1-1.6-0.1-2.5-0.1v-0.3c0.7-0.1 1.3 0 1.8 0.2 0.5-0.1 1-0.1 1.5-0.1l0.4 0.2c0.3-0.1 0.7-0.1 1.1-0.1-0.1-0.2 0-0.3 0.1-0.3 0 0.1 0 0.3 0.2 0.4 0.2-0.2 0.3-0.4 0.3-0.7 0-0.1-0.1-0.1-0.2-0.1 0.1-0.2 0.2-0.2 0.3-0.1 0-0.1 0.1-0.2 0.2-0.3-0.1 0.3-0.1 0.7-0.1 1.1h0.3v-0.3h0.6c-0.1 0.1 0 0.2 0 0.3 0.1-0.4 0.2-0.4 0.2 0.1h-1.1v0.3h0.4c0 0.5 0.1 0.5 0.2 0 0.2 0.2 0.3 0.1 0.4-0.1 0.3 0.1 0.7 0.1 1.1 0.1z"></path><path fill="#ddf2f5" d="m15.7 19.4h-0.9v0.3h0.6v0.1c-0.3 0.1-0.5 0.1-0.8 0.1-0.2-0.2-0.2 0 0 0.7 0.2 0.2 0.3 0.3 0.5 0.3 0.2 0.1 0.4 0.2 0.6 0.3-0.3 0.1-0.5 0.1-0.8 0-0.4-0.3-0.6-0.8-0.7-1.3v-1.1h0.1c0.6-0.2 1-0.1 1.5 0.2-0.4 0-0.9 0-1.3 0.1 0.2 0.1 0.4 0.1 0.6 0 0.3 0 0.5 0.1 0.6 0.3z"></path><path fill="#5f96a4" d="m8.5 19.4h0.7c0.1 0.5-0.2 1-0.6 1.3-0.1-0.4-0.1-0.9-0.1-1.3z"></path><path fill="#ddf2f6" d="m10.5 18.8h0.6c0.1 0 0.2 0 0.2 0.1-0.4 0.1-0.8 0.1-1.2 0.1-0.3 1.2 0.1 1.9 1.2 2.3h-0.7c-0.2-0.2-0.4-0.5-0.6-0.7-0.1-0.3-0.2-0.7-0.2-1v-0.8h0.7z"></path><path fill="#e4f3f6" d="m23.9 19.2h0.5c0.5 0.6 0.7 1.3 0.5 2.1-0.2-0.4-0.3-0.9-0.3-1.4 0-0.2-0.2-0.4-0.4-0.4-0.1 0.4-0.1 0.9-0.1 1.3 0.1 0.2 0 0.3-0.1 0.5-0.1-0.7-0.1-1.4-0.1-2.1z"></path><path fill="#eafdfe" d="m25 18.9c0.1 0 0.2 0.1 0.2 0.2 0.1 0.4 0.1 0.8 0.1 1.2 0 0.3 0 0.6-0.2 1h-0.1v-2.4z"></path><path fill="#1d233f" d="m-0.1 18.9c0.9 0 1.7 0 2.5 0.1-0.5 0.1-1 0.2-1.6 0.2 0.4 0 0.7 0.1 1.1 0 0 0.2-0.1 0.4-0.2 0.5 0-0.2 0-0.3-0.1-0.3-0.2 0.2-0.5 0.3-0.8 0.3 0.2 0.2 0.3 0.3 0.3 0.6l0.1-0.3c0.1 0.3 0.2 0.3 0.3 0 0 0.3 0.1 0.3 0.2 0 0.2 0.6 0.3 0.6 0.3-0.1 0.1 0.6 0.2 0.6 0.3 0 0 0.7 0.1 0.7 0.3 0 0.1 0.2 0.2 0.4 0.4 0.5-0.2 0.1-0.4 0.2-0.6 0.2 0 0.1 0 0.3 0 0.4-0.2-0.2-0.3-0.2-0.3 0.2-0.7-0.1-1.4-0.2-2.2-0.3v-2z"></path><path fill="#e4f6fa" d="m11 20.1c-0.6 0.2-0.6 0.4 0.1 0.6 0 0.1 0.1 0.1 0.2 0.2-0.2 0-0.5 0-0.7-0.1-0.6-0.6-0.5-0.8 0.4-0.7z"></path><path fill="#6f8f9c" d="m15.4 19.8c0 0 0.1 0 0.1-0.1 0.3 0.3 0.4 0.6 0.3 1-0.1-0.1-0.2-0.1-0.3 0 0-0.2-0.1-0.3-0.1-0.4-0.1-0.2-0.2-0.3-0.4-0.3l-0.4 0.1c0.1 0.3 0.3 0.6 0.5 0.8-0.2 0-0.3-0.1-0.5-0.3-0.2-0.7-0.2-0.9 0-0.7 0.3 0 0.5 0 0.8-0.1z"></path><path fill="#dff3f6" d="m15.4 20.3c-0.2-0.1-0.3 0-0.4 0.1 0.1 0.3 0.4 0.4 0.7 0.5-0.2 0-0.4 0-0.6 0-0.2-0.2-0.4-0.5-0.5-0.8l0.4-0.1c0.2 0 0.3 0.1 0.4 0.3z"></path><path fill="#ebf4f7" d="m19.6 20.1h0.4c0 0.4 0 0.8-0.1 1.2-0.1-0.2-0.2-0.3-0.2-0.5v-0.4c-0.1 0-0.2-0.1-0.3-0.1 0.1-0.1 0.1-0.2 0.2-0.2z"></path><path fill="#aabbc1" d="m23.2 21.3c-0.1 0.1-0.1 0.1-0.2 0 0-0.4 0-0.8-0.1-1.2v-0.1c0.1-0.2 0.1-0.5 0-0.8 0 0.2 0 0.4-0.1 0.6 0-0.3-0.1-0.4-0.2-0.2-0.1-0.1-0.1-0.1-0.2-0.1-0.1 0-0.2 0.1-0.3 0.2 0.2-0.5 0.6-0.7 1.1-0.7v2.3z"></path><path fill="#dae8ec" d="m27.2 19h-1.6c0 0.4 0 0.8 0 1.3 0.1 0.1 0.2 0.2 0.3 0.3-0.1-0.5-0.2-1-0.2-1.5 0.5 0 1.1 0 1.6 0.1-0.5 0.1-0.9 0.2-1.4 0.2-0.1 0.5 0.1 0.9 0.5 1.2 0.1 0.1 0.2 0.1 0.2-0.1-0.3-0.3-0.2-0.4 0.2-0.4v0.8c-0.1 0-0.3 0-0.4 0.1 0.2 0.1 0.4 0.2 0.7 0.1v-1.1c-0.3 0.1-0.5 0-0.7-0.1 0.3-0.1 0.6-0.1 0.9-0.1v1.5c-0.4 0-0.8-0.1-1.1-0.2-0.4-0.2-0.6-0.5-0.7-0.9v-1.3c0.6 0 1.1 0 1.7 0.1z"></path><path fill="#2d334c" d="m5.7 20.6c0 0.2-0.1 0.2-0.2 0.1 0 0.1-0.1 0.2-0.2 0.2-0.2 0-0.3 0.1-0.5 0.3l-0.1-0.4c-0.4 0.8-0.4 1.6-0.2 2.5 0.1 0.2 0.2 0.4 0.4 0.5-0.1 0.2-0.2 0.2-0.3-0.1l-0.1 0.2c-0.1-0.2-0.2-0.4-0.2-0.6-0.5-0.1-0.5 0.1-0.2 0.6-0.1 0-0.2 0-0.3 0.1-0.2-0.3-0.2-0.6 0-0.9 0.4-0.1 0.5-0.3 0.3-0.7 0.1-0.5 0.2-0.9 0.3-1.3-0.2-0.2-0.5-0.4-0.7-0.6 0.2 0 0.5 0.1 0.7 0.2 0.2 0 0.4-0.1 0.5-0.2 0.3 0.3 0.5 0.2 0.4-0.2l-0.5-0.6c0-0.1 0.1-0.1 0.2 0 0.1-0.2 0.1-0.5 0.2-0.7 0.1 0.3 0.2 0.6 0.2 0.9l0.1-0.1c0.3 0.2 0.4 0.4 0.1 0.6 0 0.1 0.1 0.1 0.1 0.2z"></path><path fill="#aed3de" d="m7.9 18.4c0.1 0.1 0.2 0.3 0.3 0.4-0.3 0.6-0.3 1.3-0.3 2-0.2 0-0.2 0.1-0.1 0.3-0.2 0.6-0.2 1.2-0.1 1.8 0.3-0.2 0.4-0.5 0.3-0.9h0.2c0 0.3 0 0.6-0.1 0.8-0.5 0.5-0.5 0.9 0.1 1.2-0.1 0.2-0.1 0.3 0 0.5 0 0.4 0 0.8 0.1 1.1 0.2 0.5 0.4 0.9 0.5 1.4h-0.2c-0.3-0.8-0.6-1.6-0.9-2.4-0.1-0.7-0.3-1.5-0.6-2.2 0.1-0.2 0.1-0.4 0.2-0.6 0.1-0.3 0.1-0.6 0.1-1-0.1-0.1-0.2-0.1-0.4-0.2 0.2 0 0.3 0 0.5 0 0-0.5 0-0.9 0.1-1.4 0.1-0.2 0.2-0.5 0.3-0.8z"></path><path fill="#489" d="m29.4 20.3c0.1 0.7 0.2 1.4 0.1 2.2-0.1 0.1-0.1 0.2-0.1 0.3-0.1-0.5-0.2-0.9-0.1-1.4-0.2 0.1-0.3 0.3-0.3 0.5 0 0 0-0.1 0-0.2v-0.3c-0.2 0-0.3 0-0.4-0.1 0.1 0 0.3 0 0.4-0.1-0.3-0.1-0.6-0.2-0.8-0.3 0.2 0 0.5 0 0.8-0.1-0.1-0.1-0.1-0.2-0.1-0.3 0-0.1 0.1-0.1 0.1-0.2 0.2 0.1 0.3 0.4 0.4 0.6 0-0.2 0-0.4 0-0.6z"></path><path fill="#def0f4" d="m12.8 21.3c-0.2-0.3-0.4-0.5-0.5-0.8-0.2 0.2-0.2 0.5-0.2 0.8-0.1-0.1-0.2-0.2-0.2-0.3 0-0.2 0-0.4 0.1-0.5 0.1-0.1 0.2-0.2 0.3-0.3 0.4 0.3 0.5 0.6 0.5 1.1z"></path><path fill="#617084" d="m7.4 20.8c0 0.4 0 0.7-0.1 1 0-0.4-0.1-0.4-0.4-0.1 0 0-0.1 0-0.1-0.1 0.1 0 0.2-0.1 0.2-0.3-0.1-0.2-0.1-0.4-0.1-0.6 0.1 0.3 0.3 0.4 0.5 0.1z"></path><path fill="#3f647b" d="m24.9 21.3h0.2c0 0.2 0.1 0.4 0.3 0.5-0.1 0.2-0.2 0.3-0.3 0.5 0.1-0.2 0-0.4-0.2-0.5 0.2-0.2 0.1-0.3-0.1-0.4-0.2 0.3-0.3 0.7-0.3 1.1-0.4 0-0.4 0-0.1-0.2-0.2-0.2-0.1-0.5 0.1-0.7-0.1-0.1-0.1-0.2-0.3-0.2 0.1-0.3 0.2-0.5 0.1-0.8 0 0.1-0.1 0.2-0.2 0.2 0-0.4 0-0.9 0.1-1.3 0.2 0 0.4 0.2 0.4 0.4 0 0.5 0.1 1 0.3 1.4z"></path><path fill="#699ca9" d="m9.6 18.8l0.2 0.8c0 0.3 0.1 0.7 0.2 1 0.2 0.2 0.4 0.5 0.6 0.7-0.2 0.2-0.3 0.5-0.4 0.9 0-0.3-0.1-0.5-0.2-0.7 0-0.1 0-0.1 0.1-0.2-0.2 0-0.4 0-0.6 0 0.1-0.3 0.1-0.6 0-0.8 0.1-0.6 0.2-1.1 0.1-1.7z"></path><path fill="#394159" d="m5.7 20.6c0.1 0.1 0.3 0.2 0.5 0.3 0.1 0 0.1 0 0.2-0.1v0.5c0.2 0 0.3 0.1 0.4 0.3 0 0.1 0.1 0.1 0.1 0.1 0.3-0.3 0.4-0.3 0.4 0.1-0.1 0.2-0.1 0.4-0.2 0.6 0.3 0.7 0.5 1.5 0.6 2.2-0.2 0-0.2-0.1-0.3-0.3-0.2 0.4-0.3 0.4-0.3 0 0 0.1-0.1 0.2-0.2 0.3-0.1-0.1-0.1-0.2 0-0.4-0.2-0.1-0.4-0.2-0.7-0.4l0.1-0.1c0.4 0.4 0.6 0.3 0.6-0.1 0.1 0.1 0.1 0.2 0.2 0.4 0.2-0.2 0.2-0.4-0.1-0.5l0.3-0.1c-0.3-0.5-0.4-0.6-0.4-0.1-0.4-0.4-0.6-0.8-0.6-1.3-0.2-0.1-0.4-0.2-0.6-0.2 0-0.1 0-0.2-0.1-0.3 0.1 0 0.1 0 0.2-0.1-0.1-0.2-0.3-0.4-0.5-0.5 0.1 0 0.2-0.1 0.2-0.2 0.1 0.1 0.2 0.1 0.2-0.1z"></path><path fill="#5a95a3" d="m18.4 21.2l0.4 0.1c0.2 0.2 0.3 0.4 0.4 0.6h-1c-0.1 0.4 0 0.8 0.1 1.2h-0.2c-0.2-0.1-0.2-0.1-0.3-0.3 0.2-0.2 0.3-0.5 0.2-0.9l-0.1 0.5c0-0.2-0.1-0.3-0.2-0.5-0.1-0.1-0.2-0.1-0.3-0.2 0.2-0.2 0.3-0.4 0.4-0.7 0.1 0.3 0.3 0.3 0.6 0.2z"></path><path fill="#2c4159" d="m21 20.9h0.1c0 0.2 0 0.3 0.2 0.4 0.1 0 0.2 0.1 0.2 0.2 0-0.2 0.1-0.3 0.2-0.5 0 0.2 0 0.3 0.2 0.3 0.1 0.2 0.2 0.4 0.2 0.6-0.5 0.1-0.9 0.1-1.4 0-0.1 0.2-0.1 0.4-0.1 0.6h-0.1c0.1-0.2 0-0.4-0.1-0.6 0 0-0.1-0.1-0.2-0.2 0.2 0 0.4 0 0.6-0.2-0.2-0.1-0.4-0.2-0.5-0.3v-0.8h0.5c-0.1 0.3 0 0.6 0.1 0.9 0.1-0.1 0.1-0.2 0.1-0.4z"></path><path fill="#020209" d="m35.7 21.4h0.2v3.7c-0.5-0.1-1.1-0.2-1.6-0.5-0.2-1-0.2-2.1-0.2-3.1 0.6 0 1.1 0 1.6-0.1z"></path><path fill="#0a0a21" d="m-0.1 20.9c0.8 0.1 1.5 0.2 2.2 0.3 0.6 0 1.1 0.1 1.7 0.1-0.2 0.1-0.4 0.2-0.5 0.1-0.1 0.4-0.2 0.4-0.4 0-0.1 0.1-0.2 0.2-0.2 0.3-0.2-0.4-0.3-0.4-0.3 0-0.1-0.3-0.2-0.3-0.3 0-0.2-0.5-0.3-0.4-0.4 0.1 0.6 0.1 1.2 0 1.7-0.2 0.2 0.2 0.4 0.3 0.6 0.5-0.1 0.1-0.3 0.1-0.5 0.1v0.4c0.2 0 0.4 0 0.5 0.2-0.2 0-0.4 0.1-0.6 0.1-0.1-0.2 0-0.4 0-0.6 0-0.3-0.2-0.4-0.4-0.2-0.9 0.1-1.7 0.1-2.6 0.3 0-0.1 0-0.2-0.1-0.2-0.1 0.1-0.2 0.2-0.4 0.3v-1.6z"></path><path fill="#1b3b51" d="m24.2 21.4c-0.1 0.2-0.3 0.5-0.6 0.7-0.5-0.6-0.4-0.8 0.3-0.6 0.1-0.1 0.1-0.1 0.1-0.2 0.1-0.2 0.2-0.3 0.1-0.5 0.1 0 0.2-0.1 0.2-0.2 0.1 0.3 0 0.5-0.1 0.8z"></path><path fill="#071024" d="m33.4 21.5c0 0.2-0.1 0.3-0.3 0.4 0.1 0.4 0.2 0.8 0.2 1.2l0.1-0.7c0.1 0.3 0.1 0.6 0.1 0.9h-0.4c0.1 0.3 0.1 0.5 0.2 0.8l0.1-0.5c0 0.3 0.1 0.5 0.2 0.8-0.1 0-0.1 0.1-0.1 0.1 0.1 0.1 0.3 0.2 0.4 0.2-0.1 0-0.2 0.1-0.3 0-0.4 0-0.8-0.1-1.1-0.2-0.1 0-0.2 0.1-0.2 0.1-0.3-0.1-0.6-0.2-0.9-0.3v-1c-0.2 0-0.4 0-0.6 0.1h-0.1c-0.2-0.1-0.4-0.1-0.6-0.1 0-0.6 0-1.1 0.1-1.7 0.1 0.3 0.2 0.2 0.2-0.1h3z"></path><path fill="#69a8b6" d="m9.3 20.9c0 0 0.1 0 0.1 0.1-0.1 0.2-0.2 0.4-0.3 0.7 0.1 0.3 0.1 0.6 0.1 0.9-0.1 0.1-0.2 0.1-0.2 0.2 0-0.2-0.1-0.3-0.3-0.2-0.1 0-0.2-0.1-0.3-0.2 0.1 0 0.2-0.1 0.4-0.1 0-0.2 0-0.4 0-0.6-0.3 0-0.5 0.1-0.6 0.3h-0.2c-0.2-0.1-0.2-0.3-0.1-0.5 0.3-0.2 0.6-0.2 0.9 0 0-0.3 0.2-0.5 0.5-0.6z"></path><path fill="#468195" d="m14.5 21.9v0.7c-0.3 0.1-0.6 0.1-0.9 0-0.2-0.1-0.4-0.2-0.6-0.3 0.1 0 0.1-0.1 0-0.2 0.3-0.2 0.4-0.1 0.3 0.3 0.3 0 0.5 0 0.6-0.2-0.2-0.3-0.4-0.4-0.7-0.4 0.3-0.1 0.5-0.3 0.5-0.7-0.1 0.1-0.3 0-0.4 0 0.2-0.1 0.2-0.3 0-0.5 0.1-0.1 0.2-0.2 0.4-0.3 0 0.2 0 0.4 0 0.6l0.1-0.1c0.1 0.1 0.2 0.2 0.3 0.3-0.2 0-0.3 0.2-0.3 0.4l0.3-0.2c0 0.2 0.1 0.5 0.2 0.8 0-0.1 0.1-0.2 0.2-0.2z"></path><path fill="#345970" d="m18.8 21.3h0.2c0.1 0.1 0.4 0.2 0.6 0.3 0.1 0.1 0.2 0.2 0.3 0.3h-0.5v1l0.2 0.5c-0.1 0.1-0.2 0.1-0.3 0.1-0.2-0.2-0.4-0.3-0.6-0.4-0.1-0.3-0.1-0.5-0.1-0.7h0.7c0-0.2 0-0.3-0.1-0.5-0.1-0.2-0.2-0.4-0.4-0.6z"></path><path fill="#39697e" d="m14.2 19.9c0.1 0.5 0.3 1 0.7 1.3 0.2 0.1 0.1 0.2-0.1 0.2 0.3 0.1 0.6 0.2 0.8 0.4 0.2-0.1 0.4-0.2 0.5-0.2v0.3h-0.3c0 0.8-0.1 0.8-0.1 0h-1.2c-0.1 0-0.2 0.1-0.2 0.2-0.1-0.3-0.2-0.6-0.2-0.8l-0.3 0.2c0-0.2 0.1-0.4 0.3-0.4-0.1-0.1-0.2-0.2-0.3-0.3l-0.1 0.1c0-0.2 0-0.4 0-0.6-0.2 0.1-0.3 0.2-0.4 0.3 0.2 0.2 0.2 0.4 0 0.5 0.1 0 0.3 0.1 0.4 0 0 0.4-0.2 0.6-0.5 0.7 0.3 0 0.5 0.1 0.7 0.4-0.1 0.2-0.3 0.2-0.6 0.2 0.1-0.4 0-0.5-0.3-0.3 0.1 0.1 0.1 0.2 0 0.2 0.2 0.1 0.4 0.2 0.6 0.3-0.3 0.1-0.3 0.3 0 0.4-0.3 0.5-0.5 0.5-0.7 0 0.1-0.2 0.1-0.4-0.1-0.5-0.3 0.3-0.3 0.2-0.1-0.2-0.3-0.2-0.3-0.5 0-0.8-0.3 0-0.5-0.1-0.6-0.2 0-0.3 0-0.6 0.2-0.8 0.1 0.3 0.3 0.5 0.5 0.8h0.1c0.3-0.3 0.3-0.7 0-1 0.3 0 0.6-0.1 0.8-0.3 0.2 0.2 0.4 0.1 0.5-0.1z"></path><path fill="#4f7184" d="m23.7 21.3c0.1-0.8 0.1-1.5 0.2-2.1 0 0.7 0 1.4 0.1 2.1 0 0.1 0 0.1-0.1 0.2-0.7-0.2-0.8 0-0.3 0.6 0.3-0.2 0.5-0.5 0.6-0.7 0.2 0 0.2 0.1 0.3 0.2-0.2 0.2-0.3 0.5-0.1 0.7-0.3 0.2-0.3 0.2 0.1 0.2v0.4c-0.4 0.3-0.4 0.5-0.1 0.8-0.1 0.1-0.1 0.1-0.2 0.1-0.2-0.3-0.3-0.2-0.3 0.2h-0.1c-0.1-0.3-0.3-0.4-0.6-0.4 0.2-0.2 0.2-0.3 0-0.5 0.2 0 0.5 0 0.7 0.1 0.7-0.4 0.6-0.6-0.2-0.7-0.4 0-0.9 0-1.4 0 0-0.2 0-0.4 0-0.6-0.1 0.2-0.2 0.2-0.2 0 0-0.2-0.1-0.4-0.2-0.6v-1.2c-0.2 0-0.3 0-0.5 0.2 0.2 0.2 0.3 0.4 0.3 0.7-0.1 0.2-0.2 0.3-0.2 0.5 0-0.1-0.1-0.2-0.2-0.2v-2c0.1 0.1 0.2 0.2 0.1 0.4h0.4c-0.1 0.1-0.2 0.1-0.4 0.2 0.3 0.2 0.6 0.1 0.7-0.2v0.3h0.8v0.1h-0.9c0 0.4 0 0.8 0.1 1.2 0.1-0.3 0.2-0.6 0.1-0.9 0.2 0 0.4 0 0.5 0 0 0.3 0.1 0.6 0.3 0.9 0.1 0.1 0.1 0.1 0.2 0 0.1-0.8 0.2-1.6 0.3-2.4 0 0.8 0.1 1.6 0.2 2.4z"></path><path fill="#e7f8fb" d="m21.9 21.3c-0.2 0-0.2-0.1-0.2-0.3 0-0.3-0.1-0.5-0.3-0.8 0.2-0.1 0.3-0.1 0.5-0.1v1.2z"></path><path fill="#d1ebf0" d="m22.9 20.1c0.1 0.4 0.1 0.8 0.1 1.2-0.2-0.3-0.3-0.6-0.3-0.9-0.1 0-0.3 0-0.5 0 0.1 0.3 0 0.6-0.1 0.9-0.1-0.4-0.1-0.8-0.1-1.2h0.9z"></path><path fill="#6f7a80" d="m22.8 19.8c-0.2 0-0.3 0-0.5-0.1 0.1 0 0.2-0.1 0.3-0.1 0.1-0.2 0.2-0.1 0.2 0.2z"></path><path fill="#0e223b" d="m31 17.8l0.3 0.1c-0.1 0.4 0.1 0.6 0.5 0.6-0.1 0.1-0.1 0.1-0.1 0.2 0.1 0.2 0.2 0.3 0.1 0.5-0.2-0.5-0.4-0.5-0.5 0l-0.1-0.2c-0.2 0.2-0.3 0.4-0.3 0.7 0.1 0 0.3 0 0.4 0.1-0.1 0-0.2 0-0.3 0.2 0 0 0.1 0.1 0.1 0.1-0.1 0.1-0.2 0.3-0.2 0.4 0.1 0.3 0.2 0.5 0.3 0.8 0.7 0.1 1.3 0.1 2 0h2.7v0.1h-0.2c-0.8-0.1-1.6 0-2.3 0.1h-3c0 0.3-0.1 0.4-0.2 0.1-0.1 0.6-0.1 1.1-0.1 1.7 0.2 0 0.4 0 0.6 0.1 0 0.1 0 0.2-0.1 0.2-0.2-0.2-0.4-0.3-0.7-0.3-0.1 0-0.2 0-0.2 0.1 0-0.6 0-1.3 0.1-1.9 0.1 0 0.2 0 0.3-0.1l-0.5-0.1c0.2-0.5 0.2-1.1 0-1.7l0.3-0.1c-0.1-0.1-0.1-0.3 0-0.5-0.2-0.1-0.3-0.1-0.5 0-0.1-0.1-0.1-0.2 0-0.4-0.2 0-0.3-0.1-0.1-0.3-0.1-0.2-0.2-0.4-0.3-0.6 0.3-0.5 0.5-0.4 0.5 0.2 0.2 0 0.4-0.1 0.5-0.2 0.3 0.1 0.6 0.2 0.9 0.4l0.1 0c-0.1-0.1-0.2-0.2-0.3-0.3 0.1 0 0.2 0 0.3 0z"></path><path fill="#94bbc5" d="m9.3 20.4c0 0.1 0 0.2 0.1 0.3l-0.1 0.2c-0.3 0.1-0.5 0.3-0.5 0.6-0.3-0.2-0.6-0.2-0.9 0-0.1 0.2-0.1 0.4 0.1 0.6 0.1 0.3 0 0.6-0.3 0.8-0.1-0.6-0.1-1.2 0.1-1.8-0.1-0.2-0.1-0.3 0.1-0.3v0.5c0.3 0 0.6 0 0.8-0.2-0.1-0.1-0.3-0.1-0.4 0-0.2-0.6-0.2-1.2-0.1-1.9 0.1 0.6 0.1 1.2 0.1 1.7 0.4 0 0.7-0.2 1-0.5z"></path><path fill="#5d697e" d="m5.7 21.8c0 0.5 0 0.8-0.1 1-0.2-0.3-0.2-0.7 0.1-1z"></path><path fill="#8aacb9" d="m14.5 21.9h0.1v1.7h0.3c0 0.4 0 0.4-0.2 0.1-0.1 0.2-0.2 0.2-0.4 0 0.1-0.3 0.1-0.7 0.2-1.1v-0.7z"></path><path fill="#28536c" d="m11.4 20.8h0.1v0.5c0 0.2 0 0.5-0.1 0.7 0.3 0.2 0.4 0.1 0.4-0.3 0.3 0 0.5 0.1 0.5 0.4 0 0.3-0.1 0.5-0.3 0.6-0.2 0.1-0.3 0.2-0.4 0.4-0.2-0.2-0.2-0.5-0.1-0.7h-0.8c0 0.3 0.1 0.4 0.4 0.5-0.3 0.1-0.5 0-0.6-0.3-0.1 0.1-0.1 0.2-0.1 0.2-0.1 0-0.1 0-0.1-0.1 0-0.4 0.2-0.7 0.4-1 0.2-0.1 0.4-0.3 0.6-0.4 0.1-0.2 0.1-0.3 0.1-0.5z"></path><path fill="#13152d" d="m3 20.4l0.7 0.1c0.2 0.2 0.5 0.4 0.7 0.6-0.1 0.4-0.2 0.8-0.3 1.3 0.2 0.4 0.1 0.6-0.3 0.7-0.2 0.3-0.2 0.6 0 0.9-0.1 0-0.2 0-0.2 0.1 0-0.2-0.1-0.3-0.3-0.4 0.1-0.1 0.1-0.2 0.1-0.2-0.1-0.3-0.2-0.6-0.2-0.9h-1.3c-0.1 0.4-0.2 0.8-0.2 1 0.1-0.1 0.2-0.1 0.3 0 0.1-0.2 0.1-0.5 0.1-0.8 0 0.4 0.2 0.8 0.5 1 0.1-0.2 0.2-0.2 0.2 0.2-0.3 0-0.5 0-0.8 0l-0.1 0.2c-0.1-0.2-0.2-0.3-0.3-0.5 0 0.1-0.1 0.2-0.1 0.3-0.2-0.3-0.3-0.3-0.4 0 0-0.2-0.1-0.3-0.3-0.3 0.5-0.1 0.5-0.2 0-0.3 0.1-0.1 0.2-0.2 0.1-0.3l-0.1 0.1c-0.2-0.3-0.3-0.3-0.4 0.1 0-0.1 0-0.3-0.1-0.3-0.1 0.1-0.1 0.2-0.1 0.3-0.1-0.1-0.2-0.3-0.1-0.5 0.1 0.1 0.3 0 0.4-0.1l-0.1-0.1c-0.1 0-0.3 0-0.5 0.1v-0.2c0.2-0.1 0.3-0.2 0.4-0.3 0.1 0 0.1 0.1 0.1 0.2 0.9-0.2 1.7-0.2 2.6-0.3 0.2-0.2 0.4-0.1 0.4 0.2 0 0.2-0.1 0.4 0 0.7 0.2-0.1 0.4-0.2 0.6-0.2-0.1-0.2-0.3-0.2-0.5-0.2v-0.4c0.2 0 0.4 0 0.5-0.1-0.2-0.2-0.4-0.3-0.6-0.5-0.5 0.2-1.1 0.3-1.7 0.2 0.1-0.5 0.2-0.6 0.4-0.1 0.1-0.3 0.2-0.3 0.3 0 0-0.4 0.1-0.4 0.3 0 0-0.1 0.1-0.2 0.2-0.3 0.2 0.4 0.3 0.4 0.4 0 0.1 0.1 0.3 0 0.5-0.1-0.6 0-1.1-0.1-1.7-0.1 0-0.4 0.1-0.4 0.3-0.2 0-0.1 0-0.3 0-0.4 0.2 0 0.4-0.1 0.6-0.2z"></path><path fill="#e0f3f6" d="m14.6 21.9h1.1c0 0.8 0.1 0.8 0.1 0h0.3c0.3 0 0.5 0 0.7 0.1-0.3 0-0.6 0.1-0.9 0 0 0.4 0 0.7 0.1 0.9 0.2-0.1 0.4-0.1 0.6-0.1-0.4 0.2-0.4 0.3 0.1 0.5 0.1 0.1 0.1 0.2 0.1 0.3-0.6 0-1-0.3-1-1-0.1 0.4-0.2 0.7-0.4 0.9h-0.3c0.1-0.1 0.2-0.2 0.3-0.3-0.1 0-0.2 0-0.3 0 0 0.1-0.1 0.2-0.2 0.2-0.1-0.4-0.1-0.8-0.1-1.2h0.7c0 0.2 0 0.4 0 0.6 0.1-0.2 0.1-0.5 0.1-0.8h-0.9v1.5c0.1 0 0.2 0 0.3 0.1h-0.4v-1.7z"></path><path fill="#9aa6ac" d="m15.1 23.2c0.1 0 0.2 0 0.3 0-0.1 0.1-0.2 0.2-0.3 0.3 0 0.1 0 0.1-0.1 0.1-0.1-0.1-0.2-0.1-0.3-0.1v-1.4h0.9c0 0.2 0 0.5-0.1 0.7 0-0.2 0-0.4 0-0.6h-0.7c0 0.4 0 0.8 0.1 1.2 0.1 0 0.2-0.1 0.2-0.2z"></path><path fill="#588d9c" d="m15.1 23.2c-0.2-0.3-0.3-0.6-0.2-0.9h0.5c0 0.3-0.1 0.6-0.3 0.9z"></path><path fill="#e6f5f7" d="m19.9 21.9h0.5c0.1 0.2 0.2 0.4 0.1 0.6v1.1h-0.4c0.1-0.1 0.2-0.1 0.3-0.1 0-0.6 0-0.7-0.2-0.1l-0.1-0.1c0.1-0.3 0.1-0.7 0.1-1-0.2-0.1-0.3 0-0.5 0.1v0.5c-0.1-0.2-0.1-0.4-0.1-0.7 0.4-0.1 0.4-0.1-0.1-0.2 0.1 0.4 0 0.7-0.1 0.9v-1h0.5z"></path><path fill="#1c3952" d="m31.3 17.4c0 0.2-0.1 0.3-0.3 0.4-0.1 0-0.2 0-0.3 0 0.1 0.1 0.2 0.2 0.3 0.3l-0.1 0c-0.3-0.2-0.6-0.3-0.9-0.4-0.1 0.1-0.3 0.2-0.5 0.2 0-0.6-0.2-0.7-0.5-0.2 0.1 0.2 0.2 0.4 0.3 0.6-0.2 0.2-0.1 0.3 0.1 0.3-0.1 0.2-0.1 0.3 0 0.4 0.2-0.1 0.3-0.1 0.5 0-0.1 0.2-0.1 0.4 0 0.5l-0.3 0.1c0.2 0.6 0.2 1.2 0 1.7l0.5 0.1c-0.1 0.1-0.2 0.1-0.3 0.1-0.1 0.6-0.1 1.3-0.1 1.9 0-0.1 0.1-0.1 0.2-0.1 0.3 0 0.5 0.1 0.7 0.3 0.1 0 0.1-0.1 0.1-0.2h0.1v0.6c-0.2 0-0.4 0-0.6-0.1l0.2-0.2c-0.3-0.1-0.6-0.1-0.9-0.2v0.8c0.3 0 0.6 0 0.9-0.1-0.3 0.2-0.7 0.3-1.1 0.3 0 0.1 0.1 0.1 0.1 0.2-0.2 0.3-0.3 0.7-0.4 1.1 0-0.1-0.1-0.1-0.1-0.2 0.3-1 0.5-2 0.6-3.1 0.1-0.8 0-1.5-0.1-2.3-0.2-1-0.4-2.1-0.6-3.1-0.2-0.1-0.3-0.2-0.4-0.3 0.1 0 0.2 0.1 0.3 0.1 0.3 0 0.4-0.1 0.3-0.3 0.3-0.7 0.2-1.4-0.1-2.1-0.1-0.1 0-0.1 0-0.2 0.2 0.1 0.3 0.1 0.5 0l-0.3 0.3c0.1 0.6 0.2 1.1 0.3 1.7 0 0.1 0 0.1-0.1 0.2 0.4-0.1 0.8-0.3 1.2-0.4l0.2 0c-0.2 0.1-0.3 0.3-0.3 0.4 0.2 0 0.3 0 0.5 0.1l-1 0.1 0.3 0.2c0.2-0.2 0.4-0.2 0.6 0l-0.4 0.1c0.2 0.1 0.3 0.3 0.3 0.4h0.6z"></path><path fill="#bad6dd" d="m19.2 21.9c0.1 0.2 0.1 0.3 0.1 0.5h-0.7c0 0.2 0 0.4 0.1 0.7 0.2 0.1 0.4 0.2 0.6 0.4v0.1c-0.4 0.1-0.8-0.1-1-0.4v-0.1c-0.1-0.4-0.2-0.8-0.1-1.2h1z"></path><path fill="#1f233b" d="m5.7 21.8c0.2 0 0.4 0.1 0.6 0.3 0 0.4 0.2 0.8 0.6 1.2 0-0.5 0.1-0.4 0.4 0.1l-0.3 0.1c0.3 0.1 0.3 0.3 0.1 0.5-0.1-0.2-0.1-0.3-0.2-0.4 0 0.4-0.2 0.5-0.6 0.1l-0.1 0.2c0.3 0.1 0.5 0.2 0.7 0.3-0.1 0.2-0.1 0.3 0 0.4 0 0.1 0 0.2 0 0.3-0.4-0.3-0.7-0.4-1-0.4-0.1 0.2-0.1 0.4-0.1 0.5-0.1-0.1-0.3-0.2-0.5-0.3 0.2-0.1 0.3-0.2 0.2-0.4-0.2 0.3-0.5 0.5-0.7 0.7 0-0.2-0.1-0.3-0.2-0.5-0.1 0.1-0.3 0.1-0.5 0.1 0.2 0.1 0.1 0.1-0.1 0.2-0.1-0.1-0.1-0.2-0.2-0.3 0 0.2-0.1 0.3-0.3 0.3 0.3 0.1 0.3 0.2 0.2 0.3-0.4 0-0.8 0-1.2 0.1v-0.3c-0.7-0.1-1.3-0.1-2-0.3 0.3 0.1 0.7 0 1-0.1-0.2-0.1-0.3-0.1-0.4-0.2 1.1 0 2.3 0 3.4 0.1 0.2 0 0.3-0.1 0.5-0.2 0.1 0.1 0.2 0.1 0.3-0.1 0 0 0.1 0.1 0.2 0.1 0.1-0.2 0.2-0.4 0.4-0.6 0-0.1-0.1-0.2-0.3-0.3-0.1 0.1-0.3 0.2-0.5 0.2 0.1-0.2 0.1-0.3 0-0.4l0.1-0.3c0.1 0.2 0.3 0.2 0.4 0 0.1-0.2 0.1-0.5 0.1-1z"></path><path fill="#376b82" d="m9.5 20.5c0.1 0.2 0.1 0.5 0 0.8 0.2 0 0.4 0 0.6 0-0.1 0.1-0.1 0.1-0.1 0.2 0.1 0.2 0.2 0.4 0.2 0.7 0.1-0.4 0.2-0.7 0.4-0.9h0.7c-0.2 0.1-0.4 0.3-0.6 0.4-0.2 0.3-0.4 0.6-0.4 1 0 0.1 0 0.1 0.1 0.1-0.1 0.6-0.1 1.1-0.1 1.7-0.1-0.1-0.2-0.2-0.2-0.4 0-0.3 0.1-0.6 0.2-0.9-0.1 0-0.1-0.1-0.2-0.1-0.2 0.1-0.2 0.2 0 0.4-0.3 0-0.4-0.1-0.3-0.3 0-0.4-0.1-0.4-0.2-0.1l-0.2-0.1c0 0.1 0 0.2 0.1 0.3-0.1 0.2-0.2 0.3-0.2 0.4-0.2-0.3-0.2-0.7-0.1-1.1 0-0.3 0-0.6-0.1-0.9 0.1-0.3 0.2-0.5 0.3-0.7 0-0.1-0.1-0.1-0.1-0.1l0.1-0.2 0.1-0.2z"></path><path fill="#40798e" d="m12 20.5c-0.1 0.1-0.1 0.3-0.1 0.5 0 0.1 0.1 0.2 0.2 0.3 0.1 0.1 0.3 0.2 0.6 0.2-0.3 0.3-0.3 0.6 0 0.8-0.2 0.4-0.2 0.5 0.1 0.2 0.2 0.1 0.2 0.3 0.1 0.5 0.2 0.5 0.4 0.5 0.7 0-0.3-0.1-0.3-0.3 0-0.4 0 0.2 0.1 0.5 0.1 0.7 0.1 0 0.2 0 0.3 0-0.1 0.1-0.1 0.2 0 0.3-0.2 0.3-0.3 0.3-0.4 0-0.1 0.2-0.3 0.4-0.5 0.5-0.6 0.1-0.6 0 0-0.3-0.2 0-0.4-0.1-0.6-0.1l0.5-0.2c-0.4-0.3-0.7-0.5-1-0.8 0.2-0.1 0.3-0.3 0.3-0.6 0-0.3-0.2-0.4-0.5-0.4 0 0.4-0.1 0.5-0.4 0.3 0.1-0.2 0.1-0.5 0.1-0.7 0.2-0.3 0.3-0.6 0.5-0.8z"></path><path fill="#a4cad4" d="m22.3 22.5c0.5 0 1 0 1.4 0 0.8 0.1 0.9 0.3 0.2 0.7-0.2-0.1-0.5-0.1-0.7-0.1-0.1 0-0.3 0.1-0.4 0.1 0-0.2 0-0.3-0.1-0.5-0.1 0.1-0.2 0.2-0.4 0.1v-0.3z"></path><path fill="#cadde3" d="m22.1 21.9c0 0.2 0.1 0.2 0.2 0 0 0.2 0 0.4 0 0.6v0.3c0.2 0.1 0.3 0 0.4-0.1 0.1 0.2 0.1 0.3 0.1 0.5h-0.5v0.4c-0.2 0.1-0.4 0-0.6-0.1 0.3-0.1 0.4-0.2 0.1-0.4-0.2 0.1-0.3 0.3-0.3 0.5-0.1-0.7-0.2-0.7-0.2 0-0.2-0.7-0.3-0.7-0.3 0-0.1-0.1-0.2-0.1-0.3 0-0.1-0.3-0.1-0.7-0.1-1.1 0-0.2 0-0.4 0.1-0.6 0.5 0.1 0.9 0.1 1.4 0z"></path><path fill="#273e58" d="m25.3 20.3h0.2c0.1 0.3 0.3 0.6 0.7 0.8 0 0.5 0.2 0.8 0.4 1.2-0.1 0.1-0.2 0.2-0.2 0.4 0.3 0.3 0.5 0.6 0.8 0.9-0.2 0.3-0.1 0.5 0.1 0.8-0.1 0.2-0.2 0.4-0.3 0.6 0-0.3-0.1-0.6-0.2-0.8 0.1-0.4 0-0.7-0.3-0.9-0.3 0.3-0.2 0.5 0.2 0.4-0.1 0.2-0.1 0.4-0.1 0.6-0.1-0.2-0.2-0.3-0.4-0.5l-0.5 0.6c-0.1-0.2 0-0.4 0.2-0.6 0 0 0-0.1-0.1-0.1l0.5-0.4c-0.2-0.3-0.4-0.5-0.8-0.7-0.4 0.2-0.5 0.5 0 0.9-0.2 0-0.2 0.1-0.3 0.2l-0.1-0.5c-0.2 0.1-0.2 0.2-0.1 0.4-0.1 0-0.2 0.1-0.2 0.1-0.3-0.5-0.1-1 0.3-1.4 0.1-0.2 0.2-0.3 0.3-0.5-0.2-0.1-0.3-0.3-0.3-0.5 0.2-0.4 0.2-0.7 0.2-1z"></path><path fill="#a2b7be" d="m19.7 22.9c0.2 0.1 0.2 0.2 0.3 0.3 0.1-0.3 0.1-0.5 0.1-0.8h-0.4c0.2-0.1 0.3-0.2 0.5-0.1 0 0.3 0 0.7-0.1 1l0.1 0.1c0.2-0.6 0.2-0.5 0.2 0.1-0.1 0-0.2 0-0.3 0.1l-0.5-0.2-0.2-0.5c0.1-0.2 0.2-0.5 0.1-0.8 0.5 0 0.5 0 0.1 0.1 0 0.3 0 0.5 0.1 0.8z"></path><path fill="#3d5d73" d="m19.7 22.4h0.4c0 0.3 0 0.5-0.1 0.8-0.1-0.1-0.1-0.2-0.3-0.3v-0.5z"></path><path fill="#1f344e" d="m19.6 23.4l0.5 0.2v0.4c0 0-0.1 0.1-0.1 0.1-0.2-0.2-0.3-0.3-0.4-0.5-0.1 0.1-0.1 0.2-0.2 0.3-0.1-0.1-0.1-0.2-0.1-0.3v-0.1c0.1 0 0.2 0 0.3-0.1z"></path><path fill="#bad3d9" d="m17.7 21.9c0.1 0.2 0.2 0.3 0.2 0.5l0.1-0.5c0.1 0.4 0 0.7-0.2 0.9 0.1 0.2 0.1 0.2 0.3 0.3 0 0.2 0 0.3-0.1 0.5-0.1-0.4-0.1-0.4-0.2 0 0-0.2-0.1-0.3-0.3-0.4-0.1 0.2-0.2 0.4-0.3 0.5-0.2 0-0.2 0-0.3-0.1 0.1-0.3 0.2-0.6 0.4-0.8-0.2-0.1-0.3-0.2-0.3-0.4 0.1-0.2 0-0.3-0.1-0.4 0.2-0.1 0.3-0.1 0.5-0.1 0.1 0.8 0.2 0.8 0.3 0z"></path><path fill="#35617a" d="m12 22.7c0.3 0.3 0.6 0.5 1 0.8l-0.5 0.2c0.2 0 0.4 0.1 0.6 0.2-0.6 0.2-0.6 0.3 0 0.2-0.1 0.2-0.1 0.3-0.2 0.5 0.1 0.1 0.2 0.1 0.3 0.1-0.1 0.5 0 0.6 0.4 0.2l-0.3-0.1c0.3-0.3 0.6-0.6 1-0.8 0 0 0.1 0 0 0.1-0.1 0.2-0.3 0.3-0.5 0.4-0.1 0.3-0.2 0.6-0.4 0.8 0.1 0.2 0.2 0.3 0.4 0.3l-0.1 0.1c0.2 0.2 0.4 0.2 0.6 0.1 0.1 0.2 0.2 0.2 0.4 0.1 0.1 0.1 0.1 0.1 0.2 0.2 0.3-0.2 0.6-0.3 0.9-0.2-0.4 0.2-0.4 0.3 0 0.4-0.2 0-0.3 0.1-0.4 0.3-0.1-0.3-0.3-0.4-0.5-0.3-0.3-0.1-0.5-0.2-0.8-0.2 0 0.2 0 0.3-0.1 0.5-0.2 0.1-0.3 0-0.3-0.3 0.1-0.2 0.2-0.3 0.3-0.2-0.3-0.1-0.5-0.1-0.8-0.1l-0.2 0.3c-0.1-0.2-0.1-0.3 0.1-0.5-0.1 0-0.3-0.1-0.4 0-0.1 0.3 0 0.6 0.2 0.9-0.2 0.1-0.4 0.1-0.6 0.1 0-0.3 0.1-0.6 0.2-0.8-0.2-0.1-0.3 0-0.3 0.3-0.4 0.1-0.7 0.2-0.9 0.6-0.1-0.2-0.1-0.5 0-0.7 0 0.1 0 0.2 0.1 0.2 0.4-0.1 0.7-0.4 0.9-0.8l-0.2-0.1c0.2-0.1 0.3-0.1 0.4 0 0.2-0.1 0.3-0.2 0.4-0.4-0.2 0-0.4-0.1-0.4-0.4-0.1 0.2-0.2 0.3-0.4 0.3 0-0.1-0.1-0.2-0.1-0.3 0.4 0 0.4-0.2 0-0.5 0.1-0.1 0.1-0.2 0-0.4-0.2 0.1-0.3 0.2-0.5 0.4 0-0.1-0.1-0.2-0.2-0.2-0.2 0.3-0.5 0.4-0.7 0.5-0.1-0.2-0.1-0.4-0.1-0.7 0.5 0 0.5 0 0-0.1 0-0.2 0.1-0.4 0.3-0.4 0.2 0 0.4 0.1 0.6 0.3 0.2-0.2 0.4-0.5 0.6-0.9z"></path><path fill="#6b8797" d="m20.5 22.5h0.1c0 0.4 0 0.8 0.1 1.1 0.1-0.1 0.2-0.1 0.3 0 0.1 0.1 0.1 0.1 0.1 0.3-0.1-0.2-0.3-0.2-0.5 0 0-0.1-0.1-0.1-0.2-0.2-0.1 0.2-0.2 0.2-0.3 0.3v-0.4h0.4v-1.1z"></path><path fill="#90bfc9" d="m22.3 23.6c-0.2 0.1-0.4 0.2-0.5 0.5 0 0-0.1 0.1-0.1 0.1-0.2-0.2-0.3-0.3-0.4-0.5-0.1 0.1-0.1 0.1-0.2 0.2 0-0.2 0-0.2-0.1-0.3 0-0.7 0.1-0.7 0.3 0 0-0.7 0.1-0.7 0.2 0 0-0.2 0.1-0.4 0.3-0.5 0.3 0.2 0.2 0.3-0.1 0.4 0.2 0.1 0.4 0.2 0.6 0.1z"></path><path fill="#6c9dae" d="m23.2 23.1c0.2 0.2 0.2 0.3 0 0.5-0.1 0.1-0.1 0.2-0.1 0.4-0.4-0.1-0.7 0-1.1 0.1h-0.2c0.1-0.3 0.3-0.4 0.5-0.5v-0.4h0.5c0.1 0 0.3-0.1 0.4-0.1z"></path><path fill="#5994a7" d="m9.2 22.6c-0.1 0.4-0.1 0.8 0.1 1.1 0 0.1 0 0.1 0 0.2 0.1-0.3 0.3-0.4 0.4-0.1-0.1 0.2-0.1 0.4 0.1 0.5 0 0.1-0.1 0.2-0.2 0.3h-0.1c0 0 0-0.1 0-0.2-0.2 0-0.4 0-0.6 0.1 0-0.3-0.2-0.4-0.4-0.5-0.1 0.2-0.2 0.4-0.3 0.5-0.1-0.2-0.1-0.3 0-0.5-0.6-0.3-0.6-0.7-0.1-1.2 0.1-0.2 0.1-0.5 0.1-0.8 0.1-0.2 0.3-0.3 0.6-0.3 0 0.2 0 0.4 0 0.6-0.2 0-0.3 0.1-0.4 0.1 0.1 0.1 0.2 0.2 0.3 0.2 0.2-0.1 0.3 0 0.3 0.2 0-0.1 0.1-0.1 0.2-0.2z"></path><path fill="#355268" d="m18.1 23.1h0.2v0.1c0 0.2 0 0.3 0.1 0.5-0.1 0.1-0.2 0.2-0.3 0.3 0.1 0.1 0.2 0.1 0.3 0.1v0.4c-0.2 0-0.3 0-0.4-0.1l-0.2 0.3v1.7c0.2 0.1 0.4 0 0.5-0.1 0.3 0 0.5-0.1 0.5-0.4h0.2c0.1 0 0.1 0.1 0.1 0.2v0.3h0.4c0.1-0.7 0.2-0.7 0.4 0 0.1-0.4 0.2-0.4 0.2 0 0.1-0.2 0.1-0.5 0-0.8 0.1 0 0.2-0.1 0.3-0.1-0.2-0.2-0.3-0.5-0.1-0.8-0.3-0.2-0.7-0.4-1.1-0.5-0.1 0.3-0.1 0.2-0.1-0.1 0.1-0.1 0.2-0.2 0.3-0.3 0.1 0 0.1-0.1 0.2-0.2 0.1 0.2 0.2 0.3 0.4 0.5 0 0 0.1-0.1 0.1-0.1 0.1-0.1 0.2-0.1 0.3-0.3 0.1 0.1 0.2 0.1 0.2 0.1 0 0.2-0.1 0.3-0.2 0.3 0.4 0.3 0.7 0.7 0.8 1.1-0.2 0.1-0.4 0.2-0.6 0.3 0.1 0.1 0.3 0.2 0.4 0.2-0.3 0.1-0.3 0.2 0 0.3-0.1 0.2-0.2 0.3-0.1 0.4 0.3 0.1 0.5 0 0.7-0.3 0.1 0.1 0.1 0.2-0.1 0.3 0.3 0 0.4 0.1 0.6 0.1-0.3 0-0.6 0.1-0.9 0.2-0.1 0.1-0.1 0.2 0 0.3h-3.8c0-0.3-0.1-0.4-0.2-0.1 0-0.2-0.1-0.3-0.2-0.5 0.1-0.5 0.2-0.5 0.4 0 0.1-0.4 0.2-0.4 0.3 0 0-0.3 0-0.7-0.2-1 0.2-0.2 0.2-0.4 0.2-0.7-0.1 0.5-0.2 0.5-0.3 0-0.1 0.2-0.1 0.4-0.1 0.6-0.2-0.1-0.3-0.3-0.3-0.6h-0.3c0-0.1 0.1-0.2 0.1-0.3 0.2 0 0.4 0.1 0.5 0.2 0.4-0.2 0.4-0.3-0.1-0.3v-0.6c0.1-0.1 0.2-0.3 0.3-0.5 0.2 0.1 0.3 0.2 0.3 0.4 0.1-0.4 0.1-0.4 0.2 0 0.1-0.2 0.1-0.3 0.1-0.5z"></path><path fill="#172a43" d="m25.1 22.3c-0.4 0.4-0.6 0.9-0.3 1.4 0 0 0.1-0.1 0.2-0.1-0.1-0.2-0.1-0.3 0.1-0.4l0.1 0.5c0.1-0.1 0.1-0.2 0.3-0.2-0.5-0.4-0.4-0.7 0-0.9 0.4 0.2 0.6 0.4 0.8 0.7l-0.5 0.4c0.1 0 0.1 0.1 0.1 0.1-0.2 0.2-0.3 0.4-0.3 0.6l0.6-0.6c0.2 0.2 0.3 0.3 0.3 0.5 0.1-0.2 0.1-0.4 0.2-0.6-0.4 0.1-0.5-0.1-0.2-0.4 0.3 0.2 0.4 0.5 0.3 0.9 0 0.1 0 0.2 0 0.3-0.2-0.1-0.2 0-0.1 0.2-0.1 0-0.2 0-0.3-0.2-0.1 0.2-0.1 0.4 0.1 0.5l0.2-0.1c0.3 0.5 0.1 0.9-0.5 1.1-0.3-0.2-0.6-0.3-0.9-0.4l-0.1 0.2c-0.2-0.4-0.1-0.7 0.2-1-0.2-0.1-0.3 0-0.4 0.2-0.1-0.4-0.3-0.7-0.5-0.9 0.2-0.2 0.2-0.4 0-0.6 0-0.2 0-0.3 0-0.6v-0.4c0-0.4 0.1-0.8 0.3-1.1 0.2 0.1 0.3 0.2 0.1 0.4 0.2 0.1 0.3 0.3 0.2 0.5z"></path><path fill="#0e1025" d="m5.3 20.9c0.2 0.1 0.4 0.3 0.5 0.5-0.1 0.1-0.1 0.1-0.2 0.1 0.1 0.1 0.1 0.2 0.1 0.3-0.3 0.3-0.3 0.7-0.1 1-0.1 0.2-0.3 0.2-0.4 0l-0.1 0.3c0.1 0.1 0.1 0.2 0 0.4 0.2 0 0.4-0.1 0.5-0.2 0.2 0.1 0.3 0.2 0.3 0.3-0.2 0.2-0.3 0.4-0.4 0.6-0.1 0-0.2-0.1-0.2-0.1-0.1 0.2-0.2 0.2-0.4 0.1-0.1 0.1-0.2 0.2-0.4 0.2-1.1-0.1-2.3-0.1-3.4-0.1h-1.2v-1.6c0.2-0.1 0.4-0.1 0.5-0.1l0.1 0.1c-0.1 0.1-0.3 0.2-0.4 0.1-0.1 0.2 0 0.4 0.1 0.5 0-0.1 0-0.2 0.1-0.3 0.1 0 0.1 0.2 0.1 0.3 0.1-0.4 0.2-0.4 0.4-0.1l0.1-0.1c0.1 0.1 0 0.2-0.1 0.3 0.5 0.1 0.5 0.2 0 0.3 0.2 0 0.3 0.1 0.3 0.3 0.1-0.3 0.2-0.3 0.4 0 0-0.1 0.1-0.2 0.1-0.3 0.1 0.2 0.2 0.3 0.3 0.5l0.1-0.2c0.3 0 0.5 0 0.8 0 0-0.4-0.1-0.4-0.2-0.2-0.3-0.2-0.5-0.6-0.5-1 0 0.3 0 0.6-0.1 0.8-0.1-0.1-0.2-0.1-0.3 0 0-0.2 0.1-0.6 0.2-1h1.3c0 0.3 0.1 0.6 0.2 0.9 0 0 0 0.1-0.1 0.2 0.2 0.1 0.3 0.2 0.3 0.4 0-0.1 0.1-0.1 0.2-0.1 0.1-0.1 0.2-0.1 0.3-0.2-0.3-0.4-0.3-0.6 0.2-0.5 0 0.2 0.1 0.4 0.2 0.5l0.1-0.1c0.1 0.3 0.2 0.3 0.3 0.1-0.2-0.1-0.3-0.3-0.4-0.5-0.2-0.9-0.2-1.7 0.2-2.5l0.1 0.3c0.2-0.1 0.3-0.2 0.5-0.2z"></path><path fill="#28536b" d="m14.5 22.6c-0.1 0.4-0.1 0.8-0.2 1.1 0.2 0.2 0.3 0.2 0.4 0 0.2 0.3 0.2 0.3 0.2-0.1h0.1c0.1 0 0.1 0 0.1-0.1h0.3c-0.1 0.4-0.2 0.8-0.5 1-0.2 0.1-0.3 0-0.4-0.1 0.1-0.3 0.1-0.4-0.2-0.3 0.1-0.1 0-0.1 0-0.1-0.4 0.2-0.7 0.5-1 0.8l0.3 0.1c-0.4 0.4-0.5 0.3-0.4-0.2-0.1 0-0.2 0-0.3-0.1 0.1-0.2 0.1-0.3 0.2-0.5 0.2-0.1 0.4-0.3 0.5-0.5 0.1 0.3 0.2 0.3 0.4 0-0.1-0.1-0.1-0.2 0-0.3-0.1 0-0.2 0-0.3 0 0-0.2-0.1-0.5-0.1-0.7 0.3 0.1 0.6 0.1 0.9 0z"></path><path fill="#0a1629" d="m23.2 23.6c0.3 0 0.5 0.1 0.6 0.4-0.2 0.1-0.3 0.2-0.6 0.2v-0.6z"></path><path fill="#193650" d="m28.4 21.3h0.2c0.1 0.1 0.2 0.1 0.4 0.1v0.3c-0.1 0.4-0.2 0.9-0.2 1.4l-0.1-0.4c0 0.4 0 0.7 0 1.1 0.1 0.3 0 0.6-0.2 0.9 0.2 0.4 0.2 0.8 0 1.2-0.1-0.2-0.2-0.3-0.2-0.5l0.2-0.1c0-0.1-0.1-0.2-0.2-0.2-0.2 0.2-0.3 0.5-0.4 0.8-0.1-0.2-0.2-0.3-0.4-0.3 0.1 0 0.2-0.1 0.3-0.2-0.1-0.1-0.2-0.3-0.2-0.4 0.1-0.2 0.1-0.4 0.2-0.6-0.3-0.6-0.2-0.8 0.5-0.7 0.1-0.1 0.1-0.3 0.1-0.4-0.1 0-0.3 0-0.4-0.1 0-0.3 0-0.6 0-0.9-0.1 0.1-0.2 0.3-0.2 0.4 0-0.2-0.1-0.3-0.1-0.5-0.1 0.2-0.1 0.2-0.2 0 0.1-0.3 0-0.3-0.3-0.2 0.1 0.3 0.3 0.6 0.5 0.9 0 0.2-0.1 0.4-0.1 0.7-0.1 0-0.2 0-0.3 0l0.1-0.1c-0.1-0.1-0.2-0.2-0.2-0.3-0.1-0.3-0.2-0.6-0.2-0.9l-0.1 0.1c-0.1-0.2-0.1-0.4-0.2-0.6 0.1 0 0.3 0 0.5 0-0.1-0.4 0.1-0.4 0.3-0.1 0.1-0.3 0.3-0.3 0.5-0.2-0.2 0.2-0.2 0.4-0.1 0.5 0-0.1 0.1-0.3 0.3-0.5-0.1 0.3 0 0.5 0.3 0.8 0-0.4-0.1-0.7-0.1-1z"></path><path fill="#526d81" d="m31.4 24.3h-0.1c-0.3-0.1-0.6-0.1-0.9-0.1-0.3 0.1-0.6 0.1-0.9 0.1v-0.8c0.3 0.1 0.6 0.1 0.9 0.2l-0.2 0.2c0.2 0.1 0.4 0.1 0.6 0.1v-0.6c0.2-0.1 0.4-0.1 0.6-0.1v1z"></path><path fill="#427086" d="m17 22.4c0 0.2 0.1 0.3 0.3 0.4-0.2 0.2-0.3 0.5-0.4 0.8 0.1 0.1 0.1 0.1 0.3 0.1v0.6c0.5 0 0.5 0.1 0.1 0.3-0.1-0.1-0.3-0.2-0.5-0.2-0.1-0.1-0.2 0-0.3 0.1l-0.3-0.2c0 0.3 0 0.5 0 0.8-0.2-0.3-0.3-0.3-0.4 0 0.1 0.3 0.2 0.4 0.4 0.2 0.1 0.1 0.1 0.3-0.1 0.3-0.1-0.1-0.2-0.1-0.2 0-0.1-0.1-0.3-0.3-0.4-0.4 0.2-0.2 0.3-0.5 0.5-0.7 0-0.2-0.1-0.4-0.1-0.5-0.3 0.2-0.5 0.4-0.8 0.6-0.1 0.1-0.1 0-0.2-0.1 0.3-0.2 0.4-0.6 0.5-1 0.2-0.2 0.3-0.5 0.4-0.9 0 0.7 0.4 1 1 1 0-0.1 0-0.2-0.1-0.3-0.5-0.2-0.5-0.3-0.1-0.5 0-0.1 0.1-0.2 0.2-0.2l-0.5-0.2c0.2 0 0.4 0 0.6-0.1 0 0 0.1 0.1 0.1 0.1z"></path><path fill="#2d4e67" d="m27.3 20.7c0.2 0.1 0.3 0.2 0.5 0.2 0.2 0.2 0.4 0.3 0.6 0.4 0 0.3 0.1 0.6 0.1 1-0.3-0.3-0.4-0.5-0.3-0.8-0.2 0.2-0.3 0.4-0.3 0.5-0.1-0.1-0.1-0.3 0.1-0.5-0.2-0.1-0.4-0.1-0.5 0.2-0.2-0.3-0.4-0.3-0.3 0.1-0.2 0-0.4 0-0.5 0 0.1 0.2 0.1 0.4 0.2 0.6l0.1-0.1c0 0.3 0.1 0.6 0.2 0.9 0 0.1 0.1 0.2 0.2 0.3l-0.1 0.1c0.1 0 0.2 0 0.3 0 0-0.3 0.1-0.5 0.1-0.7-0.2-0.3-0.4-0.6-0.5-0.9 0.3-0.1 0.4-0.1 0.3 0.2 0.1 0.2 0.1 0.2 0.2 0 0 0.2 0.1 0.3 0.1 0.5 0-0.1 0.1-0.3 0.2-0.4 0 0.3 0 0.6 0 0.9 0.1 0.1 0.3 0.1 0.4 0.1 0 0.1 0 0.3-0.1 0.4-0.7-0.1-0.8 0.1-0.5 0.7-0.1 0.2-0.1 0.4-0.2 0.6-0.3 0.1-0.3 0.2-0.2 0.5-0.1 0.1-0.2 0.2-0.3 0.4l-0.1-0.1-0.2 0.9-0.6-0.5c-0.2 0.1-0.5 0.2-0.7 0.1 0 0.2 0 0.3-0.1 0.4-0.1-0.2-0.1-0.4-0.2-0.6-0.2 0-0.3 0-0.5-0.1 0.1-0.2 0.2-0.3 0.2-0.5-0.1-0.6-0.4-1.1-0.7-1.7 0.1 0 0.1 0 0.2-0.1-0.3-0.3-0.3-0.5 0.1-0.8 0 0.3 0 0.4 0 0.6 0.2 0.2 0.2 0.4 0 0.6 0.2 0.2 0.4 0.5 0.5 0.9 0.1-0.2 0.2-0.3 0.4-0.2-0.3 0.3-0.4 0.6-0.2 1l0.1-0.2c0.3 0.1 0.6 0.2 0.9 0.4 0.6-0.2 0.8-0.6 0.5-1.1l-0.2 0.1c-0.2-0.1-0.2-0.3-0.1-0.5 0.1 0.2 0.2 0.2 0.3 0.2-0.1-0.2-0.1-0.3 0.1-0.2 0-0.1 0-0.2 0-0.3 0.1 0.2 0.2 0.5 0.2 0.8 0.1-0.2 0.2-0.4 0.3-0.6-0.2-0.3-0.3-0.5-0.1-0.8-0.3-0.3-0.5-0.6-0.8-0.9 0-0.2 0.1-0.3 0.2-0.4-0.2-0.4-0.4-0.7-0.4-1.1 0.3 0 0.7 0.1 1.1 0.1v-0.6z"></path><path fill="#2e6e82" d="m29.5 22.5c-0.1 1.1-0.3 2.1-0.6 3.1l-0.7 1.4h-0.2c0.2-0.3 0.4-0.7 0.5-1.1 0.2-0.4 0.2-0.8 0-1.2 0.2-0.3 0.3-0.6 0.2-0.9 0-0.4 0-0.7 0-1.1l0.1 0.4c0-0.5 0.1-1 0.2-1.4 0 0.1 0 0.2 0 0.2 0-0.2 0.1-0.4 0.3-0.5-0.1 0.5 0 0.9 0.1 1.4 0-0.1 0-0.2 0.1-0.3z"></path><path fill="#4f788a" d="m18.3 23.2c0.2 0.3 0.6 0.5 1 0.4 0 0.1 0 0.2 0.1 0.3-0.1 0-0.2 0.1-0.3 0.2 0 0.3 0 0.4 0.1 0.1 0.4 0.1 0.8 0.3 1.1 0.6-0.2 0.2-0.1 0.5 0.1 0.7-0.1 0-0.2 0.1-0.3 0.2 0-0.3-0.1-0.6-0.2-0.9-0.2 0.5-0.4 0.5-0.4 0-0.1-0.1-0.3 0-0.4 0.1 0 0.2 0.1 0.5 0.3 0.7-0.1 0.2-0.3 0.3-0.3 0.5 0-0.1 0-0.2-0.1-0.2v-1.1h-1.2l0.2-0.4c0.1 0.1 0.2 0.1 0.4 0.1v-0.4c-0.1 0-0.2 0-0.3-0.1 0.1-0.1 0.2-0.2 0.3-0.3-0.1-0.2-0.1-0.3-0.1-0.5z"></path><path fill="#447f95" d="m12 22.7c-0.2 0.4-0.4 0.7-0.6 0.9-0.2-0.2-0.4-0.3-0.6-0.3-0.2 0-0.3 0.2-0.3 0.4 0.5 0.1 0.5 0.1 0 0.2 0 0.2 0 0.4 0.1 0.6 0.2-0.1 0.5-0.2 0.7-0.5 0.1 0 0.2 0.1 0.2 0.2-0.1 0.2-0.1 0.3 0 0.5-0.1 0.1-0.3 0.1-0.4 0 0.1-0.1 0.1-0.1 0-0.2-0.3 0.2-0.3 0.3 0 0.5-0.1 0.1-0.2 0.1-0.4 0.1 0.1 0.2 0 0.3-0.1 0.4 0 0-0.1 0.1-0.1 0.2-0.1-0.2-0.1-0.4-0.2-0.6-0.2-0.2-0.4-0.4-0.7-0.5 0.1-0.1 0.2-0.2 0.2-0.3-0.2-0.1-0.2-0.3-0.1-0.5-0.1-0.3-0.3-0.2-0.4 0.1 0-0.1 0-0.1 0-0.2 0-0.1 0.1-0.2 0.2-0.4-0.1-0.1-0.1-0.2-0.1-0.3l0.2 0.1c0.1-0.3 0.2-0.3 0.2 0.1-0.1 0.2 0 0.3 0.3 0.3-0.2-0.2-0.2-0.3 0-0.4 0.1 0 0.1 0.1 0.2 0.1-0.1 0.3-0.2 0.6-0.2 0.9 0 0.2 0.1 0.3 0.2 0.4 0-0.6 0-1.1 0.1-1.7 0 0 0-0.1 0.1-0.2 0.1 0.3 0.3 0.4 0.6 0.3-0.3-0.1-0.4-0.2-0.4-0.5h0.8c-0.1 0.2-0.1 0.5 0.1 0.7 0.1-0.2 0.2-0.3 0.4-0.4z"></path><path fill="#3b7086" d="m21.1 23.9c0.1-0.1 0.1-0.1 0.2-0.2 0.1 0.2 0.2 0.3 0.4 0.5 0 0 0.1-0.1 0.1-0.1h0.2c0 0-0.1 0.1-0.1 0.2 0.1 0.1 0.2 0.2 0.3 0.3 0-0.2 0.1-0.2 0.2-0.1-0.4 0.3-0.5 0.6-0.2 1.1-0.2 0.1-0.2 0.2-0.1 0.3-0.2 0.1-0.3 0-0.3-0.2 0.1-0.1 0-0.2-0.1-0.4 0 0.1-0.1 0.2-0.2 0.2 0-0.1-0.2-0.2-0.3-0.3-0.1-0.4-0.4-0.8-0.8-1.1 0.1 0 0.2-0.1 0.2-0.3 0.2-0.1 0.4-0.1 0.5 0z"></path><path fill="#373c55" d="m-0.1 24.3h1.2c0.1 0.1 0.2 0.1 0.4 0.2-0.3 0.1-0.7 0.2-1 0.1 0.7 0.2 1.3 0.2 2 0.3v0.3c-0.7 0.1-1.4 0.1-2.1 0v-0.6h-0.5v-0.3z"></path><path fill="#050d20" d="m31.3 24.3h0.1c0.3 0.1 0.6 0.2 0.9 0.3 0 0 0.1-0.1 0.2-0.1 0.3 0.1 0.7 0.2 1.1 0.3 0.1 0 0.2 0.1 0.3 0.1-0.3 0.1-0.7 0.2-0.9 0.4 0.1 0.6 0 1.1-0.1 1.7h-1.6c0.1-0.9 0.1-1.8 0-2.7z"></path><path fill="#d2e0e5" d="m17.5 25.4c0-0.2-0.1-0.3-0.2-0.1 0-0.2 0-0.4 0.1-0.5 0.1 0.4 0.2 0.4 0.3 0 0 0.2 0 0.4-0.2 0.6z"></path><path fill="#040512" d="m35.7 21.4c-0.5 0.1-1 0.1-1.6 0.1 0 1 0 2.1 0.2 3.1 0.5 0.3 1.1 0.4 1.6 0.5v1.9h-3c0.1-0.6 0.2-1.1 0.1-1.7 0.2-0.2 0.6-0.3 0.9-0.4-0.1 0-0.2-0.1-0.3-0.1 0.1 0 0.2-0.1 0.3-0.1-0.1 0-0.3-0.1-0.4-0.2 0 0 0-0.1 0.1-0.1-0.1-0.3-0.2-0.5-0.2-0.8l-0.1 0.5c-0.1-0.3-0.1-0.5-0.2-0.8h0.4c0-0.3 0-0.6-0.1-0.9l-0.1 0.7c0-0.4-0.1-0.8-0.2-1.2 0.2-0.1 0.3-0.2 0.3-0.4 0.7-0.1 1.5-0.2 2.3-0.1z"></path><path fill="#758a94" d="m18.8 25.9c-0.1 0.1-0.2 0.1-0.2-0.1 0.1-0.3 0.2-0.5 0.1-0.8h-0.6c-0.1 0.5 0 0.9 0.2 1.3h-0.4v-1.4h0.9v1z"></path><path fill="#eaf8fb" d="m17.8 24.8h1.2v1.1h-0.2v-1h-0.9v1.4h0.4c-0.1 0.1-0.3 0.2-0.5 0.1v-1.6z"></path><path fill="#2e5a73" d="m9.5 24.6h0.1c0.3 0.1 0.5 0.3 0.7 0.5-0.2 0.1-0.3 0.3-0.3 0.5-0.1-0.2-0.2-0.2-0.2 0.2-0.1-0.3-0.1-0.3-0.2-0.1 0.4 0.4 0.8 0.8 1.2 1.1 0.1 0 0.1 0.1 0.1 0.2h-1.5c-0.2-0.4-0.4-0.9-0.5-1.4 0.2-0.1 0.4-0.2 0.6-0.2 0.2-0.2 0.2-0.5 0-0.8z"></path><path fill="#192e47" d="m24.2 23.9c0.3 0.5 0.6 1 0.7 1.6 0 0.2-0.1 0.3-0.2 0.5 0.2 0.1 0.3 0.1 0.5 0.1 0.1 0.2 0.1 0.4 0.2 0.6-0.1 0-0.2 0.2-0.1 0.3h-2.1c0-0.1-0.1-0.2-0.2-0.2v-0.2c0.3-0.3 0.6-0.3 1 0 0.1-0.1 0.1-0.2 0-0.3l0.6-0.1c-0.3-0.1-0.6-0.1-0.9-0.1 0-0.2-0.1-0.3-0.2-0.4 0.2-0.1 0.4-0.3 0.5-0.5 0.1-0.1 0.2-0.3 0.1-0.4-0.1 0.1-0.2 0.2-0.3 0.3-0.1-0.2-0.2-0.2-0.3-0.2-0.1 0.2-0.2 0.3-0.3 0.4 0-0.2 0-0.4-0.1-0.5 0.3-0.1 0.5-0.1 0.8-0.2-0.1 0-0.2 0-0.2-0.1 0-0.2 0.1-0.4 0.2-0.5 0-0.4 0.1-0.5 0.3-0.2z"></path><path fill="#407f94" d="m9.5 24.6c0.2 0.3 0.2 0.6 0 0.8-0.2 0-0.4 0.1-0.6 0.2 0.1 0.5 0.3 1 0.5 1.4h-0.6c-0.1-0.5-0.3-0.9-0.5-1.4-0.1-0.3-0.1-0.7-0.1-1.1 0.1-0.1 0.2-0.3 0.3-0.5 0.2 0.1 0.4 0.2 0.4 0.5 0.2-0.1 0.4-0.1 0.5-0.1 0.1 0.1 0.1 0.2 0.1 0.2z"></path><path fill="#294e68" d="m12.1 25c-0.7 0-0.7 0.1-0.1 0.4-0.2 0-0.3 0.1-0.4 0.1l-0.1 0.7c-0.3-0.2-0.5-0.3-0.7-0.5-0.1 0.1-0.2 0-0.2-0.2 0.1-0.1 0.2-0.2 0.1-0.4 0.2 0 0.3 0 0.4-0.1-0.3-0.2-0.3-0.3 0-0.5 0.1 0.1 0.1 0.1 0 0.2 0.1 0.1 0.3 0.1 0.4 0-0.1-0.2-0.1-0.3 0-0.5 0.2-0.2 0.3-0.3 0.5-0.3 0.1 0.1 0.1 0.2 0 0.3 0.4 0.3 0.4 0.5 0 0.6 0 0 0.1 0.1 0.1 0.2z"></path><path fill="#2c4963" d="m23.2 23.6v0.6c0.3 0 0.4-0.1 0.6-0.2h0.1c-0.1 0.1-0.2 0.3-0.2 0.5 0 0.1 0.1 0.1 0.2 0.1-0.3 0.1-0.5 0.1-0.8 0.2 0.1 0.1 0.1 0.3 0.1 0.5 0.1-0.1 0.2-0.2 0.3-0.4 0.1 0 0.2 0 0.3 0.2 0.1-0.1 0.2-0.2 0.3-0.3 0.1 0.1 0 0.3-0.1 0.4-0.1 0.2-0.3 0.4-0.5 0.5 0.1 0.1 0.2 0.2 0.2 0.4 0.3 0 0.6 0 0.9 0.1l-0.6 0.1c0.1 0.1 0.1 0.2 0 0.3-0.4-0.3-0.7-0.3-1 0 0-0.2 0-0.4-0.1-0.5 0 0.2-0.1 0.2-0.2 0.1 0.1-0.1 0.1-0.2 0-0.3-0.2 0.1-0.3 0.3-0.5 0.4 0.1 0.1 0.2 0.2 0.4 0.1 0 0.5 0.1 0.5 0.2 0 0.1 0.2 0.1 0.3 0.2 0.4 0.1 0 0.2 0.1 0.2 0.2h-0.9c0.1-0.2 0-0.4-0.2-0.4-0.2-0.1-0.3-0.2-0.6-0.2 0.2-0.1 0.2-0.2 0.1-0.3-0.2 0.3-0.4 0.4-0.7 0.3-0.1-0.1 0-0.2 0.1-0.4-0.3-0.1-0.3-0.2 0-0.3-0.1 0-0.3-0.1-0.4-0.2 0.2-0.1 0.4-0.2 0.6-0.3 0.1 0.1 0.3 0.2 0.3 0.3 0.1 0 0.2-0.1 0.2-0.2 0.1 0.2 0.2 0.3 0.1 0.4 0 0.2 0.1 0.3 0.3 0.2-0.1-0.1-0.1-0.2 0.1-0.3-0.3-0.5-0.2-0.8 0.2-1.1-0.1-0.1-0.2-0.1-0.2 0.1-0.1-0.1-0.2-0.2-0.3-0.3 0-0.1 0.1-0.2 0.1-0.2 0.4-0.1 0.7-0.2 1.1-0.1 0-0.2 0-0.3 0.1-0.4z"></path><path fill="#25415b" d="m14.9 24.5c0.1 0.1 0.1 0.2 0.2 0.1 0.3-0.2 0.5-0.4 0.8-0.6 0 0.1 0.1 0.3 0.1 0.5-0.2 0.2-0.3 0.5-0.5 0.7 0.1 0.1 0.3 0.3 0.4 0.5 0-0.2 0.1-0.2 0.2 0 0.2-0.1 0.2-0.3 0.1-0.4-0.2 0.2-0.3 0.1-0.4-0.2 0.1-0.3 0.2-0.3 0.4 0 0-0.3 0-0.5 0-0.8l0.3 0.2c0.1-0.1 0.2-0.2 0.3-0.1 0 0.1-0.1 0.2-0.1 0.4-0.1 0.3 0 0.5 0.2 0.8-0.2 0.2-0.3 0.5-0.3 0.8-0.1 0-0.2 0-0.3 0.1 0.1 0.1 0.1 0.2-0.1 0.2-0.2-0.1-0.4-0.2-0.6-0.1 0 0.1 0 0.2-0.1 0.3-0.3-0.5-0.6-0.5-0.8 0.1h-0.6c-0.1-0.1-0.1-0.3-0.1-0.4 0.1-0.2 0.1-0.3 0.1-0.5 0.3 0 0.5 0.1 0.8 0.2 0.2-0.1 0.4 0 0.5 0.3 0.1-0.2 0.2-0.3 0.4-0.3-0.4-0.1-0.4-0.2 0-0.4-0.3-0.1-0.6 0-0.9 0.2-0.1-0.1-0.1-0.1-0.2-0.2-0.2 0.1-0.3 0.1-0.4-0.1-0.2 0.1-0.4 0.1-0.6-0.1l0.1-0.1c-0.2 0-0.3-0.1-0.4-0.3 0.2-0.2 0.3-0.5 0.4-0.8 0.2-0.1 0.4-0.2 0.5-0.4 0.3-0.1 0.3 0 0.2 0.3 0.1 0.1 0.2 0.2 0.4 0.1z"></path><path fill="#11142b" d="m4.8 25c0 0.2-0.1 0.2-0.3 0.1-0.1 0.3-0.1 0.3-0.2 0-0.2 0.2-0.2 0.3 0.1 0.4-0.1 0.1-0.1 0.2 0.1 0.3 0.1-0.6 0.2-0.6 0.4 0 0.1 0.1 0.3 0.1 0.4 0 0.1 0.1 0.1 0.3 0 0.4l-0.1-0.2-0.2 0.4c-0.3-0.1-0.5-0.3-0.8-0.4-0.5 0.5-0.7 0.4-0.7-0.3l-0.1 0.5c0-0.6-0.3-0.8-0.9-0.6 0.3 0.4 0.4 0.9 0.4 1.4h-3v-2.4h0.5v0.6c0.7 0.1 1.4 0.1 2.1 0 0.4-0.1 0.8-0.1 1.2-0.1 0.1-0.1 0.1-0.2-0.2-0.3 0.2 0 0.3-0.1 0.3-0.3 0.1 0.1 0.1 0.2 0.3 0.3 0.1-0.1 0.2-0.1 0-0.2 0.2 0 0.4 0 0.5-0.1 0.1 0.2 0.2 0.3 0.2 0.5z"></path><path fill="#c1d0d6" d="m18.6 25.8c0 0.2 0.1 0.2 0.2 0.1 0 0.3-0.2 0.4-0.5 0.4-0.2-0.4-0.3-0.8-0.2-1.3h0.6c0.1 0.3 0 0.5-0.1 0.8z"></path><path fill="#455d68" d="m18.6 25.8c-0.2 0.1-0.3 0.1-0.3-0.2 0.1-0.1 0.1-0.3 0-0.4 0.1-0.1 0.2-0.1 0.3-0.1v0.7z"></path><path fill="#abbac2" d="m16.7 24.8h0.3c0 0.2 0.1 0.4 0.3 0.5 0.1-0.2 0.2-0.1 0.2 0.1 0.2 0.3 0.2 0.7 0.2 1-0.1-0.4-0.2-0.4-0.3 0-0.2-0.5-0.3-0.5-0.4 0h-0.4c0-0.3 0.1-0.6 0.3-0.8-0.2-0.3-0.3-0.5-0.2-0.8z"></path><path fill="#102138" d="m27.6 25c0 0.1 0.1 0.3 0.2 0.4-0.1 0.1-0.2 0.2-0.3 0.2 0.2 0 0.3 0.1 0.4 0.3 0.1-0.3 0.2-0.6 0.4-0.8 0.1 0 0.2 0.1 0.2 0.2l-0.2 0.1c0 0.2 0.1 0.3 0.2 0.5-0.1 0.4-0.3 0.8-0.5 1.1h-2.7c-0.1-0.1 0-0.3 0.1-0.3s0.1-0.2 0.1-0.4c0.2 0.1 0.5 0 0.7-0.1l0.6 0.5 0.2-0.9 0.1 0.1c0.1-0.2 0.2-0.3 0.3-0.4-0.1-0.3-0.1-0.4 0.2-0.5z"></path><path fill="#bdccd2" d="m20.1 25.7c0.1 0.2 0.1 0.5 0 0.7 0-0.4-0.1-0.4-0.2 0-0.2-0.7-0.3-0.7-0.4 0h-0.4v-0.3c0-0.2 0.2-0.3 0.3-0.5-0.2-0.2-0.3-0.5-0.3-0.7 0.1-0.1 0.3-0.2 0.4-0.1 0 0.5 0.2 0.5 0.4 0 0.1 0.3 0.2 0.6 0.2 0.9z"></path><path fill="#4e778e" d="m23 26.6v0.2c-0.1-0.1-0.1-0.2-0.2-0.4-0.1 0.5-0.2 0.5-0.2 0-0.2 0.1-0.3 0-0.4-0.1 0.2-0.1 0.3-0.3 0.5-0.4 0.1 0.1 0.1 0.2 0 0.3 0.1 0.1 0.2 0.1 0.3-0.1 0 0.1 0 0.3 0 0.5z"></path><path fill="#091429" d="m30.4 24.2c0.3 0 0.6 0 0.9 0.1 0.1 0.9 0.1 1.8 0 2.7h-3.1l0.7-1.4c0 0.1 0.1 0.1 0.1 0.2 0.1-0.4 0.2-0.8 0.4-1.1 0-0.1-0.1-0.1-0.1-0.2 0.4 0 0.8-0.1 1.1-0.3z"></path><path fill="#0f1125" d="m6.9 24.6c0.1-0.1 0.2-0.2 0.2-0.3 0 0.4 0.1 0.4 0.3 0 0.1 0.2 0.1 0.3 0.3 0.3 0.3 0.8 0.6 1.6 0.9 2.4h-5.7c0-0.5-0.1-1-0.4-1.4 0.6-0.2 0.9 0 0.9 0.6l0.1-0.6c0 0.8 0.2 0.9 0.7 0.4 0.3 0.1 0.5 0.3 0.7 0.4l0.3-0.4 0.1 0.2c0.1-0.1 0.1-0.3 0-0.4-0.1 0.1-0.3 0.1-0.4 0-0.2-0.6-0.3-0.6-0.4 0-0.2-0.1-0.2-0.2-0.1-0.3-0.3-0.1-0.3-0.2-0.1-0.4 0.1 0.3 0.1 0.3 0.2 0 0.2 0.1 0.3 0.1 0.3-0.1 0.2-0.2 0.5-0.4 0.7-0.7 0.1 0.2 0 0.3-0.2 0.4 0.2 0.1 0.4 0.2 0.5 0.3 0-0.1 0-0.3 0-0.5 0.4 0 0.7 0.1 1.1 0.4 0-0.1 0-0.2 0-0.3z"></path><path fill="#1a324b" d="m14 26.6c0 0.1 0 0.3 0.1 0.4h-3.2c0-0.1 0-0.2-0.1-0.2-0.4-0.3-0.8-0.7-1.2-1.1 0.1-0.2 0.1-0.2 0.2 0.1 0-0.4 0.1-0.4 0.2-0.2 0-0.2 0.1-0.4 0.3-0.5 0.1 0.2 0.1 0.4 0.2 0.5 0 0 0.1-0.1 0.1-0.1 0 0.2 0.1 0.3 0.2 0.1 0.2 0.3 0.4 0.4 0.7 0.6l0.1-0.7c0.1 0 0.2-0.1 0.4-0.1-0.6-0.3-0.6-0.4 0.1-0.4 0.2 0 0.3-0.1 0.4-0.3 0 0.3 0.2 0.4 0.4 0.4-0.1 0.2-0.2 0.3-0.4 0.4-0.1-0.1-0.2-0.1-0.4 0l0.2 0.1c-0.2 0.4-0.5 0.7-0.9 0.8-0.1 0-0.1-0.1-0.1-0.2-0.1 0.2-0.1 0.5 0 0.7 0.2-0.4 0.5-0.5 0.9-0.6 0-0.3 0.1-0.4 0.3-0.3-0.1 0.2-0.2 0.5-0.2 0.8 0.2 0 0.4 0 0.6-0.1-0.2-0.3-0.3-0.6-0.2-0.9 0.1-0.1 0.3 0 0.4 0-0.2 0.2-0.2 0.3-0.1 0.5l0.2-0.3c0.3 0 0.5 0 0.8 0.1-0.1-0.1-0.2 0-0.3 0.2 0 0.3 0.1 0.4 0.3 0.3z"></path><path fill="#151e36" d="m22.1 26.6c0.2 0 0.3 0.2 0.2 0.4h-1.1c-0.1-0.1-0.1-0.2 0-0.3 0.3-0.1 0.6-0.2 0.9-0.1z"></path><path fill="#19263a" d="m16.6 26.4h0.4c0.1 0.2 0.2 0.3 0.2 0.5 0.1-0.3 0.2-0.2 0.2 0.1h-2.7c0.2-0.6 0.5-0.6 0.8-0.1 0.1-0.1 0.1-0.2 0.1-0.3 0.2-0.1 0.4 0 0.6 0.1 0.2 0 0.2-0.1 0.1-0.2 0.1-0.1 0.2-0.1 0.3-0.1z"></path></svg>