<svg xmlns="http://www.w3.org/2000/svg" version="1.1" width="256px" height="256px" style="shape-rendering:geometricPrecision; text-rendering:geometricPrecision; image-rendering:optimizeQuality; fill-rule:evenodd; clip-rule:evenodd" xmlns:xlink="http://www.w3.org/1999/xlink">
<g><path style="opacity:0.982" fill="#ff9404" d="M 111.5,9.5 C 161.914,5.96003 201.081,24.96 229,66.5C 248.341,101.716 250.675,138.049 236,175.5C 210.034,226.075 168.534,249.575 111.5,246C 62.1235,237.069 29.2902,208.902 13,161.5C -0.131372,104.196 17.3686,59.0295 65.5,26C 80.0571,17.9837 95.3905,12.4837 111.5,9.5 Z"/></g>
<g><path style="opacity:1" fill="#fffdfb" d="M 149.5,237.5 C 149.5,200.833 149.5,164.167 149.5,127.5C 134.657,127.171 119.99,127.504 105.5,128.5C 105.5,164.833 105.5,201.167 105.5,237.5C 102.399,237.308 99.3992,236.642 96.5,235.5C 95.1667,163.5 95.1667,91.5 96.5,19.5C 99.3992,18.3584 102.399,17.6917 105.5,17.5C 105.5,51.1667 105.5,84.8333 105.5,118.5C 120.167,118.5 134.833,118.5 149.5,118.5C 149.333,84.8317 149.5,51.165 150,17.5C 153.049,18.6101 156.216,19.2767 159.5,19.5C 159.5,91.5 159.5,163.5 159.5,235.5C 156.061,235.788 152.728,236.454 149.5,237.5 Z"/></g>
<g><path style="opacity:1" fill="#fffdfb" d="M 83.5,23.5 C 84.8333,92.8333 84.8333,162.167 83.5,231.5C 38.7147,210.657 15.3813,175.324 13.5,125.5C 16.8466,77.5322 40.18,43.5322 83.5,23.5 Z"/></g>
<g><path style="opacity:1" fill="#ffb761" d="M 83.5,23.5 C 83.56,22.9569 83.8933,22.6236 84.5,22.5C 85.8333,92.5 85.8333,162.5 84.5,232.5C 83.8933,232.376 83.56,232.043 83.5,231.5C 84.8333,162.167 84.8333,92.8333 83.5,23.5 Z"/></g>
<g><path style="opacity:1" fill="#fffbf7" d="M 171.5,24.5 C 197.87,36.0355 217.203,54.8688 229.5,81C 225.5,81.6667 221.5,81.6667 217.5,81C 208.819,63.9848 196.319,50.4848 180,40.5C 179.5,66.1645 179.333,91.8312 179.5,117.5C 199.169,117.333 218.836,117.5 238.5,118C 240.815,165.374 221.815,201.374 181.5,226C 178.264,227.786 174.93,229.286 171.5,230.5C 170.503,210.34 170.17,190.007 170.5,169.5C 173.5,169.5 176.5,169.5 179.5,169.5C 179.333,184.17 179.5,198.837 180,213.5C 210.901,193.386 227.068,164.719 228.5,127.5C 209.341,126.503 190.007,126.17 170.5,126.5C 170.168,92.3292 170.502,58.3292 171.5,24.5 Z"/></g>
<g><path style="opacity:1" fill="#ff9509" d="M 73.5,40.5 C 74.4978,66.6614 74.8312,92.9947 74.5,119.5C 58.5,119.5 42.5,119.5 26.5,119.5C 29.6336,85.5452 45.3003,59.2119 73.5,40.5 Z"/></g>
<g><path style="opacity:1" fill="#ffe9ce" d="M 171.5,24.5 C 170.502,58.3292 170.168,92.3292 170.5,126.5C 190.007,126.17 209.341,126.503 228.5,127.5C 208.833,127.5 189.167,127.5 169.5,127.5C 169.167,92.8269 169.5,58.1603 170.5,23.5C 171.107,23.6236 171.44,23.9569 171.5,24.5 Z"/></g>
<g><path style="opacity:1" fill="#ff9402" d="M 27.5,128.5 C 42.6576,129.496 57.9909,129.83 73.5,129.5C 73.5,157.167 73.5,184.833 73.5,212.5C 42.4525,193.069 27.1192,165.069 27.5,128.5 Z"/></g>
<g><path style="opacity:1" fill="#ffab41" d="M 105.5,128.5 C 119.99,127.504 134.657,127.171 149.5,127.5C 149.5,164.167 149.5,200.833 149.5,237.5C 148.502,201.337 148.168,165.004 148.5,128.5C 134.167,128.5 119.833,128.5 105.5,128.5 Z"/></g>
<g><path style="opacity:1" fill="#ffa126" d="M 27.5,128.5 C 43.1667,128.5 58.8333,128.5 74.5,128.5C 74.8327,157.241 74.4993,185.241 73.5,212.5C 73.5,184.833 73.5,157.167 73.5,129.5C 57.9909,129.83 42.6576,129.496 27.5,128.5 Z"/></g>
<g><path style="opacity:1" fill="#ffeed8" d="M 170.5,169.5 C 170.17,190.007 170.503,210.34 171.5,230.5C 171.44,231.043 171.107,231.376 170.5,231.5C 169.172,210.671 169.172,190.004 170.5,169.5 Z"/></g>
</svg>
