<?xml version="1.0"?><svg xmlns="http://www.w3.org/2000/svg" width="36" height="36" shape-rendering="geometricPrecision" text-rendering="geometricPrecision" image-rendering="optimizeQuality" fill-rule="evenodd" clip-rule="evenodd" viewBox="0 0 36 36"><path fill="#fdfdfd" d="m-0.1-0.1h16.4c-3.5 2.6-7.2 4.7-11.2 6.4-1 0.4-2 0.8-3 1 0.1 0.4 0.1 0.8 0.1 1.2 0 0.6 0.1 1.1 0.2 1.7 0.3 4.1 1 8.2 2.1 12.2 1 3.2 2.7 5.9 4.9 8.3 2.1 1.8 4.2 3.6 6.4 5.2h-15.9v-36z"></path><path fill="#070707" d="m16.3-0.1h3.2c3.8 2.8 7.9 5 12.3 6.9 0.6 0.2 1.2 0.4 1.9 0.5-0.4 3.5-0.8 7.1-1.3 10.6-0.8 5.8-3.4 10.6-7.8 14.4-1.5 1.2-3.1 2.5-4.6 3.6h-4.2c-2.2-1.6-4.3-3.4-6.4-5.2-2.2-2.4-3.9-5.1-4.9-8.3-1.1-4-1.8-8.1-2.1-12.2 0-0.6 0-1.2-0.2-1.7 0-0.4 0-0.8-0.1-1.2 1-0.2 2-0.6 3-1 4-1.7 7.7-3.8 11.2-6.4z"></path><path fill="#fdfdfd" d="m19.5-0.1h16.4v36h-15.9c1.5-1.1 3.1-2.4 4.6-3.6 4.4-3.8 7-8.6 7.8-14.4 0.5-3.5 0.9-7.1 1.3-10.6-0.7-0.1-1.3-0.3-1.9-0.5-4.4-1.9-8.5-4.1-12.3-6.9z"></path><path fill="#fbfbfb" d="m31.8 8.4c0.1 0.1 0.2 0.2 0.2 0.4-0.3 3.4-0.8 6.7-1.3 10-0.8 4.6-2.9 8.4-6.2 11.5-1.2 0.8-2.2 1.7-3.3 2.7l-3.3 2.3c-3.3-2.2-6.3-4.7-9-7.7-1.9-2.5-3.1-5.3-3.7-8.4-0.5-2.4-0.8-4.7-1-7.1 0.1-0.6 0-1.2-0.2-1.8-0.1-0.6-0.1-1.3-0.2-1.9 2.3-0.6 4.4-1.5 6.5-2.7 2.6-1.5 5.1-3 7.6-4.6 3.6 2.4 7.3 4.6 11.3 6.4 0.8 0.4 1.7 0.7 2.6 0.9z"></path><path fill="#030303" d="m20.9 20.8c0.1-1.2 0.1-2.4 0.1-3.6h-3.7v-3.4h7.8c0.1 3.1 0 6.2-0.1 9.3-3.4 1.6-6.9 1.9-10.5 1-3.5-1.4-5.4-4-5.7-7.7-0.4-5.3 1.9-8.8 6.8-10.6 2.1-0.4 4.3-0.5 6.5-0.2 0.7 0.2 1.4 0.4 2.1 0.6 0.1 1.3 0.1 2.6 0 3.9-2.4-1.3-4.9-1.6-7.5-0.9-2.9 1.6-4.1 4-3.5 7.3 0.6 3.3 2.7 4.9 6.1 4.6 0.6 0 1.1-0.1 1.6-0.3z"></path><path fill="#787878" d="m31.8 8.4h0.3c0 0.2 0 0.3-0.1 0.4 0-0.2-0.1-0.3-0.2-0.4z"></path><path fill="#b5b5b5" d="m2.2 8.5c0.2 0.5 0.2 1.1 0.2 1.7-0.1-0.6-0.2-1.1-0.2-1.7z"></path><path fill="#a2a2a2" d="m4 10.3c0.2 0.6 0.3 1.2 0.2 1.8-0.1-0.6-0.2-1.2-0.2-1.8z"></path><path fill="#b9b9b9" d="m17.3 17.2h3.7c0 1.2 0 2.4-0.1 3.6v-3.5c-1.3 0-2.5 0-3.6-0.1z"></path><path fill="#141414" d="m13.2 24.9c0.4 0 0.8 0.1 1.3 0.1 0 0.2 0 0.4-0.2 0.6-0.4-0.2-0.7-0.2-1.1 0-0.1 0.1-0.1 0.3 0 0.4 0.3 0.2 0.6 0.4 0.9 0.6 0.6 0.4 0.6 0.9 0.1 1.4-0.5 0.3-1 0.4-1.5 0.2-0.3-0.2-0.3-0.4-0.2-0.7 0.5 0.3 0.9 0.3 1.3-0.1 0-0.2-0.1-0.3-0.2-0.4-0.5-0.1-0.8-0.4-1.1-0.7-0.2-0.7 0-1.2 0.7-1.4z"></path><path fill="#151515" d="m23.1 25.3h0.4v0.6h0.5v0.5h-0.5c-0.1 0.4 0 0.8 0 1.2 0.2 0.1 0.3 0.2 0.5 0.1v0.6c-0.4 0.1-0.8 0-1.1-0.3-0.1-0.6-0.2-1.1-0.1-1.6h-0.4v-0.5h0.4v-0.5c0.1 0 0.2 0 0.3-0.1z"></path><path fill="#141414" d="m15.9 28.1c0-0.1 0-0.1-0.1-0.1-0.1 0.4-0.1 0.8-0.1 1.2h-0.7v-3.3c0.3 0 0.6 0.1 0.8 0.3 0.6-0.5 1.1-0.4 1.5 0.2 0.1 0.5 0.1 1.1-0.2 1.6-0.4 0.3-0.8 0.4-1.2 0.1z m2.8-2.3c1.5 0.1 1.9 0.7 1.3 2-0.8 0.7-1.5 0.6-2.1-0.3-0.2-0.8 0.1-1.4 0.8-1.7z"></path><path fill="#0a0a0a" d="m21.8 25.8h0.4c0 0.2 0 0.5 0 0.7-0.3-0.2-0.5-0.1-0.7 0.2-0.1 0.5-0.1 1-0.1 1.5h-0.6v-2.3h0.6c0.1 0.4 0.2 0.4 0.4-0.1z"></path><path fill="#101010" d="m11.8 27.6c0 0.2-0.1 0.4-0.2 0.5-0.3 0.1-0.7 0.1-1.1 0.1-0.3-0.1-0.5-0.3-0.6-0.7-0.2-1.3 0.3-1.8 1.6-1.5 0.4 0.3 0.6 0.7 0.5 1.2h-1.5c0.2 0.7 0.6 0.8 1.3 0.4z"></path><path fill="#dbdbdb" d="m10.7 26.3c0.4-0.1 0.6 0 0.7 0.4-0.3 0.1-0.6 0.2-0.9 0.1 0-0.2 0.1-0.4 0.2-0.5z"></path><path fill="#e9e9e9" d="m15.9 26.4c0.7-0.1 1 0.3 0.8 1-0.2 0.3-0.4 0.4-0.8 0.3-0.3-0.5-0.3-0.9 0-1.3z"></path><path fill="#e7e7e7" d="m18.7 26.4c0.8-0.1 1.1 0.2 0.9 1-0.3 0.4-0.6 0.4-1 0.1-0.1-0.4-0.1-0.8 0.1-1.1z"></path><path fill="#171717" d="m24.9 25.8h0.9c0 0.2 0 0.4 0 0.6-0.3-0.1-0.5-0.2-0.8-0.1 0 0.1-0.1 0.2-0.1 0.3 0.3 0.2 0.7 0.4 1 0.6 0.1 0.7-0.3 1.1-1.1 1.1-0.5 0-0.7-0.2-0.5-0.7 0.4 0.3 0.7 0.3 1 0-0.1-0.1-0.1-0.2-0.2-0.3-0.6 0-0.9-0.4-0.8-1 0.2-0.3 0.4-0.4 0.6-0.5z"></path><path fill="#b2b2b2" d="m11.8 27.6c0.1 0.2 0.1 0.4 0 0.6-0.5 0.1-0.9 0.1-1.3 0 0.4 0 0.8 0 1.1-0.1 0.1-0.1 0.2-0.3 0.2-0.5z"></path><path fill="#a4a4a4" d="m15.9 28.1c-0.1 0.4-0.1 0.8-0.1 1.2-0.3 0-0.5 0-0.8-0.1h0.7c0-0.4 0-0.8 0.1-1.2 0.1 0 0.1 0 0.1 0.1z"></path></svg>