<svg xmlns="http://www.w3.org/2000/svg" width="320" height="320" viewBox="0 0 320 320" version="1.1">
	<path fill-opacity="0.216" d="M 135.929 6.390 C 99.590 30.691, 56.254 53.277, 29.730 61.739 C 18.670 65.268, 17.977 65.642, 18.502 67.796 C 19.502 71.902, 21.968 91.978, 24.485 116.500 C 29.209 162.516, 37.321 197.396, 49.324 223.305 C 56.587 238.983, 69.479 257.340, 83.428 271.864 C 90.687 279.422, 124.848 308.294, 135.413 315.799 L 141.326 320 159.716 320 L 178.106 320 185.803 314.320 C 200.216 303.683, 226.474 281.236, 236.063 271.355 C 265.862 240.647, 280.191 209.464, 289.990 154 C 292.139 141.833, 293.260 132.921, 296.027 106 C 297.130 95.275, 298.708 81.820, 299.534 76.101 C 300.359 70.382, 300.866 65.533, 300.660 65.327 C 300.454 65.120, 297.183 64.091, 293.392 63.039 C 268.565 56.151, 223.665 32.982, 183.150 6.153 L 173.858 0 159.672 0 L 145.485 0 135.929 6.390 M 150 16.150 C 136.530 25.680, 109.517 42.228, 92.309 51.493 C 73.518 61.610, 59.408 67.927, 44.686 72.815 C 35.001 76.030, 33.932 76.618, 34.442 78.452 C 35.155 81.015, 37.431 99.812, 39.985 124.224 C 42.421 147.509, 44.969 162.597, 49.436 180.176 C 60.432 223.458, 76.299 247.698, 114.439 279.485 C 133.541 295.406, 158.478 313.414, 160.400 312.677 C 163.792 311.375, 188.281 293.226, 202.576 281.420 C 242.352 248.570, 259.146 223.312, 270.042 179.956 C 273.274 167.095, 277.549 143.218, 278.538 132.500 C 279.538 121.675, 283.963 82.865, 284.585 79.470 L 285.140 76.440 274.237 72.758 C 247.475 63.721, 212.836 45.293, 174.774 19.846 C 166.675 14.431, 159.700 10.031, 159.274 10.069 C 158.848 10.106, 154.675 12.843, 150 16.150 M 150.908 49.460 C 115.932 55.209, 89.853 77.961, 80.800 110.622 C 78.941 117.329, 78.609 121.175, 78.564 136.500 C 78.518 152.292, 78.794 155.539, 80.820 162.970 C 87.311 186.790, 105.139 206.257, 127.600 214.052 C 153.591 223.072, 191.382 221.200, 216.369 209.656 L 224 206.130 224 164.565 L 224 123 188.500 123 L 153 123 153 138 L 153 153 169.500 153 L 186 153 186 168.922 L 186 184.845 182.250 186.172 C 179.859 187.019, 173.789 187.495, 165.500 187.486 C 153.748 187.474, 151.900 187.221, 146.248 184.852 C 129.655 177.896, 120.717 165.028, 118.023 144.216 C 114.609 117.840, 125.022 95.141, 145.151 85.082 C 153.966 80.677, 160.493 79.665, 176 80.295 C 190.238 80.874, 198.726 82.693, 209.569 87.488 C 212.693 88.870, 215.418 90, 215.624 90 C 215.831 90, 216 82.157, 216 72.571 L 216 55.142 210.279 53.479 C 193.638 48.641, 166.899 46.831, 150.908 49.460 M 112.972 224.875 C 107.772 230.074, 109.563 235.225, 118.070 239.535 C 123.276 242.173, 124.254 244.259, 121.082 245.956 C 119.044 247.047, 113.322 246.330, 112.420 244.871 C 111.279 243.024, 110 244.131, 110 246.965 C 110 250.701, 112.285 252, 118.858 252 C 127.467 252, 132.485 245.512, 128.964 238.933 C 128.394 237.868, 125.726 235.881, 123.035 234.518 C 117.074 231.497, 116.104 230.134, 118.597 228.286 C 120.414 226.940, 123.364 227.034, 127.323 228.565 C 128.900 229.175, 129.103 228.812, 128.823 225.885 L 128.500 222.500 122.222 222.202 C 116.404 221.925, 115.725 222.121, 112.972 224.875 M 205.750 225.218 C 204.036 225.809, 203 226.889, 203 228.083 C 203 229.137, 202.325 230, 201.500 230 C 200.500 230, 200 231, 200 233 C 200 235, 200.500 236, 201.500 236 C 202.667 236, 203 237.333, 203 242 C 203 249.249, 205.063 252, 210.500 252 C 213.692 252, 214 251.746, 214 249.111 C 214 246.974, 213.545 246.258, 212.250 246.361 C 210.822 246.474, 210.444 245.534, 210.198 241.250 C 209.926 236.524, 210.100 236, 211.948 236 C 213.578 236, 214 235.360, 214 232.883 C 214 230.259, 213.684 229.849, 212 230.290 C 210.346 230.722, 210 230.320, 210 227.965 C 210 224.470, 209.276 224.002, 205.750 225.218 M 92.117 231.631 C 86.356 235.666, 85.870 245.030, 91.189 249.506 C 96.011 253.563, 106 252.555, 106 248.012 C 106 246.304, 105.465 246.158, 101.103 246.674 C 96.809 247.183, 96.066 246.992, 95.068 245.127 C 93.961 243.059, 94.109 243, 100.465 243 L 107 243 107 238.955 C 107 233.493, 103.594 230, 98.268 230 C 96.165 230, 93.397 230.734, 92.117 231.631 M 134.677 230.656 C 134.305 231.029, 134 238.037, 134 246.230 L 134 261.127 137.250 260.813 C 140.414 260.508, 140.513 260.354, 141 255 C 141.302 251.683, 141.821 249.996, 142.309 250.750 C 143.543 252.657, 148.424 252.241, 151.293 249.984 C 158.672 244.180, 156.027 229.973, 147.576 230.015 C 145.884 230.024, 143.846 230.444, 143.048 230.949 C 142.249 231.455, 141.124 231.572, 140.548 231.209 C 138.974 230.220, 135.446 229.887, 134.677 230.656 M 163.775 231.559 C 160.233 233.481, 159 235.919, 159 241 C 159 246.170, 160.257 248.564, 163.980 250.490 C 169.818 253.509, 177.501 251.585, 179.805 246.528 C 183.558 238.292, 179.023 229.964, 170.827 230.040 C 168.447 230.062, 165.274 230.746, 163.775 231.559 M 185 240.500 L 185 251 188.456 251 L 191.912 251 192.206 243.750 L 192.500 236.500 195.625 236.196 C 198.220 235.944, 198.750 235.463, 198.750 233.367 C 198.750 230.401, 196.491 229.212, 193.914 230.822 C 192.755 231.546, 191.873 231.603, 191.487 230.980 C 191.154 230.441, 189.559 230, 187.941 230 L 185 230 185 240.500 M 218.195 231.561 C 216.377 232.846, 215.955 233.961, 216.195 236.845 C 216.462 240.042, 217.027 240.750, 220.714 242.500 C 226.551 245.271, 226.415 247.420, 220.445 246.747 C 216.005 246.246, 215.897 246.300, 216.195 248.867 C 216.435 250.942, 217.116 251.570, 219.408 251.832 C 227.340 252.736, 232.938 248.872, 231.573 243.435 C 231.116 241.616, 229.602 240.269, 226.439 238.870 C 221.104 236.510, 221.517 234.538, 227.188 235.298 C 230.962 235.805, 231.104 235.721, 230.808 233.163 C 230.525 230.720, 230.086 230.477, 225.500 230.216 C 222.110 230.024, 219.758 230.457, 218.195 231.561 M 95.114 236.363 C 93.712 238.051, 94.398 238.576, 98.322 238.816 C 100.515 238.951, 101.070 238.600, 100.812 237.245 C 100.388 235.021, 96.701 234.450, 95.114 236.363 M 142.200 236.200 C 140.182 238.218, 140.702 244.770, 142.977 245.988 C 147.234 248.266, 151.050 240.193, 147.429 236.571 C 145.550 234.692, 143.830 234.570, 142.200 236.200 M 167.200 236.200 C 165.169 238.231, 165.703 244.771, 168 246 C 171.335 247.785, 174 245.637, 174 241.165 C 174 237.152, 172.604 235, 170 235 C 169.120 235, 167.860 235.540, 167.200 236.200" stroke="none" fill="black" fill-rule="evenodd"/>
	<path fill-opacity="0.540" d="M 131.500 9.432 C 93.755 34.408, 49.910 56.748, 25.142 63.623 L 18.784 65.388 19.325 69.444 C 21.613 86.571, 23.599 103.992, 26.058 128.500 C 27.359 141.464, 31.365 164.338, 34.989 179.500 C 43.997 217.180, 56.395 241.308, 80.926 268.893 C 87.719 276.533, 121.973 305.778, 134.754 314.851 L 142.007 320 159.754 319.963 L 177.500 319.926 184.142 315.213 C 196.082 306.741, 228.862 278.925, 236.694 270.620 C 251.101 255.342, 264.927 234.831, 271.857 218.459 C 283.144 191.787, 290.202 159.395, 294.979 112.339 C 297.140 91.056, 299.553 71.634, 300.514 67.796 C 301.048 65.661, 300.507 65.338, 292.794 63.185 C 269.428 56.662, 231.629 37.498, 190.625 11.384 L 172.750 -0 159.125 0.084 L 145.500 0.168 131.500 9.432 M 144 19.735 C 106.476 45.017, 64.665 66.957, 41.500 73.521 C 38.200 74.456, 35.172 75.523, 34.770 75.891 C 34.369 76.259, 34.720 81.721, 35.551 88.030 C 36.381 94.338, 37.483 103.550, 37.998 108.500 C 42.231 149.123, 43.819 159.428, 49.034 180.117 C 57.740 214.654, 71.051 238.900, 93.877 261.797 C 100.908 268.850, 129.954 293.110, 138.500 299.068 C 141.800 301.369, 147.917 305.651, 152.092 308.583 L 159.685 313.915 172.592 304.900 C 190.366 292.486, 221.287 266.739, 230.145 256.976 C 249.559 235.579, 261.376 213.559, 269.308 184 C 273.897 166.897, 277.776 145.260, 279.438 127.500 C 280.412 117.080, 283.055 93.758, 284.026 87 C 285.634 75.811, 285.525 75.320, 281.250 74.526 C 263.041 71.145, 217.563 47.741, 177.500 21.135 C 168.700 15.290, 161.050 10.235, 160.500 9.901 C 159.950 9.566, 152.525 13.992, 144 19.735 M 152 49.610 C 130.113 53.540, 114.979 61.111, 101.874 74.685 C 84.652 92.524, 76.898 114.661, 78.314 141.944 C 79.065 156.407, 81.693 166.886, 87.559 178.802 C 91.206 186.209, 93.707 189.673, 99.835 195.802 C 116.409 212.380, 134.797 218.961, 164.619 218.987 C 186.232 219.006, 200.789 216.257, 216.250 209.239 L 224 205.722 224 164.361 L 224 123 189 123 L 154 123 154 138 L 154 153 170.500 153 L 187 153 187 168.972 L 187 184.944 181.250 186.640 C 173.787 188.841, 158.502 188.895, 150.671 186.747 C 139.157 183.590, 128.686 175.197, 123.484 164.957 C 118.863 155.860, 117.550 149.343, 117.550 135.500 C 117.550 116.763, 121.248 105.905, 131.220 95.361 C 143.652 82.216, 159.117 77.409, 181 79.889 C 192.883 81.236, 200.711 83.244, 208.862 87.039 C 212.362 88.667, 215.399 90, 215.612 90 C 215.826 90, 216 82.339, 216 72.975 L 216 55.950 213.250 54.903 C 203.018 51.004, 194.223 49.770, 174.500 49.468 C 163.500 49.299, 153.375 49.363, 152 49.610 M 115.400 223.428 C 111.914 224.945, 111 226.635, 111 231.559 C 111 235.099, 112.297 236.401, 119.320 239.911 C 123.497 241.998, 124.173 245.667, 120.549 246.577 C 118.017 247.213, 116.326 246.976, 112.670 245.476 C 111.117 244.838, 110.890 245.151, 111.170 247.546 C 111.566 250.936, 115.376 252.369, 121.410 251.399 C 132.041 249.690, 132.876 238.901, 122.707 234.650 C 118.049 232.703, 116.386 230.445, 118.094 228.386 C 119.125 227.145, 120.536 226.903, 124.217 227.339 C 128.724 227.873, 129 227.771, 129 225.570 C 129 223.992, 128.269 223.037, 126.750 222.630 C 123.146 221.665, 118.739 221.974, 115.400 223.428 M 204.750 225.689 C 203.690 225.966, 203 227.103, 203 228.573 C 203 230.064, 202.421 231, 201.500 231 C 200.567 231, 200 231.944, 200 233.500 C 200 234.967, 200.517 235.897, 201.250 235.750 C 202.073 235.585, 202.590 237.038, 202.764 240 C 202.909 242.475, 203.253 245.507, 203.530 246.737 C 204.226 249.840, 208.380 252.372, 211.493 251.591 C 214.641 250.801, 214.791 247.821, 211.750 246.487 C 209.848 245.653, 209.500 244.726, 209.500 240.500 C 209.500 237.233, 209.933 235.457, 210.750 235.375 C 211.438 235.306, 212.450 235.194, 213 235.125 C 215.085 234.864, 214.003 231.140, 211.750 230.820 C 210.139 230.591, 209.410 229.719, 209.184 227.750 C 208.873 225.052, 208.267 224.770, 204.750 225.689 M 93.110 231.396 C 91.796 232.124, 90.124 233.796, 89.396 235.110 C 87.779 238.027, 87.612 244.407, 89.080 247.150 C 90.689 250.157, 96.530 252.255, 101.127 251.479 C 104.345 250.935, 105 250.425, 105 248.464 C 105 246.273, 104.784 246.179, 101.983 247.156 C 99.585 247.992, 98.456 247.874, 96.483 246.581 C 91.901 243.579, 93.286 242, 100.500 242 L 107 242 107 238.923 C 107 232.347, 99.109 228.071, 93.110 231.396 M 143.063 231.636 C 141.348 232.860, 140.508 233.024, 140.229 232.188 C 140.012 231.535, 138.521 231, 136.917 231 L 134 231 134 245.500 L 134 260 137 260 C 139.942 260, 140 259.901, 140 254.893 C 140 250.390, 140.207 249.881, 141.750 250.589 C 145.002 252.081, 150.024 251.421, 152.233 249.212 C 155.277 246.168, 155.963 236.389, 153.353 233.241 C 150.807 230.170, 146.136 229.442, 143.063 231.636 M 165.500 230.945 C 159.261 233.499, 157.179 243.368, 161.835 248.324 C 166.013 252.772, 174.880 252.469, 178.798 247.744 C 180.769 245.367, 181.404 239.389, 180.036 236.087 C 178.074 231.351, 170.797 228.777, 165.500 230.945 M 193.223 231.557 C 191.977 232.429, 191 232.649, 191 232.057 C 191 231.476, 189.650 231, 188 231 L 185 231 185 241 L 185 251 188 251 L 191 251 191 245 C 191 240.259, 191.436 238.564, 193.077 236.923 C 194.220 235.780, 195.795 235.091, 196.577 235.391 C 197.611 235.788, 198 235.125, 198 232.969 C 198 229.628, 196.577 229.207, 193.223 231.557 M 220.098 231.265 C 214.074 234.363, 214.749 239.508, 221.618 242.845 C 225.936 244.943, 226.178 245.250, 224.689 246.740 C 223.352 248.076, 222.457 248.169, 219.536 247.272 C 216.180 246.242, 216 246.307, 216 248.548 C 216 252.656, 224.830 253.108, 229.250 249.227 C 232.159 246.672, 231.500 242.184, 227.925 240.203 C 222.057 236.953, 221.310 236.167, 223 235.021 C 223.825 234.461, 225.738 234.264, 227.250 234.581 C 229.516 235.057, 230 234.812, 230 233.186 C 230 229.959, 224.654 228.921, 220.098 231.265 M 95.571 235.571 C 93.133 238.010, 93.689 239, 97.500 239 C 100.267 239, 101 238.604, 101 237.107 C 101 236.066, 100.288 234.941, 99.418 234.607 C 97.301 233.795, 97.364 233.779, 95.571 235.571 M 141.571 236.571 C 138.458 239.685, 140.512 247, 144.500 247 C 146.862 247, 149 243.973, 149 240.629 C 149 235.368, 144.974 233.169, 141.571 236.571 M 166.557 237.223 C 165.701 238.445, 165 240.145, 165 241 C 165 243.474, 167.939 247, 170 247 C 172.281 247, 175 243.384, 175 240.349 C 175 235.402, 169.308 233.294, 166.557 237.223" stroke="none" fill="black" fill-rule="evenodd"/>
	<path fill-opacity="0.739" d="M 138.491 5.344 C 97.079 33.040, 48.042 58.303, 24.500 64.070 C 21.750 64.744, 19.377 65.389, 19.227 65.503 C 19.077 65.618, 19.617 70.164, 20.426 75.606 C 21.235 81.048, 22.823 94.500, 23.956 105.500 C 26.877 133.880, 27.901 142.087, 30.008 154 C 39.641 208.460, 54.031 240.094, 82.859 270.186 C 92.567 280.319, 123.178 306.390, 136.413 315.797 L 142.326 320 159.659 320 L 176.993 320 184.064 314.954 C 199.724 303.780, 232.050 275.905, 240.070 266.659 C 272.511 229.259, 286.622 190.385, 294.031 118 C 295.865 100.084, 296.735 92.641, 299.670 69.750 C 300.193 65.668, 300.034 65, 298.537 65 C 295.748 65, 280.500 59.626, 267.500 54.063 C 246.077 44.893, 211.707 25.700, 184.687 7.818 L 172.875 0 159.679 -0 L 146.482 -0 138.491 5.344 M 144.500 19.150 C 105.289 45.474, 65.486 66.292, 40.251 73.672 C 33.011 75.790, 33.329 74.664, 35.496 90.540 C 36.319 96.568, 37.880 110.275, 38.966 121 C 45.894 189.468, 59.676 225.926, 91.465 259.878 C 101.703 270.813, 145.017 305.254, 158.745 313.375 C 161.398 314.945, 205.785 281.073, 223.337 264.085 C 243.699 244.378, 257.794 222.029, 265.962 196.500 C 272.950 174.662, 277.702 149.682, 280.514 120.011 C 282.067 103.620, 284.454 83.981, 285.573 78.386 C 286.149 75.503, 286.058 75.434, 279.329 73.646 C 268.906 70.878, 252.293 63.790, 233.500 54.094 C 213.063 43.550, 201.170 36.483, 178 21.115 C 168.375 14.732, 160.275 9.412, 160 9.294 C 159.725 9.176, 152.750 13.611, 144.500 19.150 M 149.306 50.485 C 120.553 55.701, 99.507 71, 87.143 95.671 C 76.110 117.688, 75.603 152.730, 85.986 175.630 C 95.280 196.128, 113.673 210.552, 138.129 216.522 C 147.123 218.717, 169.380 219.520, 181.650 218.091 C 194.306 216.617, 207.575 213.115, 216.306 208.945 L 223 205.747 223 164.374 L 223 123 188.500 123 L 154 123 154 138 L 154 153 170.525 153 L 187.050 153 186.775 169.150 L 186.500 185.301 182.500 186.798 C 179.750 187.828, 174.594 188.304, 166 188.323 C 155.701 188.345, 152.491 187.977, 147.767 186.235 C 137.707 182.523, 128.895 175.104, 123.630 165.914 C 114.773 150.455, 114.820 121.252, 123.728 104.701 C 129.879 93.274, 142.768 83.682, 156.240 80.506 C 171.553 76.895, 197.006 80.351, 212.202 88.103 L 216.048 90.065 215.774 72.797 L 215.500 55.528 209 53.738 C 192.286 49.133, 164.965 47.645, 149.306 50.485 M 118 222.724 C 114.059 223.436, 111 226.893, 111 230.635 C 111 234.420, 113.238 236.902, 118.991 239.496 C 123.293 241.436, 124.630 243.536, 122.895 245.627 C 121.537 247.263, 115.685 247.437, 112.861 245.925 C 111.047 244.955, 110.884 245.124, 111.176 247.675 C 111.491 250.422, 111.683 250.508, 118.087 250.792 C 126.292 251.156, 129.400 249.213, 129.400 243.722 C 129.400 239.309, 127.919 237.499, 121.750 234.373 C 117.857 232.401, 116.937 231.458, 117.187 229.701 C 117.464 227.752, 118.102 227.500, 122.752 227.500 C 127.440 227.500, 128.003 227.272, 128.002 225.375 C 128 223.796, 127.198 223.090, 124.875 222.625 C 123.156 222.281, 121.469 222.061, 121.125 222.136 C 120.781 222.211, 119.375 222.476, 118 222.724 M 206.250 225.820 C 204.621 226.051, 204 226.810, 204 228.570 C 204 230.333, 203.451 231, 202 231 C 200.708 231, 200 231.667, 200 232.883 C 200 233.926, 200.893 235, 202 235.290 C 203.737 235.744, 204 236.654, 204 242.206 C 204 249.640, 204.959 251, 210.200 251 C 213.288 251, 214 250.638, 214 249.070 C 214 247.829, 213.196 247.025, 211.750 246.820 C 209.757 246.536, 209.466 245.844, 209.200 240.750 C 208.909 235.175, 208.978 235, 211.450 235 C 213.333 235, 214 234.477, 214 233 C 214 231.547, 213.333 231, 211.563 231 C 209.648 231, 209.060 230.412, 208.813 228.250 C 208.561 226.039, 208.059 225.563, 206.250 225.820 M 196 230.709 C 195.175 231.013, 193.713 231.947, 192.750 232.785 C 191.174 234.158, 191 234.145, 191 232.655 C 191 231.483, 190.125 231, 188 231 L 185 231 185 241 L 185 251 188 251 L 191 251 191 244.655 C 191 239.620, 191.405 237.943, 192.963 236.534 C 194.042 235.557, 195.617 235.023, 196.463 235.347 C 197.633 235.796, 198 235.229, 198 232.969 C 198 231.336, 197.887 230.036, 197.750 230.079 C 197.613 230.122, 196.825 230.406, 196 230.709 M 91.092 233.402 C 88.080 236.608, 87.308 242.761, 89.408 246.823 C 91.242 250.368, 93.664 251.274, 100.080 250.816 C 103.745 250.554, 104.553 250.127, 104.811 248.314 C 105.101 246.279, 104.915 246.206, 102.132 247.256 C 98.316 248.697, 94 246.980, 94 244.021 C 94 242.196, 94.643 242, 100.631 242 L 107.262 242 106.674 238.376 C 105.790 232.932, 103.523 231, 98.019 231 C 94.381 231, 92.850 231.531, 91.092 233.402 M 134.500 245.500 L 134.500 260 137.250 260 C 139.917 260, 140 259.833, 140 254.500 C 140 249.409, 141.011 247.590, 142.500 250 C 143.292 251.281, 148.581 251.294, 150.961 250.021 C 155.066 247.824, 156.260 237.872, 152.927 233.635 C 150.471 230.513, 144.754 230.008, 141.829 232.655 C 140.127 234.195, 140 234.195, 140 232.655 C 140 231.516, 139.142 231, 137.250 231 L 134.500 231 134.500 245.500 M 163.299 232.503 C 160.079 234.758, 158.582 240.202, 159.999 244.497 C 161.519 249.103, 164.437 251, 170 251 C 175.564 251, 178.481 249.103, 180.002 244.493 C 182.540 236.802, 178.277 231, 170.088 231 C 167.534 231, 164.479 231.676, 163.299 232.503 M 218 233 C 216.900 234.100, 216 235.575, 216 236.277 C 216 238.723, 219.029 241.854, 222.503 243.001 C 224.426 243.636, 226 244.787, 226 245.559 C 226 247.507, 221.354 248.482, 218.426 247.148 C 216.213 246.140, 216 246.261, 216 248.521 C 216 250.846, 216.327 251, 221.277 251 C 228.170 251, 231.225 248.965, 230.806 244.654 C 230.552 242.036, 229.773 241.163, 226.222 239.514 C 220.851 237.019, 220.877 234.500, 226.274 234.500 C 229.157 234.500, 230.001 234.104, 230.001 232.750 C 230 230.079, 220.728 230.272, 218 233 M 95.200 235.200 C 92.827 237.573, 93.878 239, 98 239 C 102.341 239, 102.511 238.824, 100.965 235.934 C 99.798 233.754, 97.002 233.398, 95.200 235.200 M 141.200 236.200 C 140.540 236.860, 140 239.020, 140 241 C 140 245.082, 141.439 247, 144.500 247 C 147.561 247, 149 245.082, 149 241 C 149 236.918, 147.561 235, 144.500 235 C 143.345 235, 141.860 235.540, 141.200 236.200 M 166.035 236.934 C 163.505 241.662, 165.608 247, 170 247 C 171.873 247, 173.303 246.302, 173.965 245.066 C 175.363 242.454, 175.274 237.674, 173.800 236.200 C 171.899 234.299, 167.208 234.742, 166.035 236.934" stroke="none" fill="black" fill-rule="evenodd"/>
	<path fill-opacity="0.917" d="M 141.718 3.480 C 137.075 6.636, 134.066 9.153, 136.905 7.506 C 137.857 6.953, 138.076 7.068, 137.585 7.862 C 137.187 8.506, 136.449 8.778, 135.945 8.466 C 135.440 8.154, 128.609 11.913, 120.764 16.818 C 112.919 21.724, 102.341 28.096, 97.258 30.977 C 91.957 33.982, 88.291 36.663, 88.662 37.263 C 89.027 37.853, 88.831 38.013, 88.211 37.630 C 87.071 36.926, 55.873 51.985, 56.470 52.952 C 56.657 53.253, 55.839 53.549, 54.655 53.609 C 53.470 53.669, 48.675 55.327, 44 57.294 C 39.325 59.261, 31.900 61.893, 27.500 63.142 C 23.100 64.391, 19.397 65.461, 19.272 65.518 C 19.146 65.576, 19.472 68.256, 19.996 71.473 C 20.833 76.619, 22.245 88.900, 26.033 124 C 30.300 163.526, 38.526 198.019, 49.168 221 C 54.374 232.243, 61.979 245.131, 63.026 244.484 C 63.486 244.200, 64.187 244.494, 64.585 245.138 C 65.037 245.869, 64.876 246.041, 64.155 245.595 C 63.520 245.203, 63 245.167, 63 245.516 C 63 246.945, 74.914 261.835, 82.438 269.809 C 90.690 278.554, 120.314 303.852, 134.313 314.109 L 142.126 319.833 159.407 319.953 L 176.689 320.072 184.220 314.669 C 198.272 304.587, 233 275.084, 233 273.228 C 233 272.865, 230.412 275.024, 227.250 278.026 C 224.088 281.028, 226.217 278.650, 231.982 272.742 C 237.747 266.834, 242.682 262, 242.948 262 C 243.214 262, 240.972 264.529, 237.966 267.620 C 234.960 270.711, 232.990 273.073, 233.589 272.870 C 235.709 272.150, 255 249.307, 255 247.517 C 255 247.168, 254.480 247.203, 253.845 247.595 C 253.124 248.041, 252.963 247.869, 253.415 247.138 C 253.813 246.494, 254.522 246.204, 254.990 246.494 C 256.220 247.254, 263.271 235.247, 262.411 233.856 C 261.970 233.142, 262.126 232.960, 262.813 233.385 C 264.218 234.253, 271.368 220.401, 270.578 218.342 C 270.273 217.547, 270.433 217.150, 270.935 217.460 C 271.920 218.069, 274.221 212.417, 278.443 199.014 C 286.165 174.504, 290.596 150.625, 294.499 112.500 C 295.906 98.750, 297.720 83.033, 298.529 77.574 C 299.338 72.114, 300 67.129, 300 66.496 C 300 65.862, 297.754 64.825, 295.009 64.191 C 281.735 61.127, 250.304 47.073, 226.703 33.649 C 220.215 29.959, 214.408 27.248, 213.799 27.624 C 213.147 28.027, 212.972 27.854, 213.373 27.205 C 214.178 25.903, 210.416 23.625, 208.955 24.528 C 208.402 24.869, 208.074 24.702, 208.225 24.157 C 208.583 22.865, 189.281 10.708, 188.066 11.459 C 187.556 11.775, 186.813 11.506, 186.415 10.862 C 185.963 10.131, 186.124 9.959, 186.845 10.405 C 187.480 10.797, 188 10.923, 188 10.685 C 188 10.447, 184.455 7.925, 180.123 5.081 L 172.246 -0.091 159.373 0.070 C 146.611 0.229, 146.459 0.258, 141.718 3.480 M 174.673 3.080 C 175.914 4.582, 182 8.411, 182 7.689 C 182 7.456, 180.088 6.004, 177.750 4.463 C 175.412 2.921, 174.028 2.299, 174.673 3.080 M 154.500 10.560 C 151.629 13.002, 151.618 13.039, 154.250 11.441 C 155.762 10.522, 157 9.996, 157 10.272 C 157 11.080, 121.483 34.161, 109.792 40.951 C 103.596 44.549, 98.579 46.858, 97.887 46.430 C 97.144 45.971, 96.953 46.115, 97.384 46.812 C 98.240 48.198, 86.414 54.374, 84.806 53.380 C 84.078 52.930, 83.975 53.151, 84.510 54.015 C 85.109 54.985, 84.868 55.164, 83.612 54.681 C 82.456 54.238, 82.130 54.401, 82.612 55.181 C 83.095 55.962, 82.769 56.125, 81.612 55.681 C 80.668 55.319, 80.141 55.419, 80.441 55.904 C 81.485 57.595, 52.276 70.321, 39.749 73.634 C 34.613 74.992, 33.106 75.787, 33.450 76.959 C 34.212 79.556, 36.900 101.466, 38.976 122 C 42.697 158.804, 48.413 185.287, 57.582 208.204 C 59.521 213.051, 60.789 217.533, 60.399 218.163 C 59.930 218.922, 60.138 219.033, 61.015 218.490 C 61.985 217.891, 62.164 218.132, 61.681 219.388 C 61.305 220.369, 61.430 220.853, 61.973 220.517 C 62.496 220.194, 63.902 221.848, 65.098 224.192 C 66.294 226.537, 68.379 230.127, 69.731 232.170 C 71.083 234.213, 71.914 236.329, 71.578 236.873 C 71.242 237.417, 71.494 238.187, 72.138 238.585 C 72.869 239.037, 73.041 238.876, 72.595 238.155 C 70.684 235.061, 73.215 237.603, 76.880 242.457 C 81.154 248.119, 81.883 249.627, 79.750 248.398 C 79.063 248.002, 79.591 248.875, 80.924 250.339 C 83.867 253.569, 85.070 253.901, 82.412 250.750 C 80.741 248.769, 80.846 248.793, 83.287 250.952 C 84.811 252.301, 85.859 253.924, 85.615 254.560 C 85.372 255.195, 89.019 259.492, 93.722 264.108 C 98.424 268.723, 101.959 271.938, 101.577 271.250 C 100.311 268.973, 102.611 269.954, 105.076 272.743 L 107.500 275.486 105 273.500 L 102.500 271.514 104.924 274.257 C 107.345 276.995, 108.669 277.892, 107.500 276 C 106.060 273.670, 108.692 275.542, 119.802 284.750 C 126.272 290.113, 133.126 295.768, 135.033 297.317 L 138.500 300.135 135 297.851 C 133.075 296.596, 126.438 291.369, 120.250 286.237 C 114.063 281.104, 109 277.130, 109 277.405 C 109 277.996, 130.107 295.590, 134.613 298.755 C 136.325 299.957, 137.984 300.683, 138.299 300.368 C 139.106 299.561, 157.044 312.119, 156.452 313.077 C 156.186 313.509, 156.494 314.187, 157.138 314.585 C 157.923 315.070, 158.039 314.872, 157.490 313.985 C 156.888 313.009, 157.134 312.838, 158.427 313.334 C 159.498 313.745, 161.312 313.202, 163.084 311.940 C 164.680 310.804, 166.408 310.134, 166.924 310.453 C 167.440 310.772, 168.187 310.506, 168.585 309.862 C 169.037 309.131, 168.876 308.959, 168.155 309.405 C 167.520 309.797, 167 309.900, 167 309.634 C 167 308.596, 186.065 295.922, 186.874 296.422 C 187.346 296.714, 188.580 295.951, 189.616 294.726 L 191.500 292.500 189 294.493 L 186.500 296.486 188.924 293.743 C 191.382 290.963, 193.718 289.958, 192.398 292.250 C 192.002 292.938, 192.875 292.409, 194.339 291.076 C 197.569 288.133, 197.901 286.930, 194.750 289.588 C 192.724 291.297, 192.741 291.213, 194.924 288.743 C 197.382 285.963, 199.718 284.958, 198.398 287.250 C 198.002 287.938, 198.875 287.409, 200.339 286.076 C 203.568 283.134, 203.904 281.925, 200.750 284.595 L 198.500 286.500 200.437 284.215 C 201.502 282.958, 202.922 282.140, 203.593 282.397 C 204.263 282.655, 205.642 281.883, 206.656 280.683 L 208.500 278.500 206 280.493 L 203.500 282.486 205.924 279.743 C 208.374 276.972, 210.750 275.942, 209.371 278.250 C 208.737 279.311, 220.519 269.619, 223.500 266.627 C 225.471 264.649, 220.057 268.584, 214.829 272.930 C 208.528 278.167, 208.920 277.763, 224.500 262.948 C 231.100 256.672, 234.813 253.348, 232.750 255.561 C 230.688 257.774, 229 259.904, 229 260.295 C 229 260.686, 230.688 259.135, 232.750 256.848 C 234.813 254.561, 236.384 252.157, 236.243 251.506 C 236.102 250.855, 237.002 249.462, 238.243 248.411 L 240.500 246.500 238.507 249 L 236.514 251.500 239.257 249.076 C 241.995 246.655, 242.892 245.331, 241 246.500 C 239.311 247.544, 239.894 245.331, 241.692 243.872 C 243.133 242.704, 243.258 242.708, 242.537 243.905 C 241.975 244.838, 242.064 245.079, 242.802 244.622 C 243.413 244.245, 243.687 243.347, 243.411 242.628 C 243.135 241.909, 243.717 240.686, 244.704 239.910 C 246.380 238.594, 246.400 238.633, 245 240.500 C 243.611 242.352, 243.629 242.399, 245.239 241.137 C 246.195 240.387, 246.738 239.384, 246.444 238.909 C 246.150 238.434, 247.502 235.556, 249.448 232.513 C 260.527 215.195, 268.496 193.266, 274.348 164 C 277.427 148.605, 278.505 140.866, 281.037 116 C 282.130 105.275, 283.693 91.874, 284.512 86.220 C 285.330 80.566, 286 75.764, 286 75.549 C 286 75.335, 284.538 74.848, 282.750 74.468 C 279.866 73.856, 266.399 69.385, 261.756 67.499 C 260.796 67.109, 260.303 66.318, 260.660 65.741 C 261.051 65.109, 260.825 64.990, 260.094 65.442 C 258.602 66.364, 252.816 64.107, 253.565 62.895 C 253.861 62.416, 253.456 62.271, 252.665 62.575 C 250.589 63.372, 224.742 50.227, 225.613 48.817 C 226.030 48.142, 225.861 47.968, 225.189 48.383 C 223.595 49.368, 215.766 45.188, 216.619 43.807 C 217.029 43.145, 216.857 42.970, 216.197 43.378 C 214.678 44.317, 203.828 38.087, 204.654 36.750 C 205.036 36.133, 204.833 35.985, 204.169 36.396 C 202.801 37.241, 193.776 32.171, 194.516 30.974 C 194.800 30.514, 194.506 29.813, 193.862 29.415 C 193.131 28.963, 192.959 29.124, 193.405 29.845 C 193.797 30.480, 193.857 31, 193.538 31 C 192.742 31, 185 25.838, 185 25.308 C 185 25.074, 185.520 25.203, 186.155 25.595 C 186.876 26.041, 187.037 25.869, 186.585 25.138 C 186.187 24.494, 185.452 24.221, 184.952 24.530 C 183.704 25.301, 179.813 23.112, 180.488 22.019 C 180.788 21.535, 180.506 20.813, 179.862 20.415 C 179.131 19.963, 178.959 20.124, 179.405 20.845 C 180.509 22.632, 179.310 22.233, 174.995 19.378 C 172.816 17.936, 171.258 16.392, 171.533 15.947 C 171.808 15.502, 171.506 14.813, 170.862 14.415 C 170.088 13.937, 169.960 14.127, 170.485 14.975 C 171.014 15.831, 170.815 16.105, 169.889 15.796 C 169.125 15.542, 168.500 14.846, 168.500 14.250 C 168.500 13.654, 168.090 12.792, 167.590 12.333 C 167.061 11.849, 166.981 12.024, 167.399 12.750 C 168.471 14.613, 166.456 14.261, 164.872 12.308 C 163.704 10.867, 163.708 10.742, 164.905 11.463 C 165.838 12.025, 166.079 11.936, 165.622 11.198 C 165.245 10.587, 164.321 10.323, 163.569 10.612 C 162.817 10.900, 161.862 10.586, 161.447 9.914 C 160.932 9.080, 161.108 8.949, 162 9.500 C 162.867 10.036, 163.068 9.918, 162.594 9.152 C 162.094 8.342, 161.316 8.296, 160.005 8.997 C 157.621 10.273, 156.713 10.274, 157.500 9 C 158.472 7.428, 157.733 7.812, 154.500 10.560 M 128.250 13.115 C 124.841 15.298, 123.738 16.764, 126.750 15.108 C 129.044 13.847, 132.639 11.068, 132 11.049 C 131.725 11.040, 130.037 11.970, 128.250 13.115 M 147.861 15.059 L 145.500 17.119 148.250 15.444 C 149.762 14.523, 151 13.597, 151 13.385 C 151 12.604, 150.165 13.050, 147.861 15.059 M 193.500 15.518 C 194.600 16.414, 196.400 17.588, 197.500 18.128 L 199.500 19.110 197.500 17.482 C 196.400 16.586, 194.600 15.412, 193.500 14.872 L 191.500 13.890 193.500 15.518 M 173.433 16.891 C 174.146 18.045, 178 20.374, 178 19.650 C 178 19.419, 176.820 18.457, 175.377 17.511 C 173.934 16.566, 173.059 16.287, 173.433 16.891 M 141.861 19.059 L 139.500 21.119 142.250 19.444 C 143.762 18.523, 145 17.597, 145 17.385 C 145 16.604, 144.165 17.050, 141.861 19.059 M 115.500 21.132 C 112.750 22.834, 110.050 24.690, 109.500 25.256 C 108.393 26.395, 115.284 22.475, 119.085 19.802 C 123.078 16.996, 120.847 17.823, 115.500 21.132 M 201.500 20.518 C 202.600 21.414, 204.400 22.588, 205.500 23.128 L 207.500 24.110 205.500 22.482 C 204.400 21.586, 202.600 20.412, 201.500 19.872 L 199.500 18.890 201.500 20.518 M 134.482 23.640 C 129.379 27.023, 127.581 28.808, 131.566 26.535 C 135.074 24.534, 139.754 21.055, 138.982 21.022 C 138.697 21.010, 136.672 22.188, 134.482 23.640 M 104.750 27.572 C 101.012 29.600, 101.239 30.445, 105 28.500 C 106.650 27.647, 108 26.735, 108 26.474 C 108 25.831, 107.893 25.867, 104.750 27.572 M 188 26.430 C 188 26.705, 188.900 27.411, 190 28 C 191.100 28.589, 192 28.845, 192 28.570 C 192 28.295, 191.100 27.589, 190 27 C 188.900 26.411, 188 26.155, 188 26.430 M 215 28.430 C 215 28.705, 215.900 29.411, 217 30 C 218.100 30.589, 219 30.845, 219 30.570 C 219 30.295, 218.100 29.589, 217 29 C 215.900 28.411, 215 28.155, 215 28.430 M 98.441 31.555 C 96.577 33.049, 96.589 33.067, 98.750 32.020 C 99.987 31.420, 101 30.720, 101 30.465 C 101 29.700, 100.481 29.921, 98.441 31.555 M 122.441 31.555 C 120.577 33.049, 120.589 33.067, 122.750 32.020 C 123.987 31.420, 125 30.720, 125 30.465 C 125 29.700, 124.481 29.921, 122.441 31.555 M 196 31.430 C 196 31.705, 196.900 32.411, 198 33 C 199.100 33.589, 200 33.845, 200 33.570 C 200 33.295, 199.100 32.589, 198 32 C 196.900 31.411, 196 31.155, 196 31.430 M 220 31.449 C 220 31.724, 221.350 32.647, 223 33.500 C 224.650 34.353, 226 34.826, 226 34.551 C 226 34.276, 224.650 33.353, 223 32.500 C 221.350 31.647, 220 31.174, 220 31.449 M 92.750 34.572 C 89.012 36.600, 89.239 37.445, 93 35.500 C 94.650 34.647, 96 33.735, 96 33.474 C 96 32.831, 95.893 32.867, 92.750 34.572 M 117.441 34.555 C 115.577 36.049, 115.589 36.067, 117.750 35.020 C 118.987 34.420, 120 33.720, 120 33.465 C 120 32.700, 119.481 32.921, 117.441 34.555 M 112.441 37.555 C 110.577 39.049, 110.589 39.067, 112.750 38.020 C 113.987 37.420, 115 36.720, 115 36.465 C 115 35.700, 114.481 35.921, 112.441 37.555 M 229 36.449 C 229 36.724, 230.350 37.647, 232 38.500 C 233.650 39.353, 235 39.826, 235 39.551 C 235 39.276, 233.650 38.353, 232 37.500 C 230.350 36.647, 229 36.174, 229 36.449 M 83 40 C 82.099 40.582, 81.975 40.975, 82.691 40.985 C 83.346 40.993, 84.160 40.550, 84.500 40 C 85.267 38.758, 84.921 38.758, 83 40 M 107.441 40.555 C 105.577 42.049, 105.589 42.067, 107.750 41.020 C 108.987 40.420, 110 39.720, 110 39.465 C 110 38.700, 109.481 38.921, 107.441 40.555 M 210 40.049 C 213.469 42.403, 215.444 43.088, 213 41.089 C 211.625 39.965, 210.050 39.041, 209.500 39.038 C 208.950 39.034, 209.175 39.489, 210 40.049 M 236.733 41.124 C 237.412 41.808, 238.219 42.115, 238.526 41.807 C 238.834 41.499, 238.279 40.940, 237.293 40.564 C 235.868 40.022, 235.753 40.136, 236.733 41.124 M 76.750 43.068 C 74.688 44.157, 73 45.271, 73 45.544 C 73 45.817, 74.800 45.122, 77 44 C 79.200 42.878, 81 41.743, 81 41.480 C 81 40.826, 80.993 40.828, 76.750 43.068 M 101.750 43.572 C 98.012 45.600, 98.239 46.445, 102 44.500 C 103.650 43.647, 105 42.735, 105 42.474 C 105 41.831, 104.893 41.867, 101.750 43.572 M 240 42.496 C 240 43.162, 256.122 51.212, 256.566 50.767 C 256.763 50.570, 253.117 48.520, 248.462 46.212 C 243.808 43.903, 240 42.231, 240 42.496 M 218 44.449 C 218 44.724, 219.350 45.647, 221 46.500 C 222.650 47.353, 224 47.826, 224 47.551 C 224 47.276, 222.650 46.353, 221 45.500 C 219.350 44.647, 218 44.174, 218 44.449 M 69.507 46.989 C 69.157 47.555, 69.558 47.723, 70.448 47.382 C 72.180 46.717, 72.497 46, 71.059 46 C 70.541 46, 69.843 46.445, 69.507 46.989 M 91.750 49.068 C 89.688 50.157, 88 51.271, 88 51.544 C 88 51.817, 89.800 51.122, 92 50 C 94.200 48.878, 96 47.743, 96 47.480 C 96 46.826, 95.993 46.828, 91.750 49.068 M 64.441 49.555 C 62.611 51.022, 62.643 51.042, 65 49.920 C 68.061 48.462, 68.628 48, 67.358 48 C 66.821 48, 65.509 48.700, 64.441 49.555 M 149.984 50.452 C 131.149 53.545, 115.122 61.660, 102.500 74.497 C 91.543 85.642, 85.692 95.951, 81.465 111.561 C 77.841 124.945, 78.067 149.358, 81.947 163.587 C 85.716 177.410, 90.340 185.393, 100.471 195.570 C 111.149 206.296, 120.542 211.658, 135.776 215.723 C 144.439 218.035, 147.464 218.328, 163.500 218.409 C 187.137 218.529, 199.935 216.191, 216.250 208.773 L 223 205.704 223 164.352 L 223 123 188.500 123 L 154 123 154 138 L 154 153 170.555 153 L 187.110 153 186.805 170.168 C 186.552 184.403, 186.244 187.406, 185 187.744 C 183.667 188.107, 183.667 188.025, 185 187.011 C 186.253 186.057, 186.171 185.956, 184.500 186.397 C 173.658 189.261, 162.875 189.787, 153.799 187.895 C 136.175 184.220, 123.460 171.468, 118.547 152.540 C 116.541 144.813, 116.537 126.588, 118.540 118.093 C 121.411 105.911, 129.407 94.119, 139.019 87.891 C 141.723 86.138, 143.702 84.326, 143.416 83.864 C 143.130 83.401, 143.668 83.319, 144.612 83.681 C 145.562 84.046, 146.074 83.929, 145.760 83.420 C 145.447 82.914, 146.161 82.455, 147.345 82.400 C 148.530 82.345, 152.425 81.500, 156 80.522 C 169.316 76.880, 194.692 79.924, 209.750 86.970 L 216 89.895 216 73.028 L 216 56.161 211.214 54.571 C 196.800 49.784, 166.479 47.744, 149.984 50.452 M 227 49.475 C 227 49.750, 230.150 51.561, 234 53.500 C 237.850 55.439, 241 56.800, 241 56.525 C 241 56.250, 237.850 54.439, 234 52.500 C 230.150 50.561, 227 49.200, 227 49.475 M 164.789 50.741 C 168.248 50.937, 173.648 50.936, 176.789 50.738 C 179.930 50.540, 177.100 50.380, 170.500 50.382 C 163.900 50.384, 161.330 50.546, 164.789 50.741 M 59 52 C 58.175 52.533, 57.950 52.969, 58.500 52.969 C 59.050 52.969, 60.175 52.533, 61 52 C 61.825 51.467, 62.050 51.031, 61.500 51.031 C 60.950 51.031, 59.825 51.467, 59 52 M 151.269 51.693 C 152.242 51.947, 153.592 51.930, 154.269 51.656 C 154.946 51.382, 154.150 51.175, 152.500 51.195 C 150.850 51.215, 150.296 51.439, 151.269 51.693 M 187.762 51.707 C 189.006 51.946, 190.806 51.937, 191.762 51.687 C 192.718 51.437, 191.700 51.241, 189.500 51.252 C 187.300 51.263, 186.518 51.468, 187.762 51.707 M 258.733 52.124 C 259.412 52.808, 260.219 53.115, 260.526 52.807 C 260.834 52.499, 260.279 51.940, 259.293 51.564 C 257.868 51.022, 257.753 51.136, 258.733 52.124 M 145.750 52.662 C 146.438 52.940, 147.563 52.940, 148.250 52.662 C 148.938 52.385, 148.375 52.158, 147 52.158 C 145.625 52.158, 145.063 52.385, 145.750 52.662 M 194.750 52.662 C 195.438 52.940, 196.563 52.940, 197.250 52.662 C 197.938 52.385, 197.375 52.158, 196 52.158 C 194.625 52.158, 194.063 52.385, 194.750 52.662 M 200.813 53.683 C 201.534 53.972, 202.397 53.936, 202.729 53.604 C 203.061 53.272, 202.471 53.036, 201.417 53.079 C 200.252 53.127, 200.015 53.364, 200.813 53.683 M 135.500 55 C 134.181 55.567, 134.011 55.878, 135 55.914 C 135.825 55.945, 137.175 55.533, 138 55 C 139.828 53.819, 138.249 53.819, 135.500 55 M 204.083 54.359 C 204.313 54.557, 205.850 55.021, 207.500 55.390 C 209.691 55.880, 210.095 55.787, 209 55.046 C 207.650 54.132, 203.080 53.494, 204.083 54.359 M 265 55 C 265.825 55.533, 266.950 55.969, 267.500 55.969 C 268.050 55.969, 267.825 55.533, 267 55 C 266.175 54.467, 265.050 54.031, 264.500 54.031 C 263.950 54.031, 264.175 54.467, 265 55 M 130 57 C 129.175 57.533, 128.950 57.969, 129.500 57.969 C 130.050 57.969, 131.175 57.533, 132 57 C 132.825 56.467, 133.050 56.031, 132.500 56.031 C 131.950 56.031, 130.825 56.467, 130 57 M 74.507 57.989 C 74.157 58.555, 74.558 58.723, 75.448 58.382 C 77.180 57.717, 77.497 57, 76.059 57 C 75.541 57, 74.843 57.445, 74.507 57.989 M 242 57.393 C 242 57.609, 242.698 58.054, 243.552 58.382 C 244.442 58.723, 244.843 58.555, 244.493 57.989 C 243.906 57.038, 242 56.583, 242 57.393 M 272 58 C 272.825 58.533, 273.950 58.969, 274.500 58.969 C 275.050 58.969, 274.825 58.533, 274 58 C 273.175 57.467, 272.050 57.031, 271.500 57.031 C 270.950 57.031, 271.175 57.467, 272 58 M 122.750 60.068 C 120.688 61.157, 119 62.271, 119 62.544 C 119 62.990, 126.899 59.298, 127.917 58.377 C 129.067 57.336, 126.064 58.319, 122.750 60.068 M 277 60 C 277.825 60.533, 278.950 60.969, 279.500 60.969 C 280.050 60.969, 279.825 60.533, 279 60 C 278.175 59.467, 277.050 59.031, 276.500 59.031 C 275.950 59.031, 276.175 59.467, 277 60 M 68.507 60.989 C 68.157 61.555, 68.558 61.723, 69.448 61.382 C 71.180 60.717, 71.497 60, 70.059 60 C 69.541 60, 68.843 60.445, 68.507 60.989 M 249.733 61.124 C 250.412 61.808, 251.219 62.115, 251.526 61.807 C 251.834 61.499, 251.279 60.940, 250.293 60.564 C 248.868 60.022, 248.753 60.136, 249.733 61.124 M 32 63 C 30.172 64.181, 31.751 64.181, 34.500 63 C 35.819 62.433, 35.989 62.122, 35 62.086 C 34.175 62.055, 32.825 62.467, 32 63 M 285 63 C 285.825 63.533, 286.950 63.969, 287.500 63.969 C 288.050 63.969, 287.825 63.533, 287 63 C 286.175 62.467, 285.050 62.031, 284.500 62.031 C 283.950 62.031, 284.175 62.467, 285 63 M 114.861 65.059 L 112.500 67.119 115.250 65.444 C 116.763 64.523, 118 63.597, 118 63.385 C 118 62.604, 117.165 63.050, 114.861 65.059 M 25.500 65 C 24.239 65.542, 24.055 65.859, 25 65.859 C 25.825 65.859, 27.400 65.473, 28.500 65 C 29.761 64.458, 29.945 64.141, 29 64.141 C 28.175 64.141, 26.600 64.527, 25.500 65 M 59 65 C 58.175 65.533, 57.950 65.969, 58.500 65.969 C 59.050 65.969, 60.175 65.533, 61 65 C 61.825 64.467, 62.050 64.031, 61.500 64.031 C 60.950 64.031, 59.825 64.467, 59 65 M 20 66.969 C 20 67.501, 20.675 67.678, 21.500 67.362 C 22.325 67.045, 23 66.609, 23 66.393 C 23 66.177, 22.325 66, 21.500 66 C 20.675 66, 20 66.436, 20 66.969 M 296.600 66.765 C 297.205 67.169, 297.957 68.175, 298.271 69 C 298.653 70.002, 298.868 69.753, 298.921 68.250 C 298.974 66.738, 298.426 66.005, 297.250 66.015 C 296.171 66.025, 295.922 66.312, 296.600 66.765 M 109.405 69.250 L 107.500 71.500 109.750 69.595 C 110.987 68.547, 112 67.535, 112 67.345 C 112 66.545, 111.195 67.136, 109.405 69.250 M 49 69 C 48.175 69.533, 47.950 69.969, 48.500 69.969 C 49.050 69.969, 50.175 69.533, 51 69 C 51.825 68.467, 52.050 68.031, 51.500 68.031 C 50.950 68.031, 49.825 68.467, 49 69 M 21.195 71.500 C 21.215 73.150, 21.439 73.704, 21.693 72.731 C 21.947 71.758, 21.930 70.408, 21.656 69.731 C 21.382 69.054, 21.175 69.850, 21.195 71.500 M 42.500 71 C 41.181 71.567, 41.011 71.878, 42 71.914 C 42.825 71.945, 44.175 71.533, 45 71 C 46.828 69.819, 45.249 69.819, 42.500 71 M 100.159 77.895 C 94.616 84.335, 91.328 89, 92.332 89 C 92.553 89, 93.860 87.313, 95.237 85.250 C 96.613 83.188, 99.817 79.282, 102.357 76.570 C 104.896 73.859, 106.801 71.468, 106.589 71.256 C 106.378 71.044, 103.484 74.032, 100.159 77.895 M 279.813 72.683 C 280.534 72.972, 281.397 72.936, 281.729 72.604 C 282.061 72.272, 281.471 72.036, 280.417 72.079 C 279.252 72.127, 279.015 72.364, 279.813 72.683 M 297.158 74 C 297.158 75.375, 297.385 75.938, 297.662 75.250 C 297.940 74.563, 297.940 73.438, 297.662 72.750 C 297.385 72.063, 297.158 72.625, 297.158 74 M 22.195 78.500 C 22.215 80.150, 22.439 80.704, 22.693 79.731 C 22.947 78.758, 22.930 77.408, 22.656 76.731 C 22.382 76.054, 22.175 76.850, 22.195 78.500 M 286.641 78.210 C 286.303 79.470, 286.066 81.400, 286.114 82.500 C 286.162 83.600, 286.613 82.745, 287.116 80.599 C 288.091 76.444, 287.674 74.351, 286.641 78.210 M 166.280 77.736 C 168.909 77.943, 172.959 77.940, 175.280 77.731 C 177.601 77.521, 175.450 77.352, 170.500 77.355 C 165.550 77.358, 163.651 77.530, 166.280 77.736 M 32.158 80 C 32.158 81.375, 32.385 81.938, 32.662 81.250 C 32.940 80.563, 32.940 79.438, 32.662 78.750 C 32.385 78.063, 32.158 78.625, 32.158 80 M 156.750 78.662 C 157.438 78.940, 158.563 78.940, 159.250 78.662 C 159.938 78.385, 159.375 78.158, 158 78.158 C 156.625 78.158, 156.063 78.385, 156.750 78.662 M 184.269 78.693 C 185.242 78.947, 186.592 78.930, 187.269 78.656 C 187.946 78.382, 187.150 78.175, 185.500 78.195 C 183.850 78.215, 183.296 78.439, 184.269 78.693 M 152.813 79.683 C 153.534 79.972, 154.397 79.936, 154.729 79.604 C 155.061 79.272, 154.471 79.036, 153.417 79.079 C 152.252 79.127, 152.015 79.364, 152.813 79.683 M 190.813 79.683 C 191.534 79.972, 192.397 79.936, 192.729 79.604 C 193.061 79.272, 192.471 79.036, 191.417 79.079 C 190.252 79.127, 190.015 79.364, 190.813 79.683 M 148 81 C 147.175 81.533, 146.950 81.969, 147.500 81.969 C 148.050 81.969, 149.175 81.533, 150 81 C 150.825 80.467, 151.050 80.031, 150.500 80.031 C 149.950 80.031, 148.825 80.467, 148 81 M 296.195 82.500 C 296.215 84.150, 296.439 84.704, 296.693 83.731 C 296.947 82.758, 296.930 81.408, 296.656 80.731 C 296.382 80.054, 296.175 80.850, 296.195 82.500 M 198.813 81.683 C 199.534 81.972, 200.397 81.936, 200.729 81.604 C 201.061 81.272, 200.471 81.036, 199.417 81.079 C 198.252 81.127, 198.015 81.364, 198.813 81.683 M 209 85.500 C 211.475 86.825, 213.950 87.910, 214.500 87.910 C 215.050 87.910, 213.475 86.825, 211 85.500 C 208.525 84.175, 206.050 83.090, 205.500 83.090 C 204.950 83.090, 206.525 84.175, 209 85.500 M 23.232 87 C 23.232 88.925, 23.438 89.713, 23.689 88.750 C 23.941 87.787, 23.941 86.213, 23.689 85.250 C 23.438 84.287, 23.232 85.075, 23.232 87 M 33.158 86 C 33.158 87.375, 33.385 87.938, 33.662 87.250 C 33.940 86.563, 33.940 85.438, 33.662 84.750 C 33.385 84.063, 33.158 84.625, 33.158 86 M 138.861 86.059 L 136.500 88.119 139.250 86.444 C 140.762 85.523, 142 84.597, 142 84.385 C 142 83.604, 141.165 84.050, 138.861 86.059 M 295.232 89 C 295.232 90.925, 295.438 91.713, 295.689 90.750 C 295.941 89.787, 295.941 88.213, 295.689 87.250 C 295.438 86.287, 295.232 87.075, 295.232 89 M 285.195 89.500 C 285.215 91.150, 285.439 91.704, 285.693 90.731 C 285.947 89.758, 285.930 88.408, 285.656 87.731 C 285.382 87.054, 285.175 87.850, 285.195 89.500 M 131 92.500 C 128.571 94.975, 126.809 97, 127.084 97 C 127.359 97, 129.571 94.975, 132 92.500 C 134.429 90.025, 136.191 88, 135.916 88 C 135.641 88, 133.429 90.025, 131 92.500 M 89.500 93 C 88.647 94.650, 88.174 96, 88.449 96 C 88.724 96, 89.647 94.650, 90.500 93 C 91.353 91.350, 91.826 90, 91.551 90 C 91.276 90, 90.353 91.350, 89.500 93 M 24.232 95 C 24.232 96.925, 24.438 97.713, 24.689 96.750 C 24.941 95.787, 24.941 94.213, 24.689 93.250 C 24.438 92.287, 24.232 93.075, 24.232 95 M 34.232 95 C 34.232 96.925, 34.438 97.713, 34.689 96.750 C 34.941 95.787, 34.941 94.213, 34.689 93.250 C 34.438 92.287, 34.232 93.075, 34.232 95 M 284.252 97.500 C 284.263 99.700, 284.468 100.482, 284.707 99.238 C 284.946 97.994, 284.937 96.194, 284.687 95.238 C 284.437 94.282, 284.241 95.300, 284.252 97.500 M 294.232 99 C 294.232 100.925, 294.438 101.713, 294.689 100.750 C 294.941 99.787, 294.941 98.213, 294.689 97.250 C 294.438 96.287, 294.232 97.075, 294.232 99 M 125.278 99.250 C 123.779 101.188, 122.836 103, 123.326 103 C 123.570 103, 124.507 101.875, 125.408 100.500 C 127.094 97.927, 127 97.024, 125.278 99.250 M 35.252 102.500 C 35.263 104.700, 35.468 105.482, 35.707 104.238 C 35.946 102.994, 35.937 101.194, 35.687 100.238 C 35.437 99.282, 35.241 100.300, 35.252 102.500 M 25.252 104.500 C 25.263 106.700, 25.468 107.482, 25.707 106.238 C 25.946 104.994, 25.937 103.194, 25.687 102.238 C 25.437 101.282, 25.241 102.300, 25.252 104.500 M 283.232 106 C 283.232 107.925, 283.438 108.713, 283.689 107.750 C 283.941 106.787, 283.941 105.213, 283.689 104.250 C 283.438 103.287, 283.232 104.075, 283.232 106 M 120.452 107.093 C 119.572 108.794, 119.030 110.363, 119.247 110.580 C 119.464 110.797, 120.390 109.406, 121.305 107.487 C 123.361 103.175, 122.649 102.845, 120.452 107.093 M 293.252 108.500 C 293.263 110.700, 293.468 111.482, 293.707 110.238 C 293.946 108.994, 293.937 107.194, 293.687 106.238 C 293.437 105.282, 293.241 106.300, 293.252 108.500 M 82.571 110.571 C 82.204 112.037, 82.096 113.429, 82.331 113.665 C 82.567 113.900, 83.061 112.894, 83.429 111.429 C 83.796 109.963, 83.904 108.571, 83.669 108.335 C 83.433 108.100, 82.939 109.106, 82.571 110.571 M 36.232 112 C 36.232 113.925, 36.438 114.713, 36.689 113.750 C 36.941 112.787, 36.941 111.213, 36.689 110.250 C 36.438 109.287, 36.232 110.075, 36.232 112 M 26.252 114.500 C 26.263 116.700, 26.468 117.482, 26.707 116.238 C 26.946 114.994, 26.937 113.194, 26.687 112.238 C 26.437 111.282, 26.241 112.300, 26.252 114.500 M 282.252 116.500 C 282.263 118.700, 282.468 119.482, 282.707 118.238 C 282.946 116.994, 282.937 115.194, 282.687 114.238 C 282.437 113.282, 282.241 114.300, 282.252 116.500 M 292.252 117.500 C 292.263 119.700, 292.468 120.482, 292.707 119.238 C 292.946 117.994, 292.937 116.194, 292.687 115.238 C 292.437 114.282, 292.241 115.300, 292.252 117.500 M 81.158 118 C 81.158 119.375, 81.385 119.938, 81.662 119.250 C 81.940 118.563, 81.940 117.438, 81.662 116.750 C 81.385 116.063, 81.158 116.625, 81.158 118 M 116.195 120.500 C 116.215 122.150, 116.439 122.704, 116.693 121.731 C 116.947 120.758, 116.930 119.408, 116.656 118.731 C 116.382 118.054, 116.175 118.850, 116.195 120.500 M 37.252 122.500 C 37.263 124.700, 37.468 125.482, 37.707 124.238 C 37.946 122.994, 37.937 121.194, 37.687 120.238 C 37.437 119.282, 37.241 120.300, 37.252 122.500 M 27.272 124 C 27.272 126.475, 27.467 127.487, 27.706 126.250 C 27.944 125.013, 27.944 122.987, 27.706 121.750 C 27.467 120.513, 27.272 121.525, 27.272 124 M 281.252 124.500 C 281.263 126.700, 281.468 127.482, 281.707 126.238 C 281.946 124.994, 281.937 123.194, 281.687 122.238 C 281.437 121.282, 281.241 122.300, 281.252 124.500 M 80.252 125.500 C 80.263 127.700, 80.468 128.482, 80.707 127.238 C 80.946 125.994, 80.937 124.194, 80.687 123.238 C 80.437 122.282, 80.241 123.300, 80.252 125.500 M 115.378 135 C 115.378 141.325, 115.541 143.912, 115.739 140.750 C 115.937 137.588, 115.937 132.412, 115.739 129.250 C 115.541 126.088, 115.378 128.675, 115.378 135 M 155 138 L 155 152 170.750 151.778 L 186.500 151.556 171.250 151.252 L 156 150.948 156 137.974 L 156 125 188.417 125 C 213.414 125, 220.949 125.286, 221.338 126.250 C 221.639 126.997, 221.874 126.795, 221.921 125.750 C 221.995 124.117, 219.768 124, 188.500 124 L 155 124 155 138 M 291.232 129 C 291.232 130.925, 291.438 131.713, 291.689 130.750 C 291.941 129.787, 291.941 128.213, 291.689 127.250 C 291.438 126.287, 291.232 127.075, 291.232 129 M 38.252 131.500 C 38.263 133.700, 38.468 134.482, 38.707 133.238 C 38.946 131.994, 38.937 130.194, 38.687 129.238 C 38.437 128.282, 38.241 129.300, 38.252 131.500 M 221.454 165.500 C 221.453 186.400, 221.586 195.092, 221.748 184.816 C 221.911 174.540, 221.911 157.440, 221.749 146.816 C 221.587 136.192, 221.454 144.600, 221.454 165.500 M 28.195 134.500 C 28.215 136.150, 28.439 136.704, 28.693 135.731 C 28.947 134.758, 28.930 133.408, 28.656 132.731 C 28.382 132.054, 28.175 132.850, 28.195 134.500 M 280.195 135.500 C 280.215 137.150, 280.439 137.704, 280.693 136.731 C 280.947 135.758, 280.930 134.408, 280.656 133.731 C 280.382 133.054, 280.175 133.850, 280.195 135.500 M 290.232 136 C 290.232 137.925, 290.438 138.713, 290.689 137.750 C 290.941 136.787, 290.941 135.213, 290.689 134.250 C 290.438 133.287, 290.232 134.075, 290.232 136 M 29.195 140.500 C 29.215 142.150, 29.439 142.704, 29.693 141.731 C 29.947 140.758, 29.930 139.408, 29.656 138.731 C 29.382 138.054, 29.175 138.850, 29.195 140.500 M 39.195 140.500 C 39.215 142.150, 39.439 142.704, 39.693 141.731 C 39.947 140.758, 39.930 139.408, 39.656 138.731 C 39.382 138.054, 39.175 138.850, 39.195 140.500 M 279.195 142.500 C 279.215 144.150, 279.439 144.704, 279.693 143.731 C 279.947 142.758, 279.930 141.408, 279.656 140.731 C 279.382 140.054, 279.175 140.850, 279.195 142.500 M 289.158 144 C 289.158 145.375, 289.385 145.938, 289.662 145.250 C 289.940 144.563, 289.940 143.438, 289.662 142.750 C 289.385 142.063, 289.158 142.625, 289.158 144 M 80.272 148 C 80.272 150.475, 80.467 151.488, 80.706 150.250 C 80.944 149.012, 80.944 146.988, 80.706 145.750 C 80.467 144.512, 80.272 145.525, 80.272 148 M 30.195 147.500 C 30.215 149.150, 30.439 149.704, 30.693 148.731 C 30.947 147.758, 30.930 146.408, 30.656 145.731 C 30.382 145.054, 30.175 145.850, 30.195 147.500 M 40.195 147.500 C 40.215 149.150, 40.439 149.704, 40.693 148.731 C 40.947 147.758, 40.930 146.408, 40.656 145.731 C 40.382 145.054, 40.175 145.850, 40.195 147.500 M 278.195 149.500 C 278.215 151.150, 278.439 151.704, 278.693 150.731 C 278.947 149.758, 278.930 148.408, 278.656 147.731 C 278.382 147.054, 278.175 147.850, 278.195 149.500 M 288.232 150 C 288.232 151.925, 288.438 152.713, 288.689 151.750 C 288.941 150.787, 288.941 149.213, 288.689 148.250 C 288.438 147.287, 288.232 148.075, 288.232 150 M 116.158 150 C 116.158 151.375, 116.385 151.938, 116.662 151.250 C 116.940 150.563, 116.940 149.438, 116.662 148.750 C 116.385 148.063, 116.158 148.625, 116.158 150 M 41.158 153 C 41.158 154.375, 41.385 154.938, 41.662 154.250 C 41.940 153.563, 41.940 152.438, 41.662 151.750 C 41.385 151.063, 41.158 151.625, 41.158 153 M 31.158 154 C 31.158 155.375, 31.385 155.938, 31.662 155.250 C 31.940 154.563, 31.940 153.438, 31.662 152.750 C 31.385 152.063, 31.158 152.625, 31.158 154 M 188.407 169 C 188.407 178.075, 188.559 181.787, 188.744 177.250 C 188.929 172.713, 188.929 165.287, 188.744 160.750 C 188.559 156.213, 188.407 159.925, 188.407 169 M 81.079 155.583 C 81.127 156.748, 81.364 156.985, 81.683 156.188 C 81.972 155.466, 81.936 154.603, 81.604 154.271 C 81.272 153.939, 81.036 154.529, 81.079 155.583 M 277.158 156 C 277.158 157.375, 277.385 157.938, 277.662 157.250 C 277.940 156.563, 277.940 155.438, 277.662 154.750 C 277.385 154.063, 277.158 154.625, 277.158 156 M 287.079 155.583 C 287.127 156.748, 287.364 156.985, 287.683 156.188 C 287.972 155.466, 287.936 154.603, 287.604 154.271 C 287.272 153.939, 287.036 154.529, 287.079 155.583 M 32.158 159 C 32.158 160.375, 32.385 160.938, 32.662 160.250 C 32.940 159.563, 32.940 158.438, 32.662 157.750 C 32.385 157.063, 32.158 157.625, 32.158 159 M 42.199 159.500 C 42.199 160.600, 42.560 162.625, 43 164 C 43.634 165.980, 43.801 166.084, 43.801 164.500 C 43.801 163.400, 43.440 161.375, 43 160 C 42.366 158.020, 42.199 157.916, 42.199 159.500 M 82.079 160.583 C 82.127 161.748, 82.364 161.985, 82.683 161.188 C 82.972 160.466, 82.936 159.603, 82.604 159.271 C 82.272 158.939, 82.036 159.529, 82.079 160.583 M 276.079 160.583 C 276.127 161.748, 276.364 161.985, 276.683 161.188 C 276.972 160.466, 276.936 159.603, 276.604 159.271 C 276.272 158.939, 276.036 159.529, 276.079 160.583 M 119 160.383 C 119 161.456, 121.975 167, 122.551 167 C 122.826 167, 122.308 165.537, 121.399 163.750 C 119.542 160.100, 119 159.339, 119 160.383 M 286.079 161.583 C 286.127 162.748, 286.364 162.985, 286.683 162.188 C 286.972 161.466, 286.936 160.603, 286.604 160.271 C 286.272 159.939, 286.036 160.529, 286.079 161.583 M 33.158 164 C 33.158 165.375, 33.385 165.938, 33.662 165.250 C 33.940 164.563, 33.940 163.438, 33.662 162.750 C 33.385 162.063, 33.158 162.625, 33.158 164 M 83.079 164.583 C 83.127 165.748, 83.364 165.985, 83.683 165.188 C 83.972 164.466, 83.936 163.603, 83.604 163.271 C 83.272 162.939, 83.036 163.529, 83.079 164.583 M 275.079 165.583 C 275.127 166.748, 275.364 166.985, 275.683 166.188 C 275.972 165.466, 275.936 164.603, 275.604 164.271 C 275.272 163.939, 275.036 164.529, 275.079 165.583 M 285.158 166 C 285.158 167.375, 285.385 167.938, 285.662 167.250 C 285.940 166.563, 285.940 165.438, 285.662 164.750 C 285.385 164.063, 285.158 164.625, 285.158 166 M 44.158 169 C 44.158 170.375, 44.385 170.938, 44.662 170.250 C 44.940 169.563, 44.940 168.438, 44.662 167.750 C 44.385 167.063, 44.158 167.625, 44.158 169 M 34.079 169.583 C 34.127 170.748, 34.364 170.985, 34.683 170.188 C 34.972 169.466, 34.936 168.603, 34.604 168.271 C 34.272 167.939, 34.036 168.529, 34.079 169.583 M 123.910 169.832 C 124.450 170.840, 125.676 172.302, 126.637 173.082 C 127.717 173.960, 127.475 173.261, 126.003 171.250 C 123.377 167.662, 122.392 166.995, 123.910 169.832 M 284.158 171 C 284.158 172.375, 284.385 172.938, 284.662 172.250 C 284.940 171.563, 284.940 170.438, 284.662 169.750 C 284.385 169.063, 284.158 169.625, 284.158 171 M 85.031 170.500 C 85.031 171.050, 85.467 172.175, 86 173 C 86.533 173.825, 86.969 174.050, 86.969 173.500 C 86.969 172.950, 86.533 171.825, 86 171 C 85.467 170.175, 85.031 169.950, 85.031 170.500 M 273.571 172.571 C 273.204 174.037, 273.096 175.429, 273.331 175.665 C 273.567 175.900, 274.061 174.894, 274.429 173.429 C 274.796 171.963, 274.904 170.571, 274.669 170.335 C 274.433 170.100, 273.939 171.106, 273.571 172.571 M 35.079 173.583 C 35.127 174.748, 35.364 174.985, 35.683 174.188 C 35.972 173.466, 35.936 172.603, 35.604 172.271 C 35.272 171.939, 35.036 172.529, 35.079 173.583 M 45.170 173.500 C 45.154 174.600, 45.527 176.400, 46 177.500 C 47.095 180.048, 47.095 177.419, 46 174 C 45.356 171.990, 45.194 171.892, 45.170 173.500 M 283.079 175.583 C 283.127 176.748, 283.364 176.985, 283.683 176.188 C 283.972 175.466, 283.936 174.603, 283.604 174.271 C 283.272 173.939, 283.036 174.529, 283.079 175.583 M 128 175.378 C 128 175.585, 128.787 176.373, 129.750 177.128 C 131.336 178.371, 131.371 178.336, 130.128 176.750 C 128.821 175.084, 128 174.555, 128 175.378 M 36.079 178.583 C 36.127 179.748, 36.364 179.985, 36.683 179.188 C 36.972 178.466, 36.936 177.603, 36.604 177.271 C 36.272 176.939, 36.036 177.529, 36.079 178.583 M 88 177.941 C 88 178.459, 88.445 179.157, 88.989 179.493 C 89.555 179.843, 89.723 179.442, 89.382 178.552 C 88.717 176.820, 88 176.503, 88 177.941 M 271.182 182.182 C 270.588 184.521, 270.275 186.608, 270.485 186.819 C 270.696 187.029, 271.378 185.311, 272 183 C 272.622 180.689, 272.936 178.602, 272.696 178.363 C 272.457 178.124, 271.776 179.842, 271.182 182.182 M 282.079 179.583 C 282.127 180.748, 282.364 180.985, 282.683 180.188 C 282.972 179.466, 282.936 178.603, 282.604 178.271 C 282.272 177.939, 282.036 178.529, 282.079 179.583 M 135 181.500 C 136.864 182.875, 138.639 183.998, 138.944 183.995 C 139.888 183.987, 133.560 179.074, 132.556 179.036 C 132.036 179.016, 133.136 180.125, 135 181.500 M 91 183 C 91.589 184.100, 92.295 185, 92.570 185 C 92.845 185, 92.589 184.100, 92 183 C 91.411 181.900, 90.705 181, 90.430 181 C 90.155 181, 90.411 181.900, 91 183 M 281.079 183.583 C 281.127 184.748, 281.364 184.985, 281.683 184.188 C 281.972 183.466, 281.936 182.603, 281.604 182.271 C 281.272 181.939, 281.036 182.529, 281.079 183.583 M 48.079 185.583 C 48.127 186.748, 48.364 186.985, 48.683 186.188 C 48.972 185.466, 48.936 184.603, 48.604 184.271 C 48.272 183.939, 48.036 184.529, 48.079 185.583 M 140.733 185.124 C 141.412 185.808, 142.219 186.115, 142.526 185.807 C 142.834 185.499, 142.279 184.940, 141.293 184.564 C 139.868 184.022, 139.753 184.136, 140.733 185.124 M 38.141 186 C 38.141 186.825, 38.527 188.400, 39 189.500 C 39.542 190.761, 39.859 190.945, 39.859 190 C 39.859 189.175, 39.473 187.600, 39 186.500 C 38.458 185.239, 38.141 185.055, 38.141 186 M 94.765 188.500 C 95.907 190.150, 99.226 193.750, 102.140 196.500 L 107.440 201.500 101.544 195 C 93.427 186.051, 92.365 185.032, 94.765 188.500 M 280.079 187.583 C 280.127 188.748, 280.364 188.985, 280.683 188.188 C 280.972 187.466, 280.936 186.603, 280.604 186.271 C 280.272 185.939, 280.036 186.529, 280.079 187.583 M 49.152 189 C 49.152 189.825, 49.759 192.075, 50.500 194 C 51.241 195.925, 51.848 196.825, 51.848 196 C 51.848 195.175, 51.241 192.925, 50.500 191 C 49.759 189.075, 49.152 188.175, 49.152 189 M 149.813 188.683 C 150.534 188.972, 151.397 188.936, 151.729 188.604 C 152.061 188.272, 151.471 188.036, 150.417 188.079 C 149.252 188.127, 149.015 188.364, 149.813 188.683 M 178 189 C 175.990 189.644, 175.892 189.806, 177.500 189.830 C 178.600 189.846, 180.400 189.473, 181.500 189 C 184.048 187.905, 181.419 187.905, 178 189 M 153.813 189.683 C 154.534 189.972, 155.397 189.936, 155.729 189.604 C 156.061 189.272, 155.471 189.036, 154.417 189.079 C 153.252 189.127, 153.015 189.364, 153.813 189.683 M 268.571 191.571 C 268.204 193.037, 268.096 194.429, 268.331 194.665 C 268.567 194.900, 269.061 193.894, 269.429 192.429 C 269.796 190.963, 269.904 189.571, 269.669 189.335 C 269.433 189.100, 268.939 190.106, 268.571 191.571 M 162.250 190.728 C 164.313 190.944, 167.688 190.944, 169.750 190.728 C 171.813 190.513, 170.125 190.336, 166 190.336 C 161.875 190.336, 160.188 190.513, 162.250 190.728 M 278.079 194.583 C 278.127 195.748, 278.364 195.985, 278.683 195.188 C 278.972 194.466, 278.936 193.603, 278.604 193.271 C 278.272 192.939, 278.036 193.529, 278.079 194.583 M 53.031 201.500 C 53.031 202.050, 53.467 203.175, 54 204 C 54.533 204.825, 54.969 205.050, 54.969 204.500 C 54.969 203.950, 54.533 202.825, 54 202 C 53.467 201.175, 53.031 200.950, 53.031 201.500 M 108.673 202.080 C 109.914 203.582, 116 207.411, 116 206.689 C 116 206.456, 114.088 205.004, 111.750 203.463 C 109.412 201.921, 108.028 201.299, 108.673 202.080 M 212 209 C 211.175 209.533, 210.950 209.969, 211.500 209.969 C 212.050 209.969, 213.175 209.533, 214 209 C 214.825 208.467, 215.050 208.031, 214.500 208.031 C 213.950 208.031, 212.825 208.467, 212 209 M 56.031 209.500 C 56.031 210.050, 56.467 211.175, 57 212 C 57.533 212.825, 57.969 213.050, 57.969 212.500 C 57.969 211.950, 57.533 210.825, 57 210 C 56.467 209.175, 56.031 208.950, 56.031 209.500 M 122 210 C 122.825 210.533, 123.950 210.969, 124.500 210.969 C 125.050 210.969, 124.825 210.533, 124 210 C 123.175 209.467, 122.050 209.031, 121.500 209.031 C 120.950 209.031, 121.175 209.467, 122 210 M 272.624 210.539 C 271.659 213.053, 271.943 213.702, 273.122 211.675 C 273.706 210.671, 273.973 209.639, 273.715 209.382 C 273.458 209.124, 272.966 209.645, 272.624 210.539 M 130 213 C 130.825 213.533, 131.950 213.969, 132.500 213.969 C 133.050 213.969, 132.825 213.533, 132 213 C 131.175 212.467, 130.050 212.031, 129.500 212.031 C 128.950 212.031, 129.175 212.467, 130 213 M 199.500 213 C 198.239 213.542, 198.055 213.859, 199 213.859 C 199.825 213.859, 201.400 213.473, 202.500 213 C 203.761 212.458, 203.945 212.141, 203 212.141 C 202.175 212.141, 200.600 212.527, 199.500 213 M 257.710 219.535 C 255.679 223.641, 254.232 227, 254.496 227 C 255.164 227, 262.212 212.878, 261.766 212.433 C 261.567 212.233, 259.742 215.430, 257.710 219.535 M 134.768 214.168 C 135.350 214.750, 136.415 215.028, 137.137 214.788 C 137.886 214.538, 137.432 214.085, 136.080 213.731 C 134.417 213.296, 134.026 213.426, 134.768 214.168 M 193.813 214.683 C 194.534 214.972, 195.397 214.936, 195.729 214.604 C 196.061 214.272, 195.471 214.036, 194.417 214.079 C 193.252 214.127, 193.015 214.364, 193.813 214.683 M 140.813 215.683 C 141.534 215.972, 142.397 215.936, 142.729 215.604 C 143.061 215.272, 142.471 215.036, 141.417 215.079 C 140.252 215.127, 140.015 215.364, 140.813 215.683 M 187.750 215.662 C 188.438 215.940, 189.563 215.940, 190.250 215.662 C 190.938 215.385, 190.375 215.158, 189 215.158 C 187.625 215.158, 187.063 215.385, 187.750 215.662 M 145.250 216.689 C 146.213 216.941, 147.787 216.941, 148.750 216.689 C 149.713 216.438, 148.925 216.232, 147 216.232 C 145.075 216.232, 144.287 216.438, 145.250 216.689 M 180.762 216.707 C 182.006 216.946, 183.806 216.937, 184.762 216.687 C 185.718 216.437, 184.700 216.241, 182.500 216.252 C 180.300 216.263, 179.518 216.468, 180.762 216.707 M 159.250 217.739 C 162.412 217.937, 167.588 217.937, 170.750 217.739 C 173.912 217.541, 171.325 217.378, 165 217.378 C 158.675 217.378, 156.088 217.541, 159.250 217.739 M 49.071 218.500 C 49.071 219.050, 49.714 220.625, 50.500 222 C 51.286 223.375, 51.929 224.050, 51.929 223.500 C 51.929 222.950, 51.286 221.375, 50.500 220 C 49.714 218.625, 49.071 217.950, 49.071 218.500 M 265.705 226.528 C 264.229 229.538, 263.234 232, 263.494 232 C 264.167 232, 269.211 221.878, 268.762 221.429 C 268.557 221.224, 267.182 223.518, 265.705 226.528 M 113.635 225.073 C 109.774 228.110, 109.999 232.980, 114.164 236.485 C 115.982 238.014, 118.095 238.947, 119.130 238.676 C 120.121 238.417, 120.835 238.665, 120.716 239.228 C 120.597 239.790, 121.125 240.477, 121.889 240.755 C 122.855 241.106, 123.025 240.839, 122.447 239.880 C 121.742 238.709, 121.872 238.708, 123.308 239.872 C 125.234 241.434, 125.594 242.485, 123.830 241.395 C 123.032 240.902, 122.873 241.227, 123.330 242.418 C 123.699 243.378, 124.007 244.464, 124.015 244.832 C 124.024 245.199, 124.508 244.825, 125.091 244 C 126.034 242.667, 126.107 242.667, 125.743 244 C 125.518 244.825, 124.846 245.500, 124.250 245.500 C 123.654 245.500, 122.829 245.838, 122.417 246.250 C 121.317 247.349, 115.176 247.165, 112.934 245.965 C 111.229 245.052, 111.014 245.259, 111.116 247.715 C 111.186 249.406, 111.412 249.813, 111.689 248.750 C 111.941 247.787, 112.590 247, 113.132 247 C 113.674 247, 113.866 247.407, 113.559 247.905 C 113.242 248.417, 114.684 248.584, 116.882 248.289 C 119.017 248.003, 121.604 248.257, 122.632 248.854 C 124.143 249.732, 123.355 249.978, 118.500 250.144 C 113.176 250.326, 112.998 250.393, 116.920 250.741 C 125.407 251.492, 129 249.190, 129 243.001 C 129 239.999, 128.400 238.673, 126.288 237.012 C 124.796 235.838, 122.770 235.088, 121.786 235.346 C 120.802 235.603, 120.235 235.428, 120.527 234.957 C 120.818 234.486, 120.143 233.612, 119.028 233.015 C 113.797 230.215, 118.993 224.756, 124.922 226.823 C 127.813 227.831, 128 227.747, 128 225.448 C 128 223.129, 127.691 223, 122.135 223 C 117.715 223, 115.620 223.511, 113.635 225.073 M 64.310 226.500 C 65.155 228.150, 66.596 230.400, 67.510 231.500 C 68.424 232.600, 68.161 231.700, 66.926 229.500 C 64.201 224.646, 62.159 222.306, 64.310 226.500 M 116.897 224.937 C 117.787 225.487, 117.697 226.006, 116.547 226.961 C 114.354 228.781, 114.629 231.376, 117.250 233.595 C 119.498 235.498, 119.498 235.498, 117.750 233.421 C 115.335 230.552, 115.560 228.334, 118.459 226.435 C 120.124 225.344, 121.902 225.039, 123.959 225.491 C 125.646 225.862, 127 225.745, 127 225.229 C 127 224.717, 124.458 224.275, 121.350 224.248 C 118.243 224.220, 116.239 224.530, 116.897 224.937 M 113.200 226.200 C 110.438 228.962, 112.932 237, 116.551 237 C 117.043 237, 116.445 236.299, 115.223 235.443 C 112.744 233.708, 112.142 228.258, 114.200 226.200 C 114.860 225.540, 115.175 225, 114.900 225 C 114.625 225, 113.860 225.540, 113.200 226.200 M 206.250 225.820 C 204.621 226.051, 204 226.810, 204 228.570 C 204 230.333, 203.451 231, 202 231 C 200.667 231, 200 231.667, 200 233 C 200 234.333, 200.667 235, 202 235 C 203.804 235, 204 235.667, 204 241.800 C 204 249.668, 204.897 251, 210.200 251 C 213.333 251, 214 250.649, 214 249 C 214 247.708, 213.292 246.956, 212 246.875 C 210.900 246.806, 209.438 246.694, 208.750 246.625 C 207.933 246.543, 207.459 244.596, 207.383 241 L 207.265 235.500 207.970 241 L 208.674 246.500 208.837 240.750 C 208.991 235.327, 209.142 235, 211.500 235 C 212.875 235, 214 234.564, 214 234.031 C 214 233.499, 213.347 233.314, 212.548 233.620 C 211.749 233.926, 210.512 233.809, 209.798 233.360 C 208.899 232.794, 209.423 232.342, 211.500 231.890 C 214.472 231.243, 214.474 231.236, 211.813 231.118 C 209.661 231.024, 209.064 230.453, 208.813 228.250 C 208.561 226.039, 208.059 225.563, 206.250 225.820 M 205.600 227.765 C 206.205 228.169, 206.957 229.175, 207.271 230 C 207.653 231.002, 207.868 230.753, 207.921 229.250 C 207.974 227.738, 207.426 227.005, 206.250 227.015 C 205.171 227.025, 204.922 227.312, 205.600 227.765 M 252 230 C 251.411 231.100, 251.155 232, 251.430 232 C 251.705 232, 252.411 231.100, 253 230 C 253.589 228.900, 253.845 228, 253.570 228 C 253.295 228, 252.589 228.900, 252 230 M 55.500 232 C 56.353 233.650, 57.276 235, 57.551 235 C 57.826 235, 57.353 233.650, 56.500 232 C 55.647 230.350, 54.724 229, 54.449 229 C 54.174 229, 54.647 230.350, 55.500 232 M 91.190 233.298 C 88.375 236.294, 87.500 240.956, 88.936 245.307 C 90.306 249.456, 93.972 251.319, 99.621 250.736 C 103.207 250.366, 103.128 250.323, 98.583 250.168 C 95.879 250.076, 93.950 249.716, 94.297 249.370 C 95.348 248.318, 103.972 248.429, 104.422 249.500 C 104.653 250.050, 104.878 249.398, 104.921 248.050 C 104.982 246.144, 104.733 245.867, 103.800 246.800 C 101.109 249.491, 95.031 247.661, 93.671 243.750 C 93.129 242.191, 93.836 242, 100.162 242 L 107.262 242 106.661 238.250 C 105.880 233.371, 102.905 231, 97.564 231 C 94.459 231, 92.780 231.606, 91.190 233.298 M 134.804 244.498 C 135.045 255.205, 135.396 258, 136.497 258 C 137.403 258, 138.018 256.525, 138.268 253.750 L 138.651 249.500 138.825 254.184 C 138.989 258.578, 138.830 258.893, 136.250 259.284 C 133.690 259.671, 133.725 259.711, 136.750 259.850 L 140 260 140 254.500 C 140 249.409, 141.011 247.590, 142.500 250 C 143.760 252.038, 149.578 251.078, 152.076 248.419 C 154.014 246.357, 154.500 244.773, 154.500 240.524 C 154.500 233.777, 152.304 231, 146.967 231 C 143.254 231, 140.353 232.951, 141.759 234.502 C 142.166 234.952, 141.938 234.997, 141.250 234.601 C 140.563 234.206, 140 233.234, 140 232.441 C 140 231.536, 138.977 230.999, 137.250 230.998 L 134.500 230.997 134.804 244.498 M 162.455 233.455 C 160.491 235.418, 160 236.928, 160 241 C 160 248.001, 162.919 251, 169.732 251 C 172.442 251, 175.512 250.330, 176.739 249.471 C 181.439 246.178, 181.439 235.822, 176.739 232.529 C 175.512 231.670, 172.442 231, 169.732 231 C 165.945 231, 164.382 231.527, 162.455 233.455 M 185 231.387 C 185 231.599, 186.350 231.971, 188 232.213 C 189.650 232.455, 191 232.282, 191 231.827 C 191 231.372, 189.650 231, 188 231 C 186.350 231, 185 231.174, 185 231.387 M 193.061 232.427 C 192.260 233.391, 190.761 233.673, 188.438 233.296 L 185 232.738 185 241.869 L 185 251 188 251 L 191 251 191 244.571 C 191 237.581, 192.750 234.440, 196.149 235.329 C 197.572 235.701, 198 235.256, 198 233.406 C 198 230.651, 195.024 230.061, 193.061 232.427 M 218 233 C 215.731 235.269, 215.565 236.318, 217.036 239.067 C 218.165 241.176, 224.673 244.320, 226.093 243.443 C 226.595 243.132, 226.610 243.888, 226.129 245.199 C 225.152 247.859, 221.215 248.720, 217.970 246.984 C 216.057 245.960, 215.874 246.081, 216.170 248.172 C 216.456 250.191, 217.143 250.541, 221.337 250.808 C 227.892 251.226, 231.233 249.068, 230.809 244.688 C 230.550 242.018, 229.803 241.185, 226.213 239.562 C 220.789 237.111, 220.821 234.500, 226.274 234.500 C 229.157 234.500, 230.001 234.104, 230.001 232.750 C 230 230.079, 220.728 230.272, 218 233 M 94.346 232.750 C 94.907 233.659, 100.745 233.588, 101.672 232.661 C 102.036 232.297, 100.432 232, 98.108 232 C 95.784 232, 94.091 232.338, 94.346 232.750 M 136.813 232.683 C 137.534 232.972, 138.397 232.936, 138.729 232.604 C 139.061 232.272, 138.471 232.036, 137.417 232.079 C 136.252 232.127, 136.015 232.364, 136.813 232.683 M 142.566 232.894 C 142.262 233.385, 143.092 233.723, 144.411 233.644 C 145.729 233.565, 146.600 233.162, 146.345 232.750 C 145.705 231.714, 143.237 231.808, 142.566 232.894 M 149.750 233.031 C 150.988 233.529, 152 234.475, 152 235.134 C 152 235.794, 152.289 236.044, 152.643 235.691 C 153.617 234.716, 150.977 231.991, 149.128 232.063 C 148.026 232.106, 148.227 232.419, 149.750 233.031 M 162.935 234.065 C 161.871 235.129, 161.014 236.563, 161.030 237.250 C 161.047 237.938, 161.571 237.600, 162.195 236.500 C 163.689 233.865, 165.165 232.944, 167 233.500 C 167.825 233.750, 169.090 233.584, 169.810 233.131 C 170.671 232.590, 170.049 232.277, 167.995 232.219 C 166.142 232.166, 164.082 232.918, 162.935 234.065 M 172 232.845 C 172 233.310, 173.012 234.547, 174.250 235.595 L 176.500 237.500 174.595 235.250 C 172.503 232.779, 172.983 232.445, 176.316 234.055 C 178.426 235.074, 178.434 235.057, 176.559 233.555 C 174.455 231.870, 172 231.487, 172 232.845 M 192.310 234.210 C 190.718 235.970, 190.717 236.046, 192.306 235.436 C 193.238 235.079, 194 234.398, 194 233.924 C 194 233.451, 194.675 233.322, 195.500 233.638 C 196.325 233.955, 197 233.791, 197 233.274 C 197 231.662, 194.090 232.243, 192.310 234.210 M 201 233 C 201 233.550, 201.450 234, 202 234 C 202.550 234, 203 233.550, 203 233 C 203 232.450, 202.550 232, 202 232 C 201.450 232, 201 232.450, 201 233 M 218.571 233.571 C 216.423 235.720, 216.575 236.694, 218.752 234.725 C 219.715 233.853, 222.528 232.962, 225.002 232.744 L 229.500 232.349 224.821 232.175 C 221.711 232.059, 219.616 232.527, 218.571 233.571 M 90.980 234.524 C 90.284 235.362, 89.909 236.242, 90.145 236.479 C 90.382 236.715, 91.125 236.030, 91.796 234.955 C 93.248 232.630, 92.764 232.375, 90.980 234.524 M 103.030 233.550 C 103.013 234.154, 101.105 234.514, 98.542 234.397 C 95.784 234.271, 93.654 234.712, 92.956 235.553 C 91.121 237.764, 92.814 239, 97.676 239 C 101.603 239, 102.167 238.746, 101.754 237.167 C 101.457 236.031, 101.809 235.333, 102.680 235.333 C 103.550 235.333, 103.856 235.937, 103.484 236.917 C 103.028 238.116, 103.164 238.220, 104.044 237.346 C 104.887 236.510, 104.912 235.685, 104.134 234.346 C 103.544 233.331, 103.047 232.973, 103.030 233.550 M 248.511 235.623 C 247.566 237.066, 247.287 237.941, 247.891 237.567 C 249.045 236.854, 251.374 233, 250.650 233 C 250.419 233, 249.457 234.180, 248.511 235.623 M 143.649 234.684 C 143.393 234.941, 142.407 235.264, 141.458 235.403 C 140.079 235.606, 139.733 236.697, 139.733 240.852 C 139.733 247.159, 141.835 250, 146.500 250 C 149.485 250, 153 247.539, 153 245.449 C 153 244.957, 152.290 245.569, 151.422 246.808 C 150.094 248.704, 149.262 248.959, 146.172 248.414 C 144.152 248.058, 142.047 247.257, 141.493 246.634 C 140.939 246.010, 140.916 245.838, 141.443 246.250 C 143.011 247.479, 146.670 247.103, 147.931 245.583 C 148.577 244.804, 149.007 241.992, 148.886 239.333 C 148.692 235.084, 148.390 234.483, 146.390 234.359 C 145.139 234.282, 143.905 234.428, 143.649 234.684 M 164.740 235.852 C 163.849 236.952, 163.836 237.182, 164.691 236.670 C 165.556 236.151, 165.731 236.881, 165.332 239.340 C 164.582 243.961, 166.369 247, 169.835 247 C 171.356 247, 173.140 246.460, 173.800 245.800 C 175.527 244.073, 175.293 237.488, 173.450 235.959 C 171.228 234.114, 166.196 234.052, 164.740 235.852 M 93.459 236.067 C 93.096 236.653, 93.014 237.348, 93.276 237.610 C 93.538 237.872, 94.019 237.392, 94.345 236.543 C 95.021 234.781, 94.445 234.471, 93.459 236.067 M 259.615 237.500 C 258.727 238.875, 257.272 241.238, 256.381 242.750 L 254.763 245.500 256.774 243.066 C 259.151 240.191, 262.302 235, 261.672 235 C 261.429 235, 260.503 236.125, 259.615 237.500 M 59 238 C 59.589 239.100, 60.295 240, 60.570 240 C 60.845 240, 60.589 239.100, 60 238 C 59.411 236.900, 58.705 236, 58.430 236 C 58.155 236, 58.411 236.900, 59 238 M 123.500 237.155 C 124.600 237.756, 126.063 238.954, 126.750 239.815 C 127.438 240.677, 128 240.872, 128 240.248 C 128 238.977, 124.115 235.983, 122.527 236.030 C 121.962 236.047, 122.400 236.553, 123.500 237.155 M 153.232 240 C 153.232 241.925, 153.438 242.713, 153.689 241.750 C 153.941 240.787, 153.941 239.213, 153.689 238.250 C 153.438 237.287, 153.232 238.075, 153.232 240 M 189.667 237.667 C 189.300 238.033, 189 240.700, 189 243.593 C 189 247.762, 188.637 248.948, 187.250 249.311 C 185.883 249.668, 185.974 249.793, 187.665 249.884 C 189.642 249.990, 189.858 249.438, 190.165 243.498 C 190.349 239.922, 190.463 236.997, 190.417 236.998 C 190.371 236.999, 190.033 237.300, 189.667 237.667 M 105 238.950 C 105 239.473, 102.412 240.063, 99.250 240.261 L 93.500 240.622 99.750 240.811 C 104.723 240.961, 106 240.694, 106 239.500 C 106 238.675, 105.775 238, 105.500 238 C 105.225 238, 105 238.428, 105 238.950 M 138.232 241 C 138.232 242.925, 138.438 243.713, 138.689 242.750 C 138.941 241.787, 138.941 240.213, 138.689 239.250 C 138.438 238.287, 138.232 239.075, 138.232 241 M 163.232 241 C 163.232 242.925, 163.438 243.713, 163.689 242.750 C 163.941 241.787, 163.941 240.213, 163.689 239.250 C 163.438 238.287, 163.232 239.075, 163.232 241 M 176.232 241 C 176.232 242.925, 176.438 243.713, 176.689 242.750 C 176.941 241.787, 176.941 240.213, 176.689 239.250 C 176.438 238.287, 176.232 239.075, 176.232 241 M 89.195 241.500 C 89.215 243.150, 89.439 243.704, 89.693 242.731 C 89.947 241.758, 89.930 240.408, 89.656 239.731 C 89.382 239.054, 89.175 239.850, 89.195 241.500 M 218.733 240.124 C 219.412 240.808, 220.219 241.115, 220.526 240.807 C 220.834 240.499, 220.279 239.940, 219.293 239.564 C 217.868 239.022, 217.753 239.136, 218.733 240.124 M 223 240 C 224.235 240.798, 224.250 240.972, 223.083 240.985 C 222.304 240.993, 221.902 241.236, 222.190 241.524 C 222.478 241.811, 223.491 241.749, 224.441 241.384 C 225.810 240.859, 225.891 240.546, 224.834 239.876 C 224.100 239.411, 223.050 239.031, 222.500 239.031 C 221.950 239.031, 222.175 239.467, 223 240 M 74.978 242.970 C 76.142 244.603, 77.604 246.255, 78.228 246.641 C 78.852 247.027, 78.103 245.690, 76.563 243.671 C 73.220 239.289, 71.960 238.731, 74.978 242.970 M 205.398 244.491 C 205.480 248.496, 205.850 249.513, 207.270 249.639 C 208.408 249.740, 208.516 249.632, 207.572 249.335 C 206.642 249.042, 205.956 247.157, 205.700 244.187 L 205.296 239.500 205.398 244.491 M 227.975 241.658 C 229.463 242.396, 229.234 247.696, 227.689 248.289 C 226.967 248.566, 224.267 248.709, 221.689 248.606 C 219.110 248.503, 217 248.775, 217 249.210 C 217 250.521, 226.485 250.097, 228.395 248.701 C 230.426 247.215, 230.301 241.813, 228.225 241.402 C 227.524 241.263, 227.411 241.379, 227.975 241.658 M 150.079 242.921 C 150.036 243.703, 149.229 245.278, 148.287 246.421 C 146.672 248.381, 146.707 248.377, 148.905 246.354 C 150.187 245.174, 150.994 243.599, 150.697 242.854 C 150.260 241.757, 150.143 241.770, 150.079 242.921 M 161.079 244.250 C 160.836 249.640, 172.145 252.308, 176.811 247.961 C 178.015 246.840, 179 245.429, 179 244.826 C 179 244.223, 178.067 244.916, 176.927 246.365 C 175.788 247.814, 174.368 249, 173.772 249 C 173.177 249, 173.547 247.988, 174.595 246.750 C 176.498 244.502, 176.498 244.502, 174.421 246.250 C 173.278 247.213, 171.288 248, 170 248 C 168.712 248, 166.722 247.213, 165.579 246.250 C 163.502 244.502, 163.502 244.502, 165.405 246.750 C 166.453 247.988, 166.860 249, 166.310 249 C 165.131 249, 162.494 246.135, 161.709 244 C 161.273 242.813, 161.141 242.865, 161.079 244.250 M 92 244.711 C 92 245.285, 92.787 246.373, 93.750 247.128 C 95.369 248.397, 95.390 248.350, 94.033 246.500 C 93.226 245.400, 92.439 244.313, 92.283 244.083 C 92.127 243.854, 92 244.137, 92 244.711 M 90 245.711 C 90 246.285, 90.787 247.373, 91.750 248.128 C 93.369 249.397, 93.390 249.350, 92.033 247.500 C 91.226 246.400, 90.439 245.313, 90.283 245.083 C 90.127 244.854, 90 245.137, 90 245.711 M 126.100 247.295 C 124.835 249.402, 124.857 249.423, 126.579 247.774 C 127.570 246.824, 128.166 245.832, 127.903 245.569 C 127.640 245.306, 126.829 246.083, 126.100 247.295 M 68.140 251.545 C 69.935 254.045, 72.076 256.632, 72.897 257.295 C 73.718 257.958, 72.448 255.912, 70.075 252.750 C 64.968 245.945, 63.431 244.988, 68.140 251.545 M 210 249 C 210 249.550, 210.675 250, 211.500 250 C 212.325 250, 213 249.550, 213 249 C 213 248.450, 212.325 248, 211.500 248 C 210.675 248, 210 248.450, 210 249 M 249.437 252.671 C 247.897 254.690, 247.148 256.027, 247.772 255.641 C 249.052 254.850, 253.381 249, 252.687 249 C 252.440 249, 250.977 250.652, 249.437 252.671 M 86 255.275 C 86 255.426, 89.487 258.914, 93.750 263.025 L 101.500 270.500 94.025 262.750 C 87.082 255.552, 86 254.544, 86 255.275 M 244.405 259.250 L 242.500 261.500 244.750 259.595 C 245.988 258.547, 247 257.535, 247 257.345 C 247 256.545, 246.195 257.136, 244.405 259.250 M 78.697 264.500 C 85.096 271.959, 93.657 280.196, 101.500 286.439 L 107.500 291.216 102 286.446 C 98.975 283.822, 91.336 276.461, 85.025 270.088 C 78.714 263.714, 75.866 261.200, 78.697 264.500 M 217.924 285.750 L 215.500 288.500 218.250 286.076 C 219.762 284.742, 221 283.505, 221 283.326 C 221 282.541, 220.190 283.180, 217.924 285.750 M 202.936 297.793 C 196.575 303.132, 189.825 308.780, 187.936 310.345 L 184.500 313.189 188.500 310.386 C 193.116 307.152, 215 288.994, 215 288.399 C 215 287.687, 214.646 287.963, 202.936 297.793 M 110 293.500 C 111.292 294.875, 112.574 296, 112.849 296 C 113.124 296, 112.292 294.875, 111 293.500 C 109.708 292.125, 108.426 291, 108.151 291 C 107.876 291, 108.708 292.125, 110 293.500 M 116 298.500 C 117.292 299.875, 118.574 301, 118.849 301 C 119.124 301, 118.292 299.875, 117 298.500 C 115.708 297.125, 114.426 296, 114.151 296 C 113.876 296, 114.708 297.125, 116 298.500 M 179.500 301.588 L 176.500 304.165 179.750 302.015 C 181.537 300.832, 183 299.669, 183 299.432 C 183 298.683, 182.577 298.944, 179.500 301.588 M 120 301.314 C 120 301.589, 122.250 303.698, 125 306 C 127.750 308.302, 130 309.961, 130 309.686 C 130 309.411, 127.750 307.302, 125 305 C 122.250 302.698, 120 301.039, 120 301.314 M 142 303.364 C 142 303.639, 143.350 304.825, 145 306 C 146.650 307.175, 148 307.911, 148 307.636 C 148 307.361, 146.650 306.175, 145 305 C 143.350 303.825, 142 303.089, 142 303.364 M 172.500 306.588 L 169.500 309.165 172.750 307.015 C 174.537 305.832, 176 304.669, 176 304.432 C 176 303.683, 175.577 303.944, 172.500 306.588 M 149 308.364 C 149 308.639, 150.350 309.825, 152 311 C 153.650 312.175, 155 312.911, 155 312.636 C 155 312.361, 153.650 311.175, 152 310 C 150.350 308.825, 149 308.089, 149 308.364 M 131 310.404 C 131 310.679, 133.025 312.297, 135.500 314 C 137.975 315.703, 140 316.871, 140 316.596 C 140 316.321, 137.975 314.703, 135.500 313 C 133.025 311.297, 131 310.129, 131 310.404 M 162.028 313.549 C 160.119 314.897, 158.994 315.998, 159.528 315.995 C 160.063 315.992, 161.850 314.883, 163.500 313.531 C 167.352 310.373, 166.512 310.384, 162.028 313.549 M 180.500 315.588 L 177.500 318.165 180.750 316.015 C 182.537 314.832, 184 313.669, 184 313.432 C 184 312.683, 183.577 312.944, 180.500 315.588" stroke="none" fill="black" fill-rule="evenodd"/>
</svg>