<?xml version="1.0" encoding="UTF-8"?>
<!DOCTYPE svg PUBLIC "-//W3C//DTD SVG 1.1//EN" "http://www.w3.org/Graphics/SVG/1.1/DTD/svg11.dtd">
<svg xmlns="http://www.w3.org/2000/svg" version="1.1" width="320px" height="320px" style="shape-rendering:geometricPrecision; text-rendering:geometricPrecision; image-rendering:optimizeQuality; fill-rule:evenodd; clip-rule:evenodd" xmlns:xlink="http://www.w3.org/1999/xlink">
<g><path style="opacity:1" fill="#fdfdfd" d="M -0.5,-0.5 C 47.8333,-0.5 96.1667,-0.5 144.5,-0.5C 113.777,21.8749 80.7775,40.7082 45.5,56C 36.8617,59.9348 27.8617,62.7681 18.5,64.5C 19.1143,68.1352 19.4476,71.8019 19.5,75.5C 19.4443,80.7312 20.111,85.7312 21.5,90.5C 23.9831,127.315 30.1498,163.649 40,199.5C 49.3213,227.158 63.9879,251.491 84,272.5C 102.439,288.785 121.273,304.451 140.5,319.5C 93.5,319.5 46.5,319.5 -0.5,319.5C -0.5,212.833 -0.5,106.167 -0.5,-0.5 Z"/></g>
<g><path style="opacity:1" fill="#070707" d="M 144.5,-0.5 C 154.167,-0.5 163.833,-0.5 173.5,-0.5C 207.32,23.7538 243.654,43.9205 282.5,60C 288.023,62.0979 293.689,63.5979 299.5,64.5C 296.062,96.2115 292.229,127.878 288,159.5C 280.84,211.004 257.674,253.504 218.5,287C 204.934,298.078 191.267,308.911 177.5,319.5C 165.167,319.5 152.833,319.5 140.5,319.5C 121.273,304.451 102.439,288.785 84,272.5C 63.9879,251.491 49.3213,227.158 40,199.5C 30.1498,163.649 23.9831,127.315 21.5,90.5C 21.6975,85.2502 21.0308,80.2502 19.5,75.5C 19.4476,71.8019 19.1143,68.1352 18.5,64.5C 27.8617,62.7681 36.8617,59.9348 45.5,56C 80.7775,40.7082 113.777,21.8749 144.5,-0.5 Z"/></g>
<g><path style="opacity:1" fill="#fdfdfd" d="M 173.5,-0.5 C 222.167,-0.5 270.833,-0.5 319.5,-0.5C 319.5,106.167 319.5,212.833 319.5,319.5C 272.167,319.5 224.833,319.5 177.5,319.5C 191.267,308.911 204.934,298.078 218.5,287C 257.674,253.504 280.84,211.004 288,159.5C 292.229,127.878 296.062,96.2115 299.5,64.5C 293.689,63.5979 288.023,62.0979 282.5,60C 243.654,43.9205 207.32,23.7538 173.5,-0.5 Z"/></g>
<g><path style="opacity:1" fill="#fbfbfb" d="M 282.5,74.5 C 283.806,75.4674 284.473,76.8007 284.5,78.5C 281.534,108.291 277.701,137.958 273,167.5C 265.861,207.617 247.361,241.45 217.5,269C 207.542,276.623 197.875,284.623 188.5,293C 178.833,299.833 169.167,306.667 159.5,313.5C 129.632,294.474 102.799,271.808 79,245.5C 62.2046,223.136 51.2046,198.136 46,170.5C 41.7196,149.697 38.8863,128.697 37.5,107.5C 37.8443,101.902 37.1776,96.5683 35.5,91.5C 34.9152,85.8219 34.2486,80.1553 33.5,74.5C 53.7954,69.1905 73.1287,61.3572 91.5,51C 114.586,37.7253 137.253,23.8919 159.5,9.5C 191.065,31.4583 224.398,50.6249 259.5,67C 267.031,69.965 274.698,72.465 282.5,74.5 Z"/></g>
<g><path style="opacity:1" fill="#030303" d="M 185.5,184.5 C 186.494,174.013 186.828,163.346 186.5,152.5C 175.5,152.5 164.5,152.5 153.5,152.5C 153.5,142.5 153.5,132.5 153.5,122.5C 176.833,122.5 200.167,122.5 223.5,122.5C 223.833,150.175 223.5,177.841 222.5,205.5C 192.223,219.534 160.89,222.368 128.5,214C 97.4619,201.798 80.6286,178.965 78,145.5C 74.6781,98.9467 94.8447,67.7801 138.5,52C 157.689,48.0992 177.023,47.4325 196.5,50C 202.764,51.6063 208.93,53.4396 215,55.5C 215.667,66.8333 215.667,78.1667 215,89.5C 193.823,78.2204 171.656,75.7204 148.5,82C 122.455,95.5932 111.955,117.093 117,146.5C 122.91,176.376 141.077,190.21 171.5,188C 176.495,187.964 181.161,186.798 185.5,184.5 Z"/></g>
<g><path style="opacity:1" fill="#787878" d="M 282.5,74.5 C 283.5,74.5 284.5,74.5 285.5,74.5C 285.768,76.099 285.434,77.4324 284.5,78.5C 284.473,76.8007 283.806,75.4674 282.5,74.5 Z"/></g>
<g><path style="opacity:1" fill="#b5b5b5" d="M 19.5,75.5 C 21.0308,80.2502 21.6975,85.2502 21.5,90.5C 20.111,85.7312 19.4443,80.7312 19.5,75.5 Z"/></g>
<g><path style="opacity:1" fill="#a2a2a2" d="M 35.5,91.5 C 37.1776,96.5683 37.8443,101.902 37.5,107.5C 36.4486,102.354 35.7819,97.0207 35.5,91.5 Z"/></g>
<g><path style="opacity:1" fill="#b9b9b9" d="M 153.5,152.5 C 164.5,152.5 175.5,152.5 186.5,152.5C 186.828,163.346 186.494,174.013 185.5,184.5C 185.5,174.167 185.5,163.833 185.5,153.5C 174.654,153.828 163.987,153.494 153.5,152.5 Z"/></g>
<g><path style="opacity:1" fill="#141414" d="M 117.5,221.5 C 121.198,221.552 124.865,221.886 128.5,222.5C 128.785,224.288 128.452,225.955 127.5,227.5C 123.968,226.197 120.468,226.197 117,227.5C 116.333,228.833 116.333,230.167 117,231.5C 119.754,233.127 122.588,234.627 125.5,236C 130.459,239.921 130.793,244.254 126.5,249C 122.106,251.374 117.44,252.041 112.5,251C 110.604,249.192 110.104,247.025 111,244.5C 115.305,247.474 119.138,247.14 122.5,243.5C 122.471,241.971 121.804,240.804 120.5,240C 116.65,238.672 113.483,236.505 111,233.5C 109.305,227.213 111.472,223.213 117.5,221.5 Z"/></g>
<g><path style="opacity:1" fill="#151515" d="M 205.5,224.5 C 206.5,224.5 207.5,224.5 208.5,224.5C 208.5,226.5 208.5,228.5 208.5,230.5C 210.167,230.5 211.833,230.5 213.5,230.5C 213.5,231.833 213.5,233.167 213.5,234.5C 211.833,234.5 210.167,234.5 208.5,234.5C 208.335,238.182 208.501,241.848 209,245.5C 210.356,246.38 211.856,246.714 213.5,246.5C 213.5,248.167 213.5,249.833 213.5,251.5C 209.713,252.186 206.546,251.186 204,248.5C 202.691,243.934 202.191,239.267 202.5,234.5C 201.5,234.5 200.5,234.5 199.5,234.5C 199.5,233.167 199.5,231.833 199.5,230.5C 200.5,230.5 201.5,230.5 202.5,230.5C 202.5,228.833 202.5,227.167 202.5,225.5C 203.791,225.737 204.791,225.404 205.5,224.5 Z"/></g>
<g><path style="opacity:1" fill="#141414" d="M 141.5,249.5 C 141.44,248.957 141.107,248.624 140.5,248.5C 139.511,252.107 139.177,255.774 139.5,259.5C 137.5,259.5 135.5,259.5 133.5,259.5C 133.5,249.833 133.5,240.167 133.5,230.5C 136.144,230.16 138.477,230.827 140.5,232.5C 145.689,228.303 150.189,228.97 154,234.5C 155.041,239.44 154.374,244.106 152,248.5C 148.568,251.758 145.068,252.092 141.5,249.5 Z"/></g>
<g><path style="opacity:1" fill="#141414" d="M 166.5,229.5 C 179.114,229.941 182.947,235.941 178,247.5C 170.575,253.53 164.241,252.53 159,244.5C 157.439,237.296 159.939,232.296 166.5,229.5 Z"/></g>
<g><path style="opacity:1" fill="#0a0a0a" d="M 193.5,229.5 C 194.833,229.5 196.167,229.5 197.5,229.5C 197.662,231.527 197.495,233.527 197,235.5C 194.46,234.124 192.46,234.79 191,237.5C 190.501,241.821 190.334,246.154 190.5,250.5C 188.5,250.5 186.5,250.5 184.5,250.5C 184.5,243.833 184.5,237.167 184.5,230.5C 186.5,230.5 188.5,230.5 190.5,230.5C 191.193,233.967 192.193,233.634 193.5,229.5 Z"/></g>
<g><path style="opacity:1" fill="#101010" d="M 104.5,245.5 C 104.714,247.144 104.38,248.644 103.5,250C 100.183,250.498 96.8499,250.665 93.5,250.5C 90.4585,249.625 88.6252,247.625 88,244.5C 86.1987,232.63 91.032,228.13 102.5,231C 106.048,233.591 107.382,237.091 106.5,241.5C 102.167,241.5 97.8333,241.5 93.5,241.5C 95.1779,247.784 98.8446,249.117 104.5,245.5 Z"/></g>
<g><path style="opacity:1" fill="#dbdbdb" d="M 95.5,233.5 C 98.8332,232.833 100.833,234.167 101.5,237.5C 98.9135,238.48 96.2469,238.813 93.5,238.5C 93.3915,236.486 94.0582,234.82 95.5,233.5 Z"/></g>
<g><path style="opacity:1" fill="#e9e9e9" d="M 141.5,234.5 C 147.997,234.18 150.164,237.18 148,243.5C 146.695,246.306 144.528,247.14 141.5,246C 138.888,242.169 138.888,238.336 141.5,234.5 Z"/></g>
<g><path style="opacity:1" fill="#e7e7e7" d="M 166.5,234.5 C 173.503,233.673 176.003,236.673 174,243.5C 171.689,247.123 168.856,247.456 165.5,244.5C 164.094,240.95 164.427,237.616 166.5,234.5 Z"/></g>
<g><path style="opacity:1" fill="#171717" d="M 221.5,229.5 C 224.167,229.5 226.833,229.5 229.5,229.5C 229.66,231.199 229.494,232.866 229,234.5C 226.936,233.409 224.769,233.242 222.5,234C 221.978,234.561 221.645,235.228 221.5,236C 224.281,237.828 227.114,239.662 230,241.5C 230.892,248.36 227.725,251.693 220.5,251.5C 215.931,251.902 214.431,249.902 216,245.5C 219.248,248.259 222.082,248.093 224.5,245C 224.355,244.228 224.022,243.561 223.5,243C 217.532,242.382 215.032,239.216 216,233.5C 217.5,231.531 219.333,230.198 221.5,229.5 Z"/></g>
<g><path style="opacity:1" fill="#b2b2b2" d="M 104.5,245.5 C 105.807,247.223 105.807,249.057 104.5,251C 100.642,251.81 96.9758,251.643 93.5,250.5C 96.8499,250.665 100.183,250.498 103.5,250C 104.38,248.644 104.714,247.144 104.5,245.5 Z"/></g>
<g><path style="opacity:1" fill="#a4a4a4" d="M 141.5,249.5 C 140.518,252.962 140.185,256.629 140.5,260.5C 137.941,260.802 135.607,260.468 133.5,259.5C 135.5,259.5 137.5,259.5 139.5,259.5C 139.177,255.774 139.511,252.107 140.5,248.5C 141.107,248.624 141.44,248.957 141.5,249.5 Z"/></g>
</svg>
