<?xml version="1.0"?><svg xmlns="http://www.w3.org/2000/svg" width="36" height="36" shape-rendering="geometricPrecision" text-rendering="geometricPrecision" image-rendering="optimizeQuality" fill-rule="evenodd" clip-rule="evenodd" viewBox="0 0 36 36"><path fill="#fdfcfc" d="m-0.1-0.1h36v36h-36v-36z"></path><path fill="#61605d" d="m18.1 0.2h0.5c0.1 0.4 0 0.6-0.2 0.9-0.3-0.3-0.4-0.5-0.3-0.9z"></path><path fill="#605f5a" d="m17.4 0.2h0.5v0.9c-0.5-0.1-0.7-0.4-0.5-0.9z"></path><path fill="#f9f8f8" d="m25.8 1.3c-0.3 0-0.3 0.1-0.1 0.2 0.8 0.5 1.5 1.1 2.1 1.8 0.3 0.2 0.7 0.4 1 0.6-0.2 0.1-0.2 0.3 0 0.4 0.2 0.1 0.3 0.2 0.5 0.3-0.1 0-0.2 0-0.3 0 0.3 0.1 0.4 0.2 0.3 0.5 0.2 0.1 0.5 0.2 0.7 0.2 0.1 0.4 0.1 0.7 0.3 1.1 0.2 0 0.3 0 0.4 0.1 0.1 0.4 0.3 0.6 0.4 0.9-0.2 0.1-0.5 0.3-0.8 0.5 0.2 0.1 0.3 0.3 0.3 0.6 0.3 0 0.6-0.1 0.8-0.3 0.2 0.1 0.4 0.2 0.6 0.2v0.5c0.5 0 0.5 0.1 0.3 0.5 0 0.6 0.2 0.9 0.7 1-0.2 0.1-0.3 0.2-0.4 0.3 0.2 0.2 0.3 0.5 0.5 0.8-0.2 0.3-0.1 0.6 0.2 0.9-0.6 0.7-0.5 1.1 0.4 1.5v0.5c-0.4 0-0.7 0-1-0.1-0.1-0.1-0.2-0.2-0.3-0.3-0.1-0.2-0.3-0.4-0.4-0.6v1.3c0.1 0.2 0.3 0.3 0.6 0.4 0.1 0.3 0.1 0.6 0.1 0.9-0.2-0.1-0.4 0-0.5 0.1-0.2-0.5-0.4-0.5-0.5 0.1 0.2 0.2 0.2 0.4 0 0.5 0.1 0.2 0.2 0.5 0.4 0.7 0.1-0.2 0.3-0.2 0.5-0.1-0.4 0.3-0.7 0.6-0.9 0.8 0.2 0.1 0.3 0.1 0.4 0 0.2 0.5 0.2 0.6-0.2 0.3 0 0.2-0.1 0.4 0 0.7-0.3-0.1-0.5 0-0.8 0.1-0.2 0.3-0.5 0.5-0.8 0.7-0.1 0.4-0.2 0.8-0.1 1.3-0.2 0.1-0.3 0.3-0.4 0.5-0.1-0.1-0.3-0.1-0.5-0.1l-0.1-0.3c-0.1-2 0-4 0.1-6 0.1-0.3 0.3-0.4 0.6-0.3v-0.4h-3c0.3-0.2 0.6-0.2 0.9-0.2 0.2-0.2 0.4-0.5 0.7-0.8-0.2 0-0.4-0.1-0.6 0 0-0.4-0.1-0.7-0.1-1 0.1 0 0.2 0 0.3-0.2-0.2-0.1-0.4-0.2-0.5-0.4 0.1 0 0.2 0 0.2-0.1-0.6-0.2-0.6-0.4 0-0.6-0.3 0-0.5-0.1-0.7-0.1 0-0.2 0-0.3 0.1-0.4-0.5-0.2-0.5-0.4 0-0.6-0.1-0.2-0.3-0.2-0.4 0-0.1-0.3-0.3-0.5-0.5-0.7 0-0.2 0-0.3 0.2-0.4l-0.1-0.2c-0.2 0.1-0.4 0.2-0.6 0.2 0-0.3-0.2-0.6-0.4-0.7 0.2-0.5 0.1-0.6-0.3-0.2-0.2-0.1-0.3-0.3-0.3-0.5-0.5 0-0.7-0.3-0.5-0.7-0.1 0.1-0.2 0.2-0.3 0.2-0.3-0.1-0.6-0.3-0.9-0.5-0.1-0.2-0.1-0.4 0-0.5-0.1-0.1-0.3 0-0.4 0.2l-0.6-0.3c-0.2 0-0.5-0.2-0.7-0.4 0.1-0.1 0-0.2 0-0.3-0.2 0.4-0.4 0.5-0.7 0.3-0.3-0.4-0.7-0.7-1.2-0.8-0.1 0.1-0.2 0.1-0.3 0.2-0.2 0-0.5-0.1-0.7-0.1-1.2-0.6-2.2-0.4-3.1 0.6v0.1c-0.3 0.2-0.5 0.1-0.6-0.3-0.1 0.2-0.1 0.4-0.1 0.6-0.2 0-0.4 0-0.6-0.2-0.2 0.6-0.4 0.7-0.8 0.3-0.2 0.1-0.2 0.2 0 0.4-0.5 0.2-0.9 0.5-1.3 0.9-0.1-0.1-0.2-0.2-0.3-0.3-0.1 0.2-0.1 0.4-0.2 0.6-0.5 0.3-0.8 0.6-1.2 1-0.2 0-0.4 0-0.5 0.1l0.3 0.3c-0.5 0.7-1 1.4-1.3 2.2-0.5 0-0.5 0.2-0.2 0.5-0.1 0.2-0.1 0.3-0.1 0.5-0.3 0.4-0.3 0.7-0.1 1.1 0 0.2 0 0.4-0.2 0.5 0-0.2 0-0.2 0-0.3 0 0.5-0.3 0.8-0.7 1 0.1 0.1 0.3 0.1 0.4 0.1-0.1 0.5-0.2 0.9-0.4 1.4-0.2 0.3-0.3 0.6-0.4 1-0.4 0.8-0.7 1.7-1 2.5l-0.6 1.3c-0.3-0.5-0.5-0.9-0.6-1.4-0.2-0.5-0.4-1-0.6-1.4l-0.6-1.4-0.3-0.9c-0.1-1.1-0.1-2.2-0.1-3.3 0.3-0.1 0.3-0.3 0.1-0.5 0.6-1.1 0.9-2.3 1.2-3.5 0.1 0 0.3 0 0.4-0.1 0.1 0.1 0.2 0.2 0.1 0.4 0.1 0.2 0.2 0.3 0.2 0.6 0.4-0.6 0.7-1.1 1-1.7 0.2-0.3 0.5-0.7 0.7-1 0.7-0.7 1.4-1.4 2.1-2.1 0.4-0.3 0.8-0.5 1.1-0.9 0.9-0.4 1.8-0.9 2.7-1.4 0.4 0 0.8-0.1 1.2-0.3-0.1-0.1-0.1-0.1-0.2-0.1 0.1-0.1 0.2-0.2 0.4-0.1 0 0 0.1 0.1 0.2 0.1 0.4-0.2 0.9-0.2 1.3-0.3 0 0.2-0.1 0.4-0.3 0.6l0.3 0.1c1.5-0.2 2.9-0.2 4.4 0 0.3-0.1 0.3-0.2 0-0.3 0.1-0.2 0.2-0.3 0.3-0.4 1.4 0.3 2.8 0.8 4.2 1.4 0.6 0.5 1.2 0.9 1.9 1.3-0.4-0.4-0.8-0.8-1.4-1.1 0.4-0.2 0.5-0.5 0.6-0.9-0.2-0.1-0.3-0.2-0.6-0.1-0.1-0.2-0.1-0.5-0.1-0.7-1.5-0.2-1.5-0.5-0.1-0.9 0.3 0.3 0.5 0.5 0.8 0.7z"></path><path fill="#a8a7a3" d="m24.7 3c-1.4-0.6-2.8-1.1-4.2-1.4-0.1 0.1-0.2 0.2-0.3 0.4 0.3 0.1 0.3 0.2 0 0.3-1.5-0.2-2.9-0.2-4.4 0l-0.3-0.1c0.2-0.2 0.3-0.4 0.3-0.6-0.4 0.1-0.9 0.1-1.3 0.3-0.1 0-0.2-0.1-0.2-0.1 0.3-0.1 0.6-0.2 0.7-0.5 0.1 0.1 0.3 0.2 0.4 0.2 0.4-0.1 0.8-0.2 1.1-0.4 0.1 0.1 0.4 0.2 0.7 0.2 0.5-0.1 1-0.1 1.6 0 0.2 0 0.5-0.1 0.7-0.2 0.9 0.3 1.7 0.5 2.6 0.8 0.4-0.4 0.5-0.4 0.5 0.1 0.4 0.1 0.7 0.2 1 0.5 0.1-0.2 0.1-0.2 0.2-0.3 0.3 0.3 0.5 0.6 0.9 0.8z"></path><path fill="#ebebea" d="m16.4 1.6c0.3-0.2 0.7-0.1 1 0.2 0.2-0.4 0.3-0.4 0.5 0-0.3 0.2-0.6 0.1-0.9-0.2-0.2 0.1-0.4 0.1-0.6 0z"></path><path fill="#5c5b59" d="m10.6 2c0.7 0.1 0.8 0.4 0.4 0.9-0.1-0.1-0.1-0.2 0-0.3-0.1-0.1-0.2-0.2-0.4-0.1v-0.5z"></path><path fill="#acaba8" d="m13.9 1.9c0.1 0 0.1 0 0.2 0.1-0.4 0.2-0.8 0.3-1.2 0.3 0.2-0.1 0.5-0.3 0.7-0.5 0.1 0 0.2 0.1 0.3 0.1z"></path><path fill="#575653" d="m10.1 2.3c0 0.2 0.2 0.3 0.5 0.3 0.1 0.3 0 0.5-0.2 0.7-0.1-0.1 0-0.3 0.1-0.4-0.1-0.2-0.2-0.2-0.4 0-0.2-0.2-0.2-0.4 0-0.6z"></path><path fill="#a7a6a3" d="m12.9 2.3c-0.9 0.5-1.8 1-2.7 1.4 0.6-0.5 1.3-0.9 2-1.4 0.2 0.1 0.4 0.1 0.7 0z"></path><path fill="#737168" d="m16.5 3.2c0.2-0.1 0.4 0 0.5 0.1 0.1 0.4 0.1 0.8 0.1 1.1-0.2 0.1-0.4 0-0.6-0.1 0.2-0.1 0.3-0.1 0.4-0.2-0.1-0.1-0.2-0.1-0.4-0.1v-0.8z"></path><path fill="#898884" d="m25.2 2.2c0.3-0.1 0.4 0 0.6 0.1-0.1 0.4-0.2 0.7-0.6 0.9 0.6 0.3 1 0.7 1.4 1.1-0.7-0.4-1.3-0.8-1.9-1.3 0.1 0 0.3 0 0.4 0-0.1-0.3 0-0.3 0.2-0.1 0.1-0.3 0-0.5-0.1-0.7z"></path><path fill="#9d9b91" d="m17.5 3.2h0.7c0.1 0.5 0 0.9-0.3 1.2-0.3 0-0.5-0.1-0.7-0.1 0.3-0.3 0.4-0.7 0.3-1.1z"></path><path fill="#716f68" d="m13.6 3.9c0.2-0.1 0.3 0 0.5 0.1 0.1 0.4 0.2 0.7 0.2 1.1-0.2 0.1-0.4 0-0.5-0.1-0.1-0.3-0.2-0.6-0.4-0.8 0.1-0.1 0.1-0.2 0.2-0.3z"></path><path fill="#807d74" d="m19.2 3.2c0.2 0 0.3 0.2 0.3 0.4-0.1 0.3-0.1 0.6-0.2 0.8-0.1-0.4-0.1-0.8-0.1-1.2z"></path><path fill="#6f6c63" d="m21.6 3.7c0.1 0.4 0 0.8-0.2 1.2 0-0.4 0-0.8 0.2-1.2z"></path><path fill="#dbd1b9" d="m25.8 1.3c0.3 0.1 0.7 0.2 1 0.4 0.5 0.5 1.1 1 1.7 1.5l0.7 0.2c0.1 0.2 0.2 0.4 0.4 0.5l-0.1 0.2c0.4 0 0.6 0.3 0.7 0.8 0 0.1-0.1 0.2-0.2 0.2-0.3-0.1-0.5-0.3-0.7-0.5-0.2-0.1-0.3-0.2-0.5-0.3-0.2-0.1-0.2-0.3 0-0.4-0.3-0.2-0.7-0.4-1-0.6-0.6-0.7-1.3-1.3-2.1-1.8-0.2-0.1-0.2-0.2 0.1-0.2z"></path><path fill="#9f9d9a" d="m10.2 3.7c-0.3 0.4-0.7 0.6-1.1 0.9 0.2-0.3 0.4-0.5 0.5-0.9 0.2 0.2 0.4 0.2 0.6 0z"></path><path fill="#7c7a72" d="m14.6 3.6c0.6 0.1 0.8 0.4 0.6 1.1-0.2 0.2-0.3 0.2-0.4 0-0.1-0.4-0.2-0.7-0.2-1.1z"></path><path fill="#706f65" d="m19.8 3.3h0.5c0.1 0.5 0 0.9-0.4 1.3l-0.1-0.2c0.2-0.2 0.3-0.5 0.2-0.8l-0.2 0.4c0-0.2-0.1-0.5 0-0.7z"></path><path fill="#989793" d="m26.6 4.3c0.4 0.1 0.6 0.3 0.8 0.6l0.2-0.2c0 0.1 0.1 0.3 0 0.4-0.4-0.1-0.7-0.4-1-0.8z"></path><path fill="#8f8473" d="m18.5 5c-0.5 0.1-1 0.1-1.6 0-0.2 0.1-0.4 0.3-0.5 0.6-0.1-0.1-0.2-0.2-0.2-0.3-0.3 0.2-0.5 0.3-0.8 0.3 0.9-1 1.9-1.2 3.1-0.6z"></path><path fill="#5b5950" d="m22 3.9c0.1-0.1 0.2 0 0.3 0.1-0.6 1.3-0.7 1.3-0.3-0.1z"></path><path fill="#605e59" d="m23.4 4.4c0.1 0 0.2 0 0.3 0.1-0.8 1.4-0.8 1.4-0.3-0.1z"></path><path fill="#9a9996" d="m9.1 4.6c-0.7 0.7-1.4 1.4-2.1 2.1 0.3-0.6 0.7-1.2 1.3-1.6 0.1-0.1 0.1-0.2 0.1-0.4 0.2 0 0.4-0.1 0.7-0.1z"></path><path fill="#bba87f" d="m35.2 4.6c0.1 0 0.2 0.1 0.2 0.2-0.2 0.5-0.4 0.9-0.8 1.3-0.1-0.2-0.1-0.5 0-0.7 0.2-0.3 0.4-0.6 0.6-0.8z"></path><path fill="#a7977d" d="m20.7 5.7c-0.4-0.2-0.9-0.3-1.4-0.4-0.1 0-0.1-0.1-0.1-0.2 0.1-0.1 0.2-0.1 0.3-0.2 0.5 0.1 0.9 0.4 1.2 0.8z"></path><path fill="#5e5c57" d="m23.8 4.7h0.5c0 0.5-0.2 0.8-0.6 0.9 0.2 0.2 0.2 0.3 0 0.4-0.2-0.1-0.3-0.2-0.4-0.4l0.7-0.5c-0.1-0.1-0.2-0.2-0.2-0.4z"></path><path fill="#a6a6a2" d="m27.6 5.1c0.4 0.2 0.7 0.4 0.9 0.7l0.2-0.1c0.1 0.1 0 0.3-0.1 0.4-0.4-0.3-0.7-0.6-1-1z"></path><path fill="#5d5b57" d="m11.7 6c-0.1-0.1-0.3-0.3-0.4-0.4-0.1 0.2 0 0.4 0.2 0.5-0.1 0.1-0.1 0.1-0.2 0.2-0.2-0.3-0.4-0.6-0.4-1 0.5 0 0.8 0.2 0.8 0.7z"></path><path fill="#beb4a3" d="m17.6 5.4c0.5 0 0.9 0 1.3 0.1 0.1 0 0.1 0.1 0.2 0.2 0 0.1-0.1 0.1-0.2 0.1-0.3 0-0.6-0.1-1-0.1l-0.3-0.3z"></path><path fill="#1d1a16" d="m16.9 5c0.6 0.1 1.1 0.1 1.6 0 0.2 0 0.5 0.1 0.7 0.1 0 0.1 0 0.2 0.1 0.2 0.4 0.2 0.7 0.4 1 0.7 0 0.1 0 0.3 0 0.4-0.4-0.3-0.8-0.5-1.2-0.7-0.1-0.1-0.1-0.2-0.2-0.2-0.4-0.1-0.8-0.1-1.3-0.1-0.2 0.1-0.5 0-0.8-0.1 0.1-0.1 0.1-0.2 0.1-0.3z"></path><path fill="#979285" d="m15.4 5.7v0.4c0 0.3 0.1 0.4 0.3 0.6l-0.6 0.1c0-0.2 0-0.5 0.2-0.7l-0.3-0.1c-0.8 0.3-1.5 0.6-2.3 1-0.3 0.3-0.6 0.7-0.8 1.1 0.3-0.1 0.5-0.1 0.8 0-0.4 0.2-0.7 0.5-1 0.8-0.1-0.1-0.1-0.1-0.1-0.3 0.1-0.1 0.2-0.1 0.3-0.2-0.2 0-0.4-0.1-0.4-0.3l0.5-0.7c0.4-0.4 0.8-0.7 1.3-0.9-0.2-0.2-0.2-0.3 0-0.4 0.4 0.4 0.6 0.3 0.8-0.3 0.2 0.2 0.4 0.2 0.6 0.2 0-0.2 0-0.4 0.1-0.6 0.1 0.4 0.3 0.5 0.6 0.3z"></path><path fill="#847661" d="m21.4 5.7l-0.4 0.4c0 0.1 0.1 0.1 0.2 0.2v0.4c-0.3-0.1-0.5-0.2-0.7-0.3 0.1-0.1 0.1-0.3 0-0.4 0.1-0.1 0.2-0.2 0.2-0.3 0.3 0.2 0.5 0.1 0.7-0.3 0 0.1 0.1 0.2 0 0.3z"></path><path fill="#504e49" d="m25 5.4c0.2 0 0.2 0.1 0.2 0.3-0.2 0.2-0.4 0.4-0.5 0.6-0.1 0.1-0.2 0.1-0.3 0 0.2-0.2 0.4-0.6 0.6-0.9z"></path><path fill="#4e4c48" d="m10.9 6.7v0.3c-0.3-0.3-0.4-0.5-0.6-0.9-0.1 0.2-0.2 0.2-0.2 0 0.1-0.1 0.2-0.2 0.4-0.3 0.1 0.3 0.2 0.6 0.4 0.9z"></path><path fill="#f7f7f5" d="m15.1 6.8c-0.1 0.1-0.2 0.2-0.3 0.3-0.7 0.2-1.4 0.5-2.1 1-0.3-0.1-0.5-0.1-0.8 0 0.2-0.4 0.5-0.8 0.8-1.1 0.8-0.4 1.5-0.7 2.3-1l0.3 0.1c-0.2 0.2-0.2 0.5-0.2 0.7z"></path><path fill="#2c2821" d="m15.7 6.7c-0.2-0.2-0.3-0.3-0.3-0.6 0.3 0 0.7-0.1 1-0.1 0 0.2-0.1 0.5-0.2 0.7-0.2 0.2-0.4 0.2-0.5 0z"></path><path fill="#c1b7a6" d="m17.5 6.1c0.5 0 0.9 0.1 1.3 0.3-0.1 0.1-0.2 0.2-0.3 0.1-0.3 0-0.7-0.1-1-0.1v-0.3z"></path><path fill="#6c5d49" d="m16.9 5c0 0.1 0 0.2-0.1 0.3 0.3 0.1 0.6 0.2 0.8 0.1l0.3 0.3c-0.3 0-0.7 0-1.1 0.1-0.1 0-0.1 0.1-0.1 0.2 0.2 0.1 0.5 0.2 0.8 0.1v0.3c-0.4-0.1-0.7 0.1-1 0.4 0.3 0 0.6 0 0.9 0v0.3c-0.5 0-1 0-1.4 0.1 0.2-0.2 0.1-0.2-0.2-0.2-0.2 0-0.4 0.1-0.5 0.2-0.2-0.1-0.2-0.2-0.2-0.4l0.6-0.1c0.1 0.2 0.3 0.2 0.5 0 0.1-0.2 0.2-0.5 0.2-0.7-0.3 0-0.7 0.1-1 0.1v-0.5c0.3 0 0.5-0.1 0.8-0.3 0 0.1 0.1 0.2 0.2 0.3 0.1-0.3 0.3-0.5 0.5-0.6z"></path><path fill="#d4d2ca" d="m21.4 5.7c0.2 0.2 0.5 0.4 0.7 0.4-0.1 0-0.1 0-0.2 0.1 0.3 0.1 0.7 0.3 1 0.6-0.1 0.2-0.2 0.3-0.5 0.3-0.5-0.2-0.9-0.5-1.2-0.8-0.1-0.1-0.2-0.1-0.2-0.2l0.4-0.4z"></path><path fill="#a6a49f" d="m11.7 6c0.2 0.1 0.2 0.2 0 0.4-0.2 0.2-0.5 0.4-0.8 0.6v-0.3l0.4-0.4c0.1-0.1 0.1-0.1 0.2-0.2-0.2-0.1-0.3-0.3-0.2-0.5 0.1 0.1 0.3 0.3 0.4 0.4z"></path><path fill="#9b9b97" d="m28.6 6.1c0.3 0.2 0.5 0.4 0.5 0.7-0.2-0.2-0.4-0.4-0.5-0.7z"></path><path fill="#1a1613" d="m17.9 5.7c0.4 0 0.7 0.1 1 0.1 0.5 0.4 1 0.8 1.6 1.1-0.1 0.1-0.2 0.2-0.4 0.2-0.4-0.3-0.8-0.6-1.3-0.7-0.4-0.2-0.8-0.3-1.3-0.3-0.3 0.1-0.6 0-0.8-0.1 0-0.1 0-0.2 0.1-0.2 0.4-0.1 0.8-0.1 1.1-0.1z"></path><path fill="#52514c" d="m25.4 5.7c0.2 0 0.3 0.1 0.4 0.3-0.2 0.2-0.4 0.5-0.6 0.8-0.1 0-0.2 0-0.4 0 0.3-0.2 0.5-0.6 0.6-1.1z"></path><path fill="#878683" d="m7 6.7c-0.2 0.3-0.5 0.7-0.7 1 0-0.5 0.2-0.8 0.7-1z"></path><path fill="#d4cab9" d="m17.4 6.8c0.4 0 0.8 0.1 1.2 0.3v0.3c-0.4-0.2-0.8-0.3-1.2-0.3v-0.3z"></path><path fill="#161310" d="m17.5 6.4c0.3 0 0.7 0.1 1 0.1 0.5 0.3 1 0.6 1.5 0.9 0.1 0.2 0.1 0.4 0 0.5-0.5-0.3-0.9-0.5-1.4-0.8-0.4-0.2-0.8-0.3-1.2-0.3-0.3 0-0.6 0-0.9 0 0.3-0.3 0.6-0.5 1-0.4z"></path><path fill="#a9a597" d="m21.2 6.3c0.3 0.3 0.7 0.6 1.2 0.8 0.1 0.2 0.3 0.3 0.6 0.4-0.1 0.1-0.3 0.2-0.4 0.2-0.2-0.3-0.5-0.5-0.8-0.6-0.1 0.1-0.1 0.2-0.1 0.3-0.2-0.2-0.3-0.4-0.3-0.7-0.1 0.2-0.2 0.2-0.2 0v-0.4z"></path><path fill="#1a1714" d="m17.4 7.1c0.4 0 0.8 0.1 1.2 0.3 0.5 0.3 1 0.6 1.4 0.9 0 0.1-0.1 0.2-0.2 0.3-0.4-0.2-0.8-0.5-1.3-0.7 0 0-0.1-0.1-0.1-0.2-0.3 0-0.6-0.1-0.9 0-0.7-0.2-1.5-0.1-2.2 0.1-0.2-0.1-0.2-0.2-0.2-0.3 0.3-0.1 0.6-0.2 0.9-0.3 0.4-0.1 0.9-0.1 1.4-0.1z"></path><path fill="#464542" d="m9.1 7c0.5 0.1 0.8 0.5 0.8 1.1-0.4 0-0.5-0.1-0.1-0.3-0.1-0.1-0.1-0.1-0.2-0.2-0.2 0.1-0.5 0-0.7-0.1-0.1-0.2 0-0.4 0.2-0.5z"></path><path fill="#6f6151" d="m15.1 7.5c0 0.1 0 0.2 0.2 0.3 0.7-0.2 1.5-0.3 2.2-0.1-0.2-0.1-0.3 0-0.4 0.1-0.5 0.1-1 0.1-1.6 0.1-0.2 0.1-0.4 0-0.7 0 0.1-0.2 0.2-0.3 0.3-0.4z"></path><path fill="#c8c0b0" d="m17.5 7.7c0.3-0.1 0.6 0 0.9 0 0 0.1 0.1 0.2 0.1 0.2-0.1 0.2-0.1 0.2-0.3 0.2-0.4-0.1-0.8-0.2-1.1-0.3 0.1-0.1 0.2-0.2 0.4-0.1z"></path><path fill="#7e7c75" d="m22.1 6.1l0.6 0.3c0.1-0.2 0.3-0.3 0.4-0.2-0.1 0.1-0.1 0.3 0 0.5 0.3 0.2 0.6 0.4 0.9 0.5 0.1 0 0.2-0.1 0.3-0.2-0.2 0.4 0 0.7 0.5 0.7 0 0.2 0.1 0.4 0.3 0.5l0.4 0.9c-0.3-0.1-0.5-0.3-0.7-0.6-0.1 0.1-0.2 0.1-0.3 0.1 0.1-0.1 0.1-0.3 0.1-0.5-0.5-0.5-1.1-0.9-1.7-1.3-0.3-0.3-0.7-0.5-1-0.6 0.1-0.1 0.1-0.1 0.2-0.1z"></path><path fill="#645f57" d="m5.4 7.4c0.1 0.1 0.2 0.2 0.3 0.3v0.4c-0.2 0-0.4-0.1-0.6-0.2-0.4-0.3-0.3-0.5 0.3-0.5z"></path><path fill="#93846e" d="m15.1 6.8c0 0.2 0 0.3 0.2 0.4 0.1-0.1 0.3-0.2 0.5-0.2 0.3 0 0.4 0 0.2 0.2-0.3 0.1-0.6 0.2-0.9 0.3-0.1 0.1-0.2 0.2-0.3 0.4 0.3 0 0.5 0.1 0.7 0-0.3 0.2-0.6 0.4-0.8 0.7l0.1 0c1-0.3 2-0.3 3-0.1-0.3 0-0.6 0-0.9 0.1-0.7 0.1-1.4 0.1-2.1 0.3-0.2 0.1-0.3 0.2-0.2 0.5h0.4c-0.1 0.1-0.3 0.3-0.7 0.4-0.1 0.2 0 0.3 0.1 0.5-0.2 0.1-0.4 0.3-0.4 0.6 0.1-0.9 0.3-1.8 0.6-2.7 0.1-0.3 0.2-0.7 0.2-1.1 0.1-0.1 0.2-0.2 0.3-0.3z"></path><path fill="#abaaa6" d="m5.7 7.7c0.1 0 0.2 0.1 0.2 0.2 0.1-0.1 0.2-0.2 0.4-0.2-0.3 0.6-0.6 1.1-1 1.7 0-0.3-0.1-0.4-0.2-0.6 0.3-0.1 0.4-0.3 0.3-0.6-0.3 0.1-0.6 0-0.8-0.1l0.5-0.2c0.2 0.1 0.4 0.2 0.6 0.2v-0.4z"></path><path fill="#14110e" d="m17.1 7.8c0.3 0.1 0.7 0.2 1.1 0.3 0.5 0.2 1 0.5 1.4 0.8 0.1 0.1 0.2 0.3 0.2 0.5-0.5-0.2-1-0.4-1.4-0.6-0.2-0.2-0.4-0.3-0.6-0.3-1-0.2-2-0.2-3 0.1l-0.1 0c0.2-0.3 0.5-0.5 0.8-0.7 0.6 0 1.1 0 1.6-0.1z"></path><path fill="#474642" d="m27.2 7.7c0.1-0.1 0.2 0 0.3 0.1-0.3 0.3-0.5 0.4-0.9 0.5 0.3-0.2 0.5-0.4 0.6-0.6z"></path><path fill="#6b6a66" d="m31.1 7.4c-0.3 0.3-0.3 0.5 0.3 0.4v0.4c-0.2 0.2-0.5 0.3-0.8 0.3 0-0.3-0.1-0.5-0.3-0.6 0.3-0.2 0.6-0.4 0.8-0.5z"></path><path fill="#959491" d="m30.6 8.9c-0.5-0.4-0.8-0.9-0.9-1.5 0.4 0.4 0.7 0.9 0.9 1.5z"></path><path fill="#5d5850" d="m4.6 8.1c0.2 0.1 0.5 0.2 0.8 0.1 0.1 0.3 0 0.5-0.3 0.6 0.1-0.2 0-0.3-0.1-0.4-0.1 0.1-0.3 0.1-0.4 0.1v-0.4z"></path><path fill="#454440" d="m12 7.4l-0.5 0.7c-0.8 0.6-1.4 1.3-1.9 2.1-0.2 0.3-0.3 0.6-0.5 0.8-0.2 0.5-0.4 0.9-0.6 1.3 0-0.2 0-0.3 0.1-0.5-0.3-0.3-0.3-0.5 0.2-0.5 0.3-0.8 0.8-1.5 1.3-2.2l-0.3-0.3c0.1-0.1 0.3-0.1 0.5-0.1 0.4-0.4 0.7-0.7 1.2-1 0.1-0.2 0.1-0.4 0.2-0.6 0.1 0.1 0.2 0.2 0.3 0.3z"></path><path fill="#bebcb3" d="m14.8 7.1c0 0.4-0.1 0.8-0.2 1.1-0.1 0-0.1-0.1-0.2-0.1-1 0.6-1.9 1.2-2.7 2-0.7-0.3-0.7-0.6-0.1-1-0.2-0.1-0.2-0.3 0-0.5 0 0.2 0 0.2 0.1 0.3 0.3-0.3 0.6-0.6 1-0.8 0.7-0.5 1.4-0.8 2.1-1z"></path><path fill="#d2cfc6" d="m22.6 7.7c0 0.2 0.2 0.3 0.4 0.4-0.1 0.1-0.3 0.1-0.4 0-0.1 0.1-0.2 0.2-0.2 0.4-0.1-0.1-0.2-0.1-0.3-0.1 0 0.1-0.1 0.2-0.2 0.2 0-0.4-0.1-0.8-0.2-1.2 0-0.1 0-0.2 0.1-0.3 0.3 0.1 0.6 0.3 0.8 0.6z"></path><path fill="#656360" d="m8.2 7.8c0.4 0.1 0.7 0.3 1 0.6 0.1-0.1 0.2-0.1 0.2-0.2 0 0.7-0.2 0.8-0.8 0.5-0.3-0.2-0.4-0.5-0.4-0.9z"></path><path fill="#e0dbce" d="m16.9 8.6c0.3-0.1 0.6-0.1 0.9-0.1 0.2 0 0.4 0.1 0.6 0.3 0 0.1-0.1 0.1-0.2 0.1-0.4 0-0.8-0.1-1.3-0.3z"></path><path fill="#181512" d="m16.9 8.6c0.5 0.2 0.9 0.3 1.3 0.3 0.5 0.3 1 0.7 1.4 1.1l-0.1 0.2-1.4-0.7c-0.3-0.1-0.7-0.2-1-0.3-0.7-0.2-1.4-0.1-2.1 0.2h-0.4c-0.1-0.3 0-0.4 0.2-0.5 0.7-0.2 1.4-0.2 2.1-0.3z"></path><path fill="#4c4b47" d="m27.5 8.1c0.2 0 0.4 0 0.6 0.2-0.2 0.1-0.3 0.1-0.4-0.1 0 0.4-0.2 0.7-0.5 0.9-0.3-0.1-0.4-0.3-0.3-0.6 0.1 0.2 0.3 0.3 0.5 0.2-0.1-0.2 0-0.4 0.1-0.6z"></path><path fill="#5e5c59" d="m27.1 11.2c-0.3-0.3-0.6-0.7-0.7-1.1-0.2-0.5-0.5-0.8-0.9-1l-0.4-0.9c0.4-0.4 0.5-0.3 0.3 0.2 0.2 0.1 0.4 0.4 0.4 0.7 0.2 0 0.4-0.1 0.6-0.2l0.1 0.2c-0.2 0.1-0.2 0.2-0.2 0.4 0.2 0.2 0.4 0.4 0.5 0.7 0.1-0.2 0.3-0.2 0.4 0-0.5 0.2-0.5 0.4 0 0.6-0.1 0.1-0.1 0.2-0.1 0.4z"></path><path fill="#8f7f69" d="m21.7 9.1c-0.2 1.2-0.5 2.5-0.8 3.8h-0.2c0.2-0.4 0.2-0.7 0-1 0.2-0.1 0.3-0.2 0.3-0.4-0.2-0.6-0.1-1.1 0.3-1.5-0.2-0.2-0.2-0.3 0-0.4 0.1-0.2 0.2-0.4 0.4-0.5z"></path><path fill="#ddd6c4" d="m17.1 9.2c0.3 0.1 0.7 0.2 1 0.3v0.3c-0.5-0.2-0.9-0.3-1.4-0.3 0-0.2 0.1-0.3 0.4-0.3z"></path><path fill="#e9e3d5" d="m29.3 4.6c0.2 0.2 0.4 0.4 0.7 0.5 0.1 0 0.2-0.1 0.2-0.2 0.3 0 0.6 0.2 0.9 0.5 0.3 0.8 0.8 1.5 1.3 2.2-0.1 0.1-0.1 0.1-0.1 0.2 0.2 0.5 0.4 0.9 0.7 1.3 0.1 0.4 0.2 0.7 0.4 1.1-0.1 0.2-0.2 0.3-0.3 0.5 0.3 0.2 0.4 0.5 0.5 0.9 0.2 0.9 0.3 1.9 0.4 2.8 0.3 0 0.7 0 1.1-0.1 0.2 0 0.3 0.1 0.4 0.3h-2.9v0.5c-0.3-0.1-0.5-0.2-0.6-0.4 0.1-0.3 0.2-0.5 0.4-0.7 0.1 0.1 0.2 0.2 0.3 0.3 0.3 0.1 0.6 0.1 1 0.1v-0.5c-0.9-0.4-1-0.8-0.4-1.5-0.3-0.3-0.4-0.6-0.2-0.9-0.2-0.3-0.3-0.6-0.5-0.8 0.1-0.1 0.2-0.2 0.4-0.3-0.5-0.1-0.7-0.4-0.7-1 0.2-0.4 0.2-0.5-0.3-0.5v-0.5c-0.2 0-0.4-0.1-0.6-0.2v-0.4c-0.6 0.1-0.6-0.1-0.3-0.4-0.1-0.3-0.3-0.5-0.4-0.9-0.1-0.1-0.2-0.1-0.4-0.1-0.2-0.4-0.2-0.7-0.3-1.1-0.2 0-0.5-0.1-0.7-0.2 0.1-0.3 0-0.4-0.3-0.5 0.1 0 0.2 0 0.3 0z"></path><path fill="#d9ceb5" d="m5.4 7.4c-0.6 0-0.7 0.2-0.3 0.5l-0.5 0.2v0.4c-0.3 1.2-0.6 2.4-1.2 3.5 0.2 0.2 0.2 0.4-0.1 0.5 0 1.1 0 2.2 0.1 3.3-0.2-0.4-0.4-0.8-0.7-1.2-0.2-0.6-0.3-1.1-0.2-1.7 0.3-0.5 0.4-0.9 0.5-1.4 0.1-0.3 0.3-0.5 0.6-0.5-0.1-0.1-0.3-0.2-0.4-0.2 0-0.4 0-0.8 0-1.2 0.5-0.5 0.7-1.1 0.7-1.8h0.5c0-0.2 0.1-0.5 0.2-0.7 0.3-0.2 0.7-0.4 1-0.7 0.1-0.2 0.1-0.5 0-0.7 0.2-0.2 0.5-0.3 0.8-0.4 0.1-0.5 0.4-0.7 0.8-0.6-0.6 0.9-1.2 1.8-1.8 2.7z"></path><path fill="#94938f" d="m5.3 9.4c-0.3 0.7-0.5 1.4-0.9 2.1 0.2-0.7 0.4-1.4 0.6-2 0.1-0.1 0.2-0.1 0.3-0.1z"></path><path fill="#9f9e99" d="m10.1 11.9c-0.2-0.3-0.5-0.4-0.9-0.4 0-0.2 0-0.4-0.1-0.5 0.2-0.2 0.3-0.5 0.5-0.8 0.1 0.1 0.2 0.2 0.4 0.3 0.2-0.4 0.4-0.7 0.8-0.9 0.1 0.2 0.1 0.4-0.2 0.5 0.2 0.3 0.3 0.3 0.4 0l0.2 0.1-0.4 0.6c0.3 0.3 0.3 0.6-0.2 0.8-0.1-0.1-0.2-0.2-0.2-0.3-0.1 0.2-0.2 0.4-0.3 0.6z"></path><path fill="#40301b" d="m21.3 9.6c-0.2 0.1-0.2 0.2 0 0.4-0.4 0.4-0.5 0.9-0.3 1.5 0 0.2-0.1 0.3-0.3 0.4 0.2 0.3 0.2 0.6 0 1h-0.1c-0.6-0.5-0.8-1.1-0.6-1.9 0.4-1.2 0.7-2.5 1-3.8l0.6 1-0.3 0.4c0 0.4 0 0.7 0 1z"></path><path fill="#d0d0cc" d="m24.5 9.8c0.2 0 0.3 0.1 0.4 0.3 0.2-0.2 0.3-0.2 0.5 0l-0.3 0.2c0.1 0.2 0.1 0.3 0.1 0.5 0 0.1 0 0.2-0.2 0.2-0.5-0.3-0.6-0.7-0.5-1.2z"></path><path fill="#6a5e4c" d="m17.1 9.2c-0.3 0-0.4 0.1-0.4 0.3h-1.3v0.4c0.6 0 1.2 0 1.7 0.2-0.3-0.1-0.6 0-0.7 0.2-0.5 0-0.9 0.1-1.3 0.3 0-0.1 0-0.2-0.1-0.3-0.2 0.1-0.3 0.3-0.3 0.6h-0.7c0-0.3 0.2-0.5 0.4-0.6-0.1-0.2-0.2-0.3-0.1-0.5 0.4-0.1 0.6-0.3 0.7-0.4 0.7-0.3 1.4-0.4 2.1-0.2z"></path><path fill="#cfc5b2" d="m17.1 10.1c0.3 0 0.6 0.1 0.8 0.2v0.3l-1.5-0.3c0.1-0.2 0.4-0.3 0.7-0.2z"></path><path fill="#1a1612" d="m16.7 9.5c0.5 0 0.9 0.1 1.4 0.3 0.3 0.2 0.7 0.4 1.1 0.7 0.1 0.1 0.2 0.2 0.1 0.4-0.5-0.1-0.9-0.3-1.4-0.6-0.2-0.1-0.5-0.2-0.8-0.2-0.5-0.2-1.1-0.2-1.7-0.2v-0.4h1.3z"></path><path fill="#a2a19c" d="m25.5 9.1c0.4 0.2 0.7 0.5 0.9 1-0.5 0.1-0.6 0.4-0.2 0.7-0.2 0.2-0.3 0.5-0.1 0.8h-0.4c-0.1-0.3-0.2-0.6-0.5-0.8 0-0.2 0-0.3-0.1-0.5l0.3-0.2c-0.2-0.2-0.3-0.2-0.5 0-0.1-0.2-0.2-0.3-0.4-0.3-0.3-0.3-0.3-0.4 0.2-0.3 0.1-0.1 0.2-0.2 0.3-0.4-0.2-0.1-0.3-0.3-0.5-0.5 0.1 0 0.2 0 0.3-0.1 0.2 0.3 0.4 0.5 0.7 0.6z"></path><path fill="#575652" d="m7 9.9c0.3 0 0.7 0.1 0.9 0.4 0.2 0.1 0.2 0.3 0.2 0.5-0.7 0-1-0.3-1.1-0.9z"></path><path fill="#605f5b" d="m28.8 10.2c0.3 0 0.3 0.1 0 0.3-0.2 0.1-0.4 0.1-0.6 0.3l-0.1-0.2c0.2-0.2 0.4-0.3 0.7-0.4z"></path><path fill="#8b7b65" d="m15.1 10.6l1.6 0.3h-0.6c-0.1 0.4-0.2 0.8-0.3 1.3h-0.1c0-0.3 0-0.6-0.2-0.9-0.3 1 0 1.8 0.7 2.4l0.6 0.4c-0.1 0.1-0.1 0.2-0.3 0.2-0.4-0.2-0.8-0.3-1.2-0.3-1.5-0.6-1.9-1.6-1.3-3.1h0.7c0-0.3 0.1-0.5 0.3-0.6 0.1 0.1 0.1 0.2 0.1 0.3z"></path><path fill="#54534f" d="m29.2 10.5c0.1 0.1 0.2 0.2 0.3 0.4-0.4 0.1-0.8 0.2-1.2 0.3l-0.1-0.2c0.4 0 0.7-0.2 1-0.5z"></path><path fill="#989792" d="m30.6 8.9c0.5 0.6 0.8 1.2 0.8 2 0.5 0 0.5 0.1 0.2 0.3 0.1 0.4 0.3 0.9 0.5 1.2-0.1 0.4-0.1 0.7-0.1 1-0.3-1.5-0.8-3-1.4-4.5z"></path><path fill="#1d1915" d="m16.4 10.3l1.5 0.3c0.5 0.3 0.9 0.6 1.3 1l-0.2 0.1c-0.4-0.1-0.8-0.3-1.2-0.5h-0.3c-0.2-0.2-0.5-0.2-0.8-0.3l-1.6-0.3c0.4-0.2 0.8-0.3 1.3-0.3z"></path><path fill="#634c2e" d="m19.3 5.3c0.5 0.1 1 0.2 1.4 0.4 0 0.1-0.1 0.2-0.2 0.3 0.1 0.1 0.1 0.3 0 0.4 0.2 0.1 0.4 0.2 0.7 0.3 0 0.2 0.1 0.2 0.2 0 0 0.3 0.1 0.5 0.3 0.7 0.1 0.4 0.2 0.8 0.2 1.2-0.1 0.2-0.2 0.3-0.2 0.5-0.2 0.1-0.3 0.3-0.4 0.5 0-0.3 0-0.6 0-1l0.3-0.4-0.6-1c-0.3 1.3-0.6 2.6-1 3.8-0.2 0.8 0 1.4 0.6 1.9 0 0.3-0.1 0.5-0.3 0.8-0.4-0.2-0.7-0.4-0.9-0.8l-0.1 0.2-1.4-0.8-0.2 0.1c0-0.4 0.1-0.8 0.1-1.2 0.4 0.2 0.8 0.4 1.2 0.5l0.2-0.1c-0.4-0.4-0.8-0.7-1.3-1v-0.3c0.5 0.3 0.9 0.5 1.4 0.6 0.1-0.2 0-0.3-0.1-0.4-0.4-0.3-0.8-0.5-1.1-0.7v-0.3l1.4 0.7 0.1-0.2c-0.4-0.4-0.9-0.8-1.4-1.1 0.1 0 0.2 0 0.2-0.1 0.4 0.2 0.9 0.4 1.4 0.6 0-0.2-0.1-0.4-0.2-0.5-0.4-0.3-0.9-0.6-1.4-0.8 0.2 0 0.2 0 0.3-0.2 0.5 0.2 0.9 0.5 1.3 0.7 0.1-0.1 0.2-0.2 0.2-0.3-0.4-0.3-0.9-0.6-1.4-0.9v-0.3c0.5 0.3 0.9 0.5 1.4 0.8 0.1-0.1 0.1-0.3 0-0.5-0.5-0.3-1-0.6-1.5-0.9 0.1 0.1 0.2 0 0.3-0.1 0.5 0.1 0.9 0.4 1.3 0.7 0.2 0 0.3-0.1 0.4-0.2-0.6-0.3-1.1-0.7-1.6-1.1 0.1 0 0.2 0 0.2-0.1 0.4 0.2 0.8 0.4 1.2 0.7 0-0.1 0-0.3 0-0.4-0.3-0.3-0.6-0.5-1-0.7z"></path><path fill="#dcd7ce" d="m16.7 10.9c0.3 0.1 0.6 0.1 0.8 0.3 0 0.6-0.2 1-0.7 1.2 0-0.3-0.2-0.7-0.4-0.9-0.3 0.1-0.5 0.3-0.6 0.7 0.1-0.5 0.2-0.9 0.3-1.3h0.6z"></path><path fill="#5e5d59" d="m6.5 10.9c0.4 0.1 0.7 0.2 1 0.3 0.1-0.1 0.2-0.2 0.2-0.3 0.1 0.2 0.1 0.5 0 0.7-0.5 0.2-1 0-1.3-0.4 0-0.1 0.1-0.2 0.1-0.3z"></path><path fill="#18140f" d="m16.4 11.5c0.2 0.2 0.4 0.6 0.4 0.9 0.1 0.5 0.3 0.8 0.7 1 0 0.2-0.1 0.2-0.3 0.1l-0.9-0.9c-0.1-0.4-0.1-0.8 0.1-1.1z"></path><path fill="#9e9d98" d="m10.1 11.9v0.5c-0.4 0.1-0.7 0.1-1 0 0.2-0.1 0.3-0.4 0.3-0.7 0.2 0.1 0.4 0.1 0.7 0.2z"></path><path fill="#3b352b" d="m14.3 11.5c0.1 0.5 0.2 1.2 0.2 1.8-0.3-0.6-0.4-1.2-0.2-1.8z"></path><path fill="#8c8b87" d="m27.1 11.2c0.2 0 0.4 0.1 0.7 0.1-0.6 0.2-0.6 0.4 0 0.6 0 0.1-0.1 0.1-0.2 0.1 0-0.2-0.1-0.2-0.2 0 0 0.2 0.1 0.3 0.1 0.4-0.1 0.1-0.2 0.2-0.2 0.3-0.1-0.1-0.1-0.1-0.2-0.1v-1.4z"></path><path fill="#363432" d="m27.6 12c0.1 0.2 0.3 0.3 0.5 0.4-0.1 0.2-0.2 0.2-0.3 0.2h-0.3v-0.2c0-0.1-0.1-0.2-0.1-0.4 0.1-0.2 0.2-0.2 0.2 0z"></path><path fill="#8b8882" d="m4.4 11.5l-0.3 2.1c-0.1 0.3-0.1 0.6-0.1 1 0 0.1 0 0.2-0.1 0.2 0-0.3-0.1-0.6-0.3-0.9 0.4-0.4 0.5-0.9 0.3-1.5 0.2-0.3 0.4-0.6 0.5-0.9z"></path><path fill="#878681" d="m26.2 12.2c-0.1 0.1-0.2 0.3-0.3 0.5 0.4 0.5 0.5 0.9 0.3 1.4-0.2-0.7-0.4-1.3-0.7-2 0.3 0 0.5 0.1 0.7 0.1z"></path><path fill="#b8b7b4" d="m27.1 12.6c-0.1 0.4-0.3 0.6-0.7 0.7 0-0.3-0.2-0.5-0.5-0.6 0.1-0.2 0.2-0.4 0.3-0.5 0.2-0.2 0.4-0.3 0.6-0.3-0.1 0.3 0 0.5 0.3 0.7z"></path><path fill="#9a8463" d="m17.5 11.2h0.3c0 0.4-0.1 0.8-0.1 1.2l0.2-0.1 1.4 0.8 0.1-0.2c0.2 0.4 0.5 0.6 0.9 0.8 0.2-0.3 0.3-0.5 0.3-0.8h0.1c0 1.5-0.7 1.9-2.1 1.2-0.1 0-0.2 0.1-0.2 0.2v0.5c-0.3-0.2-0.7-0.3-1-0.4-0.1-0.1-0.2-0.1-0.2-0.3 0.2 0 0.2-0.1 0-0.2 0.3-0.1 0.6-0.1 0.8 0.1 0.1-0.4 0-0.6-0.5-0.6-0.4-0.2-0.6-0.5-0.7-1 0.5-0.2 0.7-0.6 0.7-1.2z"></path><path fill="#5e5d58" d="m8.5 12.3l-0.1 1.1c-0.2-0.4-0.2-0.7 0.1-1.1z"></path><path fill="#1f1b16" d="m15.7 12.2c0 0.6 0.2 1 0.7 1.4 0 0.1-0.1 0.1-0.2 0.1-0.7-0.6-1-1.4-0.7-2.4 0.2 0.3 0.2 0.6 0.2 0.9z"></path><path fill="#332c24" d="m14.8 11.3c0.1 0.8 0.3 1.6 0.7 2.3l-0.1 0.1c-0.2-0.2-0.4-0.4-0.5-0.7-0.1-0.6-0.1-1.1-0.1-1.7z"></path><path fill="#3e3c38" d="m29.3 13c0.9 0 0.9 0.1 0 0.3l-0.4-0.1c0.2 0 0.3-0.1 0.4-0.2z"></path><path fill="#796548" d="m16.4 11.5c-0.2 0.3-0.2 0.7-0.1 1.1l0.9 0.9c0.2 0.1 0.3 0.1 0.3-0.1 0.5 0 0.6 0.2 0.5 0.6-0.2-0.2-0.5-0.2-0.8-0.1 0.2 0.1 0.2 0.2 0 0.2h-0.4l-0.6-0.4c0.1 0 0.2 0 0.2-0.1-0.5-0.4-0.7-0.8-0.7-1.4h0.1c0.1-0.4 0.3-0.6 0.6-0.7z"></path><path fill="#6a6a66" d="m27.5 12.6h0.3c0 0.3 0.1 0.6 0.1 1 0.2-0.1 0.4 0 0.6 0-0.3 0.3-0.5 0.6-0.7 0.8 0-0.6-0.1-1.2-0.3-1.8z"></path><path fill="#595854" d="m29.7 13.6c0.1-0.2 0.3-0.2 0.5-0.1 0.2 0.1 0.2 0.3 0 0.4-0.4 0.1-0.7 0.1-1 0.2-0.3-0.1-0.3-0.3-0.2-0.5 0.2 0.3 0.4 0.3 0.5 0 0.1 0.2 0.3 0.3 0.5 0.1 0-0.1-0.1-0.1-0.3-0.1z"></path><path fill="#cac4b6" d="m6.5 13.6c-0.1 0-0.3 0.1-0.4 0.3 0-0.2-0.1-0.3-0.1-0.5-0.2 0.2-0.2 0.4 0 0.7 0.4 0.1 0.7 0 1.1-0.1v1c-0.2 0-0.4-0.1-0.4-0.3 0.1 0 0.1 0.1 0.2 0.1 0.1-0.2 0.1-0.3 0-0.5-0.2 0.2-0.5 0.3-0.8 0.4 0.1 0.1 0.2 0.1 0.3 0-0.1 0.2-0.4 0.3-0.7 0.3-0.2-0.6-0.3-1.1-0.3-1.7 0.3 0 0.7 0 1 0.1 0.1 0 0.1 0.1 0.1 0.2z"></path><path fill="#6d6150" d="m6.5 13.6c0.4-0.1 0.6 0.1 0.6 0.4-0.4 0.1-0.7 0.2-1.1 0.1-0.2-0.3-0.2-0.5 0-0.7 0 0.2 0.1 0.3 0.1 0.5 0.1-0.2 0.3-0.3 0.4-0.3z"></path><path fill="#858480" d="m32 13.4c0.1 0.2 0.3 0.4 0.4 0.6-0.2 0.2-0.3 0.4-0.4 0.7v-1.3z"></path><path fill="#65645f" d="m8.2 13.9v0.5c-0.2 0.1-0.4 0.2-0.7 0.2 0.4-0.2 0.7-0.5 0.7-1 0 0.1 0 0.1 0 0.3z"></path><path fill="#e3dfd5" d="m24.8 14.4c-2.1 0.2-4.2 0.2-6.3 0 0-0.1-0.1-0.1-0.1-0.1 0-0.1 0.1-0.2 0.2-0.2 1.4 0.7 2.1 0.3 2.1-1.2h0.2c-0.1 0.6 0.1 0.7 0.5 0.2 0-0.5 0.2-0.5 0.5-0.1 0.1 0.5 0 0.9-0.3 1.3 1.1 0.1 2.1 0.2 3.2 0.1z"></path><path fill="#474541" d="m6.7 14.7h-0.3c-0.1 0.1-0.2 0.1-0.3 0 0.3-0.1 0.6-0.2 0.8-0.4 0.1 0.2 0.1 0.3 0 0.5-0.1 0-0.1-0.1-0.2-0.1z"></path><path fill="#d2cdcb" d="m15.3 14c0.4 0 0.8 0.1 1.2 0.3 0.2 0 0.2-0.1 0.3-0.2h0.4c0 0.2 0.1 0.2 0.2 0.3 0.3 0.1 0.7 0.2 1 0.4v1.6c-0.3-0.4-0.4-0.9-0.5-1.4-0.1-0.1-0.1-0.1-0.2-0.2 0 0.5-0.1 1-0.2 1.4 0-0.5 0-1-0.1-1.5 0 0.2-0.1 0.3-0.2 0.4l-0.7-0.3c-0.9-0.1-1.9-0.1-2.8 0-0.2 0.1-0.4 0.2-0.6 0.2-0.4-0.2-0.9-0.3-1.4-0.3v0.4c0.3 0 0.5 0.1 0.6 0.3-0.3-0.1-0.5-0.2-0.8-0.3-0.1-0.2 0-0.5 0.2-0.6l4.3-0.2c-0.3-0.1-0.5-0.2-0.7-0.3z"></path><path fill="#cac2c0" d="m25.8 14.3c-0.1 0.3-0.2 0.7-0.2 1.1-0.3-0.3-0.6-0.5-1.1-0.6-0.6-0.1-1.3-0.1-1.9 0-0.4 0.8-0.7 0.8-1 0-0.7-0.1-1.4-0.1-2.1 0-0.4 0.1-0.7 0.3-0.9 0.6-0.1-0.3-0.1-0.7-0.1-1 2.1 0.2 4.2 0.2 6.3 0 0.3 0 0.6-0.1 0.9-0.3 0 0.1 0.1 0.1 0.1 0.2z"></path><path fill="#77746e" d="m18.4 14.3c0 0 0.1 0 0.1 0.1 0 0.3 0 0.7 0.1 1 0.2-0.3 0.5-0.5 0.9-0.6 0.7-0.1 1.4-0.1 2.1 0-0.6 0.3-1.3 0.4-2 0.5-0.4-0.1-0.6 0.1-0.7 0.5-0.1 0.2-0.2 0.4-0.1 0.6h-0.4v-2.1z"></path><path fill="#ded5c0" d="m4.1 13.6c0.4 0.3 0.8 0.6 1.2 0.8 0.3 0.4 0.3 0.8 0.1 1.3 0 0.2-0.2 0.4-0.4 0.4-0.4-0.5-0.7-1-1-1.5 0-0.4 0-0.7 0.1-1z"></path><path fill="#bcb1b0" d="m8.2 14.4c0.5 0.2 0.9 0.2 1.4 0.2-0.1 0.2-0.3 0.3-0.5 0.5 0 0.3-0.1 0.6 0 0.9-0.4 0.2-0.7 0.1-1-0.2-0.2 0.2-0.4 0.3-0.6 0.3 0.2-0.5 0.3-0.9 0.4-1.4-0.1 0-0.3 0-0.4-0.1 0.3 0 0.5-0.1 0.7-0.2z"></path><path fill="#9c948f" d="m13.7 14.8c0 0.1 0.1 0.2 0.2 0.2 0.9 0.1 1.8 0.1 2.6 0.3h-2.6c-0.1 1 0 2 0.1 3.1h2.4c-0.9 0.1-1.8 0.1-2.7 0.1 0.1-0.9 0.1-1.4-0.1-1.4h-0.7c0-0.5 0-1-0.1-1.6-0.1 1-0.1 1.9-0.1 2.9 0.1 1.1 0 2.3-0.1 3.5 0-2.1 0-4.2-0.2-6.2 0.1-0.2 0-0.3-0.1-0.3-0.1-0.2-0.3-0.3-0.6-0.3v-0.4c0.5 0 1 0.1 1.4 0.3 0.2 0 0.4-0.1 0.6-0.2z"></path><path fill="#b8b6b0" d="m25.8 14.3c0.2 0.1 0.3 0.3 0.3 0.5-0.1 0.5-0.1 0.9-0.2 1.3-0.1-0.6-0.1-1.2-0.1-1.8z"></path><path fill="#bbb0af" d="m33 14.6h1.9c-0.3 0.3-0.5 0.6-0.5 1.1-0.2 0.2-0.4 0.3-0.7 0.3 0-0.6-0.3-1.1-0.7-1.4z"></path><path fill="#827975" d="m25.8 14.3c0 0.6 0 1.2 0.1 1.8 0 0.2-0.1 0.3-0.4 0.3 0.1-0.5-0.1-0.8-0.5-1-0.8-0.1-1.5-0.2-2.3-0.1v6.7c-0.1-1.3-0.2-2.6-0.1-3.9 0-0.3 0-0.5-0.1-0.7 0 0.1-0.1 0.3-0.2 0.4-0.3-0.1-0.5-0.2-0.7-0.4-0.1-0.8 0-1.2 0.1-1.3h0.7c0.1-0.4 0.1-0.8 0.2-1.3 0.6-0.1 1.3-0.1 1.9 0 0.5 0.1 0.8 0.3 1.1 0.6 0-0.4 0.1-0.8 0.2-1.1z"></path><path fill="#b1a4a3" d="m1.1 14.6h1.6c0.3 0.4 0.5 0.8 0.7 1.2l0.3 0.9c-0.3-0.1-0.7-0.2-1.1-0.3-0.1-0.4-0.3-0.6-0.6-0.4l-0.2-0.9c-0.3-0.2-0.5-0.3-0.7-0.5z"></path><path fill="#727069" d="m17.5 16.2h-0.4c0-0.2-0.1-0.5-0.3-0.7 0-0.1-0.1-0.2-0.3-0.2-0.8-0.2-1.7-0.2-2.6-0.3-0.1 0-0.2-0.1-0.2-0.2 0.9-0.1 1.9-0.1 2.8 0l0.7 0.3c0.1-0.1 0.2-0.2 0.2-0.4 0.1 0.5 0.1 1 0.1 1.5z"></path><path fill="#99938e" d="m21.6 14.8c0.3 0.8 0.6 0.8 1 0-0.1 0.5-0.1 0.9-0.2 1.3h-0.7c-0.1 0.1-0.2 0.5-0.1 1.3v1.1c0 1.2 0 2.4-0.2 3.5v-6.7h-1.8c0.7-0.1 1.4-0.2 2-0.5z"></path><path fill="#7f7670" d="m1.1 14.6c0.2 0.2 0.4 0.3 0.7 0.5l0.2 0.9c0.3-0.2 0.5 0 0.6 0.4 0.4 0.1 0.8 0.2 1.1 0.3l0.6 1.4c-0.5-0.1-0.8-0.2-1.2-0.5 0 0.7 0.2 1.2 0.6 1.7 0.4 1.2 0.8 2.4 1.4 3.4 0.5-0.9 0.9-1.8 1.3-2.8 0.4-0.9 0.8-1.8 1.1-2.7-0.1-0.1-0.2-0.1-0.4-0.1 0.1-0.4 0.2-0.7 0.4-1 0.2 0 0.4-0.1 0.6-0.3 0.3 0.3 0.6 0.4 1 0.2v1.1h-0.7c0-0.3 0-0.5-0.1-0.7-0.1 0.5-0.1 1.1-0.1 1.7-0.1-0.3-0.2-0.7-0.3-1 0 0-0.1 0.1-0.1 0.1-0.6 1.3-1.2 2.6-1.6 4-0.3 0.7-0.7 1.3-1.1 1.9-1.1-1.9-2-4-2.6-6.2-0.2-0.1-0.3-0.3-0.4-0.5 0 0.9-0.1 1.9-0.2 2.8 0-0.3 0-0.7-0.1-1-0.1 0.1-0.2 0.2-0.3 0.3 0-0.8 0.1-1.7 0.3-2.5-0.1-0.2-0.2-0.4-0.3-0.5-0.3-0.2-0.6-0.4-0.9-0.7 0.1-0.2 0.2-0.3 0.5-0.2z"></path><path fill="#d0d0ce" d="m16.5 15.3c0.2 0 0.3 0.1 0.3 0.2-0.9-0.1-1.9-0.1-2.8-0.1v3c-0.1-1.1-0.2-2.1-0.1-3.1h2.6z"></path><path fill="#cfcecc" d="m29.3 15.3c-0.1 2-0.2 4-0.1 6-0.2-0.1-0.2-0.3-0.2-0.6 0-1.7 0-3.5 0.1-5.3 0.1-0.1 0.1-0.1 0.2-0.1z"></path><path fill="#d0d0ce" d="m25 15.4h-2.1v6.9c-0.2-0.1-0.2-0.2-0.2-0.3v-6.7c0.8-0.1 1.5 0 2.3 0.1z"></path><path fill="#8a8078" d="m33 14.6c0.4 0.3 0.7 0.8 0.7 1.4 0.3 0 0.5-0.1 0.7-0.3 0.1 0.5 0.2 1.1 0.1 1.7-0.2 0.5-0.5 0.5-0.9 0-0.1 0.4-0.1 0.8-0.1 1.2 0.1 0.9 0 1.7-0.1 2.4 0-1.1 0-2.1-0.1-3.2 0-0.8 0-1.6-0.1-2.4-0.2-0.2-0.4-0.3-0.6-0.3v-0.5h0.4z"></path><path fill="#d5d4d3" d="m19.6 15.3h1.8v6.7c0.1 0.1 0 0.2-0.1 0.3v-6.9c-0.7 0-1.3 0-2 0.1-0.1 0.1-0.2 0.2-0.4 0.3 0.1-0.4 0.3-0.6 0.7-0.5z"></path><path fill="#c9c8c5" d="m1.5 15.5c0.1 0.1 0.2 0.3 0.3 0.5-0.2 0.8-0.3 1.7-0.3 2.5l-0.2 2c0.1 0.6-0.1 1.1-0.4 1.6 0.3-2.1 0.4-4.4 0.6-6.6z"></path><path fill="#786966" d="m9.6 14.6h0.6v0.5c-0.3 0-0.5 0.1-0.7 0.3-0.2 0.1-0.3 0.4-0.3 0.6 0.1 0.7 0.2 1.4 0.2 2.1-0.4 0-0.7 0-1-0.2 0 0.4-0.1 0.9 0 1.3-0.2-0.3-0.2-0.7-0.2-1.1 0-0.6 0-1.2 0.1-1.7 0.1 0.2 0.1 0.4 0.1 0.7h0.7v-1.1c-0.1-0.3 0-0.6 0-0.9 0.2-0.2 0.4-0.3 0.5-0.5z"></path><path fill="#939088" d="m34.9 14.6h0.6v0.5c-0.5 0-0.7 0.2-0.8 0.7 0 2-0.1 4.1 0 6.1-0.2-1.2-0.2-2.4-0.2-3.7v-0.8c0.1-0.6 0-1.2-0.1-1.7 0-0.5 0.2-0.8 0.5-1.1z"></path><path fill="#cbc9c6" d="m9.5 15.4c0.1 2.3 0.2 4.5 0.4 6.7-0.1 0-0.2-0.1-0.2-0.2-0.1-0.8-0.2-1.5-0.2-2.3 0-0.5-0.1-1-0.1-1.5 0-0.7-0.1-1.4-0.2-2.1 0-0.2 0.1-0.5 0.3-0.6z"></path><path fill="#6c5352" d="m21.6 17.4c0.2 0.2 0.4 0.3 0.7 0.4 0.1-0.1 0.2-0.3 0.2-0.4 0.1 0.2 0.1 0.4 0.1 0.7-0.2 0.2-0.2 0.4-0.2 0.7-0.3 0-0.6-0.1-0.8-0.3v-1.1z"></path><path fill="#634f4c" d="m16.4 18.4c0.3-0.3 0.5-0.6 0.5-1 0.1 0 0.2 0 0.2 0.1 0 0.8 0 1.6-0.2 2.4 0-0.3-0.2-0.6-0.5-0.7-0.9-0.1-1.8-0.2-2.7-0.4-0.1 0.1-0.2 0.2-0.1 0.4h-0.7c0-0.3 0-0.6-0.2-0.8 0-1 0-1.9 0.1-2.9 0.1 0.6 0.1 1.1 0.1 1.6h0.7c0.2 0 0.2 0.5 0.1 1.4 0.9 0 1.8 0 2.7-0.1z"></path><path fill="#654a49" d="m34.5 17.4v0.8c-0.1 0.3-0.2 0.6-0.1 1h-0.7c0-0.2 0-0.4-0.2-0.6 0-0.4 0-0.8 0.1-1.2 0.4 0.5 0.7 0.5 0.9 0z"></path><path fill="#5e4946" d="m7.1 17.1c0.2 0 0.3 0 0.4 0.1-0.3 0.9-0.7 1.8-1.1 2.7 0-0.2-0.1-0.3-0.3-0.3 0.3-0.8 0.6-1.7 1-2.5z"></path><path fill="#847d78" d="m26.9 14.6h0.5c0.4 0.2 0.7 0.7 0.7 1.2h0.7c0-0.5 0.2-0.9 0.5-1.2h0.6v0.4c-0.3-0.1-0.5 0-0.6 0.3-0.1 0-0.1 0-0.2 0.1-0.1 1.8-0.1 3.6-0.1 5.3-0.1-0.8-0.1-1.6-0.1-2.5 0-0.7 0-1.4-0.1-2.1 0 0.3-0.1 0.7 0 1h-0.7c0-0.3 0-0.7-0.1-1-0.1 0.7-0.1 1.3-0.1 2 0 1 0 2 0.1 3.1 0.2 0.6 0.6 1.1 1.2 1.4 0 0.2 0.1 0.4 0.3 0.5-0.8-0.3-1.3-0.9-1.7-1.7l-0.1-5.9c0-0.1-0.1-0.2-0.2-0.3-0.2-0.1-0.4-0.1-0.6-0.2-0.1-0.2-0.1-0.3 0-0.4z"></path><path fill="#745d5c" d="m28.9 18.2c-0.2 0.2-0.5 0.3-0.8 0.3 0-0.2-0.1-0.3-0.2-0.4 0-0.7 0-1.3 0.1-2 0.1 0.3 0.1 0.7 0.1 1h0.7c-0.1-0.3 0-0.7 0-1 0.1 0.7 0.1 1.4 0.1 2.1z"></path><path fill="#bdb2b1" d="m27.4 14.6h1.9c-0.3 0.3-0.5 0.7-0.5 1.2h-0.7c0-0.5-0.3-1-0.7-1.2z"></path><path fill="#614746" d="m4.3 18.1c0.2 0.4 0.4 0.9 0.6 1.4-0.4 0-0.8-0.1-1.2-0.2-0.4-0.5-0.6-1-0.6-1.7 0.4 0.3 0.7 0.4 1.2 0.5z"></path><path fill="#cacac6" d="m7.8 17.2c0 0 0.1-0.1 0.1-0.1 0.1 0.3 0.2 0.7 0.3 1 0 0.4 0 0.8 0.2 1.1-0.1 0.3 0 0.6 0.1 0.8 0 0.7 0 1.4-0.1 2 0 0.1-0.1 0.2-0.2 0.3 0.1-1.7 0-3.4-0.4-5.1z"></path><path fill="#5a403f" d="m9.4 18.1c0 0.5 0.1 1 0.1 1.5-0.3 0-0.6 0-0.9-0.1-0.1 0.2-0.1 0.3-0.1 0.5-0.1-0.2-0.2-0.5-0.1-0.8-0.1-0.4 0-0.9 0-1.3 0.3 0.2 0.6 0.2 1 0.2z"></path><path fill="#cbcac8" d="m12.4 15.7c0.2 2 0.2 4.1 0.2 6.2 0 0.2-0.1 0.4-0.3 0.5 0.1-2.2 0.2-4.5 0.1-6.7z"></path><path fill="#c1bcb2" d="m33.3 17.8c0.1 1.1 0.1 2.1 0.1 3.2 0 0.2 0 0.3-0.1 0.3 0-0.8 0-1.7-0.1-2.5-0.3-0.4-0.3-0.7 0.1-1z"></path><path fill="#563d3b" d="m1.9 19.2c0 0.2 0 0.4-0.1 0.6-0.2 0.2-0.4 0.4-0.5 0.7l0.2-2c0.1-0.1 0.2-0.2 0.3-0.3 0.1 0.3 0.1 0.7 0.1 1z"></path><path fill="#b5b3af" d="m2.5 16.9c-0.3 1.5-0.5 2.9-0.7 4.4v-1.5c0.1-0.2 0.1-0.4 0.1-0.6 0.1-0.9 0.2-1.9 0.2-2.8 0.1 0.2 0.2 0.4 0.4 0.5z"></path><path fill="#8e8982" d="m13.7 18.8c0.9 0.2 1.8 0.3 2.7 0.4h-2.5v2.7c-0.2-1-0.2-2.1-0.2-3.1z"></path><path fill="#412120" d="m3.7 19.3c0.4 0.1 0.8 0.2 1.2 0.2 0.1 0.5 0.3 0.9 0.6 1.4l0.6-1.3c0.2 0 0.3 0.1 0.3 0.3-0.4 1-0.8 1.9-1.3 2.8-0.6-1-1-2.2-1.4-3.4z"></path><path fill="#dfd7c6" d="m17.1 17.5c0.2 0.7 0.4 1.4 0.3 2.3 0.5-0.5 1.1-0.7 1.8-0.5 0.1 0.1 0.2 0.2 0.3 0.3-0.2 0.2-0.4 0.5-0.5 0.7 0 0.5-0.1 1-0.3 1.4-0.1 0.1-0.3 0.2-0.5 0.3-0.2-0.6-0.5-1.2-0.8-1.8-0.3-0.2-0.5-0.2-0.7-0.2-0.1-0.3-0.2-0.5-0.3-0.8 0.3 0.1 0.5 0.4 0.5 0.7 0.2-0.8 0.2-1.6 0.2-2.4z"></path><path fill="#401f1e" d="m9.5 19.6c0 0.8 0.1 1.5 0.2 2.3 0 0.1 0.1 0.2 0.2 0.2 0.1 0.4 0.4 0.5 0.7 0.5-0.9 0.2-1.9 0.2-2.8 0 0.2 0 0.4-0.1 0.4-0.3 0.1-0.1 0.2-0.2 0.2-0.3 0.1-0.6 0.1-1.3 0.1-2 0-0.2 0-0.3 0.1-0.5 0.3 0.1 0.6 0.1 0.9 0.1z"></path><path fill="#40201f" d="m12.7 18.4c0.2 0.2 0.2 0.5 0.2 0.8h0.7c-0.1-0.2 0-0.3 0.1-0.4 0 1 0 2.1 0.2 3.1 0 0.5 0.3 0.7 0.8 0.7v0.1c-1 0.1-1.9 0-2.8-0.1 0.1 0 0.3-0.1 0.4-0.2 0.2-0.1 0.3-0.3 0.3-0.5 0.1-1.2 0.2-2.4 0.1-3.5z"></path><path fill="#422020" d="m22.6 18.1c-0.1 1.3 0 2.6 0.1 3.9 0 0.1 0 0.2 0.2 0.3 0.2 0.2 0.4 0.3 0.7 0.4h-3c0.3-0.1 0.5-0.2 0.7-0.4 0.1-0.1 0.2-0.2 0.1-0.3 0.2-1.1 0.2-2.3 0.2-3.5 0.2 0.2 0.5 0.3 0.8 0.3 0-0.3 0-0.5 0.2-0.7z"></path><path fill="#422222" d="m27.9 18.1c0.1 0.1 0.2 0.2 0.2 0.4 0.3 0 0.6-0.1 0.8-0.3 0 0.9 0 1.7 0.1 2.5 0 0.3 0 0.5 0.2 0.6l0.1 0.3c0.2 0.3 0.4 0.5 0.7 0.7 0 0.1 0.1 0.1 0.2 0.2 0.5 0 1 0.1 1.5 0.2-0.9 0.4-1.7 0.3-2.5-0.1-0.6-0.3-1-0.8-1.2-1.4-0.1-1.1-0.1-2.1-0.1-3.1z"></path><path fill="#412020" d="m34.5 18.2c0 1.3 0 2.5 0.2 3.7 0 0.3 0.1 0.5 0.4 0.7-0.5 0.1-1 0.2-1.6 0.1 0.1-0.3 0-0.7-0.1-1-0.3 0.3-0.7 0.6-1.1 0.9 0-0.2 0-0.3 0.1-0.5 0.3-0.2 0.6-0.5 0.9-0.8 0.1 0 0.1-0.1 0.1-0.3 0.1-0.7 0.2-1.5 0.1-2.4 0.2 0.2 0.2 0.4 0.2 0.6h0.7c-0.1-0.4 0-0.7 0.1-1z"></path><path fill="#f4f1eb" d="m32.6 15.1c0.2 0 0.4 0.1 0.6 0.3 0.1 0.8 0.1 1.6 0.1 2.4-0.4 0.3-0.4 0.6-0.1 1 0.1 0.8 0.1 1.7 0.1 2.5-0.3 0.3-0.6 0.6-0.9 0.8-0.8 0.3-1.6 0.4-2.4 0.2-0.3-0.2-0.5-0.4-0.7-0.7 0.2 0 0.4 0 0.5 0.1 0.1-0.2 0.2-0.4 0.4-0.5-0.1-0.5 0-0.9 0.1-1.3 0.3-0.2 0.6-0.4 0.8-0.7 0.3-0.1 0.5-0.2 0.8-0.1-0.1-0.3 0-0.5 0-0.7 0.4 0.3 0.4 0.2 0.2-0.3-0.1 0.1-0.2 0.1-0.4 0 0.2-0.2 0.5-0.5 0.9-0.8-0.2-0.1-0.4-0.1-0.5 0.1-0.2-0.2-0.3-0.5-0.4-0.7 0.2-0.1 0.2-0.3 0-0.5 0.1-0.6 0.3-0.6 0.5-0.1 0.1-0.1 0.3-0.2 0.5-0.1 0-0.3 0-0.6-0.1-0.9z"></path><path fill="#ccbf9e" d="m32.8 19.1c0.1 0 0.2 0 0.2 0.1-0.2 0.8-0.4 1.5-0.7 2.2-0.4 0.2-0.7 0.1-0.9-0.4 0.1-0.2 0.2-0.4 0.2-0.7 0.4-0.5 0.8-0.9 1.2-1.2z"></path><path fill="#412120" d="m1.8 19.8v1.5c-0.1 0.7 0.3 1.1 0.9 1.3-0.8 0.2-1.6 0.2-2.3 0 0.2-0.1 0.4-0.2 0.5-0.5 0.3-0.5 0.5-1 0.4-1.6 0.1-0.3 0.3-0.5 0.5-0.7z"></path><path fill="#4f4c49" d="m20.6 22.7h3v0.4h-3v-0.4z"></path><path fill="#625f5b" d="m0.4 22.6c0.7 0.2 1.5 0.2 2.3 0 0.2 0.1 0.2 0.3 0.2 0.5h-2.7c0-0.2 0-0.4 0.2-0.5z"></path><path fill="#635f5b" d="m7.8 22.6c0.9 0.2 1.9 0.2 2.8 0 0.1 0.1 0.2 0.3 0.2 0.5h-3.1c-0.1-0.2 0-0.4 0.1-0.5z"></path><path fill="#cbcbc9" d="m20.6 22.7v0.4h3c-1.1 0.2-2.2 0.2-3.3 0.2 0-0.3 0.1-0.5 0.3-0.6z"></path><path fill="#59524c" d="m35.1 22.6h0.4v0.5h-2.1c0-0.3 0-0.5-0.1-0.8-0.3 0.1-0.5 0.3-0.7 0.6-1 0.4-2.1 0.5-3.1 0.2-0.2-0.1-0.3-0.3-0.3-0.5 0.8 0.4 1.6 0.5 2.5 0.1-0.5-0.1-1-0.2-1.5-0.2-0.1-0.1-0.2-0.1-0.2-0.2 0.8 0.2 1.6 0.1 2.4-0.2-0.1 0.2-0.1 0.3-0.1 0.5 0.4-0.3 0.8-0.6 1.1-0.9 0.1 0.3 0.2 0.7 0.1 1 0.6 0.1 1.1 0 1.6-0.1z"></path><path fill="#d1c8b4" d="m16 22.3c0.1 0.1 0.1 0.2-0.1 0.3-0.3-0.2-0.5-0.1-0.6 0.2 0.2 0 0.3 0.1 0.4 0.3-0.3 0.2-0.5 0.4-0.9 0.4-0.2 0.1-0.2 0.3 0 0.4-0.5 0.1-1 0.1-1.5 0.1 0-0.2 0.2-0.3 0.4-0.3v-0.4h-2.1c0-0.3 0-0.5 0.1-0.7v0.5h3v-0.5c0.1 0 0.2 0.1 0.2 0.3 0.2-0.5 0.6-0.6 1.1-0.6z"></path><path fill="#4f4c48" d="m11.7 22.6h0.2c0.9 0.1 1.8 0.2 2.8 0.1v0.4h-3v-0.5z"></path><path fill="#e7e0d0" d="m16 22.3c0-0.1 0-0.1 0.1-0.2 0.1 0.3 0.3 0.5 0.6 0.7 0.4 0 0.9 0 1.3 0.1 0.2 0.6 0 0.9-0.6 0.9v-0.4c-0.2 0-0.3 0-0.5 0.2 0.2 0.1 0.2 0.3 0.2 0.5-1.3 0.1-2.6 0-3.8-0.1 0.5 0 1 0 1.5-0.1-0.2-0.1-0.2-0.3 0-0.4 0.4 0 0.6-0.2 0.9-0.4-0.1-0.2-0.2-0.3-0.4-0.3 0.1-0.3 0.3-0.4 0.6-0.2 0.2-0.1 0.2-0.2 0.1-0.3z"></path><path fill="#c4b9a1" d="m32.6 22.9c-0.6 0.3-1.2 0.7-1.7 1-0.5 0.1-1 0.1-1.4-0.1 0.1-0.2 0.1-0.4 0-0.7 1 0.3 2.1 0.2 3.1-0.2z"></path><path fill="#8d837b" d="m26.5 24.4c0.2 0.1 0.2 0.1 0.1 0.3-0.2-0.1-0.3-0.2-0.5-0.2-0.1 0.5 0 0.9 0.1 1.4-0.1 0.1-0.3 0.1-0.4-0.1 0.1-0.3 0.2-0.7 0.1-1.1-0.2 0-0.3 0-0.5-0.2 0.3-0.1 0.7-0.1 1.1-0.1z"></path><path fill="#908475" d="m21.9 25.7l-0.3-0.3c0.1-0.3 0.2-0.6 0.4-0.9 1.3-0.2 1.6 0.2 1 1.4-0.4 0.1-0.8 0-1.1-0.2z"></path><path fill="#8b7e7b" d="m8.9 24.4c0.3 0.4 0.4 0.9 0.5 1.5-0.2 0.1-0.4 0.1-0.6 0 0.1-0.5 0.2-1 0.1-1.5z"></path><path fill="#9c9491" d="m12.2 24.4c0.4 0 0.9 0 1.4 0.1-0.2 0.2-0.4 0.2-0.6 0.2 0 0.4 0 0.8 0.1 1.2-0.1 0.1-0.3 0.1-0.5 0 0.1-0.4 0.2-0.8 0.1-1.2-0.3 0-0.4-0.1-0.5-0.3z"></path><path fill="#9a928f" d="m13.7 24.4c0.8-0.2 1.1 0.1 0.9 0.8l0.4 0.6-0.2 0.1c-0.1-0.2-0.3-0.4-0.5-0.5-0.2 0.2-0.2 0.3-0.2 0.5-0.1 0.1-0.3 0-0.4 0 0.2-0.5 0.2-1 0-1.5z"></path><path fill="#f6f6f5" d="m14.1 24.5c0.5 0.2 0.5 0.4 0.2 0.6-0.2-0.2-0.2-0.4-0.2-0.6z"></path><path fill="#8b7e7c" d="m26.9 24.4c0.3 0.1 0.4 0.4 0.3 0.7h0.7c0-0.2 0-0.5 0.2-0.7 0.1 0.5 0.1 1 0.2 1.5-0.2 0.1-0.3 0.1-0.5 0 0.1-0.2 0.1-0.4 0.1-0.7h-0.7c0 0.3 0 0.5 0.2 0.7-0.2 0-0.3 0.1-0.5 0v-1.5z"></path><path fill="#908582" d="m5.4 24.5c0.1-0.1 0.3-0.1 0.4 0 0.1 0.3 0.3 0.6 0.4 0.9 0.1-0.4 0.3-0.7 0.6-1 0.1 0.5 0.2 0.9 0.3 1.4-0.1 0.1-0.3 0.2-0.4 0.1 0-0.2 0-0.5-0.1-0.8-0.1 0.3-0.2 0.5-0.4 0.7-0.2-0.5-0.5-0.9-0.8-1.3z"></path><path fill="#89817d" d="m10.5 25.2c0.1 0.2 0.2 0.3 0.3 0.5-0.1 0-0.1 0.1-0.2 0.1-0.2-0.3-0.5-0.6-0.8-1-0.1 0.4 0 0.7 0.1 1.1-0.1 0.1-0.3 0.1-0.4 0 0.2-0.5 0.2-1 0-1.4 0.4 0.1 0.7 0.3 1 0.7z"></path><path fill="#c3beba" d="m10.6 25.8c0.1 0 0.1-0.1 0.2-0.1-0.1-0.2-0.2-0.3-0.3-0.5 0.1-0.2 0.2-0.5 0.3-0.8 0.1 0.5 0.1 1 0 1.5-0.1 0-0.2 0-0.2-0.1z"></path><path fill="#d6cdb8" d="m26.5 24.4c-0.4 0-0.8 0-1.1 0.1 0.2 0.2 0.3 0.2 0.5 0.2 0.1 0.4 0 0.8-0.1 1.1-0.3-0.2-0.6-0.1-0.8 0.1-0.4 0.2-0.8 0.3-1.2 0.3-0.7 0-1.3 0-1.9-0.1v-0.4c0.3 0.2 0.7 0.3 1.1 0.2 0.6-1.2 0.3-1.6-1-1.4 0.7-0.1 1.5-0.2 2.3-0.2 0.7 0 1.5 0 2.2 0.1z"></path><path fill="#938c89" d="m11.3 24.4h0.7c0 0.1 0 0.3 0 0.4-0.1-0.2-0.3-0.3-0.5-0.3-0.1 0.4 0.1 0.6 0.5 0.7 0 0.3 0 0.5 0 0.7-0.3 0.1-0.6 0-0.8-0.1 0.2-0.1 0.4-0.1 0.7 0-0.1-0.3-0.3-0.6-0.6-0.8-0.1-0.2-0.1-0.4 0-0.6z"></path><path fill="#968b88" d="m19.3 24.4c0.3 0.4 0.4 0.9 0.5 1.4-0.2 0.1-0.3 0.2-0.5 0.1 0.1-0.2 0-0.5 0-0.8-0.4 0.9-0.7 0.9-0.9-0.1 0 0.3-0.1 0.6-0.2 0.9-0.1-0.4-0.1-0.9 0.2-1.4 0.2 0.3 0.4 0.5 0.4 0.9 0.3-0.3 0.4-0.6 0.5-1z"></path><path fill="#d6ccb5" d="m22.3 24.5c0.8 0.2 1 0.6 0.6 1.2-0.3 0.1-0.5 0.1-0.7 0-0.1-0.4-0.1-0.8 0.1-1.2z"></path><path fill="#9c9492" d="m7.8 24.4c0.1 0 0.2 0 0.3 0.1 0.1 0.5 0.3 1 0.5 1.4-0.1 0-0.2 0.1-0.4 0v-0.5h-0.5v0.5c-0.2 0.1-0.3 0-0.5 0 0.3-0.5 0.5-1 0.6-1.5z"></path><path fill="#8e8482" d="m28.6 24.4c0.4 0 0.7 0 1 0.1-0.2 0.2-0.5 0.2-0.7 0.2v0.4c0.2 0 0.4 0 0.6 0.1-0.2 0.1-0.4 0.1-0.6 0v0.6c0.3 0 0.5 0 0.7 0-0.3 0.1-0.6 0.2-1 0.1v-1.5z"></path><path fill="#a0978f" d="m16.2 25.4h-0.5v0.4c0.2 0 0.4 0 0.5 0.1 0 0-0.1 0.1-0.2 0h-0.7v-1.5c0.3 0 0.6 0 0.9 0.1-0.2 0.1-0.4 0.1-0.7 0v0.6c0.4-0.1 0.6 0 0.7 0.3z"></path><path fill="#a29997" d="m21.6 25.4c-0.5-0.2-0.7 0-0.6 0.5-0.1 0.1-0.3 0-0.4 0 0.2-0.5 0.2-0.9 0-1.4 0.3-0.1 0.7-0.1 1 0-0.7 0.3-0.7 0.4 0 0.5v0.4z"></path><path fill="#a49d9a" d="m16.8 25.8c-0.1 0.2-0.2 0.2-0.3 0 0.2-0.5 0.4-0.9 0.6-1.4 0.3 0.4 0.5 0.9 0.7 1.5-0.1 0-0.3 0.1-0.4 0v-0.5c-0.4-0.1-0.6 0.1-0.6 0.4z"></path><path fill="#807161" d="m25 25.9c-0.4 0-0.7-0.2-0.9-0.5-0.2 0.1-0.2 0.3 0 0.5-0.2 0.1-0.4 0.1-0.5 0 0-0.5 0.1-0.9 0.2-1.4 0.2 0.2 0.2 0.4 0.2 0.6h0.4c0-0.2 0-0.4 0.1-0.6l0.1 0.2c0 0.3 0 0.5 0 0.8 0.2 0.1 0.3 0.3 0.4 0.4z"></path><path fill="#d9d4cb" d="m16.2 25.4c0.1 0.2 0.2 0.3 0.3 0.4 0.1 0.2 0.2 0.2 0.3 0 0.4 0.2 0.8 0.4 1.3 0.6 0.1 0.1 0.1 0.3 0 0.4-0.2-0.2-0.5-0.3-0.7-0.3-0.2 0-0.3 0-0.4 0.1-0.1 0.3-0.1 0.6-0.1 0.9-0.1-0.1-0.1-0.2-0.1-0.4h-0.4c0-0.6-0.1-0.6-0.3-0.1-0.1 0.1-0.3 0.1-0.4 0.1 0-0.2 0-0.4-0.1-0.6 0 0.2-0.1 0.4-0.2 0.6v-0.7c0.3 0 0.7 0 1-0.1-0.2-0.1-0.4-0.2-0.4-0.4 0.1 0.1 0.2 0 0.2 0-0.1-0.1-0.3-0.1-0.5-0.1v-0.4h0.5z"></path><path fill="#766865" d="m10.1 26.5c0.1 0.4 0.1 0.9 0.2 1.3l-0.1 0.1c-0.1-0.4-0.2-0.9-0.1-1.4z"></path><path fill="#928884" d="m14 26.5c0.3-0.2 0.7-0.2 1.1 0-0.2 0.1-0.4 0.2-0.7 0.1v0.5c0.2-0.1 0.4 0 0.6 0.1-0.2 0.1-0.4 0.1-0.6 0v0.6c0.3-0.1 0.5-0.1 0.7 0-0.3 0.1-0.6 0.2-1 0.1 0.1-0.5 0-1-0.1-1.4z"></path><path fill="#8f8381" d="m21.9 26.5c0.2 0.3 0.3 0.7 0.3 1.1 0.7 0.3 0.7 0.3-0.1 0.2-0.2-0.4-0.3-0.8-0.2-1.3z"></path><path fill="#857473" d="m22.9 26.5c0.1 0.2 0.2 0.4 0.2 0.7l-0.1 0.7c-0.1-0.4-0.2-0.9-0.1-1.4z"></path><path fill="#948886" d="m18.5 26.4c0.8-0.2 1.2 0.1 1 0.9 0 0.2 0.1 0.3 0.3 0.5l-0.2 0.1c-0.2-0.2-0.4-0.5-0.6-0.7-0.1 0.2-0.1 0.5-0.1 0.7-0.1 0-0.3 0-0.4-0.1 0.2-0.4 0.2-0.9 0-1.4z"></path><path fill="#f7f6f6" d="m18.9 26.6h0.4v0.5h-0.4v-0.5z"></path><path fill="#958d89" d="m10.6 26.4c0.6 0.2 1 0.7 1.2 1.4-0.3-0.3-0.6-0.7-0.8-1-0.1 0.4-0.1 0.7 0 1-0.1 0.1-0.2 0.1-0.4 0 0.2-0.4 0.2-0.9 0-1.4z"></path><path fill="#99928f" d="m23.4 26.4c0.5 0.2 0.9 0.5 1.2 1 0-0.4 0.1-0.7 0.1-1 0.2 0.5 0.2 1 0 1.5-0.3-0.3-0.6-0.7-0.9-1-0.1 0.4-0.1 0.7-0.1 1-0.1-0.5-0.2-1-0.3-1.5z"></path><path fill="#8e827f" d="m16.4 27.1c-0.1 0.3 0 0.5 0.3 0.7l-0.2 0.1c-0.2-0.3-0.5-0.5-0.8-0.5 0 0.1 0 0.3 0.1 0.4-0.1 0.1-0.3 0.1-0.4 0.1v-0.8c0.1-0.2 0.2-0.4 0.2-0.6 0.1 0.2 0.1 0.4 0.1 0.6 0.1 0 0.3 0 0.4-0.1 0.2-0.5 0.3-0.5 0.3 0.1z"></path><path fill="#897e7c" d="m9.1 26.5c0.2 0.4 0.3 0.8 0.3 1.3 0.1 0 0.3 0 0.5 0-0.2 0.2-0.5 0.1-0.7 0-0.1-0.4-0.2-0.9-0.1-1.3z"></path><path fill="#857977" d="m17.4 26.5c-0.5 0.7-0.3 1.2 0.5 1.3 0.1-0.2 0-0.4-0.1-0.5 0.1-0.1 0.3-0.1 0.4-0.1v0.7c-0.3 0-0.6 0-1-0.1-0.1-0.1-0.2-0.2-0.3-0.3 0-0.3 0-0.6 0.1-0.9 0.1-0.1 0.2-0.1 0.4-0.1z"></path><path fill="#9c9390" d="m25.1 26.4c0.6-0.1 1.1 0 1.5 0.4 0.1 1-0.3 1.4-1.4 1.1 0.1-0.5 0-1-0.1-1.5z"></path><path fill="#f8f8f7" d="m25.5 26.6c0.9 0 1.1 0.4 0.6 1.1-0.2 0.1-0.4 0.1-0.6 0.1v-1.2z"></path><path fill="#988f8c" d="m12.3 26.5c1.1-0.4 1.5 0 1.3 1.1-0.4 0.3-0.8 0.4-1.3 0.2 0.2-0.4 0.2-0.9 0-1.3z"></path><path fill="#fafaf9" d="m12.7 26.6c0.5-0.1 0.7 0.1 0.7 0.6 0 0.5-0.2 0.7-0.7 0.6v-1.2z"></path><path fill="#8f8885" d="m20.3 26.4c1.2 0 1.4 0.5 0.9 1.4-1 0.2-1.4-0.2-1.1-1.2 0.1 0 0.2-0.1 0.2-0.2z"></path><path fill="#f4f3f2" d="m20.6 26.5c0.6 0.1 0.8 0.4 0.6 1-0.5 0.4-0.9 0.3-1-0.4 0-0.3 0.1-0.5 0.4-0.6z"></path></svg>