<svg xmlns="http://www.w3.org/2000/svg" version="1.1" width="256px" height="256px" style="shape-rendering:geometricPrecision; text-rendering:geometricPrecision; image-rendering:optimizeQuality; fill-rule:evenodd; clip-rule:evenodd" xmlns:xlink="http://www.w3.org/1999/xlink">
<g><path style="opacity:1" fill="#fdfcfc" d="M -0.5,-0.5 C 84.8333,-0.5 170.167,-0.5 255.5,-0.5C 255.5,84.8333 255.5,170.167 255.5,255.5C 170.167,255.5 84.8333,255.5 -0.5,255.5C -0.5,170.167 -0.5,84.8333 -0.5,-0.5 Z"/></g>
<g><path style="opacity:1" fill="#61605d" d="M 128.5,1.5 C 129.833,1.5 131.167,1.5 132.5,1.5C 132.949,3.97747 132.283,5.97747 130.5,7.5C 128.717,5.97747 128.051,3.97747 128.5,1.5 Z"/></g>
<g><path style="opacity:1" fill="#605f5a" d="M 123.5,1.5 C 124.833,1.5 126.167,1.5 127.5,1.5C 127.5,3.5 127.5,5.5 127.5,7.5C 123.932,7.24066 122.599,5.24066 123.5,1.5 Z"/></g>
<g><path style="opacity:1" fill="#f9f8f8" d="M 183.5,9.5 C 181.621,9.39318 181.288,9.89318 182.5,11C 188.264,14.2651 193.264,18.4317 197.5,23.5C 200.016,24.7261 202.349,26.2261 204.5,28C 203.359,28.7412 203.359,29.5745 204.5,30.5C 205.949,31.1719 207.282,31.8386 208.5,32.5C 207.761,32.369 207.094,32.5357 206.5,33C 208.679,33.4419 209.345,34.4419 208.5,36C 210.025,37.0086 211.692,37.5086 213.5,37.5C 213.693,40.3085 214.36,42.9752 215.5,45.5C 216.675,45.281 217.675,45.6143 218.5,46.5C 219.129,48.7408 220.129,50.7408 221.5,52.5C 219.391,53.3909 217.391,54.5576 215.5,56C 217.107,57.049 217.773,58.549 217.5,60.5C 219.703,60.3964 221.703,59.7298 223.5,58.5C 224.708,59.2341 226.041,59.5674 227.5,59.5C 227.5,60.8333 227.5,62.1667 227.5,63.5C 230.761,63.1005 231.428,64.2671 229.5,67C 229.389,70.7574 231.056,73.0908 234.5,74C 233.328,74.4186 232.328,75.0853 231.5,76C 232.944,77.7068 234.277,79.5401 235.5,81.5C 234.224,83.8615 234.558,86.0281 236.5,88C 232.493,92.8192 233.493,96.3192 239.5,98.5C 239.5,99.8333 239.5,101.167 239.5,102.5C 237.143,102.663 234.81,102.497 232.5,102C 231.619,101.292 230.953,100.458 230.5,99.5C 229.341,98.2597 228.341,96.9264 227.5,95.5C 227.5,98.5 227.5,101.5 227.5,104.5C 228.545,105.878 229.878,106.878 231.5,107.5C 232.341,109.379 232.675,111.379 232.5,113.5C 231.178,113.33 230.011,113.663 229,114.5C 227.619,110.812 226.452,111.145 225.5,115.5C 226.615,116.598 226.615,117.765 225.5,119C 226.317,120.49 227.15,121.99 228,123.5C 229.049,122.483 230.216,122.316 231.5,123C 229.008,125.175 227.008,127.175 225.5,129C 226.549,129.492 227.549,129.326 228.5,128.5C 229.985,132.137 229.485,132.804 227,130.5C 226.506,132.134 226.34,133.801 226.5,135.5C 224.712,135.215 223.045,135.548 221.5,136.5C 219.709,138.413 217.709,140.08 215.5,141.5C 214.537,144.516 214.371,147.516 215,150.5C 213.615,151.551 212.615,152.884 212,154.5C 210.989,153.663 209.822,153.33 208.5,153.5C 208.167,152.833 207.833,152.167 207.5,151.5C 207.2,137.118 207.534,122.785 208.5,108.5C 209.287,106.896 210.62,106.229 212.5,106.5C 212.5,105.5 212.5,104.5 212.5,103.5C 211.167,103.5 209.833,103.5 208.5,103.5C 203.833,103.5 199.167,103.5 194.5,103.5C 193.5,103.5 192.5,103.5 191.5,103.5C 193.265,102.539 195.265,102.205 197.5,102.5C 199.026,100.677 200.692,98.8438 202.5,97C 201.207,96.51 199.873,96.3433 198.5,96.5C 198.326,94.139 197.993,91.8056 197.5,89.5C 198.376,89.6309 199.043,89.2975 199.5,88.5C 198.23,87.7124 197.23,86.7124 196.5,85.5C 197.043,85.44 197.376,85.1067 197.5,84.5C 193.66,83.1399 193.66,81.6399 197.5,80C 195.658,80.068 193.991,79.9014 192.5,79.5C 192.414,78.5041 192.748,77.6708 193.5,77C 189.639,75.6573 189.639,74.1573 193.5,72.5C 192.609,71.4104 191.609,71.4104 190.5,72.5C 189.813,70.4453 188.646,68.7786 187,67.5C 186.689,66.2575 187.189,65.2575 188.5,64.5C 188.167,64.1667 187.833,63.8333 187.5,63.5C 186.264,64.2458 184.93,64.5792 183.5,64.5C 183.297,62.3618 182.297,60.6951 180.5,59.5C 181.823,55.8391 181.157,55.5057 178.5,58.5C 176.896,57.713 176.229,56.3797 176.5,54.5C 172.824,54.4658 171.657,52.7991 173,49.5C 172.311,50.3567 171.478,51.0233 170.5,51.5C 168.509,50.1796 166.509,48.8463 164.5,47.5C 163.289,46.2798 163.289,45.1131 164.5,44C 163.258,43.6886 162.258,44.1886 161.5,45.5C 160.14,44.8201 158.807,44.1534 157.5,43.5C 155.469,43.0276 153.802,42.0276 152.5,40.5C 152.631,39.7611 152.464,39.0944 152,38.5C 151.061,41.0151 149.561,41.6817 147.5,40.5C 145.065,37.7448 142.065,35.7448 138.5,34.5C 137.818,35.2427 137.151,35.9094 136.5,36.5C 134.883,35.962 133.216,35.6287 131.5,35.5C 123.334,31.366 116.001,32.6993 109.5,39.5C 109.5,39.8333 109.5,40.1667 109.5,40.5C 107.198,42.0773 105.698,41.4106 105,38.5C 104.51,39.7932 104.343,41.1266 104.5,42.5C 102.856,42.7135 101.356,42.3802 100,41.5C 98.9605,45.2916 97.1271,45.9582 94.5,43.5C 93.2888,44.2739 93.2888,45.1072 94.5,46C 91.079,47.6985 88.079,49.8652 85.5,52.5C 84.5416,52.0472 83.7083,51.3805 83,50.5C 82.7266,52.1012 82.2266,53.6012 81.5,55C 78.5372,56.9606 75.8706,59.294 73.5,62C 72.0494,61.7374 70.7161,61.9041 69.5,62.5C 70.1667,63.1667 70.8333,63.8333 71.5,64.5C 67.9502,69.6075 64.9502,74.9408 62.5,80.5C 59.074,80.3497 58.7406,81.5163 61.5,84C 60.6634,85.0113 60.33,86.1779 60.5,87.5C 58.5873,90.04 58.254,92.7067 59.5,95.5C 59.7373,96.791 59.404,97.791 58.5,98.5C 58.631,97.7611 58.4643,97.0944 58,96.5C 57.9643,99.9326 56.4643,102.266 53.5,103.5C 54.209,104.404 55.209,104.737 56.5,104.5C 55.4991,107.838 54.4991,111.171 53.5,114.5C 52.2271,116.713 51.2271,119.046 50.5,121.5C 47.7725,127.35 45.4392,133.35 43.5,139.5C 42.0459,142.408 40.5459,145.408 39,148.5C 37.2138,145.264 35.7138,141.93 34.5,138.5C 33.164,135.162 31.8307,131.829 30.5,128.5C 29.1667,125.167 27.8333,121.833 26.5,118.5C 25.8333,116.5 25.1667,114.5 24.5,112.5C 23.6244,104.605 23.2911,96.7717 23.5,89C 25.3937,87.9207 25.727,86.5874 24.5,85C 28.1045,77.2293 30.7711,69.0626 32.5,60.5C 33.5832,60.4606 34.5832,60.1272 35.5,59.5C 36.3857,60.325 36.719,61.325 36.5,62.5C 37.2341,63.7079 37.5674,65.0413 37.5,66.5C 40.3346,62.8362 42.668,58.8362 44.5,54.5C 46.5475,52.4504 48.2141,50.117 49.5,47.5C 54.8333,42.8333 59.8333,37.8333 64.5,32.5C 67.4549,30.8777 70.1215,28.8777 72.5,26.5C 78.999,23.4178 85.3324,20.0845 91.5,16.5C 94.6473,16.2634 97.6473,15.4301 100.5,14C 99.9056,13.5357 99.2389,13.369 98.5,13.5C 99.209,12.596 100.209,12.2627 101.5,12.5C 101.735,13.0967 102.235,13.4301 103,13.5C 106.094,12.4345 109.26,11.7678 112.5,11.5C 112.52,13.143 111.853,14.4763 110.5,15.5C 111.167,15.8333 111.833,16.1667 112.5,16.5C 122.833,15.1667 133.167,15.1667 143.5,16.5C 146.028,15.8311 146.028,14.9978 143.5,14C 144.047,13.0754 144.713,12.2421 145.5,11.5C 155.855,13.8404 165.855,17.1738 175.5,21.5C 179.819,24.9957 184.485,27.9957 189.5,30.5C 186.499,27.5074 183.165,24.8407 179.5,22.5C 181.738,21.1473 183.071,19.1473 183.5,16.5C 182.311,15.5713 180.978,15.238 179.5,15.5C 178.699,13.9582 178.366,12.2915 178.5,10.5C 168.107,9.27887 167.941,7.27887 178,4.5C 179.709,6.37897 181.542,8.04564 183.5,9.5 Z"/></g>
<g><path style="opacity:1" fill="#a8a7a3" d="M 175.5,21.5 C 165.855,17.1738 155.855,13.8404 145.5,11.5C 144.713,12.2421 144.047,13.0754 143.5,14C 146.028,14.9978 146.028,15.8311 143.5,16.5C 133.167,15.1667 122.833,15.1667 112.5,16.5C 111.833,16.1667 111.167,15.8333 110.5,15.5C 111.853,14.4763 112.52,13.143 112.5,11.5C 109.26,11.7678 106.094,12.4345 103,13.5C 102.235,13.4301 101.735,13.0967 101.5,12.5C 103.821,12.3417 105.654,11.3417 107,9.5C 107.725,10.0585 108.558,10.3918 109.5,10.5C 112.406,10.2997 114.906,9.29971 117,7.5C 118.353,8.70418 120.019,9.37085 122,9.5C 125.843,8.27135 129.677,8.27135 133.5,9.5C 135.384,9.28369 137.051,8.61702 138.5,7.5C 144.729,9.64403 151.062,11.644 157.5,13.5C 159.738,10.5673 160.738,10.9007 160.5,14.5C 163.265,14.7976 165.765,15.7976 168,17.5C 168.308,16.6919 168.808,16.0253 169.5,15.5C 171.12,17.9577 173.12,19.9577 175.5,21.5 Z"/></g>
<g><path style="opacity:1" fill="#ebebea" d="M 116.5,11.5 C 118.936,10.0669 121.269,10.4002 123.5,12.5C 124.884,9.86743 126.218,9.86743 127.5,12.5C 125.002,13.9377 122.836,13.6044 121,11.5C 119.586,12.4132 118.086,12.4132 116.5,11.5 Z"/></g>
<g><path style="opacity:1" fill="#5c5b59" d="M 75.5,14.5 C 80.4037,14.9988 81.4037,16.9988 78.5,20.5C 77.4937,20.0623 77.4937,19.3957 78.5,18.5C 77.675,17.6143 76.675,17.281 75.5,17.5C 75.5,16.5 75.5,15.5 75.5,14.5 Z"/></g>
<g><path style="opacity:1" fill="#acaba8" d="M 98.5,13.5 C 99.2389,13.369 99.9056,13.5357 100.5,14C 97.6473,15.4301 94.6473,16.2634 91.5,16.5C 93.2793,15.4265 94.946,14.0931 96.5,12.5C 97.1835,12.8627 97.8501,13.1961 98.5,13.5 Z"/></g>
<g><path style="opacity:1" fill="#575653" d="M 71.5,16.5 C 72.0306,17.7954 73.3639,18.4621 75.5,18.5C 75.7692,20.4286 75.2692,22.0953 74,23.5C 73.5078,22.451 73.6744,21.451 74.5,20.5C 73.7261,19.2888 72.8928,19.2888 72,20.5C 70.2317,19.3181 70.0651,17.9848 71.5,16.5 Z"/></g>
<g><path style="opacity:1" fill="#a7a6a3" d="M 91.5,16.5 C 85.3324,20.0845 78.999,23.4178 72.5,26.5C 77.0517,22.9031 81.885,19.5698 87,16.5C 88.2988,16.9662 89.7988,16.9662 91.5,16.5 Z"/></g>
<g><path style="opacity:1" fill="#737168" d="M 117.5,22.5 C 118.822,22.33 119.989,22.6634 121,23.5C 121.497,26.146 121.664,28.8127 121.5,31.5C 120.022,31.762 118.689,31.4287 117.5,30.5C 118.603,30.0024 119.603,29.6691 120.5,29.5C 119.675,28.6143 118.675,28.281 117.5,28.5C 117.5,26.5 117.5,24.5 117.5,22.5 Z"/></g>
<g><path style="opacity:1" fill="#898884" d="M 179.5,15.5 C 180.978,15.238 182.311,15.5713 183.5,16.5C 183.071,19.1473 181.738,21.1473 179.5,22.5C 183.165,24.8407 186.499,27.5074 189.5,30.5C 184.485,27.9957 179.819,24.9957 175.5,21.5C 176.552,21.6495 177.552,21.4828 178.5,21C 177.66,19.3335 178.16,19.1669 180,20.5C 180.384,18.8034 180.218,17.1368 179.5,15.5 Z"/></g>
<g><path style="opacity:1" fill="#9d9b91" d="M 124.5,22.5 C 126.167,22.5 127.833,22.5 129.5,22.5C 130.045,25.9976 129.212,28.9976 127,31.5C 125.467,31.0563 123.967,30.723 122.5,30.5C 124.223,28.1324 124.89,25.4658 124.5,22.5 Z"/></g>
<g><path style="opacity:1" fill="#716f68" d="M 96.5,27.5 C 97.8221,27.33 98.9887,27.6634 100,28.5C 101.079,31.0627 101.579,33.7294 101.5,36.5C 100.178,36.67 99.0113,36.3366 98,35.5C 97.5464,33.4636 96.7131,31.6303 95.5,30C 95.7432,29.0979 96.0766,28.2646 96.5,27.5 Z"/></g>
<g><path style="opacity:1" fill="#807d74" d="M 136.5,22.5 C 137.693,22.9704 138.36,23.9704 138.5,25.5C 138.308,27.5767 137.808,29.5767 137,31.5C 136.502,28.5184 136.335,25.5184 136.5,22.5 Z"/></g>
<g><path style="opacity:1" fill="#6f6c63" d="M 153.5,26.5 C 154.333,29.2179 153.833,31.8845 152,34.5C 151.855,31.7393 152.355,29.0726 153.5,26.5 Z"/></g>
<g><path style="opacity:1" fill="#dbd1b9" d="M 183.5,9.5 C 185.924,10.0305 188.257,10.8638 190.5,12C 194.303,15.8364 198.303,19.503 202.5,23C 204.167,23.3333 205.833,23.6667 207.5,24C 208.061,25.676 209.061,27.0094 210.5,28C 210.167,28.3333 209.833,28.6667 209.5,29C 212.652,29.4637 214.318,31.297 214.5,34.5C 214.53,35.4972 214.03,36.1639 213,36.5C 211.42,35.1998 209.92,33.8664 208.5,32.5C 207.282,31.8386 205.949,31.1719 204.5,30.5C 203.359,29.5745 203.359,28.7412 204.5,28C 202.349,26.2261 200.016,24.7261 197.5,23.5C 193.264,18.4317 188.264,14.2651 182.5,11C 181.288,9.89318 181.621,9.39318 183.5,9.5 Z"/></g>
<g><path style="opacity:1" fill="#9f9d9a" d="M 72.5,26.5 C 70.1215,28.8777 67.4549,30.8777 64.5,32.5C 66.2696,30.8867 67.4363,28.8867 68,26.5C 69.4139,27.4132 70.9139,27.4132 72.5,26.5 Z"/></g>
<g><path style="opacity:1" fill="#7c7a72" d="M 103.5,25.5 C 108.152,26.1035 109.652,28.7702 108,33.5C 107,34.8333 106,34.8333 105,33.5C 104.178,30.8832 103.678,28.2165 103.5,25.5 Z"/></g>
<g><path style="opacity:1" fill="#706f65" d="M 140.5,23.5 C 141.833,23.5 143.167,23.5 144.5,23.5C 145.076,27.1219 144.076,30.1219 141.5,32.5C 141.167,32.1667 140.833,31.8333 140.5,31.5C 142.279,29.8071 142.779,27.8071 142,25.5C 141.667,26.5 141.333,27.5 141,28.5C 140.506,26.8659 140.34,25.1992 140.5,23.5 Z"/></g>
<g><path style="opacity:1" fill="#989793" d="M 189.5,30.5 C 191.716,31.2026 193.549,32.5359 195,34.5C 195.333,34.1667 195.667,33.8333 196,33.5C 196.483,34.448 196.649,35.448 196.5,36.5C 193.573,35.2427 191.239,33.2427 189.5,30.5 Z"/></g>
<g><path style="opacity:1" fill="#8f8473" d="M 131.5,35.5 C 127.982,36.1049 124.315,36.1049 120.5,35.5C 118.743,36.292 117.409,37.6253 116.5,39.5C 115.808,38.9747 115.308,38.3081 115,37.5C 113.416,38.8613 111.582,39.528 109.5,39.5C 116.001,32.6993 123.334,31.366 131.5,35.5 Z"/></g>
<g><path style="opacity:1" fill="#5b5950" d="M 156.5,27.5 C 157.376,27.3691 158.043,27.7025 158.5,28.5C 154.325,37.8345 153.658,37.5012 156.5,27.5 Z"/></g>
<g><path style="opacity:1" fill="#605e59" d="M 166.5,31.5 C 167.239,31.369 167.906,31.5357 168.5,32C 163.177,42.1643 162.51,41.9976 166.5,31.5 Z"/></g>
<g><path style="opacity:1" fill="#9a9996" d="M 64.5,32.5 C 59.8333,37.8333 54.8333,42.8333 49.5,47.5C 51.7159,43.1108 54.8826,39.4442 59,36.5C 59.4828,35.552 59.6495,34.552 59.5,33.5C 61.2161,33.3713 62.8828,33.038 64.5,32.5 Z"/></g>
<g><path style="opacity:1" fill="#bba87f" d="M 250.5,32.5 C 251.097,32.7352 251.43,33.2352 251.5,34C 250.514,37.6538 248.681,40.8205 246,43.5C 245.333,41.8333 245.333,40.1667 246,38.5C 247.332,36.34 248.832,34.34 250.5,32.5 Z"/></g>
<g><path style="opacity:1" fill="#a7977d" d="M 147.5,40.5 C 144.129,39.4243 140.796,38.4243 137.5,37.5C 136.833,37.5 136.5,37.1667 136.5,36.5C 137.151,35.9094 137.818,35.2427 138.5,34.5C 142.065,35.7448 145.065,37.7448 147.5,40.5 Z"/></g>
<g><path style="opacity:1" fill="#5e5c57" d="M 169.5,33.5 C 170.5,33.5 171.5,33.5 172.5,33.5C 173.026,36.8078 171.693,38.9745 168.5,40C 169.711,40.8928 169.711,41.7261 168.5,42.5C 167.354,41.8551 166.354,41.0217 165.5,40C 167.167,38.8333 168.833,37.6667 170.5,36.5C 169.873,35.5832 169.539,34.5832 169.5,33.5 Z"/></g>
<g><path style="opacity:1" fill="#a6a6a2" d="M 196.5,36.5 C 199.056,37.5434 201.223,39.2101 203,41.5C 203.333,41.1667 203.667,40.8333 204,40.5C 204.47,41.5768 204.303,42.5768 203.5,43.5C 200.758,41.4246 198.424,39.0913 196.5,36.5 Z"/></g>
<g><path style="opacity:1" fill="#5d5b57" d="M 83.5,42.5 C 82.2058,41.7101 81.0391,40.7101 80,39.5C 79.6666,41.0468 80.1666,42.3801 81.5,43.5C 81.3764,44.1067 81.0431,44.44 80.5,44.5C 78.6878,42.5395 77.6878,40.2061 77.5,37.5C 80.9578,37.4145 82.9578,39.0812 83.5,42.5 Z"/></g>
<g><path style="opacity:1" fill="#beb4a3" d="M 125.5,38.5 C 128.518,38.3354 131.518,38.502 134.5,39C 135.056,39.3826 135.389,39.8826 135.5,40.5C 135.5,41.1667 135.167,41.5 134.5,41.5C 132.194,41.0074 129.861,40.6741 127.5,40.5C 126.833,39.8333 126.167,39.1667 125.5,38.5 Z"/></g>
<g><path style="opacity:1" fill="#1d1a16" d="M 120.5,35.5 C 124.315,36.1049 127.982,36.1049 131.5,35.5C 133.216,35.6287 134.883,35.962 136.5,36.5C 136.5,37.1667 136.833,37.5 137.5,37.5C 139.868,38.783 142.035,40.4497 144,42.5C 144.667,43.5 144.667,44.5 144,45.5C 141.358,43.432 138.525,41.7653 135.5,40.5C 135.389,39.8826 135.056,39.3826 134.5,39C 131.518,38.502 128.518,38.3354 125.5,38.5C 123.396,38.7989 121.396,38.4656 119.5,37.5C 119.863,36.8165 120.196,36.1499 120.5,35.5 Z"/></g>
<g><path style="opacity:1" fill="#979285" d="M 109.5,40.5 C 109.5,41.5 109.5,42.5 109.5,43.5C 109.527,45.1993 110.194,46.5326 111.5,47.5C 110.167,47.8333 108.833,48.1667 107.5,48.5C 107.357,46.7376 107.691,45.0709 108.5,43.5C 108,43.1667 107.5,42.8333 107,42.5C 101.322,44.5889 95.8215,47.0889 90.5,50C 87.9103,52.0043 85.9103,54.5043 84.5,57.5C 86.4318,56.9672 88.4318,56.9672 90.5,57.5C 87.5865,58.9061 85.0865,60.9061 83,63.5C 82.5357,62.9056 82.369,62.2389 82.5,61.5C 82.9175,60.7784 83.5842,60.2784 84.5,60C 82.8807,59.7645 81.8807,58.9311 81.5,57.5C 82.8333,55.8333 84.1667,54.1667 85.5,52.5C 88.079,49.8652 91.079,47.6985 94.5,46C 93.2888,45.1072 93.2888,44.2739 94.5,43.5C 97.1271,45.9582 98.9605,45.2916 100,41.5C 101.356,42.3802 102.856,42.7135 104.5,42.5C 104.343,41.1266 104.51,39.7932 105,38.5C 105.698,41.4106 107.198,42.0773 109.5,40.5 Z"/></g>
<g><path style="opacity:1" fill="#847661" d="M 152.5,40.5 C 151.548,41.452 150.548,42.452 149.5,43.5C 149.624,44.1067 149.957,44.44 150.5,44.5C 150.5,45.5 150.5,46.5 150.5,47.5C 148.688,47.2287 147.022,46.562 145.5,45.5C 146.833,44.5 146.833,43.5 145.5,42.5C 146.243,41.8182 146.909,41.1515 147.5,40.5C 149.561,41.6817 151.061,41.0151 152,38.5C 152.464,39.0944 152.631,39.7611 152.5,40.5 Z"/></g>
<g><path style="opacity:1" fill="#504e49" d="M 177.5,38.5 C 179.028,38.5173 179.528,39.184 179,40.5C 177.471,41.7287 176.304,43.2287 175.5,45C 174.833,45.6667 174.167,45.6667 173.5,45C 175.232,43.0281 176.565,40.8614 177.5,38.5 Z"/></g>
<g><path style="opacity:1" fill="#4e4c48" d="M 77.5,47.5 C 77.5,48.1667 77.5,48.8333 77.5,49.5C 75.691,47.9009 74.3576,45.9009 73.5,43.5C 72.6043,44.5063 71.9377,44.5063 71.5,43.5C 72.3279,42.5853 73.3279,41.9186 74.5,41.5C 75.2063,43.704 76.2063,45.704 77.5,47.5 Z"/></g>
<g><path style="opacity:1" fill="#f7f7f5" d="M 107.5,48.5 C 106.5,48.8333 105.833,49.5 105.5,50.5C 100.088,52.0403 95.0882,54.3737 90.5,57.5C 88.4318,56.9672 86.4318,56.9672 84.5,57.5C 85.9103,54.5043 87.9103,52.0043 90.5,50C 95.8215,47.0889 101.322,44.5889 107,42.5C 107.5,42.8333 108,43.1667 108.5,43.5C 107.691,45.0709 107.357,46.7376 107.5,48.5 Z"/></g>
<g><path style="opacity:1" fill="#2c2821" d="M 111.5,47.5 C 110.194,46.5326 109.527,45.1993 109.5,43.5C 111.861,43.3259 114.194,42.9926 116.5,42.5C 116.509,44.3084 116.009,45.9751 115,47.5C 113.708,48.7911 112.542,48.7911 111.5,47.5 Z"/></g>
<g><path style="opacity:1" fill="#c1b7a6" d="M 124.5,43.5 C 127.829,43.2153 130.829,43.8819 133.5,45.5C 133.158,46.3382 132.492,46.6716 131.5,46.5C 129.194,46.0074 126.861,45.6741 124.5,45.5C 124.5,44.8333 124.5,44.1667 124.5,43.5 Z"/></g>
<g><path style="opacity:1" fill="#6c5d49" d="M 120.5,35.5 C 120.196,36.1499 119.863,36.8165 119.5,37.5C 121.396,38.4656 123.396,38.7989 125.5,38.5C 126.167,39.1667 126.833,39.8333 127.5,40.5C 124.813,40.3359 122.146,40.5026 119.5,41C 119.043,41.414 118.709,41.914 118.5,42.5C 120.396,43.4656 122.396,43.7989 124.5,43.5C 124.5,44.1667 124.5,44.8333 124.5,45.5C 121.636,45.0642 119.303,45.8975 117.5,48C 119.473,48.4955 121.473,48.6621 123.5,48.5C 123.5,49.1667 123.5,49.8333 123.5,50.5C 120.119,50.4595 116.786,50.7929 113.5,51.5C 115.054,50.1054 114.721,49.4387 112.5,49.5C 110.945,49.722 109.611,50.3887 108.5,51.5C 107.614,50.675 107.281,49.675 107.5,48.5C 108.833,48.1667 110.167,47.8333 111.5,47.5C 112.542,48.7911 113.708,48.7911 115,47.5C 116.009,45.9751 116.509,44.3084 116.5,42.5C 114.194,42.9926 111.861,43.3259 109.5,43.5C 109.5,42.5 109.5,41.5 109.5,40.5C 109.5,40.1667 109.5,39.8333 109.5,39.5C 111.582,39.528 113.416,38.8613 115,37.5C 115.308,38.3081 115.808,38.9747 116.5,39.5C 117.409,37.6253 118.743,36.292 120.5,35.5 Z"/></g>
<g><path style="opacity:1" fill="#d4d2ca" d="M 152.5,40.5 C 153.802,42.0276 155.469,43.0276 157.5,43.5C 156.761,43.369 156.094,43.5357 155.5,44C 158.187,45.0486 160.52,46.5486 162.5,48.5C 162.179,50.0481 161.179,50.7148 159.5,50.5C 155.951,49.2768 152.951,47.2768 150.5,44.5C 149.957,44.44 149.624,44.1067 149.5,43.5C 150.548,42.452 151.548,41.452 152.5,40.5 Z"/></g>
<g><path style="opacity:1" fill="#a6a49f" d="M 83.5,42.5 C 84.6527,43.3132 84.6527,44.3132 83.5,45.5C 81.4733,46.8722 79.4733,48.2055 77.5,49.5C 77.5,48.8333 77.5,48.1667 77.5,47.5C 78.5,46.5 79.5,45.5 80.5,44.5C 81.0431,44.44 81.3764,44.1067 81.5,43.5C 80.1666,42.3801 79.6666,41.0468 80,39.5C 81.0391,40.7101 82.2058,41.7101 83.5,42.5 Z"/></g>
<g><path style="opacity:1" fill="#9b9b97" d="M 203.5,43.5 C 205.757,44.5618 206.923,46.2285 207,48.5C 205.198,47.2107 204.031,45.5441 203.5,43.5 Z"/></g>
<g><path style="opacity:1" fill="#1a1613" d="M 127.5,40.5 C 129.861,40.6741 132.194,41.0074 134.5,41.5C 137.989,44.137 141.655,46.637 145.5,49C 144.892,49.8699 144.059,50.3699 143,50.5C 140.19,48.1783 137.024,46.5116 133.5,45.5C 130.829,43.8819 127.829,43.2153 124.5,43.5C 122.396,43.7989 120.396,43.4656 118.5,42.5C 118.709,41.914 119.043,41.414 119.5,41C 122.146,40.5026 124.813,40.3359 127.5,40.5 Z"/></g>
<g><path style="opacity:1" fill="#52514c" d="M 180.5,40.5 C 181.995,40.4148 182.995,41.0815 183.5,42.5C 182.076,44.2913 180.742,46.1246 179.5,48C 178.552,48.4828 177.552,48.6495 176.5,48.5C 178.593,47.0157 179.926,44.3491 180.5,40.5 Z"/></g>
<g><path style="opacity:1" fill="#878683" d="M 49.5,47.5 C 48.2141,50.117 46.5475,52.4504 44.5,54.5C 44.8306,51.1689 46.4973,48.8356 49.5,47.5 Z"/></g>
<g><path style="opacity:1" fill="#d4cab9" d="M 123.5,48.5 C 126.63,48.6997 129.63,49.3664 132.5,50.5C 132.5,51.1667 132.5,51.8333 132.5,52.5C 129.598,51.4222 126.598,50.7556 123.5,50.5C 123.5,49.8333 123.5,49.1667 123.5,48.5 Z"/></g>
<g><path style="opacity:1" fill="#161310" d="M 124.5,45.5 C 126.861,45.6741 129.194,46.0074 131.5,46.5C 135.069,48.2039 138.569,50.2039 142,52.5C 142.667,53.8333 142.667,55.1667 142,56.5C 138.89,54.3642 135.723,52.3642 132.5,50.5C 129.63,49.3664 126.63,48.6997 123.5,48.5C 121.473,48.6621 119.473,48.4955 117.5,48C 119.303,45.8975 121.636,45.0642 124.5,45.5 Z"/></g>
<g><path style="opacity:1" fill="#a9a597" d="M 150.5,44.5 C 152.951,47.2768 155.951,49.2768 159.5,50.5C 160.347,51.9663 161.68,52.7996 163.5,53C 162.756,54.0386 161.756,54.5386 160.5,54.5C 159,52.8214 157.167,51.4881 155,50.5C 154.536,51.0944 154.369,51.7611 154.5,52.5C 152.933,51.3192 152.099,49.6526 152,47.5C 151.31,48.7383 150.81,48.7383 150.5,47.5C 150.5,46.5 150.5,45.5 150.5,44.5 Z"/></g>
<g><path style="opacity:1" fill="#1a1714" d="M 123.5,50.5 C 126.598,50.7556 129.598,51.4222 132.5,52.5C 135.808,54.5672 139.141,56.7338 142.5,59C 141.874,59.7504 141.374,60.5838 141,61.5C 137.924,59.5743 134.758,57.9076 131.5,56.5C 131.389,55.8826 131.056,55.3826 130.5,55C 128.527,54.5045 126.527,54.3379 124.5,54.5C 119.251,53.479 113.917,53.8123 108.5,55.5C 107.702,55.0431 107.369,54.3764 107.5,53.5C 109.421,52.6373 111.421,51.9707 113.5,51.5C 116.786,50.7929 120.119,50.4595 123.5,50.5 Z"/></g>
<g><path style="opacity:1" fill="#464542" d="M 64.5,49.5 C 68.3955,50.7307 70.3955,53.3973 70.5,57.5C 67.2027,57.6713 66.8694,57.0046 69.5,55.5C 69.2907,54.914 68.9574,54.414 68.5,54C 66.6199,54.5098 64.7866,54.3431 63,53.5C 62.7003,51.9343 63.2003,50.601 64.5,49.5 Z"/></g>
<g><path style="opacity:1" fill="#6f6151" d="M 107.5,53.5 C 107.369,54.3764 107.702,55.0431 108.5,55.5C 113.917,53.8123 119.251,53.479 124.5,54.5C 123.209,54.2627 122.209,54.596 121.5,55.5C 117.846,55.9422 114.179,56.2756 110.5,56.5C 108.801,56.6602 107.134,56.4935 105.5,56C 106.066,55.0053 106.733,54.172 107.5,53.5 Z"/></g>
<g><path style="opacity:1" fill="#c8c0b0" d="M 124.5,54.5 C 126.527,54.3379 128.527,54.5045 130.5,55C 131.056,55.3826 131.389,55.8826 131.5,56.5C 131.158,57.3382 130.492,57.6716 129.5,57.5C 126.627,57.1977 123.961,56.531 121.5,55.5C 122.209,54.596 123.209,54.2627 124.5,54.5 Z"/></g>
<g><path style="opacity:1" fill="#7e7c75" d="M 157.5,43.5 C 158.807,44.1534 160.14,44.8201 161.5,45.5C 162.258,44.1886 163.258,43.6886 164.5,44C 163.289,45.1131 163.289,46.2798 164.5,47.5C 166.509,48.8463 168.509,50.1796 170.5,51.5C 171.478,51.0233 172.311,50.3567 173,49.5C 171.657,52.7991 172.824,54.4658 176.5,54.5C 176.229,56.3797 176.896,57.713 178.5,58.5C 179.5,60.5 180.5,62.5 181.5,64.5C 179.284,63.7974 177.451,62.4641 176,60.5C 175.617,61.056 175.117,61.3893 174.5,61.5C 175.028,60.1526 175.195,58.8193 175,57.5C 171.234,53.8938 167.067,50.8938 162.5,48.5C 160.52,46.5486 158.187,45.0486 155.5,44C 156.094,43.5357 156.761,43.369 157.5,43.5 Z"/></g>
<g><path style="opacity:1" fill="#645f57" d="M 38.5,52.5 C 38.8333,53.5 39.5,54.1667 40.5,54.5C 40.5,55.5 40.5,56.5 40.5,57.5C 39.0413,57.5674 37.7079,57.2341 36.5,56.5C 33.7699,53.9493 34.4366,52.616 38.5,52.5 Z"/></g>
<g><path style="opacity:1" fill="#93846e" d="M 107.5,48.5 C 107.281,49.675 107.614,50.675 108.5,51.5C 109.611,50.3887 110.945,49.722 112.5,49.5C 114.721,49.4387 115.054,50.1054 113.5,51.5C 111.421,51.9707 109.421,52.6373 107.5,53.5C 106.733,54.172 106.066,55.0053 105.5,56C 107.134,56.4935 108.801,56.6602 110.5,56.5C 108.03,57.249 106.03,58.749 104.5,61C 104.833,61.1667 105.167,61.3333 105.5,61.5C 112.534,59.3201 119.534,58.9868 126.5,60.5C 124.265,60.2053 122.265,60.5386 120.5,61.5C 115.464,61.5878 110.464,62.0878 105.5,63C 104.027,63.7096 103.36,64.8762 103.5,66.5C 104.5,66.5 105.5,66.5 106.5,66.5C 105.973,67.8959 104.473,68.8959 102,69.5C 101.316,70.7839 101.483,71.9505 102.5,73C 100.859,74.129 99.8588,75.629 99.5,77.5C 100.05,71.2662 101.383,64.9329 103.5,58.5C 104.371,55.997 105.037,53.3303 105.5,50.5C 105.833,49.5 106.5,48.8333 107.5,48.5 Z"/></g>
<g><path style="opacity:1" fill="#abaaa6" d="M 40.5,54.5 C 41.2216,54.9175 41.7216,55.5842 42,56.5C 42.7083,55.6195 43.5416,54.9528 44.5,54.5C 42.668,58.8362 40.3346,62.8362 37.5,66.5C 37.5674,65.0413 37.2341,63.7079 36.5,62.5C 38.1042,61.713 38.7709,60.3797 38.5,58.5C 36.3792,58.6747 34.3792,58.3414 32.5,57.5C 33.8333,57.1667 35.1667,56.8333 36.5,56.5C 37.7079,57.2341 39.0413,57.5674 40.5,57.5C 40.5,56.5 40.5,55.5 40.5,54.5 Z"/></g>
<g><path style="opacity:1" fill="#14110e" d="M 121.5,55.5 C 123.961,56.531 126.627,57.1977 129.5,57.5C 133.035,59.008 136.369,61.008 139.5,63.5C 140.386,64.325 140.719,65.325 140.5,66.5C 137.207,65.1914 133.874,63.858 130.5,62.5C 129.486,61.3263 128.153,60.6596 126.5,60.5C 119.534,58.9868 112.534,59.3201 105.5,61.5C 105.167,61.3333 104.833,61.1667 104.5,61C 106.03,58.749 108.03,57.249 110.5,56.5C 114.179,56.2756 117.846,55.9422 121.5,55.5 Z"/></g>
<g><path style="opacity:1" fill="#474642" d="M 193.5,54.5 C 194.376,54.3691 195.043,54.7025 195.5,55.5C 193.771,57.4513 191.771,58.618 189.5,59C 191.041,57.6288 192.375,56.1288 193.5,54.5 Z"/></g>
<g><path style="opacity:1" fill="#6b6a66" d="M 221.5,52.5 C 218.693,55.0443 219.36,56.0443 223.5,55.5C 223.5,56.5 223.5,57.5 223.5,58.5C 221.703,59.7298 219.703,60.3964 217.5,60.5C 217.773,58.549 217.107,57.049 215.5,56C 217.391,54.5576 219.391,53.3909 221.5,52.5 Z"/></g>
<g><path style="opacity:1" fill="#959491" d="M 217.5,63.5 C 214.274,60.371 212.108,56.7043 211,52.5C 214.198,55.5627 216.364,59.2294 217.5,63.5 Z"/></g>
<g><path style="opacity:1" fill="#5d5850" d="M 32.5,57.5 C 34.3792,58.3414 36.3792,58.6747 38.5,58.5C 38.7709,60.3797 38.1042,61.713 36.5,62.5C 36.719,61.325 36.3857,60.325 35.5,59.5C 34.5832,60.1272 33.5832,60.4606 32.5,60.5C 32.5,59.5 32.5,58.5 32.5,57.5 Z"/></g>
<g><path style="opacity:1" fill="#454440" d="M 85.5,52.5 C 84.1667,54.1667 82.8333,55.8333 81.5,57.5C 76.0753,61.5888 71.7419,66.5888 68.5,72.5C 67.1798,74.4632 65.8465,76.4632 64.5,78.5C 63.5383,81.7391 62.2049,84.7391 60.5,87.5C 60.33,86.1779 60.6634,85.0113 61.5,84C 58.7406,81.5163 59.074,80.3497 62.5,80.5C 64.9502,74.9408 67.9502,69.6075 71.5,64.5C 70.8333,63.8333 70.1667,63.1667 69.5,62.5C 70.7161,61.9041 72.0494,61.7374 73.5,62C 75.8706,59.294 78.5372,56.9606 81.5,55C 82.2266,53.6012 82.7266,52.1012 83,50.5C 83.7083,51.3805 84.5416,52.0472 85.5,52.5 Z"/></g>
<g><path style="opacity:1" fill="#bebcb3" d="M 105.5,50.5 C 105.037,53.3303 104.371,55.997 103.5,58.5C 103.44,57.9569 103.107,57.6236 102.5,57.5C 95.571,61.5997 89.071,66.2664 83,71.5C 78.5476,69.7403 78.381,67.5736 82.5,65C 81.2089,63.7083 81.2089,62.5417 82.5,61.5C 82.369,62.2389 82.5357,62.9056 83,63.5C 85.0865,60.9061 87.5865,58.9061 90.5,57.5C 95.0882,54.3737 100.088,52.0403 105.5,50.5 Z"/></g>
<g><path style="opacity:1" fill="#d2cfc6" d="M 160.5,54.5 C 161.007,55.8589 162.007,56.8589 163.5,57.5C 162.609,58.5896 161.609,58.5896 160.5,57.5C 159.749,58.376 159.249,59.376 159,60.5C 158.586,60.0426 158.086,59.7093 157.5,59.5C 156.818,60.2427 156.151,60.9094 155.5,61.5C 155.632,58.4299 155.299,55.4299 154.5,52.5C 154.369,51.7611 154.536,51.0944 155,50.5C 157.167,51.4881 159,52.8214 160.5,54.5 Z"/></g>
<g><path style="opacity:1" fill="#656360" d="M 58.5,55.5 C 61.0433,56.3568 63.3766,57.6901 65.5,59.5C 66.086,59.2907 66.586,58.9574 67,58.5C 67.1907,62.9849 65.3574,64.1516 61.5,62C 59.0807,60.4912 58.0807,58.3245 58.5,55.5 Z"/></g>
<g><path style="opacity:1" fill="#e0dbce" d="M 120.5,61.5 C 122.265,60.5386 124.265,60.2053 126.5,60.5C 128.153,60.6596 129.486,61.3263 130.5,62.5C 130.5,63.1667 130.167,63.5 129.5,63.5C 126.426,63.1274 123.426,62.4608 120.5,61.5 Z"/></g>
<g><path style="opacity:1" fill="#181512" d="M 120.5,61.5 C 123.426,62.4608 126.426,63.1274 129.5,63.5C 133.038,65.7646 136.372,68.2646 139.5,71C 139.167,71.5 138.833,72 138.5,72.5C 135.114,70.8068 131.78,69.1401 128.5,67.5C 126.228,66.6814 123.894,66.0147 121.5,65.5C 116.421,64.1736 111.421,64.5069 106.5,66.5C 105.5,66.5 104.5,66.5 103.5,66.5C 103.36,64.8762 104.027,63.7096 105.5,63C 110.464,62.0878 115.464,61.5878 120.5,61.5 Z"/></g>
<g><path style="opacity:1" fill="#4c4b47" d="M 195.5,57.5 C 197.103,57.3118 198.437,57.8118 199.5,59C 198.551,59.6172 197.718,59.4506 197,58.5C 196.947,61.2451 195.78,63.2451 193.5,64.5C 191.238,63.6551 190.571,62.3217 191.5,60.5C 192.258,61.8114 193.258,62.3114 194.5,62C 194.47,60.5707 194.803,59.0707 195.5,57.5 Z"/></g>
<g><path style="opacity:1" fill="#5e5c59" d="M 192.5,79.5 C 190.347,77.2063 188.68,74.5396 187.5,71.5C 186.19,68.5268 184.19,66.1935 181.5,64.5C 180.5,62.5 179.5,60.5 178.5,58.5C 181.157,55.5057 181.823,55.8391 180.5,59.5C 182.297,60.6951 183.297,62.3618 183.5,64.5C 184.93,64.5792 186.264,64.2458 187.5,63.5C 187.833,63.8333 188.167,64.1667 188.5,64.5C 187.189,65.2575 186.689,66.2575 187,67.5C 188.646,68.7786 189.813,70.4453 190.5,72.5C 191.609,71.4104 192.609,71.4104 193.5,72.5C 189.639,74.1573 189.639,75.6573 193.5,77C 192.748,77.6708 192.414,78.5041 192.5,79.5 Z"/></g>
<g><path style="opacity:1" fill="#8f7f69" d="M 154.5,64.5 C 152.756,73.5545 150.756,82.5545 148.5,91.5C 148.167,91.5 147.833,91.5 147.5,91.5C 148.42,89.1191 148.42,86.7857 147.5,84.5C 148.311,83.7836 148.978,82.9503 149.5,82C 147.675,77.7424 148.342,74.0757 151.5,71C 150.226,70.0228 150.226,69.1894 151.5,68.5C 152.022,66.7809 153.022,65.4475 154.5,64.5 Z"/></g>
<g><path style="opacity:1" fill="#ddd6c4" d="M 121.5,65.5 C 123.894,66.0147 126.228,66.6814 128.5,67.5C 128.5,68.1667 128.5,68.8333 128.5,69.5C 125.306,68.2424 121.973,67.5758 118.5,67.5C 118.821,65.9519 119.821,65.2852 121.5,65.5 Z"/></g>
<g><path style="opacity:1" fill="#e9e3d5" d="M 208.5,32.5 C 209.92,33.8664 211.42,35.1998 213,36.5C 214.03,36.1639 214.53,35.4972 214.5,34.5C 217.155,35.0007 219.322,36.3341 221,38.5C 223.618,44.0445 226.784,49.2111 230.5,54C 230.043,54.414 229.709,54.914 229.5,55.5C 230.831,58.8338 232.665,61.8338 235,64.5C 235.269,67.3516 236.103,70.0182 237.5,72.5C 236.96,73.7481 236.293,74.9148 235.5,76C 237.317,77.7998 238.484,79.9664 239,82.5C 240.031,89.1521 240.865,95.8188 241.5,102.5C 244.249,102.726 246.916,102.393 249.5,101.5C 250.739,101.942 251.739,102.609 252.5,103.5C 251.167,103.5 249.833,103.5 248.5,103.5C 243.833,103.5 239.167,103.5 234.5,103.5C 233.5,103.5 232.5,103.5 231.5,103.5C 231.5,104.833 231.5,106.167 231.5,107.5C 229.878,106.878 228.545,105.878 227.5,104.5C 227.972,102.469 228.972,100.802 230.5,99.5C 230.953,100.458 231.619,101.292 232.5,102C 234.81,102.497 237.143,102.663 239.5,102.5C 239.5,101.167 239.5,99.8333 239.5,98.5C 233.493,96.3192 232.493,92.8192 236.5,88C 234.558,86.0281 234.224,83.8615 235.5,81.5C 234.277,79.5401 232.944,77.7068 231.5,76C 232.328,75.0853 233.328,74.4186 234.5,74C 231.056,73.0908 229.389,70.7574 229.5,67C 231.428,64.2671 230.761,63.1005 227.5,63.5C 227.5,62.1667 227.5,60.8333 227.5,59.5C 226.041,59.5674 224.708,59.2341 223.5,58.5C 223.5,57.5 223.5,56.5 223.5,55.5C 219.36,56.0443 218.693,55.0443 221.5,52.5C 220.129,50.7408 219.129,48.7408 218.5,46.5C 217.675,45.6143 216.675,45.281 215.5,45.5C 214.36,42.9752 213.693,40.3085 213.5,37.5C 211.692,37.5086 210.025,37.0086 208.5,36C 209.345,34.4419 208.679,33.4419 206.5,33C 207.094,32.5357 207.761,32.369 208.5,32.5 Z"/></g>
<g><path style="opacity:1" fill="#d9ceb5" d="M 38.5,52.5 C 34.4366,52.616 33.7699,53.9493 36.5,56.5C 35.1667,56.8333 33.8333,57.1667 32.5,57.5C 32.5,58.5 32.5,59.5 32.5,60.5C 30.7711,69.0626 28.1045,77.2293 24.5,85C 25.727,86.5874 25.3937,87.9207 23.5,89C 23.2911,96.7717 23.6244,104.605 24.5,112.5C 22.6861,109.523 21.0195,106.523 19.5,103.5C 17.494,99.8015 16.994,95.8015 18,91.5C 19.9214,88.4896 20.9214,85.1562 21,81.5C 21.9794,79.6797 23.4794,78.513 25.5,78C 24.5838,77.6258 23.7504,77.1258 23,76.5C 22.7879,73.6685 22.6213,71.0018 22.5,68.5C 26.1204,64.9066 27.787,60.5733 27.5,55.5C 28.8333,55.5 30.1667,55.5 31.5,55.5C 31.3573,53.7376 31.6906,52.0709 32.5,50.5C 35.1056,49.2297 37.439,47.5631 39.5,45.5C 40.6808,43.8647 40.6808,42.198 39.5,40.5C 41.2895,39.1228 43.2895,38.1228 45.5,37.5C 46.4185,34.0621 48.4185,32.7288 51.5,33.5C 46.6706,39.6329 42.3373,45.9662 38.5,52.5 Z"/></g>
<g><path style="opacity:1" fill="#94938f" d="M 37.5,66.5 C 35.8589,71.7804 33.8589,76.7804 31.5,81.5C 32.6258,76.7875 33.9591,72.1208 35.5,67.5C 36.1835,67.1373 36.8501,66.8039 37.5,66.5 Z"/></g>
<g><path style="opacity:1" fill="#9f9e99" d="M 71.5,84.5 C 70.089,82.461 68.089,81.461 65.5,81.5C 65.7373,80.209 65.404,79.209 64.5,78.5C 65.8465,76.4632 67.1798,74.4632 68.5,72.5C 69.172,73.2674 70.0053,73.9341 71,74.5C 72.3088,72.0243 74.1421,70.0243 76.5,68.5C 77.5937,69.868 77.2603,71.0347 75.5,72C 76.676,73.9142 77.676,73.7476 78.5,71.5C 78.8333,71.8333 79.1667,72.1667 79.5,72.5C 78.5,73.8333 77.5,75.1667 76.5,76.5C 79.1544,78.8951 78.8211,80.8951 75.5,82.5C 74.8076,81.9747 74.3076,81.3081 74,80.5C 73.3918,82.0664 72.5585,83.3998 71.5,84.5 Z"/></g>
<g><path style="opacity:1" fill="#40301b" d="M 151.5,68.5 C 150.226,69.1894 150.226,70.0228 151.5,71C 148.342,74.0757 147.675,77.7424 149.5,82C 148.978,82.9503 148.311,83.7836 147.5,84.5C 148.42,86.7857 148.42,89.1191 147.5,91.5C 147.167,91.5 146.833,91.5 146.5,91.5C 142.198,88.2125 140.698,83.8791 142,78.5C 145.068,69.682 147.402,60.682 149,51.5C 150.5,53.8333 152,56.1667 153.5,58.5C 152.833,59.5 152.167,60.5 151.5,61.5C 151.228,63.7714 151.228,66.1047 151.5,68.5 Z"/></g>
<g><path style="opacity:1" fill="#d0d0cc" d="M 174.5,69.5 C 175.75,69.5774 176.583,70.244 177,71.5C 178.183,70.269 179.349,70.269 180.5,71.5C 179.833,72.1667 179.167,72.8333 178.5,73.5C 179.127,74.4168 179.461,75.4168 179.5,76.5C 179.53,77.4972 179.03,78.1639 178,78.5C 174.528,76.2473 173.362,73.2473 174.5,69.5 Z"/></g>
<g><path style="opacity:1" fill="#6a5e4c" d="M 121.5,65.5 C 119.821,65.2852 118.821,65.9519 118.5,67.5C 115.5,67.5 112.5,67.5 109.5,67.5C 109.5,68.5 109.5,69.5 109.5,70.5C 113.702,70.1832 117.702,70.5166 121.5,71.5C 119.219,71.0773 117.552,71.744 116.5,73.5C 113.145,73.0914 110.145,73.7581 107.5,75.5C 107.631,74.7611 107.464,74.0944 107,73.5C 105.294,74.3079 104.461,75.6412 104.5,77.5C 102.833,77.5 101.167,77.5 99.5,77.5C 99.8588,75.629 100.859,74.129 102.5,73C 101.483,71.9505 101.316,70.7839 102,69.5C 104.473,68.8959 105.973,67.8959 106.5,66.5C 111.421,64.5069 116.421,64.1736 121.5,65.5 Z"/></g>
<g><path style="opacity:1" fill="#cfc5b2" d="M 121.5,71.5 C 123.703,71.6036 125.703,72.2702 127.5,73.5C 127.5,74.1667 127.5,74.8333 127.5,75.5C 123.833,74.8333 120.167,74.1667 116.5,73.5C 117.552,71.744 119.219,71.0773 121.5,71.5 Z"/></g>
<g><path style="opacity:1" fill="#1a1612" d="M 118.5,67.5 C 121.973,67.5758 125.306,68.2424 128.5,69.5C 131.102,71.1417 133.769,72.8084 136.5,74.5C 137.386,75.325 137.719,76.325 137.5,77.5C 133.948,76.7241 130.614,75.3908 127.5,73.5C 125.703,72.2702 123.703,71.6036 121.5,71.5C 117.702,70.5166 113.702,70.1832 109.5,70.5C 109.5,69.5 109.5,68.5 109.5,67.5C 112.5,67.5 115.5,67.5 118.5,67.5 Z"/></g>
<g><path style="opacity:1" fill="#a2a19c" d="M 181.5,64.5 C 184.19,66.1935 186.19,68.5268 187.5,71.5C 184.135,72.8309 183.802,74.6642 186.5,77C 184.598,78.3938 184.265,80.2271 185.5,82.5C 184.5,82.5 183.5,82.5 182.5,82.5C 182.346,80.0301 181.346,78.0301 179.5,76.5C 179.461,75.4168 179.127,74.4168 178.5,73.5C 179.167,72.8333 179.833,72.1667 180.5,71.5C 179.349,70.269 178.183,70.269 177,71.5C 176.583,70.244 175.75,69.5774 174.5,69.5C 171.788,67.2151 172.121,66.5485 175.5,67.5C 176.287,66.7579 176.953,65.9246 177.5,65C 176.29,63.9609 175.29,62.7942 174.5,61.5C 175.117,61.3893 175.617,61.056 176,60.5C 177.451,62.4641 179.284,63.7974 181.5,64.5 Z"/></g>
<g><path style="opacity:1" fill="#575652" d="M 49.5,70.5 C 52.2257,70.2639 54.559,71.0972 56.5,73C 57.3366,74.0113 57.67,75.1779 57.5,76.5C 52.8321,76.8599 50.1654,74.8599 49.5,70.5 Z"/></g>
<g><path style="opacity:1" fill="#605f5b" d="M 204.5,72.5 C 206.705,72.8459 206.872,73.5126 205,74.5C 203.441,75.0294 201.941,75.696 200.5,76.5C 200.167,76.1667 199.833,75.8333 199.5,75.5C 201.145,74.3037 202.811,73.3037 204.5,72.5 Z"/></g>
<g><path style="opacity:1" fill="#8b7b65" d="M 107.5,75.5 C 111.167,76.1667 114.833,76.8333 118.5,77.5C 117.167,77.5 115.833,77.5 114.5,77.5C 113.539,80.4261 112.873,83.4261 112.5,86.5C 112.167,86.5 111.833,86.5 111.5,86.5C 111.799,84.396 111.466,82.396 110.5,80.5C 108.444,87.3585 110.111,93.0252 115.5,97.5C 116.833,98.5 118.167,99.5 119.5,100.5C 119.083,101.124 118.416,101.457 117.5,101.5C 114.58,100.414 111.58,99.7477 108.5,99.5C 98.1138,95.3655 95.1138,88.0321 99.5,77.5C 101.167,77.5 102.833,77.5 104.5,77.5C 104.461,75.6412 105.294,74.3079 107,73.5C 107.464,74.0944 107.631,74.7611 107.5,75.5 Z"/></g>
<g><path style="opacity:1" fill="#54534f" d="M 207.5,74.5 C 208.391,75.2613 209.058,76.2613 209.5,77.5C 206.843,78.2592 204.177,78.9258 201.5,79.5C 201.167,79.1667 200.833,78.8333 200.5,78.5C 203.427,77.8891 205.76,76.5558 207.5,74.5 Z"/></g>
<g><path style="opacity:1" fill="#989792" d="M 217.5,63.5 C 220.996,67.4287 222.996,72.0953 223.5,77.5C 226.797,77.3287 227.131,77.9954 224.5,79.5C 225.386,82.7319 226.719,85.7319 228.5,88.5C 227.626,90.7466 227.292,93.0799 227.5,95.5C 225.204,84.6075 221.871,73.9409 217.5,63.5 Z"/></g>
<g><path style="opacity:1" fill="#1d1915" d="M 116.5,73.5 C 120.167,74.1667 123.833,74.8333 127.5,75.5C 130.651,77.583 133.651,79.9163 136.5,82.5C 136,82.8333 135.5,83.1667 135,83.5C 132.08,82.2893 129.247,80.956 126.5,79.5C 125.833,79.5 125.167,79.5 124.5,79.5C 122.698,78.5418 120.698,77.8751 118.5,77.5C 114.833,76.8333 111.167,76.1667 107.5,75.5C 110.145,73.7581 113.145,73.0914 116.5,73.5 Z"/></g>
<g><path style="opacity:1" fill="#634c2e" d="M 137.5,37.5 C 140.796,38.4243 144.129,39.4243 147.5,40.5C 146.909,41.1515 146.243,41.8182 145.5,42.5C 146.833,43.5 146.833,44.5 145.5,45.5C 147.022,46.562 148.688,47.2287 150.5,47.5C 150.81,48.7383 151.31,48.7383 152,47.5C 152.099,49.6526 152.933,51.3192 154.5,52.5C 155.299,55.4299 155.632,58.4299 155.5,61.5C 154.89,62.391 154.557,63.391 154.5,64.5C 153.022,65.4475 152.022,66.7809 151.5,68.5C 151.228,66.1047 151.228,63.7714 151.5,61.5C 152.167,60.5 152.833,59.5 153.5,58.5C 152,56.1667 150.5,53.8333 149,51.5C 147.402,60.682 145.068,69.682 142,78.5C 140.698,83.8791 142.198,88.2125 146.5,91.5C 146.143,93.5891 145.477,95.5891 144.5,97.5C 141.585,96.2956 139.419,94.2956 138,91.5C 137.667,92.1667 137.333,92.8333 137,93.5C 133.667,91.5 130.333,89.5 127,87.5C 126.667,87.8333 126.333,88.1667 126,88.5C 126.152,85.553 126.319,82.553 126.5,79.5C 129.247,80.956 132.08,82.2893 135,83.5C 135.5,83.1667 136,82.8333 136.5,82.5C 133.651,79.9163 130.651,77.583 127.5,75.5C 127.5,74.8333 127.5,74.1667 127.5,73.5C 130.614,75.3908 133.948,76.7241 137.5,77.5C 137.719,76.325 137.386,75.325 136.5,74.5C 133.769,72.8084 131.102,71.1417 128.5,69.5C 128.5,68.8333 128.5,68.1667 128.5,67.5C 131.78,69.1401 135.114,70.8068 138.5,72.5C 138.833,72 139.167,71.5 139.5,71C 136.372,68.2646 133.038,65.7646 129.5,63.5C 130.167,63.5 130.5,63.1667 130.5,62.5C 133.874,63.858 137.207,65.1914 140.5,66.5C 140.719,65.325 140.386,64.325 139.5,63.5C 136.369,61.008 133.035,59.008 129.5,57.5C 130.492,57.6716 131.158,57.3382 131.5,56.5C 134.758,57.9076 137.924,59.5743 141,61.5C 141.374,60.5838 141.874,59.7504 142.5,59C 139.141,56.7338 135.808,54.5672 132.5,52.5C 132.5,51.8333 132.5,51.1667 132.5,50.5C 135.723,52.3642 138.89,54.3642 142,56.5C 142.667,55.1667 142.667,53.8333 142,52.5C 138.569,50.2039 135.069,48.2039 131.5,46.5C 132.492,46.6716 133.158,46.3382 133.5,45.5C 137.024,46.5116 140.19,48.1783 143,50.5C 144.059,50.3699 144.892,49.8699 145.5,49C 141.655,46.637 137.989,44.137 134.5,41.5C 135.167,41.5 135.5,41.1667 135.5,40.5C 138.525,41.7653 141.358,43.432 144,45.5C 144.667,44.5 144.667,43.5 144,42.5C 142.035,40.4497 139.868,38.783 137.5,37.5 Z"/></g>
<g><path style="opacity:1" fill="#dcd7ce" d="M 118.5,77.5 C 120.698,77.8751 122.698,78.5418 124.5,79.5C 124.614,83.6142 122.948,86.6142 119.5,88.5C 119.113,85.7939 118.113,83.4605 116.5,81.5C 114.466,82.5907 113.132,84.2574 112.5,86.5C 112.873,83.4261 113.539,80.4261 114.5,77.5C 115.833,77.5 117.167,77.5 118.5,77.5 Z"/></g>
<g><path style="opacity:1" fill="#5e5d59" d="M 46.5,77.5 C 48.8654,78.0084 51.1987,78.6751 53.5,79.5C 54.1924,78.9747 54.6924,78.3081 55,77.5C 55.6667,79.1667 55.6667,80.8333 55,82.5C 51.1419,83.8257 47.9753,82.8257 45.5,79.5C 45.8627,78.8165 46.1961,78.1499 46.5,77.5 Z"/></g>
<g><path style="opacity:1" fill="#18140f" d="M 116.5,81.5 C 118.113,83.4605 119.113,85.7939 119.5,88.5C 120.006,91.671 121.672,94.0043 124.5,95.5C 124.103,96.525 123.437,96.6917 122.5,96C 120.333,93.8333 118.167,91.6667 116,89.5C 115.278,86.7395 115.445,84.0728 116.5,81.5 Z"/></g>
<g><path style="opacity:1" fill="#9e9d98" d="M 71.5,84.5 C 71.5,85.8333 71.5,87.1667 71.5,88.5C 69.0509,89.0574 66.7175,89.0574 64.5,88.5C 65.9501,87.1502 66.6168,85.4835 66.5,83.5C 68.2161,83.6287 69.8828,83.962 71.5,84.5 Z"/></g>
<g><path style="opacity:1" fill="#3b352b" d="M 101.5,81.5 C 102.611,85.6639 103.111,89.9972 103,94.5C 100.701,90.3284 100.201,85.9951 101.5,81.5 Z"/></g>
<g><path style="opacity:1" fill="#8c8b87" d="M 192.5,79.5 C 193.991,79.9014 195.658,80.068 197.5,80C 193.66,81.6399 193.66,83.1399 197.5,84.5C 197.376,85.1067 197.043,85.44 196.5,85.5C 195.923,84.2267 195.257,84.2267 194.5,85.5C 195.127,86.4168 195.461,87.4168 195.5,88.5C 194.778,88.9175 194.278,89.5842 194,90.5C 193.617,89.944 193.117,89.6107 192.5,89.5C 192.5,86.1667 192.5,82.8333 192.5,79.5 Z"/></g>
<g><path style="opacity:1" fill="#363432" d="M 196.5,85.5 C 197.23,86.7124 198.23,87.7124 199.5,88.5C 199.043,89.2975 198.376,89.6309 197.5,89.5C 196.833,89.5 196.167,89.5 195.5,89.5C 195.5,89.1667 195.5,88.8333 195.5,88.5C 195.461,87.4168 195.127,86.4168 194.5,85.5C 195.257,84.2267 195.923,84.2267 196.5,85.5 Z"/></g>
<g><path style="opacity:1" fill="#8b8882" d="M 31.5,81.5 C 30.8333,86.5 30.1667,91.5 29.5,96.5C 28.5318,98.6074 28.1984,100.941 28.5,103.5C 28.631,104.239 28.4643,104.906 28,105.5C 27.9326,102.953 27.0993,100.786 25.5,99C 28.4726,96.0059 29.1393,92.5059 27.5,88.5C 29.2194,86.2906 30.5527,83.9572 31.5,81.5 Z"/></g>
<g><path style="opacity:1" fill="#878681" d="M 186.5,86.5 C 185.4,87.6049 184.733,88.9382 184.5,90.5C 187.026,93.5221 187.693,96.8554 186.5,100.5C 185.128,95.5491 183.461,90.7158 181.5,86C 183.395,86.3805 185.062,86.5472 186.5,86.5 Z"/></g>
<g><path style="opacity:1" fill="#b8b7b4" d="M 192.5,89.5 C 192.172,92.1719 190.672,93.8385 188,94.5C 187.502,92.4556 186.335,91.1223 184.5,90.5C 184.733,88.9382 185.4,87.6049 186.5,86.5C 187.467,85.1938 188.801,84.5271 190.5,84.5C 190.077,86.7812 190.744,88.4479 192.5,89.5 Z"/></g>
<g><path style="opacity:1" fill="#9a8463" d="M 124.5,79.5 C 125.167,79.5 125.833,79.5 126.5,79.5C 126.319,82.553 126.152,85.553 126,88.5C 126.333,88.1667 126.667,87.8333 127,87.5C 130.333,89.5 133.667,91.5 137,93.5C 137.333,92.8333 137.667,92.1667 138,91.5C 139.419,94.2956 141.585,96.2956 144.5,97.5C 145.477,95.5891 146.143,93.5891 146.5,91.5C 146.833,91.5 147.167,91.5 147.5,91.5C 147.126,102.547 141.96,105.547 132,100.5C 131.235,100.57 130.735,100.903 130.5,101.5C 130.5,102.833 130.5,104.167 130.5,105.5C 128.49,103.96 126.156,102.96 123.5,102.5C 122.702,102.043 122.369,101.376 122.5,100.5C 123.738,100.19 123.738,99.69 122.5,99C 124.441,98.2571 126.274,98.4238 128,99.5C 128.847,96.5096 127.68,95.1762 124.5,95.5C 121.672,94.0043 120.006,91.671 119.5,88.5C 122.948,86.6142 124.614,83.6142 124.5,79.5 Z"/></g>
<g><path style="opacity:1" fill="#5e5d58" d="M 60.5,87.5 C 60.1667,90.1667 59.8333,92.8333 59.5,95.5C 58.254,92.7067 58.5873,90.04 60.5,87.5 Z"/></g>
<g><path style="opacity:1" fill="#1f1b16" d="M 111.5,86.5 C 111.753,90.6864 113.419,94.1864 116.5,97C 116.272,97.3988 115.938,97.5654 115.5,97.5C 110.111,93.0252 108.444,87.3585 110.5,80.5C 111.466,82.396 111.799,84.396 111.5,86.5 Z"/></g>
<g><path style="opacity:1" fill="#332c24" d="M 105.5,80.5 C 105.776,86.3019 107.443,91.8019 110.5,97C 110.167,97.1667 109.833,97.3333 109.5,97.5C 107.854,96.2214 106.687,94.5547 106,92.5C 105.501,88.5138 105.334,84.5138 105.5,80.5 Z"/></g>
<g><path style="opacity:1" fill="#3e3c38" d="M 208.5,92.5 C 215.031,92.5798 215.031,93.2465 208.5,94.5C 207.5,94.3333 206.5,94.1667 205.5,94C 206.737,93.7679 207.737,93.2679 208.5,92.5 Z"/></g>
<g><path style="opacity:1" fill="#796548" d="M 116.5,81.5 C 115.445,84.0728 115.278,86.7395 116,89.5C 118.167,91.6667 120.333,93.8333 122.5,96C 123.437,96.6917 124.103,96.525 124.5,95.5C 127.68,95.1762 128.847,96.5096 128,99.5C 126.274,98.4238 124.441,98.2571 122.5,99C 123.738,99.69 123.738,100.19 122.5,100.5C 121.5,100.5 120.5,100.5 119.5,100.5C 118.167,99.5 116.833,98.5 115.5,97.5C 115.938,97.5654 116.272,97.3988 116.5,97C 113.419,94.1864 111.753,90.6864 111.5,86.5C 111.833,86.5 112.167,86.5 112.5,86.5C 113.132,84.2574 114.466,82.5907 116.5,81.5 Z"/></g>
<g><path style="opacity:1" fill="#6a6a66" d="M 195.5,89.5 C 196.167,89.5 196.833,89.5 197.5,89.5C 197.993,91.8056 198.326,94.139 198.5,96.5C 199.873,96.3433 201.207,96.51 202.5,97C 200.692,98.8438 199.026,100.677 197.5,102.5C 197.729,97.9903 197.062,93.6569 195.5,89.5 Z"/></g>
<g><path style="opacity:1" fill="#595854" d="M 211.5,96.5 C 212.251,95.4265 213.251,95.2599 214.5,96C 215.833,97 215.833,98 214.5,99C 212.109,99.2868 209.776,99.7868 207.5,100.5C 205.51,99.5373 205.177,98.204 206.5,96.5C 207.816,99.028 208.983,99.028 210,96.5C 210.826,98.4054 211.993,98.7388 213.5,97.5C 213.043,96.7025 212.376,96.3691 211.5,96.5 Z"/></g>
<g><path style="opacity:1" fill="#cac4b6" d="M 46.5,96.5 C 45.2652,96.7214 44.2652,97.3881 43.5,98.5C 43.0894,97.7376 42.9227,96.7376 43,95.5C 41.3181,96.8646 41.1514,98.3646 42.5,100C 45.2605,100.722 47.9272,100.555 50.5,99.5C 50.5,101.833 50.5,104.167 50.5,106.5C 48.8212,106.715 47.8212,106.048 47.5,104.5C 48.1174,104.611 48.6174,104.944 49,105.5C 49.6667,104.167 49.6667,102.833 49,101.5C 47.47,102.92 45.6367,103.92 43.5,104.5C 43.9698,105.463 44.6365,105.463 45.5,104.5C 44.4479,106.256 42.7812,106.923 40.5,106.5C 39.006,102.723 38.3394,98.723 38.5,94.5C 40.8568,94.3367 43.1902,94.5034 45.5,95C 46.056,95.3826 46.3893,95.8826 46.5,96.5 Z"/></g>
<g><path style="opacity:1" fill="#6d6150" d="M 46.5,96.5 C 48.9726,96.0882 50.3059,97.0882 50.5,99.5C 47.9272,100.555 45.2605,100.722 42.5,100C 41.1514,98.3646 41.3181,96.8646 43,95.5C 42.9227,96.7376 43.0894,97.7376 43.5,98.5C 44.2652,97.3881 45.2652,96.7214 46.5,96.5 Z"/></g>
<g><path style="opacity:1" fill="#858480" d="M 227.5,95.5 C 228.341,96.9264 229.341,98.2597 230.5,99.5C 228.972,100.802 227.972,102.469 227.5,104.5C 227.5,101.5 227.5,98.5 227.5,95.5 Z"/></g>
<g><path style="opacity:1" fill="#65645f" d="M 58.5,98.5 C 58.5,99.8333 58.5,101.167 58.5,102.5C 56.9582,103.301 55.2915,103.634 53.5,103.5C 56.4643,102.266 57.9643,99.9326 58,96.5C 58.4643,97.0944 58.631,97.7611 58.5,98.5 Z"/></g>
<g><path style="opacity:1" fill="#e3dfd5" d="M 176.5,102.5 C 161.628,103.808 146.628,103.808 131.5,102.5C 131.5,101.833 131.167,101.5 130.5,101.5C 130.735,100.903 131.235,100.57 132,100.5C 141.96,105.547 147.126,102.547 147.5,91.5C 147.833,91.5 148.167,91.5 148.5,91.5C 147.888,95.8762 149.054,96.5429 152,93.5C 152.206,89.8687 153.373,89.5354 155.5,92.5C 156.419,95.7231 155.753,98.7231 153.5,101.5C 161.138,102.497 168.804,102.831 176.5,102.5 Z"/></g>
<g><path style="opacity:1" fill="#474541" d="M 47.5,104.5 C 46.8333,104.5 46.1667,104.5 45.5,104.5C 44.6365,105.463 43.9698,105.463 43.5,104.5C 45.6367,103.92 47.47,102.92 49,101.5C 49.6667,102.833 49.6667,104.167 49,105.5C 48.6174,104.944 48.1174,104.611 47.5,104.5 Z"/></g>
<g><path style="opacity:1" fill="#d2cdcb" d="M 108.5,99.5 C 111.58,99.7477 114.58,100.414 117.5,101.5C 118.416,101.457 119.083,101.124 119.5,100.5C 120.5,100.5 121.5,100.5 122.5,100.5C 122.369,101.376 122.702,102.043 123.5,102.5C 126.156,102.96 128.49,103.96 130.5,105.5C 130.5,109.167 130.5,112.833 130.5,116.5C 128.896,113.597 127.896,110.263 127.5,106.5C 126.914,106.291 126.414,105.957 126,105.5C 125.821,109.025 125.321,112.359 124.5,115.5C 124.665,111.818 124.499,108.152 124,104.5C 123.751,105.624 123.251,106.624 122.5,107.5C 120.833,106.667 119.167,105.833 117.5,105C 110.654,104.179 103.987,104.346 97.5,105.5C 96.0915,106.061 94.5915,106.395 93,106.5C 90.0423,105.141 86.8757,104.474 83.5,104.5C 83.5,105.5 83.5,106.5 83.5,107.5C 85.4832,107.157 86.8166,107.824 87.5,109.5C 85.6481,108.911 83.8148,108.244 82,107.5C 81.2888,105.633 81.7888,104.133 83.5,103C 93.5,102.667 103.5,102.333 113.5,102C 111.685,101.243 110.019,100.41 108.5,99.5 Z"/></g>
<g><path style="opacity:1" fill="#cac2c0" d="M 183.5,101.5 C 182.683,103.969 182.183,106.635 182,109.5C 180.048,107.106 177.548,105.606 174.5,105C 169.648,104.185 164.981,104.352 160.5,105.5C 158.167,110.833 155.833,110.833 153.5,105.5C 148.684,104.35 143.684,104.184 138.5,105C 135.898,105.883 133.731,107.383 132,109.5C 131.503,107.19 131.337,104.857 131.5,102.5C 146.628,103.808 161.628,103.808 176.5,102.5C 178.677,102.414 180.677,101.747 182.5,100.5C 183.107,100.624 183.44,100.957 183.5,101.5 Z"/></g>
<g><path style="opacity:1" fill="#77746e" d="M 130.5,101.5 C 131.167,101.5 131.5,101.833 131.5,102.5C 131.337,104.857 131.503,107.19 132,109.5C 133.731,107.383 135.898,105.883 138.5,105C 143.684,104.184 148.684,104.35 153.5,105.5C 149.087,107.138 144.421,108.138 139.5,108.5C 136.633,108.369 134.967,109.703 134.5,112.5C 133.566,113.568 133.232,114.901 133.5,116.5C 132.5,116.5 131.5,116.5 130.5,116.5C 130.5,112.833 130.5,109.167 130.5,105.5C 130.5,104.167 130.5,102.833 130.5,101.5 Z"/></g>
<g><path style="opacity:1" fill="#ded5c0" d="M 29.5,96.5 C 31.8475,98.837 34.5142,100.837 37.5,102.5C 39.7809,105.226 40.1143,108.226 38.5,111.5C 38.1667,113.167 37.1667,114.167 35.5,114.5C 32.6108,111.128 30.2774,107.461 28.5,103.5C 28.1984,100.941 28.5318,98.6074 29.5,96.5 Z"/></g>
<g><path style="opacity:1" fill="#bcb1b0" d="M 58.5,102.5 C 61.6248,103.479 64.9581,103.813 68.5,103.5C 67.5423,104.962 66.3756,106.295 65,107.5C 64.5045,109.473 64.3379,111.473 64.5,113.5C 61.9486,114.949 59.6152,114.615 57.5,112.5C 56.3777,113.63 55.0443,114.297 53.5,114.5C 54.4991,111.171 55.4991,107.838 56.5,104.5C 55.209,104.737 54.209,104.404 53.5,103.5C 55.2915,103.634 56.9582,103.301 58.5,102.5 Z"/></g>
<g><path style="opacity:1" fill="#9c948f" d="M 97.5,105.5 C 97.6107,106.117 97.944,106.617 98.5,107C 105.013,107.172 111.347,107.672 117.5,108.5C 111.167,108.5 104.833,108.5 98.5,108.5C 98.175,116.019 98.5084,123.352 99.5,130.5C 105.167,130.5 110.833,130.5 116.5,130.5C 110.355,131.49 104.022,131.823 97.5,131.5C 98.139,125.191 97.8056,121.858 96.5,121.5C 94.8333,121.5 93.1667,121.5 91.5,121.5C 91.6653,117.818 91.4986,114.152 91,110.5C 90.5004,117.158 90.3337,123.825 90.5,130.5C 90.8261,139.017 90.4927,147.35 89.5,155.5C 89.8293,140.657 89.496,125.99 88.5,111.5C 88.6716,110.508 88.3382,109.842 87.5,109.5C 86.8166,107.824 85.4832,107.157 83.5,107.5C 83.5,106.5 83.5,105.5 83.5,104.5C 86.8757,104.474 90.0423,105.141 93,106.5C 94.5915,106.395 96.0915,106.061 97.5,105.5 Z"/></g>
<g><path style="opacity:1" fill="#b8b6b0" d="M 183.5,101.5 C 184.748,102.334 185.415,103.667 185.5,105.5C 185.034,108.492 184.701,111.492 184.5,114.5C 183.515,110.366 183.182,106.032 183.5,101.5 Z"/></g>
<g><path style="opacity:1" fill="#bbb0af" d="M 234.5,103.5 C 239.167,103.5 243.833,103.5 248.5,103.5C 246.109,105.615 244.776,108.281 244.5,111.5C 243.448,113.256 241.781,113.923 239.5,113.5C 239.39,109.28 237.723,105.946 234.5,103.5 Z"/></g>
<g><path style="opacity:1" fill="#827975" d="M 183.5,101.5 C 183.182,106.032 183.515,110.366 184.5,114.5C 184.179,116.048 183.179,116.715 181.5,116.5C 181.813,113.163 180.48,110.829 177.5,109.5C 172.36,108.512 167.026,108.179 161.5,108.5C 161.5,124.5 161.5,140.5 161.5,156.5C 160.506,147.348 160.173,138.015 160.5,128.5C 160.66,126.801 160.494,125.134 160,123.5C 159.751,124.624 159.251,125.624 158.5,126.5C 156.491,125.935 154.824,124.935 153.5,123.5C 152.994,118.3 153.327,115.3 154.5,114.5C 156.167,114.5 157.833,114.5 159.5,114.5C 159.963,111.518 160.296,108.518 160.5,105.5C 164.981,104.352 169.648,104.185 174.5,105C 177.548,105.606 180.048,107.106 182,109.5C 182.183,106.635 182.683,103.969 183.5,101.5 Z"/></g>
<g><path style="opacity:1" fill="#b1a4a3" d="M 7.5,103.5 C 11.5,103.5 15.5,103.5 19.5,103.5C 21.0195,106.523 22.6861,109.523 24.5,112.5C 25.1667,114.5 25.8333,116.5 26.5,118.5C 23.8534,117.927 21.1867,117.26 18.5,116.5C 18.0032,113.45 16.5032,112.45 14,113.5C 13.6667,111.5 13.3333,109.5 13,107.5C 10.9847,106.303 9.15134,104.97 7.5,103.5 Z"/></g>
<g><path style="opacity:1" fill="#727069" d="M 124.5,115.5 C 123.5,115.5 122.5,115.5 121.5,115.5C 121.598,113.447 120.931,111.78 119.5,110.5C 119.5,109.167 118.833,108.5 117.5,108.5C 111.347,107.672 105.013,107.172 98.5,107C 97.944,106.617 97.6107,106.117 97.5,105.5C 103.987,104.346 110.654,104.179 117.5,105C 119.167,105.833 120.833,106.667 122.5,107.5C 123.251,106.624 123.751,105.624 124,104.5C 124.499,108.152 124.665,111.818 124.5,115.5 Z"/></g>
<g><path style="opacity:1" fill="#99938e" d="M 153.5,105.5 C 155.833,110.833 158.167,110.833 160.5,105.5C 160.296,108.518 159.963,111.518 159.5,114.5C 157.833,114.5 156.167,114.5 154.5,114.5C 153.327,115.3 152.994,118.3 153.5,123.5C 153.5,126.167 153.5,128.833 153.5,131.5C 153.826,140.017 153.493,148.35 152.5,156.5C 152.5,140.5 152.5,124.5 152.5,108.5C 148.167,108.5 143.833,108.5 139.5,108.5C 144.421,108.138 149.087,107.138 153.5,105.5 Z"/></g>
<g><path style="opacity:1" fill="#7f7670" d="M 7.5,103.5 C 9.15134,104.97 10.9847,106.303 13,107.5C 13.3333,109.5 13.6667,111.5 14,113.5C 16.5032,112.45 18.0032,113.45 18.5,116.5C 21.1867,117.26 23.8534,117.927 26.5,118.5C 27.8333,121.833 29.1667,125.167 30.5,128.5C 27.3711,128.181 24.5378,127.181 22,125.5C 22.0967,130.027 23.5967,134.027 26.5,137.5C 28.8822,146.003 32.2156,154.003 36.5,161.5C 39.8666,155.095 42.8666,148.428 45.5,141.5C 48.3845,135.381 51.0512,129.048 53.5,122.5C 52.675,121.614 51.675,121.281 50.5,121.5C 51.2271,119.046 52.2271,116.713 53.5,114.5C 55.0443,114.297 56.3777,113.63 57.5,112.5C 59.6152,114.615 61.9486,114.949 64.5,113.5C 64.5,116.167 64.5,118.833 64.5,121.5C 62.8333,121.5 61.1667,121.5 59.5,121.5C 59.6602,119.801 59.4935,118.134 59,116.5C 58.5012,120.486 58.3345,124.486 58.5,128.5C 57.8347,126.302 57.1681,123.969 56.5,121.5C 55.8933,121.624 55.56,121.957 55.5,122.5C 50.8788,131.422 47.0455,140.756 44,150.5C 41.7236,155.392 39.2236,160.059 36.5,164.5C 28.5679,150.624 22.2346,135.958 17.5,120.5C 16.3129,119.466 15.4796,118.133 15,116.5C 14.8283,123.346 14.3283,130.013 13.5,136.5C 13.6633,134.143 13.4966,131.81 13,129.5C 12.2917,130.381 11.4584,131.047 10.5,131.5C 10.9603,125.65 11.627,119.817 12.5,114C 12.3917,112.319 11.7251,111.152 10.5,110.5C 8.53091,108.841 6.53091,107.175 4.5,105.5C 5.00475,104.081 6.00475,103.415 7.5,103.5 Z"/></g>
<g><path style="opacity:1" fill="#d0d0ce" d="M 117.5,108.5 C 118.833,108.5 119.5,109.167 119.5,110.5C 112.922,109.54 106.255,109.207 99.5,109.5C 99.5,116.5 99.5,123.5 99.5,130.5C 98.5084,123.352 98.175,116.019 98.5,108.5C 104.833,108.5 111.167,108.5 117.5,108.5 Z"/></g>
<g><path style="opacity:1" fill="#cfcecc" d="M 208.5,108.5 C 207.534,122.785 207.2,137.118 207.5,151.5C 206.566,150.432 206.232,149.099 206.5,147.5C 206.333,134.829 206.5,122.162 207,109.5C 207.383,108.944 207.883,108.611 208.5,108.5 Z"/></g>
<g><path style="opacity:1" fill="#d0d0ce" d="M 177.5,109.5 C 172.5,109.5 167.5,109.5 162.5,109.5C 162.5,125.833 162.5,142.167 162.5,158.5C 161.662,158.158 161.328,157.492 161.5,156.5C 161.5,140.5 161.5,124.5 161.5,108.5C 167.026,108.179 172.36,108.512 177.5,109.5 Z"/></g>
<g><path style="opacity:1" fill="#8a8078" d="M 234.5,103.5 C 237.723,105.946 239.39,109.28 239.5,113.5C 241.781,113.923 243.448,113.256 244.5,111.5C 245.483,115.298 245.817,119.298 245.5,123.5C 243.683,127.005 241.517,127.005 239,123.5C 238.502,126.482 238.335,129.482 238.5,132.5C 238.822,138.358 238.489,144.025 237.5,149.5C 237.597,141.809 237.263,134.142 236.5,126.5C 236.666,120.824 236.499,115.157 236,109.5C 234.89,107.963 233.39,107.297 231.5,107.5C 231.5,106.167 231.5,104.833 231.5,103.5C 232.5,103.5 233.5,103.5 234.5,103.5 Z"/></g>
<g><path style="opacity:1" fill="#d5d4d3" d="M 139.5,108.5 C 143.833,108.5 148.167,108.5 152.5,108.5C 152.5,124.5 152.5,140.5 152.5,156.5C 152.672,157.492 152.338,158.158 151.5,158.5C 151.5,142.167 151.5,125.833 151.5,109.5C 146.821,109.334 142.155,109.501 137.5,110C 136.627,111.045 135.627,111.878 134.5,112.5C 134.967,109.703 136.633,108.369 139.5,108.5 Z"/></g>
<g><path style="opacity:1" fill="#c9c8c5" d="M 10.5,110.5 C 11.7251,111.152 12.3917,112.319 12.5,114C 11.627,119.817 10.9603,125.65 10.5,131.5C 10.1667,136.167 9.83333,140.833 9.5,145.5C 9.72757,149.924 8.72757,153.924 6.5,157.5C 8.25876,141.879 9.5921,126.212 10.5,110.5 Z"/></g>
<g><path style="opacity:1" fill="#786966" d="M 68.5,103.5 C 69.8333,103.5 71.1667,103.5 72.5,103.5C 72.5,104.833 72.5,106.167 72.5,107.5C 70.302,107.12 68.6354,107.787 67.5,109.5C 66.2353,110.514 65.5687,112.014 65.5,114C 66.1978,118.811 66.5312,123.644 66.5,128.5C 64.2075,128.756 62.0408,128.423 60,127.5C 59.502,130.482 59.3354,133.482 59.5,136.5C 58.5269,134.052 58.1936,131.385 58.5,128.5C 58.3345,124.486 58.5012,120.486 59,116.5C 59.4935,118.134 59.6602,119.801 59.5,121.5C 61.1667,121.5 62.8333,121.5 64.5,121.5C 64.5,118.833 64.5,116.167 64.5,113.5C 64.3379,111.473 64.5045,109.473 65,107.5C 66.3756,106.295 67.5423,104.962 68.5,103.5 Z"/></g>
<g><path style="opacity:1" fill="#939088" d="M 248.5,103.5 C 249.833,103.5 251.167,103.5 252.5,103.5C 252.5,104.833 252.5,106.167 252.5,107.5C 248.962,107.215 247.129,108.882 247,112.5C 246.5,126.829 246.333,141.163 246.5,155.5C 245.507,147.016 245.174,138.349 245.5,129.5C 245.5,127.5 245.5,125.5 245.5,123.5C 245.817,119.298 245.483,115.298 244.5,111.5C 244.776,108.281 246.109,105.615 248.5,103.5 Z"/></g>
<g><path style="opacity:1" fill="#cbc9c6" d="M 67.5,109.5 C 68.1384,125.522 69.1384,141.522 70.5,157.5C 69.7784,157.082 69.2784,156.416 69,155.5C 68.3159,150.178 67.8159,144.844 67.5,139.5C 67.4476,135.802 67.1143,132.135 66.5,128.5C 66.5312,123.644 66.1978,118.811 65.5,114C 65.5687,112.014 66.2353,110.514 67.5,109.5 Z"/></g>
<g><path style="opacity:1" fill="#6c5352" d="M 153.5,123.5 C 154.824,124.935 156.491,125.935 158.5,126.5C 159.251,125.624 159.751,124.624 160,123.5C 160.494,125.134 160.66,126.801 160.5,128.5C 159.549,129.919 159.216,131.585 159.5,133.5C 157.114,133.741 155.114,133.075 153.5,131.5C 153.5,128.833 153.5,126.167 153.5,123.5 Z"/></g>
<g><path style="opacity:1" fill="#634f4c" d="M 116.5,130.5 C 118.562,128.63 119.895,126.297 120.5,123.5C 121.107,123.624 121.44,123.957 121.5,124.5C 121.829,130.206 121.495,135.872 120.5,141.5C 119.866,139.228 118.532,137.561 116.5,136.5C 110.07,136.082 103.736,135.082 97.5,133.5C 96.596,134.209 96.2627,135.209 96.5,136.5C 94.8333,136.5 93.1667,136.5 91.5,136.5C 91.7947,134.265 91.4614,132.265 90.5,130.5C 90.3337,123.825 90.5004,117.158 91,110.5C 91.4986,114.152 91.6653,117.818 91.5,121.5C 93.1667,121.5 94.8333,121.5 96.5,121.5C 97.8056,121.858 98.139,125.191 97.5,131.5C 104.022,131.823 110.355,131.49 116.5,130.5 Z"/></g>
<g><path style="opacity:1" fill="#654a49" d="M 245.5,123.5 C 245.5,125.5 245.5,127.5 245.5,129.5C 244.532,131.607 244.198,133.941 244.5,136.5C 242.833,136.5 241.167,136.5 239.5,136.5C 239.768,134.901 239.434,133.568 238.5,132.5C 238.335,129.482 238.502,126.482 239,123.5C 241.517,127.005 243.683,127.005 245.5,123.5 Z"/></g>
<g><path style="opacity:1" fill="#5e4946" d="M 50.5,121.5 C 51.675,121.281 52.675,121.614 53.5,122.5C 51.0512,129.048 48.3845,135.381 45.5,141.5C 45.5,140.167 44.8333,139.5 43.5,139.5C 45.4392,133.35 47.7725,127.35 50.5,121.5 Z"/></g>
<g><path style="opacity:1" fill="#847d78" d="M 191.5,103.5 C 192.5,103.5 193.5,103.5 194.5,103.5C 197.836,105.454 199.502,108.454 199.5,112.5C 201.167,112.5 202.833,112.5 204.5,112.5C 204.683,108.937 206.017,105.937 208.5,103.5C 209.833,103.5 211.167,103.5 212.5,103.5C 212.5,104.5 212.5,105.5 212.5,106.5C 210.62,106.229 209.287,106.896 208.5,108.5C 207.883,108.611 207.383,108.944 207,109.5C 206.5,122.162 206.333,134.829 206.5,147.5C 205.51,141.69 205.177,135.69 205.5,129.5C 205.666,124.489 205.499,119.489 205,114.5C 204.503,116.81 204.337,119.143 204.5,121.5C 202.833,121.5 201.167,121.5 199.5,121.5C 199.663,119.143 199.497,116.81 199,114.5C 198.501,119.155 198.334,123.821 198.5,128.5C 198.334,135.841 198.5,143.174 199,150.5C 200.259,155.252 203.092,158.586 207.5,160.5C 207.733,162.062 208.4,163.395 209.5,164.5C 204.114,162.121 200.281,158.121 198,152.5C 197.667,138.5 197.333,124.5 197,110.5C 196.626,109.584 196.126,108.75 195.5,108C 193.899,107.727 192.399,107.227 191,106.5C 190.26,105.251 190.427,104.251 191.5,103.5 Z"/></g>
<g><path style="opacity:1" fill="#745d5c" d="M 205.5,129.5 C 203.886,131.075 201.886,131.741 199.5,131.5C 199.737,130.209 199.404,129.209 198.5,128.5C 198.334,123.821 198.501,119.155 199,114.5C 199.497,116.81 199.663,119.143 199.5,121.5C 201.167,121.5 202.833,121.5 204.5,121.5C 204.337,119.143 204.503,116.81 205,114.5C 205.499,119.489 205.666,124.489 205.5,129.5 Z"/></g>
<g><path style="opacity:1" fill="#bdb2b1" d="M 194.5,103.5 C 199.167,103.5 203.833,103.5 208.5,103.5C 206.017,105.937 204.683,108.937 204.5,112.5C 202.833,112.5 201.167,112.5 199.5,112.5C 199.502,108.454 197.836,105.454 194.5,103.5 Z"/></g>
<g><path style="opacity:1" fill="#614746" d="M 30.5,128.5 C 31.8307,131.829 33.164,135.162 34.5,138.5C 31.7628,138.599 29.0961,138.265 26.5,137.5C 23.5967,134.027 22.0967,130.027 22,125.5C 24.5378,127.181 27.3711,128.181 30.5,128.5 Z"/></g>
<g><path style="opacity:1" fill="#cacac6" d="M 55.5,122.5 C 55.56,121.957 55.8933,121.624 56.5,121.5C 57.1681,123.969 57.8347,126.302 58.5,128.5C 58.1936,131.385 58.5269,134.052 59.5,136.5C 59.2053,138.735 59.5386,140.735 60.5,142.5C 60.6658,147.179 60.4992,151.845 60,156.5C 59.7216,157.416 59.2216,158.082 58.5,158.5C 59.016,146.227 58.016,134.227 55.5,122.5 Z"/></g>
<g><path style="opacity:1" fill="#5a403f" d="M 66.5,128.5 C 67.1143,132.135 67.4476,135.802 67.5,139.5C 65.429,139.502 63.2623,139.169 61,138.5C 60.51,139.793 60.3433,141.127 60.5,142.5C 59.5386,140.735 59.2053,138.735 59.5,136.5C 59.3354,133.482 59.502,130.482 60,127.5C 62.0408,128.423 64.2075,128.756 66.5,128.5 Z"/></g>
<g><path style="opacity:1" fill="#cbcac8" d="M 88.5,111.5 C 89.496,125.99 89.8293,140.657 89.5,155.5C 89.3404,157.153 88.6737,158.486 87.5,159.5C 88.4547,143.535 88.7881,127.535 88.5,111.5 Z"/></g>
<g><path style="opacity:1" fill="#c1bcb2" d="M 236.5,126.5 C 237.263,134.142 237.597,141.809 237.5,149.5C 237.672,150.492 237.338,151.158 236.5,151.5C 236.666,145.491 236.499,139.491 236,133.5C 233.952,130.857 234.119,128.524 236.5,126.5 Z"/></g>
<g><path style="opacity:1" fill="#563d3b" d="M 13.5,136.5 C 13.7678,138.099 13.4345,139.432 12.5,140.5C 11.0652,141.913 10.0652,143.58 9.5,145.5C 9.83333,140.833 10.1667,136.167 10.5,131.5C 11.4584,131.047 12.2917,130.381 13,129.5C 13.4966,131.81 13.6633,134.143 13.5,136.5 Z"/></g>
<g><path style="opacity:1" fill="#b5b3af" d="M 17.5,120.5 C 15.9437,130.699 14.277,141.032 12.5,151.5C 12.5,147.833 12.5,144.167 12.5,140.5C 13.4345,139.432 13.7678,138.099 13.5,136.5C 14.3283,130.013 14.8283,123.346 15,116.5C 15.4796,118.133 16.3129,119.466 17.5,120.5 Z"/></g>
<g><path style="opacity:1" fill="#8e8982" d="M 97.5,133.5 C 103.736,135.082 110.07,136.082 116.5,136.5C 110.5,136.5 104.5,136.5 98.5,136.5C 98.5,142.833 98.5,149.167 98.5,155.5C 97.5084,148.352 97.175,141.019 97.5,133.5 Z"/></g>
<g><path style="opacity:1" fill="#412120" d="M 26.5,137.5 C 29.0961,138.265 31.7628,138.599 34.5,138.5C 35.7138,141.93 37.2138,145.264 39,148.5C 40.5459,145.408 42.0459,142.408 43.5,139.5C 44.8333,139.5 45.5,140.167 45.5,141.5C 42.8666,148.428 39.8666,155.095 36.5,161.5C 32.2156,154.003 28.8822,146.003 26.5,137.5 Z"/></g>
<g><path style="opacity:1" fill="#dfd7c6" d="M 121.5,124.5 C 123.289,129.407 124.122,134.74 124,140.5C 127.594,137.302 131.761,136.135 136.5,137C 137.357,137.689 138.023,138.522 138.5,139.5C 137.139,141.028 135.972,142.695 135,144.5C 134.82,147.956 134.153,151.289 133,154.5C 131.915,155.293 130.748,155.96 129.5,156.5C 128.213,151.979 126.213,147.646 123.5,143.5C 121.955,142.548 120.288,142.215 118.5,142.5C 118.296,140.315 117.63,138.315 116.5,136.5C 118.532,137.561 119.866,139.228 120.5,141.5C 121.495,135.872 121.829,130.206 121.5,124.5 Z"/></g>
<g><path style="opacity:1" fill="#401f1e" d="M 67.5,139.5 C 67.8159,144.844 68.3159,150.178 69,155.5C 69.2784,156.416 69.7784,157.082 70.5,157.5C 71.4006,159.727 73.0672,160.727 75.5,160.5C 68.8333,161.833 62.1667,161.833 55.5,160.5C 57.0269,160.573 58.0269,159.906 58.5,158.5C 59.2216,158.082 59.7216,157.416 60,156.5C 60.4992,151.845 60.6658,147.179 60.5,142.5C 60.3433,141.127 60.51,139.793 61,138.5C 63.2623,139.169 65.429,139.502 67.5,139.5 Z"/></g>
<g><path style="opacity:1" fill="#40201f" d="M 90.5,130.5 C 91.4614,132.265 91.7947,134.265 91.5,136.5C 93.1667,136.5 94.8333,136.5 96.5,136.5C 96.2627,135.209 96.596,134.209 97.5,133.5C 97.175,141.019 97.5084,148.352 98.5,155.5C 98.6897,159.357 100.69,161.024 104.5,160.5C 104.5,160.833 104.5,161.167 104.5,161.5C 97.6457,161.824 90.979,161.491 84.5,160.5C 85.609,160.443 86.609,160.11 87.5,159.5C 88.6737,158.486 89.3404,157.153 89.5,155.5C 90.4927,147.35 90.8261,139.017 90.5,130.5 Z"/></g>
<g><path style="opacity:1" fill="#422020" d="M 160.5,128.5 C 160.173,138.015 160.506,147.348 161.5,156.5C 161.328,157.492 161.662,158.158 162.5,158.5C 163.913,159.935 165.58,160.935 167.5,161.5C 160.5,161.5 153.5,161.5 146.5,161.5C 148.42,160.935 150.087,159.935 151.5,158.5C 152.338,158.158 152.672,157.492 152.5,156.5C 153.493,148.35 153.826,140.017 153.5,131.5C 155.114,133.075 157.114,133.741 159.5,133.5C 159.216,131.585 159.549,129.919 160.5,128.5 Z"/></g>
<g><path style="opacity:1" fill="#422222" d="M 198.5,128.5 C 199.404,129.209 199.737,130.209 199.5,131.5C 201.886,131.741 203.886,131.075 205.5,129.5C 205.177,135.69 205.51,141.69 206.5,147.5C 206.232,149.099 206.566,150.432 207.5,151.5C 207.833,152.167 208.167,152.833 208.5,153.5C 209.833,155.5 211.5,157.167 213.5,158.5C 213.611,159.117 213.944,159.617 214.5,160C 218.211,160.175 221.878,160.675 225.5,161.5C 219.338,164.192 213.338,163.858 207.5,160.5C 203.092,158.586 200.259,155.252 199,150.5C 198.5,143.174 198.334,135.841 198.5,128.5 Z"/></g>
<g><path style="opacity:1" fill="#412020" d="M 245.5,129.5 C 245.174,138.349 245.507,147.016 246.5,155.5C 246.75,157.674 247.75,159.341 249.5,160.5C 246.038,161.482 242.371,161.815 238.5,161.5C 238.808,159.076 238.474,156.743 237.5,154.5C 235.144,156.69 232.644,158.69 230,160.5C 229.53,159.423 229.697,158.423 230.5,157.5C 232.833,155.833 234.833,153.833 236.5,151.5C 237.338,151.158 237.672,150.492 237.5,149.5C 238.489,144.025 238.822,138.358 238.5,132.5C 239.434,133.568 239.768,134.901 239.5,136.5C 241.167,136.5 242.833,136.5 244.5,136.5C 244.198,133.941 244.532,131.607 245.5,129.5 Z"/></g>
<g><path style="opacity:1" fill="#f4f1eb" d="M 231.5,107.5 C 233.39,107.297 234.89,107.963 236,109.5C 236.499,115.157 236.666,120.824 236.5,126.5C 234.119,128.524 233.952,130.857 236,133.5C 236.499,139.491 236.666,145.491 236.5,151.5C 234.833,153.833 232.833,155.833 230.5,157.5C 224.935,159.623 219.268,159.957 213.5,158.5C 211.5,157.167 209.833,155.5 208.5,153.5C 209.822,153.33 210.989,153.663 212,154.5C 212.615,152.884 213.615,151.551 215,150.5C 214.371,147.516 214.537,144.516 215.5,141.5C 217.709,140.08 219.709,138.413 221.5,136.5C 223.045,135.548 224.712,135.215 226.5,135.5C 226.34,133.801 226.506,132.134 227,130.5C 229.485,132.804 229.985,132.137 228.5,128.5C 227.549,129.326 226.549,129.492 225.5,129C 227.008,127.175 229.008,125.175 231.5,123C 230.216,122.316 229.049,122.483 228,123.5C 227.15,121.99 226.317,120.49 225.5,119C 226.615,117.765 226.615,116.598 225.5,115.5C 226.452,111.145 227.619,110.812 229,114.5C 230.011,113.663 231.178,113.33 232.5,113.5C 232.675,111.379 232.341,109.379 231.5,107.5 Z"/></g>
<g><path style="opacity:1" fill="#ccbf9e" d="M 233.5,135.5 C 234.043,135.56 234.376,135.893 234.5,136.5C 233.514,141.961 232.014,147.295 230,152.5C 227.012,153.744 224.845,152.744 223.5,149.5C 224.154,147.885 224.654,146.218 225,144.5C 227.396,141.001 230.229,138.001 233.5,135.5 Z"/></g>
<g><path style="opacity:1" fill="#412120" d="M 12.5,140.5 C 12.5,144.167 12.5,147.833 12.5,151.5C 12.2775,156.6 14.6108,159.6 19.5,160.5C 13.8333,161.833 8.16667,161.833 2.5,160.5C 4.40435,160.262 5.73769,159.262 6.5,157.5C 8.72757,153.924 9.72757,149.924 9.5,145.5C 10.0652,143.58 11.0652,141.913 12.5,140.5 Z"/></g>
<g><path style="opacity:1" fill="#4f4c49" d="M 146.5,161.5 C 153.5,161.5 160.5,161.5 167.5,161.5C 167.5,162.5 167.5,163.5 167.5,164.5C 160.5,164.5 153.5,164.5 146.5,164.5C 146.5,163.5 146.5,162.5 146.5,161.5 Z"/></g>
<g><path style="opacity:1" fill="#625f5b" d="M 2.5,160.5 C 8.16667,161.833 13.8333,161.833 19.5,160.5C 20.4345,161.568 20.7678,162.901 20.5,164.5C 14.1667,164.5 7.83333,164.5 1.5,164.5C 1.23219,162.901 1.56552,161.568 2.5,160.5 Z"/></g>
<g><path style="opacity:1" fill="#635f5b" d="M 55.5,160.5 C 62.1667,161.833 68.8333,161.833 75.5,160.5C 76.4345,161.568 76.7678,162.901 76.5,164.5C 69.1667,164.5 61.8333,164.5 54.5,164.5C 54.2322,162.901 54.5655,161.568 55.5,160.5 Z"/></g>
<g><path style="opacity:1" fill="#cbcbc9" d="M 146.5,161.5 C 146.5,162.5 146.5,163.5 146.5,164.5C 153.5,164.5 160.5,164.5 167.5,164.5C 160.018,165.492 152.352,165.825 144.5,165.5C 144.157,163.517 144.824,162.183 146.5,161.5 Z"/></g>
<g><path style="opacity:1" fill="#59524c" d="M 249.5,160.5 C 250.5,160.5 251.5,160.5 252.5,160.5C 252.5,161.833 252.5,163.167 252.5,164.5C 247.5,164.5 242.5,164.5 237.5,164.5C 237.799,162.396 237.466,160.396 236.5,158.5C 234.581,159.612 232.914,160.946 231.5,162.5C 224.369,165.391 217.036,166.057 209.5,164.5C 208.4,163.395 207.733,162.062 207.5,160.5C 213.338,163.858 219.338,164.192 225.5,161.5C 221.878,160.675 218.211,160.175 214.5,160C 213.944,159.617 213.611,159.117 213.5,158.5C 219.268,159.957 224.935,159.623 230.5,157.5C 229.697,158.423 229.53,159.423 230,160.5C 232.644,158.69 235.144,156.69 237.5,154.5C 238.474,156.743 238.808,159.076 238.5,161.5C 242.371,161.815 246.038,161.482 249.5,160.5 Z"/></g>
<g><path style="opacity:1" fill="#d1c8b4" d="M 113.5,158.5 C 114.547,159.078 114.38,159.744 113,160.5C 111.129,159.332 109.629,159.832 108.5,162C 109.91,162.368 110.91,163.201 111.5,164.5C 109.78,165.934 107.78,166.767 105.5,167C 104.167,168 104.167,169 105.5,170C 101.848,170.499 98.1817,170.665 94.5,170.5C 94.8212,168.952 95.8212,168.285 97.5,168.5C 97.5,167.5 97.5,166.5 97.5,165.5C 92.5,165.5 87.5,165.5 82.5,165.5C 82.2155,163.585 82.5489,161.919 83.5,160.5C 83.5,161.833 83.5,163.167 83.5,164.5C 90.5,164.5 97.5,164.5 104.5,164.5C 104.5,163.5 104.5,162.5 104.5,161.5C 104.5,161.167 104.5,160.833 104.5,160.5C 105.222,160.918 105.722,161.584 106,162.5C 107.715,159.603 110.215,158.269 113.5,158.5 Z"/></g>
<g><path style="opacity:1" fill="#4f4c48" d="M 83.5,160.5 C 83.8333,160.5 84.1667,160.5 84.5,160.5C 90.979,161.491 97.6457,161.824 104.5,161.5C 104.5,162.5 104.5,163.5 104.5,164.5C 97.5,164.5 90.5,164.5 83.5,164.5C 83.5,163.167 83.5,161.833 83.5,160.5 Z"/></g>
<g><path style="opacity:1" fill="#e7e0d0" d="M 113.5,158.5 C 113.56,157.957 113.893,157.624 114.5,157.5C 115.424,159.39 116.757,160.89 118.5,162C 121.754,161.865 124.92,162.031 128,162.5C 129.713,167.199 128.213,169.532 123.5,169.5C 123.5,168.5 123.5,167.5 123.5,166.5C 122.325,166.281 121.325,166.614 120.5,167.5C 121.246,168.736 121.579,170.07 121.5,171.5C 112.318,171.827 103.318,171.493 94.5,170.5C 98.1817,170.665 101.848,170.499 105.5,170C 104.167,169 104.167,168 105.5,167C 107.78,166.767 109.78,165.934 111.5,164.5C 110.91,163.201 109.91,162.368 108.5,162C 109.629,159.832 111.129,159.332 113,160.5C 114.38,159.744 114.547,159.078 113.5,158.5 Z"/></g>
<g><path style="opacity:1" fill="#c4b9a1" d="M 231.5,162.5 C 227.622,165.002 223.622,167.502 219.5,170C 216.118,170.824 212.784,170.657 209.5,169.5C 210.815,167.801 210.815,166.135 209.5,164.5C 217.036,166.057 224.369,165.391 231.5,162.5 Z"/></g>
<g><path style="opacity:1" fill="#8d837b" d="M 188.5,173.5 C 189.525,173.897 189.692,174.563 189,175.5C 187.989,174.663 186.822,174.33 185.5,174.5C 185.216,177.777 185.549,180.943 186.5,184C 185.251,184.74 184.251,184.573 183.5,183.5C 184.473,181.052 184.806,178.385 184.5,175.5C 183.022,175.762 181.689,175.429 180.5,174.5C 183.086,173.52 185.753,173.187 188.5,173.5 Z"/></g>
<g><path style="opacity:1" fill="#908475" d="M 155.5,182.5 C 154.833,181.833 154.167,181.167 153.5,180.5C 154.158,178.361 155.158,176.361 156.5,174.5C 165.427,172.604 167.761,175.771 163.5,184C 160.479,184.867 157.812,184.367 155.5,182.5 Z"/></g>
<g><path style="opacity:1" fill="#8b7e7b" d="M 63.5,173.5 C 65.171,176.608 66.171,180.108 66.5,184C 65.1667,184.667 63.8333,184.667 62.5,184C 63.4558,180.606 63.7892,177.106 63.5,173.5 Z"/></g>
<g><path style="opacity:1" fill="#9c9491" d="M 86.5,173.5 C 89.8984,173.18 93.2317,173.513 96.5,174.5C 95.3112,175.429 93.9778,175.762 92.5,175.5C 92.2229,178.448 92.5562,181.281 93.5,184C 92.1667,184.667 90.8333,184.667 89.5,184C 90.4438,181.281 90.7771,178.448 90.5,175.5C 88.5168,175.843 87.1834,175.176 86.5,173.5 Z"/></g>
<g><path style="opacity:1" fill="#9a928f" d="M 97.5,173.5 C 103.359,172.074 105.359,174.074 103.5,179.5C 104.5,180.833 105.5,182.167 106.5,183.5C 106.167,183.833 105.833,184.167 105.5,184.5C 104.5,182.833 103.167,181.5 101.5,180.5C 100.571,181.689 100.238,183.022 100.5,184.5C 99.448,184.649 98.448,184.483 97.5,184C 98.7167,180.534 98.7167,177.034 97.5,173.5 Z"/></g>
<g><path style="opacity:1" fill="#f6f6f5" d="M 100.5,174.5 C 103.774,175.379 104.107,176.712 101.5,178.5C 100.571,177.311 100.238,175.978 100.5,174.5 Z"/></g>
<g><path style="opacity:1" fill="#8b7e7c" d="M 191.5,173.5 C 193.256,174.552 193.923,176.219 193.5,178.5C 195.167,178.5 196.833,178.5 198.5,178.5C 198.215,176.712 198.548,175.045 199.5,173.5C 200.2,177.041 200.867,180.541 201.5,184C 200.167,184.667 198.833,184.667 197.5,184C 198.38,182.644 198.714,181.144 198.5,179.5C 196.833,179.5 195.167,179.5 193.5,179.5C 193.286,181.144 193.62,182.644 194.5,184C 193.552,184.483 192.552,184.649 191.5,184.5C 191.5,180.833 191.5,177.167 191.5,173.5 Z"/></g>
<g><path style="opacity:1" fill="#908582" d="M 38.5,174.5 C 39.3864,173.224 40.3864,173.224 41.5,174.5C 42.2357,176.541 43.0691,178.541 44,180.5C 45.0453,177.846 46.5453,175.512 48.5,173.5C 49.2396,176.836 49.9062,180.17 50.5,183.5C 49.675,184.386 48.675,184.719 47.5,184.5C 47.6621,182.473 47.4955,180.473 47,178.5C 46.2515,180.332 45.2515,181.999 44,183.5C 42.6523,180.125 40.819,177.125 38.5,174.5 Z"/></g>
<g><path style="opacity:1" fill="#89817d" d="M 74.5,179.5 C 75.1408,180.482 75.8075,181.482 76.5,182.5C 76.3764,183.107 76.0431,183.44 75.5,183.5C 73.6753,181.197 71.8419,178.864 70,176.5C 69.231,179.099 69.3977,181.599 70.5,184C 69.5,184.667 68.5,184.667 67.5,184C 68.8333,180.667 68.8333,177.333 67.5,174C 70.4325,174.732 72.7658,176.565 74.5,179.5 Z"/></g>
<g><path style="opacity:1" fill="#c3beba" d="M 75.5,183.5 C 76.0431,183.44 76.3764,183.107 76.5,182.5C 75.8075,181.482 75.1408,180.482 74.5,179.5C 75.1646,177.631 75.8313,175.631 76.5,173.5C 77.8333,177.167 77.8333,180.833 76.5,184.5C 75.8933,184.376 75.56,184.043 75.5,183.5 Z"/></g>
<g><path style="opacity:1" fill="#d6cdb8" d="M 188.5,173.5 C 185.753,173.187 183.086,173.52 180.5,174.5C 181.689,175.429 183.022,175.762 184.5,175.5C 184.806,178.385 184.473,181.052 183.5,183.5C 181.317,182.157 179.317,182.49 177.5,184.5C 175.085,185.814 172.252,186.481 169,186.5C 164.481,186.303 159.981,185.97 155.5,185.5C 155.5,184.5 155.5,183.5 155.5,182.5C 157.812,184.367 160.479,184.867 163.5,184C 167.761,175.771 165.427,172.604 156.5,174.5C 161.456,173.172 166.789,172.505 172.5,172.5C 178.011,172.501 183.344,172.834 188.5,173.5 Z"/></g>
<g><path style="opacity:1" fill="#938c89" d="M 80.5,173.5 C 82.1667,173.5 83.8333,173.5 85.5,173.5C 85.6495,174.552 85.4828,175.552 85,176.5C 84.2904,175.027 83.1238,174.36 81.5,174.5C 81.2771,177.114 82.4438,178.781 85,179.5C 85.4935,181.134 85.6602,182.801 85.5,184.5C 83.396,184.799 81.396,184.466 79.5,183.5C 81.0026,182.948 82.6693,182.948 84.5,183.5C 83.7562,181.014 82.2562,179.014 80,177.5C 79.4209,176.072 79.5876,174.738 80.5,173.5 Z"/></g>
<g><path style="opacity:1" fill="#968b88" d="M 137.5,173.5 C 139.23,176.39 140.23,179.724 140.5,183.5C 139.675,184.386 138.675,184.719 137.5,184.5C 137.662,182.473 137.495,180.473 137,178.5C 134.474,185.052 132.474,184.719 131,177.5C 130.814,179.9 130.314,182.234 129.5,184.5C 128.506,181.103 128.84,177.77 130.5,174.5C 132.422,176.003 133.588,178.003 134,180.5C 135.646,178.391 136.812,176.057 137.5,173.5 Z"/></g>
<g><path style="opacity:1" fill="#d6ccb5" d="M 158.5,174.5 C 164.335,175.333 165.668,178.166 162.5,183C 160.888,183.72 159.388,183.554 158,182.5C 157.278,179.739 157.445,177.073 158.5,174.5 Z"/></g>
<g><path style="opacity:1" fill="#9c9492" d="M 55.5,173.5 C 56.3764,173.369 57.0431,173.702 57.5,174.5C 58.4622,177.885 59.7956,181.051 61.5,184C 60.552,184.483 59.552,184.649 58.5,184.5C 58.5,183.167 58.5,181.833 58.5,180.5C 57.1667,180.5 55.8333,180.5 54.5,180.5C 54.5,181.833 54.5,183.167 54.5,184.5C 53.448,184.649 52.448,184.483 51.5,184C 53.6659,180.852 54.9993,177.352 55.5,173.5 Z"/></g>
<g><path style="opacity:1" fill="#8e8482" d="M 203.5,173.5 C 205.924,173.192 208.257,173.526 210.5,174.5C 208.955,175.452 207.288,175.785 205.5,175.5C 205.5,176.5 205.5,177.5 205.5,178.5C 206.978,178.238 208.311,178.571 209.5,179.5C 208.443,179.906 207.109,179.906 205.5,179.5C 205.5,180.833 205.5,182.167 205.5,183.5C 207.446,183.193 209.113,183.193 210.5,183.5C 208.257,184.474 205.924,184.808 203.5,184.5C 203.5,180.833 203.5,177.167 203.5,173.5 Z"/></g>
<g><path style="opacity:1" fill="#a0978f" d="M 115.5,180.5 C 114.167,180.5 112.833,180.5 111.5,180.5C 111.5,181.5 111.5,182.5 111.5,183.5C 112.873,183.343 114.207,183.51 115.5,184C 114.906,184.464 114.239,184.631 113.5,184.5C 111.833,184.5 110.167,184.5 108.5,184.5C 108.5,180.833 108.5,177.167 108.5,173.5C 110.924,173.192 113.257,173.526 115.5,174.5C 114.113,174.807 112.446,174.807 110.5,174.5C 110.5,175.833 110.5,177.167 110.5,178.5C 112.781,178.077 114.448,178.744 115.5,180.5 Z"/></g>
<g><path style="opacity:1" fill="#a29997" d="M 153.5,180.5 C 150.205,179.176 148.872,180.509 149.5,184.5C 148.448,184.649 147.448,184.483 146.5,184C 147.799,180.865 147.799,177.699 146.5,174.5C 148.833,173.167 151.167,173.167 153.5,174.5C 148.306,176.058 148.306,177.058 153.5,177.5C 153.5,178.5 153.5,179.5 153.5,180.5 Z"/></g>
<g><path style="opacity:1" fill="#a49d9a" d="M 119.5,183.5 C 118.833,184.833 118.167,184.833 117.5,183.5C 118.831,180.187 120.164,176.853 121.5,173.5C 123.832,176.605 125.499,180.105 126.5,184C 125.552,184.483 124.552,184.649 123.5,184.5C 123.5,183.167 123.5,181.833 123.5,180.5C 121.027,180.088 119.694,181.088 119.5,183.5 Z"/></g>
<g><path style="opacity:1" fill="#807161" d="M 177.5,184.5 C 175.133,183.836 173.133,182.503 171.5,180.5C 170.269,181.651 170.269,182.817 171.5,184C 170.167,184.667 168.833,184.667 167.5,184C 168.13,180.871 168.796,177.704 169.5,174.5C 170.429,175.689 170.762,177.022 170.5,178.5C 171.5,178.5 172.5,178.5 173.5,178.5C 173.343,177.127 173.51,175.793 174,174.5C 174.333,174.833 174.667,175.167 175,175.5C 174.695,177.443 174.695,179.443 175,181.5C 176.045,182.373 176.878,183.373 177.5,184.5 Z"/></g>
<g><path style="opacity:1" fill="#d9d4cb" d="M 115.5,180.5 C 115.932,181.71 116.599,182.71 117.5,183.5C 118.167,184.833 118.833,184.833 119.5,183.5C 122.399,184.94 125.399,186.273 128.5,187.5C 129.59,188.609 129.59,189.609 128.5,190.5C 127.15,189.05 125.484,188.383 123.5,188.5C 122.504,188.414 121.671,188.748 121,189.5C 120.505,191.473 120.338,193.473 120.5,195.5C 119.596,194.791 119.263,193.791 119.5,192.5C 118.5,192.5 117.5,192.5 116.5,192.5C 116.541,188.757 115.874,188.59 114.5,192C 113.552,192.483 112.552,192.649 111.5,192.5C 111.657,191.127 111.49,189.793 111,188.5C 110.79,190.058 110.29,191.391 109.5,192.5C 109.5,190.833 109.5,189.167 109.5,187.5C 111.857,187.663 114.19,187.497 116.5,187C 115.058,186.623 114.058,185.79 113.5,184.5C 114.239,184.631 114.906,184.464 115.5,184C 114.207,183.51 112.873,183.343 111.5,183.5C 111.5,182.5 111.5,181.5 111.5,180.5C 112.833,180.5 114.167,180.5 115.5,180.5 Z"/></g>
<g><path style="opacity:1" fill="#766865" d="M 71.5,188.5 C 72.2014,191.563 72.868,194.73 73.5,198C 73.1667,198.167 72.8333,198.333 72.5,198.5C 71.513,195.232 71.1796,191.898 71.5,188.5 Z"/></g>
<g><path style="opacity:1" fill="#928884" d="M 99.5,188.5 C 102.024,187.2 104.691,187.2 107.5,188.5C 105.955,189.452 104.288,189.785 102.5,189.5C 102.5,190.5 102.5,191.5 102.5,192.5C 103.978,192.238 105.311,192.571 106.5,193.5C 105.443,193.906 104.109,193.906 102.5,193.5C 102.5,194.833 102.5,196.167 102.5,197.5C 104.446,197.193 106.113,197.193 107.5,197.5C 105.257,198.474 102.924,198.808 100.5,198.5C 100.813,194.958 100.479,191.625 99.5,188.5 Z"/></g>
<g><path style="opacity:1" fill="#8f8381" d="M 155.5,188.5 C 157.22,190.658 158.053,193.325 158,196.5C 162.666,198.052 162.499,198.552 157.5,198C 155.66,195.174 154.994,192.007 155.5,188.5 Z"/></g>
<g><path style="opacity:1" fill="#857473" d="M 162.5,188.5 C 163.777,189.694 164.444,191.36 164.5,193.5C 164.167,195.167 163.833,196.833 163.5,198.5C 162.513,195.232 162.18,191.898 162.5,188.5 Z"/></g>
<g><path style="opacity:1" fill="#948886" d="M 131.5,187.5 C 137.443,186.281 139.777,188.447 138.5,194C 138.95,195.285 139.617,196.452 140.5,197.5C 140.167,197.833 139.833,198.167 139.5,198.5C 138.185,196.684 136.685,195.017 135,193.5C 134.506,195.134 134.34,196.801 134.5,198.5C 133.448,198.649 132.448,198.483 131.5,198C 132.717,194.534 132.717,191.034 131.5,187.5 Z"/></g>
<g><path style="opacity:1" fill="#f7f6f6" d="M 134.5,189.5 C 135.5,189.5 136.5,189.5 137.5,189.5C 137.5,190.5 137.5,191.5 137.5,192.5C 136.5,192.5 135.5,192.5 134.5,192.5C 134.5,191.5 134.5,190.5 134.5,189.5 Z"/></g>
<g><path style="opacity:1" fill="#958d89" d="M 75.5,187.5 C 79.9944,189.489 82.8277,192.822 84,197.5C 81.7632,195.353 79.7632,193.02 78,190.5C 77.231,193.099 77.3977,195.599 78.5,198C 77.5,198.667 76.5,198.667 75.5,198C 76.7167,194.534 76.7167,191.034 75.5,187.5 Z"/></g>
<g><path style="opacity:1" fill="#99928f" d="M 166.5,187.5 C 169.692,189.172 172.525,191.505 175,194.5C 175.157,192.005 175.324,189.672 175.5,187.5C 176.833,191.167 176.833,194.833 175.5,198.5C 173.727,195.94 171.727,193.607 169.5,191.5C 168.832,193.926 168.498,196.259 168.5,198.5C 167.687,194.838 167.021,191.172 166.5,187.5 Z"/></g>
<g><path style="opacity:1" fill="#8e827f" d="M 116.5,192.5 C 115.728,194.53 116.394,196.363 118.5,198C 118.167,198.167 117.833,198.333 117.5,198.5C 115.867,196.497 113.867,195.164 111.5,194.5C 111.33,195.822 111.663,196.989 112.5,198C 111.552,198.483 110.552,198.649 109.5,198.5C 109.5,196.5 109.5,194.5 109.5,192.5C 110.29,191.391 110.79,190.058 111,188.5C 111.49,189.793 111.657,191.127 111.5,192.5C 112.552,192.649 113.552,192.483 114.5,192C 115.874,188.59 116.541,188.757 116.5,192.5 Z"/></g>
<g><path style="opacity:1" fill="#897e7c" d="M 64.5,188.5 C 66.3878,190.988 67.0545,193.988 66.5,197.5C 67.8734,197.343 69.2068,197.51 70.5,198C 68.7412,198.798 67.0745,198.631 65.5,197.5C 64.5934,194.579 64.2601,191.579 64.5,188.5 Z"/></g>
<g><path style="opacity:1" fill="#857977" d="M 123.5,188.5 C 120.231,193.625 121.564,196.625 127.5,197.5C 127.67,196.178 127.337,195.011 126.5,194C 127.448,193.517 128.448,193.351 129.5,193.5C 129.5,195.167 129.5,196.833 129.5,198.5C 127.143,198.663 124.81,198.497 122.5,198C 121.619,197.292 120.953,196.458 120.5,195.5C 120.338,193.473 120.505,191.473 121,189.5C 121.671,188.748 122.504,188.414 123.5,188.5 Z"/></g>
<g><path style="opacity:1" fill="#9c9390" d="M 178.5,187.5 C 182.516,186.9 186.016,187.9 189,190.5C 190.097,197.893 186.93,200.559 179.5,198.5C 179.677,194.766 179.344,191.099 178.5,187.5 Z"/></g>
<g><path style="opacity:1" fill="#f8f8f7" d="M 181.5,189.5 C 187.704,189.314 189.037,191.814 185.5,197C 184.207,197.49 182.873,197.657 181.5,197.5C 181.5,194.833 181.5,192.167 181.5,189.5 Z"/></g>
<g><path style="opacity:1" fill="#988f8c" d="M 87.5,188.5 C 95.1205,185.893 98.2871,188.559 97,196.5C 94.1592,198.504 90.9926,199.004 87.5,198C 88.8184,194.731 88.8184,191.565 87.5,188.5 Z"/></g>
<g><path style="opacity:1" fill="#fafaf9" d="M 90.5,189.5 C 93.9304,188.755 95.597,190.089 95.5,193.5C 95.597,196.911 93.9304,198.245 90.5,197.5C 90.5,194.833 90.5,192.167 90.5,189.5 Z"/></g>
<g><path style="opacity:1" fill="#8f8885" d="M 144.5,187.5 C 152.619,187.469 154.619,190.969 150.5,198C 143.495,199.324 140.995,196.49 143,189.5C 143.717,188.956 144.217,188.289 144.5,187.5 Z"/></g>
<g><path style="opacity:1" fill="#f4f3f2" d="M 146.5,188.5 C 150.516,189.195 152.016,191.528 151,195.5C 147.187,198.589 144.687,197.755 143.5,193C 143.557,190.791 144.557,189.291 146.5,188.5 Z"/></g>
</svg>
