<?xml version="1.0"?><svg xmlns="http://www.w3.org/2000/svg" width="36" height="36" shape-rendering="geometricPrecision" text-rendering="geometricPrecision" image-rendering="optimizeQuality" fill-rule="evenodd" clip-rule="evenodd" viewBox="0 0 36 36"><path fill="#fefcd6" d="m25.9 2.1v0.2c-0.1 0-0.2 0-0.3-0.1-0.1-0.1-0.3-0.2-0.5-0.2-5.8-2.4-11.3-2-16.7 1.2-0.1 0-0.1 0-0.1-0.1 5.7-3.5 11.5-3.8 17.6-1z"></path><path fill="#fbf674" d="m16.3-0.1h3.1c2.6 0.3 5.1 1.1 7.4 2.4 0.4 0.1 0.8 0.4 1 0.7l-0.4-0.1c-0.5-0.3-1-0.5-1.5-0.8-6.1-2.8-11.9-2.5-17.6 1h-0.1l-0.5 0.1c1.9-1.4 4.1-2.4 6.4-2.9 0.7-0.1 1.5-0.2 2.2-0.4z"></path><path fill="#fbef49" d="m25.1 2c0.2 0 0.4 0.1 0.5 0.2-0.4 0-0.4 0.1-0.1 0.3l-0.1 0.1c0.2 0 0.3 0.1 0.2 0.3 0.1 0.1 0.2 0.1 0.3 0 0.3 0.3 0.6 0.5 1 0.4l-0.1 0.1c0.5 0.3 0.5 0.4-0.1 0.4 0.1 0.3 0.2 0.6 0.1 0.9-0.3 0-0.4 0-0.1 0.1-0.1 0.1-0.1 0.2 0 0.3 0.3 0.2 0.6 0.4 0.9 0.6 0.2 0.1 0.3 0.1 0.4 0 0.1 0.3 0.3 0.6 0.4 0.9-0.1 0-0.1 0-0.2 0.1-0.2-0.2-0.4-0.4-0.5-0.7-0.2-0.2-0.5-0.3-0.8-0.3 0-0.2-0.2-0.4-0.4-0.5-1-0.6-2-1.1-3-1.5-0.2-0.3-0.5-0.4-0.8-0.3-0.1-0.1-0.3-0.2-0.4-0.4-0.2 0-0.4-0.1-0.6-0.2-1.1 0-2.1-0.1-3.1-0.3-0.7 0.1-1.4 0.2-2.1 0.3-2.6 0.4-5 1.2-7.2 2.6-0.4 0.3-0.8 0.6-1.1 0.8-0.3 0.6-0.7 0.9-1.3 1.2 0-0.3 0.1-0.4 0.2-0.6 0.4-0.5 0.9-1 1.5-1.3-0.2-0.2-0.4-0.4-0.7-0.6-0.8 0.6-1.8 1.3-2.8 1.9-0.1 0.2-0.2 0.3-0.3 0.5l-0.1-0.2c-1.3 1.3-2.3 2.8-3 4.5-0.1 0.2-0.2 0.4-0.2 0.6-0.1-0.3-0.1-0.5-0.1-0.7 0.1-0.1 0.2-0.1 0.2-0.2 0.3-0.5 0.5-1.1 0.7-1.7-0.1-0.1-0.1-0.2-0.1-0.3 0.5-1.2 1.3-2.3 2.2-3.2 0.6-0.5 1.2-1.1 1.7-1.7 0.5-0.5 1-0.9 1.6-1.2l0.5-0.1c-0.7 0.6-1.5 1.2-2.2 1.7-0.3 0.3-0.3 0.4 0 0.3 0.1 0.2 0.2 0.3 0.5 0.2-0.1-0.1-0.1-0.1-0.1-0.2 0.3-0.5 0.7-0.7 1.3-0.8 0.3-0.5 0.7-0.7 1.2-0.8l0.3-0.3c0.3-0.1 0.6-0.2 0.8-0.3 0.2 0.1 0.3 0 0.4-0.2 2.4-1 4.9-1.6 7.4-1.7 0.6 0 1.2 0 1.8 0 0.1 0.1 0.4 0.2 0.6 0.1 0.6 0 1.2 0.2 1.8 0.4 0.1 0 0.2-0.1 0.3-0.1 0.3 0.2 0.6 0.3 0.9 0.2 0.3 0.4 0.7 0.6 1.2 0.7l0.1-0.1c0.4 0.3 0.6 0.3 0.6-0.2z"></path><path fill="#fdf946" d="m25.1 2c0 0.5-0.2 0.5-0.6 0.2l-0.1 0.1c-0.5-0.1-0.9-0.3-1.2-0.7-0.3 0.1-0.6 0-0.9-0.2-0.1 0-0.2 0.1-0.3 0.1-0.6-0.2-1.2-0.4-1.7-0.4-0.3 0.1-0.6 0-0.7-0.1-0.6 0-1.2 0-1.8 0-2.5 0.1-5 0.7-7.4 1.7-0.1 0.2-0.2 0.3-0.4 0.2-0.2 0.1-0.5 0.2-0.8 0.3l-0.3 0.3c-0.5 0.1-0.9 0.3-1.2 0.8-0.6 0.1-1 0.3-1.3 0.8 0 0.1 0 0.1 0.1 0.2-0.3 0.1-0.4 0-0.5-0.2 0.8-0.7 1.6-1.3 2.4-1.9 5.4-3.2 10.9-3.6 16.7-1.2z"></path><path fill="#dcc132" d="m16.5 2.8c1.7-0.1 3.4 0 5.2 0.3 0.6 0.3 1.2 0.6 1.8 0.9-0.6 0-1.2-0.3-1.6-0.6-2.6-0.4-5.2-0.4-7.8 0.1-3.1 0.9-5.7 2.6-7.7 5.1-0.1 0-0.2 0-0.3 0 0.1-0.2 0.2-0.4 0.3-0.7 0.2-0.1 0.4-0.3 0.5-0.5 0.6-0.3 1-0.6 1.3-1.2 0.4-0.2 0.7-0.5 1.1-0.8 2.2-1.4 4.6-2.2 7.2-2.6z"></path><path fill="#edde3f" d="m26.9 5.7l-1.8-0.9c-0.6-0.2-1.1-0.5-1.6-0.8-0.6-0.3-1.2-0.6-1.8-0.9-1.8-0.3-3.5-0.4-5.2-0.3 0.7-0.1 1.4-0.2 2.1-0.3 1 0.2 2 0.3 3.1 0.3 0.2 0.1 0.4 0.2 0.6 0.2 0.1 0.2 0.3 0.3 0.4 0.4 0.3-0.1 0.6 0 0.8 0.3 1 0.4 2 0.9 3 1.5 0.2 0.1 0.4 0.3 0.4 0.5z"></path><path fill="#fdfcac" d="m25.9 2.1c0.5 0.3 1 0.5 1.5 0.8 0.5 0.4 1 0.8 1.6 1.2 0.2 0.1 0.3 0.2 0.3 0.5-1.1-0.9-2.2-1.6-3.4-2.3v-0.2z" opacity=".996"></path><path fill="#fbf761" d="m27.4 2.9l0.4 0.1c1.7 0.9 3.1 2.2 4.2 3.8-0.1-0.1-0.3-0.2-0.4-0.3l-0.3 0.1c-0.7-0.7-1.4-1.4-2-2 0-0.3-0.1-0.4-0.3-0.5-0.6-0.4-1.1-0.8-1.6-1.2z"></path><path fill="#fdf241" d="m25.6 2.2c0.1 0.1 0.2 0.1 0.3 0.1 1.2 0.7 2.3 1.4 3.4 2.3 0.6 0.6 1.3 1.3 2 2l0.3-0.1c0.1 0.1 0.3 0.2 0.4 0.3 0 0.2 0 0.3 0.1 0.5 0.2 0.3 0.3 0.6 0.5 0.9 0 0.2-0.1 0.3-0.3 0.4 0-0.2-0.1-0.4-0.2-0.6-0.1 0.2-0.2 0.2-0.3 0l-0.1 0.3c-0.1-0.5-0.3-0.5-0.7-0.3-0.3-0.3-0.5-0.2-0.7 0.2-0.2-0.2-0.4-0.5-0.4-0.7-0.1 0.1-0.1 0.2-0.1 0.3-0.4-0.5-0.9-0.9-1.4-1.2-0.1-0.3-0.3-0.6-0.4-0.9-0.1 0.1-0.2 0.1-0.4 0-0.3-0.2-0.6-0.4-0.9-0.6-0.1-0.1-0.1-0.2 0-0.3-0.3-0.1-0.2-0.1 0.1-0.1 0.1-0.3 0-0.6-0.1-0.9 0.6 0 0.6-0.1 0.1-0.4l0.1-0.1c-0.4 0.1-0.7-0.1-1-0.4-0.1 0.1-0.2 0.1-0.3 0 0.1-0.2 0-0.3-0.2-0.3l0.1-0.1c-0.3-0.2-0.3-0.3 0.1-0.3z"></path><path fill="#fdfca2" d="m8.2 3.1h0.1c0 0.1 0 0.1 0.1 0.1-0.8 0.6-1.6 1.2-2.4 1.9-0.3 0.1-0.3 0 0-0.3 0.7-0.5 1.5-1.1 2.2-1.7z" opacity=".996"></path><path fill="#fae858" d="m16.8 3.7c-0.9 0.1-1.9 0.4-2.8 0.6 0 0.3 0 0.6 0.1 0.9 0.1 0.1 0.1 0.2 0 0.3 0.3 0.1 0.3 0.2 0 0.2 0.1 0.2 0.2 0.4 0.4 0.5 0.1 0 0.2 0 0.4 0 0.4 0 0.8-0.1 1.2-0.3 0.1 0.3 0.1 0.3 0.2 0 0.2 0.1 0.4 0.2 0.5 0.3v0.2c-0.1-0.1-0.3-0.1-0.5-0.2-0.1 0.3-0.1 0.3-0.2 0l-0.3 0.3c-0.3-0.2-0.5-0.2-0.8-0.1v0.5c-0.5 0.2-1 0.2-1.5-0.1-0.3 0.2-0.7 0.5-1.1 0.7-0.1 0.1-0.2 0.1-0.3 0-0.2 0.1-0.4 0.3-0.6 0.4-0.1 0-0.1-0.1-0.2-0.1l-0.3 0.4c-0.2-0.1-0.4-0.1-0.5 0-0.5 0.3-0.9 0.6-1.2 0.8 0 0.1 0 0.3 0 0.5-0.2 0-0.4 0-0.5 0.1-0.1 0-0.2-0.1-0.2-0.3 0.1-0.1 0.1-0.2 0-0.3 0.2-0.1 0.4-0.3 0.6-0.4l-0.1-0.2c0.1-0.1 0.2-0.3 0.2-0.6 0.1 0 0.2 0 0.3 0-0.2-0.1-0.3-0.2-0.5-0.3-0.1 0.2-0.3 0.3-0.5 0.4l0.1 0.1c-0.2 0-0.4 0.1-0.5 0.2-0.1-0.2-0.2-0.2-0.3 0l0.5 0.2c-0.1 0.1-0.1 0.1-0.2 0-0.2 0.3-0.5 0.3-0.7 0 0.7-0.9 1.6-1.7 2.5-2.4 0.8-0.6 1.7-1.1 2.7-1.5 0.6-0.1 1.3-0.3 1.9-0.6 0.7-0.1 1.5-0.2 2.2-0.2z"></path><path fill="#f8ef83" d="m6.1 4.4c-0.5 0.6-1.1 1.2-1.7 1.7 0.5-0.6 1.1-1.2 1.7-1.7z" opacity=".918"></path><path fill="#bd8a1d" d="m25.3 5c1.8 1 3.4 2.4 4.8 3.9 0.1 0.3 0.3 0.6 0.5 0.8 0.1 0.2 0.1 0.3 0.1 0.5 0.7 1.3 1.3 2.7 1.6 4.3 0 1.4 0 2.9-0.1 4.5 0.1-1.6 0-3.2-0.4-4.7-0.2-0.8-0.4-1.6-0.8-2.3-0.2-0.7-0.6-1.3-1-1.8-0.3-0.5-0.6-1-0.9-1.5 0.1 0 0.2 0 0.3 0l-1.6-1.6c-0.2-0.2-0.4-0.3-0.6-0.4-0.5-0.6-1.2-1.1-1.9-1.5-0.2-0.1-0.2-0.1 0-0.2z"></path><path fill="#fae340" d="m6.9 7.4c-0.1 0.2-0.3 0.4-0.5 0.5-0.1 0.3-0.2 0.5-0.3 0.7-0.2 0.1-0.4 0.2-0.6 0.4-0.3 0.4-0.7 0.7-1.1 1 0-0.2-0.2-0.3-0.3-0.4 0.2-0.1 0.2-0.2 0.2-0.3-0.5 0.1-0.8 0.4-1.1 0.8-0.2-0.2-0.2-0.2-0.3 0 0.1 0.1 0.1 0.2 0 0.3-0.2 0.2-0.4 0.5-0.6 0.8-0.1 0.1-0.2 0.1-0.3 0.2 0.1 0.1 0 0.2-0.3 0.2 0.7-1.7 1.7-3.2 3-4.5l0.1 0.2c0.1-0.2 0.2-0.3 0.3-0.5 1-0.6 2-1.3 2.8-1.9 0.3 0.2 0.5 0.4 0.7 0.6-0.6 0.3-1.1 0.8-1.5 1.3-0.1 0.2-0.2 0.3-0.2 0.6z"></path><path fill="#fbe548" d="m27.5 7.7c0.1 0.1 0.2 0.1 0.3 0 0.2 0.2 0.4 0.5 0.6 0.6l-0.1 0.1 0.6 0.4-0.2 0.4c-0.4-0.2-0.7-0.1-1 0.2-0.2-0.2-0.3-0.1-0.4 0.1l-0.1-0.2c-0.2 0.1-0.5 0.2-0.8 0.3 0-0.1-0.1-0.2-0.1-0.2-0.1-0.2-0.2-0.4-0.3-0.6-0.2 0.2-0.3 0.1-0.4-0.1 0-0.1 0.1-0.2 0.2-0.3-0.3-0.1-0.6-0.2-0.9-0.2l-0.1-0.2c-0.2 0.1-0.4 0.2-0.7 0.3l-0.3-0.1c0.1-0.2 0.1-0.3-0.1-0.4h-0.4c-0.2 0.1-0.3 0.3-0.2 0.4-0.5 0.1-1 0.1-1.6 0-0.2 0-0.3-0.2-0.3-0.4-0.1 0.3-0.2 0.3-0.3 0 0 0.1-0.1 0.2-0.1 0.2-0.3-0.3-0.5-0.7-0.8-1 0.2 0 0.4 0 0.6 0 0-0.2 0-0.3 0.3-0.4 0.2 0 0.5 0 0.7 0.1 0.2-0.3 0.3-0.3 0.2 0.1 0.2 0.1 0.4 0.3 0.5 0.6 0.1-0.1 0.2-0.2 0.1-0.4 0.4 0 0.7 0 1.1 0.1 0.2 0.1 0.3 0.3 0.3 0.5 0.3-0.1 0.6 0 0.8 0.3 0.1-0.1 0.2-0.1 0.3 0 0.1-0.1 0.1-0.2 0.2-0.3 0.1 0.1 0.2 0.1 0.4 0 0.1-0.1 0.2-0.2 0.3-0.3 0 0-0.1-0.1-0.1-0.2 0.1 0 0.3-0.1 0.4-0.2 0.6 0.2 1 0.5 1.4 0.8z"></path><path fill="#dec433" d="m25.1 4.8l1.8 0.9c0.3 0 0.6 0.1 0.8 0.3 0.1 0.3 0.3 0.5 0.5 0.7 0.1-0.1 0.1-0.1 0.2-0.1 0.5 0.5 0.9 1 1.4 1.6 0.1 0.2 0.2 0.5 0.3 0.7-1.4-1.5-3-2.9-4.8-3.9l-0.2-0.2z"></path><path fill="#e6dbb2" d="m32.9 7.7c0.2 0.1 0.2 0.1 0 0z" opacity=".078"></path><path fill="#f8e04e" d="m16.8 6.4c0 0.1 0.1 0.3 0.2 0.4 0-0.3 0.1-0.4 0.3-0.2-0.1 0.2-0.1 0.3 0.2 0.4-0.3 0.1-0.5 0.3-0.7 0.6l0.4 0.7c0.1 0 0.3 0 0.5 0 0.2 0.2 0.4 0.3 0.7 0.4 0.1 0.1 0.1 0.2 0 0.4 0.2 0.3 0.3 0.2 0.3-0.2h0.5c0.1 0.3 0.1 0.6 0 0.8 0.1-0.2 0.2-0.2 0.3 0.1 0-0.1 0-0.2 0-0.3 0.2 0 0.4 0.1 0.5 0.3-0.2 0-0.3 0-0.4 0 0.1 0.2 0.1 0.4 0.1 0.6 0.1-0.3 0.2-0.3 0.3 0-0.2 0.2-0.4 0.5-0.5 0.9 0.2 0 0.3 0 0.5 0-0.2-0.2-0.1-0.2 0-0.3 0.2 0.2 0.4 0.3 0.6 0-0.1-0.4-0.2-0.7-0.2-1.1 0.1-0.3 0.2-0.5 0.4-0.7 0.4 0.3 0.5 0.7 0.5 1.2 0.4 0.1 0.7 0.2 0.9 0.4l-0.1 0.1c0.3 0.1 0.5 0.4 0.5 0.7l0.2-0.4 0.1 0.2c0.3-0.2 0.5-0.2 0.6 0 0.3-0.2 0.4-0.4 0.3-0.7 0.2 0.1 0.3 0.1 0.4 0.1 0.2 0.1 0.4 0.2 0.5 0.4 0.1 0.3 0.3 0.7 0.5 1 0.2 0 0.3 0 0.5-0.1 0 0.1 0 0.2-0.1 0.3 0.3 0.1 0.4 0.2 0.2 0.4-0.1-0.1-0.2-0.2-0.3-0.3-0.1 0.1-0.2 0.3-0.4 0.4 0.1 0.2 0.3 0.3 0.4 0.2 0.2 0.2 0.4 0.3 0.7 0.3-0.2 0-0.4 0.1-0.6 0.2 0.6 0.1 0.9 0.5 0.9 1.2-0.3 0.1-0.5 0.1-0.8 0-0.4-1-1-1.7-1.9-2.1-1.2-0.7-2.4-1.1-3.7-1.2-1.4-0.1-2.7-0.1-4.1 0 0.1-0.3 0.1-0.6 0-0.9 0.1-0.1 0.2-0.1 0.3-0.2 0-0.5-0.2-0.8-0.6-1l-0.1 0.1c0-0.2-0.1-0.3-0.2-0.4l0.1-0.1c-0.3-0.2-0.5-0.2-0.7 0.1-0.1-0.3-0.3-0.3-0.4 0-0.3-0.3-0.5-0.6-0.8-0.9l-0.1 0.1c-0.1-0.5-0.2-0.5-0.3 0-0.1-0.2-0.1-0.3-0.2-0.5h-0.5c-0.1-0.1-0.1-0.2-0.1-0.3 0.4-0.2 0.8-0.5 1.1-0.7 0.5 0.3 1 0.3 1.5 0.1v-0.5c0.3-0.1 0.5-0.1 0.7 0.1l0.4-0.3c0.1 0.3 0.1 0.3 0.2 0 0.2 0.1 0.4 0.1 0.5 0.2z"></path><path fill="#fbe53f" d="m28.4 6.6c0.5 0.3 1 0.7 1.4 1.2 0-0.1 0-0.2 0.1-0.3 0 0.2 0.2 0.5 0.4 0.7 0.2-0.4 0.4-0.5 0.8-0.2 0.3-0.2 0.5-0.2 0.6 0.3l0.1-0.3c0.1 0.2 0.2 0.2 0.3 0 0.1 0.2 0.2 0.4 0.2 0.6 0.2-0.1 0.3-0.2 0.3-0.4-0.2-0.3-0.3-0.6-0.5-0.9-0.1-0.2-0.1-0.3-0.1-0.5l0.9 1c0.7 1.1 1.2 2.2 1.7 3.4 0 0.2 0 0.5 0.1 0.7-0.1 0-0.1 0.1-0.1 0.2 0.2 0.7 0.4 1.3 0.4 2-0.2-0.5-0.4-1-0.6-1.6l-0.1 0.2c0-0.3-0.1-0.6-0.3-0.8 0.1-0.1 0.2-0.1 0.1-0.3-0.1-0.5-0.3-1-0.6-1.5-0.2-0.2-0.3-0.2-0.4 0-0.1-0.2-0.2-0.4-0.4-0.6l-0.1 0.1c0-0.1 0-0.2 0.2-0.3-0.1 0-0.1-0.1-0.2-0.2h-0.6l-0.2-0.3c0 0.3-0.2 0.4-0.4 0.4l0.3 0.2c-0.1 0.1-0.2 0.3-0.3 0.4-0.3-0.5-0.7-0.9-1.1-1.3-0.2-0.1-0.4-0.2-0.5-0.3-0.5-0.6-0.9-1.1-1.4-1.6z"></path><path fill="#f8df56" d="m10 6c-0.9 0.7-1.8 1.5-2.5 2.4 0.2 0.3 0.5 0.3 0.7 0 0.1 0.1 0.1 0.1 0.2 0l-0.5-0.2c0.1-0.2 0.2-0.2 0.3 0 0.1-0.1 0.3-0.2 0.5-0.2l-0.1-0.1c0.2-0.1 0.4-0.2 0.5-0.4 0.2 0.1 0.3 0.2 0.5 0.3-0.1 0-0.2 0-0.3 0 0 0.3-0.1 0.5-0.2 0.6l0.1 0.2c-0.2 0.1-0.4 0.3-0.6 0.4 0.1 0.1 0.1 0.2 0 0.3 0 0.2 0.1 0.3 0.2 0.3 0.1-0.1 0.3-0.1 0.5-0.1 0-0.2 0-0.4 0-0.5 0.3-0.2 0.7-0.5 1.2-0.8 0.1-0.1 0.3-0.1 0.5 0l0.3-0.4c0.1 0 0.1 0.1 0.2 0.1 0.2-0.1 0.4-0.3 0.6-0.4 0.1 0.1 0.2 0.1 0.3 0 0 0.1 0 0.2 0.1 0.3h0.5c0.1 0.2 0.1 0.3 0.2 0.5 0.1-0.5 0.2-0.5 0.3 0l0.1-0.1c0.3 0.3 0.5 0.6 0.8 0.9 0.1-0.3 0.3-0.3 0.4 0 0.2-0.3 0.4-0.3 0.7-0.1l-0.1 0.1c0.1 0.1 0.2 0.2 0.2 0.4l0.1-0.1c0.4 0.2 0.6 0.5 0.6 0.9-0.1 0.2-0.2 0.2-0.3 0.3 0.1 0.3 0.1 0.6 0 0.9-1.4 0.3-2.9 0.8-4.2 1.4h-0.3v-0.2c-0.1-0.1-0.3-0.2-0.5-0.2l0.3-0.1c-0.2-0.3-0.4-0.5-0.7-0.4-0.3-0.2-0.3-0.3-0.1-0.4-0.1-0.1-0.3-0.2-0.4-0.2-0.5 0.1-0.9 0.1-1.3 0-0.1-0.1-0.1-0.2-0.3-0.3 0 0.1-0.2 0.1-0.3 0-0.2 0.2-0.4 0.4-0.7 0.5l-0.1-0.1-0.3 0.7c0-0.2-0.1-0.2-0.2-0.1-0.2-0.1-0.3-0.2-0.4-0.4 0.3-0.1 0.3-0.1 0-0.2 0-0.3 0-0.5 0.1-0.7-0.3 0-0.6-0.1-0.7-0.4 0.3-0.3 0.4-0.7 0.6-1.1 0.9-1.3 2.1-2.4 3.5-3.3z"></path><path fill="#c49423" d="m23.5 4c0.5 0.3 1 0.6 1.6 0.8l0.2 0.2c-0.2 0.1-0.2 0.1 0 0.2 0.7 0.4 1.4 0.9 1.9 1.5 0.2 0.1 0.4 0.2 0.6 0.4l1.6 1.6c-0.1 0-0.2 0-0.3 0-0.5-0.5-1.1-0.9-1.6-1.4-0.6-0.6-1.3-1.1-2-1.7-0.7-0.2-1.3-0.5-1.8-0.9-1.1-0.4-2.3-0.7-3.4-0.9-0.7-0.2-1.5-0.3-2.2-0.3-0.5 0-0.9 0.1-1.3 0.2-0.7 0-1.5 0.1-2.2 0.2-0.6 0.3-1.3 0.5-1.9 0.6-1 0.4-1.9 0.9-2.7 1.5-1.4 0.9-2.6 2-3.5 3.3-0.5 0.7-1 1.4-1.4 2.1-0.1 0.3-0.2 0.6-0.3 0.8-0.5 0.9-0.8 1.8-1 2.8-0.1 1.3-0.1 2.5-0.1 3.7v0.5c-0.1-1.2-0.2-2.4-0.2-3.7 0.1-0.4 0.2-0.8 0.2-1.3 0 0.1-0.1 0.2-0.2 0.3 0.4-1.9 1.2-3.5 2.2-5 0.1-0.1 0.1-0.3 0.1-0.4 0.2-0.1 0.3-0.3 0.3-0.5 0.1 0 0.2 0 0.3-0.1 2-2.4 4.6-4.1 7.7-5 2.6-0.5 5.2-0.5 7.8-0.1 0.4 0.3 1 0.6 1.6 0.6z"></path><path fill="#fbeb4d" d="m16.8 3.7c1.2 0 2.3 0 3.5 0.1 1.1 0.2 2.3 0.5 3.4 0.9 0.5 0.4 1.1 0.7 1.8 0.9 0.7 0.6 1.4 1.1 2 1.7 0.1 0.1 0.1 0.3 0 0.4-0.4-0.3-0.8-0.6-1.4-0.8-0.1 0.1-0.3 0.2-0.4 0.2 0 0.1 0.1 0.2 0.1 0.2-0.1 0.1-0.2 0.2-0.3 0.3-0.2 0.1-0.3 0.1-0.4 0-0.1 0.1-0.1 0.2-0.2 0.3-0.1-0.1-0.2-0.1-0.3 0-0.2-0.3-0.5-0.4-0.8-0.3 0-0.2-0.1-0.4-0.3-0.5-0.4-0.1-0.7-0.1-1.1-0.1 0.1 0.2 0 0.3-0.1 0.4-0.1-0.3-0.3-0.5-0.5-0.6 0.1-0.4 0-0.4-0.2-0.1-0.2-0.1-0.5-0.1-0.7-0.1-0.3 0.1-0.3 0.2-0.3 0.4-0.2 0-0.4 0-0.6 0-0.2-0.2-0.3-0.3-0.5-0.5 0.1-0.3 0.1-0.3-0.2-0.1-0.2-0.3-0.5-0.4-0.7-0.5-0.6 0.1-1.2 0.2-1.8 0.3-0.1-0.1-0.3-0.2-0.5-0.3-0.1 0.3-0.1 0.3-0.2 0-0.4 0.2-0.8 0.3-1.3 0.3-0.1 0-0.2 0-0.3 0-0.2-0.1-0.3-0.3-0.4-0.5 0.3 0 0.3-0.1 0-0.2 0.1-0.1 0.1-0.2 0-0.3-0.1-0.3-0.1-0.6-0.1-0.9 0.9-0.2 1.9-0.5 2.8-0.6z"></path><path fill="#ddbd35" d="m16.8 3.7c0.4-0.1 0.8-0.2 1.3-0.2 0.7 0 1.5 0.1 2.2 0.3-1.2-0.1-2.3-0.1-3.5-0.1z"></path><path fill="#f9db37" d="m29.8 8.2c0.1 0.1 0.3 0.2 0.5 0.3 0.4 0.4 0.8 0.8 1.1 1.3 0.1-0.1 0.2-0.3 0.3-0.4l-0.3-0.2c0.2 0 0.4-0.1 0.4-0.4l0.2 0.3h0.6c0.1 0.1 0.1 0.2 0.2 0.2-0.2 0.1-0.2 0.2-0.2 0.3l0.1-0.1c0.2 0.2 0.3 0.4 0.4 0.6 0.1-0.2 0.2-0.2 0.4 0 0.3 0.5 0.5 1 0.6 1.5-0.3 0-0.6-0.2-0.9-0.5-0.2 0-0.4 0-0.5 0-0.1-0.4-0.2-0.4-0.4-0.1 0.1 0.3 0.2 0.6 0.4 0.9-0.1 0.2-0.2 0.3-0.3 0.3-0.1-0.1-0.1-0.2 0.1-0.3-0.8-0.8-1.4-1.8-2-2.7-0.1-0.1-0.3-0.2-0.4-0.3-0.1-0.2-0.2-0.5-0.3-0.7z"></path><path fill="#f7dc40" d="m27.5 7.3c0.5 0.5 1.1 0.9 1.6 1.4 0.3 0.5 0.6 1 0.9 1.5-0.1 0.1-0.1 0.1-0.1 0.2 0.1 0.2 0.2 0.4 0.1 0.6-0.2-0.2-0.4-0.2-0.6 0 0 0 0.1 0.1 0.1 0.1-0.1 0.1-0.2 0.2-0.2 0.3-0.1-0.3-0.2-0.3-0.3 0-0.1-0.1-0.3 0-0.4 0.1l-0.6-0.2-0.1 0.1c-0.2-0.1-0.3-0.3-0.3-0.5-0.1 0.1-0.1 0.3-0.3 0.4l-0.1-0.2c-0.2 0-0.3 0.2-0.3 0.4l-0.1-0.3c-0.1 0.2-0.2 0.3-0.4 0.2-0.2 0.2-0.2 0.4 0.1 0.5l-0.2 0.2c-0.2 0-0.4 0-0.6 0-0.2 0.1-0.3 0.1-0.5 0.1-0.2-0.3-0.4-0.7-0.5-1 0.1-0.1 0.1-0.2 0-0.3 0.1-0.2 0.2-0.2 0.3 0 0.1-0.1 0.2-0.2 0.2-0.4l0.1 0.2c0.2-0.4 0.5-0.7 0.8-1.1l0.1 0.2c0.1-0.1 0.1-0.3 0.1-0.4 0 0 0.1 0.1 0.1 0.2 0.3-0.1 0.6-0.2 0.8-0.3l0.1 0.2c0.1-0.2 0.2-0.3 0.4-0.1 0.3-0.3 0.6-0.4 1-0.2l0.2-0.4-0.6-0.4 0.1-0.1c-0.2-0.1-0.4-0.4-0.6-0.6-0.1 0.1-0.2 0.1-0.3 0 0.1-0.1 0.1-0.3 0-0.4z"></path><path fill="#f9e34c" d="m20 7c0.3 0.3 0.5 0.7 0.8 1 0 0 0.1-0.1 0.1-0.2 0.1 0.3 0.2 0.3 0.3 0 0 0.2 0.1 0.4 0.3 0.4 0.6 0.1 1.1 0.1 1.6 0-0.1-0.1 0-0.3 0.2-0.4h0.4c0.2 0.1 0.2 0.2 0.1 0.4l0.3 0.1c0.3-0.1 0.5-0.2 0.6-0.3l0.2 0.2c0.3 0 0.6 0.1 0.9 0.2-0.1 0.1-0.2 0.2-0.2 0.3 0.1 0.2 0.2 0.3 0.4 0.1 0.1 0.2 0.2 0.4 0.3 0.6 0 0.1 0 0.3-0.1 0.4l-0.1-0.2c-0.3 0.4-0.6 0.7-0.8 1.1l-0.1-0.2c0 0.2-0.1 0.3-0.2 0.4-0.1-0.2-0.2-0.2-0.3 0 0.1 0.1 0.1 0.2 0 0.3-0.1-0.2-0.3-0.3-0.5-0.4-0.1 0-0.2 0-0.4-0.1 0.1 0.3 0 0.5-0.3 0.7-0.1-0.2-0.3-0.2-0.6 0l-0.1-0.2-0.2 0.4c0-0.3-0.2-0.6-0.5-0.7l0.1-0.1c-0.2-0.2-0.5-0.3-0.9-0.4 0-0.5-0.1-0.9-0.5-1.2-0.2 0.2-0.3 0.4-0.4 0.7 0 0.4 0.1 0.7 0.2 1.1-0.2 0.3-0.4 0.2-0.6 0-0.1 0.1-0.2 0.1 0 0.2-0.2 0.1-0.3 0.1-0.5 0 0.1-0.3 0.3-0.6 0.5-0.8-0.1-0.3-0.2-0.3-0.3 0 0-0.2 0-0.4-0.1-0.6 0.1 0 0.2 0 0.4 0-0.1-0.2-0.3-0.3-0.5-0.3 0 0.1 0 0.2 0 0.3-0.1-0.3-0.2-0.3-0.3-0.1 0.1-0.2 0.1-0.5 0-0.8h-0.5c0 0.4-0.1 0.5-0.3 0.2 0.1-0.2 0.1-0.3 0-0.4-0.3-0.1-0.5-0.2-0.7-0.4-0.2 0-0.4 0-0.5 0l-0.4-0.7c0.2-0.3 0.4-0.5 0.7-0.6-0.3-0.1-0.3-0.2-0.2-0.4-0.2-0.2-0.3-0.1-0.3 0.2-0.1-0.1-0.2-0.3-0.2-0.4v-0.2c0.6-0.1 1.2-0.2 1.8-0.3 0.2 0.1 0.5 0.2 0.7 0.5 0.3-0.2 0.3-0.2 0.2 0.1 0.2 0.2 0.3 0.3 0.5 0.5z"></path><path fill="#f7d836" d="m6.1 8.6c0 0.2-0.1 0.4-0.3 0.5-0.3 0.2-0.5 0.5-0.7 0.9-0.2 0.6-0.5 1.1-0.9 1.5-0.1 0.3-0.3 0.6-0.4 0.8-0.3 0.2-0.4 0.3-0.5 0.6l-0.2-0.2c0.1-0.1 0.1-0.2 0-0.3 0.3-0.2 0.2-0.4-0.1-0.5 0.1-0.1 0.1-0.3 0-0.5-0.8 0.8-1.4 1.6-1.8 2.5l-0.1-0.1c0 0.2-0.1 0.5-0.3 0.7l-0.1-0.3c-0.1 0.2-0.2 0.2-0.3 0.3l0.7-2.7c0.2-0.2 0.3-0.5 0.4-0.7 0 0.1 0.1 0.2 0.1 0.2 0 0.1-0.1 0.1-0.2 0.2 0 0.2 0 0.4 0.1 0.7 0-0.2 0.1-0.4 0.2-0.6 0.3 0 0.4-0.1 0.3-0.2 0.1-0.1 0.2-0.1 0.3-0.2 0.2-0.3 0.4-0.6 0.6-0.8 0.1-0.1 0.1-0.2 0-0.3 0.1-0.2 0.1-0.2 0.2 0 0.4-0.4 0.7-0.7 1.2-0.8 0 0.1 0 0.2-0.2 0.3 0.1 0.1 0.3 0.2 0.3 0.4 0.4-0.3 0.8-0.6 1.1-1 0.2-0.2 0.4-0.3 0.6-0.4z"></path><path fill="#fae255" d="m2.2 9.3c0 0.1 0 0.2 0.1 0.3-0.2 0.6-0.4 1.2-0.7 1.7 0 0-0.1-0.1-0.1-0.2-0.1 0.2-0.2 0.5-0.4 0.7 0.2-0.9 0.6-1.8 1.1-2.5z"></path><path fill="#f3d54b" d="m6.5 9.3c-0.2 0.4-0.3 0.8-0.6 1.1 0.1 0.3 0.4 0.4 0.7 0.4-0.1 0.2-0.1 0.4-0.1 0.7 0.3 0.1 0.3 0.1 0 0.2 0.1 0.2 0.2 0.3 0.4 0.4 0.1-0.1 0.2-0.1 0.2 0.1l0.3-0.7 0.1 0.1c0.3-0.1 0.5-0.3 0.7-0.5 0.1 0.1 0.3 0.1 0.4 0 0.1 0.1 0.1 0.2 0.2 0.3 0.4 0.1 0.8 0.1 1.3 0 0.1 0 0.3 0.1 0.4 0.2-0.2 0.1-0.2 0.2 0.1 0.4 0.3-0.1 0.5 0.1 0.7 0.4l-0.3 0.1c0.2 0 0.4 0.1 0.5 0.2-0.4-0.1-0.9-0.1-1.3-0.1-0.2 0.2-0.3 0.3-0.5 0.4h-0.2c-1-0.6-1.8-0.4-2.5 0.6-0.3 0.3-0.5 0.7-0.5 1.2-0.1 0.3-0.2 0.7-0.3 1-0.1-0.2-0.2-0.3-0.2-0.6-0.1 0.1-0.1 0.2-0.2 0.3-0.2-0.2-0.4-0.4-0.7-0.4l0.2-0.1c-0.1-0.1-0.1-0.2 0-0.3 0-0.1-0.1-0.1-0.2 0-0.1-0.1-0.2-0.2-0.3-0.4-0.1 0.1-0.3 0.1-0.4-0.1l-0.1 0.4c-0.1-0.3-0.1-0.6 0-0.9 0.3-0.5 0.4-1 0.5-1.5 0.1-0.2 0.2-0.5 0.3-0.8 0.4-0.7 0.9-1.4 1.4-2.1z"></path><path fill="#f4ce31" d="m30.1 8.9c0.1 0.1 0.3 0.2 0.4 0.3 0.6 0.9 1.2 1.9 2 2.7-0.2 0.1-0.2 0.2-0.1 0.3 0.1 0 0.2-0.1 0.3-0.3-0.2-0.3-0.3-0.6-0.4-0.9 0.2-0.3 0.3-0.3 0.4 0.1 0.1 0 0.3 0 0.5 0 0.3 0.3 0.6 0.5 0.9 0.5 0.1 0.2 0 0.2-0.1 0.3 0.2 0.2 0.3 0.5 0.3 0.8l0.1-0.2c0.2 0.6 0.4 1.1 0.6 1.6 0-0.7-0.2-1.3-0.4-2 0-0.1 0-0.2 0.1-0.2l0.7 1.7c0.2 0.6 0.3 1.2 0.3 1.9v0.6c-0.1 0.2-0.2 0.2-0.3 0 0 0.2 0 0.4 0.1 0.5 0 0.1-0.1 0.2-0.2 0.2 0-0.5-0.2-1-0.5-1.5l0.2-0.2c-0.3-0.6-0.6-1.1-0.9-1.6l0.2-0.1c-0.3-0.1-0.5-0.3-0.6-0.6-0.1 0.4-0.2 0.8-0.3 1.3 0.1 0.3 0.1 0.6 0.1 1l-0.2 0.1-0.5-1.5c0-0.1-0.1-0.1-0.2-0.1-0.5-1-0.9-1.9-1.3-2.9-0.2-0.1-0.5-0.3-0.6-0.5 0-0.2 0-0.3-0.1-0.5-0.2-0.2-0.4-0.5-0.5-0.8z"></path><path fill="#f5e07e" d="m34.6 11.2c0.4 0.7 0.7 1.5 0.8 2.4l-0.7-1.7c-0.1-0.2-0.1-0.5-0.1-0.7z"></path><path fill="#cf7b00" d="m17.7 11.6c0 1.3 0 2.5 0.1 3.8 0-0.1 0.1-0.2 0.1-0.3 0.1 0.3 0.2 0.3 0.4 0 0.4-1 0.7-2 1.1-2.9-0.1-0.2-0.1-0.3 0-0.4 0.2-0.1 0.5 0 0.9 0.1 0.1 0 0.2 0.1 0.3 0.2-0.1 0.3-0.2 0.7-0.3 1-0.1 0-0.1 0.1-0.2 0.1-0.4 1.2-0.8 2.3-1.3 3.5-0.1 0.1-0.1 0.2-0.2 0.3 0.4 0.7 0.9 1.3 1.4 2 0.2 0.4 0.5 0.8 0.9 1.2 0 0.2 0.1 0.3 0.3 0.3 0.5-0.1 1-0.4 1.5-0.6 0.1 0 0.1 0.2 0.1 0.3 0.1 0.1 0.2 0.1 0.3 0.1-0.1 0.1-0.1 0.2 0 0.2 0 0.2 0 0.4 0.1 0.6 0.4 0.1 0.7 0.3 0.7 0.8h-0.4c-0.1 0.2 0 0.4 0.2 0.5-0.2 0.2-0.5 0.4-0.7 0.6-0.1 0.1-0.2 0.1-0.3 0.2-1.5 0.8-3 1.7-4.3 2.7-0.3 0-0.4-0.1-0.3-0.4-0.2 0-0.3 0-0.4-0.1 0.1 0 0.1 0 0.1-0.1-0.2-0.3-0.2-0.7-0.1-1.1 0.2-0.2 0.3-0.4 0.4-0.7 0.9-0.5 1.5-1.1 2-1.9-0.5-1-1.2-1.9-1.9-2.8 0 0.1 0 0.1 0 0.2-0.2-0.2-0.3-0.3-0.4-0.5-0.1 1.5-0.1 3 0 4.4l-0.1 0.2c-0.4 0.1-0.7 0.2-1.1 0.4 0-0.1 0.1-0.2 0.2-0.2-0.1-3.7-0.1-7.5 0-11.2 0.3-0.2 0.5-0.2 0.8 0 0-0.2 0-0.3 0.1-0.5z"></path><path fill="#f9e04c" d="m23.6 12.9c0.1 0.1 0.3 0.2 0.4 0.4 0 0-0.1 0.1-0.1 0.1-0.2 0.2-0.4 0.4-0.6 0.7-0.5 0-1.1-0.1-1.6-0.3-0.4 0.1-0.9 0.1-1.3-0.1-0.1-0.2-0.1-0.4-0.1-0.6 0.1-0.3 0.2-0.7 0.3-1 0.1-0.2 0.3-0.3 0.5-0.2 0.9 0.2 1.7 0.5 2.5 1z"></path><path fill="#f5e384" d="m1.1 11.8l-0.7 2.7c0 0 0 0.1-0.1 0.1 0.1-1 0.4-2 0.8-2.8z"></path><path fill="#f4d13b" d="m30 10.2c0.4 0.5 0.8 1.1 1 1.8 0 0.3 0.1 0.6 0.3 0.9 0.1 0.2 0.1 0.5 0 0.8-0.1-0.2-0.2-0.4-0.3-0.6 0 0.1-0.1 0.2-0.2 0.3 0.1 0.1 0.1 0.2 0 0.3-0.1-0.2-0.3-0.3-0.4-0.1 0 0.3 0 0.6 0 1-0.3 0-0.5-0.1-0.7-0.4 0 0.2-0.1 0.3-0.2 0.4l-0.8-0.7 0.3-0.1c-0.2-0.2-0.4-0.4-0.7-0.7l-0.1 0.2c-0.3-0.4-0.5-0.4-0.7 0.1 0 0.3 0.1 0.6 0.2 0.9-0.2 0.3-0.4 0.3-0.6-0.1-0.2 0.2-0.4 0.4-0.4 0.7-0.1-0.1-0.1-0.1-0.2-0.1 0-0.7-0.3-1.1-0.9-1.2 0.2-0.1 0.4-0.2 0.6-0.2-0.3 0-0.5-0.1-0.7-0.3-0.1 0.1-0.3 0-0.4-0.2 0.2-0.1 0.3-0.3 0.4-0.4 0.1 0.1 0.2 0.2 0.3 0.3 0.2-0.2 0.1-0.3-0.2-0.4 0.1-0.1 0.1-0.2 0.1-0.3 0.2 0 0.4 0 0.6 0l0.2-0.2c-0.3-0.1-0.3-0.3-0.1-0.5 0.2 0.1 0.3 0 0.4-0.2l0.1 0.3c0-0.2 0.1-0.4 0.3-0.4l0.1 0.2c0.2-0.1 0.2-0.3 0.3-0.4 0 0.2 0.1 0.4 0.3 0.5l0.1-0.1 0.6 0.2c0.1-0.1 0.3-0.2 0.4-0.1 0.1-0.3 0.2-0.3 0.3 0 0-0.1 0.1-0.2 0.2-0.3 0 0-0.1-0.1-0.1-0.1 0.2-0.2 0.4-0.2 0.6 0 0.1-0.2 0-0.4-0.1-0.6 0-0.1 0-0.1 0.1-0.2z"></path><path fill="#ce7901" d="m14 12.7c-0.4 1-0.9 2-1.3 3-0.6 1-1.1 2-1.5 3.1 0.3 0.7 0.8 1.4 1.3 2 0.5 0.6 0.9 1.3 1.4 1.9 0.1 0.3 0.4 0.6 0.7 0.8 0.1 0.1 0.3 0.1 0.5 0.1-0.7 0.1-1.5 0.1-2.3 0.1h-0.6c-2-0.2-3.8-1-5.2-2.5-0.5-1-0.7-2-0.4-3.1 0.1-0.4 0.2-0.7 0.3-1.1 0.2 0 0.3 0.1 0.4 0.3-0.8 1.9-0.4 3.5 1.3 4.8-0.1 0-0.1 0.1 0 0.2 0.2 0.1 0.4 0.1 0.6 0.1 0-2.1 0-4.1-0.3-6.1v-0.4l1.3-0.2c-0.1 0.7 0 1.3 0.1 1.9-0.1 0.2-0.1 0.3 0.2 0.5 0.1-0.1 0.2-0.1 0.3-0.3 0.7-1.5 1.3-3.1 1.9-4.7 0.4-0.3 0.8-0.5 1.3-0.4z"></path><path fill="#f0c328" d="m35.7 16.1c0.1 0.9 0.2 1.7 0.1 2.5-0.1-0.4-0.1-0.9-0.1-1.3-0.1 0.4-0.2 0.9-0.3 1.3l-0.1-0.1c0-0.3-0.1-0.6-0.1-0.9l0.1-0.2c-0.2-0.1-0.4-0.2-0.6-0.3 0.1 0 0.1-0.1 0.1-0.2-0.1-0.1-0.3-0.2-0.4-0.4l0.2-0.2c-0.2-0.1-0.3-0.3-0.3-0.5-0.1 0.1-0.2 0.3-0.2 0.4l0.3 0.1c-0.4 0.3-0.6 0.6-0.9 1-0.2-0.4-0.3-0.7-0.4-1-0.1-1-0.3-1.9-0.5-2.7 0.1 0 0.2 0 0.2 0.1l0.5 1.5 0.2-0.1c0-0.4 0-0.7-0.1-1 0.1-0.5 0.2-0.9 0.3-1.3 0.1 0.3 0.3 0.5 0.6 0.6l-0.2 0.1c0.3 0.5 0.6 1 0.9 1.6l-0.2 0.2c0.3 0.5 0.5 1 0.5 1.5 0.1 0 0.2-0.1 0.2-0.2-0.1-0.1-0.1-0.3-0.1-0.5 0.1 0.2 0.2 0.2 0.3 0z"></path><path fill="#c26300" d="m11.5 12.7v0.4c-0.6-0.3-1.1-0.2-1.6 0.2-0.3 0-0.3-0.1-0.2-0.3 0.2-0.1 0.3-0.2 0.5-0.4 0.4 0 0.9 0 1.3 0.1z"></path><path fill="#c16102" d="m9.5 13c0 0.1 0 0.2-0.1 0.2-0.7-0.2-1.3-0.1-1.9 0.4-0.2 0-0.3 0.2-0.4 0.4 0 0.3-0.2 0.6-0.4 0.9 0 0.4 0 0.9-0.1 1.2-0.1-0.4-0.2-0.8-0.1-1.3 0-0.5 0.2-0.9 0.5-1.2 0.7-1 1.5-1.2 2.5-0.6z"></path><path fill="#cc7707" d="m11.5 13.1c0.2 0.8 0 1.4-0.5 2-0.4 0.1-0.7 0.3-1 0.5-0.5 0-1 0.2-1.4 0.4-0.5 0.3-0.9 0.6-1.3 1-0.1-0.1-0.2-0.1-0.3-0.2-0.2-0.2-0.3-0.4-0.4-0.7 0.1-0.3 0.1-0.8 0.2-1.2 0.1-0.3 0.3-0.6 0.3-0.9 0.1-0.2 0.2-0.4 0.4-0.4 0.6-0.5 1.2-0.6 2-0.4 0 0 0-0.1 0-0.2h0.2c-0.1 0.2-0.1 0.3 0.2 0.3 0.5-0.4 1-0.5 1.6-0.2z"></path><path fill="#f2c836" d="m31 12c0.4 0.7 0.6 1.5 0.8 2.3 0 0.2-0.1 0.3-0.1 0.4 0.1 0.1 0.2 0.3 0.2 0.5-0.2-0.2-0.4-0.4-0.6-0.6-0.2 0.1-0.3 0.4-0.3 0.6 0.3 0.4 0.1 0.6-0.3 0.6-0.1 0.2 0 0.4 0.1 0.6-0.2 0.1-0.5 0.1-0.6 0.2-0.1-0.3-0.1-0.5-0.1-0.8h-0.6c0.2-0.7-0.1-1.2-0.9-1.4-0.1-0.1-0.1-0.2 0-0.3-0.1-0.2-0.3-0.4-0.5-0.4-0.2 0.2-0.2 0.5 0.2 0.6-0.2 0-0.2 0.1-0.1 0.2-0.1 0.4-0.3 0.7-0.5 1 0.3 0.2 0.4 0.5 0.3 0.9-0.1 0.3-0.4 0.6-0.7 0.8-0.4 0-0.7 0.2-1 0.3-0.4 0-0.5-0.1-0.5-0.5v-0.4c0.2-0.6 0.1-1.2-0.1-1.8 0.3 0.1 0.5 0.1 0.8 0 0.1 0 0.1 0 0.2 0.1 0-0.3 0.2-0.5 0.4-0.7 0.2 0.4 0.4 0.4 0.6 0.1-0.1-0.3-0.2-0.6-0.2-0.9 0.2-0.5 0.4-0.5 0.7-0.1l0.2-0.2c0.2 0.3 0.4 0.5 0.6 0.7l-0.3 0.1 0.8 0.7c0.1-0.1 0.2-0.2 0.2-0.4 0.2 0.3 0.4 0.4 0.7 0.4 0-0.4 0-0.7 0-1 0.1-0.2 0.3-0.1 0.4 0.1 0.1-0.1 0.1-0.2 0-0.3 0.1-0.1 0.2-0.2 0.3-0.3 0 0.2 0.1 0.4 0.2 0.6 0.1-0.3 0.1-0.6 0-0.8-0.2-0.3-0.3-0.6-0.3-0.9z"></path><path fill="#e9be3d" d="m10.2 13.3c0.1 0.2 0.2 0.4 0.2 0.7 0.1 0.4-0.1 0.7-0.6 0.7 0.1-0.4 0-0.7-0.1-1 0.1-0.3 0.2-0.3 0.4 0 0.1-0.1 0.1-0.2 0.1-0.4z"></path><path fill="#c56802" d="m23.8 12.7c0 0.1-0.1 0.1-0.2 0.2-0.8-0.5-1.6-0.8-2.5-1-0.2-0.1-0.4 0-0.5 0.2-0.1-0.1-0.2-0.2-0.4-0.2-0.3-0.1-0.6-0.2-0.9-0.1 0 0.1 0 0.2 0.1 0.3-0.4 1-0.7 2-1.1 3-0.2 0.3-0.3 0.3-0.4 0 0.4-1.1 0.8-2.3 1.3-3.3-0.5-0.2-1-0.2-1.5-0.2-0.1 0.2-0.1 0.3-0.2 0.5-0.2-0.2-0.4-0.2-0.7 0-0.1 3.7-0.1 7.5 0 11.2-0.1 0-0.2 0.1-0.2 0.2-0.5 0-1 0.1-1.5 0.1-0.2 0-0.4 0-0.5-0.1 0.6-0.1 1.2-0.2 1.8-0.3 0-3.8 0-7.6-0.1-11.4-0.1 0-0.1 0-0.2 0.1-0.6 0-1.2 0.2-1.9 0.4-0.1 0.1-0.1 0.2-0.2 0.4-0.5-0.1-0.9 0.1-1.3 0.4-0.6 1.6-1.2 3.2-1.9 4.7-0.1 0.2-0.2 0.2-0.3 0.3-0.3-0.2-0.3-0.3-0.2-0.5 0.6-1.5 1.2-3 1.8-4.5-0.2 0-0.3 0-0.3-0.2 1.3-0.6 2.8-1.1 4.2-1.4 1.4-0.1 2.7-0.1 4.1 0 1.3 0.1 2.5 0.5 3.7 1.2z"></path><path fill="#f9dc46" d="m17.7 11.6c0.5 0 1 0 1.5 0.2-0.5 1-0.9 2.2-1.3 3.3 0 0.1-0.1 0.2-0.1 0.3-0.1-1.3-0.1-2.5-0.1-3.8z"></path><path fill="#fad33e" d="m20.3 13.1c0 0.2 0 0.4 0.1 0.6 0.4 0.2 0.9 0.2 1.3 0.1 0.5 0.2 1.1 0.3 1.6 0.3-0.2 0.4-0.5 0.7-0.6 1.1 0 0.2 0.1 0.3 0.2 0.3 0 0.5 0 0.9-0.1 1.4-0.1-0.4-0.2-0.4-0.3 0 0-0.5-0.1-1-0.2-1.5 0.1-0.2 0-0.3-0.1-0.4-0.1-0.2-0.2-0.3-0.4-0.4-0.9-0.2-1.5 0.1-1.9 0.9-0.1 0.1-0.2 0.3-0.2 0.5 0.1 0.3 0.1 0.5 0.3 0.6-0.4 0.1-0.7 0.1-1 0l-0.1 0.2c0 0-0.1 0-0.1-0.1 0.5-1.2 0.9-2.3 1.3-3.5 0.1 0 0.1-0.1 0.2-0.1z"></path><path fill="#f5ce31" d="m3.8 12.3c-0.3 0.7-0.5 1.5-0.7 2.3-0.1 0-0.2 0-0.2 0.1-0.1 0.4-0.3 0.7-0.5 1.1 0.1 0.1 0.2 0.3 0.1 0.5-0.2-0.6-0.4-1.1-0.4-1.7-0.1-0.1-0.3-0.1-0.5 0-0.4 1-0.8 2-1 3.1-0.3-0.4-0.4-0.9-0.2-1.3-0.1-0.1-0.1-0.2-0.2-0.1v-1.1c-0.1-0.2 0-0.4 0.1-0.6 0.1 0 0.1-0.1 0.1-0.1 0.1-0.1 0.2-0.1 0.3-0.3l0.1 0.3c0.2-0.2 0.3-0.5 0.3-0.7l0.1 0.1c0.4-0.9 1-1.7 1.8-2.5 0.1 0.2 0.1 0.4 0 0.5 0.3 0.1 0.4 0.3 0.1 0.5 0.1 0.1 0.1 0.2 0 0.3l0.2 0.2c0.1-0.3 0.2-0.4 0.5-0.6z"></path><path fill="#dba728" d="m30.7 10.2c0.1 0.2 0.4 0.4 0.6 0.5 0.4 1 0.8 1.9 1.3 2.9 0.2 0.8 0.4 1.7 0.5 2.7v0.7l-0.2 2.1c0-0.6 0-1.1 0-1.6-0.1 0.5-0.1 1-0.2 1.5 0-1.6-0.1-3.1-0.4-4.5-0.3-1.6-0.9-3-1.6-4.3z"></path><path fill="#f2d149" d="m7.1 14c0.4 0.1 0.7 0.3 0.8 0.7 0-0.3 0-0.6 0-0.9 0.6-0.1 1.1-0.2 1.7-0.4l0 0.2c-0.4 0.2-0.9 0.3-1.4 0.4 0 0.4-0.1 0.8 0 1.2-0.3 0-0.6-0.2-0.7-0.5 0 0.2 0 0.5 0 0.8h-0.4v-1.5z"></path><path fill="#eec23c" d="m10.6 13.6c0.5-0.1 0.7 0.1 0.5 0.6-0.1 0.3-0.3 0.3-0.5 0.1-0.1-0.2-0.1-0.5 0-0.7z"></path><path fill="#fbd640" d="m16.1 11.9c0.2 1.7 0.2 3.5 0.2 5.3-0.1 0-0.2-0.1-0.2-0.2v-0.7c-0.2-0.1-0.4 0-0.6 0.1 0-0.3 0-0.6 0-0.9-0.2-0.1-0.3 0-0.4 0.1-0.3 0.4-0.7 0.8-1 1.2-0.1-0.1-0.2-0.1-0.3 0.1 0 0 0-0.1 0-0.2 0-0.5-0.3-0.8-0.8-0.7 0-0.2-0.1-0.2-0.3-0.1 0 0-0.1-0.1 0-0.2 0.4-1 0.9-2 1.3-3 0.1-0.2 0.1-0.3 0.2-0.4 0.7-0.2 1.3-0.4 1.9-0.4z"></path><path fill="#f1d048" d="m9.2 13.9c0.1 0 0.3 0 0.4 0.1-0.1 0-0.2 0.1-0.3 0.1 0.5 0.2 0.5 0.4 0.2 0.8-0.1 0-0.2 0-0.3 0 0-0.1 0-0.2 0-0.3 0.1 0.1 0.2 0.1 0.3 0-0.1-0.1-0.2-0.2-0.3-0.1v-0.6z"></path><path fill="#ce7a04" d="m23.8 12.7c0.9 0.4 1.5 1.1 1.9 2.1 0.2 0.6 0.3 1.2 0.1 1.8 0-0.3-0.1-0.6-0.1-0.9-0.1 0.2-0.1 0.5-0.2 0.7 0.1-0.8-0.1-1.5-0.5-2.2 0 0.6-0.2 0.9-0.8 0.9-0.1 0.7-0.1 1.3-0.1 1.9 0.3 0.1 0.5 0 0.7-0.2 0.1 1-0.4 1.4-1.3 1.1 0 0.1 0 0 0.1 0-0.1-0.7-0.2-1.3-0.2-2-0.1-0.1-0.2-0.2-0.3-0.4 0.4-0.5 0.7-1.1 1-1.7 0-0.2-0.1-0.3-0.2-0.4 0 0 0.1-0.1 0.1-0.1-0.1-0.2-0.3-0.3-0.4-0.4 0.1-0.1 0.2-0.1 0.2-0.2z"></path><path fill="#f5d949" d="m24.2 13.6c0.8 0.2 0.8 0.5 0 0.6v-0.6z"></path><path fill="#efc328" d="m3.1 14.6c-0.3 1.3-0.5 2.7-0.5 4.1-0.1 0.2-0.3 0.3-0.5 0.4-0.1-0.1-0.1-0.2 0-0.3-0.3-0.2-0.5-0.4-0.4-0.6-0.6 0.6-0.9 1.2-1.1 2 0 0-0.1-0.1-0.2-0.1-0.1-0.6-0.2-1.1-0.2-1.7 0 0.4-0.1 0.8-0.1 1.2-0.1-1.1 0-2.2 0.1-3.3 0.1-0.1 0.1 0 0.2 0.1-0.2 0.4-0.1 0.9 0.2 1.3 0.2-1.1 0.6-2.1 1-3.1 0.2-0.1 0.4-0.1 0.5 0 0 0.6 0.2 1.1 0.4 1.7 0.1-0.2 0-0.4-0.1-0.5 0.2-0.4 0.4-0.7 0.5-1.1 0-0.1 0.1-0.1 0.2-0.1z"></path><path fill="#dfaf2b" d="m5.8 9.1c0 0.1 0 0.3-0.1 0.4-1 1.5-1.8 3.1-2.2 5-0.2 1.4-0.4 2.9-0.3 4.5-0.1-0.7-0.1-1.3-0.2-2 0 0.8 0 1.5 0 2.3l-0.2-0.3c-0.1-0.1-0.2-0.2-0.2-0.3 0-1.4 0.2-2.8 0.5-4.1 0.2-0.8 0.4-1.6 0.7-2.3 0.1-0.2 0.3-0.5 0.4-0.8 0.4-0.4 0.7-0.9 0.9-1.5 0.2-0.4 0.4-0.7 0.7-0.9z"></path><path fill="#f3d348" d="m8.7 15h-0.3c-0.2-0.4-0.1-0.8 0.3-1 0.5 0.3 0.5 0.5-0.2 0.7 0.1 0.3 0.2 0.3 0.4 0 0.1 0.1 0 0.3-0.2 0.3z"></path><path fill="#ce7901" d="m22.2 15c0.1 0.1 0.2 0.2 0.1 0.4v2c0.2 0 0.3 0 0.4-0.1 0 0.3 0 0.7-0.2 1-0.3 0.2-0.6 0.3-1 0.1-0.1 0-0.1 0.1-0.2 0.2-0.4 0.2-0.8 0.3-1.2 0.2-0.2-0.2-0.3-0.3-0.4-0.5 0.2-0.3 0.4-0.7 0.6-1 0.3-0.3 0.7-0.6 1-0.9 0.2-0.4 0.1-0.5-0.2-0.4 0.1-0.1 0.1-0.3 0.1-0.4-0.1 0-0.3 0-0.4 0-0.3 0.3-0.6 0.5-0.8 0.8 0.2-0.9 0.7-1.4 1.6-1.6 0.2 0 0.4 0.1 0.6 0.3 0 0 0 0 0-0.1z"></path><path fill="#f8cd39" d="m25.5 16.4c-0.1 0.2-0.2 0.5-0.2 0.8-0.2-0.2-0.3-0.3-0.4-0.5 0 0-0.1 0.1-0.1 0.1-0.2 0.2-0.4 0.3-0.7 0.2 0-0.6 0-1.2 0.1-1.9 0.6 0 0.8-0.3 0.8-0.9 0.4 0.7 0.6 1.4 0.5 2.2z"></path><path fill="#ecc135" d="m31.9 15.2c0.1 0.7 0.1 1.3 0.2 2-0.1-0.3-0.2-0.3-0.3-0.2l-0.5-0.3c0 0.1-0.1 0.2-0.1 0.3-0.2 0-0.4 0-0.6 0-0.1 0.3-0.1 0.6 0.1 0.8-0.1 0.1-0.2 0.2-0.3 0.2 0.4 0.1 0.4 0.2 0.1 0.3l-0.3-0.1c0.1-0.2 0.1-0.4-0.1-0.6-0.1-0.1-0.2-0.1-0.3 0 0-0.1-0.1-0.2 0-0.3-0.4-0.2-0.7-0.2-0.9 0 0 0.2-0.1 0.2-0.3 0.1-0.1 0.4-0.2 0.4-0.3 0 0 0.3-0.1 0.2-0.2-0.1 0.1-0.1 0.1-0.2 0.1-0.4-0.3 0.1-0.4 0.2-0.6 0.4-0.1-0.1-0.2-0.1-0.3-0.1 0.3-0.2 0.6-0.5 0.7-0.8 0.1-0.4 0-0.7-0.3-0.9 0.2-0.3 0.4-0.6 0.5-1-0.1-0.1-0.1-0.2 0.1-0.2-0.4-0.1-0.4-0.4-0.2-0.6 0.2 0 0.4 0.2 0.5 0.4-0.1 0.1-0.1 0.2 0 0.3 0.8 0.2 1.1 0.7 0.9 1.4h0.6c0 0.3 0 0.5 0 0.8 0.2-0.1 0.5-0.1 0.7-0.2-0.1-0.2-0.2-0.4-0.1-0.6 0.4 0 0.6-0.2 0.3-0.6 0-0.2 0.1-0.5 0.3-0.6 0.2 0.2 0.4 0.4 0.6 0.6z"></path><path fill="#ecc238" d="m4.8 12.2c-0.1 0.5-0.2 1-0.5 1.5-0.1 0.3-0.1 0.6 0 0.9l0.1-0.4c0.1 0.2 0.3 0.2 0.4 0.1 0.1 0.2 0.2 0.3 0.3 0.4 0.1-0.1 0.2-0.1 0.2 0-0.1 0.1-0.1 0.2 0 0.3l-0.2 0.1c0.3 0 0.5 0.2 0.7 0.4 0.1-0.1 0.1-0.2 0.2-0.3 0 0.3 0.1 0.4 0.2 0.6 0.1-0.3 0.2-0.7 0.3-1-0.1 0.5 0 0.9 0.1 1.3 0.1 0.3 0.2 0.5 0.4 0.7l-0.1 0.2c-0.1 0.4-0.2 0.7-0.3 1.1-0.2 0.2-0.5 0.4-0.8 0.4 0 0.4-0.1 0.4-0.3 0.1-0.1 0.1-0.2 0.1-0.3-0.1 0.1-0.1 0.1-0.1 0.1-0.2-0.2 0-0.3 0-0.5 0.1-0.1-0.3-0.2-0.3-0.3 0-0.2-0.1-0.3-0.3-0.3-0.5-0.2 0.2-0.2 0.4-0.1 0.6-0.1 0.1-0.3 0.2-0.4 0.2 0-1.2 0-2.4 0.1-3.7 0.2-1 0.5-1.9 1-2.8z"></path><path fill="#f5cc3a" d="m11.5 12.9h0.3c0 0.2 0.1 0.2 0.3 0.2-0.6 1.5-1.2 3-1.8 4.5-0.1-0.6-0.2-1.2-0.1-1.9-0.1-0.1-0.1-0.1-0.2-0.1 0.3-0.2 0.6-0.4 1-0.5 0.5-0.6 0.7-1.2 0.5-2v-0.2z"></path><path fill="#c05e00" d="m22.2 15c0 0.1 0 0.1 0 0.1-0.2-0.2-0.4-0.3-0.6-0.3-0.9 0.2-1.4 0.7-1.6 1.6-0.1-0.3-0.2-0.6-0.1-0.9 0.4-0.8 1-1.1 1.9-0.9 0.2 0.1 0.3 0.2 0.4 0.4z"></path><path fill="#f0c235" d="m8.4 15h0.3c0 0.1 0.1 0.1 0.1 0.1 0.8-0.1 1.6-0.3 2.3-0.5l-0.2 0.3c-0.9 0.2-1.8 0.4-2.6 0.6l-1 0.8c-0.1-0.2-0.1-0.3 0-0.5 0.4-0.3 0.8-0.5 1.2-0.6-0.1-0.1-0.1-0.1-0.1-0.2z"></path><path fill="#c66b01" d="m23.9 13.4c0.1 0.1 0.2 0.2 0.2 0.4-0.3 0.6-0.6 1.2-1 1.7 0.1 0.2 0.2 0.3 0.3 0.4 0 0.7 0.1 1.3 0.2 2-0.1 0-0.1 0.1-0.1 0-0.2 0-0.3-0.2-0.4-0.3-0.1-0.7-0.1-1.4-0.2-2.1-0.1 0-0.2-0.1-0.2-0.3 0.1-0.4 0.4-0.7 0.6-1.1 0.2-0.3 0.4-0.5 0.6-0.7z"></path><path fill="#c16201" d="m19.7 18.3c-0.1-0.4-0.1-0.8 0.1-1.1 0.4-0.5 0.8-0.9 1.3-1.2 0.3-0.1 0.4 0 0.2 0.4-0.3 0.3-0.7 0.6-1 0.9-0.2 0.3-0.4 0.7-0.6 1z"></path><path fill="#c16100" d="m8.9 16.3c0.3 2 0.3 4 0.3 6.1-0.2 0-0.4 0-0.6-0.1-0.1-0.1-0.1-0.2 0-0.2h0.1c0 0.1 0.1 0.1 0.1 0.1 0.1-2 0.2-4 0.1-5.9z"></path><path fill="#cf7c03" d="m15.1 15.6c0.1-0.1 0.2-0.2 0.4-0.1 0 0.3 0 0.6 0 0.9 0.2-0.1 0.4-0.2 0.6-0.1v0.7c-0.2 0.1-0.4 0.2-0.6 0.2v1.9c0.2 0.1 0.4 0.1 0.6-0.1 0 0.9-0.5 1.3-1.4 1.1 0.3 0 0.3-0.1 0-0.2l-0.1-2.1c-0.1 0-0.1-0.1-0.1-0.2 0.2-0.5 0.5-0.9 0.7-1.2l0.2-0.4c-0.1-0.2-0.1-0.3-0.3-0.4z"></path><path fill="#dfa227" d="m10 15.6c0.1 0 0.1 0 0.2 0.1l-1.3 0.2v0.4c0.1 1.9 0 3.9-0.1 5.9 0 0-0.1 0-0.1-0.1 0.1-1 0.1-2 0.1-3 0-1.1 0-2.1-0.2-3.1 0.4-0.2 0.9-0.4 1.4-0.4z"></path><path fill="#cb7402" d="m13 16c0.5-0.1 0.8 0.2 0.8 0.7-0.2 0.5-0.5 0.6-1 0.5-0.2-0.4-0.1-0.8 0.2-1.2z"></path><path fill="#e9b833" d="m8.6 16c0.2 1 0.2 2 0.2 3.1 0 1 0 2-0.1 3h-0.1c-1.7-1.3-2.1-2.9-1.3-4.8-0.1-0.2-0.2-0.3-0.4-0.3l0.1-0.2c0.1 0.1 0.2 0.1 0.3 0.2 0.4-0.4 0.8-0.7 1.3-1z"></path><path fill="#f3c434" d="m19.9 15.5c-0.1 0.3 0 0.6 0.1 0.9 0.2-0.3 0.5-0.5 0.8-0.8 0.1 0 0.3 0 0.4 0 0 0.1 0 0.3-0.1 0.4-0.5 0.3-0.9 0.7-1.3 1.2-0.2 0.3-0.2 0.7-0.1 1.1 0.1 0.2 0.2 0.3 0.4 0.5 0.4 0.1 0.8 0 1.2-0.2h0.9c0 0.4 0 0.4-0.1 0.1-0.3 0.3-0.6 0.4-0.9 0.3 0 0.1 0 0.2 0 0.3-0.4-0.1-0.8-0.3-1.2-0.3-0.5-0.7-1-1.3-1.4-2 0.1-0.1 0.1-0.2 0.2-0.3 0 0.1 0.1 0.1 0.1 0.1l0.1-0.2c0.3 0.1 0.6 0.1 1 0.1-0.2-0.2-0.2-0.4-0.3-0.7 0-0.2 0.1-0.4 0.2-0.5z"></path><path fill="#f0be32" d="m12.7 15.7c-0.1 0.1 0 0.2 0 0.2 0.2-0.1 0.3-0.1 0.3 0.1-0.3 0.4-0.4 0.8-0.2 1.2 0.5 0.1 0.8 0 1-0.5 0 0.1 0 0.2 0 0.2 0.1-0.2 0.2-0.2 0.3-0.1-0.1 0.3-0.2 0.5-0.2 0.8h0.3v1.1c-0.1-0.1-0.3-0.1-0.4 0 0-0.5 0-0.9-0.1-1.4-0.1 0-0.1 0-0.1 0.1-0.3 0.2-0.6 0.4-0.9 0.5-0.2 1-0.2 1.9-0.2 2.9-0.5-0.6-1-1.3-1.3-2 0.4-1.1 0.9-2.1 1.5-3.1z"></path><path fill="#e9b832" d="m31.8 14.3c0.4 1.5 0.5 3.1 0.4 4.7 0 0.4 0 0.8-0.1 1.2-0.3 0.6-0.4 1.2-0.4 1.9h-0.4c0 0.1 0 0.2 0 0.3-0.1-0.1-0.2-0.2-0.2-0.4 0.1-0.1 0.2-0.1 0.3 0 0.1-0.3 0.1-0.5 0-0.8 0 0.4-0.2 0.4-0.5 0.1 0.1 0.3 0 0.5-0.2 0.7 0 0-0.1-0.1 0-0.1 0-0.4 0-0.8-0.3-1.1 0-0.3-0.1-0.4-0.3-0.4l-3.4-1.2c-0.6-0.2-1.2-0.3-1.9-0.3 0.4-0.6 0.8-1.2 1-1.9 0 0.4 0.1 0.5 0.5 0.5 0.3-0.1 0.6-0.3 1-0.3 0.1 0 0.2 0 0.3 0.1 0.2-0.2 0.3-0.3 0.6-0.4 0 0.2 0 0.3-0.1 0.4 0.1 0.3 0.2 0.4 0.3 0.1 0 0.4 0.1 0.4 0.2 0 0.2 0.1 0.3 0.1 0.3-0.1 0.2-0.2 0.5-0.2 0.9 0-0.1 0.1 0 0.2 0 0.3 0.1-0.1 0.2-0.1 0.3 0 0.2 0.2 0.2 0.4 0.1 0.6l0.3 0.1c0.3-0.1 0.3-0.2-0.1-0.3 0.1 0 0.2-0.1 0.3-0.2-0.2-0.2-0.2-0.5-0.1-0.8 0.2 0 0.4 0 0.6 0 0-0.1 0.1-0.2 0.1-0.3l0.5 0.3c0.1-0.1 0.2-0.1 0.3 0.2-0.1-0.7-0.1-1.3-0.2-2 0-0.2-0.1-0.4-0.2-0.5 0-0.1 0.1-0.2 0.1-0.4z"></path><path fill="#f4c433" d="m16.1 17c0 0.1 0.1 0.2 0.2 0.2v1.6c-0.3 0-0.5-0.1-0.7-0.1 0 0.2 0 0.3-0.1 0.4v-1.9c0.2 0 0.4-0.1 0.6-0.2z"></path><path fill="#f4c434" d="m21.1 17c0.1 0.3 0.1 0.5 0.1 0.8h-0.4c-0.1-0.3 0-0.6 0.3-0.8z"></path><path fill="#c76c01" d="m15.1 15.6c0.2 0.1 0.2 0.2 0.3 0.4l-0.2 0.4c-0.2 0.3-0.5 0.7-0.7 1.2 0 0.1 0 0.2 0.1 0.2l0.1 2.1c0.3 0.1 0.3 0.2 0 0.2-0.2-0.1-0.3-0.3-0.4-0.5-0.1-0.3-0.1-0.6-0.1-0.9v-1.1h-0.3c0-0.3 0.1-0.5 0.2-0.8 0.3-0.4 0.7-0.8 1-1.2z"></path><path fill="#ead184" d="m35.7 15.5l0.2 0.8v3.3l-0.2 0.8 0.1-1.8c0.1-0.8 0-1.6-0.1-2.5v-0.6z" opacity=".427"></path><path fill="#d07d02" d="m13.6 17.4c0-0.1 0-0.1 0.1-0.1 0.1 0.5 0.1 0.9 0.1 1.4 0 0.6 0 1.2-0.1 1.7-0.2 0.1-0.5 0.2-0.8 0.2 0-0.7 0-1.5 0-2.2 0.2-0.2 0.4-0.4 0.7-0.5 0.1-0.2 0.1-0.3 0-0.5z"></path><path fill="#b87716" d="m32.3 14.5c0.3 1.4 0.4 2.9 0.4 4.5 0 0.8-0.2 1.6-0.5 2.3-0.2 0.7-0.4 1.3-0.7 1.9 0 0.2-0.1 0.3-0.3 0.4 0.5-1.1 0.8-2.2 0.9-3.4 0.1-0.4 0.1-0.8 0.1-1.2 0.1-1.6 0.1-3.1 0.1-4.5z"></path><path fill="#c46701" d="m13.6 17.4c0.1 0.2 0.1 0.3 0 0.5-0.3 0.1-0.5 0.3-0.7 0.5 0 0.7 0 1.5 0 2.2-0.1 0.1-0.2 0.1-0.4 0.2 0-1 0-1.9 0.2-2.9 0.3-0.1 0.6-0.3 0.9-0.5z"></path><path fill="#ecb520" d="m35.8 18.6l-0.1 1.8v0.5c-0.1 0.1-0.2 0.3-0.2 0.4-0.1-0.1-0.2-0.3-0.2-0.4l-0.1 0.3c0.1 0.3 0.1 0.6-0.1 0.9l-0.1-0.1c-0.1-0.8-0.2-1.6-0.2-2.4-0.1-0.1-0.2-0.1-0.3 0 0-0.3-0.1-0.5-0.4-0.6-0.3 0.4-0.5 0.9-0.6 1.3-0.2-1.1-0.3-2.1-0.4-3.1v-0.9c0.1 0.3 0.2 0.6 0.4 1 0.3-0.4 0.5-0.7 0.9-1l-0.3-0.1c0-0.1 0.1-0.3 0.2-0.4 0 0.2 0.1 0.4 0.3 0.5l-0.2 0.2c0.1 0.2 0.3 0.3 0.4 0.4 0 0.1 0 0.2-0.1 0.2 0.2 0.1 0.4 0.2 0.6 0.3l-0.1 0.2c0 0.3 0.1 0.6 0.1 0.9l0.1 0.1c0.1-0.4 0.2-0.9 0.3-1.3 0 0.4 0 0.9 0.1 1.3z"></path><path fill="#eeb62c" d="m22.3 15.4c0.1 0.5 0.2 1 0.2 1.5 0.1-0.4 0.2-0.4 0.3 0 0.1-0.5 0.1-0.9 0.1-1.4 0.1 0.7 0.1 1.4 0.2 2.1 0.1 0.1 0.2 0.3 0.4 0.3 0.9 0.3 1.4-0.1 1.3-1.1 0 0 0.1-0.1 0.1-0.1 0.1 0.2 0.2 0.3 0.4 0.5-0.1 0.8-0.6 1.4-1.3 1.9-0.1 0.2-0.2 0.4-0.3 0.5-0.1-0.2-0.3-0.2-0.6-0.1 0 0.3 0 0.6 0 0.8-0.1 0-0.2 0-0.3-0.1 0-0.1 0-0.3-0.1-0.3v-0.4c-0.6 0.3-1.2 0.5-1.8 0.7-0.4-0.4-0.7-0.8-0.9-1.2 0.4 0 0.8 0.2 1.1 0.3 0.1-0.1 0.1-0.2 0.1-0.3 0.3 0.1 0.6 0 0.8-0.3 0.2 0.3 0.2 0.3 0.2-0.1h-0.9c0.1-0.1 0.1-0.2 0.2-0.2 0.4 0.2 0.7 0.1 1-0.1 0.2-0.3 0.2-0.7 0.2-1-0.1 0.1-0.2 0.1-0.4 0.1v-2z"></path><path fill="#c56902" d="m22.3 18.7c0.4 0 0.7 0.1 0.9 0.4-0.5 0.3-0.8 0.2-0.9-0.4z"></path><path fill="#f3e28f" d="m0.2 15.2v1.1c-0.1 1.1-0.2 2.2-0.1 3.3h-0.2v-3.3l0.3-1.1z" opacity=".31"></path><path fill="#c76c01" d="m25.8 16.6v0.4c-0.2 0.7-0.6 1.3-1 1.9 0.7 0 1.3 0.1 1.9 0.3l3.4 1.2c0.2 0 0.3 0.1 0.3 0.4 0 0 0 0.1 0 0.2-1.8-0.8-3.7-1.3-5.5-1.7-0.6 0.2-0.7 0.6-0.4 1.1 0.1 0.6 0.2 1.2 0.3 1.7h-0.3c-0.1-0.3-0.2-0.6-0.3-0.9-0.1 0.3-0.2 0.3-0.3 0 0.1-0.1 0.2-0.3 0.3-0.4 0-0.3-0.1-0.5-0.1-0.8-0.1 0-0.2 0-0.3 0-0.2 0.3-0.4 0.4-0.7 0.5-0.1 0-0.1-0.1 0-0.2 0-0.2 0-0.5 0-0.8 0.3-0.1 0.5-0.1 0.6 0.1 0.1-0.1 0.2-0.3 0.3-0.5 0.7-0.5 1.2-1.1 1.3-1.9 0-0.3 0.1-0.6 0.2-0.8 0.1-0.2 0.1-0.5 0.2-0.7 0 0.3 0.1 0.6 0.1 0.9z"></path><path fill="#d07c00" d="m30.4 20.8c0.3 0.3 0.3 0.7 0.3 1.1-0.3 0.2-0.4 0.4-0.4 0.8-0.8-0.1-1.6-0.1-2.3-0.1-1.2-0.2-2.4-0.3-3.5-0.5h0.3c-0.1-0.5-0.2-1.1-0.3-1.7-0.3-0.5-0.2-0.9 0.4-1.1 1.8 0.4 3.7 0.9 5.5 1.7 0-0.1 0-0.2 0-0.2z"></path><path fill="#eab421" d="m2.6 18.7c0 0.1 0.1 0.2 0.2 0.3 0 1 0.1 2 0.3 3-0.2 0.1-0.2 0.3-0.3 0.6-0.1-0.2-0.1-0.3 0-0.4-0.2-0.2-0.3-0.2-0.4-0.1l-0.4-0.8c-0.1 0.1-0.3 0.1-0.5 0.1 0.2 0.3 0.1 0.7-0.1 1 0 0.2 0.1 0.3 0.2 0.4-0.1 0.2-0.1 0.4 0 0.7 0.2 0.6 0.4 1.1 0.7 1.7-0.1 0.1-0.1 0.1-0.2 0-0.1-0.2-0.2-0.5-0.4-0.6l-0.1-0.8c-0.1-0.1-0.3-0.1-0.4-0.1 0-0.2 0-0.4-0.1-0.6-0.1 0.1-0.1 0.2-0.1 0.2-0.4-0.8-0.6-1.7-0.8-2.7-0.1-0.3-0.2-0.6-0.1-1 0-0.4 0.1-0.8 0.1-1.2 0 0.6 0.1 1.1 0.3 1.7 0 0 0.1 0.1 0.1 0.1 0.2-0.8 0.5-1.4 1.1-2-0.1 0.2 0.1 0.4 0.4 0.6-0.1 0.1-0.1 0.2 0 0.3 0.2-0.1 0.4-0.2 0.5-0.4z"></path><path fill="#e6b32c" d="m6.6 18.1c-0.3 1.1-0.1 2.1 0.4 3.1 0 0.4-0.2 0.4-0.4 0.1-0.2 0.3-0.4 0.6-0.5 1-0.3-0.2-0.4-0.4-0.5-0.7-0.1-0.1-0.3-0.1-0.4-0.1l-0.1-0.6c-0.2-0.1-0.4 0-0.5 0.1-0.2 0.4-0.3 0.9-0.3 1.3-0.3-1-0.6-2-0.6-3.1v-0.5c0.1 0 0.3-0.1 0.4-0.2-0.1-0.2-0.1-0.4 0.1-0.6 0 0.2 0.1 0.4 0.3 0.5 0.1-0.3 0.2-0.3 0.3 0 0.2-0.1 0.3-0.1 0.5-0.1 0 0.1 0 0.1-0.1 0.2 0.1 0.2 0.2 0.2 0.3 0.1 0.2 0.3 0.3 0.3 0.3-0.1 0.3 0 0.6-0.2 0.8-0.4z"></path><path fill="#f2c844" d="m3.2 19c0.1 1.7 0.6 3.4 1.2 5-0.1 0.1-0.1 0.3 0 0.5-0.4-0.7-0.7-1.4-0.9-2.3-0.2-1-0.4-1.9-0.5-2.9 0-0.8 0-1.5 0-2.3 0.1 0.7 0.1 1.3 0.2 2z"></path><path fill="#c16200" d="m22.7 19.9c-0.5 0.2-1 0.5-1.6 0.6-0.1 0-0.2-0.1-0.2-0.3 0.6-0.2 1.2-0.4 1.8-0.7v0.4z"></path><path fill="#ebae26" d="m14.2 18.7c0 0.3 0 0.6 0.1 0.9 0.1 0.2 0.2 0.4 0.4 0.5 0.9 0.2 1.4-0.2 1.4-1.1-0.2 0.2-0.4 0.2-0.6 0.1 0.1-0.1 0.1-0.2 0.1-0.4 0.2 0 0.4 0.1 0.7 0.1 0 1.4 0 2.8-0.1 4.2-0.4-0.3-0.8-0.6-1.3-0.8-0.4 0.2-0.7 0.4-1 0.5-0.5-0.6-0.9-1.3-1.4-1.9 0.2-0.1 0.3-0.1 0.4-0.2 0.3 0 0.6-0.1 0.8-0.2 0.1-0.5 0.1-1.1 0.1-1.7 0.1-0.1 0.3-0.1 0.4 0z"></path><path fill="#ebae27" d="m18.2 19c0.5 0.7 1 1.5 1.5 2.3l-1.5 1.5c-0.1 0.1-0.3 0.1-0.4 0.1-0.1-1.4-0.1-2.9 0-4.4 0.1 0.2 0.2 0.3 0.4 0.5z"></path><path fill="#e3ab2b" d="m10.2 20.1c0.8 1 1.6 2.1 2.5 3.2-0.9 0.1-1.7-0.1-2.4-0.4-0.1-0.9-0.2-1.9-0.1-2.8z"></path><path fill="#c76c01" d="m17.7 25.4c-0.1 0-0.3 0-0.4-0.1-0.1-0.5-0.1-1-0.1-1.5 0.3-0.2 0.4-0.4 0.5-0.7l0.1-0.2c0.1 0 0.3 0 0.4-0.1l1.5-1.5c-0.5-0.8-1-1.6-1.5-2.3 0-0.1 0-0.1 0-0.2 0.7 0.9 1.4 1.8 1.9 2.8-0.5 0.8-1.1 1.4-2 1.9-0.1 0.3-0.2 0.5-0.4 0.7-0.1 0.4-0.1 0.8 0.1 1.1 0 0.1 0 0.1-0.1 0.1z"></path><path fill="#dea22d" d="m32.1 20.2c-0.1 1.2-0.4 2.3-0.9 3.4-0.2 0.4-0.3 0.8-0.5 1.2-0.3 0.4-0.6 0.7-0.8 1-0.2 0.1-0.4 0.1-0.5-0.1l0.4-0.4c-0.2 0-0.3-0.1-0.4-0.2-0.1 0.3-0.2 0.5-0.3 0.7l0.2 0.2c-0.3 0.3-0.5 0.3-0.5-0.1-0.2 0.1-0.4 0.2-0.6 0.5 0-0.1-0.1-0.1-0.1-0.1 0 0.3-0.3 0.6-0.7 0.6l-0.3 0.5c-0.3 0.1-0.6 0.2-0.9 0.2-0.3-0.2-0.3-0.5 0-0.7-0.3-0.5-0.7-0.5-1.3-0.2-0.3-0.3-0.6-0.7-0.9-1-0.2-0.1-0.4-0.1-0.5-0.2 0.7-0.1 0.8-0.3 0.3-0.8-0.4-0.3-0.8-0.6-1.2-1 0-0.2 0-0.3 0.1-0.5 0.1-0.1 0.2-0.1 0.3-0.2-0.1 0.3 0 0.7 0.2 1 0.1 0 0.2 0.1 0.3 0.1 0.2-0.1 0.4-0.3 0.5-0.4 0.1 0 0.2 0.1 0.2 0.2 0 0.2-0.1 0.4-0.2 0.6 0.1 0.2 0.2 0.3 0.4 0.4 0.1 0.4 0 0.7-0.1 0.9l0.3 0.1 0.2 0.5c0.2-0.1 0.4-0.1 0.7-0.1 0-0.2 0-0.4 0.1-0.6 0.2 0.1 0.3 0 0.4-0.2l0.1 0.1c0.1-0.2 0-0.3-0.1-0.5 0.1-0.1 0.2-0.2 0.3-0.2-0.3-0.2-0.4-0.4-0.4-0.7-0.1 0.2-0.1 0.3-0.2 0.4-0.1-0.1-0.1-0.1 0-0.2l-0.2-0.1c0.1-0.2 0.1-0.4 0.1-0.6 0.1 0.2 0.2 0.3 0.4 0.3 0.3-0.1 0.4-0.2 0.4-0.4 0.3 0.2 0.6 0.2 1 0.1-0.4-0.1-0.6-0.2-0.8-0.4 0.5-0.3 0.9-0.5 1.4-0.7 0.7 0 1.5 0 2.3 0.1 0-0.4 0.1-0.6 0.4-0.8-0.1 0 0 0.1 0 0.1 0.2-0.2 0.3-0.4 0.2-0.7 0.3 0.3 0.5 0.3 0.5-0.1 0.1 0.3 0.1 0.5 0 0.8-0.1-0.1-0.2-0.1-0.3 0 0 0.2 0.1 0.3 0.2 0.4 0-0.1 0-0.2 0-0.3h0.4c0-0.7 0.1-1.3 0.4-1.9z"></path><path fill="#f1c040" d="m32.9 19.1c-0.1 1.4-0.4 2.9-0.9 4.2-0.1 0.4-0.3 0.7-0.4 1.1 0-0.2-0.1-0.3-0.3-0.3 0.5-0.9 0.8-1.8 0.9-2.8 0.3-0.7 0.5-1.5 0.5-2.3 0.1-0.5 0.1-1 0.2-1.5 0 0.5 0 1 0 1.6z"></path><path fill="#ecd18c" d="m35.7 20.9c0 0.3-0.1 0.6-0.2 0.9v-0.5c0-0.1 0.1-0.3 0.2-0.4z" opacity=".396"></path><path fill="#e0a832" d="m24.5 22.1c1.1 0.2 2.3 0.3 3.5 0.5-0.5 0.2-0.9 0.4-1.4 0.7 0.2 0.2 0.4 0.3 0.8 0.4-0.4 0.1-0.7 0.1-1-0.1 0 0.2-0.1 0.3-0.4 0.4-0.2 0-0.3-0.1-0.3-0.3-0.1 0.2-0.1 0.4-0.2 0.6l0.2 0.1c-0.1 0.1-0.1 0.1 0 0.2 0.1-0.1 0.1-0.2 0.2-0.4 0 0.3 0.1 0.5 0.4 0.7-0.1 0-0.2 0.1-0.3 0.2 0.1 0.2 0.2 0.3 0.1 0.5l-0.1-0.1c-0.1 0.2-0.2 0.3-0.3 0.2-0.2 0.2-0.2 0.4-0.2 0.6-0.3 0-0.5 0-0.7 0.1l-0.2-0.5-0.3-0.1c0.1-0.2 0.2-0.5 0.1-0.9-0.2-0.1-0.3-0.2-0.4-0.4 0.1-0.2 0.2-0.4 0.2-0.6 0-0.1-0.1-0.2-0.2-0.2-0.1 0.1-0.3 0.3-0.5 0.4-0.1 0-0.2-0.1-0.3-0.1-0.2-0.3-0.3-0.7-0.2-1 0.2-0.2 0.5-0.4 0.7-0.6-0.2-0.1-0.3-0.3-0.2-0.5h0.4c0-0.5-0.3-0.7-0.7-0.8-0.1-0.2-0.1-0.4-0.1-0.6 0.3-0.1 0.5-0.2 0.7-0.5 0.1 0 0.2 0 0.3 0 0 0.3 0.1 0.5 0.1 0.8-0.1 0.1-0.2 0.3-0.3 0.4 0.1 0.3 0.2 0.3 0.3 0 0.1 0.3 0.2 0.6 0.3 0.9z"></path><path fill="#e9cc84" d="m0.2 20.6c0.2 1 0.4 1.9 0.8 2.7v0.5c-0.5-1-0.7-2.1-0.8-3.2z" opacity=".675"></path><path fill="#e7a919" d="m33.1 17.2c0.1 1 0.2 2 0.4 3.1 0.1-0.4 0.3-0.9 0.6-1.3 0.3 0.1 0.4 0.3 0.4 0.6 0.1-0.1 0.2-0.1 0.3 0 0 0.8 0.1 1.6 0.2 2.4l0.1 0.1c0.2-0.3 0.2-0.6 0.1-0.9l0.1-0.3c0 0.1 0.1 0.3 0.2 0.4v0.5c-0.3 1-0.7 2-1.1 3h-0.5c0.1-0.5 0.1-0.9 0.2-1.4 0-0.6-0.1-1.3-0.2-2 0 0-0.1 0-0.1-0.1-0.1 0.3-0.2 0.5-0.3 0.8 0.1 0 0.2 0 0.3 0.1-0.4 0.1-0.7 0.4-0.8 0.8-0.6 0.2-0.7 0.4-0.2 0.8-0.1 0.1-0.2 0.1-0.3 0-0.1-0.2-0.1-0.4-0.2-0.6 0.1-0.3 0.3-0.7 0.4-1 0.4-1.7 0.5-3.3 0.4-5z"></path><path fill="#db971f" d="m16.1 11.9c0.1-0.1 0.1-0.1 0.2-0.1 0.1 3.8 0.1 7.6 0.1 11.4-0.6 0.1-1.2 0.2-1.8 0.3-0.3-0.2-0.6-0.5-0.7-0.8 0.3-0.1 0.6-0.3 1-0.5 0.5 0.2 0.9 0.5 1.3 0.8 0.1-1.4 0.1-2.8 0.1-4.2v-1.6c0-1.8 0-3.6-0.2-5.3z"></path><path fill="#e09d16" d="m33.1 17v0.2c0.1 1.7 0 3.3-0.4 5-0.1 0.3-0.3 0.7-0.4 1 0.1 0.2 0.1 0.4 0.2 0.6 0.1 0.1 0.2 0.1 0.3 0-0.5-0.4-0.4-0.6 0.2-0.8 0.1-0.4 0.4-0.7 0.8-0.8-0.1-0.1-0.2-0.1-0.3-0.2 0.1-0.2 0.2-0.4 0.3-0.7 0 0.1 0.1 0.1 0.1 0.1 0.1 0.7 0.2 1.4 0.2 2-0.1 0.5-0.1 0.9-0.2 1.4h0.5c-0.1 0.4-0.3 0.8-0.5 1.1-0.1 0-0.1 0-0.1-0.1-0.2 0.3-0.4 0.5-0.7 0.6 0.1 0.1 0.1 0.1 0.2 0 0.1 0.2 0 0.4-0.1 0.5-0.1-0.4-0.2-0.4-0.5-0.1l-0.1-0.5c0.2-0.2 0.3-0.4 0.5-0.5-0.2-0.4-0.2-0.7 0-0.9 0-0.3 0-0.5-0.1-0.7-0.2 0.2-0.2 0.3-0.1 0.4-0.1 0.2-0.2 0.2-0.3 0.1-0.2 0.1-0.2 0.3-0.3 0.4l-0.1-0.1c-0.2 0.3-0.3 0.5-0.4 0.8-0.2 0.1-0.4 0.1-0.6 0.1 0-0.2 0-0.3 0.1-0.5 0.3-0.5 0.6-1 0.8-1.6 0-0.2 0-0.3-0.1-0.5 0.5-1.3 0.8-2.8 0.9-4.2l0.2-2.1z"></path><path fill="#e5a817" d="m3.1 22c0.1 0 0.1 0 0.2 0.1 0.3 1.1 0.7 2.2 1.1 3.2 0 0.3 0.1 0.5 0.4 0.7-0.1 0.2-0.1 0.3-0.1 0.5-0.3-0.1-0.5-0.2-0.7-0.4l0.2-0.1c-0.4-0.1-0.9-0.2-1.3-0.4 0 0.5 0.1 1 0.3 1.5l-0.1 0.1c-0.1-0.2-0.3-0.4-0.5-0.6 0 0.1 0 0.2-0.1 0.3-0.3-0.4-0.5-1-0.8-1.5 0-0.1-0.1-0.1-0.2-0.1-0.1-0.6-0.3-1.1-0.5-1.5v-0.5c0 0 0-0.1 0.1-0.2 0.1 0.2 0.1 0.4 0.1 0.6 0.1 0 0.3 0 0.4 0.1l0.1 0.8c0.2 0.1 0.3 0.4 0.4 0.6 0.1 0.1 0.1 0.1 0.2 0-0.3-0.6-0.5-1.1-0.7-1.7-0.1-0.3-0.1-0.5 0-0.7-0.1-0.1-0.2-0.2-0.2-0.4 0.2-0.3 0.3-0.7 0.1-1 0.2 0 0.4 0 0.5-0.1l0.4 0.8c0.1-0.1 0.2-0.1 0.4 0.1-0.1 0.1-0.1 0.2 0 0.4 0.1-0.3 0.1-0.5 0.3-0.6z"></path><path fill="#e3a623" d="m7 21.2c1.4 1.5 3.2 2.3 5.2 2.5 0.1 0.5 0 1.1-0.2 1.7 0.2 0.4 0.4 0.7 0.8 1-0.3 0.2-0.6 0.2-0.9 0.1l-0.4-0.6-0.2 0.3c-0.2-0.5-0.5-0.7-1-0.7-0.1 0.3-0.3 0.3-0.4 0-0.2 0.1-0.3 0-0.4-0.2 0.1-0.2 0.1-0.4 0.1-0.7-0.1 0.3-0.2 0.4-0.3 0.1-0.2 0.1-0.4 0.1-0.5 0.2l-0.1-0.2c-0.3 0.1-0.5 0.1-0.7 0-0.1 0.3-0.2 0.3-0.2 0-0.2 0.1-0.3 0-0.5-0.1-0.1 0.2-0.2 0.2-0.4 0.2-0.1-0.1-0.1-0.2 0-0.3-0.2 0-0.3-0.2-0.4-0.4-0.2 0.1-0.4 0.1-0.6 0.3-0.2-0.1-0.3-0.2-0.5-0.3l-0.2 0.1c0.2 0.2 0.3 0.4 0.3 0.6-0.7-0.7-1-1.5-1.2-2.5 0-0.4 0.1-0.9 0.3-1.3 0.1-0.1 0.3-0.2 0.5-0.1l0.1 0.6c0.1 0 0.3 0 0.4 0.1 0.1 0.3 0.2 0.5 0.5 0.7 0.1-0.4 0.3-0.7 0.5-1 0.2 0.3 0.4 0.3 0.4-0.1z"></path><path fill="#e19f1c" d="m12.2 23.7h0.6c0.6 0.1 1.2 0.1 1.8 0.2-0.2 0-0.5 0.1-0.7 0.2l0.1 0.1c-0.2 0-0.3 0.1-0.4 0.2l0.1 0.1c-0.2 0.1-0.3 0.3-0.3 0.4-0.3 0.2-0.6 0.4-0.8 0.6 0.1 0.4 0.3 0.6 0.6 0.8l-0.3 0.1c0.1 0.1 0.1 0.2 0 0.3-0.2 0-0.4 0.1-0.5 0.2-0.3-0.2-0.6-0.2-1-0.1 0-0.3-0.2-0.5-0.5-0.5-0.2 0.2-0.4 0.4-0.6 0.6-0.5-0.3-0.9-0.6-1.3-1-0.2 0.1-0.4 0.3-0.5 0.5-0.2 0.2-0.3 0.2-0.5 0.1-0.3 0.2-0.4 0.5-0.4 0.8-0.1-0.2-0.2-0.4-0.3-0.6 0 0.2-0.1 0.3-0.2 0.5-0.2-0.3-0.5-0.6-0.7-0.9-0.5-0.4-0.8-0.9-0.9-1.5 0-0.2-0.1-0.4-0.3-0.6l0.2-0.1c0.2 0.1 0.3 0.2 0.5 0.3 0.2-0.2 0.4-0.2 0.6-0.3 0.1 0.2 0.2 0.4 0.4 0.4-0.1 0.1-0.1 0.2 0 0.3 0.2 0 0.3 0 0.4-0.2 0.2 0.1 0.3 0.2 0.5 0.1 0 0.3 0.1 0.3 0.2 0 0.2 0.1 0.4 0.1 0.7 0l0.1 0.2c0.1-0.1 0.3-0.1 0.5-0.2 0.1 0.3 0.2 0.2 0.3-0.1 0 0.3 0 0.5-0.1 0.7 0.1 0.2 0.2 0.3 0.4 0.2 0.1 0.3 0.3 0.3 0.5 0 0.4 0 0.7 0.2 0.9 0.7l0.2-0.3 0.4 0.6c0.3 0.1 0.6 0.1 0.9-0.1-0.4-0.3-0.6-0.6-0.8-1 0.2-0.6 0.3-1.2 0.2-1.7z"></path><path fill="#e7c980" d="m1 23.8c0.2 0.4 0.4 0.9 0.5 1.5-0.3-0.5-0.4-1-0.5-1.5z" opacity=".675"></path><path fill="#ad6514" d="m32.2 21.3c-0.1 1-0.4 1.9-0.9 2.8-0.7 1.7-1.8 3.2-3.1 4.4 0.1-0.2 0.2-0.5 0.3-0.8 0.2-0.2 0.4-0.4 0.6-0.8 0.2-0.2 0.4-0.3 0.6-0.4 0.1-0.2 0.1-0.4 0.2-0.7 0.2-0.3 0.5-0.6 0.8-1 0.2-0.4 0.3-0.8 0.5-1.2 0.2-0.1 0.3-0.2 0.3-0.4 0.3-0.6 0.5-1.2 0.7-1.9z"></path><path fill="#d99320" d="m22.7 23.2c-0.1 0.2-0.1 0.3-0.1 0.5 0.4 0.4 0.8 0.7 1.2 1 0.5 0.5 0.4 0.7-0.3 0.8-0.2-0.2-0.4-0.2-0.6 0 0.1 0.3 0.2 0.6 0.2 0.9 0.3-0.1 0.6-0.2 0.8-0.4 0.3 0.3 0.6 0.6 0.7 1 0.1 0.1 0.3 0.1 0.4-0.1 0.1 0.1 0.2 0.2 0.3 0.3-0.3 0.5-0.6 0.9-0.9 1.3-0.2 0-0.4 0.1-0.5 0.2-0.1 0-0.1-0.1-0.2-0.2-0.2 0.1-0.4 0.1-0.6 0.2 0.3 0 0.5 0.1 0.7 0.2-0.1 0.1-0.2 0.2-0.3 0.2 0.3 0 0.7 0.1 1 0.1 0.3-0.2 0.6-0.4 0.9-0.6l0.1 0.1c0.3-0.1 0.5-0.2 0.7-0.2 0.1 0.1 0.1 0.2 0 0.3l0.2 0.2c-0.2 0-0.3 0.1-0.5 0.2 0.2 0 0.4 0.1 0.5 0.3-0.7 0.4-1.4 0.8-2.2 1-0.5-0.1-0.5-0.2 0-0.2-0.1-0.1-0.2-0.2-0.1-0.4-0.5 0-1 0.1-1.5 0.1-0.3-0.1-0.5-0.2-0.7-0.2l0.5-0.1-0.1-0.2c-0.5 0.2-0.7 0.1-0.8-0.4-0.1-0.1-0.2-0.1-0.4 0-0.2-0.2-0.3-0.3-0.5-0.5-0.1 0.3-0.2 0.3-0.2 0l-0.3 0.3c-0.3-0.2-0.5-0.2-0.8 0 0.3 0.1 0.2 0.2-0.1 0.2 0-0.3 0-0.5 0.1-0.7-0.1 0-0.3 0-0.5 0 0 0-0.1 0-0.2 0 0.3-0.1 0.5-0.3 0.5-0.6 0 0 0.1 0 0.1-0.1-0.2-0.1-0.3-0.3-0.4-0.5 0.2-0.3 0.3-0.5 0.4-0.8 0.3 0.3 0.6 0.5 1 0.8 0.3 0.1 0.6 0.2 0.9 0.1l-0.1 0.1c0.1 0.2 0.2 0.4 0.4 0.4 0.1-0.2 0.2-0.5 0.5-0.7 0.1-0.5 0.2-0.9 0.3-1.3-0.4 0-0.4-0.1-0.1-0.3-0.2-0.1-0.4-0.1-0.6-0.1-0.2 0-0.3 0.1-0.4 0.2l0.2 0.2c-1 0.1-1.9 0.2-2.9 0.1 1.3-1 2.8-1.9 4.3-2.7z"></path><path fill="#e5a013" d="m4.4 25.3c0.4 0.3 0.6 0.6 0.7 1.1 0.2 0.1 0.3 0.3 0.5 0.4l-0.1 0.1c0 0.3 0.2 0.6 0.6 0.7 0.1 0.3 0.3 0.6 0.5 0.9-0.1 0.4-0.3 0.8-0.7 1l0.2 0.1c-0.2 0.1-0.4 0.2-0.5 0.3l0.1 0.1c-0.1 0.3-0.2 0.5-0.2 0.7-0.2-0.2-0.4-0.3-0.6-0.4-0.1-0.2-0.1-0.3-0.2-0.5 0-0.1 0-0.1 0.1-0.2-0.3-0.2-0.6-0.4-0.8-0.7 0.3-0.1 0.3-0.3 0-0.5-0.1 0.1-0.1 0.2 0 0.3l-0.2 0c-0.1-0.1-0.3-0.2-0.5-0.3-0.3-0.4-0.5-0.8-0.8-1.2v-0.3c0.1-0.1 0.1-0.2 0.1-0.3 0.2 0.2 0.4 0.4 0.5 0.6l0.1-0.1c-0.2-0.5-0.3-1-0.3-1.5 0.4 0.2 0.9 0.3 1.3 0.4l-0.2 0.1c0.2 0.2 0.4 0.3 0.7 0.4 0-0.2 0-0.3 0.1-0.5-0.3-0.2-0.4-0.4-0.4-0.7z"></path><path fill="#e6c479" d="m35.5 21.8c-0.4 2.1-1.2 4.1-2.5 5.9l0.9-1.8c0.2-0.3 0.4-0.7 0.5-1.1 0.4-1 0.8-2 1.1-3z" opacity=".808"></path><path fill="#a05910" d="m6.4 26.6c0 0.3 0.1 0.5 0.2 0.7-0.9-1-1.5-2-2-3.2 0.4 0.6 0.8 1.2 1.1 1.9 0.2 0.3 0.4 0.5 0.7 0.6z"></path><path fill="#e7c26f" d="m1.5 25.3c0.1 0 0.2 0 0.2 0.1 0.3 0.5 0.5 1.1 0.8 1.5v0.3c-0.4-0.6-0.7-1.3-1-1.9z" opacity=".808"></path><path fill="#bc7915" d="m3.7 19.2c0 1.1 0.3 2.1 0.6 3.1 0.2 1 0.5 1.8 1.2 2.5 0.1 0.6 0.4 1.1 0.9 1.5v0.3c-0.3-0.1-0.5-0.3-0.7-0.6-0.3-0.7-0.7-1.3-1.1-1.9-0.1 0-0.2 0-0.2-0.1-0.6-1.6-1.1-3.3-1.2-5-0.1-1.6 0.1-3.1 0.3-4.5 0.1-0.1 0.2-0.2 0.2-0.3 0 0.5-0.1 0.9-0.2 1.3 0 1.3 0.1 2.5 0.2 3.7z"></path><path fill="#de9e24" d="m2.8 19l0.2 0.3c0.1 1 0.3 1.9 0.5 2.9 0.2 0.9 0.5 1.6 0.9 2.3 0.8 1.7 1.8 3.1 3.2 4.4-0.2-0.1-0.3-0.1-0.5 0-0.2-0.1-0.3-0.2-0.5-0.4-0.2-0.3-0.4-0.6-0.5-0.9-0.4-0.1-0.6-0.4-0.6-0.7l0.1-0.1c-0.2-0.1-0.3-0.3-0.5-0.4-0.1-0.5-0.3-0.8-0.7-1.1-0.4-1-0.8-2.1-1.1-3.2-0.1-0.1-0.1-0.1-0.2-0.1-0.2-1-0.3-2-0.3-3z"></path><path fill="#dc9a21" d="m17.7 23.1c-0.1 0.3-0.2 0.5-0.5 0.7 0 0.5 0 1 0.1 1.5 0.1 0.1 0.3 0.1 0.4 0.1 0.1 0.1 0.2 0.1 0.4 0.1-0.1 0.3 0 0.4 0.3 0.4 1 0.1 1.9 0 2.9-0.1l-0.2-0.1c0.1-0.2 0.2-0.3 0.4-0.3 0.2 0 0.4 0 0.6 0.1-0.3 0.2-0.3 0.3 0.1 0.3-0.1 0.4-0.2 0.8-0.3 1.3-0.3 0.2-0.4 0.5-0.5 0.7-0.2 0-0.3-0.2-0.4-0.3l0.1-0.2c-0.3 0.1-0.6 0-0.9-0.1-0.4-0.3-0.7-0.5-1-0.8-0.1 0.3-0.2 0.5-0.4 0.8 0.1 0.2 0.2 0.4 0.4 0.5 0 0.1-0.1 0.1-0.1 0.1-0.4 0.3-0.7 0.3-1 0-0.2 0.1-0.3 0.2-0.3 0.4-0.1-0.2-0.2-0.2-0.3 0-0.1 0.1-0.1 0.2 0 0.3-0.5 0.1-1.1 0.1-1.6-0.2-0.3 0-0.5 0-0.8 0.1-0.2-0.3-0.5-0.4-0.8-0.6-0.2 0.1-0.4 0.1-0.6 0 0.1-0.1 0.1-0.2 0-0.2-0.7 0.1-1.4 0.2-2.1 0.2-0.1-0.1-0.1-0.2-0.2-0.3 0.2-0.2 0.2-0.4 0-0.7 0.4-0.1 0.7-0.1 1 0.1 0.1-0.1 0.3-0.2 0.5-0.2 0.1-0.1 0.1-0.2 0-0.3l0.3-0.1c-0.3-0.2-0.5-0.4-0.6-0.8 0.2-0.2 0.5-0.4 0.8-0.6 0-0.1 0.1-0.3 0.3-0.4l-0.1-0.1c0.1-0.1 0.2-0.2 0.4-0.2l-0.1-0.1c0.2-0.1 0.5-0.2 0.7-0.2-0.6-0.1-1.2-0.1-1.8-0.2 0.8 0 1.6 0 2.3-0.1 0.5 0 1-0.1 1.5-0.1 0.4-0.2 0.7-0.3 1.1-0.4z"></path><path fill="#da9013" d="m32 23.3c0.1 0.2 0.1 0.3 0.1 0.5-0.2 0.6-0.5 1.1-0.8 1.6-0.1 0.2-0.1 0.3-0.1 0.5 0.2 0 0.4 0 0.6-0.1 0.1-0.3 0.2-0.5 0.4-0.8l0.1 0.1c0.1-0.1 0.1-0.3 0.3-0.4 0.1 0.1 0.2 0.1 0.3-0.1-0.1-0.1-0.1-0.2 0.1-0.4 0.1 0.2 0.1 0.4 0.1 0.7-0.2 0.2-0.2 0.5 0 0.9-0.2 0.1-0.3 0.3-0.5 0.5l0.1 0.5c0.3-0.3 0.4-0.3 0.5 0.1 0.1-0.1 0.2-0.3 0.1-0.5-0.1 0.1-0.1 0.1-0.2 0 0.3-0.1 0.5-0.3 0.6-0.6 0.1 0.1 0.1 0.1 0.2 0.1l-0.9 1.8c-0.2 0.5-0.6 1-1 1.4-0.2 0.1-0.4 0.3-0.4 0.5-0.1 0.2-0.2 0.4-0.4 0.5h-0.1c0-0.2-0.1-0.3-0.2-0.5l0-0.1c0.2 0.2 0.3 0.3 0.5 0.1-0.2-0.1-0.2-0.2 0-0.2-0.3-0.3-0.7-0.5-0.9-0.8-0.1 0.1-0.1 0.2-0.2 0.3 0.4 0.2 0.4 0.4 0.1 0.7l-0.1-0.2c0 0.6-0.2 0.6-0.4 0.1 0 0 0-0.1 0.1-0.1-0.2-0.1-0.3-0.1-0.4-0.2l-0.1 0.1c-0.1-0.1-0.2-0.2-0.3-0.2-0.2 0.1-0.3 0.1-0.5 0-0.2 0.1-0.4 0.3-0.6 0.4l-0.1-0.2c-0.1 0.1-0.2 0.2-0.4 0.2 1.3-1.2 2.5-2.5 3.4-4 0.2-0.4 0.4-0.8 0.6-1.1 0.1-0.4 0.3-0.7 0.4-1.1z"></path><path fill="#d9890c" d="m31.1 30.1c-0.2 0.1-0.4 0.3-0.6 0.4-0.5-0.1-0.6 0-0.3 0.4-0.2 0.2-0.3 0.3-0.3 0.5-0.1 0.1-0.1 0.2-0.3 0.2-0.2 0.1-0.5 0.2-0.6 0.5 0 0.1-0.1 0.1-0.1 0.1-0.3 0.1-0.5 0.3-0.7 0.5-0.3-0.1-0.6 0-0.8 0.1-0.4 0-0.4-0.1-0.1-0.2l-0.4-0.1 1.3-1.2c-0.3-0.1-0.3-0.2-0.1-0.3l0.1 0.1c0.1-0.1 0.1-0.2 0-0.3l-0.8 0.2-0.1-0.1c-0.1 0.2-0.2 0.2-0.4 0.1l-0.1 0.2c-0.2-0.1-0.4-0.1-0.5 0-0.2 0-0.3-0.2-0.3-0.3v-0.2c0.6-0.4 1.1-0.8 1.6-1.2 0.2 0 0.3-0.1 0.4-0.2l0.1 0.2c0.2-0.1 0.4-0.3 0.6-0.4 0.2 0.1 0.3 0.1 0.5 0 0.1 0 0.2 0.1 0.3 0.2l0.1-0.1c0.1 0.1 0.2 0.1 0.4 0.2-0.1 0-0.1 0.1-0.1 0.1 0.2 0.5 0.4 0.5 0.4-0.1l0.1 0.2c0.3-0.3 0.3-0.5-0.1-0.7 0.1-0.1 0.1-0.2 0.2-0.3 0.2 0.3 0.6 0.5 0.9 0.8-0.2 0-0.2 0.1 0 0.2-0.2 0.2-0.3 0.1-0.5-0.1l0 0.1c0.1 0.2 0.2 0.3 0.2 0.5z"></path><path fill="#e6ab40" d="m3.3 28.4c0.2 0.1 0.4 0.2 0.5 0.3l0.2 0c-0.1-0.1-0.1-0.2 0-0.3 0.3 0.2 0.3 0.4 0 0.5 0.2 0.3 0.5 0.5 0.8 0.7-0.1 0.1-0.1 0.1-0.1 0.2 0.1 0.2 0.1 0.3 0.2 0.5-0.6-0.6-1.1-1.2-1.6-1.9z"></path><path fill="#dfbb77" d="m32 29.1c-0.1 0.2-0.2 0.4-0.4 0.5 0-0.2 0.2-0.4 0.4-0.5z" opacity=".396"></path><path fill="#e19007" d="m6.6 28.5c0.2 0.2 0.3 0.3 0.5 0.4 0.1 0.2 0.2 0.4 0.4 0.5 0.7 0.5 1.4 1 2.1 1.5-0.2 0.6-0.5 1.2-0.8 1.8 0 0.1-0.1 0.1-0.2 0.2l0.1 0.1c-0.1 0-0.3 0-0.4-0.1-0.2-0.3-0.5-0.4-0.8-0.3-0.2-0.3-0.4-0.5-0.7-0.6-0.2-0.3-0.4-0.5-0.7-0.6l-0.6-0.7c0-0.2 0.1-0.4 0.2-0.7l-0.1-0.1c0.1-0.1 0.3-0.2 0.5-0.3l-0.2-0.1c0.4-0.2 0.6-0.6 0.7-1z"></path><path fill="#e6c476" d="m4.9 30.3c0.2 0.1 0.4 0.2 0.6 0.4l0.6 0.7c-0.4-0.2-0.9-0.6-1.2-1.1z" opacity=".988"></path><path fill="#e3aa52" d="m31.1 30.1h0.1c-0.4 0.5-0.8 0.9-1.3 1.3 0-0.2 0.1-0.3 0.3-0.5-0.3-0.4-0.2-0.5 0.3-0.4 0.2-0.1 0.4-0.3 0.6-0.4z"></path><path fill="#e3bc6e" d="m6.1 31.4c0.3 0.1 0.5 0.3 0.7 0.6-0.3-0.1-0.5-0.3-0.7-0.6z" opacity=".992"></path><path fill="#f5d76b" d="m4.4 24c0 0.1 0.1 0.1 0.2 0.1 0.5 1.2 1.1 2.2 2 3.2 2.4 3 5.6 4.8 9.5 5.3 3.7 0.4 7-0.4 10.1-2.3 0.7-0.6 1.4-1.1 2-1.8 1.3-1.2 2.4-2.7 3.1-4.4 0.2 0 0.3 0.1 0.3 0.3-0.2 0.3-0.4 0.7-0.6 1.1-0.9 1.5-2.1 2.8-3.4 4-0.5 0.4-1 0.8-1.6 1.2-0.6 0.2-1.3 0.6-1.9 1-4.5 1.7-9 1.6-13.4-0.4-1.1-0.8-2.1-1.6-3.1-2.4-1.4-1.3-2.4-2.7-3.2-4.4-0.1-0.2-0.1-0.4 0-0.5z"></path><path fill="#d58b16" d="m26.4 29.5h0.1c-0.3 0.3-0.6 0.6-0.9 0.8-0.7 0.2-1.3 0.5-1.9 0.8-0.7 0.2-1.4 0.4-2.2 0.6-0.2 0-0.3-0.1-0.5-0.3l-0.1 0.2c-0.1-0.2-0.2-0.4-0.4-0.4-0.4 0.1-0.7 0.1-1.1 0.1 0-0.4-0.1-0.4-0.3-0.1-0.1 0-0.1 0-0.2-0.1-0.4 0.1-0.7 0.2-1 0.3-0.2 0-0.4-0.1-0.5-0.3-0.1 0.3-0.2 0.3-0.3 0 0 0.2-0.1 0.5-0.2 0.7l-0.2-0.2c-0.1 0-0.1 0.1 0 0.1-0.3 0.2-0.6 0.3-0.9 0.3-0.7-0.1-1.4-0.2-2-0.3-0.4 0-0.8-0.1-1.1-0.4-0.9-0.1-1.5-0.5-2.1-1.1 0.2-0.1 0.4-0.1 0.5 0.1 0.3-0.2 0.6-0.5 0.8-0.8 0.1 0.2 0.2 0.4 0.3 0.5 0.2-0.1 0.4-0.1 0.5 0.1l0.1-0.2c0.2 0.1 0.3 0.2 0.5 0.2 0.2 0.2 0.3 0.3 0.3 0.4 0.7 0 1.5 0 2.5 0 0.2 0 0.2-0.1 0-0.2 0.2-0.1 0.3-0.1 0.4-0.2 0.1 0.2 0.1 0.2 0.3 0.1l0.1 0.6c0-0.6 0.3-0.9 0.8-1.2-0.1-0.2-0.1-0.3 0.1-0.2 0.1-0.3 0.4-0.5 0.8-0.6 0.2-0.1 0.2-0.2 0.2-0.4 0.2 0 0.4 0 0.5 0-0.1 0.2-0.1 0.4-0.1 0.7 0.3 0 0.4-0.1 0.1-0.2 0.3-0.2 0.5-0.2 0.8 0l0.3-0.3c0 0.3 0.1 0.3 0.2 0 0.2 0.2 0.3 0.3 0.5 0.5 0.2-0.1 0.3-0.1 0.4 0 0.1 0.5 0.3 0.6 0.8 0.4l0.1 0.2-0.5 0.1c0.2 0 0.4 0.1 0.7 0.2 0.5 0 1-0.1 1.5-0.1-0.1 0.2 0 0.3 0.1 0.4-0.5 0-0.5 0.1 0 0.2 0.8-0.2 1.5-0.6 2.2-1z"></path><path fill="#da9316" d="m11.4 26.8c0.2 0.3 0.2 0.5 0 0.7 0.1 0.1 0.1 0.2 0.2 0.3 0.7 0 1.4-0.1 2.1-0.2 0.1 0 0.1 0.1 0 0.2 0.2 0.1 0.4 0.1 0.6 0 0.3 0.2 0.6 0.3 0.8 0.6 0.3-0.1 0.5-0.1 0.8-0.1 0.5 0.3 1.1 0.3 1.6 0.2-0.1-0.1-0.1-0.2 0-0.3 0.1-0.2 0.2-0.2 0.3 0 0-0.2 0.1-0.3 0.3-0.4 0.3 0.3 0.6 0.3 1 0 0 0.3-0.2 0.5-0.5 0.6 0.1 0 0.2 0 0.2 0 0 0.2 0 0.3-0.2 0.4-0.4 0.1-0.7 0.3-0.8 0.6-0.2-0.1-0.2 0-0.1 0.2-0.5 0.3-0.8 0.6-0.8 1.2l-0.1-0.6c-0.2 0.1-0.2 0.1-0.3-0.1-0.1 0.1-0.2 0.1-0.4 0.2 0.2 0.1 0.2 0.2 0 0.2-1 0-1.8 0-2.5 0 0-0.1-0.1-0.2-0.3-0.4-0.2 0-0.3-0.1-0.5-0.2l-0.1 0.2c-0.1-0.2-0.3-0.2-0.5-0.1-0.1-0.1-0.2-0.3-0.3-0.5-0.2 0.3-0.5 0.6-0.8 0.8-0.1-0.2-0.3-0.2-0.5-0.1-0.8-0.4-1.6-0.9-2.3-1.5-0.2-0.2-0.3-0.4-0.5-0.5-0.1-0.1-0.1-0.2 0-0.3-0.6-0.3-1-0.8-1.4-1.3v-0.3c0.2 0.3 0.5 0.6 0.7 0.9 0.1-0.2 0.2-0.3 0.2-0.5 0.1 0.2 0.2 0.4 0.3 0.6 0-0.3 0.1-0.6 0.4-0.8 0.2 0.1 0.3 0.1 0.5-0.1 0.1-0.2 0.3-0.4 0.5-0.5 0.4 0.4 0.8 0.7 1.3 1 0.2-0.2 0.4-0.4 0.6-0.6 0.3 0 0.5 0.2 0.5 0.5z"></path><path fill="#d8982a" d="m29.9 25.8c-0.1 0.3-0.1 0.5-0.2 0.7-0.2 0.1-0.4 0.2-0.6 0.4-0.2 0.4-0.4 0.6-0.6 0.8-0.1 0.3-0.2 0.6-0.3 0.8h-0.5c0.1 0.2 0 0.4-0.2 0.5-0.4 0.1-0.7 0.3-1 0.5h-0.1c-0.1-0.2-0.3-0.3-0.5-0.3 0.2-0.1 0.3-0.2 0.5-0.2l-0.2-0.2c0.1-0.1 0.1-0.2 0-0.3-0.2 0-0.4 0.1-0.7 0.2l-0.1-0.1c-0.3 0.2-0.6 0.4-0.9 0.6-0.3 0-0.7-0.1-1-0.1 0.1 0 0.2-0.1 0.3-0.2-0.2-0.1-0.4-0.2-0.7-0.2 0.2-0.1 0.4-0.1 0.6-0.2 0.1 0.1 0.1 0.2 0.1 0.2 0.2-0.1 0.4-0.2 0.6-0.2 0.3-0.4 0.6-0.8 0.9-1.3-0.1-0.1-0.2-0.2-0.3-0.3-0.1 0.2-0.3 0.2-0.4 0.1-0.1-0.4-0.4-0.7-0.7-1-0.2 0.2-0.5 0.3-0.8 0.4 0-0.3-0.1-0.6-0.2-0.9 0.2-0.2 0.4-0.2 0.6 0 0.1 0.1 0.3 0.1 0.5 0.2 0.3 0.3 0.6 0.7 0.9 1 0.6-0.3 1-0.3 1.3 0.2-0.3 0.2-0.3 0.5 0 0.7 0.3 0 0.6-0.1 0.9-0.2l0.3-0.5c0.4 0 0.7-0.3 0.7-0.6 0 0 0.1 0 0.1 0.1 0.2-0.3 0.4-0.4 0.6-0.5 0 0.4 0.2 0.4 0.5 0.1l-0.2-0.2c0.1-0.2 0.2-0.4 0.3-0.7 0.1 0.1 0.2 0.2 0.4 0.2l-0.4 0.4c0.1 0.2 0.3 0.2 0.5 0.1z"></path><path fill="#e9cd8d" d="m29.6 31.6c-0.1 0.2-0.3 0.4-0.6 0.5 0.1-0.3 0.4-0.4 0.6-0.5z" opacity=".153"></path><path fill="#da8c0b" d="m9.6 30.9c0.9 0.6 1.9 1 2.9 1.3 0.9 0.4 1.7 0.7 2.6 0.8h-0.3c0 0.2 0.1 0.3 0.2 0.4-0.4 0.2-0.7 0.4-1 0.7 0.2 0.2 0.2 0.3 0 0.4 0.3 0.2 0.3 0.4 0 0.6 0 0.2 0.3 0.4 0.7 0.5-1.5-0.2-2.9-0.7-4.3-1.3-0.2-0.2-0.4-0.4-0.7-0.4-0.4-0.3-0.8-0.6-1.3-0.8l-0.1-0.2c0.1 0.1 0.3 0.1 0.4 0.1l-0.1-0.1c0.1-0.1 0.2-0.1 0.2-0.2 0.3-0.6 0.6-1.2 0.8-1.8z"></path><path fill="#e1bf77" d="m6.8 32c0.3 0.1 0.5 0.3 0.7 0.6-0.3-0.1-0.5-0.3-0.7-0.6z" opacity=".565"></path><path fill="#aa600f" d="m6.4 26.6c0.4 0.5 0.8 1 1.4 1.3-0.1 0.1-0.1 0.2 0 0.3 0.2 0.1 0.3 0.3 0.5 0.5 0.7 0.6 1.5 1.1 2.3 1.5 0.6 0.6 1.2 1 2.1 1.1 0.3 0.3 0.7 0.4 1.1 0.4 0.3 0.1 0.6 0.3 1 0.4 1.1 0.1 2.1 0.2 3.2 0.4 1.4-0.1 2.8-0.3 4.2-0.7 0.1 0 0.1 0 0.2 0.1 0.4-0.3 0.8-0.6 1.3-0.8 0.6-0.3 1.2-0.6 1.9-0.8 0.3-0.2 0.6-0.5 0.9-0.8 0.3-0.2 0.6-0.4 1-0.5 0.2-0.1 0.3-0.3 0.2-0.5h0.5c-0.6 0.7-1.3 1.2-2 1.8-3.1 1.9-6.4 2.7-10.1 2.3-3.9-0.5-7.1-2.3-9.5-5.3-0.1-0.2-0.2-0.4-0.2-0.7z"></path><path fill="#e8ce90" d="m28.9 32.2c-0.2 0.3-0.4 0.4-0.7 0.5 0.2-0.2 0.4-0.4 0.7-0.5z" opacity=".153"></path><path fill="#e2aa50" d="m7.5 32.6c0.3-0.1 0.6 0 0.8 0.3l0.1 0.2c-0.4-0.1-0.7-0.3-0.9-0.5z"></path><path fill="#e1a44b" d="m27.4 32.8c0.2-0.1 0.5-0.2 0.8-0.1-0.2 0.2-0.4 0.4-0.7 0.4 0.1-0.1 0.1-0.2 0.2-0.2-0.1-0.1-0.2-0.1-0.3-0.1z"></path><path fill="#d68105" d="m27.4 32.8c0.1 0 0.2 0 0.3 0.1-0.1 0-0.1 0.1-0.2 0.2-0.1 0.2-0.3 0.3-0.6 0.4-0.5 0.2-1 0.4-1.5 0.8-0.1 0.1-0.2 0.1-0.4 0.2-0.2 0-0.5 0-0.6 0.2-0.6 0.1-1.2 0.3-1.7 0.5-0.2-0.1-0.2-0.1 0-0.2-0.2 0-0.3 0-0.5-0.1-0.3 0.2-0.6 0.3-1 0.4 0.2 0.1 0.2 0.2 0 0.3h-0.2c-0.4 0-0.7 0-1 0 0.1-0.2 0.2-0.2 0.4-0.3-0.4 0-0.8 0.1-1.2 0.3l0.5 0.1c-1.6 0-3.3 0-4.9-0.1h-0.1c-0.4-0.1-0.7-0.3-0.7-0.5 0.3-0.2 0.3-0.4 0-0.6 0.2-0.1 0.2-0.2 0-0.4 0.3-0.3 0.6-0.5 1-0.7-0.1-0.1-0.2-0.2-0.2-0.4h0.3l1.6 0.2c1.3-0.1 2.6-0.2 3.8-0.1 0.7-0.2 1.3-0.3 1.9-0.5 0.4-0.1 0.8-0.3 1.1-0.5 0.1 0.1 0.1 0.1 0.2 0.1 0.2-0.1 0.4-0.2 0.7-0.3l-0.2-0.1c0.2-0.1 0.4-0.1 0.6 0 0.1-0.3 0.2-0.3 0.4-0.2 0.1-0.2 0.2-0.3 0.4-0.3l-0.2-0.1c0.2-0.2 0.4-0.3 0.6-0.3 0 0.1 0.1 0.3 0.3 0.3 0.1-0.1 0.3-0.1 0.5 0l0.1-0.2c0.2 0.1 0.3 0.1 0.4-0.1l0.2 0.1 0.7-0.2c0.1 0.1 0.1 0.2 0 0.3l-0.1-0.1c-0.2 0.1-0.2 0.2 0.1 0.3l-1.3 1.2 0.4 0.1c-0.3 0.1-0.3 0.2 0.1 0.2z"></path><path fill="#cf7a00" d="m24.6 32.6c0.1 0 0.1 0.1 0.2 0.3-0.3 0.1-0.4 0.4-0.5 0.7l-0.1-0.2c-0.2 0-0.4 0.1-0.5 0.2 0 0 0 0.1 0.1 0.2-0.2 0-0.4 0-0.5 0.1l-0.1-0.1c-0.2 0.3-0.4 0.4-0.8 0.5-0.8 0.3-1.7 0.5-2.7 0.6-0.1 0-0.2 0-0.2-0.1l-1.3 0.2c-0.8 0-1.7-0.1-2.6-0.1-0.3-0.1-0.7-0.2-1-0.3-0.1-0.1-0.1-0.1-0.1-0.2 0.1-0.1 0.1-0.2 0-0.4 0.2-0.1 0.5-0.3 0.7-0.4 1.8 0.3 3.6 0.3 5.4 0 0.2 0 0.3-0.1 0.4-0.2 0.1 0 0.2 0.1 0.3 0.1 0.6-0.1 1.1-0.2 1.6-0.5 0.1 0 0.2 0.1 0.3 0.1 0.4-0.3 0.9-0.4 1.4-0.5z"></path><path fill="#d58d23" d="m7.6 28.9c1 0.8 2 1.6 3.1 2.4 4.4 2 8.9 2.1 13.4 0.4 0.6-0.4 1.3-0.8 1.9-1v0.2c-0.2 0-0.4 0.1-0.6 0.3l0.2 0.1c-0.2 0-0.3 0.1-0.4 0.3-0.2-0.1-0.3-0.1-0.4 0.2-0.2-0.1-0.4-0.1-0.6 0l0.2 0.1c-0.3 0.1-0.5 0.2-0.7 0.3-0.1 0-0.1 0-0.2-0.1-0.3 0.2-0.7 0.4-1.1 0.5-0.6 0.2-1.2 0.3-1.9 0.5-1.2-0.1-2.5 0-3.8 0.1l-1.6-0.2c-0.9-0.1-1.7-0.4-2.6-0.8-1-0.3-2-0.7-2.9-1.3-0.7-0.5-1.4-1-2.1-1.5-0.2-0.1-0.3-0.3-0.4-0.5 0.2-0.1 0.3-0.1 0.5 0z"></path><path fill="#cb8113" d="m23.7 31.1c-0.5 0.2-0.9 0.5-1.3 0.8-0.1-0.1-0.1-0.1-0.2-0.1-1.4 0.4-2.8 0.6-4.2 0.7-1.1-0.2-2.1-0.3-3.2-0.4-0.4-0.1-0.7-0.3-1-0.4 0.6 0.1 1.3 0.2 2 0.3 0.3 0 0.6-0.1 0.9-0.3-0.1 0-0.1-0.1 0-0.1l0.2 0.2c0.1-0.2 0.2-0.5 0.2-0.7 0.1 0.3 0.2 0.3 0.3 0 0.1 0.2 0.3 0.3 0.5 0.3 0.3-0.1 0.6-0.2 1-0.3 0.1 0.1 0.1 0.1 0.2 0.1 0.2-0.3 0.3-0.3 0.3 0.1 0.4 0 0.7 0 1.1-0.1 0.2 0 0.3 0.2 0.4 0.4l0.1-0.2c0.2 0.2 0.3 0.3 0.5 0.3 0.8-0.2 1.5-0.4 2.2-0.6z"></path><path fill="#ddb76e" d="m8.4 33.1c0.5 0.2 0.9 0.5 1.3 0.8-0.5-0.2-0.9-0.4-1.3-0.8z" opacity=".565"></path><path fill="#e6dbb2" d="m9.3 33.9c0.1 0.1 0.1 0.1 0 0z" opacity=".078"></path><path fill="#dcaa5e" d="m26.9 33.5c-0.4 0.4-0.9 0.6-1.5 0.8 0.5-0.4 1-0.6 1.5-0.8z"></path><path fill="#e6dbb2" d="m26.7 33.9c0.2 0.1 0.2 0.1 0 0z" opacity=".078"></path><path fill="#e6c677" d="m9.7 33.9c0.3 0 0.5 0.2 0.7 0.4-0.3-0.1-0.5-0.2-0.7-0.4z" opacity=".675"></path><path fill="#d5ac6e" d="m25 34.5c0 0.1 0 0.1 0 0.2-0.2-0.1-0.4-0.1-0.6 0 0.1-0.2 0.4-0.2 0.6-0.2z" opacity=".345"></path><path fill="#d68d32" d="m24.4 34.7c-1 0.5-2.1 0.8-3.2 0.9 0.2-0.1 0.2-0.2 0-0.3 0.4-0.1 0.7-0.2 1-0.4 0.2 0.1 0.3 0.1 0.5 0.1-0.2 0.1-0.2 0.1 0 0.2 0.5-0.2 1.1-0.4 1.7-0.5z"></path><path fill="#d48c32" d="m21 35.6c-0.4 0.1-0.7 0.2-1 0.3h-0.3c-0.2-0.1-0.4-0.1-0.6 0h-2.3c-0.7 0-1.3-0.2-2-0.3 1.6 0.1 3.3 0.1 4.9 0.1l-0.5-0.1c0.4-0.2 0.8-0.3 1.2-0.3-0.2 0.1-0.3 0.1-0.4 0.3 0.3 0 0.6 0 1 0z"></path></svg>