<?xml version="1.0"?><svg xmlns="http://www.w3.org/2000/svg" width="36" height="36" shape-rendering="geometricPrecision" text-rendering="geometricPrecision" image-rendering="optimizeQuality" fill-rule="evenodd" clip-rule="evenodd" viewBox="0 0 36 36"><path fill="#fefefe" d="m-0.1-0.1h36v36h-36v-36z"></path><path fill="#1b1b1b" d="m18.8 31c-0.9 0-1.9 0-2.9-0.1-5.3-1-8.8-4.1-10.5-9.2-1.4-5.4 0-10 4-13.7 4.7-3.6 9.7-4.1 15-1.5 4.7 3 6.9 7.2 6.5 12.8-0.5 4.4-2.7 7.8-6.5 10.1-1.8 0.9-3.6 1.4-5.6 1.6z"></path><path fill="#f6f6f6" d="m16 5.1c5.4-0.5 9.7 1.5 12.8 5.9 1.9 3.1 2.5 6.4 1.7 10-1.6 5.3-5.2 8.6-10.6 9.7-5.7 0.6-10.1-1.6-13.1-6.3-1.6-2.9-2.1-5.9-1.5-9 1.5-5.6 5.1-9 10.7-10.3z"></path><path fill="#656665" d="m13.7 7.1c-0.3 0.2-0.7 0.4-1 0.5 0.2-0.3 0.6-0.4 1-0.5z"></path><path fill="#626362" d="m22.3 7.1c0.6 0.2 1.1 0.5 1.6 0.8-0.6-0.2-1.1-0.4-1.6-0.8z"></path><path fill="#d6d8d6" d="m16.5 6.4c0.1-0.2 0.3-0.2 0.5-0.2 1.3 0.1 2.7 0.3 4 0.5 0.4 0.2 0.9 0.4 1.3 0.4 0.5 0.4 1 0.6 1.6 0.8 0.4 0.1 0.7 0.3 0.9 0.6 0.1 0.2 0.3 0.4 0.6 0.4 0.5 0.6 1 1.1 1.5 1.6 0.1 0.2 0.2 0.4 0.4 0.6-0.1 0.2-0.3 0.3-0.5 0.4 0.8 0.2 0.9 0.5 0.1 0.8 0.2 0 0.4 0 0.5-0.1 0.1 0.3 0.1 0.6 0.2 0.9 0-0.3 0.1-0.5 0.2-0.8 0.1 0.1 0.2 0.2 0.2 0.4 0.1-0.1 0.1-0.1 0.2-0.2l0.4 0.7c0.4 1.1 0.7 2.2 0.9 3.3 0.1 1.6 0 3.1-0.3 4.7l-0.2 0.2c-0.1 0-0.2 0-0.3-0.1 0.1-0.2 0.1-0.4 0.2-0.6-0.2-0.2-0.3-0.4-0.3-0.6 0.1-0.4 0.1-0.8 0.1-1.1v-2.3c0-0.3 0-0.7-0.1-1 0-0.2-0.1-0.4-0.2-0.5-0.1-0.5-0.3-1-0.4-1.5l-0.2-0.1c-0.4 0.2-0.8 0.3-1.2 0.4-0.3 0-0.5 0-0.8-0.2-0.1-0.3-0.2-0.6-0.4-0.8-0.1-0.1-0.1-0.1-0.3-0.1-1.3-1.9-3.2-3.1-5.5-3.6 0-0.5 0-0.9 0.1-1.4 2.6 0.4 4.6 1.7 6.2 3.7 0.3 0 0.5-0.1 0.6-0.3-1.7-2.3-4-3.7-6.8-4.2 0 0-0.1-0.1-0.2-0.1-0.9-0.1-1.7-0.1-2.6 0h-0.4v0.7h2.5v2c3 0.6 5.2 2.4 6.5 5.2 0.3 0.1 0.7 0.1 1 0 0.3-0.2 0.6-0.4 0.9-0.4 0.9 2.4 0.9 4.9-0.1 7.4 0 0.1-0.1 0.2-0.2 0.2-0.6-0.3-1.3-0.6-1.9-0.9-0.1 0.1-0.2 0.3-0.3 0.5 0.5 0.4 1.1 0.7 1.8 0.9 0.1 0.1 0.2 0.3 0.1 0.4-0.5 0.7-1 1.5-1.6 2.1-0.2 0.3-0.5 0.5-0.8 0.6-0.5-0.4-0.9-0.9-1.1-1.5-0.4-0.2-0.7-0.6-0.9-1 0.1-0.2 0.1-0.3 0.2-0.4 0.8-0.7 1.4-1.5 1.7-2.5 0.2-0.6 0.4-1.2 0.4-1.9 0.7-0.2 1.5-0.3 2.2-0.2 0.1-0.3 0-0.5-0.2-0.7h-2c-0.3-2.8-1.7-4.8-4.2-6-0.8-0.3-1.6-0.5-2.5-0.5-0.4 0-0.9 0-1.3 0.1-0.8 0.1-1.6 0.3-2.4 0.7v0.3c-0.3-0.1-0.7-0.4-0.9-0.7-0.1-0.2 0-0.3 0.2-0.4 1-0.7 2.1-1.1 3.3-1.3 0.1-0.2 0.2-0.4 0.1-0.6-0.4 0-0.9-0.1-1.4-0.2l-0.2 0.1c0.1 0 0.2 0.1 0.3 0.2-0.2 0.1-0.4 0.1-0.6 0-0.1 0.1-0.1 0.2-0.1 0.3-0.9 0.4-1.7 0.9-2.5 1.5-0.1 0.1-0.1 0.2 0 0.3 0.4 0.4 0.7 0.9 1.1 1.4-0.8 0.7-1.5 1.6-2 2.6 0.2 0.2 0.3 0.3 0.5 0.4 0.1 0.1 0.2 0.1 0.3 0.1 0 0.4-0.1 0.4-0.3 0.1-0.1 0.1-0.1 0.2-0.1 0.4-0.1 0-0.2 0-0.2 0.1 0.1 0.1 0.2 0.2 0.3 0.3 0.1-0.2 0.1-0.3 0.2-0.4 0.1 0.3 0.1 0.7 0.1 1.1-0.4 0-0.4 0.1 0 0.1 0 0.2 0 0.3-0.2 0.4 0.3 0.3 0.2 0.5-0.2 0.5 0 0.2 0 0.3-0.1 0.4v-0.3c-0.1-0.1-0.2-0.2-0.3-0.2-0.5 0-1 0-1.5 0.1-0.1-0.4-0.2-0.8-0.1-1.2-0.1-0.4 0-0.7 0-1.1 0.1-0.4 0.3-0.9 0.4-1.4-0.2 0-0.3-0.1-0.4-0.2-1.3 2.8-1 5.6 0.6 8.2 0.1 0.2 0.1 0.4 0.1 0.5-0.3 0.2-0.7 0.5-1 0.7-2-3.1-2.4-6.4-1.2-9.9 1.1-2.6 3-4.5 5.6-5.6 0-0.2-0.1-0.4-0.2-0.5-0.3 0-0.5 0-0.8 0.1-0.3 0.2-0.7 0.3-1 0.4-0.2 0.2-0.4 0.3-0.5 0.5-4.2 3.6-5.4 8-3.6 13.3 1.9 4.1 5.1 6.4 9.7 6.7 0.3 0 0.6-0.1 0.8-0.2 0.1 0 0.2-0.1 0.2-0.3 0.1-0.3 0-0.4-0.3-0.5-0.5 0.1-1 0.2-1.5 0.2-0.4 0-0.7 0-1.1-0.1-0.2-0.2-0.4-0.3-0.7-0.3 0-0.1 0-0.2 0-0.3-0.3 0.1-0.5 0.1-0.8 0.1-0.8-0.3-1.5-0.7-2.2-1.3 0.3-0.4 0.6-0.8 0.9-1.3-0.1-0.2-0.2-0.3-0.4-0.4-0.3 0.4-0.7 0.9-1.1 1.3-0.4-0.4-0.8-0.8-1.3-1.2 0-0.1 0-0.2 0-0.2 0.6-0.4 1-0.8 1.4-1.2-0.9-1.2-1.4-2.5-1.6-4 0.4-0.1 0.9 0 1.3 0.1 0.5 2.2 1.8 3.8 3.8 4.8-0.1 0.7-0.2 1.3-0.5 1.9 2.2 1.1 4.4 1.1 6.7 0 0-0.1 0-0.3 0-0.5-0.3-0.1-0.6 0-0.9 0.3-0.3 0.1-0.6 0.1-0.9 0.2-1.3 0.1-2.6 0-3.9-0.2-0.2-0.5-0.1-0.9 0.2-1.2 0.2-0.1 0.4-0.1 0.6 0 0 0.1 0 0.1 0.1 0.2 0.9 0 1.8 0 2.7-0.1 0.9-0.2 1.8-0.6 2.6-1.1 0.6 0.7 1.1 1.4 1.7 2.1 0.2 0.2 0.3 0.4 0.3 0.7-0.4 0.2-0.8 0.5-1.2 0.7-0.3 0.1-0.5 0.2-0.7 0.2 0 0.3 0 0.5 0.2 0.8 1.7-0.9 3.3-2 4.5-3.5 0.5-0.3 0.8-0.7 0.9-1.3h0.3c0.2-0.4 0.3-0.9 0.4-1.3 0.1 0.1 0.2 0.2 0.4 0.2v0.6c-0.1 0-0.3 0-0.4 0l0.1 0.2c-0.2 0.4-0.3 0.8-0.5 1.2-0.2 0.2-0.4 0.5-0.5 0.8-0.3 0.2-0.4 0.3-0.5 0.6 0 0.1 0 0.2-0.2 0.2-0.4 0.3-0.7 0.7-1 1-0.3 0.1-0.5 0.3-0.6 0.5-0.4 0.1-0.7 0.3-1 0.7-0.3 0-0.6 0.1-0.9 0.2-0.1 0.1-0.1 0.2-0.1 0.3-0.6 0.2-1.2 0.4-1.8 0.7-0.6 0.1-1.1 0.2-1.7 0.3 0.1 0 0.2 0 0.4 0-0.2 0.1-0.3 0.2-0.5 0.1-1.1 0-2.2-0.1-3.3-0.2-0.1 0-0.2 0.1-0.3 0.1-0.2 0.1-0.3 0-0.4-0.1 0 0 0.1 0 0.2 0-0.8-0.3-1.6-0.5-2.4-0.8-0.4-0.3-0.9-0.5-1.4-0.8-0.2 0.1-0.3 0-0.4-0.2 0-0.1-0.1-0.2-0.3-0.2-0.1-0.2-0.3-0.4-0.6-0.5-0.5-0.5-1-1-1.6-1.5-0.2-0.1-0.3-0.3-0.3-0.5s-0.1-0.3-0.3-0.4c-0.4-0.8-0.8-1.5-1.2-2.2-0.3-1-0.5-2.1-0.7-3.2 0 0.2-0.1 0.3 0 0.5-0.2-1-0.2-2 0-3 0.2-1.1 0.5-2.3 1-3.5 0-0.3 0.1-0.5 0.3-0.7 0.2-0.1 0.3-0.3 0.5-0.6l0.3-0.1c-0.1-0.2-0.1-0.3 0-0.5 0.3-0.2 0.6-0.4 1-0.6l-0.3-0.1c0.1-0.1 0.1-0.2 0.1-0.3 0.2-0.1 0.4-0.2 0.4-0.5 0.3-0.3 0.6-0.6 0.9-0.8 0.3 0 0.5-0.2 0.6-0.4 0.4-0.4 0.9-0.7 1.5-0.9 0.3-0.1 0.7-0.3 1-0.5 0.3 0 0.6-0.1 0.8-0.3 0-0.1 0.1-0.1 0.2-0.1 0.3 0.1 0.5 0.1 0.8-0.1 0.4 0 0.9-0.1 1.3-0.2-0.1 0-0.2-0.1-0.3 0z"></path><path fill="#8bbc92" d="m16.9 7.7c0.7-0.1 1.4-0.1 2.2-0.1 0 0.4 0 0.8-0.1 1.1v-1h-2.1z"></path><path fill="#636463" d="m14.5 6.8c-0.2 0.2-0.5 0.3-0.8 0.3 0.2-0.1 0.5-0.2 0.8-0.3z"></path><path fill="#707170" d="m21 6.7c0.5 0 0.9 0.2 1.3 0.4-0.4 0-0.9-0.2-1.3-0.4z"></path><path fill="#79b583" d="m16.9 7c0.9-0.1 1.7-0.1 2.6 0 0.1 0 0.2 0.1 0.2 0.1-0.9 0-1.8-0.1-2.8-0.1z"></path><path fill="#737372" d="m15.5 6.6c-0.3 0.2-0.5 0.2-0.8 0.1 0.2-0.1 0.5-0.1 0.8-0.1z"></path><path fill="#767776" d="m16.5 6.4c0.1-0.1 0.2 0 0.3 0-0.4 0.1-0.9 0.2-1.3 0.2 0.3-0.2 0.6-0.3 1-0.2z"></path><path fill="#626362" d="m17 6.2c1.4 0 2.7 0.1 4 0.5-1.3-0.2-2.7-0.4-4-0.5z"></path><path fill="#636462" d="m11.2 8.5c-0.1 0.2-0.3 0.4-0.6 0.4 0.2-0.2 0.3-0.3 0.6-0.4z"></path><path fill="#acd1b3" d="m13.1 8c-0.4 0.4-0.9 0.7-1.5 0.9 0.1-0.2 0.3-0.3 0.5-0.5 0.3-0.1 0.7-0.2 1-0.4z"></path><path fill="#616261" d="m24.8 8.5c0.3 0.1 0.4 0.2 0.6 0.4-0.3 0-0.5-0.2-0.6-0.4z"></path><path fill="#646463" d="m25.4 8.9c0.6 0.5 1.1 1 1.5 1.6-0.5-0.5-1-1-1.5-1.6z"></path><path fill="#5a5b5a" d="m9.7 9.7c0 0.3-0.2 0.4-0.4 0.5 0.1-0.2 0.2-0.4 0.4-0.5z"></path><path fill="#989595" d="m9.3 10.2c0 0.1 0 0.2-0.1 0.3l0.3 0.1c-0.4 0.2-0.7 0.4-1 0.6 0.2-0.4 0.4-0.7 0.8-1z"></path><path fill="#b7b7b7" d="m26.9 10.5c0.6 0.5 1 1.1 1.3 1.8v0.2c-0.1 0.1-0.1 0.1-0.2 0.2 0-0.2-0.1-0.3-0.2-0.4-0.1 0.3-0.2 0.5-0.2 0.8-0.1-0.3-0.1-0.6-0.2-0.9-0.1 0.1-0.3 0.1-0.5 0.1 0.8-0.3 0.7-0.6-0.1-0.8 0.2-0.1 0.4-0.2 0.5-0.4-0.2-0.2-0.3-0.4-0.4-0.6z"></path><path fill="#787878" d="m8.5 11.2c-0.1 0.2-0.1 0.3 0 0.5l-0.3 0.1c-0.2 0.3-0.3 0.5-0.5 0.6 0.1-0.5 0.4-0.9 0.8-1.2z"></path><path fill="#606360" d="m28.2 12.3c0.2 0.3 0.4 0.6 0.4 0.9l-0.4-0.7v-0.2z"></path><path fill="#afd2b2" d="m25.1 12.9c0.2 0 0.2 0 0.3 0.1 0.2 0.2 0.3 0.5 0.4 0.8 0.3 0.2 0.5 0.2 0.8 0.2-0.2 0.2-0.5 0.3-0.8 0.1-0.2-0.4-0.4-0.8-0.7-1.2z"></path><path fill="#717170" d="m7.4 13.1c-0.5 1.2-0.8 2.4-1 3.5 0-1.3 0.4-2.4 1-3.5z"></path><path fill="#9ccba4" d="m28.4 15.2c0.1 0.1 0.2 0.3 0.2 0.5 0.1 0.3 0.1 0.7 0.1 1 0 0-0.1-0.1-0.1-0.2-0.1-0.4-0.1-0.8-0.2-1.3z"></path><path fill="#7b7b7b" d="m28.6 13.2c0.8 1.5 1.2 3.1 1.2 4.7-0.1 0.7-0.2 1.3-0.2 2-0.1 0.4-0.2 0.9-0.4 1.3 0.3-1.6 0.4-3.1 0.3-4.7-0.2-1.1-0.5-2.2-0.9-3.3z"></path><path fill="#6c6c6c" d="m7.1 22.3c-0.4-0.8-0.7-1.7-0.7-2.7-0.1-0.2 0-0.3 0-0.5 0.2 1.1 0.4 2.2 0.7 3.2z"></path><path fill="#ccd9ce" d="m28.7 19c0 0.3 0 0.7-0.1 1.1 0 0.2 0.1 0.4 0.3 0.6-0.1 0.2-0.1 0.4-0.2 0.6 0.1 0.1 0.2 0.1 0.3 0.1v0.5c-0.2 0-0.4 0.1-0.5 0.2l-0.2-0.2c-0.1 0-0.1 0-0.1 0.1-0.1 0.4-0.2 0.9-0.4 1.3h-0.3c-0.1 0.6-0.4 1-0.9 1.3 0.5-0.8 1-1.7 1.4-2.6 0.3-1 0.5-2 0.7-3z"></path><path fill="#9d9e9e" d="m29.2 21.2c0 0.6-0.2 1.1-0.6 1.6v-0.6c-0.2 0-0.3-0.1-0.4-0.2 0-0.1 0-0.1 0.1-0.1l0.2 0.2c0.1-0.1 0.3-0.2 0.5-0.2v-0.5l0.2-0.2z"></path><path fill="#616361" d="m7.1 22.3c0.4 0.7 0.8 1.4 1.2 2.2-0.6-0.7-0.9-1.4-1.2-2.2z"></path><path fill="#8b8c8b" d="m28.6 22.8c-0.1 0.5-0.4 1-0.8 1.4 0.2-0.4 0.3-0.8 0.5-1.2l-0.1-0.2c0.1 0 0.3 0 0.4 0z"></path><path fill="#575857" d="m8.3 24.5c0.2 0.1 0.3 0.2 0.3 0.4-0.2-0.1-0.3-0.2-0.3-0.4z"></path><path fill="#606160" d="m27.8 24.2c-0.1 0.4-0.2 0.6-0.5 0.8 0.1-0.3 0.3-0.6 0.5-0.8z"></path><path fill="#6a6b6a" d="m27.3 25c-0.1 0.3-0.2 0.5-0.5 0.6 0.1-0.3 0.2-0.4 0.5-0.6z"></path><path fill="#616261" d="m8.9 25.4c0.6 0.5 1.1 1 1.6 1.5-0.6-0.4-1.1-0.9-1.6-1.5z"></path><path fill="#2b8a3a" d="m16.9 7c1 0 1.9 0.1 2.8 0.1 2.8 0.5 5.1 1.9 6.8 4.2-0.1 0.2-0.3 0.3-0.6 0.3-1.6-2-3.6-3.3-6.2-3.7-0.1 0.5-0.1 0.9-0.1 1.4 2.3 0.5 4.2 1.7 5.5 3.6 0.3 0.4 0.5 0.8 0.7 1.2 0.3 0.2 0.6 0.1 0.8-0.1 0.4-0.1 0.8-0.2 1.2-0.4l0.2 0.1c0.1 0.5 0.3 1 0.4 1.5 0.1 0.5 0.1 0.9 0.2 1.3 0 0.1 0.1 0.2 0.1 0.2v2.3c-0.2 1-0.4 2-0.7 3-0.4 0.9-0.9 1.8-1.4 2.6-1.2 1.5-2.8 2.6-4.6 3.5-0.1-0.3-0.1-0.5-0.1-0.8 0.2 0 0.4-0.1 0.7-0.2 0.4-0.2 0.8-0.5 1.2-0.7 0-0.3-0.1-0.5-0.3-0.7-0.6-0.7-1.1-1.4-1.7-2.1-0.8 0.5-1.7 0.9-2.6 1.1-1 0-1.9 0-2.8-0.1-0.2-0.1-0.4-0.1-0.6 0-0.3 0.3-0.4 0.7-0.2 1.2 1.3 0.2 2.6 0.3 3.9 0.2 0.3-0.1 0.6-0.1 0.9-0.2 0.3-0.3 0.6-0.4 0.9-0.3 0 0.2 0 0.4 0 0.5-2.3 1.1-4.5 1.1-6.7 0 0.3-0.6 0.4-1.2 0.5-1.9-2-1-3.3-2.6-3.8-4.8-0.4-0.1-0.9-0.2-1.3-0.1 0.2 1.5 0.7 2.8 1.6 4-0.4 0.4-0.8 0.8-1.4 1.2 0 0 0 0.1 0 0.2 0.5 0.4 0.9 0.8 1.3 1.2 0.4-0.4 0.8-0.9 1.1-1.3 0.2 0.1 0.3 0.2 0.4 0.4-0.3 0.5-0.6 0.9-0.9 1.3 0.7 0.6 1.4 1 2.2 1.3 0.5 0.3 1 0.4 1.5 0.5 0.4 0.1 0.7 0.1 1.1 0.1 0.5 0.1 1.1 0.1 1.6 0.1v0.5c-0.2 0.1-0.5 0.2-0.8 0.2-4.6-0.3-7.8-2.6-9.7-6.7-1.8-5.3-0.6-9.7 3.6-13.3 0.6-0.2 1.1-0.5 1.5-0.9 0.3-0.1 0.5-0.1 0.8-0.1 0.1 0.1 0.2 0.3 0.2 0.5-2.6 1.1-4.5 3-5.6 5.6-1.2 3.5-0.8 6.8 1.2 9.9 0.3-0.2 0.7-0.5 1-0.7 0-0.1 0-0.3-0.1-0.5-1.6-2.6-1.9-5.4-0.6-8.2 0.1 0.1 0.2 0.2 0.4 0.2-0.1 0.5-0.3 1-0.4 1.4 0 0.4-0.1 0.7 0 1.1-0.2 0.4-0.2 0.8-0.2 1.3h2.1v0.3c0 0.7 0.2 1.3 0.6 1.8 0.2 0.6 0.4 1 0.8 1.3 0.1 0.1 0.2 0.2 0.4 0.3 0 0.1 0 0.2 0.1 0.3 0.5 0.3 1 0.6 1.4 1 0.5 0.2 0.9 0.4 1.4 0.4 0.9 0.3 1.8 0.3 2.7 0 2.5-0.7 4-2.3 4.7-4.8 0-0.8 0-1.6 0-2.4-0.1-0.5-0.3-0.9-0.5-1.3-0.2-0.7-0.6-1.3-1.2-1.7-1.7-1.8-3.7-2.4-6.2-1.8-1.6 0.6-2.8 1.7-3.6 3.2-0.1 0.2-0.2 0.4-0.4 0.6-0.2-0.1-0.3-0.2-0.5-0.4 0.5-1 1.2-1.9 2-2.6-0.4-0.5-0.7-1-1.1-1.4-0.1-0.1-0.1-0.2 0-0.3 0.8-0.6 1.6-1.1 2.5-1.5 0.4 0 0.7-0.1 0.9-0.3 0.4 0 0.7 0 1 0v0.5c-1.2 0.2-2.3 0.6-3.3 1.3-0.2 0.1-0.3 0.2-0.2 0.4 0.2 0.3 0.6 0.6 0.9 0.7 0.8-0.4 1.6-0.8 2.4-1 0.4-0.1 0.9-0.1 1.3-0.1 0.9 0 1.7 0.2 2.5 0.5 2.5 1.2 3.9 3.2 4.2 6h2v0.6h-2v0.3c0 0.7-0.2 1.3-0.4 1.9-0.3 1-0.9 1.8-1.7 2.5-0.1 0.1-0.1 0.2-0.2 0.4 0.2 0.4 0.5 0.8 0.9 1 0.2 0.6 0.6 1.1 1.1 1.5 0.3-0.1 0.6-0.3 0.8-0.6 0.6-0.6 1.1-1.4 1.6-2.1 0.1-0.1 0-0.3-0.1-0.4-0.7-0.2-1.3-0.5-1.8-0.9 0.1-0.2 0.2-0.4 0.3-0.5 0.6 0.3 1.3 0.6 1.9 0.9 0.1 0 0.2-0.1 0.2-0.2 1-2.5 1-5 0.1-7.4-0.3 0-0.6 0.2-0.9 0.3-0.3 0.2-0.7 0.2-1 0.1-1.3-2.8-3.5-4.6-6.5-5.2v-1c0.1-0.3 0.1-0.7 0.1-1.1-0.8 0-1.5 0-2.2 0.1h-0.4v-0.7h0.4z"></path><path fill="#7bac83" d="m16.4 24.6c0.9 0.1 1.8 0.1 2.8 0.1-0.9 0.1-1.8 0.1-2.7 0.1-0.1-0.1-0.1-0.1-0.1-0.2z"></path><path fill="#beddc5" d="m19.3 23.9c-0.9 0.3-1.8 0.3-2.7 0 0.9-0.1 1.8-0.1 2.7 0z"></path><path fill="#6f9875" d="m16.7 20.5v1.7h-1.6c0 0-0.1 0-0.1-0.1h1.6c0-0.5 0-1.1 0.1-1.6z"></path><path fill="#cccbcb" d="m15 13.7v8.4c0 0.1 0.1 0.1 0.1 0.1 0 0.1 0.1 0.2 0.1 0.2 0.2 0 0.3-0.1 0.4 0 0 0.3 0 0.5 0 0.8-0.2 0.3-0.3 0.3-0.4-0.1 0 0-0.1 0.1-0.1 0.1-0.1-0.1-0.3-0.3-0.4-0.4l0.3-0.2c-0.2-0.2-0.4-0.3-0.7-0.4 0.4-0.1 0.4-0.2 0.2-0.4-0.1 0.2-0.3 0.2-0.5 0.1 0.3 0 0.4-0.2 0.2-0.4l-0.5 0.4c0 0.1 0.1 0.2 0.3 0.3-0.1 0-0.2 0-0.3 0-0.2-0.1-0.3-0.2-0.4-0.3 0.2-0.1 0.3-0.2 0.3-0.4-0.5 0-0.6-0.2-0.3-0.5 0.2 0.2 0.4 0.4 0.5 0.7l0.1-0.6c0-0.2-0.1-0.5-0.2-0.6 0.1-0.1 0.2-0.2 0.2-0.4-0.2 0-0.3-0.1-0.3-0.2-0.2 0-0.4 0.1-0.5 0.2-0.2-0.1-0.3-0.1-0.4-0.2-0.1 0-0.2 0.2-0.2 0.3 0.3 0 0.4 0 0.5 0.2 0.2-0.2 0.3-0.2 0.6-0.1-0.3 0.3-0.6 0.3-0.9 0-0.1 0.1-0.2 0.2-0.2 0.3-0.4-0.5-0.6-1.1-0.6-1.8 0.1-0.1 0.1-0.2 0.1-0.4 0.4 0 0.5-0.2 0.2-0.5 0.2-0.1 0.2-0.2 0.2-0.4-0.4 0-0.4-0.1 0-0.1 0-0.4 0-0.8-0.1-1.1-0.1 0.1-0.1 0.2-0.2 0.4-0.1-0.1-0.2-0.2-0.3-0.3 0-0.1 0.1-0.1 0.2-0.1 0-0.2 0-0.3 0.1-0.4 0.2 0.3 0.3 0.3 0.3-0.1-0.1 0-0.2 0-0.3-0.1 0.2-0.2 0.3-0.4 0.4-0.6v0.4c0.3 0 0.5 0.1 0.7 0.2-0.2 0.1-0.4 0.1-0.5-0.1-0.1 0.1-0.2 0.2-0.2 0.3 0.5 0 0.5 0.1 0 0.2v0.9c0.3 0.2 0.5 0.3 0.7 0.4-0.2 0.1-0.4 0.1-0.5-0.1-0.1 0.1-0.2 0.2-0.2 0.3 0.3 0 0.4 0.1 0.5 0.2 0.1-0.1 0.3-0.2 0.4-0.2 0.2 0.1 0.4 0.2 0.6 0.3-0.1 0-0.2 0.1-0.3 0 0 0.3 0 0.4 0.2 0.3 0.1 0.1 0.2 0.2 0.3 0.3 0.1-0.2 0.2-0.3 0.5-0.3-0.1-0.8-0.2-0.9-0.3-0.1 0-0.3-0.1-0.6-0.2-0.8-0.2 0.2-0.3 0.2-0.5 0.1 0.3-0.1 0.3-0.3 0-0.4 0.2-0.2 0.2-0.5 0.1-0.7l-0.2 0.2-0.2-0.5c-0.1 0.2-0.3 0.3-0.5 0.2 0.2-0.2 0.4-0.3 0.7-0.4 0 0.3 0.2 0.3 0.3 0.2 0.1 0.2 0.2 0.3 0.3 0.4 0.1-0.2 0.2-0.4 0.2-0.6 0 0.5 0.1 1.1 0.2 1.6-0.1-0.5 0-1 0.1-1.6l0.1 2.3c0.1-1.5 0.1-3 0.2-4.4z"></path><path fill="#dee4df" d="m13.6 19.9c0 0.1 0.1 0.2 0.3 0.2 0 0.2-0.1 0.3-0.2 0.4 0.1 0.1 0.2 0.4 0.2 0.6l-0.1 0.6c-0.1-0.3-0.3-0.5-0.5-0.7-0.3 0.3-0.2 0.5 0.3 0.5 0 0.2-0.1 0.3-0.3 0.4-0.4-0.3-0.6-0.7-0.8-1.3 0-0.1 0.1-0.2 0.2-0.3 0.3 0.3 0.6 0.3 0.9 0-0.3-0.1-0.4-0.1-0.5 0.1-0.2-0.2-0.3-0.2-0.6-0.2 0-0.1 0.1-0.3 0.2-0.3 0.1 0.1 0.2 0.1 0.4 0.2 0.1-0.1 0.3-0.2 0.5-0.2z"></path><path fill="#2e8f3f" d="m20.5 14.5c-0.6 0.8-1.2 1.7-1.8 2.7 0.8 1.3 1.5 2.7 2.2 4.1 0.1 0.3 0.1 0.5 0 0.7 0-0.1-0.1-0.2-0.3-0.3-0.9-0.1-0.9-0.1 0-0.2 0-0.5-0.2-0.9-0.6-1.2-0.2 1.1-0.5 1-0.6-0.1-0.5 0-0.6 0.3-0.3 0.7l0.1-0.1c0.1 0.2 0.1 0.5 0.1 0.7h-0.1c-0.4-0.7-0.7-1.4-1.2-2.1 0-0.2-0.1-0.4-0.2-0.6-0.1-0.1-0.1-0.1-0.2 0-0.3 0.5-0.6 0.9-0.9 1.3 0.2-0.5 0.5-1.1 0.7-1.6 0.2-0.2 0.3-0.2 0.5-0.2 0.1-0.5 0.2-0.5 0.3 0h0.3c-0.1 0.4 0.1 0.6 0.5 0.6 0.3 0.5 0.5 1 0.7 1.6 0.1-0.2 0.2-0.3 0.3-0.5l-0.1-0.3c-0.3-0.7-0.7-1.3-1.2-1.9 0-0.5-0.1-1-0.3-1.4 0.1-0.1 0.2-0.1 0.4 0 0.4-0.3 0.5-0.6 0.2-1 0.1-0.2 0.2-0.4 0.2-0.7 0.1 0.2 0.2 0.4 0.4 0.5 0.2-0.3 0.4-0.5 0.6-0.8 0.1-0.1 0.2 0 0.3 0.1z"></path><path fill="#e1e2e1" d="m13.6 19.9c-0.3-0.4-0.6-0.4-0.9-0.2l-0.2-0.1v-0.9c0.1-0.1 0.3-0.1 0.4-0.1-0.2-0.1-0.3-0.2-0.4-0.3 0.2-0.1 0.4-0.1 0.5 0-0.1-0.2-0.2-0.3-0.5-0.2 0-0.2 0.1-0.3 0.2-0.4 0.2 0.3 0.5 0.3 0.7 0 0.1 0.1 0.2 0.2 0.2 0.4-0.3-0.1-0.5 0-0.4 0.3 0.2-0.3 0.3-0.3 0.4 0.1-0.5 0-0.6 0.2-0.3 0.6 0-0.2 0.1-0.3 0.1-0.5l0.2 0.1-0.2 0.7 0.2 0.1 0.2-0.7c0.1 0.2 0.1 0.3 0.2 0.5 0.1-0.2 0.1-0.4 0-0.6 0.1-0.1 0.2-0.1 0.3 0-0.1 0.4-0.1 0.7 0.1 1 0-0.4 0.1-0.9 0.2-1.3l0.1 0.1c0 0.6 0 1.3 0 1.9-0.4 0-0.4 0.1 0 0.2 0 0.4 0 0.7-0.1 0.9-0.1-0.2-0.2-0.5-0.2-0.7-0.2-0.1-0.2-0.1-0.1 0.1-0.1 0.2-0.2 0.2-0.3 0 0.1-0.2 0.1-0.4 0-0.6 0.1 0 0.2 0 0.3 0-0.2-0.2-0.5-0.3-0.7-0.4z"></path><path fill="#9bc9a1" d="m10 17.2c-0.1 0.4 0 0.8 0.1 1.2 0.5-0.1 1-0.1 1.5-0.1 0.1 0 0.2 0.1 0.3 0.2h-2.1c0-0.5 0-0.9 0.2-1.3z"></path><path fill="#80b788" d="m26.7 17.5c0.2 0.2 0.3 0.4 0.2 0.7-0.7-0.1-1.5 0-2.2 0.2v-0.3h2v-0.6z"></path><path fill="#166722" d="m15 13.7h1.6v3.9c-0.1-1.2-0.2-2.5-0.1-3.8h-1.4v8.2h1.4c0-0.6 0-1.2 0-1.8 0.1-0.1 0.1-0.1 0.2-0.1v0.4c-0.1 0.5-0.1 1.1-0.1 1.6h-1.6v-8.4z"></path><path fill="#d8d9d7" d="m22.3 13.7c0.2 0.4 0.4 0.8 0.6 1.2 0.2 0.1 0.4 0.3 0.6 0.5 0.2 0.4 0.4 0.8 0.5 1.3 0 0.8 0 1.6 0 2.4-0.7 2.5-2.2 4.1-4.7 4.8-0.9-0.1-1.8-0.1-2.7 0-0.5 0-0.9-0.2-1.4-0.4-0.4-0.4-0.9-0.7-1.4-1-0.1-0.1-0.1-0.2-0.1-0.3 0.1 0 0.2 0 0.3 0-0.2-0.1-0.3-0.2-0.3-0.3l0.5-0.4c0.2 0.2 0.1 0.4-0.2 0.4 0.2 0.1 0.4 0.1 0.5-0.1 0.2 0.2 0.2 0.3-0.2 0.4 0.3 0.1 0.5 0.2 0.7 0.4l-0.3 0.2c0.1 0.1 0.3 0.3 0.4 0.4 0 0 0.1-0.1 0.1-0.1 0.1 0.4 0.2 0.4 0.4 0.1 0-0.3 0-0.5 0-0.8-0.1-0.1-0.2 0-0.4 0 0 0-0.1-0.1-0.1-0.2h1.6v-2.1c0.3-0.4 0.6-0.8 0.9-1.3 0.1-0.1 0.1-0.1 0.2 0 0.1 0.2 0.2 0.4 0.2 0.6 0.5 0.7 0.8 1.4 1.2 2.1 0 0.2 0.1 0.4 0.2 0.6 0.6 0.2 1.3 0.2 1.9 0-0.1-0.3-0.3-0.5-0.4-0.8-0.7-1.4-1.4-2.8-2.2-4.1 0.6-1 1.2-1.9 1.8-2.7v-0.2c0.2-0.1 0.3-0.3 0.5-0.6-0.7-0.1-1.4 0-2 0.1-0.8 1.2-1.5 2.4-2.2 3.6l-0.2-3.7h-1.6c-0.1 1.4-0.1 2.9-0.1 4.4l-0.2-2.3c-0.1 0.6-0.2 1.1-0.1 1.6-0.1-0.5-0.2-1.1-0.2-1.6 0 0.2-0.1 0.4-0.2 0.6-0.1-0.1-0.2-0.2-0.2-0.4-0.2 0.1-0.4 0.1-0.4-0.2-0.3 0.1-0.5 0.2-0.7 0.4 0.2 0.1 0.4 0 0.5-0.2l0.2 0.5 0.2-0.2c0.1 0.2 0.1 0.5-0.1 0.7 0.3 0.1 0.3 0.3 0 0.4 0.2 0.1 0.3 0.1 0.5-0.1 0.1 0.2 0.2 0.5 0.2 0.8 0.1-0.8 0.2-0.7 0.3 0.1-0.3 0-0.4 0.1-0.5 0.3-0.1-0.1-0.2-0.2-0.2-0.3-0.3 0.1-0.3 0-0.3-0.3 0.1 0.1 0.2 0 0.3 0-0.2-0.1-0.4-0.2-0.6-0.3-0.1 0-0.3 0.1-0.3 0.2-0.2-0.1-0.3-0.2-0.6-0.2 0-0.1 0.1-0.2 0.2-0.3 0.1 0.2 0.3 0.2 0.5 0.1-0.2-0.1-0.4-0.2-0.7-0.4v-0.9c0.5-0.1 0.5-0.2 0-0.2 0-0.1 0.1-0.2 0.2-0.3 0.1 0.2 0.3 0.2 0.5 0.2-0.2-0.2-0.4-0.3-0.7-0.3v-0.4c0.8-1.5 2-2.6 3.6-3.2 2.5-0.6 4.5 0 6.2 1.8z"></path><path fill="#3b7b42" d="m20.9 21.3c0.1 0.3 0.3 0.5 0.4 0.8-0.6 0.2-1.3 0.2-1.9 0-0.1-0.2-0.2-0.4-0.2-0.6h0.1c0.1 0.2 0.2 0.3 0.2 0.4 0.5 0.1 0.9 0.1 1.4 0.1 0.1-0.2 0.1-0.4 0-0.7z"></path><path fill="#269c3b" d="m20.9 22c-0.5 0-0.9 0-1.4-0.1 0-0.1-0.1-0.2-0.2-0.4 0-0.2 0-0.5-0.1-0.7l-0.1 0.1c-0.3-0.4-0.2-0.7 0.3-0.7 0.1 1.1 0.4 1.2 0.6 0.1 0.4 0.3 0.6 0.7 0.6 1.2-0.9 0.1-0.9 0.1 0 0.2 0.2 0.1 0.3 0.2 0.3 0.3z"></path><path fill="#2d853b" d="m20.5 14.3c0-0.2 0.1-0.3 0.3-0.5-0.4-0.1-0.8 0-1.1 0.2-0.4-0.2-0.6-0.1-0.6 0.3h-0.4c0 0.2 0 0.3 0 0.5-0.1 0.4-0.4 0.7-0.6 0.9-0.2 0.4-0.3 0.9-0.3 1.3-0.4-0.4-0.4-0.3-0.3 0.2 0 0.2-0.1 0.3-0.2 0.3 0.1 0.1 0.1 0.2 0 0.3l-0.3-0.4c-0.1 0.1-0.1 0.3-0.1 0.4-0.2 0.1-0.3 0-0.3-0.2 0.1 0 0.2-0.1 0.2-0.2 0.7-1.2 1.4-2.4 2.2-3.6 0.6-0.1 1.3-0.2 2-0.1-0.2 0.3-0.3 0.5-0.5 0.6z"></path><path fill="#76957a" d="m16.6 13.7l0.2 3.7c0 0.1-0.1 0.2-0.2 0.2v-3.9z"></path><path fill="#269b3b" d="m16.6 17.6c0 0.2 0.1 0.3 0.3 0.2 0-0.1 0-0.3 0.1-0.4l0.3 0.4c0.1-0.1 0.1-0.2 0-0.2 0.1-0.1 0.2-0.2 0.2-0.4-0.1-0.5-0.1-0.6 0.3-0.2 0-0.4 0.1-0.9 0.3-1.3 0.2-0.2 0.5-0.5 0.6-0.9 0-0.2 0-0.3 0-0.5h0.4c0-0.4 0.2-0.5 0.6-0.3 0.3-0.2 0.7-0.3 1.1-0.2-0.2 0.2-0.3 0.3-0.3 0.5v0.2c-0.1-0.1-0.2-0.2-0.3-0.1-0.2 0.3-0.4 0.5-0.6 0.8-0.2-0.1-0.3-0.3-0.4-0.5 0 0.3-0.1 0.5-0.2 0.7 0.3 0.4 0.2 0.7-0.2 1-0.2-0.1-0.3-0.1-0.4 0 0.2 0.4 0.3 0.9 0.3 1.4 0.5 0.6 0.9 1.2 1.2 1.9l0.1 0.3c-0.1 0.2-0.2 0.3-0.3 0.5-0.2-0.6-0.4-1.1-0.7-1.6-0.4 0-0.6-0.2-0.5-0.6h-0.3c-0.1-0.5-0.2-0.5-0.3 0-0.2 0-0.3 0-0.5 0.2-0.2 0.5-0.5 1.1-0.7 1.6-0.1 0-0.1 0-0.2 0.1 0 0.6 0 1.2 0 1.8h-1.4v-8.2h1.4c-0.1 1.3 0 2.6 0.1 3.8z"></path><path fill="#c6e1c9" d="m22.3 13.7c0.6 0.4 1 1 1.2 1.7-0.2-0.2-0.4-0.4-0.6-0.5-0.2-0.4-0.4-0.8-0.6-1.2z"></path><path fill="#c1dbc2" d="m16.7 11.1c-0.8 0.2-1.6 0.6-2.4 1v-0.3c0.8-0.4 1.6-0.6 2.4-0.7z"></path><path fill="#b1cbb3" d="m16.9 9.7v-0.5c-0.3 0-0.6 0-1 0-0.2 0.2-0.5 0.3-0.9 0.3 0-0.1 0-0.2 0.1-0.3 0.2 0.1 0.4 0.1 0.6 0-0.1-0.1-0.2-0.2-0.3-0.2l0.2-0.1c0.5 0.1 1 0.2 1.4 0.2 0.1 0.2 0 0.4-0.1 0.6z"></path><path fill="#6e6f6e" d="m26.6 25.8c-0.2 0.5-0.6 0.8-1 1 0.3-0.3 0.6-0.7 1-1z"></path><path fill="#565656" d="m25.6 26.8c-0.1 0.3-0.3 0.4-0.6 0.5 0.1-0.2 0.3-0.4 0.6-0.5z"></path><path fill="#5e5f5e" d="m10.5 26.9c0.3 0.1 0.5 0.3 0.6 0.5-0.3-0.1-0.5-0.2-0.6-0.5z"></path><path fill="#646564" d="m25 27.3c-0.2 0.3-0.6 0.5-1 0.7 0.3-0.4 0.6-0.6 1-0.7z"></path><path fill="#5b5b5b" d="m11.1 27.4c0.2 0 0.3 0.1 0.3 0.2-0.2 0-0.3 0-0.3-0.2z"></path><path fill="#a1c5a5" d="m15.8 28c-0.5-0.1-1-0.2-1.5-0.5 0.3 0 0.5 0 0.8-0.1 0 0.1 0 0.2 0 0.3 0.3 0 0.5 0.1 0.7 0.3z"></path><path fill="#646564" d="m11.8 27.8c0.5 0.3 1 0.5 1.4 0.8-0.6-0.1-1-0.3-1.4-0.8z"></path><path fill="#878a85" d="m24 28c-0.3 0.2-0.6 0.4-1 0.5 0-0.1 0-0.2 0.1-0.3 0.3-0.1 0.6-0.2 0.9-0.2z"></path><path fill="#c0e0c4" d="m18.5 28.7v-0.5c-0.5 0-1.1 0-1.6-0.1 0.5 0 1-0.1 1.5-0.2 0.3 0.1 0.4 0.2 0.3 0.5 0 0.2-0.1 0.3-0.2 0.3z"></path><path fill="#6d6e6c" d="m13.2 28.6c0.8 0.3 1.6 0.5 2.4 0.8-0.1 0-0.2 0-0.2 0-0.8-0.1-1.5-0.4-2.2-0.8z"></path><path fill="#6c6c6b" d="m23 28.5c-0.5 0.4-1.1 0.6-1.8 0.7 0.6-0.3 1.2-0.5 1.8-0.7z"></path><path fill="#5a5a5a" d="m21.2 29.2c-0.4 0.2-0.9 0.3-1.3 0.3-0.2 0-0.3 0-0.4 0 0.6-0.1 1.1-0.2 1.7-0.3z"></path><path fill="#7e7e7d" d="m15.8 29.5c0.1 0 0.2-0.1 0.3-0.1 1.1 0.1 2.2 0.2 3.3 0.2-1.2 0.2-2.4 0.2-3.6-0.1z"></path><path fill="#b7b7b7" d="m15.9 30.9c1 0.1 2 0.1 2.9 0.1-0.3 0.1-0.7 0.1-1.1 0.1-0.6 0-1.2-0.1-1.8-0.2z"></path></svg>