<?xml version="1.0" encoding="UTF-8"?>
<!DOCTYPE svg PUBLIC "-//W3C//DTD SVG 1.1//EN" "http://www.w3.org/Graphics/SVG/1.1/DTD/svg11.dtd">
<svg xmlns="http://www.w3.org/2000/svg" version="1.1" width="320px" height="320px" style="shape-rendering:geometricPrecision; text-rendering:geometricPrecision; image-rendering:optimizeQuality; fill-rule:evenodd; clip-rule:evenodd" xmlns:xlink="http://www.w3.org/1999/xlink">
<g><path style="opacity:1" fill="#fefefe" d="M -0.5,-0.5 C 106.167,-0.5 212.833,-0.5 319.5,-0.5C 319.5,106.167 319.5,212.833 319.5,319.5C 212.833,319.5 106.167,319.5 -0.5,319.5C -0.5,212.833 -0.5,106.167 -0.5,-0.5 Z"/></g>
<g><path style="opacity:1" fill="#1b1b1b" d="M 167.5,275.5 C 158.812,275.587 150.146,275.253 141.5,274.5C 94.3041,265.472 63.1374,238.139 48,192.5C 35.9131,144.891 47.7464,104.391 83.5,71C 125.014,39.2498 169.347,34.9165 216.5,58C 258.588,84.0061 278.088,121.839 275,171.5C 269.896,210.906 250.396,240.74 216.5,261C 201.214,269.373 184.88,274.207 167.5,275.5 Z"/></g>
<g><path style="opacity:1" fill="#f6f6f6" d="M 142.5,45.5 C 190.51,41.0944 228.343,58.4278 256,97.5C 273.203,125.048 278.203,154.715 271,186.5C 256.688,234.147 225.188,262.98 176.5,273C 125.987,277.825 87.1532,258.991 60,216.5C 46.1561,191.436 41.8228,164.769 47,136.5C 60.5334,86.7966 92.3667,56.4633 142.5,45.5 Z"/></g>
<g><path style="opacity:1" fill="#656665" d="M 121.5,63.5 C 118.697,65.2145 115.697,66.5479 112.5,67.5C 114.898,65.0257 117.898,63.6924 121.5,63.5 Z"/></g>
<g><path style="opacity:1" fill="#626362" d="M 198.5,63.5 C 203.753,64.793 208.419,67.1263 212.5,70.5C 207.516,68.6745 202.849,66.3411 198.5,63.5 Z"/></g>
<g><path style="opacity:1" fill="#d6d8d6" d="M 146.5,56.5 C 147.919,55.5489 149.585,55.2155 151.5,55.5C 163.088,56.2466 174.755,57.5799 186.5,59.5C 190.233,61.411 194.233,62.7444 198.5,63.5C 202.849,66.3411 207.516,68.6745 212.5,70.5C 215.704,71.3833 218.371,73.0499 220.5,75.5C 221.585,77.5869 223.251,78.9202 225.5,79.5C 229.833,84.5 234.5,89.1667 239.5,93.5C 240.048,95.3936 241.048,97.0603 242.5,98.5C 241.636,100.197 240.303,101.363 238.5,102C 245.707,103.927 246.041,106.261 239.5,109C 240.899,109.595 242.232,109.428 243.5,108.5C 244.318,111.107 244.818,113.774 245,116.5C 245.489,114.184 246.156,111.851 247,109.5C 247.915,110.328 248.581,111.328 249,112.5C 249.383,111.944 249.883,111.611 250.5,111.5C 251.833,113.5 253.167,115.5 254.5,117.5C 257.857,127.271 260.357,136.938 262,146.5C 263.042,160.623 262.209,174.623 259.5,188.5C 258.833,189.167 258.167,189.833 257.5,190.5C 256.624,190.631 255.957,190.298 255.5,189.5C 255.946,187.632 256.279,185.799 256.5,184C 255.152,182.426 254.486,180.593 254.5,178.5C 255.21,175.201 255.543,171.867 255.5,168.5C 255.5,161.833 255.5,155.167 255.5,148.5C 255.299,145.492 254.966,142.492 254.5,139.5C 254.415,137.667 253.748,136.334 252.5,135.5C 251.185,130.858 249.852,126.192 248.5,121.5C 248,121.167 247.5,120.833 247,120.5C 243.705,122.321 240.205,123.655 236.5,124.5C 234.011,124.702 231.677,124.202 229.5,123C 228.856,120.26 227.689,117.76 226,115.5C 225.329,114.748 224.496,114.414 223.5,114.5C 211.429,97.4502 195.096,86.7835 174.5,82.5C 174.234,78.4295 174.567,74.4295 175.5,70.5C 197.961,74.0739 216.294,84.9072 230.5,103C 232.568,102.983 234.234,101.983 235.5,100C 220.373,79.9314 200.373,67.7648 175.5,63.5C 175.082,62.7784 174.416,62.2784 173.5,62C 165.655,61.1777 157.989,61.3443 150.5,62.5C 149.167,62.5 147.833,62.5 146.5,62.5C 146.5,64.5 146.5,66.5 146.5,68.5C 147.833,68.5 149.167,68.5 150.5,68.5C 156.5,68.5 162.5,68.5 168.5,68.5C 168.5,71.5 168.5,74.5 168.5,77.5C 168.5,80.5 168.5,83.5 168.5,86.5C 195.897,91.8428 215.23,107.176 226.5,132.5C 229.451,133.224 232.451,133.057 235.5,132C 237.881,130.234 240.548,129.068 243.5,128.5C 251.471,150.522 251.304,172.522 243,194.5C 242.311,195.357 241.478,196.023 240.5,196.5C 235.197,193.463 229.697,190.796 224,188.5C 222.916,189.665 222.083,190.998 221.5,192.5C 226.068,196.619 231.402,199.453 237.5,201C 238.517,202.049 238.684,203.216 238,204.5C 233.78,211.069 229.113,217.403 224,223.5C 222.002,225.663 219.668,227.33 217,228.5C 212.606,225.091 209.272,220.757 207,215.5C 203.433,213.212 200.933,210.046 199.5,206C 199.862,204.775 200.362,203.609 201,202.5C 207.94,196.548 212.94,189.215 216,180.5C 218.103,175.024 219.27,169.358 219.5,163.5C 225.882,161.601 232.549,160.934 239.5,161.5C 239.975,158.918 239.308,156.918 237.5,155.5C 231.5,155.5 225.5,155.5 219.5,155.5C 216.804,130.975 204.47,113.142 182.5,102C 175.27,99.4874 167.77,97.9874 160,97.5C 156.152,97.7575 152.318,98.0908 148.5,98.5C 141.319,99.669 134.319,101.669 127.5,104.5C 127.5,105.5 127.5,106.5 127.5,107.5C 124.112,106.381 121.279,104.381 119,101.5C 118.612,99.9242 119.112,98.5909 120.5,97.5C 129.862,91.8266 139.862,88.16 150.5,86.5C 151.461,84.7354 151.795,82.7354 151.5,80.5C 147.121,80.7079 142.787,80.3745 138.5,79.5C 137.833,79.6667 137.167,79.8333 136.5,80C 137.624,80.2492 138.624,80.7492 139.5,81.5C 137.647,82.7596 135.814,82.7596 134,81.5C 133.517,82.448 133.351,83.448 133.5,84.5C 125.457,87.9369 117.957,92.2702 111,97.5C 110.333,98.5 110.333,99.5 111,100.5C 114.357,104.356 117.524,108.356 120.5,112.5C 113.511,119.285 107.844,127.118 103.5,136C 104.591,137.55 105.924,138.717 107.5,139.5C 108.209,140.404 109.209,140.737 110.5,140.5C 110.367,143.896 109.367,144.229 107.5,141.5C 107.089,142.262 106.923,143.262 107,144.5C 106.08,144.93 105.247,145.264 104.5,145.5C 105.934,146.23 107.1,147.23 108,148.5C 108.219,147.062 108.719,145.729 109.5,144.5C 110.009,147.93 110.343,151.263 110.5,154.5C 106.5,154.833 106.5,155.167 110.5,155.5C 110.64,157.124 109.973,158.29 108.5,159C 111.291,161.777 110.625,163.277 106.5,163.5C 106.768,165.099 106.434,166.432 105.5,167.5C 105.5,166.5 105.5,165.5 105.5,164.5C 105.134,163.305 104.301,162.639 103,162.5C 98.5109,162.473 94.1775,162.807 90,163.5C 88.5845,160.042 88.0845,156.375 88.5,152.5C 88.3354,149.482 88.502,146.482 89,143.5C 90.1838,139.144 91.3505,134.811 92.5,130.5C 90.857,130.52 89.5237,129.853 88.5,128.5C 77.7173,154.182 79.7173,178.682 94.5,202C 95.3295,203.465 95.4962,204.965 95,206.5C 92.0341,208.297 89.2007,210.297 86.5,212.5C 68.0816,185.055 64.5816,155.722 76,124.5C 85.6249,101.243 101.958,84.5761 125,74.5C 125.265,72.8374 124.765,71.3374 123.5,70C 121.064,69.8762 118.731,70.3762 116.5,71.5C 113.482,72.5622 110.482,73.7289 107.5,75C 105.616,76.0487 104.282,77.5487 103.5,79.5C 65.8122,111.153 54.9788,150.486 71,197.5C 88.0489,234.201 116.882,253.867 157.5,256.5C 160.025,256.497 162.359,256.163 164.5,255.5C 165.693,255.03 166.36,254.03 166.5,252.5C 166.852,250.076 165.852,248.576 163.5,248C 159.4,249.179 155.066,249.679 150.5,249.5C 146.958,249.813 143.625,249.479 140.5,248.5C 138.786,247.262 136.786,246.595 134.5,246.5C 134.649,245.448 134.483,244.448 134,243.5C 131.959,244.423 129.792,244.756 127.5,244.5C 120.137,241.982 113.47,238.148 107.5,233C 110.316,229.177 112.983,225.344 115.5,221.5C 114.722,219.853 113.556,218.52 112,217.5C 109.074,221.682 105.907,225.682 102.5,229.5C 99.0492,225.508 95.2159,221.841 91,218.5C 90.3333,217.833 90.3333,217.167 91,216.5C 95.8137,213.679 99.9804,210.179 103.5,206C 95.4127,195.501 90.4127,183.668 88.5,170.5C 92.5546,170.176 96.5546,170.509 100.5,171.5C 105.203,191.018 116.37,205.351 134,214.5C 133.632,220.379 132.132,226.046 129.5,231.5C 149.212,240.824 169.046,240.824 189,231.5C 189.494,229.866 189.66,228.199 189.5,226.5C 186.335,225.964 183.669,226.797 181.5,229C 178.899,229.92 176.232,230.587 173.5,231C 161.61,232.19 149.943,231.524 138.5,229C 137.155,225.221 137.821,221.721 140.5,218.5C 142.095,217.566 143.761,217.566 145.5,218.5C 145.611,219.117 145.944,219.617 146.5,220C 154.677,220.823 162.677,220.656 170.5,219.5C 178.618,217.344 186.284,214.011 193.5,209.5C 198.677,215.873 203.844,222.206 209,228.5C 210.559,230.217 211.392,232.217 211.5,234.5C 207.945,236.62 204.278,238.787 200.5,241C 198.564,241.813 196.564,242.313 194.5,242.5C 194.523,244.927 195.023,247.26 196,249.5C 211.931,242.143 225.431,231.809 236.5,218.5C 240.725,215.945 243.392,212.279 244.5,207.5C 245.5,207.5 246.5,207.5 247.5,207.5C 248.591,203.515 249.591,199.515 250.5,195.5C 251.467,196.806 252.801,197.473 254.5,197.5C 254.5,199.167 254.5,200.833 254.5,202.5C 253.197,202.622 251.864,202.622 250.5,202.5C 250.833,203.167 251.167,203.833 251.5,204.5C 249.875,208.08 248.541,211.746 247.5,215.5C 245.1,217.296 243.433,219.63 242.5,222.5C 240.413,223.585 239.08,225.251 238.5,227.5C 238.5,228.833 237.833,229.5 236.5,229.5C 233.167,232.167 230.167,235.167 227.5,238.5C 225.205,239.136 223.539,240.469 222.5,242.5C 218.975,243.759 215.975,245.759 213.5,248.5C 210.797,248.952 208.13,249.619 205.5,250.5C 204.873,251.417 204.539,252.417 204.5,253.5C 198.891,254.98 193.557,256.98 188.5,259.5C 183.486,260.169 178.486,261.003 173.5,262C 174.448,262.483 175.448,262.649 176.5,262.5C 175.432,263.434 174.099,263.768 172.5,263.5C 162.82,262.773 152.986,262.106 143,261.5C 141.93,261.528 141.097,261.861 140.5,262.5C 138.901,262.768 137.568,262.434 136.5,261.5C 137.239,261.631 137.906,261.464 138.5,261C 131.391,258.906 124.391,256.739 117.5,254.5C 113.334,251.916 109,249.583 104.5,247.5C 102.973,247.573 101.973,246.906 101.5,245.5C 101.027,244.094 100.027,243.427 98.5,243.5C 97.4154,241.413 95.7488,240.08 93.5,239.5C 89.1186,234.452 84.4519,229.785 79.5,225.5C 77.7376,224.738 76.7376,223.404 76.5,221.5C 76.2624,219.596 75.2624,218.262 73.5,217.5C 70.4178,211.001 67.0845,204.668 63.5,198.5C 60.692,188.989 58.5253,179.322 57,169.5C 56.5065,171.134 56.3398,172.801 56.5,174.5C 55.1667,165.5 55.1667,156.5 56.5,147.5C 58.657,137.612 61.657,127.278 65.5,116.5C 65.9925,114.181 66.9925,112.181 68.5,110.5C 70.1786,109 71.5119,107.167 72.5,105C 73.5,104.667 74.5,104.333 75.5,104C 74.5868,102.586 74.5868,101.086 75.5,99.5C 78.2889,97.3947 81.2889,95.5613 84.5,94C 83.5,93.6667 82.5,93.3333 81.5,93C 82.2524,92.3292 82.5858,91.4959 82.5,90.5C 84.8333,90.1667 86.1667,88.8333 86.5,86.5C 88.5691,83.4275 91.2358,81.0941 94.5,79.5C 96.7488,78.9202 98.4154,77.5869 99.5,75.5C 102.988,71.5832 107.321,68.9166 112.5,67.5C 115.697,66.5479 118.697,65.2145 121.5,63.5C 124.878,63.3287 127.211,62.3287 128.5,60.5C 128.842,59.6618 129.508,59.3284 130.5,59.5C 132.953,60.6451 135.287,60.3117 137.5,58.5C 141.56,58.5153 145.56,58.0153 149.5,57C 148.552,56.5172 147.552,56.3505 146.5,56.5 Z"/></g>
<g><path style="opacity:1" fill="#8bbc92" d="M 150.5,68.5 C 156.645,67.5098 162.978,67.1765 169.5,67.5C 169.813,71.0419 169.479,74.3752 168.5,77.5C 168.5,74.5 168.5,71.5 168.5,68.5C 162.5,68.5 156.5,68.5 150.5,68.5 Z"/></g>
<g><path style="opacity:1" fill="#636463" d="M 128.5,60.5 C 127.211,62.3287 124.878,63.3287 121.5,63.5C 123.509,61.9348 125.843,60.9348 128.5,60.5 Z"/></g>
<g><path style="opacity:1" fill="#707170" d="M 186.5,59.5 C 190.942,59.7315 194.942,61.0648 198.5,63.5C 194.233,62.7444 190.233,61.411 186.5,59.5 Z"/></g>
<g><path style="opacity:1" fill="#79b583" d="M 150.5,62.5 C 157.989,61.3443 165.655,61.1777 173.5,62C 174.416,62.2784 175.082,62.7784 175.5,63.5C 167.195,62.6682 158.862,62.3348 150.5,62.5 Z"/></g>
<g><path style="opacity:1" fill="#737372" d="M 137.5,58.5 C 135.287,60.3117 132.953,60.6451 130.5,59.5C 132.717,58.6314 135.05,58.298 137.5,58.5 Z"/></g>
<g><path style="opacity:1" fill="#767776" d="M 146.5,56.5 C 147.552,56.3505 148.552,56.5172 149.5,57C 145.56,58.0153 141.56,58.5153 137.5,58.5C 140.171,56.8819 143.171,56.2153 146.5,56.5 Z"/></g>
<g><path style="opacity:1" fill="#626362" d="M 151.5,55.5 C 163.541,54.8089 175.208,56.1422 186.5,59.5C 174.755,57.5799 163.088,56.2466 151.5,55.5 Z"/></g>
<g><path style="opacity:1" fill="#636462" d="M 99.5,75.5 C 98.4154,77.5869 96.7488,78.9202 94.5,79.5C 95.5846,77.4131 97.2512,76.0798 99.5,75.5 Z"/></g>
<g><path style="opacity:1" fill="#acd1b3" d="M 116.5,71.5 C 112.677,74.9157 108.343,77.5824 103.5,79.5C 104.282,77.5487 105.616,76.0487 107.5,75C 110.482,73.7289 113.482,72.5622 116.5,71.5 Z"/></g>
<g><path style="opacity:1" fill="#616261" d="M 220.5,75.5 C 222.749,76.0798 224.415,77.4131 225.5,79.5C 223.251,78.9202 221.585,77.5869 220.5,75.5 Z"/></g>
<g><path style="opacity:1" fill="#646463" d="M 225.5,79.5 C 231.167,83.1667 235.833,87.8333 239.5,93.5C 234.5,89.1667 229.833,84.5 225.5,79.5 Z"/></g>
<g><path style="opacity:1" fill="#5a5b5a" d="M 86.5,86.5 C 86.1667,88.8333 84.8333,90.1667 82.5,90.5C 83.5,88.8333 84.8333,87.5 86.5,86.5 Z"/></g>
<g><path style="opacity:1" fill="#989595" d="M 82.5,90.5 C 82.5858,91.4959 82.2524,92.3292 81.5,93C 82.5,93.3333 83.5,93.6667 84.5,94C 81.2889,95.5613 78.2889,97.3947 75.5,99.5C 77.1108,95.9485 79.4442,92.9485 82.5,90.5 Z"/></g>
<g><path style="opacity:1" fill="#b7b7b7" d="M 239.5,93.5 C 244.151,98.1295 247.818,103.463 250.5,109.5C 250.5,110.167 250.5,110.833 250.5,111.5C 249.883,111.611 249.383,111.944 249,112.5C 248.581,111.328 247.915,110.328 247,109.5C 246.156,111.851 245.489,114.184 245,116.5C 244.818,113.774 244.318,111.107 243.5,108.5C 242.232,109.428 240.899,109.595 239.5,109C 246.041,106.261 245.707,103.927 238.5,102C 240.303,101.363 241.636,100.197 242.5,98.5C 241.048,97.0603 240.048,95.3936 239.5,93.5 Z"/></g>
<g><path style="opacity:1" fill="#787878" d="M 75.5,99.5 C 74.5868,101.086 74.5868,102.586 75.5,104C 74.5,104.333 73.5,104.667 72.5,105C 71.5119,107.167 70.1786,109 68.5,110.5C 69.6571,106.024 71.9905,102.358 75.5,99.5 Z"/></g>
<g><path style="opacity:1" fill="#606360" d="M 250.5,109.5 C 252.873,111.579 254.206,114.246 254.5,117.5C 253.167,115.5 251.833,113.5 250.5,111.5C 250.5,110.833 250.5,110.167 250.5,109.5 Z"/></g>
<g><path style="opacity:1" fill="#afd2b2" d="M 223.5,114.5 C 224.496,114.414 225.329,114.748 226,115.5C 227.689,117.76 228.856,120.26 229.5,123C 231.677,124.202 234.011,124.702 236.5,124.5C 234.474,126.502 232.141,126.836 229.5,125.5C 227.756,121.678 225.756,118.011 223.5,114.5 Z"/></g>
<g><path style="opacity:1" fill="#717170" d="M 65.5,116.5 C 61.657,127.278 58.657,137.612 56.5,147.5C 57.3047,136.43 60.3047,126.097 65.5,116.5 Z"/></g>
<g><path style="opacity:1" fill="#9ccba4" d="M 252.5,135.5 C 253.748,136.334 254.415,137.667 254.5,139.5C 254.966,142.492 255.299,145.492 255.5,148.5C 254.778,148.082 254.278,147.416 254,146.5C 253.68,142.786 253.18,139.119 252.5,135.5 Z"/></g>
<g><path style="opacity:1" fill="#7b7b7b" d="M 254.5,117.5 C 261.239,130.545 264.573,144.545 264.5,159.5C 263.945,165.162 263.445,170.828 263,176.5C 262.431,180.795 261.264,184.795 259.5,188.5C 262.209,174.623 263.042,160.623 262,146.5C 260.357,136.938 257.857,127.271 254.5,117.5 Z"/></g>
<g><path style="opacity:1" fill="#6c6c6c" d="M 63.5,198.5 C 59.6667,191.045 57.3334,183.045 56.5,174.5C 56.3398,172.801 56.5065,171.134 57,169.5C 58.5253,179.322 60.692,188.989 63.5,198.5 Z"/></g>
<g><path style="opacity:1" fill="#ccd9ce" d="M 255.5,168.5 C 255.543,171.867 255.21,175.201 254.5,178.5C 254.486,180.593 255.152,182.426 256.5,184C 256.279,185.799 255.946,187.632 255.5,189.5C 255.957,190.298 256.624,190.631 257.5,190.5C 257.5,191.833 257.5,193.167 257.5,194.5C 255.857,194.48 254.524,195.147 253.5,196.5C 252.833,195.833 252.167,195.167 251.5,194.5C 250.893,194.624 250.56,194.957 250.5,195.5C 249.591,199.515 248.591,203.515 247.5,207.5C 246.5,207.5 245.5,207.5 244.5,207.5C 243.392,212.279 240.725,215.945 236.5,218.5C 241.132,211.121 245.299,203.455 249,195.5C 251.252,186.379 253.419,177.379 255.5,168.5 Z"/></g>
<g><path style="opacity:1" fill="#9d9e9e" d="M 259.5,188.5 C 259.345,193.831 257.679,198.498 254.5,202.5C 254.5,200.833 254.5,199.167 254.5,197.5C 252.801,197.473 251.467,196.806 250.5,195.5C 250.56,194.957 250.893,194.624 251.5,194.5C 252.167,195.167 252.833,195.833 253.5,196.5C 254.524,195.147 255.857,194.48 257.5,194.5C 257.5,193.167 257.5,191.833 257.5,190.5C 258.167,189.833 258.833,189.167 259.5,188.5 Z"/></g>
<g><path style="opacity:1" fill="#616361" d="M 63.5,198.5 C 67.0845,204.668 70.4178,211.001 73.5,217.5C 68.8762,211.922 65.5429,205.589 63.5,198.5 Z"/></g>
<g><path style="opacity:1" fill="#8b8c8b" d="M 254.5,202.5 C 252.926,207.32 250.593,211.653 247.5,215.5C 248.541,211.746 249.875,208.08 251.5,204.5C 251.167,203.833 250.833,203.167 250.5,202.5C 251.864,202.622 253.197,202.622 254.5,202.5 Z"/></g>
<g><path style="opacity:1" fill="#575857" d="M 73.5,217.5 C 75.2624,218.262 76.2624,219.596 76.5,221.5C 74.7376,220.738 73.7376,219.404 73.5,217.5 Z"/></g>
<g><path style="opacity:1" fill="#606160" d="M 247.5,215.5 C 246.567,218.37 244.9,220.704 242.5,222.5C 243.433,219.63 245.1,217.296 247.5,215.5 Z"/></g>
<g><path style="opacity:1" fill="#6a6b6a" d="M 242.5,222.5 C 241.92,224.749 240.587,226.415 238.5,227.5C 239.08,225.251 240.413,223.585 242.5,222.5 Z"/></g>
<g><path style="opacity:1" fill="#616261" d="M 79.5,225.5 C 84.4519,229.785 89.1186,234.452 93.5,239.5C 87.8546,235.855 83.1879,231.188 79.5,225.5 Z"/></g>
<g><path style="opacity:1" fill="#2b8a3a" d="M 150.5,62.5 C 158.862,62.3348 167.195,62.6682 175.5,63.5C 200.373,67.7648 220.373,79.9314 235.5,100C 234.234,101.983 232.568,102.983 230.5,103C 216.294,84.9072 197.961,74.0739 175.5,70.5C 174.567,74.4295 174.234,78.4295 174.5,82.5C 195.096,86.7835 211.429,97.4502 223.5,114.5C 225.756,118.011 227.756,121.678 229.5,125.5C 232.141,126.836 234.474,126.502 236.5,124.5C 240.205,123.655 243.705,122.321 247,120.5C 247.5,120.833 248,121.167 248.5,121.5C 249.852,126.192 251.185,130.858 252.5,135.5C 253.18,139.119 253.68,142.786 254,146.5C 254.278,147.416 254.778,148.082 255.5,148.5C 255.5,155.167 255.5,161.833 255.5,168.5C 253.419,177.379 251.252,186.379 249,195.5C 245.299,203.455 241.132,211.121 236.5,218.5C 225.431,231.809 211.931,242.143 196,249.5C 195.023,247.26 194.523,244.927 194.5,242.5C 196.564,242.313 198.564,241.813 200.5,241C 204.278,238.787 207.945,236.62 211.5,234.5C 211.392,232.217 210.559,230.217 209,228.5C 203.844,222.206 198.677,215.873 193.5,209.5C 186.284,214.011 178.618,217.344 170.5,219.5C 162.112,219.773 153.779,219.44 145.5,218.5C 143.761,217.566 142.095,217.566 140.5,218.5C 137.821,221.721 137.155,225.221 138.5,229C 149.943,231.524 161.61,232.19 173.5,231C 176.232,230.587 178.899,229.92 181.5,229C 183.669,226.797 186.335,225.964 189.5,226.5C 189.66,228.199 189.494,229.866 189,231.5C 169.046,240.824 149.212,240.824 129.5,231.5C 132.132,226.046 133.632,220.379 134,214.5C 116.37,205.351 105.203,191.018 100.5,171.5C 96.5546,170.509 92.5546,170.176 88.5,170.5C 90.4127,183.668 95.4127,195.501 103.5,206C 99.9804,210.179 95.8137,213.679 91,216.5C 90.3333,217.167 90.3333,217.833 91,218.5C 95.2159,221.841 99.0492,225.508 102.5,229.5C 105.907,225.682 109.074,221.682 112,217.5C 113.556,218.52 114.722,219.853 115.5,221.5C 112.983,225.344 110.316,229.177 107.5,233C 113.47,238.148 120.137,241.982 127.5,244.5C 131.403,246.898 135.736,248.231 140.5,248.5C 143.625,249.479 146.958,249.813 150.5,249.5C 154.97,250.486 159.637,250.819 164.5,250.5C 164.5,252.167 164.5,253.833 164.5,255.5C 162.359,256.163 160.025,256.497 157.5,256.5C 116.882,253.867 88.0489,234.201 71,197.5C 54.9788,150.486 65.8122,111.153 103.5,79.5C 108.343,77.5824 112.677,74.9157 116.5,71.5C 118.731,70.3762 121.064,69.8762 123.5,70C 124.765,71.3374 125.265,72.8374 125,74.5C 101.958,84.5761 85.6249,101.243 76,124.5C 64.5816,155.722 68.0816,185.055 86.5,212.5C 89.2007,210.297 92.0341,208.297 95,206.5C 95.4962,204.965 95.3295,203.465 94.5,202C 79.7173,178.682 77.7173,154.182 88.5,128.5C 89.5237,129.853 90.857,130.52 92.5,130.5C 91.3505,134.811 90.1838,139.144 89,143.5C 88.502,146.482 88.3354,149.482 88.5,152.5C 87.5166,156.298 87.1832,160.298 87.5,164.5C 93.5,164.5 99.5,164.5 105.5,164.5C 105.5,165.5 105.5,166.5 105.5,167.5C 105.872,173.554 107.872,178.888 111.5,183.5C 112.585,188.014 114.919,191.68 118.5,194.5C 119.167,195.833 120.167,196.833 121.5,197.5C 121.414,198.496 121.748,199.329 122.5,200C 127.055,202.769 131.388,205.769 135.5,209C 139.307,210.881 143.307,212.047 147.5,212.5C 155.5,215.167 163.5,215.167 171.5,212.5C 193.655,206.179 207.488,191.846 213,169.5C 213.667,162.5 213.667,155.5 213,148.5C 212.234,144.085 210.734,140.085 208.5,136.5C 206.758,130.428 203.425,125.428 198.5,121.5C 183.503,106.017 165.169,100.851 143.5,106C 128.83,111.179 118.163,120.679 111.5,134.5C 110.407,136.349 109.074,138.016 107.5,139.5C 105.924,138.717 104.591,137.55 103.5,136C 107.844,127.118 113.511,119.285 120.5,112.5C 117.524,108.356 114.357,104.356 111,100.5C 110.333,99.5 110.333,98.5 111,97.5C 117.957,92.2702 125.457,87.9369 133.5,84.5C 136.471,84.5646 139.138,83.7313 141.5,82C 144.482,81.502 147.482,81.3354 150.5,81.5C 150.5,83.1667 150.5,84.8333 150.5,86.5C 139.862,88.16 129.862,91.8266 120.5,97.5C 119.112,98.5909 118.612,99.9242 119,101.5C 121.279,104.381 124.112,106.381 127.5,107.5C 134.21,103.64 141.21,100.64 148.5,98.5C 152.318,98.0908 156.152,97.7575 160,97.5C 167.77,97.9874 175.27,99.4874 182.5,102C 204.47,113.142 216.804,130.975 219.5,155.5C 225.5,155.5 231.5,155.5 237.5,155.5C 237.5,157.167 237.5,158.833 237.5,160.5C 231.5,160.5 225.5,160.5 219.5,160.5C 219.5,161.5 219.5,162.5 219.5,163.5C 219.27,169.358 218.103,175.024 216,180.5C 212.94,189.215 207.94,196.548 201,202.5C 200.362,203.609 199.862,204.775 199.5,206C 200.933,210.046 203.433,213.212 207,215.5C 209.272,220.757 212.606,225.091 217,228.5C 219.668,227.33 222.002,225.663 224,223.5C 229.113,217.403 233.78,211.069 238,204.5C 238.684,203.216 238.517,202.049 237.5,201C 231.402,199.453 226.068,196.619 221.5,192.5C 222.083,190.998 222.916,189.665 224,188.5C 229.697,190.796 235.197,193.463 240.5,196.5C 241.478,196.023 242.311,195.357 243,194.5C 251.304,172.522 251.471,150.522 243.5,128.5C 240.548,129.068 237.881,130.234 235.5,132C 232.451,133.057 229.451,133.224 226.5,132.5C 215.23,107.176 195.897,91.8428 168.5,86.5C 168.5,83.5 168.5,80.5 168.5,77.5C 169.479,74.3752 169.813,71.0419 169.5,67.5C 162.978,67.1765 156.645,67.5098 150.5,68.5C 149.167,68.5 147.833,68.5 146.5,68.5C 146.5,66.5 146.5,64.5 146.5,62.5C 147.833,62.5 149.167,62.5 150.5,62.5 Z"/></g>
<g><path style="opacity:1" fill="#7bac83" d="M 145.5,218.5 C 153.779,219.44 162.112,219.773 170.5,219.5C 162.677,220.656 154.677,220.823 146.5,220C 145.944,219.617 145.611,219.117 145.5,218.5 Z"/></g>
<g><path style="opacity:1" fill="#beddc5" d="M 171.5,212.5 C 163.5,215.167 155.5,215.167 147.5,212.5C 155.5,211.167 163.5,211.167 171.5,212.5 Z"/></g>
<g><path style="opacity:1" fill="#6f9875" d="M 148.5,182.5 C 148.5,187.5 148.5,192.5 148.5,197.5C 143.833,197.5 139.167,197.5 134.5,197.5C 133.833,197.5 133.5,197.167 133.5,196.5C 138.167,196.5 142.833,196.5 147.5,196.5C 147.181,191.637 147.514,186.97 148.5,182.5 Z"/></g>
<g><path style="opacity:1" fill="#cccbcb" d="M 133.5,121.5 C 133.5,146.5 133.5,171.5 133.5,196.5C 133.5,197.167 133.833,197.5 134.5,197.5C 134.369,198.376 134.702,199.043 135.5,199.5C 136.451,198.674 137.451,198.508 138.5,199C 138.377,201.456 138.377,203.956 138.5,206.5C 137.194,208.931 136.194,208.597 135.5,205.5C 134.914,205.709 134.414,206.043 134,206.5C 132.933,205.057 131.766,203.724 130.5,202.5C 131.5,201.833 132.5,201.167 133.5,200.5C 131.632,199.087 129.632,197.92 127.5,197C 130.228,196.361 130.728,195.194 129,193.5C 127.867,195.211 126.367,195.711 124.5,195C 127.267,194.331 127.767,193.164 126,191.5C 124.5,192.5 123,193.5 121.5,194.5C 122.09,195.799 123.09,196.632 124.5,197C 123.552,197.483 122.552,197.649 121.5,197.5C 120.167,196.833 119.167,195.833 118.5,194.5C 120.048,194.179 120.715,193.179 120.5,191.5C 116.211,191.256 115.544,189.589 118.5,186.5C 120.329,188.156 121.663,190.156 122.5,192.5C 122.833,190.833 123.167,189.167 123.5,187.5C 123.387,185.359 122.72,183.525 121.5,182C 122.973,181.29 123.64,180.124 123.5,178.5C 121.821,178.715 120.821,178.048 120.5,176.5C 118.906,176.92 117.406,177.586 116,178.5C 114.715,178.05 113.548,177.383 112.5,176.5C 111.614,177.325 111.281,178.325 111.5,179.5C 113.39,179.297 114.89,179.963 116,181.5C 117.133,179.789 118.633,179.289 120.5,180C 117.926,182.928 115.259,183.095 112.5,180.5C 111.614,181.325 111.281,182.325 111.5,183.5C 107.872,178.888 105.872,173.554 105.5,167.5C 106.434,166.432 106.768,165.099 106.5,163.5C 110.625,163.277 111.291,161.777 108.5,159C 109.973,158.29 110.64,157.124 110.5,155.5C 106.5,155.167 106.5,154.833 110.5,154.5C 110.343,151.263 110.009,147.93 109.5,144.5C 108.719,145.729 108.219,147.062 108,148.5C 107.1,147.23 105.934,146.23 104.5,145.5C 105.247,145.264 106.08,144.93 107,144.5C 106.923,143.262 107.089,142.262 107.5,141.5C 109.367,144.229 110.367,143.896 110.5,140.5C 109.209,140.737 108.209,140.404 107.5,139.5C 109.074,138.016 110.407,136.349 111.5,134.5C 111.5,135.5 111.5,136.5 111.5,137.5C 113.783,137.608 115.783,138.441 117.5,140C 115.536,140.624 113.869,140.124 112.5,138.5C 111.614,139.325 111.281,140.325 111.5,141.5C 115.311,141.596 115.311,142.262 111.5,143.5C 111.5,146.167 111.5,148.833 111.5,151.5C 113.624,152.458 115.624,153.625 117.5,155C 115.536,155.624 113.869,155.124 112.5,153.5C 111.614,154.325 111.281,155.325 111.5,156.5C 113.39,156.297 114.89,156.963 116,158.5C 116.804,157.196 117.971,156.529 119.5,156.5C 121.13,157.421 122.797,158.255 124.5,159C 123.552,159.483 122.552,159.649 121.5,159.5C 121.354,161.942 122.187,162.609 124,161.5C 124.419,162.672 125.085,163.672 126,164.5C 126.908,162.561 128.408,161.561 130.5,161.5C 130.046,154.493 129.213,154.159 128,160.5C 127.86,157.957 127.194,155.623 126,153.5C 124.867,155.211 123.367,155.711 121.5,155C 124.167,153.667 124.167,152.333 121.5,151C 123.604,149.164 123.938,146.998 122.5,144.5C 121.833,145.167 121.167,145.833 120.5,146.5C 120.167,145.167 119.833,143.833 119.5,142.5C 118.131,144.124 116.464,144.624 114.5,144C 116.468,142.456 118.635,141.289 121,140.5C 121.284,142.886 122.284,143.552 124,142.5C 124.419,143.672 125.085,144.672 126,145.5C 127.117,144.051 127.784,142.384 128,140.5C 128.172,145.202 128.672,149.868 129.5,154.5C 129.307,150.074 129.807,145.408 131,140.5C 131.333,147.167 131.667,153.833 132,160.5C 132.169,147.327 132.669,134.327 133.5,121.5 Z"/></g>
<g><path style="opacity:1" fill="#dee4df" d="M 120.5,176.5 C 120.821,178.048 121.821,178.715 123.5,178.5C 123.64,180.124 122.973,181.29 121.5,182C 122.72,183.525 123.387,185.359 123.5,187.5C 123.167,189.167 122.833,190.833 122.5,192.5C 121.663,190.156 120.329,188.156 118.5,186.5C 115.544,189.589 116.211,191.256 120.5,191.5C 120.715,193.179 120.048,194.179 118.5,194.5C 114.919,191.68 112.585,188.014 111.5,183.5C 111.281,182.325 111.614,181.325 112.5,180.5C 115.259,183.095 117.926,182.928 120.5,180C 118.633,179.289 117.133,179.789 116,181.5C 114.89,179.963 113.39,179.297 111.5,179.5C 111.281,178.325 111.614,177.325 112.5,176.5C 113.548,177.383 114.715,178.05 116,178.5C 117.406,177.586 118.906,176.92 120.5,176.5 Z"/></g>
<g><path style="opacity:1" fill="#2e8f3f" d="M 182.5,128.5 C 176.8,136.21 171.467,144.21 166.5,152.5C 173.641,164.449 179.974,176.782 185.5,189.5C 186.291,191.691 186.291,193.691 185.5,195.5C 185.423,194.25 184.756,193.417 183.5,193C 175.527,192.174 175.527,191.674 183.5,191.5C 183.297,187.1 181.463,183.433 178,180.5C 175.603,189.856 173.77,189.522 172.5,179.5C 168.16,179.854 167.327,181.854 170,185.5C 170.333,185.167 170.667,184.833 171,184.5C 171.497,186.81 171.663,189.143 171.5,191.5C 171.167,191.5 170.833,191.5 170.5,191.5C 167.55,184.939 164.05,178.606 160,172.5C 159.749,170.567 159.249,168.734 158.5,167C 157.668,166.312 157.002,166.479 156.5,167.5C 154.057,171.411 151.39,175.078 148.5,178.5C 150.57,173.791 152.737,169.125 155,164.5C 156.11,162.963 157.61,162.297 159.5,162.5C 160.167,158.5 160.833,158.5 161.5,162.5C 162.5,162.5 163.5,162.5 164.5,162.5C 163.79,165.86 165.124,167.693 168.5,168C 171.595,172.309 173.761,177.142 175,182.5C 175.745,180.797 176.579,179.13 177.5,177.5C 177.333,176.833 177.167,176.167 177,175.5C 174.29,169.139 170.79,163.306 166.5,158C 166.114,153.609 165.114,149.442 163.5,145.5C 164.533,144.548 165.7,144.548 167,145.5C 171.095,143.383 171.595,140.55 168.5,137C 169.861,135.073 170.694,132.906 171,130.5C 171.632,132.531 172.799,134.198 174.5,135.5C 175.962,132.87 177.629,130.37 179.5,128C 180.577,127.53 181.577,127.697 182.5,128.5 Z"/></g>
<g><path style="opacity:1" fill="#e1e2e1" d="M 120.5,176.5 C 118.359,173.283 115.859,172.95 113,175.5C 112.5,175.167 112,174.833 111.5,174.5C 111.5,171.833 111.5,169.167 111.5,166.5C 112.376,165.749 113.376,165.249 114.5,165C 113.09,164.632 112.09,163.799 111.5,162.5C 113.003,162.165 114.336,162.165 115.5,162.5C 114.68,160.889 113.346,160.222 111.5,160.5C 111.281,159.325 111.614,158.325 112.5,157.5C 114.833,160.167 117.167,160.167 119.5,157.5C 120.386,158.325 120.719,159.325 120.5,160.5C 117.834,160.066 116.667,161.066 117,163.5C 119.178,160.532 120.344,160.865 120.5,164.5C 116.464,164.572 115.63,166.239 118,169.5C 118.219,168.062 118.719,166.729 119.5,165.5C 119.833,165.833 120.167,166.167 120.5,166.5C 120.167,168.5 119.833,170.5 119.5,172.5C 119.833,172.833 120.167,173.167 120.5,173.5C 121.167,171.5 121.833,169.5 122.5,167.5C 123.281,168.729 123.781,170.062 124,171.5C 125.495,169.89 125.661,168.224 124.5,166.5C 125.5,165.167 126.5,165.167 127.5,166.5C 126.123,169.577 126.29,172.577 128,175.5C 128.173,171.459 128.673,167.459 129.5,163.5C 129.833,163.833 130.167,164.167 130.5,164.5C 130.34,170.046 130.34,175.712 130.5,181.5C 126.689,181.596 126.689,182.262 130.5,183.5C 130.645,186.41 130.312,189.077 129.5,191.5C 128.686,189.234 128.186,186.9 128,184.5C 126.334,183.66 126.167,184.16 127.5,186C 126.269,187.967 125.269,187.801 124.5,185.5C 125.052,183.997 125.052,182.331 124.5,180.5C 125.552,180.649 126.552,180.483 127.5,180C 125.188,178.732 122.854,177.565 120.5,176.5 Z"/></g>
<g><path style="opacity:1" fill="#9bc9a1" d="M 88.5,152.5 C 88.0845,156.375 88.5845,160.042 90,163.5C 94.1775,162.807 98.5109,162.473 103,162.5C 104.301,162.639 105.134,163.305 105.5,164.5C 99.5,164.5 93.5,164.5 87.5,164.5C 87.1832,160.298 87.5166,156.298 88.5,152.5 Z"/></g>
<g><path style="opacity:1" fill="#80b788" d="M 237.5,155.5 C 239.308,156.918 239.975,158.918 239.5,161.5C 232.549,160.934 225.882,161.601 219.5,163.5C 219.5,162.5 219.5,161.5 219.5,160.5C 225.5,160.5 231.5,160.5 237.5,160.5C 237.5,158.833 237.5,157.167 237.5,155.5 Z"/></g>
<g><path style="opacity:1" fill="#166722" d="M 133.5,121.5 C 138.167,121.5 142.833,121.5 147.5,121.5C 147.5,133.167 147.5,144.833 147.5,156.5C 146.505,145.346 146.172,134.012 146.5,122.5C 142.5,122.5 138.5,122.5 134.5,122.5C 134.5,146.833 134.5,171.167 134.5,195.5C 138.5,195.5 142.5,195.5 146.5,195.5C 146.334,190.156 146.501,184.823 147,179.5C 147.383,178.944 147.883,178.611 148.5,178.5C 148.5,179.833 148.5,181.167 148.5,182.5C 147.514,186.97 147.181,191.637 147.5,196.5C 142.833,196.5 138.167,196.5 133.5,196.5C 133.5,171.5 133.5,146.5 133.5,121.5 Z"/></g>
<g><path style="opacity:1" fill="#d8d9d7" d="M 198.5,121.5 C 200.3,125.049 201.967,128.715 203.5,132.5C 205.461,133.578 207.128,134.911 208.5,136.5C 210.734,140.085 212.234,144.085 213,148.5C 213.667,155.5 213.667,162.5 213,169.5C 207.488,191.846 193.655,206.179 171.5,212.5C 163.5,211.167 155.5,211.167 147.5,212.5C 143.307,212.047 139.307,210.881 135.5,209C 131.388,205.769 127.055,202.769 122.5,200C 121.748,199.329 121.414,198.496 121.5,197.5C 122.552,197.649 123.552,197.483 124.5,197C 123.09,196.632 122.09,195.799 121.5,194.5C 123,193.5 124.5,192.5 126,191.5C 127.767,193.164 127.267,194.331 124.5,195C 126.367,195.711 127.867,195.211 129,193.5C 130.728,195.194 130.228,196.361 127.5,197C 129.632,197.92 131.632,199.087 133.5,200.5C 132.5,201.167 131.5,201.833 130.5,202.5C 131.766,203.724 132.933,205.057 134,206.5C 134.414,206.043 134.914,205.709 135.5,205.5C 136.194,208.597 137.194,208.931 138.5,206.5C 138.377,203.956 138.377,201.456 138.5,199C 137.451,198.508 136.451,198.674 135.5,199.5C 134.702,199.043 134.369,198.376 134.5,197.5C 139.167,197.5 143.833,197.5 148.5,197.5C 148.5,192.5 148.5,187.5 148.5,182.5C 148.5,181.167 148.5,179.833 148.5,178.5C 151.39,175.078 154.057,171.411 156.5,167.5C 157.002,166.479 157.668,166.312 158.5,167C 159.249,168.734 159.749,170.567 160,172.5C 164.05,178.606 167.55,184.939 170.5,191.5C 170.877,193.258 171.544,194.925 172.5,196.5C 178.167,197.833 183.833,197.833 189.5,196.5C 188.392,193.941 187.059,191.608 185.5,189.5C 179.974,176.782 173.641,164.449 166.5,152.5C 171.467,144.21 176.8,136.21 182.5,128.5C 182.5,128.167 182.5,127.833 182.5,127.5C 183.97,125.849 185.303,124.015 186.5,122C 180.472,121.17 174.472,121.336 168.5,122.5C 162.155,133.194 155.822,143.861 149.5,154.5C 148.833,143.5 148.167,132.5 147.5,121.5C 142.833,121.5 138.167,121.5 133.5,121.5C 132.669,134.327 132.169,147.327 132,160.5C 131.667,153.833 131.333,147.167 131,140.5C 129.807,145.408 129.307,150.074 129.5,154.5C 128.672,149.868 128.172,145.202 128,140.5C 127.784,142.384 127.117,144.051 126,145.5C 125.085,144.672 124.419,143.672 124,142.5C 122.284,143.552 121.284,142.886 121,140.5C 118.635,141.289 116.468,142.456 114.5,144C 116.464,144.624 118.131,144.124 119.5,142.5C 119.833,143.833 120.167,145.167 120.5,146.5C 121.167,145.833 121.833,145.167 122.5,144.5C 123.938,146.998 123.604,149.164 121.5,151C 124.167,152.333 124.167,153.667 121.5,155C 123.367,155.711 124.867,155.211 126,153.5C 127.194,155.623 127.86,157.957 128,160.5C 129.213,154.159 130.046,154.493 130.5,161.5C 128.408,161.561 126.908,162.561 126,164.5C 125.085,163.672 124.419,162.672 124,161.5C 122.187,162.609 121.354,161.942 121.5,159.5C 122.552,159.649 123.552,159.483 124.5,159C 122.797,158.255 121.13,157.421 119.5,156.5C 117.971,156.529 116.804,157.196 116,158.5C 114.89,156.963 113.39,156.297 111.5,156.5C 111.281,155.325 111.614,154.325 112.5,153.5C 113.869,155.124 115.536,155.624 117.5,155C 115.624,153.625 113.624,152.458 111.5,151.5C 111.5,148.833 111.5,146.167 111.5,143.5C 115.311,142.262 115.311,141.596 111.5,141.5C 111.281,140.325 111.614,139.325 112.5,138.5C 113.869,140.124 115.536,140.624 117.5,140C 115.783,138.441 113.783,137.608 111.5,137.5C 111.5,136.5 111.5,135.5 111.5,134.5C 118.163,120.679 128.83,111.179 143.5,106C 165.169,100.851 183.503,106.017 198.5,121.5 Z"/></g>
<g><path style="opacity:1" fill="#3b7b42" d="M 185.5,189.5 C 187.059,191.608 188.392,193.941 189.5,196.5C 183.833,197.833 178.167,197.833 172.5,196.5C 171.544,194.925 170.877,193.258 170.5,191.5C 170.833,191.5 171.167,191.5 171.5,191.5C 172.249,192.531 172.915,193.698 173.5,195C 177.486,195.499 181.486,195.666 185.5,195.5C 186.291,193.691 186.291,191.691 185.5,189.5 Z"/></g>
<g><path style="opacity:1" fill="#269c3b" d="M 185.5,195.5 C 181.486,195.666 177.486,195.499 173.5,195C 172.915,193.698 172.249,192.531 171.5,191.5C 171.663,189.143 171.497,186.81 171,184.5C 170.667,184.833 170.333,185.167 170,185.5C 167.327,181.854 168.16,179.854 172.5,179.5C 173.77,189.522 175.603,189.856 178,180.5C 181.463,183.433 183.297,187.1 183.5,191.5C 175.527,191.674 175.527,192.174 183.5,193C 184.756,193.417 185.423,194.25 185.5,195.5 Z"/></g>
<g><path style="opacity:1" fill="#2d853b" d="M 182.5,127.5 C 182.227,125.549 182.893,124.049 184.5,123C 181.066,122.109 177.899,122.609 175,124.5C 171.476,122.611 169.643,123.611 169.5,127.5C 168.5,127.5 167.5,127.5 166.5,127.5C 166.657,128.873 166.49,130.207 166,131.5C 164.906,134.692 163.073,137.358 160.5,139.5C 159.345,143.427 158.512,147.427 158,151.5C 155.091,147.582 154.258,148.082 155.5,153C 155.241,154.261 154.574,155.261 153.5,156C 154.451,156.718 154.617,157.551 154,158.5C 153,157.167 152,155.833 151,154.5C 150.51,155.793 150.343,157.127 150.5,158.5C 148.821,158.715 147.821,158.048 147.5,156.5C 148.833,156.5 149.5,155.833 149.5,154.5C 155.822,143.861 162.155,133.194 168.5,122.5C 174.472,121.336 180.472,121.17 186.5,122C 185.303,124.015 183.97,125.849 182.5,127.5 Z"/></g>
<g><path style="opacity:1" fill="#76957a" d="M 147.5,121.5 C 148.167,132.5 148.833,143.5 149.5,154.5C 149.5,155.833 148.833,156.5 147.5,156.5C 147.5,144.833 147.5,133.167 147.5,121.5 Z"/></g>
<g><path style="opacity:1" fill="#269b3b" d="M 147.5,156.5 C 147.821,158.048 148.821,158.715 150.5,158.5C 150.343,157.127 150.51,155.793 151,154.5C 152,155.833 153,157.167 154,158.5C 154.617,157.551 154.451,156.718 153.5,156C 154.574,155.261 155.241,154.261 155.5,153C 154.258,148.082 155.091,147.582 158,151.5C 158.512,147.427 159.345,143.427 160.5,139.5C 163.073,137.358 164.906,134.692 166,131.5C 166.49,130.207 166.657,128.873 166.5,127.5C 167.5,127.5 168.5,127.5 169.5,127.5C 169.643,123.611 171.476,122.611 175,124.5C 177.899,122.609 181.066,122.109 184.5,123C 182.893,124.049 182.227,125.549 182.5,127.5C 182.5,127.833 182.5,128.167 182.5,128.5C 181.577,127.697 180.577,127.53 179.5,128C 177.629,130.37 175.962,132.87 174.5,135.5C 172.799,134.198 171.632,132.531 171,130.5C 170.694,132.906 169.861,135.073 168.5,137C 171.595,140.55 171.095,143.383 167,145.5C 165.7,144.548 164.533,144.548 163.5,145.5C 165.114,149.442 166.114,153.609 166.5,158C 170.79,163.306 174.29,169.139 177,175.5C 177.167,176.167 177.333,176.833 177.5,177.5C 176.579,179.13 175.745,180.797 175,182.5C 173.761,177.142 171.595,172.309 168.5,168C 165.124,167.693 163.79,165.86 164.5,162.5C 163.5,162.5 162.5,162.5 161.5,162.5C 160.833,158.5 160.167,158.5 159.5,162.5C 157.61,162.297 156.11,162.963 155,164.5C 152.737,169.125 150.57,173.791 148.5,178.5C 147.883,178.611 147.383,178.944 147,179.5C 146.501,184.823 146.334,190.156 146.5,195.5C 142.5,195.5 138.5,195.5 134.5,195.5C 134.5,171.167 134.5,146.833 134.5,122.5C 138.5,122.5 142.5,122.5 146.5,122.5C 146.172,134.012 146.505,145.346 147.5,156.5 Z"/></g>
<g><path style="opacity:1" fill="#c6e1c9" d="M 198.5,121.5 C 203.425,125.428 206.758,130.428 208.5,136.5C 207.128,134.911 205.461,133.578 203.5,132.5C 201.967,128.715 200.3,125.049 198.5,121.5 Z"/></g>
<g><path style="opacity:1" fill="#c1dbc2" d="M 148.5,98.5 C 141.21,100.64 134.21,103.64 127.5,107.5C 127.5,106.5 127.5,105.5 127.5,104.5C 134.319,101.669 141.319,99.669 148.5,98.5 Z"/></g>
<g><path style="opacity:1" fill="#b1cbb3" d="M 150.5,86.5 C 150.5,84.8333 150.5,83.1667 150.5,81.5C 147.482,81.3354 144.482,81.502 141.5,82C 139.138,83.7313 136.471,84.5646 133.5,84.5C 133.351,83.448 133.517,82.448 134,81.5C 135.814,82.7596 137.647,82.7596 139.5,81.5C 138.624,80.7492 137.624,80.2492 136.5,80C 137.167,79.8333 137.833,79.6667 138.5,79.5C 142.787,80.3745 147.121,80.7079 151.5,80.5C 151.795,82.7354 151.461,84.7354 150.5,86.5 Z"/></g>
<g><path style="opacity:1" fill="#6e6f6e" d="M 236.5,229.5 C 234.5,233.5 231.5,236.5 227.5,238.5C 230.167,235.167 233.167,232.167 236.5,229.5 Z"/></g>
<g><path style="opacity:1" fill="#565656" d="M 227.5,238.5 C 226.421,240.543 224.754,241.876 222.5,242.5C 223.539,240.469 225.205,239.136 227.5,238.5 Z"/></g>
<g><path style="opacity:1" fill="#5e5f5e" d="M 93.5,239.5 C 95.7488,240.08 97.4154,241.413 98.5,243.5C 96.2512,242.92 94.5846,241.587 93.5,239.5 Z"/></g>
<g><path style="opacity:1" fill="#646564" d="M 222.5,242.5 C 220.049,245.277 217.049,247.277 213.5,248.5C 215.975,245.759 218.975,243.759 222.5,242.5 Z"/></g>
<g><path style="opacity:1" fill="#5b5b5b" d="M 98.5,243.5 C 100.027,243.427 101.027,244.094 101.5,245.5C 99.9731,245.573 98.9731,244.906 98.5,243.5 Z"/></g>
<g><path style="opacity:1" fill="#a1c5a5" d="M 140.5,248.5 C 135.736,248.231 131.403,246.898 127.5,244.5C 129.792,244.756 131.959,244.423 134,243.5C 134.483,244.448 134.649,245.448 134.5,246.5C 136.786,246.595 138.786,247.262 140.5,248.5 Z"/></g>
<g><path style="opacity:1" fill="#646564" d="M 104.5,247.5 C 109,249.583 113.334,251.916 117.5,254.5C 112.404,253.454 108.071,251.121 104.5,247.5 Z"/></g>
<g><path style="opacity:1" fill="#878a85" d="M 213.5,248.5 C 210.992,250.924 207.992,252.59 204.5,253.5C 204.539,252.417 204.873,251.417 205.5,250.5C 208.13,249.619 210.797,248.952 213.5,248.5 Z"/></g>
<g><path style="opacity:1" fill="#c0e0c4" d="M 164.5,255.5 C 164.5,253.833 164.5,252.167 164.5,250.5C 159.637,250.819 154.97,250.486 150.5,249.5C 155.066,249.679 159.4,249.179 163.5,248C 165.852,248.576 166.852,250.076 166.5,252.5C 166.36,254.03 165.693,255.03 164.5,255.5 Z"/></g>
<g><path style="opacity:1" fill="#6d6e6c" d="M 117.5,254.5 C 124.391,256.739 131.391,258.906 138.5,261C 137.906,261.464 137.239,261.631 136.5,261.5C 129.575,260.527 123.242,258.194 117.5,254.5 Z"/></g>
<g><path style="opacity:1" fill="#6c6c6b" d="M 204.5,253.5 C 199.647,256.585 194.314,258.585 188.5,259.5C 193.557,256.98 198.891,254.98 204.5,253.5 Z"/></g>
<g><path style="opacity:1" fill="#5a5a5a" d="M 188.5,259.5 C 184.761,261.102 180.761,262.102 176.5,262.5C 175.448,262.649 174.448,262.483 173.5,262C 178.486,261.003 183.486,260.169 188.5,259.5 Z"/></g>
<g><path style="opacity:1" fill="#7e7e7d" d="M 140.5,262.5 C 141.097,261.861 141.93,261.528 143,261.5C 152.986,262.106 162.82,262.773 172.5,263.5C 161.768,265.05 151.101,264.716 140.5,262.5 Z"/></g>
<g><path style="opacity:1" fill="#b7b7b7" d="M 141.5,274.5 C 150.146,275.253 158.812,275.587 167.5,275.5C 164.351,276.165 161.018,276.498 157.5,276.5C 151.923,276.632 146.59,275.965 141.5,274.5 Z"/></g>
</svg>
