<?xml version="1.0"?><svg xmlns="http://www.w3.org/2000/svg" width="36" height="36" shape-rendering="geometricPrecision" text-rendering="geometricPrecision" image-rendering="optimizeQuality" fill-rule="evenodd" clip-rule="evenodd" viewBox="0 0 36 36"><path fill="#262627" d="m16.6 0.6c0.8-0.1 1.7-0.1 2.6 0-0.9 0-1.8 0-2.6 0z" opacity=".008"></path><path fill="#383839" d="m15.9 0.7c0.2-0.1 0.4-0.1 0.6-0.1-0.2 0.1-0.4 0.1-0.6 0.1z" opacity=".008"></path><path fill="#404041" d="m19.4 0.7c0.1-0.1 0.3-0.1 0.5-0.1-0.2 0.1-0.3 0.1-0.5 0.1z" opacity=".008"></path><path fill="#29292a" d="m15.4 0.7c0.2 0 0.3-0.1 0.5 0-0.2 0-0.3 0-0.5 0z" opacity=".008"></path><path fill="#272728" d="m20 0.7c0.2 0 0.3-0.1 0.5 0-0.2 0-0.3 0-0.5 0z" opacity=".008"></path><path fill="#404041" d="m15.4 0.8c-0.2 0-0.3 0-0.5 0 0.2-0.1 0.3-0.1 0.5 0z" opacity=".008"></path><path fill="#555556" d="m20.6 0.8c0.1-0.1 0.2-0.1 0.3 0-0.1 0-0.2 0-0.3 0z" opacity=".004"></path><path fill="#353536" d="m14.5 0.9c0.1-0.1 0.2-0.1 0.4-0.1-0.1 0.1-0.3 0.1-0.4 0.1z" opacity=".008"></path><path fill="#35373b" d="m17 0.7c-0.2 0.1-0.3 0.1-0.5 0.1 0.4 0.1 0.4 0.1 0 0.2 0.2 0.1 0.5 0.1 0.7 0.1l-0.6 0.1c0.7 0 1.5 0 2.3 0.1-3.3-0.2-6.3 0.5-9.2 2 0 0-0.1 0-0.1-0.1l-0.1 0.1c0-0.1-0.1-0.2-0.2-0.3 1.1-0.7 2.2-1.2 3.3-1.6 0.3 0 0.5 0 0.7-0.2 0.2 0 0.3 0 0.1-0.1 0.4 0.1 0.8 0 1.1-0.2 0.3 0 0.6 0 0.9-0.1 0.5 0 1-0.1 1.6-0.1z"></path><path fill="#555556" d="m21.3 0.9c-0.1 0-0.2 0-0.3-0.1 0.1 0 0.2 0 0.3 0.1z" opacity=".004"></path><path fill="#2e2e2f" d="m14.5 0.9v0c-0.4 0-0.4 0 0 0z m6.8 0v0c0.4 0 0.4 0 0 0z" opacity=".008"></path><path fill="#323233" d="m21.7 1c0-0.1 0.1-0.1 0.2 0-0.1 0-0.1 0-0.2 0z" opacity=".008"></path><path fill="#49494a" d="m22.3 1.2c0-0.1 0.1-0.1 0.2-0.1-0.1 0.1-0.2 0.1-0.2 0.1z" opacity=".008"></path><path fill="#323233" d="m13.3 1.2c0 0-0.1 0-0.2 0 0.1-0.1 0.2 0 0.2 0z m9.2 0c0.1 0 0.2-0.1 0.2 0 0 0-0.1 0-0.2 0z" opacity=".008"></path><path fill="#3a3a3b" d="m12.9 1.3c0-0.1 0.1-0.1 0.1 0 0 0 0 0-0.1 0z" opacity=".008"></path><path fill="#1c1d1d" d="m22.8 1.3c0-0.1 0.1-0.1 0.2 0-0.1 0-0.1 0-0.2 0z m-10.1 0.1c0-0.1 0.1-0.1 0.1-0.1 0 0.1-0.1 0.1-0.1 0.1z" opacity=".008"></path><path fill="#323233" d="m23 1.4c0.1-0.1 0.2-0.1 0.2-0.1 0 0.1-0.1 0.1-0.2 0.1z" opacity=".008"></path><path fill="#1c1d1d" d="m12.6 1.4c0 0.1-0.1 0-0.1 0 0 0 0.1 0 0.1 0z" opacity=".008"></path><path fill="#5a5a5b" d="m23.3 1.4c0 0 0.1 0 0.1 0 0 0 0 0.1-0.1 0z" opacity=".004"></path><path fill="#1c1d1d" d="m23.7 1.6c0-0.1 0-0.1 0.1-0.1 0 0.1-0.1 0.1-0.1 0.1z m0.2 0.1c0-0.1 0-0.1 0.1-0.1 0 0-0.1 0.1-0.1 0.1z" opacity=".008"></path><path fill="#5a5a5b" d="m24.2 1.7c0 0-0.1 0-0.1 0 0-0.1 0.1 0 0.1 0z" opacity=".004"></path><path fill="#1c1d1d" d="m24.2 1.8v-0.1c0.2 0 0.2 0.1 0 0.1z" opacity=".008"></path><path fill="#3a3a3b" d="m11.3 1.9c0-0.1 0.1-0.1 0.1-0.1 0 0.1-0.1 0.1-0.1 0.1z" opacity=".008"></path><path fill="#1c1d1d" d="m24.6 1.9c0 0 0-0.1 0.1 0 0 0-0.1 0-0.1 0z" opacity=".008"></path><path fill="#5a5a5b" d="m24.8 2c0-0.1 0.1-0.1 0.1 0 0 0-0.1 0-0.1 0z" opacity=".004"></path><path fill="#2b2d31" d="m17 0.7c1.4-0.1 2.9 0 4.3 0.2 0.1 0.1 0.3 0.1 0.4 0.1 0.2 0.1 0.3 0.2 0.6 0.2 0 0 0.1 0 0.2 0 0.1 0.1 0.2 0.1 0.3 0.1 0.1 0.1 0.1 0.1 0.2 0.1 0.2 0.1 0.4 0.2 0.7 0.2 0 0 0.1 0.1 0.2 0.1 0.1 0.1 0.2 0.1 0.3 0.1 0.1 0.1 0.2 0.1 0.4 0.1 0.1 0.1 0.3 0.2 0.5 0.2 0.1 0.1 0.2 0.2 0.3 0.2 0 0 0.1 0.1 0.2 0.1 0 0 0 0 0.1 0 0 0.1 0.1 0.1 0.1 0.1 0.1 0.1 0.1 0.1 0.2 0.1 0.2 0.1 0.4 0.3 0.6 0.3 0.1 0.1 0.2 0.2 0.4 0.2 0.3 0.3 0.7 0.5 1 0.7v0.1c-0.1-0.1-0.3-0.1-0.5 0 0 0.1-0.1 0.2 0 0.3-2.6-1.7-5.5-2.7-8.6-2.9-0.8-0.1-1.6-0.1-2.3-0.1l0.6-0.1c-0.2 0-0.5 0-0.7-0.1 0.4-0.1 0.4-0.1 0-0.2 0.2 0 0.3 0 0.5-0.1z"></path><path fill="#1c1d1d" d="m25.1 2.1c0 0 0 0 0.1 0 0 0-0.1 0.1-0.1 0z m0.2 0c0.1 0.1 0.1 0.1 0 0z m0.1 0.1c0.1 0.1 0.1 0.1 0 0z m0.2 0.1c0.1 0 0.1 0 0 0z m-15.5 0.1c0.1 0 0.1 0 0 0z m15.6 0c0.1 0 0.1 0 0 0z m-15.8 0c0.1 0.1 0.1 0.1 0 0z m15.9 0c0.1 0.1 0.1 0.1 0 0z m0.2 0.1c0.1 0 0.1 0 0 0z m0.1 0.1c0.1 0 0.1 0 0 0z m0.5 0.2c0.1 0.1 0.1 0.1 0 0z m0.2 0.1c0 0.1 0 0.1 0 0z" opacity=".008"></path><path fill="#030304" d="m25.6 4.9c3.4 2 5.7 4.8 7 8.5 0.6 1.8 0.8 3.7 0.8 5.7-0.1 1-0.3 1.9-0.5 2.9-0.7 2.3-1.8 4.5-3.4 6.3-2.6 2.8-5.8 4.5-9.6 5-0.8 0-1.5 0.1-2.2 0.1h-0.7c-1.1-0.1-2.1-0.3-3.2-0.6-5.4-1.7-8.9-5.2-10.6-10.6-1.4-5.3-0.4-10 3.1-14.1 0.5-0.7 1.2-1.3 1.8-1.8 0.1 0 0.2 0.1 0.2 0 3.9-3 8.3-3.9 13.1-2.9 1.4 0.3 2.8 0.9 4.1 1.6 0-0.1 0.1-0.1 0.1-0.1z"></path><path fill="#1c1d1d" d="m27 3.1c0.1 0 0.1 0 0 0z" opacity=".008"></path><path fill="#3f3e41" d="m9.3 3c0.1 0.1 0.2 0.2 0.2 0.3l0.1-0.1c0 0.1 0.1 0.1 0.1 0.1-1.7 1-3.2 2.3-4.5 3.8-0.1-0.1-0.1-0.1-0.2-0.1-0.2 0.1-0.4 0.2-0.7 0.3 0.3-0.5 0.7-0.9 1.1-1.3 0 0 0.1-0.1 0.1-0.1 0.1 0 0.1-0.1 0.1-0.1 0 0 0.1 0 0.1-0.1 0 0 0 0 0 0 0.1 0 0.1-0.1 0.1-0.1 0 0 0.1 0 0.1-0.1 0.7-0.7 1.5-1.3 2.4-1.9 0.3-0.3 0.7-0.4 1-0.6z" opacity=".998"></path><path fill="#1c1d1d" d="m27.1 3.1c0.1 0.1 0.1 0.1 0 0z" opacity=".008"></path><path fill="#7b7c7c" d="m8.3 3.4c0.1 0.1 0.1 0.1 0 0z" opacity=".004"></path><path fill="#1c1d1d" d="m8.3 3.5v0.1c-0.1-0.1-0.1-0.1 0-0.1z" opacity=".008"></path><path fill="#7b7c7c" d="m8.1 3.6c0 0 0 0 0 0z" opacity=".004"></path><path fill="#1c1d1d" d="m28 3.8c0.1 0 0.1 0 0 0z m0.2 0c0.1 0.1 0.1 0.1 0 0z" opacity=".008"></path><path fill="#7b7c7c" d="m7.3 4.1c0.1 0.1 0.1 0.1 0 0z" opacity=".004"></path><path fill="#1c1d1d" d="m28.6 4.2c0.1 0 0.1 0 0 0z" opacity=".008"></path><path fill="#7b7c7c" d="m28.7 4.3c0.1 0 0.1 0 0 0z m-21.8 0.1c0.1 0 0.1 0 0 0z" opacity=".004"></path><path fill="#1c1d1d" d="m29.3 4.7c0.1 0.1 0.1 0.1 0 0z" opacity=".008"></path><path fill="#7b7c7c" d="m29.5 4.9c-0.1-0.1-0.1-0.1 0 0z m0 0c0.1 0 0.1 0 0 0z m-23.6 0.4c0.1 0.1 0.1 0.1 0 0z m0 0.1v0.1c-0.1 0-0.1 0-0.1 0.1 0 0-0.1 0-0.1 0.1 0 0 0 0 0 0-0.1 0-0.1 0.1-0.1 0.1-0.1 0-0.1 0-0.1 0.1 0 0-0.1 0-0.1-0.1 0.1-0.1 0.3-0.3 0.5-0.4z m-0.5 0.6c-0.1-0.1-0.1-0.1 0 0z m-0.7 0.6c0.1 0 0.1 0 0 0z" opacity=".004"></path><path fill="#1c1d1d" d="m31.7 7.3c0-0.1 0-0.1 0 0z m-27.6 0c0.1 0 0.1 0 0 0z m27.6 0c0.1 0 0.1 0 0 0z m0.5 0.5c-0.1-0.1-0.1-0.1 0 0z m0 0c0.1 0.1 0.1 0.1 0 0z" opacity=".008"></path><path fill="#3a3a3b" d="m3.4 8.5h-0.1c0.1-0.2 0.1-0.2 0.1 0z" opacity=".008"></path><path fill="#1c1d1d" d="m3.3 8.5c0 0 0 0 0 0z" opacity=".008"></path><path fill="#f9f9fa" d="m18.9 1.3c3.1 0.2 6 1.2 8.6 2.9 5.2 3.8 7.6 8.9 7.2 15.5-0.1-0.2-0.1-0.3-0.1-0.5l-0.1 0.4c-0.5-1.4-0.9-2.9-1-4.4l-0.2-1.2c-0.2-0.2-0.3-0.5-0.4-0.7-0.1 0-0.2 0-0.3 0.1-1.3-3.7-3.6-6.5-7-8.5-4.4-2.5-8.9-2.8-13.6-1-1.4 0.6-2.7 1.4-3.9 2.4-0.6 0.5-1.3 1.1-1.8 1.8-3.5 4.1-4.5 8.8-3.1 14.1 1.7 5.4 5.2 8.9 10.6 10.6-0.2 0.1-0.4 0.2-0.6 0.1-0.9-0.2-1.9-0.4-2.9-0.6-0.2 0-0.5 0.1-0.7 0.1-4.9-3-7.7-7.4-8.3-13.2-0.2-2.7 0.2-5.3 1.2-7.8 0.7-1.6 1.6-3 2.7-4.3 1.3-1.5 2.8-2.8 4.5-3.8 2.9-1.5 5.9-2.2 9.2-2z"></path><path fill="#5b5d6a" d="m27 8.9l-0.3 0.3c-0.1-0.2-0.2-0.3-0.3-0.5 0.3-0.3 0.5-0.2 0.6 0.2z"></path><path fill="#646977" d="m10.4 9c0.1 0.1 0.2 0.3 0.3 0.4 0 0 0 0.1 0 0.1-0.6-0.2-1.2-0.5-1.7-0.8 0-0.1 0.1-0.2 0.3-0.3 0.4 0.2 0.7 0.4 1.1 0.6z"></path><path fill="#52535d" d="m24 7.5c0.4 0.3 0.5 0.6 0.2 1-0.6 0.3-1 0.2-1.3-0.3-0.1-0.2-0.1-0.4-0.1-0.6 0.3 0 0.5 0.1 0.5 0.5 0.2 0.2 0.4 0.2 0.6 0-0.1-0.1-0.1-0.2-0.2-0.3 0.1-0.1 0.2-0.2 0.3-0.3z"></path><path fill="#7c7e8b" d="m12.5 8c0.1 0 0.2 0.1 0.3 0.2-0.2 0.1-0.4 0.2-0.5 0.3-0.1-0.1-0.1-0.2-0.2-0.3 0.1-0.1 0.3-0.2 0.4-0.2z"></path><path fill="#7a7d8a" d="m10.7 9.5c0 0 0-0.1 0-0.1-0.1-0.1-0.2-0.3-0.3-0.4-0.1-0.4-0.3-0.8-0.5-1.2 0-0.1 0.1-0.2 0.3-0.3 0.2 0.5 0.5 1.1 0.8 1.6 0 0.2-0.1 0.4-0.3 0.4z"></path><path fill="#52535d" d="m12.8 8.2c-0.1-0.1-0.2-0.2-0.3-0.2 0.1-0.2 0.3-0.3 0.5-0.3l0.1 0.2c-0.1 0.1-0.2 0.2-0.3 0.3z"></path><path fill="#636876" d="m11.2 6.9c0.1 0.1 0.2 0.2 0.2 0.2 0.1 0.2 0.1 0.3 0.2 0.4 0.3-0.1 0.5-0.2 0.7-0.4 0.2 0 0.2 0 0.2 0.2-0.2 0.2-0.4 0.4-0.7 0.5 0.1 0.2 0.2 0.3 0.3 0.4 0.1 0.1 0.1 0.2 0.2 0.3-0.2 0.3-0.4 0.3-0.6 0-0.2-0.4-0.5-0.9-0.8-1.3 0.1-0.1 0.2-0.2 0.3-0.3z"></path><path fill="#696d7c" d="m24.2 6.7c-0.2 0-0.3 0.1-0.3 0.3h-0.2c0 0.2 0.1 0.4 0.3 0.5-0.1 0.1-0.2 0.2-0.3 0.3-0.3-0.2-0.5-0.5-0.5-0.9 0.1-0.1 0.1-0.2 0.2-0.2 0.3-0.1 0.5-0.1 0.8 0z"></path><path fill="#5d606c" d="m13.3 5.9c0 0 0.1 0 0.1 0 0.2 0.5 0.4 0.9 0.5 1.4 0.3-0.1 0.5-0.2 0.8-0.3 0.1 0.1 0.2 0.2 0.2 0.3-0.4 0.2-0.8 0.3-1.2 0.5-0.3-0.6-0.5-1.2-0.7-1.8 0.1 0 0.2-0.1 0.3-0.1z"></path><path fill="#767a88" d="m16.3 6.4c-0.1 0.2 0 0.4 0.1 0.6-0.2 0.1-0.4 0.2-0.7 0.2v-0.3c0.1 0 0.3 0 0.4-0.1 0-0.2 0.1-0.3 0.2-0.4z"></path><path fill="#898c9a" d="m24.2 6.7c0.3 0.1 0.5 0.4 0.4 0.8-0.3 0.1-0.5-0.1-0.5-0.4 0 0-0.1-0.1-0.2-0.1 0-0.2 0.1-0.3 0.3-0.3z"></path><path fill="#787c8a" d="m19 5.3c0.2 0.1 0.3 0.3 0.2 0.6-0.1-0.1-0.2-0.1-0.3 0.1 0 0.2-0.1 0.5-0.3 0.7 0.1 0.1 0.1 0.1 0.1 0.2-0.3 0.1-0.5 0.1-0.8 0v-0.3h0.3c0.2 0.1 0.3 0 0.4-0.1 0.2-0.3 0.3-0.6 0.1-1l0.3-0.2z"></path><path fill="#8d909f" d="m11.4 7.1c0 0-0.1-0.1-0.2-0.2 0.3-0.2 0.6-0.3 0.9-0.5 0.1 0.1 0.1 0.2 0.1 0.3-0.3 0.2-0.5 0.3-0.8 0.4z"></path><path fill="#565865" d="m15.4 6.2c0 0.3 0.2 0.5 0.3 0.7v0.3c-0.4-0.1-0.6-0.3-0.7-0.6 0.1-0.1 0.1-0.1 0.1-0.2 0.1 0 0.2 0 0.3-0.2z"></path><path fill="#4f505a" d="m19.2 5.9v0.3c0 0.3-0.2 0.6-0.5 0.7 0-0.1 0-0.1-0.1-0.2 0.2-0.2 0.3-0.5 0.3-0.7 0.1-0.2 0.2-0.2 0.3-0.1z"></path><path fill="#4b4c55" d="m16.3 6.4h0.4c0 0.2-0.1 0.4-0.3 0.6-0.1-0.2-0.2-0.4-0.1-0.6z"></path><path fill="#595a65" d="m20.3 6.2c-0.1 0.3-0.1 0.7-0.2 1h-0.4c-0.1-0.1 0-0.2 0-0.2 0.1 0 0.1 0 0.1-0.1 0.1-0.2 0.1-0.4 0.1-0.6 0.1-0.1 0.2-0.1 0.3 0 0-0.1 0-0.1 0.1-0.1z"></path><path fill="#535561" d="m17.8 5.9c0 0.4 0.1 0.6 0.4 0.7h-0.3v0.3c-0.4-0.1-0.5-0.4-0.5-0.8 0.1-0.1 0.3-0.2 0.4-0.2z"></path><path fill="#737786" d="m15.4 5.3c0 0.1 0.1 0.2 0.2 0.3-0.2 0.2-0.3 0.4-0.2 0.6-0.1 0.2-0.2 0.2-0.3 0.2 0 0.1 0 0.1-0.1 0.2-0.1-0.3-0.1-0.6 0-0.9 0.1-0.2 0.2-0.3 0.4-0.4z"></path><path fill="#687fad" d="m21.3 5.6c-0.2 0.6-0.4 1.2-0.6 1.8l0.4-1.7c0 0 0.1-0.1 0.1-0.2 0 0 0.1 0.1 0.1 0.1z"></path><path fill="#838ca1" d="m22.6 6.2h-0.2c-0.2 0.2-0.3 0.5-0.3 0.7-0.1 0.1-0.1 0.1-0.1 0 0 0 0-0.1 0-0.2 0.1-0.3 0.2-0.6 0.3-0.8 0.1-0.1 0.2-0.1 0.4 0 0 0.1-0.1 0.2-0.1 0.3z"></path><path fill="#0d0e10" d="m18.5 5.4c0.1 0 0.2 0.1 0.2 0.1 0.2 0.4 0.1 0.7-0.1 1-0.1 0.1-0.2 0.2-0.4 0.1-0.3-0.1-0.4-0.3-0.4-0.7 0.1-0.4 0.3-0.6 0.7-0.5z"></path><path fill="#767986" d="m20 5.2h0.4v0.4l-0.1 0.6c-0.1 0-0.1 0-0.1 0.1-0.1-0.1-0.2-0.1-0.3 0 0-0.4 0.1-0.7 0.1-1.1z"></path><path fill="#8b9dc0" d="m20 5.2c0 0.4-0.1 0.7-0.1 1.1 0 0.2 0 0.4-0.1 0.6 0 0.1 0 0.1-0.1 0.1 0.1-0.6 0.1-1.1 0.2-1.7l0.1-0.1z"></path><path fill="#727a8f" d="m17.8 5.2c0.2 0 0.5 0.1 0.7 0.2-0.4-0.1-0.6 0.1-0.7 0.5-0.1 0-0.3 0.1-0.4 0.2v-0.4c0.1-0.2 0.2-0.4 0.4-0.5z"></path><path fill="#585a65" d="m21.3 5.6h0.2c0 0 0.1 0 0.1 0.1 0.1 0.3 0.2 0.6 0.3 0.9 0 0.1 0.1 0.1 0.1 0.1 0 0.1 0 0.2 0 0.2 0 0.1 0 0.1 0.1 0 0-0.2 0.1-0.5 0.3-0.7h0.2c-0.1 0.5-0.3 1-0.4 1.5-0.2 0.1-0.3 0.1-0.5-0.1-0.1-0.3-0.2-0.7-0.3-1l-0.3 0.8c-0.1 0.1-0.3 0.1-0.4 0 0.2-0.6 0.4-1.2 0.6-1.8z"></path><path fill="#1a1a1d" d="m18.5 5c0.9 0 1.8 0.1 2.7 0.4 0.2 0 0.3 0.1 0.3 0.2h-0.2c0 0-0.1-0.1-0.1-0.1 0 0.1-0.1 0.2-0.1 0.2-0.1 0.1-0.1 0.1-0.1 0.2-0.2-0.2-0.3-0.3-0.5-0.2-0.1 0-0.1-0.1-0.1-0.1v-0.4h-0.4l-0.1 0.1c-0.2 0.1-0.4 0.2-0.6 0.3 0 0.2 0 0.4-0.1 0.6v-0.3c0.1-0.3 0-0.5-0.2-0.6-0.1-0.2-0.3-0.3-0.5-0.3z"></path><path fill="#9b9ead" d="m16.3 5.7c-0.2 0.1-0.2 0.1-0.3-0.1-0.1 0-0.3 0-0.4 0-0.1-0.1-0.2-0.2-0.2-0.3 0.5-0.2 0.8-0.1 1.1 0.3-0.1 0-0.2 0.1-0.2 0.1z"></path><path fill="#28282b" d="m18.1 5c-0.1 0-0.3 0.1-0.3 0.2-0.2 0.1-0.3 0.3-0.4 0.5 0-0.1 0-0.1 0-0.1-0.3 0-0.6 0.1-0.9 0.2-0.1-0.1-0.2-0.1-0.2-0.1 0 0 0.1-0.1 0.2-0.1-0.3-0.4-0.6-0.5-1.1-0.3-0.2 0.1-0.3 0.2-0.4 0.4-0.2-0.1-0.5-0.2-0.8-0.2 1.3-0.4 2.6-0.6 3.9-0.5z"></path><path fill="#abaebe" d="m18.1 5h0.4c0.2 0 0.4 0.1 0.5 0.3l-0.3 0.2c0 0-0.1-0.1-0.2-0.1-0.2-0.1-0.5-0.2-0.7-0.2 0-0.1 0.2-0.2 0.3-0.2z"></path><path fill="#2e2f32" d="m25.6 4.9c0 0-0.1 0-0.1 0.1-1.3-0.7-2.7-1.3-4.1-1.6-4.8-1-9.2-0.1-13.1 2.9 0 0.1-0.1 0-0.2 0 1.2-1 2.5-1.8 3.9-2.4 4.7-1.8 9.2-1.5 13.6 1z"></path><path fill="#18191b" d="m5.2 7.1c-1.1 1.3-2 2.7-2.7 4.3 0-0.2 0-0.3 0.1-0.4 0-0.2-0.2-0.3-0.3-0.4 0-0.1 0-0.1-0.1-0.1 0.2-0.1 0.3-0.3 0.3-0.5 0.3-0.5 0.6-1 0.9-1.5 0.3-0.4 0.6-0.8 0.9-1.2 0.3-0.1 0.5-0.2 0.7-0.3 0.1 0 0.1 0 0.2 0.1z"></path><path fill="#666772" d="m24.9 8.7c0.3 0 0.5 0.2 0.6 0.4 0 0.1 0 0.2-0.2 0.3-0.2 0-0.3-0.2-0.5-0.4 0-0.1 0-0.2 0.1-0.3z"></path><path fill="#7d8191" d="m27 8.9c0.2 0.2 0.5 0.5 0.7 0.7-0.1 0.2-0.2 0.2-0.4 0.2 0-0.1-0.1-0.2-0.3-0.3-0.3 0.3-0.7 0.6-1 0.9-0.2 0-0.3 0-0.4-0.2 0.3-0.3 0.7-0.7 1.1-1l0.3-0.3z"></path><path fill="#1c1d1d" d="m33.2 9.4c0 0 0 0 0 0z m-30.7 0.4c0.1 0.1 0.1 0.1 0 0z" opacity=".008"></path><path fill="#5a5a5b" d="m33.4 9.9h0c0-0.2 0-0.2 0 0z" opacity=".004"></path><path fill="#999ead" d="m8.9 9.9c0 0.2 0 0.3-0.1 0.4-0.1 0-0.2 0-0.3-0.1-0.1 0-0.3-0.1-0.4-0.3 0-0.1 0.1-0.2 0.2-0.2 0.2 0.1 0.4 0.2 0.6 0.2z"></path><path fill="#1c1d1d" d="m33.4 9.9c0.1 0 0.1 0 0 0z m-30.9 0.1c-0.1-0.1-0.1-0.1 0 0z" opacity=".008"></path><path fill="#54555f" d="m28.2 10.2c-0.1 0.1-0.1 0.3-0.1 0.5-0.1-0.1-0.1-0.1-0.2-0.2-0.1 0.1-0.1 0.1-0.2 0.2-0.1-0.2-0.1-0.2-0.2-0.3 0-0.1 0.1-0.1 0.2-0.2 0.2-0.3 0.4-0.3 0.5 0z"></path><path fill="#1c1d1d" d="m33.5 10c0.1 0.1 0.1 0.1 0 0z m0.1 0.2c0.1 0 0.1 0 0 0z m0 0.1c0.1 0 0.1 0 0 0z m0.1 0.1c0.1 0.1 0.1 0.1 0 0z m-31.5 0.1c0 0.1 0 0.1 0 0z" opacity=".008"></path><path fill="#3a3a3b" d="m33.9 11c0 0 0-0.1 0.1-0.1 0 0 0 0.1-0.1 0.1z m-31.9 0.1c-0.1-0.1-0.1-0.1 0-0.2 0 0.1 0 0.1 0 0.2z" opacity=".008"></path><path fill="#606371" d="m8.1 9.9c0.1 0.2 0.3 0.3 0.4 0.3 0.1 0.2 0.2 0.4 0.3 0.5 0.1-0.1 0.2-0.2 0.2-0.3 0 0-0.1-0.1-0.2-0.1 0.1-0.1 0.1-0.2 0.1-0.4 0.4 0.2 0.8 0.3 1.2 0.5-0.2 0.2-0.4 0.3-0.6 0.2-0.2 0.1-0.4 0.3-0.5 0.5 0.3 0.2 0.2 0.5-0.1 0.7-0.3-0.6-0.6-1.2-0.9-1.8 0-0.1 0.1-0.1 0.1-0.1z"></path><path fill="#080809" d="m8.5 10.2c0.1 0.1 0.2 0.1 0.3 0.1 0.1 0 0.2 0.1 0.2 0.1 0 0.1-0.1 0.2-0.2 0.3-0.1-0.1-0.2-0.3-0.3-0.5z"></path><path fill="#818594" d="m27.7 10.2c-0.1 0.1-0.2 0.1-0.2 0.2 0.1 0.1 0.1 0.1 0.2 0.3 0 0-0.1 0-0.1 0.1 0.1 0.1 0.3 0.3 0.5 0.4 0.2-0.1 0.2-0.3 0-0.5 0-0.2 0-0.4 0.1-0.5 0.2 0.2 0.3 0.4 0.5 0.6 0.1 0.3 0 0.5-0.3 0.7-0.1-0.1-0.3-0.1-0.5-0.2-0.2 0.1-0.3 0.2-0.4 0.3 0-0.1 0-0.2 0-0.3 0.1 0 0.2-0.1 0.3-0.1-0.2-0.2-0.3-0.4-0.5-0.6 0 0-0.1 0-0.1 0 0.1-0.2 0.3-0.4 0.5-0.4z"></path><path fill="#0e0e0f" d="m28.1 10.7c0.2 0.2 0.2 0.4 0 0.5-0.2-0.1-0.4-0.3-0.5-0.4 0-0.1 0.1-0.1 0.1-0.1 0.1-0.1 0.1-0.1 0.2-0.2 0.1 0.1 0.1 0.1 0.2 0.2z"></path><path fill="#1c1d1d" d="m34 11.1c0.1 0 0.1 0 0 0z" opacity=".008"></path><path fill="#3a3a3b" d="m34.2 11.5h-0.1c0.1-0.2 0.1-0.2 0.1 0z m-32.5-0.1c0.1 0.1 0.1 0.1 0.1 0.2-0.1-0.1-0.1-0.1-0.1-0.2z m32.5 0.1c0.1 0 0.1 0.1 0 0.1 0 0 0-0.1 0-0.1z m-32.5 0.3c0-0.1-0.1-0.1 0-0.2 0 0.1 0 0.1 0 0.2z" opacity=".008"></path><path fill="#49494a" d="m34.4 12.1h-0.1c0.1-0.3 0.1-0.3 0.1 0z m-32.8 0.1h-0.1c0-0.3 0.1-0.3 0.1 0z" opacity=".008"></path><path fill="#3a3a3b" d="m34.4 12.1c0.1 0 0.1 0 0.1 0.1-0.1 0-0.1-0.1-0.1-0.1z m-32.9 0.1c0 0.1 0 0.1 0 0.1-0.1 0-0.1-0.1 0-0.1z" opacity=".008"></path><path fill="#1c1d1d" d="m34.5 12.4c0 0 0-0.1 0-0.1 0.1 0 0.1 0.1 0 0.1z m0.1 0.1c0 0 0 0.1 0 0.1 0 0-0.1-0.1 0-0.1z m0 0.2c0.1 0 0.1 0.1 0.1 0.1-0.1 0-0.1-0.1-0.1-0.1z" opacity=".008"></path><path fill="#323233" d="m1.3 13c-0.1 0-0.1-0.1 0-0.2 0 0.1 0 0.2 0 0.2z" opacity=".008"></path><path fill="#49494a" d="m34.8 13.3c0 0 0-0.1 0-0.2 0.1 0.1 0 0.2 0 0.2z" opacity=".008"></path><path fill="#404041" d="m1.2 13.6h-0.1c0-0.4 0-0.4 0.1 0z" opacity=".008"></path><path fill="#323233" d="m34.8 13.6c0-0.1 0-0.1 0.1-0.2 0 0.1 0 0.2-0.1 0.2z m-33.7 0c0 0.1 0 0.1 0 0.2-0.1-0.1-0.1-0.1 0-0.2z" opacity=".008"></path><path fill="#1c1d1d" d="m34.9 13.7c0.1 0 0.1 0.1 0 0.1 0 0 0-0.1 0-0.1z" opacity=".008"></path><path fill="#404041" d="m1 14.2c-0.1-0.1-0.1-0.2 0-0.3 0 0.1 0 0.2 0 0.3z" opacity=".008"></path><path fill="#1c1d1d" d="m35 14c0.1 0 0.1 0 0 0.1 0 0 0-0.1 0-0.1z m-34.1 0.2c0.1 0.1 0.1 0.2 0 0.2 0 0 0-0.1 0-0.2z" opacity=".008"></path><path fill="#323233" d="m35.1 14.4c-0.1 0 0-0.1 0-0.2 0 0.1 0 0.2 0 0.2z" opacity=".008"></path><path fill="#1c1d1d" d="m0.9 14.8c-0.1-0.1-0.1-0.1-0.1-0.2 0.1 0.1 0.1 0.1 0.1 0.2z" opacity=".008"></path><path fill="#2e2e2f" d="m35.1 14.8c0-0.1 0-0.2 0.1-0.3 0 0.1 0 0.2-0.1 0.3z" opacity=".008"></path><path fill="#5b5a5b" d="m1 14.5c0 0.2 0 0.4-0.1 0.5v-0.2l0.1-0.3z" opacity=".408"></path><path fill="#3a3a3b" d="m0.8 15.3c-0.1-0.1-0.1-0.2 0-0.4 0 0.2 0 0.3 0 0.4z" opacity=".008"></path><path fill="#353536" d="m35.2 14.9c0.1 0.1 0.1 0.2 0 0.3 0-0.1 0-0.2 0-0.3z" opacity=".008"></path><path fill="#323233" d="m35.3 15.7c0-0.1 0-0.3 0-0.4 0.1 0.1 0 0.3 0 0.4z m-34.6 0.1c0-0.1-0.1-0.3 0-0.4 0 0.1 0 0.2 0 0.4z" opacity=".008"></path><path fill="#383839" d="m35.4 16.3h-0.1c0.1-0.7 0.1-0.7 0.1 0z" opacity=".008"></path><path fill="#2e2e2f" d="m0.7 16.5c-0.1-0.2-0.1-0.4-0.1-0.6 0.1 0.2 0.1 0.4 0.1 0.6z" opacity=".008"></path><path fill="#2f2f30" d="m35.4 16.3c0.1 0.3 0.1 0.5 0 0.8 0-0.2 0-0.5 0-0.8z" opacity=".008"></path><path fill="#7b7c7c" d="m0.5 16.6c0.1 0.1 0.1 0.1 0 0z" opacity=".004"></path><path fill="#2c2c2d" d="m0.6 18.9c-0.1-0.7-0.1-1.4 0-2.1 0 0.7 0 1.4 0 2.1z" opacity=".008"></path><path fill="#3d3d3e" d="m35.5 17.3c0.1 0.5 0.1 1 0 1.4 0-0.4 0-0.9 0-1.4z" opacity=".008"></path><path fill="#39393a" d="m35.4 18.9c0.1 0.2 0.1 0.4 0 0.7 0-0.3 0-0.5 0-0.7z" opacity=".008"></path><path fill="#383839" d="m35.3 19.7c0.1 0.1 0.1 0.3 0.1 0.5-0.1-0.2-0.1-0.4-0.1-0.5z" opacity=".008"></path><path fill="#2b2b2c" d="m0.7 19.9c0 0.1 0 0.2 0 0.3-0.1-0.1 0-0.2 0-0.3z" opacity=".008"></path><path fill="#323233" d="m35.3 20.3c0 0.1 0.1 0.3 0 0.4 0-0.1 0-0.3 0-0.4z m-34.5 0.5c0.1 0.1 0.1 0.2 0 0.3 0-0.1 0-0.2 0-0.3z" opacity=".008"></path><path fill="#555556" d="m35.2 20.8c0.1 0.1 0.1 0.2 0 0.3 0-0.1 0-0.2 0-0.3z" opacity=".004"></path><path fill="#323233" d="m0.9 21.2c0.1 0.1 0.1 0.1 0 0.2 0-0.1 0-0.1 0-0.2z m34.2 0c0.1 0.1 0.1 0.1 0.1 0.2-0.1-0.1-0.1-0.1-0.1-0.2z" opacity=".008"></path><path fill="#404041" d="m1 21.5c0 0.1 0 0.2 0 0.3-0.1-0.1-0.1-0.2 0-0.3z m34.1 0c0 0.1 0 0.2 0 0.3 0-0.1-0.1-0.2 0-0.3z" opacity=".008"></path><path fill="#121212" d="m28 3.9l0.6 0.4c0.2 0.2 0.4 0.4 0.7 0.5 0.8 0.8 1.6 1.6 2.4 2.5 0.1 0.2 0.2 0.4 0.4 0.5 0.3 0.6 0.7 1.1 1.1 1.7 0 0.1 0.1 0.3 0.2 0.4 0 0.1 0 0.2 0.1 0.2 0 0.1 0 0.1 0.1 0.1 0 0.3 0.2 0.6 0.3 0.8 0 0.1 0 0.1 0.1 0.1 0 0.2 0 0.3 0.1 0.4 0.1 0.2 0.1 0.4 0.2 0.6 0 0.1 0.1 0.2 0.2 0.3 0 0.3 0.1 0.6 0.3 0.9 0 0.1 0 0.2 0 0.3 0.1 0.3 0.1 0.6 0.3 0.8-0.1 0.2 0 0.3 0 0.4 0 0.3 0.1 0.6 0.2 0.9-0.1 0.2 0 0.5 0 0.6 0.1 1.1 0.1 2.3 0 3.4 0 0.1-0.1 0.4 0 0.6-0.1 0.3-0.2 0.6-0.2 0.9 0 0.1-0.1 0.2 0 0.3-0.1 0.1-0.1 0.2-0.1 0.3-0.1 0.1-0.1 0.2-0.1 0.3-0.1 0.1-0.1 0.2-0.1 0.3 0 0 0 0.1 0 0.2-0.1 0.1-0.1 0.2-0.1 0.3-0.1 0-0.1 0.1-0.1 0.2 0 0-0.1 0.1 0 0.2-0.1 0.1-0.1 0.1-0.1 0.2-0.1 0.1-0.1 0.1-0.1 0.2 0 0.1-0.1 0.2-0.1 0.2 0 0.1 0 0.2 0 0.3-0.1 0-0.1 0-0.1 0.1-0.1 0-0.1 0.1-0.1 0.2 0 0 0 0.1 0 0.1-0.1 0.1-0.1 0.1-0.1 0.2-0.1 0.1-0.2 0.2-0.1 0.3-0.1 0.1-0.1 0.1-0.1 0.2-0.1 0-0.1 0-0.1 0.1 0 0-0.1 0.1-0.1 0.2 0 0 0 0 0 0.1-0.1 0-0.1 0.1-0.1 0.1-0.1 0.1-0.1 0.1-0.1 0.2 0 0 0 0.1 0 0.1-0.1 0-0.1 0.1-0.1 0.2-0.1 0-0.2 0.1-0.1 0.2-0.1 0-0.1 0-0.1 0.1-0.1 0-0.1 0.1-0.1 0.2 0 0-0.1 0-0.1 0 0 0 0 0.1 0 0.2-0.1 0-0.1 0-0.1 0.1 0 0-0.1 0-0.1 0.1 0 0-0.1 0 0 0.1-0.1 0-0.1 0-0.1 0.1-0.1 0-0.1 0.1-0.1 0.1 0 0-0.1 0.1-0.1 0.1 0 0 0 0.1 0 0.1-0.1 0-0.1 0.1-0.1 0.1-0.1 0-0.1 0.1-0.1 0.2-0.1 0-0.1 0-0.1 0.1-0.1 0-0.1 0.1-0.1 0.1 0 0 0 0.1 0 0.1-0.1 0-0.1 0-0.1 0.1-0.1 0-0.1 0-0.1 0.1 0 0-0.1 0-0.1 0.1 0 0 0 0 0 0.1-0.1 0-0.2 0.1-0.2 0.2 0 0 0 0 0 0-0.1 0-0.1 0.1-0.1 0.1-0.1 0-0.1 0-0.1 0.1-0.1 0-0.1 0.1-0.1 0.2-0.1 0-0.1 0-0.1 0.1 0 0-0.1 0-0.1 0 0 0 0 0 0 0.1-0.1 0-0.1 0-0.1 0.1 0 0-0.1 0-0.1 0 0 0 0 0.1 0 0.1-0.1 0-0.1 0-0.1 0.1-0.1 0-0.1 0-0.1 0-0.1 0.1-0.1 0.2-0.2 0.3-0.1 0.1-0.2 0.2-0.3 0.3-0.1 0-0.1 0-0.1 0.1-0.1 0-0.1 0-0.1 0.1 0 0-0.1 0-0.1 0 0 0 0 0 0 0.1-0.1 0-0.1 0-0.1 0.1 0 0-0.1 0-0.1 0-0.1 0.1-0.2 0.2-0.3 0.3-0.1 0-0.1 0-0.1 0.1-0.1 0-0.3 0.1-0.3 0.3-0.1 0-0.1 0-0.1 0-0.1 0-0.1 0-0.1 0.1-0.1 0-0.1 0-0.1 0.1-0.1 0-0.1 0-0.1 0-0.1 0-0.2 0.1-0.2 0.2 0 0-0.1 0-0.1 0.1 0-0.1-0.1 0-0.1 0-0.1 0-0.1 0.1-0.1 0.1-0.1 0-0.2 0-0.2 0.1-0.1 0-0.1 0-0.1 0.1-0.1 0-0.1 0-0.1 0.1-0.1 0-0.2 0-0.2 0.1-0.1 0-0.1 0-0.2 0.1 0 0 0 0 0 0.1-0.1-0.1-0.1 0-0.2 0 0 0-0.1 0-0.1 0.1-0.1 0-0.1 0-0.1 0.1 0 0-0.1 0-0.1 0-0.1 0-0.1 0.1-0.2 0.1 0 0-0.1 0-0.1 0.1-0.2 0-0.3 0.1-0.3 0.2-0.1 0-0.2 0-0.2 0.1-0.1 0-0.1 0-0.1 0-0.3 0.1-0.5 0.2-0.7 0.3 0 0-0.1 0-0.1 0.1-0.1 0-0.3 0-0.4 0.1-0.1 0-0.2 0.1-0.3 0.2-0.1-0.1-0.2 0-0.2 0-0.2 0.1-0.4 0.1-0.6 0.2-0.1 0-0.1 0.1-0.2 0.1-0.2 0-0.3 0.1-0.5 0.2-0.3 0-0.3 0-0.1 0.1-0.1 0-0.2 0.1-0.4 0 0.2 0 0.2 0 0.1-0.1-0.2 0.1-0.3 0.1-0.4 0.2-0.3 0-0.5 0-0.7 0.1-0.3 0-0.3 0.1 0 0.1-0.1 0.1-0.2 0.1-0.4 0 0.1 0 0.1-0.1 0-0.1-0.2 0.1-0.2 0.1-0.1 0.2-0.1 0.1-0.3 0-0.4-0.1-0.6 0.1-1.2 0.1-1.8 0.1h-1c-0.7 0-1.3 0-2 0-0.4 0-0.7-0.1-1-0.2 0.1 0 0.1 0 0-0.1-0.1 0-0.2 0-0.4 0-0.1-0.1-0.1-0.1-0.2 0-0.4 0-0.4-0.1-0.1-0.1-0.2-0.1-0.3-0.1-0.5-0.1-0.2-0.2-0.5-0.2-0.7-0.3-0.1 0-0.1 0-0.2 0-0.1-0.1-0.2-0.2-0.4-0.2-0.1-0.1-0.3-0.1-0.5-0.2-0.1-0.1-0.2-0.1-0.4-0.1-0.1-0.1-0.3-0.2-0.5-0.2 0-0.1 0-0.1-0.1-0.1-0.2-0.1-0.5-0.3-0.7-0.3 0-0.1-0.1-0.1-0.2-0.1-0.1-0.2-0.3-0.3-0.5-0.3-0.4-0.3-0.9-0.7-1.4-1-0.2-0.2-0.4-0.3-0.6-0.4-0.1-0.2-0.2-0.2-0.3-0.3-1.1-0.9-2-1.9-2.9-3 0-0.1-0.1-0.2-0.2-0.3-0.1-0.2-0.2-0.4-0.4-0.6 0-0.1-0.1-0.2-0.1-0.2 0-0.1-0.1-0.2-0.2-0.2 0-0.2-0.1-0.3-0.2-0.4 0-0.1 0-0.1-0.1-0.1 0.1-0.1 0-0.2-0.1-0.2 0-0.1 0-0.2-0.1-0.2 0-0.1 0-0.1 0-0.1 0-0.1 0-0.1-0.1-0.2 0 0 0-0.1-0.1-0.1 0-0.1 0-0.1 0-0.2 0 0-0.1-0.1-0.1-0.1 0-0.2-0.1-0.3-0.2-0.5 0-0.1 0-0.1-0.1-0.1 0-0.2 0-0.3-0.1-0.4 0-0.1-0.1-0.2-0.2-0.3 0-0.2 0-0.3-0.1-0.5 0-0.1-0.1-0.3-0.2-0.4 0.1-0.1 0-0.1 0-0.2 0-0.2-0.1-0.3-0.2-0.5 0-0.1 0-0.2 0-0.3 0-0.2-0.1-0.4-0.2-0.5 0-0.4-0.1-0.8-0.2-1.1l0 0.3c0-0.3 0-0.6-0.1-0.8 0-0.1 0-0.1-0.1-0.2 0-0.3 0-0.6 0-0.8 0.1-0.8 0.1-1.6 0.1-2.4 0-0.2 0.1-0.5 0-0.7 0.1-0.2 0.1-0.3 0.1-0.5 0.1-0.1 0.1-0.2 0.1-0.3 0.1-0.1 0.1-0.3 0.1-0.5v-0.3c0.1-0.2 0.2-0.4 0.2-0.6 0-0.2 0.1-0.4 0.1-0.6 0.1-0.2 0.2-0.5 0.3-0.8 0.1-0.1 0.1-0.3 0.1-0.4 0.2-0.2 0.3-0.5 0.3-0.7 0.1-0.2 0.2-0.3 0.3-0.5 0.1 0.1 0.3 0.2 0.3 0.4-0.1 0.1-0.1 0.2-0.1 0.4-1 2.5-1.4 5.1-1.2 7.8 0.6 5.8 3.4 10.2 8.3 13.2 0.5 0.3 1.1 0.6 1.7 0.8 1.1 0.6 2.3 0.9 3.6 1.1 0.3 0.1 0.6 0.2 1 0.2 0.6 0.1 1.3 0.1 2 0.1 0.7 0 1.5 0 2.2-0.1 4.6-0.6 8.3-2.6 11.1-6.1 0.5-0.7 0.9-1.3 1.3-2 0.6-0.9 1-1.9 1.4-2.9 0-0.2 0.1-0.4 0.2-0.6 0.1-0.4 0.2-0.7 0.2-1.1 0.2-0.7 0.3-1.4 0.4-2.1 0.4-6.6-2-11.7-7.2-15.5-0.1-0.1 0-0.2 0-0.3 0.2-0.1 0.4-0.1 0.5 0z" opacity=".998"></path><path fill="#cdcdd2" d="m33.4 19.1c0 0.3 0.1 0.6 0.1 0.9 0 0.3-0.1 0.7-0.2 1 0.3 0.3 0.6 0.6 0.8 0.9 0.1 0 0.2-0.1 0.2-0.1 0 0.4-0.1 0.7-0.2 1.1-0.1 0-0.1-0.1-0.1-0.2-0.1 0.1-0.1 0.1-0.2 0.1-0.3-0.2-0.5-0.2-0.8 0.2l-0.1-0.1c0.2-0.3 0.2-0.5 0-0.6 0-0.1 0-0.2 0-0.3 0.2-1 0.4-1.9 0.5-2.9z"></path><path fill="#757376" d="m25.8 15.4c0-0.1 0-0.1 0-0.1 0.1 0.6 0.1 1.2 0 1.8 0.1-0.6 0-1.2 0-1.7z"></path><path fill="#070708" d="m18.1 13.3c-0.2-0.1-0.5-0.2-0.8-0.2-1.5 0.8-3.1 1.6-4.6 2.5 0 1.1 0.2 2.3 0.4 3.4 0.3-0.9 0.6-1.8 0.8-2.7 0.1-0.1 0.1-0.2 0.2-0.3 0.9-0.2 1.8-0.5 2.7-0.6-0.2 1-0.5 2-0.7 3-1 1-2.1 2.1-3.1 3-1.4 0.1-2.7 0.1-4.1 0l1.6 0.9c0-0.1 0 0-0.1 0 0.2 0 0.2 0.1 0 0.1 0.1 0.1 0.1 0.2 0 0.2l-0.1-0.1c-0.1 0.2-0.2 0.2-0.4 0.2-0.1 0-0.2-0.1-0.3-0.1-0.1 0.2 0 0.3 0.1 0.4-0.1 0.1-0.1 0.3-0.1 0.4-0.2 0.1-0.4 0-0.5-0.1-0.2 0.1-0.1 0.2 0.1 0.2l-0.4 0.2-0.1 0c0 0.1 0 0.1 0.1 0.2-0.1 0.1-0.2 0.2-0.3 0.2-0.1-0.1-0.2-0.1-0.2-0.2-0.2 0.2-0.3 0.5-0.3 0.8-0.8-0.1-1 0.2-0.6 0.9 0.2 0.2 0.4 0.4 0.5 0.6 0.1 0 0.1-0.1 0.2-0.1-0.1 0.3-0.2 0.4-0.4 0.4-0.2-0.1-0.3-0.2-0.4-0.4 0.1-0.2 0-0.2-0.2-0.2-0.1-0.2-0.2-0.4-0.3-0.6 0.1-0.1 0.2-0.3 0.1-0.4 0.1 0 0.2-0.1 0.2-0.1 0.3-0.5 0.6-0.9 0.9-1.4-0.1-0.1-0.2-0.3-0.3-0.3-0.6 0.1-1.1 0.3-1.6 0.4-0.1 0.1-0.1 0.1-0.1 0.2 0.1 0.1 0.2 0.1 0.3 0.2l0.9-0.3 0.1 0.1c-0.1 0.2-0.3 0.5-0.5 0.7-0.1-0.1-0.2-0.1-0.3 0 0-0.2-0.1-0.3-0.3-0.3 0 0.2 0 0.2-0.2 0.1-0.2-0.4-0.4-0.8-0.6-1.1 0.1-0.1 0.1-0.2 0.2-0.3-0.1 0-0.2-0.1-0.1-0.2-0.1-0.1-0.2-0.1-0.2-0.1-1.3-3.6-1.2-7.1 0.5-10.5 0.1-0.1 0.1-0.1 0.1 0-1.5 3-1.8 6.1-0.8 9.3 1-0.5 1.9-1.1 2.8-1.9l0.4-0.2c0.7-0.6 1.3-1.3 2-1.9 0 0 0-0.1 0-0.2 0.1 0 0.1 0 0.2 0 1.3-1.3 2.5-2.7 3.6-4.2l0.4-0.2c0-0.2 0.1-0.4 0.3-0.6 0.5-0.1 1-0.1 1.4-0.1 0.2 0 0.4 0.2 0.4 0.4 0.2 0 0.3 0.1 0.4 0.2l0.1 0c0.1 0.1 0.1 0.1 0.1 0.2 0.4-0.2 0.7-0.1 1 0.3-0.1 0-0.1 0.1-0.1 0.2z"></path><path fill="#666772" d="m6.6 14.3c0.3 0.1 0.6 0.2 1 0.3 0 0.1 0 0.2 0 0.3-0.5 0-1-0.2-1.4-0.3-0.1 0-0.1 0-0.2 0.1 0.1 0.3 0 0.4-0.3 0.3 0-0.2 0-0.4 0.1-0.6 0 0 0 0.1 0 0.1 0.3 0 0.6 0 0.8 0v-0.2z"></path><path fill="#8c8e9c" d="m6.6 14.3v0.2c-0.2 0-0.5 0-0.8 0 0 0 0-0.1 0-0.1 0-0.3 0.1-0.5 0.1-0.8 0.2 0 0.3 0 0.4 0.1-0.1 0.2-0.1 0.4-0.1 0.5l0.4 0.1z"></path><path fill="#53535d" d="m29.3 13c0.1 0.1 0.1 0.1 0.1 0.3 0 0.1 0 0.2-0.1 0.3 0.8 0.2 0.7 0.3-0.1 0.3 0 0.2-0.1 0.5-0.2 0.7-0.2-0.2-0.2-0.4 0-0.6-0.9-0.2-0.8-0.3 0.1-0.3 0-0.2 0.1-0.5 0.2-0.7z"></path><path fill="#efeff1" d="m34.7 19.7c-0.1 0.7-0.2 1.4-0.4 2.1 0 0-0.1 0.1-0.2 0.1-0.2-0.3-0.5-0.6-0.8-0.9 0.1-0.3 0.2-0.7 0.2-1 0-0.3-0.1-0.6-0.1-0.9 0-2-0.2-3.9-0.8-5.7 0.1-0.1 0.2-0.1 0.3-0.1 0.1 0.2 0.2 0.5 0.4 0.7l0.2 1.2c0.1 1.5 0.5 3 1 4.4l0.1-0.4c0 0.2 0 0.3 0.1 0.5z"></path><path fill="#fbfbfb" d="m18.1 13.3c1.1 0.7 2.3 1.4 3.5 2 0.5 0.7 0.9 1.4 1.4 2.2 0.5 0.1 1 0.1 1.5 0 0.1-0.6 0.2-1.2 0.2-1.8 0.4-0.1 0.7-0.3 1.1-0.3 0 0.5 0.1 1.1 0 1.7 0.1 0.3 0 0.6 0 0.9-0.4 0.1-0.8 0.2-1.2 0.3 0-0.1 0-0.1-0.1-0.2-0.5 0.3-1.1 0.6-1.7 1-0.1 0-0.1 0-0.2 0-0.7-0.8-1.4-1.6-2.2-2.3-0.6 0.6-1.1 1.2-1.7 1.8 0.9 0.3 1.7 0.5 2.6 0.7 0.2 0.1 0.3 0.2 0.5 0.3 0.6 1.8 1.2 3.6 1.9 5.4l-0.1 0.1c-1-1.1-2-2.2-3-3.3 0 0-0.1-0.1-0.2-0.1-1.2-0.2-2.3-0.4-3.5-0.7-0.2 0-0.3 0-0.5 0-1 0.8-2.1 1.7-3.1 2.4-1-0.4-1.9-0.8-2.8-1.1l-1.6-0.9c1.4 0.1 2.7 0.1 4.1 0 1-0.9 2.1-2 3.1-3 0.2-1 0.5-2 0.7-3-0.9 0.1-1.8 0.4-2.7 0.6-0.1 0.1-0.1 0.2-0.2 0.3-0.2 0.9-0.5 1.8-0.8 2.7-0.2-1.1-0.4-2.3-0.4-3.4 1.5-0.9 3.1-1.7 4.6-2.5 0.3 0 0.6 0.1 0.8 0.2z"></path><path fill="#797b88" d="m28.4 12.7c0.1 0.1 0.1 0.1 0.2 0.1 0 0 0 0 0.1 0.1-0.1 0.1-0.2 0.2-0.2 0.3-0.2 0.1-0.4 0.1-0.6 0.1 0-0.1-0.1-0.2-0.1-0.3l0.1-0.1c0.2 0 0.4-0.1 0.5-0.2z"></path><path fill="#525155" d="m28.9 12.6c0.1 0.1 0.2 0.2 0.3 0.3-0.2 0.1-0.4 0.2-0.7 0.3 0-0.1 0.1-0.2 0.2-0.3-0.1-0.1-0.1-0.1-0.1-0.1 0.1-0.1 0.1-0.2 0.3-0.2z"></path><path fill="#7f808b" d="m29.2 12.9c-0.1-0.1-0.2-0.2-0.3-0.3 0.3-0.1 0.6-0.2 0.9-0.2 0 0.1 0.1 0.2 0.2 0.3-0.3 0.1-0.5 0.2-0.8 0.2z"></path><path fill="#7b92be" d="m28.9 11.4c-0.3 0.5-0.7 1-1 1.5l-0.1 0.1c-0.1 0-0.1 0 0-0.1l1.1-1.6c0 0 0 0 0 0.1z"></path><path fill="#5e5f6b" d="m7.1 11.6c0.4-0.1 0.6 0.1 0.7 0.5 0.3 0 0.6-0.1 0.9-0.1 0 0.2-0.1 0.3-0.2 0.4-0.3 0.1-0.6 0.1-0.9 0.3-0.1 0.1 0 0.2 0 0.2 0.2 0.1 0.4 0.2 0.6 0.3-0.1 0.1-0.1 0.2-0.3 0.3-0.5-0.2-1-0.5-1.5-0.8 0.1-0.3 0.2-0.5 0.3-0.7 0.1 0.1 0.1 0.2 0.2 0.3-0.1 0.2 0 0.3 0.2 0.4 0.2-0.1 0.3-0.3 0.3-0.4 0.1 0.1 0.1 0 0.2-0.1-0.1-0.3-0.2-0.5-0.5-0.6z"></path><path fill="#565864" d="m28.9 11.4c0.2 0 0.3 0.2 0.2 0.4-0.2 0.3-0.4 0.6-0.7 0.9-0.1 0.1-0.3 0.2-0.5 0.2 0.3-0.5 0.7-1 1-1.5z"></path><path fill="#8c8f9d" d="m7.1 11.6c0.3 0.1 0.4 0.3 0.5 0.6-0.1 0.1-0.1 0.2-0.2 0.1-0.1-0.5-0.3-0.5-0.5 0-0.1-0.1-0.1-0.2-0.2-0.3 0-0.2 0.2-0.4 0.4-0.4z"></path><path fill="#0b0b0d" d="m7.4 12.3c0 0.1-0.1 0.3-0.3 0.4-0.2-0.1-0.3-0.2-0.2-0.4 0.2-0.5 0.4-0.5 0.5 0z"></path><path fill="#56565d" d="m28.4 11.5c-0.2 0.1-0.4 0.1-0.6 0.1 0 0.3-0.1 0.6-0.3 0.9-0.1-0.1-0.2-0.2-0.3-0.4 0 0 0-0.1 0-0.1 0.2-0.1 0.2-0.2 0.3-0.4 0.1-0.1 0.2-0.2 0.4-0.3 0.2 0.1 0.4 0.1 0.5 0.2z"></path><path fill="#96afd5" d="m27.4 11.3h0.1c0 0.1 0 0.2 0 0.3-0.1 0.2-0.1 0.3-0.3 0.4 0.1-0.2 0.1-0.5 0.2-0.7z"></path><path fill="#6f82a9" d="m27.2 10.6c-0.2 0.2-0.4 0.5-0.7 0.6-0.1 0-0.1 0-0.1 0 0.3-0.2 0.5-0.4 0.8-0.6z"></path><path fill="#4e4f59" d="m27.2 10.6c0 0 0.1 0 0.1 0 0.2 0.2 0.3 0.4 0.5 0.6-0.1 0-0.2 0.1-0.3 0.1h-0.1c0-0.1 0-0.2-0.1-0.3-0.2 0.2-0.4 0.4-0.6 0.5-0.1-0.1-0.2-0.2-0.2-0.3 0.3-0.1 0.5-0.4 0.7-0.6z"></path><path fill="#fafafa" d="m19.4 10.8c1.2 0.1 1.7 0.8 1.5 2-0.6 1-1.3 1.1-2.1 0.2-0.3-0.5-0.3-0.9-0.2-1.4 0.1-0.4 0.4-0.7 0.8-0.8z"></path><path fill="#323233" d="m1.1 22c-0.1 0-0.1-0.1 0-0.2 0 0.1 0 0.2 0 0.2z" opacity=".008"></path><path fill="#1c1d1d" d="m35 21.8c0.1 0.1 0.1 0.2 0 0.2 0 0 0-0.1 0-0.2z" opacity=".008"></path><path fill="#404041" d="m1.1 22h0.1v0.3c-0.1-0.1-0.1-0.1-0.1-0.3z" opacity=".008"></path><path fill="#49494a" d="m34.9 22.1c0.1 0.1 0.1 0.1 0 0.2 0 0 0-0.1 0-0.2z" opacity=".008"></path><path fill="#323233" d="m1.2 22.3h0c0 0.3 0 0.3 0 0z" opacity=".008"></path><path fill="#66656e" d="m6.9 21.8c0.1 0.1 0.2 0.1 0.2 0.2-0.1 0.2-0.2 0.3-0.2 0.5 0.3-0.1 0.5 0 0.7 0.1-0.3 0.1-0.5 0.1-0.7 0.1 0 0.2-0.1 0.4-0.3 0.5 0-0.1 0-0.3 0-0.5-0.2 0-0.4-0.1-0.5-0.2l0.6-0.2c0.1-0.1 0.1-0.3 0.2-0.5z"></path><path fill="#49494a" d="m34.8 22.4c0.1 0.1 0.1 0.1 0 0.2v-0.2z" opacity=".008"></path><path fill="#0c0f14" d="m31.3 25.2c0-0.2-0.1-0.4-0.3-0.6-0.2 0-0.5 0-0.7 0 0.4-1 0.8-2 1.1-3 0.1-0.1 0.2-0.1 0.2 0 0.2-0.2 0.4-0.2 0.5 0 0.2-0.1 0.2 0 0.2 0.2 0.1-0.1 0.2-0.1 0.3 0-0.2 0.8-0.5 1.7-0.8 2.6-0.2 0.3-0.4 0.5-0.5 0.8z"></path><path fill="#c0c2c8" d="m32.9 22c0 0.1 0 0.2 0 0.3 0.2 0.1 0.2 0.3 0 0.6l0.1 0.1c0.3-0.4 0.5-0.4 0.8-0.2 0.1 0 0.1 0 0.2-0.1 0 0.1 0 0.2 0.1 0.2-0.1 0.2-0.2 0.4-0.2 0.6-0.2 0-0.3 0.1-0.4 0.2l0 0c-0.3 0.1-0.6 0.3-0.8 0.6 0 0 0.1 0.1 0.1 0.1-0.1 0.1-0.2 0.1-0.2 0.2-0.7 1.5-1.7 2.8-2.9 3.8-0.1-0.1-0.1-0.1-0.2-0.1 1.6-1.8 2.7-4 3.4-6.3z"></path><path fill="#323233" d="m34.8 22.6h0c0 0.3 0 0.3 0 0z" opacity=".008"></path><path fill="#49494a" d="m1.4 22.8v0.2c-0.1 0-0.1-0.1 0-0.2z" opacity=".008"></path><path fill="#323233" d="m34.7 22.9c0.1 0.1 0.1 0.1 0 0.2v-0.2z" opacity=".008"></path><path fill="#717480" d="m29.2 23c0 0 0 0-0.1 0.1l-0.4 0c0.1 0.1 0.1 0.1 0.1 0.1-0.4 0-0.7-0.2-1.1-0.3-0.1-0.2 0-0.3 0.2-0.4 0.4 0.2 0.9 0.3 1.3 0.5z"></path><path fill="#323233" d="m1.4 23h0c0 0.3 0 0.3 0 0z" opacity=".008"></path><path fill="#6c6e7a" d="m29.5 22.5c0.1 0 0.2 0.1 0.3 0.2-0.1 0.2-0.2 0.4-0.3 0.6-0.2-0.2-0.2-0.5 0-0.8z"></path><path fill="#49494a" d="m34.6 23.1h0.1c0 0.1 0 0.2-0.1 0.2v-0.2z" opacity=".008"></path><path fill="#9197aa" d="m29.5 22.5c-0.2 0.3-0.2 0.6 0 0.8 0 0.2-0.1 0.4-0.2 0.6-0.2 0.1-0.3 0-0.4-0.2 0.1-0.1 0.1-0.2 0.2-0.3-0.1-0.1-0.2-0.1-0.3-0.2 0 0 0 0-0.1-0.1l0.4 0c0.1-0.1 0.1-0.1 0.1-0.1 0-0.2 0.1-0.4 0.3-0.5z"></path><path fill="#323233" d="m34.6 23.3h0c0 0.1 0 0.2 0 0.2v-0.2z" opacity=".008"></path><path fill="#5a5a5b" d="m1.5 23.4c-0.1 0-0.1 0 0-0.1 0 0.1 0 0.1 0 0.1z" opacity=".004"></path><path fill="#49494a" d="m1.5 23.4h0.1c0 0.3-0.1 0.3-0.1 0z m33 0.1h0.1c0 0.1 0 0.2-0.1 0.2v-0.2z" opacity=".008"></path><path fill="#7b7c87" d="m6.9 24.9c-0.1-0.2-0.1-0.3-0.1-0.5 0.2-0.2 0.4-0.5 0.5-0.7l-0.1-0.1-0.9 0.3c-0.1-0.1-0.2-0.1-0.3-0.2 0-0.1 0-0.1 0.1-0.2 0.5-0.1 1-0.3 1.6-0.4 0.1 0 0.2 0.2 0.3 0.3-0.3 0.5-0.6 0.9-0.9 1.4 0 0-0.1 0.1-0.2 0.1z"></path><path fill="#323233" d="m34.4 23.7h0.1c0 0.1 0 0.2-0.1 0.2v-0.2z" opacity=".008"></path><path fill="#5a5a5b" d="m1.7 23.9c0 0 0 0.1 0 0.1-0.1-0.1 0-0.1 0-0.1z" opacity=".004"></path><path fill="#1c1d1d" d="m34.3 23.9h0.1c0 0.2 0 0.2-0.1 0z" opacity=".008"></path><path fill="#5a5a5b" d="m1.8 24.2c-0.1 0-0.1-0.1 0-0.1 0 0 0 0.1 0 0.1z" opacity=".004"></path><path fill="#555865" d="m28 24.4c-0.2 0.2-0.3 0.4-0.4 0.7 0-0.1-0.1-0.2-0.1-0.2 0-0.1 0.1-0.2 0.2-0.3-0.1 0-0.1 0-0.2 0 0 0 0-0.1 0-0.1-0.2-0.1-0.4-0.2-0.5-0.3 0-0.1 0-0.2 0.1-0.3 0.3 0.1 0.6 0.3 0.9 0.5z"></path><path fill="#1c1d1d" d="m1.8 24.2h0.1c-0.1 0.2-0.1 0.2-0.1 0z" opacity=".008"></path><path fill="#5a5a5b" d="m34.3 24.2c0.1 0 0.1 0 0 0.1v-0.1z" opacity=".004"></path><path fill="#1c1d1d" d="m34.2 24.3h0.1c0 0.2-0.1 0.2-0.1 0z" opacity=".008"></path><path fill="#60616a" d="m8.5 24.1c0.1 0.2 0 0.3-0.1 0.5 0-0.1 0-0.1 0-0.1-0.1 0.2-0.2 0.3-0.4 0.2 0-0.3 0.1-0.6 0.3-0.8 0 0.1 0.1 0.1 0.2 0.2z"></path><path fill="#1c1d1d" d="m1.9 24.4c0.1 0.1 0.1 0.1 0 0z" opacity=".008"></path><path fill="#5a5a5b" d="m34.1 24.5c0.1 0.1 0.1 0.1 0 0.1v-0.1z m-32.1 0.1v0.1c-0.1 0-0.1-0.1 0-0.1z" opacity=".004"></path><path fill="#5a5c67" d="m28.3 24.5c0.2 0.1 0.3 0.2 0.5 0.3-0.1 0.2-0.2 0.4-0.4 0.5 0-0.1-0.1-0.2-0.2-0.4 0-0.1-0.1-0.1-0.3-0.1 0.2-0.1 0.3-0.2 0.4-0.3z"></path><path fill="#1c1d1d" d="m34.1 24.6h0c0 0.1 0 0.2 0 0.2v-0.2z" opacity=".008"></path><path fill="#3a3a3b" d="m2 24.7h0.1c0 0.2-0.1 0.2-0.1 0z" opacity=".008"></path><path fill="#0c0d10" d="m27.9 24.8c0.2 0 0.3 0 0.3 0.1-0.1 0.2-0.2 0.4-0.3 0.5-0.1 0-0.2 0-0.2-0.1 0-0.2 0.1-0.4 0.2-0.5z"></path><path fill="#3a3a3b" d="m34 24.8h0.1c-0.1 0.2-0.1 0.2-0.1 0z" opacity=".008"></path><path fill="#1c1d1d" d="m2.1 24.9c0.1 0.1 0.1 0.1 0 0z" opacity=".008"></path><path fill="#808496" d="m27.6 25.1c-0.3-0.1-0.7-0.1-1-0.1 0 0.1-0.1 0.2-0.1 0.3-0.1 0-0.1 0-0.2-0.1 0.1-0.1 0.2-0.2 0.2-0.3l0.9-0.1c0 0 0.1-0.1 0.1-0.2 0.1 0 0.1 0 0.2 0-0.1 0.1-0.2 0.2-0.2 0.3 0 0 0.1 0.1 0.1 0.2z"></path><path fill="#1c1d1d" d="m2.1 25.1c0.1 0 0.1 0 0 0z" opacity=".008"></path><path fill="#5a5a5b" d="m33.9 25.1c0 0 0-0.1 0.1-0.1 0 0.1 0 0.1-0.1 0.1z m0 0h0c0 0.1 0 0.2 0 0.2v-0.2z m-31.6 0.1v0.1c-0.1 0-0.1 0 0-0.1z" opacity=".004"></path><path fill="#63646e" d="m27.6 25.1v0.7c-0.3-0.1-0.4-0.3-0.4-0.6-0.2 0.1-0.5 0.1-0.7 0.1 0-0.1 0.1-0.2 0.1-0.3 0.3 0 0.7 0 1 0.1z"></path><path fill="#5a5a5b" d="m33.8 25.3h0.1c0 0-0.1 0.1-0.1 0.1v-0.1z m-31.5 0h0.1v0.2c-0.1 0-0.1-0.1-0.1-0.2z" opacity=".004"></path><path fill="#797b88" d="m8.4 24.6c-0.1 0.2-0.1 0.4 0 0.6 0.2-0.1 0.4-0.2 0.6-0.3 0.1 0 0.2 0.1 0.2 0.2-0.4 0.4-0.8 0.7-1.1 1-0.1 0-0.1 0.1-0.2 0.1-0.1-0.2-0.3-0.4-0.5-0.6-0.4-0.7-0.2-1 0.6-0.9 0.2 0.1 0.3 0 0.4-0.2 0 0 0 0 0 0.1z"></path><path fill="#0c0b0d" d="m7.7 25c0.2 0.1 0.3 0.2 0.5 0.3 0 0.3-0.1 0.3-0.4 0.3-0.2-0.2-0.3-0.4-0.1-0.6z"></path><path fill="#949cb1" d="m28.2 24.9c0.1 0.2 0.2 0.3 0.2 0.4 0 0.2-0.1 0.4-0.3 0.5-0.1-0.1-0.3-0.2-0.4-0.3 0.1 0 0.1 0 0.2-0.1 0.1-0.1 0.2-0.3 0.3-0.5z"></path><path fill="#5a5a5b" d="m33.7 25.4h0.1c0 0.1 0 0.1-0.1 0.2v-0.2z m-31.3 0.1h0v0.1c0 0-0.1 0 0-0.1z" opacity=".004"></path><path fill="#7b7e8d" d="m28 24.4l0.3 0.1c-0.1 0.1-0.2 0.2-0.4 0.3-0.1 0.1-0.2 0.3-0.2 0.5 0 0.1 0.1 0.1 0.2 0.1-0.1 0.1-0.1 0.1-0.2 0.1 0.1 0.1 0.3 0.2 0.4 0.3-0.2 0.1-0.3 0.1-0.5 0v-0.7c0.1-0.3 0.2-0.5 0.4-0.7z"></path><path fill="#5a5a5b" d="m33.6 25.6h0.1c0 0 0 0.1-0.1 0.1v-0.1z m-31.2 0h0.1v0.2c-0.1-0.1-0.1-0.1-0.1-0.2z" opacity=".004"></path><path fill="#1c1d1d" d="m2.5 25.8h0.1c0 0-0.1 0-0.1 0z" opacity=".008"></path><path fill="#5a5a5b" d="m33.6 25.7h0c0.1 0.1 0 0.1 0 0.1v-0.1z" opacity=".004"></path><path fill="#1c1d1d" d="m2.6 25.9c0 0.1 0 0.1 0 0z" opacity=".008"></path><path fill="#5a5a5b" d="m33.5 25.8h0.1c0 0.1 0 0.2-0.1 0.2v-0.2z" opacity=".004"></path><path fill="#1c1d1d" d="m2.7 26.1c0 0 0 0 0 0z" opacity=".008"></path><path fill="#5a5a5b" d="m33.4 26h0.1c0 0.1 0 0.1-0.1 0.1v-0.1z" opacity=".004"></path><path fill="#5d5f6b" d="m26.8 27c-0.2-0.1-0.3-0.1-0.5 0 0-0.2-0.1-0.3-0.2-0.5-0.2 0.2-0.2 0.3 0 0.4 0 0.1 0 0.2 0 0.3-0.4-0.1-0.8-0.3-1.2-0.4 0-0.2 0-0.2 0.1-0.3 0.2 0 0.3 0 0.5 0.1 0 0 0 0 0.1-0.1 0 0.1 0 0.1 0.1 0.1 0.1-0.2 0.2-0.3 0.4-0.4-0.1-0.1-0.1-0.1-0.2-0.1 0-0.1 0-0.2-0.1-0.3 0.1-0.2 0.2-0.3 0.4-0.2 0.2 0.4 0.4 0.9 0.6 1.4z"></path><path fill="#1c1d1d" d="m33.4 26.1h0c0 0.1 0 0.1 0 0z m-30.6 0.2c-0.1-0.1-0.1-0.1 0 0z m30.5 0c0.1 0 0.1 0 0 0z" opacity=".008"></path><path fill="#5a5a5b" d="m2.8 26.3h0v0.1c0 0 0-0.1 0-0.1z" opacity=".004"></path><path fill="#1c1d1d" d="m2.8 26.4h0.1c0 0 0 0-0.1 0z" opacity=".008"></path><path fill="#2d3036" d="m30.3 24.6c0.2 0 0.5 0 0.7 0 0.2 0.2 0.3 0.4 0.3 0.6-0.6 1-1.2 1.9-1.9 2.7 0-0.1 0.1-0.2 0.1-0.3-0.1-0.2-0.1-0.3-0.1-0.5-0.3 0-0.5-0.1-0.6-0.2-0.1 0.1-0.2 0.2-0.4 0.3 0.7-0.9 1.3-1.7 1.9-2.6z"></path><path fill="#1c1d1d" d="m33.2 26.4c0.1 0 0.1 0 0 0z" opacity=".008"></path><path fill="#89a2cf" d="m25.9 26.1c0.1 0 0.1 0 0.2 0.1-0.2 0.1-0.3 0.2-0.4 0.4-0.1 0-0.1 0-0.1-0.1l0.3-0.4z"></path><path fill="#7b7c7c" d="m33.2 26.5h0c0 0 0 0.1 0 0.1v-0.1z" opacity=".004"></path><path fill="#100f11" d="m26.3 27c0-0.1-0.1-0.1-0.2-0.1-0.2-0.1-0.2-0.2 0-0.4 0.1 0.2 0.2 0.3 0.2 0.5z"></path><path fill="#878b9a" d="m9.8 25.8c0.1 0 0.2 0.1 0.3 0.3-0.4 0.3-0.7 0.6-1.1 0.9 0.1 0.1 0.2 0.2 0.3 0.4 0 0-0.1 0.1-0.2 0.1-0.3-0.3-0.6-0.7-0.9-1.1 0.1 0 0.1-0.1 0.2-0.1 0.1 0.1 0.3 0.2 0.4 0.3 0.3-0.3 0.7-0.6 1-0.8z"></path><path fill="#5a5a5b" d="m33.1 26.6h0.1c0 0.1-0.1 0.1-0.1 0.2v-0.2z" opacity=".004"></path><path fill="#1c1d1d" d="m3.1 26.8c0 0 0 0 0 0z m29.9 0h0.1c0 0-0.1 0-0.1 0z m-0.1 0h0.1c0 0.1 0 0.1-0.1 0.2v-0.2z m-29.7 0.2c0-0.1 0-0.1 0 0z m29.7 0h0c0 0 0 0 0 0z" opacity=".008"></path><path fill="#5a5a5b" d="m3.2 27h0.1c-0.1 0.2-0.1 0.2-0.1 0z" opacity=".004"></path><path fill="#6e707a" d="m10.2 26.8c0.2 0.1 0.4 0.2 0.6 0.3 0 0.2-0.1 0.3-0.4 0.3l-0.3-0.4c0-0.1 0-0.2 0.1-0.2z"></path><path fill="#1c1d1d" d="m32.8 27.1c0.1 0.1 0.1 0.1 0 0z" opacity=".008"></path><path fill="#8a8d9a" d="m26.1 26.9c0.1 0 0.2 0 0.2 0.1 0.2-0.1 0.3-0.1 0.5 0 0.1 0.1 0.1 0.3 0 0.4-0.3 0-0.5 0-0.7-0.2 0-0.1 0-0.2 0-0.3z"></path><path fill="#5a5a5b" d="m3.4 27.2c0 0 0 0.1 0 0.1-0.1 0-0.1-0.1 0-0.1z m29.3 0h0.1c0 0 0 0.1-0.1 0.1v-0.1z" opacity=".004"></path><path fill="#1c1d1d" d="m32.7 27.3h0c0 0.1 0 0.1 0 0z" opacity=".008"></path><path fill="#7b7c7c" d="m32.6 27.4h0.1c0 0.1-0.1 0.1-0.1 0.1v-0.1z" opacity=".004"></path><path fill="#1c1d1d" d="m32.5 27.5h0.1c0 0.1 0 0.1-0.1 0z" opacity=".008"></path><path fill="#5a5a5b" d="m32.4 27.6h0.1c0 0.1 0 0.1-0.1 0.1v-0.1z" opacity=".004"></path><path fill="#1c1d1d" d="m32.4 27.7h0c0 0.1 0 0.1 0 0z m-28.6 0.1c0 0.1 0 0.1 0 0z m28.5 0h0.1c0 0.1-0.1 0.1-0.1 0z m-0.1 0.1c0.1 0.1 0.1 0.1 0 0z m0 0.1h0c0 0.1 0 0.1 0 0z" opacity=".008"></path><path fill="#676872" d="m11.6 29.3c0.1 0 0.1-0.1 0.1-0.2 0.1 0 0.2 0 0.2-0.1 0 0 0-0.1-0.1-0.1-0.1-0.2-0.3-0.5-0.5-0.7-0.1-0.6 0.2-0.8 0.8-0.6 0.4 0.1 0.6 0.5 0.5 0.9-0.3 0-0.5-0.2-0.5-0.5-0.1-0.1-0.2-0.1-0.4-0.1-0.1 0.1-0.1 0.2 0 0.3 0.5 0.2 0.6 0.6 0.4 1.1-0.2 0.1-0.4 0.1-0.5 0z"></path><path fill="#7b7c7c" d="m32.1 28.1h0.1c0 0.1 0 0.1-0.1 0.1v-0.1z" opacity=".004"></path><path fill="#5a5a5b" d="m4 28.1c0.1 0 0 0.1 0 0.1 0 0 0-0.1 0-0.1z" opacity=".004"></path><path fill="#5c5e6a" d="m24.2 27.5c0.5 0.2 1.1 0.5 1.6 0.9 0 0.1-0.1 0.2-0.3 0.2-0.4-0.2-0.8-0.4-1.1-0.6 0 0 0-0.1 0-0.2-0.1-0.1-0.2-0.2-0.2-0.3z"></path><path fill="#1c1d1d" d="m32 28.2h0.1c0 0.1 0 0.1-0.1 0z m0 0.1h0c0 0 0 0 0 0z" opacity=".008"></path><path fill="#7b7c7c" d="m31.9 28.4h0.1c0 0-0.1 0.1-0.1 0.1v-0.1z" opacity=".004"></path><path fill="#7d859d" d="m22.8 28.2c0 0.1-0.1 0.2-0.2 0.2 0.1 0.1 0.2 0.2 0.1 0.3l-0.3 0.1c-0.1 0-0.2-0.1-0.3-0.1-0.1 0-0.2 0-0.3 0.1 0.3-0.3 0.6-0.5 1-0.6z"></path><path fill="#1c1d1d" d="m31.8 28.5h0.1c0 0.1 0 0.1-0.1 0z m-0.1 0.1h0.1c0 0 0 0-0.1 0z" opacity=".008"></path><path fill="#151a23" d="m10.4 29.6c0 0.1-0.1 0.2-0.1 0.2-0.2 0.1-0.3 0-0.5 0-0.1 0-0.2 0.1-0.3 0.1 0 0.1 0.2 0.3 0.4 0.4-0.1 0.1-0.2 0.1-0.3 0.1-0.1-0.2-0.3-0.3-0.5-0.2-0.4-0.3-0.7-0.5-1-0.9 0.2-0.3 0.4-0.6 0.7-0.8 0.5 0.4 1 0.8 1.6 1.1z"></path><path fill="#1c1d1d" d="m31.7 28.7h0c0 0 0 0 0 0z" opacity=".008"></path><path fill="#7b7c7c" d="m31.6 28.8c0.1 0 0.1 0 0 0z" opacity=".004"></path><path fill="#9195a4" d="m11.8 28.9c0.1 0 0.1 0.1 0.1 0.1 0 0.1-0.1 0.1-0.2 0.1 0 0.1 0 0.2-0.1 0.2-0.5-0.1-0.7-0.4-0.5-0.9 0.1 0.1 0.1 0.1 0.2 0.2 0.1 0.3 0.3 0.4 0.5 0.3z"></path><path fill="#515157" d="m22.4 28.8c-0.1 0.1-0.3 0.1-0.4 0.2-0.1 0-0.2-0.1-0.2-0.2 0.1-0.1 0.2-0.1 0.3-0.1 0.1 0 0.2 0.1 0.3 0.1z"></path><path fill="#1c1d1d" d="m31.5 28.9h0.1c0 0 0 0-0.1 0z" opacity=".008"></path><path fill="#797c8a" d="m24.2 27.5c0 0.1 0.1 0.2 0.2 0.3 0 0.1 0 0.2 0 0.2 0.2 0.4 0.3 0.7 0.5 1.1-0.1 0.1-0.2 0.3-0.3 0.3-0.3-0.6-0.6-1.2-0.7-1.8 0.1-0.1 0.1-0.1 0.3-0.1z"></path><path fill="#1c1d1d" d="m31.5 28.9h0c0 0.1 0 0.1 0 0z" opacity=".008"></path><path fill="#6178a5" d="m20.9 28.9c0.1 0 0.1 0 0.2 0.1-0.4 0.1-0.7 0.2-1.1 0.3 0-0.1 0-0.1 0.1-0.2 0.3 0 0.5-0.1 0.8-0.2z"></path><path fill="#7b92c1" d="m23 28.9c0 0.1 0 0.1 0 0.1-0.3 0.2-0.5 0.3-0.7 0.4-0.1 0-0.1-0.1 0-0.1l0.7-0.4z"></path><path fill="#1c1d1d" d="m31.4 29h0.1c0 0.1-0.1 0.1-0.1 0z m-0.1 0.1h0.1c0 0 0 0-0.1 0z" opacity=".008"></path><path fill="#72737e" d="m20.9 28.9c0.1 0 0.2-0.1 0.4 0 0.1 0.5 0.3 1 0.5 1.6-0.2 0-0.3 0.1-0.4 0.1l-0.1-0.1c-0.1-0.4-0.2-0.7-0.4-1.1-0.2 0-0.4 0-0.6 0.1-0.2 0-0.3-0.1-0.3-0.2 0.4-0.1 0.7-0.2 1.1-0.3-0.1-0.1-0.1-0.1-0.2-0.1z"></path><path fill="#636571" d="m23.4 29.8c-0.1 0-0.1-0.1 0-0.2-0.1-0.1-0.1-0.1-0.2-0.1 0-0.1 0-0.2-0.1-0.2-0.2 0.1-0.4 0.2-0.7 0.3-0.1 0-0.1-0.1-0.1-0.2 0.2-0.1 0.4-0.2 0.7-0.4 0 0 0 0 0-0.1-0.1-0.1-0.2-0.2-0.3-0.2 0.1-0.1 0-0.2-0.1-0.3 0.1 0 0.2-0.1 0.2-0.2 0.1-0.1 0.1-0.1 0.2 0l0.8 1.4c-0.1 0.1-0.2 0.2-0.4 0.2z"></path><path fill="#7b7c7c" d="m31.3 29.2c0 0.1 0 0.1 0 0z" opacity=".004"></path><path fill="#1c1d1d" d="m31.2 29.3h0.1c-0.1 0-0.1 0-0.1 0z" opacity=".008"></path><path fill="#848b9f" d="m18.7 29.3c0.2 0.1 0.4 0.1 0.5 0 0 0.1-0.1 0.2 0 0.3-0.1-0.1-0.2 0-0.3 0h0c-0.1 0-0.2-0.1-0.3-0.2l-0.2 0.2c0 0 0 0 0 0 0.1-0.2 0.2-0.3 0.3-0.3z"></path><path fill="#1c1d1d" d="m31.1 29.4h0.1c0 0-0.1 0-0.1 0z m-0.1 0h0.1c0 0.1 0 0.1-0.1 0z m0 0.1h0c0 0 0 0 0 0z m-0.1 0.1h0.1c0 0-0.1 0-0.1 0z m-0.1 0h0.1c0 0.1 0 0.1-0.1 0z" opacity=".008"></path><path fill="#696a75" d="m13.2 28.4c0.1 0 0.3 0 0.4 0.1 0.1 0.4 0.2 0.7 0.3 1.1 0.1-0.4 0.2-0.7 0.3-0.9 0.1 0 0.2 0 0.3 0-0.1 0.6-0.2 1.1-0.4 1.6-0.2 0.1-0.3 0.1-0.4 0-0.1-0.4-0.2-0.8-0.3-1.1-0.1 0.3-0.2 0.6-0.4 0.9 0 0-0.1 0-0.2 0 0-0.6 0.2-1.2 0.4-1.7z"></path><path fill="#070708" d="m16.8 30.7c-0.3 0-0.5-0.1-0.5-0.4 0-0.5 0.2-0.7 0.7-0.6 0.2 0.2 0.2 0.4 0.2 0.6-0.1 0.2-0.2 0.3-0.4 0.4z"></path><path fill="#1c1d1d" d="m30.8 29.7h0c0 0.1 0 0.1 0 0z m-0.1 0.1h0.1c-0.1 0-0.1 0-0.1 0z" opacity=".008"></path><path fill="#58575f" d="m18.9 29.6c-0.1 0.2-0.2 0.3-0.4 0.4-0.3-0.1-0.3-0.2-0.1-0.4 0 0 0 0 0 0l0.2-0.2c0.1 0.1 0.2 0.2 0.3 0.2z"></path><path fill="#7b7c7c" d="m30.6 29.8h0.1c0 0.1 0 0.1-0.1 0z" opacity=".004"></path><path fill="#696a74" d="m14.9 30.7h0.3c0-0.2 0-0.5-0.1-0.7l-0.1 0.1c0-0.1 0-0.2-0.1-0.3 0.1-0.2 0.1-0.5 0.2-0.8 0.1 0 0.2 0 0.3 0 0 0.6 0 1.1-0.1 1.7-0.2 0.1-0.3 0.1-0.4 0z"></path><path fill="#686a77" d="m16.6 31c0.3 0.1 0.4 0 0.2-0.3 0.2-0.1 0.3-0.2 0.4-0.4 0-0.2 0-0.4-0.2-0.6-0.5-0.1-0.7 0.1-0.7 0.6-0.2 0.1-0.3 0.2-0.3 0.3-0.2-0.5-0.2-0.9 0.3-1.3 0.6-0.2 1 0 1.3 0.5 0.1 0.7-0.1 1.1-0.8 1.3-0.1 0-0.1 0-0.2-0.1z"></path><path fill="#8e96aa" d="m23.2 29.5c0.1 0 0.1 0 0.2 0.1-0.1 0.1-0.1 0.2 0 0.2-0.2 0.2-0.5 0.3-0.7 0.5-0.2-0.1-0.2-0.3-0.2-0.4 0.3-0.1 0.5-0.3 0.7-0.4z"></path><path fill="#7b7c7c" d="m30.6 30c0 0 0 0 0 0z" opacity=".004"></path><path fill="#393b3f" d="m29.4 27.9c-1.4 1.8-3.2 3.1-5.2 4-0.6 0.2-1.1 0.4-1.6 0.5-0.3 0.1-0.6 0.1-0.8 0.1 0 0 0.1-0.1 0.1-0.2-0.1-0.3-0.2-0.6-0.3-0.9 0.2 0 0.3 0 0.4-0.1 2.5-0.8 4.7-2.2 6.4-4.1 0.2-0.1 0.3-0.2 0.4-0.3 0.1 0.1 0.3 0.2 0.6 0.2 0 0.2 0 0.3 0.1 0.5 0 0.1-0.1 0.2-0.1 0.3z"></path><path fill="#7b7c7c" d="m30.4 30.1h0.2c-0.1 0.1-0.2 0.1-0.2 0z" opacity=".004"></path><path fill="#9193a1" d="m14.9 29.8c0.1 0.1 0.1 0.2 0.1 0.3l0.1-0.1c0.1 0.2 0.1 0.5 0.1 0.7h-0.3c0-0.3 0-0.6 0-0.9z"></path><path fill="#7b7c7c" d="m30.1 30.4c0.1 0.1 0.1 0.1 0 0z" opacity=".004"></path><path fill="#666772" d="m18.7 29.3c0.5-0.2 0.9 0 1.1 0.5 0.2 0.3 0.2 0.6 0 1-0.1 0.1-0.2 0.1-0.4 0.2 0.1-0.2 0.1-0.4 0-0.5 0.1-0.3 0-0.5-0.1-0.8-0.1-0.1-0.2-0.1-0.4-0.1 0.1 0 0.2-0.1 0.3 0-0.1-0.1 0-0.2 0-0.3-0.1 0.1-0.3 0.1-0.5 0z"></path><path fill="#1c1d1d" d="m30 30.5h0.1c-0.1 0-0.1 0-0.1 0z m-0.1 0.1h0.1c0 0 0 0-0.1 0z m-0.1 0h0.1c0 0.1 0 0.1-0.1 0z" opacity=".008"></path><path fill="#9395a2" d="m16.3 30.3c0 0.3 0.2 0.4 0.5 0.4 0.2 0.3 0.1 0.4-0.2 0.3-0.3 0-0.5-0.1-0.6-0.4 0-0.1 0.1-0.2 0.3-0.3z"></path><path fill="#1c1d1d" d="m29.8 30.7h0c0 0 0 0 0 0z m-0.1 0.1h0.1c0 0-0.1 0-0.1 0z m-0.1 0h0.1c0 0.1 0 0.1-0.1 0z" opacity=".008"></path><path fill="#8d92a3" d="m19.4 30.5c0.1 0.1 0.1 0.3 0 0.5-0.4 0.1-0.7 0-0.9-0.4 0-0.1 0.1-0.1 0.2-0.1l0.4 0.2c0.1-0.1 0.2-0.1 0.3-0.2z"></path><path fill="#1c1d1d" d="m6.9 31.1v0.1c-0.1-0.1-0.1-0.1 0-0.1z m22.4 0c0.1 0.1 0.1 0.1 0 0z" opacity=".008"></path><path fill="#7b7c7c" d="m6.9 31.2c0 0 0 0 0 0z" opacity=".004"></path><path fill="#1c1d1d" d="m29.2 31.2h0.1c0 0-0.1 0-0.1 0z" opacity=".008"></path><path fill="#27292f" d="m10.4 29.6c2.5 1.6 5.3 2.3 8.3 2.2-0.4 0.1-0.9 0.1-1.3 0.1l0.6 0.1c-0.4 0.1-0.5 0.2-0.1 0.4-0.1 0-0.2 0.1-0.3 0.2 0.1 0 0.2 0 0.2 0.1-0.1 0-0.1 0.1 0 0.2 0.1 0.1 0.2 0.1 0.4 0.1-0.5 0.1-1 0.1-1.5 0.2-2.6-0.3-5-1.1-7.2-2.6-0.1-0.2-0.2-0.3-0.4-0.4 0.2-0.1 0.4 0 0.5 0.2 0.1 0 0.2 0 0.3-0.1-0.2-0.1-0.4-0.3-0.4-0.4 0.1 0 0.2-0.1 0.3-0.1 0.2 0 0.3 0.1 0.5 0 0 0 0.1-0.1 0.1-0.2z"></path><path fill="#1c1d1d" d="m7.2 31.4v0.1c0-0.1 0-0.1 0-0.1z m0 0.1c0.1 0 0.1 0 0 0z m21.7 0c0.1 0 0.1 0 0 0z" opacity=".008"></path><path fill="#9598a4" d="m32.5 26.4c-0.4 0.7-0.8 1.3-1.3 2-2.8 3.5-6.5 5.5-11.1 6.1 0.3-0.2 0.6-0.4 0.9-0.5l0.2 0.1c0.2-0.2 0.4-0.4 0.7-0.6 0.3 0 0.5-0.1 0.7-0.3 0.1 0.1 0.1 0.1 0.1 0.2 0.5-0.1 0.9-0.4 1.2-0.7 0.2 0 0.4 0 0.5-0.1 0.1 0 0.1-0.1 0-0.1 0.3-0.1 0.6-0.2 0.9-0.4 0.3-0.3 0.7-0.5 1.1-0.5 0.2-0.2 0.5-0.3 0.7-0.4l0.1-0.2 0.1 0c0.1-0.1 0.3-0.1 0.5-0.2 0 0 0-0.1-0.1-0.1 0.1-0.1 0.2-0.2 0.4-0.4 0.1 0.1 0.2 0.1 0.3 0.1v-0.2c0.1 0 0.2 0 0.3-0.1 0.4-0.3 0.8-0.6 1.3-1l0 0c0.2-0.1 0.3-0.3 0.4-0.4 0.5-0.2 0.8-0.6 1-1.1 0.3-0.2 0.5-0.4 0.6-0.8 0.1-0.1 0.2-0.2 0.3-0.4 0.1 0 0.1 0 0.2 0z"></path><path fill="#1c1d1d" d="m28.8 31.5h0.1c0 0.1-0.1 0.1-0.1 0z" opacity=".008"></path><path fill="#7b7c7c" d="m28.7 31.7v-0.1h0.1c0 0.1-0.1 0.1-0.1 0.1z" opacity=".004"></path><path fill="#1c1d1d" d="m28.6 31.7h0.1c-0.1 0-0.1 0-0.1 0z" opacity=".008"></path><path fill="#a6a8b2" d="m33.9 23.5c-0.4 1-0.8 2-1.4 2.9-0.1 0-0.1 0-0.2 0-0.1 0.2-0.2 0.3-0.3 0.4-0.1 0.4-0.3 0.6-0.6 0.8-0.2 0.5-0.5 0.9-1 1.1-0.1 0.1-0.2 0.3-0.4 0.4l0 0c-0.5 0.4-0.9 0.7-1.3 1-0.1 0.1-0.2 0.1-0.3 0.1v0.2c-0.1 0-0.2 0-0.3-0.1-0.2 0.2-0.3 0.3-0.4 0.4 0.1 0 0.1 0.1 0.1 0.1-0.2 0.1-0.4 0.1-0.5 0.2l-0.1 0-0.1 0.2c-0.2 0.1-0.5 0.2-0.7 0.4-0.4 0-0.8 0.2-1.1 0.5-0.3 0.2-0.6 0.3-0.9 0.4 0.1 0 0.1 0.1 0 0.1-0.1 0.1-0.3 0.1-0.5 0.1-0.3 0.3-0.7 0.6-1.2 0.7 0-0.1 0-0.1-0.1-0.2-0.2 0.2-0.4 0.3-0.7 0.3-0.3 0.2-0.5 0.4-0.7 0.6l-0.2-0.1c-0.3 0.1-0.6 0.3-0.9 0.5-0.7 0.1-1.5 0.1-2.2 0.1-0.7 0-1.4 0-2-0.1 0.1 0 0.2 0 0.4 0l-0.1-0.1c0.1-0.1 0.3-0.1 0.4-0.1l-0.2 0.1c0.6 0 1.2-0.1 1.7-0.3 0.2 0 0.4 0 0.6 0 0.2 0 0.3-0.1 0.4-0.3 0.5 0 0.9-0.1 1.3-0.4-0.1-0.1-0.3-0.1-0.5-0.1 3.8-0.5 7-2.2 9.6-5 0.1 0 0.1 0 0.2 0.1 1.2-1 2.2-2.3 2.9-3.8 0-0.1 0.1-0.1 0.2-0.2 0 0-0.1-0.1-0.1-0.1 0.2-0.3 0.5-0.5 0.8-0.6l0 0c0.1-0.1 0.2-0.2 0.4-0.2z"></path><path fill="#1c1d1d" d="m28.5 31.7h0.1c0 0.1-0.1 0.1-0.1 0z m-20.7 0.1v0.1c-0.1 0-0.1-0.1 0-0.1z" opacity=".008"></path><path fill="#2e3035" d="m22 31.3c-0.1 0.1-0.2 0.1-0.4 0.1 0.1 0.3 0.2 0.6 0.3 0.9 0 0.1-0.1 0.2-0.1 0.2 0.2 0 0.5 0 0.8-0.1-1.9 0.7-3.9 0.9-5.9 0.8 0.5-0.1 1-0.1 1.5-0.2-0.2 0-0.3 0-0.4-0.1-0.1-0.1-0.1-0.2 0-0.2 0-0.1-0.1-0.1-0.2-0.1 0.1-0.1 0.2-0.2 0.3-0.2-0.4-0.2-0.3-0.3 0.1-0.4l-0.6-0.1c0.4 0 0.9 0 1.3-0.1 1.1 0 2.2-0.2 3.3-0.5z"></path><path fill="#1c1d1d" d="m28.5 31.8c0 0.1 0 0.1 0 0z m-20.7 0.1c0.1 0 0.1 0 0 0z m20.5 0c0.1 0 0.1 0 0 0z m-0.1 0.1h0.1c0 0 0 0-0.1 0z" opacity=".008"></path><path fill="#7b7c7c" d="m28.1 32.1v-0.1h0.1c0 0.1 0 0.1-0.1 0.1z" opacity=".004"></path><path fill="#1c1d1d" d="m28 32.1h0.1c0 0 0 0-0.1 0z m0 0.1c0 0 0 0 0 0z m-0.2 0c0.1 0.1 0.1 0.1 0 0z" opacity=".008"></path><path fill="#3a3a3b" d="m27.7 32.4v-0.1h0.1c0 0.1-0.1 0.1-0.1 0.1z" opacity=".008"></path><path fill="#1c1d1d" d="m27.6 32.4h0.1c0 0-0.1 0-0.1 0z m0 0c0 0.1 0 0.1 0 0z m-0.2 0.1c0.1 0.1 0.1 0.1 0 0z" opacity=".008"></path><path fill="#e2e2e4" d="m9.6 32.4c0.2 0 0.5-0.1 0.7-0.1 1 0.2 2 0.4 2.9 0.6 0.2 0.1 0.4 0 0.6-0.1 1.1 0.3 2.1 0.5 3.2 0.6-0.3 0.1-0.6 0.1-0.9 0-0.1 0-0.1 0-0.1 0.1l-0.1-0.1c-0.2 0.1-0.5 0.1-0.7 0.2-0.5-0.1-1.1-0.1-1.6 0-0.7-0.1-1.4-0.3-2.1-0.4 0 0-0.1 0-0.2 0-0.6-0.2-1.2-0.5-1.7-0.8z"></path><path fill="#5a5a5b" d="m27.2 32.7v-0.1h0.2c0 0-0.1 0.1-0.2 0.1z" opacity=".004"></path><path fill="#1c1d1d" d="m27.2 32.7h0c0 0 0 0 0 0z" opacity=".008"></path><path fill="#5a5a5b" d="m27 32.8v-0.1h0.2c0 0.1-0.1 0.1-0.2 0.1z" opacity=".004"></path><path fill="#1c1d1d" d="m9.2 32.8c0 0 0 0 0 0z" opacity=".008"></path><path fill="#7b7c7c" d="m26.9 32.9v-0.1h0.1c0 0.1 0 0.1-0.1 0.1z" opacity=".004"></path><path fill="#1c1d1d" d="m26.8 32.9h0.1c0 0 0 0-0.1 0z m-0.1 0c0.1 0.1 0.1 0.1 0 0z" opacity=".008"></path><path fill="#5a5a5b" d="m26.5 33.1v-0.1h0.2c0 0.1-0.1 0.1-0.2 0.1z" opacity=".004"></path><path fill="#1c1d1d" d="m9.7 33.1c0 0 0 0 0 0z" opacity=".008"></path><path fill="#7b7c7c" d="m26.4 33.2v-0.1h0.1c0 0 0 0.1-0.1 0.1z" opacity=".004"></path><path fill="#1c1d1d" d="m9.9 33.2c-0.1 0-0.1 0 0 0z m16.5 0c0 0 0 0 0 0z m-0.2 0c0.1 0.1 0.1 0.1 0 0z m-0.1 0.1c0 0 0 0 0 0z m-0.2 0.1c0.1 0 0.1 0 0 0z m-0.1 0c0.1 0.1 0.1 0.1 0 0z" opacity=".008"></path><path fill="#3a3a3b" d="m10.6 33.5c0 0.1-0.1 0.1-0.2 0 0.1 0 0.1 0 0.2 0z" opacity=".008"></path><path fill="#c9cacf" d="m17 33.4h0.7c0.4 0 0.9 0.1 1.3 0.1-0.1 0.2-0.3 0.3-0.5 0.2-0.5 0.1-1 0.3-1.4 0.4l-0.1 0c-0.4 0-0.8 0.1-1.2 0.2-0.1-0.1-0.2-0.1-0.3-0.1-0.2 0.1-0.4 0.2-0.6 0.1-1.3-0.2-2.5-0.5-3.6-1.1 0.1 0 0.2 0 0.2 0 0.7 0.1 1.4 0.3 2.1 0.4 0.5-0.1 1.1-0.1 1.6 0 0.2-0.1 0.5-0.1 0.7-0.2l0.1 0.1c0-0.1 0-0.1 0.1-0.1 0.3 0.1 0.6 0.1 0.9 0z"></path><path fill="#1c1d1d" d="m25.6 33.5c0.1 0.1 0.1 0.1 0 0z m-14.9 0.1c0 0 0 0 0 0z m14.8 0c0.1 0 0.1 0 0 0z m-14.7 0c0.1 0.1 0.1 0.1 0 0z m14.5 0c0.1 0.1 0.1 0.1 0 0z m-0.2 0.2v-0.1c0.2 0 0.2 0.1 0 0.1z" opacity=".008"></path><path fill="#3a3a3b" d="m11.2 33.8v0.1c-0.2-0.1-0.2-0.1 0-0.1z" opacity=".008"></path><path fill="#5a5a5b" d="m25 33.9v-0.1h0.1c0 0 0 0.1-0.1 0.1z" opacity=".004"></path><path fill="#3a3a3b" d="m11.2 33.9c0.1-0.1 0.1 0 0.2 0-0.1 0-0.2 0-0.2 0z" opacity=".008"></path><path fill="#5a5a5b" d="m25 33.9c0 0-0.1 0-0.1 0 0 0 0-0.1 0.1 0z" opacity=".004"></path><path fill="#1c1d1d" d="m11.6 33.9v0.1c-0.2 0-0.2-0.1 0-0.1z m13 0.1v-0.1c0.2 0 0.2 0.1 0 0.1z" opacity=".008"></path><path fill="#3a3a3b" d="m11.6 34c0 0 0.1 0 0.1 0-0.1 0.1-0.1 0.1-0.1 0z" opacity=".008"></path><path fill="#5a5a5b" d="m24.6 34c0 0.1 0 0.1-0.1 0 0 0 0.1 0 0.1 0z" opacity=".004"></path><path fill="#b7b9c0" d="m19.9 33.3c0.2 0 0.4 0 0.5 0.1-0.4 0.3-0.8 0.4-1.3 0.4-0.1 0.2-0.2 0.3-0.4 0.3-0.2 0-0.4 0-0.6 0-0.5 0.2-1.1 0.3-1.7 0.3l0.2-0.1c-0.1 0-0.3 0-0.4 0.1l0.1 0.1c-0.2 0-0.3 0-0.4 0-0.4 0-0.7-0.1-1-0.2 0.2 0.1 0.4 0 0.6-0.1 0.1 0 0.2 0 0.3 0.1 0.4-0.1 0.8-0.2 1.2-0.2l0.1 0c0.4-0.1 0.9-0.3 1.4-0.4 0.2 0.1 0.4 0 0.5-0.2-0.4 0-0.9-0.1-1.3-0.1 0.7 0 1.4-0.1 2.2-0.1z"></path><path fill="#1c1d1d" d="m24.3 34.1v0c0.2 0 0.2 0 0 0z" opacity=".008"></path><path fill="#49494a" d="m12.1 34.1v0.1c-0.3 0-0.3 0 0-0.1z" opacity=".008"></path><path fill="#323233" d="m24.1 34.2v-0.1h0.2c-0.1 0.1-0.1 0.1-0.2 0.1z" opacity=".008"></path><path fill="#1c1d1d" d="m12.1 34.2c0.1 0 0.1 0 0.2 0-0.1 0.1-0.1 0.1-0.2 0z" opacity=".008"></path><path fill="#5a5a5b" d="m24.1 34.2c0 0.1-0.1 0.1-0.2 0 0.1 0 0.1 0 0.2 0z" opacity=".004"></path><path fill="#1c1d1d" d="m12.5 34.3c0 0-0.1 0.1-0.2 0 0.1 0 0.1 0 0.2 0z m11.2 0c0.1 0 0.1 0 0.2 0-0.1 0-0.1 0.1-0.2 0z m-11 0c0 0.1-0.1 0.1-0.1 0.1 0 0 0-0.1 0.1-0.1z m10.8 0c0.1 0 0.1 0.1 0.2 0.1-0.1 0-0.2 0-0.2-0.1z m-10.7 0.2c0-0.1 0-0.1 0.1 0 0 0-0.1 0-0.1 0z m10.5-0.1c0.1 0 0.1 0 0.1 0.1 0 0-0.1 0-0.1-0.1z" opacity=".008"></path><path fill="#3a3a3b" d="m13 34.6c0-0.1 0-0.1 0.1-0.1 0 0.1-0.1 0.1-0.1 0.1z" opacity=".008"></path><path fill="#5a5a5b" d="m23.1 34.6c0-0.1 0.1-0.1 0.1-0.1 0 0.1-0.1 0.1-0.1 0.1z" opacity=".004"></path><path fill="#323233" d="m13.4 34.6c-0.1 0-0.1 0-0.2 0 0.1 0 0.1-0.1 0.2 0z m9.4 0c0.1-0.1 0.2 0 0.2 0-0.1 0-0.1 0-0.2 0z" opacity=".008"></path><path fill="#2e2e2f" d="m14 34.8h0.2v0c-0.1 0.1-0.2 0-0.2 0z m8 0v0c0.3 0 0.3 0 0 0z" opacity=".008"></path><path fill="#3a3a3b" d="m14.2 34.8c0.1 0 0.2 0 0.3 0.1-0.1 0-0.2 0-0.3-0.1z" opacity=".008"></path><path fill="#5a5a5b" d="m22 34.8c-0.1 0.1-0.2 0.1-0.3 0.1 0.1-0.1 0.2-0.1 0.3-0.1z" opacity=".004"></path><path fill="#3a3a3b" d="m21.3 35v-0.1c0.4 0 0.4 0.1 0 0.1z" opacity=".008"></path><path fill="#1c1d1d" d="m15.9 35.2c0.1-0.1 0.3-0.1 0.5 0-0.2 0-0.4 0-0.5 0z" opacity=".008"></path><path fill="#9e9d9e" d="m17.6 35.1h1c-0.2 0.1-0.4 0.1-0.6 0.2-0.1-0.1-0.1-0.1-0.2 0-0.1-0.1-0.1-0.1-0.2-0.2z" opacity=".004"></path><path fill="#262627" d="m19.8 35.2c0.2-0.1 0.4-0.1 0.6 0-0.2 0-0.4 0-0.6 0z" opacity=".008"></path><path fill="#29292a" d="m16.5 35.3c0.3-0.1 0.6-0.1 0.9-0.1-0.3 0.1-0.6 0.1-0.9 0.1z" opacity=".008"></path><path fill="#222224" d="m18.8 35.3c0.3-0.1 0.6-0.1 0.9-0.1-0.3 0.1-0.6 0.1-0.9 0.1z" opacity=".008"></path></svg>