<svg xmlns="http://www.w3.org/2000/svg" width="512" height="512" viewBox="0 0 512 512" version="1.1">
	<path fill-opacity="0.384" d="M 240.500 10.587 C 207.207 13.896, 186.042 18.853, 161.232 29.152 C 91.530 58.086, 39.250 117.005, 19.393 189 C 1.270 254.709, 10.850 322.908, 46.412 381.354 C 50.045 387.324, 56.247 396.549, 60.195 401.854 C 69.752 414.695, 95.902 440.722, 109 450.430 C 142.636 475.360, 180.831 491.191, 223 497.681 C 239.254 500.183, 276.984 500.193, 293 497.701 C 364.004 486.651, 423.365 449.220, 462.136 391.051 C 481.870 361.443, 495.100 327.393, 500.622 292 C 503.170 275.673, 503.180 237.105, 500.641 221 C 492.229 167.637, 469.279 122.292, 431.149 83.696 C 385.725 37.717, 326.072 12.081, 261 10.572 C 251.925 10.361, 242.700 10.368, 240.500 10.587 M 220.500 21.372 C 154.950 31.519, 101.103 64.379, 61.334 118.500 C 46.904 138.138, 33.685 165.751, 27.106 190 C 22.359 207.495, 22.455 207.014, 19.038 230.693 C 16.782 246.328, 18.315 281.104, 22.050 299 C 22.681 302.025, 23.576 306.300, 24.040 308.500 C 27.276 323.865, 35.093 345.286, 43.564 362 C 73.554 421.176, 126.859 464.945, 191.457 483.436 C 196.383 484.846, 201.108 485.955, 201.957 485.900 C 202.806 485.845, 202.464 485.508, 201.199 485.150 C 199.933 484.793, 205.558 484.426, 213.699 484.335 C 230.936 484.143, 237.422 483.494, 247 481 C 248.925 480.499, 252.200 479.821, 254.278 479.494 C 256.356 479.167, 257.792 478.472, 257.469 477.949 C 257.128 477.398, 259.315 476.937, 262.691 476.850 C 265.886 476.768, 262.037 476.349, 254.137 475.920 C 229.784 474.598, 214.762 472.250, 196.051 466.844 C 135.817 449.441, 85.519 406.939, 58.366 350.500 C 35.960 303.928, 30.913 251.061, 44.093 201 C 57.865 148.692, 91.725 102.668, 137.695 73.776 C 175.393 50.082, 216.288 38.982, 261 40.309 C 294.478 41.302, 322.216 48.097, 351.500 62.478 C 415.264 93.792, 459.672 152.872, 472.156 223 C 474.764 237.649, 475.718 266.543, 474.072 281.056 C 469.556 320.881, 454.905 357.921, 430.781 390.500 L 427.819 394.500 430.958 391 C 435.133 386.346, 445.624 370.424, 450.994 360.594 C 453.369 356.245, 456.159 351.841, 457.193 350.807 C 458.227 349.773, 458.802 348.489, 458.472 347.955 C 457.499 346.381, 459.003 343, 460.676 343 C 461.820 343, 462.055 342.357, 461.589 340.500 C 461.211 338.991, 461.389 338, 462.040 338 C 462.633 338, 462.865 337.591, 462.556 337.090 C 461.801 335.869, 463.002 332.883, 464 333.500 C 464.435 333.769, 465.048 333.316, 465.364 332.494 C 465.679 331.672, 465.527 331, 465.025 331 C 464.523 331, 465.437 329.550, 467.056 327.777 C 470.440 324.072, 470.918 321.779, 469.612 315.500 L 468.988 312.500 470.054 315.181 C 470.773 316.988, 471.717 317.747, 472.951 317.509 C 474.789 317.155, 481 322.337, 481 324.226 C 481 324.769, 481.681 324.953, 482.512 324.634 C 483.703 324.177, 483.911 324.633, 483.489 326.777 L 482.954 329.500 484.038 327 C 486.678 320.908, 492.067 296.330, 493.466 284 C 499.763 228.489, 485.995 172.231, 454.433 124.500 C 423.073 77.076, 371.736 40.901, 315.359 26.499 C 294.567 21.188, 284.242 19.909, 258.500 19.455 C 238.122 19.096, 233.790 19.315, 220.500 21.372 M 258.083 72.359 C 258.313 72.557, 260.750 73.004, 263.500 73.352 C 266.913 73.785, 268.024 73.676, 267 73.009 C 265.646 72.126, 257.090 71.503, 258.083 72.359 M 225.269 75.693 C 226.242 75.947, 227.592 75.930, 228.269 75.656 C 228.946 75.382, 228.150 75.175, 226.500 75.195 C 224.850 75.215, 224.296 75.439, 225.269 75.693 M 275.500 154.733 C 265.501 157.236, 261.093 170.773, 266.647 181.919 C 273.287 195.244, 289.684 196.954, 296.206 185 C 297.701 182.260, 298.046 179.939, 297.792 174.313 C 297.518 168.256, 296.996 166.448, 294.470 162.813 C 289.878 156.204, 282.379 153.010, 275.500 154.733 M 243.500 188.888 C 240.066 190.887, 227.695 197.472, 207.500 208.051 C 180.698 222.090, 181.531 221.559, 181.195 224.814 C 181.028 226.439, 181.612 232.658, 182.495 238.634 C 183.377 244.611, 184.535 252.650, 185.069 256.500 C 185.602 260.350, 186.394 265.300, 186.828 267.500 C 187.753 272.189, 187.468 272.837, 192.548 254.500 C 196.583 239.936, 196.237 241.197, 197.981 234.684 C 198.724 231.909, 200.166 229.294, 201.385 228.512 C 203.209 227.342, 212.896 224.711, 234.849 219.423 L 240.197 218.135 239.513 221.817 C 238.197 228.907, 230.167 260.878, 229.338 262.335 C 228.877 263.143, 218.652 273.401, 206.615 285.130 L 184.729 306.455 171.615 306.231 C 164.402 306.108, 151.412 305.723, 142.750 305.376 C 134.087 305.028, 127 304.969, 127 305.244 C 127 305.518, 131.838 307.893, 137.750 310.520 C 143.663 313.148, 151.650 316.748, 155.500 318.522 C 173.960 327.024, 187.840 333, 189.125 333 C 189.906 333, 192.109 331.724, 194.022 330.165 C 195.935 328.605, 205.988 320.697, 216.362 312.592 L 235.223 297.854 239.862 298.904 C 244.069 299.856, 261.250 303.056, 270 304.517 C 273.495 305.101, 286.661 307.648, 290.562 308.496 C 291.697 308.742, 296.152 312.894, 300.463 317.722 C 320.304 339.942, 335.471 356.086, 335.743 355.272 C 335.906 354.782, 332.179 343.157, 327.459 329.440 C 322.740 315.723, 317.114 299.372, 314.958 293.104 C 312.802 286.836, 310.416 280.758, 309.656 279.597 C 308.584 277.962, 303.573 276.179, 287.405 271.679 C 275.928 268.484, 266.354 265.688, 266.131 265.465 C 265.908 265.241, 268.628 262.008, 272.175 258.279 C 275.723 254.551, 281.253 248.688, 284.465 245.250 C 287.677 241.813, 290.613 239, 290.991 239 C 291.368 239, 298.599 246.425, 307.060 255.500 C 315.521 264.575, 322.790 272, 323.214 272 C 323.637 272, 329.553 268.850, 336.362 265 C 349.069 257.814, 351.665 256.824, 350.613 259.565 C 350.177 260.702, 350.490 260.996, 351.756 260.640 C 352.715 260.370, 355.075 259.854, 357 259.492 C 358.925 259.131, 362.188 258.405, 364.250 257.879 L 368 256.923 368 237.961 C 368 227.533, 367.661 219, 367.246 219 C 366.302 219, 353.304 223.694, 351.977 224.514 C 351.440 224.846, 350.997 227.679, 350.993 230.809 C 350.989 233.939, 350.705 239.473, 350.362 243.106 L 349.738 249.712 339.119 250.376 C 328.518 251.038, 328.496 251.035, 326.381 248.418 C 325.216 246.976, 323.380 244.154, 322.303 242.148 C 317.868 233.892, 310.519 221.383, 309.126 219.720 C 308.307 218.741, 302.205 214.955, 295.568 211.307 C 280.696 203.132, 276.188 200.654, 270.750 197.661 C 248.964 185.673, 249.003 185.685, 243.500 188.888 M 468 317.941 C 468 318.459, 468.445 319.157, 468.989 319.493 C 469.555 319.843, 469.723 319.442, 469.382 318.552 C 468.717 316.820, 468 316.503, 468 317.941 M 413.345 335.543 C 413.019 336.392, 412.976 337.310, 413.249 337.583 C 413.523 337.856, 413.986 337.161, 414.279 336.040 C 414.903 333.657, 414.210 333.289, 413.345 335.543 M 424.924 397.750 L 422.500 400.500 425.250 398.076 C 427.820 395.810, 428.459 395, 427.674 395 C 427.495 395, 426.258 396.238, 424.924 397.750 M 283.750 474.662 C 284.438 474.940, 285.563 474.940, 286.250 474.662 C 286.938 474.385, 286.375 474.158, 285 474.158 C 283.625 474.158, 283.063 474.385, 283.750 474.662 M 273.762 475.707 C 275.006 475.946, 276.806 475.937, 277.762 475.687 C 278.718 475.437, 277.700 475.241, 275.500 475.252 C 273.300 475.263, 272.518 475.468, 273.762 475.707 M 204.813 486.683 C 205.534 486.972, 206.397 486.936, 206.729 486.604 C 207.061 486.272, 206.471 486.036, 205.417 486.079 C 204.252 486.127, 204.015 486.364, 204.813 486.683" stroke="none" fill="black" fill-rule="evenodd"/>
	<path fill-opacity="0.376" d="M 221.166 13.132 C 194.360 17.018, 171.729 24.095, 146.500 36.480 C 82.845 67.729, 35.996 125.164, 18.510 193.392 C 12.729 215.945, 11.514 226.474, 11.514 254 C 11.514 281.412, 12.691 291.693, 18.425 314.360 C 22.731 331.380, 27.501 344.191, 35.978 361.500 C 48.272 386.604, 62.719 406.757, 82.974 427.056 C 153.001 497.236, 256.866 518.828, 349 482.360 C 405.082 460.162, 450.865 417.924, 477.488 363.820 C 490.799 336.771, 498.928 308.634, 501.787 279.716 C 502.704 270.435, 502.707 242.691, 501.792 233 C 499.803 211.952, 492.917 184.448, 484.471 163.822 C 450.470 80.792, 372.633 22.298, 282.500 12.041 C 267.760 10.363, 236.422 10.921, 221.166 13.132 M 238.500 18.946 C 178.107 23.708, 121.134 50.588, 82.151 92.713 C 39.742 138.541, 18 193.138, 18 253.807 C 18 303.696, 31.009 346.722, 58.423 387.500 C 107.925 461.136, 194.715 501.335, 282.918 491.482 C 350.699 483.910, 410.488 449.404, 450.140 394.974 C 471.540 365.597, 486.958 328.690, 492.532 293.500 C 493.403 288, 494.371 274.050, 494.683 262.500 C 495.178 244.183, 494.969 239.520, 493.044 226 C 486.741 181.733, 471.314 144.987, 444.555 110.500 C 419.318 77.975, 383.995 51.584, 344.673 35.873 C 311.060 22.444, 272.370 16.275, 238.500 18.946 M 240 40.583 C 238.075 40.807, 232.225 41.478, 227 42.073 C 162.049 49.471, 100.285 89.940, 66.862 147 C 9.153 245.520, 37.976 371.976, 132.936 436.891 C 184.377 472.056, 250.753 483.875, 311.178 468.629 C 372.347 453.195, 423.419 412.101, 451.820 355.464 C 480.186 298.895, 482.349 234.911, 457.904 175.458 C 428.932 104.993, 362.523 53.654, 285.883 42.473 C 275.637 40.979, 246.802 39.791, 240 40.583 M 253.306 74.625 C 251.763 76.068, 251.259 76.712, 252.188 76.054 C 253.302 75.265, 255.510 75.096, 258.688 75.557 C 264.708 76.431, 266.898 77.550, 267.902 80.265 C 268.671 82.344, 268.740 82.326, 270.546 79.570 C 272.399 76.742, 272.399 76.740, 269.644 74.370 C 265.560 70.858, 257.193 70.988, 253.306 74.625 M 222.416 75.590 C 220.362 76.296, 217.741 77.898, 216.591 79.150 L 214.500 81.426 216.731 79.575 C 218.396 78.194, 219.298 78.002, 220.283 78.820 C 221.010 79.423, 222.592 79.658, 223.800 79.342 C 225.030 79.020, 227.046 79.455, 228.381 80.330 C 230.407 81.658, 231.044 81.689, 232.619 80.536 C 234.405 79.231, 234.407 79.107, 232.677 77.195 C 230.284 74.552, 226.953 74.030, 222.416 75.590 M 283.968 75.583 C 283.951 76.088, 283.290 81.225, 282.500 87 C 280.878 98.853, 280.695 103.082, 281.990 98.786 C 283.093 95.124, 285.156 75.823, 284.513 75.179 C 284.231 74.897, 283.986 75.079, 283.968 75.583 M 286.642 79.750 C 286.301 81.813, 286.031 84.400, 286.041 85.500 C 286.061 87.485, 286.069 87.485, 287.206 85.525 C 289.081 82.291, 289.934 76, 288.497 76 C 287.817 76, 286.983 77.688, 286.642 79.750 M 248.500 83 C 248.120 84.729, 248.018 86.351, 248.273 86.606 C 248.528 86.861, 249.024 85.632, 249.375 83.875 C 250.209 79.707, 249.401 78.899, 248.500 83 M 213.624 83.539 C 212.659 86.053, 212.943 86.702, 214.122 84.675 C 214.706 83.671, 214.973 82.639, 214.715 82.382 C 214.458 82.124, 213.966 82.645, 213.624 83.539 M 267.994 86.250 C 267.990 87.487, 267.315 89.850, 266.492 91.500 L 264.997 94.500 266.998 92.139 C 268.748 90.076, 269.869 84, 268.500 84 C 268.225 84, 267.997 85.013, 267.994 86.250 M 316.084 87.750 C 312.701 100.521, 313.035 104.064, 316.503 92.203 C 317.516 88.740, 319.055 85.491, 319.923 84.984 C 321.227 84.221, 321.117 84.056, 319.289 84.030 C 317.566 84.007, 316.857 84.830, 316.084 87.750 M 299.154 90.154 C 298.501 92.984, 298.148 95.481, 298.370 95.704 C 298.593 95.926, 299.326 93.809, 300 91 C 300.674 88.191, 301.027 85.693, 300.783 85.450 C 300.540 85.207, 299.807 87.324, 299.154 90.154 M 187.632 92 C 188.579 95.848, 190.830 100.683, 190.892 99 C 190.923 98.175, 190.063 95.700, 188.983 93.500 C 187.885 91.265, 187.289 90.603, 187.632 92 M 167.200 94.596 C 163.981 96.525, 163.161 97.489, 163.941 98.429 C 164.514 99.119, 164.687 99.980, 164.325 100.342 C 163.076 101.591, 165.078 100.995, 167.785 99.313 C 172.414 96.435, 173.886 94.866, 173.326 93.406 C 172.603 91.524, 172.194 91.603, 167.200 94.596 M 259.429 98 C 259.429 99.100, 259.955 100, 260.598 100 C 261.241 100, 262.002 99.100, 262.290 98 C 262.661 96.582, 262.320 96, 261.121 96 C 260.095 96, 259.429 96.788, 259.429 98 M 332.278 97.250 C 330.609 99.407, 330.152 101.629, 331.077 103.091 C 331.714 104.097, 331.974 103.628, 331.985 101.450 C 331.993 99.773, 332.540 97.860, 333.200 97.200 C 333.860 96.540, 334.140 96, 333.822 96 C 333.505 96, 332.810 96.563, 332.278 97.250 M 342.590 97.627 C 342.246 98.521, 342.536 99.941, 343.233 100.780 C 343.930 101.620, 344.359 103.138, 344.187 104.154 C 343.779 106.563, 345.189 106.513, 346.961 104.054 C 347.733 102.983, 348.732 102.335, 349.182 102.613 C 351.015 103.745, 349.832 100.741, 347.545 98.455 C 344.677 95.586, 343.451 95.381, 342.590 97.627 M 297.079 98.583 C 297.127 99.748, 297.364 99.985, 297.683 99.188 C 297.972 98.466, 297.936 97.603, 297.604 97.271 C 297.272 96.939, 297.036 97.529, 297.079 98.583 M 308.697 98.393 C 308.288 99.434, 308.189 100.522, 308.476 100.810 C 309.389 101.722, 310.191 100.227, 309.809 98.328 C 309.459 96.588, 309.405 96.591, 308.697 98.393 M 227.923 98.250 C 227.113 100.899, 227.427 102, 228.995 102 C 230.320 102, 230.671 101.458, 230.290 100 C 229.868 98.387, 228.248 97.189, 227.923 98.250 M 284.079 101.583 C 284.127 102.748, 284.364 102.985, 284.683 102.188 C 284.972 101.466, 284.936 100.603, 284.604 100.271 C 284.272 99.939, 284.036 100.529, 284.079 101.583 M 296.079 101.668 C 296.036 102.311, 295.741 103.661, 295.424 104.668 C 294.877 106.409, 294.906 106.412, 295.995 104.712 C 296.626 103.729, 296.920 102.379, 296.650 101.712 C 296.295 100.837, 296.136 100.825, 296.079 101.668 M 202.188 103.884 C 201.177 104.509, 201.238 104.952, 202.477 105.981 C 204.381 107.561, 205.509 106.732, 204.327 104.620 C 203.807 103.691, 202.968 103.402, 202.188 103.884 M 170.543 104.931 C 170.226 105.443, 170.378 106.115, 170.879 106.425 C 171.380 106.735, 172.048 106.316, 172.364 105.494 C 172.986 103.874, 171.483 103.409, 170.543 104.931 M 339 107 C 339 107.550, 339.702 108, 340.559 108 C 341.416 108, 341.840 107.550, 341.500 107 C 341.160 106.450, 340.459 106, 339.941 106 C 339.423 106, 339 106.450, 339 107 M 142.715 108.763 C 141.191 110.447, 141.245 110.935, 143.492 115.786 C 144.821 118.654, 146.134 121, 146.411 121 C 147.288 121, 146.233 108.833, 145.272 107.872 C 144.713 107.313, 143.711 107.662, 142.715 108.763 M 325.079 111.583 C 325.127 112.748, 325.364 112.985, 325.683 112.188 C 325.972 111.466, 325.936 110.603, 325.604 110.271 C 325.272 109.939, 325.036 110.529, 325.079 111.583 M 175.570 115.887 C 174.801 117.130, 177.678 119.317, 179.005 118.497 C 179.785 118.015, 179.763 117.419, 178.926 116.411 C 177.585 114.795, 176.363 114.604, 175.570 115.887 M 332.651 119.468 C 331.913 121.390, 333.981 122.649, 335.046 120.926 C 335.926 119.502, 335.414 118, 334.048 118 C 333.589 118, 332.960 118.661, 332.651 119.468 M 353.872 126.750 C 352.629 128.336, 352.664 128.371, 354.250 127.128 C 355.916 125.821, 356.445 125, 355.622 125 C 355.415 125, 354.627 125.787, 353.872 126.750 M 149.473 127.885 C 149.542 128.822, 150.345 130.655, 151.258 131.957 C 152.170 133.260, 152.633 134.815, 152.286 135.413 C 151.940 136.011, 152.634 135.643, 153.828 134.595 C 155.968 132.718, 156.947 129.297, 155 130.500 C 154.450 130.840, 154 130.693, 154 130.174 C 154 129.655, 152.953 128.544, 151.674 127.706 C 149.551 126.315, 149.359 126.331, 149.473 127.885 M 360 128.883 C 360 129.369, 360.926 130.009, 362.057 130.305 C 363.745 130.746, 363.903 130.588, 362.935 129.421 C 361.614 127.830, 360 127.535, 360 128.883 M 382.630 132.988 C 377.531 138.632, 377.916 140.770, 383.213 136.227 C 384.264 135.325, 385.615 135.047, 386.713 135.507 C 387.696 135.920, 389.472 136.325, 390.661 136.408 C 392.801 136.557, 392.804 136.534, 390.957 133.940 C 387.226 128.700, 386.571 128.625, 382.630 132.988 M 378.437 133.250 L 375.500 136.500 378.750 133.563 C 381.779 130.825, 382.460 130, 381.687 130 C 381.515 130, 380.052 131.463, 378.437 133.250 M 370.437 140.250 L 367.500 143.500 370.750 140.563 C 373.779 137.825, 374.460 137, 373.687 137 C 373.515 137, 372.052 138.463, 370.437 140.250 M 115.932 141.127 C 114.741 143.353, 114.900 143.585, 119.371 146.133 C 120.820 146.959, 121.064 146.913, 120.457 145.930 C 119.929 145.077, 120.136 144.835, 121.086 145.193 C 126.168 147.107, 126.600 147.055, 126.600 144.530 C 126.600 142.488, 125.811 141.783, 122.122 140.526 C 116.640 138.658, 117.287 138.595, 115.932 141.127 M 373.033 141.689 C 371.707 142.618, 369.841 144.159, 368.888 145.112 C 367.413 146.587, 367.374 146.930, 368.629 147.411 C 369.458 147.729, 369.836 147.544, 369.493 146.989 C 369.157 146.445, 369.471 145.975, 370.191 145.945 C 370.911 145.914, 372.547 144.564, 373.826 142.945 C 376.505 139.553, 376.376 139.348, 373.033 141.689 M 364.872 144.750 C 363.629 146.336, 363.664 146.371, 365.250 145.128 C 366.212 144.373, 367 143.585, 367 143.378 C 367 142.555, 366.179 143.084, 364.872 144.750 M 388 149.604 C 384.425 152.612, 380.375 156.242, 379 157.671 C 377.625 159.100, 380.663 156.801, 385.750 152.561 C 393.609 146.012, 396.036 143.721, 394.750 144.067 C 394.613 144.104, 391.575 146.596, 388 149.604 M 128.726 150.608 C 128.365 150.968, 128.546 152.152, 129.128 153.239 C 129.905 154.691, 130.480 154.920, 131.300 154.100 C 132.119 153.281, 132.013 152.584, 130.898 151.469 C 130.063 150.635, 129.086 150.247, 128.726 150.608 M 404.500 151 C 404.840 151.550, 404.401 152, 403.524 152 C 402.239 152, 402.137 152.388, 403.001 154.003 C 403.856 155.600, 403.663 156.445, 402.047 158.180 C 400.933 159.376, 400.143 160.477, 400.293 160.626 C 401.023 161.356, 409 158.609, 408.996 157.628 C 408.992 156.264, 405.263 150, 404.456 150 C 404.140 150, 404.160 150.450, 404.500 151 M 273.500 155.412 C 261.305 160.832, 260.557 179.851, 272.170 189.250 C 281.221 196.576, 292.248 194.034, 297.110 183.500 C 299.609 178.084, 299.449 172.494, 296.623 166.500 C 293.877 160.679, 290.929 157.704, 285.768 155.548 C 281.285 153.674, 277.503 153.633, 273.500 155.412 M 390.474 162.464 C 390.310 163.034, 389.687 165.030, 389.088 166.899 C 387.767 171.025, 387.713 172.295, 388.889 171.568 C 389.378 171.266, 390.087 169.777, 390.463 168.259 C 390.840 166.742, 392.003 164.584, 393.047 163.464 C 394.916 161.460, 394.913 161.429, 392.859 161.429 C 391.712 161.429, 390.639 161.895, 390.474 162.464 M 405.774 169.250 C 398.250 180.848, 396 184.608, 396 185.583 C 396 186.368, 404.677 173.355, 409.891 164.750 C 414.191 157.653, 411.119 161.011, 405.774 169.250 M 98.725 166.752 C 97.853 167.715, 96.677 169.719, 96.113 171.204 C 95.267 173.427, 95.344 173.805, 96.543 173.345 C 97.371 173.027, 98.017 173.372, 98.040 174.143 C 98.062 174.889, 98.751 174.262, 99.572 172.750 C 101.265 169.630, 104.398 169.137, 105.920 171.750 C 107.316 174.147, 107.262 172.670, 105.839 169.547 C 105.201 168.146, 104.275 167, 103.780 167 C 103.286 167, 103.160 166.550, 103.500 166 C 104.575 164.260, 100.382 164.921, 98.725 166.752 M 109.853 177.253 C 110.357 177.757, 111.834 178.002, 113.135 177.797 C 115.136 177.482, 114.996 177.342, 112.219 176.881 C 110.231 176.552, 109.298 176.698, 109.853 177.253 M 416.575 178.579 C 414.416 179.369, 412.448 180.218, 412.201 180.465 C 411.315 181.352, 419.527 179.701, 420.737 178.749 C 421.418 178.214, 422.679 178.046, 423.539 178.377 C 424.439 178.722, 424.844 178.557, 424.493 177.989 C 423.676 176.667, 421.312 176.843, 416.575 178.579 M 404.500 182.945 C 403.400 183.396, 401.600 184.783, 400.500 186.027 L 398.500 188.291 401 186.996 C 406.814 183.986, 409.470 180.911, 404.500 182.945 M 239 191.080 C 220.440 200.930, 207.330 207.836, 194.500 214.521 C 187.350 218.246, 181.106 221.644, 180.624 222.073 C 180.126 222.516, 180.284 226.440, 180.992 231.176 C 181.675 235.754, 182.429 241.075, 182.666 243 C 182.904 244.925, 183.496 248.750, 183.982 251.500 C 184.468 254.250, 185.196 258.750, 185.599 261.500 C 186.001 264.250, 186.413 266.950, 186.513 267.500 C 186.613 268.050, 186.764 269.089, 186.848 269.809 C 187.097 271.952, 188.730 270.239, 189.276 267.262 C 189.555 265.743, 190.738 261.350, 191.905 257.500 C 193.072 253.650, 194.216 249.491, 194.446 248.258 C 194.676 247.025, 195.345 244.550, 195.932 242.758 C 196.519 240.966, 197.440 237.686, 197.979 235.469 C 198.518 233.252, 199.531 230.681, 200.230 229.757 C 201.828 227.640, 240 217.704, 240 219.404 C 240 220.029, 239.151 223.681, 238.114 227.520 C 237.076 231.359, 234.756 240.791, 232.957 248.481 L 229.687 262.462 212.094 279.541 C 202.417 288.934, 192.108 298.820, 189.184 301.508 L 183.869 306.396 177.184 306.232 C 173.508 306.142, 160.600 305.784, 148.500 305.438 C 134.551 305.038, 126.866 305.156, 127.500 305.760 C 128.050 306.284, 142.190 312.853, 158.923 320.357 L 189.347 334.001 198.423 326.983 C 203.415 323.123, 213.522 315.248, 220.883 309.482 C 229.444 302.777, 235.134 299, 236.675 299 C 238 299, 242.328 299.648, 246.292 300.441 C 250.256 301.233, 261.375 303.301, 271 305.035 C 280.625 306.770, 289.625 308.640, 291 309.192 C 293.054 310.015, 320.392 339.197, 332.690 353.693 C 338.424 360.452, 338.771 361.786, 322.131 313 C 318.286 301.725, 313.983 289.352, 312.570 285.504 C 311.156 281.657, 310 278.431, 310 278.337 C 310 277.848, 299.648 274.656, 284.250 270.395 C 274.762 267.770, 267.010 265.370, 267.023 265.061 C 267.051 264.382, 271.159 259.793, 282.532 247.738 L 291.108 238.646 293.905 241.573 C 295.444 243.183, 302.436 250.688, 309.442 258.250 C 316.449 265.813, 322.703 271.986, 323.341 271.969 C 323.978 271.952, 330.125 268.795, 337 264.953 C 346.481 259.654, 349.578 258.333, 349.823 259.483 C 350.001 260.318, 350.676 260.981, 351.323 260.958 C 353.356 260.885, 366.859 257.474, 367.449 256.884 C 368.224 256.109, 368.340 220.006, 367.570 219.236 C 366.950 218.617, 363.121 219.732, 355.392 222.784 L 351.285 224.406 350.683 236.369 C 350.328 243.443, 349.627 248.613, 348.968 249.020 C 346.959 250.261, 328.750 251.038, 327.425 249.938 C 326.743 249.372, 325.458 247.466, 324.571 245.704 C 323.683 243.942, 319.895 237.100, 316.153 230.500 L 309.349 218.500 291.424 208.676 C 281.566 203.273, 269.675 196.779, 265 194.244 C 260.325 191.709, 255.150 188.819, 253.500 187.821 C 251.850 186.824, 250.050 186.014, 249.500 186.023 C 248.950 186.031, 244.225 188.307, 239 191.080 M 85.266 198 C 83.698 202.029, 82.855 206.205, 83.710 205.709 C 84.144 205.457, 86.874 205.565, 89.775 205.949 C 95.683 206.732, 96.584 205.172, 91.127 203.607 C 88.202 202.769, 87.969 202.416, 88.562 199.717 C 88.982 197.804, 88.851 196.974, 88.192 197.381 C 87.631 197.728, 86.961 197.447, 86.705 196.756 C 86.432 196.022, 85.834 196.539, 85.266 198 M 99.610 208.527 C 105.022 210.901, 108.320 211.461, 107.806 209.919 C 107.282 208.347, 103.825 207.207, 99.500 207.181 L 96.500 207.163 99.610 208.527 M 98.600 313.600 C 98.244 314.527, 98.178 315.511, 98.453 315.786 C 98.728 316.061, 99.244 315.527, 99.600 314.600 C 99.956 313.673, 100.022 312.689, 99.747 312.414 C 99.472 312.139, 98.956 312.673, 98.600 313.600 M 395.750 321.577 C 393.679 323.666, 395.168 325.805, 399.443 326.881 C 406.223 328.589, 408.074 328.231, 404 326 C 402.075 324.946, 399.745 324.065, 398.823 324.042 C 397.901 324.019, 397.001 323.285, 396.823 322.410 C 396.645 321.536, 396.163 321.161, 395.750 321.577 M 417.261 324.500 C 415.926 328.852, 417.398 329.167, 418.902 324.851 C 420.219 321.074, 420.224 321, 419.168 321 C 418.710 321, 417.852 322.575, 417.261 324.500 M 106.658 332 C 104.737 334.155, 104.409 335, 105.491 335 C 106.572 335, 106.049 336.340, 103.636 339.750 C 101.788 342.363, 99.504 345.850, 98.562 347.500 C 96.868 350.464, 96.869 350.471, 98.674 348.054 C 99.678 346.709, 101.255 344.684, 102.178 343.554 L 103.857 341.500 104.760 343.910 C 105.479 345.831, 105.787 345.998, 106.272 344.734 C 106.607 343.861, 106.242 342.616, 105.462 341.968 C 104.420 341.103, 104.310 340.289, 105.051 338.905 C 106.199 336.759, 111.428 333.761, 112.373 334.707 C 112.718 335.051, 113 334.448, 113 333.367 C 113 331.474, 111.281 329, 109.965 329 C 109.616 329, 108.128 330.350, 106.658 332 M 409 329.374 C 409 329.690, 410.416 330.681, 412.146 331.575 C 413.876 332.470, 414.855 333.494, 414.323 333.851 C 412.877 334.820, 411.899 338.028, 412.669 339.274 C 413.089 339.953, 413.618 339.635, 414.067 338.434 C 414.737 336.642, 414.866 336.683, 415.832 339 C 416.404 340.375, 416.902 341.275, 416.937 341 C 416.972 340.725, 417.870 338.212, 418.933 335.417 C 420.294 331.837, 420.515 330.276, 419.683 330.139 C 414.558 329.298, 409 328.899, 409 329.374 M 90.500 334.716 C 87.478 335.438, 86.861 336.428, 88.250 338.327 C 89.436 339.949, 89.816 339.941, 94.975 338.187 C 99.967 336.490, 100.215 336.271, 97.815 335.668 C 96.369 335.305, 94.581 334.835, 93.843 334.623 C 93.104 334.411, 91.600 334.453, 90.500 334.716 M 385.020 342.476 C 384.231 343.426, 384.155 344, 384.819 344 C 386.027 344, 387.436 342.103, 386.743 341.409 C 386.491 341.158, 385.716 341.638, 385.020 342.476 M 117.641 353.031 C 116.629 354.744, 116.344 356, 116.968 356 C 117.999 356, 120.417 351.083, 119.725 350.392 C 119.544 350.210, 118.606 351.398, 117.641 353.031 M 392 351.500 C 391.293 352.352, 390.940 353.273, 391.215 353.548 C 391.490 353.823, 392.293 353.352, 393 352.500 C 393.707 351.648, 394.060 350.727, 393.785 350.452 C 393.510 350.177, 392.707 350.648, 392 351.500 M 105.016 353.707 C 103.522 355.606, 103.075 357.172, 103.518 358.957 C 104.352 362.322, 107.859 365.991, 109.601 365.323 C 110.754 364.880, 110.711 364.319, 109.345 362.007 C 108.440 360.476, 107.979 358.498, 108.319 357.611 C 109.046 355.717, 112.089 355.489, 113.800 357.200 C 114.689 358.089, 115 358.099, 115 357.239 C 115 355.897, 107.435 353.613, 105.977 354.514 C 105.440 354.846, 105 354.845, 105 354.511 C 105 354.177, 106.463 353.268, 108.250 352.491 C 110.876 351.350, 111.082 351.071, 109.323 351.039 C 108.113 351.017, 106.199 352.203, 105.016 353.707 M 385.083 354.352 C 385.313 354.545, 387.013 355.214, 388.862 355.838 C 391.799 356.831, 392.067 356.786, 390.989 355.487 C 390.310 354.669, 388.610 354, 387.211 354 C 385.812 354, 384.854 354.158, 385.083 354.352 M 377.081 356.849 C 375.448 359.901, 375.786 360.751, 377.602 358.158 C 378.483 356.900, 378.970 355.636, 378.683 355.350 C 378.396 355.063, 377.676 355.738, 377.081 356.849 M 399.565 359.081 C 397.821 361.717, 396.349 362.964, 395.409 362.603 C 394.277 362.169, 394.174 362.429, 394.943 363.773 C 397.414 368.085, 397.662 368.251, 399.862 367.074 C 402.412 365.709, 405.781 359.833, 403.781 360.240 C 402.954 360.408, 402.567 359.526, 402.688 357.750 C 402.792 356.238, 402.739 355, 402.571 355 C 402.403 355, 401.050 356.836, 399.565 359.081 M 118.214 362.958 C 119.376 365.135, 120.705 366.682, 121.167 366.397 C 121.875 365.960, 117.419 359, 116.432 359 C 116.250 359, 117.052 360.781, 118.214 362.958 M 389.158 361 C 389.158 362.375, 389.385 362.938, 389.662 362.250 C 389.940 361.563, 389.940 360.438, 389.662 359.750 C 389.385 359.063, 389.158 359.625, 389.158 361 M 369.405 365.142 C 367.507 367.276, 367.508 367.278, 369.750 365.901 C 370.988 365.141, 372 364.177, 372 363.759 C 372 362.554, 371.443 362.850, 369.405 365.142 M 136.381 370.348 C 134.880 371.640, 133.584 373.607, 133.502 374.720 C 133.356 376.706, 133.426 376.711, 137.249 375 C 142.619 372.596, 143.621 371.453, 142.035 369.542 C 140.325 367.481, 139.593 367.585, 136.381 370.348 M 135.559 372.532 C 134.491 373.339, 134.099 374, 134.686 374 C 135.274 374, 136.315 373.325, 137 372.500 C 138.557 370.624, 138.067 370.634, 135.559 372.532 M 366.500 375.765 C 364.491 378.190, 364.068 379.172, 365.218 378.737 C 366.163 378.380, 367.202 378.518, 367.527 379.044 C 368.738 381.003, 370.206 379.955, 369.605 377.561 C 369.268 376.220, 369.444 374.843, 369.996 374.502 C 371.163 373.781, 371.353 371.966, 370.250 372.072 C 369.837 372.112, 368.150 373.774, 366.500 375.765 M 118 376.277 C 118 376.980, 119.912 379.602, 122.250 382.105 C 124.588 384.607, 126.396 386.441, 126.268 386.179 C 126.141 385.917, 126.826 384.982, 127.791 384.102 C 129.860 382.213, 132.108 377.441, 131.306 376.640 C 130.998 376.332, 129.408 376.772, 127.771 377.618 C 124.989 379.057, 124.652 379.022, 122.584 377.078 C 120.087 374.733, 118 374.369, 118 376.277 M 355.405 379.250 L 353.500 381.500 355.750 379.595 C 357.864 377.805, 358.455 377, 357.655 377 C 357.465 377, 356.453 378.012, 355.405 379.250 M 145.190 384.932 C 146.978 387.796, 148.454 388.104, 149.830 385.900 C 150.554 384.741, 150.624 384, 150.008 384 C 149.454 384, 149 384.502, 149 385.115 C 149 385.791, 148 385.575, 146.461 384.567 C 143.987 382.945, 143.955 382.954, 145.190 384.932 M 371.500 385.435 C 371.500 387.371, 372.343 388.224, 375.467 389.451 C 379.225 390.928, 379.529 390.905, 381.231 389.019 C 382.219 387.924, 382.729 387.240, 382.363 387.498 C 381.997 387.757, 381.170 387.248, 380.526 386.366 C 379.881 385.485, 378.262 384.633, 376.927 384.474 C 375.592 384.314, 373.825 383.912, 373 383.581 C 371.910 383.143, 371.500 383.650, 371.500 385.435 M 341.457 393.176 C 339.894 395.004, 339.857 395.189, 341.273 394.091 C 342.789 392.916, 342.966 392.925, 342.493 394.157 C 342.190 394.948, 343.022 396.611, 344.343 397.852 C 346.306 399.697, 346.848 399.838, 347.313 398.627 C 347.625 397.813, 347.183 396.566, 346.329 395.858 C 345.475 395.149, 344.470 393.741, 344.095 392.728 C 343.458 391.005, 343.286 391.035, 341.457 393.176 M 170.710 395.002 C 170.092 397.363, 172.675 398.468, 174.513 396.630 C 175.666 395.477, 175.514 395.100, 173.538 394.199 C 171.576 393.305, 171.120 393.435, 170.710 395.002 M 316.750 405.563 C 313.038 407.469, 310 409.256, 310 409.534 C 310 409.813, 311.712 409.167, 313.805 408.099 C 317.249 406.343, 317.706 406.310, 318.617 407.754 C 319.256 408.767, 320.113 409.048, 320.963 408.523 C 322.031 407.863, 321.929 407.422, 320.460 406.347 C 319.447 405.606, 319.068 405, 319.618 405 C 320.168 405, 321.491 404.339, 322.559 403.532 C 325.528 401.286, 324.130 401.775, 316.750 405.563 M 157.100 406.800 C 156.952 410.197, 159.487 414.445, 162.472 415.805 C 165.669 417.262, 166.305 417.302, 165.499 415.998 C 165.158 415.447, 166.032 414.558, 167.440 414.023 C 170.419 412.890, 170.880 411.957, 168.102 412.684 C 165.426 413.383, 162 411.296, 162 408.965 C 162 406.759, 160.518 406.353, 159.352 408.240 C 158.830 409.084, 158.364 408.685, 157.892 406.990 C 157.215 404.556, 157.197 404.552, 157.100 406.800 M 165.500 407 C 165.840 407.550, 166.541 408, 167.059 408 C 167.577 408, 168 407.550, 168 407 C 168 406.450, 167.298 406, 166.441 406 C 165.584 406, 165.160 406.450, 165.500 407 M 172.564 409.293 C 172.940 410.279, 173.499 410.834, 173.807 410.526 C 174.115 410.219, 173.808 409.412, 173.124 408.733 C 172.136 407.753, 172.022 407.868, 172.564 409.293 M 350.044 409.185 C 350.020 410.112, 350.434 412.011, 350.964 413.405 C 351.731 415.422, 351.577 416.145, 350.214 416.940 C 349.271 417.490, 348.976 417.953, 349.559 417.970 C 350.141 417.986, 351.431 417.405, 352.425 416.679 C 354.158 415.411, 354.147 415.199, 352.160 411.429 C 351.021 409.268, 350.069 408.258, 350.044 409.185 M 194.068 414.950 C 194.016 417.580, 194.278 418.122, 195.167 417.233 C 196.031 416.369, 196.048 415.470, 195.235 413.783 C 194.202 411.639, 194.131 411.710, 194.068 414.950 M 322.250 414.768 C 319.363 416.223, 317 417.727, 317 418.111 C 317 418.494, 319.475 417.467, 322.500 415.829 C 325.525 414.190, 328 412.659, 328 412.425 C 328 411.852, 328.186 411.776, 322.250 414.768 M 293.345 414.151 C 290.855 414.827, 290.299 415.427, 290.709 416.994 C 291.121 418.569, 291.774 418.850, 293.864 418.350 C 297.032 417.591, 297.330 417.363, 297.607 415.475 C 297.905 413.439, 297 413.158, 293.345 414.151 M 217.158 418 C 217.158 419.375, 217.385 419.938, 217.662 419.250 C 217.940 418.563, 217.940 417.438, 217.662 416.750 C 217.385 416.063, 217.158 416.625, 217.158 418 M 237.708 418.750 C 238.972 422.174, 241.525 422.923, 242.267 420.086 C 242.620 418.737, 242.138 418.004, 240.634 417.600 C 237.363 416.722, 237.011 416.861, 237.708 418.750 M 267.750 417.662 C 268.438 417.940, 269 418.804, 269 419.583 C 269 420.363, 269.804 421, 270.786 421 C 271.905 421, 272.571 420.253, 272.571 419 C 272.571 417.422, 271.931 417.017, 269.536 417.079 C 267.866 417.122, 267.063 417.385, 267.750 417.662 M 324.500 418 C 324.160 418.550, 324.359 419, 324.941 419 C 325.523 419, 326 418.550, 326 418 C 326 417.450, 325.802 417, 325.559 417 C 325.316 417, 324.840 417.450, 324.500 418 M 230.443 419.418 C 229.376 420.198, 228.768 421.101, 229.091 421.424 C 229.414 421.748, 230.496 421.110, 231.494 420.006 C 233.619 417.659, 233.183 417.415, 230.443 419.418 M 263.443 419.418 C 262.376 420.198, 261.768 421.101, 262.091 421.424 C 262.414 421.748, 263.496 421.110, 264.494 420.006 C 266.619 417.659, 266.183 417.415, 263.443 419.418 M 193.079 420.583 C 193.127 421.748, 193.364 421.985, 193.683 421.188 C 193.972 420.466, 193.936 419.603, 193.604 419.271 C 193.272 418.939, 193.036 419.529, 193.079 420.583 M 325.851 423.343 C 320.620 426.318, 320.306 426.698, 321.606 428.475 C 322.982 430.358, 323.095 430.352, 327.599 428.164 C 331.412 426.312, 331.985 425.687, 330.982 424.479 C 330.017 423.316, 330.099 422.899, 331.387 422.405 C 332.995 421.788, 333.675 419.941, 332.250 420.065 C 331.837 420.101, 328.958 421.576, 325.851 423.343 M 182.550 423.655 C 182.117 425.381, 182.342 426.601, 183.192 427.140 C 185.591 428.661, 186.744 428.028, 187.382 424.840 C 188.099 421.256, 187.508 419.824, 186.553 422.832 C 185.591 425.865, 183.209 426.359, 183.773 423.409 C 184.398 420.136, 183.382 420.341, 182.550 423.655 M 198.500 422 C 198.160 422.550, 198.359 423, 198.941 423 C 199.523 423, 200 422.550, 200 422 C 200 421.450, 199.802 421, 199.559 421 C 199.316 421, 198.840 421.450, 198.500 422 M 301.656 425.545 C 301.960 426.339, 302.612 426.740, 303.105 426.435 C 304.345 425.669, 304.231 425.303, 302.551 424.658 C 301.584 424.287, 301.286 424.582, 301.656 425.545 M 213.249 428.500 C 213.251 430.700, 212.940 433.242, 212.558 434.149 C 211.684 436.225, 213.914 437.745, 215.096 435.878 C 215.577 435.120, 215.945 432.700, 215.914 430.500 C 215.872 427.445, 215.668 426.972, 215.048 428.500 C 214.330 430.269, 214.179 430.153, 213.741 427.500 C 213.330 425.014, 213.245 425.185, 213.249 428.500 M 322.500 428 C 322.840 428.550, 323.316 429, 323.559 429 C 323.802 429, 324 428.550, 324 428 C 324 427.450, 323.523 427, 322.941 427 C 322.359 427, 322.160 427.450, 322.500 428 M 282.079 429.583 C 282.127 430.748, 282.364 430.985, 282.683 430.188 C 282.972 429.466, 282.936 428.603, 282.604 428.271 C 282.272 427.939, 282.036 428.529, 282.079 429.583 M 230.572 434.674 C 230.265 435.473, 229.516 435.819, 228.907 435.443 C 228.115 434.953, 228.122 435.359, 228.930 436.869 C 231.278 441.257, 239.571 443.697, 239.571 440 C 239.571 438.728, 238.905 438, 237.740 438 C 236.733 438, 234.834 436.925, 233.519 435.610 C 231.621 433.711, 231.015 433.519, 230.572 434.674 M 264.250 434.662 C 262.011 435.566, 262.934 436.735, 265.500 436.245 C 267.287 435.903, 268 436.204, 268 437.300 C 268 438.143, 267.438 439.042, 266.750 439.297 C 264.559 440.111, 271.234 442.107, 274.066 441.486 C 276.083 441.043, 276.660 440.416, 276.305 439.057 C 276.041 438.050, 276.315 436.923, 276.913 436.554 C 277.511 436.184, 278 435.389, 278 434.786 C 278 434.183, 277.177 434.435, 276.171 435.345 C 273.892 437.408, 269.650 437.488, 268 435.500 C 266.696 433.928, 266.292 433.838, 264.250 434.662 M 241.872 436.750 C 240.629 438.336, 240.664 438.371, 242.250 437.128 C 243.916 435.821, 244.445 435, 243.622 435 C 243.415 435, 242.627 435.788, 241.872 436.750" stroke="none" fill="black" fill-rule="evenodd"/>
	<path fill-opacity="0.561" d="M 235.500 11.620 C 205.692 14.705, 181.764 20.870, 156.283 32.030 C 95.684 58.572, 46.713 110.987, 25.043 172.500 C 20.590 185.142, 15.384 205.620, 13.477 218 C 10.963 234.315, 10.445 263.757, 12.380 280.369 C 18.917 336.497, 43.090 386.878, 82.500 426.513 C 139.414 483.751, 220.120 509.529, 299.877 495.943 C 383.715 481.662, 454.224 424.663, 485.360 346 C 508.458 287.645, 508.106 221.653, 484.390 164.191 C 461.433 108.566, 420.077 64.136, 366 37 C 343.775 25.847, 315.842 17.085, 291 13.473 C 280.036 11.879, 244.475 10.692, 235.500 11.620 M 236.500 18.990 C 145.960 25.844, 67.775 83.536, 33.640 168.677 C 28.804 180.741, 22.724 202.552, 21.007 214 C 20.388 218.125, 19.458 223.938, 18.941 226.917 C 17.648 234.358, 17.754 273.479, 19.095 283.948 C 20.886 297.923, 27.540 324.847, 32.442 337.953 C 62.927 419.448, 136.913 478.682, 223.598 490.994 C 239.291 493.223, 266.645 493.677, 282.789 491.977 C 320.167 488.042, 358.190 474.352, 389.263 453.644 C 431.034 425.807, 461.102 388.623, 479.397 342.181 C 495.653 300.915, 499.339 259.243, 491 211 C 489.250 200.876, 482.777 179.619, 477.755 167.506 C 464.943 136.604, 450.342 114.560, 426.553 90.206 C 382.956 45.573, 324.280 20.085, 261.500 18.508 C 253.800 18.315, 242.550 18.531, 236.500 18.990 M 237.968 40.952 C 159.411 47.492, 90.765 94.661, 57.823 164.736 C 41.066 200.381, 34.040 242.178, 38.490 279.749 C 47.394 354.913, 92.610 419.267, 159.500 451.974 C 189.616 466.700, 216.053 473.365, 249.500 474.663 C 285.667 476.067, 320.084 468.859, 352.500 453.091 C 377.497 440.932, 395.309 427.862, 415.256 407.042 C 446.502 374.427, 466.341 332.592, 473.130 285 C 474.885 272.692, 474.591 242.793, 472.584 229.500 C 466.404 188.584, 450.956 153.294, 425.307 121.500 C 410.534 103.187, 389.500 84.950, 368 71.811 C 330.996 49.198, 281.114 37.360, 237.968 40.952 M 255.062 72.827 C 250.536 75.255, 248 80.200, 248 86.600 C 248 92.335, 250.163 95.999, 255.039 98.520 C 260.593 101.392, 270.163 99.311, 267.295 95.855 C 266.448 94.835, 266.493 94.047, 267.472 92.708 C 268.672 91.066, 268.908 91.051, 270.387 92.530 C 271.866 94.009, 272.078 93.926, 272.998 91.505 C 274.456 87.672, 274.224 80.335, 272.544 77.085 C 270.889 73.884, 265.575 71, 261.333 71 C 259.758 71, 256.936 71.822, 255.062 72.827 M 219.768 76.059 C 211.313 80.523, 210.638 92.791, 218.452 100 C 222.253 103.508, 229.731 103.541, 233.430 100.066 C 235.006 98.585, 235.609 97.376, 234.968 96.980 C 234.389 96.622, 233.540 95.018, 233.081 93.415 C 232.336 90.814, 232.172 90.715, 231.551 92.500 C 230.122 96.611, 229.220 97.508, 226.211 97.809 C 222.392 98.191, 220.460 95.587, 219.458 88.711 C 218.898 84.858, 219.108 83.538, 220.536 81.961 C 222.682 79.589, 227.556 79.385, 228.804 81.614 C 229.566 82.976, 230.080 83.033, 232.103 81.978 C 235.268 80.329, 235.137 80.521, 234.402 78.606 C 233.596 76.504, 228.846 73.986, 225.800 74.044 C 224.535 74.069, 221.821 74.975, 219.768 76.059 M 283.550 76.250 C 282.885 78.395, 281 95.449, 281 99.318 C 281 102.579, 281.286 103, 283.500 103 C 285.524 103, 286.029 102.476, 286.152 100.250 C 286.337 96.917, 286.515 95.945, 287.296 94 C 288.395 91.262, 290.144 77.042, 289.508 76.012 C 288.617 74.572, 284.013 74.756, 283.550 76.250 M 256.624 78.863 C 255.697 79.887, 254.671 82.981, 254.345 85.738 C 253.841 89.990, 254.073 91.073, 255.875 92.875 C 258.841 95.841, 263.510 95.678, 265.567 92.538 C 268.058 88.736, 268.556 82.498, 266.606 79.521 C 264.559 76.397, 259.177 76.042, 256.624 78.863 M 301.571 79.886 C 301.123 80.610, 295 104.425, 295 105.442 C 295 105.749, 295.400 106, 295.889 106 C 296.377 106, 297.109 104.313, 297.514 102.250 L 298.250 98.500 299.442 101.933 L 300.634 105.367 302.375 99.160 C 303.333 95.747, 304.540 93.216, 305.058 93.536 C 305.576 93.856, 306 94.584, 306 95.154 C 306 95.723, 306.944 99.297, 308.097 103.095 C 309.489 107.677, 310.705 110, 311.711 110 C 312.956 110, 313.096 109.152, 312.491 105.250 C 312.086 102.638, 311.650 98.475, 311.523 96 C 311.395 93.525, 310.438 89.050, 309.396 86.057 C 307.873 81.685, 306.959 80.472, 304.755 79.894 C 303.245 79.499, 301.812 79.495, 301.571 79.886 M 315.999 87.158 C 315.379 89.546, 314.453 93.075, 313.942 95 C 312.603 100.034, 312.762 101, 314.927 101 C 315.986 101, 317.001 101.767, 317.181 102.704 C 317.362 103.641, 318.782 100.003, 320.337 94.619 C 321.892 89.235, 323.014 84.680, 322.830 84.497 C 322.646 84.313, 321.288 83.859, 319.811 83.489 C 317.310 82.861, 317.050 83.112, 315.999 87.158 M 187.316 85.191 L 185.132 86.247 187.568 92.999 C 190.631 101.492, 195.232 111.324, 194.588 108 C 194.105 105.506, 194.108 105.505, 195.822 107.577 C 197.649 109.786, 198.765 109.664, 206.872 106.370 C 209.522 105.293, 210.006 104.712, 209.131 103.658 C 208.519 102.920, 208.300 102.034, 208.644 101.689 C 209.509 100.824, 203.750 102.528, 201.205 103.890 C 200.065 104.501, 198.936 105, 198.698 105 C 198.459 105, 196.581 100.275, 194.523 94.500 C 192.466 88.725, 190.494 84.030, 190.141 84.068 C 189.789 84.105, 188.517 84.610, 187.316 85.191 M 165 95.610 C 161.425 98.081, 157.861 100.479, 157.079 100.937 C 155.947 101.601, 156.891 103.774, 161.730 111.635 C 165.069 117.061, 168.184 121.432, 168.651 121.349 C 169.118 121.265, 170.236 121.591, 171.135 122.072 C 172.319 122.706, 174.513 121.822, 179.078 118.871 C 184.381 115.444, 185.112 114.642, 183.671 113.836 C 182.729 113.309, 182.262 112.385, 182.633 111.784 C 183.421 110.510, 182.372 111.073, 176.311 115.176 L 172.122 118.012 170.561 115.784 C 168.129 112.312, 168.632 111.146, 174 107.809 C 179.404 104.450, 179.758 103.874, 177.549 102.041 C 176.380 101.070, 175.228 101.435, 171.619 103.918 C 169.155 105.613, 166.674 107, 166.105 107 C 165.123 107, 162.471 103.051, 163.169 102.628 C 163.351 102.518, 166.088 100.751, 169.251 98.702 C 174.480 95.316, 174.890 94.797, 173.761 92.989 C 173.078 91.895, 172.290 91.026, 172.009 91.058 C 171.729 91.090, 168.575 93.139, 165 95.610 M 234 91.924 C 234 92.398, 234.675 93.045, 235.500 93.362 C 236.325 93.678, 237 93.549, 237 93.076 C 237 92.602, 236.325 91.955, 235.500 91.638 C 234.675 91.322, 234 91.451, 234 91.924 M 283.158 96 C 283.158 97.375, 283.385 97.938, 283.662 97.250 C 283.940 96.563, 283.940 95.438, 283.662 94.750 C 283.385 94.063, 283.158 94.625, 283.158 96 M 332.039 97.189 C 330.918 98.392, 330 100.435, 330 101.727 C 330 104.439, 336.593 111.976, 339.311 112.372 C 340.308 112.517, 342.220 113.912, 343.561 115.473 L 346 118.311 346 114.804 C 346 111.878, 345.174 110.537, 341.011 106.702 C 337.645 103.601, 336.219 101.592, 336.629 100.523 C 337.727 97.662, 344 100.709, 344 104.103 C 344 105.240, 344.949 106.200, 346.443 106.575 C 351.972 107.963, 352.615 103.415, 347.600 98.400 C 344.629 95.429, 343.561 95, 339.139 95 C 335.220 95, 333.618 95.494, 332.039 97.189 M 142.481 109.021 C 140.695 110.994, 140.753 111.236, 144.885 119.129 C 147.213 123.576, 148.913 127.420, 148.663 127.671 C 148.412 127.921, 144.497 126.261, 139.963 123.981 L 131.719 119.836 129.708 121.848 L 127.697 123.859 140.342 130.158 L 152.988 136.457 155.078 134.367 L 157.168 132.276 154.251 126.388 C 152.647 123.150, 150.066 117.463, 148.517 113.750 C 146.968 110.037, 145.387 107, 145.005 107 C 144.623 107, 143.487 107.910, 142.481 109.021 M 325 112.277 C 325 118.143, 330.441 123, 337.013 123 C 339.486 123, 340.061 122.620, 339.813 121.154 C 339.641 120.138, 340.113 118.569, 340.862 117.666 C 341.673 116.689, 341.921 115.313, 341.474 114.263 C 340.828 112.742, 340.634 112.843, 340.069 114.995 C 339.708 116.367, 338.622 117.642, 337.657 117.828 C 334.858 118.367, 331 115.266, 331 112.477 C 331 109.622, 328.395 109.050, 327.689 111.750 C 327.345 113.067, 327.203 112.943, 327.116 111.250 C 326.933 107.694, 325 108.633, 325 112.277 M 327.079 115.583 C 327.127 116.748, 327.364 116.985, 327.683 116.188 C 327.972 115.466, 327.936 114.603, 327.604 114.271 C 327.272 113.939, 327.036 114.529, 327.079 115.583 M 377.647 122.838 C 376.090 124.558, 376.112 124.792, 377.992 126.493 C 379.096 127.492, 379.967 129.028, 379.926 129.905 C 379.885 130.782, 376.266 134.594, 371.884 138.376 C 364.261 144.954, 363.991 145.332, 365.614 147.126 C 368.098 149.870, 369.292 149.492, 373.893 144.500 C 376.175 142.025, 378.369 139.984, 378.771 139.964 C 379.172 139.944, 380.813 138.855, 382.418 137.543 L 385.336 135.157 387.240 137.579 C 389.392 140.314, 391.218 140.647, 392.907 138.612 C 393.809 137.526, 393.470 136.493, 391.351 133.862 C 385.781 126.948, 381.712 123.173, 380.380 123.684 C 379.628 123.973, 379.303 124.682, 379.660 125.259 C 380.066 125.916, 379.820 126.007, 379.003 125.502 C 377.968 124.862, 378.039 124.444, 379.349 123.487 C 380.257 122.823, 381 121.992, 381 121.640 C 381 120.407, 379.295 121.017, 377.647 122.838 M 354.035 125.934 C 352.568 128.677, 352.752 129.451, 354.523 127.981 C 355.775 126.942, 355.947 126.973, 355.493 128.157 C 355.190 128.948, 356.037 130.625, 357.376 131.884 C 359.393 133.779, 360.171 133.979, 361.906 133.050 C 364.804 131.499, 364.561 130.608, 360.272 127.073 C 355.894 123.464, 355.405 123.375, 354.035 125.934 M 373.872 138.750 C 372.629 140.336, 372.664 140.371, 374.250 139.128 C 375.916 137.821, 376.445 137, 375.622 137 C 375.415 137, 374.627 137.787, 373.872 138.750 M 115.549 140.946 C 113.850 142.823, 113.994 143.280, 119.550 153.696 C 125.321 164.516, 128.789 170.118, 127.692 166.849 C 127.330 165.767, 127.807 165.022, 129.075 164.691 C 130.937 164.204, 130.946 164.068, 129.297 161.195 C 127.585 158.213, 127.590 158.196, 131.178 154.224 C 133.703 151.430, 135.181 150.500, 136.138 151.106 C 138.380 152.527, 140.867 152.118, 141.917 150.156 C 142.800 148.506, 141.672 147.823, 131.186 143.656 C 124.741 141.095, 118.982 139, 118.389 139 C 117.796 139, 116.517 139.876, 115.549 140.946 M 386.249 150.688 C 380.612 155.442, 376.221 159.555, 376.493 159.827 C 376.765 160.099, 377.862 159.530, 378.931 158.563 C 381 156.690, 383 157.180, 383 159.559 C 383 161.492, 383.624 161.376, 386 159 C 390.327 154.673, 391.550 157.578, 388.979 166.070 L 387.088 172.316 389.544 175.235 C 390.895 176.840, 392 177.759, 392 177.277 C 392 176.795, 391.564 175.964, 391.030 175.430 C 390.403 174.803, 390.923 172.697, 392.499 169.480 C 393.840 166.741, 394.952 163.964, 394.969 163.309 C 394.986 162.654, 395.480 161.821, 396.067 161.459 C 396.707 161.063, 397.007 161.539, 396.817 162.650 C 396.327 165.508, 402.801 165.731, 406.303 162.976 C 409.473 160.483, 409.821 156.752, 407.243 152.881 C 404.806 149.220, 398.159 141.995, 397.253 142.022 C 396.839 142.035, 391.887 145.934, 386.249 150.688 M 395.405 145.142 C 393.507 147.276, 393.508 147.278, 395.750 145.901 C 396.988 145.141, 398 144.177, 398 143.759 C 398 142.554, 397.443 142.850, 395.405 145.142 M 123.217 149.956 L 125.494 153.913 127.628 151.237 L 129.762 148.560 126.131 147.295 C 120.863 145.460, 120.710 145.600, 123.217 149.956 M 395.251 151.233 L 393.024 153.604 395.838 156.975 C 400.865 162.997, 404.661 157.838, 399.734 151.681 L 397.478 148.862 395.251 151.233 M 383.630 154.857 C 382.130 156.514, 382.113 156.849, 383.475 157.979 C 384.314 158.675, 385.031 159.077, 385.069 158.872 C 385.483 156.632, 385.804 153, 385.587 153 C 385.435 153, 384.554 153.835, 383.630 154.857 M 271.450 155.988 C 264.086 160.708, 261.369 172.986, 265.783 181.595 C 272.027 193.773, 285.548 197.245, 293.724 188.769 C 297.605 184.746, 299 181.211, 299 175.403 C 299 167.563, 293.834 159.100, 286.800 155.415 C 282.870 153.356, 275.104 153.646, 271.450 155.988 M 402.776 173.255 L 395.051 185.500 397.318 187.770 C 399.328 189.782, 399.954 189.912, 402.823 188.912 C 404.678 188.265, 406.699 186.548, 407.556 184.892 C 409.262 181.592, 411.074 181.002, 410.290 184 C 409.639 186.487, 409.286 186.509, 418.944 183.458 L 426.991 180.916 425.380 178.458 C 424.495 177.106, 423.458 176, 423.076 176 C 422.695 176, 418.684 177.350, 414.163 179 C 404.523 182.518, 404.886 182.461, 405.701 180.336 C 406.128 179.225, 405.955 178.910, 405.181 179.388 C 404.396 179.873, 404.239 179.540, 404.695 178.352 C 405.132 177.213, 405.512 177.035, 405.781 177.842 C 406.097 178.792, 406.524 178.810, 407.597 177.919 C 408.369 177.279, 409 176.373, 409 175.907 C 409 175.440, 410.422 173.041, 412.160 170.575 C 414.877 166.721, 415.132 165.864, 413.977 164.472 C 412.768 163.015, 412.480 163.136, 411.107 165.676 C 410.268 167.229, 409.675 168.838, 409.791 169.250 C 409.906 169.662, 409.550 170, 409 170 C 407.524 170, 407.779 168.854, 410 165.500 C 411.093 163.850, 411.990 162.162, 411.993 161.750 C 412.014 159.395, 409.683 162.305, 402.776 173.255 M 98.119 166.357 C 97.500 167.103, 95.724 170.809, 94.174 174.592 L 91.355 181.471 100.755 185.793 C 107.726 188.999, 110.490 189.838, 111.451 189.041 C 112.163 188.449, 113.591 188.235, 114.623 188.564 C 116.400 189.131, 116.397 189.079, 114.559 187.582 C 113.491 186.712, 112.141 185.986, 111.559 185.968 C 110.976 185.951, 109.677 185.313, 108.671 184.550 C 105.615 182.234, 108.036 179.364, 113.722 178.561 C 120.490 177.605, 122 177.051, 122 175.521 C 122 173.942, 115.068 172.526, 112.042 173.487 C 110.295 174.041, 110 173.700, 110 171.124 C 110 169.147, 109.237 167.579, 107.777 166.557 C 105.040 164.639, 99.637 164.527, 98.119 166.357 M 101.247 171.250 C 100.699 171.938, 99.516 173.945, 98.619 175.712 C 97.070 178.762, 97.086 178.976, 98.928 179.962 C 102.297 181.765, 103.642 181.114, 104.989 177.032 C 106.050 173.819, 106.057 172.773, 105.027 171.532 C 103.484 169.673, 102.561 169.604, 101.247 171.250 M 119.750 172.662 C 120.438 172.940, 121.563 172.940, 122.250 172.662 C 122.938 172.385, 122.375 172.158, 121 172.158 C 119.625 172.158, 119.063 172.385, 119.750 172.662 M 401.964 178.164 C 400.819 180.397, 400.846 180.424, 402.574 178.774 C 403.568 177.824, 404.107 176.773, 403.771 176.438 C 403.436 176.103, 402.623 176.880, 401.964 178.164 M 235.500 192.602 C 228.900 196.184, 216.525 202.756, 208 207.208 C 187.932 217.686, 181.696 221.065, 180.643 222.029 C 179.815 222.788, 182.498 244.921, 185.824 264.771 C 186.655 269.726, 187.539 271.872, 188.356 270.917 C 188.552 270.688, 191.091 261.725, 193.997 251 C 196.904 240.275, 199.632 230.810, 200.061 229.966 C 200.567 228.968, 207.534 226.754, 220.001 223.630 C 230.539 220.989, 239.307 218.980, 239.485 219.164 C 239.819 219.512, 236.714 233.224, 235.107 238.500 C 234.604 240.150, 233.209 246, 232.006 251.500 L 229.819 261.500 207.159 283.792 L 184.500 306.084 156.500 305.416 C 141.100 305.049, 128.194 304.573, 127.819 304.358 C 127.445 304.143, 126.856 304.425, 126.510 304.984 C 126.165 305.543, 126.033 306, 126.219 306 C 126.404 306, 132.618 308.735, 140.028 312.077 C 171.752 326.386, 188.875 334, 189.334 334 C 189.603 334, 199.876 326.086, 212.162 316.414 C 237.641 296.355, 233.006 298.007, 253 301.861 C 258.775 302.974, 269.800 305.044, 277.500 306.461 L 291.500 309.038 297.500 315.273 C 300.800 318.702, 310.697 329.494, 319.494 339.254 C 333.685 354.999, 337 358.269, 337 356.521 C 337 355.491, 313.281 285.969, 311.308 281.216 C 309.633 277.182, 309.812 277.257, 286.500 270.883 C 276.050 268.026, 267.331 265.552, 267.124 265.385 C 266.744 265.078, 289.987 239.663, 290.971 239.309 C 291.262 239.205, 298.250 246.474, 306.500 255.463 C 314.750 264.452, 321.977 272.028, 322.560 272.299 C 323.143 272.570, 329.443 269.465, 336.560 265.400 C 346.214 259.885, 349.582 258.388, 349.823 259.504 C 350.223 261.351, 352.647 261.275, 361 259.152 L 367.500 257.500 368.151 249 C 369.077 236.901, 369.135 219.200, 368.250 218.664 C 367.837 218.414, 363.855 219.530, 359.401 221.143 L 351.301 224.077 350.694 236.162 C 350.360 242.809, 349.805 248.529, 349.462 248.874 C 349.119 249.218, 344.021 249.650, 338.132 249.833 L 327.425 250.166 318.982 235.409 C 314.338 227.292, 309.855 219.852, 309.019 218.875 C 308.184 217.897, 300.300 213.185, 291.500 208.403 C 282.700 203.621, 269.875 196.628, 263 192.863 C 256.125 189.098, 249.825 186.033, 249 186.053 C 248.175 186.073, 242.100 189.020, 235.500 192.602 M 415.408 190.986 L 413.563 196.118 408.884 195.745 C 405.721 195.493, 404.344 195.734, 404.634 196.489 C 404.870 197.103, 406.655 197.651, 408.601 197.706 C 413.153 197.835, 413.531 198.304, 412.021 201.950 C 411.334 203.608, 411.079 205.760, 411.453 206.732 C 412.101 208.412, 412.185 208.410, 413.151 206.689 C 413.710 205.693, 413.919 204.231, 413.615 203.439 C 413.311 202.648, 413.485 202, 414 202 C 414.515 202, 414.678 201.323, 414.360 200.497 C 413.946 199.416, 414.675 198.815, 416.954 198.359 C 419.110 197.928, 419.798 197.398, 419.105 196.705 C 418.411 196.011, 417.591 196.095, 416.542 196.965 C 414.477 198.679, 414.594 197.889, 417.200 192.526 C 418.765 189.303, 419.090 187.690, 418.326 186.926 C 417.563 186.163, 416.722 187.332, 415.408 190.986 M 85.671 194.723 C 85.388 195.182, 84.193 199.326, 83.017 203.932 C 81.288 210.706, 81.130 212.466, 82.189 213.138 C 84.281 214.465, 84.740 214.186, 85.890 210.885 C 87.105 207.400, 87.652 207.376, 98 210.363 C 101.025 211.236, 104.513 212.239, 105.750 212.592 C 107.667 213.138, 108 212.852, 108 210.655 C 108 208.462, 107.365 207.912, 103.750 206.971 C 101.412 206.362, 97.125 205.107, 94.221 204.182 L 88.943 202.500 89.221 198.531 C 89.435 195.495, 89.111 194.484, 87.843 194.226 C 86.932 194.041, 85.955 194.265, 85.671 194.723 M 98.756 311.643 C 98.485 312.114, 97.705 314.229, 97.023 316.342 C 95.806 320.115, 95.705 320.178, 91.390 319.835 C 85.976 319.404, 86.102 321.105, 91.577 322.363 C 93.735 322.859, 95.615 323.357, 95.755 323.470 C 95.894 323.583, 95.501 325.133, 94.880 326.914 C 94.069 329.241, 94.057 330.457, 94.837 331.237 C 95.617 332.017, 96.272 331.012, 97.168 327.661 L 98.415 323 103.330 323 C 107.585 323, 108.078 322.799, 107 321.500 C 106.315 320.675, 104.235 320, 102.378 320 C 98.773 320, 98.481 319.495, 99.912 315.732 C 100.785 313.434, 99.778 309.870, 98.756 311.643 M 395 321.918 C 395 322.423, 394.736 323.524, 394.413 324.365 C 393.964 325.536, 395.194 326.276, 399.663 327.526 C 402.874 328.424, 407.424 330.031, 409.776 331.097 C 413.489 332.779, 413.917 333.287, 413.026 334.952 C 411.438 337.918, 411.801 339.802, 414.101 340.532 C 416.954 341.438, 417.459 340.743, 420.858 331.232 C 423.669 323.366, 423.723 322.922, 421.971 321.985 C 419.115 320.456, 418.338 320.771, 417 324 C 416.317 325.650, 415.326 327, 414.799 327 C 414.271 327, 410.015 325.650, 405.340 324 C 396.136 320.751, 395 320.523, 395 321.918 M 97 332.188 C 91.225 333.857, 86.300 335.411, 86.056 335.640 C 85.811 335.868, 86.585 337.030, 87.775 338.220 L 89.940 340.384 95.720 338.470 C 105.770 335.142, 106.068 335.076, 105.333 336.335 C 104.958 336.976, 102.880 340.136, 100.715 343.358 C 97.158 348.651, 96.902 349.448, 98.058 351.608 C 98.762 352.924, 99.599 353.988, 99.919 353.974 C 100.478 353.949, 102.492 351.060, 110.460 338.853 C 113.735 333.836, 113.999 332.972, 112.832 331.103 C 111.152 328.413, 109.714 328.512, 97 332.188 M 384.969 342.058 C 383.645 344.532, 383.379 344.189, 388.717 346.881 C 395.429 350.265, 392.146 354, 382.461 354 C 378.573 354, 377.868 354.355, 376.500 357 C 375.115 359.678, 375.112 360, 376.474 360 C 377.313 360, 378 359.550, 378 359 C 378 358.450, 378.702 358, 379.559 358 C 380.416 358, 380.904 358.346, 380.643 358.768 C 380.382 359.191, 381.930 359.369, 384.084 359.163 C 387.235 358.863, 388 359.119, 388 360.472 C 388 363.235, 393.503 368.002, 396.673 367.985 C 398.228 367.976, 400.011 367.639, 400.636 367.235 C 402.075 366.305, 408.994 354.867, 408.997 353.414 C 408.999 352.817, 404.434 349.940, 398.853 347.021 C 393.272 344.103, 388.992 342.178, 389.342 342.744 C 389.691 343.310, 389.090 344.005, 388.006 344.288 C 386.351 344.721, 386.193 344.508, 387.020 342.963 C 387.641 341.803, 387.653 340.903, 387.053 340.533 C 386.529 340.209, 385.591 340.895, 384.969 342.058 M 116.158 344.866 C 115.521 346.992, 115 349.473, 115 350.378 C 115 351.740, 114.305 351.913, 110.974 351.380 C 107.872 350.884, 106.496 351.146, 104.974 352.523 C 101.293 355.855, 102.461 360.097, 109.298 368.226 L 113.273 372.952 117.386 369.765 C 119.649 368.012, 123.887 364.572, 126.804 362.121 C 132.084 357.685, 132.099 357.655, 130.136 355.692 C 128.173 353.729, 128.146 353.734, 124.332 356.879 C 120.732 359.847, 120.448 359.923, 119.644 358.124 C 119.105 356.918, 119.357 354.270, 120.325 350.965 C 121.711 346.240, 121.710 345.487, 120.316 343.360 C 118.197 340.125, 117.504 340.376, 116.158 344.866 M 396.595 354.496 C 394.394 357.855, 394.130 361.340, 396.047 361.743 C 396.995 361.942, 398.459 360.527, 399.831 358.088 C 402.020 354.191, 402.027 354.085, 400.136 353.073 C 398.558 352.228, 397.910 352.489, 396.595 354.496 M 109.004 357.495 C 108.004 358.701, 108.088 359.485, 109.440 361.549 C 111.541 364.755, 113.595 365.581, 115.513 363.989 C 117.543 362.304, 117.410 361.682, 114.364 358.636 C 111.315 355.588, 110.696 355.456, 109.004 357.495 M 368.785 364.643 C 367.282 366.147, 367.277 366.492, 368.721 368.697 C 370.240 371.016, 370.157 371.255, 366.537 374.962 C 363.079 378.503, 362.531 378.732, 359.800 377.780 C 357.422 376.951, 356.507 377.065, 355.223 378.348 C 353.415 380.156, 354.258 381.811, 356.226 380.318 C 357.089 379.663, 358.630 379.953, 361 381.217 L 364.500 383.084 361.500 382.535 C 359.744 382.214, 361.498 383.411, 365.726 385.420 C 377.186 390.865, 379.600 391.577, 381.434 390.055 C 382.295 389.340, 382.996 388.248, 382.992 387.628 C 382.987 387.007, 380.759 381.893, 378.041 376.263 C 373.949 367.787, 372.789 366.134, 371.299 366.660 C 369.828 367.179, 369.728 367.048, 370.750 365.947 C 373.409 363.081, 371.569 361.860, 368.785 364.643 M 134.301 371.750 C 123.849 380.306, 125.067 379.821, 122.405 376.483 C 120.236 373.764, 119.916 373.655, 118.436 375.136 C 116.955 376.616, 117.331 377.341, 123.092 384.123 C 126.538 388.180, 129.491 391.677, 129.655 391.893 C 129.818 392.108, 130.632 391.720, 131.464 391.030 C 132.798 389.923, 132.723 389.419, 130.820 386.747 C 128.956 384.129, 128.863 383.569, 130.138 382.610 C 130.948 381.999, 134.377 379.313, 137.757 376.641 C 143.778 371.880, 143.871 371.733, 142.336 369.391 C 141.475 368.076, 140.620 367, 140.437 367 C 140.254 367, 137.493 369.137, 134.301 371.750 M 370.539 378.957 C 369.516 380.088, 368.864 381.143, 369.089 381.304 C 370.164 382.066, 375.291 384.041, 375.539 383.787 C 375.693 383.629, 375.049 382.016, 374.109 380.201 L 372.398 376.902 370.539 378.957 M 144.984 382.519 C 143.951 383.764, 144.062 384.411, 145.601 386.111 C 148.563 389.385, 150.908 390.322, 152.607 388.911 C 153.879 387.855, 153.633 387.217, 150.847 384.342 C 147.170 380.549, 146.732 380.412, 144.984 382.519 M 340.981 392.523 C 339.935 393.784, 340.555 396.156, 344.574 406.273 C 347.246 412.998, 349.572 418.700, 349.744 418.944 C 349.915 419.189, 351.026 418.418, 352.212 417.232 L 354.369 415.075 350.713 407.342 C 348.703 403.089, 347.252 399.415, 347.488 399.178 C 347.900 398.767, 353.857 401.677, 360.716 405.639 C 363.760 407.398, 364.023 407.405, 365.656 405.772 C 366.605 404.824, 367.183 403.858, 366.940 403.627 C 365.895 402.629, 344 391, 343.166 391 C 342.659 391, 341.676 391.685, 340.981 392.523 M 162.637 393.506 C 158.906 397.237, 160.157 402.430, 165.964 407.316 C 169.328 410.147, 169.782 411.763, 167.463 412.653 C 165.737 413.315, 162 410.393, 162 408.380 C 162 407.222, 159.085 405, 157.566 405 C 157.255 405, 157 406.289, 157 407.865 C 157 411.835, 160.372 415.731, 165.008 417.121 C 168.282 418.101, 169.307 418.029, 171.379 416.671 C 172.737 415.781, 174.140 414.134, 174.496 413.011 C 175.312 410.441, 172.225 405.282, 168.003 402.161 C 165.483 400.297, 165.108 399.575, 166.062 398.425 C 167.608 396.562, 170.011 396.619, 172.818 398.585 C 174.262 399.597, 174.880 400.802, 174.526 401.918 C 174.145 403.118, 174.742 404.017, 176.433 404.787 C 178.543 405.749, 178.982 405.633, 179.506 403.980 C 181.738 396.948, 167.830 388.312, 162.637 393.506 M 318.250 404.281 C 310.602 408.140, 307.189 411.027, 312.125 409.460 C 313.483 409.029, 314.019 409.161, 313.609 409.824 C 312.305 411.934, 314.775 411.829, 319.654 409.569 C 324.502 407.323, 324.711 407.307, 325.836 409.109 C 327.490 411.758, 327.535 411.698, 321.750 414.603 C 315.123 417.932, 315.361 417.636, 317.456 419.952 C 319.218 421.899, 319.275 421.894, 324.154 419.422 C 326.861 418.050, 329.508 417.196, 330.037 417.523 C 332.193 418.855, 330.708 420.727, 325.450 423.306 C 321.757 425.116, 320.136 426.442, 320.605 427.264 C 322.809 431.121, 323.130 431.109, 330.886 426.884 C 335.074 424.603, 338.620 422.639, 338.766 422.519 C 339.334 422.054, 329.765 405.416, 328.104 403.980 C 327.138 403.144, 326.531 401.907, 326.757 401.230 C 327.285 399.646, 327.807 399.459, 318.250 404.281 M 186.153 410.750 C 182.913 421.456, 181.567 426.904, 182.051 427.344 C 182.298 427.568, 183.461 428.046, 184.635 428.407 C 186.578 429.003, 186.924 428.433, 188.491 422.037 C 189.438 418.174, 190.614 415.262, 191.106 415.566 C 191.598 415.869, 192 416.605, 192 417.201 C 192 417.797, 192.904 421.319, 194.008 425.028 C 195.557 430.228, 196.519 431.903, 198.215 432.346 C 199.424 432.662, 200.518 432.815, 200.647 432.686 C 200.776 432.557, 202.301 427.538, 204.037 421.533 C 207.002 411.269, 207.087 410.537, 205.449 409.339 C 203.008 407.554, 202.505 408.138, 200.581 414.996 C 199.648 418.324, 198.517 420.820, 198.070 420.543 C 197.622 420.267, 196.424 416.832, 195.407 412.911 C 193.941 407.260, 193.072 405.598, 191.214 404.891 C 189.925 404.401, 188.718 404, 188.532 404 C 188.347 404, 187.276 407.038, 186.153 410.750 M 292.679 413.356 C 288.928 414.551, 285.890 415.859, 285.929 416.264 C 285.968 416.669, 286 417.734, 286 418.631 C 286 420.303, 287.065 420.287, 295.541 418.481 C 298.519 417.847, 298.620 417.954, 300.402 423.667 C 303.725 434.315, 304.618 435.913, 306.919 435.311 C 308.063 435.012, 308.981 434.032, 308.958 433.133 C 308.871 429.693, 302.071 411.492, 300.818 411.343 C 300.093 411.256, 296.431 412.162, 292.679 413.356 M 215.479 413.328 C 214.591 415.938, 212 431.415, 212 434.110 C 212 436.474, 212.426 437, 214.341 437 C 216.357 437, 216.836 436.271, 217.794 431.750 C 218.406 428.863, 219.199 423.527, 219.555 419.893 C 220.162 413.695, 220.068 413.251, 218.040 412.721 C 216.811 412.399, 215.705 412.661, 215.479 413.328 M 267 416.706 C 263.855 417.856, 261 421.410, 261 424.174 C 261 426.485, 261.435 427, 263.383 427 C 264.921 427, 265.951 426.295, 266.287 425.012 C 266.885 422.725, 271.421 420.682, 274.049 421.515 C 275.930 422.113, 278 426.806, 278 430.475 C 278 432.949, 274.156 437, 271.808 437 C 270.948 437, 269.685 436.325, 269 435.500 C 267.622 433.839, 264.431 433.493, 263.556 434.910 C 261.886 437.611, 267.423 442, 272.500 442 C 276.718 442, 281.036 439.158, 282.635 435.330 C 286.809 425.341, 276.611 413.193, 267 416.706 M 229.997 419.850 C 226.905 422.941, 225.387 428.421, 226.449 432.652 C 226.817 434.118, 228.621 436.821, 230.459 438.659 C 233.350 441.550, 234.469 442, 238.765 442 C 244.917 442, 248.477 439.478, 250.134 433.946 C 251.699 428.724, 250.027 423.042, 245.905 419.574 C 241.392 415.776, 233.941 415.905, 229.997 419.850 M 234 424 C 231.537 426.463, 231.286 433.144, 233.571 435.429 C 236.050 437.907, 240.543 437.396, 242.927 434.365 C 245.678 430.868, 245.757 424.475, 243.066 423.035 C 240.026 421.409, 236.182 421.818, 234 424" stroke="none" fill="black" fill-rule="evenodd"/>
	<path fill-opacity="0.954" d="M 284.813 19.683 C 285.534 19.972, 286.397 19.936, 286.729 19.604 C 287.061 19.272, 286.471 19.036, 285.417 19.079 C 284.252 19.127, 284.015 19.364, 284.813 19.683 M 326.813 28.683 C 327.534 28.972, 328.397 28.936, 328.729 28.604 C 329.061 28.272, 328.471 28.036, 327.417 28.079 C 326.252 28.127, 326.015 28.364, 326.813 28.683 M 237.750 41.662 C 238.438 41.940, 239.563 41.940, 240.250 41.662 C 240.938 41.385, 240.375 41.158, 239 41.158 C 237.625 41.158, 237.063 41.385, 237.750 41.662 M 268.813 41.683 C 269.534 41.972, 270.397 41.936, 270.729 41.604 C 271.061 41.272, 270.471 41.036, 269.417 41.079 C 268.252 41.127, 268.015 41.364, 268.813 41.683 M 223.500 45.001 C 187.236 50.514, 154.484 64.033, 125.544 85.436 C 121.353 88.535, 117.421 90.760, 116.807 90.381 C 116.158 89.979, 115.969 90.142, 116.357 90.769 C 116.724 91.362, 115.556 92.867, 113.762 94.113 L 110.500 96.378 112.500 93.966 C 116.024 89.717, 102.454 101.760, 96.272 108.368 C 69.841 136.624, 50.652 173.147, 42.088 211.500 C 37.754 230.913, 36.523 265.109, 39.429 285.384 C 42.992 310.242, 49.945 332.173, 61.567 355.206 C 72.317 376.512, 83.611 391.823, 102.400 410.564 C 138.849 446.921, 181.604 467.311, 234.500 473.564 C 296.924 480.943, 362.882 458.135, 409.319 413.111 C 444.518 378.983, 467.472 331.460, 473.019 281.232 C 474.715 265.870, 473.800 236.845, 471.151 222 C 460.452 162.037, 426.527 110.885, 374.500 76.271 C 365.891 70.544, 354.385 64.227, 358.441 67.455 C 361.517 69.903, 359.506 69.280, 351.791 65.395 C 332.281 55.570, 305.688 47.524, 282.989 44.579 C 266.435 42.432, 239.132 42.625, 223.500 45.001 M 286.813 43.683 C 287.534 43.972, 288.397 43.936, 288.729 43.604 C 289.061 43.272, 288.471 43.036, 287.417 43.079 C 286.252 43.127, 286.015 43.364, 286.813 43.683 M 375 49.430 C 375 49.705, 375.900 50.411, 377 51 C 378.100 51.589, 379 51.845, 379 51.570 C 379 51.295, 378.100 50.589, 377 50 C 375.900 49.411, 375 49.155, 375 49.430 M 380 52.430 C 380 52.705, 380.900 53.411, 382 54 C 383.100 54.589, 384 54.845, 384 54.570 C 384 54.295, 383.100 53.589, 382 53 C 380.900 52.411, 380 52.155, 380 52.430 M 393.575 54.878 C 392.737 56.235, 388.408 56.790, 386.345 55.805 C 385.330 55.320, 385.608 55.728, 386.962 56.712 C 422.128 82.253, 443.758 104.746, 461.110 133.823 C 484.447 172.926, 494.960 210.675, 495.276 256.500 C 495.436 279.726, 493.767 294.062, 488.466 315 C 471.517 381.936, 426.209 437.680, 363.396 468.878 C 318.906 490.976, 268.710 498.444, 218.293 490.468 C 125.008 475.710, 46.078 403.150, 24.121 311.966 C 13.531 267.989, 15.269 222.070, 29.121 179.870 C 36.609 157.056, 54.591 123.993, 67.928 108.516 C 70.203 105.876, 70.232 105.757, 68.179 107.485 C 66.902 108.559, 65.102 109.488, 64.179 109.548 C 63.256 109.609, 61.572 109.735, 60.438 109.829 C 59.007 109.948, 56.210 113.284, 51.284 120.750 C 31.493 150.744, 19.783 181.230, 13.815 218.299 C 11.028 235.608, 10.807 270.897, 13.385 287 C 22.661 344.943, 45.885 390.442, 86.128 429.511 C 125.062 467.310, 172.898 490.333, 227.301 497.455 C 242.258 499.413, 272.783 499.471, 288.108 497.569 C 359.208 488.749, 422.293 449.764, 462.172 390 C 479.928 363.390, 495.053 324.367, 499.417 293.908 C 499.779 291.382, 500.263 288.232, 500.493 286.908 C 502.760 273.832, 502.803 238.357, 500.567 226 C 500.318 224.625, 499.368 219, 498.455 213.500 C 494.783 191.373, 484.523 161.760, 473.389 141.144 C 456.467 109.815, 431.183 80.398, 404.330 60.798 C 395.891 54.639, 394.274 53.748, 393.575 54.878 M 343 60 C 343.825 60.533, 344.950 60.969, 345.500 60.969 C 346.050 60.969, 345.825 60.533, 345 60 C 344.175 59.467, 343.050 59.031, 342.500 59.031 C 341.950 59.031, 342.175 59.467, 343 60 M 233.500 72.094 C 217.677 74.174, 211.704 75.414, 201.500 78.740 C 196.944 80.225, 196.722 80.433, 199 81.085 C 204.140 82.556, 212.200 82.098, 213.695 80.250 C 214.980 78.661, 215.013 78.701, 214.055 80.684 C 213.475 81.886, 213 85.307, 213 88.286 C 213 94.806, 215.788 99.649, 221.013 102.207 C 227.639 105.449, 236.182 101.351, 237.601 94.250 C 238.238 91.062, 238.181 91, 234.625 91 C 231.711 91, 231 91.378, 231 92.929 C 231 95.140, 228.484 98, 226.539 98 C 223.822 98, 220.978 94.411, 220.165 89.957 C 219.009 83.626, 220.367 80.879, 224.445 81.297 C 226.166 81.474, 228.123 81.958, 228.796 82.374 C 229.468 82.789, 230.985 82.822, 232.167 82.447 C 233.349 82.072, 237.058 81.767, 240.408 81.770 C 243.759 81.772, 246.766 81.351, 247.092 80.834 C 247.418 80.317, 247.648 82.533, 247.604 85.759 C 247.478 95.013, 252.226 100.374, 260.436 100.250 C 269.700 100.110, 274.363 94.851, 274.449 84.445 C 274.488 79.840, 274.859 78.345, 276 78.202 C 276.825 78.098, 278.400 77.898, 279.500 77.757 C 280.600 77.615, 281.806 76.825, 282.180 76 C 283.311 73.503, 283.127 77.549, 281.522 90.492 C 279.967 103.028, 280.155 103.949, 284.275 103.985 C 286.506 104.004, 287.541 101.244, 288.390 93 C 288.759 89.425, 289.534 84.110, 290.114 81.189 C 291.154 75.943, 291.206 75.884, 294.334 76.403 L 297.500 76.927 294.500 76.055 C 278.908 71.521, 251.429 69.737, 233.500 72.094 M 264.350 78.640 C 265.033 79.872, 258.661 81.526, 257.055 80.534 C 255.870 79.802, 254.800 83.256, 254.800 87.813 C 254.800 94.126, 260.928 97.141, 264.961 92.811 C 267.877 89.682, 268.060 81.677, 265.278 79 C 264.420 78.175, 264.003 78.013, 264.350 78.640 M 298.007 91.973 C 296.233 99.108, 294.839 105.295, 294.910 105.723 C 295.115 106.964, 299.930 107.923, 300.590 106.854 C 300.920 106.320, 301.985 103.097, 302.957 99.692 L 304.724 93.500 306.862 100.608 C 308.038 104.517, 309 108.186, 309 108.760 C 309 110.093, 315.152 112.279, 316.044 111.263 C 316.897 110.291, 323 87.831, 323 85.663 C 323 83.495, 318.089 82.244, 316.917 84.115 C 316.440 84.877, 315.517 87.862, 314.866 90.750 C 314.214 93.638, 313.403 96, 313.062 96 C 312.722 96, 311.630 92.844, 310.636 88.986 C 308.649 81.271, 307.036 79, 303.545 79 C 301.413 79, 300.981 80.013, 298.007 91.973 M 186.664 85.257 C 184.963 86.500, 185.087 87.163, 188.964 97.535 C 191.218 103.566, 193.458 109.137, 193.943 109.916 C 194.680 111.102, 196.042 110.888, 202.307 108.603 C 212.274 104.968, 213.491 104.053, 211.672 101.566 C 210.304 99.695, 210.158 99.704, 204.602 101.959 C 201.481 103.225, 198.802 104.090, 198.648 103.881 C 198.494 103.671, 196.817 99.230, 194.921 94.011 C 191.393 84.298, 189.998 82.819, 186.664 85.257 M 163.279 96.492 L 155.077 101.984 161.693 112.742 C 165.333 118.659, 168.677 123.914, 169.125 124.420 C 169.598 124.953, 173.535 122.948, 178.493 119.648 C 186.129 114.567, 186.933 113.744, 185.988 111.978 C 184.592 109.369, 184.315 109.421, 177.954 113.478 L 172.500 116.957 170.750 114.868 C 168.913 112.674, 168.481 111, 169.753 111 C 170.167 111, 172.622 109.496, 175.208 107.658 C 179.677 104.480, 179.835 104.209, 178.403 102.165 L 176.898 100.016 171.761 103.475 C 167.892 106.080, 166.301 106.665, 165.313 105.844 C 163.089 103.999, 163.821 102.617, 168.676 99.500 C 171.246 97.850, 173.766 96.220, 174.277 95.877 C 175.268 95.213, 173.478 91, 172.206 91 C 171.808 91, 167.791 93.471, 163.279 96.492 M 332.455 96.455 C 328.451 100.458, 329.109 104.530, 334.583 109.628 C 337.443 112.291, 339.037 114.570, 338.822 115.687 C 338.015 119.874, 331.750 117.251, 331.750 112.726 C 331.750 110.734, 331.054 109.866, 328.836 109.093 C 326.227 108.183, 325.803 108.337, 324.788 110.565 C 321.983 116.722, 331.477 125.071, 339.559 123.555 C 343.664 122.785, 347 118.800, 347 114.666 C 347 112.282, 345.891 110.561, 342 106.908 C 336.947 102.164, 335.825 100, 338.418 100 C 341.318 100, 343 101.279, 343 103.486 C 343 105.057, 343.907 106.133, 345.940 106.975 C 349.575 108.481, 351 107.689, 351 104.163 C 351 100.542, 348.816 97.615, 344.633 95.630 C 339.639 93.260, 335.359 93.550, 332.455 96.455 M 142.655 107.829 C 140.356 110.369, 140.480 111.011, 145.010 120.020 L 149.020 127.995 140.510 123.775 L 132.001 119.555 129.806 121.750 C 128.599 122.957, 127.811 124.131, 128.056 124.358 C 128.300 124.586, 134.060 127.551, 140.855 130.946 C 152.643 136.837, 153.296 137.042, 155.105 135.405 C 156.147 134.462, 157.007 133.197, 157.016 132.595 C 157.040 131.058, 145.631 106.011, 144.905 106.005 C 144.578 106.002, 143.565 106.823, 142.655 107.829 M 377.750 122.080 C 375.451 123.419, 375.536 125.270, 378 127.500 C 379.100 128.495, 380 129.664, 380 130.098 C 380 130.531, 376.400 133.945, 372 137.685 C 367.600 141.425, 364 144.776, 364 145.132 C 364 145.487, 364.846 146.823, 365.880 148.100 L 367.759 150.421 376.354 143.124 L 384.948 135.828 387.288 138.549 C 389.317 140.907, 389.919 141.113, 391.814 140.099 C 393.016 139.456, 393.995 138.383, 393.990 137.715 C 393.979 136.342, 381.286 120.983, 380.202 121.030 C 379.816 121.047, 378.712 121.519, 377.750 122.080 M 353.577 125.915 C 351.914 127.752, 351.999 127.974, 355.672 131.388 C 360.225 135.619, 361.260 135.778, 363.364 132.567 C 364.912 130.205, 364.845 130.046, 361.085 127.067 C 356.545 123.471, 355.881 123.369, 353.577 125.915 M 115.381 140.542 C 113.616 143.235, 113.625 143.264, 120.056 155.604 C 123.600 162.405, 126.768 167.975, 127.095 167.984 C 127.422 167.993, 128.494 167.111, 129.477 166.026 C 131.030 164.309, 131.098 163.650, 129.994 160.986 C 128.845 158.212, 128.950 157.665, 131.097 155.211 C 132.402 153.720, 133.746 152.141, 134.083 151.702 C 134.420 151.263, 135.942 151.472, 137.465 152.166 C 139.968 153.306, 140.421 153.199, 142.157 151.054 C 143.215 149.748, 143.724 148.327, 143.290 147.896 C 142.855 147.465, 137.550 145.329, 131.500 143.148 C 125.450 140.968, 119.746 138.883, 118.824 138.514 C 117.661 138.048, 116.608 138.668, 115.381 140.542 M 386.700 150.062 L 375.999 159.123 377.750 161.530 C 378.712 162.854, 379.836 163.951, 380.247 163.969 C 380.658 163.986, 382.791 162.377, 384.987 160.393 C 388.364 157.342, 389.079 157.043, 389.621 158.456 C 389.974 159.375, 389.472 163.047, 388.506 166.616 L 386.750 173.105 389.049 175.552 C 390.314 176.899, 391.678 178, 392.080 178 C 392.966 178, 396 169.366, 396 166.847 C 396 165.403, 396.562 165.162, 398.862 165.622 C 405.185 166.887, 411.642 159.975, 408.932 154.841 C 407.486 152.099, 398.754 141.140, 397.950 141.057 C 397.648 141.026, 392.585 145.078, 386.700 150.062 M 122.007 146.691 C 122.010 147.136, 122.834 148.745, 123.837 150.266 C 125.648 153.012, 125.674 153.018, 127.462 151.041 C 129.214 149.106, 129.187 149.022, 126.488 147.995 C 124.961 147.415, 123.327 146.702, 122.856 146.411 C 122.385 146.120, 122.003 146.246, 122.007 146.691 M 395.558 151.935 C 393.682 154.009, 393.693 154.070, 396.499 156.999 C 398.673 159.268, 399.651 159.704, 400.670 158.859 C 402.540 157.307, 402.329 155.924, 399.724 152.668 L 397.458 149.837 395.558 151.935 M 272.970 155.250 C 261.373 161.109, 259.916 177.460, 270.076 187.722 C 274.863 192.557, 279.600 194.451, 285.070 193.717 C 304.146 191.159, 303.363 159.919, 284.078 154.141 C 278.887 152.586, 278.084 152.667, 272.970 155.250 M 402.468 173.179 C 396.710 182.249, 394.979 185.743, 395.685 186.863 C 398.001 190.533, 399.517 190.460, 412.651 186.040 C 419.718 183.661, 425.833 181.423, 426.241 181.067 C 427.268 180.168, 424.197 176, 422.507 176 C 421.748 176, 417.724 177.311, 413.564 178.913 C 409.404 180.514, 406 181.619, 406 181.367 C 406 181.116, 408.267 177.550, 411.038 173.443 C 416.036 166.037, 416.062 165.958, 414.288 163.520 C 413.305 162.169, 411.982 161.049, 411.350 161.031 C 410.717 161.014, 406.720 166.481, 402.468 173.179 M 98.712 165.766 C 96.919 167.747, 90.562 180.903, 91.133 181.452 C 92.475 182.744, 114.368 192.890, 114.988 192.508 C 115.412 192.246, 116.002 191.101, 116.299 189.964 C 116.737 188.290, 115.997 187.487, 112.420 185.749 C 105.425 182.350, 106.900 179.851, 116.682 178.531 C 121.304 177.907, 121.978 177.501, 122.932 174.766 C 123.519 173.081, 124 171.516, 124 171.290 C 124 170.858, 115.679 171.846, 112.880 172.610 C 111.729 172.924, 111.088 172.190, 110.664 170.069 C 109.650 165, 101.923 162.217, 98.712 165.766 M 99.642 174.624 C 98.692 176.617, 98.046 178.356, 98.207 178.488 C 98.368 178.621, 99.502 179.250, 100.727 179.887 C 102.763 180.946, 103.088 180.726, 104.508 177.326 C 106.290 173.062, 105.869 171, 103.217 171 C 102.079 171, 100.707 172.391, 99.642 174.624 M 214.982 203.281 C 197.096 212.752, 181.909 220.864, 181.232 221.309 C 180.554 221.754, 180 223.587, 180 225.383 C 180 228.437, 180.584 232.648, 184.839 260.293 C 185.752 266.228, 186.950 271.178, 187.500 271.293 C 188.496 271.499, 190.562 265.021, 195.910 244.925 C 200.487 227.721, 198.582 229.385, 219.987 223.888 C 230.155 221.277, 238.660 219.326, 238.886 219.553 C 239.221 219.888, 233.950 243.118, 229.907 259.122 C 229.172 262.030, 224.741 266.853, 207.396 283.622 C 195.518 295.105, 184.837 304.863, 183.660 305.307 C 181.631 306.071, 173.059 305.889, 140.250 304.385 C 124.455 303.660, 122.330 304.510, 130.750 308.186 C 133.363 309.327, 147.358 315.602, 161.851 322.130 C 176.343 328.659, 188.625 334, 189.144 334 C 189.662 334, 199.114 326.913, 210.147 318.250 C 221.180 309.587, 231.261 301.693, 232.548 300.707 C 235.116 298.740, 233.457 298.560, 262.500 303.964 C 268 304.987, 276.488 306.550, 281.362 307.437 C 291.671 309.313, 292.856 309.844, 296.517 314.227 C 298.020 316.027, 303.385 322, 308.439 327.500 C 313.493 333, 321.873 342.201, 327.061 347.947 C 333.078 354.612, 336.602 357.829, 336.793 356.834 C 336.959 355.977, 334.351 347.225, 330.998 337.387 C 319.157 302.640, 317.700 298.407, 314.344 289.006 C 312.481 283.784, 310.178 278.777, 309.228 277.881 C 308.278 276.984, 303.675 275.258, 299 274.045 C 290.639 271.876, 270.781 266.341, 268.163 265.451 C 266.860 265.007, 289.378 240, 291.080 240 C 291.511 240, 298.743 247.425, 307.151 256.500 C 315.558 265.575, 322.692 273, 323.003 273 C 323.314 273, 329.403 269.688, 336.534 265.640 C 347.838 259.223, 349.542 258.523, 349.825 260.183 C 350.036 261.419, 350.738 261.921, 351.825 261.614 C 352.746 261.354, 356.726 260.382, 360.670 259.455 L 367.840 257.769 368.227 251.134 C 369.278 233.160, 369.079 218, 367.793 218.023 C 367.082 218.035, 362.900 219.498, 358.500 221.273 L 350.500 224.500 350.333 236.334 C 350.241 242.842, 350.016 248.314, 349.833 248.493 C 349.650 248.671, 344.697 249.130, 338.828 249.512 L 328.155 250.206 325.726 246.353 C 324.389 244.234, 320.915 238.225, 318.004 233 C 310.335 219.234, 308.953 217.697, 299.781 212.733 C 295.227 210.267, 289.475 207.130, 287 205.762 C 257.923 189.687, 250.893 186.005, 249.330 186.031 C 248.323 186.048, 232.867 193.811, 214.982 203.281 M 415.048 190.388 L 413.071 195 407.913 195 C 403.442 195, 402.921 195.200, 404 196.500 C 404.710 197.356, 406.891 198, 409.078 198 L 412.911 198 411.523 201.934 C 410.324 205.334, 410.333 206.032, 411.592 207.076 C 413.376 208.557, 413.383 208.550, 415.199 203 L 416.671 198.500 421.335 198.780 C 423.901 198.933, 426 198.651, 426 198.152 C 426 196.999, 423.484 194.881, 422.355 195.083 C 421.885 195.168, 420.481 195.184, 419.237 195.118 C 417.050 195.004, 417.022 194.883, 418.411 191.559 C 419.648 188.599, 419.651 187.956, 418.437 186.947 C 417.283 185.990, 416.664 186.617, 415.048 190.388 M 85.078 195.329 C 84.631 196.523, 83.441 201.018, 82.434 205.318 C 80.848 212.088, 80.796 213.259, 82.051 214.052 C 84.236 215.432, 85.375 214.674, 86.380 211.172 C 86.880 209.427, 87.584 208, 87.944 208 C 88.304 208, 92.836 209.328, 98.014 210.952 C 103.193 212.575, 107.521 213.812, 107.633 213.700 C 107.746 213.588, 108.147 212.264, 108.525 210.757 C 109.002 208.855, 108.798 207.883, 107.856 207.574 C 107.110 207.329, 102.560 205.960, 97.744 204.531 L 88.987 201.932 89.598 198.110 C 90.132 194.773, 89.936 194.216, 88.050 193.723 C 86.451 193.305, 85.679 193.722, 85.078 195.329 M 97.126 314.972 C 95.928 318.972, 95.886 319, 90.960 319 C 88.232 319, 86 319.360, 86 319.800 C 86 321.524, 88.548 323, 91.523 323 C 94.602 323, 94.645 323.069, 94.573 327.859 C 94.500 332.712, 94.495 332.719, 90.250 333.855 C 85.531 335.118, 85.197 335.795, 87.750 338.922 L 89.500 341.066 96.919 338.535 C 100.999 337.143, 104.474 336.140, 104.640 336.306 C 104.806 336.472, 102.947 339.582, 100.508 343.217 L 96.075 349.826 98.163 352.480 L 100.252 355.135 107.124 344.818 C 110.904 339.143, 113.997 333.782, 113.998 332.905 C 113.999 332.028, 113.195 330.581, 112.210 329.690 C 110.406 328.057, 107.727 328.387, 98.292 331.402 L 96.085 332.108 97.669 327.459 L 99.252 322.811 103.626 323.467 C 107.228 324.007, 108 323.843, 108 322.537 C 108 320.805, 104.434 319.073, 101.408 319.335 C 100.153 319.443, 99.641 318.986, 99.910 318 C 100.724 315.024, 100.478 311.688, 99.417 311.320 C 98.821 311.113, 97.790 312.757, 97.126 314.972 M 394.732 322.689 C 393.331 325.764, 393.827 326.111, 404.802 329.718 C 413.582 332.603, 413.610 332.640, 411.443 338.288 C 411.060 339.285, 411.865 340.106, 413.933 340.827 C 417.510 342.074, 417.336 342.306, 421.503 330.702 C 424.371 322.715, 424.261 321.756, 420.340 320.574 C 418.523 320.026, 417.994 320.489, 417 323.500 C 415.670 327.530, 416.705 327.570, 403.675 322.986 L 395.851 320.234 394.732 322.689 M 115.440 345.928 C 113.869 351.526, 113.651 351.798, 111.515 350.825 C 106.919 348.731, 101.121 354.559, 102.969 359.417 C 104.025 362.195, 112.020 372.845, 113.123 372.944 C 114.065 373.028, 132 358.981, 132 358.159 C 132 357.766, 131.292 356.434, 130.426 355.197 L 128.851 352.950 124.832 356.133 C 121.580 358.709, 120.642 359.047, 119.917 357.908 C 119.424 357.134, 119.249 355.880, 119.529 355.121 C 119.808 354.363, 120.523 351.808, 121.119 349.443 C 122.049 345.747, 121.942 344.787, 120.351 342.603 C 119.333 341.206, 118.186 340.049, 117.802 340.031 C 117.418 340.014, 116.355 342.667, 115.440 345.928 M 385.212 341.188 C 383.137 343.263, 383.855 344.790, 388 347.120 C 390.200 348.357, 392 349.680, 392 350.062 C 392 351.635, 389.173 352.793, 383.724 353.452 C 379.129 354.008, 377.618 354.653, 376.338 356.606 C 375.453 357.957, 375.018 359.352, 375.372 359.705 C 375.725 360.059, 378.602 360.242, 381.765 360.113 C 387.352 359.885, 387.549 359.966, 388.678 362.957 C 390.261 367.152, 395.933 369.625, 399.747 367.783 C 401.910 366.738, 409.904 355.141, 409.980 352.937 C 409.996 352.500, 390.065 341.451, 387.072 340.238 C 386.716 340.093, 385.879 340.521, 385.212 341.188 M 440 348.647 C 430.562 350.029, 431.307 349.475, 424.319 360.305 C 392.915 408.975, 346.164 440.311, 289.500 450.672 C 281.572 452.121, 274.527 452.494, 255.500 452.473 C 233.116 452.447, 230.591 452.256, 218 449.633 C 189.362 443.668, 163.171 432.496, 138.846 415.871 C 133.742 412.383, 133.302 412.241, 134.329 414.418 C 134.955 415.744, 135.925 416.609, 136.484 416.340 C 137.043 416.072, 136.626 416.560, 135.559 417.426 C 134.491 418.292, 132.348 419, 130.795 419 L 127.973 419 129.401 422.418 C 130.804 425.775, 130.787 425.829, 128.479 425.410 C 124.578 424.703, 124.843 426.505, 129.093 429.589 C 131.299 431.190, 135.218 434.134, 137.802 436.131 C 140.386 438.128, 144.975 441.106, 148 442.750 C 151.025 444.393, 155.750 447.122, 158.500 448.814 C 165.848 453.335, 189.729 462.398, 203.500 465.892 C 245.469 476.541, 289.199 474.583, 329 460.273 C 344.588 454.669, 365.191 444.529, 373.154 438.544 C 376.478 436.045, 379.574 434, 380.034 434 C 383.623 434, 414.581 404.755, 422.926 393.480 C 425.361 390.191, 428.578 385.895, 430.075 383.934 C 431.573 381.973, 435.119 376.189, 437.955 371.081 C 440.791 365.973, 443.615 360.988, 444.230 360.003 C 445.712 357.630, 442.243 348.319, 440 348.647 M 396.602 355.250 C 392.747 361.256, 395.421 364.218, 399.405 358.355 C 401.303 355.561, 401.644 354.393, 400.730 353.812 C 398.818 352.598, 398.156 352.828, 396.602 355.250 M 109 358.535 C 109 360.275, 111.868 365, 112.924 365 C 113.306 365, 114.491 364.361, 115.559 363.581 C 117.460 362.190, 117.451 362.109, 115.076 359.581 C 112.396 356.728, 109 356.144, 109 358.535 M 368.617 364.870 C 367.192 366.445, 367.117 367.163, 368.145 369.419 C 369.256 371.857, 369.089 372.373, 366.281 375.180 C 363.506 377.955, 362.896 378.159, 360.193 377.217 C 357.591 376.310, 356.901 376.476, 355.038 378.460 L 352.887 380.749 364.193 385.493 C 380.830 392.474, 379.506 392.159, 381.799 389.683 L 383.821 387.500 378.228 375.250 C 375.152 368.512, 372.112 363, 371.472 363 C 370.833 363, 369.548 363.842, 368.617 364.870 M 134.090 371.572 C 126.155 378.215, 125.238 378.572, 122.561 376.057 C 121.200 374.778, 119.657 374.194, 118.655 374.579 C 115.695 375.715, 116.120 376.471, 126.665 388.820 C 128.678 391.177, 130.008 391.944, 131.250 391.463 C 133.549 390.574, 133.460 389.119, 130.944 386.441 L 128.889 384.252 136.398 378.376 C 140.529 375.144, 143.929 372.007, 143.954 371.405 C 143.997 370.384, 140.859 366.974, 139.921 367.022 C 139.690 367.033, 137.066 369.081, 134.090 371.572 M 371 379.500 C 369.524 381.278, 369.656 381.492, 372.836 382.470 C 375.022 383.143, 375.094 383.039, 373.950 380.845 C 373.279 379.555, 372.629 378.377, 372.507 378.226 C 372.385 378.075, 371.707 378.648, 371 379.500 M 144.573 381.919 C 142.982 383.677, 143.094 383.963, 146.697 387.378 C 151.138 391.587, 151.561 391.689, 153.050 388.906 C 153.981 387.167, 153.774 386.387, 151.836 384.314 C 148.132 380.354, 146.482 379.810, 144.573 381.919 M 341.231 392.002 L 338.961 393.852 343.946 406.165 C 346.688 412.936, 349.329 418.610, 349.814 418.771 C 350.300 418.933, 351.672 418.263, 352.864 417.283 L 355.031 415.500 352.134 409.410 C 346.902 398.414, 346.858 398.479, 356.006 403.624 C 363.815 408.015, 364.205 408.124, 366.065 406.441 C 369.149 403.650, 370.185 404.536, 353 395.273 C 343.596 390.205, 343.477 390.171, 341.231 392.002 M 162.455 393.455 C 161.105 394.805, 160 396.852, 160 398.004 C 160 401.207, 162.636 405.605, 165.985 407.989 C 169.585 410.553, 169.843 412, 166.700 412 C 163.949 412, 161.963 410.259, 162.656 408.455 C 163.260 406.881, 159.411 404.628, 157.422 405.392 C 154.296 406.591, 156.737 412.870, 161.567 416.054 C 165.328 418.533, 171.155 418.591, 173.345 416.171 C 176.308 412.897, 175.414 409.150, 170.493 404.230 C 167.095 400.832, 166.249 399.405, 167.054 398.435 C 168.827 396.299, 174 398.629, 174 401.563 C 174 403.774, 176.475 406, 178.934 406 C 180.590 406, 180.189 399.715, 178.367 397.114 C 176.649 394.661, 169.754 391.059, 166.705 391.022 C 165.717 391.010, 163.805 392.105, 162.455 393.455 M 319.500 403.150 C 309.341 408.310, 308.826 408.748, 310.245 411.020 C 311.856 413.601, 313.039 413.520, 319.171 410.413 C 323.258 408.343, 324.444 408.093, 325.122 409.163 C 326.543 411.405, 326.180 411.875, 321 414.500 C 315.553 417.260, 315.309 417.673, 317.418 420.557 C 318.808 422.459, 318.945 422.444, 324.332 419.802 C 328.741 417.639, 329.934 417.385, 330.367 418.515 C 330.725 419.448, 329.174 420.863, 325.769 422.711 C 319.951 425.869, 319.376 426.773, 321.422 429.540 C 322.837 431.453, 323.055 431.404, 330.528 427.500 C 334.739 425.300, 338.399 422.980, 338.662 422.346 C 339.211 421.021, 328.013 400.794, 326.500 400.377 C 325.950 400.226, 322.800 401.473, 319.500 403.150 M 184.996 413.321 C 183.283 418.920, 181.654 424.284, 181.376 425.242 C 181.033 426.424, 181.696 427.360, 183.439 428.154 C 184.852 428.798, 186.291 429.042, 186.636 428.697 C 186.981 428.352, 188.039 425.242, 188.986 421.785 L 190.709 415.500 192.357 421.500 C 194.740 430.170, 196.151 432.500, 199.019 432.500 C 201.263 432.500, 201.724 431.609, 204.714 421.500 C 207.718 411.343, 207.839 410.404, 206.293 409.250 C 203.288 407.008, 202.203 407.905, 200.246 414.250 L 198.318 420.500 196.019 412.799 C 194.045 406.188, 193.323 404.960, 190.916 404.120 L 188.111 403.143 184.996 413.321 M 291.750 413.215 C 284.982 415.304, 283.832 416.608, 285.893 419.861 C 286.615 421.001, 287.626 420.967, 292.117 419.650 C 295.066 418.786, 297.778 418.398, 298.144 418.789 C 298.509 419.180, 299.930 423.100, 301.300 427.500 C 303.828 435.620, 305.501 437.309, 308.858 435.130 C 309.962 434.414, 309.499 432.067, 306.391 422.624 C 302.033 409.385, 302.723 409.828, 291.750 413.215 M 214.656 413.665 C 214.364 414.674, 213.400 420.185, 212.516 425.912 C 210.795 437.052, 211.113 438.318, 215.490 437.756 C 217.229 437.532, 217.711 436.007, 219.310 425.653 C 220.316 419.137, 220.994 413.661, 220.818 413.484 C 220.641 413.307, 219.302 412.863, 217.842 412.497 C 215.779 411.979, 215.070 412.239, 214.656 413.665 M 232.121 417.663 C 226.211 420.658, 224.086 430.349, 227.950 436.686 C 232.734 444.531, 244.761 444.753, 249.294 437.080 C 252.724 431.273, 250.483 420.935, 245.179 418.096 C 241.390 416.068, 235.644 415.877, 232.121 417.663 M 264.382 417.909 C 261.294 419.792, 259.133 424.567, 260.695 426.058 C 262.721 427.992, 266.076 427.455, 267.300 425 C 268.881 421.829, 273.804 421.012, 275.701 423.605 C 277.333 425.837, 277.398 433.202, 275.800 434.800 C 274.146 436.454, 269.500 436.307, 268.047 434.556 C 267.105 433.421, 266.329 433.349, 264.424 434.217 C 261.285 435.647, 261.366 436.289, 265.077 439.411 C 269.818 443.400, 276.129 443.071, 280.600 438.600 C 283.219 435.981, 284 434.365, 284 431.568 C 284 419.891, 273.323 412.457, 264.382 417.909 M 235.162 423.750 C 234.029 424.712, 232.811 427.145, 232.457 429.156 C 231.941 432.083, 232.231 433.231, 233.906 434.906 C 237.946 438.946, 243.396 436.353, 244.543 429.844 C 245.651 423.555, 239.837 419.778, 235.162 423.750" stroke="none" fill="black" fill-rule="evenodd"/>
</svg>