<?xml version="1.0"?><svg xmlns="http://www.w3.org/2000/svg" width="36" height="36" shape-rendering="geometricPrecision" text-rendering="geometricPrecision" image-rendering="optimizeQuality" fill-rule="evenodd" clip-rule="evenodd" viewBox="0 0 36 36"><path fill="#fdfdfd" d="m-0.1-0.1h36v36h-36v-36z"></path><path fill="#110f0f" d="m15.4 1.1c7.3-0.7 13 2.1 17.1 8.1 2.7 5 3 10.2 1 15.5-3.7 7.3-9.6 10.6-17.8 10-8.3-1.6-13.1-6.5-14.6-14.8-0.5-8.4 3.1-14.3 10.6-17.8 1.3-0.4 2.5-0.8 3.7-1z"></path><path fill="#fcfcfc" d="m15.8 1.9c6.8-0.5 12.1 2 15.8 7.6 2.7 4.7 3.1 9.6 1.2 14.6-3 6.3-7.9 9.6-14.9 9.9-6.9-0.3-11.9-3.6-14.8-9.9-2.5-7.1-1.1-13.3 4.4-18.5 2.5-1.9 5.3-3.2 8.3-3.7z"></path><path fill="#0c0606" d="m16.9 5.6c4.2-0.2 7.3 1.6 9.1 5.3 0.3 0.6 0.5 1.3 0.6 2 0 5.3 0.1 10.7 0 16h-17.4c0-5.4 0-10.8 0.1-16.2 1-4 3.6-6.4 7.6-7.1z"></path><path fill="#fbfbfb" d="m12.9 9.4c2.2 0.2 4.3 0.9 6.2 2.3 1.1 1 1.9 2.3 2.3 3.8 0 4 0.1 8 0 12-4.3 1.1-7.6-0.3-9.7-4.2-0.3-0.7-0.4-1.3-0.6-2-0.1-2.8-0.1-5.5 0-8.3 0.3-1.3 0.9-2.6 1.8-3.6z"></path><path fill="#110e0e" d="m15.4 20.7c0 0.1 0.1 0.2 0.1 0.2 0.2-1.7 0.2-3.3 0-4.9 0-0.2-0.1-0.4-0.2-0.6-0.3-0.1-0.5-0.3-0.7-0.5 0-0.1 0-0.2 0.1-0.3 0.5 0 0.9 0.2 1.2 0.7 1.3-1.7 2.7-1.7 4.1-0.2 0.3 0.4 0.4 0.9 0.3 1.4-0.2 0.2-0.3 0.2-0.4 0.1-0.4-1.7-1.4-2.3-3-1.7-0.2 0.2-0.4 0.5-0.6 0.8-0.1 1.7-0.1 3.4 0.1 5 0.3-0.3 0.6-0.7 0.8-1.1 0.3 0.2 0.4 0.4 0.2 0.7-0.5 1.2-1.4 1.5-2.6 0.8-0.3-0.4-0.4-0.8-0.3-1.3 0-0.1 0.1-0.2 0.2-0.2 0.2 0.4 0.4 0.8 0.7 1.1z"></path><path fill="#a3a1a1" d="m15.5 16c0.2 1.6 0.2 3.2 0 4.9 0 0-0.1-0.1-0.1-0.2 0.1-1.5 0.2-3.1 0.1-4.7z"></path><path fill="#1e1c1b" d="m17.5 16.2c1.1 0 1.6 0.4 1.6 1.4-0.5 0.3-0.7 0.1-0.7-0.5-0.3-0.4-0.7-0.3-1 0.1 0 0.4-0.1 0.6-0.5 0.5-0.1-0.2-0.1-0.4 0-0.6 0.2-0.3 0.4-0.6 0.6-0.9z"></path><path fill="#1b1919" d="m12.3 15.8c0.6 0.3 1.2 0.7 1.6 1.3l0.2-0.9c0.1-0.1 0.2-0.1 0.4 0 0.1 0.7 0.1 1.4 0.1 2-0.7-0.3-1.2-0.7-1.7-1.3l-0.1 1.2c-0.2 0.2-0.4 0.2-0.6 0-0.1-0.8-0.1-1.5 0.1-2.3z"></path><path fill="#f5f5f4" d="m13.1 26.2c0.8 0.6 1.6 1.1 2.4 1.6h-2.4v-1.6z"></path><path fill="#a6a4a4" d="m13.1 26.2v1.6h2.4c-0.6 0.1-1.5 0.2-2.5 0.1 0-0.7 0-1.2 0.1-1.7z"></path></svg>