<svg xmlns="http://www.w3.org/2000/svg" width="160" height="160" viewBox="0 0 160 160" version="1.1">
	<path fill-opacity="0.373" d="M 62 26.808 L 31.500 44.510 31.190 48.255 L 30.879 52 38.333 52 L 45.787 52 69.111 38.500 C 81.938 31.075, 92.752 25, 93.142 25 C 93.531 25, 104.458 31.145, 117.425 38.656 C 139.463 51.422, 141 52.498, 141 55.156 C 141 57.823, 140.743 58, 136.860 58 C 134.364 58, 132.280 57.410, 131.610 56.515 C 131 55.698, 123.975 51.284, 116 46.705 C 108.025 42.126, 99.665 37.317, 97.423 36.017 L 93.345 33.654 73.673 44.901 L 54 56.148 54 61.282 L 54 66.416 49.712 62.208 L 45.424 58 29.361 58 C 4.275 58, 4 58.228, 4 79.042 L 4 93.154 6.923 96.077 L 9.846 99 26.455 99 C 42.683 99, 43.083 98.949, 43.883 96.787 C 45.048 93.638, 44.196 91.343, 40.804 88.488 C 38.067 86.186, 37.069 86, 27.423 86 L 17 86 17 78.561 L 17 71.121 28.750 70.811 C 35.942 70.620, 40.659 70.888, 40.910 71.500 C 41.135 72.050, 44.152 75.440, 47.614 79.032 L 53.908 85.565 54.204 93.408 L 54.500 101.251 73.347 112.126 C 83.712 118.106, 92.704 123, 93.327 123 C 93.950 123, 102.901 118.163, 113.216 112.250 L 131.972 101.500 131.986 97.250 C 131.994 94.912, 132.216 93, 132.480 93 C 132.744 93, 134.789 93.732, 137.024 94.626 L 141.089 96.253 140.794 102.338 L 140.500 108.423 117 122.082 L 93.500 135.741 89.500 133.532 C 66.996 121.104, 45.644 108.181, 45.249 106.750 C 44.849 105.298, 43.586 105, 37.833 105 L 30.900 105 31.200 110.626 L 31.500 116.253 48 125.755 C 57.075 130.981, 70.962 138.973, 78.860 143.516 L 93.221 151.775 111.860 141.017 C 122.112 135.100, 135.900 127.110, 142.500 123.262 L 154.500 116.264 154.751 80.382 L 155.001 44.500 148.751 40.924 C 145.313 38.958, 131.380 30.970, 117.789 23.174 C 104.198 15.378, 92.948 9.024, 92.789 9.053 C 92.630 9.083, 78.775 17.072, 62 26.808 M 79 52 C 79 53.839, 79.498 54.080, 82.750 53.810 C 85.279 53.601, 86.500 53.011, 86.500 52 C 86.500 50.989, 85.279 50.399, 82.750 50.190 C 79.498 49.920, 79 50.161, 79 52 M 89 52 C 89 53.667, 89.667 54, 93 54 C 96.333 54, 97 53.667, 97 52 C 97 50.333, 96.333 50, 93 50 C 89.667 50, 89 50.333, 89 52 M 99.480 51.032 C 98.339 52.878, 100.489 54.170, 104.123 53.823 C 108.908 53.365, 108.694 50.600, 103.843 50.195 C 101.831 50.028, 99.868 50.404, 99.480 51.032 M 12 62.694 C 8.574 63.918, 8 66.264, 8 79.036 C 8 95.686, 7.234 95, 25.829 95 C 34.387 95, 40 94.613, 40 94.023 C 40 91.411, 35.214 90.182, 24.500 90.041 C 18.450 89.962, 13.146 89.544, 12.713 89.112 C 12.280 88.680, 12.055 83.640, 12.213 77.913 L 12.500 67.500 25 67 C 37.787 66.489, 40 65.963, 40 63.441 C 40 62.255, 37.656 62.014, 26.750 62.079 C 19.462 62.122, 12.825 62.399, 12 62.694 M 84.315 63.007 C 83.114 63.491, 81.651 64.783, 81.065 65.878 C 79.553 68.704, 79.666 92.266, 81.200 93.800 C 82.016 94.616, 86.766 95, 96.045 95 C 107.994 95, 109.896 94.773, 111.345 93.171 C 113.607 90.671, 113.654 79.797, 111.412 77.555 C 109.971 76.114, 109.967 75.546, 111.365 71.443 C 113.154 66.191, 112.673 64.206, 109.299 62.923 C 106.245 61.763, 87.246 61.826, 84.315 63.007 M 119.078 63.922 C 117.166 65.834, 117 67.152, 117 80.469 C 117 92.956, 117.207 94.858, 118.509 94.358 C 120.569 93.568, 120.967 91.267, 121.253 78.500 L 121.500 67.500 133.250 67.218 L 145 66.937 145 72.468 L 145 78 136.191 78 C 126.395 78, 123.595 79.152, 124.155 82.954 C 124.449 84.953, 126.335 85.990, 137 90.020 C 143.875 92.618, 149.659 94.326, 149.853 93.814 C 150.513 92.074, 146.856 89.174, 141.171 86.928 C 133.074 83.730, 132.784 83, 139.609 83 C 148.421 83, 149.500 81.869, 149.500 72.631 C 149.500 67.795, 149.036 64.635, 148.203 63.800 C 147.311 62.906, 142.884 62.398, 134.031 62.172 C 122.090 61.868, 121.005 61.995, 119.078 63.922 M 44 64.841 C 44 68.309, 45.666 70.924, 52.064 77.500 C 57.582 83.172, 57.917 83.800, 58.201 89 C 58.458 93.734, 58.779 94.500, 60.500 94.500 C 62.219 94.500, 62.544 93.730, 62.810 89.013 C 63.110 83.727, 63.375 83.265, 70.060 76.370 C 75.826 70.424, 77 68.649, 77 65.882 L 77 62.550 69.726 69.775 C 65.682 73.792, 61.586 77, 60.500 77 C 59.414 77, 55.318 73.792, 51.274 69.775 C 45.128 63.671, 44 62.905, 44 64.841 M 85.667 67.667 C 85.300 68.033, 85 73.223, 85 79.198 L 85 90.063 96.750 89.782 L 108.500 89.500 108.500 85 L 108.500 80.500 99.764 80.211 C 92.282 79.964, 90.878 79.641, 89.979 77.961 C 88.981 76.097, 89.290 75.999, 96.215 75.985 C 100.222 75.976, 104.034 75.630, 104.687 75.214 C 105.857 74.471, 108 69.761, 108 67.935 C 108 66.881, 86.708 66.625, 85.667 67.667 M 126 72.500 C 126 73.700, 127.500 74, 133.500 74 C 139.500 74, 141 73.700, 141 72.500 C 141 71.300, 139.500 71, 133.500 71 C 127.500 71, 126 71.300, 126 72.500 M 21 74 C 17.067 77.933, 19.911 85, 25.427 85 C 27.864 85, 32 80.909, 32 78.500 C 32 77.823, 31.067 76.084, 29.927 74.635 C 27.437 71.468, 23.791 71.209, 21 74 M 24.250 76.718 C 22.553 77.327, 22.667 79.658, 24.427 80.334 C 26.465 81.116, 28.406 78.567, 26.762 77.267 C 26.068 76.718, 24.938 76.471, 24.250 76.718 M 86.525 103.618 C 84.700 105.443, 84.901 106.904, 87.174 108.338 C 89.342 109.705, 92 108.454, 92 106.067 C 92 103.116, 88.564 101.579, 86.525 103.618 M 77.389 104.430 C 76.393 107.025, 77.788 109.169, 80.246 108.820 C 81.898 108.585, 82.500 107.833, 82.500 106 C 82.500 104.167, 81.898 103.415, 80.246 103.180 C 78.893 102.988, 77.750 103.488, 77.389 104.430 M 94.387 104.433 C 93.314 107.231, 94.789 109.157, 97.744 108.817 C 99.933 108.565, 100.500 107.985, 100.500 106 C 100.500 104.015, 99.933 103.435, 97.744 103.183 C 95.947 102.976, 94.779 103.411, 94.387 104.433 M 103.362 104.500 C 102.417 106.962, 103.776 109, 106.362 109 C 109.147 109, 110.573 106.395, 108.895 104.373 C 107.379 102.547, 104.082 102.623, 103.362 104.500" stroke="none" fill="black" fill-rule="evenodd"/>
	<path fill-opacity="0.312" d="M 61.769 27.345 L 32.039 44.500 32.019 48.250 L 32 52 38.600 52 C 45.194 52, 45.218 51.990, 64.350 40.849 C 74.882 34.716, 85.650 28.413, 88.278 26.841 L 93.056 23.984 117.522 38.242 C 140.073 51.385, 141.988 52.715, 141.994 55.250 C 142 57.856, 141.757 58, 137.360 58 C 134.635 58, 132.262 57.434, 131.610 56.628 C 131 55.874, 122.098 50.523, 111.830 44.739 L 93.159 34.222 73.608 45.361 C 62.855 51.487, 54.098 56.950, 54.147 57.500 C 54.197 58.050, 54.184 60.279, 54.118 62.453 L 54 66.406 50.123 62.620 L 46.245 58.834 27.873 58.924 L 9.500 59.015 6.678 62.104 L 3.856 65.193 4.178 79.572 C 4.617 99.190, 3.753 98.394, 25.089 98.820 C 36.454 99.046, 41.546 98.792, 42.564 97.947 C 44.717 96.160, 44.298 92.458, 41.587 89.306 C 39.209 86.542, 39.004 86.500, 27.837 86.473 L 16.500 86.447 16.208 78.723 L 15.916 71 26.524 71 C 32.358 71, 38.002 70.534, 39.066 69.965 C 40.449 69.225, 41 69.252, 41 70.062 C 41 70.685, 43.925 74.224, 47.500 77.927 L 54 84.660 54 92.646 L 54 100.633 73.500 111.923 C 84.225 118.133, 93.562 122.985, 94.250 122.706 C 94.937 122.426, 103.600 117.495, 113.500 111.748 L 131.500 101.298 131.807 97.149 C 132.148 92.549, 132.541 92.364, 137.532 94.449 C 140.899 95.856, 141 96.060, 141 101.449 C 141 104.502, 141.113 107.259, 141.250 107.576 C 141.387 107.893, 130.625 114.445, 117.333 122.135 L 93.166 136.118 69.115 122.309 C 52.310 112.660, 45.055 107.973, 45.032 106.750 C 45.005 105.265, 44.009 105, 38.450 105 L 31.900 105 32.200 110.684 L 32.500 116.369 62.336 133.684 C 78.746 143.208, 92.612 151, 93.150 151 C 93.689 151, 107.835 143.055, 124.587 133.344 L 155.045 115.688 154.974 80.270 L 154.904 44.852 151.888 43.176 C 150.229 42.254, 141.813 37.427, 133.186 32.450 C 103.659 15.414, 93.848 10, 92.674 10.095 C 92.028 10.147, 78.121 17.909, 61.769 27.345 M 79.042 50.449 C 77.175 52.699, 79.461 55.167, 82.886 54.598 C 84.324 54.360, 85.869 54.127, 86.320 54.082 C 86.770 54.037, 86.995 52.987, 86.820 51.750 C 86.420 48.939, 81.042 48.039, 79.042 50.449 M 88.965 50.542 C 88.002 51.703, 87.969 52.369, 88.832 53.232 C 91.396 55.796, 97 54.978, 97 52.040 C 97 48.906, 91.217 47.829, 88.965 50.542 M 100.250 49.662 C 98.246 50.471, 98.810 53.805, 101.072 54.523 C 104.276 55.540, 108 54.231, 108 52.088 C 108 49.455, 103.925 48.179, 100.250 49.662 M 9.435 64.072 C 7.536 66.170, 7.415 67.921, 7.873 86.679 C 8.070 94.720, 8.666 95, 25.571 95 C 37.576 95, 40 94.754, 40 93.535 C 40 90.858, 36.244 90, 24.533 90 L 12.934 90 13.217 78.750 L 13.500 67.500 25.438 67.217 C 37.150 66.939, 40 66.187, 40 63.378 C 40 62.272, 37.173 62, 25.655 62 C 12.413 62, 11.166 62.159, 9.435 64.072 M 82 64 C 80.201 65.799, 80 67.333, 80 79.300 C 80 88.311, 80.387 92.987, 81.200 93.800 C 82.022 94.622, 86.922 95, 96.751 95 L 111.102 95 112.657 91.279 C 114.430 87.034, 113.866 79.620, 111.575 77.073 C 110.354 75.717, 110.355 75.037, 111.580 72.135 C 115.160 63.654, 112.662 62, 96.277 62 C 85.333 62, 83.783 62.217, 82 64 M 118.584 63.907 C 117.118 65.528, 116.861 67.950, 116.879 80.024 C 116.890 87.839, 117.186 94.518, 117.536 94.867 C 117.886 95.215, 119.033 94.438, 120.086 93.139 C 121.732 91.109, 122 89.111, 122 78.856 L 122 66.934 133.250 67.217 L 144.500 67.500 144.500 72.500 L 144.500 77.500 135.248 77.788 C 126.613 78.056, 125.887 78.243, 124.344 80.598 C 122.926 82.763, 122.890 83.317, 124.096 84.510 C 125.361 85.763, 148.401 94.992, 150.276 94.998 C 150.702 94.999, 150.384 93.710, 149.569 92.134 C 148.523 90.110, 146.384 88.594, 142.294 86.978 C 134.040 83.716, 133.761 83, 140.743 83 C 148.505 83, 150 81.304, 150 72.500 C 150 62.387, 149.396 62, 133.598 62 C 121.796 62, 120.117 62.213, 118.584 63.907 M 44 66.107 C 44 68.596, 45.379 70.635, 50.940 76.370 C 57.625 83.265, 57.890 83.727, 58.190 89.013 C 58.456 93.730, 58.781 94.500, 60.500 94.500 C 62.219 94.500, 62.544 93.730, 62.810 89.013 C 63.110 83.727, 63.375 83.265, 70.060 76.370 C 75.669 70.586, 77 68.608, 77 66.057 C 77 62.073, 75.983 62.604, 69.075 70.200 C 61.520 78.506, 61.061 78.504, 52.606 70.106 C 48.672 66.197, 45.126 63, 44.726 63 C 44.327 63, 44 64.398, 44 66.107 M 85.667 67.667 C 85.300 68.033, 85 73.208, 85 79.167 L 85 90 96.500 90 L 108 90 108 85.500 L 108 81 101.250 80.985 C 93.966 80.969, 89.714 79.468, 89.186 76.725 C 88.893 75.206, 89.823 75, 96.975 75 L 105.097 75 106.459 71.760 C 107.208 69.978, 107.610 68.178, 107.352 67.760 C 106.774 66.826, 86.594 66.739, 85.667 67.667 M 125.190 72.750 C 125.376 73.713, 126.084 74.455, 126.764 74.400 C 127.444 74.345, 130.925 74.233, 134.500 74.150 C 139.544 74.034, 141 73.664, 141 72.500 C 141 71.291, 139.436 71, 132.927 71 C 125.776 71, 124.892 71.200, 125.190 72.750 M 21.517 74.392 C 18.359 77.550, 18.345 79.436, 21.455 82.545 C 24.315 85.406, 25.728 85.579, 28.777 83.443 C 31.275 81.694, 31.882 75.951, 29.750 74.245 C 26.701 71.806, 24.056 71.853, 21.517 74.392 M 23.380 77.452 C 22.676 79.286, 23.700 81, 25.500 81 C 27.339 81, 28.147 79.547, 27.396 77.590 C 26.633 75.601, 24.123 75.515, 23.380 77.452 M 77.571 103.571 C 76.707 104.436, 76 105.529, 76 106 C 76 106.471, 76.707 107.564, 77.571 108.429 C 78.436 109.293, 79.529 110, 80 110 C 80.471 110, 81.564 109.293, 82.429 108.429 C 83.293 107.564, 84 106.471, 84 106 C 84 105.529, 83.293 104.436, 82.429 103.571 C 81.564 102.707, 80.471 102, 80 102 C 79.529 102, 78.436 102.707, 77.571 103.571 M 86.200 103.200 C 83.169 106.231, 87.293 111.662, 90.564 108.947 C 93.099 106.843, 91.660 102, 88.500 102 C 87.895 102, 86.860 102.540, 86.200 103.200 M 95.040 103.452 C 92.392 106.642, 96.299 111.657, 99.416 109.070 C 101.297 107.508, 101.470 104.870, 99.800 103.200 C 98.197 101.597, 96.505 101.686, 95.040 103.452 M 104.200 103.200 C 101.181 106.219, 104.247 111.008, 107.936 109.034 C 111.125 107.328, 110.037 102, 106.500 102 C 105.895 102, 104.860 102.540, 104.200 103.200" stroke="none" fill="black" fill-rule="evenodd"/>
	<path fill-opacity="0.427" d="M 129 31.500 C 130.375 32.286, 130.863 32.945, 130.083 32.965 C 129.304 32.984, 128.937 33.270, 129.267 33.600 C 129.597 33.930, 130.415 33.862, 131.085 33.447 C 131.978 32.895, 131.812 32.336, 130.460 31.347 C 129.447 30.606, 128.141 30.016, 127.559 30.035 C 126.976 30.055, 127.625 30.714, 129 31.500 M 134 35 C 134.825 35.533, 135.950 35.969, 136.500 35.969 C 137.050 35.969, 136.825 35.533, 136 35 C 135.175 34.467, 134.050 34.031, 133.500 34.031 C 132.950 34.031, 133.175 34.467, 134 35 M 47.543 36.931 C 47.226 37.443, 47.350 38.098, 47.817 38.387 C 48.284 38.676, 48.667 38.257, 48.667 37.456 C 48.667 35.770, 48.351 35.623, 47.543 36.931 M 136.981 37.523 C 135.924 38.796, 135.986 38.943, 137.359 38.416 C 138.261 38.069, 139 37.384, 139 36.893 C 139 35.607, 138.421 35.788, 136.981 37.523 M 42.500 39 C 42.160 39.550, 42.332 40, 42.882 40 C 43.432 40, 44.160 39.550, 44.500 39 C 44.840 38.450, 44.668 38, 44.118 38 C 43.568 38, 42.840 38.450, 42.500 39 M 137.790 40.466 C 136.031 42.360, 135.152 42.686, 134 41.872 C 132.739 40.980, 132.779 40.901, 134.250 41.374 C 135.213 41.684, 136 41.519, 136 41.009 C 136 40.498, 134.689 40.175, 133.088 40.290 C 131.112 40.433, 130.466 40.851, 131.079 41.592 C 131.576 42.193, 131.718 42.949, 131.394 43.273 C 130.632 44.034, 127.885 42.995, 128.410 42.145 C 128.630 41.790, 127.727 41.500, 126.405 41.500 C 125.082 41.500, 124 41.609, 124 41.742 C 124 41.875, 125.539 42.775, 127.421 43.742 C 129.303 44.709, 133.378 47.010, 136.477 48.855 C 141.619 51.917, 142.084 52.485, 141.806 55.355 C 141.510 58.397, 141.345 58.500, 136.750 58.500 C 134.137 58.500, 131.937 58.050, 131.859 57.500 C 131.782 56.950, 129.869 55.457, 127.609 54.182 C 125.349 52.907, 121.596 50.756, 119.270 49.401 C 116.534 47.809, 115.230 47.435, 115.578 48.343 C 115.874 49.115, 117.103 50.191, 118.308 50.734 C 120.301 51.632, 120.217 51.712, 117.380 51.611 C 115.476 51.543, 114.430 51.052, 114.698 50.351 C 114.939 49.719, 114.648 48.901, 114.052 48.532 C 113.455 48.163, 113.247 47.410, 113.588 46.857 C 113.930 46.304, 113.247 46.448, 112.071 47.176 C 110.385 48.220, 110.260 48.569, 111.479 48.826 C 112.329 49.005, 112.794 49.525, 112.511 49.982 C 112.229 50.439, 111.104 50.578, 110.010 50.292 C 108.917 50.007, 108.218 49.457, 108.457 49.070 C 109.272 47.752, 100.336 47.889, 99.276 49.212 C 97.454 51.488, 96.862 54.667, 98.262 54.667 C 98.990 54.667, 99.541 53.541, 99.526 52.083 C 99.502 49.733, 99.860 49.500, 103.486 49.500 C 106.575 49.500, 107.553 49.918, 107.830 51.356 C 108.476 54.709, 106.460 55.229, 92.836 55.225 C 83.947 55.222, 79.255 55.601, 78.765 56.360 C 78.236 57.181, 78.026 57.151, 78.015 56.250 C 78.007 55.563, 77.502 55, 76.893 55 C 76.252 55, 76.066 55.736, 76.452 56.750 C 76.960 58.084, 76.840 58.224, 75.946 57.337 C 74.569 55.971, 75.668 53.659, 77.382 54.316 C 78.107 54.595, 78.549 53.756, 78.530 52.134 C 78.504 49.822, 78.989 49.426, 82.500 48.892 L 86.500 48.284 82.822 48.142 C 79.832 48.027, 78.704 48.563, 76.787 51.013 C 74.822 53.524, 74.429 53.703, 74.429 52.087 C 74.429 51.020, 74.735 50.336, 75.110 50.568 C 75.484 50.799, 76.020 50.391, 76.300 49.661 C 76.580 48.931, 76.167 48.333, 75.382 48.333 C 73.715 48.333, 72.512 52.215, 73.395 54.748 C 73.931 56.287, 73.852 56.313, 72.752 54.964 C 72.064 54.119, 70.600 53.530, 69.500 53.656 C 67.968 53.832, 67.909 53.765, 69.250 53.369 C 71.858 52.601, 71.370 50.763, 68.750 51.484 C 66.563 52.086, 66.555 52.060, 68.441 50.552 C 71.349 48.227, 69.088 48.762, 64 51.603 C 61.525 52.985, 60.311 53.869, 61.302 53.569 C 62.416 53.231, 62.855 53.426, 62.451 54.080 C 62.092 54.661, 61.136 54.882, 60.326 54.572 C 59.517 54.261, 57.988 54.471, 56.928 55.039 C 55.385 55.864, 55 57.162, 55 61.535 C 55 64.541, 54.641 67, 54.203 67 C 53.765 67, 51.648 65.200, 49.500 63 L 45.594 59 27.853 59 C 10.546 59, 10.043 59.059, 7.306 61.411 C 4.533 63.794, 4.496 63.976, 4.169 77.007 C 3.785 92.290, 4.646 95.536, 9.640 97.623 C 13.970 99.432, 41.023 99.577, 42.800 97.800 C 44.716 95.884, 44.197 92.505, 41.548 89.646 C 39.169 87.079, 38.751 87, 27.548 87 L 16 87 16 79 L 16 71 25.935 71 C 31.399 71, 37.024 70.561, 38.435 70.025 C 40.200 69.354, 41 69.384, 41 70.122 C 41 70.712, 43.873 74.188, 47.385 77.847 L 53.771 84.500 54.290 92.480 C 54.734 99.311, 55.132 100.680, 57.053 101.980 C 62.965 105.983, 93.174 123.019, 93.795 122.701 C 94.183 122.502, 102.938 117.476, 113.250 111.533 L 132 100.728 132 96.381 L 132 92.033 136.750 93.895 L 141.500 95.757 141.798 101.874 L 142.095 107.992 137.798 110.527 C 110.347 126.725, 93.416 135.990, 92.155 135.506 C 86.962 133.513, 45.049 108.295, 44.698 106.952 C 44.364 105.677, 42.879 105.266, 38.083 105.122 L 31.898 104.936 32.199 110.570 L 32.500 116.203 62.500 133.585 C 79 143.145, 92.744 150.975, 93.042 150.984 C 93.340 150.993, 107.065 143.208, 123.542 133.684 L 153.500 116.368 153.763 80.715 L 154.025 45.063 151.557 43.445 C 150.199 42.555, 148.549 42.161, 147.889 42.568 C 147.151 43.025, 146.953 42.885, 147.373 42.205 C 148.231 40.817, 144.351 38.651, 142.370 39.412 C 141.542 39.729, 141.164 39.544, 141.507 38.989 C 142.743 36.990, 140.011 38.076, 137.790 40.466 M 36.433 42.293 C 33.183 44.104, 32 45.742, 32 48.429 C 32 50.956, 32.124 51, 39.250 50.977 C 45.826 50.957, 47.011 50.626, 52 47.420 C 55.025 45.475, 56.431 44.184, 55.125 44.549 C 53.524 44.997, 52.970 44.857, 53.427 44.119 C 53.845 43.442, 53.535 43.241, 52.615 43.594 C 51.796 43.908, 51.349 44.745, 51.621 45.454 C 51.892 46.162, 51.350 47.035, 50.416 47.394 C 48.925 47.966, 48.887 47.837, 50.109 46.336 C 51.348 44.812, 51.288 44.705, 49.556 45.356 C 47.699 46.054, 47.690 46.001, 49.349 44.167 C 50.872 42.484, 50.897 42.175, 49.555 41.660 C 48.713 41.336, 48.072 41.393, 48.130 41.786 C 48.407 43.641, 47.794 43.868, 45.250 42.855 C 41.213 41.246, 38.609 41.080, 36.433 42.293 M 57.756 41.712 C 58.447 41.964, 58.730 42.627, 58.386 43.185 C 58.018 43.779, 58.637 43.729, 59.879 43.065 C 62.588 41.615, 62.554 41.525, 59.249 41.377 C 57.737 41.309, 57.065 41.460, 57.756 41.712 M 37 43 C 36.099 43.582, 35.975 43.975, 36.691 43.985 C 37.346 43.993, 38.160 43.550, 38.500 43 C 39.267 41.758, 38.921 41.758, 37 43 M 108.333 44.456 C 108.333 45.257, 108.716 45.676, 109.183 45.387 C 109.650 45.098, 109.774 44.443, 109.457 43.931 C 108.649 42.623, 108.333 42.770, 108.333 44.456 M 131.500 44 C 131.160 44.550, 131.332 45, 131.882 45 C 132.432 45, 133.160 44.550, 133.500 44 C 133.840 43.450, 133.668 43, 133.118 43 C 132.568 43, 131.840 43.450, 131.500 44 M 71.543 46.931 C 71.226 47.443, 71.350 48.098, 71.817 48.387 C 72.284 48.676, 72.667 48.257, 72.667 47.456 C 72.667 45.770, 72.351 45.623, 71.543 46.931 M 87.872 49.750 C 86.629 51.336, 86.664 51.371, 88.250 50.128 C 89.916 48.821, 90.445 48, 89.622 48 C 89.415 48, 88.627 48.788, 87.872 49.750 M 91.813 48.683 C 92.534 48.972, 93.397 48.936, 93.729 48.604 C 94.061 48.272, 93.471 48.036, 92.417 48.079 C 91.252 48.127, 91.015 48.364, 91.813 48.683 M 109 52 C 109 52.550, 109.450 53, 110 53 C 110.550 53, 111 52.550, 111 52 C 111 51.450, 110.550 51, 110 51 C 109.450 51, 109 51.450, 109 52 M 86.603 53.833 C 86.320 54.292, 86.723 54.667, 87.500 54.667 C 88.277 54.667, 88.680 54.292, 88.397 53.833 C 88.114 53.375, 87.710 53, 87.500 53 C 87.290 53, 86.886 53.375, 86.603 53.833 M 9.573 63.570 C 7.193 65.950, 6.788 68.853, 7.160 80.895 C 7.623 95.917, 7.055 95.462, 25.547 95.636 C 33.509 95.711, 40.224 95.447, 40.470 95.049 C 40.716 94.651, 40.235 93.353, 39.402 92.163 C 37.987 90.143, 37.065 90, 25.443 90 L 13 90 13 79 L 13 68 25 68 C 35.667 68, 37.222 67.778, 39 66 C 40.100 64.900, 41 63.550, 41 63 C 41 62.378, 35.357 62, 26.071 62 C 13.839 62, 10.859 62.284, 9.573 63.570 M 44 65.631 C 44 69.196, 44.702 70.324, 50.750 76.493 C 57.151 83.020, 57.526 83.664, 58 88.938 C 58.434 93.763, 58.798 94.542, 60.750 94.820 C 63.125 95.157, 63.220 94.907, 63.408 87.837 C 63.490 84.737, 64.524 83.118, 70.122 77.319 C 76.587 70.622, 79.396 64.996, 77.314 62.914 C 76.796 62.396, 73.325 65.146, 68.988 69.513 C 64.897 73.631, 61.150 77, 60.660 77 C 60.171 77, 56.222 73.547, 51.885 69.327 L 44 61.653 44 65.631 M 81.655 63.829 C 80.279 65.350, 80 68.047, 80 79.853 L 80 94.050 82.514 95.005 C 83.896 95.531, 90.631 95.857, 97.479 95.730 C 112.076 95.460, 113.010 94.956, 113.782 86.917 C 114.151 83.074, 113.817 80.815, 112.521 78.409 C 111.067 75.710, 110.954 74.570, 111.879 71.918 C 114.935 63.152, 113.159 62, 96.584 62 C 84.994 62, 83.100 62.232, 81.655 63.829 M 118.441 63.417 C 116.695 64.692, 116.468 66.353, 116.178 79.917 C 115.911 92.417, 116.099 95, 117.273 95 C 120.883 95, 121.926 91.722, 122.216 79.458 L 122.500 67.500 133.500 67.500 L 144.500 67.500 144.500 72.500 L 144.500 77.500 134.712 77.787 C 125.481 78.057, 124.861 78.210, 123.830 80.473 C 123.229 81.793, 122.968 83.475, 123.251 84.212 C 123.789 85.613, 148.425 95.360, 150.050 94.814 C 150.564 94.641, 150.162 93.150, 149.156 91.500 C 147.904 89.445, 145.622 87.870, 141.914 86.501 C 136.955 84.670, 136.752 84.479, 139.500 84.227 C 148.758 83.377, 150 82, 150 72.584 C 150 62.226, 149.645 62, 133.362 62 C 123.741 62, 119.880 62.367, 118.441 63.417 M 85.655 68.750 C 85.400 69.162, 85.261 74, 85.346 79.500 L 85.500 89.500 96.750 89.783 L 108 90.066 108 85.533 L 108 81 100.155 81 C 93.825 81, 91.990 80.647, 90.655 79.171 C 87.511 75.697, 88.574 75, 97.025 75 C 104.719 75, 105.090 74.894, 106.025 72.435 C 106.561 71.024, 107 69.449, 107 68.935 C 107 67.829, 86.334 67.650, 85.655 68.750 M 125.705 70.628 C 125.317 71.016, 125 72.177, 125 73.207 C 125 74.911, 125.749 75.055, 133.250 74.790 C 140.737 74.527, 141.500 74.315, 141.500 72.500 C 141.500 70.702, 140.737 70.471, 133.955 70.212 C 129.805 70.053, 126.093 70.241, 125.705 70.628 M 21.200 74.200 C 20.540 74.860, 20 76.795, 20 78.500 C 20 82.322, 21.565 84, 25.129 84 C 30.039 84, 32.424 79.529, 29.965 74.934 C 28.778 72.717, 23.154 72.246, 21.200 74.200 M 23.364 77.493 C 23.018 78.396, 23.214 79.614, 23.800 80.200 C 25.324 81.724, 28.210 80.331, 27.812 78.265 C 27.369 75.963, 24.165 75.407, 23.364 77.493 M 77.040 103.452 C 74.383 106.653, 78.285 111.570, 81.750 109.388 C 85.212 107.207, 83.979 102, 80 102 C 79.035 102, 77.703 102.653, 77.040 103.452 M 86.200 103.200 C 83.397 106.003, 86.124 110.730, 89.860 109.545 C 92.380 108.745, 93.268 106.370, 91.961 103.928 C 90.798 101.753, 88 101.400, 86.200 103.200 M 95.040 103.452 C 92.392 106.642, 96.299 111.657, 99.416 109.070 C 101.459 107.374, 101.460 103.391, 99.418 102.607 C 97.080 101.710, 96.372 101.847, 95.040 103.452 M 103.621 103.521 C 102.730 104.413, 102 105.529, 102 106 C 102 107.546, 105.210 110.106, 106.764 109.800 C 109.243 109.311, 110.672 106.289, 109.388 104.250 C 107.886 101.865, 105.570 101.572, 103.621 103.521" stroke="none" fill="black" fill-rule="evenodd"/>
	<path fill-opacity="0.334" d="M 153 62.167 C 153 72.277, 152.332 75.253, 151.860 67.247 C 151.724 64.941, 151.421 63.246, 151.187 63.480 C 150.953 63.713, 150.108 63.251, 149.310 62.452 C 148.511 61.654, 147.102 61.029, 146.179 61.063 C 144.985 61.108, 145.154 61.390, 146.765 62.037 C 148.010 62.537, 149.473 64.113, 150.015 65.538 C 151.266 68.831, 151.285 76.120, 150.050 79.368 C 149.375 81.143, 149.448 82.001, 150.300 82.331 C 150.960 82.587, 150.600 82.853, 149.500 82.922 C 148.400 82.992, 145.038 83.313, 142.029 83.636 L 136.559 84.223 141.529 86.200 C 144.263 87.287, 147.037 88.212, 147.694 88.255 C 148.351 88.298, 148.835 88.596, 148.770 88.917 C 148.705 89.237, 149.253 90.739, 149.988 92.254 C 150.723 93.769, 151.120 95.213, 150.871 95.463 C 150.301 96.033, 124.957 86.357, 123.683 85.083 C 122.222 83.622, 123.873 78.846, 126.034 78.281 C 127.103 78.001, 127.757 77.416, 127.487 76.980 C 127.218 76.543, 127.785 76.378, 128.749 76.612 C 129.712 76.847, 133.469 77.142, 137.098 77.269 L 143.697 77.500 143.814 74.353 C 143.879 72.622, 144.059 70.653, 144.216 69.978 C 144.372 69.303, 143.825 68.547, 143 68.299 C 141.667 67.898, 141.667 67.966, 143 68.909 C 144.017 69.628, 144.097 69.974, 143.250 69.985 C 142.563 69.993, 142 71.125, 142 72.500 C 142 74.971, 141.900 75, 133.500 75 C 125.100 75, 125 74.971, 125 72.500 C 125 70.042, 125.133 70, 133 70 C 137.400 70, 141 69.662, 141 69.250 C 141 68.838, 136.837 68.527, 131.750 68.560 L 122.500 68.619 122 80.989 L 121.500 93.359 118.500 94.582 L 115.500 95.806 115.768 82.153 C 115.943 73.251, 115.705 69.005, 115.084 69.952 C 114.560 70.751, 114.397 71.833, 114.720 72.357 C 115.044 72.881, 114.809 73, 114.198 72.622 C 113.587 72.245, 113.364 71.163, 113.703 70.218 C 114.042 69.273, 114.008 68.776, 113.628 69.114 C 111.889 70.663, 111.288 75.674, 112.624 77.501 C 113.421 78.590, 114 81.846, 114 85.237 C 114 90.119, 113.592 91.498, 111.545 93.545 C 109.194 95.897, 108.551 96, 96.237 96 C 87.268 96, 82.845 95.607, 81.604 94.700 C 80.183 93.661, 79.737 91.509, 79.377 83.970 C 79.046 77.021, 78.537 74.321, 77.443 73.708 C 76.626 73.251, 76.255 72.342, 76.618 71.689 C 76.980 71.035, 74.290 73.412, 70.639 76.971 C 64.149 83.297, 64 83.558, 64 88.599 C 64 94.515, 62.327 96.781, 59.195 95.105 C 58.133 94.536, 57.091 94.244, 56.881 94.455 C 56.672 94.667, 56.656 92.364, 56.847 89.338 C 57.138 84.728, 56.831 83.449, 54.952 81.449 C 53.718 80.136, 52.212 79.345, 51.605 79.691 C 50.997 80.037, 50.824 79.962, 51.220 79.524 C 52.097 78.553, 43.398 68.676, 41.409 68.384 C 40.629 68.269, 40.249 68.593, 40.564 69.104 C 40.880 69.615, 41.634 69.726, 42.239 69.352 C 42.959 68.907, 43.107 69.280, 42.666 70.429 C 42.170 71.721, 43.713 73.969, 48.496 78.923 L 55 85.660 55 93.235 L 55 100.810 63.250 105.580 C 67.787 108.204, 76.364 113.190, 82.308 116.660 L 93.117 122.970 112.469 111.840 L 131.822 100.710 131.689 96.605 C 131.543 92.060, 131.693 91.995, 137.750 93.947 L 142 95.317 142 101.934 L 142 108.552 126.301 117.526 C 117.666 122.462, 109.004 127.400, 107.051 128.500 C 105.098 129.600, 101.394 131.737, 98.822 133.250 C 96.249 134.762, 93.702 136, 93.162 136 C 91.471 136, 46.588 109.899, 44.840 107.900 C 43.580 106.458, 41.832 106, 37.590 106 L 32 106 32 110.868 L 32 115.736 62.538 133.384 L 93.075 151.031 116.288 137.631 C 129.054 130.262, 142.762 122.341, 146.750 120.029 L 154 115.827 154 83.914 C 154 66.361, 153.775 52, 153.500 52 C 153.225 52, 153 56.575, 153 62.167 M 6.694 62.667 C 7.350 62.921, 7.616 63.888, 7.284 64.815 C 6.652 66.581, 6.825 66.479, 8.732 63.959 C 9.694 62.688, 9.512 62.399, 7.699 62.311 C 6.490 62.252, 6.037 62.412, 6.694 62.667 M 48.792 63.153 C 49.847 64.503, 49.847 64.900, 48.792 65.324 C 47.905 65.680, 47.874 65.867, 48.691 65.921 C 50.739 66.057, 51.056 64.288, 49.239 62.863 C 47.688 61.647, 47.639 61.678, 48.792 63.153 M 70.545 66.953 C 68.989 68.577, 67.238 69.814, 66.654 69.703 C 66.069 69.591, 65.570 70.025, 65.545 70.667 C 65.486 72.191, 64 73.677, 64 72.212 C 64 71.192, 62.791 70.835, 55 69.558 C 53.625 69.333, 52.275 69.108, 52 69.059 C 51.725 69.010, 52.111 68.583, 52.857 68.110 C 53.803 67.510, 53.878 67.043, 53.107 66.566 C 52.498 66.190, 52 66.385, 52 67 C 52 67.615, 51.438 67.794, 50.750 67.398 C 50.063 67.002, 50.578 67.861, 51.895 69.308 C 53.213 70.755, 54.788 71.655, 55.395 71.309 C 56.003 70.963, 56.162 71.052, 55.748 71.509 C 54.618 72.754, 58.006 76, 60.436 76 C 61.709 76, 64.947 73.591, 68.500 70 C 71.766 66.700, 74.198 64, 73.906 64 C 73.613 64, 72.101 65.329, 70.545 66.953 M 115.459 65.067 C 115.096 65.653, 115.014 66.348, 115.276 66.610 C 115.538 66.872, 116.019 66.392, 116.345 65.543 C 117.021 63.781, 116.445 63.471, 115.459 65.067 M 4.800 69.200 C 6.251 70.651, 6.400 72.365, 5 71.500 C 4.360 71.105, 4 74.301, 4 80.376 C 4 97.453, 4.926 98.185, 26.466 98.139 C 35.020 98.121, 42.465 97.831, 43.010 97.494 C 44.886 96.335, 43.993 92.839, 41.077 89.923 C 38.196 87.042, 37.994 87, 27.003 87 L 15.853 87 16.177 78.498 C 16.508 69.793, 15.421 66.598, 14.732 74.250 L 14.349 78.500 14.175 73.907 L 14 69.314 23.500 69.478 C 28.725 69.569, 33 69.273, 33 68.821 C 33 68.370, 28.485 68, 22.966 68 L 12.932 68 13.216 78.750 L 13.500 89.500 25.913 89.782 C 36.257 90.017, 38.544 90.351, 39.631 91.782 C 42.599 95.689, 41.627 96, 26.455 96 C 12.345 96, 11.836 95.927, 9.455 93.545 C 7.132 91.223, 7 90.470, 7 79.545 C 7 69.346, 6.802 68, 5.300 68 C 3.978 68, 3.867 68.267, 4.800 69.200 M 34.500 69 C 34.840 69.550, 36.104 69.968, 37.309 69.930 C 39.421 69.862, 39.428 69.829, 37.500 69 C 34.748 67.817, 33.769 67.817, 34.500 69 M 89 68.645 C 97.379 69.384, 107.004 69.440, 107.002 68.750 C 107.001 68.338, 102.162 68.076, 96.250 68.168 C 90.338 68.261, 87.075 68.475, 89 68.645 M 123.195 71.500 C 123.215 73.150, 123.439 73.704, 123.693 72.731 C 123.947 71.758, 123.930 70.408, 123.656 69.731 C 123.382 69.054, 123.175 69.850, 123.195 71.500 M 78.079 71.583 C 78.127 72.748, 78.364 72.985, 78.683 72.188 C 78.972 71.466, 78.936 70.603, 78.604 70.271 C 78.272 69.939, 78.036 70.529, 78.079 71.583 M 102.500 70.770 C 99.204 71.469, 98.323 73, 101.217 73 C 102.656 73, 104.062 72.539, 104.342 71.975 C 104.621 71.411, 104.736 71.524, 104.598 72.225 C 104.273 73.864, 97.088 74.491, 95.618 73.009 C 94.790 72.174, 95.019 72.051, 96.500 72.535 C 98.119 73.064, 98.214 72.983, 97 72.110 C 95.069 70.721, 92 70.689, 92 72.059 C 92 72.641, 92.520 72.797, 93.155 72.405 C 93.870 71.962, 94.038 72.130, 93.595 72.845 C 93.203 73.480, 92.207 74, 91.382 74 C 90.557 74, 90.160 73.550, 90.500 73 C 90.840 72.450, 90.754 71.966, 90.309 71.923 C 89.864 71.881, 88.713 71.696, 87.750 71.512 C 86.183 71.212, 86 72.166, 86 80.622 L 86 90.068 96.750 89.784 L 107.500 89.500 107.807 85.250 L 108.115 81 99.614 81 C 91.963 81, 90.958 80.778, 89.557 78.777 C 86.855 74.920, 87.548 74.482, 95.817 74.820 C 102.067 75.077, 103.907 74.817, 104.977 73.528 C 106.586 71.588, 105.315 70.172, 102.500 70.770 M 46 74.500 C 47.866 76.425, 49.617 78, 49.892 78 C 50.167 78, 48.866 76.425, 47 74.500 C 45.134 72.575, 43.383 71, 43.108 71 C 42.833 71, 44.134 72.575, 46 74.500 M 21.655 74.829 C 19.753 76.931, 19.340 81.526, 21.155 80.405 C 21.906 79.940, 22.036 80.133, 21.526 80.957 C 21.070 81.695, 21.319 82.588, 22.122 83.096 C 27.715 86.639, 34.042 79.063, 29.171 74.655 C 26.772 72.484, 23.713 72.555, 21.655 74.829 M 25.494 75.010 C 25.139 75.584, 24.238 75.929, 23.490 75.777 C 21.759 75.424, 21.543 75.985, 22.386 78.640 C 22.789 79.909, 24.167 80.990, 25.777 81.298 C 29.058 81.925, 30.037 81.423, 29.884 79.191 C 29.779 77.666, 29.723 77.672, 29.311 79.250 C 28.563 82.110, 27.369 81.239, 27.593 77.998 C 27.809 74.884, 26.618 73.190, 25.494 75.010 M 71.278 77.122 C 70.661 77.739, 70.424 78.942, 70.752 79.795 C 71.211 80.993, 70.908 81.180, 69.424 80.614 C 67.900 80.034, 67.755 80.138, 68.726 81.117 C 69.699 82.097, 70.336 82.006, 71.808 80.674 C 72.828 79.751, 74.035 79.334, 74.491 79.748 C 74.948 80.162, 75.009 79.957, 74.628 79.294 C 74.248 78.630, 73.163 78.377, 72.218 78.731 C 70.717 79.293, 70.673 79.162, 71.872 77.687 C 73.415 75.791, 73.001 75.399, 71.278 77.122 M 75.733 78.124 C 76.412 78.808, 77.219 79.115, 77.526 78.807 C 77.834 78.499, 77.279 77.940, 76.293 77.564 C 74.868 77.022, 74.753 77.136, 75.733 78.124 M 105.211 83.399 C 105.920 84.169, 106.658 84.649, 106.850 84.466 C 107.443 83.902, 105.940 82, 104.902 82 C 104.362 82, 104.501 82.630, 105.211 83.399 M 93.813 84.683 C 94.534 84.972, 95.397 84.936, 95.729 84.604 C 96.061 84.272, 95.471 84.036, 94.417 84.079 C 93.252 84.127, 93.015 84.364, 93.813 84.683 M 144.733 86.124 C 145.412 86.808, 146.219 87.115, 146.526 86.807 C 146.834 86.499, 146.279 85.940, 145.293 85.564 C 143.868 85.022, 143.753 85.136, 144.733 86.124 M 77.040 103.452 C 74.383 106.653, 78.285 111.570, 81.750 109.388 C 85.212 107.207, 83.979 102, 80 102 C 79.035 102, 77.703 102.653, 77.040 103.452 M 85.667 102.667 C 85.300 103.033, 85 104.600, 85 106.148 C 85 109.809, 89.073 111.149, 92.040 108.464 C 93.129 107.478, 94 107.195, 94 107.826 C 94 108.451, 95.195 109.262, 96.656 109.628 C 98.612 110.119, 99.665 109.811, 100.656 108.456 C 101.961 106.672, 102.039 106.672, 103.344 108.456 C 104.346 109.826, 105.382 110.121, 107.405 109.613 C 109.751 109.024, 110.079 108.493, 109.811 105.716 C 109.570 103.222, 108.977 102.426, 107.168 102.170 C 105.885 101.988, 104.028 102.570, 103.041 103.463 C 101.440 104.912, 101.183 104.920, 100.655 103.543 C 99.884 101.535, 95.352 101.549, 94.225 103.563 C 93.431 104.981, 93.229 104.981, 92.052 103.563 C 90.740 101.982, 86.892 101.441, 85.667 102.667" stroke="none" fill="black" fill-rule="evenodd"/>
</svg>