<?xml version="1.0"?><svg xmlns="http://www.w3.org/2000/svg" width="36" height="36" shape-rendering="geometricPrecision" text-rendering="geometricPrecision" image-rendering="optimizeQuality" fill-rule="evenodd" clip-rule="evenodd" viewBox="0 0 36 36"><path fill="#f6f8fb" d="m10.7-0.1h16.6v0.9h-0.4v0.9h0.9v0.9h0.9c0.3 0.6 0.7 0.9 1.3 0.9v0.9h-0.4c0.2 0.5 0.5 0.8 0.9 0.9v0.9h0.9c0 0.4 0.1 0.7 0.4 0.9-0.1 0-0.2 0.1-0.4 0 0.1 0.3 0.3 0.5 0.5 0.7 0.1 0.4 0.1 0.8 0.1 1.1h0.3c0.2 0.3 0.4 0.6 0.6 0.8-0.4 0.1-0.7 0.1-1.1 0.1-0.1 0.2-0.2 0.3-0.4 0.4-0.2-0.2-0.5-0.3-0.7-0.1h-2v-0.4c0.7 0 1.3 0 1.8 0v-0.4h-1.8v-0.4h0.4c0-0.3 0-0.6-0.1-1-0.2-0.3-0.3-0.2-0.3 0.1h-0.5v-0.9h-0.9v-0.9h-0.4v-0.9h-0.9v-0.9h-1.8v-1.2h-0.9v-0.6h-0.9v-0.3h-0.9v-0.6h-5.4v0.4h-0.9v0.4c-0.4 0-0.9 0.1-1.4 0.1v0.9h-1.3v0.9h-0.9v0.9h-0.9v0.9h-1.8v0.9h-0.3v0.9h0.3v0.6h-0.9v0.3c0.4 0 0.7 0 0.9 0.2l-0.3 0.1c-0.4-0.2-0.9-0.2-1.3 0-0.5-0.3-0.6-0.2-0.3 0.3 0.8 0 0.8 0.1 0 0.2 0.4 0.3 0.8 0.3 1.3 0.1 0 0.2 0 0.3 0.1 0.4 0.6 0.1 1.1 0.3 1.4 0.8 0.2-0.2 0.2-0.5 0.2-0.7 0.3-0.1 0.6-0.1 1 0-1.4 0.8-1.7 1.9-0.7 3.3l0.8 0.4c-0.1 0.2-0.2 0.3-0.4 0.3 0.5 0 0.9 0 1.3 0-2.2 0.2-4.4 0.2-6.7 0.1 0.1-1.2 0.1-2.4 0-3.7h1.2c0-0.1 0-0.2-0.1-0.3 0-0.2-0.1-0.3-0.3-0.4-0.4 0-0.9 0-1.3 0.1-0.4-0.1-0.8-0.1-1.1 0-0.2-0.4-0.1-0.5 0.3-0.4 0.1-0.2 0.1-0.3-0.1-0.5 0.3 0 0.7-0.1 1-0.1 0.1-0.4 0.1-0.7 0.1-1.1h0.3v-2.1h0.9v0.3h0.6v-1.8c0.6 0 1-0.3 1.2-0.9h0.9v-0.9h0.4v-0.9h-0.4v-0.3l1.8-0.2v-1.3z"></path><path fill="#f1f4f9" d="m27.3-0.1h3.2v1.8h1.8v2.7h0.4v0.9h1.4v3.6h1.8v15.3c0 0.2-0.1 0.3-0.2 0.5-0.1-0.1-0.1-0.3-0.1-0.5h-1.1v-0.3h-0.4v1.2h0.4v1.8h-0.9l0.2 1.8h0.3v1.4h-0.9v-0.5h-0.9v2.7h-1.8v1.8h0.9c0 0.3 0.1 0.6 0.3 0.8-0.3 0.2-0.3 0.3 0.1 0.3v0.6c-0.2 0-0.3 0-0.4 0.1h-5.4v-0.9h0.9v-0.9h0.9v-0.9h0.9c0 0.4 0.1 0.5 0.3 0.2 0.1-0.4 0.1-0.7 0.1-1.1h0.9v-0.9h-0.4c0.2-0.4 0.5-0.7 0.9-0.9v-0.9h0.9c0-0.3 0.1-0.6 0.4-0.8-0.1-0.1-0.2-0.1-0.4-0.1 0.1-0.2 0.3-0.5 0.5-0.6 0.1-0.4 0.1-0.8 0.1-1.2h-0.4v-1.8h1.6c0.1-0.6 0.2-1.2 0.3-1.8 0-1.2 0-2.4 0.1-3.6l0.2 1.8 0.1-0.9-0.1-1.8h-0.4v-1.8h0.4c0.1-0.9 0.1-1.8 0-2.7l-0.2 1.8-0.1-0.9c0.1-1.2 0.1-2.4 0.1-3.6h-0.4v-0.9h-0.9c-0.4-0.1-0.8-0.3-1.3-0.5-0.1-0.1-0.2-0.2-0.3-0.1 0.2-0.2 0.5-0.1 0.7 0.1 0.2-0.1 0.3-0.2 0.4-0.4 0.4 0 0.7 0 1.1-0.1-0.2-0.2-0.4-0.5-0.6-0.8h-0.3c0-0.3 0-0.7-0.1-1.1-0.2-0.2-0.4-0.4-0.5-0.7 0.2 0.1 0.3 0 0.4 0-0.3-0.2-0.4-0.5-0.4-0.9h-0.9v-0.9c-0.4-0.1-0.7-0.4-0.9-0.9h0.4v-0.9c-0.6 0-1-0.3-1.3-0.9h-0.9v-0.9h-0.9v-0.9h0.4v-0.9z"></path><path fill="#fbfcfd" d="m30.7 10.1c0.1-0.1 0.2 0 0.3 0.1-0.8 0-1.5 0-2.3 0 0 0.8-0.1 1.6-0.1 2.3 0-0.7-0.1-1.5-0.3-2.3l-0.1 2.5c-0.4-0.2-0.8-0.2-1.3-0.2 0.1-0.7 0-1.4-0.1-2.1-0.2-0.3-0.5-0.4-0.8-0.2-0.1 1.3-0.1 2.6 0 3.8 0.1 0.1 0 0.3-0.1 0.3l-0.2-0.4-0.3 0.4c-0.2-0.4-0.2-0.4-0.3 0-0.1 0.1-0.2 0-0.3-0.1 0.1-0.3 0.2-0.6 0.3-0.9 0.2-0.1 0.4-0.2 0.6-0.2v-1.9h-0.3c-0.1-0.5-0.3-0.7-0.8-0.7-0.2-0.2-0.4-0.4-0.7-0.4-0.6-0.1-1.1 0-1.7 0.1-0.2 0.2-0.2 0.5-0.2 0.8-0.2 0-0.4-0.1-0.5-0.3-0.2 0.1-0.2 0.2 0 0.4-0.1 0.1-0.2 0.1-0.4 0.1 0-0.4 0.1-0.6 0.3-0.8l-0.1-0.2c-0.5-0.1-1-0.2-1.6-0.1-0.3 0-0.7 0-1.1 0-0.3 0.1-0.4 0.3-0.4 0.6h-0.4c0 0.5-0.1 0.6-0.3 0.2 0.1-0.4 0.1-0.7 0.1-1.1-0.2 0-0.4 0-0.6 0.1 0.1 0.1 0.2 0.2 0.2 0.4-0.2 0-0.3 0-0.4 0.1-0.1 1-0.1 1.9-0.1 2.9-0.6-0.9-1.2-1.7-1.9-2.6v-0.5c-0.7-0.2-1.1 0-1.4 0.7 0 0.1-0.2 0.1-0.3 0.1-0.6-0.6-1.3-0.8-2.1-0.7-0.4-0.1-0.7-0.1-1 0 0 0.2 0 0.5-0.2 0.7-0.3-0.5-0.8-0.7-1.4-0.8-0.1-0.1-0.1-0.2-0.1-0.4-0.5 0.2-0.9 0.2-1.3-0.1 0.8-0.1 0.8-0.2 0-0.2-0.3-0.5-0.2-0.6 0.3-0.3 0.4-0.2 0.9-0.2 1.3 0l0.3-0.1c-0.2-0.2-0.5-0.2-0.9-0.2v-0.3h0.9v-0.6h-0.3v-0.9h0.3v-0.9h1.8v-0.9h0.9v-0.9h0.9v-0.9h1.3v-0.9c0.5 0 1-0.1 1.4-0.1v-0.4h0.9v-0.4h5.4v0.6h0.9v0.3h0.9v0.6h0.9v1.2h1.8v0.9h0.9v0.9h0.4v0.9h0.9v0.9h0.5c0-0.3 0.1-0.4 0.3-0.1 0.1 0.4 0.1 0.7 0.1 1h-0.4v0.4h1.8v0.4c-0.5 0-1.1 0-1.8 0v0.4h2z"></path><path fill="#ebf0fa" d="m-0.1-0.1h6.3c0 0.2-0.1 0.3-0.3 0.3 0.1 0.1 0.2 0.1 0.3 0.1v1.4h0.4v1.3h-0.4v0.5h-1.8v3.6h-1.8v1.8h0.4c0 0.6 0 1.2-0.1 1.8-0.1-1.2-0.2-1.2-0.3 0h-0.3v0.9h0.3v0.9h-0.9v10.8h1.3v1.8h-0.4v-0.9h-0.3c0.2 0.9 0.3 1.8 0.3 2.7h0.9v3.6h0.9v1.8h0.9v1.8h0.6c0.1 0.4 0 0.7-0.2 1 0.1 0.1 0.3 0.2 0.5 0.2v0.6h-6.3v-36z"></path><path fill="#ecf0f9" d="m30.5-0.1h5.4v9h-1.8v-3.6h-1.4v-0.9h-0.4v-2.7h-1.8v-1.8z"></path><path fill="#f9e1f4" d="m6.4 10.4h-2.9c0.4-0.2 0.8-0.3 1.3-0.3 0.4-0.1 0.9-0.1 1.3-0.1 0.2 0.1 0.3 0.2 0.3 0.4z"></path><path fill="#fcf8d7" d="m24.6 10.5c-0.6-0.2-1.1-0.3-1.7-0.1-0.3 0-0.5 0.1-0.7 0.3l-0.2 0.3c0-0.3 0-0.6 0.2-0.8 0.6-0.1 1.1-0.2 1.7-0.1 0.3 0 0.5 0.2 0.7 0.4z"></path><path fill="#ea83ba" d="m3.5 10.4h0.2c0.3 0.2 0.7 0.3 1.1 0.3h-1.3v-0.3z"></path><path fill="#e082b3" d="m6.4 10.4c0.1 0.1 0.1 0.2 0.1 0.3h-1.3c0.4 0 0.8-0.1 1.2-0.3z"></path><path fill="#ede4c1" d="m26.8 10.4h-0.8v3.5h2.3c-0.5 0.1-1 0.1-1.5 0.1h-0.8c-0.1-1.2-0.1-2.5 0-3.8 0.3-0.2 0.6-0.1 0.8 0.2z"></path><path fill="#f6f3e7" d="m31 10.2c0.5 0.2 0.9 0.4 1.3 0.5-0.2 0-0.3 0-0.5 0.2 0 0.1 0.1 0.1 0.2 0.2 0.1 0.8 0.2 1.5 0.2 2.3-0.3 0.1-0.5 0.3-0.8 0.6-0.9 0-1.8 0-2.7-0.1h-0.4v-0.7h-1.5v-2.8c0.1 0.7 0.2 1.4 0.1 2.1 0.5 0 0.9 0 1.3 0.2l0.2-2.5c0.1 0.8 0.2 1.6 0.2 2.3 0-0.7 0.1-1.5 0.1-2.3 0.8 0 1.5 0 2.3 0z"></path><path fill="#f6f8fc" d="m32.3 10.7h0.9v0.9h0.4c0 1.2 0 2.4-0.1 3.6l0.1 0.9 0.2-1.8c0.1 0.9 0.1 1.8 0 2.7h-0.4v1.8h0.4l0.1 1.8-0.1 0.9-0.2-1.8c-0.1 1.2-0.1 2.4-0.1 3.6-0.1 0.6-0.2 1.2-0.3 1.8h-1.6v1.8h0.4c0 0.4 0 0.8 0 1.2-0.3 0.1-0.5 0.4-0.6 0.6 0.2 0 0.3 0 0.4 0.1-0.3 0.2-0.4 0.5-0.4 0.8h-0.9v0.9c-0.4 0.2-0.7 0.5-0.9 0.9h0.4v0.9h-0.9c0 0.4 0 0.7-0.1 1.1-0.2 0.3-0.3 0.2-0.3-0.2h-0.9v0.9h-0.9v0.9h-0.9v0.9h-15.8v-0.9h-0.4v-0.9h-0.5v-0.9h-0.4v-0.9h-0.9c-0.2-0.5-0.6-0.8-1.2-0.9v-1.8h-0.6c0.1-0.3 0-0.6 0-0.9-0.1 0.3-0.3 0.4-0.5 0.4v-0.4h-0.4v-0.9h-0.3c0-0.6 0-1.2-0.1-1.8-0.2-0.5-0.3-1.1-0.4-1.8-0.1 0.3-0.1 0.6-0.1 0.9h-0.3l-0.2-3.6h-0.4v-0.9h0.4v-1.8h-0.4c0.1-1 0.1-2 0-3h0.4v0.3c0.3 0.1 0.4 0 0.5-0.2-0.1-0.3-0.4-0.5-0.6-0.7-0.1-0.2-0.2-0.4-0.3-0.6 0.3 0.2 0.6 0.4 0.9 0.6l0.3 0.2c0 0 0 0.1 0.1 0.1 0.8 0.9 1.7 1.8 2.7 2.6l0.1 0.2c-0.2 0-0.3 0-0.4 0.1-0.2-0.2-0.4-0.4-0.7-0.6-0.1 0-0.1 0.1-0.2 0.1-0.1 2.9-0.1 3.5 0.1 1.8h0.4c0 0.6 0 1.2 0.1 1.8 0.2 0.9 0.3 1.8 0.4 2.7h0.6c0.2-0.1 0.3 0.5 0.1 1.8h0.4v0.9h-0.4v0.4h0.9v0.5h0.6v0.9h0.3v0.9h0.9v0.9h0.9v0.9h0.9v0.6c0.4 0.2 0.8 0.3 1.3 0.3v0.9h1.4v0.6h0.9v0.3h5.4v-0.5h0.9v-0.4h0.9v-0.9h0.9v-0.9h0.9v-0.9h0.9v-0.9h0.9c0.1 0.7 0.2 0.8 0.6 0.2-0.2-0.3-0.3-0.7-0.2-1.1h0.9v-0.9h0.5c0 0.4 0.1 0.5 0.3 0.2 0.1-0.4 0.1-0.7 0.1-1.1h-0.4v-0.9h0.6v-0.9h0.7c0-0.9 0.1-1.8 0.2-2.7h0.3c0-1 0.1-2.1 0.2-3.1-0.1-0.5-0.2-1-0.4-1.5 0.3-0.3 0.3-0.6-0.1-0.8 0.1-0.2 0.3-0.2 0.3 0 0.1-0.3 0.2-0.6 0.2-1 0.2 0.1 0.4 0.2 0.6 0.1v-0.3c-0.1 0-0.3 0-0.4 0.1-0.1 0-0.1-0.1-0.1-0.2 0.1-0.2 0.3-0.4 0.5-0.6 0-0.1 0-0.3 0-0.4-3.3-0.1-6.5 0-9.8 0.1-0.7 0-1.5 0-2.2-0.1 0.1-0.2 0.2-0.3 0.4-0.2 0.5 0 0.9 0 1.4 0.1 1-0.1 2-0.2 3-0.4 0.5 0 0.6 0.1 0.1 0.2 2.1 0.1 4.2 0.1 6.3 0-0.1-0.1-0.4-0.2-0.6-0.2-1.1 0-2.2 0-3.3 0.1l-0.3-0.1c0.2 0 0.4-0.1 0.5-0.2 0.5 0 1 0 1.5-0.1h0.4c0.9 0.1 1.8 0.1 2.7 0.1 0.3-0.3 0.5-0.5 0.8-0.6 0-0.8-0.1-1.5-0.2-2.3-0.1-0.1-0.2-0.1-0.2-0.2 0.2-0.2 0.3-0.2 0.5-0.2z"></path><path fill="#d2c64d" d="m18.8 11.5c0 0-0.1 0.1-0.1 0.1-0.1 1 0.3 1.6 1.3 1.6-1.4 0.3-1.9-0.3-1.5-1.7 0.2-0.1 0.3-0.3 0.3-0.5 0.5 0 1-0.1 1.4-0.3-0.6-0.2-1.1-0.2-1.7 0 0.1-0.1 0.2-0.3 0.3-0.4 0.5 0 1 0 1.5 0 0.5 0.1 0.7 0.4 0.5 0.8-0.6 0-1.2 0-1.8 0-0.1 0.2-0.2 0.3-0.2 0.4z"></path><path fill="#c95d71" d="m14.8 10.5v0.2c-0.1 0-0.2-0.1-0.3-0.2-0.1 0.1-0.2 0.2-0.2 0.2l-0.1 1.6c0 0.6 0.1 1.1 0.3 1.6-0.1 0.1-0.2 0.1-0.4 0.1v-3.6c0.3 0 0.5 0 0.7 0.1z"></path><path fill="#f9f6d6" d="m19.7 10.1c0.4 0 0.8 0.1 1.2 0.3l0.2 1c-0.3 0.1-0.7 0.2-1 0.2 0.3 0.1 0.7 0.2 1 0.3h-1.4v0.6h-0.4v-1c0.3 0.1 0.5 0 0.7-0.2l-0.3-0.1c-0.3 0.1-0.6 0.2-0.9 0.3 0-0.1 0.1-0.2 0.2-0.4 0.6 0 1.2 0 1.8 0 0.2-0.4 0-0.7-0.5-0.8-0.5 0-1 0-1.5 0-0.1 0.1-0.2 0.3-0.3 0.4h-0.3c0-0.3 0.1-0.5 0.4-0.6 0.4 0 0.8 0 1.1 0z"></path><path fill="#fbfaf2" d="m19.7 12.5h0.7c0.1 0.5 0 0.7-0.4 0.7-1 0-1.4-0.6-1.3-1.6 0 0 0.1-0.1 0.1-0.1 0.3-0.1 0.6-0.2 0.9-0.3l0.3 0.1c-0.2 0.2-0.4 0.3-0.7 0.2v1h0.4z"></path><path fill="#f1efd0" d="m24.6 10.5c0.5 0 0.7 0.2 0.8 0.7h0.3v1.9c-0.2 0-0.4 0.1-0.6 0.2 0.3-0.8 0.3-1.6 0-2.3-0.2-0.2-0.4-0.3-0.5-0.5z"></path><path fill="#d9acc7" d="m4.8 10.7c0 1.1 0.1 2.2 0.3 3.2 0 0.1-0.1 0.1-0.2 0.1-0.1-1.1-0.2-2.1-0.1-3.3z"></path><path fill="#841c4b" d="m3.7 10.4h2.7c-0.4 0.2-0.8 0.3-1.2 0.3 0.1 1.1 0 2.2-0.1 3.2-0.2-1-0.3-2.1-0.3-3.2-0.4 0-0.8-0.1-1.1-0.3z"></path><path fill="#af9944" d="m26.8 10.4v2.8h1.5v0.7h-2.3v-3.5h0.8z"></path><path fill="#a2802a" d="m28.7 10.5c0.4 0 0.7 0 1.1 0.2-0.1 0.1-0.2 0.2-0.3 0.4-0.1 0.7-0.1 1.4 0 2.1 0 0.2-0.1 0.3-0.3 0.3 0.4 0.1 0.9 0.1 1.3 0.1v0.3h-1.8v-3.4z"></path><path fill="#beac7e" d="m29.5 11.1c0.4-0.1 0.7 0 1 0.1h-1v2c-0.1-0.7-0.1-1.4 0-2.1z"></path><path fill="#9c2b56" d="m7.9 12.3c-0.2-0.1-0.4-0.1-0.6-0.1v1.7h-0.4v-3.5c0.5 0 1 0 1.5 0.1 0.7 0.1 0.9 0.5 0.7 1.1-0.2 0.3-0.4 0.6-0.7 0.8 0.3 0.5 0.6 1 0.9 1.5-0.1 0.1-0.3 0.1-0.4 0-0.3-0.6-0.6-1.1-1-1.6z"></path><path fill="#e07a80" d="m16.8 10.4c0.2 0 0.3 0.2 0.2 0.3-0.2 0.9-0.3 1.7-0.2 2.6h-0.1c0-1 0-1.9 0.1-2.9z"></path><path fill="#c7b434" d="m24 11c-0.5-0.1-0.9 0-1.2 0.4-0.1 0.1-0.2 0.1-0.3 0.2-0.1 0.5 0 0.9 0.1 1.3 0.1 0.1 0.2 0.2 0.4 0.2 0.4 0.1 0.8 0.1 1.2 0 0.4 0 0.5-0.2 0.6-0.6l0-0.5c0-0.4-0.1-0.7-0.3-1h0.6c0.3 0.7 0.3 1.5 0 2.3-0.7 0.7-1.6 0.9-2.7 0.5-0.9-0.8-1.1-1.8-0.4-2.8l0.2-0.3c0.4-0.1 0.9-0.2 1.3-0.3 0.5-0.1 0.8 0.1 0.9 0.6h-0.4z"></path><path fill="#fbf9e6" d="m24 11c0.7 0.6 0.7 1.3 0.2 2.1-0.4 0.1-0.8 0.1-1.2 0 1.1 0.1 1.6-0.4 1.4-1.5-0.4 0-0.7 0.1-1.1 0.3l0.6 0.2c-0.2 0.1-0.5 0.1-0.8 0.1 0-0.2 0-0.4-0.1-0.6l0.2-0.1c-0.1-0.1-0.3-0.1-0.4 0v-0.1c0.3-0.4 0.7-0.5 1.2-0.4z"></path><path fill="#f5f8f4" d="m30.5 11.2c0.9 0.6 0.9 1.3 0 2-0.3 0-0.6 0-1 0v-2h1z"></path><path fill="#f9fbf9" d="m23 13.1c-0.1-0.3-0.2-0.6-0.3-0.9 0-0.2 0-0.4 0.1-0.7 0.1-0.1 0.3-0.1 0.4 0l-0.2 0.1c0.1 0.2 0.1 0.4 0.1 0.6 0.3 0 0.6 0 0.8-0.1l-0.6-0.2c0.4-0.2 0.7-0.3 1.1-0.3 0.2 1.1-0.3 1.6-1.4 1.5z"></path><path fill="#fbf6c9" d="m22.8 11.4v0.1c-0.1 0.3-0.1 0.5-0.1 0.7 0.1 0.3 0.2 0.6 0.3 0.9-0.2 0-0.3-0.1-0.4-0.2-0.1-0.4-0.2-0.8-0.1-1.3 0.1-0.1 0.2-0.1 0.3-0.2z"></path><path fill="#a82e52" d="m11 10.3c0.8-0.1 1.5 0.1 2.1 0.7 0.2 0.2 0.2 0.5 0.2 0.8 0.1 0.4 0 0.8-0.1 1.2 0 0.1 0 0.2-0.1 0.3-0.5 0.6-1.2 0.8-2 0.7l-0.8-0.4c-1-1.4-0.7-2.5 0.7-3.3z"></path><path fill="#f8f6fa" d="m11 10.6c1.6-0.1 2.3 0.6 1.9 2.3-0.4 0.7-1.1 1-1.9 0.7-0.8-0.5-1.1-1.2-0.9-2.1 0.3-0.3 0.5-0.6 0.9-0.9z"></path><path fill="#bfaf57" d="m24.6 10.5c0.1 0.2 0.3 0.3 0.5 0.5h-0.6c0.2 0.3 0.3 0.6 0.3 1l0 0.5c-0.1 0.4-0.2 0.6-0.6 0.6 0.5-0.8 0.5-1.5-0.2-2.1h0.4c-0.1-0.5-0.4-0.7-0.9-0.6-0.4 0.1-0.9 0.2-1.3 0.3 0.2-0.2 0.4-0.3 0.7-0.4 0.6-0.1 1.1 0 1.7 0.2z"></path><path fill="#f1f4f9" d="m6.2-0.1h4.5v1.3l-1.8 0.2v0.3h0.4v0.9h-0.4v0.9h-0.9c-0.2 0.6-0.6 0.9-1.2 0.9v1.8h-0.6v-0.3h-0.9v2.1h-0.3c0 0.4 0 0.7-0.1 1.1-0.3 0-0.7 0.1-1 0.1 0.2 0.2 0.2 0.3 0.1 0.5-0.4-0.1-0.5 0-0.3 0.4 0.3-0.1 0.7-0.1 1.1 0-0.5 0-0.9 0.1-1.3 0.3v0.3h1.3c-0.1 1.2 0 2.2 0.1 3.3v0.3c-0.7 0-0.7 0.1-0.1 0.4l-0.2 0.1c-0.3-0.1-0.6-0.3-0.9-0.5-0.1 0.1-0.2 0.2-0.2 0.3 0.1 0.2 0.2 0.4 0.3 0.6 0.2 0.2 0.5 0.4 0.6 0.7-0.1 0.2-0.2 0.3-0.5 0.2v-0.3h-0.4c0.1 1 0.1 2 0 3h0.4v1.8h-0.4v0.9h0.4l0.2 3.6h0.3c0-0.3 0-0.6 0.1-0.9 0.1 0.7 0.2 1.3 0.4 1.8 0.1 0.6 0.1 1.2 0.1 1.8h0.3v0.9h0.4v0.4c0.2 0 0.4-0.1 0.5-0.4 0 0.3 0.1 0.6 0 0.9h0.6v1.8c0.6 0.1 1 0.4 1.2 0.9h0.9v0.9h0.4v0.9h0.5v0.9h0.4v0.9h-4v-0.6c-0.2 0-0.4-0.1-0.5-0.2 0.2-0.3 0.3-0.6 0.2-1h-0.6v-1.8h-0.9v-1.8h-0.9v-3.6h-0.9c0-0.9-0.1-1.8-0.3-2.7h0.3v0.9h0.4v-1.8h-1.3v-10.8h0.9v-0.9h-0.3v-0.9h0.3c0.1-1.2 0.2-1.2 0.3 0 0.1-0.6 0.1-1.2 0.1-1.8h-0.4v-1.8h1.8v-3.6h1.8v-0.5h0.4v-1.3h-0.4v-1.4c-0.1 0-0.2 0-0.3-0.1 0.2 0 0.3-0.1 0.3-0.3z"></path><path fill="#f3eca7" d="m21.1 11.9c0.1 0 0.2 0 0.2 0.1-0.1 0.7-0.1 1.3-0.1 2h-1c0.3-0.1 0.6-0.1 0.9-0.1v-2z"></path><path fill="#cb110c" d="m17 10.7c0.1 1.1 0 2.2-0.2 3.2-0.1-0.2-0.1-0.4 0-0.6-0.1-0.9 0-1.7 0.2-2.6z"></path><path fill="#d3c22a" d="m20 13.2c0.4 0 0.5-0.2 0.4-0.7h-0.7v-0.6h1.4v2c-0.3 0-0.6 0-0.9 0.1-0.5 0-1.1-0.1-1.6-0.2-0.1-0.2-0.3-0.4-0.5-0.6-0.2-0.2-0.3-0.4-0.4-0.7-0.1-0.6 0.1-1.2 0.5-1.8h0.3c0.6-0.2 1.1-0.2 1.7 0-0.4 0.2-0.9 0.3-1.4 0.3 0 0.2-0.1 0.4-0.3 0.5-0.4 1.4 0.1 2 1.5 1.7z"></path><path fill="#bf283e" d="m14.8 10.7c0.7 0.9 1.3 1.7 1.9 2.6h0.1c-0.1 0.2-0.1 0.4 0 0.6h-0.1l-1.3-1.8-0.7-1c0-0.1-0.1-0.1-0.1-0.1-0.1 0.9-0.2 1.9-0.1 2.9-0.2-0.5-0.3-1-0.3-1.6l0.1-1.6c0 0 0.1-0.1 0.2-0.2 0.1 0.1 0.2 0.2 0.3 0.2z"></path><path fill="#fdacc1" d="m14.7 11.1l-0.2 2.8c-0.1-1 0-2 0.1-2.9 0 0 0.1 0 0.1 0.1z"></path><path fill="#f7a79e" d="m16.8 10.4c0.1-0.1 0.2-0.1 0.4-0.1v3.7c-0.2 0-0.4 0-0.5-0.1h0.1c0.2-1 0.3-2.1 0.2-3.2 0.1-0.1 0-0.3-0.2-0.3z"></path><path fill="#916e3e" d="m28.7 10.5c1-0.2 1.9-0.1 2.7 0.3 0.8 0.9 0.8 1.8 0 2.7-0.2 0.2-0.5 0.3-0.9 0.4v-0.3c-0.4 0-0.9 0-1.3-0.1 0.2 0 0.3-0.1 0.3-0.3 0.4 0 0.7 0 1 0 0.9-0.7 0.9-1.4 0-2-0.3-0.1-0.6-0.2-1-0.1 0.1-0.2 0.2-0.3 0.3-0.4-0.4-0.2-0.7-0.2-1.1-0.2z"></path><path fill="#b89a28" d="m26.8 13.2v0.6h-0.6v-3.3h0.5c0 0.9 0 1.8 0.1 2.7z"></path><path fill="#d9d781" d="m17.7 12.5c0.1 0.3 0.2 0.5 0.4 0.7 0.2 0.2 0.4 0.4 0.5 0.6-0.2-0.1-0.5-0.3-0.7-0.5-0.1-0.2-0.2-0.4-0.2-0.8z"></path><path fill="#ede599" d="m18.6 13.8c0.5 0.1 1.1 0.2 1.6 0.2-0.1 0.1-0.3 0.1-0.5 0.1-0.4 0.1-0.8 0-1.1-0.3z"></path><path fill="#fbfbdf" d="m17.9 13.3c0.2 0.2 0.5 0.4 0.7 0.5 0.3 0.3 0.7 0.4 1.1 0.3v0.4c-0.2-0.1-0.3 0-0.4 0.2 0.7 0.1 1.5 0.1 2.2 0.1v0.1h-2.5c-0.1-0.2 0-0.5 0.2-0.6-0.4-0.2-0.8-0.3-1.1-0.5-0.1-0.1-0.2-0.3-0.2-0.5z"></path><path fill="#f8fbf0" d="m19.7 10.1c0.6-0.1 1.1 0 1.6 0.1l0.1 0.1c-0.2 0.3-0.3 0.5-0.3 0.9 0.2 0 0.3 0 0.4-0.1-0.2-0.2-0.2-0.3 0-0.4 0.1 0.2 0.3 0.3 0.5 0.3-0.7 1-0.5 2 0.4 2.8 1.1 0.4 2 0.2 2.7-0.5-0.1 0.3-0.2 0.6-0.3 0.9 0.1 0.1 0.2 0.2 0.3 0.1 0.1-0.4 0.1-0.4 0.3 0l0.3-0.4 0.2 0.4c0.1 0 0.2-0.2 0.1-0.3h0.8c-0.1 0.1-0.3 0.2-0.5 0.2l0.3 0.1c1.1-0.1 2.2-0.1 3.3-0.1 0.2 0 0.5 0.1 0.6 0.2-2.1 0.1-4.2 0.1-6.3 0 0.5-0.1 0.4-0.2-0.1-0.2-1 0.2-2 0.3-3 0.4-0.5-0.1-0.9-0.1-1.4-0.1v-0.4c0.2 0 0.4 0 0.5-0.1h1c0-0.7 0-1.3 0.1-2 0-0.1-0.1-0.1-0.2-0.1-0.3-0.1-0.7-0.2-1-0.3 0.3 0 0.7-0.1 1-0.2l-0.2-1c-0.4-0.2-0.8-0.3-1.2-0.3z"></path><path fill="#fcf3f9" d="m14.8 10.5c-0.2-0.1-0.4-0.1-0.7-0.1v3.6c0.2 0 0.3 0 0.4-0.1l0.2-2.8 0.7 1c-0.2 0.1-0.3 0.2-0.4 0.4 0.3 0.2 0.3 0.4 0.1 0.6-0.1-0.2-0.2-0.4-0.3-0.6-0.1 0.4-0.2 0.7-0.1 1.1 0.2-0.1 0.3-0.2 0.4-0.2v0.9h-0.3c-0.1-0.4-0.3-0.4-0.5 0.1 0.2 0 0.4 0.1 0.6 0.2-3.2 0.1-6.4 0.1-9.7 0-0.1 0.1-0.1 0.2 0.1 0.2 1.2 0.1 2.4 0.1 3.6 0.1v0.1c-1.5-0.1-3 0-4.5 0.2-0.3-0.2-0.6-0.4-0.9-0.6 0-0.1 0.1-0.2 0.2-0.3 0.3 0.2 0.6 0.4 0.9 0.5l0.2-0.1c-0.6-0.3-0.6-0.4 0.1-0.4v-0.3c0.1 0 0.2 0 0.2-0.1 0.1-1 0.2-2.1 0.1-3.2h0.1c0.1 1.3 0.1 2.5 0 3.7 2.3 0.1 4.5 0.1 6.7-0.1-0.4 0-0.8 0-1.3 0 0.2 0 0.3-0.1 0.4-0.3 0.8 0.1 1.5-0.1 2-0.7-0.1 0.2-0.2 0.5-0.3 0.6-0.7 0.1-0.7 0.3-0.1 0.4 0.2-0.2 0.4-0.2 0.6 0 0.1-0.4 0.2-0.9 0.4-1.4 0.2 0.2 0.2 0.4 0.3 0.7 0-1 0-1.9-0.1-2.9-0.2 0.2-0.3 0.4-0.3 0.6 0.1 0.3 0.2 0.7 0.3 1.1l-0.1 0.1c-0.1-0.1-0.2-0.2-0.4-0.2 0.1-0.2 0-0.4-0.1-0.5 0-0.3 0-0.6-0.2-0.8 0.1 0 0.3 0 0.3-0.1 0.3-0.7 0.7-0.9 1.4-0.7v0.3z"></path><path fill="#e59ab9" d="m7.9 12.3h-0.5c0 0.6 0 1.1-0.1 1.6v-1.7c0.2 0 0.4 0 0.6 0.1z"></path><path fill="#dc8aa2" d="m13.3 11.8c0.1 0.1 0.2 0.3 0.1 0.5 0.1 0.3 0 0.5-0.2 0.7 0.1-0.4 0.2-0.8 0.1-1.2z"></path><path fill="#effcf9" d="m13.1 13.3c0.1-0.1 0.1-0.2 0.1-0.3 0.2-0.2 0.3-0.4 0.2-0.7 0.2 0 0.3 0.1 0.4 0.2l0.1-0.1c-0.1-0.4-0.2-0.8-0.3-1.1 0-0.2 0.1-0.4 0.3-0.6 0.1 1 0.1 1.9 0.1 2.9-0.1-0.3-0.1-0.5-0.3-0.7-0.2 0.5-0.3 1-0.4 1.4-0.2-0.2-0.4-0.2-0.6 0-0.6-0.1-0.6-0.3 0.1-0.4 0.1-0.1 0.2-0.4 0.3-0.6z"></path><path fill="#eeacce" d="m7.4 10.7v1.2c0.4 0 0.9-0.1 1.3-0.3 0 0.2-0.2 0.3-0.3 0.3-0.4 0.1-0.8 0.1-1.1 0.1-0.1-0.5 0-0.9 0.1-1.3z"></path><path fill="#f5f3fb" d="m7.4 10.7c0.4 0 0.8 0.1 1.2 0.2 0.2 0.2 0.3 0.5 0.1 0.7-0.4 0.2-0.9 0.3-1.3 0.3v-1.2z"></path><path fill="#fefbcc" d="m21.5 14.8c3.3-0.1 6.5-0.2 9.8-0.1 0 0.1 0 0.3 0 0.4-0.2 0.2-0.4 0.4-0.5 0.6h-0.3v-0.1c0.4-0.2 0.5-0.4 0.6-0.8h-9.6z"></path><path fill="#f8f56f" d="m21.5 14.9v-0.1h9.6c-0.1 0.4-0.2 0.6-0.6 0.8 0.1-0.3 0.2-0.4 0.4-0.6-1.9-0.1-3.8-0.1-5.8-0.1h-3.6z"></path><path fill="#bf1a57" d="m8.9 15h8.6v0.1h-3.2c-3.2 0-6.4 0-9.6 0.3l-0.3-0.2c1.5-0.2 3-0.3 4.5-0.2z"></path><path fill="#f7ea26" d="m25.1 14.9c2 0 3.9 0 5.8 0.1-0.2 0.2-0.3 0.3-0.4 0.6v0.1c-0.1 0.2-0.3 0.4-0.5 0.4-0.1 0.1-0.2 0.1-0.3 0.2-0.3-0.2-0.6-0.3-1-0.3-1.2 0.1-2.4 0.1-3.6 0v-0.3c-0.3 0-0.6 0-0.9-0.1 1-0.2 2.1-0.3 3.1-0.4-0.7-0.1-1.5-0.2-2.2-0.3z"></path><path fill="#dc1065" d="m14.3 15.4c0.6 0.1 1.2 0.1 1.8 0.1v0.3c-0.6 0-1.2 0-1.8 0.1 0 0.5 0 0.9 0.2 1.4-0.1 0.2-0.2 0.5-0.3 0.8-0.4-0.2-0.7-0.2-1.1 0.1-0.5-0.1-0.8-0.3-1-0.7 0.2 0 0.3-0.1 0.4-0.2-0.3-0.3-0.7-0.5-1.1-0.7 0-0.3 0.1-0.4 0.4-0.5 0.1 0.3 0.4 0.4 0.7 0.4v-0.9c-1.2 0-2.4 0-3.6-0.1 1.8-0.1 3.6-0.2 5.4-0.1z"></path><path fill="#ec2f58" d="m5.3 15.6h1.8v0.5c0.4 0.1 0.8 0.1 1.2 0.3 0.2 0 0.4-0.1 0.5-0.1 0.1 0.1 0.2 0.3 0.1 0.5 0.3 0 0.6 0 0.8 0.1 0.1 0 0.1 0.1 0.1 0.1-0.3 0-0.6-0.1-0.9-0.1-1.2-0.4-2.4-0.8-3.6-1.3z"></path><path fill="#d10f63" d="m14.3 15.1h3.2v2.8h-0.5v-1.9h-0.4v1.9h-0.5v0.6c-0.2 0-0.5 0-0.6 0.2 0.2 0.1 0.4 0.2 0.6 0.1 0.1 0.3 0 0.4-0.2 0.5-1.6-0.5-3.1-1-4.6-1.7 0.3-0.1 0.5-0.1 0.8-0.1 0.2 0.4 0.5 0.6 1 0.7 0.4-0.3 0.7-0.3 1.1-0.1 0.1-0.3 0.2-0.6 0.3-0.8-0.2-0.5-0.2-0.9-0.2-1.4 0.6-0.1 1.2-0.1 1.8-0.1v-0.3c-0.6 0-1.2 0-1.8-0.1v-0.3z"></path><path fill="#e3d29c" d="m19 14.9c-0.3 0.1-0.5 0.2-0.8 0.1v5c-0.1-1.7-0.2-3.4-0.1-5.1h0.9z"></path><path fill="#cdb033" d="m19 14.9h2.5l-0.9 0.2c-1.5 0.1-1.5 0.2 0 0.3 0.1 0 0.2 0.1 0.3 0.1-0.5 0.1-0.9 0.2-1.4 0.3 0.6 0.9 1 1.8 1.4 2.8 0.4-0.1 0.8-0.2 1.1-0.4 0.2-0.1 0.5-0.1 0.7-0.1l0.1 0c-0.1 0.1-0.2 0.2-0.4 0.2l0.2 0.1c0.7-0.4 1.4-0.6 2.2-0.8-0.2 0.2-0.5 0.3-0.7 0.5-0.1 0.2-0.1 0.5-0.2 0.7 0.2 0.2 0.4 0.3 0.6 0.5 0.1 0.1 0.1 0.3 0.1 0.4h-1.3c0.1-0.1 0-0.3-0.1-0.4-0.2 0.1-0.5 0.1-0.8 0v-0.3c0.3-0.1 0.5-0.1 0.7-0.3-0.1-0.1-0.3-0.1-0.4 0-0.2 0-0.2-0.1 0-0.1l-0.3-0.1c-0.7 0.3-1.5 0.6-2.2 0.9-0.3 0.1-0.6 0.2-0.9 0.2 0.1-0.1 0.2-0.2 0.2-0.3-0.1-0.5-0.1-0.9-0.1-1.4h-0.3c0 0.4 0 0.8-0.2 1.2-0.1-1-0.2-2-0.3-3-0.1 0.9-0.2 1.8-0.2 2.7 0 0.4 0.1 0.7 0.2 1 0 0-0.1 0.1-0.1 0.2v0.1h-0.3v-5.1c0.3 0.1 0.5 0 0.8-0.1z"></path><path fill="#dbbc2e" d="m22 18.2c-0.3 0.2-0.7 0.3-1.1 0.4-0.4-1-0.8-1.9-1.4-2.8 0.5-0.1 0.9-0.2 1.4-0.3-0.1 0-0.2-0.1-0.3-0.1 2.2-0.3 2.3-0.1 0.2 0.4-0.1 0-0.1 0.1-0.2 0.1 0.3 0.1 0.5 0.3 0.6 0.6 0.1 0.1 0.2 0.1 0.3 0 0 0.6 0.2 1.2 0.5 1.7z"></path><path fill="#e3ca2e" d="m20.6 15.1c0.9 0 1.8 0.1 2.7 0.1 0 0.5 0.1 0.9 0.3 1.3-0.3 0.2-0.3 0.3 0.1 0.3v0.4c0.3 0 0.5 0.1 0.8 0.3 0.3-0.2 0.2-0.3-0.1-0.5l0.2-0.1c0.3 0.3 0.7 0.5 1.2 0.6l0.2-0.1c-0.1-0.1-0.3-0.2-0.5-0.2 0.4 0 0.7 0 1.1 0l-0.4-0.3c0.6-0.1 0.8 0.2 0.7 0.8 0.2 0 0.3 0 0.4-0.1 0.1-0.2 0.1-0.4 0.2-0.6 0.4-0.1 0.5 0 0.4 0.4-0.4 0.3-0.6 0.7-0.6 1.1h0.3c-0.1 0.2-0.2 0.3-0.4 0.5-0.2 0.1-0.4 0.1-0.6 0-0.2 0-0.3 0.1-0.3 0.2l-0.1-0.1c0.1-0.2 0.2-0.4 0.4-0.6 0-0.2-0.1-0.3-0.3-0.3-0.2 0.1-0.4 0.2-0.6 0.3-0.2-0.2-0.3-0.4-0.2-0.7 0.2 0.1 0.4 0 0.5-0.1-0.4 0-0.8 0-1.2-0.1-0.8 0.2-1.5 0.4-2.2 0.8l-0.2-0.1c0.2 0 0.3-0.1 0.4-0.2l-0.1 0c-0.2 0-0.5 0-0.7 0.1-0.3-0.5-0.5-1.1-0.5-1.7-0.1 0.1-0.2 0.1-0.3 0-0.1-0.3-0.3-0.5-0.6-0.6 0.1 0 0.1-0.1 0.2-0.1 2.1-0.5 2-0.7-0.2-0.4-1.5-0.1-1.5-0.2 0-0.3z"></path><path fill="#e81465" d="m14.3 15.1v0.3c-1.8-0.1-3.6 0-5.4 0.1 1.2 0.1 2.4 0.1 3.6 0.1v0.9c-0.3 0-0.6-0.1-0.7-0.4-0.3 0.1-0.4 0.2-0.4 0.5 0.4 0.2 0.8 0.4 1.1 0.7-0.1 0.1-0.2 0.2-0.4 0.2-0.3 0-0.5 0-0.8 0.1-0.5-0.2-1-0.4-1.5-0.6 0 0 0-0.1-0.1-0.1-0.2-0.1-0.5-0.1-0.8-0.1 0.1-0.2 0-0.4-0.1-0.5-0.1 0-0.3 0.1-0.5 0.1-0.4-0.2-0.8-0.2-1.2-0.3v-0.5h-1.8v-0.4c-0.2 0-0.4 0.1-0.5 0.3-0.1 0-0.1-0.1-0.1-0.1 3.2-0.3 6.4-0.3 9.6-0.3z"></path><path fill="#edda2b" d="m21.5 14.9h3.6c0.7 0.1 1.5 0.2 2.2 0.3-1 0.1-2.1 0.2-3.1 0.4 0.3 0.1 0.6 0.1 0.9 0.1v0.3c1.2 0.1 2.4 0.1 3.6 0 0.4 0 0.7 0.1 1 0.3 0.1-0.1 0.2-0.1 0.3-0.2-0.3 0.4-0.6 0.7-1 0.9-0.2 0.3-0.4 0.6-0.6 0.9-0.3 0.2-0.5 0.4-0.8 0.6h-0.3c0-0.4 0.2-0.8 0.6-1.1 0.1-0.4 0-0.5-0.4-0.4-0.1 0.2-0.1 0.4-0.2 0.6-0.1 0.1-0.2 0.1-0.4 0.1 0.1-0.6-0.1-0.9-0.7-0.8l0.4 0.3c-0.4 0-0.7 0-1.1 0 0.2 0 0.4 0.1 0.5 0.2l-0.2 0.1c-0.5-0.1-0.9-0.3-1.2-0.6l-0.2 0.1c0.3 0.2 0.4 0.3 0.1 0.5-0.3-0.2-0.5-0.3-0.8-0.3v-0.4c-0.4 0-0.4-0.1-0.1-0.3-0.2-0.4-0.3-0.8-0.3-1.3-0.9 0-1.8-0.1-2.7-0.1l0.9-0.2z"></path><path fill="#e4a3be" d="m8.9 15v-0.1h8.8v10.2h-0.1v-4.9c0-1.8 0-3.5-0.1-5.2h-8.6z"></path><path fill="#fbfbfc" d="m18.2 10.7c-0.4 0.6-0.6 1.2-0.5 1.8 0 0.4 0.1 0.6 0.2 0.8 0 0.2 0.1 0.4 0.2 0.5 0.3 0.2 0.7 0.3 1.1 0.5-0.2 0.1-0.3 0.4-0.2 0.6h-0.9c-0.1 1.7 0 3.4 0.1 5.1v0.4c-0.1 2.6-0.2 5.1-0.3 7.7 0.3 0.1 0.4 0.4 0.4 0.6h0.3c-0.1-0.4 0-0.8 0.5-1.1 0.2 0 0.4 0 0.6 0.1 0.1-0.3 0-0.5-0.2-0.8 0.2 0 0.3-0.1 0.2-0.3 0.3-0.1 0.6-0.3 0.8-0.4 0.3-0.3 0.5-0.7 0.7-1.1h0.3v-0.3c0.5-0.3 0.9-0.6 1.3-1 0.2 0 0.3 0.1 0.4 0.3 0.2-0.2 0.1-0.4-0.1-0.6 0.2-0.2 0.4-0.4 0.7-0.6 0.2-0.6 0.1-0.9-0.5-1.1v-1.7c1.1 0 2.1 0 3.1-0.1 0.3-0.1 0.5-0.2 0.7-0.5 0 0 0.1 0.1 0.1 0.1 0.3-0.5 0.7-0.9 1.2-1.3 0-0.1 0-0.2 0-0.4 0.2-0.3 0.4-0.6 0.6-0.9 0.4-0.2 0.7-0.5 1-0.9 0.2 0 0.4-0.2 0.5-0.4h0.3c0 0.1 0 0.2 0.1 0.2 0.1-0.1 0.3-0.1 0.4-0.1v0.3c-0.2 0.1-0.4 0-0.6-0.1 0 0.4-0.1 0.7-0.2 1 0-0.2-0.2-0.2-0.3 0 0.4 0.2 0.4 0.5 0.1 0.8 0.2 0.5 0.3 1 0.4 1.5-0.1 1-0.2 2.1-0.2 3.1h-0.3c-0.1 0.9-0.2 1.8-0.2 2.7h-0.7v0.9h-0.6v0.9h0.4c0 0.4 0 0.7-0.1 1.1-0.2 0.3-0.3 0.2-0.3-0.2h-0.5v0.9h-0.9c-0.1 0.4 0 0.8 0.2 1.1-0.4 0.6-0.5 0.5-0.6-0.2h-0.9v0.9h-0.9v0.9h-0.9v0.9h-0.9v0.9h-0.9v0.4h-0.9v0.5h-5.4v-0.3h-0.9v-0.6h-1.4v-0.9c-0.5 0-0.9-0.1-1.3-0.3v-0.6h-0.9v-0.9h-0.9v-0.9h-0.9v-0.9h-0.3v-0.9h-0.6v-0.5h-0.9v-0.4h0.4v-0.9h-0.4c0.2-1.3 0.1-1.9-0.1-1.8h-0.6c-0.1-0.9-0.2-1.8-0.4-2.7-0.1-0.6-0.1-1.2-0.1-1.8h-0.4c-0.2 1.7-0.2 1.1-0.1-1.8 0.1 0 0.1-0.1 0.2-0.1 0.3 0.2 0.5 0.4 0.7 0.6 0.1-0.1 0.2-0.1 0.4-0.1 0.5 0.5 1 1 1.6 1.4 0 0.2 0.1 0.3 0.2 0.4 1 0.1 2.1 0.1 3.1 0.1v2.7c0 0.1 0.1 0.2 0.2 0.2 1.2 1.3 2.5 2.6 3.8 3.8 0.4 0.5 0.8 0.9 1.2 1.3 0-1 0-2 0-3.1v-10.2h-8.8c-1.2 0-2.4 0-3.6-0.1-0.2 0-0.2-0.1-0.1-0.2 3.3 0.1 6.5 0.1 9.7 0-0.2-0.1-0.4-0.2-0.6-0.2 0.2-0.5 0.4-0.5 0.5-0.1h0.3v-0.9c-0.1 0-0.2 0.1-0.4 0.2-0.1-0.4 0-0.7 0.1-1.1 0.1 0.2 0.2 0.4 0.3 0.6 0.2-0.2 0.2-0.4-0.1-0.6 0.1-0.2 0.2-0.3 0.4-0.4l1.3 1.8c0.1 0.1 0.3 0.1 0.5 0.1v-3.7c0-0.2-0.1-0.3-0.2-0.4 0.2-0.1 0.4-0.1 0.6-0.1 0 0.4 0 0.7-0.1 1.1 0.2 0.4 0.3 0.3 0.3-0.2h0.4z"></path><path fill="#dd1b30" d="m5.3 15.6c1.2 0.5 2.4 0.9 3.6 1.3 0.4 0.2 0.7 0.4 1.1 0.5-0.6 0.2-1.2 0.4-1.8 0.7-0.2-0.2-0.5-0.2-0.7 0-1-0.8-1.9-1.7-2.7-2.6 0.1-0.2 0.3-0.3 0.5-0.3v0.4z"></path><path fill="#c40d64" d="m17.5 17.9v2.1c-0.6-0.2-1.1-0.4-1.6-0.7 0.2-0.1 0.3-0.2 0.2-0.5-0.2 0.1-0.4 0-0.6-0.1 0.1-0.2 0.4-0.2 0.6-0.2v-0.6h0.5v-1.9h0.4v1.9h0.5z"></path><path fill="#d21536" d="m10 17.4c0.2 0.1 0.5 0.2 0.7 0.3 0.1 0.3 0.2 0.4 0.4 0.5-0.1 0.1-0.2 0.1-0.4 0.1 0 0.3-0.1 0.4-0.4 0.5 0 0.4-0.1 0.6-0.6 0.7l0.3 0.3c-0.3 0-0.6 0-0.8-0.1-0.6-0.4-1.1-0.9-1.6-1.4l-0.1-0.2c0.2-0.2 0.5-0.2 0.7 0 0.6-0.3 1.2-0.5 1.8-0.7z"></path><path fill="#ea618b" d="m8.9 16.9c0.3 0 0.6 0.1 0.9 0.1 0.5 0.2 1 0.4 1.5 0.6 1.5 0.7 3 1.2 4.6 1.7 0.5 0.3 1 0.5 1.6 0.7 0 0.1-0.1 0.1-0.2 0.1-1-0.4-2-0.8-3-1.1-1.2-0.5-2.4-0.9-3.6-1.3-0.2-0.1-0.5-0.2-0.7-0.3-0.4-0.1-0.7-0.3-1.1-0.5z"></path><path fill="#d5bd2c" d="m24.8 17.6c0.4 0.1 0.8 0.1 1.2 0.1-0.1 0.1-0.3 0.2-0.5 0.1-0.1 0.3 0 0.5 0.2 0.7 0.2-0.1 0.4-0.2 0.6-0.3 0.2 0 0.3 0.1 0.3 0.3-0.2 0.2-0.3 0.4-0.4 0.6l0.1 0.1c0-0.1 0.1-0.2 0.3-0.2 0.2 0.1 0.4 0.1 0.6 0-0.2 0.3-0.4 0.6-0.8 0.7-1 0.2-2.1 0.2-3.1 0h1.3c0-0.1 0-0.3-0.1-0.4-0.2-0.2-0.4-0.3-0.6-0.5 0.1-0.2 0.1-0.5 0.2-0.7 0.2-0.2 0.5-0.3 0.7-0.5z"></path><path fill="#fbf6ca" d="m28.4 17.9c0 0.2 0 0.3 0 0.4-0.5 0.4-0.9 0.8-1.2 1.3 0 0-0.1-0.1-0.1-0.1-0.2 0.3-0.4 0.4-0.7 0.5v-0.3c0.4-0.1 0.6-0.4 0.8-0.7 0.2-0.2 0.3-0.3 0.4-0.5 0.3-0.2 0.5-0.4 0.8-0.6z"></path><path fill="#c60f3e" d="m10.7 17.7c1.2 0.4 2.4 0.8 3.6 1.3v0.3c0.3 0 0.5 0 0.7 0.1 0.1 0.1 0.2 0.2 0.1 0.3-0.5 0-0.9 0.1-1.4 0.3-0.4-0.3-0.7-0.3-1 0.1h-3.3c-0.1-0.1-0.2-0.2-0.2-0.4 0.2 0.1 0.5 0.1 0.8 0.1l-0.3-0.3c0.5-0.1 0.6-0.3 0.6-0.7 0.3-0.1 0.4-0.2 0.4-0.5 0.2 0 0.3 0 0.4-0.1-0.2-0.1-0.3-0.2-0.4-0.5z"></path><path fill="#bda439" d="m23.3 19.7c1 0.2 2.1 0.2 3.1 0v0.3c-1 0.1-2 0.1-3.1 0.1h-1.8v-0.4c-0.5 0.1-0.9 0-1.3-0.3 0.7-0.3 1.5-0.6 2.2-0.9l0.3 0.1c-0.2 0-0.2 0.1 0 0.1 0.1-0.1 0.3-0.1 0.4 0-0.2 0.2-0.4 0.2-0.7 0.3v0.3c0.3 0.1 0.6 0.1 0.8 0 0.1 0.1 0.2 0.3 0.1 0.4z"></path><path fill="#c7a137" d="m19.3 19.6c-0.2 0.2-0.5 0.3-0.8 0.4 0-0.1 0.1-0.2 0.1-0.2-0.1-0.3-0.2-0.6-0.2-1 0-0.9 0.1-1.8 0.2-2.7 0.1 1 0.2 2 0.3 3 0.2-0.4 0.2-0.8 0.2-1.2h0.3c0 0.5 0 0.9 0.1 1.4 0 0.1-0.1 0.2-0.2 0.3z"></path><path fill="#ab8a39" d="m20.2 19.4c0.4 0.3 0.8 0.4 1.3 0.3v0.4h-3v-0.1c0.3-0.1 0.6-0.2 0.8-0.4 0.3 0 0.6-0.1 0.9-0.2z"></path><path fill="#b0104b" d="m14.3 19c1 0.3 2 0.7 3 1.1h-4.6c0.3-0.4 0.6-0.4 1-0.1 0.5-0.2 0.9-0.3 1.4-0.3 0.1-0.1 0-0.2-0.1-0.3-0.2-0.1-0.4-0.1-0.7-0.1v-0.3z"></path><path fill="#66541f" d="m18.5 20.1h3v0.4h-1.8c-0.4-0.1-0.8-0.3-1.2-0.4z"></path><path fill="#877028" d="m21.5 20.1h1.8v0.7c-0.6 0-1.3 0.1-2 0.2-0.5-0.1-1.1-0.2-1.6-0.5h1.8v-0.4z"></path><path fill="#92153f" d="m17.5 15c0.1 1.7 0.1 3.4 0.1 5.2-0.1 0.1-0.1 0.3-0.1 0.4h-0.3v0.9c-0.2 0.1-0.4 0-0.5-0.1 0.1-0.2 0.1-0.5 0-0.8 0.2 0 0.3 0 0.2-0.2-0.8 0.2-1.7 0.5-2.6 0.9-0.2 0-0.3 0-0.5-0.1-0.4 0.2-0.8 0.4-1.1 0.6h-0.2v-1.6c-1 0-2.1 0-3.1-0.1h7.9c0.1 0 0.2 0 0.2-0.1v-5z"></path><path fill="#670731" d="m14 20.2h2.1v0.3c-0.9 0-1.8 0.1-2.7 0.3 0-0.2 0-0.3 0.1-0.4 0.2 0 0.4-0.1 0.5-0.2z"></path><path fill="#c3244f" d="m16.7 20.6c-0.4 0.3-0.8 0.6-1.2 0.8-0.7 0.4-1.4 0.7-2.1 1 0.2-0.3 0.5-0.5 0.9-0.5v-0.4c-0.2 0-0.4 0.1-0.6 0.2-0.2 0.2-0.5 0.3-0.7 0.4-0.2 0-0.3-0.1-0.3-0.3 0.3-0.2 0.7-0.4 1.1-0.6 0.2 0.1 0.3 0.1 0.5 0.1 0.9-0.4 1.8-0.7 2.6-0.9 0.1 0.2 0 0.2-0.2 0.2z"></path><path fill="#ceb734" d="m23.3 21.5v1.4c-0.4-0.3-0.8-0.5-1.3-0.7-0.7-0.4-1.5-0.8-2.3-1.2 0.3-0.2 0.5-0.1 0.7 0.1 1 0.2 2 0.3 2.9 0.4z"></path><path fill="#a49226" d="m19.7 20.5c0.5 0.3 1.1 0.4 1.6 0.5 0.7-0.1 1.4-0.2 2-0.2v0.7c-0.9-0.1-1.9-0.2-2.9-0.4-0.2-0.2-0.4-0.3-0.7-0.1 0.8 0.4 1.6 0.8 2.3 1.2-0.3 0.1-0.6 0.2-0.9 0.2l0.2 0.1c-0.2 0.2-0.3 0.5-0.4 0.7-0.2 0.1-0.4 0.2-0.6 0.1 0 0.2 0 0.4-0.1 0.6-0.1 0.2-0.2 0.2-0.3 0l-0.2 0.4c0.3 0.3 0.4 0.6 0.4 1-0.1 0.2-0.3 0.3-0.4 0.2-0.2 0.3-0.2 0.6 0 0.9 0.2-0.2 0.4-0.4 0.6-0.5l-0.6 0.7c0.1 0.2 0 0.3-0.2 0.3l-1.1 1.1c-0.1-2.2-0.2-4.3-0.1-6.5 0.1 0.9 0.3 2.1 0.4 3.6l0.3-4c0.1-0.2 0.3-0.1 0.4 0.1 0.1 0 0.2-0.1 0.2-0.2-0.2-0.2-0.5-0.4-0.8-0.5 0.3 0 0.6 0 0.9 0z"></path><path fill="#8e0e2f" d="m16.7 20.6c0.1 0.3 0.1 0.6 0 0.8 0.1 0.1 0.3 0.2 0.5 0.1v-0.9h0.3v2.7h-0.8c-0.1-1-0.2-1-0.5 0 0-0.2-0.1-0.4-0.3-0.6l0.1-0.1c-0.3 0-0.6-0.1-0.9-0.2 0.3-0.2 0.4-0.5 0.6-0.7-0.1-0.1-0.2-0.2-0.2-0.3 0.4-0.2 0.8-0.5 1.2-0.8z"></path><path fill="#faf8e0" d="m23.3 21.8c0.6 0.2 0.7 0.5 0.5 1.1-0.3 0.2-0.5 0.4-0.7 0.6 0.2 0.2 0.3 0.4 0.1 0.6-0.1-0.2-0.2-0.3-0.4-0.3-0.4 0.4-0.8 0.7-1.3 1 0.6-0.7 1.2-1.3 1.8-1.9v-1.1z"></path><path fill="#d20f39" d="m13.4 22.4c-0.2 0.3-0.5 0.4-0.9 0.5v-1.1h0.2c0 0.2 0.1 0.3 0.3 0.3 0.2-0.1 0.5-0.2 0.7-0.4 0.2-0.1 0.4-0.2 0.6-0.2v0.4c-0.4 0-0.7 0.2-0.9 0.5z"></path><path fill="#990f2a" d="m15.5 21.4c0 0.1 0.1 0.2 0.2 0.3-0.2 0.2-0.3 0.5-0.6 0.7 0.3 0.1 0.6 0.2 0.9 0.2l-0.1 0.1c0.2 0.2 0.3 0.4 0.3 0.6 0.3-1 0.4-1 0.5 0h0.8v3.6c-0.1-0.5-0.2-1.1-0.1-1.8h-0.4c0.1-0.3 0-0.6 0-0.9-0.2-0.1-0.3-0.2-0.3-0.4-0.2 0.4-0.5 0.4-0.7 0.1-0.2 0.1-0.3 0.1-0.4 0.1-0.3 0-0.4 0.2-0.6 0.4-0.1-0.2-0.1-0.3-0.1-0.5-0.3 0-0.5 0-0.7-0.2-0.1 0.3-0.3 0.3-0.5 0 0.3-0.1 0.3-0.3 0.1-0.4 0.3-0.2 0.5-0.6 0.5-1h-0.3v0.4h-0.4v0.3c-0.3 0-0.5 0-0.6 0.2-0.1 0-0.2-0.1-0.2-0.2-0.1 0-0.1 0.1-0.1 0.1-0.1 0-0.2-0.1-0.2-0.2 0.4-0.1 0.7-0.2 0.9-0.5 0.7-0.3 1.4-0.6 2.1-1z"></path><path fill="#99812d" d="m18.2 20.1h0.3c0.4 0.1 0.8 0.3 1.2 0.4-0.3 0-0.6 0-0.9 0 0.3 0.1 0.6 0.3 0.8 0.5 0 0.1-0.1 0.2-0.2 0.2-0.1-0.2-0.3-0.3-0.4-0.1l-0.3 4c-0.1-1.5-0.3-2.7-0.4-3.6h-0.1v-1.4z"></path><path fill="#a31225" d="m15.6 24c0 0.3 0 0.5 0 0.8 0.3 0.5 0.4 1 0.5 1.5 0 0-0.1 0-0.2-0.1-0.5-0.6-1-1.1-1.5-1.7l-0.1 0.1c-0.5-0.5-0.9-0.9-1.3-1.4 0.1-0.2 0.3-0.2 0.6-0.2v-0.3h0.4v-0.4h0.3c0 0.4-0.2 0.8-0.5 1 0.2 0.1 0.2 0.3-0.1 0.4 0.2 0.3 0.4 0.3 0.5 0 0.2 0.2 0.4 0.2 0.7 0.2 0 0.2 0 0.3 0.1 0.5 0.2-0.2 0.3-0.4 0.6-0.4z"></path><path fill="#b1a027" d="m22 22.2c0.5 0.2 0.9 0.4 1.3 0.7-0.6 0.6-1.2 1.2-1.8 1.9v0.3h-0.3l-0.9 0.8c-0.2 0.1-0.4 0.3-0.6 0.5-0.2-0.3-0.2-0.6 0-0.9 0.1 0.1 0.3 0 0.4-0.2 0-0.4-0.1-0.7-0.4-1l0.2-0.4c0.1 0.2 0.2 0.2 0.3 0 0.1-0.2 0.1-0.4 0.1-0.6 0.2 0.1 0.4 0 0.6-0.1 0.1-0.2 0.2-0.5 0.4-0.7l-0.2-0.1c0.3 0 0.6-0.1 0.9-0.2z"></path><path fill="#a8a558" d="m18.2 21.5h0.1c-0.1 2.2 0 4.3 0.1 6.5 0 0-0.1 0.1-0.1 0.1-0.1-2.2-0.2-4.4-0.1-6.6z"></path><path fill="#f4eec8" d="m21.2 25.1c-0.2 0.4-0.4 0.8-0.7 1.1-0.2 0.1-0.5 0.3-0.8 0.4l0.6-0.7 0.9-0.8z"></path><path fill="#801620" d="m17.6 20.2v4.9c0 0.9 0 1.8 0 2.6-0.3-0.4-0.6-0.7-1.1-0.8-1.3-1.2-2.6-2.5-3.8-3.8 0 0 0-0.1 0.1-0.1 0 0.1 0.1 0.2 0.2 0.2 0.4 0.5 0.8 0.9 1.3 1.4l0.1-0.1c0.5 0.6 1 1.1 1.5 1.7 0.1 0.1 0.2 0.1 0.2 0.1 0.3 0.3 0.6 0.3 0.9 0-0.1 0.4 0.1 0.7 0.4 1 0.1-0.1 0.1-0.2 0.1-0.4v-6.3c0-0.1 0-0.3 0.1-0.4z"></path><path fill="#91111d" d="m17.5 26.9c0 0.2 0 0.3-0.1 0.4-0.3-0.3-0.5-0.6-0.4-1-0.3 0.3-0.6 0.3-0.9 0-0.1-0.5-0.2-1-0.5-1.5 0-0.3 0-0.5 0-0.8 0.1 0 0.2 0 0.4-0.1 0.2 0.3 0.5 0.3 0.7-0.1 0 0.2 0.1 0.3 0.3 0.4 0 0.3 0.1 0.6 0 0.9h0.4c-0.1 0.7 0 1.3 0.1 1.8z"></path><path fill="#7f3a3e" d="m17.6 25.1h0.1c0 1.1 0 2.1 0 3.1-0.4-0.4-0.8-0.8-1.2-1.3 0.5 0.1 0.8 0.4 1.1 0.8 0-0.8 0-1.7 0-2.6z"></path><path fill="#f9f7de" d="m18.2 20.4v1.1c-0.1 2.2 0 4.4 0.1 6.6 0 0 0.1-0.1 0.1-0.1l1.1-1.1c0.2 0.3 0.3 0.5 0.2 0.8-0.2-0.1-0.4-0.1-0.6-0.1-0.5 0.3-0.6 0.7-0.5 1.1h-0.3c0-0.2-0.1-0.5-0.4-0.6 0.1-2.6 0.2-5.1 0.3-7.7z"></path><path fill="#ecf0f9" d="m35.9 24.2v11.7h-4.5c0.1-0.1 0.2-0.1 0.4-0.1v-0.6c-0.4 0-0.4-0.1-0.1-0.3-0.2-0.2-0.3-0.5-0.3-0.8h-0.9v-1.8h1.8v-2.7h0.9v0.5h0.9v-1.4h-0.3l-0.2-1.8h0.9v-1.8h-0.4v-1.2h0.4v0.3h1.1c0 0.2 0 0.4 0.1 0.5 0.1-0.2 0.2-0.3 0.2-0.5z"></path></svg>