<?xml version="1.0"?><svg width="36" height="36" viewBox="0 0 36 36" xmlns="http://www.w3.org/2000/svg" fill="none"><g clip-path="url(#a)"><path d="m18 36c9.9 0 18-8.1 18-18s-8.1-18-18-18c-9.9 0-18 8.1-18 18s8.1 18 18 18z" fill="#F7931A"></path><path d="m26.1 15.8c0.3-2.4-1.5-3.7-3.9-4.5l0.8-3.2-2-0.5-0.7 3.1c-0.5-0.1-1.1-0.2-1.6-0.3l0.8-3.2-2-0.4-0.8 3.1c-0.4-0.1-0.8-0.1-1.2-0.2l0-0.1-2.7-0.6-0.5 2.1s1.5 0.3 1.4 0.3c0.8 0.2 1 0.7 0.9 1.1l-0.9 3.7c0.1 0 0.1 0 0.2 0l-0.2 0-1.3 5.1c-0.1 0.2-0.3 0.6-0.8 0.4 0 0.1-1.5-0.3-1.5-0.3l-0.9 2.2 2.5 0.6c0.5 0.2 0.9 0.3 1.4 0.4l-0.8 3.2 1.9 0.5 0.8-3.2c0.6 0.2 1.1 0.3 1.6 0.4l-0.8 3.2 1.9 0.5 0.8-3.2c3.3 0.6 5.8 0.3 6.9-2.7 0.8-2.4-0.1-3.8-1.8-4.7 1.3-0.3 2.2-1.1 2.5-2.8z m-4.5 6.2c-0.6 2.4-4.6 1.1-5.9 0.8l1-4.3c1.3 0.3 5.6 1 4.9 3.5z m0.6-6.3c-0.5 2.2-3.9 1.1-5 0.8l1-3.8c1.1 0.2 4.6 0.7 4 3z" fill="#fff"></path></g><defs><clipPath id="a"><path fill="#fff" d="m0 0h36v36h-36z"></path></clipPath></defs></svg>