<?xml version="1.0"?><svg xmlns="http://www.w3.org/2000/svg" width="36" height="36" shape-rendering="geometricPrecision" text-rendering="geometricPrecision" image-rendering="optimizeQuality" fill-rule="evenodd" clip-rule="evenodd" viewBox="0 0 36 36"><path fill="#945f1f" d="m14.2-0.2h7.6c2.6 0.8 5 2 7.2 3.6 0 0.4-0.1 0.6-0.4 0.7-1.6-1.2-3.4-2.2-5.4-2.8-3.1-0.8-6.2-0.9-9.3-0.4-1.9 0.4-3.6 1.1-5.1 2.2-0.6 0.4-1.4 0.6-2.1 0.7 0.4-0.7 1-1.3 1.8-1.6 1.8-1 3.8-1.8 5.7-2.4z"></path><path fill="#bb8c13" d="m23.2 1.3c-1.5 1.2-1.4 2.2 0.4 3-0.1 0.2-0.2 0.2-0.4 0.2-2.9-0.6-5.9-0.9-9-0.7 0.3-0.4 0.4-0.7 0.2-1.1-0.4 0.3-0.8 0.4-1.3 0.4 0-1.5 0.4-1.7 1.3-0.8 0.1-0.5-0.1-1-0.5-1.4 3.1-0.5 6.2-0.4 9.3 0.4z"></path><path fill="#b88913" d="m13.9 0.9c0.4 0.4 0.6 0.9 0.5 1.4-0.9-0.9-1.3-0.7-1.3 0.8 0.5 0 0.9-0.1 1.3-0.4 0.2 0.4 0.1 0.7-0.2 1.1-1.2 0.7-2.6 1.3-3.9 1.8-1.2-0.6-1.7-1.4-1.5-2.5 1.5-1.1 3.2-1.8 5.1-2.2z"></path><path fill="#8c5516" d="m14.2 3.8c3.1-0.2 6.1 0.1 9 0.7 1 0.7 2.1 1.3 3.3 1.8 0.4 0.6 0.8 1.1 1.4 1.6-0.6 0-1.2 0-1.8-0.2h-0.4c-0.6-0.7-1.5-1.2-2.5-1.4-3.9-2-7.7-1.9-11.5 0.4-0.4 0-0.8 0.1-1.1 0.3l-1.1-0.5c0.4-0.3 0.6-0.6 0.8-0.9 1.3-0.5 2.7-1.1 3.9-1.8z"></path><path fill="#b68512" d="m23.2 1.3c2 0.6 3.8 1.6 5.4 2.8 1.5 1.4 1.2 1.8-0.9 1.1-0.4 0.5-0.8 0.8-1.2 1.1-1.2-0.5-2.3-1.1-3.3-1.8 0.2 0 0.3 0 0.4-0.2-1.8-0.8-1.9-1.8-0.4-3z"></path><path fill="#b18219" d="m8.8 3.1c-0.2 1.1 0.3 1.9 1.5 2.5-0.2 0.3-0.4 0.6-0.8 0.9l1.1 0.5-0.7 0.7c-0.5 0.3-0.8 0.6-1.1 1.1-0.5 0.3-0.8 0.6-1.1 1.1l-1.4 1.8c-0.4-0.2-0.8-0.4-1.1-0.4 0.8-1 1.3-2.1 1.6-3.2l-0.3-0.4c-0.2 0.5-0.5 0.9-0.9 1.1-0.7-0.6-1.4-1.2-2.2-1.8-0.1-0.5-0.2-0.5-0.3 0h-0.4c0.1-0.9 0.5-1.3 1.3-1.1 0.7-0.9 1.6-1.6 2.7-2.1 0.7-0.1 1.5-0.3 2.1-0.7z" opacity=".999"></path><path fill="#b5861b" d="m29 3.4c1 0.9 2.1 1.9 3 2.9 0.4-0.4 0.7-0.3 0.9 0.4 0 0.2-0.1 0.3-0.3 0.3-0.1-0.5-0.3-0.5-0.4 0-0.7 0.6-1.5 1.2-2.1 1.8l-1.1-0.7-0.4 0.4c0.5 0.9 1.1 1.7 1.8 2.5l0.4 1.4c-0.3-0.1-0.7-0.1-1.1 0l-1.1-1.4c-0.3-1-0.9-1.7-1.8-2.2l-0.7-1.1c0.6 0.2 1.2 0.2 1.8 0.2-0.6-0.5-1-1-1.4-1.6 0.4-0.3 0.8-0.6 1.2-1.1 2.1 0.7 2.4 0.3 0.9-1.1 0.3-0.1 0.4-0.3 0.4-0.7z"></path><path fill="#e1c454" d="m23.2 6.3c-3.8 0.4-7.6 0.5-11.5 0.4 3.8-2.3 7.6-2.4 11.5-0.4z"></path><path fill="#edd66b" d="m23.2 6.3c1 0.2 1.9 0.7 2.5 1.4h-15.8l0.7-0.7c0.3-0.2 0.7-0.3 1.1-0.3 3.9 0.1 7.7 0 11.5-0.4z"></path><path fill="#f4e27d" d="m9.9 7.7h16.2l0.7 1.1c-5.9 0-11.9 0-18 0 0.3-0.5 0.6-0.8 1.1-1.1z"></path><path fill="#cba22e" d="m2.7 7c0.1 0.5 0.2 0.5 0.4 0h0.3c0.8 0.6 1.5 1.2 2.2 1.8 0.4-0.2 0.7-0.6 0.9-1.1l0.3 0.4c-0.3 1.1-0.8 2.2-1.6 3.2 0.3 0 0.7 0.2 1.1 0.4v0.4c-0.7 0.9-1 2-1.1 3.2-0.3 0.6-0.4 1.4-0.3 2.2h-1.1c-0.1 1.6 0 3.2 0.3 4.6l0.8 2.6c-0.3-0.1-0.5-0.3-0.8-0.4-0.5 0.7-1.2 1.1-2.1 1.1 0-0.8-0.2-1.4-0.7-1.8-0.3-1.1-0.4-2.2-0.4-3.3h2.5c0-1.6 0-3.3 0.2-5 0.6-1.3 1.1-2.6 1.3-4h-1.5c0.1-0.5 0-0.9-0.2-1.4-1 0.7-1.9 1.5-2.7 2.5 0.1-0.3 0-0.6-0.3-0.7 0.4-1.8 1.2-3.4 2.5-4.7z" opacity=".999"></path><path fill="#cba535" d="m32.2 7h0.4c0.3 0.7 0.7 0.9 1.2 0.7 0.2 0.4 0.2 0.8-0.1 1.1 0.2 0.7 0.5 0.8 0.9 0.4 0.1 0.2 0.2 0.4 0.1 0.7-0.4 0.2-0.4 0.5 0 0.7v0.7c0.1 0.4 0 0.8-0.1 1.1-0.5-1.8-1.4-2.2-2.9-1.1-0.5-0.1-0.8-0.3-1.1-0.7-0.1 0.1-0.2 0.2-0.2 0.4-0.7-0.8-1.3-1.6-1.8-2.5l0.4-0.4 1.1 0.7c0.6-0.6 1.4-1.2 2.1-1.8z"></path><path fill="#f9ea8a" d="m8.8 8.8c6.1 0 12.1 0 18 0 0.9 0.5 1.5 1.2 1.8 2.2-6.7-0.6-13.4-1-20.1-1.1h-0.8c0.3-0.5 0.6-0.8 1.1-1.1z"></path><path fill="#f9ec8e" d="m8.5 9.9c6.7 0.1 13.4 0.5 20.1 1.1l1.1 1.4 0.4 1.5v1h-1.5v-3.2h-1.4c0 0.8 0 1.7-0.2 2.5-0.5-0.8-1-1.5-1.6-2.1-0.1-0.3-0.4-0.5-0.7-0.4-0.4-0.2-0.7-0.5-1.1-0.7-3.1-0.5-6.2-0.4-9.2 0.3-1.8-0.6-3.9-0.9-6.3-0.9 0.2-0.1 0.3-0.3 0.4-0.5z"></path><path fill="#f4e98d" d="m7.7 9.9h0.8c-0.1 0.2-0.2 0.4-0.4 0.5 2.4 0 4.5 0.3 6.3 0.9 3-0.7 6.1-0.8 9.2-0.3 0.4 0.2 0.7 0.5 1.1 0.7h-1.1c-0.4 1.1-0.5 2.3-0.4 3.6-0.2 0-0.3-0.1-0.3-0.4 0.1-1.6-0.6-2.7-2.2-3.2h-0.7c-1.1 0.4-1.8 1.1-2.2 2.2h-0.3c0.2-1-0.2-1.7-1.1-2-1.2-0.2-2.4-0.3-3.6-0.2l-0.7 1.1v-1.1h-4.4l-1.4 0.4v-0.4l1.4-1.8z"></path><path fill="#d968ff" d="m34.7 9.9c0.6 0.3 0.9 0.8 0.8 1.4h-0.4c0.1-0.3-0.1-0.6-0.4-0.7v-0.7z" opacity=".012"></path><path fill="#9b7b2d" d="m35.5 11.3h0.3v1.1h-0.3v-1.1z" opacity=".016"></path><path fill="#f1e07e" d="m7.7 11.7v1.1h4.4l0.7-1.1v4.7c-0.6-0.5-1.1-0.5-1.6 0-0.1-1.2-0.3-2.3-0.6-3.3h-1.1c-0.3 1-0.4 2.1-0.5 3.3-1.2-0.5-2.4-0.5-3.6 0-0.2-0.4-0.2-0.7-0.2-1.1 0.1-1.2 0.4-2.3 1.1-3.2l1.4-0.4z"></path><path fill="#57380e" d="m7.7 11.7h4.4v1.1h-4.4v-1.1z"></path><path fill="#6e4813" d="m12.8 11.7c1.2-0.1 2.4 0 3.6 0.2 0.9 0.3 1.3 1 1.1 2l-1.1 0.7h-2.2v1.8h-1.4v-4.7z"></path><path fill="#e5d875" d="m14.2 12.8c0.7-0.1 1.3 0 1.8 0.3l-0.9 0.4c-0.5-0.1-0.8-0.3-0.9-0.7z"></path><path fill="#724b13" d="m28.6 14.9v1.5c-2.5-0.5-3.6-1.9-3.2-4.3 0.6 0.6 1.1 1.3 1.6 2.1 0.2-0.8 0.2-1.7 0.2-2.5h1.4v3.2z"></path><path fill="#e7cf6a" d="m1.3 23.6h-0.8c-0.2-0.4-0.3-0.3-0.3 0.3h-0.4v-1c0.5-0.4 0.5-0.8 0-1.1v-7.9c0.5-0.4 0.5-0.8 0-1.1v-1.1h0.4c-0.1 0.4 0 0.6 0.3 0.7 0.8-1 1.7-1.8 2.7-2.5 0.2 0.5 0.3 0.9 0.2 1.4h1.5c-0.2 1.4-0.7 2.7-1.3 4-0.2 1.7-0.2 3.4-0.2 5h-2.5c0 1.1 0.1 2.2 0.4 3.3z" opacity=".999"></path><path fill="#e5cd68" d="m34.7 11.3h0.4c-0.1 0.5 0 0.9 0.4 1.1v1.1c-0.6 1-1.2 2.1-1.8 3.2-0.1-0.7-0.5-1.3-1.1-1.8-0.2 0.1-0.4 0.2-0.6 0.4-0.2-1.1-0.6-2-1.2-2.9l-0.4-1.4c0-0.2 0.1-0.3 0.2-0.4 0.3 0.4 0.6 0.6 1.1 0.7 1.5-1.1 2.4-0.7 2.9 1.1 0.1-0.3 0.2-0.7 0.1-1.1z"></path><path fill="#6e4710" d="m20 11.7c-0.2 0.8-0.4 1.6-0.7 2.3 0 0.7 0.3 1.3 0.7 1.8-0.5 0.6-1.1 0.5-1.6-0.1-0.4-0.6-0.6-1.2-0.6-1.8 0.4-1.1 1.1-1.8 2.2-2.2z"></path><path fill="#513310" d="m16 15.3c0.5 0.2 0.9 0.6 1.1 1.1-0.9 0.1-1.6-0.2-2.2-0.9 0.4-0.2 0.7-0.3 1.1-0.2z"></path><path fill="#6d460f" d="m20.7 11.7c1.6 0.5 2.3 1.6 2.2 3.2-2 2.1-2.5 1.8-1.5-0.9-0.3-0.7-0.6-1.5-0.7-2.3z"></path><path fill="#d4b44c" d="m30.8 12.4c0.6 0.9 1 1.8 1.2 2.9 0.2-0.2 0.4-0.3 0.6-0.4 0.6 0.5 1 1.1 1.1 1.8-0.6 0.1-1-0.1-1.3-0.7-0.2 0.9-0.2 1.7-0.2 2.5-0.9 0-1.4 0.5-1.4 1.5l-0.7 1.4-0.4-1.4c0-0.8 0.1-1.5 0.4-2.2 0.4-1.3 0.4-2.7 0-3.9l-0.4-1.5c0.4-0.1 0.8-0.1 1.1 0z"></path><path fill="#e5cf68" d="m20 11.7h0.7c0.1 0.8 0.4 1.6 0.7 2.3-1 2.7-0.5 3 1.5 0.9 0 0.3 0.1 0.4 0.3 0.4v1.4c1.8 0.2 1.7 0.4-0.3 0.6 0.3 0.1 0.5 0.3 0.7 0.5-2.6-0.5-5.3-0.8-7.9-0.9 0.8 0 1.2-0.2 1.4-0.5-0.2-0.5-0.6-0.9-1.1-1.1l0.4-0.7 1.1-0.7h0.3c0 0.6 0.2 1.2 0.6 1.8 0.5 0.6 1.1 0.7 1.6 0.1-0.4-0.5-0.7-1.1-0.7-1.8 0.3-0.7 0.5-1.5 0.7-2.3z"></path><path fill="#d6b956" d="m9.5 13.1v3.3h1.1v-3.3c0.3 1 0.5 2.1 0.6 3.3 0.5-0.5 1-0.5 1.6 0h1.4v-1.8h2.2l-0.4 0.7c-0.4-0.1-0.7 0-1.1 0.2 0.6 0.7 1.3 1 2.2 0.9-0.2 0.3-0.6 0.5-1.4 0.5 2.6 0.1 5.3 0.4 7.9 0.9v0.4c-0.5-0.1-1 0-1.5 0.2 0.3 0.3 0.5 0.7 0.4 1.2-0.5 0.3-0.9 0.9-1.1 1.8 0.1-2-0.9-3-2.9-3.2 0 0.7 0.2 1.3 0.8 1.8-0.6 0.8-1.3 1.4-2.2 1.8-1.5-1.4-1.3-2.6 0.7-3.4-1.9 0.2-2.8 1.3-2.5 3.4-0.9-0.2-1.4-0.8-1.4-1.8-0.1-0.7 0-1.3 0.3-1.8-0.4-0.4-0.9-0.5-1.4-0.4-0.2 1.1-0.5 2.2-0.9 3.3-0.2-0.8-0.5-1.6-0.9-2.2-0.4-0.3-0.9-0.5-1.5-0.4 0.1 0.6-0.1 1-0.3 1.5-0.1 0.3-0.3 0.5-0.6 0.7-0.3-0.8-0.5-1.6-0.5-2.5-0.6-0.1-1.2 0-1.8 0.2 0.3 0.3 0.4 0.7 0.4 1.2-0.4 0.6-0.9 0.9-1.5 1.1-0.2-0.1-0.5-0.2-0.7-0.4-0.3 0.6-0.5 1.2-0.4 1.8-0.3-1.4-0.4-3-0.3-4.6h1.1c-0.1-0.8 0-1.6 0.3-2.2 0 0.4 0 0.7 0.2 1.1 1.2-0.5 2.4-0.5 3.6 0 0.1-1.2 0.2-2.3 0.5-3.3z"></path><path fill="#663d06" d="m9.5 13.1h1.1v3.3h-1.1v-3.3z"></path><path fill="#dbc05b" d="m23.6 11.7v4.7h1.1v-4.7c0.3-0.1 0.6 0.1 0.7 0.4-0.4 2.4 0.7 3.8 3.2 4.3v-1.5h1.5v-1c0.4 1.2 0.4 2.6 0 3.9-0.6-0.1-1.1 0-1.5 0.4l-0.9 2.9c-0.2-0.8-0.5-1.6-0.9-2.2-0.4-0.3-0.8-0.5-1.4-0.4 0 0.6-0.1 1-0.4 1.5-0.1 0.3-0.3 0.5-0.5 0.7-0.3-0.9-0.6-1.7-0.9-2.5v-0.4c-0.2-0.2-0.4-0.4-0.7-0.5 2-0.2 2.1-0.4 0.3-0.6v-1.4c-0.1-1.3 0-2.5 0.4-3.6z"></path><path fill="#6f470d" d="m23.6 11.7h1.1v4.7h-1.1v-4.7z"></path><path fill="#f4e48a" d="m35.5 13.5h0.3v8.6c-0.5 0.4-0.5 0.8 0 1.1v1.1h-0.3c0-0.4-0.1-0.6-0.4-0.7-0.3-1.2-0.3-2.4 0-3.6-1.1 0.3-2.1 0.5-3.2 0.7-0.6 0.1-1-0.2-1.1-0.7 0-1 0.5-1.5 1.4-1.5 0-0.8 0-1.6 0.2-2.5 0.3 0.6 0.7 0.8 1.3 0.7 0.6-1.1 1.2-2.2 1.8-3.2z"></path><path fill="#6f470e" d="m23.6 18.2c0.3 0.8 0.6 1.6 0.9 2.5 0.2-0.2 0.4-0.4 0.5-0.7 0.5 0.4 0.8 1 0.7 1.8-0.1 0.7-0.2 1.4-0.3 2.1h-1.8c-0.1-1.5-0.5-2.9-1.1-4.3 0.1-0.5-0.1-0.9-0.4-1.2 0.5-0.2 1-0.3 1.5-0.2z"></path><path fill="#6e460c" d="m30.1 17.8c-0.3 0.7-0.4 1.4-0.4 2.2-0.6 1.2-1 2.5-1.1 3.9h-1.8c-0.3-1.6-0.7-3.3-1.1-5h1.1c0.4 0.6 0.7 1.4 0.9 2.2l0.9-2.9c0.4-0.4 0.9-0.5 1.5-0.4z"></path><path fill="#6f470d" d="m9.2 20c0.5 0.4 0.7 1 0.7 1.8-0.1 0.7-0.2 1.4-0.4 2.1-0.6 0.1-1.1 0-1.6-0.3-0.3-1.4-0.7-2.7-1.2-4 0-0.5-0.1-0.9-0.4-1.2 0.6-0.2 1.2-0.3 1.8-0.2 0 0.9 0.2 1.7 0.5 2.5 0.3-0.2 0.5-0.4 0.6-0.7z"></path><path fill="#6f460c" d="m13.9 20c-0.6 1.2-1 2.5-1.1 3.9h-1.8c-0.4-1.6-0.7-3.3-1.1-5h1.1c0.4 0.6 0.7 1.4 0.9 2.2 0.4-1.1 0.7-2.2 0.9-3.3 0.5-0.1 1 0 1.4 0.4-0.3 0.5-0.4 1.1-0.3 1.8z"></path><path fill="#704911" d="m21.4 21.4c-0.5 1.4-1.5 2.2-2.9 2.5 0.1-1.1 0.5-2.1 1.1-3 0-0.4-0.1-0.7-0.3-0.9-0.6-0.5-0.8-1.1-0.8-1.8 2 0.2 3 1.2 2.9 3.2z"></path><path fill="#c79a24" d="m35.1 23.6c-0.1 0.3 0.1 0.6 0.4 0.7-0.4 1.3-1 2.6-1.8 3.6-0.2-0.5-0.3-0.5-0.4 0-0.5 0.1-0.5 0.2 0 0.4 0 0.5-0.2 0.9-0.7 1-0.1-0.4-0.3-0.4-0.4 0-0.2 0-0.3 0.2-0.3 0.4-0.3 0-0.4 0.1-0.4 0.4-0.2 0-0.4 0.1-0.4 0.3-0.2 0-0.3 0.1-0.3 0.4-0.3 0-0.4 0.1-0.4 0.3-0.2 0-0.3 0.2-0.3 0.4-0.3 0-0.4 0.1-0.4 0.4-0.2 0-0.4 0.1-0.4 0.3-0.2 0-0.3 0.1-0.3 0.4-0.4-0.1-0.6 0-0.7 0.3-0.3 0-0.4 0.2-0.4 0.4-0.4-0.1-0.6 0.1-0.7 0.4-0.3 0-0.4 0.1-0.4 0.3-0.3 0-0.6 0.1-0.7 0.4-0.4-0.1-0.6 0-0.7 0.3-0.5 0-0.8 0.1-1.1 0.4-1 0.1-1 0.2 0 0.4v0.3h-1.1c-0.3-0.5-0.7-0.5-1.1 0h-1c0.3-0.2 0.6-0.6 0.7-1.1v-0.3c3.8-0.9 7.1-2.8 9.9-5.8 0.5-0.6 0.8-1.3 0.9-2.1-1.1 0-2.2 0.1-3.3 0.3 1.4-1.8 2.2-3.9 2.6-6.1 1.1-0.2 2.1-0.4 3.2-0.7-0.3 1.2-0.3 2.4 0 3.6z"></path><path fill="#785217" d="m17.1 21.8c0.6 0.6 0.8 1.3 0.7 2.1-1.3-0.2-2.1-0.9-2.5-2.1-0.3-2.1 0.6-3.2 2.5-3.4-2 0.8-2.2 2-0.7 3.4z"></path><path fill="#f5e584" d="m30.8 20c0.1 0.5 0.5 0.8 1.1 0.7-0.4 2.2-1.2 4.3-2.6 6.1-0.7 1.1-1.6 1.9-2.8 2.5-0.8 0-1.4 0.2-1.8 0.8-0.4-0.2-0.6-0.4-0.8-0.8 0-0.2 0.2-0.3 0.4-0.3 1.1-0.5 1.9-1.2 2.5-2.2 0.5-0.2 0.9-0.6 1.1-1.1 0.5-0.1 0.7-0.5 0.7-1 0.9-0.9 1.4-2 1.5-3.3l0.7-1.4z"></path><path fill="#b78b1d" d="m26.8 18.9h-1.1c0.4 1.7 0.8 3.4 1.1 5h1.8c0.1-1.4 0.5-2.7 1.1-3.9l0.4 1.4c-0.1 1.3-0.6 2.4-1.5 3.3-3-0.2-5.9 0-8.8 0.3-0.6-0.2-1-0.5-1.3-1.1 1.4-0.3 2.4-1.1 2.9-2.5 0.2-0.9 0.6-1.5 1.1-1.8 0.6 1.4 1 2.8 1.1 4.3h1.8c0.1-0.7 0.2-1.4 0.3-2.1 0.1-0.8-0.2-1.4-0.7-1.8 0.3-0.5 0.4-0.9 0.4-1.5 0.6-0.1 1 0.1 1.4 0.4z"></path><path fill="#b3851d" d="m11 18.9h-1.1c0.4 1.7 0.7 3.4 1.1 5h1.8c0.1-1.4 0.5-2.7 1.1-3.9 0 1 0.5 1.6 1.4 1.8 0.4 1.2 1.2 1.9 2.5 2.1 0.1-0.8-0.1-1.5-0.7-2.1 0.9-0.4 1.6-1 2.2-1.8 0.2 0.2 0.3 0.5 0.3 0.9-0.6 0.9-1 1.9-1.1 3 0.3 0.6 0.7 0.9 1.3 1.1 2.9-0.3 5.8-0.5 8.8-0.3 0 0.5-0.2 0.9-0.7 1-6.7-0.4-13.4-0.4-20.2 0-1.2-1.4-2-3.1-2.5-5 0.6-0.2 1.1-0.5 1.5-1.1 0.5 1.3 0.9 2.6 1.2 4 0.5 0.3 1 0.4 1.6 0.3 0.2-0.7 0.3-1.4 0.4-2.1 0-0.8-0.2-1.4-0.7-1.8 0.2-0.5 0.4-0.9 0.3-1.5 0.6-0.1 1.1 0.1 1.5 0.4z"></path><path fill="#8d8d00" d="m0.5 25h0.4v0.7c-0.3-0.1-0.4-0.3-0.4-0.7z" opacity=".008"></path><path fill="#a47216" d="m27.9 25.7c-0.2 0.5-0.6 0.9-1.1 1.1-5.9 0-11.9 0-18 0-0.5-0.2-0.8-0.6-1.1-1.1 6.8-0.4 13.5-0.4 20.2 0z"></path><path fill="#966116" d="m8.8 26.8c6.1 0 12.1 0 18 0-0.6 1-1.4 1.7-2.5 2.2-2-0.2-4.2-0.3-6.5-0.4l-5 0.2c-0.3 0.1-0.6 0.3-0.7 0.5-1.4-0.4-2.5-1.2-3.3-2.5z"></path><path fill="#a9aa00" d="m33.3 27.9h0.4c-0.1 0.2-0.2 0.2-0.4 0z" opacity=".012"></path><path fill="#8c5618" d="m24.3 29c-0.2 0-0.4 0.1-0.4 0.3-3 1.4-6.1 1.8-9.3 1.1-1-0.1-1.8-0.5-2.5-1.1 0.1-0.2 0.4-0.4 0.7-0.5l5-0.2c2.3 0.1 4.5 0.2 6.5 0.4z"></path><path fill="#feaa54" d="m32.2 29.3h0.4c-0.1 0.3-0.2 0.3-0.4 0z" opacity=".012"></path><path fill="#8d5814" d="m6.3 26.8c1.1 1.5 2.4 2.7 4 3.6-0.2 0.4-0.4 0.7-0.8 0.9 0.4 0.2 0.7 0.2 0.9-0.2 0.4 1.5 1 1.8 2 0.8l0.7 0.3c0.3 0.9 0.4 1.7 0.4 2.5-4.1-1-7.4-3.3-9.7-6.8 0.8-0.5 1.6-0.9 2.5-1.1z"></path><path fill="#eed871" d="m5.2 20.7c0.5 1.9 1.3 3.6 2.5 5 0.3 0.5 0.6 0.9 1.1 1.1 0.8 1.3 1.9 2.1 3.3 2.5 0.7 0.6 1.5 1 2.5 1.1-1.3 0.2-2.6 0.2-4 0h-0.3c-1.6-0.9-2.9-2.1-4-3.6-0.5-0.7-1-1.4-1.4-2.1l-0.8-2.6c-0.1-0.6 0.1-1.2 0.4-1.8 0.2 0.2 0.5 0.3 0.7 0.4z"></path><path fill="#8e5814" d="m21.8 34.4c-0.6-1-0.4-1.6 0.7-2-0.3-0.1-0.6-0.3-0.7-0.5 1.7-0.6 3.2-1.4 4.7-2.6 1.2-0.6 2.1-1.4 2.8-2.5 1.1-0.2 2.2-0.3 3.3-0.3-0.1 0.8-0.4 1.5-0.9 2.1-2.8 3-6.1 4.9-9.9 5.8z"></path><path fill="#be7f00" d="m31.9 29.7h0.3c0 0.2-0.2 0.2-0.3 0z" opacity=".016"></path><path fill="#a1a011" d="m31.5 30.1h0.4c0 0.7-0.4 1-1.1 1v-0.3c0.2 0 0.3-0.1 0.3-0.4 0.3 0 0.4-0.1 0.4-0.3z" opacity=".004"></path><path fill="#ddbd4a" d="m23.9 29.3c0.2 0.4 0.4 0.6 0.8 0.8 0.4-0.6 1-0.8 1.8-0.8-1.5 1.2-3 2-4.7 2.6-2.5 0.4-5 0.4-7.6 0.1-1.3-0.3-2.5-0.8-3.6-1.6 1.4 0.2 2.7 0.2 4 0 3.2 0.7 6.3 0.3 9.3-1.1z"></path><path fill="#bea7ff" d="m30.4 31.1h0.4c0 0.5-0.3 0.8-0.7 0.8v-0.4c0.2 0 0.3-0.1 0.3-0.4z" opacity=".004"></path><path fill="#feaa00" d="m29.7 31.9h0.4c-0.1 0.2-0.2 0.2-0.4 0z m-0.4 0.3h0.4c-0.1 0.3-0.2 0.3-0.4 0z m-0.3 0.4h0.3c0 0.2-0.1 0.2-0.3 0z" opacity=".012"></path><path fill="#ffd6fe" d="m28.3 33.3v-0.4h0.7c-0.1 0.3-0.4 0.5-0.7 0.4z" opacity=".004"></path><path fill="#a9aa00" d="m27.9 33.3h0.4c-0.1 0.2-0.2 0.2-0.4 0z" opacity=".012"></path><path fill="#d5825b" d="m27.2 34v-0.3h0.7c-0.1 0.3-0.4 0.4-0.7 0.3z" opacity=".008"></path><path fill="#885213" d="m10.3 30.4h0.3c1.1 0.8 2.3 1.3 3.6 1.6 2.6 0.3 5.1 0.3 7.6-0.1 0.1 0.2 0.4 0.4 0.7 0.5-1.1 0.4-1.3 1-0.7 2v0.3c-2.8 0.5-5.5 0.5-8.3 0 0-0.8-0.1-1.6-0.4-2.5l-0.7-0.3c-1 1-1.6 0.7-2-0.8-0.2 0.4-0.5 0.4-0.9 0.2 0.4-0.2 0.6-0.5 0.8-0.9z"></path><path fill="#fe7f00" d="m26.8 34h0.4c-0.1 0.3-0.2 0.3-0.4 0z" opacity=".008"></path><path fill="#ead300" d="m26.1 34.7v-0.3h0.7c-0.1 0.3-0.3 0.4-0.7 0.3z" opacity=".004"></path><path fill="#c2941b" d="m0.5 23.6h0.8c0.5 0.4 0.7 1 0.7 1.8 0.9 0 1.6-0.4 2.1-1.1 0.3 0.1 0.5 0.3 0.8 0.4 0.4 0.7 0.9 1.4 1.4 2.1-0.9 0.2-1.7 0.6-2.5 1.1 2.3 3.5 5.6 5.8 9.7 6.8 2.8 0.5 5.5 0.5 8.3 0-0.1 0.5-0.4 0.9-0.7 1.1h-7.6c-0.3-0.3-0.6-0.4-1.1-0.3-1.4-1-3-1.6-4.7-1.7 0.2-0.5 0-1-0.7-1.4-1.2-0.9-2.4-1.9-3.4-3.1-0.2 0.5-0.5 0.5-0.7 0-0.2-0.3-0.2-0.6 0.2-0.9-0.4-0.4-0.8-0.5-1.3-0.5-0.4-0.7-0.7-1.4-0.9-2.2 0.5-0.2 0.5-0.4 0-0.7-0.1-0.9-0.2-0.9-0.4 0-0.3-0.2-0.4-0.6-0.3-1.1 0.2 0 0.3-0.1 0.3-0.3z" opacity=".859"></path><path fill="#ff5afd" d="m25.4 35.1v-0.4h0.7c-0.1 0.3-0.4 0.5-0.7 0.4z" opacity=".004"></path><path fill="#b3b300" d="m24.3 35.5v-0.4h1.1c-0.3 0.3-0.6 0.4-1.1 0.4z" opacity=".012"></path><path fill="#ffd5ff" d="m11.3 35.8c0.3-0.3 0.7-0.4 1.1-0.3v0.3h-1.1z" opacity=".012"></path></svg>