<svg xmlns="http://www.w3.org/2000/svg" width="100" height="100" viewBox="0 0 100 100" version="1.1">
	<path fill-opacity="0.247" d="M 38.348 1.420 C 29.773 3.500, 21.885 7.979, 15.373 14.465 C 9.674 20.143, 3 30.901, 3 34.412 C 3 36.541, 4.858 37.363, 6.531 35.974 C 7.325 35.315, 8.643 35.033, 9.460 35.346 C 10.326 35.679, 11.582 35.008, 12.473 33.736 C 14.485 30.862, 14.356 32.302, 12 39 C 10.936 42.025, 10.051 46.952, 10.033 49.950 C 10.007 54.189, 9.733 55.133, 8.800 54.200 C 7.143 52.543, 5 52.695, 5 54.469 C 5 55.416, 4.421 55.715, 3.368 55.311 C 1.944 54.765, 1.794 55.435, 2.190 60.593 C 3.441 76.913, 19.142 93.493, 38.131 98.547 C 49.455 101.561, 64.338 99.498, 74.623 93.490 C 87.567 85.927, 98 71.101, 98 60.269 L 98 55.248 93.472 56.874 C 89.498 58.301, 88.815 58.989, 87.890 62.500 C 84.746 74.435, 72.699 85.526, 62.544 85.834 L 58.589 85.955 64.787 83.023 C 68.196 81.411, 72.973 78.046, 75.403 75.546 C 80.163 70.649, 85 61.991, 85 58.369 C 85 54.833, 86.808 51, 88.475 51 C 90.702 51, 90.382 45.773, 87.669 37.811 C 85.178 30.503, 85.592 29.551, 88.478 35.952 C 90.363 40.131, 92.346 41.147, 93.376 38.462 C 93.759 37.465, 93.180 36.607, 91.733 36.025 C 90.104 35.370, 89.957 35.110, 91.191 35.063 C 92.121 35.029, 93.160 35.450, 93.500 36 C 94.673 37.898, 97 37.031, 97 34.696 C 97 30.395, 91.647 21.523, 85.062 14.911 C 72.555 2.353, 55.183 -2.664, 38.348 1.420 M 32.766 19.215 C 24.461 22.936, 15 36.291, 15 44.295 C 15 46.318, 15.405 46.482, 19.592 46.149 C 22.124 45.948, 24.681 46.281, 25.292 46.892 C 26.672 48.272, 30.671 48.342, 31.500 47 C 31.840 46.450, 32.991 46, 34.059 46 C 35.781 46, 36 45.267, 36 39.500 L 36 33 41.300 33 C 48.801 33, 51.472 36.619, 47.027 40.760 C 45.064 42.589, 45.064 42.604, 47.027 44.020 C 49.676 45.929, 49.513 47, 46.573 47 C 45.141 47, 43.295 45.919, 42.073 44.365 C 40.933 42.916, 40 42.241, 40 42.865 C 40 46.465, 47.152 49.448, 49.693 46.907 C 50.483 46.117, 51.350 46.117, 52.827 46.907 C 55.665 48.426, 59.168 48.271, 61.676 46.514 C 63.552 45.200, 63.863 45.200, 64.367 46.514 C 64.681 47.331, 65.964 47.939, 67.219 47.864 L 69.500 47.728 67.250 47.294 C 65.175 46.895, 65 46.323, 65 39.930 C 65 33.082, 65.032 33, 67.677 33 C 69.460 33, 71.284 34.085, 73.137 36.250 L 75.919 39.500 75.959 36.250 C 75.991 33.680, 76.419 33, 78 33 C 79.791 33, 80 33.667, 80 39.383 C 80 45.398, 80.144 45.794, 82.500 46.245 C 84.593 46.645, 85 46.340, 85 44.372 C 85 40.659, 81.503 32.423, 78.104 28.132 C 76.394 25.972, 72.769 22.777, 70.048 21.031 C 65.131 17.875, 65.022 17.857, 50.848 17.679 C 39.262 17.533, 35.878 17.821, 32.766 19.215 M 22 34.500 C 22 35.679, 23.389 36, 28.500 36 C 33.611 36, 35 35.679, 35 34.500 C 35 33.321, 33.611 33, 28.500 33 C 23.389 33, 22 33.321, 22 34.500 M 51.557 35.223 C 49.168 38.632, 49.603 42.542, 52.635 44.927 C 54.084 46.067, 56.048 47, 57 47 C 60.002 47, 64 43.088, 64 40.150 C 64 35.621, 61.434 33, 57 33 C 54.117 33, 52.711 33.574, 51.557 35.223 M 69.102 35.110 C 69.046 35.996, 69.286 38.809, 69.636 41.360 C 70.125 44.931, 70.688 46, 72.077 46 C 73.070 46, 74.160 46.450, 74.500 47 C 74.840 47.550, 76.329 47.939, 77.809 47.864 C 80.056 47.750, 80.141 47.658, 78.323 47.304 C 75.633 46.780, 70.948 40.800, 69.948 36.615 C 69.539 34.902, 69.159 34.225, 69.102 35.110 M 6.500 37 C 5.663 38.354, 6.792 40, 8.559 40 C 9.352 40, 10 39.100, 10 38 C 10 35.930, 7.587 35.240, 6.500 37 M 40 37 C 40 37.550, 40.900 38, 42 38 C 43.100 38, 44 37.550, 44 37 C 44 36.450, 43.100 36, 42 36 C 40.900 36, 40 36.450, 40 37 M 55.212 37.188 C 53.572 38.828, 53.688 40.496, 55.550 42.042 C 57.768 43.882, 60.974 40.767, 59.412 38.291 C 58.007 36.064, 56.684 35.716, 55.212 37.188 M 26 42 C 26 46.667, 26.167 47, 28.500 47 C 30.833 47, 31 46.667, 31 42 C 31 37.333, 30.833 37, 28.500 37 C 26.167 37, 26 37.333, 26 42 M 5.446 45.087 C 4.416 46.755, 6.733 48.667, 8.113 47.287 C 9.267 46.133, 8.545 44, 7 44 C 6.515 44, 5.816 44.489, 5.446 45.087 M 91.446 45.087 C 90.416 46.755, 92.733 48.667, 94.113 47.287 C 95.267 46.133, 94.545 44, 93 44 C 92.515 44, 91.816 44.489, 91.446 45.087 M 36.750 47.662 C 37.438 47.940, 38.563 47.940, 39.250 47.662 C 39.938 47.385, 39.375 47.158, 38 47.158 C 36.625 47.158, 36.063 47.385, 36.750 47.662 M 11.346 58.508 C 13.238 72.308, 25.844 85.481, 37.500 85.836 L 41.500 85.957 36.234 83.517 C 33.337 82.175, 29.319 79.822, 27.304 78.288 C 22.761 74.830, 16.722 65.649, 15.041 59.645 C 14.345 57.161, 13.089 54.864, 12.249 54.542 C 10.966 54.050, 10.822 54.683, 11.346 58.508 M 48.750 55.080 C 46.672 56.291, 46.414 59, 48.378 59 C 49.135 59, 50.311 58.330, 50.991 57.511 C 51.671 56.692, 52.738 56.328, 53.363 56.703 C 53.988 57.077, 53.882 56.623, 53.128 55.692 C 51.548 53.745, 51.140 53.688, 48.750 55.080 M 42.813 86.683 C 43.534 86.972, 44.397 86.936, 44.729 86.604 C 45.061 86.272, 44.471 86.036, 43.417 86.079 C 42.252 86.127, 42.015 86.364, 42.813 86.683 M 55.813 86.683 C 56.534 86.972, 57.397 86.936, 57.729 86.604 C 58.061 86.272, 57.471 86.036, 56.417 86.079 C 55.252 86.127, 55.015 86.364, 55.813 86.683" stroke="none" fill="black" fill-rule="evenodd"/>
	<path fill-opacity="0.271" d="M 38.634 1.586 C 25.751 4.705, 13.324 14.120, 7.677 25.041 C 5.690 28.885, 5.429 29.850, 6.795 28.302 C 7.863 27.093, 9.583 26.105, 10.618 26.106 C 11.653 26.107, 13.738 25.806, 15.250 25.437 C 17.071 24.993, 18 25.164, 18 25.942 C 18 26.589, 17.480 26.797, 16.845 26.405 C 16.141 25.969, 15.962 26.130, 16.386 26.816 C 16.769 27.435, 16.370 29.318, 15.500 31 C 14.630 32.682, 14.157 34.445, 14.448 34.916 C 14.740 35.388, 14.308 36.329, 13.489 37.009 C 12.670 37.689, 12 39.288, 12 40.563 C 12 45.049, 13.769 43.898, 15.914 38.017 C 18.737 30.272, 26.228 22.018, 33.810 18.294 C 38.942 15.774, 40.529 15.500, 50 15.500 C 59.547 15.500, 60.999 15.756, 66 18.317 C 75.175 23.017, 81.891 30.814, 84.973 40.342 C 85.848 43.048, 86.529 43.871, 87.276 43.124 C 88.608 41.792, 86.819 35.302, 83.420 29.138 L 81.015 24.775 84.258 25.418 C 86.041 25.771, 88.277 26.075, 89.228 26.094 C 90.178 26.112, 91.865 27.285, 92.978 28.699 C 96.813 33.575, 95.019 28.507, 90.553 21.850 C 79.153 4.856, 58.472 -3.215, 38.634 1.586 M 10.639 28.694 C 9.444 29.889, 9.994 32, 11.500 32 C 12.325 32, 13 31.352, 13 30.559 C 13 28.888, 11.573 27.761, 10.639 28.694 M 87.639 28.694 C 86.444 29.889, 86.994 32, 88.500 32 C 89.325 32, 90 31.352, 90 30.559 C 90 28.888, 88.573 27.761, 87.639 28.694 M 22 34.500 C 22 35.667, 23.333 36, 28 36 C 32.667 36, 34 35.667, 34 34.500 C 34 33.333, 32.667 33, 28 33 C 23.333 33, 22 33.333, 22 34.500 M 36 40 C 36 46.333, 36.190 47, 38 47 C 39.467 47, 40 46.333, 40 44.500 C 40 43.125, 40.525 42, 41.167 42 C 41.808 42, 42.032 42.301, 41.664 42.669 C 40.641 43.693, 44.070 47, 46.155 47 C 48.400 47, 48.535 45.689, 46.467 43.972 C 45.107 42.844, 45.182 42.435, 47.132 40.360 C 49.007 38.364, 49.162 37.651, 48.186 35.510 C 47.166 33.271, 46.446 33, 41.521 33 L 36 33 36 40 M 52 35 C 49.602 37.398, 49.433 40.746, 51.557 43.777 C 53.746 46.902, 60.254 46.902, 62.443 43.777 C 65.818 38.960, 62.808 33, 57 33 C 55.333 33, 53.111 33.889, 52 35 M 65.204 39.740 C 65.445 45.223, 65.826 46.542, 67.250 46.813 C 68.783 47.105, 69 46.270, 69 40.073 C 69 33.614, 68.822 33, 66.954 33 C 65.066 33, 64.931 33.520, 65.204 39.740 M 70 35.387 C 70 38.882, 75.711 47, 78.170 47 C 79.769 47, 80 46.117, 80 40 C 80 33.667, 79.810 33, 78 33 C 76.367 33, 76 33.667, 76 36.635 L 76 40.270 73.829 37.385 C 70.224 32.595, 70 32.478, 70 35.387 M 56 35.311 C 56 36.240, 55.550 37, 55 37 C 53.693 37, 53.700 41.697, 55.009 42.506 C 56.795 43.609, 60 41.930, 60 39.891 C 60 38.805, 59.100 36.950, 58 35.770 C 56.304 33.949, 56 33.879, 56 35.311 M 7.639 36.694 C 6.513 37.820, 6.954 39, 8.500 39 C 9.325 39, 10 38.577, 10 38.059 C 10 36.798, 8.438 35.895, 7.639 36.694 M 40 37 C 40 37.550, 40.900 38, 42 38 C 43.100 38, 44 37.550, 44 37 C 44 36.450, 43.100 36, 42 36 C 40.900 36, 40 36.450, 40 37 M 90.639 36.694 C 89.513 37.820, 89.954 39, 91.500 39 C 92.325 39, 93 38.577, 93 38.059 C 93 36.798, 91.438 35.895, 90.639 36.694 M 26.192 41.673 C 26.451 45.731, 26.819 46.500, 28.500 46.500 C 30.219 46.500, 30.486 45.867, 30.399 42 C 30.313 38.162, 29.974 37.452, 28.091 37.173 C 26.041 36.869, 25.906 37.188, 26.192 41.673 M 6 46 C 6 46.550, 6.450 47, 7 47 C 7.550 47, 8 46.550, 8 46 C 8 45.450, 7.550 45, 7 45 C 6.450 45, 6 45.450, 6 46 M 92 46 C 92 46.550, 92.450 47, 93 47 C 93.550 47, 94 46.550, 94 46 C 94 45.450, 93.550 45, 93 45 C 92.450 45, 92 45.450, 92 46 M 18.408 53.363 C 19.005 56.543, 18.867 56.860, 17.036 56.507 C 14.501 56.019, 14.504 56.598, 17.071 63.459 C 19.811 70.782, 27.485 79.109, 34.810 82.706 C 39.827 85.170, 41.623 85.500, 50 85.499 C 57.648 85.499, 60.420 85.074, 64.217 83.320 C 70.619 80.364, 78.381 72.884, 81.460 66.704 C 84.039 61.529, 85.080 56.859, 82.954 60 C 81.839 61.648, 82.573 57.452, 84.146 53.185 C 85.316 50.012, 85.310 50, 82.583 50 C 80.632 50, 79.891 50.818, 78.733 54.250 L 77.300 58.500 76.571 55.250 C 75.994 52.679, 75.335 52, 73.421 52 C 72.089 52, 71 52.469, 71 53.042 C 71 53.615, 70.438 54.695, 69.750 55.441 C 68.719 56.560, 68.310 56.246, 67.416 53.649 C 66.694 51.551, 65.566 50.388, 64.038 50.164 C 61.902 49.850, 61.792 50.079, 62.436 53.512 C 62.871 55.830, 62.765 56.973, 62.149 56.592 C 61.611 56.260, 60.943 56.553, 60.664 57.244 C 60.345 58.037, 60.129 57.888, 60.079 56.839 C 59.999 55.151, 54.609 50, 52.923 50 C 51.448 50, 51.857 54, 53.500 55.643 C 55.073 57.216, 55.534 59.151, 54.250 58.788 C 53.837 58.671, 52.459 59.152, 51.186 59.857 C 49.389 60.852, 48.551 60.873, 47.436 59.947 C 45.313 58.185, 45.684 56.253, 48.500 54.408 C 51.729 52.292, 51.903 49.596, 48.750 50.537 C 45.391 51.540, 42.893 54.350, 42.001 58.129 L 41.205 61.500 41.087 58.500 C 40.993 56.091, 40.759 55.795, 39.904 57 C 39.078 58.163, 38.968 57.903, 39.415 55.843 C 39.732 54.381, 40.267 52.469, 40.603 51.593 C 41.062 50.395, 40.588 50, 38.690 50 C 36.613 50, 35.913 50.751, 34.733 54.250 L 33.300 58.500 32.571 55.250 C 31.994 52.679, 31.335 52, 29.421 52 C 28.089 52, 27 52.469, 27 53.042 C 27 53.615, 26.438 54.695, 25.750 55.441 C 24.719 56.560, 24.310 56.246, 23.416 53.649 C 22.694 51.551, 21.566 50.388, 20.038 50.164 C 17.917 49.853, 17.795 50.093, 18.408 53.363 M 6 54.500 C 6 55.325, 6.450 56, 7 56 C 7.550 56, 8 55.325, 8 54.500 C 8 53.675, 7.550 53, 7 53 C 6.450 53, 6 53.675, 6 54.500 M 3.036 60.219 C 3.167 64.961, 6.437 74.118, 9.681 78.827 C 15.692 87.556, 27.384 95.688, 36.500 97.483 C 50.148 100.169, 50.903 100.208, 58.716 98.615 C 69.317 96.453, 78.316 91.823, 85.125 85.025 C 90.329 79.830, 94.736 73.054, 95.462 69.133 C 97.070 60.440, 97.124 59.001, 95.838 59.014 C 91.497 59.058, 89.794 60.497, 87.125 66.379 C 79.918 82.264, 61.387 92.008, 43.884 89.118 C 27.864 86.472, 15.817 76.240, 10.737 60.962 C 10.089 59.013, 2.983 58.327, 3.036 60.219" stroke="none" fill="black" fill-rule="evenodd"/>
	<path fill-opacity="0.121" d="M 40.059 1.556 C 31.683 3.372, 24.271 7.055, 18.852 12.094 C 15.040 15.639, 15.039 16.602, 18.851 13.638 C 21.169 11.835, 23.215 12.052, 25.253 14.317 L 27.217 16.500 25.711 13.942 C 24.675 12.181, 24.501 10.857, 25.152 9.692 C 26.484 7.312, 27.855 7.587, 29.182 10.500 C 29.808 11.875, 30.725 13, 31.220 13 C 31.714 13, 31.793 12.474, 31.395 11.830 C 30.909 11.043, 31.217 10.869, 32.336 11.299 C 33.251 11.650, 34 11.501, 34 10.969 C 34 10.436, 33.523 10, 32.941 10 C 32.359 10, 32.143 9.578, 32.462 9.061 C 32.781 8.545, 32.302 7.709, 31.397 7.202 C 30.027 6.436, 30.283 6.097, 32.933 5.173 C 35.786 4.179, 36.056 4.247, 35.553 5.835 C 34.762 8.326, 37.137 11.268, 39.276 10.447 C 40.224 10.084, 41 9.329, 41 8.771 C 41 8.141, 40.480 8.187, 39.633 8.890 C 38.594 9.752, 37.972 9.671, 37.047 8.556 C 36.376 7.748, 36.118 6.618, 36.473 6.044 C 37.349 4.626, 40 4.718, 40 6.167 C 40 6.808, 40.289 7.044, 40.643 6.691 C 40.996 6.337, 40.765 5.422, 40.130 4.657 C 39.188 3.522, 39.668 3.151, 42.738 2.644 C 44.807 2.302, 47.962 2.017, 49.750 2.011 C 52.800 2.001, 53 2.216, 53 5.500 C 53 7.425, 53.470 9, 54.045 9 C 54.698 9, 54.844 7.687, 54.434 5.500 C 53.985 3.108, 54.151 2, 54.956 2 C 55.695 2, 55.904 2.839, 55.516 4.250 C 54.925 6.397, 54.965 6.415, 56.397 4.629 C 57.591 3.141, 58.643 2.898, 61.546 3.443 C 64.958 4.083, 65.091 4.242, 63.597 5.892 C 61.605 8.094, 61.580 9.406, 63.500 11 C 65.581 12.727, 68.311 10.409, 67.737 7.404 C 67.354 5.399, 67.540 5.289, 69.671 6.260 C 72.008 7.325, 72.059 7.959, 70.203 12.886 C 69.875 13.758, 70.203 14.099, 71.086 13.805 C 71.859 13.547, 72.537 12.698, 72.593 11.918 C 72.843 8.443, 73.062 7.920, 74.016 8.510 C 74.575 8.856, 74.716 9.651, 74.329 10.277 C 73.453 11.694, 72.950 16, 73.660 16 C 73.949 16, 75.314 15.112, 76.694 14.026 L 79.203 12.053 82.851 14.722 L 86.500 17.391 82.500 13.140 C 77.589 7.920, 68.786 3.469, 59.500 1.511 C 51.070 -0.267, 48.436 -0.261, 40.059 1.556 M 44.079 5.250 C 44.127 6.610, 44.377 6.947, 44.712 6.101 C 45.134 5.036, 45.675 5.244, 46.978 6.970 L 48.689 9.239 48.743 5.869 C 48.785 3.227, 48.625 2.932, 48.005 4.500 C 47.280 6.335, 47.156 6.355, 46.500 4.750 C 45.488 2.269, 43.985 2.579, 44.079 5.250 M 58.035 5.934 C 56.768 8.301, 56.709 9.298, 57.879 8.575 C 58.762 8.029, 60.138 4, 59.442 4 C 59.237 4, 58.605 4.870, 58.035 5.934 M 63.336 7.567 C 62.502 9.739, 64.618 11.782, 66.133 10.267 C 67.413 8.987, 66.620 6, 65 6 C 64.415 6, 63.667 6.705, 63.336 7.567 M 29.510 9.016 C 29.856 9.575, 30.557 9.774, 31.069 9.457 C 32.456 8.600, 32.198 8, 30.441 8 C 29.584 8, 29.165 8.457, 29.510 9.016 M 43.985 11.047 C 36.782 12.121, 30.213 14.997, 25.475 19.151 C 21.272 22.837, 15.991 29.675, 16.015 31.400 C 16.024 32.005, 16.467 31.825, 17 31 C 17.822 29.728, 17.972 29.720, 17.985 30.947 C 17.993 31.743, 19.338 30.575, 20.972 28.352 C 24.374 23.726, 29.312 20.072, 36.500 16.858 C 40.406 15.112, 43.360 14.623, 50 14.623 C 56.640 14.623, 59.594 15.112, 63.500 16.858 C 70.686 20.071, 75.626 23.726, 79.023 28.346 C 82.767 33.437, 85.781 34.411, 83.371 29.751 C 78.949 21.200, 67.844 13.061, 58.500 11.523 C 50.915 10.275, 49.481 10.228, 43.985 11.047 M 75.369 11.480 C 74.525 13.680, 75.453 14.364, 76.906 12.613 C 77.724 11.628, 77.766 10.974, 77.041 10.526 C 76.461 10.167, 75.708 10.596, 75.369 11.480 M 14.543 22.931 C 13.860 24.036, 15.437 25.230, 16.361 24.306 C 17.311 23.355, 17.134 22, 16.059 22 C 15.541 22, 14.859 22.419, 14.543 22.931 M 82.565 22.895 C 82.260 23.388, 82.669 24.043, 83.474 24.352 C 85.036 24.951, 86.371 23.704, 85.306 22.639 C 84.402 21.735, 83.213 21.846, 82.565 22.895 M 10 30 C 10 30.550, 10.675 31, 11.500 31 C 12.325 31, 13 30.550, 13 30 C 13 29.450, 12.325 29, 11.500 29 C 10.675 29, 10 29.450, 10 30 M 87 30 C 87 30.550, 87.675 31, 88.500 31 C 89.325 31, 90 30.550, 90 30 C 90 29.450, 89.325 29, 88.500 29 C 87.675 29, 87 29.450, 87 30 M 23 34.500 C 23 35.652, 24.278 36, 28.500 36 C 32.722 36, 34 35.652, 34 34.500 C 34 33.348, 32.722 33, 28.500 33 C 24.278 33, 23 33.348, 23 34.500 M 36 39.500 C 36 45.255, 36.221 46, 37.930 46 C 39.171 46, 39.975 45.196, 40.180 43.750 C 40.418 42.077, 41.269 41.420, 43.500 41.188 C 46.229 40.904, 49 38.734, 49 36.880 C 49 34.695, 45.474 33, 40.929 33 L 36 33 36 39.500 M 52.073 35.635 C 50.933 37.084, 50 38.638, 50 39.088 C 50 40.925, 52.370 44.928, 53.779 45.469 C 56.179 46.390, 56.527 45.162, 54.729 42.118 C 53.269 39.646, 53.240 39.062, 54.499 37.398 C 57.777 33.069, 55.432 31.365, 52.073 35.635 M 58.032 34.167 C 58.049 34.900, 58.710 36.354, 59.501 37.398 C 60.760 39.062, 60.731 39.646, 59.271 42.118 C 58.355 43.669, 57.855 45.188, 58.159 45.493 C 59.307 46.641, 61.862 44.748, 63.056 41.864 C 64.134 39.262, 64.040 38.531, 62.337 36.249 C 60.087 33.236, 57.985 32.219, 58.032 34.167 M 65.500 39.500 C 65.500 45.024, 65.763 46, 67.250 46 C 68.737 46, 69 45.024, 69 39.500 C 69 33.976, 68.737 33, 67.250 33 C 65.763 33, 65.500 33.976, 65.500 39.500 M 76 36.712 L 76 40.424 73.041 36.962 C 70.234 33.678, 70.079 33.621, 70.041 35.856 C 69.988 38.913, 75.608 46, 78.084 46 C 79.775 46, 80 45.238, 80 39.500 C 80 33.667, 79.795 33, 78 33 C 76.359 33, 76 33.667, 76 36.712 M 40 36.941 C 40 37.459, 40.409 38.135, 40.910 38.444 C 42.202 39.243, 45.099 37.970, 44.435 36.895 C 43.699 35.704, 40 35.743, 40 36.941 M 26.932 37.250 C 26.895 37.388, 26.782 39.413, 26.682 41.751 C 26.534 45.202, 26.829 46.001, 28.250 46.001 C 29.657 46, 30 45.119, 30 41.500 C 30 38.167, 29.611 37, 28.500 37 C 27.675 37, 26.969 37.112, 26.932 37.250 M 42.910 44.392 C 44.191 45.935, 48 47.218, 48 46.106 C 48 44.740, 45.579 43, 43.678 43 C 42.148 43, 41.991 43.285, 42.910 44.392 M 18.389 51.750 C 18.677 52.712, 19.662 56.538, 20.578 60.250 C 22.058 66.249, 22.511 67, 24.646 67 C 27.904 67, 29.225 63.389, 27.817 58.335 C 26.768 54.568, 26.732 54.544, 25.771 57 C 24.836 59.389, 24.729 59.289, 23.366 54.750 C 22.271 51.105, 21.466 50, 19.902 50 C 18.429 50, 18.010 50.485, 18.389 51.750 M 35.449 53.468 C 34.652 55.375, 33.966 57.513, 33.924 58.218 C 33.882 58.923, 33.282 57.925, 32.590 56 C 31.759 53.688, 30.597 52.392, 29.166 52.180 C 26.675 51.813, 26.692 51.764, 27.951 55.601 C 28.474 57.195, 29.392 60.413, 29.990 62.750 C 30.893 66.281, 31.487 67, 33.500 67 C 35.513 67, 36.107 66.281, 37.010 62.750 C 37.608 60.413, 38.526 57.195, 39.049 55.601 C 40.395 51.499, 40.234 50, 38.449 50 C 37.596 50, 36.246 51.561, 35.449 53.468 M 62.395 52.250 C 62.741 53.487, 63.748 57.313, 64.633 60.750 C 66.046 66.236, 66.537 67, 68.646 67 C 72.034 67, 73.319 63.222, 71.609 58.288 C 70.331 54.602, 70.275 54.567, 69.502 56.998 C 68.768 59.307, 68.604 59.138, 67.324 54.748 C 66.244 51.043, 65.481 50, 63.853 50 C 62.170 50, 61.888 50.435, 62.395 52.250 M 79.579 53.250 C 78.853 55.038, 78.035 57.175, 77.759 58 C 77.455 58.912, 76.890 58.127, 76.320 56 C 75.659 53.534, 74.735 52.406, 73.191 52.180 C 70.673 51.813, 70.691 51.761, 71.951 55.601 C 72.474 57.195, 73.392 60.413, 73.990 62.750 C 74.893 66.281, 75.487 67, 77.500 67 C 79.511 67, 80.110 66.277, 81.025 62.750 C 81.632 60.413, 82.547 56.925, 83.058 55 C 84.298 50.337, 84.257 50, 82.449 50 C 81.596 50, 80.304 51.462, 79.579 53.250 M 45.174 53.314 C 42.416 56.251, 42.373 60.933, 45.073 64.365 C 47.570 67.540, 51 67.907, 51 65 C 51 63.900, 50.663 62.986, 50.250 62.968 C 49.837 62.951, 48.220 61.811, 46.656 60.436 C 43.927 58.035, 43.878 57.836, 45.429 55.467 C 46.319 54.110, 47.711 53, 48.523 53 C 49.335 53, 50 52.550, 50 52 C 50 50.229, 47.411 50.934, 45.174 53.314 M 52 51.809 C 52 52.254, 52.661 53.491, 53.468 54.559 C 55.377 57.082, 55.391 60.431, 53.500 62 C 51.602 63.575, 51.542 67, 53.411 67 C 54.187 67, 56.027 65.568, 57.500 63.818 C 60.626 60.103, 60.379 55.650, 56.886 52.750 C 54.692 50.928, 52 50.410, 52 51.809 M 7 62 C 7 62.550, 7.675 63, 8.500 63 C 9.325 63, 10 62.550, 10 62 C 10 61.450, 9.325 61, 8.500 61 C 7.675 61, 7 61.450, 7 62 M 90 62 C 90 62.550, 90.675 63, 91.500 63 C 92.325 63, 93 62.550, 93 62 C 93 61.450, 92.325 61, 91.500 61 C 90.675 61, 90 61.450, 90 62 M 20.564 69.843 C 23.376 74.699, 29.446 79.851, 35.880 82.843 C 40.535 85.008, 42.963 85.460, 50.021 85.478 C 57.657 85.498, 59.236 85.159, 65.218 82.213 C 71.190 79.273, 80.876 70.542, 79.591 69.258 C 79.353 69.019, 66.185 68.816, 50.329 68.805 C 30.237 68.792, 21.065 68.440, 20.064 67.643 C 19.147 66.914, 19.329 67.710, 20.564 69.843 M 10.694 68.639 C 9.895 69.438, 10.798 71, 12.059 71 C 12.577 71, 13 70.325, 13 69.500 C 13 67.954, 11.820 67.513, 10.694 68.639 M 87 69.500 C 87 70.417, 87.484 71.005, 88.075 70.808 C 88.666 70.611, 89.150 70.023, 89.150 69.500 C 89.150 68.977, 88.666 68.389, 88.075 68.192 C 87.484 67.995, 87 68.583, 87 69.500 M 9.693 77.080 C 13.031 82.772, 21.774 90.025, 29.767 93.735 C 36.616 96.913, 38.644 97.375, 47.500 97.773 C 63.448 98.488, 75.139 93.770, 85.750 82.334 C 92.042 75.554, 92.341 74, 87.354 74 C 84.404 74, 82.775 74.872, 78.827 78.565 C 76.143 81.076, 70.921 84.563, 67.223 86.315 C 60.994 89.266, 59.728 89.500, 50 89.500 C 40.272 89.500, 39.006 89.266, 32.777 86.315 C 29.079 84.563, 23.857 81.076, 21.173 78.565 C 16.980 74.643, 15.700 74, 12.090 74 L 7.887 74 9.693 77.080" stroke="none" fill="black" fill-rule="evenodd"/>
	<path fill-opacity="0.309" d="M 49.813 0.683 C 50.534 0.972, 51.397 0.936, 51.729 0.604 C 52.061 0.272, 51.471 0.036, 50.417 0.079 C 49.252 0.127, 49.015 0.364, 49.813 0.683 M 43.250 1.689 C 44.212 1.941, 45.788 1.941, 46.750 1.689 C 47.712 1.438, 46.925 1.232, 45 1.232 C 43.075 1.232, 42.288 1.438, 43.250 1.689 M 54.269 1.693 C 55.242 1.947, 56.592 1.930, 57.269 1.656 C 57.946 1.382, 57.150 1.175, 55.500 1.195 C 53.850 1.215, 53.296 1.439, 54.269 1.693 M 37.813 2.683 C 38.534 2.972, 39.397 2.936, 39.729 2.604 C 40.061 2.272, 39.471 2.036, 38.417 2.079 C 37.252 2.127, 37.015 2.364, 37.813 2.683 M 40.734 12.024 C 37.327 12.885, 29 16.640, 29 17.317 C 29 18.040, 34.042 17.215, 38.932 15.692 C 45.852 13.536, 54.148 13.536, 61.068 15.692 C 66.166 17.280, 71 18.034, 71 17.241 C 71 17.048, 68.500 15.745, 65.445 14.346 C 59.225 11.498, 47.266 10.375, 40.734 12.024 M 23 34.500 C 23 35.652, 24.278 36, 28.500 36 C 32.722 36, 34 35.652, 34 34.500 C 34 33.348, 32.722 33, 28.500 33 C 24.278 33, 23 33.348, 23 34.500 M 36.393 34.582 C 36.727 35.452, 37 38.377, 37 41.082 C 37 44.787, 37.370 46, 38.500 46 C 39.423 46, 40 45.062, 40 43.560 C 40 41.463, 40.526 41.077, 43.750 40.810 C 46.792 40.559, 47.562 40.065, 47.827 38.195 C 48.349 34.511, 46.297 33, 40.771 33 C 36.636 33, 35.890 33.270, 36.393 34.582 M 53.245 34.541 C 50.323 36.588, 50.194 41.961, 53.006 44.506 C 55.359 46.635, 56.982 45.675, 55.208 43.202 C 52.888 39.967, 52.764 38.918, 54.481 37.021 C 56.920 34.326, 56.048 32.578, 53.245 34.541 M 58 34.256 C 58 35.080, 58.675 36.315, 59.500 37 C 61.421 38.595, 61.395 39.906, 59.397 42.113 C 57.033 44.726, 58.036 46.364, 60.810 44.421 C 63.868 42.279, 63.546 36.418, 60.250 34.242 C 58.256 32.925, 58 32.927, 58 34.256 M 66 39.500 C 66 44.611, 66.321 46, 67.500 46 C 68.679 46, 69 44.611, 69 39.500 C 69 34.389, 68.679 33, 67.500 33 C 66.321 33, 66 34.389, 66 39.500 M 76.767 37.250 L 77.086 41.500 73.508 37.500 L 69.930 33.500 70.624 36.500 C 71.461 40.124, 75.735 46, 77.533 46 C 78.427 46, 78.933 43.983, 79.165 39.498 C 79.439 34.188, 79.220 32.996, 77.974 32.998 C 76.795 33, 76.520 33.967, 76.767 37.250 M 40 37.570 C 40 38.612, 40.729 39.032, 42.172 38.820 C 45.373 38.348, 45.716 36, 42.583 36 C 40.903 36, 40 36.549, 40 37.570 M 27 41.500 C 27 44.833, 27.389 46, 28.500 46 C 29.611 46, 30 44.833, 30 41.500 C 30 38.167, 29.611 37, 28.500 37 C 27.389 37, 27 38.167, 27 41.500 M 43 44.500 C 43.685 45.325, 45.145 46, 46.245 46 C 47.909 46, 48.036 45.748, 47 44.500 C 46.315 43.675, 44.855 43, 43.755 43 C 42.091 43, 41.964 43.252, 43 44.500 M 20.536 58.750 C 22.274 64.794, 23.204 66.567, 24.761 66.804 C 27.190 67.173, 28.446 63.305, 27.416 58.622 L 26.730 55.500 25.725 58 C 24.761 60.397, 24.661 60.305, 23.301 55.750 C 22.296 52.382, 21.363 51, 20.095 51 C 18.414 51, 18.441 51.469, 20.536 58.750 M 35.008 55.750 C 33.748 60.616, 33.437 60.525, 31.615 54.750 C 31.311 53.788, 30.218 53, 29.185 53 C 27.356 53, 27.355 53.137, 29.121 58.250 C 30.119 61.138, 30.949 64.287, 30.967 65.250 C 30.989 66.390, 31.787 67, 33.258 67 C 35.237 67, 35.778 66.011, 37.638 59 C 39.629 51.497, 39.651 51, 37.999 51 C 36.737 51, 35.889 52.346, 35.008 55.750 M 45.861 53.059 L 43.500 55.119 46.500 53.362 C 50.448 51.050, 50.507 51, 49.277 51 C 48.697 51, 47.159 51.927, 45.861 53.059 M 53.641 52.172 C 55.361 53.005, 55.741 53.994, 55.577 57.210 C 55.446 59.764, 54.762 61.554, 53.686 62.156 C 51.853 63.182, 51.348 67, 53.045 67 C 55.432 67, 59 62.039, 59 58.720 C 59 55.168, 55.649 50.940, 52.936 51.068 C 52.082 51.108, 52.368 51.555, 53.641 52.172 M 64.536 58.750 C 66.274 64.794, 67.204 66.567, 68.761 66.804 C 71.190 67.173, 72.446 63.305, 71.416 58.622 L 70.730 55.500 69.725 58 C 68.761 60.397, 68.661 60.305, 67.301 55.750 C 66.296 52.382, 65.363 51, 64.095 51 C 62.414 51, 62.441 51.469, 64.536 58.750 M 78.822 55.750 L 77.292 60.500 76.337 57 C 75.688 54.621, 74.717 53.403, 73.307 53.196 L 71.233 52.891 73.116 58.601 C 74.152 61.741, 75 64.916, 75 65.655 C 75 66.395, 76.016 67, 77.258 67 C 79.237 67, 79.778 66.011, 81.638 59 C 83.595 51.625, 83.628 51, 82.056 51 C 80.903 51, 79.856 52.539, 78.822 55.750 M 44 62.167 C 44 63.335, 47.791 67, 49 67 C 50.427 67, 50.239 63.433, 48.750 62.259 C 47.240 61.067, 44 61.004, 44 62.167 M 15 76 C 15 76.550, 15.450 77, 16 77 C 16.550 77, 17 76.550, 17 76 C 17 75.450, 16.550 75, 16 75 C 15.450 75, 15 75.450, 15 76 M 83 76 C 83 76.550, 83.450 77, 84 77 C 84.550 77, 85 76.550, 85 76 C 85 75.450, 84.550 75, 84 75 C 83.450 75, 83 75.450, 83 76 M 66.719 80.097 C 65.622 80.736, 58.629 81.012, 48.505 80.817 L 32.072 80.500 35.786 82.500 C 38.826 84.137, 41.405 84.500, 50 84.500 C 59.002 84.500, 61.106 84.176, 64.750 82.230 C 67.088 80.981, 69 79.743, 69 79.480 C 69 78.835, 68.791 78.891, 66.719 80.097 M 17.939 85.342 C 19.830 87.346, 22.189 89.243, 23.180 89.557 C 25.343 90.244, 27.272 89.249, 26.427 87.882 C 26.052 87.274, 25.192 87.389, 24.161 88.184 C 22.991 89.087, 23.063 88.806, 24.405 87.233 C 25.453 86.005, 26.803 85.036, 27.405 85.079 C 28.007 85.122, 27.919 85.391, 27.208 85.676 C 26.216 86.074, 26.187 86.520, 27.081 87.597 C 27.912 88.598, 27.939 89.369, 27.176 90.287 C 25.504 92.302, 33.759 95.632, 36.375 93.998 C 37.994 92.987, 38.195 93.049, 37.676 94.401 C 37.339 95.280, 37.386 96.057, 37.781 96.128 C 38.177 96.198, 39.400 96.419, 40.500 96.620 C 44.977 97.437, 53.490 97.795, 56.568 97.295 C 59.078 96.888, 59.703 96.381, 59.236 95.132 C 58.712 93.731, 58.858 93.689, 60.269 94.836 C 61.208 95.600, 62.466 95.830, 63.205 95.373 C 63.916 94.934, 65.398 94.558, 66.499 94.537 C 67.599 94.517, 68.425 94.050, 68.334 93.500 C 68.242 92.950, 69.152 92.441, 70.356 92.370 C 72.860 92.221, 80.574 87.265, 83.517 83.915 C 84.607 82.673, 84.888 82.016, 84.140 82.455 C 82.289 83.542, 74.986 83.832, 75.628 82.792 C 75.912 82.334, 73.299 83.509, 69.822 85.404 C 56.098 92.882, 41.001 92.492, 27.785 84.317 C 24.637 82.370, 24.170 82.285, 24.722 83.760 C 25.285 85.262, 25.151 85.319, 23.740 84.171 C 22.841 83.441, 21.070 82.977, 19.803 83.141 C 18.536 83.304, 16.825 83.047, 16 82.569 C 15.175 82.091, 16.048 83.339, 17.939 85.342 M 73 85.378 C 73 85.585, 73.787 86.373, 74.750 87.128 C 76.336 88.371, 76.371 88.336, 75.128 86.750 C 73.821 85.084, 73 84.555, 73 85.378 M 34.250 89.662 C 33.563 89.940, 33 90.634, 33 91.206 C 33 91.888, 33.462 91.862, 34.342 91.131 C 35.080 90.519, 36.052 90.351, 36.502 90.759 C 36.952 91.166, 36.997 90.938, 36.601 90.250 C 36.206 89.563, 35.796 89.036, 35.691 89.079 C 35.586 89.122, 34.938 89.385, 34.250 89.662 M 66.500 90 C 66.840 90.550, 67.316 91, 67.559 91 C 67.802 91, 68 90.550, 68 90 C 68 89.450, 67.523 89, 66.941 89 C 66.359 89, 66.160 89.450, 66.500 90 M 60.632 90.786 C 60.365 91.218, 60.981 91.571, 62 91.571 C 63.019 91.571, 63.635 91.218, 63.368 90.786 C 63.100 90.354, 62.485 90, 62 90 C 61.515 90, 60.900 90.354, 60.632 90.786 M 52 93.711 C 52 94.285, 52.788 95.373, 53.750 96.128 C 55.369 97.397, 55.390 97.350, 54.033 95.500 C 53.226 94.400, 52.439 93.313, 52.283 93.083 C 52.127 92.854, 52 93.137, 52 93.711" stroke="none" fill="black" fill-rule="evenodd"/>
</svg>