<?xml version="1.0" encoding="UTF-8"?>
<!DOCTYPE svg PUBLIC "-//W3C//DTD SVG 1.1//EN" "http://www.w3.org/Graphics/SVG/1.1/DTD/svg11.dtd">
<svg xmlns="http://www.w3.org/2000/svg" version="1.1" width="320px" height="320px" style="shape-rendering:geometricPrecision; text-rendering:geometricPrecision; image-rendering:optimizeQuality; fill-rule:evenodd; clip-rule:evenodd" xmlns:xlink="http://www.w3.org/1999/xlink">
<g><path style="opacity:1" fill="#fefefe" d="M -0.5,-0.5 C 106.167,-0.5 212.833,-0.5 319.5,-0.5C 319.5,106.167 319.5,212.833 319.5,319.5C 212.833,319.5 106.167,319.5 -0.5,319.5C -0.5,212.833 -0.5,106.167 -0.5,-0.5 Z"/></g>
<g><path style="opacity:1" fill="#2a2e35" d="M 209.5,151.5 C 208.703,158.857 207.703,166.19 206.5,173.5C 206.332,166.148 205.832,158.815 205,151.5C 204.333,150.833 203.667,150.167 203,149.5C 202.411,139.447 202.411,129.447 203,119.5C 200.757,114.761 197.923,110.428 194.5,106.5C 191.893,105.682 189.226,105.182 186.5,105C 174.624,95.5861 161.291,92.9195 146.5,97C 141.373,99.3973 136.373,102.064 131.5,105C 129.5,105.333 127.5,105.667 125.5,106C 120.975,110.194 117.641,115.194 115.5,121C 116.628,130.465 116.795,139.965 116,149.5C 115.333,150.167 114.667,150.833 114,151.5C 113.824,155.688 113.324,159.688 112.5,163.5C 112.854,159.363 112.354,155.363 111,151.5C 110.826,156.351 110.326,161.018 109.5,165.5C 109.5,160.5 109.5,155.5 109.5,150.5C 102.487,151.341 98.4871,148.341 97.5,141.5C 96.1779,141.67 95.0113,141.337 94,140.5C 91.4181,135.969 92.2514,132.302 96.5,129.5C 97.7946,125.039 100.628,122.039 105,120.5C 108.169,112.151 112.835,104.817 119,98.5C 119.389,92.7608 122.222,88.5941 127.5,86C 152.867,71.7109 176.7,73.8776 199,92.5C 199.333,94.5 199.667,96.5 200,98.5C 206.559,104.95 211.059,112.617 213.5,121.5C 218.4,121.898 221.233,124.565 222,129.5C 226.948,132.335 227.781,136.168 224.5,141C 223.552,141.483 222.552,141.649 221.5,141.5C 220.203,148.133 216.203,151.467 209.5,151.5 Z"/></g>
<g><path style="opacity:1" fill="#fcfcfc" d="M 206.5,173.5 C 206.263,174.791 206.596,175.791 207.5,176.5C 208.652,190.726 212.152,204.393 218,217.5C 221.246,229.055 217.079,235.388 205.5,236.5C 197.754,235.584 190.087,234.25 182.5,232.5C 176.684,233.734 171.018,235.567 165.5,238C 156.464,239.761 148.131,238.095 140.5,233C 138.667,232.833 136.833,232.667 135,232.5C 129.815,233.42 124.649,234.587 119.5,236C 104.667,238.5 98.5,232.333 101,217.5C 108.059,200.164 111.892,182.164 112.5,163.5C 113.324,159.688 113.824,155.688 114,151.5C 114.667,150.833 115.333,150.167 116,149.5C 116.795,139.965 116.628,130.465 115.5,121C 117.641,115.194 120.975,110.194 125.5,106C 127.5,105.667 129.5,105.333 131.5,105C 136.373,102.064 141.373,99.3973 146.5,97C 161.291,92.9195 174.624,95.5861 186.5,105C 189.226,105.182 191.893,105.682 194.5,106.5C 197.923,110.428 200.757,114.761 203,119.5C 202.411,129.447 202.411,139.447 203,149.5C 203.667,150.167 204.333,150.833 205,151.5C 205.832,158.815 206.332,166.148 206.5,173.5 Z"/></g>
<g><path style="opacity:1" fill="#dadbdf" d="M 197.5,102.5 C 200.298,103.706 202.465,105.706 204,108.5C 206.656,112.144 208.489,116.144 209.5,120.5C 208.325,120.719 207.325,120.386 206.5,119.5C 204.288,113.568 200.955,108.401 196.5,104C 197.056,103.617 197.389,103.117 197.5,102.5 Z"/></g>
<g><path style="opacity:1" fill="#d6d8dc" d="M 119.5,102.5 C 120.756,102.461 121.756,102.961 122.5,104C 118.045,108.401 114.712,113.568 112.5,119.5C 111.675,120.386 110.675,120.719 109.5,120.5C 111.558,113.78 114.891,107.78 119.5,102.5 Z"/></g>
<g><path style="opacity:1" fill="#2b2f37" d="M 174.5,119.5 C 189.883,119.373 195.716,126.706 192,141.5C 187.435,147.802 181.268,149.969 173.5,148C 166.629,143.731 163.795,137.564 165,129.5C 167.696,125.639 170.863,122.306 174.5,119.5 Z"/></g>
<g><path style="opacity:1" fill="#2a2e36" d="M 136.5,119.5 C 148.793,119.958 154.626,126.291 154,138.5C 148.705,148.723 140.872,151.223 130.5,146C 122.173,134.602 124.173,125.769 136.5,119.5 Z"/></g>
<g><path style="opacity:1" fill="#54545b" d="M 209.5,151.5 C 209.5,156.833 209.5,162.167 209.5,167.5C 208.656,170.345 207.99,173.345 207.5,176.5C 206.596,175.791 206.263,174.791 206.5,173.5C 207.703,166.19 208.703,158.857 209.5,151.5 Z"/></g>
<g><path style="opacity:1" fill="#26262a" d="M 112.5,163.5 C 111.892,182.164 108.059,200.164 101,217.5C 98.5,232.333 104.667,238.5 119.5,236C 124.649,234.587 129.815,233.42 135,232.5C 136.833,232.667 138.667,232.833 140.5,233C 148.131,238.095 156.464,239.761 165.5,238C 171.018,235.567 176.684,233.734 182.5,232.5C 190.087,234.25 197.754,235.584 205.5,236.5C 217.079,235.388 221.246,229.055 218,217.5C 212.152,204.393 208.652,190.726 207.5,176.5C 207.99,173.345 208.656,170.345 209.5,167.5C 211.149,184.757 214.982,201.423 221,217.5C 223.338,236.149 215.171,243.316 196.5,239C 193.363,238.399 190.363,237.399 187.5,236C 184.833,235.333 182.167,235.333 179.5,236C 170.153,241.84 160.153,243.507 149.5,241C 145.053,238.195 140.22,236.362 135,235.5C 98.8149,246.303 88.4816,234.303 104,199.5C 106.809,188.314 108.642,176.98 109.5,165.5C 110.326,161.018 110.826,156.351 111,151.5C 112.354,155.363 112.854,159.363 112.5,163.5 Z"/></g>
</svg>
