<svg xmlns="http://www.w3.org/2000/svg" width="320" height="320" viewBox="0 0 320 320" version="1.1">
	<path fill-opacity="0.216" d="M 146.411 78.484 C 140.209 79.833, 129.963 84.497, 124.714 88.360 C 121.615 90.640, 119 94.842, 119 97.541 C 119 98.444, 117.398 101.054, 115.439 103.341 C 113.480 105.628, 110.443 110.502, 108.689 114.171 C 106.498 118.755, 104.661 121.209, 102.820 122.014 C 101.346 122.658, 99.460 124.606, 98.628 126.342 C 97.797 128.079, 96.190 130.283, 95.058 131.240 C 92.102 133.740, 92.318 139.011, 95.500 142 C 96.875 143.292, 98 144.913, 98 145.602 C 98 147.527, 102.811 150.874, 106.601 151.585 L 110 152.223 110 159.733 C 110 173.805, 105.639 196.472, 100.040 211.500 C 95.290 224.250, 96.810 234.050, 104.229 238.511 C 108.795 241.257, 118.295 241.112, 128.608 238.140 L 136.716 235.803 144.108 239.136 C 150.620 242.073, 152.512 242.470, 160 242.470 C 167.493 242.470, 169.378 242.074, 175.912 239.128 L 183.323 235.786 190.412 237.835 C 205.732 242.264, 213.484 241.630, 218.859 235.507 C 224.179 229.448, 224.067 221.053, 218.483 207.309 C 214.807 198.261, 210.990 178.261, 210.311 164.495 L 209.719 152.490 214.412 151.235 C 217.989 150.278, 219.508 149.234, 220.802 146.843 C 221.736 145.118, 223.512 142.792, 224.750 141.673 C 227.706 139.001, 227.765 133.790, 224.869 131.092 C 223.697 130.001, 222.221 128.071, 221.590 126.805 C 220.959 125.540, 219.106 123.613, 217.471 122.525 C 215.732 121.366, 213.178 117.841, 211.311 114.023 C 209.557 110.435, 206.520 105.628, 204.561 103.341 C 202.602 101.054, 201 98.444, 201 97.541 C 201 94.842, 198.385 90.640, 195.286 88.360 C 182.110 78.664, 163.171 74.837, 146.411 78.484 M 152.500 96.597 C 147.291 97.879, 141.091 100.559, 137 103.298 C 134.525 104.955, 130.951 106.411, 129.058 106.533 C 125.349 106.774, 123.588 108.435, 119.321 115.715 C 116.924 119.805, 116.814 120.685, 116.946 134.626 C 117.054 145.964, 116.767 149.613, 115.669 150.874 C 114.688 152, 114.075 156.344, 113.675 165 C 113 179.599, 109.301 198.672, 105.088 209.279 C 99.839 222.491, 100.073 230.795, 105.801 234.655 C 109.431 237.102, 119.424 236.856, 128 234.108 C 136.530 231.376, 137.509 231.436, 145.612 235.199 C 155.538 239.808, 163.468 239.766, 174.765 235.047 C 182.500 231.816, 183.301 231.673, 187.265 232.815 C 208.745 239.006, 216.915 237.420, 218.515 226.748 C 219.075 223.012, 218.505 220.249, 215.136 210.377 C 209.939 195.149, 206.942 179.621, 206.283 164.500 C 205.920 156.182, 205.323 152.001, 204.337 150.874 C 203.232 149.611, 202.945 146.010, 203.052 134.758 C 203.201 119.150, 202.984 118.248, 197.247 110.627 C 194.970 107.601, 193.583 106.705, 190.916 106.532 C 189.037 106.410, 185.475 104.962, 183 103.315 C 180.525 101.667, 176.475 99.526, 174 98.557 C 169.582 96.827, 156.435 95.629, 152.500 96.597 M 118.500 105.735 C 115.243 110.087, 111.035 117.405, 111.017 118.750 C 110.986 121.056, 112.745 120.029, 113.995 117.013 C 114.675 115.370, 116.755 111.884, 118.616 109.266 C 120.477 106.648, 122 104.167, 122 103.753 C 122 102.248, 120.455 103.123, 118.500 105.735 M 198 103.753 C 198 104.167, 199.523 106.648, 201.384 109.266 C 203.245 111.884, 205.325 115.370, 206.005 117.013 C 207.255 120.029, 209.014 121.056, 208.983 118.750 C 208.963 117.285, 204.438 109.531, 201.356 105.679 C 199.225 103.016, 198 102.313, 198 103.753 M 134.500 120.943 C 131.097 122.331, 127.053 127.092, 125.841 131.137 C 123.442 139.142, 129.326 148.035, 137.988 149.498 C 146.379 150.916, 155.002 143.574, 154.998 135.016 C 154.994 124.607, 144.007 117.064, 134.500 120.943 M 172.241 121.995 C 162.107 128.173, 162.689 142.506, 173.290 147.843 C 177.049 149.734, 178.767 150.046, 182.219 149.463 C 188.042 148.479, 193.477 143.054, 194.459 137.245 C 196.474 125.314, 182.514 115.731, 172.241 121.995" stroke="none" fill="black" fill-rule="evenodd"/>
	<path fill-opacity="0.595" d="M 150.763 77.971 C 135.536 80.733, 120 89.683, 120 95.695 C 120 97.086, 118.477 99.961, 116.545 102.218 C 114.645 104.438, 111.302 109.684, 109.117 113.877 C 106.733 118.448, 104.223 121.900, 102.846 122.500 C 101.583 123.050, 99.863 124.798, 99.025 126.385 C 98.186 127.972, 96.487 130.314, 95.250 131.590 C 92.283 134.649, 92.381 138.522, 95.500 141.412 C 96.875 142.687, 98 144.262, 98 144.912 C 98 147.290, 103.233 151, 106.587 151 C 108.399 151, 110.106 151.362, 110.379 151.804 C 110.652 152.246, 110.455 158.434, 109.940 165.554 C 108.843 180.736, 105.249 198.966, 101.567 208.028 C 95.622 222.658, 96.600 233.346, 104.314 238.050 C 108.568 240.644, 118.292 240.623, 127.757 238 C 137.137 235.401, 137.562 235.430, 145.638 239.225 C 155.417 243.821, 164.583 243.821, 174.362 239.225 C 182.438 235.430, 182.863 235.401, 192.243 238 C 206.638 241.989, 216.804 240.147, 220.570 232.865 C 223.013 228.140, 222.039 216.449, 218.498 208 C 217 204.425, 214.709 196.479, 213.407 190.342 C 211.077 179.358, 208.510 153.601, 209.574 151.881 C 209.873 151.396, 211.605 151, 213.423 151 C 216.654 151, 222 147.091, 222 144.728 C 222 144.179, 223.125 142.687, 224.500 141.412 C 227.619 138.522, 227.717 134.649, 224.750 131.590 C 223.512 130.314, 221.825 128.007, 221 126.464 C 220.175 124.920, 218.252 122.946, 216.726 122.078 C 215.028 121.113, 212.853 118.171, 211.122 114.500 C 209.565 111.200, 206.426 106.151, 204.146 103.279 C 201.859 100.399, 200 96.971, 200 95.633 C 200 92.909, 195.569 88.569, 188.790 84.653 C 179.156 79.089, 161.605 76.005, 150.763 77.971 M 148.500 97.343 C 143.621 98.954, 138.308 101.653, 135.115 104.141 C 133.803 105.164, 131.294 106, 129.539 106 C 126.050 106, 124.037 107.759, 119.452 114.815 C 116.657 119.117, 116.649 119.180, 116.893 134.386 C 117.099 147.227, 116.890 149.847, 115.569 150.943 C 114.486 151.842, 113.997 153.988, 113.992 157.872 C 113.970 172.538, 109.545 197.192, 104.814 209 C 101.465 217.361, 100.260 226.085, 101.880 230.250 C 103.382 234.110, 108.562 236.992, 114.007 236.996 C 116.486 236.998, 122.546 235.891, 127.473 234.535 C 137.262 231.842, 138.944 231.961, 146.500 235.879 C 150.757 238.087, 152.763 238.467, 160 238.437 C 167.156 238.408, 169.370 237.977, 174 235.711 C 180.585 232.489, 184.663 232.345, 194.243 235 C 207.030 238.543, 215.552 236.848, 218.120 230.250 C 219.640 226.342, 218.500 217.548, 215.527 210.244 C 210.700 198.391, 206.062 173.329, 206.020 158.872 C 206.005 154.090, 205.563 151.882, 204.431 150.943 C 203.110 149.847, 202.901 147.227, 203.107 134.386 C 203.351 119.180, 203.343 119.117, 200.548 114.815 C 195.963 107.759, 193.950 106, 190.461 106 C 188.706 106, 186.108 105.086, 184.687 103.969 C 178.554 99.144, 170.874 96.607, 161.500 96.308 C 155.958 96.131, 150.963 96.529, 148.500 97.343 M 117.577 106.488 C 114.092 111.057, 109.540 119.874, 110.283 120.616 C 111.286 121.619, 112.976 119.992, 114.370 116.682 C 115.106 114.932, 117.315 111.403, 119.278 108.841 C 122.511 104.622, 122.975 103, 120.952 103 C 120.559 103, 119.040 104.569, 117.577 106.488 M 197.695 103.639 C 197.343 103.990, 198.193 105.629, 199.583 107.281 C 200.973 108.933, 203.202 112.439, 204.536 115.072 C 206.942 119.818, 208.648 121.686, 209.657 120.676 C 210.879 119.455, 201.003 103, 199.048 103 C 198.655 103, 198.046 103.287, 197.695 103.639 M 135.643 121.028 C 124.278 124.434, 122.454 142.046, 132.906 147.451 C 139.348 150.782, 148.660 148.501, 152.491 142.654 C 157.075 135.658, 154.253 125.753, 146.624 122.060 C 142.073 119.857, 140.153 119.676, 135.643 121.028 M 173.119 122.122 C 163.017 127.234, 162.563 141.104, 172.304 147.044 C 181.778 152.820, 193.983 146.042, 193.990 135 C 193.997 123.687, 183.197 117.023, 173.119 122.122" stroke="none" fill="black" fill-rule="evenodd"/>
	<path fill-opacity="0.432" d="M 143.500 79.870 C 131.373 83.360, 120 91.175, 120 96.016 C 120 97.040, 117.617 101.200, 114.705 105.259 C 111.792 109.318, 108.643 114.647, 107.706 117.100 C 106.452 120.384, 105.206 121.861, 102.984 122.700 C 101.032 123.437, 99.454 125.063, 98.520 127.298 C 97.725 129.201, 96.383 131.023, 95.537 131.347 C 93.238 132.230, 93.474 139.517, 95.857 141.193 C 96.878 141.912, 98.029 143.501, 98.416 144.724 C 99.413 147.879, 103.763 151, 107.166 151 C 108.948 151, 110.309 151.642, 110.703 152.668 C 111.678 155.210, 109.394 178.187, 106.992 190 C 105.817 195.775, 103.484 203.875, 101.807 208 C 97.889 217.635, 97.023 227.853, 99.688 233 C 103.146 239.679, 113.087 241.821, 125.032 238.462 C 135.569 235.499, 138.111 235.522, 144.573 238.638 C 149.815 241.165, 151.598 241.496, 160 241.496 C 168.402 241.496, 170.185 241.165, 175.427 238.638 C 181.889 235.522, 184.431 235.499, 194.968 238.462 C 206.917 241.823, 216.539 239.714, 220.173 232.938 C 223.079 227.520, 222.513 220.885, 218.042 207.951 C 213.149 193.796, 210.072 176.948, 209.747 162.534 L 209.500 151.567 213.247 150.942 C 217.408 150.247, 220.602 147.834, 221.618 144.618 C 221.986 143.453, 223.122 141.912, 224.143 141.193 C 226.526 139.517, 226.762 132.230, 224.463 131.347 C 223.617 131.023, 222.275 129.201, 221.480 127.298 C 220.546 125.063, 218.968 123.437, 217.016 122.700 C 214.794 121.861, 213.548 120.384, 212.294 117.100 C 211.357 114.647, 208.208 109.318, 205.295 105.259 C 202.383 101.200, 200 97.067, 200 96.074 C 200 91.196, 188.209 83.176, 176.101 79.818 C 167.550 77.447, 151.829 77.472, 143.500 79.870 M 153.500 96.026 C 147.687 96.927, 142.880 98.862, 136.118 103.022 C 133.457 104.660, 129.942 106, 128.309 106 C 125.957 106, 124.708 106.885, 122.307 110.250 C 116.225 118.777, 116 119.691, 116 135.867 C 116 144.478, 115.594 150.975, 115.045 151.167 C 114.519 151.350, 113.644 157.800, 113.099 165.500 C 111.951 181.712, 108.401 199.689, 104.509 209 C 102.783 213.130, 101.601 218.133, 101.267 222.720 C 100.742 229.926, 100.748 229.948, 104.270 233.470 C 107.508 236.708, 108.285 237, 113.670 237 C 116.899 237, 122.788 236.100, 126.757 235 C 136.379 232.334, 138.617 232.458, 146.375 236.088 C 151.748 238.602, 154.256 239.176, 159.868 239.176 C 165.387 239.176, 168.167 238.560, 173.799 236.088 C 182.086 232.451, 183.716 232.360, 193.243 235 C 197.212 236.100, 203.101 237, 206.330 237 C 211.672 237, 212.506 236.694, 215.600 233.600 C 218.650 230.550, 219 229.628, 219 224.650 C 219 220.846, 217.930 216.144, 215.600 209.706 C 211.047 197.129, 208.148 182.446, 206.873 165.503 C 206.236 157.048, 205.360 151.222, 204.660 150.789 C 203.877 150.305, 203.449 145.265, 203.342 135.286 C 203.255 127.154, 203.142 119.989, 203.092 119.364 C 203.041 118.739, 201.163 115.477, 198.917 112.114 C 195.328 106.739, 194.445 106, 191.613 106 C 189.712 106, 186.364 104.708, 183.446 102.848 C 174.185 96.947, 163.402 94.491, 153.500 96.026 M 118.147 105.486 C 115.027 109.039, 110 117.974, 110 119.967 C 110 122.224, 112.831 120.821, 114.008 117.982 C 114.695 116.322, 117.029 112.436, 119.193 109.346 C 123.806 102.761, 123.035 99.918, 118.147 105.486 M 197.655 102.749 C 197.276 103.362, 198.716 106.361, 200.854 109.414 C 202.993 112.466, 205.305 116.322, 205.992 117.982 C 207.169 120.821, 210 122.224, 210 119.967 C 210 115.940, 198.992 100.586, 197.655 102.749 M 132.190 123.026 C 126.262 126.640, 124.251 135.619, 127.995 141.759 C 132.052 148.415, 139.643 150.687, 146.674 147.351 C 155.475 143.174, 156.908 130.638, 149.343 123.996 C 146.483 121.485, 145.085 121.001, 140.715 121.004 C 137.250 121.006, 134.389 121.685, 132.190 123.026 M 170.391 124.280 C 162.883 131.161, 164.694 143.883, 173.718 147.655 C 183.140 151.594, 193.985 144.907, 193.996 135.151 C 194.006 126.666, 188.104 121.010, 179.235 121.004 C 174.677 121.001, 173.490 121.440, 170.391 124.280" stroke="none" fill="black" fill-rule="evenodd"/>
	<path fill-opacity="0.957" d="M 154.750 78.737 C 157.637 78.939, 162.363 78.939, 165.250 78.737 C 168.137 78.535, 165.775 78.370, 160 78.370 C 154.225 78.370, 151.863 78.535, 154.750 78.737 M 146.813 79.683 C 147.534 79.972, 148.397 79.936, 148.729 79.604 C 149.061 79.272, 148.471 79.036, 147.417 79.079 C 146.252 79.127, 146.015 79.364, 146.813 79.683 M 171.813 79.683 C 172.534 79.972, 173.397 79.936, 173.729 79.604 C 174.061 79.272, 173.471 79.036, 172.417 79.079 C 171.252 79.127, 171.015 79.364, 171.813 79.683 M 142.813 80.683 C 143.534 80.972, 144.397 80.936, 144.729 80.604 C 145.061 80.272, 144.471 80.036, 143.417 80.079 C 142.252 80.127, 142.015 80.364, 142.813 80.683 M 175.813 80.683 C 176.534 80.972, 177.397 80.936, 177.729 80.604 C 178.061 80.272, 177.471 80.036, 176.417 80.079 C 175.252 80.127, 175.015 80.364, 175.813 80.683 M 132.750 84.068 C 130.688 85.157, 129 86.271, 129 86.544 C 129 86.990, 136.899 83.298, 137.917 82.377 C 139.067 81.336, 136.064 82.319, 132.750 84.068 M 184.083 83.373 C 185.112 84.294, 191 86.999, 191 86.551 C 191 85.975, 185.456 83, 184.383 83 C 183.989 83, 183.854 83.168, 184.083 83.373 M 193.500 88.542 C 194.600 89.605, 196.353 91.380, 197.395 92.487 C 198.466 93.625, 199.094 93.885, 198.840 93.086 C 198.593 92.308, 196.840 90.533, 194.945 89.142 C 193.050 87.750, 192.400 87.480, 193.500 88.542 M 122.494 91.006 C 121.496 92.110, 120.864 93.190, 121.089 93.408 C 121.315 93.626, 122.309 92.723, 123.297 91.402 C 125.479 88.484, 124.994 88.245, 122.494 91.006 M 120.158 97 C 120.158 98.375, 120.385 98.938, 120.662 98.250 C 120.940 97.563, 120.940 96.438, 120.662 95.750 C 120.385 95.063, 120.158 95.625, 120.158 97 M 152.269 95.693 C 153.242 95.947, 154.592 95.930, 155.269 95.656 C 155.946 95.382, 155.150 95.175, 153.500 95.195 C 151.850 95.215, 151.296 95.439, 152.269 95.693 M 165.269 95.693 C 166.242 95.947, 167.592 95.930, 168.269 95.656 C 168.946 95.382, 168.150 95.175, 166.500 95.195 C 164.850 95.215, 164.296 95.439, 165.269 95.693 M 199.158 97 C 199.158 98.375, 199.385 98.938, 199.662 98.250 C 199.940 97.563, 199.940 96.438, 199.662 95.750 C 199.385 95.063, 199.158 95.625, 199.158 97 M 146 97 C 144.172 98.181, 145.751 98.181, 148.500 97 C 149.819 96.433, 149.989 96.122, 149 96.086 C 148.175 96.055, 146.825 96.467, 146 97 M 171.500 97 C 174.249 98.181, 175.828 98.181, 174 97 C 173.175 96.467, 171.825 96.055, 171 96.086 C 170.011 96.122, 170.181 96.433, 171.500 97 M 140.441 99.555 C 138.611 101.022, 138.643 101.042, 141 99.920 C 144.061 98.462, 144.628 98, 143.358 98 C 142.821 98, 141.509 98.700, 140.441 99.555 M 176.083 98.365 C 176.313 98.565, 177.625 99.265, 179 99.920 C 181.357 101.042, 181.389 101.022, 179.559 99.555 C 177.966 98.279, 174.711 97.164, 176.083 98.365 M 116.817 102.750 C 113.586 106.224, 110.091 111.675, 111.750 110.652 C 113.267 109.718, 113.328 110.429, 111.980 113.316 C 111.064 115.275, 111.090 115.308, 112.230 113.640 C 112.928 112.616, 114.847 109.916, 116.493 107.640 C 118.139 105.363, 119.540 102.713, 119.606 101.750 C 119.759 99.527, 119.841 99.498, 116.817 102.750 M 200.281 101.923 C 200.202 102.964, 201.120 104.644, 202.319 105.658 L 204.500 107.500 202.589 105.244 C 201.539 104.003, 200.931 102.736, 201.238 102.428 C 201.546 102.120, 202.968 103.403, 204.399 105.279 C 207.215 108.970, 207.842 110.944, 205.612 109.093 C 204.848 108.459, 205.629 110.621, 207.348 113.898 C 209.299 117.619, 210.753 119.413, 211.221 118.677 C 211.755 117.838, 211.974 117.906, 211.985 118.917 C 211.993 119.696, 212.266 120.067, 212.592 119.742 C 212.917 119.416, 212.706 118.329, 212.122 117.325 C 211.306 115.921, 211.044 115.846, 210.988 117 C 210.949 117.825, 210.054 116.925, 209 115 C 206.788 110.959, 206.521 109.586, 208.144 110.589 C 209.954 111.708, 205.787 105.170, 202.970 102.471 C 200.638 100.237, 200.411 100.191, 200.281 101.923 M 115.462 105.462 C 113.954 107.438, 112.913 109.246, 113.147 109.481 C 113.382 109.715, 114.839 108.322, 116.385 106.385 C 117.931 104.447, 118.972 102.639, 118.699 102.365 C 118.425 102.092, 116.969 103.485, 115.462 105.462 M 133.678 103.656 C 133.317 104.016, 131.330 104.639, 129.261 105.041 C 125.702 105.731, 125.664 105.776, 128.559 105.885 C 130.241 105.948, 132.491 105.339, 133.559 104.532 C 134.626 103.724, 135.238 103.049, 134.917 103.032 C 134.596 103.014, 134.038 103.295, 133.678 103.656 M 186.441 104.426 C 187.509 105.292, 189.759 105.948, 191.441 105.885 C 194.484 105.771, 194.481 105.766, 190.966 105.078 C 189.022 104.697, 186.772 104.040, 185.966 103.618 C 185.160 103.197, 185.374 103.560, 186.441 104.426 M 121.872 105.750 C 120.629 107.336, 120.664 107.371, 122.250 106.128 C 123.916 104.821, 124.445 104, 123.622 104 C 123.415 104, 122.627 104.787, 121.872 105.750 M 199.090 108.250 C 200.877 110.862, 202.504 113, 202.705 113 C 203.384 113, 201.116 109.519, 198.470 106.500 C 196.480 104.229, 196.630 104.655, 199.090 108.250 M 119.278 109.250 C 117.779 111.188, 116.836 113, 117.326 113 C 117.570 113, 118.507 111.875, 119.408 110.500 C 121.094 107.927, 121 107.024, 119.278 109.250 M 120.872 110.750 C 119.629 112.336, 119.664 112.371, 121.250 111.128 C 122.916 109.821, 123.445 109, 122.622 109 C 122.415 109, 121.627 109.787, 120.872 110.750 M 197 109.378 C 197 109.585, 197.787 110.373, 198.750 111.128 C 200.336 112.371, 200.371 112.336, 199.128 110.750 C 197.821 109.084, 197 108.555, 197 109.378 M 118 115 C 117.411 116.100, 117.155 117, 117.430 117 C 117.705 117, 118.411 116.100, 119 115 C 119.589 113.900, 119.845 113, 119.570 113 C 119.295 113, 118.589 113.900, 118 115 M 201 115 C 201.589 116.100, 202.295 117, 202.570 117 C 202.845 117, 202.589 116.100, 202 115 C 201.411 113.900, 200.705 113, 200.430 113 C 200.155 113, 200.411 113.900, 201 115 M 114.954 116.086 C 114.340 117.233, 114.026 118.360, 114.257 118.590 C 114.487 118.820, 115.189 117.882, 115.816 116.504 C 117.194 113.480, 116.523 113.154, 114.954 116.086 M 204.080 116 C 205.538 119.061, 206 119.628, 206 118.358 C 206 117.821, 205.300 116.509, 204.445 115.441 C 202.978 113.611, 202.958 113.643, 204.080 116 M 111.500 121 C 109.870 121.701, 109.812 121.872, 111.191 121.930 C 112.121 121.968, 113.160 121.550, 113.500 121 C 114.211 119.850, 114.176 119.850, 111.500 121 M 115.158 122 C 115.158 123.375, 115.385 123.938, 115.662 123.250 C 115.940 122.563, 115.940 121.438, 115.662 120.750 C 115.385 120.063, 115.158 120.625, 115.158 122 M 204.158 122 C 204.158 123.375, 204.385 123.938, 204.662 123.250 C 204.940 122.563, 204.940 121.438, 204.662 120.750 C 204.385 120.063, 204.158 120.625, 204.158 122 M 206.768 121.168 C 207.350 121.750, 208.415 122.028, 209.137 121.788 C 209.886 121.538, 209.432 121.085, 208.080 120.731 C 206.417 120.296, 206.026 120.426, 206.768 121.168 M 133.441 122.574 C 132.374 123.440, 132.098 123.842, 132.828 123.467 C 133.559 123.092, 135.359 122.422, 136.828 121.979 C 138.972 121.331, 139.093 121.155, 137.441 121.086 C 136.309 121.039, 134.509 121.708, 133.441 122.574 M 141.750 121.662 C 142.438 121.940, 143.563 121.940, 144.250 121.662 C 144.938 121.385, 144.375 121.158, 143 121.158 C 141.625 121.158, 141.063 121.385, 141.750 121.662 M 175.750 121.662 C 176.438 121.940, 177.563 121.940, 178.250 121.662 C 178.938 121.385, 178.375 121.158, 177 121.158 C 175.625 121.158, 175.063 121.385, 175.750 121.662 M 182.587 121.943 C 184.285 122.349, 186.310 123.011, 187.087 123.415 C 187.864 123.818, 187.626 123.440, 186.559 122.574 C 185.491 121.708, 183.466 121.046, 182.059 121.102 C 179.706 121.196, 179.749 121.264, 182.587 121.943 M 102.558 122.907 C 102.249 123.405, 102.898 123.578, 103.999 123.290 C 106.334 122.679, 106.629 122, 104.559 122 C 103.766 122, 102.866 122.408, 102.558 122.907 M 214 122.383 C 214 122.594, 214.901 123.002, 216.001 123.290 C 217.102 123.578, 217.751 123.405, 217.442 122.907 C 216.904 122.036, 214 121.594, 214 122.383 M 149.500 125 C 150.495 126.100, 151.535 127, 151.810 127 C 152.085 127, 151.495 126.100, 150.500 125 C 149.505 123.900, 148.465 123, 148.190 123 C 147.915 123, 148.505 123.900, 149.500 125 M 169.405 125.250 L 167.500 127.500 169.750 125.595 C 170.988 124.547, 172 123.535, 172 123.345 C 172 122.545, 171.195 123.136, 169.405 125.250 M 128.552 126.561 C 127.629 127.970, 127.015 129.501, 127.187 129.965 C 127.359 130.428, 128.278 129.276, 129.229 127.404 C 131.271 123.382, 130.921 122.946, 128.552 126.561 M 190 126 C 190.589 127.100, 191.295 128, 191.570 128 C 191.845 128, 191.589 127.100, 191 126 C 190.411 124.900, 189.705 124, 189.430 124 C 189.155 124, 189.411 124.900, 190 126 M 153.079 131.583 C 153.127 132.748, 153.364 132.985, 153.683 132.188 C 153.972 131.466, 153.936 130.603, 153.604 130.271 C 153.272 129.939, 153.036 130.529, 153.079 131.583 M 166.158 132 C 166.158 133.375, 166.385 133.938, 166.662 133.250 C 166.940 132.563, 166.940 131.438, 166.662 130.750 C 166.385 130.063, 166.158 130.625, 166.158 132 M 94.345 132.543 C 94.019 133.392, 94.034 134.367, 94.376 134.710 C 94.719 135.053, 95 134.621, 95 133.750 C 95 132.879, 95.563 131.940, 96.250 131.662 C 97.229 131.267, 97.222 131.141, 96.219 131.079 C 95.514 131.036, 94.671 131.694, 94.345 132.543 M 223.975 131.658 C 224.539 131.938, 225 133.913, 225 136.048 C 225 138.906, 224.473 140.212, 223 141 C 221.900 141.589, 221 142.750, 221 143.581 C 221 144.411, 219.895 146.195, 218.545 147.545 C 217.195 148.895, 216.488 150, 216.973 150 C 218.119 150, 222 145.064, 222 143.606 C 222 142.987, 222.925 141.903, 224.055 141.197 C 225.691 140.176, 226.048 139.070, 225.805 135.785 C 225.632 133.443, 224.948 131.546, 224.225 131.403 C 223.524 131.264, 223.411 131.379, 223.975 131.658 M 126.232 135 C 126.232 136.925, 126.438 137.713, 126.689 136.750 C 126.941 135.787, 126.941 134.213, 126.689 133.250 C 126.438 132.287, 126.232 133.075, 126.232 135 M 193.232 135 C 193.232 136.925, 193.438 137.713, 193.689 136.750 C 193.941 135.787, 193.941 134.213, 193.689 133.250 C 193.438 132.287, 193.232 133.075, 193.232 135 M 152.320 139.750 C 151.284 143.071, 151.313 143.278, 152.575 141.559 C 153.769 139.933, 154.596 136, 153.745 136 C 153.604 136, 152.963 137.688, 152.320 139.750 M 166.048 137.500 C 166.006 139.552, 169.465 146, 170.608 146 C 170.958 146, 170.688 145.329, 170.008 144.509 C 169.328 143.690, 168.167 141.327, 167.429 139.259 C 166.632 137.025, 166.071 136.311, 166.048 137.500 M 94.063 138.242 C 94.029 139.199, 94.900 140.545, 96 141.232 C 97.100 141.919, 98 142.987, 98 143.606 C 98 145.270, 101.960 150.005, 103.323 149.970 C 103.970 149.953, 103.670 149.457, 102.656 148.867 C 101.642 148.278, 100.174 146.267, 99.393 144.398 C 98.612 142.529, 97.515 141, 96.954 141 C 96.394 141, 95.529 139.988, 95.031 138.750 C 94.344 137.039, 94.112 136.917, 94.063 138.242 M 127.030 139.734 C 127.014 140.413, 128.238 142.235, 129.750 143.782 C 131.262 145.330, 131.774 145.675, 130.887 144.548 C 129.999 143.422, 128.775 141.600, 128.167 140.500 C 127.559 139.400, 127.047 139.055, 127.030 139.734 M 191.183 141.498 C 190.555 142.877, 188.569 144.902, 186.770 145.999 C 184.972 147.095, 184.002 147.994, 184.615 147.996 C 187.184 148.005, 194.067 140.734, 192.743 139.410 C 192.513 139.180, 191.811 140.119, 191.183 141.498 M 146 147 C 145.099 147.582, 144.975 147.975, 145.691 147.985 C 146.346 147.993, 147.160 147.550, 147.500 147 C 148.267 145.758, 147.921 145.758, 146 147 M 172.733 147.124 C 173.412 147.808, 174.219 148.115, 174.526 147.807 C 174.834 147.499, 174.279 146.940, 173.293 146.564 C 171.868 146.022, 171.753 146.136, 172.733 147.124 M 114.638 149.500 C 114.322 150.325, 114.499 151, 115.031 151 C 115.564 151, 116 150.325, 116 149.500 C 116 148.675, 115.823 148, 115.607 148 C 115.391 148, 114.955 148.675, 114.638 149.500 M 138.762 148.707 C 140.006 148.946, 141.806 148.937, 142.762 148.687 C 143.718 148.437, 142.700 148.241, 140.500 148.252 C 138.300 148.263, 137.518 148.468, 138.762 148.707 M 177.762 148.707 C 179.006 148.946, 180.806 148.937, 181.762 148.687 C 182.718 148.437, 181.700 148.241, 179.500 148.252 C 177.300 148.263, 176.518 148.468, 177.762 148.707 M 204 150 C 204 150.550, 204.477 151, 205.059 151 C 205.641 151, 205.840 150.550, 205.500 150 C 205.160 149.450, 204.684 149, 204.441 149 C 204.198 149, 204 149.450, 204 150 M 106.269 150.693 C 107.242 150.947, 108.592 150.930, 109.269 150.656 C 109.946 150.382, 109.150 150.175, 107.500 150.195 C 105.850 150.215, 105.296 150.439, 106.269 150.693 M 211.269 150.693 C 212.242 150.947, 213.592 150.930, 214.269 150.656 C 214.946 150.382, 214.150 150.175, 212.500 150.195 C 210.850 150.215, 210.296 150.439, 211.269 150.693 M 111.269 156.500 C 111.250 159.250, 111.563 164.425, 111.964 168 C 112.654 174.139, 112.697 174.222, 112.731 169.500 C 112.750 166.750, 112.437 161.575, 112.036 158 C 111.346 151.861, 111.303 151.778, 111.269 156.500 M 207.522 162.522 C 207.124 168.357, 207.024 173.357, 207.299 173.632 C 207.574 173.907, 208.124 169.357, 208.522 163.522 C 208.919 157.686, 209.020 152.687, 208.745 152.412 C 208.470 152.137, 207.919 156.686, 207.522 162.522 M 110.118 170.583 C 110.183 172.738, 110.597 175.850, 111.039 177.500 C 111.544 179.390, 111.636 178.096, 111.288 174 C 110.668 166.714, 109.937 164.578, 110.118 170.583 M 209.252 171.500 C 209.263 173.700, 209.468 174.482, 209.707 173.238 C 209.946 171.994, 209.937 170.194, 209.687 169.238 C 209.437 168.282, 209.241 169.300, 209.252 171.500 M 208.195 178.500 C 208.215 180.150, 208.439 180.704, 208.693 179.731 C 208.947 178.758, 208.930 177.408, 208.656 176.731 C 208.382 176.054, 208.175 176.850, 208.195 178.500 M 109.218 179 C 109.208 180.375, 109.560 182.625, 110 184 C 110.627 185.959, 110.797 186.067, 110.782 184.500 C 110.772 183.400, 110.420 181.150, 110 179.500 C 109.314 176.805, 109.235 176.754, 109.218 179 M 209.600 181.100 C 209.234 183.392, 209.129 185.462, 209.368 185.701 C 209.606 185.940, 210.116 184.274, 210.500 182 C 210.884 179.726, 210.989 177.655, 210.732 177.399 C 210.476 177.143, 209.966 178.808, 209.600 181.100 M 108.199 184.500 C 108.199 185.600, 108.560 187.625, 109 189 C 109.634 190.980, 109.801 191.084, 109.801 189.500 C 109.801 188.400, 109.440 186.375, 109 185 C 108.366 183.020, 108.199 182.916, 108.199 184.500 M 210.556 186.556 C 210.179 188.562, 210.071 190.404, 210.315 190.649 C 210.560 190.893, 211.068 189.451, 211.444 187.444 C 211.821 185.438, 211.929 183.596, 211.685 183.351 C 211.440 183.107, 210.932 184.549, 210.556 186.556 M 107.199 189.500 C 107.199 190.600, 107.560 192.625, 108 194 C 108.634 195.980, 108.801 196.084, 108.801 194.500 C 108.801 193.400, 108.440 191.375, 108 190 C 107.366 188.020, 107.199 187.916, 107.199 189.500 M 211.556 191.556 C 211.179 193.562, 211.071 195.404, 211.315 195.649 C 211.560 195.893, 212.068 194.451, 212.444 192.444 C 212.821 190.438, 212.929 188.596, 212.685 188.351 C 212.440 188.107, 211.932 189.549, 211.556 191.556 M 106.170 194.500 C 106.154 195.600, 106.527 197.400, 107 198.500 C 108.095 201.048, 108.095 198.419, 107 195 C 106.356 192.990, 106.194 192.892, 106.170 194.500 M 213.158 195 C 213.158 196.375, 213.385 196.938, 213.662 196.250 C 213.940 195.563, 213.940 194.438, 213.662 193.750 C 213.385 193.063, 213.158 193.625, 213.158 195 M 213.654 200.243 C 213.242 201.884, 213.554 204.241, 214.446 206.225 L 215.917 209.500 215.378 206.500 C 214.964 204.197, 215.086 203.849, 215.904 205 C 217.289 206.950, 217.165 205.379, 215.591 201.018 L 214.333 197.535 213.654 200.243 M 104.063 201.668 C 104.029 202.311, 103.733 203.661, 103.406 204.668 C 102.911 206.192, 102.993 206.248, 103.890 205 C 104.783 203.759, 104.972 203.745, 104.985 204.917 C 104.993 205.696, 105.235 206.099, 105.521 205.812 C 105.808 205.525, 105.612 204.213, 105.085 202.895 C 104.558 201.578, 104.098 201.026, 104.063 201.668 M 214.079 202.583 C 214.127 203.748, 214.364 203.985, 214.683 203.188 C 214.972 202.466, 214.936 201.603, 214.604 201.271 C 214.272 200.939, 214.036 201.529, 214.079 202.583 M 101.639 208.498 C 100.701 210.943, 100.888 211.721, 102 210 C 102.862 208.667, 102.974 208.667, 103.015 210 C 103.050 211.145, 103.312 211.068, 104.122 209.675 C 104.706 208.671, 104.917 207.584, 104.592 207.258 C 104.266 206.933, 103.993 207.304, 103.985 208.083 C 103.972 209.241, 103.815 209.256, 103.124 208.166 C 102.449 207.102, 102.149 207.169, 101.639 208.498 M 217.031 207.500 C 217.031 208.050, 217.467 209.175, 218 210 C 218.533 210.825, 218.969 211.050, 218.969 210.500 C 218.969 209.950, 218.533 208.825, 218 208 C 217.467 207.175, 217.031 206.950, 217.031 207.500 M 99.656 218.500 C 99.991 220.700, 100.431 222.688, 100.633 222.917 C 101.390 223.776, 100.823 218.420, 99.953 216.500 C 99.322 215.106, 99.232 215.712, 99.656 218.500 M 219.641 217.210 C 219.303 218.470, 219.066 220.400, 219.114 221.500 C 219.162 222.600, 219.613 221.745, 220.116 219.599 C 221.091 215.444, 220.674 213.351, 219.641 217.210 M 98.300 224 C 98.300 227.025, 98.487 228.262, 98.716 226.750 C 98.945 225.238, 98.945 222.762, 98.716 221.250 C 98.487 219.738, 98.300 220.975, 98.300 224 M 221.300 224 C 221.300 227.025, 221.487 228.262, 221.716 226.750 C 221.945 225.238, 221.945 222.762, 221.716 221.250 C 221.487 219.738, 221.300 220.975, 221.300 224 M 100.086 227.168 C 100.039 228.086, 99.849 229.436, 99.664 230.168 C 99.479 230.901, 99.524 231.139, 99.765 230.697 C 100.005 230.255, 100.865 230.705, 101.675 231.697 C 102.485 232.689, 102.842 232.902, 102.467 232.172 C 102.092 231.441, 101.422 229.641, 100.979 228.172 C 100.535 226.702, 100.133 226.251, 100.086 227.168 M 218.320 229.750 C 217.284 233.071, 217.313 233.278, 218.575 231.559 C 219.489 230.314, 220 230.105, 220 230.976 C 220 231.722, 220.210 232.123, 220.467 231.866 C 220.724 231.610, 220.609 230.184, 220.212 228.699 C 219.490 226.002, 219.488 226.003, 218.320 229.750 M 130.500 233.929 C 128.761 234.614, 128.933 234.813, 131.822 235.454 C 133.648 235.859, 135.411 235.922, 135.738 235.595 C 136.066 235.268, 135.246 234.932, 133.917 234.850 C 132.588 234.767, 133.525 234.385, 136 234 L 140.500 233.300 136.500 233.220 C 134.300 233.177, 131.600 233.495, 130.500 233.929 M 184 234 C 186.475 234.385, 187.637 234.767, 186.583 234.850 C 185.529 234.932, 184.914 235.247, 185.215 235.549 C 185.517 235.850, 187.038 235.778, 188.596 235.387 C 191.130 234.751, 191.221 234.595, 189.464 233.908 C 188.384 233.486, 185.700 233.177, 183.500 233.220 L 179.500 233.300 184 234 M 217 235.679 C 214.783 238.025, 214.741 238.196, 216.632 237.190 C 217.805 236.566, 219.029 235.368, 219.351 234.528 C 220.135 232.485, 219.920 232.590, 217 235.679 M 141.863 234.894 C 142.971 235.596, 142.980 235.840, 141.914 236.195 C 140.986 236.505, 141.114 236.830, 142.352 237.305 C 143.400 237.707, 143.858 237.580, 143.493 236.989 C 142.717 235.733, 144.049 235.739, 146 237 C 147.333 237.862, 147.333 237.976, 146 238.025 C 145.169 238.055, 145.725 238.745, 147.246 239.570 C 149.292 240.680, 150.820 240.820, 153.246 240.120 C 155.327 239.519, 155.779 239.144, 154.500 239.080 C 153.400 239.025, 150.093 237.860, 147.151 236.490 C 141.844 234.020, 139.244 233.235, 141.863 234.894 M 172.500 236.566 C 169.750 237.891, 166.600 239.021, 165.500 239.077 C 164.216 239.143, 164.666 239.517, 166.754 240.120 C 169.180 240.820, 170.708 240.680, 172.754 239.570 C 174.275 238.745, 174.831 238.055, 174 238.025 C 172.667 237.976, 172.667 237.862, 174 237 C 175.951 235.739, 177.283 235.733, 176.507 236.989 C 176.150 237.566, 176.576 237.716, 177.532 237.349 C 178.709 236.898, 178.832 236.514, 177.971 235.982 C 177.072 235.426, 177.113 235.107, 178.137 234.700 C 178.887 234.402, 179.050 234.158, 178.500 234.158 C 177.950 234.158, 175.250 235.241, 172.500 236.566 M 101 235.430 C 101 235.705, 101.900 236.411, 103 237 C 104.100 237.589, 105 237.845, 105 237.570 C 105 237.295, 104.100 236.589, 103 236 C 101.900 235.411, 101 235.155, 101 235.430 M 106.303 236.344 C 107.295 237.144, 107.644 237.956, 107.078 238.149 C 106.513 238.342, 110.371 238.507, 115.651 238.516 C 120.931 238.524, 124.182 238.232, 122.876 237.865 C 121.569 237.499, 117.883 237.155, 114.684 237.100 C 111.486 237.045, 107.886 236.525, 106.684 235.945 C 104.664 234.969, 104.635 234.999, 106.303 236.344 M 137.813 235.683 C 138.534 235.972, 139.397 235.936, 139.729 235.604 C 140.061 235.272, 139.471 235.036, 138.417 235.079 C 137.252 235.127, 137.015 235.364, 137.813 235.683 M 180.813 235.683 C 181.534 235.972, 182.397 235.936, 182.729 235.604 C 183.061 235.272, 182.471 235.036, 181.417 235.079 C 180.252 235.127, 180.015 235.364, 180.813 235.683 M 213 236 C 212.175 236.533, 208.800 237.021, 205.500 237.084 C 195.226 237.281, 194.220 238.532, 204.349 238.516 C 209.629 238.507, 213.487 238.342, 212.922 238.149 C 212.356 237.956, 212.705 237.183, 213.697 236.431 C 215.763 234.864, 215.249 234.547, 213 236 M 122.813 236.683 C 123.534 236.972, 124.397 236.936, 124.729 236.604 C 125.061 236.272, 124.471 236.036, 123.417 236.079 C 122.252 236.127, 122.015 236.364, 122.813 236.683 M 195.813 236.683 C 196.534 236.972, 197.397 236.936, 197.729 236.604 C 198.061 236.272, 197.471 236.036, 196.417 236.079 C 195.252 236.127, 195.015 236.364, 195.813 236.683 M 148 239 C 148.825 239.533, 150.175 239.945, 151 239.914 C 151.989 239.878, 151.819 239.567, 150.500 239 C 147.751 237.819, 146.172 237.819, 148 239 M 169.500 239 C 168.181 239.567, 168.011 239.878, 169 239.914 C 169.825 239.945, 171.175 239.533, 172 239 C 173.828 237.819, 172.249 237.819, 169.500 239 M 111.768 239.725 C 113.565 239.947, 116.265 239.943, 117.768 239.715 C 119.271 239.486, 117.800 239.304, 114.500 239.310 C 111.200 239.315, 109.971 239.502, 111.768 239.725 M 202.768 239.725 C 204.565 239.947, 207.265 239.943, 208.768 239.715 C 210.271 239.486, 208.800 239.304, 205.500 239.310 C 202.200 239.315, 200.971 239.502, 202.768 239.725 M 156.250 241.728 C 158.313 241.944, 161.688 241.944, 163.750 241.728 C 165.813 241.513, 164.125 241.336, 160 241.336 C 155.875 241.336, 154.188 241.513, 156.250 241.728" stroke="none" fill="black" fill-rule="evenodd"/>
</svg>