<?xml version="1.0"?><svg xmlns="http://www.w3.org/2000/svg" width="36" height="36" shape-rendering="geometricPrecision" text-rendering="geometricPrecision" image-rendering="optimizeQuality" fill-rule="evenodd" clip-rule="evenodd" viewBox="0 0 36 36"><path fill="#ebecee" d="m-0.1 3.8h36v28.3h-36v-28.3z"></path><path fill="#e1f3e5" d="m11.3 14.3h-4c0.5-0.1 1.1-0.2 1.8-0.2l1.8 0.1c0.1 0 0.3 0.1 0.4 0.1z"></path><path fill="#bde1c2" d="m7.1 14.5c0-0.1 0.1-0.2 0.2-0.2h4c0.2 0.2 0.4 0.3 0.6 0.5-0.3 0-0.6-0.1-0.8-0.2h-0.4c-1.1-0.1-2.3-0.2-3.6-0.1z"></path><path fill="#6cc442" d="m9.7 14.8c0.2 0.5 0.1 0.9-0.2 1.3 0.1 0 0.2 0.1 0.2 0.3-0.2-0.1-0.4 0-0.5 0.1-0.4 0-0.7 0.1-1 0.3-0.3 0.2-0.6 0.5-0.7 0.8 0-0.8 0-1.6 0-2.4 0.1-0.1 0.2-0.1 0.3 0 0-0.1 0.1-0.2 0.1-0.3 0.6-0.1 1.2-0.1 1.8-0.1z"></path><path fill="#595a5c" d="m17.2 15.5v-0.6c-0.3 0-0.5-0.1-0.7-0.2-0.3 0.1-0.4 0.4-0.4 0.7-0.1-0.3-0.1-0.5 0.2-0.8 0.3 0 0.6 0 1 0.1 0 0.3 0 0.5-0.1 0.8z"></path><path fill="#93c37a" d="m7.1 14.5c1.3-0.1 2.5 0 3.6 0.1h-3.4v1.8h-0.2v-1.9z"></path><path fill="#35955c" d="m11.1 14.6c0.2 0.1 0.5 0.2 0.8 0.2v0.1l0.1 0.2c-0.2 0.1-0.3 0-0.5-0.1-0.2-0.1-0.3-0.2-0.4-0.4z"></path><path fill="#9dd4ac" d="m11.9 14.9h0.2l0.1 0.2h-0.2l-0.1-0.2z"></path><path fill="#3c4341" d="m15.4 14.9v3.6c-0.1 0.1-0.2 0.3-0.2 0.5-0.2-0.3-0.4-0.4-0.6-0.3 0-1.3 0-2.5 0-3.8 0.2 0.2 0.5 0.2 0.8 0z"></path><path fill="#494a4c" d="m17.2 15.5c-0.2 0.3-0.5 0.4-0.8 0.3-0.2-0.1-0.3-0.3-0.3-0.4 0-0.3 0.1-0.6 0.4-0.7 0.2 0.1 0.4 0.2 0.7 0.2v0.6z"></path><path fill="#a2d691" d="m12.2 15.1c0.2 0.1 0.3 0.3 0.3 0.5-0.2-0.1-0.3-0.3-0.3-0.5z"></path><path fill="#def2dc" d="m12.1 14.9c0.2 0.2 0.5 0.3 0.8 0.3v0.7h-0.1c0-0.2-0.1-0.3-0.3-0.3 0-0.2-0.1-0.4-0.3-0.5l-0.1-0.2z"></path><path fill="#77bf4a" d="m9.6 14.6l0.1 0.2c-0.6 0-1.2 0-1.8 0 0 0.2-0.1 0.3-0.1 0.4-0.1-0.1-0.2-0.1-0.3 0 0 0.8 0 1.6 0 2.4 0 0.1 0 0.2-0.1 0.2-0.1-0.4-0.2-0.9-0.1-1.4v-1.8h2.3z"></path><path fill="#189244" d="m11 14.6h0.1c0.1 0.2 0.2 0.3 0.4 0.4 0.2 0.1 0.3 0.2 0.5 0.1h0.1c0.3 1.1 0.1 2.1-0.6 3 0.1-0.3 0-0.6-0.1-0.8 0-0.2-0.1-0.4-0.3-0.5-0.2-0.2-0.4-0.3-0.7-0.3v-0.1c0.3 0 0.6 0 0.9-0.2-0.1-0.1-0.1-0.1 0-0.2l-0.2-0.1c0.1-0.1 0.2-0.2 0.2-0.3-0.1-0.4-0.2-0.8-0.3-1z"></path><path fill="#2ba044" d="m10.6 14.6h0.4c0.1 0.2 0.2 0.6 0.3 1 0 0.1-0.1 0.2-0.2 0.3l0.2 0.1c-0.1 0.1-0.1 0.1 0 0.2-0.3 0.2-0.6 0.2-0.9 0.2h-0.4c0.1-0.2 0.2-0.3 0.5-0.4 0.1-0.5 0.2-0.9 0.1-1.4z"></path><path fill="#9cca87" d="m12.5 15.6c0.2 0 0.3 0.1 0.3 0.3l-0.3-0.1v-0.2z"></path><path fill="#48af43" d="m9.6 14.6h1c0.1 0.5 0 0.9-0.1 1.4-0.3 0.1-0.4 0.2-0.5 0.4h-0.3c0-0.2-0.1-0.3-0.2-0.3 0.3-0.4 0.4-0.8 0.2-1.3l-0.1-0.2z"></path><path fill="#aeb0b3" d="m19.6 16.3c0.3-0.2 0.7-0.2 1-0.1 0.1 0 0.1 0.1 0.2 0.2-0.4-0.1-0.8-0.2-1.2-0.1z"></path><path fill="#adafb2" d="m23 16.3c-0.4-0.1-0.8 0-1.1 0.1 0-0.1 0-0.2 0.1-0.2 0.4-0.1 0.7-0.1 1 0.1z"></path><path fill="#7db982" d="m9.7 16.4h0.7v0.1c-0.4-0.1-0.8 0-1.1 0.1v1.3c-0.1-0.3-0.2-0.8-0.1-1.2v-0.2c0.1-0.1 0.3-0.2 0.5-0.1z"></path><path fill="#b8e3b9" d="m9.3 16.6c0.3-0.1 0.7-0.2 1.1-0.1 0.3 0 0.5 0.1 0.7 0.3l-0.7-0.1c-0.3-0.1-0.7-0.1-1.1-0.1z"></path><path fill="#8b8f92" d="m16.1 16.4v3.9h1.1v-3.9c0.1 1.3 0.1 2.6 0.1 4h-1.3c0-1.4 0-2.7 0.1-4z"></path><path fill="#404447" d="m16.1 16.4h1.1v3.9h-1.1v-3.9z"></path><path fill="#5fbf4a" d="m12.1 15.1h0.1c0 0.2 0.1 0.4 0.3 0.5v0.4c0 0.7-0.2 1.3-0.6 1.8-0.1 0.2-0.2 0.3-0.4 0.4v-0.1c0.7-0.9 0.9-1.9 0.6-3z"></path><path fill="#d2d5d8" d="m19.6 16.3c0 0 0 0.1-0.1 0.1-0.1-0.1-0.2 0-0.2 0.1-0.1 0-0.2-0.1-0.3-0.1h-1.1c-0.1 1.3-0.1 2.6-0.1 3.9-0.1-1.3-0.1-2.7 0-4 0.6-0.2 1.2-0.2 1.8 0z"></path><path fill="#4f5256" d="m17.9 16.4h1.1c0 0.2 0.1 0.2 0.3 0.1 0-0.1 0.1-0.2 0.2-0.1-0.1 0.2-0.2 0.4-0.5 0.5-0.2-0.4-0.5-0.5-0.9-0.4 0 1.2 0 2.4-0.2 3.6v-3.7z"></path><path fill="#929396" d="m19 16.4c0.1 0 0.2 0.1 0.3 0.1-0.2 0.1-0.3 0.1-0.3-0.1z"></path><path fill="#d6eed3" d="m7.1 14.6v1.8c0 0.6 0 1.2 0.1 1.8 0 0.3 0.2 0.5 0.4 0.6l0.3 0.7c-0.5-0.3-0.8-0.8-0.9-1.3l-0.1-1.8c0-0.7 0.1-1.3 0.2-1.8z"></path><path fill="#068543" d="m9.2 16.5v0.2c-0.1 0.4-0.2 0.7-0.2 1.1 0-0.4-0.1-0.5-0.3-0.1 0.2 0.1 0.2 0.3 0.2 0.5-0.1-0.2-0.3-0.3-0.5-0.3l0.1-0.6c-0.2-0.1-0.3 0-0.4 0.1-0.2 0.3-0.4 0.7-0.6 1v-0.1c0.2-0.5 0.4-1 0.7-1.5 0.3-0.2 0.6-0.3 1-0.3z"></path><path fill="#eaebef" d="m10.4 16.7l0.7 0.1c0 0.1 0 0.3 0.1 0.4l-0.1 1.1c-0.1 0.1-0.2 0.2-0.4 0.2-0.3 0-0.6 0-0.9 0 0-0.1-0.1-0.1-0.1-0.2-0.2-0.5-0.2-1-0.1-1.5 0.2-0.1 0.5-0.1 0.8-0.1z"></path><path fill="#424548" d="m19.6 16.3c0.4-0.1 0.8 0 1.2 0.1h0.1c0.1 0.2 0.2 0.3 0.4 0.4 0.1 0 0.2-0.1 0.2-0.2 0.2 0 0.3-0.1 0.4-0.2 0.3-0.1 0.7-0.2 1.1-0.1 0.3 0.1 0.6 0.2 0.8 0.5 0.2 1.2 0.3 2.3 0.2 3.5h-1c0-1 0-1.9-0.1-2.8l-0.3-0.2c-0.2-0.2-0.5-0.2-0.7-0.1-0.2 0.1-0.2 0.2-0.2 0.4-0.1 0-0.2 0.1-0.2 0.2-0.1 0.8-0.1 1.7-0.1 2.5h-0.9c0.1-1 0-1.9-0.1-2.8l-0.2-0.1c-0.5-0.4-0.8-0.3-1.1 0.2-0.1 0.9-0.2 1.8-0.1 2.7-0.4 0.1-0.8 0-1.1-0.2 0.2-1.2 0.2-2.4 0.2-3.6 0.4-0.1 0.7 0 0.9 0.4 0.3-0.1 0.4-0.3 0.5-0.5 0.1 0 0.1-0.1 0.1-0.1z"></path><path fill="#7f8386" d="m21.9 16.4c-0.1 0.1-0.2 0.2-0.4 0.2 0.1-0.2 0.2-0.2 0.4-0.2z"></path><path fill="#b2b3b6" d="m20.9 16.4c0.2 0.1 0.4 0.2 0.6 0.2 0 0.1-0.1 0.2-0.2 0.2-0.2-0.1-0.3-0.2-0.4-0.4z"></path><path fill="#9a9b9d" d="m14.3 14.5c0.4-0.1 0.7 0 1.1 0.1h-1.1v5.8c-0.1-2-0.1-4 0-5.9z"></path><path fill="#cecfd1" d="m14.3 14.5c0.4-0.2 0.8-0.2 1.2 0 0.1 1.9 0.1 3.9 0 5.8 0-1.9 0-3.8-0.1-5.7-0.4-0.1-0.7-0.2-1.1-0.1z"></path><path fill="#cceddb" d="m9.3 16.6c0.4 0 0.8 0 1.1 0.1-0.3 0-0.6 0-0.8 0.1-0.1 0.5-0.1 1 0.1 1.5h-0.2c0-0.2-0.1-0.3-0.2-0.4v-1.3z"></path><path fill="#898b8b" d="m15.4 14.6c0.1 1.9 0.1 3.8 0.1 5.7-0.4 0.1-0.8 0.2-1.2 0.1v-0.1h1.1v-5.7z"></path><path fill="#909497" d="m22.6 17.3c-0.4-0.1-0.7 0-0.9 0.3 0-0.2 0-0.3 0.2-0.4 0.2-0.1 0.5-0.1 0.7 0.1z"></path><path fill="#97cb8c" d="m7.1 16.4h0.2c-0.1 0.5 0 1 0.1 1.4-0.1 0.2 0 0.4 0.1 0.5v0.1l0.1 0.4c-0.2-0.1-0.4-0.3-0.4-0.6-0.1-0.6-0.1-1.2-0.1-1.8z"></path><path fill="#11854a" d="m9.2 16.7c-0.1 0.4 0 0.9 0.1 1.2 0.1 0.1 0.2 0.2 0.2 0.4 0.3 0.3 0.6 0.5 1 0.4 0 0.1-0.1 0.2-0.2 0.1-0.2 0.1-0.4 0-0.6-0.1-0.2 0.1-0.3 0.2-0.3 0.4 0.1 0.3 0.1 0.6 0.2 1 0 0.1 0.1 0.2 0.2 0.2h1.4c-0.7 0.2-1.4 0.2-2 0-0.2-0.2-0.4-0.3-0.6-0.3-0.1-0.3-0.3-0.4-0.6-0.5h-0.1l-0.3-0.7-0.1-0.4c0.2-0.3 0.4-0.7 0.6-1 0.1-0.1 0.2-0.2 0.4-0.1l-0.1 0.6c0.2 0 0.4 0.1 0.5 0.3 0-0.2 0-0.4-0.2-0.5 0.2-0.4 0.3-0.3 0.3 0.1 0-0.4 0.1-0.7 0.2-1.1z"></path><path fill="#d4ecca" d="m12.9 15.9c0.1 0.1 0.3 0.2 0.4 0.4 0.1 0.7 0.1 1.4 0 2.1-0.1 0.3-0.3 0.6-0.4 0.9h-0.1v-0.2c0-0.3 0.2-0.6 0.4-0.8 0.1-0.8 0-1.6-0.3-2.4z"></path><path fill="#a3dcbe" d="m11.1 16.8c0.2 0.1 0.3 0.3 0.3 0.5 0.1 0.2 0 0.4-0.1 0.5 0-0.2 0-0.4-0.1-0.6-0.1-0.1-0.1-0.3-0.1-0.4z"></path><path fill="#d7f1e0" d="m11.2 17.2c0.1 0.2 0.1 0.4 0.1 0.6v0.4l-0.2 0.1 0.1-1.1z"></path><path fill="#b6babd" d="m20.2 17.4c-0.4-0.1-0.8 0-1.1 0.3v-0.1c0.3-0.5 0.6-0.6 1.1-0.2z"></path><path fill="#a9aaae" d="m24.7 17.3c0 0.2-0.1 0.4-0.2 0.5-0.1-0.2 0-0.4 0.2-0.5z"></path><path fill="#34a146" d="m8.2 16.8c-0.3 0.5-0.5 1-0.7 1.5-0.1-0.1-0.2-0.3-0.1-0.5 0.1 0 0.1-0.1 0.1-0.2 0.1-0.3 0.4-0.6 0.7-0.8z"></path><path fill="#63b66f" d="m11.4 17.3c0.1 0.2 0.2 0.5 0.1 0.8v0.1h-0.2v-0.4c0.1-0.1 0.2-0.3 0.1-0.5z"></path><path fill="#d0d4d7" d="m20.2 17.4l0.2 0.1v2.9c-0.1-1-0.1-2-0.2-3z"></path><path fill="#7c8184" d="m20.4 17.5c0.1 0.9 0.2 1.8 0.1 2.8h0.9c0-0.8 0-1.7 0.1-2.5v2.6h-1.1v-2.9z"></path><path fill="#88c569" d="m12.5 15.8l0.3 0.1h0.1c0.3 0.8 0.4 1.6 0.3 2.4-0.2 0.2-0.4 0.5-0.4 0.8l-0.5 0.3c0.3-0.6 0.5-1.2 0.7-1.8 0-0.4-0.1-0.8-0.2-1.2 0-0.2-0.1-0.3-0.3-0.4v-0.2z"></path><path fill="#82c681" d="m11.3 18.2c-0.1 0.3-0.3 0.5-0.6 0.5h-0.1l0.1-0.2c0.2 0 0.3-0.1 0.4-0.2l0.2-0.1z"></path><path fill="#a8ddbe" d="m9.5 18.3h0.2c0 0.1 0.1 0.1 0.1 0.1 0.3 0.1 0.6 0.1 0.9 0.1l-0.1 0.2h-0.1c-0.4 0.1-0.7-0.1-1-0.4z"></path><path fill="#a3a6a8" d="m23.8 16.8c0.2 0.1 0.3 0.3 0.3 0.5 0.1 1 0 2-0.1 3 0.1-1.2 0-2.3-0.2-3.5z"></path><path fill="#676a6d" d="m28.5 18.5v0.1h-3v0.4c-0.1-0.2-0.2-0.3-0.1-0.5h3.1z"></path><path fill="#6fc343" d="m12.5 16c0.2 0.1 0.3 0.2 0.3 0.4 0.1 0.4 0.2 0.8 0.2 1.2-0.2 0.6-0.4 1.2-0.7 1.8 0 0.1-0.1 0.2-0.2 0.2-0.3 0.2-0.7 0.3-1 0.4-0.1-0.3-0.1-0.6-0.1-0.8 0.1-0.4 0.3-0.7 0.4-1h0.1c0.2-0.1 0.3-0.2 0.4-0.4 0.4-0.5 0.6-1.1 0.6-1.8z"></path><path fill="#c2c6c8" d="m16.1 16.4c0.4-0.1 0.8-0.2 1.3-0.1 0 1.4 0 2.8-0.1 4.1 0-1.4 0-2.7-0.1-4h-1.1z"></path><path fill="#b1b4b7" d="m28.5 18.6c-0.9 0.1-1.9 0.2-2.9 0.1v0.4c-0.1 0-0.1-0.1-0.1-0.1v-0.4h3z"></path><path fill="#444547" d="m15.4 14.6v0.3c-0.3 0.2-0.6 0.2-0.8 0 0 1.3 0 2.5 0 3.8 0.2-0.1 0.4 0 0.6 0.3 0-0.2 0.1-0.4 0.2-0.5v1.8h-1.1v-5.7h1.1z"></path><path fill="#b1b3b6" d="m27.5 19c0.1-0.1 0.1-0.2 0.2-0.2 0.2 0.2 0.5 0.2 0.7 0.3 0 0.1 0 0.3-0.1 0.4v-0.3l-0.8-0.2z"></path><path fill="#9b9fa2" d="m17.9 16.4v3.7c0.3 0.2 0.7 0.3 1.1 0.2-0.1-0.9 0-1.8 0.1-2.7v2.8c-0.5 0.1-0.9 0-1.3-0.1 0-1.3 0-2.6 0.1-3.9z"></path><path fill="#0f9044" d="m10.3 18.8c-0.2 0.2-0.3 0.4-0.5 0.6 0.1 0.3 0.1 0.6 0 0.9-0.1 0-0.2-0.1-0.2-0.2-0.1-0.4-0.1-0.7-0.2-1 0-0.2 0.1-0.3 0.3-0.4 0.2 0.1 0.4 0.2 0.6 0.1z"></path><path fill="#459974" d="m8 19.5c0.3 0.1 0.5 0.2 0.6 0.5h-0.1c-0.2-0.1-0.3-0.3-0.5-0.5z"></path><path fill="#e7f0e4" d="m12.8 19.3h0.1c0 0.1 0 0.2-0.1 0.3-0.3 0.2-0.6 0.4-0.8 0.6-0.2 0.1-0.4 0.1-0.6 0.1 0.5-0.2 1-0.6 1.4-1z"></path><path fill="#434649" d="m28.5 18.5h-3.1c-0.1 0.2 0 0.3 0.1 0.5 0 0 0 0.1 0.1 0.1 0.3 0.5 0.8 0.7 1.5 0.4 0.3 0 0.4-0.2 0.4-0.5l0.8 0.2v0.3c-0.2 0.1-0.3 0.3-0.3 0.5l-0.5 0.2c-0.2 0-0.4 0.1-0.6 0.2-0.5 0-1 0-1.5-0.2l-0.6-0.5c0-0.3-0.2-0.5-0.3-0.7v-1.2c0.1-0.1 0.2-0.3 0.2-0.5 0.7-1 1.6-1.3 2.7-0.9 0.8 0.5 1.2 1.2 1.1 2.1z"></path><path fill="#797c7f" d="m27.5 19c0 0.3-0.1 0.5-0.4 0.5 0.1-0.2 0.3-0.4 0.4-0.5z"></path><path fill="#919498" d="m25.6 17.6c0.2 0.2 0.5 0.2 0.9 0.2 0.3 0 0.6 0 0.9-0.2 0.1 0.1 0.1 0.2 0.1 0.3h-2c0-0.1 0-0.2 0.1-0.3z"></path><path fill="#979b9e" d="m25.9 17.3c0 0.1-0.2 0.2-0.3 0.3 0-0.2 0.1-0.3 0.3-0.3z"></path><path fill="#dfe3e6" d="m26.8 17.2c0.3 0 0.5 0.2 0.6 0.4-0.3 0.2-0.6 0.2-0.9 0.2-0.4 0-0.7 0-0.9-0.2 0.1-0.1 0.3-0.2 0.3-0.3 0.3-0.1 0.6-0.2 0.9-0.1z"></path><path fill="#7f8386" d="m26.8 17.2c-0.3-0.1-0.6 0-0.9 0.1 0.1-0.2 0.3-0.3 0.5-0.3 0.2 0 0.3 0.1 0.4 0.2z"></path><path fill="#bcbec1" d="m24.5 19c0.1 0.2 0.3 0.4 0.3 0.7-0.3-0.1-0.4-0.4-0.3-0.7z"></path><path fill="#a1a3a6" d="m28.3 19.5c0 0.2-0.1 0.4-0.3 0.5 0-0.2 0.1-0.4 0.3-0.5z"></path><path fill="#2da240" d="m10.5 18.7h0.2c0 0.4 0 0.7 0 1-0.1 0.2-0.2 0.3-0.3 0.4 0 0.1 0.1 0.1 0.1 0.2h-0.7c0.1-0.3 0.1-0.6 0-1 0.2-0.1 0.3-0.3 0.5-0.5 0.1 0.1 0.2 0 0.2-0.1z"></path><path fill="#b4dba2" d="m12.8 19.1v0.2c-0.4 0.4-0.9 0.8-1.4 1h-0.2c0.3-0.2 0.6-0.4 0.9-0.7 0.1 0 0.2-0.1 0.2-0.2l0.5-0.3z"></path><path fill="#57b34a" d="m11.3 18.2h0.1c-0.1 0.3-0.3 0.6-0.4 1 0 0.2 0 0.5 0.1 0.8 0.3-0.1 0.7-0.2 1-0.4-0.3 0.3-0.6 0.5-0.9 0.7h-0.7c0-0.1-0.1-0.1-0.1-0.2 0.1-0.1 0.2-0.2 0.3-0.4 0-0.3 0-0.6 0-1 0.3 0 0.5-0.2 0.6-0.5z"></path><path fill="#70bf9e" d="m8.5 20h0.1c0.2 0 0.4 0.1 0.6 0.3-0.3 0.1-0.6-0.1-0.7-0.3z"></path><path fill="#9ca0a2" d="m22.9 17.5c0.1 0.9 0.1 1.8 0.1 2.8h1c-0.3 0.1-0.7 0.2-1.1 0.1v-2.9z"></path><path fill="#8b8f92" d="m27.5 20.2c-0.1 0.2-0.3 0.3-0.6 0.2 0.2-0.1 0.4-0.2 0.6-0.2z"></path><path fill="#898b8e" d="m25.4 20.2c0.5 0.2 1 0.2 1.5 0.2-0.5 0.2-1 0.1-1.5-0.2z"></path></svg>