<?xml version="1.0" encoding="UTF-8"?>
<!DOCTYPE svg PUBLIC "-//W3C//DTD SVG 1.1//EN" "http://www.w3.org/Graphics/SVG/1.1/DTD/svg11.dtd">
<svg xmlns="http://www.w3.org/2000/svg" version="1.1" width="320px" height="320px" style="shape-rendering:geometricPrecision; text-rendering:geometricPrecision; image-rendering:optimizeQuality; fill-rule:evenodd; clip-rule:evenodd" xmlns:xlink="http://www.w3.org/1999/xlink">
<g><path style="opacity:1" fill="#fefefe" d="M -0.5,-0.5 C 106.167,-0.5 212.833,-0.5 319.5,-0.5C 319.5,106.167 319.5,212.833 319.5,319.5C 212.833,319.5 106.167,319.5 -0.5,319.5C -0.5,212.833 -0.5,106.167 -0.5,-0.5 Z"/></g>
<g><path style="opacity:1" fill="#6975a6" d="M 202.5,65.5 C 202.842,64.6618 203.508,64.3284 204.5,64.5C 208.514,64.3345 212.514,64.5012 216.5,65C 217.056,65.3826 217.389,65.8826 217.5,66.5C 216.833,66.5 216.167,66.5 215.5,66.5C 211.366,65.5151 207.032,65.1818 202.5,65.5 Z"/></g>
<g><path style="opacity:1" fill="#d4dbf0" d="M 204.5,64.5 C 209.316,63.3503 214.316,63.1837 219.5,64C 219.164,65.629 219.83,67.129 221.5,68.5C 219.938,68.2671 218.605,67.6005 217.5,66.5C 217.389,65.8826 217.056,65.3826 216.5,65C 212.514,64.5012 208.514,64.3345 204.5,64.5 Z"/></g>
<g><path style="opacity:1" fill="#6571a4" d="M 200.5,67.5 C 198.833,69.8333 196.833,71.8333 194.5,73.5C 195.5,70.5 197.5,68.5 200.5,67.5 Z"/></g>
<g><path style="opacity:1" fill="#1f2f80" d="M 202.5,65.5 C 207.032,65.1818 211.366,65.5151 215.5,66.5C 210.21,65.7411 205.544,67.0745 201.5,70.5C 206.732,70.7391 212.065,70.7391 217.5,70.5C 217.5,69.1667 217.5,67.8333 217.5,66.5C 218.605,67.6005 219.938,68.2671 221.5,68.5C 222.167,69.5 222.833,70.5 223.5,71.5C 217.371,73.0869 211.038,73.9202 204.5,74C 203.299,74.9025 202.465,76.0692 202,77.5C 201.882,80.3713 201.216,83.038 200,85.5C 196.997,81.8768 196.831,78.2101 199.5,74.5C 199.176,72.4311 198.342,72.0977 197,73.5C 194.626,77.8935 193.959,82.5602 195,87.5C 196.667,88.1667 198.333,88.8333 200,89.5C 200.495,91.4727 200.662,93.4727 200.5,95.5C 203.898,95.1796 207.232,95.513 210.5,96.5C 208.599,97.2309 206.599,97.2309 204.5,96.5C 204.5,97.5 204.5,98.5 204.5,99.5C 202.004,98.4196 199.67,97.0862 197.5,95.5C 195.61,92.7282 193.943,89.7282 192.5,86.5C 192.269,82.007 192.936,77.6737 194.5,73.5C 196.833,71.8333 198.833,69.8333 200.5,67.5C 201.167,66.8333 201.833,66.1667 202.5,65.5 Z"/></g>
<g><path style="opacity:1" fill="#18298c" d="M 215.5,66.5 C 216.167,66.5 216.833,66.5 217.5,66.5C 217.5,67.8333 217.5,69.1667 217.5,70.5C 212.065,70.7391 206.732,70.7391 201.5,70.5C 205.544,67.0745 210.21,65.7411 215.5,66.5 Z"/></g>
<g><path style="opacity:1" fill="#bdc6eb" d="M 194.5,73.5 C 192.936,77.6737 192.269,82.007 192.5,86.5C 191.359,83.3601 191.192,80.0267 192,76.5C 192.377,75.0577 193.21,74.0577 194.5,73.5 Z"/></g>
<g><path style="opacity:1" fill="#1b2c87" d="M 223.5,71.5 C 225.585,73.6845 226.585,76.3511 226.5,79.5C 226.958,84.5566 225.958,89.2233 223.5,93.5C 221.475,95.1964 219.475,96.863 217.5,98.5C 217.5,98.8333 217.5,99.1667 217.5,99.5C 213.534,100.162 209.534,100.495 205.5,100.5C 205.167,100.5 204.833,100.5 204.5,100.5C 204.5,100.167 204.5,99.8333 204.5,99.5C 204.5,98.5 204.5,97.5 204.5,96.5C 206.599,97.2309 208.599,97.2309 210.5,96.5C 207.232,95.513 203.898,95.1796 200.5,95.5C 200.662,93.4727 200.495,91.4727 200,89.5C 198.333,88.8333 196.667,88.1667 195,87.5C 193.959,82.5602 194.626,77.8935 197,73.5C 198.342,72.0977 199.176,72.4311 199.5,74.5C 196.831,78.2101 196.997,81.8768 200,85.5C 201.216,83.038 201.882,80.3713 202,77.5C 202.465,76.0692 203.299,74.9025 204.5,74C 211.038,73.9202 217.371,73.0869 223.5,71.5 Z"/></g>
<g><path style="opacity:1" fill="#6e76a8" d="M 82.5,88.5 C 76.4655,88.1795 71.1322,89.8462 66.5,93.5C 66.5106,91.9826 67.1772,90.8159 68.5,90C 73.1491,87.6654 77.8157,87.1654 82.5,88.5 Z"/></g>
<g><path style="opacity:1" fill="#d5d8ec" d="M 87.5,89.5 C 89.9237,90.0305 92.257,90.8638 94.5,92C 93.5868,93.4139 93.5868,94.9139 94.5,96.5C 91.8333,94.5 89.5,92.1667 87.5,89.5 Z"/></g>
<g><path style="opacity:1" fill="#c3cbe6" d="M 226.5,79.5 C 227.597,84.0126 227.597,88.6792 226.5,93.5C 225.5,93.5 224.5,93.5 223.5,93.5C 225.958,89.2233 226.958,84.5566 226.5,79.5 Z"/></g>
<g><path style="opacity:1" fill="#98a0cd" d="M 223.5,93.5 C 222.712,96.6209 220.712,98.2876 217.5,98.5C 219.475,96.863 221.475,95.1964 223.5,93.5 Z"/></g>
<g><path style="opacity:1" fill="#333c7e" d="M 86.5,89.5 C 86.8333,89.5 87.1667,89.5 87.5,89.5C 89.5,92.1667 91.8333,94.5 94.5,96.5C 94.6287,98.2161 94.962,99.8828 95.5,101.5C 94.2794,100.972 93.1127,100.305 92,99.5C 90.3494,96.0289 88.5161,92.6956 86.5,89.5 Z"/></g>
<g><path style="opacity:1" fill="#b2b8d8" d="M 197.5,95.5 C 199.67,97.0862 202.004,98.4196 204.5,99.5C 204.5,99.8333 204.5,100.167 204.5,100.5C 200.811,100.507 198.478,98.8407 197.5,95.5 Z"/></g>
<g><path style="opacity:1" fill="#a6aecf" d="M 217.5,99.5 C 215.321,100.926 212.821,101.592 210,101.5C 208.293,101.492 206.793,101.158 205.5,100.5C 209.534,100.495 213.534,100.162 217.5,99.5 Z"/></g>
<g><path style="opacity:1" fill="#878fc0" d="M 193.5,104.5 C 201.004,103.501 208.671,103.501 216.5,104.5C 217.5,105.167 218.5,105.833 219.5,106.5C 212.217,105.34 204.883,104.673 197.5,104.5C 196.167,104.5 194.833,104.5 193.5,104.5 Z"/></g>
<g><path style="opacity:1" fill="#8087be" d="M 64.5,95.5 C 62.8164,100.676 62.1497,106.009 62.5,111.5C 61.5166,107.702 61.1832,103.702 61.5,99.5C 62.1429,97.9236 63.1429,96.5903 64.5,95.5 Z"/></g>
<g><path style="opacity:1" fill="#9da3cf" d="M 278.5,106.5 C 278.953,105.542 279.619,104.708 280.5,104C 278.169,104.157 275.836,104.657 273.5,105.5C 275.617,103.345 278.284,102.345 281.5,102.5C 281.912,104.973 280.912,106.306 278.5,106.5 Z"/></g>
<g><path style="opacity:1" fill="#1b2d83" d="M 82.5,88.5 C 83.8333,88.8333 85.1667,89.1667 86.5,89.5C 88.5161,92.6956 90.3494,96.0289 92,99.5C 93.1127,100.305 94.2794,100.972 95.5,101.5C 95.5,104.833 95.5,108.167 95.5,111.5C 94.1667,113.5 92.8333,115.5 91.5,117.5C 91.3736,111.58 88.5402,107.58 83,105.5C 82.5017,102.183 82.335,98.8499 82.5,95.5C 81.5,95.5 80.5,95.5 79.5,95.5C 79.7852,93.712 79.4519,92.0453 78.5,90.5C 75.6296,91.122 72.7963,91.7887 70,92.5C 70,94.5 70,96.5 70,98.5C 63.4987,103.649 63.9987,107.649 71.5,110.5C 69.9547,111.452 68.288,111.785 66.5,111.5C 67.2134,114.594 68.2134,117.594 69.5,120.5C 68.8333,120.167 68.1667,119.833 67.5,119.5C 65.3057,117.1 63.639,114.434 62.5,111.5C 62.1497,106.009 62.8164,100.676 64.5,95.5C 64.8333,94.5 65.5,93.8333 66.5,93.5C 71.1322,89.8462 76.4655,88.1795 82.5,88.5 Z"/></g>
<g><path style="opacity:1" fill="#9197c4" d="M 132.5,106.5 C 126.108,106.249 119.775,106.582 113.5,107.5C 116.258,106.182 119.424,105.515 123,105.5C 126.352,105.502 129.518,105.835 132.5,106.5 Z"/></g>
<g><path style="opacity:1" fill="#8a96bc" d="M 193.5,104.5 C 191.095,105.768 188.428,106.435 185.5,106.5C 187.838,104.96 190.505,104.294 193.5,104.5 Z"/></g>
<g><path style="opacity:1" fill="#abb4d6" d="M 216.5,104.5 C 221.41,105.74 226.41,106.573 231.5,107C 233.315,107.757 234.981,108.59 236.5,109.5C 230.843,108.406 225.177,107.406 219.5,106.5C 218.5,105.833 217.5,105.167 216.5,104.5 Z"/></g>
<g><path style="opacity:1" fill="#182b87" d="M 91.5,117.5 C 90.5,117.5 89.5,117.5 88.5,117.5C 88.5,116.5 88.5,115.5 88.5,114.5C 87.5,114.5 86.5,114.5 85.5,114.5C 86.4015,118.241 85.0681,120.241 81.5,120.5C 81.6882,118.897 81.1882,117.563 80,116.5C 77.9911,121.584 74.4911,122.917 69.5,120.5C 68.2134,117.594 67.2134,114.594 66.5,111.5C 68.288,111.785 69.9547,111.452 71.5,110.5C 63.9987,107.649 63.4987,103.649 70,98.5C 70,96.5 70,94.5 70,92.5C 72.7963,91.7887 75.6296,91.122 78.5,90.5C 79.4519,92.0453 79.7852,93.712 79.5,95.5C 80.5,95.5 81.5,95.5 82.5,95.5C 82.335,98.8499 82.5017,102.183 83,105.5C 88.5402,107.58 91.3736,111.58 91.5,117.5 Z"/></g>
<g><path style="opacity:1" fill="#939fc7" d="M 138.5,108.5 C 140.848,108.592 142.514,109.592 143.5,111.5C 141.435,111.047 139.768,110.047 138.5,108.5 Z"/></g>
<g><path style="opacity:1" fill="#2e3b86" d="M 193.5,104.5 C 194.833,104.5 196.167,104.5 197.5,104.5C 195.786,105.738 193.786,106.405 191.5,106.5C 191.649,107.552 191.483,108.552 191,109.5C 187.433,107.854 184.266,108.354 181.5,111C 186.507,112.115 191.507,112.948 196.5,113.5C 190.328,113.124 184.328,113.791 178.5,115.5C 178.209,114.351 177.376,113.684 176,113.5C 173.718,114.29 171.552,115.29 169.5,116.5C 173.518,111.165 178.851,107.832 185.5,106.5C 188.428,106.435 191.095,105.768 193.5,104.5 Z"/></g>
<g><path style="opacity:1" fill="#1c2c86" d="M 197.5,104.5 C 204.883,104.673 212.217,105.34 219.5,106.5C 225.177,107.406 230.843,108.406 236.5,109.5C 237.209,110.404 238.209,110.737 239.5,110.5C 247.676,111.167 256.01,111.833 264.5,112.5C 260.599,115.492 256.599,115.825 252.5,113.5C 251.5,113.833 250.5,114.167 249.5,114.5C 250.737,115.281 251.737,116.281 252.5,117.5C 251.388,118.265 250.721,119.265 250.5,120.5C 244.699,121.08 239.032,121.747 233.5,122.5C 232.167,122.5 230.833,122.5 229.5,122.5C 225.215,121.839 221.215,120.506 217.5,118.5C 217.5,120.167 217.5,121.833 217.5,123.5C 216.167,123.5 214.833,123.5 213.5,123.5C 211.343,121.588 209.009,119.921 206.5,118.5C 203.377,116.456 200.044,114.789 196.5,113.5C 191.507,112.948 186.507,112.115 181.5,111C 184.266,108.354 187.433,107.854 191,109.5C 191.483,108.552 191.649,107.552 191.5,106.5C 193.786,106.405 195.786,105.738 197.5,104.5 Z"/></g>
<g><path style="opacity:1" fill="#182b88" d="M 133.5,107.5 C 135.444,108.928 137.111,110.761 138.5,113C 134.789,113.825 131.122,113.659 127.5,112.5C 128.729,111.719 130.062,111.219 131.5,111C 127.294,110.035 123.794,111.202 121,114.5C 118.174,112.188 115.341,112.355 112.5,115C 113.38,116.356 113.714,117.856 113.5,119.5C 111.876,119.36 110.71,120.027 110,121.5C 109.692,120.692 109.192,120.025 108.5,119.5C 107.276,120.766 105.943,121.933 104.5,123C 106.107,124.049 106.773,125.549 106.5,127.5C 104.989,128.502 103.322,129.169 101.5,129.5C 101.38,127.266 101.713,125.099 102.5,123C 101.99,121.174 101.156,121.007 100,122.5C 98.9273,118.905 100.261,116.905 104,116.5C 105.333,117.167 106.667,117.833 108,118.5C 110.942,118.563 111.942,117.23 111,114.5C 109.745,113.789 108.579,112.956 107.5,112C 109.833,111.667 112.167,111.333 114.5,111C 115.833,110.333 115.833,109.667 114.5,109C 120.742,107.63 127.075,107.13 133.5,107.5 Z"/></g>
<g><path style="opacity:1" fill="#202f81" d="M 132.5,106.5 C 133.167,106.5 133.5,106.833 133.5,107.5C 127.075,107.13 120.742,107.63 114.5,109C 115.833,109.667 115.833,110.333 114.5,111C 112.167,111.333 109.833,111.667 107.5,112C 108.579,112.956 109.745,113.789 111,114.5C 111.942,117.23 110.942,118.563 108,118.5C 106.667,117.833 105.333,117.167 104,116.5C 100.261,116.905 98.9273,118.905 100,122.5C 101.156,121.007 101.99,121.174 102.5,123C 101.713,125.099 101.38,127.266 101.5,129.5C 103.322,129.169 104.989,128.502 106.5,127.5C 105.752,129.332 104.752,130.999 103.5,132.5C 101.755,134.033 100.755,136.033 100.5,138.5C 98.7168,145.334 98.0501,152.334 98.5,159.5C 97.9608,153.391 96.9608,147.224 95.5,141C 98.1864,135.145 99.0197,128.978 98,122.5C 97.3292,121.748 96.4959,121.414 95.5,121.5C 95.5,121.167 95.5,120.833 95.5,120.5C 97.7157,118.135 100.382,116.302 103.5,115C 104.305,113.887 104.972,112.721 105.5,111.5C 107.612,109.229 110.279,107.896 113.5,107.5C 119.775,106.582 126.108,106.249 132.5,106.5 Z"/></g>
<g><path style="opacity:1" fill="#a2b0d6" d="M 147.5,113.5 C 150.089,114.419 152.089,116.086 153.5,118.5C 153.167,118.5 152.833,118.5 152.5,118.5C 150.5,117.167 148.833,115.5 147.5,113.5 Z"/></g>
<g><path style="opacity:1" fill="#d6daeb" d="M 61.5,99.5 C 61.1832,103.702 61.5166,107.702 62.5,111.5C 63.639,114.434 65.3057,117.1 67.5,119.5C 66.0222,119.762 64.6888,119.429 63.5,118.5C 62.5428,116.082 61.2095,113.916 59.5,112C 60.1401,107.732 60.8067,103.565 61.5,99.5 Z"/></g>
<g><path style="opacity:1" fill="#afb9d9" d="M 196.5,113.5 C 200.044,114.789 203.377,116.456 206.5,118.5C 196.277,114.93 185.944,114.596 175.5,117.5C 176.5,116.833 177.5,116.167 178.5,115.5C 184.328,113.791 190.328,113.124 196.5,113.5 Z"/></g>
<g><path style="opacity:1" fill="#313b87" d="M 278.5,106.5 C 275.953,107.934 273.619,109.6 271.5,111.5C 268.787,113.172 266.12,114.838 263.5,116.5C 262.833,116.5 262.167,116.5 261.5,116.5C 258.457,117.843 255.457,119.177 252.5,120.5C 251.833,120.5 251.167,120.5 250.5,120.5C 250.721,119.265 251.388,118.265 252.5,117.5C 251.737,116.281 250.737,115.281 249.5,114.5C 250.5,114.167 251.5,113.833 252.5,113.5C 256.599,115.825 260.599,115.492 264.5,112.5C 256.01,111.833 247.676,111.167 239.5,110.5C 246.841,110.666 254.174,110.5 261.5,110C 265.86,109.162 269.86,107.662 273.5,105.5C 275.836,104.657 278.169,104.157 280.5,104C 279.619,104.708 278.953,105.542 278.5,106.5 Z"/></g>
<g><path style="opacity:1" fill="#a8b3d9" d="M 271.5,111.5 C 269.874,114.622 267.208,116.288 263.5,116.5C 266.12,114.838 268.787,113.172 271.5,111.5 Z"/></g>
<g><path style="opacity:1" fill="#293489" d="M 178.5,115.5 C 177.5,116.167 176.5,116.833 175.5,117.5C 173.223,118.449 171.223,119.782 169.5,121.5C 168.508,121.328 167.842,121.662 167.5,122.5C 165.596,122.738 164.262,123.738 163.5,125.5C 162.833,125.5 162.167,125.5 161.5,125.5C 160.508,125.672 159.842,125.338 159.5,124.5C 160.29,123.599 161.29,122.932 162.5,122.5C 165.427,121.243 167.761,119.243 169.5,116.5C 171.552,115.29 173.718,114.29 176,113.5C 177.376,113.684 178.209,114.351 178.5,115.5 Z"/></g>
<g><path style="opacity:1" fill="#5c659a" d="M 105.5,111.5 C 104.972,112.721 104.305,113.887 103.5,115C 100.382,116.302 97.7157,118.135 95.5,120.5C 95.5569,119.391 95.8902,118.391 96.5,117.5C 99.0127,114.745 102.013,112.745 105.5,111.5 Z"/></g>
<g><path style="opacity:1" fill="#b3bddd" d="M 261.5,116.5 C 259.288,119.358 256.288,120.691 252.5,120.5C 255.457,119.177 258.457,117.843 261.5,116.5 Z"/></g>
<g><path style="opacity:1" fill="#5b6a9f" d="M 169.5,116.5 C 167.761,119.243 165.427,121.243 162.5,122.5C 164.239,119.757 166.573,117.757 169.5,116.5 Z"/></g>
<g><path style="opacity:1" fill="#d9deee" d="M 95.5,111.5 C 95.7135,113.144 95.3802,114.644 94.5,116C 95.4158,116.278 96.0825,116.778 96.5,117.5C 95.8902,118.391 95.5569,119.391 95.5,120.5C 93.8058,121.527 92.4725,122.861 91.5,124.5C 91.719,123.325 91.3857,122.325 90.5,121.5C 88.336,121.998 86.6694,123.164 85.5,125C 81.9733,125.808 78.6399,125.641 75.5,124.5C 78.0593,124.802 80.3926,124.468 82.5,123.5C 86.2499,122.589 89.2499,120.589 91.5,117.5C 92.8333,115.5 94.1667,113.5 95.5,111.5 Z"/></g>
<g><path style="opacity:1" fill="#263485" d="M 133.5,107.5 C 135.216,107.629 136.883,107.962 138.5,108.5C 139.768,110.047 141.435,111.047 143.5,111.5C 144.514,112.674 145.847,113.34 147.5,113.5C 148.833,115.5 150.5,117.167 152.5,118.5C 152.414,119.496 152.748,120.329 153.5,121C 152.552,121.483 151.552,121.649 150.5,121.5C 147.968,120.404 145.635,119.071 143.5,117.5C 142.365,115.787 140.698,115.12 138.5,115.5C 133.833,114.167 129.167,114.167 124.5,115.5C 122.302,115.12 120.635,115.787 119.5,117.5C 117.973,117.427 116.973,118.094 116.5,119.5C 113.796,119.67 112.129,121.003 111.5,123.5C 109.833,124.833 108.167,126.167 106.5,127.5C 106.773,125.549 106.107,124.049 104.5,123C 105.943,121.933 107.276,120.766 108.5,119.5C 109.192,120.025 109.692,120.692 110,121.5C 110.71,120.027 111.876,119.36 113.5,119.5C 113.714,117.856 113.38,116.356 112.5,115C 115.341,112.355 118.174,112.188 121,114.5C 123.794,111.202 127.294,110.035 131.5,111C 130.062,111.219 128.729,111.719 127.5,112.5C 131.122,113.659 134.789,113.825 138.5,113C 137.111,110.761 135.444,108.928 133.5,107.5 Z"/></g>
<g><path style="opacity:1" fill="#8d97c8" d="M 124.5,115.5 C 123.07,116.537 121.403,117.204 119.5,117.5C 120.635,115.787 122.302,115.12 124.5,115.5 Z"/></g>
<g><path style="opacity:1" fill="#7d84bb" d="M 138.5,115.5 C 140.698,115.12 142.365,115.787 143.5,117.5C 141.447,117.598 139.78,116.931 138.5,115.5 Z"/></g>
<g><path style="opacity:1" fill="#8b8fba" d="M 116.5,119.5 C 115.055,121.063 113.389,122.396 111.5,123.5C 112.129,121.003 113.796,119.67 116.5,119.5 Z"/></g>
<g><path style="opacity:1" fill="#a4a6d5" d="M 175.5,117.5 C 175.5,117.833 175.5,118.167 175.5,118.5C 173.947,120.385 171.947,121.385 169.5,121.5C 171.223,119.782 173.223,118.449 175.5,117.5 Z"/></g>
<g><path style="opacity:1" fill="#202f80" d="M 91.5,117.5 C 89.2499,120.589 86.2499,122.589 82.5,123.5C 77.9691,123.85 73.6358,123.183 69.5,121.5C 69.5,121.167 69.5,120.833 69.5,120.5C 74.4911,122.917 77.9911,121.584 80,116.5C 81.1882,117.563 81.6882,118.897 81.5,120.5C 85.0681,120.241 86.4015,118.241 85.5,114.5C 86.5,114.5 87.5,114.5 88.5,114.5C 88.5,115.5 88.5,116.5 88.5,117.5C 89.5,117.5 90.5,117.5 91.5,117.5 Z"/></g>
<g><path style="opacity:1" fill="#a0a5cf" d="M 250.5,120.5 C 251.167,120.5 251.833,120.5 252.5,120.5C 250.485,121.924 248.152,122.59 245.5,122.5C 241.5,122.5 237.5,122.5 233.5,122.5C 239.032,121.747 244.699,121.08 250.5,120.5 Z"/></g>
<g><path style="opacity:1" fill="#59649e" d="M 180.5,122.5 C 180.5,122.167 180.5,121.833 180.5,121.5C 185.181,121.669 189.848,122.002 194.5,122.5C 194.5,122.833 194.5,123.167 194.5,123.5C 190.466,123.495 186.466,123.162 182.5,122.5C 181.833,122.5 181.167,122.5 180.5,122.5 Z"/></g>
<g><path style="opacity:1" fill="#a3afd1" d="M 194.5,123.5 C 194.5,123.167 194.5,122.833 194.5,122.5C 197.491,122.166 199.824,123.166 201.5,125.5C 199.167,124.833 196.833,124.167 194.5,123.5 Z"/></g>
<g><path style="opacity:1" fill="#bec5e0" d="M 229.5,122.5 C 230.833,122.5 232.167,122.5 233.5,122.5C 237.5,122.5 241.5,122.5 245.5,122.5C 240.684,123.326 235.684,123.826 230.5,124C 233.775,126.27 235.109,129.437 234.5,133.5C 233.5,131.5 232.5,129.5 231.5,127.5C 230.058,126.18 229.392,124.514 229.5,122.5 Z"/></g>
<g><path style="opacity:1" fill="#8e98c6" d="M 69.5,121.5 C 73.6358,123.183 77.9691,123.85 82.5,123.5C 80.3926,124.468 78.0593,124.802 75.5,124.5C 72.784,124.614 70.784,123.614 69.5,121.5 Z"/></g>
<g><path style="opacity:1" fill="#1b2f7f" d="M 229.5,122.5 C 229.392,124.514 230.058,126.18 231.5,127.5C 229.928,130.215 228.928,133.215 228.5,136.5C 227.448,136.649 226.448,136.483 225.5,136C 225.895,132.733 226.895,129.733 228.5,127C 226.559,126.257 224.726,126.424 223,127.5C 222.072,124.965 220.238,123.965 217.5,124.5C 217.5,126.167 217.5,127.833 217.5,129.5C 217.167,129.5 216.833,129.5 216.5,129.5C 215.5,127.5 214.5,125.5 213.5,123.5C 214.833,123.5 216.167,123.5 217.5,123.5C 217.5,121.833 217.5,120.167 217.5,118.5C 221.215,120.506 225.215,121.839 229.5,122.5 Z"/></g>
<g><path style="opacity:1" fill="#eaedf5" d="M 138.5,115.5 C 139.78,116.931 141.447,117.598 143.5,117.5C 145.635,119.071 147.968,120.404 150.5,121.5C 152.253,123.223 154.253,124.723 156.5,126C 158.387,126.78 160.054,126.613 161.5,125.5C 162.167,125.5 162.833,125.5 163.5,125.5C 165.404,125.262 166.738,124.262 167.5,122.5C 167.842,121.662 168.508,121.328 169.5,121.5C 171.947,121.385 173.947,120.385 175.5,118.5C 175.489,120.017 174.823,121.184 173.5,122C 175.751,121.793 178.085,121.627 180.5,121.5C 180.5,121.833 180.5,122.167 180.5,122.5C 177.426,123.302 174.426,124.302 171.5,125.5C 169.596,125.738 168.262,126.738 167.5,128.5C 164.931,129.396 162.931,131.062 161.5,133.5C 162.325,134.386 163.325,134.719 164.5,134.5C 163.081,135.451 161.415,135.784 159.5,135.5C 159.227,133.549 159.893,132.049 161.5,131C 158.678,130.301 157.012,131.468 156.5,134.5C 154.701,135.788 153.035,135.788 151.5,134.5C 155.005,134.306 155.338,133.306 152.5,131.5C 151.833,131.5 151.5,131.167 151.5,130.5C 150.738,128.738 149.404,127.738 147.5,127.5C 147.167,127.5 146.833,127.5 146.5,127.5C 144.235,126.021 141.901,124.687 139.5,123.5C 134.439,121.577 129.105,121.077 123.5,122C 122.244,122.417 121.577,123.25 121.5,124.5C 119.517,125.471 117.517,126.471 115.5,127.5C 112.313,129.344 110.313,132.011 109.5,135.5C 108.797,137.629 107.797,139.629 106.5,141.5C 105.309,138.497 105.976,135.831 108.5,133.5C 108.167,133.167 107.833,132.833 107.5,132.5C 105.814,133.857 104.148,135.19 102.5,136.5C 102.833,135.167 103.167,133.833 103.5,132.5C 104.752,130.999 105.752,129.332 106.5,127.5C 108.167,126.167 109.833,124.833 111.5,123.5C 113.389,122.396 115.055,121.063 116.5,119.5C 116.973,118.094 117.973,117.427 119.5,117.5C 121.403,117.204 123.07,116.537 124.5,115.5C 129.167,114.167 133.833,114.167 138.5,115.5 Z"/></g>
<g><path style="opacity:1" fill="#989ed0" d="M 167.5,122.5 C 166.738,124.262 165.404,125.262 163.5,125.5C 164.262,123.738 165.596,122.738 167.5,122.5 Z"/></g>
<g><path style="opacity:1" fill="#475088" d="M 152.5,118.5 C 152.833,118.5 153.167,118.5 153.5,118.5C 155.167,120.833 157.167,122.833 159.5,124.5C 159.842,125.338 160.508,125.672 161.5,125.5C 160.054,126.613 158.387,126.78 156.5,126C 154.253,124.723 152.253,123.223 150.5,121.5C 151.552,121.649 152.552,121.483 153.5,121C 152.748,120.329 152.414,119.496 152.5,118.5 Z"/></g>
<g><path style="opacity:1" fill="#5f6aa0" d="M 139.5,123.5 C 133.342,121.882 127.342,122.215 121.5,124.5C 121.577,123.25 122.244,122.417 123.5,122C 129.105,121.077 134.439,121.577 139.5,123.5 Z"/></g>
<g><path style="opacity:1" fill="#2c3586" d="M 180.5,122.5 C 181.167,122.5 181.833,122.5 182.5,122.5C 182.196,123.15 181.863,123.817 181.5,124.5C 185.024,126.093 188.357,127.926 191.5,130C 192.823,130.816 193.489,131.983 193.5,133.5C 191.988,131.683 189.988,130.683 187.5,130.5C 182.02,127.804 176.687,128.137 171.5,131.5C 169.565,132.15 167.565,132.483 165.5,132.5C 165.062,132.565 164.728,132.399 164.5,132C 165.71,130.961 166.71,129.794 167.5,128.5C 169.404,128.262 170.738,127.262 171.5,125.5C 174.426,124.302 177.426,123.302 180.5,122.5 Z"/></g>
<g><path style="opacity:1" fill="#a6add0" d="M 201.5,125.5 C 203.027,125.427 204.027,126.094 204.5,127.5C 204.167,127.5 203.833,127.5 203.5,127.5C 202.5,127.167 201.833,126.5 201.5,125.5 Z"/></g>
<g><path style="opacity:1" fill="#4d5293" d="M 95.5,120.5 C 95.5,120.833 95.5,121.167 95.5,121.5C 93.9192,123.142 93.2525,125.142 93.5,127.5C 92.5,127.5 91.5,127.5 90.5,127.5C 89.4083,132.231 88.075,136.897 86.5,141.5C 86.1667,141.5 85.8333,141.5 85.5,141.5C 86.4407,135.372 88.4407,129.706 91.5,124.5C 92.4725,122.861 93.8058,121.527 95.5,120.5 Z"/></g>
<g><path style="opacity:1" fill="#7c88b6" d="M 171.5,125.5 C 170.738,127.262 169.404,128.262 167.5,128.5C 168.262,126.738 169.596,125.738 171.5,125.5 Z"/></g>
<g><path style="opacity:1" fill="#99a4ce" d="M 147.5,127.5 C 149.404,127.738 150.738,128.738 151.5,130.5C 149.596,130.262 148.262,129.262 147.5,127.5 Z"/></g>
<g><path style="opacity:1" fill="#b0bcdd" d="M 187.5,130.5 C 182.13,130.392 176.797,130.725 171.5,131.5C 176.687,128.137 182.02,127.804 187.5,130.5 Z"/></g>
<g><path style="opacity:1" fill="#848bb8" d="M 115.5,127.5 C 114.585,129.754 113.252,131.754 111.5,133.5C 110.833,134.167 110.167,134.833 109.5,135.5C 110.313,132.011 112.313,129.344 115.5,127.5 Z"/></g>
<g><path style="opacity:1" fill="#3a4285" d="M 146.5,127.5 C 146.833,127.5 147.167,127.5 147.5,127.5C 148.262,129.262 149.596,130.262 151.5,130.5C 151.5,131.167 151.833,131.5 152.5,131.5C 151.791,132.404 150.791,132.737 149.5,132.5C 149.167,132.5 148.833,132.5 148.5,132.5C 146.162,130.96 143.495,130.294 140.5,130.5C 137.5,130.5 134.5,130.5 131.5,130.5C 136.749,130.141 141.749,129.141 146.5,127.5 Z"/></g>
<g><path style="opacity:1" fill="#d8dfee" d="M 131.5,130.5 C 134.5,130.5 137.5,130.5 140.5,130.5C 142.838,132.04 145.505,132.706 148.5,132.5C 148.833,132.5 149.167,132.5 149.5,132.5C 149.5,132.833 149.5,133.167 149.5,133.5C 142.134,132.418 134.801,132.418 127.5,133.5C 128.035,131.554 129.368,130.554 131.5,130.5 Z"/></g>
<g><path style="opacity:1" fill="#7e8aba" d="M 140.5,130.5 C 143.495,130.294 146.162,130.96 148.5,132.5C 145.505,132.706 142.838,132.04 140.5,130.5 Z"/></g>
<g><path style="opacity:1" fill="#fcfcfc" d="M 164.5,134.5 C 167.577,134.821 169.91,133.821 171.5,131.5C 176.797,130.725 182.13,130.392 187.5,130.5C 188.806,131.467 189.473,132.801 189.5,134.5C 193.426,135.428 196.093,137.761 197.5,141.5C 197.5,142.167 197.5,142.833 197.5,143.5C 197.476,148.923 196.81,154.257 195.5,159.5C 195.5,160.167 195.5,160.833 195.5,161.5C 193.991,164.678 192.658,168.011 191.5,171.5C 190.094,171.973 189.427,172.973 189.5,174.5C 188.662,174.842 188.328,175.508 188.5,176.5C 186.75,177.659 185.75,179.326 185.5,181.5C 183.75,182.659 182.75,184.326 182.5,186.5C 180.413,187.585 179.08,189.251 178.5,191.5C 177.026,192.436 176.026,193.77 175.5,195.5C 173.983,195.511 172.816,196.177 172,197.5C 168.375,202.957 164.209,207.957 159.5,212.5C 159.5,213.167 159.167,213.5 158.5,213.5C 157.222,213.218 156.222,212.551 155.5,211.5C 154.079,208.991 152.412,206.657 150.5,204.5C 145.546,196.881 140.213,189.548 134.5,182.5C 133.581,179.911 131.914,177.911 129.5,176.5C 129.068,175.29 128.401,174.29 127.5,173.5C 126.773,171.046 125.773,168.713 124.5,166.5C 124.573,164.973 123.906,163.973 122.5,163.5C 121.126,159.316 120.46,154.982 120.5,150.5C 120.503,147.975 120.837,145.641 121.5,143.5C 123.074,141.898 123.741,139.898 123.5,137.5C 125.167,136.5 126.5,135.167 127.5,133.5C 134.801,132.418 142.134,132.418 149.5,133.5C 150.492,133.328 151.158,133.662 151.5,134.5C 153.035,135.788 154.701,135.788 156.5,134.5C 157.012,131.468 158.678,130.301 161.5,131C 159.893,132.049 159.227,133.549 159.5,135.5C 161.415,135.784 163.081,135.451 164.5,134.5 Z"/></g>
<g><path style="opacity:1" fill="#364087" d="M 203.5,127.5 C 203.833,127.5 204.167,127.5 204.5,127.5C 209.015,131.864 211.348,137.198 211.5,143.5C 211.5,144.167 211.5,144.833 211.5,145.5C 210.771,141.358 209.438,137.358 207.5,133.5C 205.145,132.215 203.312,132.215 202,133.5C 202.707,131.689 203.207,129.689 203.5,127.5 Z"/></g>
<g><path style="opacity:1" fill="#8d95c5" d="M 216.5,129.5 C 216.833,129.5 217.167,129.5 217.5,129.5C 219.438,133.982 220.771,138.649 221.5,143.5C 221.813,147.042 221.479,150.375 220.5,153.5C 221.243,145.13 219.909,137.13 216.5,129.5 Z"/></g>
<g><path style="opacity:1" fill="#575990" d="M 167.5,128.5 C 166.71,129.794 165.71,130.961 164.5,132C 164.728,132.399 165.062,132.565 165.5,132.5C 165.167,133.167 164.833,133.833 164.5,134.5C 163.325,134.719 162.325,134.386 161.5,133.5C 162.931,131.062 164.931,129.396 167.5,128.5 Z"/></g>
<g><path style="opacity:1" fill="#cbcef0" d="M 171.5,131.5 C 169.91,133.821 167.577,134.821 164.5,134.5C 164.833,133.833 165.167,133.167 165.5,132.5C 167.565,132.483 169.565,132.15 171.5,131.5 Z"/></g>
<g><path style="opacity:1" fill="#656995" d="M 152.5,131.5 C 155.338,133.306 155.005,134.306 151.5,134.5C 151.158,133.662 150.492,133.328 149.5,133.5C 149.5,133.167 149.5,132.833 149.5,132.5C 150.791,132.737 151.791,132.404 152.5,131.5 Z"/></g>
<g><path style="opacity:1" fill="#969dc8" d="M 127.5,133.5 C 126.5,135.167 125.167,136.5 123.5,137.5C 123.833,135.167 125.167,133.833 127.5,133.5 Z"/></g>
<g><path style="opacity:1" fill="#c1c7e4" d="M 187.5,130.5 C 189.988,130.683 191.988,131.683 193.5,133.5C 195.252,135.246 196.585,137.246 197.5,139.5C 197.5,140.167 197.5,140.833 197.5,141.5C 196.093,137.761 193.426,135.428 189.5,134.5C 189.473,132.801 188.806,131.467 187.5,130.5 Z"/></g>
<g><path style="opacity:1" fill="#1a2c87" d="M 139.5,123.5 C 141.901,124.687 144.235,126.021 146.5,127.5C 141.749,129.141 136.749,130.141 131.5,130.5C 129.368,130.554 128.035,131.554 127.5,133.5C 125.167,133.833 123.833,135.167 123.5,137.5C 122.833,138.167 122.167,138.833 121.5,139.5C 120.883,139.611 120.383,139.944 120,140.5C 119.333,146.833 119.333,153.167 120,159.5C 120.608,161.066 121.442,162.4 122.5,163.5C 122.557,164.609 122.89,165.609 123.5,166.5C 123.5,168.5 123.5,170.5 123.5,172.5C 122.167,172.5 120.833,172.5 119.5,172.5C 119.5,173.5 119.5,174.5 119.5,175.5C 117.774,175.815 116.107,175.981 114.5,176C 115.024,173.07 116.358,170.57 118.5,168.5C 118.167,168.167 117.833,167.833 117.5,167.5C 115.482,169.35 113.649,171.35 112,173.5C 111.45,170.737 110.617,168.07 109.5,165.5C 111.747,160.912 111.747,156.246 109.5,151.5C 109.556,150.263 110.056,149.263 111,148.5C 111.333,151.167 111.667,153.833 112,156.5C 112.234,150.167 112.068,143.834 111.5,137.5C 111.5,136.167 111.5,134.833 111.5,133.5C 113.252,131.754 114.585,129.754 115.5,127.5C 117.517,126.471 119.517,125.471 121.5,124.5C 127.342,122.215 133.342,121.882 139.5,123.5 Z"/></g>
<g><path style="opacity:1" fill="#7880b9" d="M 103.5,132.5 C 103.167,133.833 102.833,135.167 102.5,136.5C 102.167,137.5 101.5,138.167 100.5,138.5C 100.755,136.033 101.755,134.033 103.5,132.5 Z"/></g>
<g><path style="opacity:1" fill="#4a5291" d="M 111.5,133.5 C 111.5,134.833 111.5,136.167 111.5,137.5C 110.143,139.294 108.977,141.294 108,143.5C 107.5,150.158 107.334,156.825 107.5,163.5C 106.508,156.352 106.175,149.019 106.5,141.5C 107.797,139.629 108.797,137.629 109.5,135.5C 110.167,134.833 110.833,134.167 111.5,133.5 Z"/></g>
<g><path style="opacity:1" fill="#8e9abe" d="M 123.5,137.5 C 123.741,139.898 123.074,141.898 121.5,143.5C 121.5,142.167 121.5,140.833 121.5,139.5C 122.167,138.833 122.833,138.167 123.5,137.5 Z"/></g>
<g><path style="opacity:1" fill="#f0f1f6" d="M 106.5,141.5 C 106.175,149.019 106.508,156.352 107.5,163.5C 107.517,165.565 107.85,167.565 108.5,169.5C 108.343,170.873 108.51,172.207 109,173.5C 110.566,176.752 112.399,179.752 114.5,182.5C 115.167,182.833 115.833,183.167 116.5,183.5C 117.473,185.149 118.473,186.816 119.5,188.5C 119.427,190.027 120.094,191.027 121.5,191.5C 123.547,193.55 125.214,195.883 126.5,198.5C 126.427,200.027 127.094,201.027 128.5,201.5C 130.172,204.213 131.838,206.88 133.5,209.5C 134.5,210.833 135.5,212.167 136.5,213.5C 137.674,214.514 138.34,215.847 138.5,217.5C 138.427,219.027 139.094,220.027 140.5,220.5C 140.5,221.167 140.5,221.833 140.5,222.5C 138.376,221.969 136.876,220.635 136,218.5C 135.667,218.833 135.333,219.167 135,219.5C 135.16,222.843 135.66,226.176 136.5,229.5C 135.167,227.5 133.833,225.5 132.5,223.5C 132.5,223.167 132.5,222.833 132.5,222.5C 132.34,220.847 131.674,219.514 130.5,218.5C 130.573,216.973 129.906,215.973 128.5,215.5C 126.819,212.797 125.153,210.131 123.5,207.5C 122.92,205.251 121.587,203.585 119.5,202.5C 119.34,200.847 118.674,199.514 117.5,198.5C 117.262,196.596 116.262,195.262 114.5,194.5C 113.5,192.5 112.5,190.5 111.5,188.5C 111.573,186.973 110.906,185.973 109.5,185.5C 109.573,183.973 108.906,182.973 107.5,182.5C 107.672,181.508 107.338,180.842 106.5,180.5C 105.925,177.088 104.592,174.088 102.5,171.5C 101.151,167.411 99.8181,163.411 98.5,159.5C 98.0501,152.334 98.7168,145.334 100.5,138.5C 101.5,138.167 102.167,137.5 102.5,136.5C 104.148,135.19 105.814,133.857 107.5,132.5C 107.833,132.833 108.167,133.167 108.5,133.5C 105.976,135.831 105.309,138.497 106.5,141.5 Z"/></g>
<g><path style="opacity:1" fill="#424a88" d="M 197.5,139.5 C 199.017,141.462 199.684,143.795 199.5,146.5C 199.493,148.369 199.16,150.036 198.5,151.5C 198.806,148.615 198.473,145.948 197.5,143.5C 197.5,142.833 197.5,142.167 197.5,141.5C 197.5,140.833 197.5,140.167 197.5,139.5 Z"/></g>
<g><path style="opacity:1" fill="#adb2d6" d="M 197.5,143.5 C 198.473,145.948 198.806,148.615 198.5,151.5C 197.795,154.354 196.795,157.021 195.5,159.5C 196.81,154.257 197.476,148.923 197.5,143.5 Z"/></g>
<g><path style="opacity:1" fill="#4f5a9b" d="M 221.5,143.5 C 222.643,146.976 222.81,150.642 222,154.5C 222.07,157.992 221.237,160.992 219.5,163.5C 220.051,160.193 220.384,156.86 220.5,153.5C 221.479,150.375 221.813,147.042 221.5,143.5 Z"/></g>
<g><path style="opacity:1" fill="#bcc2e2" d="M 234.5,133.5 C 235.79,134.058 236.623,135.058 237,136.5C 237.822,144.345 237.656,152.011 236.5,159.5C 236.745,150.751 236.078,142.085 234.5,133.5 Z"/></g>
<g><path style="opacity:1" fill="#a9b5d4" d="M 83.5,144.5 C 83.5676,152.514 83.901,160.514 84.5,168.5C 82.9669,164.104 82.3002,159.437 82.5,154.5C 82.5016,150.982 82.8349,147.649 83.5,144.5 Z"/></g>
<g><path style="opacity:1" fill="#293481" d="M 85.5,141.5 C 85.8333,141.5 86.1667,141.5 86.5,141.5C 86.8212,143.048 87.8212,143.715 89.5,143.5C 89.7692,145.429 89.2692,147.095 88,148.5C 87.6924,147.692 87.1924,147.025 86.5,146.5C 85.2943,154.84 85.2943,163.174 86.5,171.5C 85.8333,170.5 85.1667,169.5 84.5,168.5C 83.901,160.514 83.5676,152.514 83.5,144.5C 83.9321,143.29 84.5987,142.29 85.5,141.5 Z"/></g>
<g><path style="opacity:1" fill="#394388" d="M 121.5,139.5 C 121.5,140.833 121.5,142.167 121.5,143.5C 120.837,145.641 120.503,147.975 120.5,150.5C 120.46,154.982 121.126,159.316 122.5,163.5C 121.442,162.4 120.608,161.066 120,159.5C 119.333,153.167 119.333,146.833 120,140.5C 120.383,139.944 120.883,139.611 121.5,139.5 Z"/></g>
<g><path style="opacity:1" fill="#6376a1" d="M 211.5,143.5 C 212.761,148.9 212.428,154.233 210.5,159.5C 210.833,154.833 211.167,150.167 211.5,145.5C 211.5,144.833 211.5,144.167 211.5,143.5 Z"/></g>
<g><path style="opacity:1" fill="#1f2f82" d="M 111.5,137.5 C 112.068,143.834 112.234,150.167 112,156.5C 111.667,153.833 111.333,151.167 111,148.5C 110.056,149.263 109.556,150.263 109.5,151.5C 111.747,156.246 111.747,160.912 109.5,165.5C 110.617,168.07 111.45,170.737 112,173.5C 113.649,171.35 115.482,169.35 117.5,167.5C 117.833,167.833 118.167,168.167 118.5,168.5C 116.358,170.57 115.024,173.07 114.5,176C 116.107,175.981 117.774,175.815 119.5,175.5C 119.5,174.5 119.5,173.5 119.5,172.5C 120.833,172.5 122.167,172.5 123.5,172.5C 123.5,170.5 123.5,168.5 123.5,166.5C 123.833,166.5 124.167,166.5 124.5,166.5C 125.773,168.713 126.773,171.046 127.5,173.5C 125.071,173.884 122.737,174.551 120.5,175.5C 120.5,176.5 120.5,177.5 120.5,178.5C 116.843,178.12 115.843,179.453 117.5,182.5C 118.818,185.245 120.985,186.912 124,187.5C 125.333,190.833 126.667,194.167 128,197.5C 128.483,196.552 128.649,195.552 128.5,194.5C 130.167,194.5 131.833,194.5 133.5,194.5C 133.5,196.167 133.5,197.833 133.5,199.5C 134.833,199.5 136.167,199.5 137.5,199.5C 138.067,202.911 136.734,204.911 133.5,205.5C 131.833,204.167 130.167,202.833 128.5,201.5C 128.573,199.973 127.906,198.973 126.5,198.5C 125.214,195.883 123.547,193.55 121.5,191.5C 121.573,189.973 120.906,188.973 119.5,188.5C 118.473,186.816 117.473,185.149 116.5,183.5C 116.573,181.973 115.906,180.973 114.5,180.5C 112.459,176.809 110.459,173.142 108.5,169.5C 107.85,167.565 107.517,165.565 107.5,163.5C 107.334,156.825 107.5,150.158 108,143.5C 108.977,141.294 110.143,139.294 111.5,137.5 Z"/></g>
<g><path style="opacity:1" fill="#949bc7" d="M 210.5,160.5 C 210.277,164.162 209.277,167.495 207.5,170.5C 207.723,166.838 208.723,163.505 210.5,160.5 Z"/></g>
<g><path style="opacity:1" fill="#545e98" d="M 195.5,161.5 C 195.493,165.554 194.16,168.887 191.5,171.5C 192.658,168.011 193.991,164.678 195.5,161.5 Z"/></g>
<g><path style="opacity:1" fill="#8c93c3" d="M 122.5,163.5 C 123.906,163.973 124.573,164.973 124.5,166.5C 124.167,166.5 123.833,166.5 123.5,166.5C 122.89,165.609 122.557,164.609 122.5,163.5 Z"/></g>
<g><path style="opacity:1" fill="#535c9d" d="M 219.5,164.5 C 219.859,168.131 218.525,170.798 215.5,172.5C 216.853,169.795 218.186,167.128 219.5,164.5 Z"/></g>
<g><path style="opacity:1" fill="#2d3987" d="M 98.5,159.5 C 99.8181,163.411 101.151,167.411 102.5,171.5C 101.06,170.637 99.7264,170.637 98.5,171.5C 97.8155,167.554 97.8155,163.554 98.5,159.5 Z"/></g>
<g><path style="opacity:1" fill="#9aa5ce" d="M 235.5,161.5 C 235.663,163.857 235.497,166.19 235,168.5C 234.617,169.056 234.117,169.389 233.5,169.5C 233.963,166.67 234.629,164.003 235.5,161.5 Z"/></g>
<g><path style="opacity:1" fill="#1a2b87" d="M 95.5,121.5 C 96.4959,121.414 97.3292,121.748 98,122.5C 99.0197,128.978 98.1864,135.145 95.5,141C 96.9608,147.224 97.9608,153.391 98.5,159.5C 97.8155,163.554 97.8155,167.554 98.5,171.5C 99.7264,170.637 101.06,170.637 102.5,171.5C 102.674,173.861 103.007,176.194 103.5,178.5C 101.146,179.494 100.146,178.494 100.5,175.5C 99.5,175.5 98.5,175.5 97.5,175.5C 98.7997,180.484 100.133,185.484 101.5,190.5C 99.8333,191.833 98.1667,191.833 96.5,190.5C 96.7093,189.914 97.0426,189.414 97.5,189C 96.2298,188.1 95.2298,186.934 94.5,185.5C 93.5832,184.873 92.5832,184.539 91.5,184.5C 91.0679,183.29 90.4013,182.29 89.5,181.5C 87.698,178.426 86.698,175.092 86.5,171.5C 85.2943,163.174 85.2943,154.84 86.5,146.5C 87.1924,147.025 87.6924,147.692 88,148.5C 89.2692,147.095 89.7692,145.429 89.5,143.5C 87.8212,143.715 86.8212,143.048 86.5,141.5C 88.075,136.897 89.4083,132.231 90.5,127.5C 91.5,127.5 92.5,127.5 93.5,127.5C 93.2525,125.142 93.9192,123.142 95.5,121.5 Z"/></g>
<g><path style="opacity:1" fill="#7479a8" d="M 191.5,171.5 C 191.573,173.027 190.906,174.027 189.5,174.5C 189.427,172.973 190.094,171.973 191.5,171.5 Z"/></g>
<g><path style="opacity:1" fill="#97a2ca" d="M 207.5,171.5 C 207.34,173.153 206.674,174.486 205.5,175.5C 205.229,173.62 205.896,172.287 207.5,171.5 Z"/></g>
<g><path style="opacity:1" fill="#3b4384" d="M 102.5,171.5 C 104.592,174.088 105.925,177.088 106.5,180.5C 104.821,180.715 103.821,180.048 103.5,178.5C 103.007,176.194 102.674,173.861 102.5,171.5 Z"/></g>
<g><path style="opacity:1" fill="#99a4cb" d="M 231.5,175.5 C 231.585,178.649 230.585,181.316 228.5,183.5C 228.733,180.458 229.733,177.792 231.5,175.5 Z"/></g>
<g><path style="opacity:1" fill="#bbbfe2" d="M 108.5,169.5 C 110.459,173.142 112.459,176.809 114.5,180.5C 114.5,181.167 114.5,181.833 114.5,182.5C 112.399,179.752 110.566,176.752 109,173.5C 108.51,172.207 108.343,170.873 108.5,169.5 Z"/></g>
<g><path style="opacity:1" fill="#b4bce1" d="M 205.5,175.5 C 205.88,177.698 205.213,179.365 203.5,180.5C 203.12,178.302 203.787,176.635 205.5,175.5 Z"/></g>
<g><path style="opacity:1" fill="#7077b2" d="M 129.5,176.5 C 131.914,177.911 133.581,179.911 134.5,182.5C 134.167,182.5 133.833,182.5 133.5,182.5C 131.748,180.754 130.415,178.754 129.5,176.5 Z"/></g>
<g><path style="opacity:1" fill="#6168a7" d="M 188.5,176.5 C 188.408,178.848 187.408,180.514 185.5,181.5C 185.75,179.326 186.75,177.659 188.5,176.5 Z"/></g>
<g><path style="opacity:1" fill="#6e74af" d="M 114.5,180.5 C 115.906,180.973 116.573,181.973 116.5,183.5C 115.833,183.167 115.167,182.833 114.5,182.5C 114.5,181.833 114.5,181.167 114.5,180.5 Z"/></g>
<g><path style="opacity:1" fill="#99a2cd" d="M 212.5,180.5 C 212.573,182.027 211.906,183.027 210.5,183.5C 210.427,181.973 211.094,180.973 212.5,180.5 Z"/></g>
<g><path style="opacity:1" fill="#9ea5cc" d="M 89.5,181.5 C 90.4013,182.29 91.0679,183.29 91.5,184.5C 92.1098,185.391 92.4431,186.391 92.5,187.5C 90.0311,186.393 89.0311,184.393 89.5,181.5 Z"/></g>
<g><path style="opacity:1" fill="#8a92c2" d="M 107.5,182.5 C 108.906,182.973 109.573,183.973 109.5,185.5C 108.094,185.027 107.427,184.027 107.5,182.5 Z"/></g>
<g><path style="opacity:1" fill="#555c97" d="M 185.5,181.5 C 186.084,184.285 185.084,185.952 182.5,186.5C 182.75,184.326 183.75,182.659 185.5,181.5 Z"/></g>
<g><path style="opacity:1" fill="#8086b6" d="M 201.5,183.5 C 201.573,185.027 200.906,186.027 199.5,186.5C 199.427,184.973 200.094,183.973 201.5,183.5 Z"/></g>
<g><path style="opacity:1" fill="#97a5d2" d="M 109.5,185.5 C 110.906,185.973 111.573,186.973 111.5,188.5C 110.094,188.027 109.427,187.027 109.5,185.5 Z"/></g>
<g><path style="opacity:1" fill="#a7b0d4" d="M 228.5,183.5 C 228.464,187.2 226.797,189.867 223.5,191.5C 224.669,188.489 226.336,185.822 228.5,183.5 Z"/></g>
<g><path style="opacity:1" fill="#1c2d85" d="M 182.5,122.5 C 186.466,123.162 190.466,123.495 194.5,123.5C 196.833,124.167 199.167,124.833 201.5,125.5C 201.833,126.5 202.5,127.167 203.5,127.5C 203.207,129.689 202.707,131.689 202,133.5C 203.312,132.215 205.145,132.215 207.5,133.5C 209.438,137.358 210.771,141.358 211.5,145.5C 211.167,150.167 210.833,154.833 210.5,159.5C 210.5,159.833 210.5,160.167 210.5,160.5C 208.723,163.505 207.723,166.838 207.5,170.5C 207.5,170.833 207.5,171.167 207.5,171.5C 205.896,172.287 205.229,173.62 205.5,175.5C 203.787,176.635 203.12,178.302 203.5,180.5C 202.094,180.973 201.427,181.973 201.5,183.5C 200.094,183.973 199.427,184.973 199.5,186.5C 198.087,189.661 196.42,192.661 194.5,195.5C 192.738,196.262 191.738,197.596 191.5,199.5C 190.094,199.973 189.427,200.973 189.5,202.5C 187.413,203.585 186.08,205.251 185.5,207.5C 184.728,208.694 183.728,209.694 182.5,210.5C 182.5,209.5 182.5,208.5 182.5,207.5C 180.263,206.551 177.929,205.884 175.5,205.5C 175.855,203.11 176.522,200.777 177.5,198.5C 177.36,196.97 176.693,195.97 175.5,195.5C 176.026,193.77 177.026,192.436 178.5,191.5C 180.587,190.415 181.92,188.749 182.5,186.5C 185.084,185.952 186.084,184.285 185.5,181.5C 187.408,180.514 188.408,178.848 188.5,176.5C 188.328,175.508 188.662,174.842 189.5,174.5C 190.906,174.027 191.573,173.027 191.5,171.5C 194.16,168.887 195.493,165.554 195.5,161.5C 195.5,160.833 195.5,160.167 195.5,159.5C 196.795,157.021 197.795,154.354 198.5,151.5C 199.16,150.036 199.493,148.369 199.5,146.5C 199.684,143.795 199.017,141.462 197.5,139.5C 196.585,137.246 195.252,135.246 193.5,133.5C 193.489,131.983 192.823,130.816 191.5,130C 188.357,127.926 185.024,126.093 181.5,124.5C 181.863,123.817 182.196,123.15 182.5,122.5 Z"/></g>
<g><path style="opacity:1" fill="#939cd5" d="M 119.5,188.5 C 120.906,188.973 121.573,189.973 121.5,191.5C 120.094,191.027 119.427,190.027 119.5,188.5 Z"/></g>
<g><path style="opacity:1" fill="#7a7fb9" d="M 182.5,186.5 C 181.92,188.749 180.587,190.415 178.5,191.5C 179.08,189.251 180.413,187.585 182.5,186.5 Z"/></g>
<g><path style="opacity:1" fill="#1f2f84" d="M 103.5,178.5 C 103.821,180.048 104.821,180.715 106.5,180.5C 107.338,180.842 107.672,181.508 107.5,182.5C 107.427,184.027 108.094,185.027 109.5,185.5C 109.427,187.027 110.094,188.027 111.5,188.5C 112.5,190.5 113.5,192.5 114.5,194.5C 114.738,196.404 115.738,197.738 117.5,198.5C 118.674,199.514 119.34,200.847 119.5,202.5C 120.08,204.749 121.413,206.415 123.5,207.5C 125.153,210.131 126.819,212.797 128.5,215.5C 128.427,217.027 129.094,218.027 130.5,218.5C 131.674,219.514 132.34,220.847 132.5,222.5C 131.033,221.708 129.7,221.708 128.5,222.5C 129.681,224.198 129.681,225.865 128.5,227.5C 126.297,222.922 124.963,218.088 124.5,213C 123.107,210.822 121.44,209.822 119.5,210C 118.937,207.273 118.27,204.607 117.5,202C 114.771,201.995 112.771,200.829 111.5,198.5C 111.167,199 110.833,199.5 110.5,200C 112.628,201.987 113.628,204.487 113.5,207.5C 112.022,207.238 110.689,207.571 109.5,208.5C 111.386,209.406 113.22,210.406 115,211.5C 115.333,213.833 115.667,216.167 116,218.5C 117.011,219.337 118.178,219.67 119.5,219.5C 120.052,221.331 120.052,222.997 119.5,224.5C 121.048,224.212 122.715,224.212 124.5,224.5C 123.408,226.183 122.741,228.016 122.5,230C 124.448,235.444 126.448,240.944 128.5,246.5C 129.547,243.934 130.214,241.267 130.5,238.5C 129.732,235.846 129.566,233.179 130,230.5C 131.385,231.551 132.385,232.884 133,234.5C 133.667,238.167 133.667,241.833 133,245.5C 129.881,248.027 128.715,251.36 129.5,255.5C 130.5,255.5 131.5,255.5 132.5,255.5C 132.192,253.076 132.526,250.743 133.5,248.5C 134.417,247.873 135.417,247.539 136.5,247.5C 136.483,249.565 136.15,251.565 135.5,253.5C 133.084,258.001 130.417,262.334 127.5,266.5C 128.263,263.859 128.43,261.192 128,258.5C 126.847,263.748 124.18,265.082 120,262.5C 119.329,263.252 118.496,263.586 117.5,263.5C 117.833,262.833 118.167,262.167 118.5,261.5C 120.969,260.393 121.969,258.393 121.5,255.5C 122.222,255.082 122.722,254.416 123,253.5C 124.01,245.999 123.51,238.665 121.5,231.5C 121.573,229.973 120.906,228.973 119.5,228.5C 119.672,227.508 119.338,226.842 118.5,226.5C 118.573,224.973 117.906,223.973 116.5,223.5C 115.921,220.669 114.588,218.336 112.5,216.5C 110.262,211.929 107.262,207.929 103.5,204.5C 103.25,202.326 102.25,200.659 100.5,199.5C 100.262,197.596 99.2624,196.262 97.5,195.5C 97.573,193.973 96.9063,192.973 95.5,192.5C 94.7368,190.632 93.7368,188.965 92.5,187.5C 92.4431,186.391 92.1098,185.391 91.5,184.5C 92.5832,184.539 93.5832,184.873 94.5,185.5C 95.2298,186.934 96.2298,188.1 97.5,189C 97.0426,189.414 96.7093,189.914 96.5,190.5C 98.1667,191.833 99.8333,191.833 101.5,190.5C 100.133,185.484 98.7997,180.484 97.5,175.5C 98.5,175.5 99.5,175.5 100.5,175.5C 100.146,178.494 101.146,179.494 103.5,178.5 Z"/></g>
<g><path style="opacity:1" fill="#192b87" d="M 127.5,173.5 C 128.401,174.29 129.068,175.29 129.5,176.5C 130.415,178.754 131.748,180.754 133.5,182.5C 133.5,184.5 133.5,186.5 133.5,188.5C 134.5,188.5 135.5,188.5 136.5,188.5C 136.52,190.143 135.853,191.476 134.5,192.5C 135.325,193.386 136.325,193.719 137.5,193.5C 137.284,198.587 139.118,199.587 143,196.5C 143.167,197 143.333,197.5 143.5,198C 140.91,201.421 140.91,204.921 143.5,208.5C 143.333,209.5 143.167,210.5 143,211.5C 141.488,209.043 140.154,209.043 139,211.5C 138.55,208.894 137.05,207.561 134.5,207.5C 134.167,207.5 133.833,207.5 133.5,207.5C 133.5,206.833 133.5,206.167 133.5,205.5C 136.734,204.911 138.067,202.911 137.5,199.5C 136.167,199.5 134.833,199.5 133.5,199.5C 133.5,197.833 133.5,196.167 133.5,194.5C 131.833,194.5 130.167,194.5 128.5,194.5C 128.649,195.552 128.483,196.552 128,197.5C 126.667,194.167 125.333,190.833 124,187.5C 120.985,186.912 118.818,185.245 117.5,182.5C 115.843,179.453 116.843,178.12 120.5,178.5C 120.5,177.5 120.5,176.5 120.5,175.5C 122.737,174.551 125.071,173.884 127.5,173.5 Z"/></g>
<g><path style="opacity:1" fill="#9ba3d5" d="M 223.5,191.5 C 223.573,193.027 222.906,194.027 221.5,194.5C 221.427,192.973 222.094,191.973 223.5,191.5 Z"/></g>
<g><path style="opacity:1" fill="#f3f5f8" d="M 206.5,118.5 C 209.009,119.921 211.343,121.588 213.5,123.5C 214.5,125.5 215.5,127.5 216.5,129.5C 219.909,137.13 221.243,145.13 220.5,153.5C 220.384,156.86 220.051,160.193 219.5,163.5C 219.5,163.833 219.5,164.167 219.5,164.5C 218.186,167.128 216.853,169.795 215.5,172.5C 214.344,175.079 213.344,177.745 212.5,180.5C 211.094,180.973 210.427,181.973 210.5,183.5C 209.5,186.167 208.5,188.833 207.5,191.5C 206.094,191.973 205.427,192.973 205.5,194.5C 204.094,194.973 203.427,195.973 203.5,197.5C 202.094,197.973 201.427,198.973 201.5,200.5C 199.413,201.585 198.08,203.251 197.5,205.5C 195.102,208.571 193.102,211.905 191.5,215.5C 187.043,218.619 183.709,222.619 181.5,227.5C 174.167,234.167 167.167,241.167 160.5,248.5C 157.236,250.094 154.569,252.427 152.5,255.5C 151.508,255.328 150.842,255.662 150.5,256.5C 149.127,256.657 147.793,256.49 146.5,256C 148.765,254.242 150.432,252.075 151.5,249.5C 151.5,248.167 152.167,247.5 153.5,247.5C 154.833,246.833 155.833,245.833 156.5,244.5C 157.167,243.167 158.167,242.167 159.5,241.5C 164.584,236.752 168.917,231.419 172.5,225.5C 172.738,223.596 173.738,222.262 175.5,221.5C 177.554,218.764 180.054,216.431 183,214.5C 184.118,212.235 184.951,209.901 185.5,207.5C 187.587,206.415 188.92,204.749 189.5,202.5C 190.906,202.027 191.573,201.027 191.5,199.5C 193.262,198.738 194.262,197.404 194.5,195.5C 196.42,192.661 198.087,189.661 199.5,186.5C 200.906,186.027 201.573,185.027 201.5,183.5C 201.427,181.973 202.094,180.973 203.5,180.5C 205.213,179.365 205.88,177.698 205.5,175.5C 206.674,174.486 207.34,173.153 207.5,171.5C 207.5,171.167 207.5,170.833 207.5,170.5C 209.277,167.495 210.277,164.162 210.5,160.5C 210.5,160.167 210.5,159.833 210.5,159.5C 212.428,154.233 212.761,148.9 211.5,143.5C 211.348,137.198 209.015,131.864 204.5,127.5C 204.027,126.094 203.027,125.427 201.5,125.5C 199.824,123.166 197.491,122.166 194.5,122.5C 189.848,122.002 185.181,121.669 180.5,121.5C 178.085,121.627 175.751,121.793 173.5,122C 174.823,121.184 175.489,120.017 175.5,118.5C 175.5,118.167 175.5,117.833 175.5,117.5C 185.944,114.596 196.277,114.93 206.5,118.5 Z"/></g>
<g><path style="opacity:1" fill="#6a77a8" d="M 207.5,191.5 C 207.573,193.027 206.906,194.027 205.5,194.5C 205.427,192.973 206.094,191.973 207.5,191.5 Z"/></g>
<g><path style="opacity:1" fill="#98a1d2" d="M 95.5,192.5 C 96.9063,192.973 97.573,193.973 97.5,195.5C 96.0937,195.027 95.427,194.027 95.5,192.5 Z"/></g>
<g><path style="opacity:1" fill="#6e75a8" d="M 114.5,194.5 C 116.262,195.262 117.262,196.596 117.5,198.5C 115.738,197.738 114.738,196.404 114.5,194.5 Z"/></g>
<g><path style="opacity:1" fill="#7682ad" d="M 205.5,194.5 C 205.573,196.027 204.906,197.027 203.5,197.5C 203.427,195.973 204.094,194.973 205.5,194.5 Z"/></g>
<g><path style="opacity:1" fill="#8c94bd" d="M 97.5,195.5 C 99.2624,196.262 100.262,197.596 100.5,199.5C 98.7376,198.738 97.7376,197.404 97.5,195.5 Z"/></g>
<g><path style="opacity:1" fill="#a5aad3" d="M 194.5,195.5 C 194.262,197.404 193.262,198.738 191.5,199.5C 191.738,197.596 192.738,196.262 194.5,195.5 Z"/></g>
<g><path style="opacity:1" fill="#7e88b8" d="M 221.5,194.5 C 220.92,196.749 219.587,198.415 217.5,199.5C 218.08,197.251 219.413,195.585 221.5,194.5 Z"/></g>
<g><path style="opacity:1" fill="#7781ae" d="M 203.5,197.5 C 203.573,199.027 202.906,200.027 201.5,200.5C 201.427,198.973 202.094,197.973 203.5,197.5 Z"/></g>
<g><path style="opacity:1" fill="#a4addf" d="M 126.5,198.5 C 127.906,198.973 128.573,199.973 128.5,201.5C 127.094,201.027 126.427,200.027 126.5,198.5 Z"/></g>
<g><path style="opacity:1" fill="#96a0c6" d="M 191.5,199.5 C 191.573,201.027 190.906,202.027 189.5,202.5C 189.427,200.973 190.094,199.973 191.5,199.5 Z"/></g>
<g><path style="opacity:1" fill="#1d2d85" d="M 231.5,127.5 C 232.5,129.5 233.5,131.5 234.5,133.5C 236.078,142.085 236.745,150.751 236.5,159.5C 235.662,159.842 235.328,160.508 235.5,161.5C 234.629,164.003 233.963,166.67 233.5,169.5C 232.637,171.421 231.971,173.421 231.5,175.5C 229.733,177.792 228.733,180.458 228.5,183.5C 226.336,185.822 224.669,188.489 223.5,191.5C 222.094,191.973 221.427,192.973 221.5,194.5C 219.413,195.585 218.08,197.251 217.5,199.5C 215.412,201.336 214.079,203.669 213.5,206.5C 210.757,208.239 208.757,210.573 207.5,213.5C 203.213,217.45 198.88,221.45 194.5,225.5C 192.857,225.48 191.524,226.147 190.5,227.5C 185.478,225.234 185.645,222.901 191,220.5C 191.333,221.167 191.667,221.833 192,222.5C 192.384,220.803 192.218,219.137 191.5,217.5C 191.5,216.833 191.5,216.167 191.5,215.5C 193.017,215.511 194.184,216.177 195,217.5C 195.497,215.19 195.663,212.857 195.5,210.5C 196.5,210.5 197.5,210.5 198.5,210.5C 198.517,208.435 198.85,206.435 199.5,204.5C 200.6,203.395 201.267,202.062 201.5,200.5C 202.906,200.027 203.573,199.027 203.5,197.5C 204.906,197.027 205.573,196.027 205.5,194.5C 206.906,194.027 207.573,193.027 207.5,191.5C 208.5,188.833 209.5,186.167 210.5,183.5C 211.906,183.027 212.573,182.027 212.5,180.5C 213.344,177.745 214.344,175.079 215.5,172.5C 218.525,170.798 219.859,168.131 219.5,164.5C 219.5,164.167 219.5,163.833 219.5,163.5C 221.237,160.992 222.07,157.992 222,154.5C 222.81,150.642 222.643,146.976 221.5,143.5C 220.771,138.649 219.438,133.982 217.5,129.5C 217.5,127.833 217.5,126.167 217.5,124.5C 220.238,123.965 222.072,124.965 223,127.5C 224.726,126.424 226.559,126.257 228.5,127C 226.895,129.733 225.895,132.733 225.5,136C 226.448,136.483 227.448,136.649 228.5,136.5C 228.928,133.215 229.928,130.215 231.5,127.5 Z"/></g>
<g><path style="opacity:1" fill="#b9bede" d="M 100.5,199.5 C 102.25,200.659 103.25,202.326 103.5,204.5C 100.916,203.952 99.9162,202.285 100.5,199.5 Z"/></g>
<g><path style="opacity:1" fill="#767cad" d="M 119.5,202.5 C 121.587,203.585 122.92,205.251 123.5,207.5C 121.413,206.415 120.08,204.749 119.5,202.5 Z"/></g>
<g><path style="opacity:1" fill="#8c97c1" d="M 189.5,202.5 C 188.92,204.749 187.587,206.415 185.5,207.5C 186.08,205.251 187.413,203.585 189.5,202.5 Z"/></g>
<g><path style="opacity:1" fill="#9fa4d1" d="M 201.5,200.5 C 201.267,202.062 200.6,203.395 199.5,204.5C 198.833,204.833 198.167,205.167 197.5,205.5C 198.08,203.251 199.413,201.585 201.5,200.5 Z"/></g>
<g><path style="opacity:1" fill="#8e95c2" d="M 128.5,201.5 C 130.167,202.833 131.833,204.167 133.5,205.5C 133.5,206.167 133.5,206.833 133.5,207.5C 133.5,208.167 133.5,208.833 133.5,209.5C 131.838,206.88 130.172,204.213 128.5,201.5 Z"/></g>
<g><path style="opacity:1" fill="#6571a7" d="M 175.5,195.5 C 171.833,200.167 168.167,204.833 164.5,209.5C 163.078,210.925 161.411,211.925 159.5,212.5C 164.209,207.957 168.375,202.957 172,197.5C 172.816,196.177 173.983,195.511 175.5,195.5 Z"/></g>
<g><path style="opacity:1" fill="#b7c2df" d="M 217.5,199.5 C 217.649,200.552 217.483,201.552 217,202.5C 216.26,204.319 215.093,205.652 213.5,206.5C 214.079,203.669 215.412,201.336 217.5,199.5 Z"/></g>
<g><path style="opacity:1" fill="#d5deed" d="M 103.5,204.5 C 107.262,207.929 110.262,211.929 112.5,216.5C 110.51,214.233 108.343,212.9 106,212.5C 104.856,209.92 104.022,207.253 103.5,204.5 Z"/></g>
<g><path style="opacity:1" fill="#515b98" d="M 133.5,207.5 C 133.833,207.5 134.167,207.5 134.5,207.5C 136.075,209.114 136.741,211.114 136.5,213.5C 135.5,212.167 134.5,210.833 133.5,209.5C 133.5,208.833 133.5,208.167 133.5,207.5 Z"/></g>
<g><path style="opacity:1" fill="#1a2b87" d="M 175.5,195.5 C 176.693,195.97 177.36,196.97 177.5,198.5C 176.522,200.777 175.855,203.11 175.5,205.5C 177.929,205.884 180.263,206.551 182.5,207.5C 182.5,208.5 182.5,209.5 182.5,210.5C 179.772,213.899 177.439,217.566 175.5,221.5C 173.738,222.262 172.738,223.596 172.5,225.5C 168.788,228.211 165.788,231.544 163.5,235.5C 161.019,235.677 159.186,234.677 158,232.5C 157.821,229.447 157.321,226.447 156.5,223.5C 155.277,228.164 155.277,232.831 156.5,237.5C 155.106,239.646 154.44,241.979 154.5,244.5C 154.5,245.167 154.167,245.5 153.5,245.5C 152.325,245.719 151.325,245.386 150.5,244.5C 151.852,241.832 152.519,238.999 152.5,236C 151.877,231.853 151.544,227.686 151.5,223.5C 152.552,223.649 153.552,223.483 154.5,223C 152.406,221.648 150.073,221.148 147.5,221.5C 147.689,227.626 148.356,233.626 149.5,239.5C 148.5,239.5 147.5,239.5 146.5,239.5C 146.325,233.617 145.659,227.783 144.5,222C 145.603,215.444 145.77,208.944 145,202.5C 146.815,203.244 148.648,203.911 150.5,204.5C 150.453,209.188 152.12,213.021 155.5,216C 159.846,215.817 162.846,213.65 164.5,209.5C 168.167,204.833 171.833,200.167 175.5,195.5 Z"/></g>
<g><path style="opacity:1" fill="#b3bbdc" d="M 213.5,206.5 C 212.243,209.427 210.243,211.761 207.5,213.5C 208.757,210.573 210.757,208.239 213.5,206.5 Z"/></g>
<g><path style="opacity:1" fill="#283487" d="M 133.5,182.5 C 133.833,182.5 134.167,182.5 134.5,182.5C 140.213,189.548 145.546,196.881 150.5,204.5C 148.648,203.911 146.815,203.244 145,202.5C 145.77,208.944 145.603,215.444 144.5,222C 145.659,227.783 146.325,233.617 146.5,239.5C 146.795,241.735 146.461,243.735 145.5,245.5C 145.876,239.66 145.21,233.994 143.5,228.5C 142.871,225.603 141.871,222.936 140.5,220.5C 140.573,218.973 139.906,217.973 138.5,217.5C 138.34,215.847 137.674,214.514 136.5,213.5C 136.741,211.114 136.075,209.114 134.5,207.5C 137.05,207.561 138.55,208.894 139,211.5C 140.154,209.043 141.488,209.043 143,211.5C 143.167,210.5 143.333,209.5 143.5,208.5C 140.91,204.921 140.91,201.421 143.5,198C 143.333,197.5 143.167,197 143,196.5C 139.118,199.587 137.284,198.587 137.5,193.5C 136.325,193.719 135.325,193.386 134.5,192.5C 135.853,191.476 136.52,190.143 136.5,188.5C 135.5,188.5 134.5,188.5 133.5,188.5C 133.5,186.5 133.5,184.5 133.5,182.5 Z"/></g>
<g><path style="opacity:1" fill="#2a357c" d="M 150.5,204.5 C 152.412,206.657 154.079,208.991 155.5,211.5C 155.5,212.5 155.5,213.5 155.5,214.5C 156.791,214.737 157.791,214.404 158.5,213.5C 159.167,213.5 159.5,213.167 159.5,212.5C 161.411,211.925 163.078,210.925 164.5,209.5C 162.846,213.65 159.846,215.817 155.5,216C 152.12,213.021 150.453,209.188 150.5,204.5 Z"/></g>
<g><path style="opacity:1" fill="#99a2d5" d="M 155.5,211.5 C 156.222,212.551 157.222,213.218 158.5,213.5C 157.791,214.404 156.791,214.737 155.5,214.5C 155.5,213.5 155.5,212.5 155.5,211.5 Z"/></g>
<g><path style="opacity:1" fill="#c0c7e3" d="M 185.5,207.5 C 184.951,209.901 184.118,212.235 183,214.5C 180.054,216.431 177.554,218.764 175.5,221.5C 177.439,217.566 179.772,213.899 182.5,210.5C 183.728,209.694 184.728,208.694 185.5,207.5 Z"/></g>
<g><path style="opacity:1" fill="#35408a" d="M 199.5,204.5 C 198.85,206.435 198.517,208.435 198.5,210.5C 197.5,210.5 196.5,210.5 195.5,210.5C 195.663,212.857 195.497,215.19 195,217.5C 194.184,216.177 193.017,215.511 191.5,215.5C 193.102,211.905 195.102,208.571 197.5,205.5C 198.167,205.167 198.833,204.833 199.5,204.5 Z"/></g>
<g><path style="opacity:1" fill="#7a88b5" d="M 128.5,215.5 C 129.906,215.973 130.573,216.973 130.5,218.5C 129.094,218.027 128.427,217.027 128.5,215.5 Z"/></g>
<g><path style="opacity:1" fill="#96a1d2" d="M 138.5,217.5 C 139.906,217.973 140.573,218.973 140.5,220.5C 139.094,220.027 138.427,219.027 138.5,217.5 Z"/></g>
<g><path style="opacity:1" fill="#6a74a9" d="M 191.5,215.5 C 191.5,216.167 191.5,216.833 191.5,217.5C 187.806,220.527 184.473,223.86 181.5,227.5C 183.709,222.619 187.043,218.619 191.5,215.5 Z"/></g>
<g><path style="opacity:1" fill="#9da6ca" d="M 207.5,213.5 C 206.496,214.683 205.662,216.016 205,217.5C 200.693,221.858 196.193,225.858 191.5,229.5C 192.5,228.167 193.5,226.833 194.5,225.5C 198.88,221.45 203.213,217.45 207.5,213.5 Z"/></g>
<g><path style="opacity:1" fill="#abb0d4" d="M 140.5,220.5 C 141.871,222.936 142.871,225.603 143.5,228.5C 141.755,226.967 140.755,224.967 140.5,222.5C 140.5,221.833 140.5,221.167 140.5,220.5 Z"/></g>
<g><path style="opacity:1" fill="#243283" d="M 163.5,235.5 C 161.748,237.246 160.415,239.246 159.5,241.5C 158.167,242.167 157.167,243.167 156.5,244.5C 155.833,244.5 155.167,244.5 154.5,244.5C 154.44,241.979 155.106,239.646 156.5,237.5C 155.277,232.831 155.277,228.164 156.5,223.5C 157.321,226.447 157.821,229.447 158,232.5C 159.186,234.677 161.019,235.677 163.5,235.5 Z"/></g>
<g><path style="opacity:1" fill="#8d96c5" d="M 116.5,223.5 C 117.906,223.973 118.573,224.973 118.5,226.5C 117.094,226.027 116.427,225.027 116.5,223.5 Z"/></g>
<g><path style="opacity:1" fill="#1a2a88" d="M 132.5,222.5 C 132.5,222.833 132.5,223.167 132.5,223.5C 132.799,227.105 133.965,230.439 136,233.5C 136.499,238.155 136.666,242.821 136.5,247.5C 135.417,247.539 134.417,247.873 133.5,248.5C 132.526,250.743 132.192,253.076 132.5,255.5C 131.5,255.5 130.5,255.5 129.5,255.5C 128.715,251.36 129.881,248.027 133,245.5C 133.667,241.833 133.667,238.167 133,234.5C 132.385,232.884 131.385,231.551 130,230.5C 129.566,233.179 129.732,235.846 130.5,238.5C 130.214,241.267 129.547,243.934 128.5,246.5C 126.448,240.944 124.448,235.444 122.5,230C 122.741,228.016 123.408,226.183 124.5,224.5C 122.715,224.212 121.048,224.212 119.5,224.5C 120.052,222.997 120.052,221.331 119.5,219.5C 118.178,219.67 117.011,219.337 116,218.5C 115.667,216.167 115.333,213.833 115,211.5C 113.22,210.406 111.386,209.406 109.5,208.5C 110.689,207.571 112.022,207.238 113.5,207.5C 113.628,204.487 112.628,201.987 110.5,200C 110.833,199.5 111.167,199 111.5,198.5C 112.771,200.829 114.771,201.995 117.5,202C 118.27,204.607 118.937,207.273 119.5,210C 121.44,209.822 123.107,210.822 124.5,213C 124.963,218.088 126.297,222.922 128.5,227.5C 129.681,225.865 129.681,224.198 128.5,222.5C 129.7,221.708 131.033,221.708 132.5,222.5 Z"/></g>
<g><path style="opacity:1" fill="#d4daf1" d="M 112.5,216.5 C 114.588,218.336 115.921,220.669 116.5,223.5C 116.427,225.027 117.094,226.027 118.5,226.5C 119.338,226.842 119.672,227.508 119.5,228.5C 119.5,229.167 119.5,229.833 119.5,230.5C 118.533,229.194 117.199,228.527 115.5,228.5C 115.054,224.302 114.054,220.302 112.5,216.5 Z"/></g>
<g><path style="opacity:1" fill="#6166a5" d="M 132.5,223.5 C 133.833,225.5 135.167,227.5 136.5,229.5C 137.766,235.63 137.766,241.63 136.5,247.5C 136.666,242.821 136.499,238.155 136,233.5C 133.965,230.439 132.799,227.105 132.5,223.5 Z"/></g>
<g><path style="opacity:1" fill="#253284" d="M 191.5,217.5 C 192.218,219.137 192.384,220.803 192,222.5C 191.667,221.833 191.333,221.167 191,220.5C 185.645,222.901 185.478,225.234 190.5,227.5C 191.524,226.147 192.857,225.48 194.5,225.5C 193.5,226.833 192.5,228.167 191.5,229.5C 186.752,231.882 182.752,235.216 179.5,239.5C 178.833,239.5 178.167,239.5 177.5,239.5C 176.167,239.5 174.833,239.5 173.5,239.5C 172.833,241.5 172.167,243.5 171.5,245.5C 167.46,248.844 163.46,252.177 159.5,255.5C 158.508,255.328 157.842,255.662 157.5,256.5C 156.391,256.557 155.391,256.89 154.5,257.5C 153.167,257.5 152.5,256.833 152.5,255.5C 155.764,253.906 158.431,251.573 160.5,248.5C 167.167,241.167 174.167,234.167 181.5,227.5C 184.473,223.86 187.806,220.527 191.5,217.5 Z"/></g>
<g><path style="opacity:1" fill="#6470a5" d="M 119.5,228.5 C 120.906,228.973 121.573,229.973 121.5,231.5C 121.167,231.5 120.833,231.5 120.5,231.5C 120.5,230.833 120.167,230.5 119.5,230.5C 119.5,229.833 119.5,229.167 119.5,228.5 Z"/></g>
<g><path style="opacity:1" fill="#1c2f82" d="M 153.5,245.5 C 153.5,246.167 153.5,246.833 153.5,247.5C 152.167,247.5 151.5,248.167 151.5,249.5C 149.846,250.75 148.179,252.084 146.5,253.5C 145.596,252.791 145.263,251.791 145.5,250.5C 145.5,248.833 145.5,247.167 145.5,245.5C 146.461,243.735 146.795,241.735 146.5,239.5C 147.5,239.5 148.5,239.5 149.5,239.5C 148.356,233.626 147.689,227.626 147.5,221.5C 150.073,221.148 152.406,221.648 154.5,223C 153.552,223.483 152.552,223.649 151.5,223.5C 151.544,227.686 151.877,231.853 152.5,236C 152.519,238.999 151.852,241.832 150.5,244.5C 151.325,245.386 152.325,245.719 153.5,245.5 Z"/></g>
<g><path style="opacity:1" fill="#a9b0d4" d="M 172.5,225.5 C 168.917,231.419 164.584,236.752 159.5,241.5C 160.415,239.246 161.748,237.246 163.5,235.5C 165.788,231.544 168.788,228.211 172.5,225.5 Z"/></g>
<g><path style="opacity:1" fill="#a9b0d7" d="M 191.5,229.5 C 187.878,233.308 183.878,236.641 179.5,239.5C 182.752,235.216 186.752,231.882 191.5,229.5 Z"/></g>
<g><path style="opacity:1" fill="#2d3b7e" d="M 177.5,239.5 C 175.833,241.833 173.833,243.833 171.5,245.5C 172.167,243.5 172.833,241.5 173.5,239.5C 174.833,239.5 176.167,239.5 177.5,239.5 Z"/></g>
<g><path style="opacity:1" fill="#b1b9db" d="M 120.5,231.5 C 120.833,231.5 121.167,231.5 121.5,231.5C 123.51,238.665 124.01,245.999 123,253.5C 122.722,254.416 122.222,255.082 121.5,255.5C 123.02,247.335 122.687,239.335 120.5,231.5 Z"/></g>
<g><path style="opacity:1" fill="#b7bcdf" d="M 177.5,239.5 C 178.167,239.5 178.833,239.5 179.5,239.5C 174.199,244.493 168.866,249.493 163.5,254.5C 162.311,255.429 160.978,255.762 159.5,255.5C 163.46,252.177 167.46,248.844 171.5,245.5C 173.833,243.833 175.833,241.833 177.5,239.5 Z"/></g>
<g><path style="opacity:1" fill="#9da6d1" d="M 154.5,244.5 C 155.167,244.5 155.833,244.5 156.5,244.5C 155.833,245.833 154.833,246.833 153.5,247.5C 153.5,246.833 153.5,246.167 153.5,245.5C 154.167,245.5 154.5,245.167 154.5,244.5 Z"/></g>
<g><path style="opacity:1" fill="#717aa4" d="M 145.5,250.5 C 145.263,251.791 145.596,252.791 146.5,253.5C 145.625,255.806 144.292,256.473 142.5,255.5C 143.11,253.566 144.11,251.899 145.5,250.5 Z"/></g>
<g><path style="opacity:1" fill="#6e73ae" d="M 160.5,248.5 C 158.431,251.573 155.764,253.906 152.5,255.5C 154.569,252.427 157.236,250.094 160.5,248.5 Z"/></g>
<g><path style="opacity:1" fill="#d9ddee" d="M 151.5,249.5 C 150.432,252.075 148.765,254.242 146.5,256C 147.793,256.49 149.127,256.657 150.5,256.5C 149.544,257.659 148.544,258.826 147.5,260C 147.667,260.5 147.833,261 148,261.5C 150.251,260.588 152.417,259.588 154.5,258.5C 156.027,258.573 157.027,257.906 157.5,256.5C 157.842,255.662 158.508,255.328 159.5,255.5C 158.829,256.847 158.829,258.014 159.5,259C 156.112,259.582 153.279,261.082 151,263.5C 149.301,262.594 147.467,262.261 145.5,262.5C 145.5,261.167 145.5,259.833 145.5,258.5C 144.167,258.5 142.833,258.5 141.5,258.5C 141.263,257.209 141.596,256.209 142.5,255.5C 144.292,256.473 145.625,255.806 146.5,253.5C 148.179,252.084 149.846,250.75 151.5,249.5 Z"/></g>
<g><path style="opacity:1" fill="#4e538f" d="M 152.5,255.5 C 152.5,256.833 153.167,257.5 154.5,257.5C 154.5,257.833 154.5,258.167 154.5,258.5C 152.417,259.588 150.251,260.588 148,261.5C 147.833,261 147.667,260.5 147.5,260C 148.544,258.826 149.544,257.659 150.5,256.5C 150.842,255.662 151.508,255.328 152.5,255.5 Z"/></g>
<g><path style="opacity:1" fill="#999ecf" d="M 157.5,256.5 C 157.027,257.906 156.027,258.573 154.5,258.5C 154.5,258.167 154.5,257.833 154.5,257.5C 155.391,256.89 156.391,256.557 157.5,256.5 Z"/></g>
<g><path style="opacity:1" fill="#adb3da" d="M 135.5,253.5 C 134.653,259.53 131.987,264.53 127.5,268.5C 127.5,268.167 127.5,267.833 127.5,267.5C 127.5,267.167 127.5,266.833 127.5,266.5C 130.417,262.334 133.084,258.001 135.5,253.5 Z"/></g>
<g><path style="opacity:1" fill="#585e9c" d="M 121.5,255.5 C 121.969,258.393 120.969,260.393 118.5,261.5C 118.992,259.181 119.992,257.181 121.5,255.5 Z"/></g>
<g><path style="opacity:1" fill="#192a89" d="M 127.5,266.5 C 127.5,266.833 127.5,267.167 127.5,267.5C 124.921,267.917 122.754,267.25 121,265.5C 120.667,267.167 120.333,268.833 120,270.5C 119.439,269.978 118.772,269.645 118,269.5C 115.953,270.609 113.787,271.276 111.5,271.5C 111.5,270.5 111.5,269.5 111.5,268.5C 114.089,267.581 116.089,265.914 117.5,263.5C 118.496,263.586 119.329,263.252 120,262.5C 124.18,265.082 126.847,263.748 128,258.5C 128.43,261.192 128.263,263.859 127.5,266.5 Z"/></g>
<g><path style="opacity:1" fill="#5a649b" d="M 118.5,261.5 C 118.167,262.167 117.833,262.833 117.5,263.5C 116.089,265.914 114.089,267.581 111.5,268.5C 113.548,265.785 115.882,263.452 118.5,261.5 Z"/></g>
<g><path style="opacity:1" fill="#888cc0" d="M 123.5,271.5 C 122.713,273.104 121.38,273.771 119.5,273.5C 120.514,272.326 121.847,271.66 123.5,271.5 Z"/></g>
<g><path style="opacity:1" fill="#7880b3" d="M 105.5,271.5 C 103.723,272.6 101.723,273.434 99.5,274C 93.9842,274.173 88.6509,274.673 83.5,275.5C 82.9569,275.44 82.6236,275.107 82.5,274.5C 90.2456,273.872 97.9123,272.872 105.5,271.5 Z"/></g>
<g><path style="opacity:1" fill="#213084" d="M 127.5,267.5 C 127.5,267.833 127.5,268.167 127.5,268.5C 125.596,268.738 124.262,269.738 123.5,271.5C 121.847,271.66 120.514,272.326 119.5,273.5C 119.158,274.338 118.492,274.672 117.5,274.5C 115.597,274.796 113.93,275.463 112.5,276.5C 104.854,277.207 97.1873,277.54 89.5,277.5C 88.0697,276.463 86.403,275.796 84.5,275.5C 84.1667,275.5 83.8333,275.5 83.5,275.5C 88.6509,274.673 93.9842,274.173 99.5,274C 101.723,273.434 103.723,272.6 105.5,271.5C 107.517,270.471 109.517,269.471 111.5,268.5C 111.5,269.5 111.5,270.5 111.5,271.5C 113.787,271.276 115.953,270.609 118,269.5C 118.772,269.645 119.439,269.978 120,270.5C 120.333,268.833 120.667,267.167 121,265.5C 122.754,267.25 124.921,267.917 127.5,267.5 Z"/></g>
<g><path style="opacity:1" fill="#8186b4" d="M 117.5,274.5 C 116.365,276.213 114.698,276.88 112.5,276.5C 113.93,275.463 115.597,274.796 117.5,274.5 Z"/></g>
<g><path style="opacity:1" fill="#939bc8" d="M 84.5,275.5 C 86.403,275.796 88.0697,276.463 89.5,277.5C 87.302,277.88 85.6354,277.213 84.5,275.5 Z"/></g>
<g><path style="opacity:1" fill="#6772a8" d="M 112.5,276.5 C 108.272,278.025 103.772,278.692 99,278.5C 95.6482,278.498 92.4815,278.165 89.5,277.5C 97.1873,277.54 104.854,277.207 112.5,276.5 Z"/></g>
</svg>
