<?xml version="1.0"?><svg xmlns="http://www.w3.org/2000/svg" width="36" height="36" shape-rendering="geometricPrecision" text-rendering="geometricPrecision" image-rendering="optimizeQuality" fill-rule="evenodd" clip-rule="evenodd" viewBox="0 0 36 36"><path fill="#fefefe" d="m-0.1-0.1h36v36h-36v-36z"></path><path fill="#6975a6" d="m22.8 7.4c0-0.1 0.1-0.2 0.2-0.1 0.5-0.1 0.9 0 1.4 0 0 0.1 0.1 0.1 0.1 0.2h-0.3c-0.4-0.1-0.9-0.2-1.4-0.1z"></path><path fill="#d4dbf0" d="m23 7.3c0.5-0.2 1.1-0.2 1.7-0.1 0 0.2 0 0.4 0.2 0.5-0.2 0-0.3-0.1-0.4-0.2 0-0.1-0.1-0.1-0.1-0.2-0.5 0-0.9-0.1-1.4 0z"></path><path fill="#6571a4" d="m22.6 7.6c-0.2 0.3-0.5 0.5-0.7 0.7 0.1-0.4 0.3-0.6 0.7-0.7z"></path><path fill="#1f2f80" d="m22.8 7.4c0.5-0.1 1 0 1.4 0.1-0.6-0.1-1.1 0-1.5 0.4 0.6 0.1 1.2 0.1 1.8 0v-0.4c0.1 0.1 0.2 0.2 0.4 0.2l0.2 0.3c-0.6 0.2-1.4 0.3-2.1 0.3-0.1 0.1-0.2 0.3-0.3 0.4 0 0.3-0.1 0.6-0.2 0.9-0.3-0.4-0.4-0.8-0.1-1.2 0-0.3-0.1-0.3-0.2-0.1-0.3 0.5-0.4 1-0.3 1.5l0.6 0.3c0.1 0.2 0.1 0.4 0.1 0.6 0.3 0 0.7 0 1.1 0.2-0.2 0-0.5 0-0.7 0v0.3c-0.3-0.1-0.5-0.3-0.8-0.5-0.2-0.3-0.4-0.6-0.5-1-0.1-0.5 0-1 0.2-1.4 0.2-0.2 0.5-0.4 0.7-0.7l0.2-0.2z"></path><path fill="#18298c" d="m24.2 7.5h0.3v0.4c-0.6 0.1-1.2 0.1-1.8 0 0.4-0.4 0.9-0.5 1.5-0.4z"></path><path fill="#bdc6eb" d="m21.9 8.3c-0.2 0.4-0.3 0.9-0.2 1.4-0.2-0.3-0.2-0.7-0.1-1.1 0-0.2 0.1-0.3 0.3-0.3z"></path><path fill="#1b2c87" d="m25.1 8c0.3 0.3 0.4 0.6 0.4 0.9 0 0.6-0.1 1.1-0.4 1.6-0.2 0.2-0.4 0.4-0.6 0.6v0.1c-0.5 0.1-0.9 0.1-1.4 0.1h-0.1v-0.4c0.2 0 0.5 0 0.7 0-0.4-0.2-0.8-0.2-1.1-0.2 0-0.2 0-0.4-0.1-0.6l-0.6-0.3c-0.1-0.5 0-1 0.3-1.5 0.1-0.2 0.2-0.2 0.2 0.1-0.3 0.4-0.2 0.8 0.1 1.2 0.1-0.3 0.2-0.6 0.2-0.9 0.1-0.1 0.2-0.3 0.3-0.4 0.7 0 1.5-0.1 2.1-0.3z"></path><path fill="#6e76a8" d="m9.3 10c-0.7-0.1-1.3 0.1-1.8 0.5 0-0.2 0.1-0.3 0.2-0.4 0.5-0.2 1.1-0.3 1.6-0.1z"></path><path fill="#d5d8ec" d="m9.8 10.1c0.3 0 0.6 0.1 0.8 0.2-0.1 0.2-0.1 0.4 0 0.6-0.3-0.3-0.5-0.5-0.8-0.8z"></path><path fill="#c3cbe6" d="m25.5 8.9c0.1 0.6 0.1 1.1 0 1.6h-0.4c0.3-0.5 0.4-1 0.4-1.6z"></path><path fill="#98a0cd" d="m25.1 10.5c0 0.4-0.3 0.6-0.6 0.6 0.2-0.2 0.4-0.4 0.6-0.6z"></path><path fill="#333c7e" d="m9.7 10.1h0.1c0.3 0.3 0.5 0.5 0.8 0.8 0 0.1 0.1 0.3 0.1 0.5-0.1 0-0.2-0.1-0.3-0.2-0.2-0.4-0.4-0.8-0.7-1.1z"></path><path fill="#b2b8d8" d="m22.2 10.7c0.3 0.2 0.5 0.4 0.8 0.5v0.1c-0.4 0-0.7-0.2-0.8-0.6z"></path><path fill="#a6aecf" d="m24.5 11.2c-0.3 0.2-0.6 0.2-0.9 0.2-0.2 0-0.3 0-0.5-0.1 0.5 0 0.9 0 1.4-0.1z"></path><path fill="#878fc0" d="m21.8 11.8c0.8-0.2 1.7-0.2 2.6 0l0.3 0.2c-0.8-0.1-1.7-0.2-2.5-0.2h-0.4z"></path><path fill="#8087be" d="m7.3 10.7c-0.2 0.6-0.3 1.2-0.3 1.8-0.1-0.4-0.1-0.8-0.1-1.3 0.1-0.2 0.2-0.3 0.4-0.5z"></path><path fill="#9da3cf" d="m31.3 12c0.1-0.1 0.2-0.2 0.3-0.3-0.3 0-0.6 0.1-0.8 0.2 0.2-0.3 0.5-0.4 0.9-0.4 0 0.3-0.1 0.5-0.4 0.5z"></path><path fill="#1b2d83" d="m9.3 10l0.4 0.1c0.3 0.3 0.5 0.7 0.6 1.1 0.2 0.1 0.3 0.2 0.4 0.2v1.1l-0.4 0.7c0-0.6-0.3-1.1-1-1.3 0-0.4 0-0.8 0-1.2h-0.4c0.1-0.2 0-0.3-0.1-0.5-0.3 0.1-0.6 0.1-0.9 0.2v0.7c-0.8 0.6-0.7 1 0.1 1.3-0.1 0.1-0.3 0.2-0.5 0.1 0.1 0.4 0.2 0.7 0.3 1.1l-0.2-0.2c-0.3-0.2-0.4-0.5-0.6-0.9 0-0.6 0.1-1.2 0.3-1.8 0-0.1 0.1-0.1 0.2-0.2 0.5-0.4 1.1-0.6 1.8-0.5z"></path><path fill="#9197c4" d="m14.9 12c-0.7 0-1.4 0-2.1 0.1 0.3-0.2 0.6-0.2 1-0.2 0.4 0 0.8 0 1.1 0.1z"></path><path fill="#8a96bc" d="m21.8 11.8c-0.3 0.1-0.6 0.2-0.9 0.2 0.2-0.2 0.5-0.3 0.9-0.2z"></path><path fill="#abb4d6" d="m24.4 11.8c0.5 0.1 1.1 0.2 1.6 0.2 0.2 0.1 0.4 0.2 0.6 0.3-0.6-0.1-1.3-0.2-1.9-0.3l-0.3-0.2z"></path><path fill="#182b87" d="m10.3 13.2h-0.3v-0.3h-0.4c0.1 0.4 0 0.6-0.4 0.7 0-0.2-0.1-0.4-0.2-0.5-0.2 0.6-0.6 0.7-1.2 0.5-0.1-0.4-0.2-0.7-0.3-1.1 0.2 0.1 0.4 0 0.5-0.1-0.8-0.3-0.9-0.7-0.1-1.3v-0.7c0.3-0.1 0.6-0.1 0.9-0.2 0.1 0.2 0.2 0.3 0.1 0.5h0.4c0 0.4 0 0.8 0 1.2 0.7 0.2 1 0.7 1 1.3z"></path><path fill="#939fc7" d="m15.6 12.2c0.2 0 0.4 0.1 0.5 0.3-0.2 0-0.4-0.1-0.5-0.3z"></path><path fill="#2e3b86" d="m21.8 11.8h0.4c-0.2 0.1-0.4 0.2-0.7 0.2 0.1 0.1 0 0.2 0 0.3-0.4-0.2-0.8-0.1-1.1 0.2 0.6 0.1 1.1 0.2 1.7 0.3-0.7-0.1-1.4 0-2 0.2-0.1-0.1-0.1-0.2-0.3-0.2-0.3 0.1-0.5 0.2-0.7 0.3 0.4-0.6 1-1 1.8-1.1 0.3 0 0.6-0.1 0.9-0.2z"></path><path fill="#1c2c86" d="m22.2 11.8c0.8 0 1.7 0.1 2.5 0.2 0.6 0.1 1.3 0.2 1.9 0.3 0.1 0.1 0.2 0.2 0.3 0.1 1 0.1 1.9 0.2 2.9 0.3-0.5 0.3-0.9 0.3-1.4 0.1l-0.3 0.1c0.1 0.1 0.2 0.2 0.3 0.3-0.1 0.1-0.2 0.2-0.2 0.4-0.7 0-1.3 0.1-1.9 0.2h-0.5c-0.5-0.1-0.9-0.2-1.3-0.5v0.6h-0.5c-0.2-0.2-0.5-0.4-0.8-0.6-0.3-0.2-0.7-0.4-1.1-0.5-0.6-0.1-1.1-0.2-1.7-0.3 0.3-0.3 0.7-0.4 1.1-0.2 0-0.1 0.1-0.2 0-0.3 0.3 0 0.5-0.1 0.7-0.2z"></path><path fill="#182b88" d="m15 12.1c0.2 0.2 0.4 0.4 0.6 0.6-0.4 0.1-0.8 0.1-1.3 0 0.2-0.1 0.3-0.2 0.5-0.2-0.5-0.1-0.9 0-1.2 0.4-0.3-0.3-0.6-0.3-0.9 0 0.1 0.2 0.1 0.4 0.1 0.5-0.2 0-0.3 0.1-0.4 0.3-0.1-0.1-0.1-0.2-0.2-0.3-0.1 0.2-0.3 0.3-0.4 0.4 0.1 0.2 0.2 0.3 0.2 0.5-0.2 0.2-0.4 0.2-0.6 0.3 0-0.3 0-0.5 0.1-0.8 0-0.2-0.1-0.2-0.2 0-0.2-0.4 0-0.6 0.4-0.7l0.4 0.2c0.4 0 0.5-0.1 0.4-0.4-0.2-0.1-0.3-0.2-0.4-0.3l0.8-0.1c0.1-0.1 0.1-0.2 0-0.2 0.7-0.2 1.4-0.2 2.1-0.2z"></path><path fill="#202f81" d="m14.9 12c0.1 0 0.1 0 0.1 0.1-0.7 0-1.4 0-2.1 0.2 0.1 0 0.1 0.1 0 0.2l-0.8 0.1c0.1 0.1 0.2 0.2 0.4 0.3 0.1 0.3 0 0.4-0.3 0.4l-0.5-0.2c-0.4 0.1-0.6 0.3-0.4 0.7 0.1-0.2 0.2-0.2 0.2 0-0.1 0.3-0.1 0.5-0.1 0.8 0.2-0.1 0.4-0.1 0.6-0.3-0.1 0.2-0.2 0.4-0.4 0.6-0.2 0.2-0.3 0.4-0.3 0.7-0.2 0.8-0.3 1.5-0.2 2.3-0.1-0.6-0.2-1.3-0.4-2 0.3-0.7 0.4-1.4 0.3-2.1-0.1-0.1-0.1-0.1-0.3-0.1v-0.1c0.3-0.3 0.6-0.5 0.9-0.7 0.1-0.1 0.2-0.2 0.3-0.4 0.2-0.2 0.5-0.4 0.9-0.4 0.7-0.1 1.4-0.1 2.1-0.1z"></path><path fill="#a2b0d6" d="m16.6 12.8c0.3 0.1 0.5 0.3 0.7 0.5h-0.1c-0.3-0.1-0.5-0.3-0.6-0.5z"></path><path fill="#d6daeb" d="m6.9 11.2c0 0.5 0 0.9 0.1 1.3 0.2 0.4 0.3 0.7 0.6 0.9-0.2 0.1-0.3 0-0.5-0.1-0.1-0.2-0.2-0.5-0.4-0.7 0.1-0.5 0.1-0.9 0.2-1.4z"></path><path fill="#afb9d9" d="m22.1 12.8c0.4 0.1 0.8 0.3 1.1 0.5-1.1-0.4-2.3-0.4-3.5-0.1l0.4-0.2c0.6-0.2 1.3-0.3 2-0.2z"></path><path fill="#313b87" d="m31.3 12c-0.3 0.1-0.5 0.3-0.8 0.5-0.3 0.2-0.6 0.4-0.9 0.6h-0.2c-0.3 0.2-0.7 0.3-1 0.5h-0.2c0-0.2 0.1-0.3 0.2-0.4-0.1-0.1-0.2-0.2-0.3-0.3l0.3-0.1c0.5 0.2 0.9 0.2 1.4-0.1-1-0.1-1.9-0.2-2.9-0.3 0.9 0 1.7 0 2.5 0 0.5-0.1 1-0.3 1.4-0.5 0.2-0.1 0.5-0.2 0.8-0.2-0.1 0.1-0.2 0.2-0.3 0.3z"></path><path fill="#a8b3d9" d="m30.5 12.5c-0.1 0.4-0.4 0.6-0.9 0.6 0.3-0.2 0.6-0.4 0.9-0.6z"></path><path fill="#293489" d="m20.1 13l-0.4 0.2c-0.2 0.1-0.4 0.3-0.6 0.5-0.1-0.1-0.2 0-0.3 0.1-0.2 0-0.3 0.1-0.4 0.3h-0.2c-0.1 0-0.2 0-0.3-0.1 0.1-0.1 0.2-0.2 0.4-0.2 0.3-0.2 0.6-0.4 0.8-0.7 0.2-0.1 0.4-0.2 0.7-0.3 0.2 0 0.2 0.1 0.3 0.2z"></path><path fill="#5c659a" d="m11.9 12.5c-0.1 0.2-0.2 0.3-0.3 0.4-0.3 0.2-0.6 0.4-0.9 0.7 0.1-0.2 0.1-0.3 0.2-0.4 0.2-0.3 0.6-0.5 1-0.7z"></path><path fill="#b3bddd" d="m29.4 13.1c-0.2 0.3-0.6 0.5-1 0.5 0.3-0.2 0.7-0.3 1-0.5z"></path><path fill="#5b6a9f" d="m19.1 13.1c-0.2 0.3-0.5 0.5-0.8 0.7 0.2-0.3 0.4-0.6 0.8-0.7z"></path><path fill="#d9deee" d="m10.7 12.5c0.1 0.2 0 0.4-0.1 0.6 0.1 0 0.2 0 0.3 0.1-0.1 0.1-0.1 0.2-0.2 0.4-0.1 0.1-0.3 0.2-0.4 0.4 0-0.1 0-0.2-0.1-0.3-0.3 0-0.4 0.2-0.6 0.4-0.4 0.1-0.8 0-1.1-0.1 0.3 0 0.5 0 0.8-0.1 0.4-0.1 0.7-0.3 1-0.7l0.4-0.7z"></path><path fill="#263485" d="m15 12.1c0.2 0 0.4 0 0.6 0.1 0.1 0.2 0.3 0.3 0.5 0.3 0.2 0.2 0.3 0.3 0.5 0.3 0.1 0.2 0.3 0.4 0.6 0.5-0.1 0.1 0 0.2 0.1 0.3-0.1 0.1-0.3 0.1-0.4 0.1-0.3-0.2-0.5-0.3-0.8-0.5-0.1-0.2-0.3-0.2-0.5-0.2-0.5-0.2-1.1-0.2-1.6 0-0.2 0-0.4 0-0.6 0.2-0.1 0-0.2 0.1-0.3 0.2-0.3 0.1-0.5 0.2-0.6 0.5l-0.5 0.4c0-0.2-0.1-0.3-0.2-0.5 0.1-0.1 0.3-0.2 0.4-0.4 0.1 0.1 0.1 0.2 0.2 0.3 0.1-0.2 0.2-0.3 0.4-0.3 0-0.1 0-0.3-0.1-0.5 0.3-0.3 0.6-0.3 0.9 0 0.3-0.4 0.7-0.5 1.2-0.4-0.2 0-0.3 0.1-0.5 0.2 0.5 0.1 0.9 0.1 1.3 0-0.2-0.2-0.4-0.4-0.6-0.6z"></path><path fill="#8d97c8" d="m14 13c-0.2 0.1-0.3 0.2-0.6 0.2 0.2-0.2 0.4-0.2 0.6-0.2z"></path><path fill="#7d84bb" d="m15.6 13c0.2 0 0.4 0 0.5 0.2-0.2 0-0.4 0-0.5-0.2z"></path><path fill="#8b8fba" d="m13.1 13.4c-0.2 0.2-0.3 0.4-0.6 0.5 0.1-0.3 0.3-0.4 0.6-0.5z"></path><path fill="#a4a6d5" d="m19.7 13.2v0.1c-0.1 0.2-0.4 0.4-0.6 0.4 0.2-0.2 0.4-0.4 0.6-0.5z"></path><path fill="#202f80" d="m10.3 13.2c-0.3 0.4-0.6 0.6-1 0.7-0.5 0-1 0-1.5-0.2v-0.1c0.6 0.2 1 0.1 1.2-0.5 0.1 0.1 0.2 0.3 0.2 0.5 0.4-0.1 0.5-0.3 0.4-0.7h0.4v0.3h0.3z"></path><path fill="#a0a5cf" d="m28.2 13.6h0.2c-0.2 0.1-0.5 0.2-0.8 0.2h-1.3c0.6-0.1 1.2-0.2 1.9-0.2z"></path><path fill="#59649e" d="m20.3 13.8v-0.1c0.5 0 1.1 0 1.6 0.1v0.1c-0.5 0-0.9 0-1.4-0.1h-0.2z"></path><path fill="#a3afd1" d="m21.9 13.9v-0.1c0.3-0.1 0.6 0.1 0.8 0.3l-0.8-0.2z"></path><path fill="#bec5e0" d="m25.8 13.8h1.8c-0.5 0.1-1.1 0.1-1.7 0.1 0.4 0.3 0.5 0.7 0.5 1.1l-0.4-0.7c-0.1-0.1-0.2-0.3-0.2-0.5z"></path><path fill="#8e98c6" d="m7.8 13.7c0.5 0.2 1 0.2 1.5 0.2-0.3 0.1-0.5 0.1-0.8 0.1-0.3 0-0.5-0.1-0.7-0.3z"></path><path fill="#1b2f7f" d="m25.8 13.8c0 0.2 0.1 0.4 0.2 0.5-0.1 0.3-0.2 0.7-0.3 1.1-0.1 0-0.2 0-0.3-0.1 0-0.4 0.1-0.7 0.3-1-0.2-0.1-0.4-0.1-0.6 0-0.1-0.2-0.3-0.4-0.6-0.3v0.6h-0.1l-0.4-0.7h0.5v-0.6c0.4 0.3 0.8 0.4 1.3 0.5z"></path><path fill="#eaedf5" d="m15.6 13c0.1 0.2 0.3 0.2 0.5 0.2 0.3 0.2 0.5 0.3 0.8 0.5 0.2 0.2 0.5 0.3 0.7 0.5 0.2 0.1 0.4 0 0.6-0.1h0.2c0.2 0 0.4-0.1 0.4-0.3 0.1-0.1 0.2-0.2 0.3-0.1 0.2 0 0.5-0.2 0.6-0.4 0 0.2 0 0.3-0.2 0.4 0.3 0 0.5 0 0.8 0v0.1c-0.3 0.1-0.7 0.2-1 0.3-0.2 0-0.4 0.2-0.5 0.4-0.2 0.1-0.5 0.2-0.6 0.5 0.1 0.1 0.2 0.2 0.3 0.1-0.2 0.1-0.3 0.2-0.6 0.1 0-0.2 0.1-0.3 0.3-0.5-0.3 0-0.5 0.1-0.6 0.4-0.2 0.2-0.4 0.2-0.6 0 0.4 0 0.5-0.1 0.2-0.3-0.1 0-0.2 0-0.2-0.1 0-0.2-0.2-0.3-0.4-0.4h-0.1c-0.3-0.1-0.5-0.3-0.8-0.4-0.6-0.2-1.2-0.3-1.8-0.2-0.1 0.1-0.2 0.2-0.2 0.3-0.3 0.1-0.5 0.2-0.7 0.3-0.4 0.3-0.6 0.6-0.7 0.9-0.1 0.3-0.2 0.5-0.3 0.7-0.2-0.3-0.1-0.6 0.2-0.9l-0.1-0.1c-0.2 0.2-0.4 0.3-0.6 0.5l0.1-0.5c0.2-0.2 0.3-0.4 0.4-0.6l0.5-0.4c0.3-0.1 0.4-0.3 0.6-0.5 0.1-0.1 0.2-0.2 0.3-0.2 0.3 0 0.4-0.1 0.6-0.2 0.5-0.2 1.1-0.2 1.6 0z"></path><path fill="#989ed0" d="m18.8 13.8c0 0.2-0.2 0.3-0.4 0.3 0.1-0.2 0.2-0.3 0.4-0.3z"></path><path fill="#475088" d="m17.2 13.3h0.1c0.2 0.3 0.4 0.5 0.6 0.7 0.1 0.1 0.2 0.1 0.3 0.1-0.2 0.1-0.4 0.2-0.6 0.1-0.2-0.2-0.5-0.3-0.7-0.5 0.1 0 0.3 0 0.4-0.1-0.1-0.1-0.2-0.2-0.1-0.3z"></path><path fill="#5f6aa0" d="m15.7 13.9c-0.7-0.2-1.4-0.2-2 0.1 0-0.1 0.1-0.2 0.2-0.3 0.6-0.1 1.2 0 1.8 0.2z"></path><path fill="#2c3586" d="m20.3 13.8h0.2c0 0.1 0 0.1-0.1 0.2 0.4 0.2 0.8 0.4 1.1 0.6 0.2 0.1 0.3 0.2 0.3 0.4-0.2-0.2-0.4-0.3-0.7-0.3-0.6-0.3-1.2-0.3-1.8 0.1-0.2 0.1-0.4 0.1-0.7 0.1 0 0-0.1 0-0.1 0 0.1-0.2 0.3-0.3 0.3-0.4 0.3-0.1 0.4-0.2 0.5-0.4 0.3-0.1 0.7-0.2 1-0.3z"></path><path fill="#a6add0" d="m22.7 14.1c0.1 0 0.3 0.1 0.3 0.2h-0.1c-0.1 0-0.2-0.1-0.2-0.2z"></path><path fill="#4d5293" d="m10.7 13.6v0.1c-0.1 0.2-0.2 0.4-0.2 0.6h-0.3c-0.1 0.6-0.3 1.1-0.5 1.6h-0.1c0.1-0.7 0.3-1.3 0.7-1.9 0.1-0.2 0.3-0.3 0.4-0.4z"></path><path fill="#7c88b6" d="m19.3 14.1c-0.1 0.2-0.2 0.3-0.5 0.4 0.1-0.2 0.3-0.4 0.5-0.4z"></path><path fill="#99a4ce" d="m16.6 14.3c0.2 0.1 0.4 0.2 0.4 0.4-0.2 0-0.3-0.2-0.4-0.4z"></path><path fill="#b0bcdd" d="m21.1 14.7c-0.6 0-1.2 0-1.8 0.1 0.6-0.4 1.2-0.4 1.8-0.1z"></path><path fill="#848bb8" d="m13 14.3c-0.1 0.3-0.3 0.5-0.5 0.7l-0.2 0.2c0.1-0.3 0.3-0.6 0.7-0.9z"></path><path fill="#3a4285" d="m16.5 14.3h0.1c0.1 0.2 0.2 0.4 0.4 0.4 0 0.1 0.1 0.1 0.2 0.1-0.1 0.1-0.2 0.1-0.4 0.1h-0.1c-0.3-0.2-0.6-0.2-0.9-0.2h-1c0.6-0.1 1.1-0.2 1.7-0.4z"></path><path fill="#d8dfee" d="m14.8 14.7h1c0.3 0.2 0.6 0.2 0.9 0.2h0.1v0.1c-0.8-0.1-1.6-0.1-2.5 0 0.1-0.2 0.3-0.3 0.5-0.3z"></path><path fill="#7e8aba" d="m15.8 14.7c0.3 0 0.6 0 0.9 0.2-0.3 0-0.6 0-0.9-0.2z"></path><path fill="#fcfcfc" d="m18.5 15.1c0.4 0.1 0.6 0 0.8-0.3 0.6-0.1 1.2-0.1 1.8-0.1 0.1 0.1 0.2 0.2 0.2 0.4 0.5 0.1 0.8 0.4 0.9 0.8v0.2c0 0.7-0.1 1.3-0.2 1.8v0.3c-0.2 0.3-0.3 0.7-0.5 1.1-0.1 0-0.2 0.2-0.2 0.3-0.1 0.1-0.1 0.1-0.1 0.3-0.2 0.1-0.3 0.3-0.3 0.5-0.2 0.1-0.3 0.3-0.4 0.6-0.2 0.1-0.4 0.3-0.4 0.5-0.2 0.1-0.3 0.3-0.4 0.5-0.1 0-0.3 0.1-0.3 0.2-0.5 0.6-0.9 1.2-1.5 1.7 0 0.1 0 0.1-0.1 0.1-0.1 0-0.2-0.1-0.3-0.2-0.2-0.3-0.4-0.6-0.6-0.8-0.5-0.9-1.1-1.7-1.8-2.5-0.1-0.3-0.3-0.5-0.5-0.6-0.1-0.2-0.2-0.3-0.3-0.4 0-0.3-0.2-0.5-0.3-0.8 0-0.1-0.1-0.3-0.2-0.3-0.2-0.5-0.2-1-0.2-1.5 0-0.3 0-0.5 0.1-0.8 0.1-0.1 0.2-0.4 0.2-0.6 0.2-0.1 0.3-0.3 0.4-0.5 0.9-0.1 1.7-0.1 2.5 0 0.1 0 0.2 0 0.2 0.1 0.2 0.2 0.4 0.2 0.6 0 0.1-0.3 0.3-0.4 0.6-0.4-0.2 0.2-0.3 0.3-0.3 0.5 0.3 0.1 0.4 0 0.6-0.1z"></path><path fill="#364087" d="m22.9 14.3h0.1c0.5 0.5 0.8 1.1 0.8 1.8v0.3c-0.1-0.5-0.2-0.9-0.5-1.4-0.2-0.1-0.4-0.1-0.6 0 0.1-0.2 0.2-0.4 0.2-0.7z"></path><path fill="#8d95c5" d="m24.4 14.6h0.1c0.2 0.5 0.3 1 0.4 1.5 0.1 0.4 0 0.8-0.1 1.2 0.1-1-0.1-1.9-0.4-2.7z"></path><path fill="#575990" d="m18.8 14.5c0 0.1-0.2 0.2-0.3 0.4 0 0 0.1 0 0.1 0l-0.1 0.2c-0.1 0.1-0.2 0-0.3-0.1 0.1-0.3 0.4-0.4 0.6-0.5z"></path><path fill="#cbcef0" d="m19.3 14.8c-0.2 0.3-0.4 0.4-0.8 0.3l0.1-0.2c0.3 0 0.5 0 0.7-0.1z"></path><path fill="#656995" d="m17.2 14.8c0.3 0.2 0.2 0.3-0.2 0.3 0-0.1-0.1-0.1-0.2-0.1v-0.1c0.2 0 0.3 0 0.4-0.1z"></path><path fill="#969dc8" d="m14.3 15c-0.1 0.2-0.2 0.4-0.4 0.5 0-0.3 0.2-0.4 0.4-0.5z"></path><path fill="#c1c7e4" d="m21.1 14.7c0.3 0 0.5 0.1 0.7 0.3 0.2 0.2 0.3 0.4 0.4 0.7v0.2c-0.1-0.4-0.4-0.7-0.9-0.8 0-0.2-0.1-0.3-0.2-0.4z"></path><path fill="#1a2c87" d="m15.7 13.9c0.3 0.1 0.5 0.3 0.8 0.4-0.6 0.2-1.1 0.3-1.7 0.4-0.2 0-0.4 0.1-0.5 0.3-0.2 0.1-0.4 0.2-0.4 0.5l-0.2 0.2c-0.1 0-0.2 0-0.2 0.1-0.1 0.7-0.1 1.4 0 2.1 0.1 0.2 0.2 0.4 0.3 0.5 0 0.1 0 0.2 0.1 0.3v0.7h-0.5v0.3c-0.2 0.1-0.3 0.1-0.5 0.1 0-0.3 0.2-0.6 0.4-0.8l-0.1-0.2c-0.2 0.3-0.4 0.5-0.6 0.7-0.1-0.3-0.2-0.6-0.3-0.9 0.3-0.5 0.3-1 0-1.6 0-0.1 0.1-0.2 0.2-0.3l0.1 0.9c0-0.7 0-1.4-0.1-2.1v-0.5c0.2-0.2 0.4-0.4 0.5-0.7 0.2-0.1 0.4-0.2 0.7-0.3 0.6-0.3 1.3-0.3 2-0.1z"></path><path fill="#7880b9" d="m11.6 14.9l-0.1 0.5c0 0.1-0.1 0.1-0.2 0.2 0-0.3 0.1-0.5 0.3-0.7z"></path><path fill="#4a5291" d="m12.5 15v0.5c-0.1 0.2-0.2 0.4-0.3 0.6-0.1 0.8-0.1 1.5-0.1 2.3-0.1-0.8-0.2-1.6-0.1-2.5 0.1-0.2 0.2-0.4 0.3-0.7l0.2-0.2z"></path><path fill="#8e9abe" d="m13.9 15.5c0 0.2-0.1 0.5-0.2 0.6v-0.4l0.2-0.2z"></path><path fill="#f0f1f6" d="m12 15.9c-0.1 0.9 0 1.7 0.1 2.5 0 0.2 0 0.5 0.1 0.7 0 0.1 0 0.3 0.1 0.4 0.1 0.4 0.3 0.7 0.6 1l0.2 0.1c0.1 0.2 0.2 0.4 0.3 0.6 0 0.2 0.1 0.3 0.3 0.3 0.2 0.3 0.4 0.5 0.5 0.8 0 0.2 0.1 0.3 0.3 0.4 0.1 0.3 0.3 0.6 0.5 0.9l0.4 0.4c0.1 0.1 0.2 0.3 0.2 0.5 0 0.1 0 0.3 0.2 0.3v0.2c-0.2 0-0.4-0.2-0.5-0.4l-0.1 0.1c0 0.4 0.1 0.7 0.2 1.1l-0.5-0.7v-0.1c0-0.2-0.1-0.3-0.2-0.4 0-0.2-0.1-0.3-0.2-0.4-0.2-0.3-0.4-0.6-0.6-0.9-0.1-0.2-0.2-0.4-0.5-0.5 0-0.2 0-0.4-0.2-0.5 0-0.2-0.1-0.3-0.3-0.4l-0.4-0.7c0.1-0.2 0-0.3-0.2-0.3 0-0.2 0-0.3-0.2-0.4 0-0.1 0-0.2-0.1-0.2-0.1-0.4-0.2-0.7-0.5-1-0.1-0.5-0.3-0.9-0.4-1.4-0.1-0.8 0-1.5 0.2-2.3 0.1-0.1 0.2-0.1 0.2-0.2 0.2-0.2 0.4-0.3 0.6-0.5l0.1 0.1c-0.3 0.3-0.4 0.6-0.2 0.9z"></path><path fill="#424a88" d="m22.2 15.7c0.2 0.2 0.3 0.5 0.2 0.8 0 0.2 0 0.4-0.1 0.5 0.1-0.3 0-0.6-0.1-0.9v-0.4z"></path><path fill="#adb2d6" d="m22.2 16.1c0.1 0.3 0.2 0.6 0.1 0.9 0 0.4-0.2 0.7-0.3 0.9 0.1-0.5 0.2-1.1 0.2-1.8z"></path><path fill="#4f5a9b" d="m24.9 16.1c0.1 0.4 0.2 0.8 0.1 1.3 0 0.4-0.1 0.7-0.3 1 0.1-0.4 0.1-0.8 0.1-1.1 0.1-0.4 0.2-0.8 0.1-1.2z"></path><path fill="#bcc2e2" d="m26.4 15c0.1 0.1 0.2 0.2 0.3 0.4 0.1 0.8 0 1.7-0.1 2.5 0-0.9 0-1.9-0.2-2.9z"></path><path fill="#a9b5d4" d="m9.4 16.3c0 0.9 0 1.8 0.1 2.7-0.2-0.5-0.2-1.1-0.2-1.6 0-0.4 0-0.8 0.1-1.1z"></path><path fill="#293481" d="m9.6 15.9h0.1c0.1 0.2 0.2 0.3 0.4 0.2 0 0.3-0.1 0.4-0.2 0.6 0-0.1-0.1-0.2-0.2-0.2-0.1 0.9-0.1 1.9 0 2.8l-0.2-0.3c-0.1-0.9-0.1-1.8-0.1-2.7 0-0.2 0.1-0.3 0.2-0.4z"></path><path fill="#394388" d="m13.7 15.7v0.4c-0.1 0.3-0.1 0.5-0.1 0.8 0 0.5 0 1 0.2 1.5-0.1-0.1-0.2-0.3-0.3-0.5-0.1-0.7-0.1-1.4 0-2.1 0-0.1 0.1-0.1 0.2-0.1z"></path><path fill="#6376a1" d="m23.8 16.1c0.1 0.7 0.1 1.3-0.1 1.8l0.1-1.5v-0.3z"></path><path fill="#1f2f82" d="m12.5 15.5c0.1 0.7 0.1 1.4 0.1 2.1l-0.1-0.9c-0.1 0.1-0.2 0.2-0.2 0.3 0.3 0.6 0.3 1.1 0 1.6 0.1 0.3 0.2 0.6 0.3 0.9 0.2-0.2 0.4-0.4 0.6-0.7l0.1 0.2c-0.2 0.2-0.4 0.5-0.4 0.8 0.2 0 0.3 0 0.5-0.1v-0.3h0.5v-0.7h0.1c0.1 0.3 0.3 0.5 0.3 0.8-0.2 0.1-0.5 0.1-0.7 0.2v0.4c-0.5-0.1-0.6 0.1-0.4 0.4 0.2 0.3 0.4 0.5 0.8 0.6l0.4 1.1c0.1-0.1 0.1-0.2 0.1-0.3h0.5v0.5h0.5c0 0.4-0.1 0.7-0.5 0.7l-0.5-0.4c0-0.2-0.1-0.3-0.3-0.4-0.1-0.3-0.3-0.5-0.5-0.8 0-0.1-0.1-0.2-0.3-0.3-0.1-0.2-0.2-0.4-0.3-0.6 0-0.1-0.1-0.2-0.2-0.3-0.2-0.4-0.5-0.8-0.7-1.2-0.1-0.2-0.1-0.5-0.1-0.7 0-0.8 0-1.5 0.1-2.3 0.1-0.2 0.2-0.4 0.3-0.6z"></path><path fill="#949bc7" d="m23.7 18.1c0 0.4-0.2 0.7-0.4 1.1 0.1-0.4 0.2-0.8 0.4-1.1z"></path><path fill="#545e98" d="m22 18.2c0 0.4-0.2 0.8-0.5 1.1 0.2-0.4 0.3-0.8 0.5-1.1z"></path><path fill="#8c93c3" d="m13.8 18.4c0.1 0 0.2 0.2 0.2 0.3h-0.1c-0.1-0.1-0.1-0.2-0.1-0.3z"></path><path fill="#535c9d" d="m24.7 18.5c0 0.4-0.1 0.7-0.5 0.9l0.5-0.9z"></path><path fill="#2d3987" d="m11.1 17.9c0.1 0.5 0.3 0.9 0.4 1.4-0.1-0.1-0.3-0.1-0.4 0-0.1-0.5-0.1-0.9 0-1.4z"></path><path fill="#9aa5ce" d="m26.5 18.2c0 0.2 0 0.5-0.1 0.8 0 0-0.1 0.1-0.1 0.1 0-0.3 0.1-0.6 0.2-0.9z"></path><path fill="#1a2b87" d="m10.7 13.7c0.2 0 0.2 0 0.3 0.1 0.1 0.7 0 1.4-0.3 2.1 0.2 0.7 0.3 1.4 0.4 2-0.1 0.5-0.1 0.9 0 1.4 0.1-0.1 0.3-0.1 0.4 0 0.1 0.3 0.1 0.5 0.1 0.8-0.2 0.1-0.3 0-0.3-0.4h-0.3c0.1 0.6 0.3 1.2 0.4 1.7-0.2 0.2-0.4 0.2-0.5 0 0 0 0-0.1 0.1-0.1-0.2-0.1-0.3-0.3-0.4-0.4-0.1-0.1-0.2-0.1-0.3-0.1-0.1-0.2-0.1-0.3-0.2-0.4-0.2-0.3-0.3-0.7-0.4-1.1-0.1-0.9-0.1-1.9 0-2.8 0.1 0 0.2 0.1 0.2 0.2 0.1-0.2 0.2-0.3 0.2-0.6-0.2 0.1-0.3 0-0.4-0.2 0.2-0.5 0.4-1 0.5-1.6h0.3c0-0.2 0.1-0.4 0.2-0.6z"></path><path fill="#7479a8" d="m21.5 19.3c0.1 0.2 0 0.3-0.2 0.3 0-0.1 0.1-0.3 0.2-0.3z"></path><path fill="#97a2ca" d="m23.3 19.3c0 0.2 0 0.3-0.2 0.4 0-0.2 0.1-0.3 0.2-0.4z"></path><path fill="#3b4384" d="m11.5 19.3c0.3 0.3 0.4 0.6 0.5 1-0.2 0-0.3 0-0.4-0.2 0-0.3 0-0.5-0.1-0.8z"></path><path fill="#99a4cb" d="m26 19.7c0.1 0.4-0.1 0.7-0.3 0.9 0-0.3 0.1-0.6 0.3-0.9z"></path><path fill="#bbbfe2" d="m12.2 19.1c0.2 0.4 0.5 0.8 0.7 1.2v0.2c-0.3-0.3-0.5-0.6-0.6-1-0.1-0.1-0.1-0.3-0.1-0.4z"></path><path fill="#b4bce1" d="m23.1 19.7c0.1 0.3 0 0.5-0.2 0.6 0-0.2 0-0.4 0.2-0.6z"></path><path fill="#7077b2" d="m14.6 19.9c0.2 0.1 0.4 0.3 0.5 0.6h-0.1c-0.2-0.2-0.3-0.4-0.4-0.6z"></path><path fill="#6168a7" d="m21.2 19.9c0 0.2-0.1 0.4-0.3 0.5 0-0.2 0.1-0.4 0.3-0.5z"></path><path fill="#6e74af" d="m12.9 20.3c0.1 0.1 0.2 0.2 0.2 0.3l-0.2-0.1v-0.2z"></path><path fill="#99a2cd" d="m23.9 20.3c0 0.2-0.1 0.3-0.2 0.3 0-0.1 0-0.2 0.2-0.3z"></path><path fill="#9ea5cc" d="m10.1 20.4c0.1 0.1 0.1 0.2 0.2 0.4 0.1 0.1 0.1 0.2 0.1 0.3-0.3-0.1-0.4-0.4-0.3-0.7z"></path><path fill="#8a92c2" d="m12.1 20.5c0.2 0.1 0.2 0.2 0.2 0.4-0.1-0.1-0.2-0.2-0.2-0.4z"></path><path fill="#555c97" d="m20.9 20.4c0 0.3-0.1 0.5-0.4 0.6 0.1-0.3 0.2-0.5 0.4-0.6z"></path><path fill="#8086b6" d="m22.7 20.6c0 0.2-0.1 0.3-0.3 0.4 0-0.2 0.1-0.3 0.3-0.4z"></path><path fill="#97a5d2" d="m12.3 20.9c0.2 0 0.3 0.1 0.2 0.3-0.1 0-0.2-0.2-0.2-0.3z"></path><path fill="#a7b0d4" d="m25.7 20.6c0 0.5-0.2 0.8-0.6 0.9 0.2-0.3 0.4-0.6 0.6-0.9z"></path><path fill="#1c2d85" d="m20.5 13.8c0.5 0.1 0.9 0.1 1.4 0.1l0.8 0.2c0 0.1 0.1 0.2 0.2 0.2 0 0.3-0.1 0.5-0.2 0.7 0.2-0.1 0.4-0.1 0.6 0 0.3 0.5 0.4 0.9 0.5 1.4l-0.1 1.5v0.2c-0.2 0.3-0.3 0.7-0.4 1.1v0.1c-0.1 0.1-0.2 0.2-0.2 0.4-0.2 0.2-0.2 0.4-0.2 0.6-0.2 0.1-0.2 0.2-0.2 0.3-0.2 0.1-0.3 0.2-0.3 0.4-0.1 0.3-0.3 0.7-0.5 1-0.2 0.1-0.3 0.2-0.4 0.4-0.1 0.1-0.2 0.2-0.2 0.4-0.2 0.1-0.4 0.3-0.4 0.5-0.1 0.2-0.2 0.3-0.4 0.4v-0.4c-0.2-0.1-0.5-0.1-0.8-0.2 0.1-0.3 0.2-0.5 0.3-0.8 0-0.1-0.1-0.3-0.3-0.3 0.1-0.2 0.2-0.4 0.4-0.5 0.2-0.1 0.4-0.3 0.4-0.5 0.3-0.1 0.4-0.3 0.4-0.6 0.2-0.1 0.3-0.3 0.3-0.5 0-0.2 0-0.2 0.1-0.3 0.2 0 0.3-0.1 0.2-0.3 0.3-0.3 0.5-0.7 0.5-1.1v-0.3c0.1-0.2 0.3-0.5 0.3-0.9 0.1-0.1 0.1-0.3 0.1-0.5 0.1-0.3 0-0.6-0.2-0.8-0.1-0.3-0.2-0.5-0.4-0.7 0-0.2-0.1-0.3-0.3-0.4-0.3-0.2-0.7-0.4-1.1-0.6 0.1-0.1 0.1-0.1 0.1-0.2z"></path><path fill="#939cd5" d="m13.4 21.2c0.2 0.1 0.3 0.2 0.3 0.3-0.2 0-0.3-0.1-0.3-0.3z"></path><path fill="#7a7fb9" d="m20.5 21c0 0.2-0.2 0.4-0.4 0.5 0-0.2 0.2-0.4 0.4-0.5z"></path><path fill="#1f2f84" d="m11.6 20.1c0.1 0.2 0.2 0.2 0.4 0.2 0.1 0 0.1 0.1 0.1 0.2 0 0.2 0.1 0.3 0.2 0.4 0 0.1 0.1 0.3 0.2 0.3l0.4 0.7c0 0.2 0.1 0.3 0.3 0.4 0.2 0.1 0.2 0.3 0.2 0.5 0.1 0.2 0.3 0.4 0.5 0.5 0.2 0.3 0.4 0.6 0.6 0.9-0.1 0.2 0 0.3 0.2 0.4 0.1 0.1 0.2 0.2 0.2 0.4-0.2-0.1-0.3-0.1-0.4 0 0.1 0.2 0.1 0.4 0 0.6-0.3-0.5-0.4-1.1-0.5-1.6-0.2-0.3-0.3-0.4-0.6-0.4 0-0.3-0.1-0.6-0.2-0.9-0.3 0-0.5-0.1-0.7-0.4l-0.1 0.2c0.3 0.2 0.4 0.5 0.4 0.8-0.2 0-0.3 0.1-0.5 0.2 0.2 0.1 0.4 0.2 0.6 0.3l0.2 0.8c0.1 0.1 0.2 0.1 0.3 0.1 0.1 0.2 0.1 0.4 0 0.6 0.2-0.1 0.4-0.1 0.6 0-0.1 0.1-0.2 0.4-0.2 0.6 0.2 0.6 0.4 1.2 0.7 1.8 0.1-0.3 0.1-0.6 0.2-0.9-0.1-0.3-0.1-0.6-0.1-0.9 0.2 0.1 0.3 0.3 0.4 0.5 0 0.4 0 0.8 0 1.2-0.4 0.3-0.5 0.7-0.4 1.1h0.3c0-0.2 0-0.5 0.1-0.7 0.1-0.1 0.2-0.2 0.4-0.2 0 0.3-0.1 0.5-0.2 0.7-0.2 0.5-0.5 1-0.9 1.5 0.1-0.3 0.1-0.6 0.1-0.9-0.1 0.6-0.4 0.7-0.9 0.4-0.1 0.1-0.2 0.2-0.3 0.1l0.1-0.2c0.3-0.1 0.4-0.3 0.4-0.7 0 0 0.1-0.1 0.1-0.2 0.2-0.8 0.1-1.7-0.1-2.5 0-0.1-0.1-0.2-0.3-0.3 0.1-0.1 0-0.2-0.1-0.2 0-0.2 0-0.3-0.2-0.4-0.1-0.3-0.2-0.5-0.4-0.7-0.3-0.6-0.6-1-1.1-1.4 0-0.2-0.1-0.4-0.3-0.6 0-0.2-0.1-0.3-0.3-0.4 0-0.2-0.1-0.3-0.3-0.3 0-0.3-0.2-0.4-0.3-0.6 0-0.1 0-0.2-0.1-0.3 0.1 0 0.2 0 0.3 0.1 0.1 0.1 0.2 0.3 0.4 0.4-0.1 0-0.1 0.1-0.1 0.1 0.1 0.2 0.3 0.2 0.5 0-0.1-0.5-0.3-1.1-0.4-1.7h0.3c0 0.4 0.1 0.5 0.3 0.4z"></path><path fill="#192b87" d="m14.3 19.5c0.1 0.1 0.2 0.2 0.3 0.4 0.1 0.2 0.2 0.4 0.4 0.6v0.7h0.4c0 0.2-0.1 0.3-0.3 0.5 0.1 0.1 0.2 0.1 0.4 0.1-0.1 0.5 0.2 0.7 0.6 0.3l0 0.2c-0.2 0.4-0.2 0.8 0 1.2l0 0.3c-0.2-0.3-0.3-0.3-0.5 0 0-0.3-0.2-0.4-0.5-0.5h-0.1v-0.2c0.4 0 0.5-0.3 0.5-0.7h-0.5v-0.5h-0.5c0 0.1 0 0.2-0.1 0.3l-0.5-1.1c-0.3-0.1-0.5-0.3-0.7-0.6-0.2-0.3-0.1-0.5 0.4-0.4v-0.4c0.2-0.1 0.5-0.1 0.7-0.2z"></path><path fill="#9ba3d5" d="m25.1 21.5c0.1 0.2 0 0.3-0.2 0.4 0-0.2 0.1-0.3 0.2-0.4z"></path><path fill="#f3f5f8" d="m23.2 13.3c0.3 0.2 0.6 0.4 0.8 0.6l0.4 0.7c0.3 0.8 0.5 1.7 0.4 2.7 0 0.3 0 0.7-0.1 1.1v0.1l-0.5 0.9c-0.1 0.3-0.2 0.6-0.3 0.9-0.2 0.1-0.2 0.2-0.2 0.3l-0.4 0.9c-0.1 0.1-0.2 0.2-0.2 0.4-0.1 0-0.2 0.1-0.2 0.3-0.2 0.1-0.2 0.2-0.2 0.4-0.3 0.1-0.4 0.3-0.5 0.5-0.3 0.4-0.5 0.7-0.7 1.1-0.5 0.4-0.8 0.8-1.1 1.4-0.8 0.7-1.6 1.5-2.3 2.4-0.4 0.1-0.7 0.4-0.9 0.7-0.2 0-0.2 0.1-0.3 0.2-0.1 0-0.3 0-0.4-0.1 0.2-0.2 0.4-0.4 0.5-0.7 0-0.2 0.1-0.3 0.3-0.3 0.1 0 0.2-0.1 0.3-0.3 0.1-0.1 0.2-0.3 0.3-0.3 0.6-0.6 1.1-1.2 1.5-1.8 0-0.2 0.1-0.4 0.3-0.5 0.3-0.3 0.6-0.6 0.9-0.8 0.1-0.2 0.2-0.5 0.3-0.8 0.2-0.1 0.4-0.3 0.4-0.5 0.2-0.1 0.3-0.2 0.2-0.4 0.2 0 0.4-0.2 0.4-0.4 0.2-0.3 0.4-0.7 0.5-1 0.2-0.1 0.3-0.2 0.3-0.4 0-0.1 0-0.2 0.2-0.3 0.2-0.1 0.3-0.3 0.2-0.6 0.2-0.1 0.2-0.2 0.2-0.4v-0.1c0.2-0.4 0.4-0.7 0.4-1.1v-0.2c0.2-0.5 0.2-1.1 0.1-1.8 0-0.7-0.3-1.3-0.8-1.8 0-0.1-0.2-0.2-0.3-0.2-0.2-0.2-0.5-0.4-0.8-0.3-0.5-0.1-1.1-0.1-1.6-0.1-0.3 0-0.5 0-0.8 0 0.2-0.1 0.2-0.2 0.2-0.4v-0.1c1.2-0.3 2.4-0.3 3.5 0.1z"></path><path fill="#6a77a8" d="m23.3 21.5c0.1 0.2 0 0.3-0.2 0.4 0-0.2 0.1-0.3 0.2-0.4z"></path><path fill="#98a1d2" d="m10.7 21.7c0.2 0 0.3 0.1 0.3 0.3-0.2-0.1-0.3-0.2-0.3-0.3z"></path><path fill="#6e75a8" d="m12.9 21.9c0.2 0.1 0.3 0.2 0.3 0.4-0.2-0.1-0.3-0.2-0.3-0.4z"></path><path fill="#7682ad" d="m23.1 21.9c0 0.2 0 0.3-0.2 0.3 0-0.2 0.1-0.3 0.2-0.3z"></path><path fill="#8c94bd" d="m11 22c0.2 0.1 0.3 0.2 0.3 0.4-0.2 0-0.3-0.2-0.3-0.4z"></path><path fill="#a5aad3" d="m21.9 22c0 0.2-0.2 0.4-0.4 0.4 0.1-0.2 0.2-0.3 0.4-0.4z"></path><path fill="#7e88b8" d="m24.9 21.9c0 0.2-0.2 0.4-0.4 0.5 0-0.2 0.2-0.4 0.4-0.5z"></path><path fill="#7781ae" d="m22.9 22.2c0 0.2-0.1 0.3-0.2 0.4 0-0.2 0-0.3 0.2-0.4z"></path><path fill="#a4addf" d="m14.2 22.3c0.2 0.1 0.3 0.2 0.3 0.4-0.2-0.1-0.3-0.2-0.3-0.4z"></path><path fill="#96a0c6" d="m21.5 22.4c0.1 0.2 0 0.3-0.2 0.4 0-0.2 0.1-0.3 0.2-0.4z"></path><path fill="#1d2d85" d="m26 14.3l0.4 0.7c0.2 1 0.2 2 0.2 2.9-0.1 0.1-0.1 0.2-0.1 0.3-0.1 0.3-0.2 0.6-0.2 0.9-0.1 0.2-0.2 0.4-0.3 0.6-0.2 0.3-0.3 0.6-0.3 0.9-0.2 0.3-0.4 0.6-0.6 0.9-0.1 0.1-0.2 0.2-0.2 0.4-0.2 0.1-0.4 0.3-0.4 0.5-0.3 0.3-0.4 0.5-0.5 0.8-0.3 0.2-0.5 0.5-0.7 0.8-0.4 0.5-0.9 0.9-1.4 1.4-0.2 0-0.4 0-0.5 0.2-0.5-0.3-0.5-0.5 0.1-0.8l0.1 0.2c0-0.2 0-0.3-0.1-0.5v-0.3c0.2 0 0.3 0.1 0.4 0.3 0.1-0.3 0.1-0.6 0.1-0.8h0.3c0-0.3 0.1-0.5 0.1-0.7 0.2-0.1 0.2-0.3 0.3-0.4 0.1-0.1 0.2-0.2 0.2-0.4 0.2 0 0.2-0.1 0.2-0.3 0.2-0.1 0.3-0.2 0.2-0.4l0.4-0.9c0.1 0 0.2-0.1 0.2-0.3 0.1-0.3 0.2-0.6 0.3-0.9 0.4-0.2 0.5-0.5 0.5-0.9v-0.1c0.2-0.3 0.3-0.6 0.3-1 0.1-0.5 0-0.9-0.1-1.3-0.1-0.5-0.2-1-0.4-1.5v-0.6c0.3-0.1 0.5 0.1 0.6 0.3 0.2-0.1 0.4-0.1 0.6 0-0.2 0.3-0.3 0.6-0.3 1 0.1 0.1 0.2 0.1 0.3 0.1 0.1-0.4 0.2-0.8 0.3-1.1z"></path><path fill="#b9bede" d="m11.3 22.4c0.2 0.2 0.3 0.4 0.3 0.6-0.2-0.1-0.4-0.2-0.3-0.6z"></path><path fill="#767cad" d="m13.4 22.8c0.3 0.1 0.4 0.3 0.5 0.5-0.2-0.1-0.4-0.3-0.5-0.5z"></path><path fill="#8c97c1" d="m21.3 22.8c0 0.2-0.2 0.4-0.4 0.5 0-0.2 0.2-0.4 0.4-0.5z"></path><path fill="#9fa4d1" d="m22.7 22.6c-0.1 0.1-0.1 0.3-0.3 0.4l-0.2 0.1c0.1-0.2 0.2-0.4 0.5-0.5z"></path><path fill="#8e95c2" d="m14.5 22.7l0.5 0.4v0.5c-0.2-0.3-0.4-0.6-0.5-0.9z"></path><path fill="#6571a7" d="m19.7 22l-1.2 1.6c-0.2 0.1-0.3 0.2-0.6 0.3 0.6-0.5 1-1.1 1.5-1.7 0-0.1 0.2-0.2 0.3-0.2z"></path><path fill="#b7c2df" d="m24.5 22.4c0 0.2 0 0.3-0.1 0.4-0.1 0.2-0.2 0.3-0.4 0.4 0.1-0.3 0.2-0.5 0.5-0.8z"></path><path fill="#d5deed" d="m11.6 23c0.5 0.4 0.8 0.8 1.1 1.4-0.3-0.3-0.5-0.4-0.8-0.5-0.1-0.3-0.2-0.6-0.3-0.9z"></path><path fill="#515b98" d="m15 23.3h0.1c0.2 0.2 0.3 0.5 0.3 0.7l-0.4-0.4v-0.3z"></path><path fill="#1a2b87" d="m19.7 22c0.2 0 0.3 0.2 0.3 0.3-0.1 0.3-0.2 0.5-0.3 0.8 0.3 0.1 0.6 0.1 0.8 0.2v0.4c-0.3 0.4-0.5 0.8-0.8 1.2-0.2 0.1-0.3 0.3-0.3 0.5-0.4 0.3-0.7 0.6-1 1.1-0.3 0-0.5-0.1-0.6-0.3 0-0.4-0.1-0.7-0.2-1.1-0.1 0.6-0.1 1.1 0 1.6-0.2 0.3-0.2 0.5-0.2 0.8 0 0.1-0.1 0.1-0.1 0.1-0.2 0-0.3 0-0.4-0.1 0.2-0.3 0.3-0.6 0.3-0.9-0.1-0.5-0.2-1-0.2-1.5 0.2 0.1 0.3 0 0.4 0-0.3-0.2-0.5-0.2-0.8-0.2 0 0.7 0.1 1.4 0.2 2h-0.3c0-0.6-0.1-1.3-0.2-1.9 0.1-0.8 0.1-1.5 0-2.2 0.2 0.1 0.4 0.1 0.6 0.2 0 0.5 0.2 1 0.6 1.3 0.5 0 0.8-0.3 1-0.7l1.2-1.6z"></path><path fill="#b3bbdc" d="m24 23.2c-0.1 0.4-0.3 0.6-0.7 0.8 0.2-0.3 0.4-0.6 0.7-0.8z"></path><path fill="#283487" d="m15 20.5h0.1c0.7 0.8 1.3 1.6 1.8 2.5-0.2-0.1-0.4-0.1-0.6-0.2 0.1 0.7 0.1 1.4 0 2.2 0.1 0.6 0.2 1.3 0.2 1.9 0 0.3 0 0.5-0.1 0.7 0-0.6-0.1-1.3-0.3-1.9 0-0.3-0.1-0.6-0.3-0.9 0-0.2-0.1-0.3-0.2-0.3 0-0.2-0.1-0.4-0.2-0.5 0-0.2-0.1-0.5-0.3-0.7 0.3 0.1 0.5 0.2 0.5 0.5 0.2-0.3 0.3-0.3 0.5 0l0-0.3c-0.2-0.4-0.2-0.8 0-1.2l0-0.2c-0.4 0.4-0.7 0.2-0.6-0.3-0.2 0-0.3 0-0.4-0.1 0.2-0.2 0.3-0.3 0.3-0.5h-0.4v-0.7z"></path><path fill="#2a357c" d="m16.9 23c0.2 0.2 0.4 0.5 0.6 0.8v0.3c0.1 0.1 0.3 0 0.3-0.1 0.1 0 0.1 0 0.1-0.1 0.3-0.1 0.4-0.2 0.6-0.3-0.2 0.4-0.5 0.7-1 0.7-0.4-0.3-0.6-0.8-0.6-1.3z"></path><path fill="#99a2d5" d="m17.5 23.8c0.1 0.1 0.2 0.2 0.3 0.2 0 0.1-0.2 0.2-0.3 0.1v-0.3z"></path><path fill="#c0c7e3" d="m20.9 23.3c-0.1 0.3-0.2 0.6-0.3 0.8-0.3 0.2-0.6 0.5-0.9 0.8 0.3-0.4 0.5-0.8 0.8-1.2 0.2-0.1 0.3-0.2 0.4-0.4z"></path><path fill="#35408a" d="m22.4 23c0 0.2-0.1 0.4-0.1 0.7h-0.3c0 0.2 0 0.5-0.1 0.8-0.1-0.2-0.2-0.3-0.4-0.3 0.2-0.4 0.4-0.7 0.7-1.1l0.2-0.1z"></path><path fill="#7a88b5" d="m14.5 24.2c0.1 0.1 0.2 0.2 0.2 0.4-0.2-0.1-0.3-0.2-0.2-0.4z"></path><path fill="#96a1d2" d="m15.6 24.5c0.1 0 0.2 0.1 0.2 0.3-0.2 0-0.2-0.2-0.2-0.3z"></path><path fill="#6a74a9" d="m21.5 24.2v0.3c-0.4 0.3-0.7 0.7-1.1 1.1 0.3-0.6 0.6-1 1.1-1.4z"></path><path fill="#9da6ca" d="m23.3 24c-0.1 0.2-0.2 0.3-0.2 0.5-0.5 0.5-1 0.9-1.6 1.3l0.4-0.4c0.5-0.5 1-0.9 1.4-1.4z"></path><path fill="#abb0d4" d="m15.8 24.8c0.2 0.3 0.3 0.6 0.3 0.9-0.2-0.2-0.3-0.4-0.3-0.7v-0.2z"></path><path fill="#243283" d="m18.4 26.5c-0.2 0.2-0.4 0.4-0.5 0.7-0.1 0-0.2 0.2-0.3 0.3h-0.2c0-0.3 0-0.5 0.2-0.8-0.1-0.5-0.1-1 0-1.6 0.1 0.4 0.2 0.7 0.2 1.1 0.1 0.2 0.3 0.3 0.6 0.3z"></path><path fill="#8d96c5" d="m13.1 25.1c0.2 0.1 0.2 0.2 0.2 0.4-0.1-0.1-0.2-0.2-0.2-0.4z"></path><path fill="#1a2a88" d="m14.9 25v0.1c0 0.4 0.2 0.8 0.4 1.2 0.1 0.5 0.1 1 0.1 1.5-0.2 0-0.3 0.1-0.4 0.2-0.1 0.2-0.1 0.5-0.1 0.7h-0.3c-0.1-0.4 0-0.8 0.4-1.1 0-0.4 0-0.8 0-1.2-0.1-0.2-0.2-0.4-0.4-0.5 0 0.3 0 0.6 0.1 0.9-0.1 0.3-0.1 0.6-0.2 0.9-0.3-0.6-0.5-1.2-0.7-1.8 0-0.2 0.1-0.5 0.2-0.6-0.2-0.1-0.4-0.1-0.6 0 0.1-0.2 0.1-0.4 0-0.6-0.1 0-0.2 0-0.4-0.1l-0.1-0.8c-0.2-0.1-0.4-0.2-0.6-0.3 0.2-0.1 0.3-0.2 0.5-0.2 0-0.3-0.1-0.6-0.4-0.8l0.1-0.2c0.2 0.3 0.4 0.4 0.7 0.4 0.1 0.3 0.2 0.6 0.2 0.9 0.3 0 0.4 0.1 0.6 0.4 0.1 0.5 0.2 1.1 0.5 1.6 0.1-0.2 0.1-0.4 0-0.6 0.1-0.1 0.2-0.1 0.4 0z"></path><path fill="#d4daf1" d="m12.7 24.4c0.2 0.2 0.3 0.4 0.4 0.7 0 0.2 0.1 0.3 0.2 0.4 0.1 0 0.2 0.1 0.1 0.2v0.2c-0.1-0.1-0.2-0.2-0.4-0.2-0.1-0.5-0.2-0.9-0.3-1.3z"></path><path fill="#6166a5" d="m14.9 25.1l0.5 0.7c0.1 0.7 0.1 1.4 0 2 0-0.5 0-1-0.1-1.5-0.2-0.4-0.4-0.8-0.4-1.2z"></path><path fill="#253284" d="m21.5 24.5c0.1 0.2 0.1 0.3 0.1 0.5l-0.1-0.2c-0.6 0.3-0.6 0.5-0.1 0.8 0.1-0.2 0.3-0.2 0.5-0.2l-0.4 0.4c-0.5 0.3-0.9 0.7-1.3 1.1h-0.7l-0.2 0.7c-0.5 0.4-0.9 0.8-1.4 1.1-0.1 0-0.1 0.1-0.2 0.2-0.1 0-0.2 0-0.3 0.1-0.2 0-0.2-0.1-0.2-0.3 0.3-0.1 0.6-0.4 0.9-0.7 0.7-0.9 1.5-1.7 2.3-2.4 0.4-0.4 0.7-0.8 1.1-1.1z"></path><path fill="#6470a5" d="m13.4 25.7c0.2 0.1 0.3 0.2 0.3 0.3h-0.1c0 0-0.1-0.1-0.2-0.1v-0.2z"></path><path fill="#1c2f82" d="m17.3 27.6v0.2c-0.2 0-0.3 0.1-0.3 0.3-0.1 0.1-0.3 0.3-0.5 0.4-0.1-0.1-0.2-0.2-0.1-0.3v-0.6c0.1-0.2 0.1-0.4 0.1-0.7h0.3c-0.1-0.6-0.2-1.3-0.2-2 0.3 0 0.5 0 0.8 0.2-0.1 0-0.2 0.1-0.4 0 0 0.5 0.1 1 0.2 1.5 0 0.3-0.1 0.6-0.3 0.9 0.1 0.1 0.2 0.1 0.4 0.1z"></path><path fill="#a9b0d4" d="m19.4 25.4c-0.4 0.6-0.9 1.2-1.5 1.8 0.1-0.3 0.3-0.5 0.5-0.7 0.3-0.5 0.6-0.8 1-1.1z"></path><path fill="#a9b0d7" d="m21.5 25.8c-0.4 0.4-0.8 0.8-1.3 1.1 0.4-0.4 0.8-0.8 1.3-1.1z"></path><path fill="#2d3b7e" d="m20 26.9c-0.2 0.3-0.4 0.5-0.7 0.7l0.2-0.7h0.5z"></path><path fill="#b1b9db" d="m13.6 26h0.1c0.2 0.8 0.3 1.7 0.1 2.5 0 0.1-0.1 0.2-0.1 0.2 0.1-0.9 0.1-1.8-0.1-2.7z"></path><path fill="#b7bcdf" d="m20 26.9h0.2c-0.6 0.6-1.2 1.2-1.8 1.7-0.1 0.1-0.3 0.2-0.5 0.1 0.5-0.3 0.9-0.7 1.4-1.1 0.3-0.2 0.5-0.4 0.7-0.7z"></path><path fill="#9da6d1" d="m17.4 27.5h0.2c-0.1 0.2-0.2 0.3-0.3 0.3v-0.2c0 0 0.1 0 0.1-0.1z"></path><path fill="#717aa4" d="m16.4 28.2c-0.1 0.1 0 0.2 0.1 0.3-0.1 0.3-0.3 0.4-0.5 0.2 0.1-0.2 0.2-0.4 0.4-0.5z"></path><path fill="#6e73ae" d="m18.1 28c-0.3 0.3-0.6 0.6-0.9 0.7 0.2-0.3 0.5-0.6 0.9-0.7z"></path><path fill="#d9ddee" d="m17 28.1c-0.1 0.3-0.3 0.5-0.5 0.7 0.1 0.1 0.3 0.1 0.4 0.1-0.1 0.1-0.2 0.2-0.3 0.4l0 0.1c0.3-0.1 0.5-0.2 0.8-0.3 0.2 0 0.3-0.1 0.3-0.2 0.1-0.1 0.1-0.2 0.2-0.2 0 0.2 0 0.3 0 0.4-0.3 0.1-0.7 0.3-0.9 0.5-0.2-0.1-0.4-0.1-0.6-0.1v-0.4h-0.5c0-0.2 0-0.3 0.1-0.4 0.2 0.2 0.4 0.1 0.5-0.2 0.2-0.1 0.4-0.3 0.5-0.4z"></path><path fill="#4e538f" d="m17.2 28.7c0 0.2 0 0.3 0.2 0.3v0.1c-0.3 0.1-0.5 0.2-0.7 0.3l-0.1-0.1c0.1-0.2 0.2-0.3 0.3-0.4 0.1-0.1 0.1-0.2 0.3-0.2z"></path><path fill="#999ecf" d="m17.7 28.9c0 0.1-0.1 0.2-0.3 0.2v-0.1c0.1-0.1 0.2-0.1 0.3-0.1z"></path><path fill="#adb3da" d="m15.2 28.5c-0.1 0.7-0.4 1.3-0.9 1.7v-0.2c0.4-0.5 0.7-1 0.9-1.5z"></path><path fill="#585e9c" d="m13.7 28.7c0 0.4-0.1 0.6-0.4 0.7 0.1-0.2 0.2-0.5 0.4-0.7z"></path><path fill="#192a89" d="m14.3 30v0.1c-0.2 0-0.5 0-0.7-0.2l-0.1 0.5c-0.1 0-0.1-0.1-0.2-0.1-0.3 0.1-0.5 0.2-0.8 0.2v-0.3c0.3-0.1 0.6-0.3 0.7-0.6 0.1 0.1 0.2 0 0.3-0.1 0.5 0.3 0.8 0.2 0.9-0.4 0 0.3 0 0.6-0.1 0.9z"></path><path fill="#5a649b" d="m13.3 29.4l-0.1 0.2c-0.1 0.3-0.4 0.5-0.7 0.6 0.3-0.3 0.5-0.6 0.8-0.8z"></path><path fill="#888cc0" d="m13.9 30.5c-0.1 0.2-0.2 0.3-0.5 0.3 0.2-0.2 0.3-0.2 0.5-0.3z"></path><path fill="#7880b3" d="m11.9 30.5c-0.2 0.2-0.5 0.3-0.7 0.3-0.6 0-1.2 0.1-1.8 0.2-0.1 0-0.1-0.1-0.1-0.1 0.9-0.1 1.7-0.2 2.6-0.4z"></path><path fill="#213084" d="m14.3 30.1v0.1c-0.2 0-0.3 0.1-0.4 0.3-0.2 0.1-0.3 0.1-0.5 0.3 0 0.1-0.1 0.1-0.2 0.1-0.2 0-0.4 0.1-0.5 0.2-0.9 0.1-1.8 0.1-2.6 0.1-0.2-0.1-0.4-0.2-0.6-0.2h-0.1c0.6-0.1 1.2-0.2 1.8-0.2 0.2 0 0.5-0.1 0.7-0.3 0.2-0.1 0.4-0.2 0.6-0.3v0.3c0.3 0 0.5-0.1 0.8-0.2 0.1 0 0.1 0.1 0.2 0.1l0.1-0.5c0.2 0.2 0.5 0.2 0.7 0.2z"></path><path fill="#8186b4" d="m13.2 30.9c-0.1 0.2-0.3 0.2-0.5 0.2 0.1-0.1 0.3-0.2 0.5-0.2z"></path><path fill="#939bc8" d="m9.5 31c0.2 0 0.4 0.1 0.6 0.2-0.3 0.1-0.5 0-0.6-0.2z"></path><path fill="#6772a8" d="m12.7 31.1c-0.5 0.2-1 0.3-1.6 0.2-0.3 0-0.7 0-1-0.1 0.8 0 1.7 0 2.6-0.1z"></path></svg>