<svg xmlns="http://www.w3.org/2000/svg" width="320" height="319" viewBox="0 0 320 319" version="1.1">
	<path fill-opacity="0.231" d="M 0 159.503 L 0 319.006 160.250 318.753 L 320.500 318.500 320.753 159.250 L 321.006 0 160.503 0 L 0 0 0 159.503 M 0.488 160 C 0.488 247.725, 0.606 283.612, 0.750 239.750 C 0.894 195.887, 0.894 124.112, 0.750 80.250 C 0.606 36.387, 0.488 72.275, 0.488 160 M 94.668 3.046 L 92.269 4.934 95.140 13.418 C 96.719 18.085, 98.651 24.738, 99.434 28.202 C 101.273 36.344, 103.380 44.009, 105.837 51.500 C 106.919 54.800, 108.357 59.638, 109.032 62.250 C 109.745 65.008, 110.834 67, 111.630 67 C 112.383 67, 113 67.477, 113 68.059 C 113 68.641, 112.474 68.793, 111.830 68.395 C 111.059 67.918, 110.864 68.204, 111.259 69.232 C 111.588 70.090, 112.389 72.751, 113.039 75.146 C 113.689 77.541, 114.575 80.400, 115.009 81.500 C 115.443 82.600, 116.330 84.918, 116.979 86.651 C 117.629 88.384, 119.199 90.778, 120.469 91.971 C 121.933 93.346, 122.588 94.858, 122.262 96.105 C 121.786 97.927, 121.960 97.978, 124.624 96.798 C 126.206 96.097, 128.126 94.925, 128.890 94.193 C 129.655 93.461, 131.342 92.166, 132.640 91.316 C 133.938 90.466, 135 89.161, 135 88.416 C 135 87.671, 135.937 85.264, 137.082 83.068 C 138.227 80.871, 138.863 78.587, 138.496 77.993 C 138.128 77.399, 138.355 76.277, 139 75.500 C 139.645 74.723, 139.882 73.618, 139.527 73.044 C 139.172 72.470, 139.385 72, 140 72 C 140.615 72, 140.854 71.573, 140.531 71.050 C 140.208 70.528, 140.809 69.637, 141.867 69.071 C 143.569 68.160, 146.805 58.965, 146.204 56.750 C 146.092 56.338, 146.461 56, 147.025 56 C 147.589 56, 148.322 57.359, 148.654 59.021 C 148.986 60.682, 149.650 62.284, 150.129 62.580 C 150.608 62.876, 151 64.184, 151 65.488 C 151 66.791, 151.675 68.532, 152.500 69.357 C 153.325 70.182, 154 71.757, 154 72.857 C 154 73.957, 154.653 75.510, 155.451 76.308 C 156.248 77.106, 157.205 79.050, 157.577 80.629 C 158.731 85.537, 163.825 93.599, 166.559 94.845 C 168.982 95.949, 169.498 95.701, 173.833 91.356 C 176.400 88.784, 177.938 87.003, 177.250 87.399 C 175.816 88.224, 175.471 85.445, 176.898 84.563 C 177.392 84.258, 178.106 80.744, 178.485 76.754 C 178.864 72.764, 180.303 63.875, 181.683 57 C 184.090 45.009, 186.033 34.804, 188.156 23 C 191.154 6.334, 190.341 4, 181.536 4 C 174.360 4, 173.168 5.198, 172.075 13.500 C 171.569 17.350, 169.731 27.025, 167.991 35 C 166.251 42.975, 164.590 51.073, 164.299 52.994 C 164.009 54.916, 163.154 57.369, 162.401 58.445 C 161.101 60.301, 160.997 60.237, 160.390 57.201 C 160.038 55.440, 159.356 54, 158.875 54 C 158.394 54, 158 53.515, 158 52.923 C 158 52.331, 156.650 50.496, 155 48.846 C 153.187 47.033, 151.991 44.789, 151.978 43.173 C 151.966 41.703, 151.076 39.375, 150 38 C 148.924 36.625, 148.034 34.236, 148.022 32.691 C 148.010 31.134, 147.567 30.149, 147.029 30.482 C 145.601 31.364, 144.536 26.064, 145.873 24.727 C 147.487 23.113, 147.264 20, 145.535 20 C 143.619 20, 142.099 22.944, 141.847 27.139 C 141.737 28.987, 141.213 31.072, 140.683 31.771 C 140.153 32.471, 139.537 34.699, 139.314 36.724 C 139.091 38.749, 138.535 40.877, 138.080 41.453 C 137.624 42.029, 136.999 43.850, 136.690 45.500 C 134.584 56.764, 131.800 65.564, 130.399 65.386 C 129.905 65.323, 129.050 63.748, 128.500 61.886 C 127.950 60.024, 127.098 57.876, 126.607 57.114 C 126.116 56.352, 125.636 55.002, 125.541 54.114 C 125.445 53.226, 124.999 51.150, 124.550 49.500 C 124.100 47.850, 122.257 41.100, 120.454 34.500 C 115.805 17.482, 111.232 7.928, 106.346 5.026 C 100.140 1.340, 97.423 0.879, 94.668 3.046 M 50.655 5.829 C 49.745 6.835, 49 8.083, 49 8.603 C 49 9.123, 47.021 13.022, 44.601 17.267 C 42.182 21.512, 37.210 31.962, 33.552 40.489 C 29.895 49.015, 25.639 58.581, 24.094 61.746 C 22.550 64.911, 20.039 71.100, 18.515 75.500 C 16.991 79.900, 15.379 84.208, 14.931 85.074 C 14.484 85.940, 13.897 88.481, 13.627 90.721 C 13.157 94.618, 13.265 94.812, 16.140 95.234 C 18.085 95.519, 19.967 95.027, 21.480 93.837 C 22.764 92.827, 24.291 92, 24.873 92 C 25.454 92, 26.411 91.100, 27 90 C 27.589 88.900, 27.777 88, 27.418 88 C 27.058 88, 28.537 86.228, 30.702 84.062 C 32.868 81.897, 35.464 78.297, 36.472 76.062 C 37.859 72.986, 38.874 72, 40.652 72 C 41.943 72, 43 71.541, 43 70.980 C 43 70.420, 44.125 70.165, 45.500 70.414 C 47.461 70.770, 48 70.451, 48 68.934 C 48 66.899, 46.060 66.352, 44.450 67.933 C 43.861 68.511, 42.838 68.376, 41.758 67.578 C 40.125 66.371, 40.229 65.630, 43.431 55.644 C 45.309 49.788, 48.230 42.225, 49.923 38.838 C 51.615 35.452, 53 31.938, 53 31.031 C 53 30.124, 53.616 28.540, 54.368 27.511 C 55.682 25.715, 55.790 25.737, 57.078 28.070 C 57.816 29.406, 58.291 31.124, 58.135 31.886 C 57.953 32.771, 58.407 33.058, 59.393 32.679 C 60.242 32.354, 61.202 32.518, 61.527 33.044 C 61.852 33.570, 61.641 34, 61.059 34 C 60.477 34, 60 34.472, 60 35.050 C 60 35.730, 60.579 35.776, 61.642 35.180 C 63.478 34.153, 67 34.760, 67 36.105 C 67 36.584, 66.213 36.910, 65.250 36.830 C 60.784 36.456, 60.143 36.896, 60.994 39.750 C 63.921 49.557, 64.721 51.473, 65.796 51.250 C 67.332 50.931, 67.383 52.706, 65.852 53.216 C 64.996 53.501, 65.023 54.927, 65.956 58.817 C 66.645 61.687, 66.913 65.212, 66.552 66.650 C 65.257 71.809, 76.122 95.279, 78.986 93.508 C 79.429 93.235, 80.046 93.676, 80.357 94.489 C 80.669 95.301, 81.571 95.718, 82.361 95.415 C 83.151 95.112, 84.095 95.344, 84.458 95.932 C 85.446 97.530, 88 97.219, 88 95.500 C 88 94.444, 89.068 94, 91.611 94 L 95.223 94 94.522 90.250 C 94.136 88.188, 93.489 86.050, 93.083 85.500 C 92.677 84.950, 91.538 82.250, 90.552 79.500 C 89.566 76.750, 88.197 73.593, 87.511 72.485 C 86.824 71.377, 85.950 69.050, 85.569 67.314 C 85.188 65.578, 83.751 62.944, 82.376 61.461 C 81.001 59.978, 80.111 58.154, 80.397 57.408 C 80.683 56.663, 80.373 55.703, 79.708 55.276 C 79.044 54.849, 78.455 53.938, 78.400 53.250 C 78.345 52.563, 78.233 51.100, 78.150 50 C 78.067 48.900, 77.126 47.126, 76.058 46.058 C 74.990 44.990, 74.181 43.242, 74.262 42.174 C 74.482 39.245, 70.900 32, 69.232 32 C 68.180 32, 67.912 31.239, 68.283 29.301 C 68.567 27.816, 68.368 25.469, 67.842 24.084 C 67.067 22.047, 66.709 21.847, 65.958 23.034 C 65.277 24.111, 65.027 23.638, 65.015 21.250 C 65.005 19.035, 64.522 18, 63.500 18 C 62.600 18, 62 17.077, 62 15.691 C 62 14.421, 61.375 12.528, 60.611 11.483 C 59.847 10.438, 59.448 8.997, 59.723 8.279 C 61.185 4.469, 53.713 2.450, 50.655 5.829 M 208.739 7.525 C 206.664 9.764, 206.140 11.781, 205.159 21.324 C 204.527 27.471, 204.052 34.158, 204.105 36.184 C 204.157 38.210, 203.895 40.361, 203.522 40.964 C 203.150 41.567, 202.648 49.359, 202.407 58.280 C 202.166 67.201, 201.735 75.240, 201.450 76.145 C 201.165 77.049, 201.593 78.451, 202.402 79.259 C 203.419 80.276, 203.551 81.049, 202.832 81.768 C 201.356 83.244, 202.771 90.483, 204.916 92.424 C 206.980 94.292, 228.407 95.766, 236.297 94.583 C 240.239 93.992, 241.005 93.523, 241.032 91.689 C 241.063 89.549, 241.096 89.543, 242.532 91.441 C 243.933 93.293, 244.005 93.247, 244.116 90.441 C 244.187 88.646, 244.414 88.203, 244.700 89.305 C 244.957 90.298, 245.614 90.962, 246.159 90.780 C 247.772 90.243, 247.280 88.598, 245.066 87.128 C 243.263 85.931, 243 85.963, 243 87.378 C 243 89.718, 241.331 89.374, 240.685 86.902 C 240.171 84.936, 239.579 84.826, 231.318 85.152 L 222.500 85.500 221.825 78 C 220.921 67.950, 220.670 66.627, 219.500 65.750 C 218.863 65.273, 218.986 64.687, 219.836 64.138 C 220.670 63.600, 221.066 61.801, 220.890 59.360 C 220.533 54.414, 221.415 53, 224.859 53 C 226.367 53, 228.061 52.539, 228.625 51.975 C 229.189 51.411, 231.866 50.849, 234.575 50.725 C 237.284 50.601, 239.359 50.106, 239.187 49.624 C 239.015 49.142, 239.915 48.230, 241.187 47.599 C 242.459 46.967, 243.650 45.399, 243.834 44.114 C 244.033 42.721, 243.758 42.031, 243.153 42.405 C 242.595 42.750, 241.856 42.575, 241.510 42.016 C 240.743 40.775, 236.325 40.666, 235.581 41.869 C 235.285 42.347, 233.252 42.586, 231.062 42.401 C 228.433 42.178, 226.555 42.588, 225.537 43.606 C 223.361 45.782, 223.178 44.790, 222.779 28.645 L 222.436 14.789 226.718 15.272 C 229.921 15.633, 231 15.407, 231 14.377 C 231 12.601, 231.936 12.632, 233.974 14.476 C 236.437 16.706, 246.554 16.874, 248.707 14.722 C 250.040 13.388, 250.150 12.750, 249.207 11.807 C 248.543 11.143, 248 9.826, 248 8.879 C 248 6.600, 243.735 5.727, 237.928 6.817 C 235.351 7.301, 232.325 7.295, 230.997 6.803 C 229.568 6.274, 227.468 6.338, 225.671 6.965 C 223.957 7.562, 222.238 7.630, 221.602 7.126 C 220.996 6.645, 218.401 5.949, 215.835 5.578 C 211.643 4.971, 210.925 5.169, 208.739 7.525 M 250 8 C 250 8.550, 250.450 9, 251 9 C 251.550 9, 252 8.550, 252 8 C 252 7.450, 251.550 7, 251 7 C 250.450 7, 250 7.450, 250 8 M 229.500 9 C 229.840 9.550, 230.316 10, 230.559 10 C 230.802 10, 231 9.550, 231 9 C 231 8.450, 230.523 8, 229.941 8 C 229.359 8, 229.160 8.450, 229.500 9 M 60.500 27 C 60.840 27.550, 61.568 28, 62.118 28 C 62.668 28, 62.840 27.550, 62.500 27 C 62.160 26.450, 61.432 26, 60.882 26 C 60.332 26, 60.160 26.450, 60.500 27 M 180.500 29 C 180.160 29.550, 180.359 30, 180.941 30 C 181.523 30, 182 29.550, 182 29 C 182 28.450, 181.802 28, 181.559 28 C 181.316 28, 180.840 28.450, 180.500 29 M 68 35 C 68 35.550, 68.450 36, 69 36 C 69.550 36, 70 35.550, 70 35 C 70 34.450, 69.550 34, 69 34 C 68.450 34, 68 34.450, 68 35 M 65.500 40 C 65.160 40.550, 65.359 41, 65.941 41 C 66.523 41, 67 40.550, 67 40 C 67 39.450, 66.802 39, 66.559 39 C 66.316 39, 65.840 39.450, 65.500 40 M 63.500 43 C 63.160 43.550, 63.359 44, 63.941 44 C 64.523 44, 65 43.550, 65 43 C 65 42.450, 64.802 42, 64.559 42 C 64.316 42, 63.840 42.450, 63.500 43 M 178 47.059 C 178 47.641, 178.450 47.840, 179 47.500 C 179.550 47.160, 180 46.684, 180 46.441 C 180 46.198, 179.550 46, 179 46 C 178.450 46, 178 46.477, 178 47.059 M 152 50 C 152 50.550, 152.477 51, 153.059 51 C 153.641 51, 153.840 50.550, 153.500 50 C 153.160 49.450, 152.684 49, 152.441 49 C 152.198 49, 152 49.450, 152 50 M 34.500 55 C 34.160 55.550, 34.359 56, 34.941 56 C 35.523 56, 36 55.550, 36 55 C 36 54.450, 35.802 54, 35.559 54 C 35.316 54, 34.840 54.450, 34.500 55 M 136 55 C 136 55.550, 136.450 56, 137 56 C 137.550 56, 138 55.550, 138 55 C 138 54.450, 137.550 54, 137 54 C 136.450 54, 136 54.450, 136 55 M 216 59 C 216 59.550, 216.450 60, 217 60 C 217.550 60, 218 59.550, 218 59 C 218 58.450, 217.550 58, 217 58 C 216.450 58, 216 58.450, 216 59 M 216 64.941 C 216 65.459, 216.450 66.160, 217 66.500 C 217.550 66.840, 218 66.416, 218 65.559 C 218 64.702, 217.550 64, 217 64 C 216.450 64, 216 64.423, 216 64.941 M 50.345 68.543 C 50.019 69.392, 50.034 70.367, 50.376 70.710 C 50.719 71.053, 51 70.808, 51 70.167 C 51 69.525, 51.675 69, 52.500 69 C 53.325 69, 54 68.550, 54 68 C 54 66.400, 50.996 66.847, 50.345 68.543 M 55.701 68.964 C 56.140 70.643, 56.417 70.726, 57.607 69.536 C 59.491 67.651, 59.359 67, 57.094 67 C 55.691 67, 55.323 67.519, 55.701 68.964 M 60.504 68.007 C 60.847 68.561, 60.423 69.284, 59.563 69.614 C 56.967 70.610, 57.804 72, 61 72 C 63.533 72, 64 71.611, 64 69.500 C 64 67.643, 63.471 67, 61.941 67 C 60.809 67, 60.162 67.453, 60.504 68.007 M 215.500 70 C 214.684 71.320, 215.880 73.192, 217.069 72.457 C 218.284 71.707, 218.276 69, 217.059 69 C 216.541 69, 215.840 69.450, 215.500 70 M 120.543 70.931 C 120.226 71.443, 120.425 72.144, 120.984 72.490 C 121.543 72.835, 122 72.416, 122 71.559 C 122 69.802, 121.400 69.544, 120.543 70.931 M 216.543 74.931 C 216.226 75.443, 216.425 76.144, 216.984 76.490 C 217.543 76.835, 218 76.416, 218 75.559 C 218 73.802, 217.400 73.544, 216.543 74.931 M 166.500 81 C 166.160 81.550, 166.359 82, 166.941 82 C 167.523 82, 168 81.550, 168 81 C 168 80.450, 167.802 80, 167.559 80 C 167.316 80, 166.840 80.450, 166.500 81 M 172.356 83.596 C 172.276 84.918, 172.614 86, 173.106 86 C 174.186 86, 174.309 82.309, 173.250 81.655 C 172.838 81.400, 172.435 82.274, 172.356 83.596 M 207.500 83 C 207.160 83.550, 207.610 84, 208.500 84 C 209.390 84, 209.840 83.550, 209.500 83 C 209.160 82.450, 208.710 82, 208.500 82 C 208.290 82, 207.840 82.450, 207.500 83 M 83.500 88 C 83.160 88.550, 83.359 89, 83.941 89 C 84.523 89, 85 88.550, 85 88 C 85 87.450, 84.802 87, 84.559 87 C 84.316 87, 83.840 87.450, 83.500 88 M 17 93 C 17 93.550, 17.450 94, 18 94 C 18.550 94, 19 93.550, 19 93 C 19 92.450, 18.550 92, 18 92 C 17.450 92, 17 92.450, 17 93 M 96.475 101.041 C 96.121 101.613, 94.182 103.129, 92.166 104.409 C 84.719 109.138, 78.643 116.286, 75.870 123.580 C 73.103 130.857, 70.649 142.835, 71.453 145.141 C 71.713 145.889, 72.392 151.716, 72.962 158.091 C 73.532 164.467, 74.901 172.305, 76.004 175.511 C 78.334 182.284, 83.796 191.244, 85.102 190.437 C 85.596 190.132, 86 190.535, 86 191.334 C 86 192.631, 88.155 194.180, 90.286 194.414 C 90.719 194.461, 91.394 194.950, 91.786 195.500 C 93.020 197.229, 94.999 197.075, 95.015 195.250 C 95.025 194.099, 95.286 193.901, 95.775 194.671 C 96.185 195.315, 97.753 196.151, 99.260 196.529 C 100.767 196.907, 102 197.618, 102 198.108 C 102 199.577, 107.389 199.116, 109.777 197.443 C 111 196.587, 112 195.188, 112 194.335 C 112 193.143, 112.635 192.943, 114.740 193.471 C 116.247 193.849, 117.766 194.621, 118.115 195.186 C 119.079 196.746, 122.988 195.171, 127.766 191.298 C 132.334 187.595, 133.860 185.197, 136.354 177.806 C 137.763 173.631, 137.777 172.581, 136.480 168.306 C 134.747 162.596, 134.672 161.679, 136 162.500 C 137.501 163.427, 137.241 155.791, 135.423 145.500 C 133.421 134.176, 131.460 127.327, 128.402 120.988 C 127.081 118.250, 125.985 115.670, 125.967 115.255 C 125.872 113.105, 117 105.846, 117 107.918 C 117 108.448, 117.472 109.174, 118.049 109.530 C 118.775 109.979, 118.778 110.563, 118.057 111.431 C 117.485 112.120, 117.313 112.980, 117.675 113.342 C 118.037 113.704, 117.863 114, 117.289 114 C 115.670 114, 113.951 111.461, 114.869 110.426 C 115.321 109.917, 115.091 108.375, 114.360 107 L 113.029 104.500 113.015 107.250 C 113.007 108.763, 112.550 110, 112 110 C 111.450 110, 111 109.362, 111 108.583 C 111 107.804, 110.438 106.904, 109.750 106.583 C 108.750 106.117, 108.750 105.883, 109.750 105.417 C 111.881 104.422, 111.127 103, 108.468 103 C 107.075 103, 104.320 102.325, 102.346 101.500 C 98.091 99.722, 97.327 99.663, 96.475 101.041 M 232.804 101.750 C 231.027 103.814, 228.417 108.705, 223.601 119 C 221.671 123.125, 218.951 128.300, 217.556 130.500 C 216.162 132.700, 214.535 135.624, 213.941 136.998 C 213.347 138.372, 212.261 140.172, 211.528 140.998 C 210.795 141.824, 208.528 145.747, 206.490 149.717 C 202.154 158.164, 200.025 160.493, 199.952 156.872 C 199.902 154.386, 199 152.483, 192.583 141.316 C 186.464 130.668, 180.394 121.723, 177.085 118.474 C 175.419 116.838, 174.043 115.138, 174.028 114.696 C 174.013 114.253, 172.613 112.453, 170.918 110.696 C 169.223 108.938, 167.398 106.317, 166.863 104.872 C 166.024 102.607, 165.171 102.173, 160.695 101.734 C 150.967 100.779, 150.016 102.914, 150.055 125.628 C 150.071 134.653, 149.807 143.510, 149.469 145.312 C 148.374 151.148, 154.697 194.066, 156.753 194.751 C 157.368 194.956, 158.557 193.858, 159.396 192.312 C 160.406 190.449, 160.933 190.068, 160.960 191.183 C 161.014 193.433, 164.100 194.293, 167.495 193.002 L 170.254 191.953 169.606 174.727 C 169.250 165.252, 168.685 152.662, 168.351 146.750 C 167.742 135.979, 168.441 133.584, 170.832 138.250 C 172.173 140.866, 172.319 141.101, 181.402 155.249 C 185.198 161.162, 188.634 166, 189.036 166 C 189.438 166, 190.002 166.900, 190.290 168 C 190.577 169.100, 191.305 170, 191.906 170 C 193.288 170, 193.350 167.283, 191.979 166.826 C 191.417 166.639, 190.855 165.027, 190.729 163.245 C 190.602 161.442, 189.945 160.003, 189.250 160.002 C 188.563 160.001, 188 159.325, 188 158.500 C 188 157.675, 187.298 157, 186.441 157 C 185.584 157, 185.160 156.550, 185.500 156 C 186.592 154.233, 190.117 154.830, 189.794 156.728 C 189.434 158.845, 191.579 159.078, 195.200 157.315 C 198.750 155.586, 199 155.635, 199 158.059 C 199 159.191, 198.586 159.862, 198.081 159.550 C 197.575 159.237, 196.400 159.743, 195.470 160.673 C 193.920 162.223, 193.913 162.463, 195.389 163.543 C 197.123 164.810, 197.658 166.525, 196 165.500 C 194.991 164.876, 194.633 166.107, 194.934 169.167 C 195.024 170.084, 194.407 170.984, 193.562 171.167 C 192.428 171.413, 193.135 172.755, 196.263 176.296 L 200.500 181.092 200.765 177.346 C 200.911 175.285, 201.573 173.264, 202.236 172.854 C 203.996 171.766, 204.712 172.935, 202.971 174.054 C 201.744 174.843, 201.726 175.146, 202.863 175.879 C 204.014 176.621, 204.014 176.833, 202.863 177.242 C 200.749 177.993, 202.492 179.152, 206.263 179.502 C 211.716 180.009, 212.883 178.686, 210.193 175.047 C 207.574 171.505, 207.623 171.360, 214.788 161.515 C 221.359 152.485, 223.464 148.969, 225.516 143.597 C 226.495 141.033, 227.614 138.739, 228.001 138.499 C 228.388 138.260, 229.006 147.387, 229.374 158.782 C 230.077 180.599, 231.624 192.531, 233.932 193.958 C 235.579 194.976, 238.057 194.265, 239.639 192.321 C 240.608 191.130, 241.017 191.160, 242.381 192.524 C 243.263 193.406, 244.400 193.871, 244.907 193.558 C 245.414 193.244, 246.016 193.549, 246.245 194.235 C 246.551 195.153, 247.091 195.052, 248.291 193.852 C 250.657 191.486, 251.373 181.171, 249.982 169.500 C 249.326 164, 248.619 151.625, 248.412 142 C 247.964 121.181, 247.824 120.028, 244.448 109.427 C 242.410 103.027, 241.342 101.058, 239.662 100.607 C 236.053 99.639, 234.381 99.918, 232.804 101.750 M 38.338 101.977 C 29.978 102.930, 21.586 107.158, 18.352 112.045 C 15.603 116.198, 15.243 119.245, 16.420 128.385 C 17.160 134.132, 17.392 134.486, 26.339 143.549 C 39.178 156.555, 39.622 157.086, 42.664 163.112 C 44.821 167.382, 45.468 170.263, 45.785 177 C 46.149 184.728, 45.947 185.923, 43.560 190.156 C 42.116 192.716, 40.206 195.091, 39.315 195.433 C 35.962 196.719, 27.433 192.489, 19.500 185.606 C 16.096 182.651, 12.857 182.262, 10.936 184.577 C 9.130 186.753, 11.999 191.949, 17.853 197.102 L 22.282 201 32.990 201 C 43.359 201, 43.917 200.885, 50.599 197.379 C 58.910 193.018, 61.569 190.719, 64.169 185.650 C 66.353 181.390, 66.842 172.442, 65.071 169.133 C 64.482 168.032, 64 166.442, 64 165.599 C 64 161.984, 55.814 151.600, 48.037 145.349 C 39.897 138.807, 35 132.967, 35 129.802 C 35 128.848, 34.238 126.469, 33.306 124.515 C 31.829 121.418, 31.782 120.484, 32.942 117.231 C 36.087 108.406, 40.366 105.416, 44.974 108.823 C 47.181 110.454, 48.424 110.694, 51.310 110.043 C 53.284 109.598, 55.109 109.442, 55.364 109.698 C 55.620 109.953, 56.854 109.613, 58.107 108.943 C 60.287 107.776, 60.108 107.581, 53.943 104.410 C 50.399 102.588, 46.825 101.137, 46 101.185 C 45.175 101.234, 41.727 101.590, 38.338 101.977 M 100.856 107.021 C 98.385 108.463, 94.776 115.858, 93.788 121.500 C 91.799 132.867, 91.829 139.692, 93.939 155 C 96.284 172.022, 99.831 184.732, 103.637 189.750 C 106.267 193.218, 109.402 194.002, 110.386 191.437 C 110.736 190.523, 111.509 190.174, 112.243 190.597 C 112.934 190.995, 113.204 190.990, 112.841 190.585 C 112.479 190.180, 112.587 188.438, 113.082 186.714 C 113.577 184.989, 114.201 181.311, 114.471 178.539 C 117.730 144.958, 117.785 142.175, 115.458 128.269 C 113.660 117.522, 111.824 112.570, 108.220 108.750 C 105.500 105.867, 103.597 105.420, 100.856 107.021 M 116 116 C 115.207 116.490, 114.783 117.116, 115.058 117.391 C 115.333 117.666, 116.207 117.490, 117 117 C 117.793 116.510, 118.217 115.884, 117.942 115.609 C 117.667 115.334, 116.793 115.510, 116 116 M 172.500 120 C 172.840 120.550, 173.316 121, 173.559 121 C 173.802 121, 174 120.550, 174 120 C 174 119.450, 173.523 119, 172.941 119 C 172.359 119, 172.160 119.450, 172.500 120 M 118.543 120.931 C 117.860 122.036, 119.437 123.230, 120.361 122.306 C 121.311 121.355, 121.134 120, 120.059 120 C 119.541 120, 118.859 120.419, 118.543 120.931 M 170 121 C 170 121.550, 170.477 122, 171.059 122 C 171.641 122, 171.840 121.550, 171.500 121 C 171.160 120.450, 170.684 120, 170.441 120 C 170.198 120, 170 120.450, 170 121 M 122.032 123.715 C 122.075 124.788, 124.570 128, 125.360 128 C 126.859 128, 125.832 124.980, 124 124 C 122.900 123.411, 122.014 123.283, 122.032 123.715 M 179 126 C 179 126.550, 179.450 127, 180 127 C 180.550 127, 181 126.550, 181 126 C 181 125.450, 180.550 125, 180 125 C 179.450 125, 179 125.450, 179 126 M 117 128.559 C 117 129.416, 117.457 129.835, 118.016 129.490 C 118.575 129.144, 118.774 128.443, 118.457 127.931 C 117.600 126.544, 117 126.802, 117 128.559 M 124 131 C 124 132.922, 125.956 133.711, 127.325 132.342 C 128.082 131.585, 126.189 129, 124.878 129 C 124.395 129, 124 129.900, 124 131 M 177.737 137.750 C 177.528 138.162, 177.673 139.850, 178.060 141.500 C 178.752 144.450, 178.765 144.437, 178.882 140.750 C 178.994 137.189, 178.577 136.096, 177.737 137.750 M 181.200 141.200 C 179.492 142.908, 179.716 144.202, 181.656 143.823 C 182.566 143.645, 183.426 142.713, 183.567 141.750 C 183.865 139.715, 182.907 139.493, 181.200 141.200 M 185 148.441 C 185 149.298, 185.450 150, 186 150 C 186.550 150, 187 149.577, 187 149.059 C 187 148.541, 186.550 147.840, 186 147.500 C 185.450 147.160, 185 147.584, 185 148.441 M 190 148.559 C 190 149.416, 190.450 149.840, 191 149.500 C 191.550 149.160, 192 148.459, 192 147.941 C 192 147.423, 191.550 147, 191 147 C 190.450 147, 190 147.702, 190 148.559 M 77.500 149 C 77.160 149.550, 77.610 150, 78.500 150 C 79.390 150, 79.840 149.550, 79.500 149 C 79.160 148.450, 78.710 148, 78.500 148 C 78.290 148, 77.840 148.450, 77.500 149 M 124.684 148.750 C 124.446 149.162, 124.612 150.400, 125.055 151.500 C 125.757 153.246, 125.868 153.151, 125.930 150.750 C 125.999 148.037, 125.531 147.286, 124.684 148.750 M 237 149 C 237 149.550, 237.423 150, 237.941 150 C 238.459 150, 239.160 149.550, 239.500 149 C 239.840 148.450, 239.416 148, 238.559 148 C 237.702 148, 237 148.450, 237 149 M 183 154.559 C 183 155.416, 183.457 155.835, 184.016 155.490 C 184.575 155.144, 184.774 154.443, 184.457 153.931 C 183.600 152.544, 183 152.802, 183 154.559 M 191.500 154 C 191.160 154.550, 191.557 155, 192.382 155 C 193.207 155, 194.160 154.550, 194.500 154 C 194.840 153.450, 194.443 153, 193.618 153 C 192.793 153, 191.840 153.450, 191.500 154 M 125 155 C 125 155.550, 125.450 156, 126 156 C 126.550 156, 127 155.550, 127 155 C 127 154.450, 126.550 154, 126 154 C 125.450 154, 125 154.450, 125 155 M 79 157 C 79 157.550, 79.477 158, 80.059 158 C 80.641 158, 80.840 157.550, 80.500 157 C 80.160 156.450, 79.684 156, 79.441 156 C 79.198 156, 79 156.450, 79 157 M 212 159 C 212 159.550, 212.450 160, 213 160 C 213.550 160, 214 159.550, 214 159 C 214 158.450, 213.550 158, 213 158 C 212.450 158, 212 158.450, 212 159 M 157.572 159.750 C 158.069 160.162, 158.813 160.950, 159.223 161.500 C 159.649 162.071, 159.976 161.749, 159.985 160.750 C 159.993 159.777, 159.260 159, 158.333 159 C 157.417 159, 157.074 159.338, 157.572 159.750 M 48.079 165.583 C 48.127 166.748, 48.364 166.985, 48.683 166.188 C 48.972 165.466, 48.936 164.603, 48.604 164.271 C 48.272 163.939, 48.036 164.529, 48.079 165.583 M 137 166.941 C 137 167.459, 137.445 168.157, 137.989 168.493 C 138.555 168.843, 138.723 168.442, 138.382 167.552 C 137.717 165.820, 137 165.503, 137 166.941 M 196 172.939 C 196 173.902, 196.871 175.478, 197.936 176.442 C 199.811 178.139, 199.869 178.098, 199.786 175.174 C 199.690 171.815, 196 169.635, 196 172.939 M 206 174.878 C 206 175.360, 206.675 176.315, 207.500 177 C 208.753 178.040, 209 177.896, 209 176.122 C 209 174.902, 208.362 174, 207.500 174 C 206.675 174, 206 174.395, 206 174.878 M 238.553 178.915 C 238.231 179.436, 238.394 180.125, 238.915 180.447 C 239.436 180.769, 240.125 180.606, 240.447 180.085 C 240.769 179.564, 240.606 178.875, 240.085 178.553 C 239.564 178.231, 238.875 178.394, 238.553 178.915 M 239 187.559 C 239 188.416, 239.457 188.835, 240.016 188.490 C 240.575 188.144, 240.774 187.443, 240.457 186.931 C 239.600 185.544, 239 185.802, 239 187.559 M 244 187 C 244 187.550, 244.450 188, 245 188 C 245.550 188, 246 187.550, 246 187 C 246 186.450, 245.550 186, 245 186 C 244.450 186, 244 186.450, 244 187 M 12 189 C 12 189.550, 12.450 190, 13 190 C 13.550 190, 14 189.550, 14 189 C 14 188.450, 13.550 188, 13 188 C 12.450 188, 12 188.450, 12 189 M 115.557 190.582 C 114.491 191.362, 114.041 191.993, 114.559 191.985 C 115.941 191.962, 118.520 190.186, 117.969 189.636 C 117.710 189.376, 116.624 189.802, 115.557 190.582 M 88 191.393 C 88 191.609, 88.675 192.045, 89.500 192.362 C 90.325 192.678, 91 192.501, 91 191.969 C 91 191.436, 90.325 191, 89.500 191 C 88.675 191, 88 191.177, 88 191.393 M 36.717 208.616 C 36.378 208.956, 32.590 209.518, 28.300 209.866 C 21.139 210.448, 20.498 210.680, 20.470 212.697 C 20.453 213.905, 20.111 215.223, 19.708 215.625 C 19.306 216.028, 19.257 217.852, 19.599 219.678 C 19.942 221.505, 19.814 223, 19.315 223 C 18.816 223, 18.456 224.238, 18.515 225.750 C 18.575 227.262, 18.244 229.284, 17.781 230.243 C 16.520 232.848, 16.726 260.965, 18.017 262.521 C 18.637 263.267, 18.710 264.061, 18.190 264.382 C 17.691 264.691, 17.444 267.768, 17.640 271.222 C 17.836 274.675, 17.992 278.706, 17.987 280.179 C 17.981 282.167, 18.562 282.973, 20.240 283.302 L 22.500 283.746 20.130 284.521 C 17.904 285.249, 17.799 285.631, 18.404 290.783 C 18.759 293.801, 19.369 296.772, 19.759 297.385 C 20.150 297.998, 20.476 298.948, 20.485 299.496 C 20.513 301.327, 54.654 304.244, 64.902 303.290 C 70.670 302.754, 71.116 302.558, 69.406 301.308 C 67.772 300.112, 67.716 299.791, 69.005 298.976 C 70.156 298.248, 69.868 298.027, 67.750 298.015 C 65.108 298.001, 64.270 297.064, 65.658 295.675 C 66.020 295.313, 66.920 295.519, 67.658 296.131 C 68.720 297.012, 69 296.722, 69 294.739 C 69 291.406, 67.279 290.968, 51.500 290.293 C 44.350 289.987, 38.258 289.361, 37.962 288.902 C 37.666 288.443, 36.304 288.648, 34.936 289.358 C 33.567 290.068, 31.897 290.466, 31.224 290.241 C 29.399 289.633, 29.727 286, 31.607 286 C 32.625 286, 33.003 286.550, 32.638 287.500 C 32.322 288.325, 32.499 289, 33.031 289 C 33.564 289, 34 288.550, 34 288 C 34 287.450, 34.900 287, 36 287 C 37.206 287, 38.033 286.306, 38.083 285.250 C 38.129 284.288, 38.351 282.375, 38.575 281 C 38.800 279.625, 39.276 273.663, 39.634 267.750 C 40.170 258.869, 40.563 256.983, 41.892 256.901 C 42.776 256.847, 44.400 256.705, 45.500 256.586 C 46.600 256.467, 49.356 256.286, 51.625 256.185 C 55.401 256.016, 55.814 255.725, 56.508 252.750 L 57.266 249.500 57.904 252.500 C 58.328 254.491, 58.807 255.079, 59.330 254.250 C 59.764 253.563, 59.793 252.474, 59.395 251.830 C 58.918 251.058, 59.205 250.865, 60.237 251.261 C 61.253 251.650, 61.977 251.194, 62.300 249.963 C 62.762 248.193, 62.037 248.044, 51.648 247.782 L 40.500 247.500 40.304 238.537 C 40.185 233.045, 39.466 227.890, 38.449 225.226 C 36.601 220.388, 36.955 219.529, 40.837 219.438 C 57.491 219.047, 59.195 218.471, 58.256 213.556 C 57.982 212.123, 58.230 211, 58.820 211 C 59.399 211, 60.055 212.463, 60.277 214.250 L 60.680 217.500 60.840 214.128 C 60.976 211.251, 61.220 210.938, 62.500 212 C 63.748 213.036, 64 212.910, 64 211.253 C 64 209.729, 63.121 209.116, 60.250 208.642 C 55.378 207.837, 37.516 207.817, 36.717 208.616 M 26.079 223.583 C 26.127 224.748, 26.364 224.985, 26.683 224.188 C 26.972 223.466, 26.936 222.603, 26.604 222.271 C 26.272 221.939, 26.036 222.529, 26.079 223.583 M 31 223.500 C 31 224.325, 31.450 225, 32 225 C 32.550 225, 33 224.325, 33 223.500 C 33 222.675, 32.550 222, 32 222 C 31.450 222, 31 222.675, 31 223.500 M 31 244 C 31 244.550, 31.702 245, 32.559 245 C 33.416 245, 33.840 244.550, 33.500 244 C 33.160 243.450, 32.459 243, 31.941 243 C 31.423 243, 31 243.450, 31 244 M 45.500 250 C 45.160 250.550, 45.359 251, 45.941 251 C 46.523 251, 47 250.550, 47 250 C 47 249.450, 46.802 249, 46.559 249 C 46.316 249, 45.840 249.450, 45.500 250 M 53 251 C 53 251.550, 53.450 252, 54 252 C 54.550 252, 55 251.550, 55 251 C 55 250.450, 54.550 250, 54 250 C 53.450 250, 53 250.450, 53 251 M 29.620 259.807 C 29.115 260.622, 29.628 266.962, 30.249 267.582 C 30.419 267.752, 31.220 267.431, 32.029 266.869 C 33.064 266.150, 33.152 265.705, 32.327 265.366 C 31.681 265.101, 31.347 263.814, 31.585 262.506 C 32.014 260.139, 30.608 258.207, 29.620 259.807 M 22 262 C 22 262.550, 22.450 263, 23 263 C 23.550 263, 24 262.550, 24 262 C 24 261.450, 23.550 261, 23 261 C 22.450 261, 22 261.450, 22 262 M 30 271 C 30 272.100, 30.436 273, 30.969 273 C 31.501 273, 31.678 273.675, 31.362 274.500 C 31.005 275.429, 31.366 276, 32.311 276 C 34.924 276, 37 274.846, 37 273.393 C 37 271.661, 35.333 271.557, 34.698 273.250 C 34.374 274.114, 33.759 273.886, 32.703 272.511 C 31.864 271.417, 31.389 270.180, 31.648 269.761 C 31.906 269.342, 31.641 269, 31.059 269 C 30.477 269, 30 269.900, 30 271 M 29 277.531 C 29 278.339, 29.675 279, 30.500 279 C 31.325 279, 32 278.598, 32 278.107 C 32 277.616, 31.325 276.955, 30.500 276.638 C 29.586 276.288, 29 276.637, 29 277.531 M 27.362 281.500 C 27.678 282.325, 27.475 283, 26.910 283 C 26.344 283, 26.160 283.450, 26.500 284 C 26.840 284.550, 26.641 285, 26.059 285 C 25.477 285, 25 285.460, 25 286.023 C 25 286.586, 26.077 286.340, 27.394 285.477 C 29.756 283.930, 30.030 280, 27.776 280 C 27.232 280, 27.045 280.675, 27.362 281.500 M 32.500 283 C 32.840 283.550, 33.541 284, 34.059 284 C 34.577 284, 35 283.550, 35 283 C 35 282.450, 34.298 282, 33.441 282 C 32.584 282, 32.160 282.450, 32.500 283" stroke="none" fill="black" fill-rule="evenodd"/>
	<path fill-opacity="0.439" d="M -0 159.522 L 0 319.006 160.250 318.753 L 320.500 318.500 320.753 159.247 L 321.006 -0.007 160.503 0.015 L -0 0.037 -0 159.522 M 0.488 160 C 0.488 247.725, 0.606 283.612, 0.750 239.750 C 0.894 195.887, 0.894 124.112, 0.750 80.250 C 0.606 36.387, 0.488 72.275, 0.488 160 M 94.009 2.792 L 91.689 4.670 94.379 12.251 C 95.859 16.420, 97.683 22.682, 98.433 26.166 C 100.736 36.868, 102.199 42.310, 104.033 47 C 105.001 49.475, 106.985 55.910, 108.442 61.301 C 112.816 77.486, 118.024 90.970, 120.539 92.617 C 122.034 93.597, 122.617 94.747, 122.278 96.046 C 121.748 98.072, 123.407 98.769, 124.510 96.984 C 124.856 96.425, 125.607 96.257, 126.181 96.612 C 126.754 96.966, 127.511 96.846, 127.862 96.344 C 128.213 95.842, 129.825 94.413, 131.445 93.168 C 133.065 91.923, 135.019 89.239, 135.788 87.202 C 137.897 81.615, 140.217 73.719, 140.329 71.749 C 140.384 70.787, 141.232 69.744, 142.214 69.432 C 143.196 69.120, 144 68.022, 144 66.992 C 144 65.961, 144.391 64.876, 144.869 64.581 C 145.346 64.286, 146.065 62.122, 146.465 59.772 L 147.193 55.500 149.437 62.947 C 150.671 67.043, 152.203 70.568, 152.841 70.780 C 153.478 70.993, 154 72.160, 154 73.373 C 154 74.587, 155.816 78.937, 158.036 83.040 C 160.255 87.143, 162.316 91.223, 162.615 92.106 C 162.913 92.989, 164.581 94.386, 166.321 95.210 C 169.481 96.707, 169.489 96.703, 174.242 91.849 C 179.204 86.782, 180.029 85.391, 177.500 86.362 C 176.675 86.678, 176 86.549, 176 86.076 C 176 85.602, 176.675 84.955, 177.500 84.638 C 178.613 84.211, 179.001 82.440, 179.003 77.781 C 179.006 71.922, 181.682 55.653, 184.148 46.500 C 184.741 44.300, 185.602 40.250, 186.061 37.500 C 186.520 34.750, 187.613 28.450, 188.490 23.500 C 189.367 18.550, 189.953 12.475, 189.792 10 C 189.513 5.704, 189.311 5.435, 185.345 4.063 C 181.987 2.903, 180.429 2.855, 177.231 3.813 C 173.372 4.969, 173.245 5.153, 172.116 11.249 C 171.479 14.687, 169.618 23.800, 167.981 31.500 C 166.343 39.200, 164.711 47.750, 164.353 50.500 C 163.995 53.250, 163.148 56.310, 162.472 57.300 C 161.333 58.967, 161.194 58.911, 160.602 56.550 C 160.250 55.147, 159.520 54, 158.981 54 C 158.441 54, 157.987 53.212, 157.972 52.250 C 157.957 51.288, 156.607 49.187, 154.972 47.583 C 153.337 45.979, 151.997 43.729, 151.994 42.583 C 151.990 41.437, 151.315 39.211, 150.494 37.636 C 149.672 36.060, 149 33.909, 149 32.854 C 149 31.800, 148.300 30.669, 147.444 30.340 C 146.181 29.856, 146.015 28.731, 146.559 24.372 C 147.301 18.437, 146.531 17.742, 143.174 21.314 C 141.667 22.919, 141 24.895, 141 27.755 C 141 30.025, 140.550 32.160, 140 32.500 C 139.450 32.840, 139 34.061, 139 35.213 C 139 36.366, 137.838 41.402, 136.417 46.404 C 134.997 51.407, 133.282 57.440, 132.607 59.811 C 131.334 64.285, 129.755 65.424, 129.151 62.303 C 128.960 61.311, 128.235 59.150, 127.541 57.500 C 126.848 55.850, 124.147 46.850, 121.539 37.500 C 115.715 16.614, 111.998 8.544, 106.500 4.841 C 100.938 1.094, 96.919 0.435, 94.009 2.792 M 53.391 3.755 C 51.879 4.004, 49.729 6.991, 45.801 14.301 C 40.502 24.161, 33.657 38.786, 30.964 46 C 30.245 47.925, 27.973 52.900, 25.915 57.056 C 17.561 73.924, 10.879 94.805, 13.750 95.069 C 14.162 95.107, 15.765 95.304, 17.312 95.507 C 19.140 95.747, 20.801 95.199, 22.062 93.938 C 23.128 92.872, 24.666 92, 25.481 92 C 26.295 92, 27.236 90.908, 27.571 89.572 C 27.906 88.237, 28.815 86.901, 29.590 86.604 C 30.366 86.306, 31 85.622, 31 85.083 C 31 84.544, 32.125 82.889, 33.500 81.405 C 34.875 79.922, 36.010 78.211, 36.022 77.604 C 36.083 74.584, 39.703 71.881, 44.047 71.613 C 47.801 71.382, 48.552 70.986, 48.831 69.086 C 49.112 67.167, 48.741 66.861, 46.331 67.022 C 41.776 67.327, 41 67.092, 41 65.405 C 41 63.260, 47.974 42.828, 49.247 41.243 C 49.803 40.551, 51.244 37.260, 52.450 33.928 C 53.657 30.597, 55.061 27.854, 55.572 27.834 C 56.594 27.793, 59.806 35.505, 61.056 41 C 61.494 42.925, 62.778 47.875, 63.909 52 C 65.040 56.125, 65.973 61.977, 65.983 65.004 C 65.999 70.269, 68.813 79.893, 72.288 86.571 C 74.921 91.633, 78.353 94.865, 82.730 96.407 C 86.589 97.766, 87.109 97.748, 88.663 96.199 C 90.348 94.517, 90.826 94.340, 94.269 94.115 C 96.210 93.989, 95.956 91.297, 93.456 85.500 C 92.745 83.850, 90.075 77.476, 87.523 71.335 C 84.972 65.194, 82.207 59.910, 81.379 59.592 C 80.551 59.274, 80.115 58.623, 80.410 58.146 C 81.140 56.964, 77.184 45.746, 75.598 44.500 C 74.898 43.950, 74.508 42.957, 74.731 42.293 C 75.452 40.154, 70.639 30.925, 69.109 31.512 C 67.970 31.949, 67.947 31.769, 68.981 30.523 C 69.806 29.528, 69.866 29, 69.154 29 C 68.554 29, 68.317 28.336, 68.629 27.525 C 69.107 26.278, 65.878 19.596, 64.025 18 C 63.017 17.132, 60.087 9.601, 59.788 7.109 C 59.481 4.556, 56.862 3.183, 53.391 3.755 M 209.250 5.606 C 208.563 5.914, 208 6.804, 208 7.583 C 208 8.363, 207.611 9, 207.135 9 C 205.525 9, 202.989 32.448, 202.673 50.248 C 202.578 55.610, 202.263 59.997, 201.974 59.998 C 201.684 59.999, 201.406 64.500, 201.356 70 C 201.306 75.500, 201.626 80, 202.069 80 C 202.512 80, 202.620 81.568, 202.309 83.483 C 201.648 87.559, 203.487 92.655, 206.131 94.070 C 207.152 94.616, 209.453 95.033, 211.244 94.996 C 213.035 94.959, 218.550 95.117, 223.500 95.347 C 234.157 95.843, 241 94.632, 241 92.250 C 241 90.881, 241.236 90.930, 242.468 92.559 C 243.886 94.434, 243.938 94.414, 243.984 92 C 244.019 90.136, 244.258 89.859, 244.925 90.912 C 245.684 92.112, 246.058 92.085, 247.409 90.734 C 249.211 88.932, 249.540 86, 247.941 86 C 247.359 86, 247.203 86.520, 247.595 87.155 C 248.084 87.945, 247.866 88.033, 246.905 87.433 C 244.378 85.858, 242.149 86.001, 241.686 87.767 C 241.350 89.050, 241.202 88.916, 241.116 87.250 C 241.004 85.083, 240.651 85, 231.508 85 L 222.015 85 222.128 80.250 C 222.304 72.861, 221.747 66, 220.972 66 C 220.585 66, 220.624 64.088, 221.059 61.750 C 221.494 59.413, 221.462 57.101, 220.989 56.614 C 218.899 54.463, 224.858 52.374, 235.647 51.477 C 237.508 51.322, 240.060 50.004, 241.897 48.249 C 245.130 45.159, 246.192 41.329, 243.532 42.349 C 242.725 42.659, 241.779 42.452, 241.431 41.888 C 240.731 40.756, 234.098 40.934, 232.466 42.129 C 231.898 42.545, 230.836 42.516, 230.106 42.065 C 228.551 41.104, 225 41.835, 225 43.117 C 225 43.602, 224.521 44, 223.935 44 C 223.235 44, 222.936 40.311, 223.064 33.250 C 223.171 27.337, 222.912 20.746, 222.490 18.603 L 221.722 14.705 226.861 15.387 C 230.478 15.867, 232 15.726, 232 14.912 C 232 14.053, 232.348 14.044, 233.352 14.877 C 234.096 15.495, 237.489 16.291, 240.891 16.646 C 246.473 17.230, 247.284 17.073, 249.177 15.041 C 250.402 13.726, 250.866 12.520, 250.292 12.144 C 249.751 11.790, 249.006 10.266, 248.637 8.758 L 247.966 6.016 236.193 6.319 C 229.718 6.486, 223.914 6.935, 223.296 7.317 C 222.677 7.700, 222.020 7.575, 221.835 7.041 C 221.453 5.932, 211.144 4.757, 209.250 5.606 M 250 8.622 C 250 9.951, 250.271 10.020, 251.500 9 C 252.325 8.315, 253 7.585, 253 7.378 C 253 7.170, 252.325 7, 251.500 7 C 250.675 7, 250 7.730, 250 8.622 M 65 36 C 65 36.550, 65.477 37, 66.059 37 C 66.641 37, 66.840 36.550, 66.500 36 C 66.160 35.450, 65.684 35, 65.441 35 C 65.198 35, 65 35.450, 65 36 M 53.250 66.813 C 50.558 67.073, 50 67.545, 50 69.563 C 50 72.318, 51.946 72.954, 52.100 70.250 C 52.166 69.083, 52.466 69.333, 53 71 C 53.789 73.465, 53.803 73.458, 53.964 70.500 L 54.127 67.500 55.168 70 C 56.161 72.382, 56.249 72.405, 57.035 70.500 C 57.851 68.521, 57.860 68.522, 57.930 70.550 C 57.987 72.213, 58.661 72.600, 61.500 72.600 C 64.001 72.600, 64.996 72.158, 64.985 71.050 C 64.945 67.041, 61.982 65.971, 53.250 66.813 M 216.667 69.667 C 216.300 70.033, 216 70.798, 216 71.367 C 216 71.993, 216.466 71.934, 217.183 71.217 C 217.834 70.566, 218.134 69.801, 217.850 69.517 C 217.566 69.233, 217.033 69.300, 216.667 69.667 M 234.045 100.179 C 232.544 100.734, 230.091 104.747, 226.062 113.240 C 222.863 119.983, 217.867 129.550, 214.959 134.500 C 212.052 139.450, 207.871 146.762, 205.670 150.750 C 201.498 158.306, 200 159.607, 200 155.672 C 200 154.392, 197.601 149.330, 194.669 144.422 C 191.737 139.515, 188.157 133.429, 186.713 130.897 C 183.889 125.946, 171.811 110.244, 169.365 108.345 C 168.547 107.710, 167.537 105.910, 167.121 104.345 C 166.408 101.666, 166.013 101.483, 160.375 101.207 C 150.567 100.728, 150.669 100.456, 149.641 129.854 C 148.746 155.463, 148.768 155.783, 153.130 181.971 C 155.075 193.641, 156.122 196.278, 158.049 194.351 C 158.632 193.768, 161.234 193.508, 163.919 193.766 C 167.120 194.074, 168.998 193.812, 169.507 192.988 C 169.929 192.305, 170.209 188.541, 170.128 184.623 C 169.879 172.493, 169.026 152.870, 168.394 144.750 C 167.757 136.557, 168.465 135.263, 171.124 139.756 C 175.741 147.557, 185.631 162.741, 187.193 164.426 C 188.174 165.486, 189.238 167.173, 189.556 168.176 C 189.874 169.179, 190.554 170, 191.067 170 C 191.580 170, 192 170.582, 192 171.294 C 192 172.576, 199.309 181, 200.422 181 C 200.740 181, 201.032 179.988, 201.070 178.750 C 201.121 177.126, 201.330 176.918, 201.820 178 C 202.640 179.810, 210.476 180.656, 211.474 179.043 C 211.850 178.433, 211.284 176.452, 210.215 174.640 C 208.281 171.362, 208.282 171.333, 210.351 168.423 C 211.494 166.816, 212.710 165.275, 213.051 165 C 214.482 163.849, 222.341 151.019, 225.302 145 L 228.500 138.500 229.141 158.500 C 229.860 180.963, 231.210 192.883, 233.174 194.129 C 235.344 195.504, 238.188 195.118, 239.642 193.250 C 240.907 191.626, 240.955 191.644, 240.315 193.500 C 239.703 195.274, 239.816 195.345, 241.313 194.128 C 242.309 193.317, 243 193.190, 243 193.818 C 243 194.965, 246.418 194.827, 249.250 193.566 C 250.748 192.898, 250.992 191.395, 250.946 183.143 C 250.916 177.839, 250.426 169.900, 249.857 165.500 C 249.288 161.100, 248.676 148.939, 248.497 138.476 C 248.201 121.102, 247.939 118.716, 245.482 110.976 C 244.003 106.314, 242.650 101.994, 242.475 101.375 C 242.061 99.904, 236.806 99.158, 234.045 100.179 M 96 100.668 C 96 101.163, 94.709 102.331, 93.132 103.263 C 80.147 110.933, 71.976 125.407, 71.648 141.315 C 71.322 157.137, 74.029 173.332, 78.558 182.667 C 81.188 188.085, 89.232 196.805, 89.861 194.918 C 90.062 194.315, 90.738 194.838, 91.363 196.082 C 93.041 199.419, 94.795 199.521, 95.278 196.309 L 95.700 193.500 95.850 196.250 C 96 199.001, 97.336 199.883, 98.500 198 C 99.434 196.489, 101 196.802, 101 198.500 C 101 200.293, 102.537 200.386, 107.101 198.872 C 110.724 197.670, 113.277 195.256, 112.409 193.853 C 112.119 193.384, 112.332 193, 112.882 193 C 113.432 193, 114.160 193.450, 114.500 194 C 114.840 194.550, 114.641 195, 114.059 195 C 113.477 195, 113 195.450, 113 196 C 113 197.744, 116.833 197.077, 117.311 195.250 C 117.746 193.583, 117.774 193.583, 117.884 195.250 C 118.026 197.396, 117.790 197.404, 122.562 195.092 C 128.367 192.280, 133.675 186.440, 136.191 180.098 C 139.061 172.865, 139.003 162.649, 136.004 147 C 132.818 130.382, 131.659 126.416, 127.422 117.645 C 124.324 111.230, 122.975 109.489, 120.064 108.145 C 118.104 107.240, 115.825 105.854, 115 105.065 C 113.682 103.804, 113.425 104.047, 112.882 107.065 C 112.502 109.176, 112.213 109.645, 112.132 108.281 C 112.041 106.746, 111.538 106.240, 110.500 106.638 C 109.675 106.955, 109 106.689, 109 106.048 C 109 105.407, 109.419 105.141, 109.931 105.457 C 110.443 105.774, 111.125 105.606, 111.447 105.085 C 112.227 103.824, 110.987 103.150, 105.817 102.025 C 103.443 101.508, 100.263 100.789, 98.750 100.426 C 97.237 100.063, 96 100.172, 96 100.668 M 34.330 101.960 C 32.586 102.375, 29.211 103.721, 26.830 104.950 C 17.225 109.908, 14.500 114.726, 15.560 124.876 C 15.940 128.519, 16.854 132.625, 17.590 134 C 18.327 135.375, 23.740 141.450, 29.619 147.500 C 42.203 160.448, 44.951 165.490, 45.697 177 C 46.122 183.537, 45.880 185.064, 43.817 188.895 C 40.011 195.961, 38.509 196.476, 31.463 193.128 C 28.183 191.570, 23.517 188.631, 21.094 186.596 C 12.881 179.701, 6.761 183.507, 12.388 192.010 C 13.789 194.127, 17.034 197.303, 19.599 199.068 C 24.253 202.270, 24.280 202.275, 34.134 201.732 C 42.997 201.244, 44.746 200.809, 51.253 197.474 C 55.239 195.431, 59.521 192.576, 60.769 191.130 C 64.032 187.348, 67.003 181.449, 66.983 178.790 C 66.952 174.709, 64.029 162.510, 63 162.167 C 62.450 161.983, 62 161.443, 62 160.967 C 62 158.668, 55.463 150.874, 49.822 146.446 C 40.266 138.945, 36.147 134.303, 35.371 130.158 C 34.994 128.146, 34.087 125.064, 33.354 123.308 C 32.186 120.510, 32.255 119.571, 33.910 115.710 C 34.949 113.286, 37.026 110.338, 38.526 109.159 L 41.252 107.014 45.027 109.135 C 48.042 110.830, 49.711 111.120, 53.319 110.579 C 60.798 109.458, 60.999 107.722, 54.068 104.115 C 47.860 100.885, 41.679 100.209, 34.330 101.960 M 99.655 108.829 C 98.745 109.835, 98 111.037, 98 111.500 C 98 111.963, 97.286 113.132, 96.412 114.097 C 93.190 117.657, 91.689 137.282, 93.666 150 C 94.307 154.125, 95.147 160.383, 95.532 163.907 C 96.784 175.357, 103.935 193, 107.323 193 C 108.636 193, 112.631 188.557, 112.828 186.878 C 112.917 186.120, 113.407 182.125, 113.916 178 C 116.757 155.002, 117.292 144.258, 116.085 134.395 C 114.407 120.679, 111.463 111.466, 107.961 108.973 C 104.505 106.511, 101.795 106.464, 99.655 108.829 M 115.459 111.067 C 114.383 112.808, 115.608 113.177, 116.980 111.524 C 117.769 110.574, 117.845 110, 117.181 110 C 116.597 110, 115.821 110.480, 115.459 111.067 M 124 126 C 124 126.550, 124.477 127, 125.059 127 C 125.641 127, 125.840 126.550, 125.500 126 C 125.160 125.450, 124.684 125, 124.441 125 C 124.198 125, 124 125.450, 124 126 M 125 130.969 C 125 132.322, 125.477 132.754, 126.526 132.352 C 127.702 131.900, 127.788 131.450, 126.903 130.383 C 125.362 128.526, 125 128.637, 125 130.969 M 181.114 141.929 C 180.255 142.461, 180.152 142.976, 180.824 143.391 C 181.395 143.744, 182.163 143.545, 182.531 142.950 C 183.449 141.464, 182.719 140.938, 181.114 141.929 M 237.500 149 C 237.840 149.550, 238.316 150, 238.559 150 C 238.802 150, 239 149.550, 239 149 C 239 148.450, 238.523 148, 237.941 148 C 237.359 148, 237.160 148.450, 237.500 149 M 125 155 C 125 155.550, 125.450 156, 126 156 C 126.550 156, 127 155.550, 127 155 C 127 154.450, 126.550 154, 126 154 C 125.450 154, 125 154.450, 125 155 M 195 157.941 C 195 159.617, 196.774 160.033, 197.364 158.494 C 197.712 157.587, 197.361 157, 196.469 157 C 195.661 157, 195 157.423, 195 157.941 M 191.079 161.059 C 191.036 162.466, 191.661 164.491, 192.468 165.559 C 193.276 166.626, 193.951 166.970, 193.968 166.323 C 193.986 165.676, 194.787 164.941, 195.750 164.689 C 196.750 164.428, 196.236 164.182, 194.550 164.116 C 192.256 164.026, 191.867 163.733, 192.800 162.800 C 194.205 161.395, 194.420 159.623, 193.085 160.447 C 192.582 160.758, 191.943 160.447, 191.664 159.756 C 191.386 159.065, 191.122 159.651, 191.079 161.059 M 201 173.969 C 201 174.501, 201.675 174.678, 202.500 174.362 C 203.325 174.045, 204 173.609, 204 173.393 C 204 173.177, 203.325 173, 202.500 173 C 201.675 173, 201 173.436, 201 173.969 M 207.046 176.086 C 207.660 177.233, 208.406 177.927, 208.705 177.629 C 209.529 176.805, 208.209 174, 206.996 174 C 206.257 174, 206.272 174.639, 207.046 176.086 M 38 207.936 C 36.625 208.411, 33.025 208.852, 30 208.915 C 26.975 208.978, 23.375 209.599, 22 210.294 C 19.838 211.388, 19.500 212.231, 19.500 216.529 C 19.500 219.263, 19.095 221.794, 18.599 222.152 C 17.336 223.067, 16.572 232.563, 16.720 245.500 C 16.790 251.550, 16.882 260.550, 16.925 265.500 C 17.032 277.946, 17.857 283, 19.780 283 C 20.634 283, 20.996 283.337, 20.583 283.750 C 20.171 284.163, 19.308 284.502, 18.667 284.505 C 17.257 284.511, 17.613 292.976, 19.217 297.599 C 20.243 300.555, 20.669 300.757, 28.396 301.957 C 38.762 303.565, 69.690 304.310, 70.518 302.971 C 70.853 302.429, 70.360 301.692, 69.423 301.332 C 67.844 300.726, 67.853 300.581, 69.551 299.339 C 70.558 298.603, 70.903 298, 70.316 298 C 69.730 298, 69.250 296.841, 69.250 295.425 C 69.250 294.009, 68.856 292.491, 68.375 292.052 C 66.867 290.675, 50.788 289.114, 44.250 289.709 C 39.623 290.130, 38 289.954, 38 289.032 C 38 288.335, 37.339 288.040, 36.500 288.362 C 35.675 288.678, 35 288.554, 35 288.085 C 35 287.617, 35.829 287.016, 36.843 286.751 C 38.321 286.365, 38.814 284.907, 39.336 279.385 C 39.693 275.598, 39.989 269.724, 39.993 266.332 C 40.003 257.964, 40.496 257.011, 44.857 256.942 C 46.861 256.911, 50.297 256.566, 52.493 256.177 C 55.884 255.575, 56.582 255.018, 57.125 252.484 L 57.763 249.500 57.882 252.250 C 57.960 254.060, 58.549 255, 59.607 255 C 60.625 255, 61.003 254.450, 60.638 253.500 C 60.302 252.622, 60.624 252, 61.415 252 C 62.158 252, 62.999 251.112, 63.283 250.026 C 63.703 248.421, 63.162 247.933, 60.382 247.412 C 58.502 247.059, 54.061 247.082, 50.511 247.462 C 40.759 248.506, 40.446 248.274, 40.791 240.264 C 41.047 234.329, 39.755 226.919, 37.591 221.900 C 36.995 220.518, 38.186 220.223, 46.331 219.737 C 57.212 219.088, 62.477 217.079, 61.485 213.954 C 61.035 212.535, 61.255 212.161, 62.303 212.563 C 63.190 212.903, 63.942 212.329, 64.275 211.057 C 64.571 209.925, 64.517 208.966, 64.156 208.923 C 63.795 208.881, 62.600 208.674, 61.500 208.464 C 56.579 207.520, 40.261 207.154, 38 207.936 M 58 213.059 C 58 213.641, 58.450 213.840, 59 213.500 C 59.550 213.160, 60 212.684, 60 212.441 C 60 212.198, 59.550 212, 59 212 C 58.450 212, 58 212.477, 58 213.059 M 31 223.559 C 31 224.416, 31.450 224.840, 32 224.500 C 32.550 224.160, 33 223.459, 33 222.941 C 33 222.423, 32.550 222, 32 222 C 31.450 222, 31 222.702, 31 223.559 M 31 244 C 31 244.550, 31.477 245, 32.059 245 C 32.641 245, 32.840 244.550, 32.500 244 C 32.160 243.450, 31.684 243, 31.441 243 C 31.198 243, 31 243.450, 31 244 M 31 266 C 30.099 266.582, 29.975 266.975, 30.691 266.985 C 31.346 266.993, 32.160 266.550, 32.500 266 C 33.267 264.758, 32.921 264.758, 31 266 M 35 273.559 C 35 274.416, 35.457 274.835, 36.016 274.490 C 36.575 274.144, 36.774 273.443, 36.457 272.931 C 35.600 271.544, 35 271.802, 35 273.559 M 31.500 275 C 31.840 275.550, 32.541 276, 33.059 276 C 33.577 276, 34 275.550, 34 275 C 34 274.450, 33.298 274, 32.441 274 C 31.584 274, 31.160 274.450, 31.500 275 M 29.510 278.016 C 29.856 278.575, 30.557 278.774, 31.069 278.457 C 32.456 277.600, 32.198 277, 30.441 277 C 29.584 277, 29.165 277.457, 29.510 278.016 M 30.500 287 C 29.712 288.276, 30.759 290.005, 32.309 289.985 C 33.025 289.975, 32.901 289.582, 32 289 C 31 288.354, 30.917 288.026, 31.750 288.015 C 32.438 288.007, 33 287.550, 33 287 C 33 286.450, 32.577 286, 32.059 286 C 31.541 286, 30.840 286.450, 30.500 287" stroke="none" fill="black" fill-rule="evenodd"/>
	<path fill-opacity="0.673" d="M 0 159.529 L 0 319.006 160.250 318.753 L 320.500 318.500 320.753 159.245 L 321.006 -0.010 160.503 0.022 L 0 0.053 0 159.529 M 0.488 160 C 0.488 247.725, 0.606 283.612, 0.750 239.750 C 0.894 195.887, 0.894 124.112, 0.750 80.250 C 0.606 36.387, 0.488 72.275, 0.488 160 M 93.970 2.823 L 91.719 4.646 94.849 14.573 C 96.571 20.033, 98.272 26.075, 98.630 28 C 99.663 33.555, 102.778 44.889, 105.363 52.500 C 106.671 56.350, 108.060 60.962, 108.450 62.750 C 109.121 65.828, 109.007 66, 106.279 66 C 100.590 66, 99.838 68.786, 103.174 77.504 L 105.349 83.185 106.949 78.852 C 108.761 73.948, 111.472 72.648, 112.494 76.193 C 114.284 82.403, 117.635 89.764, 119.730 92.087 C 121.168 93.683, 121.818 95.312, 121.424 96.337 C 120.686 98.260, 121.279 98.354, 125.858 97.041 C 129.042 96.127, 129.545 96.376, 136.312 102.199 L 143.420 108.317 144.300 104.909 C 144.784 103.034, 145.689 100.884, 146.311 100.132 C 147.194 99.062, 146.801 98.253, 144.510 96.426 C 142.897 95.140, 141.416 94.250, 141.218 94.448 C 141.021 94.646, 139.685 94.199, 138.251 93.455 C 136.817 92.711, 135.309 92.309, 134.899 92.562 C 133.722 93.290, 135.954 86.142, 138.095 82.331 C 139.164 80.428, 139.766 78.430, 139.433 77.892 C 139.100 77.353, 139.560 75.794, 140.455 74.428 C 141.351 73.061, 141.842 71.553, 141.547 71.077 C 141.253 70.600, 141.665 69.959, 142.464 69.652 C 143.263 69.346, 144.664 66.523, 145.578 63.380 L 147.240 57.664 148.506 60.677 C 149.203 62.334, 150.104 65.196, 150.508 67.038 C 150.913 68.880, 151.864 71.007, 152.622 71.765 C 153.380 72.523, 154 73.770, 154 74.537 C 154 75.304, 156.009 79.886, 158.465 84.719 C 161.925 91.529, 163.714 93.930, 166.409 95.381 C 169.557 97.076, 170.036 97.107, 171.444 95.699 C 172.300 94.843, 173 93.661, 173 93.071 C 173 92.482, 173.665 92, 174.477 92 C 177.376 92, 178.787 87.660, 179.354 77 C 179.661 71.225, 180.361 65.150, 180.909 63.500 C 181.458 61.850, 182.119 59.150, 182.379 57.500 C 182.639 55.850, 183.367 52.025, 183.997 49 C 184.627 45.975, 185.538 41.250, 186.022 38.500 C 186.506 35.750, 187.810 28.550, 188.920 22.500 C 191.943 6.028, 190.653 2.970, 180.703 3.022 C 174.032 3.058, 172.380 5.087, 171.112 14.806 C 170.515 19.374, 169.139 26.799, 168.054 31.306 C 166.968 35.813, 165.448 43.156, 164.676 47.625 C 162.801 58.481, 162.177 59.238, 159.743 53.615 C 158.644 51.077, 157.230 49, 156.600 49 C 155.147 49, 152.200 43.497, 151.379 39.250 C 151.033 37.462, 150.356 36, 149.875 36 C 149.394 36, 149 34.636, 149 32.969 C 149 31.202, 148.377 29.698, 147.506 29.364 C 146.684 29.048, 146.228 28.440, 146.493 28.012 C 146.757 27.584, 147.233 25.603, 147.550 23.609 C 147.989 20.844, 147.747 19.840, 146.526 19.371 C 143.852 18.345, 141 21.853, 141 26.169 C 141 28.291, 140.598 30.809, 140.107 31.764 C 139.615 32.719, 138.669 35.975, 138.003 39 C 137.337 42.025, 136.181 46.525, 135.433 49 C 134.686 51.475, 133.340 56.088, 132.444 59.251 C 130.907 64.672, 129 66.180, 129 61.975 C 129 60.926, 128.367 58.590, 127.594 56.784 C 126.820 54.978, 124.504 47.200, 122.445 39.500 C 118.980 26.533, 114.875 15.052, 111.542 9 C 109.804 5.846, 102.338 1.182, 98.861 1.079 C 97.409 1.035, 95.208 1.820, 93.970 2.823 M 52.354 3.993 C 49.631 5.092, 39.360 24.579, 31.509 43.546 C 29.545 48.291, 26.440 55.171, 24.610 58.836 C 22.779 62.501, 20.256 68.650, 19.003 72.500 C 17.750 76.350, 15.947 81.075, 14.998 83 C 14.048 84.925, 13.034 88.690, 12.745 91.367 L 12.219 96.233 17.216 95.753 C 19.965 95.489, 22.503 94.874, 22.857 94.387 C 23.210 93.899, 24.400 93.004, 25.500 92.398 C 26.600 91.792, 27.644 90.329, 27.820 89.148 C 27.995 87.967, 28.783 87, 29.570 87 C 30.356 87, 31 86.531, 31 85.958 C 31 85.385, 31.941 83.923, 33.090 82.708 C 34.240 81.494, 35.902 78.856, 36.784 76.847 C 38.133 73.773, 39.032 73.076, 42.444 72.451 C 44.675 72.042, 47.063 71.793, 47.750 71.898 C 49.555 72.172, 49.313 67.057, 47.487 66.357 C 46.655 66.037, 45.403 66.251, 44.704 66.831 C 43.948 67.458, 42.864 67.534, 42.030 67.018 C 40.865 66.299, 41.197 64.408, 43.976 55.923 C 45.818 50.298, 48.377 43.627, 49.661 41.098 C 50.946 38.569, 52.481 34.925, 53.074 33 C 53.667 31.075, 54.358 28.860, 54.611 28.077 C 55.717 24.648, 57.914 30.551, 63.514 52 C 66.075 61.806, 66.910 71.167, 64.920 67.750 C 64.104 66.349, 62.515 66, 56.950 66 L 50 66 50 69.500 C 50 72.931, 51.341 74.221, 52.338 71.750 C 52.741 70.750, 52.858 70.750, 52.921 71.750 C 52.964 72.438, 53.388 73, 53.861 73 C 54.335 73, 54.558 71.763, 54.357 70.250 C 54.019 67.714, 54.446 68.290, 55.633 71.972 C 56.051 73.268, 56.219 73.268, 57.038 71.972 C 57.550 71.162, 57.976 70.990, 57.985 71.588 C 57.993 72.186, 59.545 72.734, 61.433 72.805 C 63.939 72.899, 64.955 72.473, 65.194 71.229 C 65.378 70.277, 66.151 71.507, 66.945 74.012 C 69.435 81.867, 73.847 90.479, 76.859 93.365 C 80.379 96.737, 86.999 98.594, 88.500 96.630 C 90 94.668, 95.048 93.961, 95.686 95.624 C 95.976 96.381, 96.706 97, 97.307 97 C 98.038 97, 98.003 96.603, 97.200 95.800 C 96.540 95.140, 96 93.783, 96 92.786 C 96 91.788, 94.377 87.040, 92.393 82.236 C 90.408 77.431, 87.902 71.276, 86.823 68.557 C 85.744 65.839, 84.070 62.464, 83.103 61.057 C 82.136 59.651, 80.336 55.238, 79.102 51.250 C 77.869 47.263, 76.329 43.999, 75.680 43.998 C 75.031 43.996, 74.451 42.633, 74.392 40.968 C 74.277 37.755, 70.241 29, 68.874 29 C 68.428 29, 68.321 28.328, 68.636 27.507 C 69.167 26.122, 65.689 18.131, 64.062 17 C 62.734 16.076, 60 9.714, 60 7.546 C 60 3.521, 56.990 2.122, 52.354 3.993 M 211 4.731 C 205.804 6.717, 204.273 12.296, 203.421 32.361 C 203.260 36.134, 202.843 39.959, 202.492 40.861 C 201.970 42.207, 200.596 73.115, 200.908 76.500 C 202.582 94.638, 202.473 94.498, 215.589 95.481 C 223.498 96.074, 225 96.454, 224.772 97.802 C 224.583 98.921, 225.348 99.486, 227.273 99.649 C 228.944 99.790, 229.797 99.480, 229.418 98.868 C 229.073 98.309, 229.715 98.430, 230.845 99.135 C 232.332 100.064, 232.613 100.761, 231.865 101.663 C 230.344 103.496, 227.127 109.861, 225.124 115 C 224.159 117.475, 219.518 126.025, 214.810 134 C 210.102 141.975, 205.250 150.481, 204.028 152.902 L 201.805 157.303 199.083 151.902 C 192.722 139.277, 182.402 122.837, 177.612 117.698 C 176.175 116.158, 175 114.665, 175 114.382 C 175 114.098, 173.407 112.209, 171.461 110.183 C 169.514 108.157, 167.662 105.284, 167.345 103.798 C 166.821 101.341, 166.305 101.070, 161.635 100.798 C 153.745 100.340, 151.327 101.920, 150.247 108.238 C 149.753 111.132, 149.396 124.750, 149.454 138.500 C 149.536 157.731, 149.973 165.808, 151.347 173.500 C 152.330 179, 153.484 185.905, 153.912 188.846 C 154.679 194.109, 156.395 196.511, 158.452 195.201 C 159.029 194.833, 161.710 194.415, 164.412 194.272 C 167.113 194.128, 169.534 193.799, 169.792 193.541 C 170.889 192.444, 170.230 163.018, 168.642 142.250 C 168.422 139.363, 168.637 137, 169.120 137 C 169.604 137, 170.005 137.338, 170.010 137.750 C 170.025 138.807, 184.382 161.704, 186.707 164.378 C 187.763 165.593, 188.922 167.355, 189.282 168.293 C 189.643 169.232, 190.401 170, 190.969 170 C 191.536 170, 192 170.606, 192 171.348 C 192 172.089, 193.913 174.808, 196.250 177.390 L 200.501 182.086 206 180.936 C 209.025 180.304, 211.893 179.419, 212.373 178.970 C 212.859 178.516, 212.302 176.829, 211.115 175.162 C 209.439 172.808, 209.186 171.640, 209.931 169.682 C 210.451 168.314, 211.368 166.891, 211.968 166.520 C 214.547 164.926, 227 144.124, 227 141.410 C 227 140.699, 227.427 139.854, 227.949 139.532 C 228.533 139.171, 228.929 145.784, 228.979 156.723 C 229.024 166.500, 229.206 175.625, 229.384 177 C 229.562 178.375, 230.046 182.339, 230.459 185.809 C 231.191 191.954, 234.018 196.725, 236.149 195.408 C 236.614 195.121, 239.357 194.867, 242.246 194.845 C 251.024 194.777, 251.005 194.808, 250.965 180.215 C 250.945 173.222, 250.346 163.375, 249.633 158.333 C 248.871 152.940, 248.501 143.677, 248.736 135.833 C 249.127 122.732, 248.756 119.950, 245.380 110.730 C 244.621 108.656, 243.986 105.731, 243.968 104.230 C 243.921 100.198, 241.767 98.037, 236.866 97.105 L 232.500 96.274 236.750 95.509 C 239.624 94.992, 241 94.235, 241 93.172 C 241 91.949, 241.267 91.867, 242.200 92.800 C 243.874 94.474, 244.625 94.318, 246.961 91.811 C 249.069 89.549, 249.763 85, 248 85 C 247.450 85, 246.993 85.563, 246.985 86.250 C 246.975 87.024, 246.690 87.119, 246.235 86.500 C 244.947 84.747, 242.173 84.884, 241.694 86.724 C 241.261 88.387, 241.225 88.389, 241.116 86.750 C 241.015 85.224, 239.868 85, 232.150 85 L 223.301 85 222.583 74.750 C 221.232 55.466, 221.549 52.229, 224.674 53.428 C 225.483 53.739, 227.053 53.507, 228.162 52.913 C 229.272 52.319, 232.137 51.833, 234.529 51.833 C 237.972 51.833, 239.515 51.224, 241.939 48.908 C 243.622 47.299, 245 45.285, 245 44.432 C 245 43.580, 245.450 43.160, 246 43.500 C 246.550 43.840, 247 43.528, 247 42.807 C 247 41.621, 245.122 41.189, 238.500 40.853 C 233.413 40.595, 225.754 41.779, 225.041 42.934 C 223.498 45.430, 223.023 42.156, 223.217 30.363 C 223.324 23.839, 223.206 17.859, 222.956 17.076 C 222.598 15.958, 223.521 15.706, 227.250 15.902 C 229.964 16.044, 232 15.716, 232 15.135 C 232 14.548, 233.162 14.725, 234.750 15.553 C 238.985 17.762, 247.175 17.444, 249.278 14.989 C 250.225 13.882, 251 12.397, 251 11.689 C 251 10.980, 251.501 9.899, 252.113 9.287 C 254.631 6.769, 251.531 6.203, 235.254 6.210 C 225.333 6.214, 217.352 5.765, 215.685 5.109 C 214.137 4.499, 212.787 4.036, 212.685 4.079 C 212.583 4.122, 211.825 4.416, 211 4.731 M 216 71.059 C 216 71.641, 216.450 71.840, 217 71.500 C 217.550 71.160, 218 70.684, 218 70.441 C 218 70.198, 217.550 70, 217 70 C 216.450 70, 216 70.477, 216 71.059 M 193.500 89.323 C 197.802 93.228, 198.539 93.554, 199.510 91.984 C 199.856 91.425, 200.515 91.200, 200.976 91.485 C 201.437 91.770, 201.591 91.150, 201.318 90.109 C 201.036 89.029, 199.621 87.974, 198.028 87.656 C 196.491 87.348, 193.943 86.781, 192.367 86.395 C 189.566 85.709, 189.592 85.776, 193.500 89.323 M 233.083 98.358 C 233.313 98.556, 235.300 98.993, 237.500 99.330 C 240.224 99.748, 241.021 99.638, 240 98.987 C 238.634 98.116, 232.113 97.523, 233.083 98.358 M 243 98.708 C 243 99.021, 244.805 101.352, 247.010 103.888 C 249.216 106.425, 251.675 109.271, 252.474 110.214 C 253.383 111.286, 253.551 112.159, 252.923 112.548 C 252.371 112.889, 252.148 113.918, 252.428 114.834 C 252.709 115.750, 253.044 118.188, 253.173 120.250 C 253.303 122.313, 253.613 124, 253.862 124 C 254.111 124, 256.704 122.157, 259.623 119.905 C 262.542 117.653, 265.375 115.965, 265.917 116.155 C 266.460 116.345, 272.366 121.200, 279.043 126.944 C 288.889 135.416, 290.834 137.515, 289.341 138.056 C 288.328 138.424, 281.200 139.483, 273.500 140.409 C 252.065 142.989, 252.462 142.855, 252.696 147.445 C 252.804 149.561, 253.297 151.697, 253.791 152.191 C 254.324 152.724, 260.568 152.259, 269.095 151.054 C 293.572 147.593, 292.303 147.700, 291.400 149.173 C 290.952 149.903, 285.344 157.700, 278.936 166.500 C 272.528 175.300, 256.803 197.125, 243.993 215 C 231.182 232.875, 218.180 250.901, 215.100 255.057 C 212.020 259.213, 206.800 266.509, 203.500 271.270 C 197.775 279.529, 195.221 282.046, 196.416 278.250 C 196.719 277.288, 197.855 269.075, 198.940 260 C 200.025 250.925, 202.070 234.725, 203.484 224 C 204.898 213.275, 206.277 202.396, 206.548 199.824 C 207.079 194.776, 207.191 194.889, 200.372 193.522 L 197.244 192.895 196.550 198.697 C 196.168 201.889, 195.660 206.300, 195.421 208.500 C 195.181 210.700, 194.122 219.025, 193.068 227 C 192.014 234.975, 190.847 244.184, 190.477 247.465 C 190.106 250.746, 189.685 254.121, 189.542 254.965 C 189.399 255.809, 188.681 261.350, 187.947 267.279 C 187.212 273.207, 186.291 277.482, 185.898 276.779 C 185.505 276.075, 183.324 270.325, 181.051 264 C 178.778 257.675, 175.825 249.575, 174.489 246 C 173.153 242.425, 170.029 233.790, 167.546 226.811 C 160.653 207.433, 160.125 206.342, 156.418 203.825 C 154.207 202.324, 151.876 199.197, 149.840 195 C 146.948 189.039, 146.694 187.713, 146.777 179 C 146.851 171.061, 146.425 168.279, 144.183 162.071 C 141.500 154.642, 139.512 152.297, 138.777 155.695 C 138.388 157.495, 136.431 148.986, 135.052 139.500 C 133.790 130.811, 125.979 111.341, 123.022 109.514 C 122.460 109.166, 122 108.432, 122 107.882 C 122 107.332, 122.450 107.160, 123 107.500 C 123.550 107.840, 123.984 107.304, 123.965 106.309 C 123.925 104.265, 121.090 98.840, 121.035 100.702 C 121.009 101.606, 119.822 101.547, 116.250 100.463 C 113.638 99.670, 111.430 99.017, 111.344 99.011 C 111.258 99.005, 111.417 99.879, 111.698 100.954 C 112.158 102.711, 111.821 102.849, 108.355 102.320 C 106.235 101.997, 103.059 101.149, 101.298 100.437 C 98.215 99.190, 97.863 99.317, 91.798 103.858 C 79.920 112.752, 77.997 115.199, 74.113 126.359 C 71.215 134.688, 70.663 141.835, 71.901 155.007 C 73.100 167.762, 75.024 176.294, 78.176 182.840 C 80.737 188.159, 88.414 196.480, 89.908 195.557 C 90.509 195.186, 91 195.535, 91 196.334 C 91 199.253, 98.999 200.751, 100.180 198.053 C 100.686 196.897, 100.877 197.075, 100.930 198.750 C 101.014 201.464, 100.658 201.447, 107.746 199.070 C 110.911 198.009, 114.625 197.163, 116 197.192 C 123.123 197.339, 133.329 188.786, 136.401 180.095 L 138.302 174.718 142.711 187.109 C 145.136 193.924, 148.143 202.425, 149.395 206 C 150.646 209.575, 153.280 216.775, 155.249 222 C 160.427 235.743, 176.661 280.824, 180.588 292.364 C 184.464 303.753, 185.284 305, 188.908 305 C 191.134 305, 192.711 303.401, 198.526 295.250 C 202.351 289.887, 211.975 276.500, 219.911 265.500 C 227.847 254.500, 236.367 242.601, 238.845 239.057 C 241.322 235.514, 243.931 231.914, 244.641 231.057 C 245.351 230.201, 246.960 228.028, 248.216 226.228 C 249.472 224.429, 255.450 216.131, 261.500 207.789 C 267.550 199.446, 273.175 191.602, 274 190.357 C 274.825 189.111, 282.736 178.059, 291.581 165.796 C 300.425 153.533, 307.958 142.688, 308.321 141.694 C 309.171 139.365, 307.939 138.194, 279.563 114.377 L 267.280 104.067 258.390 102.062 C 253.500 100.959, 248.037 99.625, 246.250 99.098 C 244.463 98.571, 243 98.395, 243 98.708 M 29.892 103.354 C 17.471 108.464, 14.406 112.963, 15.299 124.772 C 15.984 133.824, 17.352 136.009, 30.086 148.378 C 41.869 159.825, 45.452 166.733, 45.448 178 C 45.445 186.775, 42.443 193.600, 38.106 194.688 C 35.111 195.440, 27.171 191.550, 21.110 186.362 C 17.927 183.638, 16.314 182.940, 13.766 183.185 C 10.699 183.481, 10.507 183.726, 10.610 187.202 C 10.740 191.581, 14.590 196.661, 20.285 199.969 C 23.527 201.852, 25.321 202.129, 32.785 201.899 C 41.774 201.622, 47.432 200.577, 49.381 198.833 C 49.997 198.282, 52.733 196.632, 55.463 195.166 C 58.379 193.599, 61.678 190.713, 63.463 188.166 C 66.135 184.353, 66.492 183.032, 66.433 177.166 C 66.396 173.500, 65.896 168.880, 65.322 166.900 C 63.815 161.702, 56.689 151.654, 51.784 147.809 C 49.462 145.989, 45.074 142.017, 42.031 138.981 C 37.575 134.536, 36.136 132.248, 34.628 127.217 C 32.441 119.922, 32.892 116.319, 36.603 111.454 C 39.457 107.712, 42.873 106.938, 45.035 109.542 C 47.385 112.374, 60.057 110.649, 59.973 107.509 C 59.958 106.954, 57.146 105.257, 53.723 103.738 C 45.732 100.190, 37.890 100.064, 29.892 103.354 M 112.079 107.583 C 112.127 108.748, 112.364 108.985, 112.683 108.188 C 112.972 107.466, 112.936 106.603, 112.604 106.271 C 112.272 105.939, 112.036 106.529, 112.079 107.583 M 98.469 111.049 C 94.590 117.194, 94.085 119.160, 93.402 130.772 C 92.186 151.448, 98.868 184.769, 105.474 190.975 C 107.907 193.261, 110 193.014, 110 190.441 C 110 189.648, 110.418 189, 110.929 189 C 112.159 189, 113.747 180.527, 114.490 170 C 114.820 165.325, 115.535 157.450, 116.079 152.500 C 116.766 146.253, 116.733 141.206, 115.969 136 C 115.364 131.875, 114.722 127.074, 114.542 125.330 C 113.954 119.648, 110.864 111.955, 108.164 109.451 C 104.242 105.814, 101.487 106.268, 98.469 111.049 M 125 131 C 125 131.550, 125.477 132, 126.059 132 C 126.641 132, 126.840 131.550, 126.500 131 C 126.160 130.450, 125.684 130, 125.441 130 C 125.198 130, 125 130.450, 125 131 M 192.500 165 C 192.160 165.550, 192.359 166, 192.941 166 C 193.523 166, 194 165.550, 194 165 C 194 164.450, 193.802 164, 193.559 164 C 193.316 164, 192.840 164.450, 192.500 165 M 36.500 207.939 C 34.850 208.392, 30.982 208.817, 27.905 208.882 C 21.142 209.025, 19.412 210.616, 19.107 216.974 C 18.989 219.435, 18.564 221.685, 18.163 221.974 C 17.212 222.659, 17.089 224.387, 16.600 244 C 16.373 253.075, 16.547 260.950, 16.987 261.500 C 17.426 262.050, 17.446 264.701, 17.030 267.391 C 16.614 270.081, 16.618 273.804, 17.037 275.665 C 17.457 277.526, 17.578 279.896, 17.307 280.933 C 16.979 282.189, 17.429 282.976, 18.657 283.293 C 20.407 283.744, 20.404 283.774, 18.608 283.884 C 16.894 283.989, 16.776 284.581, 17.358 290.148 C 17.711 293.529, 18.446 296.833, 18.991 297.490 C 19.537 298.147, 19.723 298.944, 19.406 299.261 C 18.780 299.886, 22.415 302.111, 23.709 301.895 C 24.144 301.823, 24.837 301.873, 25.250 302.007 C 26.723 302.485, 31.771 302.783, 51.250 303.544 C 68.933 304.235, 71 304.150, 71 302.731 C 71 301.860, 70.213 300.941, 69.250 300.689 C 67.583 300.254, 67.583 300.226, 69.250 300.116 C 71.101 299.993, 71.752 298, 69.941 298 C 69.359 298, 69.176 297.524, 69.535 296.943 C 69.894 296.362, 69.934 294.875, 69.624 293.639 C 69.124 291.645, 68.034 291.246, 59.969 290.104 C 54.766 289.368, 48.398 289.106, 45.078 289.491 C 38.256 290.283, 37.860 289.821, 39.063 282.487 C 39.513 279.744, 39.908 274.294, 39.940 270.375 C 39.973 266.456, 40.281 261.844, 40.625 260.125 L 41.250 257 48.566 257 C 52.590 257, 56.160 256.550, 56.500 256 C 56.840 255.450, 58.040 255, 59.166 255 C 60.606 255, 61.037 254.539, 60.618 253.448 C 60.291 252.594, 60.445 252.157, 60.961 252.476 C 62.161 253.218, 64.302 249.298, 63.450 247.920 C 63.080 247.321, 59.357 246.935, 54.654 247.009 C 39.447 247.247, 41 248.077, 41 239.710 C 41 235.701, 40.325 229.829, 39.500 226.661 C 38.675 223.494, 38 220.761, 38 220.587 C 38 220.414, 42.172 220.054, 47.271 219.788 C 58.521 219.199, 63.880 216.619, 63.968 211.750 C 63.986 210.787, 64.540 210, 65.200 210 C 65.953 210, 66.046 209.656, 65.450 209.077 C 64.174 207.838, 40.284 206.899, 36.500 207.939 M 31 223 C 31 223.550, 31.450 224, 32 224 C 32.550 224, 33 223.550, 33 223 C 33 222.450, 32.550 222, 32 222 C 31.450 222, 31 222.450, 31 223 M 32 275 C 32 275.550, 32.477 276, 33.059 276 C 33.641 276, 33.840 275.550, 33.500 275 C 33.160 274.450, 32.684 274, 32.441 274 C 32.198 274, 32 274.450, 32 275" stroke="none" fill="black" fill-rule="evenodd"/>
	<path fill-opacity="0.639" d="M 0 159.529 L 0 319.006 160.250 318.753 L 320.500 318.500 320.753 159.255 L 321.006 0.009 160.503 0.031 L 0 0.052 0 159.529 M 0.488 160 C 0.488 247.725, 0.606 283.612, 0.750 239.750 C 0.894 195.887, 0.894 124.112, 0.750 80.250 C 0.606 36.387, 0.488 72.275, 0.488 160 M 94.486 2.023 C 94.107 2.635, 93.281 2.938, 92.649 2.695 C 91.928 2.419, 91.500 3.475, 91.500 5.532 C 91.500 7.334, 91.752 8.653, 92.061 8.463 C 92.696 8.070, 97.519 23.174, 98.938 30 C 100.740 38.675, 102.042 43.530, 103.495 47 C 104.576 49.583, 109 64.522, 109 65.591 C 109 65.664, 107.872 65.507, 106.494 65.244 C 100.933 64.181, 99.635 68.859, 102.928 78.093 C 103.989 81.067, 106.390 87.816, 108.264 93.090 L 111.672 102.680 107.322 101.868 C 104.929 101.421, 102.043 100.558, 100.908 99.951 C 99.772 99.343, 98.091 99.177, 97.172 99.582 C 96.252 99.986, 95.129 100.235, 94.676 100.134 C 94.222 100.033, 94.106 100.362, 94.417 100.866 C 95.150 102.052, 90.254 105.275, 88.947 104.467 C 88.399 104.128, 88.074 104.242, 88.225 104.719 C 88.376 105.196, 86.558 107.367, 84.185 109.543 C 81.812 111.719, 78.927 115.169, 77.774 117.209 C 76.621 119.249, 75.305 120.689, 74.850 120.407 C 74.395 120.126, 74.285 120.580, 74.606 121.416 C 74.927 122.252, 74.359 125.088, 73.345 127.718 C 71.823 131.662, 71.527 135.041, 71.655 147 C 71.824 162.770, 73.484 172.984, 77.137 180.720 C 78.378 183.349, 79.356 186.058, 79.310 186.739 C 79.264 187.421, 79.625 187.732, 80.113 187.430 C 80.601 187.129, 81 187.324, 81 187.864 C 81 189.147, 89.175 197.158, 89.823 196.510 C 90.097 196.237, 90.908 196.851, 91.626 197.876 C 93.371 200.368, 102.045 201.192, 107.920 199.424 C 110.352 198.692, 112.662 198.291, 113.053 198.533 C 113.445 198.775, 116.389 198.070, 119.595 196.967 C 123.754 195.537, 126.785 193.572, 130.175 190.110 C 132.788 187.442, 135.191 185.524, 135.516 185.849 C 135.840 186.173, 135.867 185.778, 135.575 184.970 C 135.284 184.161, 135.899 181.700, 136.942 179.500 C 137.985 177.300, 138.875 176.191, 138.919 177.035 C 138.964 177.879, 141.272 184.810, 144.049 192.437 C 146.826 200.064, 148.856 206.934, 148.560 207.704 C 148.265 208.474, 148.405 208.868, 148.873 208.579 C 149.340 208.290, 150.871 211.304, 152.274 215.277 C 153.678 219.250, 156.629 227.450, 158.833 233.500 C 171.709 268.850, 177.252 284.746, 177.368 286.654 C 177.441 287.839, 177.766 288.644, 178.091 288.444 C 178.416 288.243, 179.942 291.700, 181.482 296.125 C 185.783 308.480, 189.182 308.957, 196.904 298.292 C 213.244 275.725, 227.151 256.385, 231.630 250 C 247.231 227.760, 260.994 209.533, 262.003 209.775 C 262.633 209.926, 262.884 209.621, 262.560 209.097 C 261.701 207.707, 267.952 198.852, 269.233 199.644 C 269.875 200.041, 270.019 199.839, 269.590 199.145 C 269.181 198.484, 270.738 195.505, 273.200 192.241 C 275.581 189.083, 283.552 178.077, 290.913 167.783 C 298.274 157.488, 304.750 149.345, 305.303 149.687 C 305.876 150.042, 306 149.808, 305.590 149.145 C 305.194 148.505, 305.799 146.799, 306.935 145.355 C 308.071 143.912, 309 141.953, 309 141.002 C 309 139.254, 302.622 132.803, 295.760 127.608 C 293.703 126.051, 292.274 124.366, 292.584 123.864 C 292.895 123.362, 292.778 123.067, 292.324 123.210 C 290.929 123.651, 285.040 118.744, 285.694 117.686 C 286.032 117.139, 285.858 116.970, 285.306 117.311 C 284.754 117.652, 283.445 117.159, 282.396 116.215 C 268.687 103.880, 269.325 104.221, 252.583 100.250 C 238.497 96.909, 233.558 95, 239 95 C 240.100 95, 241 94.592, 241 94.094 C 241 93.595, 241.924 93.429, 243.054 93.724 C 245.680 94.411, 249 90.976, 249 87.572 C 249 85.350, 248.603 85.076, 245.542 85.191 C 243.306 85.275, 241.934 85.882, 241.658 86.910 C 241.305 88.230, 241.212 88.202, 241.116 86.750 C 241.015 85.220, 239.857 85, 231.918 85 L 222.836 85 223.168 78.092 C 223.351 74.293, 223.236 71.349, 222.913 71.550 C 222.591 71.752, 222.265 68.497, 222.189 64.318 C 222.114 60.138, 221.843 56.509, 221.586 56.253 C 220.657 55.324, 223.483 53.314, 225.118 53.741 C 226.041 53.982, 227.809 53.637, 229.048 52.974 C 230.287 52.311, 232.980 51.792, 235.031 51.820 C 237.271 51.851, 239.517 51.167, 240.652 50.110 C 241.692 49.141, 243.168 48.556, 243.931 48.810 C 244.878 49.126, 245.119 48.753, 244.691 47.636 C 244.285 46.579, 244.582 46, 245.531 46 C 246.442 46, 247 45.023, 247 43.428 C 247 41.363, 246.557 40.900, 244.750 41.077 C 243.512 41.198, 241.702 40.953, 240.727 40.533 C 239.752 40.112, 237.111 40.236, 234.859 40.808 C 232.607 41.379, 230.178 41.622, 229.461 41.347 C 228.743 41.071, 227.221 41.346, 226.078 41.958 C 224.125 43.003, 223.999 42.812, 223.980 38.785 C 223.970 36.428, 223.857 30.337, 223.730 25.250 L 223.500 16 228.500 16.073 C 231.250 16.113, 235.920 16.490, 238.877 16.910 C 245.223 17.812, 249 17.273, 249 15.467 C 249 14.752, 249.475 14.008, 250.054 13.815 C 250.634 13.622, 251.241 12.797, 251.403 11.982 C 251.565 11.167, 252.046 9.693, 252.472 8.707 C 252.899 7.721, 252.991 6.657, 252.677 6.344 C 252.237 5.903, 234.850 5.749, 223 6.080 C 222.175 6.103, 219.574 5.639, 217.221 5.049 C 212.383 3.837, 208 4.555, 208 6.559 C 208 7.297, 207.392 8.260, 206.649 8.700 C 205.310 9.493, 204.945 11.958, 202.903 34 C 202.068 43.003, 200.630 72.466, 200.803 77 C 200.835 77.825, 201.129 80.672, 201.457 83.326 C 201.989 87.632, 201.862 88.092, 200.277 87.602 C 197.807 86.837, 184.091 84, 182.863 84 C 182.310 84, 182.532 84.675, 183.357 85.500 C 184.182 86.325, 185.289 87, 185.817 87 C 186.345 87, 189.333 89.475, 192.456 92.500 C 198.498 98.352, 200.863 99.241, 201.715 95.982 C 202.180 94.205, 202.798 94.036, 206.871 94.569 C 217.670 95.982, 222.400 96.758, 220.917 96.875 C 219.857 96.959, 219.333 97.979, 219.333 99.957 C 219.333 102.998, 219.473 103.082, 226.777 104.465 C 228.078 104.711, 228.798 104.483, 228.458 103.931 C 228.130 103.401, 227.373 103.269, 226.776 103.638 C 226.144 104.029, 225.977 103.846, 226.378 103.198 C 226.755 102.587, 227.798 102.369, 228.696 102.714 C 229.875 103.166, 230.101 102.972, 229.510 102.015 C 228.959 101.125, 229.077 100.929, 229.868 101.419 C 230.723 101.947, 230.446 103.213, 228.862 106.032 C 227.660 108.170, 226.305 109.689, 225.850 109.407 C 225.395 109.126, 225.284 109.576, 225.603 110.408 C 226.339 112.327, 222.891 119.865, 215.478 132.543 C 212.276 138.019, 208.239 145.093, 206.507 148.262 C 204.775 151.432, 202.980 153.682, 202.519 153.262 C 202.057 152.843, 202.003 153.063, 202.399 153.750 C 202.794 154.438, 202.840 155.451, 202.499 156.001 C 202.159 156.552, 200.362 153.986, 198.506 150.299 C 196.650 146.612, 195.397 143.167, 195.721 142.643 C 196.044 142.119, 195.809 142, 195.197 142.378 C 193.797 143.244, 190.656 137.398, 191.619 135.721 C 192.005 135.049, 191.966 134.820, 191.532 135.212 C 191.098 135.603, 188.270 132.228, 185.248 127.712 C 182.225 123.195, 178.683 118.509, 177.376 117.298 C 176.069 116.087, 175 114.723, 175 114.269 C 175 113.814, 173.454 111.850, 171.565 109.906 C 169.676 107.961, 167.841 105.214, 167.486 103.802 C 166.910 101.505, 166.244 101.183, 161.171 100.743 C 150.355 99.806, 149.745 101.090, 149.174 126 C 148.928 136.725, 148.777 148.425, 148.838 152 C 148.961 159.127, 153.568 190.153, 155.038 193.750 C 155.884 195.821, 159 196.991, 159 195.238 C 159 194.819, 161.294 194.516, 164.098 194.565 C 167.468 194.624, 169.367 194.206, 169.703 193.333 C 169.981 192.606, 170.505 192.194, 170.865 192.417 C 171.226 192.640, 171.225 187.800, 170.864 181.661 C 170.502 175.522, 169.936 163.075, 169.605 154 L 169.003 137.500 172.427 142.966 C 174.310 145.973, 175.587 148.898, 175.265 149.466 C 174.943 150.035, 175.049 150.165, 175.501 149.755 C 176.631 148.731, 181.267 155.759, 180.394 157.172 C 179.930 157.922, 180.142 158.031, 181.015 157.490 C 181.985 156.891, 182.164 157.132, 181.681 158.388 C 181.319 159.332, 181.396 159.873, 181.852 159.591 C 182.946 158.916, 187.256 164.777, 186.529 165.952 C 186.220 166.453, 186.494 167.187, 187.138 167.585 C 187.869 168.037, 188.041 167.876, 187.595 167.155 C 187.203 166.520, 187.359 166, 187.941 166 C 188.523 166, 189 166.689, 189 167.531 C 189 168.374, 189.672 169.321, 190.494 169.636 C 191.316 169.952, 191.771 170.561, 191.505 170.991 C 191.239 171.422, 191.692 172.329, 192.511 173.009 C 193.330 173.689, 194 174.624, 194 175.088 C 194 175.552, 195.274 177.234, 196.831 178.827 C 199.997 182.066, 204.997 183.299, 206.864 181.301 C 207.532 180.585, 209.186 180, 210.539 180 C 212.333 180, 213 179.458, 213 178 C 213 176.900, 212.619 176, 212.153 176 C 211.687 176, 210.856 174.992, 210.306 173.760 C 209.459 171.862, 210.144 170.261, 214.787 163.284 C 217.802 158.754, 220.627 155.269, 221.065 155.540 C 221.503 155.811, 222.187 155.506, 222.585 154.862 C 223.037 154.131, 222.876 153.959, 222.155 154.405 C 221.520 154.797, 221 154.930, 221 154.701 C 221 154.331, 227.935 140.753, 228.339 140.332 C 228.428 140.240, 228.500 146.990, 228.500 155.332 C 228.500 170.866, 229.391 182.416, 231.136 189.500 C 231.678 191.700, 232.169 193.986, 232.228 194.579 C 232.286 195.173, 233.721 195.566, 235.417 195.453 C 237.112 195.339, 239.022 195.663, 239.661 196.172 C 240.366 196.734, 241.045 196.736, 241.390 196.177 C 241.703 195.671, 243.318 195.416, 244.979 195.609 C 246.641 195.803, 248 195.520, 248 194.980 C 248 194.441, 248.675 194, 249.500 194 C 250.761 194, 250.999 191.808, 250.994 180.250 C 250.991 172.688, 250.521 163.800, 249.950 160.500 C 249.379 157.200, 248.914 147.142, 248.917 138.148 C 248.921 122.451, 248.155 116.543, 245.096 108.685 C 244.493 107.137, 244.025 105.112, 244.056 104.185 C 244.087 103.258, 244.650 104.075, 245.306 106 C 246.189 108.589, 247.343 109.772, 249.739 110.547 C 252.555 111.457, 252.792 111.783, 251.552 113.047 C 250.031 114.597, 249.595 117.211, 249.844 123.276 L 250 127.051 252.792 125.608 C 254.328 124.813, 257.781 122.349, 260.465 120.130 C 264.876 116.486, 268.075 115.451, 266.362 118.224 C 265.970 118.857, 266.155 119.023, 266.805 118.621 C 267.418 118.242, 269.625 119.446, 271.710 121.296 C 273.794 123.146, 276.950 125.924, 278.722 127.470 C 280.494 129.016, 281.709 130.663, 281.420 131.129 C 281.132 131.595, 281.482 131.769, 282.198 131.514 C 283.362 131.099, 290.690 136.752, 289.845 137.413 C 289.655 137.562, 282.075 138.678, 273 139.895 C 263.925 141.111, 255.037 142.358, 253.250 142.665 L 250 143.223 250.015 149.361 C 250.024 152.738, 250.361 155.048, 250.765 154.496 C 251.169 153.944, 252.850 153.373, 254.500 153.227 C 258.818 152.845, 273.158 150.963, 282.721 149.524 C 288.594 148.640, 290.760 148.602, 290.308 149.393 C 289.747 150.374, 283.388 159.427, 275.914 169.883 C 274.492 171.872, 266.658 182.725, 258.505 194 C 250.352 205.275, 240.957 218.325, 237.628 223 C 234.299 227.675, 231.218 231.950, 230.781 232.500 C 229.741 233.808, 212.358 258.128, 204.692 269 C 196.959 279.967, 196.622 280.289, 197.358 276 C 197.689 274.075, 198.396 268.675, 198.930 264 C 199.464 259.325, 200.578 250.325, 201.407 244 C 202.236 237.675, 203.122 230.700, 203.378 228.500 C 204.374 219.908, 206.167 206.226, 207.018 200.717 C 208.022 194.217, 207.546 192.003, 205.143 191.994 C 204.239 191.990, 202.270 191.346, 200.767 190.562 C 199.231 189.761, 197.787 189.535, 197.471 190.047 C 197.161 190.549, 196.521 194.230, 196.048 198.229 C 191.835 233.872, 186.644 273.631, 186.130 274.201 C 185.782 274.587, 182.875 267.612, 179.670 258.701 C 159.149 201.649, 160.031 203.868, 156.269 199.831 C 154.901 198.363, 154.082 196.676, 154.450 196.081 C 154.834 195.460, 154.349 194.993, 153.309 194.985 C 151.913 194.973, 151.810 194.773, 152.857 194.110 C 153.759 193.538, 153.857 193.030, 153.150 192.593 C 152.566 192.232, 152.369 191.202, 152.714 190.304 C 153.114 189.260, 152.943 188.917, 152.239 189.352 C 150.572 190.382, 150.070 188.880, 149.572 181.368 C 149.115 174.485, 144.580 159.713, 139.575 148.806 C 137.321 143.892, 137.173 143.759, 137.571 147 L 138.002 150.500 136.949 147.500 C 136.370 145.850, 135.504 142.250, 135.025 139.500 C 133.675 131.744, 132.264 126.872, 130.041 122.298 C 128.918 119.986, 127.362 115.711, 126.583 112.798 C 125.803 109.884, 124.453 105.531, 123.583 103.124 C 121.597 97.633, 121.594 97.661, 124.001 98.290 C 125.102 98.578, 125.785 98.462, 125.520 98.032 C 125.254 97.602, 126.087 97.250, 127.371 97.250 C 128.750 97.250, 132.328 99.482, 136.103 102.698 C 145.271 110.507, 146.899 111.149, 146.080 106.634 C 145.993 106.157, 146.610 104.718, 147.450 103.436 C 148.290 102.154, 148.730 100.459, 148.427 99.670 C 147.817 98.081, 141.756 92.993, 138.250 91.127 C 135.456 89.640, 135.410 87.690, 138.067 83.392 C 139.204 81.552, 140.028 79.249, 139.898 78.274 C 139.648 76.388, 141.596 71.490, 143.586 69 C 144.246 68.175, 145.411 65.250, 146.177 62.500 L 147.568 57.500 149.360 63.500 C 151.441 70.463, 151.438 70.456, 157.434 83.215 C 159.945 88.558, 162 93.578, 162 94.371 C 162 95.330, 162.683 95.634, 164.043 95.279 C 165.367 94.932, 165.982 95.185, 165.793 95.997 C 165.632 96.686, 166.125 97.477, 166.889 97.755 C 167.653 98.032, 168.013 97.830, 167.689 97.306 C 167.365 96.781, 168.089 96.385, 169.298 96.426 C 170.663 96.472, 171.871 95.647, 172.485 94.250 C 173.029 93.012, 174.241 92, 175.178 92 C 177.862 92, 178.384 90.285, 179.590 77.500 C 180.564 67.179, 183.175 52.087, 186.942 35 C 187.488 32.525, 188.206 28.700, 188.539 26.500 C 188.872 24.300, 189.621 20.190, 190.205 17.366 C 192.360 6.940, 189.716 3, 180.564 3 C 173.908 3, 172.289 4.980, 171.004 14.693 C 170.408 19.199, 169.314 25.274, 168.572 28.193 C 167.830 31.112, 166.223 38.675, 164.999 45 C 162.983 55.423, 161 61.208, 161 56.665 C 161 54.537, 158.503 50.482, 154.761 46.535 C 153.216 44.904, 152.175 42.985, 152.450 42.270 C 152.724 41.555, 152.052 39.373, 150.956 37.422 C 149.733 35.244, 148.720 30.992, 148.332 26.404 C 147.985 22.295, 147.285 18.676, 146.776 18.362 C 146.268 18.048, 144.760 18.816, 143.426 20.070 C 141.593 21.791, 141 23.392, 141 26.615 C 141 28.962, 140.550 31.160, 140 31.500 C 139.450 31.840, 139.002 33.104, 139.004 34.309 C 139.007 35.514, 137.932 40.100, 136.616 44.500 C 135.300 48.900, 133.475 55.087, 132.561 58.250 C 131.646 61.413, 130.530 64, 130.081 64 C 129.631 64, 129.013 62.135, 128.707 59.856 C 128.402 57.577, 127.780 55.439, 127.326 55.106 C 126.872 54.773, 126.475 54.050, 126.444 53.500 C 126.414 52.950, 126.013 51.150, 125.555 49.500 C 116.678 17.546, 112.811 8.001, 107.467 4.848 C 105.562 3.724, 104.185 2.510, 104.408 2.150 C 104.630 1.790, 102.644 1.363, 99.993 1.202 C 97.219 1.034, 94.882 1.382, 94.486 2.023 M 49.876 3.750 C 49.807 3.888, 49.677 4.338, 49.588 4.750 C 48.871 8.066, 43.536 17.831, 42.718 17.326 C 42.114 16.952, 41.996 17.184, 42.432 17.889 C 42.839 18.548, 42.739 19.630, 42.210 20.294 C 41.682 20.957, 39.430 25.550, 37.208 30.500 C 34.985 35.450, 30.241 46.025, 26.665 54 C 18.075 73.157, 13.224 86.477, 12.825 92 C 12.508 96.386, 12.576 96.503, 15.500 96.609 C 18.781 96.728, 23 95.170, 23 93.839 C 23 93.378, 23.915 93, 25.032 93 C 26.992 93, 29.273 89.362, 28.324 87.750 C 28.081 87.338, 28.584 87, 29.441 87 C 30.298 87, 31 86.298, 31 85.441 C 31 84.584, 31.386 84.120, 31.857 84.411 C 32.328 84.703, 34.016 82.278, 35.607 79.024 C 37.934 74.266, 38.989 73.082, 41 72.977 C 42.375 72.906, 44.385 72.682, 45.466 72.480 C 46.547 72.279, 47.912 72.512, 48.499 73 C 49.087 73.487, 50.072 73.574, 50.688 73.193 C 52.433 72.114, 62.879 72.655, 64.381 73.901 C 65.464 74.800, 65.645 74.480, 65.311 72.259 C 65.082 70.741, 66.529 73.550, 68.526 78.500 C 70.523 83.450, 72.288 88.400, 72.449 89.500 C 72.610 90.600, 73.242 91.390, 73.852 91.256 C 74.463 91.122, 75.673 92.097, 76.541 93.422 C 78.325 96.146, 79.884 96.903, 85.249 97.653 C 88.230 98.070, 89 97.852, 89 96.589 C 89 94.689, 91.073 94.511, 92.947 96.250 C 93.855 97.093, 94.077 97.115, 93.630 96.319 C 93.266 95.670, 93.455 94.837, 94.051 94.468 C 94.659 94.093, 95.376 94.721, 95.684 95.899 C 96.193 97.847, 98.041 98.939, 97.967 97.250 C 97.909 95.914, 94.314 85.981, 93.647 85.314 C 92.507 84.174, 92.942 81.846, 94.155 82.595 C 94.876 83.041, 95.037 82.869, 94.585 82.138 C 94.187 81.494, 93.525 81.176, 93.113 81.430 C 92.700 81.685, 91.766 80.230, 91.035 78.197 C 89.221 73.146, 82.821 59.616, 81.955 59 C 81.568 58.725, 80.915 56.925, 80.504 55 C 79.412 49.887, 76.924 44, 75.856 44 C 75.347 44, 75.440 43.046, 76.065 41.879 C 76.689 40.713, 76.777 40.020, 76.261 40.339 C 75.063 41.079, 69.735 28.237, 70.636 26.780 C 71.020 26.158, 70.849 25.975, 70.236 26.354 C 69.601 26.747, 68.893 25.789, 68.502 24.009 C 68.138 22.354, 67.427 21, 66.921 21 C 66.414 21, 66 20.570, 66 20.044 C 66 19.519, 64.860 17.408, 63.466 15.355 C 62.072 13.301, 61.167 11.007, 61.454 10.258 C 61.742 9.509, 61.532 9.171, 60.989 9.507 C 60.445 9.843, 60 9.668, 60 9.118 C 60 8.568, 60.450 7.840, 61 7.500 C 61.550 7.160, 61.993 6.346, 61.985 5.691 C 61.975 4.975, 61.582 5.099, 61 6 C 60.169 7.285, 60.028 7.252, 60.015 5.769 C 60.007 4.794, 59.017 3.822, 57.750 3.543 C 55.613 3.073, 50.144 3.217, 49.876 3.750 M 54.003 31.043 C 53.351 33.494, 51.723 37.525, 50.386 40 C 47.726 44.922, 40.866 65.199, 41.609 65.942 C 41.863 66.196, 43.595 66.301, 45.457 66.176 C 47.981 66.006, 48.961 66.400, 49.306 67.724 C 49.707 69.265, 49.783 69.279, 49.884 67.829 C 49.979 66.461, 51.342 66.098, 57.408 65.829 C 61.482 65.648, 64.606 65.838, 64.349 66.250 C 64.092 66.662, 64.359 67, 64.941 67 C 66.542 67, 66.224 63.163, 63.897 54.410 C 62.741 50.059, 61.412 44.925, 60.944 43 C 59.319 36.318, 57.458 30.489, 56.326 28.543 C 55.304 26.785, 55.068 27.039, 54.003 31.043 M 22.564 58.707 C 22.022 60.132, 22.136 60.247, 23.124 59.267 C 23.808 58.588, 24.115 57.781, 23.807 57.474 C 23.499 57.166, 22.940 57.721, 22.564 58.707 M 216 71.059 C 216 71.641, 216.450 71.840, 217 71.500 C 217.550 71.160, 218 70.684, 218 70.441 C 218 70.198, 217.550 70, 217 70 C 216.450 70, 216 70.477, 216 71.059 M 110.724 81.890 C 109.299 86.304, 109.277 87.249, 110.545 89.790 C 112.629 93.968, 115.597 96.339, 117.967 95.719 C 119.393 95.346, 120.021 95.682, 120.070 96.844 C 120.127 98.171, 120.291 98.115, 120.900 96.561 C 121.697 94.524, 118.442 89.609, 116.918 90.550 C 116.489 90.816, 115.813 90.506, 115.415 89.862 C 114.941 89.095, 115.126 88.960, 115.953 89.471 C 117.357 90.339, 117.185 89.581, 114.177 81.688 L 112.344 76.877 110.724 81.890 M 39 100.967 C 35.425 101.342, 30.397 102.588, 27.827 103.735 C 25.256 104.882, 22.822 105.523, 22.416 105.160 C 22.011 104.797, 22.003 105.063, 22.399 105.750 C 23.046 106.875, 21.913 107.460, 19.750 107.118 C 19.338 107.053, 19.109 107.338, 19.242 107.750 C 19.599 108.856, 16.419 113.086, 15.740 112.407 C 15.421 112.088, 15.246 116.253, 15.351 121.663 C 15.498 129.258, 15.983 132.298, 17.476 135 C 18.541 136.925, 19.308 138.871, 19.181 139.324 C 19.054 139.778, 19.346 139.904, 19.830 139.605 C 20.881 138.955, 25.241 143.353, 24.509 144.324 C 24.229 144.696, 24.306 144.769, 24.681 144.486 C 25.596 143.795, 31.058 149.097, 30.448 150.084 C 30.184 150.512, 30.494 151.187, 31.138 151.585 C 31.869 152.037, 32.041 151.876, 31.595 151.155 C 31.203 150.520, 31.246 150.025, 31.691 150.056 C 33.378 150.172, 41.361 161.443, 43.241 166.363 C 45.654 172.678, 45.952 184.803, 43.771 187.916 C 42.973 189.055, 42 189.666, 41.607 189.274 C 41.215 188.882, 41.220 189.409, 41.617 190.445 C 42.117 191.746, 41.982 192.107, 41.181 191.612 C 40.399 191.129, 40.238 191.457, 40.685 192.622 C 41.198 193.959, 40.959 194.198, 39.622 193.685 C 38.595 193.291, 38.144 193.423, 38.507 194.011 C 38.843 194.555, 38.165 195, 37 195 C 35.835 195, 35.090 194.662, 35.345 194.250 C 35.600 193.838, 34.765 193.438, 33.491 193.361 C 30.561 193.186, 19.806 186.122, 20.575 184.878 C 20.891 184.368, 20.778 184.057, 20.324 184.188 C 19.871 184.318, 18.464 183.851, 17.198 183.150 C 15.933 182.448, 13.908 182.015, 12.698 182.187 C 10.735 182.466, 10.502 183.089, 10.519 188 C 10.533 192.171, 10.896 193.506, 12.019 193.524 C 12.834 193.537, 13.438 194.320, 13.363 195.263 C 13.288 196.207, 13.675 196.701, 14.225 196.361 C 14.774 196.022, 15.511 196.161, 15.862 196.670 C 16.213 197.180, 17.919 198.587, 19.654 199.798 C 22.405 201.718, 24.118 202, 33.031 202 C 42.424 202, 43.734 201.755, 49.192 198.982 C 52.459 197.322, 55.622 196.266, 56.220 196.636 C 56.833 197.015, 57.025 196.850, 56.660 196.259 C 56.027 195.235, 58.683 193.500, 60.324 193.866 C 60.778 193.967, 60.895 193.639, 60.585 193.138 C 60.276 192.637, 60.725 191.643, 61.584 190.930 C 67.902 185.687, 68.742 172.248, 63.399 161.890 C 62.658 160.455, 62.378 158.920, 62.776 158.480 C 63.174 158.040, 62.960 157.989, 62.300 158.368 C 60.909 159.166, 58.590 155.473, 59.528 153.955 C 59.869 153.402, 59.778 153.071, 59.324 153.218 C 58.068 153.625, 51.979 147.843, 52.602 146.835 C 52.903 146.348, 52.778 146.057, 52.324 146.188 C 50.751 146.641, 46.947 143.894, 47.627 142.795 C 48.051 142.109, 47.849 141.976, 47.091 142.443 C 45.768 143.262, 41.746 140.220, 42.513 138.980 C 42.769 138.565, 42.195 137.613, 41.239 136.863 C 39.645 135.614, 39.614 135.667, 40.861 137.500 C 41.609 138.600, 40.874 138.005, 39.227 136.177 C 36.600 133.262, 34.472 127.187, 34.702 123.261 C 34.742 122.579, 34.305 122.312, 33.731 122.666 C 33.039 123.094, 32.895 122.035, 33.304 119.515 C 34.131 114.419, 38.462 108, 41.073 108 C 42.198 108, 42.843 108.445, 42.507 108.989 C 42.171 109.532, 42.522 109.737, 43.288 109.443 C 44.053 109.149, 45.206 109.543, 45.850 110.319 C 47.386 112.170, 55.130 111.616, 58.491 109.414 C 61.309 107.567, 61.765 106, 59.485 106 C 58.652 106, 55.578 104.650, 52.654 103 C 49.730 101.350, 46.925 100.064, 46.419 100.142 C 45.914 100.220, 42.575 100.591, 39 100.967 M 98.983 110.250 C 97.890 112.037, 97.217 114.086, 97.487 114.802 C 97.756 115.518, 97.563 115.848, 97.058 115.536 C 95.179 114.375, 94.632 116.916, 93.407 132.500 C 92.616 142.551, 95.912 166.922, 99.653 178.691 C 102.266 186.913, 107.544 194.860, 108.647 192.232 C 108.939 191.535, 109.744 190.399, 110.436 189.707 C 112.416 187.727, 113.806 179.749, 115.089 163 C 115.742 154.475, 116.390 146.150, 116.528 144.500 C 116.666 142.850, 116.361 139.250, 115.850 136.500 C 115.339 133.750, 114.710 129.475, 114.453 127 C 113.859 121.283, 110.146 110, 108.859 110 C 108.322 110, 108.206 110.563, 108.601 111.250 C 109.019 111.976, 108.939 112.151, 108.410 111.667 C 107.910 111.208, 107.493 110.533, 107.485 110.167 C 107.387 105.907, 101.604 105.964, 98.983 110.250 M 125 131 C 125 131.550, 125.477 132, 126.059 132 C 126.641 132, 126.840 131.550, 126.500 131 C 126.160 130.450, 125.684 130, 125.441 130 C 125.198 130, 125 130.450, 125 131 M 192.500 165 C 192.160 165.550, 192.359 166, 192.941 166 C 193.523 166, 194 165.550, 194 165 C 194 164.450, 193.802 164, 193.559 164 C 193.316 164, 192.840 164.450, 192.500 165 M 68.079 180.583 C 68.127 181.748, 68.364 181.985, 68.683 181.188 C 68.972 180.466, 68.936 179.603, 68.604 179.271 C 68.272 178.939, 68.036 179.529, 68.079 180.583 M 28.269 203.693 C 29.242 203.947, 30.592 203.930, 31.269 203.656 C 31.946 203.382, 31.150 203.175, 29.500 203.195 C 27.850 203.215, 27.296 203.439, 28.269 203.693 M 40.813 205.683 C 41.534 205.972, 42.397 205.936, 42.729 205.604 C 43.061 205.272, 42.471 205.036, 41.417 205.079 C 40.252 205.127, 40.015 205.364, 40.813 205.683 M 47.250 205.689 C 48.212 205.941, 49.788 205.941, 50.750 205.689 C 51.712 205.438, 50.925 205.232, 49 205.232 C 47.075 205.232, 46.288 205.438, 47.250 205.689 M 35.500 207.993 C 33.300 208.484, 29.558 208.911, 27.184 208.942 C 21.996 209.012, 18.835 210.518, 19.063 212.813 C 19.383 216.040, 18.995 218.115, 18.167 217.603 C 17.708 217.320, 17.333 217.723, 17.333 218.500 C 17.333 219.277, 17.708 219.680, 18.167 219.397 C 18.625 219.114, 19 219.584, 19 220.441 C 19 221.298, 18.602 222, 18.117 222 C 17.631 222, 16.998 222.901, 16.710 224.001 C 16.397 225.198, 16.591 225.753, 17.193 225.381 C 17.856 224.971, 17.878 225.398, 17.258 226.629 C 15.749 229.628, 15.734 260.967, 17.242 262.829 C 17.943 263.696, 18.008 264.089, 17.389 263.719 C 16.052 262.919, 16.112 275.753, 17.454 277.926 C 17.991 278.794, 17.933 279.077, 17.299 278.685 C 16.682 278.303, 16.473 279.021, 16.761 280.530 C 17.021 281.889, 17.743 283.007, 18.367 283.015 C 19.178 283.026, 19.189 283.239, 18.403 283.765 C 17.799 284.169, 17.048 286.975, 16.733 290 C 16.378 293.408, 16.483 294.739, 17.010 293.500 C 17.767 291.718, 17.867 291.794, 17.930 294.191 C 17.968 295.671, 18.457 297.165, 19.016 297.510 C 19.575 297.856, 19.788 298.535, 19.488 299.019 C 18.890 299.988, 22.956 302.584, 24.408 302.160 C 24.908 302.014, 25.677 302.477, 26.117 303.189 C 26.645 304.044, 27.253 304.147, 27.908 303.492 C 28.563 302.836, 33.746 302.860, 43.199 303.563 C 64.506 305.147, 77.021 303.954, 69.750 301.031 C 68.026 300.338, 67.909 300.112, 69.250 300.063 C 71.267 299.990, 71.597 298.408, 69.750 297.662 C 69.063 297.385, 68.985 297.122, 69.577 297.079 C 70.192 297.034, 70.468 295.733, 70.220 294.045 C 69.832 291.401, 69.298 291.009, 65.143 290.319 C 62.589 289.895, 55.657 289.537, 49.737 289.524 L 38.974 289.500 39.646 276 C 40.599 256.859, 40.286 257.557, 48.068 257.226 C 51.606 257.076, 55.175 256.671, 56 256.326 C 56.825 255.981, 58.389 255.529, 59.476 255.322 C 61.406 254.952, 62.815 253.392, 62.824 251.612 C 62.827 251.123, 63.375 250.386, 64.043 249.974 C 67.237 248, 63.337 247, 52.441 247 L 41 247 40.976 239.250 C 40.954 232.203, 40.455 228.841, 38.451 222.250 C 37.785 220.059, 37.959 220, 45.133 219.994 C 56.812 219.986, 64 217.022, 64 212.216 C 64 211.089, 64.563 209.966, 65.250 209.720 C 68.147 208.686, 64.743 208.128, 52.496 207.630 C 45.348 207.339, 37.700 207.503, 35.500 207.993 M 14.158 239 C 14.158 240.375, 14.385 240.938, 14.662 240.250 C 14.940 239.563, 14.940 238.438, 14.662 237.750 C 14.385 237.063, 14.158 237.625, 14.158 239 M 42.079 243.583 C 42.127 244.748, 42.364 244.985, 42.683 244.188 C 42.972 243.466, 42.936 242.603, 42.604 242.271 C 42.272 241.939, 42.036 242.529, 42.079 243.583 M 48.250 287.716 C 49.763 287.945, 52.237 287.945, 53.750 287.716 C 55.263 287.487, 54.025 287.300, 51 287.300 C 47.975 287.300, 46.737 287.487, 48.250 287.716 M 33.750 304.706 C 34.987 304.944, 37.013 304.944, 38.250 304.706 C 39.487 304.467, 38.475 304.272, 36 304.272 C 33.525 304.272, 32.513 304.467, 33.750 304.706" stroke="none" fill="black" fill-rule="evenodd"/>
</svg>