<?xml version="1.0"?><svg xmlns="http://www.w3.org/2000/svg" width="36" height="36" shape-rendering="geometricPrecision" text-rendering="geometricPrecision" image-rendering="optimizeQuality" fill-rule="evenodd" clip-rule="evenodd" viewBox="0 0 36 36"><path fill="#fefefd" d="m-0.1-0.1h36v36h-36v-36z"></path><path fill="#488a6f" d="m15 7h-0.2c0.1-0.2 0-0.3-0.1-0.3 0-0.4-0.1-0.7-0.3-1 0.1-0.4 0.3-0.5 0.7-0.4v-0.4c-0.6 0-1.3 0.1-2 0.2 0.6-0.2 1.3-0.4 1.9-0.5 0.2 0 0.2 0 0.3 0.1 0.1 0.2 0.1 0.5 0.1 0.7-0.3 0-0.6 0.1-0.7 0.4 0.1 0.4 0.2 0.8 0.3 1.2z"></path><path fill="#819a76" d="m24.3 5.7c-1-0.9-2-0.9-3-0.1 0.3-0.6 0.7-0.9 1.3-0.9 0.8 0 1.3 0.3 1.7 1z"></path><path fill="#3d826b" d="m13.1 5.1c-0.1 0.3-0.2 0.4-0.5 0.3v0.4c0.4-0.1 0.7-0.1 1.1 0v0.5c-0.1-0.2-0.3-0.3-0.5-0.3-0.2 0-0.5 0.1-0.8 0.1-0.3-0.7 0-1 0.7-1z"></path><path fill="#2db13e" d="m14.4 5.7c-0.2 0.1-0.4 0.1-0.7 0.1-0.4-0.1-0.7-0.1-1.1 0v-0.4c0.3 0.1 0.4 0 0.5-0.3 0.7-0.1 1.4-0.2 2-0.2v0.4c-0.4-0.1-0.6 0-0.7 0.4z"></path><path fill="#6a8c72" d="m17.2 4.3h2.7v0.8c-0.5 0-1 0-1.5 0.2 0.4 0.1 0.8 0.2 1.2 0.1v0.7h-1.2v1.1h-1.2v-2.9z"></path><path fill="#42b247" d="m18.2 5.6h-0.8v-1.2h2.4c0 0.2-0.1 0.4-0.2 0.5-0.4 0.1-0.9 0.1-1.4 0.1v0.6z"></path><path fill="#b2be49" d="m24.3 5.7v0.6h-0.7c-0.1-0.2-0.2-0.4-0.3-0.5-0.1-0.1-0.3-0.2-0.5-0.2l-0.5 0.1c-0.1 0.3-0.2 0.6-0.2 1-0.1-0.3-0.1-0.5-0.1-0.9-0.2 0-0.5 0.1-0.7 0.2v-0.4c1-0.8 2-0.8 3 0.1z"></path><path fill="#91957f" d="m23.3 5.8c-0.6-0.2-0.9 0-1 0.6 0 0.2 0.1 0.4 0.3 0.6-0.3 0-0.4-0.1-0.5-0.3 0-0.4 0.1-0.7 0.2-1l0.5-0.1c0.2 0 0.4 0.1 0.5 0.2z"></path><path fill="#7b7a59" d="m23.3 5.8c0.1 0.1 0.2 0.3 0.3 0.5-0.3-0.1-0.4-0.2-0.3-0.5z"></path><path fill="#a2be46" d="m17.4 5.6h1.9v0.4h-1.1v1h-0.8v-1.4z"></path><path fill="#74b93e" d="m14.4 5.7c0.2 0.3 0.3 0.6 0.3 1h-0.6l-0.4-0.4v-0.5c0.3 0 0.5 0 0.7-0.1z"></path><path fill="#958d80" d="m24.3 5.7c0.2 0.8 0 1-0.7 0.6h0.7v-0.6z"></path><path fill="#a29577" d="m23.8 6.8c-0.4 0-0.7 0.1-1 0.3-0.1 0-0.2-0.1-0.2-0.1 0.2-0.1 0.5-0.3 0.7-0.5 0.2 0.1 0.4 0.2 0.5 0.3z"></path><path fill="#f7f9a6" d="m33.7 7.5c0-0.2 0-0.4-0.2-0.6-0.3-0.1-0.7 0-0.9 0.2 0.2-0.4 0.6-0.5 1.1-0.3 0.2 0.2 0.2 0.5 0 0.7z"></path><path fill="#adbf3d" d="m14.1 6.7h0.6c0.1 0 0.2 0.1 0.1 0.3 0 0.4-0.2 0.5-0.6 0.4-0.1-0.2-0.1-0.5-0.1-0.7z"></path><path fill="#a09775" d="m21.3 5.7v0.3c0 0.3 0 0.6 0.1 1 0.3 0.2 0.6 0.5 0.9 0.7h-0.2c-1-0.4-1.3-1-0.8-2z"></path><path fill="#eac543" d="m22.1 6.7c0.1 0.2 0.2 0.3 0.5 0.3 0 0 0.1 0.1 0.2 0.1 0.3-0.2 0.6-0.3 1-0.3-0.1 0.3-0.2 0.6-0.4 0.9h-1.1c-0.3-0.2-0.6-0.5-0.9-0.7-0.1-0.4-0.1-0.7-0.1-1 0.2-0.1 0.5-0.2 0.7-0.2 0 0.4 0 0.6 0.1 0.9z"></path><path fill="#ae9c7a" d="m23.8 6.8c0.3 0.1 0.3 0.2 0.3 0.4-0.2 0.2-0.4 0.4-0.7 0.5 0.2-0.3 0.3-0.6 0.4-0.9z"></path><path fill="#98a170" d="m13.7 6.3l0.4 0.4c0 0.2 0 0.5 0.1 0.7 0.4 0.1 0.6 0 0.6-0.4h0.2c0.1 0.1 0.2 0.3 0.3 0.5-0.4 0.1-0.9 0.2-1.3 0.2-0.1-0.5-0.2-1-0.3-1.4z"></path><path fill="#f1f0eb" d="m28.9 9.5c-0.1 0.2-0.2 0.3-0.4 0.3-1.3-1.1-2.7-1.8-4.2-2.3-0.1 0.2 0 0.4 0.1 0.6 1.3 0.5 2.4 1.2 3.4 2.1-0.3 0.1-0.4 0.3-0.6 0.6h-0.3c-0.8-0.8-1.7-1.4-2.8-1.8-0.9-0.3-1.9-0.6-2.8-0.9 0.4 0.1 0.7-0.1 0.8-0.4h1.3c0.3-0.1 0.5-0.3 0.7-0.5 0.6-0.1 1.1 0.1 1.6 0.5 0.3 0.2 0.7 0.3 1.1 0.3l-0.2 0.2c0.5 0.3 0.9 0.5 1.5 0.6 0.1 0.4 0.3 0.7 0.8 0.7z"></path><path fill="#0e0e0e" d="m7.2 24.7c0 0.1 0 0.3-0.1 0.4 0 0.1-0.1 0.2-0.3 0.3-2.9-4.1-3.1-8.3-0.6-12.7 1.5-2.2 3.6-3.9 6.1-5 0.1 0.1 0.3 0.3 0.4 0.5-6.2 3-8.4 7.9-6.5 14.5 0.3 0.7 0.7 1.3 1 2z"></path><path fill="#0d0808" d="m21.3 8.1c0.9 0.3 1.9 0.6 2.8 0.9 1.1 0.4 2 1 2.8 1.8-0.2 0.2-0.5 0.4-0.8 0.5-1.8-1.4-3.9-2.2-6.2-2.4-0.4-0.1-0.9-0.1-1.4-0.1-0.8 0-1.5 0.1-2.3 0.3-1.1 0.1-2.2 0.5-3.2 1.1-1.7 0.7-3.1 1.9-4.1 3.5-1.3 1.8-1.9 3.8-1.6 6.1 0.1 0.5 0.2 1 0.3 1.5 0 0.3 0.1 0.4 0.3 0.6v0.2c0.3 0.5 0.5 0.9 0.6 1.3l-0.6 0.6c-2.7-5.4-1.7-10 3-13.7 3.2-2.1 6.6-2.8 10.4-2.2z"></path><path fill="#13110f" d="m28.5 9.8v0.1l-0.7 0.3c-1-0.9-2.1-1.6-3.4-2.1-0.1-0.2-0.2-0.4-0.1-0.6 1.5 0.5 2.9 1.2 4.2 2.3z"></path><path fill="#f2ec88" d="m31.4 7.8c-0.3 0.3-0.7 0.6-1.1 0.8 0.3-0.4 0.6-0.7 1.1-0.8z"></path><path fill="#fcf6a6" d="m33.5 7.7c-0.2 0.5-0.5 1-0.9 1.4 0.2-0.6 0.5-1 0.9-1.4z"></path><path fill="#ad8031" d="m19.9 8.9c-1.2 0-2.4 0.1-3.7 0.2 0.8-0.2 1.5-0.3 2.3-0.3 0.5 0 1 0 1.4 0.1z"></path><path fill="#fcb10c" d="m7.9 22.1v-0.2c-0.1-0.6-0.1-1.1 0-1.6-0.1-0.1-0.2-0.2-0.3-0.4-0.2-1.4-0.1-2.8 0.3-4.1 0.2-0.1 0.4-0.2 0.6-0.1 0-0.4-0.1-0.7-0.1-1 0.1 0.2 0.2 0.2 0.3 0 0.1-0.3 0.2-0.7 0.2-1 1-1.6 2.4-2.8 4.1-3.5 0.5-0.2 0.9-0.2 1.3 0 0.3-0.1 0.5-0.2 0.7-0.4l-0.3-0.1c0.4-0.1 0.8-0.1 1.3-0.1v0.5c0.3 0 0.6-0.2 0.8-0.4l-0.4-0.1c1.3-0.2 1.4 0.1 0.4 0.9l0.3 0.2c-0.2 0.1-0.4 0.3-0.4 0.6 0.2 0.2 0.2 0.4 0.2 0.6h-0.9c-0.1 0.4 0 0.8 0.2 1.2-0.2 0.3-0.5 0.7-0.7 1-0.2 0-0.3 0-0.5-0.1-0.2 0.3-0.3 0.3-0.4 0-0.2 0.2-0.2 0.5 0 0.8l-0.3 0.2c-0.1-0.2-0.2-0.3-0.4-0.3-0.1 0.1-0.3 0.2-0.6 0.3 0.1 0.5-0.2 0.9-0.7 1 0.2 0.5 0.3 1 0.2 1.5-0.1 0.1-0.3 0.2-0.5 0.1-0.1 0.7-0.4 1.1-1.1 1.1-0.8 0.7-1.2 1.6-1.3 2.6-0.2 0-0.5 0-0.7 0.1-0.2 0.4-0.3 0.8-0.4 1.2-0.4 0.1-0.5-0.1-0.4-0.5h-0.5z"></path><path fill="#f9f29c" d="m32.6 9.1c-0.1 0.3-0.3 0.5-0.6 0.7 0.1-0.3 0.3-0.6 0.6-0.7z"></path><path fill="#f6f187" d="m28.5 9.9c-0.4 0.4-0.8 0.7-1.3 0.9 0.2-0.3 0.3-0.5 0.6-0.6l0.7-0.3z"></path><path fill="#faf021" d="m33.7 7.5c0 0.1-0.1 0.2-0.2 0.2-0.4 0.4-0.7 0.8-0.9 1.4-0.3 0.1-0.5 0.4-0.6 0.7-0.6 0.6-1.1 1.2-1.6 1.9-0.2 0.2-0.3 0.4-0.4 0.7-0.2 0.3-0.4 0.6-0.7 0.9-0.2 0.1-0.4 0.3-0.5 0.6-1.6 2-3.3 4-5 6-0.1-0.1-0.3-0.3-0.4-0.5 0.2-0.2 0.3-0.5 0.4-0.8 0.8-1.1 1.6-2.2 2.4-3.2 0.4-0.3 0.7-0.7 0.9-1.1l2.1-2.8c0.3-0.3 0.5-0.7 0.7-1l-0.2-0.2c-0.8 0.4-1.4 0.9-2.1 1.4-1 0.6-2 1.3-2.9 2-0.4 0.2-0.7 0.4-1 0.7-0.9 0.5-1.7 1.1-2.5 1.7-0.4 0.1-0.7 0.2-0.9 0.6-0.5 0.1-0.9 0.4-1.1 0.8h-0.1c-0.4 0.1-0.7 0-0.9-0.3 0.1-1.4 0-2.8-0.1-4.2-0.4 0.1-0.6 0.4-0.6 0.7-0.5 0.7-1 1.4-1.5 2.1-0.7 0.6-1.2 1.3-1.7 2-0.4 0.3-0.7 0.6-0.9 1.1-0.4 0.7-0.9 1.3-1.4 1.8-0.1 0-0.2 0.1-0.3 0.2-0.6 0.7-1 1.4-1.5 2.1-0.9 1.3-1.9 2.5-2.8 3.8l0.1 0.1c1.5-0.9 3-1.9 4.4-2.9 2.1-1.3 4.2-2.6 6.2-4l0.5-0.1c0.2 0 0.4 0.1 0.5 0.3-0.1 1.3 0 2.6 0 3.9 0.1-0.1 0.1-0.1 0.2-0.1l0.9-0.7c-0.2 0.6-0.6 1-1.3 1.2v-4.5c-0.5-0.1-0.8 0.1-1 0.5l0.5 0.2-0.2 0.1c0.1 0.1 0.2 0.2 0.3 0.4-0.3 1.6-0.4 3.2-0.3 4.9h0.6c-0.2 0.1-0.4 0.2-0.6 0.1-0.2-0.1-0.3-0.3-0.3-0.5 0.2-1.5 0.2-2.9 0.2-4.4-0.3 0-0.5 0.1-0.6 0.3-0.4 0.2-0.8 0.4-1.1 0.6-0.9 0.9-1.9 1.6-3.1 2.1-0.9 0.6-1.7 1.3-2.5 1.9-0.2 0.1-0.4 0.2-0.5 0.3-0.3 0.2-0.5 0.4-0.8 0.6-0.2 0-0.4 0.1-0.6 0.3-1 0.6-1.9 1.2-2.8 1.9-0.5 0.2-1 0.4-1.4 0.9-0.3 0.1-0.6 0.1-1 0.1-0.1-0.4-0.1-0.7 0.1-1.1 0.7-0.6 1.2-1.2 1.5-2 0.6-0.6 1.1-1.2 1.5-1.8 0.2-0.1 0.3-0.2 0.3-0.3 0.3 0 0.5-0.2 0.6-0.6 0-0.2 0.1-0.4 0.2-0.5l0.6-0.6c3.1-4.1 6.3-8.2 9.6-12.2 0.3-0.2 0.6-0.2 1 0 0.1 1.4 0.1 2.9 0.1 4.3-0.2 0.2-0.2 0.4 0 0.6 2-1.2 3.8-2.4 5.6-3.8 0.4-0.4 0.8-0.7 1.3-1 0.3-0.1 0.6-0.3 0.8-0.5h0.3c0.5-0.2 0.9-0.5 1.3-0.9v-0.1c0.2 0 0.3-0.1 0.4-0.3 0.4-0.3 0.9-0.6 1.4-0.9 0.4-0.2 0.8-0.5 1.1-0.8 0.4-0.2 0.8-0.5 1.2-0.7 0.2-0.2 0.6-0.3 0.9-0.2 0.2 0.2 0.2 0.4 0.2 0.6z"></path><path fill="#9b3b1c" d="m29.2 11.5c0-0.2 0-0.3-0.2-0.5-0.4 0.3-0.9 0.5-1.4 0.7 0.7-0.5 1.3-1 2.1-1.4l0.2 0.2c-0.2 0.3-0.4 0.7-0.7 1z"></path><path fill="#f8b316" d="m19.9 8.9c2.3 0.2 4.4 1 6.2 2.4-0.5 0.3-0.9 0.6-1.3 1-1.1 0.3-2 0.9-2.8 1.8-0.8 0.3-1.6 0.8-2.2 1.5l-0.5 0.2c-0.1 0-0.1-0.1-0.1-0.3 0-1.4 0-2.9-0.1-4.3-0.4-0.2-0.7-0.2-1 0-3.3 4-6.5 8.1-9.6 12.2-0.1-0.4-0.3-0.8-0.6-1.3h0.5c-0.1 0.4 0 0.6 0.4 0.5 0.1-0.4 0.2-0.8 0.4-1.2 0.2-0.1 0.5-0.1 0.7-0.1 0.1-1 0.5-1.9 1.3-2.6 0.7 0 1-0.4 1.1-1.1 0.2 0.1 0.4 0 0.5-0.1 0.1-0.5 0-1-0.2-1.5 0.5-0.1 0.8-0.5 0.7-1 0.3-0.1 0.5-0.2 0.6-0.3 0.2 0 0.3 0.1 0.4 0.3l0.3-0.2c-0.2-0.3-0.2-0.6 0-0.8 0.1 0.3 0.2 0.3 0.4 0 0.2 0.1 0.3 0.1 0.5 0.1 0.2-0.3 0.5-0.7 0.7-1-0.2-0.4-0.3-0.8-0.2-1.2h0.9c0-0.2 0-0.4-0.2-0.6 0-0.3 0.2-0.5 0.4-0.6l-0.3-0.2c1-0.8 0.9-1.1-0.4-0.9l0.4 0.1c-0.2 0.2-0.5 0.4-0.8 0.4v-0.5c-0.5 0-0.9 0-1.3 0.1l0.3 0.1c-0.2 0.2-0.4 0.3-0.7 0.4-0.4-0.2-0.8-0.2-1.3 0 1-0.6 2.1-1 3.2-1.1 1.3-0.1 2.5-0.2 3.7-0.2z"></path><path fill="#f5f4f4" d="m30 12.4c2.2 3.2 2.6 6.7 1.2 10.3-2 4.1-5.3 6.6-9.9 7.4-4.4 0.7-8.3-0.3-11.8-3 0.3-0.2 0.5-0.4 0.8-0.6 3.9 2.9 8.2 3.6 12.8 2.2 5.7-2 8.3-6.1 7.7-12-0.2-1.3-0.7-2.4-1.5-3.4 0.3-0.3 0.5-0.6 0.7-0.9z"></path><path fill="#ab5b2b" d="m27.6 11.7c-0.3 0.4-0.7 0.8-1.1 1.1-0.6 0.3-1.2 0.6-1.8 0.9 0.9-0.7 1.9-1.4 2.9-2z"></path><path fill="#bc0904" d="m29.2 11.5l-2.1 2.8c-0.4 0.2-0.7 0.6-0.9 1.1-0.8 1-1.6 2.1-2.4 3.2-0.5 0.5-1 1.1-1.4 1.7-0.8 0.9-1.6 1.9-2.2 3l-0.9 0.7c0-1.3-0.1-2.6-0.2-3.8-0.1-0.2-0.3-0.3-0.5-0.3l-0.5 0.1c-2 1.4-4.1 2.7-6.2 4-0.3 0-0.5 0.1-0.7 0.3-0.2-0.1-0.3-0.2-0.4-0.3-0.1 0.1-0.3 0.1-0.5 0.1v-1.1c0.2 0 0.4-0.1 0.5-0.3 0.4-0.4 0.6-0.8 0.8-1.3 0.5-0.4 1-0.9 1.5-1.4 0.2-0.5 0.4-1 0.8-1.4 0-0.2 0.2-0.4 0.4-0.5 0.4-0.5 0.9-1 1.3-1.6 0.2-0.2 0.3-0.4 0.4-0.7 0.3-0.2 0.6-0.5 0.9-0.8 0.2-0.5 0.5-0.9 0.7-1.3 0-0.1 0.1-0.1 0.2-0.1 0.1 1.3 0.2 2.6 0.2 3.9 0.1 0.2 0.3 0.3 0.6 0.3 0.2 0 0.4-0.1 0.5-0.3h0.1c0.4-0.2 0.8-0.5 1.1-0.8 0.2-0.4 0.5-0.5 0.9-0.6 0.9-0.4 1.7-1 2.5-1.7 0.3-0.3 0.6-0.5 1-0.7 0.6-0.3 1.2-0.6 1.8-0.9 0.4-0.3 0.8-0.7 1.1-1.1 0.5-0.2 1-0.4 1.4-0.7 0.2 0.2 0.2 0.3 0.2 0.5z"></path><path fill="#e9e7c0" d="m30.6 12c0.3 0.3 0.7 0.6 1 1 0.2 0.3 0.3 0.6 0.3 1-0.5-0.7-0.9-1.3-1.3-2z"></path><path fill="#f3df6e" d="m24.8 12.3c-1.8 1.4-3.6 2.6-5.6 3.8-0.2-0.2-0.2-0.4 0-0.6 0 0.2 0 0.3 0.1 0.3l0.5-0.2c0.6-0.7 1.4-1.2 2.2-1.5 0.8-0.9 1.7-1.5 2.8-1.8z"></path><path fill="#f6df65" d="m27.1 14.3c-0.2 0.4-0.5 0.8-0.9 1.1 0.2-0.5 0.5-0.9 0.9-1.1z"></path><path fill="#fde451" d="m18.2 17.2c-0.1-1.2-0.2-2.5-0.3-3.8-0.1 0-0.1 0.1-0.1 0.2-0.1 0-0.2 0-0.2 0.1h-0.1c0-0.3 0.2-0.6 0.6-0.7 0.1 1.4 0.2 2.8 0.1 4.2z"></path><path fill="#e6a929" d="m8.9 13.7c0 0.3-0.1 0.7-0.2 1-0.1 0.2-0.2 0.2-0.3 0 0 0.3 0.1 0.6 0.1 1-0.2-0.1-0.4 0-0.6 0.1-0.4 1.3-0.5 2.7-0.3 4.1 0.1 0.2 0.2 0.3 0.3 0.4-0.1 0.5-0.1 1 0 1.6-0.2-0.2-0.3-0.3-0.3-0.6-0.1-0.5-0.2-1-0.3-1.5-0.3-2.3 0.3-4.3 1.6-6.1z"></path><path fill="#c1663d" d="m17.5 13.7h0.1c-0.2 0.4-0.5 0.8-0.7 1.3-0.3 0.3-0.6 0.6-0.9 0.8 0.5-0.7 1-1.4 1.5-2.1z"></path><path fill="#a55e28" d="m23.7 14.4c-0.8 0.7-1.6 1.3-2.5 1.7 0.8-0.6 1.6-1.2 2.5-1.7z"></path><path fill="#fcb00e" d="m28.9 14.6c0.8 1.1 1.2 2.4 1.1 3.9-0.2 4.1-2.1 7.1-5.9 8.9-0.8 0.4-1.6 0.7-2.5 0.8-1 0.1-2.1 0.1-3.1 0.1 0.5-0.2 0.9-0.5 1.1-0.9 0-0.1-0.1-0.2-0.1-0.3 0.6-0.5 1.2-1.2 1.8-1.8-0.2 0-0.3-0.2-0.2-0.3 0.2-0.2 0.5-0.3 0.8-0.5-0.1 0-0.1-0.1-0.2-0.2 0.7-0.5 1.4-1 1.9-1.7l0.2 0.1c0-0.4 0.1-0.7 0-1.1 0.4-0.1 0.6-0.2 0.9-0.5-0.2-0.3-0.1-0.5 0.3-0.7l-0.3-0.1c0.6-0.3 0.7-0.2 0.3 0.4 0 0.2 0.1 0.2 0.2 0 0.2-0.3 0.2-0.7 0.3-1.1 0.5-0.6 0.9-1.2 1.4-1.8 0.1-0.3 0-0.5-0.1-0.8 0.5-0.5 1.1-0.9 1.8-1.2-0.2-0.3-0.2-0.6 0.2-0.8-0.4-0.4-0.4-0.5 0.1-0.4z"></path><path fill="#d68452" d="m16 15.8c-0.1 0.3-0.2 0.5-0.4 0.7-0.4 0.6-0.9 1.1-1.3 1.6v-0.3c0.5-0.7 1-1.4 1.7-2z"></path><path fill="#c48034" d="m20.3 16.7c-0.3 0.3-0.7 0.6-1.1 0.8 0.2-0.4 0.6-0.7 1.1-0.8z"></path><path fill="#bc461f" d="m17.8 13.6c0-0.1 0-0.2 0.1-0.2 0.1 1.3 0.2 2.6 0.3 3.8 0.2 0.3 0.5 0.4 0.9 0.3-0.1 0.2-0.3 0.3-0.5 0.3-0.3 0-0.5-0.1-0.6-0.3 0-1.3-0.1-2.6-0.2-3.9z"></path><path fill="#eae0b9" d="m31.9 14c0.2 0 0.4 0.1 0.4 0.4 0.6 2 0.8 4 0.6 6.1 0 0.2-0.2 0.5-0.3 0.7 0.5-2.5 0.2-4.9-0.7-7.2z"></path><path fill="#fbe088" d="m14.3 17.8v0.3c-0.2 0.1-0.4 0.3-0.4 0.5l-0.5 0.3c0.2-0.5 0.5-0.8 0.9-1.1z"></path><path fill="#fbe44c" d="m23.8 18.6c-0.1 0.3-0.2 0.6-0.4 0.8 0.1 0.2 0.3 0.4 0.4 0.5 0 0.2 0 0.4-0.2 0.4-0.2-0.2-0.3-0.4-0.4-0.7-0.2 0.3-0.5 0.5-0.8 0.7 0.4-0.6 0.9-1.2 1.4-1.7z"></path><path fill="#b03d24" d="m13.9 18.6c-0.4 0.4-0.6 0.9-0.8 1.4-0.5 0.5-1 1-1.5 1.4 0.1-0.2 0.2-0.4 0.4-0.7 0.5-0.5 1-1.1 1.4-1.8l0.5-0.3z"></path><path fill="#ecdd93" d="m12 20.7c-0.2 0.3-0.3 0.5-0.4 0.7-0.5 0.5-0.9 1-1.3 1.6h-0.1c0.5-0.7 0.9-1.4 1.5-2.1 0.1-0.1 0.2-0.2 0.3-0.2z"></path><path fill="#7c1b0d" d="m11.6 21.4c-0.2 0.5-0.4 0.9-0.8 1.3-0.1 0.2-0.3 0.3-0.5 0.3 0.4-0.6 0.8-1.1 1.3-1.6z"></path><path fill="#f6e86d" d="m17.9 25.7c0-1.4-0.2-2.8-0.4-4.1 0.1-0.2 0.3-0.3 0.6-0.3 0 1.5 0 2.9-0.2 4.4z"></path><path fill="#fbf10f" d="m23.6 20.3c-0.3 0.4-0.6 0.9-0.9 1.3-0.2 0.1-0.4 0.2-0.6 0.4-0.4 0.6-0.8 1.2-1.2 1.7-0.7 0.8-1.4 1.6-2.1 2.4h-0.6c-0.1-1.7 0-3.3 0.3-4.9-0.1-0.2-0.2-0.3-0.3-0.4l0.2-0.1-0.5-0.2c0.2-0.4 0.5-0.6 1-0.5v4.5c0.7-0.2 1.1-0.6 1.3-1.2 0.6-1.1 1.4-2.1 2.2-3 0.3-0.2 0.6-0.4 0.8-0.7 0.1 0.3 0.2 0.5 0.4 0.7z"></path><path fill="#986420" d="m19.1 20.2c0.1 1.2 0.2 2.5 0.2 3.8-0.1 0-0.1 0-0.2 0.1 0-1.3-0.1-2.6 0-3.9z"></path><path fill="#b1210a" d="m10.2 23h0.1v1.1c0.2 0 0.4 0 0.5-0.1 0.1 0.1 0.2 0.2 0.4 0.3 0.2-0.2 0.4-0.3 0.7-0.3-1.4 1-2.9 2-4.4 2.9l-0.1-0.1c0.9-1.3 1.9-2.5 2.8-3.8z"></path><path fill="#fbb10d" d="m13.1 27.4c-0.4-0.2-0.9-0.4-1.2-0.8-0.1-0.2-0.2-0.4-0.2-0.6 0.7-0.9 1.6-1.3 2.7-1.2l0.2-0.1-0.6-0.3c0.4-0.1 0.8-0.1 1.2 0 0.3-0.1 0.7-0.3 1-0.4 0.3 0 0.4 0.1 0.5 0.3 0.3-0.4 0.5-0.4 0.7 0l0.2-2.3c0.1 1.2 0.1 2.4 0 3.7-0.3 0.2-0.5 0.5-0.5 0.9 0.2 0.5 0.4 0.9 0.6 1.3-0.8 0.1-1.7 0.1-2.6 0.1-0.2-0.1-0.2-0.2 0-0.3-0.7 0-1.3-0.2-2-0.3z"></path><path fill="#cbcd63" d="m7.7 24.5c-0.1 0.4-0.3 0.6-0.6 0.6 0.1-0.1 0.1-0.3 0.1-0.4 0.2 0 0.3-0.1 0.5-0.2z"></path><path fill="#100e0e" d="m30.4 11.7l0.2 0.3c0.4 0.7 0.8 1.3 1.3 2 0.9 2.3 1.2 4.7 0.7 7.2-0.2 0.1-0.2 0.3-0.2 0.5-1 2.9-2.8 5.2-5.3 6.9-4 2.3-8.3 2.9-12.8 1.8-1.8-0.6-3.4-1.4-4.9-2.4-0.3-0.2-0.4-0.4-0.5-0.6 0.2-0.2 0.4-0.3 0.6-0.3 3.5 2.7 7.4 3.7 11.8 3 4.6-0.8 7.9-3.3 9.9-7.4 1.4-3.6 1-7.1-1.2-10.3 0.1-0.3 0.2-0.5 0.4-0.7z"></path><path fill="#efeedc" d="m32.4 21.7c0 0.7-0.2 1.4-0.5 2-0.5 1.1-1.2 2.1-1.9 2.9-0.2 0.3-0.5 0.5-0.7 0.6-0.1 0.2-0.1 0.4-0.1 0.6h-0.7c0 0.2 0 0.4-0.2 0.6-0.3 0-0.7 0.1-0.9 0.4-0.1-0.1-0.2-0.1-0.3-0.2 2.5-1.7 4.3-4 5.3-6.9z"></path><path fill="#f6b317" d="m28.8 13.9c0 0.2 0 0.4 0.1 0.7-0.5-0.1-0.5 0-0.1 0.4-0.4 0.2-0.4 0.5-0.2 0.8-0.7 0.3-1.3 0.7-1.8 1.2 0.1 0.3 0.2 0.5 0.1 0.8-0.5 0.6-0.9 1.2-1.4 1.8-0.1 0.4-0.1 0.8-0.3 1.1-0.1 0.2-0.2 0.2-0.2 0 0.4-0.6 0.3-0.7-0.3-0.4l0.3 0.1c-0.4 0.2-0.5 0.4-0.3 0.7-0.3 0.3-0.5 0.4-0.9 0.5 0.1 0.4 0 0.7 0 1.1l-0.2-0.1c-0.5 0.7-1.2 1.2-1.9 1.7 0.1 0.1 0.1 0.2 0.2 0.2-0.3 0.2-0.6 0.3-0.8 0.5-0.1 0.1 0 0.3 0.2 0.3-0.6 0.6-1.2 1.3-1.8 1.8 0 0.1 0.1 0.2 0.1 0.3-0.2 0.4-0.6 0.7-1.1 0.9 1 0 2.1 0 3.1-0.1-0.5 0.2-1.1 0.3-1.7 0.3-1.3 0-2.6-0.1-3.9-0.2-1-0.1-2-0.4-2.9-0.9 0.7 0.1 1.3 0.3 2 0.3-0.2 0.1-0.2 0.2 0 0.3 0.9 0 1.8 0 2.6-0.1-0.2-0.4-0.4-0.8-0.6-1.3 0-0.4 0.2-0.7 0.5-0.9 0.1-1.3 0.1-2.5 0-3.7l-0.2 2.3c-0.2-0.4-0.4-0.4-0.7 0-0.1-0.2-0.2-0.3-0.5-0.3-0.3 0.1-0.7 0.3-1 0.4-0.4-0.1-0.8-0.1-1.2 0l0.6 0.3-0.2 0.1c-1.1-0.1-2 0.3-2.7 1.2 0 0.2 0.1 0.4 0.2 0.6-0.3-0.1-0.6-0.3-0.9-0.5-0.1 0-0.2 0.1-0.2 0.1 0.8-0.6 1.6-1.3 2.5-1.9 1.2-0.5 2.2-1.2 3.1-2.1 0.3-0.2 0.7-0.4 1.1-0.6 0.2 1.3 0.4 2.7 0.4 4.1 0 0.2 0.1 0.4 0.3 0.5 0.2 0.2 0.4 0.2 0.7 0.1 0.9-0.7 1.6-1.6 2-2.6 0.8-0.5 1.4-1.2 1.8-2.1 0.3-0.4 0.6-0.9 0.9-1.3 0.2 0 0.2-0.2 0.2-0.4 1.7-2 3.4-4 5-6z"></path><path fill="#eecf4a" d="m20.9 23.7c-0.4 1-1.1 1.9-2 2.6-0.3 0.1-0.5 0.1-0.7-0.1 0.2 0.1 0.4 0 0.6-0.1 0.7-0.8 1.4-1.6 2.1-2.4z"></path><path fill="#edcd3a" d="m22.7 21.6c-0.4 0.9-1 1.6-1.8 2.1 0.4-0.5 0.8-1.1 1.2-1.7 0.2-0.2 0.4-0.3 0.6-0.4z"></path><path fill="#100c0b" d="m29.3 13.3c0.8 1 1.3 2.1 1.5 3.4 0.6 5.9-2 10-7.7 12-4.6 1.4-8.9 0.7-12.8-2.2 0.1-0.1 0.3-0.2 0.5-0.3 0 0 0.1-0.1 0.2-0.1 0.3 0.2 0.6 0.4 0.9 0.5 0.3 0.4 0.8 0.6 1.2 0.8 0.9 0.5 1.9 0.8 2.9 0.9 0.7 0.2 1.5 0.3 2.3 0.3 0.5 0 1.1 0 1.6-0.1 0.6 0 1.2-0.1 1.7-0.3 0.9-0.1 1.7-0.4 2.5-0.8 3.8-1.8 5.7-4.8 5.9-8.9 0.1-1.5-0.3-2.8-1.1-3.9-0.1-0.3-0.1-0.5-0.1-0.7 0.1-0.3 0.3-0.5 0.5-0.6z"></path><path fill="#cfa13b" d="m16 28.3c1.3 0.1 2.6 0.2 3.9 0.2-0.5 0.1-1.1 0.1-1.6 0.1-0.8 0-1.6-0.1-2.3-0.3z"></path><path fill="#faf9b4" d="m6.1 29.3c-0.4 0.4-0.8 0.7-1.2 1.1-0.5 0.1-0.8 0.1-1.2-0.1 0.4 0 0.7 0 1-0.1 0.4-0.5 0.9-0.7 1.4-0.9z"></path></svg>