<?xml version="1.0"?><svg xmlns="http://www.w3.org/2000/svg" width="36" height="36" shape-rendering="geometricPrecision" text-rendering="geometricPrecision" image-rendering="optimizeQuality" fill-rule="evenodd" clip-rule="evenodd" viewBox="0 0 36 36"><path fill="#010404" d="m1.3-0.2h33.1v36h-33.1v-36z"></path><path fill="#0093aa" d="m21.4 21.8c-0.4 0-0.7-0.2-1.1-0.4-0.3-1.3-0.8-2.6-1.4-3.9 1.4-1.5 1.8-3.2 1.1-5.1-0.6-0.4-1.2-0.8-1.8-1.1-0.3-0.2-0.7-0.3-1.1-0.3-0.7-0.1-1.1 0.2-1.4 0.7-1.6 1.1-1.9 2.6-0.9 4.3 0.4 0.4 0.9 0.9 1.2 1.5-0.7 1.5-1.4 3.1-2.1 4.6-0.4-0.1-0.7-0.3-1.1-0.3-1 0.4-1.9 0.7-2.9 0.9-0.5-0.6-1.1-1.2-1.8-1.6 2.4-3.1 1.7-4.8-2.2-5.1v-3.6c3.9-0.2 4.6-1.9 2.2-4.8l1.8-1.8c0.4-0.3 0.7-0.3 1.1 0 0.6 0.4 1.3 0.8 2 1.2 0.7-0.4 1.5-0.6 2.3-0.7 0-1.1 0.1-2.2 0.4-3.2 1-0.1 2.1 0 3.2 0.1 0.4 1 0.7 2 0.9 3.1 0.6 0.3 1.2 0.5 1.8 0.7 1.1-0.6 2.1-1.1 3.1-1.6 0.7 0.6 1.3 1.3 1.8 2.2l-1.5 2.5c0.3 0.7 0.6 1.3 0.9 2l2.9 0.7c0.2 0.9 0.2 1.9 0 2.9-0.9 0.2-1.8 0.4-2.7 0.5-1.5 1.5-1.4 2.8 0.2 4.1 0 1.3-0.7 2.2-2 2.6-0.9-0.6-1.8-1-2.9-1.1z"></path><path fill="#054f5b" d="m18.2 11.3c-0.9 0-1.7 0.1-2.5 0.4 0.3-0.5 0.7-0.8 1.4-0.7 0.4 0 0.8 0.1 1.1 0.3z"></path><path fill="#043e48" d="m20.3 21.4c0.4 0.2 0.7 0.4 1.1 0.4-0.5 0.5-0.9 0.4-1.1-0.4z"></path><path fill="#037486" d="m3.1 25.4c0.6-0.1 1.1 0 1.6 0.3 0.6 2.3-0.1 3-2.2 2.2-0.3-1-0.1-1.8 0.6-2.5z"></path><path fill="#046979" d="m11.3 25.4c2.5-0.4 3.3 0.6 2.6 2.9-0.4-0.7-0.5-1.4-0.4-2.2h-1.1v2.2h-1.1v-2.9z"></path><path fill="#047082" d="m25 25.4c1.2 0.1 2.4 0.1 3.4 0l0.9 0.3c-0.4 0.4-0.9 0.5-1.4 0.4v1.4c0.5-0.1 1 0.1 1.4 0.4-1.7 0.7-2.5 0.1-2.5-1.8h-1.1c0.1 0.8 0 1.5-0.3 2.2-0.4-1-0.5-1.9-0.4-2.9z"></path><path fill="#030d0f" d="m3.1 26.1h1v1.4h-1v-1.4z"></path><path fill="#037587" d="m19.3 25.4c1.9 0 2.5 0.9 1.8 2.7-2.2 0.2-2.8-0.7-1.8-2.7z"></path><path fill="#051012" d="m19.6 26.1h1.1v1.4h-1.1v-1.4z"></path><path fill="#057182" d="m8.8 25.4c1.6-0.4 2.3 0.2 2.2 1.8-2.2-0.1-2.3 0.2-0.4 0.9-2.1 0.2-2.7-0.7-1.8-2.7z"></path><path fill="#057284" d="m30.1 25.4c1.6-0.4 2.3 0.2 2.1 1.8-2.3 0-2.3 0.2 0 0.7-2.3 0.6-3-0.2-2.1-2.5z"></path><path fill="#037486" d="m16.4 25.4c2.1 0.1 2.2 0.4 0.3 0.9 1.3 0.1 1.7 0.8 1.5 2-0.8 0.1-1.5-0.1-2.2-0.4 0.5-0.3 0.9-0.5 1.5-0.5-1.4-0.2-1.7-0.9-1.1-2z"></path><path fill="#03788a" d="m21.8 25.4c0.6 0.5 0.9 1.2 0.7 2.1h1.1c-0.1-0.7 0-1.4 0.3-2.1 0.4 0.9 0.5 1.9 0.4 2.9-2.3 0.4-3.1-0.6-2.5-2.9z"></path><path fill="#05515d" d="m16 29c0.4 1.3 0.5 2.8 0.4 4.3-0.8 0.1-1.5 0-2.2-0.4h1.8v-3.9z"></path><path fill="#057284" d="m26.8 30.1c1.5-0.3 2.2 0.3 2.2 1.8-0.7-0.1-1.3 0-1.8 0.3 0.5 0.2 1 0.4 1.4 0.4-1.1 1-1.9 0.7-2.1-0.9 0.1-0.6 0.2-1.1 0.3-1.6z"></path><path fill="#03788b" d="m13.5 30.1v0.7h-1.1c0.1 0.7 0 1.5-0.3 2.1-0.4-0.9-0.5-1.9-0.4-2.8h1.8z"></path><path fill="#027f92" d="m5.6 25.4c2.2-0.5 3 0.3 2.3 2.5-0.5 0.3-1 0.4-1.6 0.4v1.8c0.6-0.1 1.1 0 1.6 0.3 0.3 0.9 0.3 1.7-0.2 2.5-0.3-0.6-0.4-1.4-0.3-2.1h-1.1c0.1 0.7 0 1.5-0.4 2.1-0.3-2.5-0.4-5-0.3-7.5z"></path><path fill="#020b0d" d="m6.3 26.1h1.1v1.4h-1.1v-1.4z"></path><path fill="#042e35" d="m13.5 30.1h0.7c-0.3 0.8-0.4 1.6-0.3 2.5-0.4-0.5-0.5-1.1-0.4-1.8v-0.7z"></path><path fill="#028397" d="m16 29v3.9h-1.8c-0.2 0-0.3-0.1-0.3-0.3-0.1-0.9 0-1.7 0.3-2.5h1.5c-0.1-0.5 0-0.9 0.3-1.1z"></path><path fill="#091719" d="m14.6 30.8h1.1c0.1 0.8-0.1 1.4-0.8 1.8-0.3-0.6-0.4-1.2-0.3-1.8z"></path><path fill="#037b8e" d="m21.4 30.1c0.7-0.1 1.4 0 2 0.3 0.2 0.9 0.2 1.7 0.2 2.5h-2.5c-0.3-1.4 0.3-2 1.8-1.9-0.7-0.1-1.2-0.4-1.5-0.9z"></path><path fill="#037c8f" d="m24.3 30.1c0.6-0.1 1.2 0 1.8 0.3-0.3 0.3-0.7 0.5-1.1 0.4 0.1 0.7 0 1.5-0.3 2.1-0.4-0.9-0.5-1.9-0.4-2.8z"></path><path fill="#047283" d="m8.8 30.1c0.7-0.1 1.4 0 2 0.3 0.2 0.9 0.2 1.7 0.2 2.5h-2.5c-0.3-1.4 0.3-2 1.8-1.9-0.7-0.1-1.2-0.4-1.5-0.9z"></path><path fill="#047182" d="m16.7 30.1c0.6 0.1 1 0.5 1.3 1 0.1-0.5 0.4-0.8 0.9-1 0.7 1.8 1.1 1.8 1.1 0 0.4-0.1 0.8 0 1.1 0.3-0.6 0.8-0.8 1.6-0.8 2.5h-1c0-0.5-0.2-1-0.6-1.4-0.2 0.5-0.5 1-0.9 1.4-0.7-0.8-1-1.7-1.1-2.8z"></path><path fill="#071f23" d="m9.2 31.9c0.4-0.1 0.8 0 1.1 0.3-0.6 0.5-1 0.4-1.1-0.3z"></path><path fill="#071d23" d="m21.8 31.9c0.4-0.1 0.8 0 1.1 0.3-0.6 0.5-1 0.4-1.1-0.3z"></path></svg>