<svg xmlns="http://www.w3.org/2000/svg" width="256" height="256" viewBox="0 0 256 256" version="1.1">
	<path fill-opacity="0.263" d="M 73.132 33.921 C 44.329 50.375, 20.424 64.211, 20.009 64.668 C 19.595 65.126, 18.971 93.191, 18.624 127.035 L 17.992 188.569 31.746 196.634 C 122.187 249.668, 125.078 251.287, 127.314 250.190 C 128.516 249.601, 152.675 235.885, 181 219.711 L 232.500 190.303 233.239 128.441 C 233.646 94.416, 233.646 66.267, 233.239 65.887 C 231.636 64.388, 127.520 4, 126.543 4.003 C 125.969 4.004, 101.934 17.468, 73.132 33.921 M 90.728 59.772 L 76.983 73.543 77.241 128.522 L 77.500 183.500 90.850 170.482 L 104.200 157.464 104.752 101.732 C 105.056 71.079, 105.118 46, 104.889 46 C 104.660 46, 98.288 52.197, 90.728 59.772 M 97.035 176.465 C 89.644 183.871, 83.840 190.173, 84.136 190.469 C 84.432 190.765, 103.389 190.708, 126.262 190.342 L 167.850 189.677 181.161 176.339 L 194.472 163 152.472 163 L 110.472 163 97.035 176.465" stroke="none" fill="black" fill-rule="evenodd"/>
	<path fill-opacity="0.324" d="M 120.125 7.339 C 117.168 9.078, 93.318 22.723, 67.125 37.662 L 19.500 64.823 19 126.162 C 18.673 166.333, 18.845 187.909, 19.500 188.684 C 20.050 189.335, 44.084 203.633, 72.908 220.457 L 125.317 251.046 179.166 220.359 L 233.015 189.673 232.758 127.621 L 232.500 65.569 180 34.824 C 151.125 17.914, 127.050 4.101, 126.500 4.129 C 125.950 4.156, 123.081 5.601, 120.125 7.339 M 90.710 59.328 L 76.920 72.500 76.960 128.496 L 77 184.491 91.009 170.483 L 105.017 156.474 104.759 101.315 L 104.500 46.156 90.710 59.328 M 96.500 177 L 82.527 191 125.027 191 L 167.527 191 181.500 177 L 195.473 163 152.973 163 L 110.473 163 96.500 177" stroke="none" fill="black" fill-rule="evenodd"/>
	<path fill-opacity="0.473" d="M 73.489 34.384 L 20.500 64.571 19.849 73.036 C 19.491 77.691, 19.154 105.595, 19.099 135.045 L 19 188.589 71.608 219.331 C 100.542 236.238, 124.553 250.168, 124.966 250.286 C 125.378 250.404, 149.588 236.883, 178.765 220.241 L 231.815 189.981 232.462 180.741 C 232.818 175.658, 232.972 147.740, 232.804 118.700 L 232.500 65.900 182 36.363 C 154.225 20.118, 130.370 6.235, 128.989 5.511 C 126.613 4.266, 123.654 5.805, 73.489 34.384 M 90.741 58.758 L 76.983 72.543 77.241 128.154 L 77.500 183.765 91.285 170.633 L 105.070 157.500 104.785 101.236 L 104.500 44.973 90.741 58.758 M 96.737 175.763 C 89.181 183.333, 83 189.858, 83 190.263 C 83 190.668, 102.019 191, 125.263 191 L 167.527 191 181.263 177.237 C 188.819 169.667, 195 163.142, 195 162.737 C 195 162.332, 175.981 162, 152.737 162 L 110.473 162 96.737 175.763" stroke="none" fill="black" fill-rule="evenodd"/>
	<path fill-opacity="0.119" d="M 131 7.586 C 131 8.269, 133.882 13.570, 141.553 27 C 143.909 31.125, 147.111 36.807, 148.669 39.626 C 162.684 64.999, 179.723 94.309, 180.680 94.690 C 181.329 94.949, 193.142 88.850, 206.930 81.138 C 220.719 73.425, 232 67.334, 232 67.601 C 232 68.070, 208.125 109.730, 201.398 121 L 198.115 126.500 200.405 130.500 C 201.665 132.700, 209.125 145.877, 216.983 159.782 C 224.841 173.687, 231.378 184.937, 231.511 184.782 C 231.644 184.627, 232.069 157.950, 232.455 125.500 L 233.156 66.500 198.828 46.535 C 179.948 35.554, 159.100 23.384, 152.500 19.490 C 133.117 8.053, 131 6.881, 131 7.586 M 19.663 99.750 C 19.300 118.313, 19.002 145.355, 19.002 159.845 L 19 186.191 24.750 182.941 C 27.913 181.153, 32.525 178.581, 35 177.224 C 37.475 175.866, 45.350 171.481, 52.500 167.478 C 59.650 163.476, 67.877 158.892, 70.783 157.292 L 76.066 154.384 76.066 126.065 L 76.066 97.746 67.283 92.768 C 55.360 86.011, 52.768 84.520, 35.692 74.601 C 27.548 69.871, 20.758 66, 20.604 66 C 20.450 66, 20.027 81.188, 19.663 99.750 M 105 126.559 L 105 138.118 112.835 133.809 C 127.050 125.991, 126.787 127.236, 115.603 120.688 C 110.259 117.560, 105.688 115, 105.444 115 C 105.200 115, 105 120.201, 105 126.559 M 179.003 159.994 C 178.011 161.848, 178.236 162, 181.965 162 C 184.184 162, 186 161.787, 186 161.526 C 186 161.265, 184.667 160.362, 183.038 159.520 C 180.263 158.085, 180.009 158.115, 179.003 159.994 M 180.500 178.507 C 169.151 190.253, 168.283 190.930, 164.500 190.986 L 160.500 191.044 152.500 205.166 C 148.100 212.933, 143.549 220.910, 142.386 222.894 C 133.382 238.251, 127.851 248.180, 128.148 248.454 C 128.342 248.632, 134.125 245.528, 141 241.557 C 147.875 237.585, 171.170 224.270, 192.767 211.968 C 214.363 199.666, 231.880 189.139, 231.692 188.576 C 231.313 187.438, 195.086 166.116, 193.500 166.098 C 192.950 166.091, 187.100 171.675, 180.500 178.507" stroke="none" fill="black" fill-rule="evenodd"/>
</svg>