<?xml version="1.0" encoding="UTF-8"?>
<!DOCTYPE svg PUBLIC "-//W3C//DTD SVG 1.1//EN" "http://www.w3.org/Graphics/SVG/1.1/DTD/svg11.dtd">
<svg xmlns="http://www.w3.org/2000/svg" version="1.1" width="256px" height="256px" style="shape-rendering:geometricPrecision; text-rendering:geometricPrecision; image-rendering:optimizeQuality; fill-rule:evenodd; clip-rule:evenodd" xmlns:xlink="http://www.w3.org/1999/xlink">
<g><path style="opacity:0.999" fill="#1c6dfe" d="M 130.5,2.5 C 129.167,2.5 127.833,2.5 126.5,2.5C 126.186,15.9125 126.519,29.2459 127.5,42.5C 124.807,43.8466 122.14,45.1799 119.5,46.5C 118.17,40.3693 117.503,33.8693 117.5,27C 117.667,20.5 117.833,14 118,7.5C 119.518,6.83663 120.685,5.83663 121.5,4.5C 123.239,2.61817 125.406,1.28483 128,0.5C 129.301,0.63874 130.134,1.30541 130.5,2.5 Z"/></g>
<g><path style="opacity:1" fill="#1a73fe" d="M 130.5,2.5 C 134.117,3.64174 137.45,5.30841 140.5,7.5C 141.465,21.4512 141.799,35.4512 141.5,49.5C 136.833,47.1667 132.167,44.8333 127.5,42.5C 126.519,29.2459 126.186,15.9125 126.5,2.5C 127.833,2.5 129.167,2.5 130.5,2.5 Z"/></g>
<g><path style="opacity:0.979" fill="#2064fd" d="M 121.5,4.5 C 120.685,5.83663 119.518,6.83663 118,7.5C 117.833,14 117.667,20.5 117.5,27C 117.503,33.8693 118.17,40.3693 119.5,46.5C 97.8344,59.6687 75.8344,72.3354 53.5,84.5C 52.609,83.8902 51.609,83.5569 50.5,83.5C 48.178,81.336 45.5113,79.6693 42.5,78.5C 40.3374,76.9172 38.0041,75.5839 35.5,74.5C 34.1007,73.1103 32.4341,72.1103 30.5,71.5C 27.1515,69.066 23.6515,66.7327 20,64.5C 19.5,106.832 19.3333,149.165 19.5,191.5C 18.3353,149.002 18.1686,106.335 19,63.5C 52.9766,43.4307 87.1433,23.764 121.5,4.5 Z"/></g>
<g><path style="opacity:0.996" fill="#1a79fe" d="M 140.5,7.5 C 144.372,9.59743 148.039,11.9308 151.5,14.5C 151.189,27.7983 150.189,40.7983 148.5,53.5C 145.996,52.4161 143.663,51.0828 141.5,49.5C 141.799,35.4512 141.465,21.4512 140.5,7.5 Z"/></g>
<g><path style="opacity:0.999" fill="#1a7ffe" d="M 151.5,14.5 C 155.335,16.2495 159.001,18.2495 162.5,20.5C 161.519,34.0877 161.185,47.7544 161.5,61.5C 156.963,59.0699 152.63,56.4032 148.5,53.5C 150.189,40.7983 151.189,27.7983 151.5,14.5 Z"/></g>
<g><path style="opacity:1" fill="#1985fe" d="M 162.5,20.5 C 167.446,22.8026 172.113,25.4693 176.5,28.5C 175.167,41.5 173.833,54.5 172.5,67.5C 168.7,65.7664 165.034,63.7664 161.5,61.5C 161.185,47.7544 161.519,34.0877 162.5,20.5 Z"/></g>
<g><path style="opacity:0.999" fill="#198efe" d="M 176.5,28.5 C 196.864,39.6769 216.864,51.3436 236.5,63.5C 236.631,64.3764 236.298,65.0431 235.5,65.5C 231.405,67.8736 227.405,70.2069 223.5,72.5C 215.92,76.1118 208.92,80.4451 202.5,85.5C 202.167,85.5 201.833,85.5 201.5,85.5C 192.001,79.2495 182.334,73.2495 172.5,67.5C 173.833,54.5 175.167,41.5 176.5,28.5 Z"/></g>
<g><path style="opacity:1" fill="#271aca" d="M 30.5,71.5 C 30.0954,72.5498 29.4288,72.5498 28.5,71.5C 27.8333,112.998 27.1667,154.331 26.5,195.5C 23.6689,194.921 21.3356,193.588 19.5,191.5C 19.3333,149.165 19.5,106.832 20,64.5C 23.6515,66.7327 27.1515,69.066 30.5,71.5 Z"/></g>
<g><path style="opacity:0.995" fill="#14aefe" d="M 236.5,63.5 C 237.833,106.167 237.833,148.833 236.5,191.5C 236.5,170.833 236.5,150.167 236.5,129.5C 236.5,124.5 236.5,119.5 236.5,114.5C 236.5,110.167 236.5,105.833 236.5,101.5C 236.5,97.1667 236.5,92.8333 236.5,88.5C 236.666,83.4889 236.499,78.4889 236,73.5C 235.667,76.8333 235.333,80.1667 235,83.5C 224.278,97.8895 213.944,112.556 204,127.5C 203.667,127.167 203.333,126.833 203,126.5C 202.502,129.482 202.335,132.482 202.5,135.5C 202.167,135.5 201.833,135.5 201.5,135.5C 201.5,118.833 201.5,102.167 201.5,85.5C 201.833,85.5 202.167,85.5 202.5,85.5C 202.149,91.2617 202.649,96.9284 204,102.5C 211.199,92.6431 218.365,82.8098 225.5,73C 224.906,72.5357 224.239,72.369 223.5,72.5C 227.405,70.2069 231.405,67.8736 235.5,65.5C 236.298,65.0431 236.631,64.3764 236.5,63.5 Z"/></g>
<g><path style="opacity:1" fill="#281bd3" d="M 30.5,71.5 C 32.4341,72.1103 34.1007,73.1103 35.5,74.5C 34.5059,116.428 34.1726,158.428 34.5,200.5C 31.4887,199.331 28.822,197.664 26.5,195.5C 27.1667,154.331 27.8333,112.998 28.5,71.5C 29.4288,72.5498 30.0954,72.5498 30.5,71.5 Z"/></g>
<g><path style="opacity:0.988" fill="#00b7fc" d="M 223.5,72.5 C 224.239,72.369 224.906,72.5357 225.5,73C 218.365,82.8098 211.199,92.6431 204,102.5C 202.649,96.9284 202.149,91.2617 202.5,85.5C 208.92,80.4451 215.92,76.1118 223.5,72.5 Z"/></g>
<g><path style="opacity:0.996" fill="#00a5fd" d="M 236.5,88.5 C 235.677,91.977 235.177,95.6437 235,99.5C 224.299,113.874 213.965,128.541 204,143.5C 203.617,142.944 203.117,142.611 202.5,142.5C 202.5,140.167 202.5,137.833 202.5,135.5C 202.335,132.482 202.502,129.482 203,126.5C 203.333,126.833 203.667,127.167 204,127.5C 213.944,112.556 224.278,97.8895 235,83.5C 235.333,80.1667 235.667,76.8333 236,73.5C 236.499,78.4889 236.666,83.4889 236.5,88.5 Z"/></g>
<g><path style="opacity:1" fill="#281bdd" d="M 35.5,74.5 C 38.0041,75.5839 40.3374,76.9172 42.5,78.5C 41.5059,120.428 41.1726,162.428 41.5,204.5C 38.9959,203.416 36.6626,202.083 34.5,200.5C 34.1726,158.428 34.5059,116.428 35.5,74.5 Z"/></g>
<g><path style="opacity:1" fill="#281be5" d="M 42.5,78.5 C 45.5113,79.6693 48.178,81.336 50.5,83.5C 48.5055,124.82 47.8389,166.487 48.5,208.5C 45.9959,207.416 43.6626,206.083 41.5,204.5C 41.1726,162.428 41.5059,120.428 42.5,78.5 Z"/></g>
<g><path style="opacity:0.951" fill="#281bed" d="M 50.5,83.5 C 51.609,83.5569 52.609,83.8902 53.5,84.5C 53.5,84.8333 53.5,85.1667 53.5,85.5C 54.1611,127.513 53.4945,169.18 51.5,210.5C 50.2905,210.068 49.2905,209.401 48.5,208.5C 47.8389,166.487 48.5055,124.82 50.5,83.5 Z"/></g>
<g><path style="opacity:0.012" fill="#2139f1" d="M 53.5,85.5 C 54.4987,127.33 54.832,169.33 54.5,211.5C 53.209,211.737 52.209,211.404 51.5,210.5C 53.4945,169.18 54.1611,127.513 53.5,85.5 Z"/></g>
<g><path style="opacity:0.996" fill="#009ffe" d="M 236.5,88.5 C 236.5,92.8333 236.5,97.1667 236.5,101.5C 235.677,104.977 235.177,108.644 235,112.5C 224.667,127.167 214.333,141.833 204,156.5C 202.563,152.028 202.063,147.361 202.5,142.5C 203.117,142.611 203.617,142.944 204,143.5C 213.965,128.541 224.299,113.874 235,99.5C 235.177,95.6437 235.677,91.977 236.5,88.5 Z"/></g>
<g><path style="opacity:1" fill="#ff6b38" d="M 133.5,92.5 C 132.178,92.67 131.011,92.3366 130,91.5C 133.652,100.696 138.485,109.362 144.5,117.5C 141.76,119.56 138.76,121.226 135.5,122.5C 134.542,122.047 133.708,121.381 133,120.5C 128.247,112.662 123.747,104.662 119.5,96.5C 119.043,95.7025 118.376,95.3691 117.5,95.5C 120.546,92.8882 124.046,90.8882 128,89.5C 130.12,90.1402 131.954,91.1402 133.5,92.5 Z"/></g>
<g><path style="opacity:0.993" fill="#ff7836" d="M 117.5,95.5 C 118.376,95.3691 119.043,95.7025 119.5,96.5C 123.747,104.662 128.247,112.662 133,120.5C 133.708,121.381 134.542,122.047 135.5,122.5C 133.565,123.81 131.565,125.143 129.5,126.5C 128.501,136.812 128.168,147.145 128.5,157.5C 128.198,160.059 128.532,162.393 129.5,164.5C 129.158,165.338 128.492,165.672 127.5,165.5C 127.5,163.167 127.5,160.833 127.5,158.5C 127.832,147.813 127.499,137.146 126.5,126.5C 125.261,126.058 124.261,125.391 123.5,124.5C 123.938,124.565 124.272,124.399 124.5,124C 119.629,116.717 115.129,109.217 111,101.5C 110.014,100.829 108.847,100.829 107.5,101.5C 110.494,99.0002 113.827,97.0002 117.5,95.5 Z"/></g>
<g><path style="opacity:0.998" fill="#ff5c3a" d="M 133.5,92.5 C 143.382,97.4072 152.715,103.074 161.5,109.5C 161.167,109.5 160.833,109.5 160.5,109.5C 155.68,111.074 151.347,113.407 147.5,116.5C 146.609,117.11 145.609,117.443 144.5,117.5C 138.485,109.362 133.652,100.696 130,91.5C 131.011,92.3366 132.178,92.67 133.5,92.5 Z"/></g>
<g><path style="opacity:0.994" fill="#ff8435" d="M 123.5,124.5 C 115.5,120.167 107.5,115.833 99.5,111.5C 97.7706,110.764 96.7706,109.43 96.5,107.5C 99.678,104.742 103.345,102.742 107.5,101.5C 108.847,100.829 110.014,100.829 111,101.5C 115.129,109.217 119.629,116.717 124.5,124C 124.272,124.399 123.938,124.565 123.5,124.5 Z"/></g>
<g><path style="opacity:0.976" fill="#ff5f31" d="M 96.5,107.5 C 96.7706,109.43 97.7706,110.764 99.5,111.5C 99.0618,111.435 98.7284,111.601 98.5,112C 107.405,126.318 115.905,140.818 124,155.5C 124.759,157.063 125.926,158.063 127.5,158.5C 127.5,160.833 127.5,163.167 127.5,165.5C 116.861,159.512 106.194,153.512 95.5,147.5C 95.1667,140.833 94.8333,134.167 94.5,127.5C 94.5032,120.465 95.1699,113.798 96.5,107.5 Z"/></g>
<g><path style="opacity:0.999" fill="#ff7e34" d="M 160.5,109.5 C 160.833,109.5 161.167,109.5 161.5,109.5C 161.5,115.833 161.5,122.167 161.5,128.5C 160.683,126.031 160.183,123.365 160,120.5C 152.902,133.707 145.735,146.707 138.5,159.5C 135.992,161.924 132.992,163.59 129.5,164.5C 131.8,157.902 134.634,151.568 138,145.5C 144.6,134.631 150.933,123.631 157,112.5C 158.518,111.837 159.685,110.837 160.5,109.5 Z"/></g>
<g><path style="opacity:1" fill="#ff8834" d="M 160.5,109.5 C 159.685,110.837 158.518,111.837 157,112.5C 150.933,123.631 144.6,134.631 138,145.5C 134.634,151.568 131.8,157.902 129.5,164.5C 128.532,162.393 128.198,160.059 128.5,157.5C 129.309,155.708 129.809,153.708 130,151.5C 136.88,140.243 143.38,128.743 149.5,117C 148.906,116.536 148.239,116.369 147.5,116.5C 151.347,113.407 155.68,111.074 160.5,109.5 Z"/></g>
<g><path style="opacity:1" fill="#0093fe" d="M 236.5,114.5 C 236.5,119.5 236.5,124.5 236.5,129.5C 236.558,136.301 234.724,142.634 231,148.5C 213.568,171.724 196.901,195.39 181,219.5C 178.032,223.174 174.866,226.507 171.5,229.5C 167.299,232.1 162.966,234.434 158.5,236.5C 183.201,199.485 208.701,162.818 235,126.5C 235.176,122.312 235.676,118.312 236.5,114.5 Z"/></g>
<g><path style="opacity:1" fill="#ff9734" d="M 147.5,116.5 C 148.239,116.369 148.906,116.536 149.5,117C 143.38,128.743 136.88,140.243 130,151.5C 129.809,153.708 129.309,155.708 128.5,157.5C 128.168,147.145 128.501,136.812 129.5,126.5C 131.565,125.143 133.565,123.81 135.5,122.5C 138.76,121.226 141.76,119.56 144.5,117.5C 145.609,117.443 146.609,117.11 147.5,116.5 Z"/></g>
<g><path style="opacity:1" fill="#ff5136" d="M 99.5,111.5 C 107.5,115.833 115.5,120.167 123.5,124.5C 124.261,125.391 125.261,126.058 126.5,126.5C 127.499,137.146 127.832,147.813 127.5,158.5C 125.926,158.063 124.759,157.063 124,155.5C 115.905,140.818 107.405,126.318 98.5,112C 98.7284,111.601 99.0618,111.435 99.5,111.5 Z"/></g>
<g><path style="opacity:1" fill="#ff6833" d="M 161.5,128.5 C 161.83,134.868 161.496,141.202 160.5,147.5C 153.113,151.525 145.779,155.525 138.5,159.5C 145.735,146.707 152.902,133.707 160,120.5C 160.183,123.365 160.683,126.031 161.5,128.5 Z"/></g>
<g><path style="opacity:1" fill="#0189fe" d="M 236.5,129.5 C 236.5,150.167 236.5,170.833 236.5,191.5C 215.033,204.404 193.366,217.071 171.5,229.5C 174.866,226.507 178.032,223.174 181,219.5C 196.901,195.39 213.568,171.724 231,148.5C 234.724,142.634 236.558,136.301 236.5,129.5 Z"/></g>
<g><path style="opacity:0.997" fill="#0198fe" d="M 236.5,101.5 C 236.5,105.833 236.5,110.167 236.5,114.5C 235.676,118.312 235.176,122.312 235,126.5C 208.701,162.818 183.201,199.485 158.5,236.5C 153.784,239.863 148.784,242.863 143.5,245.5C 143.389,244.883 143.056,244.383 142.5,244C 157.152,223.044 171.819,202.044 186.5,181C 185.906,180.536 185.239,180.369 184.5,180.5C 189.853,177.067 195.353,173.733 201,170.5C 201.5,158.838 201.667,147.171 201.5,135.5C 201.833,135.5 202.167,135.5 202.5,135.5C 202.5,137.833 202.5,140.167 202.5,142.5C 202.063,147.361 202.563,152.028 204,156.5C 214.333,141.833 224.667,127.167 235,112.5C 235.177,108.644 235.677,104.977 236.5,101.5 Z"/></g>
<g><path style="opacity:0.995" fill="#019efe" d="M 184.5,180.5 C 185.239,180.369 185.906,180.536 186.5,181C 171.819,202.044 157.152,223.044 142.5,244C 143.056,244.383 143.389,244.883 143.5,245.5C 139.864,248.323 135.864,250.656 131.5,252.5C 130.833,252.5 130.167,252.5 129.5,252.5C 129.5,250.833 129.5,249.167 129.5,247.5C 143.274,228.87 156.941,210.036 170.5,191C 169.552,190.517 168.552,190.351 167.5,190.5C 172.967,186.929 178.633,183.596 184.5,180.5 Z"/></g>
<g><path style="opacity:0.997" fill="#00a4fd" d="M 167.5,190.5 C 168.552,190.351 169.552,190.517 170.5,191C 156.941,210.036 143.274,228.87 129.5,247.5C 129.172,242.125 129.505,236.792 130.5,231.5C 137.365,221.616 144.365,211.783 151.5,202C 150.584,201.722 149.918,201.222 149.5,200.5C 155.527,197.155 161.527,193.821 167.5,190.5 Z"/></g>
<g><path style="opacity:0.993" fill="#1c41ed" d="M 127.5,212.5 C 127.5,226.5 127.5,240.5 127.5,254.5C 116.448,248.557 105.615,242.223 95,235.5C 94.1673,221.821 94.3339,208.154 95.5,194.5C 106.194,200.512 116.861,206.512 127.5,212.5 Z"/></g>
<g><path style="opacity:0.999" fill="#02abfd" d="M 149.5,200.5 C 149.918,201.222 150.584,201.722 151.5,202C 144.365,211.783 137.365,221.616 130.5,231.5C 129.505,236.792 129.172,242.125 129.5,247.5C 129.5,249.167 129.5,250.833 129.5,252.5C 128.179,239.265 128.179,225.931 129.5,212.5C 135.882,208.137 142.549,204.137 149.5,200.5 Z"/></g>
<g><path style="opacity:1" fill="#127ef7" d="M 127.5,212.5 C 128.167,212.5 128.833,212.5 129.5,212.5C 128.179,225.931 128.179,239.265 129.5,252.5C 130.167,252.5 130.833,252.5 131.5,252.5C 130.486,253.674 129.153,254.34 127.5,254.5C 127.5,240.5 127.5,226.5 127.5,212.5 Z"/></g>
</svg>
