<?xml version="1.0"?><svg xmlns="http://www.w3.org/2000/svg" width="36" height="36" shape-rendering="geometricPrecision" text-rendering="geometricPrecision" image-rendering="optimizeQuality" fill-rule="evenodd" clip-rule="evenodd" viewBox="0 0 36 36"><path fill="#1c6dfe" d="m18.4 0.4h-0.6c-0.1 1.8 0 3.7 0.1 5.6l-1.1 0.5c-0.2-0.8-0.3-1.7-0.3-2.7l0.1-2.7c0.2-0.1 0.4-0.3 0.5-0.5 0.2-0.2 0.5-0.4 0.9-0.5 0.2 0 0.3 0.1 0.4 0.3z" opacity=".999"></path><path fill="#1a73fe" d="m18.4 0.4c0.5 0.1 0.9 0.3 1.4 0.7 0.1 1.9 0.1 3.9 0.1 5.9l-2-1c-0.1-1.9-0.2-3.8-0.1-5.6h0.6z"></path><path fill="#2064fd" d="m17.1 0.6c-0.1 0.2-0.3 0.4-0.5 0.5l-0.1 2.7c0 1 0.1 1.9 0.3 2.7-3 1.9-6.1 3.7-9.3 5.4-0.1-0.1-0.2-0.1-0.4-0.2-0.3-0.3-0.7-0.5-1.1-0.7-0.3-0.2-0.7-0.4-1-0.5-0.2-0.2-0.4-0.4-0.7-0.4-0.5-0.4-1-0.7-1.5-1-0.1 5.9-0.1 11.9-0.1 17.8-0.1-5.9-0.1-11.9 0-18 4.7-2.8 9.6-5.6 14.4-8.3z" opacity=".979"></path><path fill="#1a79fe" d="m19.8 1.1c0.5 0.2 1 0.6 1.5 0.9 0 1.9-0.2 3.7-0.4 5.5-0.4-0.1-0.7-0.3-1-0.5 0-2 0-4-0.1-5.9z" opacity=".996"></path><path fill="#1a7ffe" d="m21.3 2c0.5 0.3 1.1 0.6 1.6 0.9-0.2 1.9-0.2 3.8-0.2 5.7-0.6-0.3-1.2-0.7-1.8-1.1 0.2-1.8 0.4-3.6 0.4-5.5z" opacity=".999"></path><path fill="#1985fe" d="m22.9 2.9c0.6 0.3 1.3 0.7 1.9 1.1l-0.5 5.5c-0.6-0.3-1.1-0.5-1.6-0.9 0-1.9 0-3.8 0.2-5.7z"></path><path fill="#198efe" d="m24.8 4c2.9 1.6 5.7 3.2 8.5 4.9 0 0.2-0.1 0.2-0.2 0.3-0.6 0.3-1.1 0.7-1.7 1-1 0.5-2 1.1-2.9 1.8h-0.2c-1.3-0.9-2.7-1.7-4-2.5l0.5-5.5z" opacity=".999"></path><path fill="#271aca" d="m4.3 10.1c-0.1 0.1-0.2 0.1-0.3 0-0.1 5.8-0.2 11.6-0.3 17.4-0.4-0.1-0.7-0.3-1-0.6 0-5.9 0-11.9 0.1-17.8 0.5 0.3 1 0.6 1.5 1z"></path><path fill="#14aefe" d="m33.3 8.9c0.1 6 0.1 12 0 18v-14.5c0-0.7 0-1.4-0.1-2.1l-0.2 1.4c-1.5 2.1-2.9 4.1-4.3 6.2l-0.2-0.1c0 0.4 0 0.8 0 1.3h-0.2v-7.1h0.2c-0.1 0.8 0 1.6 0.2 2.4 1-1.4 2-2.8 3-4.1-0.1-0.1-0.2-0.1-0.3-0.1 0.6-0.3 1.1-0.7 1.7-1 0.1-0.1 0.2-0.1 0.2-0.3z" opacity=".995"></path><path fill="#281bd3" d="m4.3 10.1c0.3 0 0.5 0.2 0.7 0.4-0.1 5.9-0.2 11.8-0.1 17.7-0.5-0.2-0.8-0.4-1.2-0.7 0.1-5.8 0.2-11.6 0.3-17.4 0.1 0.1 0.2 0.1 0.3 0z"></path><path fill="#00b7fc" d="m31.4 10.2c0.1 0 0.2 0 0.3 0.1-1 1.3-2 2.7-3 4.1-0.2-0.8-0.3-1.6-0.2-2.4 0.9-0.7 1.9-1.3 2.9-1.8z" opacity=".988"></path><path fill="#00a5fd" d="m33.3 12.4c-0.2 0.5-0.2 1-0.3 1.6-1.5 2-2.9 4.1-4.3 6.2-0.1-0.1-0.1-0.1-0.2-0.2v-0.9c0-0.5 0-0.9 0-1.3l0.2 0.1c1.4-2.1 2.8-4.1 4.3-6.2l0.2-1.4c0.1 0.7 0.1 1.4 0.1 2.1z" opacity=".996"></path><path fill="#281bdd" d="m5 10.5c0.3 0.1 0.7 0.3 1 0.5-0.2 5.9-0.2 11.8-0.2 17.8-0.3-0.2-0.6-0.4-0.9-0.6-0.1-5.9 0-11.8 0.1-17.7z"></path><path fill="#281be5" d="m6 11c0.4 0.2 0.8 0.4 1.1 0.7-0.3 5.9-0.4 11.7-0.3 17.6-0.3-0.1-0.7-0.3-1-0.5 0-6 0-11.9 0.2-17.8z"></path><path fill="#281bed" d="m7.1 11.7c0.2 0.1 0.3 0.1 0.4 0.2v0.1c0.1 5.9 0 11.8-0.3 17.6-0.1-0.1-0.3-0.2-0.4-0.3-0.1-5.9 0-11.7 0.3-17.6z" opacity=".951"></path><path fill="#2139f1" d="m7.5 12c0.2 5.9 0.2 11.8 0.2 17.7-0.2 0.1-0.4 0-0.5-0.1 0.3-5.8 0.4-11.7 0.3-17.6z" opacity=".012"></path><path fill="#009ffe" d="m33.3 12.4v1.9c-0.2 0.5-0.2 1-0.3 1.5l-4.3 6.2c-0.2-0.6-0.3-1.3-0.2-2 0.1 0.1 0.1 0.1 0.2 0.2 1.4-2.1 2.8-4.2 4.3-6.2 0.1-0.6 0.1-1.1 0.3-1.6z" opacity=".996"></path><path fill="#ff6b38" d="m18.8 13c-0.2 0-0.4 0-0.5-0.1 0.5 1.3 1.2 2.5 2 3.6-0.4 0.3-0.8 0.5-1.2 0.7-0.2 0-0.3-0.1-0.4-0.3-0.7-1.1-1.3-2.2-1.9-3.3-0.1-0.1-0.2-0.2-0.3-0.2 0.5-0.3 0.9-0.6 1.5-0.8 0.3 0.1 0.6 0.2 0.8 0.4z"></path><path fill="#ff7836" d="m16.5 13.4c0.1 0 0.2 0.1 0.3 0.2 0.6 1.1 1.2 2.2 1.9 3.3 0.1 0.2 0.2 0.3 0.4 0.3-0.3 0.2-0.6 0.4-0.9 0.6-0.1 1.4-0.2 2.9-0.1 4.3-0.1 0.4 0 0.7 0.1 1 0 0.2-0.1 0.2-0.3 0.2v-1c0.1-1.5 0-3-0.1-4.5-0.2-0.1-0.3-0.2-0.4-0.3 0 0 0.1 0 0.1-0.1-0.7-1-1.3-2-1.9-3.1-0.1-0.1-0.3-0.1-0.5 0 0.4-0.4 0.9-0.7 1.4-0.9z" opacity=".993"></path><path fill="#ff5c3a" d="m18.8 13c1.4 0.7 2.7 1.5 3.9 2.4h-0.1c-0.7 0.2-1.3 0.5-1.9 1-0.1 0.1-0.2 0.1-0.4 0.1-0.8-1.1-1.5-2.3-2-3.6 0.1 0.1 0.3 0.1 0.5 0.1z" opacity=".998"></path><path fill="#ff8435" d="m17.4 17.5l-3.4-1.8c-0.3-0.1-0.4-0.3-0.4-0.6 0.4-0.4 0.9-0.7 1.5-0.8 0.2-0.1 0.4-0.1 0.5 0 0.6 1.1 1.2 2.1 1.9 3.1 0 0.1-0.1 0.1-0.1 0.1z" opacity=".994"></path><path fill="#ff5f31" d="m13.6 15.1c0 0.3 0.1 0.5 0.4 0.6-0.1 0-0.1 0-0.1 0.1 1.2 2 2.4 4 3.5 6.1 0.1 0.2 0.3 0.3 0.5 0.4v1c-1.5-0.9-3-1.7-4.5-2.6l-0.1-2.8c0-1 0.1-1.9 0.3-2.8z" opacity=".976"></path><path fill="#ff7e34" d="m22.6 15.4h0.1v2.7c-0.1-0.4-0.2-0.8-0.2-1.2-1 1.9-2 3.7-3 5.5-0.4 0.4-0.8 0.6-1.3 0.7 0.3-0.9 0.7-1.8 1.2-2.6 0.9-1.6 1.8-3.1 2.7-4.7 0.2-0.1 0.4-0.2 0.5-0.4z" opacity=".999"></path><path fill="#ff8834" d="m22.6 15.4c-0.1 0.2-0.3 0.3-0.5 0.4-0.9 1.6-1.8 3.1-2.7 4.7-0.5 0.8-0.9 1.7-1.2 2.6-0.1-0.3-0.2-0.6-0.1-1 0.1-0.2 0.2-0.5 0.2-0.8 0.9-1.6 1.9-3.2 2.7-4.8-0.1-0.1-0.2-0.1-0.3-0.1 0.6-0.5 1.2-0.8 1.9-1z"></path><path fill="#0093fe" d="m33.3 16.1v2.1c0 1-0.3 1.9-0.8 2.7-2.5 3.2-4.8 6.6-7 10-0.5 0.5-0.9 1-1.4 1.4-0.6 0.3-1.2 0.7-1.8 1 3.5-5.2 7-10.4 10.7-15.5 0.1-0.6 0.1-1.2 0.3-1.7z"></path><path fill="#ff9734" d="m20.7 16.4c0.1 0 0.2 0 0.3 0.1-0.8 1.6-1.8 3.2-2.7 4.8 0 0.3-0.1 0.6-0.2 0.8-0.1-1.4 0-2.9 0.1-4.3 0.3-0.2 0.6-0.4 0.9-0.6 0.4-0.2 0.8-0.4 1.2-0.7 0.2 0 0.3 0 0.4-0.1z"></path><path fill="#ff5136" d="m14 15.7l3.4 1.8c0.1 0.1 0.2 0.2 0.4 0.3 0.1 1.5 0.2 3 0.1 4.5-0.2-0.1-0.4-0.2-0.5-0.4-1.1-2.1-2.3-4.1-3.5-6.1 0-0.1 0-0.1 0.1-0.1z"></path><path fill="#ff6833" d="m22.7 18.1c0.1 0.9 0 1.8-0.1 2.6-1.1 0.6-2.1 1.2-3.1 1.7 1-1.8 2-3.6 3-5.5 0 0.4 0.1 0.8 0.2 1.2z"></path><path fill="#0189fe" d="m33.3 18.2v8.7c-3.1 1.8-6.1 3.6-9.2 5.4 0.5-0.4 0.9-0.9 1.4-1.4 2.2-3.4 4.5-6.8 7-10 0.5-0.8 0.8-1.7 0.8-2.7z"></path><path fill="#0198fe" d="m33.3 14.3v1.8c-0.2 0.5-0.2 1.1-0.3 1.7-3.7 5.1-7.2 10.3-10.7 15.5-0.7 0.4-1.4 0.9-2.1 1.2 0-0.1-0.1-0.1-0.2-0.2 2.1-2.9 4.2-5.9 6.2-8.8-0.1-0.1-0.2-0.1-0.3-0.1 0.8-0.5 1.6-1 2.4-1.4 0-1.7 0.1-3.3 0-4.9h0.2v0.9c-0.1 0.7 0 1.4 0.2 2l4.3-6.2c0.1-0.5 0.1-1 0.3-1.5z" opacity=".997"></path><path fill="#019efe" d="m25.9 25.4c0.1 0 0.2 0 0.3 0.1-2 2.9-4.1 5.9-6.2 8.8 0.1 0.1 0.2 0.1 0.2 0.2-0.5 0.4-1.1 0.7-1.7 1h-0.3v-0.7c1.9-2.6 3.9-5.3 5.8-7.9-0.2-0.1-0.3-0.1-0.4-0.1 0.7-0.5 1.5-1 2.3-1.4z" opacity=".995"></path><path fill="#00a4fd" d="m23.6 26.8c0.1 0 0.2 0 0.4 0.1-1.9 2.6-3.9 5.3-5.8 7.9 0-0.8 0-1.5 0.2-2.2 0.9-1.4 1.9-2.8 2.9-4.2-0.1 0-0.2-0.1-0.3-0.2 0.9-0.5 1.7-0.9 2.6-1.4z" opacity=".997"></path><path fill="#1c41ed" d="m17.9 29.9v5.9c-1.5-0.8-3-1.7-4.5-2.7-0.2-1.9-0.1-3.8 0-5.7 1.5 0.8 3 1.6 4.5 2.5z" opacity=".993"></path><path fill="#02abfd" d="m21 28.2c0.1 0.1 0.2 0.2 0.3 0.2-1 1.4-2 2.8-2.9 4.2-0.2 0.7-0.2 1.4-0.2 2.2v0.7c-0.2-1.9-0.2-3.7 0-5.6 0.9-0.6 1.8-1.2 2.8-1.7z" opacity=".999"></path><path fill="#127ef7" d="m17.9 29.9h0.3c-0.2 1.9-0.2 3.7 0 5.6h0.3c-0.2 0.2-0.3 0.3-0.6 0.3v-5.9z"></path></svg>