<svg xmlns="http://www.w3.org/2000/svg" width="320" height="180" viewBox="0 0 320 180" version="1.1">
	<path fill-opacity="0.310" d="M 142.500 8.503 C 116.894 13.342, 95.868 29.275, 84.440 52.500 C 78.639 64.289, 76.898 71.135, 76.274 84.604 C 74.461 123.725, 99.122 156.944, 137.500 167.081 C 148.578 170.007, 165.404 170.010, 176.500 167.087 C 213.458 157.352, 238 125.660, 238 87.670 C 238 37.833, 191.460 -0.748, 142.500 8.503 M 148 11.878 C 148 12.360, 148.640 13.286, 149.421 13.935 C 150.588 14.903, 150.746 14.745, 150.305 13.057 C 149.779 11.047, 148 10.137, 148 11.878 M 158.675 11.658 C 157.948 12.386, 159.789 15, 161.029 15 C 161.460 15, 161.577 14.100, 161.290 13 C 160.755 10.955, 159.845 10.488, 158.675 11.658 M 131.479 14.392 C 129.792 15.625, 129.741 15.983, 131.030 17.536 C 132.366 19.146, 132.281 19.226, 129.992 18.520 C 128.621 18.097, 127.842 18.112, 128.259 18.552 C 128.677 18.992, 128.079 20.351, 126.931 21.573 L 124.844 23.795 128.563 29.398 C 132.040 34.634, 134 36.304, 134 34.029 C 134 33.494, 132.875 30.513, 131.500 27.404 C 130.125 24.295, 129 21.393, 129 20.955 C 129 20.517, 130.282 19.877, 131.849 19.533 C 134.169 19.024, 134.714 18.358, 134.782 15.954 C 134.876 12.654, 134.257 12.361, 131.479 14.392 M 154.507 13.989 C 154.157 14.555, 154.558 14.723, 155.448 14.382 C 157.180 13.717, 157.497 13, 156.059 13 C 155.541 13, 154.843 13.445, 154.507 13.989 M 173 13.941 C 173 14.459, 173.375 15.114, 173.833 15.397 C 174.292 15.680, 174.667 15.257, 174.667 14.456 C 174.667 13.655, 174.292 13, 173.833 13 C 173.375 13, 173 13.423, 173 13.941 M 177.460 15.125 C 176.535 18.041, 179.195 19.705, 180.245 16.867 C 181.040 14.717, 180.491 13, 179.008 13 C 178.528 13, 177.831 13.956, 177.460 15.125 M 145 15 C 145 15.550, 146.012 15.993, 147.250 15.985 C 149.069 15.972, 149.213 15.784, 148 15 C 146.061 13.747, 145 13.747, 145 15 M 157 22.500 C 157 26.625, 157.399 30, 157.887 30 C 158.374 30, 159.335 27.026, 160.020 23.392 C 161.064 17.861, 161.042 16.640, 159.884 15.907 C 157.310 14.277, 157 14.985, 157 22.500 M 171.667 17.667 C 170.530 18.804, 170.932 22.524, 172.410 24.546 C 173.735 26.358, 173.862 26.253, 174.509 22.802 C 175.379 18.167, 173.878 15.456, 171.667 17.667 M 118.741 19.429 C 114.946 20.783, 113.351 21.783, 109.251 25.375 C 107.201 27.172, 107.140 27.497, 108.559 29.065 C 110.020 30.679, 110.461 30.576, 115.749 27.392 C 118.847 25.527, 121.971 24, 122.691 24 C 123.479 24, 124 22.805, 124 21 C 124 17.612, 123.909 17.585, 118.741 19.429 M 142.241 20.986 C 141.558 22.079, 141 23.149, 141 23.363 C 141 23.778, 150.489 28, 151.421 28 C 152.410 28, 145.529 19.126, 144.491 19.062 C 143.935 19.028, 142.923 19.894, 142.241 20.986 M 128 32.728 C 128 33.811, 117.932 40.488, 116.750 40.190 C 116.338 40.085, 116 40.423, 116 40.941 C 116 43.162, 118.123 42.788, 122.756 39.748 C 125.480 37.962, 128.504 36.038, 129.475 35.473 C 131.096 34.530, 131.108 34.335, 129.621 33.100 C 128.729 32.360, 128 32.193, 128 32.728 M 106.635 35.278 C 105.044 36.441, 105.374 37.019, 110.318 41.737 C 113.304 44.587, 116.015 46.651, 116.343 46.324 C 116.799 45.867, 109.292 34, 108.546 34 C 108.456 34, 107.596 34.575, 106.635 35.278 M 97.441 37.439 C 95.634 38.778, 95.614 38.994, 97.154 40.557 C 99.212 42.647, 101 41.663, 101 38.441 C 101 35.639, 100.180 35.408, 97.441 37.439 M 144.698 40.096 C 138.563 41.539, 130.526 45.756, 125.850 49.984 L 121.500 53.918 125.168 53.959 C 129.844 54.011, 132 54.847, 132 56.607 C 132 57.629, 133.466 58, 137.500 58 C 142.591 58, 144.410 59.011, 142 60.500 C 140.322 61.537, 140.797 62.531, 146.500 69.912 C 149.525 73.827, 152 77.276, 152 77.577 C 152 77.878, 150.088 76.793, 147.750 75.166 C 145.412 73.539, 140.912 70.591, 137.750 68.616 L 132 65.025 132.160 69.762 C 132.283 73.414, 132.412 73.755, 132.723 71.250 C 132.945 69.463, 133.436 68.018, 133.813 68.039 C 134.191 68.060, 136.975 69.555, 140 71.359 C 145.364 74.560, 147.749 78, 144.604 78 C 143.280 78, 143.079 80.030, 143.186 92.345 C 143.254 100.234, 142.977 107.229, 142.569 107.888 C 142.161 108.548, 142.292 109.646, 142.859 110.330 C 143.617 111.243, 143.395 111.571, 142.018 111.571 C 140.989 111.571, 140.425 111.105, 140.765 110.536 C 141.106 109.966, 140.623 110.118, 139.692 110.872 C 137.391 112.739, 137.567 114.458, 140.250 116.307 L 142.500 117.859 140.094 117.272 C 136.670 116.437, 138.217 118.537, 142.815 120.965 C 147.637 123.512, 144.788 123.522, 139 120.979 C 134.581 119.037, 134.542 119.036, 136.799 120.951 L 139.099 122.901 134.813 122.384 L 130.527 121.867 132.934 124.430 C 136.314 128.027, 135.035 128.511, 130.406 125.385 C 126.902 123.020, 126.706 122.980, 128.500 124.996 C 129.600 126.233, 132.863 128.582, 135.750 130.218 C 141.860 133.678, 142.560 134.679, 137.346 132.500 C 135.337 131.661, 133.523 131.143, 133.316 131.351 C 133.109 131.558, 135.133 132.671, 137.814 133.825 C 143.103 136.100, 151.983 138.351, 152.728 137.605 C 153.615 136.718, 152.924 110.524, 151.989 109.589 C 151.401 109.001, 152.284 107.121, 154.345 104.574 C 156.942 101.364, 157.489 99.970, 156.921 98 C 156.330 95.952, 156.181 95.864, 156.100 97.510 C 156.045 98.616, 154.988 100.641, 153.750 102.010 C 152.512 103.380, 150.375 106.184, 149 108.243 C 147.625 110.302, 146.162 111.989, 145.750 111.993 C 145.338 111.997, 145 104.550, 145 95.445 L 145 78.890 149.726 79.195 C 153.587 79.444, 154.675 79.950, 155.672 81.958 L 156.892 84.415 157.881 81.813 C 158.425 80.381, 159.314 79.050, 159.857 78.855 C 161.027 78.434, 173 63.071, 173 61.990 C 173 61.580, 172.304 60.667, 171.453 59.961 C 170.312 59.014, 170.217 58.484, 171.092 57.943 C 171.882 57.455, 171.312 56.654, 169.389 55.547 C 166.725 54.015, 166.695 53.936, 169 54.540 C 170.375 54.900, 172.254 55.247, 173.177 55.311 C 174.099 55.376, 174.654 55.751, 174.410 56.145 C 174.167 56.539, 174.425 57.144, 174.984 57.490 C 175.543 57.835, 176 57.586, 176 56.937 C 176 56.089, 176.495 56.135, 177.750 57.097 C 179.439 58.393, 175.531 53.397, 173.500 51.664 C 172.929 51.177, 173.358 51.103, 174.500 51.492 C 175.600 51.866, 177.289 52.333, 178.254 52.529 C 179.218 52.726, 180.517 53.201, 181.139 53.586 C 181.762 53.971, 181.197 52.822, 179.885 51.033 C 178.573 49.243, 175.250 46.483, 172.500 44.899 C 165.926 41.112, 169.184 41.151, 176.398 44.947 C 179.479 46.567, 182 47.676, 182 47.411 C 182 47.146, 182.900 47.411, 184 48 C 187.963 50.121, 185.897 48.024, 181.464 45.426 C 171.544 39.613, 156.203 37.388, 144.698 40.096 M 156.295 47.261 C 155.782 47.942, 155.283 49.780, 155.185 51.345 C 155.054 53.434, 155.537 54.328, 157.003 54.711 C 158.294 55.049, 159 56.076, 159 57.617 C 159 60.509, 162.306 60.925, 164.026 58.250 C 165.097 56.583, 165.125 56.583, 164.607 58.250 C 164.272 59.326, 164.587 60, 165.424 60 C 169.529 60, 167.526 65.425, 160.294 73.894 L 157.396 77.288 154.228 73.288 L 151.061 69.289 153.617 69.778 C 155.841 70.203, 156.130 69.957, 155.837 67.893 C 155.399 64.807, 152.055 64.074, 151.315 66.902 C 150.999 68.110, 150.298 68.693, 149.636 68.297 C 148.377 67.542, 148.518 67.756, 153.924 74.782 C 156.728 78.427, 157.448 78.873, 158.764 77.782 C 161.026 75.906, 170 63.870, 170 62.713 C 170 61.728, 159.287 47.295, 157.936 46.460 C 157.546 46.219, 156.807 46.580, 156.295 47.261 M 152.860 51.750 C 149.689 55.579, 148.547 57.356, 149.703 56.662 C 150.981 55.895, 155.423 50, 154.723 50 C 154.496 50, 153.658 50.788, 152.860 51.750 M 118.297 57.584 C 115.832 61.044, 116.618 64.392, 119.360 62.116 C 120.664 61.034, 120.818 61.289, 120.479 63.963 C 120.264 65.669, 120.483 66.819, 120.968 66.520 C 121.452 66.221, 122.055 66.769, 122.308 67.738 C 122.561 68.707, 122.786 67.925, 122.807 66 C 122.829 64.075, 122.308 60.713, 121.649 58.528 L 120.452 54.557 118.297 57.584 M 146.872 59.692 C 145.708 61.128, 145.709 61.258, 146.880 60.553 C 147.839 59.975, 148.106 60.145, 147.755 61.111 C 147.477 61.875, 146.744 62.388, 146.125 62.250 C 144.277 61.839, 144.846 63.559, 147.233 65.595 C 148.555 66.723, 148.971 66.857, 148.254 65.923 C 147.234 64.595, 147.389 64.358, 149.240 64.423 C 152.211 64.527, 152.937 61.058, 150.098 60.315 C 148.957 60.017, 148.269 59.374, 148.570 58.886 C 149.520 57.349, 148.305 57.926, 146.872 59.692 M 155.364 71.493 C 155.018 72.396, 155.214 73.614, 155.800 74.200 C 157.324 75.724, 160.210 74.331, 159.812 72.265 C 159.369 69.963, 156.165 69.407, 155.364 71.493 M 165 77 C 164.175 77.533, 163.950 77.969, 164.500 77.969 C 165.050 77.969, 166.175 77.533, 167 77 C 167.825 76.467, 168.050 76.031, 167.500 76.031 C 166.950 76.031, 165.825 76.467, 165 77 M 156.232 91 C 156.232 92.925, 156.438 93.713, 156.689 92.750 C 156.941 91.787, 156.941 90.213, 156.689 89.250 C 156.438 88.287, 156.232 89.075, 156.232 91 M 166.652 102.325 C 165.494 103.498, 163.908 104.024, 162.402 103.737 C 159.722 103.224, 159.484 103.738, 161.296 106.119 C 162.185 107.286, 162.340 110.213, 161.851 116.619 C 161.479 121.503, 161.135 128.363, 161.087 131.861 L 161 138.223 164.750 137.562 C 171.150 136.435, 177.516 134.059, 182.355 130.990 C 186.597 128.299, 187 127.702, 187 124.104 C 187 119.575, 186.150 116.789, 184.988 117.507 C 184.547 117.780, 184.448 116.990, 184.767 115.751 C 185.302 113.673, 185.206 113.615, 183.510 115 C 181.794 116.401, 181.749 116.356, 182.836 114.316 C 183.476 113.114, 183.964 111.314, 183.921 110.316 C 183.875 109.266, 183.629 109.027, 183.338 109.750 C 182.402 112.070, 180.382 111.022, 179 107.499 C 178.244 105.574, 177.148 104.052, 176.563 104.118 C 172.251 104.602, 169.109 103.835, 168.820 102.228 C 168.518 100.555, 168.395 100.561, 166.652 102.325 M 135.158 110 C 135.158 111.375, 135.385 111.938, 135.662 111.250 C 135.940 110.563, 135.940 109.438, 135.662 108.750 C 135.385 108.063, 135.158 108.625, 135.158 110 M 190.267 122.081 C 189.589 123.889, 189.172 125.506, 189.340 125.674 C 189.508 125.842, 190.963 124.539, 192.573 122.778 C 194.183 121.017, 194.750 120.146, 193.834 120.841 C 192.447 121.894, 192.111 121.828, 191.834 120.450 C 191.615 119.366, 191.074 119.931, 190.267 122.081 M 169.054 139.189 C 166.609 139.614, 163.926 140.646, 163.090 141.481 C 161.732 142.840, 161.749 143.178, 163.256 144.685 C 164.836 146.264, 165.270 146.220, 170.220 143.974 C 173.124 142.657, 175.666 141.470, 175.869 141.337 C 176.072 141.204, 175.622 140.492, 174.869 139.755 C 173.874 138.781, 172.287 138.626, 169.054 139.189 M 141.552 140.725 C 141.222 141.584, 141.076 142.334, 141.226 142.393 C 141.377 142.452, 142.919 143.242, 144.653 144.148 C 147.790 145.787, 147.808 145.782, 148.315 143.148 C 148.930 139.944, 149.006 140.032, 145.212 139.552 C 143.099 139.285, 141.965 139.648, 141.552 140.725 M 160 146 C 160 146.550, 160.702 147, 161.559 147 C 162.416 147, 162.840 146.550, 162.500 146 C 162.160 145.450, 161.459 145, 160.941 145 C 160.423 145, 160 145.450, 160 146 M 171 154 C 170.175 154.533, 169.950 154.969, 170.500 154.969 C 171.050 154.969, 172.175 154.533, 173 154 C 173.825 153.467, 174.050 153.031, 173.500 153.031 C 172.950 153.031, 171.825 153.467, 171 154" stroke="none" fill="black" fill-rule="evenodd"/>
	<path fill-opacity="0.381" d="M 145.539 8.047 C 131.164 10.298, 116.178 17.061, 105 26.341 C 74.096 51.997, 66.955 97.886, 88.599 131.723 C 93.361 139.167, 102.922 149.099, 110.654 154.633 C 137.244 173.667, 175.147 173.919, 202.637 155.245 C 210.155 150.138, 221.567 138.121, 226.304 130.322 C 250.947 89.756, 235.267 36.809, 192.321 15.574 C 178.767 8.872, 159.780 5.817, 145.539 8.047 M 148.064 10.939 C 146.817 11.729, 146.817 12.076, 148.064 13.588 C 149.387 15.191, 149.323 15.233, 147.250 14.129 C 145.373 13.128, 145 13.184, 145 14.465 C 145 15.504, 145.969 16, 148 16 C 150.667 16, 151 15.667, 151 13 C 151 9.847, 150.426 9.444, 148.064 10.939 M 159.064 10.939 C 157.874 11.692, 157.853 12.117, 158.937 13.424 C 159.851 14.526, 159.898 15, 159.091 15 C 158.456 15, 157.699 14.380, 157.409 13.622 C 156.990 12.533, 156.372 12.481, 154.448 13.372 C 153.110 13.993, 152.012 14.838, 152.008 15.250 C 151.996 16.345, 153.779 16.167, 154.500 15 C 156.171 12.296, 157 14.783, 157 22.500 C 157 27.390, 157.417 31, 157.981 31 C 158.520 31, 159.175 29.988, 159.435 28.750 C 162.134 15.907, 162.708 9.986, 161.250 10.015 C 160.838 10.024, 159.854 10.439, 159.064 10.939 M 168.658 13.508 C 166.280 15.247, 166.611 16.279, 169.117 14.938 C 170.812 14.030, 171.558 14.133, 172.867 15.456 C 174.370 16.977, 174.371 17.059, 172.872 16.494 C 171.622 16.022, 171.128 16.647, 170.739 19.190 C 170.462 21.010, 170.650 23.019, 171.159 23.653 C 171.754 24.395, 171.623 24.974, 170.792 25.278 C 168.886 25.974, 170.918 27.735, 174.500 28.492 C 176.840 28.987, 177.135 28.893, 175.843 28.065 C 174.932 27.482, 174.342 26.216, 174.533 25.252 C 175.954 18.073, 176.020 17.941, 177.775 18.860 C 179.624 19.829, 183.372 18.825, 184.457 17.070 C 185.368 15.595, 183.692 15.722, 182.088 17.250 C 181.017 18.270, 180.901 18.085, 181.457 16.245 C 182.376 13.202, 179.275 11.904, 177.355 14.529 C 176.059 16.302, 176 16.291, 176 14.258 C 176 12.572, 175.414 12.150, 173.158 12.215 C 171.595 12.259, 169.570 12.841, 168.658 13.508 M 130.793 14.361 C 129.184 15.583, 129.184 15.760, 130.793 17.446 C 132.414 19.144, 132.392 19.179, 130.355 18.138 C 128.645 17.264, 127.935 17.381, 126.855 18.713 C 125.913 19.875, 125.881 20.155, 126.750 19.633 C 127.438 19.220, 128 19.332, 128 19.882 C 128 21.878, 126.128 21.978, 125.505 20.015 C 124.682 17.422, 121.982 17.458, 116.741 20.132 C 107.767 24.710, 105.061 28.146, 108.307 30.840 C 109.288 31.654, 110.790 31.088, 114.343 28.561 C 120.963 23.855, 123.923 23.260, 126.177 26.182 C 127.160 27.457, 127.753 29.086, 127.494 29.802 C 127.235 30.518, 127.437 30.848, 127.942 30.536 C 129.890 29.332, 129.783 31.712, 127.828 33.068 C 126.693 33.856, 124.021 35.737, 121.891 37.250 C 119.760 38.763, 117.323 40, 116.473 40 C 115.240 40, 115.144 40.401, 116 42 C 117.915 45.579, 116.390 44.113, 112.945 39.064 C 109.910 34.616, 106.579 32, 103.953 32 C 103.429 32, 103 32.450, 103 33 C 103 33.550, 104 34, 105.223 34 L 107.445 34 105.223 35.557 C 104 36.413, 103.007 37.650, 103.015 38.307 C 103.027 39.187, 103.238 39.173, 103.823 38.252 C 104.384 37.369, 105.971 38.419, 109.258 41.850 C 113.812 46.601, 113.869 46.742, 112.221 49.098 L 110.541 51.500 113.084 49.500 C 114.483 48.400, 117.045 45.883, 118.779 43.907 C 120.513 41.931, 123.976 39.231, 126.475 37.907 C 129.545 36.281, 130.853 35.014, 130.507 34 C 130.090 32.777, 130.226 32.793, 131.248 34.088 C 131.936 34.961, 133.026 35.498, 133.670 35.281 C 134.467 35.012, 133.910 32.632, 131.920 27.806 C 130.314 23.911, 129 20.562, 129 20.362 C 129 20.163, 130.092 20, 131.427 20 C 133.808 20, 138.634 15.301, 137.460 14.126 C 137.147 13.814, 136.473 14.220, 135.961 15.029 C 135.181 16.263, 135.028 16.218, 135.015 14.750 C 134.997 12.697, 133.200 12.532, 130.793 14.361 M 141.819 16.275 C 143.506 18.317, 141.717 22.212, 139.485 21.356 C 138.668 21.042, 138 21.040, 138 21.351 C 138 22.248, 146.529 27.005, 149.839 27.954 L 152.846 28.816 148.673 23.033 C 146.378 19.852, 143.600 16.671, 142.500 15.964 C 140.716 14.818, 140.643 14.852, 141.819 16.275 M 185.583 18.866 C 185.288 19.343, 185.937 20.538, 187.024 21.521 C 188.945 23.260, 189 23.236, 189 20.655 C 189 18.086, 186.782 16.925, 185.583 18.866 M 190.954 21.086 C 189.636 23.549, 189.502 23.376, 194.244 25.342 C 197.973 26.887, 197.992 26.882, 198.642 24.291 C 199.802 19.667, 193.189 16.910, 190.954 21.086 M 205.473 30.030 C 204.486 31.120, 203.942 32.276, 204.264 32.597 C 205.266 33.599, 209 31.938, 209 30.492 C 209 28.164, 207.356 27.949, 205.473 30.030 M 175.250 31.720 C 174.563 31.966, 174 32.642, 174 33.223 C 174 33.804, 173.213 34.877, 172.250 35.608 C 171.287 36.339, 170.984 36.951, 171.576 36.968 C 172.777 37.004, 177.580 32.217, 176.921 31.641 C 176.689 31.439, 175.938 31.475, 175.250 31.720 M 117.689 36.250 C 114.575 39.334, 114.563 39.373, 117.454 37.008 C 119.129 35.637, 120.927 34.175, 121.450 33.758 C 121.973 33.341, 122.078 33, 121.685 33 C 121.292 33, 119.494 34.462, 117.689 36.250 M 188 34.500 C 191.272 36.370, 193.045 36.348, 190.559 34.468 C 189.491 33.661, 187.916 33.016, 187.059 33.035 C 186.060 33.058, 186.398 33.584, 188 34.500 M 96.869 37.750 C 93.888 41.023, 93.741 43.409, 96.500 43.739 C 99.716 44.124, 102.877 40.806, 102.278 37.675 C 101.626 34.264, 100.024 34.286, 96.869 37.750 M 184 35.789 C 184 36.251, 185.606 37.396, 187.570 38.332 C 189.533 39.268, 190.854 39.573, 190.506 39.010 C 189.606 37.554, 184 34.779, 184 35.789 M 204.222 41.263 C 200.769 44.754, 198.242 47.909, 198.607 48.274 C 199.318 48.985, 210.156 41.747, 212.245 39.167 C 213.099 38.111, 213.124 37.842, 212.321 38.323 C 211.595 38.759, 211.020 38.241, 210.821 36.972 C 210.549 35.228, 209.546 35.880, 204.222 41.263 M 146.411 39.484 C 116.531 45.985, 99.659 78.228, 111.036 107.091 C 116.573 121.140, 129.618 132.657, 144.500 136.639 C 153.390 139.017, 153.762 138.841, 153.787 132.250 C 153.827 121.503, 153.653 122, 157.365 122 L 160.729 122 160.537 130 L 160.344 138 163.204 138 C 166.872 138, 177.478 134.449, 182 131.708 C 187.712 128.244, 196.851 119.005, 199.943 113.569 C 206.895 101.348, 208.427 84.330, 203.719 71.649 C 201.283 65.090, 195.273 55.006, 193.797 55.002 C 191.801 54.996, 191.004 64.857, 190.929 90.500 C 190.871 110.568, 190.486 119.491, 189.569 122 L 188.290 125.500 187.549 121 C 187.142 118.525, 185.706 113.256, 184.358 109.292 C 182.074 102.572, 181.928 100.929, 182.204 85.052 C 182.545 65.451, 183.600 66.708, 171.775 72.631 C 168.076 74.484, 164.787 76, 164.467 76 C 164.146 76, 165.855 73.412, 168.265 70.250 C 174.176 62.494, 174.351 62.128, 172.964 60.456 C 172.006 59.303, 172.041 58.971, 173.128 58.861 C 175.046 58.667, 179.168 58.300, 181.250 58.137 C 182.213 58.062, 183 57.340, 183 56.534 C 183 55.524, 184.610 54.855, 188.188 54.381 L 193.376 53.693 189.438 50.315 C 181.355 43.383, 166.270 37.852, 156.066 38.079 C 154.105 38.123, 149.760 38.755, 146.411 39.484 M 218.677 42.804 C 217.217 44.417, 217.121 45.170, 218.098 47.315 C 219.616 50.648, 222.101 51.583, 223.685 49.416 C 224.939 47.702, 224.575 46.410, 221.788 42.684 C 220.480 40.935, 220.365 40.940, 218.677 42.804 M 107.368 44.787 C 108.185 46.108, 105.370 48.356, 103.701 47.716 C 102.973 47.436, 101.347 47.984, 100.089 48.933 C 97.928 50.563, 97.896 50.753, 99.517 52.374 C 101.137 53.994, 101.423 53.865, 104.694 50.045 C 106.598 47.820, 108.641 46, 109.233 46 C 109.825 46, 109.453 47.013, 108.405 48.250 C 106.502 50.498, 106.502 50.499, 108.581 48.748 C 109.726 47.784, 111.035 47.334, 111.491 47.748 C 111.948 48.162, 111.998 47.940, 111.605 47.255 C 111.211 46.571, 109.959 45.513, 108.824 44.906 C 107.660 44.283, 107.025 44.231, 107.368 44.787 M 156 52.500 C 156 54.189, 156.458 55.014, 157.250 54.750 C 157.938 54.521, 158.500 53.508, 158.500 52.500 C 158.500 51.492, 157.938 50.479, 157.250 50.250 C 156.458 49.986, 156 50.811, 156 52.500 M 201.421 53.413 C 200.603 56.028, 200.670 57.431, 201.708 59.413 C 203.052 61.978, 206.329 62.896, 207.482 61.030 C 208.125 59.989, 204.176 50, 203.122 50 C 202.774 50, 202.009 51.536, 201.421 53.413 M 208.700 50.633 C 208.359 50.974, 208.827 52.659, 209.740 54.377 C 211.013 56.773, 211.486 57.097, 211.769 55.769 C 212.181 53.845, 209.677 49.656, 208.700 50.633 M 86.436 54.104 C 85.484 55.644, 86.494 56.188, 89.635 55.825 L 92.452 55.500 89.762 54.288 C 87.953 53.473, 86.863 53.413, 86.436 54.104 M 121.011 54.133 C 121.017 54.335, 121.718 56.750, 122.570 59.500 C 123.835 63.586, 124.077 69.528, 123.895 92 C 123.712 114.513, 123.943 120.135, 125.164 123 L 126.655 126.500 127.322 120.157 C 128.105 112.707, 131.218 105, 133.444 105 C 135.757 105, 135.765 80.528, 133.452 79.233 C 132.236 78.553, 131.969 76.861, 132.202 71.329 L 132.500 64.290 141.246 70.050 C 146.057 73.217, 149.657 75.268, 149.246 74.607 C 148.836 73.945, 146.533 70.838, 144.129 67.701 C 140.589 63.081, 139.985 61.723, 140.956 60.553 C 141.970 59.331, 141.338 59.063, 136.827 58.805 C 132.399 58.551, 131.550 58.205, 131.794 56.750 C 132.024 55.380, 131.372 54.997, 128.794 54.986 C 126.982 54.979, 124.487 54.701, 123.250 54.370 C 122.013 54.038, 121.005 53.932, 121.011 54.133 M 159.700 56.341 C 159.417 57.078, 159.575 58.312, 160.051 59.082 C 161.218 60.970, 163.508 58.766, 162.664 56.567 C 161.927 54.647, 160.394 54.530, 159.700 56.341 M 86.743 59.329 C 84.590 61.092, 84.251 61.851, 85.193 62.793 C 86.879 64.479, 88.052 64.299, 87.347 62.463 C 87.023 61.617, 87.557 60.042, 88.534 58.963 C 90.866 56.385, 90.163 56.529, 86.743 59.329 M 148.336 61.567 C 147.492 63.766, 149.782 65.970, 150.949 64.082 C 151.927 62.500, 151.261 60, 149.862 60 C 149.353 60, 148.667 60.705, 148.336 61.567 M 227.630 63.857 C 226.229 65.405, 226.175 65.900, 227.307 66.840 C 229.218 68.426, 232.348 66.070, 231.447 63.724 C 230.601 61.518, 229.718 61.549, 227.630 63.857 M 216.500 64.464 C 214.850 65.219, 214.175 65.854, 215 65.874 C 215.825 65.894, 217.850 65.292, 219.500 64.536 C 221.150 63.781, 221.825 63.146, 221 63.126 C 220.175 63.106, 218.150 63.708, 216.500 64.464 M 152.380 66.452 C 152.074 67.251, 152.114 68.376, 152.470 68.952 C 153.635 70.837, 155 70.053, 155 67.500 C 155 64.789, 153.282 64.102, 152.380 66.452 M 206 66 C 205.099 66.582, 204.975 66.975, 205.691 66.985 C 206.346 66.993, 207.160 66.550, 207.500 66 C 208.267 64.758, 207.921 64.758, 206 66 M 134 73.405 C 134 76.823, 134.384 78, 135.500 78 C 136.774 78, 137.006 80.601, 137.041 95.250 L 137.081 112.500 140.065 109.008 L 143.049 105.517 142.936 92.184 C 142.835 80.320, 143.025 78.702, 144.660 77.507 C 146.843 75.910, 147.001 76.087, 139.750 72.028 L 134 68.809 134 73.405 M 208.104 69.914 C 206.724 70.789, 207.210 74.014, 208.719 73.985 C 210.599 73.948, 212.241 72.070, 211.677 70.601 C 210.984 68.796, 210.130 68.632, 208.104 69.914 M 156 72.417 C 156 74.097, 156.549 75, 157.570 75 C 158.612 75, 159.032 74.271, 158.820 72.828 C 158.348 69.627, 156 69.284, 156 72.417 M 217.079 71.583 C 217.127 72.748, 217.364 72.985, 217.683 72.188 C 217.972 71.466, 217.936 70.603, 217.604 70.271 C 217.272 69.939, 217.036 70.529, 217.079 71.583 M 79.600 72.600 C 79.270 73.460, 79 75.477, 79 77.082 C 79 79.462, 79.415 79.987, 81.250 79.930 C 83.330 79.865, 83.353 79.802, 81.554 79.098 C 79.696 78.371, 79.707 78.310, 81.804 77.762 C 84.551 77.043, 84.737 73.465, 82.100 72.053 C 80.644 71.274, 80.060 71.402, 79.600 72.600 M 102.500 73 C 102.160 73.550, 102.332 74, 102.882 74 C 103.432 74, 104.160 73.550, 104.500 73 C 104.840 72.450, 104.668 72, 104.118 72 C 103.568 72, 102.840 72.450, 102.500 73 M 177.750 78.433 C 176.787 79.141, 175.954 81.021, 175.898 82.610 L 175.796 85.500 174.753 82.250 C 174.072 80.126, 173.068 79, 171.855 79 C 170.151 79, 170 79.979, 170 91 L 170 103 174.915 103 L 179.829 103 180.503 95.750 C 180.873 91.763, 180.799 85.945, 180.338 82.822 C 179.575 77.650, 179.344 77.259, 177.750 78.433 M 159.571 80.571 C 158.370 81.773, 158 84.315, 158 91.371 C 158 101.356, 158.707 103, 163 103 C 167.293 103, 168 101.356, 168 91.371 C 168 81.619, 166.942 79, 163 79 C 161.979 79, 160.436 79.707, 159.571 80.571 M 146.033 95.191 L 146.067 110.500 148.033 108.139 C 149.574 106.290, 150 104.272, 150 98.830 C 150 94.453, 150.370 92.111, 151 92.500 C 151.550 92.840, 152.015 95.229, 152.033 97.809 L 152.067 102.500 154.033 100.139 C 156.237 97.494, 156.621 93.021, 154.800 91.200 C 153.867 90.267, 153.867 90, 154.800 90 C 156.382 90, 156.382 82.782, 154.800 81.200 C 153.472 79.872, 151.603 79.549, 152.364 80.780 C 152.966 81.753, 148.825 81.628, 147.200 80.623 C 146.286 80.059, 146.008 83.535, 146.033 95.191 M 218.500 82 C 218.840 82.550, 219.316 83, 219.559 83 C 219.802 83, 220 82.550, 220 82 C 220 81.450, 219.523 81, 218.941 81 C 218.359 81, 218.160 81.450, 218.500 82 M 209.500 85 C 209.149 85.567, 209.990 86, 211.441 86 C 212.848 86, 214 85.550, 214 85 C 214 84.450, 213.127 84, 212.059 84 C 210.991 84, 209.840 84.450, 209.500 85 M 88.580 98.870 C 88.273 99.367, 88.692 100.329, 89.511 101.009 C 90.722 102.014, 91 101.953, 91 100.681 C 91 98.815, 89.369 97.594, 88.580 98.870 M 217.609 98.824 C 217.256 99.395, 217.455 100.163, 218.050 100.531 C 219.536 101.449, 220.062 100.719, 219.071 99.114 C 218.539 98.255, 218.024 98.152, 217.609 98.824 M 155.303 106.342 C 153.948 108.065, 153.558 109.916, 153.831 113.342 C 154.191 117.870, 154.294 118, 157.500 118 C 160.705 118, 160.811 117.866, 161.248 113.250 C 161.687 108.615, 160.091 104, 158.050 104 C 157.552 104, 156.316 105.054, 155.303 106.342 M 158.211 110.601 C 157.501 111.370, 157.362 112, 157.902 112 C 158.940 112, 160.443 110.098, 159.850 109.534 C 159.658 109.351, 158.920 109.831, 158.211 110.601 M 98.730 118.616 C 92.800 123.320, 91.982 124.911, 94.442 126.952 C 95.611 127.922, 96.699 127.404, 100.192 124.216 C 102.561 122.053, 105.513 119.754, 106.750 119.107 C 107.987 118.459, 108.993 117.383, 108.985 116.715 C 108.975 115.939, 108.633 116.032, 108.039 116.971 C 107.042 118.547, 106.797 118.438, 105.378 115.785 C 104.569 114.273, 103.783 114.608, 98.730 118.616 M 201.077 117.077 C 197.727 120.427, 197.589 120.803, 198.937 122.932 C 200.440 125.307, 206.984 120.285, 206.993 116.750 C 207.002 113.099, 204.941 113.212, 201.077 117.077 M 110.232 128.112 C 107.885 129.774, 106.225 131.555, 106.543 132.070 C 106.861 132.585, 107.796 134.242, 108.621 135.753 C 109.699 137.727, 110.030 137.940, 109.799 136.510 C 109.378 133.915, 115.774 128.016, 116.948 129.916 C 117.578 130.935, 118.152 130.922, 119.866 129.852 C 121.040 129.119, 122 128.204, 122 127.818 C 122 126.424, 119.800 125.800, 118.713 126.887 C 117.160 128.440, 116 128.274, 116 126.500 C 116 124.406, 115.116 124.653, 110.232 128.112 M 220.507 125.989 C 220.157 126.555, 220.558 126.723, 221.448 126.382 C 223.180 125.717, 223.497 125, 222.059 125 C 221.541 125, 220.843 125.445, 220.507 125.989 M 211.655 129.829 C 209.226 132.513, 209.638 133.283, 212.500 131.408 C 214.951 129.802, 215.826 128, 214.155 128 C 213.690 128, 212.565 128.823, 211.655 129.829 M 190 132 C 190 132.550, 191.463 132.968, 193.250 132.930 C 195.974 132.871, 196.176 132.720, 194.500 132 C 191.737 130.813, 190 130.813, 190 132 M 103.715 135.762 C 101.492 138.218, 101.511 141.004, 103.750 140.985 C 105.218 140.972, 105.263 140.819, 104.029 140.039 C 103.220 139.527, 102.893 138.774, 103.303 138.364 C 103.712 137.954, 104.766 138.337, 105.643 139.215 C 107.105 140.676, 106.997 140.942, 104.370 142.365 C 102.500 143.378, 102.085 143.934, 103.179 143.960 C 107.115 144.054, 109.231 139.066, 106.715 135.625 C 105.495 133.956, 105.343 133.963, 103.715 135.762 M 192 135 C 191.099 135.582, 190.975 135.975, 191.691 135.985 C 192.346 135.993, 193.160 135.550, 193.500 135 C 194.267 133.758, 193.921 133.758, 192 135 M 129.251 136.735 C 128.282 137.070, 128.318 137.616, 129.415 139.182 C 130.403 140.593, 130.567 141.994, 129.962 143.849 C 129.487 145.307, 128.607 148.418, 128.007 150.763 C 127.015 154.638, 126.730 154.926, 124.872 153.932 C 123.748 153.330, 122.567 153.099, 122.248 153.419 C 121.401 154.266, 122.178 154.759, 124.980 155.152 C 127.216 155.466, 127.689 154.862, 129.778 149.032 C 132.199 142.274, 131.923 135.814, 129.251 136.735 M 183 139.500 C 181.841 142.549, 178.526 142.815, 176.768 140 C 175.154 137.416, 170.854 137.430, 165.108 140.037 C 160.762 142.009, 160.736 142.050, 162.581 144.090 C 164.426 146.129, 164.418 146.143, 161.723 145.467 C 159.880 145.004, 159 145.175, 159 145.997 C 159 146.805, 160.309 147.085, 162.923 146.836 C 165.081 146.630, 166.827 146.695, 166.805 146.981 C 166.670 148.666, 167.100 149.984, 167.750 149.882 C 170.227 149.490, 172.038 150.130, 171.395 151.170 C 170.889 151.988, 171.248 152.117, 172.586 151.600 C 173.639 151.193, 175.850 150.603, 177.500 150.289 C 179.150 149.975, 181.026 149.307, 181.669 148.804 C 182.437 148.203, 183.236 148.509, 183.995 149.695 C 184.951 151.187, 185.062 151.209, 184.634 149.821 C 184.350 148.898, 183.832 146.623, 183.484 144.766 C 182.924 141.781, 183.164 141.246, 185.554 140.157 C 187.042 139.480, 187.986 138.653, 187.653 138.320 C 187.321 137.987, 186.278 138.342, 185.337 139.107 C 183.830 140.334, 183.704 140.291, 184.281 138.750 C 184.642 137.787, 184.715 137, 184.444 137 C 184.173 137, 183.523 138.125, 183 139.500 M 141.242 139.543 C 138.777 141.270, 138.288 143, 140.265 143 C 140.960 143, 143.200 143.895, 145.241 144.989 C 148.305 146.632, 149.393 146.778, 151.476 145.829 C 152.864 145.196, 154 144.301, 154 143.839 C 154 142.525, 152.833 142.845, 150.676 144.750 C 148.742 146.458, 148.709 146.425, 149.301 143.355 C 149.772 140.915, 149.526 140.099, 148.204 139.718 C 147.267 139.448, 145.822 138.945, 144.992 138.599 C 144.163 138.254, 142.476 138.679, 141.242 139.543 M 164.081 148.635 C 164.037 149.260, 164.657 151.285, 165.461 153.135 C 166.264 154.986, 166.919 155.825, 166.916 155 C 166.908 153.152, 164.194 147.057, 164.081 148.635 M 174.294 152.326 C 172.531 152.972, 170.506 154.129, 169.794 154.897 C 168.708 156.070, 168.822 156.169, 170.500 155.512 C 171.600 155.082, 173.954 154.199, 175.731 153.550 C 177.509 152.901, 179.271 152.062, 179.648 151.685 C 180.668 150.666, 177.936 150.993, 174.294 152.326 M 140 153.678 C 141.925 154.512, 144.063 155.655, 144.750 156.219 C 145.579 156.899, 146 156.905, 146 156.236 C 146 155.082, 139.874 151.959, 137.849 152.082 C 137.107 152.126, 138.075 152.845, 140 153.678 M 139.500 157 C 144.765 159.437, 146.452 159.437, 142 157 C 140.075 155.946, 137.825 155.098, 137 155.116 C 136.175 155.134, 137.300 155.982, 139.500 157 M 165.573 161.521 C 164.513 162.323, 163.887 163.220, 164.181 163.515 C 164.476 163.809, 165.793 163.154, 167.108 162.058 C 169.843 159.781, 168.496 159.310, 165.573 161.521" stroke="none" fill="black" fill-rule="evenodd"/>
	<path fill-opacity="0.073" d="M 139.500 9.414 C 116.064 14.787, 95.324 31.133, 84.981 52.383 C 78.329 66.052, 76.640 73.512, 76.693 89 C 76.729 99.549, 77.148 102.875, 79.380 110.307 C 80.834 115.152, 83.205 121.452, 84.647 124.307 C 94.950 144.710, 113.287 159.766, 135.701 166.227 C 146.878 169.449, 167.122 169.449, 178.299 166.227 C 202.637 159.212, 222.500 141.669, 231.592 119.158 C 236.082 108.043, 237.376 101.173, 237.370 88.500 C 237.362 73.657, 235.607 66.187, 228.814 52.077 C 224.361 42.828, 222.708 40.562, 214.148 31.971 C 203.409 21.194, 196.021 16.513, 182.096 11.660 C 174.417 8.984, 172.007 8.631, 159.500 8.351 C 150.135 8.142, 143.514 8.494, 139.500 9.414 M 140.373 11.391 C 135.902 12.029, 131.627 13.038, 130.873 13.632 C 130.118 14.227, 126.265 15.931, 122.312 17.420 C 114.815 20.244, 107.317 25.009, 106.332 27.577 C 106.016 28.401, 106.557 29.958, 107.534 31.037 C 109.522 33.234, 108.892 33.548, 105.807 31.897 C 104.608 31.255, 103.485 31.173, 103.123 31.700 C 102.780 32.198, 100.791 33.889, 98.702 35.458 C 93.723 39.198, 92.813 41.017, 94.396 44.063 C 95.482 46.153, 95.368 47.024, 93.600 50.179 C 91.816 53.361, 91.164 53.783, 88.769 53.304 C 86.719 52.894, 86 53.143, 86 54.264 C 86 55.174, 87.295 56.031, 89.250 56.414 C 91.037 56.764, 94.907 58.584, 97.848 60.459 C 102.423 63.374, 103.544 63.709, 105.598 62.773 C 108.811 61.310, 108.651 60.153, 105.325 60.789 L 102.650 61.300 104.810 58.267 C 105.998 56.599, 108.664 53.798, 110.735 52.042 C 112.806 50.287, 116.525 46.925, 119 44.573 C 123.781 40.027, 130.715 36, 133.760 36 C 136.375 36, 138 34.038, 138 30.881 C 138 28.304, 138.171 28.206, 141.250 29.015 C 143.037 29.485, 146.894 30.075, 149.820 30.327 L 155.140 30.786 154.366 26.643 C 153.090 19.813, 153.326 15.581, 155 15.246 C 156.243 14.997, 156.443 16.140, 156.170 21.918 C 155.989 25.754, 156.265 29.652, 156.785 30.581 C 157.646 32.119, 157.930 32.070, 159.975 30.025 C 161.812 28.188, 162.917 27.891, 166.051 28.392 C 168.159 28.729, 171.043 29.446, 172.461 29.985 C 174.763 30.860, 174.903 31.189, 173.769 33.054 C 172.746 34.739, 171.823 35.039, 169 34.603 C 165.852 34.118, 161.843 35.261, 163.029 36.306 C 163.288 36.535, 165.306 36.998, 167.514 37.335 C 171.006 37.868, 171.930 37.572, 174.624 35.054 C 177 32.833, 177.879 30.968, 178.399 27.047 C 179.094 21.808, 178.579 19.524, 176.931 20.543 C 176.419 20.859, 176 20.361, 176 19.437 C 176 18.041, 176.260 17.971, 177.530 19.025 C 178.710 20.004, 179.634 20.032, 181.577 19.147 C 184.721 17.714, 185 17.718, 185 19.195 C 185 19.853, 186.237 21.681, 187.748 23.259 C 189.260 24.837, 189.822 25.871, 188.998 25.558 C 187.987 25.173, 186.571 26.460, 184.645 29.515 C 183.074 32.005, 180.937 34.499, 179.895 35.056 C 178.853 35.614, 178 36.560, 178 37.158 C 178 37.903, 178.441 37.879, 179.404 37.079 C 181.605 35.253, 185.583 36.819, 190.914 41.613 C 193.598 44.026, 196.033 46, 196.325 46 C 196.616 46, 198.462 43.355, 200.426 40.122 C 202.718 36.349, 205.071 33.799, 206.998 33.001 C 210.383 31.599, 210.674 30.804, 208.471 28.976 C 207.204 27.924, 206.538 28.086, 204.591 29.914 L 202.241 32.122 200.143 29.454 C 198.564 27.447, 198.286 26.334, 199.022 24.959 C 200.629 21.955, 200.177 20.972, 196.477 19.426 C 193.872 18.338, 192.439 18.230, 190.977 19.012 C 189.453 19.828, 189 19.755, 189 18.696 C 189 17.940, 187.935 16.836, 186.632 16.242 C 184.749 15.384, 183.908 15.504, 182.516 16.832 C 180.867 18.404, 180.831 18.373, 181.896 16.292 C 182.859 14.410, 182.703 13.911, 180.842 12.915 C 179.028 11.944, 178.434 12.054, 177.329 13.565 C 176.223 15.078, 176 15.118, 176 13.808 C 176 11.899, 171.549 10.855, 169.992 12.399 C 169.180 13.204, 169.077 12.986, 169.611 11.586 C 170.136 10.206, 169.996 9.884, 169.108 10.433 C 168.431 10.852, 167.462 12.284, 166.956 13.616 C 166.144 15.751, 165.795 15.889, 164.017 14.779 C 162.908 14.086, 162 12.727, 162 11.759 C 162 10.376, 161.152 10, 158.032 10 C 154.731 10, 153.813 10.463, 152.572 12.750 L 151.080 15.500 151.040 12.750 C 151.017 11.174, 150.467 10.049, 149.750 10.115 C 149.063 10.179, 144.843 10.753, 140.373 11.391 M 146 12.893 C 146 13.384, 146.739 14.069, 147.641 14.416 C 149.014 14.943, 149.076 14.796, 148.019 13.523 C 146.579 11.788, 146 11.607, 146 12.893 M 157 13.393 C 157 13.609, 157.698 14.054, 158.552 14.382 C 159.442 14.723, 159.843 14.555, 159.493 13.989 C 158.906 13.038, 157 12.583, 157 13.393 M 136.862 16.404 C 135.826 18.677, 135.860 19.299, 137.057 20.056 C 141.016 22.561, 143.540 19.095, 140.194 15.749 L 138.110 13.665 136.862 16.404 M 168.250 15.220 C 166.987 15.830, 165.994 17.225, 165.986 18.403 C 165.979 19.556, 165.718 21.450, 165.406 22.612 C 165.021 24.045, 165.388 24.935, 166.546 25.379 C 168.458 26.113, 171.286 24.273, 170.415 22.862 C 170.105 22.361, 170.153 20.580, 170.521 18.905 C 171.005 16.699, 171.617 16.023, 172.736 16.452 C 174.020 16.945, 174.068 16.787, 173.019 15.523 C 171.565 13.770, 171.293 13.753, 168.250 15.220 M 128.500 17 C 128.840 17.550, 129.568 18, 130.118 18 C 130.668 18, 130.840 17.550, 130.500 17 C 130.160 16.450, 129.432 16, 128.882 16 C 128.332 16, 128.160 16.450, 128.500 17 M 145.577 16.875 C 145.280 17.356, 146.348 19.561, 147.952 21.775 C 151.277 26.366, 153.730 28.345, 152.670 25.582 C 152.301 24.622, 152 22.780, 152 21.490 C 152 17.680, 147.208 14.237, 145.577 16.875 M 162.079 17.583 C 162.127 18.748, 162.364 18.985, 162.683 18.188 C 162.972 17.466, 162.936 16.603, 162.604 16.271 C 162.272 15.939, 162.036 16.529, 162.079 17.583 M 131.138 25.250 C 132.297 28.138, 133.468 31.288, 133.740 32.250 C 134.472 34.847, 136.306 34.374, 135.680 31.750 C 135.385 30.512, 134.835 27.363, 134.458 24.750 C 133.861 20.611, 133.468 20, 131.401 20 L 129.029 20 131.138 25.250 M 161.158 22 C 161.158 23.375, 161.385 23.938, 161.662 23.250 C 161.940 22.563, 161.940 21.438, 161.662 20.750 C 161.385 20.063, 161.158 20.625, 161.158 22 M 167.507 23.989 C 167.157 24.555, 167.558 24.723, 168.448 24.382 C 170.180 23.717, 170.497 23, 169.059 23 C 168.541 23, 167.843 23.445, 167.507 23.989 M 174.731 24.920 C 174.296 26.583, 174.426 26.974, 175.168 26.232 C 175.750 25.650, 176.028 24.585, 175.788 23.863 C 175.538 23.114, 175.085 23.568, 174.731 24.920 M 123.355 33.597 C 120.065 35.219, 114.976 40.013, 116.576 39.982 C 117.084 39.972, 119.480 38.622, 121.900 36.982 C 124.321 35.342, 126.683 34, 127.150 34 C 127.618 34, 128 33.550, 128 33 C 128 31.647, 127.064 31.768, 123.355 33.597 M 204.107 40.869 C 193.460 51.859, 193.346 52, 195.125 52 C 195.936 52, 197.135 51.465, 197.790 50.810 C 201.163 47.437, 203.512 50.550, 200.599 54.533 C 199.371 56.213, 199.463 56.911, 201.349 60.207 C 203.035 63.152, 203.933 63.831, 205.500 63.348 C 206.600 63.008, 207.775 62.303, 208.111 61.781 C 208.447 61.259, 208.974 61.489, 209.282 62.292 C 209.631 63.201, 208.929 64.167, 207.421 64.854 C 204.378 66.240, 204.284 67.990, 207.250 68.032 C 209.302 68.061, 209.350 68.177, 207.798 69.357 C 205.935 70.772, 206.382 75, 208.394 75 C 210.031 75, 214 72.086, 214 70.884 C 214 70.333, 213.550 70.160, 213 70.500 C 212.450 70.840, 212 70.431, 212 69.590 C 212 68.643, 212.570 68.282, 213.500 68.638 C 214.325 68.955, 215 68.778, 215 68.246 C 215 67.713, 216.125 67.492, 217.500 67.755 C 219.065 68.054, 220 67.776, 220 67.010 C 220 66.337, 220.620 66.024, 221.378 66.315 C 222.136 66.606, 223.240 66.360, 223.830 65.770 C 224.596 65.004, 225.247 65.448, 226.097 67.313 L 227.289 69.930 230.105 67.925 C 232.599 66.149, 232.793 65.639, 231.800 63.460 C 230.633 60.898, 229.851 60.483, 228.583 61.750 C 227.531 62.802, 225.622 62.742, 224.847 61.632 C 224.473 61.096, 220.842 62.045, 216.347 63.854 C 207.655 67.351, 205.389 67.816, 208.845 65.396 C 210.104 64.514, 210.902 63.187, 210.618 62.447 C 210.293 61.600, 210.618 61.300, 211.496 61.637 C 213.564 62.430, 222.181 56.176, 221.792 54.163 C 221.616 53.248, 222.504 51.600, 223.766 50.500 L 226.061 48.500 223.580 44.876 C 220.565 40.472, 218.576 39.569, 216.823 41.809 C 215.607 43.363, 215.662 43.379, 217.500 42 C 219.352 40.611, 219.399 40.629, 218.137 42.239 C 216.829 43.906, 215.963 43.818, 213.276 41.744 C 212.322 41.007, 212.382 40.161, 213.552 37.899 C 214.417 36.226, 214.618 35, 214.026 35 C 213.462 35, 212.955 35.563, 212.900 36.250 C 212.845 36.938, 212.508 36.541, 212.150 35.369 C 211.567 33.457, 210.742 34.021, 204.107 40.869 M 102.667 34.667 C 102.300 35.033, 102.007 36.046, 102.015 36.917 C 102.025 37.911, 102.304 38.096, 102.765 37.415 C 103.169 36.818, 104.400 35.819, 105.500 35.195 C 107.480 34.072, 107.479 34.061, 105.417 34.030 C 104.271 34.014, 103.033 34.300, 102.667 34.667 M 185 34.430 C 185 34.705, 185.900 35.411, 187 36 C 188.100 36.589, 189 36.845, 189 36.570 C 189 36.295, 188.100 35.589, 187 35 C 185.900 34.411, 185 34.155, 185 34.430 M 142.592 36.621 C 142.097 37.910, 142.434 38.117, 144.235 37.634 C 145.481 37.300, 147.400 36.976, 148.500 36.914 C 150.166 36.820, 150.083 36.667, 148 36 C 144.149 34.767, 143.265 34.868, 142.592 36.621 M 194 37.893 C 194 38.384, 194.739 39.069, 195.641 39.416 C 197.014 39.943, 197.076 39.796, 196.019 38.523 C 194.579 36.788, 194 36.607, 194 37.893 M 144.105 39.583 C 135.821 41.810, 129.137 45.845, 121.890 52.993 C 111.732 63.013, 106.988 74.321, 107.012 88.460 C 107.035 102.025, 111.961 113.936, 121.500 123.490 C 129.785 131.788, 138.412 136.178, 150.750 138.372 L 154 138.950 154 130.975 L 154 123 157 123 C 158.650 123, 160.037 123.338, 160.082 123.750 C 160.127 124.162, 160.239 127.650, 160.332 131.500 L 160.500 138.500 163.500 138.195 C 178.255 136.697, 194.483 125.356, 201.284 111.791 C 208.851 96.698, 208.830 78.840, 201.230 64.575 C 197.138 56.893, 186.697 46.886, 179 43.266 C 167.659 37.934, 155.147 36.613, 144.105 39.583 M 205 47.882 C 205 48.432, 205.450 49.160, 206 49.500 C 206.550 49.840, 207 49.668, 207 49.118 C 207 48.568, 206.550 47.840, 206 47.500 C 205.450 47.160, 205 47.332, 205 47.882 M 104.247 51.250 C 103.699 51.938, 102.497 54.075, 101.577 56 C 100.084 59.122, 100.079 59.284, 101.528 57.500 C 103.389 55.209, 106.251 50, 105.648 50 C 105.426 50, 104.796 50.563, 104.247 51.250 M 156.603 50.833 C 156.320 51.292, 156.723 51.667, 157.500 51.667 C 158.277 51.667, 158.680 51.292, 158.397 50.833 C 158.114 50.375, 157.710 50, 157.500 50 C 157.290 50, 156.886 50.375, 156.603 50.833 M 156.613 54.183 C 156.902 54.650, 157.557 54.774, 158.069 54.457 C 159.377 53.649, 159.230 53.333, 157.544 53.333 C 156.743 53.333, 156.324 53.716, 156.613 54.183 M 122.676 55.778 C 123.534 56.324, 123.863 64.917, 123.895 87.593 C 123.919 104.679, 124.354 119.748, 124.861 121.080 L 125.785 123.500 126.438 120.500 C 128.500 111.038, 130.525 105.675, 132.203 105.237 C 133.810 104.816, 134 103.460, 134 92.383 C 134 82.043, 133.753 80, 132.500 80 C 131.284 80, 131 78.389, 131 71.500 C 131 66.825, 131.387 63, 131.860 63 C 132.334 63, 134.441 64.168, 136.544 65.595 C 138.647 67.022, 141.403 68.583, 142.668 69.064 C 144.849 69.893, 144.812 69.724, 141.952 65.775 C 140.293 63.484, 139.152 61.047, 139.416 60.358 C 139.750 59.487, 138.465 59.013, 135.198 58.803 C 132.614 58.636, 130.646 58.068, 130.824 57.539 C 131.002 57.011, 130.327 56.255, 129.324 55.859 C 126.877 54.895, 121.178 54.826, 122.676 55.778 M 161.564 56.293 C 161.940 57.279, 162.499 57.834, 162.807 57.526 C 163.115 57.219, 162.808 56.412, 162.124 55.733 C 161.136 54.753, 161.022 54.868, 161.564 56.293 M 183.290 57 C 182.865 58.625, 181.926 59, 178.276 59 C 174.757 59, 173.907 59.315, 174.345 60.456 C 174.659 61.275, 172.956 64.556, 170.452 67.959 C 165.782 74.301, 164.803 76.393, 167.753 73.723 C 169.791 71.880, 179.913 67.024, 181.750 67.010 C 182.705 67.002, 183 71.357, 183 85.479 C 183 102.537, 183.192 104.530, 185.500 111.405 C 186.875 115.501, 188.014 119.898, 188.030 121.176 C 188.059 123.384, 188.117 123.403, 189.188 121.558 C 189.963 120.221, 190.263 110.709, 190.148 91.058 C 190.056 75.351, 190.388 60.813, 190.885 58.750 L 191.789 55 187.801 55 C 184.654 55, 183.702 55.422, 183.290 57 M 112.114 58.582 C 110.148 61.082, 109.417 63, 110.432 63 C 111.248 63, 115.218 56.885, 114.723 56.390 C 114.451 56.117, 113.277 57.104, 112.114 58.582 M 85.861 58.915 L 83.500 60.830 85.796 63.278 C 87.058 64.624, 88.017 66.125, 87.927 66.613 C 87.545 68.680, 88.095 69.166, 89.500 68 C 90.690 67.013, 91 67.011, 91 67.994 C 91 68.725, 91.790 69.027, 92.925 68.730 C 94.261 68.381, 94.691 68.643, 94.328 69.587 C 94.041 70.335, 95.161 69.722, 96.818 68.224 C 98.795 66.435, 99.494 65.157, 98.852 64.500 C 98.205 63.837, 97.550 64.077, 96.911 65.208 C 96.381 66.148, 95.397 66.748, 94.724 66.542 C 94.051 66.336, 92.263 65.896, 90.750 65.564 C 88.554 65.083, 88 64.402, 88 62.181 C 88 60.651, 88.540 58.860, 89.200 58.200 C 91.195 56.205, 88.486 56.785, 85.861 58.915 M 152.613 69.183 C 152.902 69.650, 153.557 69.774, 154.069 69.457 C 155.377 68.649, 155.230 68.333, 153.544 68.333 C 152.743 68.333, 152.324 68.716, 152.613 69.183 M 85.384 70.443 C 84.958 71.551, 84.238 71.661, 82.276 70.915 C 80.872 70.381, 79.565 70.102, 79.372 70.295 C 79.178 70.488, 78.903 72.863, 78.760 75.573 C 78.514 80.237, 78.641 80.516, 81.152 80.807 C 83.570 81.087, 83.868 80.733, 84.519 76.807 C 84.911 74.438, 85.646 71.713, 86.151 70.750 C 86.657 69.787, 86.815 69, 86.504 69 C 86.192 69, 85.688 69.649, 85.384 70.443 M 216.380 70.452 C 216.074 71.251, 216.114 72.376, 216.470 72.952 C 217.635 74.837, 219 74.053, 219 71.500 C 219 68.789, 217.282 68.102, 216.380 70.452 M 100.500 70.765 C 99.682 71.366, 98.840 76, 99.548 76 C 101.367 76, 107 72.588, 107 71.487 C 107 69.431, 106.040 69.623, 103.179 72.250 L 100.729 74.500 101.899 72.250 C 103.060 70.020, 102.427 69.349, 100.500 70.765 M 134 73.309 C 134 75.923, 134.438 77, 135.500 77 C 136.775 77, 137 79.575, 137 94.174 L 137 111.349 139.500 109 C 141.949 106.700, 142 106.347, 142 91.826 C 142 79.314, 142.234 77, 143.500 77 C 144.325 77, 145 76.564, 145 76.031 C 145 75.499, 144.361 75.308, 143.581 75.607 C 142.069 76.187, 137.324 73.637, 135.250 71.129 C 134.203 69.863, 134 70.217, 134 73.309 M 158.079 72.309 C 158.031 73.412, 157.549 73.839, 156.845 73.405 C 156.101 72.945, 155.964 73.132, 156.458 73.933 C 157.457 75.549, 159.433 73.696, 158.691 71.838 C 158.340 70.957, 158.131 71.118, 158.079 72.309 M 177.543 78.931 C 177.226 79.443, 176.916 82.134, 176.853 84.910 C 176.746 89.688, 175.015 91.339, 174.986 86.691 C 174.979 85.486, 174.691 83.449, 174.348 82.165 C 173.878 80.413, 173.508 80.164, 172.861 81.165 C 172.156 82.258, 171.822 82.228, 171.015 81 C 170.338 79.968, 170.026 83.013, 170.015 90.750 C 170.003 99.796, 170.277 102, 171.417 102 C 172.196 102, 173.060 101.438, 173.338 100.750 C 173.640 100.001, 173.874 100.199, 173.921 101.244 C 173.978 102.495, 174.635 102.869, 176.250 102.568 C 177.488 102.337, 178.838 102.115, 179.250 102.074 C 180.362 101.964, 180.171 78, 179.059 78 C 178.541 78, 177.859 78.419, 177.543 78.931 M 217.776 81.071 C 217.435 83.398, 217.722 84, 219.173 84 C 220.433 84, 221 83.258, 221 81.607 C 221 77.961, 218.299 77.512, 217.776 81.071 M 146.015 94.885 L 146 110.270 148 107.727 C 149.541 105.769, 150 103.670, 150 98.592 C 150 94.864, 150.434 92, 151 92 C 151.550 92, 152.010 94.362, 152.022 97.250 L 152.044 102.500 154.026 100 C 156.154 97.314, 156.308 92.338, 154.250 92.750 C 153.563 92.888, 153 92.325, 153 91.500 C 153 90.675, 153.420 90, 153.933 90 C 155.303 90, 156.170 86.527, 155.484 83.792 C 154.968 81.736, 154.407 81.471, 151.329 81.830 C 149.019 82.100, 147.465 81.764, 146.900 80.873 C 146.385 80.060, 146.024 85.774, 146.015 94.885 M 158.534 82.772 C 158.240 83.537, 158 87.657, 158 91.927 C 158 98.178, 158.356 100.012, 159.829 101.345 C 164.706 105.758, 168.006 101.583, 167.985 91.027 C 167.976 86.887, 167.639 83.050, 167.235 82.500 C 166.091 80.943, 159.153 81.159, 158.534 82.772 M 210.750 81.774 C 208.668 82.217, 208.371 86, 210.418 86 C 211.198 86, 212.548 86.273, 213.418 86.607 C 214.640 87.076, 215 86.544, 215 84.274 C 215 81.373, 214.372 81.003, 210.750 81.774 M 150.171 87 C 150.085 89.200, 150.461 91, 151.007 91 C 151.553 91, 152 89.200, 152 87 C 152 84.800, 151.624 83, 151.164 83 C 150.704 83, 150.257 84.800, 150.171 87 M 80.441 85.468 C 79.374 86.276, 78.950 86.936, 79.500 86.936 C 80.050 86.936, 81.374 86.276, 82.441 85.468 C 83.509 84.661, 83.932 84, 83.382 84 C 82.832 84, 81.509 84.661, 80.441 85.468 M 210.427 88.479 C 209.367 89.280, 208.950 89.944, 209.500 89.953 C 210.986 89.977, 213.526 88.192, 212.898 87.565 C 212.599 87.265, 211.487 87.677, 210.427 88.479 M 173.076 93.750 C 173.118 94.162, 173.799 96.075, 174.590 98 C 175.500 100.214, 175.844 100.582, 175.528 99 C 175.253 97.625, 175.021 95.713, 175.014 94.750 C 175.006 93.787, 174.550 93, 174 93 C 173.450 93, 173.034 93.338, 173.076 93.750 M 88.040 97.954 C 86.789 98.745, 86.844 99.170, 88.426 100.918 C 89.894 102.540, 89.988 103.049, 88.886 103.400 C 84.884 104.675, 84.664 104.847, 86.941 104.921 C 89.305 104.997, 89.320 105.047, 87.441 106.468 C 86.374 107.276, 86.007 107.951, 86.628 107.968 C 87.248 107.986, 88.311 107.330, 88.991 106.511 C 89.671 105.692, 90.695 105.312, 91.268 105.666 C 91.868 106.037, 92.010 105.826, 91.603 105.167 C 91.160 104.450, 92.406 103.421, 94.949 102.404 C 97.177 101.512, 99 100.382, 99 99.891 C 99 98.617, 97.610 98.791, 96.141 100.250 C 95.131 101.252, 95.006 101.173, 95.509 99.851 C 95.854 98.944, 95.703 97.934, 95.173 97.607 C 93.977 96.868, 92.754 99.792, 93.651 101.245 C 94.039 101.872, 93.835 102.016, 93.155 101.595 C 92.520 101.203, 92 100.009, 92 98.941 C 92 96.859, 90.401 96.461, 88.040 97.954 M 217.040 97.954 C 215.770 98.758, 215.785 99.114, 217.159 100.689 C 218.903 102.687, 218.517 104.854, 216.088 106.718 C 215.214 107.388, 214.993 107.951, 215.595 107.968 C 216.197 107.986, 217.547 107.052, 218.595 105.893 C 219.643 104.734, 222.188 103.110, 224.250 102.284 C 226.313 101.459, 228 100.382, 228 99.891 C 228 98.554, 226.865 98.812, 224.892 100.598 C 222.822 102.471, 221 101.695, 221 98.941 C 221 96.859, 219.401 96.461, 217.040 97.954 M 162 99.500 C 162 100.325, 162.450 101, 163 101 C 163.550 101, 164 100.325, 164 99.500 C 164 98.675, 163.550 98, 163 98 C 162.450 98, 162 98.675, 162 99.500 M 222.667 98.667 C 221.711 99.622, 221.845 101, 222.893 101 C 223.384 101, 224.045 100.325, 224.362 99.500 C 224.947 97.976, 223.881 97.452, 222.667 98.667 M 85 102 C 85 102.550, 85.927 103, 87.059 103 C 88.191 103, 88.840 102.550, 88.500 102 C 88.160 101.450, 87.234 101, 86.441 101 C 85.648 101, 85 101.450, 85 102 M 214 102 C 214 102.550, 215.012 102.993, 216.250 102.985 C 218.069 102.972, 218.213 102.784, 217 102 C 215.061 100.747, 214 100.747, 214 102 M 106.415 106.157 C 106.732 107.619, 107.303 109.644, 107.683 110.657 C 108.314 112.339, 108.210 112.369, 106.500 111 C 104.792 109.634, 104.686 109.662, 105.306 111.315 C 105.869 112.814, 105.618 113.013, 103.868 112.458 C 102.592 112.053, 101.989 112.173, 102.351 112.759 C 102.682 113.295, 101.959 114.580, 100.744 115.616 C 99.528 116.653, 99.064 116.810, 99.712 115.964 C 100.676 114.706, 100.538 114.429, 98.945 114.429 C 97.875 114.429, 97 115.034, 97 115.773 C 97 116.513, 96.513 116.817, 95.919 116.450 C 95.250 116.036, 94.964 116.545, 95.169 117.783 C 95.351 118.884, 94.650 120.724, 93.612 121.873 C 91.985 123.674, 91.915 124.192, 93.104 125.625 C 94.337 127.111, 94.245 127.212, 92.242 126.577 C 90.875 126.143, 90 126.282, 90 126.933 C 90 127.520, 91.013 128.014, 92.250 128.032 C 94.334 128.061, 94.371 128.162, 92.750 129.392 C 91.787 130.123, 91 131.041, 91 131.433 C 91 131.825, 92.109 131.273, 93.464 130.207 C 96.784 127.595, 99.870 127.943, 102.304 131.204 C 104.018 133.501, 104.120 134.151, 102.981 135.523 C 102.243 136.412, 100.834 136.928, 99.850 136.671 C 98.148 136.226, 98.144 136.319, 99.780 138.570 C 100.726 139.872, 102.400 140.966, 103.500 141 C 105.467 141.063, 105.468 141.088, 103.573 142.521 C 100.929 144.522, 102.387 145.632, 105.219 143.774 C 106.473 142.950, 110.546 139.514, 114.270 136.138 C 121.840 129.275, 124 128.542, 124 132.836 C 124 135.116, 122.630 136.834, 117.019 141.586 C 113.180 144.839, 110.031 147.725, 110.021 148 C 110.012 148.275, 112.299 150.064, 115.103 151.976 C 117.908 153.887, 120.800 156.304, 121.529 157.345 C 122.822 159.190, 122.935 159.183, 125.944 157.040 C 128.740 155.049, 129.507 154.943, 134.066 155.921 C 136.835 156.514, 140.405 157.675, 142 158.500 C 145.440 160.279, 146 160.342, 146 158.951 C 146 158.374, 144.088 157.034, 141.750 155.973 C 139.412 154.912, 138.175 154.050, 139 154.057 C 139.825 154.065, 141.625 154.714, 143 155.500 C 146.331 157.404, 147 157.346, 147 155.149 C 147 149.977, 151.862 143.462, 154.073 145.673 C 154.975 146.575, 150.713 162.436, 149.020 164.476 C 148.229 165.429, 149.543 165.855, 154.747 166.334 C 161.685 166.973, 166.355 166.383, 165.486 164.977 C 165.216 164.540, 166.346 163.045, 167.997 161.656 C 169.649 160.266, 171 158.698, 171 158.172 C 171 156.806, 172.995 156.209, 180.182 155.426 C 186.957 154.688, 188.729 154.118, 187.337 153.125 C 186.854 152.781, 185.721 150.132, 184.818 147.238 C 183.226 142.134, 183.236 141.944, 185.174 140.907 C 186.272 140.319, 187.310 139.987, 187.480 140.169 C 188.190 140.929, 192 154.364, 192 156.105 C 192 158.613, 192.785 158.503, 197.518 155.333 C 203.084 151.606, 207.338 148, 206.171 148 C 205.631 148, 203.287 146.411, 200.962 144.468 C 198.637 142.526, 195.613 140.054, 194.240 138.974 C 192.060 137.259, 191.919 136.798, 193.123 135.319 C 194.328 133.837, 194.285 133.706, 192.782 134.269 C 191.837 134.623, 190.755 134.412, 190.377 133.800 C 189.896 133.022, 190.696 132.889, 193.042 133.358 C 196.447 134.039, 198.066 134.980, 203.582 139.482 L 206.665 141.998 209.882 137.032 C 211.652 134.301, 214.184 131.213, 215.510 130.171 L 217.921 128.274 215.710 126.314 C 214.495 125.236, 212.150 124.270, 210.500 124.168 C 208.850 124.066, 207.344 123.518, 207.153 122.950 C 206.925 122.271, 206.324 122.316, 205.403 123.081 C 204.631 123.721, 204 123.910, 204 123.500 C 204 123.090, 203.213 123.360, 202.250 124.100 C 201.287 124.840, 202.637 123.401, 205.250 120.903 C 207.863 118.404, 210 115.803, 210 115.121 C 210 114.440, 209.550 114.160, 209 114.500 C 208.450 114.840, 208 114.679, 208 114.142 C 208 113.606, 208.530 112.990, 209.177 112.774 C 209.846 112.551, 210.018 111.839, 209.576 111.123 C 209.148 110.430, 208.219 110.086, 207.512 110.357 C 206.638 110.693, 206.367 110.154, 206.666 108.675 C 206.908 107.479, 206.120 108.300, 204.916 110.500 C 203.711 112.700, 201.438 115.978, 199.863 117.785 C 196.965 121.110, 196.175 124.372, 197.996 125.498 C 198.961 126.094, 196.610 132, 195.409 132 C 193.722 132, 191.047 129.733, 191.627 128.795 C 192.403 127.539, 192.223 127.639, 185.056 132.462 C 182.165 134.408, 180.519 136, 181.400 136 C 183.109 136, 183.366 136.883, 182.393 139.418 C 181.493 141.765, 178 141.432, 178 139 C 178 136.418, 176.117 136.438, 165.746 139.126 C 158.555 140.990, 156.863 141.106, 152.022 140.072 C 140.973 137.710, 139.777 137.647, 138.810 139.374 C 138.279 140.324, 136.626 141, 134.837 141 C 132 141, 131.806 140.777, 132.214 137.994 C 132.604 135.336, 132.171 134.704, 128.470 132.535 C 126.167 131.186, 123.511 128.903, 122.567 127.463 C 121.518 125.862, 120.277 125.064, 119.374 125.410 C 118.561 125.722, 118.142 125.579, 118.442 125.093 C 119.861 122.799, 115.865 123.475, 112.870 126.037 C 111.016 127.622, 108.502 128.937, 107.281 128.959 C 105.605 128.990, 105.215 129.428, 105.686 130.750 C 106.116 131.960, 105.396 131.652, 103.350 129.750 C 101.722 128.238, 99.851 127, 99.192 127 C 98.533 127, 99.792 125.376, 101.990 123.390 C 104.277 121.324, 106.604 120.018, 107.433 120.336 C 108.416 120.713, 109.229 119.835, 109.967 117.601 C 110.902 114.766, 110.692 113.565, 108.445 108.906 C 107.011 105.933, 106.097 104.696, 106.415 106.157 M 155.008 106.988 C 153.235 109.478, 153.135 110, 154.432 110 C 155.294 110, 156 109.277, 156 108.393 C 156 107.375, 156.550 106.997, 157.500 107.362 C 158.396 107.706, 159 107.370, 159 106.528 C 159 103.795, 157.128 104.011, 155.008 106.988 M 214.813 104.683 C 215.534 104.972, 216.397 104.936, 216.729 104.604 C 217.061 104.272, 216.471 104.036, 215.417 104.079 C 214.252 104.127, 214.015 104.364, 214.813 104.683 M 159.667 111.076 C 158.243 112.739, 157.601 112.914, 156.444 111.954 C 155.230 110.946, 155 111.333, 155 114.378 C 155 117.708, 155.234 118, 157.899 118 C 160.616 118, 160.821 117.716, 161.157 113.500 C 161.353 111.025, 161.499 109, 161.479 109 C 161.460 109, 160.644 109.934, 159.667 111.076 M 210.872 111.993 C 210.524 112.966, 212.513 115.268, 216.584 118.605 L 222.830 123.725 220.665 125.931 L 218.500 128.136 221.250 126.908 C 223.899 125.724, 225.173 122, 222.929 122 C 221.563 122, 218.815 119.264, 217.481 116.578 C 216.914 115.435, 215.476 114.360, 214.286 114.189 C 213.097 114.017, 211.962 113.117, 211.764 112.189 C 211.467 110.790, 211.314 110.756, 210.872 111.993 M 107 114.500 C 107 115.325, 107.177 116, 107.393 116 C 107.609 116, 108.045 115.325, 108.362 114.500 C 108.678 113.675, 108.501 113, 107.969 113 C 107.436 113, 107 113.675, 107 114.500 M 112.405 120.146 C 110.510 122.280, 110.512 122.285, 112.750 121.110 C 113.987 120.461, 115 119.495, 115 118.965 C 115 117.544, 114.521 117.762, 112.405 120.146 M 93 120.059 C 93 120.641, 92.550 120.840, 92 120.500 C 91.450 120.160, 91 120.359, 91 120.941 C 91 122.470, 92.554 122.242, 94 120.500 C 94.860 119.464, 94.898 119, 94.122 119 C 93.505 119, 93 119.477, 93 120.059 M 105.527 124.956 C 105.202 125.482, 104.163 125.641, 103.218 125.309 C 101.812 124.815, 101.729 124.952, 102.757 126.060 C 103.810 127.194, 104.292 127.137, 105.721 125.707 C 106.660 124.768, 107.134 124, 106.773 124 C 106.413 124, 105.852 124.430, 105.527 124.956 M 209.316 128.250 C 205.490 132.292, 203.679 135.722, 204.392 137.578 C 205.196 139.674, 206.563 139.316, 208.388 136.530 C 209.894 134.231, 209.889 134.105, 208.305 134.713 C 206.927 135.242, 207.034 134.761, 208.868 132.186 C 210.114 130.436, 212.240 128.727, 213.593 128.387 C 215.554 127.895, 215.820 127.488, 214.904 126.385 C 213.280 124.427, 212.775 124.596, 209.316 128.250 M 157.500 130 C 157.160 130.550, 157.610 131, 158.500 131 C 159.390 131, 159.840 130.550, 159.500 130 C 159.160 129.450, 158.710 129, 158.500 129 C 158.290 129, 157.840 129.450, 157.500 130 M 155.750 134.662 C 156.438 134.940, 157.563 134.940, 158.250 134.662 C 158.938 134.385, 158.375 134.158, 157 134.158 C 155.625 134.158, 155.063 134.385, 155.750 134.662 M 127 138.893 C 127 139.384, 127.739 140.069, 128.641 140.416 C 130.014 140.943, 130.076 140.796, 129.019 139.523 C 127.579 137.788, 127 137.607, 127 138.893 M 149.638 143.500 C 149.322 144.325, 149.444 145, 149.909 145 C 150.374 145, 151.315 144.325, 152 143.500 C 153.013 142.279, 152.963 142, 151.729 142 C 150.896 142, 149.955 142.675, 149.638 143.500 M 160 148 C 160 149.253, 161.061 149.253, 163 148 C 164.213 147.216, 164.069 147.028, 162.250 147.015 C 161.012 147.007, 160 147.450, 160 148 M 131.750 150.662 C 132.438 150.940, 133.563 150.940, 134.250 150.662 C 134.938 150.385, 134.375 150.158, 133 150.158 C 131.625 150.158, 131.063 150.385, 131.750 150.662 M 122 156 C 122 156.550, 122.648 157, 123.441 157 C 124.234 157, 125.160 156.550, 125.500 156 C 125.840 155.450, 125.191 155, 124.059 155 C 122.927 155, 122 155.450, 122 156 M 164.507 160.989 C 164.157 161.555, 164.558 161.723, 165.448 161.382 C 167.180 160.717, 167.497 160, 166.059 160 C 165.541 160, 164.843 160.445, 164.507 160.989 M 174.983 163.032 C 173.981 164.904, 174.116 165.010, 176.698 164.377 C 178.239 163.999, 181.075 163.116, 183 162.415 L 186.500 161.141 181.285 161.070 C 177.024 161.013, 175.872 161.372, 174.983 163.032" stroke="none" fill="black" fill-rule="evenodd"/>
	<path fill-opacity="0.495" d="M 151.195 12.500 C 151.215 14.150, 151.439 14.704, 151.693 13.731 C 151.947 12.758, 151.930 11.408, 151.656 10.731 C 151.382 10.054, 151.175 10.850, 151.195 12.500 M 163.736 10.598 C 162.762 11.571, 164.099 14, 165.607 14 C 166.373 14, 167 13.100, 167 12 C 167 10.117, 165.052 9.281, 163.736 10.598 M 177.500 11.315 C 179.150 12.086, 180.688 12.555, 180.917 12.358 C 181.638 11.738, 180.595 11.183, 177.498 10.538 L 174.500 9.914 177.500 11.315 M 168.906 15.282 C 167.125 16.643, 165.375 24, 166.832 24 C 168.301 24, 169.713 21.763, 170.466 18.241 C 170.883 16.292, 171.594 15.249, 172.236 15.646 C 172.872 16.039, 173.018 15.839, 172.595 15.155 C 171.704 13.711, 170.926 13.738, 168.906 15.282 M 136.999 17.002 C 136.134 18.619, 136.242 19.156, 137.534 19.652 C 138.426 19.994, 139.848 19.581, 140.694 18.734 C 142.080 17.349, 142.026 17.084, 140.159 16.085 C 138.434 15.162, 137.901 15.317, 136.999 17.002 M 154.208 15.868 C 153.211 16.487, 153.148 17.677, 153.933 21.085 C 154.493 23.513, 154.962 26.803, 154.976 28.395 L 155 31.289 148.750 30.662 C 145.313 30.317, 141.421 29.733, 140.103 29.362 C 137.939 28.755, 137.766 28.933, 138.332 31.187 C 138.823 33.145, 138.477 33.901, 136.729 34.691 C 124.625 40.157, 122.697 41.440, 113.687 50.027 C 104.024 59.237, 102.215 61.701, 106 60.500 C 108.635 59.664, 108.539 60.743, 105.780 62.977 C 103.603 64.740, 103.443 64.696, 97.674 60.779 C 92.381 57.184, 91.635 56.937, 90.253 58.319 C 88.871 59.700, 89.095 60.013, 92.480 61.427 C 94.551 62.292, 96.584 63, 97 63 C 97.415 63, 98.285 63.639, 98.933 64.419 C 99.849 65.523, 99.798 66.023, 98.701 66.669 C 97.374 67.452, 95 71.165, 95 72.460 C 95 72.785, 96.328 72.365, 97.950 71.526 C 99.573 70.687, 101.948 70, 103.228 70 C 104.508 70, 106.475 69.356, 107.599 68.568 L 109.644 67.136 107.774 72.673 C 103.640 84.920, 104.468 97.636, 110.221 110.255 C 113.267 116.936, 113.280 117.035, 111.400 119.216 L 109.500 121.422 112.215 119.711 C 115.298 117.768, 116 117.618, 116 118.905 C 116 119.403, 114.087 120.931, 111.749 122.301 C 109.411 123.672, 106.720 125.652, 105.769 126.702 C 104.101 128.546, 104.152 128.604, 107.250 128.390 C 109.450 128.237, 111.444 127.092, 113.593 124.747 C 116.362 121.726, 116.940 121.483, 118.555 122.664 C 119.560 123.399, 120.056 124, 119.656 124 C 118.159 124, 126.103 130.232, 131.201 133.057 C 135.934 135.680, 136.258 136.060, 134.229 136.619 C 132.310 137.147, 132.155 137.488, 133.229 138.814 C 134.281 140.113, 134.258 140.238, 133.095 139.537 C 132.142 138.963, 131.920 139.062, 132.405 139.845 C 133.673 141.898, 137 141.201, 137 138.883 C 137 137.165, 137.470 136.857, 139.500 137.245 C 143.044 137.922, 142.620 136.295, 139.049 135.511 C 134.438 134.498, 124.979 127.894, 119.663 121.975 C 110.945 112.269, 106.702 100.888, 106.801 87.473 C 106.936 69.134, 116.842 53.046, 133.711 43.766 C 137.445 41.712, 140.050 40.029, 139.500 40.027 C 137.439 40.020, 126.841 46.672, 121.495 51.329 C 118.445 53.985, 114.615 58.485, 112.984 61.329 C 110.137 66.294, 110.018 66.378, 110.009 63.448 C 110.002 60.947, 111.349 59.114, 117.474 53.285 C 121.584 49.374, 126.197 45.297, 127.724 44.226 C 131.069 41.878, 137.394 39.616, 141.500 39.299 C 164.917 37.488, 169.047 37.938, 179.957 43.487 C 190.374 48.784, 200.005 59.583, 204.388 70.879 C 209.604 84.323, 207.427 103.649, 199.341 115.675 L 196.769 119.500 199.284 117.170 C 202.915 113.806, 206.853 104.327, 208.240 95.613 C 209.066 90.418, 209.918 87.932, 210.971 87.647 C 212.196 87.314, 212.161 87.209, 210.795 87.116 C 209.631 87.037, 208.901 85.811, 208.493 83.250 C 208.164 81.188, 207.444 77.517, 206.893 75.092 C 206.120 71.690, 206.189 70.496, 207.196 69.858 C 208.181 69.233, 208.087 69.027, 206.809 69.015 C 204.212 68.992, 203.589 67.037, 205.650 65.378 C 207.388 63.980, 207.368 63.953, 205.317 64.944 C 203.458 65.842, 203.029 65.665, 202.423 63.749 C 202.032 62.512, 200.599 60.038, 199.237 58.250 C 197.265 55.660, 197.084 55, 198.346 55 C 199.720 55, 202 52.232, 202 50.566 C 202 49.379, 198.580 50.070, 196.892 51.598 C 195.921 52.477, 194.625 52.886, 194.012 52.508 C 193.328 52.085, 196.104 48.557, 201.199 43.372 C 208.876 35.560, 211.411 32, 209.296 32 C 207.513 32, 204.077 35.144, 201.920 38.749 C 200.686 40.812, 198.788 43.495, 197.701 44.710 L 195.726 46.921 193.760 44.422 C 192.679 43.047, 189.509 40.618, 186.717 39.023 C 182.750 36.757, 181.222 36.346, 179.734 37.142 C 178.686 37.703, 177.685 38.013, 177.509 37.831 C 177.333 37.649, 178.954 33.269, 181.110 28.098 C 183.266 22.927, 184.842 18.509, 184.612 18.279 C 184.383 18.049, 183.310 18.414, 182.229 19.089 C 180.850 19.950, 179.906 22.318, 179.065 27.025 C 178.097 32.442, 177.398 33.984, 175.433 35.036 C 174.095 35.752, 173 36.926, 173 37.644 C 173 38.599, 172.128 38.755, 169.750 38.225 C 165.276 37.227, 148.239 37.312, 144.143 38.353 C 141.058 39.137, 140.870 39.056, 141.828 37.353 C 142.718 35.770, 144.299 35.470, 152.685 35.296 C 167.365 34.990, 172.857 34.577, 172.384 33.811 C 172.149 33.433, 172.730 32.691, 173.674 32.162 C 175.098 31.366, 174.718 31.015, 171.445 30.107 C 166.706 28.791, 161.294 28.669, 160.833 29.868 C 160.650 30.345, 159.505 31.045, 158.290 31.423 C 156.143 32.090, 156.071 31.866, 155.790 23.588 C 155.563 16.926, 155.218 15.241, 154.208 15.868 M 192 16.493 C 192 17.170, 200.123 21.211, 200.575 20.758 C 200.785 20.549, 198.941 19.398, 196.478 18.202 C 194.015 17.005, 192 16.236, 192 16.493 M 146.027 18.250 C 146.042 18.938, 147.429 21.075, 149.110 23 C 151.927 26.226, 152.121 26.304, 151.597 24 C 151.283 22.625, 151.021 20.488, 151.014 19.250 C 151.003 17.520, 150.422 17, 148.500 17 C 147.125 17, 146.012 17.563, 146.027 18.250 M 131.658 26.250 C 133.897 31.810, 136.965 37.037, 135.618 33 C 135.343 32.175, 134.610 28.913, 133.988 25.750 C 133.097 21.217, 132.465 20, 130.999 20 C 129.257 20, 129.299 20.394, 131.658 26.250 M 183.676 25.143 C 181.560 30.530, 182.147 31.117, 185.013 26.479 C 186.447 24.159, 186.907 22.507, 186.292 21.892 C 185.677 21.277, 184.735 22.447, 183.676 25.143 M 200.183 25.500 C 200.450 28.865, 200.818 29.447, 202.500 29.166 C 205.387 28.685, 206.504 27.312, 205.243 25.792 C 204.653 25.082, 204.169 24.125, 204.168 23.667 C 204.167 23.208, 203.832 22.533, 203.423 22.167 C 203.014 21.800, 203.003 22.063, 203.399 22.750 C 203.794 23.438, 203.731 24, 203.259 24 C 202.787 24, 201.830 23.438, 201.133 22.750 C 200.113 21.743, 199.928 22.279, 200.183 25.500 M 107.872 24.750 C 106.629 26.336, 106.664 26.371, 108.250 25.128 C 109.916 23.821, 110.445 23, 109.622 23 C 109.415 23, 108.627 23.788, 107.872 24.750 M 213 31.500 C 216.543 35.075, 219.667 38, 219.942 38 C 220.217 38, 217.543 35.075, 214 31.500 C 210.457 27.925, 207.333 25, 207.058 25 C 206.783 25, 209.457 27.925, 213 31.500 M 101.453 30.250 L 97.500 34.500 101.750 30.547 C 105.702 26.871, 106.460 26, 105.703 26 C 105.540 26, 103.627 27.913, 101.453 30.250 M 104.733 31.124 C 105.412 31.808, 106.219 32.115, 106.526 31.807 C 106.834 31.499, 106.279 30.940, 105.293 30.564 C 103.868 30.022, 103.753 30.136, 104.733 31.124 M 122.934 34.472 C 118.798 36.627, 114.807 40, 116.393 40 C 117.165 40, 128 32.866, 128 32.358 C 128 31.839, 127.935 31.866, 122.934 34.472 M 93.403 38.805 C 89.255 44.134, 86.193 49.694, 86.840 50.721 C 88.225 52.919, 91.486 52.610, 93.185 50.119 C 94.712 47.882, 94.727 47.373, 93.353 44.715 C 91.902 41.910, 91.957 41.655, 94.605 38.891 C 96.128 37.301, 96.952 36.025, 96.437 36.055 C 95.922 36.086, 94.556 37.323, 93.403 38.805 M 213.605 38.586 C 213.271 39.458, 213.362 40.825, 213.809 41.624 C 214.490 42.840, 214.912 42.755, 216.409 41.101 C 218.272 39.042, 217.843 37, 215.548 37 C 214.814 37, 213.940 37.714, 213.605 38.586 M 219.435 40.106 C 218.984 40.834, 219.113 41.048, 219.760 40.648 C 220.349 40.284, 221.803 41.563, 222.996 43.494 C 225.663 47.808, 226.808 48.184, 224.307 43.923 C 221.870 39.774, 220.368 38.596, 219.435 40.106 M 179 41.318 C 179.275 41.590, 181.926 43.442, 184.890 45.433 C 190.784 49.392, 193.161 49.680, 187.816 45.788 C 184.907 43.670, 177.673 40.002, 179 41.318 M 223.750 52.536 C 222.787 53.823, 222 55.288, 222 55.791 C 222 56.295, 218.850 58.801, 215 61.361 C 211.150 63.921, 208 66.202, 208 66.430 C 208 67.353, 225.585 59.749, 226.660 58.361 C 227.439 57.356, 227.531 55.853, 226.941 53.795 C 225.796 49.802, 225.795 49.802, 223.750 52.536 M 82.685 57.315 C 79.136 66.179, 79.342 67.121, 83.068 59.066 C 84.705 55.527, 85.892 52.176, 85.707 51.620 C 85.521 51.064, 84.161 53.626, 82.685 57.315 M 228.516 52.750 C 228.917 53.712, 230.157 57.096, 231.272 60.268 C 232.386 63.440, 233.528 65.805, 233.809 65.524 C 234.389 64.944, 229.104 51, 228.305 51 C 228.019 51, 228.114 51.788, 228.516 52.750 M 88.079 62.583 C 88.127 63.748, 88.364 63.985, 88.683 63.188 C 88.972 62.466, 88.936 61.603, 88.604 61.271 C 88.272 60.939, 88.036 61.529, 88.079 62.583 M 81.894 64.333 C 81.226 65.800, 80.275 67, 79.780 67 C 79.286 67, 79.141 67.419, 79.457 67.931 C 79.774 68.443, 79.575 69.144, 79.016 69.490 C 78.457 69.835, 78.029 70.879, 78.063 71.809 C 78.107 72.983, 78.415 72.780, 79.071 71.143 C 79.821 69.270, 80.517 68.913, 82.467 69.402 C 84.329 69.870, 85.195 69.504, 86.060 67.887 C 87.004 66.125, 86.847 65.403, 85.155 63.711 L 83.110 61.665 81.894 64.333 M 230.892 68.919 C 229.639 70.152, 229.390 71.872, 229.761 76.730 C 230.217 82.697, 230.129 83.001, 227.658 83.940 C 226.239 84.479, 222.838 85.218, 220.100 85.581 C 216.764 86.024, 214.392 87.018, 212.911 88.595 C 210.951 90.681, 210.888 91.020, 212.354 91.582 C 214.814 92.526, 231.067 89.249, 233.115 87.396 C 234.091 86.513, 235.100 84.375, 235.358 82.645 C 235.616 80.915, 235.678 84.900, 235.496 91.500 C 235.116 105.244, 232.992 114.095, 227.415 125.168 C 225.469 129.032, 224.292 131.938, 224.798 131.625 C 226.639 130.487, 233.156 115.715, 235.131 108.203 C 237.465 99.325, 238.106 78.038, 236.112 75.635 C 235.482 74.875, 235.246 73.521, 235.590 72.627 C 235.933 71.732, 235.742 71, 235.164 71 C 234.587 71, 234.274 70.175, 234.468 69.167 C 234.901 66.916, 233.059 66.788, 230.892 68.919 M 215.441 76.518 C 216.056 81.335, 216.694 83.511, 217.218 82.576 C 217.667 81.773, 217.558 78.989, 216.975 76.389 C 216.392 73.789, 216.146 71.063, 216.426 70.331 C 216.707 69.599, 216.385 69, 215.709 69 C 214.762 69, 214.701 70.720, 215.441 76.518 M 134.160 73.250 C 134.019 76.550, 134.270 76.986, 136.250 76.884 C 137.849 76.802, 138.010 76.639, 136.809 76.322 C 135.792 76.054, 134.959 74.605, 134.719 72.688 C 134.336 69.625, 134.314 69.647, 134.160 73.250 M 185.637 76.063 C 185.287 77.816, 185 81.020, 185 83.184 C 185 85.348, 184.611 86.878, 184.135 86.584 C 183.660 86.290, 183.201 89.751, 183.116 94.275 C 182.993 100.790, 183.480 103.955, 185.459 109.500 C 186.833 113.350, 187.998 117.625, 188.047 119 L 188.135 121.500 189.236 119.215 C 190.036 117.555, 190.039 111.166, 189.249 95.846 C 188.204 75.579, 187.025 69.124, 185.637 76.063 M 100.783 76.217 C 99.282 77.718, 97.622 78.334, 95.641 78.126 C 92.742 77.822, 92.721 77.856, 93.373 81.933 C 94.089 86.411, 94.202 86.370, 86.678 84.317 C 84.950 83.845, 81 86.452, 81 88.064 C 81 88.479, 84.148 89.381, 87.995 90.068 C 94.387 91.211, 95.163 91.162, 96.995 89.504 C 98.098 88.506, 99 86.912, 99 85.962 C 99 85.011, 99.895 83.999, 100.988 83.713 C 103.031 83.179, 105 79.362, 105 75.935 C 105 73.387, 103.513 73.487, 100.783 76.217 M 76.798 82 C 76.091 89.556, 76.952 99.686, 79.063 108.647 C 80.930 116.573, 89.425 132.999, 95.349 140.136 C 100.117 145.881, 109.199 153.835, 114 156.470 C 116.092 157.618, 114.484 156.166, 108.500 151.504 C 102.838 147.093, 96.336 140.324, 92.334 134.675 C 90.058 131.463, 89.855 130.687, 91.062 129.831 C 92.207 129.019, 92.130 128.931, 90.682 129.400 C 89.205 129.879, 88.240 128.634, 85.524 122.745 C 83.686 118.760, 81.448 112.800, 80.550 109.500 C 78.735 102.831, 77.275 82.691, 78.759 84.793 C 79.479 85.814, 80.180 85.663, 82.086 84.077 L 84.500 82.067 81.310 82.033 C 78.353 82.002, 78.098 81.726, 77.810 78.250 C 77.595 75.650, 77.285 76.801, 76.798 82 M 208.852 75.481 C 208.541 75.792, 208.504 77.185, 208.770 78.576 C 209.132 80.472, 209.786 81.030, 211.377 80.803 C 214.312 80.384, 214.382 75.626, 211.459 75.208 C 210.336 75.047, 209.163 75.170, 208.852 75.481 M 218 75.941 C 218 76.459, 218.450 77.160, 219 77.500 C 219.550 77.840, 220 77.416, 220 76.559 C 220 75.702, 219.550 75, 219 75 C 218.450 75, 218 75.423, 218 75.941 M 140.776 91.250 C 140.567 102.801, 140.197 106.439, 139.250 106.250 C 138.542 106.108, 138.010 106.975, 138.022 108.250 C 138.044 110.500, 138.044 110.500, 140 108 C 141.728 105.790, 141.958 103.853, 141.978 91.323 C 141.998 78.674, 142.188 77.097, 143.750 76.689 C 145.082 76.341, 144.969 76.204, 143.276 76.116 C 141.081 76.002, 141.049 76.198, 140.776 91.250 M 127 80.300 C 127 81.565, 126.604 83.027, 126.120 83.550 C 124.996 84.763, 123.971 118.335, 125.007 120.011 C 125.509 120.823, 126.026 120.073, 126.474 117.883 C 128.150 109.675, 130.422 104.001, 132.266 103.416 C 134.036 102.854, 134.121 102.121, 133.451 93.181 C 132.899 85.829, 132.243 82.895, 130.676 80.776 C 128.178 77.398, 127 77.245, 127 80.300 M 179 79.559 C 179 80.416, 178.550 80.840, 178 80.500 C 177.380 80.117, 177 81.970, 177 85.382 C 177 88.407, 177.450 91.160, 178 91.500 C 179.459 92.402, 179.248 100.733, 177.750 101.338 C 177.003 101.639, 177.205 101.874, 178.250 101.921 C 179.824 101.992, 180 100.792, 180 90 C 180 83.400, 179.775 78, 179.500 78 C 179.225 78, 179 78.702, 179 79.559 M 138.158 83 C 138.158 84.375, 138.385 84.938, 138.662 84.250 C 138.940 83.563, 138.940 82.438, 138.662 81.750 C 138.385 81.063, 138.158 81.625, 138.158 83 M 146.022 95.083 L 146.044 109.500 148 107 C 149.458 105.136, 149.961 102.909, 149.978 98.250 C 149.990 94.765, 150.442 92, 151 92 C 151.550 92, 152 94.080, 152 96.622 C 152 100.618, 152.203 101.076, 153.500 100 C 155.162 98.620, 155.582 96.522, 154 97.500 C 153.396 97.873, 153 96.510, 153 94.059 C 153 91.827, 153.450 90, 154 90 C 154.550 90, 155 89.625, 155 89.167 C 155 88.708, 154.325 88.333, 153.500 88.333 C 152.675 88.333, 152 88.933, 152 89.667 C 152 90.400, 151.325 91, 150.500 91 C 149.311 91, 149 92.438, 149 97.941 C 149 101.759, 148.526 105.175, 147.947 105.533 C 147.229 105.977, 146.947 102.326, 147.062 94.040 C 147.154 87.361, 146.953 81.619, 146.615 81.281 C 146.277 80.943, 146.010 87.154, 146.022 95.083 M 172 82.015 C 171.050 82.619, 170.948 82.975, 171.721 82.985 C 172.393 82.993, 173.365 84.463, 173.881 86.250 C 174.397 88.037, 174.815 88.600, 174.810 87.500 C 174.790 83.352, 173.588 81.004, 172 82.015 M 149 82.786 C 149 83.218, 149.867 83.571, 150.927 83.571 C 151.986 83.571, 152.635 83.218, 152.368 82.786 C 151.736 81.764, 149 81.764, 149 82.786 M 166.759 88.771 C 167.262 98.417, 167.752 99.622, 167.869 91.500 C 167.924 87.650, 167.618 83.947, 167.189 83.271 C 166.759 82.595, 166.566 85.070, 166.759 88.771 M 178.158 84 C 178.158 85.375, 178.385 85.938, 178.662 85.250 C 178.940 84.563, 178.940 83.438, 178.662 82.750 C 178.385 82.063, 178.158 82.625, 178.158 84 M 158.169 90.668 C 157.977 98.802, 158.452 100.636, 161.118 102.063 C 163.172 103.162, 167 101.750, 167 99.893 C 167 99.323, 166.293 99.564, 165.429 100.429 C 163.614 102.243, 163.054 102.319, 161 101.024 C 159.952 100.363, 159.325 97.580, 158.919 91.789 L 158.338 83.500 158.169 90.668 M 171.125 90.691 C 171.056 94.096, 171.450 97.160, 172 97.500 C 173.166 98.221, 173.184 95.365, 172.051 89 L 171.250 84.500 171.125 90.691 M 138.343 93.500 C 138.346 97.900, 138.522 99.576, 138.733 97.224 C 138.945 94.872, 138.942 91.272, 138.727 89.224 C 138.512 87.176, 138.339 89.100, 138.343 93.500 M 178.158 89 C 178.158 90.375, 178.385 90.938, 178.662 90.250 C 178.940 89.563, 178.940 88.438, 178.662 87.750 C 178.385 87.063, 178.158 87.625, 178.158 89 M 173.579 90.872 C 173.196 91.492, 173.295 92, 173.799 92 C 174.303 92, 175.211 93.912, 175.815 96.250 L 176.914 100.500 176.366 96.500 C 175.688 91.559, 174.561 89.283, 173.579 90.872 M 171.638 100.500 C 171.322 101.325, 171.499 102, 172.031 102 C 172.564 102, 173 101.325, 173 100.500 C 173 99.675, 172.823 99, 172.607 99 C 172.391 99, 171.955 99.675, 171.638 100.500 M 96 102.535 C 94.625 103.302, 93.950 103.959, 94.500 103.995 C 95.940 104.090, 91.775 106.419, 90.086 106.463 C 87.830 106.522, 87.692 108.765, 89.874 109.932 C 93.875 112.074, 99.585 107.657, 98.813 103.018 C 98.530 101.318, 98.263 101.272, 96 102.535 M 225.500 102.240 C 224.400 102.853, 222.976 104.059, 222.336 104.920 C 221.696 105.781, 220.384 106.489, 219.422 106.493 C 216.631 106.504, 216.605 108.863, 219.380 110.127 C 221.442 111.067, 222.392 110.973, 224.443 109.629 C 228.499 106.972, 229.495 100.012, 225.500 102.240 M 155 115 C 155 116.333, 155.667 117, 157 117 C 158.333 117, 159 116.333, 159 115 C 159 113.667, 158.333 113, 157 113 C 155.667 113, 155 113.667, 155 115 M 210.137 116.263 C 208.175 118.225, 208.864 119.755, 213.374 123.450 C 216.153 125.727, 218.341 126.807, 219.374 126.410 C 222.029 125.391, 221.276 123.738, 216.137 119.313 C 212.504 116.184, 210.987 115.413, 210.137 116.263 M 190.856 125.394 C 187.753 128.321, 182.827 131.904, 179.910 133.357 C 176.994 134.811, 175.161 136, 175.837 136 C 178.049 136, 186.544 131.228, 189.881 128.111 L 193.145 125.062 192.522 127.901 C 192.023 130.173, 192.287 130.842, 193.844 131.249 C 195.203 131.604, 196.109 131.056, 196.849 129.432 C 197.745 127.465, 197.599 127.007, 195.902 126.469 C 194.564 126.044, 194.194 125.443, 194.792 124.666 C 195.670 123.526, 197.152 119.964, 196.719 120.036 C 196.598 120.057, 193.960 122.467, 190.856 125.394 M 154 123.387 C 154 123.599, 155.350 123.971, 157 124.213 C 158.650 124.455, 160 124.282, 160 123.827 C 160 123.372, 158.650 123, 157 123 C 155.350 123, 154 123.174, 154 123.387 M 154 127.500 C 154 128.333, 154.889 129, 156 129 C 157.100 129, 158.007 128.438, 158.015 127.750 C 158.026 126.917, 158.354 127, 159 128 C 159.828 129.282, 159.972 129.246, 159.985 127.750 C 159.996 126.469, 159.196 126, 157 126 C 155 126, 154 126.500, 154 127.500 M 208.073 130.655 C 205.819 133.215, 204.209 135.542, 204.494 135.827 C 204.779 136.112, 206.620 134.468, 208.584 132.173 C 210.549 129.878, 212.822 128, 213.637 128 C 214.452 128, 214.840 127.550, 214.500 127 C 213.413 125.241, 212.261 125.896, 208.073 130.655 M 218.457 128.863 C 215.067 130.930, 210.302 136.243, 208.716 139.723 C 208.146 140.975, 207.251 142, 206.728 142 C 206.205 142, 203.570 140.151, 200.871 137.892 C 196.628 134.340, 195.746 133.966, 194.349 135.125 C 192.909 136.320, 193.374 137.039, 198.617 141.731 C 205.827 148.184, 209.201 148.701, 211.797 143.750 C 212.733 141.963, 215.863 138.109, 218.750 135.186 C 225.861 127.987, 225.697 124.448, 218.457 128.863 M 93.543 130.953 C 91.840 132.835, 91.861 132.924, 94.138 133.425 C 98.211 134.320, 99.447 134.339, 101.293 133.534 C 102.983 132.798, 102.988 132.644, 101.388 130.876 C 99.192 128.450, 95.778 128.483, 93.543 130.953 M 112.627 138.123 C 107.901 142.041, 104.278 145.641, 104.576 146.123 C 105.964 148.369, 110.242 146.657, 116.420 141.383 C 121.114 137.376, 123 135.083, 123 133.383 C 123 132.072, 122.599 131, 122.110 131 C 121.620 131, 117.353 134.206, 112.627 138.123 M 154 131.833 C 154 132.291, 155.012 132.584, 156.250 132.484 C 157.488 132.385, 158.831 132.797, 159.235 133.402 C 159.687 134.078, 159.975 133.828, 159.985 132.750 C 159.996 131.469, 159.196 131, 157 131 C 155.350 131, 154 131.375, 154 131.833 M 220.399 136.750 C 218.838 138.813, 215.747 142.565, 213.530 145.089 C 210.111 148.983, 210.273 148.886, 214.602 144.452 C 219.530 139.403, 224.610 133, 223.687 133 C 223.440 133, 221.960 134.688, 220.399 136.750 M 154 136.689 C 154 137.565, 155.043 137.952, 157 137.803 C 158.650 137.677, 160 137.271, 160 136.901 C 160 136.530, 158.650 136.029, 157 135.787 C 154.938 135.484, 154 135.766, 154 136.689 M 180.429 139 C 180.429 140.100, 180.782 141, 181.214 141 C 181.646 141, 182 140.100, 182 139 C 182 137.900, 181.646 137, 181.214 137 C 180.782 137, 180.429 137.900, 180.429 139 M 148.787 139.180 C 151.118 140.105, 164.220 140.147, 165.655 139.235 C 166.289 138.831, 162.369 138.500, 156.942 138.500 C 151.515 138.500, 147.845 138.806, 148.787 139.180 M 185 141 C 184.099 141.582, 183.975 141.975, 184.691 141.985 C 185.346 141.993, 186.160 141.550, 186.500 141 C 187.267 139.758, 186.921 139.758, 185 141 M 102 141.969 C 102 142.501, 102.675 142.678, 103.500 142.362 C 104.325 142.045, 105 141.609, 105 141.393 C 105 141.177, 104.325 141, 103.500 141 C 102.675 141, 102 141.436, 102 141.969 M 151.424 146.416 C 150.287 147.212, 148.783 149.780, 148.081 152.122 C 147.380 154.465, 146.411 157.420, 145.928 158.688 L 145.052 160.995 141.239 159.007 C 135.362 155.944, 128.434 155.297, 125.916 157.576 C 123.979 159.329, 123.966 159.466, 125.685 160.144 C 126.683 160.537, 129.075 160.895, 131 160.939 C 132.925 160.984, 136.927 162.149, 139.894 163.530 C 147.249 166.954, 148.795 165.878, 151.884 155.189 C 154.539 146.002, 154.449 144.297, 151.424 146.416 M 160.813 147.683 C 161.534 147.972, 162.397 147.936, 162.729 147.604 C 163.061 147.272, 162.471 147.036, 161.417 147.079 C 160.252 147.127, 160.015 147.364, 160.813 147.683 M 188 154.535 C 186.625 155.302, 183.925 155.950, 182 155.976 C 175.918 156.056, 171.127 157.169, 171.597 158.391 C 171.840 159.026, 170.681 160.348, 169.020 161.329 C 165.607 163.345, 165.179 164.667, 167.750 165.250 C 169.851 165.726, 174.658 163.527, 175.223 161.830 C 175.465 161.104, 178.297 160.449, 182.286 160.194 C 189.285 159.749, 191.383 158.504, 190.827 155.125 C 190.528 153.313, 190.282 153.261, 188 154.535 M 116 157.493 C 116 158.170, 124.123 162.211, 124.575 161.758 C 124.785 161.549, 122.941 160.398, 120.478 159.202 C 118.015 158.005, 116 157.236, 116 157.493 M 151.250 168.689 C 152.213 168.941, 153.787 168.941, 154.750 168.689 C 155.713 168.438, 154.925 168.232, 153 168.232 C 151.075 168.232, 150.287 168.438, 151.250 168.689 M 160.269 168.693 C 161.242 168.947, 162.592 168.930, 163.269 168.656 C 163.946 168.382, 163.150 168.175, 161.500 168.195 C 159.850 168.215, 159.296 168.439, 160.269 168.693" stroke="none" fill="black" fill-rule="evenodd"/>
</svg>