<?xml version="1.0"?><svg xmlns="http://www.w3.org/2000/svg" width="36" height="36" shape-rendering="geometricPrecision" text-rendering="geometricPrecision" image-rendering="optimizeQuality" fill-rule="evenodd" clip-rule="evenodd" viewBox="0 0 36 36"><path fill="#fefefe" d="m-0.1-0.1h36v36h-36v-36z"></path><path fill="#ee4956" d="m20.3 2.7c-0.1 1.8-1 2.7-2.8 2.6l-0.6-0.2c0-0.1-0.1-0.2-0.2-0.2-0.3-0.3-0.6-0.7-0.7-1-0.1-0.4-0.2-0.8-0.2-1.2 0.5-1.4 1.5-1.9 3-1.6 0.8 0.3 1.3 0.8 1.5 1.6z"></path><path fill="#fbfcfb" d="m20.9 4.1c3 1.6 5.9 3.1 8.8 4.7 0.1 0.1 0.2 0.2 0.3 0.2-0.1 0-0.2 0.1-0.3 0.2-0.2 0.4-0.5 0.8-0.6 1.3-3.1-1.6-6.2-3.3-9.3-4.9-0.1-0.1-0.1-0.2-0.2-0.3 0.4-0.4 0.8-0.8 1.1-1.3 0 0.1 0.1 0.1 0.2 0.1z"></path><path fill="#f7f7f7" d="m15.8 2.7c0 0.4 0.1 0.8 0.2 1.2-0.4 0.4-0.3 0.8 0.4 1.2 0.1-0.1 0.2-0.2 0.3-0.2 0.1 0 0.2 0.1 0.2 0.2 0.1 0.4 0 0.7-0.2 0.9-0.9 0.3-1.6 0.7-2.1 1.3-2.1 1.1-4.1 2.2-6.2 3.2 0.8-0.6 1.7-1.2 2.6-1.7 0.3-0.3 0.6-0.6 1-0.8 1.5-0.7 3-1.5 4.5-2.3-0.1-0.2-0.2-0.2-0.4-0.1-2.9 1.6-5.7 3.1-8.6 4.6-0.3-0.4-0.6-0.8-1-1.2-0.1 0-0.3 0-0.4 0.2-0.2 0-0.3-0.1-0.4-0.3 0.3-0.2 0.7-0.5 1-0.9 0.5-0.2 1-0.4 1.5-0.6-0.6 0.3-1.2 0.7-1.8 1.2 0.7-0.2 1.4-0.5 2.1-0.9 2.3-1.2 4.6-2.5 6.9-3.6l0.1-0.2c-0.1 0-0.3-0.1-0.5 0-1.3 0.5-2.5 1.1-3.7 1.8 0.1-0.2 0.2-0.3 0.3-0.5 1.3-0.7 2.6-1.3 3.9-1.9l0.1 0.1c0-0.2 0.1-0.5 0.2-0.7z"></path><path fill="#b6adad" d="m16 3.9c0.1 0.3 0.4 0.7 0.7 1-0.1 0-0.2 0.1-0.3 0.2-0.7-0.4-0.8-0.8-0.4-1.2z"></path><path fill="#fbfbfb" d="m18.6 9.5c1.7 1 3.4 1.9 5 2.9 0 0.3-0.1 0.5-0.3 0.7-1.2-0.6-2.4-1.2-3.5-1.8-0.4-0.3-0.7-0.5-1.2-0.7-0.1 1.6-0.2 3.3-0.1 4.9h-0.7c0-1.6 0-3.3-0.2-4.9-1.5 0.9-3 1.7-4.6 2.5-0.1-0.2-0.3-0.4-0.6-0.6 0.3-0.1 0.5-0.2 0.6-0.3 1.5-0.9 3.1-1.8 4.6-2.6 0.2-1.2 0.2-2.5 0.2-3.8h0.7c-0.1 1.3 0 2.5 0.1 3.7z"></path><path fill="#d5d5d5" d="m15 3.9c-2.1 1.3-4.3 2.5-6.6 3.5 0.3-0.4 0.7-0.7 1.1-1 0.6-0.3 1.2-0.5 1.8-0.7 1.2-0.7 2.4-1.3 3.7-1.8z"></path><path fill="#fdfdfd" d="m16.9 5.1l0.6 0.2c-0.1 0.1-0.2 0.2-0.3 0.4-0.1 1.1-0.2 2.3-0.3 3.4-0.9 0.6-1.8 1.2-2.8 1.6-0.2 0.1-0.3 0.3-0.4 0.5-0.8 0.3-1.3 0.8-1.5 1.7-1-0.7-1.8-0.6-2.6 0.2-0.4 1-0.2 1.8 0.7 2.3-0.1 0.1-0.2 0.3-0.3 0.4 0 1.6-0.1 3.2-0.3 4.8-0.4 0.2-0.8 0.4-1.1 0.8-0.9 0.2-1.7 0.6-2.3 1.3l-0.5-0.3c0-0.1 0-0.1-0.1-0.2 0.2-0.1 0.3-0.4 0.3-0.6 0.2-2.8 0.3-5.5 0.1-8.3-0.2-0.1-0.4-0.2-0.4-0.4 1.1-0.6 1.5-1.5 1.3-2.7 0.4 0.2 0.8 0.3 1.4 0.3 2.1-1 4.1-2.1 6.2-3.2 0.5-0.6 1.2-1 2.1-1.3 0.2-0.2 0.3-0.5 0.2-0.9z"></path><path fill="#fcfcfb" d="m23.8 8.1c0.4 0.3 0.8 0.7 1.2 1 1 0.5 2 1 2.9 1.6 0.5 0.1 1 0.1 1.6 0.1-0.1 0.2 0 0.4 0.1 0.5 0.1 0.6 0.4 1 0.8 1.4 0.1 0.3 0 0.6-0.3 0.7-0.1 2.9-0.1 5.7 0 8.6 0.2 0.2 0.3 0.3 0.5 0.4-0.3 0.4-0.6 0.8-0.9 1.2-0.1 0.4-0.1 0.9-0.1 1.4 0 0 0 0.1-0.1 0.1-0.2-0.3-0.5-0.3-0.9-0.2-0.4 0.2-0.8 0.5-1.2 0.6-1 0.4-1.9 0.8-2.9 1.2-0.7 0.6-1.6 1.1-2.5 1.5-0.1 0.2-0.3 0.4-0.4 0.6-0.9 0.3-1.7 0.8-2.4 1.5-0.6-0.3-1.3-0.3-2-0.1-0.4-0.6-0.9-1-1.5-1.4-2.6-1.3-5.2-2.7-7.8-4-0.2-0.1-0.5-0.1-0.8-0.1v-0.6c1.1 0 2.1-0.4 3-1 0.5-0.1 1-0.1 1.5 0 1.3 0.8 2.6 1.5 3.9 2.2 0.4 0.1 0.8 0.1 1.2-0.1 0.4 1.4 1.3 1.8 2.6 1.1 0.3-0.3 0.5-0.6 0.6-0.9 0.1-0.1 0.2-0.3 0.2-0.4 0.4 0.1 0.9 0.1 1.3 0 0.7-0.4 1.3-0.8 2-1.1 0.2-0.1 0.3-0.3 0.4-0.5 0.6-0.2 1.2-0.4 1.8-0.7 1 0.4 2.1 0.8 3.2 1.3l0.2-0.2c-1.1-0.6-2.2-1.1-3.4-1.7-1.7 0.9-3.4 1.8-5 2.7-0.1 0-0.2 0.1-0.2 0.2-0.1-0.4-0.2-0.7-0.2-1 1.5-0.7 2.9-1.5 4.3-2.4-1.3-0.8-2.7-1.5-4.2-2.1-0.2-0.2-0.3-0.4-0.5-0.6 0.1-0.2 0.3-0.4 0.5-0.5 1.5 0.7 2.9 1.5 4.4 2.2 0.1-1.4 0.2-2.9 0.1-4.4 0.2-0.2 0.5-0.3 0.9-0.2-0.1 1.7 0 3.5 0.1 5.2 1 0.4 1.9 0.9 2.8 1.4 0.3 0.2 0.6 0.2 0.9 0.2-1-0.5-1.9-1-2.9-1.5-0.2-0.2-0.4-0.4-0.5-0.7 0-1.5 0-3-0.1-4.5 0-0.1-0.1-0.2-0.2-0.3-0.5-0.2-0.9-0.1-1.3 0.2-0.1 1.2-0.1 2.5-0.1 3.8h-0.7c-0.1-0.3-0.3-0.5-0.4-0.7-0.7-0.4-1.4-0.8-2.1-1.1-0.4-0.1-0.8-0.1-1.2 0.1-0.1-0.4-0.1-0.7-0.2-1-0.2-0.5-0.6-0.8-1-1 0-0.1-0.1-0.2-0.2-0.2 0.2-0.1 0.3-0.3 0.4-0.5 0-1.2 0.1-2.4 0.3-3.5 0.1-0.1 0.3-0.2 0.5-0.2 1.1 0.3 2.2 0.9 3.1 1.7 0.2 0.1 0.5 0 0.8-0.1-0.1 1.8 0.7 2.4 2.4 2 0.6-0.5 0.9-1.2 0.6-2-0.6-0.8-1.3-1.1-2.3-0.7-0.1-0.3-0.2-0.5-0.4-0.8-1.5-0.9-3-1.7-4.5-2.6-0.1-1-0.2-2-0.2-3.1 1.1 0.5 2.1 1 3.1 1.6 0.5 0.2 1 0.3 1.4 0.4z"></path><path fill="#e2e2e2" d="m20.3 2.7c0.1 0.2 0.2 0.5 0.2 0.7l0.2-0.1c3.1 1.6 6.2 3.2 9.3 4.9 0.3 0.2 0.5 0.5 0.7 0.7-0.3 0.3-0.5 0.5-0.8 0.7 0-0.1 0-0.2 0.1-0.3-0.1-0.1-0.2-0.1-0.3-0.1 0.1-0.1 0.2-0.2 0.3-0.2-0.1 0-0.2-0.1-0.3-0.2 0.1 0 0.2 0 0.3-0.1-0.7-0.3-1.3-0.7-1.9-1.2-0.9-0.2-1.6-0.6-2.3-1.2-1.5-0.6-3-1.4-4.5-2.2-0.2-0.1-0.3-0.1-0.4 0-0.1 0-0.2 0-0.2-0.1-0.3 0.5-0.7 0.9-1.1 1.3 0.1 0.1 0.1 0.2 0.2 0.3-0.2 0-0.2 0.1 0 0.2 1.1 0.6 2.3 1.2 3.5 1.8 0.2 0.1 0.4 0.3 0.5 0.5-0.4-0.1-0.9-0.2-1.4-0.4-1-0.6-2-1.1-3.1-1.6 0 1.1 0.1 2.1 0.2 3.1 1.5 0.9 3 1.7 4.5 2.6 0.2 0.3 0.3 0.5 0.4 0.8-0.1 0.1-0.3 0.2-0.4 0.3 0-0.5-0.2-0.8-0.6-1.1-1.4-0.6-2.7-1.3-4-2-0.1-0.2-0.2-0.4-0.3-0.6l-0.3-3.4c-0.2 1.3-0.2 2.5-0.2 3.7-0.1-1.2-0.2-2.4-0.1-3.7h-0.7c0 1.3 0 2.6-0.2 3.8 0.1-1.2 0-2.5 0-3.8 0 1.3-0.1 2.5-0.3 3.7-0.2 0.2-0.5 0.4-0.8 0.5-0.5 0.1-0.9 0.2-1.4 0.4-0.2 0.2-0.3 0.3-0.4 0.5-0.4 0-0.7 0.1-1 0.3 0.1-0.2 0.2-0.4 0.4-0.5 1-0.4 1.9-1 2.8-1.6 0.1-1.1 0.2-2.3 0.3-3.4 0.1-0.2 0.2-0.3 0.3-0.4 1.8 0.1 2.7-0.8 2.8-2.6z"></path><path fill="#aaa" d="m20.9 4.1c0.1-0.1 0.2-0.1 0.4 0 1.5 0.8 3 1.6 4.5 2.2 0.7 0.6 1.4 1 2.3 1.2 0.6 0.5 1.2 0.9 1.9 1.2-0.1 0.1-0.2 0.1-0.3 0.1-2.9-1.6-5.8-3.1-8.8-4.7z"></path><path fill="#ababab" d="m15 3.9c0.2-0.1 0.4 0 0.5 0l-0.1 0.2c-2.3 1.1-4.6 2.4-6.9 3.6-0.7 0.4-1.4 0.7-2.1 0.9 0.6-0.5 1.2-0.9 1.8-1.2h0.2c2.3-1 4.5-2.2 6.6-3.5z"></path><path fill="#aeadad" d="m19.8 5.6c3.1 1.6 6.2 3.3 9.3 4.9 0.1-0.5 0.4-0.9 0.6-1.3 0.1 0 0.2 0 0.3 0.1-0.1 0.1-0.1 0.2-0.1 0.3-0.2 0.6-0.3 1.1-0.3 1.7-0.1-0.1-0.2-0.3-0.1-0.5 0-0.1 0-0.2-0.1-0.3-0.3 0.2-0.6 0.2-0.9 0-1.5-0.9-3.1-1.7-4.7-2.4-0.1-0.2-0.3-0.4-0.5-0.5-1.2-0.6-2.4-1.2-3.5-1.8-0.2-0.1-0.2-0.2 0-0.2z"></path><path fill="#aaa" d="m11 8.8c-1 0.4-2.1 0.9-3.1 1.5-0.1 0.1-0.3 0-0.4-0.1 2.9-1.5 5.7-3 8.6-4.6 0.2-0.1 0.3-0.1 0.4 0.1-1.5 0.8-3 1.6-4.5 2.3-0.4 0.2-0.7 0.5-1 0.8z"></path><path fill="#ee4956" d="m5.7 8.9c0.1 0.2 0.2 0.3 0.4 0.3 0.3 0.3 0.6 0.6 0.9 1 0.2 1.2-0.2 2.1-1.3 2.7-0.1-0.1-0.2 0-0.3 0.1h-1.4c-1.4-0.7-1.8-1.8-1.2-3.2 0.8-1 1.7-1.3 2.9-0.9z"></path><path fill="#ee4855" d="m32.8 12.9c-0.8 0.2-1.6 0.2-2.4-0.2-0.4-0.4-0.7-0.8-0.8-1.4 0-0.6 0.1-1.1 0.3-1.7 0.3-0.2 0.5-0.4 0.8-0.7 2.3-0.4 3.4 0.5 3.2 2.8-0.2 0.6-0.6 1-1.1 1.2z"></path><path fill="#d2d0d0" d="m11 8.8c-0.9 0.5-1.8 1.1-2.6 1.7-0.6 0-1-0.1-1.4-0.3-0.3-0.4-0.6-0.7-0.9-1 0.1-0.2 0.3-0.2 0.4-0.2 0.4 0.4 0.7 0.8 1 1.2 0.1 0.1 0.3 0.2 0.4 0.1 1-0.6 2.1-1.1 3.1-1.5z"></path><path fill="#e6e6e6" d="m23.8 8.1c1.6 0.7 3.2 1.5 4.7 2.4 0.3 0.2 0.6 0.2 0.9 0 0.1 0.1 0.1 0.2 0.1 0.3-0.6 0-1.1 0-1.6-0.1-0.9-0.6-1.9-1.1-2.9-1.6-0.4-0.3-0.8-0.7-1.2-1z"></path><path fill="#adadad" d="m24 12.9c0 0.2-0.1 0.3-0.3 0.4-0.3 0.1-0.6 0.2-0.8 0.1-0.9-0.8-2-1.4-3.1-1.7-0.2-0.2-0.4-0.3-0.7-0.2 0 0.2-0.1 0.4-0.2 0.5v-0.8c0.3 0 0.6 0 0.9 0.1 1.1 0.6 2.3 1.2 3.5 1.8 0.2-0.2 0.3-0.4 0.3-0.7-1.6-1-3.3-1.9-5-2.9 0-1.2 0-2.4 0.2-3.7l0.3 3.4c0.1 0.2 0.2 0.4 0.3 0.6 1.3 0.7 2.6 1.4 4 2 0.4 0.3 0.6 0.6 0.6 1.1z"></path><path fill="#919191" d="m18.6 10.6c0.5 0.2 0.8 0.4 1.2 0.7-0.3-0.1-0.6-0.1-0.9-0.1v0.8c-0.1 0-0.1 0.1-0.2 0.2-0.1-0.5-0.1-1.1-0.1-1.6z"></path><path fill="#adadad" d="m17.6 9.6c-1.5 0.8-3.1 1.7-4.6 2.6-0.3 0-0.3-0.1-0.1-0.2 0.6-0.4 1.2-0.7 1.8-1.1 0.1-0.2 0.2-0.3 0.4-0.5 0.5-0.2 0.9-0.3 1.4-0.4 0.3-0.1 0.6-0.3 0.8-0.5 0.2-1.2 0.3-2.4 0.3-3.7 0 1.3 0.1 2.6 0 3.8z"></path><path fill="#a6a6a6" d="m17.6 10.6c0.1 1.6 0 3.1 0 4.7-0.1-1.4-0.1-2.8-0.1-4.1-0.2 0-0.5 0-0.7 0.1l-3.4 1.9c-0.1 0.1-0.3 0.1-0.4-0.1 1.6-0.8 3.1-1.6 4.6-2.5z"></path><path fill="#fcfcfc" d="m17.5 16.1c-0.4 0.3-0.7 0.6-0.8 1.1-0.2 0.2-0.2 0.5-0.2 0.7-0.3 0-0.6 0-1 0.1 0 0.1-0.1 0.1-0.1 0.2-0.4 0.4-1 0.7-1.5 0.9-0.5-0.1-0.9 0-1.2 0.2-0.2 0-0.3 0-0.5-0.1 0-1.2-0.1-2.4-0.2-3.5-0.2-0.1-0.3-0.2-0.4-0.3 0.9-0.4 1.2-1.1 1-2.1 0.3 0.1 0.6 0.2 1 0.1l3.5-1.9c0.1 1.4 0.2 2.8 0.2 4.2l0.2 0.4z"></path><path fill="#d3d4d3" d="m17.6 10.6c0.2 1.6 0.2 3.3 0.2 4.9h0.7c-0.1-1.6 0-3.3 0.1-4.9 0 0.5 0 1.1 0.1 1.6 0.1-0.1 0.1-0.2 0.2-0.2 0.1-0.1 0.2-0.3 0.2-0.5 0.3-0.1 0.5 0 0.7 0.2-0.2 0-0.4 0.1-0.5 0.2-0.2 1.1-0.3 2.3-0.3 3.5-0.1 0.2-0.2 0.4-0.4 0.5 0.1 0 0.2 0.1 0.2 0.2h-1.3l-0.2-0.4c0-1.4-0.1-2.8-0.2-4.2l-3.5 1.9c-0.4 0.1-0.7 0-1-0.1-0.2-0.1-0.3-0.2-0.4-0.4 0.2-0.9 0.7-1.4 1.5-1.7 0.3-0.2 0.6-0.3 1-0.3-0.6 0.4-1.2 0.7-1.8 1.1-0.2 0.1-0.2 0.2 0.1 0.2-0.1 0.1-0.3 0.2-0.6 0.3 0.3 0.2 0.5 0.4 0.6 0.6 0.1 0.2 0.3 0.2 0.4 0.1l3.4-1.9c0.2-0.1 0.5-0.1 0.7-0.1 0 1.3 0 2.7 0.1 4.1 0-1.6 0.1-3.1 0-4.7z"></path><path fill="#72c387" d="m23.7 13.3c0.2-0.1 0.3-0.2 0.3-0.4 0.1-0.1 0.3-0.2 0.4-0.3 1-0.4 1.7-0.1 2.3 0.7 0.3 0.8 0 1.5-0.6 2-1.7 0.4-2.5-0.2-2.4-2z"></path><path fill="#73c488" d="m12.2 12.9c0.1 0.2 0.2 0.3 0.4 0.4 0.2 1-0.1 1.7-1 2.1-0.4 0.2-0.8 0.2-1.3 0-0.9-0.5-1.1-1.3-0.7-2.3 0.8-0.8 1.6-0.9 2.6-0.2z"></path><path fill="#fdfdfd" d="m5 13.6c0.2-0.1 0.4 0 0.6 0.1v7.6c0 0.2-0.1 0.4-0.2 0.6-0.5-0.2-0.9-0.2-1.4 0-0.1-2.8-0.2-5.7-0.1-8.5 0.3 0.1 0.7 0.2 1.1 0.2z m27.3 8v0.1c-0.6 0.1-1.2 0.1-1.7 0v-8.1c0-0.1 0-0.2 0.1-0.3 0.5 0.2 1 0.3 1.6 0.3v8z"></path><path fill="#c1bebe" d="m4 13h1.4c0 0.1-0.1 0.2-0.3 0.2l0.3 0.2c-0.2 0-0.3 0.1-0.4 0.2-0.4 0-0.8-0.1-1.1-0.2-0.1 2.8 0 5.7 0.1 8.5 0.5-0.2 0.9-0.2 1.4 0l-0.3 0.2c-0.6 0-1.2 0.1-1.7 0.5-0.1-3-0.1-6.1 0.1-9.2 0.2-0.1 0.3-0.3 0.5-0.4z"></path><path fill="#b1b1b1" d="m5.6 21.3v-7.6c0.1 0 0.1-0.1 0.2-0.3l0.1 0.3c0.1 2.6 0 5.2-0.1 7.7-0.1 0-0.2-0.1-0.2-0.1z"></path><path fill="#e0dfdf" d="m32.7 13.4c0.1 0 0.2 0.1 0.2 0.2 0.1 2.6 0.1 5.2 0 7.8-0.4 0.3-0.5 0.5-0.3 0.9l-0.6-0.2 0.3-0.4v-0.1c0.1 0 0.2 0 0.3-0.2 0.1-2.6 0.1-5.3 0.1-8z"></path><path fill="#a9a9a9" d="m30.6 13.6v8.1c-0.2-1.3-0.3-2.7-0.3-4.1l0.1-4.2c0 0.1 0.1 0.2 0.2 0.2z"></path><path fill="#fafafa" d="m11.2 16l0.3 4.6 4.7-2.4c0.1 0.3 0.3 0.5 0.5 0.7-0.1 0.1-0.2 0.2-0.3 0.3-1.6 0.7-3.2 1.5-4.7 2.4 1.5 0.9 3 1.7 4.5 2.5 0.1 0.3 0.1 0.7-0.1 1-0.1 0-0.2-0.1-0.3-0.1-1.7-1-3.4-2-5.2-2.9-1 0.5-2.1 1-3.1 1.5-0.2-0.2-0.4-0.4-0.5-0.7 0.2-0.1 0.4-0.2 0.5-0.3 1-0.5 2-1 3-1.6 0.1-1.6 0.2-3.3 0.1-5h0.6z"></path><path fill="#72c387" d="m17.5 16.1h1.3c0.4 0.2 0.8 0.5 1 1 0.1 0.8-0.2 1.5-0.9 2-0.6 0.2-1.3 0.1-1.8-0.3-0.3-0.5-0.5-1-0.4-1.6 0.1-0.5 0.4-0.8 0.8-1.1z"></path><path fill="#c7c7c7" d="m11.2 16h-0.6c0.1 1.7 0 3.4-0.1 5 0-1.6 0-3.2-0.1-4.8l-0.1 4.7c-0.4 0.3-0.8 0.5-1.2 0.5 0.4-0.1 0.7-0.4 1-0.8 0.1-1.5 0.1-3 0.2-4.5 0.2-0.4 0.6-0.5 1-0.3-0.1 0-0.1 0.1-0.1 0.2z"></path><path fill="#c5c5c5" d="m26.1 20.6c-0.1-1.4-0.2-2.9-0.2-4.4-0.1 1.7-0.1 3.3-0.1 5-0.1-1.7-0.2-3.5-0.1-5.2-0.4-0.1-0.7 0-0.9 0.2-0.1 1.2-0.2 2.5-0.2 3.7-0.3 0.2-0.6 0.1-0.9-0.1h0.7c0-1.3 0-2.6 0.1-3.8 0.4-0.3 0.8-0.4 1.3-0.2 0.1 0.1 0.2 0.2 0.2 0.3 0.1 1.5 0.1 3 0.1 4.5z"></path><path fill="#bebcbc" d="m30.4 12.7c0.8 0.4 1.6 0.4 2.4 0.2 0 0.1-0.1 0.1-0.2 0.2 0.1 0.1 0.1 0.2 0.1 0.3 0 2.7 0 5.4-0.1 8-0.1 0.2-0.2 0.2-0.3 0.2v-8c-0.6 0-1.1-0.1-1.6-0.3-0.1 0.1-0.1 0.2-0.1 0.3-0.1 0-0.2-0.1-0.2-0.2l-0.1 4.2c0 1.4 0.1 2.8 0.3 4.1 0.5 0.1 1.1 0.1 1.7 0l-0.3 0.4c-0.5 0-1 0.1-1.4 0.3-0.2-0.1-0.3-0.2-0.5-0.4-0.1-2.9-0.1-5.7 0-8.6 0.3-0.1 0.4-0.4 0.3-0.7z"></path><path fill="#a7a7a7" d="m13.9 19.1c0.5-0.2 1.1-0.5 1.5-0.9 0.3-0.1 0.6-0.1 0.8 0l-4.7 2.4c-0.1-1.5 0-3.1 0-4.6 0.1 1.3 0.1 2.6 0.1 3.9 0.8 0 1.6-0.3 2.3-0.8z"></path><path fill="#e3e0e1" d="m5.7 12.9c0 0.2 0.2 0.3 0.4 0.4 0.2 2.8 0.1 5.5-0.1 8.3 0 0.2-0.1 0.5-0.3 0.6 0.1 0.1 0.1 0.1 0.1 0.2-0.2 0-0.5-0.1-0.7-0.3l0.3-0.2c0.1-0.2 0.2-0.4 0.2-0.6 0 0 0.1 0.1 0.2 0.1 0.1-2.5 0.2-5.1 0.1-7.7l-0.1-0.3c-0.1 0.2-0.1 0.3-0.2 0.3-0.2-0.1-0.4-0.2-0.6-0.1 0.1-0.1 0.2-0.2 0.4-0.2l-0.3-0.2c0.2 0 0.3-0.1 0.3-0.2 0.1-0.1 0.2-0.2 0.3-0.1z"></path><path fill="#aaa" d="m24.8 16.2c0.1 1.5 0 3-0.1 4.4-1.5-0.7-2.9-1.5-4.4-2.2 0.1-0.1 0.1-0.2 0.2-0.2 0.3 0.1 0.6 0.3 0.9 0.4 0.7 0.5 1.5 0.9 2.3 1.2 0.3 0.2 0.6 0.3 0.9 0.1 0-1.2 0.1-2.5 0.2-3.7z"></path><path fill="#fcfcfc" d="m17.1 18.8c0.5 0.4 1.2 0.5 1.8 0.3 0.2 0.1 0.4 0.4 0.6 0.6 0.6 0.3 1.3 0.5 1.9 0.8l0.3 0.5c0.5 0.1 0.9 0.4 1.3 0.7-0.5 0.2-0.9 0.5-1.3 0.9-0.9 0.2-1.7 0.6-2.2 1.4-1.1-0.7-1.9-0.6-2.7 0.4-0.1-0.2-0.2-0.3-0.4-0.4-0.8-0.5-1.6-0.9-2.4-1.4-0.3-0.4-0.6-0.7-1-0.9 1.1-0.9 2.3-1.5 3.5-2.1 0.2-0.3 0.4-0.6 0.6-0.8z"></path><path fill="#a6a6a6" d="m20.3 19.5c1.5 0.6 2.9 1.3 4.2 2.1-1.4 0.9-2.8 1.7-4.3 2.4 0.6-0.5 1.2-0.9 1.8-1.4 0.7-0.1 1.3-0.4 1.8-0.9-0.6-0.6-1.4-1-2.2-1.3-0.6-0.3-1-0.6-1.3-0.9z"></path><path fill="#d5d7d6" d="m16.7 17.2c-0.1 0.6 0.1 1.1 0.4 1.6-0.2 0.2-0.4 0.5-0.6 0.8-1.2 0.6-2.4 1.2-3.5 2.1 0.4 0.2 0.7 0.5 1 0.9-0.5-0.2-1-0.4-1.4-0.7-0.1-0.2-0.2-0.4-0.2-0.6 1.4-0.6 2.7-1.2 4-1.9 0.2-0.1 0.2-0.2 0-0.2 0.1-0.1 0.2-0.2 0.3-0.3-0.2-0.2-0.4-0.4-0.5-0.7-0.2-0.1-0.5-0.1-0.8 0 0-0.1 0.1-0.1 0.1-0.2 0.4-0.1 0.7-0.1 1-0.1 0-0.2 0-0.5 0.2-0.7z"></path><path fill="#a4a4a4" d="m16.4 19.2c0.2 0 0.2 0.1 0 0.2-1.3 0.7-2.6 1.3-4 1.9 0 0.2 0.1 0.4 0.2 0.6 0.4 0.3 0.9 0.5 1.4 0.7 0.8 0.5 1.6 0.9 2.4 1.4 0 0.1-0.1 0.1-0.2 0.1-1.5-0.8-3-1.6-4.5-2.5 1.5-0.9 3.1-1.7 4.7-2.4z"></path><path fill="#e1e1e1" d="m19.8 17.1c0.1 0.3 0.1 0.6 0.2 1 0.4-0.2 0.8-0.2 1.2-0.1 0.7 0.3 1.4 0.7 2.1 1.1 0.1 0.2 0.3 0.4 0.4 0.7-0.8-0.3-1.6-0.7-2.3-1.2-0.3-0.1-0.6-0.3-0.9-0.4-0.1 0-0.1 0.1-0.2 0.2-0.2 0.1-0.4 0.3-0.5 0.5 0.2 0.2 0.3 0.4 0.5 0.6 0.3 0.3 0.7 0.6 1.3 0.9 0.8 0.3 1.6 0.7 2.2 1.3-0.5 0.5-1.1 0.8-1.8 0.9-0.6 0.5-1.2 0.9-1.8 1.4 0 0.3 0.1 0.6 0.2 1 0-0.1 0.1-0.2 0.2-0.2 0.1 0.2 0.2 0.2 0.4 0.1 0.9-0.5 1.9-1 2.8-1.5-0.1 0.2-0.2 0.4-0.4 0.5-0.7 0.3-1.3 0.7-2 1.1-0.4 0.1-0.9 0.1-1.3 0 0 0.1-0.1 0.3-0.2 0.4 0-0.5-0.1-1-0.4-1.4 0.5-0.8 1.3-1.2 2.2-1.4 0.4-0.4 0.8-0.7 1.3-0.9-0.4-0.3-0.8-0.6-1.3-0.7l-0.3-0.5c-0.6-0.3-1.3-0.5-1.9-0.8-0.2-0.2-0.4-0.5-0.6-0.6 0.7-0.5 1-1.2 0.9-2z"></path><path fill="#a9a9a9" d="m10.5 21c-1 0.6-2 1.1-3 1.6-0.2 0-0.3-0.1-0.1-0.2 0.6-0.3 1.1-0.6 1.7-1 0.4 0 0.8-0.2 1.2-0.5l0.1-4.7c0.1 1.6 0.1 3.2 0.1 4.8z m15.6-0.4c0.1 0.3 0.3 0.5 0.5 0.7 1 0.5 1.9 1 2.9 1.5-0.3 0-0.6 0-0.9-0.2-0.9-0.5-1.8-1-2.8-1.4 0-1.7 0-3.3 0.1-5 0 1.5 0.1 3 0.2 4.4z"></path><path fill="#ee4a57" d="m5.1 22.1c0.2 0.2 0.5 0.3 0.7 0.3l0.5 0.3c0.6 0.6 0.8 1.4 0.7 2.3-0.3 0.4-0.6 0.8-1 1.2-2.3 0.7-3.5-0.1-3.5-2.5 0.2-0.5 0.5-0.9 0.9-1.1 0.5-0.4 1.1-0.5 1.7-0.5z"></path><path fill="#ee4956" d="m32 22.1l0.6 0.2c1.3 0.6 1.7 1.7 1.2 3.1-0.9 1.2-2 1.4-3.4 0.7-0.3-0.4-0.6-0.7-0.8-1.1 0-0.5 0-1 0.1-1.4 0.3-0.4 0.6-0.8 0.9-1.2 0.4-0.2 0.9-0.3 1.4-0.3z"></path><path fill="#a6a6a6" d="m15.8 25c0 0 0 0.1-0.1 0.1-1.6-0.8-3.1-1.7-4.7-2.6-0.4-0.1-0.8-0.1-1.1 0.2-0.8 0.3-1.6 0.7-2.3 1.1-0.1 0-0.1-0.1-0.1-0.2 1-0.5 2.1-1 3.1-1.5 1.8 0.9 3.5 1.9 5.2 2.9z"></path><path fill="#73c488" d="m19.5 24c0.3 0.4 0.4 0.9 0.4 1.4-0.1 0.3-0.3 0.6-0.6 0.9-1.3 0.7-2.2 0.3-2.6-1.1-0.1-0.3 0-0.5 0.1-0.8 0.8-1 1.6-1.1 2.7-0.4z"></path><path fill="#bab9b9" d="m23.8 23.4c-0.9 0.5-1.9 1-2.8 1.5-0.2 0.1-0.3 0.1-0.4-0.1 1.6-0.9 3.3-1.8 5-2.7 1.2 0.6 2.3 1.1 3.4 1.7l-0.2 0.2c-1.1-0.5-2.2-0.9-3.2-1.3-0.6 0.3-1.2 0.5-1.8 0.7z"></path><path fill="#d1d1d1" d="m15.8 25c0.1 0 0.2 0.1 0.3 0.1 0.2-0.3 0.2-0.7 0.1-1 0.1 0 0.2 0 0.2-0.1 0.2 0.1 0.3 0.2 0.4 0.4-0.1 0.3-0.2 0.5-0.1 0.8-0.4 0.2-0.8 0.2-1.2 0.1-1.3-0.7-2.6-1.4-3.9-2.2-0.5-0.3-1-0.5-1.7-0.4 0.3-0.3 0.7-0.3 1.1-0.2 1.6 0.9 3.1 1.8 4.7 2.6 0.1 0 0.1-0.1 0.1-0.1z"></path><path fill="#c9c6c6" d="m7 25c0.4-0.1 0.7 0 0.9 0.2-0.1 0-0.3 0.1-0.4 0.2-0.1 0-0.1-0.1-0.2-0.2-0.2 0.6-0.6 1.1-1.2 1.4 0.1 0 0.2 0.1 0.3 0.2-0.1 0-0.1 0-0.1 0.1-0.3-0.1-0.4-0.4-0.3-0.7 0.4-0.4 0.7-0.8 1-1.2z"></path><path fill="#fbfbfb" d="m7.5 25.4c1.6 0.9 3.2 1.7 4.8 2.4 1.2 0.8 2.5 1.5 3.8 2.1 0.1 0.1 0.2 0.2 0.3 0.2-0.1 0-0.1 0.1-0.2 0.2-0.2 0.3-0.5 0.6-0.7 1l-0.2 0.1c-1-0.5-2-1-3-1.4-1.9-1.2-3.9-2.2-5.9-3.2-0.1-0.1-0.2-0.2-0.3-0.2 0.6-0.3 1-0.8 1.2-1.4 0.1 0.1 0.1 0.2 0.2 0.2z"></path><path fill="#ababab" d="m7.5 25.4c0.1-0.1 0.3-0.2 0.4-0.2 1.5 0.8 3 1.7 4.4 2.6-1.6-0.7-3.2-1.5-4.8-2.4z"></path><path fill="#dedede" d="m27.4 25.5c-0.7 0.5-1.3 0.9-2 1.4-1.3 0.7-2.5 1.3-3.8 1.9 0.1-0.2 0.3-0.4 0.4-0.6 0.9-0.4 1.8-0.9 2.5-1.5 1-0.4 1.9-0.8 2.9-1.2z"></path><path fill="#b3b1b1" d="m29.6 25c0.2 0.4 0.5 0.7 0.8 1.1-0.1 0.2-0.2 0.2-0.4 0.2-0.3-0.4-0.6-0.8-0.8-1.2-3.2 1.7-6.3 3.3-9.4 5 0.3 0.4 0.6 0.8 0.8 1.3 1.6-0.7 3.2-1.4 4.8-2.2-1.3 0.7-2.6 1.5-3.8 2.2-0.2 0.2-0.4 0.3-0.6 0.3-0.3 0-0.5-0.1-0.7-0.3-0.3-0.4-0.7-0.8-1.1-1.1 0.7-0.7 1.5-1.2 2.4-1.5 1.3-0.6 2.5-1.2 3.8-1.9 0.7-0.5 1.3-0.9 2-1.4 0.4-0.1 0.8-0.4 1.2-0.6 0.4-0.1 0.7-0.1 0.9 0.2 0.1 0 0.1-0.1 0.1-0.1z"></path><path fill="#a9a9a9" d="m6.3 26.9c0-0.1 0-0.1 0.1-0.1 2 1 4 2 5.9 3.2-1.2-0.4-2.4-1-3.5-1.7-0.8-0.4-1.7-0.9-2.5-1.4z"></path><path fill="#e7e6e6" d="m10.3 15.4c0.5 0.2 0.9 0.2 1.3 0 0.1 0.1 0.2 0.2 0.4 0.3 0.1 1.1 0.2 2.3 0.2 3.5 0.2 0.1 0.3 0.1 0.5 0.1 0.3-0.2 0.7-0.3 1.2-0.2-0.7 0.5-1.5 0.8-2.3 0.8 0-1.3 0-2.6-0.1-3.9 0 1.5-0.1 3.1 0 4.6l-0.3-4.6c0-0.1 0-0.2 0.1-0.2-0.4-0.2-0.8-0.1-1 0.3-0.1 1.5-0.1 3-0.2 4.5-0.3 0.4-0.6 0.7-1 0.8-0.6 0.4-1.1 0.7-1.7 1-0.2 0.1-0.1 0.2 0.1 0.2-0.1 0.1-0.3 0.2-0.5 0.3 0.1 0.3 0.3 0.5 0.5 0.7 0 0.1 0 0.2 0.1 0.2 0.7-0.4 1.5-0.8 2.3-1.1 0.7-0.1 1.2 0.1 1.7 0.4-0.5-0.1-1-0.1-1.5 0-0.9 0.6-1.9 1-3 1v0.6c0.3 0 0.6 0 0.8 0.1 2.6 1.3 5.2 2.7 7.8 4 0.6 0.4 1.1 0.8 1.5 1.4-0.1 0.1-0.3 0.2-0.5 0.2-0.2 0-0.3-0.1-0.5-0.1 0.1-0.1 0.1-0.2 0.2-0.2-0.1 0-0.2-0.1-0.3-0.2 0.1-0.2 0.1-0.3 0-0.6-0.3 0-0.6 0-0.8 0-1-0.6-2-1.1-3-1.5-1.4-0.9-2.9-1.8-4.4-2.6-0.2-0.2-0.5-0.3-0.9-0.2 0.1-0.9-0.1-1.7-0.7-2.3 0.6-0.7 1.4-1.1 2.3-1.3 0.3-0.4 0.7-0.6 1.1-0.8 0.2-1.6 0.3-3.2 0.3-4.8 0.1-0.1 0.2-0.3 0.3-0.4z"></path><path fill="#aaa" d="m27.1 28.6c-0.6 0.1-1.2 0.3-1.7 0.6 1.4-0.9 2.8-1.7 4.3-2.5 0.2-0.1 0.4-0.1 0.6 0-1 0.6-1.9 1.1-2.9 1.6-0.2 0.1-0.3 0.2-0.3 0.3z"></path><path fill="#dadada" d="m6.3 26.9c0.8 0.5 1.7 1 2.5 1.4-0.5 0-0.9-0.1-1.3-0.3-0.3-0.3-0.7-0.5-1.1-0.6-0.1-0.2-0.2-0.3-0.1-0.5z"></path><path fill="#acacac" d="m12.3 27.8c1 0.4 2 0.9 3 1.5 0.2 0 0.5 0 0.8 0 0.1 0.3 0.1 0.4 0 0.6-1.3-0.6-2.6-1.3-3.8-2.1z"></path><path fill="#d5d5d5" d="m27.1 28.6c-0.3 0.2-0.5 0.4-0.7 0.6-1.6 0.7-3.2 1.4-4.8 2.2 1.2-0.7 2.5-1.5 3.8-2.2 0.5-0.3 1.1-0.5 1.7-0.6z"></path><path fill="#ee4b57" d="m19.2 30.3c0.4 0.3 0.8 0.7 1.1 1.1 0 2.5-1.2 3.4-3.5 2.6-0.5-0.3-0.8-0.8-1-1.4v-1c0.2-0.4 0.5-0.8 0.9-1.2 0.2 0 0.4-0.1 0.5-0.2 0.7-0.2 1.4-0.2 2 0.1z"></path><path fill="#acacac" d="m12.3 30c1 0.4 2 0.9 3 1.4 0.1 0.3 0 0.4-0.3 0.2-0.9-0.5-1.8-1-2.7-1.6z"></path><path fill="#e6e5e5" d="m8.8 28.3c1.1 0.7 2.3 1.3 3.5 1.7 0.9 0.6 1.8 1.1 2.7 1.6 0.3 0.2 0.4 0.1 0.3-0.2l0.2-0.1c0 0.1 0 0.2 0.1 0.3 0.1-0.2 0.2-0.2 0.2 0v1c-0.1-0.2-0.2-0.5-0.1-0.7-0.5 0-1 0-1.4-0.1l-4-2.1c-0.5-0.5-1-0.9-1.5-1.4z"></path><path fill="#c1bbbb" d="m16.2 30.3c0.2 0 0.3 0.1 0.5 0.1-0.4 0.4-0.7 0.8-0.9 1.2 0-0.2-0.1-0.2-0.2 0-0.1-0.1-0.1-0.2-0.1-0.3 0.2-0.4 0.5-0.7 0.7-1z"></path></svg>