<?xml version="1.0"?><svg xmlns="http://www.w3.org/2000/svg" width="36" height="36" shape-rendering="geometricPrecision" text-rendering="geometricPrecision" image-rendering="optimizeQuality" fill-rule="evenodd" clip-rule="evenodd" viewBox="0 0 36 36"><path fill="#fdfdfd" d="m-0.1 4.8h36v26.3h-36v-26.3z"></path><path fill="#f3f3f3" d="m12.3 12.4c1-0.1 2 0 3.1 0.1-0.7 0.7-1.4 1.3-2.2 1.9-0.3-0.3-0.6-0.6-0.9-0.9-0.3-0.4-0.6-0.7-1-1.1 0.3 0 0.7 0 1 0z"></path><path fill="#111" d="m15.2 12.2h5.4l3.1 0.2c-1.1-0.1-2.1 0-3.2 0.1 0.7 0.6 1.3 1.2 1.9 1.8 0.2 0.1 0.3 0.2 0.5 0.2h3.7c0.2 0 0.3 0.1 0.1 0.2-1.4-0.1-2.8-0.1-4.1 0h-0.3c-1.3-0.1-2.7-0.1-4 0-0.1 0.2-0.1 0.2-0.2 0.3-0.1 0.9-0.2 1.8-0.2 2.8 0 1 0.1 1.9 0.3 2.8-0.2 0.1-0.2 0.2 0 0.3-0.1 0-0.2 0.1-0.2 0.1-0.1 0.9-0.1 1.8 0 2.7 0.5 0.6 0.3 0.9-0.4 0.8-0.2-0.3-0.1-0.6 0.1-0.8 0.2-0.9 0.2-1.9 0-2.8l0.1-0.4c0.1-1.9 0-3.7-0.1-5.5-0.1-0.1-0.2-0.2-0.2-0.3-1.3-0.1-2.7-0.1-4.1-0.1-0.1 0.1-0.1 0.1-0.1 0.2l-0.2-0.1c-1.3-0.1-2.5-0.1-3.8 0-0.3-0.1-0.3-0.2 0-0.2 1.1 0 2.3 0 3.5-0.1 0-0.1-0.1-0.1-0.1-0.1l-0.6-0.7c0-0.1 0.1-0.1 0.2-0.1 0.3 0.3 0.6 0.6 0.9 0.9 0.8-0.6 1.5-1.2 2.2-1.9-1.1-0.1-2.1-0.2-3.1-0.1l2.9-0.3z"></path><path fill="#efefef" d="m15.9 12.5c1.3-0.2 2.6-0.2 4 0-0.6 0.7-1.2 1.3-2 1.7l-0.3-0.1c-0.5-0.5-1.1-1.1-1.7-1.6z"></path><path fill="#f4f4f4" d="m23.7 12.4c0.2 0 0.5 0 0.8 0-0.7 0.7-1.3 1.3-2.1 1.9-0.6-0.6-1.2-1.2-1.9-1.8 1.1-0.1 2.1-0.2 3.2-0.1z"></path><path fill="#f5f5f5" d="m12.1 13.6l0.6 0.7c-1.1 0.1-2.2 0.1-3.3 0 0.5-0.6 1.1-1.2 1.7-1.7 0.3 0.3 0.7 0.7 1 1z m5.4 0.8c-1.3 0-2.6 0-3.8-0.1 0.6-0.6 1.3-1.2 2-1.8 0.7 0.6 1.3 1.2 1.8 1.9z"></path><path fill="#f4f4f4" d="m20.1 12.5c0.7 0.6 1.4 1.2 2.1 1.8-1.3 0.1-2.6 0.1-3.9 0 0.6-0.6 1.2-1.2 1.8-1.8z"></path><path fill="#636363" d="m9.4 14.3c1.1 0.1 2.2 0.1 3.3 0 0 0 0.1 0 0.1 0.1-1.2 0.1-2.4 0.1-3.5 0.1 0-0.1 0-0.2 0.1-0.2z"></path><path fill="#616161" d="m13.7 14.3c1.2 0.1 2.5 0.1 3.8 0.1-1.3 0.1-2.6 0.1-3.9 0 0-0.1 0-0.1 0.1-0.1z"></path><path fill="#c6c6c6" d="m13.4 14.6c1.4 0 2.8 0 4.1 0.1-1.3 0-2.7 0-3.9 0.2-0.1-0.1-0.2-0.2-0.2-0.3z"></path><path fill="#919191" d="m17.7 14.4h0.4v0.3h-0.4v-0.3z"></path><path fill="#fbfbfb" d="m17.5 14.7c0 0.2 0.1 0.2 0.2 0.3 0.1 1.8 0 3.6-0.1 5.4l-4-5.5c1.2-0.2 2.6-0.2 3.9-0.2z"></path><path fill="#f8f8f8" d="m22.3 14.7c-1.4 1.9-2.8 3.8-4.1 5.8-0.1-1.8-0.2-3.7-0.1-5.5 0.1-0.1 0.1-0.1 0.2-0.3 1.3-0.1 2.7-0.1 4 0z"></path><path fill="#f5f5f5" d="m26.7 14.7c-2.7 1.9-5.4 3.8-8 5.7 1.2-2 2.5-3.8 3.9-5.7 1.3-0.1 2.7-0.1 4.1 0z"></path><path fill="#191919" d="m18.2 20.9c-0.2-0.1-0.2-0.2 0-0.3v-0.1c1.3-2 2.7-3.9 4.1-5.8h0.3c-1.4 1.9-2.7 3.7-3.9 5.7 2.6-1.9 5.3-3.8 8-5.7 0.2-0.1 0.1-0.2-0.1-0.2 0-0.1 0-0.2-0.1-0.2-0.5-0.6-1.1-1.2-1.7-1.7-0.7 0.5-1.3 1.1-1.8 1.7-0.1 0-0.1 0.1-0.1 0.2-0.2 0-0.3-0.1-0.5-0.2 0.8-0.6 1.4-1.2 2.1-1.9-0.3 0-0.6 0-0.8 0l-3.1-0.2c1.4 0 2.8 0 4.2-0.1l1.8-1.8c-0.1-0.5 0.1-0.7 0.7-0.6 0.2 0.6 0.1 0.9-0.6 0.8l-1.8 1.8c0.8 0.8 1.5 1.5 2.3 2.3-3 2.2-6 4.3-9 6.3z"></path><path fill="#626262" d="m23 14.3c1.2 0.1 2.3 0.1 3.5 0 0.1 0 0.1 0.1 0.1 0.2h-3.7c0-0.1 0-0.2 0.1-0.2z"></path><path fill="#f5f5f5" d="m26.5 14.3c-1.2 0.1-2.3 0.1-3.5 0 0.5-0.6 1.1-1.2 1.8-1.7 0.6 0.5 1.2 1.1 1.7 1.7z"></path><path fill="#929292" d="m26.8 9.9h0.4v0.3h-0.4v-0.3z"></path><path fill="#171717" d="m15.2 12.2l-2.9 0.2c-0.3 0-0.7 0-1 0 0.4 0.4 0.7 0.7 1 1.1-0.1 0-0.2 0-0.2 0.1-0.3-0.3-0.7-0.7-1-1-0.6 0.5-1.2 1.1-1.7 1.7-0.1 0-0.1 0.1-0.1 0.2-0.3 0-0.3 0.1 0 0.2 0 0.1 0 0.2 0.1 0.2 2.6 1.7 5.2 3.5 7.8 5.4l0.1-0.1c-1.4-1.7-2.7-3.5-4-5.3 0-0.2 0-0.2 0.1-0.3 0 0.1 0.1 0.2 0.2 0.3l4 5.5c0 0.1 0.1 0.1 0.2 0.1l-0.1 0.4c-2.9-2.1-5.9-4.2-8.9-6.3 0.7-0.8 1.3-1.5 2.1-2.2-0.6-0.6-1.2-1.2-1.7-1.9-0.7 0.1-0.9-0.2-0.6-0.8 0.2-0.1 0.4 0 0.6 0.1 0 0.3 0.2 0.6 0.4 0.9l1.4 1.4c1.4 0.1 2.8 0.1 4.2 0.1z"></path><path fill="#f6f6f6" d="m9.4 14.8c1.2-0.1 2.4-0.1 3.7-0.1l0.2 0.1c1.3 1.9 2.6 3.7 4 5.4l-0.1 0.1c-2.6-1.9-5.2-3.7-7.8-5.5z"></path><path fill="#c6c6c6" d="m13.1 14.7c-1.3 0-2.5 0-3.7 0.2-0.1 0-0.1-0.1-0.1-0.2 1.3-0.1 2.5-0.1 3.8 0z"></path><path fill="#939393" d="m8.7 9.9h0.4v0.3h-0.4v-0.3z"></path><path fill="#a2a2a2" d="m17.7 15c0.1 1.8 0.2 3.6 0.1 5.5-0.1 0-0.2 0-0.2-0.1 0.1-1.8 0.2-3.6 0.1-5.4z"></path><path fill="#525252" d="m18.1 15c-0.1 1.8 0 3.7 0.1 5.5v0.1c-0.2-0.9-0.3-1.8-0.3-2.8 0-1 0.1-1.9 0.2-2.8z"></path><path fill="#171717" d="m24.6 23.7c0.5 0.1 0.6 0.3 0.4 0.8-0.7 0.1-0.8-0.2-0.4-0.8z"></path><path fill="#656565" d="m22.4 24.2c-0.1-0.2-0.3-0.2-0.5 0-0.1 0-0.2-0.1-0.2-0.2 0.3-0.1 0.6-0.1 0.9 0.1-0.1 0-0.1 0.1-0.2 0.1z"></path><path fill="#6a6a6a" d="m23.5 24.2c-0.2-0.2-0.4-0.2-0.6 0-0.1 0-0.1-0.1-0.1-0.1 0.2-0.2 0.5-0.2 0.8 0 0 0-0.1 0.1-0.1 0.1z"></path><path fill="#999" d="m24.6 24c0.4 0.1 0.4 0.2 0 0.3v-0.3z"></path><path fill="#222" d="m6.7 24.1c0.3 0 0.6 0 0.9 0 0.1 0.4 0.1 0.9 0.1 1.3-0.1-0.3-0.2-0.6-0.3-0.9-0.1-0.2-0.3-0.2-0.5-0.1-0.1 1.1-0.1 2.3 0 3.4 0 0.2 0.1 0.3 0.4 0.3 0.2-0.4 0.3-0.8 0.4-1.2 0 0.4 0 0.8-0.2 1.2-0.2 0.3-0.5 0.3-0.7 0.1-0.2-0.3-0.3-0.7-0.4-1.1-0.1-0.7-0.1-1.5 0-2.2 0.1-0.3 0.1-0.6 0.3-0.8z"></path><path fill="#141414" d="m22.4 24.2c-0.2 2.3 0 2.3 0.6 0.2 0-0.1 0-0.2-0.1-0.2 0.2-0.2 0.4-0.2 0.6 0-0.4 0.5-0.6 1.1-0.7 1.7 0.1 0.5 0.3 1.1 0.4 1.7 0.1 0.2 0.2 0.5 0.4 0.7-0.3 0.1-0.6 0.1-0.8-0.1l0.2-0.3c-0.1-0.5-0.3-0.9-0.4-1.3-0.3 0.5-0.3 1.1 0 1.6-0.3 0.2-0.6 0.2-0.9 0.1 0-0.1 0.1-0.1 0.2-0.2 0.1-1.3 0.1-2.6 0-3.9 0.2-0.2 0.4-0.2 0.5 0z"></path><path fill="#737373" d="m28.7 26.2c0.1 0.1 0 0.2-0.1 0.2-0.1-0.7-0.1-1.5-0.1-2.3h-0.3c0-0.1 0.2-0.2 0.4-0.1 0 0.7 0 1.5 0.1 2.2z"></path><path fill="#838383" d="m11.8 25.2v0.1c-0.3-0.1-0.4-0.1-0.6 0-0.1 0-0.2-0.1-0.2-0.2 0.2 0 0.5 0 0.8 0.1z"></path><path fill="#131313" d="m13.8 24.3c0.1 0.3 0.3 0.5 0.4 0.8l-0.1 0.2-0.1 1.4c0 0.5 0.1 1 0.2 1.5-0.2 0.2-0.3 0.2-0.5-0.1l-0.1-2.8-0.2-0.2c0.3-0.2 0.4-0.4 0.4-0.8z"></path><path fill="#080808" d="m17.7 25.3c0.1-0.1 0.2-0.1 0.4-0.1-0.1 1 0 2 0.1 2.9 0 0.1 0 0.2 0.1 0.2-0.2 0.1-0.5 0.1-0.7 0l0.2-0.2c0.1-0.9 0-1.9-0.1-2.8z"></path><path fill="#242424" d="m28.2 24.1h0.3c0 0.8 0 1.6 0.1 2.3 0.1 0 0.2-0.1 0.1-0.2 0.1-0.3 0.2-0.5 0.4-0.8 0 0-0.1-0.1-0.1-0.1 0.1-0.1 0.3-0.1 0.4 0-0.6 1-0.5 2 0.2 3-0.1 0-0.3 0.1-0.5 0 0-0.4-0.1-0.9-0.4-1.3-0.1 0.4-0.1 0.9 0 1.3-0.2 0.1-0.4 0.1-0.6 0 0.1-1.4 0.1-2.8 0.1-4.2z"></path><path fill="#6b6b6b" d="m18.2 28.1c-0.1-0.9-0.2-1.9-0.1-2.9-0.2 0-0.3 0-0.4 0.1 0 0-0.1 0-0.1-0.1 0.2-0.1 0.4-0.1 0.6-0.1v3z"></path><path fill="#060606" d="m24.6 25.3c0.1-0.1 0.2-0.1 0.3-0.1 0 1 0 2 0.1 2.9 0 0.1 0.1 0.2 0.1 0.2-0.2 0.1-0.4 0.1-0.6 0l0.1-0.2c0.1-0.9 0.1-1.9 0-2.8z"></path><path fill="#171717" d="m11.8 25.3c-0.1 0.1-0.1 0.2-0.2 0.2-0.1 0.8-0.1 1.6 0 2.4 0.1 0.1 0.1 0.1 0.2 0.2-0.2 0.1-0.3 0.2-0.3 0.4 0 0.2 0.1 0.3 0.1 0.4-0.1 0.1-0.3 0.2-0.5 0.1 0.1-1.2 0.1-2.4 0.1-3.7 0.2-0.1 0.3-0.1 0.6 0z"></path><path fill="#e2e2e2" d="m11.8 25.3c0.1 0 0.2 0 0.2 0.1 0.1 0.9 0.1 1.7 0 2.6 0 0.1-0.1 0.1-0.2 0.1-0.1-0.1-0.1-0.1-0.2-0.2-0.1-0.8-0.1-1.6 0-2.4 0.1 0 0.1-0.1 0.2-0.2z"></path><path fill="#6f6f6f" d="m25 28.1c-0.1-0.9-0.1-1.9-0.1-2.9-0.1 0-0.2 0-0.3 0.1-0.1 0-0.1 0-0.1-0.1 0.1-0.1 0.3-0.1 0.5-0.1v3z"></path><path fill="#121212" d="m16 28.1c0.1-0.3 0.1-0.7 0.1-1 0-0.4 0-0.7-0.2-0.9 0.4-0.6 0.3-0.9-0.4-0.8 0.3-0.3 0.6-0.2 0.9 0 0 1 0.1 1.9 0.3 2.8-0.1 0.1-0.1 0.1-0.2 0.1-0.1-0.1-0.3-0.2-0.5-0.2z"></path><path fill="#151515" d="m26.2 25.3c0.3 0 0.6 0 1 0-0.2 0.1-0.4 0.2-0.5 0.2-0.1 0.9-0.1 1.8 0 2.6l0.1 0.2c-0.2 0.1-0.5 0.1-0.8 0l0.2-0.2c0.1-0.9 0.1-1.9 0-2.8z"></path><path fill="#161616" d="m9.5 28.1c-0.1 0.2-0.2 0.3-0.4 0.2-0.6-0.9-0.4-1.7 0.5-2.3 0.1-0.6-0.1-0.8-0.7-0.6 0.4-0.3 0.7-0.2 1 0 0 1 0.1 1.9 0.3 2.8-0.1 0-0.2 0.1-0.3 0.2-0.1-0.2-0.2-0.3-0.4-0.3z"></path><path fill="#191919" d="m19.3 25.3c0.4-0.1 0.8-0.1 1.2 0l0.3 2.9c-0.3 0.2-0.5 0.2-0.7 0.1l0.2-0.2c0-0.9 0-1.8 0-2.7-0.2-0.1-0.4-0.1-0.5 0.1-0.1 0.9-0.1 1.8 0.1 2.7-0.3 0.2-0.5 0.2-0.7 0.1l0.1-0.2c0.1-0.9 0.1-1.9 0-2.8z"></path><path fill="#1c1c1c" d="m11.8 25.3v-0.1c0.2 0 0.3 0 0.5 0.1 0.3 0.9 0.3 1.8 0 2.7-0.1 0.3-0.3 0.4-0.5 0.2v-0.1c0.1 0 0.2 0 0.2-0.1 0.1-0.9 0.1-1.7 0-2.6 0-0.1-0.1-0.1-0.2-0.1z"></path><path fill="#e7e7e7" d="m15.9 26.2c0.2 0.2 0.2 0.5 0.2 0.9 0 0.3 0 0.7-0.1 1h-0.3c-0.1-0.6 0-1.3 0.2-1.9z"></path><path fill="#d5d5d5" d="m9.5 28.1c-0.1 0-0.2 0-0.3-0.1-0.3-0.7-0.1-1.3 0.4-1.8 0 0.7 0 1.3-0.1 1.9z"></path><path fill="#272727" d="m15.9 26.2c-0.2 0.6-0.3 1.3-0.2 1.9h0.3c-0.2 0.3-0.4 0.3-0.6 0-0.3-0.8-0.2-1.4 0.5-1.9z"></path><path fill="#989898" d="m11.8 28.1v0.1c-0.2 0.2-0.2 0.5-0.2 0.7 0-0.1-0.1-0.2-0.1-0.4 0-0.2 0.1-0.3 0.3-0.4z"></path><path fill="#727272" d="m11.6 28.9c0.1 0 0.1 0.1 0.2 0.1l-0.4 0.1c-0.3 0.1-0.3 0-0.3-0.1 0.2 0.1 0.4 0 0.5-0.1z"></path></svg>