<?xml version="1.0"?><svg xmlns="http://www.w3.org/2000/svg" width="36" height="36" shape-rendering="geometricPrecision" text-rendering="geometricPrecision" image-rendering="optimizeQuality" fill-rule="evenodd" clip-rule="evenodd" viewBox="0 0 36 36"><path fill="#b2b4b8" d="m25.4 2c0.2 0.2 0.3 0.3 0.5 0.5 0 0 0 0.1-0.1 0.2 0.3 0.3 0.6 0.6 0.8 1 0.2 0.1 0.4 0.3 0.6 0.4-0.1 0.2-0.1 0.3-0.1 0.5-0.9-0.6-1.8-1.1-2.7-1.6-0.2-0.1-0.2-0.2 0-0.3-0.1-0.2-0.2-0.3-0.4-0.4-0.8-0.4-1.6-0.8-2.5-1.1l-0.1 0.1c-0.5-0.1-1-0.2-1.6-0.2-0.9 0-1.9 0-2.9 0-1.5 0.2-2.9 0.5-4.3 0.7-1.1 0.3-2.1 0.7-3.1 1.3-1.7 1.3-3.2 2.6-4.5 4 0-0.1 0-0.3 0.1-0.4 0.6-0.8 1.3-1.5 2-2.2 1.3-1 2.6-1.8 3.9-2.6 0.9-0.4 1.8-0.7 2.7-0.9 4-0.9 7.9-0.5 11.7 1z"></path><path fill="#c6c7c8" d="m16.9-0.1h1.9c1.5 0.2 3 0.5 4.5 0.9 0.8 0.3 1.6 0.7 2.4 1.1-0.2 0-0.3 0-0.3 0.1-3.8-1.5-7.7-1.9-11.7-1-0.9 0.2-1.8 0.5-2.7 0.9-1.3 0.5-2.5 1.2-3.7 2 0-0.1-0.1-0.2-0.2-0.2 2.1-1.6 4.4-2.7 7-3.3 1-0.1 1.9-0.3 2.8-0.5z" opacity=".762"></path><path fill="#a9abaf" d="m24.4 3c-1.7-0.7-3.5-1.1-5.3-1.2-0.6-0.1-1.1-0.2-1.7-0.2-0.8 0-1.6 0.1-2.4 0.3-1.5 0.2-2.9 0.7-4.2 1.4-2.9 1.3-5.1 3.3-6.8 5.9 0-0.2 0-0.5-0.1-0.7 0.1-0.3 0.2-0.3 0.4-0.1 0.2-0.5 0.4-0.9 0.7-1.3 1.3-1.4 2.8-2.7 4.5-4 1-0.6 2-1 3.1-1.3 1.4-0.2 2.8-0.5 4.3-0.7 1 0 2 0 2.9 0 0.6 0 1.1 0.1 1.6 0.2l0.1-0.1c0.9 0.3 1.7 0.7 2.5 1.1 0.2 0.1 0.3 0.2 0.4 0.4-0.2 0.1-0.2 0.2 0 0.3z"></path><path fill="#515357" d="m19.1 1.8c-1.4-0.1-2.8 0-4.1 0.1 0.8-0.2 1.6-0.3 2.4-0.3 0.6 0 1.1 0.1 1.7 0.2z"></path><path fill="#0e1016" d="m19.1 1.8c1.8 0.1 3.6 0.5 5.3 1.2 0.9 0.5 1.8 1 2.7 1.6l2.2 1.8c0.8 0.8 1.5 1.7 2.1 2.7-0.2-0.1-0.4-0.2-0.5-0.3-0.4 0.8-0.8 1.6-1.2 2.3 0.2 0.3 0.3 0.6 0.3 0.9-0.2 0.1-0.5 0-0.6-0.3-0.2 0.3-0.4 0.4-0.6 0.2-0.4 0.6-0.8 1-1.3 1.3-0.3 0.1-0.6-0.1-0.9-0.3 0.1 0.1 0 0.3-0.2 0.4l-0.2-0.2c0.2-0.5 0.4-1 0.4-1.6l-0.2-0.2c-0.1 0.6-0.3 1.1-0.6 1.6 0.6 1.3 1.1 2.6 1.6 3.9-0.3 0.3-0.6 0.5-0.9 0.6h-0.1c-0.4-0.6-0.8-0.6-1.2 0 0.2 0.3 0.1 0.3-0.2 0.1-0.2 0.3-0.4 0.5-0.5 0.9-0.2-0.3-0.3-0.2-0.4 0 0.4 1.2 0.4 2.4-0.1 3.6l-0.4 0.4c-0.2-0.1-0.4-0.2-0.6-0.2-1 1.3-2.1 2.3-3.5 3.2 0-0.1-0.1-0.2-0.2-0.3 0.8-1.5 1.1-3.1 1-4.8 1.2-1.4 2.3-2.9 3.3-4.5 0.4-0.4 0.7-0.9 0.9-1.5 0.8-1.1 1.3-2.4 1.6-3.7 0.2-0.4 0.3-0.8 0.3-1.2-0.7-0.1-1.4 0.1-2 0.4l-1 0.3c0.2-0.3 0.1-0.6-0.3-1-1.3-1.2-2.7-2.3-4.2-3.2 0.2 0 0.4-0.1 0.6-0.3-0.1-0.4-0.3-0.8-0.7-1.2 0.1-0.2 0-0.5-0.2-0.7-0.6-0.2-1.2-0.2-1.8-0.2 0.4 0.5 0.5 1.1 0.3 1.6-0.4-0.2-0.9-0.4-1.3-0.6 0.4-0.4 0.3-0.7-0.2-0.9l-0.2 0.1c0.2 0.3 0.3 0.6 0.2 0.9-0.7-0.3-1.5-0.5-2.3-0.7 0.6-0.5 0.5-0.7-0.2-0.5 0.3-0.1 0.3-0.3 0.2-0.4-0.5 0.4-0.9 0.7-1.5 0.9-0.1-0.2-0.3-0.2-0.4 0-0.2-0.2-0.5-0.4-0.6-0.6 1.3-0.7 2.7-1.2 4.2-1.4 1.3-0.1 2.7-0.2 4.1-0.1z"></path><path fill="#f8f9f9" d="m27.4 2.7c4.5 2.9 7.2 7.1 8.1 12.4-0.5-0.8-1-1.6-1.6-2.4-0.1-0.5-0.3-0.8-0.7-1.1 0-0.3-0.2-0.6-0.4-0.8-0.1 0-0.2 0.1-0.2 0.1-0.4-0.6-0.8-1.2-1.2-1.8-0.6-1-1.3-1.9-2.1-2.7 0.1-0.1 0.2-0.2 0.3-0.2-0.8-0.7-1.4-1.6-1.6-2.6-0.3-0.2-0.5-0.4-0.8-0.6 0.1-0.1 0.1-0.2 0.2-0.3z" opacity=".909"></path><path fill="#13161a" d="m23.4 10.1l-0.8 0.5c-0.4 0.1-0.8 0.3-1.2 0.6-1.3 0.8-2.6 1.6-3.9 2.5 0-0.1-0.1-0.1-0.1-0.2-0.7-0.1-1.4-0.2-2.1-0.3-0.2-0.1-0.3-0.3-0.4-0.5-0.4 0.1-0.8 0.3-1.1 0.6 0-0.3 0.1-0.5 0.3-0.6-0.2-0.2-0.3-0.2-0.5-0.1l-0.3-0.3c-0.3 0.2-0.5 0.4-0.7 0.7 0.2 0.1 0.5 0.2 0.8 0.4l-0.1 0.1c-0.8-0.1-1.4 0.2-1.8 0.9 0-0.2 0.1-0.4 0.2-0.5-0.4-0.1-0.8 0-1.2 0.2-0.2 0.4-0.4 0.8-0.7 1.2l0.1 0.2c-0.8 0.7-1.7 1.4-2.7 2 0 0.7 0.3 1.3 0.7 1.8 0.3 0 0.5 0 0.6-0.2 0.3 0.3 0.7 0.5 1.1 0.7 0.3-0.1 0.4-0.3 0.6-0.5 0.2 0.2 0.4 0.4 0.6 0.5 0.3-0.1 0.6-0.1 0.9-0.2 0.4 0.3 0.7 0.3 1 0 0.2 0.2 0.3 0.5 0.4 0.7 0.1-0.1 0.2-0.2 0.3-0.4l0.4 0.6c0.1-0.1 0.2-0.2 0.3-0.2l-0.2 0.4c-1.3 1-2.5 1.9-3.8 2.6-1.6 1-3.3 1.3-5.1 1-0.9-0.3-1.6-0.9-2.3-1.6-0.5-1.1-0.9-2.2-1.2-3.4v-2.5c0.1-1.3 0.4-2.5 0.7-3.8 0.3-0.9 0.7-1.8 1.1-2.7 0.2-0.3 0.5-0.7 0.7-1.1 1.7-2.6 3.9-4.6 6.8-5.9 0.1 0.2 0.4 0.4 0.6 0.6 0.1-0.2 0.3-0.2 0.4 0 0.6-0.2 1-0.5 1.5-0.9 0.1 0.1 0.1 0.3-0.2 0.4 0.7-0.2 0.8 0 0.2 0.5 0.8 0.2 1.6 0.4 2.3 0.7 0.1-0.3 0-0.6-0.2-0.9l0.2-0.1c0.5 0.2 0.6 0.5 0.2 0.9 0.4 0.2 0.9 0.4 1.3 0.6 0.2-0.5 0.1-1.1-0.3-1.6 0.6 0 1.2 0 1.8 0.2 0.2 0.2 0.3 0.5 0.2 0.7 0.4 0.4 0.6 0.8 0.7 1.2-0.2 0.2-0.4 0.3-0.6 0.3 1.5 0.9 2.9 2 4.2 3.2 0.4 0.4 0.5 0.7 0.3 1z"></path><path fill="#d5d6da" d="m25.7 1.9c0.6 0.2 1.1 0.5 1.7 0.8-0.1 0.1-0.1 0.2-0.2 0.3 0.3 0.2 0.5 0.4 0.8 0.6 0.2 1 0.8 1.9 1.6 2.6-0.1 0-0.2 0.1-0.3 0.2l-2.2-1.8c0-0.2 0-0.3 0.1-0.5-0.2-0.1-0.4-0.3-0.6-0.4-0.2-0.4-0.5-0.7-0.8-1 0.1-0.1 0.1-0.2 0.1-0.2-0.2-0.2-0.3-0.3-0.5-0.5 0-0.1 0.1-0.1 0.3-0.1z"></path><path fill="#b8b9ba" d="m11 1.9c-1.3 0.8-2.6 1.6-3.9 2.6-0.7 0.7-1.4 1.4-2 2.2-0.1 0.1-0.1 0.3-0.1 0.4-0.3 0.4-0.5 0.8-0.7 1.3-0.2-0.2-0.3-0.2-0.4 0.1 0.1 0.2 0.1 0.5 0.1 0.7-0.2 0.4-0.5 0.8-0.7 1.1-0.1 0-0.2-0.1-0.2-0.2-0.4 0.8-0.9 1.5-1.4 2.2-0.4 1.1-0.8 2.1-1.3 3.1 0-0.3-0.1-0.6-0.2-0.8 1-4.5 3.3-8.1 6.9-10.9 0.1 0 0.2 0.1 0.2 0.2 1.2-0.8 2.4-1.5 3.7-2z" opacity=".948"></path><path fill="#05080d" d="m31.4 9.1c0.4 0.6 0.8 1.2 1.2 1.8v0.3c-0.1 0-0.2 0.1-0.2 0.2 0.2 0.4 0.3 0.7 0.4 1.1-0.2 0.3-0.5 0.4-0.8 0.4-0.1 0.4-0.3 0.7-0.6 1l-0.8 0.2c-0.1 0.6-0.4 0.9-1 0.9-0.1 0.3-0.3 0.6-0.4 0.9-0.7-0.1-1 0.2-1 0.9-0.3 0.1-0.6 0-0.8-0.3 0 0.1-0.1 0.2 0 0.3-0.5-1.3-1-2.6-1.6-3.9 0.3-0.5 0.5-1 0.6-1.6l0.2 0.2c0 0.6-0.2 1.1-0.4 1.6l0.2 0.2c0.2-0.1 0.3-0.3 0.2-0.4 0.3 0.2 0.6 0.4 0.9 0.3 0.5-0.3 0.9-0.7 1.3-1.3 0.2 0.2 0.4 0.1 0.6-0.2 0.1 0.3 0.4 0.4 0.6 0.3 0-0.3-0.1-0.6-0.3-0.9 0.4-0.7 0.8-1.5 1.2-2.3 0.1 0.1 0.3 0.2 0.5 0.3z"></path><path fill="#909295" d="m26.1 10.6v-0.3c-0.1-0.2-0.3-0.4-0.6-0.6-0.4 0-0.7 0-1.1 0.1 0.6-0.3 1.3-0.5 2-0.4 0 0.4-0.1 0.8-0.3 1.2z"></path><path fill="#000002" d="m32.6 11.2c0.2 0.3 0.4 0.8 0.5 1.2 0.3 0.9 0.6 1.8 0.7 2.7 0.2 0.8 0.2 1.5 0.3 2.3v1.9c-0.2 0.8-0.3 1.6-0.4 2.4-0.2 0.7-0.4 1.3-0.6 2-0.6 1.3-1.3 2.7-2.1 3.9-2.8 3.6-6.4 5.8-10.8 6.5-1.4 0.2-2.8 0.2-4.2 0.1-0.7-0.1-1.2-0.4-1.7-0.7 0.7-0.2 1.4-0.5 2.1-0.8 0.1 0 0.1 0.1 0.2 0.1-0.1-1.7 0.6-2.7 2.3-2.9 0.5 0 1 0.1 1.5 0.4 0.7-0.5 1.5-0.9 2.2-1.4 0.1 0.1 0.3 0.2 0.4 0.3 0.2-0.2 0.5-0.4 0.7-0.7 0.1 0 0.3 0 0.4 0 0-0.2 0-0.4 0.2-0.5 0.3-0.1 0.5-0.3 0.8-0.5l0.3 0.3c0.5-0.3 0.8-0.8 1-1.3 0.8-0.8 1.2-1.7 1.2-2.8-1.2 0-2.1-0.6-2.6-1.7l0.5-1c0.2 0.7 0.6 1.3 1.2 1.7 0.3-0.3 0.5-0.6 0.7-1-0.4 0.1-0.6-0.1-0.8-0.4 0.2-0.5 0.4-1 0.6-1.5-0.3-0.1-0.4-0.3-0.4-0.6h0.8c0-0.6-0.1-1.2-0.1-1.8-0.4 0.1-0.7 0.1-1 0 0.3-0.1 0.6-0.3 0.9-0.6-0.1-0.1 0-0.2 0-0.3 0.2 0.3 0.5 0.4 0.8 0.3 0-0.7 0.3-1 1-0.9 0.1-0.3 0.3-0.6 0.4-0.9 0.6 0 0.9-0.3 1-0.9l0.8-0.2c0.3-0.3 0.5-0.6 0.6-1 0.3 0 0.6-0.1 0.8-0.4-0.1-0.4-0.2-0.7-0.4-1.1 0-0.1 0.1-0.2 0.2-0.2z"></path><path fill="#b4b5b7" d="m26.1 10.3c-1-0.3-1.7 0-2.2 0.9-0.1 0.4-0.3 0.8-0.3 1.2-0.2-0.2-0.5-0.3-0.7-0.4-0.3-0.1-0.6-0.2-0.9-0.3 0.3-0.3 0.5-0.7 0.6-1.1l0.8-0.5 1-0.3c0.4-0.1 0.7-0.1 1.1-0.1 0.3 0.2 0.5 0.4 0.6 0.6z"></path><path fill="#c7c8cb" d="m26.1 10.3v0.3c-0.3 1.3-0.8 2.6-1.6 3.7-0.1-0.1-0.1-0.3-0.1-0.4-0.3 0-0.5-0.1-0.6-0.3 0.1-0.5 0-0.8-0.2-1.2 0-0.4 0.2-0.8 0.3-1.2 0.5-0.9 1.2-1.2 2.2-0.9z"></path><path fill="#959698" d="m22.6 10.6c-0.1 0.4-0.3 0.8-0.6 1.1 0.3 0.1 0.6 0.2 0.9 0.3-1.2-0.1-1.8 0.4-1.7 1.6-0.1-0.2-0.2-0.5-0.2-0.7-0.4 0.4-0.9 0.7-1.5 0.7-0.8 1-1.7 1.9-2.6 2.8-0.8 0.6-1.7 1.2-2.6 1.7 0.3 0.1 0.6 0.1 1 0.1 0 0.2-0.1 0.4-0.3 0.4-0.1-0.1-0.2-0.2-0.4-0.2-0.4 0.1-0.7 0.1-1 0 0.2-0.3 0.3-0.6 0.4-1 0.5 0 0.9-0.2 1.1-0.7 1.6-0.8 2.9-1.9 4-3.2 0.6-0.6 1.3-1.1 2.1-1.5 0.1-0.3 0.2-0.6 0.2-0.8 0.4-0.3 0.8-0.5 1.2-0.6z"></path><path fill="#1a1c21" d="m22.9 12c0.2 0.1 0.5 0.2 0.7 0.4 0.2 0.4 0.3 0.7 0.2 1.2-0.4 0.9-1.1 1.2-2.1 0.7-0.3-0.2-0.4-0.4-0.5-0.7-0.1-1.2 0.5-1.7 1.7-1.6z"></path><path fill="#181a1e" d="m17.5 13.7c-0.7 0.5-1.3 1.1-2 1.7-1.7-0.1-3.4 0.3-5 1.1-0.3 0.1-0.3 0.2-0.2 0.4 0.7 0.2 1.3 0.4 1.9 0.6l1.4 0.9c0.3 0.1 0.6 0.1 1 0 0.2 0 0.3 0.1 0.4 0.2-0.1 0-0.2 0.1-0.2 0.2-0.3 0.2-0.6 0.5-0.8 0.8l0.4 0.6c-0.1 0.1-0.1 0.1-0.3 0.1-0.1 0-0.2 0.1-0.3 0.2l-0.4-0.6c-0.1 0.2-0.2 0.3-0.3 0.4-0.1-0.2-0.2-0.5-0.4-0.7-0.3 0.3-0.6 0.3-1 0-0.3 0.1-0.6 0.1-0.9 0.2-0.2-0.1-0.4-0.3-0.6-0.5-0.2 0.2-0.3 0.4-0.6 0.5-0.4-0.2-0.8-0.4-1.1-0.7-0.1 0.2-0.3 0.2-0.6 0.2-0.4-0.5-0.7-1.1-0.7-1.8 1-0.6 1.9-1.3 2.7-2l-0.1-0.2c0.3-0.4 0.5-0.8 0.7-1.2 0.4-0.2 0.8-0.3 1.2-0.2-0.1 0.1-0.2 0.3-0.2 0.5 0.4-0.7 1-1 1.8-0.9l0.1-0.1c-0.3-0.2-0.6-0.3-0.8-0.4 0.2-0.3 0.4-0.5 0.7-0.7l0.3 0.3c0.2-0.1 0.3-0.1 0.5 0.1-0.2 0.1-0.3 0.3-0.3 0.6 0.3-0.3 0.7-0.5 1.1-0.6 0.1 0.2 0.2 0.4 0.4 0.5 0.7 0.1 1.4 0.2 2.1 0.3 0 0.1 0.1 0.1 0.1 0.2z"></path><path fill="#c4c5c7" d="m35.5 15.1c0.2 0.8 0.3 1.6 0.3 2.4-0.2 0-0.3 0-0.4-0.1-0.2-1.2-0.7-2.3-1.3-3.3-0.2-0.5-0.3-1-0.5-1.5-0.2 0-0.3-0.1-0.5-0.2-0.1-0.4-0.3-0.9-0.5-1.2v-0.3c0 0 0.1-0.1 0.2-0.1 0.2 0.2 0.4 0.5 0.4 0.8 0.4 0.3 0.6 0.6 0.7 1.1 0.6 0.8 1.1 1.6 1.6 2.4z"></path><path fill="#8d8e90" d="m21.4 11.2c0 0.2-0.1 0.5-0.2 0.8-0.8 0.4-1.5 0.9-2.1 1.5-1.1 1.3-2.4 2.4-4 3.2-0.2 0.5-0.6 0.7-1.1 0.7-0.1 0.4-0.2 0.7-0.4 1l-1.4-0.9c-0.2-0.3-0.2-0.6 0.1-0.9 0.8-0.3 1.6-0.5 2.5-0.6 0.3-0.2 0.5-0.4 0.7-0.6 0.7-0.6 1.3-1.2 2-1.7 1.3-0.9 2.6-1.7 3.9-2.5z"></path><path fill="#aeaeaf" d="m3.3 10.3c-0.4 0.9-0.8 1.8-1.1 2.7-0.1-0.1-0.3-0.1-0.4 0-2.4 5.6-1.4 10.4 3 14.5 1.1 1.9 2.3 3.8 3.6 5.6-5.1-3.3-7.9-8-8.5-14v-2.2c0.2-0.7 0.3-1.5 0.3-2.3 0.1 0.2 0.2 0.5 0.2 0.8 0.5-1 0.9-2 1.3-3.1 0.5-0.7 1-1.4 1.4-2.2 0 0.1 0.1 0.2 0.2 0.2z" opacity=".986"></path><path fill="#808183" d="m15.5 15.4c-0.2 0.2-0.4 0.4-0.7 0.6-0.9 0.1-1.7 0.3-2.5 0.6-0.3 0.3-0.3 0.6-0.1 0.9-0.6-0.2-1.2-0.4-1.9-0.6-0.1-0.2-0.1-0.3 0.2-0.4 1.6-0.8 3.3-1.2 5-1.1z"></path><path fill="#9fa1a4" d="m21.2 13.6c0.1 0.3 0.2 0.5 0.5 0.7 1 0.5 1.7 0.2 2.1-0.7 0.1 0.2 0.3 0.3 0.6 0.3 0 0.1 0 0.3 0.1 0.4-0.2 0.6-0.5 1.1-0.9 1.5-0.2 0-0.4 0.1-0.6 0.2-0.4 0.7-0.9 1.1-1.6 1.4-0.1 0.6-0.3 1.1-0.6 1.7-0.4 0.4-0.9 0.7-1.4 0.7-0.3 0.3-0.7 0.4-1.1 0.2-1.4 0.7-2.5 0.3-3.5-1.2 0-0.1 0.1-0.2 0.2-0.2 0.2 0 0.3-0.2 0.3-0.4-0.4 0-0.7 0-1-0.1 0.9-0.5 1.8-1.1 2.6-1.7 0.9-0.9 1.8-1.8 2.6-2.8 0.6 0 1.1-0.3 1.5-0.7 0 0.2 0.1 0.5 0.2 0.7z"></path><path fill="#767778" d="m33.8 15.1c0.2 0.2 0.4 0.4 0.4 0.6 0 0-0.1 0.1-0.1 0.3 0.6 1.1 0.9 2.3 0.9 3.6 0.1 0.6 0.2 1 0.5 1.4 0 0.5-0.1 1-0.3 1.4-0.1-0.1-0.2-0.2-0.2-0.4-0.1-1.6-0.4-3.1-0.9-4.6-0.1-0.8-0.1-1.5-0.3-2.3z"></path><path fill="#a5a6a8" d="m33.1 12.4c0.2 0.1 0.3 0.2 0.5 0.2 0.2 0.5 0.3 1 0.5 1.5 0.6 1 1.1 2.1 1.3 3.3 0.1 0.1 0.2 0.1 0.4 0.1v1.4c-0.4-0.8-0.8-1.6-1.1-2.5-0.1-0.3-0.3-0.5-0.5-0.7 0-0.2-0.2-0.4-0.4-0.6-0.1-0.9-0.4-1.8-0.7-2.7z" opacity=".768"></path><path fill="#8a8b8c" d="m34.2 15.7c0.2 0.2 0.4 0.4 0.5 0.7 0.3 0.9 0.7 1.7 1.1 2.5 0 0.7-0.1 1.4-0.3 2.1-0.3-0.4-0.4-0.8-0.5-1.4 0-1.3-0.3-2.5-0.9-3.6 0-0.2 0.1-0.3 0.1-0.3z"></path><path fill="#919396" d="m23.6 15.8c-1 1.6-2.1 3.1-3.3 4.5-0.1 0.3-0.2 0.5-0.1 0.9-0.1-0.1-0.2-0.2-0.3-0.3-0.2 0.1-0.4 0.1-0.6 0.1 0.1 0.3 0 0.4-0.2 0.5-0.6 0.1-1.1 0.1-1.6 0.1 0.1-0.4 0-0.7-0.1-1-0.1 0-0.2 0.1-0.2 0.1-0.2 0.4-0.5 0.7-0.8 1-0.2 0.1-0.3 0.1-0.4 0-0.2-0.2-0.3-0.3-0.5-0.4-0.2 0.3-0.4 0.5-0.7 0.7-0.6-0.1-1-0.5-0.9-1.3l0.2-0.4c0.2 0 0.2 0 0.3-0.1l-0.4-0.6c0.2-0.3 0.5-0.6 0.8-0.8 1 1.5 2.1 1.9 3.5 1.2 0.4 0.2 0.8 0.1 1.1-0.2 0.5 0 1-0.3 1.4-0.7 0.3-0.6 0.5-1.1 0.6-1.7 0.7-0.3 1.2-0.7 1.6-1.4 0.2-0.1 0.4-0.2 0.6-0.2z"></path><path fill="#494a4b" d="m34.1 19.3c0.3 2.3 0.2 4.5-0.3 6.6-0.3 0.9-0.8 1.7-1.4 2.4 0.3-0.9 0.7-1.9 1.1-2.8 0.3-1.2 0.4-2.5 0.2-3.8 0.1-0.8 0.2-1.6 0.4-2.4z"></path><path fill="#080a10" d="m26.4 17.4c-1.5 0.5-2.1 1.6-1.9 3.1 0 0.7 0.1 1.3 0.5 1.9-0.3 0.2-0.5 0.1-0.7-0.1-1.1 1.6-2.4 2.8-4 3.9-0.5 0.8-1.3 1.4-2.2 1.6l-0.5 0.5c0.2 0 0.4 0.1 0.5 0.2l-3.1 1.5c-0.3-0.2-0.6-0.2-1 0-0.2-0.1-0.5-0.2-0.7-0.3-0.4 0.3-0.8 0.5-1.2 0.6-0.3-0.1-0.5 0.1-0.5 0.4-0.1-0.1-0.2-0.2-0.1-0.4-0.1-0.9 0-1.7 0.2-2.5l0.3 0.3c0.4 0.1 0.8 0 1.1-0.3l0.3 0.3c0.6-0.3 1-0.6 1.5-0.9 0.3 0.2 0.6 0.2 0.9-0.1-0.1-0.1-0.2-0.2-0.4-0.2 0.1-0.2 0.2-0.3 0.4-0.1l0.4-0.5c0.6-0.2 1.1-0.5 1.6-0.8 0.3-0.1 0.5-0.1 0.8 0.2-0.1-0.3-0.1-0.6 0-0.9 0 0.3 0.2 0.6 0.3 0.9 0.1-0.1 0.1-0.1 0.2-0.2 0-0.1 0.1-0.3 0.2-0.4 0.1 0.1 0.2 0.2 0.2 0.3 1.4-0.9 2.5-1.9 3.5-3.2 0.2 0 0.4 0.1 0.6 0.2l0.4-0.4c0.5-1.2 0.5-2.4 0.1-3.6 0.1-0.2 0.2-0.3 0.4 0 0.1-0.4 0.3-0.6 0.5-0.9 0.3 0.2 0.4 0.2 0.2-0.1 0.4-0.6 0.8-0.6 1.2 0z"></path><path fill="#7f8083" d="m13.9 20.7c-0.1 0.8 0.3 1.2 0.9 1.3 0 0.3-0.1 0.5-0.4 0.6-0.3-0.1-0.6 0-1 0 0.1 0.1 0.1 0.2 0.2 0.3-0.2 0.1-0.4 0.2-0.5 0.4-0.1 0.1-0.1 0.2 0 0.3-0.3 0.3-0.4 0.6-0.5 0.9-0.4 0.2-0.7 0.5-0.9 0.7-0.5 0.6-0.9 1.2-1.3 1.9-0.4 0.1-0.7 0.3-1 0.7-0.2 0.5-0.3 1.1-0.5 1.7 0.4 0.8 0.7 1.7 1 2.6 0.5 0.9 1.2 1.9 1.8 2.7-0.3-0.1-0.6-0.2-0.8-0.4-0.2-0.4-0.5-0.8-0.8-1.1-0.2-0.5-0.4-1-0.8-1.3-0.1-0.3-0.2-0.7-0.2-1-0.2-0.6-0.3-1.3-0.5-2 0.1-0.4 0.2-0.8 0.3-1.2 0.4-0.2 0.6-0.5 0.8-0.9l0.1 0.2c0.3-0.4 0.4-0.8 0.5-1.2 0.2 0.1 0.4 0 0.6 0-0.1-0.1-0.1-0.2-0.1-0.2 0.7-0.4 0.6-0.7-0.2-0.9-0.3 0-0.4 0.1-0.3 0.4-0.3-0.1-0.5-0.1-0.7 0.2-0.4-0.1-0.8-0.2-1.2-0.3-1.2 0.2-2.4 0.2-3.5-0.1-1-0.5-1.7-1.3-2.2-2.3 0.7 0.7 1.4 1.3 2.3 1.6 1.8 0.3 3.5 0 5.1-1 1.3-0.7 2.5-1.6 3.8-2.6z"></path><path fill="#7d7f83" d="m17.2 20.7c0 0 0.1-0.1 0.2-0.1 0.1 0.3 0.2 0.6 0.1 1 0.5 0 1 0 1.6-0.1 0.2-0.1 0.3-0.2 0.2-0.5 0.2 0 0.4 0 0.6-0.1 0.1 0.1 0.2 0.2 0.3 0.3 0 0.4 0 0.7-0.2 1.1-0.2 0.2-0.5 0.5-0.7 0.8-0.3 0.2-0.7 0.2-0.9-0.1-0.1 0-0.2 0.1-0.3 0.1-0.3-0.3-0.6-0.6-0.8-1 0-0.4 0-0.9-0.1-1.4z"></path><path fill="#5f5f61" d="m34.1 17.4c0.5 1.5 0.8 3 0.9 4.6 0 0.2 0.1 0.3 0.2 0.4-0.3 1.3-0.7 2.5-1.4 3.5 0.5-2.1 0.6-4.3 0.3-6.6v-1.9z" opacity=".858"></path><path fill="#101317" d="m17.2 20.7c0.1 0.5 0.1 1 0.1 1.4 0.2 0.4 0.5 0.7 0.8 1 0.3 0.8 0.7 1.6 1 2.4-0.1 0.1-0.1 0.1-0.2 0.2-0.1-0.3-0.3-0.6-0.3-0.9-0.1 0.3-0.1 0.6 0 0.9-0.3-0.3-0.5-0.3-0.8-0.2-0.5 0.3-1 0.6-1.6 0.8l-0.4 0.5c-0.2-0.2-0.3-0.1-0.4 0.1 0.2 0 0.3 0.1 0.4 0.2-0.3 0.3-0.6 0.3-0.9 0.1-0.5 0.3-0.9 0.6-1.5 0.9l-0.3-0.3c-0.3 0.3-0.7 0.4-1.1 0.3l-0.3-0.3c-0.2 0.8-0.3 1.6-0.2 2.5-0.2-0.5-0.2-1.1-0.2-1.7 0.1-0.6 0.2-1.1 0.4-1.7 0.8-1.5 1.7-2.9 2.7-4.3 0.3-0.1 0.4-0.3 0.4-0.6 0.3-0.2 0.5-0.4 0.7-0.7 0.2 0.1 0.3 0.2 0.5 0.4 0.1 0.1 0.2 0.1 0.4 0 0.3-0.3 0.6-0.6 0.8-1z"></path><path fill="#67696c" d="m20.3 20.3c0.1 1.7-0.2 3.3-1 4.8-0.1 0.1-0.2 0.3-0.2 0.4-0.3-0.8-0.7-1.6-1-2.4 0.1 0 0.2-0.1 0.3-0.1 0.2 0.3 0.6 0.3 0.9 0.1 0.2-0.3 0.5-0.6 0.7-0.8 0.2-0.4 0.2-0.7 0.2-1.1-0.1-0.4 0-0.6 0.1-0.9z"></path><path fill="#020409" d="m26.4 17.4h0.1c0.3 0.1 0.6 0.1 1 0 0 0.6 0.1 1.2 0.1 1.8h-0.8c0 0.3 0.1 0.5 0.4 0.6-0.2 0.5-0.4 1-0.6 1.5 0.2 0.3 0.4 0.5 0.8 0.4-0.2 0.4-0.4 0.7-0.7 1-0.6-0.4-1-1-1.2-1.7l-0.5 1c0.5 1.1 1.4 1.7 2.6 1.7 0 1.1-0.4 2-1.2 2.8-0.2 0.5-0.5 1-1 1.3l-0.3-0.3c-0.3 0.2-0.5 0.4-0.8 0.5-0.2 0.1-0.2 0.3-0.2 0.5-0.1 0-0.3 0-0.4 0-0.2 0.3-0.5 0.5-0.7 0.7-0.1-0.1-0.3-0.2-0.4-0.3-0.7 0.5-1.5 0.9-2.2 1.4-0.5-0.3-1-0.4-1.5-0.4-1.7 0.2-2.4 1.2-2.3 2.9-0.1 0-0.1-0.1-0.2-0.1-0.7 0.3-1.4 0.6-2.1 0.8h-0.3c-0.4-0.2-0.8-0.4-1.1-0.7-0.7-0.5-1.2-1.2-1.3-2.1 0-0.3 0.2-0.5 0.5-0.4 0.4-0.1 0.8-0.3 1.2-0.6 0.2 0.1 0.5 0.2 0.7 0.3 0.4-0.2 0.7-0.2 1 0l3.1-1.5c-0.1-0.1-0.3-0.2-0.5-0.2l0.5-0.5c0.9-0.2 1.7-0.8 2.2-1.6 1.6-1.1 2.9-2.3 4-3.9 0.2 0.2 0.4 0.3 0.7 0.1-0.4-0.6-0.5-1.2-0.5-1.9-0.2-1.5 0.4-2.6 1.9-3.1z"></path><path fill="#a4a5a6" d="m2.2 13c-0.3 1.3-0.6 2.5-0.7 3.8-0.1 0.2-0.3 0.2-0.4 0-0.7 4.2 0.5 7.5 3.8 10.1 1.3 2.3 2.6 4.5 4.2 6.6-0.3-0.1-0.5-0.2-0.7-0.4-1.3-1.8-2.5-3.7-3.6-5.6-4.4-4.1-5.4-8.9-3-14.5 0.1-0.1 0.3-0.1 0.4 0z"></path><path fill="#313233" d="m33.1 23.7c0.1 0.1 0.1 0.2 0.2 0.3-0.6 2.1-1.3 4.1-2.3 6-0.3 0.6-0.8 1.1-1.4 1.4 0.5-1.2 1-2.4 1.5-3.6 0 0-0.1-0.1-0.1-0.2 0.8-1.2 1.5-2.6 2.1-3.9z" opacity=".955"></path><path fill="#86888b" d="m1.5 19.3c0.3 1.2 0.7 2.3 1.2 3.4 0.5 1 1.2 1.8 2.2 2.3 1.1 0.3 2.3 0.3 3.5 0.1 0.4 0.1 0.8 0.2 1.2 0.3 0.2-0.3 0.4-0.3 0.7-0.2-0.1-0.3 0-0.4 0.3-0.4 0.8 0.2 0.9 0.5 0.2 0.9 0 0 0 0.1 0.1 0.2-0.2 0-0.4 0.1-0.6 0-0.1 0.4-0.2 0.8-0.5 1.2l-0.1-0.2c-0.2 0.4-0.4 0.7-0.8 0.9-0.1 0.4-0.2 0.8-0.3 1.2 0.2 0.7 0.3 1.4 0.5 2-0.6-0.7-1-1.6-1.2-2.6 0.1-0.2 0.1-0.4 0-0.6 0.1-0.1 0.3-0.3 0.5-0.4-0.1-0.1-0.2-0.2-0.2-0.3 0.2-0.3 0.3-0.6 0.4-0.9-0.1-0.2-0.3-0.3-0.5-0.3-0.8 0.3-1.6 0.2-2.3-0.2-0.2 0.1-0.4 0.1-0.7 0-0.5-0.2-0.9-0.6-1.4-0.9-0.3-0.5-0.7-0.9-1.1-1.2-0.4-0.5-0.7-1-0.8-1.6-0.2-0.9-0.3-1.8-0.3-2.7z"></path><path fill="#9c9c9d" d="m1.5 16.8v2.5c0 0.9 0.1 1.8 0.3 2.7 0.1 0.6 0.4 1.1 0.8 1.6 0.3 0.5 0.7 1 1.1 1.4 1.1 0.8 2.3 1.5 3.4 2.2 0.3 1.7 0.9 3.3 1.8 4.8 0.4 0.4 0.8 0.8 1.2 1.3 0.3 0.3 0.6 0.7 0.8 1.1-0.7-0.2-1.3-0.5-1.8-0.9-1.6-2.1-2.9-4.3-4.2-6.6-3.3-2.6-4.5-5.9-3.8-10.1 0.1 0.2 0.3 0.2 0.4 0z" opacity=".986"></path><path fill="#8e8f92" d="m2.6 23.6c0.4 0.3 0.8 0.7 1.1 1.2 0.5 0.3 0.9 0.7 1.4 0.9 0.3 0.1 0.5 0.1 0.7 0 0.7 0.4 1.5 0.5 2.3 0.2 0.2 0 0.4 0.1 0.5 0.3-0.1 0.3-0.2 0.6-0.4 0.9 0 0.1 0.1 0.2 0.2 0.3-0.2 0.1-0.4 0.3-0.5 0.4 0.1 0.2 0.1 0.4 0 0.6 0.2 1 0.6 1.9 1.2 2.6 0 0.3 0.1 0.7 0.2 1 0.4 0.3 0.6 0.8 0.8 1.3-0.4-0.5-0.8-0.9-1.2-1.3-0.9-1.5-1.5-3.1-1.8-4.8-1.1-0.7-2.3-1.4-3.4-2.2-0.4-0.4-0.8-0.9-1.1-1.4z"></path><path fill="#3b3c3d" d="m33.7 21.7c0.2 1.3 0.1 2.6-0.2 3.8-0.4 0.9-0.8 1.9-1.1 2.8-0.3 0.7-0.8 1.3-1.4 1.7 1-1.9 1.7-3.9 2.3-6-0.1-0.1-0.1-0.2-0.2-0.3 0.2-0.7 0.4-1.3 0.6-2z"></path><path fill="#76787b" d="m14.4 22.6c-1 1.4-1.9 2.8-2.7 4.3-0.1 0-0.2 0.1-0.3 0.2-0.4 0.7-0.9 1.4-1.3 2.1-0.2 2 0.5 3.7 1.9 5.2 0.3 0.2 0.6 0.4 0.9 0.7-0.4 0-0.8-0.1-1.2-0.3-0.6-0.8-1.3-1.8-1.8-2.7-0.3-0.9-0.6-1.8-1-2.6 0.2-0.6 0.3-1.2 0.5-1.7 0.3-0.4 0.6-0.6 1-0.7 0.4-0.7 0.8-1.3 1.3-1.9 0.2-0.2 0.5-0.5 0.9-0.7 0.1-0.3 0.2-0.6 0.5-0.9-0.1-0.1-0.1-0.2 0-0.3 0.1-0.2 0.3-0.3 0.5-0.4-0.1-0.1-0.1-0.2-0.2-0.3 0.4 0 0.7-0.1 1 0z"></path><path fill="#66676a" d="m11.7 26.9c-0.2 0.6-0.3 1.1-0.4 1.7-0.1 0.6-0.2 1.3-0.4 1.9 0.3 0.8 0.4 1.6 0.5 2.5 0.5 0.8 1.2 1.5 1.9 2.2-0.2 0.1-0.3 0-0.4-0.1-0.3-0.3-0.6-0.5-0.9-0.7-1.4-1.5-2.1-3.2-1.9-5.2 0.4-0.7 0.9-1.4 1.3-2.1 0.1-0.1 0.2-0.2 0.3-0.2z"></path><path fill="#242426" d="m31 27.6c0 0.1 0.1 0.2 0.1 0.2-0.5 1.2-1 2.4-1.5 3.6-0.9 0.9-2 1.7-3.1 2.3-0.1-0.1-0.2-0.2-0.3-0.2-2 0.6-4 0.8-6 0.6 4.4-0.7 8-2.9 10.8-6.5z"></path><path fill="#333435" d="m14 33.5h0.3c0.5 0.3 1 0.6 1.7 0.7 1.4 0.1 2.8 0.1 4.2-0.1 2 0.2 4 0 6-0.6 0.1 0 0.2 0.1 0.3 0.2-1.4 0.7-2.8 1.3-4.4 1.7-0.1-0.1-0.2-0.2-0.4-0.2-1.6 0.3-3.2 0.3-4.8 0.2-1.1-0.2-2-0.8-2.8-1.6-0.1-0.1-0.1-0.2-0.1-0.3z" opacity=".961"></path><path fill="#57585a" d="m11.3 28.6c0 0.6 0 1.2 0.2 1.7-0.1 0.2 0 0.3 0.1 0.4 0.1 0.9 0.6 1.6 1.3 2.1-0.1 0.1-0.2 0.2-0.3 0.2 0.8 1.1 1.7 2 2.8 2.6-0.7 0-1.4-0.1-2.1-0.4-0.7-0.7-1.4-1.4-1.9-2.2-0.1-0.9-0.2-1.7-0.5-2.5 0.2-0.6 0.3-1.3 0.4-1.9z"></path><path fill="#434345" d="m12.9 32.8c0.3 0.3 0.7 0.5 1.1 0.7 0 0.1 0 0.2 0.1 0.3 0.8 0.8 1.7 1.4 2.8 1.6 1.6 0.1 3.2 0.1 4.8-0.2 0.2 0 0.3 0.1 0.4 0.2-0.8 0.1-1.6 0.3-2.3 0.5h-3.6c0-0.2-0.1-0.2-0.1 0h-0.1l-0.6-0.3c-1.1-0.6-2-1.5-2.8-2.6 0.1 0 0.2-0.1 0.3-0.2z" opacity=".62"></path></svg>