<?xml version="1.0" encoding="UTF-8"?>
<!DOCTYPE svg PUBLIC "-//W3C//DTD SVG 1.1//EN" "http://www.w3.org/Graphics/SVG/1.1/DTD/svg11.dtd">
<svg xmlns="http://www.w3.org/2000/svg" version="1.1" width="100px" height="100px" style="shape-rendering:geometricPrecision; text-rendering:geometricPrecision; image-rendering:optimizeQuality; fill-rule:evenodd; clip-rule:evenodd" xmlns:xlink="http://www.w3.org/1999/xlink">
<g><path style="opacity:1" fill="#f6f1ea" d="M -0.5,-0.5 C 14.8333,-0.5 30.1667,-0.5 45.5,-0.5C 45.5,0.833333 45.5,2.16667 45.5,3.5C 44.0413,3.43255 42.7079,3.76589 41.5,4.5C 38.6646,3.14559 35.9979,3.64559 33.5,6C 34.3805,6.7083 35.0472,7.54163 35.5,8.5C 35.5,8.83333 35.5,9.16667 35.5,9.5C 34.6236,9.36912 33.9569,9.70245 33.5,10.5C 34.6119,11.2652 35.2786,12.2652 35.5,13.5C 34.1667,13.5 32.8333,13.5 31.5,13.5C 31.4226,12.2502 30.756,11.4169 29.5,11C 30.9733,10.2904 31.6399,9.12377 31.5,7.5C 29.5,7.5 27.5,7.5 25.5,7.5C 25.5,8.83333 25.5,10.1667 25.5,11.5C 22.7531,11.1866 20.0865,11.52 17.5,12.5C 18.698,12.9396 19.8647,13.273 21,13.5C 20.5771,15.3867 20.7437,17.3867 21.5,19.5C 18.9242,19.5321 16.5909,18.8654 14.5,17.5C 13.5,17.5 12.5,17.5 11.5,17.5C 11.5,18.8333 11.5,20.1667 11.5,21.5C 9.62143,21.3932 9.2881,21.8932 10.5,23C 9.0611,23.9906 8.0611,25.324 7.5,27C 8.59809,27.7697 8.59809,28.603 7.5,29.5C 5.68403,31.1184 4.3507,33.1184 3.5,35.5C 3.5,37.5 3.5,39.5 3.5,41.5C 2.41383,41.62 1.74716,42.2867 1.5,43.5C 1.54272,44.4164 1.87605,45.0831 2.5,45.5C 1.87764,47.1216 0.877641,48.4549 -0.5,49.5C -0.5,32.8333 -0.5,16.1667 -0.5,-0.5 Z"/></g>
<g><path style="opacity:1" fill="#f0eae4" d="M 45.5,-0.5 C 63.5,-0.5 81.5,-0.5 99.5,-0.5C 99.5,15.5 99.5,31.5 99.5,47.5C 98.8333,47.5 98.1667,47.5 97.5,47.5C 97.3404,45.847 96.6737,44.5137 95.5,43.5C 95.8016,40.9407 95.4682,38.6074 94.5,36.5C 94.5159,34.3709 93.8492,32.5376 92.5,31C 93.985,29.2435 93.6516,28.0768 91.5,27.5C 90.1667,28.1667 88.8333,28.8333 87.5,29.5C 88.1712,28.1529 88.1712,26.9862 87.5,26C 88.3081,25.6924 88.9747,25.1924 89.5,24.5C 87.472,23.451 85.472,22.451 83.5,21.5C 83.3921,19.2166 82.5588,17.2166 81,15.5C 79.8647,15.273 78.698,14.9396 77.5,14.5C 78.186,12.9361 78.0194,11.2694 77,9.5C 74.6408,12.0376 73.1408,11.3709 72.5,7.5C 71.8933,7.62358 71.56,7.95691 71.5,8.5C 69.7837,6.97516 67.7837,5.97516 65.5,5.5C 65.3276,1.02926 64.4943,0.69593 63,4.5C 62.6174,3.94404 62.1174,3.61071 61.5,3.5C 58.4745,3.23096 55.8078,4.06429 53.5,6C 53.8333,6.33333 54.1667,6.66667 54.5,7C 51.3707,9.41045 49.0374,8.91045 47.5,5.5C 44.5,5.16667 43.1667,6.5 43.5,9.5C 41.857,9.48015 40.5237,10.1468 39.5,11.5C 38.537,11.0302 38.537,10.3635 39.5,9.5C 40.2778,8.84439 40.9444,8.01106 41.5,7C 41.1667,6.5 40.8333,6 40.5,5.5C 39.4822,6.19251 38.4822,6.85917 37.5,7.5C 37.5858,6.5041 37.2524,5.67076 36.5,5C 38.1341,4.50649 39.8008,4.33982 41.5,4.5C 42.7079,3.76589 44.0413,3.43255 45.5,3.5C 45.5,2.16667 45.5,0.833333 45.5,-0.5 Z"/></g>
<g><path style="opacity:1" fill="#f055eb" d="M 65.5,5.5 C 64.1667,5.5 62.8333,5.5 61.5,5.5C 61.5,4.83333 61.5,4.16667 61.5,3.5C 62.1174,3.61071 62.6174,3.94404 63,4.5C 64.4943,0.69593 65.3276,1.02926 65.5,5.5 Z"/></g>
<g><path style="opacity:1" fill="#ff6eff" d="M 25.5,1.5 C 26.5862,1.61998 27.2528,2.28665 27.5,3.5C 27.1667,4.16667 26.8333,4.83333 26.5,5.5C 25.5713,4.31116 25.238,2.97782 25.5,1.5 Z"/></g>
<g><path style="opacity:1" fill="#a5c134" d="M 47.5,5.5 C 47.5,4.16667 47.5,2.83333 47.5,1.5C 48.8333,1.5 50.1667,1.5 51.5,1.5C 51.5,2.83333 51.5,4.16667 51.5,5.5C 50.1667,5.5 48.8333,5.5 47.5,5.5 Z"/></g>
<g><path style="opacity:1" fill="#af449c" d="M 41.5,4.5 C 39.8008,4.33982 38.1341,4.50649 36.5,5C 37.2524,5.67076 37.5858,6.5041 37.5,7.5C 36.8333,7.83333 36.1667,8.16667 35.5,8.5C 35.0472,7.54163 34.3805,6.7083 33.5,6C 35.9979,3.64559 38.6646,3.14559 41.5,4.5 Z"/></g>
<g><path style="opacity:1" fill="#c8503e" d="M 39.5,9.5 C 38.2502,9.57735 37.4169,10.244 37,11.5C 36.2828,10.9558 35.7828,10.2891 35.5,9.5C 35.5,9.16667 35.5,8.83333 35.5,8.5C 36.1667,8.16667 36.8333,7.83333 37.5,7.5C 38.4822,6.85917 39.4822,6.19251 40.5,5.5C 40.8333,6 41.1667,6.5 41.5,7C 40.9444,8.01106 40.2778,8.84439 39.5,9.5 Z"/></g>
<g><path style="opacity:1" fill="#742f9f" d="M 61.5,5.5 C 61.0254,8.08209 61.6921,10.0821 63.5,11.5C 64.3764,11.3691 65.0431,11.7025 65.5,12.5C 63.604,13.4656 61.604,13.7989 59.5,13.5C 59.6882,11.8967 59.1882,10.5634 58,9.5C 55.8948,12.3019 53.0614,13.6352 49.5,13.5C 49.8807,12.0689 50.8807,11.2355 52.5,11C 51.5,10.6667 50.5,10.3333 49.5,10C 51.7087,8.30933 53.5421,8.476 55,10.5C 55.3149,7.85317 56.4816,7.1865 58.5,8.5C 59.1411,7.00654 60.1411,6.00654 61.5,5.5 Z"/></g>
<g><path style="opacity:1" fill="#979270" d="M 61.5,3.5 C 61.5,4.16667 61.5,4.83333 61.5,5.5C 60.1411,6.00654 59.1411,7.00654 58.5,8.5C 56.4816,7.1865 55.3149,7.85317 55,10.5C 53.5421,8.476 51.7087,8.30933 49.5,10C 50.5,10.3333 51.5,10.6667 52.5,11C 50.8807,11.2355 49.8807,12.0689 49.5,13.5C 48.1667,14.8333 46.8333,16.1667 45.5,17.5C 44.8333,17.5 44.1667,17.5 43.5,17.5C 40.5368,14.5839 40.8702,12.0839 44.5,10C 44.2716,9.60123 43.9382,9.43456 43.5,9.5C 43.1667,6.5 44.5,5.16667 47.5,5.5C 49.0374,8.91045 51.3707,9.41045 54.5,7C 54.1667,6.66667 53.8333,6.33333 53.5,6C 55.8078,4.06429 58.4745,3.23096 61.5,3.5 Z"/></g>
<g><path style="opacity:1" fill="#8b9e6f" d="M 61.5,5.5 C 62.8333,5.5 64.1667,5.5 65.5,5.5C 67.7837,5.97516 69.7837,6.97516 71.5,8.5C 70.4811,9.17009 68.9811,10.1701 67,11.5C 66.1466,9.39695 64.98,9.39695 63.5,11.5C 61.6921,10.0821 61.0254,8.08209 61.5,5.5 Z"/></g>
<g><path style="opacity:1" fill="#ac4ea2" d="M 35.5,9.5 C 35.7828,10.2891 36.2828,10.9558 37,11.5C 37.4169,10.244 38.2502,9.57735 39.5,9.5C 38.537,10.3635 38.537,11.0302 39.5,11.5C 40.5237,10.1468 41.857,9.48015 43.5,9.5C 43.9382,9.43456 44.2716,9.60123 44.5,10C 40.8702,12.0839 40.5368,14.5839 43.5,17.5C 42.88,19.9767 41.88,19.9767 40.5,17.5C 39.5713,18.6888 39.238,20.0222 39.5,21.5C 37.2417,21.2249 36.9084,20.2249 38.5,18.5C 36.1978,17.0013 36.5311,15.668 39.5,14.5C 38.2724,12.8241 36.9391,12.4908 35.5,13.5C 35.2786,12.2652 34.6119,11.2652 33.5,10.5C 33.9569,9.70245 34.6236,9.36912 35.5,9.5 Z"/></g>
<g><path style="opacity:1" fill="#b166a7" d="M 31.5,13.5 C 31.5,14.8333 32.1667,15.5 33.5,15.5C 32.9344,17.0783 31.9344,18.4116 30.5,19.5C 29.5713,18.3112 29.238,16.9778 29.5,15.5C 29.6107,14.8826 29.944,14.3826 30.5,14C 27.421,12.9096 25.0876,13.7429 23.5,16.5C 23.6236,17.1067 23.9569,17.44 24.5,17.5C 24.5,18.1667 24.5,18.8333 24.5,19.5C 22.9731,19.427 21.9731,20.0937 21.5,21.5C 20.0222,21.238 18.6888,21.5713 17.5,22.5C 18.6119,23.2652 19.2786,24.2652 19.5,25.5C 18.1779,25.67 17.0113,25.3366 16,24.5C 15.879,22.2729 15.0456,20.4396 13.5,19C 14.056,18.6174 14.3893,18.1174 14.5,17.5C 16.5909,18.8654 18.9242,19.5321 21.5,19.5C 20.7437,17.3867 20.5771,15.3867 21,13.5C 19.8647,13.273 18.698,12.9396 17.5,12.5C 20.0865,11.52 22.7531,11.1866 25.5,11.5C 25.5,10.1667 25.5,8.83333 25.5,7.5C 27.5,7.5 29.5,7.5 31.5,7.5C 31.6399,9.12377 30.9733,10.2904 29.5,11C 30.756,11.4169 31.4226,12.2502 31.5,13.5 Z"/></g>
<g><path style="opacity:1" fill="#90b744" d="M 29.5,15.5 C 28.8826,15.3893 28.3826,15.056 28,14.5C 27.7811,15.938 27.2811,17.2713 26.5,18.5C 26.0894,17.7376 25.9227,16.7376 26,15.5C 25.2828,16.0442 24.7828,16.7109 24.5,17.5C 23.9569,17.44 23.6236,17.1067 23.5,16.5C 25.0876,13.7429 27.421,12.9096 30.5,14C 29.944,14.3826 29.6107,14.8826 29.5,15.5 Z"/></g>
<g><path style="opacity:1" fill="#a26f88" d="M 71.5,8.5 C 71.56,7.95691 71.8933,7.62358 72.5,7.5C 73.1408,11.3709 74.6408,12.0376 77,9.5C 78.0194,11.2694 78.186,12.9361 77.5,14.5C 78.698,14.9396 79.8647,15.273 81,15.5C 82.5588,17.2166 83.3921,19.2166 83.5,21.5C 81.692,25.0997 79.692,25.0997 77.5,21.5C 77.3505,20.448 77.5172,19.448 78,18.5C 80.0328,19.0164 80.0328,18.3497 78,16.5C 76.4905,17.0897 74.9905,17.7564 73.5,18.5C 74.1925,19.5178 74.8592,20.5178 75.5,21.5C 75.5106,23.0174 76.1772,24.1841 77.5,25C 76.6195,25.7083 75.9528,26.5416 75.5,27.5C 74.1529,26.8288 72.9862,26.8288 72,27.5C 71.51,26.2068 71.3433,24.8734 71.5,23.5C 71.5,21.5 71.5,19.5 71.5,17.5C 72.5738,15.716 74.2404,14.5494 76.5,14C 76,13.5 75.5,13 75,12.5C 72.7331,12.8613 70.5664,13.1946 68.5,13.5C 65.1404,14.434 62.1404,16.1006 59.5,18.5C 60.1667,18.8333 60.8333,19.1667 61.5,19.5C 63.3337,18.2455 65.3337,17.5789 67.5,17.5C 67.6138,19.7179 68.2804,21.7179 69.5,23.5C 66.8559,23.8399 64.5225,23.1733 62.5,21.5C 61.9432,23.3316 60.9432,24.6649 59.5,25.5C 59.1449,23.1103 58.4783,20.777 57.5,18.5C 57.9865,16.6958 58.6532,15.0291 59.5,13.5C 61.604,13.7989 63.604,13.4656 65.5,12.5C 65.0431,11.7025 64.3764,11.3691 63.5,11.5C 64.98,9.39695 66.1466,9.39695 67,11.5C 68.9811,10.1701 70.4811,9.17009 71.5,8.5 Z"/></g>
<g><path style="opacity:1" fill="#7938b3" d="M 68.5,13.5 C 68.7986,15.4553 69.7986,16.7886 71.5,17.5C 71.5,19.5 71.5,21.5 71.5,23.5C 70.8333,23.5 70.1667,23.5 69.5,23.5C 68.2804,21.7179 67.6138,19.7179 67.5,17.5C 65.3337,17.5789 63.3337,18.2455 61.5,19.5C 60.8333,19.1667 60.1667,18.8333 59.5,18.5C 62.1404,16.1006 65.1404,14.434 68.5,13.5 Z"/></g>
<g><path style="opacity:1" fill="#98b654" d="M 71.5,17.5 C 69.7986,16.7886 68.7986,15.4553 68.5,13.5C 70.5664,13.1946 72.7331,12.8613 75,12.5C 75.5,13 76,13.5 76.5,14C 74.2404,14.5494 72.5738,15.716 71.5,17.5 Z"/></g>
<g><path style="opacity:1" fill="#84ac5f" d="M 59.5,13.5 C 58.6532,15.0291 57.9865,16.6958 57.5,18.5C 58.4783,20.777 59.1449,23.1103 59.5,25.5C 58.8333,25.5 58.1667,25.5 57.5,25.5C 56.4072,21.8937 54.7405,18.5604 52.5,15.5C 52.1667,16 51.8333,16.5 51.5,17C 53.1458,19.595 53.8125,22.4284 53.5,25.5C 50.1667,25.5 46.8333,25.5 43.5,25.5C 43.7985,21.9351 42.4652,20.6018 39.5,21.5C 39.238,20.0222 39.5713,18.6888 40.5,17.5C 41.88,19.9767 42.88,19.9767 43.5,17.5C 44.1667,17.5 44.8333,17.5 45.5,17.5C 46.8333,16.1667 48.1667,14.8333 49.5,13.5C 53.0614,13.6352 55.8948,12.3019 58,9.5C 59.1882,10.5634 59.6882,11.8967 59.5,13.5 Z"/></g>
<g><path style="opacity:1" fill="#4e0d5b" d="M 45.5,17.5 C 46.9778,17.238 48.3112,17.5713 49.5,18.5C 48.8333,18.8333 48.1667,19.1667 47.5,19.5C 46.2867,19.2528 45.62,18.5862 45.5,17.5 Z"/></g>
<g><path style="opacity:1" fill="#89826e" d="M 24.5,19.5 C 26.7373,20.449 29.0706,21.1156 31.5,21.5C 31.5,22.1667 31.5,22.8333 31.5,23.5C 30.2223,23.7822 29.2223,24.4489 28.5,25.5C 27.3646,23.7868 25.698,23.1201 23.5,23.5C 23.1667,22.5 22.5,21.8333 21.5,21.5C 21.9731,20.0937 22.9731,19.427 24.5,19.5 Z"/></g>
<g><path style="opacity:1" fill="#a47639" d="M 39.5,21.5 C 39.5,22.1667 39.5,22.8333 39.5,23.5C 39.5,24.1667 39.5,24.8333 39.5,25.5C 38.5,25.5 37.5,25.5 36.5,25.5C 36.2281,21.7551 35.2281,18.4218 33.5,15.5C 32.1667,15.5 31.5,14.8333 31.5,13.5C 32.8333,13.5 34.1667,13.5 35.5,13.5C 36.9391,12.4908 38.2724,12.8241 39.5,14.5C 36.5311,15.668 36.1978,17.0013 38.5,18.5C 36.9084,20.2249 37.2417,21.2249 39.5,21.5 Z"/></g>
<g><path style="opacity:1" fill="#afc786" d="M 77.5,21.5 C 76.8333,21.5 76.1667,21.5 75.5,21.5C 74.8592,20.5178 74.1925,19.5178 73.5,18.5C 74.9905,17.7564 76.4905,17.0897 78,16.5C 80.0328,18.3497 80.0328,19.0164 78,18.5C 77.5172,19.448 77.3505,20.448 77.5,21.5 Z"/></g>
<g><path style="opacity:1" fill="#79c935" d="M 31.5,23.5 C 31.5,22.8333 31.5,22.1667 31.5,21.5C 32.5232,19.0943 33.1899,19.0943 33.5,21.5C 33.2528,22.7133 32.5862,23.38 31.5,23.5 Z"/></g>
<g><path style="opacity:1" fill="#954ebf" d="M 29.5,15.5 C 29.238,16.9778 29.5713,18.3112 30.5,19.5C 31.9344,18.4116 32.9344,17.0783 33.5,15.5C 35.2281,18.4218 36.2281,21.7551 36.5,25.5C 35.0695,25.5792 33.7362,25.2458 32.5,24.5C 31.5481,26.0453 31.2148,27.712 31.5,29.5C 32.8333,29.5 34.1667,29.5 35.5,29.5C 35.6068,31.3786 35.1068,31.7119 34,30.5C 33.51,31.7932 33.3433,33.1266 33.5,34.5C 32.5,34.1667 31.8333,33.5 31.5,32.5C 30.3052,30.2487 29.3052,27.9154 28.5,25.5C 29.2223,24.4489 30.2223,23.7822 31.5,23.5C 32.5862,23.38 33.2528,22.7133 33.5,21.5C 33.1899,19.0943 32.5232,19.0943 31.5,21.5C 29.0706,21.1156 26.7373,20.449 24.5,19.5C 24.5,18.8333 24.5,18.1667 24.5,17.5C 24.7828,16.7109 25.2828,16.0442 26,15.5C 25.9227,16.7376 26.0894,17.7376 26.5,18.5C 27.2811,17.2713 27.7811,15.938 28,14.5C 28.3826,15.056 28.8826,15.3893 29.5,15.5 Z"/></g>
<g><path style="opacity:1" fill="#929297" d="M 36.5,25.5 C 37.5,25.5 38.5,25.5 39.5,25.5C 40.6576,26.9498 40.1576,27.9498 38,28.5C 36.5391,27.1175 35.7058,27.4508 35.5,29.5C 34.1667,29.5 32.8333,29.5 31.5,29.5C 31.2148,27.712 31.5481,26.0453 32.5,24.5C 33.7362,25.2458 35.0695,25.5792 36.5,25.5 Z"/></g>
<g><path style="opacity:1" fill="#e43aed" d="M 57.5,25.5 C 58.1667,25.5 58.8333,25.5 59.5,25.5C 59.5,26.8333 58.8333,27.5 57.5,27.5C 57.5,26.8333 57.5,26.1667 57.5,25.5 Z"/></g>
<g><path style="opacity:1" fill="#64a46e" d="M 14.5,17.5 C 14.3893,18.1174 14.056,18.6174 13.5,19C 15.0456,20.4396 15.879,22.2729 16,24.5C 17.0113,25.3366 18.1779,25.67 19.5,25.5C 20.3764,25.3691 21.0431,25.7025 21.5,26.5C 19.604,27.4656 17.604,27.7989 15.5,27.5C 13.5196,27.1464 11.5196,26.813 9.5,26.5C 10.8333,25.8333 12.1667,25.1667 13.5,24.5C 12.3881,23.7348 11.7214,22.7348 11.5,21.5C 11.5,20.1667 11.5,18.8333 11.5,17.5C 12.5,17.5 13.5,17.5 14.5,17.5 Z"/></g>
<g><path style="opacity:1" fill="#54b650" d="M 39.5,23.5 C 41.0542,24.9142 42.3875,26.5808 43.5,28.5C 41.7354,29.4614 39.7354,29.7947 37.5,29.5C 36.8333,29.5 36.1667,29.5 35.5,29.5C 35.7058,27.4508 36.5391,27.1175 38,28.5C 40.1576,27.9498 40.6576,26.9498 39.5,25.5C 39.5,24.8333 39.5,24.1667 39.5,23.5 Z"/></g>
<g><path style="opacity:1" fill="#ce5e9a" d="M 23.5,23.5 C 25.698,23.1201 27.3646,23.7868 28.5,25.5C 29.3052,27.9154 30.3052,30.2487 31.5,32.5C 29.6214,32.3932 29.2881,32.8932 30.5,34C 29.1709,38.4142 27.5042,38.4142 25.5,34C 25.8919,32.9895 26.5585,32.4895 27.5,32.5C 25.3359,31.5857 23.3359,30.419 21.5,29C 22.7839,28.3162 23.9505,28.4829 25,29.5C 25.6449,28.354 26.4783,27.354 27.5,26.5C 25.6684,25.9432 24.3351,24.9432 23.5,23.5 Z"/></g>
<g><path style="opacity:1" fill="#8e638d" d="M 57.5,25.5 C 57.5,26.1667 57.5,26.8333 57.5,27.5C 59.5,28.8333 61.5,30.1667 63.5,31.5C 63.5,32.1667 63.5,32.8333 63.5,33.5C 60.9413,30.6669 59.608,31.3336 59.5,35.5C 57.901,35.7678 56.5676,35.4345 55.5,34.5C 54.6794,31.6615 53.0128,29.3281 50.5,27.5C 49.0834,29.2611 47.4167,30.5944 45.5,31.5C 45.6567,30.1266 45.49,28.7932 45,27.5C 44.6174,28.056 44.1174,28.3893 43.5,28.5C 42.3875,26.5808 41.0542,24.9142 39.5,23.5C 39.5,22.8333 39.5,22.1667 39.5,21.5C 42.4652,20.6018 43.7985,21.9351 43.5,25.5C 46.8333,25.5 50.1667,25.5 53.5,25.5C 53.8125,22.4284 53.1458,19.595 51.5,17C 51.8333,16.5 52.1667,16 52.5,15.5C 54.7405,18.5604 56.4072,21.8937 57.5,25.5 Z"/></g>
<g><path style="opacity:1" fill="#94458c" d="M 75.5,21.5 C 76.1667,21.5 76.8333,21.5 77.5,21.5C 79.692,25.0997 81.692,25.0997 83.5,21.5C 85.472,22.451 87.472,23.451 89.5,24.5C 88.9747,25.1924 88.3081,25.6924 87.5,26C 88.1712,26.9862 88.1712,28.1529 87.5,29.5C 86.8826,29.3893 86.3826,29.056 86,28.5C 85.1055,31.3747 84.2722,31.7081 83.5,29.5C 85.4631,27.8172 85.6297,26.1505 84,24.5C 83.0723,26.3348 81.9056,26.6682 80.5,25.5C 79.1667,26.8333 77.8333,28.1667 76.5,29.5C 75.7025,29.0431 75.3691,28.3764 75.5,27.5C 75.9528,26.5416 76.6195,25.7083 77.5,25C 76.1772,24.1841 75.5106,23.0174 75.5,21.5 Z"/></g>
<g><path style="opacity:1" fill="#c53d49" d="M 11.5,21.5 C 11.7214,22.7348 12.3881,23.7348 13.5,24.5C 12.1667,25.1667 10.8333,25.8333 9.5,26.5C 11.5196,26.813 13.5196,27.1464 15.5,27.5C 15.5,28.1667 15.5,28.8333 15.5,29.5C 13.0459,29.3205 10.8792,29.9872 9,31.5C 7.97008,31.1639 7.47008,30.4972 7.5,29.5C 8.59809,28.603 8.59809,27.7697 7.5,27C 8.0611,25.324 9.0611,23.9906 10.5,23C 9.2881,21.8932 9.62143,21.3932 11.5,21.5 Z"/></g>
<g><path style="opacity:1" fill="#97b075" d="M 69.5,23.5 C 70.1667,23.5 70.8333,23.5 71.5,23.5C 71.3433,24.8734 71.51,26.2068 72,27.5C 72.9862,26.8288 74.1529,26.8288 75.5,27.5C 75.3691,28.3764 75.7025,29.0431 76.5,29.5C 77.8333,28.1667 79.1667,26.8333 80.5,25.5C 81.9056,26.6682 83.0723,26.3348 84,24.5C 85.6297,26.1505 85.4631,27.8172 83.5,29.5C 84.2722,31.7081 85.1055,31.3747 86,28.5C 86.3826,29.056 86.8826,29.3893 87.5,29.5C 86.438,31.2341 86.438,32.9008 87.5,34.5C 88.1859,35.8484 89.1859,37.015 90.5,38C 89.09,38.3678 88.09,39.2011 87.5,40.5C 90.3074,43.9528 90.6407,47.4528 88.5,51C 89.2524,51.6708 89.5858,52.5041 89.5,53.5C 86.8316,53.3337 84.4983,52.3337 82.5,50.5C 81.269,49.3493 81.269,48.1827 82.5,47C 81.552,46.5172 80.552,46.3505 79.5,46.5C 81.3252,44.3556 81.9919,42.0222 81.5,39.5C 79.9349,35.9236 77.2682,33.9236 73.5,33.5C 73.0343,36.6236 71.701,39.2903 69.5,41.5C 66.7576,42.3939 66.0909,41.3939 67.5,38.5C 65.7389,37.0834 64.4056,35.4167 63.5,33.5C 66.1667,32.8333 66.1667,32.1667 63.5,31.5C 61.5,30.1667 59.5,28.8333 57.5,27.5C 58.8333,27.5 59.5,26.8333 59.5,25.5C 60.9432,24.6649 61.9432,23.3316 62.5,21.5C 64.5225,23.1733 66.8559,23.8399 69.5,23.5 Z"/></g>
<g><path style="opacity:1" fill="#e20ced" d="M 63.5,31.5 C 66.1667,32.1667 66.1667,32.8333 63.5,33.5C 63.5,32.8333 63.5,32.1667 63.5,31.5 Z"/></g>
<g><path style="opacity:1" fill="#a58977" d="M 45.5,31.5 C 45.811,32.4778 46.4777,33.1445 47.5,33.5C 48.5237,32.1468 49.857,31.4802 51.5,31.5C 51.5,33.1667 51.5,34.8333 51.5,36.5C 52.5511,37.2223 53.2178,38.2223 53.5,39.5C 52.1667,39.5 51.5,40.1667 51.5,41.5C 49.326,41.0798 47.326,41.0798 45.5,41.5C 44.913,40.7666 44.913,39.7666 45.5,38.5C 44.537,37.6365 44.537,36.9698 45.5,36.5C 46.7678,37.4279 48.1011,37.5946 49.5,37C 46.9244,35.5437 44.2577,34.377 41.5,33.5C 40.1667,33.5 38.8333,33.5 37.5,33.5C 37.5,32.1667 37.5,30.8333 37.5,29.5C 39.7354,29.7947 41.7354,29.4614 43.5,28.5C 44.1174,28.3893 44.6174,28.056 45,27.5C 45.49,28.7932 45.6567,30.1266 45.5,31.5 Z"/></g>
<g><path style="opacity:1" fill="#60b384" d="M 55.5,34.5 C 53.3023,34.4088 52.9689,35.0755 54.5,36.5C 53.5,36.5 52.5,36.5 51.5,36.5C 51.5,34.8333 51.5,33.1667 51.5,31.5C 49.857,31.4802 48.5237,32.1468 47.5,33.5C 46.4777,33.1445 45.811,32.4778 45.5,31.5C 47.4167,30.5944 49.0834,29.2611 50.5,27.5C 53.0128,29.3281 54.6794,31.6615 55.5,34.5 Z"/></g>
<g><path style="opacity:1" fill="#83529b" d="M 15.5,29.5 C 17.1992,29.3398 18.8659,29.5065 20.5,30C 16.0158,30.8847 15.6825,32.0514 19.5,33.5C 19.5,34.1667 19.5,34.8333 19.5,35.5C 19.5,36.8333 19.5,38.1667 19.5,39.5C 17.712,39.2148 16.0453,39.5481 14.5,40.5C 15.4289,42.6378 17.0955,43.8045 19.5,44C 18.944,44.3826 18.6107,44.8826 18.5,45.5C 15.9242,45.5321 13.5909,44.8654 11.5,43.5C 12.5566,41.0587 13.89,38.7254 15.5,36.5C 14.5853,35.6721 13.9186,34.6721 13.5,33.5C 14.2255,32.1331 14.8921,30.7997 15.5,29.5 Z"/></g>
<g><path style="opacity:1" fill="#9445f0" d="M 19.5,35.5 C 19.5,34.8333 19.5,34.1667 19.5,33.5C 19.3691,32.6236 19.7025,31.9569 20.5,31.5C 24.8352,34.1448 24.5018,35.4782 19.5,35.5 Z"/></g>
<g><path style="opacity:1" fill="#8a4ed6" d="M 69.5,32.5 C 70.6009,31.4017 71.9343,31.235 73.5,32C 71.9588,33.5793 70.7922,35.4127 70,37.5C 69.8382,35.5459 69.6715,33.8793 69.5,32.5 Z"/></g>
<g><path style="opacity:1" fill="#aacc68" d="M 41.5,33.5 C 44.2577,34.377 46.9244,35.5437 49.5,37C 48.1011,37.5946 46.7678,37.4279 45.5,36.5C 44.537,36.9698 44.537,37.6365 45.5,38.5C 43.5956,38.7376 42.2623,39.7376 41.5,41.5C 40.8333,41.5 40.1667,41.5 39.5,41.5C 39.4142,40.5041 39.7476,39.6708 40.5,39C 39.552,38.5172 38.552,38.3505 37.5,38.5C 38.1834,36.8235 39.5168,36.1568 41.5,36.5C 41.5,35.5 41.5,34.5 41.5,33.5 Z"/></g>
<g><path style="opacity:1" fill="#bdce79" d="M 91.5,27.5 C 93.6516,28.0768 93.985,29.2435 92.5,31C 93.8492,32.5376 94.5159,34.3709 94.5,36.5C 93.1931,37.8016 93.1931,39.135 94.5,40.5C 93.675,41.3857 92.675,41.719 91.5,41.5C 91.5,36.8333 91.5,32.1667 91.5,27.5 Z"/></g>
<g><path style="opacity:1" fill="#7ecf55" d="M 6.5,39.5 C 5.56552,40.5676 5.23219,41.901 5.5,43.5C 4.83333,43.5 4.16667,43.5 3.5,43.5C 3.5,42.8333 3.5,42.1667 3.5,41.5C 3.5,39.5 3.5,37.5 3.5,35.5C 5.49181,35.6715 7.15848,35.0049 8.5,33.5C 8.83333,34 9.16667,34.5 9.5,35C 8.68539,36.6434 7.68539,38.1434 6.5,39.5 Z"/></g>
<g><path style="opacity:1" fill="#ce7075" d="M 35.5,29.5 C 36.1667,29.5 36.8333,29.5 37.5,29.5C 37.5,30.8333 37.5,32.1667 37.5,33.5C 38.8333,33.5 40.1667,33.5 41.5,33.5C 41.5,34.5 41.5,35.5 41.5,36.5C 39.5168,36.1568 38.1834,36.8235 37.5,38.5C 36.7375,39.2679 35.7375,39.7679 34.5,40C 35.2524,40.6708 35.5858,41.5041 35.5,42.5C 35.5,42.8333 35.5,43.1667 35.5,43.5C 34.8333,43.5 34.1667,43.5 33.5,43.5C 33.5,42.8333 33.5,42.1667 33.5,41.5C 33.5,40.1667 33.5,38.8333 33.5,37.5C 33.5,36.5 33.5,35.5 33.5,34.5C 33.3433,33.1266 33.51,31.7932 34,30.5C 35.1068,31.7119 35.6068,31.3786 35.5,29.5 Z"/></g>
<g><path style="opacity:1" fill="#7f60a3" d="M 87.5,34.5 C 87.5,35.5 87.5,36.5 87.5,37.5C 84.9876,37.5772 82.9876,36.5772 81.5,34.5C 82.6283,33.7379 83.7949,33.0712 85,32.5C 85.4169,33.756 86.2502,34.4226 87.5,34.5 Z"/></g>
<g><path style="opacity:1" fill="#40129d" d="M 51.5,36.5 C 52.5,36.5 53.5,36.5 54.5,36.5C 55.1098,37.391 55.4431,38.391 55.5,39.5C 54.8333,39.5 54.1667,39.5 53.5,39.5C 53.2178,38.2223 52.5511,37.2223 51.5,36.5 Z"/></g>
<g><path style="opacity:1" fill="#8c8e79" d="M 7.5,29.5 C 7.47008,30.4972 7.97008,31.1639 9,31.5C 10.8792,29.9872 13.0459,29.3205 15.5,29.5C 14.8921,30.7997 14.2255,32.1331 13.5,33.5C 13.9186,34.6721 14.5853,35.6721 15.5,36.5C 13.89,38.7254 12.5566,41.0587 11.5,43.5C 9.82351,42.8166 9.15684,41.4832 9.5,39.5C 8.5,39.5 7.5,39.5 6.5,39.5C 7.68539,38.1434 8.68539,36.6434 9.5,35C 9.16667,34.5 8.83333,34 8.5,33.5C 7.15848,35.0049 5.49181,35.6715 3.5,35.5C 4.3507,33.1184 5.68403,31.1184 7.5,29.5 Z"/></g>
<g><path style="opacity:1" fill="#da53b0" d="M 94.5,36.5 C 95.4682,38.6074 95.8016,40.9407 95.5,43.5C 93.5168,43.8432 92.1834,43.1765 91.5,41.5C 92.675,41.719 93.675,41.3857 94.5,40.5C 93.1931,39.135 93.1931,37.8016 94.5,36.5 Z"/></g>
<g><path style="opacity:1" fill="#73458c" d="M 37.5,38.5 C 38.552,38.3505 39.552,38.5172 40.5,39C 39.7476,39.6708 39.4142,40.5041 39.5,41.5C 38.5041,41.5858 37.6708,41.2524 37,40.5C 36.7216,41.4158 36.2216,42.0825 35.5,42.5C 35.5858,41.5041 35.2524,40.6708 34.5,40C 35.7375,39.7679 36.7375,39.2679 37.5,38.5 Z"/></g>
<g><path style="opacity:1" fill="#97ba65" d="M 21.5,21.5 C 22.5,21.8333 23.1667,22.5 23.5,23.5C 24.3351,24.9432 25.6684,25.9432 27.5,26.5C 26.4783,27.354 25.6449,28.354 25,29.5C 23.9505,28.4829 22.7839,28.3162 21.5,29C 23.3359,30.419 25.3359,31.5857 27.5,32.5C 26.5585,32.4895 25.8919,32.9895 25.5,34C 27.5042,38.4142 29.1709,38.4142 30.5,34C 29.2881,32.8932 29.6214,32.3932 31.5,32.5C 31.8333,33.5 32.5,34.1667 33.5,34.5C 33.5,35.5 33.5,36.5 33.5,37.5C 30.9681,38.6798 28.3014,39.6798 25.5,40.5C 26.2739,41.7112 27.1072,41.7112 28,40.5C 28.6914,42.8912 29.6914,42.8912 31,40.5C 31.6708,41.2524 32.5041,41.5858 33.5,41.5C 33.5,42.1667 33.5,42.8333 33.5,43.5C 32.5084,43.3284 31.8417,43.6618 31.5,44.5C 29.6208,43.6586 27.6208,43.3253 25.5,43.5C 23.5214,45.1675 21.188,45.8342 18.5,45.5C 18.6107,44.8826 18.944,44.3826 19.5,44C 17.0955,43.8045 15.4289,42.6378 14.5,40.5C 16.0453,39.5481 17.712,39.2148 19.5,39.5C 19.5,38.1667 19.5,36.8333 19.5,35.5C 24.5018,35.4782 24.8352,34.1448 20.5,31.5C 19.7025,31.9569 19.3691,32.6236 19.5,33.5C 15.6825,32.0514 16.0158,30.8847 20.5,30C 18.8659,29.5065 17.1992,29.3398 15.5,29.5C 15.5,28.8333 15.5,28.1667 15.5,27.5C 17.604,27.7989 19.604,27.4656 21.5,26.5C 21.0431,25.7025 20.3764,25.3691 19.5,25.5C 19.2786,24.2652 18.6119,23.2652 17.5,22.5C 18.6888,21.5713 20.0222,21.238 21.5,21.5 Z"/></g>
<g><path style="opacity:1" fill="#624cb8" d="M 33.5,37.5 C 33.5,38.8333 33.5,40.1667 33.5,41.5C 32.5041,41.5858 31.6708,41.2524 31,40.5C 29.6914,42.8912 28.6914,42.8912 28,40.5C 27.1072,41.7112 26.2739,41.7112 25.5,40.5C 28.3014,39.6798 30.9681,38.6798 33.5,37.5 Z"/></g>
<g><path style="opacity:1" fill="#b8ea32" d="M 41.5,41.5 C 42.5862,41.62 43.2528,42.2867 43.5,43.5C 43.4573,44.4164 43.1239,45.0831 42.5,45.5C 41.7659,44.2921 41.4326,42.9587 41.5,41.5 Z"/></g>
<g><path style="opacity:1" fill="#844faf" d="M 63.5,33.5 C 64.4056,35.4167 65.7389,37.0834 67.5,38.5C 66.0909,41.3939 66.7576,42.3939 69.5,41.5C 70.8333,42.1667 72.1667,42.8333 73.5,43.5C 74.8333,43.5 75.5,44.1667 75.5,45.5C 73.7179,46.7196 71.7179,47.3862 69.5,47.5C 68.8166,49.1765 67.4832,49.8432 65.5,49.5C 65.6695,47.088 65.0028,44.9214 63.5,43C 64.0223,42.0497 64.689,41.2164 65.5,40.5C 64.2109,37.8652 62.2109,36.1986 59.5,35.5C 59.608,31.3336 60.9413,30.6669 63.5,33.5 Z"/></g>
<g><path style="opacity:1" fill="#97809b" d="M 91.5,27.5 C 91.5,32.1667 91.5,36.8333 91.5,41.5C 92.1834,43.1765 93.5168,43.8432 95.5,43.5C 96.6737,44.5137 97.3404,45.847 97.5,47.5C 97.6716,48.4916 97.3382,49.1583 96.5,49.5C 92.9007,49.2619 92.5673,50.2619 95.5,52.5C 93.8164,53.1497 92.4831,54.1497 91.5,55.5C 90.1667,55.5 89.5,54.8333 89.5,53.5C 89.5858,52.5041 89.2524,51.6708 88.5,51C 90.6407,47.4528 90.3074,43.9528 87.5,40.5C 88.09,39.2011 89.09,38.3678 90.5,38C 89.1859,37.015 88.1859,35.8484 87.5,34.5C 86.438,32.9008 86.438,31.2341 87.5,29.5C 88.8333,28.8333 90.1667,28.1667 91.5,27.5 Z"/></g>
<g><path style="opacity:1" fill="#852ea2" d="M 3.5,41.5 C 3.5,42.1667 3.5,42.8333 3.5,43.5C 3.67158,44.4916 3.33825,45.1583 2.5,45.5C 1.87605,45.0831 1.54272,44.4164 1.5,43.5C 1.74716,42.2867 2.41383,41.62 3.5,41.5 Z"/></g>
<g><path style="opacity:1" fill="#b2388a" d="M 6.5,39.5 C 7.5,39.5 8.5,39.5 9.5,39.5C 9.15684,41.4832 9.82351,42.8166 11.5,43.5C 11.5,44.8333 10.8333,45.5 9.5,45.5C 8.16667,44.8333 6.83333,44.1667 5.5,43.5C 5.23219,41.901 5.56552,40.5676 6.5,39.5 Z"/></g>
<g><path style="opacity:1" fill="#89b371" d="M 53.5,39.5 C 54.1667,39.5 54.8333,39.5 55.5,39.5C 59.0681,39.7593 60.4015,41.7593 59.5,45.5C 58.1779,45.67 57.0113,45.3366 56,44.5C 56.8011,47.0449 57.1345,49.7115 57,52.5C 55.5125,50.1695 53.6791,49.8362 51.5,51.5C 49.8212,51.2852 48.8212,51.9519 48.5,53.5C 47.7784,53.9175 47.2784,54.5842 47,55.5C 45.8173,54.269 44.6507,54.269 43.5,55.5C 45.1083,56.3184 46.7749,56.9851 48.5,57.5C 49.2975,57.9569 49.6309,58.6236 49.5,59.5C 48.6043,58.4937 47.9377,58.4937 47.5,59.5C 45.5,59.5 43.5,59.5 41.5,59.5C 41.5394,58.4168 41.8728,57.4168 42.5,56.5C 40.6684,55.9432 39.3351,54.9432 38.5,53.5C 39.1499,53.8039 39.8165,54.1373 40.5,54.5C 41.5968,52.771 42.7635,51.1044 44,49.5C 45.0884,52.9926 46.255,53.1592 47.5,50C 50.0432,49.8603 52.3766,49.1937 54.5,48C 53.6383,45.2656 52.805,45.0989 52,47.5C 52.256,45.3977 52.0893,43.3977 51.5,41.5C 51.5,40.1667 52.1667,39.5 53.5,39.5 Z"/></g>
<g><path style="opacity:1" fill="#83e188" d="M 75.5,45.5 C 75.5,44.1667 74.8333,43.5 73.5,43.5C 73.238,42.0222 73.5713,40.6888 74.5,39.5C 77.0753,41.6417 78.242,44.3083 78,47.5C 77.2917,46.6195 76.4584,45.9528 75.5,45.5 Z"/></g>
<g><path style="opacity:1" fill="#aa7345" d="M 11.5,43.5 C 13.5909,44.8654 15.9242,45.5321 18.5,45.5C 21.188,45.8342 23.5214,45.1675 25.5,43.5C 25.9371,45.0744 26.9371,46.2411 28.5,47C 26.8659,47.4935 25.1992,47.6602 23.5,47.5C 21.901,47.2322 20.5676,47.5655 19.5,48.5C 18.8333,48.8333 18.1667,49.1667 17.5,49.5C 17.6309,48.6236 17.2975,47.9569 16.5,47.5C 15.7348,48.6119 14.7348,49.2786 13.5,49.5C 12.8166,47.8235 11.4832,47.1568 9.5,47.5C 9.5,46.8333 9.5,46.1667 9.5,45.5C 10.8333,45.5 11.5,44.8333 11.5,43.5 Z"/></g>
<g><path style="opacity:1" fill="#5a327b" d="M 84.5,41.5 C 87.4074,43.3145 88.7407,45.9812 88.5,49.5C 87.5,49.5 86.5,49.5 85.5,49.5C 85.822,47.2776 85.1554,45.4443 83.5,44C 84.2524,43.3292 84.5858,42.4959 84.5,41.5 Z"/></g>
<g><path style="opacity:1" fill="#77b1a5" d="M 39.5,41.5 C 40.1667,41.5 40.8333,41.5 41.5,41.5C 41.4326,42.9587 41.7659,44.2921 42.5,45.5C 40.4821,47.3678 38.8155,49.5344 37.5,52C 38.056,52.3826 38.3893,52.8826 38.5,53.5C 37.4138,53.38 36.7472,52.7133 36.5,51.5C 37.2217,49.0557 38.2217,46.7223 39.5,44.5C 39.1667,44.1667 38.8333,43.8333 38.5,43.5C 37.12,45.9767 36.12,45.9767 35.5,43.5C 35.5,43.1667 35.5,42.8333 35.5,42.5C 36.2216,42.0825 36.7216,41.4158 37,40.5C 37.6708,41.2524 38.5041,41.5858 39.5,41.5 Z"/></g>
<g><path style="opacity:1" fill="#7b5415" d="M 69.5,47.5 C 68.8826,47.6107 68.3826,47.944 68,48.5C 67.2025,46.7412 67.3691,45.0745 68.5,43.5C 69.4287,44.6888 69.762,46.0222 69.5,47.5 Z"/></g>
<g><path style="opacity:1" fill="#77bc54" d="M 9.5,47.5 C 11.4832,47.1568 12.8166,47.8235 13.5,49.5C 12.6236,49.3691 11.9569,49.7025 11.5,50.5C 13.396,51.4656 15.396,51.7989 17.5,51.5C 16.8213,53.8139 15.488,54.1472 13.5,52.5C 12.0488,54.5589 10.0488,55.5589 7.5,55.5C 7.16667,55.5 6.83333,55.5 6.5,55.5C 6.72211,53.3925 7.72211,51.7258 9.5,50.5C 7.02333,49.12 7.02333,48.12 9.5,47.5 Z"/></g>
<g><path style="opacity:1" fill="#9d6dd2" d="M 23.5,47.5 C 23.38,48.5862 22.7133,49.2528 21.5,49.5C 20.5836,49.4573 19.9169,49.1239 19.5,48.5C 20.5676,47.5655 21.901,47.2322 23.5,47.5 Z"/></g>
<g><path style="opacity:1" fill="#99b154" d="M 75.5,45.5 C 75.6138,47.7179 76.2804,49.7179 77.5,51.5C 76.8333,52.1667 76.1667,52.8333 75.5,53.5C 75.1583,52.6618 74.4916,52.3284 73.5,52.5C 73.3059,48.9952 72.3059,48.6618 70.5,51.5C 69.8669,51.8795 69.2003,52.2129 68.5,52.5C 69.2427,53.1818 69.9094,53.8485 70.5,54.5C 69.8333,54.8333 69.1667,55.1667 68.5,55.5C 67.9101,54.234 67.4101,52.9007 67,51.5C 66.7216,52.4158 66.2216,53.0825 65.5,53.5C 65.5,52.1667 65.5,50.8333 65.5,49.5C 67.4832,49.8432 68.8166,49.1765 69.5,47.5C 71.7179,47.3862 73.7179,46.7196 75.5,45.5 Z"/></g>
<g><path style="opacity:1" fill="#a948a3" d="M 17.5,49.5 C 16.4937,49.9377 16.4937,50.6043 17.5,51.5C 15.396,51.7989 13.396,51.4656 11.5,50.5C 11.9569,49.7025 12.6236,49.3691 13.5,49.5C 14.7348,49.2786 15.7348,48.6119 16.5,47.5C 17.2975,47.9569 17.6309,48.6236 17.5,49.5 Z"/></g>
<g><path style="opacity:1" fill="#bd9350" d="M 33.5,47.5 C 33.8693,49.4412 34.536,51.2745 35.5,53C 33.6891,52.293 31.6891,51.793 29.5,51.5C 29.5,50.1667 29.5,48.8333 29.5,47.5C 30.8333,47.5 32.1667,47.5 33.5,47.5 Z"/></g>
<g><path style="opacity:1" fill="#cb3eef" d="M 97.5,47.5 C 98.1667,47.5 98.8333,47.5 99.5,47.5C 99.5,48.8333 99.5,50.1667 99.5,51.5C 98.1667,51.5 97.5,52.1667 97.5,53.5C 96.5655,52.4324 96.2322,51.099 96.5,49.5C 97.3382,49.1583 97.6716,48.4916 97.5,47.5 Z"/></g>
<g><path style="opacity:1" fill="#9a5785" d="M 45.5,38.5 C 44.913,39.7666 44.913,40.7666 45.5,41.5C 47.326,41.0798 49.326,41.0798 51.5,41.5C 52.0893,43.3977 52.256,45.3977 52,47.5C 52.805,45.0989 53.6383,45.2656 54.5,48C 52.3766,49.1937 50.0432,49.8603 47.5,50C 46.255,53.1592 45.0884,52.9926 44,49.5C 42.7635,51.1044 41.5968,52.771 40.5,54.5C 39.8165,54.1373 39.1499,53.8039 38.5,53.5C 38.3893,52.8826 38.056,52.3826 37.5,52C 38.8155,49.5344 40.4821,47.3678 42.5,45.5C 43.1239,45.0831 43.4573,44.4164 43.5,43.5C 43.2528,42.2867 42.5862,41.62 41.5,41.5C 42.2623,39.7376 43.5956,38.7376 45.5,38.5 Z"/></g>
<g><path style="opacity:1" fill="#614fcb" d="M 73.5,52.5 C 72.8826,52.6107 72.3826,52.944 72,53.5C 71.7216,52.5842 71.2216,51.9175 70.5,51.5C 72.3059,48.6618 73.3059,48.9952 73.5,52.5 Z"/></g>
<g><path style="opacity:1" fill="#97908c" d="M 25.5,43.5 C 27.6208,43.3253 29.6208,43.6586 31.5,44.5C 32.1667,45.5 32.8333,46.5 33.5,47.5C 32.1667,47.5 30.8333,47.5 29.5,47.5C 29.5,48.8333 29.5,50.1667 29.5,51.5C 28.1667,51.5 27.5,52.1667 27.5,53.5C 27.1667,54.1667 26.8333,54.8333 26.5,55.5C 23.0852,55.5658 20.0852,56.7325 17.5,59C 18.938,59.2189 20.2713,59.7189 21.5,60.5C 21.0431,61.2975 20.3764,61.6309 19.5,61.5C 16.1667,61.5 12.8333,61.5 9.5,61.5C 8.83333,61.5 8.16667,61.5 7.5,61.5C 8.83333,59.5 8.83333,57.5 7.5,55.5C 10.0488,55.5589 12.0488,54.5589 13.5,52.5C 15.488,54.1472 16.8213,53.8139 17.5,51.5C 16.4937,50.6043 16.4937,49.9377 17.5,49.5C 18.1667,49.1667 18.8333,48.8333 19.5,48.5C 19.9169,49.1239 20.5836,49.4573 21.5,49.5C 22.7133,49.2528 23.38,48.5862 23.5,47.5C 25.1992,47.6602 26.8659,47.4935 28.5,47C 26.9371,46.2411 25.9371,45.0744 25.5,43.5 Z"/></g>
<g><path style="opacity:1" fill="#925a8d" d="M 89.5,53.5 C 89.5,54.8333 90.1667,55.5 91.5,55.5C 92.8333,56.1667 94.1667,56.8333 95.5,57.5C 95.5394,58.5832 95.8728,59.5832 96.5,60.5C 95.0521,61.3539 93.7187,62.3539 92.5,63.5C 91.8076,62.9747 91.3076,62.3081 91,61.5C 88.9663,62.7213 87.133,64.0546 85.5,65.5C 86.7914,64.5272 86.7914,63.5272 85.5,62.5C 87.8442,61.6628 89.8442,60.3294 91.5,58.5C 89.6095,57.5762 88.1095,56.2429 87,54.5C 86.3333,57.1667 85.6667,57.1667 85,54.5C 84.6667,55.1667 84.3333,55.8333 84,56.5C 81.5903,55.9896 78.9236,55.9896 76,56.5C 75.5172,55.552 75.3505,54.552 75.5,53.5C 76.1667,52.8333 76.8333,52.1667 77.5,51.5C 76.2804,49.7179 75.6138,47.7179 75.5,45.5C 76.4584,45.9528 77.2917,46.6195 78,47.5C 78.242,44.3083 77.0753,41.6417 74.5,39.5C 73.5713,40.6888 73.238,42.0222 73.5,43.5C 72.1667,42.8333 70.8333,42.1667 69.5,41.5C 71.701,39.2903 73.0343,36.6236 73.5,33.5C 77.2682,33.9236 79.9349,35.9236 81.5,39.5C 81.9919,42.0222 81.3252,44.3556 79.5,46.5C 80.552,46.3505 81.552,46.5172 82.5,47C 81.269,48.1827 81.269,49.3493 82.5,50.5C 84.4983,52.3337 86.8316,53.3337 89.5,53.5 Z"/></g>
<g><path style="opacity:1" fill="#f8f2ec" d="M 99.5,51.5 C 99.5,67.5 99.5,83.5 99.5,99.5C 85.5,99.5 71.5,99.5 57.5,99.5C 57.5,98.8333 57.5,98.1667 57.5,97.5C 62.5685,96.1872 67.4018,94.8538 72,93.5C 72.9503,94.0223 73.7836,94.689 74.5,95.5C 75.8304,93.6531 75.497,92.1531 73.5,91C 74.4158,90.7216 75.0825,90.2216 75.5,89.5C 78.0472,88.1211 78.0472,86.4544 75.5,84.5C 76.6888,83.5713 78.0222,83.238 79.5,83.5C 79.3433,84.8734 79.51,86.2068 80,87.5C 80.7403,85.6813 81.9069,84.3479 83.5,83.5C 84.2216,83.9175 84.7216,84.5842 85,85.5C 87.9135,82.6784 90.0802,79.3451 91.5,75.5C 90.7745,74.1331 90.1079,72.7997 89.5,71.5C 90.9432,70.6649 91.9432,69.3316 92.5,67.5C 93.944,68.981 94.6106,68.6477 94.5,66.5C 94.3433,65.1266 94.51,63.7932 95,62.5C 95.414,62.9574 95.914,63.2907 96.5,63.5C 96.8333,62.5 97.1667,61.5 97.5,60.5C 97.3601,58.9704 96.6935,57.9704 95.5,57.5C 95.7329,55.9382 96.3995,54.6049 97.5,53.5C 97.5,52.1667 98.1667,51.5 99.5,51.5 Z"/></g>
<g><path style="opacity:1" fill="#a2e86c" d="M 77.5,51.5 C 81.9423,51.8835 82.2757,52.8835 78.5,54.5C 77.6143,53.675 77.281,52.675 77.5,51.5 Z"/></g>
<g><path style="opacity:1" fill="#2a2fc0" d="M 51.5,51.5 C 51.5,52.8333 51.5,54.1667 51.5,55.5C 50.2223,55.2178 49.2223,54.5511 48.5,53.5C 48.8212,51.9519 49.8212,51.2852 51.5,51.5 Z"/></g>
<g><path style="opacity:1" fill="#67d880" d="M 29.5,51.5 C 30.343,53.1733 31.6763,54.34 33.5,55C 32.3914,55.6377 31.2247,56.1377 30,56.5C 29.7934,55.4273 28.96,54.4273 27.5,53.5C 27.5,52.1667 28.1667,51.5 29.5,51.5 Z"/></g>
<g><path style="opacity:1" fill="#925390" d="M 33.5,43.5 C 34.1667,43.5 34.8333,43.5 35.5,43.5C 36.12,45.9767 37.12,45.9767 38.5,43.5C 38.8333,43.8333 39.1667,44.1667 39.5,44.5C 38.2217,46.7223 37.2217,49.0557 36.5,51.5C 36.7472,52.7133 37.4138,53.38 38.5,53.5C 39.3351,54.9432 40.6684,55.9432 42.5,56.5C 41.8728,57.4168 41.5394,58.4168 41.5,59.5C 39.54,58.8617 37.7067,58.8617 36,59.5C 35.6924,58.6919 35.1924,58.0253 34.5,57.5C 33.4793,58.9014 32.4793,60.2347 31.5,61.5C 30.4955,60.3172 29.6622,58.9839 29,57.5C 28.2276,58.8491 27.0609,59.6824 25.5,60C 26.0442,60.7172 26.7109,61.2172 27.5,61.5C 27.5,62.8333 27.5,64.1667 27.5,65.5C 26.1667,65.5 24.8333,65.5 23.5,65.5C 23.7214,64.2652 24.3881,63.2652 25.5,62.5C 23.8164,61.1456 23.3164,59.4789 24,57.5C 24.7412,56.3595 25.5745,56.3595 26.5,57.5C 27.7733,56.7435 27.7733,56.0768 26.5,55.5C 26.8333,54.8333 27.1667,54.1667 27.5,53.5C 28.96,54.4273 29.7934,55.4273 30,56.5C 31.2247,56.1377 32.3914,55.6377 33.5,55C 31.6763,54.34 30.343,53.1733 29.5,51.5C 31.6891,51.793 33.6891,52.293 35.5,53C 34.536,51.2745 33.8693,49.4412 33.5,47.5C 32.8333,46.5 32.1667,45.5 31.5,44.5C 31.8417,43.6618 32.5084,43.3284 33.5,43.5 Z"/></g>
<g><path style="opacity:1" fill="#b653c3" d="M 68.5,55.5 C 66.6322,56.6736 65.6322,56.0069 65.5,53.5C 66.2216,53.0825 66.7216,52.4158 67,51.5C 67.4101,52.9007 67.9101,54.234 68.5,55.5 Z"/></g>
<g><path style="opacity:1" fill="#6c9635" d="M 96.5,49.5 C 96.2322,51.099 96.5655,52.4324 97.5,53.5C 96.3995,54.6049 95.7329,55.9382 95.5,57.5C 94.1667,56.8333 92.8333,56.1667 91.5,55.5C 92.4831,54.1497 93.8164,53.1497 95.5,52.5C 92.5673,50.2619 92.9007,49.2619 96.5,49.5 Z"/></g>
<g><path style="opacity:1" fill="#78d259" d="M 26.5,55.5 C 27.7733,56.0768 27.7733,56.7435 26.5,57.5C 25.5745,56.3595 24.7412,56.3595 24,57.5C 23.3164,59.4789 23.8164,61.1456 25.5,62.5C 24.3881,63.2652 23.7214,64.2652 23.5,65.5C 21.5,64.8333 20.1667,63.5 19.5,61.5C 20.3764,61.6309 21.0431,61.2975 21.5,60.5C 20.2713,59.7189 18.938,59.2189 17.5,59C 20.0852,56.7325 23.0852,55.5658 26.5,55.5 Z"/></g>
<g><path style="opacity:1" fill="#9d768c" d="M 48.5,53.5 C 49.2223,54.5511 50.2223,55.2178 51.5,55.5C 51.3893,56.1174 51.056,56.6174 50.5,57C 51.748,58.3997 52.748,59.8997 53.5,61.5C 52.5,61.5 51.5,61.5 50.5,61.5C 49.6618,61.1583 49.3284,60.4916 49.5,59.5C 49.6309,58.6236 49.2975,57.9569 48.5,57.5C 46.7749,56.9851 45.1083,56.3184 43.5,55.5C 44.6507,54.269 45.8173,54.269 47,55.5C 47.2784,54.5842 47.7784,53.9175 48.5,53.5 Z"/></g>
<g><path style="opacity:1" fill="#b120c3" d="M 13.5,55.5 C 17.7009,55.442 18.2009,56.442 15,58.5C 13.9614,57.7562 13.4614,56.7562 13.5,55.5 Z"/></g>
<g><path style="opacity:1" fill="#a99d74" d="M 55.5,34.5 C 56.5676,35.4345 57.901,35.7678 59.5,35.5C 62.2109,36.1986 64.2109,37.8652 65.5,40.5C 64.689,41.2164 64.0223,42.0497 63.5,43C 65.0028,44.9214 65.6695,47.088 65.5,49.5C 65.5,50.8333 65.5,52.1667 65.5,53.5C 65.6322,56.0069 66.6322,56.6736 68.5,55.5C 70.0421,58.1073 69.5421,58.7739 67,57.5C 65.4192,59.847 64.0859,59.847 63,57.5C 61.2087,59.5127 59.8753,59.5127 59,57.5C 58.2588,58.6405 57.4255,58.6405 56.5,57.5C 56.1667,57.6667 55.8333,57.8333 55.5,58C 58.1941,60.5525 57.5274,61.7192 53.5,61.5C 52.748,59.8997 51.748,58.3997 50.5,57C 51.056,56.6174 51.3893,56.1174 51.5,55.5C 51.5,54.1667 51.5,52.8333 51.5,51.5C 53.6791,49.8362 55.5125,50.1695 57,52.5C 57.1345,49.7115 56.8011,47.0449 56,44.5C 57.0113,45.3366 58.1779,45.67 59.5,45.5C 60.4015,41.7593 59.0681,39.7593 55.5,39.5C 55.4431,38.391 55.1098,37.391 54.5,36.5C 52.9689,35.0755 53.3023,34.4088 55.5,34.5 Z"/></g>
<g><path style="opacity:1" fill="#73847d" d="M 3.5,43.5 C 4.16667,43.5 4.83333,43.5 5.5,43.5C 6.83333,44.1667 8.16667,44.8333 9.5,45.5C 9.5,46.1667 9.5,46.8333 9.5,47.5C 7.02333,48.12 7.02333,49.12 9.5,50.5C 7.72211,51.7258 6.72211,53.3925 6.5,55.5C 6.5,56.8333 6.5,58.1667 6.5,59.5C 5.5,59.5 4.5,59.5 3.5,59.5C 3.29142,58.0783 2.79142,56.745 2,55.5C 1.58309,56.756 0.749754,57.4226 -0.5,57.5C -0.5,54.8333 -0.5,52.1667 -0.5,49.5C 0.877641,48.4549 1.87764,47.1216 2.5,45.5C 3.33825,45.1583 3.67158,44.4916 3.5,43.5 Z"/></g>
<g><path style="opacity:1" fill="#da2f40" d="M 6.5,55.5 C 6.83333,55.5 7.16667,55.5 7.5,55.5C 8.83333,57.5 8.83333,59.5 7.5,61.5C 6.66175,61.1583 6.32842,60.4916 6.5,59.5C 6.5,58.1667 6.5,56.8333 6.5,55.5 Z"/></g>
<g><path style="opacity:1" fill="#ff6040" d="M 3.5,59.5 C 2.16667,59.5 1.5,60.1667 1.5,61.5C 0.833333,61.5 0.166667,61.5 -0.5,61.5C -0.5,60.1667 -0.5,58.8333 -0.5,57.5C 0.749754,57.4226 1.58309,56.756 2,55.5C 2.79142,56.745 3.29142,58.0783 3.5,59.5 Z"/></g>
<g><path style="opacity:1" fill="#9f36c3" d="M 49.5,59.5 C 49.3284,60.4916 49.6618,61.1583 50.5,61.5C 51.2341,62.7079 51.5674,64.0413 51.5,65.5C 48.8563,64.5067 46.1897,63.5067 43.5,62.5C 44.3914,61.4104 45.3914,61.4104 46.5,62.5C 47.3857,61.675 47.719,60.675 47.5,59.5C 47.9377,58.4937 48.6043,58.4937 49.5,59.5 Z"/></g>
<g><path style="opacity:1" fill="#ac759e" d="M 70.5,54.5 C 71.1098,55.391 71.4431,56.391 71.5,57.5C 71.1788,59.0481 70.1788,59.7148 68.5,59.5C 66.0882,59.6941 65.0882,61.0274 65.5,63.5C 63.549,63.7733 62.049,63.1066 61,61.5C 59.806,63.5254 58.306,63.8587 56.5,62.5C 55.5481,64.0453 55.2148,65.712 55.5,67.5C 54.8333,67.5 54.1667,67.5 53.5,67.5C 53.5,66.8333 53.5,66.1667 53.5,65.5C 53.5,64.1667 53.5,62.8333 53.5,61.5C 57.5274,61.7192 58.1941,60.5525 55.5,58C 55.8333,57.8333 56.1667,57.6667 56.5,57.5C 57.4255,58.6405 58.2588,58.6405 59,57.5C 59.8753,59.5127 61.2087,59.5127 63,57.5C 64.0859,59.847 65.4192,59.847 67,57.5C 69.5421,58.7739 70.0421,58.1073 68.5,55.5C 69.1667,55.1667 69.8333,54.8333 70.5,54.5 Z"/></g>
<g><path style="opacity:1" fill="#31b756" d="M 31.5,61.5 C 30.1667,61.5 28.8333,61.5 27.5,61.5C 26.7109,61.2172 26.0442,60.7172 25.5,60C 27.0609,59.6824 28.2276,58.8491 29,57.5C 29.6622,58.9839 30.4955,60.3172 31.5,61.5 Z"/></g>
<g><path style="opacity:1" fill="#faeef6" d="M -0.5,61.5 C 0.166667,61.5 0.833333,61.5 1.5,61.5C 1.47008,62.4972 1.97008,63.1639 3,63.5C 4.01055,63.1081 4.51055,62.4415 4.5,61.5C 5.63088,63.0745 5.79755,64.7412 5,66.5C 4.23703,63.9365 3.73703,63.9365 3.5,66.5C 3.45344,68.0377 4.12011,69.0377 5.5,69.5C 6.60048,70.6049 7.26714,71.9382 7.5,73.5C 8.38571,79.7476 11.719,84.4142 17.5,87.5C 18.7133,87.2528 19.38,86.5862 19.5,85.5C 21.9815,86.6962 21.9815,88.1962 19.5,90C 21.0771,91.93 22.4104,91.7633 23.5,89.5C 23.8333,90.5 24.5,91.1667 25.5,91.5C 25.0649,92.8799 25.8982,93.8799 28,94.5C 28.3333,94.1667 28.6667,93.8333 29,93.5C 34.4416,96.0447 39.9416,97.378 45.5,97.5C 44.1667,98.1667 42.8333,98.8333 41.5,99.5C 27.5,99.5 13.5,99.5 -0.5,99.5C -0.5,86.8333 -0.5,74.1667 -0.5,61.5 Z"/></g>
<g><path style="opacity:1" fill="#87c347" d="M 3.5,59.5 C 4.5,59.5 5.5,59.5 6.5,59.5C 6.32842,60.4916 6.66175,61.1583 7.5,61.5C 8.16667,61.5 8.83333,61.5 9.5,61.5C 8.28043,63.2821 7.61377,65.2821 7.5,67.5C 8.67504,67.281 9.67504,67.6143 10.5,68.5C 10.3764,69.1067 10.0431,69.44 9.5,69.5C 7.86124,69.0742 6.52791,69.0742 5.5,69.5C 4.12011,69.0377 3.45344,68.0377 3.5,66.5C 3.73703,63.9365 4.23703,63.9365 5,66.5C 5.79755,64.7412 5.63088,63.0745 4.5,61.5C 4.51055,62.4415 4.01055,63.1081 3,63.5C 1.97008,63.1639 1.47008,62.4972 1.5,61.5C 1.5,60.1667 2.16667,59.5 3.5,59.5 Z"/></g>
<g><path style="opacity:1" fill="#af825e" d="M 68.5,59.5 C 68.3893,60.1174 68.056,60.6174 67.5,61C 69.1066,62.049 69.7733,63.549 69.5,65.5C 68.88,67.9767 67.88,67.9767 66.5,65.5C 65.7348,66.6119 64.7348,67.2786 63.5,67.5C 63.6495,66.448 63.4828,65.448 63,64.5C 62.3333,65.8333 61.6667,65.8333 61,64.5C 60.4867,65.5266 59.9867,66.5266 59.5,67.5C 58.1667,67.5 56.8333,67.5 55.5,67.5C 55.2148,65.712 55.5481,64.0453 56.5,62.5C 58.306,63.8587 59.806,63.5254 61,61.5C 62.049,63.1066 63.549,63.7733 65.5,63.5C 65.0882,61.0274 66.0882,59.6941 68.5,59.5 Z"/></g>
<g><path style="opacity:1" fill="#e03390" d="M 71.5,57.5 C 73.1765,58.1834 73.8432,59.5168 73.5,61.5C 72.448,61.3505 71.448,61.5172 70.5,62C 73.0553,63.258 73.7219,65.0914 72.5,67.5C 71.7348,66.3881 70.7348,65.7214 69.5,65.5C 69.7733,63.549 69.1066,62.049 67.5,61C 68.056,60.6174 68.3893,60.1174 68.5,59.5C 70.1788,59.7148 71.1788,59.0481 71.5,57.5 Z"/></g>
<g><path style="opacity:1" fill="#92c15f" d="M 95.5,57.5 C 96.6935,57.9704 97.3601,58.9704 97.5,60.5C 97.1667,61.5 96.8333,62.5 96.5,63.5C 95.914,63.2907 95.414,62.9574 95,62.5C 94.51,63.7932 94.3433,65.1266 94.5,66.5C 92.2736,64.82 90.6069,65.1534 89.5,67.5C 87.5168,67.8432 86.1834,67.1765 85.5,65.5C 87.133,64.0546 88.9663,62.7213 91,61.5C 91.3076,62.3081 91.8076,62.9747 92.5,63.5C 93.7187,62.3539 95.0521,61.3539 96.5,60.5C 95.8728,59.5832 95.5394,58.5832 95.5,57.5 Z"/></g>
<g><path style="opacity:1" fill="#a29087" d="M 41.5,59.5 C 43.5,59.5 45.5,59.5 47.5,59.5C 47.719,60.675 47.3857,61.675 46.5,62.5C 45.3914,61.4104 44.3914,61.4104 43.5,62.5C 46.1897,63.5067 48.8563,64.5067 51.5,65.5C 52.1667,65.5 52.8333,65.5 53.5,65.5C 53.5,66.1667 53.5,66.8333 53.5,67.5C 52.1667,68.8333 50.8333,70.1667 49.5,71.5C 48.8333,74.1667 48.1667,74.1667 47.5,71.5C 47.5,70.8333 47.5,70.1667 47.5,69.5C 48.7914,68.5272 48.7914,67.5272 47.5,66.5C 44.3023,65.6266 41.6357,63.9599 39.5,61.5C 38.3152,63.4296 36.3152,64.7629 33.5,65.5C 31.0842,66.9682 28.4175,67.6349 25.5,67.5C 24.1667,67.5 23.5,66.8333 23.5,65.5C 24.8333,65.5 26.1667,65.5 27.5,65.5C 27.5,64.1667 27.5,62.8333 27.5,61.5C 28.8333,61.5 30.1667,61.5 31.5,61.5C 32.4793,60.2347 33.4793,58.9014 34.5,57.5C 35.1924,58.0253 35.6924,58.6919 36,59.5C 37.7067,58.8617 39.54,58.8617 41.5,59.5 Z"/></g>
<g><path style="opacity:1" fill="#63be49" d="M 50.5,61.5 C 51.5,61.5 52.5,61.5 53.5,61.5C 53.5,62.8333 53.5,64.1667 53.5,65.5C 52.8333,65.5 52.1667,65.5 51.5,65.5C 51.5674,64.0413 51.2341,62.7079 50.5,61.5 Z"/></g>
<g><path style="opacity:1" fill="#bb2ac6" d="M 63.5,67.5 C 62.1667,67.5 60.8333,67.5 59.5,67.5C 59.9867,66.5266 60.4867,65.5266 61,64.5C 61.6667,65.8333 62.3333,65.8333 63,64.5C 63.4828,65.448 63.6495,66.448 63.5,67.5 Z"/></g>
<g><path style="opacity:1" fill="#8b5373" d="M 47.5,69.5 C 45.5082,69.6715 43.8415,69.0049 42.5,67.5C 40.9991,68.7515 39.3325,69.7515 37.5,70.5C 40.0865,71.48 42.7531,71.8134 45.5,71.5C 45.5,72.1667 45.5,72.8333 45.5,73.5C 43.5168,73.1568 42.1834,73.8235 41.5,75.5C 40.2652,75.2786 39.2652,74.6119 38.5,73.5C 35.4604,76.375 33.7937,75.7083 33.5,71.5C 34.5862,71.38 35.2528,70.7133 35.5,69.5C 34.7745,68.1331 34.1079,66.7997 33.5,65.5C 36.3152,64.7629 38.3152,63.4296 39.5,61.5C 41.6357,63.9599 44.3023,65.6266 47.5,66.5C 48.7914,67.5272 48.7914,68.5272 47.5,69.5 Z"/></g>
<g><path style="opacity:1" fill="#d67e49" d="M 94.5,66.5 C 94.6106,68.6477 93.944,68.981 92.5,67.5C 91.9432,69.3316 90.9432,70.6649 89.5,71.5C 89.5,70.1667 89.5,68.8333 89.5,67.5C 90.6069,65.1534 92.2736,64.82 94.5,66.5 Z"/></g>
<g><path style="opacity:1" fill="#61b14c" d="M 33.5,65.5 C 34.1079,66.7997 34.7745,68.1331 35.5,69.5C 35.2528,70.7133 34.5862,71.38 33.5,71.5C 33.0296,70.3065 32.0296,69.6399 30.5,69.5C 28.7536,69.9709 27.087,70.6376 25.5,71.5C 24.8333,71.1667 24.1667,70.8333 23.5,70.5C 24.6119,69.7348 25.2786,68.7348 25.5,67.5C 28.4175,67.6349 31.0842,66.9682 33.5,65.5 Z"/></g>
<g><path style="opacity:1" fill="#97a86e" d="M 70.5,51.5 C 71.2216,51.9175 71.7216,52.5842 72,53.5C 72.3826,52.944 72.8826,52.6107 73.5,52.5C 74.4916,52.3284 75.1583,52.6618 75.5,53.5C 75.3505,54.552 75.5172,55.552 76,56.5C 78.9236,55.9896 81.5903,55.9896 84,56.5C 84.3333,55.8333 84.6667,55.1667 85,54.5C 85.6667,57.1667 86.3333,57.1667 87,54.5C 88.1095,56.2429 89.6095,57.5762 91.5,58.5C 89.8442,60.3294 87.8442,61.6628 85.5,62.5C 86.7914,63.5272 86.7914,64.5272 85.5,65.5C 84.8333,66.1667 84.1667,66.8333 83.5,67.5C 82.8333,67.5 82.1667,67.5 81.5,67.5C 81.1601,64.8559 81.8267,62.5225 83.5,60.5C 81.5642,61.0195 79.7309,60.3528 78,58.5C 77.3792,62.2496 76.5458,65.9162 75.5,69.5C 74.1667,69.5 72.8333,69.5 71.5,69.5C 71.5,71.5 71.5,73.5 71.5,75.5C 70.8166,77.1765 69.4832,77.8432 67.5,77.5C 64.9179,77.9746 62.9179,77.3079 61.5,75.5C 63.3079,74.0821 63.9746,72.0821 63.5,69.5C 61.5168,69.8432 60.1834,69.1765 59.5,67.5C 60.8333,67.5 62.1667,67.5 63.5,67.5C 64.7348,67.2786 65.7348,66.6119 66.5,65.5C 67.88,67.9767 68.88,67.9767 69.5,65.5C 70.7348,65.7214 71.7348,66.3881 72.5,67.5C 73.7219,65.0914 73.0553,63.258 70.5,62C 71.448,61.5172 72.448,61.3505 73.5,61.5C 73.8432,59.5168 73.1765,58.1834 71.5,57.5C 71.4431,56.391 71.1098,55.391 70.5,54.5C 69.9094,53.8485 69.2427,53.1818 68.5,52.5C 69.2003,52.2129 69.8669,51.8795 70.5,51.5 Z"/></g>
<g><path style="opacity:1" fill="#b15799" d="M 81.5,67.5 C 78.6874,68.4461 77.354,70.4461 77.5,73.5C 75.2821,73.6138 73.2821,74.2804 71.5,75.5C 71.5,73.5 71.5,71.5 71.5,69.5C 72.8333,69.5 74.1667,69.5 75.5,69.5C 76.5458,65.9162 77.3792,62.2496 78,58.5C 79.7309,60.3528 81.5642,61.0195 83.5,60.5C 81.8267,62.5225 81.1601,64.8559 81.5,67.5 Z"/></g>
<g><path style="opacity:1" fill="#ca68ac" d="M 55.5,67.5 C 56.8333,67.5 58.1667,67.5 59.5,67.5C 60.1834,69.1765 61.5168,69.8432 63.5,69.5C 63.9746,72.0821 63.3079,74.0821 61.5,75.5C 59.5,72.8333 57.5,70.1667 55.5,67.5 Z"/></g>
<g><path style="opacity:1" fill="#87cd75" d="M 47.5,69.5 C 47.5,70.1667 47.5,70.8333 47.5,71.5C 46.8333,71.5 46.1667,71.5 45.5,71.5C 42.7531,71.8134 40.0865,71.48 37.5,70.5C 39.3325,69.7515 40.9991,68.7515 42.5,67.5C 43.8415,69.0049 45.5082,69.6715 47.5,69.5 Z"/></g>
<g><path style="opacity:1" fill="#93bd58" d="M 81.5,67.5 C 82.1667,67.5 82.8333,67.5 83.5,67.5C 84.0998,68.8999 85.0998,69.8999 86.5,70.5C 83.8919,72.1027 81.5586,74.1027 79.5,76.5C 80.4709,77.9621 80.1376,79.2954 78.5,80.5C 77.5539,80.0133 76.5539,79.6799 75.5,79.5C 74.1331,80.2255 72.7997,80.8921 71.5,81.5C 70.1667,80.1667 68.8333,78.8333 67.5,77.5C 69.4832,77.8432 70.8166,77.1765 71.5,75.5C 73.2821,74.2804 75.2821,73.6138 77.5,73.5C 77.354,70.4461 78.6874,68.4461 81.5,67.5 Z"/></g>
<g><path style="opacity:1" fill="#817172" d="M 9.5,69.5 C 10.1667,70.8333 10.8333,72.1667 11.5,73.5C 11.5,75.1667 11.5,76.8333 11.5,78.5C 10.3088,76.6732 8.97547,75.0066 7.5,73.5C 7.26714,71.9382 6.60048,70.6049 5.5,69.5C 6.52791,69.0742 7.86124,69.0742 9.5,69.5 Z"/></g>
<g><path style="opacity:1" fill="#55c27d" d="M 53.5,67.5 C 54.1667,67.5 54.8333,67.5 55.5,67.5C 57.5,70.1667 59.5,72.8333 61.5,75.5C 59.2821,75.3862 57.2821,74.7196 55.5,73.5C 54.0821,71.6921 52.0821,71.0254 49.5,71.5C 50.8333,70.1667 52.1667,68.8333 53.5,67.5 Z"/></g>
<g><path style="opacity:1" fill="#7f4a9a" d="M 85.5,65.5 C 86.1834,67.1765 87.5168,67.8432 89.5,67.5C 89.5,68.8333 89.5,70.1667 89.5,71.5C 88.391,71.4431 87.391,71.1098 86.5,70.5C 85.0998,69.8999 84.0998,68.8999 83.5,67.5C 84.1667,66.8333 84.8333,66.1667 85.5,65.5 Z"/></g>
<g><path style="opacity:1" fill="#9c64cf" d="M 45.5,71.5 C 46.1667,71.5 46.8333,71.5 47.5,71.5C 48.1667,74.1667 48.8333,74.1667 49.5,71.5C 52.0821,71.0254 54.0821,71.6921 55.5,73.5C 54.1667,74.1667 52.8333,74.8333 51.5,75.5C 48.9179,75.9746 46.9179,75.3079 45.5,73.5C 45.5,72.8333 45.5,72.1667 45.5,71.5 Z"/></g>
<g><path style="opacity:1" fill="#99be74" d="M 13.5,79.5 C 12.5084,79.6716 11.8417,79.3382 11.5,78.5C 11.5,76.8333 11.5,75.1667 11.5,73.5C 12.8471,72.8288 14.0138,72.8288 15,73.5C 16.0217,72.646 16.8551,71.646 17.5,70.5C 17.0431,69.7025 16.3764,69.3691 15.5,69.5C 12.7907,62.9059 13.7907,62.2392 18.5,67.5C 19.0093,70.9301 19.3426,74.2635 19.5,77.5C 16.9179,77.0254 14.9179,77.6921 13.5,79.5 Z"/></g>
<g><path style="opacity:1" fill="#906c74" d="M 55.5,73.5 C 57.2821,74.7196 59.2821,75.3862 61.5,75.5C 62.9179,77.3079 64.9179,77.9746 67.5,77.5C 68.8333,78.8333 70.1667,80.1667 71.5,81.5C 69.081,82.3641 67.081,83.6974 65.5,85.5C 64.8333,85.5 64.1667,85.5 63.5,85.5C 62.1779,85.33 61.0113,85.6634 60,86.5C 59.2152,84.751 58.3818,83.0843 57.5,81.5C 62.766,80.866 62.766,80.1993 57.5,79.5C 55.6672,79.5854 54.3339,80.2521 53.5,81.5C 52.8333,81.5 52.1667,81.5 51.5,81.5C 48.1667,81.5 44.8333,81.5 41.5,81.5C 41.5,79.5 41.5,77.5 41.5,75.5C 43.4167,76.4056 45.0834,77.7389 46.5,79.5C 47.8333,76.8333 49.1667,76.8333 50.5,79.5C 51.4287,78.3112 51.762,76.9778 51.5,75.5C 52.8333,74.8333 54.1667,74.1667 55.5,73.5 Z"/></g>
<g><path style="opacity:1" fill="#a0cd69" d="M 45.5,73.5 C 46.9179,75.3079 48.9179,75.9746 51.5,75.5C 51.762,76.9778 51.4287,78.3112 50.5,79.5C 49.1667,76.8333 47.8333,76.8333 46.5,79.5C 45.0834,77.7389 43.4167,76.4056 41.5,75.5C 42.1834,73.8235 43.5168,73.1568 45.5,73.5 Z"/></g>
<g><path style="opacity:1" fill="#c3b344" d="M 86.5,70.5 C 87.391,71.1098 88.391,71.4431 89.5,71.5C 90.1079,72.7997 90.7745,74.1331 91.5,75.5C 90.0802,79.3451 87.9135,82.6784 85,85.5C 84.7216,84.5842 84.2216,83.9175 83.5,83.5C 83.9371,81.9256 84.9371,80.7589 86.5,80C 86.0426,79.586 85.7093,79.086 85.5,78.5C 89.4034,76.7168 89.0701,75.5502 84.5,75C 85.5822,73.6703 86.2488,72.1703 86.5,70.5 Z"/></g>
<g><path style="opacity:1" fill="#a3558a" d="M 9.5,61.5 C 12.8333,61.5 16.1667,61.5 19.5,61.5C 20.1667,63.5 21.5,64.8333 23.5,65.5C 23.5,66.8333 24.1667,67.5 25.5,67.5C 25.2786,68.7348 24.6119,69.7348 23.5,70.5C 24.1667,70.8333 24.8333,71.1667 25.5,71.5C 27.087,70.6376 28.7536,69.9709 30.5,69.5C 32.0296,69.6399 33.0296,70.3065 33.5,71.5C 30.7952,71.3802 30.1285,72.3802 31.5,74.5C 28.8333,75.1667 26.1667,75.8333 23.5,76.5C 24.6888,77.4287 26.0222,77.762 27.5,77.5C 27.3862,79.7179 26.7196,81.7179 25.5,83.5C 23.0983,82.0802 20.5983,80.7469 18,79.5C 16.9152,80.7356 16.0819,82.0689 15.5,83.5C 13.8958,82.713 13.2291,81.3797 13.5,79.5C 14.9179,77.6921 16.9179,77.0254 19.5,77.5C 19.3426,74.2635 19.0093,70.9301 18.5,67.5C 13.7907,62.2392 12.7907,62.9059 15.5,69.5C 16.3764,69.3691 17.0431,69.7025 17.5,70.5C 16.8551,71.646 16.0217,72.646 15,73.5C 14.0138,72.8288 12.8471,72.8288 11.5,73.5C 10.8333,72.1667 10.1667,70.8333 9.5,69.5C 10.0431,69.44 10.3764,69.1067 10.5,68.5C 9.67504,67.6143 8.67504,67.281 7.5,67.5C 7.61377,65.2821 8.28043,63.2821 9.5,61.5 Z"/></g>
<g><path style="opacity:1" fill="#0ad913" d="M 15.5,69.5 C 15.3605,71.337 14.6939,71.6704 13.5,70.5C 13.9569,69.7025 14.6236,69.3691 15.5,69.5 Z"/></g>
<g><path style="opacity:1" fill="#98c367" d="M 33.5,71.5 C 33.7937,75.7083 35.4604,76.375 38.5,73.5C 39.2652,74.6119 40.2652,75.2786 41.5,75.5C 41.5,77.5 41.5,79.5 41.5,81.5C 39.9069,80.6521 38.7403,79.3187 38,77.5C 37.4806,78.5156 36.6473,79.1822 35.5,79.5C 34.1667,78.8333 32.8333,78.1667 31.5,77.5C 30.8333,77.8333 30.1667,78.1667 29.5,78.5C 31.2611,79.9166 32.5944,81.5833 33.5,83.5C 32.1266,83.3433 30.7932,83.51 29.5,84C 32.0972,84.7792 32.0972,85.2792 29.5,85.5C 28.1667,84.8333 26.8333,84.1667 25.5,83.5C 26.7196,81.7179 27.3862,79.7179 27.5,77.5C 26.0222,77.762 24.6888,77.4287 23.5,76.5C 26.1667,75.8333 28.8333,75.1667 31.5,74.5C 30.1285,72.3802 30.7952,71.3802 33.5,71.5 Z"/></g>
<g><path style="opacity:1" fill="#d45576" d="M 41.5,81.5 C 41.5,82.1667 41.5,82.8333 41.5,83.5C 40.2003,84.1079 38.8669,84.7745 37.5,85.5C 36.1331,84.7745 34.7997,84.1079 33.5,83.5C 32.5944,81.5833 31.2611,79.9166 29.5,78.5C 30.1667,78.1667 30.8333,77.8333 31.5,77.5C 32.8333,78.1667 34.1667,78.8333 35.5,79.5C 36.6473,79.1822 37.4806,78.5156 38,77.5C 38.7403,79.3187 39.9069,80.6521 41.5,81.5 Z"/></g>
<g><path style="opacity:1" fill="#b92ab7" d="M 57.5,81.5 C 56.2652,81.7214 55.2652,82.3881 54.5,83.5C 53.7025,83.0431 53.3691,82.3764 53.5,81.5C 54.3339,80.2521 55.6672,79.5854 57.5,79.5C 62.766,80.1993 62.766,80.866 57.5,81.5 Z"/></g>
<g><path style="opacity:1" fill="#f7c050" d="M 7.5,73.5 C 8.97547,75.0066 10.3088,76.6732 11.5,78.5C 11.8417,79.3382 12.5084,79.6716 13.5,79.5C 13.2291,81.3797 13.8958,82.713 15.5,83.5C 16.287,85.1042 17.6203,85.7709 19.5,85.5C 19.38,86.5862 18.7133,87.2528 17.5,87.5C 11.719,84.4142 8.38571,79.7476 7.5,73.5 Z"/></g>
<g><path style="opacity:1" fill="#82719f" d="M 86.5,70.5 C 86.2488,72.1703 85.5822,73.6703 84.5,75C 89.0701,75.5502 89.4034,76.7168 85.5,78.5C 85.7093,79.086 86.0426,79.586 86.5,80C 84.9371,80.7589 83.9371,81.9256 83.5,83.5C 81.9069,84.3479 80.7403,85.6813 80,87.5C 79.51,86.2068 79.3433,84.8734 79.5,83.5C 78.0222,83.238 76.6888,83.5713 75.5,84.5C 78.0472,86.4544 78.0472,88.1211 75.5,89.5C 74.3788,86.6895 73.0455,84.0229 71.5,81.5C 72.7997,80.8921 74.1331,80.2255 75.5,79.5C 76.5539,79.6799 77.5539,80.0133 78.5,80.5C 80.1376,79.2954 80.4709,77.9621 79.5,76.5C 81.5586,74.1027 83.8919,72.1027 86.5,70.5 Z"/></g>
<g><path style="opacity:1" fill="#ac8b6f" d="M 25.5,83.5 C 25.33,84.8221 25.6634,85.9887 26.5,87C 25.9221,88.417 24.9221,89.2504 23.5,89.5C 22.4104,91.7633 21.0771,91.93 19.5,90C 21.9815,88.1962 21.9815,86.6962 19.5,85.5C 17.6203,85.7709 16.287,85.1042 15.5,83.5C 16.0819,82.0689 16.9152,80.7356 18,79.5C 20.5983,80.7469 23.0983,82.0802 25.5,83.5 Z"/></g>
<g><path style="opacity:1" fill="#6b2c84" d="M 25.5,83.5 C 26.8333,84.1667 28.1667,84.8333 29.5,85.5C 28.7888,87.0301 27.7888,88.3634 26.5,89.5C 26.1667,90.1667 25.8333,90.8333 25.5,91.5C 24.5,91.1667 23.8333,90.5 23.5,89.5C 24.9221,89.2504 25.9221,88.417 26.5,87C 25.6634,85.9887 25.33,84.8221 25.5,83.5 Z"/></g>
<g><path style="opacity:1" fill="#acb447" d="M 51.5,81.5 C 52.1667,81.5 52.8333,81.5 53.5,81.5C 53.3691,82.3764 53.7025,83.0431 54.5,83.5C 55.2652,82.3881 56.2652,81.7214 57.5,81.5C 58.3818,83.0843 59.2152,84.751 60,86.5C 61.0113,85.6634 62.1779,85.33 63.5,85.5C 62.5081,87.0265 61.0081,87.6932 59,87.5C 57.0107,87.0791 55.1773,86.4124 53.5,85.5C 51.8235,84.8166 51.1568,83.4832 51.5,81.5 Z"/></g>
<g><path style="opacity:1" fill="#8ca376" d="M 71.5,81.5 C 73.0455,84.0229 74.3788,86.6895 75.5,89.5C 73.5,89.5 71.5,89.5 69.5,89.5C 69.6107,88.8826 69.944,88.3826 70.5,88C 68.6854,87.2432 67.0188,86.4098 65.5,85.5C 67.081,83.6974 69.081,82.3641 71.5,81.5 Z"/></g>
<g><path style="opacity:1" fill="#34ba48" d="M 41.5,81.5 C 44.8333,81.5 48.1667,81.5 51.5,81.5C 51.1568,83.4832 51.8235,84.8166 53.5,85.5C 53.5106,87.0174 54.1772,88.1841 55.5,89C 54.2068,89.49 52.8734,89.6567 51.5,89.5C 49.7952,87.8079 47.7952,86.4746 45.5,85.5C 44.8166,83.8235 43.4832,83.1568 41.5,83.5C 41.5,82.8333 41.5,82.1667 41.5,81.5 Z"/></g>
<g><path style="opacity:1" fill="#a1648f" d="M 45.5,85.5 C 47.7952,86.4746 49.7952,87.8079 51.5,89.5C 51.7329,91.0618 52.3995,92.3951 53.5,93.5C 55.0087,96.9263 57.1754,97.2597 60,94.5C 60.3333,94.8333 60.6667,95.1667 61,95.5C 62.0975,94.0325 63.5975,93.1992 65.5,93C 64.8333,92.6667 64.1667,92.3333 63.5,92C 65.437,91.8784 66.7703,91.045 67.5,89.5C 68.1667,89.5 68.8333,89.5 69.5,89.5C 71.5,89.5 73.5,89.5 75.5,89.5C 75.0825,90.2216 74.4158,90.7216 73.5,91C 75.497,92.1531 75.8304,93.6531 74.5,95.5C 73.7836,94.689 72.9503,94.0223 72,93.5C 67.4018,94.8538 62.5685,96.1872 57.5,97.5C 55.5454,98.3235 53.5454,98.4901 51.5,98C 52.3081,97.6924 52.9747,97.1924 53.5,96.5C 52.3984,95.8243 51.3984,95.1577 50.5,94.5C 49.8386,95.7175 49.1719,97.0508 48.5,98.5C 47.5832,97.8728 46.5832,97.5394 45.5,97.5C 45.7989,95.396 45.4656,93.396 44.5,91.5C 43.8333,92.1667 43.1667,92.8333 42.5,93.5C 41.5344,91.604 41.2011,89.604 41.5,87.5C 43.4832,87.8432 44.8166,87.1765 45.5,85.5 Z"/></g>
<g><path style="opacity:1" fill="#763ca5" d="M 53.5,85.5 C 55.1773,86.4124 57.0107,87.0791 59,87.5C 61.0081,87.6932 62.5081,87.0265 63.5,85.5C 64.1667,85.5 64.8333,85.5 65.5,85.5C 67.0188,86.4098 68.6854,87.2432 70.5,88C 69.944,88.3826 69.6107,88.8826 69.5,89.5C 68.8333,89.5 68.1667,89.5 67.5,89.5C 67.6309,88.6236 67.2975,87.9569 66.5,87.5C 64.5283,88.3052 63.0283,89.6385 62,91.5C 61.6924,90.6919 61.1924,90.0253 60.5,89.5C 59.3064,92.6186 57.8064,92.9519 56,90.5C 55.7645,92.1193 54.9311,93.1193 53.5,93.5C 52.3995,92.3951 51.7329,91.0618 51.5,89.5C 52.8734,89.6567 54.2068,89.49 55.5,89C 54.1772,88.1841 53.5106,87.0174 53.5,85.5 Z"/></g>
<g><path style="opacity:1" fill="#ff6eff" d="M 1.5,87.5 C 2.58617,87.62 3.25284,88.2867 3.5,89.5C 3.16667,90.1667 2.83333,90.8333 2.5,91.5C 1.57131,90.3112 1.23798,88.9778 1.5,87.5 Z"/></g>
<g><path style="opacity:1" fill="#9bb164" d="M 33.5,83.5 C 34.7997,84.1079 36.1331,84.7745 37.5,85.5C 38.8669,84.7745 40.2003,84.1079 41.5,83.5C 43.4832,83.1568 44.8166,83.8235 45.5,85.5C 44.8166,87.1765 43.4832,87.8432 41.5,87.5C 41.2011,89.604 41.5344,91.604 42.5,93.5C 43.1667,92.8333 43.8333,92.1667 44.5,91.5C 45.4656,93.396 45.7989,95.396 45.5,97.5C 39.9416,97.378 34.4416,96.0447 29,93.5C 28.6667,93.8333 28.3333,94.1667 28,94.5C 25.8982,93.8799 25.0649,92.8799 25.5,91.5C 25.8333,90.8333 26.1667,90.1667 26.5,89.5C 27.404,90.209 27.7373,91.209 27.5,92.5C 29.9363,92.683 32.103,92.0163 34,90.5C 34.3333,90.8333 34.6667,91.1667 35,91.5C 35.6449,90.354 36.4783,89.354 37.5,88.5C 35.7256,87.8133 34.0589,86.9799 32.5,86C 33.2524,85.3292 33.5858,84.4959 33.5,83.5 Z"/></g>
<g><path style="opacity:1" fill="#feff39" d="M 87.5,89.5 C 88.9778,89.238 90.3112,89.5713 91.5,90.5C 90.8333,90.8333 90.1667,91.1667 89.5,91.5C 88.2867,91.2528 87.62,90.5862 87.5,89.5 Z"/></g>
<g><path style="opacity:1" fill="#ab6475" d="M 33.5,83.5 C 33.5858,84.4959 33.2524,85.3292 32.5,86C 34.0589,86.9799 35.7256,87.8133 37.5,88.5C 36.4783,89.354 35.6449,90.354 35,91.5C 34.6667,91.1667 34.3333,90.8333 34,90.5C 32.103,92.0163 29.9363,92.683 27.5,92.5C 27.7373,91.209 27.404,90.209 26.5,89.5C 27.7888,88.3634 28.7888,87.0301 29.5,85.5C 32.0972,85.2792 32.0972,84.7792 29.5,84C 30.7932,83.51 32.1266,83.3433 33.5,83.5 Z"/></g>
<g><path style="opacity:1" fill="#aaf021" d="M 50.5,94.5 C 49.6016,93.8423 48.6016,93.1757 47.5,92.5C 48.3914,91.4104 49.3914,91.4104 50.5,92.5C 51.7733,93.2565 51.7733,93.9232 50.5,94.5 Z"/></g>
<g><path style="opacity:1" fill="#7bb463" d="M 67.5,89.5 C 66.7703,91.045 65.437,91.8784 63.5,92C 64.1667,92.3333 64.8333,92.6667 65.5,93C 63.5975,93.1992 62.0975,94.0325 61,95.5C 60.6667,95.1667 60.3333,94.8333 60,94.5C 57.1754,97.2597 55.0087,96.9263 53.5,93.5C 54.9311,93.1193 55.7645,92.1193 56,90.5C 57.8064,92.9519 59.3064,92.6186 60.5,89.5C 61.1924,90.0253 61.6924,90.6919 62,91.5C 63.0283,89.6385 64.5283,88.3052 66.5,87.5C 67.2975,87.9569 67.6309,88.6236 67.5,89.5 Z"/></g>
<g><path style="opacity:1" fill="#dcdd6e" d="M 50.5,94.5 C 51.3984,95.1577 52.3984,95.8243 53.5,96.5C 52.9747,97.1924 52.3081,97.6924 51.5,98C 53.5454,98.4901 55.5454,98.3235 57.5,97.5C 57.5,98.1667 57.5,98.8333 57.5,99.5C 52.1667,99.5 46.8333,99.5 41.5,99.5C 42.8333,98.8333 44.1667,98.1667 45.5,97.5C 46.5832,97.5394 47.5832,97.8728 48.5,98.5C 49.1719,97.0508 49.8386,95.7175 50.5,94.5 Z"/></g>
</svg>
