<?xml version="1.0"?><svg xmlns="http://www.w3.org/2000/svg" width="36" height="36" shape-rendering="geometricPrecision" text-rendering="geometricPrecision" image-rendering="optimizeQuality" fill-rule="evenodd" clip-rule="evenodd" viewBox="0 0 36 36"><path fill="#3ac3fe" d="m15.7-0.1h4.5c8.7 1.8 14 7 15.7 15.8v4.5c-1.7 8.7-7 14-15.7 15.7h-4.5c-8.8-1.7-14-7-15.8-15.7v-4.5c1.8-8.8 7-14 15.8-15.8z" opacity=".708"></path><path fill="#e8fbfe" d="m34.2 16.5c0.1 1.1 0 2.1 0 3.1-0.1-0.5-0.1-1-0.2-1.5-0.3 0.2-0.5 0.4-0.8 0.5-0.2-0.5-0.6-0.7-1.1-0.3l0.3 0.1c-0.2 0.1-0.4 0.1-0.5 0.2-0.2-0.1-0.4-0.1-0.6-0.1 0 0.2 0 0.4-0.1 0.6 0-0.9-0.1-1.7-0.2-2.4-0.5-4.4-2.6-7.7-6.3-10.1-0.9-0.5-1.9-0.9-2.8-1.2-6-1.6-10.9 0.1-14.7 4.9-1.1 1.5-1.7 3.1-2.1 4.8-0.2 0.5-0.3 1.1-0.2 1.7-0.2 0.7-0.2 1.5-0.3 2.3l-0.1-0.9c-0.1 0.2-0.2 0.2-0.3 0l-0.1 0.3c-0.2 0-0.4 0-0.7 0-0.1-0.1-0.2-0.2-0.3-0.3-0.2 0.1-0.4 0.3-0.6 0.4 0-0.4-0.1-0.4-0.2-0.1l-0.2-0.3c-0.2 0.5-0.4 0.9-0.5 1.4-0.2-1.6-0.2-3.3 0.2-4.9 0.2-0.3 0.3-0.6 0.2-1 1.9-6.1 5.9-10.1 12.1-11.9 6.8-1.1 12.4 0.8 16.8 6 2 2.6 3.1 5.5 3.3 8.7z"></path><path fill="#29b8ec" d="m21.9 5.4c0.1 0.2 0.3 0.4 0.5 0.5l-0.1 0.1c0.2 0 0.3 0.1 0.4 0.1-0.2 0.1-0.4 0.3-0.6 0.4l-0.2-0.1c-0.2 0.2-0.2 0.4 0 0.6-2-0.6-3.9-0.7-5.9-0.5-3.5 0.7-6.3 2.4-8.5 5.1-0.9 1.2-1.6 2.5-2.1 3.9-0.1 0.1-0.2 0.2-0.2 0.3-0.1-0.2-0.1-0.4-0.1-0.7 0.4-1.7 1-3.3 2.1-4.8 3.8-4.8 8.7-6.5 14.7-4.9z"></path><path fill="#35cbfd" d="m16 6.5c0.1 0.2 0.3 0.5 0.4 1 0 0.2 0 0.3-0.3 0.4 0.2 0.2 0.1 0.4-0.1 0.5 0.1 0.1 0.2 0.3 0.4 0.4-0.2 0.4-0.1 0.7 0.3 0.9-0.1 0.2-0.2 0.3-0.3 0.1-0.1 0-0.2 0.1-0.3 0.2 0.2 0.1 0.2 0.2 0 0.3l0.3 0.1c-0.2 0.2-0.4 0.4-0.4 0.6-0.4-0.3-0.8-0.6-1.2-1-1.2-0.8-2.2-0.6-3.1 0.5-0.2 0.5-0.3 1-0.2 1.5-1.6 0.3-2.2 1.1-1.9 2.7 0.2 0.6 0.6 1 1.2 1.2 0.7 0.2 1.5 0.2 2.2 0.2-0.8 0.8-1.8 1.5-2.8 2-1.3 1.2-1.3 2.4 0 3.6 0.4 0.1 0.7 0.2 1.1 0.3 0.3-0.1 0.7-0.2 1-0.3 0 1.2 0 2.5 0.1 3.7 0.2 1 0.9 1.6 1.9 1.7 0.8-0.1 1.3-0.4 1.7-1 0.1 0.2 0.2 0.4 0.5 0.4 0.2-0.1 0.3-0.1 0.4-0.1-0.1 0.4-0.4 0.7-0.8 0.9 0.2 0 0.5 0 0.7 0-0.3 0.5-0.5 0.9-0.7 1.3 0.1 0.2 0.2 0.3 0.4 0.4-0.5 0.2-0.5 0.4 0.2 0.5-0.5 0.2-0.5 0.4 0.1 0.6-0.4 0-0.6 0.2-0.7 0.6 0.4 0 0.7 0.1 1 0.3-4.2-0.3-7.6-2.2-10-5.6 0.3 0 0.5 0.1 0.7 0.3 0.2-0.3 0.1-0.5-0.3-0.5 0.3-0.1 0.5-0.2 0.6-0.4-0.2-0.2-0.2-0.4 0-0.5l-0.4-0.6c0.2-0.3 0.4-0.5 0.7-0.6-0.2-0.3-0.3-0.4-0.5-0.2 0-0.2 0-0.4-0.1-0.5 0.4-0.3 0.3-0.5-0.1-0.7 0.1 0 0.3-0.1 0.4-0.1-0.1-0.3 0-0.6 0.3-0.8-0.3-0.2-0.3-0.4-0.2-0.7-0.2-0.1-0.4 0-0.5 0.2l-0.2-0.4c0.4-0.1 0.6-0.3 0.7-0.8-0.1-0.2-0.1-0.4 0-0.5-0.7-0.4-0.7-0.7 0.2-0.9-0.2-0.1-0.4-0.2-0.5-0.5 0.1-0.3 0.3-0.7 0.5-1l-0.3-0.2 0.3-0.2c-0.1-0.4-0.1-0.7 0-1 0.3-0.2 0.3-0.3 0-0.5 0.2-0.1 0.2-0.1 0-0.2l0.2-0.2c-0.1-0.1-0.3-0.1-0.4 0.1l-0.7-0.6c0.5-0.2 0.5-0.5 0-0.7 0.1-0.3 0.2-0.5 0.4-0.7 0.2 0.4 0.3 0.4 0.5 0-0.1-0.2-0.2-0.5-0.4-0.7-0.1 0.4-0.2 0.5-0.5 0.3 2.2-2.7 5-4.4 8.5-5.1z"></path><path fill="#31d1fd" d="m21.9 7l0.4 0.2c-0.1 0.1-0.1 0.1-0.2 0.3l0.3 0.6c0.2 0.2 0.4 0.3 0.6 0.3-0.3 0.4-0.6 0.6-1 0.7 0.5 0.4 0.5 0.7 0 1 0.2 0.1 0.2 0.2 0 0.3 0.1 0.1 0.3 0.2 0.4 0.3-0.6 0.3-0.6 0.6-0.1 1l-0.3 0.6c0.1 0 0.2 0.1 0.3 0.2-0.2 0.3-0.1 0.4 0.3 0.4-0.2 0.1-0.3 0.3-0.3 0.5 0.2 0.2 0.2 0.4 0 0.6 0.1 0.1 0.2 0.2 0.3 0.2-0.3 0.3-0.4 0.5-0.6 0.8 0.1 0.3 0.3 0.4 0.6 0.5-0.2 0.1-0.1 0.3 0.1 0.4-0.3 0.1-0.4 0.3-0.3 0.6-0.2 0.1-0.4 0.2-0.7 0.1l0.6 0.4c-0.2 0.1-0.3 0.1-0.4 0.2 0.2 0.2 0.4 0.3 0.5 0.5-0.1 0.2-0.1 0.3 0.2 0.4-0.1 0.2-0.3 0.3-0.5 0.3 0.5 0.1 0.5 0.2 0.2 0.3l0.1 0.1c-0.2 0.3-0.3 0.5-0.4 0.8 0.1 0.2 0.2 0.2 0.4 0 0 0.1 0.1 0.2 0.2 0.3-0.5 0.9-0.7 1.8-0.6 2.8h-0.8c0-3.8 0-7.7-0.1-11.5-0.6-1.4-1.6-1.8-3-1.1-0.7 0.5-1.1 1.3-1 2.2-0.6-0.3-0.9-0.7-1.1-1.3 0-0.2 0.2-0.4 0.4-0.6l-0.3-0.1c0.2-0.1 0.2-0.2 0-0.3 0.1-0.1 0.2-0.2 0.3-0.2 0.1 0.2 0.2 0.1 0.3-0.1-0.4-0.2-0.5-0.5-0.3-0.9-0.2-0.1-0.3-0.3-0.4-0.4 0.2-0.1 0.3-0.3 0.1-0.5 0.3-0.1 0.3-0.2 0.3-0.4-0.1-0.5-0.3-0.8-0.4-1 2-0.2 3.9-0.1 5.9 0.5z"></path><path fill="#30d7fd" d="m22.3 7.2c5.2 2.1 8.1 5.8 8.7 11.4-0.1 1.1-0.3 2.2-0.6 3.3-1.1 3.7-3.5 6.4-7.1 8-0.4-0.1-0.7-0.3-1.1-0.4l0.4-1.1c-0.4-0.2-0.4-0.4 0-0.6-0.4-0.2-0.6-0.5-0.6-0.8l-0.6-0.1c0.5-0.1 1-0.1 1.5-0.3 1.3-0.1 2.3-0.8 2.8-2.1 0.3-1.3 0.3-2.7 0.2-4-0.6-1.1-1.5-1.5-2.6-1.1-0.3 0.1-0.5 0.3-0.7 0.5-0.1-0.1-0.2-0.2-0.2-0.3-0.2 0.2-0.3 0.2-0.4 0 0.1-0.3 0.2-0.5 0.4-0.8l-0.1-0.1c0.3-0.1 0.3-0.2-0.2-0.3 0.2 0 0.4-0.1 0.5-0.3-0.3-0.1-0.3-0.2-0.2-0.4-0.1-0.2-0.3-0.3-0.5-0.5 0.1-0.1 0.2-0.1 0.4-0.2l-0.6-0.4c0.3 0.1 0.5 0 0.7-0.1-0.1-0.3 0-0.5 0.3-0.6-0.2-0.1-0.3-0.3-0.1-0.4-0.3-0.1-0.5-0.2-0.6-0.5 0.2-0.3 0.3-0.5 0.6-0.8-0.1 0-0.2-0.1-0.3-0.2 0.2-0.2 0.2-0.4 0-0.6 0-0.2 0.1-0.4 0.3-0.5-0.4 0-0.5-0.1-0.3-0.4-0.1-0.1-0.2-0.2-0.3-0.2l0.3-0.6c-0.5-0.4-0.5-0.7 0.1-1-0.1-0.1-0.3-0.2-0.4-0.3 0.2-0.1 0.2-0.2 0-0.3 0.5-0.3 0.5-0.6 0-1 0.4-0.1 0.7-0.3 1-0.7-0.2 0-0.4-0.1-0.6-0.3l-0.3-0.6c0.1-0.2 0.1-0.2 0.2-0.3z"></path><path fill="#2bbfec" d="m21.9 5.4c0.9 0.3 1.9 0.7 2.8 1.2 3.7 2.4 5.8 5.7 6.3 10.1v1.9c-0.6-5.6-3.5-9.3-8.7-11.4l-0.4-0.2c-0.2-0.2-0.2-0.4 0-0.6l0.2 0.1c0.2-0.1 0.4-0.3 0.6-0.4-0.1 0-0.2-0.1-0.4-0.1l0.1-0.1c-0.2-0.1-0.4-0.3-0.5-0.5z"></path><path fill="#3ac0f5" d="m16 11c0.2 0.6 0.5 1 1.1 1.3-0.1-0.9 0.3-1.7 1-2.2 1.4-0.7 2.4-0.3 3 1.1 0.1 3.8 0.1 7.7 0.1 11.5h0.8c-0.1-1 0.1-1.9 0.6-2.8 0.2-0.2 0.4-0.4 0.7-0.5 1.1-0.4 2 0 2.6 1.1 0.1 1.3 0.1 2.7-0.2 4-0.5 1.3-1.5 2-2.8 2.1-1.1 0.1-2.1 0-3.1 0-1.1-0.4-1.9-1-2.4-2.1-0.1-0.9-0.2-1.9-0.2-2.9-0.3 0.1-0.5 0.2-0.8 0.1 0 1.2 0 2.5-0.1 3.7-0.1 0.2-0.2 0.5-0.3 0.7-0.4 0.6-0.9 0.9-1.7 1-1-0.1-1.7-0.7-1.9-1.7-0.1-1.2-0.1-2.5-0.1-3.7-0.3 0.1-0.7 0.2-1 0.3-0.4-0.1-0.7-0.2-1.1-0.3-1.3-1.2-1.3-2.4 0-3.6 1-0.5 2-1.2 2.8-2-0.7 0-1.5 0-2.2-0.2-0.6-0.2-1-0.6-1.2-1.2-0.3-1.6 0.3-2.4 1.9-2.7-0.1-0.5 0-1 0.2-1.5 0.9-1.1 1.9-1.3 3.1-0.5 0.4 0.4 0.8 0.7 1.2 1z"></path><path fill="#fcf2d7" d="m15.4 19.9c0-0.1-0.1-0.1-0.1-0.1-0.2 1.8-0.2 3.6-0.2 5.4-0.2 0.7-0.6 0.9-1.2 0.7-0.3-0.2-0.5-0.5-0.5-0.8 0.1-1.8 0-3.7-0.1-5.5-0.1 0-0.1 0.1-0.2 0.2-0.6 0.4-1.2 0.8-1.9 1.1-1-0.5-1.1-1.2-0.3-1.9 1.3-0.7 2.5-1.7 3.6-2.8 0.3-0.3 0.5-0.8 0.6-1.2-1.3 0-2.7 0-4.1-0.1-0.5-0.5-0.5-1.1-0.1-1.7l2.8-0.1c-0.5-0.5-1-1-1.3-1.6 0.4-0.9 0.9-1.1 1.7-0.7l1.4 1.4c0 0.3 0.1 0.6 0 0.9 1.3-0.2 1.9 0.3 1.8 1.6-0.5 1.1-1.1 2.2-1.9 3.1 0.6 0.5 1.2 0.9 1.8 1.2 0.5 0.8 0.4 1.3-0.5 1.6-0.6-0.1-1-0.3-1.3-0.7z"></path><path fill="#faf1d7" d="m18.9 10.8c0.5-0.1 0.9 0.1 1.2 0.5l0.2 12 0.3 0.3c0.8 0.2 1.5 0.1 2.3-0.1l0.2-0.2 0.1-2.4c0.6-0.6 1.1-0.6 1.7 0 0.6 4.1-1.1 5.6-5.1 4.6-0.7-0.3-1.1-0.7-1.4-1.4-0.1-4.3-0.1-8.6 0-12.9 0.2-0.2 0.3-0.3 0.5-0.4z"></path><path fill="#36c7fd" d="m7.1 25.4c-0.8-1.2-1.4-2.5-1.8-4-0.4-1.5-0.5-3-0.4-4.6-0.1-0.6 0-1.2 0.2-1.7 0 0.3 0 0.5 0.1 0.7 0-0.1 0.1-0.2 0.2-0.3 0.5-1.4 1.2-2.7 2.1-3.9 0.3 0.2 0.4 0.1 0.5-0.3 0.2 0.2 0.3 0.5 0.4 0.7-0.2 0.4-0.3 0.4-0.5 0-0.2 0.2-0.3 0.4-0.4 0.7 0.5 0.2 0.5 0.5 0 0.7l0.7 0.6c0.1-0.2 0.3-0.2 0.4-0.1l-0.2 0.2c0.2 0.1 0.2 0.1 0 0.2 0.3 0.2 0.3 0.3 0 0.5-0.1 0.3-0.1 0.6 0 1l-0.3 0.2 0.3 0.2c-0.2 0.3-0.4 0.7-0.5 1 0.1 0.3 0.3 0.4 0.5 0.5-0.9 0.2-0.9 0.5-0.2 0.9-0.1 0.1-0.1 0.3 0 0.5-0.1 0.5-0.3 0.7-0.7 0.8l0.2 0.4c0.1-0.2 0.3-0.3 0.5-0.2-0.1 0.3-0.1 0.5 0.2 0.7-0.3 0.2-0.4 0.5-0.3 0.8-0.1 0-0.3 0.1-0.4 0.1 0.4 0.2 0.5 0.4 0.1 0.7 0.1 0.1 0.1 0.3 0.1 0.5 0.2-0.2 0.3-0.1 0.5 0.2-0.3 0.1-0.5 0.3-0.7 0.6l0.4 0.6c-0.2 0.1-0.2 0.3 0 0.5-0.1 0.2-0.3 0.3-0.6 0.4 0.4 0 0.5 0.2 0.3 0.5-0.2-0.2-0.4-0.3-0.7-0.3z"></path><path fill="#9ce2ff" d="m2 13.7c0.1 0.4 0 0.7-0.2 1-0.1-0.4 0-0.7 0.2-1z" opacity=".914"></path><path fill="#daf4fe" d="m34.2 16.5c0.4 7.7-2.9 13.2-9.8 16.5-1.5 0.6-3 1-4.5 1.3-1.7 0.1-3.5 0-5.2-0.2-0.3-0.2-0.6-0.3-1-0.3-5.3-1.5-9.1-4.8-11.2-10-0.4-1.3-0.7-2.7-0.9-4.2 0.1-0.5 0.3-0.9 0.5-1.4l0.2 0.3c0.1-0.3 0.2-0.3 0.2 0.1 0.2-0.1 0.4-0.3 0.6-0.4 0.1 0.1 0.2 0.2 0.3 0.3 0.3 0 0.5 0 0.7 0l0.1-0.3c0.1 0.2 0.2 0.2 0.3 0l0.1 0.9c0.1-0.8 0.1-1.6 0.3-2.3-0.1 1.6 0 3.1 0.4 4.6-0.1-0.1-0.2-0.2-0.2-0.4 0.7 5.1 3.5 8.6 8.3 10.5 5.8 1.7 10.7 0.4 14.7-4 1.2-1.5 2-3.1 2.6-4.9 0.1-0.4 0.1-0.7 0-1-0.1 0.1-0.2 0.2-0.3 0.3 0.3-1.1 0.5-2.2 0.6-3.3v-1.9c0.1 0.7 0.2 1.5 0.2 2.4 0.1-0.2 0.1-0.4 0.1-0.6 0.2 0 0.4 0 0.6 0.1 0.1-0.1 0.3-0.1 0.5-0.2l-0.3-0.1c0.5-0.4 0.9-0.2 1.1 0.3 0.3-0.1 0.5-0.3 0.8-0.5 0.1 0.5 0.1 1 0.2 1.5 0-1 0.1-2 0-3.1z"></path><path fill="#effcfe" d="m5.3 21.4c0.4 1.5 1 2.8 1.8 4 2.4 3.4 5.8 5.3 10 5.6 2.2 0.2 4.2-0.2 6.2-1.1 3.6-1.6 6-4.3 7.1-8 0.1-0.1 0.2-0.2 0.3-0.3 0.1 0.3 0.1 0.6 0 1-0.6 1.8-1.4 3.4-2.6 4.9-4 4.4-8.9 5.7-14.7 4-4.8-1.9-7.6-5.4-8.3-10.5 0 0.2 0.1 0.3 0.2 0.4z"></path><path fill="#32d0fd" d="m22.9 26.6c-0.5 0.2-1 0.2-1.5 0.3l0.6 0.1c0 0.3 0.2 0.6 0.6 0.8-0.4 0.2-0.4 0.4 0 0.6l-0.4 1.1c0.4 0.1 0.7 0.3 1.1 0.4-2 0.9-4 1.3-6.2 1.1-0.3-0.2-0.6-0.3-1-0.3 0.1-0.4 0.3-0.6 0.7-0.6-0.6-0.2-0.6-0.4-0.1-0.6-0.7-0.1-0.7-0.3-0.2-0.5-0.2-0.1-0.3-0.2-0.4-0.4 0.2-0.4 0.4-0.8 0.7-1.3-0.2 0-0.5 0-0.7 0 0.4-0.2 0.7-0.5 0.8-0.9-0.1 0-0.2 0-0.4 0.1-0.3 0-0.4-0.2-0.5-0.4 0.1-0.2 0.2-0.5 0.3-0.7 0.1-1.2 0.1-2.5 0.1-3.7 0.3 0.1 0.5 0 0.8-0.1 0 1 0.1 2 0.2 2.9 0.5 1.1 1.3 1.7 2.4 2.1 1 0 2 0.1 3.1 0z"></path><path fill="#e2e9dd" d="m15.4 19.9l-0.3 5.3c0-1.8 0-3.6 0.2-5.4 0 0 0.1 0 0.1 0.1z"></path><path fill="#84d0ec" d="m13.1 19.8c0.1-0.1 0.1-0.2 0.2-0.2 0.1 1.8 0.2 3.7 0.1 5.5l-0.3-5.3z"></path><path fill="#94dfff" d="m13.7 33.8c0.4 0 0.7 0.1 1 0.3-0.4 0-0.7-0.1-1-0.3z" opacity=".902"></path></svg>