<svg xmlns="http://www.w3.org/2000/svg" version="1.1" width="320px" height="320px" style="shape-rendering:geometricPrecision; text-rendering:geometricPrecision; image-rendering:optimizeQuality; fill-rule:evenodd; clip-rule:evenodd" xmlns:xlink="http://www.w3.org/1999/xlink">
<g><path style="opacity:1" fill="#010102" d="M -0.5,-0.5 C 106.167,-0.5 212.833,-0.5 319.5,-0.5C 319.5,106.167 319.5,212.833 319.5,319.5C 212.833,319.5 106.167,319.5 -0.5,319.5C -0.5,212.833 -0.5,106.167 -0.5,-0.5 Z"/></g>
<g><path style="opacity:1" fill="#5f568d" d="M 162.5,63.5 C 162.167,63.5 161.833,63.5 161.5,63.5C 159.755,61.052 157.755,58.7187 155.5,56.5C 153.648,48.6434 149.815,41.9767 144,36.5C 142.887,37.305 141.721,37.9717 140.5,38.5C 141.045,36.4068 141.878,34.4068 143,32.5C 143.893,31.2888 144.726,31.2888 145.5,32.5C 151.445,42.7272 157.112,53.0605 162.5,63.5 Z"/></g>
<g><path style="opacity:1" fill="#60528f" d="M 139.5,39.5 C 139.657,40.8734 139.49,42.2068 139,43.5C 135.896,48.0463 133.563,53.0463 132,58.5C 130.89,60.0368 129.39,60.7035 127.5,60.5C 130.735,53.0265 134.735,46.0265 139.5,39.5 Z"/></g>
<g><path style="opacity:1" fill="#625ba7" d="M 155.5,56.5 C 157.755,58.7187 159.755,61.052 161.5,63.5C 161.589,66.7254 160.923,69.7254 159.5,72.5C 160.314,75.2966 160.981,78.1299 161.5,81C 160.729,84.4801 160.062,87.9801 159.5,91.5C 157.799,94.586 156.465,97.9194 155.5,101.5C 154.817,101.137 154.15,100.804 153.5,100.5C 151.787,99.3646 151.12,97.698 151.5,95.5C 150.5,95.5 149.5,95.5 148.5,95.5C 147.272,94.6935 146.272,93.6935 145.5,92.5C 144.994,90.8946 144.327,90.5613 143.5,91.5C 141.738,92.2623 140.738,93.5956 140.5,95.5C 135.913,103.004 131.58,110.671 127.5,118.5C 125.716,118.893 124.05,119.559 122.5,120.5C 122.665,118.173 123.331,116.007 124.5,114C 121.833,113.333 121.833,112.667 124.5,112C 123.552,111.517 122.552,111.351 121.5,111.5C 120.099,105.632 121.932,101.298 127,98.5C 128.887,100.026 129.887,102.026 130,104.5C 132.125,105.851 133.292,105.185 133.5,102.5C 133.03,100.226 132.03,98.2262 130.5,96.5C 131.689,95.5713 133.022,95.238 134.5,95.5C 135.612,92.1342 137.612,89.3008 140.5,87C 142.488,86.8195 144.488,86.9862 146.5,87.5C 146.5,85.5 146.5,83.5 146.5,81.5C 145.325,81.719 144.325,81.3857 143.5,80.5C 145.064,75.0191 146.064,69.3524 146.5,63.5C 147.394,57.3035 149.061,56.9701 151.5,62.5C 153.074,63.6309 154.741,63.7975 156.5,63C 156.032,61.178 155.699,59.0113 155.5,56.5 Z"/></g>
<g><path style="opacity:1" fill="#5b4e7e" d="M 125.5,63.5 C 124.926,66.8459 124.26,70.1792 123.5,73.5C 120.853,75.2952 118.519,77.2952 116.5,79.5C 119.011,73.8029 122.011,68.4696 125.5,63.5 Z"/></g>
<g><path style="opacity:1" fill="#6756a6" d="M 155.5,56.5 C 155.699,59.0113 156.032,61.178 156.5,63C 154.741,63.7975 153.074,63.6309 151.5,62.5C 149.061,56.9701 147.394,57.3035 146.5,63.5C 146.064,69.3524 145.064,75.0191 143.5,80.5C 144.325,81.3857 145.325,81.719 146.5,81.5C 146.5,83.5 146.5,85.5 146.5,87.5C 144.488,86.9862 142.488,86.8195 140.5,87C 137.612,89.3008 135.612,92.1342 134.5,95.5C 133.022,95.238 131.689,95.5713 130.5,96.5C 132.03,98.2262 133.03,100.226 133.5,102.5C 133.292,105.185 132.125,105.851 130,104.5C 129.887,102.026 128.887,100.026 127,98.5C 121.932,101.298 120.099,105.632 121.5,111.5C 122.552,111.351 123.552,111.517 124.5,112C 121.833,112.667 121.833,113.333 124.5,114C 123.331,116.007 122.665,118.173 122.5,120.5C 118.401,127.786 115.067,135.452 112.5,143.5C 108.851,150.127 105.185,156.794 101.5,163.5C 100.662,163.842 100.328,164.508 100.5,165.5C 99.596,166.209 99.2627,167.209 99.5,168.5C 99.6107,169.117 99.944,169.617 100.5,170C 106.833,170.333 113.167,170.667 119.5,171C 114.032,171.709 108.866,173.209 104,175.5C 101.403,173.801 98.5698,172.801 95.5,172.5C 95.5,173.5 95.5,174.5 95.5,175.5C 101.325,175.404 101.491,177.071 96,180.5C 95.5014,184.152 95.3347,187.818 95.5,191.5C 93.4727,191.338 91.4727,191.505 89.5,192C 90.3279,192.915 91.3279,193.581 92.5,194C 99.4582,194.239 106.292,194.072 113,193.5C 114.635,193.878 116.135,194.544 117.5,195.5C 113.878,196.325 110.211,196.825 106.5,197C 93.1708,197.5 79.8375,197.667 66.5,197.5C 73.6552,196.671 80.9885,196.171 88.5,196C 87.3774,194.956 86.0441,194.29 84.5,194C 86.9288,193.549 87.0955,192.715 85,191.5C 84.5006,186.177 84.334,180.844 84.5,175.5C 85.5,175.5 86.5,175.5 87.5,175.5C 87.5077,196.782 88.1744,196.782 89.5,175.5C 90.8333,175.5 92.1667,175.5 93.5,175.5C 93.5,170.167 93.5,164.833 93.5,159.5C 95.1667,159.5 96.8333,159.5 98.5,159.5C 98.4301,155.811 97.4301,152.477 95.5,149.5C 95.7163,147.616 96.383,145.949 97.5,144.5C 95.9547,143.548 94.288,143.215 92.5,143.5C 93.0121,140.653 94.0121,137.986 95.5,135.5C 95.3333,134.5 95.1667,133.5 95,132.5C 93.307,136.973 90.807,140.64 87.5,143.5C 86.5,143.5 85.5,143.5 84.5,143.5C 84.5,142.167 84.5,140.833 84.5,139.5C 88.4349,134.232 91.9349,128.565 95,122.5C 95.4955,120.527 95.6621,118.527 95.5,116.5C 96.1667,114.833 96.8333,113.167 97.5,111.5C 98.1667,110.833 98.8333,110.167 99.5,109.5C 105.303,103.564 109.303,96.5642 111.5,88.5C 112.729,85.2674 114.396,82.2674 116.5,79.5C 118.519,77.2952 120.853,75.2952 123.5,73.5C 124.26,70.1792 124.926,66.8459 125.5,63.5C 127.048,63.1788 127.715,62.1788 127.5,60.5C 129.39,60.7035 130.89,60.0368 132,58.5C 133.563,53.0463 135.896,48.0463 139,43.5C 139.49,42.2068 139.657,40.8734 139.5,39.5C 139.5,38.8333 139.833,38.5 140.5,38.5C 141.721,37.9717 142.887,37.305 144,36.5C 149.815,41.9767 153.648,48.6434 155.5,56.5 Z"/></g>
<g><path style="opacity:1" fill="#5960ac" d="M 161.5,63.5 C 161.833,63.5 162.167,63.5 162.5,63.5C 166.293,68.3162 169.293,73.6495 171.5,79.5C 171.274,82.2492 171.607,84.9159 172.5,87.5C 175.949,89.6151 178.616,92.2818 180.5,95.5C 180.34,97.1992 180.506,98.8659 181,100.5C 187.276,105.952 188.276,112.285 184,119.5C 183.667,119.167 183.333,118.833 183,118.5C 179.397,121.523 176.23,124.856 173.5,128.5C 175.571,130.93 175.904,133.597 174.5,136.5C 172.468,134.278 170.802,131.778 169.5,129C 171.48,125.687 173.147,122.187 174.5,118.5C 179.289,119.23 181.955,117.063 182.5,112C 182.691,110.027 182.024,108.527 180.5,107.5C 179.686,109.766 179.186,112.1 179,114.5C 177.003,118.082 174.67,118.082 172,114.5C 171.517,113.552 171.351,112.552 171.5,111.5C 169.833,111.5 168.167,111.5 166.5,111.5C 166.351,112.552 166.517,113.552 167,114.5C 171.939,116.866 172.606,119.866 169,123.5C 165.321,121.723 163.487,118.723 163.5,114.5C 161.757,112.962 159.757,111.962 157.5,111.5C 156.662,111.158 156.328,110.492 156.5,109.5C 156.014,106.289 155.014,103.289 153.5,100.5C 154.15,100.804 154.817,101.137 155.5,101.5C 156.465,97.9194 157.799,94.586 159.5,91.5C 160.062,87.9801 160.729,84.4801 161.5,81C 160.981,78.1299 160.314,75.2966 159.5,72.5C 160.923,69.7254 161.589,66.7254 161.5,63.5 Z"/></g>
<g><path style="opacity:1" fill="#5a5e94" d="M 171.5,79.5 C 175.26,84.296 178.26,89.6293 180.5,95.5C 178.616,92.2818 175.949,89.6151 172.5,87.5C 171.607,84.9159 171.274,82.2492 171.5,79.5 Z"/></g>
<g><path style="opacity:1" fill="#211f47" d="M 143.5,91.5 C 143.5,92.8333 143.5,94.1667 143.5,95.5C 142.5,95.5 141.5,95.5 140.5,95.5C 140.738,93.5956 141.738,92.2623 143.5,91.5 Z"/></g>
<g><path style="opacity:1" fill="#06051b" d="M 181.5,95.5 C 182.5,95.5 183.5,95.5 184.5,95.5C 187.349,100.538 189.682,105.872 191.5,111.5C 187.68,106.539 184.347,101.206 181.5,95.5 Z"/></g>
<g><path style="opacity:1" fill="#5c5b8d" d="M 148.5,95.5 C 149.5,95.5 150.5,95.5 151.5,95.5C 151.12,97.698 151.787,99.3646 153.5,100.5C 155.014,103.289 156.014,106.289 156.5,109.5C 152.907,105.414 150.24,100.747 148.5,95.5 Z"/></g>
<g><path style="opacity:1" fill="#080616" d="M 145.5,92.5 C 146.272,93.6935 147.272,94.6935 148.5,95.5C 150.24,100.747 152.907,105.414 156.5,109.5C 156.328,110.492 156.662,111.158 157.5,111.5C 157.833,112.833 158.167,114.167 158.5,115.5C 157.603,114.402 156.77,114.402 156,115.5C 153.693,110.383 150.527,105.883 146.5,102C 146.957,101.586 147.291,101.086 147.5,100.5C 146.215,97.9795 145.548,95.3128 145.5,92.5 Z"/></g>
<g><path style="opacity:1" fill="#63568a" d="M 111.5,88.5 C 109.303,96.5642 105.303,103.564 99.5,109.5C 103.251,102.329 107.251,95.3293 111.5,88.5 Z"/></g>
<g><path style="opacity:1" fill="#5163a8" d="M 180.5,95.5 C 180.833,95.5 181.167,95.5 181.5,95.5C 184.347,101.206 187.68,106.539 191.5,111.5C 192.909,115.316 194.576,118.983 196.5,122.5C 195.609,121.89 194.609,121.557 193.5,121.5C 193.441,119.278 192.275,118.278 190,118.5C 187.737,119.428 185.737,120.761 184,122.5C 183.667,121.833 183.333,121.167 183,120.5C 181.956,121.623 181.29,122.956 181,124.5C 180.333,131.833 180.333,139.167 181,146.5C 182.946,149.822 185.612,152.489 189,154.5C 189.183,157.365 189.683,160.031 190.5,162.5C 192.062,164.901 191.729,166.901 189.5,168.5C 189.672,167.508 189.338,166.842 188.5,166.5C 184.559,158.572 180.226,150.905 175.5,143.5C 170.404,134.299 165.07,125.299 159.5,116.5C 159.5,115.833 159.167,115.5 158.5,115.5C 158.167,114.167 157.833,112.833 157.5,111.5C 159.757,111.962 161.757,112.962 163.5,114.5C 163.487,118.723 165.321,121.723 169,123.5C 172.606,119.866 171.939,116.866 167,114.5C 166.517,113.552 166.351,112.552 166.5,111.5C 168.167,111.5 169.833,111.5 171.5,111.5C 171.351,112.552 171.517,113.552 172,114.5C 174.67,118.082 177.003,118.082 179,114.5C 179.186,112.1 179.686,109.766 180.5,107.5C 182.024,108.527 182.691,110.027 182.5,112C 181.955,117.063 179.289,119.23 174.5,118.5C 173.147,122.187 171.48,125.687 169.5,129C 170.802,131.778 172.468,134.278 174.5,136.5C 175.904,133.597 175.571,130.93 173.5,128.5C 176.23,124.856 179.397,121.523 183,118.5C 183.333,118.833 183.667,119.167 184,119.5C 188.276,112.285 187.276,105.952 181,100.5C 180.506,98.8659 180.34,97.1992 180.5,95.5 Z"/></g>
<g><path style="opacity:1" fill="#4b67b3" d="M 193.5,121.5 C 192.688,123.743 192.021,126.076 191.5,128.5C 192.946,133.64 195.279,138.306 198.5,142.5C 197.546,148.104 197.212,153.771 197.5,159.5C 195.5,159.5 193.5,159.5 191.5,159.5C 191.737,160.791 191.404,161.791 190.5,162.5C 189.683,160.031 189.183,157.365 189,154.5C 185.612,152.489 182.946,149.822 181,146.5C 180.333,139.167 180.333,131.833 181,124.5C 181.29,122.956 181.956,121.623 183,120.5C 183.333,121.167 183.667,121.833 184,122.5C 185.737,120.761 187.737,119.428 190,118.5C 192.275,118.278 193.441,119.278 193.5,121.5 Z"/></g>
<g><path style="opacity:1" fill="#080213" d="M 97.5,111.5 C 96.8333,113.167 96.1667,114.833 95.5,116.5C 90.8459,123.8 86.1792,131.134 81.5,138.5C 85.213,130.073 89.213,121.739 93.5,113.5C 93.2907,112.914 92.9574,112.414 92.5,112C 94.1341,111.506 95.8008,111.34 97.5,111.5 Z"/></g>
<g><path style="opacity:1" fill="#5e558c" d="M 127.5,118.5 C 122.71,127.1 117.71,135.433 112.5,143.5C 115.067,135.452 118.401,127.786 122.5,120.5C 124.05,119.559 125.716,118.893 127.5,118.5 Z"/></g>
<g><path style="opacity:1" fill="#0e0f23" d="M 159.5,116.5 C 165.07,125.299 170.404,134.299 175.5,143.5C 167.387,136.294 162.054,127.294 159.5,116.5 Z"/></g>
<g><path style="opacity:1" fill="#5d4e81" d="M 95.5,116.5 C 95.6621,118.527 95.4955,120.527 95,122.5C 91.9349,128.565 88.4349,134.232 84.5,139.5C 82.8958,140.287 82.2291,141.62 82.5,143.5C 81.5,143.5 80.5,143.5 79.5,143.5C 79.8925,141.716 80.5592,140.05 81.5,138.5C 86.1792,131.134 90.8459,123.8 95.5,116.5 Z"/></g>
<g><path style="opacity:1" fill="#6955a4" d="M 66.5,197.5 C 63.6146,197.194 60.9479,197.527 58.5,198.5C 52.1019,199.774 50.1019,197.441 52.5,191.5C 55.1173,189.712 57.284,187.378 59,184.5C 60.7904,180.566 62.2904,176.566 63.5,172.5C 64.4792,168.539 66.4792,165.206 69.5,162.5C 72.5042,158.497 75.5042,154.497 78.5,150.5C 79.4656,148.604 79.7989,146.604 79.5,144.5C 79.5,144.167 79.5,143.833 79.5,143.5C 80.5,143.5 81.5,143.5 82.5,143.5C 82.2291,141.62 82.8958,140.287 84.5,139.5C 84.5,140.833 84.5,142.167 84.5,143.5C 85.5,143.5 86.5,143.5 87.5,143.5C 90.807,140.64 93.307,136.973 95,132.5C 95.1667,133.5 95.3333,134.5 95.5,135.5C 94.0121,137.986 93.0121,140.653 92.5,143.5C 94.288,143.215 95.9547,143.548 97.5,144.5C 96.383,145.949 95.7163,147.616 95.5,149.5C 97.4301,152.477 98.4301,155.811 98.5,159.5C 96.8333,159.5 95.1667,159.5 93.5,159.5C 93.5,164.833 93.5,170.167 93.5,175.5C 92.1667,175.5 90.8333,175.5 89.5,175.5C 88.1744,196.782 87.5077,196.782 87.5,175.5C 86.5,175.5 85.5,175.5 84.5,175.5C 84.334,180.844 84.5006,186.177 85,191.5C 87.0955,192.715 86.9288,193.549 84.5,194C 86.0441,194.29 87.3774,194.956 88.5,196C 80.9885,196.171 73.6552,196.671 66.5,197.5 Z"/></g>
<g><path style="opacity:1" fill="#436ab3" d="M 193.5,121.5 C 194.609,121.557 195.609,121.89 196.5,122.5C 202.294,131.613 207.627,140.946 212.5,150.5C 212.66,152.199 212.494,153.866 212,155.5C 209.483,157.36 207.983,159.86 207.5,163C 209.051,167.817 210.717,172.65 212.5,177.5C 211.776,180.615 210.276,183.282 208,185.5C 207.505,187.473 207.338,189.473 207.5,191.5C 202.167,191.5 196.833,191.5 191.5,191.5C 188.833,191.5 186.167,191.5 183.5,191.5C 183.478,187.407 182.811,183.407 181.5,179.5C 181.481,176.794 182.148,174.294 183.5,172C 180.045,169.659 177.545,170.493 176,174.5C 175.517,173.552 175.351,172.552 175.5,171.5C 170.203,170.725 164.87,170.392 159.5,170.5C 169.167,169.833 178.833,169.167 188.5,168.5C 188.833,168.5 189.167,168.5 189.5,168.5C 191.729,166.901 192.062,164.901 190.5,162.5C 191.404,161.791 191.737,160.791 191.5,159.5C 193.5,159.5 195.5,159.5 197.5,159.5C 197.212,153.771 197.546,148.104 198.5,142.5C 195.279,138.306 192.946,133.64 191.5,128.5C 192.021,126.076 192.688,123.743 193.5,121.5 Z"/></g>
<g><path style="opacity:1" fill="#5d4c85" d="M 79.5,144.5 C 79.7989,146.604 79.4656,148.604 78.5,150.5C 75.5042,154.497 72.5042,158.497 69.5,162.5C 71.8083,155.879 75.1416,149.879 79.5,144.5 Z"/></g>
<g><path style="opacity:1" fill="#030b23" d="M 218.5,159.5 C 219.496,159.414 220.329,159.748 221,160.5C 222.118,162.765 222.951,165.099 223.5,167.5C 221.336,165.178 219.669,162.511 218.5,159.5 Z"/></g>
<g><path style="opacity:1" fill="#0c0d1c" d="M 175.5,143.5 C 180.226,150.905 184.559,158.572 188.5,166.5C 178.5,167.167 168.5,167.833 158.5,168.5C 158.5,178.833 158.5,189.167 158.5,199.5C 157.506,189.347 157.172,179.014 157.5,168.5C 157.414,167.504 157.748,166.671 158.5,166C 167.16,165.5 175.827,165.334 184.5,165.5C 184.657,164.127 184.49,162.793 184,161.5C 181.35,157.546 178.683,153.546 176,149.5C 175.505,147.527 175.338,145.527 175.5,143.5 Z"/></g>
<g><path style="opacity:1" fill="#222e53" d="M 188.5,166.5 C 189.338,166.842 189.672,167.508 189.5,168.5C 189.167,168.5 188.833,168.5 188.5,168.5C 178.5,168.5 168.5,168.5 158.5,168.5C 168.5,167.833 178.5,167.167 188.5,166.5 Z"/></g>
<g><path style="opacity:1" fill="#605da8" d="M 99.5,168.5 C 109.5,168.5 119.5,168.5 129.5,168.5C 129.5,177.5 129.5,186.5 129.5,195.5C 128.522,195.811 127.855,196.478 127.5,197.5C 104.51,198.5 81.5097,198.833 58.5,198.5C 60.9479,197.527 63.6146,197.194 66.5,197.5C 79.8375,197.667 93.1708,197.5 106.5,197C 110.211,196.825 113.878,196.325 117.5,195.5C 116.135,194.544 114.635,193.878 113,193.5C 106.292,194.072 99.4582,194.239 92.5,194C 91.3279,193.581 90.3279,192.915 89.5,192C 91.4727,191.505 93.4727,191.338 95.5,191.5C 95.3347,187.818 95.5014,184.152 96,180.5C 101.491,177.071 101.325,175.404 95.5,175.5C 95.5,174.5 95.5,173.5 95.5,172.5C 98.5698,172.801 101.403,173.801 104,175.5C 108.866,173.209 114.032,171.709 119.5,171C 113.167,170.667 106.833,170.333 100.5,170C 99.944,169.617 99.6107,169.117 99.5,168.5 Z"/></g>
<g><path style="opacity:1" fill="#55608c" d="M 158.5,168.5 C 168.5,168.5 178.5,168.5 188.5,168.5C 178.833,169.167 169.167,169.833 159.5,170.5C 159.5,178.167 159.5,185.833 159.5,193.5C 159.5,194.167 159.5,194.833 159.5,195.5C 159.5,196.5 159.5,197.5 159.5,198.5C 159.5,198.833 159.5,199.167 159.5,199.5C 159.167,199.5 158.833,199.5 158.5,199.5C 158.5,189.167 158.5,178.833 158.5,168.5 Z"/></g>
<g><path style="opacity:1" fill="#4868b4" d="M 159.5,170.5 C 164.87,170.392 170.203,170.725 175.5,171.5C 175.351,172.552 175.517,173.552 176,174.5C 177.545,170.493 180.045,169.659 183.5,172C 182.148,174.294 181.481,176.794 181.5,179.5C 182.811,183.407 183.478,187.407 183.5,191.5C 186.167,191.5 188.833,191.5 191.5,191.5C 193.607,192.468 195.941,192.802 198.5,192.5C 201.5,193.167 204.5,193.833 207.5,194.5C 191.491,194.5 175.491,194.166 159.5,193.5C 159.5,185.833 159.5,178.167 159.5,170.5 Z"/></g>
<g><path style="opacity:1" fill="#346fb5" d="M 212.5,150.5 C 214.199,152.566 215.532,154.9 216.5,157.5C 215.986,163.492 218.152,168.158 223,171.5C 224.383,174.368 225.216,177.368 225.5,180.5C 225.661,184.723 224.994,188.723 223.5,192.5C 215.167,192.5 206.833,192.5 198.5,192.5C 195.941,192.802 193.607,192.468 191.5,191.5C 196.833,191.5 202.167,191.5 207.5,191.5C 207.338,189.473 207.505,187.473 208,185.5C 210.276,183.282 211.776,180.615 212.5,177.5C 210.717,172.65 209.051,167.817 207.5,163C 207.983,159.86 209.483,157.36 212,155.5C 212.494,153.866 212.66,152.199 212.5,150.5 Z"/></g>
<g><path style="opacity:1" fill="#0a0413" d="M 60.5,175.5 C 57.8333,180.833 55.1667,186.167 52.5,191.5C 50.5879,193.657 48.9213,195.991 47.5,198.5C 48.5304,194.225 49.6971,189.892 51,185.5C 51.3333,185.833 51.6667,186.167 52,186.5C 54.93,183.41 56.93,179.743 58,175.5C 58.9772,174.226 59.8106,174.226 60.5,175.5 Z"/></g>
<g><path style="opacity:1" fill="#2272bf" d="M 225.5,180.5 C 229.042,181.897 230.875,184.563 231,188.5C 234.505,190.738 236.338,193.905 236.5,198C 226.839,198.5 217.172,198.666 207.5,198.5C 202.167,197.833 196.833,197.167 191.5,196.5C 202.187,196.832 212.854,196.499 223.5,195.5C 218.208,194.505 212.875,194.172 207.5,194.5C 204.5,193.833 201.5,193.167 198.5,192.5C 206.833,192.5 215.167,192.5 223.5,192.5C 224.994,188.723 225.661,184.723 225.5,180.5 Z"/></g>
<g><path style="opacity:1" fill="#635186" d="M 63.5,172.5 C 62.2904,176.566 60.7904,180.566 59,184.5C 57.284,187.378 55.1173,189.712 52.5,191.5C 55.1667,186.167 57.8333,180.833 60.5,175.5C 61.2719,174.306 62.2719,173.306 63.5,172.5 Z"/></g>
<g><path style="opacity:1" fill="#32335e" d="M 100.5,165.5 C 110.111,167.474 120.111,168.141 130.5,167.5C 130.828,178.346 130.494,189.013 129.5,199.5C 129.5,198.167 129.5,196.833 129.5,195.5C 129.5,186.5 129.5,177.5 129.5,168.5C 119.5,168.5 109.5,168.5 99.5,168.5C 99.2627,167.209 99.596,166.209 100.5,165.5 Z"/></g>
<g><path style="opacity:1" fill="#3d6daf" d="M 159.5,193.5 C 175.491,194.166 191.491,194.5 207.5,194.5C 212.875,194.172 218.208,194.505 223.5,195.5C 212.854,196.499 202.187,196.832 191.5,196.5C 180.833,196.167 170.167,195.833 159.5,195.5C 159.5,194.833 159.5,194.167 159.5,193.5 Z"/></g>
<g><path style="opacity:1" fill="#4767bd" d="M 159.5,195.5 C 170.167,195.833 180.833,196.167 191.5,196.5C 196.833,197.167 202.167,197.833 207.5,198.5C 191.5,198.5 175.5,198.5 159.5,198.5C 159.5,197.5 159.5,196.5 159.5,195.5 Z"/></g>
<g><path style="opacity:1" fill="#5c5586" d="M 52.5,191.5 C 50.1019,197.441 52.1019,199.774 58.5,198.5C 81.5097,198.833 104.51,198.5 127.5,197.5C 127.855,196.478 128.522,195.811 129.5,195.5C 129.5,196.833 129.5,198.167 129.5,199.5C 102.833,199.5 76.1667,199.5 49.5,199.5C 48.5084,199.672 47.8417,199.338 47.5,198.5C 48.9213,195.991 50.5879,193.657 52.5,191.5 Z"/></g>
<g><path style="opacity:1" fill="#3167a1" d="M 216.5,157.5 C 217.167,158.167 217.833,158.833 218.5,159.5C 219.669,162.511 221.336,165.178 223.5,167.5C 229.319,177.968 234.652,188.635 239.5,199.5C 212.833,199.5 186.167,199.5 159.5,199.5C 159.5,199.167 159.5,198.833 159.5,198.5C 175.5,198.5 191.5,198.5 207.5,198.5C 217.172,198.666 226.839,198.5 236.5,198C 236.338,193.905 234.505,190.738 231,188.5C 230.875,184.563 229.042,181.897 225.5,180.5C 225.216,177.368 224.383,174.368 223,171.5C 218.152,168.158 215.986,163.492 216.5,157.5 Z"/></g>
<g><path style="opacity:1" fill="#040215" d="M 101.5,163.5 C 101.5,164.5 101.5,165.5 101.5,166.5C 110.406,166.108 119.24,165.441 128,164.5C 129.512,165.257 130.846,166.257 132,167.5C 132.424,178.865 131.924,190.199 130.5,201.5C 110.479,201.734 90.4788,201.734 70.5,201.5C 65.1667,201.667 59.8333,201.833 54.5,202C 53.9747,202.692 53.3081,203.192 52.5,203.5C 51.0656,202.412 50.0656,201.078 49.5,199.5C 76.1667,199.5 102.833,199.5 129.5,199.5C 130.494,189.013 130.828,178.346 130.5,167.5C 120.111,168.141 110.111,167.474 100.5,165.5C 100.328,164.508 100.662,163.842 101.5,163.5 Z"/></g>
<g><path style="opacity:1" fill="#797a7e" d="M 76.5,206.5 C 73.8333,206.5 71.1667,206.5 68.5,206.5C 68.5,215.167 68.5,223.833 68.5,232.5C 67.5067,223.682 67.1734,214.682 67.5,205.5C 70.7131,205.19 73.7131,205.523 76.5,206.5 Z"/></g>
<g><path style="opacity:1" fill="#78787c" d="M 91.5,233.5 C 91.5,224.5 91.5,215.5 91.5,206.5C 89.8333,206.5 88.1667,206.5 86.5,206.5C 86.8261,215.017 86.4927,223.35 85.5,231.5C 85.5,222.833 85.5,214.167 85.5,205.5C 87.8333,205.5 90.1667,205.5 92.5,205.5C 92.8269,215.015 92.4936,224.348 91.5,233.5 Z"/></g>
<g><path style="opacity:1" fill="#88888c" d="M 113.5,206.5 C 107.833,206.5 102.167,206.5 96.5,206.5C 96.5,217.833 96.5,229.167 96.5,240.5C 98.8333,240.5 101.167,240.5 103.5,240.5C 103.183,236.298 103.517,232.298 104.5,228.5C 104.5,232.833 104.5,237.167 104.5,241.5C 101.5,241.5 98.5,241.5 95.5,241.5C 95.5,229.5 95.5,217.5 95.5,205.5C 101.69,205.177 107.69,205.51 113.5,206.5 Z"/></g>
<g><path style="opacity:1" fill="#7a797a" d="M 220.5,206.5 C 214.167,206.5 207.833,206.5 201.5,206.5C 201.5,217.833 201.5,229.167 201.5,240.5C 207.833,240.5 214.167,240.5 220.5,240.5C 220.5,238.833 220.5,237.167 220.5,235.5C 216.629,235.815 212.962,235.482 209.5,234.5C 213.5,234.5 217.5,234.5 221.5,234.5C 221.5,236.833 221.5,239.167 221.5,241.5C 214.5,241.5 207.5,241.5 200.5,241.5C 200.5,229.5 200.5,217.5 200.5,205.5C 207.354,205.176 214.021,205.509 220.5,206.5 Z"/></g>
<g><path style="opacity:1" fill="#a4a4a8" d="M 220.5,206.5 C 220.5,208.5 220.5,210.5 220.5,212.5C 216.833,212.5 213.167,212.5 209.5,212.5C 209.5,214.833 209.5,217.167 209.5,219.5C 212.5,219.5 215.5,219.5 218.5,219.5C 218.5,221.833 218.5,224.167 218.5,226.5C 215.5,226.5 212.5,226.5 209.5,226.5C 209.5,229.167 209.5,231.833 209.5,234.5C 212.962,235.482 216.629,235.815 220.5,235.5C 220.5,237.167 220.5,238.833 220.5,240.5C 214.167,240.5 207.833,240.5 201.5,240.5C 201.5,229.167 201.5,217.833 201.5,206.5C 207.833,206.5 214.167,206.5 220.5,206.5 Z"/></g>
<g><path style="opacity:1" fill="#0a0c15" d="M 157.5,168.5 C 157.172,179.014 157.506,189.347 158.5,199.5C 158.833,199.5 159.167,199.5 159.5,199.5C 186.167,199.5 212.833,199.5 239.5,199.5C 213.005,200.498 186.339,200.831 159.5,200.5C 159.5,201.5 159.5,202.5 159.5,203.5C 186.166,202.333 212.833,202.333 239.5,203.5C 236.553,204.321 233.553,204.821 230.5,205C 233.351,206.881 233.018,207.715 229.5,207.5C 227.714,207.304 226.381,206.471 225.5,205C 208.662,204.172 191.995,204.338 175.5,205.5C 174.167,207.5 174.167,209.5 175.5,211.5C 175.5,211.833 175.5,212.167 175.5,212.5C 176.609,213.29 177.942,213.79 179.5,214C 178.207,214.49 176.873,214.657 175.5,214.5C 175.024,218.993 174.358,223.327 173.5,227.5C 174.128,221.238 173.295,215.238 171,209.5C 167.716,205.796 163.55,204.129 158.5,204.5C 158.082,203.778 157.416,203.278 156.5,203C 156.957,202.586 157.291,202.086 157.5,201.5C 155.286,199.904 154.286,197.738 154.5,195C 156.699,187.914 157.032,180.747 155.5,173.5C 155.801,171.578 156.467,169.912 157.5,168.5 Z"/></g>
<g><path style="opacity:1" fill="#a5a5a9" d="M 113.5,206.5 C 117.079,206.911 119.246,208.911 120,212.5C 121.487,224.181 116.32,229.514 104.5,228.5C 103.517,232.298 103.183,236.298 103.5,240.5C 101.167,240.5 98.8333,240.5 96.5,240.5C 96.5,229.167 96.5,217.833 96.5,206.5C 102.167,206.5 107.833,206.5 113.5,206.5 Z"/></g>
<g><path style="opacity:1" fill="#838488" d="M 150.5,209.5 C 149.804,213.452 149.304,217.452 149,221.5C 148.667,220.5 148.333,219.5 148,218.5C 147.501,222.152 147.335,225.818 147.5,229.5C 146.355,225.689 146.188,221.689 147,217.5C 147.322,214.334 148.489,211.667 150.5,209.5 Z"/></g>
<g><path style="opacity:1" fill="#717375" d="M 175.5,205.5 C 183.167,205.5 190.833,205.5 198.5,205.5C 198.5,207.833 198.5,210.167 198.5,212.5C 196.167,212.5 193.833,212.5 191.5,212.5C 191.5,222.167 191.5,231.833 191.5,241.5C 188.5,241.5 185.5,241.5 182.5,241.5C 182.5,241.167 182.5,240.833 182.5,240.5C 185.167,240.5 187.833,240.5 190.5,240.5C 190.5,230.833 190.5,221.167 190.5,211.5C 192.833,211.5 195.167,211.5 197.5,211.5C 197.5,209.833 197.5,208.167 197.5,206.5C 190.167,206.5 182.833,206.5 175.5,206.5C 175.5,208.167 175.5,209.833 175.5,211.5C 174.167,209.5 174.167,207.5 175.5,205.5 Z"/></g>
<g><path style="opacity:1" fill="#a5a5a9" d="M 158.5,204.5 C 163.55,204.129 167.716,205.796 171,209.5C 173.295,215.238 174.128,221.238 173.5,227.5C 172.815,239.681 166.482,244.514 154.5,242C 149.704,239.244 147.371,235.077 147.5,229.5C 147.335,225.818 147.501,222.152 148,218.5C 148.333,219.5 148.667,220.5 149,221.5C 149.304,217.452 149.804,213.452 150.5,209.5C 152.193,206.318 154.859,204.652 158.5,204.5 Z"/></g>
<g><path style="opacity:1" fill="#464749" d="M 175.5,212.5 C 175.5,212.167 175.5,211.833 175.5,211.5C 177.833,211.5 180.167,211.5 182.5,211.5C 182.5,221.167 182.5,230.833 182.5,240.5C 182.5,240.833 182.5,241.167 182.5,241.5C 181.506,232.014 181.173,222.348 181.5,212.5C 179.5,212.5 177.5,212.5 175.5,212.5 Z"/></g>
<g><path style="opacity:1" fill="#a7a8ad" d="M 182.5,240.5 C 182.5,230.833 182.5,221.167 182.5,211.5C 180.167,211.5 177.833,211.5 175.5,211.5C 175.5,209.833 175.5,208.167 175.5,206.5C 182.833,206.5 190.167,206.5 197.5,206.5C 197.5,208.167 197.5,209.833 197.5,211.5C 195.167,211.5 192.833,211.5 190.5,211.5C 190.5,221.167 190.5,230.833 190.5,240.5C 187.833,240.5 185.167,240.5 182.5,240.5 Z"/></g>
<g><path style="opacity:1" fill="#0a0b0d" d="M 104.5,212.5 C 111.238,211.493 113.238,214.16 110.5,220.5C 108.604,221.466 106.604,221.799 104.5,221.5C 104.5,218.5 104.5,215.5 104.5,212.5 Z"/></g>
<g><path style="opacity:1" fill="#a3a3a7" d="M 121.5,205.5 C 124.833,205.5 128.167,205.5 131.5,205.5C 131.769,209.474 132.936,213.14 135,216.5C 135.862,213.051 137.028,209.717 138.5,206.5C 140.833,205.167 143.167,205.167 145.5,206.5C 141.5,218.173 137.5,229.839 133.5,241.5C 128.906,229.719 124.906,217.719 121.5,205.5 Z"/></g>
<g><path style="opacity:1" fill="#101013" d="M 157.5,211.5 C 161.182,210.725 163.682,212.059 165,215.5C 165.667,220.833 165.667,226.167 165,231.5C 160.736,237.186 157.736,236.519 156,229.5C 155.036,223.324 155.536,217.324 157.5,211.5 Z"/></g>
<g><path style="opacity:1" fill="#a4a5a9" d="M 76.5,206.5 C 76.2483,215.873 76.5817,225.207 77.5,234.5C 80.9476,235.099 83.6143,234.099 85.5,231.5C 86.4927,223.35 86.8261,215.017 86.5,206.5C 88.1667,206.5 89.8333,206.5 91.5,206.5C 91.5,215.5 91.5,224.5 91.5,233.5C 91.528,235.582 90.8613,237.416 89.5,239C 84.1845,242.706 78.5179,243.373 72.5,241C 70.2177,238.603 68.8844,235.769 68.5,232.5C 68.5,223.833 68.5,215.167 68.5,206.5C 71.1667,206.5 73.8333,206.5 76.5,206.5 Z"/></g>
<g><path style="opacity:1" fill="#504f52" d="M 214.5,246.5 C 214.5,250.833 214.5,255.167 214.5,259.5C 215.791,259.737 216.791,259.404 217.5,258.5C 218.833,258.5 220.167,258.5 221.5,258.5C 221.5,265.5 221.5,272.5 221.5,279.5C 220.167,279.5 218.833,279.5 217.5,279.5C 217.829,273.794 217.495,268.128 216.5,262.5C 215.914,262.709 215.414,263.043 215,263.5C 214.501,268.823 214.334,274.156 214.5,279.5C 213.5,279.5 212.5,279.5 211.5,279.5C 211.5,268.5 211.5,257.5 211.5,246.5C 212.5,246.5 213.5,246.5 214.5,246.5 Z"/></g>
<g><path style="opacity:1" fill="#2d2d2f" d="M 214.5,246.5 C 214.869,250.768 215.869,254.768 217.5,258.5C 216.791,259.404 215.791,259.737 214.5,259.5C 214.5,255.167 214.5,250.833 214.5,246.5 Z"/></g>
<g><path style="opacity:1" fill="#525254" d="M 234.5,258.5 C 237.5,258.5 240.5,258.5 243.5,258.5C 243.5,260.833 243.5,263.167 243.5,265.5C 242.5,265.5 241.5,265.5 240.5,265.5C 240.5,264.5 240.5,263.5 240.5,262.5C 239.325,262.281 238.325,262.614 237.5,263.5C 239.11,265.731 240.943,267.731 243,269.5C 243.498,272.817 243.665,276.15 243.5,279.5C 240.813,279.664 238.146,279.497 235.5,279C 234.577,276.959 234.244,274.792 234.5,272.5C 235.5,272.5 236.5,272.5 237.5,272.5C 237.5,273.5 237.5,274.5 237.5,275.5C 238.5,275.5 239.5,275.5 240.5,275.5C 239.839,272.187 238.006,269.52 235,267.5C 234.502,264.518 234.335,261.518 234.5,258.5 Z"/></g>
<g><path style="opacity:1" fill="#4c4c4d" d="M 291.5,246.5 C 292.833,246.5 294.167,246.5 295.5,246.5C 295.5,257.5 295.5,268.5 295.5,279.5C 294.167,279.5 292.833,279.5 291.5,279.5C 291.5,268.5 291.5,257.5 291.5,246.5 Z"/></g>
<g><path style="opacity:1" fill="#515153" d="M 72.5,257.5 C 75.1194,257.232 77.6194,257.565 80,258.5C 80.6667,262.167 80.6667,265.833 80,269.5C 78.3005,270.406 76.4672,270.739 74.5,270.5C 74.5,272.167 74.5,273.833 74.5,275.5C 75.5,275.5 76.5,275.5 77.5,275.5C 77.5,274.5 77.5,273.5 77.5,272.5C 78.5,272.5 79.5,272.5 80.5,272.5C 80.7564,274.792 80.4231,276.959 79.5,279C 76.854,279.497 74.1873,279.664 71.5,279.5C 71.2027,272.08 71.536,264.746 72.5,257.5 Z"/></g>
<g><path style="opacity:1" fill="#515154" d="M 224.5,257.5 C 227.119,257.232 229.619,257.565 232,258.5C 232.5,265.492 232.666,272.492 232.5,279.5C 229.5,279.5 226.5,279.5 223.5,279.5C 223.5,275.167 223.5,270.833 223.5,266.5C 225.5,266.5 227.5,266.5 229.5,266.5C 229.5,265.167 229.5,263.833 229.5,262.5C 227.5,263.167 225.5,263.833 223.5,264.5C 223.298,262.05 223.631,259.717 224.5,257.5 Z"/></g>
<g><path style="opacity:1" fill="#505053" d="M 0.5,246.5 C 3.8499,246.335 7.18323,246.502 10.5,247C 12.0762,252.336 11.7428,257.503 9.5,262.5C 9.80762,263.308 10.3076,263.975 11,264.5C 11.6667,269.167 11.6667,273.833 11,278.5C 7.60636,279.456 4.10636,279.789 0.5,279.5C 0.5,268.5 0.5,257.5 0.5,246.5 Z"/></g>
<g><path style="opacity:1" fill="#0e0e11" d="M 4.5,250.5 C 5.83333,250.5 7.16667,250.5 8.5,250.5C 8.66409,253.187 8.49742,255.854 8,258.5C 6.98873,259.337 5.82207,259.67 4.5,259.5C 4.5,256.5 4.5,253.5 4.5,250.5 Z"/></g>
<g><path style="opacity:1" fill="#3d3d3f" d="M 260.5,279.5 C 260.666,273.158 260.5,266.825 260,260.5C 259.667,260.167 259.333,259.833 259,259.5C 258.814,262.036 258.314,264.369 257.5,266.5C 257.558,262.299 256.558,261.799 254.5,265C 253.552,265.483 252.552,265.649 251.5,265.5C 249.839,258.327 252.506,255.827 259.5,258C 260,258.5 260.5,259 261,259.5C 261.821,266.346 261.654,273.013 260.5,279.5 Z"/></g>
<g><path style="opacity:1" fill="#515153" d="M 123.5,257.5 C 126.455,258.159 129.455,258.492 132.5,258.5C 132.5,261.5 132.5,264.5 132.5,267.5C 131.167,267.5 129.833,267.5 128.5,267.5C 128.66,265.801 128.494,264.134 128,262.5C 127.667,262.833 127.333,263.167 127,263.5C 126.501,268.823 126.334,274.156 126.5,279.5C 125.5,279.5 124.5,279.5 123.5,279.5C 123.5,272.167 123.5,264.833 123.5,257.5 Z"/></g>
<g><path style="opacity:1" fill="#515153" d="M 160.5,277.5 C 159.778,277.082 159.278,276.416 159,275.5C 158.825,270.981 158.325,266.647 157.5,262.5C 156.833,262.5 156.167,262.5 155.5,262.5C 155.016,267.363 154.016,272.197 152.5,277C 154.587,276.782 156.587,276.949 158.5,277.5C 156.922,278.298 155.256,278.798 153.5,279C 154.435,281.381 154.768,283.881 154.5,286.5C 153.5,286.5 152.5,286.5 151.5,286.5C 151.5,276.833 151.5,267.167 151.5,257.5C 154.786,258.207 158.119,258.54 161.5,258.5C 161.823,265.022 161.49,271.355 160.5,277.5 Z"/></g>
<g><path style="opacity:1" fill="#545456" d="M 280.5,278.5 C 280.187,275.753 280.52,273.086 281.5,270.5C 282.452,272.045 282.785,273.712 282.5,275.5C 283.833,275.5 285.167,275.5 286.5,275.5C 286.5,273.5 286.5,271.5 286.5,269.5C 284.712,269.785 283.045,269.452 281.5,268.5C 283.284,268.524 285.284,268.024 287.5,267C 286.594,265.301 286.261,263.467 286.5,261.5C 285.209,261.263 284.209,261.596 283.5,262.5C 282.849,263.091 282.182,263.757 281.5,264.5C 280.526,262.257 280.192,259.924 280.5,257.5C 283.448,257.223 286.281,257.556 289,258.5C 289.5,265.492 289.666,272.492 289.5,279.5C 286.342,278.645 283.342,278.312 280.5,278.5 Z"/></g>
<g><path style="opacity:1" fill="#4f4f51" d="M 99.5,258.5 C 102.833,258.5 106.167,258.5 109.5,258.5C 109.666,265.175 109.5,271.842 109,278.5C 106,279.833 103,279.833 100,278.5C 99.5004,271.842 99.3337,265.175 99.5,258.5 Z"/></g>
<g><path style="opacity:1" fill="#000002" d="M 103.5,262.5 C 104.8,264.223 105.467,266.39 105.5,269C 105.167,271.167 104.833,273.333 104.5,275.5C 103.508,271.217 103.174,266.884 103.5,262.5 Z"/></g>
<g><path style="opacity:1" fill="#505052" d="M 186.5,252.5 C 187.833,252.5 189.167,252.5 190.5,252.5C 190.342,255.361 191.008,258.028 192.5,260.5C 191.389,263.21 190.723,266.044 190.5,269C 190.922,272.586 191.589,276.086 192.5,279.5C 190.533,279.739 188.699,279.406 187,278.5C 186.078,269.792 185.912,261.126 186.5,252.5 Z"/></g>
<g><path style="opacity:1" fill="#505052" d="M 297.5,257.5 C 298.5,257.5 299.5,257.5 300.5,257.5C 300.5,263.5 300.5,269.5 300.5,275.5C 301.5,275.5 302.5,275.5 303.5,275.5C 303.5,269.5 303.5,263.5 303.5,257.5C 304.822,257.33 305.989,257.663 307,258.5C 307.5,265.492 307.666,272.492 307.5,279.5C 304.253,278.572 301.087,278.238 298,278.5C 297.5,271.508 297.334,264.508 297.5,257.5 Z"/></g>
<g><path style="opacity:1" fill="#505052" d="M 309.5,258.5 C 312.448,258.223 315.281,258.556 318,259.5C 318.498,262.817 318.665,266.15 318.5,269.5C 316.5,269.5 314.5,269.5 312.5,269.5C 312.5,271.5 312.5,273.5 312.5,275.5C 313.5,275.5 314.5,275.5 315.5,275.5C 315.281,274.325 315.614,273.325 316.5,272.5C 317.474,274.743 317.808,277.076 317.5,279.5C 314.552,279.777 311.719,279.444 309,278.5C 308.208,271.753 308.374,265.086 309.5,258.5 Z"/></g>
<g><path style="opacity:1" fill="#020204" d="M 312.5,262.5 C 313.586,262.62 314.253,263.287 314.5,264.5C 314.167,265.167 313.833,265.833 313.5,266.5C 312.571,265.311 312.238,263.978 312.5,262.5 Z"/></g>
<g><path style="opacity:1" fill="#07070a" d="M 74.5,262.5 C 75.5,262.5 76.5,262.5 77.5,262.5C 77.5,263.833 77.5,265.167 77.5,266.5C 76.5,266.5 75.5,266.5 74.5,266.5C 74.5,265.167 74.5,263.833 74.5,262.5 Z"/></g>
<g><path style="opacity:1" fill="#38373a" d="M 283.5,262.5 C 284.209,261.596 285.209,261.263 286.5,261.5C 286.261,263.467 286.594,265.301 287.5,267C 285.284,268.024 283.284,268.524 281.5,268.5C 283.045,269.452 284.712,269.785 286.5,269.5C 286.5,271.5 286.5,273.5 286.5,275.5C 285.167,275.5 283.833,275.5 282.5,275.5C 282.785,273.712 282.452,272.045 281.5,270.5C 280.52,273.086 280.187,275.753 280.5,278.5C 279.357,275.024 279.19,271.358 280,267.5C 281.699,266.594 283.533,266.261 285.5,266.5C 285.843,264.517 285.176,263.183 283.5,262.5 Z"/></g>
<g><path style="opacity:1" fill="#4f4f50" d="M 14.5,257.5 C 23.0108,256.473 25.8442,260.14 23,268.5C 21.5993,270.192 19.7659,270.859 17.5,270.5C 17.2148,272.288 17.5481,273.955 18.5,275.5C 19.3857,274.675 19.719,273.675 19.5,272.5C 20.8333,272.5 22.1667,272.5 23.5,272.5C 23.7564,274.792 23.4231,276.959 22.5,279C 19.5706,279.777 16.7372,279.61 14,278.5C 13.2402,271.45 13.4069,264.45 14.5,257.5 Z"/></g>
<g><path style="opacity:1" fill="#020204" d="M 17.5,262.5 C 18.5862,262.62 19.2528,263.287 19.5,264.5C 19.1667,265.167 18.8333,265.833 18.5,266.5C 17.5713,265.311 17.238,263.978 17.5,262.5 Z"/></g>
<g><path style="opacity:1" fill="#555557" d="M 194.5,258.5 C 197.5,258.5 200.5,258.5 203.5,258.5C 203.5,262.167 203.5,265.833 203.5,269.5C 201.5,269.5 199.5,269.5 197.5,269.5C 197.5,271.5 197.5,273.5 197.5,275.5C 198.5,275.5 199.5,275.5 200.5,275.5C 200.5,274.5 200.5,273.5 200.5,272.5C 201.5,272.5 202.5,272.5 203.5,272.5C 203.756,274.792 203.423,276.959 202.5,279C 199.854,279.497 197.187,279.664 194.5,279.5C 194.5,272.5 194.5,265.5 194.5,258.5 Z"/></g>
<g><path style="opacity:1" fill="#1f1f21" d="M 197.5,261.5 C 198.5,261.5 199.5,261.5 200.5,261.5C 200.5,263.5 200.5,265.5 200.5,267.5C 199.5,267.5 198.5,267.5 197.5,267.5C 197.5,265.5 197.5,263.5 197.5,261.5 Z"/></g>
<g><path style="opacity:1" fill="#4e4e51" d="M 60.5,258.5 C 63.5,258.5 66.5,258.5 69.5,258.5C 69.5,260.833 69.5,263.167 69.5,265.5C 68.1667,265.5 66.8333,265.5 65.5,265.5C 65.719,264.325 65.3857,263.325 64.5,262.5C 63.3554,263.776 63.3554,265.109 64.5,266.5C 66.1932,267.228 67.6932,268.228 69,269.5C 71.9066,278.086 69.0733,281.253 60.5,279C 59.5769,276.959 59.2436,274.792 59.5,272.5C 60.8333,272.5 62.1667,272.5 63.5,272.5C 63.281,273.675 63.6143,274.675 64.5,275.5C 65.6139,274.277 65.7805,272.944 65,271.5C 59.5847,268.603 58.0847,264.27 60.5,258.5 Z"/></g>
<g><path style="opacity:1" fill="#504f52" d="M 268.5,257.5 C 269.822,257.33 270.989,257.663 272,258.5C 272.297,261.914 272.964,265.247 274,268.5C 274.333,265.833 274.667,263.167 275,260.5C 275.71,259.027 276.876,258.36 278.5,258.5C 277.221,265.453 276.221,272.453 275.5,279.5C 274.167,279.5 272.833,279.5 271.5,279.5C 270.826,272.104 269.826,264.77 268.5,257.5 Z"/></g>
<g><path style="opacity:1" fill="#4f4e52" d="M 87.5,257.5 C 88.8221,257.33 89.9887,257.663 91,258.5C 92.6385,271.542 93.8051,271.208 94.5,257.5C 95.5,257.5 96.5,257.5 97.5,257.5C 96.5548,267.557 95.2215,277.557 93.5,287.5C 92.1667,287.5 90.8333,287.5 89.5,287.5C 89.9823,284.698 90.3157,281.865 90.5,279C 89.8246,271.773 88.8246,264.606 87.5,257.5 Z"/></g>
<g><path style="opacity:1" fill="#050509" d="M 226.5,270.5 C 227.5,270.5 228.5,270.5 229.5,270.5C 229.5,272.167 229.5,273.833 229.5,275.5C 228.5,275.5 227.5,275.5 226.5,275.5C 226.5,273.833 226.5,272.167 226.5,270.5 Z"/></g>
<g><path style="opacity:1" fill="#0b0a0e" d="M 4.5,265.5 C 5.83333,265.5 7.16667,265.5 8.5,265.5C 8.5,268.5 8.5,271.5 8.5,274.5C 7.16667,274.5 5.83333,274.5 4.5,274.5C 4.5,271.5 4.5,268.5 4.5,265.5 Z"/></g>
<g><path style="opacity:1" fill="#4c4c4e" d="M 139.5,257.5 C 140.833,257.5 142.167,257.5 143.5,257.5C 143.171,263.206 143.505,268.872 144.5,274.5C 145.329,269.198 145.829,263.864 146,258.5C 147.011,257.663 148.178,257.33 149.5,257.5C 149.5,264.833 149.5,272.167 149.5,279.5C 146.973,278.483 144.473,278.483 142,279.5C 141.055,279.095 140.388,278.428 140,277.5C 139.5,270.842 139.334,264.175 139.5,257.5 Z"/></g>
<g><path style="opacity:1" fill="#525254" d="M 260.5,279.5 C 257.723,279.214 254.889,278.88 252,278.5C 251.501,274.514 251.334,270.514 251.5,266.5C 253.5,266.5 255.5,266.5 257.5,266.5C 258.314,264.369 258.814,262.036 259,259.5C 259.333,259.833 259.667,260.167 260,260.5C 260.5,266.825 260.666,273.158 260.5,279.5 Z"/></g>
<g><path style="opacity:1" fill="#0e0e10" d="M 254.5,270.5 C 255.5,270.5 256.5,270.5 257.5,270.5C 257.5,272.167 257.5,273.833 257.5,275.5C 256.5,275.5 255.5,275.5 254.5,275.5C 254.5,273.833 254.5,272.167 254.5,270.5 Z"/></g>
<g><path style="opacity:1" fill="#4f4f51" d="M 162.5,257.5 C 163.833,257.5 165.167,257.5 166.5,257.5C 166.858,261.509 167.358,265.509 168,269.5C 168.42,265.809 168.92,262.142 169.5,258.5C 170.5,258.5 171.5,258.5 172.5,258.5C 171.718,265.52 170.718,272.52 169.5,279.5C 167.876,279.64 166.71,278.973 166,277.5C 164.766,270.833 163.6,264.166 162.5,257.5 Z"/></g>
<g><path style="opacity:1" fill="#535256" d="M 54.5,257.5 C 55.5,257.5 56.5,257.5 57.5,257.5C 57.5,264.833 57.5,272.167 57.5,279.5C 54.5525,279.777 51.7191,279.444 49,278.5C 48.5004,271.842 48.3337,265.175 48.5,258.5C 49.5,258.5 50.5,258.5 51.5,258.5C 51.5,264.167 51.5,269.833 51.5,275.5C 52.5,275.5 53.5,275.5 54.5,275.5C 54.5,269.5 54.5,263.5 54.5,257.5 Z"/></g>
<g><path style="opacity:1" fill="#515153" d="M 117.5,257.5 C 118.822,257.33 119.989,257.663 121,258.5C 121.5,265.492 121.666,272.492 121.5,279.5C 118.334,278.866 115.168,278.532 112,278.5C 111.5,271.842 111.334,265.175 111.5,258.5C 112.5,258.5 113.5,258.5 114.5,258.5C 114.5,264.167 114.5,269.833 114.5,275.5C 115.5,275.5 116.5,275.5 117.5,275.5C 117.5,269.5 117.5,263.5 117.5,257.5 Z"/></g>
<g><path style="opacity:1" fill="#525253" d="M 25.5,258.5 C 28.5,258.5 31.5,258.5 34.5,258.5C 34.5,260.833 34.5,263.167 34.5,265.5C 33.5,265.5 32.5,265.5 31.5,265.5C 31.5,264.167 31.5,262.833 31.5,261.5C 30.5,261.5 29.5,261.5 28.5,261.5C 28.5,266.167 28.5,270.833 28.5,275.5C 29.5,275.5 30.5,275.5 31.5,275.5C 31.5,274.167 31.5,272.833 31.5,271.5C 32.8221,271.33 33.9887,271.663 35,272.5C 35.6869,274.568 35.5202,276.568 34.5,278.5C 31.6281,279.783 28.7947,279.783 26,278.5C 25.5004,271.842 25.3337,265.175 25.5,258.5 Z"/></g>
<g><path style="opacity:1" fill="#535356" d="M 37.5,258.5 C 40.5,258.5 43.5,258.5 46.5,258.5C 46.5,265.5 46.5,272.5 46.5,279.5C 43.2234,279.784 40.0567,279.451 37,278.5C 36.3333,274.833 36.3333,271.167 37,267.5C 38.6995,266.594 40.5328,266.261 42.5,266.5C 42.5,265.167 42.5,263.833 42.5,262.5C 40.857,262.48 39.5237,263.147 38.5,264.5C 37.5344,262.604 37.2011,260.604 37.5,258.5 Z"/></g>
<g><path style="opacity:1" fill="#27272a" d="M 39.5,269.5 C 40.8333,269.5 42.1667,269.5 43.5,269.5C 43.5,271.5 43.5,273.5 43.5,275.5C 42.1667,275.5 40.8333,275.5 39.5,275.5C 39.5,273.5 39.5,271.5 39.5,269.5 Z"/></g>
<g><path style="opacity:1" fill="#404042" d="M 155.5,262.5 C 156.167,279.833 156.833,279.833 157.5,262.5C 158.325,266.647 158.825,270.981 159,275.5C 159.278,276.416 159.778,277.082 160.5,277.5C 159.365,279.213 157.698,279.88 155.5,279.5C 155.5,282.167 155.5,284.833 155.5,287.5C 153.901,287.768 152.568,287.434 151.5,286.5C 152.5,286.5 153.5,286.5 154.5,286.5C 154.768,283.881 154.435,281.381 153.5,279C 155.256,278.798 156.922,278.298 158.5,277.5C 156.587,276.949 154.587,276.782 152.5,277C 154.016,272.197 155.016,267.363 155.5,262.5 Z"/></g>
<g><path style="opacity:1" fill="#010103" d="M 155.5,262.5 C 156.167,262.5 156.833,262.5 157.5,262.5C 156.833,279.833 156.167,279.833 155.5,262.5 Z"/></g>
<g><path style="opacity:1" fill="#535355" d="M 175.5,257.5 C 178.119,257.232 180.619,257.565 183,258.5C 183.5,265.492 183.666,272.492 183.5,279.5C 180.5,279.5 177.5,279.5 174.5,279.5C 174.203,272.08 174.536,264.746 175.5,257.5 Z"/></g>
<g><path style="opacity:1" fill="#040306" d="M 177.5,262.5 C 178.5,262.5 179.5,262.5 180.5,262.5C 180.5,266.833 180.5,271.167 180.5,275.5C 179.5,275.5 178.5,275.5 177.5,275.5C 177.5,271.167 177.5,266.833 177.5,262.5 Z"/></g>
</svg>
