<?xml version="1.0"?><svg xmlns="http://www.w3.org/2000/svg" width="36" height="36" shape-rendering="geometricPrecision" text-rendering="geometricPrecision" image-rendering="optimizeQuality" fill-rule="evenodd" clip-rule="evenodd" viewBox="0 0 36 36"><path fill="#010102" d="m-0.1-0.1h36v36h-36v-36z"></path><path fill="#5f568d" d="m18.3 7.1h-0.1c-0.2-0.2-0.5-0.5-0.7-0.7-0.2-0.9-0.6-1.7-1.3-2.3-0.1 0.1-0.3 0.2-0.4 0.2 0.1-0.2 0.2-0.4 0.3-0.6 0.1-0.2 0.2-0.2 0.3 0 0.6 1.1 1.3 2.3 1.9 3.4z"></path><path fill="#60528f" d="m15.7 4.4c0 0.2 0 0.3-0.1 0.5-0.3 0.5-0.6 1.1-0.8 1.7-0.1 0.2-0.2 0.2-0.5 0.2 0.4-0.8 0.9-1.6 1.4-2.4z"></path><path fill="#625ba7" d="m17.5 6.4c0.2 0.2 0.5 0.5 0.7 0.7 0 0.4-0.1 0.7-0.3 1.1 0.1 0.3 0.2 0.6 0.3 0.9-0.1 0.4-0.2 0.8-0.3 1.2-0.1 0.3-0.3 0.7-0.4 1.1-0.1 0-0.2-0.1-0.2-0.1-0.2-0.1-0.3-0.3-0.3-0.6h-0.3c-0.1 0-0.2-0.2-0.3-0.3-0.1-0.2-0.2-0.2-0.3-0.1-0.2 0.1-0.3 0.2-0.3 0.4-0.5 0.9-1 1.8-1.5 2.6-0.2 0.1-0.3 0.2-0.5 0.3 0-0.3 0.1-0.5 0.2-0.8-0.3-0.1-0.3-0.1 0-0.2-0.1-0.1-0.2-0.1-0.3-0.1-0.2-0.6 0-1.1 0.6-1.4 0.2 0.2 0.3 0.4 0.3 0.7 0.3 0.1 0.4 0 0.4-0.3 0-0.2-0.1-0.4-0.3-0.6 0.1-0.1 0.3-0.2 0.4-0.2 0.2-0.3 0.4-0.7 0.7-0.9 0.2 0 0.5 0 0.7 0v-0.6c-0.2 0-0.3 0-0.4-0.1 0.2-0.7 0.3-1.3 0.4-2 0.1-0.7 0.3-0.7 0.5-0.1 0.2 0.2 0.4 0.2 0.6 0.1 0-0.2-0.1-0.5-0.1-0.7z"></path><path fill="#5b4e7e" d="m14.1 7.1c0 0.4-0.1 0.8-0.2 1.2-0.3 0.2-0.6 0.4-0.8 0.6 0.3-0.6 0.6-1.2 1-1.8z"></path><path fill="#6756a6" d="m17.5 6.4c0 0.2 0.1 0.5 0.1 0.7-0.2 0.1-0.4 0.1-0.6-0.1-0.2-0.6-0.4-0.6-0.5 0.1-0.1 0.7-0.2 1.3-0.4 2 0.1 0.1 0.2 0.1 0.4 0.1v0.6c-0.2 0-0.5 0-0.7 0-0.3 0.2-0.5 0.6-0.7 0.9-0.1 0-0.3 0.1-0.4 0.2 0.2 0.2 0.3 0.4 0.3 0.6 0 0.3-0.1 0.4-0.4 0.3 0-0.3-0.1-0.5-0.3-0.7-0.6 0.3-0.8 0.8-0.6 1.4 0.1 0 0.2 0 0.3 0.1-0.3 0.1-0.3 0.1 0 0.2-0.1 0.3-0.2 0.5-0.2 0.8-0.5 0.8-0.9 1.6-1.1 2.5-0.5 0.8-0.9 1.5-1.3 2.3-0.1 0-0.1 0.1-0.1 0.2-0.1 0.1-0.1 0.2-0.1 0.4 0 0 0 0.1 0.1 0.1l2.1 0.1c-0.6 0.1-1.2 0.3-1.7 0.5-0.3-0.1-0.6-0.3-1-0.3v0.3c0.7 0 0.7 0.2 0.1 0.6-0.1 0.4-0.1 0.8-0.1 1.2-0.2 0-0.4 0-0.6 0.1 0.1 0.1 0.2 0.2 0.3 0.2 0.8 0.1 1.6 0 2.3 0 0.2 0 0.4 0.1 0.5 0.2-0.4 0.1-0.8 0.1-1.2 0.2-1.5 0-3 0-4.5 0 0.8-0.1 1.6-0.1 2.5-0.1-0.2-0.2-0.3-0.2-0.5-0.3 0.3 0 0.3-0.1 0.1-0.3-0.1-0.6-0.1-1.2-0.1-1.8h0.3c0 2.4 0.1 2.4 0.3 0h0.4v-1.8h0.6c0-0.4-0.1-0.7-0.4-1.1 0.1-0.2 0.1-0.4 0.3-0.5-0.2-0.2-0.4-0.2-0.6-0.2 0.1-0.3 0.2-0.6 0.3-0.9l0-0.3c-0.2 0.5-0.5 0.9-0.9 1.2h-0.3v-0.4c0.4-0.6 0.8-1.2 1.2-1.9 0-0.2 0.1-0.5 0-0.7l0.3-0.6 0.2-0.2c0.6-0.6 1.1-1.4 1.3-2.3 0.2-0.4 0.4-0.7 0.6-1.1 0.2-0.2 0.5-0.4 0.8-0.6 0.1-0.4 0.2-0.8 0.2-1.2 0.2 0 0.3-0.1 0.2-0.3 0.3 0 0.4 0 0.5-0.2 0.2-0.6 0.5-1.2 0.8-1.7 0.1-0.2 0.1-0.3 0.1-0.5 0 0 0-0.1 0.1-0.1 0.1 0 0.3-0.1 0.4-0.2 0.7 0.6 1.1 1.4 1.3 2.3z"></path><path fill="#5960ac" d="m18.2 7.1h0.1c0.4 0.6 0.7 1.2 1 1.8 0 0.4 0 0.7 0.1 0.9 0.4 0.3 0.7 0.6 0.9 0.9 0 0.2 0 0.4 0.1 0.6 0.7 0.6 0.8 1.3 0.3 2.1l-0.1-0.1c-0.4 0.4-0.8 0.7-1.1 1.2 0.3 0.2 0.3 0.5 0.1 0.9-0.2-0.3-0.4-0.6-0.5-0.9 0.2-0.4 0.4-0.8 0.5-1.2 0.6 0.1 0.9-0.1 0.9-0.7 0.1-0.2 0-0.4-0.2-0.5-0.1 0.2-0.1 0.5-0.2 0.8-0.2 0.4-0.4 0.4-0.8 0 0-0.1 0-0.2 0-0.4h-0.6c0 0.2 0 0.3 0.1 0.4 0.5 0.2 0.6 0.6 0.2 1-0.4-0.2-0.6-0.5-0.6-1-0.2-0.2-0.4-0.3-0.7-0.4-0.1 0-0.1-0.1-0.1-0.2 0-0.3-0.2-0.7-0.3-1 0 0 0.1 0.1 0.2 0.1 0.1-0.4 0.3-0.8 0.4-1.1 0.1-0.4 0.2-0.8 0.3-1.2-0.1-0.3-0.2-0.6-0.3-0.9 0.2-0.4 0.3-0.7 0.3-1.1z"></path><path fill="#5a5e94" d="m19.3 8.9c0.4 0.6 0.8 1.2 1 1.8-0.2-0.3-0.5-0.6-0.9-0.9-0.1-0.2-0.1-0.5-0.1-0.9z"></path><path fill="#211f47" d="m16.1 10.3v0.4h-0.3c0-0.2 0.1-0.3 0.3-0.4z"></path><path fill="#06051b" d="m20.4 10.7h0.4c0.3 0.6 0.5 1.2 0.7 1.8-0.4-0.5-0.8-1.1-1.1-1.8z"></path><path fill="#5c5b8d" d="m16.7 10.7h0.3c0 0.3 0.1 0.5 0.3 0.6 0.1 0.3 0.3 0.7 0.3 1-0.4-0.4-0.7-1-0.9-1.6z"></path><path fill="#080616" d="m16.4 10.4c0.1 0.1 0.2 0.3 0.3 0.3 0.2 0.6 0.5 1.2 0.9 1.6 0 0.1 0 0.2 0.1 0.2l0.1 0.5c-0.1-0.1-0.2-0.1-0.2 0-0.3-0.6-0.7-1.1-1.1-1.5 0-0.1 0.1-0.1 0.1-0.2-0.2-0.3-0.2-0.6-0.2-0.9z"></path><path fill="#63568a" d="m12.5 10c-0.2 0.9-0.7 1.7-1.3 2.3 0.4-0.8 0.9-1.6 1.3-2.3z"></path><path fill="#5163a8" d="m20.3 10.7h0.1c0.3 0.7 0.7 1.3 1.1 1.8 0.2 0.5 0.4 0.9 0.6 1.3-0.1-0.1-0.2-0.1-0.3-0.1 0-0.3-0.2-0.4-0.4-0.4-0.3 0.1-0.5 0.3-0.7 0.5l-0.1-0.2c-0.1 0.1-0.2 0.2-0.2 0.4-0.1 0.8-0.1 1.7 0 2.5 0.2 0.4 0.5 0.7 0.9 0.9 0 0.3 0 0.6 0.1 0.9 0.2 0.3 0.2 0.5-0.1 0.7 0-0.2 0-0.2-0.1-0.3-0.4-0.9-0.9-1.7-1.5-2.6-0.5-1-1.1-2-1.8-3 0-0.1 0-0.1-0.1-0.1l-0.1-0.5c0.3 0.1 0.5 0.2 0.7 0.4 0 0.5 0.2 0.8 0.6 1 0.4-0.4 0.3-0.8-0.2-1-0.1-0.1-0.1-0.2-0.1-0.4h0.6c0 0.2 0 0.3 0 0.4 0.4 0.4 0.6 0.4 0.8 0 0.1-0.3 0.1-0.6 0.2-0.8 0.2 0.1 0.3 0.3 0.2 0.5 0 0.6-0.3 0.8-0.9 0.7-0.1 0.4-0.3 0.8-0.5 1.2 0.1 0.3 0.3 0.6 0.5 0.9 0.2-0.4 0.2-0.7-0.1-0.9 0.3-0.5 0.7-0.8 1.1-1.2l0.1 0.1c0.5-0.8 0.4-1.5-0.3-2.1-0.1-0.2-0.1-0.4-0.1-0.6z"></path><path fill="#4b67b3" d="m21.8 13.7c-0.1 0.2-0.2 0.5-0.3 0.8 0.2 0.5 0.5 1.1 0.8 1.5-0.1 0.7-0.1 1.3-0.1 1.9h-0.7c0.1 0.2 0 0.3-0.1 0.4-0.1-0.3-0.1-0.6-0.1-0.9-0.4-0.2-0.7-0.5-0.9-0.9-0.1-0.8-0.1-1.7 0-2.5 0-0.2 0.1-0.3 0.2-0.4l0.1 0.2c0.2-0.2 0.4-0.4 0.7-0.5 0.2 0 0.4 0.1 0.4 0.4z"></path><path fill="#080213" d="m11 12.5l-0.3 0.6c-0.5 0.8-1 1.7-1.5 2.5 0.4-1 0.8-1.9 1.3-2.8 0-0.1 0-0.2-0.1-0.2 0.2-0.1 0.4-0.1 0.6-0.1z"></path><path fill="#5e558c" d="m14.3 13.3c-0.5 1-1.1 1.9-1.6 2.8 0.2-0.9 0.6-1.7 1.1-2.5 0.2-0.1 0.3-0.2 0.5-0.3z"></path><path fill="#0e0f23" d="m17.9 13.1c0.7 1 1.3 2 1.8 3-0.9-0.8-1.5-1.8-1.8-3z"></path><path fill="#5d4e81" d="m10.7 13.1c0.1 0.2 0 0.5 0 0.7-0.4 0.7-0.8 1.3-1.2 1.9-0.2 0.1-0.2 0.2-0.2 0.4h-0.4c0.1-0.2 0.2-0.3 0.3-0.5 0.5-0.8 1-1.7 1.5-2.5z"></path><path fill="#6955a4" d="m7.5 22.2c-0.3 0-0.6 0-0.9 0.1-0.7 0.2-1-0.1-0.7-0.8 0.3-0.2 0.5-0.4 0.7-0.7 0.2-0.5 0.4-0.9 0.5-1.4 0.2-0.4 0.4-0.8 0.7-1.1 0.4-0.5 0.7-0.9 1-1.4 0.1-0.2 0.2-0.4 0.1-0.6v-0.2h0.4c0-0.2 0-0.3 0.2-0.4v0.4h0.3c0.4-0.3 0.7-0.7 0.9-1.2l0 0.3c-0.1 0.3-0.2 0.6-0.3 0.9 0.2 0 0.4 0 0.6 0.2-0.2 0.1-0.2 0.3-0.3 0.5 0.3 0.4 0.4 0.7 0.4 1.1h-0.6v1.8h-0.4c-0.2 2.4-0.3 2.4-0.3 0h-0.3c0 0.6 0 1.2 0.1 1.8 0.2 0.2 0.2 0.3-0.1 0.3 0.2 0.1 0.3 0.1 0.5 0.2-0.9 0.1-1.7 0.1-2.5 0.2z"></path><path fill="#436ab3" d="m21.8 13.7c0.1 0 0.2 0 0.3 0.1 0.7 1 1.3 2.1 1.8 3.1 0 0.2 0 0.4 0 0.6-0.3 0.2-0.5 0.5-0.6 0.8 0.2 0.6 0.4 1.1 0.6 1.7-0.1 0.3-0.2 0.6-0.5 0.9-0.1 0.2-0.1 0.4-0.1 0.6h-2.7c0-0.4 0-0.9-0.2-1.3 0-0.3 0.1-0.6 0.2-0.8-0.3-0.3-0.6-0.2-0.8 0.2-0.1-0.1-0.1-0.2-0.1-0.3-0.6-0.1-1.2-0.1-1.8-0.1l3.3-0.2h0.1c0.3-0.2 0.3-0.4 0.1-0.7 0.1-0.1 0.2-0.2 0.1-0.4h0.7c0-0.6 0-1.2 0.1-1.9-0.3-0.4-0.6-1-0.8-1.5 0.1-0.3 0.2-0.6 0.3-0.8z"></path><path fill="#5d4c85" d="m8.9 16.3c0.1 0.2 0 0.4-0.1 0.6-0.3 0.5-0.6 0.9-1 1.4 0.3-0.8 0.7-1.4 1.1-2z"></path><path fill="#030b23" d="m24.6 17.9c0.1 0 0.2 0.1 0.3 0.2 0.1 0.2 0.2 0.5 0.2 0.7-0.2-0.2-0.4-0.5-0.5-0.9z"></path><path fill="#0c0d1c" d="m19.7 16.1c0.6 0.9 1.1 1.7 1.5 2.6l-3.4 0.3v3.4c-0.1-1.1-0.1-2.3-0.1-3.4 0-0.2 0-0.2 0.1-0.3 1-0.1 2-0.1 3-0.1 0-0.1 0-0.3-0.1-0.4-0.3-0.5-0.6-0.9-0.9-1.4-0.1-0.2-0.1-0.4-0.1-0.7z"></path><path fill="#222e53" d="m21.2 18.7c0.1 0.1 0.1 0.1 0.1 0.3h-3.5l3.4-0.3z"></path><path fill="#605da8" d="m11.2 19h3.4v3c-0.1 0-0.2 0.1-0.3 0.2-2.5 0.1-5.1 0.2-7.7 0.1 0.3-0.1 0.6-0.1 0.9-0.1 1.5 0 3 0 4.5 0 0.4-0.1 0.8-0.1 1.2-0.2-0.1-0.1-0.3-0.2-0.5-0.2-0.7 0-1.5 0.1-2.3 0-0.1 0-0.2-0.1-0.3-0.2 0.2-0.1 0.4-0.1 0.6-0.1 0-0.4 0-0.8 0.1-1.2 0.6-0.4 0.6-0.6-0.1-0.6v-0.3c0.4 0 0.7 0.2 1 0.3 0.5-0.2 1.1-0.4 1.7-0.5l-2.1-0.1c-0.1 0-0.1-0.1-0.1-0.1z"></path><path fill="#55608c" d="m17.8 19h3.4l-3.3 0.2v3.2h-0.1v-3.4z"></path><path fill="#4868b4" d="m17.9 19.2c0.6 0 1.2 0 1.8 0.1 0 0.1 0 0.2 0.1 0.3 0.2-0.4 0.5-0.5 0.8-0.2-0.1 0.2-0.2 0.5-0.2 0.8 0.2 0.4 0.2 0.9 0.2 1.3h0.9c0.3 0.2 0.5 0.2 0.8 0.2l1 0.2c-1.8 0-3.6-0.1-5.4-0.1v-2.6z"></path><path fill="#346fb5" d="m23.9 16.9c0.2 0.3 0.3 0.5 0.5 0.8-0.1 0.7 0.1 1.2 0.7 1.6 0.1 0.3 0.2 0.7 0.3 1 0 0.5-0.1 0.9-0.3 1.4h-2.8c-0.3 0-0.5 0-0.8-0.2h1.8c0-0.2 0-0.4 0.1-0.6 0.3-0.3 0.4-0.6 0.5-0.9-0.2-0.6-0.4-1.1-0.6-1.7 0.1-0.3 0.3-0.6 0.5-0.8 0.1-0.2 0.1-0.4 0.1-0.6z"></path><path fill="#0a0413" d="m6.8 19.7l-0.9 1.8c-0.2 0.3-0.4 0.5-0.6 0.8 0.2-0.4 0.3-0.9 0.4-1.4l0.1 0.1c0.4-0.4 0.6-0.8 0.7-1.3 0.1-0.1 0.2-0.1 0.3 0z"></path><path fill="#2272bf" d="m25.4 20.3c0.4 0.2 0.6 0.5 0.6 0.9 0.4 0.3 0.6 0.6 0.6 1.1-1.1 0-2.2 0-3.3 0l-1.8-0.2c1.2 0 2.4 0 3.6-0.1-0.6-0.1-1.2-0.2-1.8-0.1l-1-0.2h2.8c0.2-0.5 0.3-0.9 0.3-1.4z"></path><path fill="#635186" d="m7.1 19.4c-0.1 0.5-0.3 0.9-0.5 1.4-0.2 0.3-0.4 0.5-0.7 0.7l0.9-1.8c0.1-0.1 0.2-0.2 0.3-0.3z"></path><path fill="#32335e" d="m11.3 18.6c1.1 0.2 2.2 0.3 3.4 0.2 0 1.3 0 2.5-0.1 3.6v-3.4h-3.4c0-0.2 0-0.3 0.1-0.4z"></path><path fill="#3d6daf" d="m17.9 21.8c1.8 0 3.6 0.1 5.4 0.1 0.6-0.1 1.2 0 1.8 0.1-1.2 0.1-2.4 0.1-3.6 0.1l-3.6-0.1v-0.2z"></path><path fill="#4767bd" d="m17.9 22l3.6 0.1 1.8 0.2h-5.4v-0.3z"></path><path fill="#5c5586" d="m5.9 21.5c-0.3 0.7 0 1 0.7 0.8 2.6 0.1 5.2 0 7.7-0.1 0.1-0.1 0.2-0.2 0.3-0.2v0.4h-9c-0.1 0.1-0.2 0-0.3-0.1 0.2-0.3 0.4-0.5 0.6-0.8z"></path><path fill="#3167a1" d="m24.4 17.7l0.2 0.2c0.1 0.4 0.3 0.7 0.5 0.9 0.7 1.2 1.3 2.4 1.8 3.6h-9v-0.1h5.4c1.1 0 2.2 0 3.3 0 0-0.5-0.2-0.8-0.6-1.1 0-0.4-0.2-0.7-0.6-0.9-0.1-0.3-0.2-0.7-0.3-1-0.6-0.4-0.8-0.9-0.7-1.6z"></path><path fill="#040215" d="m11.4 18.4v0.3c1 0 2-0.1 3-0.2 0.2 0.1 0.3 0.2 0.5 0.3 0 1.3-0.1 2.6-0.2 3.9-2.3 0-4.5 0-6.8 0l-1.8 0c0 0.1-0.1 0.2-0.2 0.2-0.2-0.1-0.3-0.3-0.3-0.5h9c0.1-1.1 0.1-2.3 0.1-3.6-1.2 0.1-2.3 0-3.4-0.2 0-0.1 0-0.2 0.1-0.2z"></path><path fill="#797a7e" d="m8.6 23.2h-0.9v3c-0.1-1-0.1-2-0.1-3.1 0.4 0 0.7 0 1 0.1z"></path><path fill="#78787c" d="m10.3 26.3v-3.1h-0.6c0.1 1 0 1.9-0.1 2.8v-2.9h0.8c0 1.1 0 2.1-0.1 3.2z"></path><path fill="#88888c" d="m12.8 23.2h-1.9v3.9h0.7c0-0.5 0-1 0.2-1.4v1.5h-1.1v-4.1c0.7 0 1.4 0 2.1 0.1z"></path><path fill="#7a797a" d="m24.8 23.2h-2.1v3.9h2.1v-0.6c-0.4 0-0.8 0-1.2-0.1h1.3v0.8h-2.3v-4.1c0.7 0 1.5 0 2.2 0.1z"></path><path fill="#a4a4a8" d="m24.8 23.2v0.7h-1.2v0.8h1v0.8h-1v0.9c0.4 0.1 0.8 0.1 1.2 0.1v0.6h-2.1v-3.9h2.1z"></path><path fill="#0a0c15" d="m17.7 19c0 1.1 0 2.3 0.1 3.4h9.1c-2.9 0.2-5.9 0.2-9 0.2v0.3c3-0.1 6-0.1 9 0-0.3 0.1-0.6 0.1-1 0.2 0.4 0.2 0.3 0.3-0.1 0.2-0.2 0-0.3-0.1-0.4-0.2-1.9-0.1-3.8-0.1-5.7 0-0.1 0.2-0.1 0.5 0 0.7v0.1c0.2 0.1 0.3 0.2 0.5 0.2-0.2 0-0.3 0-0.5 0 0 0.5-0.1 1-0.2 1.5 0.1-0.7 0-1.4-0.3-2-0.3-0.4-0.8-0.6-1.4-0.6 0-0.1-0.1-0.1-0.2-0.2 0.1 0 0.1-0.1 0.1-0.1-0.2-0.2-0.3-0.5-0.3-0.8 0.2-0.8 0.3-1.6 0.1-2.4 0-0.2 0.1-0.4 0.2-0.5z"></path><path fill="#a5a5a9" d="m12.8 23.2c0.4 0.1 0.6 0.3 0.7 0.7 0.2 1.3-0.4 1.9-1.7 1.8-0.2 0.4-0.2 0.9-0.2 1.4h-0.7v-3.9h1.9z"></path><path fill="#838488" d="m16.9 23.6c0 0.4-0.1 0.9-0.1 1.3l-0.1-0.3c-0.1 0.4-0.1 0.8-0.1 1.2-0.1-0.4-0.2-0.9-0.1-1.3 0.1-0.4 0.2-0.7 0.4-0.9z"></path><path fill="#717375" d="m19.7 23.1h2.6v0.8h-0.8v3.3h-1v-0.1h0.9v-3.3h0.8v-0.6h-2.5v0.6c-0.1-0.2-0.1-0.5 0-0.7z"></path><path fill="#a5a5a9" d="m17.8 23c0.6 0 1.1 0.2 1.4 0.6 0.3 0.6 0.4 1.3 0.3 2-0.1 1.4-0.8 1.9-2.1 1.6-0.6-0.3-0.8-0.8-0.8-1.4 0-0.4 0-0.8 0-1.2l0.2 0.3c0-0.4 0.1-0.9 0.1-1.3 0.2-0.4 0.5-0.6 0.9-0.6z"></path><path fill="#464749" d="m19.7 23.9v-0.1h0.8v3.4c-0.1-1.1-0.1-2.2-0.1-3.3h-0.7z"></path><path fill="#a7a8ad" d="m20.5 27.1v-3.3h-0.8v-0.6h2.5v0.6h-0.8v3.3h-0.9z"></path><path fill="#0a0b0d" d="m11.8 23.9c0.7-0.1 0.9 0.2 0.6 0.9-0.2 0.1-0.4 0.2-0.6 0.1v-1z"></path><path fill="#a3a3a7" d="m13.7 23.1h1.1c0 0.5 0.2 0.9 0.4 1.3 0.1-0.4 0.2-0.8 0.4-1.2 0.2-0.1 0.5-0.1 0.8 0-0.5 1.3-0.9 2.7-1.4 4-0.5-1.4-0.9-2.7-1.3-4.1z"></path><path fill="#101013" d="m17.7 23.8c0.4-0.1 0.7 0.1 0.9 0.4 0 0.6 0 1.2 0 1.8-0.5 0.7-0.9 0.6-1-0.2-0.2-0.7-0.1-1.4 0.1-2z"></path><path fill="#a4a5a9" d="m8.6 23.2c0 1.1 0 2.1 0.1 3.2 0.4 0 0.7-0.1 0.9-0.4 0.1-0.9 0.2-1.8 0.1-2.8h0.6v3.1c0 0.2-0.1 0.4-0.2 0.6-0.6 0.4-1.3 0.5-1.9 0.2-0.3-0.3-0.5-0.6-0.5-0.9v-3h0.9z"></path><path fill="#504f52" d="m24.1 27.7v1.5c0.2 0 0.3 0 0.4-0.1h0.4v2.3h-0.4c0-0.6 0-1.2-0.1-1.9-0.1 0.1-0.2 0.1-0.2 0.1-0.1 0.6-0.1 1.2-0.1 1.8h-0.3v-3.7h0.3z"></path><path fill="#2d2d2f" d="m24.1 27.7c0.1 0.5 0.2 1 0.4 1.4-0.1 0.1-0.2 0.1-0.4 0.1v-1.5z"></path><path fill="#525254" d="m26.4 29.1h1v0.8h-0.3v-0.4c-0.2 0-0.3 0-0.4 0.1 0.2 0.3 0.4 0.5 0.6 0.7 0.1 0.4 0.1 0.8 0.1 1.1-0.3 0.1-0.6 0-0.9 0-0.1-0.2-0.1-0.5-0.1-0.7h0.3v0.3h0.4c-0.1-0.4-0.3-0.7-0.7-0.9 0-0.3 0-0.7 0-1z"></path><path fill="#4c4c4d" d="m32.8 27.7h0.4v3.7h-0.4v-3.7z"></path><path fill="#515153" d="m8.2 29c0.3-0.1 0.5 0 0.8 0.1 0.1 0.4 0.1 0.8 0 1.2-0.2 0.1-0.4 0.2-0.6 0.1v0.6h0.3v-0.3h0.4c0 0.2-0.1 0.5-0.2 0.7-0.3 0-0.6 0.1-0.9 0 0-0.8 0-1.6 0.2-2.4z"></path><path fill="#515154" d="m25.3 29c0.3-0.1 0.5 0 0.8 0.1 0.1 0.8 0.1 1.6 0.1 2.3h-1.1v-1.4h0.7v-0.5l-0.7 0.3c0-0.3 0.1-0.6 0.2-0.8z"></path><path fill="#505053" d="m0.1 27.7c0.3 0 0.7 0 1.1 0.1 0.2 0.6 0.1 1.2-0.1 1.7 0 0.1 0.1 0.2 0.1 0.3 0.1 0.5 0.1 1 0 1.5-0.3 0.1-0.7 0.2-1.1 0.1v-3.7z"></path><path fill="#0e0e11" d="m0.5 28.2h0.5c0 0.3 0 0.6-0.1 0.9-0.1 0.1-0.2 0.1-0.4 0.1v-1z"></path><path fill="#3d3d3f" d="m29.3 31.4c0-0.7 0-1.4 0-2.1l-0.2-0.1c0 0.3 0 0.5-0.1 0.8 0-0.5-0.1-0.5-0.4-0.2-0.1 0.1-0.2 0.1-0.3 0.1-0.2-0.8 0.1-1.1 0.9-0.9l0.2 0.2c0.1 0.8 0 1.5-0.1 2.2z"></path><path fill="#515153" d="m13.9 29c0.3 0 0.7 0.1 1 0.1v1h-0.4c0-0.2 0-0.4-0.1-0.6l-0.1 0.1c-0.1 0.6-0.1 1.2-0.1 1.8h-0.3v-2.4z m4.2 2.2c-0.1 0-0.2-0.1-0.2-0.2 0-0.5-0.1-1-0.2-1.5h-0.2c-0.1 0.6-0.2 1.1-0.3 1.7 0.2-0.1 0.4 0 0.6 0-0.1 0.1-0.3 0.2-0.5 0.2 0.1 0.3 0.1 0.5 0.1 0.8h-0.4v-3.2c0.4 0 0.8 0.1 1.2 0.1 0 0.7 0 1.4-0.1 2.1z"></path><path fill="#545456" d="m31.6 31.3c-0.1-0.3 0-0.6 0.1-0.9 0.1 0.2 0.1 0.4 0.1 0.6h0.4v-0.7c-0.2 0.1-0.4 0-0.5-0.1 0.2 0 0.4 0 0.6-0.2-0.1-0.2-0.1-0.4-0.1-0.6-0.1 0-0.2 0-0.3 0.1-0.1 0.1-0.2 0.2-0.2 0.3-0.1-0.3-0.2-0.6-0.1-0.8 0.3-0.1 0.6 0 0.9 0.1 0.1 0.8 0.1 1.6 0.1 2.3-0.4-0.1-0.7-0.1-1-0.1z"></path><path fill="#4f4f51" d="m11.2 29.1h1.1c0 0.7 0 1.5 0 2.2-0.4 0.2-0.7 0.2-1 0-0.1-0.7-0.1-1.5-0.1-2.2z"></path><path fill="#000002" d="m11.6 29.5c0.2 0.2 0.3 0.5 0.3 0.8l-0.1 0.7c-0.2-0.5-0.2-1-0.2-1.5z"></path><path fill="#505052" d="m21 28.4h0.4c0 0.3 0.1 0.6 0.3 0.9-0.2 0.3-0.2 0.6-0.3 1 0.1 0.4 0.2 0.8 0.3 1.1-0.3 0.1-0.5 0-0.7-0.1-0.1-0.9-0.1-1.9 0-2.9z m12.5 0.6h0.3v2h0.3v-2c0.2-0.1 0.3 0 0.4 0.1 0.1 0.8 0.1 1.6 0.1 2.3-0.4-0.1-0.7-0.1-1.1-0.1 0-0.8 0-1.5 0-2.3z m1.3 0.1c0.4 0 0.7 0 1 0.1 0 0.4 0 0.7 0 1.1h-0.6v0.7h0.3c0-0.1 0-0.3 0.1-0.3 0.1 0.2 0.2 0.5 0.1 0.7-0.3 0.1-0.6 0-0.9-0.1-0.1-0.7-0.1-1.5 0-2.2z"></path><path fill="#020204" d="m35.2 29.5c0.1 0 0.2 0.1 0.2 0.3l-0.1 0.2c-0.1-0.2-0.2-0.3-0.1-0.5z"></path><path fill="#07070a" d="m8.4 29.5h0.3v0.5h-0.3v-0.5z"></path><path fill="#38373a" d="m31.9 29.5c0.1-0.1 0.2-0.1 0.3-0.1 0 0.2 0 0.4 0.1 0.6-0.2 0.2-0.4 0.2-0.6 0.2 0.1 0.1 0.3 0.2 0.5 0.1v0.7h-0.4c0-0.2 0-0.4-0.1-0.6-0.1 0.3-0.2 0.6-0.1 0.9-0.2-0.4-0.2-0.8-0.1-1.2 0.2-0.1 0.4-0.1 0.6-0.1 0.1-0.2 0-0.4-0.2-0.5z"></path><path fill="#4f4f50" d="m1.6 29c1-0.1 1.3 0.3 1 1.2-0.2 0.2-0.4 0.3-0.6 0.2-0.1 0.2 0 0.4 0.1 0.6 0.1-0.1 0.1-0.2 0.1-0.3h0.4c0.1 0.2 0 0.5-0.1 0.7-0.3 0.1-0.6 0.1-0.9-0.1-0.1-0.8-0.1-1.5 0-2.3z"></path><path fill="#020204" d="m2 29.5c0.1 0 0.2 0.1 0.2 0.3l-0.1 0.2c-0.1-0.2-0.2-0.3-0.1-0.5z"></path><path fill="#555557" d="m21.9 29.1h1v1.2h-0.7v0.7h0.4v-0.3h0.3c0 0.2 0 0.5-0.1 0.7-0.3 0-0.6 0.1-0.9 0v-2.3z"></path><path fill="#1f1f21" d="m22.2 29.4h0.4v0.7h-0.4v-0.7z"></path><path fill="#4e4e51" d="m6.8 29.1h1v0.8h-0.4c0-0.2 0-0.3-0.1-0.4-0.2 0.2-0.2 0.3 0 0.5 0.1 0.1 0.3 0.2 0.5 0.3 0.3 1 0 1.3-1 1.1-0.1-0.2-0.1-0.5-0.1-0.7h0.4c0 0.1 0.1 0.2 0.2 0.3 0.1-0.1 0.1-0.3 0-0.5-0.6-0.3-0.8-0.8-0.5-1.4z"></path><path fill="#504f52" d="m30.2 29c0.2-0.1 0.3 0 0.4 0.1 0 0.4 0.1 0.7 0.2 1.1l0.1-0.9c0.1-0.2 0.2-0.2 0.4-0.2-0.1 0.8-0.2 1.6-0.3 2.3h-0.5c0-0.8-0.1-1.6-0.3-2.4z"></path><path fill="#4f4e52" d="m9.8 29c0.2-0.1 0.3 0 0.4 0.1 0.2 1.4 0.4 1.4 0.4-0.1h0.4c-0.1 1.1-0.3 2.2-0.5 3.3h-0.4c0-0.3 0.1-0.6 0.1-0.9-0.1-0.8-0.2-1.6-0.4-2.4z"></path><path fill="#050509" d="m25.5 30.4h0.3v0.6h-0.3v-0.6z"></path><path fill="#0b0a0e" d="m0.5 29.9h0.5v1h-0.5v-1z"></path><path fill="#4c4c4e" d="m15.7 29h0.4c0 0.6 0 1.2 0.2 1.9 0-0.6 0.1-1.2 0.1-1.8 0.1-0.1 0.3-0.2 0.4-0.1v2.4c-0.3-0.1-0.5-0.1-0.8 0-0.1 0-0.2-0.1-0.2-0.2-0.1-0.7-0.1-1.5-0.1-2.2z"></path><path fill="#525254" d="m29.3 31.4c-0.3 0-0.6 0-0.9-0.1-0.1-0.4-0.1-0.9-0.1-1.3h0.7c0.1-0.3 0.1-0.5 0.1-0.8l0.2 0.1c0 0.7 0 1.4 0 2.1z"></path><path fill="#0e0e10" d="m28.6 30.4h0.4v0.6h-0.4v-0.6z"></path><path fill="#4f4f51" d="m18.3 29h0.4c0.1 0.4 0.1 0.9 0.2 1.3 0-0.4 0.1-0.8 0.2-1.2h0.3c-0.1 0.8-0.2 1.6-0.3 2.3-0.2 0.1-0.3 0-0.4-0.2-0.2-0.7-0.3-1.5-0.4-2.2z"></path><path fill="#535256" d="m6.1 29h0.4v2.4c-0.4 0.1-0.7 0-1-0.1 0-0.7-0.1-1.5 0-2.2h0.3v1.9h0.3v-2z"></path><path fill="#515153" d="m13.2 29c0.2-0.1 0.3 0 0.4 0.1 0.1 0.8 0.1 1.6 0.1 2.3-0.4 0-0.7-0.1-1.1-0.1-0.1-0.7-0.1-1.5-0.1-2.2h0.4v1.9h0.3v-2z"></path><path fill="#525253" d="m2.9 29.1h1v0.8h-0.4v-0.5h-0.3v1.6h0.3v-0.5c0.2 0 0.3 0.1 0.4 0.2 0.1 0.2 0.1 0.4 0 0.6-0.3 0.2-0.7 0.2-1 0 0-0.7 0-1.5 0-2.2z"></path><path fill="#535356" d="m4.2 29.1h1v2.3c-0.3 0.1-0.7 0-1-0.1-0.1-0.4-0.1-0.8 0-1.2 0.2-0.1 0.4-0.1 0.6-0.1v-0.5c-0.2 0-0.4 0.1-0.5 0.3-0.1-0.3-0.1-0.5-0.1-0.7z"></path><path fill="#27272a" d="m4.4 30.3h0.5v0.7h-0.5v-0.7z"></path><path fill="#404042" d="m17.5 29.5c0.1 2 0.1 2 0.2 0 0.1 0.5 0.2 1 0.2 1.5 0 0.1 0.1 0.2 0.2 0.2-0.2 0.2-0.4 0.3-0.6 0.2v0.9c-0.2 0.1-0.3 0-0.5-0.1h0.4c0-0.3 0-0.5-0.1-0.8 0.2 0 0.4-0.1 0.5-0.2-0.2 0-0.4-0.1-0.6 0 0.1-0.6 0.2-1.1 0.3-1.7z"></path><path fill="#010103" d="m17.5 29.5h0.2c-0.1 2-0.1 2-0.2 0z"></path><path fill="#535355" d="m19.7 29c0.3-0.1 0.6 0 0.9 0.1 0 0.8 0.1 1.6 0 2.3h-1c0-0.8 0-1.6 0.1-2.4z"></path><path fill="#040306" d="m20 29.5h0.3v1.5h-0.3v-1.5z"></path></svg>