<svg xmlns="http://www.w3.org/2000/svg" version="1.1" width="100px" height="100px" style="shape-rendering:geometricPrecision; text-rendering:geometricPrecision; image-rendering:optimizeQuality; fill-rule:evenodd; clip-rule:evenodd" xmlns:xlink="http://www.w3.org/1999/xlink">
<g><path style="opacity:0.155" fill="#070403" d="M 20.5,16.5 C 36.5035,16.3334 52.5035,16.5001 68.5,17C 71.3998,21.5081 71.0665,25.6747 67.5,29.5C 66.1241,34.4619 64.4575,39.2952 62.5,44C 90.7403,34.8986 102.24,45.0652 97,74.5C 92.3104,80.9114 85.9771,83.2448 78,81.5C 70.1345,83.2595 63.9678,80.9261 59.5,74.5C 56.8975,77.2769 53.8975,79.4436 50.5,81C 39.8333,81.6667 29.1667,81.6667 18.5,81C 16.8767,78.9205 15.3767,76.7538 14,74.5C 12.7978,76.6775 12.2978,79.0108 12.5,81.5C 8.83333,81.5 5.16667,81.5 1.5,81.5C 1.33344,68.1625 1.5001,54.8292 2,41.5C 4.73722,40.3895 7.57055,40.2228 10.5,41C 12.0289,42.95 13.1956,45.1166 14,47.5C 16.1979,43.1367 19.6979,40.47 24.5,39.5C 23.8569,34.8751 22.0236,30.8751 19,27.5C 18.013,23.5252 18.513,19.8585 20.5,16.5 Z M 75.5,54.5 C 78.7935,54.259 81.7935,55.0924 84.5,57C 80.5,57.6667 76.5,57.6667 72.5,57C 73.9423,56.6232 74.9423,55.7899 75.5,54.5 Z M 25.5,56.5 C 26.6433,59.9758 26.8099,63.6425 26,67.5C 24.4445,65.5566 23.2779,63.3899 22.5,61C 23.3146,59.3566 24.3146,57.8566 25.5,56.5 Z M 38.5,54.5 C 43.9766,54.3114 47.9766,56.6447 50.5,61.5C 47.9944,66.4188 43.9944,68.7521 38.5,68.5C 38.5,63.8333 38.5,59.1667 38.5,54.5 Z"/></g>
<g><path style="opacity:1" fill="#976f40" d="M 25.5,18.5 C 31.6222,20.8648 31.9555,23.8648 26.5,27.5C 21.6341,24.9265 21.3008,21.9265 25.5,18.5 Z"/></g>
<g><path style="opacity:1" fill="#d8c37c" d="M 61.5,18.5 C 66.5054,20.3762 66.672,22.7095 62,25.5C 60.8333,24.3333 59.6667,23.1667 58.5,22C 59.7101,20.9609 60.7101,19.7942 61.5,18.5 Z"/></g>
<g><path style="opacity:1" fill="#c0a264" d="M 55.5,32.5 C 53.2402,35.1428 50.5735,36.3094 47.5,36C 48.3805,36.7083 49.0472,37.5416 49.5,38.5C 49.5,38.8333 49.5,39.1667 49.5,39.5C 47.053,42.5279 44.053,43.1945 40.5,41.5C 39.1154,40.4264 37.9487,39.0931 37,37.5C 36.0958,40.2334 34.5958,42.5667 32.5,44.5C 33.6591,45.5135 35.6591,45.8468 38.5,45.5C 38.3893,46.1174 38.056,46.6174 37.5,47C 39.7078,47.1909 41.7078,47.6909 43.5,48.5C 40.2186,48.4203 37.2186,49.087 34.5,50.5C 34.5,57.8333 34.5,65.1667 34.5,72.5C 37.1667,72.5 39.8333,72.5 42.5,72.5C 39.7131,73.4767 36.7131,73.81 33.5,73.5C 33.6664,65.8261 33.4997,58.1594 33,50.5C 31.6696,58.7733 31.1696,67.1067 31.5,75.5C 35.1667,75.5 38.8333,75.5 42.5,75.5C 42.5,75.8333 42.5,76.1667 42.5,76.5C 38.5,76.5 34.5,76.5 30.5,76.5C 30.6665,65.1618 30.4999,53.8284 30,42.5C 27.8497,37.9353 27.0164,33.2686 27.5,28.5C 29.1487,29.6477 30.6487,30.981 32,32.5C 33.8333,30.6667 35.6667,28.8333 37.5,27C 33.4074,23.7476 33.7407,20.9143 38.5,18.5C 43.2593,20.9143 43.5926,23.7476 39.5,27C 41.8102,28.6374 43.3102,30.804 44,33.5C 45.4578,31.04 47.2911,28.8734 49.5,27C 45.4074,23.7476 45.7407,20.9143 50.5,18.5C 55.2593,20.9143 55.5926,23.7476 51.5,27C 53.4641,28.451 54.7974,30.2843 55.5,32.5 Z"/></g>
<g><path style="opacity:1" fill="#e5d588" d="M 52.5,38.5 C 53.075,36.5887 54.075,34.922 55.5,33.5C 57.7966,31.7059 59.9633,29.7059 62,27.5C 60.6937,32.7253 59.3603,38.0587 58,43.5C 56.2962,41.6266 54.4628,39.9599 52.5,38.5 Z"/></g>
<g><path style="opacity:0.992" fill="#654834" d="M 55.5,32.5 C 55.5,32.8333 55.5,33.1667 55.5,33.5C 54.075,34.922 53.075,36.5887 52.5,38.5C 51.5,38.5 50.5,38.5 49.5,38.5C 49.0472,37.5416 48.3805,36.7083 47.5,36C 50.5735,36.3094 53.2402,35.1428 55.5,32.5 Z"/></g>
<g><path style="opacity:0.412" fill="#18120c" d="M 40.5,41.5 C 40.9528,42.4584 41.6195,43.2917 42.5,44C 39.1832,44.4983 35.8499,44.665 32.5,44.5C 34.5958,42.5667 36.0958,40.2334 37,37.5C 37.9487,39.0931 39.1154,40.4264 40.5,41.5 Z"/></g>
<g><path style="opacity:1" fill="#75593b" d="M 49.5,39.5 C 48.5849,41.7541 47.2516,43.7541 45.5,45.5C 43.1667,45.5 40.8333,45.5 38.5,45.5C 35.6591,45.8468 33.6591,45.5135 32.5,44.5C 35.8499,44.665 39.1832,44.4983 42.5,44C 41.6195,43.2917 40.9528,42.4584 40.5,41.5C 44.053,43.1945 47.053,42.5279 49.5,39.5 Z"/></g>
<g><path style="opacity:0.694" fill="#584426" d="M 8.5,45.5 C 7.16667,45.5 5.83333,45.5 4.5,45.5C 4.5,56.5 4.5,67.5 4.5,78.5C 3.50523,67.3456 3.1719,56.0123 3.5,44.5C 5.41467,44.2155 7.08134,44.5489 8.5,45.5 Z"/></g>
<g><path style="opacity:0.677" fill="#8e8858" d="M 57.5,51.5 C 57.5,49.5 57.5,47.5 57.5,45.5C 55.5,45.5 53.5,45.5 51.5,45.5C 52.3049,44.3996 54.6382,44.0663 58.5,44.5C 58.8431,47.6533 58.5098,49.9866 57.5,51.5 Z"/></g>
<g><path style="opacity:1" fill="#f6f29f" d="M 51.5,45.5 C 53.5,45.5 55.5,45.5 57.5,45.5C 57.5,47.5 57.5,49.5 57.5,51.5C 55.8333,49.1667 53.8333,47.1667 51.5,45.5 Z"/></g>
<g><path style="opacity:0.973" fill="#5b3f2e" d="M 43.5,48.5 C 44.791,48.2627 45.791,48.596 46.5,49.5C 42.6002,50.4299 38.6002,50.7633 34.5,50.5C 37.2186,49.087 40.2186,48.4203 43.5,48.5 Z"/></g>
<g><path style="opacity:1" fill="#a26c34" d="M 72.5,49.5 C 78.7507,47.4245 84.4174,48.5912 89.5,53C 90.7494,53.7401 91.7494,53.5735 92.5,52.5C 93.404,53.209 93.7373,54.209 93.5,55.5C 91.8008,55.6602 90.1341,55.4935 88.5,55C 84.3433,51.0226 79.3433,49.5226 73.5,50.5C 73.5,49.8333 73.1667,49.5 72.5,49.5 Z"/></g>
<g><path style="opacity:0.167" fill="#060403" d="M 46.5,49.5 C 53.5382,52.0801 56.0382,57.0801 54,64.5C 51.9948,69.7555 48.1615,72.4222 42.5,72.5C 39.8333,72.5 37.1667,72.5 34.5,72.5C 34.5,65.1667 34.5,57.8333 34.5,50.5C 38.6002,50.7633 42.6002,50.4299 46.5,49.5 Z M 38.5,54.5 C 38.5,59.1667 38.5,63.8333 38.5,68.5C 43.9944,68.7521 47.9944,66.4188 50.5,61.5C 47.9766,56.6447 43.9766,54.3114 38.5,54.5 Z"/></g>
<g><path style="opacity:0.995" fill="#ae894d" d="M 8.5,45.5 C 8.5,56.5 8.5,67.5 8.5,78.5C 7.16667,78.5 5.83333,78.5 4.5,78.5C 4.5,67.5 4.5,56.5 4.5,45.5C 5.83333,45.5 7.16667,45.5 8.5,45.5 Z"/></g>
<g><path style="opacity:1" fill="#e6dd7c" d="M 92.5,52.5 C 91.7494,53.5735 90.7494,53.7401 89.5,53C 84.4174,48.5912 78.7507,47.4245 72.5,49.5C 69.1667,50.8333 66.8333,53.1667 65.5,56.5C 63.9495,61.0784 64.6162,65.4117 67.5,69.5C 67.1667,70.5 66.5,71.1667 65.5,71.5C 64.7281,70.3065 63.7281,69.3065 62.5,68.5C 58.5672,57.23 62.2338,49.3967 73.5,45C 81.4066,43.6879 87.7399,46.1879 92.5,52.5 Z"/></g>
<g><path style="opacity:0.875" fill="#59391f" d="M 72.5,49.5 C 73.1667,49.5 73.5,49.8333 73.5,50.5C 70.5962,52.0551 67.9295,54.0551 65.5,56.5C 66.8333,53.1667 69.1667,50.8333 72.5,49.5 Z"/></g>
<g><path style="opacity:1" fill="#c4a265" d="M 22.5,44.5 C 24.1667,44.5 25.8333,44.5 27.5,44.5C 27.6495,45.552 27.4828,46.552 27,47.5C 22.9777,52.0212 19.1444,56.6879 15.5,61.5C 18.8104,65.978 22.3104,70.3114 26,74.5C 26.4317,75.6001 25.9317,76.2668 24.5,76.5C 21.3449,75.8497 18.8449,74.183 17,71.5C 13.9809,68.4908 11.8142,64.9908 10.5,61C 10.6667,60.1667 10.8333,59.3333 11,58.5C 15.0455,53.9596 18.8788,49.2929 22.5,44.5 Z"/></g>
<g><path style="opacity:0.62" fill="#514422" d="M 73.5,62.5 C 80.6476,61.5084 87.9809,61.175 95.5,61.5C 95.7947,63.7354 95.4614,65.7354 94.5,67.5C 94.5,65.8333 94.5,64.1667 94.5,62.5C 87.5,62.5 80.5,62.5 73.5,62.5 Z"/></g>
<g><path style="opacity:1" fill="#ede58f" d="M 38.5,45.5 C 40.8333,45.5 43.1667,45.5 45.5,45.5C 55.6741,48.5209 59.6741,55.1876 57.5,65.5C 54.6597,71.9973 49.6597,75.3307 42.5,75.5C 38.8333,75.5 35.1667,75.5 31.5,75.5C 31.1696,67.1067 31.6696,58.7733 33,50.5C 33.4997,58.1594 33.6664,65.8261 33.5,73.5C 36.7131,73.81 39.7131,73.4767 42.5,72.5C 48.1615,72.4222 51.9948,69.7555 54,64.5C 56.0382,57.0801 53.5382,52.0801 46.5,49.5C 45.791,48.596 44.791,48.2627 43.5,48.5C 41.7078,47.6909 39.7078,47.1909 37.5,47C 38.056,46.6174 38.3893,46.1174 38.5,45.5 Z M 38.5,54.5 C 38.5,59.1667 38.5,63.8333 38.5,68.5C 43.9944,68.7521 47.9944,66.4188 50.5,61.5C 47.9766,56.6447 43.9766,54.3114 38.5,54.5 Z"/></g>
<g><path style="opacity:0.84" fill="#69451e" d="M 89.5,68.5 C 84.1667,67.8333 78.8333,67.1667 73.5,66.5C 79.1064,65.5931 84.773,65.2598 90.5,65.5C 90.7373,66.791 90.404,67.791 89.5,68.5 Z"/></g>
<g><path style="opacity:1" fill="#c9aa57" d="M 73.5,62.5 C 80.5,62.5 87.5,62.5 94.5,62.5C 94.5,64.1667 94.5,65.8333 94.5,67.5C 89.0419,75.8817 81.3752,78.7151 71.5,76C 69.2528,74.7225 67.2528,73.2225 65.5,71.5C 66.5,71.1667 67.1667,70.5 67.5,69.5C 75.1459,75.0557 82.4792,74.7223 89.5,68.5C 90.404,67.791 90.7373,66.791 90.5,65.5C 84.773,65.2598 79.1064,65.5931 73.5,66.5C 73.5,65.1667 73.5,63.8333 73.5,62.5 Z"/></g>
<g><path style="opacity:1" fill="#412d1b" d="M 57.5,65.5 C 56.1219,74.2214 51.1219,77.888 42.5,76.5C 42.5,76.1667 42.5,75.8333 42.5,75.5C 49.6597,75.3307 54.6597,71.9973 57.5,65.5 Z"/></g>
<g><path style="opacity:0.995" fill="#7a5023" d="M 94.5,67.5 C 93.5266,72.6466 90.5266,76.1466 85.5,78C 76.4684,81.2389 68.9684,79.0722 63,71.5C 62.5172,70.552 62.3505,69.552 62.5,68.5C 63.7281,69.3065 64.7281,70.3065 65.5,71.5C 67.2528,73.2225 69.2528,74.7225 71.5,76C 81.3752,78.7151 89.0419,75.8817 94.5,67.5 Z"/></g>
</svg>
