<?xml version="1.0" encoding="UTF-8"?>
<!DOCTYPE svg PUBLIC "-//W3C//DTD SVG 1.1//EN" "http://www.w3.org/Graphics/SVG/1.1/DTD/svg11.dtd">
<svg xmlns="http://www.w3.org/2000/svg" version="1.1" width="100px" height="100px" style="shape-rendering:geometricPrecision; text-rendering:geometricPrecision; image-rendering:optimizeQuality; fill-rule:evenodd; clip-rule:evenodd" xmlns:xlink="http://www.w3.org/1999/xlink">
<g><path style="opacity:1" fill="#dedfc5" d="M -0.5,-0.5 C 10.5,-0.5 21.5,-0.5 32.5,-0.5C 32.6713,2.79731 32.0046,3.13065 30.5,0.5C 29.1667,1.5 27.8333,2.5 26.5,3.5C 26.9569,4.29755 27.6236,4.63088 28.5,4.5C 29.404,5.20895 29.7373,6.20895 29.5,7.5C 27.8212,7.28519 26.8212,7.95186 26.5,9.5C 25.7784,9.08247 25.2784,8.4158 25,7.5C 24.3086,9.89118 23.3086,9.89118 22,7.5C 21.2174,9.43348 21.7174,10.9335 23.5,12C 20.6747,13.9256 18.3413,13.4256 16.5,10.5C 15.1235,9.44402 14.2902,8.11069 14,6.5C 13.758,8.13809 12.9247,9.63809 11.5,11C 10.5509,11.6172 9.71752,11.4506 9,10.5C 8.50649,12.1341 8.33982,13.8008 8.5,15.5C 8.18982,17.1436 7.18982,18.1436 5.5,18.5C 3.88771,19.4523 2.38771,19.7856 1,19.5C 0.420152,22.5475 0.753486,22.8808 2,20.5C 2.46434,21.0944 2.63101,21.7611 2.5,22.5C 3.05773,23.7899 4.05773,24.6232 5.5,25C 1.64149,26.3172 0.308154,28.8172 1.5,32.5C 2.18346,32.1373 2.85013,31.8039 3.5,31.5C 3.41423,32.4959 3.74756,33.3292 4.5,34C 3.37598,34.2492 2.37598,34.7492 1.5,35.5C 2.7161,36.0959 4.04943,36.2626 5.5,36C 3.87528,36.8525 3.54195,37.8525 4.5,39C 2.97506,40.0086 1.30839,40.5086 -0.5,40.5C -0.5,26.8333 -0.5,13.1667 -0.5,-0.5 Z"/></g>
<g><path style="opacity:1" fill="#dfd9cc" d="M 73.5,-0.5 C 82.1667,-0.5 90.8333,-0.5 99.5,-0.5C 99.5,12.8333 99.5,26.1667 99.5,39.5C 98.0687,38.2196 97.4021,36.5529 97.5,34.5C 94.5095,34.6703 92.5095,33.337 91.5,30.5C 92.0402,29.2519 92.7069,28.0852 93.5,27C 92.2559,26.5439 91.4226,27.0439 91,28.5C 90.4014,26.4652 90.9014,24.7985 92.5,23.5C 94.3495,22.1275 95.6828,22.6275 96.5,25C 95.0439,25.4226 94.5439,26.2559 95,27.5C 96.1475,26.5419 97.1475,26.8753 98,28.5C 97.6198,25.5471 97.6198,22.5471 98,19.5C 97.6667,19.1667 97.3333,18.8333 97,18.5C 96.6924,19.3081 96.1924,19.9747 95.5,20.5C 94.2798,19.2889 93.1131,19.2889 92,20.5C 93.0195,18.5414 93.8529,16.708 94.5,15C 92.4062,13.6485 90.0728,13.1485 87.5,13.5C 86.7321,12.7375 86.2321,11.7375 86,10.5C 84.6932,11.7717 83.1932,12.7717 81.5,13.5C 82.3914,14.5896 83.3914,14.5896 84.5,13.5C 85.5896,14.3914 85.5896,15.3914 84.5,16.5C 83.3112,17.4287 81.9778,17.762 80.5,17.5C 81.2625,16.7321 82.2625,16.2321 83.5,16C 81.3825,15.7398 79.7158,14.7398 78.5,13C 77.8797,14.2549 76.213,14.5882 73.5,14C 75.5,12.3333 77.5,10.6667 79.5,9C 78.944,8.61742 78.6107,8.11742 78.5,7.5C 79.1515,6.90935 79.8182,6.24269 80.5,5.5C 80.8333,6.16667 81.1667,6.83333 81.5,7.5C 81.8333,7 82.1667,6.5 82.5,6C 82.6177,4.10059 82.1177,2.26726 81,0.5C 77.9031,1.28935 77.7364,2.45601 80.5,4C 79.354,4.64494 78.354,5.47827 77.5,6.5C 76.8165,6.13727 76.1499,5.80393 75.5,5.5C 75.631,4.76109 75.4643,4.09442 75,3.5C 74.3457,4.69559 73.8457,4.69559 73.5,3.5C 74.0253,2.80762 74.6919,2.30762 75.5,2C 74.6195,1.2917 73.9528,0.458367 73.5,-0.5 Z"/></g>
<g><path style="opacity:1" fill="#919186" d="M 39.5,-0.5 C 47.5,-0.5 55.5,-0.5 63.5,-0.5C 62.9501,3.82687 60.9501,4.6602 57.5,2C 60.0635,1.23703 60.0635,0.737034 57.5,0.5C 56.8333,0.666667 56.1667,0.833333 55.5,1C 55.0698,1.9195 54.7365,2.75283 54.5,3.5C 53.5,2.16667 52.5,2.16667 51.5,3.5C 50.7506,1.98841 49.584,0.988414 48,0.5C 46.2626,1.61978 44.4292,2.61978 42.5,3.5C 40.8437,1.97762 39.677,2.31095 39,4.5C 38.3333,3.16667 37.6667,3.16667 37,4.5C 36.5357,3.90558 36.369,3.23891 36.5,2.5C 38.1436,2.18982 39.1436,1.18982 39.5,-0.5 Z"/></g>
<g><path style="opacity:1" fill="#8ac87f" d="M 32.5,-0.5 C 34.8333,-0.5 37.1667,-0.5 39.5,-0.5C 39.1436,1.18982 38.1436,2.18982 36.5,2.5C 34.9256,2.93709 33.7589,3.93709 33,5.5C 31.4943,3.93474 29.9943,3.60141 28.5,4.5C 27.6236,4.63088 26.9569,4.29755 26.5,3.5C 27.8333,2.5 29.1667,1.5 30.5,0.5C 32.0046,3.13065 32.6713,2.79731 32.5,-0.5 Z"/></g>
<g><path style="opacity:1" fill="#a9ca76" d="M 68.5,-0.5 C 70.1667,-0.5 71.8333,-0.5 73.5,-0.5C 73.9528,0.458367 74.6195,1.2917 75.5,2C 74.6919,2.30762 74.0253,2.80762 73.5,3.5C 73.8457,4.69559 74.3457,4.69559 75,3.5C 75.4643,4.09442 75.631,4.76109 75.5,5.5C 73.6159,5.71182 72.2826,6.71182 71.5,8.5C 70.4164,7.33492 69.5831,6.00158 69,4.5C 68.5774,5.95608 67.7441,6.45608 66.5,6C 64.7554,4.30799 64.4221,2.47465 65.5,0.5C 66.2811,1.72865 66.7811,3.06199 67,4.5C 67.2492,3.37598 67.7492,2.37598 68.5,1.5C 69.451,2.32557 70.451,2.49224 71.5,2C 70.4293,1.14825 69.4293,0.314913 68.5,-0.5 Z"/></g>
<g><path style="opacity:1" fill="#c9dc5a" d="M 78.5,7.5 C 76.8212,7.71481 75.8212,7.04814 75.5,5.5C 76.1499,5.80393 76.8165,6.13727 77.5,6.5C 78.354,5.47827 79.354,4.64494 80.5,4C 77.7364,2.45601 77.9031,1.28935 81,0.5C 82.1177,2.26726 82.6177,4.10059 82.5,6C 82.1667,6.5 81.8333,7 81.5,7.5C 81.1667,6.83333 80.8333,6.16667 80.5,5.5C 79.8182,6.24269 79.1515,6.90935 78.5,7.5 Z"/></g>
<g><path style="opacity:1" fill="#94f567" d="M 16.5,10.5 C 14.9934,11.9755 13.3268,13.3088 11.5,14.5C 10.7784,14.9175 10.2784,15.5842 10,16.5C 9.61742,15.944 9.11742,15.6107 8.5,15.5C 8.33982,13.8008 8.50649,12.1341 9,10.5C 9.71752,11.4506 10.5509,11.6172 11.5,11C 12.9247,9.63809 13.758,8.13809 14,6.5C 14.2902,8.11069 15.1235,9.44402 16.5,10.5 Z"/></g>
<g><path style="opacity:1" fill="#ad5faa" d="M 87.5,13.5 C 85.8843,15.4158 86.2177,16.9158 88.5,18C 87.9498,20.1576 86.9498,20.6576 85.5,19.5C 83.9139,18.5868 82.4139,18.5868 81,19.5C 80.5357,18.9056 80.369,18.2389 80.5,17.5C 81.9778,17.762 83.3112,17.4287 84.5,16.5C 85.5896,15.3914 85.5896,14.3914 84.5,13.5C 83.3914,14.5896 82.3914,14.5896 81.5,13.5C 83.1932,12.7717 84.6932,11.7717 86,10.5C 86.2321,11.7375 86.7321,12.7375 87.5,13.5 Z"/></g>
<g><path style="opacity:1" fill="#8dfd4f" d="M 5.5,18.5 C 5.91176,20.9726 4.91176,22.3059 2.5,22.5C 2.63101,21.7611 2.46434,21.0944 2,20.5C 0.753486,22.8808 0.420152,22.5475 1,19.5C 2.38771,19.7856 3.88771,19.4523 5.5,18.5 Z"/></g>
<g><path style="opacity:1" fill="#b4d478" d="M 87.5,13.5 C 90.0728,13.1485 92.4062,13.6485 94.5,15C 93.8529,16.708 93.0195,18.5414 92,20.5C 93.1131,19.2889 94.2798,19.2889 95.5,20.5C 96.1924,19.9747 96.6924,19.3081 97,18.5C 97.3333,18.8333 97.6667,19.1667 98,19.5C 97.6198,22.5471 97.6198,25.5471 98,28.5C 97.1475,26.8753 96.1475,26.5419 95,27.5C 94.5439,26.2559 95.0439,25.4226 96.5,25C 95.6828,22.6275 94.3495,22.1275 92.5,23.5C 90.4363,21.0221 88.4363,21.0221 86.5,23.5C 86.1667,22.1667 85.8333,20.8333 85.5,19.5C 86.9498,20.6576 87.9498,20.1576 88.5,18C 86.2177,16.9158 85.8843,15.4158 87.5,13.5 Z"/></g>
<g><path style="opacity:1" fill="#838a9f" d="M 80.5,17.5 C 80.369,18.2389 80.5357,18.9056 81,19.5C 82.4139,18.5868 83.9139,18.5868 85.5,19.5C 85.8333,20.8333 86.1667,22.1667 86.5,23.5C 84.9902,22.2721 83.4902,22.2721 82,23.5C 82.1751,25.8566 82.3417,28.0232 82.5,30C 80.4873,31.7913 80.4873,33.1247 82.5,34C 81.552,34.4828 80.552,34.6495 79.5,34.5C 79.6495,33.448 79.4828,32.448 79,31.5C 78.2917,32.3805 77.4584,33.0472 76.5,33.5C 73.0933,33.8747 72.5933,32.8747 75,30.5C 76.793,31.3808 77.4597,30.7142 77,28.5C 76.6667,28.8333 76.3333,29.1667 76,29.5C 75.6667,28.5 75.3333,27.5 75,26.5C 74.5291,28.2464 73.8624,29.913 73,31.5C 72.5172,30.552 72.3505,29.552 72.5,28.5C 73.29,27.3915 73.79,26.0581 74,24.5C 74.414,24.9574 74.914,25.2907 75.5,25.5C 76.2298,24.0663 77.2298,22.8996 78.5,22C 77.9558,21.2828 77.2891,20.7828 76.5,20.5C 75.4017,19.3991 75.235,18.0657 76,16.5C 77.5639,16.9121 79.0639,17.2454 80.5,17.5 Z"/></g>
<g><path style="opacity:1" fill="#483881" d="M 63.5,-0.5 C 65.1667,-0.5 66.8333,-0.5 68.5,-0.5C 69.4293,0.314913 70.4293,1.14825 71.5,2C 70.451,2.49224 69.451,2.32557 68.5,1.5C 67.7492,2.37598 67.2492,3.37598 67,4.5C 66.7811,3.06199 66.2811,1.72865 65.5,0.5C 64.4221,2.47465 64.7554,4.30799 66.5,6C 67.7441,6.45608 68.5774,5.95608 69,4.5C 69.5831,6.00158 70.4164,7.33492 71.5,8.5C 72.2826,6.71182 73.6159,5.71182 75.5,5.5C 75.8212,7.04814 76.8212,7.71481 78.5,7.5C 78.6107,8.11742 78.944,8.61742 79.5,9C 77.5,10.6667 75.5,12.3333 73.5,14C 76.213,14.5882 77.8797,14.2549 78.5,13C 79.7158,14.7398 81.3825,15.7398 83.5,16C 82.2625,16.2321 81.2625,16.7321 80.5,17.5C 79.0639,17.2454 77.5639,16.9121 76,16.5C 75.235,18.0657 75.4017,19.3991 76.5,20.5C 76.44,21.0431 76.1067,21.3764 75.5,21.5C 72.4277,20.1299 69.261,19.1299 66,18.5C 65.5357,19.0944 65.369,19.7611 65.5,20.5C 63.5043,22.3332 61.171,22.8332 58.5,22C 57.1667,20.6667 57.1667,19.3333 58.5,18C 56.8689,16.1644 56.2022,16.6644 56.5,19.5C 54.1305,19.8511 51.7972,20.0178 49.5,20C 51.8718,18.5295 51.8718,17.3628 49.5,16.5C 48.2867,16.7472 47.62,17.4138 47.5,18.5C 46.7321,19.2625 46.2321,20.2625 46,21.5C 45.5488,19.0712 44.7155,18.9045 43.5,21C 44.6537,21.9138 44.487,22.7471 43,23.5C 42.6667,23.1667 42.3333,22.8333 42,22.5C 40.4471,26.2991 39.1138,26.2991 38,22.5C 36.317,25.5183 36.317,28.185 38,30.5C 38.2321,29.2625 38.7321,28.2625 39.5,27.5C 39.33,28.8221 39.6634,29.9887 40.5,31C 38.1747,32.8812 38.1747,34.5478 40.5,36C 40.3699,37.0588 39.8699,37.8921 39,38.5C 38.1004,37.2298 36.9337,36.2298 35.5,35.5C 36.3256,34.549 36.4922,33.549 36,32.5C 34.6667,33.8333 33.3333,33.8333 32,32.5C 31.0347,34.2603 29.868,34.5937 28.5,33.5C 29.154,31.8849 29.654,30.2182 30,28.5C 31.3988,27.7734 32.8988,27.2734 34.5,27C 30.5,26.3333 30.5,25.6667 34.5,25C 32.8753,24.1475 32.5419,23.1475 33.5,22C 32.2575,21.6886 31.2575,22.1886 30.5,23.5C 30.4464,22.3131 30.1131,20.9798 29.5,19.5C 28.5712,18.4502 27.9046,18.4502 27.5,19.5C 26.2921,20.2341 24.9587,20.5674 23.5,20.5C 23.719,19.325 23.3857,18.325 22.5,17.5C 21.1072,18.8631 19.4405,19.6964 17.5,20C 19.3757,20.9184 20.3757,22.4184 20.5,24.5C 18.8967,24.3118 17.5634,24.8118 16.5,26C 18.2072,26.1953 19.8739,26.1953 21.5,26C 22.3452,27.5581 21.6785,28.5581 19.5,29C 20.448,29.4828 21.448,29.6495 22.5,29.5C 22.4208,30.9305 22.7542,32.2638 23.5,33.5C 22.7579,34.2868 21.9246,34.9535 21,35.5C 20.8305,38.4679 20.6638,41.3012 20.5,44C 22.8961,44.866 23.5628,44.366 22.5,42.5C 22.9569,41.7025 23.6236,41.3691 24.5,41.5C 25.6258,43.4525 27.2925,44.9525 29.5,46C 28.062,46.2189 26.7287,46.7189 25.5,47.5C 25.6667,47.8333 25.8333,48.1667 26,48.5C 27.398,49.536 28.898,49.536 30.5,48.5C 32.4286,48.2308 34.0953,48.7308 35.5,50C 32.8333,50.3333 30.1667,50.6667 27.5,51C 26.1667,51.6667 26.1667,52.3333 27.5,53C 25.9419,53.21 24.6085,53.71 23.5,54.5C 22.7611,54.631 22.0944,54.4643 21.5,54C 23.9941,52.0876 23.8274,50.2543 21,48.5C 20.7132,50.8907 20.2132,53.2241 19.5,55.5C 19.7093,56.086 20.0426,56.586 20.5,57C 18.9154,57.0848 17.5821,57.2514 16.5,57.5C 17.8916,60.0063 19.2249,62.5063 20.5,65C 19.5509,65.6172 18.7175,65.4506 18,64.5C 17.5439,65.7441 18.0439,66.5774 19.5,67C 18.09,67.3678 17.09,68.2011 16.5,69.5C 18.0453,70.4519 19.712,70.7852 21.5,70.5C 21.5,68.1667 21.5,65.8333 21.5,63.5C 22.9587,63.4326 24.2921,63.7659 25.5,64.5C 26.2625,65.2679 27.2625,65.7679 28.5,66C 26.5,66.3333 24.5,66.6667 22.5,67C 23.6667,67.5 24.5,68.3333 25,69.5C 29.4675,68.8065 33.9675,68.1398 38.5,67.5C 39.1924,68.0253 39.6924,68.6919 40,69.5C 40.658,67.892 40.158,66.7253 38.5,66C 42.0267,65.1925 45.3601,65.3592 48.5,66.5C 46.1432,66.3367 43.8098,66.5034 41.5,67C 42.8141,67.985 43.8141,69.1516 44.5,70.5C 44.44,71.0431 44.1067,71.3764 43.5,71.5C 42.7492,70.624 42.2492,69.624 42,68.5C 41.3483,70.7231 39.8483,71.8898 37.5,72C 40.4637,72.8403 40.797,73.8403 38.5,75C 39.1667,75.3333 39.8333,75.6667 40.5,76C 39.0439,76.4226 38.5439,77.2559 39,78.5C 40,79.8333 41,79.8333 42,78.5C 42.2784,79.4158 42.7784,80.0825 43.5,80.5C 44.2216,80.9175 44.7216,81.5842 45,82.5C 45.3333,81.8333 45.6667,81.1667 46,80.5C 47.4194,81.4601 48.9194,82.2935 50.5,83C 49.5,83.3333 48.5,83.6667 47.5,84C 50.789,86.2088 54.4557,87.0421 58.5,86.5C 58.5,85.5 58.5,84.5 58.5,83.5C 56.8008,83.6602 55.1341,83.4935 53.5,83C 54.8333,82 54.8333,81 53.5,80C 55.1667,79.3333 56.8333,79.3333 58.5,80C 57.3044,80.6543 57.3044,81.1543 58.5,81.5C 59.2868,80.7579 59.9535,79.9246 60.5,79C 54.2297,78.2852 53.2297,75.7852 57.5,71.5C 57.0576,70.2613 56.3909,69.2613 55.5,68.5C 56.5981,67.603 56.5981,66.7697 55.5,66C 59.8333,65.3333 64.1667,65.3333 68.5,66C 65.1182,66.1764 61.7848,66.6764 58.5,67.5C 58.2907,68.086 57.9574,68.586 57.5,69C 60.0217,69.4986 62.5217,69.3319 65,68.5C 65.6259,70.9913 66.4593,70.9913 67.5,68.5C 68.1667,69.1667 68.8333,69.8333 69.5,70.5C 71.7016,69.2203 73.8683,69.2203 76,70.5C 76.4828,69.552 76.6495,68.552 76.5,67.5C 77.8734,67.6567 79.2068,67.49 80.5,67C 79.2625,66.7679 78.2625,66.2679 77.5,65.5C 76.8333,65.1667 76.1667,64.8333 75.5,64.5C 75.9863,62.1933 75.9863,60.0266 75.5,58C 76.7375,57.7679 77.7375,57.2679 78.5,56.5C 76.7839,56.3713 75.1172,56.038 73.5,55.5C 73.33,54.1779 73.6634,53.0113 74.5,52C 73.9288,50.7949 73.2621,49.6283 72.5,48.5C 71.914,48.7093 71.414,49.0426 71,49.5C 69.5993,47.8078 67.7659,47.1412 65.5,47.5C 64.105,46.3523 64.2716,45.3523 66,44.5C 66.4512,46.9288 67.2845,47.0955 68.5,45C 68.1667,44.6667 67.8333,44.3333 67.5,44C 68.7932,43.51 70.1266,43.3433 71.5,43.5C 71.3433,42.1266 71.51,40.7932 72,39.5C 72.8893,40.8882 73.3893,40.7215 73.5,39C 72.0474,37.2869 72.2141,35.7869 74,34.5C 74.4226,35.9561 75.2559,36.4561 76.5,36C 75.4019,35.2303 75.4019,34.397 76.5,33.5C 77.4584,33.0472 78.2917,32.3805 79,31.5C 79.4828,32.448 79.6495,33.448 79.5,34.5C 80.552,34.6495 81.552,34.4828 82.5,34C 80.4873,33.1247 80.4873,31.7913 82.5,30C 82.3417,28.0232 82.1751,25.8566 82,23.5C 83.4902,22.2721 84.9902,22.2721 86.5,23.5C 88.4363,21.0221 90.4363,21.0221 92.5,23.5C 90.9014,24.7985 90.4014,26.4652 91,28.5C 91.4226,27.0439 92.2559,26.5439 93.5,27C 92.7069,28.0852 92.0402,29.2519 91.5,30.5C 92.5095,33.337 94.5095,34.6703 97.5,34.5C 97.4021,36.5529 98.0687,38.2196 99.5,39.5C 99.5,41.1667 99.5,42.8333 99.5,44.5C 98.1411,43.9935 97.1411,42.9935 96.5,41.5C 94.5188,42.1054 94.1854,43.1054 95.5,44.5C 94.9747,45.1924 94.3081,45.6924 93.5,46C 94.949,47.1022 96.2823,48.2689 97.5,49.5C 96.3832,52.2791 95.2166,52.6124 94,50.5C 93.6258,51.4162 93.1258,52.2496 92.5,53C 95.1938,55.4028 96.0271,58.2361 95,61.5C 96.1096,63.0368 97.6096,63.7035 99.5,63.5C 99.5,64.8333 99.5,66.1667 99.5,67.5C 97.3449,68.5524 97.0116,67.8857 98.5,65.5C 97.277,64.3861 95.9437,64.2195 94.5,65C 97.0176,66.1396 97.0176,67.3063 94.5,68.5C 94.4226,69.7498 93.756,70.5831 92.5,71C 92.8333,71.3333 93.1667,71.6667 93.5,72C 89.5468,71.4244 87.0468,73.2577 86,77.5C 85.6667,76.5 85.3333,75.5 85,74.5C 84.5065,76.1341 84.3398,77.8008 84.5,79.5C 83.307,81.0541 82.1404,82.7208 81,84.5C 80.6667,84.1667 80.3333,83.8333 80,83.5C 79.2086,84.745 78.7086,86.0783 78.5,87.5C 77.5041,87.5858 76.6708,87.2524 76,86.5C 75.5172,87.448 75.3505,88.448 75.5,89.5C 73.1691,89.4977 71.1691,90.331 69.5,92C 70,92.5 70.5,93 71,93.5C 72.4399,90.6645 74.2733,90.1645 76.5,92C 74.2457,93.256 71.9123,94.4227 69.5,95.5C 68.7189,94.2713 68.2189,92.938 68,91.5C 67.1667,92.5 66.3333,93.5 65.5,94.5C 64.3247,93.1451 63.3247,93.3117 62.5,95C 63.5719,96.2837 64.9052,96.6171 66.5,96C 65.8333,96.6667 65.1667,97.3333 64.5,98C 61.798,98.0533 59.1314,97.5533 56.5,96.5C 55.8333,96.6667 55.1667,96.8333 54.5,97C 55.5,97.3333 56.5,97.6667 57.5,98C 55.9419,98.21 54.6085,98.71 53.5,99.5C 52.5,99.5 51.5,99.5 50.5,99.5C 51.4293,98.6851 52.4293,97.8518 53.5,97C 52.5838,96.6258 51.7504,96.1258 51,95.5C 49.3015,96.7407 47.8015,98.074 46.5,99.5C 44.1667,99.5 41.8333,99.5 39.5,99.5C 40.6002,98.4415 41.9336,97.6082 43.5,97C 41.0687,96.7479 38.7354,97.2479 36.5,98.5C 36.1667,97.1667 35.8333,95.8333 35.5,94.5C 34.3915,97.5032 32.7249,98.0032 30.5,96C 31.3279,95.0853 32.3279,94.4186 33.5,94C 31.6992,93.6827 31.3659,93.016 32.5,92C 30.6031,90.8903 28.7698,90.7236 27,91.5C 26.6667,90.5 26.3333,89.5 26,88.5C 25.2825,89.4506 24.4491,89.6172 23.5,89C 22.8448,87.5134 21.8448,86.3467 20.5,85.5C 19.7425,86.8114 18.7425,87.3114 17.5,87C 17.8333,86 18.1667,85 18.5,84C 17.1667,84 15.8333,84 14.5,84C 15.8333,83 15.8333,82 14.5,81C 15.5634,79.8118 16.8967,79.3118 18.5,79.5C 18.6495,78.448 18.4828,77.448 18,76.5C 16.6796,76.799 15.1796,76.9657 13.5,77C 14.7119,78.1068 14.3786,78.6068 12.5,78.5C 12.573,76.9731 11.9063,75.9731 10.5,75.5C 9.57075,74.6851 8.57075,73.8518 7.5,73C 9.87759,72.0255 9.54426,71.3589 6.5,71C 7.30806,70.6924 7.97473,70.1924 8.5,69.5C 7.9851,67.7749 7.31844,66.1083 6.5,64.5C 4.7859,65.6085 4.11923,64.9418 4.5,62.5C 2.4458,62.6347 0.779138,61.968 -0.5,60.5C -0.5,55.5 -0.5,50.5 -0.5,45.5C 0.117425,45.3893 0.617425,45.056 1,44.5C 1.55237,49.5767 1.55237,54.5767 1,59.5C 1.33333,59.1667 1.66667,58.8333 2,58.5C 3.33452,62.3609 4.50118,62.3609 5.5,58.5C 4.87206,56.7419 3.87206,55.2419 2.5,54C 4.08462,53.9152 5.41795,53.7486 6.5,53.5C 5.27296,52.4096 4.43963,51.0762 4,49.5C 3.66667,50.1667 3.33333,50.8333 3,51.5C 2.57834,48.7644 2.57834,46.0977 3,43.5C 2.04707,41.6269 0.880401,41.2935 -0.5,42.5C -0.5,41.8333 -0.5,41.1667 -0.5,40.5C 1.30839,40.5086 2.97506,40.0086 4.5,39C 3.54195,37.8525 3.87528,36.8525 5.5,36C 4.04943,36.2626 2.7161,36.0959 1.5,35.5C 2.37598,34.7492 3.37598,34.2492 4.5,34C 3.74756,33.3292 3.41423,32.4959 3.5,31.5C 5.11318,31.9443 6.27985,32.9443 7,34.5C 7.19684,32.1391 8.36351,30.4724 10.5,29.5C 8.00866,28.4593 8.00866,27.6259 10.5,27C 10.1667,26.6667 9.83333,26.3333 9.5,26C 10.2598,24.5589 10.9264,23.0589 11.5,21.5C 12.9079,20.7568 14.2412,19.9234 15.5,19C 14.062,18.7811 12.7287,18.2811 11.5,17.5C 12.9885,16.0198 14.6552,15.1865 16.5,15C 16,14.5 15.5,14 15,13.5C 13.9887,14.3366 12.8221,14.67 11.5,14.5C 13.3268,13.3088 14.9934,11.9755 16.5,10.5C 18.3413,13.4256 20.6747,13.9256 23.5,12C 21.7174,10.9335 21.2174,9.43348 22,7.5C 23.3086,9.89118 24.3086,9.89118 25,7.5C 25.2784,8.4158 25.7784,9.08247 26.5,9.5C 26.281,10.675 26.6143,11.675 27.5,12.5C 29.4645,11.8096 31.7979,11.1429 34.5,10.5C 34.5,9.5 34.5,8.5 34.5,7.5C 32.8333,7.5 31.1667,7.5 29.5,7.5C 29.7373,6.20895 29.404,5.20895 28.5,4.5C 29.9943,3.60141 31.4943,3.93474 33,5.5C 33.7589,3.93709 34.9256,2.93709 36.5,2.5C 36.369,3.23891 36.5357,3.90558 37,4.5C 37.6667,3.16667 38.3333,3.16667 39,4.5C 39.677,2.31095 40.8437,1.97762 42.5,3.5C 44.4292,2.61978 46.2626,1.61978 48,0.5C 49.584,0.988414 50.7506,1.98841 51.5,3.5C 52.5,2.16667 53.5,2.16667 54.5,3.5C 54.7365,2.75283 55.0698,1.9195 55.5,1C 56.1667,0.833333 56.8333,0.666667 57.5,0.5C 60.0635,0.737034 60.0635,1.23703 57.5,2C 60.9501,4.6602 62.9501,3.82687 63.5,-0.5 Z"/></g>
<g><path style="opacity:1" fill="#889692" d="M 27.5,19.5 C 27.6107,20.1174 27.944,20.6174 28.5,21C 26.8333,21.3333 25.1667,21.6667 23.5,22C 24.5,22.3333 25.5,22.6667 26.5,23C 24.6547,24.128 22.6547,24.628 20.5,24.5C 20.3757,22.4184 19.3757,20.9184 17.5,20C 19.4405,19.6964 21.1072,18.8631 22.5,17.5C 23.3857,18.325 23.719,19.325 23.5,20.5C 24.9587,20.5674 26.2921,20.2341 27.5,19.5 Z"/></g>
<g><path style="opacity:1" fill="#54859c" d="M 29.5,7.5 C 31.1667,7.5 32.8333,7.5 34.5,7.5C 34.5,8.5 34.5,9.5 34.5,10.5C 31.7979,11.1429 29.4645,11.8096 27.5,12.5C 26.6143,11.675 26.281,10.675 26.5,9.5C 26.8212,7.95186 27.8212,7.28519 29.5,7.5 Z"/></g>
<g><path style="opacity:1" fill="#846ba6" d="M 65.5,20.5 C 66.7562,20.4614 67.7562,20.9614 68.5,22C 67.7877,23.425 67.621,24.925 68,26.5C 66.285,26.5197 64.4516,27.1864 62.5,28.5C 62.4464,27.3131 62.1131,25.9798 61.5,24.5C 60.7564,25.9905 60.0897,27.4905 59.5,29C 61.8452,29.2365 63.8452,30.0698 65.5,31.5C 65.44,32.0431 65.1067,32.3764 64.5,32.5C 63.6852,30.7241 62.5185,30.0574 61,30.5C 60.2917,31.3805 59.4584,32.0472 58.5,32.5C 57.9478,30.6693 57.9478,29.0026 58.5,27.5C 58.1084,25.1286 57.1084,24.4619 55.5,25.5C 51.6345,24.563 48.9678,22.2296 47.5,18.5C 47.62,17.4138 48.2867,16.7472 49.5,16.5C 51.8718,17.3628 51.8718,18.5295 49.5,20C 51.7972,20.0178 54.1305,19.8511 56.5,19.5C 56.2022,16.6644 56.8689,16.1644 58.5,18C 57.1667,19.3333 57.1667,20.6667 58.5,22C 61.171,22.8332 63.5043,22.3332 65.5,20.5 Z"/></g>
<g><path style="opacity:1" fill="#999690" d="M 3.5,31.5 C 2.85013,31.8039 2.18346,32.1373 1.5,32.5C 0.308154,28.8172 1.64149,26.3172 5.5,25C 4.05773,24.6232 3.05773,23.7899 2.5,22.5C 4.91176,22.3059 5.91176,20.9726 5.5,18.5C 7.18982,18.1436 8.18982,17.1436 8.5,15.5C 9.11742,15.6107 9.61742,15.944 10,16.5C 10.2784,15.5842 10.7784,14.9175 11.5,14.5C 12.8221,14.67 13.9887,14.3366 15,13.5C 15.5,14 16,14.5 16.5,15C 14.6552,15.1865 12.9885,16.0198 11.5,17.5C 12.7287,18.2811 14.062,18.7811 15.5,19C 14.2412,19.9234 12.9079,20.7568 11.5,21.5C 10.9264,23.0589 10.2598,24.5589 9.5,26C 9.83333,26.3333 10.1667,26.6667 10.5,27C 8.00866,27.6259 8.00866,28.4593 10.5,29.5C 8.36351,30.4724 7.19684,32.1391 7,34.5C 6.27985,32.9443 5.11318,31.9443 3.5,31.5 Z"/></g>
<g><path style="opacity:1" fill="#a49c90" d="M 47.5,18.5 C 48.9678,22.2296 51.6345,24.563 55.5,25.5C 57.1084,24.4619 58.1084,25.1286 58.5,27.5C 57.9478,29.0026 57.9478,30.6693 58.5,32.5C 57.5284,30.5069 56.1951,30.1736 54.5,31.5C 54.6495,30.448 54.4828,29.448 54,28.5C 53.6667,28.8333 53.3333,29.1667 53,29.5C 51.4233,26.8005 49.2567,26.1339 46.5,27.5C 47.0253,28.1924 47.6919,28.6924 48.5,29C 47.5842,29.2784 46.9175,29.7784 46.5,30.5C 45.063,32.8433 43.3963,33.01 41.5,31C 42.4491,30.3828 43.2825,30.5494 44,31.5C 44.1667,31 44.3333,30.5 44.5,30C 42.753,29.9182 41.0863,29.0849 39.5,27.5C 38.7321,28.2625 38.2321,29.2625 38,30.5C 36.317,28.185 36.317,25.5183 38,22.5C 39.1138,26.2991 40.4471,26.2991 42,22.5C 42.3333,22.8333 42.6667,23.1667 43,23.5C 44.487,22.7471 44.6537,21.9138 43.5,21C 44.7155,18.9045 45.5488,19.0712 46,21.5C 46.2321,20.2625 46.7321,19.2625 47.5,18.5 Z"/></g>
<g><path style="opacity:1" fill="#491ed1" d="M 55.5,25.5 C 55.3605,27.337 54.6939,27.6704 53.5,26.5C 53.9569,25.7025 54.6236,25.3691 55.5,25.5 Z"/></g>
<g><path style="opacity:1" fill="#7dc896" d="M 76.5,20.5 C 77.2891,20.7828 77.9558,21.2828 78.5,22C 77.2298,22.8996 76.2298,24.0663 75.5,25.5C 74.914,25.2907 74.414,24.9574 74,24.5C 73.79,26.0581 73.29,27.3915 72.5,28.5C 71.2086,27.5272 71.2086,26.5272 72.5,25.5C 72,25.1667 71.5,24.8333 71,24.5C 70.7922,26.3153 69.6256,27.9819 67.5,29.5C 67.44,28.9569 67.1067,28.6236 66.5,28.5C 65.6143,29.325 65.281,30.325 65.5,31.5C 63.8452,30.0698 61.8452,29.2365 59.5,29C 60.0897,27.4905 60.7564,25.9905 61.5,24.5C 62.1131,25.9798 62.4464,27.3131 62.5,28.5C 64.4516,27.1864 66.285,26.5197 68,26.5C 67.621,24.925 67.7877,23.425 68.5,22C 67.7562,20.9614 66.7562,20.4614 65.5,20.5C 65.369,19.7611 65.5357,19.0944 66,18.5C 69.261,19.1299 72.4277,20.1299 75.5,21.5C 76.1067,21.3764 76.44,21.0431 76.5,20.5 Z"/></g>
<g><path style="opacity:1" fill="#c98493" d="M 72.5,28.5 C 70.8997,29.252 69.3997,30.252 68,31.5C 67.5357,30.9056 67.369,30.2389 67.5,29.5C 69.6256,27.9819 70.7922,26.3153 71,24.5C 71.5,24.8333 72,25.1667 72.5,25.5C 71.2086,26.5272 71.2086,27.5272 72.5,28.5 Z"/></g>
<g><path style="opacity:1" fill="#64bb68" d="M 19.5,30.5 C 20.2389,30.369 20.9056,30.5357 21.5,31C 18.8061,38.4132 18.1395,38.2466 19.5,30.5 Z"/></g>
<g><path style="opacity:1" fill="#a4bc8a" d="M 39.5,27.5 C 41.0863,29.0849 42.753,29.9182 44.5,30C 44.3333,30.5 44.1667,31 44,31.5C 43.2825,30.5494 42.4491,30.3828 41.5,31C 43.3963,33.01 45.063,32.8433 46.5,30.5C 47.5,30.5 48.5,30.5 49.5,30.5C 49.6932,26.551 50.1932,26.551 51,30.5C 52.5961,29.9515 53.7627,30.6182 54.5,32.5C 53.5263,34.0853 52.0263,35.0853 50,35.5C 48.2784,35.0385 46.445,34.8718 44.5,35C 45.6956,34.3457 45.6956,33.8457 44.5,33.5C 43.3861,34.723 43.2195,36.0563 44,37.5C 44.5613,36.9781 45.228,36.6448 46,36.5C 47.0105,36.8919 47.5105,37.5585 47.5,38.5C 48.2575,37.1886 49.2575,36.6886 50.5,37C 50.9817,38.0084 51.1484,39.175 51,40.5C 52.3333,41.8333 53.6667,41.8333 55,40.5C 54.7374,39.0494 54.9041,37.7161 55.5,36.5C 56.7321,37.1445 58.0654,37.3112 59.5,37C 58.4593,39.2424 57.126,41.0757 55.5,42.5C 56.4959,42.5858 57.3292,42.2524 58,41.5C 58.3076,42.3081 58.8076,42.9747 59.5,43.5C 60.7112,42.7261 60.7112,41.8928 59.5,41C 60.8412,39.7052 62.1745,39.2052 63.5,39.5C 61.1,37.7036 59.4333,35.3702 58.5,32.5C 59.4584,32.0472 60.2917,31.3805 61,30.5C 62.5185,30.0574 63.6852,30.7241 64.5,32.5C 65.1067,32.3764 65.44,32.0431 65.5,31.5C 66.1667,30.8333 66.8333,30.1667 67.5,29.5C 67.369,30.2389 67.5357,30.9056 68,31.5C 69.3997,30.252 70.8997,29.252 72.5,28.5C 72.3505,29.552 72.5172,30.552 73,31.5C 73.8624,29.913 74.5291,28.2464 75,26.5C 75.3333,27.5 75.6667,28.5 76,29.5C 76.3333,29.1667 76.6667,28.8333 77,28.5C 77.4597,30.7142 76.793,31.3808 75,30.5C 72.5933,32.8747 73.0933,33.8747 76.5,33.5C 75.4019,34.397 75.4019,35.2303 76.5,36C 75.2559,36.4561 74.4226,35.9561 74,34.5C 72.2141,35.7869 72.0474,37.2869 73.5,39C 73.3893,40.7215 72.8893,40.8882 72,39.5C 71.51,40.7932 71.3433,42.1266 71.5,43.5C 70.1266,43.3433 68.7932,43.51 67.5,44C 67.8333,44.3333 68.1667,44.6667 68.5,45C 67.2845,47.0955 66.4512,46.9288 66,44.5C 64.2716,45.3523 64.105,46.3523 65.5,47.5C 64.7784,47.9175 64.2784,48.5842 64,49.5C 62.8687,48.3961 62.0354,48.7295 61.5,50.5C 59.9223,51.2978 58.2556,51.7978 56.5,52C 58.1012,52.2734 59.6012,52.7734 61,53.5C 61.9138,52.3463 62.7471,52.513 63.5,54C 55.8117,54.8315 48.145,54.6648 40.5,53.5C 41.1667,53.1667 41.8333,52.8333 42.5,52.5C 40.9943,49.526 39.3276,49.1927 37.5,51.5C 36.6922,49.5767 36.1922,47.5767 36,45.5C 35.6667,46.1667 35.3333,46.8333 35,47.5C 33,46.8333 31.6667,45.5 31,43.5C 30.5065,45.1341 30.3398,46.8008 30.5,48.5C 28.898,49.536 27.398,49.536 26,48.5C 25.8333,48.1667 25.6667,47.8333 25.5,47.5C 26.7287,46.7189 28.062,46.2189 29.5,46C 27.2925,44.9525 25.6258,43.4525 24.5,41.5C 23.6236,41.3691 22.9569,41.7025 22.5,42.5C 23.5628,44.366 22.8961,44.866 20.5,44C 20.6638,41.3012 20.8305,38.4679 21,35.5C 21.9246,34.9535 22.7579,34.2868 23.5,33.5C 22.7542,32.2638 22.4208,30.9305 22.5,29.5C 21.448,29.6495 20.448,29.4828 19.5,29C 21.6785,28.5581 22.3452,27.5581 21.5,26C 19.8739,26.1953 18.2072,26.1953 16.5,26C 17.5634,24.8118 18.8967,24.3118 20.5,24.5C 22.6547,24.628 24.6547,24.128 26.5,23C 25.5,22.6667 24.5,22.3333 23.5,22C 25.1667,21.6667 26.8333,21.3333 28.5,21C 27.944,20.6174 27.6107,20.1174 27.5,19.5C 27.9046,18.4502 28.5712,18.4502 29.5,19.5C 30.1131,20.9798 30.4464,22.3131 30.5,23.5C 31.2575,22.1886 32.2575,21.6886 33.5,22C 32.5419,23.1475 32.8753,24.1475 34.5,25C 30.5,25.6667 30.5,26.3333 34.5,27C 32.8988,27.2734 31.3988,27.7734 30,28.5C 29.654,30.2182 29.154,31.8849 28.5,33.5C 29.868,34.5937 31.0347,34.2603 32,32.5C 33.3333,33.8333 34.6667,33.8333 36,32.5C 36.4922,33.549 36.3256,34.549 35.5,35.5C 36.9337,36.2298 38.1004,37.2298 39,38.5C 39.8699,37.8921 40.3699,37.0588 40.5,36C 38.1747,34.5478 38.1747,32.8812 40.5,31C 39.6634,29.9887 39.33,28.8221 39.5,27.5 Z"/></g>
<g><path style="opacity:1" fill="#b840b4" d="M 67.5,29.5 C 66.8333,30.1667 66.1667,30.8333 65.5,31.5C 65.281,30.325 65.6143,29.325 66.5,28.5C 67.1067,28.6236 67.44,28.9569 67.5,29.5 Z"/></g>
<g><path style="opacity:1" fill="#86fb5a" d="M 54.5,31.5 C 54.5,31.8333 54.5,32.1667 54.5,32.5C 53.7627,30.6182 52.5961,29.9515 51,30.5C 50.1932,26.551 49.6932,26.551 49.5,30.5C 48.5,30.5 47.5,30.5 46.5,30.5C 46.9175,29.7784 47.5842,29.2784 48.5,29C 47.6919,28.6924 47.0253,28.1924 46.5,27.5C 49.2567,26.1339 51.4233,26.8005 53,29.5C 53.3333,29.1667 53.6667,28.8333 54,28.5C 54.4828,29.448 54.6495,30.448 54.5,31.5 Z"/></g>
<g><path style="opacity:1" fill="#9d6ea5" d="M 58.5,32.5 C 59.4333,35.3702 61.1,37.7036 63.5,39.5C 62.1745,39.2052 60.8412,39.7052 59.5,41C 60.7112,41.8928 60.7112,42.7261 59.5,43.5C 58.8076,42.9747 58.3076,42.3081 58,41.5C 57.3292,42.2524 56.4959,42.5858 55.5,42.5C 57.126,41.0757 58.4593,39.2424 59.5,37C 58.0654,37.3112 56.7321,37.1445 55.5,36.5C 54.9041,37.7161 54.7374,39.0494 55,40.5C 53.6667,41.8333 52.3333,41.8333 51,40.5C 51.1484,39.175 50.9817,38.0084 50.5,37C 49.2575,36.6886 48.2575,37.1886 47.5,38.5C 47.5105,37.5585 47.0105,36.8919 46,36.5C 45.228,36.6448 44.5613,36.9781 44,37.5C 43.2195,36.0563 43.3861,34.723 44.5,33.5C 45.6956,33.8457 45.6956,34.3457 44.5,35C 46.445,34.8718 48.2784,35.0385 50,35.5C 52.0263,35.0853 53.5263,34.0853 54.5,32.5C 54.5,32.1667 54.5,31.8333 54.5,31.5C 56.1951,30.1736 57.5284,30.5069 58.5,32.5 Z"/></g>
<g><path style="opacity:1" fill="#5cce9c" d="M 94.5,35.5 C 95.6006,36.8484 96.6006,38.3484 97.5,40C 96.552,40.4828 95.552,40.6495 94.5,40.5C 94.5,38.8333 94.5,37.1667 94.5,35.5 Z"/></g>
<g><path style="opacity:1" fill="#963095" d="M 24.5,41.5 C 25.8748,39.9302 27.5415,39.0969 29.5,39C 28.1667,39.6667 28.1667,40.3333 29.5,41C 27.8659,41.4935 26.1992,41.6602 24.5,41.5 Z"/></g>
<g><path style="opacity:1" fill="#69b78a" d="M 99.5,44.5 C 99.5,44.8333 99.5,45.1667 99.5,45.5C 96.5693,45.9103 95.9026,47.2436 97.5,49.5C 96.2823,48.2689 94.949,47.1022 93.5,46C 94.3081,45.6924 94.9747,45.1924 95.5,44.5C 94.1854,43.1054 94.5188,42.1054 96.5,41.5C 97.1411,42.9935 98.1411,43.9935 99.5,44.5 Z"/></g>
<g><path style="opacity:1" fill="#d2afbf" d="M 55.5,42.5 C 55.9175,43.2216 56.5842,43.7216 57.5,44C 57.1667,44.3333 56.8333,44.6667 56.5,45C 57.5,45.3333 58.5,45.6667 59.5,46C 54.0851,45.534 52.7518,47.3674 55.5,51.5C 53.9435,53.7015 52.7768,53.7015 52,51.5C 51,51.8333 50,52.1667 49,52.5C 48.0975,51.2986 46.9308,50.4652 45.5,50C 46.8989,49.4054 48.2322,49.5721 49.5,50.5C 50.7112,49.7261 50.7112,48.8928 49.5,48C 50.1667,47.6667 50.8333,47.3333 51.5,47C 49.4325,46.3131 47.4325,46.4798 45.5,47.5C 44.354,46.8551 43.354,46.0217 42.5,45C 46.5,44.6667 50.5,44.3333 54.5,44C 52.0684,42.9125 52.4017,42.4125 55.5,42.5 Z"/></g>
<g><path style="opacity:1" fill="#86bf85" d="M -0.5,45.5 C -0.5,44.5 -0.5,43.5 -0.5,42.5C 0.880401,41.2935 2.04707,41.6269 3,43.5C 2.57834,46.0977 2.57834,48.7644 3,51.5C 3.33333,50.8333 3.66667,50.1667 4,49.5C 4.43963,51.0762 5.27296,52.4096 6.5,53.5C 5.41795,53.7486 4.08462,53.9152 2.5,54C 3.87206,55.2419 4.87206,56.7419 5.5,58.5C 4.50118,62.3609 3.33452,62.3609 2,58.5C 1.66667,58.8333 1.33333,59.1667 1,59.5C 1.55237,54.5767 1.55237,49.5767 1,44.5C 0.617425,45.056 0.117425,45.3893 -0.5,45.5 Z"/></g>
<g><path style="opacity:1" fill="#8fbe90" d="M 78.5,56.5 C 77.5442,55.3406 76.5442,54.1739 75.5,53C 76.3396,51.8288 77.1729,50.6621 78,49.5C 78.3176,51.0609 79.1509,52.2276 80.5,53C 79.9152,54.3024 79.2485,55.469 78.5,56.5 Z"/></g>
<g><path style="opacity:1" fill="#6797a6" d="M 65.5,47.5 C 67.7659,47.1412 69.5993,47.8078 71,49.5C 71.414,49.0426 71.914,48.7093 72.5,48.5C 73.2621,49.6283 73.9288,50.7949 74.5,52C 73.6634,53.0113 73.33,54.1779 73.5,55.5C 56.6583,55.8298 39.9916,55.4965 23.5,54.5C 24.6085,53.71 25.9419,53.21 27.5,53C 26.1667,52.3333 26.1667,51.6667 27.5,51C 30.1667,50.6667 32.8333,50.3333 35.5,50C 34.0953,48.7308 32.4286,48.2308 30.5,48.5C 30.3398,46.8008 30.5065,45.1341 31,43.5C 31.6667,45.5 33,46.8333 35,47.5C 35.3333,46.8333 35.6667,46.1667 36,45.5C 36.1922,47.5767 36.6922,49.5767 37.5,51.5C 39.3276,49.1927 40.9943,49.526 42.5,52.5C 41.8333,52.8333 41.1667,53.1667 40.5,53.5C 48.145,54.6648 55.8117,54.8315 63.5,54C 62.7471,52.513 61.9138,52.3463 61,53.5C 59.6012,52.7734 58.1012,52.2734 56.5,52C 58.2556,51.7978 59.9223,51.2978 61.5,50.5C 62.0354,48.7295 62.8687,48.3961 64,49.5C 64.2784,48.5842 64.7784,47.9175 65.5,47.5 Z"/></g>
<g><path style="opacity:1" fill="#a2dcb7" d="M 23.5,54.5 C 39.9916,55.4965 56.6583,55.8298 73.5,55.5C 75.1172,56.038 76.7839,56.3713 78.5,56.5C 77.7375,57.2679 76.7375,57.7679 75.5,58C 75.9863,60.0266 75.9863,62.1933 75.5,64.5C 74.8333,64.5 74.5,64.1667 74.5,63.5C 74.5,63.1667 74.5,62.8333 74.5,62.5C 74.5,60.5 74.5,58.5 74.5,56.5C 72.8008,56.3398 71.1341,56.5065 69.5,57C 70.7604,58.113 71.927,58.2797 73,57.5C 73.6667,58.5 73.6667,59.5 73,60.5C 72.2303,59.4019 71.397,59.4019 70.5,60.5C 68.9519,60.1788 68.2852,59.1788 68.5,57.5C 53.3389,56.3388 38.0055,56.1721 22.5,57C 23.7525,58.8278 23.7525,60.6612 22.5,62.5C 21.8333,62.5 21.5,62.8333 21.5,63.5C 21.5,65.8333 21.5,68.1667 21.5,70.5C 19.712,70.7852 18.0453,70.4519 16.5,69.5C 17.09,68.2011 18.09,67.3678 19.5,67C 18.0439,66.5774 17.5439,65.7441 18,64.5C 18.7175,65.4506 19.5509,65.6172 20.5,65C 19.2249,62.5063 17.8916,60.0063 16.5,57.5C 17.5821,57.2514 18.9154,57.0848 20.5,57C 20.0426,56.586 19.7093,56.086 19.5,55.5C 20.2132,53.2241 20.7132,50.8907 21,48.5C 23.8274,50.2543 23.9941,52.0876 21.5,54C 22.0944,54.4643 22.7611,54.631 23.5,54.5 Z"/></g>
<g><path style="opacity:1" fill="#f25a40" d="M 68.5,57.5 C 55.1311,57.6566 41.9644,57.6566 29,57.5C 27.6764,58.8802 26.3431,59.2135 25,58.5C 24.7003,60.0657 25.2003,61.399 26.5,62.5C 25.1667,62.5 23.8333,62.5 22.5,62.5C 23.7525,60.6612 23.7525,58.8278 22.5,57C 38.0055,56.1721 53.3389,56.3388 68.5,57.5 Z"/></g>
<g><path style="opacity:1" fill="#c5f0dc" d="M 68.5,57.5 C 68.2852,59.1788 68.9519,60.1788 70.5,60.5C 71.1667,61.1667 71.8333,61.8333 72.5,62.5C 57.1667,62.5 41.8333,62.5 26.5,62.5C 25.2003,61.399 24.7003,60.0657 25,58.5C 26.3431,59.2135 27.6764,58.8802 29,57.5C 41.9644,57.6566 55.1311,57.6566 68.5,57.5 Z"/></g>
<g><path style="opacity:1" fill="#988f93" d="M 99.5,45.5 C 99.5,51.5 99.5,57.5 99.5,63.5C 97.6096,63.7035 96.1096,63.0368 95,61.5C 96.0271,58.2361 95.1938,55.4028 92.5,53C 93.1258,52.2496 93.6258,51.4162 94,50.5C 95.2166,52.6124 96.3832,52.2791 97.5,49.5C 95.9026,47.2436 96.5693,45.9103 99.5,45.5 Z"/></g>
<g><path style="opacity:1" fill="#e57556" d="M 74.5,62.5 C 73.8333,62.5 73.1667,62.5 72.5,62.5C 71.8333,61.8333 71.1667,61.1667 70.5,60.5C 71.397,59.4019 72.2303,59.4019 73,60.5C 73.6667,59.5 73.6667,58.5 73,57.5C 71.927,58.2797 70.7604,58.113 69.5,57C 71.1341,56.5065 72.8008,56.3398 74.5,56.5C 74.5,58.5 74.5,60.5 74.5,62.5 Z"/></g>
<g><path style="opacity:1" fill="#849aa5" d="M 77.5,65.5 C 76.2756,63.5842 76.2756,61.2508 77.5,58.5C 79.288,58.2148 80.9547,58.5481 82.5,59.5C 82.3241,61.6716 82.1575,64.0049 82,66.5C 80.6439,65.6198 79.1439,65.2865 77.5,65.5 Z"/></g>
<g><path style="opacity:1" fill="#79f648" d="M 21.5,63.5 C 21.5,62.8333 21.8333,62.5 22.5,62.5C 23.8333,62.5 25.1667,62.5 26.5,62.5C 41.8333,62.5 57.1667,62.5 72.5,62.5C 73.1667,62.5 73.8333,62.5 74.5,62.5C 74.5,62.8333 74.5,63.1667 74.5,63.5C 58.2196,63.633 41.8862,63.9664 25.5,64.5C 24.2921,63.7659 22.9587,63.4326 21.5,63.5 Z"/></g>
<g><path style="opacity:1" fill="#54988a" d="M 94.5,68.5 C 92.0417,69.6201 90.0417,68.9535 88.5,66.5C 88.8869,65.2801 89.7202,64.6135 91,64.5C 92.749,65.4098 93.9157,66.7431 94.5,68.5 Z"/></g>
<g><path style="opacity:1" fill="#698399" d="M 74.5,63.5 C 74.5,64.1667 74.8333,64.5 75.5,64.5C 76.1667,64.8333 76.8333,65.1667 77.5,65.5C 78.2625,66.2679 79.2625,66.7679 80.5,67C 79.2068,67.49 77.8734,67.6567 76.5,67.5C 76.6495,68.552 76.4828,69.552 76,70.5C 73.8683,69.2203 71.7016,69.2203 69.5,70.5C 68.8333,69.8333 68.1667,69.1667 67.5,68.5C 66.4593,70.9913 65.6259,70.9913 65,68.5C 62.5217,69.3319 60.0217,69.4986 57.5,69C 57.9574,68.586 58.2907,68.086 58.5,67.5C 61.7848,66.6764 65.1182,66.1764 68.5,66C 64.1667,65.3333 59.8333,65.3333 55.5,66C 56.5981,66.7697 56.5981,67.603 55.5,68.5C 54.5349,68.4003 53.3683,68.7336 52,69.5C 51.9591,67.9744 50.7925,66.9744 48.5,66.5C 45.3601,65.3592 42.0267,65.1925 38.5,66C 40.158,66.7253 40.658,67.892 40,69.5C 39.6924,68.6919 39.1924,68.0253 38.5,67.5C 33.9675,68.1398 29.4675,68.8065 25,69.5C 24.5,68.3333 23.6667,67.5 22.5,67C 24.5,66.6667 26.5,66.3333 28.5,66C 27.2625,65.7679 26.2625,65.2679 25.5,64.5C 41.8862,63.9664 58.2196,63.633 74.5,63.5 Z"/></g>
<g><path style="opacity:1" fill="#ddddd7" d="M -0.5,60.5 C 0.779138,61.968 2.4458,62.6347 4.5,62.5C 4.11923,64.9418 4.7859,65.6085 6.5,64.5C 7.31844,66.1083 7.9851,67.7749 8.5,69.5C 7.97473,70.1924 7.30806,70.6924 6.5,71C 9.54426,71.3589 9.87759,72.0255 7.5,73C 8.57075,73.8518 9.57075,74.6851 10.5,75.5C 10.5852,76.9953 9.91851,77.9953 8.5,78.5C 7.06628,77.0642 5.89961,75.3975 5,73.5C 5,74.8333 5,76.1667 5,77.5C 3.60541,76.1854 2.60541,76.5188 2,78.5C 0.753486,76.1192 0.420152,76.4525 1,79.5C 2.80289,79.0945 4.63622,79.5945 6.5,81C 4.84202,81.7253 4.34202,82.892 5,84.5C 5.33333,83.8333 5.66667,83.1667 6,82.5C 7.23605,84.5384 9.06938,85.7051 11.5,86C 10.5,86.3333 9.5,86.6667 8.5,87C 11.0309,88.4888 13.1975,90.3222 15,92.5C 15.3333,92.1667 15.6667,91.8333 16,91.5C 16.4561,92.7441 15.9561,93.5774 14.5,94C 15.4162,94.3742 16.2496,94.8742 17,95.5C 17.9669,94.3224 18.4669,92.989 18.5,91.5C 19.1757,92.6016 19.8423,93.6016 20.5,94.5C 21.2297,96.045 22.563,96.8784 24.5,97C 24.1667,97.3333 23.8333,97.6667 23.5,98C 24.4158,98.2784 25.0825,98.7784 25.5,99.5C 16.8333,99.5 8.16667,99.5 -0.5,99.5C -0.5,86.5 -0.5,73.5 -0.5,60.5 Z"/></g>
<g><path style="opacity:1" fill="#f8f9f9" d="M 98.5,72.5 C 98.8333,72.5 99.1667,72.5 99.5,72.5C 99.5,81.5 99.5,90.5 99.5,99.5C 91.1667,99.5 82.8333,99.5 74.5,99.5C 76.6287,98.7972 78.6287,97.7972 80.5,96.5C 81.0249,95.2718 82.3582,94.4384 84.5,94C 83.8333,93.6667 83.1667,93.3333 82.5,93C 83.9785,91.8069 85.3118,91.3069 86.5,91.5C 85.3984,90.8243 84.3984,90.1577 83.5,89.5C 85.4672,89.2606 87.3005,89.5939 89,90.5C 89.0442,88.3562 90.2108,86.5229 92.5,85C 91.9056,84.5357 91.2389,84.369 90.5,84.5C 90.5,84.1667 90.5,83.8333 90.5,83.5C 91.8221,83.33 92.9887,83.6634 94,84.5C 94.2321,83.2625 94.7321,82.2625 95.5,81.5C 96.6477,82.895 97.6477,82.7284 98.5,81C 98.3729,78.1271 98.3729,75.2937 98.5,72.5 Z"/></g>
<g><path style="opacity:1" fill="#8aff48" d="M 0.5,70.5 C 3.50783,72.3464 3.6745,74.0131 1,75.5C 1.7712,73.82 1.60453,72.1533 0.5,70.5 Z"/></g>
<g><path style="opacity:1" fill="#9cb4ad" d="M 43.5,80.5 C 42.7784,80.0825 42.2784,79.4158 42,78.5C 41,79.8333 40,79.8333 39,78.5C 38.5439,77.2559 39.0439,76.4226 40.5,76C 39.8333,75.6667 39.1667,75.3333 38.5,75C 40.797,73.8403 40.4637,72.8403 37.5,72C 39.8483,71.8898 41.3483,70.7231 42,68.5C 42.2492,69.624 42.7492,70.624 43.5,71.5C 44.1067,71.3764 44.44,71.0431 44.5,70.5C 44.281,69.325 44.6143,68.325 45.5,67.5C 46.7112,68.2739 46.7112,69.1072 45.5,70C 46.5,71 47.5,72 48.5,73C 45.3346,72.554 44.668,74.054 46.5,77.5C 45.2299,78.2876 44.2299,79.2876 43.5,80.5 Z"/></g>
<g><path style="opacity:1" fill="#a6a789" d="M 99.5,67.5 C 99.5,69.1667 99.5,70.8333 99.5,72.5C 99.1667,72.5 98.8333,72.5 98.5,72.5C 94.8169,73.9465 94.1502,76.1131 96.5,79C 96.2568,79.9021 95.9234,80.7354 95.5,81.5C 94.7321,82.2625 94.2321,83.2625 94,84.5C 92.9887,83.6634 91.8221,83.33 90.5,83.5C 88.7314,82.6419 87.8981,80.9752 88,78.5C 86.8615,78.9891 85.6948,79.3225 84.5,79.5C 84.3398,77.8008 84.5065,76.1341 85,74.5C 85.3333,75.5 85.6667,76.5 86,77.5C 87.0468,73.2577 89.5468,71.4244 93.5,72C 93.1667,71.6667 92.8333,71.3333 92.5,71C 93.756,70.5831 94.4226,69.7498 94.5,68.5C 97.0176,67.3063 97.0176,66.1396 94.5,65C 95.9437,64.2195 97.277,64.3861 98.5,65.5C 97.0116,67.8857 97.3449,68.5524 99.5,67.5 Z"/></g>
<g><path style="opacity:1" fill="#a0ff60" d="M 98.5,72.5 C 98.3729,75.2937 98.3729,78.1271 98.5,81C 97.6477,82.7284 96.6477,82.895 95.5,81.5C 95.9234,80.7354 96.2568,79.9021 96.5,79C 94.1502,76.1131 94.8169,73.9465 98.5,72.5 Z"/></g>
<g><path style="opacity:1" fill="#98aa95" d="M 39.5,99.5 C 35.1667,99.5 30.8333,99.5 26.5,99.5C 26.9175,98.7784 27.5842,98.2784 28.5,98C 27.1667,97 25.8333,96 24.5,95C 24.8333,94.6667 25.1667,94.3333 25.5,94C 24.0039,93.4926 22.8373,93.9926 22,95.5C 21.6174,94.944 21.1174,94.6107 20.5,94.5C 20.5,93.1667 20.5,91.8333 20.5,90.5C 19.1266,90.6567 17.7932,90.49 16.5,90C 17.1667,89.6667 17.8333,89.3333 18.5,89C 16.6494,88.1628 14.8161,87.3295 13,86.5C 12.2797,84.8876 12.4464,83.3876 13.5,82C 12.8742,81.2496 12.3742,80.4162 12,79.5C 10.4612,84.6037 9.12791,84.6037 8,79.5C 8.33333,79.8333 8.66667,80.1667 9,80.5C 9.81595,79.1772 10.9826,78.5106 12.5,78.5C 14.3786,78.6068 14.7119,78.1068 13.5,77C 15.1796,76.9657 16.6796,76.799 18,76.5C 18.4828,77.448 18.6495,78.448 18.5,79.5C 16.8967,79.3118 15.5634,79.8118 14.5,81C 15.8333,82 15.8333,83 14.5,84C 15.8333,84 17.1667,84 18.5,84C 18.1667,85 17.8333,86 17.5,87C 18.7425,87.3114 19.7425,86.8114 20.5,85.5C 21.8448,86.3467 22.8448,87.5134 23.5,89C 24.4491,89.6172 25.2825,89.4506 26,88.5C 26.3333,89.5 26.6667,90.5 27,91.5C 28.7698,90.7236 30.6031,90.8903 32.5,92C 31.3659,93.016 31.6992,93.6827 33.5,94C 32.3279,94.4186 31.3279,95.0853 30.5,96C 32.7249,98.0032 34.3915,97.5032 35.5,94.5C 35.8333,95.8333 36.1667,97.1667 36.5,98.5C 38.7354,97.2479 41.0687,96.7479 43.5,97C 41.9336,97.6082 40.6002,98.4415 39.5,99.5 Z"/></g>
<g><path style="opacity:1" fill="#a7e464" d="M 10.5,75.5 C 11.9063,75.9731 12.573,76.9731 12.5,78.5C 10.9826,78.5106 9.81595,79.1772 9,80.5C 8.66667,80.1667 8.33333,79.8333 8,79.5C 9.12791,84.6037 10.4612,84.6037 12,79.5C 12.3742,80.4162 12.8742,81.2496 13.5,82C 12.4464,83.3876 12.2797,84.8876 13,86.5C 14.8161,87.3295 16.6494,88.1628 18.5,89C 17.8333,89.3333 17.1667,89.6667 16.5,90C 17.7932,90.49 19.1266,90.6567 20.5,90.5C 20.5,91.8333 20.5,93.1667 20.5,94.5C 19.8423,93.6016 19.1757,92.6016 18.5,91.5C 18.4669,92.989 17.9669,94.3224 17,95.5C 16.2496,94.8742 15.4162,94.3742 14.5,94C 15.9561,93.5774 16.4561,92.7441 16,91.5C 15.6667,91.8333 15.3333,92.1667 15,92.5C 13.1975,90.3222 11.0309,88.4888 8.5,87C 9.5,86.6667 10.5,86.3333 11.5,86C 9.06938,85.7051 7.23605,84.5384 6,82.5C 5.66667,83.1667 5.33333,83.8333 5,84.5C 4.34202,82.892 4.84202,81.7253 6.5,81C 4.63622,79.5945 2.80289,79.0945 1,79.5C 0.420152,76.4525 0.753486,76.1192 2,78.5C 2.60541,76.5188 3.60541,76.1854 5,77.5C 5,76.1667 5,74.8333 5,73.5C 5.89961,75.3975 7.06628,77.0642 8.5,78.5C 9.91851,77.9953 10.5852,76.9953 10.5,75.5 Z"/></g>
<g><path style="opacity:1" fill="#94bf8d" d="M 48.5,66.5 C 50.7925,66.9744 51.9591,67.9744 52,69.5C 53.3683,68.7336 54.5349,68.4003 55.5,68.5C 56.3909,69.2613 57.0576,70.2613 57.5,71.5C 53.2297,75.7852 54.2297,78.2852 60.5,79C 59.9535,79.9246 59.2868,80.7579 58.5,81.5C 57.3044,81.1543 57.3044,80.6543 58.5,80C 56.8333,79.3333 55.1667,79.3333 53.5,80C 54.8333,81 54.8333,82 53.5,83C 55.1341,83.4935 56.8008,83.6602 58.5,83.5C 58.5,84.5 58.5,85.5 58.5,86.5C 54.4557,87.0421 50.789,86.2088 47.5,84C 48.5,83.6667 49.5,83.3333 50.5,83C 48.9194,82.2935 47.4194,81.4601 46,80.5C 45.6667,81.1667 45.3333,81.8333 45,82.5C 44.7216,81.5842 44.2216,80.9175 43.5,80.5C 44.2299,79.2876 45.2299,78.2876 46.5,77.5C 44.668,74.054 45.3346,72.554 48.5,73C 47.5,72 46.5,71 45.5,70C 46.7112,69.1072 46.7112,68.2739 45.5,67.5C 44.6143,68.325 44.281,69.325 44.5,70.5C 43.8141,69.1516 42.8141,67.985 41.5,67C 43.8098,66.5034 46.1432,66.3367 48.5,66.5 Z"/></g>
<g><path style="opacity:1" fill="#9eda6b" d="M 76.5,82.5 C 77.7759,83.3864 77.7759,84.3864 76.5,85.5C 75.913,84.7666 75.913,83.7666 76.5,82.5 Z"/></g>
<g><path style="opacity:1" fill="#9e778d" d="M 90.5,83.5 C 90.5,83.8333 90.5,84.1667 90.5,84.5C 89.8826,84.3893 89.3826,84.056 89,83.5C 86.9604,85.3702 85.1271,87.3702 83.5,89.5C 83.1667,89.5 82.8333,89.5 82.5,89.5C 82.2172,88.7109 81.7172,88.0442 81,87.5C 79.6152,88.5505 78.6152,89.8839 78,91.5C 77.4209,90.0715 77.5876,88.7382 78.5,87.5C 78.7086,86.0783 79.2086,84.745 80,83.5C 80.3333,83.8333 80.6667,84.1667 81,84.5C 82.1404,82.7208 83.307,81.0541 84.5,79.5C 85.6948,79.3225 86.8615,78.9891 88,78.5C 87.8981,80.9752 88.7314,82.6419 90.5,83.5 Z"/></g>
<g><path style="opacity:1" fill="#9efa65" d="M 90.5,84.5 C 91.2389,84.369 91.9056,84.5357 92.5,85C 90.2108,86.5229 89.0442,88.3562 89,90.5C 87.3005,89.5939 85.4672,89.2606 83.5,89.5C 85.1271,87.3702 86.9604,85.3702 89,83.5C 89.3826,84.056 89.8826,84.3893 90.5,84.5 Z"/></g>
<g><path style="opacity:1" fill="#9bfb5a" d="M 82.5,89.5 C 82.8333,89.5 83.1667,89.5 83.5,89.5C 84.3984,90.1577 85.3984,90.8243 86.5,91.5C 85.3118,91.3069 83.9785,91.8069 82.5,93C 83.1667,93.3333 83.8333,93.6667 84.5,94C 82.3582,94.4384 81.0249,95.2718 80.5,96.5C 78.3964,96.2927 76.063,96.126 73.5,96C 77.5246,95.1273 80.5246,92.9607 82.5,89.5 Z"/></g>
<g><path style="opacity:1" fill="#7cbc8b" d="M 45.5,93.5 C 46.5,93.5 47.5,93.5 48.5,93.5C 48.5,94.5 48.5,95.5 48.5,96.5C 47.5,96.5 46.5,96.5 45.5,96.5C 45.5,95.5 45.5,94.5 45.5,93.5 Z"/></g>
<g><path style="opacity:1" fill="#aec48d" d="M 78.5,87.5 C 77.5876,88.7382 77.4209,90.0715 78,91.5C 78.6152,89.8839 79.6152,88.5505 81,87.5C 81.7172,88.0442 82.2172,88.7109 82.5,89.5C 80.5246,92.9607 77.5246,95.1273 73.5,96C 76.063,96.126 78.3964,96.2927 80.5,96.5C 78.6287,97.7972 76.6287,98.7972 74.5,99.5C 67.5,99.5 60.5,99.5 53.5,99.5C 54.6085,98.71 55.9419,98.21 57.5,98C 56.5,97.6667 55.5,97.3333 54.5,97C 55.1667,96.8333 55.8333,96.6667 56.5,96.5C 59.1314,97.5533 61.798,98.0533 64.5,98C 65.1667,97.3333 65.8333,96.6667 66.5,96C 64.9052,96.6171 63.5719,96.2837 62.5,95C 63.3247,93.3117 64.3247,93.1451 65.5,94.5C 66.3333,93.5 67.1667,92.5 68,91.5C 68.2189,92.938 68.7189,94.2713 69.5,95.5C 71.9123,94.4227 74.2457,93.256 76.5,92C 74.2733,90.1645 72.4399,90.6645 71,93.5C 70.5,93 70,92.5 69.5,92C 71.1691,90.331 73.1691,89.4977 75.5,89.5C 75.3505,88.448 75.5172,87.448 76,86.5C 76.6708,87.2524 77.5041,87.5858 78.5,87.5 Z"/></g>
<g><path style="opacity:1" fill="#8afc4b" d="M 26.5,99.5 C 26.1667,99.5 25.8333,99.5 25.5,99.5C 25.0825,98.7784 24.4158,98.2784 23.5,98C 23.8333,97.6667 24.1667,97.3333 24.5,97C 22.563,96.8784 21.2297,96.045 20.5,94.5C 21.1174,94.6107 21.6174,94.944 22,95.5C 22.8373,93.9926 24.0039,93.4926 25.5,94C 25.1667,94.3333 24.8333,94.6667 24.5,95C 25.8333,96 27.1667,97 28.5,98C 27.5842,98.2784 26.9175,98.7784 26.5,99.5 Z"/></g>
<g><path style="opacity:1" fill="#60b47d" d="M 50.5,99.5 C 49.1667,99.5 47.8333,99.5 46.5,99.5C 47.8015,98.074 49.3015,96.7407 51,95.5C 51.7504,96.1258 52.5838,96.6258 53.5,97C 52.4293,97.8518 51.4293,98.6851 50.5,99.5 Z"/></g>
</svg>
