<?xml version="1.0"?><svg xmlns="http://www.w3.org/2000/svg" width="36" height="36" shape-rendering="geometricPrecision" text-rendering="geometricPrecision" image-rendering="optimizeQuality" fill-rule="evenodd" clip-rule="evenodd" viewBox="0 0 36 36"><path fill="#ddd" d="m14.9-0.1h0.6c-0.2 0.2-0.4 0.2-0.6 0z" opacity=".004"></path><path fill="#fefffe" d="m20.8-0.1h0.5c-0.2 0.2-0.4 0.2-0.5 0z" opacity=".004"></path><path fill="#a6a7a6" d="m14.8 0.2c-0.1 0-0.2 0-0.3-0.1 0.1-0.1 0.2-0.1 0.3 0.1z" opacity=".012"></path><path fill="#999" d="m16.6-0.1h2.9c0.5 0.2 1 0.2 1.6 0.3-0.2 0-0.4 0.1-0.6 0.2-0.1 0.4-0.3 0.7-0.4 1.1-0.5 0-1 0-1.5 0-0.1 0.3-0.1 0.6-0.1 0.9 0 0.3 0.1 0.6 0.2 0.9-0.2 0.1-0.2 0.3-0.1 0.5 0.4 0 0.8 0.2 1.1 0.4h-1c-2.1-0.4-4.1-0.2-6 0.8-0.1-0.4 0-0.8 0.4-1.1 0-0.4 0.1-0.7 0.2-1 0.1 0.3 0.2 0.7 0.4 1 0 0 0.1-0.1 0.1-0.1h0.3c-0.1-0.7-0.3-1.3-0.5-1.9 0 0.3 0 0.7 0.2 1.1 0 0.1-0.1 0.2-0.1 0.3-0.2-0.4-0.3-0.9-0.5-1.3 0-0.1 0.1-0.2 0.1-0.2l-0.4-0.1c0.3-0.2 0.6-0.3 0.9-0.3-0.1-0.3 0-0.6 0.3-0.7-0.4-0.1-0.7 0-1.1 0v-0.1c0.1 0 0.3 0 0.3-0.1 0.4 0 0.7-0.1 1-0.2 0.2 0 0.4 0 0.5-0.1 0.6-0.1 1.2-0.1 1.8-0.3z"></path><path fill="#bcbcbc" d="m14.3 0.3c-0.1 0-0.2 0-0.3-0.1 0.1-0.1 0.3 0 0.3 0.1z" opacity=".012"></path><path fill="#a6a7a6" d="m13.4 0.4c0.1-0.1 0.2-0.1 0.4-0.1-0.1 0.1-0.2 0.1-0.4 0.1z" opacity=".012"></path><path fill="#c3c3c3" d="m13.3 0.5c-0.1 0-0.1 0-0.2-0.1 0.1 0 0.2 0 0.2 0.1z" opacity=".012"></path><path fill="#fefffe" d="m22.8 0.5c0.1-0.1 0.2-0.1 0.3-0.1-0.1 0.1-0.2 0.1-0.3 0.1z" opacity=".004"></path><path fill="#bcbcbc" d="m13 0.6c-0.1 0-0.2 0-0.3 0 0.1-0.1 0.2-0.1 0.3 0z" opacity=".012"></path><path fill="#ececec" d="m21.1 0.2c0.6 0.1 1.1 0.2 1.7 0.3 0.5 0.2 0.9 0.3 1.4 0.5 0.2 0.1 0.5 0.2 0.7 0.3 0.1-0.1 0.1-0.1 0-0.2 0.2 0 0.3 0 0.5 0.1l-0.3 0.2c0.1 0 0.2 0 0.3 0.1-0.1 0.1-0.2 0.1-0.4 0.1 0.1 0.1 0.2 0.2 0.4 0.2-0.1 0-0.2 0.1-0.3 0.2-0.4 0.9-0.8 1.8-1.2 2.6 0 0.1 0.1 0.2 0.1 0.2-0.1 0.1-0.2 0.1-0.2 0.2-0.9-0.4-1.8-0.6-2.7-0.8-0.5 0-1.1-0.2-1.6-0.3 0.1-0.4 0.2-0.8 0.2-1.3 0-0.3 0-0.6-0.2-0.8 0.1-0.1 0.2-0.1 0.4-0.1-0.1 0.5 0 1 0.2 1.4 0 0 0 0.1 0 0.1 0.2-0.5 0.2-1 0.1-1.6 0 0 0-0.1-0.1-0.1 0.1-0.4 0.3-0.7 0.4-1.1 0.2-0.1 0.4-0.2 0.6-0.2z" opacity=".998"></path><path fill="#a6a7a6" d="m12.4 0.6c0.2 0.1 0.2 0.1 0 0z" opacity=".012"></path><path fill="#e0e0e0" d="m12.3 0.8c-0.1 0.1-0.1 0-0.2 0 0.1-0.1 0.2-0.1 0.2 0z" opacity=".004"></path><path fill="#a6a7a6" d="m12 1c-0.1 0-0.2 0-0.2-0.1 0.1-0.1 0.1-0.1 0.2 0.1z" opacity=".012"></path><path fill="#f8f8f8" d="m24.2 1c0.1-0.2 0.2-0.2 0.3-0.1-0.1 0.1-0.2 0.1-0.3 0.1z" opacity=".004"></path><path fill="#d2d2d2" d="m24.9 1.1c-0.1 0-0.2 0-0.3-0.1 0.1-0.1 0.2-0.1 0.3 0.1z" opacity=".012"></path><path fill="#707070" d="m12.9 0.7c-0.3 0.2-0.6 0.4-0.9 0.5-0.2 0.1-0.4 0.2-0.6 0.2-0.3 0.2-0.6 0.3-1 0.5-0.1 0.1-0.3 0.2-0.4 0.2h-0.3l0.7-0.5c0.6-0.1 1.1-0.4 1.6-0.6 0.1 0 0.2-0.1 0.3-0.2 0.2 0 0.4 0 0.6-0.1z" opacity=".788"></path><path fill="#9a9a9a" d="m21.2 1.2c0.2-0.2 0.3-0.1 0.5 0-0.2 0.7-0.3 1.4-0.5 2.1 0-0.6 0-1.3 0.2-1.9 0-0.1-0.1-0.2-0.2-0.2z"></path><path fill="#9b9b9b" d="m23.9 1.9c-0.5-0.2-1-0.4-1.6-0.5 0.6-0.1 1.2 0 1.6 0.5z"></path><path fill="#c2c2c2" d="m12 1.2c-0.4 1-0.7 2-1 3l-0.4 0.5c-0.3 0.6-0.7 1.2-1.1 1.8l0.1 0.3c0.5-0.1 1-0.3 1.5-0.6-0.2 0.4-0.5 0.6-0.9 0.6-0.7 0.4-1.3 0.9-1.8 1.5-0.1-0.1-0.1-0.2-0.2-0.1 0.4-0.5 0.7-1.1 0.8-1.7 0.3-0.4 0.5-0.8 0.8-1.2 0.5-1.1 1-2.3 1.6-3.4 0-0.2 0-0.3 0-0.5 0.2 0 0.4-0.1 0.6-0.2z"></path><path fill="#a6a7a6" d="m10.4 1.6c-0.1 0-0.2 0-0.2 0 0.1-0.1 0.2-0.1 0.2 0z" opacity=".012"></path><path fill="#fefffe" d="m25.8 1.6c0.1-0.1 0.2-0.1 0.4 0h-0.4z" opacity=".004"></path><path fill="#e1e1e1" d="m13.7 3.3l0.1 0.5c0 0-0.1 0.1-0.1 0.1-0.2-0.3-0.3-0.7-0.4-1 0-0.2-0.1-0.3-0.1-0.5-0.1-0.1-0.2-0.1-0.3 0-0.3 1-0.8 2.1-1.2 3.1-0.3 0-0.5 0.2-0.5 0.5l-0.1 0.2c-0.5 0.3-1 0.5-1.5 0.6l-0.1-0.3c0.4-0.6 0.8-1.2 1.1-1.8l0.4-0.5c0.3-1 0.6-2 1-3 0.3-0.1 0.6-0.3 0.9-0.5h0.1c0.4 0 0.7-0.1 1.1 0-0.3 0.1-0.4 0.4-0.3 0.7-0.3 0-0.6 0.1-0.9 0.3l0.4 0.1c0 0-0.1 0.1-0.1 0.2 0.2 0.4 0.3 0.9 0.5 1.3z"></path><path fill="#fefffe" d="m26.2 1.6c0.1 0.1 0.1 0.1 0 0z m0.2 0.3c0-0.2 0.1-0.2 0.2-0.1-0.1 0.1-0.1 0.1-0.2 0.1z" opacity=".004"></path><path fill="#aeaeae" d="m11.4 1.4c0 0.2 0 0.3 0 0.5-0.6 1.1-1.1 2.3-1.6 3.4-0.3 0.4-0.5 0.8-0.8 1.2-0.1 0.6-0.4 1.2-0.8 1.7-0.6 0.5-1.1 1-1.5 1.6-0.2-0.2-0.4-0.4-0.7-0.5-0.9 0.2-1.3 0.8-1.2 1.7 0.3 0.2 0.6 0.4 1 0.3-0.3 0.6-0.5 1.2-0.5 1.8-0.2 0.4-0.3 0.9-0.4 1.4-0.1-0.8 0-1.5 0.4-2.2-0.4-0.2-0.8-0.5-1.4-0.8-0.4-1.4 0.1-2.4 1.3-3.2 0.4 0 0.7-0.1 1-0.1 0 0.2 0.1 0.2 0.3 0.1 0.2 0.2 0.5 0.2 0.9 0.1 0.1-0.2 0.3-0.3 0.5-0.5 0.9-1.9 1.8-3.9 2.7-5.9-0.1 0-0.1-0.1-0.2-0.1 0.4-0.2 0.7-0.3 1-0.5z"></path><path fill="#fefffe" d="m26.7 2.1c0.1-0.1 0.1-0.2 0.2-0.1 0 0.1-0.1 0.1-0.2 0.1z" opacity=".004"></path><path fill="#6e6e6e" d="m16.7 1.4c0.8-0.1 1.3 0.2 1.5 1-0.2 0.8-0.7 1-1.5 0.6-0.4-0.5-0.4-1 0-1.6z"></path><path fill="#9f9f9f" d="m17 1.7c0.3 0 0.5 0.1 0.7 0.3 0 0.2 0 0.5 0 0.8-1 0.2-1.2-0.2-0.7-1.1z"></path><path fill="#a6a7a6" d="m27.2 2.2c-0.1-0.2-0.1-0.2 0 0z" opacity=".012"></path><path fill="#797979" d="m18.6 1.5c0.5 0 1 0 1.5 0 0.1 0 0.1 0.1 0.2 0.1 0 0.6 0 1.1-0.2 1.6 0 0 0-0.1 0-0.1 0.1-0.5 0.1-0.9 0-1.4-0.3-0.1-0.7-0.1-0.9 0.3-0.1 0.3-0.2 0.7-0.2 1.1 0-0.1-0.1-0.1-0.2-0.1 0-0.5-0.1-1-0.2-1.5z"></path><path fill="#fefffe" d="m27.2 2.2c0.1 0.1 0.1 0.1 0 0z" opacity=".004"></path><path fill="#707070" d="m15.4 1.6h0.5v0.4c-0.2-0.1-0.4 0-0.5 0.2 0 0.4 0 0.8 0.1 1.2-0.2 0.1-0.3 0-0.4-0.1-0.1-0.4-0.2-0.9-0.3-1.3 0.2-0.3 0.4-0.3 0.5 0 0.1-0.1 0.1-0.3 0.1-0.4z"></path><path fill="#f7f7f7" d="m25.4 1.5l0.4 0.1c0.3 0.2 0.6 0.4 0.9 0.5 0.1 0.1 0.3 0.2 0.5 0.2 0.3 0.3 0.8 0.6 1.2 0.8v0.1c0.1 0.1 0.1 0.2 0.2 0.3-0.1 0-0.2 0.1-0.3 0.2-0.5 1-0.9 2.1-1.5 3.1-0.9-0.7-1.9-1.3-3-1.8 0-0.1 0.1-0.1 0.2-0.2 0 0-0.1-0.1-0.1-0.2 0.4-0.8 0.8-1.7 1.2-2.6 0.1-0.1 0.2-0.2 0.3-0.2-0.2 0-0.3-0.1-0.4-0.2 0.2 0 0.3 0 0.4-0.1z"></path><path fill="#9f9f9f" d="m22.4 2c0.1 0 0.1 0.1 0.2 0.1-0.1 0.4-0.2 0.7-0.3 1 0.3 0.2 0.7 0.3 1 0.3-0.3 0.2-0.7 0.1-1-0.1 0-0.4 0-0.9 0.1-1.3z"></path><path fill="#c3c3c3" d="m18.6 1.5c0.1 0.5 0.2 1 0.2 1.5 0.1 0 0.2 0 0.2 0.1 0-0.4 0.1-0.8 0.2-1.1 0.2-0.4 0.6-0.4 0.9-0.3 0.1 0.5 0.1 0.9 0 1.4-0.2-0.4-0.3-0.9-0.2-1.4-0.2 0-0.3 0-0.4 0.1 0.2 0.2 0.2 0.5 0.2 0.8 0 0.5-0.1 0.9-0.2 1.3 0.5 0.1 1.1 0.3 1.6 0.3h-1.4c-0.3-0.2-0.7-0.4-1.1-0.4-0.1-0.2-0.1-0.4 0.1-0.5-0.1-0.3-0.2-0.6-0.2-0.9 0-0.3 0-0.6 0.1-0.9z"></path><path fill="#a6a7a6" d="m28.4 3c0.2 0.1 0.2 0.1 0 0z" opacity=".012"></path><path fill="#969696" d="m23.9 1.9c0.3 0.1 0.4 0.3 0.3 0.6 0.1 0.4-0.1 0.8-0.4 1 0.2-0.3 0.3-0.6 0.3-1 0-0.2-0.1-0.4-0.2-0.6z"></path><path fill="#a6a7a6" d="m7.1 3.4c0.2 0.1 0.2 0.1 0 0z" opacity=".012"></path><path fill="#696969" d="m13.8 3.8l-0.1-0.5c0-0.1 0.1-0.2 0.1-0.3-0.2-0.4-0.2-0.8-0.2-1.1 0.2 0.6 0.4 1.2 0.5 1.9h-0.3z"></path><path fill="#a6a7a6" d="m29.2 3.5c0.1 0.1 0.1 0.1 0 0z" opacity=".012"></path><path fill="#e2e2e2" d="m28.4 3.2c0.3 0.2 0.5 0.3 0.8 0.5 0 0 0 0.1 0.1 0.1 0 0.2 0.1 0.3 0.3 0.3 0.1 0.2 0.1 0.3 0.2 0.5 0.1-0.2 0.1-0.2 0.2 0-0.2 0.2-0.4 0.5-0.4 0.9h-0.3c0 0.2-0.1 0.5-0.3 0.7 0 0-0.1-0.1-0.2-0.1-0.2 0.2-0.3 0.2-0.5 0.3 0.2 0.1 0.4 0.3 0.7 0.4l0.3-0.2c0.1 0 0.1 0 0.1 0.1 0 0.1 0 0.2-0.1 0.3h-0.3c-0.1 0.5-0.2 1-0.5 1.4-0.5-0.6-1.1-1.1-1.7-1.6 0.6-1 1-2.1 1.5-3.1 0.1-0.1 0.2-0.2 0.3-0.2-0.1-0.1-0.1-0.2-0.2-0.3z"></path><path fill="#535353" d="m29.3 3.8c0.2 0 0.3 0.2 0.3 0.3-0.2 0-0.3-0.1-0.3-0.3z" opacity=".631"></path><path fill="#fefffe" d="m29.9 4.1c0.1 0.1 0.1 0.1 0 0z" opacity=".004"></path><path fill="#5b5b5b" d="m18.7 4.2h1.2c0.8 0.1 1.7 0.4 2.5 0.7-0.6 0.1-1.2 0.3-1.8 0.4-2.7-0.5-5.4-0.1-7.9 1.1-0.2-0.1-0.4-0.2-0.6-0.3 0.1-0.2 0.1-0.4 0.2-0.6 2-1 4.2-1.4 6.4-1.3z"></path><path fill="#a6a7a6" d="m30.2 4.3c0.2 0.1 0.2 0.1 0 0z" opacity=".012"></path><path fill="#fefffe" d="m5.8 4.9c-0.1 0-0.1 0-0.1 0.1-0.3 0-0.3-0.1 0-0.2 0 0 0.1 0 0.1 0.1z" opacity=".004"></path><path fill="#b3b3b3" d="m13.3 2.9c-0.1 0.3-0.2 0.6-0.2 1-0.4 0.3-0.5 0.7-0.4 1.1-0.5 0.1-0.7 0.3-0.7 0.6-0.3 0.2-0.5 0.3-0.8 0.4 0-0.3 0.2-0.5 0.5-0.5 0.4-1 0.9-2.1 1.2-3.1 0.1-0.1 0.2-0.1 0.3 0 0 0.2 0.1 0.3 0.1 0.5z"></path><path fill="#c2c2c2" d="m29.6 4.1l0.3 0.1c0.3 0.3 0.5 0.5 0.8 0.8-0.1 0.2-0.3 0.5-0.5 0.6 0.2 0 0.3 0.1 0.5 0.1-0.2 0.2-0.4 0.3-0.6 0.4-0.3 0.2-0.5 0.1-0.3-0.2-0.1-0.1-0.2-0.2-0.3-0.3 0 0.4 0 0.7-0.1 1.1 0-0.1 0-0.1-0.1-0.1l-0.3 0.2c-0.3-0.1-0.5-0.3-0.7-0.4 0.2-0.1 0.3-0.1 0.5-0.3 0.1 0 0.2 0.1 0.2 0.1 0.2-0.2 0.3-0.5 0.3-0.7h0.3c0-0.4 0.2-0.7 0.4-0.9-0.1-0.2-0.1-0.2-0.2 0-0.1-0.2-0.1-0.3-0.2-0.5z"></path><path fill="#525252" d="m22.4 4.9c2.4 0.7 4.4 2 6 3.8-0.1 0.1-0.2 0.1-0.3-0.1l-0.1 0.1c-0.1-0.1-0.3-0.1-0.5-0.1l-1.2-0.7c-0.4-0.3-0.8-0.5-1.3-0.8-0.3-0.3-0.7-0.5-1.2-0.6-0.9-0.5-1.8-0.8-2.8-1-0.1-0.1-0.2-0.2-0.4-0.2 0.6-0.1 1.2-0.3 1.8-0.4z"></path><path fill="#919191" d="m20.6 5.3c0.2 0 0.3 0.1 0.4 0.2-0.3-0.1-0.5 0-0.7 0.1-0.2 0.3-0.4 0.7-0.4 1.1 0.5-0.1 0.9 0.1 1 0.7l-0.4-0.5-0.1 0.1c0.2 0.2 0.3 0.4 0.4 0.7-0.3 0-0.4 0-0.5-0.2l-0.6 0.9c-0.4-0.3-0.8-0.3-1.2 0 0.3 0.1 0.2 0.2-0.1 0.3 0.3 0 0.6 0.1 0.9 0.2l-0.8 0.1c-0.1 0.2-0.2 0.3-0.4 0.3 1.3 0.3 1.3 0.4-0.2 0.5l1.8 0.1c-0.6 0-1.2 0.1-1.9 0.2 0 0.2 0 0.4 0 0.6 0 0-0.1 0.1-0.2 0-0.4 0-0.9-0.1-1.3-0.2-1.9-0.4-3.8-0.9-5.7-1.4 0-0.1-0.1-0.2-0.2-0.2 0.2-0.1 0.3-0.3 0.2-0.5 0.4-0.4 0.6-0.8 0.8-1.3 0.4-0.2 0.8-0.5 1.3-0.7 2.5-1.2 5.2-1.6 7.9-1.1z"></path><path fill="#d0d0d0" d="m7.4 5.8c0.1 0 0.3 0 0.4 0.1-0.2 0.2-0.5 0.3-0.8 0.5-0.2-0.1-0.3-0.2-0.4-0.4l-0.1 0.4c-0.3-0.1-0.6-0.1-0.9 0 0.2-0.2 0.5-0.3 0.8-0.4l0.2-1c0 0.4 0.1 0.8 0.4 1.2 0.1-0.2 0.2-0.3 0.4-0.4z"></path><path fill="#ababab" d="m30.7 5c0.4 0.4 0.8 0.8 1.1 1.2 0.1 0.3 0.2 0.5 0.4 0.7-0.7 1.2-1.3 2.6-1.7 4.1-0.1-0.1-0.1-0.1-0.2-0.1l-0.7-1.2c0.6-1.2 1.2-2.4 1.7-3.7 0 0.2 0.1 0.2 0.1 0-0.1-0.1-0.2-0.1-0.3-0.2-0.2 0.4-0.4 0.8-0.6 1.1-0.2-0.1-0.2-0.3-0.1-0.5 0 0-0.1-0.1-0.2 0 0-0.2 0-0.2-0.1-0.3 0.2-0.1 0.4-0.2 0.6-0.4-0.2 0-0.3-0.1-0.5-0.1 0.2-0.1 0.4-0.4 0.5-0.6z"></path><path fill="#f8f8f8" d="m4.6 6.2c-0.1 0-0.2 0.1-0.2 0.2 0 0-0.1 0-0.1 0.1 0 0-0.1 0-0.1 0.1-0.1 0-0.1 0-0.1 0.1-0.1 0-0.1 0.1-0.1 0.2-0.1 0-0.1 0.1-0.1 0.1-0.1 0-0.1 0.1-0.1 0.1-0.1 0.1-0.2 0.2-0.1 0.3-0.1 0-0.2 0-0.2 0.1 0.1 0.1 0 0.2-0.1 0.2-0.1 0-0.1 0.1 0 0.1 0 0.1-0.1 0.2-0.2 0.2-0.1 0.1-0.1 0.1 0 0.2 0 0 0 0.1-0.1 0.1s-0.1 0-0.1 0.1c-0.2 0-0.2 0.1 0 0.1 0 0.1-0.1 0.1-0.1 0.1-0.2 0-0.2 0.1 0 0.1 0 0.1-0.1 0.1-0.1 0.1-0.2 0.1-0.2 0.1 0 0.1 0 0.1-0.1 0.2-0.2 0.2s-0.1 0-0.1 0.1c-0.1 0-0.1 0 0 0.1 0 0.1 0 0.1-0.1 0.1-0.1 0-0.1 0.1 0 0.1 0 0.1 0 0.1-0.1 0.1-0.1 0.1-0.1 0.1 0 0.1 0 0.1 0 0.1-0.1 0.1-0.1 0.1-0.1 0.2-0.1 0.3-0.1 0-0.1 0-0.1 0.1-0.1 0.1-0.2 0.2-0.1 0.3-0.1 0.1-0.2 0.1-0.2 0.2-0.1 0.1-0.1 0.2-0.1 0.3-0.1 0-0.1 0.2-0.1 0.3-0.2-0.4-0.3-0.8-0.2-1.2 0.2-0.7 0.4-1.5 0.6-2.2 0.6-1 1.4-1.6 2.6-1.9 0.1 0.1 0.1 0.2 0.1 0.2z" opacity=".004"></path><path fill="#e0e0e0" d="m31.9 6.2c0 0 0-0.1 0-0.2 0.1 0.1 0.1 0.2 0 0.2z" opacity=".004"></path><path fill="#838383" d="m30.1 6.1c0.1 0.1 0.1 0.1 0.1 0.3v0.7c-0.3 0-0.6-0.1-0.9-0.1 0.1-0.1 0.1-0.2 0.1-0.3 0.1-0.4 0.1-0.7 0.1-1.1 0.1 0.1 0.2 0.2 0.3 0.3-0.2 0.3 0 0.4 0.3 0.2z"></path><path fill="#c5c5c5" d="m23.8 6.5c0.5 0.1 0.9 0.3 1.2 0.6-0.2 0-0.4 0.1-0.6 0.3-0.5 0.6-0.9 1.3-1.2 2-0.1 0.1-0.2 0.1-0.3 0.2 0.1 0 0.1 0.1 0.1 0.2-0.1 0.3-0.3 0.6-0.6 0.8 0.1 0.2 0.1 0.3-0.2 0.3 0.2 0.1 0.3 0.2 0.4 0.3-0.4 0.1-0.7 0.1-1.1 0.3 0.2 0 0.4 0 0.6 0 0.6 0.2 0.1 0.2-1.5 0 0.4 0.1 0.5 0 0.4-0.3 0-0.2 0.1-0.3 0.2-0.5-0.3-0.7-0.2-0.7 0.3-0.1 0.3-0.1 0.3-0.3 0.2-0.6 0.4-0.2 0.8-0.2 1.2-0.1-0.1-0.1-0.1-0.3-0.2-0.4-0.3 0.3-0.7 0.3-1-0.1 0.2 0 0.4 0 0.6-0.1-0.1 0-0.3-0.1-0.4-0.2 0.1 0 0.2-0.1 0.3-0.2 0.1-0.4 0.4-0.9 0.7-1.3l-0.1-0.1c0.1-0.2 0.3-0.4 0.5-0.6l-0.1-0.2c0.2-0.1 0.4-0.2 0.6-0.2z"></path><path fill="#a0a0a0" d="m31.8 6.2h0.1c0.2 0.2 0.3 0.5 0.4 0.7 0 0.1 0.1 0.3 0.2 0.4-0.2-0.1-0.3 0-0.3 0.2-0.3 0.6-0.6 1.3-0.8 1.9 0.2 0.2 0.2 0.4 0 0.5 0.3 0.2 0.3 0.4 0.3 0.6 0.1 0 0.3 0.1 0.4 0.2 0 0 0.1 0 0.1-0.1 0.8 0.5 1.5 0.3 2-0.4 0.1 0 0.1 0.1 0.2 0.2-0.3 0.4-0.6 0.8-0.9 1.1-0.8 0.2-1.5 0.7-2.1 1.3 0.2 0.1 0.2 0.3 0.1 0.4l-0.4-0.5c-0.1 0-0.1 0-0.1 0.1-0.1-0.2-0.2-0.4-0.3-0.6l-0.5-1.1 0.1-0.2c0.1 0 0.1 0 0.2 0.1 0.4-1.5 1-2.9 1.7-4.1-0.2-0.2-0.3-0.4-0.4-0.7z"></path><path fill="#a6a7a6" d="m32.7 7c0.1 0.1 0.1 0.1 0 0z" opacity=".012"></path><path fill="#bdbdbd" d="m29.6 9.7c-0.3-0.4-0.7-0.9-1.1-1.3 0.3-0.4 0.4-0.9 0.5-1.4h0.3c0.3 0 0.6 0.1 0.9 0.1v-0.7c0.1-0.1 0.2 0 0.2 0-0.1 0.2-0.1 0.4 0.1 0.5 0.2-0.3 0.4-0.7 0.5-1.1 0.2 0.1 0.3 0.1 0.4 0.2 0 0.2-0.1 0.2-0.1 0-0.5 1.3-1.1 2.5-1.7 3.7z"></path><path fill="#959595" d="m32.3 6.9l0.4 0.2c0 0.3 0.1 0.4 0.3 0.5v0.2c0.1 0.2 0.1 0.4 0.2 0.6-0.2 0.3-0.3 0.6-0.5 0.9 0.2 0.3 0.3 0.6 0.3 1 0.5-0.1 0.7-0.4 0.8-0.9 0 0.1 0 0.2 0 0.3 0.2 0.1 0.3 0 0.3-0.1 0.1 0.1 0.2 0.1 0.2 0.2 0.1 0 0.1 0 0.1-0.1 0.1 0.1 0.1 0.1 0.1 0.3-0.1 0-0.1 0-0.1 0.1s0 0.1 0.1 0.1c0 0.1 0 0.2 0.1 0.2 0 0.1 0 0.2 0.1 0.2v0.4c-0.1-0.2-0.2-0.4-0.3-0.6-0.1-0.1-0.1-0.2-0.2-0.2-0.5 0.7-1.2 0.9-2 0.4 0 0.1-0.1 0.1-0.1 0.1-0.1-0.1-0.3-0.2-0.4-0.2 0-0.2 0-0.4-0.3-0.6 0.2-0.1 0.2-0.3 0-0.4 0.2-0.7 0.5-1.4 0.8-2 0-0.2 0.1-0.3 0.3-0.2-0.1-0.1-0.2-0.3-0.2-0.4z"></path><path fill="#929292" d="m19.9 4.2h1.2c0.9 0.2 1.8 0.4 2.7 0.8 1.1 0.5 2.1 1.1 3 1.8 0.6 0.5 1.2 1 1.7 1.6 0.4 0.4 0.8 0.9 1.1 1.3l0.7 1.2-0.1 0.2c-0.5-0.9-1.1-1.7-1.8-2.4-1.6-1.8-3.6-3.1-6-3.8-0.8-0.3-1.7-0.6-2.5-0.7z"></path><path fill="#aaa" d="m21 5.5c1 0.2 1.9 0.5 2.8 1-0.2 0-0.4 0.1-0.6 0.3l0.1 0.1c-0.2 0.2-0.4 0.4-0.5 0.6l0.1 0.1c-0.3 0.4-0.6 0.9-0.7 1.3-0.1 0.1-0.2 0.2-0.3 0.2 0.1 0.1 0.3 0.2 0.4 0.2-0.2 0.1-0.4 0.1-0.6 0.1 0.3 0.4 0.7 0.4 1 0.1 0.1 0.1 0.1 0.3 0.2 0.4-0.4-0.1-0.8-0.1-1.2 0.1 0.1 0.3 0.1 0.5-0.2 0.6-0.5-0.6-0.6-0.6-0.3 0.1-0.1 0.2-0.2 0.3-0.2 0.5 0.1 0.3 0 0.4-0.4 0.3-1-0.3-2-0.5-3-0.8 0.1 0.1 0.2 0 0.2 0 0-0.2 0-0.4 0-0.6 0.7-0.1 1.3-0.2 1.9-0.2l-1.8-0.1c1.5-0.1 1.5-0.2 0.2-0.5 0.2 0 0.3-0.1 0.4-0.3l0.8-0.1c-0.3-0.1-0.6-0.2-0.9-0.2 0.3-0.1 0.4-0.2 0.1-0.3 0.4-0.3 0.8-0.3 1.2 0l0.6-0.9c0.1 0.2 0.2 0.2 0.5 0.2-0.1-0.3-0.2-0.5-0.4-0.7l0.1-0.1 0.4 0.5c-0.1-0.6-0.5-0.8-1-0.7 0-0.4 0.2-0.8 0.4-1.1 0.2-0.1 0.4-0.2 0.7-0.1z"></path><path fill="#a6a7a6" d="m33 7.5c0.2 0.1 0.2 0.1 0 0z" opacity=".012"></path><path fill="#818181" d="m18.7 4.2c-2.2-0.1-4.4 0.3-6.4 1.3-0.1 0.2-0.1 0.4-0.2 0.6 0.2 0.1 0.4 0.2 0.6 0.3-0.5 0.2-0.9 0.5-1.3 0.7-0.9 0.5-1.5 1.1-1.8 2-0.1 0.2-0.3 0.5-0.5 0.7 0 0.2-0.1 0.4-0.4 0.5 0.1 0.1 0.1 0.2 0.1 0.2-0.2 0.3-0.4 0.5-0.5 0.8 0 0.1 0 0.1 0.1 0.2-0.5 0.3-0.7 0.8-0.8 1.3-0.3 0.3-0.3 0.7 0 1l-0.1 0.1c-0.1-0.2-0.3-0.3-0.5-0.2 0.2 0.2 0.5 0.4 0.7 0.5-0.2 0.2-0.5 0.3-0.8 0.1l-0.2-0.3c0 0.1 0 0.3-0.1 0.4l0.1 0.1c-0.2 0.1-0.4 0.2-0.5 0.5-0.1 0-0.2 0-0.3-0.1 0.1-0.5 0.2-1 0.3-1.6 0.3-0.5 0.6-1.1 0.8-1.7 0.4-0.4 0.7-0.9 1-1.5-0.1-0.2-0.3-0.5-0.5-0.7 0.2-0.4 0.5-0.8 0.9-1.1 0.5-0.6 1.1-1.1 1.8-1.6 0.4 0.1 0.7-0.1 0.9-0.5l0.1-0.2c0.3-0.1 0.5-0.2 0.8-0.4 0-0.3 0.2-0.5 0.7-0.6 1.9-1 3.9-1.2 6-0.8z"></path><path fill="#a6a7a6" d="m33.2 7.8c0.2 0.1 0.2 0.1 0 0z" opacity=".012"></path><path fill="#dcdcdc" d="m25 7.1c0.5 0.3 0.9 0.5 1.3 0.8 1.1 0.9 2 2 2.7 3.2-0.1 0.1-0.1 0.3 0 0.4-0.4 0.5-0.8 1-1 1.4-0.2 0.1-0.3 0.1-0.4 0.1 0 0.3 0 0.7 0 1-0.2-1.5-0.3-1.4-0.3 0.1-0.3-0.1-0.5-0.3-0.7-0.4-0.1-0.3-0.1-0.5-0.2-0.7 0.1 0 0.2-0.1 0.3-0.1 0-0.2 0-0.3 0-0.4 0.4 0.3 0.4 0.2 0-0.2 0.1-0.1 0.2-0.1 0.3 0 0.2-0.2 0.5-0.4 0.6-0.7l-0.2-0.1c0.1-0.3 0.2-0.6 0.3-0.9-0.1-0.4-0.3-0.9-0.6-1.3-0.3-0.1-0.6-0.3-0.9-0.5-0.1 0-0.1 0.1-0.2 0.1-0.2-0.3-0.4-0.4-0.7-0.2l0.3 0.1c-0.1 0-0.2 0.1-0.3 0.3-0.1-0.1-0.2-0.2-0.2-0.3-0.1 0.3-0.3 0.6-0.5 0.9l0.2 0.1c-0.1 0-0.2 0.1-0.3 0.2 0.1 0 0.2 0 0.4 0.1 0.1-0.3 0.2-0.3 0.2 0-0.4 0.1-0.8 0.1-1.2 0.1 1.9 0.2 1.9 0.3-0.1 0.4-0.3 0.2-0.5 0.5-0.8 0.8-0.3 0-0.6 0-0.9 0.1-0.2 0-0.4 0-0.6 0 0.4-0.2 0.7-0.2 1.1-0.2-0.1-0.2-0.2-0.3-0.4-0.4 0.3 0 0.3-0.1 0.2-0.3 0.3-0.2 0.5-0.5 0.6-0.8 0-0.1 0-0.2-0.1-0.2 0.1-0.1 0.2-0.1 0.3-0.2 0.3-0.7 0.7-1.4 1.2-2 0.2-0.2 0.4-0.3 0.6-0.3z"></path><path fill="#a6a7a6" d="m33.5 8.2c-0.1-0.2-0.1-0.2 0 0z m0 0c0.1 0 0.1 0 0 0z" opacity=".012"></path><path fill="#616161" d="m26.3 7.9l1.2 0.7c0.2 0 0.4 0 0.5 0.1l0.1-0.1c0.1 0.2 0.2 0.2 0.3 0.1 0.7 0.7 1.3 1.5 1.8 2.4l0.5 1.1c-0.2 0.2-0.4 0.4-0.6 0.6 0.1 0.2 0.1 0.3 0 0.4-0.1-0.4-0.3-0.8-0.6-1.1-0.1-0.4-0.3-0.7-0.5-1-0.7-1.2-1.6-2.3-2.7-3.2z"></path><path fill="#808080" d="m33 7.8l0.2 0.1c0 0.1 0.1 0.2 0.2 0.3 0 0.2 0.1 0.3 0.3 0.4 0 0.3 0.2 0.5 0.3 0.7 0 0.1 0.1 0.2 0.1 0.3 0 0.1-0.1 0.2-0.3 0.1 0-0.1 0-0.2 0-0.3-0.1 0.5-0.3 0.8-0.8 0.9 0-0.4-0.1-0.7-0.3-1 0.2-0.3 0.3-0.6 0.5-0.9-0.1-0.2-0.1-0.4-0.2-0.6z"></path><path fill="#a6a7a6" d="m33.7 8.5c0.1 0.1 0.1 0.1 0 0z m0.4 0.8h-0.1c0.1-0.3 0.1-0.3 0.1 0z" opacity=".012"></path><path fill="#c0c0c0" d="m6.7 9.8c-0.3 0.6-0.6 1-0.9 1.5-0.4 0.1-0.7-0.1-1-0.3-0.1-0.9 0.3-1.5 1.2-1.7 0.3 0.1 0.5 0.3 0.7 0.5z"></path><path fill="#a6a7a6" d="m34.1 9.3c0.2 0.1 0.2 0.1 0 0z" opacity=".012"></path><path fill="#9b9b9b" d="m9.7 2.1h0.3c0 0.1 0.1 0.1 0.2 0.2-0.5 1-0.9 2-1.4 3-0.2 0.1-0.4 0.3-0.5 0.5 0-0.1-0.1-0.2-0.2-0.2-0.3 0-0.5 0.1-0.7 0.2-0.2 0.1-0.3 0.2-0.4 0.4-0.3-0.4-0.4-0.8-0.4-1.2l-0.2 1c-0.3 0.1-0.6 0.2-0.8 0.4 0.6 0.2 0.8 0.6 0.5 1.3-0.6 0-1.1 0.3-1.5 0.7-0.1-0.1-0.1-0.1-0.2-0.1-0.2 0.2-0.4 0.4-0.7 0.4 0 0.2-0.1 0.5-0.3 0.6 0.1 0.1 0.1 0.2 0.1 0.3 0 0.2-0.1 0.4-0.2 0.6 0 0.6 0.1 1.1 0.5 1.6-0.1 0.1-0.1 0.1-0.1 0.2-0.5-0.2-0.9-0.2-1.3 0.1-0.3 0.5-0.4 1.1-0.5 1.7 0.7 0.1 1.4 0.3 2 0.5 0.2-0.5 0.4-1 0.4-1.5 0.2 0.1 0.3 0.3 0.4 0.5-0.2 0.6-0.4 1.2-0.6 1.7-0.1 0-0.1-0.1-0.2-0.1-0.8-0.2-1.5-0.3-2.3-0.3-0.1 0.1-0.1 0.3-0.1 0.5 0.7 0.1 1.4 0.2 2 0.3 0.1 0 0.2 0.1 0.3 0.2-0.2 0.1-0.3 0.1-0.5 0.2h-1.1c0 0.2-0.1 0.4-0.1 0.6 0 0.2 0 0.3 0.2 0.4 0 0.2-0.1 0.2-0.2 0.2-0.2 0.2-0.3 0.3-0.2 0.6 0.4 0 0.9 0 1.4 0.1-0.1 0-0.2 0.1-0.2 0.2-0.5-0.1-0.9 0.1-1 0.6-0.3 0.5-0.2 1 0.3 1.4-0.2 0.1-0.2 0.2 0.1 0.3 0.1 0.1 0.2 0.3 0.1 0.4h1.4c0 0.3 0 0.4-0.1 0.4-0.1-0.2-0.2-0.2-0.4-0.2-0.7 0.2-1.2 0-1.5-0.7l-0.2 0.2c-0.1 0.7-0.3 1.4-0.7 2 0 0.3 0 0.6 0 0.8v-0.1l-0.1-0.2v-0.1c0-0.1-0.1-0.2-0.2-0.3v-0.2c0-0.1 0-0.1-0.1-0.1v-0.4c0.1-0.2 0-0.2-0.1-0.3v-0.2c0-0.1 0-0.2-0.1-0.2-0.3-2.1-0.3-4.1 0-6.2 0.2-0.7 0.4-1.5 0.6-2.3 0.2-0.3 0.3-0.8 0.4-1.2 0.1-0.1 0.2-0.2 0.1-0.3 0.1-0.1 0.2-0.1 0.1-0.3 0.1 0 0.2-0.1 0.2-0.2 0.1-0.1 0.1-0.2 0.1-0.3 0 0 0.1-0.1 0.1-0.1 0.1-0.1 0.1-0.1 0.1-0.3 0.1 0 0.1 0 0.1-0.1v-0.1c0.1 0 0.1 0 0.1-0.1v-0.1c0.1 0 0.1 0 0.1-0.1v-0.1c0.1 0 0.1-0.1 0.1-0.1 0.1 0 0.2-0.1 0.2-0.2v-0.1c0 0 0.1 0 0.1-0.1v-0.1c0 0 0.1 0 0.1-0.1v-0.1c0.1 0 0.1-0.1 0.1-0.1 0.1 0 0.1-0.1 0.1-0.1v-0.2c0.1 0 0.2-0.1 0.2-0.2v-0.1c0.1 0 0.2-0.1 0.1-0.2 0.1 0 0.2-0.1 0.2-0.1 0.1-0.1 0.1-0.1 0.1-0.3 0 0 0.1 0 0.1-0.1 0.1 0 0.1 0 0.1-0.1 0.1 0 0.1-0.1 0.1-0.2 0.1 0 0.1 0 0.1-0.1 0.1 0 0.1-0.1 0.1-0.1 0.1 0 0.1-0.1 0.1-0.1 0.1 0 0.2-0.1 0.2-0.2 0.3-0.4 0.7-0.8 1.1-1.2 0.1 0 0.1 0 0.1-0.1 1.2-1.2 2.5-2.1 3.9-2.8z" opacity=".988"></path><path fill="#616161" d="m10.4 9.1c0.1 0.2 0.3 0.3 0.6 0.4 1.5 0.3 3 0.6 4.5 1-0.2 0.1-0.3 0.2-0.5 0.2 0.3 0.1 0.3 0.1 0 0.2v0.5c-0.4 0.5-0.7 1.1-0.9 1.7-0.9-1-1.8-2-2.7-3-0.1-0.2-0.3-0.3-0.4-0.3-0.3-0.2-0.5-0.4-0.8-0.6 0-0.1 0.1-0.2 0.2-0.1z"></path><path fill="#c0c0c0" d="m10.4 9.1h0.2c1.9 0.5 3.8 1 5.7 1.4-0.1 0-0.2 0.1-0.2 0.1-0.2 0-0.4 0-0.6-0.1-1.5-0.4-3-0.7-4.5-1-0.3-0.1-0.5-0.2-0.6-0.4z"></path><path fill="#b6b6b6" d="m7.5 9.4c0.2 0.2 0.4 0.5 0.5 0.7-0.3 0.6-0.6 1.1-1 1.5-0.2-0.2-0.3-0.6-0.4-0.9 0.2-0.5 0.5-0.9 0.9-1.3z"></path><path fill="#f7f7f7" d="m34.4 9.7c0 0 0-0.1 0.1-0.1 0.6 0.2 1.1 0.6 1.4 1.1v3.5c0 0-0.1 0.1-0.1 0.1-0.1 0-0.1-0.1-0.1-0.2 0.2-0.1 0.2-0.3 0-0.4 0-0.2 0-0.3-0.1-0.4-0.1 0-0.1-0.1-0.1-0.2 0.1 0 0.1-0.1 0-0.1l-0.1-0.2c0.1-0.1 0.1-0.2 0-0.3l-0.1-0.2c0.1 0 0.1-0.1 0-0.1 0-0.1-0.1-0.1-0.1-0.1v-0.1c0.1-0.1 0.1-0.1 0-0.1l-0.2-0.3c0.2 0 0.2 0 0-0.1 0.1-0.1 0-0.2-0.1-0.2v-0.1c0.1-0.1 0-0.2-0.1-0.2h-0.1v-0.1c0.2-0.1 0.2-0.2 0-0.3 0-0.1 0-0.2-0.1-0.2 0-0.1 0-0.2-0.1-0.2-0.1 0-0.1-0.1-0.1-0.1 0 0 0.1-0.1 0.1-0.1 0-0.2 0-0.2-0.1-0.3z" opacity=".027"></path><path fill="#e7e7e7" d="m27.3 14.1c0.1 0.1 0.3 0.2 0.4 0.4 0 0-0.1 0.1-0.2 0.1-0.3-0.3-0.6-0.5-1-0.6-0.5-0.4-1.1-0.8-1.6-1.2-0.2 0.1-0.2 0.2-0.3 0.3-1.3 1.2-2.6 2.5-3.8 3.8 0-0.1-0.1-0.2-0.2-0.4 0.2-0.1 0.3-0.2 0.2-0.4-0.3 0.4-0.6 0.8-0.9 1.1-0.1 0.1-0.2 0.1-0.3 0 0.6-0.7 1.3-1.4 2-2.1l0.1 0.3 0.4-0.4c-0.1 0-0.2 0-0.3-0.1 0.5-0.6 1-1.1 1.6-1.7 0.1 0.3 0.2 0.2 0.4 0-0.3-0.1-0.2-0.3 0-0.4 0.2 0.2 0.3 0.2 0.4-0.1-0.9-0.2-1.8-0.5-2.7-0.7-0.3 0-0.6-0.1-0.9-0.2-0.1-0.1-0.3-0.1-0.5-0.2-0.3 0-0.6-0.1-0.9-0.2-0.5-0.1-0.9-0.2-1.4-0.3-0.5-0.1-1.1-0.3-1.7-0.5 0 0 0.1-0.1 0.2-0.1 0.4 0.1 0.9 0.2 1.3 0.2 1 0.3 2 0.5 3 0.8 1.6 0.2 2.1 0.2 1.5 0 0.3-0.1 0.6-0.1 0.9-0.1 0.3-0.3 0.5-0.6 0.8-0.8 2-0.1 2-0.2 0.1-0.4 0.4 0 0.8 0 1.2-0.1 0-0.3-0.1-0.3-0.2 0-0.2-0.1-0.3-0.1-0.4-0.1 0.1-0.1 0.2-0.2 0.3-0.2l-0.2-0.1c0.2-0.3 0.4-0.6 0.5-0.9 0 0.1 0.1 0.2 0.2 0.3 0.1-0.2 0.2-0.3 0.3-0.3l-0.3-0.1c0.3-0.2 0.5-0.1 0.7 0.2 0.1 0 0.1-0.1 0.2-0.1 0.3 0.2 0.6 0.4 0.9 0.5 0.3 0.4 0.5 0.9 0.6 1.3-0.1 0.3-0.2 0.6-0.3 0.9l0.2 0.1c-0.1 0.3-0.4 0.5-0.6 0.7-0.1-0.1-0.2-0.1-0.3 0 0.4 0.4 0.4 0.5 0 0.2 0 0.1 0 0.2 0 0.4-0.1 0-0.2 0.1-0.3 0.1 0.1 0.2 0.1 0.4 0.2 0.7 0.2 0.1 0.4 0.3 0.7 0.4z"></path><path fill="#747474" d="m15.5 10.5c0.2 0.1 0.4 0.1 0.6 0.1 0.6 0.2 1.2 0.4 1.7 0.5-0.1 0.1-0.3 0.1-0.5 0.1-0.5 1.1-1.1 2.2-1.7 3.3 0.1 0.1 0.1 0.2 0.1 0.3-0.5-0.6-1.1-1.1-1.6-1.7 0.2-0.6 0.5-1.2 0.9-1.7v-0.5c0.3-0.1 0.3-0.1 0-0.2 0.2 0 0.3-0.1 0.5-0.2z"></path><path fill="#d2d2d2" d="m8.2 8.2c0.1-0.1 0.1 0 0.2 0.1-0.4 0.3-0.7 0.7-0.9 1.1-0.4 0.4-0.7 0.8-0.9 1.3 0.1 0.3 0.2 0.7 0.4 0.9-0.2 0.6-0.5 1.2-0.8 1.7 0.1 0 0-0.1 0-0.1l-0.1 0.2c-0.2-0.1-0.4-0.3-0.6-0.4 0 0.1-0.1 0.1-0.2 0.1 0-0.6 0.2-1.2 0.5-1.8 0.3-0.5 0.6-0.9 0.9-1.5 0.4-0.6 0.9-1.1 1.5-1.6z"></path><path fill="#818181" d="m17.8 11.1c0.5 0.1 0.9 0.2 1.4 0.3-0.1 0.1-0.2 0.2-0.4 0.1-0.5 1.4-1.2 2.7-2 4-0.1 0.1-0.1 0.3-0.1 0.4-0.3-0.4-0.7-0.7-1-1.1 0-0.1 0-0.2-0.1-0.3 0.6-1.1 1.2-2.2 1.7-3.3 0.2 0 0.4 0 0.5-0.1z"></path><path fill="#b7b7b7" d="m34.4 10.4c0.1 0.2 0.2 0.4 0.3 0.6h0.1c0 0.1 0 0.2 0.1 0.2v0.3c0 0-0.1-0.1-0.2-0.2-0.2 0.1-0.3 0-0.3-0.2-0.1 0.5-0.4 0.9-0.8 1.2 0.1 0.1 0.3 0.2 0.5 0.3 0.1 0.1 0.2 0.2 0.2 0.3l-0.3-0.1c-0.5-0.1-0.9 0.1-1.3 0.5-0.2 0.8 0.1 1.1 0.9 0.9-0.3 0.2-0.7 0.4-1 0.5-0.2-0.5-0.3-1.1-0.3-1.6-0.1 0.1-0.2 0.3-0.2 0.5 0.1 0.5 0.3 1 0.5 1.5-0.1 0.3-0.2 0.6-0.4 0.8 0 0-0.1-0.1-0.2-0.1-0.1 0.1-0.1 0.3-0.1 0.5-0.2-1.2-0.5-2.4-0.9-3.5 0-0.1 0-0.1 0.1-0.1l0.4 0.5c0.1-0.1 0.1-0.3-0.1-0.4 0.6-0.6 1.3-1.1 2.1-1.3 0.3-0.3 0.6-0.7 0.9-1.1z"></path><path fill="#949494" d="m19.2 11.4c0.3 0.1 0.6 0.2 0.9 0.2-0.2 0.2-0.4 0.4-0.5 0.6-0.8 1.4-1.5 2.8-2.2 4.2 0 0.1 0 0.2 0.1 0.3h-0.2c-0.2-0.3-0.4-0.5-0.6-0.8 0-0.1 0-0.3 0.1-0.4 0.8-1.3 1.5-2.6 2-4 0.2 0.1 0.3 0 0.4-0.1z"></path><path fill="#636363" d="m11.2 11.3c0.8 0.8 1.5 1.6 2.2 2.5-0.1 0.1-0.1 0.2 0 0.3 0 0.1-0.1 0.2-0.2 0.2l0.1 0.1c-0.2 0.4-0.4 0.8-0.6 1.2-0.6-1.2-1.1-2.4-1.6-3.6-0.1-0.3 0-0.5 0.1-0.7z"></path><path fill="#a5a5a5" d="m10.4 1.9c0.1 0 0.1 0.1 0.2 0.1-0.9 2-1.8 4-2.7 5.9-0.2 0.2-0.4 0.3-0.5 0.5-0.4 0.1-0.7 0.1-0.9-0.1-0.2 0.1-0.3 0.1-0.3-0.1-0.3 0-0.6 0.1-1 0.1-1.2 0.8-1.7 1.8-1.3 3.2 0.6 0.3 1 0.6 1.4 0.8-0.4 0.7-0.5 1.4-0.4 2.2-0.3 1.1-0.4 2.2-0.5 3.3 0 0-0.1 0-0.1-0.1-0.1 0.3-0.3 0.6-0.5 0.9-0.2-0.3-0.4-0.5-0.7-0.7 0-0.1 0.1-0.2 0.2-0.2-0.5-0.1-1-0.1-1.4-0.1-0.1-0.3 0-0.4 0.2-0.6v0.4c0.5-0.1 1 0 1.5 0.1 0.1-0.2 0.1-0.3 0.1-0.5-0.5 0.1-1 0-1.4-0.2 0-0.5 0.2-0.7 0.7-0.7 0.3 0.1 0.5 0.1 0.7 0.3 0.2-0.4 0-0.6-0.4-0.6 0.2-0.1 0.3-0.1 0.5-0.2-0.1-0.1-0.2-0.2-0.3-0.2-0.6-0.1-1.3-0.2-2-0.3 0-0.2 0-0.4 0.1-0.5v0.3c0.7 0.2 1.4 0.3 2.1 0.3l0.1 0.2c0.1-0.2 0.1-0.3 0.1-0.5 0.1 0 0.1 0.1 0.1 0.1 0.3-0.5 0.5-1.1 0.7-1.7-0.1-0.2-0.2-0.4-0.4-0.5-0.1-0.4-0.3-0.7-0.6-0.8 0-0.1 0-0.1 0.1-0.2-0.4-0.5-0.5-1-0.5-1.6 0.1-0.2 0.2-0.4 0.2-0.6 0-0.1 0-0.2-0.1-0.3 0.2-0.1 0.3-0.4 0.3-0.6 0.3 0 0.5-0.2 0.7-0.4 0.1 0 0.1 0 0.2 0.1 0.4-0.4 0.9-0.7 1.5-0.7 0.3-0.7 0.1-1.1-0.5-1.3 0.3-0.1 0.6-0.1 0.9 0l0.1-0.4c0.1 0.2 0.2 0.3 0.4 0.4 0.3-0.2 0.6-0.3 0.8-0.5-0.1-0.1-0.3-0.1-0.4-0.1 0.2-0.1 0.4-0.2 0.7-0.2 0.1 0 0.2 0.1 0.2 0.2 0.1-0.2 0.2-0.4 0.5-0.5 0.5-1 0.9-2 1.4-3-0.1-0.1-0.2-0.1-0.2-0.2 0.1 0 0.3-0.1 0.4-0.2z"></path><path fill="#5a5a5a" d="m6.9 6.5c0.8 0.5 0.7 0.7-0.2 0.5 0.1-0.1 0.2-0.3 0.2-0.5z"></path><path fill="#a7a7a7" d="m20.1 11.6c0.2 0.1 0.4 0.1 0.5 0.2-0.8 1.7-1.8 3.5-2.8 5.2 0.1 0.1 0.2 0.2 0.1 0.3-0.1-0.2-0.3-0.4-0.4-0.6-0.1-0.1-0.1-0.2-0.1-0.3 0.7-1.4 1.4-2.8 2.2-4.2 0.1-0.2 0.3-0.4 0.5-0.6z"></path><path fill="#e9e9e9" d="m34.9 11.5c0.2 0.8 0.1 1.4-0.3 2.1 0-0.3-0.1-0.5-0.3-0.7 0-0.1-0.1-0.2-0.2-0.3-0.2-0.1-0.3-0.2-0.5-0.3 0.4-0.3 0.7-0.7 0.8-1.2 0 0.2 0.1 0.3 0.3 0.2 0.1 0.1 0.2 0.2 0.2 0.2z"></path><path fill="#6f6f6f" d="m3.7 12c0.3 0.1 0.5 0.4 0.6 0.8 0 0.5-0.2 1-0.4 1.5-0.6-0.2-1.3-0.4-2-0.5 0.1-0.6 0.2-1.2 0.5-1.7 0.4-0.3 0.8-0.3 1.3-0.1z"></path><path fill="#bebebe" d="m20.6 11.8c0.3 0.1 0.6 0.2 0.9 0.2 0.1 0.1 0.1 0.1 0.2 0.2-0.9 1.9-2 3.8-3.1 5.7-0.2-0.1-0.5-0.4-0.7-0.6 0.1-0.1 0-0.2-0.1-0.3 1-1.7 2-3.5 2.8-5.2z"></path><path fill="#bcbcbc" d="m1.1 12.5c-0.2 0-0.2-0.2-0.1-0.3 0.1 0.1 0.1 0.2 0.1 0.3z" opacity=".012"></path><path fill="#a1a1a1" d="m2.9 12.2c1.1 0.1 1.4 0.6 0.9 1.6-0.5-0.1-1-0.2-1.5-0.4 0-0.5 0.2-0.9 0.6-1.2z"></path><path fill="#a6a7a6" d="m0.8 12.7c0.2 0 0.2 0.1 0.1 0.2-0.1-0.1-0.1-0.2-0.1-0.2z m-0.1 0.3c0.1 0 0.2 0.1 0.1 0.2-0.1 0-0.1-0.1-0.1-0.2z" opacity=".012"></path><path fill="#c8c8c8" d="m26.5 14c-0.5 0.4-0.9 0.9-1.1 1.4-0.8 0.3-1.6 0.7-2.3 1.1-0.4 0.1-0.9 0.3-1.2 0.5-0.4 0.2-0.9 0.3-1.3 0.4 1.3-1.4 2.7-2.9 4-4.3 0.1-0.1 0.1-0.2 0.3-0.3 0.5 0.4 1.1 0.8 1.6 1.2z"></path><path fill="#a6a7a6" d="m0.6 13.4c0.1 0.1 0.2 0.2 0.1 0.3-0.1-0.1-0.1-0.2-0.1-0.3z m-0.1 0.4c0.1 0.1 0.1 0.3 0.1 0.4-0.1-0.1-0.1-0.3-0.1-0.4z" opacity=".012"></path><path fill="#b5b5b5" d="m29.5 12.1c0.3 0.3 0.5 0.7 0.6 1.1 0.1 0.3 0.2 0.5 0.2 0.8-0.4 0.6-0.9 1.1-1.4 1.5-0.1 0.5-0.2 0.5-0.4 0.1-0.1 0.1-0.1 0.3 0 0.4-0.2 0.3-0.3 0.3-0.5 0 0.2 0.5 0.2 0.9 0.1 1.4-0.1-0.3-0.1-0.6-0.1-0.9-0.1 0.3-0.2 0.4-0.5 0.3 0.1 0.1 0.2 0.1 0.3 0.2-0.1 0.1-0.1 0.2 0 0.3-0.2 0.1-0.3 0.3-0.4 0.5-0.1 0-0.2-0.1-0.3-0.2l-0.1 0.1-0.1 1.5c-0.1-0.5-0.1-1.1-0.1-1.6 0.1-0.3 0.2-0.6 0.2-0.9 0 0.3 0.1 0.5 0.2 0.8 0.1-0.4 0.1-0.8 0.1-1.1 0.1-0.1 0.2-0.2 0.3-0.2-0.3-0.2-0.3-0.4 0-0.6l0.1 0.1c0.2-0.1 0.4-0.3 0.6-0.5 0.1 0.2 0.3 0.2 0.4 0.2l-0.6-0.7c0.1 0 0.2 0 0.2 0.1 0-0.4 0.1-0.7 0.1-1 0.1 0.1 0.3 0.2 0.3 0.3 0.1-0.2 0.1-0.4-0.2-0.5 0.1-0.1 0.2-0.3 0.3-0.5 0.4-0.2 0.7-0.5 0.7-1z"></path><path fill="#a1a1a1" d="m26.5 14c0.4 0.1 0.7 0.3 1 0.6-0.8 0.3-1.6 0.7-2.4 1.1-0.6 0.3-1.3 0.6-2 0.8 0.7-0.4 1.5-0.8 2.3-1.1 0.2-0.5 0.6-1 1.1-1.4z"></path><path fill="#d5d5d5" d="m34.9 11.5h0.1v0.1l0.2 0.3v0.2c0 0.4 0 0.8 0.2 1.2-0.3 0.4-0.5 0.9-0.7 1.4 0 0 0.1 0.1 0.1 0.1-0.6 0.2-1.2 0.4-1.8 0.4-0.2 0.1-0.3 0.1-0.3 0.3-0.1 0.3-0.3 0.7-0.5 1-0.2-0.2-0.2-0.4-0.2-0.7 0.1 0 0.2 0.1 0.2 0.1 0.2-0.2 0.3-0.5 0.4-0.8-0.2-0.5-0.4-1-0.5-1.5 0-0.2 0.1-0.4 0.2-0.5 0 0.5 0.1 1.1 0.3 1.6 0.3-0.1 0.7-0.3 1-0.5-0.8 0.2-1.1-0.1-0.9-0.9 0.4-0.4 0.8-0.6 1.3-0.5-0.2 0.1-0.2 0.2-0.1 0.4-0.2 0.2-0.3 0.5-0.3 0.8h0.8v-0.3c0.1 0.2 0.2 0.4 0.3 0.6 0-0.2 0-0.5-0.1-0.7 0.4-0.7 0.5-1.3 0.3-2.1z" opacity=".999"></path><path fill="#8c8c8c" d="m34.3 12.9c0.2 0.2 0.3 0.4 0.3 0.7 0.1 0.2 0.1 0.5 0 0.7 0-0.2-0.1-0.4-0.2-0.6 0-0.3-0.1-0.6-0.1-0.8z"></path><path fill="#f3f3f3" d="m34 12.8l0.3 0.1c0 0.2 0.1 0.5 0.1 0.8v0.3h-0.8c0-0.3 0.1-0.6 0.3-0.8-0.1-0.2-0.1-0.3 0.1-0.4z"></path><path fill="#c3c3c3" d="m0.5 14.8h-0.1c0-0.6 0.1-0.6 0.1 0z" opacity=".012"></path><path fill="#8d8d8d" d="m10.4 10.4c0.7 2 1.5 4 2.3 6-0.2 0-0.3 0-0.4 0.2-0.1 0.4-0.1 0.8-0.1 1.2 0.2 0.1 0.4 0.2 0.6 0.4-0.1 0-0.2 0-0.4 0.1 0.1 0.1 0.2 0.1 0.3 0.1-0.2 0.1-0.3 0.2-0.4 0.3-0.1-0.1-0.1-0.2 0-0.4-0.1-0.1-0.2-0.2-0.3-0.4l-0.1 0.9c-0.1-0.1-0.2-0.3-0.3-0.5 0 0.1-0.1 0.2-0.1 0.3-0.1 0-0.1 0-0.1-0.1 0-0.4-0.2-0.6-0.7-0.6 0.1 0.3 0.2 0.5 0.2 0.8-0.2 0.1-0.4 0-0.5-0.1 0.5-0.3 0.4-0.6-0.2-0.9l-0.1-1c0 0.4-0.1 0.8-0.1 1.1-0.2-0.6-0.2-1.2-0.1-1.8 0.1 0.2 0.2 0.2 0.3 0.1-0.1-0.1-0.2-0.2-0.3-0.4-0.1 0.2-0.2 0.2-0.4-0.1 0.1 0 0.2 0 0.3-0.1-0.1 0-0.2-0.1-0.3-0.2 0.1-0.1 0.1-0.2 0-0.3-0.1 0.2-0.1 0.3-0.2 0.5l-1.5-1.5c0.1-0.4 0.3-0.7 0.4-1 0.1 0.1 0.2 0.1 0.2-0.1 0.2 0.3 0.3 0.3 0.5 0.1 0-0.1-0.1-0.2-0.2-0.3-0.1-0.3-0.1-0.5 0-0.7 0.1 0.1 0.2 0.1 0.3-0.1 0.3-0.7 0.6-1.4 1-1.9 0.1 0.1 0.3 0.3 0.4 0.4z"></path><path fill="#717171" d="m13.4 13.8c0.5 0.4 0.9 0.8 1.3 1.3-0.1 0.2-0.1 0.2-0.2 0-0.1 0.4-0.2 0.7-0.5 1l0.1 0.1c-0.3 0.4-0.6 0.8-0.8 1.2-0.3-0.6-0.5-1.2-0.6-1.8 0.2-0.4 0.4-0.8 0.6-1.2l-0.1-0.1c0.1 0 0.2-0.1 0.2-0.2-0.1-0.1-0.1-0.2 0-0.3z m-9.5 1.1c0 0.2 0 0.3-0.1 0.5l-0.1-0.2c-0.7 0-1.4-0.1-2.1-0.3v-0.3c0.8 0 1.5 0.1 2.3 0.3z"></path><path fill="#888" d="m11.4 7.1c-0.2 0.5-0.4 0.9-0.8 1.3 0.1 0.2 0 0.4-0.2 0.5 0.1 0 0.2 0.1 0.2 0.2h-0.2c-0.1-0.1-0.2 0-0.2 0.1 0.3 0.2 0.5 0.4 0.8 0.6 1.1 1.4 2.3 2.8 3.6 4.1-0.2 0.1-0.3 0.2-0.4 0.3-1.3-1.4-2.6-2.8-3.8-4.2-0.1 0.1-0.1 0.3 0 0.4-0.1-0.1-0.3-0.3-0.4-0.4-0.4 0.5-0.7 1.2-1 1.9-0.1 0.2-0.2 0.2-0.3 0.1-0.1 0.2-0.1 0.4 0 0.7 0.1 0.1 0.2 0.2 0.2 0.4-0.2 0.1-0.3 0.1-0.5-0.2 0 0.2-0.1 0.2-0.2 0.1-0.1 0.3-0.3 0.6-0.4 1l1.5 1.5c0.1-0.2 0.1-0.3 0.2-0.5 0.1 0.1 0.1 0.2 0 0.3 0.1 0.1 0.2 0.2 0.3 0.2-0.1 0.1-0.2 0.1-0.3 0.1 0.2 0.3 0.3 0.3 0.4 0.1 0.1 0.2 0.2 0.3 0.3 0.4-0.1 0.1-0.2 0.1-0.3-0.1-0.1 0.6-0.1 1.2 0.1 1.8 0-0.3 0.1-0.7 0.1-1.1l0.1 1c0.6 0.3 0.7 0.6 0.2 0.9 0.1 0.1 0.3 0.2 0.5 0.1 0-0.3-0.1-0.5-0.2-0.8 0.5 0 0.7 0.2 0.7 0.6-0.1-0.1-0.2-0.2-0.3-0.3-0.2 0.3-0.1 0.5 0.2 0.6-0.3 0-0.4 0.1-0.5 0.4-0.1-0.2-0.3-0.2-0.4-0.1 0.2 0.2 0.5 0.5 0.7 0.8-0.1 0-0.2 0.1-0.3 0.2-0.4-0.5-0.9-0.9-1.4-1.3-0.4 0.1-0.8 0.1-1.2 0-0.4 0.1-0.7 0.2-1 0.4-0.1-0.1-0.1-0.2-0.1-0.4-0.2 0.1-0.4 0-0.5-0.2l0-0.1c0.3 0.3 0.4 0.3 0.5-0.1 0 0.1 0.1 0.2 0.2 0.2 0-0.2 0.1-0.4 0.1-0.7 0 0.3 0.1 0.6 0.2 0.8 0.2-0.7 0.3-0.7 0.4 0 0-0.7 0.2-0.7 0.4 0 0.1-0.1 0.1-0.3 0.1-0.5 0.2-0.1 0.3 0 0.4 0.1-0.1 0-0.2 0-0.3 0.1 0.1 0.4 0.2 0.4 0.3 0.1 0 0.1 0.1 0.2 0.2 0.2 0.1-0.2 0.1-0.5-0.2-0.6 0-0.8-0.3-1.4-0.9-1.8-0.1-0.2-0.1-0.4-0.1-0.6-0.2-0.1-0.4-0.1-0.6 0-0.7 1-1.3 2.1-1.7 3.3-0.2-0.8-0.2-1.7-0.1-2.5 0.1-0.6 0.2-1.1 0.4-1.6 0.1 0.1 0.2 0.1 0.3 0.1 0.1-0.3 0.3-0.4 0.5-0.5l-0.1-0.1c0.1-0.1 0.1-0.3 0.1-0.4l0.2 0.3c0.3 0.2 0.6 0.1 0.8-0.1-0.2-0.1-0.5-0.3-0.7-0.5 0.2-0.1 0.4 0 0.5 0.2l0.1-0.1c-0.3-0.3-0.3-0.7 0-1 0.1-0.5 0.3-1 0.8-1.3-0.1-0.1-0.1-0.1-0.1-0.2 0.1-0.3 0.3-0.5 0.5-0.8 0 0 0-0.1-0.1-0.2 0.3-0.1 0.4-0.3 0.4-0.5 0.2-0.2 0.4-0.5 0.5-0.7 0.3-0.9 0.9-1.5 1.8-2z"></path><path fill="#bcbcbc" d="m0.4 14.8c0 0.3 0 0.5-0.1 0.8-0.1-0.3 0-0.6 0.1-0.8z" opacity=".012"></path><path fill="#3f3f3f" d="m11 9.8c0.1 0 0.3 0.1 0.4 0.3 0.9 1 1.8 2 2.7 3 0.5 0.6 1.1 1.1 1.6 1.7 0.3 0.4 0.7 0.7 1 1.1 0.2 0.3 0.4 0.5 0.6 0.8-1-0.9-1.9-1.8-2.7-2.8-1.3-1.3-2.5-2.7-3.6-4.1z"></path><path fill="#b0b0b0" d="m35.2 12.1c0 0 0.1 0 0.1 0.1v0.1l0.1 0.2v0.3l0.1 0.2v0.1c0 0.1 0 0.2 0.1 0.2 0 0.2 0 0.3 0.1 0.4v0.4c0 0.1 0 0.2 0.1 0.2 0 0.2 0 0.4 0.1 0.5v0.3c0 0.2-0.1 0.3-0.1 0.5-0.1-0.2-0.1-0.3-0.3-0.1-0.1 0.3-0.2 0.7-0.3 1.1 0-0.2-0.1-0.4 0-0.6-0.4 0-0.8 0.1-1.2 0.1 0.2-0.2 0.2-0.4 0.3-0.6-0.5-0.1-0.5-0.1 0-0.2-0.5-0.1-1 0-1.4 0.2h-0.2c0-0.2 0.1-0.2 0.3-0.3 0.6 0 1.2-0.2 1.8-0.4 0 0-0.1-0.1-0.1-0.1 0.2-0.5 0.4-1 0.7-1.4-0.2-0.4-0.2-0.8-0.2-1.2z"></path><path fill="#808080" d="m14.7 15.1c0.5 0.5 1 1.1 1.4 1.6-0.5 1.1-1.1 2.2-1.8 3.3-0.1-0.5-0.4-0.9-0.6-1.3-0.1-0.4-0.2-0.9-0.4-1.3 0.2-0.4 0.5-0.8 0.8-1.2l-0.1-0.1c0.3-0.3 0.4-0.6 0.5-1 0.1 0.2 0.1 0.2 0.2 0z"></path><path fill="#c4c4c4" d="m29 11.1c0.2 0.3 0.4 0.6 0.5 1 0 0.5-0.3 0.8-0.7 1-0.1 0.2-0.2 0.4-0.3 0.5 0.3 0.1 0.3 0.3 0.2 0.5 0-0.1-0.2-0.2-0.3-0.3 0 0.3-0.1 0.6 0 1-0.1-0.1-0.2-0.1-0.3-0.1l0.6 0.7c-0.1 0-0.3 0-0.4-0.2-0.2 0.2-0.4 0.4-0.6 0.5l-0.1-0.1c-0.3 0.2-0.3 0.4 0 0.6-0.1 0-0.2 0.1-0.3 0.2 0 0.3 0 0.7-0.1 1.1-0.1-0.3-0.2-0.5-0.2-0.8 0 0.3-0.1 0.6-0.2 0.9v-0.1c0.1-0.5 0-1-0.2-1.4 0.1-0.2 0.3-0.5 0.5-0.7l-0.2 0c-0.5 0.2-1 0.5-1.5 0.6 0.1-0.2 0-0.3-0.3-0.3 0.8-0.4 1.6-0.8 2.4-1.1 0.1 0 0.2-0.1 0.2-0.1-0.1-0.2-0.3-0.3-0.4-0.4 0-1.5 0.1-1.6 0.3-0.1 0-0.3 0-0.7 0-1 0.1 0 0.2 0 0.4-0.1 0.2-0.4 0.6-0.9 1-1.4-0.1-0.1-0.1-0.3 0-0.4z"></path><path fill="#707070" d="m3.3 15.8c0.4 0 0.6 0.2 0.4 0.6-0.2-0.2-0.4-0.2-0.7-0.3-0.5 0-0.7 0.2-0.7 0.7-0.2-0.1-0.2-0.2-0.2-0.4 0-0.2 0.1-0.4 0.1-0.6h1.1z"></path><path fill="#777" d="m24.6 13.1c-1.3 1.4-2.7 2.9-4 4.3 0.4-0.1 0.9-0.2 1.3-0.4-0.6 0.4-1.2 0.7-1.9 0.9 0.3-0.3 0.5-0.6 0.8-1 1.2-1.3 2.5-2.6 3.8-3.8z"></path><path fill="#c8c8c8" d="m0.2 15.7c0.1 0.3 0.1 0.6 0 0.9 0-0.3 0-0.6 0-0.9z" opacity=".012"></path><path fill="#a2a2a2" d="m14.6 13.9c0.8 1 1.7 1.9 2.7 2.8v0.2l-0.4 0.3c-0.9-1-1.8-2-2.7-3 0.1-0.1 0.2-0.2 0.4-0.3z"></path><path fill="#a7a7a7" d="m26.6 16.1c-0.4 0.4-0.7 0.9-1 1.4-2.2 3.1-4.4 6.1-6.6 9.2-0.1 0-0.1 0-0.2-0.1 1.9-3.5 4-6.8 6.2-10.1-0.1 0-0.1-0.1-0.2-0.1 0.2-0.1 0.4-0.2 0.6-0.4 0.5-0.1 1-0.4 1.5-0.6l0.2 0c-0.2 0.2-0.4 0.5-0.5 0.7z"></path><path fill="#9c9c9c" d="m35.9 15.1v5.7c-0.1 0.1-0.1 0.3-0.1 0.5-0.1 0.3-0.2 0.7-0.2 1-0.1 0.1-0.1 0.2-0.1 0.4-0.2 0.3-0.3 0.7-0.3 1.1-0.2 0.1-0.3 0.3-0.3 0.6-0.1 0-0.1 0.1-0.1 0.2-0.1 0.1-0.1 0.2-0.1 0.3-0.1 0.1-0.1 0.1-0.1 0.2-0.1 0.1-0.1 0.2-0.1 0.3-0.1 0-0.2 0.2-0.1 0.3-0.1 0-0.2 0.1-0.1 0.2-0.1 0.1-0.2 0.1-0.2 0.3 0 0-0.1 0-0.1 0.1-0.1 0-0.1 0.2-0.1 0.3-0.1 0-0.1 0-0.1 0.1-0.1 0.1-0.1 0.1-0.1 0.2-0.1 0-0.1 0.1-0.1 0.2-0.1 0-0.2 0.1-0.1 0.2-0.1 0-0.2 0.1-0.1 0.2-0.1 0-0.2 0-0.2 0.1 0 0-0.1 0.1-0.1 0.1v0.1c0 0-0.1 0.1-0.1 0.2-0.1 0-0.2 0.1-0.2 0.2v0.1c-0.1 0-0.1 0-0.1 0.1-0.1 0-0.1 0-0.1 0.1v0.1c-0.1 0-0.1 0.1-0.1 0.1-0.2 0.1-0.2 0.2-0.3 0.3v0.1c0 0-0.1 0-0.1 0.1-0.1 0-0.1 0-0.1 0.1-0.1 0-0.1 0-0.1 0.1-0.1 0.1-0.1 0.1-0.1 0.2-0.1 0-0.1 0.1-0.1 0.2-0.1 0-0.1 0-0.1 0.1-0.1 0-0.2 0-0.2 0.1 0 0-0.1 0-0.1 0.1 0 0-0.1 0-0.1 0.1-0.1 0-0.1 0-0.1 0.1-0.1 0-0.1 0.1-0.1 0.1-0.1 0.1-0.1 0.1-0.1 0.3-0.3 0.1-0.5 0.3-0.7 0.5-0.1 0-0.1 0.1-0.1 0.1-0.1 0-0.1 0.1-0.1 0.1-0.1 0-0.1 0.1-0.1 0.2-0.1 0-0.1 0-0.1 0.1-0.1 0-0.2 0-0.2 0.1-0.1 0-0.1 0-0.2 0.1-0.1 0-0.1 0-0.1 0.1-0.1 0-0.1 0-0.1 0.1-0.1 0-0.1 0.1-0.1 0.1-0.1 0-0.2 0-0.2 0.1-0.1 0-0.2 0.1-0.2 0.2-0.1-0.1-0.2 0-0.3 0.2-0.2 0-0.3 0-0.3 0.2-0.1 0-0.1 0-0.1 0.1-0.2 0-0.2 0-0.3 0.1h-0.2c0.2-0.1 0.4-0.3 0.6-0.5-0.1 0-0.1-0.1-0.1-0.1 0.5-1 1.1-1.9 2-2.7 0.2 0 0.4 0 0.7 0l-0.2-0.3c0.8-0.5 1.4-1.2 1.8-2.1 0.1-0.7 0.1-1.4 0.2-2 0.1-0.4 0.2-0.7 0.4-1-0.1-0.1-0.1-0.1-0.1-0.2 0.1-0.4 0.3-0.8 0.4-1.1l-0.3-0.1c0.5-0.1 0.9 0 1.3 0.2 0 0 0.1 0 0.1-0.1 0.1 0 0.2-0.1 0.2-0.2l-0.1-0.2c-0.6-0.2-1.2-0.4-1.7-0.6 0.1-0.2 0.1-0.4 0.1-0.7 0.1 0.1 0.1 0.2 0.2 0.4 0-0.1 0-0.3 0-0.4 0.4 0.1 0.7 0.1 1 0 0.3 0.1 0.5 0.2 0.8 0.3 0.1-0.2 0-0.4-0.1-0.5l-0.9-0.3c-0.1-0.2-0.2-0.5-0.3-0.7 0.2 0 0.4-0.1 0.6-0.1 0.7 0.2 1.1-0.1 1.1-0.9-0.1-0.7-0.5-1-1.2-0.9 0.2-0.1 0.3-0.2 0.5-0.2-0.2 0-0.4-0.1-0.6-0.2 0.2 0.1 0.3 0 0.5-0.1-0.3-0.1-0.5-0.1-0.8-0.1 0-0.5 0-1 0-1.6h0.4c0.4 0 0.8-0.1 1.2-0.1-0.1 0.2 0 0.4 0 0.6 0.1-0.4 0.2-0.8 0.4-1.1 0.1-0.2 0.1-0.1 0.2 0.1 0-0.2 0.1-0.3 0.1-0.5z" opacity=".988"></path><path fill="#b9b9b9" d="m24.8 16.4c0.1 0 0.1 0.1 0.2 0.1-2.2 3.3-4.3 6.6-6.2 10.1 0.1 0.1 0.1 0.1 0.2 0.1-0.2 0.5-0.5 0.8-0.8 1.1 0-1.2 0.2-2.4 0.4-3.6 0 0.3 0 0.6 0.1 0.9l0.1-0.6c0.3-0.3 0.5-0.7 0.7-1.2 1.3-2 2.6-4 3.8-6-0.8 0.2-1.6 0.5-2.3 1-0.5 0.2-1.1 0.4-1.6 0.5 1.8-0.9 3.6-1.7 5.4-2.4z"></path><path fill="#727272" d="m2.3 16.8c0.4 0.2 0.9 0.3 1.4 0.2 0 0.2 0 0.3-0.1 0.5-0.5-0.1-1-0.2-1.5-0.1v-0.4c0.1 0 0.2 0 0.2-0.2z"></path><path fill="#959595" d="m16.1 16.7c0.3 0.3 0.5 0.5 0.7 0.8-0.7 1.2-1.4 2.5-2 3.7-0.2-0.4-0.3-0.8-0.5-1.2 0.7-1.1 1.3-2.2 1.8-3.3z"></path><path fill="#ececec" d="m32.7 15.5h0.2l0.7 0.1c-0.5 0.7-0.9 1.4-1.1 2.2-0.1 0.1-0.2 0.2-0.2 0.3-0.2-0.3-0.3-0.6-0.4-1.1v-0.7c0-0.2 0-0.4 0.1-0.5 0 0.3 0 0.5 0.2 0.7 0.2-0.3 0.4-0.7 0.5-1z"></path><path fill="#ededed" d="m6.2 13.3c-0.1 0.6-0.2 1.1-0.3 1.6-0.2 0.5-0.3 1-0.4 1.6-0.1 0.8-0.1 1.7 0.1 2.5 0 0.8 0.2 1.7 0.4 2.5 0 0.5 0 0.6-0.1 0.2-0.2 0.1-0.2 0.3-0.1 0.5 0 0.2-0.1 0.2-0.2 0 0 0.2-0.1 0.3-0.1 0.5-0.1-0.2-0.3-0.3-0.5-0.4 0 0 0-0.1-0.1-0.1-0.1-0.4-0.3-0.9-0.5-1.3-0.1 0.3-0.2 0.5-0.3 0.8l0.1 0.1c-1.4 0.8-1.6 0.5-0.8-0.7l0.5-0.1c0.1 0 0.1-0.1 0.1-0.4h-1c0.6-0.5 1-1.3 1.3-2.1l0.1 0.2c0-0.3 0.1-0.6 0-0.9 0.1-1.1 0.2-2.2 0.5-3.3 0.1-0.5 0.2-1 0.4-1.4 0.1 0 0.2 0 0.2-0.1 0.2 0.1 0.4 0.3 0.6 0.4l0.1-0.2c0 0 0.1 0.1 0 0.1z"></path><path fill="#404040" d="m10.4 10.4c0.3 0.3 0.5 0.6 0.8 0.9-0.1 0.2-0.2 0.4-0.1 0.7 0.5 1.2 1 2.4 1.6 3.6 0.1 0.6 0.3 1.2 0.6 1.8 0.2 0.4 0.3 0.9 0.4 1.3-0.4-0.7-0.8-1.5-1-2.3-0.8-2-1.6-4-2.3-6z"></path><path fill="#474747" d="m17.3 16.7h0.2c0.1 0.2 0.3 0.4 0.4 0.6 0.2 0.2 0.5 0.5 0.7 0.6 0.1 0.2 0.2 0.3 0.2 0.4l-0.1 0.1c-0.4-0.5-0.9-1-1.4-1.5v-0.2z"></path><path fill="#c8c8c8" d="m18.6 24.2c0.1-1.3 0.2-2.6 0.5-3.9 0 0.3 0 0.6 0 0.9 0.1-0.2 0.2-0.4 0.1-0.6 0 0 0.1-0.1 0.2-0.1-0.1-0.1-0.1-0.2 0.1-0.3 0 0.2 0.1 0.3 0.2 0.4 0.1-0.1 0-0.2-0.1-0.3 0.4-0.2 0.6-0.5 0.5-0.8 0.1-0.2 0.2-0.2 0.3-0.1 0.1-0.4 0.4-0.8 0.7-1.1 0 0-0.1 0-0.1 0 0.7-0.5 1.5-0.8 2.3-1-1.2 2-2.5 4-3.8 6-0.2 0.5-0.4 0.9-0.7 1.2l-0.1 0.6c-0.1-0.3-0.1-0.6-0.1-0.9z"></path><path fill="#b9b9b9" d="m0.1 16.8c0.1 0.7 0.1 1.5 0 2.3 0-0.8-0.1-1.5 0-2.3z" opacity=".012"></path><path fill="#d5d5d5" d="m21.5 12c0.9 0.2 1.8 0.5 2.7 0.7-0.1 0.3-0.2 0.3-0.4 0.1-0.2 0.1-0.3 0.3 0 0.4-0.2 0.2-0.3 0.3-0.4 0-0.6 0.6-1.1 1.1-1.6 1.7 0.1 0.1 0.2 0.1 0.3 0.1l-0.4 0.4-0.1-0.3c-0.7 0.7-1.4 1.4-2 2.1 0.1 0.1 0.2 0.1 0.3 0 0.3-0.3 0.6-0.7 0.9-1.1 0.1 0.2 0 0.3-0.2 0.4 0.1 0.2 0.2 0.3 0.2 0.4-0.3 0.4-0.5 0.7-0.8 1 0.7-0.2 1.3-0.5 1.9-0.9 0.4-0.1 0.9-0.2 1.2-0.5 0.7-0.2 1.4-0.5 2-0.8 0.3 0 0.4 0.1 0.3 0.3-0.2 0.2-0.4 0.3-0.6 0.4-1.8 0.7-3.6 1.5-5.4 2.4 0.5-0.1 1.1-0.3 1.6-0.5 0 0 0.1 0 0.1 0-0.3 0.3-0.6 0.7-0.7 1.1-0.1-0.1-0.2-0.1-0.3 0.1 0.1 0.3-0.1 0.6-0.5 0.8 0.1 0.1 0.2 0.2 0.1 0.3-0.1-0.1-0.2-0.2-0.2-0.4-0.2 0.1-0.2 0.2-0.1 0.3-0.1 0-0.2 0.1-0.2 0.1 0.1 0.2 0 0.4-0.1 0.6 0-0.3 0-0.6 0-0.9 0-0.3 0-0.6 0.1-0.9-0.1-0.5-0.2-0.6-0.3-0.1-0.3 3-0.6 6-1 9-0.1 0.4 0 0.7 0.4 1-0.1 0-0.2 0-0.3 0.1l-0.4 1c-0.6 0.2-1.2 0.1-1.8-0.1 0.3 0 0.6 0 0.9-0.1l-0.2-0.3c0.1 0 0.3-0.1 0.3-0.3 0-0.1-0.1-0.1-0.2 0 0-0.1 0-0.2 0-0.3 0.1 0 0.3 0 0.4 0-0.3-0.2-0.3-0.3 0-0.4l-0.2-0.1c0.2-0.2 0.3-0.5 0.4-0.7 0 0 0.1-0.1 0.1-0.1 0.1 0 0.1 0.2 0.1 0.3 0.4-3.1 0.7-6.2 1.1-9.2-0.4-0.7-1-1.4-1.6-1.9l0.4-0.3c0.5 0.5 1 1 1.4 1.5l0.1-0.1c0-0.1-0.1-0.2-0.2-0.4 1.1-1.9 2.2-3.8 3.1-5.7-0.1-0.1-0.1-0.1-0.2-0.2z"></path><path fill="#8c8c8c" d="m23.1 16.5c-0.3 0.3-0.8 0.4-1.2 0.5 0.3-0.2 0.8-0.4 1.2-0.5z"></path><path fill="#a7a7a7" d="m30.3 14c0.2 0.3 0.3 0.7 0.1 1-0.3 0.4-0.6 0.8-0.8 1.1l-0.1-0.3c-0.1 3.9-0.2 3.9-0.2 0 0 0.8-0.2 1.5-0.5 2.1-0.1-0.3-0.1-0.3-0.2 0-0.1-0.1-0.3-0.2-0.5-0.2-0.1 0.4-0.1 0.8-0.2 1.1l-0.1-1.3c-0.1 0.5-0.1 1-0.1 1.5 0 0-0.1 0-0.1 0.1l-0.2-0.8c-0.1 0.6-0.1 1.2-0.2 1.8-0.1-0.2-0.2-0.4-0.2-0.6-0.1 0.9-0.2 0.8-0.2-0.1 0 0.8-0.3 1.4-1 1.8 0.1-0.2 0.1-0.5 0.2-0.7-0.2 0.2-0.3 0.5-0.4 0.8-0.4-0.1-0.4-0.2 0-0.3l-0.1-0.2c0.3-0.3 0.6-0.5 0.8-0.8l0.1-1.3 0.1 0.5c0.1-0.6 0.2-1.2 0.3-1.7v0.1c0 0.5 0 1.1 0.1 1.6l0.1-1.5 0.1-0.1c0.1 0.1 0.2 0.2 0.3 0.2 0.1-0.2 0.2-0.4 0.4-0.5-0.1-0.1-0.1-0.2 0-0.3-0.1-0.1-0.2-0.1-0.3-0.2 0.3 0.1 0.4 0 0.5-0.3 0 0.3 0 0.6 0.1 0.9 0.1-0.5 0.1-0.9-0.1-1.4 0.2 0.3 0.3 0.3 0.5 0-0.1-0.1-0.1-0.3 0-0.4 0.2 0.4 0.3 0.4 0.4-0.1 0.5-0.4 1-0.9 1.4-1.5z"></path><path fill="#f2f2f2" d="m14.2 14.2c0.9 1 1.8 2 2.7 3 0.6 0.5 1.2 1.2 1.6 1.9-0.4 3-0.7 6.1-1.1 9.2 0-0.1 0-0.3-0.1-0.3v-0.5l0.9-8.3c0-0.1 0-0.2-0.1-0.4-0.2-0.3-0.5-0.6-0.8-0.9-0.1-0.1-0.3-0.3-0.5-0.4-0.2-0.3-0.4-0.5-0.7-0.8-0.4-0.5-0.9-1.1-1.4-1.6-0.4-0.5-0.8-0.9-1.3-1.3-0.7-0.9-1.4-1.7-2.2-2.5-0.3-0.3-0.5-0.6-0.8-0.9-0.1-0.1-0.1-0.3-0.1-0.4 1.3 1.4 2.6 2.8 3.9 4.2z"></path><path fill="#a6a6a6" d="m16.8 17.5c0.2 0.1 0.4 0.3 0.5 0.4-0.7 1.4-1.4 2.8-2.2 4.1-0.2-0.2-0.3-0.5-0.3-0.8 0.6-1.2 1.3-2.5 2-3.7z"></path><path fill="#858585" d="m30.9 18.2c0 0.8-0.1 1.6-0.2 2.4-0.6 2.4-1.7 4.4-3.3 6.1-0.8 0.8-1.6 1.4-2.5 1.9-0.2-0.1-0.2-0.2-0.1-0.4 0.3-0.4 0.5-0.8 0.7-1.2 0.1-0.2 0.2-0.3 0.3-0.4l-0.4-0.2c-0.2-0.1-0.2-0.2 0-0.4-0.1 0.2 0 0.3 0.2 0.4 0.1-0.1 0.1-0.3 0-0.4 0.2-0.2 0.5-0.4 0.9-0.3-0.4-0.1-0.8-0.1-1.1-0.1 0-0.1 0.1-0.1 0.2-0.2 0.8 0.2 1.5-0.1 2.1-0.7 0-0.5 0.1-1 0.1-1.5 0.5-0.5 1-1 1.6-1.5-0.1-0.1-0.2-0.2-0.3-0.1-0.5 0.5-1 1-1.5 1.4-0.1 0.5-0.1 0.9-0.1 1.4l-0.9 0.8c-0.3 0.1-0.7 0-1-0.1 0.2-0.1 0.4-0.2 0.5-0.4 0.2 0.1 0.3 0.1 0.5 0.1 0.5-0.5 0.7-1.1 0.6-1.8 0.6-0.6 1.2-1.1 1.8-1.6-0.2-0.1-0.3-0.3-0.3-0.5 0.3-0.1 0.4 0 0.6 0.2 0-0.2 0-0.3-0.2-0.4 0.6-0.2 0.6-0.5 0.2-0.8 0.2-0.3 0.2-0.5 0.3-0.8l0.3 1c0.2-0.3 0.2-0.5 0-0.7 0-0.1 0.1-0.2 0.2-0.2 0.1 0.1 0.3 0.2 0.4 0.2-0.1-0.3-0.1-0.5 0.2-0.7l0.1-0.8c0.1 0.1 0.1 0.2 0.1 0.3z"></path><path fill="#b9b9b9" d="m31.9 17.9c0 0.6 0 1.2-0.1 1.8 0.2 0.1 0.2 0.4 0.3 0.6 0.4-0.9 0.9-1.9 1.2-2.9 0 0.4 0.2 0.6 0.6 0.5 0.2 0.1 0.4 0.2 0.6 0.2-0.2 0-0.3 0.1-0.5 0.2 0.1 0.1 0.2 0.1 0.4 0.1l-0.1 0.2c0.8 0.3 0.8 0.7 0 1.1-0.4 0-0.6-0.3-0.7-0.6-0.1 0.5 0 0.8 0.5 1-0.2 0-0.4 0.1-0.6 0.1-0.2 0.2-0.2 0.4 0 0.6-0.2 0.1-0.3 0.3-0.3 0.5 0.3 0 0.6 0.1 0.8 0.1-0.3 0.1-0.6 0.1-1 0 0 0.1 0 0.3 0 0.4-0.1-0.2-0.1-0.3-0.2-0.4-0.1 0-0.2 0.1-0.3 0.3-0.1 0.4-0.2 0.8-0.4 1.2 0 0.2 0.1 0.2 0.1 0.3 0 0.1 0 0.1 0 0.1-0.2 0-0.3-0.1-0.4-0.3-0.1 0.3-0.2 0.7-0.2 1 0.1 0.5 0.2 1 0.3 1.5 0 1-0.3 1.9-1 2.8-0.1 0.1-0.2 0.2-0.4 0.3 0 0-0.1 0-0.1-0.1 0.1-0.1 0.2-0.2 0.3-0.3-0.5 0-0.9 0.1-1.1 0.5-0.2-0.2-0.3-0.5-0.3-0.7 0.2 0 0.3-0.1 0.5-0.2 0.5-0.5 0.9-1.1 1-1.9-0.2-0.3-0.4-0.6-0.5-0.9l-0.4 0.3c0-0.1 0-0.1 0-0.2 0.7-1.2 1.2-2.4 1.6-3.8 0.1-0.2 0.1-0.4 0-0.7-0.2 0.1-0.4 0.1-0.6 0 0-0.1 0-0.2-0.1-0.3 0 0.1-0.1 0.3-0.1 0.3 0.1-0.8 0.2-1.6 0.2-2.4 0.1-0.3 0.1-0.5 0.2-0.8 0.2 0.1 0.5 0.3 0.8 0.5z"></path><path fill="#7e7e7e" d="m3.1 17.9c0.3 0.2 0.5 0.4 0.7 0.7 0 1.2-0.6 1.5-1.5 0.9-0.2-0.3-0.3-0.6-0.2-1 0.1-0.5 0.5-0.7 1-0.6z"></path><path fill="#b2b2b2" d="m2.8 18.3c0.5 0.1 0.7 0.4 0.6 0.9-1.1 0.3-1.4 0-0.6-0.9z"></path><path fill="#bdbdbd" d="m17.3 17.9c0.3 0.3 0.6 0.6 0.8 0.9 0.1 0.2 0.1 0.3 0.1 0.4-0.1 0-0.2 0-0.3 0.1-0.7 1.4-1.4 2.8-2.2 4.2-0.3-0.5-0.5-1-0.6-1.5 0.8-1.3 1.5-2.7 2.2-4.1z"></path><path fill="#d5d5d5" d="m34 16.1h-0.4c0 0.6 0 1.1 0 1.6 0.3 0 0.5 0 0.8 0.1-0.2 0.1-0.3 0.2-0.5 0.1-0.4 0.1-0.6-0.1-0.6-0.5-0.3 1-0.8 2-1.2 2.9-0.1-0.2-0.1-0.5-0.3-0.6 0.1-0.6 0.1-1.2 0.1-1.8v-0.9c0.1 0.5 0.2 0.8 0.4 1.1 0-0.1 0.1-0.2 0.2-0.3 0.2-0.8 0.6-1.5 1.1-2.2l-0.7-0.1c0.4-0.2 0.9-0.3 1.4-0.2-0.5 0.1-0.5 0.1 0 0.2-0.1 0.2-0.1 0.4-0.3 0.6z" opacity=".997"></path><path fill="#8f8f8f" d="m30.7 12.2c0.1 0.2 0.2 0.4 0.3 0.6 0.4 1.1 0.7 2.3 0.9 3.5v1.6c-0.3-0.2-0.6-0.4-0.9-0.5 0 0.3 0 0.5-0.1 0.8 0-0.1 0-0.2-0.1-0.3l-0.1 0.8c-0.3 0.2-0.3 0.4-0.2 0.7-0.1 0-0.3-0.1-0.4-0.2-0.1 0-0.2 0.1-0.2 0.2 0.2 0.2 0.2 0.4 0 0.7l-0.3-1c-0.1 0.3-0.1 0.5-0.3 0.8 0.4 0.3 0.4 0.6-0.2 0.8 0.2 0.1 0.2 0.2 0.1 0.4-0.1-0.2-0.2-0.3-0.5-0.2 0 0.2 0.1 0.4 0.3 0.5-0.6 0.5-1.2 1-1.8 1.6 0.1 0.7-0.1 1.3-0.6 1.8-0.2 0-0.3 0-0.5-0.1-0.1 0.2-0.3 0.3-0.5 0.4 0.3 0.1 0.7 0.2 1 0.1l0.8-0.8c0.1-0.5 0.1-0.9 0.2-1.4 0.5-0.4 1-0.9 1.5-1.4 0.1-0.1 0.2 0 0.3 0.1-0.6 0.5-1.1 1-1.6 1.5 0 0.5-0.1 1-0.1 1.5-0.6 0.6-1.3 0.9-2.1 0.7-0.1 0.1-0.2 0.1-0.2 0.2 0.3 0 0.7 0 1.1 0.1-0.4-0.1-0.7 0.1-0.9 0.3 0.1 0.1 0.1 0.3 0 0.4-0.2-0.1-0.3-0.2-0.2-0.4-0.2 0.2-0.2 0.3 0 0.4l0.4 0.2c-0.1 0.1-0.2 0.2-0.3 0.4-0.2 0.4-0.4 0.8-0.8 1.2 0 0.2 0 0.3 0.2 0.4-0.5 0.4-1.1 0.7-1.8 0.9 0.1-0.1 0.2-0.2 0.4-0.2l-0.2-0.2c0.3-0.4 0.5-0.8 0.8-1.2-0.1-0.2 0-0.3 0.3-0.3-0.4-0.1-0.4-0.2-0.2-0.4 0-0.1-0.2-0.2-0.3-0.2 0.2-0.2 0.4-0.2 0.6 0.1 0.1-0.1 0.2-0.2 0.3-0.2-0.2 0-0.4-0.1-0.5-0.3l-0.1 0.1c-0.1-0.2 0-0.4 0.1-0.5 0.4-0.4 0.8-0.8 1.2-1.2-0.1-0.2-0.2-0.3-0.4-0.2 0.1-0.1 0.2-0.2 0.3-0.3-0.3 0-0.4-0.2-0.4-0.5 0.2 0 0.4 0.1 0.5 0.2 0.2 0 0.5-0.2 0.7-0.5l0.1-1.9c0.3-0.2 0.5-0.4 0.5-0.7 0.3 0 0.5 0 0.8 0.1 0.2-0.3 0.3-0.6 0.3-0.9 0.1 0.1 0.2 0.1 0.3 0.1-0.4-0.4-0.6-0.9-0.5-1.4 0-0.5 0-1 0.1-1.5l0.1 1.3c0.1-0.3 0.1-0.7 0.2-1.1 0.2 0 0.4 0.1 0.5 0.2 0.1-0.3 0.1-0.3 0.2 0 0.3-0.6 0.5-1.3 0.4-2.1 0.1 3.9 0.2 3.9 0.3 0l0.1 0.3c0.2-0.3 0.5-0.7 0.8-1.1 0.2-0.3 0.1-0.7-0.1-1 0-0.3-0.1-0.5-0.2-0.8 0.1-0.1 0.1-0.2 0-0.4 0.2-0.2 0.4-0.4 0.6-0.6z m-19.6 7.7c0.1 0 0.3 0.2 0.4 0.3 0.1 0.4 0.1 0.7 0 1.1-0.1-0.3-0.1-0.7-0.2-1l-0.2 1.5-0.1-1.4-0.2-0.2c-0.1 0.3-0.2 0.5-0.3 0.7-0.1 0.4-0.1 0.7 0 1.1-0.2-0.2-0.4-0.4-0.4-0.7 0 0.3-0.1 0.5-0.2 0.7 0-0.3-0.1-0.6-0.3-0.9-0.2 0.5-0.1 1 0.2 1.5 0 0.1-0.1 0.1-0.2 0-0.1 0.2-0.1 0.5-0.1 0.7-0.1-0.4-0.2-0.4-0.3 0 0.1 0.1 0.1 0.2-0.1 0.2 0.1 0.1 0.1 0.3 0 0.4l-0.4 0.2c-0.2 0.5-0.4 0.9-0.7 1.3-0.2-0.3-0.5-0.6-0.7-0.9-0.5-1-0.9-2-1.3-3-0.2-0.8-0.4-1.7-0.4-2.5 0.4-1.2 1-2.3 1.7-3.3 0.2-0.1 0.4-0.1 0.6 0 0 0.2 0 0.4 0.1 0.6 0.6 0.4 0.9 1 0.9 1.8 0.3 0.1 0.3 0.4 0.2 0.6-0.1 0-0.2-0.1-0.2-0.2-0.1 0.3-0.2 0.3-0.3 0 0.1-0.2 0.2-0.2 0.3-0.2-0.1-0.1-0.2-0.2-0.4-0.1 0 0.2 0 0.4-0.1 0.5-0.2-0.7-0.4-0.7-0.4 0-0.1-0.7-0.2-0.7-0.4 0-0.1-0.2-0.2-0.5-0.2-0.8 0 0.3-0.1 0.5-0.1 0.7-0.1 0-0.2-0.1-0.2-0.2-0.1 0.4-0.2 0.4-0.5 0.1l0 0.1c0.1 0.2 0.3 0.3 0.5 0.2 0 0.2 0 0.3 0.1 0.4 0.3-0.2 0.6-0.3 1-0.4 0.4 0.1 0.8 0.1 1.2 0 0.5 0.4 1 0.8 1.4 1.3 0.1-0.1 0.2-0.2 0.3-0.2z"></path><path fill="#c8c8c8" d="m0.2 19.4c0.1 0.3 0.1 0.6 0 0.9 0-0.3 0-0.6 0-0.9z" opacity=".012"></path><path fill="#767676" d="m34 18.3c0.7-0.1 1.1 0.2 1.2 0.9 0 0.8-0.4 1.1-1.1 0.9-0.5-0.2-0.6-0.5-0.5-1 0.1 0.3 0.3 0.6 0.7 0.6 0.8-0.4 0.8-0.8 0-1.1l0.1-0.1c-0.2-0.1-0.3-0.1-0.4-0.2z"></path><path fill="#c3c3c3" d="m4.4 17.8c0.1 0.3 0 0.6 0 0.9l-0.1-0.2c-0.3 0.8-0.7 1.6-1.3 2.1h-0.4c0.1-0.1 0-0.3-0.1-0.4-0.3-0.1-0.3-0.2-0.1-0.3-0.5-0.4-0.6-0.9-0.3-1.4-0.1 0.4 0 0.7 0.2 1 0.9 0.6 1.5 0.3 1.5-0.9 0.2-0.3 0.4-0.6 0.5-0.9 0 0.1 0.1 0.1 0.1 0.1z"></path><path fill="#cdcdcd" d="m18.2 19.2l-0.9 8.3c-0.6-1.3-1.1-2.7-1.6-4 0.8-1.4 1.5-2.8 2.2-4.2 0.1-0.1 0.2-0.1 0.3-0.1z" opacity=".997"></path><path fill="#424242" d="m13.7 18.7c0.2 0.4 0.5 0.8 0.6 1.3 0.2 0.4 0.3 0.8 0.5 1.2 0 0.3 0.1 0.6 0.3 0.8 0.1 0.5 0.3 1 0.6 1.5 0.5 1.3 1 2.7 1.6 4v0.5c0 0-0.1 0.1-0.1 0.1-0.4-1.1-0.7-2.1-1.2-3.1-0.1-0.4-0.2-0.7-0.4-1.1-0.2-0.5-0.4-1-0.6-1.5-0.4-1.1-0.9-2.3-1.3-3.4v-0.3z"></path><path fill="#a8a8a8" d="m13.7 19c0.4 1.1 0.9 2.3 1.3 3.4-0.4 0.1-0.5 0.4-0.5 0.7-0.1 0.1-0.3 0.2-0.4 0.2l0.2 0.3c-0.3 0.1-0.7 0.1-1.1 0.1 0.2 0.1 0.2 0.2 0 0.2-0.1 0-0.2-0.1-0.3-0.2 0.1 0.3 0.2 0.6 0.3 0.9l0.2 0.3c-0.2-0.1-0.3-0.1-0.5 0.1-0.1 0.1-0.1 0.2 0 0.3-0.1 0-0.2 0-0.2 0.1 0.1 0.2 0.2 0.4 0.4 0.6-0.2 0-0.4-0.1-0.5-0.3-0.1 0.2-0.2 0.3-0.3 0.5 0 0.2 0.1 0.5 0.1 0.7-0.1-0.2-0.3-0.2-0.4-0.1-0.4 0.5-0.7 1.1-0.9 1.6-0.9-0.5-1.6-1.2-2.3-2 0.2-0.2 0.3-0.3 0.4-0.4l-0.1-0.1 0.3-0.2c0.1-0.3 0.3-0.5 0.4-0.7 0-0.1 0-0.2-0.1-0.2 0.3-0.2 0.5-0.4 0.6-0.6l-0.2-0.1c0.2-0.1 0.5-0.1 0.8 0-0.2-0.2-0.4-0.3-0.7-0.4l0.3-0.1c-0.1-0.1-0.1-0.2 0.1-0.2-0.1-0.2-0.1-0.3 0.1-0.2l0.1-0.3 0.6 0.6c-0.1-0.4-0.3-0.7-0.7-0.9l0.8 0.3-0.4-0.4c0.1-0.1 0.1-0.2 0-0.3l0.1-0.2c0.2 0.2 0.4 0.4 0.7 0.4-0.2-0.1-0.3-0.2-0.2-0.4 0.1 0.2 0.3 0.3 0.5 0.3l-0.5-0.5c-0.1-0.5-0.1-1 0-1.5l0.1 1.4 0.5 0.4c0.2-0.1 0.2-0.2 0-0.3-0.1-0.4-0.1-0.7 0-1 0.1-0.2 0.3-0.3 0.5-0.3v-0.4h-0.4c0.1 0.4 0 0.4-0.2 0.1 0.1-0.3 0.4-0.4 0.7-0.3v-0.4c0.1 0 0.2 0 0.3 0l-0.5-0.1c0-0.2 0.1-0.2 0.2-0.1 0.1-0.2 0.2-0.3 0.3-0.3 0.2 0.1 0.3 0.1 0.5 0z"></path><path fill="#b3b3b3" d="m3.9 21l-0.5 0.1c-0.3 0.1-0.6 0.1-0.9 0.2l-0.2-0.3c-0.1 0.2-0.1 0.3 0.1 0.5-0.2 0.4-0.1 0.7 0.1 1-0.1 0-0.1 0.1-0.2 0.2 0.1 0.1 0.2 0.2 0.3 0.3 0.1 0.3 0.1 0.5 0.1 0.8-0.3-0.3-0.4-0.6-0.5-1-0.1-0.4-0.2-0.7-0.3-1-0.4 0.6-0.6 1.4-0.5 2.1h-0.1v-0.1c-0.1-0.2-0.1-0.4-0.2-0.6v-0.1c0-0.2 0-0.5 0-0.8 0.4-0.6 0.6-1.3 0.7-2l0.2-0.2c0.3 0.7 0.8 0.9 1.5 0.7 0.2 0 0.3 0 0.4 0.2z"></path><path fill="#4a4a4a" d="m19.1 20.3c-0.3 1.3-0.4 2.6-0.5 3.9-0.2 1.2-0.4 2.4-0.4 3.6l-0.2 0.7c-0.1 0-0.1-0.1-0.1-0.2 0.4-3 0.7-6 1-9 0.1-0.5 0.2-0.4 0.3 0.1-0.1 0.3-0.1 0.6-0.1 0.9z"></path><path fill="#7a7a7a" d="m33.5 20.2c0.1 0.2 0.2 0.5 0.3 0.7l0.9 0.3c0.1 0.1 0.2 0.3 0.1 0.5-0.3-0.1-0.5-0.2-0.8-0.3-0.2 0-0.5-0.1-0.8-0.1 0-0.2 0.1-0.4 0.3-0.5-0.2-0.2-0.2-0.4 0-0.6z"></path><path fill="#c3c3c3" d="m35.8 21.3h0.1v0.5c-0.1-0.2-0.1-0.3-0.1-0.5z" opacity=".012"></path><path fill="#e1e1e1" d="m6 21.5c0.4 1 0.8 2 1.3 3 0.2 0.3 0.5 0.6 0.7 0.9 0.2 0.3 0.4 0.6 0.6 0.9-0.1 0-0.2 0-0.3 0.1l-0.7-0.4c-0.1 0.1-0.2 0.1-0.2 0.2-0.7-0.8-1.2-1.7-1.7-2.6l-0.3-0.1c-0.2-0.4-0.3-0.8-0.4-1.2 0.2 0.1 0.4 0.2 0.5 0.4 0-0.2 0.1-0.3 0.1-0.5 0.1 0.2 0.2 0.2 0.2 0-0.1-0.2-0.1-0.4 0-0.5 0.2 0.4 0.2 0.3 0.2-0.2z"></path><path fill="#a6a7a6" d="m35.7 21.9c0.1 0.1 0.2 0.2 0.1 0.3-0.1-0.1-0.1-0.2-0.1-0.3z" opacity=".012"></path><path fill="#f5f5f5" d="m0.5 21c0.1 0 0.1 0.1 0.1 0.2-0.1 0.2-0.1 0.3 0 0.2 0.1 0.1 0.2 0.1 0.1 0.3-0.1 0.1-0.1 0.3 0 0.4 0.1 0 0.1 0 0.1 0.1-0.1 0.1-0.1 0.2 0 0.2 0.1 0.1 0.2 0.2 0.2 0.3-0.2 0-0.2 0 0 0.1l0.1 0.2c-0.2 0.1-0.2 0.2 0 0.2 0.1 0.2 0.1 0.4 0.2 0.6-0.2 0-0.2 0.1 0 0.1h0.1v0.1c-0.1 0.1-0.1 0.2 0 0.2v0.2c0 0.1 0 0.1 0.1 0.2 0 0.1 0 0.2 0.1 0.2 0 0.2 0 0.3 0.1 0.3 0 0.2 0.1 0.2 0.2 0.3v0.1c-0.2 0.1-0.1 0.2 0.1 0.3h0.1c0 0.1 0 0.2-0.1 0.2-0.9-0.4-1.6-1-2.1-1.9v-2.3c0.2-0.5 0.4-0.9 0.4-1.4 0 0.3 0.1 0.5 0.2 0.6z" opacity=".027"></path><path fill="#f1f1f1" d="m29.9 25.1c-0.3 0.3-0.5 0.6-0.6 0.9-0.6 0.7-1.2 1.3-1.8 1.8-0.1-0.1-0.2-0.2-0.2-0.4 0.1-0.2 0.1-0.4 0.1-0.7 1.6-1.7 2.7-3.7 3.3-6.1 0 0 0.1-0.2 0.1-0.3 0.1 0.1 0.1 0.2 0.1 0.3 0.2 0.1 0.4 0.1 0.6 0 0.1 0.3 0.1 0.5 0 0.7-0.4 1.4-0.9 2.6-1.6 3.8z"></path><path fill="#d0d0d0" d="m4.9 22.2c-0.1 0.4-0.2 0.7-0.4 1-0.9 0.8-1.6 1.8-2.1 2.8l-0.2-0.4c0.3-0.5 0.5-0.9 0.8-1.4 0.4-0.5 0.7-0.9 1-1.4 0.1-0.3 0.1-0.5 0-0.7-0.3 0.1-0.6 0.2-0.9 0.3-0.1 0.3-0.2 0.5-0.5 0.6-0.1-0.1-0.2-0.2-0.3-0.3 0.1-0.1 0.1-0.2 0.2-0.2-0.2-0.3-0.3-0.6-0.1-1-0.2-0.2-0.2-0.3-0.1-0.5l0.2 0.3c0.3-0.1 0.6-0.1 0.9-0.2-0.8 1.2-0.6 1.5 0.8 0.7l-0.1-0.1c0.1-0.3 0.2-0.5 0.3-0.8 0.2 0.4 0.4 0.9 0.5 1.3z"></path><path fill="#e8e8e8" d="m35.6 22.3c0.2 0.1 0.2 0.3 0 0.4v-0.4z" opacity=".004"></path><path fill="#979797" d="m12.7 16.4c0.2 0.8 0.6 1.6 1 2.3v0.3c-0.2 0.1-0.3 0.1-0.5 0-0.1 0-0.2 0.1-0.3 0.3-0.1-0.1-0.2-0.1-0.2 0.1l0.5 0.1c-0.1 0-0.2 0-0.3 0v0.4c-0.3-0.1-0.6 0-0.7 0.3 0.2 0.3 0.3 0.3 0.2-0.1h0.4v0.4c-0.2 0-0.4 0.1-0.5 0.3-0.1 0.3-0.1 0.6 0 1 0.2 0.1 0.2 0.2 0 0.3l-0.5-0.4-0.1-1.4c-0.1 0.5-0.1 1 0 1.5l0.5 0.5c-0.2 0-0.4-0.1-0.5-0.3-0.1 0.2 0 0.3 0.2 0.4-0.3 0-0.5-0.2-0.7-0.4l-0.1 0.2c0.1 0.1 0.1 0.2 0 0.3l0.4 0.4-0.8-0.3c0.4 0.2 0.6 0.5 0.7 0.9l-0.6-0.6-0.1 0.3c-0.2-0.1-0.2 0-0.1 0.2-0.2 0-0.2 0.1-0.1 0.2l-0.3 0.1c0.3 0.1 0.5 0.2 0.7 0.4-0.3-0.1-0.6-0.1-0.8 0l0.2 0.1c-0.1 0.2-0.3 0.4-0.6 0.5 0.1 0.1 0.1 0.2 0.1 0.3-0.1 0.2-0.3 0.4-0.4 0.7l-0.3 0.2 0.1 0.1c-0.1 0.1-0.2 0.2-0.4 0.4l-0.2-0.1c-0.2-0.3-0.4-0.6-0.6-0.9 0.3-0.4 0.5-0.8 0.7-1.3l0.4-0.2c0.1-0.1 0.1-0.3 0-0.4 0.2 0 0.2-0.1 0.1-0.2 0.1-0.4 0.2-0.4 0.2 0 0.1-0.2 0.1-0.5 0.2-0.7 0.1 0.1 0.2 0.1 0.2 0-0.3-0.5-0.4-1-0.2-1.5 0.2 0.3 0.3 0.6 0.3 0.9 0.1-0.2 0.2-0.4 0.2-0.7 0 0.3 0.2 0.5 0.4 0.7-0.1-0.4-0.1-0.7 0-1.1 0.1-0.2 0.2-0.4 0.3-0.7l0.2 0.2 0.1 1.4 0.2-1.5c0.1 0.3 0.1 0.7 0.2 1 0.1-0.4 0.1-0.7 0-1.1-0.1-0.1-0.3-0.3-0.4-0.3-0.2-0.3-0.5-0.6-0.7-0.8 0.1-0.1 0.3-0.1 0.4 0.1 0.1-0.3 0.2-0.4 0.5-0.4-0.3-0.1-0.4-0.3-0.2-0.6 0.1 0.1 0.2 0.2 0.3 0.3 0 0.1 0 0.1 0.1 0.1 0-0.1 0.1-0.2 0.1-0.3 0.1 0.2 0.2 0.4 0.3 0.5l0.1-0.9c0.1 0.2 0.2 0.3 0.3 0.4-0.1 0.2-0.1 0.3 0 0.4 0.1-0.1 0.2-0.2 0.4-0.3-0.1 0-0.2 0-0.3-0.1 0.2-0.1 0.3-0.1 0.4-0.1-0.2-0.2-0.4-0.3-0.6-0.4 0-0.4 0-0.8 0.1-1.2 0.1-0.2 0.2-0.2 0.4-0.2z"></path><path fill="#7c7c7c" d="m32.8 21.4c0 0.3 0 0.5-0.1 0.7 0.5 0.2 1.1 0.4 1.7 0.6l0.1 0.2c0 0.1-0.1 0.2-0.2 0.2-0.5-0.2-1-0.4-1.6-0.5-0.1 0.2-0.3 0.4-0.5 0.6 0-0.1-0.1-0.1-0.1-0.2 0.2-0.5 0.3-0.9 0.4-1.3 0.1-0.2 0.2-0.3 0.3-0.3z"></path><path fill="#a6a7a6" d="m35.5 22.7h0.1c0 0.4-0.1 0.4-0.1 0z" opacity=".012"></path><path fill="#aaa" d="m34.3 23.1c0 0.1-0.1 0.1-0.1 0.1-0.4-0.2-0.8-0.3-1.3-0.2l0.3 0.1c-0.1 0.3-0.3 0.7-0.4 1.1 0 0.1 0 0.1 0.1 0.2-0.2 0.3-0.3 0.6-0.4 1-0.1 0.6-0.1 1.3-0.2 2-0.4 0.9-1 1.6-1.8 2.1l0.2 0.3c-0.3 0-0.5 0-0.7 0-0.9 0.8-1.5 1.7-2 2.7 0 0 0 0.1 0.1 0.1-0.2 0.2-0.4 0.4-0.6 0.5-0.1 0.1-0.2 0.2-0.3 0.4-0.1-0.1-0.2 0-0.3 0.1 0 0-0.1 0-0.1 0.1h-0.3c0.1-0.1 0.3-0.2 0.4-0.3 0.3-0.8 0.7-1.6 1-2.3 0.4-0.2 0.6-0.5 0.8-0.8 0.2-0.1 0.4-0.1 0.6-0.2 0-0.2 0-0.3 0-0.5 0.3 0 0.5-0.1 0.8-0.1 0-0.3 0-0.5-0.1-0.8 0.1-0.1 0.2-0.2 0.4-0.2 0 0.1 0.1 0.1 0.1 0.1 0.2-0.1 0.3-0.2 0.4-0.3 0.7-0.9 1-1.8 1-2.8-0.1-0.5-0.2-1-0.3-1.5 0-0.3 0.1-0.7 0.2-1 0.1 0.2 0.2 0.3 0.4 0.3 0 0 0 0 0-0.1 0.2-0.2 0.4-0.4 0.5-0.6 0.6 0.1 1.1 0.3 1.6 0.5z"></path><path fill="#a6a7a6" d="m35.4 23.1c0.1 0.1 0.1 0.1 0 0z" opacity=".012"></path><path fill="#c9c9c9" d="m2.2 22.8c-0.1 0.2-0.1 0.4 0 0.7-0.1 0.4-0.2 0.8-0.3 1.2l-0.5-0.8c-0.1-0.7 0.1-1.5 0.5-2.1 0.1 0.3 0.2 0.6 0.3 1z"></path><path fill="#acacac" d="m4.9 22.2c0.1 0 0.1 0.1 0.1 0.1 0.1 0.4 0.2 0.8 0.4 1.2l0.3 0.1c0.5 0.9 1 1.8 1.7 2.6 0.7 1 1.6 2 2.7 2.7 1.1 0.3 2.2 0.7 3.4 1.1 0.1 0 0.2-0.1 0.3-0.1 0.1 0 0.2 0 0.3 0.1 0.4 0.2 0.6 0.5 0.6 1 0.2 0.1 0.4 0.2 0.5 0.4 0 0-0.1 0.1-0.2 0-1-0.1-1.9-0.4-2.8-0.9-1.2-0.6-2.4-1.4-3.5-2.3-0.2-0.3-0.4-0.5-0.7-0.7-0.3 0.5-0.6 0.9-1 1.2-0.3-0.2-0.3-0.5-0.2-0.9 0.1 0.1 0.2 0.2 0.3 0.3 0.2-0.3 0.4-0.7 0.5-1-0.8-1.1-1.6-2.2-2.2-3.4-0.3 0.4-0.7 0.9-1 1.3-0.4 0.5-0.9 0.9-1.4 1.2-0.1 0.1-0.2 0.3-0.2 0.5-0.1-0.2-0.3-0.4-0.4-0.7 0.5-1 1.2-2 2.1-2.8 0.2-0.3 0.3-0.6 0.4-1z"></path><path fill="#bcbcbc" d="m35.3 23.8c0-0.1 0-0.2 0-0.3 0.1 0.1 0.1 0.2 0 0.3z" opacity=".012"></path><path fill="#e0e0e0" d="m35.2 23.8h0.1c-0.1 0.3-0.1 0.3-0.1 0z" opacity=".004"></path><path fill="#999" d="m6.8 27.8c0-0.1-0.1-0.2-0.2-0.3-0.1 0.3-0.2 0.7-0.1 1-0.4 0-0.7 0.2-0.9 0.4 0.1 0.2 0.4 0.3 0.6 0.3 0-0.2 0-0.3 0.1-0.5 0 0.1 0.1 0.2 0.2 0.3 0.1-0.2 0.1-0.3 0.1-0.5 0.1 0.2 0.2 0.3 0.4 0.4 0 0.1-0.1 0.2-0.2 0.3-0.1-0.1-0.3-0.1-0.4 0.1 0.1 0.6-0.1 1-0.5 1.4 0.1 0.1 0.2 0.2 0.2 0.3-0.5-0.4-1-0.8-1.4-1.4-0.2-0.2-0.5-0.5-0.7-0.7-0.1-0.2-0.2-0.3-0.3-0.5-0.1-0.1-0.2-0.2-0.3-0.3-0.1-0.2-0.2-0.3-0.3-0.5 0-0.2-0.1-0.3-0.2-0.3-0.1-0.2-0.2-0.4-0.4-0.6 0.1-0.1 0-0.2-0.1-0.2 0-0.3-0.1-0.5-0.3-0.7-0.1-0.1-0.1-0.1-0.1 0-0.2-0.1-0.3-0.2-0.1-0.3 0.1 0.1 0.1 0 0-0.1 0-0.1-0.1-0.2-0.2-0.3 0.1-0.1 0-0.2-0.1-0.3 0.1-0.1 0-0.2-0.1-0.2 0-0.1 0-0.2-0.1-0.2v-0.5l0.5 0.8c0 0.3 0.1 0.6 0.3 0.9l0.2 0.4c0.1 0.3 0.3 0.5 0.4 0.7 0-0.2 0.1-0.4 0.2-0.5 0.5-0.3 1-0.7 1.4-1.2 0.3-0.4 0.7-0.9 1-1.3 0.6 1.2 1.4 2.3 2.2 3.4-0.1 0.3-0.3 0.7-0.5 1-0.1-0.1-0.2-0.2-0.3-0.3z" opacity=".998"></path><path fill="#a6a7a6" d="m35 24.4c0-0.1 0-0.2 0.1-0.3 0.1 0.1 0.1 0.2-0.1 0.3z" opacity=".012"></path><path fill="#e0e0e0" d="m34.9 24.4h0.1c0.1 0.1 0 0.1-0.1 0.2v-0.2z" opacity=".004"></path><path fill="#bcbcbc" d="m34.8 24.6h0.1c0.1 0.1 0 0.2-0.1 0.3v-0.3z" opacity=".012"></path><path fill="#ececec" d="m2.2 25.6c-0.2-0.3-0.3-0.6-0.3-0.9 0.1-0.4 0.2-0.8 0.3-1.2-0.1-0.3-0.1-0.5 0-0.7 0.1 0.4 0.2 0.7 0.5 1 0-0.3 0-0.5-0.1-0.8 0.3-0.1 0.4-0.3 0.5-0.6 0.3-0.1 0.6-0.2 0.9-0.3 0.1 0.2 0.1 0.4 0.1 0.7-0.4 0.5-0.7 0.9-1.1 1.4-0.3 0.5-0.5 0.9-0.8 1.4z"></path><path fill="#a6a7a6" d="m34.7 24.9h0.1c0 0.1 0 0.2-0.1 0.2v-0.2z m-0.1 0.2h0.1c0 0.2 0 0.2-0.1 0.3v-0.3z" opacity=".012"></path><path fill="#cfcfcf" d="m15.6 23.9c0.2 0.4 0.3 0.7 0.4 1.1-0.1-0.1-0.2-0.1-0.3 0.1 0.1 0.3 0.2 0.5 0.2 0.7-0.2-0.1-0.3-0.2-0.4-0.4 0 0.2-0.1 0.5-0.3 0.7 0.2 0.2 0.4 0.4 0.6 0.5-0.1 0-0.2 0.2-0.3 0.3-0.1 0-0.2-0.2-0.2-0.3 0 0.2-0.1 0.3-0.3 0.4 0.3 0.3 0.3 0.5-0.1 0.5 0-0.6-0.1-0.6-0.4-0.2l-0.2-0.2c-0.6 0.7-1.1 1.5-1.4 2.3-0.4-0.1-0.7-0.3-1-0.5 0.2-0.6 0.5-1.1 0.8-1.6 0.1 0.2 0.1 0.4 0 0.7 0 0.1 0.1 0.2 0.3 0.3 0-0.3 0-0.7 0-1 0.2-0.1 0.4-0.2 0.7-0.2l-0.8-0.1c0.4-0.1 0.4-0.1 0-0.2 0.1-0.1 0.2-0.2 0.3-0.4l0.9-0.1c-0.3 0-0.6-0.1-0.9-0.2 0.2-0.1 0.4-0.3 0.6-0.3l-0.2-0.1c0.1-0.2 0.1-0.3 0.1-0.4 0.9-0.1 0.9-0.1 0-0.2 0.1 0 0.2-0.1 0.3-0.2 0.2-0.4 0.5-0.7 0.9-0.7-0.4-0.2-0.4-0.3 0-0.5l-0.4-0.1c0.2 0 0.5-0.1 0.7-0.1 0.1 0.2 0.2 0.3 0.4 0.4z"></path><path fill="#d2d2d2" d="m34.5 25.4h0.1c0 0.1 0 0.2-0.1 0.3v-0.3z" opacity=".012"></path><path fill="#e0e0e0" d="m34.4 25.7h0.1c0 0.1 0 0.2-0.1 0.2v-0.2z m-0.1 0.2h0.1c0 0.1 0 0.2-0.1 0.3v-0.3z" opacity=".004"></path><path fill="#a6a7a6" d="m2.1 26.2c0.1 0 0.1 0 0 0z" opacity=".012"></path><path fill="#a4a4a4" d="m25 21.7h0.7c-0.4 0.8-0.8 1.6-1.3 2.4 0-0.1-0.1-0.3-0.2-0.4 0 0.4-0.1 0.9-0.1 1.3l-0.4 0.4c0.1 0.2 0.1 0.2-0.1 0.3-0.2-0.3-0.3-0.3-0.2 0.1 0.1 0.1 0.3 0.2 0.4 0.2-0.1 0.2-0.1 0.4 0.1 0.5-0.1 0.1-0.2 0.1-0.3-0.1-0.1 0.3-0.1 0.3-0.2 0-0.1 0.4-0.3 0.7-0.7 0.9 0 0.1 0 0.2 0.1 0.3l-0.2 0.1c0.1 0.1 0.1 0.3 0 0.5l-0.1-0.1c0 0.1-0.1 0.2-0.2 0.3-0.3 0.5-0.5 1-0.6 1.6h0.3c-0.7 0.2-1.3 0.3-2 0.4-0.2 0-0.4 0-0.6 0 0.4-0.6 0.7-1.1 0.9-1.7-0.2-0.1-0.5-0.2-0.7-0.3l1.6-0.2c-0.3-0.1-0.2-0.1 0.1-0.2-0.7-0.1-0.7-0.2 0.1-0.3-0.1-0.1-0.2-0.2-0.4-0.2 0.3-0.2 0.6-0.4 0.9-0.6-0.1-0.2-0.2-0.2-0.3 0-0.1-0.3 0.1-0.5 0.5-0.4 0-0.2 0-0.3 0.1-0.4-0.1 0-0.2 0-0.3-0.1 0.2-0.1 0.3-0.2 0.4-0.4-0.1 0-0.2 0-0.3-0.2l1-1c0.1 0 0.2 0 0.3 0.1 0.1-0.6 0.2-1.1 0.2-1.6 0 0.5 0.1 1 0.2 1.6 0.1-0.8 0.3-1.5 0.5-2.1 0.2-0.1 0.4-0.3 0.6-0.5-0.2 0-0.2-0.1-0.2-0.2 0.1 0 0.3 0 0.4 0z"></path><path fill="#e0e0e0" d="m2.4 26.5v0.2c-0.1-0.1-0.1-0.1 0-0.2z" opacity=".004"></path><path fill="#b6b6b6" d="m26.6 16.1c0.2 0.4 0.3 0.9 0.2 1.4-0.1 0.5-0.2 1.1-0.2 1.7l-0.2-0.5-0.1 1.3c-0.2 0.3-0.5 0.5-0.8 0.8l0.1 0.2c-0.4 0.1-0.4 0.2 0 0.3 0.1-0.3 0.2-0.6 0.4-0.8-0.1 0.2-0.1 0.5-0.2 0.7 0 0.1-0.1 0.2-0.2 0.3-0.2 0-0.4 0.1-0.6 0.2-0.1 0-0.3 0-0.4 0 0 0.1 0 0.2 0.2 0.2-0.2 0.2-0.4 0.4-0.6 0.5-0.2 0.6-0.4 1.3-0.5 2.1-0.1-0.6-0.2-1.1-0.2-1.6 0 0.5-0.1 1-0.2 1.6-0.1-0.1-0.2-0.1-0.3-0.1l-1 1c0.1 0.2 0.2 0.2 0.3 0.2-0.1 0.2-0.2 0.3-0.4 0.4 0.1 0.1 0.2 0.1 0.3 0.1-0.1 0.1-0.1 0.2-0.1 0.4-0.4-0.1-0.6 0.1-0.5 0.4 0.1-0.2 0.2-0.2 0.3 0-0.3 0.2-0.6 0.4-0.9 0.6 0.2 0 0.3 0.1 0.4 0.2-0.8 0.1-0.8 0.2-0.1 0.3-0.3 0.1-0.4 0.1-0.1 0.2l-1.6 0.2c0.2 0.1 0.5 0.2 0.7 0.3-0.2 0.6-0.5 1.1-0.9 1.7 0.2 0 0.4 0 0.6 0-0.5 0.2-1 0.2-1.5 0 0.2-0.4 0.4-0.8 0.7-1.1-0.2-0.2-0.3-0.4-0.2-0.7 0.1 0 0.3 0 0.4 0-0.7-0.1-0.7-0.2 0-0.4l-0.3-0.1c0.1-0.1 0.2-0.2 0.3-0.3 0.7-0.1 0.7-0.2 0.1-0.3 0.2-0.1 0.4-0.1 0.6-0.2-0.1-0.1-0.2-0.2-0.4-0.2 0.2-0.1 0.4-0.2 0.5-0.3l-0.9-0.1c0.4-0.1 0.9-0.1 1.3-0.1 0-0.3 0.1-0.5 0.3-0.7-0.8-0.1-0.8-0.2 0-0.2l0.5-0.6c0-0.1 0-0.3-0.1-0.4 0.3-0.2 0.3-0.4 0.1-0.6 0.2-0.1 0.4-0.2 0.6-0.1 0.3-0.5 0.5-1 0.7-1.4l0.1 0.1c0.1-0.1 0.1-0.3 0-0.4 0.1-0.1 0.2-0.2 0.3-0.4 0 0.1 0.1 0.1 0.2 0-0.3-0.1-0.3-0.3-0.1-0.6 0 0.4 0.1 0.4 0.2 0.1 0.1 0.4 0.2 0.4 0.3 0.1l0.2 0.2c0.1-0.3 0.3-0.6 0.4-0.8 0.1 0.2 0.1 0.2 0.2 0-0.2-0.1-0.3-0.3-0.3-0.6 0.2-0.1 0.3 0 0.4 0.2 0.3-0.6 0.6-1.2 1.2-1.7 0-0.4 0.1-0.9 0.1-1.3-0.1 0.1-0.2 0.1-0.3 0 0.3-0.5 0.6-1 1-1.4z"></path><path fill="#a6a7a6" d="m2.4 26.7h0.1c0 0.1 0 0.1-0.1 0z" opacity=".012"></path><path fill="#c0c0c0" d="m15 22.4c0.2 0.5 0.4 1 0.6 1.5-0.2-0.1-0.3-0.2-0.4-0.4-0.2 0-0.5 0.1-0.7 0.1l0.4 0.1c-0.4 0.2-0.4 0.3 0 0.5-0.4 0-0.7 0.3-0.9 0.7-0.1 0.1-0.2 0.2-0.3 0.2 0.9 0.1 0.9 0.1 0 0.2 0 0.1 0 0.2-0.1 0.3l0.2 0.2c-0.2 0-0.4 0.2-0.6 0.3 0.3 0.1 0.6 0.2 0.9 0.2l-0.9 0.1c-0.1 0.2-0.2 0.3-0.3 0.4 0.4 0.1 0.4 0.1 0 0.2l0.8 0.1c-0.3 0-0.5 0.1-0.7 0.2 0 0.3 0 0.7 0 1-0.2-0.1-0.3-0.2-0.3-0.3 0.1-0.3 0.1-0.5 0-0.7-0.3 0.5-0.6 1-0.8 1.6 0.3 0.2 0.6 0.4 1 0.5 0.3 0.1 0.6 0.3 0.9 0.5-0.1 0-0.2 0.1-0.3 0.1-1.2-0.4-2.3-0.8-3.4-1.1-1.1-0.7-2-1.7-2.7-2.7 0-0.1 0.1-0.1 0.2-0.2l0.7 0.4c0.1-0.1 0.2-0.1 0.3-0.1l0.2 0.1c0.7 0.8 1.4 1.5 2.3 2 0.2-0.5 0.5-1.1 0.9-1.6 0.1-0.1 0.3-0.1 0.4 0.1 0-0.2-0.1-0.5-0.1-0.7 0.1-0.2 0.2-0.3 0.3-0.5 0.1 0.2 0.3 0.3 0.5 0.3-0.2-0.2-0.3-0.4-0.4-0.6 0-0.1 0.1-0.1 0.2-0.1-0.1-0.1-0.1-0.2 0-0.3 0.2-0.2 0.3-0.2 0.5-0.1l-0.2-0.3c-0.1-0.3-0.2-0.6-0.3-0.9 0.1 0.1 0.2 0.2 0.3 0.2 0.2 0 0.2-0.1 0-0.2 0.4 0 0.8 0 1.1-0.1l-0.2-0.3c0.1 0 0.3-0.1 0.4-0.2 0-0.3 0.1-0.6 0.5-0.7z"></path><path fill="#e3e3e3" d="m29.3 26c0.1 0.1 0.2 0.2 0.2 0.3l0 0.3c-0.6 0.4-1 0.9-1.4 1.5-0.6 1.5-1.2 3.1-2 4.6-0.2 0.4-0.3 0.9-0.4 1.3-0.2 0.1-0.4 0.2-0.6 0.3 0.1-0.9 0.4-1.6 0.9-2.3 0.2-1 0.6-1.9 1.1-2.8 0-0.2 0.1-0.4 0.2-0.5l-0.1-0.1c-0.5 0.3-0.7 0.6-0.7 1-0.6 1.3-1.2 2.6-1.6 3.9-0.4 0.3-0.5 0.6-0.4 1v0.1h-0.5c0.3-0.7 0.5-1.3 0.6-2 0.8-0.8 1.2-1.7 1.3-2.8-0.2 0-0.4-0.1-0.6-0.2l-1.7 0.8c-0.5-0.1-1-0.3-1.3-0.4l0.8-0.5c0.7-0.2 1.3-0.5 1.8-0.9 0.9-0.5 1.7-1.1 2.5-1.9 0 0.3 0 0.5-0.1 0.7 0 0.2 0.1 0.3 0.2 0.4 0.6-0.5 1.2-1.1 1.8-1.8z"></path><path fill="#a6a7a6" d="m2.9 27.3c-0.1 0.1-0.1 0.1 0 0z" opacity=".012"></path><path fill="#969696" d="m27.7 19c-0.1 0.5 0.1 1 0.5 1.4-0.1 0-0.2 0-0.3-0.1 0 0.3-0.1 0.6-0.3 0.9-0.3-0.1-0.5-0.1-0.8-0.1 0 0.3-0.2 0.5-0.5 0.7l-0.1 1.9c-0.2 0.3-0.5 0.5-0.7 0.5-0.1-0.1-0.3-0.2-0.5-0.2 0 0.3 0.1 0.5 0.4 0.5-0.1 0.1-0.2 0.2-0.3 0.3 0.2-0.1 0.3 0 0.4 0.2-0.4 0.4-0.8 0.8-1.2 1.2-0.1 0.1-0.2 0.3-0.1 0.5l0.1-0.1c0.1 0.2 0.3 0.3 0.5 0.3-0.1 0-0.2 0.1-0.3 0.2-0.2-0.3-0.4-0.3-0.6-0.1 0.1 0 0.3 0.1 0.3 0.2-0.2 0.2-0.2 0.3 0.2 0.4-0.3 0-0.4 0.1-0.3 0.3-0.3 0.4-0.5 0.8-0.8 1.2l0.2 0.2c-0.2 0-0.3 0.1-0.4 0.2l-0.8 0.5h-0.6c0.1-0.6 0.3-1.1 0.6-1.6 0.1-0.1 0.2-0.2 0.2-0.3l0.1 0.1c0.1-0.2 0.1-0.4 0-0.5l0.2-0.1c-0.1-0.1-0.1-0.2-0.1-0.3 0.4-0.2 0.6-0.5 0.7-0.9 0.1 0.3 0.1 0.3 0.2 0 0.1 0.2 0.2 0.2 0.3 0.1-0.2-0.1-0.2-0.3-0.1-0.5-0.1 0-0.3-0.1-0.4-0.2-0.1-0.4 0-0.4 0.2-0.1 0.2-0.1 0.2-0.1 0.1-0.3l0.4-0.4c0-0.4 0.1-0.9 0.1-1.3 0.1 0.1 0.2 0.3 0.2 0.4 0.5-0.8 0.9-1.6 1.3-2.4h-0.7c0.2-0.1 0.4-0.2 0.6-0.2 0.1-0.1 0.2-0.2 0.2-0.3 0.7-0.4 1-1 1-1.8 0 0.9 0.1 1 0.2 0.1 0 0.2 0.1 0.4 0.2 0.6 0.1-0.6 0.1-1.2 0.3-1.8l0.1 0.8c0-0.1 0.1-0.1 0.1-0.1z"></path><path fill="#a6a7a6" d="m3 27.6c-0.1-0.1-0.1-0.1 0 0z" opacity=".012"></path><path fill="#f3f3f3" d="m34.1 26.2h0.2c-0.2 1.1-0.5 2.1-0.9 3.1-0.5 0.7-1.3 1.3-2.1 1.6-0.2-0.1-0.3-0.2-0.4-0.2 0.1-0.1 0.1-0.2 0.1-0.3 0.1 0 0.1 0 0.1-0.1 0.1 0 0.1 0 0.1-0.1 0.1 0 0.1 0 0.1-0.1 0.1 0 0.1 0 0.1-0.1 0.1 0 0.2-0.1 0.2-0.1 0 0 0.1-0.1 0.1-0.1 0 0 0.1-0.1 0.1-0.2 0.1 0 0.1-0.1 0.1-0.2 0-0.1 0-0.1 0.1-0.1s0.1 0 0.1-0.1c0.1 0 0.1 0 0.1-0.1 0.2-0.1 0.2-0.1 0-0.1 0.1-0.1 0.1-0.2 0.3-0.3 0 0 0.1 0 0.1-0.1 0.1 0 0.1 0 0-0.1 0-0.1 0-0.1 0.1-0.1s0.1 0 0.1-0.1c0.1 0 0.1-0.1 0-0.1 0-0.1 0.1-0.2 0.2-0.2 0.1 0 0.1-0.1 0.1-0.2 0.2 0 0.2 0 0-0.1 0 0 0.1-0.1 0.1-0.1s0.2 0 0.2-0.1c0.1 0 0.1-0.1 0.1-0.2 0.1-0.1 0.1-0.1 0.1-0.2 0.1 0 0.1-0.1 0.1-0.2 0.1 0 0.1-0.1 0.1-0.2 0.1 0 0.1 0 0.1-0.1 0.1-0.1 0.2-0.2 0.1-0.3 0.1 0 0.1-0.1 0.1-0.1z" opacity=".016"></path><path fill="#a6a7a6" d="m3 27.6h0.1c0 0.1-0.1 0.1-0.1 0z" opacity=".012"></path><path fill="#c3c3c3" d="m3.4 28.1c0 0.1 0 0.1 0 0.2-0.1-0.1-0.1-0.2 0-0.2z" opacity=".012"></path><path fill="#e0e0e0" d="m3.7 28.4c0 0.1 0 0.2-0.1 0.2-0.1-0.1-0.1-0.1 0.1-0.2z" opacity=".004"></path><path fill="#dedede" d="m16 25c0.5 1 0.8 2 1.2 3.1-0.1 0.2-0.2 0.5-0.4 0.7l0.2 0.1c-0.3 0.1-0.3 0.2 0 0.4-0.1 0-0.3 0-0.4 0 0 0.1 0 0.2 0.1 0.3 0-0.1 0.1-0.1 0.1 0 0 0.2-0.2 0.3-0.3 0.3l0.2 0.2c-0.3 0.2-0.6 0.2-0.9 0.2-0.6-0.1-1.1-0.2-1.7-0.3-0.1-0.1-0.2-0.1-0.3-0.1-0.3-0.2-0.6-0.4-0.9-0.5 0.3-0.8 0.8-1.6 1.4-2.3l0.2 0.2c0.3-0.4 0.4-0.4 0.4 0.2 0.4 0 0.4-0.2 0.1-0.5 0.2-0.1 0.3-0.2 0.3-0.4 0 0.1 0.1 0.3 0.2 0.3 0.1-0.1 0.2-0.3 0.3-0.4-0.2 0-0.4-0.2-0.6-0.4 0.2-0.2 0.3-0.5 0.3-0.7 0.1 0.2 0.2 0.3 0.4 0.4 0-0.2-0.1-0.4-0.2-0.7 0.1-0.2 0.2-0.2 0.3-0.1z"></path><path fill="#c4c4c4" d="m25.6 17.5c0.1 0.1 0.2 0.1 0.3 0 0 0.4-0.1 0.9-0.1 1.3-0.6 0.5-0.9 1.1-1.2 1.7-0.1-0.2-0.2-0.3-0.4-0.2 0 0.3 0.1 0.5 0.3 0.6-0.1 0.2-0.1 0.2-0.2 0-0.1 0.2-0.3 0.5-0.4 0.8l-0.2-0.2c-0.1 0.3-0.2 0.3-0.3-0.1-0.1 0.3-0.2 0.3-0.2-0.1-0.2 0.3-0.2 0.5 0.1 0.6-0.1 0.1-0.2 0.1-0.2 0-0.1 0.2-0.2 0.3-0.3 0.4 0.1 0.1 0.1 0.3 0 0.4l-0.1-0.1c-0.2 0.4-0.4 0.9-0.7 1.4-0.2-0.1-0.4 0-0.6 0.1 0.2 0.2 0.2 0.4-0.1 0.6 0.1 0.1 0.1 0.3 0.1 0.4l-0.5 0.5c-0.8 0.1-0.8 0.2 0 0.3-0.2 0.2-0.3 0.4-0.3 0.7-0.4 0-0.9 0-1.3 0.1l0.9 0.1c-0.1 0.1-0.3 0.2-0.5 0.3 0.2 0 0.3 0.1 0.4 0.2-0.2 0.1-0.4 0.1-0.6 0.1 0.6 0.2 0.6 0.3-0.1 0.4-0.1 0.1-0.2 0.2-0.3 0.3l0.3 0.1c-0.7 0.1-0.7 0.3 0 0.4-0.1 0-0.3 0-0.4 0-0.1 0.3 0 0.5 0.2 0.6-0.3 0.4-0.5 0.8-0.7 1.2 0.5 0.2 1 0.2 1.5 0 0.7-0.1 1.3-0.2 2-0.4h0.3c0.3 0.1 0.8 0.3 1.3 0.4l1.7-0.8c0.2 0.1 0.4 0.2 0.6 0.2-0.1 1.1-0.5 2-1.3 2.8-0.1 0.7-0.3 1.3-0.6 2h0.5v0.1h-0.3c-0.2 0-0.4 0-0.6-0.1-0.1 0.1-0.2 0.2-0.4 0.3l-0.1-0.1c0.2-0.2 0.4-0.5 0.4-0.8 0.1-0.2 0.2-0.5 0.2-0.9l1-1.5c0.3-0.5 0.5-1 0.6-1.5-1.1 0.4-2.1 0.8-3.2 1.1-0.5-0.1-1 0-1.5 0.2-0.9 0.1-1.9 0.1-2.9 0.3 0.9 0.1 1.7 0.1 2.6 0.1-0.3 0.4-0.5 0.8-0.7 1.2-0.2 0.1-0.4 0.2-0.5 0.2-0.3 0.1-0.5 0.1-0.8 0.2 0.1 0.5 0.1 1 0.2 1.5l0.2 0.1c0.1-0.4 0.2-0.9 0.2-1.3 0.2-0.2 0.3-0.3 0.6-0.1 0 0.4 0.1 0.8 0.1 1.2 0 0.1 0 0.1-0.1 0.1-0.1-1-0.2-1-0.3 0-0.1 0.3-0.2 0.5-0.4 0.8 0.1 0 0.1 0 0.2 0-0.9 0.1-1.8 0.1-2.7 0-0.4-0.1-0.8-0.2-1.2-0.2 0.2-0.1 0.5-0.2 0.7-0.1 0-0.3 0.1-0.5 0.3-0.6 0.3 0.2 0.6 0.3 0.9 0.2-0.1 0-0.3-0.1-0.4-0.2 0.7 0.4 1.1 0.1 1.2-0.7-0.1-0.7-0.6-1-1.3-0.9 0.2 0 0.4-0.1 0.7-0.1 0.4-0.3 0.8-0.7 1.1-1.2-0.4 0-0.8-0.1-1.1-0.1-0.3 0-0.5-0.1-0.7-0.2-0.5 0.1-1 0.1-1.5-0.2 0.1 0.1 0.2 0 0.2 0-0.1-0.2-0.3-0.3-0.5-0.4 0-0.5-0.2-0.8-0.6-1 0.6 0.1 1.1 0.2 1.7 0.3 0.6 0.2 1.2 0.3 1.8 0.1l0.4-1c0.1-0.1 0.2-0.1 0.3-0.2-0.4-0.2-0.5-0.5-0.4-0.9 0 0.1 0 0.2 0.1 0.2l0.2-0.7c0.3-0.3 0.6-0.6 0.8-1.1 2.2-3.1 4.4-6.1 6.6-9.2z"></path><path fill="#cfcfcf" d="m30.4 28.5c-0.2 0-0.3 0.1-0.4 0.2-0.4 0.3-0.6 0.2-0.7-0.2-0.1 0.2-0.1 0.3-0.2 0.5-0.3-0.3-0.6-0.3-0.9 0 0.1 0.1 0.2 0.1 0.3 0.1-0.4 0.7-0.8 1.3-1.3 2l-1 2.4c0 0 0 0.1 0.1 0.2-0.2 0.1-0.4 0.2-0.6 0.3 0.1-0.4 0.2-0.9 0.4-1.3 0.8-1.5 1.4-3.1 2-4.6 0.4-0.6 0.8-1.1 1.4-1.5l0-0.3c0-0.1-0.1-0.2-0.2-0.3 0.1-0.3 0.3-0.6 0.6-0.9 0 0.1 0 0.1 0 0.2l0.4-0.3c0.1 0.3 0.3 0.6 0.5 0.9-0.1 0.8-0.5 1.4-1 1.9-0.2 0.1-0.3 0.2-0.5 0.2 0 0.2 0.1 0.5 0.3 0.7 0.2-0.4 0.6-0.5 1.1-0.5-0.1 0.1-0.2 0.2-0.3 0.3z"></path><path fill="#e0e0e0" d="m4 28.9c0 0 0 0.1-0.1 0.2 0-0.1 0-0.2 0.1-0.2z" opacity=".004"></path><path fill="#ececec" d="m8.7 28.2c1.1 0.9 2.3 1.7 3.5 2.3-0.3 0.1-0.3 0.1 0 0.3-0.3 0.4-0.5 0.9-0.6 1.4-0.1 0.3-0.3 0.5-0.5 0.7 0 0.2 0 0.3 0 0.5-0.1 0.2-0.3 0.3-0.5 0.5 0.6 0.2 1.2 0.5 1.7 0.8h-0.3c-0.4-0.2-0.7-0.4-1.1-0.4-1-0.6-1.9-1.1-2.9-1.6 0-0.2-0.2-0.3-0.4-0.2 0.1-0.2 0-0.3-0.2-0.4 0-0.2-0.1-0.3-0.3-0.4 0.3-0.6 0.6-1.2 0.9-1.8 0-0.7 0.2-1.3 0.7-1.7z"></path><path fill="#7d7d7d" d="m30 28.7c0.1 0.3 0.1 0.5 0.1 0.8-0.3 0-0.5 0.1-0.8 0.1 0-0.1 0.1-0.2 0.1-0.3l-0.1-0.2c-0.3 0.1-0.3 0.1-0.2-0.1 0.1-0.2 0.1-0.3 0.1-0.5 0.2 0.4 0.4 0.5 0.8 0.2z"></path><path fill="#bebebe" d="m29.1 29c-0.1 0.2-0.1 0.2 0.2 0.1l0.1 0.2c0 0.1-0.1 0.2-0.1 0.3 0 0.2 0 0.3 0 0.5-0.2 0.1-0.4 0.1-0.6 0.2-0.2 0.3-0.4 0.6-0.8 0.8-0.3 0.7-0.7 1.5-1 2.3-0.1 0.1-0.3 0.2-0.4 0.3h-0.2c-0.1-0.1-0.1-0.2-0.1-0.2l1-2.4c0.5-0.7 0.9-1.3 1.3-2-0.1 0-0.2 0-0.3-0.1 0.3-0.3 0.6-0.3 0.9 0z"></path><path fill="#bcbcbc" d="m6.8 27.8c-0.1 0.4-0.1 0.7 0.2 0.9 0.4-0.3 0.7-0.7 1-1.2 0.3 0.2 0.5 0.4 0.7 0.7-0.5 0.4-0.7 1-0.7 1.7-0.3 0.6-0.6 1.2-0.9 1.8 0.2 0.1 0.3 0.2 0.3 0.4-0.3-0.2-0.5-0.4-0.8-0.5l-0.5-0.6c0-0.1-0.1-0.2-0.2-0.3 0.4-0.4 0.6-0.8 0.5-1.4 0.1-0.2 0.3-0.2 0.4-0.1-0.1 0.2-0.1 0.3 0 0.4 0.2 0 0.5-0.1 0.7-0.2 0-0.2 0-0.5 0-0.8l-0.5 0.3c-0.2-0.1-0.3-0.2-0.4-0.4 0 0.2 0 0.3-0.1 0.5-0.1-0.1-0.2-0.2-0.2-0.3-0.1 0.2-0.1 0.3-0.1 0.5-0.2 0-0.5-0.1-0.6-0.3 0.2-0.2 0.5-0.4 0.9-0.4-0.1-0.3 0-0.7 0.1-1 0.1 0.1 0.2 0.2 0.2 0.3z"></path><path fill="#7b7b7b" d="m6.8 29.2c0.1-0.1 0.2-0.2 0.2-0.3l0.5-0.3c0 0.3 0 0.6 0 0.8-0.2 0.1-0.5 0.2-0.7 0.2-0.1-0.1-0.1-0.2 0-0.4z"></path><path fill="#e0e0e0" d="m4.7 29.6c0 0.1 0 0.2-0.1 0.3-0.1-0.1 0-0.2 0.1-0.3z" opacity=".004"></path><path fill="#8a8a8a" d="m23.7 33.1c-0.2-0.8-0.8-1.2-1.7-1-0.1-0.1-0.1-0.1-0.2-0.2 0.2-0.1 0.4-0.4 0.3-0.7 1.1-0.3 2.1-0.7 3.2-1.1-0.1 0.5-0.3 1-0.6 1.5l-1 1.5z"></path><path fill="#f7f7f7" d="m12.2 30.5c0.9 0.5 1.8 0.8 2.8 0.9 0.5 0.3 1 0.3 1.5 0.2 0.2 0.1 0.4 0.2 0.7 0.2 0 0.1 0.1 0.1 0.2 0.2 0 0.1-0.1 0.1-0.1 0.2-0.7 0.1-1.2 0.4-1.5 0.9-0.1-0.1-0.3-0.1-0.4-0.1 0 0.2 0 0.4 0.2 0.5-0.2 0.1-0.4 0.4-0.4 0.6 0-0.3 0-0.6 0-0.9-0.1-0.2-0.2-0.3-0.4-0.2 0 0.1 0.1 0.1 0.1 0.2-0.1 0.3-0.3 0.7-0.3 1.1 0 0.2 0.1 0.3 0.3 0.5-0.3 0.2-0.2 0.3 0.1 0.4-0.2 0.1-0.5 0.1-0.8 0.1h-0.3c-0.2-0.1-0.5-0.2-0.8-0.3-0.1-0.1-0.2-0.1-0.3-0.1-0.2-0.1-0.3-0.1-0.5-0.2-0.5-0.3-1.1-0.6-1.7-0.8 0.2-0.2 0.4-0.3 0.5-0.5 0-0.2 0-0.3 0-0.5 0.2-0.2 0.4-0.4 0.5-0.7 0.1-0.5 0.3-1 0.6-1.4-0.3-0.2-0.3-0.2 0-0.3z"></path><path fill="#a6a7a6" d="m30.2 31.2c0.2 0.1 0.2 0.1 0 0z m-0.1 0.1h0.1c0 0.1-0.1 0.1-0.1 0z m-0.1 0.1h0.1c0 0.1-0.1 0.1-0.1 0z m-23.4 0.2v0.1c-0.1-0.1-0.1-0.1 0-0.1z m23.3 0h0.1c0 0-0.1 0-0.1 0z m-23.3 0.1c0.1 0 0.1 0 0.1 0.1l-0.1-0.1z" opacity=".012"></path><path fill="#f5f5f5" d="m25.1 34.3c-0.2 0.1-0.4 0.1-0.6 0.2-0.1-0.4 0-0.7 0.4-1 0.4-1.3 1-2.6 1.6-3.9 0-0.4 0.2-0.7 0.7-1l0.1 0.1c-0.1 0.1-0.2 0.3-0.2 0.5-0.5 0.9-0.9 1.8-1.1 2.8-0.5 0.7-0.8 1.4-0.9 2.3z"></path><path fill="#a6a7a6" d="m29.8 31.7h0.1c-0.1 0-0.1 0-0.1 0z" opacity=".012"></path><path fill="#fefffe" d="m6.7 31.8c0.1 0.1 0.1 0.1 0 0z" opacity=".004"></path><path fill="#a6a7a6" d="m29.6 31.8h0.2c-0.1 0.1-0.1 0.1-0.2 0z m-0.2 0.2v-0.1h0.2c0 0.1-0.1 0.1-0.2 0.1z" opacity=".012"></path><path fill="#9e9e9e" d="m12.9 31.9c0-0.1 0-0.1 0.1-0.1 0.5 0.2 1.1 0.3 1.7 0.4 0 0.1 0 0.3-0.1 0.4-0.5-0.3-1.1-0.5-1.7-0.7z"></path><path fill="#a6a7a6" d="m29.3 32h0.1c0 0.1 0 0.1-0.1 0z m-0.1 0.1h0.1c0 0.1-0.1 0.1-0.1 0z m-0.1 0.1h0.1c0 0.1-0.1 0.1-0.1 0z m-0.2 0.1c0.1 0.1 0.1 0.1 0 0z m-0.2 0.2h0.2c-0.1 0-0.1 0-0.2 0z m0 0.1c0 0 0 0 0 0z" opacity=".012"></path><path fill="#fefffe" d="m8 32.7c0 0.1 0 0.1 0 0z m20.4 0c0.2 0.1 0.2 0.1 0 0z" opacity=".004"></path><path fill="#a8a8a8" d="m13.8 32.6c0 0 0.1 0 0.1 0.1-0.1 0.6-0.3 1.1-0.5 1.7 0-0.7 0.1-1.3 0.4-1.8z"></path><path fill="#a6a7a6" d="m28.4 32.8c-0.1 0.1-0.1 0.1 0 0z m-0.3 0.1c0.1 0.1 0.1 0.1 0 0z m-0.1 0.1h0.1c-0.1 0.1-0.1 0.1-0.1 0z" opacity=".012"></path><path fill="#e0e0e0" d="m27.7 33.2v-0.1h0.3c-0.1 0.1-0.2 0.2-0.3 0.1z" opacity=".004"></path><path fill="#a6a7a6" d="m27.7 33.2c0 0.1 0 0.1 0 0z m-0.3 0.2c0.1 0 0.1 0 0 0z" opacity=".012"></path><path fill="#e0e0e0" d="m27.2 33.6v-0.1h0.2c0 0.1-0.1 0.1-0.2 0.1z" opacity=".004"></path><path fill="#dedede" d="m17.2 31.8c0.3 0 0.7 0.1 1.1 0.1-0.3 0.5-0.7 0.9-1.1 1.2-0.3 0-0.5 0.1-0.7 0.1 0.1 0.1 0.3 0.2 0.7 0.3 0.2 0.3 0.2 0.6 0.1 1-0.6 0.3-0.9 0.1-1-0.6-0.1 0.4 0 0.7 0.3 0.9 0.1 0.1 0.3 0.2 0.4 0.2-0.3 0.1-0.6 0-0.9-0.2-0.2 0.1-0.3 0.3-0.3 0.6-0.2-0.1-0.5 0-0.7 0.1-0.3-0.1-0.6-0.1-0.9-0.1v-0.1c0.3 0 0.6 0 0.8-0.1-0.3-0.1-0.4-0.2-0.1-0.4-0.2-0.2-0.3-0.3-0.3-0.5 0-0.4 0.2-0.8 0.3-1.1 0-0.1-0.1-0.1-0.1-0.2 0.2-0.1 0.3 0 0.4 0.2 0 0.3 0 0.6 0 0.9 0-0.2 0.2-0.5 0.4-0.6-0.2-0.1-0.2-0.3-0.2-0.5 0.1 0 0.3 0 0.4 0.1 0.3-0.5 0.8-0.8 1.5-0.9 0-0.1 0.1-0.1 0.1-0.2-0.1-0.1-0.2-0.1-0.2-0.2z"></path><path fill="#a6a7a6" d="m26.9 33.7v-0.1h0.3c-0.1 0.1-0.1 0.1-0.3 0.1z m-0.1 0h0.1c0 0.1 0 0.1-0.1 0z m-0.2 0.1c0.2 0.1 0.2 0.1 0 0z" opacity=".012"></path><path fill="#858585" d="m19.1 33.2c0.3 0 0.6 0.1 0.8 0.4 0.1 0.4 0.2 0.9 0.1 1.3-0.1-0.1-0.2-0.1-0.4-0.1 0-0.4-0.1-0.8-0.1-1.2-0.3-0.2-0.4-0.1-0.6 0.1 0 0.4-0.1 0.9-0.2 1.3l-0.2-0.1c-0.1-0.5-0.1-1-0.2-1.5 0.3-0.1 0.5-0.1 0.8-0.2z"></path><path fill="#a6a7a6" d="m26.4 33.9c0.1 0.1 0.1 0.1 0 0z" opacity=".012"></path><path fill="#808080" d="m26.3 33.7h0.2l-0.1 0.2c-0.2 0-0.3 0-0.4 0.1 0 0-0.1 0.1-0.1 0.1-0.1 0-0.2 0.1-0.2 0.2-0.1-0.1-0.3 0-0.3 0.1-0.1-0.1-0.2 0-0.3 0.1-0.1 0-0.2 0-0.3 0.1-0.1 0-0.2 0-0.2 0.1h-0.1v-0.2c0.2-0.1 0.4-0.1 0.6-0.2 0.2-0.1 0.4-0.2 0.6-0.3 0.2-0.1 0.4-0.2 0.6-0.3z" opacity=".773"></path><path fill="#bcbcbc" d="m26 34.1v-0.1h0.4c-0.1 0.1-0.2 0.2-0.4 0.1z" opacity=".012"></path><path fill="#9e9e9e" d="m22.1 31.2c0.1 0.3-0.1 0.6-0.3 0.7 0.1 0.1 0.1 0.1 0.2 0.2-0.2 0.1-0.5 0.1-0.7 0.2 0.2 0.8 0.3 1.5 0.5 2.2-0.1 0.1-0.1 0.1-0.2 0 0-0.5-0.2-0.9-0.3-1.4-0.1 0.2-0.2 0.4-0.3 0.6-0.1-0.4-0.2-0.8-0.2-1.2-0.2-0.1-0.3 0-0.5 0 0.1 0.1 0.1 0.1 0.1 0.2-0.1 0.6 0 1.3 0.2 2 0-0.1 0.1-0.1 0-0.2 0.1 0.1 0.2 0.2 0.2 0.3 0.1 0 0.3 0 0.5-0.1-0.2 0.5-0.1 0.7 0.5 0.7l-0.6 0.2c-0.7 0.1-1.5 0.1-2.2 0.1-0.1 0-0.1 0-0.2 0 0.2-0.3 0.3-0.5 0.4-0.8 0.1-1 0.2-1 0.3 0 0.1 0 0.1 0 0.1-0.1 0.2 0 0.3 0 0.4 0.1 0.1-0.4 0-0.9-0.1-1.3-0.2-0.3-0.5-0.4-0.8-0.4 0.1 0 0.3-0.1 0.5-0.2 0.2-0.4 0.4-0.8 0.7-1.2-0.9 0-1.7 0-2.6-0.1 1-0.2 2-0.2 2.9-0.3 0.5-0.2 1-0.3 1.5-0.2z" opacity=".989"></path><path fill="#d3d3d3" d="m20.4 32.7c0.1 0.6 0.2 1.2 0.2 1.8 0.1 0.1 0 0.1 0 0.2-0.2-0.7-0.3-1.4-0.2-2z"></path><path fill="#646464" d="m22 32.1c0.9-0.2 1.5 0.2 1.7 1 0 0.4-0.1 0.7-0.2 0.9-0.6 0.3-1.2 0.5-1.7 0.5-0.2-0.7-0.3-1.4-0.5-2.2 0.2-0.1 0.5-0.1 0.7-0.2z"></path><path fill="#848484" d="m22.6 32.3c0.3 0.4 0.5 0.9 0.6 1.4-0.2 0.1-0.3 0.2-0.5 0.3-0.2 0.1-0.4 0-0.6-0.1l-0.3-1.3c0.3 0 0.5-0.1 0.8-0.3z"></path><path fill="#c3c3c3" d="m22.6 32.3c0.5 0.3 0.8 0.7 0.6 1.4-0.1-0.5-0.3-1-0.6-1.4z"></path><path fill="#a6a7a6" d="m25.9 34.1h0.1c0 0.1 0 0.1-0.1 0z" opacity=".012"></path><path fill="#f2f2f2" d="m10.9 34.3c-0.1 0.1-0.2 0.1-0.3 0 0.1 0 0.2-0.1 0.3 0z" opacity=".016"></path><path fill="#e0e0e0" d="m25.7 34.3h0.2c0 0.1-0.1 0.1-0.2 0z" opacity=".004"></path><path fill="#a6a7a6" d="m25.4 34.5v-0.1c0.3 0 0.3 0 0 0.1z" opacity=".012"></path><path fill="#868686" d="m21.8 34.5c0.5 0 1.1-0.2 1.7-0.5 0 0.3-0.2 0.6-0.4 0.8l0.1 0.1c0.2-0.1 0.3-0.2 0.4-0.3 0.2 0.1 0.4 0.1 0.6 0.1v0.1c-0.1 0-0.2 0-0.3 0.1-0.1 0-0.3 0-0.3 0.1-0.2 0-0.3 0.1-0.4 0.2-0.1-0.1-0.3 0-0.4 0.1-0.4 0-0.7 0.1-1 0.1-0.6 0-0.7-0.2-0.5-0.7-0.2 0.1-0.4 0.1-0.5 0.1 0-0.1-0.1-0.2-0.2-0.3 0-0.6-0.1-1.2-0.2-1.8 0-0.1 0-0.1-0.1-0.2 0.2 0 0.3-0.1 0.5 0 0 0.4 0.1 0.8 0.2 1.2 0.1-0.2 0.2-0.4 0.3-0.6 0.1 0.5 0.3 0.9 0.3 1.4 0.1 0.1 0.1 0.1 0.2 0z" opacity=".988"></path><path fill="#a6a7a6" d="m25.1 34.6v-0.1h0.3c-0.1 0.1-0.1 0.1-0.3 0.1z" opacity=".012"></path><path fill="#bcbcbc" d="m24.8 34.7v-0.1h0.3c0 0.1-0.1 0.1-0.3 0.1z" opacity=".012"></path><path fill="#f2f2f2" d="m12 34.7v0.1c-0.3 0-0.3-0.1 0-0.1z" opacity=".016"></path><path fill="#9b9b9b" d="m16.5 33.2c0.7-0.1 1.2 0.2 1.3 0.9-0.1 0.8-0.5 1.1-1.2 0.7-0.3-0.2-0.4-0.5-0.3-0.9 0.1 0.7 0.4 0.9 1 0.6 0.1-0.4 0.1-0.7-0.1-1-0.4-0.1-0.6-0.2-0.7-0.3z"></path><path fill="#a6a7a6" d="m24.6 34.8v-0.1h0.2c0 0.1-0.1 0.1-0.2 0.1z" opacity=".012"></path><path fill="#fefffe" d="m12 34.8c0.1 0 0.2 0 0.3 0.1-0.1 0.1-0.2 0-0.3-0.1z" opacity=".004"></path><path fill="#d2d2d2" d="m24.2 34.8h0.4c-0.1 0.2-0.2 0.2-0.4 0z" opacity=".012"></path><path fill="#fcfcfc" d="m12.8 34.9c0 0.1 0.2 0.2 0.3 0.1-0.2 0.2-0.4 0.2-0.7 0 0.1-0.1 0.3-0.1 0.4-0.1z" opacity=".004"></path><path fill="#a6a7a6" d="m23.9 35v-0.1c0.3 0.1 0.3 0.1 0 0.1z" opacity=".012"></path><path fill="#bcbcbc" d="m23.6 35h0.3c-0.1 0.2-0.2 0.2-0.3 0z" opacity=".012"></path><path fill="#c3c3c3" d="m23.2 35.3v-0.1c0.3 0 0.3 0 0 0.1z" opacity=".012"></path><path fill="#fdfdfd" d="m13.9 35.3c-0.2 0.1-0.4 0.1-0.6 0 0.2 0 0.4 0 0.6 0z" opacity=".004"></path><path fill="#b8b8b8" d="m22.8 35.3h0.4c-0.1 0.1-0.3 0.1-0.4 0z" opacity=".012"></path><path fill="#c3c3c3" d="m14.2 35.4v0.1c-0.3 0-0.3-0.1 0-0.1z" opacity=".012"></path><path fill="#e0e0e0" d="m22.4 35.5c0.1-0.1 0.2-0.1 0.3-0.1-0.1 0.1-0.2 0.1-0.3 0.1z" opacity=".004"></path><path fill="#e8e8e8" d="m14.2 35.5c0.2 0 0.4 0 0.6 0-0.2 0.1-0.4 0.1-0.6 0z" opacity=".016"></path><path fill="#a6a7a6" d="m21.9 35.6c0.1-0.1 0.3-0.1 0.4 0-0.1 0-0.3 0-0.4 0z" opacity=".012"></path><path fill="#c9c9c9" d="m21.2 35.6c0.2 0 0.3 0 0.5 0.1-0.2 0-0.4 0-0.5-0.1z" opacity=".012"></path><path fill="#ccc" d="m16.3 35.7v0.1c-1.1 0-1.1 0 0-0.1z" opacity=".012"></path><path fill="#b5b5b5" d="m20.5 35.8c0.2-0.1 0.4-0.1 0.6 0-0.2 0-0.4 0-0.6 0z" opacity=".012"></path><path fill="#d6d6d6" d="m16.3 35.9v-0.1c0.4 0 0.9 0 1.3 0.1h-1.3z" opacity=".012"></path><path fill="#c0c0c0" d="m19.2 35.9c0.4-0.1 0.8-0.1 1.2 0h-1.2z" opacity=".012"></path></svg>