<?xml version="1.0"?><svg xmlns="http://www.w3.org/2000/svg" width="36" height="36" shape-rendering="geometricPrecision" text-rendering="geometricPrecision" image-rendering="optimizeQuality" fill-rule="evenodd" clip-rule="evenodd" viewBox="0 0 36 36"><path fill="#111c3b" d="m0 0h36v36h-36v-36z"></path><path fill="#f7f8f9" d="m11.5 7.2c1.7 0 2.4 0.8 2.1 2.5-0.5 0.9-1.3 1.3-2.4 0.9-1-0.7-1.2-1.6-0.6-2.7 0.3-0.2 0.6-0.5 0.9-0.7z"></path><path fill="#f5f7f7" d="m24.8 7c0.6-0.1 0.8 0.1 0.8 0.7-0.7 0.5-1.4 0.9-2.1 1.2 0.7 0.4 1.4 0.8 2.1 1.2 0.1 0.4-0.1 0.7-0.5 0.7-0.9-0.3-1.8-0.8-2.6-1.3-0.3-0.4-0.3-0.8 0-1.2 0.8-0.4 1.6-0.8 2.3-1.3z"></path><path fill="#1d2126" d="m13.8 12.9c-0.5-0.6-1.2-0.8-2-0.5 0-0.2-0.2-0.2-0.3-0.3 0.5 0.1 0.9 0 1.4-0.2v0.3c0.5 0.1 0.8 0.3 0.9 0.7z"></path><path fill="#302c14" d="m18.9 12.4c-0.4-0.1-0.9-0.1-1.4 0 0-0.1 0-0.1 0.1-0.2 0.4 0 0.8 0 1.2 0 0 0.1 0.1 0.1 0.1 0.2z"></path><path fill="#383216" d="m24.7 12.5c-0.3-0.1-0.6-0.2-0.9-0.2-0.2 0-0.5 0.1-0.8 0.2 0.4-0.3 0.9-0.4 1.4-0.3 0.2 0.1 0.3 0.1 0.3 0.3z"></path><path fill="#cfa915" d="m13.8 12.9c0.1 0.2 0.2 0.5 0.3 0.7 0 0.3 0.1 0.6 0.3 0.8v0.1c0.1 0.4 0.2 0.8 0.4 1.1v0.2c0.1 0.4 0.2 0.8 0.4 1.3 0 0.1 0.1 0.2 0.2 0.1v-0.3c0.2-0.5 0.3-1 0.5-1.5 0.1-0.2 0.1-0.4 0.2-0.6 0.2-0.6 0.5-1.2 0.7-1.9 0.2-0.2 0.5-0.3 0.7-0.5 0.5-0.1 1-0.1 1.4 0 0.3 0.1 0.6 0.3 0.8 0.5 0.2 0.3 0.3 0.7 0.4 1 0.3 0.9 0.7 1.7 1 2.5 0 0.2 0.1 0.3 0.2 0.5 0.1-0.2 0.2-0.4 0.3-0.7 0.1-0.2 0.2-0.5 0.1-0.9 0.2-0.5 0.4-1 0.5-1.5v-0.2c0.1-0.2 0.3-0.4 0.3-0.7l0.5-0.4c0.3-0.1 0.6-0.2 0.8-0.2 0.3 0 0.6 0.1 0.9 0.2 0.1 0.1 0.2 0.1 0.4 0.2 0 0.1 0.1 0.1 0.1 0.2-0.1 0.2 0 0.4 0 0.6 0.1 0 0.1 0 0.2 0l0 0.3c-0.1 0.5-0.2 1-0.2 1.5-0.2 0.4-0.3 0.8-0.3 1.3-0.1 0.2-0.2 0.4-0.2 0.6-0.1 0.4-0.2 0.7-0.3 1-0.1 0.4-0.2 0.8-0.2 1.2-0.3 0.4-0.4 0.8-0.4 1.3-0.2 0.9-0.5 1.8-0.8 2.7l-0.1 0.1c-0.3 0.2-0.6 0.4-0.9 0.6h-0.1c-0.4 0-0.9-0.1-1.2-0.3h-0.1c-0.5-0.5-0.8-1.1-0.9-1.7v-0.1c-0.3-0.8-0.6-1.5-0.9-2.2-0.1-0.3-0.2-0.6-0.3-0.8 0-0.1 0-0.2 0-0.3-0.1-0.1-0.2-0.1-0.3 0l-0.4 1.4c-0.4 1.1-0.8 2.2-1.2 3.3-0.3 0.2-0.5 0.4-0.8 0.6-0.6 0.1-1.1 0.1-1.6-0.1 0-0.1 0-0.2-0.1-0.2-0.1-0.1-0.2-0.2-0.3-0.3-0.1-0.2-0.3-0.5-0.3-0.8-0.2-0.5-0.4-1.1-0.6-1.6v-0.2c0-0.2-0.1-0.5-0.3-0.7 0.1-0.2 0-0.4-0.1-0.6v-0.1c-0.1-0.4-0.2-0.7-0.4-1v-0.1c0-0.4-0.1-0.7-0.4-1.1 0-0.3 0-0.7-0.2-1-0.1-0.5-0.3-1.1-0.6-1.6v-0.1c-0.1-0.4-0.1-0.9 0-1.3 0.2-0.4 0.5-0.7 0.9-0.8 0.8-0.3 1.5-0.1 2 0.5z"></path><path fill="#18202c" d="m16.8 12.9c-0.2 0.7-0.5 1.3-0.7 1.9 0-0.2-0.1-0.4-0.1-0.7 0-0.4 0.1-0.8 0.3-1.2h0.5z"></path><path fill="#4f461b" d="m22.5 12.9c0 0.3-0.2 0.5-0.3 0.7 0-0.3 0.1-0.5 0.3-0.7z"></path><path fill="#312e1d" d="m10.9 13.2c-0.1 0.4-0.1 0.9 0 1.3-0.2-0.3-0.3-0.7-0.2-1.1 0.1-0.1 0.1-0.2 0.2-0.2z"></path><path fill="#282915" d="m25.4 13.2c0.1 0 0.1 0 0.2 0.1 0 0.4 0 0.8 0.1 1.1-0.1 0.1-0.3 0.2-0.4 0.3 0.2-0.5 0.3-1 0.1-1.5z"></path><path fill="#716523" d="m14.1 13.6c0.2 0.2 0.2 0.5 0.3 0.8-0.2-0.2-0.3-0.5-0.3-0.8z"></path><path fill="#252a1c" d="m22.2 13.8c-0.1 0.5-0.3 1-0.5 1.5 0.1-0.4 0.1-0.8 0.2-1.2 0.1-0.1 0.2-0.2 0.3-0.3z"></path><path fill="#b29630" d="m25.2 12.9c0.1 0 0.2 0.1 0.2 0.3 0.2 0.5 0.1 1-0.1 1.5 0 0.2 0 0.4-0.1 0.6h0c0-0.5 0.1-1 0.2-1.5l0-0.3c-0.1 0-0.1 0-0.2 0 0-0.2-0.1-0.4 0-0.6z"></path><path fill="#1b2122" d="m20.1 13.9c0.2 0 0.3 0.1 0.3 0.2 0 0.2 0.1 0.4 0.3 0.5 0.2 0.6 0.3 1.2 0.4 1.8-0.3-0.8-0.7-1.6-1-2.5z"></path><path fill="#2e2a16" d="m14.4 14.5c0.1 0 0.1 0.1 0.2 0.2 0.1 0.3 0.2 0.6 0.2 0.9-0.2-0.3-0.3-0.7-0.4-1.1z"></path><path fill="#2d2a16" d="m10.9 14.6c0.3 0.5 0.5 1.1 0.6 1.6-0.3-0.1-0.4-0.3-0.3-0.6-0.1-0.3-0.2-0.6-0.3-1z"></path><path fill="#2b281d" d="m25.2 15.3h0c0 0.4-0.1 0.8-0.2 1.2 0 0.1-0.1 0.1-0.1 0.1 0-0.5 0.1-0.9 0.3-1.3z"></path><path fill="#604f14" d="m21.7 15.3c0.1 0.4 0 0.7-0.1 0.9 0-0.3 0-0.6 0.1-0.9z"></path><path fill="#1c1f22" d="m15.9 15.4c-0.2 0.5-0.3 1-0.5 1.5 0 0.1-0.1 0.1-0.2 0.2-0.2-0.5-0.3-0.9-0.4-1.3 0.2 0.1 0.2 0.3 0.3 0.5 0.1 0 0.3 0 0.4 0 0-0.3 0.1-0.6 0.1-0.9h0.3z"></path><path fill="#483e18" d="m11.5 16.2c0.2 0.3 0.2 0.7 0.2 1-0.1-0.3-0.2-0.6-0.2-1z"></path><path fill="#8c7432" d="m15.4 16.9v0.3c-0.1 0.1-0.2 0-0.2-0.1 0.1-0.1 0.2-0.1 0.2-0.2z"></path><path fill="#2e320e" d="m24.9 16.6c0 0.3 0 0.5-0.2 0.6 0-0.2 0.1-0.4 0.2-0.6z"></path><path fill="#3c371a" d="m11.7 17.2c0.3 0.4 0.4 0.7 0.4 1.1-0.2-0.3-0.3-0.7-0.4-1.1z"></path><path fill="#2c2c13" d="m12.1 18.4c0.2 0.3 0.3 0.6 0.4 1-0.2-0.3-0.4-0.6-0.4-1z"></path><path fill="#2f2d15" d="m18.5 19c-0.1-0.1-0.2-0.1-0.2 0-0.2 0.4-0.3 0.8-0.5 1.1l0.4-1.4c0.1-0.1 0.2-0.1 0.2 0 0.1 0.1 0.1 0.2 0.1 0.3z"></path><path fill="#3b3112" d="m24.4 18.2c0 0.4-0.1 0.8-0.2 1.2 0-0.4 0.1-0.8 0.2-1.2z"></path><path fill="#292e0e" d="m12.5 19.5c0.1 0.2 0.2 0.4 0.1 0.6-0.1-0.2-0.1-0.4-0.1-0.6z"></path><path fill="#29271f" d="m18.8 19.8c0.3 0.7 0.6 1.4 0.9 2.2-0.1 0-0.2-0.1-0.3-0.2-0.1-0.3-0.3-0.7-0.3-1.1-0.2-0.2-0.3-0.6-0.3-0.9z"></path><path fill="#1f2527" d="m24.2 19.4c0 0.4 0 0.8 0.1 1.2-0.1 0.4-0.2 0.4-0.3 0 0 0-0.1 0.1-0.2 0.1 0-0.5 0.1-0.9 0.4-1.3z"></path><path fill="#302814" d="m12.6 20.1c0.2 0.2 0.3 0.5 0.3 0.7-0.2-0.2-0.3-0.4-0.3-0.7z"></path><path fill="#262425" d="m12.9 21c0.2 0.5 0.4 1.1 0.6 1.6l-0.5-0.8 0 0.7c0-0.5-0.1-1-0.1-1.5z"></path><path fill="#1f251f" d="m23.8 20.7c0 0.3 0.1 0.6 0.2 0.9h-0.3c-0.1 0.2-0.2 0.5-0.3 0.8 0.1 0.2 0.2 0.4 0.2 0.6h-0.3c0 0.2-0.1 0.3-0.3 0.4 0.3-0.9 0.6-1.8 0.8-2.7z"></path><path fill="#1b1e2c" d="m19.7 22.1c0.1 0.6 0.4 1.2 0.9 1.7-0.2 0-0.3 0-0.4 0.2-0.1-0.1-0.1-0.2-0.1-0.3-0.2 0-0.4-0.1-0.5-0.3 0-0.2-0.1-0.4-0.1-0.6 0.1-0.2 0.2-0.4 0.2-0.7z"></path><path fill="#463e26" d="m13.8 23.4c0.1 0.1 0.2 0.2 0.3 0.3-0.2 0-0.3-0.1-0.3-0.3z"></path><path fill="#363121" d="m22.9 23.5c-0.1 0.1-0.1 0.3-0.1 0.4l-0.8 0.2c0.3-0.2 0.6-0.4 0.9-0.6z"></path><path fill="#222311" d="m14.2 23.9c0.5 0.2 1 0.2 1.6 0.1-0.2 0.1-0.4 0.2-0.7 0.2-0.3 0-0.6-0.1-0.8-0.2-0.1 0-0.1 0-0.1-0.1z"></path><path fill="#35221b" d="m20.7 23.8c0.3 0.2 0.8 0.3 1.2 0.3-0.3 0.1-0.6 0.1-0.9 0-0.1 0-0.3-0.1-0.3-0.3z"></path><path fill="#f7f8f9" d="m23.3 27.7c-1.1 0.4-2.2 0.8-3.4 1.1-2.7 0.4-5.3-0.1-7.7-1.4-0.3-0.2-0.6-0.4-0.9-0.7-0.3-0.8-0.1-1.2 0.8-1.2 2.5 1.7 5.2 2.2 8.1 1.6 1.4-0.4 2.7-0.9 4-1.6 0.8-0.1 1.1 0.4 0.8 1.2-0.6 0.3-1.1 0.7-1.7 1z"></path><path fill="#242b41" d="m23.3 27.7c-0.2 0.1-0.3 0.2-0.3 0.4-0.7 0.1-1.4 0.2-2.1 0.6-0.3 0.1-0.6 0.1-1 0.1 1.2-0.3 2.3-0.7 3.4-1.1z"></path></svg>