<?xml version="1.0" encoding="UTF-8"?>
<!DOCTYPE svg PUBLIC "-//W3C//DTD SVG 1.1//EN" "http://www.w3.org/Graphics/SVG/1.1/DTD/svg11.dtd">
<svg xmlns="http://www.w3.org/2000/svg" version="1.1" width="256px" height="256px" style="shape-rendering:geometricPrecision; text-rendering:geometricPrecision; image-rendering:optimizeQuality; fill-rule:evenodd; clip-rule:evenodd" xmlns:xlink="http://www.w3.org/1999/xlink">
<g><path style="opacity:0.983" fill="#1e0947" d="M 114.5,-0.5 C 123.167,-0.5 131.833,-0.5 140.5,-0.5C 205.806,10.806 244.139,49.1394 255.5,114.5C 255.5,123.167 255.5,131.833 255.5,140.5C 244.167,205.833 205.833,244.167 140.5,255.5C 131.833,255.5 123.167,255.5 114.5,255.5C 49.1394,244.139 10.806,205.806 -0.5,140.5C -0.5,131.833 -0.5,123.167 -0.5,114.5C 10.8333,49.1667 49.1667,10.8333 114.5,-0.5 Z"/></g>
<g><path style="opacity:1" fill="#3c2977" d="M 113.5,4.5 C 167.509,1.24954 208.343,22.5829 236,68.5C 253.788,104.554 255.121,141.221 240,178.5C 219.836,219.648 187.003,243.481 141.5,250C 87.4837,253.745 46.6504,232.579 19,186.5C -0.333333,147.167 -0.333333,107.833 19,68.5C 40.1164,31.8912 71.6164,10.5579 113.5,4.5 Z"/></g>
<g><path style="opacity:1" fill="#1e0947" d="M 118.5,12.5 C 171.291,11.6301 209.457,34.6301 233,81.5C 252.522,135.585 240.688,181.418 197.5,219C 157.324,246.714 115.324,249.714 71.5,228C 30.6448,203.133 11.1448,166.633 13,118.5C 19.0725,68.7687 45.5725,35.2687 92.5,18C 101.188,15.6135 109.855,13.7801 118.5,12.5 Z"/></g>
<g><path style="opacity:1" fill="#4d3a96" d="M 112.5,23.5 C 159.026,19.5132 194.526,37.1799 219,76.5C 238.274,115.535 235.941,153.202 212,189.5C 177.426,230.436 134.926,241.603 84.5,223C 35.9866,197.136 16.4866,156.969 26,102.5C 39.1481,58.8465 67.9815,32.5131 112.5,23.5 Z"/></g>
<g><path style="opacity:1" fill="#220c48" d="M 127.5,66.5 C 128.386,65.2241 129.386,65.2241 130.5,66.5C 139.168,79.8167 148.168,92.8167 157.5,105.5C 156.516,108.07 155.349,108.07 154,105.5C 145.638,92.0878 136.805,79.0878 127.5,66.5 Z"/></g>
<g><path style="opacity:1" fill="#f7bd4d" d="M 127.5,66.5 C 136.805,79.0878 145.638,92.0878 154,105.5C 155.349,108.07 156.516,108.07 157.5,105.5C 158.604,103.611 159.937,101.945 161.5,100.5C 162.608,102.781 163.942,104.948 165.5,107C 163.337,108.998 161.67,111.332 160.5,114C 161.91,116.818 163.577,119.485 165.5,122C 163.768,123.972 162.435,126.139 161.5,128.5C 159.833,126.5 158.167,124.5 156.5,122.5C 156.607,120.621 156.107,120.288 155,121.5C 146.337,134.987 137.504,148.32 128.5,161.5C 118.597,148.038 108.93,134.371 99.5,120.5C 97.823,122.54 96.1563,124.54 94.5,126.5C 92.8064,124.953 91.473,123.12 90.5,121C 91.91,118.182 93.5766,115.515 95.5,113C 89.5361,109.041 89.2027,104.875 94.5,100.5C 96.1563,102.46 97.823,104.46 99.5,106.5C 108.843,93.1376 118.176,79.8043 127.5,66.5 Z"/></g>
<g><path style="opacity:1" fill="#220c48" d="M 128.5,80.5 C 121.193,91.4822 113.859,102.482 106.5,113.5C 113.835,124.817 121.502,135.817 129.5,146.5C 129.013,147.473 128.513,148.473 128,149.5C 119.934,137.611 112.101,125.611 104.5,113.5C 111.155,102.197 118.321,91.1975 126,80.5C 126.977,79.2264 127.811,79.2264 128.5,80.5 Z"/></g>
<g><path style="opacity:1" fill="#4e3b96" d="M 128.5,80.5 C 136.639,91.4218 144.305,102.755 151.5,114.5C 144.144,125.233 136.811,135.899 129.5,146.5C 121.502,135.817 113.835,124.817 106.5,113.5C 113.859,102.482 121.193,91.4822 128.5,80.5 Z"/></g>
<g><path style="opacity:1" fill="#220c48" d="M 161.5,100.5 C 164.411,101.41 166.411,103.41 167.5,106.5C 166.029,109.136 164.363,111.636 162.5,114C 164.291,116.414 165.957,118.914 167.5,121.5C 166.163,124.578 164.163,126.911 161.5,128.5C 162.435,126.139 163.768,123.972 165.5,122C 163.577,119.485 161.91,116.818 160.5,114C 161.67,111.332 163.337,108.998 165.5,107C 163.942,104.948 162.608,102.781 161.5,100.5 Z"/></g>
<g><path style="opacity:1" fill="#f7be4d" d="M 77.5,109.5 C 89.6592,126.48 101.326,143.813 112.5,161.5C 108.993,162.006 105.826,161.34 103,159.5C 95.0578,147.261 86.8911,135.261 78.5,123.5C 77.8106,122.226 76.9772,122.226 76,123.5C 69.3333,133.5 62.6667,143.5 56,153.5C 55.4719,154.816 55.9719,155.483 57.5,155.5C 60.8984,155.82 64.2317,155.487 67.5,154.5C 72.1889,147.767 76.8556,141.1 81.5,134.5C 83.8423,136.317 85.009,138.65 85,141.5C 80.2785,148.048 75.7785,154.715 71.5,161.5C 61.8276,161.666 52.1609,161.5 42.5,161C 53.8185,143.508 65.4852,126.341 77.5,109.5 Z"/></g>
<g><path style="opacity:1" fill="#200b47" d="M 77.5,109.5 C 78.3864,108.224 79.3864,108.224 80.5,109.5C 92.043,126.753 103.71,143.92 115.5,161C 114.552,161.483 113.552,161.649 112.5,161.5C 101.326,143.813 89.6592,126.48 77.5,109.5 Z"/></g>
<g><path style="opacity:1" fill="#f7be4d" d="M 178.5,109.5 C 189.823,126.805 201.156,144.138 212.5,161.5C 202.828,161.666 193.161,161.5 183.5,161C 179.21,154.92 175.043,148.753 171,142.5C 170.991,139.65 172.158,137.317 174.5,135.5C 178.576,141.978 182.91,148.311 187.5,154.5C 188.325,155.386 189.325,155.719 190.5,155.5C 193.572,155.817 196.572,155.484 199.5,154.5C 192.823,144.471 186.156,134.471 179.5,124.5C 178.516,121.93 177.349,121.93 176,124.5C 167.823,136.862 159.656,149.195 151.5,161.5C 148.753,161.813 146.086,161.48 143.5,160.5C 154.834,143.184 166.501,126.184 178.5,109.5 Z"/></g>
<g><path style="opacity:1" fill="#210b48" d="M 178.5,109.5 C 180.74,110.568 182.574,112.234 184,114.5C 194.109,130.273 204.609,145.773 215.5,161C 214.552,161.483 213.552,161.649 212.5,161.5C 201.156,144.138 189.823,126.805 178.5,109.5 Z"/></g>
<g><path style="opacity:1" fill="#210b48" d="M 156.5,122.5 C 148.916,134.6 141.082,146.6 133,158.5C 132.092,160.439 130.592,161.439 128.5,161.5C 137.504,148.32 146.337,134.987 155,121.5C 156.107,120.288 156.607,120.621 156.5,122.5 Z"/></g>
<g><path style="opacity:1" fill="#210b48" d="M 78.5,123.5 C 71.5,134.167 64.5,144.833 57.5,155.5C 55.9719,155.483 55.4719,154.816 56,153.5C 62.6667,143.5 69.3333,133.5 76,123.5C 76.9772,122.226 77.8106,122.226 78.5,123.5 Z"/></g>
<g><path style="opacity:1" fill="#210b48" d="M 179.5,124.5 C 170.696,136.085 162.363,148.085 154.5,160.5C 153.675,161.386 152.675,161.719 151.5,161.5C 159.656,149.195 167.823,136.862 176,124.5C 177.349,121.93 178.516,121.93 179.5,124.5 Z"/></g>
<g><path style="opacity:1" fill="#210b48" d="M 81.5,134.5 C 82.3864,133.224 83.3864,133.224 84.5,134.5C 85.711,136.422 87.0443,138.255 88.5,140C 83.9569,146.92 79.2903,153.753 74.5,160.5C 73.675,161.386 72.675,161.719 71.5,161.5C 75.7785,154.715 80.2785,148.048 85,141.5C 85.009,138.65 83.8423,136.317 81.5,134.5 Z"/></g>
<g><path style="opacity:1" fill="#240d49" d="M 190.5,155.5 C 189.325,155.719 188.325,155.386 187.5,154.5C 182.91,148.311 178.576,141.978 174.5,135.5C 175.793,134.355 176.959,134.689 178,136.5C 182.177,142.862 186.344,149.195 190.5,155.5 Z"/></g>
</svg>
