<svg xmlns="http://www.w3.org/2000/svg" width="320" height="320" viewBox="0 0 320 320" version="1.1">
	<path fill-opacity="0.220" d="M 206.500 35 C 206.864 35.589, 205.758 36.004, 203.809 36.009 C 198.803 36.023, 181.835 40.608, 172.521 44.463 C 145.674 55.576, 124.708 74.661, 109.179 102.122 C 106.890 106.169, 106 109.024, 106 112.315 C 106 118.046, 108.362 120, 115.288 120 C 123.591 120, 124 120.564, 124 132.016 C 124 143.772, 125.262 142.885, 108.022 143.254 L 96.543 143.500 95.341 148.923 C 91.999 163.991, 92.554 179.645, 96.572 183.663 C 98.734 185.825, 99.720 186, 109.763 186 C 124.285 186, 124.155 185.884, 123.789 198.515 L 123.500 208.500 114.669 208.790 L 105.838 209.080 106.507 213.040 C 106.953 215.682, 106.805 217, 106.063 217 C 104.377 217, 103.356 213.333, 102.582 204.500 C 102.196 200.100, 101.475 196.090, 100.979 195.588 C 100.483 195.087, 94.772 194.759, 88.288 194.859 C 81.805 194.960, 75.150 194.664, 73.500 194.202 C 70.593 193.388, 70.474 193.116, 69.656 185.431 C 69.192 181.069, 68.437 177.043, 67.978 176.484 C 67.020 175.317, 50.048 175.528, 48.923 176.722 C 47.813 177.898, 46.185 191.889, 46.564 196.999 C 47.010 203.025, 49.490 205, 56.611 205 C 65.264 205, 66 206.293, 66 221.500 C 66 238.528, 65.408 238, 84.500 238 C 97.667 238, 99.184 237.816, 101 236 C 102.300 234.700, 103 232.667, 103 230.191 C 103 228.096, 103.605 225.555, 104.344 224.544 C 105.571 222.866, 106.147 223.465, 110.959 231.432 C 124.901 254.514, 142.139 270.348, 165.500 281.532 C 202.092 299.050, 240.809 298.746, 276.639 280.658 C 286.455 275.703, 297.755 268.055, 303.906 262.204 C 307.765 258.533, 307.916 258.155, 307.694 252.682 L 307.464 246.983 287.991 227.491 C 277.282 216.771, 268.151 208, 267.701 208 C 267.251 208, 265.109 209.425, 262.942 211.167 C 260.774 212.909, 258.739 214.072, 258.419 213.752 C 257.592 212.926, 277.813 162.400, 279.545 160.962 C 281.563 159.288, 281.827 160.543, 282.202 173.589 C 282.495 183.790, 282.745 185.017, 285.326 188.917 C 287.089 191.580, 289.689 193.864, 292.316 195.057 C 300.084 198.583, 310.945 196.898, 312.525 191.921 C 313.310 189.448, 312.113 174.188, 311.085 173.553 C 310.697 173.313, 308.494 173.595, 306.189 174.180 C 299.990 175.754, 299 174.499, 299 165.069 C 299 155.121, 300.007 153.702, 307.554 153.020 C 312.315 152.589, 313.643 152.036, 315.316 149.787 C 317.211 147.241, 317.257 146.628, 316.064 139.787 C 315.364 135.779, 314.628 131.938, 314.428 131.250 C 314.178 130.395, 311.719 130, 306.651 130 L 299.239 130 298.523 119.500 C 298.130 113.724, 297.382 108.736, 296.861 108.414 C 295.909 107.825, 288.006 113.593, 284.750 117.254 C 283.788 118.336, 282.994 120.634, 282.986 122.361 C 282.957 129.200, 282.271 130, 276.440 130 C 269.699 130, 269.676 130.032, 262.406 149.711 C 259.276 158.183, 256.402 164.752, 256.018 164.308 C 255.634 163.863, 254.825 162.150, 254.220 160.500 C 241.990 127.158, 243.844 130, 234.325 130 C 229.617 130, 228.735 130.298, 228.279 132.041 L 227.745 134.082 226.316 132.041 C 224.206 129.029, 217.536 129.272, 212.732 132.536 C 209.256 134.898, 209 134.940, 209 133.143 C 209 130.763, 207.145 130, 201.352 130 C 195.010 130, 193 131.332, 193 135.535 C 193 138.746, 192.762 139.011, 189.750 139.152 C 187.963 139.236, 186.050 139.409, 185.500 139.537 C 184.950 139.665, 183.751 139.821, 182.835 139.885 C 181.505 139.977, 181.026 141.542, 180.452 147.670 C 179.480 158.046, 180.291 159.957, 186.500 161.920 L 191.500 163.500 192 177.842 C 192.473 191.410, 192.627 192.286, 194.861 194.092 C 198.328 196.895, 204.460 196.631, 207.545 193.545 C 209.869 191.221, 210 190.474, 210 179.488 C 210 160.478, 212.920 154, 221.487 154 C 227.123 154, 231.788 155.736, 233.193 158.355 C 233.825 159.535, 236.950 167.184, 240.136 175.354 L 245.928 190.207 242.372 198.854 C 238.779 207.588, 237.863 214.925, 240.037 217.544 C 240.591 218.212, 242.415 219.033, 244.089 219.368 C 248.476 220.245, 246.902 221.661, 238.699 224.214 C 227.525 227.693, 211.486 227.422, 199.574 223.552 C 184.361 218.610, 171.730 208.633, 163.637 195.165 C 157.783 185.422, 157.789 185.400, 166.445 185.837 C 173.338 186.185, 174.065 186.026, 176.439 183.652 C 178.578 181.513, 178.984 180.217, 178.904 175.795 C 178.851 172.883, 178.288 168.025, 177.654 165 L 176.500 159.500 168.372 159.212 C 158.842 158.873, 159.291 158.363, 158.352 170.583 C 157.734 178.621, 156.892 180.767, 155.638 177.500 C 155.173 176.288, 152.868 176, 143.613 176 C 137.316 176, 131.452 175.727, 130.582 175.393 C 129.297 174.900, 129 173.049, 129 165.548 C 129 153.336, 129.359 153, 142.394 153 C 147.750 153, 153.045 152.511, 154.162 151.913 C 155.279 151.315, 157.724 147.466, 159.596 143.359 C 166.769 127.618, 176.940 116.472, 190.355 109.649 C 200.284 104.600, 208.578 102.672, 220.500 102.642 C 235.519 102.604, 248.293 107.033, 260.894 116.648 C 263.310 118.491, 266.447 120, 267.865 120 C 269.876 120, 274.558 115.883, 289.188 101.250 L 307.934 82.500 307.703 76.839 C 307.439 70.373, 306.725 69.349, 297.200 61.764 C 288.398 54.756, 276.188 47.604, 266.933 44.034 C 257.972 40.579, 240.837 36.023, 236.750 36.009 C 235.238 36.004, 234 35.550, 234 35 C 234 34.381, 228.647 34, 219.941 34 C 210.823 34, 206.099 34.351, 206.500 35 M 60.589 97.855 C 60.299 98.326, 59.805 103.163, 59.492 108.605 C 58.532 125.319, 57.880 131, 56.920 131 C 56.414 131, 55.993 129.762, 55.985 128.250 C 55.957 123.199, 55.224 122.906, 43.419 123.214 L 32.500 123.500 31.204 131 C 29.485 140.946, 30.013 150.251, 32.449 152.943 C 34.070 154.735, 35.496 155, 43.500 155 C 54.861 155, 56.244 153.939, 57 144.646 C 57.479 138.762, 57.607 138.516, 60 138.876 C 61.375 139.082, 68.824 139.442, 76.553 139.675 C 89.883 140.077, 90.750 139.984, 93.423 137.882 L 96.240 135.666 95.760 118.083 C 95.495 108.412, 94.943 99.713, 94.533 98.750 C 93.865 97.185, 92.057 97, 77.452 97 C 68.468 97, 60.880 97.385, 60.589 97.855 M 145.029 106.961 C 144.220 107.473, 143.882 108.216, 144.279 108.612 C 145.214 109.548, 150.786 109.548, 151.721 108.612 C 152.585 107.748, 150.110 106.031, 148 106.031 C 147.175 106.031, 145.838 106.449, 145.029 106.961 M 4.553 131.087 C 3.950 137.997, 4.099 139.452, 5.579 141.087 C 7.706 143.437, 11.767 143.552, 14.912 141.349 C 17.138 139.790, 17.233 139.289, 16.639 132.263 C 16.294 128.173, 15.757 124.416, 15.446 123.913 C 15.136 123.411, 12.717 123, 10.070 123 L 5.258 123 4.553 131.087 M 71.690 151.709 C 71.426 152.144, 70.657 155.954, 69.980 160.176 C 67.715 174.303, 70.319 178.636, 80.563 177.786 C 83.700 177.526, 86.778 176.650, 87.662 175.767 C 89.874 173.555, 90.326 166.658, 88.794 158.500 L 87.480 151.500 79.824 151.209 C 75.613 151.050, 71.953 151.275, 71.690 151.709 M 15.632 156.250 C 15.301 157.488, 14.745 161.875, 14.396 166 C 13.842 172.547, 14.012 173.808, 15.731 175.924 C 17.322 177.883, 18.667 178.362, 22.746 178.424 C 27.751 178.499, 27.789 178.524, 27.434 181.500 C 26.295 191.048, 26.263 193.483, 27.250 195.649 C 29.219 199.971, 37.135 200.020, 39.068 195.722 C 39.681 194.359, 39.764 190.794, 39.284 186.500 L 38.500 179.500 35 179.211 C 33.075 179.053, 30.825 178.685, 30 178.394 C 28.715 177.941, 28.740 177.731, 30.172 176.927 C 32.752 175.478, 33.327 170.546, 31.922 161.896 L 30.640 154 23.436 154 C 16.811 154, 16.185 154.181, 15.632 156.250 M 130.741 220.592 C 129.411 221.922, 131.157 223, 134.642 223 C 137.014 223, 138.032 222.591, 137.756 221.750 C 137.308 220.385, 131.849 219.484, 130.741 220.592" stroke="none" fill="black" fill-rule="evenodd"/>
	<path fill-opacity="0.477" d="M 216 34.914 C 217.705 35.401, 215.607 35.840, 209.407 36.292 C 169.421 39.211, 132.182 63.263, 111.523 99.515 C 107.187 107.123, 105.966 111, 107.906 111 C 108.405 111, 108.595 111.833, 108.329 112.851 C 107.504 116.006, 110.610 118, 116.349 118 C 119.442 118, 122.457 118.632, 123.777 119.557 C 125.844 121.004, 126 121.882, 126 132.057 L 126 143 111.975 143 L 97.950 143 96.892 145.750 C 95.506 149.351, 94.522 169.328, 95.432 175.396 C 96.609 183.247, 98.042 184, 111.800 184 C 119.644 184, 124.002 184.402, 124.800 185.200 C 125.590 185.990, 126 190.221, 126 197.593 C 126 206.877, 125.730 208.890, 124.418 209.393 C 123.548 209.727, 119.221 210, 114.802 210 C 106.916 210, 106.781 210.042, 107.507 212.250 C 107.915 213.488, 108.307 216.525, 108.379 219 C 108.699 229.981, 128.905 255.558, 148.048 269.213 C 176.229 289.316, 212.979 296.983, 245.480 289.540 C 268.111 284.357, 288.352 274.253, 301.674 261.487 C 305.473 257.848, 306.164 256.636, 305.730 254.370 C 305.443 252.868, 305.720 250.820, 306.345 249.820 C 307.338 248.229, 305.032 245.549, 288 228.500 C 277.286 217.775, 268.187 209, 267.780 209 C 267.373 209, 264.717 210.759, 261.877 212.908 C 255.229 217.940, 242.028 224.439, 235 226.140 C 226.225 228.265, 210.839 227.774, 202.035 225.089 C 180.905 218.644, 167.030 206.249, 158.381 186.091 L 154.500 177.046 143.500 177.009 C 126.898 176.954, 128 177.837, 128 164.583 C 128 157.219, 128.410 152.990, 129.200 152.200 C 129.979 151.421, 134.037 151, 140.766 151 C 146.467 151, 151.974 150.549, 153.003 149.998 C 154.032 149.448, 156.881 144.835, 159.334 139.748 C 161.787 134.662, 165.809 127.993, 168.271 124.930 C 176.780 114.340, 192.335 104.733, 205.500 101.936 C 213.187 100.302, 226.813 100.302, 234.500 101.936 C 241.731 103.472, 254.184 109.036, 259 112.881 C 264.011 116.881, 266.812 118.194, 268.913 117.528 C 269.924 117.207, 278.712 108.969, 288.442 99.222 C 304.517 83.119, 306.083 81.245, 305.583 78.709 C 305.281 77.175, 305.589 75.003, 306.267 73.883 C 307.374 72.054, 306.951 71.338, 302.112 66.861 C 283.735 49.855, 256.414 38.177, 230.593 36.292 C 224.393 35.840, 222.295 35.401, 224 34.914 C 225.642 34.445, 224.268 34.199, 220 34.199 C 215.732 34.199, 214.358 34.445, 216 34.914 M 62.029 97.961 C 60.828 98.721, 60.552 102.092, 60.529 116.333 C 60.491 139.131, 59.605 138, 77.500 138 C 95.410 138, 94.525 139.136, 94.420 116.301 C 94.355 102.363, 94.052 98.646, 92.920 97.929 C 91.040 96.740, 63.916 96.768, 62.029 97.961 M 143.200 105.200 C 142.540 105.860, 142 107.210, 142 108.200 C 142 109.733, 142.889 110, 148 110 C 154.388 110, 155.623 108.765, 152.429 105.571 C 150.573 103.716, 144.912 103.488, 143.200 105.200 M 289.750 113.515 C 284.145 117.915, 284 118.153, 284 122.933 C 284 130.650, 283.674 131, 276.469 131 L 270.152 131 266.207 141.250 C 264.037 146.887, 261.010 155.009, 259.479 159.298 C 257.949 163.588, 256.393 166.738, 256.021 166.298 C 255.650 165.859, 252.742 158.300, 249.560 149.500 C 246.378 140.700, 243.320 132.938, 242.765 132.250 C 242.145 131.482, 239.252 131, 235.266 131 L 228.777 131 229.434 134.500 C 230.237 138.782, 229.554 138.971, 227.515 135.030 C 225.221 130.593, 222.632 129.563, 217.434 131.019 C 215.050 131.686, 212.333 133.080, 211.395 134.116 C 209.067 136.688, 208 136.480, 208 133.454 C 208 130.949, 207.893 130.913, 201.250 131.204 L 194.500 131.500 194 135.500 L 193.500 139.500 188.525 139.814 C 181.395 140.264, 180.725 141.132, 181.188 149.327 C 181.514 155.083, 181.968 156.556, 183.900 158.120 C 185.177 159.154, 187.207 160, 188.411 160 C 192.426 160, 193 161.757, 193 174.051 C 193 186.417, 194.068 191.431, 197.039 193.021 C 199.891 194.547, 203.557 194.179, 206.112 192.111 C 208.314 190.327, 208.476 189.389, 208.999 175.361 C 209.581 159.753, 210.150 157.600, 214.629 154.078 C 216.685 152.460, 218.703 152, 223.750 152 C 229.547 152, 230.494 152.290, 232.729 154.750 C 234.103 156.262, 237.868 164.231, 241.096 172.457 C 247.700 189.286, 247.669 188.251, 241.977 202.055 C 239.932 207.015, 239.291 209.691, 239.982 210.382 C 240.542 210.942, 241 212.200, 241 213.177 C 241 214.154, 242.145 215.704, 243.545 216.622 C 247.154 218.986, 253.382 217.095, 255.505 212.991 C 256.339 211.378, 261.761 198.007, 267.553 183.279 C 277.558 157.842, 280.470 152.221, 282.082 155.240 C 282.452 155.933, 282.966 161.905, 283.224 168.510 C 283.944 186.898, 287.824 193.363, 298.931 194.678 C 309.077 195.880, 312.769 191.395, 311.378 179.561 L 310.721 173.968 305.867 174.612 C 298.676 175.566, 298 174.612, 298 163.500 C 298 152.679, 298.504 151.932, 306.283 151.227 C 314.080 150.521, 315 149.271, 315 139.385 L 315 131.081 306.750 130.790 C 299.342 130.530, 298.480 130.296, 298.302 128.500 C 298.192 127.400, 297.815 122.563, 297.462 117.750 C 297.109 112.938, 296.523 109, 296.160 109.001 C 295.797 109.001, 292.913 111.033, 289.750 113.515 M 33.272 123.811 C 31.314 125.055, 31.106 145.718, 33.013 149.500 C 34.526 152.499, 34.531 152.500, 43.513 152.500 L 52.500 152.500 54.321 149 C 55.881 146.002, 56.054 144, 55.525 135.031 C 55.145 128.580, 54.446 124.268, 53.704 123.796 C 52.124 122.791, 34.857 122.804, 33.272 123.811 M 5.227 130.928 C 5.776 138.602, 7.031 141, 10.500 141 C 14 141, 15.174 138.645, 15.343 131.285 L 15.500 124.500 10.112 124.193 L 4.723 123.886 5.227 130.928 M 71.566 153.208 C 70.509 156.586, 70.285 167.536, 71.214 170.347 C 72.630 174.633, 74.634 176, 79.500 176 C 81.765 176, 84.329 175.438, 85.199 174.750 C 87.880 172.630, 88.988 167.030, 88.217 159.500 L 87.500 152.500 79.735 152.208 C 74.056 151.994, 71.861 152.263, 71.566 153.208 M 16.553 156.250 C 15.476 159.755, 15.232 168.258, 16.117 171.463 C 17.712 177.238, 24.235 178.856, 28.545 174.545 C 30.682 172.409, 31 171.187, 31 165.127 C 31 155.112, 30.915 155, 23.362 155 C 19.094 155, 16.808 155.420, 16.553 156.250 M 159.595 167.513 C 158.777 176.542, 159.595 181.713, 162.051 183.027 C 165.388 184.813, 172.807 184.193, 175.060 181.940 C 176.862 180.138, 177.096 178.787, 176.922 171.190 C 176.812 166.410, 176.512 161.938, 176.254 161.250 C 175.935 160.398, 173.319 160, 168.031 160 L 160.276 160 159.595 167.513 M 49.251 177.711 C 48.857 178.695, 48.527 184.147, 48.517 189.827 C 48.497 202.228, 49.081 203, 58.491 203 C 61.909 203, 65.129 203.529, 65.800 204.200 C 66.597 204.997, 67 209.341, 67 217.135 C 67 228.621, 67.931 233.700, 70.313 235.214 C 70.966 235.630, 77.393 235.976, 84.595 235.985 C 101.858 236.005, 101.386 236.479, 101.819 218.648 C 101.994 211.417, 101.760 203.250, 101.298 200.500 L 100.457 195.500 84.979 195 L 69.500 194.500 68.500 185.500 L 67.500 176.500 58.734 176.211 C 51.084 175.958, 49.876 176.150, 49.251 177.711 M 28.667 179.667 C 28.300 180.033, 28 183.133, 28 186.556 C 28 194.206, 30.156 197.680, 34.265 196.648 C 35.715 196.284, 37.195 195, 37.608 193.748 C 38.818 190.076, 38.294 180.802, 36.823 179.870 C 35.240 178.866, 29.608 178.725, 28.667 179.667 M 131 217.906 C 129.198 218.399, 128.500 219.276, 128.500 221.045 C 128.500 223.302, 128.924 223.524, 133.761 223.803 C 137.890 224.040, 139.157 223.754, 139.648 222.475 C 140.849 219.345, 135.693 216.620, 131 217.906" stroke="none" fill="black" fill-rule="evenodd"/>
	<path fill-opacity="0.250" d="M 198 38.477 C 182.903 41.037, 165.046 48.315, 150.738 57.741 C 136.111 67.378, 119.891 85.419, 111.420 101.476 C 107.837 108.267, 107.643 109.017, 109.166 110.203 C 110.082 110.916, 110.987 112.400, 111.177 113.500 C 111.466 115.176, 112.561 115.599, 117.924 116.113 C 126.595 116.943, 127 117.641, 127 131.741 C 127 139.966, 127.421 143.913, 128.526 146.050 L 130.051 149 140.871 149 C 153.573 149, 152.754 149.564, 158.980 136.537 C 162.533 129.103, 164.732 126.106, 171.881 118.958 C 178.777 112.064, 182.199 109.510, 189 106.181 C 200.615 100.495, 207.444 98.884, 220 98.866 C 235.531 98.844, 247.732 102.774, 260.972 112.062 C 264.852 114.783, 267.481 115.982, 268.713 115.591 C 269.738 115.266, 278.139 107.391, 287.380 98.091 C 299.412 85.983, 304.064 80.661, 303.768 79.342 C 303.540 78.329, 303.987 76.211, 304.762 74.635 C 306.099 71.914, 306.008 71.604, 302.951 68.450 C 290.215 55.309, 262.822 41.926, 241.625 38.488 C 230.658 36.709, 208.457 36.704, 198 38.477 M 61.648 103.250 C 61.301 106.138, 61.046 113.225, 61.082 119 C 61.132 127.129, 61.543 130.177, 62.904 132.500 L 64.663 135.500 77.572 135.500 L 90.481 135.500 92.193 132 C 94.069 128.162, 94.331 122.653, 93.344 107.750 L 92.698 98 77.488 98 L 62.279 98 61.648 103.250 M 142.571 103.571 C 141.707 104.436, 141 106.481, 141 108.117 L 141 111.091 147.750 110.796 C 154.203 110.513, 154.513 110.385, 154.804 107.876 C 154.973 106.424, 154.382 104.525, 153.483 103.626 C 151.389 101.531, 144.645 101.498, 142.571 103.571 M 290.332 113.274 C 285.243 117.330, 285.153 117.498, 284.491 124.090 C 283.842 130.550, 283.711 130.808, 280.784 131.393 C 279.115 131.727, 276.039 132, 273.947 132 C 269.660 132, 270.508 130.427, 261.895 154.349 C 257.476 166.621, 256.515 168.642, 255.712 167.343 C 255.401 166.841, 252.364 158.683, 248.961 149.215 L 242.776 132 235.781 132 C 229.522 132, 228.859 132.184, 229.478 133.750 C 229.859 134.713, 230.377 137.075, 230.631 139 C 231.057 142.239, 230.858 142.063, 227.969 136.630 L 224.847 130.760 219.877 131.238 C 216.292 131.582, 214.138 132.452, 212.149 134.358 C 208.712 137.651, 208 137.667, 208 134.454 C 208 131.949, 207.893 131.913, 201.250 132.204 C 195.306 132.465, 194.488 132.739, 194.398 134.500 C 194.044 141.449, 194.486 141, 188 141 L 182 141 182 146.596 C 182 153.693, 184.679 158, 189.093 158 C 193.166 158, 194 160.720, 194 174.008 C 194 183.260, 194.314 185.417, 196.099 188.443 C 198.844 193.096, 202.892 193.365, 205.932 189.096 C 207.690 186.626, 208.009 184.642, 208.060 175.846 C 208.177 155.486, 210.139 151.447, 220.616 150.002 C 223.852 149.556, 227.400 148.917, 228.500 148.583 C 229.600 148.248, 230.974 148.317, 231.553 148.737 C 235.184 151.369, 248.561 184.503, 247.500 188.237 C 247.146 189.482, 245.289 194.637, 243.372 199.694 C 239.997 208.602, 239.944 208.950, 241.694 210.872 C 242.687 211.964, 244.080 213.564, 244.789 214.428 C 246.625 216.666, 249.718 216.373, 252.382 213.709 C 253.726 212.365, 259.306 199.657, 265.883 182.959 C 277.426 153.658, 280.032 148.956, 282.707 152.614 C 283.575 153.801, 284 157.922, 284 165.154 C 284 182.601, 288.712 191.650, 298.364 192.738 C 300.849 193.018, 303.940 192.981, 305.234 192.656 C 308.396 191.862, 311 185.718, 311 179.047 C 311 174.027, 310.889 173.802, 308.750 174.477 C 303.021 176.285, 301.193 176.193, 298.987 173.987 C 296.942 171.942, 296.806 171.038, 297.173 161.903 C 297.391 156.473, 298.052 151.548, 298.642 150.958 C 299.232 150.368, 302.270 149.621, 305.392 149.299 C 312.743 148.540, 315 145.792, 315 137.596 L 315 132 308.565 132 C 305.026 132, 300.976 131.561, 299.565 131.025 C 297.036 130.063, 297 129.902, 297 119.525 C 297 113.736, 296.663 109.035, 296.250 109.077 C 295.837 109.119, 293.174 111.008, 290.332 113.274 M 5.607 125.582 C 4.473 128.536, 4.974 133.053, 6.500 133.638 C 7.325 133.955, 8 135.066, 8 136.107 C 8 138.738, 12.018 138.647, 12.710 136 C 12.998 134.900, 13.631 134, 14.117 134 C 14.602 134, 15 131.750, 15 129 L 15 124 10.607 124 C 7.524 124, 6.033 124.472, 5.607 125.582 M 32.642 130.147 C 31.584 140.276, 31.883 144.075, 34.011 147.518 C 36.099 150.896, 38.392 151.973, 43.500 151.973 C 53.532 151.973, 56.368 146.034, 54.352 129.250 L 53.721 124 43.503 124 L 33.285 124 32.642 130.147 M 97.498 146.250 C 97.094 147.488, 96.634 154.350, 96.476 161.500 C 96.244 171.988, 96.510 175.176, 97.852 178 L 99.515 181.500 111.731 181.781 L 123.948 182.061 125.474 178.408 C 127.085 174.552, 127.592 157.598, 126.364 148.640 L 125.728 144 111.981 144 C 98.609 144, 98.213 144.061, 97.498 146.250 M 72.631 152.788 C 72.334 153.269, 71.790 156.596, 71.423 160.180 C 70.870 165.577, 71.073 167.195, 72.604 169.598 C 75.032 173.407, 75.919 173.969, 79.500 173.969 C 83.200 173.969, 84.167 173.333, 86.459 169.388 C 88.005 166.729, 88.140 165.274, 87.384 159.388 L 86.500 152.500 79.836 152.206 C 76.171 152.045, 72.929 152.306, 72.631 152.788 M 16.807 161.705 C 16.321 169.044, 18.081 173.731, 21.661 174.630 C 27.075 175.988, 30.141 171.395, 29.758 162.500 L 29.500 156.500 23.345 156.205 L 17.190 155.910 16.807 161.705 M 160.440 167.720 C 159.840 173.323, 160.034 175.027, 161.610 177.970 C 163.310 181.145, 163.972 181.530, 168.197 181.803 C 172.537 182.082, 173.012 181.877, 174.447 179.102 C 175.449 177.165, 176 173.419, 176 168.550 L 176 161 168.580 161 L 161.159 161 160.440 167.720 M 49.758 177.750 C 49.559 178.162, 49.275 182.172, 49.126 186.659 C 48.928 192.609, 49.287 195.655, 50.453 197.909 C 51.988 200.877, 52.307 201, 58.476 201 C 63.455 201, 65.112 200.622, 65.842 199.318 C 66.973 197.296, 68.540 216.939, 67.729 222.983 C 67.326 225.991, 67.749 227.638, 69.642 230.423 L 72.072 234 84.468 234 L 96.864 234 98.932 231.096 C 100.816 228.450, 101 226.764, 101 212.183 L 101 196.176 85.081 195.838 C 76.326 195.652, 68.910 195.247, 68.602 194.937 C 68.293 194.627, 67.740 190.465, 67.373 185.687 L 66.705 177 58.411 177 C 53.850 177, 49.956 177.338, 49.758 177.750 M 127.415 177.917 C 127.187 178.146, 127 185.023, 127 193.199 C 127 211.417, 127.941 214.563, 133.674 215.518 C 139.488 216.487, 139.952 216.744, 141.037 219.596 C 142.526 223.512, 140.753 225.003, 134.628 224.985 C 128.275 224.966, 126.748 224.045, 126.525 220.098 C 126.429 218.394, 126.272 215.537, 126.177 213.750 L 126.005 210.500 117.002 210.821 C 112.051 210.998, 108 211.365, 108 211.637 C 108 211.909, 108.470 213.009, 109.043 214.081 C 109.617 215.153, 110.280 217.889, 110.517 220.161 C 111.343 228.094, 126.113 248.722, 138.677 259.487 C 172.742 288.678, 216.386 297.786, 257.886 284.366 C 269.263 280.686, 282.694 273.846, 291.586 267.201 C 301.159 260.048, 303.593 257.426, 304.311 253.500 C 304.612 251.850, 305.003 249.743, 305.179 248.817 C 305.385 247.737, 298.742 240.331, 286.609 228.116 L 267.718 209.097 263.609 212.431 C 235.190 235.490, 196.756 233.341, 171.234 207.267 C 165.393 201.299, 163.074 197.947, 159.408 190.172 C 156.900 184.852, 154.544 179.921, 154.174 179.214 C 153.687 178.285, 149.932 177.868, 140.665 177.714 C 133.606 177.596, 127.643 177.688, 127.415 177.917 M 28.627 181.530 C 27.516 184.426, 27.959 188.721, 29.500 190 C 30.325 190.685, 31 191.865, 31 192.622 C 31 193.380, 31.900 194, 33 194 C 34.100 194, 35 193.380, 35 192.622 C 35 191.865, 35.697 190.666, 36.550 189.959 C 37.597 189.090, 38.002 187.349, 37.800 184.586 C 37.505 180.570, 37.429 180.495, 33.377 180.199 C 30.294 179.973, 29.095 180.310, 28.627 181.530" stroke="none" fill="black" fill-rule="evenodd"/>
	<path fill-opacity="0.987" d="M 284.464 96.036 C 270.074 110.447, 266 113.776, 266 111.122 C 266 110.088, 256.823 102.993, 252.500 100.684 C 225.826 86.440, 195.074 90.621, 173.547 111.418 C 165.629 119.068, 164.740 122.266, 172.504 115.170 C 197.116 92.676, 233.800 90.278, 260.497 109.418 C 263.245 111.388, 266.400 113, 267.509 113 C 269.547 113, 301.909 81.576, 300.905 80.572 C 300.630 80.297, 293.232 87.256, 284.464 96.036 M 141.180 98.123 C 141.468 100.036, 142.142 100.246, 148 100.246 C 153.858 100.246, 154.532 100.036, 154.820 98.123 C 155.120 96.127, 154.711 96, 148 96 C 141.289 96, 140.880 96.127, 141.180 98.123 M 114.008 110.949 C 111.534 112.554, 114.021 113.783, 120.500 114.155 C 125.948 114.468, 126.500 114.316, 126.500 112.500 C 126.500 110.774, 125.747 110.464, 121 110.241 C 117.975 110.098, 114.829 110.417, 114.008 110.949 M 290.295 114.027 L 285.091 118.022 284.795 124.761 L 284.500 131.500 277.436 131.790 L 270.373 132.080 263.936 150.022 C 260.396 159.890, 256.999 167.972, 256.386 167.982 C 255.773 167.992, 252.985 161.587, 250.190 153.750 C 247.395 145.912, 244.403 137.813, 243.541 135.750 L 241.973 132 235.870 132 C 230.040 132, 229.792 132.101, 230.333 134.250 C 232.760 143.902, 234.462 148.845, 241.318 166.156 L 249.103 185.811 245.437 195.656 C 243.420 201.070, 241.333 206.043, 240.799 206.706 C 239.496 208.325, 240.661 210, 243.090 210 C 244.175 210, 245.322 210.675, 245.638 211.500 C 246.492 213.725, 250.357 213.317, 252.740 210.750 C 253.888 209.512, 259.581 196.461, 265.390 181.747 C 278.212 149.268, 278.450 148.781, 281.308 149.188 C 283.407 149.487, 283.525 150.076, 284.091 163.072 C 284.635 175.584, 284.909 177.061, 287.590 181.988 C 291.003 188.259, 294.935 190.991, 300.554 190.996 C 303.829 190.999, 305.221 190.367, 307.804 187.702 C 310.485 184.936, 311 183.641, 311 179.668 L 311 174.931 306.140 175.576 C 297.557 176.714, 296.997 175.894, 297.015 162.215 C 297.024 155.772, 297.370 149.967, 297.784 149.315 C 298.198 148.663, 301.004 147.804, 304.019 147.406 C 307.033 147.008, 310.758 145.754, 312.295 144.620 C 314.802 142.770, 315.059 142.041, 314.795 137.529 L 314.500 132.500 306 132 L 297.500 131.500 296.756 122 C 296.346 116.775, 296.219 111.938, 296.474 111.250 C 297.245 109.169, 295.750 109.841, 290.295 114.027 M 164 123.059 C 164 123.641, 164.450 123.840, 165 123.500 C 165.550 123.160, 166 122.684, 166 122.441 C 166 122.198, 165.550 122, 165 122 C 164.450 122, 164 122.477, 164 123.059 M 33.700 124.633 C 33.315 125.018, 33 129.594, 33 134.802 C 33 143.668, 33.162 144.421, 35.552 146.635 C 39.177 149.995, 47.984 150.023, 51.582 146.687 C 53.964 144.478, 54.064 143.924, 53.788 134.437 L 53.500 124.500 43.950 124.216 C 38.698 124.060, 34.086 124.248, 33.700 124.633 M 6 128.981 C 6 132.362, 6.366 133.054, 8.428 133.571 C 12.974 134.712, 15 133.283, 15 128.933 L 15 125 10.500 125 L 6 125 6 128.981 M 65.676 131.402 C 65.380 132.173, 65.407 133.073, 65.736 133.402 C 66.516 134.182, 88.484 134.182, 89.264 133.402 C 89.593 133.073, 89.620 132.173, 89.324 131.402 C 88.541 129.363, 66.459 129.363, 65.676 131.402 M 215.500 132.426 C 213.850 133.167, 211.701 134.744, 210.723 135.929 C 208.617 138.485, 207 137.839, 207 134.441 C 207 132.124, 206.695 132, 201 132 L 195 132 195 136.760 L 195 141.520 188.811 141.510 L 182.621 141.500 182.306 146 C 182.027 149.978, 182.352 150.816, 185.104 153.227 C 187.544 155.363, 188.618 155.739, 190.067 154.964 C 193.279 153.245, 194.357 157.231, 194.657 171.935 C 194.929 185.277, 194.951 185.386, 197.716 187.649 C 200.960 190.305, 202.837 190.587, 203.624 188.538 C 203.932 187.734, 205.003 186.816, 206.003 186.499 C 207.636 185.981, 207.857 184.367, 208.161 170.711 C 208.472 156.753, 208.689 155.235, 210.791 152.288 C 212.437 149.980, 214.128 148.914, 216.791 148.503 C 218.831 148.189, 221.748 147.287, 223.273 146.499 C 225.192 145.508, 226.776 145.345, 228.420 145.970 C 229.726 146.466, 231.044 146.622, 231.350 146.317 C 232.263 145.404, 225.237 132.305, 223.469 131.627 C 221.052 130.699, 218.854 130.919, 215.500 132.426 M 131.208 143.676 C 130.216 144.074, 130.187 144.520, 131.081 145.597 C 132.692 147.539, 150.266 147.590, 151.869 145.658 C 152.481 144.920, 152.687 144.020, 152.325 143.658 C 151.559 142.892, 133.122 142.908, 131.208 143.676 M 72 160.268 C 72 167.259, 72.147 167.732, 74.960 169.812 C 78.684 172.566, 80.769 172.527, 84.300 169.637 C 86.943 167.474, 87.083 166.959, 86.800 160.423 L 86.500 153.500 79.250 153.206 L 72 152.912 72 160.268 M 20.226 170.179 C 20.986 172.459, 23.732 173.467, 25.405 172.079 C 26.270 171.361, 26.731 170.374, 26.430 169.887 C 25.585 168.519, 19.764 168.793, 20.226 170.179 M 101.131 177.342 C 99.272 179.582, 100.904 180, 111.500 180 C 122.096 180, 123.728 179.582, 121.869 177.342 C 120.305 175.457, 102.695 175.457, 101.131 177.342 M 165.122 176.904 C 162.923 178.297, 164.813 180, 168.559 180 C 170.834 180, 172 179.528, 172 178.607 C 172 176.297, 167.744 175.243, 165.122 176.904 M 29 184.981 C 29 188.392, 29.357 189.052, 31.498 189.589 C 35.620 190.623, 37 189.480, 37 185.031 L 37 181 33 181 C 29.003 181, 29 181.003, 29 184.981 M 54.122 195.904 C 51.745 197.409, 53.940 199, 58.392 199 C 63.254 199, 64.474 198.276, 62.869 196.342 C 61.620 194.837, 56.232 194.567, 54.122 195.904 M 68 211.812 L 68 227.624 70.960 229.812 C 73.565 231.738, 75.184 232, 84.500 232 C 93.816 232, 95.435 231.738, 98.040 229.812 C 100.996 227.627, 101 227.610, 100.991 217.062 C 100.987 211.253, 100.699 204.137, 100.352 201.250 L 99.721 196 83.861 196 L 68 196 68 211.812 M 132.008 209.947 C 129.780 211.395, 131.954 213.050, 136.967 213.722 C 140.962 214.258, 141.159 214.165, 140.838 211.894 C 140.564 209.952, 139.839 209.451, 137 209.239 C 135.075 209.095, 132.829 209.414, 132.008 209.947 M 124 240.845 C 124 241.310, 124.970 242.547, 126.155 243.595 L 128.310 245.500 126.540 242.750 C 124.715 239.914, 124 239.378, 124 240.845 M 128.596 245.844 C 127.815 247.108, 141.623 259.963, 150.500 266.237 C 193.908 296.916, 253.987 295.202, 295.246 262.109 C 303.633 255.382, 302.283 254.102, 293.471 260.425 C 284.603 266.788, 271.365 273.755, 261.337 277.336 C 237.205 285.954, 204.338 286.193, 180.685 277.921 C 162.354 271.511, 144.071 260.428, 133.345 249.223 C 131.060 246.836, 128.923 245.316, 128.596 245.844" stroke="none" fill="black" fill-rule="evenodd"/>
</svg>