<?xml version="1.0"?><svg xmlns="http://www.w3.org/2000/svg" width="36" height="36" shape-rendering="geometricPrecision" text-rendering="geometricPrecision" image-rendering="optimizeQuality" fill-rule="evenodd" clip-rule="evenodd" viewBox="0 0 36 36"><path fill="#fcfefd" d="m-0.1-0.1h36v19.2c-0.6-3.5-1.2-6.9-1.9-10.4-0.1-0.1-0.2-0.1-0.3-0.2-2.8-2.4-5.7-4.8-8.6-7.2-0.2-0.2-0.4-0.4-0.6-0.6-4.2-0.1-8.5-0.1-12.7 0-3.2 2.7-6.3 5.4-9.5 8-0.8 4.1-1.5 8.1-2.2 12.2 0 0.2 0 0.4 0.2 0.5 2 3.5 4 7.1 6.1 10.6 3.5 1.3 7.1 2.6 10.6 3.9h-17.1v-36z"></path><path fill="#147bbe" d="m12.4 0.8c0.6 0 1.2 0.1 1.8 0.3l0.3-0.1-0.2-0.1c2.6-0.1 5.1-0.1 7.7 0.1 0.1 0 0.2 0.1 0.3 0.1-2.9 0-5.9 0.1-8.9 0.2 0-0.1-0.1-0.2-0.1-0.3-0.1 0.1-0.2 0.3-0.3 0.4-0.2 0-0.3 0-0.5 0.1 0 0-0.1 0-0.1-0.1-0.1 0.3-0.1 0.6-0.1 0.9 0 0.2 0 0.3-0.1 0.3-0.1-0.4-0.1-0.8 0-1.2 0.2-0.1 0.2-0.3 0.2-0.6z"></path><path fill="#4e8cae" d="m22.4 1.5c-2.8-0.1-5.7-0.1-8.6 0-0.1 0-0.1 0-0.1-0.1 3-0.1 6-0.1 9 0-0.1 0.1-0.2 0.1-0.3 0.1z"></path><path fill="#1e76ac" d="m24.5 0.7c0.2 0.2 0.4 0.4 0.6 0.6-0.1 0.2-0.3 0.1-0.4-0.1-0.4 0.1-0.8 0.3-1.1 0.7-0.9 0.7-1.7 1.4-2.6 2.2 0 0 0.1 0 0.1 0.1-0.2 0-0.4 0-0.6 0l0.1-0.1c-0.1-0.1-0.1-0.1-0.2-0.2 0.2 0 0.3-0.1 0.5-0.2 0.7-0.7 1.5-1.4 2.3-2-0.9 0.3-1.8 0.6-2.8 0.9-0.6 0.2-1.1 0.4-1.6 0.7-0.1 0-0.3-0.1-0.3-0.3 1.3-0.5 2.6-1 3.9-1.5 0.1 0 0.2 0 0.3-0.1-3-0.1-6-0.1-9 0h-0.7c0.1-0.1 0.2-0.3 0.3-0.4 0 0.1 0.1 0.2 0.1 0.3 3-0.1 6-0.2 8.9-0.2-0.1 0-0.2-0.1-0.3-0.1-2.6-0.2-5.1-0.2-7.7-0.1l0.2 0.1-0.3 0.1c-0.6-0.2-1.2-0.3-1.8-0.3 4-0.1 8-0.1 12.1-0.1z"></path><path fill="#f4fafa" d="m13.8 1.5c2.9-0.1 5.8-0.1 8.6 0-1.3 0.5-2.6 1-3.9 1.5-0.1 0-0.2 0-0.3 0.1-1.5-0.5-3-1.1-4.4-1.6z"></path><path fill="#eef7f7" d="m20.4 3.9c-0.5-0.2-1-0.3-1.6-0.6 0.5-0.3 1-0.5 1.6-0.7 1-0.3 1.9-0.6 2.8-0.9-0.8 0.6-1.6 1.3-2.3 2-0.2 0.1-0.3 0.2-0.5 0.2z"></path><path fill="#cfe6f0" d="m12.2 2.6c0.1 0.8 0.2 1.5 0.3 2.2 0.1 0.3-0.1 0.5-0.4 0.4 0-0.2 0.1-0.5 0.2-0.7-0.1-0.3-0.1-0.6-0.1-1h-0.4c0-0.4 0.1-0.8 0.2-1.2 0.1 0.1 0.1 0.3 0.2 0.3z"></path><path fill="#eaf6f7" d="m13 2.1c0.7 0.6 1.5 1.3 2.2 1.9-0.2 0.2-0.5 0.4-0.9 0.4-0.5-0.7-1-1.4-1.4-2.2 0-0.1 0-0.1 0.1-0.1z"></path><path fill="#1e5185" d="m12.2 1.4c-0.1 0.4-0.1 0.8 0 1.2-0.1 0-0.1-0.2-0.2-0.3-0.1 0.4-0.2 0.8-0.2 1.2-0.2 0.6-0.3 1.2-0.4 1.8-0.1-0.1-0.2-0.2-0.2-0.4 0.1-0.8 0.2-1.7 0.3-2.5 0.1-0.4 0.3-0.7 0.7-1z"></path><path fill="#eaf5f6" d="m23.6 1.9v0.2c-0.5 0.7-1 1.4-1.4 2.2l-0.3 0.1c-0.2 0-0.5-0.1-0.8-0.2 0-0.1-0.1-0.1-0.1-0.2 0.9-0.7 1.7-1.4 2.6-2.1z"></path><path fill="#4d9cc7" d="m12.5 1.5c0.2 0.2 0.3 0.4 0.5 0.6-0.1 0-0.1 0-0.1 0.1 0.4 0.8 0.9 1.5 1.4 2.2 0 0.1 0 0.2-0.1 0.2 0.2 0.1 0.3 0.1 0.5 0.1-0.1 0-0.2 0.1-0.2 0.2 0.5 0.9 1 1.8 1.6 2.7 0 0.2 0.1 0.3 0.3 0.3 0 0.3 0.1 0.5 0.2 0.7 1 0.1 2 0.2 3 0.1-0.9 0.1-1.9 0.2-2.9 0.2l0.1 0.1c1.6 0 3.1 0.1 4.6 0.2h-6.5c0.5-0.1 1-0.2 1.5-0.2-0.3-0.1-0.6-0.2-0.9-0.3 0.2 0.1 0.4 0 0.6-0.1 0-0.1-0.1-0.2-0.2-0.2 0.1-0.2 0.1-0.3-0.2-0.4-0.4-1-0.9-1.9-1.5-2.9-0.1-0.1-0.2-0.1-0.3-0.1-0.1-0.1-0.3-0.2-0.5-0.2 0.1-0.1 0.3-0.2 0.4-0.2-0.4-0.9-0.9-1.6-1.4-2.3h-0.1c0-0.3 0-0.6 0.1-0.9 0 0.1 0.1 0.1 0.1 0.1z"></path><path fill="#1e5e96" d="m25.1 1.3c2.9 2.4 5.8 4.8 8.6 7.2 0 0.1 0 0.3-0.1 0.4 0.1 0 0.1 0.1 0.2 0.2-0.1 0.2-0.2 0.5-0.3 0.7-0.1 0.1-0.2 0.2-0.3 0.3-0.1 0-0.1 0-0.2-0.1v-0.2c-0.1-0.3-0.1-0.6-0.1-1l-0.2 0.7c-0.9 0.3-1.8 0.6-2.7 1-0.1 0.1-0.2 0.1-0.2 0.2-0.1 0-0.2 0-0.3-0.1-1.1 0.4-2.1 0.8-3.1 1.3-0.2-0.1-0.3 0-0.5 0.1-0.1 0-0.3 0-0.3 0.2-0.1 0.1-0.2 0.1-0.3 0.1l-0.4-0.2c0-0.1 0.1-0.2 0.1-0.3 0.1 0 0.2 0 0.3 0.1 0.2-0.2 0.4-0.3 0.6-0.4 0.1 0 0.2-0.1 0.4-0.1 1-0.4 2.1-0.8 3.1-1.2-0.2-0.4-0.4-0.7-0.7-1-1-0.2-2-0.2-3.1 0-0.8-0.1-1.6-0.2-2.4-0.3 0.8 0 1.5-0.1 2.3-0.2h3c0.2 0 0.3 0 0.4-0.1 0 0 0.1 0 0.1 0.1 1.2 0.2 2.4 0.2 3.6 0-0.1-0.1-0.2-0.1-0.3-0.1 0-0.1 0-0.3 0-0.4-0.1-0.1-0.2-0.2-0.3-0.3l-6.6-5.5c-0.1-0.1-0.1-0.1-0.2-0.2 0 0.2-0.1 0.3-0.2 0.4l-0.1-0.2c-0.3-0.9-0.5-0.9-0.7-0.1-0.1 0.9-0.3 1.7-0.4 2.6-0.1 0-0.2 0.1-0.2 0.2 0 0.2 0.1 0.4 0.3 0.5-0.1 0-0.2 0.1-0.3 0.2-0.2 0.8-0.3 1.7-0.4 2.6-0.1 0.1-0.1 0.3-0.1 0.5-0.2 0.1-0.3 0-0.3-0.2 0.2-1.1 0.4-2.2 0.5-3.4 0.1-0.1 0.2-0.2 0.2-0.4 0.1-0.8 0.2-1.6 0.4-2.4 0-0.1 0-0.2-0.1-0.3 0.1-0.3 0-0.3-0.2 0 0 0 0-0.1 0-0.1v-0.2c0.3-0.4 0.7-0.6 1.1-0.7 0.1 0.2 0.3 0.3 0.4 0.1z"></path><path fill="#e3f4f8" d="m24.2 2.3c0.3 1 0.6 1.9 0.7 2.9 0 0.1 0 0.2-0.1 0.3-0.3-0.1-0.6-0.2-0.9-0.3-0.1-0.1-0.1-0.2-0.1-0.3 0.1-0.9 0.3-1.7 0.4-2.6z"></path><path fill="#eff6f6" d="m24.9 2.4l0.1 0.2c0.7 1.2 1.5 2.4 2.2 3.6l-0.1 0.2c-0.7-0.3-1.3-0.5-1.8-0.8-0.1-1-0.3-2-0.5-3 0-0.1 0-0.1 0.1-0.2z"></path><path fill="#409dca" d="m24.9 2.4c-0.1 0.1-0.1 0.1-0.1 0.2 0.2 1 0.4 2 0.5 3-0.2 0-0.4 0-0.5-0.1 0.1-0.1 0.1-0.2 0.1-0.3-0.1-1-0.4-1.9-0.7-2.9 0.2-0.8 0.4-0.8 0.7 0.1z"></path><path fill="#e9f5f6" d="m23.8 2.2c0.1 0.1 0.1 0.2 0.1 0.3-0.2 0.8-0.3 1.6-0.4 2.4-0.4 0-0.8-0.1-1.1-0.3 0.5-0.8 1-1.6 1.4-2.4z"></path><path fill="#eef9f8" d="m13.4 4.8c-0.1 0-0.3 0.1-0.5 0.1l-0.5-2.6c0.5 0.7 1 1.4 1.4 2.3-0.1 0-0.3 0.1-0.4 0.2z"></path><path fill="#eef4f5" d="m11.8 3.5h0.4c0 0.4 0 0.7 0.1 1-0.1 0.2-0.2 0.5-0.2 0.7-0.2 0.2-0.4 0.3-0.7 0.1 0.1-0.6 0.2-1.2 0.4-1.8z"></path><path fill="#327bad" d="m15.2 4c0.2 0.2 0.4 0.3 0.6 0.4-0.4 0.1-0.8 0.1-1.1 0.3-0.2 0-0.3 0-0.5-0.1 0.1 0 0.1-0.1 0.1-0.2 0.4 0 0.7-0.2 0.9-0.4z"></path><path fill="#eff8f9" d="m11.5 2.4c-0.1 0.8-0.2 1.7-0.3 2.5-0.1 0.1-0.1 0.2-0.1 0.3 0 0.2 0 0.4-0.1 0.5-0.6 0.1-1.1 0.3-1.6 0.5-0.1 0-0.1 0-0.1-0.1 0.6-1 1.2-2.1 1.8-3.1 0.1-0.3 0.2-0.5 0.4-0.6z"></path><path fill="#f5fafa" d="m13.9 5c0.1 0 0.2 0 0.3 0.1 0.6 1 1.1 1.9 1.5 2.9-0.3 0.2-0.5 0.5-0.8 0.7-0.4 0.1-0.9 0-1.3-0.1-0.3-1-0.4-2.1-0.6-3.1 0.2-0.3 0.5-0.5 0.9-0.5z"></path><path fill="#f5faf9" d="m15.8 4.4c0.7 0.6 1.4 1.2 2 1.8l-1.7 1.4c-0.6-0.9-1.1-1.8-1.6-2.7 0-0.1 0.1-0.2 0.2-0.2 0.3-0.2 0.7-0.2 1.1-0.3z"></path><path fill="#f1f7f8" d="m25.4 2.4l6.6 5.5c-0.1 0.2-0.3 0.2-0.4 0.1-1.3-0.5-2.6-1-3.9-1.5-0.8-1.3-1.6-2.7-2.3-4.1z"></path><path fill="#f6faf9" d="m23.3 5.3c-0.1 1.2-0.3 2.3-0.5 3.4h-1.3c-0.3-0.2-0.7-0.5-1-0.8 0.6-0.9 1.1-1.9 1.7-2.8 0.4 0 0.8 0 1.1 0.2z"></path><path fill="#3b98c5" d="m25 6c0.2 0 0.4 0 0.5 0.1 0.1 0.9 0.2 1.8 0.3 2.6h-0.3c-0.2-0.9-0.3-1.8-0.5-2.7z"></path><path fill="#f7fbfa" d="m13.1 8.5c-0.7 0.2-1.4 0.3-2.2 0.2 0.1-0.9 0.2-1.9 0.4-2.8 0.4-0.2 0.9-0.3 1.4-0.3 0.1 0.9 0.3 1.9 0.4 2.9z"></path><path fill="#3580ad" d="m11 5.7c0 0.2 0 0.5-0.1 0.7 0-0.1 0-0.2-0.1-0.3-0.6 0.3-1.3 0.6-2 0.7 0.1-0.3 0.3-0.4 0.6-0.6 0.5-0.2 1-0.4 1.6-0.5z"></path><path fill="#4ea7d6" d="m24.5 0.7c-4.1 0-8.1 0-12.1 0.1 0 0.3 0 0.5-0.2 0.6-0.4 0.3-0.6 0.6-0.7 1-0.2 0.1-0.3 0.3-0.4 0.6-0.1-0.3-0.1-0.6 0-0.9h-0.4v0.3h-0.3v0.4c-2 1.7-4 3.5-6.1 5.2 0.1 0 0.1 0.1 0.1 0-0.4 0.3-0.8 0.6-1.2 0.9-0.1 0.1-0.1 0.2-0.1 0.3 0.3 0.2 0.5 0.3 0.8 0.4-0.1 0-0.1 0-0.1 0.1 0.1 0.2 0.3 0.3 0.5 0.5-0.1 0.1-0.2 0.1-0.4 0-0.2-0.1-0.3-0.2-0.4-0.4-0.1 0.1-0.1 0.2-0.1 0.3-0.1-0.3-0.2-0.6-0.4-0.8-0.1 0.2-0.2 0.5-0.2 0.8v0.8c-0.3 0.9-0.5 2-0.8 3-0.1 0.6-0.1 1.1-0.1 1.7-0.3 1-0.5 2-0.7 3-0.1-0.1-0.2-0.2-0.2-0.3-0.2 0.1-0.2 0.3 0 0.5-0.5 0.3-0.5 0.6-0.2 0.9 0.1-0.2 0.2-0.4 0.1-0.6 0.2 0.2 0.3 0.5 0.4 0.8 0 0 0 0.1 0.1 0.1-0.2 0.2-0.3 0.4-0.4 0.6-0.1 0.3-0.2 0.6-0.4 0.8h-0.3c-0.2-0.1-0.2-0.3-0.2-0.5 0.7-4.1 1.4-8.1 2.2-12.2 3.2-2.6 6.3-5.3 9.5-8 4.2-0.1 8.5-0.1 12.7 0z"></path><path fill="#f2fafa" d="m7.9 6.8c-1.2 0.4-2.3 0.8-3.5 1.2 0 0.1 0 0-0.1 0 2.1-1.7 4.1-3.5 6.1-5.2 0.2 0 0.3-0.1 0.4-0.3l0.1 0.1c-0.8 1.3-1.6 2.6-2.2 3.9-0.3 0.1-0.5 0.2-0.8 0.3z"></path><path fill="#23588b" d="m25.4 2.4c0.7 1.4 1.5 2.8 2.3 4.1 1.3 0.5 2.6 1 3.9 1.5 0.1 0.1 0.3 0.1 0.4-0.1 0.1 0.1 0.2 0.2 0.3 0.3 0 0.1 0 0.3 0 0.4-1.3-0.4-2.7-0.9-4-1.5l-0.2 0.1c0.2 0.5 0.5 0.9 0.8 1.4-0.1 0.1-0.2 0.1-0.4 0.1l-1-1.8c-0.7-0.2-1.3-0.5-2-0.8-0.1-0.1-0.3-0.1-0.5-0.1-0.3-0.2-0.7-0.3-1.1-0.4-0.2-0.1-0.3-0.3-0.3-0.5 0-0.1 0.1-0.2 0.2-0.2 0 0.1 0 0.2 0.1 0.3 0.3 0.1 0.6 0.2 0.9 0.3 0.1 0.1 0.3 0.1 0.5 0.1 0.5 0.3 1.1 0.5 1.8 0.8l0.1-0.2c-0.7-1.2-1.5-2.4-2.2-3.6 0.1-0.1 0.2-0.2 0.2-0.4 0.1 0.1 0.1 0.1 0.2 0.2z"></path><path fill="#2779ad" d="m17.8 6.2c0.2 0 0.3 0.1 0.4 0.3-0.7 0.4-1.3 0.9-1.8 1.4-0.2 0-0.3-0.1-0.3-0.3l1.7-1.4z"></path><path fill="#f6fbfa" d="m18.2 6.5c0.6 0.4 1.1 0.9 1.7 1.4 0 0.3-0.1 0.6-0.3 0.8-1 0.1-2 0-3-0.1-0.1-0.2-0.2-0.4-0.2-0.7 0.5-0.5 1.1-1 1.8-1.4z"></path><path fill="#f7fbf9" d="m10.9 6.4c-0.2 0.7-0.3 1.5-0.4 2.3-0.9 0.1-1.8 0-2.7-0.1 0.4-0.6 0.8-1.2 1-1.8 0.7-0.1 1.4-0.4 2-0.7 0.1 0.1 0.1 0.2 0.1 0.3z"></path><path fill="#f6fbfa" d="m25.5 6.1c0.7 0.3 1.3 0.6 2 0.8l1 1.8h-2.7c-0.1-0.8-0.2-1.7-0.3-2.6z"></path><path fill="#f1f8f9" d="m32.3 8.6c-1.1 0.1-2.2 0.2-3.3 0.1 0-0.1-0.1-0.1-0.1-0.1-0.3-0.5-0.6-0.9-0.8-1.4l0.2-0.1c1.3 0.6 2.7 1.1 4 1.5z"></path><path fill="#2a79a9" d="m7.9 6.8c0.4 0.1 0.4 0.2 0.1 0.3-1.4 0.5-2.7 1-4.1 1.5-0.1 0-0.2 0.1-0.1 0.2-0.2 0-0.4 0.1-0.6 0.1 0.4-0.3 0.8-0.6 1.2-0.9 1.2-0.4 2.3-0.8 3.5-1.2z"></path><path fill="#f2faf9" d="m8 7.1c0.2 0.1 0.2 0.2 0.1 0.4-0.2 0.4-0.5 0.7-0.7 1.1-1.2 0.2-2.4 0.2-3.5 0 1.4-0.5 2.7-1 4.1-1.5z"></path><path fill="#f6fcfa" d="m23.9 5.6c0.4 0.1 0.8 0.2 1.1 0.4 0.2 0.9 0.3 1.8 0.5 2.7h-2.3v-0.3c0.1-0.9 0.2-1.8 0.4-2.6 0.1-0.1 0.2-0.2 0.3-0.2z"></path><path fill="#e5f5fa" d="m15.9 8.4c0.1 0 0.2 0.1 0.2 0.2-0.2 0.1-0.4 0.2-0.6 0.1 0.1-0.1 0.2-0.3 0.4-0.3z"></path><path fill="#5e8fb4" d="m13.1 8.5c0.1 0.1 0.1 0.2 0.1 0.3-0.8 0.1-1.6 0-2.3-0.1 0.8 0.1 1.5 0 2.2-0.2z"></path><path fill="#5b8eb5" d="m32.3 8.6c0.1 0 0.2 0 0.3 0.1-1.2 0.2-2.4 0.2-3.6 0 1.1 0.1 2.2 0 3.3-0.1z"></path><path fill="#256aa0" d="m12.3 2.3h0.1l0.5 2.6c0.2 0 0.4-0.1 0.5-0.1 0.2 0 0.4 0.1 0.5 0.2-0.4 0-0.7 0.2-0.9 0.5 0.2 1 0.3 2.1 0.6 3.1 0.4 0.1 0.9 0.2 1.3 0.1 0.3-0.2 0.5-0.5 0.8-0.7 0.3 0.1 0.3 0.2 0.2 0.4-0.2 0-0.3 0.2-0.4 0.3 0.3 0.1 0.6 0.2 0.9 0.3-0.5 0-1 0.1-1.5 0.2l-0.2 0.1c-0.4-0.2-0.7-0.3-1.1-0.2-0.1 0.1 0 0.2 0.1 0.3v0.2c-0.1 0.1-0.2 0.2-0.2 0.4 0-0.2-0.1-0.3-0.2-0.4v-0.5h-0.3l0.2-0.3c0-0.1 0-0.2-0.1-0.3-0.1-1-0.3-2-0.4-2.9-0.5 0-1 0.1-1.4 0.3 0-0.2-0.1-0.5-0.2-0.7 0-0.1 0-0.2 0.1-0.3 0 0.2 0.1 0.3 0.2 0.4 0.3 0.2 0.5 0.1 0.7-0.1 0.3 0.1 0.5-0.1 0.4-0.4-0.1-0.7-0.2-1.4-0.3-2.2 0.1 0 0.1-0.1 0.1-0.3z"></path><path fill="#154e87" d="m11.1 5.2c0.1 0.2 0.2 0.5 0.2 0.7-0.2 0.9-0.3 1.9-0.4 2.8 0.7 0.1 1.5 0.2 2.3 0.1l-0.2 0.3c-0.8-0.1-1.5 0-2.3 0.1h-0.3c-0.9-0.1-1.8-0.2-2.8-0.2 1-0.1 1.9-0.2 2.9-0.3 0.1-0.8 0.2-1.6 0.4-2.3 0.1-0.2 0.1-0.5 0.1-0.7 0.1-0.1 0.1-0.3 0.1-0.5z"></path><path fill="#80acd1" d="m10.7 9.2c0.8-0.1 1.5-0.2 2.3-0.1h0.3v0.5c-0.1-0.1-0.1-0.3-0.1-0.4h-2.5z"></path><path fill="#215486" d="m13 1.4h0.7c0 0.1 0 0.1 0.1 0.1 1.4 0.5 2.9 1.1 4.4 1.6 0.1-0.1 0.2-0.1 0.3-0.1 0 0.2 0.2 0.3 0.3 0.3 0.6 0.3 1.1 0.4 1.6 0.6 0.1 0.1 0.1 0.1 0.2 0.1l-0.1 0.2c0.2 0 0.4 0 0.6 0 0.3 0.1 0.6 0.2 0.8 0.2l0.3-0.1c0.4-0.8 0.9-1.5 1.4-2.2 0 0 0 0.1 0 0.1 0.2-0.3 0.3-0.3 0.2 0-0.4 0.8-0.9 1.6-1.4 2.4 0.3 0.2 0.7 0.3 1.1 0.3 0 0.2-0.1 0.3-0.2 0.4-0.3-0.2-0.7-0.2-1.1-0.2-0.6 0.9-1.1 1.9-1.7 2.8 0.3 0.3 0.7 0.6 1 0.8 0.4 0.1 0.7 0.2 1.1 0.2-0.1 0-0.2 0.1-0.3 0.2-0.1-0.1-0.2 0-0.3 0.1 0.2 0.1 0.4 0.3 0.6 0.4 0.1 0.1 0.2 0.1 0.3 0 0 0.1 0 0.2 0 0.4 0.7 0.6 1.4 1.2 2.1 1.8 0 0.1-0.1 0.2-0.1 0.3l-3.5-2.9c-1.5-0.1-3-0.2-4.6-0.2l-0.1-0.1c1 0 2-0.1 2.9-0.2 0.2-0.2 0.3-0.5 0.3-0.8-0.6-0.5-1.1-1-1.7-1.4-0.1-0.2-0.2-0.3-0.4-0.3-0.6-0.6-1.3-1.2-2-1.8-0.2-0.1-0.4-0.2-0.6-0.4-0.7-0.6-1.5-1.3-2.2-1.9-0.2-0.2-0.3-0.4-0.5-0.6 0.2-0.1 0.3-0.1 0.5-0.1z"></path><path fill="#ddf2f3" d="m20.3 8.3c0.6 0.3 0.5 0.5-0.2 0.4 0.1-0.2 0.1-0.3 0.2-0.4z"></path><path fill="#3078aa" d="m20.8 4.4c-0.2 0-0.3 0-0.4 0.1-0.6 0.6-1.3 1.1-1.9 1.7-0.2 0-0.2-0.1-0.2-0.3 0.6-0.6 1.2-1.2 1.9-1.7 0.1 0 0.1 0 0.2-0.1 0.1 0.2 0.2 0.3 0.4 0.3z"></path><path fill="#f4faf8" d="m20.8 4.4c0.4 0.1 0.7 0.3 1.1 0.5-0.5 0.9-1.1 1.8-1.6 2.6-0.1 0.1-0.2 0.1-0.3 0-0.5-0.4-1-0.9-1.5-1.3 0.6-0.6 1.3-1.1 1.9-1.7 0.1-0.1 0.2-0.1 0.4-0.1z"></path><path fill="#f2f8f8" d="m20.2 4.2c-0.7 0.5-1.3 1.1-1.9 1.7-0.8-0.4-1.5-1-2.2-1.7 0.6-0.2 1.1-0.4 1.6-0.7 0.2 0 0.3 0 0.4-0.1 0.7 0.3 1.4 0.6 2.1 0.8z"></path><path fill="#2d7bae" d="m17.3 3.1c0.2 0 0.3 0 0.5 0-0.2 0.2-0.2 0.3-0.1 0.4-0.5 0.3-1 0.5-1.6 0.7-0.1-0.1-0.3-0.2-0.4-0.3 0.6-0.2 1.2-0.4 1.8-0.6-0.1-0.1-0.2-0.1-0.2-0.2z"></path><path fill="#edf6f7" d="m17.3 3.1c0 0.1 0.1 0.1 0.2 0.2-0.6 0.2-1.2 0.4-1.8 0.6-0.9-0.7-1.7-1.5-2.6-2.2 1.4 0.5 2.8 0.9 4.2 1.4z"></path><path fill="#4a7eac" d="m23.2 8.4v0.3h2.3c-0.8 0.1-1.5 0.2-2.3 0.2 0.8 0.1 1.6 0.2 2.4 0.3h-2.6c0 0.1 0 0.3-0.1 0.4-0.1 0.1-0.2 0.1-0.3 0 0.1-0.1 0.1-0.3 0.1-0.5h-0.4c0.1-0.1 0.2-0.2 0.3-0.2-0.4 0-0.7-0.1-1.1-0.2h1.3c0 0.2 0.1 0.3 0.3 0.2 0-0.2 0-0.4 0.1-0.5z"></path><path fill="#80add2" d="m32.2 9.3c-0.9-0.2-1.9-0.2-2.9 0-0.1 0-0.1-0.1-0.1-0.1 1.1-0.2 2.2-0.2 3.4-0.1-0.1 0.1-0.2 0.2-0.4 0.2z"></path><path fill="#d4eef6" d="m13.7 9.6v-0.2c0-0.1 0.1-0.2 0.3-0.2l0.2 0c-0.1 0.2-0.3 0.4-0.5 0.4z"></path><path fill="#f7fbfa" d="m10.3 9.4c-0.1 0.6-0.2 1.2-0.3 1.9-0.2 0-0.4 0-0.6 0-0.8-0.3-1.6-0.6-2.4-0.9 0-0.4 0.1-0.8 0.5-1.1l1.4-0.1c0.5 0 1 0 1.4 0.2z"></path><path fill="#badbf0" d="m22.3 9.1h0.4c0 0.2 0 0.4-0.1 0.5-0.2-0.1-0.4-0.3-0.6-0.4 0.1-0.1 0.2-0.2 0.3-0.1z"></path><path fill="#f5faf9" d="m25.6 9.2c0.1 0.8 0.2 1.5 0.3 2.3-0.2 0.1-0.4 0.2-0.6 0.4-0.1-0.1-0.2-0.1-0.3-0.1-0.7-0.6-1.4-1.2-2.1-1.8 0-0.2 0-0.3 0-0.4 0.1-0.1 0.1-0.3 0.1-0.4h2.6z"></path><path fill="#f6fbf9" d="m28.7 9.2c0.3 0.3 0.5 0.6 0.7 1-1 0.4-2.1 0.8-3.1 1.2-0.1-0.7-0.2-1.5-0.3-2.2h2.7z"></path><path fill="#f0f8f8" d="m32.2 9.3c-0.8 0.2-1.6 0.5-2.3 0.9-0.3-0.3-0.5-0.6-0.6-0.9 1-0.2 2-0.2 2.9 0z"></path><path fill="#1b4d7f" d="m3.8 8.8c1.1 0 2.3 0 3.5 0.1-1.2 0.1-2.3 0.2-3.4 0.3 0 0 0 0.1 0.1 0.1 0.8 0.3 1.6 0.5 2.4 0.8 0.1 0.1 0.1 0.2-0.2 0.3-0.8-0.2-1.5-0.5-2.3-0.8-0.3-0.1-0.5-0.2-0.7-0.4-0.1-0.1-0.1-0.2 0-0.3 0.2 0 0.4-0.1 0.6-0.1z"></path><path fill="#eef7f6" d="m4 9.3c1-0.1 2-0.2 3-0.1-0.1 0.3-0.2 0.5-0.4 0.8 0 0-0.1 0.1-0.2 0.1-0.8-0.3-1.6-0.5-2.4-0.8z"></path><path fill="#2f7aac" d="m14.7 9.3c-1 1-2.1 1.9-3.3 2.7-0.1-0.1-0.1-0.1-0.1-0.2 0.6-0.6 1.3-1.2 2-1.7 0-0.2 0-0.3 0-0.5 0.1 0.1 0.2 0.2 0.2 0.4 0-0.2 0.1-0.3 0.2-0.4 0.2 0 0.4-0.2 0.5-0.4l-0.3 0c-0.1 0-0.2 0.1-0.2 0.2-0.1-0.1-0.2-0.2-0.1-0.3 0.4-0.1 0.7 0 1.1 0.2z"></path><path fill="#fbfdfc" d="m14.9 9.2h6.5l3.5 2.9 0.4 0.2c0.4 0.4 0.7 0.7 1.1 1.1 0 0.6 0.1 1 0.2 1.5v0.2c0.1 1 0.3 1.9 0.6 2.8v0.3c0 0.4 0 0.7 0.2 1.1-0.2 0.5-0.5 1.1-0.8 1.6-0.1 0.1-0.1 0.2-0.1 0.3-0.5 0.7-1 1.5-1.4 2.3-0.1 0-0.2 0.1-0.2 0.3-0.2 0.4-0.5 0.9-0.8 1.3-0.4 0.2-0.8 0.4-1.3 0.5-0.2 0.1-0.4 0.1-0.6 0.2-1.3 0.5-2.7 1-4 1.5-0.5-0.1-0.9-0.3-1.4-0.5-0.1 0-0.2 0-0.3-0.1-1.4-0.5-2.9-1.1-4.3-1.6-1-1.7-2-3.3-3-5-0.2-0.2-0.2-0.4-0.3-0.7 0.4-2.1 0.7-4.1 1.1-6.2 0.5-0.4 1-0.8 1.4-1.2 1.2-0.8 2.3-1.7 3.3-2.7l0.2-0.1z"></path><path fill="#226da2" d="m3.4 10.1c0.5 0.9 1.1 1.7 1.6 2.6 0 0.1-0.1 0.3-0.2 0.4-0.6-1-1.2-2-1.8-3 0 0 0 0 0 0.1l-0.2-0.1c0-0.3 0.1-0.6 0.2-0.8 0.2 0.2 0.3 0.5 0.4 0.8z"></path><path fill="#f5fafa" d="m10.7 9.2h2.5c0 0.1 0 0.3 0.1 0.4 0 0.2 0 0.3 0 0.5-0.7 0.5-1.4 1.1-2 1.7-0.4 0.1-0.7-0.1-1-0.4 0.2-0.7 0.3-1.5 0.4-2.2z"></path><path fill="#ebf6f6" d="m3.9 9.6c0.8 0.3 1.5 0.6 2.3 0.8 0 0.3-0.2 0.6-0.4 0.9-0.5-0.4-1-0.7-1.5-1.1-0.2-0.2-0.4-0.3-0.5-0.5 0-0.1 0-0.1 0.1-0.1z"></path><path fill="#55a1cb" d="m28.7 9.2h-2.7c0.1 0.7 0.2 1.5 0.3 2.2-0.2 0-0.3 0.1-0.4 0.1-0.1-0.8-0.2-1.5-0.3-2.3 1.1-0.2 2.1-0.2 3.1 0z"></path><path fill="#e8f3f6" d="m32.7 9.5c-0.7 0.7-1.4 1.3-2.2 1.8-0.2-0.2-0.4-0.5-0.5-0.8 0.9-0.4 1.8-0.7 2.7-1z"></path><path fill="#1f5086" d="m2.8 10.1l0.2 0.1c0.3 1.5 0.5 3 0.8 4.5-0.1 0.2-0.1 0.4-0.2 0.5 0-0.1-0.1-0.2-0.2-0.3 0-0.3 0-0.5-0.1-0.8-0.1-1.1-0.3-2.2-0.5-3.2v-0.8z"></path><path fill="#f6faf9" d="m6.9 10.7c1 0.4 1.9 0.7 2.8 1.1 0.2 0.4 0.1 0.9-0.1 1.3l-0.8 0.7c-0.9-0.6-1.8-1.4-2.7-2.2 0.2-0.2 0.3-0.5 0.4-0.7 0.1-0.1 0.3-0.2 0.4-0.2z"></path><path fill="#f4f9f9" d="m29.8 10.7l0.4 0.9c-0.8 0.8-1.6 1.5-2.5 2.1-0.1 0.1-0.2 0.1-0.3 0-0.3-0.2-0.6-0.5-0.9-0.8 0-0.4 0-0.7-0.1-1 1-0.5 2-0.9 3.1-1.3 0.1 0.1 0.2 0.1 0.3 0.1z"></path><path fill="#ecf8f8" d="m3.9 10.2c0.5 0.5 1.1 1 1.7 1.6-0.2 0.3-0.4 0.6-0.6 0.9-0.5-0.9-1.1-1.7-1.6-2.6 0-0.1 0-0.2 0.1-0.3 0.1 0.2 0.2 0.3 0.4 0.4z"></path><path fill="#eff7f7" d="m4.8 13.1c-0.3 0.6-0.6 1.1-1 1.6-0.3-1.5-0.5-3-0.8-4.5 0-0.1 0-0.1 0-0.1 0.6 1 1.2 2 1.8 3z"></path><path fill="#54a5cf" d="m11.1 3c-0.6 1-1.2 2.1-1.8 3.1 0 0.1 0 0.1 0.1 0.1-0.3 0.2-0.5 0.3-0.6 0.6-0.2 0.6-0.6 1.2-1 1.8 0.9 0.1 1.8 0.2 2.7 0.1-1 0.1-1.9 0.2-2.9 0.3 1 0 1.9 0.1 2.8 0.2 0 0.1 0 0.2-0.1 0.2-0.4-0.2-0.9-0.2-1.4-0.2l-1.4 0.1c-0.4 0.3-0.5 0.7-0.5 1.1-0.3 0.1-0.4 0.2-0.1 0.3-0.1 0-0.3 0.1-0.4 0.2-0.1 0.2-0.2 0.5-0.4 0.7 0.9 0.8 1.8 1.6 2.7 2.2 0.1 0.1 0.1 0.2 0.3 0.2 0 0.2 0.2 0.3 0.4 0.3-0.1 0.4-0.1 0.7-0.2 0.9 0-0.4-0.2-0.7-0.6-0.9-0.1-0.1-0.2-0.1-0.3-0.1-0.1-0.2-0.2-0.3-0.4-0.5-0.7-0.5-1.4-1.1-2.1-1.7-0.4 0.4-0.5 0.8-0.6 1.3-0.3-0.1-0.3 0-0.2 0.4-0.1 0-0.2 0-0.3 0.1-0.3 0.5-0.6 1.1-0.9 1.7-0.1 0.1-0.2 0.3-0.2 0.5l-2.4 3.9c-0.1-0.3-0.2-0.6-0.4-0.8 0.1 0.2 0 0.4-0.1 0.6-0.3-0.3-0.3-0.6 0.2-0.9-0.2-0.2-0.2-0.4 0-0.5 0 0.1 0.1 0.2 0.2 0.3 0 0.2 0 0.5 0 0.7 0.7-1.3 1.4-2.5 2.2-3.7 0-0.2 0-0.5 0-0.7 0.1 0.1 0.2 0.2 0.2 0.3 0.1-0.1 0.1-0.3 0.2-0.5 0.4-0.5 0.7-1 1-1.6 0.1-0.1 0.2-0.3 0.2-0.4 0.2-0.3 0.4-0.6 0.6-0.9-0.6-0.6-1.2-1.1-1.7-1.6 0.2 0.1 0.3 0.1 0.4 0 0.5 0.4 1 0.7 1.5 1.1 0.2-0.3 0.4-0.6 0.4-0.9 0.3-0.1 0.3-0.2 0.2-0.3 0.1 0 0.2-0.1 0.2-0.1 0.2-0.3 0.3-0.5 0.4-0.8-1-0.1-2 0-3 0.1-0.1 0-0.1-0.1-0.1-0.1 1.1-0.1 2.2-0.2 3.4-0.3-1.2-0.1-2.4-0.1-3.5-0.1-0.1-0.1 0-0.2 0.1-0.2 1.1 0.2 2.3 0.2 3.5 0 0.2-0.4 0.5-0.7 0.7-1.1 0.1-0.2 0.1-0.3-0.1-0.4 0.3-0.1 0.3-0.2-0.1-0.3 0.3-0.1 0.5-0.2 0.8-0.3 0.6-1.3 1.4-2.6 2.2-3.9l-0.1-0.1c-0.1 0.2-0.2 0.3-0.4 0.3v-0.4h0.3v-0.3h0.4c-0.1 0.3-0.1 0.6 0 0.9z"></path><path fill="#e2f3f7" d="m2.8 10.9c0.2 1 0.4 2.1 0.5 3.2-0.2-0.5-0.3-1-0.4-1.6-0.1 0.3-0.2 0.6-0.3 0.9l-0.1-0.4-0.1 0.1c-0.1 0.4-0.1 0.8 0 1.2h-0.3c0 0.5-0.1 0.9-0.2 1.3 0-0.6 0-1.1 0.1-1.7 0.3-1 0.5-2.1 0.8-3z"></path><path fill="#ccedf5" d="m25.9 12c0.2 0 0.2 0.1 0.3 0.3 0 0.1-0.1 0.2-0.2 0.2l-0.4-0.3c0-0.2 0.2-0.2 0.3-0.2z"></path><path fill="#3198ca" d="m25.9 12c0.2-0.1 0.3-0.2 0.5-0.1 0.1 0.3 0.1 0.6 0.1 1-0.2-0.1-0.3-0.2-0.5-0.4 0.1 0 0.2-0.1 0.2-0.2-0.1-0.2-0.1-0.3-0.3-0.3z"></path><path fill="#f7fbfa" d="m3.3 14.1c0.1 0.3 0.1 0.5 0.1 0.8 0 0.2 0 0.5 0 0.7-0.8 1.2-1.5 2.4-2.2 3.7 0-0.2 0-0.5 0-0.7 0.2-1 0.4-2 0.7-3 0.1-0.4 0.2-0.8 0.2-1.3h0.3c-0.1-0.4-0.1-0.8 0-1.2l0.1-0.1 0.1 0.4c0.1-0.3 0.2-0.6 0.3-0.9 0.1 0.6 0.2 1.1 0.4 1.6z"></path><path fill="#d3e7f1" d="m15.7 13.2c0.7 0.1 1.5 0.1 2.2 0v0.4c0.4-0.1 0.7 0 1.1 0 0.1 0 0.3 0.1 0.3 0.3-1.2-0.2-2.4-0.4-3.6-0.7z"></path><path fill="#2e75a5" d="m9.6 13.1c0.1 0.1 0.2 0.2 0.2 0.3-0.1 0.3-0.2 0.5-0.3 0.7 0-0.1 0-0.2-0.1-0.3-0.1 0.1-0.2 0.1-0.3 0.2-0.2 0-0.2-0.1-0.3-0.2l0.8-0.7z"></path><path fill="#2973a7" d="m5.3 13.3c0.4 0.8 0.9 1.6 1.4 2.3 0.5-0.6 1.1-1 1.7-1.4 0.1 0 0.2 0 0.3 0.1-0.6 0.5-1.2 1.1-1.8 1.7 0.4 0.7 0.8 1.4 1.3 2.1 0 0.1 0.1 0.1 0.2 0.2 0 0.1-0.1 0.1-0.1 0.2 0.1 0.2 0.2 0.4 0.4 0.5 0 0-0.1 0.1-0.2 0.1l0.2 0.1c-0.1 0.1-0.2 0.1-0.2 0.2-0.2-0.2-0.3-0.3-0.4-0.6-0.1-0.1-0.2-0.2-0.4-0.2 0.1-0.1 0.1-0.1 0.2-0.1-0.2-0.1-0.4-0.1-0.6-0.1 0-0.1 0.1-0.1 0.3-0.1-0.2-0.8-0.6-1.5-1.1-2-0.7 0.5-1.4 1.1-2.1 1.6l-0.2-0.4c0.8-0.5 1.5-1.1 2.2-1.7-0.5-0.7-0.9-1.4-1.3-2.1-0.1-0.4-0.1-0.5 0.2-0.4z"></path><path fill="#f3f9f8" d="m8.4 14.2c-0.6 0.4-1.2 0.8-1.7 1.4-0.5-0.7-1-1.5-1.4-2.3 0.1-0.5 0.2-0.9 0.6-1.3 0.7 0.6 1.4 1.2 2.1 1.7 0.2 0.2 0.3 0.3 0.4 0.5z"></path><path fill="#daf2f8" d="m9.5 14.1v0.2c-0.2 0-0.4-0.1-0.4-0.3 0.1-0.1 0.2-0.1 0.4-0.2 0 0.1 0 0.2 0 0.3z"></path><path fill="#cee8f0" d="m26.8 13.8c0.5 0.1 0.6 0.3 0.1 0.5-0.1-0.1-0.1-0.3-0.1-0.5z"></path><path fill="#4b9fca" d="m26.4 13.4c0.2 0.1 0.3 0.2 0.4 0.4 0 0.2 0 0.4 0.1 0.5-0.2 0.2-0.3 0.4-0.3 0.6-0.1-0.5-0.2-0.9-0.2-1.5z"></path><path fill="#f4faf8" d="m5.1 13.7c0.4 0.7 0.8 1.4 1.3 2.1-0.7 0.6-1.4 1.2-2.2 1.7 0-0.7-0.1-1.4-0.3-2 0.3-0.6 0.6-1.2 0.9-1.7 0.1-0.1 0.2-0.1 0.3-0.1z"></path><path fill="#4899c4" d="m26.9 14.9c0.3 0.9 0.4 1.9 0.5 2.8-0.2 0-0.2 0.1-0.2 0.2-0.3-0.9-0.5-1.8-0.6-2.8l0.3-0.2z"></path><path fill="#f5faf8" d="m8.7 14.3c0.4 0.2 0.6 0.5 0.6 0.9-0.2 0.9-0.3 1.7-0.4 2.5-0.3 0.1-0.5 0.2-0.7 0.4-0.5-0.7-0.9-1.4-1.3-2.1 0.6-0.6 1.2-1.2 1.8-1.7z"></path><path fill="#f4faf9" d="m29.4 15.8c-0.3 0.8-0.7 1.6-1.3 2.3-0.2-0.1-0.5-0.3-0.7-0.4-0.1-0.9-0.2-1.9-0.5-2.8 0.2-0.2 0.4-0.4 0.7-0.6 0.6 0.5 1.2 1 1.8 1.5z"></path><path fill="#1e5d95" d="m15.7 13.2c1.2 0.3 2.4 0.5 3.6 0.7 0.7 0.1 1.4 0.3 2.1 0.4 0.7 0.7 1.4 1.4 2.2 2.1-2.1 2.5-4.1 5-6.2 7.5-1.5-3.7-3-7.4-4.4-11.1l2.7 0.4z"></path><path fill="#f5faf9" d="m14.1 14.1c1.3 1 2.5 2 3.7 3.1l0.1 0.3c-0.1 1.6-0.4 3.1-0.6 4.7-1.1-2.7-2.1-5.4-3.2-8.1z"></path><path fill="#f1f8f8" d="m21.1 15c0.5 0.3 1 0.6 1.3 1.1-1.1 0.3-2.2 0.5-3.3 0.7 0.7-0.6 1.4-1.1 2-1.8z"></path><path fill="#f3f9f8" d="m17.6 14.1c0.2 0.2 0.5 0.3 0.8 0.2 0.6 0.2 1.3 0.3 1.9 0.3 0.1 0.1 0.2 0.1 0.2 0.2-0.7 0.7-1.5 1.3-2.3 1.9-1.2-1-2.4-2-3.6-3l0-0.1c1 0.2 2 0.4 3 0.5z"></path><path fill="#9abdd6" d="m17.6 14.1c0.3 0 0.6 0.1 0.8 0.2-0.3 0.1-0.6 0-0.8-0.2z"></path><path fill="#f4f9f9" d="m29.9 16.3l2 1.6c0 0.5-0.1 1-0.3 1.4-1-0.4-2-0.7-3-1 0.3-0.8 0.7-1.5 1.3-2z"></path><path fill="#22679d" d="m29.4 15.8c0.4 0 0.4 0.1 0.1 0.2 0.2 0.1 0.3 0.2 0.4 0.3-0.6 0.5-1 1.2-1.3 2-0.1 0-0.2 0.1-0.2 0.2-0.2 0.3-0.3 0.7-0.6 1-0.1 0.2-0.2 0.5-0.3 0.7-0.2 0.2-0.3 0.4-0.3 0.7-0.2 0.1-0.4 0.1-0.6 0 0.3-0.5 0.6-1.1 0.8-1.6 0.2 0 0.3-0.2 0.3-0.3 0.2-0.2 0.3-0.4 0.4-0.5-0.1-0.2-0.2-0.2-0.4-0.2-0.1-0.1-0.3-0.2-0.5-0.1v-0.3c0-0.1 0-0.2 0.2-0.2 0.2 0.1 0.5 0.3 0.7 0.4 0.6-0.7 1-1.5 1.3-2.3z"></path><path fill="#f2f9f9" d="m22.1 16.8c0.1 0 0.2 0 0.3 0.1-1.5 1.8-3 3.6-4.4 5.4 0.1-1.6 0.3-3.2 0.5-4.8 1.2-0.2 2.4-0.4 3.6-0.7z"></path><path fill="#4298c4" d="m31.9 17.9c0.2 0.2 0.3 0.4 0.6 0.5-0.2 0-0.3 0.1-0.3 0.2-0.1 0.3-0.1 0.6-0.1 0.9-0.2 0-0.4-0.1-0.5-0.2 0.2-0.4 0.3-0.9 0.3-1.4z"></path><path fill="#c9e6f4" d="m27.7 18.3c0.2 0 0.3 0 0.4 0.1-0.1 0.2-0.2 0.4-0.4 0.6-0.1-0.3-0.1-0.5 0-0.7z"></path><path fill="#eff9f8" d="m3.7 16c0.1 0.5 0.2 1 0.2 1.5 0 0.1 0 0.3-0.1 0.4-0.8 0.7-1.6 1.4-2.4 2.1-0.1 0-0.1-0.1-0.1-0.1l2.4-3.9z"></path><path fill="#429bc3" d="m27.2 18.2c0.2-0.1 0.4 0 0.5 0.1-0.1 0.2-0.1 0.4 0 0.7 0 0.1-0.1 0.3-0.3 0.3-0.2-0.4-0.2-0.7-0.2-1.1z"></path><path fill="#f5faf9" d="m28.4 18.5c1.1 0.4 2.1 0.8 3.2 1.1-0.1 0.4-0.1 0.9-0.2 1.3h-3.4c-0.1-0.5-0.2-0.9-0.2-1.4 0.3-0.3 0.4-0.7 0.6-1z"></path><path fill="#2e7aac" d="m3.9 17.5c0.1 0.1 0.1 0.3 0.2 0.5l-0.2 0.2c0.1 0.1 0.2 0.2 0.2 0.3-0.1-0.1-0.3-0.1-0.4 0.1-0.7 0.6-1.4 1.2-2.2 1.8 0 0 0.1 0 0.1 0-0.1 0.2-0.4 0.3-0.6 0.2 0.1-0.2 0.2-0.4 0.4-0.6 0.8-0.7 1.6-1.4 2.4-2.1 0.1-0.1 0.1-0.3 0.1-0.4z"></path><path fill="#1e507f" d="m33.7 8.5c0.1 0.1 0.2 0.1 0.3 0.2 0.7 3.5 1.3 6.9 1.9 10.4v1.5c-0.1 0-0.3 0.1-0.3 0.3-0.2 0.3-0.4 0.6-0.7 0.9h-0.1c0-0.1-0.1-0.1-0.1-0.1-1.2 0.3-2.2 0.7-3.3 1.2-0.2 0-0.4 0.1-0.6 0.2-0.7 0.2-1.3 0.4-1.9 0.6-0.2 0.1-0.3 0.2-0.4 0.3-0.2 0-0.4 0-0.5 0.1-0.7 0.2-1.3 0.4-2 0.7-0.1-0.1-0.1-0.2-0.1-0.3 0.7-0.3 1.4-0.6 2.2-0.8 0.2-0.1 0.4-0.2 0.5-0.2 0.9-0.3 1.8-0.7 2.6-1.1h0.4c0.9-0.3 1.8-0.6 2.7-1 0.1 0 0.2 0 0.3-0.1-1-0.1-2-0.1-2.9-0.1h-4.9c-0.1-0.1-0.2-0.1-0.3 0 0-0.1 0-0.2 0.1-0.3 0.2 0.1 0.4 0.1 0.6 0h4.7c0.9 0 1.8 0 2.7-0.1-0.9-0.4-1.8-0.7-2.7-0.9-0.1-0.1-0.2-0.2-0.3-0.3-1.1-0.3-2.1-0.7-3.2-1.1 0-0.1 0.1-0.2 0.2-0.2 1 0.3 2 0.6 3 1 0.1 0.1 0.3 0.2 0.5 0.2 0.9 0.4 1.8 0.7 2.7 0.9-0.8-0.7-1.6-1.3-2.3-2-0.3-0.1-0.4-0.3-0.6-0.5l-2-1.6c-0.1-0.1-0.2-0.2-0.4-0.3 0.3-0.1 0.3-0.2-0.1-0.2-0.6-0.5-1.2-1-1.8-1.5-0.3 0.2-0.5 0.4-0.7 0.6l-0.3 0.2v-0.2c0-0.2 0.1-0.4 0.3-0.6 0.5-0.2 0.4-0.4-0.1-0.5-0.1-0.2-0.2-0.3-0.4-0.4-0.4-0.4-0.7-0.7-1.1-1.1 0.1 0 0.2 0 0.3-0.1l0.4 0.3c0.2 0.2 0.3 0.3 0.5 0.4 0.3 0.3 0.6 0.6 0.9 0.8 0.1 0.1 0.2 0.1 0.3 0 0.9-0.6 1.7-1.3 2.5-2.1l-0.4-0.9c0-0.1 0.1-0.1 0.2-0.2 0.1 0.3 0.3 0.6 0.5 0.8 0.8-0.5 1.5-1.1 2.2-1.8l0.2-0.7c0 0.4 0 0.7 0.1 1-0.8 0.6-1.5 1.2-2.2 1.8-0.1 0.2-0.1 0.3 0 0.4 0.2 0.2 0.3 0.4 0.4 0.7 0 0.1 0 0.2-0.1 0.3-0.3-0.3-0.5-0.6-0.7-1-0.9 0.6-1.7 1.3-2.4 2.1 0.5 0.6 1.1 1.1 1.8 1.5 0 0.1 0.1 0.1 0.2 0.1 0.5 0.7 1.2 1.3 1.9 1.8 0.1 0.1 0.3 0.2 0.4 0.3 0.9 0.9 1.8 1.6 2.7 2.2-0.7-1.3-1.4-2.6-2.2-3.9-0.2-0.2-0.1-0.4 0.1-0.5 0 0.1 0 0.1 0.1 0.1 0.7 1.2 1.4 2.5 2.1 3.7-0.2-2-0.5-4-1-6-0.1-0.9-0.2-1.8-0.4-2.7-0.1-0.3-0.1-0.6-0.2-0.9 0.1-0.2 0.2-0.5 0.3-0.7-0.1-0.1-0.1-0.2-0.2-0.2 0.1-0.1 0.1-0.3 0.1-0.4z"></path><path fill="#eff7f6" d="m32.8 16.1c0.8 1.3 1.5 2.6 2.2 3.9-0.9-0.6-1.8-1.3-2.7-2.2 0.1-0.6 0.3-1.1 0.5-1.7z"></path><path fill="#f6faf9" d="m31.4 13.7l0.9 1.7c0 0.7-0.2 1.4-0.4 2.1-0.7-0.5-1.4-1.1-1.9-1.8 0.4-0.6 0.7-1.2 1.1-1.8 0-0.2 0.2-0.2 0.3-0.2z"></path><path fill="#234d7a" d="m31.6 13.2c0.2 0.5 0.5 1 0.7 1.5 0.2 0.2 0.2 0.4 0 0.7l-0.9-1.7c-0.1-0.2 0-0.4 0.2-0.5z"></path><path fill="#f4f8f8" d="m34.1 13.4c0.5 2 0.8 4 1 6-0.7-1.2-1.4-2.5-2.1-3.7 0.1-1.1 0.2-2.3 0.5-3.4l0.3 0.2c0.1 0.4 0.2 0.7 0.3 0.9z"></path><path fill="#f5f9f9" d="m31.1 13c-0.4 0.9-0.9 1.7-1.3 2.6-0.7-0.4-1.3-0.9-1.8-1.5 0.7-0.8 1.5-1.5 2.4-2.1 0.2 0.4 0.4 0.7 0.7 1z"></path><path fill="#276da2" d="m33 10c0.1 0.1 0.1 0.1 0.2 0.1-0.6 1-1.1 2-1.6 3.1-0.2 0.1-0.3 0.3-0.2 0.5-0.1 0-0.3 0-0.3 0.2-0.4 0.6-0.7 1.2-1.1 1.8-0.1 0-0.2 0-0.2-0.1 0.4-0.9 0.9-1.7 1.3-2.6 0.1-0.1 0.1-0.2 0.1-0.3 0.7-0.9 1.3-1.8 1.8-2.7z"></path><path fill="#f0f8f9" d="m33.2 10.1c0.1 0 0.1 0.1 0.2 0.1-0.3 1.4-0.6 2.7-0.8 4 0 0.2-0.1 0.4-0.3 0.5-0.2-0.5-0.5-1-0.7-1.5 0.5-1.1 1-2.1 1.6-3.1z"></path><path fill="#dceef5" d="m33.7 10.7c0.2 0.9 0.3 1.8 0.4 2.7-0.1-0.2-0.2-0.5-0.3-0.9l-0.3-0.2c-0.3 1.1-0.4 2.3-0.5 3.4-0.1 0-0.1 0-0.1-0.1-0.1-0.2-0.1-0.3-0.1-0.5 0.3-1.5 0.6-2.9 0.9-4.4z"></path><path fill="#439dca" d="m33.5 9.8c0.1 0.3 0.1 0.6 0.2 0.9-0.3 1.5-0.6 2.9-0.9 4.4 0 0.2 0 0.3 0.1 0.5-0.2 0.1-0.3 0.3-0.1 0.5-0.2 0.6-0.4 1.1-0.5 1.7-0.1-0.1-0.3-0.2-0.4-0.3 0.2-0.7 0.4-1.4 0.4-2.1 0.2-0.3 0.2-0.5 0-0.7 0.2-0.1 0.3-0.3 0.3-0.5 0.2-1.3 0.5-2.6 0.8-4-0.1 0-0.1-0.1-0.2-0.1 0.1-0.1 0.2-0.2 0.3-0.3z"></path><path fill="#eaf5f6" d="m33 9.8v0.2c-0.5 0.9-1.1 1.8-1.8 2.7-0.1-0.3-0.2-0.5-0.4-0.7-0.1-0.1-0.1-0.2 0-0.4 0.7-0.6 1.4-1.2 2.2-1.8z"></path><path fill="#ebf5f6" d="m4.1 18.5c0.1 0.3 0.1 0.7 0.1 1-0.9 0.3-1.7 0.6-2.6 0.9 0 0-0.1 0-0.1 0 0.8-0.6 1.5-1.2 2.2-1.8 0.1-0.2 0.3-0.2 0.4-0.1z"></path><path fill="#e3f0f4" d="m32.5 18.4c0.7 0.7 1.5 1.3 2.3 2-0.9-0.2-1.8-0.5-2.7-0.9 0-0.3 0-0.6 0.1-0.9 0-0.1 0.1-0.2 0.3-0.2z"></path><path fill="#1e5486" d="m10.4 9.2h0.3c-0.1 0.7-0.2 1.5-0.4 2.2 0.3 0.3 0.6 0.5 1 0.4 0 0.1 0 0.1 0.1 0.2-0.4 0.4-0.9 0.8-1.4 1.2-0.4 2.1-0.7 4.1-1.1 6.2 0.1 0.3 0.1 0.5 0.3 0.7-0.2-0.2-0.3-0.2-0.3 0.1-0.2 0.2-0.2 0.4-0.2 0.7h0.5c0 0.1 0.1 0.2 0.2 0.3h-0.8c-0.2 0.7-0.3 1.5-0.3 2.3-0.1 0.2-0.2 0.5-0.3 0.7-0.1 0.9-0.2 1.8-0.2 2.7 0.2 0.3 0.5 0.6 0.8 0.7 0.6-0.8 1.2-1.7 1.7-2.7 0.1 0 0.3 0 0.3 0.1-0.5 1-1 1.9-1.5 2.9 0.2 0.5 0.5 0.7 1 0.7 0.8-0.7 1.5-1.3 2.3-2 0.3 0.1 0.3 0.2 0.1 0.3-0.7 0.7-1.4 1.3-2.2 1.9-0.1 0.1-0.1 0.2 0 0.3-0.1 0.1-0.1 0.2-0.1 0.3-0.1-0.1-0.3-0.2-0.5-0.1-0.6 0.6-1.4 1.2-2.1 1.8 1-0.4 2.1-0.7 3.1-1.1 0.1 0.1 0.2 0.2 0.3 0.3-1 0.3-1.9 0.7-2.8 1-0.2 0-0.4 0.1-0.5 0.2 0.1 0.1 0.1 0.1 0.2 0.1l0.6 0.2c-0.2 0-0.3 0.1-0.1 0.2 2.7 1 5.5 2 8.2 2.9 0.3 0.2 0.5 0.2 0.8 0.1 0.1 0.2 0.1 0.4 0.2 0.5l0.2-0.1c0.3 0.2 0.5 0.4 0.7 0.5h-1.5c-3.5-1.3-7.1-2.6-10.6-4-2.1-3.4-4.1-7-6.1-10.5h0.3c0.1 0 0.2 0 0.4 0.1 0 0.2 0.2 0.3 0.4 0.4 0 0.1 0 0.1 0 0.2-0.1-0.1-0.2-0.1-0.3 0-0.1 0.1-0.1 0.2 0 0.3 0.1-0.1 0.2-0.1 0.3 0l0.1-0.2c0.1 0.1 0.2 0.3 0.2 0.4 1.5 2.5 2.9 5 4.4 7.5-0.2-1.2-0.3-2.4-0.5-3.6 0-0.1 0.1-0.2 0.2-0.2 0.2 1.4 0.5 2.7 0.8 4.1 0.2-0.9 0.4-1.8 0.5-2.8l0.3 0.1c-0.2-0.4-0.2-0.8 0-1.2 0.1-0.8 0.2-1.5 0.3-2.3 0.1-0.2 0.2-0.5 0.1-0.7 0.2-0.7 0.3-1.3 0.4-2 0.1 0 0.1-0.1 0.1-0.3h-3.4c0 0.2 0 0.3 0.1 0.3 0.1 0.4 0.1 0.8 0.2 1.2v0.3c0.1 0.2 0.1 0.4 0.1 0.7 0 0.2 0 0.5-0.2 0.7 0-0.6-0.1-1.1-0.3-1.6 0-0.3 0-0.6-0.1-0.9l-0.1-0.7h-2.9c-0.2 0-0.4 0-0.6-0.1-0.1-0.1-0.2-0.3-0.1-0.5 0.2 0.1 0.5 0 0.6-0.2 0.9-0.3 1.7-0.6 2.6-0.9 0-0.3 0-0.7-0.1-1 0-0.1-0.1-0.2-0.2-0.3l0.2-0.2c-0.1-0.2-0.1-0.4-0.2-0.5 0-0.5-0.1-1-0.2-1.5 0-0.2 0.1-0.4 0.2-0.5 0.2 0.6 0.3 1.3 0.3 2l0.2 0.4c0 0.1-0.1 0.1-0.1 0.2 0.1 0.4 0.2 0.8 0.4 1.2 0.8-0.3 1.7-0.6 2.6-0.9 0.2 0 0.4 0 0.6 0-0.1 0.1-0.1 0.1-0.2 0.2-1 0.3-2 0.6-2.9 1-0.1 0.4-0.1 0.8 0 1.2 1.2 0.1 2.4 0.1 3.6 0.1 0-0.5 0-1 0.1-1.5 0-0.1 0.1-0.1 0.2-0.2l-0.2-0.1c0.1 0 0.2-0.1 0.2-0.1v-0.7h-0.3c-0.1-0.1-0.2-0.1-0.2-0.2 0.2-0.2 0.4-0.3 0.7-0.4 0.1-0.8 0.2-1.6 0.4-2.5 0.1-0.2 0.1-0.5 0.2-0.9v-0.2c0.1-0.2 0.2-0.4 0.3-0.7 0-0.1-0.1-0.2-0.2-0.3 0.2-0.4 0.3-0.9 0.1-1.3-0.9-0.4-1.8-0.7-2.8-1.1-0.3-0.1-0.2-0.2 0.1-0.3 0.8 0.3 1.6 0.6 2.4 0.8 0.2 0.1 0.4 0.1 0.6 0 0.1-0.6 0.2-1.2 0.3-1.8 0.1 0 0.1-0.1 0.1-0.2z"></path><path fill="#d0ebf6" d="m8.4 18.3h0.3v0.7c-0.2-0.1-0.3-0.3-0.4-0.6 0 0 0.1 0 0.1-0.1z"></path><path fill="#f5f9f7" d="m7.3 18.4c-0.9 0.3-1.8 0.6-2.6 0.9-0.2-0.4-0.3-0.8-0.4-1.2 0-0.1 0.1-0.1 0.1-0.2 0.7-0.5 1.4-1.1 2.1-1.6 0.5 0.5 0.9 1.2 1.1 2-0.2 0-0.3 0-0.3 0.1z"></path><path fill="#cbe3ed" d="m10.2 12c0.7 0 0.7 0.2 0.1 0.5-0.1-0.1-0.2-0.3-0.1-0.5z"></path><path fill="#f6faf9" d="m7.7 18.6c0.2 0 0.3 0.1 0.4 0.2 0.1 0.3 0.2 0.4 0.4 0.6-0.1 0.5-0.1 1-0.1 1.5-1.2 0-2.4 0-3.6-0.1-0.1-0.4-0.1-0.8 0-1.2 0.9-0.4 1.9-0.7 2.9-1z"></path><path fill="#3d9dcf" d="m27.8 19.5c0 0.5 0.1 0.9 0.2 1.4h-0.4c0-0.3 0-0.5-0.1-0.7 0.1-0.2 0.2-0.5 0.3-0.7z"></path><path fill="#479cc3" d="m31.6 19.6c0.1 0.1 0.2 0.2 0.3 0.3v1h-0.5c0.1-0.4 0.1-0.9 0.2-1.3z"></path><path fill="#e6f2f5" d="m31.9 19.9c0.9 0.2 1.8 0.5 2.7 0.9-0.9 0.1-1.8 0.1-2.7 0.1v-1z"></path><path fill="#e9f2f7" d="m4 19.9h0.3c0.1 0.3 0.1 0.6 0.1 1-0.9 0-1.8 0-2.8-0.1 0.8-0.3 1.6-0.6 2.4-0.9z"></path><path fill="#d1e8f4" d="m8.9 20.2l0.3 0.7h-0.5c0-0.3 0-0.5 0.2-0.7z"></path><path fill="#bcdeee" d="m27.5 20.2c0.1 0.2 0.1 0.4 0.1 0.7h-0.4c0-0.3 0.1-0.5 0.3-0.7z"></path><path fill="#b5cde8" d="m8.2 21.5c-0.5-0.1-1.1-0.2-1.6-0.2-0.6 0-1.1 0.1-1.6 0.2-0.1 0-0.1-0.1-0.1-0.3h3.4c0 0.2 0 0.3-0.1 0.3z"></path><path fill="#b4d2ee" d="m28.1 21.2h3.2v0.1h-3.1v0.6c-0.1-0.2-0.2-0.4-0.1-0.7z"></path><path fill="#b5d3ef" d="m31.7 21.2c0.9 0 1.9 0 2.9 0.1-0.1 0.1-0.2 0.1-0.3 0.1-0.4 0-0.8-0.1-1.3-0.1-0.5 0-0.9 0.1-1.3 0.2v-0.3z"></path><path fill="#eff8f9" d="m1.7 21.2h2.9l0.1 0.7v0.4c-0.9-0.3-1.9-0.6-2.8-0.9-0.1 0-0.2-0.1-0.2-0.2z"></path><path fill="#f7fbfa" d="m8.2 21.5c-0.1 0.7-0.2 1.3-0.4 2-0.9-0.3-1.7-0.6-2.6-0.8-0.1-0.4-0.1-0.8-0.2-1.2 0.5-0.1 1-0.2 1.6-0.2 0.5 0 1.1 0.1 1.6 0.2z"></path><path fill="#f4f9f9" d="m9.4 21.2c0.5 0.8 1.1 1.7 1.6 2.6-0.2 0.2-0.3 0.5-0.5 0.7-0.5-0.2-1-0.3-1.6-0.5-0.3-0.1-0.5-0.3-0.6-0.5 0-0.8 0.1-1.6 0.3-2.3h0.8z"></path><path fill="#f4faf9" d="m26.8 21.2h0.9l0.4 2.5c-0.8 0.2-1.5 0.5-2.2 0.8-0.1 0-0.1 0-0.2-0.1-0.1-0.2-0.2-0.3-0.3-0.5 0.4-0.9 0.9-1.8 1.4-2.7z"></path><path fill="#f8fbf9" d="m31.3 21.3c0 0.4-0.1 0.8-0.1 1.1-0.8 0.4-1.7 0.8-2.6 1.1-0.1-0.1-0.2-0.1-0.2-0.3-0.1-0.4-0.1-0.9-0.2-1.3v-0.6h3.1z"></path><path fill="#3297c7" d="m31.3 21.2h0.4v0.3c-0.1 0.3-0.1 0.6-0.1 0.9h-0.4c0-0.3 0.1-0.7 0.1-1.1v-0.1z"></path><path fill="#469dca" d="m1.1 21.1c0.2 0.1 0.4 0.1 0.6 0.1 0 0.1 0.1 0.2 0.2 0.2 0.9 0.3 1.9 0.6 2.8 0.9v-0.4c0.1 0.3 0.1 0.6 0.1 0.9-1.1-0.3-2.1-0.7-3.2-1.1 0 0-0.1 0-0.1 0.1-0.1-0.2-0.3-0.3-0.5-0.5-0.1-0.1 0-0.2 0.1-0.2z"></path><path fill="#276da4" d="m26.8 21.2c-0.5 0.9-1 1.8-1.4 2.7-0.1-0.1-0.2-0.3-0.3-0.4 0.4-0.8 0.9-1.6 1.4-2.3 0.1-0.1 0.2-0.1 0.3 0z"></path><path fill="#eff6f3" d="m34.3 21.4c-0.9 0.4-1.8 0.7-2.7 1 0-0.3 0-0.6 0.1-0.9 0.4-0.1 0.8-0.2 1.3-0.2 0.5 0 0.9 0.1 1.3 0.1z"></path><path fill="#eef8f8" d="m1.5 21.8c0-0.1 0.1-0.1 0.1-0.1 1.1 0.4 2.1 0.8 3.2 1.1 0.2 0.5 0.3 1 0.3 1.6 0 0.1 0 0.2 0 0.3-1.2-1-2.4-2-3.6-2.9z"></path><path fill="#469ecc" d="m27.7 21.2h0.4c-0.1 0.3 0 0.5 0.1 0.7 0.1 0.4 0.1 0.9 0.2 1.3 0 0.2 0.1 0.2 0.2 0.3-0.1 0-0.3 0.1-0.5 0.2l-0.4-2.5z"></path><path fill="#419ec8" d="m31.4 22.9c-0.1 0.6-0.2 1.1-0.1 1.7-0.1 0.2-0.3 0.3-0.5 0.2 0-0.5 0-1 0.2-1.5 0-0.1-0.1-0.2-0.2-0.2 0.2-0.1 0.4-0.2 0.6-0.2z"></path><path fill="#fcfdfd" d="m35.9 21.8v14.1h-16.6c3.5-1.3 6.9-2.6 10.5-3.8 0.2-0.1 0.3-0.2 0.3-0.4l5.8-9.9z"></path><path fill="#eaf6f7" d="m34.8 21.8c-1.2 0.9-2.3 1.8-3.5 2.8-0.1-0.6 0-1.1 0.1-1.7 1.1-0.5 2.1-0.9 3.2-1.2 0.1 0 0.2 0 0.2 0.1z"></path><path fill="#449bc3" d="m5.2 22.7c0.9 0.2 1.7 0.5 2.6 0.8 0.1 0.2 0 0.5-0.1 0.7 0-0.1 0-0.2-0.1-0.3-0.8-0.3-1.6-0.6-2.4-0.9v-0.3z"></path><path fill="#276da3" d="m34.8 21.8h0.1c0 0.2-0.1 0.4-0.2 0.5-1.3 1-2.5 2.1-3.7 3.2-0.2 0.1-0.4 0.2-0.6 0.3l-1.2 1.1-0.5 0.4c-0.2 0.2-0.5 0.5-0.9 0.7-0.2-0.1-0.2-0.2-0.1-0.4 0.3-0.2 0.6-0.5 0.9-0.8 0.2-0.1 0.3-0.2 0.5-0.3 0.5-0.4 1-0.8 1.6-1.3 0.1-0.1 0.1-0.2 0.1-0.4 0.2 0.1 0.4 0 0.5-0.2 1.2-1 2.3-1.9 3.5-2.8z"></path><path fill="#f3faf9" d="m30.8 23.1c0.1 0 0.2 0.1 0.2 0.2-0.2 0.5-0.2 1-0.2 1.5 0 0.2 0 0.3-0.1 0.4-0.6 0.5-1.1 0.9-1.6 1.3-0.2-0.8-0.4-1.6-0.6-2.5 0.1-0.1 0.2-0.2 0.4-0.3 0.6-0.2 1.2-0.4 1.9-0.6z"></path><path fill="#f4faf9" d="m5.2 23c0.8 0.3 1.6 0.6 2.4 0.9 0.1 0.1 0.1 0.2 0.1 0.3-0.1 0.8-0.2 1.5-0.3 2.3-0.7-0.4-1.2-0.8-1.8-1.4-0.1-0.5-0.2-0.9-0.3-1.4 0-0.3 0-0.5-0.1-0.7z"></path><path fill="#459eca" d="m8.3 23.5c0.1 0.2 0.3 0.4 0.6 0.5 0.6 0.2 1.1 0.3 1.6 0.5 0.1 0.1 0.3 0.2 0.5 0.1 0.1 0.2 0.2 0.2 0.4 0.1 0.2 0.2 0.3 0.4 0.4 0.7-0.4-0.1-0.8-0.3-1.2-0.4 0-0.1-0.2-0.1-0.3-0.1-0.7-0.2-1.3-0.5-2-0.8-0.1 0.1-0.2 0.1-0.3 0.1 0.1-0.2 0.2-0.5 0.3-0.7z"></path><path fill="#dbf0f7" d="m25.1 24.2c0.2 0.2 0.3 0.3 0.3 0.5-0.7 0.2-0.8 0-0.3-0.5z"></path><path fill="#cbf0f9" d="m11.4 24.7c-0.2 0.1-0.3 0.1-0.4-0.1 0.1-0.4 0.3-0.4 0.4 0.1z"></path><path fill="#f3faf9" d="m34.7 22.3c-1.5 2.6-3 5.1-4.4 7.7 0.1-1.5 0.4-3 0.7-4.5 1.2-1.1 2.4-2.2 3.7-3.2z"></path><path fill="#f4faf9" d="m10.3 24.9c-0.5 1-1.1 1.9-1.7 2.7-0.3-0.1-0.6-0.4-0.8-0.7 0-0.9 0.1-1.8 0.2-2.7 0.1 0 0.2 0 0.3-0.1 0.7 0.3 1.3 0.6 2 0.8z"></path><path fill="#225c90" d="m24.9 23.8c0.2 0.1 0.2 0.3 0.2 0.4-0.5 0.5-0.4 0.7 0.3 0.5 0.2 0.1 0.2 0.2 0.1 0.3-0.9 0.1-1.4 0.5-1.6 1.4-0.2 0.1-0.3 0-0.3-0.2 0.3-0.5 0.2-0.6-0.4-0.4-0.2 0-0.3-0.1-0.4-0.2 0.5-0.1 0.9-0.3 1.3-0.5 0.3-0.4 0.6-0.9 0.8-1.3z"></path><path fill="#27669a" d="m1 20.6c-0.1 0.2 0 0.4 0.1 0.5-0.1 0-0.2 0.1-0.1 0.2 0.2 0.2 0.4 0.3 0.5 0.5 1.2 0.9 2.4 1.9 3.6 2.9 0-0.1 0-0.2 0-0.3 0.2-0.2 0.2-0.5 0.2-0.7 0.1 0.5 0.2 0.9 0.3 1.4 0.6 0.6 1.1 1 1.8 1.4-0.2 0.4-0.2 0.8 0 1.2l-0.3-0.1c0.1-0.3 0-0.5-0.1-0.8-0.3-0.3-0.7-0.7-1.1-1-0.1 0.2-0.1 0.3-0.1 0.5-0.1 0-0.2 0.1-0.2 0.2-0.1-0.4-0.2-0.7-0.3-1.1-1.1-1-2.3-2-3.5-3 0 0.1-0.1 0.1-0.1 0.2 0-0.1-0.1-0.3-0.2-0.4l-0.1 0.2c-0.1-0.1-0.2-0.1-0.3 0-0.1-0.1-0.1-0.2 0-0.3 0.1-0.1 0.2-0.1 0.3 0 0-0.1 0-0.1 0-0.2-0.2-0.1-0.4-0.2-0.4-0.4-0.2-0.1-0.3-0.1-0.4-0.1 0.2-0.2 0.3-0.5 0.4-0.8z"></path><path fill="#f4fbf9" d="m25.5 25c0.1 0 0.2 0.1 0.2 0.1 0.6 1 1.1 2 1.6 3-0.3 0.1-0.6 0.3-0.8 0.5-0.9-0.5-1.8-1.2-2.5-2-0.1-0.1-0.1-0.1-0.1-0.2 0.2-0.9 0.7-1.3 1.6-1.4z"></path><path fill="#f2f8f7" d="m5.6 26.5c0.2 1.2 0.3 2.4 0.5 3.6-1.5-2.5-2.9-5-4.4-7.5 0-0.1 0.1-0.1 0.1-0.2 1.2 1 2.4 2 3.5 3 0.1 0.4 0.2 0.7 0.3 1.1z"></path><path fill="#e5f8fb" d="m12.5 25.8c0.2-0.1 0.3-0.1 0.4 0 0.2 0.1 0.2 0.1 0.2 0.2-0.3 0.2-0.4 0.1-0.6-0.2z"></path><path fill="#3f9dca" d="m12.2 25.1c1.4 0.5 2.9 1.1 4.3 1.6-0.2 0-0.3 0.1-0.4 0.2-0.8-0.2-1.6-0.5-2.4-0.9-0.1 0.1-0.2 0.1-0.3 0.2 0-0.3-0.1-0.3-0.3-0.2 0-0.1 0-0.1-0.2-0.2-0.1-0.1-0.2-0.1-0.4 0-0.1-0.2-0.2-0.4-0.3-0.7z"></path><path fill="#f5f9f8" d="m10.6 25c0.4 0.1 0.8 0.3 1.2 0.4 0.3 0.3 0.6 0.7 0.6 1.2-0.8 0.7-1.5 1.3-2.3 2-0.5 0-0.8-0.2-1-0.7 0.5-1 1-1.9 1.5-2.9z"></path><path fill="#ecf4f6" d="m7.1 27.6c-0.1 1-0.3 1.9-0.5 2.8-0.3-1.4-0.6-2.7-0.8-4.1 0-0.2 0-0.3 0.1-0.5 0.4 0.3 0.8 0.7 1.1 1 0.1 0.3 0.2 0.5 0.1 0.8z"></path><path fill="#f4faf9" d="m16.1 26.9c0.1 0.1 0.2 0.1 0.3 0.2 0.1 0.2 0.1 0.5 0.1 0.9-0.2-0.1-0.3 0-0.4 0.1-0.6 0.2-1.2 0.4-1.8 0.6-0.5-0.6-0.9-1.3-1.3-2.1 0.1-0.2 0.3-0.3 0.4-0.4 0.1-0.1 0.2-0.1 0.3-0.2 0.8 0.4 1.6 0.7 2.4 0.9z"></path><path fill="#f6faf9" d="m22.4 26.2c0.5-0.1 0.7 0.1 0.8 0.5l-1 1.8c-0.1 0.1-0.1 0.2-0.2 0.2-0.8-0.2-1.5-0.5-2.3-0.9 0.1-0.2 0.2-0.5 0.3-0.8 0.8-0.3 1.6-0.6 2.4-0.8z"></path><path fill="#215587" d="m22.2 25.8c0.4 0.1 0.5 0.2 0.2 0.4-0.8 0.2-1.6 0.5-2.4 0.8-0.1 0.3-0.2 0.6-0.3 0.8-0.1-0.1-0.2-0.4-0.3-0.6-0.1 0-0.1 0-0.1 0.1-0.1 0.1-0.3 0.1-0.5 0.1-0.2 0.1-0.4 0-0.6-0.1 1.3-0.5 2.7-1 4-1.5z"></path><path fill="#d9eff4" d="m16.8 27.2c0.3 0 0.5 0.2 0.6 0.4-0.5 0.2-0.6 0.1-0.6-0.4z"></path><path fill="#f4faf9" d="m12.5 26.9c0.2 0 0.2 0.1 0.3 0.2 0.4 0.5 0.7 1.1 1 1.6-0.1 0.1-0.2 0.2-0.2 0.3-0.7 0.3-1.5 0.5-2.2 0.8-0.2 0-0.4-0.1-0.5-0.2-0.2-0.2-0.4-0.4-0.6-0.5-0.1-0.1-0.1-0.2 0-0.3 0.8-0.6 1.5-1.2 2.2-1.9z"></path><path fill="#266da2" d="m23.6 26.9c-0.4 0.7-0.8 1.3-1.2 2-0.1-0.1-0.2-0.2-0.2-0.4l1-1.8c0.2-0.1 0.4 0 0.4 0.2z"></path><path fill="#f3faf7" d="m8.2 28.6h-0.4v0.4h-0.3v-1.3c0-0.1 0-0.3 0.1-0.4 0.3 0.2 0.5 0.4 0.7 0.7 0.1 0.2 0 0.4-0.1 0.6z"></path><path fill="#f6fbfa" d="m18.1 27.7c0.3 0.1 0.6 0.2 1 0.3 0.1 0.1 0.2 0.2 0.2 0.3-0.2 1-0.4 2.1-0.6 3.1-0.4 0.1-0.8 0-1.2-0.2-0.1-0.9-0.3-1.9-0.5-2.8 0.1-0.1 0.1-0.3 0.2-0.4 0.3-0.1 0.6-0.2 0.9-0.3z"></path><path fill="#fafcfa" d="m21.5 29.6c-0.3 0.6-0.6 1.2-0.9 1.7 0 0-0.1 0.1-0.1 0.1h-1.2c0-0.9 0.3-1 0.8-0.2 0.1-0.1 0.1-0.3 0.1-0.4-0.3 0-0.5-0.2-0.7-0.4 0.1-0.5 0.2-1 0.2-1.5l0.2-0.3c0.3 0.1 0.6 0.2 1 0.2-0.1 0-0.1 0.1-0.1 0.2 0.2 0.1 0.4 0.2 0.6 0.3 0.1 0.1 0.2 0.2 0.1 0.3z"></path><path fill="#e3f4fa" d="m19.6 28.3c0.8 0.2 1.6 0.5 2.3 0.8-0.1 0.2-0.2 0.4-0.4 0.5 0.1-0.1 0-0.2-0.1-0.3-0.2-0.1-0.4-0.2-0.6-0.3 0-0.1 0-0.2 0.1-0.2-0.4 0-0.7-0.1-1-0.2l-0.2 0.3c0 0.5-0.1 1-0.2 1.5 0.2 0.2 0.4 0.4 0.7 0.4 0 0.1 0 0.3-0.1 0.4-0.5-0.8-0.8-0.7-0.8 0.2-0.1 0-0.1-0.1-0.1-0.2l0.4-2.9z"></path><path fill="#d5e6ee" d="m7.4 27.7h0.1v1.3h0.3v-0.4h0.4c-0.4 0.6-0.7 1.2-1.1 1.8 0-0.9 0.1-1.8 0.3-2.7z"></path><path fill="#e4f1f2" d="m8.7 28.3c0.3 0.1 0.6 0.4 0.8 0.7-0.7 0.6-1.3 1.2-2 1.8l-0.1-0.1c0.4-0.8 0.9-1.6 1.3-2.4z"></path><path fill="#1d5085" d="m13.6 29c0.2-0.1 0.3 0 0.4 0.2l-2.2 0.8c-0.2 0-0.3-0.1-0.4-0.2 0.7-0.3 1.5-0.5 2.2-0.8z"></path><path fill="#266b9e" d="m21.9 29.1c0.1 0 0.2 0.1 0.3 0.1-0.4 0.8-0.9 1.5-1.2 2.4-0.1-0.2-0.2-0.2-0.3 0-0.1-0.1-0.1-0.2-0.1-0.3 0.3-0.5 0.6-1.1 0.9-1.7 0.2-0.1 0.3-0.3 0.4-0.5z"></path><path fill="#f0f7f8" d="m22.2 29.2c0.7 0.3 1.5 0.6 2.3 0.8 0.1 0 0.2 0.1 0.2 0.2-0.5 0.3-0.9 0.7-1.4 1.1 0 0.1-0.1 0.1-0.2 0.2-0.7 0.1-1.4 0.1-2.1 0.1 0.3-0.9 0.8-1.6 1.2-2.4z"></path><path fill="#e7f4f6" d="m10.2 29.4c0.1 0.2 0.3 0.4 0.5 0.6-1 0.4-2.1 0.7-3.1 1.1 0.7-0.6 1.5-1.2 2.1-1.8 0.2-0.1 0.4 0 0.5 0.1z"></path><path fill="#f4fbfb" d="m25.1 30.3c1.1 0.3 2.1 0.6 3.1 1-1.4 0.2-2.9 0.2-4.3 0 0.4-0.3 0.8-0.7 1.2-1z"></path><path fill="#286ea0" d="m25.1 30.3c-0.4 0.3-0.8 0.7-1.2 1-0.1 0.1-0.1 0.1-0.1 0.3-0.1-0.2-0.3-0.2-0.5-0.3 0.5-0.4 0.9-0.8 1.4-1.1 0.2-0.1 0.3-0.1 0.4 0.1z"></path><path fill="#3d9ccb" d="m35.9 20.6v1.2l-5.8 9.9c-0.1-0.2-0.2-0.3-0.4-0.4-0.3 0.1-0.6 0.2-1 0.3h-0.3c0-0.2-0.1-0.3-0.2-0.3-1-0.4-2-0.7-3.1-1-0.1-0.2-0.2-0.2-0.4-0.1 0-0.1-0.1-0.2-0.2-0.2-0.8-0.2-1.6-0.5-2.3-0.8-0.1 0-0.2-0.1-0.3-0.1-0.7-0.3-1.5-0.6-2.3-0.8-0.1-0.1-0.2-0.1-0.3 0 0-0.1-0.1-0.2-0.2-0.3-0.4-0.1-0.7-0.2-1-0.3-0.2-0.2-0.5-0.2-0.7-0.1-0.1-0.2-0.3-0.4-0.6-0.4v-0.4c0.5 0.2 0.9 0.4 1.4 0.5 0.2 0.1 0.4 0.2 0.6 0.1 0.2 0.2 0.3 0.3 0.6 0.2 0-0.1 0-0.2-0.1-0.3 0-0.1 0-0.1 0.1-0.1 0.1 0.2 0.2 0.5 0.3 0.6 0.8 0.4 1.5 0.7 2.3 0.9 0.1 0 0.1-0.1 0.2-0.2 0 0.2 0.1 0.3 0.2 0.4 0.9 0.3 1.8 0.6 2.7 0.9 0.2 0.1 0.3 0.2 0.5 0.2 1 0.4 2 0.8 3 1.1-0.7-0.7-1.4-1.3-2.2-1.8 0.1-0.2 0.1-0.3-0.2-0.3 0 0-0.1 0.1-0.2 0.1 0-0.3-0.2-0.5-0.4-0.6-0.5-0.4-1-0.8-1.5-1.3-0.1-0.1-0.3-0.2-0.5-0.3 0-0.2-0.2-0.3-0.4-0.2-0.1-0.4-0.3-0.6-0.8-0.5 0.3-0.2 0.2-0.3-0.2-0.4 0.2-0.1 0.4-0.1 0.6-0.2 0.1 0.1 0.2 0.2 0.4 0.2 0 0.2 0.1 0.4 0.4 0.4 0 0.2 0.1 0.3 0.3 0.2 0 0.1 0 0.1 0.1 0.2 0.7 0.8 1.6 1.5 2.5 2 0.1 0.1 0.2 0.2 0.3 0.3 0.1 0.2 0.2 0.3 0.4 0.5 0.5 0.3 1 0.7 1.4 1.1l0.1-0.1c-0.3-0.5-0.5-1-0.8-1.5-0.1-0.3-0.3-0.4-0.5-0.5 0.2-0.2 0.1-0.3-0.1-0.3-0.5-1-1-2-1.6-3 0 0-0.1-0.1-0.2-0.1 0.1-0.1 0.1-0.2-0.1-0.3 0-0.2-0.1-0.3-0.3-0.5 0-0.1 0-0.3-0.2-0.4 0-0.2 0.1-0.3 0.2-0.3 0.1 0.1 0.2 0.3 0.3 0.4 0.1 0.2 0.2 0.3 0.3 0.5 0.1 0.1 0.1 0.1 0.2 0.1 0 0.1 0 0.2 0.1 0.3 0.5 0.8 0.9 1.6 1.3 2.5 0.2 0.1 0.3 0.2 0.4 0.3-0.1 0.2-0.1 0.3 0.1 0.4 0.5 0.8 1 1.7 1.4 2.5 0-1.1-0.2-2.1-0.5-3.2l0.5-0.4c0.1 1.1 0.2 2.2 0.5 3.2 0.3-1.3 0.6-2.7 0.8-4 0-0.1 0-0.2-0.1-0.3 0.2-0.1 0.4-0.2 0.6-0.3-0.3 1.5-0.6 3-0.7 4.5 1.4-2.6 2.9-5.1 4.4-7.7 0.1-0.1 0.2-0.3 0.2-0.5 0.3-0.3 0.5-0.6 0.6-0.9 0.1-0.2 0.3-0.3 0.4-0.3z"></path><path fill="#e8f6f8" d="m26.4 29.3c0.8 0.5 1.5 1.1 2.2 1.8-1-0.3-2-0.7-3-1.1 0.2-0.3 0.5-0.5 0.8-0.7z"></path><path fill="#e6f6f9" d="m28.7 27.3c0.3 1.1 0.5 2.1 0.6 3.2-0.5-0.8-1-1.7-1.5-2.5 0.4-0.2 0.7-0.5 0.9-0.7z"></path><path fill="#276ca6" d="m26.4 29.3c-0.3 0.2-0.6 0.4-0.8 0.7-0.2 0-0.3-0.1-0.5-0.2l0.9-0.7c0.1 0 0.2-0.1 0.2-0.1 0.3 0 0.3 0.1 0.2 0.3z"></path><path fill="#ecf8f8" d="m27.4 28.4c0.2 0.1 0.4 0.2 0.5 0.5 0.3 0.5 0.5 1 0.8 1.5l-0.1 0.1c-0.4-0.4-0.9-0.8-1.4-1.1-0.2-0.2-0.3-0.3-0.4-0.5l0.6-0.5z"></path><path fill="#286e9d" d="m27.3 28.1c0.2 0 0.3 0.1 0.1 0.3l-0.6 0.5c-0.1-0.1-0.2-0.2-0.3-0.3 0.2-0.2 0.5-0.4 0.8-0.5z"></path><path fill="#f4faf9" d="m23.6 26.9c0.2 0.1 0.4 0.2 0.5 0.3 0.5 0.5 1 0.9 1.5 1.3 0.2 0.1 0.4 0.3 0.4 0.6l-0.9 0.7c-0.9-0.3-1.8-0.6-2.7-0.9 0.4-0.7 0.8-1.3 1.2-2z"></path><path fill="#f4fafa" d="m30.4 25.8c0.1 0.1 0.1 0.2 0.1 0.3-0.2 1.3-0.5 2.7-0.8 4-0.3-1-0.4-2.1-0.5-3.2l1.2-1.1z"></path><path fill="#def8fc" d="m19.3 27.3c0.1 0.1 0.1 0.2 0.1 0.3-0.3 0.1-0.4 0-0.6-0.2 0.2 0 0.4 0 0.5-0.1z"></path><path fill="#3f99c9" d="m28 24.1c0.1-0.1 0.3-0.1 0.5-0.1 0.2 0.9 0.4 1.7 0.6 2.5-0.2 0.1-0.3 0.2-0.5 0.3 0-0.8-0.2-1.6-0.4-2.4 0-0.2-0.1-0.3-0.2-0.3z"></path><path fill="#dff3f5" d="m23.6 26.2c-0.3 0-0.4-0.2-0.4-0.4 0.6-0.2 0.7-0.1 0.4 0.4z"></path><path fill="#f6fbf9" d="m28 24.1c0.1 0 0.2 0.1 0.2 0.3 0.2 0.8 0.4 1.6 0.4 2.4-0.3 0.3-0.6 0.6-0.9 0.8-0.1-0.1-0.2-0.2-0.4-0.3-0.4-0.9-0.8-1.7-1.3-2.5 0.7-0.3 1.3-0.5 2-0.7z"></path><path fill="#f5faf9" d="m11 30.3c0.1 0 0.2 0 0.3 0.1 0.3 0.4 0.7 0.7 1.1 0.9-1.4 0.2-2.8 0.2-4.2 0 0.9-0.3 1.8-0.7 2.8-1z"></path><path fill="#a0bfdc" d="m8.2 31.3c1.4 0.2 2.8 0.2 4.2 0 0.1 0.1 0.2 0.1 0.1 0.3h-4.6c-0.1 0-0.1 0-0.2-0.1 0.1-0.1 0.3-0.2 0.5-0.2z"></path><path fill="#90b8d5" d="m19.2 31.2c0 0.1 0 0.2 0.1 0.2h1.2c-0.4 0.2-0.9 0.2-1.4 0.2-0.1-0.2 0-0.3 0.1-0.4z"></path><path fill="#053468" d="m7.9 31.6h4.6l-3.6 0.2h-0.4l-0.6-0.2z"></path><path fill="#447093" d="m8.5 31.8h0.4c1.4-0.1 2.8 0 4.1 0.1-1.6 0-3.1 0-4.6 0.1-0.2-0.1-0.1-0.2 0.1-0.2z"></path><path fill="#f2f8f7" d="m8.4 32c1.5-0.1 3-0.1 4.6-0.1 1.3 1 2.5 2 3.6 3-2.7-0.9-5.5-1.9-8.2-2.9z"></path><path fill="#236ba2" d="m9.2 20.1c1 1.7 2 3.3 3 5 0.1 0.3 0.2 0.5 0.3 0.7 0.2 0.3 0.3 0.4 0.6 0.2 0.2-0.1 0.3-0.1 0.3 0.2-0.1 0.1-0.3 0.2-0.4 0.4 0.4 0.8 0.8 1.5 1.3 2.1 0 0.2 0.1 0.2 0.2 0.3 0.3 0.8 0.8 1.7 1.3 2.4 0.4 0.2 0.9 0.2 1.4 0.2 0-0.5-0.1-1-0.3-1.4 0-0.5-0.1-1-0.1-1.5-0.1-0.2-0.1-0.3-0.3-0.4-0.1-0.1-0.2-0.2-0.4-0.2 0.1-0.1 0.2-0.2 0.4-0.1 0-0.4 0-0.7-0.1-0.9-0.1-0.1-0.2-0.1-0.3-0.2 0.1-0.1 0.2-0.2 0.4-0.2 0.1 0.1 0.2 0.1 0.3 0.1v0.4c0 0.5 0.1 0.6 0.6 0.4 0.2-0.1 0.5-0.1 0.7 0.1-0.3 0.1-0.6 0.2-0.9 0.3-0.1 0.1-0.1 0.3-0.2 0.4 0.2 0.9 0.4 1.9 0.5 2.8v0.4c0.4 0 0.8 0 1.2-0.2 0.2-1 0.4-2.1 0.6-3.1 0.1-0.1 0.2-0.1 0.3 0l-0.4 2.9c-0.1 0.1-0.2 0.2-0.1 0.4 0.1 0.1 0.3 0.2 0.5 0.2 0.3 0 0.5-0.1 0.7-0.1 0.1 0 0.1 0.1 0 0.1 0.1 0.1 0.2 0.1 0.3 0.1-0.5 0.9-1 1.9-1.5 2.8l0.1 0.1c1.1-0.9 2.2-1.9 3.4-2.9-0.6 0-1.2 0-1.8 0 0.7-0.1 1.5-0.1 2.3 0-1.1 1-2.3 2-3.5 3 2.8-0.9 5.5-1.9 8.2-3-1.5 0-3 0-4.6 0 1.6-0.2 3.3-0.2 4.9 0 0.2-0.1 0.4-0.2 0.6-0.3 0.4-0.1 0.7-0.2 1-0.3 0.2 0.1 0.3 0.2 0.4 0.4 0 0.2-0.1 0.3-0.3 0.4-3.6 1.2-7 2.5-10.5 3.8h-0.8c-0.2-0.1-0.4-0.3-0.7-0.5l-0.2 0.1c-0.1-0.1-0.1-0.3-0.2-0.5-0.3 0.1-0.5 0.1-0.8-0.1-1.1-1-2.3-2-3.6-3-1.3-0.1-2.7-0.2-4.1-0.1l3.6-0.2c0.1-0.2 0-0.2-0.1-0.3-0.4-0.2-0.8-0.5-1.1-0.9-0.1-0.1-0.2-0.1-0.3-0.1-0.1-0.1-0.2-0.2-0.3-0.3-0.2-0.2-0.4-0.4-0.5-0.6 0-0.1 0-0.2 0.1-0.3 0.2 0.1 0.4 0.3 0.6 0.5 0.1 0.1 0.3 0.2 0.5 0.2 0.1 0.1 0.2 0.2 0.4 0.2-0.1 0.1-0.1 0.1-0.2 0.1 0.6 0.5 1.1 0.9 1.6 1.3 0.7 0.2 1.4 0.2 2.2 0-0.1 0-0.1-0.1-0.2-0.1-0.3-0.7-0.7-1.4-1.2-2.1-0.1-0.2-0.2-0.3-0.4-0.2 0-0.1 0.1-0.2 0.2-0.3-0.3-0.5-0.6-1.1-1-1.6-0.1-0.1-0.1-0.2-0.3-0.2 0.2-0.1 0.2-0.2-0.1-0.3 0-0.5-0.3-0.9-0.6-1.2-0.1-0.3-0.2-0.5-0.4-0.7-0.1-0.5-0.3-0.5-0.4-0.1-0.2 0.1-0.4 0-0.5-0.1 0.2-0.2 0.3-0.5 0.5-0.7-0.5-0.9-1.1-1.8-1.6-2.6-0.1-0.1-0.2-0.2-0.2-0.3l-0.3-0.7c0-0.3 0.1-0.3 0.3-0.1z"></path><path fill="#eaf5f7" d="m19 31.9c0.4 0 0.8 0 1.2 0.1l-1.6 2.8c0.1-0.9 0.3-1.9 0.4-2.9z"></path><path fill="#f0f8f7" d="m20.6 31.9h0.2c0.6 0 1.2 0 1.8 0-1.2 1-2.3 2-3.4 2.9l-0.1-0.1c0.5-0.9 1-1.9 1.5-2.8z"></path><path fill="#f2f9f9" d="m23.1 31.9h0.1c1.6 0 3.1 0 4.6 0-2.7 1.1-5.4 2.1-8.2 3 1.2-1 2.4-2 3.5-3z"></path><path fill="#ecf5f6" d="m16.1 31.9c0.4 0 0.8 0 1.2 0.1 0.2 0.9 0.3 1.7 0.4 2.6-0.6-0.9-1.1-1.8-1.6-2.7z"></path><path fill="#eff7f8" d="m13.8 32c0.6-0.1 1.2-0.1 1.9 0 0.5 1 1.1 1.9 1.7 2.9-1.3-0.9-2.5-1.9-3.6-2.9z"></path><path fill="#f0f8f9" d="m17.7 31.9h0.9c-0.1 0.9-0.3 1.8-0.5 2.7-0.2-0.9-0.3-1.8-0.4-2.7z"></path><path fill="#134c81" d="m20.6 31.3c0 0.1 0 0.2 0.1 0.3 0.1-0.2 0.2-0.2 0.3 0 0.7 0 1.4 0 2.1-0.1 0.1-0.1 0.2-0.1 0.2-0.2 0.2 0.1 0.4 0.1 0.5 0.3h4.9c-0.2 0.1-0.4 0.2-0.6 0.3-1.6-0.2-3.3-0.2-4.9 0h-0.1c-0.8-0.1-1.6-0.1-2.3 0h-0.2c-0.1 0-0.2 0-0.3-0.1 0.1 0 0.1-0.1 0-0.1-0.2 0-0.4 0.1-0.7 0.1-0.2 0-0.4-0.1-0.5-0.2 0.5 0 1 0 1.4-0.2 0 0 0.1-0.1 0.1-0.1z"></path><path fill="#a2c0db" d="m23.9 31.3c1.4 0.2 2.9 0.2 4.3 0 0.1 0 0.2 0.1 0.2 0.3h-4.6c0-0.2 0-0.2 0.1-0.3z"></path><path fill="#9abddb" d="m17.5 31.2c0.4 0.2 0.8 0.3 1.2 0.2-0.4 0.2-0.8 0.2-1.2 0.2v-0.4z"></path><path fill="#a1bfdb" d="m15.2 31.3c0.1 0 0.1 0.1 0.2 0.1-0.8 0.2-1.5 0.2-2.2 0 0.7 0.1 1.4 0 2-0.1z"></path><path fill="#bedbed" d="m16.9 30.2c0.2 0.4 0.3 0.9 0.3 1.4-0.5 0-1 0-1.4-0.2h1.1v-1.2z"></path><path fill="#f4f9f8" d="m14 29.2c0.5 0.7 0.9 1.4 1.2 2.1-0.6 0.1-1.3 0.2-2 0.1-0.5-0.4-1-0.8-1.6-1.2 0.1-0.1 0.1-0.1 0.2-0.2l2.2-0.8z"></path><path fill="#f6faf9" d="m16.5 28.3c0.2 0.1 0.2 0.2 0.3 0.4 0 0.5 0.1 1 0.1 1.5v1.2h-1.1c-0.5-0.7-1-1.6-1.3-2.4 0.6-0.2 1.3-0.5 2-0.7z"></path><path fill="#1f507d" d="m16.1 28.1c0.2 0 0.3 0.1 0.4 0.2-0.7 0.2-1.4 0.5-2 0.7-0.1-0.1-0.2-0.1-0.2-0.3 0.6-0.2 1.2-0.4 1.8-0.6z"></path></svg>