<?xml version="1.0" encoding="UTF-8"?>
<!DOCTYPE svg PUBLIC "-//W3C//DTD SVG 1.1//EN" "http://www.w3.org/Graphics/SVG/1.1/DTD/svg11.dtd">
<svg xmlns="http://www.w3.org/2000/svg" version="1.1" width="320px" height="320px" style="shape-rendering:geometricPrecision; text-rendering:geometricPrecision; image-rendering:optimizeQuality; fill-rule:evenodd; clip-rule:evenodd" xmlns:xlink="http://www.w3.org/1999/xlink">
<g><path style="opacity:1" fill="#fcfefd" d="M -0.5,-0.5 C 106.167,-0.5 212.833,-0.5 319.5,-0.5C 319.5,56.1667 319.5,112.833 319.5,169.5C 313.852,138.957 308.185,108.29 302.5,77.5C 301.482,76.8075 300.482,76.1408 299.5,75.5C 274.485,53.8204 249.151,32.487 223.5,11.5C 221.54,9.84371 219.54,8.17704 217.5,6.5C 180.002,5.33555 142.336,5.16888 104.5,6C 76.6267,30.2088 48.4601,54.0421 20,77.5C 13.3858,113.578 6.88578,149.744 0.5,186C 0.524716,187.876 1.19138,189.376 2.5,190.5C 20.3757,221.753 38.3757,252.92 56.5,284C 88.2378,295.964 119.904,307.797 151.5,319.5C 100.833,319.5 50.1667,319.5 -0.5,319.5C -0.5,212.833 -0.5,106.167 -0.5,-0.5 Z"/></g>
<g><path style="opacity:1" fill="#147bbe" d="M 110.5,7.5 C 115.798,7.21288 120.964,7.87955 126,9.5C 126.833,9.33333 127.667,9.16667 128.5,9C 128.167,8.66667 127.833,8.33333 127.5,8C 150.174,7.16688 172.841,7.33355 195.5,8.5C 196.376,9.25083 197.376,9.75083 198.5,10C 172.124,10.1755 145.791,10.6755 119.5,11.5C 118.749,10.624 118.249,9.62402 118,8.5C 117.52,10.133 116.687,11.4664 115.5,12.5C 113.901,12.2322 112.568,12.5655 111.5,13.5C 110.883,13.3893 110.383,13.056 110,12.5C 109.503,15.146 109.336,17.8127 109.5,20.5C 109.737,21.791 109.404,22.791 108.5,23.5C 107.325,19.8166 107.325,16.15 108.5,12.5C 109.942,11.1805 110.608,9.5138 110.5,7.5 Z"/></g>
<g><path style="opacity:1" fill="#4e8cae" d="M 199.5,13.5 C 173.833,12.1667 148.167,12.1667 122.5,13.5C 121.833,13.5 121.5,13.1667 121.5,12.5C 148.003,11.1707 174.67,11.1707 201.5,12.5C 201.043,13.2975 200.376,13.6309 199.5,13.5 Z"/></g>
<g><path style="opacity:1" fill="#1e76ac" d="M 217.5,6.5 C 219.54,8.17704 221.54,9.84371 223.5,11.5C 221.862,12.9136 220.528,12.5803 219.5,10.5C 215.583,11.6305 212.25,13.6305 209.5,16.5C 202,23.1648 194.333,29.6648 186.5,36C 187.056,36.3826 187.389,36.8826 187.5,37.5C 185.801,37.6602 184.134,37.4935 182.5,37C 182.833,36.6667 183.167,36.3333 183.5,36C 182.584,35.7216 181.918,35.2216 181.5,34.5C 182.922,34.2914 184.255,33.7914 185.5,33C 192.206,26.6256 199.206,20.6256 206.5,15C 198.204,17.4306 189.871,20.0973 181.5,23C 176.433,24.5778 171.766,26.7445 167.5,29.5C 165.81,29.1436 164.81,28.1436 164.5,26.5C 176.037,21.9854 187.704,17.6521 199.5,13.5C 200.376,13.6309 201.043,13.2975 201.5,12.5C 174.67,11.1707 148.003,11.1707 121.5,12.5C 119.5,12.5 117.5,12.5 115.5,12.5C 116.687,11.4664 117.52,10.133 118,8.5C 118.249,9.62402 118.749,10.624 119.5,11.5C 145.791,10.6755 172.124,10.1755 198.5,10C 197.376,9.75083 196.376,9.25083 195.5,8.5C 172.841,7.33355 150.174,7.16688 127.5,8C 127.833,8.33333 128.167,8.66667 128.5,9C 127.667,9.16667 126.833,9.33333 126,9.5C 120.964,7.87955 115.798,7.21288 110.5,7.5C 145.427,6.50054 181.094,6.16721 217.5,6.5 Z"/></g>
<g><path style="opacity:1" fill="#f4fafa" d="M 122.5,13.5 C 148.167,12.1667 173.833,12.1667 199.5,13.5C 187.704,17.6521 176.037,21.9854 164.5,26.5C 163.417,26.5394 162.417,26.8728 161.5,27.5C 148.476,22.8261 135.476,18.1594 122.5,13.5 Z"/></g>
<g><path style="opacity:1" fill="#eef7f7" d="M 181.5,34.5 C 176.677,33.2259 172.01,31.5592 167.5,29.5C 171.766,26.7445 176.433,24.5778 181.5,23C 189.871,20.0973 198.204,17.4306 206.5,15C 199.206,20.6256 192.206,26.6256 185.5,33C 184.255,33.7914 182.922,34.2914 181.5,34.5 Z"/></g>
<g><path style="opacity:1" fill="#cfe6f0" d="M 108.5,23.5 C 108.894,30.0882 109.894,36.5882 111.5,43C 111.576,45.7561 110.243,46.9228 107.5,46.5C 107.915,44.2532 108.582,42.0865 109.5,40C 108.784,37.2077 108.451,34.3743 108.5,31.5C 107.167,31.5 105.833,31.5 104.5,31.5C 104.513,27.5931 105.347,23.9264 107,20.5C 107.232,21.7375 107.732,22.7375 108.5,23.5 Z"/></g>
<g><path style="opacity:1" fill="#eaf6f7" d="M 115.5,18.5 C 122.192,24.1961 128.858,29.8627 135.5,35.5C 133.211,37.3873 130.545,38.7206 127.5,39.5C 122.717,33.3045 118.383,26.6378 114.5,19.5C 114.624,18.8933 114.957,18.56 115.5,18.5 Z"/></g>
<g><path style="opacity:1" fill="#1e5185" d="M 108.5,12.5 C 107.325,16.15 107.325,19.8166 108.5,23.5C 107.732,22.7375 107.232,21.7375 107,20.5C 105.347,23.9264 104.513,27.5931 104.5,31.5C 103.507,36.7161 102.507,42.0494 101.5,47.5C 100.326,46.4863 99.6596,45.153 99.5,43.5C 100.283,36.1348 101.283,28.8014 102.5,21.5C 103.23,17.7198 105.23,14.7198 108.5,12.5 Z"/></g>
<g><path style="opacity:1" fill="#eaf5f6" d="M 209.5,16.5 C 209.5,17.1667 209.5,17.8333 209.5,18.5C 205.023,24.7716 201.023,31.4383 197.5,38.5C 196.667,38.8333 195.833,39.1667 195,39.5C 192.528,38.6781 190.028,38.0114 187.5,37.5C 187.389,36.8826 187.056,36.3826 186.5,36C 194.333,29.6648 202,23.1648 209.5,16.5 Z"/></g>
<g><path style="opacity:1" fill="#4d9cc7" d="M 111.5,13.5 C 112.484,15.4799 113.817,17.1466 115.5,18.5C 114.957,18.56 114.624,18.8933 114.5,19.5C 118.383,26.6378 122.717,33.3045 127.5,39.5C 127.389,40.1174 127.056,40.6174 126.5,41C 127.793,41.49 129.127,41.6567 130.5,41.5C 129.909,42.1515 129.243,42.8182 128.5,43.5C 133.024,51.9006 138.024,59.9006 143.5,67.5C 143.285,69.1788 143.952,70.1788 145.5,70.5C 145.586,72.677 146.253,74.677 147.5,76.5C 156.475,77.4982 165.475,77.8315 174.5,77.5C 166.01,78.3296 157.343,78.8296 148.5,79C 148.833,79.3333 149.167,79.6667 149.5,80C 163.339,80.1689 177.006,80.6689 190.5,81.5C 171.167,81.5 151.833,81.5 132.5,81.5C 136.647,80.6753 140.981,80.1753 145.5,80C 142.834,78.9395 140.167,78.1061 137.5,77.5C 139.604,77.7989 141.604,77.4656 143.5,76.5C 143.145,75.4777 142.478,74.811 141.5,74.5C 142.491,72.8773 141.824,71.8773 139.5,71.5C 135.812,62.4579 131.312,53.7912 126,45.5C 125.329,44.7476 124.496,44.4142 123.5,44.5C 122.486,43.3263 121.153,42.6596 119.5,42.5C 120.398,41.8423 121.398,41.1757 122.5,40.5C 118.783,32.9609 114.783,26.2942 110.5,20.5C 110.167,20.5 109.833,20.5 109.5,20.5C 109.336,17.8127 109.503,15.146 110,12.5C 110.383,13.056 110.883,13.3893 111.5,13.5 Z"/></g>
<g><path style="opacity:1" fill="#1e5e96" d="M 223.5,11.5 C 249.151,32.487 274.485,53.8204 299.5,75.5C 299.67,76.8221 299.337,77.9887 298.5,79C 299.308,79.3076 299.975,79.8076 300.5,80.5C 299.749,82.9963 298.749,85.3296 297.5,87.5C 296.5,87.8333 295.833,88.5 295.5,89.5C 294.508,89.6716 293.842,89.3382 293.5,88.5C 293.5,88.1667 293.5,87.8333 293.5,87.5C 292.863,84.544 292.363,81.544 292,78.5C 291.495,80.5183 290.995,82.5183 290.5,84.5C 282.259,87.1322 274.259,90.1322 266.5,93.5C 265.5,93.8333 264.833,94.5 264.5,95.5C 263.735,95.0766 262.902,94.7432 262,94.5C 252.614,97.8999 243.447,101.567 234.5,105.5C 232.901,105.232 231.568,105.566 230.5,106.5C 228.973,106.427 227.973,107.094 227.5,108.5C 226.791,109.404 225.791,109.737 224.5,109.5C 223.5,108.833 222.5,108.167 221.5,107.5C 221.557,106.391 221.89,105.391 222.5,104.5C 223.15,104.804 223.817,105.137 224.5,105.5C 226.444,104.199 228.444,103.199 230.5,102.5C 231.391,101.89 232.391,101.557 233.5,101.5C 242.848,98.1054 252.181,94.6054 261.5,91C 259.85,87.5155 257.85,84.3488 255.5,81.5C 246.295,80.2081 236.962,80.2081 227.5,81.5C 220.655,80.8334 213.655,80.1667 206.5,79.5C 213.321,78.8333 219.988,78.1666 226.5,77.5C 227.5,77.5 228.5,77.5 229.5,77.5C 237.5,77.5 245.5,77.5 253.5,77.5C 254.791,77.7373 255.791,77.404 256.5,76.5C 257.167,76.5 257.5,76.8333 257.5,77.5C 268.007,78.8235 278.674,78.8235 289.5,77.5C 289.043,76.7025 288.376,76.3691 287.5,76.5C 286.829,75.1529 286.829,73.9862 287.5,73C 286.627,71.955 285.627,71.1217 284.5,70.5C 264.833,54.1667 245.167,37.8333 225.5,21.5C 225.217,20.7109 224.717,20.0442 224,19.5C 223.79,21.0581 223.29,22.3915 222.5,23.5C 222.167,22.8333 221.833,22.1667 221.5,21.5C 218.975,13.4775 216.975,13.1442 215.5,20.5C 214.169,28.1574 212.835,35.824 211.5,43.5C 210.414,43.62 209.747,44.2867 209.5,45.5C 209.787,47.4433 210.787,48.7767 212.5,49.5C 211.25,49.5774 210.417,50.244 210,51.5C 208.377,59.1102 207.211,66.7769 206.5,74.5C 205.549,75.9187 205.216,77.5853 205.5,79.5C 203.821,79.7148 202.821,79.0481 202.5,77.5C 204.353,67.5285 206.02,57.5285 207.5,47.5C 208.434,46.4324 208.768,45.099 208.5,43.5C 209.637,36.3135 210.97,29.1469 212.5,22C 212.472,20.9302 212.139,20.0968 211.5,19.5C 212.231,16.9686 211.731,16.9686 210,19.5C 209.601,19.2716 209.435,18.9382 209.5,18.5C 209.5,17.8333 209.5,17.1667 209.5,16.5C 212.25,13.6305 215.583,11.6305 219.5,10.5C 220.528,12.5803 221.862,12.9136 223.5,11.5 Z"/></g>
<g><path style="opacity:1" fill="#e3f4f8" d="M 215.5,20.5 C 218.096,28.8923 220.096,37.5589 221.5,46.5C 221.457,47.4164 221.124,48.0831 220.5,48.5C 217.689,48.1743 215.022,47.3409 212.5,46C 211.748,45.3292 211.414,44.4959 211.5,43.5C 212.835,35.824 214.169,28.1574 215.5,20.5 Z"/></g>
<g><path style="opacity:1" fill="#eff6f6" d="M 221.5,21.5 C 221.833,22.1667 222.167,22.8333 222.5,23.5C 228.806,34.1494 235.139,44.8161 241.5,55.5C 241.167,55.8333 240.833,56.1667 240.5,56.5C 234.865,54.5234 229.532,52.1901 224.5,49.5C 223.815,40.7405 222.482,32.0739 220.5,23.5C 220.543,22.5836 220.876,21.9169 221.5,21.5 Z"/></g>
<g><path style="opacity:1" fill="#409dca" d="M 221.5,21.5 C 220.876,21.9169 220.543,22.5836 220.5,23.5C 222.482,32.0739 223.815,40.7405 224.5,49.5C 222.901,49.7678 221.568,49.4345 220.5,48.5C 221.124,48.0831 221.457,47.4164 221.5,46.5C 220.096,37.5589 218.096,28.8923 215.5,20.5C 216.975,13.1442 218.975,13.4775 221.5,21.5 Z"/></g>
<g><path style="opacity:1" fill="#e9f5f6" d="M 211.5,19.5 C 212.139,20.0968 212.472,20.9302 212.5,22C 210.97,29.1469 209.637,36.3135 208.5,43.5C 205.15,43.4944 202.15,42.4944 199.5,40.5C 203.765,33.6354 207.765,26.6354 211.5,19.5 Z"/></g>
<g><path style="opacity:1" fill="#eef9f8" d="M 119.5,42.5 C 117.883,43.038 116.216,43.3713 114.5,43.5C 113.166,35.8322 111.833,28.1656 110.5,20.5C 114.783,26.2942 118.783,32.9609 122.5,40.5C 121.398,41.1757 120.398,41.8423 119.5,42.5 Z"/></g>
<g><path style="opacity:1" fill="#eef4f5" d="M 104.5,31.5 C 105.833,31.5 107.167,31.5 108.5,31.5C 108.451,34.3743 108.784,37.2077 109.5,40C 108.582,42.0865 107.915,44.2532 107.5,46.5C 105.598,48.1511 103.598,48.4845 101.5,47.5C 102.507,42.0494 103.507,36.7161 104.5,31.5 Z"/></g>
<g><path style="opacity:1" fill="#327bad" d="M 135.5,35.5 C 136.955,37.1343 138.622,38.4676 140.5,39.5C 137.027,39.5758 133.694,40.2424 130.5,41.5C 129.127,41.6567 127.793,41.49 126.5,41C 127.056,40.6174 127.389,40.1174 127.5,39.5C 130.545,38.7206 133.211,37.3873 135.5,35.5 Z"/></g>
<g><path style="opacity:1" fill="#eff8f9" d="M 102.5,21.5 C 101.283,28.8014 100.283,36.1348 99.5,43.5C 98.596,44.209 98.2627,45.209 98.5,46.5C 98.7678,48.099 98.4345,49.4324 97.5,50.5C 92.7171,51.8617 88.0504,53.5284 83.5,55.5C 82.9569,55.44 82.6236,55.1067 82.5,54.5C 87.8452,45.1393 93.1785,35.806 98.5,26.5C 99.5118,23.8828 100.845,22.2161 102.5,21.5 Z"/></g>
<g><path style="opacity:1" fill="#f5fafa" d="M 123.5,44.5 C 124.496,44.4142 125.329,44.7476 126,45.5C 131.312,53.7912 135.812,62.4579 139.5,71.5C 137.197,73.3247 134.864,75.1581 132.5,77C 128.459,77.8265 124.459,77.6599 120.5,76.5C 118.642,67.3755 116.975,58.2088 115.5,49C 117.384,46.2993 120.051,44.7993 123.5,44.5 Z"/></g>
<g><path style="opacity:1" fill="#f5faf9" d="M 140.5,39.5 C 146.797,44.4621 152.797,49.7954 158.5,55.5C 153.5,59.5 148.5,63.5 143.5,67.5C 138.024,59.9006 133.024,51.9006 128.5,43.5C 129.243,42.8182 129.909,42.1515 130.5,41.5C 133.694,40.2424 137.027,39.5758 140.5,39.5 Z"/></g>
<g><path style="opacity:1" fill="#f1f7f8" d="M 225.5,21.5 C 245.167,37.8333 264.833,54.1667 284.5,70.5C 283.399,71.5983 282.066,71.765 280.5,71C 269.089,66.863 257.755,62.5296 246.5,58C 239.097,46.0233 232.097,33.8567 225.5,21.5 Z"/></g>
<g><path style="opacity:1" fill="#f6faf9" d="M 207.5,47.5 C 206.02,57.5285 204.353,67.5285 202.5,77.5C 198.833,77.5 195.167,77.5 191.5,77.5C 188.252,75.5967 185.252,73.2634 182.5,70.5C 187.374,61.9177 192.374,53.4177 197.5,45C 201.019,44.9165 204.353,45.7499 207.5,47.5 Z"/></g>
<g><path style="opacity:1" fill="#3b98c5" d="M 222.5,53.5 C 224.099,53.2322 225.432,53.5655 226.5,54.5C 227.136,62.2231 228.136,69.8898 229.5,77.5C 228.5,77.5 227.5,77.5 226.5,77.5C 225.259,69.4824 223.926,61.4824 222.5,53.5 Z"/></g>
<g><path style="opacity:1" fill="#f7fbfa" d="M 116.5,75.5 C 110.25,77.4589 103.584,78.1255 96.5,77.5C 97.5887,69.1219 98.9221,60.7886 100.5,52.5C 104.381,51.0966 108.381,50.0966 112.5,49.5C 114.22,58.1033 115.554,66.7699 116.5,75.5 Z"/></g>
<g><path style="opacity:1" fill="#3580ad" d="M 97.5,50.5 C 97.7947,52.7354 97.4614,54.7354 96.5,56.5C 96.631,55.7611 96.4643,55.0944 96,54.5C 90.4211,57.1931 84.5878,59.1931 78.5,60.5C 79.548,58.1453 81.2146,56.4787 83.5,55.5C 88.0504,53.5284 92.7171,51.8617 97.5,50.5 Z"/></g>
<g><path style="opacity:1" fill="#4ea7d6" d="M 217.5,6.5 C 181.094,6.16721 145.427,6.50054 110.5,7.5C 110.608,9.5138 109.942,11.1805 108.5,12.5C 105.23,14.7198 103.23,17.7198 102.5,21.5C 100.845,22.2161 99.5118,23.8828 98.5,26.5C 97.7417,24.0185 97.7417,21.3519 98.5,18.5C 97.5,18.5 96.5,18.5 95.5,18.5C 95.5,19.5 95.5,20.5 95.5,21.5C 94.5,21.5 93.5,21.5 92.5,21.5C 92.5,22.5 92.5,23.5 92.5,24.5C 74.6922,40.1351 56.6922,55.6351 38.5,71C 38.7284,71.3988 39.0618,71.5654 39.5,71.5C 35.2949,73.3638 31.6283,76.0304 28.5,79.5C 27.475,79.8966 27.3083,80.5632 28,81.5C 30.0129,83.2482 32.1795,84.5815 34.5,85.5C 34.0618,85.4346 33.7284,85.6012 33.5,86C 35.0632,87.736 36.7299,89.236 38.5,90.5C 37.3684,91.3543 36.035,91.3543 34.5,90.5C 33.2058,89.7101 32.0391,88.7101 31,87.5C 30.5357,88.0944 30.369,88.7611 30.5,89.5C 29.4608,87.0987 28.1274,84.7654 26.5,82.5C 25.5793,84.7765 24.9126,87.1099 24.5,89.5C 24.5,91.8333 24.5,94.1667 24.5,96.5C 22.2548,105.324 20.0881,114.324 18,123.5C 16.9502,128.448 16.4502,133.448 16.5,138.5C 14.2622,147.345 12.2622,156.345 10.5,165.5C 9.73209,164.737 9.23209,163.737 9,162.5C 7.22801,163.99 7.06134,165.657 8.5,167.5C 4.85623,169.649 4.52289,172.316 7.5,175.5C 8.33113,173.527 8.49779,171.527 8,169.5C 9.60165,171.646 10.7683,173.98 11.5,176.5C 11.5,177.167 11.8333,177.5 12.5,177.5C 10.7484,179.246 9.41511,181.246 8.5,183.5C 7.86893,185.934 6.86893,188.268 5.5,190.5C 4.5,190.5 3.5,190.5 2.5,190.5C 1.19138,189.376 0.524716,187.876 0.5,186C 6.88578,149.744 13.3858,113.578 20,77.5C 48.4601,54.0421 76.6267,30.2088 104.5,6C 142.336,5.16888 180.002,5.33555 217.5,6.5 Z"/></g>
<g><path style="opacity:1" fill="#f2fafa" d="M 70.5,60.5 C 59.9946,63.7088 49.6613,67.3755 39.5,71.5C 39.0618,71.5654 38.7284,71.3988 38.5,71C 56.6922,55.6351 74.6922,40.1351 92.5,24.5C 94.0174,24.4894 95.1841,23.8228 96,22.5C 96.1667,22.8333 96.3333,23.1667 96.5,23.5C 89.3911,34.4524 82.8911,45.7857 77,57.5C 74.706,58.4217 72.5394,59.4217 70.5,60.5 Z"/></g>
<g><path style="opacity:1" fill="#23588b" d="M 225.5,21.5 C 232.097,33.8567 239.097,46.0233 246.5,58C 257.755,62.5296 269.089,66.863 280.5,71C 282.066,71.765 283.399,71.5983 284.5,70.5C 285.627,71.1217 286.627,71.955 287.5,73C 286.829,73.9862 286.829,75.1529 287.5,76.5C 275.365,72.566 263.365,68.2327 251.5,63.5C 250.833,63.6667 250.167,63.8333 249.5,64C 251.719,68.2747 254.052,72.4414 256.5,76.5C 255.791,77.404 254.791,77.7373 253.5,77.5C 250.498,72.162 247.498,66.8287 244.5,61.5C 238.483,59.1561 232.483,56.8228 226.5,54.5C 225.432,53.5655 224.099,53.2322 222.5,53.5C 219.46,51.6541 216.127,50.3208 212.5,49.5C 210.787,48.7767 209.787,47.4433 209.5,45.5C 209.747,44.2867 210.414,43.62 211.5,43.5C 211.414,44.4959 211.748,45.3292 212.5,46C 215.022,47.3409 217.689,48.1743 220.5,48.5C 221.568,49.4345 222.901,49.7678 224.5,49.5C 229.532,52.1901 234.865,54.5234 240.5,56.5C 240.833,56.1667 241.167,55.8333 241.5,55.5C 235.139,44.8161 228.806,34.1494 222.5,23.5C 223.29,22.3915 223.79,21.0581 224,19.5C 224.717,20.0442 225.217,20.7109 225.5,21.5 Z"/></g>
<g><path style="opacity:1" fill="#2779ad" d="M 158.5,55.5 C 160.027,55.427 161.027,56.0937 161.5,57.5C 155.8,61.3543 150.467,65.6876 145.5,70.5C 143.952,70.1788 143.285,69.1788 143.5,67.5C 148.5,63.5 153.5,59.5 158.5,55.5 Z"/></g>
<g><path style="opacity:1" fill="#f6fbfa" d="M 161.5,57.5 C 166.794,61.6223 171.96,65.9556 177,70.5C 176.925,73.0851 176.092,75.4185 174.5,77.5C 165.475,77.8315 156.475,77.4982 147.5,76.5C 146.253,74.677 145.586,72.677 145.5,70.5C 150.467,65.6876 155.8,61.3543 161.5,57.5 Z"/></g>
<g><path style="opacity:1" fill="#f7fbf9" d="M 96.5,56.5 C 95.3369,63.4831 94.3369,70.4831 93.5,77.5C 85.4723,77.831 77.4723,77.4977 69.5,76.5C 73.0166,71.4679 76.0166,66.1345 78.5,60.5C 84.5878,59.1931 90.4211,57.1931 96,54.5C 96.4643,55.0944 96.631,55.7611 96.5,56.5 Z"/></g>
<g><path style="opacity:1" fill="#f6fbfa" d="M 226.5,54.5 C 232.483,56.8228 238.483,59.1561 244.5,61.5C 247.498,66.8287 250.498,72.162 253.5,77.5C 245.5,77.5 237.5,77.5 229.5,77.5C 228.136,69.8898 227.136,62.2231 226.5,54.5 Z"/></g>
<g><path style="opacity:1" fill="#f1f8f9" d="M 287.5,76.5 C 277.681,77.494 267.681,77.8274 257.5,77.5C 257.5,76.8333 257.167,76.5 256.5,76.5C 254.052,72.4414 251.719,68.2747 249.5,64C 250.167,63.8333 250.833,63.6667 251.5,63.5C 263.365,68.2327 275.365,72.566 287.5,76.5 Z"/></g>
<g><path style="opacity:1" fill="#2a79a9" d="M 70.5,60.5 C 73.7155,61.1687 74.0489,62.1687 71.5,63.5C 59.0802,67.6396 46.7469,71.973 34.5,76.5C 33.6618,76.8417 33.3284,77.5084 33.5,78.5C 31.7839,78.6287 30.1172,78.962 28.5,79.5C 31.6283,76.0304 35.2949,73.3638 39.5,71.5C 49.6613,67.3755 59.9946,63.7088 70.5,60.5 Z"/></g>
<g><path style="opacity:1" fill="#f2faf9" d="M 71.5,63.5 C 72.5735,64.2506 72.7401,65.2506 72,66.5C 70.0608,69.9475 67.8942,73.2808 65.5,76.5C 55.0075,77.8232 44.6742,77.8232 34.5,76.5C 46.7469,71.973 59.0802,67.6396 71.5,63.5 Z"/></g>
<g><path style="opacity:1" fill="#f6fcfa" d="M 212.5,49.5 C 216.127,50.3208 219.46,51.6541 222.5,53.5C 223.926,61.4824 225.259,69.4824 226.5,77.5C 219.833,77.5 213.167,77.5 206.5,77.5C 206.5,76.5 206.5,75.5 206.5,74.5C 207.211,66.7769 208.377,59.1102 210,51.5C 210.417,50.244 211.25,49.5774 212.5,49.5 Z"/></g>
<g><path style="opacity:1" fill="#e5f5fa" d="M 141.5,74.5 C 142.478,74.811 143.145,75.4777 143.5,76.5C 141.604,77.4656 139.604,77.7989 137.5,77.5C 138.436,76.0256 139.77,75.0256 141.5,74.5 Z"/></g>
<g><path style="opacity:1" fill="#5e8fb4" d="M 116.5,75.5 C 117.404,76.209 117.737,77.209 117.5,78.5C 110.313,78.8245 103.313,78.4912 96.5,77.5C 103.584,78.1255 110.25,77.4589 116.5,75.5 Z"/></g>
<g><path style="opacity:1" fill="#5b8eb5" d="M 287.5,76.5 C 288.376,76.3691 289.043,76.7025 289.5,77.5C 278.674,78.8235 268.007,78.8235 257.5,77.5C 267.681,77.8274 277.681,77.494 287.5,76.5 Z"/></g>
<g><path style="opacity:1" fill="#256aa0" d="M 109.5,20.5 C 109.833,20.5 110.167,20.5 110.5,20.5C 111.833,28.1656 113.166,35.8322 114.5,43.5C 116.216,43.3713 117.883,43.038 119.5,42.5C 121.153,42.6596 122.486,43.3263 123.5,44.5C 120.051,44.7993 117.384,46.2993 115.5,49C 116.975,58.2088 118.642,67.3755 120.5,76.5C 124.459,77.6599 128.459,77.8265 132.5,77C 134.864,75.1581 137.197,73.3247 139.5,71.5C 141.824,71.8773 142.491,72.8773 141.5,74.5C 139.77,75.0256 138.436,76.0256 137.5,77.5C 140.167,78.1061 142.834,78.9395 145.5,80C 140.981,80.1753 136.647,80.6753 132.5,81.5C 131.833,81.8333 131.167,82.1667 130.5,82.5C 127.418,80.819 124.085,80.1524 120.5,80.5C 120.263,81.791 120.596,82.791 121.5,83.5C 121.5,84.1667 121.5,84.8333 121.5,85.5C 120.732,86.2625 120.232,87.2625 120,88.5C 119.768,87.2625 119.268,86.2625 118.5,85.5C 118.5,83.8333 118.5,82.1667 118.5,80.5C 117.5,80.5 116.5,80.5 115.5,80.5C 116.167,79.8333 116.833,79.1667 117.5,78.5C 117.737,77.209 117.404,76.209 116.5,75.5C 115.554,66.7699 114.22,58.1033 112.5,49.5C 108.381,50.0966 104.381,51.0966 100.5,52.5C 100.125,50.3024 99.4582,48.3024 98.5,46.5C 98.2627,45.209 98.596,44.209 99.5,43.5C 99.6596,45.153 100.326,46.4863 101.5,47.5C 103.598,48.4845 105.598,48.1511 107.5,46.5C 110.243,46.9228 111.576,45.7561 111.5,43C 109.894,36.5882 108.894,30.0882 108.5,23.5C 109.404,22.791 109.737,21.791 109.5,20.5 Z"/></g>
<g><path style="opacity:1" fill="#154e87" d="M 98.5,46.5 C 99.4582,48.3024 100.125,50.3024 100.5,52.5C 98.9221,60.7886 97.5887,69.1219 96.5,77.5C 103.313,78.4912 110.313,78.8245 117.5,78.5C 116.833,79.1667 116.167,79.8333 115.5,80.5C 108.646,80.176 101.979,80.5093 95.5,81.5C 94.5,81.5 93.5,81.5 92.5,81.5C 84.3434,80.6706 76.0101,80.1706 67.5,80C 76.1811,78.8619 84.8477,78.0285 93.5,77.5C 94.3369,70.4831 95.3369,63.4831 96.5,56.5C 97.4614,54.7354 97.7947,52.7354 97.5,50.5C 98.4345,49.4324 98.7678,48.099 98.5,46.5 Z"/></g>
<g><path style="opacity:1" fill="#80acd1" d="M 95.5,81.5 C 101.979,80.5093 108.646,80.176 115.5,80.5C 116.5,80.5 117.5,80.5 118.5,80.5C 118.5,82.1667 118.5,83.8333 118.5,85.5C 117.566,84.4324 117.232,83.099 117.5,81.5C 110.167,81.5 102.833,81.5 95.5,81.5 Z"/></g>
<g><path style="opacity:1" fill="#215486" d="M 115.5,12.5 C 117.5,12.5 119.5,12.5 121.5,12.5C 121.5,13.1667 121.833,13.5 122.5,13.5C 135.476,18.1594 148.476,22.8261 161.5,27.5C 162.417,26.8728 163.417,26.5394 164.5,26.5C 164.81,28.1436 165.81,29.1436 167.5,29.5C 172.01,31.5592 176.677,33.2259 181.5,34.5C 181.918,35.2216 182.584,35.7216 183.5,36C 183.167,36.3333 182.833,36.6667 182.5,37C 184.134,37.4935 185.801,37.6602 187.5,37.5C 190.028,38.0114 192.528,38.6781 195,39.5C 195.833,39.1667 196.667,38.8333 197.5,38.5C 201.023,31.4383 205.023,24.7716 209.5,18.5C 209.435,18.9382 209.601,19.2716 210,19.5C 211.731,16.9686 212.231,16.9686 211.5,19.5C 207.765,26.6354 203.765,33.6354 199.5,40.5C 202.15,42.4944 205.15,43.4944 208.5,43.5C 208.768,45.099 208.434,46.4324 207.5,47.5C 204.353,45.7499 201.019,44.9165 197.5,45C 192.374,53.4177 187.374,61.9177 182.5,70.5C 185.252,73.2634 188.252,75.5967 191.5,77.5C 194.305,78.3195 197.305,78.8195 200.5,79C 199.584,79.2784 198.918,79.7784 198.5,80.5C 197.325,80.281 196.325,80.6143 195.5,81.5C 197.186,82.8569 198.852,84.1902 200.5,85.5C 201.348,86.625 202.348,86.625 203.5,85.5C 203.351,86.552 203.517,87.552 204,88.5C 210.064,94.0719 216.231,99.4052 222.5,104.5C 221.89,105.391 221.557,106.391 221.5,107.5C 211.167,98.8333 200.833,90.1667 190.5,81.5C 177.006,80.6689 163.339,80.1689 149.5,80C 149.167,79.6667 148.833,79.3333 148.5,79C 157.343,78.8296 166.01,78.3296 174.5,77.5C 176.092,75.4185 176.925,73.0851 177,70.5C 171.96,65.9556 166.794,61.6223 161.5,57.5C 161.027,56.0937 160.027,55.427 158.5,55.5C 152.797,49.7954 146.797,44.4621 140.5,39.5C 138.622,38.4676 136.955,37.1343 135.5,35.5C 128.858,29.8627 122.192,24.1961 115.5,18.5C 113.817,17.1466 112.484,15.4799 111.5,13.5C 112.568,12.5655 113.901,12.2322 115.5,12.5 Z"/></g>
<g><path style="opacity:1" fill="#ddf2f3" d="M 180.5,73.5 C 185.793,76.648 185.127,77.8147 178.5,77C 179.305,75.8873 179.972,74.7206 180.5,73.5 Z"/></g>
<g><path style="opacity:1" fill="#3078aa" d="M 184.5,39.5 C 183.448,39.3505 182.448,39.5172 181.5,40C 175.638,45.0325 169.971,50.1992 164.5,55.5C 163.094,55.0269 162.427,54.0269 162.5,52.5C 167.87,47.1281 173.537,42.1281 179.5,37.5C 180.117,37.3893 180.617,37.056 181,36.5C 181.985,37.8141 183.152,38.8141 184.5,39.5 Z"/></g>
<g><path style="opacity:1" fill="#f4faf8" d="M 184.5,39.5 C 188.082,40.2488 191.416,41.5821 194.5,43.5C 189.959,51.416 185.293,59.2493 180.5,67C 179.5,67.6667 178.5,67.6667 177.5,67C 173.511,62.6889 169.177,58.8555 164.5,55.5C 169.971,50.1992 175.638,45.0325 181.5,40C 182.448,39.5172 183.448,39.3505 184.5,39.5 Z"/></g>
<g><path style="opacity:1" fill="#f2f8f8" d="M 179.5,37.5 C 173.537,42.1281 167.87,47.1281 162.5,52.5C 155.299,48.6361 148.966,43.6361 143.5,37.5C 148.177,35.4942 152.843,33.4942 157.5,31.5C 158.695,31.3225 159.862,30.9891 161,30.5C 167.16,33.1599 173.327,35.4932 179.5,37.5 Z"/></g>
<g><path style="opacity:1" fill="#2d7bae" d="M 153.5,27.5 C 155.199,27.3398 156.866,27.5065 158.5,28C 156.689,29.0407 156.355,30.2073 157.5,31.5C 152.843,33.4942 148.177,35.4942 143.5,37.5C 142.128,36.4884 140.795,35.4884 139.5,34.5C 144.874,33.0041 150.207,31.1707 155.5,29C 154.584,28.7216 153.918,28.2216 153.5,27.5 Z"/></g>
<g><path style="opacity:1" fill="#edf6f7" d="M 153.5,27.5 C 153.918,28.2216 154.584,28.7216 155.5,29C 150.207,31.1707 144.874,33.0041 139.5,34.5C 131.864,28.0079 124.198,21.5079 116.5,15C 128.67,19.2187 141.003,23.3853 153.5,27.5 Z"/></g>
<g><path style="opacity:1" fill="#4a7eac" d="M 206.5,74.5 C 206.5,75.5 206.5,76.5 206.5,77.5C 213.167,77.5 219.833,77.5 226.5,77.5C 219.988,78.1666 213.321,78.8333 206.5,79.5C 213.655,80.1667 220.655,80.8334 227.5,81.5C 219.833,81.5 212.167,81.5 204.5,81.5C 204.768,83.099 204.434,84.4324 203.5,85.5C 202.348,86.625 201.348,86.625 200.5,85.5C 201.451,84.0813 201.784,82.4147 201.5,80.5C 200.5,80.5 199.5,80.5 198.5,80.5C 198.918,79.7784 199.584,79.2784 200.5,79C 197.305,78.8195 194.305,78.3195 191.5,77.5C 195.167,77.5 198.833,77.5 202.5,77.5C 202.821,79.0481 203.821,79.7148 205.5,79.5C 205.216,77.5853 205.549,75.9187 206.5,74.5 Z"/></g>
<g><path style="opacity:1" fill="#80add2" d="M 286.5,82.5 C 277.833,81.1667 269.167,81.1667 260.5,82.5C 259.957,82.44 259.624,82.1067 259.5,81.5C 269.483,80.3344 279.483,80.1678 289.5,81C 288.756,82.0386 287.756,82.5386 286.5,82.5 Z"/></g>
<g><path style="opacity:1" fill="#d4eef6" d="M 121.5,85.5 C 121.5,84.8333 121.5,84.1667 121.5,83.5C 121.791,82.3509 122.624,81.6842 124,81.5C 124.833,81.6667 125.667,81.8333 126.5,82C 125.211,83.8022 123.544,84.9688 121.5,85.5 Z"/></g>
<g><path style="opacity:1" fill="#f7fbfa" d="M 91.5,83.5 C 90.873,89.0982 89.873,94.5982 88.5,100C 86.8333,100.667 85.1667,100.667 83.5,100C 76.5145,97.3942 69.5145,94.8942 62.5,92.5C 62.0534,88.6881 63.3867,85.3547 66.5,82.5C 70.6667,82.1667 74.8333,81.8333 79,81.5C 83.5572,81.5085 87.7238,82.1752 91.5,83.5 Z"/></g>
<g><path style="opacity:1" fill="#badbf0" d="M 198.5,80.5 C 199.5,80.5 200.5,80.5 201.5,80.5C 201.784,82.4147 201.451,84.0813 200.5,85.5C 198.852,84.1902 197.186,82.8569 195.5,81.5C 196.325,80.6143 197.325,80.281 198.5,80.5 Z"/></g>
<g><path style="opacity:1" fill="#f5faf9" d="M 227.5,81.5 C 228.392,88.5162 229.392,95.5162 230.5,102.5C 228.444,103.199 226.444,104.199 224.5,105.5C 223.817,105.137 223.15,104.804 222.5,104.5C 216.231,99.4052 210.064,94.0719 204,88.5C 203.517,87.552 203.351,86.552 203.5,85.5C 204.434,84.4324 204.768,83.099 204.5,81.5C 212.167,81.5 219.833,81.5 227.5,81.5 Z"/></g>
<g><path style="opacity:1" fill="#f6fbf9" d="M 255.5,81.5 C 257.85,84.3488 259.85,87.5155 261.5,91C 252.181,94.6054 242.848,98.1054 233.5,101.5C 232.964,94.8189 232.297,88.1522 231.5,81.5C 239.5,81.5 247.5,81.5 255.5,81.5 Z"/></g>
<g><path style="opacity:1" fill="#f0f8f8" d="M 286.5,82.5 C 279.334,84.7768 272.334,87.4435 265.5,90.5C 263.322,88.1416 261.655,85.4749 260.5,82.5C 269.167,81.1667 277.833,81.1667 286.5,82.5 Z"/></g>
<g><path style="opacity:1" fill="#1b4d7f" d="M 33.5,78.5 C 43.8387,78.3335 54.172,78.5002 64.5,79C 54.6426,80.1444 44.6426,80.9778 34.5,81.5C 34.6236,82.1067 34.9569,82.44 35.5,82.5C 42.4116,85.1237 49.4116,87.4571 56.5,89.5C 57.8146,90.8946 57.4812,91.8946 55.5,92.5C 48.4372,90.3679 41.4372,88.0346 34.5,85.5C 32.1795,84.5815 30.0129,83.2482 28,81.5C 27.3083,80.5632 27.475,79.8966 28.5,79.5C 30.1172,78.962 31.7839,78.6287 33.5,78.5 Z"/></g>
<g><path style="opacity:1" fill="#eef7f6" d="M 35.5,82.5 C 44.3238,81.3427 53.3238,81.176 62.5,82C 61.2062,84.087 60.0395,86.2537 59,88.5C 58.3292,89.2524 57.4959,89.5858 56.5,89.5C 49.4116,87.4571 42.4116,85.1237 35.5,82.5 Z"/></g>
<g><path style="opacity:1" fill="#2f7aac" d="M 130.5,82.5 C 121.422,91.2479 111.755,99.2479 101.5,106.5C 100.662,106.158 100.328,105.492 100.5,104.5C 105.982,99.1627 111.816,94.1627 118,89.5C 118.49,88.2068 118.657,86.8734 118.5,85.5C 119.268,86.2625 119.768,87.2625 120,88.5C 120.232,87.2625 120.732,86.2625 121.5,85.5C 123.544,84.9688 125.211,83.8022 126.5,82C 125.667,81.8333 124.833,81.6667 124,81.5C 122.624,81.6842 121.791,82.3509 121.5,83.5C 120.596,82.791 120.263,81.791 120.5,80.5C 124.085,80.1524 127.418,80.819 130.5,82.5 Z"/></g>
<g><path style="opacity:1" fill="#fbfdfc" d="M 132.5,81.5 C 151.833,81.5 171.167,81.5 190.5,81.5C 200.833,90.1667 211.167,98.8333 221.5,107.5C 222.5,108.167 223.5,108.833 224.5,109.5C 228.14,112.473 231.473,115.806 234.5,119.5C 234.624,124.049 235.291,128.382 236.5,132.5C 236.5,133.167 236.5,133.833 236.5,134.5C 237.766,143.027 239.433,151.361 241.5,159.5C 241.5,160.167 241.5,160.833 241.5,161.5C 241.547,164.969 242.213,168.302 243.5,171.5C 241.713,176.408 239.379,181.075 236.5,185.5C 235.89,186.391 235.557,187.391 235.5,188.5C 231.012,194.799 227.012,201.466 223.5,208.5C 222.094,208.973 221.427,209.973 221.5,211.5C 219.392,215.448 217.059,219.281 214.5,223C 210.688,224.993 206.688,226.493 202.5,227.5C 200.694,228.024 199.028,228.691 197.5,229.5C 185.719,234.207 173.719,238.54 161.5,242.5C 157.426,241.364 153.426,240.031 149.5,238.5C 148.391,238.443 147.391,238.11 146.5,237.5C 133.94,232.646 121.273,227.979 108.5,223.5C 99.7516,208.334 90.7516,193.334 81.5,178.5C 80.3852,176.693 79.7186,174.693 79.5,172.5C 82.4506,154.13 85.6173,135.796 89,117.5C 93.3602,113.968 97.5268,110.301 101.5,106.5C 111.755,99.2479 121.422,91.2479 130.5,82.5C 131.167,82.1667 131.833,81.8333 132.5,81.5 Z"/></g>
<g><path style="opacity:1" fill="#226da2" d="M 30.5,89.5 C 34.9299,97.3691 39.5966,105.036 44.5,112.5C 44.3404,114.153 43.6737,115.486 42.5,116.5C 37.3451,107.527 32.1785,98.5274 27,89.5C 26.6012,89.7284 26.4346,90.0618 26.5,90.5C 25.8333,90.1667 25.1667,89.8333 24.5,89.5C 24.9126,87.1099 25.5793,84.7765 26.5,82.5C 28.1274,84.7654 29.4608,87.0987 30.5,89.5 Z"/></g>
<g><path style="opacity:1" fill="#f5fafa" d="M 95.5,81.5 C 102.833,81.5 110.167,81.5 117.5,81.5C 117.232,83.099 117.566,84.4324 118.5,85.5C 118.657,86.8734 118.49,88.2068 118,89.5C 111.816,94.1627 105.982,99.1627 100.5,104.5C 97.0131,105.338 94.0131,104.338 91.5,101.5C 93.1532,94.8888 94.4865,88.2222 95.5,81.5 Z"/></g>
<g><path style="opacity:1" fill="#ebf6f6" d="M 34.5,85.5 C 41.4372,88.0346 48.4372,90.3679 55.5,92.5C 54.7263,95.3809 53.3929,98.0476 51.5,100.5C 47.148,97.1426 42.8147,93.8093 38.5,90.5C 36.7299,89.236 35.0632,87.736 33.5,86C 33.7284,85.6012 34.0618,85.4346 34.5,85.5 Z"/></g>
<g><path style="opacity:1" fill="#55a1cb" d="M 255.5,81.5 C 247.5,81.5 239.5,81.5 231.5,81.5C 232.297,88.1522 232.964,94.8189 233.5,101.5C 232.391,101.557 231.391,101.89 230.5,102.5C 229.392,95.5162 228.392,88.5162 227.5,81.5C 236.962,80.2081 246.295,80.2081 255.5,81.5 Z"/></g>
<g><path style="opacity:1" fill="#e8f3f6" d="M 290.5,84.5 C 284.797,90.5325 278.464,95.8658 271.5,100.5C 269.591,98.3512 267.924,96.0179 266.5,93.5C 274.259,90.1322 282.259,87.1322 290.5,84.5 Z"/></g>
<g><path style="opacity:1" fill="#1f5086" d="M 24.5,89.5 C 25.1667,89.8333 25.8333,90.1667 26.5,90.5C 29.0907,103.787 31.4241,117.12 33.5,130.5C 33.1077,132.179 32.6077,133.846 32,135.5C 31.7679,134.263 31.2679,133.263 30.5,132.5C 30.552,130.097 30.2186,127.764 29.5,125.5C 28.1107,115.773 26.4441,106.106 24.5,96.5C 24.5,94.1667 24.5,91.8333 24.5,89.5 Z"/></g>
<g><path style="opacity:1" fill="#f6faf9" d="M 61.5,95.5 C 69.886,98.2958 78.2193,101.296 86.5,104.5C 87.6556,108.712 87.3222,112.712 85.5,116.5C 83.1667,118.5 80.8333,120.5 78.5,122.5C 69.7937,116.969 61.7937,110.469 54.5,103C 55.7865,100.929 56.9532,98.7621 58,96.5C 59.0113,95.6634 60.1779,95.33 61.5,95.5 Z"/></g>
<g><path style="opacity:1" fill="#f4f9f9" d="M 264.5,95.5 C 265.82,98.1401 267.153,100.807 268.5,103.5C 261.313,109.855 253.98,116.021 246.5,122C 245.5,122.667 244.5,122.667 243.5,122C 240.527,119.706 237.86,117.206 235.5,114.5C 235.632,111.43 235.299,108.43 234.5,105.5C 243.447,101.567 252.614,97.8999 262,94.5C 262.902,94.7432 263.735,95.0766 264.5,95.5 Z"/></g>
<g><path style="opacity:1" fill="#ecf8f8" d="M 34.5,90.5 C 39.4797,95.1449 44.4797,99.8116 49.5,104.5C 47.8084,107.231 46.1417,109.898 44.5,112.5C 39.5966,105.036 34.9299,97.3691 30.5,89.5C 30.369,88.7611 30.5357,88.0944 31,87.5C 32.0391,88.7101 33.2058,89.7101 34.5,90.5 Z"/></g>
<g><path style="opacity:1" fill="#eff7f7" d="M 42.5,116.5 C 40.3118,121.688 37.3118,126.355 33.5,130.5C 31.4241,117.12 29.0907,103.787 26.5,90.5C 26.4346,90.0618 26.6012,89.7284 27,89.5C 32.1785,98.5274 37.3451,107.527 42.5,116.5 Z"/></g>
<g><path style="opacity:1" fill="#54a5cf" d="M 98.5,26.5 C 93.1785,35.806 87.8452,45.1393 82.5,54.5C 82.6236,55.1067 82.9569,55.44 83.5,55.5C 81.2146,56.4787 79.548,58.1453 78.5,60.5C 76.0166,66.1345 73.0166,71.4679 69.5,76.5C 77.4723,77.4977 85.4723,77.831 93.5,77.5C 84.8477,78.0285 76.1811,78.8619 67.5,80C 76.0101,80.1706 84.3434,80.6706 92.5,81.5C 92.6716,82.4916 92.3382,83.1583 91.5,83.5C 87.7238,82.1752 83.5572,81.5085 79,81.5C 74.8333,81.8333 70.6667,82.1667 66.5,82.5C 63.3867,85.3547 62.0534,88.6881 62.5,92.5C 59.2332,93.0311 58.8999,94.0311 61.5,95.5C 60.1779,95.33 59.0113,95.6634 58,96.5C 56.9532,98.7621 55.7865,100.929 54.5,103C 61.7937,110.469 69.7937,116.969 78.5,122.5C 78.8333,123.5 79.5,124.167 80.5,124.5C 81.0347,126.446 82.368,127.446 84.5,127.5C 83.9216,130.28 83.2549,132.947 82.5,135.5C 82.4997,131.825 80.833,129.159 77.5,127.5C 76.791,126.596 75.791,126.263 74.5,126.5C 74.1412,124.629 73.1412,123.129 71.5,122C 65.0215,117.023 58.6882,111.856 52.5,106.5C 49.2757,109.837 47.6091,113.837 47.5,118.5C 44.7386,117.65 44.0719,118.65 45.5,121.5C 44.5041,121.414 43.6708,121.748 43,122.5C 40.1428,127.555 37.3095,132.555 34.5,137.5C 33.4625,138.93 32.7959,140.597 32.5,142.5C 25.5,153.833 18.5,165.167 11.5,176.5C 10.7683,173.98 9.60165,171.646 8,169.5C 8.49779,171.527 8.33113,173.527 7.5,175.5C 4.52289,172.316 4.85623,169.649 8.5,167.5C 7.06134,165.657 7.22801,163.99 9,162.5C 9.23209,163.737 9.73209,164.737 10.5,165.5C 10.3379,167.527 10.5045,169.527 11,171.5C 17.0806,160.337 23.414,149.337 30,138.5C 30.4955,136.527 30.6621,134.527 30.5,132.5C 31.2679,133.263 31.7679,134.263 32,135.5C 32.6077,133.846 33.1077,132.179 33.5,130.5C 37.3118,126.355 40.3118,121.688 42.5,116.5C 43.6737,115.486 44.3404,114.153 44.5,112.5C 46.1417,109.898 47.8084,107.231 49.5,104.5C 44.4797,99.8116 39.4797,95.1449 34.5,90.5C 36.035,91.3543 37.3684,91.3543 38.5,90.5C 42.8147,93.8093 47.148,97.1426 51.5,100.5C 53.3929,98.0476 54.7263,95.3809 55.5,92.5C 57.4812,91.8946 57.8146,90.8946 56.5,89.5C 57.4959,89.5858 58.3292,89.2524 59,88.5C 60.0395,86.2537 61.2062,84.087 62.5,82C 53.3238,81.176 44.3238,81.3427 35.5,82.5C 34.9569,82.44 34.6236,82.1067 34.5,81.5C 44.6426,80.9778 54.6426,80.1444 64.5,79C 54.172,78.5002 43.8387,78.3335 33.5,78.5C 33.3284,77.5084 33.6618,76.8417 34.5,76.5C 44.6742,77.8232 55.0075,77.8232 65.5,76.5C 67.8942,73.2808 70.0608,69.9475 72,66.5C 72.7401,65.2506 72.5735,64.2506 71.5,63.5C 74.0489,62.1687 73.7155,61.1687 70.5,60.5C 72.5394,59.4217 74.706,58.4217 77,57.5C 82.8911,45.7857 89.3911,34.4524 96.5,23.5C 96.3333,23.1667 96.1667,22.8333 96,22.5C 95.1841,23.8228 94.0174,24.4894 92.5,24.5C 92.5,23.5 92.5,22.5 92.5,21.5C 93.5,21.5 94.5,21.5 95.5,21.5C 95.5,20.5 95.5,19.5 95.5,18.5C 96.5,18.5 97.5,18.5 98.5,18.5C 97.7417,21.3519 97.7417,24.0185 98.5,26.5 Z"/></g>
<g><path style="opacity:1" fill="#e2f3f7" d="M 24.5,96.5 C 26.4441,106.106 28.1107,115.773 29.5,125.5C 27.8022,121.06 26.4689,116.393 25.5,111.5C 24.6042,114.144 23.7709,116.81 23,119.5C 22.6667,118.167 22.3333,116.833 22,115.5C 21.6667,115.833 21.3333,116.167 21,116.5C 20.5499,120.188 20.7166,123.854 21.5,127.5C 20.5,127.5 19.5,127.5 18.5,127.5C 18.7489,131.458 18.0823,135.124 16.5,138.5C 16.4502,133.448 16.9502,128.448 18,123.5C 20.0881,114.324 22.2548,105.324 24.5,96.5 Z"/></g>
<g><path style="opacity:1" fill="#ccedf5" d="M 230.5,106.5 C 231.649,106.791 232.316,107.624 232.5,109C 232.472,110.07 232.139,110.903 231.5,111.5C 230.167,110.5 228.833,109.5 227.5,108.5C 227.973,107.094 228.973,106.427 230.5,106.5 Z"/></g>
<g><path style="opacity:1" fill="#3198ca" d="M 230.5,106.5 C 231.568,105.566 232.901,105.232 234.5,105.5C 235.299,108.43 235.632,111.43 235.5,114.5C 234.128,113.488 232.795,112.488 231.5,111.5C 232.139,110.903 232.472,110.07 232.5,109C 232.316,107.624 231.649,106.791 230.5,106.5 Z"/></g>
<g><path style="opacity:1" fill="#f7fbfa" d="M 29.5,125.5 C 30.2186,127.764 30.552,130.097 30.5,132.5C 30.6621,134.527 30.4955,136.527 30,138.5C 23.414,149.337 17.0806,160.337 11,171.5C 10.5045,169.527 10.3379,167.527 10.5,165.5C 12.2622,156.345 14.2622,147.345 16.5,138.5C 18.0823,135.124 18.7489,131.458 18.5,127.5C 19.5,127.5 20.5,127.5 21.5,127.5C 20.7166,123.854 20.5499,120.188 21,116.5C 21.3333,116.167 21.6667,115.833 22,115.5C 22.3333,116.833 22.6667,118.167 23,119.5C 23.7709,116.81 24.6042,114.144 25.5,111.5C 26.4689,116.393 27.8022,121.06 29.5,125.5 Z"/></g>
<g><path style="opacity:1" fill="#d3e7f1" d="M 139.5,117.5 C 146.2,118.342 152.867,118.342 159.5,117.5C 159.5,118.5 159.5,119.5 159.5,120.5C 162.518,120.335 165.518,120.502 168.5,121C 170.119,121.236 171.119,122.069 171.5,123.5C 160.669,121.697 150.002,119.697 139.5,117.5 Z"/></g>
<g><path style="opacity:1" fill="#2e75a5" d="M 85.5,116.5 C 86.1408,117.482 86.8075,118.482 87.5,119.5C 86.1376,121.427 85.1376,123.427 84.5,125.5C 84.6495,124.448 84.4828,123.448 84,122.5C 82.8873,123.305 81.7206,123.972 80.5,124.5C 79.5,124.167 78.8333,123.5 78.5,122.5C 80.8333,120.5 83.1667,118.5 85.5,116.5 Z"/></g>
<g><path style="opacity:1" fill="#2973a7" d="M 47.5,118.5 C 51.1101,125.434 55.1101,132.1 59.5,138.5C 63.983,133.771 68.983,129.771 74.5,126.5C 75.791,126.263 76.791,126.596 77.5,127.5C 71.6749,131.827 66.3416,136.66 61.5,142C 64.5567,148.627 68.2233,154.794 72.5,160.5C 72.8333,161.5 73.5,162.167 74.5,162.5C 74.3893,163.117 74.056,163.617 73.5,164C 74.2829,166.118 75.6162,167.618 77.5,168.5C 77.0825,169.222 76.4158,169.722 75.5,170C 76.1667,170.333 76.8333,170.667 77.5,171C 76.5842,171.278 75.9175,171.778 75.5,172.5C 74.1964,171.013 73.0298,169.346 72,167.5C 71.1841,166.177 70.0174,165.511 68.5,165.5C 68.9175,164.778 69.5842,164.278 70.5,164C 68.5273,163.505 66.5273,163.338 64.5,163.5C 65.209,162.596 66.209,162.263 67.5,162.5C 65.7381,155.644 62.4047,149.644 57.5,144.5C 51.4807,149.523 45.4807,154.523 39.5,159.5C 38.8333,158.167 38.1667,156.833 37.5,155.5C 44.1073,150.898 50.4407,145.898 56.5,140.5C 52.5691,134.303 48.9024,127.969 45.5,121.5C 44.0719,118.65 44.7386,117.65 47.5,118.5 Z"/></g>
<g><path style="opacity:1" fill="#f3f9f8" d="M 74.5,126.5 C 68.983,129.771 63.983,133.771 59.5,138.5C 55.1101,132.1 51.1101,125.434 47.5,118.5C 47.6091,113.837 49.2757,109.837 52.5,106.5C 58.6882,111.856 65.0215,117.023 71.5,122C 73.1412,123.129 74.1412,124.629 74.5,126.5 Z"/></g>
<g><path style="opacity:1" fill="#daf2f8" d="M 84.5,125.5 C 84.5,126.167 84.5,126.833 84.5,127.5C 82.368,127.446 81.0347,126.446 80.5,124.5C 81.7206,123.972 82.8873,123.305 84,122.5C 84.4828,123.448 84.6495,124.448 84.5,125.5 Z"/></g>
<g><path style="opacity:1" fill="#cee8f0" d="M 238.5,122.5 C 243.026,123.808 243.36,125.474 239.5,127.5C 238.549,126.081 238.216,124.415 238.5,122.5 Z"/></g>
<g><path style="opacity:1" fill="#4b9fca" d="M 234.5,119.5 C 236.404,119.738 237.738,120.738 238.5,122.5C 238.216,124.415 238.549,126.081 239.5,127.5C 237.721,128.67 236.721,130.336 236.5,132.5C 235.291,128.382 234.624,124.049 234.5,119.5 Z"/></g>
<g><path style="opacity:1" fill="#f4faf8" d="M 45.5,121.5 C 48.9024,127.969 52.5691,134.303 56.5,140.5C 50.4407,145.898 44.1073,150.898 37.5,155.5C 37.1304,149.365 36.1304,143.365 34.5,137.5C 37.3095,132.555 40.1428,127.555 43,122.5C 43.6708,121.748 44.5041,121.414 45.5,121.5 Z"/></g>
<g><path style="opacity:1" fill="#4899c4" d="M 239.5,132.5 C 241.373,140.74 242.707,149.074 243.5,157.5C 242.167,157.5 241.5,158.167 241.5,159.5C 239.433,151.361 237.766,143.027 236.5,134.5C 237.5,133.833 238.5,133.167 239.5,132.5 Z"/></g>
<g><path style="opacity:1" fill="#f5faf8" d="M 77.5,127.5 C 80.833,129.159 82.4997,131.825 82.5,135.5C 81.1718,142.786 80.0052,150.12 79,157.5C 76.7787,158.406 74.6121,159.406 72.5,160.5C 68.2233,154.794 64.5567,148.627 61.5,142C 66.3416,136.66 71.6749,131.827 77.5,127.5 Z"/></g>
<g><path style="opacity:1" fill="#f4faf9" d="M 261.5,140.5 C 258.736,147.768 254.903,154.435 250,160.5C 247.683,159.588 245.516,158.588 243.5,157.5C 242.707,149.074 241.373,140.74 239.5,132.5C 241.059,130.376 243.059,128.709 245.5,127.5C 250.852,131.857 256.186,136.19 261.5,140.5 Z"/></g>
<g><path style="opacity:1" fill="#1e5d95" d="M 139.5,117.5 C 150.002,119.697 160.669,121.697 171.5,123.5C 177.774,124.879 184.107,126.046 190.5,127C 196.708,133.376 203.041,139.542 209.5,145.5C 191.515,168.149 173.181,190.482 154.5,212.5C 140.908,179.723 127.908,146.723 115.5,113.5C 123.501,114.834 131.501,116.167 139.5,117.5 Z"/></g>
<g><path style="opacity:1" fill="#f5faf9" d="M 125.5,125.5 C 136.653,134.253 147.653,143.253 158.5,152.5C 158.833,153.5 159.167,154.5 159.5,155.5C 157.83,169.531 155.996,183.531 154,197.5C 144.392,173.504 134.892,149.504 125.5,125.5 Z"/></g>
<g><path style="opacity:1" fill="#f1f8f8" d="M 187.5,133.5 C 192.33,135.649 196.33,138.982 199.5,143.5C 189.562,145.752 179.562,147.586 169.5,149C 175.987,144.342 181.987,139.176 187.5,133.5 Z"/></g>
<g><path style="opacity:1" fill="#f3f9f8" d="M 156.5,125.5 C 158.438,127.163 160.772,127.829 163.5,127.5C 169.065,128.858 174.732,129.691 180.5,130C 181.308,130.308 181.975,130.808 182.5,131.5C 175.79,137.546 168.79,143.212 161.5,148.5C 150.808,139.47 140.142,130.47 129.5,121.5C 129.667,121.167 129.833,120.833 130,120.5C 138.723,122.611 147.557,124.278 156.5,125.5 Z"/></g>
<g><path style="opacity:1" fill="#9abdd6" d="M 156.5,125.5 C 159.067,125.721 161.401,126.388 163.5,127.5C 160.772,127.829 158.438,127.163 156.5,125.5 Z"/></g>
<g><path style="opacity:1" fill="#f4f9f9" d="M 265.5,144.5 C 271.5,149.5 277.5,154.5 283.5,159.5C 283.468,163.983 282.468,167.983 280.5,171.5C 271.983,168.105 263.317,165.105 254.5,162.5C 256.696,155.546 260.363,149.546 265.5,144.5 Z"/></g>
<g><path style="opacity:1" fill="#22679d" d="M 261.5,140.5 C 264.598,140.413 264.932,140.913 262.5,142C 263.571,142.852 264.571,143.685 265.5,144.5C 260.363,149.546 256.696,155.546 254.5,162.5C 253.5,162.833 252.833,163.5 252.5,164.5C 251.029,167.552 249.362,170.552 247.5,173.5C 246.508,175.456 245.508,177.456 244.5,179.5C 242.461,180.911 241.461,182.911 241.5,185.5C 239.833,186.833 238.167,186.833 236.5,185.5C 239.379,181.075 241.713,176.408 243.5,171.5C 245.144,171.19 246.144,170.19 246.5,168.5C 247.614,167.115 248.614,165.615 249.5,164C 248.756,162.961 247.756,162.461 246.5,162.5C 245.081,161.549 243.415,161.216 241.5,161.5C 241.5,160.833 241.5,160.167 241.5,159.5C 241.5,158.167 242.167,157.5 243.5,157.5C 245.516,158.588 247.683,159.588 250,160.5C 254.903,154.435 258.736,147.768 261.5,140.5 Z"/></g>
<g><path style="opacity:1" fill="#f2f9f9" d="M 196.5,149.5 C 197.552,149.351 198.552,149.517 199.5,150C 185.955,165.877 172.788,182.043 160,198.5C 160.948,184.133 162.448,169.8 164.5,155.5C 175.329,153.698 185.995,151.698 196.5,149.5 Z"/></g>
<g><path style="opacity:1" fill="#4298c4" d="M 283.5,159.5 C 284.984,161.074 286.651,162.407 288.5,163.5C 287.25,163.577 286.417,164.244 286,165.5C 285.503,168.146 285.336,170.813 285.5,173.5C 283.694,172.976 282.028,172.309 280.5,171.5C 282.468,167.983 283.468,163.983 283.5,159.5 Z"/></g>
<g><path style="opacity:1" fill="#c9e6f4" d="M 246.5,162.5 C 247.756,162.461 248.756,162.961 249.5,164C 248.614,165.615 247.614,167.115 246.5,168.5C 245.167,166.5 245.167,164.5 246.5,162.5 Z"/></g>
<g><path style="opacity:1" fill="#eff9f8" d="M 32.5,142.5 C 33.6462,146.754 34.3129,151.087 34.5,155.5C 34.6567,156.873 34.49,158.207 34,159.5C 26.8949,165.627 19.7282,171.627 12.5,177.5C 11.8333,177.5 11.5,177.167 11.5,176.5C 18.5,165.167 25.5,153.833 32.5,142.5 Z"/></g>
<g><path style="opacity:1" fill="#429bc3" d="M 241.5,161.5 C 243.415,161.216 245.081,161.549 246.5,162.5C 245.167,164.5 245.167,166.5 246.5,168.5C 246.144,170.19 245.144,171.19 243.5,171.5C 242.213,168.302 241.547,164.969 241.5,161.5 Z"/></g>
<g><path style="opacity:1" fill="#f5faf9" d="M 252.5,164.5 C 261.813,168.048 271.146,171.381 280.5,174.5C 280.276,178.179 279.942,181.846 279.5,185.5C 269.167,185.5 258.833,185.5 248.5,185.5C 247.838,181.534 247.505,177.534 247.5,173.5C 249.362,170.552 251.029,167.552 252.5,164.5 Z"/></g>
<g><path style="opacity:1" fill="#2e7aac" d="M 34.5,155.5 C 35.2344,156.878 35.9011,158.378 36.5,160C 35.8333,160.667 35.1667,161.333 34.5,162C 35.756,162.417 36.4226,163.25 36.5,164.5C 35.2113,163.499 33.8779,163.666 32.5,165C 26.4596,170.709 20.1263,176.043 13.5,181C 13.7284,181.399 14.0618,181.565 14.5,181.5C 12.8984,183.074 10.8984,183.741 8.5,183.5C 9.41511,181.246 10.7484,179.246 12.5,177.5C 19.7282,171.627 26.8949,165.627 34,159.5C 34.49,158.207 34.6567,156.873 34.5,155.5 Z"/></g>
<g><path style="opacity:1" fill="#1e507f" d="M 299.5,75.5 C 300.482,76.1408 301.482,76.8075 302.5,77.5C 308.185,108.29 313.852,138.957 319.5,169.5C 319.5,174.167 319.5,178.833 319.5,183.5C 317.983,183.511 316.816,184.177 316,185.5C 314.391,188.407 312.558,191.073 310.5,193.5C 310.167,193.5 309.833,193.5 309.5,193.5C 309.265,192.903 308.765,192.57 308,192.5C 298.205,195.704 288.705,199.371 279.5,203.5C 277.302,203.875 275.302,204.542 273.5,205.5C 267.855,207.318 262.188,209.152 256.5,211C 255.058,211.377 254.058,212.21 253.5,213.5C 251.585,213.216 249.919,213.549 248.5,214.5C 242.677,216.107 237.011,218.107 231.5,220.5C 230.596,219.791 230.263,218.791 230.5,217.5C 236.739,214.879 243.072,212.546 249.5,210.5C 251.306,209.976 252.972,209.309 254.5,208.5C 262.38,205.93 270.046,202.93 277.5,199.5C 278.5,199.5 279.5,199.5 280.5,199.5C 288.49,196.506 296.49,193.506 304.5,190.5C 305.756,190.539 306.756,190.039 307.5,189C 298.84,188.5 290.173,188.334 281.5,188.5C 280.5,188.5 279.5,188.5 278.5,188.5C 268.833,188.5 259.167,188.5 249.5,188.5C 248.5,188.5 247.5,188.5 246.5,188.5C 243.833,188.5 241.167,188.5 238.5,188.5C 237.5,187.167 236.5,187.167 235.5,188.5C 235.557,187.391 235.89,186.391 236.5,185.5C 238.167,186.833 239.833,186.833 241.5,185.5C 242.833,185.5 244.167,185.5 245.5,185.5C 246.5,185.5 247.5,185.5 248.5,185.5C 258.833,185.5 269.167,185.5 279.5,185.5C 280.833,185.5 282.167,185.5 283.5,185.5C 291.507,185.666 299.507,185.5 307.5,185C 299.764,181.434 291.764,178.6 283.5,176.5C 282.71,175.599 281.71,174.932 280.5,174.5C 271.146,171.381 261.813,168.048 252.5,164.5C 252.833,163.5 253.5,162.833 254.5,162.5C 263.317,165.105 271.983,168.105 280.5,171.5C 282.028,172.309 283.694,172.976 285.5,173.5C 293.382,176.633 301.382,179.133 309.5,181C 302.31,175.302 295.31,169.469 288.5,163.5C 286.651,162.407 284.984,161.074 283.5,159.5C 277.5,154.5 271.5,149.5 265.5,144.5C 264.571,143.685 263.571,142.852 262.5,142C 264.932,140.913 264.598,140.413 261.5,140.5C 256.186,136.19 250.852,131.857 245.5,127.5C 243.059,128.709 241.059,130.376 239.5,132.5C 238.5,133.167 237.5,133.833 236.5,134.5C 236.5,133.833 236.5,133.167 236.5,132.5C 236.721,130.336 237.721,128.67 239.5,127.5C 243.36,125.474 243.026,123.808 238.5,122.5C 237.738,120.738 236.404,119.738 234.5,119.5C 231.473,115.806 228.14,112.473 224.5,109.5C 225.791,109.737 226.791,109.404 227.5,108.5C 228.833,109.5 230.167,110.5 231.5,111.5C 232.795,112.488 234.128,113.488 235.5,114.5C 237.86,117.206 240.527,119.706 243.5,122C 244.5,122.667 245.5,122.667 246.5,122C 253.98,116.021 261.313,109.855 268.5,103.5C 267.153,100.807 265.82,98.1401 264.5,95.5C 264.833,94.5 265.5,93.8333 266.5,93.5C 267.924,96.0179 269.591,98.3512 271.5,100.5C 278.464,95.8658 284.797,90.5325 290.5,84.5C 290.995,82.5183 291.495,80.5183 292,78.5C 292.363,81.544 292.863,84.544 293.5,87.5C 286.602,92.2198 280.102,97.5531 274,103.5C 273.333,104.5 273.333,105.5 274,106.5C 275.394,108.388 276.56,110.388 277.5,112.5C 277.443,113.609 277.11,114.609 276.5,115.5C 273.865,112.921 271.699,109.921 270,106.5C 262.518,112.316 255.352,118.483 248.5,125C 253.078,130.413 258.411,134.913 264.5,138.5C 264.842,139.338 265.508,139.672 266.5,139.5C 271.464,145.46 277.13,150.793 283.5,155.5C 284.795,156.488 286.128,157.488 287.5,158.5C 295.157,165.887 303.157,172.22 311.5,177.5C 305.169,165.867 298.503,154.534 291.5,143.5C 290.128,141.523 290.462,139.856 292.5,138.5C 292.5,139.167 292.833,139.5 293.5,139.5C 299.438,150.611 305.605,161.611 312,172.5C 310.133,154.587 307.3,136.921 303.5,119.5C 302.552,111.426 301.218,103.426 299.5,95.5C 298.922,92.7196 298.255,90.0529 297.5,87.5C 298.749,85.3296 299.749,82.9963 300.5,80.5C 299.975,79.8076 299.308,79.3076 298.5,79C 299.337,77.9887 299.67,76.8221 299.5,75.5 Z"/></g>
<g><path style="opacity:1" fill="#eff7f6" d="M 291.5,143.5 C 298.503,154.534 305.169,165.867 311.5,177.5C 303.157,172.22 295.157,165.887 287.5,158.5C 288.079,153.174 289.413,148.174 291.5,143.5 Z"/></g>
<g><path style="opacity:1" fill="#f6faf9" d="M 279.5,121.5 C 282.167,126.5 284.833,131.5 287.5,136.5C 286.756,143.219 285.423,149.553 283.5,155.5C 277.13,150.793 271.464,145.46 266.5,139.5C 269.892,134.395 273.059,129.062 276,123.5C 276.816,122.177 277.983,121.511 279.5,121.5 Z"/></g>
<g><path style="opacity:1" fill="#234d7a" d="M 280.5,117.5 C 283.1,121.701 285.434,126.034 287.5,130.5C 288.742,132.611 288.742,134.611 287.5,136.5C 284.833,131.5 282.167,126.5 279.5,121.5C 278.557,119.999 278.891,118.665 280.5,117.5 Z"/></g>
<g><path style="opacity:1" fill="#f4f8f8" d="M 303.5,119.5 C 307.3,136.921 310.133,154.587 312,172.5C 305.605,161.611 299.438,150.611 293.5,139.5C 293.994,129.379 295.327,119.379 297.5,109.5C 298.5,110.167 299.5,110.833 300.5,111.5C 301.257,114.37 302.257,117.036 303.5,119.5 Z"/></g>
<g><path style="opacity:1" fill="#f5f9f9" d="M 276.5,115.5 C 272.534,123.147 268.534,130.814 264.5,138.5C 258.411,134.913 253.078,130.413 248.5,125C 255.352,118.483 262.518,112.316 270,106.5C 271.699,109.921 273.865,112.921 276.5,115.5 Z"/></g>
<g><path style="opacity:1" fill="#276da2" d="M 293.5,88.5 C 293.842,89.3382 294.508,89.6716 295.5,89.5C 289.973,98.5535 284.973,107.887 280.5,117.5C 278.891,118.665 278.557,119.999 279.5,121.5C 277.983,121.511 276.816,122.177 276,123.5C 273.059,129.062 269.892,134.395 266.5,139.5C 265.508,139.672 264.842,139.338 264.5,138.5C 268.534,130.814 272.534,123.147 276.5,115.5C 277.11,114.609 277.443,113.609 277.5,112.5C 283.256,104.751 288.589,96.7512 293.5,88.5 Z"/></g>
<g><path style="opacity:1" fill="#f0f8f9" d="M 295.5,89.5 C 296.097,89.7352 296.43,90.2352 296.5,91C 293.778,102.726 291.445,114.559 289.5,126.5C 289.415,128.333 288.748,129.666 287.5,130.5C 285.434,126.034 283.1,121.701 280.5,117.5C 284.973,107.887 289.973,98.5535 295.5,89.5 Z"/></g>
<g><path style="opacity:1" fill="#dceef5" d="M 299.5,95.5 C 301.218,103.426 302.552,111.426 303.5,119.5C 302.257,117.036 301.257,114.37 300.5,111.5C 299.5,110.833 298.5,110.167 297.5,109.5C 295.327,119.379 293.994,129.379 293.5,139.5C 292.833,139.5 292.5,139.167 292.5,138.5C 291.957,137.258 291.623,135.925 291.5,134.5C 293.971,121.286 296.637,108.286 299.5,95.5 Z"/></g>
<g><path style="opacity:1" fill="#439dca" d="M 297.5,87.5 C 298.255,90.0529 298.922,92.7196 299.5,95.5C 296.637,108.286 293.971,121.286 291.5,134.5C 291.623,135.925 291.957,137.258 292.5,138.5C 290.462,139.856 290.128,141.523 291.5,143.5C 289.413,148.174 288.079,153.174 287.5,158.5C 286.128,157.488 284.795,156.488 283.5,155.5C 285.423,149.553 286.756,143.219 287.5,136.5C 288.742,134.611 288.742,132.611 287.5,130.5C 288.748,129.666 289.415,128.333 289.5,126.5C 291.445,114.559 293.778,102.726 296.5,91C 296.43,90.2352 296.097,89.7352 295.5,89.5C 295.833,88.5 296.5,87.8333 297.5,87.5 Z"/></g>
<g><path style="opacity:1" fill="#eaf5f6" d="M 293.5,87.5 C 293.5,87.8333 293.5,88.1667 293.5,88.5C 288.589,96.7512 283.256,104.751 277.5,112.5C 276.56,110.388 275.394,108.388 274,106.5C 273.333,105.5 273.333,104.5 274,103.5C 280.102,97.5531 286.602,92.2198 293.5,87.5 Z"/></g>
<g><path style="opacity:1" fill="#ebf5f6" d="M 36.5,164.5 C 37.1587,167.455 37.4921,170.455 37.5,173.5C 29.739,175.754 22.0724,178.421 14.5,181.5C 14.0618,181.565 13.7284,181.399 13.5,181C 20.1263,176.043 26.4596,170.709 32.5,165C 33.8779,163.666 35.2113,163.499 36.5,164.5 Z"/></g>
<g><path style="opacity:1" fill="#e3f0f4" d="M 288.5,163.5 C 295.31,169.469 302.31,175.302 309.5,181C 301.382,179.133 293.382,176.633 285.5,173.5C 285.336,170.813 285.503,168.146 286,165.5C 286.417,164.244 287.25,163.577 288.5,163.5 Z"/></g>
<g><path style="opacity:1" fill="#1e5486" d="M 92.5,81.5 C 93.5,81.5 94.5,81.5 95.5,81.5C 94.4865,88.2222 93.1532,94.8888 91.5,101.5C 94.0131,104.338 97.0131,105.338 100.5,104.5C 100.328,105.492 100.662,106.158 101.5,106.5C 97.5268,110.301 93.3602,113.968 89,117.5C 85.6173,135.796 82.4506,154.13 79.5,172.5C 79.7186,174.693 80.3852,176.693 81.5,178.5C 80.0755,176.969 79.4088,177.302 79.5,179.5C 77.6921,180.918 77.0254,182.918 77.5,185.5C 78.8333,185.5 80.1667,185.5 81.5,185.5C 81.7822,186.778 82.4489,187.778 83.5,188.5C 81.1667,188.5 78.8333,188.5 76.5,188.5C 74.9827,195.087 73.9827,201.754 73.5,208.5C 72.5933,210.657 71.9267,212.99 71.5,215.5C 69.8113,223.433 68.978,231.433 69,239.5C 71.0673,242.07 73.5673,244.07 76.5,245.5C 81.9975,237.844 86.9975,229.844 91.5,221.5C 92.791,221.263 93.791,221.596 94.5,222.5C 89.6774,230.846 85.0108,239.346 80.5,248C 82.2305,252.087 85.2305,254.087 89.5,254C 96.5309,248.159 103.531,242.325 110.5,236.5C 112.481,237.105 112.815,238.105 111.5,239.5C 104.998,245.166 98.3315,250.666 91.5,256C 90.2264,256.977 90.2264,257.811 91.5,258.5C 90.8902,259.391 90.5569,260.391 90.5,261.5C 89.399,260.2 88.0657,259.7 86.5,260C 80.4596,265.709 74.1263,271.043 67.5,276C 76.7393,272.975 86.0726,269.808 95.5,266.5C 95.7822,267.778 96.4489,268.778 97.5,269.5C 89.0546,272.224 80.7212,275.224 72.5,278.5C 70.8967,278.312 69.5634,278.812 68.5,280C 69.0944,280.464 69.7611,280.631 70.5,280.5C 72.1667,281.167 73.8333,281.833 75.5,282.5C 73.5759,282.711 73.2426,283.377 74.5,284.5C 98.8886,293.184 123.222,301.851 147.5,310.5C 149.842,312.044 152.342,312.378 155,311.5C 155.219,312.938 155.719,314.271 156.5,315.5C 157.167,315.167 157.833,314.833 158.5,314.5C 160.672,316.172 162.672,317.839 164.5,319.5C 160.167,319.5 155.833,319.5 151.5,319.5C 119.904,307.797 88.2378,295.964 56.5,284C 38.3757,252.92 20.3757,221.753 2.5,190.5C 3.5,190.5 4.5,190.5 5.5,190.5C 6.55198,190.351 7.55198,190.517 8.5,191C 9.33333,192.5 10.5,193.667 12,194.5C 12.6667,195.167 12.6667,195.833 12,196.5C 11.3333,195.167 10.6667,195.167 10,196.5C 9.33333,197.5 9.33333,198.5 10,199.5C 10.6667,198.167 11.3333,198.167 12,199.5C 12.3333,198.833 12.6667,198.167 13,197.5C 13.8518,198.571 14.6851,199.571 15.5,200.5C 28.3354,222.838 41.1687,245.171 54,267.5C 52.6169,256.861 51.1169,246.195 49.5,235.5C 49.8333,234.5 50.5,233.833 51.5,233.5C 53.7384,245.828 56.0717,258.161 58.5,270.5C 60.8086,262.29 62.4753,253.957 63.5,245.5C 64.1667,245.833 64.8333,246.167 65.5,246.5C 64.4208,242.865 64.4208,239.199 65.5,235.5C 66.2414,228.793 67.2414,222.127 68.5,215.5C 69.4682,213.393 69.8016,211.059 69.5,208.5C 70.9406,203.036 71.9406,197.369 72.5,191.5C 73.404,190.791 73.7373,189.791 73.5,188.5C 63.5,188.5 53.5,188.5 43.5,188.5C 43.2627,189.791 43.596,190.791 44.5,191.5C 44.9555,194.906 45.6222,198.239 46.5,201.5C 46.5,202.5 46.5,203.5 46.5,204.5C 47.1495,206.435 47.4828,208.435 47.5,210.5C 47.405,212.786 46.7384,214.786 45.5,216.5C 45.2462,211.556 44.2462,206.889 42.5,202.5C 42.8064,199.615 42.4731,196.948 41.5,194.5C 41.1667,192.5 40.8333,190.5 40.5,188.5C 32.1667,188.5 23.8333,188.5 15.5,188.5C 13.4352,188.483 11.4352,188.15 9.5,187.5C 8.76589,186.292 8.43255,184.959 8.5,183.5C 10.8984,183.741 12.8984,183.074 14.5,181.5C 22.0724,178.421 29.739,175.754 37.5,173.5C 37.4921,170.455 37.1587,167.455 36.5,164.5C 36.4226,163.25 35.756,162.417 34.5,162C 35.1667,161.333 35.8333,160.667 36.5,160C 35.9011,158.378 35.2344,156.878 34.5,155.5C 34.3129,151.087 33.6462,146.754 32.5,142.5C 32.7959,140.597 33.4625,138.93 34.5,137.5C 36.1304,143.365 37.1304,149.365 37.5,155.5C 38.1667,156.833 38.8333,158.167 39.5,159.5C 38.9033,159.735 38.5699,160.235 38.5,161C 39.1858,164.6 40.1858,168.1 41.5,171.5C 49.0956,168.531 56.7623,165.864 64.5,163.5C 66.5273,163.338 68.5273,163.505 70.5,164C 69.5842,164.278 68.9175,164.778 68.5,165.5C 59.7186,168.094 51.0519,171.094 42.5,174.5C 41.6514,177.81 41.818,181.144 43,184.5C 53.4179,185.487 63.9179,185.82 74.5,185.5C 74.7395,181.158 75.0728,176.824 75.5,172.5C 75.9175,171.778 76.5842,171.278 77.5,171C 76.8333,170.667 76.1667,170.333 75.5,170C 76.4158,169.722 77.0825,169.222 77.5,168.5C 77.5,166.5 77.5,164.5 77.5,162.5C 76.5,162.5 75.5,162.5 74.5,162.5C 73.5,162.167 72.8333,161.5 72.5,160.5C 74.6121,159.406 76.7787,158.406 79,157.5C 80.0052,150.12 81.1718,142.786 82.5,135.5C 83.2549,132.947 83.9216,130.28 84.5,127.5C 84.5,126.833 84.5,126.167 84.5,125.5C 85.1376,123.427 86.1376,121.427 87.5,119.5C 86.8075,118.482 86.1408,117.482 85.5,116.5C 87.3222,112.712 87.6556,108.712 86.5,104.5C 78.2193,101.296 69.886,98.2958 61.5,95.5C 58.8999,94.0311 59.2332,93.0311 62.5,92.5C 69.5145,94.8942 76.5145,97.3942 83.5,100C 85.1667,100.667 86.8333,100.667 88.5,100C 89.873,94.5982 90.873,89.0982 91.5,83.5C 92.3382,83.1583 92.6716,82.4916 92.5,81.5 Z"/></g>
<g><path style="opacity:1" fill="#d0ebf6" d="M 74.5,162.5 C 75.5,162.5 76.5,162.5 77.5,162.5C 77.5,164.5 77.5,166.5 77.5,168.5C 75.6162,167.618 74.2829,166.118 73.5,164C 74.056,163.617 74.3893,163.117 74.5,162.5 Z"/></g>
<g><path style="opacity:1" fill="#f5f9f7" d="M 64.5,163.5 C 56.7623,165.864 49.0956,168.531 41.5,171.5C 40.1858,168.1 39.1858,164.6 38.5,161C 38.5699,160.235 38.9033,159.735 39.5,159.5C 45.4807,154.523 51.4807,149.523 57.5,144.5C 62.4047,149.644 65.7381,155.644 67.5,162.5C 66.209,162.263 65.209,162.596 64.5,163.5 Z"/></g>
<g><path style="opacity:1" fill="#cbe3ed" d="M 90.5,106.5 C 96.7839,106.802 97.1172,108.468 91.5,111.5C 90.5481,109.955 90.2148,108.288 90.5,106.5 Z"/></g>
<g><path style="opacity:1" fill="#f6faf9" d="M 68.5,165.5 C 70.0174,165.511 71.1841,166.177 72,167.5C 73.0298,169.346 74.1964,171.013 75.5,172.5C 75.0728,176.824 74.7395,181.158 74.5,185.5C 63.9179,185.82 53.4179,185.487 43,184.5C 41.818,181.144 41.6514,177.81 42.5,174.5C 51.0519,171.094 59.7186,168.094 68.5,165.5 Z"/></g>
<g><path style="opacity:1" fill="#3d9dcf" d="M 247.5,173.5 C 247.505,177.534 247.838,181.534 248.5,185.5C 247.5,185.5 246.5,185.5 245.5,185.5C 245.675,183.379 245.341,181.379 244.5,179.5C 245.508,177.456 246.508,175.456 247.5,173.5 Z"/></g>
<g><path style="opacity:1" fill="#479cc3" d="M 280.5,174.5 C 281.71,174.932 282.71,175.599 283.5,176.5C 283.5,179.5 283.5,182.5 283.5,185.5C 282.167,185.5 280.833,185.5 279.5,185.5C 279.942,181.846 280.276,178.179 280.5,174.5 Z"/></g>
<g><path style="opacity:1" fill="#e6f2f5" d="M 283.5,176.5 C 291.764,178.6 299.764,181.434 307.5,185C 299.507,185.5 291.507,185.666 283.5,185.5C 283.5,182.5 283.5,179.5 283.5,176.5 Z"/></g>
<g><path style="opacity:1" fill="#e9f2f7" d="M 35.5,176.5 C 36.5,176.5 37.5,176.5 38.5,176.5C 39.1587,179.455 39.4921,182.455 39.5,185.5C 31.16,185.666 22.8267,185.5 14.5,185C 21.6399,182.238 28.6399,179.405 35.5,176.5 Z"/></g>
<g><path style="opacity:1" fill="#d1e8f4" d="M 79.5,179.5 C 80.1667,181.5 80.8333,183.5 81.5,185.5C 80.1667,185.5 78.8333,185.5 77.5,185.5C 77.0254,182.918 77.6921,180.918 79.5,179.5 Z"/></g>
<g><path style="opacity:1" fill="#bcdeee" d="M 244.5,179.5 C 245.341,181.379 245.675,183.379 245.5,185.5C 244.167,185.5 242.833,185.5 241.5,185.5C 241.461,182.911 242.461,180.911 244.5,179.5 Z"/></g>
<g><path style="opacity:1" fill="#b5cde8" d="M 72.5,191.5 C 68.2175,190.173 63.5508,189.507 58.5,189.5C 53.4492,189.507 48.7825,190.173 44.5,191.5C 43.596,190.791 43.2627,189.791 43.5,188.5C 53.5,188.5 63.5,188.5 73.5,188.5C 73.7373,189.791 73.404,190.791 72.5,191.5 Z"/></g>
<g><path style="opacity:1" fill="#b4d2ee" d="M 249.5,188.5 C 259.167,188.5 268.833,188.5 278.5,188.5C 278.5,188.833 278.5,189.167 278.5,189.5C 269.167,189.5 259.833,189.5 250.5,189.5C 250.5,191.167 250.5,192.833 250.5,194.5C 249.539,192.735 249.205,190.735 249.5,188.5 Z"/></g>
<g><path style="opacity:1" fill="#b5d3ef" d="M 281.5,188.5 C 290.173,188.334 298.84,188.5 307.5,189C 306.756,190.039 305.756,190.539 304.5,190.5C 301.016,189.835 297.349,189.501 293.5,189.5C 289.244,189.572 285.244,190.239 281.5,191.5C 281.5,190.5 281.5,189.5 281.5,188.5 Z"/></g>
<g><path style="opacity:1" fill="#eff8f9" d="M 15.5,188.5 C 23.8333,188.5 32.1667,188.5 40.5,188.5C 40.8333,190.5 41.1667,192.5 41.5,194.5C 41.5,195.833 41.5,197.167 41.5,198.5C 33.3925,195.699 25.2258,193.032 17,190.5C 15.9701,190.164 15.4701,189.497 15.5,188.5 Z"/></g>
<g><path style="opacity:1" fill="#f7fbfa" d="M 72.5,191.5 C 71.9406,197.369 70.9406,203.036 69.5,208.5C 61.7758,206.319 54.1091,203.986 46.5,201.5C 45.6222,198.239 44.9555,194.906 44.5,191.5C 48.7825,190.173 53.4492,189.507 58.5,189.5C 63.5508,189.507 68.2175,190.173 72.5,191.5 Z"/></g>
<g><path style="opacity:1" fill="#f4f9f9" d="M 83.5,188.5 C 88.3922,195.936 93.0589,203.603 97.5,211.5C 96.1433,213.565 94.81,215.565 93.5,217.5C 88.7612,216.301 84.0946,214.801 79.5,213C 76.8233,212.186 74.8233,210.686 73.5,208.5C 73.9827,201.754 74.9827,195.087 76.5,188.5C 78.8333,188.5 81.1667,188.5 83.5,188.5 Z"/></g>
<g><path style="opacity:1" fill="#f4faf9" d="M 238.5,188.5 C 241.167,188.5 243.833,188.5 246.5,188.5C 247.5,195.837 248.5,203.17 249.5,210.5C 243.072,212.546 236.739,214.879 230.5,217.5C 229.761,217.631 229.094,217.464 228.5,217C 227.601,215.348 226.601,213.848 225.5,212.5C 229.312,204.208 233.646,196.208 238.5,188.5 Z"/></g>
<g><path style="opacity:1" fill="#f8fbf9" d="M 278.5,189.5 C 277.793,192.786 277.46,196.119 277.5,199.5C 270.046,202.93 262.38,205.93 254.5,208.5C 253.414,208.38 252.747,207.713 252.5,206.5C 251.832,202.481 251.165,198.481 250.5,194.5C 250.5,192.833 250.5,191.167 250.5,189.5C 259.833,189.5 269.167,189.5 278.5,189.5 Z"/></g>
<g><path style="opacity:1" fill="#3297c7" d="M 278.5,188.5 C 279.5,188.5 280.5,188.5 281.5,188.5C 281.5,189.5 281.5,190.5 281.5,191.5C 280.908,194.127 280.575,196.794 280.5,199.5C 279.5,199.5 278.5,199.5 277.5,199.5C 277.46,196.119 277.793,192.786 278.5,189.5C 278.5,189.167 278.5,188.833 278.5,188.5 Z"/></g>
<g><path style="opacity:1" fill="#469dca" d="M 9.5,187.5 C 11.4352,188.15 13.4352,188.483 15.5,188.5C 15.4701,189.497 15.9701,190.164 17,190.5C 25.2258,193.032 33.3925,195.699 41.5,198.5C 41.5,197.167 41.5,195.833 41.5,194.5C 42.4731,196.948 42.8064,199.615 42.5,202.5C 32.9834,199.745 23.6501,196.411 14.5,192.5C 13.8933,192.624 13.56,192.957 13.5,193.5C 12.1667,192.067 10.6667,190.733 9,189.5C 8.30831,188.563 8.47498,187.897 9.5,187.5 Z"/></g>
<g><path style="opacity:1" fill="#276da4" d="M 238.5,188.5 C 233.646,196.208 229.312,204.208 225.5,212.5C 224.655,211.329 223.989,209.995 223.5,208.5C 227.012,201.466 231.012,194.799 235.5,188.5C 236.5,187.167 237.5,187.167 238.5,188.5 Z"/></g>
<g><path style="opacity:1" fill="#eff6f3" d="M 304.5,190.5 C 296.49,193.506 288.49,196.506 280.5,199.5C 280.575,196.794 280.908,194.127 281.5,191.5C 285.244,190.239 289.244,189.572 293.5,189.5C 297.349,189.501 301.016,189.835 304.5,190.5 Z"/></g>
<g><path style="opacity:1" fill="#eef8f8" d="M 13.5,193.5 C 13.56,192.957 13.8933,192.624 14.5,192.5C 23.6501,196.411 32.9834,199.745 42.5,202.5C 44.2462,206.889 45.2462,211.556 45.5,216.5C 45.6495,217.552 45.4828,218.552 45,219.5C 34.9177,210.244 24.4177,201.577 13.5,193.5 Z"/></g>
<g><path style="opacity:1" fill="#469ecc" d="M 246.5,188.5 C 247.5,188.5 248.5,188.5 249.5,188.5C 249.205,190.735 249.539,192.735 250.5,194.5C 251.165,198.481 251.832,202.481 252.5,206.5C 252.747,207.713 253.414,208.38 254.5,208.5C 252.972,209.309 251.306,209.976 249.5,210.5C 248.5,203.17 247.5,195.837 246.5,188.5 Z"/></g>
<g><path style="opacity:1" fill="#419ec8" d="M 279.5,203.5 C 277.913,208.587 277.58,213.587 278.5,218.5C 277.215,220.659 275.548,221.326 273.5,220.5C 273.421,216.057 274.087,211.723 275.5,207.5C 275.253,206.287 274.586,205.62 273.5,205.5C 275.302,204.542 277.302,203.875 279.5,203.5 Z"/></g>
<g><path style="opacity:1" fill="#fcfdfd" d="M 319.5,193.5 C 319.5,235.5 319.5,277.5 319.5,319.5C 270.167,319.5 220.833,319.5 171.5,319.5C 202.242,307.528 233.242,296.028 264.5,285C 266.426,284.578 267.426,283.411 267.5,281.5C 284.833,252.167 302.167,222.833 319.5,193.5 Z"/></g>
<g><path style="opacity:1" fill="#eaf6f7" d="M 309.5,193.5 C 298.877,201.454 288.544,209.787 278.5,218.5C 277.58,213.587 277.913,208.587 279.5,203.5C 288.705,199.371 298.205,195.704 308,192.5C 308.765,192.57 309.265,192.903 309.5,193.5 Z"/></g>
<g><path style="opacity:1" fill="#449bc3" d="M 46.5,201.5 C 54.1091,203.986 61.7758,206.319 69.5,208.5C 69.8016,211.059 69.4682,213.393 68.5,215.5C 68.67,214.178 68.3366,213.011 67.5,212C 60.479,209.486 53.479,206.986 46.5,204.5C 46.5,203.5 46.5,202.5 46.5,201.5 Z"/></g>
<g><path style="opacity:1" fill="#276da3" d="M 309.5,193.5 C 309.833,193.5 310.167,193.5 310.5,193.5C 310.107,195.284 309.441,196.95 308.5,198.5C 296.863,207.142 285.863,216.475 275.5,226.5C 273.712,227.36 272.045,228.36 270.5,229.5C 266.833,232.833 263.167,236.167 259.5,239.5C 258.167,240.5 256.833,241.5 255.5,242.5C 253.116,244.885 250.45,246.885 247.5,248.5C 245.519,247.895 245.185,246.895 246.5,245.5C 249.192,243.138 251.859,240.804 254.5,238.5C 255.872,237.488 257.205,236.488 258.5,235.5C 263.293,231.879 267.96,228.046 272.5,224C 273.337,222.989 273.67,221.822 273.5,220.5C 275.548,221.326 277.215,220.659 278.5,218.5C 288.544,209.787 298.877,201.454 309.5,193.5 Z"/></g>
<g><path style="opacity:1" fill="#f3faf9" d="M 273.5,205.5 C 274.586,205.62 275.253,206.287 275.5,207.5C 274.087,211.723 273.421,216.057 273.5,220.5C 273.67,221.822 273.337,222.989 272.5,224C 267.96,228.046 263.293,231.879 258.5,235.5C 256.655,228.313 254.989,220.98 253.5,213.5C 254.058,212.21 255.058,211.377 256.5,211C 262.188,209.152 267.855,207.318 273.5,205.5 Z"/></g>
<g><path style="opacity:1" fill="#f4faf9" d="M 46.5,204.5 C 53.479,206.986 60.479,209.486 67.5,212C 68.3366,213.011 68.67,214.178 68.5,215.5C 67.2414,222.127 66.2414,228.793 65.5,235.5C 59.9423,232.122 54.7757,228.122 50,223.5C 49.1259,219.035 48.2926,214.702 47.5,210.5C 47.4828,208.435 47.1495,206.435 46.5,204.5 Z"/></g>
<g><path style="opacity:1" fill="#459eca" d="M 73.5,208.5 C 74.8233,210.686 76.8233,212.186 79.5,213C 84.0946,214.801 88.7612,216.301 93.5,217.5C 94.6654,219.109 95.9988,219.443 97.5,218.5C 98.5383,220.519 99.8716,220.853 101.5,219.5C 103.245,221.033 104.245,223.033 104.5,225.5C 101.171,224.501 97.8376,223.501 94.5,222.5C 93.791,221.596 92.791,221.263 91.5,221.5C 85.7265,219.291 79.8932,216.958 74,214.5C 73.0979,214.743 72.2646,215.077 71.5,215.5C 71.9267,212.99 72.5933,210.657 73.5,208.5 Z"/></g>
<g><path style="opacity:1" fill="#dbf0f7" d="M 223.5,215.5 C 224.674,216.514 225.34,217.847 225.5,219.5C 219.623,220.907 218.957,219.574 223.5,215.5 Z"/></g>
<g><path style="opacity:1" fill="#cbf0f9" d="M 101.5,219.5 C 99.8716,220.853 98.5383,220.519 97.5,218.5C 98.9873,214.859 100.321,215.192 101.5,219.5 Z"/></g>
<g><path style="opacity:1" fill="#f3faf9" d="M 308.5,198.5 C 295.079,221.008 281.912,243.674 269,266.5C 270.409,253.045 272.576,239.712 275.5,226.5C 285.863,216.475 296.863,207.142 308.5,198.5 Z"/></g>
<g><path style="opacity:1" fill="#f4faf9" d="M 91.5,221.5 C 86.9975,229.844 81.9975,237.844 76.5,245.5C 73.5673,244.07 71.0673,242.07 69,239.5C 68.978,231.433 69.8113,223.433 71.5,215.5C 72.2646,215.077 73.0979,214.743 74,214.5C 79.8932,216.958 85.7265,219.291 91.5,221.5 Z"/></g>
<g><path style="opacity:1" fill="#225c90" d="M 221.5,211.5 C 222.674,212.514 223.34,213.847 223.5,215.5C 218.957,219.574 219.623,220.907 225.5,219.5C 227.481,220.105 227.815,221.105 226.5,222.5C 218.73,222.94 214.063,226.94 212.5,234.5C 210.877,235.491 209.877,234.824 209.5,232.5C 212.341,228.572 211.341,227.572 206.5,229.5C 204.847,229.34 203.514,228.674 202.5,227.5C 206.688,226.493 210.688,224.993 214.5,223C 217.059,219.281 219.392,215.448 221.5,211.5 Z"/></g>
<g><path style="opacity:1" fill="#27669a" d="M 8.5,183.5 C 8.43255,184.959 8.76589,186.292 9.5,187.5C 8.47498,187.897 8.30831,188.563 9,189.5C 10.6667,190.733 12.1667,192.067 13.5,193.5C 24.4177,201.577 34.9177,210.244 45,219.5C 45.4828,218.552 45.6495,217.552 45.5,216.5C 46.7384,214.786 47.405,212.786 47.5,210.5C 48.2926,214.702 49.1259,219.035 50,223.5C 54.7757,228.122 59.9423,232.122 65.5,235.5C 64.4208,239.199 64.4208,242.865 65.5,246.5C 64.8333,246.167 64.1667,245.833 63.5,245.5C 63.8076,243.076 63.4742,240.743 62.5,238.5C 59.1472,235.313 55.6472,232.313 52,229.5C 51.51,230.793 51.3433,232.127 51.5,233.5C 50.5,233.833 49.8333,234.5 49.5,235.5C 48.5713,232.325 47.738,228.991 47,225.5C 36.9593,216.457 26.626,207.79 16,199.5C 15.6012,199.728 15.4346,200.062 15.5,200.5C 14.6851,199.571 13.8518,198.571 13,197.5C 12.6667,198.167 12.3333,198.833 12,199.5C 11.3333,198.167 10.6667,198.167 10,199.5C 9.33333,198.5 9.33333,197.5 10,196.5C 10.6667,195.167 11.3333,195.167 12,196.5C 12.6667,195.833 12.6667,195.167 12,194.5C 10.5,193.667 9.33333,192.5 8.5,191C 7.55198,190.517 6.55198,190.351 5.5,190.5C 6.86893,188.268 7.86893,185.934 8.5,183.5 Z"/></g>
<g><path style="opacity:1" fill="#f4fbf9" d="M 226.5,222.5 C 227.376,222.369 228.043,222.702 228.5,223.5C 233.72,231.945 238.387,240.612 242.5,249.5C 239.888,250.779 237.555,252.445 235.5,254.5C 227.399,249.365 219.899,243.365 213,236.5C 212.536,235.906 212.369,235.239 212.5,234.5C 214.063,226.94 218.73,222.94 226.5,222.5 Z"/></g>
<g><path style="opacity:1" fill="#f2f8f7" d="M 49.5,235.5 C 51.1169,246.195 52.6169,256.861 54,267.5C 41.1687,245.171 28.3354,222.838 15.5,200.5C 15.4346,200.062 15.6012,199.728 16,199.5C 26.626,207.79 36.9593,216.457 47,225.5C 47.738,228.991 48.5713,232.325 49.5,235.5 Z"/></g>
<g><path style="opacity:1" fill="#e5f8fb" d="M 111.5,229.5 C 112.46,228.485 113.627,228.485 115,229.5C 116.03,229.836 116.53,230.503 116.5,231.5C 114.124,232.817 112.457,232.15 111.5,229.5 Z"/></g>
<g><path style="opacity:1" fill="#3f9dca" d="M 108.5,223.5 C 121.273,227.979 133.94,232.646 146.5,237.5C 144.821,237.285 143.821,237.952 143.5,239.5C 136.017,237.448 128.684,234.781 121.5,231.5C 120.817,231.863 120.15,232.196 119.5,232.5C 118.895,230.519 117.895,230.185 116.5,231.5C 116.53,230.503 116.03,229.836 115,229.5C 113.627,228.485 112.46,228.485 111.5,229.5C 110.514,227.574 109.514,225.574 108.5,223.5 Z"/></g>
<g><path style="opacity:1" fill="#f5f9f8" d="M 94.5,222.5 C 97.8376,223.501 101.171,224.501 104.5,225.5C 107.786,228.4 109.786,232.067 110.5,236.5C 103.531,242.325 96.5309,248.159 89.5,254C 85.2305,254.087 82.2305,252.087 80.5,248C 85.0108,239.346 89.6774,230.846 94.5,222.5 Z"/></g>
<g><path style="opacity:1" fill="#ecf4f6" d="M 63.5,245.5 C 62.4753,253.957 60.8086,262.29 58.5,270.5C 56.0717,258.161 53.7384,245.828 51.5,233.5C 51.3433,232.127 51.51,230.793 52,229.5C 55.6472,232.313 59.1472,235.313 62.5,238.5C 63.4742,240.743 63.8076,243.076 63.5,245.5 Z"/></g>
<g><path style="opacity:1" fill="#f4faf9" d="M 143.5,239.5 C 144.15,239.804 144.817,240.137 145.5,240.5C 146.48,243.086 146.813,245.753 146.5,248.5C 145.209,248.263 144.209,248.596 143.5,249.5C 138.003,251.329 132.67,253.329 127.5,255.5C 122.775,249.738 118.775,243.404 115.5,236.5C 116.549,234.784 117.882,233.451 119.5,232.5C 120.15,232.196 120.817,231.863 121.5,231.5C 128.684,234.781 136.017,237.448 143.5,239.5 Z"/></g>
<g><path style="opacity:1" fill="#f6faf9" d="M 199.5,232.5 C 203.237,232.241 205.57,233.907 206.5,237.5C 203.5,242.833 200.5,248.167 197.5,253.5C 196.849,254.091 196.182,254.757 195.5,255.5C 188.654,253.002 181.987,250.336 175.5,247.5C 175.979,244.936 176.645,242.436 177.5,240C 184.757,237.192 192.09,234.692 199.5,232.5 Z"/></g>
<g><path style="opacity:1" fill="#215587" d="M 197.5,229.5 C 201.093,229.796 201.759,230.796 199.5,232.5C 192.09,234.692 184.757,237.192 177.5,240C 176.645,242.436 175.979,244.936 175.5,247.5C 174.011,245.884 173.011,243.884 172.5,241.5C 171.893,241.624 171.56,241.957 171.5,242.5C 170.292,243.234 168.959,243.567 167.5,243.5C 165.444,244.161 163.444,243.828 161.5,242.5C 173.719,238.54 185.719,234.207 197.5,229.5 Z"/></g>
<g><path style="opacity:1" fill="#d9eff4" d="M 149.5,241.5 C 151.826,242.145 153.493,243.478 154.5,245.5C 150.63,247.314 148.963,245.981 149.5,241.5 Z"/></g>
<g><path style="opacity:1" fill="#f4faf9" d="M 111.5,239.5 C 112.496,239.414 113.329,239.748 114,240.5C 117.033,245.372 119.867,250.372 122.5,255.5C 121.757,256.182 121.091,256.849 120.5,257.5C 114.239,260.032 107.905,262.365 101.5,264.5C 99.6916,264.509 98.0249,264.009 96.5,263C 94.9625,261.293 93.2959,259.793 91.5,258.5C 90.2264,257.811 90.2264,256.977 91.5,256C 98.3315,250.666 104.998,245.166 111.5,239.5 Z"/></g>
<g><path style="opacity:1" fill="#266da2" d="M 209.5,239.5 C 205.929,244.967 202.596,250.633 199.5,256.5C 198.094,256.027 197.427,255.027 197.5,253.5C 200.5,248.167 203.5,242.833 206.5,237.5C 208.368,236.326 209.368,236.993 209.5,239.5 Z"/></g>
<g><path style="opacity:1" fill="#f3faf7" d="M 72.5,254.5 C 71.5,254.5 70.5,254.5 69.5,254.5C 69.5,255.5 69.5,256.5 69.5,257.5C 68.5,257.5 67.5,257.5 66.5,257.5C 66.5,253.833 66.5,250.167 66.5,246.5C 66.238,245.022 66.5713,243.689 67.5,242.5C 69.8169,244.316 71.9835,246.316 74,248.5C 74.4094,250.695 73.9094,252.695 72.5,254.5 Z"/></g>
<g><path style="opacity:1" fill="#f6fbfa" d="M 160.5,246.5 C 163.479,247.317 166.479,248.151 169.5,249C 170.756,249.417 171.423,250.25 171.5,251.5C 170.089,260.888 168.422,270.221 166.5,279.5C 162.498,279.964 158.831,279.298 155.5,277.5C 154.278,269.167 152.945,260.833 151.5,252.5C 151.57,251.228 151.903,250.062 152.5,249C 155.154,248.059 157.821,247.226 160.5,246.5 Z"/></g>
<g><path style="opacity:1" fill="#fafcfa" d="M 191.5,263.5 C 188.566,268.368 185.9,273.368 183.5,278.5C 182.833,278.5 182.5,278.833 182.5,279.5C 178.833,279.5 175.167,279.5 171.5,279.5C 171.719,270.982 174.053,270.316 178.5,277.5C 179.429,276.311 179.762,274.978 179.5,273.5C 176.896,273.402 174.896,272.235 173.5,270C 174.247,265.539 174.747,261.039 175,256.5C 175.667,255.833 176.333,255.167 177,254.5C 179.74,255.282 182.574,255.782 185.5,256C 185.043,256.414 184.709,256.914 184.5,257.5C 186.49,258.498 188.49,259.498 190.5,260.5C 191.386,261.325 191.719,262.325 191.5,263.5 Z"/></g>
<g><path style="opacity:1" fill="#e3f4fa" d="M 174.5,251.5 C 181.477,253.235 188.144,255.569 194.5,258.5C 193.737,260.368 192.737,262.035 191.5,263.5C 191.719,262.325 191.386,261.325 190.5,260.5C 188.49,259.498 186.49,258.498 184.5,257.5C 184.709,256.914 185.043,256.414 185.5,256C 182.574,255.782 179.74,255.282 177,254.5C 176.333,255.167 175.667,255.833 175,256.5C 174.747,261.039 174.247,265.539 173.5,270C 174.896,272.235 176.896,273.402 179.5,273.5C 179.762,274.978 179.429,276.311 178.5,277.5C 174.053,270.316 171.719,270.982 171.5,279.5C 170.662,279.158 170.328,278.492 170.5,277.5C 171.832,268.836 173.166,260.169 174.5,251.5 Z"/></g>
<g><path style="opacity:1" fill="#d5e6ee" d="M 65.5,246.5 C 65.8333,246.5 66.1667,246.5 66.5,246.5C 66.5,250.167 66.5,253.833 66.5,257.5C 67.5,257.5 68.5,257.5 69.5,257.5C 69.5,256.5 69.5,255.5 69.5,254.5C 70.5,254.5 71.5,254.5 72.5,254.5C 69.5966,259.971 66.43,265.304 63,270.5C 63.3127,262.471 64.1461,254.471 65.5,246.5 Z"/></g>
<g><path style="opacity:1" fill="#e4f1f2" d="M 77.5,251.5 C 80.4073,252.734 82.7407,254.734 84.5,257.5C 78.5408,262.824 72.5408,268.157 66.5,273.5C 66.1667,273.167 65.8333,272.833 65.5,272.5C 69.7766,265.608 73.7766,258.608 77.5,251.5 Z"/></g>
<g><path style="opacity:1" fill="#1d5085" d="M 120.5,257.5 C 122.38,257.229 123.713,257.896 124.5,259.5C 117.833,261.833 111.167,264.167 104.5,266.5C 102.973,266.573 101.973,265.906 101.5,264.5C 107.905,262.365 114.239,260.032 120.5,257.5 Z"/></g>
<g><path style="opacity:1" fill="#266b9e" d="M 194.5,258.5 C 195.391,259.11 196.391,259.443 197.5,259.5C 193.401,266.268 189.735,273.268 186.5,280.5C 185.603,279.402 184.77,279.402 184,280.5C 183.536,279.906 183.369,279.239 183.5,278.5C 185.9,273.368 188.566,268.368 191.5,263.5C 192.737,262.035 193.737,260.368 194.5,258.5 Z"/></g>
<g><path style="opacity:1" fill="#f0f7f8" d="M 197.5,259.5 C 203.998,262.222 210.665,264.555 217.5,266.5C 218.713,266.747 219.38,267.414 219.5,268.5C 215.183,271.486 211.183,274.82 207.5,278.5C 206.711,278.783 206.044,279.283 205.5,280C 199.175,280.5 192.842,280.666 186.5,280.5C 189.735,273.268 193.401,266.268 197.5,259.5 Z"/></g>
<g><path style="opacity:1" fill="#e7f4f6" d="M 90.5,261.5 C 91.973,263.395 93.6397,265.061 95.5,266.5C 86.0726,269.808 76.7393,272.975 67.5,276C 74.1263,271.043 80.4596,265.709 86.5,260C 88.0657,259.7 89.399,260.2 90.5,261.5 Z"/></g>
<g><path style="opacity:1" fill="#f4fbfb" d="M 223.5,269.5 C 232.609,272.031 241.609,275.031 250.5,278.5C 237.833,279.833 225.167,279.833 212.5,278.5C 215.943,275.271 219.61,272.271 223.5,269.5 Z"/></g>
<g><path style="opacity:1" fill="#286ea0" d="M 223.5,269.5 C 219.61,272.271 215.943,275.271 212.5,278.5C 211.662,278.842 211.328,279.508 211.5,280.5C 210.395,279.4 209.062,278.733 207.5,278.5C 211.183,274.82 215.183,271.486 219.5,268.5C 221.001,267.557 222.335,267.891 223.5,269.5 Z"/></g>
<g><path style="opacity:1" fill="#3d9ccb" d="M 319.5,183.5 C 319.5,186.833 319.5,190.167 319.5,193.5C 302.167,222.833 284.833,252.167 267.5,281.5C 266.809,279.978 265.642,278.978 264,278.5C 261.209,279.406 258.376,280.073 255.5,280.5C 254.5,280.5 253.5,280.5 252.5,280.5C 252.5,279.167 251.833,278.5 250.5,278.5C 241.609,275.031 232.609,272.031 223.5,269.5C 222.335,267.891 221.001,267.557 219.5,268.5C 219.38,267.414 218.713,266.747 217.5,266.5C 210.665,264.555 203.998,262.222 197.5,259.5C 196.391,259.443 195.391,259.11 194.5,258.5C 188.144,255.569 181.477,253.235 174.5,251.5C 173.652,250.375 172.652,250.375 171.5,251.5C 171.423,250.25 170.756,249.417 169.5,249C 166.479,248.151 163.479,247.317 160.5,246.5C 158.792,244.488 156.792,244.154 154.5,245.5C 153.493,243.478 151.826,242.145 149.5,241.5C 149.5,240.5 149.5,239.5 149.5,238.5C 153.426,240.031 157.426,241.364 161.5,242.5C 163.444,243.828 165.444,244.161 167.5,243.5C 168.552,245.256 170.219,245.923 172.5,245.5C 172.737,244.209 172.404,243.209 171.5,242.5C 171.56,241.957 171.893,241.624 172.5,241.5C 173.011,243.884 174.011,245.884 175.5,247.5C 181.987,250.336 188.654,253.002 195.5,255.5C 196.182,254.757 196.849,254.091 197.5,253.5C 197.427,255.027 198.094,256.027 199.5,256.5C 207.237,259.688 215.237,262.355 223.5,264.5C 224.514,265.674 225.847,266.34 227.5,266.5C 236.335,270.257 245.335,273.423 254.5,276C 248.225,270.212 241.558,265.045 234.5,260.5C 235.658,259.05 235.158,258.05 233,257.5C 232.617,258.056 232.117,258.389 231.5,258.5C 230.797,256.284 229.464,254.451 227.5,253C 222.981,249.571 218.648,245.904 214.5,242C 212.922,240.906 211.255,240.072 209.5,239.5C 209.368,236.993 208.368,236.326 206.5,237.5C 205.57,233.907 203.237,232.241 199.5,232.5C 201.759,230.796 201.093,229.796 197.5,229.5C 199.028,228.691 200.694,228.024 202.5,227.5C 203.514,228.674 204.847,229.34 206.5,229.5C 206.5,231.5 207.5,232.5 209.5,232.5C 209.877,234.824 210.877,235.491 212.5,234.5C 212.369,235.239 212.536,235.906 213,236.5C 219.899,243.365 227.399,249.365 235.5,254.5C 236.29,255.401 237.29,256.068 238.5,256.5C 238.859,258.371 239.859,259.871 241.5,261C 246.199,264.02 250.533,267.52 254.5,271.5C 254.833,271.167 255.167,270.833 255.5,270.5C 252.731,265.961 250.231,261.294 248,256.5C 247.124,254.365 245.624,253.031 243.5,252.5C 245.129,250.804 244.796,249.804 242.5,249.5C 238.387,240.612 233.72,231.945 228.5,223.5C 228.043,222.702 227.376,222.369 226.5,222.5C 227.815,221.105 227.481,220.105 225.5,219.5C 225.34,217.847 224.674,216.514 223.5,215.5C 223.34,213.847 222.674,212.514 221.5,211.5C 221.427,209.973 222.094,208.973 223.5,208.5C 223.989,209.995 224.655,211.329 225.5,212.5C 226.601,213.848 227.601,215.348 228.5,217C 229.094,217.464 229.761,217.631 230.5,217.5C 230.263,218.791 230.596,219.791 231.5,220.5C 235.542,227.58 239.376,234.913 243,242.5C 244.039,243.71 245.206,244.71 246.5,245.5C 245.185,246.895 245.519,247.895 247.5,248.5C 251.442,256.279 255.609,263.946 260,271.5C 259.219,261.756 257.719,252.09 255.5,242.5C 256.833,241.5 258.167,240.5 259.5,239.5C 260.023,248.994 261.523,258.328 264,267.5C 266.409,255.628 268.909,243.795 271.5,232C 271.472,230.93 271.139,230.097 270.5,229.5C 272.045,228.36 273.712,227.36 275.5,226.5C 272.576,239.712 270.409,253.045 269,266.5C 281.912,243.674 295.079,221.008 308.5,198.5C 309.441,196.95 310.107,195.284 310.5,193.5C 312.558,191.073 314.391,188.407 316,185.5C 316.816,184.177 317.983,183.511 319.5,183.5 Z"/></g>
<g><path style="opacity:1" fill="#e8f6f8" d="M 234.5,260.5 C 241.558,265.045 248.225,270.212 254.5,276C 245.335,273.423 236.335,270.257 227.5,266.5C 229.234,263.8 231.568,261.8 234.5,260.5 Z"/></g>
<g><path style="opacity:1" fill="#e6f6f9" d="M 255.5,242.5 C 257.719,252.09 259.219,261.756 260,271.5C 255.609,263.946 251.442,256.279 247.5,248.5C 250.45,246.885 253.116,244.885 255.5,242.5 Z"/></g>
<g><path style="opacity:1" fill="#276ca6" d="M 234.5,260.5 C 231.568,261.8 229.234,263.8 227.5,266.5C 225.847,266.34 224.514,265.674 223.5,264.5C 226.167,262.5 228.833,260.5 231.5,258.5C 232.117,258.389 232.617,258.056 233,257.5C 235.158,258.05 235.658,259.05 234.5,260.5 Z"/></g>
<g><path style="opacity:1" fill="#ecf8f8" d="M 243.5,252.5 C 245.624,253.031 247.124,254.365 248,256.5C 250.231,261.294 252.731,265.961 255.5,270.5C 255.167,270.833 254.833,271.167 254.5,271.5C 250.533,267.52 246.199,264.02 241.5,261C 239.859,259.871 238.859,258.371 238.5,256.5C 240.167,255.167 241.833,253.833 243.5,252.5 Z"/></g>
<g><path style="opacity:1" fill="#286e9d" d="M 242.5,249.5 C 244.796,249.804 245.129,250.804 243.5,252.5C 241.833,253.833 240.167,255.167 238.5,256.5C 237.29,256.068 236.29,255.401 235.5,254.5C 237.555,252.445 239.888,250.779 242.5,249.5 Z"/></g>
<g><path style="opacity:1" fill="#f4faf9" d="M 209.5,239.5 C 211.255,240.072 212.922,240.906 214.5,242C 218.648,245.904 222.981,249.571 227.5,253C 229.464,254.451 230.797,256.284 231.5,258.5C 228.833,260.5 226.167,262.5 223.5,264.5C 215.237,262.355 207.237,259.688 199.5,256.5C 202.596,250.633 205.929,244.967 209.5,239.5 Z"/></g>
<g><path style="opacity:1" fill="#f4fafa" d="M 270.5,229.5 C 271.139,230.097 271.472,230.93 271.5,232C 268.909,243.795 266.409,255.628 264,267.5C 261.523,258.328 260.023,248.994 259.5,239.5C 263.167,236.167 266.833,232.833 270.5,229.5 Z"/></g>
<g><path style="opacity:1" fill="#def8fc" d="M 171.5,242.5 C 172.404,243.209 172.737,244.209 172.5,245.5C 170.219,245.923 168.552,245.256 167.5,243.5C 168.959,243.567 170.292,243.234 171.5,242.5 Z"/></g>
<g><path style="opacity:1" fill="#3f99c9" d="M 248.5,214.5 C 249.919,213.549 251.585,213.216 253.5,213.5C 254.989,220.98 256.655,228.313 258.5,235.5C 257.205,236.488 255.872,237.488 254.5,238.5C 253.915,231.075 252.748,223.742 251,216.5C 250.583,215.244 249.75,214.577 248.5,214.5 Z"/></g>
<g><path style="opacity:1" fill="#dff3f5" d="M 209.5,232.5 C 207.5,232.5 206.5,231.5 206.5,229.5C 211.341,227.572 212.341,228.572 209.5,232.5 Z"/></g>
<g><path style="opacity:1" fill="#f6fbf9" d="M 248.5,214.5 C 249.75,214.577 250.583,215.244 251,216.5C 252.748,223.742 253.915,231.075 254.5,238.5C 251.859,240.804 249.192,243.138 246.5,245.5C 245.206,244.71 244.039,243.71 243,242.5C 239.376,234.913 235.542,227.58 231.5,220.5C 237.011,218.107 242.677,216.107 248.5,214.5 Z"/></g>
<g><path style="opacity:1" fill="#f5faf9" d="M 97.5,269.5 C 98.552,269.351 99.552,269.517 100.5,270C 103.412,273.419 106.746,276.252 110.5,278.5C 97.8333,279.833 85.1667,279.833 72.5,278.5C 80.7212,275.224 89.0546,272.224 97.5,269.5 Z"/></g>
<g><path style="opacity:1" fill="#a0bfdc" d="M 72.5,278.5 C 85.1667,279.833 97.8333,279.833 110.5,278.5C 111.338,278.842 111.672,279.508 111.5,280.5C 97.8333,280.5 84.1667,280.5 70.5,280.5C 69.7611,280.631 69.0944,280.464 68.5,280C 69.5634,278.812 70.8967,278.312 72.5,278.5 Z"/></g>
<g><path style="opacity:1" fill="#90b8d5" d="M 170.5,277.5 C 170.328,278.492 170.662,279.158 171.5,279.5C 175.167,279.5 178.833,279.5 182.5,279.5C 178.366,280.485 174.032,280.818 169.5,280.5C 169.263,279.209 169.596,278.209 170.5,277.5 Z"/></g>
<g><path style="opacity:1" fill="#053468" d="M 70.5,280.5 C 84.1667,280.5 97.8333,280.5 111.5,280.5C 100.833,281.167 90.1667,281.833 79.5,282.5C 78.1667,282.5 76.8333,282.5 75.5,282.5C 73.8333,281.833 72.1667,281.167 70.5,280.5 Z"/></g>
<g><path style="opacity:1" fill="#447093" d="M 75.5,282.5 C 76.8333,282.5 78.1667,282.5 79.5,282.5C 91.6783,282.172 103.678,282.505 115.5,283.5C 101.656,283.171 87.9898,283.504 74.5,284.5C 73.2426,283.377 73.5759,282.711 75.5,282.5 Z"/></g>
<g><path style="opacity:1" fill="#f2f8f7" d="M 74.5,284.5 C 87.9898,283.504 101.656,283.171 115.5,283.5C 127.111,292.172 137.778,301.172 147.5,310.5C 123.222,301.851 98.8886,293.184 74.5,284.5 Z"/></g>
<g><path style="opacity:1" fill="#236ba2" d="M 81.5,178.5 C 90.7516,193.334 99.7516,208.334 108.5,223.5C 109.514,225.574 110.514,227.574 111.5,229.5C 112.457,232.15 114.124,232.817 116.5,231.5C 117.895,230.185 118.895,230.519 119.5,232.5C 117.882,233.451 116.549,234.784 115.5,236.5C 118.775,243.404 122.775,249.738 127.5,255.5C 127.328,256.492 127.662,257.158 128.5,257.5C 131.98,265.126 135.98,272.46 140.5,279.5C 144.298,280.483 148.298,280.817 152.5,280.5C 152.656,276.236 151.989,272.236 150.5,268.5C 150.235,264.147 149.735,259.813 149,255.5C 148.878,253.563 148.045,252.23 146.5,251.5C 145.71,250.599 144.71,249.932 143.5,249.5C 144.209,248.596 145.209,248.263 146.5,248.5C 146.813,245.753 146.48,243.086 145.5,240.5C 144.817,240.137 144.15,239.804 143.5,239.5C 143.821,237.952 144.821,237.285 146.5,237.5C 147.391,238.11 148.391,238.443 149.5,238.5C 149.5,239.5 149.5,240.5 149.5,241.5C 148.963,245.981 150.63,247.314 154.5,245.5C 156.792,244.154 158.792,244.488 160.5,246.5C 157.821,247.226 155.154,248.059 152.5,249C 151.903,250.062 151.57,251.228 151.5,252.5C 152.945,260.833 154.278,269.167 155.5,277.5C 155.5,278.5 155.5,279.5 155.5,280.5C 159.371,280.815 163.038,280.482 166.5,279.5C 168.422,270.221 170.089,260.888 171.5,251.5C 172.652,250.375 173.652,250.375 174.5,251.5C 173.166,260.169 171.832,268.836 170.5,277.5C 169.596,278.209 169.263,279.209 169.5,280.5C 170.694,281.777 172.36,282.444 174.5,282.5C 176.56,282.428 178.56,282.095 180.5,281.5C 181.696,281.846 181.696,282.346 180.5,283C 181.448,283.483 182.448,283.649 183.5,283.5C 179.099,291.968 174.432,300.301 169.5,308.5C 169.833,308.833 170.167,309.167 170.5,309.5C 180.647,301.188 190.647,292.688 200.5,284C 195.177,283.501 189.844,283.334 184.5,283.5C 191.351,282.306 198.351,282.306 205.5,283.5C 195.653,292.843 185.319,301.676 174.5,310C 198.977,302.118 223.31,293.451 247.5,284C 233.837,283.5 220.171,283.333 206.5,283.5C 220.86,282.184 235.36,282.184 250,283.5C 251.858,282.394 253.692,281.394 255.5,280.5C 258.376,280.073 261.209,279.406 264,278.5C 265.642,278.978 266.809,279.978 267.5,281.5C 267.426,283.411 266.426,284.578 264.5,285C 233.242,296.028 202.242,307.528 171.5,319.5C 169.167,319.5 166.833,319.5 164.5,319.5C 162.672,317.839 160.672,316.172 158.5,314.5C 157.833,314.833 157.167,315.167 156.5,315.5C 155.719,314.271 155.219,312.938 155,311.5C 152.342,312.378 149.842,312.044 147.5,310.5C 137.778,301.172 127.111,292.172 115.5,283.5C 103.678,282.505 91.6783,282.172 79.5,282.5C 90.1667,281.833 100.833,281.167 111.5,280.5C 111.672,279.508 111.338,278.842 110.5,278.5C 106.746,276.252 103.412,273.419 100.5,270C 99.552,269.517 98.552,269.351 97.5,269.5C 96.4489,268.778 95.7822,267.778 95.5,266.5C 93.6397,265.061 91.973,263.395 90.5,261.5C 90.5569,260.391 90.8902,259.391 91.5,258.5C 93.2959,259.793 94.9625,261.293 96.5,263C 98.0249,264.009 99.6916,264.509 101.5,264.5C 101.973,265.906 102.973,266.573 104.5,266.5C 104.389,267.117 104.056,267.617 103.5,268C 108.013,272.081 112.68,275.914 117.5,279.5C 123.678,280.817 130.012,280.817 136.5,279.5C 136.376,278.893 136.043,278.56 135.5,278.5C 132.588,271.668 128.921,265.334 124.5,259.5C 123.713,257.896 122.38,257.229 120.5,257.5C 121.091,256.849 121.757,256.182 122.5,255.5C 119.867,250.372 117.033,245.372 114,240.5C 113.329,239.748 112.496,239.414 111.5,239.5C 112.815,238.105 112.481,237.105 110.5,236.5C 109.786,232.067 107.786,228.4 104.5,225.5C 104.245,223.033 103.245,221.033 101.5,219.5C 100.321,215.192 98.9873,214.859 97.5,218.5C 95.9988,219.443 94.6654,219.109 93.5,217.5C 94.81,215.565 96.1433,213.565 97.5,211.5C 93.0589,203.603 88.3922,195.936 83.5,188.5C 82.4489,187.778 81.7822,186.778 81.5,185.5C 80.8333,183.5 80.1667,181.5 79.5,179.5C 79.4088,177.302 80.0755,176.969 81.5,178.5 Z"/></g>
<g><path style="opacity:1" fill="#eaf5f7" d="M 168.5,283.5 C 172.226,283.177 175.893,283.511 179.5,284.5C 174.667,292.833 169.833,301.167 165,309.5C 166.635,300.962 167.802,292.296 168.5,283.5 Z"/></g>
<g><path style="opacity:1" fill="#f0f8f7" d="M 183.5,283.5 C 183.833,283.5 184.167,283.5 184.5,283.5C 189.844,283.334 195.177,283.501 200.5,284C 190.647,292.688 180.647,301.188 170.5,309.5C 170.167,309.167 169.833,308.833 169.5,308.5C 174.432,300.301 179.099,291.968 183.5,283.5 Z"/></g>
<g><path style="opacity:1" fill="#f2f9f9" d="M 205.5,283.5 C 205.833,283.5 206.167,283.5 206.5,283.5C 220.171,283.333 233.837,283.5 247.5,284C 223.31,293.451 198.977,302.118 174.5,310C 185.319,301.676 195.653,292.843 205.5,283.5 Z"/></g>
<g><path style="opacity:1" fill="#ecf5f6" d="M 143.5,283.5 C 146.898,283.18 150.232,283.513 153.5,284.5C 155.481,292.077 156.648,299.744 157,307.5C 151.697,299.888 147.197,291.888 143.5,283.5 Z"/></g>
<g><path style="opacity:1" fill="#eff7f8" d="M 122.5,284.5 C 128.013,283.184 133.68,283.184 139.5,284.5C 144.374,293.082 149.374,301.582 154.5,310C 143.508,302.204 132.841,293.704 122.5,284.5 Z"/></g>
<g><path style="opacity:1" fill="#f0f8f9" d="M 157.5,283.5 C 160.167,283.5 162.833,283.5 165.5,283.5C 164.485,291.649 162.985,299.649 161,307.5C 159.505,299.534 158.339,291.534 157.5,283.5 Z"/></g>
<g><path style="opacity:1" fill="#134c81" d="M 183.5,278.5 C 183.369,279.239 183.536,279.906 184,280.5C 184.77,279.402 185.603,279.402 186.5,280.5C 192.842,280.666 199.175,280.5 205.5,280C 206.044,279.283 206.711,278.783 207.5,278.5C 209.062,278.733 210.395,279.4 211.5,280.5C 225.167,280.5 238.833,280.5 252.5,280.5C 253.5,280.5 254.5,280.5 255.5,280.5C 253.692,281.394 251.858,282.394 250,283.5C 235.36,282.184 220.86,282.184 206.5,283.5C 206.167,283.5 205.833,283.5 205.5,283.5C 198.351,282.306 191.351,282.306 184.5,283.5C 184.167,283.5 183.833,283.5 183.5,283.5C 182.448,283.649 181.448,283.483 180.5,283C 181.696,282.346 181.696,281.846 180.5,281.5C 178.56,282.095 176.56,282.428 174.5,282.5C 172.36,282.444 170.694,281.777 169.5,280.5C 174.032,280.818 178.366,280.485 182.5,279.5C 182.5,278.833 182.833,278.5 183.5,278.5 Z"/></g>
<g><path style="opacity:1" fill="#a2c0db" d="M 212.5,278.5 C 225.167,279.833 237.833,279.833 250.5,278.5C 251.833,278.5 252.5,279.167 252.5,280.5C 238.833,280.5 225.167,280.5 211.5,280.5C 211.328,279.508 211.662,278.842 212.5,278.5 Z"/></g>
<g><path style="opacity:1" fill="#9abddb" d="M 155.5,277.5 C 158.831,279.298 162.498,279.964 166.5,279.5C 163.038,280.482 159.371,280.815 155.5,280.5C 155.5,279.5 155.5,278.5 155.5,277.5 Z"/></g>
<g><path style="opacity:1" fill="#a1bfdb" d="M 135.5,278.5 C 136.043,278.56 136.376,278.893 136.5,279.5C 130.012,280.817 123.678,280.817 117.5,279.5C 123.69,279.823 129.69,279.49 135.5,278.5 Z"/></g>
<g><path style="opacity:1" fill="#bedbed" d="M 150.5,268.5 C 151.989,272.236 152.656,276.236 152.5,280.5C 148.298,280.817 144.298,280.483 140.5,279.5C 143.833,279.5 147.167,279.5 150.5,279.5C 150.5,275.833 150.5,272.167 150.5,268.5 Z"/></g>
<g><path style="opacity:1" fill="#f4f9f8" d="M 124.5,259.5 C 128.921,265.334 132.588,271.668 135.5,278.5C 129.69,279.49 123.69,279.823 117.5,279.5C 112.68,275.914 108.013,272.081 103.5,268C 104.056,267.617 104.389,267.117 104.5,266.5C 111.167,264.167 117.833,261.833 124.5,259.5 Z"/></g>
<g><path style="opacity:1" fill="#f6faf9" d="M 146.5,251.5 C 148.045,252.23 148.878,253.563 149,255.5C 149.735,259.813 150.235,264.147 150.5,268.5C 150.5,272.167 150.5,275.833 150.5,279.5C 147.167,279.5 143.833,279.5 140.5,279.5C 135.98,272.46 131.98,265.126 128.5,257.5C 134.574,255.698 140.574,253.698 146.5,251.5 Z"/></g>
<g><path style="opacity:1" fill="#1f507d" d="M 143.5,249.5 C 144.71,249.932 145.71,250.599 146.5,251.5C 140.574,253.698 134.574,255.698 128.5,257.5C 127.662,257.158 127.328,256.492 127.5,255.5C 132.67,253.329 138.003,251.329 143.5,249.5 Z"/></g>
</svg>
