<svg xmlns="http://www.w3.org/2000/svg" width="320" height="320" viewBox="0 0 320 320" version="1.1">
	<path fill-opacity="0.286" d="M 108 91 C 106.272 94.228, 108.368 97, 112.535 97 L 116 97 116 116 L 116 135 113.071 135 C 109.986 135, 107 137.213, 107 139.500 C 107 140.246, 107.707 141.564, 108.571 142.429 C 109.952 143.809, 115.453 144, 153.890 144 C 205.403 144, 205.389 144.002, 213.701 135.477 C 224.955 123.936, 224.628 107.400, 212.922 96.040 C 205.730 89.060, 205.229 89, 154.357 89 C 110.094 89, 109.046 89.045, 108 91 M 121 115.947 L 121 135 159.750 134.978 C 195.434 134.958, 198.826 134.808, 202.616 133.087 C 208.561 130.387, 212.244 125.099, 212.794 118.474 C 213.377 111.436, 212.629 108.786, 208.837 104.467 C 202.583 97.344, 203.851 97.534, 160.250 97.197 L 121 96.893 121 115.947 M 127.104 103.908 C 126.333 104.400, 125.985 105.519, 126.327 106.411 C 126.884 107.862, 130.821 107.997, 165.723 107.762 C 203.746 107.505, 204.500 107.461, 204.500 105.500 C 204.500 103.539, 203.753 103.495, 166.500 103.259 C 145.516 103.125, 127.875 103.416, 127.104 103.908 M 126.340 115.555 C 126.007 116.424, 126.160 117.560, 126.679 118.079 C 127.249 118.649, 142.890 118.920, 166.062 118.762 C 203.746 118.505, 204.500 118.461, 204.500 116.500 C 204.500 114.539, 203.746 114.495, 165.723 114.238 C 131.160 114.005, 126.880 114.148, 126.340 115.555 M 126.190 126.750 C 126.503 128.376, 129.310 128.519, 165.763 128.762 C 204.495 129.020, 205 128.997, 205 127.012 C 205 125.030, 204.409 125, 165.427 125 C 128.276 125, 125.874 125.107, 126.190 126.750 M 107.837 148.458 C 106.877 150.566, 106.988 151.329, 108.496 152.996 C 109.502 154.107, 111.578 155, 113.155 155 L 116 155 116 173.500 L 116 192 113.500 192 C 111.135 192, 107 195.059, 107 196.809 C 107 197.254, 107.569 198.396, 108.265 199.347 C 109.437 200.951, 112.910 201.056, 156.015 200.788 C 201.507 200.506, 202.585 200.454, 206.500 198.335 C 211.282 195.746, 217.093 189.827, 219.591 185 C 222.156 180.043, 222.180 166.812, 219.633 162 C 217.055 157.131, 211.249 151.236, 206.500 148.665 C 202.584 146.546, 201.515 146.494, 155.746 146.213 L 108.991 145.925 107.837 148.458 M 121 173.500 L 121 192 160.032 192 C 202.437 192, 202.985 191.936, 208.186 186.373 C 211.612 182.710, 213 178.997, 213 173.500 C 213 168.003, 211.612 164.290, 208.186 160.627 C 202.985 155.064, 202.437 155, 160.032 155 L 121 155 121 173.500 M 126.500 162 C 124.810 164.734, 128.319 165, 166.059 165 C 204.333 165, 205 164.966, 205 163 C 205 161.034, 204.333 161, 166.059 161 C 141.177 161, 126.895 161.361, 126.500 162 M 126.340 172.555 C 126.007 173.424, 126.160 174.560, 126.679 175.079 C 127.249 175.649, 142.890 175.920, 166.062 175.762 C 203.746 175.505, 204.500 175.461, 204.500 173.500 C 204.500 171.539, 203.746 171.495, 165.723 171.238 C 131.160 171.005, 126.880 171.148, 126.340 172.555 M 126.345 183.543 C 126.019 184.392, 126.072 185.404, 126.462 185.793 C 127.242 186.571, 201.739 187.020, 203.750 186.259 C 204.438 185.999, 205 184.934, 205 183.893 C 205 182.068, 203.598 182, 165.969 182 C 131.712 182, 126.865 182.189, 126.345 183.543 M 109.772 214.809 C 103.528 215.541, 100.904 224.451, 105.394 229.672 C 110.660 235.794, 121 231.757, 121 223.579 C 121 217.474, 116.568 214.012, 109.772 214.809 M 127.357 215.047 C 121.891 217.111, 120.308 224.921, 124.394 229.672 C 127.806 233.638, 134.194 233.638, 137.606 229.672 C 143.933 222.316, 136.436 211.619, 127.357 215.047 M 162.282 215.702 C 161.597 217.494, 162.866 219, 165.059 219 C 166.783 219, 167 219.733, 167 225.570 C 167 231.810, 167.113 232.123, 169.250 231.820 C 171.338 231.523, 171.482 231.055, 171.253 225.316 C 171.010 219.250, 171.058 219.126, 173.744 218.816 C 175.335 218.633, 176.615 217.802, 176.799 216.834 C 177.065 215.429, 175.990 215.116, 169.927 214.834 C 164.984 214.604, 162.597 214.875, 162.282 215.702 M 183.354 214.674 C 177.501 215.868, 175.228 225.673, 179.755 230.199 C 182.909 233.354, 189.005 233.283, 192.444 230.053 C 199.136 223.766, 192.642 212.779, 183.354 214.674 M 87 223.500 L 87 232 92.929 232 C 100.962 232, 102.100 230.761, 101.431 222.739 C 101.149 219.345, 100.373 216.221, 99.709 215.799 C 99.044 215.376, 95.912 215.024, 92.750 215.015 L 87 215 87 223.500 M 142 223.500 C 142 231.333, 142.157 232, 144 232 C 145.584 232, 146.006 231.324, 146.027 228.750 L 146.054 225.500 148.777 228.759 C 150.674 231.030, 152.354 232.015, 154.317 232.009 L 157.134 232 153.567 227.647 C 151.605 225.253, 150 223.084, 150 222.827 C 150 222.570, 151.383 220.817, 153.074 218.930 L 156.148 215.500 153.583 215.184 C 151.773 214.962, 150.287 215.699, 148.540 217.684 L 146.063 220.500 146.032 217.750 C 146.008 215.677, 145.507 215, 144 215 C 142.157 215, 142 215.667, 142 223.500 M 197 223.500 C 197 231.333, 197.157 232, 199 232 C 200.585 232, 201 231.333, 201 228.788 L 201 225.576 203.757 228.878 C 205.873 231.412, 207.148 232.101, 209.245 231.840 L 211.977 231.500 208.317 227.634 C 205.767 224.942, 204.936 223.380, 205.578 222.487 C 206.085 221.783, 207.543 219.810, 208.818 218.103 L 211.136 215 208.356 215 C 206.535 215, 204.798 215.949, 203.324 217.750 L 201.072 220.500 201.036 217.750 C 201.009 215.679, 200.506 215, 199 215 C 197.157 215, 197 215.667, 197 223.500 M 212.875 220.500 C 212.806 223.525, 212.750 226.675, 212.750 227.500 C 212.750 231.948, 212.828 232, 219.500 232 C 225.333 232, 226 231.795, 226 230 C 226 228.291, 225.333 228, 221.417 228 C 215.480 228, 215.878 225.630, 221.889 225.189 C 225.233 224.944, 226.056 224.524, 225.803 223.189 C 225.574 221.982, 224.272 221.412, 221.241 221.193 C 215.583 220.782, 215.793 219, 221.500 219 C 225.333 219, 226 218.704, 226 217 C 226 215.205, 225.333 215, 219.500 215 L 213 215 212.875 220.500 M 229 223.500 C 229 231.254, 229.171 232, 230.945 232 C 232.546 232, 232.944 231.186, 233.195 227.401 L 233.500 222.802 236.960 227.434 C 242.034 234.225, 243.500 233.340, 243.500 223.487 C 243.500 215.966, 243.369 215.481, 241.250 215.180 C 239.219 214.892, 239 215.275, 239 219.112 L 239 223.364 235.786 219.182 C 234.018 216.882, 231.768 215, 230.786 215 C 229.211 215, 229 216.006, 229 223.500 M 109.566 219.328 C 106.217 221.777, 108.177 229, 112.191 229 C 113.572 229, 117 225.079, 117 223.500 C 117 221.921, 113.572 218, 112.191 218 C 111.746 218, 110.565 218.598, 109.566 219.328 M 128 220 C 125.475 222.525, 125.469 224.469, 127.977 226.977 C 130.756 229.756, 136 227.358, 136 223.309 C 136 221.772, 132.448 218, 131 218 C 130.450 218, 129.100 218.900, 128 220 M 184.388 219.012 C 181.931 219.968, 180.975 222.699, 182.066 225.648 C 183.149 228.576, 185.866 229.318, 188.701 227.460 C 193.328 224.428, 189.540 217.008, 184.388 219.012 M 91 220 C 91 220.550, 92.350 221, 94 221 C 95.650 221, 97 220.550, 97 220 C 97 219.450, 95.650 219, 94 219 C 92.350 219, 91 219.450, 91 220 M 91 226.500 C 91 227.493, 91.993 228, 93.941 228 C 97.268 228, 98.796 226.519, 96.412 225.605 C 93.611 224.530, 91 224.961, 91 226.500 M 144.823 242.511 C 143.953 243.380, 147.945 255, 149.113 255 C 149.981 255, 150.831 253.385, 152.535 248.500 C 153.117 246.831, 153.476 247.204, 154.700 250.750 C 155.507 253.088, 156.692 255, 157.334 255 C 158.660 255, 162.677 243.344, 161.691 242.357 C 161.022 241.689, 160.889 241.958, 158.700 248.387 L 157.377 252.275 155.606 247.637 C 154.632 245.087, 153.480 243, 153.047 243 C 152.614 243, 151.671 245.103, 150.951 247.673 L 149.643 252.347 148.424 249.423 C 147.753 247.816, 146.813 245.458, 146.334 244.185 C 145.855 242.912, 145.175 242.159, 144.823 242.511 M 164.719 242.615 C 163.611 243.723, 163.867 255, 165 255 C 165.550 255, 166 254.100, 166 253 C 166 251.900, 166.605 251, 167.345 251 C 168.085 251, 169.505 251.900, 170.500 253 C 171.495 254.100, 172.760 255, 173.310 255 C 173.860 255, 173.513 254.120, 172.540 253.044 C 170.910 251.243, 170.898 250.959, 172.385 249.472 C 175.498 246.359, 173.845 243.029, 168.853 242.356 C 166.974 242.103, 165.114 242.219, 164.719 242.615 M 175.544 242.929 C 175.229 243.439, 175.990 244.002, 177.235 244.179 C 179.192 244.456, 179.576 245.248, 180.056 250 L 180.613 255.500 181.056 250 C 181.443 245.207, 181.791 244.459, 183.765 244.179 C 187.594 243.635, 185.144 242, 180.500 242 C 178.090 242, 175.860 242.418, 175.544 242.929 M 166 246.500 C 166 248.782, 166.366 249.091, 168.750 248.816 C 170.728 248.589, 171.500 247.938, 171.500 246.500 C 171.500 245.062, 170.728 244.411, 168.750 244.184 C 166.366 243.909, 166 244.218, 166 246.500 M 93 249 C 93 249.635, 100.647 250, 113.941 250 C 126.823 250, 135.120 249.615, 135.500 249 C 135.905 248.345, 128.677 248, 114.559 248 C 100.853 248, 93 248.364, 93 249 M 192 249 C 192 249.638, 200.480 250, 215.441 250 C 229.990 250, 239.116 249.621, 239.500 249 C 239.905 248.344, 231.844 248, 216.059 248 C 200.686 248, 192 248.361, 192 249" stroke="none" fill="black" fill-rule="evenodd"/>
	<path fill-opacity="0.215" d="M 109.427 89.744 C 105.700 92.371, 108.025 97, 113.071 97 L 116 97 116 116.440 L 116 135.879 112.250 136.190 C 108.819 136.474, 108.500 136.755, 108.500 139.500 L 108.500 142.500 154.969 142.760 L 201.438 143.020 206.673 140.459 C 212.340 137.686, 215.882 134.066, 219.237 127.616 C 221.890 122.517, 222.163 111.381, 219.771 105.860 C 217.622 100.899, 211.489 94.312, 206.568 91.678 C 202.580 89.543, 201.591 89.495, 156.500 89.244 C 131.200 89.103, 110.017 89.328, 109.427 89.744 M 121 116.457 L 121 136 157.818 136 C 200.042 136, 202.343 135.683, 208.335 129.051 C 216.666 119.829, 215.056 107.038, 204.702 100.183 L 200.650 97.500 160.825 97.207 L 121 96.914 121 116.457 M 126.453 105.075 C 126.080 105.680, 126.190 106.590, 126.699 107.099 C 127.243 107.643, 143.466 107.916, 166.062 107.762 C 199.446 107.534, 204.500 107.303, 204.500 106 C 204.500 104.697, 199.419 104.466, 165.816 104.238 C 138.526 104.054, 126.932 104.300, 126.453 105.075 M 126.453 115.075 C 126.080 115.680, 126.190 116.590, 126.699 117.099 C 127.243 117.643, 143.466 117.916, 166.062 117.762 C 199.446 117.534, 204.500 117.303, 204.500 116 C 204.500 114.697, 199.419 114.466, 165.816 114.238 C 138.526 114.054, 126.932 114.300, 126.453 115.075 M 126.453 126.075 C 126.080 126.680, 126.190 127.590, 126.699 128.099 C 127.243 128.643, 143.466 128.916, 166.062 128.762 C 199.446 128.534, 204.500 128.303, 204.500 127 C 204.500 125.697, 199.419 125.466, 165.816 125.238 C 138.526 125.054, 126.932 125.300, 126.453 126.075 M 108.631 148.116 C 106.367 151.349, 108.126 154, 112.535 154 L 116 154 116 173.440 L 116 192.879 112.250 193.190 C 109.058 193.454, 108.455 193.885, 108.199 196.086 C 107.613 201.127, 107.520 201.118, 156.160 200.789 C 206.570 200.448, 204.945 200.658, 212.926 193.448 C 218.704 188.228, 221.353 181.966, 221.365 173.500 C 221.381 162.105, 215.920 153.604, 205.500 148.804 C 200.547 146.522, 200.073 146.497, 155.334 146.212 L 110.167 145.923 108.631 148.116 M 121 173.456 L 121 193 159.250 192.990 L 197.500 192.980 202.655 190.580 C 208.526 187.847, 212.812 181.823, 213.724 175.023 C 214.548 168.877, 210.206 160.794, 204.176 157.249 L 199.500 154.500 160.250 154.206 L 121 153.913 121 173.456 M 126.453 162.075 C 126.080 162.680, 126.190 163.590, 126.699 164.099 C 127.243 164.643, 143.466 164.916, 166.062 164.762 C 199.446 164.534, 204.500 164.303, 204.500 163 C 204.500 161.697, 199.419 161.466, 165.816 161.238 C 138.526 161.054, 126.932 161.300, 126.453 162.075 M 126.570 172.887 C 124.839 175.687, 129.466 176.019, 166.604 175.762 C 201.754 175.519, 204.497 175.374, 204.810 173.750 C 205.126 172.107, 202.750 172, 166.132 172 C 144.525 172, 126.874 172.396, 126.570 172.887 M 126.453 183.075 C 126.080 183.680, 126.190 184.590, 126.699 185.099 C 127.243 185.643, 143.466 185.916, 166.062 185.762 C 199.446 185.534, 204.500 185.303, 204.500 184 C 204.500 182.697, 199.419 182.466, 165.816 182.238 C 138.526 182.054, 126.932 182.300, 126.453 183.075 M 87 223.500 L 87 232 92.277 232 C 95.436 232, 98.448 231.375, 99.777 230.443 C 102.061 228.844, 102.752 225.583, 101.033 224.520 C 100.501 224.191, 100.332 222.591, 100.657 220.964 C 101.564 216.428, 99.702 215, 92.878 215 L 87 215 87 223.500 M 106.825 216.038 C 105.904 216.576, 104.646 218.542, 104.031 220.407 C 101.854 227.001, 105.199 232, 111.788 232 C 116.279 232, 118.479 230.672, 119.976 227.058 C 122.493 220.982, 118.636 214.979, 112.250 215.030 C 110.188 215.047, 107.746 215.501, 106.825 216.038 M 126.229 215.669 C 123.858 216.623, 121.789 222.060, 122.451 225.593 C 123.211 229.641, 126.280 232, 130.788 232 C 135.516 232, 137.663 230.552, 139.017 226.449 C 140.376 222.330, 138.982 217.596, 135.929 215.962 C 134.053 214.958, 128.420 214.788, 126.229 215.669 M 142 223.573 C 142 231.186, 142.195 232.109, 143.742 231.811 C 144.739 231.619, 145.702 230.273, 145.992 228.665 L 146.500 225.854 149.437 228.927 C 152.079 231.691, 156 233.104, 156 231.292 C 156 230.903, 154.334 228.878, 152.297 226.792 L 148.594 223 152.500 219 C 156.213 215.198, 156.287 215, 154.008 215 C 152.689 215, 150.347 216.209, 148.805 217.687 L 146 220.374 146 217.687 C 146 215.667, 145.504 215, 144 215 C 142.156 215, 142 215.667, 142 223.573 M 162 216.500 C 162 217.426, 162.939 218, 164.454 218 C 166.788 218, 166.923 218.331, 167.204 224.740 C 167.442 230.148, 167.836 231.543, 169.203 231.804 C 170.650 232.080, 170.950 231.104, 171.203 225.314 C 171.473 219.115, 171.703 218.471, 173.750 218.180 C 174.988 218.005, 176 217.217, 176 216.430 C 176 215.326, 174.404 215, 169 215 C 163.444 215, 162 215.310, 162 216.500 M 180.240 217.022 C 176.796 221.025, 177.025 228.049, 180.687 230.750 C 183.630 232.920, 189.797 232.294, 192.545 229.545 C 198.133 223.958, 194.124 215, 186.036 215 C 183.206 215, 181.455 215.611, 180.240 217.022 M 197 223.573 C 197 231.186, 197.195 232.109, 198.742 231.811 C 199.739 231.619, 200.702 230.273, 200.992 228.665 L 201.500 225.854 204.437 228.927 C 207.079 231.691, 211 233.104, 211 231.292 C 211 230.903, 209.334 228.878, 207.297 226.792 L 203.594 223 207.500 219 C 211.213 215.198, 211.287 215, 209.008 215 C 207.689 215, 205.347 216.209, 203.805 217.687 L 201 220.374 201 217.687 C 201 215.667, 200.504 215, 199 215 C 197.156 215, 197 215.667, 197 223.573 M 213 223.500 L 213 232 219.573 232 C 225.294 232, 226.104 231.773, 225.814 230.250 C 225.575 228.989, 224.226 228.360, 220.991 228 C 215.304 227.367, 215.152 225.598, 220.750 225.193 C 223.644 224.983, 225 224.425, 225 223.443 C 225 222.426, 223.818 222, 221 222 C 218.182 222, 217 221.574, 217 220.557 C 217 219.576, 218.355 219.017, 221.241 218.807 C 224.335 218.583, 225.573 218.027, 225.815 216.750 C 226.104 215.227, 225.293 215, 219.573 215 L 213 215 213 223.500 M 229 223.573 C 229 231.198, 229.194 232.110, 230.750 231.814 C 232.005 231.576, 232.641 230.229, 233 227.054 L 233.500 222.626 237 227.282 C 242.124 234.099, 243 233.547, 243 223.500 C 243 216.611, 242.716 215, 241.500 215 C 240.417 215, 240 216.111, 240 219 C 240 221.200, 239.636 223, 239.192 223 C 238.747 223, 237.060 221.211, 235.442 219.024 C 233.824 216.837, 231.713 215.037, 230.750 215.024 C 229.218 215.003, 229 216.066, 229 223.573 M 91 219.434 C 91 220.978, 91.289 221.128, 94.750 221.375 C 97.709 221.586, 96.751 218.529, 93.750 218.184 C 91.786 217.958, 91 218.315, 91 219.434 M 108.655 219.829 C 106.484 222.228, 106.555 225.287, 108.829 227.345 C 111.125 229.423, 113.405 229.452, 115.429 227.429 C 117.536 225.321, 117.416 221.686, 115.171 219.655 C 112.794 217.504, 110.709 217.560, 108.655 219.829 M 127.655 219.829 C 125.569 222.133, 125.533 225.391, 127.571 227.429 C 129.659 229.516, 132.314 229.416, 134.345 227.171 C 136.516 224.772, 136.445 221.713, 134.171 219.655 C 131.794 217.504, 129.709 217.560, 127.655 219.829 M 182.333 220.615 C 180.797 222.959, 180.772 223.504, 182.093 225.865 C 183.850 229.006, 187.124 229.733, 189.375 227.482 C 191.531 225.326, 191.436 221.705, 189.171 219.655 C 186.558 217.290, 184.304 217.606, 182.333 220.615 M 91.190 226.750 C 91.540 228.570, 94.933 229.278, 97.046 227.971 C 99.007 226.759, 97.125 225, 93.868 225 C 91.535 225, 90.930 225.396, 91.190 226.750 M 145.560 245.445 C 145.877 247.064, 146.824 249.989, 147.665 251.945 L 149.194 255.500 150.523 252.500 C 151.254 250.850, 152.158 248.600, 152.533 247.500 C 153.108 245.813, 153.437 246.122, 154.633 249.476 C 155.413 251.663, 156.420 253.820, 156.870 254.270 C 157.539 254.939, 162 245.322, 162 243.211 C 162 241.655, 160.117 244.889, 159.013 248.342 C 157.645 252.619, 156.811 252.283, 155.040 246.741 C 153.576 242.159, 152.664 242.556, 150.999 248.503 C 149.538 253.722, 149.155 253.603, 146.742 247.179 C 145.776 244.605, 145.244 243.825, 145.560 245.445 M 164.136 249.250 C 164.211 252.688, 164.467 254.488, 164.706 253.250 C 164.944 252.012, 165.648 251, 166.270 251 C 167.072 251, 167.051 250.651, 166.200 249.800 C 165.540 249.140, 165 247.565, 165 246.300 C 165 244.352, 165.519 244, 168.393 244 C 170.382 244, 172.009 244.580, 172.324 245.403 C 172.923 246.963, 171.209 249.561, 169.191 250.155 C 168.310 250.414, 168.763 251.352, 170.572 253.020 C 172.883 255.150, 173.081 255.202, 171.978 253.389 C 170.903 251.623, 170.955 250.902, 172.299 248.984 C 174.745 245.491, 172.941 243, 167.965 243 L 164 243 164.136 249.250 M 177.702 243.699 C 179.608 244.069, 179.952 244.890, 180.263 249.813 L 180.622 255.500 180.811 249.820 C 180.978 244.796, 181.260 244.089, 183.250 243.706 C 184.488 243.467, 183.250 243.272, 180.500 243.272 C 177.750 243.272, 176.491 243.465, 177.702 243.699 M 103.250 248.746 C 109.163 248.923, 118.838 248.923, 124.750 248.746 C 130.662 248.569, 125.825 248.425, 114 248.425 C 102.175 248.425, 97.338 248.569, 103.250 248.746 M 203.807 248.747 C 210.576 248.921, 221.376 248.920, 227.807 248.746 C 234.238 248.572, 228.700 248.431, 215.500 248.431 C 202.300 248.432, 197.038 248.574, 203.807 248.747" stroke="none" fill="black" fill-rule="evenodd"/>
	<path fill-opacity="0.461" d="M 109.750 90.049 C 105.808 92.415, 108.428 97, 113.722 97 L 117.043 97 116.772 116.250 L 116.500 135.500 112.500 136 C 108.833 136.458, 108.500 136.750, 108.500 139.500 L 108.500 142.500 153.500 142.784 C 185.756 142.988, 199.719 142.735, 202.803 141.890 C 208.396 140.357, 216.683 132.905, 219.122 127.214 C 221.604 121.426, 221.609 110.932, 219.133 105.500 C 216.419 99.548, 212.352 95.225, 206.620 92.201 L 201.500 89.500 156.500 89.249 C 126.398 89.081, 110.921 89.346, 109.750 90.049 M 120.228 116.250 L 120.500 135.500 158.884 135.762 L 197.268 136.024 202.561 133.601 C 217.462 126.779, 217.669 106.484, 202.914 98.956 C 199.300 97.112, 196.811 97, 159.518 97 L 119.957 97 120.228 116.250 M 127 105.465 C 127 106.751, 132.118 106.990, 164.750 107.226 C 185.512 107.377, 203.082 107.332, 203.792 107.127 C 204.503 106.922, 204.916 106.247, 204.709 105.627 C 204.441 104.823, 193.248 104.425, 165.667 104.238 C 131.983 104.010, 127 104.168, 127 105.465 M 164.750 114.762 C 132.114 114.989, 127 115.226, 127 116.512 C 127 117.804, 132.076 118, 165.441 118 C 186.715 118, 204.127 117.604, 204.430 117.113 C 204.731 116.626, 204.420 115.838, 203.739 115.363 C 203.058 114.888, 185.512 114.618, 164.750 114.762 M 127.188 126.738 C 127.505 128.384, 130.057 128.500, 166.014 128.500 C 199.557 128.500, 204.500 128.307, 204.500 127 C 204.500 125.697, 199.403 125.466, 165.674 125.238 C 129.057 124.991, 126.868 125.077, 127.188 126.738 M 108.309 148.636 C 107.335 151.174, 109.370 153.450, 113.104 154 L 116.500 154.500 116.772 173.750 L 117.043 193 113.722 193 C 108.328 193, 105.757 197.729, 109.934 199.965 C 112.630 201.408, 193.215 201.362, 199.967 199.914 C 206.832 198.441, 213.808 193.530, 217.459 187.597 C 219.943 183.562, 220.543 181.385, 220.851 175.286 C 221.314 166.118, 219.467 160.752, 213.858 154.973 C 205.964 146.839, 207.498 147.047, 155.219 147.022 C 113.281 147.002, 108.878 147.154, 108.309 148.636 M 120.709 154.624 C 120.319 155.014, 120 163.808, 120 174.167 L 120 193 159.250 192.978 C 195.271 192.958, 198.829 192.804, 202.500 191.110 C 216.399 184.695, 217.855 166.335, 205.165 157.513 L 200.831 154.500 161.125 154.208 C 139.286 154.047, 121.099 154.234, 120.709 154.624 M 127.678 161.655 C 127.305 162.028, 127 162.939, 127 163.678 C 127 164.787, 133.826 164.977, 165.750 164.762 C 199.411 164.534, 204.500 164.303, 204.500 163 C 204.500 161.698, 199.487 161.466, 166.428 161.238 C 145.489 161.094, 128.051 161.282, 127.678 161.655 M 127 173.500 C 127 174.843, 131.592 174.992, 165.750 174.762 C 190.953 174.592, 204.413 174.150, 204.250 173.500 C 204.091 172.861, 190.115 172.406, 165.500 172.238 C 131.566 172.008, 127 172.157, 127 173.500 M 127.667 182.667 C 127.300 183.033, 127 183.933, 127 184.667 C 127 185.755, 134.073 186, 165.441 186 C 203.062 186, 208.123 185.592, 203.878 182.904 C 202.285 181.894, 128.668 181.665, 127.667 182.667 M 87.829 222.523 C 87.648 226.661, 87.650 230.486, 87.833 231.023 C 88.207 232.118, 94.180 232.167, 98 231.106 C 100.301 230.467, 100.512 229.917, 100.654 224.181 C 100.845 216.445, 99.642 215, 93.008 215 L 88.158 215 87.829 222.523 M 106.635 217.073 C 104.509 218.745, 104 219.986, 104 223.500 C 104 227.014, 104.509 228.255, 106.635 229.927 C 110.007 232.580, 114.985 232.595, 117.811 229.961 C 123.080 225.052, 119.229 215, 112.079 215 C 110.534 215, 108.084 215.933, 106.635 217.073 M 125.635 217.073 C 123.509 218.745, 123 219.986, 123 223.500 C 123 227.014, 123.509 228.255, 125.635 229.927 C 131.402 234.464, 139.200 230.768, 139.200 223.500 C 139.200 216.232, 131.402 212.536, 125.635 217.073 M 142.210 223.170 C 142.403 228.599, 142.919 231.478, 143.750 231.753 C 144.569 232.024, 145 231.104, 145 229.083 C 145 225.243, 145.872 225.213, 149.432 228.929 C 150.975 230.540, 153.084 231.794, 154.119 231.716 C 156.686 231.523, 156.546 231.144, 152.300 226.796 L 148.601 223.007 151.800 219.706 C 155.496 215.893, 155.741 215, 153.089 215 C 152.038 215, 150.042 216.350, 148.653 218 C 147.265 219.650, 145.875 221, 145.565 221 C 145.254 221, 145 219.650, 145 218 C 145 215.965, 144.504 215, 143.460 215 C 142.174 215, 141.967 216.353, 142.210 223.170 M 163 216.500 C 163 217.433, 163.944 218, 165.500 218 C 167.929 218, 168 218.200, 168 225 C 168 230.556, 168.310 232, 169.500 232 C 170.690 232, 171 230.556, 171 225 C 171 218.200, 171.071 218, 173.500 218 C 175.056 218, 176 217.433, 176 216.500 C 176 215.321, 174.611 215, 169.500 215 C 164.389 215, 163 215.321, 163 216.500 M 180.455 217.455 C 176.936 220.973, 177.024 227.087, 180.635 229.927 C 188.013 235.731, 197.544 228.555, 193.957 219.896 C 191.781 214.642, 184.571 213.338, 180.455 217.455 M 197.210 223.170 C 197.403 228.599, 197.919 231.478, 198.750 231.753 C 199.569 232.024, 200 231.104, 200 229.083 C 200 225.243, 200.872 225.213, 204.432 228.929 C 205.975 230.540, 208.084 231.794, 209.119 231.716 C 211.686 231.523, 211.546 231.144, 207.300 226.796 L 203.601 223.007 206.800 219.706 C 210.515 215.874, 210.743 215, 208.030 215 C 206.946 215, 205.062 216.350, 203.842 218 C 202.622 219.650, 201.259 221, 200.812 221 C 200.365 221, 200 219.650, 200 218 C 200 215.965, 199.504 215, 198.460 215 C 197.174 215, 196.967 216.353, 197.210 223.170 M 213 223.393 L 213 231.785 219 231.869 C 223.555 231.934, 225 231.612, 225 230.534 C 225 229.580, 223.611 229.014, 220.759 228.807 C 217.665 228.583, 216.427 228.027, 216.185 226.750 C 215.908 225.290, 216.611 225, 220.427 225 C 223.825 225, 225 224.615, 225 223.500 C 225 222.385, 223.825 222, 220.427 222 C 216.611 222, 215.908 221.710, 216.185 220.250 C 216.427 218.973, 217.665 218.417, 220.759 218.193 C 223.645 217.983, 225 217.424, 225 216.443 C 225 215.346, 223.560 215, 219 215 L 213 215 213 223.393 M 229 222.893 C 229 228.987, 229.342 230.917, 230.500 231.362 C 231.690 231.818, 232 231.048, 232 227.635 C 232 225.269, 232.284 223.049, 232.632 222.702 C 232.979 222.354, 235.043 224.304, 237.217 227.035 C 239.391 229.766, 241.582 232, 242.085 232 C 242.588 232, 243 228.175, 243 223.500 C 243 216.611, 242.716 215, 241.500 215 C 240.389 215, 240 216.167, 240 219.500 C 240 221.975, 239.662 223.982, 239.250 223.961 C 238.838 223.940, 237.023 221.915, 235.218 219.461 C 230.259 212.719, 229 213.414, 229 222.893 M 91 220 C 91 221.797, 91.504 222.078, 94.250 221.813 C 96.333 221.613, 97.500 220.961, 97.500 220 C 97.500 219.039, 96.333 218.387, 94.250 218.187 C 91.504 217.922, 91 218.203, 91 220 M 108.571 219.571 C 105.285 222.858, 107.411 229, 111.835 229 C 115.224 229, 117 227.361, 117 224.234 C 117 218.621, 112.185 215.958, 108.571 219.571 M 127.035 219.934 C 125.646 222.530, 125.726 226.326, 127.200 227.800 C 130.219 230.819, 136 227.994, 136 223.500 C 136 218.593, 129.200 215.888, 127.035 219.934 M 182.655 219.829 C 179.346 223.485, 181.628 229, 186.449 229 C 189.311 229, 191.250 226.778, 191.250 223.500 C 191.250 218.349, 186.017 216.114, 182.655 219.829 M 91 227 C 91 228.797, 91.504 229.078, 94.250 228.813 C 96.333 228.613, 97.500 227.961, 97.500 227 C 97.500 226.039, 96.333 225.387, 94.250 225.187 C 91.504 224.922, 91 225.203, 91 227 M 180.252 248.500 C 180.263 250.700, 180.468 251.482, 180.707 250.238 C 180.946 248.994, 180.937 247.194, 180.687 246.238 C 180.437 245.282, 180.241 246.300, 180.252 248.500" stroke="none" fill="black" fill-rule="evenodd"/>
	<path fill-opacity="0.974" d="M 108.362 91.500 C 107.311 94.238, 108.817 95.867, 112.694 96.186 L 116.500 96.500 116.771 116.188 L 117.042 135.877 113.372 136.188 C 109.027 136.557, 106.938 139.016, 108.930 141.416 C 110.093 142.818, 115.336 143, 154.444 143 C 203.657 143, 204.210 142.936, 211.918 136.338 C 218.359 130.825, 220.441 125.997, 220.473 116.500 C 220.504 107.355, 218.803 102.869, 213.164 97.231 C 205.846 89.913, 206.921 90.046, 155.219 90.022 C 114.988 90.003, 108.862 90.196, 108.362 91.500 M 120.732 96.602 C 120.329 97.004, 120 106.033, 120 116.667 L 120 136 159.250 135.978 C 195.271 135.958, 198.829 135.804, 202.500 134.110 C 209.590 130.838, 214 123.930, 214 116.097 C 214 110.779, 212.518 107.170, 208.689 103.165 C 202.154 96.330, 203.558 96.533, 160.482 96.185 C 139.022 96.012, 121.134 96.199, 120.732 96.602 M 127 105.500 C 127 106.807, 131.944 107, 165.500 107 C 199.056 107, 204 106.807, 204 105.500 C 204 104.193, 199.056 104, 165.500 104 C 131.944 104, 127 104.193, 127 105.500 M 127 116.500 C 127 117.843, 131.592 117.992, 165.750 117.762 C 190.953 117.592, 204.413 117.150, 204.250 116.500 C 204.091 115.861, 190.115 115.406, 165.500 115.238 C 131.566 115.008, 127 115.157, 127 116.500 M 127.667 125.667 C 127.300 126.033, 127 126.708, 127 127.167 C 127 127.625, 144.325 128, 165.500 128 C 199.056 128, 204 127.807, 204 126.500 C 204 125.193, 199.130 125, 166.167 125 C 145.358 125, 128.033 125.300, 127.667 125.667 M 108.309 148.636 C 107.294 151.281, 109.434 153.477, 113.351 153.810 L 117 154.121 117 173.500 L 117 192.879 113.351 193.190 C 109.434 193.523, 107.294 195.719, 108.309 198.364 C 108.878 199.845, 113.210 200, 154.103 200 C 185.828 200, 200.436 199.650, 203.193 198.824 C 205.352 198.177, 209.182 195.832, 211.703 193.612 C 226.575 180.521, 223.072 157.250, 205 149.079 C 200.687 147.129, 198.593 147.043, 154.719 147.022 C 113.243 147.002, 108.878 147.154, 108.309 148.636 M 120 173.532 L 120 193.064 160.750 192.782 L 201.500 192.500 204.752 190.180 C 210.581 186.023, 213.343 181.409, 213.802 175.063 C 214.414 166.605, 210.550 159.882, 202.790 155.903 C 199.327 154.127, 196.439 154, 159.540 154 L 120 154 120 173.532 M 127.250 163.250 C 127.574 164.221, 136.122 164.500, 165.500 164.500 C 194.878 164.500, 203.426 164.221, 203.750 163.250 C 204.079 162.264, 195.989 162, 165.500 162 C 135.011 162, 126.921 162.264, 127.250 163.250 M 127 173.500 C 127 174.843, 131.592 174.992, 165.750 174.762 C 190.953 174.592, 204.413 174.150, 204.250 173.500 C 204.091 172.861, 190.115 172.406, 165.500 172.238 C 131.566 172.008, 127 172.157, 127 173.500 M 127.250 184.250 C 127.571 185.215, 136.377 185.560, 165.833 185.762 C 199.341 185.992, 204 185.839, 204 184.512 C 204 183.189, 199.181 183, 165.417 183 C 134.995 183, 126.921 183.264, 127.250 184.250 M 87.999 223.250 L 88 231 93.250 230.985 C 96.138 230.976, 99.046 230.622, 99.713 230.198 C 101.160 229.279, 100.971 218.549, 99.484 217.126 C 98.943 216.608, 96.137 216.030, 93.249 215.842 L 87.999 215.500 87.999 223.250 M 108.315 216.007 C 103.498 217.948, 102.454 225.544, 106.455 229.545 C 109.491 232.582, 113.799 232.733, 117.365 229.927 C 119.491 228.255, 120 227.014, 120 223.500 C 120 216.812, 114.720 213.427, 108.315 216.007 M 127.315 215.969 C 122.324 218.067, 121.306 226.523, 125.635 229.927 C 131.271 234.360, 139 230.734, 139 223.656 C 139 217.525, 133.003 213.579, 127.315 215.969 M 143.193 215.872 C 141.330 217.036, 141.754 231, 143.652 231 C 144.483 231, 145 229.850, 145 228 C 145 224.228, 145.878 224.230, 148.863 228.009 C 150.162 229.654, 152.121 231, 153.216 231 C 154.994 231, 154.875 230.622, 152.104 227.465 C 150.397 225.521, 149 223.673, 149 223.359 C 149 223.045, 150.391 221.031, 152.092 218.884 L 155.184 214.979 152.403 216.037 C 150.874 216.618, 149.007 217.973, 148.255 219.047 C 146.319 221.811, 145.177 221.472, 144.813 218.027 C 144.586 215.870, 144.141 215.278, 143.193 215.872 M 169.250 215.740 C 165.813 215.936, 163 216.524, 163 217.048 C 163 217.571, 164.125 218, 165.500 218 C 167.910 218, 168 218.233, 168 224.500 C 168 229.611, 168.321 231, 169.500 231 C 170.679 231, 171 229.611, 171 224.500 C 171 218.233, 171.090 218, 173.500 218 C 175.056 218, 176 217.433, 176 216.500 C 176 215.675, 175.887 215.087, 175.750 215.193 C 175.613 215.299, 172.688 215.545, 169.250 215.740 M 182.315 216.007 C 179.588 217.106, 178 219.982, 178 223.823 C 178 230.489, 185.935 234.199, 191.250 230.018 C 193.498 228.250, 194 227.060, 194 223.500 C 194 216.812, 188.720 213.427, 182.315 216.007 M 198.210 215.861 C 196.352 217.023, 196.750 231, 198.640 231 C 199.484 231, 200 229.862, 200 228 C 200 224.228, 200.878 224.230, 203.863 228.009 C 205.162 229.654, 207.121 231, 208.216 231 C 209.994 231, 209.875 230.622, 207.104 227.465 C 205.397 225.521, 204 223.599, 204 223.193 C 204 222.787, 205.347 220.821, 206.994 218.823 C 209.438 215.858, 209.638 215.282, 208.080 215.689 C 207.031 215.964, 205.155 217.271, 203.912 218.594 C 200.961 221.735, 200.193 221.629, 199.813 218.027 C 199.588 215.890, 199.137 215.281, 198.210 215.861 M 213 223.250 L 213 231 219 231 C 222.333 231, 225 230.556, 225 230 C 225 229.450, 222.975 229, 220.500 229 C 216.667 229, 216 228.704, 216 227 C 216 225.296, 216.667 225, 220.500 225 C 223.833 225, 225 224.611, 225 223.500 C 225 222.389, 223.833 222, 220.500 222 C 216.667 222, 216 221.704, 216 220 C 216 218.296, 216.667 218, 220.500 218 C 223.433 218, 225 217.565, 225 216.750 C 225 215.889, 223.133 215.500, 219 215.500 L 213 215.500 213 223.250 M 230.250 215.697 C 229.405 216.015, 229 218.567, 229 223.583 C 229 229.509, 229.301 231, 230.500 231 C 231.611 231, 232 229.833, 232 226.500 C 232 224.025, 232.366 222, 232.814 222 C 233.262 222, 235.146 224.025, 237 226.500 C 241.946 233.102, 243 232.516, 243 223.167 C 243 216.870, 242.706 215.333, 241.500 215.333 C 240.397 215.333, 240 216.481, 240 219.667 C 240 222.050, 239.550 224, 239 224 C 238.450 224, 237.983 223.662, 237.962 223.250 C 237.879 221.590, 231.415 215.260, 230.250 215.697 M 91 220 C 91 221.797, 91.504 222.078, 94.250 221.813 C 96.333 221.613, 97.500 220.961, 97.500 220 C 97.500 219.039, 96.333 218.387, 94.250 218.187 C 91.504 217.922, 91 218.203, 91 220 M 108.200 219.200 C 107.540 219.860, 107 221.859, 107 223.643 C 107 229.955, 113.736 231.390, 116.941 225.761 C 118.219 223.515, 118.188 222.936, 116.667 220.615 C 114.809 217.780, 110.363 217.037, 108.200 219.200 M 126.997 219.503 C 126.311 220.330, 125.750 222.128, 125.750 223.500 C 125.750 226.933, 127.723 229, 131 229 C 134.277 229, 136.250 226.933, 136.250 223.500 C 136.250 220.067, 134.277 218, 131 218 C 129.485 218, 127.684 218.676, 126.997 219.503 M 182.035 219.934 C 180.561 222.689, 180.756 226.552, 182.440 227.950 C 184.793 229.903, 189.268 228.802, 190.909 225.865 C 192.227 223.505, 192.202 222.958, 190.667 220.615 C 188.543 217.373, 183.614 216.984, 182.035 219.934 M 91 226.500 C 91 228.617, 91.465 229, 94.031 229 C 95.888 229, 97.301 228.380, 97.677 227.399 C 98.395 225.528, 96.444 224.037, 93.250 224.015 C 91.513 224.003, 91 224.570, 91 226.500" stroke="none" fill="black" fill-rule="evenodd"/>
</svg>