<?xml version="1.0"?><svg xmlns="http://www.w3.org/2000/svg" width="36" height="36" shape-rendering="geometricPrecision" text-rendering="geometricPrecision" image-rendering="optimizeQuality" fill-rule="evenodd" clip-rule="evenodd" viewBox="0 0 36 36"><path fill="#fefefe" d="m-0.1-0.1h36v36h-36v-36z"></path><path fill="#939393" d="m13 10.9c0.1 1.4 0.1 2.9 0.1 4.3h-0.8c0.2-0.1 0.4-0.1 0.7-0.1v-4.2z"></path><path fill="#171717" d="m12.3 15.2h0.8c0-1.4 0-2.9-0.1-4.3-0.7 0.1-1-0.2-0.8-0.8 3.4-0.2 6.8-0.2 10.2-0.1 2.3 0.9 2.9 2.4 2 4.7-0.5 0.7-1.1 1.1-2 1.3-3.4 0.1-6.8 0.1-10.2 0-0.2-0.3-0.1-0.6 0.1-0.8z"></path><path fill="#a0a0a0" d="m13.6 10.9v4.2h8.5c-2.9 0.1-5.7 0.2-8.7 0.1 0-1.4 0-2.9 0.2-4.3z"></path><path fill="#f5f5f5" d="m13.6 10.9c3-0.1 6.1 0 9.2 0.1 1.4 1 1.6 2.2 0.5 3.6-0.3 0.3-0.7 0.5-1.2 0.5h-8.5v-4.2z"></path><path fill="#181818" d="m14.2 14c2.9 0 5.8 0 8.7 0.1 0.1 0.1 0.1 0.2 0 0.3-2.9 0.1-5.8 0.1-8.7 0.1v-0.5z"></path><path fill="#aaa" d="m14.2 12.9v0.3c3 0.1 5.9 0 8.8-0.1-2.9 0.2-5.8 0.3-8.8 0.3-0.1-0.2-0.1-0.4 0-0.5z"></path><path fill="#202020" d="m23 13.1c-2.9 0.1-5.8 0.2-8.8 0.1v-0.3c2.9-0.1 5.8-0.2 8.7-0.1 0.1 0.1 0.1 0.2 0.1 0.3z"></path><path fill="#1e1e1e" d="m14.2 11.6c2.9 0 5.8 0 8.7 0.1 0.1 0.1 0.1 0.2 0 0.3-2.9 0.1-5.8 0.1-8.7 0.1v-0.5z"></path><path fill="#181818" d="m13 21.7c0.1-1.5 0.1-2.9 0.1-4.4h-0.8c-0.2-0.3-0.3-0.5-0.1-0.8 3.4-0.2 6.8-0.2 10.2-0.1 2.3 0.9 2.9 2.4 2 4.7-0.5 0.8-1.2 1.2-2.2 1.4-3.3 0.1-6.6 0.1-9.9 0-0.2-0.2-0.3-0.5-0.1-0.7 0.3-0.1 0.5-0.2 0.8-0.1z"></path><path fill="#adadad" d="m22.4 17.4h-8.8v4.1h8.8c-2.9 0.2-5.9 0.2-9 0.2v-4.4c3.1-0.1 6.1 0 9 0.1z"></path><path fill="#f2f2f2" d="m22.4 17.4c1.4 0.5 1.9 1.5 1.4 2.9-0.1 0-0.1 0-0.2-0.1l-0.4 0.6c-0.1-0.1-0.1-0.2-0.2-0.3-2.9-0.1-5.8-0.1-8.8-0.1v0.5c2.9 0.1 5.7 0.1 8.6 0.1-0.1 0.2-0.2 0.4-0.4 0.5h-8.8v-4.1h8.8z"></path><path fill="#929292" d="m12.3 17.3h0.8c0 1.5 0 2.9-0.1 4.4v-4.3c-0.3 0-0.5 0-0.7-0.1z"></path><path fill="#1d1d1d" d="m14.2 18.1c2.9-0.1 5.8 0 8.7 0 0.1 0.1 0.1 0.2 0 0.3-2.9 0.1-5.8 0.1-8.7 0.1v-0.4z"></path><path d="m22.9 19.4c-2.9 0-5.7 0-8.6 0.1 2.9 0 5.8 0 8.6 0.1h-8.7v-0.3c2.9 0 5.8 0 8.7 0.1z"></path><path fill="#262626" d="m22.9 19.4c0.1 0.1 0.1 0.2 0 0.2-2.8-0.1-5.7-0.1-8.6-0.1 2.9-0.1 5.7-0.1 8.6-0.1z"></path><path fill="#202020" d="m23 20.5c0 0.1 0 0.2-0.1 0.3-2.9 0.1-5.8 0.1-8.7 0.1v-0.5c3 0 5.9 0 8.8 0.1z"></path><path fill="#cecece" d="m23.8 20.3c-0.2 0.7-0.7 1.1-1.4 1.2 0.2-0.1 0.3-0.3 0.4-0.5-2.9 0-5.7 0-8.6-0.1 2.9 0 5.8 0 8.7-0.1 0.1-0.1 0.1-0.2 0.1-0.3 0.1 0.1 0.1 0.2 0.2 0.3l0.4-0.6c0.1 0.1 0.1 0.1 0.2 0.1z"></path><path fill="#e3e3e3" d="m17.4 24.4c-0.1-0.3-0.2-0.3-0.5-0.2-0.2 0.2-0.4 0.4-0.5 0.6-0.1-0.2-0.2-0.4-0.1-0.7h-0.4v1.9c-0.2 0-0.3 0-0.4-0.2-0.1 0.1-0.1 0.1-0.3 0.1 0.5-0.6 0.5-1.2-0.1-1.8 0.3-0.1 0.5-0.2 0.8-0.3 0.2 0.3 0.4 0.3 0.7 0 0.3 0.2 0.6 0.2 0.9 0.2 0 0.2 0 0.3-0.1 0.4z"></path><path fill="#6b6b6b" d="m9.8 24.1v1.8h1.2c-0.4 0.1-0.8 0.2-1.3 0.1 0-0.6 0-1.3 0.1-1.9z"></path><path fill="#141414" d="m18.3 24.1h1.4v0.4h-0.5v1.4h-0.4v-1.4h-0.5v-0.4z"></path><path fill="#b8b8b8" d="m27.3 24.1c0.1 0.6 0.1 1.3 0.1 1.9-0.2 0.1-0.3 0-0.5-0.1h0.4v-1.8z"></path><path fill="#b9b9b9" d="m12.9 24.1c0.2 0 0.4 0 0.5 0.1l-0.1 0.1c0.2 0.2 0.5 0.2 0.7 0.1-0.2 0.3-0.3 0.6-0.2 1-0.1-0.2-0.2-0.5-0.2-0.7 0 0.3-0.1 0.5-0.2 0.8 0.2-0.6 0-1.1-0.5-1.4z"></path><path fill="#989898" d="m25.3 24.1c0.1 0.2 0.1 0.3 0.1 0.5-0.4-0.1-0.7 0-1 0.1 0.3 0.1 0.6 0.1 0.9 0.2h-1.1v-0.4h1.1v-0.4z"></path><path fill="#151515" d="m9.8 24.1c0.6 0 1 0.1 1.5 0.3-0.1 0.4-0.1 0.9 0 1.4-0.1 0.1-0.2 0.1-0.3 0.1h-1.2v-1.8z"></path><path fill="#d1d1d1" d="m10.2 24.5h0.7v0.4h-0.7v-0.4z"></path><path fill="#191919" d="m17.4 24.4c-0.3 0.1-0.5 0.4-0.7 0.6l0.8 0.9c-0.1 0.2-0.3 0.2-0.5 0.1-0.2-0.2-0.4-0.4-0.6-0.6-0.1 0.1-0.2 0.3-0.1 0.5h-0.4v-1.8h0.4c-0.1 0.3 0 0.5 0.1 0.7 0.1-0.2 0.3-0.4 0.5-0.6 0.3-0.1 0.4-0.1 0.5 0.2z"></path><path fill="#1b1b1b" d="m22.6 25.4c-0.2 0.1-0.2 0.3-0.2 0.5h-0.3v-1.8h0.3c0 0.3 0 0.5 0.2 0.7 0.1-0.2 0.3-0.4 0.5-0.6 0.2-0.1 0.3-0.1 0.5 0l-0.7 0.8 0.8 0.9c-0.2 0.2-0.3 0.2-0.5 0.1-0.2-0.2-0.4-0.4-0.6-0.6z"></path><path fill="#919191" d="m18.3 24.1v0.4h0.5v1.4h0.4c-0.1 0.1-0.3 0.2-0.5 0.1v-1.4h-0.5c-0.1-0.2 0-0.3 0.1-0.5z"></path><path fill="#121212" d="m25.3 24.1v0.4h-1.1v0.4h1.1v0.4h-0.9c-0.1 0.1-0.2 0.2-0.2 0.4 0.4 0 0.7 0 1.1 0.1-0.5 0.1-0.9 0.2-1.4 0.1v-1.8h1.4z"></path><path fill="#dedede" d="m10.2 25.3c0.2-0.1 0.4 0 0.7 0 0.1 0.1 0.1 0.2 0 0.3-0.3 0.1-0.5 0.1-0.7 0.1v-0.4z m2.7-1.2c-1 0-1.4 0.5-1.2 1.5 0.1 0.1 0.2 0.2 0.3 0.3l-0.7-0.1c-0.1-0.5-0.1-1 0-1.4 0.1-0.1 0.3-0.1 0.5-0.1-0.2-0.2-0.2-0.3 0.1-0.3-0.3-0.1-0.3-0.2-0.1-0.2 0.4 0.2 0.7 0.3 1.1 0.3z"></path><path fill="#707070" d="m26.3 25c-0.1 0.3-0.2 0.7-0.1 1-0.2 0.1-0.4 0-0.5-0.1h0.3c0-0.3 0-0.7 0.2-1 0 0 0.1 0.1 0.1 0.1z"></path><path fill="#141414" d="m27.3 24.1v1.8h-0.4l-0.6-0.9c0 0-0.1-0.1-0.1-0.1-0.2 0.3-0.2 0.7-0.2 1h-0.3v-1.8c0.1 0 0.2 0 0.3 0.1 0.3 0.3 0.6 0.6 0.8 0.9 0.1-0.3 0.2-0.6 0.1-1h0.4z"></path><path fill="#191919" d="m20.4 24.1c1.1-0.2 1.5 0.3 1.4 1.3-0.3 0.6-0.7 0.8-1.4 0.6-0.6-0.6-0.6-1.2 0-1.9z"></path><path fill="#eaeaea" d="m20.6 24.5c0.7 0 1 0.3 0.8 1-0.4 0.3-0.7 0.3-1-0.1-0.1-0.4-0.1-0.7 0.2-0.9z"></path><path fill="#7f7f7f" d="m22.6 25.4v0.6c-0.2 0.1-0.4 0-0.5-0.1h0.3c0-0.2 0-0.4 0.2-0.5z"></path><path fill="#737373" d="m24.4 25.3v0.3h1v0.4c-0.5 0.1-1 0-1.5-0.1 0.5 0.1 0.9 0 1.4-0.1-0.4-0.1-0.7-0.1-1.1-0.1 0-0.2 0.1-0.3 0.2-0.4z"></path><path fill="#181818" d="m12.9 24.1c0.5 0.3 0.7 0.8 0.5 1.4 0 0.2-0.2 0.4-0.4 0.5-0.4 0.1-0.7 0.1-1-0.1-0.1-0.1-0.2-0.2-0.3-0.3-0.2-1 0.2-1.5 1.2-1.5z"></path><path fill="#e9e9e9" d="m12.3 24.5c0.7 0 0.9 0.3 0.7 1-0.7 0.4-1.1 0.2-1-0.7 0.1-0.1 0.2-0.2 0.3-0.3z"></path><path fill="#161616" d="m15.1 24.1c0.6 0.6 0.6 1.2 0.1 1.8-0.6 0.3-1.1 0.1-1.4-0.5-0.1-0.4 0-0.7 0.2-1 0.3-0.2 0.7-0.3 1.1-0.3z"></path><path fill="#e7e7e7" d="m14.3 24.5c0.9 0 1.1 0.4 0.7 1.1-0.9 0.1-1.1-0.3-0.7-1.1z"></path><path fill="#7c7c7c" d="m16.4 25.4v0.6h-0.5v-0.1h0.4c-0.1-0.2 0-0.4 0.1-0.5z"></path><path fill="#707070" d="m19.6 27.4c0.9-0.1 1.1-0.1 0.7 0 0 1.6-0.1 1.6-0.1 0h-0.6z"></path><path fill="#8b8b8b" d="m16.3 27.3c0.1 0.3 0.3 0.6 0.5 1 0.1-0.4 0.2-0.7 0.4-1 0.2 0.3 0.3 0.6 0.5 1 0.1-0.4 0.2-0.7 0.4-1l0.1 0.1c-0.2 0.4-0.3 0.8-0.4 1.2h-0.3c-0.2-1.2-0.4-1.2-0.6 0-0.1 0.1-0.2 0-0.3-0.1-0.2-0.4-0.3-0.8-0.3-1.2z"></path><path fill="#aaa" d="m10.4 27.8c1.6 0 3.2 0 4.8 0.2l-2.4 0.1c-0.8 0-1.6-0.1-2.4-0.3z m11.1 0c1.8 0 3.6 0 5.4 0.2l-2.7 0.1c-0.9 0-1.8-0.1-2.7-0.3z"></path><path fill="#929292" d="m18.4 27.3c0.3 0 0.6 0 0.9 0 0.3 0.3 0.2 0.6-0.1 0.9 0.1 0.1 0.2 0.3 0.3 0.4-0.3-0.2-0.6-0.3-0.9-0.4 0 0.1 0 0.3-0.1 0.4-0.1-0.4-0.1-0.9-0.1-1.3z"></path><path fill="#f5f5f5" d="m18.6 27.4c0.5-0.1 0.7 0.1 0.7 0.6h-0.7v-0.6z"></path></svg>