<?xml version="1.0" encoding="UTF-8"?>
<!DOCTYPE svg PUBLIC "-//W3C//DTD SVG 1.1//EN" "http://www.w3.org/Graphics/SVG/1.1/DTD/svg11.dtd">
<svg xmlns="http://www.w3.org/2000/svg" version="1.1" width="320px" height="320px" style="shape-rendering:geometricPrecision; text-rendering:geometricPrecision; image-rendering:optimizeQuality; fill-rule:evenodd; clip-rule:evenodd" xmlns:xlink="http://www.w3.org/1999/xlink">
<g><path style="opacity:1" fill="#fefefe" d="M -0.5,-0.5 C 106.167,-0.5 212.833,-0.5 319.5,-0.5C 319.5,106.167 319.5,212.833 319.5,319.5C 212.833,319.5 106.167,319.5 -0.5,319.5C -0.5,212.833 -0.5,106.167 -0.5,-0.5 Z"/></g>
<g><path style="opacity:1" fill="#939393" d="M 115.5,96.5 C 116.495,109.323 116.829,122.323 116.5,135.5C 114.167,135.5 111.833,135.5 109.5,135.5C 111.265,134.539 113.265,134.205 115.5,134.5C 115.5,121.833 115.5,109.167 115.5,96.5 Z"/></g>
<g><path style="opacity:1" fill="#171717" d="M 109.5,135.5 C 111.833,135.5 114.167,135.5 116.5,135.5C 116.829,122.323 116.495,109.323 115.5,96.5C 109.299,97.6346 106.965,95.3013 108.5,89.5C 138.828,88.3335 169.161,88.1668 199.5,89C 219.464,96.77 225.297,110.603 217,130.5C 212.79,136.695 206.956,140.528 199.5,142C 169.167,142.667 138.833,142.667 108.5,142C 106.98,139.448 107.313,137.282 109.5,135.5 Z"/></g>
<g><path style="opacity:1" fill="#a0a0a0" d="M 120.5,96.5 C 120.5,109.167 120.5,121.833 120.5,134.5C 145.833,134.5 171.167,134.5 196.5,134.5C 171.005,135.498 145.339,135.831 119.5,135.5C 119.171,122.323 119.505,109.323 120.5,96.5 Z"/></g>
<g><path style="opacity:1" fill="#f5f5f5" d="M 120.5,96.5 C 147.884,96.0347 175.218,96.5347 202.5,98C 215.13,106.972 216.797,117.638 207.5,130C 204.271,132.616 200.604,134.116 196.5,134.5C 171.167,134.5 145.833,134.5 120.5,134.5C 120.5,121.833 120.5,109.167 120.5,96.5 Z"/></g>
<g><path style="opacity:1" fill="#181818" d="M 126.5,124.5 C 152.169,124.333 177.835,124.5 203.5,125C 204.833,126 204.833,127 203.5,128C 177.835,128.5 152.169,128.667 126.5,128.5C 126.5,127.167 126.5,125.833 126.5,124.5 Z"/></g>
<g><path style="opacity:1" fill="#aaaaaa" d="M 126.5,114.5 C 126.5,115.5 126.5,116.5 126.5,117.5C 152.574,117.824 178.574,117.49 204.5,116.5C 178.614,118.171 152.447,119.171 126,119.5C 125.22,117.613 125.387,115.946 126.5,114.5 Z"/></g>
<g><path style="opacity:1" fill="#202020" d="M 204.5,116.5 C 178.574,117.49 152.574,117.824 126.5,117.5C 126.5,116.5 126.5,115.5 126.5,114.5C 151.997,113.337 177.663,113.17 203.5,114C 204.252,114.671 204.586,115.504 204.5,116.5 Z"/></g>
<g><path style="opacity:1" fill="#1e1e1e" d="M 126.5,103.5 C 152.169,103.333 177.835,103.5 203.5,104C 204.833,105 204.833,106 203.5,107C 177.835,107.5 152.169,107.667 126.5,107.5C 126.5,106.167 126.5,104.833 126.5,103.5 Z"/></g>
<g><path style="opacity:1" fill="#181818" d="M 115.5,192.5 C 116.495,179.677 116.829,166.677 116.5,153.5C 114.167,153.5 111.833,153.5 109.5,153.5C 107.406,151.449 107.073,149.116 108.5,146.5C 138.828,145.333 169.161,145.167 199.5,146C 219.43,153.708 225.263,167.541 217,187.5C 212.357,194.461 205.857,198.628 197.5,200C 168.167,200.667 138.833,200.667 109.5,200C 107.424,198.116 107.09,195.949 108.5,193.5C 110.747,192.626 113.08,192.292 115.5,192.5 Z"/></g>
<g><path style="opacity:1" fill="#adadad" d="M 199.5,154.5 C 173.167,154.5 146.833,154.5 120.5,154.5C 120.5,166.833 120.5,179.167 120.5,191.5C 146.833,191.5 173.167,191.5 199.5,191.5C 173.005,192.498 146.339,192.831 119.5,192.5C 119.5,179.5 119.5,166.5 119.5,153.5C 146.339,153.169 173.005,153.502 199.5,154.5 Z"/></g>
<g><path style="opacity:1" fill="#f2f2f2" d="M 199.5,154.5 C 211.691,159.542 215.691,168.208 211.5,180.5C 210.883,180.389 210.383,180.056 210,179.5C 208.667,181.167 207.333,182.833 206,184.5C 205.722,183.584 205.222,182.918 204.5,182.5C 178.574,181.51 152.574,181.176 126.5,181.5C 126.5,182.833 126.5,184.167 126.5,185.5C 151.663,186.332 176.997,186.832 202.5,187C 201.614,188.615 200.614,190.115 199.5,191.5C 173.167,191.5 146.833,191.5 120.5,191.5C 120.5,179.167 120.5,166.833 120.5,154.5C 146.833,154.5 173.167,154.5 199.5,154.5 Z"/></g>
<g><path style="opacity:1" fill="#929292" d="M 109.5,153.5 C 111.833,153.5 114.167,153.5 116.5,153.5C 116.829,166.677 116.495,179.677 115.5,192.5C 115.5,179.833 115.5,167.167 115.5,154.5C 113.265,154.795 111.265,154.461 109.5,153.5 Z"/></g>
<g><path style="opacity:1" fill="#1d1d1d" d="M 126.5,160.5 C 152.169,160.333 177.835,160.5 203.5,161C 204.833,162 204.833,163 203.5,164C 177.835,164.5 152.169,164.667 126.5,164.5C 126.5,163.167 126.5,161.833 126.5,160.5 Z"/></g>
<g><path style="opacity:1" fill="#000000" d="M 203.5,172.5 C 178.164,172.333 152.831,172.5 127.5,173C 153.003,173.168 178.337,173.668 203.5,174.5C 177.833,174.5 152.167,174.5 126.5,174.5C 126.5,173.5 126.5,172.5 126.5,171.5C 152.339,171.169 178.005,171.502 203.5,172.5 Z"/></g>
<g><path style="opacity:1" fill="#262626" d="M 203.5,172.5 C 204.833,173.167 204.833,173.833 203.5,174.5C 178.337,173.668 153.003,173.168 127.5,173C 152.831,172.5 178.164,172.333 203.5,172.5 Z"/></g>
<g><path style="opacity:1" fill="#202020" d="M 204.5,182.5 C 204.586,183.496 204.252,184.329 203.5,185C 177.835,185.5 152.169,185.667 126.5,185.5C 126.5,184.167 126.5,182.833 126.5,181.5C 152.574,181.176 178.574,181.51 204.5,182.5 Z"/></g>
<g><path style="opacity:1" fill="#cecece" d="M 211.5,180.5 C 209.43,186.235 205.43,189.902 199.5,191.5C 200.614,190.115 201.614,188.615 202.5,187C 176.997,186.832 151.663,186.332 126.5,185.5C 152.169,185.667 177.835,185.5 203.5,185C 204.252,184.329 204.586,183.496 204.5,182.5C 205.222,182.918 205.722,183.584 206,184.5C 207.333,182.833 208.667,181.167 210,179.5C 210.383,180.056 210.883,180.389 211.5,180.5 Z"/></g>
<g><path style="opacity:1" fill="#e3e3e3" d="M 154.5,216.5 C 153.796,214.656 152.463,214.156 150.5,215C 148.649,216.684 146.982,218.517 145.5,220.5C 144.534,218.604 144.201,216.604 144.5,214.5C 143.5,214.5 142.5,214.5 141.5,214.5C 141.5,219.833 141.5,225.167 141.5,230.5C 141.5,230.833 141.5,231.167 141.5,231.5C 139.983,231.489 138.816,230.823 138,229.5C 137.329,230.252 136.496,230.586 135.5,230.5C 139.787,224.818 139.454,219.485 134.5,214.5C 136.616,213.547 138.782,212.547 141,211.5C 143.043,213.967 145.21,213.967 147.5,211.5C 149.943,213.055 152.61,213.722 155.5,213.5C 155.737,214.791 155.404,215.791 154.5,216.5 Z"/></g>
<g><path style="opacity:1" fill="#6b6b6b" d="M 87.5,214.5 C 87.5,219.833 87.5,225.167 87.5,230.5C 90.8333,230.5 94.1667,230.5 97.5,230.5C 94.0381,231.482 90.3714,231.815 86.5,231.5C 86.1778,225.642 86.5111,219.975 87.5,214.5 Z"/></g>
<g><path style="opacity:1" fill="#141414" d="M 162.5,214.5 C 166.833,214.5 171.167,214.5 175.5,214.5C 175.5,215.5 175.5,216.5 175.5,217.5C 173.833,217.5 172.167,217.5 170.5,217.5C 170.5,221.833 170.5,226.167 170.5,230.5C 169.5,230.5 168.5,230.5 167.5,230.5C 167.5,226.167 167.5,221.833 167.5,217.5C 165.833,217.5 164.167,217.5 162.5,217.5C 162.5,216.5 162.5,215.5 162.5,214.5 Z"/></g>
<g><path style="opacity:1" fill="#b8b8b8" d="M 242.5,214.5 C 243.489,219.975 243.822,225.642 243.5,231.5C 241.901,231.768 240.568,231.434 239.5,230.5C 240.5,230.5 241.5,230.5 242.5,230.5C 242.5,225.167 242.5,219.833 242.5,214.5 Z"/></g>
<g><path style="opacity:1" fill="#b9b9b9" d="M 114.5,214.5 C 116.199,214.34 117.866,214.506 119.5,215C 119.167,215.333 118.833,215.667 118.5,216C 120.305,217.441 122.305,217.608 124.5,216.5C 122.732,219.162 122.065,222.162 122.5,225.5C 121.691,223.708 121.191,221.708 121,219.5C 120.814,222.036 120.314,224.369 119.5,226.5C 120.698,221.121 119.031,217.121 114.5,214.5 Z"/></g>
<g><path style="opacity:1" fill="#989898" d="M 224.5,214.5 C 225.434,215.568 225.768,216.901 225.5,218.5C 222.428,218.183 219.428,218.516 216.5,219.5C 219.306,220.168 221.972,220.834 224.5,221.5C 221.5,221.5 218.5,221.5 215.5,221.5C 215.5,220.167 215.5,218.833 215.5,217.5C 218.5,217.5 221.5,217.5 224.5,217.5C 224.5,216.5 224.5,215.5 224.5,214.5 Z"/></g>
<g><path style="opacity:1" fill="#151515" d="M 87.5,214.5 C 92.0711,214.054 96.4044,214.72 100.5,216.5C 99.4624,220.795 99.4624,225.129 100.5,229.5C 99.609,230.11 98.609,230.443 97.5,230.5C 94.1667,230.5 90.8333,230.5 87.5,230.5C 87.5,225.167 87.5,219.833 87.5,214.5 Z"/></g>
<g><path style="opacity:1" fill="#d1d1d1" d="M 90.5,217.5 C 92.5,217.5 94.5,217.5 96.5,217.5C 96.5,218.833 96.5,220.167 96.5,221.5C 94.5,221.5 92.5,221.5 90.5,221.5C 90.5,220.167 90.5,218.833 90.5,217.5 Z"/></g>
<g><path style="opacity:1" fill="#191919" d="M 154.5,216.5 C 152.188,218.146 150.188,220.146 148.5,222.5C 150.833,225.167 153.167,227.833 155.5,230.5C 154.277,231.614 152.944,231.781 151.5,231C 149.63,228.96 147.63,227.127 145.5,225.5C 144.549,226.919 144.216,228.585 144.5,230.5C 143.5,230.5 142.5,230.5 141.5,230.5C 141.5,225.167 141.5,219.833 141.5,214.5C 142.5,214.5 143.5,214.5 144.5,214.5C 144.201,216.604 144.534,218.604 145.5,220.5C 146.982,218.517 148.649,216.684 150.5,215C 152.463,214.156 153.796,214.656 154.5,216.5 Z"/></g>
<g><path style="opacity:1" fill="#1b1b1b" d="M 200.5,225.5 C 199.549,226.919 199.216,228.585 199.5,230.5C 198.5,230.5 197.5,230.5 196.5,230.5C 196.5,225.167 196.5,219.833 196.5,214.5C 197.5,214.5 198.5,214.5 199.5,214.5C 199.201,216.604 199.534,218.604 200.5,220.5C 201.982,218.517 203.649,216.684 205.5,215C 206.944,214.219 208.277,214.386 209.5,215.5C 207.5,217.833 205.5,220.167 203.5,222.5C 205.833,225.167 208.167,227.833 210.5,230.5C 209.277,231.614 207.944,231.781 206.5,231C 204.63,228.96 202.63,227.127 200.5,225.5 Z"/></g>
<g><path style="opacity:1" fill="#919191" d="M 162.5,214.5 C 162.5,215.5 162.5,216.5 162.5,217.5C 164.167,217.5 165.833,217.5 167.5,217.5C 167.5,221.833 167.5,226.167 167.5,230.5C 168.5,230.5 169.5,230.5 170.5,230.5C 169.432,231.434 168.099,231.768 166.5,231.5C 166.5,227.167 166.5,222.833 166.5,218.5C 164.833,218.5 163.167,218.5 161.5,218.5C 161.232,216.901 161.566,215.568 162.5,214.5 Z"/></g>
<g><path style="opacity:1" fill="#121212" d="M 224.5,214.5 C 224.5,215.5 224.5,216.5 224.5,217.5C 221.5,217.5 218.5,217.5 215.5,217.5C 215.5,218.833 215.5,220.167 215.5,221.5C 218.5,221.5 221.5,221.5 224.5,221.5C 224.5,222.5 224.5,223.5 224.5,224.5C 221.833,224.5 219.167,224.5 216.5,224.5C 215.566,225.568 215.232,226.901 215.5,228.5C 218.572,228.183 221.572,228.516 224.5,229.5C 220.555,230.491 216.555,230.824 212.5,230.5C 212.5,225.167 212.5,219.833 212.5,214.5C 216.5,214.5 220.5,214.5 224.5,214.5 Z"/></g>
<g><path style="opacity:1" fill="#dedede" d="M 90.5,224.5 C 92.5273,224.338 94.5273,224.505 96.5,225C 97.8333,226 97.8333,227 96.5,228C 94.5273,228.495 92.5273,228.662 90.5,228.5C 90.5,227.167 90.5,225.833 90.5,224.5 Z"/></g>
<g><path style="opacity:1" fill="#dedede" d="M 114.5,214.5 C 105.351,214.156 101.851,218.489 104,227.5C 105.045,228.373 105.878,229.373 106.5,230.5C 104.5,230.167 102.5,229.833 100.5,229.5C 99.4624,225.129 99.4624,220.795 100.5,216.5C 101.552,216.229 102.885,216.062 104.5,216C 103.185,214.605 103.519,213.605 105.5,213C 103.405,212.444 103.238,211.944 105,211.5C 108.116,212.909 111.282,213.909 114.5,214.5 Z"/></g>
<g><path style="opacity:1" fill="#707070" d="M 233.5,222.5 C 232.523,225.287 232.19,228.287 232.5,231.5C 230.901,231.768 229.568,231.434 228.5,230.5C 229.5,230.5 230.5,230.5 231.5,230.5C 231.183,227.428 231.516,224.428 232.5,221.5C 233.107,221.624 233.44,221.957 233.5,222.5 Z"/></g>
<g><path style="opacity:1" fill="#141414" d="M 242.5,214.5 C 242.5,219.833 242.5,225.167 242.5,230.5C 241.5,230.5 240.5,230.5 239.5,230.5C 237.5,227.833 235.5,225.167 233.5,222.5C 233.44,221.957 233.107,221.624 232.5,221.5C 231.516,224.428 231.183,227.428 231.5,230.5C 230.5,230.5 229.5,230.5 228.5,230.5C 228.5,225.167 228.5,219.833 228.5,214.5C 229.552,214.351 230.552,214.517 231.5,215C 233.714,217.925 236.047,220.759 238.5,223.5C 239.484,220.572 239.817,217.572 239.5,214.5C 240.5,214.5 241.5,214.5 242.5,214.5 Z"/></g>
<g><path style="opacity:1" fill="#191919" d="M 181.5,214.5 C 190.679,212.856 194.846,216.523 194,225.5C 191.528,230.781 187.361,232.614 181.5,231C 176.276,225.574 176.276,220.074 181.5,214.5 Z"/></g>
<g><path style="opacity:1" fill="#eaeaea" d="M 183.5,217.5 C 189.501,217.457 191.668,220.457 190,226.5C 186.706,229.311 183.706,228.978 181,225.5C 180.018,222.225 180.851,219.559 183.5,217.5 Z"/></g>
<g><path style="opacity:1" fill="#7f7f7f" d="M 200.5,225.5 C 200.5,227.5 200.5,229.5 200.5,231.5C 198.901,231.768 197.568,231.434 196.5,230.5C 197.5,230.5 198.5,230.5 199.5,230.5C 199.216,228.585 199.549,226.919 200.5,225.5 Z"/></g>
<g><path style="opacity:1" fill="#737373" d="M 216.5,224.5 C 216.5,225.5 216.5,226.5 216.5,227.5C 219.5,227.5 222.5,227.5 225.5,227.5C 225.5,228.833 225.5,230.167 225.5,231.5C 220.968,231.818 216.634,231.485 212.5,230.5C 216.555,230.824 220.555,230.491 224.5,229.5C 221.572,228.516 218.572,228.183 215.5,228.5C 215.232,226.901 215.566,225.568 216.5,224.5 Z"/></g>
<g><path style="opacity:1" fill="#181818" d="M 114.5,214.5 C 119.031,217.121 120.698,221.121 119.5,226.5C 118.977,228.708 117.644,230.208 115.5,231C 112.408,231.736 109.408,231.569 106.5,230.5C 105.878,229.373 105.045,228.373 104,227.5C 101.851,218.489 105.351,214.156 114.5,214.5 Z"/></g>
<g><path style="opacity:1" fill="#e9e9e9" d="M 109.5,217.5 C 115.501,217.457 117.668,220.457 116,226.5C 109.086,230.504 106.086,228.504 107,220.5C 107.698,219.309 108.531,218.309 109.5,217.5 Z"/></g>
<g><path style="opacity:1" fill="#161616" d="M 134.5,214.5 C 139.454,219.485 139.787,224.818 135.5,230.5C 129.458,232.901 125.124,231.235 122.5,225.5C 122.065,222.162 122.732,219.162 124.5,216.5C 127.505,214.701 130.838,214.034 134.5,214.5 Z"/></g>
<g><path style="opacity:1" fill="#e7e7e7" d="M 127.5,217.5 C 135.314,217.625 137.314,221.125 133.5,228C 125.281,228.505 123.281,225.005 127.5,217.5 Z"/></g>
<g><path style="opacity:1" fill="#7c7c7c" d="M 145.5,225.5 C 145.5,227.5 145.5,229.5 145.5,231.5C 144.167,231.5 142.833,231.5 141.5,231.5C 141.5,231.167 141.5,230.833 141.5,230.5C 142.5,230.5 143.5,230.5 144.5,230.5C 144.216,228.585 144.549,226.919 145.5,225.5 Z"/></g>
<g><path style="opacity:1" fill="#707070" d="M 174.5,243.5 C 182.148,242.307 184.148,242.307 180.5,243.5C 180.167,258.167 179.833,258.167 179.5,243.5C 177.833,243.5 176.167,243.5 174.5,243.5 Z"/></g>
<g><path style="opacity:1" fill="#8b8b8b" d="M 144.5,242.5 C 146.143,245.314 147.643,248.314 149,251.5C 149.875,248.372 151.042,245.372 152.5,242.5C 154.446,245.307 155.946,248.307 157,251.5C 157.875,248.372 159.042,245.372 160.5,242.5C 160.833,242.833 161.167,243.167 161.5,243.5C 160.191,247.107 159.191,250.774 158.5,254.5C 157.5,254.5 156.5,254.5 155.5,254.5C 153.762,243.908 152.095,243.908 150.5,254.5C 149.325,254.719 148.325,254.386 147.5,253.5C 146.03,249.952 145.03,246.285 144.5,242.5 Z"/></g>
<g><path style="opacity:1" fill="#aaaaaa" d="M 92.5,247.5 C 106.849,247.167 121.182,247.501 135.5,248.5C 128.333,248.833 121.167,249.167 114,249.5C 106.467,249.497 99.3008,248.831 92.5,247.5 Z"/></g>
<g><path style="opacity:1" fill="#aaaaaa" d="M 191.5,247.5 C 207.514,247.167 223.514,247.501 239.5,248.5C 231.5,248.833 223.5,249.167 215.5,249.5C 207.138,249.498 199.138,248.831 191.5,247.5 Z"/></g>
<g><path style="opacity:1" fill="#929292" d="M 163.5,242.5 C 166.187,242.336 168.854,242.503 171.5,243C 174.104,245.742 173.771,248.242 170.5,250.5C 171.313,251.814 172.313,252.981 173.5,254C 171.001,252.724 168.334,251.558 165.5,250.5C 165.762,251.978 165.429,253.311 164.5,254.5C 163.509,250.555 163.176,246.555 163.5,242.5 Z"/></g>
<g><path style="opacity:1" fill="#f5f5f5" d="M 165.5,243.5 C 169.938,242.425 171.938,244.092 171.5,248.5C 169.5,248.5 167.5,248.5 165.5,248.5C 165.5,246.833 165.5,245.167 165.5,243.5 Z"/></g>
</svg>
