<svg xmlns="http://www.w3.org/2000/svg" width="160" height="160" viewBox="0 0 160 160" version="1.1">
	<path fill-opacity="0.220" d="M 65.075 1.026 C 34.891 7.369, 12.237 28.122, 2.844 58.035 C 0.836 64.429, 0.500 67.580, 0.500 80 C 0.500 92.420, 0.836 95.571, 2.844 101.965 C 11.523 129.604, 30.396 148.477, 58.035 157.156 C 64.429 159.164, 67.580 159.500, 80 159.500 C 92.420 159.500, 95.571 159.164, 101.965 157.156 C 130.390 148.230, 151.176 126.692, 157.608 99.500 C 158.518 95.650, 159.654 91.719, 160.132 90.764 C 161.377 88.273, 161.256 67.724, 160 68.500 C 159.437 68.848, 159 68.045, 159 66.664 C 159 63.018, 155.186 51.330, 151.767 44.500 C 141.587 24.160, 124.964 10.157, 102.500 2.999 C 94.616 0.486, 73.051 -0.651, 65.075 1.026 M 87.250 32.286 C 88.212 33.075, 90.120 35.372, 91.490 37.390 C 93.952 41.018, 93.955 41.047, 91.740 39.908 C 88.515 38.249, 90.863 40.300, 95.045 42.795 C 98.504 44.859, 98.656 44.866, 101.370 43.085 L 104.150 41.262 95.825 36.497 C 86.158 30.964, 84.858 30.326, 87.250 32.286 M 104.500 46 C 102.850 47.093, 102.063 47.990, 102.750 47.993 C 103.683 47.998, 103.954 50.724, 103.820 58.750 L 103.640 69.500 103 62 L 102.360 54.500 102.186 62 C 102.016 69.357, 102.070 69.532, 105.006 71.203 L 108 72.907 108 58.453 C 108 50.504, 107.888 44.003, 107.750 44.007 C 107.612 44.010, 106.150 44.907, 104.500 46 M 77.711 62.999 C 77.423 64.098, 77.500 65.191, 77.882 65.427 C 78.263 65.663, 78.666 64.763, 78.777 63.428 C 79.020 60.488, 78.429 60.251, 77.711 62.999 M 0.378 80 C 0.378 86.325, 0.541 88.912, 0.739 85.750 C 0.937 82.587, 0.937 77.412, 0.739 74.250 C 0.541 71.087, 0.378 73.675, 0.378 80 M 80.813 109.683 C 81.534 109.972, 82.397 109.936, 82.729 109.604 C 83.061 109.272, 82.471 109.036, 81.417 109.079 C 80.252 109.127, 80.015 109.364, 80.813 109.683 M 88.150 112.250 C 88.289 115.275, 88.329 115.310, 88.716 112.750 C 88.999 110.881, 89.731 110, 91 110 C 92.269 110, 93.001 110.881, 93.284 112.750 C 93.671 115.310, 93.711 115.275, 93.850 112.250 C 93.987 109.272, 93.749 109, 91 109 C 88.251 109, 88.013 109.272, 88.150 112.250 M 99.564 111.250 C 97.768 119.775, 97.341 123, 98.006 123 C 98.426 123, 99.079 120.525, 99.457 117.500 C 99.835 114.475, 100.562 112, 101.072 112 C 101.582 112, 102.006 112.563, 102.014 113.250 C 102.021 113.938, 102.299 115.513, 102.630 116.750 C 103.095 118.484, 102.805 119.015, 101.367 119.063 C 99.796 119.117, 99.857 119.270, 101.750 120.031 C 102.987 120.529, 104 121.475, 104 122.134 C 104 122.794, 104.246 123.087, 104.547 122.786 C 104.848 122.486, 104.545 119.261, 103.874 115.620 C 102.636 108.903, 100.512 106.749, 99.564 111.250 M 108.132 116.250 C 108.228 121.568, 108.431 122.567, 108.891 120 C 109.340 117.497, 110.014 116.540, 111.259 116.639 C 112.217 116.715, 113 116.378, 113 115.889 C 113 115.400, 112.100 115, 111 115 C 108.171 115, 108.363 111.192, 111.250 110.031 C 113.413 109.162, 113.393 109.124, 110.750 109.063 L 108 109 108.132 116.250 M 116.250 109.689 C 117.688 110.065, 118 111.294, 118 116.573 C 118 120.191, 118.437 123, 119 123 C 119.563 123, 120 120.191, 120 116.573 C 120 111.294, 120.312 110.065, 121.750 109.689 C 122.713 109.438, 121.475 109.232, 119 109.232 C 116.525 109.232, 115.287 109.438, 116.250 109.689 M 92.564 117.293 C 92.940 118.279, 93.499 118.834, 93.807 118.526 C 94.115 118.219, 93.808 117.412, 93.124 116.733 C 92.136 115.753, 92.022 115.868, 92.564 117.293" stroke="none" fill="black" fill-rule="evenodd"/>
	<path fill-opacity="0.392" d="M 66.238 1.042 C 35.915 6.487, 10.554 29.896, 2.363 60 C -0.098 69.045, -0.098 90.955, 2.363 100 C 8.497 122.543, 24.604 141.991, 45.422 151.989 C 57.993 158.026, 64.424 159.406, 80 159.406 C 95.576 159.406, 102.007 158.026, 114.578 151.989 C 130.908 144.146, 144.146 130.908, 151.989 114.578 C 155.916 106.401, 159 96.322, 159 91.665 C 159 90.264, 159.450 88.840, 160 88.500 C 160.550 88.160, 161 83.832, 161 78.882 C 161 73.137, 160.638 70.105, 160 70.500 C 159.429 70.853, 159 69.975, 159 68.453 C 159 59.383, 151.217 41.316, 142.523 30.204 C 132.750 17.714, 116 6.683, 100.500 2.528 C 93.267 0.589, 73.527 -0.267, 66.238 1.042 M 75.299 30.364 C 72.245 32.525, 72.185 32.692, 73.995 33.997 C 75.039 34.749, 75.689 35.694, 75.439 36.098 C 75.190 36.501, 76.296 36.337, 77.897 35.733 C 80.543 34.734, 81.596 35.105, 89.468 39.810 C 97.908 44.854, 98.202 44.947, 101.064 43.467 C 102.679 42.632, 103.994 41.623, 103.988 41.224 C 103.971 40.224, 81.581 27.988, 79.877 28.049 C 79.120 28.076, 77.060 29.118, 75.299 30.364 M 98.500 49.074 C 91.621 53.296, 90.500 54.371, 90.500 56.742 C 90.500 58.259, 89.825 60.101, 89 60.835 C 88.175 61.569, 90.498 60.556, 94.162 58.585 C 97.827 56.613, 101.089 55, 101.412 55 C 101.736 55, 102 58.363, 102 62.474 C 102 69.768, 102.073 69.986, 105 71.500 L 108 73.051 108 58.526 C 108 50.537, 107.662 44.037, 107.250 44.081 C 106.838 44.126, 102.900 46.373, 98.500 49.074 M 64.868 52.308 C 65.620 53.233, 66.002 54.885, 65.716 55.979 C 65.294 57.593, 66.593 58.817, 72.598 62.463 L 80 66.957 80 63.171 C 80 59.450, 79.859 59.311, 71.750 55.006 C 67.213 52.598, 64.116 51.384, 64.868 52.308 M 0.360 80 C 0.360 85.225, 0.529 87.362, 0.735 84.750 C 0.941 82.138, 0.941 77.862, 0.735 75.250 C 0.529 72.638, 0.360 74.775, 0.360 80 M 49.690 109.648 C 51.040 109.941, 52.045 111.063, 52.311 112.574 C 52.688 114.707, 52.728 114.666, 52.622 112.262 C 52.525 110.063, 51.991 109.467, 50 109.336 C 47.916 109.200, 47.864 109.251, 49.690 109.648 M 57.185 114.687 L 57.370 120.500 57.737 115.250 C 58.046 110.839, 58.416 110, 60.052 110 C 61.746 110, 62.012 110.749, 62.090 115.750 C 62.175 121.159, 62.238 121.301, 63.146 118.144 C 63.678 116.298, 63.975 113.598, 63.806 112.144 C 63.554 109.970, 62.922 109.444, 60.250 109.187 L 57 108.873 57.185 114.687 M 67.157 116.250 C 67.305 123.065, 67.350 123.200, 67.907 118.500 C 68.539 113.174, 69.026 113.294, 70.946 119.250 C 71.611 121.313, 72.533 123, 72.995 123 C 73.458 123, 73.985 119.849, 74.168 115.998 C 74.351 112.147, 74.162 108.997, 73.750 108.998 C 73.338 108.999, 73 111.115, 73 113.700 C 73 118.930, 71.906 118.578, 70.043 112.750 C 68.170 106.887, 66.985 108.323, 67.157 116.250 M 77.714 109.619 C 77.321 110.012, 77 112.701, 77 115.595 C 77 122.549, 80.424 126.176, 83.800 122.800 C 85.253 121.347, 85.393 118, 84 118 C 83.450 118, 83 118.900, 83 120 C 83 121.350, 82.333 122, 80.950 122 C 79.089 122, 78.928 121.477, 79.200 116.329 C 79.509 110.496, 81.615 107.814, 82.683 111.895 C 83.421 114.718, 85.224 114.596, 84.820 111.750 C 84.580 110.065, 83.738 109.425, 81.464 109.203 C 79.794 109.039, 78.107 109.227, 77.714 109.619 M 87 115.881 C 87 119.731, 87.450 123.160, 88 123.500 C 88.595 123.868, 89 122.677, 89 120.559 C 89 117.667, 89.375 117, 91 117 C 92.619 117, 93 117.667, 93 120.500 C 93 122.425, 93.441 124, 93.981 124 C 94.553 124, 94.866 120.980, 94.731 116.750 L 94.500 109.500 90.750 109.190 L 87 108.879 87 115.881 M 98.675 113.250 C 98.347 115.588, 97.780 118.963, 97.414 120.750 C 96.978 122.884, 97.136 124, 97.875 124 C 98.494 124, 99 123.100, 99 122 C 99 120.708, 99.667 120, 100.883 120 C 101.926 120, 103 120.893, 103.290 122 C 103.577 123.100, 104.353 124, 105.013 124 C 105.674 124, 105.972 123.371, 105.677 122.601 C 105.382 121.832, 104.600 118.457, 103.940 115.101 C 103.023 110.440, 102.330 109, 101.006 109 C 99.726 109, 99.116 110.113, 98.675 113.250 M 108 116.500 C 108 120.833, 108.422 124, 109 124 C 109.550 124, 110 122.425, 110 120.500 C 110 118.056, 110.452 117, 111.500 117 C 112.325 117, 113 116.550, 113 116 C 113 115.450, 112.325 115, 111.500 115 C 109.329 115, 109.552 110.264, 111.750 109.689 C 112.827 109.408, 112.442 109.187, 110.750 109.116 L 108 109 108 116.500 M 116.250 110.080 C 117.630 110.884, 118 112.462, 118 117.550 C 118 121.183, 118.437 124, 119 124 C 119.563 124, 120 121.183, 120 117.550 C 120 112.462, 120.370 110.884, 121.750 110.080 C 123.125 109.279, 122.535 109.061, 119 109.061 C 115.465 109.061, 114.875 109.279, 116.250 110.080 M 89.688 110.646 C 88.147 112.186, 89.040 115, 91.070 115 C 92.625 115, 93.060 114.461, 92.820 112.828 C 92.488 110.573, 90.880 109.453, 89.688 110.646 M 100 115.500 C 100 116.875, 100.450 118, 101 118 C 101.550 118, 102 116.875, 102 115.500 C 102 114.125, 101.550 113, 101 113 C 100.450 113, 100 114.125, 100 115.500" stroke="none" fill="black" fill-rule="evenodd"/>
	<path fill-opacity="0.165" d="M 64 1.943 C 47.614 5.418, 34.451 12.693, 22.897 24.661 C 12.480 35.452, 6.516 46.023, 2.396 61.002 C -0.075 69.984, -0.075 90.016, 2.396 98.998 C 11.034 130.401, 34.681 152.542, 65.860 158.423 C 76.420 160.415, 83.580 160.415, 94.140 158.423 C 111.091 155.226, 125.247 147.620, 137.103 135.339 C 148.227 123.816, 155.417 110.300, 158.028 96 C 158.681 92.425, 159.617 88.719, 160.108 87.764 C 161.364 85.319, 161.268 70.717, 160 71.500 C 159.429 71.853, 159 70.975, 159 69.453 C 159 65.659, 156.245 55.527, 153.303 48.502 C 145.622 30.159, 128.605 13.570, 109.752 6.047 C 94.845 0.099, 79.280 -1.297, 64 1.943 M 78.479 28.205 C 77.390 28.777, 73.211 31.264, 69.192 33.730 C 62.421 37.885, 61.999 38.341, 63.444 39.938 C 64.302 40.887, 64.703 41.963, 64.336 42.331 C 62.724 43.943, 65.799 42.706, 72.876 38.895 L 80.500 34.790 89.151 39.895 C 93.909 42.703, 98.184 44.997, 98.651 44.993 C 99.118 44.990, 100.773 44.148, 102.328 43.122 L 105.157 41.257 93.328 34.499 C 86.823 30.781, 81.265 27.611, 80.979 27.452 C 80.692 27.294, 79.567 27.633, 78.479 28.205 M 52.808 45.225 C 53.771 46.417, 54.035 50.169, 53.808 59.425 C 53.639 66.343, 53.642 72.003, 53.816 72.002 C 53.989 72.001, 55.002 71.534, 56.066 70.965 C 57.713 70.083, 58 68.822, 58 62.465 C 58 58.359, 58.307 55, 58.681 55 C 59.056 55, 63.972 57.728, 69.606 61.063 L 79.851 67.126 90.365 61.169 C 96.147 57.893, 101.131 55.464, 101.439 55.773 C 101.748 56.081, 102 59.357, 102 63.052 C 102 69.089, 102.250 69.934, 104.465 71.385 C 105.820 72.273, 107.395 73, 107.965 73 C 108.631 73, 109 67.829, 109 58.500 C 109 48.348, 108.660 44, 107.865 44 C 107.240 44, 100.815 47.512, 93.587 51.804 L 80.444 59.607 75.842 56.903 C 64.907 50.479, 51.605 43.734, 52.808 45.225 M 0.349 80 C 0.349 84.675, 0.522 86.587, 0.732 84.250 C 0.943 81.912, 0.943 78.087, 0.732 75.750 C 0.522 73.412, 0.349 75.325, 0.349 80 M 90.500 79.599 C 85.550 82.517, 80.878 84.925, 80.119 84.952 C 79.359 84.978, 74.806 82.750, 70 80 C 60.578 74.608, 59.731 74.388, 56.111 76.395 C 53.790 77.682, 54.005 77.884, 63.611 83.487 C 69.050 86.659, 74.918 90.106, 76.650 91.147 L 79.800 93.040 92.363 85.770 C 99.272 81.771, 104.942 78.174, 104.963 77.776 C 104.983 77.377, 103.763 76.431, 102.250 75.673 C 99.648 74.370, 99.015 74.582, 90.500 79.599 M 57.635 109.278 C 55.200 111.058, 55.667 121.770, 58.250 123.391 C 61.478 125.417, 63.464 122.974, 63.802 116.562 C 64.209 108.867, 61.910 106.152, 57.635 109.278 M 72.903 108.691 C 72.850 109.136, 72.891 111.300, 72.994 113.500 C 73.201 117.922, 72.086 117.568, 70.411 112.678 C 69.813 110.930, 68.555 109.351, 67.616 109.168 C 66.111 108.875, 65.944 109.703, 66.205 116.168 C 66.384 120.633, 66.891 123.304, 67.500 123 C 68.050 122.725, 68.454 121.037, 68.399 119.250 C 68.260 114.811, 69.433 115.165, 70.882 120 C 71.569 122.293, 72.703 124, 73.540 124 C 74.689 124, 75 122.416, 75 116.559 C 75 112.466, 74.550 108.840, 74 108.500 C 73.450 108.160, 72.956 108.246, 72.903 108.691 M 78.200 109.200 C 76.434 110.966, 76.653 121.467, 78.487 122.989 C 80.903 124.995, 85 123.417, 85 120.481 C 85 117.456, 83.442 117.203, 82.683 120.105 C 81.720 123.787, 79.507 121.633, 79.402 116.912 C 79.348 114.485, 79.509 111.938, 79.759 111.250 C 80.476 109.281, 82 109.792, 82 112 C 82 113.111, 82.667 114, 83.500 114 C 85.294 114, 85.489 110.889, 83.800 109.200 C 83.140 108.540, 81.880 108, 81 108 C 80.120 108, 78.860 108.540, 78.200 109.200 M 87.667 108.667 C 87.300 109.033, 87 112.633, 87 116.667 C 87 122.519, 87.303 124, 88.500 124 C 89.554 124, 90 122.935, 90 120.417 C 90 115.898, 92.361 116.243, 92.813 120.827 C 92.986 122.572, 93.527 124, 94.016 124 C 95.382 124, 95.065 109.662, 93.679 108.781 C 92.208 107.845, 88.557 107.776, 87.667 108.667 M 99.655 108.750 C 99.118 109.620, 97 120.736, 97 122.684 C 97 124.738, 98.707 124.228, 99.290 122 C 99.577 120.900, 100.530 120, 101.406 120 C 102.333 120, 103 120.837, 103 122 C 103 123.171, 103.667 124, 104.608 124 C 105.765 124, 106.069 123.368, 105.692 121.750 C 105.403 120.513, 104.648 116.912, 104.013 113.750 C 103.282 110.110, 102.356 108, 101.488 108 C 100.735 108, 99.910 108.338, 99.655 108.750 M 107.667 108.667 C 107.300 109.033, 107 112.633, 107 116.667 C 107 122.519, 107.303 124, 108.500 124 C 109.548 124, 110 122.944, 110 120.500 C 110 118.056, 110.452 117, 111.500 117 C 112.325 117, 113 116.550, 113 116 C 113 115.450, 112.325 115, 111.500 115 C 109.190 115, 109.703 111.311, 112.101 110.684 C 113.257 110.381, 113.905 109.655, 113.542 109.067 C 112.815 107.891, 108.721 107.612, 107.667 108.667 M 115 109.500 C 115 110.325, 115.675 111, 116.500 111 C 117.679 111, 118 112.389, 118 117.500 C 118 121.167, 118.436 124, 119 124 C 119.564 124, 120 121.167, 120 117.500 C 120 112.389, 120.321 111, 121.500 111 C 122.325 111, 123 110.325, 123 109.500 C 123 108.417, 121.889 108, 119 108 C 116.111 108, 115 108.417, 115 109.500 M 37.750 109.662 C 38.566 109.992, 39 112.374, 39 116.524 C 39 120.021, 39.450 123.160, 40 123.500 C 40.628 123.888, 41 121.694, 41 117.609 C 41 112.464, 41.367 110.886, 42.750 110.080 C 44.142 109.269, 43.682 109.071, 40.500 109.109 C 38.300 109.136, 37.063 109.385, 37.750 109.662 M 46 115.881 C 46 119.731, 46.450 123.160, 47 123.500 C 47.597 123.869, 48 122.653, 48 120.486 C 48 117.567, 48.344 116.918, 49.750 117.185 C 50.903 117.403, 51.607 118.623, 51.813 120.758 C 52.425 127.088, 53.958 123.884, 53.731 116.750 L 53.500 109.500 49.750 109.190 L 46 108.879 46 115.881 M 48.688 110.646 C 47.216 112.117, 47.990 115.149, 49.750 114.810 C 50.712 114.624, 51.500 113.616, 51.500 112.570 C 51.500 110.580, 49.869 109.464, 48.688 110.646 M 58.463 112.291 C 57.455 116.309, 58.321 121.500, 60 121.500 C 61.149 121.500, 61.500 120.231, 61.500 116.083 C 61.500 110.344, 59.560 107.921, 58.463 112.291 M 90 112.286 C 90 115.047, 91.332 115.890, 92.559 113.904 C 92.932 113.301, 92.508 112.080, 91.618 111.190 C 90.127 109.699, 90 109.785, 90 112.286 M 100.531 115.293 C 100.103 116.279, 100.034 117.367, 100.376 117.710 C 101.392 118.725, 102.211 117.299, 101.743 115.328 C 101.329 113.581, 101.275 113.580, 100.531 115.293" stroke="none" fill="black" fill-rule="evenodd"/>
	<path fill-opacity="0.733" d="M 69.500 1.051 C 36.424 6.143, 11.489 28.403, 2.907 60.500 C -0.066 71.617, -0.066 88.383, 2.907 99.500 C 12.583 135.687, 42.972 159.232, 80 159.232 C 116.999 159.232, 147.834 135.341, 156.977 99.590 C 158.090 95.240, 159 90.204, 159 88.399 C 159 86.594, 159.450 84.840, 160 84.500 C 160.550 84.160, 161 81.632, 161 78.882 C 161 75.803, 160.616 74.119, 160 74.500 C 159.408 74.866, 159 73.730, 159 71.719 C 159 66.631, 155.349 53.344, 151.963 46.107 C 144.230 29.583, 130.358 15.742, 113.730 7.961 C 100.952 1.982, 82.339 -0.926, 69.500 1.051 M 68.562 33.507 C 62.546 37.065, 57.192 40.408, 56.665 40.935 C 56.055 41.545, 56.940 42.480, 59.107 43.514 L 62.506 45.135 71.498 40.113 C 79.410 35.693, 80.729 35.245, 82.494 36.379 C 83.597 37.088, 87.581 39.381, 91.346 41.474 C 98.147 45.255, 98.214 45.268, 101.649 43.630 C 103.551 42.723, 104.852 41.570, 104.542 41.068 C 103.876 39.991, 81.431 26.991, 80.284 27.019 C 79.853 27.029, 74.578 29.948, 68.562 33.507 M 93.820 51.126 L 80.140 59.126 66.979 51.563 C 59.740 47.403, 53.409 44, 52.909 44 C 52.406 44, 52 50.471, 52 58.500 C 52 66.475, 52.247 73, 52.550 73 C 52.852 73, 54.427 72.313, 56.050 71.474 C 58.895 70.003, 59 69.698, 59 62.867 C 59 54.612, 58.193 54.674, 70.566 61.982 C 75.238 64.742, 79.460 67, 79.947 67 C 80.434 67, 85.203 64.525, 90.545 61.500 C 95.886 58.475, 100.424 56, 100.628 56 C 100.833 56, 101 59.106, 101 62.901 C 101 69.696, 101.053 69.833, 104.416 71.818 C 106.295 72.927, 108.095 73.571, 108.416 73.250 C 109.285 72.381, 109.123 42.990, 108.250 43.063 C 107.838 43.097, 101.344 46.726, 93.820 51.126 M 56.750 75.572 C 55.237 76.393, 54.008 77.387, 54.017 77.782 C 54.045 78.911, 78.990 93.158, 80.331 92.811 C 82.606 92.222, 105.945 78.499, 105.972 77.734 C 105.988 77.312, 104.524 76.264, 102.719 75.403 C 99.453 73.846, 99.393 73.865, 89.696 79.463 L 79.955 85.087 70.164 79.544 C 64.779 76.495, 60.176 74.018, 59.936 74.040 C 59.696 74.062, 58.263 74.751, 56.750 75.572 M 0.300 80 C 0.300 83.025, 0.487 84.263, 0.716 82.750 C 0.945 81.237, 0.945 78.763, 0.716 77.250 C 0.487 75.737, 0.300 76.975, 0.300 80 M 36 109.500 C 36 110.325, 36.675 111, 37.500 111 C 38.679 111, 39 112.389, 39 117.500 C 39 122.611, 39.321 124, 40.500 124 C 41.679 124, 42 122.611, 42 117.500 C 42 113.833, 42.436 111, 43 111 C 43.550 111, 44 110.325, 44 109.500 C 44 108.417, 42.889 108, 40 108 C 37.111 108, 36 108.417, 36 109.500 M 46 116 C 46 122.444, 46.292 124, 47.500 124 C 48.548 124, 49 122.944, 49 120.500 C 49 118.575, 49.450 117, 50 117 C 50.550 117, 51 118.575, 51 120.500 C 51 122.893, 51.459 124, 52.452 124 C 53.590 124, 53.900 122.434, 53.882 116.765 C 53.857 109.013, 53.287 108.041, 48.750 108.015 L 46 108 46 116 M 57.201 108.830 C 56.290 109.425, 55.991 111.746, 56.201 116.590 L 56.500 123.500 60 123.500 L 63.500 123.500 63.500 116 C 63.500 108.736, 63.421 108.492, 61 108.241 C 59.625 108.098, 57.915 108.364, 57.201 108.830 M 66 115.927 C 66 122.436, 66.291 124, 67.500 124 C 68.553 124, 69.023 122.883, 69.076 120.250 L 69.152 116.500 70.415 120 C 71.109 121.925, 72.425 123.645, 73.339 123.823 C 74.777 124.103, 75 123.061, 75 116.073 C 75 109.564, 74.709 108, 73.500 108 C 72.443 108, 71.983 109.108, 71.944 111.750 L 71.887 115.500 70.694 112.012 C 70.037 110.094, 68.713 108.373, 67.750 108.189 C 66.200 107.892, 66 108.777, 66 115.927 M 77.442 109.291 C 77.142 110.072, 77.033 113.588, 77.199 117.105 L 77.500 123.500 81 123.500 C 84.075 123.500, 84.538 123.166, 84.816 120.750 C 85.042 118.786, 84.685 118, 83.566 118 C 82.667 118, 82 118.851, 82 120 C 82 121.100, 81.550 122, 81 122 C 80.450 122, 80 119.525, 80 116.500 C 80 111.067, 81.275 109.119, 82.290 113 C 83.160 116.327, 85.159 115.337, 84.813 111.750 C 84.538 108.891, 84.108 108.462, 81.243 108.186 C 79.123 107.982, 77.796 108.368, 77.442 109.291 M 87 116 C 87 122.444, 87.292 124, 88.500 124 C 89.548 124, 90 122.944, 90 120.500 C 90 118.575, 90.450 117, 91 117 C 91.550 117, 92 118.575, 92 120.500 C 92 123.839, 92.162 124, 95.531 124 C 97.748 124, 99.277 123.441, 99.638 122.500 C 99.955 121.675, 100.841 121, 101.607 121 C 102.373 121, 103 121.675, 103 122.500 C 103 123.325, 103.675 124, 104.500 124 C 106.212 124, 106.379 122.023, 105.091 117 C 104.598 115.075, 103.917 112.263, 103.578 110.750 C 103.172 108.937, 102.318 108, 101.072 108 C 99.516 108, 98.959 109.247, 97.923 115.045 C 97.230 118.920, 96.224 122.362, 95.686 122.694 C 95.087 123.064, 94.960 122.295, 95.358 120.710 C 95.715 119.287, 95.573 117.854, 95.042 117.526 C 94.473 117.174, 94.419 116.019, 94.911 114.715 C 95.369 113.497, 95.367 111.487, 94.905 110.250 C 94.251 108.500, 93.280 108, 90.532 108 L 87 108 87 116 M 107 116 C 107 122.444, 107.292 124, 108.500 124 C 109.548 124, 110 122.944, 110 120.500 C 110 117.620, 110.369 117, 112.083 117 C 113.306 117, 113.994 116.483, 113.750 115.750 C 113.521 115.063, 112.702 114.500, 111.930 114.500 C 111.159 114.500, 110.376 113.713, 110.190 112.750 C 109.957 111.538, 110.490 111, 111.927 111 C 113.103 111, 114 110.351, 114 109.500 C 114 108.452, 112.944 108, 110.500 108 L 107 108 107 116 M 115 109.500 C 115 110.325, 115.450 111, 116 111 C 116.564 111, 117 113.833, 117 117.500 C 117 123.333, 117.205 124, 119 124 C 120.795 124, 121 123.333, 121 117.500 C 121 113.833, 121.436 111, 122 111 C 122.550 111, 123 110.325, 123 109.500 C 123 108.417, 121.889 108, 119 108 C 116.111 108, 115 108.417, 115 109.500 M 49 113 C 49 114.100, 49.450 115, 50 115 C 50.550 115, 51 114.100, 51 113 C 51 111.900, 50.550 111, 50 111 C 49.450 111, 49 111.900, 49 113 M 59 116.500 C 59 119.525, 59.450 122, 60 122 C 60.550 122, 61 119.525, 61 116.500 C 61 113.475, 60.550 111, 60 111 C 59.450 111, 59 113.475, 59 116.500 M 90 113 C 90 114.100, 90.450 115, 91 115 C 91.550 115, 92 114.100, 92 113 C 92 111.900, 91.550 111, 91 111 C 90.450 111, 90 111.900, 90 113 M 100.638 116.500 C 100.322 117.325, 100.499 118, 101.031 118 C 101.564 118, 102 117.325, 102 116.500 C 102 115.675, 101.823 115, 101.607 115 C 101.391 115, 100.955 115.675, 100.638 116.500" stroke="none" fill="black" fill-rule="evenodd"/>
</svg>