<?xml version="1.0" encoding="UTF-8"?>
<!DOCTYPE svg PUBLIC "-//W3C//DTD SVG 1.1//EN" "http://www.w3.org/Graphics/SVG/1.1/DTD/svg11.dtd">
<svg xmlns="http://www.w3.org/2000/svg" version="1.1" width="160px" height="160px" style="shape-rendering:geometricPrecision; text-rendering:geometricPrecision; image-rendering:optimizeQuality; fill-rule:evenodd; clip-rule:evenodd" xmlns:xlink="http://www.w3.org/1999/xlink">
<g><path style="opacity:0.016" fill="#fd044e" d="M 57.5,0.5 C 57.5,0.166667 57.5,-0.166667 57.5,-0.5C 58.5,-0.5 59.5,-0.5 60.5,-0.5C 59.791,0.403972 58.791,0.737305 57.5,0.5 Z"/></g>
<g><path style="opacity:0.991" fill="#0d1b4c" d="M 66.5,-0.5 C 75.1667,-0.5 83.8333,-0.5 92.5,-0.5C 95.2727,0.657188 98.2727,1.32385 101.5,1.5C 114.207,5.79896 124.873,11.799 133.5,19.5C 133.5,20.1667 133.833,20.5 134.5,20.5C 134.5,21.1667 134.833,21.5 135.5,21.5C 135.5,22.1667 135.833,22.5 136.5,22.5C 136.5,23.1667 136.833,23.5 137.5,23.5C 137.5,24.1667 137.833,24.5 138.5,24.5C 138.5,25.1667 138.833,25.5 139.5,25.5C 140.851,28.0924 142.685,29.4257 145,29.5C 144.383,31.0948 144.716,32.4281 146,33.5C 146.333,33.1667 146.667,32.8333 147,32.5C 152.023,38.8532 155.023,45.8532 156,53.5C 156.333,52.8333 156.667,52.1667 157,51.5C 156.008,54.5698 156.341,57.5698 158,60.5C 158.232,59.2625 158.732,58.2625 159.5,57.5C 159.5,58.8333 159.5,60.1667 159.5,61.5C 158.167,62.8333 158.167,64.1667 159.5,65.5C 159.5,74.8333 159.5,84.1667 159.5,93.5C 158.167,94.8333 158.167,96.1667 159.5,97.5C 159.5,98.8333 159.5,100.167 159.5,101.5C 159.167,101.5 158.833,101.5 158.5,101.5C 158.167,97.5 157.833,97.5 157.5,101.5C 156.167,102.5 156.167,103.5 157.5,104.5C 157.737,105.791 157.404,106.791 156.5,107.5C 156.167,104.833 155.833,104.833 155.5,107.5C 154.596,108.209 154.263,109.209 154.5,110.5C 153.167,111.167 153.167,111.833 154.5,112.5C 152.841,117.827 150.174,122.493 146.5,126.5C 146.167,125.167 145.833,125.167 145.5,126.5C 144.167,126.833 144.167,127.167 145.5,127.5C 145.573,129.027 144.906,130.027 143.5,130.5C 143.167,129.167 142.833,129.167 142.5,130.5C 141.833,130.5 141.5,130.833 141.5,131.5C 140.833,131.5 140.5,131.833 140.5,132.5C 139.833,132.5 139.5,132.833 139.5,133.5C 138.833,133.5 138.5,133.833 138.5,134.5C 137.833,134.5 137.5,134.833 137.5,135.5C 136.833,135.5 136.5,135.833 136.5,136.5C 135.833,136.5 135.5,136.833 135.5,137.5C 134.833,137.5 134.5,137.833 134.5,138.5C 133.833,138.5 133.5,138.833 133.5,139.5C 132.833,139.5 132.5,139.833 132.5,140.5C 131.833,140.5 131.5,140.833 131.5,141.5C 130.833,141.5 130.5,141.833 130.5,142.5C 129.833,142.5 129.5,142.833 129.5,143.5C 128.508,143.328 127.842,143.662 127.5,144.5C 126.833,144.5 126.5,144.833 126.5,145.5C 125.167,145.833 125.167,146.167 126.5,146.5C 126.158,147.338 125.492,147.672 124.5,147.5C 124.167,146.167 123.833,146.167 123.5,147.5C 122.508,147.328 121.842,147.662 121.5,148.5C 120.833,148.5 120.5,148.833 120.5,149.5C 119.508,149.328 118.842,149.662 118.5,150.5C 117.508,150.328 116.842,150.662 116.5,151.5C 115.508,151.328 114.842,151.662 114.5,152.5C 113.508,152.328 112.842,152.662 112.5,153.5C 111.508,153.328 110.842,153.662 110.5,154.5C 109.209,154.263 108.209,154.596 107.5,155.5C 105.214,155.595 103.214,156.262 101.5,157.5C 98.2727,157.676 95.2727,158.343 92.5,159.5C 83.8333,159.5 75.1667,159.5 66.5,159.5C 63.7273,158.343 60.7273,157.676 57.5,157.5C 55.7857,156.262 53.7857,155.595 51.5,155.5C 41.3414,150.846 32.6748,145.513 25.5,139.5C 25.5,138.833 25.1667,138.5 24.5,138.5C 24.5,137.833 24.1667,137.5 23.5,137.5C 23.5,136.833 23.1667,136.5 22.5,136.5C 22.5,135.833 22.1667,135.5 21.5,135.5C 21.5,134.833 21.1667,134.5 20.5,134.5C 20.5,133.833 20.1667,133.5 19.5,133.5C 18.1486,130.908 16.3153,129.574 14,129.5C 14.6171,127.905 14.2837,126.572 13,125.5C 12.3333,126.833 11.6667,126.833 11,125.5C 8.29506,121.423 6.12839,117.09 4.5,112.5C 5.83333,111.833 5.83333,111.167 4.5,110.5C 4.73731,109.209 4.40397,108.209 3.5,107.5C 3.16667,104.833 2.83333,104.833 2.5,107.5C 1.59603,106.791 1.26269,105.791 1.5,104.5C 2.83333,103.5 2.83333,102.5 1.5,101.5C 1.16667,97.5 0.833333,97.5 0.5,101.5C 0.166667,101.5 -0.166667,101.5 -0.5,101.5C -0.5,100.167 -0.5,98.8333 -0.5,97.5C 0.833333,96.1667 0.833333,94.8333 -0.5,93.5C -0.5,84.1667 -0.5,74.8333 -0.5,65.5C 0.833333,64.1667 0.833333,62.8333 -0.5,61.5C -0.5,60.1667 -0.5,58.8333 -0.5,57.5C 0.26791,58.2625 0.76791,59.2625 1,60.5C 2.49734,58.0413 2.664,55.5413 1.5,53C 1.94437,51.2382 2.44437,51.4049 3,53.5C 3.97691,45.8532 6.97691,38.8532 12,32.5C 12.9138,33.6537 13.7471,33.487 14.5,32C 13.5494,31.2825 13.3828,30.4491 14,29.5C 16.3153,29.4257 18.1486,28.0924 19.5,25.5C 20.1667,25.5 20.5,25.1667 20.5,24.5C 21.1667,24.5 21.5,24.1667 21.5,23.5C 22.1667,23.5 22.5,23.1667 22.5,22.5C 23.1667,22.5 23.5,22.1667 23.5,21.5C 24.1667,21.5 24.5,21.1667 24.5,20.5C 25.1667,20.5 25.5,20.1667 25.5,19.5C 34.1267,11.799 44.7934,5.79896 57.5,1.5C 60.7273,1.32385 63.7273,0.657188 66.5,-0.5 Z"/></g>
<g><path style="opacity:0.016" fill="#fd044e" d="M 98.5,-0.5 C 99.5,-0.5 100.5,-0.5 101.5,-0.5C 101.5,-0.166667 101.5,0.166667 101.5,0.5C 100.209,0.737305 99.209,0.403972 98.5,-0.5 Z"/></g>
<g><path style="opacity:0.016" fill="#0b043f" d="M 57.5,0.5 C 57.5,0.833333 57.5,1.16667 57.5,1.5C 53.5,1.16667 53.5,0.833333 57.5,0.5 Z"/></g>
<g><path style="opacity:0.016" fill="#0b043f" d="M 101.5,1.5 C 101.5,1.16667 101.5,0.833333 101.5,0.5C 105.5,0.833333 105.5,1.16667 101.5,1.5 Z"/></g>
<g><path style="opacity:0.016" fill="#fc0453" d="M 51.5,2.5 C 51.8966,1.47498 52.5632,1.30831 53.5,2C 52.9056,2.46434 52.2389,2.63101 51.5,2.5 Z"/></g>
<g><path style="opacity:0.008" fill="#fd0368" d="M 105.5,2.5 C 105.897,1.47498 106.563,1.30831 107.5,2C 106.906,2.46434 106.239,2.63101 105.5,2.5 Z"/></g>
<g><path style="opacity:0.004" fill="#120230" d="M 133.5,19.5 C 133.897,18.475 134.563,18.3083 135.5,19C 137,20.5 138.5,22 140,23.5C 140.692,24.4368 140.525,25.1034 139.5,25.5C 138.833,25.5 138.5,25.1667 138.5,24.5C 137.833,24.5 137.5,24.1667 137.5,23.5C 136.833,23.5 136.5,23.1667 136.5,22.5C 135.833,22.5 135.5,22.1667 135.5,21.5C 134.833,21.5 134.5,21.1667 134.5,20.5C 133.833,20.5 133.5,20.1667 133.5,19.5 Z"/></g>
<g><path style="opacity:0.012" fill="#100238" d="M 25.5,19.5 C 24.8333,19.5 24.5,19.8333 24.5,20.5C 23.8333,20.5 23.5,20.8333 23.5,21.5C 22.8333,21.5 22.5,21.8333 22.5,22.5C 21.8333,22.5 21.5,22.8333 21.5,23.5C 20.8333,23.5 20.5,23.8333 20.5,24.5C 19.8333,24.5 19.5,24.8333 19.5,25.5C 18.475,25.1034 18.3083,24.4368 19,23.5C 20.5,22 22,20.5 23.5,19C 24.4368,18.3083 25.1034,18.475 25.5,19.5 Z"/></g>
<g><path style="opacity:1" fill="#4ed9cf" d="M 93.5,34.5 C 91.1889,35.961 91.1889,37.7944 93.5,40C 92.944,40.3826 92.6107,40.8826 92.5,41.5C 88.0745,38.6206 83.4079,36.2873 78.5,34.5C 78.069,32.8428 77.4023,30.8428 76.5,28.5C 77.8381,26.8872 79.5048,26.3872 81.5,27C 85.407,29.7589 89.407,32.2589 93.5,34.5 Z"/></g>
<g><path style="opacity:1" fill="#36b0d5" d="M 76.5,28.5 C 77.4023,30.8428 78.069,32.8428 78.5,34.5C 77.3406,36.2503 75.674,37.2503 73.5,37.5C 71.457,36.4206 70.1237,34.754 69.5,32.5C 71.6705,30.9138 74.0038,29.5804 76.5,28.5 Z"/></g>
<g><path style="opacity:1" fill="#5df0cc" d="M 93.5,34.5 C 97.4687,36.1512 101.135,38.3178 104.5,41C 102.238,42.0468 100.071,43.2135 98,44.5C 95.9149,43.8758 94.0816,42.8758 92.5,41.5C 92.6107,40.8826 92.944,40.3826 93.5,40C 91.1889,37.7944 91.1889,35.961 93.5,34.5 Z"/></g>
<g><path style="opacity:1" fill="#116ed9" d="M 63.5,36.5 C 64.3627,38.4214 65.0293,40.4214 65.5,42.5C 61.9475,44.9474 58.6142,44.4474 55.5,41C 57.7357,38.7159 60.4024,37.2159 63.5,36.5 Z"/></g>
<g><path style="opacity:1" fill="#2087d7" d="M 69.5,32.5 C 70.1237,34.754 71.457,36.4206 73.5,37.5C 71.2063,39.653 68.5396,41.3197 65.5,42.5C 65.0293,40.4214 64.3627,38.4214 63.5,36.5C 65.1184,34.684 67.1184,33.3507 69.5,32.5 Z"/></g>
<g><path style="opacity:1" fill="#348489" d="M 106.5,43.5 C 106.56,42.9569 106.893,42.6236 107.5,42.5C 108.823,52.6589 108.823,62.6589 107.5,72.5C 107.827,62.6522 107.494,52.9856 106.5,43.5 Z"/></g>
<g><path style="opacity:1" fill="#1477de" d="M 55.5,45.5 C 54.507,53.9839 54.1736,62.6506 54.5,71.5C 53.8501,71.8039 53.1835,72.1373 52.5,72.5C 51.1667,62.8333 51.1667,53.1667 52.5,43.5C 53.7387,43.9424 54.7387,44.6091 55.5,45.5 Z"/></g>
<g><path style="opacity:1" fill="#1d82d6" d="M 55.5,45.5 C 58.3311,46.0787 60.6644,47.412 62.5,49.5C 61.7148,51.3736 61.0482,53.3736 60.5,55.5C 58.8724,59.7621 57.8724,64.4287 57.5,69.5C 56.4822,70.1925 55.4822,70.8592 54.5,71.5C 54.1736,62.6506 54.507,53.9839 55.5,45.5 Z"/></g>
<g><path style="opacity:1" fill="#43c7d2" d="M 99.5,47.5 C 99.0213,50.0644 98.3547,52.5644 97.5,55C 97.7284,55.3988 98.0618,55.5654 98.5,55.5C 97.4863,56.6737 96.153,57.3404 94.5,57.5C 94.5,55.1667 94.5,52.8333 94.5,50.5C 96.0009,49.2485 97.6675,48.2485 99.5,47.5 Z"/></g>
<g><path style="opacity:1" fill="#39b3d2" d="M 62.5,49.5 C 66.3346,51.2495 70.0012,53.2495 73.5,55.5C 72.5041,55.4142 71.6708,55.7476 71,56.5C 71.068,58.3423 70.9014,60.009 70.5,61.5C 67.1309,59.4854 63.7976,57.4854 60.5,55.5C 61.0482,53.3736 61.7148,51.3736 62.5,49.5 Z"/></g>
<g><path style="opacity:1" fill="#56e9d1" d="M 106.5,43.5 C 107.494,52.9856 107.827,62.6522 107.5,72.5C 105.216,72.0248 103.216,71.0248 101.5,69.5C 101.827,64.456 101.494,59.456 100.5,54.5C 99.8933,54.6236 99.56,54.9569 99.5,55.5C 99.1667,55.5 98.8333,55.5 98.5,55.5C 98.0618,55.5654 97.7284,55.3988 97.5,55C 98.3547,52.5644 99.0213,50.0644 99.5,47.5C 101.67,45.9138 104.004,44.5804 106.5,43.5 Z"/></g>
<g><path style="opacity:1" fill="#35aed5" d="M 94.5,50.5 C 94.5,52.8333 94.5,55.1667 94.5,57.5C 93.3406,59.2503 91.674,60.2503 89.5,60.5C 88.7148,58.6264 88.0482,56.6264 87.5,54.5C 89.6705,52.9138 92.0038,51.5804 94.5,50.5 Z"/></g>
<g><path style="opacity:1" fill="#25627d" d="M 99.5,55.5 C 99.56,54.9569 99.8933,54.6236 100.5,54.5C 101.494,59.456 101.827,64.456 101.5,69.5C 100.833,64.8333 100.167,60.1667 99.5,55.5 Z"/></g>
<g><path style="opacity:1" fill="#4bd5d0" d="M 73.5,55.5 C 75.5,56.5 77.5,57.5 79.5,58.5C 79.5,61.1667 79.5,63.8333 79.5,66.5C 76.3661,65.0991 73.3661,63.4325 70.5,61.5C 70.9014,60.009 71.068,58.3423 71,56.5C 71.6708,55.7476 72.5041,55.4142 73.5,55.5 Z"/></g>
<g><path style="opacity:1" fill="#2591d7" d="M 87.5,54.5 C 88.0482,56.6264 88.7148,58.6264 89.5,60.5C 86.5342,62.9884 83.2009,64.9884 79.5,66.5C 79.5,63.8333 79.5,61.1667 79.5,58.5C 82.1401,57.1799 84.8068,55.8466 87.5,54.5 Z"/></g>
<g><path style="opacity:1" fill="#746ed0" d="M 94.5,83.5 C 90.6286,83.815 86.9619,83.4816 83.5,82.5C 88.7372,79.6311 93.9038,76.6311 99,73.5C 101.39,74.2779 103.557,75.4445 105.5,77C 102.108,79.6937 98.4409,81.8604 94.5,83.5 Z"/></g>
<g><path style="opacity:1" fill="#8a6cc4" d="M 83.5,82.5 C 86.9619,83.4816 90.6286,83.815 94.5,83.5C 92.7952,85.1921 90.7952,86.5254 88.5,87.5C 82.5,86.1667 76.5,86.1667 70.5,87.5C 64.6964,84.4303 59.0297,81.097 53.5,77.5C 55.1184,75.684 57.1184,74.3507 59.5,73.5C 65.6641,76.7476 71.6641,80.2476 77.5,84C 79.6951,84.4094 81.6951,83.9094 83.5,82.5 Z"/></g>
<g><path style="opacity:1" fill="#a768b4" d="M 70.5,87.5 C 76.5,86.1667 82.5,86.1667 88.5,87.5C 85.5815,89.5436 82.4149,91.2103 79,92.5C 76.073,90.9546 73.2396,89.2879 70.5,87.5 Z"/></g>
<g><path style="opacity:0.016" fill="#fc045d" d="M 0.5,101.5 C 0.833333,101.5 1.16667,101.5 1.5,101.5C 1.5,102.5 1.5,103.5 1.5,104.5C 0.596028,103.791 0.262695,102.791 0.5,101.5 Z"/></g>
<g><path style="opacity:0.016" fill="#fc045d" d="M 157.5,101.5 C 157.833,101.5 158.167,101.5 158.5,101.5C 158.737,102.791 158.404,103.791 157.5,104.5C 157.5,103.5 157.5,102.5 157.5,101.5 Z"/></g>
<g><path style="opacity:0.016" fill="#0b043f" d="M 2.5,107.5 C 2.83333,107.5 3.16667,107.5 3.5,107.5C 3.5,108.5 3.5,109.5 3.5,110.5C 2.59603,109.791 2.26269,108.791 2.5,107.5 Z"/></g>
<g><path style="opacity:0.016" fill="#0b043f" d="M 155.5,107.5 C 155.833,107.5 156.167,107.5 156.5,107.5C 156.737,108.791 156.404,109.791 155.5,110.5C 155.5,109.5 155.5,108.5 155.5,107.5 Z"/></g>
<g><path style="opacity:1" fill="#3d9998" d="M 112.5,108.5 C 110.833,108.5 109.167,108.5 107.5,108.5C 107.5,113.5 107.5,118.5 107.5,123.5C 106.512,118.36 106.179,113.026 106.5,107.5C 108.735,107.205 110.735,107.539 112.5,108.5 Z"/></g>
<g><path style="opacity:1" fill="#63f4d3" d="M 112.5,108.5 C 111.791,109.404 110.791,109.737 109.5,109.5C 109.5,111.167 109.5,112.833 109.5,114.5C 113.5,115.167 113.5,115.833 109.5,116.5C 110.01,119.388 109.344,121.721 107.5,123.5C 107.5,118.5 107.5,113.5 107.5,108.5C 109.167,108.5 110.833,108.5 112.5,108.5 Z"/></g>
<g><path style="opacity:1" fill="#5eeac9" d="M 122.5,109.5 C 121.5,109.5 120.5,109.5 119.5,109.5C 119.5,114.167 119.5,118.833 119.5,123.5C 118.833,123.5 118.167,123.5 117.5,123.5C 117.5,118.833 117.5,114.167 117.5,109.5C 116.5,109.5 115.5,109.5 114.5,109.5C 115.334,108.252 116.667,107.585 118.5,107.5C 120.333,107.585 121.666,108.252 122.5,109.5 Z"/></g>
<g><path style="opacity:0.008" fill="#000070" d="M 3.5,110.5 C 3.83333,110.5 4.16667,110.5 4.5,110.5C 4.5,111.167 4.5,111.833 4.5,112.5C 3.66175,112.158 3.32842,111.492 3.5,110.5 Z"/></g>
<g><path style="opacity:0.008" fill="#000070" d="M 154.5,110.5 C 154.833,110.5 155.167,110.5 155.5,110.5C 155.672,111.492 155.338,112.158 154.5,112.5C 154.5,111.833 154.5,111.167 154.5,110.5 Z"/></g>
<g><path style="opacity:1" fill="#265d72" d="M 114.5,109.5 C 115.5,109.5 116.5,109.5 117.5,109.5C 117.5,114.167 117.5,118.833 117.5,123.5C 117.047,118.721 116.047,114.054 114.5,109.5 Z"/></g>
<g><path style="opacity:1" fill="#5477ec" d="M 36.5,109.5 C 38.6934,108.203 41.0268,108.203 43.5,109.5C 41.6409,113.922 40.9743,118.588 41.5,123.5C 40.5,123.5 39.5,123.5 38.5,123.5C 39.1031,118.381 38.4364,113.715 36.5,109.5 Z"/></g>
<g><path style="opacity:1" fill="#58d3c7" d="M 98.5,107.5 C 100.451,107.227 101.951,107.893 103,109.5C 103.943,114.16 104.777,118.827 105.5,123.5C 104.5,123.5 103.5,123.5 102.5,123.5C 102.5,122.5 102.5,121.5 102.5,120.5C 100.088,120.244 98.4209,121.244 97.5,123.5C 97.1667,122.333 96.8333,121.167 96.5,120C 97.41,115.863 98.0767,111.696 98.5,107.5 Z"/></g>
<g><path style="opacity:1" fill="#275f73" d="M 122.5,109.5 C 120.953,114.054 119.953,118.721 119.5,123.5C 119.5,118.833 119.5,114.167 119.5,109.5C 120.5,109.5 121.5,109.5 122.5,109.5 Z"/></g>
<g><path style="opacity:1" fill="#57c5ce" d="M 86.5,107.5 C 89.1194,107.232 91.6194,107.565 94,108.5C 93.8256,113.492 93.6589,118.492 93.5,123.5C 91.3949,114.43 90.0616,114.43 89.5,123.5C 88.5,123.5 87.5,123.5 86.5,123.5C 86.5,118.167 86.5,112.833 86.5,107.5 Z"/></g>
<g><path style="opacity:1" fill="#081245" d="M 89.5,110.5 C 90.5862,110.62 91.2528,111.287 91.5,112.5C 91.1667,113.167 90.8333,113.833 90.5,114.5C 89.5713,113.311 89.238,111.978 89.5,110.5 Z"/></g>
<g><path style="opacity:1" fill="#244c6c" d="M 99.5,112.5 C 100.649,112.791 101.316,113.624 101.5,115C 101.167,115.833 100.833,116.667 100.5,117.5C 99.5481,115.955 99.2148,114.288 99.5,112.5 Z"/></g>
<g><path style="opacity:1" fill="#527ee7" d="M 45.5,108.5 C 48.1194,108.232 50.6194,108.565 53,109.5C 52.7474,114.085 52.9141,118.751 53.5,123.5C 52.5,123.5 51.5,123.5 50.5,123.5C 49.8333,114.167 49.1667,114.167 48.5,123.5C 47.5,123.5 46.5,123.5 45.5,123.5C 45.5,118.5 45.5,113.5 45.5,108.5 Z"/></g>
<g><path style="opacity:1" fill="#091645" d="M 48.5,110.5 C 49.5862,110.62 50.2528,111.287 50.5,112.5C 50.1667,113.167 49.8333,113.833 49.5,114.5C 48.5713,113.311 48.238,111.978 48.5,110.5 Z"/></g>
<g><path style="opacity:1" fill="#509bd3" d="M 65.5,107.5 C 66.8221,107.33 67.9887,107.663 69,108.5C 69.9734,110.392 70.6401,112.392 71,114.5C 71.4966,112.19 71.6633,109.857 71.5,107.5C 72.5,107.5 73.5,107.5 74.5,107.5C 74.5,112.833 74.5,118.167 74.5,123.5C 73.325,123.719 72.325,123.386 71.5,122.5C 69.0804,114.519 68.0804,114.852 68.5,123.5C 67.5,123.5 66.5,123.5 65.5,123.5C 65.5,118.167 65.5,112.833 65.5,107.5 Z"/></g>
<g><path style="opacity:1" fill="#4f88da" d="M 57.5,107.5 C 59.4672,107.261 61.3005,107.594 63,108.5C 63.8015,113.419 63.6349,118.252 62.5,123C 60.2305,123.758 58.0639,123.591 56,122.5C 54.9548,117.215 55.4548,112.215 57.5,107.5 Z"/></g>
<g><path style="opacity:1" fill="#0a1646" d="M 58.5,110.5 C 59.7868,111.871 60.4535,113.705 60.5,116C 60.1667,117.833 59.8333,119.667 59.5,121.5C 58.5108,117.893 58.1774,114.226 58.5,110.5 Z"/></g>
<g><path style="opacity:1" fill="#55afd4" d="M 78.5,107.5 C 82.8333,107.167 84.8333,109.167 84.5,113.5C 83.5,113.5 82.5,113.5 81.5,113.5C 81.719,112.325 81.3857,111.325 80.5,110.5C 79.1667,114.167 79.1667,117.833 80.5,121.5C 81.4287,120.311 81.762,118.978 81.5,117.5C 82.5,117.5 83.5,117.5 84.5,117.5C 84.938,123.313 82.438,124.98 77,122.5C 75.9548,117.215 76.4548,112.215 78.5,107.5 Z"/></g>
<g><path style="opacity:0.016" fill="#00003f" d="M 145.5,126.5 C 145.833,126.5 146.167,126.5 146.5,126.5C 146.315,127.17 145.981,127.17 145.5,126.5 Z"/></g>
<g><path style="opacity:0.012" fill="#000055" d="M 142.5,130.5 C 142.833,130.5 143.167,130.5 143.5,130.5C 143.315,131.17 142.981,131.17 142.5,130.5 Z"/></g>
<g><path style="opacity:0.016" fill="#00003f" d="M 141.5,131.5 C 141.833,131.5 142.167,131.5 142.5,131.5C 142.315,132.17 141.981,132.17 141.5,131.5 Z"/></g>
<g><path style="opacity:0.016" fill="#00003f" d="M 140.5,132.5 C 140.833,132.5 141.167,132.5 141.5,132.5C 141.315,133.17 140.981,133.17 140.5,132.5 Z"/></g>
<g><path style="opacity:0.004" fill="#120230" d="M 19.5,133.5 C 20.1667,133.5 20.5,133.833 20.5,134.5C 21.1667,134.5 21.5,134.833 21.5,135.5C 22.1667,135.5 22.5,135.833 22.5,136.5C 23.1667,136.5 23.5,136.833 23.5,137.5C 24.1667,137.5 24.5,137.833 24.5,138.5C 25.1667,138.5 25.5,138.833 25.5,139.5C 25.1034,140.525 24.4368,140.692 23.5,140C 22,138.5 20.5,137 19,135.5C 18.3083,134.563 18.475,133.897 19.5,133.5 Z"/></g>
<g><path style="opacity:0.004" fill="#130226" d="M 139.5,133.5 C 139.833,133.5 140.167,133.5 140.5,133.5C 139.167,136.833 136.833,139.167 133.5,140.5C 133.5,140.167 133.5,139.833 133.5,139.5C 134.167,139.5 134.5,139.167 134.5,138.5C 135.167,138.5 135.5,138.167 135.5,137.5C 136.167,137.5 136.5,137.167 136.5,136.5C 137.167,136.5 137.5,136.167 137.5,135.5C 138.167,135.5 138.5,135.167 138.5,134.5C 139.167,134.5 139.5,134.167 139.5,133.5 Z"/></g>
<g><path style="opacity:0.016" fill="#00003f" d="M 132.5,140.5 C 132.833,140.5 133.167,140.5 133.5,140.5C 133.315,141.17 132.981,141.17 132.5,140.5 Z"/></g>
<g><path style="opacity:0.016" fill="#00003f" d="M 131.5,141.5 C 131.833,141.5 132.167,141.5 132.5,141.5C 132.315,142.17 131.981,142.17 131.5,141.5 Z"/></g>
<g><path style="opacity:0.012" fill="#000055" d="M 130.5,142.5 C 130.833,142.5 131.167,142.5 131.5,142.5C 131.315,143.17 130.981,143.17 130.5,142.5 Z"/></g>
<g><path style="opacity:0.008" fill="#00007f" d="M 129.5,143.5 C 129.833,143.5 130.167,143.5 130.5,143.5C 130.315,144.17 129.981,144.17 129.5,143.5 Z"/></g>
<g><path style="opacity:0.004" fill="#100020" d="M 127.5,145.5 C 127.5,145.167 127.5,144.833 127.5,144.5C 128.167,144.5 128.833,144.5 129.5,144.5C 129.158,145.338 128.492,145.672 127.5,145.5 Z"/></g>
<g><path style="opacity:0.016" fill="#00003f" d="M 126.5,145.5 C 126.833,145.5 127.167,145.5 127.5,145.5C 127.315,146.17 126.981,146.17 126.5,145.5 Z"/></g>
<g><path style="opacity:0.016" fill="#00003f" d="M 123.5,147.5 C 123.833,147.5 124.167,147.5 124.5,147.5C 124.315,148.17 123.981,148.17 123.5,147.5 Z"/></g>
<g><path style="opacity:0.008" fill="#140753" d="M 121.5,149.5 C 121.5,149.167 121.5,148.833 121.5,148.5C 122.167,148.5 122.833,148.5 123.5,148.5C 123.158,149.338 122.492,149.672 121.5,149.5 Z"/></g>
<g><path style="opacity:0.012" fill="#000055" d="M 120.5,149.5 C 120.833,149.5 121.167,149.5 121.5,149.5C 121.315,150.17 120.981,150.17 120.5,149.5 Z"/></g>
<g><path style="opacity:0.004" fill="#100020" d="M 118.5,151.5 C 118.5,151.167 118.5,150.833 118.5,150.5C 119.167,150.5 119.833,150.5 120.5,150.5C 120.158,151.338 119.492,151.672 118.5,151.5 Z"/></g>
<g><path style="opacity:0.008" fill="#00007f" d="M 116.5,152.5 C 116.5,152.167 116.5,151.833 116.5,151.5C 117.167,151.5 117.833,151.5 118.5,151.5C 118.158,152.338 117.492,152.672 116.5,152.5 Z"/></g>
<g><path style="opacity:0.008" fill="#00007f" d="M 114.5,153.5 C 114.5,153.167 114.5,152.833 114.5,152.5C 115.167,152.5 115.833,152.5 116.5,152.5C 116.158,153.338 115.492,153.672 114.5,153.5 Z"/></g>
<g><path style="opacity:0.008" fill="#000070" d="M 112.5,154.5 C 112.5,154.167 112.5,153.833 112.5,153.5C 113.167,153.5 113.833,153.5 114.5,153.5C 114.158,154.338 113.492,154.672 112.5,154.5 Z"/></g>
<g><path style="opacity:0.008" fill="#000070" d="M 110.5,155.5 C 110.5,155.167 110.5,154.833 110.5,154.5C 111.167,154.5 111.833,154.5 112.5,154.5C 112.158,155.338 111.492,155.672 110.5,155.5 Z"/></g>
<g><path style="opacity:0.016" fill="#0b043f" d="M 51.5,155.5 C 51.5,155.833 51.5,156.167 51.5,156.5C 47.5,156.167 47.5,155.833 51.5,155.5 Z"/></g>
<g><path style="opacity:0.016" fill="#0b043f" d="M 107.5,156.5 C 107.5,156.167 107.5,155.833 107.5,155.5C 108.5,155.5 109.5,155.5 110.5,155.5C 109.791,156.404 108.791,156.737 107.5,156.5 Z"/></g>
<g><path style="opacity:0.016" fill="#fc0453" d="M 51.5,156.5 C 52.2389,156.369 52.9056,156.536 53.5,157C 52.5632,157.692 51.8966,157.525 51.5,156.5 Z"/></g>
<g><path style="opacity:0.008" fill="#fd0368" d="M 107.5,156.5 C 107.103,157.525 106.437,157.692 105.5,157C 106.094,156.536 106.761,156.369 107.5,156.5 Z"/></g>
<g><path style="opacity:0.016" fill="#0b043f" d="M 57.5,157.5 C 57.5,157.833 57.5,158.167 57.5,158.5C 53.5,158.167 53.5,157.833 57.5,157.5 Z"/></g>
<g><path style="opacity:0.016" fill="#0b043f" d="M 101.5,158.5 C 101.5,158.167 101.5,157.833 101.5,157.5C 105.5,157.833 105.5,158.167 101.5,158.5 Z"/></g>
<g><path style="opacity:0.016" fill="#fd044e" d="M 57.5,159.5 C 57.5,159.167 57.5,158.833 57.5,158.5C 58.791,158.263 59.791,158.596 60.5,159.5C 59.5,159.5 58.5,159.5 57.5,159.5 Z"/></g>
<g><path style="opacity:0.016" fill="#fd044e" d="M 98.5,159.5 C 99.209,158.596 100.209,158.263 101.5,158.5C 101.5,158.833 101.5,159.167 101.5,159.5C 100.5,159.5 99.5,159.5 98.5,159.5 Z"/></g>
</svg>
