<?xml version="1.0"?><svg xmlns="http://www.w3.org/2000/svg" width="36" height="36" shape-rendering="geometricPrecision" text-rendering="geometricPrecision" image-rendering="optimizeQuality" fill-rule="evenodd" clip-rule="evenodd" viewBox="0 0 36 36"><path fill="#e0e1db" d="m27.5 1.9c0.3 0 0.3 0.1 0.1 0.3-0.1-0.1-0.1-0.2-0.1-0.3z" opacity=".004"></path><path fill="#0f101e" d="m10.2 2c0 0.6-0.3 0.8-0.7 0.7-0.1 0.1-0.2 0.2-0.3 0.3-0.3 0.2-0.6 0.5-0.8 0.9-0.1-0.1-0.2-0.1-0.2-0.2-0.3 0.3-0.6 0.4-1 0.5 0.2 0.1 0.2 0.2 0 0.3-0.6 0.2-1.1 0.6-1.4 1.2-0.6 0.3-1.1 0.8-1.3 1.5-0.3 0.3-0.6 0.6-0.9 0.8-0.4 0.6-0.6 1.3-0.6 2.1-0.7 0-1 0.4-1 1.1-0.2 0.3-0.4 0.5-0.7 0.7-0.4 1.3-0.8 2.7-1 4.1-0.1-0.2-0.2-0.2-0.4 0v-0.3c0.9-5.5 3.6-9.8 8.2-12.8 0.7 0.1 1.2-0.2 1.6-0.7l0.1 0.3c0.1-0.2 0.2-0.4 0.4-0.5z"></path><path fill="#030421" d="m24.4 4.7c-0.3-0.1-0.6-0.1-0.8-0.1-1.8-0.1-3.5-0.3-5.2-0.5-1.1-0.1-2.2-0.1-3.3-0.1 0.1-0.1 0.2-0.2 0.3-0.2-0.3-0.1-0.3-0.2-0.1-0.4 0.5 0.2 1 0.2 1.5 0.1-0.2 0-0.5-0.1-0.7-0.2 0.2-0.3 0.3-0.7 0.4-1.1 0.1 0.2 0.2 0.4 0 0.6 0.1 0.1 0.3 0.2 0.4 0.3 0.7 0.1 1.4 0.1 2 0 0.1-0.1 0.2-0.2 0.2-0.4 0.3 0.3 0.5 0.5 0.7 0.7 1.2 0.2 2.4 0.4 3.6 0.6 0.4 0 0.8-0.1 1.1-0.4 0 0.2 0.1 0.4 0 0.7 0.4 0 0.6-0.1 0.9-0.3 0.9 0.4 1.2 0.1 0.8-0.7-0.6-0.5-1.1-0.6-1.7-0.3-0.3-0.2-0.4-0.5-0.5-0.8l-2.3-0.3c0.4-0.1 0.7-0.2 1-0.4-0.4-0.2-0.8-0.4-1.2-0.6-2.3 0-4.5 0-6.8 0.2l-0.7 0.2c-0.2 0.1-0.2 0.3 0 0.5l0.3-0.2c0.3 0.1 0.6 0.2 1 0.2l-2.2 0.2h-1.9c0.1 0.7-0.2 0.9-0.7 0.5-0.2 0.1-0.4 0.2-0.6 0.5-0.2 0-0.5 0-0.7 0 0.1-0.1 0.2-0.2 0.3-0.3 0.4 0.1 0.7-0.1 0.7-0.7 0.3 0 0.5-0.1 0.8-0.2 0.3 0.1 0.6 0.1 0.9 0-0.2-0.2-0.1-0.4 0.1-0.6 0.1 0 0.2 0.1 0.2 0.1 0.4-0.2 0.9-0.3 1.4-0.4 0.1 0 0.1 0.1 0.2 0.2 0.5-0.4 0.9-0.6 1.5-0.7 1.4-0.2 2.9-0.3 4.4-0.3 0.1 0.2 0.1 0.3 0.1 0.5 0.9-0.1 1.8 0.1 2.6 0.5 0.2-0.1 0.3-0.2 0.5-0.2 0.4 0.2 0.8 0.3 1.2 0.3v0.8c0.3 0.1 0.6 0 0.9-0.1 0.5 0.3 1 0.6 1.5 0.8l0.6 0.6c-0.1 0.4-0.2 0.7-0.5 0.9l0.3 0.2-2.2 0.1c-0.1 0-0.2 0.1-0.3 0.2z"></path><path fill="#02062c" d="m15.1 4c-0.5 0.6-1 1.3-1.4 2-1 1.1-1.9 2.2-2.8 3.4-0.1-0.8-0.1-1.5 0.1-2.3l0.3 0.8c0.1-0.8 0.6-1.4 1.6-1.7-0.2-0.3-0.3-0.6-0.3-0.9l0.1-0.9c0.8-0.2 1.1-0.8 0.9-1.7-0.2-0.1-0.4-0.3-0.6-0.4 0.1-0.1 0.1-0.2 0.1-0.3l2.2-0.2c-0.4 0-0.7-0.1-1-0.2l-0.3 0.2c-0.2-0.2-0.2-0.4 0-0.5l0.7-0.2c2.3-0.2 4.5-0.2 6.8-0.2 0.4 0.2 0.8 0.4 1.2 0.6-0.3 0.2-0.6 0.3-1 0.4l2.3 0.3c0.1 0.3 0.2 0.6 0.5 0.8 0.6-0.3 1.1-0.2 1.7 0.3 0.4 0.8 0.1 1.1-0.8 0.7-0.3 0.2-0.5 0.3-0.9 0.3 0.1-0.3 0-0.5 0-0.7-0.3 0.3-0.7 0.4-1.1 0.4-1.2-0.2-2.4-0.4-3.6-0.6-0.2-0.2-0.4-0.4-0.7-0.7 0 0.2-0.1 0.3-0.2 0.4-0.6 0.1-1.3 0.1-2 0-0.1-0.1-0.3-0.2-0.4-0.3 0.2-0.2 0.1-0.4 0-0.6-0.1 0.4-0.2 0.8-0.4 1.1 0.2 0.1 0.5 0.2 0.7 0.2-0.5 0.1-1 0.1-1.5-0.1-0.2 0.2-0.2 0.3 0.1 0.4-0.1 0-0.2 0.1-0.3 0.2z"></path><path fill="#0f111b" d="m15.7-0.1h4.5c6.9 1.2 11.7 5 14.5 11.4-0.2 0-0.3 0-0.4-0.1-0.2-0.7-0.5-1.3-0.8-1.8-0.2-0.2-0.3-0.2-0.5-0.2 0-0.2 0-0.3-0.2-0.4 0 0.1 0 0.3-0.1 0.4-0.2-0.2-0.4-0.5-0.5-0.8-0.1-0.2-0.1-0.4-0.1-0.6-0.4 0-0.8-0.2-1.1-0.6-0.2 0.2-0.3 0.4-0.4 0.6h-0.4c-0.2 0.5-0.3 1-0.4 1.6 0-0.1-0.1-0.2-0.2-0.2l-1.1 2.3c0.3-1.3 0.6-2.5 1-3.7 0.3-0.9 0.6-1.8 0.8-2.7-1.1-0.1-2.2-0.2-3.4-0.2-0.8-0.2-1.6-0.2-2.5-0.2 0.1-0.1 0.2-0.2 0.3-0.2l2.2-0.1-0.3-0.2c0.3-0.2 0.4-0.5 0.5-0.9l-0.6-0.6c-0.5-0.2-1-0.5-1.5-0.8-0.3 0.1-0.6 0.2-0.9 0.1v-0.8c-0.4 0-0.8-0.1-1.2-0.3-0.2 0-0.3 0.1-0.5 0.2-0.8-0.4-1.7-0.6-2.6-0.5 0-0.2 0-0.3-0.1-0.5-1.5 0-3 0.1-4.4 0.3-0.6 0.1-1 0.3-1.5 0.7-0.1-0.1-0.1-0.2-0.2-0.2-0.5 0.1-1 0.2-1.4 0.4 0 0-0.1-0.1-0.2-0.1-0.2 0.2-0.3 0.4-0.1 0.6-0.3 0.1-0.6 0.1-0.9 0-0.3 0.1-0.5 0.2-0.8 0.2-0.2 0.1-0.3 0.3-0.4 0.5l-0.1-0.3c-0.4 0.5-0.9 0.8-1.6 0.7 0.8-0.7 1.8-1.2 2.8-1.6 1.6-0.6 3.2-1.1 4.8-1.4z"></path><path fill="#f0f1ef" d="m30.3 4.4c0.2 0.1 0.2 0.1 0 0z" opacity=".004"></path><path fill="#3496d8" d="m23.8 5.3c-0.7 0.8-1.5 1.6-2.1 2.5-0.1 0.6-0.3 1.1-0.5 1.6h-0.5c0.1-0.5 0-0.9-0.2-1.2-1.4-0.1-2.8-0.1-4.1 0 0 0.2 0 0.3-0.2 0.4-0.2 0-0.4 0-0.6-0.1-0.1 0.4-0.4 0.6-0.8 0.7 0-0.4-0.1-0.9-0.2-1.3 0.3-0.4 0.7-0.7 0.9-1.1 0.9-0.8 2-1.1 3.1-1 0.7 0.1 1.3 0.1 1.9 0.2 0.4 0 0.7-0.2 0.8-0.4 0.4 0 0.8 0 1.1-0.1l-0.1-0.2c0.2-0.1 0.3-0.2 0.4-0.4l0.3 0.2c0.1-0.2 0.3-0.3 0.6-0.2-0.1 0.2 0 0.3 0.2 0.4z"></path><path fill="#4ec4b8" d="m26.9 4.9c1.2 0 2.3 0.1 3.4 0.2-0.2 0.9-0.5 1.8-0.8 2.7-0.1-0.5-0.3-1-0.5-1.5-0.3-0.1-0.6 0.1-0.8 0.5 0.1 0.4 0.2 0.8 0.4 1.2-0.3 1.2-0.7 2.3-1.2 3.5l-0.1 1.2c-0.2-0.2-0.2-0.4-0.2-0.7h-0.6c-0.1-0.1-0.1-0.2 0.1-0.3 0.1-0.1 0.1-0.3 0-0.5-0.2 0.3-0.4 0.7-0.4 1.1-0.1 0.1-0.3 0.2-0.4 0.1 0.2-1 0.4-1.9 0.5-2.9l0.4-0.4c0.1-0.5 0.1-1.1 0.1-1.6h-0.4c-0.1-0.2 0-0.5 0.2-0.6 0.3 0.1 0.5 0.1 0.8-0.1-0.4-0.3-0.7-0.5-1-0.4 0.3-0.3 0.6-0.6 1.1-0.8 0.1-0.2 0.2-0.4 0.1-0.6-0.2 0-0.5 0-0.7-0.1z"></path><path fill="#4ec5ac" d="m25.5 15.3c0 0.4-0.1 0.8-0.4 1.1 0 0.1 0 0.2-0.1 0.3-0.8 0.5-1.6 0.9-2.3 1.4 0-1.2 0-2.4 0-3.5 0.2-0.7 0.4-1.3 0.6-1.9l0.3-0.4c0 0.4 0 0.7 0 1.1h0.4c0.1-1.7 0.4-3.5 0.8-5.2l-0.1-0.2c0.2-0.3 0.5-0.6 0.8-0.9 0 0.1 0 0.1 0.1 0.1 0.2-0.2 0.3-0.3 0.5 0-0.4 0.5-0.8 1.1-1 1.8l0.1 0.1c-0.3 1.4-0.4 2.9-0.2 4.3 0.1-0.2 0.1-0.4 0.1-0.7h0.4c-0.2 0.8-0.4 1.6-0.5 2.4l0 0.6c0.1-0.3 0.2-0.5 0.4-0.7 0.1 0 0.1 0.1 0.1 0.3z"></path><path fill="#010635" d="m12.6 2h0.5c0 0.1 0 0.2-0.1 0.3 0.2 0.1 0.4 0.3 0.6 0.4 0.2 0.9-0.1 1.5-0.9 1.7l-0.1 0.9c0 0.3 0.1 0.6 0.3 0.9-1 0.3-1.5 0.9-1.6 1.7l-0.3-0.8c-0.2 0.8-0.2 1.5-0.1 2.3 0 0 0 0.1-0.1 0.1-0.1-0.2-0.2-0.3-0.4-0.3-0.3 0-0.5 0.1-0.6 0.4 0-0.3-0.2-0.4-0.6-0.4v0.6h-0.7c0-0.4 0-0.8-0.1-1.2 0 0.4-0.1 0.7-0.2 1v-2.4c-0.5 0-1.1 0-1.7 0.1-0.3 0.1-0.5 0.3-0.7 0.6 0.2 0.4 0.2 0.8 0.1 1.2-0.1 0.1-0.3 0.1-0.5 0.1 0.1-0.3 0-0.6-0.1-0.8-0.3 0.3-0.6 0.7-1 1 0.5 0.5 1 0.5 1.4 0 0.1 0.1 0.2 0.2 0.3 0.3 1.1 0.1 1.1 0.3 0 0.4-0.4 0.5-0.6 0.4-0.8-0.2-0.4 0.1-0.8 0.2-1.2 0.3 0 0.5-0.2 0.9-0.6 1.2 0.1 0.2 0 0.4-0.2 0.5-0.1-0.1-0.1-0.2-0.2-0.2 0.3-0.5 0.4-1.1 0.4-1.6 0.1-0.3 0.1-0.5 0.1-0.7 0.4-0.4 0.6-0.9 0.8-1.6 0.1 0 0.3 0 0.4-0.1 0.3-0.2 0.5-0.5 0.6-0.9l0.3 0.6c0.5-0.1 0.6-0.2 0.2-0.5 0.3-0.3 0.5-0.7 0.7-1.1 0.6-0.4 1.2-0.7 1.7-0.9 0.1 0.4 0.2 0.9 0.2 1.4 0-0.9 0.2-1.8 0.5-2.6 0.3 0 0.5 0.2 0.7 0.4 0.1-0.4 0.3-0.8 0.7-1 0.2-0.1 0.4-0.1 0.6 0.1 0.4-0.2 0.8-0.4 1.1-0.7 0.2 0 0.4-0.1 0.6 0v-0.5z"></path><path fill="#4dc0ad" d="m26.5 12c-0.3 1-0.6 2.1-0.8 3.1 0 0.1-0.1 0.1-0.2 0.2 0-0.2 0-0.3-0.1-0.3-0.2 0.2-0.3 0.4-0.4 0.7l0-0.6c0.1-0.8 0.3-1.6 0.5-2.4h-0.4c0 0.3 0 0.5-0.1 0.7-0.2-1.4-0.1-2.9 0.2-4.3l-0.1-0.1c0.2-0.7 0.6-1.3 1-1.8-0.2-0.3-0.3-0.2-0.5 0-0.1 0-0.1 0-0.1-0.1 0.3-0.3 0.5-0.5 0.9-0.7 0.3-0.1 0.6 0.1 1 0.4-0.3 0.2-0.5 0.2-0.8 0.1-0.2 0.1-0.3 0.4-0.2 0.6h0.4c0 0.5 0 1.1-0.1 1.6l-0.4 0.4c-0.1 1-0.3 1.9-0.5 2.9 0.1 0.1 0.3 0 0.4-0.1 0-0.4 0.2-0.8 0.4-1.1 0.1 0.2 0.1 0.4 0 0.5-0.2 0.1-0.2 0.2-0.1 0.3z"></path><path fill="#56d2af" d="m24.4 4.7c0.9 0 1.7 0 2.5 0.2 0.2 0.1 0.5 0.1 0.7 0.1 0.1 0.2 0 0.4-0.1 0.6-0.5 0.2-0.8 0.5-1.1 0.8-0.4 0.2-0.6 0.4-0.9 0.7-0.3 0.3-0.6 0.6-0.8 0.9l0.1 0.2c-0.4 1.7-0.7 3.5-0.8 5.2h-0.4c0-0.4 0-0.7 0-1.1l-0.3 0.4c-0.2 0.6-0.4 1.2-0.6 1.9 0 1.1 0 2.3 0 3.5 0.7-0.5 1.5-0.9 2.3-1.4 0.1-0.1 0.1-0.2 0.1-0.3 0.1-0.2 0.2-0.2 0.4 0l0.1 0.5c0.2-0.6 0.5-1.2 0.8-1.8 0.2-0.1 0.4-0.2 0.7-0.2 0.2-0.5 0.3-0.4 0.3 0.1-0.2 0.9-0.5 1.9-0.9 2.8-0.5 0.3-1.1 0.6-1.5 1-0.8 0.2-1.4 0.6-2 1.1-0.3 0.2-0.6 0.3-1 0.4 0-0.2-0.1-0.4-0.3-0.5 0.2 0 0.3-0.1 0.4-0.3l-0.9-1.2c0-0.1 0.1-0.2 0.1-0.3-0.1-0.6-0.2-1.2-0.3-1.8 0.4-0.3 0.4-0.7 0-1.2l0.1-0.3c0.2 0.3 0.4 0.3 0.6 0-0.1-0.5-0.1-0.9-0.1-1.3 0.2-0.4 0.5-0.8 0.7-1.2-0.1-0.1-0.1-0.2-0.2-0.4 0.3-0.5 0.4-1 0.3-1.5-0.1 0.1-0.2 0.2-0.3 0.2 0-0.4 0.1-0.7 0.3-1 0.7-1.5 1.4-3.1 2-4.6v-0.2z"></path><path fill="#4f35a1" d="m24.4 4.9c-0.6 1.5-1.3 3.1-2 4.6h-1.2v-0.1c0.2-0.5 0.4-1 0.5-1.6 0.6-0.9 1.4-1.7 2.1-2.5 0.1-0.3 0.3-0.5 0.6-0.4z"></path><path fill="#010636" d="m32.3 10.1c0.1 0.8 0.1 1.7 0 2.6-0.6 0.1-1.1 0.1-1.6 0-0.4 0.2-0.7 0.3-1 0.4-0.5-0.1-0.8-0.1-1.2 0.3 0 0.3-0.1 0.6-0.2 0.9 0-0.4 0-0.8 0-1.2 0.4-0.2 0.7-0.4 1.2-0.4-0.1-0.3-0.3-0.5-0.5-0.7 0.2-0.1 0.2-0.3 0-0.4 0.2 0.1 0.4 0 0.5-0.3 0-0.4 0-0.8 0-1.2l0.2 0.4c0.1 0.2 0.2 0.2 0.3 0 0.2-0.7 0.5-1.3 0.7-2 0.1 0.2 0.2 0.5 0.3 0.7 0.2 0.2 0.3 0.3 0.6 0.3 0-0.2-0.1-0.4-0.2-0.5 0.2-0.1 0.3-0.1 0.5 0 0.1 0.3 0.3 0.7 0.4 1.1z"></path><path fill="#01042b" d="m32.7 9.2c0.4 1 0.9 2 1.4 3-0.1 0.2-0.2 0.3-0.4 0.5 0.2 0 0.3 0.1 0.5 0.2l0.4 1.5c0.1 0.3 0.1 0.6-0.1 0.9 0.2 0.3 0.4 0.6 0.4 0.9 0 0.6 0.1 1.1 0 1.6-0.2 0-0.3 0.1-0.4 0.3 0.2 0.1 0.3 0.3 0.3 0.5-0.1 0.5-0.2 1.1-0.2 1.6-0.1 0.3-0.2 0.5-0.5 0.6 0.3 0.8 0.1 1.6-0.4 2.3-0.1 0.2-0.3 0.2-0.4 0.2 0.2-0.5 0.4-1 0.7-1.6 0.1-0.2 0.1-0.4 0-0.7-0.3-0.1-0.6-0.2-1-0.3-0.3 0.4-0.5 0.4-0.6-0.1h1.7c0-0.4 0.2-0.8 0.4-1.2-0.1-0.2-0.1-0.5 0-0.8 0-0.1 0-0.2-0.1-0.3-0.7-0.2-0.7-0.4 0-0.5 0.1-0.5 0.2-0.9 0.1-1.4-0.3-0.5-0.5-1-0.8-1.5 0.1-0.5 0.2-1.1 0.1-1.6-0.3-0.4-0.7-0.5-1.1-0.6 0 0.4 0 0.5-0.3 0.3-0.1 0-0.2-0.1-0.1-0.3 0.1-0.9 0.1-1.8 0-2.6 0.1-0.7-0.1-1.3-0.7-1.6-0.4 0.2-0.5 0.2-0.3-0.1-0.2-0.2-0.5-0.4-0.7-0.6 0.1-0.2 0.2-0.4 0.4-0.6 0.3 0.4 0.7 0.6 1.1 0.6 0 0.2 0 0.4 0.1 0.6 0.1 0.3 0.3 0.6 0.5 0.8z"></path><path fill="#2b9eda" d="m21.3 5.6c-0.1 0.2-0.4 0.4-0.8 0.4-0.6-0.1-1.2-0.1-1.9-0.2-1.1-0.1-2.2 0.2-3.1 1-0.2 0.4-0.6 0.7-0.9 1.1 0.1 0.4 0.2 0.9 0.2 1.3 0.4-0.1 0.7-0.3 0.8-0.7 0.2 0.1 0.4 0.1 0.6 0.1 0.2-0.1 0.2-0.2 0.2-0.4 1.3-0.1 2.7-0.1 4.1 0 0.2 0.3 0.3 0.7 0.2 1.2h0.5v0.1c-1.4 0.1-2.7 0.2-4.1 0.1l3.5-0.2c0.1-0.4 0-0.7-0.3-1-1.2-0.1-2.4 0-3.6 0.5l-0.1-0.1c-0.4 0.2-0.8 0.4-1.1 0.7-0.1-0.1-0.1-0.2-0.2-0.3-0.5 1.3-1.4 2.2-2.7 2.5 0.5-0.2 0.5-0.4 0-0.4 0-0.3-0.1-0.6-0.1-1 0.4-0.1 0.6-0.4 0.6-0.8 0.3-0.4 0.5-0.8 0.8-1.1 0.3-0.9 0.7-1.7 1.4-2.3 0.2 0.1 0.3 0.1 0.4 0.2 0.5-0.4 1-0.7 1.7-0.7 1.3 0 2.6 0 3.9 0z"></path><path fill="#010329" d="m12.6 2v0.5c-0.2-0.1-0.4 0-0.6 0-0.3 0.3-0.7 0.5-1.1 0.7-0.2-0.2-0.4-0.2-0.6-0.1-0.4 0.2-0.6 0.6-0.7 1-0.2-0.2-0.4-0.4-0.7-0.4-0.3 0.8-0.5 1.7-0.5 2.6 0-0.5-0.1-1-0.2-1.4-0.5 0.2-1.1 0.5-1.7 0.9-0.2 0.4-0.4 0.8-0.7 1.1 0.4 0.3 0.3 0.4-0.2 0.5l-0.3-0.6c-0.1 0.4-0.3 0.7-0.6 0.9-0.1 0.1-0.3 0.1-0.4 0.1-0.2 0.7-0.4 1.2-0.8 1.6 0 0.2 0 0.4-0.1 0.7-0.2 0.3-0.4 0.7-0.4 1.2-0.2-0.1-0.3-0.1-0.4 0-0.1 0.4-0.2 0.7-0.4 1 0 0.1 0.1 0.2 0.1 0.2-0.1 0.1-0.3 0.3-0.3 0.5-0.1 0.6-0.3 1.1-0.5 1.6l0.3 0.6c-0.3 0.3-0.5 0.6-0.7 0.9 0 0.6-0.1 1.1 0 1.7h0.5c-0.1 0.2-0.3 0.4-0.5 0.5v1.5c0.2 0.2 0.3 0.5 0.4 0.8h0.4c0.2 0.3 0.1 0.5-0.1 0.8 0.2 0.4 0.3 0.8 0.4 1.2 0.1 0.3 0.3 0.4 0.5 0.3 0.2-0.3 0.2-0.7 0.3-1 0 0.4 0.1 0.9 0.2 1.4-0.2 0-0.3 0-0.3 0.1-0.1 0.3-0.2 0.6-0.2 0.9-0.1-0.3-0.3-0.5-0.5-0.6l0.4-0.4c-0.4-0.1-0.7-0.4-0.8-0.9 0-0.1 0-0.3 0.1-0.4-0.1-0.1-0.2-0.2-0.3-0.1-0.2-0.1-0.3-0.2-0.5-0.2-0.1-0.3 0-0.6 0.1-0.9-0.4-0.8-0.5-1.6-0.3-2.5 0.1-0.2 0.2-0.2 0.3-0.3-0.4-0.9-0.4-1.8 0-2.7 0-0.3-0.1-0.4-0.3-0.5 0.6-0.5 0.8-1.2 0.8-1.9 0.3-0.3 0.4-0.6 0.2-0.9 0.2-0.4 0.3-0.8 0.4-1.2 0.2-0.2 0.4-0.2 0.7-0.2v-0.5c0-0.8 0.2-1.5 0.6-2.1 0.3-0.2 0.6-0.5 0.9-0.8 0.2-0.7 0.7-1.2 1.3-1.5 0.3-0.6 0.8-1 1.4-1.2 0.2-0.1 0.2-0.2 0-0.3 0.4-0.1 0.7-0.2 1-0.5 0 0.1 0.1 0.1 0.2 0.2 0.2-0.4 0.5-0.7 0.8-0.9 0.2 0 0.5 0 0.7 0 0.2-0.3 0.4-0.4 0.6-0.5 0.5 0.4 0.8 0.2 0.7-0.5h1.4z"></path><path fill="#00083c" d="m8.2 9.6c0 0.8-0.3 1.6-0.7 2.4l0.2 0.1c-0.3 0.1-0.5 0.1-0.7-0.1-0.1 0.1-0.1 0.2-0.2 0.3-1.2 0.3-2.4 0.3-3.6 0.1v-0.5c0.2-0.1 0.3-0.3 0.2-0.5 0.4-0.3 0.6-0.7 0.6-1.2 0.4-0.1 0.8-0.2 1.2-0.3 0.2 0.6 0.4 0.7 0.8 0.2 1.1-0.1 1.1-0.3 0-0.4-0.1-0.1-0.2-0.2-0.3-0.3-0.4 0.5-0.9 0.5-1.4 0 0.4-0.3 0.7-0.7 1-1 0.1 0.2 0.2 0.5 0.1 0.8 0.2 0 0.4 0 0.5-0.1 0.1-0.4 0.1-0.8-0.1-1.2 0.2-0.3 0.4-0.5 0.7-0.6 0.6-0.1 1.2-0.1 1.7-0.1v2.4z"></path><path fill="#08091e" d="m21.2 9.5h1.2c-0.2 0.3-0.3 0.6-0.3 1-0.3 0.5-0.5 1-0.8 1.5 0-0.4 0.2-0.9 0.4-1.2-0.4-0.2-0.9-0.2-1.4-0.3 0.3 0 0.6-0.1 0.9-0.2-1.1-0.1-2.2-0.2-3.3-0.1v0.4h-1c0 0.6-0.3 1-0.7 1.4-0.1 0-0.2-0.1-0.2-0.3 0-0.1 0.1-0.3 0.1-0.5 0.3-0.6 0.6-1.1 1-1.6 1.4 0.1 2.7 0 4.1-0.1z"></path><path fill="#2db6e4" d="m15.1 4c1.1 0 2.2 0 3.3 0.1 1.7 0.2 3.4 0.4 5.2 0.5-1.3 0.1-2.6 0.2-4 0.3-1-0.1-2-0.1-3-0.2-0.3 0.3-0.7 0.5-1.1 0.7-0.1 0.2-0.1 0.4-0.1 0.6-0.9 0.1-1.4 0.7-1.5 1.5-0.4 0.5-0.7 0.9-1 1.4-0.1 0.2-0.3 0.2-0.4 0-0.1 0.2 0 0.3 0.1 0.4-0.4 0.3-0.7 0.7-0.9 1.2-0.1 0.1-0.3 0.2-0.5 0.1 0 0.5-0.1 0.9-0.3 1.3 0.2 0.2 0.3 0.5 0.3 0.8 1.1 0.2 2.1-0.1 2.9-0.9-0.2-0.1-0.2-0.3 0-0.4 0.8-0.3 1.3-0.8 1.5-1.6 0 0.4 0.1 0.7 0.4 1-0.2 0.1-0.3 0.3-0.5 0.5l-0.2-0.3c-0.7 0.8-1.5 1.4-2.3 1.9-0.8 0.4-1.6 0.3-2.4-0.1 0-0.3 0-0.5 0-0.8-0.2-0.1-0.4-0.2-0.5-0.4 0.2-0.7 0.5-1.3 0.9-1.8l0.3 0.5c0.4-0.2 0.6-0.6 0.6-1.1 0.1 0 0.3 0 0.4-0.1-0.2-0.2-0.3-0.5-0.3-0.7h0.4c0.3 0.3 0.3 0.1 0-0.6h0.5v-0.4c0.5-0.3 0.8-0.8 0.8-1.4 0.4-0.7 0.9-1.4 1.4-2z"></path><path fill="#2ea8e0" d="m23.6 4.6c0.2 0 0.5 0 0.8 0.1v0.2c-0.3-0.1-0.5 0.1-0.6 0.4-0.2-0.1-0.3-0.2-0.2-0.4-0.3-0.1-0.5 0-0.6 0.2l-0.3-0.2c-0.1 0.2-0.2 0.3-0.4 0.4l0.1 0.2c-0.3 0.1-0.7 0.1-1.1 0.1-1.3 0-2.6 0-3.9 0-0.7 0-1.2 0.3-1.7 0.7-0.1-0.1-0.2-0.1-0.4-0.2-0.7 0.6-1.1 1.4-1.4 2.3-0.3 0.3-0.5 0.7-0.8 1.1 0 0.4-0.2 0.7-0.6 0.8 0 0.4 0.1 0.7 0.1 1 0.5 0 0.5 0.2 0 0.4 1.3-0.3 2.2-1.2 2.7-2.5 0.1 0.1 0.1 0.2 0.2 0.3 0.3-0.3 0.7-0.5 1.1-0.7l0.1 0.1c1.2-0.5 2.4-0.6 3.6-0.5 0.3 0.3 0.4 0.6 0.3 1-1.2-0.1-2.4 0-3.7 0-0.1 0.3-0.3 0.4-0.6 0.5 0 0.3-0.1 0.6-0.3 0.9-0.3-0.3-0.4-0.6-0.4-1-0.2 0.8-0.7 1.3-1.5 1.6-0.2 0.1-0.2 0.3 0 0.4-0.8 0.8-1.8 1.1-2.9 0.9 0-0.3-0.1-0.6-0.3-0.8 0.2-0.4 0.3-0.8 0.3-1.3 0.2 0.1 0.4 0 0.5-0.1 0.2-0.5 0.5-0.9 0.9-1.2-0.1-0.1-0.2-0.2-0.1-0.4 0.1 0.2 0.3 0.2 0.4 0 0.3-0.5 0.6-0.9 1-1.4 0.1-0.8 0.6-1.4 1.5-1.5 0-0.2 0-0.4 0.1-0.6 0.4-0.2 0.8-0.4 1.1-0.7 1 0.1 2 0.1 3 0.2 1.4-0.1 2.7-0.2 4-0.3z"></path><path fill="#03072c" d="m30.6 7.8c0.2 0.2 0.5 0.4 0.7 0.6-0.2 0.3-0.1 0.3 0.3 0.1 0.6 0.3 0.8 0.9 0.7 1.6-0.1-0.4-0.3-0.8-0.4-1.1-0.2-0.1-0.3-0.1-0.5 0 0.1 0.1 0.2 0.3 0.2 0.5-0.3 0-0.4-0.1-0.6-0.3-0.1-0.2-0.2-0.5-0.3-0.7-0.2 0.7-0.5 1.3-0.7 2-0.1 0.2-0.2 0.2-0.3 0l-0.2-0.4c0 0.4 0 0.8 0 1.2-0.1 0.3-0.3 0.4-0.5 0.3 0.2 0.1 0.2 0.3 0 0.4 0.2 0.2 0.4 0.4 0.5 0.7-0.5 0-0.8 0.2-1.2 0.4 0 0.4 0 0.8 0 1.2 0.1 0.2 0.1 0.4 0.1 0.7 0.2 0.1 0.3 0.2 0.5 0.3-0.3 0.1-0.5 0.2-0.6 0.4 0 0.3-0.2 0.5-0.4 0.7 0-0.2 0-0.3-0.1-0.4-0.2 0.2-0.2 0.6 0 0.9-0.5 0-0.5 0.1-0.2 0.3-0.2 0.1-0.5 0.1-0.8 0.2-0.1 0.5 0.1 0.6 0.6 0.4 0.1 0 0.3 0.1 0.4 0.2-0.4 0-0.7 0.1-1 0.4-0.2-0.2-0.4-0.2-0.6-0.2 0 0.3 0.1 0.5 0.2 0.7-0.3 0.2-0.6 0.3-0.9 0.3v1.4c0.2 0 0.4 0 0.6 0.1-0.6 0.1-0.9 0.4-0.9 1-0.4-0.5-0.6-1.1-0.7-1.9 0.2-0.1 0.2-0.3 0-0.4 0.3-0.2 0.4-0.4 0.5-0.6 0.4-0.4 1-0.7 1.5-1 0.4-0.9 0.7-1.9 0.9-2.8l1.1-3.5 1.1-2.3c0.1 0 0.2 0.1 0.2 0.2 0.1-0.6 0.2-1.1 0.4-1.6h0.4z"></path><path fill="#01031d" d="m34.7 11.3c-0.1 0.6 0 1.2 0.1 1.8 0 0.2 0.2 0.4 0.4 0.5 0 0.3 0.1 0.7 0.2 1.1-0.1 0.2-0.2 0.4-0.5 0.5 0.4 0.8 0.6 1.7 0.6 2.6h-0.6c0.1-0.5 0-1 0-1.6 0-0.3-0.2-0.6-0.4-0.9 0.2-0.3 0.2-0.6 0.1-0.9l-0.4-1.5c-0.2-0.1-0.3-0.2-0.5-0.2 0.2-0.2 0.3-0.3 0.4-0.5-0.5-1-1-2-1.4-3 0.1-0.1 0.1-0.3 0.1-0.4 0.2 0.1 0.2 0.2 0.2 0.4 0.2 0 0.3 0 0.5 0.2 0.3 0.5 0.6 1.1 0.8 1.8 0.1 0.1 0.2 0.1 0.4 0.1z"></path><path fill="#02072e" d="m10.8 9.5l-2.4 3.4-1.4 1.5c-0.1-0.2-0.2-0.4-0.2-0.7-0.5 0-0.5-0.1 0-0.1v-0.5c-0.8-0.1-1.5-0.2-2.3-0.4-0.6 0-1.1 0.1-1.7 0.3-0.2 0-0.3-0.1-0.4-0.3-0.2 0.7-0.4 1.3-0.6 2 0.1 0.3 0.2 0.5 0.4 0.7-0.3 0-0.4 0.1-0.3 0.4-0.3 0.6-0.4 1.3-0.3 2h-0.5c-0.1-0.6 0-1.1 0-1.7 0.2-0.3 0.4-0.6 0.7-0.9l-0.3-0.6c0.2-0.5 0.4-1 0.5-1.6 0-0.2 0.2-0.4 0.3-0.5 0 0-0.1-0.1-0.1-0.2 0.2-0.3 0.3-0.6 0.4-1 0.1-0.1 0.2-0.1 0.4 0 0-0.5 0.2-0.9 0.4-1.2 0 0.5-0.1 1.1-0.4 1.6 0.1 0 0.1 0.1 0.2 0.2v0.5c1.2 0.2 2.4 0.2 3.6-0.1 0.1-0.1 0.1-0.2 0.2-0.3 0.2 0.2 0.4 0.2 0.7 0.1l-0.2-0.1c0.4-0.8 0.7-1.6 0.7-2.4 0.1-0.3 0.2-0.6 0.2-1 0.1 0.4 0.1 0.8 0.1 1.2h0.7v-0.6c0.4 0 0.6 0.1 0.6 0.4 0.1-0.3 0.3-0.4 0.6-0.4 0.2 0 0.3 0.1 0.4 0.3z"></path><path fill="#020737" d="m7 14.4c-0.1 0.3-0.3 0.5-0.5 0.6 0.4 0.1 0.7 0.1 1 0.1-0.1 0.2-0.3 0.4-0.7 0.4 0.5 0.1 1 0.2 1.4 0.5-0.3-0.1-0.6 0-0.8 0.2-0.2 0.5-0.4 1.1-0.4 1.6h-1.4c-0.2-1.5-0.2-3 0-4.5-0.7-0.1-1.3-0.2-1.9-0.3-0.2 0.1-0.5 0.2-0.7 0.4 0.1 0.6 0.2 1.1 0.2 1.7l0.2 0.2c-0.1 0.1-0.3 0.3-0.3 0.5-0.1 0.7-0.1 1.3-0.1 2h-0.8c0-0.5 0-1.1-0.2-1.6 0.1-0.2 0.3-0.4 0.5-0.7-0.1-0.1-0.2-0.1-0.3-0.1-0.2-0.2-0.3-0.4-0.4-0.7 0.2-0.7 0.4-1.3 0.6-2 0.1 0.2 0.2 0.3 0.4 0.3 0.6-0.2 1.1-0.3 1.7-0.3 0.8 0.2 1.5 0.3 2.3 0.4v0.5c-0.5 0-0.5 0.1 0 0.1 0 0.3 0.1 0.5 0.2 0.7z"></path><path fill="#00073c" d="m32.3 12.7c-0.1 0.2 0 0.3 0.1 0.3-0.1 1.6-0.1 3.2 0 4.8h-4.6l0.1-1.4c0.2-0.2 0.4-0.4 0.4-0.7 0.1-0.2 0.3-0.3 0.6-0.4-0.2-0.1-0.3-0.2-0.5-0.3 0-0.3 0-0.5-0.1-0.7 0.1-0.3 0.2-0.6 0.2-0.9 0.4-0.4 0.7-0.4 1.2-0.3 0.3-0.1 0.6-0.2 1-0.4 0.5 0.1 1 0.1 1.6 0z"></path><path fill="#28bde6" d="m13.7 6c0 0.6-0.3 1.1-0.8 1.4v0.4h-0.5c0.3 0.7 0.3 0.9 0 0.6h-0.4c0 0.2 0.1 0.5 0.3 0.7-0.1 0.1-0.3 0.1-0.4 0.1 0 0.5-0.2 0.9-0.6 1.1l-0.3-0.5c-0.4 0.5-0.7 1.1-0.9 1.8 0.1 0.2 0.3 0.3 0.5 0.4 0 0.3 0 0.5 0 0.8 0.8 0.4 1.6 0.5 2.4 0.1 0.8-0.5 1.6-1.1 2.3-1.9l0.2 0.3c0.2-0.2 0.3-0.4 0.5-0.5 0.2-0.3 0.3-0.6 0.3-0.9 0.3-0.1 0.5-0.2 0.6-0.5 1.3 0 2.5-0.1 3.7 0l-3.5 0.2c-0.4 0.5-0.7 1-1 1.6-0.8 0.8-1.5 1.7-2.1 2.7-1.2 0.2-2.3 0.3-3.4 0.5-0.5-0.1-0.9-0.3-1.4-0.5-0.2-0.4-0.1-0.6 0.2-0.9-0.2-0.2-0.3-0.3-0.4-0.6-0.1 0.4-0.3 0.5-0.6 0.5l2.4-3.4c0.1 0 0.1-0.1 0.1-0.1 0.9-1.2 1.8-2.3 2.8-3.4z"></path><path fill="#020531" d="m20.3 14.3c0 0.3-0.1 0.6-0.3 0.9-0.4 0-0.8 0.1-1.2 0.3-0.2 0-0.3 0.1-0.4 0.2-0.4 0-0.7 0-1 0.1 0.2-0.2 0.5-0.3 0.8-0.3-0.1-0.2-0.2-0.3-0.4-0.3 0.3-0.1 0.6-0.2 0.8-0.5 0.1-0.7 0.2-1.3 0.2-2-0.7 0-1.3 0-2 0.1 0 0.5-0.1 1-0.3 1.5-0.2-0.6-0.2-0.6-0.3 0-0.2-0.1-0.4 0-0.6 0.3-0.1-0.4-0.2-0.5-0.5-0.3 0.1-0.6 0.3-1.2 0.6-1.7 0.2-0.1 0.3-0.2 0.5-0.2l-0.1-0.2c0.2-0.1 0.3 0 0.5 0.1l0.5-0.5c0.5-0.2 1.1-0.5 1.6-0.8 0.1 0.3 0.2 0.5 0.4 0.7 0.1-0.1 0.1-0.2 0.1-0.4 0.4-0.1 0.8-0.1 1.1 0.1 0.1 0.2 0.2 0.4 0.2 0.6h-0.5c0 0.3 0 0.6 0.2 0.9 0.2-0.1 0.3-0.2 0.5-0.2l0 0.2c-0.2 0.5-0.3 0.9-0.4 1.4z"></path><path fill="#56d1c2" d="m29.5 7.8c-0.4 1.2-0.7 2.4-1 3.7l-1.1 3.5c0-0.5-0.1-0.6-0.3-0.1-0.3 0-0.5 0.1-0.7 0.2-0.3 0.6-0.6 1.2-0.8 1.8l-0.1-0.5c-0.2-0.2-0.3-0.2-0.4 0 0.3-0.3 0.4-0.7 0.4-1.1 0.1-0.1 0.2-0.1 0.2-0.2 0.2-1 0.5-2.1 0.8-3.1h0.6c0 0.3 0 0.5 0.2 0.7l0.1-1.2c0.5-1.2 0.9-2.3 1.2-3.5-0.2-0.4-0.3-0.8-0.4-1.2 0.2-0.4 0.5-0.6 0.8-0.5 0.2 0.5 0.4 1 0.5 1.5z"></path><path fill="#01021e" d="m3 10.1v0.5c-0.3 0-0.5 0-0.7 0.2-0.1 0.4-0.2 0.8-0.4 1.2 0.2 0.3 0.1 0.6-0.2 0.9 0 0.7-0.2 1.4-0.8 1.9 0.2 0.1 0.3 0.2 0.3 0.5-0.4 0.9-0.4 1.8 0 2.7-0.1 0.1-0.2 0.1-0.3 0.3-0.2 0.9-0.1 1.7 0.3 2.5-0.1 0.3-0.2 0.6-0.1 0.9 0.2 0 0.3 0.1 0.5 0.2-0.2 0.5 0 1 0.4 1.4-0.2 0.1-0.2 0.2-0.2 0.4 0.5 0.4 0.8 1 0.9 1.5 0-0.2 0.1-0.5 0.3-0.8 0 0.4 0.1 0.8 0.2 1.1 0.3 0.1 0.5 0.2 0.7 0.4-0.5 0.1-0.8 0-0.9-0.4-0.1 0.1-0.2 0.2-0.3 0.3 0-0.4-0.3-0.6-0.7-0.6-0.2-0.4-0.4-0.9-0.6-1.4l-0.1 0.2c-0.1-0.3 0-0.4 0.2-0.6-0.4-0.5-0.6-1.2-0.7-1.8-0.1 0.1-0.2 0.2-0.2 0.4-0.2-2-0.5-4-0.7-5.9v-0.1c0.2-0.2 0.3-0.2 0.4 0 0.2-1.4 0.6-2.8 1-4.1 0.3-0.2 0.5-0.4 0.7-0.7 0-0.7 0.3-1.1 1-1.1z"></path><path fill="#020537" d="m17.4 15.8c-0.2 0-0.4 0-0.5 0.2-0.7 0-1.3 0.1-1.9 0.4-1 0.1-2 0.3-3 0.5-0.7 0.2-1.5 0.4-2.2 0.5-0.4-0.2-0.7-0.3-1.2-0.4 0.5-0.1 0.9-0.2 1.3-0.5 0-0.2 0.1-0.4 0.2-0.7 0.4-0.2 0.7-0.1 0.9 0.3 0.2-0.1 0.2-0.3 0.2-0.4 0.8-0.1 1.5-0.2 2.3-0.3 0.1 0.1 0.3 0.2 0.5 0.1v-0.5c-0.4 0-0.9 0-1.3-0.1 0.2 0 0.3-0.1 0.4-0.2 0.8 0.1 1.4-0.1 2-0.4 0.3-0.2 0.4-0.1 0.5 0.3 0.2-0.3 0.4-0.4 0.6-0.3 0.1-0.6 0.1-0.6 0.3 0 0.2-0.5 0.3-1 0.3-1.5 0.7-0.1 1.3-0.1 2-0.1 0 0.7-0.1 1.3-0.2 2-0.2 0.3-0.5 0.4-0.8 0.5 0.2 0 0.3 0.1 0.4 0.3-0.3 0-0.6 0.1-0.8 0.3z"></path><path fill="#22d9f1" d="m10.6 14.4c-0.9 0.2-1.8 0.4-2.8 0.5-0.1 0-0.2 0.1-0.3 0.2-0.3 0-0.6 0-1-0.1 0.2-0.1 0.4-0.3 0.5-0.6l1.4-1.5c0.3 0 0.5-0.1 0.6-0.5 0.1 0.3 0.2 0.4 0.4 0.6-0.3 0.3-0.4 0.5-0.2 0.9 0.5 0.2 0.9 0.4 1.4 0.5z"></path><path fill="#05092a" d="m21.3 12c-0.2 0.8-0.6 1.6-1 2.3 0.1-0.5 0.2-0.9 0.4-1.4l0-0.2c-0.2 0-0.3 0.1-0.5 0.2-0.2-0.3-0.2-0.6-0.2-0.9h0.5c0-0.2-0.1-0.4-0.2-0.6-0.3-0.2-0.7-0.2-1.1-0.1 0 0.2 0 0.3-0.1 0.4-0.2-0.2-0.3-0.4-0.4-0.7-0.5 0.3-1.1 0.6-1.6 0.8l-0.5 0.5c-0.2-0.1-0.3-0.2-0.5-0.1l0.1 0.2c-0.2 0-0.3 0.1-0.5 0.2-0.3 0.5-0.5 1.1-0.6 1.7-0.6 0.3-1.2 0.5-2 0.4-1 0.2-2 0.3-3 0.3 0 0.2-0.1 0.5-0.3 0.7l-0.2-0.3c-0.3 0.1-0.6 0.2-1 0.2 0 0.2-0.1 0.4-0.2 0.6-0.1 0-0.2-0.1-0.2-0.2-0.4-0.3-0.9-0.4-1.4-0.5 0.4 0 0.6-0.2 0.7-0.4 0.1-0.1 0.2-0.2 0.3-0.2 1-0.1 1.9-0.3 2.8-0.5 1.1-0.2 2.2-0.3 3.4-0.5 0.6-1 1.3-1.9 2.1-2.7 0 0.2-0.1 0.4-0.1 0.5 0 0.2 0.1 0.3 0.2 0.3 0.4-0.4 0.7-0.8 0.7-1.4h1v-0.4c1.1-0.1 2.2 0 3.3 0.1-0.3 0.1-0.6 0.2-0.9 0.2 0.5 0.1 1 0.1 1.4 0.3-0.2 0.3-0.4 0.8-0.4 1.2z"></path><path fill="#00083e" d="m5.6 17.8h-2.6c0-0.7 0-1.3 0.1-2 0-0.2 0.2-0.4 0.3-0.5l-0.2-0.2c0-0.6-0.1-1.1-0.2-1.7 0.2-0.2 0.5-0.3 0.7-0.4 0.6 0.1 1.2 0.2 1.9 0.3-0.2 1.5-0.2 3 0 4.5z"></path><path fill="#020732" d="m13.1 14.7c-0.1 0.1-0.2 0.2-0.4 0.2 0.4 0.1 0.9 0.1 1.3 0.1v0.5c-0.2 0.1-0.4 0-0.5-0.1-0.8 0.1-1.5 0.2-2.3 0.3 0 0.1 0 0.3-0.2 0.4-0.2-0.4-0.5-0.5-0.9-0.3-0.1 0.3-0.2 0.5-0.2 0.7-0.4 0.3-0.8 0.4-1.3 0.5 0.5 0.1 0.8 0.2 1.2 0.4-0.5 0.1-0.9 0.2-1.3 0.4l-0.8 1.1c-0.1-0.1-0.2-0.2-0.2-0.3 0.1-0.3 0.2-0.5 0.3-0.8h-0.4c-0.1 0.4-0.3 0.7-0.4 1 0.2 0.3 0.1 0.5-0.1 0.7-0.1-0.1-0.1-0.2-0.2-0.3-0.3 0.2-0.6 0.4-0.8 0.7-0.1-0.5-0.3-0.5-0.5-0.1v-1.7c-1-0.1-2.1 0-3.1 0.1-0.2 0.2-0.3 0.5-0.4 0.8 0.2 0.5 0.2 1.1 0 1.6h-0.4c-0.1-0.3-0.2-0.6-0.4-0.8v-1.5c0.2-0.1 0.4-0.3 0.5-0.5-0.1-0.7 0-1.4 0.3-2-0.1-0.3 0-0.4 0.3-0.4 0.1 0 0.2 0 0.3 0.1-0.2 0.3-0.4 0.5-0.5 0.7 0.2 0.5 0.2 1.1 0.2 1.6h4.8c0-0.5 0.2-1.1 0.4-1.6 0.2-0.2 0.5-0.3 0.8-0.2 0 0.1 0.1 0.2 0.2 0.2 0.1-0.2 0.2-0.4 0.2-0.6 0.4 0 0.7-0.1 1-0.2l0.2 0.3c0.2-0.2 0.3-0.5 0.3-0.7 1 0 2-0.1 3-0.3z"></path><path fill="#68d498" d="m22 20.3c-0.2 0.2-0.4 0.4-0.7 0.4 0.1-0.1 0.1-0.3-0.1-0.4 0-0.2 0.1-0.3 0.2-0.4-0.1-0.2-0.2-0.3-0.3-0.6-0.2 0.2-0.4 0.1-0.5-0.2-0.1-0.7-0.3-1.4-0.6-2.1 0.2-0.2 0.2-0.4 0.2-0.6-0.2 0-0.3 0-0.4-0.2 0.1-0.1 0.3-0.2 0.5-0.2 0.1-0.2 0-0.3-0.1-0.5-0.5-0.1-1-0.1-1.4 0 0.4-0.2 0.8-0.3 1.2-0.3 0.2-0.3 0.3-0.6 0.3-0.9 0.4-0.7 0.8-1.5 1-2.3 0.3-0.5 0.5-1 0.8-1.5 0.1 0 0.2-0.1 0.3-0.2 0.1 0.5 0 1-0.3 1.5 0.1 0.2 0.1 0.3 0.2 0.4-0.2 0.4-0.5 0.8-0.7 1.2 0 0.4 0 0.8 0.1 1.3-0.2 0.3-0.4 0.3-0.6 0l-0.1 0.3c0.4 0.5 0.4 0.9 0 1.2 0.1 0.6 0.2 1.2 0.3 1.8 0 0.1-0.1 0.2-0.1 0.3l0.9 1.2c-0.1 0.2-0.2 0.3-0.4 0.3 0.2 0.1 0.3 0.3 0.3 0.5z"></path><path fill="#13141d" d="m34.7 11.3c0.2 0.4 0.4 0.7 0.5 1.1 0.2 1.1 0.5 2.2 0.7 3.3v4.5c-0.2 1.1-0.5 2.2-0.8 3.2-0.1-0.9-0.1-1.8-0.2-2.7 0.2-0.3 0.3-0.7 0.4-1.1 0.1 0.2 0.2 0.2 0.2-0.1-0.1-0.1-0.1-0.3-0.3-0.4 0.3-0.3 0.3-0.6 0.3-0.9-0.3 0.1-0.5-0.1-0.6-0.4h0.6c0-0.9-0.2-1.8-0.6-2.6 0.3-0.1 0.4-0.3 0.5-0.5-0.1-0.4-0.2-0.8-0.2-1.1-0.2-0.1-0.4-0.3-0.4-0.5-0.1-0.6-0.2-1.2-0.1-1.8z" opacity=".959"></path><path fill="#70d082" d="m21.3 20.7c-0.4 0.2-0.7 0.5-1 0.7l-0.5 0.3c0-0.2 0.1-0.3 0.2-0.5l-0.1-0.2c-0.3 0.2-0.6 0.2-0.8 0 0.3-0.2 0.3-0.3 0-0.5 0.3-0.3 0.3-0.7-0.1-1-0.1-0.6-0.1-1.1-0.2-1.6 0.2-0.5 0.3-0.9 0.3-1.4-0.3-0.1-0.5-0.2-0.7-0.2l0.8-0.1c0.1-0.2 0.2-0.3 0.1-0.5h-0.9c0.1-0.1 0.2-0.2 0.4-0.2 0.4-0.1 0.9-0.1 1.4 0 0.1 0.2 0.2 0.3 0.1 0.5-0.2 0-0.4 0.1-0.5 0.2 0.1 0.2 0.2 0.2 0.4 0.2 0 0.2 0 0.4-0.2 0.6 0.3 0.7 0.5 1.4 0.6 2.1 0.1 0.3 0.3 0.4 0.5 0.2 0.1 0.3 0.2 0.4 0.3 0.6-0.1 0.1-0.2 0.2-0.2 0.4 0.2 0.1 0.2 0.3 0.1 0.4z"></path><path fill="#c6e81d" d="m13.4 21.4c-0.6-0.5-1.4-0.9-2.1-1.4-0.3-0.3-0.7-0.6-1.1-0.8-0.2-0.2-0.4-0.4-0.7-0.6-0.2-0.2-0.4-0.3-0.7-0.4l-0.3-0.4c0.4-0.2 0.8-0.3 1.3-0.4 0.7-0.1 1.5-0.3 2.2-0.5 0.6 0 1.2 0 1.7 0-0.1 0.3-0.2 0.5-0.6 0.7l0.5 0.1c-0.5 1-0.5 1.9 0 2.8-0.2 0.4-0.1 0.6 0.4 0.5v0.4h-0.6z"></path><path fill="#81d671" d="m18.4 15.7h0.9c0.1 0.2 0 0.3-0.1 0.5l-0.8 0.1c0.2 0 0.4 0.1 0.7 0.2 0 0.5-0.1 0.9-0.3 1.4 0.1 0.5 0.1 1 0.2 1.6 0.4 0.3 0.4 0.7 0.1 1 0.3 0.2 0.3 0.3 0 0.5 0.2 0.2 0.5 0.2 0.8 0l0.1 0.2c-0.1 0.2-0.2 0.3-0.2 0.5h-0.6c0 0.3 0 0.5 0.1 0.7 0.1 0.1 0.2 0.2 0.3 0.2l0.3 0.1 0.4 0.6c-0.1 0.2-0.2 0.4-0.3 0.6 0.1 0.4 0.3 0.7 0.6 0.9-0.3 0.2-0.5 0.1-0.7-0.1-0.1 0.1-0.2 0.2-0.3 0.4 0.1 0.3 0.1 0.5 0.2 0.8-0.1 0-0.2 0.1-0.3 0-0.6-0.3-1.2-0.6-1.7-1.1-0.1 0-0.2 0-0.2-0.1 0.6-0.1 0.8-0.4 0.5-0.8 0.1-0.2 0.3-0.4 0.5-0.5-0.4-0.3-0.8-0.7-1-1.3-0.2-0.4-0.3-0.9-0.5-1.4l-0.4-0.2c0.2-0.1 0.2-0.2 0-0.2l0.2-0.2c-0.1-0.2-0.1-0.5 0-0.7-0.1 0-0.2-0.1-0.2-0.2 0.3-0.4 0.3-0.9 0.1-1.3 0.2-0.1 0.5-0.1 0.7-0.1 0.2-0.5 0.3-1.1 0.4-1.6-0.3-0.2-0.6-0.3-1-0.2 0.1-0.2 0.3-0.2 0.5-0.2 0.3-0.1 0.6-0.1 1-0.1z"></path><path fill="#a1dd4d" d="m15.5 17.8c0.1 0.4 0 0.8-0.2 1.1l-0.1-0.1-0.2 0.6c0.3 0.6 0.5 1.2 0.6 1.9 0.4 0.5 0.8 1 1.2 1.5-0.1 0.3-0.2 0.7-0.1 1-0.1-0.2-0.2-0.2-0.5-0.2-0.2-0.2-0.5-0.3-0.8-0.5-0.1-0.1-0.3-0.3-0.4-0.4 1 0.1 1.1-0.1 0.1-0.6 0.2-0.1 0.3-0.3 0.2-0.5-1-1-1.4-2.1-1.3-3.5 0.5-0.3 1-0.3 1.5-0.3z"></path><path fill="#b0e33d" d="m15.5 17.8c-0.5 0-1 0-1.5 0.3-0.1 1.4 0.3 2.5 1.3 3.5 0.1 0.2 0 0.4-0.2 0.5 1 0.5 0.9 0.7-0.1 0.6-0.3-0.3-0.7-0.5-1-0.7l-0.6-0.6h0.6v-0.4c-0.5 0.1-0.6-0.1-0.4-0.5-0.5-0.9-0.5-1.8 0-2.8l-0.5-0.1c0.4-0.2 0.5-0.4 0.6-0.7-0.5 0-1.1 0-1.7 0 1-0.2 2-0.4 3-0.5 0.2 0 0.3 0 0.5 0.1 0.4-0.3 0.9-0.4 1.4-0.3-0.4 0.2-0.8 0.6-1.1 1.1-0.3 0-0.6 0.1-0.8 0.2 0.2 0.1 0.4 0.2 0.5 0.3z"></path><path fill="#92d95d" d="m16.9 16c0.4-0.1 0.7 0 1 0.2-0.1 0.5-0.2 1.1-0.4 1.6-0.2 0-0.5 0-0.7 0.1 0.2 0.4 0.2 0.9-0.1 1.3 0 0.1 0.1 0.2 0.2 0.2-0.1 0.2-0.1 0.5 0 0.7l-0.2 0.2c0.2 0 0.2 0.1 0 0.2l0.4 0.2c0.2 0.5 0.3 1 0.5 1.4 0.2 0.6 0.6 1 1 1.3-0.2 0.1-0.4 0.3-0.5 0.5 0.3 0.4 0.1 0.7-0.5 0.8-0.5-0.3-0.9-0.7-1.4-1.1 0.3 0 0.4 0 0.5 0.2-0.1-0.3 0-0.7 0.1-1-0.4-0.5-0.8-1-1.2-1.5-0.1-0.7-0.3-1.3-0.6-1.9l0.2-0.6 0.1 0.1c0.2-0.3 0.3-0.7 0.2-1.1-0.1-0.1-0.3-0.2-0.5-0.3 0.2-0.1 0.5-0.2 0.8-0.2 0.3-0.5 0.7-0.9 1.1-1.1-0.5-0.1-1 0-1.4 0.3-0.2-0.1-0.3-0.1-0.5-0.1 0.6-0.3 1.2-0.4 1.9-0.4z"></path><path fill="#010739" d="m5.4 19.8v0.8c-0.3 0-0.6 0-0.8 0.1 0.2 0.1 0.4 0.3 0.6 0.5l0.1-0.2c0.1 0.3 0.1 0.5 0.1 0.7-0.3 0.1-0.6 0.1-0.8 0.2l0.3 0.3c-0.4 0.4-0.6 0.8-0.9 1.2 0.1 0.3 0.2 0.5 0.3 0.7 0 0.2-0.1 0.3-0.2 0.4-0.2-0.2-0.3-0.4-0.5-0.7-0.2-0.1-0.3-0.1-0.5 0-0.1-0.2-0.1-0.4 0.1-0.5-0.1-0.5-0.2-1-0.2-1.4-0.1 0.3-0.1 0.7-0.3 1-0.2 0.1-0.4 0-0.5-0.3-0.1-0.4-0.2-0.8-0.4-1.2 0.2-0.3 0.3-0.5 0.1-0.8 0.2-0.5 0.2-1.1 0-1.6 0.1-0.3 0.2-0.6 0.4-0.8 1-0.1 2.1-0.2 3.1-0.1v1.7z"></path><path fill="#010638" d="m32.4 20.6c0.1 0.5 0.3 0.5 0.6 0.1 0.4 0.1 0.7 0.2 1 0.3 0.1 0.3 0.1 0.5 0 0.7-0.3 0.6-0.5 1.1-0.7 1.6 0 0.1 0.1 0.2 0.1 0.3-0.2 0.5-0.4 0.9-0.6 1.4l-0.2-1.7-0.2 0.1c0.2 0.5 0.2 1 0.1 1.6-0.1 0-0.1 0.1-0.2 0.1v-1.5h-4.7c0-0.1 0.1-0.2 0.2-0.3-0.9 0.1-1.6-0.3-2-1.1 0.1 0 0.1-0.1 0.1-0.2-0.1-0.2-0.3-0.2-0.4 0-0.1-0.1-0.2-0.2-0.3-0.3 0-0.6 0.3-0.9 0.9-1-0.2-0.1-0.4-0.1-0.6-0.1v-1.4c0.3 0 0.6-0.1 0.9-0.3-0.1-0.2-0.2-0.4-0.2-0.7 0.2 0 0.4 0 0.6 0.2 0.3-0.3 0.6-0.4 1-0.4-0.1-0.1-0.3-0.2-0.4-0.2-0.5 0.2-0.7 0.1-0.6-0.4 0.3-0.1 0.6-0.1 0.8-0.2-0.3-0.2-0.3-0.3 0.2-0.3-0.2-0.3-0.2-0.7 0-0.9 0.1 0.1 0.1 0.2 0.1 0.4l-0.1 1.4h4.6c-0.1-1.6-0.1-3.2 0-4.8 0.3 0.2 0.3 0.1 0.3-0.3 0.4 0.1 0.8 0.2 1.1 0.6 0.1 0.5 0 1.1-0.1 1.6 0.3 0.5 0.5 1 0.8 1.5 0.1 0.5 0 0.9-0.1 1.4-0.7 0.1-0.7 0.3 0 0.5 0.1 0.1 0.1 0.2 0.1 0.3-0.1 0.3-0.1 0.6 0 0.8-0.2 0.4-0.4 0.8-0.4 1.2h-1.7z"></path><path fill="#000840" d="m32.4 20.6h-2.4c0-2.4-0.1-2.4-0.3 0-0.6 0-1.3 0-1.9-0.2 0.1-0.1 0.2-0.2 0.4-0.3l-0.3-0.1c0.4-0.4 0.4-0.7-0.1-0.9 0.1-0.2 0-0.3-0.3-0.4 0.6-0.6 1.4-0.8 2.2-0.6 0.1 0.2 0.2 0.3 0.3 0.4 0.1-0.2 0.3-0.3 0.4-0.4 0.6-0.1 1.2-0.1 1.7 0l0.2 0.3c0.1 0.7 0.1 1.5 0.1 2.2z"></path><path fill="#010841" d="m30.3 20.9c0.8-0.1 1.5 0 2.3 0.3-0.2 0.6-0.3 1.4-0.3 2.1-0.6 0-1.2 0-1.9-0.1-0.1 0-0.2-0.1-0.3-0.2-0.1-0.7-0.1-1.4 0.2-2.1z"></path><path fill="#3d5dd1" d="m10.2 19.2c0.4 0.2 0.8 0.5 1.1 0.8-0.2 0.1-0.3 0.2-0.3 0.5 0.6 0 0.6 0.2 0 0.3 0.3 0.1 0.6 0.1 0.9 0.1 0 0.3-0.1 0.6-0.2 1 0.7 0.2 1.3 0.4 1.9 0.7-0.3 0.3-0.5 0.6-0.9 0.8-0.3 0-0.5-0.1-0.7-0.3-0.2-0.3-0.5-0.6-0.7-0.8-0.1-0.2-0.1-0.4 0.2-0.6-0.5-0.4-1-0.7-1.4-1.1 0.1-0.2 0.1-0.4 0-0.6-0.2 0.2-0.2 0.3-0.3 0.5 0-0.5 0-0.9 0-1.2 0.1-0.1 0.2-0.1 0.4-0.1z"></path><path fill="#3090db" d="m9.5 18.6c0.3 0.2 0.5 0.4 0.7 0.6-0.2 0-0.3 0-0.4 0.1 0 0.3 0 0.7 0 1.2 0.1-0.2 0.1-0.3 0.3-0.5 0.1 0.2 0.1 0.4 0 0.6 0.4 0.4 0.9 0.7 1.4 1.1-0.3 0.2-0.3 0.4-0.2 0.6 0.2 0.2 0.5 0.5 0.7 0.8 0.2 0.2 0.4 0.3 0.7 0.3 0 0.3-0.2 0.4-0.4 0.6-0.1-0.2-0.3-0.4-0.6-0.4-0.2-0.6-0.6-0.9-1.3-0.9-0.3 0.1-0.6 0.2-0.8 0.2-0.1-0.3-0.1-0.5-0.1-0.8-0.3 0.1-0.5-0.1-0.6-0.4 0.2-0.1 0.3-0.1 0.5-0.2-0.3-0.2-0.5-0.5-0.5-0.8 0.3-0.6 0.3-1.1 0.2-1.6v-0.5h0.4z"></path><path fill="#403ecd" d="m11.3 20c0.7 0.5 1.5 0.9 2.1 1.4l0.6 0.6-0.4 0.6c-0.6-0.3-1.2-0.5-1.9-0.7 0.1-0.4 0.2-0.7 0.2-1-0.3 0-0.6 0-0.9-0.1 0.6-0.1 0.6-0.3 0-0.3 0-0.3 0.1-0.4 0.3-0.5z"></path><path fill="#4e88b2" d="m19.8 21.7c-0.2 0.2-0.3 0.4-0.5 0.5 0.2 0.1 0.3 0.2 0.3 0.4-0.1 0-0.2-0.1-0.3-0.2-0.1-0.2-0.1-0.4-0.1-0.7h0.6z"></path><path fill="#2f59e1" d="m21 21.3c0 0.2 0.1 0.3 0.2 0.4l-0.6 0.2c0.1 0.1 0.2 0.2 0.3 0.3-0.2 0.3-0.3 0.5-0.4 0.8-0.2-0.2-0.4-0.3-0.6-0.3l-0.3-0.1c0-0.2-0.1-0.3-0.3-0.4 0.2-0.1 0.3-0.3 0.5-0.5l0.5-0.3c0.2-0.1 0.5-0.1 0.7-0.1z"></path><path fill="#316edb" d="m21.2 23.7c-0.3-0.1-0.6-0.3-0.9-0.4l-0.4-0.6c0.2 0 0.4 0.1 0.6 0.3 0.1-0.3 0.2-0.5 0.4-0.8-0.1-0.1-0.2-0.2-0.3-0.3l0.6-0.2c-0.1-0.1-0.2-0.2-0.2-0.4 0.3-0.1 0.6-0.4 0.9-0.6 0.1-0.1 0.2-0.1 0.4 0-0.1 0.1-0.2 0.3-0.2 0.5-0.3 0.1-0.6 0.3-0.8 0.5 0.2 0.2 0.4 0.2 0.6 0.2 0 0.5 0 1 0 1.5-0.2 0.1-0.5 0.2-0.7 0.3z"></path><path fill="#3385db" d="m23 19.9c0.1 0.4 0.3 0.8 0.6 1.1-0.3 0.3-0.4 0.7-0.6 1 0.2 0.8 0.5 1.6 0.8 2.4 0.1 0.3 0.3 0.5 0.6 0.5-0.3 0-0.6 0.1-0.8 0.2 0.3 0.2 0.5 0.4 0.8 0.6-0.2 0.1-0.5 0.1-0.7 0l-1.4-1c-0.5-0.2-0.8-0.6-1.1-1 0.2-0.1 0.5-0.2 0.7-0.3 0-0.5 0-1 0-1.5-0.2 0-0.4 0-0.6-0.2 0.2-0.2 0.5-0.4 0.8-0.5 0-0.2 0.1-0.4 0.2-0.5-0.2-0.1-0.3-0.1-0.4 0-0.3 0.2-0.6 0.5-0.9 0.6-0.2 0-0.5 0-0.7 0.1 0.3-0.2 0.6-0.5 1-0.7 0.3 0 0.5-0.2 0.7-0.4 0.4-0.1 0.7-0.2 1-0.4z"></path><path fill="#030b2b" d="m7.7 18.9c-0.2 0.6-0.5 1.2-0.7 1.8-1 1.8-2 3.7-2.9 5.5 1.2 0.2 2.3 0.2 3.4 0.2 0.9 0 1.8 0 2.7-0.2 0.2-0.3 0.5-0.5 0.7-0.8 0.5-0.4 0.9-0.9 1.4-1.3 0.2 0.1 0.3 0.2 0.2 0.4-0.2 0.4-0.5 0.5-0.9 0.5-0.1 0.1-0.1 0.2-0.1 0.3 0.1 0.2 0.1 0.4 0 0.6l0.2 0.1c-0.1 0.1-0.3 0.1-0.5 0.1v1.3h-0.3c-0.1-0.1-0.2-0.3-0.1-0.5h-0.6c-0.1 0.1-0.3 0.2-0.4 0.3-0.4-0.1-0.7-0.1-1.2 0.1-0.1 0.4-0.2 0.4-0.4 0.1l-0.7-0.2c-0.3 0.1-0.7 0.1-1 0-0.2 0.2-0.4 0.3-0.6 0.2-0.1 0.4-0.1 0.8-0.1 1.2-0.5 0.1-0.9 0-1.3-0.4 0-0.5-0.1-1-0.1-1.4l1.2-0.2c0.9 0.1 1.8 0.3 2.6 0.4l0.2 0.2c0.2-0.2 0.3-0.3 0.5-0.3 0.4-0.1 0.8-0.2 1.2-0.3-2.1 0-4.1-0.1-6.1-0.2 0-0.2 0-0.4-0.1-0.5-0.2-0.2-0.4-0.3-0.7-0.4-0.1-0.3-0.2-0.7-0.2-1.1-0.2 0.3-0.3 0.6-0.3 0.8-0.1-0.5-0.4-1.1-0.9-1.5 0-0.2 0-0.3 0.2-0.4-0.4-0.4-0.6-0.9-0.4-1.4 0.1-0.1 0.2 0 0.3 0.1-0.1 0.1-0.1 0.3-0.1 0.4 0.1 0.5 0.4 0.8 0.8 0.9l-0.4 0.4c0.2 0.1 0.4 0.3 0.5 0.6 0-0.3 0.1-0.6 0.2-0.9 0-0.1 0.1-0.1 0.3-0.1-0.2 0.1-0.2 0.3-0.1 0.5 0.2-0.1 0.3-0.1 0.5 0 0.2 0.3 0.3 0.5 0.5 0.7 0.1-0.1 0.2-0.2 0.2-0.4-0.1-0.2-0.2-0.4-0.3-0.7 0.3-0.4 0.5-0.8 0.9-1.2l-0.3-0.3c0.2-0.1 0.5-0.1 0.8-0.2 0-0.2 0-0.4-0.1-0.7l-0.1 0.2c-0.2-0.2-0.4-0.4-0.6-0.5 0.2-0.1 0.5-0.1 0.8-0.1v-0.8c0.2-0.4 0.4-0.4 0.5 0.1 0.2-0.3 0.5-0.5 0.8-0.7 0.1 0.1 0.1 0.2 0.2 0.3 0.2-0.2 0.3-0.4 0.1-0.7 0.1-0.3 0.3-0.6 0.4-1h0.4c-0.1 0.3-0.2 0.5-0.3 0.8 0 0.1 0.1 0.2 0.2 0.3z"></path><path fill="#050929" d="m25 18.8c-0.1 0.2-0.2 0.4-0.5 0.6 0.2 0.1 0.2 0.3 0 0.4 0.1 0.8 0.3 1.4 0.7 1.9 0.1 0.1 0.2 0.2 0.3 0.3 0.1-0.2 0.3-0.2 0.4 0 0 0.1 0 0.2-0.1 0.2 0.4 0.8 1.1 1.2 2 1.1-0.1 0.1-0.2 0.2-0.2 0.3h-0.1c-0.2-0.1-0.3 0-0.4 0 0.2 0.8 0.5 1.6 0.8 2.3l-0.3 0.3c0.6 0.6 0.6 0.8-0.1 0.7-0.2-0.2-0.4-0.4-0.6-0.7-0.8-1.3-1.6-2.5-2.5-3.8-0.2-0.5-0.5-1-0.8-1.4-0.3-0.3-0.5-0.7-0.6-1.1 0.6-0.5 1.2-0.9 2-1.1z"></path><path fill="#010428" d="m34.5 18.1c0.2 0 0.3 0 0.4 0.1l0 0.8c-0.1 1.1-0.1 2.1 0 3.2 0 0.4-0.3 0.7-0.7 0.9-0.3 0.8-0.7 1.6-1 2.4-0.2 0.3-0.5 0.4-0.7 0.3-0.1 0.7-0.2 1.3-0.3 2-0.5 0.4-1 0.8-1.5 1 0.1 0.6-0.1 1-0.5 1.4-0.1-0.2-0.2-0.3-0.2-0.5-0.2 0.5-0.3 0.9-0.3 1.3l-0.2-0.1-0.9 0.6c-0.2 0.2-0.3 0.5-0.3 0.8-0.4-0.1-0.8-0.2-1.2-0.2-0.1-0.2-0.2-0.4-0.5-0.6 0.2 0 0.3-0.1 0.3-0.2 0.5-0.2 1-0.4 1.4-0.6 0.2-0.3 0.4-0.6 0.7-0.8 0.5-0.3 0.8-0.8 0.9-1.4 0.2-0.1 0.5-0.1 0.8-0.1 0.3-0.4 0.5-0.9 0.7-1.3 0.2 0.1 0.4 0 0.6-0.2 0.1-0.6 0.2-1.2 0.3-1.8 0.1 0 0.1-0.1 0.2-0.1 0.1-0.6 0.1-1.1-0.1-1.6l0.2-0.1 0.2 1.7c0.2-0.5 0.4-0.9 0.6-1.4 0-0.1-0.1-0.2-0.1-0.3 0.1 0 0.3 0 0.4-0.2 0.5-0.7 0.7-1.5 0.4-2.3 0.3-0.1 0.4-0.3 0.5-0.6 0-0.5 0.1-1.1 0.2-1.6 0-0.2-0.1-0.4-0.3-0.5z"></path><path fill="#2d9ddc" d="m9.1 19.1c0.1 0.5 0.1 1-0.2 1.6 0 0.3 0.2 0.6 0.5 0.8-0.2 0.1-0.3 0.1-0.5 0.2 0.1 0.3 0.3 0.5 0.6 0.4 0 0.3 0 0.5 0.1 0.8 0.2 0 0.5-0.1 0.8-0.2 0.7 0 1.1 0.3 1.3 0.9-0.2-0.1-0.3-0.2-0.4-0.5-0.1 0.2-0.1 0.3-0.1 0.5-0.4-0.1-0.7 0-0.9 0.4-0.7 0.5-1.4 0.6-2.2 0.3-0.2-0.1-0.3-0.4-0.4-0.6 0.3-1 0.6-2 0.8-3 0.3 0 0.3-0.2 0.1-0.3 0.2-0.3 0.3-0.7 0.3-1-0.4-0.3-0.3-0.4 0.2-0.3z"></path><path fill="#00083f" d="m27.5 23.6h4.8v1.5c-0.2 0.2-0.3 0.4-0.4 0.6-0.4 0.2-0.6 0.1-0.8-0.2-0.1 0.2-0.2 0.4-0.4 0.6 0.2 0.2 0.3 0.4 0.3 0.6-0.3 1.4-0.7 1.4-1-0.1 0.1-0.2 0.2-0.4 0.3-0.5-0.2-0.3-0.3-0.6-0.3-1-0.1 0.3-0.2 0.5-0.3 0.8-0.5-0.1-1.1-0.3-1.6-0.7-0.1-0.6-0.3-1.1-0.6-1.6z"></path><path fill="#2faae5" d="m23.6 21c0.3 0.4 0.6 0.9 0.8 1.4 0.2 0.5 0.4 1 0.4 1.6 0 0.3-0.1 0.6-0.3 0.8l0.6 0.3c-0.1 0.1-0.3 0.2-0.4 0.1v0.6c0.2 0 0.4 0 0.6-0.1-0.1 0.2-0.1 0.5-0.2 0.8h-0.4c-0.5-0.1-0.8-0.4-1-0.8 0.2 0.1 0.5 0.1 0.7 0-0.3-0.2-0.5-0.4-0.8-0.6 0.2-0.1 0.5-0.2 0.8-0.2-0.3 0-0.5-0.2-0.6-0.5-0.3-0.8-0.6-1.6-0.8-2.4 0.2-0.3 0.3-0.7 0.6-1z"></path><path fill="#2cade4" d="m8.8 18.2c0.3 0.1 0.5 0.2 0.7 0.4h-0.4v0.5c-0.5-0.1-0.6 0-0.2 0.3 0 0.3-0.1 0.7-0.3 1 0.2 0.1 0.2 0.3-0.1 0.3-0.2 1-0.5 2-0.8 3 0.1 0.2 0.2 0.5 0.4 0.6 0.8 0.3 1.5 0.2 2.2-0.3 0.2-0.4 0.5-0.5 0.9-0.4 0-0.2 0-0.3 0.1-0.5 0.1 0.3 0.2 0.4 0.4 0.5 0.3 0 0.5 0.2 0.6 0.4v0.1c-0.5 0.4-0.9 0.9-1.4 1.3-0.1-0.1-0.2-0.2-0.4-0.2v0.5h-0.6c0-0.2 0-0.3-0.1-0.5-0.6 0.2-1.1 0.4-1.6 0.6-0.4-0.3-0.8-0.4-1.2-0.5-0.8-1-0.7-1.9 0.2-2.7 0.3-1.2 0.8-2.4 1.3-3.5-0.2 0-0.3 0-0.4 0 0-0.2 0.1-0.3 0.3-0.3 0.2 0.1 0.4 0.1 0.5 0-0.1-0.1-0.2-0.2-0.4-0.2 0.1-0.1 0.2-0.3 0.3-0.4z"></path><path fill="#10121d" d="m-0.1 16.1c0.2 1.9 0.5 3.9 0.7 5.9 0-0.2 0.1-0.3 0.2-0.4 0.1 0.6 0.3 1.3 0.7 1.8-0.2 0.2-0.3 0.3-0.2 0.6l0.1-0.2c0.2 0.5 0.4 1 0.6 1.4 0.4 0 0.7 0.2 0.7 0.6 0.1-0.1 0.2-0.2 0.3-0.3 0.1 0.4 0.4 0.5 0.9 0.4 0.1 0.1 0.1 0.3 0.1 0.5-0.2-0.1-0.5 0-0.7 0 0.2 0.9 0.6 1.7 1.2 2.4-0.1 0.4-0.1 0.8 0.1 1.2-2.6-2.8-4.1-6.1-4.7-9.8v-4.1z"></path><path fill="#020537" d="m15.4 23.1c0.3 0.2 0.6 0.3 0.8 0.5 0.5 0.4 0.9 0.8 1.4 1.1 0 0.1 0.1 0.1 0.2 0.1 0.3 0.6 0.7 1.1 1.1 1.6 0 0.4 0 0.8-0.1 1.3 0.2 0.2 0.4 0.3 0.7 0.2 0 0.4-0.1 0.5-0.2 0.2-0.2 0.3-0.5 0.5-0.9 0.5 0-0.1-0.1-0.3-0.1-0.4l-0.2 0.1c0.1 0.9-0.1 1.7-0.3 2.4 0.1-1 0-2-0.3-2.9-0.3-0.2-0.6-0.2-1-0.2 0-0.2 0-0.4 0-0.7-0.2 0.6-0.2 0.6-0.3 0-0.7 0.2-1.5 0.2-2.3 0 0.1-0.8 0.1-1.7 0-2.5 0-0.3 0.1-0.6 0.2-0.8 0.2-0.2 0.4-0.2 0.7 0 0.2-0.1 0.4-0.3 0.6-0.5z"></path><path fill="#24cfed" d="m7 20.7c0 0.3 0 0.5-0.1 0.7-0.9 1.3-1.2 2.6-0.8 4.1 0.5 0 0.7 0.2 0.7 0.6 0.3 0 0.6 0 0.9 0.1-0.1 0-0.2 0.1-0.2 0.2-1.1 0-2.2 0-3.4-0.2 0.9-1.8 1.9-3.7 2.9-5.5z"></path><path fill="#28c1ea" d="m24.4 22.4c0.9 1.3 1.7 2.5 2.5 3.8-0.2 0.2-0.4 0.2-0.7 0l-0.1 0.2 0.3 0.2c-0.3 0.2-0.6 0.3-0.9 0.5-0.2-0.3-0.5-0.5-0.8-0.6h0.4c0.1-0.3 0.1-0.6 0.2-0.8-0.2 0.1-0.4 0.1-0.6 0.1v-0.6c0.1 0.1 0.3 0 0.4-0.1l-0.6-0.3c0.2-0.2 0.3-0.5 0.3-0.8 0-0.6-0.2-1.1-0.4-1.6z"></path><path fill="#010736" d="m27.5 23.6c0.3 0.5 0.5 1 0.6 1.6 0.5 0.4 1.1 0.6 1.6 0.7 0.1-0.3 0.2-0.5 0.3-0.8 0 0.4 0.1 0.7 0.3 1-0.1 0.1-0.2 0.3-0.3 0.5 0.3 1.5 0.7 1.5 1 0.1 0-0.2-0.1-0.4-0.3-0.6 0.2-0.2 0.3-0.4 0.4-0.6 0.2 0.3 0.4 0.4 0.8 0.2 0.1-0.2 0.2-0.4 0.4-0.6-0.1 0.6-0.2 1.2-0.3 1.8-0.2 0.2-0.4 0.3-0.6 0.2-0.2 0.4-0.4 0.9-0.7 1.3-0.3 0-0.6 0-0.8 0.1-0.1 0.6-0.4 1.1-0.9 1.4v-0.7c-0.2 0-0.5 0-0.7-0.2 0.2-0.2 0.2-0.4 0-0.5-0.3-0.1-0.6-0.1-0.9-0.1l-0.2-0.1c0.1-0.1 0.2-0.1 0.3-0.2 0.2 0 0.4-0.1 0.6-0.2-0.3-0.3-0.5-0.6-0.6-1 0.7 0.1 0.7-0.1 0.1-0.7l0.3-0.3c-0.3-0.7-0.6-1.5-0.8-2.3 0.1 0 0.2-0.1 0.4 0z"></path><path fill="#2cc1ea" d="m8.5 17.8l0.3 0.4c-0.1 0.1-0.2 0.3-0.3 0.4 0.2 0 0.3 0.1 0.4 0.2-0.1 0.1-0.3 0.1-0.5 0-0.2 0-0.3 0.1-0.3 0.3 0.1 0 0.2 0 0.4 0-0.5 1.1-1 2.3-1.3 3.5-0.9 0.8-1 1.7-0.2 2.7 0.4 0.1 0.8 0.2 1.2 0.5 0.5-0.2 1-0.4 1.6-0.6 0.1 0.2 0.1 0.3 0.1 0.5h0.6v-0.5c0.2 0 0.3 0.1 0.4 0.2-0.2 0.3-0.5 0.5-0.7 0.8-0.9 0.2-1.8 0.2-2.7 0.2 0-0.1 0.1-0.2 0.2-0.2-0.3-0.1-0.6-0.1-0.9-0.1 0-0.4-0.2-0.6-0.7-0.6-0.4-1.5-0.1-2.8 0.8-4.1 0.1-0.2 0.1-0.4 0.1-0.7 0.2-0.6 0.5-1.2 0.7-1.8l0.8-1.1z"></path><path fill="#6fde99" d="m20.3 23.3c0.3 0.1 0.6 0.3 0.9 0.4 0.3 0.4 0.6 0.8 1.1 1l0.3 0.8c0.2 0 0.4 0 0.5 0.1-0.3 0.3-0.4 0.7-0.5 1-0.3 0.1-0.5 0.1-0.7 0.2-0.7-0.1-1.4-0.3-2.1-0.4-0.1-0.2-0.2-0.3-0.3-0.5 0.1 0.1 0.2 0 0.3 0-0.1-0.3-0.1-0.5-0.2-0.8 0.1-0.2 0.2-0.3 0.3-0.4 0.2 0.2 0.4 0.3 0.7 0.1-0.3-0.2-0.5-0.5-0.6-0.9 0.1-0.2 0.2-0.4 0.3-0.6z"></path><path fill="#60deb4" d="m22.3 24.7l1.4 1c0.2 0.4 0.5 0.7 1 0.8 0.3 0.1 0.6 0.3 0.8 0.6v0.4c-1.2-0.1-2.5-0.4-3.6-0.7 0.2-0.1 0.4-0.1 0.7-0.2 0.1-0.3 0.2-0.7 0.5-1-0.1-0.1-0.3-0.1-0.5-0.1l-0.3-0.8z"></path><path fill="#020532" d="m14 22c0.3 0.2 0.7 0.4 1 0.7 0.1 0.1 0.3 0.3 0.4 0.4-0.2 0.2-0.4 0.4-0.6 0.5-0.3-0.2-0.5-0.2-0.7 0-0.1 0.2-0.2 0.5-0.2 0.8 0.1 0.8 0.1 1.7 0 2.5 0.8 0.2 1.6 0.2 2.3 0 0.1 0.6 0.1 0.6 0.3 0 0 0.3 0 0.5 0 0.7 0.4 0 0.7 0 1 0.2-0.4-0.1-0.8 0-1.1 0.1-0.1 0.6-0.2 1.2-0.2 1.8-0.2-0.4-0.3-0.9-0.4-1.4-0.3-0.2-0.5-0.3-0.8-0.2l-0.6-0.2c-0.7-0.2-1.5-0.2-2.2 0h-0.2c-0.1 1.1-0.2 2.2-0.1 3.4h-0.6c-0.1-1.3-0.2-2.6-0.1-3.9v-1.3c0.2 0 0.4 0 0.5-0.1l-0.2-0.1c0.1-0.2 0.1-0.4 0-0.6 0-0.1 0-0.2 0.1-0.3 0.4 0 0.7-0.1 0.9-0.5 0.1-0.2 0-0.3-0.2-0.4v-0.1c0.2-0.2 0.4-0.3 0.4-0.6 0.4-0.2 0.6-0.5 0.9-0.8l0.4-0.6z"></path><path fill="#04052b" d="m17.8 24.8c0.5 0.5 1.1 0.8 1.7 1.1 0.1 0.2 0.2 0.3 0.3 0.5 0.7 0.1 1.4 0.3 2.1 0.4 1.1 0.3 2.4 0.6 3.6 0.7 0.6 0.2 1.3 0.4 2 0.6-0.1 0.1-0.2 0.1-0.3 0.2l0.2 0.1c0.3 0 0.6 0 0.9 0.1 0.2 0.1 0.2 0.3 0 0.5-0.7 0.1-1.5 0-2.3-0.1-0.5 0.2-1.1 0.3-1.9 0.4-0.1 0.2-0.2 0.6-0.3 1-0.5-0.2-0.7-0.5-0.8-1-0.6-0.1-1.3-0.1-1.9-0.3-0.1 0.4-0.1 0.8-0.1 1.2 0.4-0.1 0.7 0 1 0.1h-1.3v-1.5h1.9v-0.9c-0.9-0.1-1.9-0.2-2.8-0.1v5.7c-0.2-0.3-0.3-0.7-0.3-1.1-0.2 0-0.4 0-0.5 0.2-0.2-0.4-0.2-0.3-0.2 0.1h-1v-2c0.2-0.7 0.4-1.5 0.3-2.4l0.2-0.1c0 0.1 0.1 0.3 0.1 0.4 0.4 0 0.7-0.2 0.9-0.5 0.1 0.3 0.2 0.2 0.2-0.2-0.3 0.1-0.5 0-0.7-0.2 0.1-0.5 0.1-0.9 0.1-1.3-0.4-0.5-0.8-1-1.1-1.6z"></path><path fill="#24dff2" d="m26.9 26.2c0.2 0.3 0.4 0.5 0.6 0.7 0.1 0.4 0.3 0.7 0.6 1-0.2 0.1-0.4 0.2-0.6 0.2-0.7-0.2-1.4-0.4-2-0.6v-0.4c0.3-0.2 0.6-0.3 0.9-0.5l-0.3-0.2 0.1-0.2c0.3 0.2 0.5 0.2 0.7 0z"></path><path fill="#010638" d="m10.2 26.9h0.6c-0.1 0.2 0 0.4 0.1 0.5 0 1.3 0 2.6-0.1 3.9-0.2 0-0.2 0.1-0.3 0.2 0.3 0.2 0.3 0.5 0.1 0.8-0.4 0.1-0.7 0-0.8-0.4 0-0.3 0-0.4 0.2-0.2 0.1-0.1 0.2-0.2 0.2-0.3-0.4-0.1-0.8-0.1-1.1 0-0.2 0-0.3-0.1-0.5-0.3l-0.1-1.1c0-0.7 0.1-1.4 0.1-2 0.3-0.5 0.7-0.6 1.2-0.4 0.2-0.2 0.4-0.4 0.4-0.7z"></path><path fill="#62eaca" d="m14.4 27.9l0.6 0.2c1 0.8 1.1 1.7 0.3 2.8 0.1 0.1 0.2 0.3 0.3 0.5 0.1 0.9 0.1 1.8 0.1 2.7h-1c-0.1-0.8-0.2-1.6-0.2-2.4-0.3-0.4-0.7-0.5-1.2-0.4v2.7h-1v-6.1h2.1z"></path><path fill="#298279" d="m17.5 27.8v0.1h-1v6.1c-0.1-2-0.2-4-0.1-6.1 0.3-0.1 0.7-0.2 1.1-0.1z"></path><path fill="#010638" d="m28.3 29c0.2 0.2 0.5 0.2 0.7 0.2v0.7c-0.3 0.2-0.5 0.5-0.7 0.8-0.4 0.2-0.9 0.4-1.4 0.6-1.4 0.1-2.8 0.1-4.1-0.2-0.1 0.2-0.1 0.3-0.1 0.5-0.2 0-0.3 0-0.4-0.2 0.2-0.4 0.2-0.7-0.2-1 0 0 0-0.1-0.1-0.1-0.3-0.1-0.6-0.2-1-0.1 0-0.4 0-0.8 0.1-1.2 0.6 0.2 1.3 0.2 1.9 0.3 0.1 0.5 0.3 0.8 0.8 1 0.1-0.4 0.2-0.8 0.3-1 0.8-0.1 1.4-0.2 1.9-0.4 0.8 0.1 1.6 0.2 2.3 0.1z"></path><path fill="#0b1327" d="m13.3 28.9c0.7-0.2 1.2 0.1 1.4 0.7-0.2 0.6-0.7 0.9-1.4 0.7v-1.4z"></path><path fill="#4ba89a" d="m22.6 27.9h-2.7v6.1h2.7v-0.7c-0.7 0-1.3 0-1.9-0.2h2v1h-2.9v-6.3c0.9-0.1 1.9 0 2.8 0.1z"></path><path fill="#2d948a" d="m14.4 27.9h-2.1v6.1h1c-0.4 0.1-0.7 0.1-1.1 0.1v-6.2c0.7-0.2 1.5-0.2 2.2 0z"></path><path fill="#71f6d8" d="m22.6 27.9v0.9h-1.9v1.5h1.3c0.1 0 0.1 0.1 0.1 0.1v0.9h-1.4v1.8c0.6 0.2 1.2 0.2 1.9 0.2v0.7h-2.7v-6.1h2.7z"></path><path fill="#02052e" d="m10.2 26.9c0 0.3-0.2 0.5-0.4 0.7-0.5-0.2-0.9-0.1-1.2 0.4 0 0.6-0.1 1.3-0.1 2l0.1 1.1c0.2 0.2 0.3 0.3 0.5 0.3 0.3-0.1 0.7-0.1 1.1 0 0 0.1-0.1 0.2-0.2 0.3-0.2-0.2-0.2-0.1-0.2 0.2 0.1 0.4 0.4 0.5 0.8 0.4 0.2-0.3 0.2-0.6-0.1-0.8 0.1-0.1 0.1-0.2 0.3-0.2 0.1-1.3 0.1-2.6 0.1-3.9h0.3c-0.1 1.3 0 2.6 0.1 3.9h0.6c-0.1-1.2 0-2.3 0.1-3.4 0.1 1.9 0 3.8-0.1 5.6h-0.7v-0.5c-0.3 0-0.5 0-0.7 0.1-0.3-0.1-0.6-0.3-0.9-0.4 0 0-0.1 0.1-0.2 0.1-0.2-0.1-0.4-0.1-0.6-0.2-0.3-0.4-0.4-0.8-0.3-1.2-0.3 0-0.6-0.1-1-0.2-0.3-0.2-0.7-0.4-1.1-0.6-0.3-0.4-0.5-0.8-0.6-1.3-0.2-0.1-0.3-0.2-0.4-0.3 0.2-0.1 0.4-0.2 0.4-0.4 0-0.4 0-0.8 0.1-1.2 0.2 0.1 0.4 0 0.6-0.2 0.3 0.1 0.7 0.1 1 0l0.7 0.2c0.2 0.3 0.3 0.3 0.4-0.1 0.5-0.2 0.8-0.2 1.2-0.1 0.1-0.1 0.3-0.2 0.4-0.3z"></path><path fill="#030632" d="m22.1 30.4c0.4 0.3 0.4 0.6 0.2 1 0.1 0.2 0.2 0.2 0.4 0.2 0-0.2 0-0.3 0.1-0.5 1.3 0.3 2.7 0.3 4.1 0.2 0 0.1-0.1 0.2-0.3 0.2 0.3 0.2 0.4 0.4 0.5 0.6 0 0.4-0.1 0.7-0.4 0.9l-0.1-0.2c-0.4 0.6-0.9 0.9-1.6 0.9-0.4-0.2-0.6-0.1-0.9 0.2-0.3 0-0.6 0.1-0.8 0.3-0.2 0.1-0.4 0.1-0.6-0.1v-1h-2v-1.8h1.4v-0.9z"></path><path fill="#0e101f" d="m34.9 17.8c0.1 0.3 0.3 0.5 0.6 0.4 0 0.3 0 0.6-0.3 0.9 0.2 0.1 0.2 0.3 0.3 0.4 0 0.3-0.1 0.3-0.2 0.1-0.1 0.4-0.2 0.8-0.4 1.1 0.1 0.9 0.1 1.8 0.2 2.7-1.3 4-3.7 7.2-7 9.6-1.9 1.2-3.9 2-6.1 2.5 0.1-0.1 0.2-0.2 0.3-0.2-0.3-0.1-0.3-0.3-0.1-0.5 0.6 0.4 1.1 0.3 1.4-0.4 0.1-0.2 0.3-0.2 0.4 0 0.3-0.3 0.7-0.5 1-0.7 0.7 0 1.2-0.3 1.6-0.9l0.1 0.2c0.3-0.2 0.4-0.5 0.4-0.9 0.4 0 0.8 0.1 1.2 0.2 0-0.3 0.1-0.6 0.3-0.8l0.9-0.6 0.2 0.1c0-0.4 0.1-0.8 0.3-1.3 0 0.2 0.1 0.3 0.2 0.5 0.4-0.4 0.6-0.8 0.5-1.4 0.5-0.2 1-0.6 1.5-1 0.1-0.7 0.2-1.3 0.3-2 0.2 0.1 0.5 0 0.7-0.3 0.3-0.8 0.7-1.6 1-2.4 0.4-0.2 0.7-0.5 0.7-0.9-0.1-1.1-0.1-2.1 0-3.2l0-0.8c-0.1-0.1-0.2-0.1-0.4-0.1 0.1-0.2 0.2-0.3 0.4-0.3z"></path><path fill="#070920" d="m4 26.4c2 0.1 4 0.2 6.1 0.2-0.4 0.1-0.8 0.2-1.2 0.3-0.2 0-0.3 0.1-0.5 0.3l-0.2-0.2c-0.8-0.1-1.7-0.3-2.6-0.4l-1.2 0.2c0 0.4 0.1 0.9 0.1 1.4 0.4 0.4 0.8 0.5 1.3 0.4 0 0.2-0.2 0.3-0.4 0.4 0.1 0.1 0.2 0.2 0.4 0.3 0.1 0.5 0.3 0.9 0.6 1.3 0.4 0.2 0.8 0.4 1.1 0.6 0.4 0.1 0.7 0.2 1 0.2-0.1 0.4 0 0.8 0.3 1.2 0.2 0.1 0.4 0.1 0.6 0.2 0.1 0 0.2-0.1 0.2-0.1 0.3 0.1 0.6 0.3 0.9 0.4 0.2-0.1 0.4-0.1 0.7-0.1v0.5h0.7c0.1-1.8 0.2-3.7 0.1-5.6h0.2v5.6c-0.2 0.2-0.4 0.4-0.7 0.5-0.4-0.1-0.9-0.1-1.4-0.1-0.2-0.2-0.4-0.3-0.6-0.4-0.1 0.1-0.1 0.2 0 0.3-1.9-0.9-3.6-2.1-4.9-3.8-0.2-0.4-0.2-0.8-0.1-1.2-0.6-0.7-1-1.5-1.2-2.4 0.2 0 0.5-0.1 0.7 0z"></path><path fill="#e5e9e5" d="m28.1 33c0.1 0.1 0.1 0.1 0 0z" opacity=".004"></path><path fill="#04031b" d="m17.5 27.9v-0.1c0.3 0.9 0.4 1.9 0.3 2.9v2h1c0-0.4 0-0.5 0.2-0.1 0.1-0.2 0.3-0.2 0.5-0.2 0 0.4 0.1 0.8 0.3 1.1v0.6h2.9c0.2 0.2 0.4 0.2 0.6 0.1 0.2-0.2 0.5-0.3 0.8-0.3 0.3-0.3 0.5-0.4 0.9-0.2-0.3 0.2-0.7 0.4-1 0.7-0.1-0.2-0.3-0.2-0.4 0-0.3 0.7-0.8 0.8-1.4 0.4-0.2 0.2-0.2 0.4 0.1 0.5-0.1 0-0.2 0.1-0.3 0.2-0.3 0.1-0.7 0.2-1 0.3 0.1-0.2 0-0.3-0.1-0.4-0.2 0.1-0.5 0.2-0.7 0.2-1.1-0.1-2.1-0.1-3.2 0l-0.2-0.2-2.4-0.1c-0.2 0-0.4-0.1-0.5-0.4 0.2-0.2 0.4-0.4 0.4-0.8h-0.4c-0.3-0.8-0.4-1.7-0.3-2.5 0.3-0.1 0.5 0 0.7 0.3 0 0.8 0.1 1.5 0.4 2.2h1c0-0.9 0-1.8-0.1-2.7-0.1-0.2-0.2-0.4-0.3-0.5 0.8-1.1 0.7-2-0.3-2.8 0.3-0.1 0.5 0 0.8 0.2 0.1 0.5 0.2 1 0.4 1.4 0-0.6 0.1-1.2 0.2-1.8-0.1 2.1 0 4.1 0.1 6.1 1 0.1 2 0.1 3 0.1 0-0.4 0-0.8-0.2-1.1-0.5-0.2-1.1-0.2-1.7-0.2 0.1-1.6 0-3.3-0.1-4.9z"></path><path fill="#3b827a" d="m19.3 33c0.2 0.3 0.2 0.7 0.2 1.1-1 0-2 0-3-0.1h2.8v-1z"></path><path fill="#64f3cf" d="m17.5 27.9v5.1h1.8v1h-2.8v-6.1h1z"></path><path fill="#0a5955" d="m17.5 27.9c0.1 1.6 0.2 3.3 0.1 4.9 0.6 0 1.2 0 1.7 0.2h-1.8v-5.1z"></path><path fill="#0f1019" d="m14.7 34.1c-0.3-0.7-0.4-1.4-0.4-2.2-0.2-0.3-0.4-0.4-0.7-0.3-0.1 0.8 0 1.7 0.3 2.5h0.4c0 0.4-0.2 0.6-0.4 0.8 0.1 0.3 0.3 0.4 0.5 0.4l2.4 0.1 0.2 0.2c1.1-0.1 2.1-0.1 3.2 0 0.2 0 0.5-0.1 0.7-0.2 0.1 0.1 0.2 0.2 0.1 0.4-0.3-0.1-0.6 0-0.8 0.1h-4.5c-2.2-0.3-4.3-1-6.2-2.1-0.1-0.1-0.1-0.2 0-0.3 0.2 0.1 0.4 0.2 0.6 0.4 0.5 0 1 0 1.4 0.1 0.3-0.1 0.5-0.3 0.7-0.5v0.6c0.4 0 0.7 0 1.1-0.1v-2.7c0.5-0.1 0.9 0 1.2 0.4 0 0.8 0.1 1.6 0.2 2.4z"></path></svg>