<?xml version="1.0"?><svg xmlns="http://www.w3.org/2000/svg" width="36" height="36" shape-rendering="geometricPrecision" text-rendering="geometricPrecision" image-rendering="optimizeQuality" fill-rule="evenodd" clip-rule="evenodd" viewBox="0 0 36 36"><path fill="#fcfefe" d="m0.7-0.1h17.9c-1.1 0.8-2.1 1.5-3.2 2.2l-1.5 0.7c-0.1 0.1-0.2 0.2-0.3 0.4-0.5 0.1-1 0.4-1.4 0.8-0.4 0.1-0.7 0.3-1 0.5-0.6 0.4-1.2 0.8-1.9 1.2-0.4 0.1-0.8 0.4-1.2 0.7-1.1 0.5-2.1 1.1-3.1 1.9l-1.3 0.6c-0.2 4.9-0.2 9.8 0 14.7-0.1 0.7 0 1.5 0.1 2.3 0.2-0.2 0.4-0.3 0.6-0.3 0.1 0 0.2 0 0.3 0.1 0.2-0.2 0.4-0.3 0.7-0.4 0.2 0 0.4 0.1 0.4 0.3-0.7 0.4-1.5 0.8-2.2 1.3-0.2 0.1-0.2 0.3-0.2 0.6 1.7-0.5 3.4-1.1 5-1.9 1.4-0.5 2.8-1 4.2-1.6 1.5-0.6 3-1.2 4.5-1.8 1.1-0.4 2.2-0.8 3.3-1.3 1.8-0.7 3.5-1.4 5.3-2 0.1-0.1 0.3-0.2 0.4-0.2h0.4v4.1l-0.2 0.1c-0.3 0-0.4 0.1-0.6 0.3-0.7 0.3-1.3 0.7-2 1.2-0.7 0.3-1.4 0.8-2 1.2-0.9 0.5-1.8 1-2.7 1.6h-0.1l-1-0.5c-0.2-0.2-0.5-0.3-0.8-0.4-0.2-0.3-0.5-0.5-0.9-0.6-0.3-0.3-0.6-0.4-1-0.5-0.3-0.2-0.6-0.4-1-0.7-0.3 0.1-0.6 0.2-0.8 0.4-0.9 0.2-1.8 0.5-2.6 1h-0.1c-1.9 0.6-3.8 1.3-5.7 2 0.7 0.5 1.3 0.9 2.1 1.2 0.1 0.2 0.3 0.3 0.5 0.5 1 0.5 2.1 1.1 3.2 1.6 0.8 0.7 1.7 1.2 2.7 1.6 0.1 0.2 0.2 0.3 0.4 0.3 0.7 0.5 1.4 0.9 2.2 1.2 0.8 0.6 1.6 1.1 2.5 1.6h-17.9v-36z"></path><path fill="#fdfdfd" d="m19-0.1h16.1v36h-15.6c0-0.1 0.1-0.2 0.2-0.2 0.4-0.2 0.8-0.5 1.2-0.7 0.5-0.4 1.1-0.7 1.6-1.1 0.3 0 0.5-0.1 0.7-0.4 0.8-0.3 1.6-0.8 2.3-1.3 0.1-0.2 0.3-0.3 0.5-0.4 0.8-0.3 1.5-0.8 2.1-1.4 0.5-0.1 0.8-0.3 1.1-0.6 0.7-0.4 1.4-0.8 2-1.3 1.1-0.6 2.1-1.2 3.1-1.8v-0.2c0.1-1.9 0-3.7-0.1-5.6v-4.8c0-2.5-0.1-4.9-0.3-7.3-0.1 0-0.1 0.1-0.1 0.1-0.5 0.4-1 0.7-1.6 1 0-0.2-0.1-0.3-0.3-0.4-0.3 0-0.6-0.1-0.9-0.2 0.3-0.2 0.6-0.6 0.9-0.9v-0.1c0.6-0.4 1.2-0.7 1.9-1-0.3-0.1-0.6-0.1-0.8 0-0.7 0.3-1.4 0.5-2.2 0.6-0.3 0-0.7 0-1-0.1-0.2-0.3 0-0.5 0.4-0.5 0.2 0.2 0.4 0.2 0.5 0-0.2-0.3-0.2-0.5 0-0.7-0.1-0.1-0.2-0.2-0.3-0.2-0.3 0-0.6 0-0.9 0-0.6-0.3-1.1-0.6-1.6-1h-0.2c-0.6-0.5-1.4-0.9-2.1-1.3-0.9-0.6-1.8-1.1-2.7-1.6h-0.1c-0.1-0.1-0.2-0.3-0.3-0.4-1.2-0.6-2.4-1.3-3.5-2v-0.2z"></path><path fill="#2eaad8" d="m18.6-0.1h0.4v0.2h-0.1c-0.1 0-0.2 0.1-0.2 0.2-0.3 0.3-0.6 0.4-1 0.5-0.1 0.3-0.3 0.6-0.4 0.9-0.3 0.1-0.6 0-0.8-0.2-0.2 0.1-0.2 0.3-0.2 0.4-0.3 0.1-0.6 0.1-0.9 0.2 1.1-0.7 2.1-1.4 3.2-2.2z"></path><path fill="#044c7b" d="m18.9 0.1h0.1c1.1 0.7 2.3 1.4 3.5 2 0.1 0.1 0.2 0.3 0.3 0.4-0.1 0-0.2 0-0.2 0.1-0.5-0.5-1-0.5-1.6 0-0.4 0.4-0.8 0.8-1.3 1.1-0.1 0.4-0.3 0.9-0.5 1.3-0.1-0.1-0.2-0.2-0.3-0.2v-4.7z"></path><path fill="#02a6e4" d="m18.7 0.3v3c0 0.6-0.1 1.2-0.3 1.9l-0.2-0.2 0.1-0.4c-0.1-0.4-0.1-0.8-0.2-1.2-0.5-0.6-1-1.2-1.6-1.9 0.2 0.2 0.5 0.3 0.8 0.2 0.1-0.3 0.3-0.6 0.4-0.9 0.4-0.1 0.7-0.2 1-0.5z"></path><path fill="#0798cf" d="m16.5 1.5c0.6 0.7 1.1 1.3 1.6 1.9 0.1 0.4 0.1 0.8 0.2 1.2l-0.1 0.4 0.2 0.2c0.2-0.7 0.3-1.3 0.3-1.9 0.1 0.7 0 1.3-0.1 2-0.4 0.4-0.9 0.6-1.5 0.7l-0.4-0.4c0.4-0.2 0.7-0.4 1-0.6-0.1-0.2-0.3-0.4-0.4-0.5-0.2 0.1-0.5 0.2-0.7 0.1-0.1 0.8-0.2 0.9-0.5 0.2 0.1-0.2 0.1-0.3 0-0.4-0.3-0.3-0.6-0.5-1-0.6 0.2-0.3 0.4-0.4 0.7-0.4 0.2-0.1 0.2-0.2 0-0.3-0.3 0-0.6-0.2-0.8-0.3-0.2 0.1-0.3 0.3-0.2 0.5l-0.3 0.1c-0.3-0.1-0.6-0.2-0.9-0.2 0.1-0.2 0.2-0.3 0.3-0.4l1.5-0.7c0.3-0.1 0.6-0.1 0.9-0.2 0-0.1 0-0.3 0.2-0.4z"></path><path fill="#00588a" d="m22.8 2.5h0.1c0 0.1 0 0.2-0.1 0.3-0.6 0.2-0.9 0.6-1 1.2-0.4 0.4-0.7 0.9-1 1.3-0.2 0.1-0.4 0.2-0.6 0.1-0.1 0.3-0.2 0.5-0.4 0.6-0.1-0.1-0.3-0.2-0.5-0.2-0.3-0.2-0.5-0.6-0.4-1 0.1 0 0.2 0.1 0.3 0.2 0.2-0.4 0.4-0.9 0.5-1.3 0.5-0.3 0.9-0.7 1.3-1.1 0.6-0.5 1.1-0.5 1.6 0 0-0.1 0.1-0.1 0.2-0.1z"></path><path fill="#0789c1" d="m18.9 0.1v4.7c-0.1 0.4 0.1 0.8 0.4 1-0.2 0-0.3 0-0.4-0.1-0.3 0-0.5 0.1-0.7 0.2-0.3 0.3-0.7 0.6-1.1 0.7-0.2 0-0.4 0.1-0.6 0.2-0.4-0.2-0.8-0.4-1.3-0.4 0-0.7-0.2-1.2-0.8-1.6l0.2-0.1c-0.3-0.1-0.5-0.3-0.6-0.5-0.2 0.1-0.3 0.1-0.5 0l0.1-0.2c-0.5 0.1-1 0.1-1.4 0 0.4-0.4 0.9-0.7 1.4-0.8 0.3 0 0.6 0.1 0.9 0.2l0.3-0.1c-0.1-0.2 0-0.4 0.2-0.5 0.2 0.1 0.5 0.3 0.8 0.3 0.2 0.1 0.2 0.2 0 0.3-0.3 0-0.5 0.1-0.7 0.4 0.4 0.1 0.7 0.3 1 0.6 0.1 0.1 0.1 0.2 0 0.4 0.3 0.7 0.4 0.6 0.5-0.2 0.2 0.1 0.5 0 0.7-0.1 0.1 0.1 0.3 0.3 0.4 0.5-0.3 0.2-0.6 0.4-1 0.6l0.4 0.4c0.6-0.1 1.1-0.3 1.5-0.7 0.1-0.7 0.2-1.3 0.1-2v-3c0-0.1 0.1-0.2 0.2-0.2z"></path><path fill="#027bb0" d="m12.2 4c0.4 0.1 0.9 0.1 1.4 0l-0.1 0.2c0.2 0.1 0.3 0.1 0.5 0 0.1 0.2 0.3 0.4 0.6 0.5l-0.2 0.1c0.6 0.4 0.8 0.9 0.8 1.6 0.5 0 0.9 0.2 1.3 0.4 0.2-0.1 0.4-0.2 0.6-0.2-0.1 0.2-0.2 0.3-0.4 0.3-0.7 0.3-1.4 0.7-2 1.2-0.4 0.1-0.7 0.1-1.1 0.3-0.1-0.4-0.4-0.7-0.6-1.1-0.7-0.2-1-0.6-1-1.3-0.3-0.2-0.6-0.3-0.9-0.4 0.1-0.2 0.2-0.4 0.4-0.6-0.5 0-0.5-0.1 0-0.4-0.1-0.1-0.2-0.1-0.3-0.1 0.3-0.2 0.6-0.4 1-0.5z"></path><path fill="#056b9e" d="m22.9 2.5c0.9 0.5 1.8 1 2.7 1.6-0.1 0-0.2 0.1-0.2 0.1-0.3-0.2-0.6-0.3-0.9-0.3 0 0.2 0.1 0.3 0.1 0.5l-0.5 0.3c-0.5 0.5-1 1-1.6 1.5 0.1 0 0.1 0.1 0.1 0.2-0.2 0.2-0.5 0.4-0.8 0.6 0.2 0.1 0.3 0.3 0.3 0.5-0.6 0.4-1.1 1-1.5 1.7 0.2 0.1 0.4 0.2 0.6 0.1-0.7 0.4-1.3 0.3-1.8-0.2 0-0.1 0-0.2-0.1-0.2 0.1-0.1 0.2-0.1 0.2-0.2 0.3-0.3 0.5-0.5 0.5-0.8l0.1 0.4c0.5-0.4 0.8-0.8 0.9-1.3-0.2-0.3-0.5-0.5-0.8-0.6-0.2-0.1-0.3-0.2-0.4-0.4 0.2-0.1 0.3-0.3 0.4-0.6 0.2 0.1 0.4 0 0.6-0.1 0.3-0.4 0.6-0.9 1-1.3 0.1-0.6 0.4-1 1-1.2 0.1-0.1 0.1-0.2 0.1-0.3z"></path><path fill="#0076ac" d="m25.6 4.1c0 0.2-0.1 0.4-0.3 0.6 0.2 0.2 0.3 0.3 0.6 0.4-0.3 0.3-0.6 0.3-0.8-0.1-0.2 0.2-0.4 0.3-0.6 0.4 0.2 0.1 0.3 0.2 0.2 0.4-0.3 0-0.5 0.2-0.7 0.5 0.2 0.3 0.1 0.4-0.2 0.2-0.2 0.4-0.5 0.7-0.9 0.9 0.2 0 0.3 0.1 0.4 0.2-0.2 0.1-0.4 0.2-0.5 0.3-0.2-0.2-0.5-0.3-0.7-0.4 0-0.2-0.1-0.4-0.3-0.5 0.3-0.2 0.6-0.4 0.8-0.6 0-0.1 0-0.2-0.1-0.2 0.6-0.5 1.1-1 1.6-1.5l0.5-0.3c0-0.2-0.1-0.3-0.1-0.5 0.3 0 0.6 0.1 0.9 0.3 0 0 0.1-0.1 0.2-0.1z"></path><path fill="#03689a" d="m11.2 4.5c0.1 0 0.2 0 0.3 0.1-0.5 0.3-0.5 0.4 0 0.4-0.2 0.2-0.3 0.4-0.4 0.6 0.3 0.1 0.6 0.2 0.9 0.4 0 0.7 0.3 1.1 1 1.3 0.2 0.4 0.5 0.7 0.6 1.1 0.4-0.2 0.7-0.2 1.1-0.3-0.1 0.1-0.2 0.2-0.3 0.3 0.1 0.4 0.1 0.7 0 1.1 0.4 0.3 0.7 0.5 0.9 0.9 0 0.2 0 0.3 0.1 0.4-0.3 0.3-0.6 0.5-1 0.7-0.2 0.1-0.5 0.1-0.7 0 0-0.2 0-0.3-0.1-0.5l0.3-0.1c-0.2-0.1-0.2-0.2 0-0.3-0.2-0.1-0.3-0.2-0.5-0.3-0.1-0.4-0.2-0.7-0.4-1l-1.1 0.6c0-0.4 0-0.8-0.1-1.2-0.8-0.7-1.5-1.5-2.1-2.4l0.2-0.1c-0.2-0.2-0.4-0.3-0.6-0.3 0.2-0.1 0.2-0.1 0-0.2 0.7-0.4 1.3-0.8 1.9-1.2z"></path><path fill="#0190c9" d="m27.7 5.4h0.2c0 0.1 0 0.2 0.1 0.2-0.4 0.3-0.8 0.6-1.1 1 0.1 0 0.1 0.1 0.2 0.2-0.4 0.1-0.8 0.2-1.2 0.3-0.1 0.1-0.1 0.2 0 0.4 0.4 0 0.7-0.1 1-0.3 0.2 0.1 0.2 0.2 0 0.3-0.2 0.2-0.5 0.3-0.9 0.4-0.3-0.1-0.7-0.1-0.9 0-0.1-0.4-0.3-0.6-0.7-0.6 0-0.1 0-0.3 0-0.4 0.3 0.1 0.6 0.2 0.9 0.2 0-0.4 0.2-0.7 0.6-0.7 0.1-0.1 0.1-0.3 0.1-0.4 0.2 0 0.4-0.1 0.5-0.2-0.1-0.2-0.2-0.4-0.4-0.6l0.4-0.2c0.4 0.2 0.8 0.4 1.2 0.4z"></path><path fill="#025d8f" d="m9.3 5.7c0.2 0.1 0.2 0.1 0 0.2 0.2 0 0.4 0.1 0.6 0.3l-0.2 0.1c0.6 0.9 1.3 1.7 2.1 2.4 0.1 0.4 0.1 0.8 0.1 1.2-0.4 0.3-0.8 0.6-1.2 0.8-0.2 0-0.4 0.1-0.6 0.2-0.1-0.1-0.1-0.2 0.1-0.4 0.1-0.1 0.1-0.3 0-0.5-0.2-0.4-0.3-0.8-0.5-1.2-0.3 0.3-0.4 0.2-0.4-0.3-0.4-0.1-0.7-0.5-0.8-1l-0.4-0.1c0-0.3 0-0.6 0-1 0.4-0.3 0.8-0.6 1.2-0.7z"></path><path fill="#0583ba" d="m25.6 4.1c0.7 0.4 1.5 0.8 2.1 1.3-0.4 0-0.8-0.2-1.2-0.4l-0.4 0.2c0.2 0.2 0.3 0.4 0.4 0.6-0.1 0.1-0.3 0.2-0.5 0.2 0 0.1 0 0.3-0.1 0.4-0.4 0-0.6 0.3-0.6 0.7-0.3 0-0.6-0.1-0.9-0.2 0 0.1 0 0.3 0 0.4 0.4 0 0.6 0.2 0.7 0.6-0.4 0.2-0.8 0.4-1.1 0.6-0.5-0.1-0.9-0.4-1.2-0.6 0.1-0.1 0.3-0.2 0.5-0.3-0.1-0.1-0.2-0.2-0.4-0.2 0.4-0.2 0.7-0.5 0.9-0.9 0.3 0.2 0.4 0.1 0.2-0.2 0.2-0.3 0.4-0.5 0.7-0.5 0.1-0.2 0-0.3-0.2-0.4 0.2-0.1 0.4-0.2 0.6-0.4 0.2 0.4 0.5 0.4 0.8 0.1-0.3-0.1-0.4-0.2-0.6-0.4 0.2-0.2 0.3-0.4 0.3-0.6z"></path><path fill="#024474" d="m18.9 5.7c0 1.1 0 2.1-0.2 3.1-0.3 0.2-0.6 0.4-0.9 0.5-0.2 0-0.3 0-0.4-0.2 0.2-0.1 0.2-0.1 0-0.2-0.2-0.1-0.5-0.1-0.7 0 0.2-0.4 0.4-0.8 0.7-1.1-0.1-0.1-0.2-0.2-0.2-0.3l-0.1 0.1c-0.2-0.1-0.4-0.3-0.6-0.3 0.1-0.1 0.2-0.3 0.2-0.4 0.2 0 0.3-0.1 0.4-0.3 0.4-0.1 0.8-0.4 1.1-0.7 0.2-0.1 0.4-0.2 0.7-0.2z"></path><path fill="#189dd2" d="m27.9 5.4c0.5 0.4 1 0.7 1.6 1 0.2 0.2 0.5 0.3 0.8 0.5-2.1 0.6-4.2 1.2-6.3 1.8v-0.2c0.3-0.2 0.7-0.4 1.1-0.6 0.2-0.1 0.6-0.1 0.9 0 0.4-0.1 0.7-0.2 0.9-0.4 0.2-0.1 0.2-0.2 0-0.3-0.3 0.2-0.6 0.3-1 0.3-0.1-0.2-0.1-0.3 0-0.4 0.4-0.1 0.8-0.2 1.2-0.3-0.1-0.1-0.1-0.2-0.2-0.2 0.3-0.4 0.7-0.7 1.1-1-0.1 0-0.1-0.1-0.1-0.2z"></path><path fill="#0083ba" d="m20.2 6.4c0.3 0.1 0.6 0.3 0.8 0.6-0.1 0.5-0.4 0.9-0.9 1.3l-0.1-0.4c0 0.3-0.2 0.5-0.5 0.8-0.1-0.2-0.2-0.3-0.2-0.5 0.2-0.3 0.4-0.7 0.6-0.9 0-0.1-0.1-0.2-0.1-0.2 0.3-0.2 0.4-0.4 0.4-0.7z"></path><path fill="#44c0e7" d="m31.9 8.3c0-0.2-0.1-0.3-0.3-0.3-0.4 0.1-0.7 0.1-1 0.1l0.2-0.2c0.8-0.1 1.5-0.3 2.2-0.6 0.2-0.1 0.5-0.1 0.8 0-0.7 0.3-1.3 0.6-1.9 1z"></path><path fill="#1198cf" d="m18.9 5.7c0.1 0.1 0.2 0.1 0.4 0.1 0.2 0 0.4 0.1 0.5 0.2 0.1 0.2 0.2 0.3 0.4 0.4 0 0.3-0.1 0.5-0.4 0.7 0 0 0.1 0.1 0.1 0.2-0.2 0.2-0.4 0.6-0.6 0.9 0 0.2 0.1 0.3 0.2 0.5 0 0.1-0.1 0.1-0.2 0.2 0.1 0 0.1 0.1 0.1 0.2-0.2-0.2-0.4-0.3-0.7-0.3 0.2-1 0.2-2 0.2-3.1z"></path><path fill="#09507f" d="m22.1 7.5c0.2 0.1 0.5 0.2 0.7 0.4 0.3 0.2 0.7 0.5 1.2 0.6v0.2c-0.7 0.1-1.4 0.3-2 0.5-0.3 0-0.6 0-0.8 0.1-0.2 0.1-0.4 0-0.6-0.1 0.4-0.7 0.9-1.3 1.5-1.7z"></path><path fill="#024f7f" d="m8.1 6.4c0 0.4 0 0.7 0 1l0.4 0.1c0.1 0.5 0.4 0.9 0.8 1 0 0.5 0.1 0.6 0.4 0.3 0.2 0.4 0.3 0.8 0.5 1.2 0.1 0.2 0.1 0.4 0 0.5-0.2 0.2-0.2 0.3-0.1 0.4-0.4 0.3-0.8 0.6-1.2 0.9l-0.6 0.2c-0.2-0.1-0.4-0.2-0.6-0.4 0.1 0 0.2 0 0.3 0-0.2-0.6-0.5-1-0.9-1.4 0 0 0.1-0.1 0.1-0.2-0.3-0.4-0.7-0.7-1.2-0.9 0-0.2 0-0.3 0-0.4 0.5 0 0.8 0.2 1.1 0.6l0.1-0.2c-0.2-0.3-0.4-0.5-0.6-0.8-0.2-0.1-0.4 0-0.6 0.1-0.3-0.2-0.6-0.3-1-0.1 1-0.8 2-1.4 3.1-1.9z"></path><path fill="#035383" d="m16.7 6.9c0 0.1-0.1 0.3-0.2 0.4 0.2 0 0.4 0.2 0.6 0.3l0.1-0.1c0 0.1 0.1 0.2 0.2 0.3-0.3 0.3-0.5 0.7-0.7 1.1 0.2-0.1 0.5-0.1 0.7 0 0.2 0.1 0.2 0.1 0 0.2 0.1 0.2 0.2 0.2 0.4 0.2-0.8 0.5-1.6 1-2.4 1.5-0.1-0.1-0.1-0.2-0.1-0.4-0.2-0.4-0.5-0.6-0.9-0.9 0.1-0.4 0.1-0.7 0-1.1 0.1-0.1 0.2-0.2 0.3-0.3 0.6-0.5 1.3-0.9 2-1.2z"></path><path fill="#024474" d="m7.7 11.6c-1.2-0.7-2.5-1.5-3.7-2.3-0.2-0.1-0.3-0.2-0.3-0.4l1.3-0.6c0.4-0.2 0.7-0.1 1 0.1 0.2-0.1 0.4-0.2 0.6-0.1 0.2 0.3 0.4 0.5 0.6 0.8l-0.1 0.2c-0.3-0.4-0.6-0.6-1.1-0.6 0 0.1 0 0.2 0 0.4 0.5 0.2 0.9 0.5 1.2 0.9 0 0.1-0.1 0.2-0.1 0.2 0.4 0.4 0.7 0.8 0.9 1.4-0.1 0-0.2 0-0.3 0z"></path><path fill="#14b7f2" d="m31.9 8.3v0.1l-1.1 0.4c-0.4 0-0.6 0.1-0.8 0.4-0.2-0.2-0.4-0.4-0.6-0.5 0.4-0.2 0.8-0.4 1.2-0.6 0.3 0 0.6 0 1-0.1 0.2 0 0.3 0.1 0.3 0.3z"></path><path fill="#36b6e2" d="m30.6 8.1c-0.4 0.2-0.8 0.4-1.2 0.6 0.2 0.1 0.4 0.3 0.6 0.5 0.2-0.3 0.4-0.4 0.8-0.4-0.3 0.3-0.7 0.6-1.2 0.8 0-0.1 0.1-0.3 0.2-0.4-0.2-0.1-0.4-0.2-0.5-0.3-0.3 0-0.7 0.1-1 0.3 0-0.1-0.2-0.1-0.3-0.1 0.8-0.5 1.7-0.8 2.6-1z"></path><path fill="#dceff5" d="m18.7 8.8c0.3 0 0.5 0.1 0.7 0.3 0.5 0.5 1.1 0.6 1.8 0.2 0.2-0.1 0.5-0.1 0.8-0.1-1.1 0.8-2.1 0.7-3.1-0.1-0.7 0.5-1.4 0.8-2.2 1.1-0.1 0.2-0.2 0.3-0.2 0.5-0.4 0.1-0.7 0.2-1 0.5-0.3 0.2-0.7 0.3-1.1 0.3 0.4-0.2 0.7-0.4 1-0.7 0.8-0.5 1.6-1 2.4-1.5 0.3-0.1 0.6-0.3 0.9-0.5z"></path><path fill="#0474a9" d="m14.4 11.5c-0.7 0.4-1.5 0.9-2.2 1.3 0-0.2 0.1-0.4 0.4-0.4l-1 0.1-0.5-0.7c0.2 0 0.3 0.1 0.5 0.2 0.2-0.1 0.4-0.2 0.6-0.4-0.6-0.1-0.9-0.4-0.8-0.9-0.3-0.2-0.5-0.2-0.7 0 0.4-0.2 0.8-0.5 1.2-0.8l1.1-0.6c0.2 0.3 0.3 0.6 0.4 1 0.2 0.1 0.3 0.2 0.5 0.3-0.2 0.1-0.2 0.2 0 0.3l-0.3 0.1c0.1 0.2 0.1 0.3 0.1 0.5 0.2 0.1 0.5 0.1 0.7 0z"></path><path fill="#6caac5" d="m3.7 8.9c0 0.2 0.1 0.3 0.3 0.4-0.3 0.6-0.4 1.3-0.3 2.1v12.2c-0.2-4.9-0.2-9.8 0-14.7z"></path><path fill="#0186bd" d="m12.2 12.8c-0.1 0.1-0.2 0.2-0.3 0.2-0.4 0.2-0.9 0.3-1.4 0.4-0.2-0.1-0.4-0.2-0.5-0.4 0.4-0.2 0.5-0.5 0.1-0.8l0.3-0.2c-0.5-0.4-1-0.4-1.5-0.2 0.4-0.3 0.8-0.6 1.2-0.9 0.2-0.1 0.4-0.2 0.6-0.2 0.2-0.2 0.4-0.2 0.7 0-0.1 0.5 0.2 0.8 0.8 0.9-0.2 0.2-0.4 0.3-0.6 0.4-0.2-0.1-0.3-0.2-0.5-0.2l0.5 0.7 1-0.1c-0.3 0-0.4 0.2-0.4 0.4z"></path><path fill="#848486" d="m33.8 8.9c0.1 0 0.1 0.1 0.1 0.2-0.5 0.7-0.9 1.5-1.2 2.3-0.4 0.5-0.7 1-0.9 1.7-0.5 0.5-0.9 1.2-1.1 1.9l-0.7 1.1c-0.3 0.5-0.7 1.1-1.1 1.6-0.9 0.3-1.9 0.6-2.8 1-0.1 0-0.3 0.1-0.4 0.2-0.2 0-0.5 0.1-0.8 0l0.3-0.1c-0.2-0.1-0.2-0.3 0-0.4l-0.3-0.1c1.3-1.2 2.4-2.5 3.3-3.9 0.6-0.4 1-0.8 1.3-1.4l-0.1-0.6 0.1-0.1c0.1 0.2 0.2 0.3 0.2 0.5 0.3-0.4 0.7-0.8 1-1.2-0.3-0.2-0.4-0.4-0.1-0.7l1.6-1c0.6-0.3 1.1-0.6 1.6-1z"></path><path fill="#03a5e0" d="m4 9.3c1.2 0.8 2.5 1.6 3.7 2.3 0.2 0.2 0.4 0.3 0.6 0.4 0 0.7 0 1.3-0.1 1.9-0.2 0.6-0.5 0.6-0.9-0.1-0.8-0.2-1.5-0.5-2.1-0.8 0.2-0.1 0.4-0.2 0.6-0.2-0.3-0.3-0.7-0.3-1 0-0.4 0-0.4-0.2-0.3-0.4-0.1-0.3-0.2-0.4-0.4-0.4 0-0.1 0.1-0.1 0.1-0.2-0.1-0.2-0.3-0.4-0.5-0.4-0.1-0.8 0-1.5 0.3-2.1z"></path><path fill="#f6fbfb" d="m29.5 6.4c0.3 0 0.6 0 0.9 0 0.1 0 0.2 0.1 0.3 0.2-0.2 0.2-0.2 0.4 0 0.7-0.1 0.2-0.3 0.2-0.5 0-0.4 0-0.6 0.2-0.4 0.5 0.3 0.1 0.7 0.1 1 0.1l-0.2 0.2c-0.9 0.2-1.8 0.5-2.6 1-0.2-0.1-0.4 0-0.7 0-0.9 0.4-1.8 0.7-2.7 1h-0.1c-2.5 0.7-5 1.5-7.4 2.5-0.8 0.1-1.6 0.4-2.4 0.8-0.3 0-0.5 0.1-0.8 0.2-0.5 0.1-0.9 0.2-1.3 0.3 0 1.7 0.1 3.4 0.2 5.1 1-0.5 1.9-1 2.7-1.6 0.5-0.1 1-0.3 1.4-0.7 0.7-0.2 1.3-0.6 1.8-1.1 1-0.5 2.1-1.1 3.1-1.6 0.6 0.1 1.1-0.1 1.5-0.6 0.6-0.3 1.1-0.6 1.8-0.8 0-0.2 0.1-0.3 0.1-0.4 0.7-0.6 1.4-1 2.1-1.4 0.8-0.4 1.5-0.8 2.3-1.2 0.5-0.2 0.9-0.5 1.2-0.8l1.1-0.4c-0.3 0.3-0.6 0.7-0.9 0.9 0.3 0.1 0.6 0.2 0.9 0.2 0.2 0.1 0.3 0.2 0.3 0.4l-1.6 1c-1.5 0.8-3 1.6-4.3 2.6-0.4 0.1-0.8 0.3-1.1 0.5-2 1.2-3.9 2.3-5.8 3.5-1.5 0.8-2.9 1.7-4.3 2.6-2.2 1.1-4.3 2.4-6.3 3.7-1 0.6-2 1.1-3 1.8 0-0.2-0.2-0.3-0.4-0.3-0.3 0.1-0.5 0.2-0.7 0.4-0.1-0.1-0.2-0.1-0.3-0.1 0.5-0.4 1.1-0.8 1.7-1.2 0.8-0.4 1.6-0.9 2.3-1.4 0.1 0 0.1 0 0.1-0.1 0.8-0.5 1.7-0.9 2.5-1.3 0.1-1.1 0.1-2.1 0.1-3.1-0.1-1.7 0-3.3 0.1-5 0.3-0.1 0.5-0.3 0.7-0.5 0.1 0 0.2-0.1 0.3-0.2 0.7-0.4 1.5-0.9 2.2-1.3 0.4 0 0.8-0.1 1.1-0.3 0.3-0.3 0.6-0.4 1-0.5 0-0.2 0.1-0.3 0.2-0.5 0.8-0.3 1.5-0.6 2.2-1.1 1 0.8 2 0.9 3.1 0.1 0.6-0.2 1.3-0.4 2-0.5 2.1-0.6 4.2-1.2 6.3-1.8-0.3-0.2-0.6-0.3-0.8-0.5z"></path><path fill="#3689af" d="m24.5 10.1c-0.3 0.2-0.6 0.3-0.8 0.6-1 0.1-1.9 0.4-2.8 0.8-0.2 0-0.4 0.1-0.5 0.2 0.1 0.1 0.1 0.3 0.1 0.5-0.3-0.1-0.5-0.2-0.8-0.3-0.6 0.1-1 0.2-1.2 0.4-0.5 0.1-0.9 0.2-1.4 0.3 2.4-1 4.9-1.8 7.4-2.5z"></path><path fill="#1193c8" d="m27.3 10.8c-0.7 0.4-1.4 0.8-2.1 1.4-0.7 0.2-1.3 0.5-1.9 0.9 0-0.1-0.1-0.2-0.1-0.2 0.4-0.1 0.6-0.3 0.8-0.7l-0.2-0.1 1-0.1c-0.3-0.7-0.8-0.8-1.6-0.4 0-0.1-0.1-0.2-0.2-0.3 0.3-0.1 0.5-0.2 0.6-0.4l0.3 0.3c0.1-0.2 0-0.4-0.2-0.5 0.2-0.3 0.5-0.4 0.8-0.6h0.1c0.4-0.1 0.8-0.1 1.1 0 0.4 0.2 0.5 0.5 0.2 0.8 0.2 0 0.5 0.1 0.7 0.2 0.2-0.2 0.5-0.3 0.7-0.3z"></path><path fill="#12a2db" d="m29.6 9.6c-0.8 0.4-1.5 0.8-2.3 1.2-0.2 0-0.5 0.1-0.7 0.3-0.2-0.1-0.5-0.2-0.7-0.2 0.3-0.3 0.2-0.6-0.2-0.8-0.3-0.1-0.7-0.1-1.1 0 0.9-0.3 1.8-0.6 2.7-1 0.3 0 0.5-0.1 0.7 0 0.1 0 0.3 0 0.3 0.1 0.3-0.2 0.7-0.3 1-0.3 0.1 0.1 0.3 0.2 0.5 0.3-0.1 0.1-0.2 0.3-0.2 0.4z"></path><path fill="#dbdcdd" d="m33.8 8.9c0 0 0-0.1 0.1-0.1 0.2 2.4 0.3 4.8 0.3 7.3h-0.1v-1.1c0-1.1-0.1-2.2-0.3-3.2-0.2 0.3-0.3 0.3-0.4 0l-0.2 0.2c-0.2-0.2-0.3-0.4-0.5-0.6 0.3-0.8 0.7-1.6 1.2-2.3 0-0.1 0-0.2-0.1-0.2z"></path><path fill="#0582b9" d="m23.7 10.7c0.2 0.1 0.3 0.3 0.2 0.5l-0.3-0.3c-0.1 0.2-0.3 0.3-0.6 0.4 0.1 0.1 0.2 0.2 0.2 0.3 0.8-0.4 1.3-0.3 1.6 0.4l-1 0.1 0.2 0.1c-0.2 0.4-0.4 0.6-0.8 0.7 0 0 0.1 0.1 0.1 0.2-0.4 0.3-0.8 0.5-1.2 0.7-0.1-0.2-0.2-0.2-0.4-0.2v-0.4c-0.2 0.1-0.4 0-0.5-0.1 0.1-0.2 0-0.4-0.3-0.5 0.3 0 0.4-0.2 0.3-0.4 0.6-0.2 0.6-0.4-0.1-0.6-0.3 0.2-0.4 0.2-0.2-0.1 0.9-0.4 1.8-0.7 2.8-0.8z"></path><path fill="#0470a4" d="m20.9 11.5c-0.2 0.3-0.1 0.3 0.2 0.1 0.7 0.2 0.7 0.4 0.1 0.6 0.1 0.2 0 0.4-0.3 0.4 0.3 0.1 0.4 0.3 0.3 0.5 0.1 0.1 0.3 0.2 0.5 0.1v0.4c0.2 0 0.3 0 0.4 0.2-0.1 0-0.2 0.1-0.3 0.2-1 0.5-2.1 1.1-3.1 1.6-0.3-0.1-0.2-0.3 0.2-0.4-0.4-0.1-0.4-0.2 0-0.4-0.1-0.4-0.4-0.8-0.8-0.9-0.1-0.3-0.1-0.6 0-0.9-0.3-0.2-0.2-0.3 0.2-0.4 0.2 0.1 0.5 0.1 0.7 0-0.2-0.1-0.4-0.2-0.5-0.3 0.2-0.2 0.6-0.3 1.2-0.4 0.3 0.1 0.5 0.2 0.8 0.3 0-0.2 0-0.4-0.1-0.5 0.1-0.1 0.3-0.2 0.5-0.2z"></path><path fill="#c6c6c8" d="m32.7 11.4c0.2 0.2 0.3 0.4 0.5 0.6l0.2-0.2c0.1 0.3 0.2 0.3 0.4 0 0.2 1 0.3 2.1 0.3 3.2-0.1-0.5-0.2-1-0.4-1.5-0.6 0.1-1.2 0.1-1.8 0-0.1-0.1-0.1-0.3-0.1-0.4 0.2-0.7 0.5-1.2 0.9-1.7z"></path><path fill="#006ea3" d="m10 13c0.1 0.2 0.3 0.3 0.5 0.4 0 0.3 0.1 0.5 0.2 0.8 0.1-0.2 0.1-0.4 0.1-0.6 0.1 0.5 0.2 0.9 0.1 1.4-0.1-0.2-0.2-0.5-0.4-0.7-0.1 0.5-0.3 0.5-0.6 0.2 0.1-0.1 0.1-0.2-0.1-0.3-0.2 0.3-0.4 0.4-0.7 0.2-0.1 0.1-0.2 0.2-0.2 0.3-0.2-0.3-0.3-0.6-0.5-0.8v-1.6c0.6 0.1 1.1 0.3 1.6 0.7z"></path><path fill="#0192c9" d="m3.7 11.4c0.2 0 0.4 0.2 0.5 0.4 0 0.1-0.1 0.1-0.1 0.2 0.2 0 0.3 0.1 0.4 0.4-0.1 0.2-0.1 0.4 0.3 0.4 0.3-0.3 0.7-0.3 1 0-0.2 0-0.4 0.1-0.6 0.2 0.6 0.3 1.3 0.6 2.1 0.8 0.4 0.7 0.7 0.7 0.9 0.1 0.1-0.6 0.1-1.2 0.1-1.9l0.6-0.2c0.5-0.2 1-0.2 1.5 0.2l-0.3 0.2c0.4 0.3 0.3 0.6-0.1 0.8-0.5-0.4-1-0.6-1.6-0.7v1.6c-0.1 0.7-0.1 1.5-0.1 2.2-1-0.4-2-0.9-3-1.3-0.2-0.1-0.4-0.1-0.6 0-0.4-0.8-0.5-0.8-0.3 0.2h-0.4l-0.2 1.1h-0.1v-4.7z"></path><path fill="#046294" d="m18.5 12.3c0.1 0.1 0.3 0.2 0.5 0.3-0.2 0.1-0.5 0.1-0.7 0-0.4 0.1-0.5 0.2-0.2 0.4-0.1 0.3-0.1 0.6 0 0.9 0.4 0.1 0.7 0.5 0.8 0.9-0.4 0.2-0.4 0.3 0 0.4-0.4 0.1-0.5 0.3-0.2 0.4-0.5 0.5-1.1 0.9-1.8 1.1v-0.4c-0.2 0-0.4 0.1-0.6 0.2-0.1-0.1-0.1-0.2 0-0.3-0.1-0.2-0.2-0.2-0.4 0-0.1-0.1-0.1-0.3-0.1-0.4 0.5-0.1 0.6-0.3 0.4-0.8l-0.3 0.2c-0.1-0.1-0.1-0.3 0.2-0.4-0.2-0.4-0.4-0.4-0.7-0.1-0.1-0.1-0.1-0.2 0.1-0.3-0.3-0.3-0.7-0.5-1.1-0.6 0.2-0.2 0.4-0.3 0.6-0.4-0.1 0-0.2-0.1-0.3 0 0.8-0.4 1.6-0.7 2.4-0.8 0.5-0.1 0.9-0.2 1.4-0.3z"></path><path fill="#daf4f9" d="m25.2 12.2c0 0.1-0.1 0.2-0.1 0.4-0.7 0.2-1.2 0.5-1.8 0.8-0.4 0.5-0.9 0.7-1.5 0.6 0.1-0.1 0.2-0.2 0.3-0.2 0.4-0.2 0.8-0.4 1.2-0.7 0.6-0.4 1.2-0.7 1.9-0.9z"></path><path fill="#3287ac" d="m11.9 13c-0.2 0.2-0.4 0.4-0.7 0.5-0.1 1.7-0.2 3.3-0.1 5h-0.2v-3.5c0.1-0.5 0-0.9-0.1-1.4 0 0.2 0 0.4-0.1 0.6-0.1-0.3-0.2-0.5-0.2-0.8 0.5-0.1 1-0.2 1.4-0.4z"></path><path fill="#b4b4b6" d="m31.8 13.1c0 0.1 0 0.3 0.1 0.4 0.6 0.1 1.2 0.1 1.8 0 0.2 0.5 0.3 1 0.4 1.5v1.1c-0.2-0.3-0.3-0.6-0.4-1l-0.1 0.4c-0.2-0.1-0.4-0.3-0.6-0.4l-0.1 0.3c-0.6-0.1-1.3-0.1-2.1-0.1-0.1-0.1-0.1-0.2-0.1-0.3 0.2-0.7 0.6-1.4 1.1-1.9z"></path><path fill="#015486" d="m14.7 13.4c0.1-0.1 0.2 0 0.3 0-0.2 0.1-0.4 0.2-0.6 0.4 0.4 0.1 0.8 0.3 1.1 0.6-0.2 0.1-0.2 0.2-0.1 0.3 0.3-0.3 0.5-0.3 0.7 0.1-0.3 0.1-0.3 0.3-0.2 0.4l0.3-0.2c0.2 0.5 0.1 0.7-0.4 0.8 0 0.1 0 0.3 0.1 0.4 0.2-0.2 0.3-0.2 0.4 0-0.1 0.1-0.1 0.2 0 0.3 0.2-0.1 0.4-0.2 0.6-0.2v0.4c-0.4 0.4-0.9 0.6-1.4 0.7-0.3 0.1-0.7 0.3-1.1 0.4-0.3-0.2-0.6-0.3-0.8-0.5-0.3 0.3-0.3 0.7-0.2 1-0.1 0.3-0.3 0.3-0.5 0.2-0.1-1.5-0.1-3-0.1-4.4 0.4-0.1 0.8-0.2 1.1-0.5 0.3-0.1 0.5-0.2 0.8-0.2z"></path><path fill="#0083ba" d="m8.4 13.9c0.2 0.2 0.3 0.5 0.5 0.8 0-0.1 0.1-0.2 0.2-0.3 0.3 0.2 0.5 0.1 0.7-0.2 0.2 0.1 0.2 0.2 0.1 0.3 0.3 0.3 0.5 0.3 0.6-0.2 0.2 0.2 0.3 0.5 0.4 0.7v3.9c-0.1-0.4-0.1-0.9-0.2-1.4 0 0.3-0.1 0.6-0.2 0.8-0.1-0.1-0.1-0.3 0-0.4-0.6-0.2-1.2-0.2-1.8-0.1-0.1 0.4-0.2 0.9-0.3 1.3-0.2-0.4-0.5-0.9-0.9-1.2 0 0.1-0.1 0.1-0.2 0.2-0.6-0.5-1.3-0.9-2.1-1-0.1-0.1-0.2-0.3-0.2-0.4-0.1 0.2-0.2 0.3-0.3 0.4l-0.3-0.6c-0.2-0.2-0.3-0.2-0.4 0-0.2-0.2-0.2-0.3-0.2-0.4l0.2-1.1h0.4c-0.2-1-0.1-1 0.3-0.2 0.2-0.1 0.4-0.1 0.6 0 1 0.4 2 0.9 3 1.3 0-0.7 0-1.5 0.1-2.2z"></path><path fill="#a6a6a8" d="m30.7 15c0 0.1 0 0.2 0.1 0.3 0.8 0 1.5 0 2.1 0.1l0.1-0.3c0.2 0.1 0.4 0.3 0.6 0.4l0.1-0.4c0.1 0.4 0.2 0.7 0.4 1h0.1v2.1c-0.1-0.5-0.2-0.9-0.4-1.4-1.3-0.1-2.6-0.1-3.9-0.1 0.1-0.2 0.2-0.4 0.1-0.6l0.7-1.1z"></path><path fill="#9e9ea0" d="m26.3 13.5c-0.1 0.1-0.1 0.2-0.2 0.2 0.2 0.1 0.3 0.2 0.2 0.3-0.4 0.5-0.9 0.8-1.5 1-0.2 0.4-0.5 0.6-0.8 0.9l0.2 0.1c-0.1 0.1-0.3 0.1-0.5 0.1-0.1 0.3-0.2 0.6-0.5 0.9-0.9 0.8-1.6 1.7-2 2.7l-0.1-0.2c-0.3 0.3-0.5 0.5-0.6 0.8-0.3 0.2-0.5 0.3-0.8 0.4 0.2 0.1 0.4 0.1 0.7 0.2-1.1 0.5-2.2 0.9-3.3 1.3-0.4 0.1-0.8 0.1-1.2 0.2-0.1-0.2-0.2-0.5 0-0.8 0.8-0.8 1.6-1.7 2.3-2.5-0.2-0.1-0.3-0.2-0.2-0.4 0.1 0.1 0.1 0.1 0.2 0.2 0.3-0.2 0.6-0.5 0.7-0.8l0.2 0.1c0-0.2 0.1-0.5 0.3-0.7 1.9-1.2 3.8-2.3 5.8-3.5 0.3-0.2 0.7-0.4 1.1-0.5z"></path><path fill="#145179" d="m13.9 13.6c-0.3 0.3-0.7 0.4-1.1 0.5 0 1.4 0 2.9 0.1 4.4 0.2 0.1 0.4 0.1 0.5-0.2-0.1-0.3-0.1-0.7 0.2-1 0.2 0.2 0.5 0.3 0.8 0.5 0.4-0.1 0.8-0.3 1.1-0.4-0.8 0.6-1.7 1.1-2.7 1.6-0.1-1.7-0.2-3.4-0.2-5.1 0.4-0.1 0.8-0.2 1.3-0.3z"></path><path fill="#939394" d="m30 16.1c0.1 0.2 0 0.4-0.1 0.6 1.3 0 2.6 0 3.9 0.1 0.2 0.5 0.3 0.9 0.4 1.4v1.3c-0.1-0.1-0.2-0.3-0.2-0.5-1.5-0.1-2.9-0.1-4.3 0-0.1 0-0.2-0.1-0.3-0.3 0 0.4-0.1 0.7-0.2 1 0.1-0.8 0-1.4-0.3-2 0.4-0.5 0.8-1.1 1.1-1.6z"></path><path fill="#03a0db" d="m10.9 18.9c0.1 0.5 0 1 0 1.5l-0.4-1c-0.1 0.2-0.2 0.2-0.3 0-0.1 0.3 0 0.5 0.1 0.7 0.2 0 0.3 0.1 0.4 0.1-0.3 0.2-0.5 0.1-0.6-0.1-0.1 0.6-0.3 0.7-0.6 0.1-0.1 0.1-0.2 0.3-0.2 0.4-0.2-0.2-0.4-0.5-0.5-0.8-0.1 0-0.1 0.1-0.2 0.1-0.1 1-0.1 2-0.1 3 0 0.1 0 0.1-0.1 0.1v-3.9c0.1-0.4 0.2-0.9 0.3-1.3 0.6-0.1 1.2-0.1 1.8 0.1-0.1 0.1-0.1 0.3 0 0.4 0.1-0.2 0.2-0.5 0.2-0.8 0.1 0.5 0.1 1 0.2 1.4z"></path><path fill="#006a9d" d="m3.7 16.1h0.1c0 0.1 0 0.2 0.2 0.4 0.1-0.2 0.2-0.2 0.4 0l0.3 0.6c0.1-0.1 0.2-0.2 0.3-0.4 0 0.1 0.1 0.3 0.2 0.4 0.8 0.1 1.5 0.5 2.1 1 0.1-0.1 0.2-0.1 0.2-0.2 0.4 0.3 0.7 0.8 0.9 1.2v2.3c-0.2-0.2-0.3-0.5-0.5-0.8-0.1 0.2-0.2 0.3-0.4 0.2 0.2-0.1 0.1-0.2-0.1-0.3-0.7-0.3-1.4-0.6-2.1-0.8-0.3-0.4-0.6-0.5-1.1-0.4 0.1 0.2 0 0.3 0 0.5-0.3-0.2-0.4-0.5-0.5-0.8v-2.9z"></path><path fill="#919192" d="m30.6 10.9c-0.3 0.3-0.2 0.5 0.1 0.7-0.3 0.4-0.7 0.8-1 1.2 0-0.2-0.1-0.3-0.2-0.5l-0.1 0.1 0.1 0.6c-0.3 0.6-0.7 1-1.3 1.4-0.9 1.4-2 2.7-3.3 3.9l0.3 0.1c-0.2 0.1-0.2 0.3 0 0.4l-0.3 0.1c0.3 0.1 0.6 0 0.8 0-1.8 0.6-3.5 1.3-5.3 2-0.3-0.1-0.5-0.1-0.7-0.2 0.3-0.1 0.5-0.2 0.8-0.4 0.1-0.3 0.3-0.5 0.6-0.8l0.1 0.2c0.4-1 1.1-1.9 2-2.7 0.3-0.3 0.4-0.6 0.5-0.9 0.2 0 0.4 0 0.5-0.1l-0.2-0.1c0.3-0.3 0.6-0.5 0.8-0.9 0.6-0.2 1.1-0.5 1.5-1 0.1-0.1 0-0.2-0.2-0.3 0.1 0 0.1-0.1 0.2-0.2 1.3-1 2.8-1.8 4.3-2.6z"></path><path fill="#b7b8ba" d="m28.9 17.7c0.3 0.6 0.4 1.2 0.3 2v0.4c-0.1 0-0.1 0.1-0.2 0.3 0-0.3-0.2-0.6-0.4-0.7-0.5 0.1-1.1 0.1-1.8 0 0 0.5-0.1 1-0.3 1.5v-2.5h-0.4c0.9-0.4 1.9-0.7 2.8-1z"></path><path fill="#818183" d="m34.2 19.5v1.4c-0.1-0.3-0.3-0.5-0.5-0.7-1.3 0.2-2.6 0.2-4 0-0.1 0.3-0.2 0.5-0.5 0.6v-1.1c0.1-0.3 0.2-0.6 0.2-1 0.1 0.2 0.2 0.3 0.3 0.3 1.4-0.1 2.8-0.1 4.3 0 0 0.2 0.1 0.4 0.2 0.5z"></path><path fill="#025b8c" d="m3.7 19c0.1 0.3 0.2 0.6 0.5 0.8 0-0.2 0.1-0.3 0-0.5 0.5-0.1 0.8 0 1.1 0.4 0.7 0.2 1.4 0.5 2.1 0.8 0.2 0.1 0.3 0.2 0.1 0.3 0.2 0.1 0.3 0 0.4-0.2 0.2 0.3 0.3 0.6 0.5 0.8v0.8c-0.6 0-1.1-0.2-1.5-0.5-0.2 0-0.3 0.1-0.3 0.3-0.3-0.2-0.5-0.5-0.6-0.8l-0.3 0.2c-0.2-0.1-0.5-0.3-0.7-0.4-0.1 0.2-0.2 0.4-0.3 0.6l-0.4-1.2-0.2 0.2c0.1 0.3 0.2 0.6 0.1 1l-0.2-0.2c-0.1 0.2-0.1 0.5-0.2 0.7 0.1 0.2 0 0.3-0.1 0.4v-3.5z"></path><path fill="#a9a9ab" d="m19.4 17.5c-0.2 0.2-0.3 0.5-0.3 0.7l-0.2-0.1c-0.1 0.3-0.4 0.6-0.7 0.8-0.1-0.1-0.1-0.1-0.2-0.2-0.1 0.2 0 0.3 0.2 0.4-0.7 0.8-1.5 1.7-2.3 2.5-0.2 0.3-0.1 0.6 0 0.8 0.4-0.1 0.8-0.1 1.2-0.2-1.5 0.6-3 1.2-4.5 1.8-0.4-0.1-0.8-0.2-1.1-0.4 0.3-0.3 0.7-0.7 1.2-0.9-0.1-0.1-0.1-0.1-0.1-0.2l0.8-0.3c-0.2-0.2-0.2-0.3 0-0.5 0.1 0.1 0.1 0.2 0.2 0.4l0.4-0.6-0.2-0.1c0.5-0.3 0.9-0.6 1.3-1-0.1-0.1-0.1-0.2 0-0.3 1.4-0.9 2.8-1.8 4.3-2.6z"></path><path fill="#a5a5a7" d="m29.2 20.1v0.8c-0.6 0.1-1.2 0.1-1.8 0.3-0.1-0.2-0.3-0.2-0.4 0l-0.1-0.3c-0.1 0.5-0.3 1.1-0.4 1.6v-1.3c0.2-0.5 0.3-1 0.3-1.5 0.7 0.1 1.3 0.1 1.8 0 0.2 0.1 0.4 0.4 0.4 0.7 0.1-0.2 0.1-0.3 0.2-0.3z"></path><path fill="#777779" d="m34.2 20.9c0.1 1.9 0.2 3.7 0.1 5.6-0.1-0.7-0.2-1.5-0.1-2.3 0-0.9 0-1.8-0.2-2.6-0.2 0.1-0.3 0-0.4-0.2-1.3 0.2-2.5 0.2-3.8 0.1-0.2-0.1-0.3-0.3-0.4-0.5 0 0.5-0.1 0.9-0.2 1.4v-1.6c0.3-0.1 0.4-0.3 0.5-0.6 1.4 0.2 2.7 0.2 4 0 0.2 0.2 0.4 0.4 0.5 0.7z"></path><path fill="#10b7f1" d="m10.9 18.5h0.2c0 1 0 2-0.1 3.1-0.8 0.4-1.7 0.8-2.5 1.3 0-1 0-2 0.1-3 0.1 0 0.1-0.1 0.2-0.1 0.1 0.3 0.3 0.6 0.5 0.8 0-0.1 0.1-0.3 0.2-0.4 0.3 0.6 0.5 0.5 0.6-0.1 0.1 0.2 0.3 0.3 0.6 0.1-0.1 0-0.2-0.1-0.4-0.1-0.1-0.2-0.2-0.4-0.1-0.7 0.1 0.2 0.2 0.2 0.3 0l0.4 1c0-0.5 0.1-1 0-1.5v-0.4z"></path><path fill="#024f80" d="m8.4 22.2v0.8c-0.7 0.5-1.5 1-2.3 1.4 0-0.2-0.2-0.4-0.4-0.5l0.4-0.1c-0.3-0.1-0.6-0.3-0.8-0.5 0 0.1 0 0.3-0.2 0.4-0.5-0.4-1-1-1.3-1.6 0.1-0.2 0.1-0.5 0.2-0.7l0.2 0.2c0.1-0.4 0-0.7-0.1-1l0.2-0.2 0.4 1.2c0.1-0.2 0.2-0.4 0.3-0.6 0.2 0.1 0.5 0.3 0.7 0.4l0.3-0.2c0.1 0.3 0.3 0.6 0.6 0.8 0-0.2 0.1-0.3 0.3-0.3 0.4 0.3 0.9 0.5 1.5 0.5z"></path><path fill="#929294" d="m29.2 20.9v1.6c-0.8-0.1-1.6-0.2-2.3-0.3-0.1 0.2-0.2 0.4-0.4 0.4v-0.1c0.1-0.5 0.3-1.1 0.4-1.6l0.1 0.3c0.1-0.2 0.3-0.2 0.4 0 0.6-0.2 1.2-0.2 1.8-0.3z"></path><path fill="#b4b4b6" d="m15.1 20.1c-0.1 0.1-0.1 0.2 0 0.3-0.4 0.4-0.8 0.7-1.3 1l0.2 0.1-0.4 0.6c-0.1-0.2-0.1-0.3-0.2-0.4-0.2 0.2-0.2 0.3 0 0.5l-0.8 0.3c0 0.1 0 0.1 0.1 0.2-0.5 0.2-0.9 0.6-1.2 0.9 0.3 0.2 0.7 0.3 1.1 0.4-1.4 0.6-2.8 1.1-4.2 1.6-0.3 0.1-0.6 0.1-0.9 0.1-0.3-0.5-0.1-0.8 0.4-1-0.2-0.2-0.1-0.2 0.2-0.1l0.3-0.4c0.1 0.1 0.1 0.1 0.2 0.2 0.1-0.2 0.1-0.4 0.2-0.6 2-1.3 4.1-2.6 6.3-3.7z"></path><path fill="#828284" d="m29.2 22.5v1.1c-0.1 0-0.1 0-0.2 0.1l-0.1-0.5-0.2 0.2c-0.1-0.1-0.2-0.1-0.4 0-0.6-0.2-1.2-0.4-1.8-0.6v-0.2c0.2 0 0.3-0.2 0.4-0.4 0.7 0.1 1.5 0.2 2.3 0.3z"></path><path fill="#606062" d="m34.2 24.2c-0.2-0.2-0.4-0.4-0.7-0.6-0.1 0.5-0.2 0.5-0.3 0-0.1 0.3-0.2 0.3-0.3 0-0.2 0.3-0.3 0.3-0.5 0-0.2 0.3-0.4 0.3-0.6 0-0.2 0-0.3 0.1-0.4 0.2-0.3-0.3-0.5-0.3-0.6 0.2-0.2-0.2-0.4-0.3-0.6-0.3-0.3 0.1-0.6 0.1-0.8 0.1v0.4c-0.4 0.1-0.6 0.2-0.9 0.4l-0.6 0.3c-0.8-1.6-0.4-1.9 1.2-0.8 0.1-0.1 0.2-0.3 0.1-0.5v-1.2c0.1-0.5 0.2-0.9 0.2-1.4 0.1 0.2 0.2 0.4 0.4 0.5 1.3 0.1 2.5 0.1 3.8-0.1 0.1 0.2 0.2 0.3 0.4 0.2 0.2 0.8 0.2 1.7 0.2 2.6z"></path><path fill="#7e7f80" d="m26.3 22.9c-0.2 0.2-0.2 0.3 0.1 0.3-0.1 0.1-0.1 0.2-0.1 0.2 0 0.5 0.1 0.9 0.4 1.3-0.1 0.1-0.1 0.1-0.2 0.2l0.4 0.3c-0.2 0.2-0.1 0.3 0.2 0.3l-0.6 0.4c-0.2 0-0.4 0.1-0.5 0.2-0.2 0.1-0.4 0.1-0.5 0.1-0.1-0.5-0.1-1.1 0-1.6-0.6-0.1-0.7-0.2-0.2-0.3-0.1 0-0.2-0.1-0.2-0.2 0.1-0.2 0.1-0.3 0.1-0.5 0.3 0 0.5-0.2 0.5-0.4 0.2-0.2 0.3-0.3 0.6-0.3z"></path><path fill="#6f6f71" d="m26.5 22.8c0.6 0.2 1.2 0.4 1.8 0.6 0.2-0.1 0.3-0.1 0.4 0l0.2-0.2 0.1 0.5c0.1-0.1 0.1-0.1 0.2-0.1 0.1 0.2 0 0.4-0.1 0.5-1.6-1.1-2-0.8-1.2 0.8-0.3 0.2-0.6 0.4-0.8 0.6-0.3 0-0.4-0.1-0.2-0.3l-0.4-0.3c0.1-0.1 0.1-0.1 0.2-0.2-0.3-0.4-0.4-0.8-0.4-1.3 0 0 0-0.1 0.1-0.2-0.3 0-0.3-0.1-0.1-0.3l0.2-0.1z"></path><path fill="#0e436f" d="m3.8 22.1c0.3 0.6 0.8 1.2 1.3 1.6 0.2-0.1 0.2-0.3 0.2-0.4 0.2 0.2 0.5 0.4 0.8 0.5l-0.4 0.1c0.2 0.1 0.4 0.3 0.4 0.5-0.6 0.4-1.2 0.8-1.7 1.2-0.2 0-0.4 0.1-0.6 0.3-0.1-0.8-0.2-1.6-0.1-2.3v-1.1c0.1-0.1 0.2-0.2 0.1-0.4z"></path><path fill="#4d4d4e" d="m34.2 24.2c-0.1 0.8 0 1.6 0.1 2.3v0.2c-1.3-0.6-2.5-1.1-3.7-1.8-0.5-0.2-0.9-0.4-1.2-0.7v-0.4c0.2 0 0.5 0 0.8-0.1 0.2 0 0.4 0.1 0.6 0.3 0.1-0.5 0.3-0.5 0.6-0.2 0.1-0.1 0.2-0.2 0.4-0.2 0.2 0.3 0.4 0.3 0.6 0 0.2 0.3 0.3 0.3 0.5 0 0.1 0.3 0.2 0.3 0.3 0 0.1 0.5 0.2 0.5 0.3 0 0.3 0.2 0.5 0.4 0.7 0.6z"></path><path fill="#c2c2c4" d="m8.8 23.8c-0.1 0.2-0.1 0.4-0.2 0.6-0.1-0.1-0.1-0.1-0.2-0.2l-0.3 0.4c-0.3-0.1-0.4-0.1-0.2 0.1-0.5 0.2-0.7 0.5-0.4 1 0.3 0 0.6 0 0.9-0.1-1.6 0.8-3.3 1.4-5 1.9 0-0.3 0-0.5 0.2-0.6 0.7-0.5 1.5-0.9 2.2-1.3 1-0.7 2-1.2 3-1.8z"></path><path fill="#5bbfe2" d="m13.4 24.9c-0.5 0.3-1 0.5-1.5 0.7-0.1 0.1-0.2 0.1-0.2 0.3-0.2-0.2-0.4-0.2-0.6 0h-0.3c0.8-0.5 1.7-0.8 2.6-1z"></path><path fill="#a9a9ab" d="m28.5 24.6c0.3 0.4 0.2 0.5-0.2 0.3-0.1 0.1-0.2 0.1-0.3 0.2 0.7 0.2 0.7 0.5 0 0.7 0.2 0.3 0.3 0.6 0.5 0.9-0.2 0.2-0.1 0.3 0.2 0.4l-0.2 0.2 0.5 0.6c0.1 0.5 0.2 0.9 0.5 1.3-0.2 0.1-0.4 0.2-0.6 0.4 0.2 0 0.3 0.1 0.3 0.2-0.3 0.3-0.6 0.5-1.1 0.6 0-0.1-0.1-0.1-0.2-0.2l0.2-0.1c-0.3-1.2-0.8-2.2-1.3-3.2 0.1-0.2 0.2-0.3 0.1-0.5-0.4 0-0.6-0.2-0.4-0.5l0.6-0.4c0.2-0.2 0.5-0.4 0.8-0.6l0.6-0.3z"></path><path fill="#c3c3c5" d="m30.6 24.9c1.2 0.7 2.4 1.2 3.7 1.8-1 0.6-2 1.2-3.1 1.8-0.1-0.2-0.2-0.4-0.5-0.6l0.1-0.4c-0.3-0.7-0.6-1.4-1-2 0.2-0.1 0.4-0.1 0.6 0.1l0-0.1c-0.7-0.3-0.6-0.5 0.2-0.6z"></path><path fill="#119ed6" d="m15.2 25.2c-0.3 0-0.6-0.1-0.8-0.3-0.4 0.1-0.5 0.2-0.4 0.5-0.3 0.5-0.8 1-1.3 1.4-0.4-0.2-0.8-0.4-1.2-0.5-0.2-0.1-0.3-0.3-0.4-0.4 0.2-0.2 0.4-0.2 0.6 0 0-0.2 0.1-0.2 0.2-0.3 0.5-0.2 1-0.4 1.5-0.7 0.2-0.2 0.5-0.3 0.8-0.4 0.4 0.3 0.7 0.5 1 0.7z"></path><path fill="#acadae" d="m23.7 24.4c-0.3 1-0.3 1.9 0 2.9-0.1 0.2-0.2 0.3-0.4 0.4-0.4 0.3-0.8 0.5-1.2 0.8h-0.1c-0.2-0.1-0.3-0.2-0.4-0.4l0.1-0.2c-0.1-0.4-0.2-0.9-0.2-1.4-0.3-0.1-0.3-0.2 0.1-0.3l-0.3-0.1c0.2-0.1 0.3-0.3 0.4-0.5 0.6-0.4 1.3-0.9 2-1.2z"></path><path fill="#b3b4b6" d="m29.4 24.2c0.3 0.3 0.7 0.5 1.2 0.7-0.8 0.1-0.9 0.3-0.2 0.6l0 0.1c-0.2-0.2-0.4-0.2-0.6-0.1 0.4 0.6 0.7 1.3 1 2l-0.1 0.4c0.3 0.2 0.4 0.4 0.5 0.6-0.6 0.5-1.3 0.9-2 1.3 0-0.1-0.1-0.2-0.3-0.2 0.2-0.2 0.4-0.3 0.6-0.4-0.3-0.4-0.4-0.8-0.5-1.3l-0.5-0.6 0.2-0.2c-0.3-0.1-0.4-0.2-0.2-0.4-0.2-0.3-0.3-0.6-0.5-0.9 0.7-0.2 0.7-0.5 0-0.7 0.1-0.1 0.2-0.1 0.3-0.2 0.4 0.2 0.5 0.1 0.2-0.3 0.3-0.2 0.5-0.3 0.9-0.4z"></path><path fill="#0687be" d="m15.2 25.2c0.4 0.1 0.7 0.2 1 0.5-0.3 0-0.6 0.1-0.8 0.4-0.1 0.4-0.3 0.7-0.6 1-0.2 0.1-0.5 0.2-0.8 0.2-0.5 0-0.9-0.2-1.3-0.5 0.5-0.4 1-0.9 1.3-1.4-0.1-0.3 0-0.4 0.4-0.5 0.2 0.2 0.5 0.3 0.8 0.3z"></path><path fill="#939395" d="m25.7 23.2c0 0.2-0.2 0.4-0.5 0.4 0 0.2 0 0.3-0.1 0.5 0 0.1 0.1 0.2 0.2 0.2-0.5 0.1-0.4 0.2 0.2 0.3-0.1 0.5-0.1 1.1 0 1.6 0.1 0 0.3 0 0.5-0.1-0.4 0.3-0.8 0.6-1.2 0.8 0.4 1.1 0.9 2.1 1.3 3.1-0.1 0.5 0.1 0.8 0.7 0.9-0.3 0.3-0.6 0.6-0.8 0.9-0.2 0.1-0.4 0.2-0.5 0.4 0.2-0.8 0-1.5-0.6-2.1l0.2-0.1c-0.2-0.3-0.4-0.6-0.6-0.9l0.1-0.3c-0.2-0.3-0.4-0.7-0.6-1l0.1-0.1c-0.3-0.1-0.5 0-0.8 0 0.2-0.1 0.3-0.2 0.4-0.4-0.3-1-0.3-1.9 0-2.9 0.7-0.5 1.3-0.9 2-1.2z"></path><path fill="#cdcecf" d="m21.7 25.6c-0.1 0.2-0.2 0.4-0.4 0.5l0.3 0.1c-0.4 0.1-0.4 0.2-0.1 0.3 0 0.5 0.1 1 0.2 1.4l-0.1 0.2c0.1 0.2 0.2 0.3 0.4 0.4-0.5 0.3-1 0.6-1.4 1-0.5 0.2-1 0.5-1.5 0.8-0.1-1-0.1-2.1-0.1-3.1 0.9-0.6 1.8-1.1 2.7-1.6z"></path><path fill="#9b9b9c" d="m26.5 25.9c-0.2 0.3 0 0.5 0.4 0.5 0.1 0.2 0 0.3-0.1 0.5 0.5 1 1 2 1.3 3.2l-0.2 0.1c0.1 0.1 0.2 0.1 0.2 0.2-0.6 0.6-1.3 1.1-2.1 1.4 0.2-0.3 0.5-0.6 0.8-0.9-0.6-0.1-0.8-0.4-0.7-0.9-0.4-1-0.9-2-1.3-3.1 0.4-0.2 0.8-0.5 1.2-0.8 0.1-0.1 0.3-0.2 0.5-0.2z"></path><path fill="#2297c9" d="m10.7 25.9c-0.3 0.2-0.6 0.4-1 0.5-0.2 0.2-0.3 0.4-0.5 0.6 0.2 0.2 0.1 0.4-0.3 0.3v-0.4h-0.9c0 0.3 0 0.5 0.3 0.6-0.2 0.2-0.3 0.3-0.5 0.4-0.1 0.3-0.2 0.5-0.4 0.8-0.2-0.2-0.3-0.2-0.5 0 0.1 0.1 0.1 0.2 0.2 0.4-0.8-0.3-1.4-0.7-2.1-1.2 1.9-0.7 3.8-1.4 5.7-2z"></path><path fill="#035c8d" d="m17 26.3h0.1c0.3 0.1 0.6 0.2 0.8 0.4 0.1 0.2 0.3 0.4 0.4 0.6-0.1 0.1-0.2 0-0.3-0.1-0.1 0.2-0.2 0.4-0.3 0.7-0.1 0.1-0.3 0.1-0.4 0.2l0.1 0.1c-0.4 0.1-0.5 0.4-0.5 0.7-0.4 0.1-0.7 0.2-1 0.5 0.1 0.1 0.3 0.1 0.4 0.1v0.5c-0.2 0-0.3 0-0.4 0.2 0 0.9-0.2 1.8-0.9 2.5 0 0.2 0 0.4 0 0.5 0.5 0 0.8 0.3 0.6 0.8 0.3 0.1 0.4 0 0.6-0.2l0.1 0.2c-0.1 0.1-0.1 0.2-0.2 0.3-0.8-0.3-1.5-0.7-2.2-1.2-0.2-0.2-0.1-0.3 0.1-0.3-0.2-0.2-0.5-0.3-0.8-0.4v-0.6h0.4v-0.4c-0.4 0-0.4-0.1-0.1-0.2-0.3-0.2-0.3-0.3 0.1-0.5l0.1 0.4c0.1-0.4 0.3-0.8 0.5-1.1 0.1-0.2 0.1-0.5 0-0.8 0.2-0.3 0.4-0.6 0.5-0.9 0.5 0.1 0.9 0.1 1.4 0 0.2-0.4 0.5-0.8 0.9-1-0.4-0.2-0.4-0.4 0-0.6-0.1-0.1-0.1-0.3 0-0.4z"></path><path fill="#0c85bb" d="m10.7 25.9h0.4c0.1 0.1 0.2 0.3 0.4 0.4-0.2 0.2-0.4 0.5-0.6 0.8 0.1 0.1 0.2 0.1 0.3 0.2-0.4 0.2-0.6 0.5-0.4 0.9-0.3 0.8-0.6 1.4-0.9 2 0.3 0.2 0.6 0.3 1 0.1 0 0.2 0.1 0.3 0.2 0.5-0.1 0.1-0.2 0.3-0.3 0.4-1.1-0.5-2.2-1.1-3.2-1.6-0.2-0.2-0.4-0.3-0.5-0.5-0.1-0.2-0.1-0.3-0.2-0.4 0.2-0.2 0.3-0.2 0.5 0 0.2-0.3 0.3-0.5 0.4-0.8 0.2-0.1 0.3-0.2 0.5-0.4-0.3-0.1-0.3-0.3-0.3-0.6h0.9v0.4c0.4 0.1 0.5-0.1 0.3-0.3 0.2-0.2 0.3-0.4 0.5-0.6 0.4-0.1 0.7-0.3 1-0.5z"></path><path fill="#01679b" d="m17 26.3c-0.1 0.1-0.1 0.3 0 0.4-0.4 0.2-0.4 0.4 0 0.6-0.4 0.2-0.7 0.6-0.9 1-0.5 0.1-0.9 0.1-1.4 0-0.1 0.3-0.3 0.6-0.5 0.9 0.1 0.3 0.1 0.6 0 0.8-0.2 0.3-0.4 0.7-0.5 1.1l-0.1-0.4c-0.4 0.2-0.4 0.3-0.1 0.5-0.3 0.1-0.3 0.2 0.1 0.2v0.4h-0.4v0.6c0.3 0.1 0.6 0.2 0.8 0.4-0.2 0-0.3 0.1-0.1 0.3-0.2 0-0.3-0.1-0.4-0.3-0.3-0.2-0.5-0.5-0.8-0.8 0.1-0.2 0-0.4-0.3-0.5-0.1 0-0.1 0.1-0.2 0.1 0-0.2-0.2-0.3-0.3-0.4 0.3-0.3 0.5-0.5 0.8-0.8-0.7-0.2-0.7-0.3 0-0.5 0.1-0.6 0.3-1.2 0.7-1.8-0.3-0.3-0.2-0.5 0.2-0.6 0.5 0.1 0.9 0.3 1.4 0.5 0.3-0.2 0.5-0.5 0.6-0.9 0.4-0.1 0.8-0.3 1-0.6-0.2-0.1-0.3-0.1-0.4-0.2 0.2-0.2 0.5-0.2 0.8 0z"></path><path fill="#034e7f" d="m17.9 26.7l1 0.5v0.4c-0.2 0.8-0.3 1.6-0.5 2.4-0.2-0.2-0.2-0.4-0.1-0.6-0.2-0.3-0.3-0.2-0.4 0.1 0.1 0.3 0.3 0.7 0.4 1 0 1-0.3 2-0.7 3l-0.1-0.1c-0.1 0.3-0.2 0.5-0.4 0.8 0.2 0.1 0.4 0.2 0.6 0.3h-0.6c0.3 0.5 0.6 0.6 1.1 0.5 0.2 0.1 0.3 0.2 0.5 0.3-0.1 0.2-0.1 0.3 0.1 0.4 0-0.3 0.1-0.5 0.2-0.7v0.9h-0.4c-0.9-0.5-1.7-1-2.5-1.6 0.1-0.1 0.1-0.2 0.2-0.3l-0.1-0.2c-0.2 0.2-0.3 0.3-0.6 0.2 0.2-0.5-0.1-0.8-0.6-0.8 0-0.1 0-0.3 0-0.5 0.7-0.7 0.9-1.6 0.9-2.5 0.1-0.2 0.2-0.2 0.4-0.2v-0.5c-0.1 0-0.3 0-0.4-0.1 0.3-0.3 0.6-0.4 1-0.5 0-0.3 0.1-0.6 0.5-0.7l-0.1-0.1c0.1-0.1 0.3-0.1 0.4-0.2 0.1-0.3 0.2-0.5 0.3-0.7 0.1 0.1 0.2 0.2 0.3 0.1-0.1-0.2-0.3-0.4-0.4-0.6z"></path><path fill="#0672a6" d="m16.2 25.7c0.4 0.1 0.7 0.3 0.9 0.6h-0.1c-0.3-0.2-0.6-0.2-0.8 0 0.1 0.1 0.2 0.1 0.4 0.2-0.2 0.3-0.6 0.5-1 0.6-0.1 0.4-0.3 0.7-0.6 0.9-0.5-0.2-0.9-0.4-1.4-0.5-0.4 0.1-0.5 0.3-0.2 0.6-0.4 0.6-0.6 1.2-0.7 1.8-0.7 0.2-0.7 0.3 0 0.5-0.3 0.3-0.5 0.5-0.8 0.8 0.1 0.1 0.3 0.2 0.3 0.4 0.1 0 0.1-0.1 0.2-0.1 0.3 0.1 0.4 0.3 0.3 0.5 0.3 0.3 0.5 0.6 0.8 0.8-1-0.4-1.9-0.9-2.7-1.6 0.1-0.1 0.2-0.3 0.3-0.4-0.1-0.2-0.2-0.3-0.2-0.5-0.4 0.2-0.7 0.1-1-0.1 0.3-0.6 0.6-1.2 0.9-2-0.2-0.4 0-0.7 0.4-0.9-0.1-0.1-0.2-0.1-0.3-0.2 0.2-0.3 0.4-0.6 0.6-0.8 0.4 0.1 0.8 0.3 1.2 0.5 0.4 0.3 0.8 0.5 1.3 0.5 0.3 0 0.6-0.1 0.8-0.2 0.3-0.3 0.5-0.6 0.6-1 0.2-0.3 0.5-0.4 0.8-0.4z"></path><path fill="#878789" d="m25.5 32.2c-0.7 0.5-1.5 1-2.3 1.3 0-0.1-0.1-0.1-0.2-0.2 0.3-0.2 0.4-0.4 0.6-0.7 0.2 0.1 0.4 0.1 0.6-0.1-0.5-0.7-1-1.5-1.3-2.4 0.1-0.1 0.1-0.1 0.1-0.2-0.2-0.4-0.4-0.8-0.4-1.2-0.2-0.1-0.3-0.2-0.5-0.2 0.4-0.3 0.8-0.5 1.2-0.8 0.3 0 0.5-0.1 0.8 0l-0.1 0.1c0.2 0.3 0.4 0.7 0.6 1l-0.1 0.3c0.2 0.3 0.4 0.6 0.6 0.9l-0.2 0.1c0.6 0.6 0.8 1.3 0.6 2.1z"></path><path fill="#7b7b7c" d="m22 28.5h0.1c0.2 0 0.3 0.1 0.5 0.2 0 0.4 0.2 0.8 0.4 1.2 0 0.1 0 0.1-0.1 0.2 0.3 0.9 0.8 1.7 1.3 2.4-0.2 0.2-0.4 0.2-0.6 0.1-0.2 0.3-0.3 0.5-0.6 0.7 0.1 0.1 0.2 0.1 0.2 0.2-0.2 0.3-0.4 0.4-0.7 0.4 0-0.3 0.1-0.5 0.4-0.6-0.5-0.7-1-1.4-1.5-2.1 0.1-0.1 0.1-0.2 0.2-0.2-0.4-0.4-0.6-0.9-0.5-1.4-0.2 0.2-0.4 0.3-0.6 0.2 0.1-0.1 0.2-0.2 0.4-0.2-0.1-0.1-0.2-0.1-0.3-0.1 0.4-0.4 0.9-0.7 1.4-1z"></path><path fill="#024270" d="m18.9 27.6c-0.1 1 0 1.9 0.1 2.8v4.6c-0.1 0.2-0.2 0.4-0.2 0.7-0.2-0.1-0.2-0.2-0.1-0.4-0.2-0.1-0.3-0.2-0.5-0.3-0.5 0.1-0.8 0-1.1-0.5h0.6c-0.2-0.1-0.4-0.2-0.6-0.3 0.2-0.3 0.3-0.5 0.4-0.8l0.1 0.1c0.4-1 0.7-2 0.7-3-0.1-0.3-0.3-0.7-0.4-1 0.1-0.3 0.2-0.4 0.4-0.1-0.1 0.2-0.1 0.4 0.1 0.6 0.2-0.8 0.3-1.6 0.5-2.4z"></path><path fill="#616264" d="m19 30.4c0.2 0.3 0.6 0.5 0.9 0.5l-0.2 0.1c0.5 1 0.9 2 1.3 2.9l0.2-0.3c0.1 0.3 0.1 0.6 0.1 0.9-0.3 0-0.5 0-0.7 0.2 0.2 0 0.3 0.1 0.3 0.3-0.4 0.2-0.8 0.5-1.2 0.7-0.1 0-0.2 0.1-0.2 0.2h-0.5v-5.5z"></path><path fill="#6d6f72" d="m18.9 27.2h0.1c0 1 0 2.1 0.1 3.1 0.5-0.3 1-0.6 1.5-0.8 0.1 0 0.2 0 0.3 0.1-0.2 0-0.3 0.1-0.4 0.2 0.2 0.1 0.4 0 0.6-0.2-0.1 0.5 0.1 1 0.5 1.4-0.1 0-0.1 0.1-0.2 0.2 0.5 0.7 1 1.4 1.5 2.1-0.3 0.1-0.4 0.3-0.4 0.6-0.5 0.4-1.1 0.7-1.6 1.1 0-0.2-0.1-0.3-0.3-0.3 0.2-0.2 0.4-0.2 0.7-0.2 0-0.3 0-0.6-0.1-0.9l-0.2 0.3c-0.4-0.9-0.8-1.9-1.3-2.9l0.2-0.1c-0.3 0-0.7-0.2-0.9-0.5-0.1-0.9-0.2-1.8-0.1-2.8v-0.4z"></path></svg>