<svg xmlns="http://www.w3.org/2000/svg" version="1.1" width="320px" height="320px" style="shape-rendering:geometricPrecision; text-rendering:geometricPrecision; image-rendering:optimizeQuality; fill-rule:evenodd; clip-rule:evenodd" xmlns:xlink="http://www.w3.org/1999/xlink">
<g><path style="opacity:1" fill="#fefefe" d="M -0.5,-0.5 C 106.167,-0.5 212.833,-0.5 319.5,-0.5C 319.5,106.167 319.5,212.833 319.5,319.5C 212.833,319.5 106.167,319.5 -0.5,319.5C -0.5,212.833 -0.5,106.167 -0.5,-0.5 Z"/></g>
<g><path style="opacity:1" fill="#0b0b0b" d="M 145.5,37.5 C 197.349,35.1692 236.849,55.8358 264,99.5C 282.29,135.974 283.29,172.974 267,210.5C 239.529,260.157 197.362,282.323 140.5,277C 99.1957,269.354 69.029,246.854 50,209.5C 28.4054,155.96 37.9054,108.793 78.5,68C 98.1154,51.8589 120.449,41.6922 145.5,37.5 Z"/></g>
<g><path style="opacity:1" fill="#f9f9f9" d="M 264.5,138.5 C 264.596,144.373 265.263,150.04 266.5,155.5C 264.361,210.633 237.028,246.467 184.5,263C 135.542,272.357 96.7086,256.857 68,216.5C 44.1416,176.092 44.8083,136.092 70,96.5C 103.977,53.4017 147.143,40.5683 199.5,58C 234.978,73.6477 256.644,100.481 264.5,138.5 Z"/></g>
<g><path style="opacity:1" fill="#0d0d0d" d="M 170.5,57.5 C 185.107,59.0912 198.774,63.5912 211.5,71C 214.909,73.0339 217.909,75.5339 220.5,78.5C 218.183,81.3174 215.683,83.9841 213,86.5C 200.758,76.9641 186.924,71.1308 171.5,69C 170.54,65.27 170.207,61.4367 170.5,57.5 Z"/></g>
<g><path style="opacity:1" fill="#0c0c0c" d="M 141.5,57.5 C 143.167,57.5 144.833,57.5 146.5,57.5C 146.5,61.5 146.5,65.5 146.5,69.5C 130.6,70.9637 116.434,76.6304 104,86.5C 101.317,83.9841 98.8167,81.3174 96.5,78.5C 102.111,73.3526 108.445,69.1859 115.5,66C 124.077,62.5306 132.744,59.6973 141.5,57.5 Z"/></g>
<g><path style="opacity:1" fill="#050505" d="M 166.5,83.5 C 166.5,96.5 166.5,109.5 166.5,122.5C 171.071,123.197 175.404,124.364 179.5,126C 188.34,116.481 197.674,107.815 207.5,100C 210.545,103.507 213.545,107.007 216.5,110.5C 208.181,119.319 199.681,127.986 191,136.5C 191.316,140.131 192.482,143.465 194.5,146.5C 194.5,147.833 194.5,149.167 194.5,150.5C 207.5,150.5 220.5,150.5 233.5,150.5C 233.5,155.5 233.5,160.5 233.5,165.5C 220.124,164.852 207.124,165.519 194.5,167.5C 192.801,171.423 191.634,175.423 191,179.5C 199.877,188.042 208.377,196.875 216.5,206C 214.652,209.013 212.318,211.513 209.5,213.5C 208.293,212.811 206.959,212.645 205.5,213C 197.5,205 189.5,197 181.5,189C 180.563,188.308 179.897,188.475 179.5,189.5C 175.424,191.636 171.09,192.97 166.5,193.5C 166.5,206.833 166.5,220.167 166.5,233.5C 161.167,233.5 155.833,233.5 150.5,233.5C 150.832,220.483 150.499,207.483 149.5,194.5C 145.5,192.652 141.5,191.152 137.5,190C 128.667,198.833 119.833,207.667 111,216.5C 107.5,213 104,209.5 100.5,206C 109.374,196.627 118.374,187.461 127.5,178.5C 125.275,174.719 123.609,170.719 122.5,166.5C 109.517,165.501 96.5171,165.168 83.5,165.5C 83.5,160.5 83.5,155.5 83.5,150.5C 96.5,150.5 109.5,150.5 122.5,150.5C 122.799,145.634 124.466,141.301 127.5,137.5C 127.376,136.893 127.043,136.56 126.5,136.5C 126.611,135.883 126.944,135.383 127.5,135C 118.965,126.298 110.298,117.798 101.5,109.5C 104.462,106.036 107.629,102.703 111,99.5C 119.833,108.333 128.667,117.167 137.5,126C 141.772,124.63 146.106,123.13 150.5,121.5C 151.495,109.011 151.829,96.3443 151.5,83.5C 156.5,83.5 161.5,83.5 166.5,83.5 Z"/></g>
<g><path style="opacity:1" fill="#6c6c6c" d="M 166.5,83.5 C 161.5,83.5 156.5,83.5 151.5,83.5C 151.829,96.3443 151.495,109.011 150.5,121.5C 150.5,108.5 150.5,95.5 150.5,82.5C 156.026,82.1786 161.36,82.5119 166.5,83.5 Z"/></g>
<g><path style="opacity:1" fill="#0b0b0b" d="M 69.5,145.5 C 65.351,146.08 61.6843,145.414 58.5,143.5C 60.6796,125.478 67.5129,109.478 79,95.5C 81.6833,98.0159 84.1833,100.683 86.5,103.5C 77.5194,116.132 71.8527,130.132 69.5,145.5 Z"/></g>
<g><path style="opacity:1" fill="#0c0c0c" d="M 237.5,95.5 C 250.199,109.586 257.533,126.252 259.5,145.5C 255.5,145.5 251.5,145.5 247.5,145.5C 245.834,130.005 240.167,116.171 230.5,104C 232.668,101.002 235.001,98.1686 237.5,95.5 Z"/></g>
<g><path style="opacity:1" fill="#292929" d="M 101.5,109.5 C 110.298,117.798 118.965,126.298 127.5,135C 126.944,135.383 126.611,135.883 126.5,136.5C 117.548,128.215 108.881,119.548 100.5,110.5C 100.624,109.893 100.957,109.56 101.5,109.5 Z"/></g>
<g><path style="opacity:1" fill="#8d8d8d" d="M 58.5,143.5 C 61.6843,145.414 65.351,146.08 69.5,145.5C 65.7016,146.483 61.7016,146.817 57.5,146.5C 57.2627,145.209 57.596,144.209 58.5,143.5 Z"/></g>
<g><path style="opacity:1" fill="#afafaf" d="M 264.5,138.5 C 266.117,143.916 266.784,149.583 266.5,155.5C 265.263,150.04 264.596,144.373 264.5,138.5 Z"/></g>
<g><path style="opacity:1" fill="#b7b7b7" d="M 194.5,146.5 C 196.648,146.389 196.981,147.056 195.5,148.5C 208.483,149.499 221.483,149.832 234.5,149.5C 234.5,155.167 234.5,160.833 234.5,166.5C 221.087,166.186 207.754,166.519 194.5,167.5C 207.124,165.519 220.124,164.852 233.5,165.5C 233.5,160.5 233.5,155.5 233.5,150.5C 220.5,150.5 207.5,150.5 194.5,150.5C 194.5,149.167 194.5,147.833 194.5,146.5 Z"/></g>
<g><path style="opacity:1" fill="#a3a3a3" d="M 69.5,170.5 C 65.8333,170.5 62.1667,170.5 58.5,170.5C 58.5,171.833 58.5,173.167 58.5,174.5C 57.5489,173.081 57.2155,171.415 57.5,169.5C 61.7016,169.183 65.7016,169.517 69.5,170.5 Z"/></g>
<g><path style="opacity:1" fill="#0b0b0b" d="M 69.5,170.5 C 71.7065,185.747 77.3732,199.58 86.5,212C 84.3851,215.118 81.8851,217.952 79,220.5C 68.1047,207.037 61.2714,191.704 58.5,174.5C 58.5,173.167 58.5,171.833 58.5,170.5C 62.1667,170.5 65.8333,170.5 69.5,170.5 Z"/></g>
<g><path style="opacity:1" fill="#0d0d0d" d="M 247.5,170.5 C 251.555,170.176 255.555,170.509 259.5,171.5C 256.587,189.651 249.587,205.984 238.5,220.5C 235.5,218.167 232.833,215.5 230.5,212.5C 239.676,199.982 245.343,185.982 247.5,170.5 Z"/></g>
<g><path style="opacity:1" fill="#272727" d="M 209.5,213.5 C 208.746,215.446 207.412,216.279 205.5,216C 196.576,207.245 187.91,198.411 179.5,189.5C 179.897,188.475 180.563,188.308 181.5,189C 189.5,197 197.5,205 205.5,213C 206.959,212.645 208.293,212.811 209.5,213.5 Z"/></g>
<g><path style="opacity:1" fill="#0a0a0a" d="M 171.5,258.5 C 171.016,254.173 171.682,250.173 173.5,246.5C 187.858,244.07 201.025,238.736 213,230.5C 216.118,232.615 218.952,235.115 221.5,238C 206.674,249.222 190.007,256.056 171.5,258.5 Z"/></g>
<g><path style="opacity:1" fill="#0d0d0d" d="M 103.5,230.5 C 110.622,234.563 117.955,238.396 125.5,242C 132.382,244.351 139.382,246.184 146.5,247.5C 146.5,251.167 146.5,254.833 146.5,258.5C 127.679,256.84 111.012,250.006 96.5,238C 98.3612,234.975 100.694,232.475 103.5,230.5 Z"/></g>
<g><path style="opacity:1" fill="#666666" d="M 173.5,246.5 C 171.682,250.173 171.016,254.173 171.5,258.5C 170.517,254.702 170.183,250.702 170.5,246.5C 171.5,246.5 172.5,246.5 173.5,246.5 Z"/></g>
</svg>
