<svg xmlns="http://www.w3.org/2000/svg" width="192" height="192" viewBox="0 0 192 192" version="1.1">
	<path fill-opacity="0.290" d="M 77.633 1.488 C 41.831 8.940, 14.120 34.385, 3.327 69.718 C 0.871 77.760, 0.643 79.932, 0.629 95.500 C 0.616 109.968, 0.942 113.692, 2.817 120.500 C 11.804 153.130, 36.823 178.625, 69.718 188.673 C 77.760 191.129, 79.932 191.357, 95.500 191.371 C 109.968 191.384, 113.692 191.058, 120.500 189.183 C 147.024 181.878, 169.782 163.258, 182.105 138.782 C 186.229 130.590, 191 115.661, 191 110.947 C 191 109.391, 191.450 107.840, 192 107.500 C 192.577 107.144, 193 101.803, 193 94.882 C 193 87.137, 192.645 83.101, 192 83.500 C 191.439 83.846, 191 83.064, 191 81.719 C 191 76.923, 186.886 63.303, 182.950 55.072 C 170.933 29.934, 149.150 11.382, 122.282 3.401 C 111.256 0.126, 88.797 -0.836, 77.633 1.488 M 0.385 96 C 0.385 102.875, 0.545 105.688, 0.740 102.250 C 0.936 98.813, 0.936 93.188, 0.740 89.750 C 0.545 86.313, 0.385 89.125, 0.385 96" stroke="none" fill="black" fill-rule="evenodd"/>
	<path fill-opacity="0.155" d="M 78.500 1.411 C 41.751 8.522, 12.694 35.644, 2.874 72.001 C -0.457 84.335, -0.483 107.752, 2.821 119.933 C 12.055 153.974, 38.025 179.949, 72.001 189.126 C 84.335 192.457, 107.752 192.483, 119.933 189.179 C 148.152 181.524, 171.328 162.051, 183.453 135.807 C 186.914 128.318, 191 114.150, 191 109.642 C 191 108.254, 191.450 106.840, 192 106.500 C 192.569 106.149, 193 101.137, 193 94.882 C 193 87.803, 192.644 84.102, 192 84.500 C 191.422 84.857, 191 83.906, 191 82.247 C 191 77.572, 187.106 64.099, 183.497 56.288 C 171.302 29.892, 147.903 10.237, 119.999 2.950 C 109.315 0.160, 88.883 -0.598, 78.500 1.411 M 75.733 51.766 L 55.986 71.533 63.759 79.260 L 71.531 86.987 91.499 67.001 L 111.466 47.016 104.008 39.508 C 99.906 35.379, 96.310 32, 96.016 32 C 95.722 32, 86.595 40.895, 75.733 51.766 M 88.227 88.273 L 55.982 120.529 63.755 128.256 L 71.528 135.984 103.773 103.727 L 136.018 71.471 128.245 63.744 L 120.472 56.016 88.227 88.273 M 38.992 88.509 L 31.533 96.017 39.267 103.750 L 47 111.484 54.733 103.750 L 62.467 96.017 55.008 88.509 C 50.906 84.379, 47.303 81, 47 81 C 46.697 81, 43.094 84.379, 38.992 88.509 M 112.501 112.999 L 80.514 144.998 88.260 152.744 L 96.006 160.490 128.240 128.257 L 160.473 96.023 153.012 88.512 C 148.908 84.380, 145.311 81, 145.019 81 C 144.727 81, 130.094 95.400, 112.501 112.999 M 0.378 96 C 0.378 102.325, 0.541 104.912, 0.739 101.750 C 0.937 98.587, 0.937 93.412, 0.739 90.250 C 0.541 87.087, 0.378 89.675, 0.378 96" stroke="none" fill="black" fill-rule="evenodd"/>
	<path fill-opacity="0.196" d="M 79.342 1.479 C 66.427 3.823, 52.455 9.549, 41.303 17.070 C 33.282 22.478, 18.949 37.872, 13.620 46.800 C -1.323 71.835, -3.983 103.894, 6.645 130.871 C 13.931 149.366, 30.052 168.460, 46.757 178.380 C 71.938 193.332, 103.895 195.982, 130.871 185.355 C 149.366 178.069, 168.460 161.948, 178.380 145.243 C 184.081 135.642, 189.720 119.973, 190.639 111.179 C 190.994 107.780, 191.671 105, 192.142 105 C 192.614 105, 193 100.725, 193 95.500 C 193 89.833, 192.596 86, 192 86 C 191.450 86, 190.993 84.763, 190.985 83.250 C 190.941 75.049, 185.281 58.884, 178.122 46.513 C 171.869 35.708, 156.431 20.264, 145.243 13.620 C 125.939 2.157, 100.963 -2.444, 79.342 1.479 M 76.009 51.491 L 55.534 71.984 62.992 79.492 C 67.094 83.621, 70.915 87, 71.484 87 C 72.053 87, 81.511 78, 92.501 66.999 L 112.483 46.998 104.483 38.998 L 96.483 30.998 76.009 51.491 M 87.744 87.756 C 70.285 105.221, 56 119.948, 56 120.482 C 56 121.789, 70.177 136, 71.481 136 C 72.820 136, 136 72.809, 136 71.469 C 136 70.166, 121.779 56, 120.471 56 C 119.930 56, 105.203 70.290, 87.744 87.756 M 39.234 88.265 L 30.997 96.544 39.007 104.507 L 47.016 112.469 55.250 104.234 L 63.485 96 55.478 87.993 L 47.470 79.985 39.234 88.265 M 112.009 112.491 L 79.529 144.982 87.500 153 L 95.471 161.018 128.227 128.273 L 160.984 95.528 153.265 87.764 C 149.020 83.494, 145.309 80, 145.018 80 C 144.727 80, 129.873 94.621, 112.009 112.491 M 0.365 96.500 C 0.368 102, 0.536 104.122, 0.738 101.216 C 0.941 98.311, 0.939 93.811, 0.734 91.216 C 0.528 88.622, 0.363 91, 0.365 96.500" stroke="none" fill="black" fill-rule="evenodd"/>
	<path fill-opacity="0.829" d="M 83.500 1.128 C 63.281 3.656, 43.290 13.565, 28.428 28.428 C -8.973 65.829, -8.973 126.171, 28.428 163.572 C 65.829 200.973, 126.171 200.973, 163.572 163.572 C 178.543 148.602, 188.899 127.697, 190.643 108.927 C 191.001 105.082, 191.677 101.700, 192.147 101.409 C 192.616 101.119, 193 98.182, 193 94.882 C 193 91.582, 192.613 89.121, 192.141 89.413 C 191.669 89.705, 190.983 86.730, 190.618 82.801 C 189.898 75.050, 185.623 61.142, 181.385 52.763 C 167.073 24.466, 139.191 4.971, 107.500 1.104 C 97.375 -0.132, 93.546 -0.128, 83.500 1.128 M 75.234 51.266 L 54.987 71.531 63.258 79.760 L 71.530 87.988 91.999 67.501 L 112.467 47.014 104.507 39.007 C 100.129 34.603, 96.307 31, 96.014 31 C 95.721 31, 86.370 40.119, 75.234 51.266 M 87.728 87.771 L 54.983 120.528 63.255 128.756 L 71.527 136.985 104.272 104.229 L 137.017 71.472 128.745 63.244 L 120.473 55.015 87.728 87.771 M 38.492 88.008 L 30.531 96.016 38.766 104.250 L 47 112.485 55.234 104.250 L 63.469 96.016 55.508 88.008 C 51.129 83.604, 47.301 80, 47 80 C 46.699 80, 42.871 83.604, 38.492 88.008 M 112.001 112.499 L 79.513 144.998 87.760 153.244 L 96.006 161.491 128.740 128.756 L 161.475 96.022 153.511 88.011 C 149.131 83.605, 145.309 80, 145.018 80 C 144.727 80, 129.869 94.625, 112.001 112.499 M 0.320 96 C 0.320 99.575, 0.502 101.037, 0.723 99.250 C 0.945 97.463, 0.945 94.537, 0.723 92.750 C 0.502 90.963, 0.320 92.425, 0.320 96" stroke="none" fill="black" fill-rule="evenodd"/>
</svg>