<?xml version="1.0"?><svg xmlns="http://www.w3.org/2000/svg" width="36" height="36" shape-rendering="geometricPrecision" text-rendering="geometricPrecision" image-rendering="optimizeQuality" fill-rule="evenodd" clip-rule="evenodd" viewBox="0 0 36 36"><path fill="#fefefe" d="m-0.1-0.1h36v36h-36v-36z"></path><path fill="#355b9d" d="m19.1 24c0.6 0.2 1.3 0.3 2.1 0.3 1.1-0.3 1.5 0.1 1.2 1.2-0.1 2-0.6 3.9-1.4 5.6-0.5 0.8-1.1 1.3-1.9 1.5-0.8 0.3-1.6 0.5-2.4 0.6-0.1-0.1-0.2-0.2-0.2-0.4-0.2-1.4-0.3-2.9-0.5-4.3-0.3-0.4-0.7-0.6-1.2-0.8-1-0.4-2-0.7-3.1-1-1.6-0.6-2.7-1.8-3.3-3.6-0.3-1.3-0.5-2.6-0.7-3.9-0.1-0.7-0.4-1.4-0.7-2.1-0.3-0.4-0.6-0.8-1.1-1-0.1 0.1-0.1 0.3 0.1 0.4l-0.3 0.2c-0.4 0.1-0.8 0.4-1.1 0.7l0-0.2c0.2-1 0.3-2.1 0.5-3.1 0.7-0.7 1.5-1 2.6-0.7 1 0.3 1.9 1 2.6 1.8 0.5 0.3 1 0.5 1.4 0.8 0.2 0.1 0.5 0.3 0.7 0.3-0.3 0.4-0.6 0.8-0.7 1.2 0.8-0.7 1.7-1.5 2.4-2.3 1.3-1 2.6-1.9 4-2.8 1.3-0.7 2.6-1.6 3.9-2.4 1.1-1.1 2.1-2.3 3-3.5 0.8-1.3 1.5-2.6 2.3-3.9 0.2 0.7 0.4 1.5 0.5 2.3 0.3-0.3 0.7-0.7 1-1 0.1-0.2 0.2-0.2 0.4 0 0.1 0.2 0.1 0.5 0.1 0.8 0 0.5-0.1 1-0.2 1.4 0.3-0.4 0.7-0.7 1.2-0.7 0 1.1-0.3 2.2-0.8 3.2 0.1 0.1 0.2 0.1 0.4 0 0.3-0.3 0.7-0.6 1.1-0.8 0.2 0.1 0.3 0.2 0.3 0.4-0.3 1.4-1 2.5-2.1 3.3 0.4-0.1 0.9-0.1 1.4-0.2-0.4 1.2-1.2 2.1-2.4 2.6l1.3 0.2c0 0 0.1 0.1 0.1 0.2-0.1 0.3-0.3 0.6-0.6 0.7l-1.9 1.2c0.3 0 0.6 0.1 1 0 0 0.4-0.1 0.8-0.4 1-0.9 0.7-1.6 1.5-2.2 2.4-2.3 2.4-5 3.7-8.3 3.8 0.6 0.4 1.2 0.6 1.9 0.6z"></path><path fill="#385c9c" d="m17.6 11.2c0.1 0.5 0 0.9-0.2 1.4-1.7 0.9-3.2 2.1-4.7 3.3-0.3 0.1-0.5 0-0.7-0.2-0.1-0.2-0.1-0.5 0.1-0.7 1.5-1.8 2.4-3.9 2.8-6.2 0-0.3 0.2-0.5 0.4-0.7 0.3 0.4 0.4 0.9 0.5 1.4l0.1 0.1c0.1-0.3 0.2-0.4 0.5-0.3 0.1 0.3 0.2 0.7 0.3 1l0.4-0.2c0.1 0.4 0.2 0.8 0.2 1.2 0.1-0.1 0.2-0.1 0.3-0.1z"></path><path fill="#e7eef5" d="m17.6 11.2c0.1 0.4 0.2 0.9 0.5 1.2-1.4 0.9-2.7 1.8-4 2.8-0.7 0.8-1.6 1.6-2.4 2.3 0.1-0.4 0.4-0.8 0.7-1.2-0.2 0-0.5-0.2-0.7-0.3 0.2 0 0.3-0.1 0.3-0.3 0.2 0.2 0.4 0.3 0.7 0.2 1.5-1.2 3-2.4 4.7-3.3 0.2-0.5 0.3-0.9 0.2-1.4z"></path><path fill="#f1f6fa" d="m6.1 14.6c0.7-0.1 0.9 0.1 0.6 0.7-0.2 0.1-0.4 0.1-0.5 0-0.1-0.3-0.1-0.5-0.1-0.7z"></path><path fill="#afc0d9" d="m19.1 24c0.7 0 1.4 0.1 2.1 0.3-0.8 0-1.5-0.1-2.1-0.3z"></path></svg>