<?xml version="1.0" encoding="UTF-8"?>
<!DOCTYPE svg PUBLIC "-//W3C//DTD SVG 1.1//EN" "http://www.w3.org/Graphics/SVG/1.1/DTD/svg11.dtd">
<svg xmlns="http://www.w3.org/2000/svg" version="1.1" width="256px" height="256px" style="shape-rendering:geometricPrecision; text-rendering:geometricPrecision; image-rendering:optimizeQuality; fill-rule:evenodd; clip-rule:evenodd" xmlns:xlink="http://www.w3.org/1999/xlink">
<g><path style="opacity:1" fill="#fefefe" d="M -0.5,-0.5 C 84.8333,-0.5 170.167,-0.5 255.5,-0.5C 255.5,84.8333 255.5,170.167 255.5,255.5C 170.167,255.5 84.8333,255.5 -0.5,255.5C -0.5,170.167 -0.5,84.8333 -0.5,-0.5 Z"/></g>
<g><path style="opacity:1" fill="#355b9d" d="M 135.5,170.5 C 140.269,171.889 145.269,172.556 150.5,172.5C 158.495,170.495 161.495,173.495 159.5,181.5C 158.504,195.484 155.004,208.817 149,221.5C 145.936,226.789 141.436,230.289 135.5,232C 129.948,234.139 124.282,235.472 118.5,236C 117.874,235.25 117.374,234.416 117,233.5C 116.257,223.113 115.257,212.78 114,202.5C 111.592,200.044 108.759,198.211 105.5,197C 98.239,194.469 90.9057,192.135 83.5,190C 71.5066,185.34 63.6733,176.84 60,164.5C 57.5344,155.311 55.8678,145.977 55,136.5C 53.7925,131.332 52.1259,126.332 50,121.5C 47.9768,118.48 45.3102,116.146 42,114.5C 41.3828,115.449 41.5494,116.282 42.5,117C 41.8333,117.667 41.1667,118.333 40.5,119C 37.5305,119.763 35.0305,121.263 33,123.5C 32.8333,123 32.6667,122.5 32.5,122C 33.8692,114.861 35.0359,107.695 36,100.5C 41.0276,95.0481 47.1942,93.2147 54.5,95C 61.9313,97.7706 68.2646,102.104 73.5,108C 76.7271,110.112 80.0604,111.945 83.5,113.5C 84.842,114.793 86.5087,115.626 88.5,116C 86.0974,118.682 84.264,121.515 83,124.5C 89.1353,119.366 94.9687,113.866 100.5,108C 109.737,101.247 119.07,94.7473 128.5,88.5C 137.949,82.8912 147.282,77.0579 156.5,71C 164.039,63.1297 171.206,54.9631 178,46.5C 183.347,37.1346 188.681,27.8013 194,18.5C 195.852,23.6072 197.019,28.9405 197.5,34.5C 200.167,32.5 202.5,30.1667 204.5,27.5C 205.5,26.1667 206.5,26.1667 207.5,27.5C 208.095,29.4404 208.428,31.4404 208.5,33.5C 208.269,36.9729 207.769,40.3062 207,43.5C 209.029,40.4044 211.862,38.7377 215.5,38.5C 215.237,46.4557 213.237,53.9557 209.5,61C 210.5,61.6667 211.5,61.6667 212.5,61C 215.029,58.9715 217.696,57.1381 220.5,55.5C 221.881,55.9996 222.547,56.9996 222.5,58.5C 220.648,68.3761 215.648,76.2094 207.5,82C 210.71,81.2579 214.043,80.7579 217.5,80.5C 214.521,88.985 208.855,95.1517 200.5,99C 203.5,99.3333 206.5,99.6667 209.5,100C 210.022,100.561 210.355,101.228 210.5,102C 209.561,103.944 208.227,105.611 206.5,107C 201.833,109.667 197.167,112.333 192.5,115C 194.81,115.497 197.143,115.663 199.5,115.5C 199.736,118.226 198.903,120.559 197,122.5C 190.624,127.209 185.291,132.875 181,139.5C 165.276,156.442 145.776,165.442 122.5,166.5C 126.407,169.085 130.741,170.419 135.5,170.5 Z"/></g>
<g><path style="opacity:1" fill="#385c9c" d="M 125.5,79.5 C 125.849,83.0644 125.183,86.3978 123.5,89.5C 111.796,96.3512 100.796,104.185 90.5,113C 88.5048,113.613 86.8381,113.113 85.5,111.5C 84.3789,109.911 84.5456,108.244 86,106.5C 96.4533,93.5908 103.12,78.9242 106,62.5C 106.26,60.3825 107.26,58.7158 109,57.5C 110.61,60.5975 111.61,63.9308 112,67.5C 112.333,67.8333 112.667,68.1667 113,68.5C 113.424,66.3855 114.591,65.5521 116.5,66C 117.12,68.4728 117.786,70.9728 118.5,73.5C 119.5,72.8333 120.5,72.1667 121.5,71.5C 122.321,74.4465 122.821,77.4465 123,80.5C 123.671,79.7476 124.504,79.4142 125.5,79.5 Z"/></g>
<g><path style="opacity:1" fill="#e7eef5" d="M 125.5,79.5 C 125.89,82.7967 126.89,85.7967 128.5,88.5C 119.07,94.7473 109.737,101.247 100.5,108C 94.9687,113.866 89.1353,119.366 83,124.5C 84.264,121.515 86.0974,118.682 88.5,116C 86.5087,115.626 84.842,114.793 83.5,113.5C 84.8333,113.5 85.5,112.833 85.5,111.5C 86.8381,113.113 88.5048,113.613 90.5,113C 100.796,104.185 111.796,96.3512 123.5,89.5C 125.183,86.3978 125.849,83.0644 125.5,79.5 Z"/></g>
<g><path style="opacity:1" fill="#f1f6fa" d="M 43.5,103.5 C 48.1585,103.015 49.4919,104.848 47.5,109C 46.2161,109.684 45.0495,109.517 44,108.5C 43.5065,106.866 43.3398,105.199 43.5,103.5 Z"/></g>
<g><path style="opacity:1" fill="#afc0d9" d="M 135.5,170.5 C 140.731,170.444 145.731,171.111 150.5,172.5C 145.269,172.556 140.269,171.889 135.5,170.5 Z"/></g>
</svg>
