<svg xmlns="http://www.w3.org/2000/svg" width="256" height="256" viewBox="0 0 256 256" version="1.1">
	<path fill-opacity="0.239" d="M 187.989 29.428 C 181.389 42.841, 174.793 52.210, 164.245 63.151 C 157.467 70.182, 152.514 73.993, 138.380 83.048 C 113.718 98.850, 101.429 107.781, 94.500 114.941 C 91.200 118.351, 87.211 122.076, 85.635 123.220 L 82.770 125.300 85.910 120.965 L 89.050 116.630 82.668 113.261 C 79.158 111.408, 73.634 107.647, 70.393 104.902 C 61.403 97.290, 55.328 94.664, 47.947 95.197 C 42.794 95.570, 41.436 96.102, 38.729 98.809 C 35.838 101.701, 35.495 102.721, 34.886 110.242 C 34.519 114.784, 33.902 119.711, 33.515 121.191 L 32.813 123.883 37.939 121.191 C 41.834 119.147, 42.954 118.057, 42.602 116.658 C 42.175 114.960, 42.277 114.941, 43.898 116.408 C 44.866 117.284, 46.113 118, 46.670 118 C 48.026 118, 52.551 126.496, 53.900 131.576 C 54.496 133.818, 55.864 141.468, 56.939 148.576 C 60.353 171.131, 66.604 181.786, 80.500 188.734 C 82.700 189.834, 89.225 192.181, 95 193.949 C 106.395 197.438, 113.380 200.941, 114.437 203.697 C 114.807 204.660, 115.581 211.984, 116.158 219.974 C 116.735 227.963, 117.687 235.089, 118.275 235.809 C 120.711 238.795, 139.028 232.796, 145.095 227.025 C 152.266 220.203, 157.747 204.800, 160.049 184.998 C 160.915 177.548, 160.938 174.580, 160.134 174.083 C 159.526 173.707, 153.426 172.844, 146.577 172.165 C 133.378 170.855, 123.553 168.533, 124.529 166.952 C 124.853 166.429, 126.834 166, 128.931 166 C 134.701 166, 150.776 161.617, 158.095 158.048 C 166.481 153.960, 176.688 146.130, 180.500 140.862 C 182.150 138.581, 187.213 133.054, 191.750 128.578 C 201.700 118.763, 202.600 115.458, 195.250 115.731 C 193.239 115.806, 193.662 115.461, 200.467 111.482 C 211.728 104.896, 213.717 100.920, 206.435 99.554 L 202.710 98.855 205.621 97.084 C 209.889 94.489, 218 85.106, 218 82.764 C 218 80.955, 217.567 80.814, 213.838 81.410 L 209.676 82.075 213.767 77.637 C 218.651 72.338, 221.716 66.629, 222.581 61.217 C 223.451 55.779, 221.875 55.194, 216.236 58.862 C 213.668 60.533, 211.404 61.737, 211.205 61.538 C 211.006 61.339, 212.004 57.960, 213.422 54.029 C 215.922 47.098, 216.894 38, 215.135 38 C 214.659 38, 213.126 38.900, 211.727 40 C 210.329 41.100, 209.031 42, 208.842 42 C 208.654 42, 208.500 38.664, 208.500 34.586 C 208.500 30.508, 208.171 26.841, 207.768 26.437 C 207.365 26.033, 205.310 27.647, 203.201 30.024 C 198.726 35.067, 197.043 34.711, 196.900 28.691 C 196.775 23.402, 195.772 19.757, 194.309 19.270 C 193.684 19.061, 190.840 23.633, 187.989 29.428 M 107.605 59.586 C 107.253 60.504, 106.259 64.686, 105.397 68.878 C 103.683 77.213, 97.958 89.455, 90.292 101.174 C 87.657 105.203, 85.159 109.029, 84.742 109.676 C 84.277 110.396, 85.115 111.658, 86.905 112.932 L 89.826 115.012 96.163 109.607 C 99.648 106.635, 107 101.248, 112.500 97.636 C 126.269 88.595, 125.849 88.998, 126.194 84.500 C 126.446 81.200, 126.194 80.524, 124.750 80.639 C 123.328 80.752, 123 79.955, 123 76.389 C 123 73.154, 122.605 72, 121.500 72 C 120.675 72, 120 72.477, 120 73.059 C 120 73.641, 119.550 73.840, 119 73.500 C 118.450 73.160, 118 71.585, 118 70 C 118 66.422, 116.127 65.106, 114.398 67.470 C 113.207 69.099, 113.047 69.009, 112.462 66.373 C 110.729 58.562, 108.952 56.077, 107.605 59.586 M 44.390 105.426 C 43.480 107.797, 44.767 110.191, 46.747 109.810 C 47.854 109.597, 48.500 108.561, 48.500 107 C 48.500 104.149, 45.344 102.941, 44.390 105.426" stroke="none" fill="black" fill-rule="evenodd"/>
	<path fill-opacity="0.186" d="M 193.293 20.208 C 192.730 20.918, 189.905 26.136, 187.015 31.803 C 176.817 51.798, 163.349 67.293, 147.286 77.513 C 118.568 95.783, 103.133 106.815, 93.812 115.732 C 88.483 120.830, 83.832 125, 83.475 125 C 83.119 125, 84.211 123.118, 85.903 120.818 L 88.978 116.636 83.239 113.866 C 80.083 112.342, 74.499 108.596, 70.831 105.540 C 56.762 93.817, 44.916 91.806, 37.595 99.895 C 36.209 101.427, 35.478 104.364, 34.896 110.748 C 34.457 115.561, 33.773 120.625, 33.376 122 C 32.724 124.255, 32.819 124.364, 34.338 123.118 C 35.265 122.357, 37.481 121.005, 39.262 120.112 C 41.071 119.205, 42.447 117.767, 42.379 116.854 C 42.272 115.393, 42.590 115.415, 45.388 117.066 C 51.165 120.475, 53.989 127.935, 56.949 147.606 C 59.959 167.617, 64.539 177.585, 73.824 184.339 C 80.486 189.186, 83.458 190.536, 93.969 193.491 C 103.802 196.256, 111.769 199.812, 113.911 202.393 C 114.715 203.362, 115.582 209.658, 116.228 219.221 C 116.871 228.750, 117.731 235.007, 118.513 235.848 C 120.305 237.774, 129.030 235.668, 138.232 231.089 C 146.264 227.092, 150.199 222.430, 153.907 212.518 C 156.354 205.978, 159.581 190.097, 160.360 180.759 C 161.018 172.884, 162.639 173.789, 144.682 172.017 C 132.031 170.769, 122.570 168.504, 123.529 166.952 C 123.853 166.429, 125.834 166, 127.931 166 C 134.404 166, 151.073 161.240, 159.997 156.844 C 166.716 153.534, 170.022 151.071, 175.791 145.079 C 179.805 140.911, 186.893 133.625, 191.544 128.888 C 201.244 119.009, 202.348 116, 196.271 116 C 192.554 116, 192.567 115.985, 200.259 111.482 C 207.715 107.118, 211.779 103.070, 210.608 101.175 C 210.298 100.673, 208.122 99.955, 205.774 99.580 L 201.503 98.897 204.807 97.297 C 208.843 95.342, 218 85.281, 218 82.800 C 218 80.743, 215.552 80.459, 211.404 82.036 C 208.835 83.013, 208.905 82.826, 212.614 78.786 C 217.942 72.984, 220.617 68.425, 222.060 62.685 C 223.788 55.811, 222.407 54.880, 216.392 58.864 C 213.788 60.589, 211.349 62, 210.972 62 C 210.595 62, 211.572 58.367, 213.143 53.928 C 215.875 46.207, 216.756 40.089, 215.338 38.671 C 214.974 38.307, 213.204 39.132, 211.405 40.505 C 207.296 43.639, 206.810 43.629, 208.025 40.435 C 209.273 37.151, 209.273 31.847, 208.024 28.562 L 207.047 25.994 202.896 30.497 C 200.613 32.974, 198.418 35, 198.018 35 C 197.617 35, 197.020 31.780, 196.690 27.845 C 196.061 20.345, 195.026 18.017, 193.293 20.208 M 108.094 59.823 C 107.541 60.857, 106.407 64.972, 105.574 68.967 C 103.790 77.524, 98.344 89.176, 90.602 101 C 87.541 105.675, 85.028 109.986, 85.018 110.581 C 85.008 111.176, 86.111 112.257, 87.469 112.983 C 89.689 114.171, 90.268 114.038, 93.219 111.662 C 102.648 104.069, 111.230 97.830, 117.500 94.008 C 121.350 91.661, 124.831 89.237, 125.235 88.621 C 125.639 88.004, 125.976 85.764, 125.985 83.643 C 125.997 80.622, 125.675 79.911, 124.500 80.362 C 123.305 80.820, 123 80.030, 123 76.469 C 123 72.270, 121.897 70.739, 120.500 73 C 119.221 75.070, 118 73.879, 118 70.559 C 118 66.533, 116.231 64.964, 114.444 67.407 C 112.930 69.478, 112.443 68.785, 111.528 63.255 C 110.716 58.343, 109.524 57.152, 108.094 59.823 M 43.591 105.625 C 42.742 107.835, 45.310 110.479, 47.493 109.641 C 48.508 109.252, 49.017 108.143, 48.820 106.754 C 48.421 103.946, 44.555 103.111, 43.591 105.625" stroke="none" fill="black" fill-rule="evenodd"/>
	<path fill-opacity="0.348" d="M 193.288 20.187 C 192.705 20.909, 189.968 26, 187.207 31.500 C 175.758 54.304, 162.455 68.517, 138.535 83.500 C 115.476 97.944, 101.613 108.050, 92.479 117.075 C 84.057 125.397, 79.341 127.925, 85.362 120.890 L 88.880 116.780 83.190 113.926 C 80.060 112.356, 74.350 108.542, 70.500 105.450 C 61.796 98.461, 57.180 96.046, 51.166 95.333 C 41.267 94.161, 35.031 99.812, 34.980 110 C 34.965 113.025, 34.565 117.169, 34.091 119.209 L 33.229 122.918 38.083 120.458 C 41.576 118.688, 42.770 117.564, 42.342 116.449 C 41.843 115.148, 42.290 115.194, 45.124 116.735 C 49.688 119.216, 53.535 127.218, 55.467 138.250 C 56.310 143.063, 57.682 150.827, 58.515 155.505 C 60.485 166.564, 63.736 173.735, 69.647 180.054 C 76.068 186.918, 80.135 189.082, 95.800 193.969 C 113.831 199.593, 114.827 200.531, 116.030 213 C 116.534 218.225, 116.958 225.001, 116.973 228.059 C 116.988 231.116, 117.593 234.429, 118.318 235.420 C 119.582 237.149, 119.946 237.136, 127.391 235.094 C 136.704 232.539, 142.020 229.947, 145.530 226.251 C 152.150 219.278, 158.305 200.956, 159.817 183.721 C 160.718 173.457, 160.408 173.013, 152.316 172.980 C 142.302 172.939, 123 169.078, 123 167.117 C 123 166.662, 125.813 166.018, 129.250 165.687 C 150.094 163.679, 170.583 153.399, 180.927 139.760 C 185.581 133.623, 185.853 133.328, 193.946 125.657 C 200.837 119.127, 201.361 116.779, 196.104 116 L 192.732 115.500 197.116 113.086 C 211.820 104.990, 214.546 100.143, 204.500 99.957 C 201.021 99.892, 200.742 99.727, 202.355 98.691 C 209.431 94.149, 218.422 84.718, 217.686 82.611 C 217.260 81.392, 214.884 81.276, 210.952 82.284 C 208.651 82.873, 208.820 82.502, 212.685 78.468 C 219.264 71.602, 224.140 60.462, 222.048 57.077 C 221.408 56.043, 220.220 56.441, 216.683 58.874 C 214.184 60.593, 211.710 62, 211.185 62 C 210.660 62, 211.522 58.288, 213.102 53.750 C 216.097 45.145, 216.823 39, 214.844 39 C 214.209 39, 212.166 40.161, 210.305 41.581 L 206.921 44.162 207.711 41.331 C 208.660 37.927, 208.617 28.284, 207.648 27.315 C 207.269 26.935, 205.038 28.509, 202.691 30.812 C 200.344 33.116, 198.169 35, 197.857 35 C 197.545 35, 197.015 32.063, 196.680 28.474 C 195.963 20.797, 194.898 18.195, 193.288 20.187 M 108.272 59.500 C 107.681 60.600, 106.649 64.425, 105.977 68 C 104.471 76.013, 97.950 90.202, 90.565 101.532 C 87.504 106.227, 85 110.268, 85 110.511 C 85 110.755, 86.109 111.681, 87.466 112.569 C 89.878 114.150, 90.090 114.055, 97.304 108.160 C 103.783 102.866, 121.796 90.568, 124.289 89.737 C 124.788 89.571, 125.444 87.238, 125.747 84.553 C 126.226 80.305, 126.083 79.754, 124.649 80.305 C 123.295 80.824, 123 80.256, 123 77.135 C 123 72.415, 122.187 71.521, 119.831 73.653 C 118.094 75.225, 118 75.152, 118 72.237 C 118 66.545, 115.802 63.897, 114.495 68.015 C 113.638 70.715, 112.011 69.547, 111.955 66.191 C 111.930 64.711, 111.333 62.150, 110.628 60.500 C 109.414 57.660, 109.288 57.607, 108.272 59.500 M 43.638 105.500 C 42.784 107.726, 43.970 110, 45.985 110 C 48.754 110, 50.532 107.346, 49 105.500 C 48.315 104.675, 46.958 104, 45.985 104 C 45.011 104, 43.955 104.675, 43.638 105.500" stroke="none" fill="black" fill-rule="evenodd"/>
	<path fill-opacity="0.165" d="M 192.720 21.305 C 191.866 22.607, 189.780 26.734, 188.084 30.476 C 181.163 45.739, 163.072 67.962, 151.761 75.095 C 116.798 97.143, 98.720 110.146, 92.080 118.020 C 88.223 122.595, 81.943 127.133, 82.041 125.276 C 82.063 124.849, 83.413 122.942, 85.041 121.038 C 86.668 119.134, 88 117.301, 88 116.966 C 88 116.631, 85.862 115.382, 83.250 114.190 C 80.638 112.999, 76.250 110.222, 73.500 108.020 C 58.112 95.694, 50.358 92.838, 42.460 96.586 C 37.664 98.862, 35.573 102.532, 35.387 109 C 35.300 112.025, 34.902 116.188, 34.503 118.250 C 34.104 120.312, 34.070 122, 34.429 122 C 34.787 122, 36.822 121.111, 38.953 120.024 C 42.095 118.421, 42.735 117.619, 42.344 115.774 C 41.921 113.777, 41.999 113.713, 42.981 115.250 C 43.596 116.213, 44.719 117, 45.477 117 C 49.815 117, 54.427 128.826, 57.154 146.938 C 61.558 176.187, 69.787 186.197, 95.500 193.586 C 107.627 197.071, 113.661 200.424, 114.944 204.392 C 115.497 206.102, 116.330 213.724, 116.796 221.330 C 117.385 230.952, 118.044 235.409, 118.963 235.977 C 120.634 237.010, 132.595 233.746, 138.958 230.521 C 144.833 227.544, 148.498 223.335, 152.037 215.500 C 156.260 206.153, 159.930 188.969, 159.980 178.311 C 160.003 173.583, 160.784 173.877, 144.500 172.495 C 135.349 171.719, 124.419 169.210, 123.062 167.574 C 122.207 166.544, 123.304 166.143, 128.408 165.620 C 150.316 163.375, 171.192 152.895, 181.414 139.009 C 183.728 135.867, 188.911 130.133, 192.933 126.267 C 197.041 122.319, 200.048 118.638, 199.795 117.869 C 199.547 117.116, 197.684 116.275, 195.655 116 L 191.967 115.500 197.389 112.677 C 200.371 111.124, 204.668 108.264, 206.939 106.320 C 212.008 101.981, 211.143 100.023, 204.128 99.956 L 199.500 99.912 203.087 98.016 C 206.860 96.021, 218 84.658, 218 82.804 C 218 82.089, 216.260 81.927, 212.881 82.328 L 207.763 82.934 212.415 78.217 C 217.870 72.687, 222 64.968, 222 60.304 C 222 56.343, 221.054 56.212, 216.215 59.500 C 211.833 62.477, 209.455 62.790, 210.519 60.250 C 212.590 55.309, 216 43.618, 216 41.462 C 216 38.351, 214.711 38.356, 210.614 41.481 L 207.361 43.962 207.806 35.481 C 208.050 30.817, 207.929 27, 207.536 27 C 207.143 27, 204.746 29.135, 202.210 31.745 L 197.599 36.490 196.413 28.192 C 195.761 23.628, 195.012 19.679, 194.749 19.416 C 194.486 19.153, 193.573 20.003, 192.720 21.305 M 108.303 60.500 C 107.730 61.600, 106.506 65.945, 105.583 70.156 C 103.750 78.522, 98.017 90.579, 90.389 102.111 C 87.701 106.175, 85.372 109.775, 85.214 110.111 C 85.056 110.447, 86.081 111.478, 87.493 112.403 C 90.030 114.066, 90.127 114.028, 95.780 109.131 C 98.926 106.406, 106 101.228, 111.500 97.623 C 117 94.019, 122.317 90.492, 123.316 89.785 C 124.368 89.040, 125.370 86.705, 125.700 84.230 C 126.189 80.560, 126.039 80.048, 124.634 80.587 C 123.288 81.104, 123 80.501, 123 77.166 C 123 72.958, 121.429 70.717, 120.386 73.437 C 119.360 76.110, 118.001 75.155, 117.985 71.750 C 117.976 69.963, 117.571 67.871, 117.085 67.103 C 116.371 65.975, 115.942 66.120, 114.860 67.853 C 113.041 70.766, 112.009 70.551, 111.955 67.250 C 111.930 65.737, 111.333 63.150, 110.628 61.500 C 109.417 58.668, 109.287 58.612, 108.303 60.500 M 43.362 105.500 C 42.417 107.962, 43.776 110, 46.362 110 C 47.695 110, 49.045 109.325, 49.362 108.500 C 50.306 106.038, 48.947 104, 46.362 104 C 45.028 104, 43.678 104.675, 43.362 105.500" stroke="none" fill="black" fill-rule="evenodd"/>
</svg>