<?xml version="1.0"?><svg xmlns="http://www.w3.org/2000/svg" width="36" height="36" shape-rendering="geometricPrecision" text-rendering="geometricPrecision" image-rendering="optimizeQuality" fill-rule="evenodd" clip-rule="evenodd" viewBox="0 0 36 36"><path fill="#030406" d="m-0.1-0.1h7.2c0 0.2-0.1 0.3 0 0.5-0.3 0.2-0.4 0.4-0.4 0.7-0.2-0.1-0.4-0.1-0.6-0.1-0.2 0.1-0.4 0.3-0.5 0.5 0.3 0.3 0.3 0.4-0.1 0.4-0.1-0.5-0.2-0.6-0.4-0.2-0.1-0.4-0.2-0.4-0.3 0-0.2-0.4-0.3-0.4-0.1 0.2-0.3 0.3-0.6 0.6-0.8 1-0.1-0.2-0.1-0.3 0.1-0.3-0.1-0.2-0.1-0.4 0.1-0.5-0.1-0.1-0.2-0.2-0.3-0.1 0 0.3-0.1 0.6-0.4 0.8 0.1 0.1 0.1 0.2 0.1 0.3-0.1-0.1-0.3-0.1-0.4 0 0.1 0.3 0.1 0.4 0 0.6-0.2 0.1-0.4 0.1-0.6 0.2-0.3-0.2-0.2-0.3 0.1-0.4-0.2-0.1-0.2-0.3-0.1-0.5-0.3-0.2-0.2-0.3 0.1-0.4-0.2-0.1-0.3-0.2-0.4-0.4-0.3 0.2-0.3 0.3 0.1 0.4-0.2 0.1-0.3 0-0.5-0.1-0.3 0.2-0.3 0.4 0.2 0.5 0.2-0.1 0.3-0.1 0.3 0.2-0.1 0.1-0.3 0.1-0.4-0.1-0.1 0.2 0 0.3 0.2 0.4-0.2 0.2-0.3 0.5-0.3 0.7l-0.5-0.4c-0.1 0.4-0.3 0.8-0.6 1.2l0.4 0.2c-0.1 0.1-0.2 0.2-0.3 0.2 0.2 0.2 0.2 0.4 0 0.6-0.1-0.3-0.3-0.4-0.5-0.2v0.5c-0.1 0.1-0.2 0.1-0.4 0.1v-6.5z"></path><path fill="#0c0d0e" d="m7.1-0.1h3.9c-0.8 0.4-1.5 0.8-2.2 1.2-0.4 0.1-0.9 0.4-1.3 0.6-0.1 0-0.2-0.1-0.2-0.2-0.3 0.4-0.6 0.6-1.1 0.5 0.2 0.1 0.2 0.2 0 0.3-0.2 0.2-0.4 0.4-0.6 0.6l-0.1-0.1c-0.1 0.1-0.2 0.2-0.3 0.3-0.2 0.1-0.4 0.2-0.5 0.3l-0.1-0.1c-0.1 0.4-0.4 0.7-0.7 1 0 0.1 0 0.2 0.1 0.3l-1.5 1.8c-0.2 0.3-0.5 0.7-0.8 1.1v0.1c-0.3 0.4-0.6 0.9-0.9 1.3-0.3 0.7-0.5 1.3-0.9 1.8v-4.3c0.2 0 0.3 0 0.4-0.1v-0.5c0.2-0.2 0.4-0.1 0.5 0.2 0.2-0.2 0.2-0.4 0-0.6 0.1 0 0.2-0.1 0.3-0.2l-0.4-0.2c0.3-0.4 0.5-0.8 0.7-1.2l0.4 0.4c0-0.2 0.1-0.5 0.3-0.7-0.2-0.1-0.3-0.2-0.2-0.4 0.1 0.2 0.3 0.2 0.4 0.1 0-0.3-0.1-0.3-0.3-0.2-0.5-0.1-0.5-0.3-0.2-0.5 0.2 0.1 0.3 0.2 0.5 0.1-0.4-0.1-0.4-0.2 0-0.4 0 0.2 0.1 0.3 0.3 0.4-0.3 0.1-0.4 0.2-0.1 0.4-0.1 0.2-0.1 0.4 0.1 0.5-0.3 0.1-0.4 0.2-0.1 0.4 0.2-0.1 0.4-0.1 0.6-0.2 0.1-0.2 0.1-0.3 0-0.6 0.1-0.1 0.3-0.1 0.4 0 0-0.1 0-0.2-0.1-0.3 0.3-0.2 0.4-0.5 0.4-0.8 0.1-0.1 0.2 0 0.3 0.1-0.2 0.1-0.2 0.3-0.1 0.5-0.2 0-0.2 0.1-0.1 0.3 0.2-0.4 0.5-0.7 0.8-1-0.2-0.6-0.1-0.6 0.1-0.2 0.1-0.4 0.2-0.4 0.3 0 0.2-0.4 0.3-0.3 0.4 0.2 0.4 0 0.4-0.1 0.1-0.4 0.1-0.2 0.3-0.4 0.5-0.5 0.2 0 0.4 0 0.7 0.1-0.1-0.3 0-0.5 0.3-0.7-0.1-0.2 0-0.3 0-0.5z"></path><path fill="#f2bf87" d="m22.2-0.1h2.2c0 0.2 0.1 0.2 0.2 0.3 0.7 0.2 1.5 0.5 2.1 0.9-0.1 0.1-0.2 0.2-0.3 0.3 0.4 0.1 0.7 0.3 1 0.7-1-0.5-2.1-1-3.2-1.4-0.1-0.1-0.3-0.1-0.5-0.1-0.5-0.2-1-0.4-1.5-0.7z"></path><path fill="#050506" d="m24.8-0.1h11.1v10.7c-0.5-1.4-1.3-2.7-2.3-3.9-0.8-1.2-1.7-2.2-2.7-3-0.6-0.5-1.2-1-1.8-1.4-1.3-1-2.8-1.7-4.3-2.4z"></path><path fill="#d8b191" d="m15-0.1h4.6c0 0.1 0 0.2-0.1 0.3 0.2 0.2 0.3 0.4 0.2 0.6-0.2 0.2-0.3 0.2-0.5 0-0.3-0.2-0.7-0.2-1 0-0.3 0.5-0.3 0.6 0.1 0.2 0.1 0 0.2 0 0.2 0.1-0.2 0.2-0.4 0.5-0.5 0.9-0.1-0.4-0.2-0.7-0.4-1 0.1 0 0.2-0.1 0.2-0.2-0.1 0-0.2-0.1-0.4-0.2-0.3 0.1-0.6 0.2-0.9 0.1v-0.5c-0.1 0-0.2 0-0.4 0 0.1 0.3 0.2 0.5 0.4 0.6 0 0.1 0 0.2 0 0.3 0.3-0.1 0.5-0.2 0.8-0.1 0 0 0.1 0 0.1 0.1-0.2 0.3-0.3 0.6-0.4 1l-0.2-0.9c0 0.5-0.2 1-0.6 1.3 0-0.2 0-0.4 0-0.6l-0.1-0.2c0 0.2-0.1 0.4-0.2 0.5-0.2-0.4-0.2-0.7-0.2-1.1 0.2 0 0.4 0 0.6-0.1-0.3-0.2-0.5-0.2-0.7 0-0.1 0.2-0.2 0.4-0.2 0.6 0-0.1-0.1-0.2-0.2-0.3 0 0.3 0 0.5 0.3 0.8l-0.1 0.1-0.3-0.2c-0.2 0.1-0.4 0.3-0.5 0.5 0.1 0.3 0.1 0.7 0.1 1 0.1-0.1 0.2-0.1 0.3 0.1-0.2 0-0.2 0.1-0.1 0.2 0.2 0.1 0.4 0.2 0.6 0.2-0.1-0.6 0-1.1 0.1-1.6 0.1 0.6 0.1 1.1 0.1 1.7-0.2 0-0.3 0-0.5 0.1h-0.1c-0.2-0.1-0.3-0.2-0.4-0.4-0.1 0-0.2 0-0.4 0-0.1-0.6-0.1-1.2 0-1.7-0.1 0.3-0.3 0.5-0.6 0.5-0.1-0.4-0.1-0.8-0.1-1.2 0.2 0 0.5 0 0.7 0.2 0.1-0.1 0-0.2-0.1-0.2-0.2-0.1-0.5-0.1-0.8 0 0 0.3 0 0.6 0 0.9-0.1-0.3-0.2-0.2-0.2 0.1-0.2-0.2-0.5-0.4-0.8-0.3 0.1-0.1 0.2-0.2 0.4-0.2 0-0.1-0.1-0.1-0.1-0.2-0.1-0.1-0.3-0.2-0.5-0.2 0.1-0.1 0.2-0.1 0.3-0.1 0.1-0.1 0-0.2-0.1-0.3-0.2-0.1-0.4 0-0.6 0.2 0-0.1-0.1-0.2-0.2-0.3 0.2-0.1 0.3-0.2 0.4-0.3 0 0.1 0.1 0.1 0.1 0.1 0.9-0.2 1.7-0.4 2.5-0.6 0.3 0.2 0.5 0.1 0.4-0.3z"></path><path fill="#f7eda7" d="m11-0.1h3.1c-2.6 0.7-5.1 1.8-7.3 3.4 0-0.1 0-0.2 0-0.3-0.2 0.1-0.3 0.1-0.4 0 0.1-0.1 0.2-0.2 0.2-0.4 0.2-0.2 0.5-0.3 0.9-0.3 0-0.2 0-0.4 0.2-0.5 0.5-0.1 0.9-0.3 1.1-0.7 0.7-0.4 1.4-0.8 2.2-1.2z"></path><path fill="#d6ae84" d="m14.1-0.1h0.9c0.1 0.4-0.1 0.5-0.4 0.3-0.8 0.2-1.6 0.4-2.4 0.6-0.1 0-0.2 0-0.2-0.1-0.1 0.1-0.2 0.2-0.4 0.3 0.1 0.1 0.2 0.2 0.2 0.3 0.2-0.2 0.4-0.3 0.6-0.2 0.1 0.1 0.2 0.2 0.1 0.3-0.1 0-0.2 0-0.3 0.1-0.1 0.1-0.3 0.1-0.4 0-0.2 0.1-0.3 0.3-0.4 0.5-0.3-0.1-0.4-0.2-0.1-0.3-0.1-0.1-0.2-0.1-0.3-0.1 0 0.3-0.1 0.4-0.3 0.6 0.2 0.2 0.3 0.5 0.4 0.7 0 0.1-0.1 0.2-0.1 0.2-0.1-0.2-0.3-0.3-0.4-0.5-0.3-0.3-0.7-0.3-1 0.1-0.6 0.3-1.2 0.6-1.8 1.1 0.1 0.1 0.1 0.2 0.2 0.2 0 0.2-0.2 0.3-0.4 0.2-0.1 0.2-0.2 0.5-0.3 0.7-0.2-0.1-0.3-0.1-0.4 0-0.1-0.2 0-0.3 0.2-0.2 0.1-0.1 0-0.3 0-0.4-0.1 0.2-0.2 0.1-0.2-0.1-0.1 0.4-0.3 0.4-0.5 0.1 0.1-0.2 0.3-0.3 0.5-0.3 0-0.2 0-0.3 0-0.5-0.3 0.4-0.6 0.6-1 0.7 0.3-0.3 0.6-0.6 0.9-0.9 2.2-1.6 4.7-2.7 7.3-3.4z"></path><path fill="#e4c39e" d="m24.4-0.1h0.4c1.5 0.7 3 1.4 4.3 2.4-0.8-0.4-1.6-0.8-2.4-1.2-0.6-0.4-1.4-0.7-2.1-0.9-0.1-0.1-0.2-0.1-0.2-0.3z"></path><path fill="#94684d" d="m14.7 1.1c0.4 0 0.4 0 0 0.2 0 0.4 0 0.7-0.2 1-0.1-0.4 0-0.8 0.2-1.2z"></path><path fill="#cda88a" d="m19.6-0.1h2.6c0.5 0.3 1 0.5 1.5 0.7 0 0.2-0.1 0.3-0.3 0.4-0.1 0.1-0.1 0.3-0.1 0.5 0.2 0 0.3 0 0.4 0.1-0.2 0-0.4 0.1-0.6 0.1-0.1 0.1-0.2 0.2-0.3 0.4-0.1-0.2-0.2-0.2-0.4-0.2 0.4 0.2 0.4 0.4 0.3 0.7-0.3 0-0.5 0.1-0.6 0.3 0.5 0.3 0.6 0.6 0.3 1.1 0.1 0.6 0.2 1.1 0.2 1.7 0.2-0.4 0.5-0.5 0.9-0.2 0.1 0.3 0.1 0.5 0 0.7-0.3 0.1-0.5 0-0.8-0.1l-0.1 3.4c-0.5 0.7-1.1 1.3-1.8 1.9 0 1-0.1 1.9-0.3 2.8 0-0.9 0-1.8 0.1-2.8 0.7-0.6 1.3-1.3 1.9-2-0.1-2-0.2-4-0.2-6-0.1-0.1-0.1-0.2-0.2-0.2-0.7 0-0.9-0.3-0.6-0.9 0.2-0.1 0.3-0.1 0.4-0.1 0 0.1 0 0.2 0 0.3 0.2 0 0.4-0.1 0.7-0.2-0.5-0.5-0.4-0.8 0.3-0.7-0.4-0.4-0.7-0.4-1 0 0.4 0.7 0.4 0.7-0.3 0.3l-0.5 0.5-0.1-0.2c0 0.2 0 0.4-0.1 0.6l1.2 1.2c0 0.5 0 1-0.1 1.5-0.5 0.5-1 1-1.5 1.5 0 0.6-0.3 1.1-0.8 1.4-0.2 0.8-0.4 0.8-0.5 0 0.6-0.2 1-0.7 1.1-1.4 0.5-0.5 1-1.1 1.5-1.7 0.1-0.4 0.1-0.9 0-1.3-0.6-0.7-1.1-0.6-1.5 0-0.2 0-0.4 0-0.6 0-0.3 0.1-0.4 0.3-0.1 0.6 0.2-0.4 0.4-0.4 0.6-0.2 0.1-0.1 0.3-0.3 0.4-0.5 0 0.2 0.1 0.3 0.3 0.4-0.3 0.1-0.6 0.3-0.9 0.5l-0.1-0.2c-0.2 0.2-0.3 0.2-0.6 0.2l-0.1-0.4c-0.1 0.5-0.4 1-0.6 1.4-0.2-0.2-0.4-0.3-0.5-0.5h-0.2c-0.6-0.8-1.4-1.1-2.4-0.9 0.3 0 0.7-0.1 1.1-0.1-0.5-0.1-0.9-0.1-1.4-0.1 0.2-0.1 0.3-0.1 0.5-0.1 0-0.6 0-1.1-0.1-1.7-0.1 0.5-0.2 1-0.1 1.6-0.2 0-0.4-0.1-0.6-0.2-0.1-0.1-0.1-0.2 0.1-0.2-0.1-0.2-0.2-0.2-0.3-0.1 0-0.3 0-0.7-0.1-1 0.1-0.2 0.3-0.4 0.5-0.5l0.3 0.2 0.1-0.1c-0.3-0.3-0.3-0.5-0.3-0.8 0.1 0.1 0.2 0.2 0.2 0.3 0-0.2 0.1-0.4 0.2-0.6 0.2-0.2 0.4-0.2 0.7 0-0.2 0.1-0.4 0.1-0.6 0.1 0 0.4 0 0.7 0.2 1.1 0.1-0.1 0.2-0.3 0.2-0.5l0.1 0.2c0 0.2 0 0.4 0 0.6 0.4-0.3 0.6-0.8 0.6-1.3l0.2 0.9c0.1-0.4 0.2-0.7 0.4-1 0-0.1-0.1-0.1-0.1-0.1-0.3-0.2-0.5-0.2-0.8-0.2-0.2-0.1-0.3-0.3-0.4-0.6 0.2 0 0.3 0 0.4 0v0.5c0.3 0.1 0.6 0 0.9-0.1 0.2 0.1 0.3 0.2 0.4 0.2 0 0.1-0.1 0.2-0.2 0.2 0.2 0.3 0.3 0.6 0.4 1 0.1-0.4 0.3-0.7 0.5-0.9 0 0.4 0.1 0.4 0.2 0.1 0 0.3 0.1 0.4 0.4 0.5-0.6 0.3-0.6 0.4 0.1 0.3 0-0.1 0.1-0.2 0.1-0.3-0.1-0.1-0.2-0.3-0.3-0.4 0.1-0.1 0.2-0.1 0.3-0.2-0.1 0-0.1-0.1-0.1-0.1v-0.2c0.2 0.2 0.3 0.2 0.5 0 0.1-0.2 0-0.4-0.2-0.6 0.1-0.1 0.1-0.2 0.1-0.3z"></path><path fill="#5f3523" d="m15.9 1.3c0.2 0 0.3 0.1 0.1 0.2-0.1 0-0.1-0.1-0.1-0.2z"></path><path fill="#f3d7be" d="m19.2 1c0 0 0 0.1 0.1 0.1-0.1 0.1-0.2 0.1-0.3 0.2 0.1 0.1 0.2 0.3 0.3 0.4 0 0.1-0.1 0.2-0.1 0.3-0.7 0.1-0.7 0-0.1-0.3-0.3-0.1-0.4-0.2-0.4-0.5 0.1-0.2 0.3-0.3 0.5-0.2z"></path><path fill="#a17860" d="m19.2 0.8v0.2c-0.2-0.1-0.4 0-0.5 0.2-0.1 0.3-0.2 0.3-0.2-0.1 0-0.1-0.1-0.1-0.2-0.1-0.4 0.4-0.4 0.3-0.1-0.2 0.3-0.2 0.7-0.2 1 0z"></path><path fill="#6d452d" d="m16.5 0.8c0.3 0 0.5 0 0.8 0.2-0.3-0.1-0.5 0-0.8 0.1 0-0.1 0-0.2 0-0.3z"></path><path fill="#eed7bd" d="m23.1 1.7l0.7 0.3c0 0.1-0.1 0.1-0.2 0.2-0.1-0.1-0.2-0.1-0.3 0l0.4 0.2-0.6 0.2c0.2 0.1 0.3 0.2 0.4 0.4-0.3-0.1-0.5-0.1-0.7-0.2 0.1-0.4 0.3-0.7 0.3-1.1z"></path><path fill="#7f5342" d="m23.1 1.7c0 0.4-0.2 0.7-0.3 1.1-0.1 0-0.1-0.1-0.1-0.2 0.1-0.3 0.1-0.5-0.3-0.7 0.2 0 0.3 0 0.4 0.2 0.1-0.2 0.2-0.3 0.3-0.4z"></path><path fill="#94705b" d="m23.9 2.6c-0.1 0.1-0.2 0.2-0.3 0.4h-0.1c-0.1-0.2-0.2-0.3-0.4-0.4l0.6-0.2-0.4-0.2c0.1-0.1 0.2-0.1 0.3 0 0.1-0.1 0.2-0.1 0.2-0.2 0-0.1 0.1-0.2 0.2-0.1-0.1 0.2-0.1 0.5-0.1 0.7z"></path><path fill="#e7eacb" d="m8.8 1.1c-0.2 0.4-0.6 0.6-1.1 0.7-0.2 0.1-0.2 0.3-0.2 0.5-0.4 0-0.7 0.1-0.9 0.3-1.2 1-2.2 2-3.2 3.2l-0.1-0.1c-0.2 0.3-0.4 0.5-0.8 0.7l1.5-1.8c1.1-1.1 2.3-2 3.5-2.9 0.4-0.2 0.9-0.5 1.3-0.6z"></path><path fill="#1c1e1b" d="m7.5 1.7c-1.2 0.9-2.4 1.8-3.5 2.9-0.1-0.1-0.1-0.2-0.1-0.3 0.3-0.2 0.6-0.6 0.7-1l0.1 0.1c0.1-0.1 0.3-0.2 0.5-0.2 0.1-0.2 0.2-0.3 0.3-0.4l0.1 0.1c0.2-0.2 0.4-0.4 0.6-0.6 0.2-0.1 0.2-0.2 0-0.3 0.5 0.1 0.8-0.1 1.1-0.5 0 0.1 0.1 0.2 0.2 0.2z"></path><path fill="#f3f6c4" d="m6.6 2.6c0 0.2-0.1 0.3-0.2 0.4 0.1 0.1 0.2 0.1 0.4 0 0 0.1 0 0.2 0 0.3-0.3 0.3-0.6 0.6-0.9 0.9-0.7 0.5-1.3 1.1-1.8 1.7-0.4 0.5-0.8 1-1.2 1.5-0.1-0.1-0.1-0.2-0.2-0.3-0.1 0.2-0.2 0.2-0.3 0-0.2 0.2-0.4 0.3-0.7 0.4 0.3-0.4 0.6-0.8 0.8-1.1 0.4-0.2 0.6-0.4 0.8-0.7l0.1 0.1c1-1.2 2-2.2 3.2-3.2z"></path><path fill="#e0c19f" d="m30.9 3.7c1 0.8 1.9 1.8 2.7 3-0.9-0.7-1.6-1.5-2.3-2.4-0.4-0.1-0.5-0.3-0.4-0.6z"></path><path fill="#684026" d="m15.1 4.2h0.1c0.5 0 0.9 0 1.4 0.1-0.4 0-0.8 0.1-1.1 0.1h-0.4v-0.2z"></path><path fill="#dcbe93" d="m8 4c0.2-0.2 0.5-0.3 0.7-0.3 0 0.1-0.1 0.2-0.1 0.2 0.2 0.3 0.3 0.5 0.3 0.8-0.2-0.3-0.4-0.4-0.6-0.6-0.1 0.1-0.2 0.2-0.4 0.3l0.4 0.3c-0.2 0.1-0.5 0.2-0.7 0.2 0.1 0.2 0.3 0.3 0.6 0.3-0.2 0.2-0.4 0.2-0.5 0-0.1 0.1-0.1 0.3 0 0.4 0 0.1-0.1 0.1-0.2 0.1-0.1-0.7-0.2-0.7-0.3-0.1-0.5 0.4-0.4 0.5 0.2 0.2-0.1 0.3-0.3 0.4-0.6 0.4-0.2-0.2-0.4-0.4-0.6-0.6 0.2-0.2 0.3-0.4 0.5-0.5-0.2-0.1-0.4-0.2-0.5-0.3-0.2 0.2-0.2 0.5-0.2 0.8-0.1-0.1-0.2 0-0.3 0.1-0.2 0.1-0.3 0.3-0.2 0.5 0.1-0.2 0.2-0.3 0.4-0.4 0.1 0.1 0.1 0.3-0.1 0.4l0.7 0.1c0.1 0.1 0.1 0.2 0.1 0.3-0.1 0.2-0.3 0.3-0.5 0.3 0.2-0.1 0.3-0.3 0.2-0.4-0.3 0.1-0.5 0.3-0.7 0.6-0.5 0.2-0.8 0-0.9-0.5 0 0.1-0.1 0.2-0.1 0.3l-0.2-0.1c0.1-0.2 0.2-0.4 0.2-0.7-0.2 0-0.4 0-0.5-0.2 0.5-0.6 1.1-1.2 1.8-1.7 0.4-0.1 0.7-0.3 1-0.7 0 0.2 0 0.3 0 0.5-0.2 0-0.4 0.1-0.5 0.3 0.2 0.3 0.4 0.3 0.5-0.1 0 0.2 0.1 0.3 0.2 0.1 0 0.1 0.1 0.3 0 0.4-0.2-0.1-0.3 0-0.2 0.2 0.1-0.1 0.2-0.1 0.4 0 0.1-0.2 0.2-0.5 0.3-0.7 0.2 0.1 0.4 0 0.4-0.2z"></path><path fill="#cda381" d="m15.1 4.2v0.2c0 0.1 0 0.2-0.1 0.2 0-0.1 0-0.1-0.1-0.2-0.2 0.2-0.5 0.3-0.8 0.3-0.1 0.1-0.2 0.2-0.2 0.3l-1 0.7c-0.2-0.6-0.6-1.1-1-1.5-0.1-0.1-0.2-0.1-0.3-0.2-0.3 0-0.6 0-0.9 0-0.4 0.3-0.7 0.7-0.7 1.2l-0.3 0.1c0-0.1-0.1-0.2-0.1-0.3-0.1 0.1-0.3 0.1-0.4 0.2 0 0.4 0 0.8 0.2 1.2-0.1 0.1-0.3 0.1-0.5 0 0.2-0.5 0-1-0.5-1.3-0.1 0.1-0.2 0.1-0.2 0.1-0.3 0-0.5-0.1-0.6-0.3 0.2 0 0.5-0.1 0.7-0.2l-0.4-0.3c0.2-0.1 0.3-0.2 0.4-0.3 0.2 0.2 0.4 0.3 0.6 0.6 0-0.3-0.1-0.5-0.3-0.8 0 0 0.1-0.1 0.1-0.2-0.2 0-0.5 0.1-0.7 0.3-0.1 0-0.1-0.1-0.2-0.2 0.6-0.5 1.2-0.8 1.8-1.1 0.3-0.4 0.7-0.4 1-0.1-0.5 0.2-0.7 0.5-0.4 1.1 0.5 0.1 0.8 0 0.8-0.6 0 0 0.1-0.1 0.1-0.2-0.1-0.2-0.2-0.5-0.4-0.7 0.2-0.2 0.3-0.3 0.3-0.6 0.1 0 0.2 0 0.3 0.1-0.3 0.1-0.2 0.2 0.1 0.3 0.1-0.2 0.2-0.4 0.4-0.5 0.1 0.1 0.3 0.1 0.4 0 0.2 0 0.4 0.1 0.5 0.2-0.4 0.1-0.5 0.3-0.4 0.6 0.5 0.1 0.6 0.3 0.1 0.6 0.2 0.1 0.4 0 0.5-0.1 0.1-0.4-0.1-0.6-0.5-0.7 0.3-0.1 0.6 0.1 0.8 0.3 0-0.3 0.1-0.4 0.2-0.1 0-0.3 0-0.6 0-1 0.3 0 0.6 0 0.8 0 0.1 0.1 0.2 0.2 0.1 0.3-0.2-0.2-0.5-0.2-0.7-0.2 0 0.4 0 0.8 0.1 1.2 0.3 0 0.5-0.2 0.6-0.5-0.1 0.5-0.1 1.1 0 1.7 0.2 0 0.3 0 0.4 0 0.1 0.2 0.2 0.3 0.4 0.4z"></path><path fill="#714732" d="m11.9 4.2c-0.4-0.1-0.8-0.1-1.2 0.1-0.3 0.2-0.6 0.6-0.7 0.9 0-0.5 0.3-0.9 0.7-1.2 0.3 0 0.6 0 0.9 0 0.1 0.1 0.2 0.1 0.3 0.2z"></path><path fill="#f3d7b7" d="m10.6 2.6c0.1 0.2 0.3 0.3 0.4 0.5 0 0.6-0.3 0.7-0.8 0.6-0.3-0.6-0.1-0.9 0.4-1.1z"></path><path fill="#f1d4b7" d="m9.2 3.2c0.1 0 0.3 0 0.4 0.1 0.1 0.3 0.3 0.5 0.6 0.7-0.2 0.1-0.4 0.1-0.6-0.1l-0.1 0.4c-0.2-0.3-0.4-0.5-0.6-0.8 0.1-0.1 0.2-0.2 0.3-0.3z"></path><path fill="#563826" d="m9.3 3.4c0.2 0 0.2 0.1 0.1 0.3-0.1-0.1-0.1-0.2-0.1-0.3z"></path><path fill="#b58c71" d="m10.3 2.9c0.4 0 0.5 0.3 0.4 0.6-0.4 0-0.6-0.2-0.4-0.6z"></path><path fill="#f3d6b5" d="m11.6 2.1c0.3 0.3 0.4 0.6 0.4 1-0.2-0.1-0.3-0.2-0.5-0.3 0 0.1 0 0.3 0 0.5-0.3-0.3-0.4-0.6-0.3-1 0.5 0.5 0.6 0.4 0.4-0.2z"></path><path fill="#f4d6bc" d="m12.7 1.7c0 0.1 0.1 0.1 0.1 0.2-0.2 0-0.3 0.1-0.4 0.2 0.4 0.1 0.6 0.3 0.5 0.7-0.1 0.1-0.3 0.2-0.5 0.1 0.5-0.3 0.4-0.5-0.1-0.6-0.1-0.3 0-0.5 0.4-0.6z"></path><path fill="#faddb6" d="m17.9 5.3c0 0.5-0.2 0.6-0.6 0.5-0.5-0.1-0.9 0-1.3 0.3-0.3 0.5-0.5 0.9-0.7 1.4-0.1 0.2-0.1 0.4 0.1 0.5 0.3 0.6 0.5 1.3 0.5 2 0 0 0.1 0.1 0.1 0.1 0.1 0.4 0 0.7-0.1 1.1 0-0.3 0-0.7 0-1l-0.4-0.4c-0.1 0.2-0.2 0.3-0.4 0.3l0.5 0.4c-0.2 0.1-0.3 0.2-0.5 0.2-0.1-0.2-0.3-0.4-0.6-0.5-0.1 0.1 0 0.3 0.2 0.3-0.1 0.1-0.2 0.2-0.3 0.4l-0.1-0.4c0 0.5-0.1 0.9-0.2 1.3l0.2 0.1c-0.2 0.3-0.2 0.5 0 0.8 0 0.4-0.1 0.4-0.4 0.1 0-0.4 0-0.7 0-1 0.1-0.7 0.1-1.3-0.1-2-0.2-0.9-0.5-1.9-0.7-2.9 0.1-0.2 0.2-0.5 0.2-0.8 0.2-0.1 0.3-0.1 0.5-0.1 0 0.4 0.1 0.4 0.2 0.1l-0.1-0.3c0 0.1-0.1 0.1-0.1 0 0.1-0.1 0.1-0.2 0-0.3 0.1-0.2 0.3-0.2 0.4-0.1-0.1 0.1 0 0.3 0.1 0.4 0-0.2 0.1-0.5 0-0.7 0.6 0.2 1.2 0.1 1.7-0.3h1.2c0 0.2 0 0.3 0.1 0.5 0.2 0 0.4 0.1 0.6 0z"></path><path fill="#f7e2c0" d="m11.9 4.2c0.4 0.4 0.8 0.9 1 1.5 0 0.1 0 0.2 0.1 0.3 0.3-0.3 0.6-0.7 0.9-1 0.4-0.1 0.8-0.2 1.1-0.4 0.1 0 0.1-0.1 0.1-0.2h0.4c1-0.2 1.8 0.1 2.4 0.9-0.2 0.1-0.4 0-0.6 0-0.1-0.2-0.1-0.3-0.1-0.5h-1.2c-0.5 0.4-1.1 0.5-1.7 0.3 0.1 0.2 0 0.5 0 0.7-0.1-0.1-0.2-0.3-0.1-0.4-0.1-0.1-0.3-0.1-0.4 0.1 0.1 0.1 0.1 0.2 0 0.3 0 0.1 0.1 0.1 0.2 0l0 0.3c-0.1 0.3-0.2 0.3-0.2-0.1-0.2 0-0.3 0-0.5 0.1 0 0.3-0.1 0.6-0.2 0.8-0.2-0.5-0.5-1.1-0.8-1.6-0.2-0.7-0.7-1-1.5-0.9-0.2 0.3-0.4 0.7-0.5 1 0.4 1.7 0.7 3.4 1.1 5.1l0.1 0.5c0.1 0.3 0.1 0.5 0.1 0.7-0.1 0.1-0.2 0-0.3-0.1-0.4-1.6-0.8-3.2-1.3-4.8 0-0.5-0.1-1 0-1.6 0.1-0.3 0.4-0.7 0.7-0.9 0.4-0.2 0.8-0.2 1.2-0.1z"></path><path fill="#6d432e" d="m15 4.6c-0.3 0.2-0.7 0.3-1.1 0.4 0-0.1 0.1-0.2 0.2-0.3 0.3 0 0.6-0.1 0.8-0.3 0.1 0.1 0.1 0.1 0.1 0.2z"></path><path fill="#d0a980" d="m7.4 5.8c0-0.1 0-0.1 0.1-0.1 0.1 0 0.2 0 0.2-0.1-0.1-0.1-0.1-0.3-0.1-0.4 0.2 0.2 0.4 0.2 0.6 0 0 0 0.1 0 0.2-0.1 0.5 0.3 0.7 0.8 0.5 1.3 0.2 0.1 0.4 0.1 0.5 0-0.2-0.4-0.2-0.8-0.2-1.2 0.1-0.1 0.3-0.1 0.4-0.2 0 0.1 0.1 0.2 0.1 0.3 0 0.5 0 0.9 0.1 1.3 0.2 1 0.5 1.9 0.7 2.9-0.2-0.3-0.4-0.6-0.7-0.8-0.7 0.4-1.3 0.5-1.9 0.3l-0.1 0.1c0.3 0.2 0.6 0.4 0.9 0.6 0.2-0.2 0.4-0.2 0.6 0.1l-0.1 0.1c0.1 0 0.1 0.1 0.2 0.2-0.1 0.1-0.2 0.2-0.3 0.4 0.4 0.2 0.4 0.3-0.2 0.2v-0.3c-0.4-0.1-0.9-0.1-1.3 0-0.2 0-0.3-0.1-0.4-0.2 0 0.2-0.1 0.3-0.3 0.4 0.4 0.2 0.7 0.5 0.9 0.8 0.3 0 0.6 0.1 0.9 0.2 0.7-0.1 1.3-0.1 2-0.1 0-0.1 0-0.2 0.1-0.3 0.1 0.4 0.2 0.7 0.2 1.1-0.2-0.4-0.6-0.6-1-0.7-0.8 0.2-1.7 0.2-2.5 0.1-0.5-0.4-0.9-0.7-1.3-1.2-0.1-0.1 0-0.2 0.1-0.3 0.6 0.5 0.6 0.5 0.3-0.2 0.1 0 0.3 0 0.4 0.2 0.1-0.3 0.3-0.3 0.5-0.2 0.1-0.2 0.3-0.3 0.5-0.3-0.3-0.2-0.7-0.3-1.1-0.5-0.1-0.3-0.3-0.5-0.5-0.7-0.1-0.1-0.1-0.2 0-0.3 0.1 0.1 0.2 0.1 0.3-0.1-0.1-0.1-0.2-0.3-0.2-0.4 0.2-0.1 0.4-0.2 0.6-0.3l-0.2-0.1c0.2-0.1 0.3-0.3 0.1-0.5 0 0-0.1 0.1-0.1 0.1-0.1-0.1-0.2-0.2-0.3-0.3 0-0.1 0-0.2-0.1-0.3l-0.7-0.1c0.2-0.1 0.2-0.3 0.1-0.4 0-0.1-0.1-0.1-0.2-0.1 0.1-0.1 0.2-0.2 0.3-0.1 0-0.3 0-0.6 0.2-0.8 0.1 0.1 0.3 0.2 0.5 0.3-0.2 0.1-0.3 0.3-0.5 0.5 0.2 0.2 0.4 0.4 0.6 0.6 0.3 0 0.5-0.1 0.6-0.4z"></path><path fill="#5a3321" d="m6.7 5.3c0.2 0.1 0.2 0.2-0.1 0.4 0-0.1 0-0.3 0.1-0.4z"></path><path fill="#987255" d="m7.5 5.7c-0.1 0-0.1 0-0.1 0.1-0.6 0.3-0.7 0.2-0.2-0.2 0.1-0.6 0.2-0.6 0.3 0.1z"></path><path fill="#6e412f" d="m13.9 5c-0.3 0.3-0.6 0.7-0.9 1-0.1-0.1-0.1-0.2-0.1-0.3l1-0.7z"></path><path fill="#6a472d" d="m5.7 5.7c0.1 0 0.2 0 0.2 0.1-0.2 0.1-0.3 0.2-0.4 0.4-0.1-0.2 0-0.4 0.2-0.5z"></path><path fill="#c59e7f" d="m17.3 5.8c0.1 0.2 0.2 0.3 0.4 0.5-0.2 0-0.3 0.1-0.3 0.3-0.4 0-0.8 0-1.1 0-0.2 0.1-0.2 0.2-0.2 0.3 0.3 0 0.6 0 0.9 0-0.2 0.2-0.5 0.3-0.7 0.4-0.2 0.2-0.2 0.3 0.1 0.2 0 0.1 0 0.2 0.1 0.3 0.3 0 0.6 0 0.9 0-0.2 0-0.3 0.1-0.1 0.2 0.3-0.1 0.5-0.4 0.5-0.9 0.1 0 0.2-0.1 0.3-0.2-0.2-0.2-0.2-0.4-0.1-0.7 0.1 0.2 0.2 0.5 0.2 0.7 0.1 0 0.2 0 0.3 0.1-0.3 0.4-0.4 0.8-0.2 1.3 0 0.2-0.1 0.3-0.2 0.4 0-0.1-0.1-0.1-0.2-0.1 0.2-0.2 0.1-0.3-0.1-0.1-0.2-0.3-0.4-0.3-0.5 0 0.1 0.3 0 0.4-0.3 0.2-0.1 0.2-0.2 0.3-0.4 0.5 0 1.2 0 2.4 0 3.6-0.1-0.7-0.2-1.4-0.2-2.1-0.1-1-0.4-2-1-2.9 0 0.1-0.1 0.2 0 0.2-0.2-0.1-0.2-0.3-0.1-0.5 0.2-0.5 0.4-0.9 0.7-1.4 0.4-0.3 0.8-0.4 1.3-0.3z"></path><path fill="#d2af95" d="m24.9 9.5c-0.2 0.2-0.4 0.5-0.6 0.7 0 1.3 0 2.7 0 4l-0.6 0.6c0 0.7 0 1.3-0.2 1.9 0-0.6-0.1-1.1 0-1.7 0.1-0.3 0.3-0.6 0.6-0.8 0.1-1.1 0-2.3-0.1-3.5 0-0.5 0.3-0.9 0.8-1.2 0-0.8 0-1.6-0.1-2.4 0-0.1 0-0.3-0.1-0.5l-0.7-0.8-0.2-1.2c0-0.2-0.2-0.2-0.3-0.3-0.7 0.2-0.9 0-0.6-0.7 0.1-0.1 0.3-0.1 0.4 0 0.2 0.4 0.4 0.8 0.8 1.1 0.1-0.4 0-0.7-0.2-0.9l0.1-0.1 0.3 0.3c0-0.2-0.1-0.4-0.3-0.5 0.2 0 0.3 0 0.5 0.2 0 0.3 0.1 0.7 0.1 1.1 0.4 0.3 0.7 0.6 1 1-0.2 0.4-0.3 0.4-0.3-0.1l-0.1 1.6c-0.1-0.5-0.2-1-0.2-1.5-0.3-0.3-0.6-0.5-0.8-0.8-0.1 0.2-0.1 0.4-0.2 0.6l1 1c0 0.9 0 1.8 0.1 2.7 0 0.1-0.1 0.1-0.1 0.2z"></path><path fill="#f2b281" d="m26.7 1.1c0.8 0.4 1.6 0.8 2.4 1.2 0.6 0.4 1.2 0.9 1.8 1.4-0.1 0.3 0 0.5 0.4 0.6 0.7 0.9 1.4 1.7 2.3 2.4 0.9 1.4 1.6 2.9 2.3 4.4v2.7c-0.1-0.6-0.3-1.2-0.6-1.8-0.2-0.6-0.4-1.2-0.7-1.7-0.1-0.4-0.3-0.8-0.6-1.1-0.1-0.4-0.3-0.8-0.5-1.2 0 0-0.1-0.1-0.1-0.1-0.2-0.4-0.5-0.7-0.8-1-0.3-0.5-0.6-0.9-1-1.3-0.2-0.3-0.4-0.4-0.6-0.5-0.1-0.2-0.2-0.4-0.5-0.6-0.7-0.5-1.4-1-1.9-1.6-0.5-0.1-0.9-0.4-1.2-0.8-0.3-0.4-0.6-0.6-1-0.8 0.1 0 0.2-0.1 0.3-0.2z"></path><path fill="#794d34" d="m17.4 6.6l0.3 0.2c0.2 0 0.2 0.1 0 0.1-0.5-0.3-1-0.3-1.6 0 0-0.1 0-0.2 0.2-0.3 0.3 0 0.7 0 1.1 0z"></path><path fill="#efd8bf" d="m30.3 6.4c0.1 0 0.2 0 0.2 0.1 0 0.2-0.1 0.4-0.2 0.6-0.1 0.1-0.2 0.2-0.2 0.4-0.3-0.1-0.3-0.2-0.1-0.5-0.2 0-0.4-0.1-0.6-0.2 0.3-0.2 0.6-0.4 0.9-0.4z"></path><path fill="#bd937c" d="m30.2 6.1c-0.2 0.2-0.5 0.4-0.8 0.5-0.1 0.1-0.1 0.1 0 0.2 0.2 0.1 0.4 0.2 0.6 0.2-0.2 0.3-0.2 0.4 0.1 0.5 0 0.1 0 0.2 0.2 0.2 0.4-0.2 0.4-0.1 0.1 0.2-0.5-0.1-0.7 0.1-0.6 0.6 0.3 0.1 0.5 0.3 0.4 0.7-0.5 0.4-0.9 0.8-1.3 1.3-1.1 0.1-2.1 0.2-3.1 0.2l-0.4 0.4c-0.1 0.8-0.1 1.6 0 2.3 0.6 0.5 0.5 0.7-0.1 0.6 0-1-0.1-1.9-0.2-2.9 0-0.5 0.2-0.8 0.5-1.1-0.1-1.2-0.2-2.3-0.1-3.4 0.2 0.1 0.4 0.1 0.5-0.1 0.3 0.1 0.4 0.3 0.4 0.6 0.2-0.1 0.4-0.2 0.5-0.4-0.2-0.1-0.3-0.3-0.1-0.5 0.2 0.2 0.3 0.4 0.3 0.6 0.1 0 0.3 0 0.4-0.1 0.1 0.2 0.1 0.3 0 0.5l0.2 0.2c0.1-0.3 0.3-0.5 0.5-0.8-0.4-0.2-0.4-0.4-0.1-0.6l0.1 0.2c0.2-0.1 0.3-0.1 0.4 0 0-0.1 0.1-0.1 0.1-0.2 0 0.1 0.1 0.2 0.2 0.2 0 0.2 0.1 0.2 0.2 0.1 0.1-0.3 0.3-0.4 0.5-0.5 0.2 0.1 0.2 0.2 0 0.3 0.2 0.2 0.3 0.1 0.4-0.1-0.1-0.2-0.2-0.4-0.4-0.5 0-0.1-0.1-0.2-0.2-0.2 0.1-0.1 0.3-0.2 0.4-0.4l-0.3-0.1c0.1-0.1 0.2-0.2 0.2-0.4 0.2 0.4 0.4 0.7 0.7 0.9-0.1 0-0.2 0.1-0.3 0 0 0.3 0 0.6 0.1 0.8z"></path><path fill="#533629" d="m30.8 6.9c-0.2 0.3-0.4 0.4-0.7 0.6 0-0.2 0.1-0.3 0.2-0.4 0.1-0.1 0.3-0.2 0.5-0.2z"></path><path fill="#744736" d="m17 6.9c0.1 0 0.1 0 0.2 0.1l-0.3 0.3c-0.2 0-0.4 0.1-0.5 0.2-0.3 0.1-0.3 0-0.1-0.2 0.2-0.1 0.5-0.2 0.7-0.4z"></path><path fill="#c59f83" d="m23.7 0.6c0.2 0 0.4 0 0.5 0.1 1.1 0.4 2.2 0.9 3.2 1.4 0.3 0.4 0.7 0.7 1.2 0.8 0.5 0.6 1.2 1.1 1.9 1.6 0.3 0.2 0.4 0.4 0.5 0.6 0.3 0.5 0.8 1 1.2 1.4-0.2 0-0.4-0.1-0.6-0.3-0.1 0.2-0.2 0.3-0.4 0.3 0 0.4-0.2 0.4-0.4 0.1 0-0.2 0.1-0.2 0.1 0 0-0.5 0.1-0.5 0.5-0.2 0-0.3 0-0.5-0.1-0.7-0.1 0-0.3 0-0.4-0.1-0.2 0.1-0.4 0.3-0.5 0.5h-0.2c-0.1-0.2-0.1-0.5-0.1-0.8 0.1 0.1 0.2 0 0.3 0-0.3-0.2-0.5-0.5-0.7-0.9 0 0.2-0.1 0.3-0.2 0.4l0.3 0.2c-0.1 0.1-0.3 0.2-0.4 0.3-0.2 0.3-0.4 0.5-0.7 0.7 0 0.1-0.1 0.1-0.1 0.2-0.1-0.1-0.2-0.1-0.4 0l-0.1-0.2c-0.3 0.2-0.3 0.4 0.1 0.6-0.2 0.3-0.4 0.5-0.5 0.8l-0.2-0.2c0.1-0.2 0.1-0.3 0-0.5-0.1 0.1-0.3 0.1-0.4 0.1 0-0.2-0.1-0.4-0.3-0.6-0.2 0.2-0.1 0.4 0.1 0.5-0.1 0.2-0.3 0.3-0.5 0.4 0-0.3-0.1-0.5-0.4-0.6-0.1 0.2-0.3 0.2-0.5 0.1-0.1 1.1 0 2.2 0.1 3.4-0.3 0.3-0.5 0.6-0.5 1.1 0.1 1 0.2 1.9 0.2 2.9 0.6 0.1 0.7-0.1 0.1-0.6-0.1-0.7-0.1-1.5 0-2.3l0.4-0.4c1 0 2-0.1 3.1-0.2 0.4-0.5 0.8-0.9 1.3-1.3-0.4 0.5-0.8 1-1.3 1.5l-3 0.1-0.4 0.5c0.1 0.7 0.1 1.4 0.2 2.1 0.2 0.3 0.4 0.5 0.6 0.7h-1c-0.2-0.6-0.3-1.2-0.3-1.9l-0.1 2c-0.2-1.3-0.2-2.6-0.1-3.9 0.2-0.2 0.3-0.5 0.1-0.8 0-0.1 0.1-0.1 0.1-0.2-0.1-0.9-0.1-1.8-0.1-2.7l-1-1c0.1-0.2 0.1-0.4 0.2-0.6 0.2 0.3 0.5 0.5 0.8 0.8 0 0.5 0.1 1 0.2 1.5l0.1-1.6c0 0.5 0.1 0.5 0.3 0.1-0.3-0.4-0.6-0.7-1-1 0-0.4-0.1-0.8-0.1-1.1-0.2-0.2-0.3-0.2-0.5-0.2 0.2 0.1 0.3 0.3 0.3 0.5l-0.3-0.3-0.1 0.1c0.2 0.2 0.3 0.5 0.2 0.9-0.4-0.3-0.6-0.7-0.8-1.1-0.1-0.1-0.3-0.1-0.4 0-0.3 0.7-0.1 0.9 0.6 0.7 0.1 0.1 0.3 0.1 0.3 0.3l0.2 1.2 0.7 0.8c0.1 0.2 0.1 0.4 0.1 0.5-0.2 0.2-0.3 0.4-0.1 0.7-0.1 0-0.2 0-0.4 0 0-0.6 0-0.7-0.1-0.1-0.1-0.1-0.1-0.1-0.2-0.1 0-0.3 0-0.7 0-1-0.1-0.2-0.2-0.3-0.4-0.4 0.1-0.2 0.1-0.4 0-0.7-0.4-0.3-0.7-0.2-0.9 0.2 0-0.6-0.1-1.1-0.2-1.7 0.3-0.5 0.2-0.8-0.3-1.1 0.1-0.2 0.3-0.3 0.6-0.3 0 0.1 0 0.2 0.1 0.2 0.2 0.1 0.4 0.1 0.7 0.2h0.1c0.1 0.1 0.2 0.1 0.4-0.1 0 0.1 0 0.3 0.1 0.4 0.1-0.4 0.2-0.7 0.5-0.9-0.1-0.1-0.2-0.1-0.2-0.1-0.1 0.1-0.1 0.1-0.2 0.1 0-0.1-0.1-0.2-0.1-0.3 0 0.2-0.1 0.4-0.2 0.5 0-0.2 0-0.5 0.1-0.7-0.1-0.1-0.2 0-0.2 0.1l-0.7-0.3c0.2 0 0.4-0.1 0.6-0.1-0.1-0.1-0.2-0.1-0.4-0.1 0-0.2 0-0.4 0.1-0.5 0.2-0.1 0.3-0.2 0.3-0.4z"></path><path fill="#775741" d="m30.1 6.6c0.3 0 0.3 0.1 0 0.2-0.1 0-0.1-0.1 0-0.2z"></path><path fill="#512e20" d="m30.2 6.1h0.2l-0.1 0.3c-0.3 0-0.6 0.2-0.9 0.4-0.1-0.1-0.1-0.1 0-0.2 0.3-0.1 0.6-0.3 0.8-0.5z"></path><path fill="#6a4739" d="m29.4 5.3c0.1 0 0.2 0.1 0.2 0.2-0.3 0.2-0.5 0.4-0.7 0.7-0.1 0-0.2-0.1-0.2-0.2 0.3-0.2 0.5-0.4 0.7-0.7z"></path><path fill="#f6e7ce" d="m29.6 5.5c0.2 0.1 0.3 0.3 0.4 0.5-0.1 0.2-0.2 0.3-0.4 0.1 0.2-0.1 0.2-0.2 0-0.3-0.2 0.1-0.4 0.2-0.5 0.5-0.1 0.1-0.2 0.1-0.2-0.1 0.2-0.3 0.4-0.5 0.7-0.7z"></path><path fill="#f5dec5" d="m29 4.9c0.1 0.2 0 0.3-0.3 0.1l-0.1 0.2c0.2 0.3 0.1 0.5-0.2 0.6-0.2-0.1-0.3-0.2-0.4-0.3 0.1 0 0.3 0 0.5 0-0.1-0.3-0.1-0.5-0.1-0.7 0.2 0 0.4 0 0.6 0.1z"></path><path fill="#8f6a56" d="m28.4 4.6c0.2 0 0.4 0 0.6 0.1 0.1 0.1 0.1 0.2 0 0.2-0.2-0.1-0.4-0.1-0.6-0.1 0 0.2 0 0.4 0.1 0.7-0.2 0-0.4 0-0.5 0-0.1 0-0.2-0.1-0.2-0.2 0.2-0.2 0.4-0.5 0.6-0.7z"></path><path fill="#ebd5bb" d="m27.8 4c0.1 0.1 0.2 0.3 0.2 0.4-0.1 0.2-0.1 0.3-0.1 0.5 0.1-0.2 0.2-0.3 0.4-0.5 0.1 0 0.1 0.1 0.1 0.2-0.2 0.2-0.4 0.5-0.6 0.7-0.1-0.1-0.2-0.3-0.2-0.6l-0.4 0.3c0-0.1 0-0.1 0-0.2 0.1-0.2 0.2-0.4 0.3-0.6l0.3-0.2z"></path><path fill="#48281e" d="m27.4 4.2h0.1c-0.1 0.2-0.2 0.4-0.3 0.6-0.1 0-0.1-0.1-0.1-0.1l0.3-0.5z"></path><path fill="#704a39" d="m28.3 4.4c-0.2 0.2-0.3 0.3-0.4 0.5 0-0.2 0-0.3 0.1-0.5 0 0 0.1-0.1 0.2-0.2 0.1 0.1 0.1 0.1 0.1 0.2z"></path><path fill="#40180e" d="m27.8 4l-0.3 0.2c0-0.3 0.1-0.3 0.3-0.2z"></path><path fill="#f4dfc8" d="m26.5 3.5c-0.2 0.2-0.3 0.5-0.3 0.7-0.2-0.1-0.3-0.3-0.4-0.5l-0.2 0.2c-0.1 0-0.1-0.1-0.1-0.1 0.1-0.2 0.2-0.4 0.3-0.6 0.1 0 0.1 0 0.2-0.1-0.1 0.5 0 0.6 0.4 0.1 0.1 0.1 0.1 0.2 0.1 0.3z"></path><path fill="#f0d9c1" d="m27.2 3.5c0.1 0.2 0.2 0.5 0.2 0.7l-0.3 0.5c-0.5 0-0.7-0.2-0.7-0.6 0.1-0.4 0.3-0.6 0.8-0.6z"></path><path fill="#9b7763" d="m26.8 3.8h0.4c0 0.3-0.2 0.5-0.4 0.6-0.2-0.2-0.2-0.4 0-0.6z"></path><path fill="#704e3e" d="m27.2 3.5c-0.5 0-0.7 0.2-0.8 0.6l-0.2 0.1c0-0.2 0.1-0.5 0.3-0.7 0.2-0.2 0.5-0.2 0.7 0z"></path><path fill="#f0d9bf" d="m25.4 2.5c0.1 0.2 0.2 0.3 0.3 0.5h-0.3c0 0.3-0.1 0.5-0.4 0.7-0.1-0.1-0.1-0.2-0.1-0.3 0.1-0.2 0.2-0.4 0.4-0.6-0.1 0-0.2-0.1-0.3 0 0.1-0.2 0.2-0.3 0.4-0.3z"></path><path fill="#5a3625" d="m25 2.8c0.1-0.1 0.2 0 0.3 0-0.2 0.2-0.3 0.4-0.4 0.6 0 0-0.1 0-0.1-0.1 0.1-0.2 0.2-0.3 0.2-0.5z"></path><path fill="#f2dac1" d="m24.4 2.3c0 0 0.1 0 0.2 0.1-0.3 0.2-0.4 0.5-0.5 0.9-0.1-0.1-0.1-0.3-0.1-0.4-0.2 0.2-0.3 0.2-0.4 0.1 0.1-0.2 0.2-0.3 0.3-0.4 0.1-0.1 0.2-0.3 0.2-0.5 0 0.1 0.1 0.2 0.1 0.3 0.1 0 0.1 0 0.2-0.1z"></path><path fill="#99735f" d="m25.8 3.2c-0.1 0.2-0.2 0.4-0.3 0.6-0.1 0-0.1-0.1-0.1-0.1l0.3-0.7c-0.1-0.2-0.2-0.3-0.3-0.5-0.1 0-0.2-0.1-0.3-0.1 0.2-0.1 0.3-0.1 0.5 0 0.2 0.2 0.4 0.4 0.7 0.5-0.2 0-0.4 0.1-0.5 0.3z"></path><path fill="#472b1d" d="m24.4 2.3c-0.1 0-0.1 0-0.2-0.1 0.1-0.1 0.3-0.1 0.4-0.1-0.1 0.1-0.2 0.1-0.2 0.2z"></path><path fill="#c2977e" d="m31 5.1c0.2 0.1 0.4 0.2 0.6 0.5 0.4 0.4 0.7 0.8 1 1.3 0.1 0.5 0.4 0.8 0.8 1 0 0 0.1 0.1 0.1 0.1-0.1 0.1-0.1 0.1-0.1 0.2 0.2 0.3 0.4 0.7 0.6 1 0.1 0.3 0.2 0.6 0.4 0.9-0.5 0.1-1 0.1-1.5 0.1l0.2 0.2c0.2-0.1 0.5-0.1 0.7-0.1 0.1 0 0.1 0.1 0.1 0.2-0.2 0-0.4 0-0.5 0.1l-1.1 1c-0.1 0.2-0.1 0.3-0.1 0.4-0.3 0.2-0.3 0.1-0.2-0.2-0.1-0.3-0.3-0.4-0.6-0.4 0.2 0 0.2 0.1 0 0.1-0.4-0.1-0.4-0.3 0-0.5-0.2 0-0.3 0.1-0.5 0.3l-0.1 1.9c-0.2 0.4-0.6 0.6-0.9 0.7l0.7-0.7 0.1-1.9c0.4-0.5 0.8-0.7 1.4-0.6 0.4-0.3 0.5-0.7 0.5-1.2 0.2 0.2 0.3 0.1 0.2-0.1-0.1-0.2-0.3-0.2-0.5-0.2-0.1 0.2-0.1 0.4-0.1 0.6h-0.3c0-0.1 0-0.2-0.1-0.3-0.1 0.4 0 0.6 0.4 0.6 0 0.1-0.1 0.3-0.3 0.4-0.3 0.1-0.7 0.2-1 0.2-0.4 0.3-0.7 0.7-1 1.1-0.4 0-0.8 0.1-1.2 0.1l-1.1 1.2c-0.1 0.3-0.1 0.7-0.1 1h-0.2c0-0.3 0-0.7 0-1l1.4-1.4 1.1-0.1 0.9-1c0.1 0 0.1-0.1 0-0.2-0.2 0.3-0.4 0.4-0.7 0.3 0.5-0.1 0.5-0.3 0.2-0.6 0.2-0.4 0.5-0.6 0.9-0.5 0.4-0.4 0.8-0.6 1.4-0.7l-0.5-0.1c0.2-0.2 0.2-0.4 0.2-0.6 0-0.2 0.1-0.3 0.3-0.3-0.3 0-0.5-0.1-0.7-0.3 0.5-0.6 0.4-0.8-0.4-0.9-0.1 0.2-0.2 0.3-0.2 0.4-0.1-0.1-0.2-0.2-0.4-0.2-0.2 0-0.4 0.1-0.5 0.2 0.1-0.2 0.2-0.4 0.2-0.6 0-0.1-0.1-0.1-0.2-0.1l0.1-0.3c0.1-0.2 0.3-0.4 0.5-0.5 0.1 0.1 0.3 0.1 0.4 0.1 0.1 0.2 0.1 0.4 0.1 0.7-0.4-0.3-0.5-0.3-0.5 0.2 0-0.2-0.1-0.2-0.1 0 0.2 0.3 0.4 0.3 0.4-0.1 0.2 0 0.3-0.1 0.4-0.3 0.2 0.2 0.4 0.3 0.6 0.3-0.4-0.4-0.9-0.9-1.2-1.4z"></path><path fill="#90664f" d="m18.5 7c0.1 0.2 0.2 0.4 0.2 0.6-0.1 0.3-0.2 0.3-0.4 0 0.1 0.4 0.2 0.8 0.4 1.2 0 0.3-0.2 0.4-0.5 0.3 0.4-0.2 0.4-0.3-0.1-0.2l-0.2 0.2c-0.1-0.2 0-0.3 0.2-0.4 0.1-0.1 0.2-0.2 0.2-0.4-0.2-0.5-0.1-0.9 0.2-1.3z"></path><path fill="#905c41" d="m32.6 6.9c0.3 0.3 0.6 0.6 0.8 1-0.4-0.2-0.7-0.5-0.8-1z"></path><path fill="#85593f" d="m12.3 5.3c0.3 0.5 0.6 1.1 0.8 1.6 0.2 1 0.5 2 0.7 2.9 0.2 0.7 0.2 1.3 0.1 2l-0.2 0.5c0.1-0.8 0.1-1.6-0.1-2.5-0.3-1.5-0.7-3-1.3-4.5z"></path><path fill="#c89f7f" d="m12.3 5.3c0.6 1.5 1 3 1.3 4.5 0.2 0.9 0.2 1.7 0.1 2.5-0.1 0.2 0 0.4 0.1 0.6l-0.1 0.1c-0.1-0.1-0.2-0.2-0.2-0.3-0.1 0.5-0.1 1.1-0.2 1.6-0.1-0.9-0.1-1.8-0.2-2.8l-0.2 2.2c-0.4-1.2-0.9-2.3-1.4-3.3-0.1 0-0.1 0.1-0.1 0.1-0.4-1.7-0.7-3.4-1.1-5.1 0.1-0.3 0.3-0.7 0.5-1 0.8-0.1 1.3 0.2 1.5 0.9z"></path><path fill="#e8cbb1" d="m31.8 7.6c-0.3-0.1-0.6-0.2-0.9-0.3-0.1 0-0.2 0.2 0 0.3-0.2 0.6-0.4 1.1-0.7 1.6 0.1-0.4-0.1-0.6-0.4-0.7-0.1-0.5 0.1-0.7 0.6-0.6 0.3-0.3 0.3-0.4-0.1-0.2-0.2 0-0.2-0.1-0.2-0.2 0.3-0.2 0.5-0.3 0.7-0.6 0.2 0 0.3 0.1 0.4 0.2 0-0.1 0.1-0.2 0.2-0.4 0.8 0.1 0.9 0.3 0.4 0.9z"></path><path fill="#f4dcbb" d="m17.9 5.3h0.2c0.5 0.9 1 1.8 1.2 2.7l-0.3 0.5c0.2 0.4 0.3 0.8 0.1 1.2-0.2 0.4-0.4 0.7-0.6 1-0.4-0.1-0.4-0.4-0.2-0.6-0.2-0.1-0.4-0.2-0.6-0.1-0.1-0.1-0.1-0.2 0-0.3 0.1 0 0.3-0.1 0.5-0.3-0.7-0.1-0.7-0.4-0.3-0.8 0.1 0 0.2 0 0.2 0.1-0.2 0.1-0.3 0.2-0.2 0.4l0.2-0.2c0.5-0.1 0.5 0 0.1 0.2 0.3 0.1 0.5 0 0.5-0.3-0.2-0.4-0.3-0.8-0.4-1.2 0.2 0.3 0.3 0.3 0.4 0 0-0.2-0.1-0.4-0.2-0.6-0.1-0.1-0.2-0.1-0.3-0.1 0-0.2-0.1-0.5-0.2-0.7-0.1 0.3-0.1 0.5 0.1 0.7-0.1 0.1-0.2 0.2-0.3 0.2 0 0.5-0.2 0.8-0.5 0.9-0.2-0.1-0.1-0.2 0.1-0.2-0.3 0-0.6 0-0.9 0-0.1-0.1-0.1-0.2-0.1-0.3 0.1-0.1 0.3-0.2 0.5-0.2l0.3-0.3c-0.1-0.1-0.1-0.1-0.2-0.1-0.3 0-0.6 0-0.9 0 0.6-0.3 1.1-0.3 1.6 0 0.2 0 0.2-0.1 0-0.2l-0.3-0.1c0-0.2 0.1-0.3 0.3-0.3-0.2-0.2-0.3-0.3-0.4-0.5 0.4 0.1 0.6 0 0.6-0.5z"></path><path fill="#7e4e35" d="m33.5 8c0.2 0.4 0.4 0.8 0.5 1.2-0.2-0.3-0.4-0.7-0.6-1 0-0.1 0-0.1 0.1-0.2z"></path><path fill="#4c2f22" d="m31.8 8.5c-0.1 0.3-0.3 0.5-0.6 0.4l0.6-0.4z"></path><path fill="#d0b487" d="m4.1 5.9c0.1 0.2 0.3 0.2 0.5 0.2 0 0.3-0.1 0.5-0.2 0.7l0.2 0.1c0-0.1 0.1-0.2 0.1-0.3 0.1 0.5 0.4 0.7 0.9 0.5 0.2-0.3 0.4-0.5 0.7-0.6 0.1 0.1 0 0.3-0.2 0.4 0.2 0 0.4-0.1 0.5-0.3 0.1 0.1 0.2 0.2 0.3 0.3 0 0 0.1-0.1 0.1-0.1 0.2 0.2 0.1 0.4-0.1 0.5l0.2 0.1c-0.2 0.1-0.4 0.2-0.6 0.3 0 0.1 0.1 0.3 0.2 0.4-0.1 0.2-0.2 0.2-0.3 0.1-0.1 0.1-0.1 0.2 0 0.3 0.2 0.2 0.4 0.4 0.5 0.7 0.4 0.2 0.8 0.3 1.1 0.5-0.2 0-0.4 0.1-0.5 0.3-0.2-0.1-0.4-0.1-0.5 0.2-0.1-0.2-0.3-0.2-0.4-0.2 0.3 0.7 0.3 0.7-0.3 0.2-0.1 0.1-0.2 0.2-0.1 0.3 0.4 0.5 0.8 0.8 1.3 1.2 0.8 0.1 1.7 0.1 2.5-0.1 0.4 0.1 0.8 0.3 1 0.7v0.2c0.1 0.8-0.1 1.5-0.6 2.1h-0.2c0.2-0.2 0.3-0.5 0.5-0.7 0.5-1.6 0-2.3-1.6-2-0.7 0.1-1.3 0.2-1.8 0.3l-0.2-0.2c-0.4 0.2-0.8 0.4-1.2 0.7 0.1 0 0.2 0.1 0.3 0.2-0.4 0.2-1 0.4-1.5 0.4-0.2 0.4-0.5 0.6-0.9 0.5-0.5-0.1-0.9-0.4-1.2-0.9-0.1-0.2-0.4-0.2-0.6-0.2l-0.7 0c-0.1 0.3-0.2 0.6-0.3 0.9-0.1-0.2-0.2-0.3-0.2-0.5h-0.3c0-0.3 0.1-0.6 0.2-0.8 0-0.2 0-0.3-0.1-0.3 0.1-0.5 0.2-0.9 0.5-1.3 0 0.9 0 0.9 0.2 0.1 0.7-0.1 0.8 0.1 0.6 0.7-0.2 0.2-0.3 0.4-0.2 0.6 0.1-0.3 0.2-0.4 0.5-0.5 0.3 0.5 0.7 0.5 1.1 0 0.1 0.2 0.3 0.3 0.5 0.4l-0.3 0.2 0.4 0.3c0.3 0.2 0.7 0.3 1 0.5 0-0.2 0-0.4 0.2-0.5-0.4-0.2-0.7-0.5-0.9-0.9-0.1 0-0.3 0-0.4 0.2-0.1-0.2-0.3-0.3-0.4-0.5 0 0.1-0.1 0.2-0.2 0.2-0.4-0.2-0.7-0.2-1.1-0.1 0-0.3 0.1-0.5 0.3-0.7 0 0.2 0.1 0.3 0.2 0.4 0.7 0.3 0.7 0.2 0.2-0.2l0.5-0.3c-0.3 0-0.6-0.1-0.9-0.2 0.2-0.1 0.4-0.1 0.6-0.2-0.2-0.2-0.4-0.2-0.7 0-0.3-0.2-0.6-0.2-0.9-0.1 0.4-1 0.9-1.9 1.5-2.7 0.4-0.5 0.8-1 1.2-1.5z"></path><path fill="#764d33" d="m3.2 8.8c0.1 0 0.2 0 0.2 0.1-0.2 0.1-0.3 0.3-0.4 0.6 0-0.3 0-0.5 0.2-0.7z"></path><path fill="#e4c7ab" d="m32.2 8.2c0 0.2 0 0.4-0.2 0.6l0.5 0.1c-0.6 0.1-1 0.3-1.4 0.7-0.4-0.1-0.7 0.1-0.9 0.5-0.2 0.1-0.3 0.3-0.6 0.4 0.2-0.3 0.5-0.6 0.8-0.9-0.1-0.7 0.2-0.9 0.8-0.7 0.3 0.1 0.5-0.1 0.6-0.4l0.4-0.3z"></path><path fill="#cb9f7d" d="m10.5 9.5c0.4 1.2 0.7 2.4 0.9 3.6 0.1 0.6 0 1.1-0.4 1.5-0.1 0.1-0.2 0.1-0.3 0 0.4-0.3 0.6-0.7 0.5-1.2 0-0.3-0.1-0.6-0.2-0.9v-0.2c0-0.4-0.1-0.7-0.2-1.1-0.1 0.1-0.1 0.2-0.1 0.3-0.7 0-1.3 0-2 0.1-0.3-0.1-0.6-0.2-0.9-0.2-0.2-0.3-0.5-0.6-0.9-0.8 0.2-0.1 0.3-0.2 0.3-0.4 0.1 0.1 0.2 0.2 0.4 0.2 0.4-0.1 0.9-0.1 1.3 0v0.3c0.6 0.1 0.6 0 0.2-0.2 0.1-0.2 0.2-0.3 0.3-0.4-0.1-0.1-0.1-0.2-0.2-0.2l0.1-0.1c-0.2-0.3-0.4-0.3-0.6-0.1-0.3-0.2-0.6-0.4-0.9-0.6l0.1-0.1c0.6 0.2 1.2 0.1 1.9-0.3 0.3 0.2 0.5 0.5 0.7 0.8z"></path><path fill="#906247" d="m10 5.2c-0.1 0.6 0 1.1 0 1.6 0.5 1.6 0.9 3.2 1.3 4.8 0.2 1.3 0.6 2.5 1.2 3.6-0.2-0.1-0.3-0.3-0.5-0.5-0.2-0.6-0.4-1.1-0.6-1.6-0.2-1.2-0.5-2.4-0.9-3.6-0.2-1-0.5-1.9-0.7-2.9-0.1-0.4-0.1-0.8-0.1-1.3l0.3-0.1z"></path><path fill="#72442e" d="m34 9.2c0.3 0.3 0.5 0.7 0.6 1.1l-0.2-0.2c-0.2-0.3-0.3-0.6-0.4-0.9z"></path><path fill="#f8dec3" d="m32.6 9.5c-0.1 0.1-0.2 0.3-0.4 0.6-0.4 0-0.5-0.2-0.4-0.6 0.1 0.1 0.1 0.2 0.1 0.3h0.3c0-0.2 0-0.4 0.1-0.6 0.2 0 0.4 0 0.5 0.2 0.1 0.2 0 0.3-0.2 0.1z"></path><path fill="#b08771" d="m31.8 7.6c0.2 0.2 0.4 0.3 0.7 0.3-0.2 0-0.3 0.1-0.3 0.3l-0.4 0.3-0.6 0.4c-0.6-0.2-0.9 0-0.8 0.7-0.3 0.3-0.6 0.6-0.8 0.9-0.1 0.1-0.2 0.2-0.3 0.3-1 0-2.1 0.1-3.1 0.2l-0.3 0.3c-0.1 0.6-0.1 1.3 0 1.9 0.3 0.3 0.6 0.6 0.8 0.9h-0.4c-0.2-0.2-0.4-0.4-0.6-0.7-0.1-0.7-0.1-1.4-0.2-2.1l0.4-0.5 3-0.1c0.5-0.5 0.9-1 1.3-1.5 0.3-0.5 0.5-1 0.7-1.6-0.2-0.1-0.1-0.3 0-0.3 0.3 0.1 0.6 0.2 0.9 0.3z"></path><path fill="#ecddc4" d="m31.4 7.6c0.2 0.1 0.4 0.3 0.6 0.5-0.3 0-0.7 0.1-0.9 0.4l-0.2-0.1c0.1-0.2 0.3-0.3 0.5-0.5 0-0.1 0.1-0.2 0-0.3z"></path><path fill="#f5eaa4" d="m2.9 7.4c-0.6 0.8-1.1 1.7-1.5 2.7-0.2 0.1-0.3 0.4-0.3 0.6-0.3 0.4-0.4 0.8-0.5 1.3-0.2 0.6-0.5 1.2-0.7 1.8v-2.8c0.1 0 0.2-0.1 0.3-0.1 0.5-1.2 1-2.3 1.5-3.3v-0.1c0.3-0.1 0.5-0.2 0.7-0.4 0.1 0.2 0.2 0.2 0.3 0 0.1 0.1 0.1 0.2 0.2 0.3z"></path><path fill="#e2c19f" d="m33.6 6.7c1 1.2 1.8 2.5 2.3 3.9v0.5c-0.7-1.5-1.4-3-2.3-4.4z"></path><path fill="#e2e5bb" d="m1.7 7.6c-0.5 1-1 2.1-1.5 3.3-0.1 0-0.2 0.1-0.3 0.1v-0.3c0.4-0.5 0.6-1.1 0.9-1.8 0.3-0.4 0.6-0.9 0.9-1.3z"></path><path fill="#b98f74" d="m17.9 8.6c-0.4 0.4-0.4 0.7 0.3 0.9-0.2 0.1-0.4 0.2-0.5 0.2-0.1 0.1-0.1 0.2 0 0.3v0.9h0.7c-0.4 0-0.7 0.1-1 0.2-0.1 0.1-0.1 0.2-0.2 0.2-0.1-0.1-0.1-0.1-0.2 0-0.1 0.4-0.1 0.8 0 1.2 0 0.1 0.1 0.1 0.2 0.2 0 0.1 0.1 0.3 0.1 0.5 0.1 0.1 0.2 0.1 0.3 0.1-0.2-0.6-0.3-1.2-0.2-1.8 0.1 0 0.1-0.1 0.2-0.1 0.1 0.4 0.2 0.7 0.2 1 0.5 0.6 0.4 0.6-0.2 0.1l-0.1 0.2c0.4 0.2 0.7 0.5 1.1 0.9 0 0.1 0 0.2 0 0.3-0.4-0.1-0.7-0.3-1.1-0.5-0.5-0.3-1.1-0.5-1.7-0.7 0.2-0.1 0.3 0 0.4 0.1 0-0.9-0.1-1.8-0.2-2.7 0 0-0.1-0.1-0.1-0.1 0-0.7-0.2-1.4-0.5-2-0.1 0 0-0.1 0-0.2 0.6 0.9 0.9 1.9 1 2.9 0 0.7 0.1 1.4 0.2 2.1 0-1.2 0-2.4 0.1-3.6 0.1-0.2 0.2-0.3 0.3-0.5 0.3 0.2 0.4 0.1 0.3-0.2 0.1-0.3 0.3-0.3 0.5 0 0.2-0.2 0.3-0.1 0.1 0.1z"></path><path fill="#dec0a5" d="m17.2 8.9c0.2 0.1 0.4 0.2 0.4 0.5-0.1 0.2-0.3 0.4-0.4 0.6-0.5-0.4-0.5-0.7 0-1.1z"></path><path fill="#bc977c" d="m20.5 14.2c-0.4 0-0.7-0.1-1.1-0.2 0.1 0 0.2-0.1 0.2-0.3-0.2-0.5-0.6-0.9-1-1.3-0.1-0.5-0.1-1 0.2-1.4 0 0.2 0.1 0.4 0.2 0.6-0.1 0.5 0.2 0.9 0.6 1.2 0.1-1.2 0.1-2.3 0.1-3.4 0.4-0.5 0.8-1 1.3-1.5-0.2-0.5 0-0.7 0.4-0.8 0.2 0.1 0.3 0.2 0.3 0.4 0.1 0.6 0.1 1.3 0 1.9-0.2 0.1-0.3 0.3-0.2 0.4 0.2-0.1 0.4-0.4 0.5-0.6-0.1-0.7-0.1-1.3-0.2-1.9-0.1-0.2-0.3-0.4-0.5-0.5-0.5 0.3-0.7 0.7-0.6 1.2l-1.1 1.2-0.1 3.1-0.4-0.3c0-0.8 0-1.5 0-2.3 0.2-0.4 0.1-0.8-0.1-1.2l0.3-0.5c-0.2-0.9-0.7-1.8-1.2-2.7 0.1 0.2 0.3 0.3 0.5 0.5 0.2-0.4 0.5-0.9 0.6-1.4l0.2 0.4c0.2 0 0.3 0 0.5-0.2l0.1 0.2c0.3-0.2 0.6-0.4 0.9-0.5-0.2-0.1-0.3-0.2-0.3-0.4-0.1 0.2-0.3 0.4-0.4 0.5-0.2-0.2-0.4-0.2-0.6 0.2-0.3-0.3-0.2-0.5 0.1-0.6 0.2 0 0.4 0 0.6 0.1 0.4-0.7 0.9-0.8 1.5-0.1 0.1 0.4 0.1 0.9 0 1.3-0.5 0.6-1 1.2-1.5 1.7-0.1 0.7-0.5 1.2-1.1 1.4 0.1 0.8 0.3 0.8 0.5 0 0.5-0.3 0.8-0.8 0.8-1.4 0.5-0.5 1-1 1.5-1.5 0.1-0.5 0.1-1 0.1-1.5l-1.2-1.2c0.1-0.2 0.1-0.4 0.1-0.6l0.2 0.2 0.4-0.5c0.7 0.4 0.7 0.4 0.3-0.3 0.3-0.4 0.6-0.4 1 0-0.7-0.1-0.8 0.2-0.3 0.7-0.3 0.1-0.5 0.2-0.7 0.2 0-0.1 0-0.2 0-0.3-0.1 0-0.2 0-0.4 0.1-0.3 0.6-0.1 0.9 0.6 0.9 0.1 0 0.1 0.1 0.2 0.2 0 2 0.1 4 0.2 6-0.6 0.7-1.2 1.4-1.9 2-0.1 1-0.1 1.9-0.1 2.8z"></path><path fill="#41180a" d="m18.4 10.9c0.1 0 0.1 0 0.1 0.1-0.4 0.1-0.7 0.1-1.1 0.1 0.3-0.1 0.6-0.2 1-0.2z"></path><path fill="#d2ac95" d="m29.6 10.5c0 0.3-0.1 0.4-0.3 0.5l-2.9 0.1c-0.4 0.3-0.5 0.6-0.5 1.1 0 0.3 0.1 0.7 0.2 1 0.3 0.3 0.6 0.6 1 0.9h-0.4c-0.2-0.3-0.5-0.6-0.8-0.9-0.1-0.6-0.1-1.3 0-1.9l0.3-0.3c1-0.1 2.1-0.2 3.1-0.2 0.1-0.1 0.2-0.2 0.3-0.3z"></path><path fill="#b38b75" d="m30.2 10.1c0.3 0.3 0.3 0.5-0.2 0.6 0.3 0.1 0.5 0 0.7-0.3 0.1 0.1 0.1 0.2 0 0.2l-0.9 1-1.1 0.1-1.4 1.4c0 0.3 0 0.7 0 1h-0.2c-0.4-0.3-0.7-0.6-1-0.9-0.1-0.3-0.2-0.7-0.2-1 0-0.5 0.1-0.8 0.5-1.1l2.9-0.1c0.2-0.1 0.3-0.2 0.3-0.5 0.3-0.1 0.4-0.3 0.6-0.4z"></path><path fill="#603621" d="m15.1 10.7c0 0.4 0 0.8 0 1.2-0.1 0.2-0.2 0.2-0.3 0.1 0.2-0.4 0.3-0.7 0.2-1.1-0.1-0.2-0.2-0.3-0.3-0.4-0.2 0-0.3-0.2-0.2-0.3 0.3 0.1 0.5 0.3 0.6 0.5z"></path><path fill="#633821" d="m1.9 11.5c0.1 0 0.2 0 0.3 0.1-0.3 0.1-0.4 0.2-0.5 0.5-0.1-0.2 0-0.4 0.2-0.6z"></path><path fill="#c9a582" d="m2.2 11.6c-0.1-0.1-0.2-0.1-0.3-0.1 0.2-0.6 0.1-0.8-0.6-0.7-0.2 0.8-0.2 0.8-0.2-0.1 0-0.2 0.1-0.5 0.3-0.6 0.3-0.1 0.6-0.1 0.9 0.1 0.3-0.2 0.5-0.2 0.7 0-0.2 0.1-0.4 0.1-0.6 0.2 0.3 0.1 0.6 0.2 0.9 0.2l-0.5 0.3c0.5 0.4 0.5 0.5-0.2 0.2-0.1-0.1-0.2-0.2-0.2-0.4-0.2 0.2-0.3 0.4-0.3 0.7 0.4-0.1 0.7-0.1 1 0.1 0.2 0 0.3-0.1 0.3-0.2 0.1 0.2 0.3 0.3 0.4 0.5 0.1-0.2 0.3-0.2 0.4-0.2 0.2 0.4 0.5 0.7 0.9 0.9-0.2 0.1-0.2 0.3-0.2 0.5-0.3-0.2-0.7-0.3-1-0.5l-0.4-0.3 0.3-0.2c-0.2-0.1-0.4-0.2-0.5-0.4-0.4 0.5-0.8 0.5-1.1 0z"></path><path fill="#4c2a1c" d="m2 12c0.2 0 0.2 0.1 0.1 0.2-0.1 0-0.1-0.1-0.1-0.2z"></path><path fill="#81533d" d="m17.2 11.3v1.4c-0.1-0.1-0.2-0.1-0.2-0.2-0.1-0.4-0.1-0.8 0-1.2 0.1-0.1 0.1-0.1 0.2 0z"></path><path fill="#b69078" d="m23.5 6.2l0.1 0.4c0.1 0.9 0.1 1.8 0 2.7-0.6 0.7-1.2 1.4-1.9 2-0.1 1-0.1 2 0.1 2.9-0.2 0.1-0.4 0.2-0.6 0.3-0.3-0.1-0.5-0.1-0.7-0.3 0.2-0.9 0.3-1.8 0.3-2.8 0.7-0.6 1.3-1.2 1.8-1.9l0.1-3.4c0.3 0.1 0.5 0.2 0.8 0.1z"></path><path fill="#b38c76" d="m24.7 7.1c0.1 0.8 0.1 1.6 0.1 2.4-0.5 0.3-0.8 0.7-0.8 1.2 0.1 1.2 0.2 2.4 0.1 3.5-0.3 0.2-0.5 0.5-0.6 0.8l-0.5-0.2c-0.2-0.2-0.5-0.4-0.7-0.6-0.1-0.7-0.1-1.5 0-2.2 0.3-0.4 0.6-0.7 1.2-0.7 0.1-0.3 0-0.6-0.3-0.7-0.1-0.1-0.2-0.1-0.3 0-0.2 0.2-0.3 0.5-0.3 0.8-0.2 0.2-0.3 0.3-0.4 0.5l-0.1 2.4c-0.2-1-0.3-2-0.2-3 0.7-0.6 1.4-1.3 2-2 0-0.6 0-1.1 0-1.7 0.1 0 0.1 0 0.2 0.1 0.1-0.6 0.1-0.5 0.1 0.1 0.2 0 0.3 0 0.4 0-0.2-0.3-0.1-0.5 0.1-0.7z"></path><path fill="#d5b297" d="m19.4 14c0-0.2 0-0.4 0-0.6l-1.1-1c0-0.3 0-0.6 0-1-0.2 0-0.3 0-0.5 0.1 0.1 0.3 0.2 0.6 0.2 0.9 0.5 0.4 0.9 0.8 1.2 1.3-0.1 0.1-0.1 0.2-0.2 0.2h-0.4c0-0.1 0-0.2 0-0.3-0.4-0.4-0.7-0.7-1.1-0.9l0.1-0.2c0.6 0.5 0.7 0.5 0.2-0.1 0-0.3-0.1-0.6-0.2-1-0.1 0-0.1 0.1-0.2 0.1-0.1 0.6 0 1.2 0.2 1.8-0.1 0-0.2 0-0.3-0.1 0-0.2-0.1-0.4-0.1-0.5v-1.4c0.1 0 0.1-0.1 0.2-0.2 0.4 0 0.7 0 1.1-0.1 0-0.1 0-0.1-0.1-0.1h-0.7v-0.9c0.2-0.1 0.4 0 0.6 0.1-0.2 0.2-0.2 0.5 0.2 0.6 0.2-0.3 0.4-0.6 0.6-1 0 0.8 0 1.5 0 2.3l0.4 0.3 0.1-3.1 1.1-1.2c-0.1-0.5 0.1-0.9 0.6-1.2 0.2 0.1 0.4 0.3 0.5 0.5 0.1 0.6 0.1 1.2 0.2 1.9-0.1 0.2-0.3 0.5-0.5 0.6-0.1-0.1 0-0.3 0.2-0.4 0.1-0.6 0.1-1.3 0-1.9 0-0.2-0.1-0.3-0.3-0.4-0.4 0.1-0.6 0.3-0.4 0.8-0.5 0.5-0.9 1-1.3 1.5 0 1.1 0 2.2-0.1 3.4-0.4-0.3-0.7-0.7-0.6-1.2-0.1-0.2-0.2-0.4-0.2-0.6-0.3 0.4-0.3 0.9-0.2 1.4 0.4 0.4 0.8 0.8 1 1.3 0 0.2-0.1 0.3-0.2 0.3z"></path><path fill="#613624" d="m35.3 12c0.3 0.6 0.5 1.2 0.6 1.8v1c-0.1-0.2-0.2-0.5-0.2-0.8-0.2-0.7-0.3-1.3-0.4-2z"></path><path fill="#c39d7a" d="m10.2 14.6h-4.1c-0.1-0.1-0.1-0.1 0-0.2 0.2 0 0.4-0.1 0.6-0.2l-0.1-0.1c0.2-0.1 0.3-0.1 0.5-0.2l0.1 0.3c0.3 0 0.6-0.2 0.7-0.5-0.1-0.4-0.4-0.5-0.8-0.3-0.1-0.2-0.4-0.3-0.6-0.4-0.1-0.1-0.1-0.1-0.3-0.1-0.1-0.1-0.2-0.2-0.3-0.2 0.4-0.3 0.8-0.5 1.2-0.7l0.2 0.2c0.5-0.1 1.1-0.2 1.8-0.3 1.6-0.3 2.1 0.4 1.6 2-0.2 0.2-0.3 0.5-0.5 0.7z"></path><path fill="#b38f75" d="m19.4 14c-0.2 0-0.3 0-0.4-0.1 0.1 0 0.1-0.1 0.2-0.2-0.3-0.5-0.7-0.9-1.2-1.3 0-0.3-0.1-0.6-0.2-0.9 0.2-0.1 0.3-0.1 0.5-0.1 0 0.4 0 0.7 0 1l1.1 1c0 0.2 0 0.4 0 0.6z"></path><path fill="#80573f" d="m1.5 13.6c0.1 0 0.2 0.1 0.4 0.2-0.4-0.1-0.7 0-0.8 0.4-0.2-0.1-0.2-0.2-0.1-0.3 0.1-0.2 0.3-0.3 0.5-0.3z"></path><path fill="#c7ad7f" d="m6.5 13c0.2 0.1 0.5 0.2 0.6 0.4 0.4-0.2 0.7-0.1 0.8 0.3-0.1 0.3-0.4 0.5-0.7 0.5l-0.1-0.3c-0.2 0.1-0.3 0.1-0.5 0.2l0.1 0.1c-0.2 0.1-0.4 0.2-0.6 0.2-0.1 0.1-0.1 0.1 0 0.2-0.3 0.1-0.7 0.1-1.1 0.1 0-0.3-0.2-0.3-0.3-0.1-0.5 0.2-0.9 0-1-0.5-0.1 0.1-0.2 0.1-0.3 0.1-0.2-0.1-0.5-0.2-0.9-0.3-0.1-0.2-0.2-0.4-0.3-0.6 0.1-0.2 0.2-0.2 0.3 0l-0.1 0.1c0.4 0.1 0.7 0.3 0.9 0.5 0.7 0.3 1.2 0.1 1.6-0.5 0.2-0.1 0.4-0.1 0.7 0 0.2 0.3 0.4 0.3 0.8 0.2 0-0.2 0.1-0.4 0.1-0.6z"></path><path fill="#68412c" d="m17.5 13.4c0.4 0.2 0.7 0.4 1.1 0.5h0.4c0.1 0.1 0.2 0.1 0.4 0.1 0.4 0.1 0.7 0.2 1.1 0.2 0.2 0.2 0.4 0.2 0.7 0.3l0.2 0.2c-0.9-0.3-1.8-0.5-2.8-0.6-0.4-0.1-0.8-0.3-1.1-0.7z"></path><path fill="#4c2a1b" d="m25.3 14.1h2.2c0.6 0 1.1 0 1.6 0.1-1.4 0-2.7 0-4.1 0.1l0.3-0.2z"></path><path fill="#d6bd93" d="m2.6 12.9c0.3 0.5 0.7 0.8 1.2 0.9 0.4 0.1 0.7-0.1 0.9-0.5 0.5 0 1.1-0.2 1.5-0.4 0.2 0 0.2 0 0.3 0.1 0 0.2-0.1 0.4-0.1 0.6-0.4 0.1-0.6 0.1-0.8-0.2-0.3-0.1-0.5-0.1-0.7 0-0.4 0.6-0.9 0.8-1.6 0.6-0.2-0.3-0.5-0.5-0.9-0.6l0.1-0.1c-0.1-0.2-0.2-0.2-0.3 0 0.1 0.2 0.2 0.4 0.3 0.6 0.4 0.1 0.7 0.2 0.9 0.3-0.2 0.8-0.5 0.9-1 0.3-0.1 0.1-0.3 0.2-0.4 0.2-0.4-0.1-0.7-0.2-0.9-0.5 0.1-0.4 0.4-0.5 0.8-0.4-0.2-0.1-0.3-0.2-0.4-0.2 0-0.1 0.1-0.2 0.1-0.2-0.1-0.1-0.2-0.3-0.2-0.5h1.2z"></path><path fill="#b58c72" d="m13.7 12.3l0.2-0.5c0 0.3 0 0.6 0.1 1 0.2 0.3 0.3 0.3 0.3-0.1h0.4c0 0.3 0.2 0.5 0.4 0.7 0.2 0.1 0.3 0.1 0.4-0.1-0.1-0.2-0.3-0.4-0.5-0.6 0.6 0.2 1.1 0.4 1.6 0.7-0.1 0.2-0.2 0.2-0.3 0 0 0.8-0.1 1.5-0.2 2.3 0.1 0.1 0.1 0.1 0.2 0 0.2 0.2 0.3 0.4 0.3 0.6-0.1 0.2-0.3 0.3-0.5 0.4 0.4 0.3 0.7 0.4 1.2 0.3 0-0.3 0-0.7 0-1.1 0 0.4 0.1 0.7 0.3 0.9-0.2 0.3-0.4 0.4-0.7 0.5 0.1 0.1 0.2 0.1 0.3 0.1-0.2 0.1-0.3 0.2-0.5 0.2-0.4 0-0.8 0-1.2-0.1-0.2-0.2-0.4-0.4-0.6-0.6-0.6-0.7-1.2-1.4-1.7-2.1-0.5-1.3-1-2.6-1.7-3.8l-0.1-0.5c0 0 0-0.1 0.1-0.1 0.5 1 1 2.1 1.4 3.3l0.2-2.2c0.1 1 0.1 1.9 0.2 2.8 0.1-0.5 0.1-1.1 0.2-1.6 0 0.1 0.1 0.2 0.2 0.3l0.1-0.1c-0.1-0.2-0.2-0.4-0.1-0.6z"></path><path fill="#6b4831" d="m6.1 14.6h4.3c0.1 0 0.2 0.1 0.2 0.2-1.8-0.1-3.7-0.1-5.6 0-0.1 0.1-0.3 0.2-0.4 0.2 0.1-0.1 0.2-0.3 0.4-0.3 0.4 0 0.8 0 1.1-0.1z"></path><path fill="#c49e7a" d="m0.6 12c0.1 0 0.1 0.1 0.1 0.3-0.1 0.2-0.2 0.5-0.2 0.8h0.3c0 0.2 0.1 0.3 0.2 0.5 0.1-0.3 0.2-0.6 0.3-0.9l0.7 0c0.2 0 0.5 0 0.6 0.2h-1.2c0 0.2 0.1 0.4 0.2 0.5 0 0-0.1 0.1-0.1 0.2-0.2 0-0.4 0.1-0.5 0.3-0.1 0.1-0.1 0.2 0.1 0.3 0.2 0.3 0.5 0.4 0.9 0.5 0.1 0 0.3-0.1 0.4-0.2 0.5 0.6 0.8 0.5 1-0.3 0.1 0 0.2 0 0.3-0.1 0.1 0.5 0.5 0.7 1 0.5 0.1-0.2 0.3-0.2 0.3 0.1-0.2 0-0.3 0.2-0.4 0.3-0.4 0.2-0.6 0.4-0.8 0.7-0.5-0.6-0.8-0.6-1.2 0.1-0.2-0.1-0.4-0.2-0.6-0.3-0.1-0.1-0.2-0.1-0.3-0.3 0 0 0-0.1-0.1-0.1-0.2 0.1-0.4 0.2-0.5 0.4 0-0.1-0.1-0.2-0.1-0.3-0.2 0.2-0.2 0.4-0.2 0.6 0 0.1 0 0.1-0.1 0.1-0.2-0.2-0.5-0.2-0.8-0.2v-1.9c0.2-0.6 0.5-1.2 0.7-1.8z"></path><path fill="#f5e3c1" d="m29.1 14.2c0.6 0 1.3 0.1 1.9 0.2 0.3 0.2 0.6 0.6 0.8 1v0.7h-0.4c-0.1-0.9-0.3-0.9-0.5 0-0.1-0.1-0.2-0.2-0.2-0.3-0.1-0.2-0.2-0.4-0.4-0.5-0.4-0.1-0.8-0.1-1.2-0.1-0.1 0.3-0.2 0.5-0.2 0.7-0.2-0.4-0.4-0.4-0.4 0-0.1-0.1-0.2-0.2-0.4-0.2 0 0.8 0 1.6 0.1 2.5l-0.1 0.1c-0.1-0.4-0.2-0.9-0.3-1.3 0.1-0.6 0-1.1-0.2-1.6h-1.7c-0.5 0-0.8 0.3-0.8 0.9-0.2 0-0.4 0.1-0.5 0.4-0.1-0.5-0.3-0.5-0.5-0.1 0.1-0.1 0-0.2-0.1-0.2 0-0.4 0-0.9 0.1-1.3 0.3-0.2 0.5-0.4 0.7-0.6 0.1 0 0.2-0.1 0.2-0.2 1.4-0.1 2.7-0.1 4.1-0.1z"></path><path fill="#f1dbb8" d="m10.6 14.8c1 0.6 1.3 1.4 1 2.6-0.1 0.2-0.2 0.3-0.3 0.4-0.1 0-0.1 0-0.1-0.1 0.3-0.6 0.2-0.7-0.3-0.2 0-0.2 0.1-0.4 0.3-0.5-0.3-0.4-0.5-0.4-0.7 0 0.1-0.4 0-0.8-0.3-1.1-0.5-0.1-0.9-0.1-1.4-0.1-0.1 0.4-0.1 0.9-0.1 1.4-0.2-0.2-0.5-0.3-0.7-0.3-0.1 0.4-0.2 0.8-0.2 1.2-0.1-0.7-0.1-1.3-0.2-2v-0.2c-0.7-0.1-1.5-0.1-2.3 0-0.3 0.2-0.4 0.5-0.2 0.9 0 0.1 0.1 0.1 0.2 0.1 0.4 0.3 0.7 0.5 1.2 0.6 0.3 0.3 0.6 0.6 0.9 0.9 0 0 0 0.1-0.1 0.1l-0.6-0.6c-0.7-0.3-1.4-0.6-2-1.1-0.1 0.1-0.1 0.2-0.3 0.2 0.1-0.1 0-0.3-0.2-0.4-0.1 0.1-0.2 0.2-0.3 0.3 0-0.3 0-0.6 0-0.9 0.1-0.4 0.3-0.7 0.7-1 0.1 0 0.3-0.1 0.4-0.2 1.9-0.1 3.8-0.1 5.6 0z"></path><path fill="#4d2c1d" d="m24.8 14.5c-0.2 0.2-0.4 0.4-0.7 0.6 0.1-0.3 0.4-0.5 0.7-0.6z"></path><path fill="#ceac94" d="m23.5 6.2c0.2 0.1 0.3 0.2 0.4 0.4 0 0.3 0 0.7 0 1 0 0.6 0 1.1 0 1.7-0.6 0.7-1.3 1.4-2 2-0.1 1 0 2 0.2 3l0.1-2.4c0.1-0.2 0.2-0.3 0.4-0.5 0-0.3 0.1-0.6 0.3-0.8 0.1-0.1 0.2-0.1 0.3 0 0.3 0.1 0.4 0.4 0.3 0.7-0.6 0-0.9 0.3-1.2 0.7-0.1 0.7-0.1 1.5 0 2.2 0.2 0.2 0.5 0.4 0.7 0.6-0.1 1-0.2 1-0.3 0-0.1-0.1-0.1-0.1-0.3-0.1 0.2 0.2 0.2 0.4 0.1 0.5-0.2-0.3-0.4-0.7-0.7-1-0.2-0.9-0.2-1.9-0.1-2.9 0.7-0.6 1.3-1.3 1.9-2 0.1-0.9 0.1-1.8 0-2.7l-0.1-0.4z"></path><path fill="#684631" d="m34.8 14.8c-0.1 0-0.1 0-0.1 0.1 0 0.1 0 0.2-0.2 0.2-0.2 0.1-0.5 0.2-0.7 0.3-0.1-0.1-0.1-0.2 0.1-0.3 0.3 0 0.6-0.1 0.8-0.4 0.1 0 0.1 0 0.1 0.1z"></path><path fill="#f0d9bc" d="m34.7 14.9c0.1 0 0.2 0 0.2 0.1 0 0.2 0.1 0.4 0.1 0.5 0 0.1-0.1 0.2-0.2 0.2 0-0.1 0-0.3-0.1-0.3-0.3 0.1-0.6 0.1-0.9 0 0.2-0.1 0.5-0.2 0.7-0.3 0.2 0 0.2-0.1 0.2-0.2z"></path><path fill="#623725" d="m1.7 15.2c-0.2 0.1-0.4 0.3-0.6 0.5 0-0.1 0-0.1 0-0.2 0.1-0.2 0.3-0.3 0.5-0.4 0.1 0 0.1 0.1 0.1 0.1z"></path><path fill="#f4d6b1" d="m1.1 15.5c0 0.1 0 0.1 0 0.2 0.2-0.2 0.4-0.4 0.6-0.5 0.1 0.2 0.2 0.2 0.3 0.3-0.1 0.7-0.2 0.7-0.4 0-0.1 0.4-0.4 0.5-0.8 0.3 0-0.2 0-0.4 0.2-0.6 0 0.1 0.1 0.2 0.1 0.3z"></path><path fill="#ba9977" d="m8.8 15.8c0.5 0 0.9 0 1.4 0.1 0.3 0.3 0.4 0.7 0.3 1.1h-0.1c0 0 0 0-0.1-0.1-0.1 0.2-0.2 0.3-0.2 0.4-0.4 0.2-0.8 0.3-1.2 0.4-0.1-0.6-0.1-1.2-0.1-1.9z"></path><path fill="#6c4b37" d="m24.1 15.1c-0.1 0.4-0.1 0.9-0.1 1.3 0 0.1 0 0.1 0 0.2-0.3-0.5-0.2-1 0.1-1.5z"></path><path fill="#ac836e" d="m29.1 15.2c0.4 0 0.8 0 1.2 0.1 0.2 0.1 0.3 0.3 0.4 0.5-0.1 0.9-0.6 1.4-1.5 1.3 0.2 0.1 0.4 0.1 0.6 0.1-0.2 0.1-0.5 0.1-0.7 0.1v-2.1z"></path><path fill="#b48772" d="m32.6 9.5c0 0.5-0.1 0.9-0.5 1.2-0.6-0.1-1 0.1-1.4 0.6l-0.1 1.9-0.7 0.7c0.3-0.1 0.7-0.3 0.9-0.7l0.1-1.9c0.2-0.2 0.3-0.3 0.5-0.3-0.4 0.2-0.4 0.4 0 0.5 0.2 0 0.2-0.1 0-0.1 0.3 0 0.5 0.1 0.6 0.4-0.1 0.3-0.1 0.4 0.2 0.2-0.1 0.2-0.2 0.4-0.3 0.7 0.3 0.5 0.6 0.5 0.9 0 0-0.2-0.1-0.4-0.3-0.5-0.1-0.2-0.1-0.4 0-0.6l0.9-0.8c0.4 0 0.8-0.1 1.2-0.2-0.2-0.1-0.4-0.1-0.7-0.1 0-0.1 0-0.2-0.1-0.2-0.2 0-0.5 0-0.7 0.1l-0.2-0.2c0.5 0 1 0 1.5-0.1l0.2 0.2c0.3 0.5 0.5 1.1 0.7 1.7 0.1 0.7 0.2 1.3 0.4 2-0.2 0.3-0.5 0.6-0.9 0.8 0-0.1 0-0.1-0.1-0.1-0.2 0.3-0.5 0.4-0.8 0.4-0.2 0.1-0.2 0.2-0.1 0.3 0.3 0.1 0.6 0.1 0.9 0 0.1 0 0.1 0.2 0.1 0.3-0.3 0-0.7 0-1 0.1-0.1 0.3-0.1 0.5 0.1 0.8 0-0.1 0.1-0.1 0.1-0.1 0.1 0.1 0.1 0.1 0.3 0.1v0.1c-0.3 0.1-0.5 0.3-0.5 0.6 0.1 0.4 0.1 0.7 0.1 1.1-0.1 0-0.1 0.1-0.2 0.2l-0.1-0.5c-0.1 0.2-0.1 0.2-0.2-0.2 0 0.4-0.2 0.6-0.6 0.6 0.2 0.1 0.3 0.2 0 0.3-0.1-0.2-0.2-0.3-0.3-0.5 0.2-0.2 0.3-0.3 0.3-0.6-0.2 0-0.3 0.1-0.4 0.2-0.1-0.3-0.2-0.3-0.3 0-0.2-0.2-0.4-0.2-0.6 0 0-0.2 0.1-0.4 0.3-0.5 0.2 0.3 0.4 0.3 0.5 0-0.1-0.1-0.1-0.2 0-0.3-0.2-0.1-0.3-0.2-0.4-0.4 0-0.5 0-0.9-0.1-1.3-0.2-0.4-0.5-0.8-0.8-1-0.6-0.1-1.3-0.2-1.9-0.2-0.5-0.1-1-0.1-1.6-0.1 0-0.3 0-0.7 0.1-1l1.1-1.2c0.4 0 0.8-0.1 1.2-0.1 0.3-0.4 0.6-0.8 1-1.1 0.3 0 0.7-0.1 1-0.2 0.2-0.1 0.3-0.3 0.3-0.4 0.2-0.3 0.3-0.5 0.4-0.6z"></path><path fill="#f0d8ba" d="m33.8 13.3c-0.1 0-0.2 0.1-0.2 0.1 0 0.2 0.1 0.3 0.1 0.4 0.3 0.1 0.6 0.1 0.8-0.1 0.1 0.1 0.1 0.2-0.1 0.4 0.2 0 0.3 0.1 0.4 0.2-0.2 0.1-0.5 0.1-0.8 0.1-0.3 0.2-0.4 0.1-0.1-0.2-0.1-0.1-0.3-0.1-0.4-0.2-0.4-0.9-0.1-1.2 0.9-1 0.1 0.2 0.1 0.3 0 0.4-0.2-0.4-0.4-0.4-0.4 0.2-0.1-0.1-0.1-0.2-0.2-0.3z"></path><path fill="#774c3a" d="m33.8 13.3c0 0.5 0.2 0.6 0.6 0.3 0 0 0.1 0 0.1 0.1-0.2 0.2-0.5 0.2-0.8 0.1 0-0.1-0.1-0.2-0.1-0.4 0 0 0.1-0.1 0.2-0.1z"></path><path fill="#dcc8ae" d="m28.2 12.8c0.4 0 0.6 0.2 0.5 0.6-0.2 0.3-0.5 0.3-0.7 0-0.1-0.2 0-0.4 0.2-0.6z"></path><path fill="#debfa6" d="m33.9 10.5c0.3 0 0.5 0 0.7 0.1-0.4 0.1-0.8 0.2-1.2 0.2l-0.9 0.8c-0.1 0.2-0.1 0.4 0 0.6 0.2 0.1 0.3 0.3 0.3 0.5-0.3 0.5-0.6 0.5-0.9 0 0.1-0.3 0.2-0.5 0.3-0.7 0-0.1 0-0.2 0.1-0.4l1.1-1c0.1-0.1 0.3-0.1 0.5-0.1z"></path><path fill="#f4ddc3" d="m33.8 12.1c0.4 0.1 0.5 0.2 0.3 0.6-0.2-0.5-0.3-0.4-0.3 0.1-0.3 0.1-0.5 0.1-0.7-0.1-0.1-0.2-0.1-0.3 0-0.4 0.1 0.1 0.2 0.3 0.3 0.4l0.4-0.6z"></path><path fill="#73503d" d="m33.8 12.1l-0.4 0.6c-0.1-0.5 0.1-0.8 0.5-0.8 0 0.1-0.1 0.1-0.1 0.2z"></path><path fill="#c8b486" d="m3.8 15.7l-0.1 0.2c-0.1 0.4-0.2 0.7-0.2 1.1-0.1 0.1-0.1 0.1-0.2 0.2-0.3-0.3-0.5-0.3-0.8 0-0.6-0.6-0.5-1 0.1-1.1v-0.3c0.4-0.7 0.7-0.7 1.2-0.1z"></path><path fill="#6e4c35" d="m4.6 15c-0.4 0.3-0.6 0.6-0.7 1-0.1 0.3-0.2 0.7-0.1 1-0.1-0.3-0.2-0.7-0.1-1.1l0.1-0.2c0.2-0.3 0.4-0.5 0.8-0.7z"></path><path fill="#855a45" d="m35 16.8c-0.2 0-0.5-0.1-0.7-0.1v-0.1c0.2-0.1 0.4-0.1 0.6-0.1 0.3-0.1 0.3-0.3 0.1-0.6-0.4-0.1-0.7-0.1-1.1 0.1 0.2 0.1 0.3 0.2 0.5 0.2-0.2 0.1-0.3 0.2-0.4 0.3 0 0-0.1 0-0.1 0.1-0.2-0.3-0.2-0.5-0.1-0.8 0.3-0.1 0.7-0.1 1-0.1 0.1 0 0.2-0.1 0.2-0.2 0-0.1-0.1-0.3-0.1-0.5 0.1 0 0.2 0 0.2-0.1 0.2 0.7 0.2 1.3-0.1 1.9z"></path><path fill="#ecd6b6" d="m34.3 16.6c-0.2 0-0.2 0-0.3-0.1 0.1-0.1 0.2-0.2 0.4-0.3-0.2 0-0.3-0.1-0.5-0.2 0.4-0.2 0.7-0.2 1.1-0.1 0.2 0.3 0.2 0.5-0.1 0.6-0.2 0-0.4 0-0.6 0.1z"></path><path fill="#c4a67d" d="m7.6 15.9c-0.1 0.7-0.2 1.4-0.3 2-0.3-0.2-0.5-0.3-0.8-0.4-0.4-0.3-0.7-0.5-1.2-0.6-0.1 0-0.2 0-0.2-0.1-0.2-0.4-0.1-0.7 0.2-0.9 0.8-0.1 1.6-0.1 2.3 0z"></path><path fill="#e7ceaf" d="m34.3 16.7c0.2 0 0.5 0.1 0.7 0.1 0.2 0.3 0.2 0.6-0.1 0.9-0.8 0.1-1.1-0.3-0.6-1z"></path><path fill="#d8d0ac" d="m-0.1 17c0.5 0.1 0.7 0.3 0.5 0.8-0.2 0-0.3 0-0.5 0v-0.8z"></path><path fill="#eac8a7" d="m16 10.1c0.1 0.9 0.2 1.8 0.2 2.7-0.1-0.1-0.2-0.2-0.4-0.1 0.6 0.2 1.2 0.4 1.7 0.7 0.3 0.4 0.7 0.6 1.1 0.7 1 0.1 1.9 0.3 2.8 0.6 0.7 0.4 1.3 0.9 1.8 1.6 0.1 0.3 0.1 0.6 0.1 1-0.1 0.6-0.1 1.2-0.2 1.8-0.2-0.2-0.4-0.1-0.5 0.1-0.2 0.2-0.5 0.5-0.7 0.7-0.1 0.7-0.2 1.4-0.5 2.1 0-0.4-0.1-0.5-0.3-0.2-0.1-0.2-0.2-0.5-0.2-0.7 0 0.3-0.1 0.5-0.1 0.8v-0.8c-0.1-0.3-0.2-0.7-0.3-1-0.4-0.1-0.8-0.1-1.2-0.1-0.6-0.2-1.3-0.2-1.9 0-0.2-0.1-0.4 0-0.5 0.2-0.1 0.9-0.1 1.7-0.2 2.6-0.2 0.1-0.3 0.1-0.1-0.2-0.1-0.1-0.2-0.2-0.3-0.3l-0.3 0.5c-0.1 0.1-0.2 0.1-0.3 0-0.1-0.8-0.2-1.5-0.3-2.3 0-0.2-0.1-0.3-0.2-0.2-0.2-0.5-0.3-1-0.5-1.6-0.7-1.1-1.4-2.3-2.2-3.5-0.6-1.1-1-2.3-1.2-3.6 0.1 0.1 0.2 0.2 0.3 0.1 0-0.2 0-0.4-0.1-0.7 0.7 1.2 1.2 2.5 1.7 3.8 0.5 0.7 1.1 1.4 1.7 2.1 0.3 0.9 0.9 1.2 1.8 0.7 0.2 0 0.3-0.1 0.5-0.2 0.6-0.4 1.2-0.9 1.8-1.4 0.1-0.1 0.2-0.3 0.2-0.4-0.2-0.4-0.4-0.7-0.7-1-0.6-0.4-1.3-0.8-1.9-1.2-0.5-0.3-1-0.5-1.6-0.7 0.2 0.2 0.4 0.4 0.5 0.6-0.1 0.2-0.2 0.2-0.4 0.1-0.2-0.2-0.4-0.4-0.4-0.7h-0.4c-0.2-0.3-0.2-0.5 0-0.8l-0.2-0.1c0.1-0.4 0.2-0.8 0.2-1.3l0.1 0.4c0.1-0.2 0.2-0.3 0.3-0.4 0.1 0.1 0.2 0.2 0.3 0.4 0.1 0.4 0 0.7-0.2 1.1 0.1 0.1 0.2 0.1 0.3-0.1 0-0.4 0-0.8 0-1.2 0.2 0 0.3-0.1 0.5-0.2l-0.5-0.4c0.2 0 0.3-0.1 0.4-0.3l0.4 0.4c0 0.3 0 0.7 0 1 0.1-0.4 0.2-0.7 0.1-1.1z"></path><path fill="#b9957b" d="m16.6 13.4c0.6 0.4 1.3 0.8 1.9 1.2 0.3 0.3 0.5 0.6 0.7 1-0.2 0.1-0.4 0.2-0.5 0.5-0.1 0-0.3 0.1-0.4 0v0.4c-0.3 0-0.5 0.1-0.7 0.3-0.2-0.2-0.3-0.5-0.3-0.9 0 0.4 0 0.8 0 1.1-0.5 0.1-0.8 0-1.2-0.3 0.2-0.1 0.4-0.2 0.5-0.4 0-0.2-0.1-0.4-0.3-0.6-0.1 0.1-0.1 0.1-0.2 0 0.1-0.8 0.2-1.5 0.2-2.3 0.1 0.2 0.2 0.2 0.3 0z"></path><path fill="#8d614b" d="m15.7 11.5c0.2 0.1 0.2 0.3 0.2 0.5 0 0.4-0.2 0.4-0.3 0 0.1-0.2 0.1-0.3 0.1-0.5z"></path><path fill="#603e2f" d="m19.2 15.6c0 0.1-0.1 0.3-0.2 0.4-0.6 0.5-1.2 1-1.8 1.4-0.1 0-0.2 0-0.3-0.1 0.3-0.1 0.5-0.2 0.7-0.5 0.2-0.2 0.4-0.3 0.7-0.3v-0.4c0.1 0.1 0.3 0 0.4 0 0.1-0.3 0.3-0.4 0.5-0.5z"></path><path fill="#5d311e" d="m34.3 17.2c0.2 0.1 0.4 0.1 0.6 0.1l-0.3 0.1c-0.2 0-0.3-0.1-0.3-0.2z"></path><path fill="#7c5441" d="m34.3 16.7c-0.5 0.7-0.2 1.1 0.6 1-0.1 0.1-0.4 0.2-0.9 0.2 0.1 0.2 0.3 0.3 0.5 0.3-0.2 0.1-0.4 0.2-0.5 0.4-0.1 0-0.1-0.1-0.1-0.2 0-0.4 0-0.7-0.1-1.1 0-0.3 0.2-0.5 0.5-0.6z"></path><path fill="#bf937c" d="m35.7 14c0 0.3 0.1 0.6 0.2 0.8v4.7c-0.2 0.1-0.3 0-0.3-0.3 0.3-0.2 0.2-0.4-0.2-0.4 0-0.1 0-0.2 0.1-0.4l-0.2-0.1c0.1 0 0.3 0 0.4 0 0.1-0.2 0.1-0.3 0-0.5-0.2 0.2-0.4 0.3-0.5 0.4-0.4-0.2-0.7-0.3-1.2-0.3 0.5 0 0.8-0.1 0.9-0.2 0.3-0.3 0.3-0.6 0.1-0.9 0.3-0.6 0.3-1.2 0.1-1.9 0 0.1-0.1 0.1-0.2 0.1 0-0.1-0.1-0.1-0.2-0.1 0-0.1 0-0.1 0.1-0.1 0.4-0.2 0.7-0.5 0.9-0.8z"></path><path fill="#69422c" d="m14.9 16.9c0.2 0.2 0.4 0.4 0.6 0.7 0.4 0 0.8 0 1.2 0-0.9 0.5-1.5 0.2-1.8-0.7z"></path><path fill="#ab816d" d="m31.9 16.7c0.1 0.2 0.2 0.3 0.4 0.4-0.1 0.1-0.1 0.2 0 0.3-0.1 0.3-0.3 0.3-0.5 0-0.2 0.1-0.3 0.3-0.3 0.5 0.2-0.2 0.4-0.2 0.6 0 0.1-0.3 0.2-0.3 0.3 0 0.1-0.1 0.2-0.2 0.4-0.2 0 0.3-0.1 0.4-0.3 0.6 0.1 0.2 0.2 0.3 0.3 0.5 0.3-0.1 0.2-0.2 0-0.3 0.4 0 0.6-0.2 0.6-0.6 0.1 0.4 0.1 0.4 0.2 0.2l0.1 0.5c0.1-0.1 0.1-0.2 0.2-0.2 0 0.1 0 0.2 0.1 0.2l0.9 0.2c0.2 0 0.3-0.1 0.3-0.3-0.6 0-0.6-0.1 0-0.3 0.1-0.1 0.3-0.2 0.5-0.4 0.1 0.2 0.1 0.3 0 0.5-0.1 0-0.3 0-0.4 0l0.2 0.2c-0.1 0.1-0.1 0.2-0.1 0.3 0.4 0 0.5 0.2 0.2 0.4 0 0.3 0.1 0.4 0.3 0.3v0.9c-0.3 1.9-0.9 3.7-1.8 5.4 0.1-0.1 0-0.2-0.1-0.2 0.2-0.2 0.1-0.3-0.2-0.3 0.1-0.4 0.3-0.7 0.6-1-0.1-0.1-0.2-0.1-0.3-0.2 0.1-0.3 0.2-0.6 0.4-0.9 0.1-0.3 0.1-0.6 0.1-1 0.1 0.1 0.2 0.2 0.3 0.2l0.1-0.1c-0.1-0.2-0.1-0.5 0-0.7l0-0.2c0 0.1-0.1 0.2-0.2 0.3 0-0.2 0-0.3-0.1-0.4 0.1-0.2 0.3-0.4 0.5-0.7 0.1-0.3 0-0.4-0.2-0.1 0-0.1-0.1-0.2-0.2-0.3 0.1 0 0.2 0 0.2-0.1-0.4-0.1-0.8-0.2-1.2-0.1-0.1 0.1-0.1 0.2-0.1 0.3-0.2 0.6-0.7 0.9-1.4 0.9-0.2 0.2-0.4 0.4-0.6 0.6 0-0.1 0-0.1-0.1-0.1-0.6 0.7-0.8 0.6-0.6-0.4 0-0.2-0.1-0.4-0.2-0.5 0-0.4-0.1-0.7-0.1-1.1 0.2 0 0.3-0.2 0.3-0.5-0.2-0.3-0.4-0.7-0.5-1.1 0.7-0.2 1.2-0.7 1.4-1.4z"></path><path fill="#936e51" d="m7.6 15.9v0.2c0 0.9 0 1.7-0.1 2.5 0-0.1-0.1-0.2-0.1-0.2-0.3-0.3-0.6-0.6-0.9-0.9 0.3 0.1 0.5 0.2 0.8 0.4 0.1-0.6 0.2-1.3 0.3-2z"></path><path fill="#e5c3a2" d="m8.8 15.8c0 0.7 0 1.3 0.1 1.9 0.7 0.1 1.2-0.1 1.5-0.7h0.1c0.2-0.4 0.4-0.4 0.7 0-0.2 0.1-0.3 0.3-0.3 0.5 0.5-0.5 0.6-0.4 0.3 0.2 0 0.1 0 0.1 0.1 0.1-0.1 0.3-0.1 0.5 0 0.8 0.4 0.3 0.7 0.7 0.8 1.3 0 0.2-0.1 0.5-0.3 0.6l-0.1 1.3c-0.1-0.7 0-1.4 0.3-2-0.1-0.4-0.4-0.6-0.7-0.8-0.1-0.3-0.3-0.5-0.4-0.7-0.3 0.1-0.6 0.2-0.9 0.3h-1.2c-0.1 0.2-0.3 0.5-0.3 0.8-0.1-0.2-0.2-0.4-0.3-0.7 0 0.2-0.1 0.3 0 0.5h-0.4c0-0.4 0-0.7 0-1-0.1 0.4-0.2 0.7-0.4 1.1l-0.2-0.5c-0.2 0.2-0.4 0.3-0.7 0.3 0 0.2 0 0.4-0.1 0.5v-0.5c-0.3-0.4-0.7-0.6-1.2-0.7-0.4-0.3-0.8-0.6-1.1-0.9-0.1-0.2-0.2-0.3-0.3-0.5-0.1-0.3 0-0.7 0.1-1 0 0.3 0 0.6 0 0.9 0.1-0.1 0.2-0.2 0.3-0.3 0.2 0.1 0.3 0.3 0.2 0.4 0.2 0 0.2-0.1 0.3-0.2 0.6 0.5 1.3 0.8 2 1.1l0.6 0.6c0.1 0 0.1-0.1 0.1-0.1 0 0 0.1 0.1 0.1 0.2 0.1-0.8 0.1-1.6 0.1-2.5 0.1 0.7 0.1 1.3 0.2 2 0-0.4 0.1-0.8 0.2-1.2 0.2 0 0.5 0.1 0.7 0.3 0-0.5 0-1 0.1-1.4z"></path><path fill="#6e4d36" d="m10.4 17c-0.3 0.6-0.8 0.8-1.5 0.7 0.4-0.1 0.8-0.2 1.2-0.4 0-0.1 0.1-0.2 0.2-0.4 0.1 0.1 0.1 0.1 0.1 0.1z"></path><path fill="#7f5f43" d="m5.3 16.9c0.5 0.1 0.8 0.3 1.2 0.6-0.5-0.1-0.8-0.3-1.2-0.6z"></path><path fill="#edcfac" d="m29.1 15.2v2.1c0.2 0 0.5 0 0.7-0.1 0.7-0.2 1-0.6 0.9-1.4 0 0.1 0.1 0.2 0.2 0.3 0.2-0.9 0.4-0.9 0.5 0h0.4v-0.7c0.1 0.4 0.1 0.8 0.1 1.3-0.2 0.7-0.7 1.2-1.4 1.4 0.1 0.4 0.3 0.8 0.5 1.1 0 0.3-0.1 0.5-0.3 0.5h-0.2c-0.2 0-0.4-0.1-0.4-0.4 0.2-0.3 0.3-0.7 0.3-1.1-0.4 0-0.8 0-1.2 0 0 0.1 0 0.2 0 0.3 0.4-0.1 0.4 0 0 0.2-0.1-0.5-0.2-0.5-0.4-0.1l-0.1-0.1c-0.2 0.3-0.3 0.3-0.4-0.1-0.1 0.3-0.4 0.4-0.7 0.4l0.1 0.1c-0.2 0.3-0.4 0.2-0.4-0.2 0 0.1-0.1 0.2-0.1 0.3-0.2-0.1-0.3-0.2-0.4-0.4l-0.1 0.8c-0.1 0.1-0.2 0.1-0.3 0.1 0.2-0.3 0.3-0.7 0.1-1.1-0.5-0.3-1-0.6-1.6-0.8-0.3-0.3-0.6-0.6-0.8-1 0.2-0.4 0.4-0.4 0.5 0.1 0.1-0.3 0.3-0.4 0.5-0.4 0-0.6 0.3-0.9 0.8-0.9 0.2 0.3 0.3 0.8 0.2 1.2 0.1-0.7-0.2-0.9-0.8-0.8-0.1 0.3 0 0.6 0.3 0.7 0.8 0.3 1.4 0.7 2 1.2l0.2 0.4c0-0.4 0.1-0.7 0-1.1 0.1 0.4 0.2 0.9 0.3 1.3l0.1-0.1c-0.1-0.9-0.1-1.7-0.1-2.5 0.2 0 0.3 0.1 0.4 0.2 0-0.4 0.2-0.4 0.4 0 0-0.2 0.1-0.4 0.2-0.7z"></path><path fill="#462617" d="m30.7 15.8c0.1 0.8-0.2 1.2-0.9 1.4-0.2 0-0.4 0-0.6-0.1 0.9 0.1 1.4-0.4 1.5-1.3z"></path><path fill="#6f4c38" d="m27.6 15.4c0.2 0.5 0.3 1 0.2 1.6 0.1 0.4 0 0.7 0 1.1l-0.2-0.4c0-0.8 0-1.5 0-2.3z"></path><path fill="#a5856f" d="m25.9 15.4h1.7c0 0.8 0 1.5 0 2.3-0.6-0.5-1.2-0.9-2-1.2-0.3-0.1-0.4-0.4-0.3-0.7 0.6-0.1 0.9 0.1 0.8 0.8 0.1-0.4 0-0.9-0.2-1.2z"></path><path fill="#ecd3b3" d="m34 17.9c0.5 0 0.8 0.1 1.2 0.3-0.6 0.2-0.6 0.3 0 0.3 0 0.2-0.1 0.3-0.3 0.3l-0.9-0.2c0.1-0.2 0.3-0.3 0.5-0.4-0.2 0-0.4-0.1-0.5-0.3z"></path><path fill="#f8ddb8" d="m1.6 18.6c0.1 0 0.1 0.1 0.1 0.1-0.1 0.1-0.2 0.2-0.3 0.3-0.1 0-0.1 0-0.1 0.1 0.2 0.1 0.4 0.1 0.6 0.1-0.4 0.1-0.8 0.1-1.2 0.2v-0.6c0.1-0.1 0.1-0.1 0.3-0.2 0.2 0.1 0.4 0.1 0.6 0z"></path><path fill="#2e0d05" d="m34.9 18.8v0.2c-0.1-0.1-0.3 0-0.4 0.1 0.1-0.2 0.2-0.3 0.4-0.3z"></path><path fill="#7c5539" d="m1.5 18.4c0.3 0 0.3 0.1 0.1 0.2-0.2 0.1-0.4 0.1-0.6 0-0.2 0.1-0.2 0.1-0.3 0.2l-0.2 0.5c0-0.3 0-0.6 0.2-0.8 0.3 0 0.6 0 0.8-0.1z"></path><path fill="#be9f75" d="m5.2 18.4c0.5 0.1 0.9 0.3 1.2 0.7-0.1 0.2-0.2 0.5-0.3 0.8-0.8 0.1-1.6 0.1-2.3 0v1c-0.1-0.4-0.2-0.8-0.1-1.3 0.1 0 0.3 0 0.5 0-0.2-0.2-0.4-0.3-0.7-0.4 0.7-0.1 1.3-0.3 1.7-0.8z"></path><path fill="#cbaa88" d="m8.8 18.6h1.2c-0.1 1.2 0 2.3 0.1 3.5-0.1 0.1-0.1 0.1-0.2 0-0.1-1.1-0.2-2.2-0.2-3.4-0.1 1.2-0.1 2.4 0 3.5 0.9 1 0.9 1-0.1 0.1-0.2-1.2-0.2-2.4-0.3-3.6 0 1.2 0 2.4 0 3.6l0.7 0.7c-0.4-0.2-0.7-0.4-0.9-0.7l-0.1-3.6c-0.1 0.6-0.1 1.1-0.1 1.6-0.1-0.5-0.1-1.1-0.1-1.7z"></path><path fill="#623d24" d="m6.4 19.1v0.5c-0.1 0.1-0.2 0.2-0.3 0.3 0.1-0.3 0.2-0.6 0.3-0.8z"></path><path fill="#af8870" d="m11 12.5c0.1 0.3 0.2 0.6 0.2 0.9 0.1 0.5-0.1 0.9-0.5 1.2 0.1 0.1 0.2 0.1 0.3 0 0.4-0.4 0.5-0.9 0.4-1.5 0.2 0.5 0.4 1 0.6 1.6 0.2 0.2 0.3 0.4 0.5 0.5 0.8 1.2 1.5 2.4 2.2 3.5 0.2 0.6 0.3 1.1 0.5 1.6 0.1 0.9 0 1.7-0.1 2.5-0.2 0.3-0.5 0.6-0.8 0.9-0.4 0.4-1 0.8-1.5 1.1-0.3 0.1-0.5 0.1-0.7 0.2 0-0.1 0.1-0.2 0.2-0.2l-0.9-1c-0.1-0.1-0.1-0.2 0-0.2 0.4 0.3 0.8 0.7 1.2 1.1 0.1-0.1 0.1-0.2 0-0.2-0.8-0.7-1.5-1.4-2.3-2.2 0-0.1 0-0.2 0.1-0.3 0.8 0.8 1.7 1.6 2.5 2.4 0.1 0.1 0.1 0.1 0.2 0-0.9-0.8-1.7-1.7-2.5-2.5-0.1-0.5-0.1-1 0.1-1.5-0.2-0.1-0.2-0.3-0.1-0.4l0.3 0.2c-0.1 0.5 0 1 0 1.6 0.8 0.8 1.6 1.6 2.5 2.3 0.1 0 0.1-0.1 0-0.2-0.8-0.7-1.5-1.4-2.3-2.1-0.1-0.6 0-1.2 0.1-1.7 0.3-0.4 0.3-0.7-0.2-0.9l0.3-0.2c0.3 0.2 0.6 0.4 0.7 0.8-0.3 0.6-0.4 1.3-0.3 2l0.1-1.3c0.2-0.1 0.3-0.4 0.3-0.6-0.1-0.6-0.4-1-0.9-1.3 0-0.3 0-0.5 0.1-0.8 0.1-0.1 0.2-0.2 0.3-0.4 0.3-1.2 0-2-1-2.6 0-0.1-0.1-0.2-0.2-0.2 0.5-0.6 0.7-1.3 0.6-2.1z"></path><path fill="#d7caae" d="m12 17.9c0.2 0 0.4 0 0.7 0.1 0.2 0.5 0 0.7-0.6 0.6-0.1-0.2-0.1-0.4-0.1-0.7z"></path><path fill="#624432" d="m26.5 18.4c0.2 0.4 0.1 0.8-0.1 1.1-0.7 0.2-1.4 0.2-2-0.1 0-0.1 0-0.1 0.1-0.1 0.7 0.3 1.3 0.3 1.9-0.1 0.1-0.3 0.1-0.6 0.1-0.8z"></path><path fill="#f5dfbf" d="m34.5 19.1c0.1-0.1 0.3-0.2 0.4-0.1 0.2 0.2 0.3 0.4 0.1 0.6l-0.2-0.4c-0.1 0.3-0.3 0.4-0.7 0.4-0.1-0.2-0.1-0.4 0-0.6 0.1 0.1 0.2 0.2 0.2 0.4 0.1-0.1 0.2-0.2 0.2-0.3z"></path><path fill="#d6c4a7" d="m11 19.2c0.5 0.2 0.5 0.5 0.2 0.9-0.1 0-0.2 0-0.3 0.1l-0.3-0.2c-0.2-0.4-0.1-0.7 0.4-0.8z"></path><path fill="#f5e2c1" d="m29.2 18.7v1.8c-0.4 0-0.8 0-1.1 0.1-0.1 0-0.1 0-0.1-0.1 0-0.4 0-0.8-0.1-1.2-0.1 0.3-0.3 0.6-0.5 0.9-0.1 0-0.3 0.1-0.3 0.2h-0.2c-0.1 0.1-0.3 0.1-0.4 0.2-0.7 0.2-1.4 0.2-2.1 0 0 0-0.1-0.1-0.2-0.1h-0.2c0-0.4 0.2-0.8 0.4-1.1 0.6 0.3 1.3 0.3 2 0.1 0.1 0 0.2 0 0.3-0.1l0.1-0.8c0.1 0.2 0.2 0.3 0.4 0.4 0-0.1 0.1-0.2 0.1-0.3 0 0.4 0.2 0.5 0.4 0.2l-0.1-0.1c0.3 0 0.6-0.1 0.7-0.4 0.1 0.4 0.2 0.4 0.4 0.1l0.1 0.1c0.2-0.4 0.3-0.4 0.4 0.1z"></path><path fill="#8c6c50" d="m3.8 19.9c0.7 0.1 1.5 0.1 2.3 0 0 0.1-0.1 0.2-0.3 0.2l-0.6 0.1c-0.5 0-1-0.1-1.4-0.3z"></path><path fill="#623d28" d="m34.8 20.2c-0.3-0.1-0.6-0.1-0.9 0l-0.2 0.1c0-0.1 0-0.2 0.1-0.3 0.4-0.1 0.8 0 1.2 0.1 0 0.1-0.1 0.1-0.2 0.1z"></path><path fill="#bd9e75" d="m2 15.5c0.2 0.1 0.4 0.2 0.6 0.3v0.3c-0.6 0.1-0.7 0.5-0.1 1.1 0.3-0.3 0.5-0.3 0.8 0 0.1-0.1 0.1-0.1 0.2-0.2 0-0.4 0.1-0.7 0.2-1.1-0.1 0.4 0 0.8 0.1 1.1 0.1 0.2 0.2 0.3 0.3 0.5 0 0.2 0 0.5-0.1 0.7-0.2 0.1-0.3 0.1-0.5 0-0.3 0.2-0.6 0.3-1 0.4-0.1 0.1-0.3 0.3-0.4 0.5-0.2 0-0.5-0.1-0.7-0.1 0.1-0.1 0.2-0.2 0.3-0.3 0 0 0-0.1-0.1-0.1 0.2-0.1 0.2-0.2-0.1-0.2 0.5-0.5 0.4-0.9-0.3-1-0.2 0-0.4 0-0.5 0.2-0.1 0.3-0.1 0.6 0 0.9-0.2 0.2-0.2 0.5-0.2 0.8-0.1-0.2-0.3-0.2-0.4-0.1 0.1 0.2 0.2 0.3 0.4 0.4 0.1-0.1 0.2-0.1 0.3 0-0.1 0.3-0.1 0.6-0.1 0.9 0.2 0.1 0.3 0 0.4-0.1l0.4 0.4c0.2 0 0.4 0 0.6 0-0.1 0.1-0.1 0.1-0.1 0.2-0.4 0.1-0.7 0.2-1 0.3 0.1 0.1 0.2 0.2 0.3 0.2-0.1 0.1-0.2 0.2-0.2 0.3 0.3-0.1 0.7-0.1 1.1 0l-0.1 0.2c0 0.5-0.1 0.5-0.4 0.1-0.2 0.6-0.3 0.6-0.4-0.1-0.1 0.2-0.1 0.4-0.1 0.6 0 0.2-0.1 0.2-0.3 0-0.1 0.2-0.3 0.4-0.6 0.4-0.1-0.4-0.3-0.8-0.4-1.2v-4c0.2 0 0.3 0 0.5 0 0.2-0.5 0-0.7-0.5-0.8v-1.3c0.3 0 0.6 0 0.8 0.2 0.1 0 0.1 0 0.1-0.1 0.4 0.2 0.7 0.1 0.8-0.3 0.2 0.7 0.3 0.7 0.4 0z"></path><path fill="#e4c7a0" d="m1.5 18.4c-0.2 0.1-0.5 0.1-0.8 0.1-0.1-0.3-0.1-0.6 0-0.9 0.1-0.2 0.3-0.2 0.5-0.2 0.7 0.1 0.8 0.5 0.3 1z"></path><path fill="#6a3e26" d="m0.8 17.8c0.3 0.1 0.5 0.2 0.7 0.1l-0.3 0.2c-0.2-0.1-0.3-0.1-0.4-0.3z"></path><path fill="#6f452b" d="m1.2 16.6c-0.2 0-0.4 0.1-0.5 0.2-0.2 0.2-0.2 0.1-0.1-0.1 0.2-0.2 0.4-0.2 0.6-0.1z"></path><path fill="#f2d6b0" d="m0.7 16.4c0.4-0.1 0.8-0.2 1.2-0.1v0.4c-1.1 0.1-1.1 0.2 0 0.3-0.1 0.2-0.2 0.3-0.3 0.3-0.4-0.1-0.7-0.2-0.9-0.5 0.1-0.1 0.3-0.2 0.5-0.2 0.1 0 0.2 0 0.2-0.1-0.2-0.1-0.4-0.2-0.7-0.1z"></path><path fill="#886245" d="m1.9 16.3c-0.4-0.1-0.8 0-1.2 0.1-0.1-0.1-0.1-0.2 0-0.3 0.4-0.1 0.8-0.1 1.2 0.2z"></path><path fill="#cbb097" d="m14.1 18.2c0.1 0 0.1 0 0.2 0.1 0.1 1.5 0 2.9-0.2 4.4-0.2 0.1-0.4 0.1-0.7 0-0.1-0.3-0.1-0.5 0.2-0.8 0.1 0 0.3 0 0.5 0 0-1.3 0-2.5 0-3.7z"></path><path fill="#a8836e" d="m24.9 9.5c0.2 0.3 0.1 0.6-0.1 0.8-0.1 1.3-0.1 2.6 0.1 3.9l0.1-2c0 0.7 0.1 1.3 0.3 1.9l-0.3 0.2c0 0.1-0.1 0.2-0.2 0.2-0.3 0.1-0.6 0.3-0.7 0.6-0.3 0.5-0.4 1-0.1 1.5 0-0.1 0-0.1 0-0.2 0.1 0 0.2 0.1 0.1 0.2 0.2 0.4 0.5 0.7 0.8 1 0.6 0.2 1.1 0.5 1.6 0.8 0 0.2 0 0.5-0.1 0.8-0.6 0.4-1.2 0.4-1.9 0.1-0.1 0-0.1 0-0.1 0.1-0.2 0.3-0.4 0.7-0.4 1.1-0.1 0-0.1 0.1-0.1 0.1-0.1 0.4-0.1 0.7-0.1 1.1-0.1-0.3-0.2-0.6-0.2-0.9 0 0.1-0.1 0.2-0.2 0.3-0.2-0.3-0.1-0.6 0.1-0.8 0-0.4 0-0.7 0-1.1-0.1 0-0.2 0.1-0.2 0.2-0.1-0.1-0.2-0.1-0.3 0 0 0.3 0 0.7 0 1.1-0.1 0.1-0.3 0-0.3-0.1 0.1-0.4 0.3-0.9 0.4-1.3 0.1-0.6 0.1-1.2 0.2-1.8 0-0.4 0-0.7-0.1-1-0.5-0.7-1.1-1.2-1.8-1.6l-0.2-0.2c0.2-0.1 0.4-0.2 0.6-0.3 0.3 0.3 0.5 0.7 0.7 1 0.1-0.1 0.1-0.3-0.1-0.5 0.2 0 0.2 0 0.3 0.1 0.1 1 0.2 1 0.3 0l0.5 0.2c-0.1 0.6 0 1.1 0 1.7 0.2-0.6 0.2-1.2 0.2-1.9l0.6-0.6c0-1.3 0-2.7 0-4 0.2-0.2 0.4-0.5 0.6-0.7z"></path><path fill="#f2dbb8" d="m8.8 18.6c0 0.6 0 1.2 0.1 1.7v0.8h-1.2c0-0.5 0-1 0-1.5-0.3 0.9-0.8 1.4-1.7 1.6-0.4 0-0.7 0-1.1 0-0.4 0-0.8-0.1-1.1-0.3v-1c0.4 0.2 0.9 0.3 1.4 0.3l0.6-0.1c0.2 0 0.3-0.1 0.3-0.2 0.1-0.1 0.2-0.2 0.3-0.3 0.1-0.1 0.1-0.3 0.1-0.5 0.3 0 0.5-0.1 0.7-0.3l0.2 0.5c0.2-0.4 0.3-0.7 0.4-1.1 0 0.3 0 0.6 0 1h0.4c-0.1-0.2 0-0.3 0-0.5 0.1 0.3 0.2 0.5 0.3 0.7 0-0.3 0.2-0.6 0.3-0.8z"></path><path fill="#dac5ab" d="m33.8 19.4c0.1 0.1 0.1 0.1 0.1 0.2l-1 1c-0.4 0-0.7 0.1-1.1 0.3-0.4-0.2-0.5-0.4-0.1-0.8 0.3 0 0.6 0.1 0.9 0.3 0.5-0.2 0.9-0.5 1.2-1z"></path><path fill="#f5dec1" d="m34.8 20.2c0.1 0.1 0.2 0.2 0.2 0.3-0.1 0.5-0.3 0.6-0.6 0.3v-0.5c-0.2 0-0.4 0-0.5-0.1 0.3-0.1 0.6-0.1 0.9 0z"></path><path fill="#c5a38d" d="m30.5 19.7h0.2c0 0.4 0.1 0.7 0.1 1.1 0 0.4 0 0.9-0.1 1.3-0.4 0.5-0.8 1-1.3 1.5-0.9 0.1-1.8 0.1-2.7 0.1-1.1 1-1.4 2.2-1 3.7l0.1-2.3 1.1-1.1 2.9-0.1c0.6-0.8 1.2-1.4 1.9-2.1 0.2-0.2 0.4-0.4 0.6-0.6 0.7 0 1.2-0.3 1.4-0.9l0.2-0.1c0.1 0.1 0.3 0.1 0.5 0.1v0.5c-0.1-0.1-0.2-0.2-0.1-0.4-0.5 0.1-0.8 0.4-1.1 0.8l-0.7 0.1c-0.9 0.8-1.8 1.7-2.6 2.7-1 0-2 0.1-3 0.2l-0.9 0.9c-0.1 0.8-0.1 1.6 0 2.4-0.1 0.6-0.3 0.6-0.6 0-0.1-0.9-0.1-1.7 0-2.6 0.4-0.5 0.8-1 1.3-1.4l2.6-0.1c0.4-0.4 0.8-0.8 1.2-1.3 0-0.8 0.1-1.6 0-2.4z"></path><path fill="#ecd4b6" d="m34.7 21.3c0.1 0.1 0.1 0.2 0.1 0.4-0.4 0.1-0.8 0.1-1.2 0 0.1-0.1 0.3-0.2 0.4-0.2-0.1-0.2-0.1-0.4-0.1-0.6 0.2 0.1 0.5 0.3 0.8 0.4z"></path><path fill="#d7bd91" d="m2 21c0.4 0.3 0.7 0.7 1.1 1.1l1.2 0.1c0.9 0.9 1.9 1.8 2.8 2.7 0.4 0 0.8 0 1.2 0v0.2c-0.4 0.1-0.8 0-1.2 0-0.4-0.4-0.8-0.8-1.3-1.2-0.5-0.6-1-1.1-1.6-1.6l-1.2-0.1c-0.3-0.4-0.6-0.6-1-0.9l-0.1 0.1c0.2 0 0.3 0.2 0.3 0.4-0.4-0.1-0.8-0.1-1.1 0 0-0.1 0.1-0.2 0.2-0.3-0.1 0-0.2-0.1-0.3-0.2 0.3-0.1 0.6-0.2 1-0.3z"></path><path fill="#431b0f" d="m20.8 21.1v0.8c-0.1 0.3-0.2 0.5-0.5 0.7 0-0.2 0.1-0.4 0.3-0.5 0-0.4 0.1-0.7 0.2-1z"></path><path fill="#c0a879" d="m4.1 17.5c0.3 0.3 0.7 0.6 1.1 0.9-0.4 0.5-1 0.7-1.7 0.8 0.3 0.1 0.5 0.2 0.7 0.4-0.2 0-0.4 0-0.5 0-0.1 0.5 0 0.9 0.1 1.3 0.3 0.2 0.7 0.3 1.1 0.3 0.2 0.1 0.4 0.2 0.7 0.2-0.2 0-0.3 0.1-0.2 0.3 0.4-0.4 0.9-0.5 1.4-0.4-0.1 0.2-0.2 0.4-0.3 0.6-0.3-0.2-0.3-0.1 0 0.1-0.2 0.1-0.4 0.2-0.5 0.3 0 0.2 0 0.4-0.1 0.6 0.2 0.1 0.3 0 0.2-0.2 0.4-0.4 0.7-0.6 1.2-0.7 0.4 0.3 0.4 0.5-0.2 0.7v0.3c-0.2 0-0.5 0.1-0.7 0.2l0.2 0.1c-0.1 0.1-0.2 0.3-0.1 0.5l1 0.9c0.3 0.1 0.6 0.1 0.8 0.2-0.4 0-0.8 0-1.2 0-0.9-0.9-1.9-1.8-2.8-2.7l-1.2-0.2c-0.4-0.3-0.7-0.7-1.1-1 0-0.1 0-0.1 0.1-0.2-0.2 0-0.4 0-0.6 0l-0.4-0.4c-0.1 0.1-0.2 0.2-0.4 0.1 0-0.3 0-0.6 0.1-0.9-0.1-0.1-0.2-0.1-0.3 0-0.2-0.1-0.3-0.2-0.4-0.4 0.1-0.1 0.3-0.1 0.4 0.1l0.2-0.5v0.6c0.4-0.1 0.8-0.1 1.2-0.2-0.2 0-0.4 0-0.6-0.1 0-0.1 0-0.1 0.1-0.1 0.2 0 0.5 0.1 0.7 0.1 0.1-0.2 0.3-0.4 0.4-0.5 0.4-0.1 0.7-0.2 1-0.4 0.2 0.1 0.3 0.1 0.5 0 0.1-0.2 0.1-0.5 0.1-0.7z"></path><path fill="#6e442a" d="m1.4 19.6c0.2 0 0.3 0 0.5 0.1-0.3 0.2-0.6 0.2-0.9 0.1 0.1 0 0.3-0.1 0.4-0.2z"></path><path fill="#a18464" d="m1 18.8c0.1 0.1 0.2 0.2 0.2 0.4-0.3 0-0.4-0.1-0.2-0.4z"></path><path fill="#ba9778" d="m11.3 19l-0.3 0.2c-0.5 0.1-0.6 0.4-0.4 0.8-0.1 0.1-0.1 0.3 0.1 0.4-0.2 0.5-0.2 1-0.1 1.5 0.8 0.8 1.6 1.7 2.5 2.5-0.1 0.1-0.1 0.1-0.2 0-0.8-0.8-1.7-1.6-2.5-2.4-0.1 0.1-0.1 0.2 0 0.3 0.7 0.8 1.4 1.5 2.2 2.2 0.1 0 0.1 0.1 0 0.2-0.4-0.4-0.8-0.8-1.2-1.1-0.1 0-0.1 0.1 0 0.2l0.9 1c-0.1 0-0.2 0.1-0.2 0.2-0.2 0.2-0.4 0.4-0.6 0.6-0.2 0-0.4 0.2-0.6 0.4-0.1-0.1-0.2-0.1-0.3 0-0.1 0.3-0.1 0.6-0.2 0.9-0.2 0.3-0.4 0.5-0.6 0.7h-0.3c0-0.5 0-1.1 0-1.7-0.1-0.1-0.2-0.1-0.3-0.2-0.4-0.1-0.8-0.1-1.2-0.2 1.4-0.2 2 0.4 1.8 1.8 0.1-0.6 0.1-1.2-0.1-1.8-0.4-0.3-0.9-0.4-1.4-0.4v-0.2c-0.2-0.1-0.5-0.1-0.8-0.1l-1-1c-0.1-0.2 0-0.4 0.1-0.5l-0.2-0.1c0.2-0.1 0.5-0.2 0.7-0.2v-0.3c0.6-0.2 0.6-0.4 0.2-0.7-0.5 0.1-0.8 0.3-1.2 0.7 0.1 0.2 0 0.3-0.2 0.2 0.1-0.2 0.1-0.4 0.1-0.6 0.1-0.1 0.3-0.2 0.5-0.2-0.3-0.3-0.3-0.4 0-0.2 0.1-0.2 0.2-0.4 0.3-0.6-0.5-0.1-1 0-1.4 0.4-0.1-0.2 0-0.3 0.2-0.3-0.3 0-0.5-0.1-0.7-0.2 0.4 0 0.7 0 1.1 0 0.9-0.2 1.4-0.7 1.7-1.6 0 0.5 0 1 0 1.5h1.2v-0.8c0-0.5 0-1 0.1-1.6l0.1 3.6c0.2 0.3 0.5 0.5 0.9 0.6l-0.7-0.6c0-1.2 0-2.4 0-3.6 0.1 1.2 0.1 2.4 0.3 3.6 1 0.9 1 0.9 0.1-0.1-0.1-1.1-0.1-2.3 0-3.5 0 1.2 0.1 2.3 0.2 3.4 0.1 0.1 0.1 0.1 0.2 0-0.1-1.2-0.2-2.3-0.1-3.5 0.3-0.1 0.6-0.2 0.9-0.3 0.1 0.2 0.3 0.4 0.4 0.7z"></path><path fill="#c6a58e" d="m17.4 20c0.6-0.2 1.3-0.2 1.9 0h-0.5c0 1.5 0 3 0.1 4.6 0.2 0.2 0.2 0.4 0.1 0.7-0.2 0-0.3 0-0.5 0l-0.6-0.6c-0.1-1.6-0.2-3.2-0.2-4.7h-0.3z"></path><path fill="#a77f6b" d="m18.3 20.1c0.1-0.1 0.2-0.2 0.3-0.1 0.1 1.5 0 3.1-0.1 4.7-0.1-1.6-0.1-3.1-0.2-4.6z"></path><path fill="#cba990" d="m11.2 20.1c-0.1 0.5-0.2 1.1-0.1 1.7 0.8 0.7 1.5 1.4 2.3 2.1 0.1 0.1 0.1 0.2 0 0.2-0.9-0.7-1.7-1.5-2.5-2.3 0-0.6-0.1-1.1 0-1.6 0.1-0.1 0.2-0.1 0.3-0.1z"></path><path fill="#a5816b" d="m17.9 20c0.2 0.7 0.3 1.5 0.3 2.3l-0.1 2.4c-0.1-1.6-0.2-3.2-0.2-4.7z"></path><path fill="#f5d9b3" d="m2.1 22c0.1 0 0.2 0.1 0.2 0.3-0.1 0.3-0.4 0.5-0.8 0.5-0.1-0.1-0.2-0.1-0.3-0.2 0-0.2 0-0.4 0.2-0.6 0 0.7 0.1 0.7 0.3 0.1 0.3 0.4 0.4 0.4 0.4-0.1z"></path><path fill="#351811" d="m20.3 22.6l-0.2 0.6c-0.1-0.2-0.1-0.5 0.2-0.6z"></path><path fill="#ae8872" d="m19.3 20c0.4 0 0.8 0 1.2 0.1 0.1 0.3 0.2 0.7 0.3 1-0.1 0.3-0.2 0.6-0.2 1-0.2 0.1-0.3 0.3-0.3 0.5-0.3 0.1-0.3 0.4-0.2 0.6 0 0.1-0.1 0.1-0.1 0.1-0.2 0.1-0.3 0.2-0.4 0.3-0.2 0.4-0.3 0.9-0.4 1.3 0 0.2-0.1 0.3-0.2 0.4 0.1-0.3 0.1-0.5-0.1-0.7-0.1-1.6-0.1-3.1-0.1-4.6h0.5z"></path><path fill="#4b2b1e" d="m15.1 22.8c0 0.2-0.1 0.5-0.3 0.7-0.1 0.1-0.3 0.2-0.5 0.2 0.3-0.3 0.6-0.6 0.8-0.9z"></path><path fill="#ecd5b8" d="m34.6 22.2c0 0.4 0 0.7-0.1 1-0.2 0.3-0.3 0.6-0.4 0.9-0.1 0.1-0.2 0.2-0.4 0.2 0.2 0.1 0.2 0.2 0.1 0.4-0.3-0.3-0.5-0.5-0.8-0.7-0.1-0.1-0.1-0.1 0-0.2 0.3 0.1 0.7 0.1 1 0.1v-0.4c-0.3 0-0.6-0.1-0.8-0.4l0.2-0.1c0.3 0.3 0.7 0.3 1-0.1-0.2 0.1-0.4 0.1-0.6 0 0.1-0.1 0.1-0.1 0.2-0.2-0.8 0-0.8-0.2-0.1-0.4-0.3 0-0.6-0.1-0.9-0.3-0.2-0.5 0-0.7 0.5-0.7 0 0.3-0.1 0.6-0.1 0.8 0.4-0.1 0.8-0.1 1.2 0.1z"></path><path fill="#694f39" d="m34.1 22.4c0.3 0.1 0.3 0.1 0.2 0.3-0.1-0.1-0.2-0.2-0.2-0.3z"></path><path fill="#aa816d" d="m17.4 20h0.3c0 1.5 0.1 3.1 0.2 4.7l0.6 0.6c0.2 0 0.3 0 0.5 0-0.1 0.3-0.2 0.5-0.5 0.6-0.3 0.3-0.5 0.7-0.6 1-0.1 0.2-0.1 0.4 0 0.5 0 0.2-0.2 0.4-0.4 0.6-0.7-0.4-1.5-0.8-2.1-1.3-0.3-0.1-0.4-0.3-0.3-0.7 0.9-0.8 1.5-1.9 1.6-3.2 0.1-0.9 0.1-1.7 0.2-2.6 0.1-0.2 0.3-0.3 0.5-0.2z"></path><path fill="#48281c" d="m20 23.3c-0.2 0.6-0.5 1.1-0.8 1.6 0.1-0.4 0.2-0.9 0.4-1.3 0.1-0.1 0.2-0.2 0.4-0.3z"></path><path fill="#d6bd8f" d="m5.3 24.5c0.2-0.1 0.4 0 0.5 0.1 0.4 0.4 0.9 0.8 1.3 1.1-0.5-0.2-1-0.5-1.4-0.9l-2.8-0.2c-0.4-0.4-0.8-0.7-1.3-0.9-0.1-0.4-0.1-0.5 0.1-0.2 0.2-0.3 0.3-0.5 0.6-0.6 0.3 0.1 0.4 0.3 0.3 0.6-0.1-0.2-0.1-0.3-0.3-0.4-0.1 0.5 0 0.9 0.5 1.2 0.8 0.2 1.7 0.2 2.5 0.2z"></path><path fill="#a07966" d="m30.5 19.7c0.1 0.8 0 1.6 0 2.4-0.4 0.5-0.8 0.9-1.2 1.3l-2.6 0.1c-0.5 0.4-0.9 0.9-1.3 1.4-0.1 0.9-0.1 1.7 0 2.6 0.3 0.6 0.5 0.6 0.6 0-0.1-0.8-0.1-1.6 0-2.4l0.9-0.9c1-0.1 2-0.2 3-0.2 0.8-1 1.7-1.9 2.6-2.7l0.7-0.2c0.3-0.3 0.6-0.6 1.1-0.7-0.1 0.2 0 0.3 0.1 0.4 0.3 0.3 0.5 0.2 0.6-0.3 0.2-0.3 0.3-0.2 0.2 0.1-0.2 0.3-0.4 0.5-0.5 0.7-0.3-0.1-0.6-0.3-0.8-0.4 0 0.2 0 0.4 0.1 0.6-0.1 0-0.3 0.1-0.4 0.2 0.4 0.1 0.8 0.1 1.2 0 0.1-0.1 0.2-0.2 0.2-0.3l0 0.2c-0.1 0.2-0.1 0.5 0 0.7l-0.1 0.1c-0.1 0-0.2-0.1-0.3-0.2-0.4-0.2-0.8-0.2-1.2-0.1 0-0.2 0.1-0.5 0.1-0.8-0.5 0-0.7 0.2-0.5 0.7 0.3 0.2 0.6 0.3 0.9 0.3-0.7 0.2-0.7 0.4 0.1 0.4-0.1 0.1-0.1 0.1-0.2 0.2 0.2 0.1 0.4 0.1 0.6 0-0.3 0.4-0.7 0.4-1 0.1l-0.2 0.1c0.2 0.3 0.5 0.4 0.8 0.4v0.4c-0.3 0-0.7 0-1-0.1-0.1 0.1-0.1 0.1 0 0.2 0.3 0.2 0.5 0.4 0.8 0.7 0.1-0.2 0.1-0.3-0.1-0.4 0.2 0 0.3-0.1 0.4-0.2 0.1 0.1 0.2 0.1 0.3 0.2-0.3 0.3-0.5 0.6-0.6 1 0.3 0 0.4 0.1 0.2 0.3-0.1 0.1-0.1 0.2-0.2 0.3l-0.7 0.1-0.9 1-2.4 0.1-1.2 1.1-1 0.1c-0.3 0.4-0.7 0.8-1 1.1-0.4-0.4-0.8-0.8-1.3-1.1 0-0.9-0.1-1.9-0.2-2.8 0-0.5 0.1-0.9 0.2-1.3-0.3 0.3-0.4 0.6-0.4 0.9 0.1 1.1 0.2 2.1 0.1 3.2 0.1 0.5 0 0.9-0.1 1.3-0.1-1.7-0.1-3.4 0-5.1 0.5-0.5 0.5-0.6-0.1-0.4 0.8-0.9 1.6-1.8 2.5-2.7 0.1-0.4 0.1-0.8 0.1-1.2 0.2-0.3 0.4-0.6 0.5-0.9 0.1 0.4 0.1 0.8 0.1 1.2-0.1 0.3-0.2 0.7-0.2 1l-0.1-1.4-0.1 0.1c-0.1 0.3-0.1 0.7 0 1.1-0.7 0.8-1.5 1.6-2.2 2.4l0.1 0.1c0.1-0.1 0.2-0.2 0.3-0.3 0.1 0 0.1 0.2 0.1 0.3 0.7-0.7 1.4-1.5 2.1-2.3 0.1-0.3 0.1-0.6 0.1-0.9h0.3c0 0.4 0 0.8-0.1 1.2-0.2 0.2-0.5 0.5-0.7 0.9 0.2 0.1 0.5 0.1 0.7 0l0.7-0.7c0.2-0.5 0.2-1 0.2-1.5v-1.8c0.4-0.2 0.4-0.3 0-0.2 0-0.1 0-0.2 0-0.3 0.4 0 0.8 0 1.2 0 0 0.4-0.1 0.8-0.3 1.1 0 0.3 0.2 0.4 0.4 0.4z"></path><path fill="#edd5bd" d="m32.7 24.5c0.1 0 0.2 0 0.2 0.1-0.1 0.1-0.1 0.2 0 0.3 0.6-0.4 0.8-0.2 0.7 0.5 0 0-0.1 0.1-0.1 0.1-0.1-0.2-0.1-0.3-0.1-0.5-0.7 0.3-0.9 0.1-0.7-0.5z"></path><path fill="#987561" d="m30.8 20.8c0.1 0.1 0.2 0.3 0.2 0.5-0.2 1 0 1.1 0.6 0.4 0.1 0 0.1 0 0.1 0.1-0.7 0.7-1.3 1.3-1.9 2.1l-2.9 0.1-1.1 1.1-0.2 2.3c-0.3-1.5 0-2.7 1.1-3.7 0.9 0 1.8 0 2.7-0.1 0.5-0.5 0.9-1 1.3-1.5 0.1-0.4 0.1-0.9 0.1-1.3z"></path><path fill="#c3a38c" d="m28 20.5c0 0.1 0 0.1 0.1 0.1 0 0.3 0 0.6-0.1 0.9-0.7 0.8-1.4 1.6-2.1 2.3 0-0.1 0-0.3-0.1-0.3-0.1 0.1-0.2 0.2-0.3 0.3l-0.1-0.1c0.7-0.8 1.5-1.6 2.2-2.4-0.1-0.4-0.1-0.8 0-1.1l0.1-0.1 0.1 1.4c0-0.3 0.1-0.7 0.2-1z"></path><path fill="#caab94" d="m28.1 20.6c0.3-0.1 0.7-0.1 1.1-0.1 0 0.5 0 1-0.2 1.5l-0.7 0.7c-0.2 0.1-0.5 0.1-0.7 0 0.2-0.4 0.5-0.7 0.8-0.9 0-0.4 0-0.8 0-1.2h-0.3z"></path><path fill="#997762" d="m28.5 20.8c0.1-0.1 0.3-0.2 0.5-0.2 0 0.5 0 0.9-0.1 1.3-0.3 0.3-0.6 0.5-0.9 0.8l-0.2-0.1c0.3-0.2 0.6-0.5 0.8-0.8 0.1-0.4 0-0.7-0.1-1z"></path><path fill="#7b604b" d="m34.5 20.4c0.1 0 0.2 0 0.3 0.1-0.2 0.2-0.3 0.1-0.3-0.1z"></path><path fill="#5a3b2a" d="m12.8 24.8c-0.4 0.3-0.8 0.6-1.3 0.8 0.2-0.2 0.4-0.4 0.6-0.6 0.2-0.1 0.4-0.1 0.7-0.2z"></path><path fill="#f4dec0" d="m14.8 23.5c0 0 0 0.1 0.1 0.1-0.2 0.1-0.2 0.2-0.2 0.4-0.6 0.4-1.1 0.7-1.7 1.1-0.2 0-0.3 0.1-0.5 0 0.1 0.3 0 0.5 0 0.7-0.1-0.2-0.2-0.2-0.4-0.1 0 0 0.1 0.1 0.1 0.1-0.2 0.1-0.5 0.2-0.8 0.1 0 0.2 0 0.3 0.1 0.4 0.2 0 0.3 0.1 0.4 0.2l-0.1 0.2h-0.2c-0.5 0.3-0.9 0.8-1.1 1.4-0.1 1-0.1 2 0 3 0.2 0.3 0.1 0.4-0.3 0.3-0.3-0.7-0.4-1.4-0.4-2.2 0.1-0.8 0.3-1.5 0.6-2.3 0.3-0.4 0.7-0.9 1.1-1.3 0.5-0.2 0.9-0.5 1.3-0.8 0.5-0.3 1.1-0.7 1.5-1.1 0.2 0 0.4-0.1 0.5-0.2z"></path><path fill="#dee2b9" d="m-0.1 25.1c0.2 0 0.2 0.1 0.3 0.2 0.5 0.7 0.8 1.5 1 2.3-0.5-0.7-0.9-1.5-1.3-2.2v-0.3z"></path><path fill="#f9dab4" d="m16.7 22.8c-0.1 1.3-0.7 2.4-1.6 3.2-0.1 0.4 0 0.6 0.3 0.7-0.2 0.1-0.4 0.1-0.5 0-0.1 0.2-0.1 0.3 0 0.5 0.6 0.4 1.3 0.7 2 0.9 0.1 0.3 0.2 0.4 0.3 0.1 0.1 0.1 0.1 0.2 0.1 0.3-0.5 0-0.8 0-1.2 0.2-0.4-0.3-0.9-0.6-1.3-0.9-0.2 0.1-0.5 0.2-0.7 0.2-0.1-0.4-0.4-0.6-0.9-0.7-0.4-0.2-0.7-0.6-0.9-0.9-0.1 0-0.3 0-0.4 0.1-0.1-0.1-0.2-0.2-0.4-0.2-0.1-0.1-0.1-0.2-0.1-0.4 0.3 0.1 0.6 0 0.8-0.1 0 0-0.1-0.1-0.1-0.1 0.2-0.1 0.3-0.1 0.4 0.1 0-0.2 0.1-0.4 0-0.7 0.2 0.1 0.3 0 0.5 0 0.6-0.4 1.1-0.7 1.7-1.1 0-0.2 0-0.3 0.2-0.4-0.1 0-0.1-0.1-0.1-0.1 0.2-0.2 0.3-0.5 0.3-0.7 0.1-0.8 0.2-1.6 0.1-2.5 0.1-0.1 0.2 0 0.2 0.2 0.1 0.8 0.2 1.5 0.3 2.3 0.1 0.1 0.2 0.1 0.3 0l0.3-0.5c0.1 0.1 0.2 0.2 0.3 0.3-0.2 0.3-0.1 0.3 0.1 0.2z"></path><path fill="#bca074" d="m5.8 23.9c-0.2 0.2-0.3 0.4-0.5 0.6-0.8 0-1.7 0-2.5-0.2-0.5-0.3-0.6-0.7-0.5-1.2 0.2 0.1 0.2 0.2 0.3 0.4 0.1-0.3 0-0.5-0.3-0.6-0.3 0.1-0.4 0.3-0.6 0.6-0.2-0.3-0.2-0.2-0.1 0.2 0.5 0.2 0.9 0.5 1.3 0.9l2.8 0.2c0.4 0.4 0.9 0.7 1.4 0.9 0 0.3-0.1 0.5-0.4 0.6 0.2 0.1 0.1 0.2-0.1 0.3 0.3 0.3 0.6 0.3 1 0.2 0 0.6-0.2 0.8-0.6 0.4l0.1-0.1c-0.1 0-0.3 0-0.5 0-0.1 0.1-0.1 0.3 0.2 0.5-0.2-0.1-0.3 0-0.4 0 0.3 0.1 0.6 0.3 0.6 0.6-0.2 0.1-0.3 0.2-0.4 0.4-0.4 0.2-0.8 0.1-1-0.3 0 0.1-0.1 0.1-0.1 0.1 0-0.1-0.1-0.2-0.2-0.2-0.2-0.3-0.4-0.3-0.7 0.1-0.1-0.1-0.1-0.1-0.2-0.2 0.1-0.3 0.2-0.4 0.4-0.5 0.1-0.1 0.1-0.1 0-0.2-0.4 0.1-0.7 0.3-1 0.4 0.1 0.2 0.2 0.2 0.4 0-0.1 0.2-0.1 0.4 0 0.6-0.1 0.3-0.1 0.7 0 1-0.2 0.2-0.3 0.2-0.4 0-0.4-0.4-0.8-0.8-1.1-1.2-1.1-1.6-1.9-3.3-2.4-5.2 0.3 0 0.5-0.2 0.6-0.4 0.2 0.2 0.3 0.2 0.3 0 0.1 0.1 0.2 0.1 0.3 0.2 0.4 0 0.7-0.2 0.8-0.5 0-0.2-0.1-0.3-0.2-0.3l0.1-0.2c0-0.2-0.1-0.4-0.3-0.4l0.1-0.1c0.4 0.3 0.7 0.5 1 0.9l1.2 0.1c0.6 0.5 1.1 1 1.6 1.6z"></path><path fill="#d8ca9d" d="m4.1 23.5c0.7-0.1 0.9 0.2 0.6 0.7-0.8 0.2-1-0.1-0.6-0.7z"></path><path fill="#b58c74" d="m9.2 25.7c0.1 0.1 0.2 0.1 0.3 0.2 0 0.6 0 1.2 0 1.7h0.3c0 0.5 0 0.9-0.2 1.4-0.5-0.4-1-0.6-1.7-0.5 0.6 0 0.8-0.2 0.6-0.7 0.1 0.1 0.2 0 0.3-0.1 0.1-0.2 0.2-0.5 0.2-0.8 0 0.4 0.1 0.4 0.3 0.2-0.3-0.3-0.5-0.7-0.7-1.1-0.1 0.2-0.2 0.2-0.3 0.1 0.2-0.3 0.5-0.5 0.9-0.4z"></path><path fill="#e2a87f" d="m35.9 21.9v1c-0.1 0-0.1 0-0.2 0.2-0.3 1.4-0.8 2.8-1.7 4 0.1 0.1 0.2 0.2 0.3 0.2-0.4 0.1-0.6 0.3-0.8 0.5 1.1-1.8 1.9-3.8 2.4-5.9z"></path><path fill="#714f3d" d="m11.5 25.6c-0.4 0.4-0.8 0.9-1.1 1.3 0.1-0.3 0.1-0.6 0.2-0.9 0.1-0.1 0.2-0.1 0.3 0 0.2-0.2 0.4-0.4 0.6-0.4z"></path><path fill="#141c16" d="m-0.1 26.2c0.2 0.4 0.5 0.8 0.8 1.2 0 0.2-0.1 0.3-0.1 0.5 0.2 0.2 0.3 0.3 0.5 0.3 0 0.2 0 0.3-0.1 0.5 0.2-0.1 0.3-0.1 0.4 0.2l0.1-0.3c0 0.2 0.1 0.4 0.2 0.5l-0.2 0.2c0.2 0.1 0.3 0.3 0.4 0.6l0.1-0.4c0.1 0.3 0.3 0.4 0.5 0.3 0.4 0.3 0.7 0.7 1 1.1 0.8 0.9 1.7 1.7 2.6 2.3 0.5 0.5 1 0.9 1.6 1.2 0.5 0.4 1.1 0.8 1.8 1 0.3 0.2 0.7 0.4 1 0.5h-2c-0.1 0-0.2-0.1-0.3-0.2 0.1-0.1 0.2-0.1 0.2 0 0.4-0.1 0.4-0.3 0.1-0.5-0.3-0.2-0.5-0.2-0.8 0 0.2 0.2 0.3 0.4 0.3 0.6-0.3-0.3-0.6-0.6-1-0.9-0.2 0.2-0.4 0.2-0.5 0 0.2-0.2 0.2-0.4-0.1-0.6 0 0.2-0.1 0.2-0.2 0.1-0.2-0.2-0.2-0.4 0-0.4-0.1-0.1-0.3-0.1-0.4 0-0.1-0.1-0.2-0.3-0.4-0.4-0.3 0.3-0.5 0.2-0.5-0.2-0.4-0.1-0.4-0.2 0-0.3-0.2-0.2-0.4-0.2-0.7-0.1l-0.3-0.3c-0.1 0.1-0.3 0-0.4-0.1-0.1 0.1-0.2 0.2-0.4 0.2-0.1-0.3-0.2-0.5-0.2-0.7-0.2 0.2-0.3 0.1-0.4-0.1-0.2 0.2-0.2 0.3-0.1 0.5 0 0.1-0.1 0.1-0.2 0 0-0.2 0-0.4-0.1-0.6-0.1 0.2-0.2 0.4-0.3 0.6-0.1-0.3-0.2-0.3-0.3 0 0.1 0.2 0 0.3-0.2 0.4 0.1 0 0.3 0 0.4-0.1 0.1 0.6 0 0.6-0.2 0.2-0.3 0.1-0.5 0.1-0.7 0.1-0.2-0.1-0.2-0.2 0-0.4-0.1 0-0.2 0-0.2 0.1-0.1-0.2 0-0.5 0.1-0.7 0.1 0.1 0.2 0.1 0.3 0-0.2-0.1-0.4-0.2-0.5-0.3-0.2 0-0.4 0-0.6 0v-5.6z"></path><path fill="#724e33" d="m4.2 26.6c-0.1-0.1-0.3-0.1-0.4 0-0.1 0.2-0.2 0.4-0.3 0.6 0-0.1-0.1-0.2-0.1-0.3 0.1-0.3 0.3-0.5 0.6-0.6 0.2 0.1 0.3 0.2 0.2 0.3z"></path><path fill="#472619" d="m18.5 25.9c-0.2 0.5-0.4 1-0.6 1.5-0.1-0.1-0.1-0.3 0-0.5 0.1-0.3 0.3-0.7 0.6-1z"></path><path fill="#ebd4ac" d="m4.2 26.6c0.1 0.1 0.2 0.1 0.3-0.1 0.3 0.1 0.5 0.3 0.4 0.7-0.2 0-0.4 0.1-0.6 0.2-0.3-0.1-0.4-0.3-0.1-0.5 0-0.1-0.1-0.1-0.2-0.2-0.1 0.2-0.2 0.4-0.2 0.6-0.3 0.2-0.5 0.1-0.6-0.2 0-0.1 0.1-0.2 0.2-0.2 0 0.1 0.1 0.2 0.1 0.3 0.1-0.2 0.2-0.4 0.3-0.6 0.1-0.1 0.3-0.1 0.4 0z"></path><path fill="#050405" d="m35.9 25.4v10.5h-10.5c1.3-0.5 2.5-1.2 3.7-2.1 0.5-0.3 1-0.7 1.4-1.1 0.9-0.6 1.6-1.3 2.2-2.2 1.4-1.5 2.4-3.2 3.2-5.1z"></path><path fill="#f3d7b6" d="m4.4 28.1c-0.1 0.1-0.1 0.2-0.2 0.3-0.1-0.2-0.1-0.4 0-0.6-0.2 0.2-0.3 0.2-0.4 0 0.3-0.1 0.6-0.3 1-0.4 0.1 0.1 0.1 0.1 0 0.2-0.2 0.1-0.3 0.2-0.4 0.5z"></path><path fill="#af8571" d="m12.3 26.4v0.1c-0.1 0-0.1 0-0.2 0.1l0.4 0.6c0.1 0.6 0.1 1.2-0.1 1.8 0-2.1 0-2.1-0.1 0-0.5 0.4-0.9 0.9-1.3 1.3 0.2 0.1 0.4 0.2 0.6 0.1 0.4-0.5 0.8-0.9 1.3-1.3 0 0.1 0.1 0.1 0.2 0 0-0.5 0-0.9 0.1-1.4 0.1 0.8 0.2 1.5 0.2 2.3 0.1-0.7 0.1-1.4 0.2-2 0.2 1.8 0.2 3.6 0.1 5.4-0.1-0.7-0.2-1.3-0.2-2l-0.1-0.1c0 0.4-0.1 0.7-0.5 0.9 0 0-0.1-0.1-0.2-0.1 0-0.1 0.1-0.2 0.1-0.3l0.1 0.1c0.1-0.1 0.1-0.3 0.2-0.4-0.1-0.1-0.2-0.1-0.3-0.3 0 0.2-0.1 0.3-0.1 0.5 0-0.2-0.1-0.4-0.2-0.6 0.2-0.1 0.3-0.2 0.4-0.3 0.1-0.1 0.1-0.2 0-0.3-0.3 0.3-0.6 0.5-0.9 0.6-0.2 0.3-0.2 0.5 0 0.8-0.1 0.2-0.3 0.2-0.5 0 0.1 0.3 0.2 0.6 0.5 0.8 0-0.4 0.1-0.5 0.4-0.2l0.1-0.2 0.2 0.5 0.1-0.2c-0.1 0.2 0 0.4 0.2 0.6-0.1 0-0.2 0.1-0.2 0.2 0.2 0.2 0.4 0.5 0.6 0.7-0.2-0.1-0.5-0.2-0.7-0.5 0 0-0.1 0.1-0.2 0.1 0.1-0.2 0.1-0.3 0-0.5 0.2-0.1 0.2-0.1 0-0.2-0.2 0.1-0.3 0.1-0.5 0.1-0.1-0.1-0.1-0.1-0.2-0.1 0-0.1 0.1-0.1 0.2-0.2-0.5-0.3-0.9-0.7-1.3-1.2-0.2 0-0.4-0.1-0.5-0.2 0.4 0.1 0.5 0 0.3-0.3-0.1-1-0.1-2 0-3 0.2-0.6 0.6-1.1 1.1-1.4 0.1 0.8 0 1.5 0 2.3-0.4 0.3-0.7 0.7-0.9 1.1l1.1-1.1c0.1-0.8 0.1-1.5 0-2.3l0.1-0.2c0.1-0.1 0.3-0.1 0.4-0.1z"></path><path fill="#c7a18c" d="m11.6 26.7h0.2c0.1 0.8 0.1 1.5 0 2.3l-1.1 1.1c0.2-0.4 0.5-0.8 0.9-1.1 0-0.8 0.1-1.5 0-2.3z"></path><path fill="#c3a08b" d="m27.4 20.2c0 0.4 0 0.8-0.1 1.2-0.9 0.9-1.7 1.8-2.5 2.7-0.1 0.1-0.2 0.2-0.3 0.3-0.1 2.6-0.1 5.2 0.1 7.8 0 0.6-0.1 1-0.2 1.4 0 0.2 0 0.4-0.2 0.5-0.1-0.1-0.2-0.3-0.3-0.5 0.1-0.1 0.2-0.1 0.3 0.1l0-0.4c0-0.2 0-0.3-0.2-0.4 0.1-0.1 0.2-0.1 0.4-0.1-0.1-2.8-0.1-5.6-0.2-8.4 1-1 2-2 2.9-3.1 0.1-0.3 0.1-0.6 0-0.9 0-0.1 0.2-0.2 0.3-0.2z"></path><path fill="#c5a08b" d="m34 25.6c0.1 0 0.2 0.1 0.1 0.2 0 0.1 0 0.3-0.1 0.4-0.3-0.1-0.6 0-0.9 0-0.2 0.4-0.5 0.7-0.9 1-0.3 0.1-0.7 0.1-1.1 0.1h-0.2c-0.4 0-0.8 0-1.1 0-0.4 0.3-0.7 0.7-0.9 1l-1.2 0.2c-0.3 0.4-0.7 0.8-1.1 1.1-0.5-0.4-1-0.9-1.6-1.3 0.1-1.1 0-2.1-0.1-3.2 0-0.3 0.1-0.6 0.4-0.9-0.1 0.4-0.2 0.8-0.2 1.3 0.1 0.9 0.2 1.9 0.2 2.8 0.5 0.3 0.9 0.7 1.3 1.1 0.3-0.3 0.7-0.7 1-1.1l1-0.1 1.2-1.1 2.4-0.1 0.9-1 0.7-0.1c0.1-0.1 0.1-0.2 0.2-0.3z"></path><path fill="#f8debb" d="m21.4 22c-0.2 1.1-0.5 2.1-0.9 3.1-0.5 0.8-1 1.6-1.3 2.5-0.2 0.1-0.3 0.2-0.2 0.4-0.7 1-1 2-0.9 3.2-0.4 0-0.7 0-1.1 0.1h-0.3v-0.8c0.1-0.3 0.1-0.6 0-0.9-0.3-0.3-0.7-0.5-1.1-0.6-0.3-0.2-0.5-0.3-0.8-0.4-0.7-0.5-1.3-0.9-2-1.4-0.2-0.2-0.4-0.4-0.5-0.7v-0.1c0.2 0.3 0.5 0.7 0.9 0.9 0.5 0.1 0.8 0.3 0.9 0.7 0.2 0 0.5-0.1 0.7-0.2 0.4 0.3 0.9 0.6 1.3 0.9 0.4-0.2 0.7-0.2 1.2-0.2 0-0.1 0-0.2-0.1-0.3-0.1 0.3-0.2 0.2-0.3-0.1-0.7-0.2-1.4-0.5-2-0.9-0.1-0.2-0.1-0.3 0-0.5 0.1 0.1 0.3 0.1 0.5 0 0.6 0.5 1.4 0.9 2.2 1.3 0.1-0.2 0.3-0.4 0.3-0.6 0.2-0.5 0.4-1 0.6-1.5 0.3-0.1 0.4-0.3 0.5-0.6 0.1-0.1 0.2-0.2 0.2-0.4 0.3-0.5 0.6-1 0.8-1.6 0 0 0.1 0 0.1-0.1l0.2-0.6c0.3-0.2 0.4-0.4 0.5-0.7 0-0.3 0.1-0.5 0.1-0.8 0 0.2 0.1 0.5 0.2 0.7 0.2-0.3 0.3-0.2 0.3 0.2z"></path><path fill="#ba9774" d="m5.8 23.9c0.5 0.4 0.9 0.8 1.3 1.2 0.4 0 0.8 0.1 1.2 0 0.5 0 1 0.1 1.4 0.4 0.2 0.6 0.2 1.2 0.1 1.8 0.2-1.4-0.4-2-1.8-1.8 0.4 0.1 0.8 0.1 1.2 0.2-0.4-0.1-0.7 0.1-0.9 0.4 0.1 0.1 0.2 0.1 0.3-0.1 0.2 0.4 0.4 0.8 0.7 1.1-0.2 0.2-0.3 0.2-0.3-0.2 0 0.3-0.1 0.6-0.2 0.8-0.1 0.1-0.2 0.2-0.3 0.1 0.2 0.5 0 0.7-0.6 0.7 0.7-0.1 1.2 0.1 1.7 0.5 0 0.4 0 0.8 0.1 1.2 0 0.3 0 0.5 0.1 0.8-0.1 0.2-0.2 0.4-0.3 0.6-0.2-0.1-0.3-0.2-0.4-0.2-0.3-0.2-0.6-0.2-0.9-0.1-0.1 0.3 0 0.5 0.2 0.7-0.2 0.2-0.3 0.1-0.4-0.1-0.1 0.1-0.1 0.2 0 0.3 0.2 0 0.3 0 0.5 0 0 0.2 0 0.3 0.2 0.4 0 0 0.1 0.1 0.1 0.1l0.4-0.6c0 0.4 0.1 0.7 0.3 0.9 0.1 0.2 0.1 0.4 0.2 0.5-0.1 0.1-0.2 0.2-0.3 0.3-0.5-0.2-1-0.4-1.5-0.7-0.3-0.3-0.7-0.6-1.1-0.8-1.2-0.8-2.2-1.8-3-2.9 0.1 0.2 0.2 0.2 0.4 0-0.1-0.3-0.1-0.7 0-1 0.1-0.1 0.1-0.2 0.2-0.3 0.1 0.1 0.1 0.1 0.2 0.2 0.3-0.4 0.5-0.4 0.7-0.1-0.1 0.1-0.3 0.2-0.5 0.4-0.2 0-0.3 0-0.5 0 0.1 0.3 0.3 0.5 0.5 0.7v-0.4c0.2-0.2 0.4-0.4 0.7-0.5 0 0 0.1 0 0.1-0.1 0.2 0.4 0.6 0.5 1 0.3 0.1-0.2 0.2-0.3 0.4-0.4 0-0.3-0.3-0.5-0.6-0.6 0.1 0 0.2-0.1 0.4 0-0.3-0.2-0.3-0.4-0.2-0.5 0.2 0 0.4 0 0.5 0l-0.1 0.1c0.4 0.4 0.6 0.2 0.6-0.4-0.4 0.1-0.7 0.1-1-0.2 0.2-0.1 0.3-0.2 0.1-0.3 0.3-0.1 0.4-0.3 0.4-0.6-0.4-0.3-0.9-0.7-1.3-1.1-0.1-0.1-0.3-0.2-0.5-0.1 0.2-0.2 0.3-0.4 0.5-0.6z"></path><path fill="#efd8b6" d="m5.3 28.2c0.1 0 0.2 0.1 0.2 0.2-0.3 0.1-0.5 0.3-0.7 0.5v0.4c-0.2-0.2-0.4-0.4-0.5-0.7 0.2 0 0.3 0 0.5 0 0.2-0.2 0.4-0.3 0.5-0.4z"></path><path fill="#693f2e" d="m10.4 26.9c-0.3 0.8-0.5 1.5-0.6 2.3-0.1 0.3-0.1 0.6-0.1 1-0.1-0.4-0.1-0.8-0.1-1.2 0.2-0.5 0.2-0.9 0.2-1.4 0.2-0.2 0.4-0.4 0.6-0.7z"></path><path fill="#252924" d="m-0.1 25.4c0.4 0.7 0.8 1.5 1.3 2.2 0.3 0.8 0.8 1.5 1.3 2.2-0.2 0.1-0.4 0-0.5-0.3l-0.1 0.4c-0.1-0.3-0.2-0.5-0.4-0.6l0.2-0.2c-0.1-0.1-0.2-0.3-0.2-0.5l-0.2 0.3c0-0.3-0.1-0.3-0.3-0.2 0.1-0.2 0.1-0.3 0.1-0.5-0.2 0-0.3-0.1-0.5-0.3 0-0.2 0.1-0.3 0.1-0.5-0.3-0.4-0.6-0.8-0.8-1.2v-0.8z"></path><path fill="#371107" d="m5.9 29c0.1-0.1 0.2 0 0.2 0.1-0.1 0-0.2 0.1-0.2 0.2-0.1 0-0.1-0.1-0.1-0.2 0.1 0 0.1-0.1 0.1-0.1z"></path><path fill="#401e13" d="m35.9 20.4v1.5c-0.5 2.1-1.3 4.1-2.4 5.9-2 2.8-4.4 5-7.5 6.6-1.6 0.7-3.2 1.2-4.9 1.5h-2.7v-0.1c4.4-0.1 8.2-1.6 11.5-4.5 1.6-1.5 3-3.2 4.1-5.1 0.1-0.1 0.1-0.3 0.1-0.4 0.9-1.7 1.5-3.5 1.8-5.4z"></path><path fill="#f4f0a7" d="m-0.1 21.8c0.1 0.4 0.3 0.8 0.4 1.2 0.5 1.9 1.3 3.6 2.4 5.2 0.3 0.4 0.7 0.8 1.1 1.2 0.8 1.1 1.8 2.1 3 2.9 0.3 0.4 0.7 0.7 1.1 0.8 0.4 0.4 0.9 0.7 1.4 0.9 0 0.3 0.2 0.5 0.4 0.4 0.3 0.2 0.2 0.5-0.2 0.6 0.1 0.2 0.3 0.3 0.5 0.3-0.2 0.1-0.3 0.1-0.5 0.1-0.1-0.2-0.1-0.3-0.2-0.4-0.6-0.2-1.1-0.4-1.6-0.6-0.6-0.3-1.1-0.7-1.6-1.2 0.1-0.1 0-0.2-0.1-0.3-0.5-0.3-1-0.8-1.3-1.3-0.4-0.2-0.8-0.5-1.2-0.7 0-0.2 0-0.4-0.1-0.6-0.4-0.4-0.8-0.8-1.1-1.3 0.3-0.2 0.3-0.3-0.1-0.3-0.3-0.4-0.6-0.8-1-1.1-0.2-0.8-0.5-1.6-1-2.3-0.1-0.1-0.1-0.2-0.3-0.2v-3.3z"></path><path fill="#c79f89" d="m12.4 29c-0.3 0.4-0.7 0.8-1.1 1.1 0.6-0.3 1.1-0.7 1.5-1.3-0.2-0.5-0.2-0.9 0-1.4 0 0 0.1 0.1 0.1 0.1 0.1 0.5 0.1 1.1 0 1.6-0.5 0.4-0.9 0.8-1.3 1.3-0.2 0.1-0.4 0-0.6-0.1 0.4-0.4 0.8-0.9 1.3-1.3 0.1-2.1 0.1-2.1 0.1 0z"></path><path fill="#f1ddbd" d="m5.9 29c0 0 0 0.1-0.1 0.1-0.2 0.1-0.4 0.3-0.6 0.4 0.3 0.2 0.5 0.1 0.7-0.2 0-0.1 0.1-0.2 0.2-0.2 0.1 0 0.2 0.1 0.1 0.2-0.2 0.3-0.5 0.5-0.7 0.7-0.3-0.2-0.4-0.4-0.3-0.7 0.2-0.2 0.4-0.4 0.6-0.6 0.1 0.1 0.1 0.2 0.1 0.3z"></path><path fill="#bc9f83" d="m5.8 29.1c0 0.1 0 0.2 0.1 0.2-0.2 0.3-0.4 0.4-0.7 0.2 0.2-0.1 0.4-0.3 0.6-0.4z"></path><path fill="#e6e9bd" d="m1.2 27.6c0.4 0.3 0.7 0.7 1 1.1 0.4 0 0.4 0.1 0.1 0.3 0.3 0.5 0.7 0.9 1.1 1.3 0.1 0.2 0.1 0.4 0.1 0.6-0.3-0.4-0.6-0.8-1-1.1-0.5-0.7-1-1.4-1.3-2.2z"></path><path fill="#bf9e88" d="m23.1 19.1c-0.1 0.4-0.3 0.9-0.4 1.3-0.1 0.1-0.2 0.1-0.3 0.2 0 4 0.1 8 0.3 12l-0.1 0.5c-0.3-4.1-0.4-8.3-0.4-12.5 0.3-0.2 0.5-0.5 0.6-1 0-0.2-0.1-0.3-0.2-0.4 0.1-0.2 0.3-0.3 0.5-0.1z"></path><path fill="#684231" d="m6.5 29.5c-0.2 0.3-0.4 0.6-0.5 0.9-0.1 0-0.2 0-0.2-0.1 0.2-0.3 0.4-0.6 0.5-0.9 0.2-0.1 0.3-0.1 0.2 0.1z"></path><path fill="#64412e" d="m16.7 29.6c0.1 0.3 0.1 0.6 0 0.9-0.1 0.2-0.1 0.3-0.1 0.5-0.1-0.5-0.1-0.9 0.1-1.4z"></path><path fill="#f0dabd" d="m6.5 29.5c0.1 0.2 0.1 0.3 0.1 0.5 0.2 0 0.4 0 0.5 0-0.2 0.2-0.3 0.3-0.5 0.4-0.4 0.1-0.4 0 0-0.3l-0.1 0c-0.2 0.1-0.3 0.2-0.5 0.3 0.1-0.3 0.3-0.6 0.5-0.9z"></path><path fill="#e39769" d="m32.7 30.5h-0.4v0.4c-0.1 0-0.3 0-0.4 0l0.1 0.1c-0.5 0.6-1 1.1-1.5 1.7-0.2 0-0.5 0.1-0.6 0.3-0.2-0.1-0.2-0.3 0-0.4l-0.4-0.3c0.6-0.5 1.3-1 1.9-1.4-0.1 0-0.1-0.1 0-0.2 0.5-0.6 0.9-1.1 1.4-1.6 0.3 0.1 0.3 0.1 0.2-0.2 0.2 0 0.3-0.1 0.4-0.3 0.1-0.1 0.3-0.1 0.5 0-0.3 0.6-0.7 1.1-1.1 1.5-0.1 0.1-0.1 0.3-0.1 0.4z"></path><path fill="#8b6048" d="m7.7 30.5c-0.1 0.1-0.2 0.2-0.3 0.3-0.5-0.2-0.7-0.1-0.7 0.4-0.1-0.2-0.2-0.5-0.1-0.8 0.2 0 0.5 0.1 0.7 0.1 0.2 0 0.3-0.1 0.4-0.2 0 0.1 0 0.2 0 0.2z"></path><path fill="#bf9884" d="m24.9 29.6c0.1 0.9 0 1.8-0.1 2.7-0.1-2.5-0.2-5-0.3-7.5 0.1-0.2 0.2-0.5 0.3-0.7 0.6-0.2 0.6-0.1 0.1 0.4-0.1 1.7-0.1 3.4 0 5.1z"></path><path fill="#56372a" d="m28 30.8c0.1 0 0.1 0.1 0.2 0.2-0.8-0.2-1.1 0.1-0.8 0.9-0.2-0.1-0.3-0.2-0.3-0.5 0-0.5 0.3-0.7 0.9-0.6z"></path><path fill="#bc937f" d="m15.6 29c0.4 0.1 0.8 0.3 1.1 0.6-0.2 0.5-0.2 0.9-0.1 1.4 0 0.3 0 0.5-0.1 0.8-0.2 0.1-0.4 0.3-0.6 0.5-0.2 1.8-0.3 1.8-0.3 0l0.7-0.6c0.1-0.3 0.1-0.6 0-0.9-0.2 0.6-0.5 1.1-1.1 1.5-0.1-0.2-0.2-0.2-0.3 0-0.2 1.7-0.3 1.7-0.3 0l0.8-0.7c0-0.9 0.1-1.8 0.2-2.6z"></path><path fill="#f4dcbd" d="m7.7 30.5c0.1 0.1 0.1 0.2 0 0.4-0.2 0.1-0.3 0.3-0.4 0.5-0.3 0.1-0.5 0-0.6-0.2 0-0.5 0.2-0.6 0.7-0.4 0.1-0.1 0.2-0.2 0.3-0.3z"></path><path fill="#674734" d="m7 30.9c0.3 0.1 0.3 0.2 0 0.3-0.1-0.1-0.1-0.2 0-0.3z"></path><path fill="#9c7462" d="m24.8 24.1c-0.1 0.2-0.2 0.5-0.3 0.7 0.1 2.5 0.2 5 0.3 7.5 0.1-0.9 0.2-1.8 0.1-2.7 0.1-0.4 0.2-0.8 0.1-1.3 0.6 0.4 1.1 0.9 1.6 1.3 0.4-0.3 0.8-0.7 1.1-1.1l1.2-0.1c0.2-0.4 0.5-0.8 0.9-1.1 0.3 0 0.7 0 1.1 0-0.2 0.2-0.3 0.4-0.4 0.5 0 0.1-0.1 0.2-0.2 0.3 0 0 0.1 0.1 0.1 0.1 0 0.1-0.1 0.2-0.2 0.2 0 0 0-0.1 0-0.1-0.3 0.3-0.5 0.4-0.8 0.6 0 0.1 0 0.2 0.1 0.3 0.2 0.1 0.4 0.2 0.6 0.3 0.1 0.2 0.2 0.3 0.3 0.5 0.1-0.2 0.1-0.3 0.1-0.5 0.2 0.2 0.4 0.1 0.4-0.2 0.4-0.1 0.5-0.3 0.4-0.7l0.3-0.3c0 0.2 0.1 0.3 0.2 0.1 0.1-0.5-0.2-0.7-0.7-0.4 0-0.2 0-0.4 0-0.6v-0.1c0.4 0 0.8 0 1.1-0.1 0.4-0.3 0.7-0.6 0.9-1 0.3 0 0.6-0.1 0.9 0-1.1 1.9-2.5 3.6-4.1 5.1-0.1-0.1-0.1-0.3-0.1-0.4-0.3 0.1-0.5 0.4-0.7 0.6-0.2 0.1-0.3 0.1-0.5-0.1 0.6 0 0.8-0.3 0.4-0.7-0.1-0.2-0.3-0.4-0.5-0.5-0.1 0.2-0.1 0.3 0.1 0.4-0.1 0.1-0.3 0-0.5-0.1-0.1 0.1-0.1 0.2-0.1 0.3-0.6-0.1-0.9 0.1-0.9 0.6-0.2 0-0.3 0.1-0.4 0.2 0.4 0.5 0.3 0.6-0.3 0.1-0.1 0.1-0.1 0.3 0 0.4v0.4h-0.5c0-0.1-0.1-0.1-0.1-0.2l0.4-0.2c-0.4-0.1-0.5 0-0.6 0.4 0 0.1 0 0.2 0.1 0.2l0.6 0.2c-0.1 0-0.2 0.1-0.3 0.1 0 0.1-0.1 0.1-0.1 0.2-0.1-0.1-0.1-0.2-0.2-0.3-0.1 0.2-0.1 0.4-0.2 0.7 0-0.1-0.1-0.2-0.1-0.2-0.1-0.4-0.2-0.6-0.5-0.8 0 0.3-0.1 0.6-0.3 1h-0.2c0.1-0.4 0.2-0.8 0.2-1.4-0.2-2.6-0.2-5.2-0.1-7.8 0.1-0.1 0.2-0.2 0.3-0.3z"></path><path fill="#e9d5be" d="m28.6 31.4c0-0.1-0.1-0.1-0.2-0.1 0-0.2 0-0.3-0.2-0.3-0.1-0.1-0.1-0.2-0.2-0.2 0-0.1 0-0.2 0.1-0.3 0.2 0.1 0.4 0.2 0.5 0.1-0.2-0.1-0.2-0.2-0.1-0.4 0.2 0.1 0.4 0.3 0.5 0.5 0.4 0.4 0.2 0.7-0.4 0.7z"></path><path fill="#e7d7bf" d="m28.9 29.8c0.3 0.2 0.7 0.4 1.1 0.6-0.2 0.2-0.4 0.4-0.6 0.5-0.1-0.1-0.1-0.2 0-0.3-0.2-0.3-0.4-0.6-0.5-0.8z"></path><path fill="#e7d3bb" d="m31.3 28.6c0.1 0.4 0 0.6-0.4 0.7 0 0.3-0.2 0.4-0.4 0.2 0 0.2 0 0.3-0.1 0.5-0.1-0.2-0.2-0.3-0.3-0.5-0.2-0.1-0.4-0.2-0.6-0.3 0.2-0.1 0.3-0.2 0.5-0.2-0.1 0-0.1-0.1-0.1-0.1 0.1-0.2 0.2-0.3 0.3-0.5 0.1 0 0.2-0.1 0.2-0.2 0-0.1 0.1-0.1 0.1-0.1 0.3 0.2 0.5 0.4 0.8 0.5z"></path><path fill="#5b3e2e" d="m30.9 29.3c-0.4 0-0.6-0.1-0.7-0.5 0.4-0.4 0.5-0.3 0.5 0.2 0.1-0.1 0.2-0.2 0.2-0.3 0.1 0.2 0.1 0.4 0 0.6z"></path><path fill="#4b2c20" d="m30.2 28.4c-0.1 0.2-0.2 0.3-0.3 0.5 0 0 0 0.1 0.1 0.1-0.2 0-0.3 0.1-0.5 0.2-0.1-0.1-0.1-0.2-0.1-0.3 0.3-0.2 0.5-0.3 0.8-0.6 0 0 0 0.1 0 0.1z"></path><path fill="#c6a18c" d="m30.5 27.8c-0.1 0-0.3 0-0.5 0.1l-0.9 0.9-1.1 0.1-1.1 1.1c-0.1 0.3 0 0.5 0 0.8 0 0.2 0 0.3-0.1 0.4-0.1-0.4-0.1-0.9 0-1.3l1.2-1.2 1.1-0.1c0.2-0.3 0.5-0.6 0.9-0.9 0.1 0 0.2 0 0.4-0.1 0.1 0.1 0.1 0.1 0.1 0.2z"></path><path fill="#f2dbc4" d="m31.1 27.4c0 0.2 0 0.4 0 0.6 0.5-0.3 0.8-0.1 0.7 0.4-0.1 0.2-0.2 0.1-0.2-0.1 0.1-0.1 0.1-0.1 0-0.2-0.6 0.3-0.8 0.2-0.8-0.5 0.1-0.1 0.2-0.2 0.3-0.2z"></path><path fill="#5a3c2c" d="m30.9 27.3h0.2v0.1c-0.1 0-0.2 0.1-0.3 0.2 0 0.7 0.2 0.8 0.8 0.5 0.1 0.1 0.1 0.1 0 0.2l-0.3 0.3c-0.3-0.1-0.5-0.3-0.8-0.5 0 0-0.1 0-0.1 0.1 0 0-0.1-0.1-0.1-0.1 0.1-0.1 0.2-0.2 0.2-0.3 0.1-0.1 0.2-0.3 0.4-0.5z"></path><path fill="#d4a585" d="m32.7 30.5c-0.6 0.9-1.3 1.6-2.2 2.2 0.5-0.6 1-1.1 1.5-1.7l-0.1-0.1c0.1 0 0.3 0 0.4 0v-0.4h0.4z"></path><path fill="#a97e6b" d="m12.3 26.5c0.1 0.3 0.3 0.5 0.5 0.7 0.7 0.5 1.3 0.9 2 1.4 0.3 0.1 0.5 0.2 0.8 0.4-0.1 0.8-0.2 1.7-0.2 2.6l-0.8 0.7c0 1.7 0.1 1.7 0.2 0 0.2-0.2 0.3-0.2 0.4 0 0.6-0.4 0.9-0.9 1.1-1.5 0.1 0.3 0.1 0.6 0 0.9l-0.7 0.6c0 1.8 0.1 1.8 0.3 0 0.2-0.2 0.4-0.4 0.6-0.5 0.1-0.3 0.1-0.5 0.1-0.8 0-0.2 0-0.3 0.1-0.5v0.8h1.1c0 1.3 0 2.5 0.1 3.7-0.2 0.2-0.4 0.5-0.3 0.8h0.8v0.1h-1.6c-1-0.1-2.1-0.3-3.1-0.4-0.1 0-0.2 0-0.3 0.1 0 0-0.1 0-0.1-0.1-0.8-0.3-1.7-0.6-2.6-0.9-0.2-0.2-0.4-0.3-0.7-0.3-0.2-0.1-0.4-0.1-0.5-0.3l-0.1-0.2c0.1-0.1 0.2-0.2 0.3-0.3-0.1-0.1-0.1-0.3-0.2-0.5 0-0.2 0.1-0.3 0.2-0.3 0 0.2 0 0.4 0.1 0.5 0-0.1 0.1-0.3 0.2-0.4-0.1 0.7 0.2 0.9 0.7 0.6 0.4-0.7 0.2-1-0.5-1.1-0.1 0.1-0.3 0.1-0.4 0.2 0.2-0.6 0.1-0.6-0.2-0.2-0.1-0.2-0.1-0.4-0.1-0.6-0.4 0.1-0.7 0.4-0.8 0.9-0.2-0.1-0.2-0.2-0.2-0.4 0.1-0.2 0.1-0.5 0.1-0.8 0.2 0.3 0.3 0.3 0.5 0 0.1 0 0.2 0.1 0.4 0.2 0.1-0.2 0.2-0.4 0.3-0.6-0.1-0.3-0.1-0.5-0.1-0.8 0-0.4 0-0.7 0.1-1 0 0.8 0.1 1.5 0.4 2.2 0.1 0.1 0.3 0.2 0.5 0.2 0.4 0.5 0.8 0.9 1.3 1.2-0.1 0.1-0.2 0.1-0.2 0.2 0 0.1-0.1 0.2-0.2 0.2-0.1-0.1-0.1-0.2-0.1-0.4h-0.3c0 0.3-0.1 0.6-0.2 0.8 0.1 0.4 0.3 0.5 0.6 0.3 0.1-0.3 0.2-0.5 0.4-0.8 0.2 0 0.3 0 0.5-0.1 0.2 0.1 0.2 0.1 0 0.2-0.1 0.2-0.2 0.5-0.3 0.7l-0.3 0.2c0.2 0.2 0.4 0.3 0.6 0.4-0.1-0.2-0.1-0.5 0-0.8 0.1 0 0.2-0.1 0.2-0.1 0.2 0.3 0.5 0.4 0.7 0.5-0.2-0.2-0.4-0.5-0.6-0.7 0-0.1 0.1-0.2 0.2-0.2-0.2-0.2-0.3-0.4-0.2-0.6l-0.1 0.2-0.2-0.5-0.1 0.2c-0.3-0.3-0.4-0.2-0.4 0.2-0.3-0.2-0.4-0.5-0.5-0.8 0.2 0.2 0.4 0.2 0.5 0 0.3 0.2 0.5 0.1 0.7-0.2 0-0.2 0.1-0.3 0.1-0.5 0.1 0.2 0.2 0.2 0.3 0.3-0.1 0.1-0.1 0.3-0.2 0.4l-0.1-0.1c0 0.1-0.1 0.2-0.1 0.3 0.1 0 0.2 0.1 0.2 0.1 0.4-0.2 0.5-0.5 0.5-0.9l0.1 0.1c0 0.7 0.1 1.3 0.2 2 0.1-1.8 0.1-3.6-0.1-5.4-0.1 0.6-0.1 1.3-0.2 2 0-0.8-0.1-1.5-0.2-2.3-0.1 0.5-0.1 0.9-0.1 1.4-0.1 0.1-0.2 0.1-0.2 0 0.1-0.5 0.1-1.1 0-1.6 0 0-0.1-0.1-0.1-0.1-0.2 0.5-0.2 0.9 0 1.4-0.4 0.6-0.9 1-1.5 1.3 0.4-0.3 0.8-0.7 1.1-1.1 0.2-0.6 0.2-1.2 0.1-1.8l-0.4-0.7c0.1 0 0.1 0 0.2 0z"></path><path fill="#d5af99" d="m12.7 31.7c-0.2 0.3-0.4 0.4-0.7 0.2-0.2-0.3-0.2-0.5 0-0.8 0.3-0.1 0.6-0.3 0.9-0.6 0.1 0.1 0.1 0.2 0 0.3-0.1 0.1-0.2 0.2-0.4 0.3 0.1 0.2 0.2 0.4 0.2 0.6z"></path><path fill="#c7a08b" d="m14.8 28.6c0.1 0.7 0.1 1.4 0.2 2.1 0.4 0.3 0.3 0.6-0.2 0.9-0.2 0-0.4-0.2-0.5-0.4 0.1-0.3 0.2-0.5 0.4-0.8l-0.1-0.2-0.5 0.3c-0.1-0.7-0.1-1.5 0-2.2 0.1 0.6 0.2 1.2 0.2 1.9 0.1-0.1 0.2-0.3 0.2-0.5-0.2-0.4-0.2-0.8 0-1.2 0.1 0.1 0.2 0.1 0.3 0.1z"></path><path fill="#ecd6b9" d="m9.1 31.4c-0.2 0.3-0.3 0.3-0.5 0 0 0.3 0 0.6-0.1 0.8-0.2 0-0.3 0-0.5 0-0.1-0.1-0.1-0.2 0-0.3 0.1 0.2 0.2 0.3 0.4 0.1-0.2-0.2-0.3-0.4-0.2-0.7 0.3-0.1 0.6-0.1 0.9 0.1z"></path><path fill="#eaecbe" d="m3.5 30.9c0.4 0.2 0.8 0.5 1.2 0.7 0.3 0.5 0.8 1 1.3 1.3 0.1 0.1 0.2 0.2 0.1 0.3-0.9-0.6-1.8-1.4-2.6-2.3z"></path><path fill="#c69f8b" d="m17 31.3c0.4-0.1 0.7-0.1 1.1-0.1-0.1 1.3 0 2.6 0 3.8 0.4 0.2 0.5 0.5 0.3 0.8h-0.8c-0.1-0.3 0.1-0.6 0.3-0.8-0.1-1.2-0.1-2.4-0.1-3.7h-0.8z"></path><path fill="#0c160f" d="m-0.1 31.8c0.2 0 0.4 0 0.6 0 0.1 0.1 0.3 0.2 0.5 0.3-0.1 0.1-0.2 0.1-0.3 0-0.1 0.2-0.2 0.5-0.1 0.7 0-0.1 0.1-0.1 0.2-0.1-0.2 0.2-0.2 0.3 0 0.4 0.2 0 0.4 0 0.7-0.1 0.2 0.4 0.3 0.4 0.2-0.2-0.1 0.1-0.3 0.1-0.4 0 0.2 0 0.3-0.1 0.2-0.3 0.1-0.3 0.2-0.3 0.3 0 0.1-0.2 0.2-0.4 0.3-0.6 0.1 0.2 0.1 0.4 0.1 0.6 0.1 0.1 0.2 0.1 0.2 0-0.1-0.2-0.1-0.3 0.1-0.5 0.1 0.2 0.2 0.3 0.4 0.1 0 0.2 0.1 0.4 0.2 0.7 0.2 0 0.3-0.1 0.4-0.2 0.1 0.1 0.3 0.2 0.4 0.1l0.3 0.3c0.3-0.1 0.5-0.1 0.7 0.1-0.4 0.1-0.4 0.2 0 0.3 0 0.4 0.2 0.5 0.5 0.2 0.2 0.1 0.3 0.3 0.4 0.4 0.1-0.1 0.3-0.1 0.4 0-0.2 0-0.2 0.2 0 0.4 0.1 0.1 0.2 0.1 0.2-0.1 0.3 0.2 0.3 0.4 0.1 0.6 0.1 0.2 0.3 0.2 0.5 0 0.4 0.3 0.7 0.6 1 0.9 0-0.2-0.1-0.4-0.3-0.6 0.3-0.2 0.5-0.2 0.8 0 0.3 0.2 0.3 0.4-0.1 0.5 0-0.1-0.1-0.1-0.2 0 0.1 0.1 0.2 0.2 0.3 0.2h-8.6v-4.1z"></path><path fill="#eedbc1" d="m9.8 32.5c-0.1 0-0.1 0.1-0.1 0.2-0.1 0-0.2 0.1-0.2 0.3-0.2-0.2-0.3-0.5-0.3-0.9l-0.4 0.6c0 0-0.1-0.1-0.1-0.1 0.1-0.5 0.4-0.8 0.8-0.9 0 0.2 0 0.4 0.1 0.6 0.3-0.4 0.4-0.4 0.2 0.2z"></path><path fill="#a57c69" d="m22.6 19.2c0.1 0.1 0.2 0.2 0.2 0.4-0.1 0.5-0.3 0.8-0.6 1 0 4.2 0.1 8.4 0.4 12.5l0.1-0.5c-0.2-4-0.3-8-0.3-12 0.1-0.1 0.2-0.1 0.3-0.2 0 0.1 0.2 0.2 0.3 0.1 0-0.4 0-0.8 0-1.2 0.1 0 0.2 0 0.3 0.1 0-0.1 0.1-0.2 0.2-0.2 0 0.4 0 0.7 0 1.1-0.2 0.2-0.3 0.5-0.1 0.8 0.1-0.1 0.2-0.2 0.2-0.3 0 0.3 0.1 0.6 0.2 0.9 0 0.3 0 0.7-0.1 1.1l-0.7 0.9c-0.1 2.7-0.1 5.5 0.1 8.2 0 0.3 0 0.7-0.1 1 0.1 0.2 0.2 0.2 0.3 0-0.1-2.8-0.2-5.6-0.3-8.4 0-0.3 0.1-0.6 0.2-0.8 0.3-0.3 0.5-0.6 0.8-0.9 0-0.8 0-1.5 0-2.3h0.2c0 0.9-0.1 1.7-0.1 2.6-0.4 0.3-0.7 0.7-1 1.1 0.1 2.9 0.2 5.8 0.4 8.7 0-3 0-5.9-0.1-8.9l0.9-0.9c0.1-0.8 0.1-1.6 0.1-2.5 0.7 0.2 1.4 0.2 2.1 0 0.2 0.1 0.3 0.3 0.2 0.5l-2.8 3c-0.1 2.9 0 5.7 0.2 8.6 0-2.9 0-5.7 0-8.6 0.9-1 1.8-2 2.8-3 0-0.2 0.1-0.5 0-0.7h0.2c0.1 0.3 0.1 0.6 0 0.9-0.9 1.1-1.9 2.1-2.9 3.1 0.1 2.8 0.1 5.6 0.2 8.4-0.2 0-0.3 0-0.4 0.1v0.3c-0.2 0-0.4 0-0.5 0 0.1 0.4 0.4 0.7 0.7 0.9 0.2-0.1 0.2-0.3 0.2-0.5h0.2c0.4 0.3 0.6 0.2 0.8-0.2 0 0 0.1 0.1 0.1 0.2 0.1-0.3 0.1-0.5 0.2-0.7 0.1 0.1 0.1 0.2 0.2 0.3 0-0.1 0.1-0.1 0.1-0.2 0 0.1 0.1 0.2 0.2 0.2 0.3-0.1 0.3-0.3 0.2-0.6-0.2 0-0.3-0.1-0.5-0.1h0.5v-0.4c0.1 0.3 0.2 0.5 0.5 0.7l0.2-0.1c-0.3-0.2-0.4-0.4-0.4-0.7 0.5 0.6 0.7 0.5 0.7-0.1 0.6 0.4 1 0.2 1-0.6 0.1 0 0.2 0 0.2 0.1 0.2 0.2 0.3 0.2 0.5 0.1 0.2-0.2 0.4-0.5 0.7-0.6 0 0.1 0 0.3 0.1 0.4-3.3 2.9-7.1 4.4-11.5 4.5 0.2-0.3 0.1-0.6-0.3-0.8 0-1.2-0.1-2.5 0-3.8-0.1-1.2 0.2-2.2 0.9-3.2 0.1 2.5 0.2 5.1 0.2 7.7h0.5c0-2.8-0.1-5.6-0.2-8.4-0.1 2.5 0 5.1 0.1 7.6l-0.1 0.7c-0.1-2.7-0.2-5.3-0.3-8 0.3-0.9 0.8-1.7 1.3-2.5 0.4-1 0.7-2 0.9-3.1 0.3-0.7 0.4-1.4 0.5-2.1 0.2-0.2 0.5-0.5 0.7-0.7z"></path><path fill="#f2d9c1" d="m27.1 31.4c0 0.3 0.1 0.4 0.3 0.5 0 0.6-0.2 0.7-0.7 0.1 0 0.3 0.1 0.5 0.4 0.7l-0.2 0.1c-0.3-0.2-0.4-0.4-0.5-0.7-0.1-0.1-0.1-0.3 0-0.4 0.6 0.5 0.7 0.4 0.3-0.1 0.1-0.1 0.2-0.2 0.4-0.2z"></path><path fill="#e7d6bd" d="m28.2 31c0 0.1 0.1 0.2 0.2 0.3 0 0.8-0.4 1-1 0.6-0.3-0.8 0-1.1 0.8-0.9z"></path><path fill="#1b0300" d="m28.1 31.4c0 0.2-0.1 0.3-0.3 0.4 0.1-0.2 0.2-0.3 0.3-0.4z"></path><path fill="#c19b87" d="m20.5 25.1c0.3 0.1 0.5 0.3 0.6 0.5l0.3 8.2v0.5c0-0.2-0.1-0.4-0.3-0.5 0-0.1 0.1-0.1 0.2-0.2-0.1 0-0.1-0.1-0.1-0.2-0.1-2.6-0.2-5.1-0.3-7.7-0.2-0.1-0.4-0.3-0.4-0.6z"></path><path fill="#885e47" d="m28.1 31.4c-0.1 0.1-0.2 0.2-0.3 0.4-0.3-0.2-0.4-0.4-0.1-0.7 0.2 0.1 0.3 0.2 0.4 0.3z"></path><path fill="#be9b86" d="m24.2 20.5c0.1 0 0.2 0.1 0.2 0.1 0 0.9 0 1.7-0.1 2.5l-0.9 0.9c0.1 3 0.1 5.9 0.1 8.9-0.2-2.9-0.3-5.8-0.4-8.7 0.3-0.4 0.6-0.8 1-1.1 0-0.9 0.1-1.7 0.1-2.6z"></path><path fill="#31170f" d="m28.7 30.9c0.1 0 0.2 0.1 0.3 0.2-0.2 0-0.3 0-0.3-0.2z"></path><path fill="#2f120b" d="m28.2 31c0.2 0 0.2 0.1 0.2 0.3-0.1-0.1-0.2-0.2-0.2-0.3z"></path><path fill="#c6a18c" d="m26.9 20.4c0.1 0.2 0 0.5 0 0.7-1 1-1.9 2-2.8 3 0 2.9 0 5.7 0 8.6-0.2-2.9-0.3-5.7-0.2-8.6l2.8-3c0.1-0.2 0-0.4-0.2-0.5 0.1-0.1 0.3-0.1 0.4-0.2z"></path><path fill="#c09b86" d="m21.9 33.4c-0.1 0.3-0.1 0.7-0.1 1.1-0.1-0.1-0.1-0.2-0.1-0.2-0.1-2.9-0.2-5.8-0.3-8.7-0.3-0.2-0.5-0.4-0.6-0.7 0-0.1 0.1-0.1 0.2 0 0.2 0.3 0.4 0.5 0.6 0.7 0.1 2.6 0.2 5.2 0.3 7.8z"></path><path fill="#c49e89" d="m20 26.2c0 0 0.1 0 0.1 0.1 0.1 2.2 0.1 4.4 0.2 6.6l-0.1 0.8c-0.2-2.5-0.2-5-0.2-7.5z"></path><path fill="#c19b87" d="m24 20.5c0 0.8 0 1.5 0 2.3-0.3 0.3-0.5 0.6-0.8 0.9-0.1 0.2-0.2 0.5-0.2 0.8 0.1 2.8 0.2 5.6 0.3 8.4-0.1 0.2-0.2 0.2-0.3 0 0.1-0.3 0.1-0.7 0.1-1-0.2-2.7-0.2-5.5-0.1-8.2l0.7-0.9c0.1-0.4 0.1-0.8 0.1-1.1 0-0.4 0-0.7 0.1-1.1 0 0 0-0.1 0.1-0.1z"></path><path fill="#6e4d34" d="m6.8 32.3c0.4 0.2 0.8 0.5 1.1 0.8-0.4-0.1-0.8-0.4-1.1-0.8z"></path><path fill="#efdcc5" d="m25.9 32.5c0.2 0 0.3 0.1 0.5 0.1 0.1 0.3 0.1 0.5-0.2 0.6-0.1 0-0.2-0.1-0.2-0.2 0.1 0 0.2-0.1 0.3-0.1l-0.6-0.2c-0.1 0-0.1-0.1-0.1-0.2 0.1-0.4 0.2-0.5 0.6-0.4l-0.4 0.2c0 0.1 0.1 0.1 0.1 0.2z"></path><path fill="#e8a579" d="m35.9 22.9v2.5c-0.8 1.9-1.8 3.6-3.2 5.1 0-0.1 0-0.3 0.1-0.4 0.4-0.4 0.8-0.9 1.1-1.5-0.2-0.1-0.4-0.1-0.5 0-0.1 0.2-0.2 0.3-0.4 0.3 0.1 0.3 0.1 0.3-0.2 0.2-0.5 0.5-0.9 1-1.4 1.6-0.1 0.1-0.1 0.2 0 0.2-0.6 0.4-1.3 0.9-1.9 1.4l0.4 0.3c-0.2 0.1-0.2 0.3 0 0.4 0.1-0.2 0.4-0.3 0.6-0.3-0.4 0.4-0.9 0.8-1.4 1.1-0.2 0-0.4 0.1-0.6 0.2l-1.2 0.8c-0.5 0.1-0.9 0.2-1.4 0.2-0.2 0.3-0.4 0.3-0.6 0.1 0.1-0.3 0.4-0.6 0.7-0.7 3.1-1.6 5.5-3.8 7.5-6.6 0.2-0.2 0.4-0.4 0.8-0.5-0.1 0-0.2-0.1-0.3-0.2 0.9-1.2 1.4-2.6 1.7-4 0.1-0.2 0.1-0.2 0.2-0.2z"></path><path fill="#643724" d="m10.2 32.3c-0.1 0.2-0.2 0.3-0.2 0.5-0.1 0.1-0.2 0.3-0.2 0.4-0.1-0.1-0.1-0.3-0.1-0.5 0-0.1 0-0.2 0.1-0.2 0.1-0.1 0.3-0.1 0.4-0.2z"></path><path fill="#c59b88" d="m19 28c-0.1-0.2 0-0.3 0.2-0.4 0.1 2.7 0.2 5.3 0.3 8l0.1-0.7c-0.1-2.5-0.2-5.1-0.1-7.6 0.1 2.8 0.2 5.6 0.2 8.4h-0.5c0-2.6-0.1-5.2-0.2-7.7z"></path><path fill="#e7d2bb" d="m25.4 33.4c-0.2 0.4-0.4 0.5-0.8 0.2 0.2-0.4 0.3-0.7 0.3-1 0.3 0.2 0.4 0.4 0.5 0.8z"></path><path fill="#eed9bf" d="m10.2 32.3c0.7 0.1 0.9 0.4 0.5 1.1-0.5 0.3-0.8 0.1-0.7-0.6 0-0.2 0.1-0.3 0.2-0.5z"></path><path fill="#3e1e16" d="m10.6 32.7c0.1 0.1 0.1 0.3 0 0.4-0.1 0.1-0.3 0.2-0.4 0.1 0.2-0.1 0.4-0.3 0.4-0.5z"></path><path fill="#a88469" d="m10.6 32.7c0 0.2-0.2 0.4-0.4 0.5-0.1-0.3 0-0.5 0.3-0.6 0.1 0 0.1 0 0.1 0.1z"></path><path fill="#e2cdb6" d="m11.8 33c0.1 0 0.1 0 0.2 0.1-0.2 0.3-0.3 0.5-0.4 0.8-0.3 0.2-0.5 0.1-0.6-0.3 0.1-0.2 0.2-0.5 0.2-0.8h0.3c0 0.2 0 0.3 0.1 0.4 0.1 0 0.2-0.1 0.2-0.2z"></path><path fill="#f0dec6" d="m24 32.9c0.2 0.1 0.2 0.2 0.2 0.4l0 0.4c-0.1-0.2-0.2-0.2-0.3-0.1 0.1 0.2 0.2 0.4 0.3 0.5-0.3-0.2-0.6-0.5-0.7-0.9 0.1 0 0.3 0 0.5 0v-0.3z"></path><path fill="#f0dac4" d="m23 33.2c0.1 0 0.2 0.1 0.3 0.2 0 0.2 0.1 0.5 0.3 0.7-0.2 0.4-0.4 0.4-0.8 0.3 0-0.3-0.1-0.6-0.2-0.8l0.1-0.1c0.4 0.3 0.5 0.2 0.3-0.3z"></path><path fill="#5f3e2a" d="m7.9 33.1c0.5 0.3 1 0.5 1.5 0.7l0.1 0.2h-0.2c-0.5-0.2-1-0.5-1.4-0.9z"></path><path fill="#f2dac3" d="m13.6 33.6c0.1 0 0.2 0.2 0.3 0.3 0.5-0.3 0.5-0.2 0.2 0.2 0 0.3-0.1 0.5-0.1 0.7l-0.2-0.3c-0.1 0.2-0.3 0.2-0.5 0.1 0.4-0.3 0.4-0.6 0.3-1z"></path><path fill="#f4e2cb" d="m22 33.6c0.1 0 0.2 0.1 0.3 0.2 0 0.2 0 0.5 0 0.7 0.4 0 0.4 0.1 0.1 0.2-0.1 0-0.2 0.1-0.3 0.1-0.1 0-0.1-0.1-0.1-0.2 0.1-0.3 0.1-0.7 0-1z"></path><path fill="#e8d4bd" d="m20.2 33.9c0.7 0 0.7 0.1 0.1 0.4 0.6 0.3 0.6 0.6 0.1 0.9l-0.2-0.2c0.4-0.2 0.4-0.3-0.1-0.3 0-0.2 0-0.3-0.1-0.4 0-0.2 0.1-0.3 0.2-0.4z"></path><path fill="#eed7c0" d="m12.5 33.2c0.1 0.2 0.1 0.3 0 0.5-0.1 0.3-0.1 0.6 0 0.8-0.2-0.1-0.4-0.2-0.6-0.4l0.3-0.2c0.1-0.2 0.2-0.5 0.3-0.7z"></path><path fill="#33221c" d="m23 34c0.2 0 0.3 0.1 0.1 0.3-0.1-0.1-0.1-0.2-0.1-0.3z"></path><path fill="#75513d" d="m21.9 33.4c0.2-0.1 0.3 0 0.1 0.2 0.1 0.3 0.1 0.7 0 1l-0.2 0.1-0.4-0.4v-0.5l0.3 0.5c0 0 0 0.1 0.1 0.2 0-0.4 0-0.8 0.1-1.1z"></path><path fill="#cfd1a9" d="m7.7 34.4c0.5 0.2 1 0.4 1.6 0.6 0.1 0.1 0.1 0.2 0.2 0.4-0.7-0.2-1.3-0.6-1.8-1z"></path><path fill="#43261a" d="m10 34.3c0.3 0 0.5 0.1 0.7 0.3-0.3 0-0.5-0.1-0.7-0.3z"></path><path fill="#f0d6bf" d="m14.6 33.8c0.2 0 0.5 0.1 0.6 0.2-0.1 0.4-0.1 0.7-0.1 1-0.2 0.1-0.5 0-0.6-0.2 0.1-0.1 0.2-0.1 0.3 0 0.1-0.1 0.1-0.2 0.1-0.3-0.6 0-0.6-0.1 0-0.4-0.2 0-0.3-0.1-0.3-0.3z"></path><path fill="#45251a" d="m10.7 34.6c0.9 0.3 1.8 0.6 2.6 0.9-0.9-0.1-1.8-0.4-2.6-0.9z"></path><path fill="#f2ddc5" d="m15.7 33.9c0.2 0 0.4 0.1 0.6 0.2-0.2 0.1-0.4 0.1-0.6 0.2l0.4 0.5c-0.1 0.3-0.3 0.4-0.6 0.2l0.3-0.2c-0.4-0.3-0.4-0.6-0.1-0.9z"></path><path fill="#e8d4bc" d="m21.1 33.8c0.2 0.1 0.3 0.3 0.3 0.5l0.4 0.4c-0.2 0.1-0.3 0.1-0.4-0.1-0.1 0.2-0.2 0.3-0.3 0.4-0.1-0.4-0.1-0.8 0-1.2z"></path><path fill="#f2d696" d="m9.3 34h0.2c0.1 0.2 0.3 0.2 0.5 0.3 0.2 0.2 0.4 0.3 0.7 0.3 0.8 0.5 1.7 0.8 2.6 0.9 0 0.1 0.1 0.1 0.1 0.1 0.5 0.1 1 0.3 1.4 0.3h-4.3c-0.3-0.1-0.7-0.3-1-0.5 0.2 0 0.3 0 0.5-0.1-0.2 0-0.4-0.1-0.5-0.3 0.4-0.1 0.5-0.4 0.2-0.6-0.2 0.1-0.4-0.1-0.4-0.4z"></path><path fill="#edb588" d="m29.1 33.8c-1.2 0.9-2.4 1.6-3.7 2.1h-4.3c1.7-0.3 3.3-0.8 4.9-1.5-0.3 0.1-0.6 0.4-0.7 0.7 0.2 0.2 0.4 0.2 0.6-0.1 0.5 0 0.9-0.1 1.4-0.2l1.2-0.8c0.2-0.1 0.4-0.2 0.6-0.2z"></path><path fill="#522c1b" d="m13.4 35.6c0.1-0.1 0.2-0.1 0.3-0.1 1 0.1 2.1 0.3 3.1 0.4h-2c-0.4 0-0.9-0.2-1.4-0.3z"></path></svg>