<?xml version="1.0"?><svg xmlns="http://www.w3.org/2000/svg" width="36" height="36" shape-rendering="geometricPrecision" text-rendering="geometricPrecision" image-rendering="optimizeQuality" fill-rule="evenodd" clip-rule="evenodd" viewBox="0 0 36 36"><path fill="#fefefe" d="m-0.1-0.1h36v36h-36v-36z"></path><path fill="#0b0b0b" d="m10 10.9c-0.3-0.8-0.5-1.6-0.8-2.3l-1.9-5.6c7 1.6 14.1 3.3 21.1 5l5 3.4c0.1 0.1 0.1 0.2 0 0.4-5 7.2-10.1 14.4-15.2 21.7-2.8-7.6-5.5-15.1-8.2-22.6z"></path><path fill="#090909" d="m9.1 8.8c0.2 0.7 0.4 1.4 0.7 2.1v0.3c-2.8-1-5.7-2-8.5-3.2 2.6 0.3 5.2 0.5 7.8 0.8z"></path><path fill="#cbcbcb" d="m9.2 8.6c0.3 0.7 0.5 1.5 0.8 2.3h-0.2c-0.3-0.7-0.5-1.4-0.7-2.1 0.1 0 0.1-0.1 0.1-0.2z"></path><path fill="#f8f8f8" d="m31 12.8c-0.2-0.1-0.3 0-0.3 0.1-1.5 0.7-3 1.4-4.4 2-0.1 0-0.1 0.1-0.1 0.1 0.6 0.2 1.2 0.3 1.9 0.2h0.1l1 0.3c-3.6 5.3-7.2 10.6-10.8 15.8-3.3-8.9-6.5-17.7-9.7-26.6l0.2-0.1c6.4 1.5 12.7 3.1 19.1 4.6l3.6 2.6c-0.1 0.4-0.3 0.7-0.6 1z"></path><path fill="#050505" d="m13.2 9.5c4.1 0.3 8.1 0.8 12.2 1.3-1.7 1.9-3.4 3.7-5 5.6 0.1-0.7 0.2-1.3 0.4-1.9-1.3-0.1-2.5-0.3-3.8-0.4-1.2-1.6-2.5-3.1-3.8-4.6z"></path><path fill="#0a0a0a" d="m10.9 9.2c0.4 0 0.9 0 1.4 0.1l3.3 3.8c-1.3-0.4-2.6-0.8-3.8-1.3-0.4-0.9-0.7-1.8-0.9-2.6z"></path><path fill="#070707" d="m26.3 10.9c1.4 0.1 2.9 0.3 4.4 0.5 0.2 0.1 0.3 0.2 0.5 0.4-3.2 1.5-6.5 3-9.7 4.6-0.1-0.1-0.1-0.2 0-0.3 1.6-1.7 3.2-3.5 4.8-5.2z"></path><path fill="#0c0c0c" d="m30.7 12.9c0 0 0 0 0.1 0l-1.6 2.3c-0.3 0-0.7 0.1-1 0h-0.1c-0.6 0-1.2-0.1-1.8-0.3 1.4-0.6 2.9-1.3 4.4-2z"></path><path fill="#c8c8c8" d="m30.7 12.9c0-0.1 0.1-0.2 0.3-0.1-0.6 0.9-1.2 1.8-1.8 2.7l-1-0.3c0.3 0.1 0.7 0 1 0l1.6-2.3c-0.1 0-0.1 0-0.1 0z"></path><path fill="#a6a6a6" d="m26.3 14.9c0.6 0.2 1.2 0.3 1.8 0.3-0.7 0.1-1.3 0-1.9-0.2 0 0 0-0.1 0.1-0.1z"></path><path fill="#050505" d="m25.3 15.5c0.1 0.1 0.1 0.2 0 0.3l-4.9 11.5c-0.5 0.1-1 0.1-1.4 0.1 0.2-3.1 0.6-6.2 0.9-9.3 1.8-0.9 3.6-1.8 5.4-2.6z"></path><path fill="#090909" d="m19.2 19c0.1-0.1 0.2 0 0.2 0.1-0.3 2.7-0.6 5.4-0.8 8.2-0.5-0.1-1-0.1-1.6-0.1-0.1-0.6-0.3-1.1-0.5-1.6 0.9-2.2 1.8-4.4 2.7-6.6z"></path></svg>