<svg xmlns="http://www.w3.org/2000/svg" width="320" height="320" viewBox="0 0 320 320" version="1.1">
	<path fill-opacity="0.227" d="M 145.252 3.070 C 83.530 9.038, 30.441 51.267, 10.992 109.867 C 3.899 131.239, 1.319 151.397, 3.016 172.200 C 8.188 235.594, 49.107 288.605, 108.949 309.434 C 127.958 316.051, 136.815 317.423, 160.500 317.423 C 184.187 317.423, 193.041 316.051, 212.057 309.432 C 235.629 301.227, 252.942 290.207, 271.540 271.568 C 286.478 256.598, 294.541 245.430, 302.468 228.729 C 313.383 205.733, 316.961 190.764, 317.698 165 C 318.149 149.252, 317.922 144.715, 316.177 134.500 C 306.478 77.728, 266.699 30.192, 213.424 11.707 C 189.818 3.516, 168.530 0.819, 145.252 3.070" stroke="none" fill="black" fill-rule="evenodd"/>
	<path fill-opacity="0.528" d="M 136.928 4.467 C 118.388 7.494, 105.876 11.525, 89.495 19.749 C 46.300 41.435, 16.301 80.746, 5.790 129.435 C 2.859 143.013, 2.601 174.740, 5.310 188.500 C 12.053 222.756, 27.353 250.811, 52.288 274.645 C 99.676 319.940, 171.321 330.755, 230.194 301.500 C 246.375 293.460, 258.010 285.026, 271.552 271.520 C 327.897 215.326, 333.674 127.490, 285.196 64.045 C 271.230 45.767, 252.356 30.401, 230.500 19.518 C 216.308 12.450, 206.779 9.075, 192.077 5.906 C 179.479 3.191, 149.529 2.410, 136.928 4.467" stroke="none" fill="black" fill-rule="evenodd"/>
	<path fill-opacity="0.398" d="M 138.861 4.521 C 71.232 13.749, 17.867 65.212, 5.359 133.264 C 2.969 146.269, 2.989 174.061, 5.398 187.500 C 11.064 219.106, 28.400 251.802, 50.867 273.255 C 72.489 293.901, 100.464 308.724, 128.500 314.388 C 147.807 318.289, 171.569 318.323, 191.816 314.477 C 224.017 308.362, 257.935 288.587, 279.427 263.399 C 315.875 220.681, 327.094 163.342, 309.416 110.120 C 285.733 38.818, 213.821 -5.707, 138.861 4.521 M 58.765 137.250 L 58.500 167.500 46.250 167.781 L 34 168.062 34 171.031 L 34 174 152.107 174 C 246.193 174, 270.112 173.746, 269.713 172.750 C 269.437 172.063, 263.486 157.550, 256.488 140.500 C 249.490 123.450, 243.544 108.938, 243.275 108.250 C 242.931 107.369, 239.916 107, 233.076 107 L 223.366 107 212.025 136.750 C 205.788 153.113, 200.193 166.842, 199.592 167.259 C 198.992 167.677, 196.025 167.902, 193 167.759 L 187.500 167.500 186.855 155.500 C 186.153 142.430, 184.386 135.272, 179.917 127.397 C 176.351 121.113, 168.352 113.486, 162.711 110.990 C 157.895 108.860, 147.742 107.019, 140.750 107.008 L 136 107 136 118.883 C 136 132.012, 135.966 131.951, 143.300 131.986 C 149.971 132.019, 156.218 138.075, 158 146.238 C 158.632 149.132, 159.002 155.100, 158.824 159.500 L 158.500 167.500 142 167.500 L 125.500 167.500 125.235 137.250 L 124.971 107 111.485 107 L 98 107 98 137 L 98 167 92 167 L 86 167 86 137 L 86 107 72.515 107 L 59.029 107 58.765 137.250 M 232.142 139.111 C 224.431 159.257, 222 165.909, 222 166.860 C 222 167.647, 225.560 168, 233.500 168 C 239.825 168, 244.998 167.662, 244.996 167.250 C 244.990 166.182, 234.239 137.905, 233.592 137.259 C 233.297 136.964, 232.645 137.798, 232.142 139.111 M 91.750 178.750 L 34 179.016 34 182.008 L 34 185 46.500 185 L 59 185 59 199 L 59 213 72.472 213 L 85.944 213 86.222 199.250 L 86.500 185.500 92 185.500 L 97.500 185.500 97.778 199.250 L 98.056 213 120.278 212.980 C 144.659 212.958, 152.883 212.138, 161.665 208.852 C 168.616 206.252, 177.221 198.117, 181.076 190.500 C 183.520 185.673, 183.769 185.489, 188.304 185.195 C 190.887 185.028, 192.999 185.253, 192.998 185.695 C 192.997 186.138, 190.747 192.266, 187.998 199.313 C 185.249 206.360, 183 212.323, 183 212.563 C 183 212.803, 187.961 213, 194.025 213 C 204.550 213, 205.086 212.898, 205.864 210.750 C 206.312 209.512, 208.604 203.203, 210.957 196.728 L 215.234 184.957 233.744 185.228 L 252.255 185.500 257.426 199 L 262.598 212.500 274.418 212.783 C 283.730 213.006, 286.126 212.793, 285.705 211.783 C 285.412 211.077, 282.402 203.759, 279.017 195.520 C 275.632 187.280, 272.388 179.968, 271.809 179.270 C 270.725 177.964, 265.406 177.949, 91.750 178.750 M 125 186.531 C 125 188.957, 127.170 189.229, 138.495 188.227 C 154.595 186.802, 154.431 185, 138.200 185 C 127.013 185, 125 185.234, 125 186.531" stroke="none" fill="black" fill-rule="evenodd"/>
	<path fill-opacity="0.536" d="M 145.500 3.623 C 136.314 4.605, 119.232 8.294, 110.672 11.144 C 71.505 24.184, 37.222 54.199, 19.162 91.264 C 1.534 127.440, -1.503 169.361, 10.672 208.471 C 13.840 218.648, 23.386 238.346, 29.675 247.683 C 61.416 294.806, 116.411 321.537, 172.241 316.979 C 193.778 315.221, 211.243 310.397, 230.500 300.886 C 246.071 293.196, 258.953 283.932, 271.443 271.443 C 309.585 233.301, 325.380 179.259, 313.889 126.220 C 310.993 112.856, 306.814 101.447, 299.889 88 C 277.956 45.409, 237.634 15.238, 190.265 5.972 C 179.772 3.920, 154.918 2.615, 145.500 3.623 M 59 137 L 59 167 45.940 167 L 32.879 167 33.190 170.750 L 33.500 174.500 151.750 174.754 C 263.929 174.995, 269.996 174.918, 269.922 173.254 C 269.879 172.289, 263.912 157.100, 256.661 139.500 L 243.477 107.500 233.123 107.500 L 222.769 107.500 215.852 125.500 C 212.049 135.400, 206.888 148.787, 204.384 155.250 L 199.832 167 194.069 167 L 188.306 167 187.660 156.250 C 186.942 144.278, 185.347 137.274, 181.593 129.601 C 174.330 114.755, 161.186 107, 143.290 107 L 136 107 136 119.360 L 136 131.720 141.541 132.292 C 144.589 132.607, 148.482 133.682, 150.194 134.682 C 155.765 137.938, 159 147.472, 159 160.636 L 159 167 142.500 167 L 126 167 126 137 L 126 107 111.500 107 L 97 107 97 137 L 97 167 92 167 L 87 167 87 137 L 87 107 73 107 L 59 107 59 137 M 227.801 151.722 L 222.227 166.500 232.745 166.785 C 238.530 166.942, 243.489 166.845, 243.765 166.569 C 244.041 166.293, 241.816 159.514, 238.820 151.505 L 233.374 136.943 227.801 151.722 M 33.189 181.746 L 33.500 185.500 46.250 185.780 L 59 186.060 59 199.530 L 59 213 73 213 L 87 213 87 199.500 L 87 186 92 186 L 97 186 97 199.500 L 97 213 122.553 213 C 142.170 213, 149.708 212.635, 155.005 211.431 C 166.903 208.725, 176.722 200.787, 181.784 189.783 C 183.369 186.337, 183.825 186.050, 187.750 186.026 C 190.088 186.012, 192 186.353, 192 186.784 C 192 187.215, 189.805 193.290, 187.121 200.284 L 182.243 213 193.922 213 L 205.601 213 210.416 199.478 L 215.232 185.957 233.700 186.228 L 252.169 186.500 257.204 199.750 L 262.240 213 274.120 213 C 282.998 213, 285.981 212.684, 285.923 211.750 C 285.881 211.063, 282.834 203.300, 279.151 194.500 L 272.455 178.500 152.667 178.246 L 32.879 177.992 33.189 181.746 M 126 187 C 126 188.190, 143.285 188.190, 147 187 C 148.581 186.494, 145.183 186.163, 137.750 186.100 C 130.517 186.038, 126 186.384, 126 187" stroke="none" fill="black" fill-rule="evenodd"/>
</svg>