<?xml version="1.0"?><svg xmlns="http://www.w3.org/2000/svg" width="36" height="36" shape-rendering="geometricPrecision" text-rendering="geometricPrecision" image-rendering="optimizeQuality" fill-rule="evenodd" clip-rule="evenodd" viewBox="0 0 36 36"><path fill="#0a1c38" d="m31.4 6.4c0 0.1 0.1 0.2 0.3 0.3 0.2 0.2 0.4 0.4 0.5 0.7 0 0.1 0.1 0.3 0.3 0.3 1.8 2.5 2.8 5.3 3.2 8.3 0.5 7.8-2.6 13.7-9.2 17.6-4 2.1-8.1 2.6-12.5 1.7-2-0.4-3.9-1.3-5.6-2.4-0.1-0.2-0.2-0.2-0.4-0.2-0.2-0.1-0.3-0.2-0.4-0.4-0.1-0.1-0.2-0.2-0.3-0.2-4.6-3.6-7-8.3-7.1-14.1 0-3.6 1-6.9 3-9.8 0.2-0.1 0.2-0.2 0.2-0.4 0.3-0.4 0.5-0.7 0.8-1 0.2 0 0.3-0.2 0.2-0.3 0.6-0.7 1.2-1.3 1.8-1.8 0.3-0.1 0.5-0.2 0.6-0.5 2.6-2.1 5.5-3.4 8.9-3.9 6.3-0.6 11.5 1.4 15.7 6.1z"></path><path fill="#5b657a" d="m6.8 4.2c-0.1 0.3-0.3 0.4-0.6 0.5 0.2-0.3 0.4-0.4 0.6-0.5z"></path><path fill="#868f9d" d="m31.4 6.4c0.2 0 0.3 0.1 0.3 0.3-0.2-0.1-0.3-0.2-0.3-0.3z m-27 0.1c0.1 0.1 0 0.3-0.2 0.3 0-0.2 0.1-0.3 0.2-0.3z"></path><path fill="#7f8897" d="m32.2 7.4c0.2 0 0.3 0.1 0.3 0.3-0.2 0-0.3-0.2-0.3-0.3z"></path><path fill="#8a92a0" d="m3.4 7.8c0 0.2 0 0.3-0.2 0.4 0-0.2 0.1-0.3 0.2-0.4z"></path><path fill="#1f66d3" d="m14 12v6.8c1.3 0.1 2.6 0 3.8-0.1 0-0.8 0-1.7-0.1-2.6-0.5-1.1-1.3-1.5-2.5-1.3v-2.8c3.5-0.2 5.4 1.4 5.8 4.8 0.1 0.7 0.1 1.3 0.1 1.9 0.5 0.1 0.9 0 1.4-0.1 0.8-2.2 1.7-4.3 2.5-6.5 0.8-0.1 1.5-0.2 2.3-0.1 1 2.5 2.1 4.9 3 7.4-8.8 0.1-17.7 0.2-26.5 0.1v-0.8h2.8v-6.7h3.1v6.7h1.2v-6.7h3.1z"></path><path fill="#081c3a" d="m26.2 15.4c0.5 1 0.9 2.2 1.2 3.3-0.8 0.1-1.7 0-2.5-0.1 0.5-1.1 0.9-2.2 1.3-3.2z"></path><path fill="#174c9e" d="m14 12c0.1 2.2 0.2 4.5 0.1 6.7h3.7c-1.2 0.1-2.5 0.2-3.8 0.1v-6.8z"></path><path fill="#134085" d="m3.8 18.7v0.8c8.8 0.1 17.7 0 26.5-0.1 0.1 0 0.1 0.1 0.1 0.1-8.9 0.1-17.8 0.2-26.7 0.1-0.1-0.3 0-0.6 0.1-0.9z"></path><path fill="#1953ab" d="m16.7 20c-4.3 0.1-8.6 0.1-12.9 0.1v0.7c-0.1-0.3-0.2-0.5-0.1-0.8h13z"></path><path fill="#1f66d3" d="m16.7 20c4.6-0.1 9.2 0 13.8 0 0.6 1.3 1.1 2.5 1.6 3.8-0.9 0.1-1.8 0.1-2.7 0.1-0.3-1-0.6-2-1.1-3-1.4-0.1-2.8-0.1-4.2 0-0.3 1-0.7 2-1.1 3-0.8 0-1.6 0-2.5 0 0.3-1 0.7-2 1-3-0.3-0.1-0.6 0-1 0.1-0.7 1.6-1.9 2.6-3.7 2.8-1.9 0.1-3.9 0.1-5.8 0.1v-3.1h-1.4v3.1h-3v-3.1h-2.8v-0.7c4.3 0 8.6 0 12.9-0.1z"></path><path fill="#144186" d="m14.1 20.9c0.9-0.2 1.9-0.2 2.8-0.1 0 0.1-0.1 0.1-0.2 0.2-0.8-0.1-1.7-0.2-2.6-0.1z"></path><path fill="#10346b" d="m3.8 20.8h2.8v3.1c-0.1-1-0.2-2-0.1-3-1 0-1.9 0-2.7-0.1z"></path><path fill="#1951a8" d="m11 23.9c-0.1-1-0.2-2-0.1-3h-1.2c0.1 1 0 2-0.1 3v-3.1h1.4v3.1z"></path><path fill="#081c39" d="m14.1 20.9c0.9-0.1 1.8 0 2.6 0.1-0.5 0-1 0.1-1.5 0.1-0.4 0-0.8-0.1-1.1-0.2z"></path><path fill="#737c8d" d="m7.3 32.1c0.1 0 0.2 0.1 0.3 0.2-0.2 0.1-0.3 0-0.3-0.2z"></path><path fill="#8b93a1" d="m8 32.7c0.2 0 0.3 0 0.4 0.2-0.2 0-0.3-0.1-0.4-0.2z"></path></svg>