<svg xmlns="http://www.w3.org/2000/svg" width="128" height="128" viewBox="0 0 128 128" version="1.1">
	<path fill-opacity="0.345" d="M 50 1.555 C 32.258 5.366, 15.192 18.695, 7.138 35.034 C -5.531 60.733, -1 89.040, 18.980 109.020 C 44.330 134.371, 83.590 134.356, 109.094 108.987 C 117.820 100.308, 124.273 88.758, 126.271 78.245 C 126.924 74.810, 127.805 72, 128.229 72 C 128.653 72, 129 68.100, 129 63.333 C 129 58.567, 128.683 54.984, 128.295 55.372 C 127.907 55.760, 127.015 53.248, 126.314 49.789 C 125.613 46.330, 123.472 40.350, 121.558 36.500 C 108.102 9.442, 79.136 -4.703, 50 1.555 M 53.763 2.033 C 32.179 5.667, 12.639 22.205, 5.334 43.023 C 3.891 47.135, 2.446 53.875, 2.124 58 L 1.537 65.500 0.926 60.500 C 0.448 56.597, 0.311 57.474, 0.299 64.500 C 0.288 71.143, 0.471 72.452, 1 69.500 L 1.716 65.500 1.858 70.698 C 2.091 79.216, 6.368 90.899, 12.266 99.124 C 24.467 116.140, 43.968 126, 65.420 126 C 76.092 126, 84.229 124.021, 93.469 119.176 C 101.302 115.069, 113.169 104.594, 112.764 102.144 C 112.619 101.265, 113.175 100.524, 114 100.498 C 114.825 100.473, 115.438 99.680, 115.363 98.737 C 115.285 97.765, 115.684 97.305, 116.283 97.675 C 116.937 98.079, 117.101 97.707, 116.714 96.696 C 116.369 95.798, 116.587 94.755, 117.198 94.378 C 117.871 93.962, 118.028 94.146, 117.595 94.845 C 117.203 95.480, 117.124 96, 117.421 96 C 118.550 96, 122.113 87.737, 121.581 86.351 C 121.274 85.551, 121.447 85.158, 121.965 85.478 C 124.116 86.808, 127.396 68.575, 126.639 59.500 C 126.084 52.852, 123.313 41.354, 122.469 42.198 C 122.251 42.415, 122.714 44.723, 123.498 47.326 C 125.457 53.837, 126.255 65.488, 125.152 71.500 L 124.235 76.500 124.118 72.191 C 124.047 69.598, 123.602 68.128, 123 68.500 C 122.450 68.840, 121.959 68.529, 121.910 67.809 C 121.860 67.089, 121.224 69.786, 120.496 73.801 C 118.326 85.781, 109.593 101.394, 102.147 106.610 C 97.617 109.783, 98.112 106.658, 102.984 101.327 C 113.120 90.237, 118.061 77.896, 117.900 64.075 C 117.845 59.359, 117.486 54.375, 117.101 53 C 116.715 51.625, 116.423 55.264, 116.450 61.088 C 116.486 68.776, 116.115 72.142, 115.092 73.380 C 114.161 74.507, 113.349 74.749, 112.693 74.093 C 112.037 73.437, 110.954 75.238, 109.495 79.413 C 100.388 105.476, 72.461 118.914, 45.959 109.986 C 42.716 108.894, 39.853 108, 39.596 108 C 39.338 108, 38.124 109.787, 36.896 111.971 L 34.664 115.942 29.844 113.319 C 24.096 110.190, 14.448 100.381, 10.554 93.705 C 7.302 88.129, 7.758 86.557, 11.467 90.559 L 14.046 93.341 11.482 87.741 C 7.255 78.510, 5.718 62.528, 8.043 52 C 9.807 44.013, 13.160 36, 14.739 36 C 16.373 36, 16.361 36.057, 12.883 45.500 C 9.759 53.978, 9.138 68.912, 11.540 77.786 C 13.044 83.341, 13.450 84.015, 14.152 82.118 C 14.630 80.827, 15.457 80.165, 16.099 80.561 C 16.872 81.039, 16.981 80.522, 16.453 78.875 C 13.599 69.976, 13.327 62.478, 15.521 53.175 C 17.862 43.243, 21.803 36.161, 28.982 28.982 C 36.408 21.556, 43.912 17.492, 53.856 15.511 C 57.510 14.783, 59.712 14.146, 58.750 14.094 C 57.083 14.004, 57.083 13.912, 58.750 12.159 C 59.712 11.146, 60.837 10.497, 61.250 10.718 C 61.663 10.938, 62 9.549, 62 7.632 C 62 5.154, 62.506 4.015, 63.750 3.689 C 64.713 3.438, 63.925 3.109, 62 2.959 C 58.857 2.714, 59.010 2.616, 63.500 2 L 68.500 1.314 63.500 1.275 C 60.750 1.253, 56.369 1.594, 53.763 2.033 M 71.269 2.693 C 72.242 2.947, 73.592 2.930, 74.269 2.656 C 74.946 2.382, 74.150 2.175, 72.500 2.195 C 70.850 2.215, 70.296 2.439, 71.269 2.693 M 76.813 3.683 C 77.534 3.972, 78.397 3.936, 78.729 3.604 C 79.061 3.272, 78.471 3.036, 77.417 3.079 C 76.252 3.127, 76.015 3.364, 76.813 3.683 M 54.817 8.882 C 55.122 12.072, 55.515 12.678, 57.025 12.283 C 58.035 12.019, 58.642 11.230, 58.373 10.531 C 58.105 9.831, 58.586 8.989, 59.443 8.660 C 61.395 7.911, 61.499 5, 59.573 5 C 58.789 5, 57.941 5.787, 57.689 6.750 C 57.254 8.417, 57.226 8.417, 57.116 6.750 C 57.052 5.787, 56.426 5, 55.724 5 C 54.844 5, 54.562 6.207, 54.817 8.882 M 47.464 9.677 C 48.318 14.248, 48.289 14.210, 50.339 13.424 C 51.612 12.935, 51.737 12.377, 50.917 10.845 C 50.341 9.769, 50.089 8.352, 50.356 7.695 C 50.623 7.038, 50.878 7.325, 50.921 8.333 C 51.012 10.450, 53.500 10.048, 53.500 7.917 C 53.500 7.038, 52.218 6.377, 50.125 6.177 L 46.750 5.855 47.464 9.677 M 94.015 10.750 C 102.412 15.616, 114.624 27.847, 118.729 35.500 C 120.499 38.800, 121.954 41.050, 121.964 40.500 C 122.002 38.283, 115.733 28.826, 110.425 23.093 C 105.076 17.315, 91.144 7, 88.689 7 C 88.060 7, 90.457 8.688, 94.015 10.750 M 41.015 12.250 C 41.026 15.224, 41.306 16.064, 41.949 15.048 C 42.455 14.249, 42.639 13.124, 42.360 12.548 C 42.080 11.971, 42.562 12.376, 43.430 13.446 C 44.507 14.775, 45.333 15.067, 46.032 14.368 C 46.732 13.668, 46.391 12.496, 44.956 10.671 C 42.011 6.927, 40.998 7.333, 41.015 12.250 M 35.245 10.849 C 34.272 11.450, 34.321 12.042, 35.468 13.559 C 37.178 15.820, 37.489 18.420, 35.933 17.459 C 35.347 17.096, 35.119 16.548, 35.427 16.240 C 36.299 15.367, 32.123 12.806, 30.980 13.512 C 29.960 14.143, 33.450 20.022, 34.818 19.978 C 35.193 19.966, 36.482 19.178, 37.683 18.228 C 39.797 16.555, 39.813 16.399, 38.178 13.290 C 37.069 11.181, 36.062 10.343, 35.245 10.849 M 82.774 24.839 C 83.754 25.461, 83.613 26.040, 82.163 27.352 C 80.661 28.711, 79.732 28.848, 77.575 28.028 C 74.021 26.677, 73.668 26.729, 75.205 28.375 C 75.912 29.131, 77.050 29.534, 77.734 29.272 C 79.947 28.423, 91.323 41.009, 93.306 46.500 C 98.514 60.919, 100.747 74, 98 74 C 97.450 74, 97 74.477, 97 75.059 C 97 75.641, 97.450 75.840, 98 75.500 C 98.550 75.160, 99 75.584, 99 76.441 C 99 77.348, 98.139 78, 96.941 78 C 95.801 78, 95.162 78.454, 95.510 79.016 C 95.856 79.575, 96.615 79.738, 97.199 79.377 C 97.782 79.017, 98.065 79.122, 97.827 79.611 C 97.589 80.100, 96.611 82.300, 95.652 84.500 C 92.544 91.638, 91.611 93.138, 89.618 94.204 C 87.332 95.428, 77.900 95.418, 77.068 94.191 C 75.680 92.145, 73.002 92.159, 71.559 94.219 C 69.761 96.786, 64.302 99.297, 63.464 97.942 C 63.144 97.424, 61.779 97, 60.431 97 C 59.083 97, 57.210 96.100, 56.268 95 C 55.326 93.900, 53.782 93, 52.837 93 C 51.891 93, 50.835 92.543, 50.490 91.984 C 50.144 91.425, 49.483 91.202, 49.020 91.488 C 48.556 91.774, 47.873 90.207, 47.501 88.004 C 47.129 85.802, 46.414 84, 45.912 84 C 45.410 84, 45.053 83.662, 45.118 83.250 C 45.385 81.562, 44.954 80.007, 44.250 80.118 C 42.342 80.420, 40.933 79.918, 41.430 79.113 C 41.731 78.626, 41.343 77.700, 40.567 77.056 C 39.486 76.158, 38.689 76.177, 37.152 77.137 C 34.041 79.080, 30.262 76.912, 29.478 72.734 L 28.848 69.376 24.812 73.178 C 22.591 75.268, 20.327 76.702, 19.780 76.364 C 18.386 75.503, 19.616 79.377, 22.832 85.977 C 26.486 93.477, 35.317 102.094, 43.208 105.861 C 66.890 117.163, 94.358 107.762, 106.045 84.354 C 109.226 77.984, 109.451 76.902, 109.237 69.037 C 108.825 53.891, 104.671 42.923, 95.950 33.956 C 91.685 29.570, 83.993 23.981, 82.270 24.015 C 81.846 24.024, 82.073 24.394, 82.774 24.839 M 95.966 31.322 C 98.972 34.445, 101.600 37, 101.805 37 C 102.610 37, 96.889 30.784, 93.785 28.287 C 91.978 26.833, 92.960 28.199, 95.966 31.322 M 67.018 39.466 C 66.292 40.822, 65.316 41.696, 64.849 41.407 C 64.382 41.118, 64 41.282, 64 41.772 C 64 42.262, 62.763 43.281, 61.250 44.038 C 59.737 44.795, 57.636 46.108, 56.580 46.957 C 54.799 48.389, 54.709 48.356, 55.333 46.500 L 56.005 44.500 54.424 46.500 C 50.893 50.967, 48.985 56.043, 49.155 60.520 C 49.250 63.030, 49.699 65.314, 50.153 65.594 C 50.607 65.875, 52.549 65.359, 54.469 64.448 C 57.176 63.163, 58.620 63.021, 60.895 63.814 C 62.509 64.376, 64.131 64.536, 64.498 64.168 C 64.866 63.801, 65.017 64.119, 64.833 64.875 C 64.650 65.631, 65.125 66.477, 65.889 66.755 C 66.740 67.064, 67.008 66.822, 66.580 66.130 C 66.145 65.426, 66.680 65, 68 65 C 69.165 65, 69.860 65.418, 69.544 65.928 C 69.229 66.438, 69.850 67.135, 70.924 67.476 C 71.998 67.817, 73.389 69.649, 74.016 71.548 C 74.642 73.447, 75.631 75, 76.213 75 C 77.760 75, 81.974 70.177, 82.157 68.198 C 82.892 60.221, 82.508 57.561, 80.978 60.035 C 80.391 60.986, 79.527 60.807, 77.353 59.284 C 75.784 58.185, 73.926 57.412, 73.225 57.568 C 72.524 57.723, 72.411 57.621, 72.975 57.342 C 74.722 56.475, 74.101 55.029, 72.250 55.654 C 71.058 56.058, 71.213 55.714, 72.736 54.576 C 74.275 53.427, 76.216 53.049, 78.958 53.364 C 82.796 53.805, 82.965 53.701, 83.560 50.532 C 84.439 45.848, 81.864 41.464, 76.794 39.015 C 71.239 36.331, 68.632 36.451, 67.018 39.466 M 85 39.941 C 85 40.459, 85.445 41.157, 85.989 41.493 C 86.555 41.843, 86.723 41.442, 86.382 40.552 C 85.717 38.820, 85 38.503, 85 39.941 M 104.564 42.293 C 104.940 43.279, 105.499 43.834, 105.807 43.526 C 106.115 43.219, 105.808 42.412, 105.124 41.733 C 104.136 40.753, 104.022 40.868, 104.564 42.293 M 114.086 45.500 C 114.190 47.394, 115.856 50.584, 115.914 49 C 115.945 48.175, 115.533 46.825, 115 46 C 114.467 45.175, 114.055 44.950, 114.086 45.500 M 57.009 47.489 C 56.329 48.308, 55.405 48.751, 54.956 48.473 C 54.506 48.195, 53.875 48.394, 53.553 48.915 C 53.231 49.436, 53.394 50.125, 53.915 50.447 C 54.436 50.769, 55.144 50.575, 55.490 50.016 C 55.835 49.457, 57.104 49.029, 58.309 49.063 C 60.387 49.124, 60.371 49.181, 58 50.189 L 55.500 51.251 59 52.204 C 60.925 52.728, 62.928 53.571, 63.450 54.078 C 64.915 55.499, 66.003 55.170, 65.362 53.500 C 65.045 52.675, 65.284 52, 65.893 52 C 68.358 52, 66.752 49.927, 62.812 48.023 C 57.827 45.615, 58.512 45.678, 57.009 47.489 M 109.079 54.583 C 109.127 55.748, 109.364 55.985, 109.683 55.188 C 109.972 54.466, 109.936 53.603, 109.604 53.271 C 109.272 52.939, 109.036 53.529, 109.079 54.583 M 75.341 56.344 C 74.977 56.980, 75.023 57.191, 75.442 56.814 C 75.862 56.436, 77.310 56.548, 78.660 57.061 C 80.010 57.574, 80.871 57.600, 80.573 57.118 C 79.665 55.650, 76.044 55.114, 75.341 56.344 M 110.300 64 C 110.300 67.025, 110.487 68.263, 110.716 66.750 C 110.945 65.237, 110.945 62.763, 110.716 61.250 C 110.487 59.737, 110.300 60.975, 110.300 64 M 29.079 65.583 C 29.127 66.748, 29.364 66.985, 29.683 66.188 C 29.972 65.466, 29.936 64.603, 29.604 64.271 C 29.272 63.939, 29.036 64.529, 29.079 65.583 M 63.475 71.041 C 63.121 71.613, 61.970 71.808, 60.916 71.473 C 57.580 70.415, 58.847 71.909, 62.622 73.487 C 67.280 75.433, 67.665 75.392, 65.653 73.169 C 64.741 72.162, 64.297 71.037, 64.664 70.669 C 65.032 70.301, 65.060 70, 64.726 70 C 64.391 70, 63.829 70.468, 63.475 71.041 M 108.079 72.583 C 108.127 73.748, 108.364 73.985, 108.683 73.188 C 108.972 72.466, 108.936 71.603, 108.604 71.271 C 108.272 70.939, 108.036 71.529, 108.079 72.583 M 123.079 78.583 C 123.127 79.748, 123.364 79.985, 123.683 79.188 C 123.972 78.466, 123.936 77.603, 123.604 77.271 C 123.272 76.939, 123.036 77.529, 123.079 78.583 M 119.624 88.539 C 118.659 91.053, 118.943 91.702, 120.122 89.675 C 120.706 88.671, 120.973 87.639, 120.715 87.382 C 120.458 87.124, 119.966 87.645, 119.624 88.539 M 83.636 90.494 C 83.952 91.316, 84.612 91.740, 85.105 91.435 C 86.517 90.563, 86.149 89, 84.531 89 C 83.639 89, 83.288 89.587, 83.636 90.494 M 74.923 96.250 C 74.384 98.014, 74.290 100.043, 74.771 99.563 C 75.500 98.833, 76.010 96, 75.412 96 C 75.185 96, 74.966 96.112, 74.923 96.250 M 37.838 111.933 C 36.537 114.220, 36.457 114.961, 37.467 115.349 C 38.176 115.621, 39.327 115.316, 40.025 114.672 C 41.021 113.753, 41.166 113.866, 40.698 115.199 C 40.049 117.048, 43.136 118.652, 45.058 117.464 C 45.649 117.099, 46.741 117.632, 47.485 118.648 C 49.352 121.202, 50.050 120.085, 49.336 115.685 C 48.853 112.707, 48.467 112.197, 47.378 113.101 C 46.632 113.720, 46.314 114.738, 46.671 115.363 C 47.028 115.988, 46.952 116.166, 46.502 115.759 C 46.052 115.351, 44.996 115.576, 44.155 116.259 C 42.571 117.544, 42.577 117.492, 44.539 112.678 C 44.949 111.672, 41.370 108.954, 39.703 109.006 C 39.591 109.010, 38.752 110.327, 37.838 111.933 M 85.131 112.342 C 83.810 113.934, 84.626 115, 87.167 115 C 88.175 115, 89 115.498, 89 116.107 C 89 116.753, 88.270 116.932, 87.250 116.537 C 86.287 116.165, 84.171 115.592, 82.547 115.264 C 79.933 114.737, 79.818 114.574, 81.547 113.843 C 83.454 113.036, 83.453 113.023, 81.500 113.272 C 78.665 113.634, 79.015 116.295, 81.990 116.998 C 83.670 117.394, 84.077 117.834, 83.240 118.352 C 82.558 118.773, 81.550 118.840, 81 118.500 C 80.450 118.160, 80 118.359, 80 118.941 C 80 120.484, 82.559 120.237, 83.951 118.559 C 84.608 117.767, 85.794 117.367, 86.586 117.671 C 87.378 117.975, 88.670 117.689, 89.457 117.036 C 90.579 116.105, 90.650 115.325, 89.783 113.424 C 88.553 110.722, 86.811 110.318, 85.131 112.342 M 51.441 116.378 C 50.771 119.050, 51.478 121, 53.118 121 C 53.668 121, 53.821 120.520, 53.458 119.933 C 53.094 119.342, 53.759 118.614, 54.948 118.303 C 57.714 117.580, 57.228 114.607, 54.275 114.185 C 52.626 113.949, 51.912 114.502, 51.441 116.378 M 73.839 114.494 C 73.567 114.766, 73.543 116.341, 73.786 117.994 C 74.092 120.078, 74.788 121, 76.054 121 C 78.445 121, 78.929 120.079, 78.291 116.744 C 77.817 114.264, 75.327 113.006, 73.839 114.494 M 57.550 117.655 C 57.117 119.381, 57.342 120.601, 58.192 121.140 C 60.033 122.308, 61.240 122.198, 60.459 120.933 C 60.096 120.347, 60.589 119.290, 61.553 118.585 C 63.590 117.096, 62.711 115, 60.049 115 C 58.900 115, 57.968 115.990, 57.550 117.655 M 63.500 118.500 C 63.500 120.633, 63.988 122, 64.750 122 C 65.512 122, 66 120.633, 66 118.500 C 66 116.367, 65.512 115, 64.750 115 C 63.988 115, 63.500 116.367, 63.500 118.500 M 67.100 118.750 C 67.187 122.052, 67.291 122.201, 67.962 120 C 68.620 117.844, 68.827 117.741, 69.469 119.250 C 69.879 120.213, 70.841 121, 71.607 121 C 73.256 121, 73.419 118.125, 71.890 116 C 71.011 114.778, 70.922 114.870, 71.408 116.500 C 71.963 118.361, 71.910 118.378, 70.642 116.750 C 68.411 113.885, 66.992 114.687, 67.100 118.750 M 76 119 C 76 119.550, 76.450 120, 77 120 C 77.550 120, 78 119.550, 78 119 C 78 118.450, 77.550 118, 77 118 C 76.450 118, 76 118.450, 76 119" stroke="none" fill="black" fill-rule="evenodd"/>
	<path fill-opacity="0.258" d="M 61.250 0.689 C 62.212 0.941, 63.788 0.941, 64.750 0.689 C 65.713 0.438, 64.925 0.232, 63 0.232 C 61.075 0.232, 60.288 0.438, 61.250 0.689 M 52.750 1.662 C 53.438 1.940, 54.563 1.940, 55.250 1.662 C 55.938 1.385, 55.375 1.158, 54 1.158 C 52.625 1.158, 52.063 1.385, 52.750 1.662 M 77.784 3.019 C 88.447 5.812, 98.106 11.312, 106.860 19.573 C 115.132 27.379, 119.948 34.492, 123.579 44.266 C 126.428 51.932, 126.758 50.517, 123.995 42.486 C 118.783 27.337, 107.373 14.546, 92.483 7.160 C 86.458 4.172, 75.842 0.952, 72.356 1.055 C 71.335 1.085, 73.778 1.969, 77.784 3.019 M 47.813 2.683 C 48.534 2.972, 49.397 2.936, 49.729 2.604 C 50.061 2.272, 49.471 2.036, 48.417 2.079 C 47.252 2.127, 47.015 2.364, 47.813 2.683 M 35.299 7.141 C 26.269 11.654, 16.971 19.770, 11.635 27.798 C 7.060 34.678, 1.949 46.402, 2.054 49.773 C 2.083 50.723, 2.904 49.012, 3.877 45.972 C 9.277 29.100, 20.035 16.694, 37.368 7.351 C 45.124 3.170, 43.561 3.011, 35.299 7.141 M 75.566 5.107 C 76.027 5.852, 75.555 5.994, 74.125 5.540 C 72.385 4.987, 71.988 5.285, 71.932 7.183 L 71.865 9.500 70.780 7.250 C 70.183 6.013, 69.051 5, 68.264 5 C 67.477 5, 67.013 5.338, 67.232 5.750 C 67.451 6.162, 68.207 7.962, 68.913 9.750 C 69.618 11.538, 70.553 13, 70.991 13 C 71.997 13, 73 10.433, 73 7.859 C 73 6.772, 73.408 6.134, 73.906 6.442 C 75.090 7.173, 74.126 11.028, 72.204 13.250 C 71.038 14.598, 69.059 15.013, 63.595 15.058 C 38.739 15.260, 20.423 30.577, 15.363 55.393 C 13.321 65.408, 14.566 74.328, 19.453 84.688 C 21.917 89.913, 22.414 91.712, 21.274 91.275 C 20.023 90.795, 19.808 91.216, 20.215 93.345 C 20.999 97.445, 18.837 95.063, 15.140 87.753 C 10.849 79.268, 8.654 68.413, 9.387 59.299 C 9.706 55.338, 9.563 51.848, 9.069 51.543 C 7.601 50.635, 6.742 64.951, 7.811 72.500 C 9.538 84.698, 16.083 98.151, 23.811 105.386 L 26.893 108.272 31.634 106.711 C 36.046 105.259, 36.623 105.277, 39.938 106.965 C 49.241 111.703, 64.197 113.404, 74.885 110.940 C 86.110 108.352, 99.359 98.532, 105.078 88.561 C 106.675 85.778, 107.985 83.076, 107.991 82.559 C 107.996 82.041, 106.420 84.291, 104.489 87.559 C 91.642 109.300, 64.793 117.050, 42.123 105.562 C 25.042 96.907, 14.654 76.374, 17.788 57.463 C 19.313 48.258, 24.604 37.607, 30.686 31.500 C 40.203 21.942, 57.338 17.055, 71.219 19.940 C 90.851 24.021, 106.577 41.179, 108.875 61.027 C 109.474 66.200, 109.780 67.234, 109.870 64.386 C 110.349 49.198, 101.797 34.007, 87.595 24.820 C 84.347 22.719, 82.125 21, 82.657 21 C 85.389 21, 96.980 30.228, 101.150 35.724 C 108.377 45.246, 110.384 51.405, 110.447 64.255 C 110.486 72.191, 110.725 74.156, 111.360 71.755 C 111.833 69.965, 111.998 64.835, 111.727 60.356 C 111.304 53.366, 111.456 52.244, 112.796 52.441 C 113.655 52.567, 114.696 53.532, 115.109 54.585 C 115.832 56.430, 115.861 56.427, 115.904 54.500 C 115.928 53.400, 114.879 49.360, 113.572 45.523 C 112.167 41.400, 111.782 39.349, 112.630 40.509 C 115.723 44.739, 118.186 55.324, 118.213 64.500 C 118.254 78.690, 112.826 91.921, 103.053 101.453 C 99.225 105.186, 97.877 108, 99.916 108 C 101.841 108, 111.901 95.641, 114.805 89.709 C 120.842 77.378, 122.694 61.967, 119.582 49.969 C 118.802 46.963, 118.352 44.315, 118.582 44.085 C 118.812 43.855, 119 44.240, 119 44.940 C 119 45.641, 119.634 45.971, 120.408 45.674 C 121.318 45.324, 122.043 46.036, 122.457 47.685 C 122.809 49.088, 123.286 50.048, 123.516 49.817 C 124.141 49.192, 121.784 42.016, 121.094 42.442 C 120.767 42.643, 120.436 41.748, 120.359 40.452 C 120.156 37.062, 111.707 24.799, 106.201 19.903 C 99.513 13.956, 91.906 9.252, 84.424 6.435 C 77.409 3.795, 74.484 3.356, 75.566 5.107 M 55 8.500 C 55 10.704, 55.481 12, 56.299 12 C 57.195 12, 57.472 10.914, 57.190 8.500 C 56.965 6.575, 56.380 5, 55.891 5 C 55.401 5, 55 6.575, 55 8.500 M 58.429 7 C 58.429 8.113, 58.895 8.868, 59.464 8.679 C 60.034 8.489, 60.500 7.733, 60.500 7 C 60.500 6.267, 60.034 5.511, 59.464 5.321 C 58.895 5.132, 58.429 5.887, 58.429 7 M 62 8.500 C 62 10.944, 62.452 12, 63.500 12 C 64.548 12, 65 10.944, 65 8.500 C 65 6.056, 64.548 5, 63.500 5 C 62.452 5, 62 6.056, 62 8.500 M 47.562 6.900 C 46.840 8.068, 48.651 13, 49.802 13 C 50.846 13, 50.089 7.173, 48.954 6.471 C 48.505 6.194, 47.879 6.387, 47.562 6.900 M 50.716 8.021 C 51.129 9.601, 51.543 9.794, 52.611 8.908 C 54.159 7.623, 53.558 6, 51.535 6 C 50.675 6, 50.379 6.731, 50.716 8.021 M 41.503 8.996 C 41.060 9.712, 41.777 11.231, 43.253 12.708 C 46.500 15.954, 47.490 14.352, 44.531 10.641 C 42.940 8.646, 42.026 8.149, 41.503 8.996 M 66.158 10 C 66.158 11.375, 66.385 11.938, 66.662 11.250 C 66.940 10.563, 66.940 9.438, 66.662 8.750 C 66.385 8.063, 66.158 8.625, 66.158 10 M 35 11.550 C 35 13.232, 38.232 17.975, 39.039 17.476 C 40.168 16.778, 37.433 11, 35.974 11 C 35.438 11, 35 11.247, 35 11.550 M 31.312 13.807 C 30.552 14.277, 30.924 15.422, 32.469 17.359 C 33.722 18.931, 35.004 19.802, 35.317 19.296 C 36.179 17.901, 32.608 13.006, 31.312 13.807 M 62.228 28.508 C 58.249 29.479, 55.382 31.176, 50.543 35.425 C 43.983 41.184, 37.004 49.768, 36.590 52.586 C 36.463 53.451, 35.917 54.461, 35.377 54.830 C 32.661 56.682, 30.030 63.016, 29.812 68.226 C 29.512 75.387, 31.010 77.396, 36.136 76.709 C 40.780 76.086, 43.330 77.766, 46.161 83.316 C 47.335 85.617, 48.229 87.612, 48.148 87.750 C 47.295 89.191, 48.593 90.996, 51.250 92.066 C 53.038 92.785, 55.580 94.061, 56.900 94.900 C 58.220 95.740, 59.994 96.529, 60.841 96.653 C 61.689 96.777, 63.459 97.149, 64.775 97.480 C 66.170 97.830, 66.924 97.685, 66.582 97.133 C 66.261 96.613, 66.824 96.403, 67.835 96.667 C 69.044 96.983, 70.251 96.266, 71.360 94.574 C 73.267 91.662, 75.174 91.299, 77 93.500 C 78.445 95.241, 84.560 95.521, 85.566 93.893 C 86.055 93.102, 86.463 93.131, 86.998 93.996 C 88.426 96.308, 91.682 93.213, 94.058 87.284 C 95.333 84.103, 96.854 81.169, 97.438 80.765 C 98.072 80.327, 97.795 80.024, 96.750 80.015 C 95.787 80.007, 95 79.550, 95 79 C 95 78.450, 95.470 78, 96.044 78 C 96.618 78, 97.015 77.438, 96.925 76.750 C 96.836 76.063, 96.823 74.600, 96.897 73.500 C 97.010 71.802, 97.193 71.726, 98.110 73 C 98.982 74.213, 99.062 74.117, 98.526 72.500 C 98.161 71.400, 97.724 68.025, 97.554 65 C 97.175 58.249, 96.761 56.533, 93.363 47.642 C 89.794 38.302, 81.036 28.916, 76.750 29.839 C 76.338 29.927, 76 29.523, 76 28.940 C 76 28.324, 74.745 28.078, 73.005 28.352 C 71.357 28.612, 69.756 28.414, 69.446 27.912 C 68.794 26.858, 69.090 26.833, 62.228 28.508 M 76 32.393 C 76 32.609, 76.698 33.054, 77.552 33.382 C 78.442 33.723, 78.843 33.555, 78.493 32.989 C 77.906 32.038, 76 31.583, 76 32.393 M 59.364 38.745 C 57.854 40.810, 55.556 43.963, 54.258 45.750 C 50.787 50.530, 49.043 55.293, 48.845 60.532 C 48.628 66.272, 50.150 67.487, 54.353 64.931 C 57.620 62.945, 61.275 63.209, 64.079 65.634 C 64.947 66.385, 66.439 67, 67.394 67 C 70.310 67, 72.663 68.772, 73.984 71.962 C 75.942 76.687, 78.931 75.802, 81.461 69.747 C 83.670 64.461, 83.390 60.713, 80.559 57.659 C 78.662 55.611, 77.390 55.110, 74.844 55.406 C 71.824 55.758, 71.718 55.679, 73.486 54.386 C 74.746 53.465, 76.571 53.204, 78.811 53.624 C 82.760 54.365, 83.961 53.149, 83.985 48.385 C 84.002 44.788, 80.950 40.425, 77.724 39.437 C 76.501 39.062, 74.895 38.270, 74.156 37.677 C 73.417 37.085, 71.426 36.494, 69.732 36.364 C 68.038 36.235, 65.630 35.873, 64.381 35.559 C 62.583 35.108, 61.538 35.772, 59.364 38.745 M 54.500 37 C 54.840 37.550, 55.316 38, 55.559 38 C 55.802 38, 56 37.550, 56 37 C 56 36.450, 55.523 36, 54.941 36 C 54.359 36, 54.160 36.450, 54.500 37 M 85 40.507 C 85 41.328, 85.645 42, 86.434 42 C 87.252 42, 88.006 43.179, 88.190 44.750 C 88.485 47.260, 88.568 47.311, 89.142 45.331 C 89.592 43.778, 89.093 42.572, 87.385 41.087 C 85.529 39.473, 85 39.344, 85 40.507 M 57.667 46.667 C 56.454 47.879, 56.973 49, 58.750 49.006 C 59.712 49.010, 61.789 49.685, 63.364 50.506 C 64.940 51.328, 66.457 52, 66.737 52 C 67.966 52, 64.513 48.903, 61.741 47.521 C 58.195 45.752, 58.515 45.819, 57.667 46.667 M 9.031 47.500 C 9.031 48.050, 9.467 49.175, 10 50 C 10.533 50.825, 10.969 51.050, 10.969 50.500 C 10.969 49.950, 10.533 48.825, 10 48 C 9.467 47.175, 9.031 46.950, 9.031 47.500 M 57.973 51.017 C 57.252 51.462, 57.698 51.922, 59.158 52.237 C 60.446 52.515, 62.293 53.076, 63.261 53.483 C 64.582 54.037, 64.878 53.845, 64.444 52.715 C 63.788 51.006, 59.718 49.938, 57.973 51.017 M 126.195 53.500 C 126.215 55.150, 126.439 55.704, 126.693 54.731 C 126.947 53.758, 126.930 52.408, 126.656 51.731 C 126.382 51.054, 126.175 51.850, 126.195 53.500 M 1.232 55 C 1.232 56.925, 1.438 57.712, 1.689 56.750 C 1.941 55.788, 1.941 54.212, 1.689 53.250 C 1.438 52.288, 1.232 53.075, 1.232 55 M 112.543 53.931 C 112.226 54.443, 112.350 55.098, 112.817 55.387 C 113.284 55.676, 113.667 55.257, 113.667 54.456 C 113.667 52.770, 113.351 52.623, 112.543 53.931 M 77.418 59.114 C 80.325 61.401, 82.078 61.004, 80.020 58.524 C 79.324 57.686, 77.850 57, 76.743 57 C 74.939 57, 75.009 57.219, 77.418 59.114 M 127.015 63.309 C 127.006 67.597, 127.370 69.889, 128 69.500 C 129.278 68.710, 129.278 59.978, 128 58 C 127.322 56.950, 127.026 58.544, 127.015 63.309 M 60.500 70.959 L 57.500 71.681 60 72.707 C 61.375 73.271, 63.625 74.078, 65 74.499 C 67.424 75.243, 67.447 75.206, 65.748 73.302 C 64.784 72.222, 64.297 71.037, 64.664 70.669 C 65.434 69.900, 64.683 69.952, 60.500 70.959 M 1.195 74.500 C 1.215 76.150, 1.439 76.704, 1.693 75.731 C 1.947 74.758, 1.930 73.408, 1.656 72.731 C 1.382 72.054, 1.175 72.850, 1.195 74.500 M 125.218 77.725 C 123.335 86.842, 116.789 99.083, 109.807 106.548 C 97.235 119.987, 83.219 126.239, 65.500 126.312 C 53.403 126.362, 45.654 124.458, 34.500 118.692 C 24.775 113.666, 12.921 102.320, 8.503 93.809 C 6.878 90.679, 5.373 88.294, 5.159 88.508 C 3.986 89.680, 13.311 103.406, 19.422 109.502 C 41.384 131.411, 75.701 133.947, 101.462 115.564 C 108.602 110.469, 112.732 106.030, 118.199 97.571 C 122.156 91.449, 127.455 76.601, 126.834 73.377 C 126.643 72.387, 125.916 74.344, 125.218 77.725 M 36 75.059 C 36 75.641, 36.450 75.840, 37 75.500 C 37.550 75.160, 38 74.684, 38 74.441 C 38 74.198, 37.550 74, 37 74 C 36.450 74, 36 74.477, 36 75.059 M 58.500 75 C 58.160 75.550, 58.359 76, 58.941 76 C 59.523 76, 60 75.550, 60 75 C 60 74.450, 59.802 74, 59.559 74 C 59.316 74, 58.840 74.450, 58.500 75 M 109.079 76.668 C 109.036 77.311, 108.741 78.661, 108.424 79.668 C 107.877 81.409, 107.906 81.412, 108.995 79.712 C 109.626 78.729, 109.920 77.379, 109.650 76.712 C 109.295 75.837, 109.136 75.825, 109.079 76.668 M 2.079 79.583 C 2.127 80.748, 2.364 80.985, 2.683 80.188 C 2.972 79.466, 2.936 78.603, 2.604 78.271 C 2.272 77.939, 2.036 78.529, 2.079 79.583 M 3.086 83 C 3.055 83.825, 3.467 85.175, 4 86 C 5.181 87.828, 5.181 86.249, 4 83.500 C 3.433 82.181, 3.122 82.011, 3.086 83 M 52.500 83 C 52.160 83.550, 52.359 84, 52.941 84 C 53.523 84, 54 83.550, 54 83 C 54 82.450, 53.802 82, 53.559 82 C 53.316 82, 52.840 82.450, 52.500 83 M 82 88.660 C 82 89.374, 84.753 92, 85.502 92 C 86.988 92, 85.351 88.667, 83.750 88.433 C 82.787 88.292, 82 88.394, 82 88.660 M 14.142 98.830 C 18.081 104.077, 27 112.213, 27 110.559 C 27 109.402, 15.536 97.549, 14.232 97.358 C 13.142 97.198, 13.125 97.475, 14.142 98.830 M 38.302 112.010 C 37.683 113.650, 37.521 115.204, 37.942 115.464 C 39.055 116.152, 41.250 110.850, 40.262 109.862 C 39.803 109.403, 38.921 110.370, 38.302 112.010 M 41.500 114 C 40.288 116.344, 40.234 117, 41.255 117 C 41.974 117, 43.071 115.650, 43.694 114 C 44.317 112.350, 44.427 111, 43.939 111 C 43.451 111, 42.353 112.350, 41.500 114 M 85.015 113.250 C 85.006 114.313, 85.752 115, 86.917 115 C 87.971 115, 89.088 115.563, 89.399 116.250 C 89.710 116.938, 89.854 116.600, 89.719 115.500 C 89.583 114.400, 88.804 113.500, 87.986 113.500 C 87.169 113.500, 86.169 113.050, 85.765 112.500 C 85.350 111.935, 85.024 112.262, 85.015 113.250 M 47 116 C 47 117.650, 47.450 119, 48 119 C 48.550 119, 49 117.650, 49 116 C 49 114.350, 48.550 113, 48 113 C 47.450 113, 47 114.350, 47 116 M 51.560 116.618 C 50.861 119.401, 51.642 121.143, 52.804 119.398 C 53.187 118.824, 54.288 118.064, 55.250 117.708 C 56.212 117.353, 57 116.599, 57 116.031 C 57 114.582, 55.270 114.744, 54.662 116.250 C 54.361 116.997, 54.126 116.795, 54.079 115.750 C 53.959 113.090, 52.302 113.661, 51.560 116.618 M 79.255 115.266 C 79.462 115.885, 80.865 116.721, 82.375 117.125 C 84.239 117.623, 84.999 117.498, 84.745 116.734 C 84.538 116.115, 83.135 115.279, 81.625 114.875 C 79.761 114.377, 79.001 114.502, 79.255 115.266 M 57.787 118 C 57.545 119.650, 57.718 121, 58.173 121 C 58.628 121, 59 120.550, 59 120 C 59 119.450, 59.648 119, 60.441 119 C 62.301 119, 63.322 117.330, 62.387 115.816 C 61.884 115.003, 61.418 115.237, 60.898 116.566 C 60.238 118.252, 60.132 118.276, 60.070 116.750 C 59.954 113.853, 58.259 114.781, 57.787 118 M 64 118.500 C 64 120.425, 64.450 122, 65 122 C 65.550 122, 66 120.425, 66 118.500 C 66 116.575, 65.550 115, 65 115 C 64.450 115, 64 116.575, 64 118.500 M 69 118 C 70.175 119.650, 71.586 121, 72.136 121 C 72.686 121, 72.175 119.650, 71 118 C 69.825 116.350, 68.414 115, 67.864 115 C 67.314 115, 67.825 116.350, 69 118 M 74 117.992 C 74 119.646, 74.450 121, 75 121 C 75.550 121, 76 120.362, 76 119.583 C 76 118.804, 76.454 118.015, 77.010 117.830 C 77.565 117.645, 77.115 116.929, 76.010 116.238 C 74.164 115.085, 74 115.228, 74 117.992" stroke="none" fill="black" fill-rule="evenodd"/>
	<path fill-opacity="0.145" d="M 72.813 1.683 C 73.534 1.972, 74.397 1.936, 74.729 1.604 C 75.061 1.272, 74.471 1.036, 73.417 1.079 C 72.252 1.127, 72.015 1.364, 72.813 1.683 M 81.500 3.928 C 93.519 8.212, 105.836 16.433, 112.597 24.683 C 114.721 27.276, 118.144 32.570, 120.203 36.448 C 122.262 40.327, 123.959 43.151, 123.974 42.725 C 123.988 42.299, 122.457 38.924, 120.571 35.225 C 115.055 24.405, 106.535 15.328, 96.222 9.284 C 91.513 6.524, 79.762 1.948, 77.705 2.073 C 77.042 2.113, 78.750 2.948, 81.500 3.928 M 55.015 7.250 C 55.024 8.488, 55.467 10.175, 56 11 C 56.721 12.116, 56.973 11.539, 56.985 8.750 C 56.993 6.688, 56.550 5, 56 5 C 55.450 5, 55.007 6.012, 55.015 7.250 M 58.429 7 C 58.429 8.113, 58.895 8.868, 59.464 8.679 C 60.034 8.489, 60.500 7.733, 60.500 7 C 60.500 6.267, 60.034 5.511, 59.464 5.321 C 58.895 5.132, 58.429 5.887, 58.429 7 M 63 8.667 C 63 12.952, 63.464 12.807, 64.331 8.250 C 64.687 6.383, 64.535 5, 63.975 5 C 63.439 5, 63 6.650, 63 8.667 M 68.701 8.500 C 69.619 10.425, 70.737 12, 71.185 12 C 72.222 12, 72.216 11.918, 70.902 8.149 C 70.298 6.417, 69.181 5, 68.418 5 C 67.291 5, 67.344 5.653, 68.701 8.500 M 51 8.059 C 51 9.191, 51.450 9.840, 52 9.500 C 52.550 9.160, 53 8.234, 53 7.441 C 53 6.648, 52.550 6, 52 6 C 51.450 6, 51 6.927, 51 8.059 M 74.986 7.191 C 74.979 7.911, 74.701 9.512, 74.370 10.750 C 74.008 12.100, 74.213 13, 74.883 13 C 75.498 13, 76 12.339, 76 11.531 C 76 10.724, 76.563 10.200, 77.250 10.367 C 77.938 10.535, 78.162 10.483, 77.750 10.253 C 77.338 10.022, 77 9.222, 77 8.476 C 77 7.729, 76.550 6.840, 76 6.500 C 75.450 6.160, 74.994 6.471, 74.986 7.191 M 47.875 9.625 C 48.279 11.135, 49.115 12.538, 49.734 12.745 C 50.498 12.999, 50.623 12.239, 50.125 10.375 C 49.721 8.865, 48.885 7.462, 48.266 7.255 C 47.502 7.001, 47.377 7.761, 47.875 9.625 M 28.487 11.403 C 25.744 13.275, 21.025 17.426, 18 20.627 L 12.500 26.449 19.500 19.924 C 23.350 16.335, 28.188 12.372, 30.250 11.118 C 33.456 9.168, 34.762 8, 33.737 8 C 33.592 8, 31.229 9.531, 28.487 11.403 M 88.154 8.719 C 88.250 9.149, 87.982 10.730, 87.560 12.232 L 86.792 14.965 84.982 12.732 C 82.845 10.096, 83.237 9.125, 85.638 11.107 C 87.094 12.309, 87.257 12.294, 86.830 11 C 86.211 9.126, 83.144 8.456, 81.717 9.883 C 80.957 10.643, 81.161 11.521, 82.422 12.913 C 83.397 13.992, 83.932 15.300, 83.610 15.822 C 82.865 17.027, 77 17.929, 77 16.838 C 77 16.389, 75.987 16.034, 74.750 16.049 C 73.513 16.063, 70.200 15.782, 67.389 15.424 C 61.895 14.723, 48 16.612, 48 18.059 C 48 18.542, 47.325 18.678, 46.500 18.362 C 45.675 18.045, 45 18.311, 45 18.952 C 45 19.593, 44.550 19.840, 44 19.500 C 43.450 19.160, 43 19.385, 43 20 C 43 20.615, 42.550 20.840, 42 20.500 C 41.450 20.160, 41 20.385, 41 21 C 41 21.615, 40.480 21.797, 39.845 21.405 C 39.077 20.930, 38.965 21.134, 39.510 22.015 C 40.098 22.967, 39.877 23.167, 38.726 22.725 C 36.394 21.830, 26.901 29.579, 27.719 31.710 C 28.096 32.693, 27.933 33.077, 27.304 32.688 C 26.312 32.075, 24.215 33.915, 22.498 36.905 C 21.917 37.916, 22.084 38.105, 23.095 37.580 C 23.868 37.180, 23.719 37.492, 22.766 38.275 C 21.812 39.057, 21.324 39.991, 21.682 40.349 C 22.040 40.707, 21.782 41, 21.108 41 C 20.434 41, 20.160 41.450, 20.500 42 C 20.840 42.550, 20.615 43, 20 43 C 19.385 43, 19.160 43.450, 19.500 44 C 19.840 44.550, 19.593 45, 18.952 45 C 18.311 45, 18.045 45.675, 18.362 46.500 C 18.678 47.325, 18.555 48, 18.087 48 C 16.621 48, 15 56.576, 15 64.337 C 15 72.199, 17.679 82.958, 20.523 86.514 C 22.067 88.445, 22.080 88.438, 21.020 86.250 C 20.420 85.012, 20.226 84, 20.587 84 C 20.949 84, 20.778 83.438, 20.207 82.750 C 19.637 82.063, 19.162 81.156, 19.153 80.736 C 19.144 80.316, 18.599 77.391, 17.944 74.236 C 13.442 52.578, 25.162 29.670, 44.748 21.848 C 49.560 19.926, 52.379 19.547, 62 19.525 C 73.170 19.501, 73.715 19.603, 81 23.098 C 93.870 29.273, 103.123 39.451, 107.058 51.762 C 108.067 54.918, 108.906 56.600, 108.922 55.500 C 108.939 54.400, 107.812 50.800, 106.417 47.500 C 102.524 38.288, 102.545 38.352, 103.904 39.601 C 104.563 40.207, 106.194 43.357, 107.527 46.601 C 108.861 49.846, 109.963 51.825, 109.975 51 C 110.023 47.891, 103.921 36.830, 99.625 32.237 C 96.068 28.435, 95.359 27.110, 96.135 25.723 C 96.805 24.526, 97.927 24.129, 99.718 24.454 C 101.702 24.813, 102.048 24.648, 101.163 23.763 C 99.659 22.259, 99.653 20.667, 101.155 21.595 C 101.844 22.021, 102.039 21.871, 101.638 21.224 C 100.799 19.866, 102.617 18.645, 104.107 19.566 C 104.880 20.044, 104.805 20.536, 103.857 21.201 C 102.761 21.969, 102.789 22.067, 104 21.711 C 104.825 21.469, 106.400 21.709, 107.500 22.245 C 109.987 23.457, 103.896 17.962, 98.500 14.125 C 93.571 10.621, 87.919 7.667, 88.154 8.719 M 42.592 11.500 C 43.493 12.875, 44.932 14, 45.789 14 C 46.991 14, 46.810 13.427, 45 11.500 C 43.708 10.125, 42.269 9, 41.803 9 C 41.336 9, 41.691 10.125, 42.592 11.500 M 35 11.453 C 35 13.162, 37.572 17, 38.717 17 C 39.828 17, 39.751 16.388, 38.341 14 C 36.811 11.411, 35 10.030, 35 11.453 M 31.669 13.727 C 31.364 14.221, 31.935 15.877, 32.939 17.407 C 33.943 18.938, 34.982 19.810, 35.248 19.345 C 35.912 18.183, 32.360 12.608, 31.669 13.727 M 80 13.941 C 80 14.459, 80.445 15.157, 80.989 15.493 C 81.555 15.843, 81.723 15.442, 81.382 14.552 C 80.717 12.820, 80 12.503, 80 13.941 M 91.237 18.760 C 90.069 21.251, 90.097 21.332, 91.603 19.826 C 92.499 18.930, 93.067 17.717, 92.866 17.131 C 92.665 16.545, 91.931 17.278, 91.237 18.760 M 65.250 17.689 C 66.213 17.941, 67.787 17.941, 68.750 17.689 C 69.713 17.438, 68.925 17.232, 67 17.232 C 65.075 17.232, 64.287 17.438, 65.250 17.689 M 97.775 17.558 C 97.469 17.865, 97.435 18.948, 97.701 19.965 C 98.152 21.690, 98.301 21.703, 99.897 20.158 C 101.023 19.068, 101.248 18.248, 100.555 17.765 C 99.277 16.875, 98.515 16.818, 97.775 17.558 M 75.500 19.404 C 83.332 21.892, 90.533 26.348, 96.722 32.537 C 100.175 35.990, 103 38.377, 103 37.842 C 103 37.307, 100.422 34.311, 97.272 31.185 C 94.121 28.058, 91.534 25.105, 91.522 24.622 C 91.510 24.139, 90.394 23.014, 89.043 22.122 C 87.614 21.179, 86.906 21.023, 87.352 21.750 C 88.344 23.368, 88.493 23.400, 81.500 20.519 C 78.200 19.160, 74.600 18.067, 73.500 18.091 C 72.400 18.114, 73.300 18.705, 75.500 19.404 M 93.923 22.417 C 93.222 23.180, 93.447 26.159, 94.244 26.651 C 94.872 27.039, 95.016 26.835, 94.595 26.155 C 94.203 25.520, 94.310 25, 94.834 25 C 95.358 25, 96.016 24.400, 96.298 23.667 C 96.668 22.702, 94.641 21.635, 93.923 22.417 M 88.500 24 C 88.840 24.550, 89.568 25, 90.118 25 C 90.668 25, 90.840 24.550, 90.500 24 C 90.160 23.450, 89.432 23, 88.882 23 C 88.332 23, 88.160 23.450, 88.500 24 M 33.405 26.250 L 31.500 28.500 33.750 26.595 C 35.864 24.805, 36.455 24, 35.655 24 C 35.465 24, 34.453 25.012, 33.405 26.250 M 111 26.378 C 111 26.585, 111.787 27.373, 112.750 28.128 C 114.336 29.371, 114.371 29.336, 113.128 27.750 C 111.821 26.084, 111 25.555, 111 26.378 M 28.872 29.750 C 27.629 31.336, 27.664 31.371, 29.250 30.128 C 30.916 28.821, 31.445 28, 30.622 28 C 30.415 28, 29.627 28.788, 28.872 29.750 M 61.256 28.975 C 56.312 30.148, 54.802 31.822, 55.562 35.284 C 56.012 37.331, 55.871 38.038, 55.107 37.566 C 54.498 37.190, 54 36.234, 54 35.441 C 54 34.648, 53.537 34, 52.971 34 C 51.185 34, 39 47.048, 39 48.960 C 39 49.964, 38.296 51.056, 37.437 51.386 C 36.577 51.716, 36.131 52.403, 36.446 52.912 C 36.761 53.422, 36.336 54.521, 35.502 55.356 C 34.542 56.315, 34.361 57.105, 35.009 57.505 C 36.180 58.229, 35.381 60, 33.882 60 C 33.332 60, 33.197 59.438, 33.582 58.750 C 33.967 58.063, 33.557 58.178, 32.671 59.006 C 31.644 59.965, 30.822 63.061, 30.407 67.532 C 29.630 75.893, 30.794 77.620, 36.576 76.681 C 40.780 75.999, 45 77.646, 45 79.969 C 45 80.876, 45.661 82.491, 46.468 83.559 C 47.276 84.626, 47.951 86.665, 47.968 88.089 C 47.990 89.881, 48.790 91.039, 50.564 91.847 C 52.281 92.630, 52.907 92.658, 52.459 91.934 C 52.091 91.339, 52.738 91.444, 53.895 92.167 C 55.053 92.890, 56 93.849, 56 94.300 C 56 94.750, 56.450 94.840, 57 94.500 C 57.550 94.160, 58 94.407, 58 95.048 C 58 95.689, 58.661 95.960, 59.468 95.651 C 60.275 95.341, 61.203 95.519, 61.529 96.047 C 61.856 96.575, 63.332 96.744, 64.811 96.423 C 66.974 95.953, 67.206 96.063, 66 96.985 C 64.797 97.904, 64.995 97.990, 66.996 97.420 C 69.370 96.744, 71.900 94.368, 71.968 92.750 C 72.024 91.423, 75.715 91.951, 76.972 93.466 C 78.364 95.144, 85.008 95.245, 84.985 93.588 C 84.957 91.623, 83.246 89.730, 82.123 90.424 C 81.431 90.851, 81.244 90.528, 81.618 89.552 C 82.745 86.615, 85.734 87.766, 86.415 91.399 C 86.915 94.066, 87.449 94.695, 88.890 94.319 C 90.762 93.829, 95.659 85.326, 94.650 84.317 C 94.345 84.012, 94.782 83.075, 95.622 82.236 C 96.768 81.090, 96.848 80.524, 95.946 79.966 C 95.217 79.516, 95.075 78.688, 95.585 77.862 C 96.048 77.114, 96.294 75.241, 96.133 73.700 C 95.971 72.160, 96.383 70.243, 97.048 69.442 C 98.710 67.440, 97.692 59.422, 95.463 56.959 C 94.488 55.882, 94.190 55, 94.801 55 C 97.369 55, 90.457 40.365, 85.657 35.640 C 81.141 31.195, 74.103 27.670, 72.462 29.031 C 71.569 29.772, 70.981 29.778, 70.530 29.049 C 69.798 27.864, 66.062 27.834, 61.256 28.975 M 72 32.882 C 72 33.432, 72.450 34.160, 73 34.500 C 73.550 34.840, 74 34.668, 74 34.118 C 74 33.568, 73.550 32.840, 73 32.500 C 72.450 32.160, 72 32.332, 72 32.882 M 77.204 33.955 C 78.583 36.164, 79.555 35.889, 78.655 33.543 C 78.329 32.694, 77.595 32, 77.023 32 C 76.365 32, 76.431 32.717, 77.204 33.955 M 24.872 34.750 C 23.629 36.336, 23.664 36.371, 25.250 35.128 C 26.916 33.821, 27.445 33, 26.622 33 C 26.415 33, 25.627 33.788, 24.872 34.750 M 80 33.899 C 80 34.528, 81.125 35.555, 82.500 36.182 C 84.130 36.924, 85 38.135, 85 39.661 C 85 41.073, 85.594 42, 86.500 42 C 87.433 42, 88 42.944, 88 44.500 C 88 45.875, 88.389 47, 88.863 47 C 90.216 47, 89.659 43.258, 88 41.201 C 87.175 40.179, 86.025 38.516, 85.445 37.506 C 84.032 35.049, 80 32.378, 80 33.899 M 62.230 35.551 C 59.336 37.578, 50.701 50.371, 48.961 55.210 C 47.998 57.889, 47.893 59.971, 48.582 62.710 C 49.391 65.921, 49.907 66.458, 51.965 66.227 C 53.301 66.077, 55.164 65.257, 56.106 64.404 C 57.653 63.004, 58.111 63.006, 60.846 64.420 C 62.511 65.281, 64.127 66.397, 64.438 66.899 C 64.748 67.401, 65.856 67.589, 66.899 67.316 C 69.846 66.545, 72.728 68.645, 73.996 72.487 C 74.964 75.421, 75.442 75.834, 76.944 75.030 C 77.930 74.502, 78.965 74.298, 79.243 74.577 C 80.147 75.480, 83 67.059, 83 63.487 C 83 58.852, 79.638 55.005, 75.570 54.985 C 73.221 54.973, 72.852 54.742, 74 54.001 C 74.825 53.469, 77.012 53.310, 78.860 53.648 C 82.801 54.370, 83.962 53.125, 83.985 48.150 C 83.996 45.647, 83.121 43.921, 80.525 41.325 C 78.614 39.414, 76.640 38.104, 76.139 38.414 C 75.637 38.724, 74.671 38.308, 73.991 37.489 C 73.294 36.649, 71.101 36, 68.961 36 C 66.874 36, 65.014 35.543, 64.828 34.984 C 64.629 34.387, 63.558 34.621, 62.230 35.551 M 111 36.410 C 111 36.636, 112.317 39.605, 113.926 43.008 C 119.657 55.127, 120.223 68.883, 115.540 82.284 C 113.978 86.753, 113.547 89.220, 114.251 89.655 C 114.872 90.039, 115.014 89.832, 114.595 89.155 C 114.203 88.520, 114.317 88, 114.849 88 C 115.381 88, 116.798 85.188, 117.997 81.750 C 121.029 73.063, 121.744 59.448, 119.607 51.110 C 117.340 42.265, 114.417 36, 112.556 36 C 111.700 36, 111 36.185, 111 36.410 M 58.103 46.799 C 57.341 47.053, 58.893 48.298, 61.619 49.618 C 67.128 52.286, 67.333 52.347, 66.562 51.101 C 65.522 49.418, 59.474 46.342, 58.103 46.799 M 125.079 48.583 C 125.127 49.748, 125.364 49.985, 125.683 49.188 C 125.972 48.466, 125.936 47.603, 125.604 47.271 C 125.272 46.939, 125.036 47.529, 125.079 48.583 M 58.158 50.881 C 57.179 51.502, 57.519 51.866, 59.417 52.229 C 61.527 52.632, 61.804 52.469, 60.886 51.363 C 59.563 49.769, 59.837 49.817, 58.158 50.881 M 47.079 53.583 C 47.127 54.748, 47.364 54.985, 47.683 54.188 C 47.972 53.466, 47.936 52.603, 47.604 52.271 C 47.272 51.939, 47.036 52.529, 47.079 53.583 M 126.079 53.583 C 126.127 54.748, 126.364 54.985, 126.683 54.188 C 126.972 53.466, 126.936 52.603, 126.604 52.271 C 126.272 51.939, 126.036 52.529, 126.079 53.583 M 1.079 54.583 C 1.127 55.748, 1.364 55.985, 1.683 55.188 C 1.972 54.466, 1.936 53.603, 1.604 53.271 C 1.272 52.939, 1.036 53.529, 1.079 54.583 M 110.079 54.583 C 110.127 55.748, 110.364 55.985, 110.683 55.188 C 110.972 54.466, 110.936 53.603, 110.604 53.271 C 110.272 52.939, 110.036 53.529, 110.079 54.583 M 78 58.227 C 78 60.050, 79.773 61.561, 80.757 60.576 C 81.100 60.233, 80.620 59.192, 79.690 58.262 C 78.132 56.703, 78 56.700, 78 58.227 M 109.252 62.500 C 109.263 64.700, 109.468 65.482, 109.707 64.238 C 109.946 62.994, 109.937 61.194, 109.687 60.238 C 109.437 59.282, 109.241 60.300, 109.252 62.500 M 111.286 63.500 C 111.294 66.250, 111.488 67.256, 111.718 65.736 C 111.947 64.216, 111.941 61.966, 111.704 60.736 C 111.467 59.506, 111.279 60.750, 111.286 63.500 M 127.300 64 C 127.300 67.025, 127.487 68.263, 127.716 66.750 C 127.945 65.237, 127.945 62.763, 127.716 61.250 C 127.487 59.737, 127.300 60.975, 127.300 64 M 62.500 70 C 62.862 70.585, 61.745 71.031, 59.809 71.074 L 56.500 71.148 60.500 73 C 62.700 74.018, 65.301 74.885, 66.280 74.926 C 67.882 74.993, 67.838 74.700, 65.842 72 C 63.835 69.286, 61.016 67.599, 62.500 70 M 89 71 C 89 71.550, 89.477 72, 90.059 72 C 90.641 72, 90.840 71.550, 90.500 71 C 90.160 70.450, 89.684 70, 89.441 70 C 89.198 70, 89 70.450, 89 71 M 8.459 73.067 C 8.096 73.653, 8.014 74.348, 8.276 74.610 C 8.538 74.872, 9.019 74.392, 9.345 73.543 C 10.021 71.781, 9.445 71.471, 8.459 73.067 M 1.079 74.583 C 1.127 75.748, 1.364 75.985, 1.683 75.188 C 1.972 74.466, 1.936 73.603, 1.604 73.271 C 1.272 72.939, 1.036 73.529, 1.079 74.583 M 36.667 73.667 C 36.300 74.033, 36 74.798, 36 75.367 C 36 75.993, 36.466 75.934, 37.183 75.217 C 37.834 74.566, 38.134 73.801, 37.850 73.517 C 37.566 73.233, 37.033 73.300, 36.667 73.667 M 57.694 73.644 C 58.350 73.911, 58.657 74.730, 58.376 75.463 C 57.722 77.166, 59.860 78.540, 61.151 77.249 C 62.263 76.137, 59.607 72.950, 57.679 73.079 C 56.791 73.138, 56.794 73.278, 57.694 73.644 M 126.079 74.583 C 126.127 75.748, 126.364 75.985, 126.683 75.188 C 126.972 74.466, 126.936 73.603, 126.604 73.271 C 126.272 72.939, 126.036 73.529, 126.079 74.583 M 9.542 77.932 C 9.225 78.445, 10.084 81.833, 11.450 85.462 C 15.741 96.865, 25.637 109.763, 28.159 107.241 C 29.019 106.381, 27.879 104.556, 23.572 99.904 C 20.419 96.499, 16.413 90.740, 14.670 87.106 C 12.926 83.473, 11.188 80.358, 10.806 80.185 C 10.425 80.012, 10.360 79.225, 10.663 78.435 C 11.275 76.842, 10.446 76.470, 9.542 77.932 M 124.571 80.571 C 124.204 82.037, 124.096 83.429, 124.331 83.665 C 124.567 83.900, 125.061 82.894, 125.429 81.429 C 125.796 79.963, 125.904 78.571, 125.669 78.335 C 125.433 78.100, 124.939 79.106, 124.571 80.571 M 52.500 83 C 52.160 83.550, 52.610 84, 53.500 84 C 54.390 84, 54.840 83.550, 54.500 83 C 54.160 82.450, 53.710 82, 53.500 82 C 53.290 82, 52.840 82.450, 52.500 83 M 60.564 85.707 C 60.022 87.132, 60.136 87.247, 61.124 86.267 C 61.808 85.588, 62.115 84.781, 61.807 84.474 C 61.499 84.166, 60.940 84.721, 60.564 85.707 M 122.624 86.539 C 121.659 89.053, 121.943 89.702, 123.122 87.675 C 123.706 86.671, 123.973 85.639, 123.715 85.382 C 123.458 85.124, 122.966 85.645, 122.624 86.539 M 6 90.618 C 6 92.254, 13.368 103.295, 17.546 107.919 C 25.945 117.216, 45.878 127.228, 55.302 126.883 C 57.767 126.793, 57.354 126.574, 53.500 125.927 C 36.788 123.123, 18.384 110.486, 9.750 95.886 C 7.688 92.399, 6 90.028, 6 90.618 M 111.603 90.833 C 111.320 91.292, 111.723 91.667, 112.500 91.667 C 113.277 91.667, 113.680 91.292, 113.397 90.833 C 113.114 90.375, 112.710 90, 112.500 90 C 112.290 90, 111.886 90.375, 111.603 90.833 M 118.554 95.305 C 114.661 102.303, 100.891 115.799, 93.500 119.860 C 90.200 121.674, 88.400 122.875, 89.500 122.530 C 93.963 121.131, 102.639 115.155, 108.419 109.500 C 113.901 104.137, 122.825 91.491, 121.830 90.497 C 121.618 90.284, 120.143 92.448, 118.554 95.305 M 24 92.378 C 24 92.585, 24.788 93.373, 25.750 94.128 C 27.336 95.371, 27.371 95.336, 26.128 93.750 C 24.821 92.084, 24 91.555, 24 92.378 M 79 93 C 78.099 93.582, 77.975 93.975, 78.691 93.985 C 79.346 93.993, 80.160 93.550, 80.500 93 C 81.267 91.758, 80.921 91.758, 79 93 M 110.613 94.183 C 110.902 94.650, 111.557 94.774, 112.069 94.457 C 113.377 93.649, 113.230 93.333, 111.544 93.333 C 110.743 93.333, 110.324 93.716, 110.613 94.183 M 96.453 98.250 L 92.500 102.500 96.750 98.547 C 100.702 94.871, 101.460 94, 100.703 94 C 100.540 94, 98.627 95.912, 96.453 98.250 M 29.895 99.226 C 32.084 101.704, 34.865 102.208, 33.416 99.864 C 33.077 99.316, 32.544 99.123, 32.231 99.436 C 31.918 99.748, 30.726 99.219, 29.581 98.259 C 28.020 96.951, 28.099 97.192, 29.895 99.226 M 34.437 102.771 C 34.779 103.112, 35.761 103.494, 36.621 103.621 C 37.480 103.747, 37.904 103.571, 37.563 103.229 C 37.221 102.888, 36.239 102.506, 35.379 102.379 C 34.520 102.253, 34.096 102.429, 34.437 102.771 M 38.603 104.833 C 38.320 105.292, 38.723 105.667, 39.500 105.667 C 40.277 105.667, 40.680 105.292, 40.397 104.833 C 40.114 104.375, 39.710 104, 39.500 104 C 39.290 104, 38.886 104.375, 38.603 104.833 M 84 106.500 C 81.525 107.825, 79.855 108.930, 80.290 108.955 C 81.352 109.016, 89 105.086, 89 104.480 C 89 103.817, 89.041 103.800, 84 106.500 M 45 108 C 45.825 108.533, 46.950 108.969, 47.500 108.969 C 48.050 108.969, 47.825 108.533, 47 108 C 46.175 107.467, 45.050 107.031, 44.500 107.031 C 43.950 107.031, 44.175 107.467, 45 108 M 38.141 112.590 C 37.240 114.567, 37.239 115.087, 38.135 114.788 C 39.512 114.329, 41.314 110, 40.128 110 C 39.684 110, 38.790 111.165, 38.141 112.590 M 72.813 110.683 C 73.534 110.972, 74.397 110.936, 74.729 110.604 C 75.061 110.272, 74.471 110.036, 73.417 110.079 C 72.252 110.127, 72.015 110.364, 72.813 110.683 M 42.091 113.389 C 41.460 114.977, 41.145 116.479, 41.391 116.724 C 42.127 117.460, 44.166 112.987, 43.684 111.695 C 43.439 111.038, 42.722 111.800, 42.091 113.389 M 59.728 111.722 C 61.503 111.943, 64.653 111.946, 66.728 111.730 C 68.802 111.513, 67.350 111.333, 63.500 111.328 C 59.650 111.324, 57.952 111.501, 59.728 111.722 M 47.901 113.250 C 47.317 114.722, 47.505 119, 48.154 119 C 48.619 119, 49 117.650, 49 116 C 49 113.575, 48.384 112.033, 47.901 113.250 M 85 114.139 C 85 114.612, 86.125 115, 87.500 115 C 88.875 115, 90 114.827, 90 114.617 C 90 114.406, 88.875 114.018, 87.500 113.755 C 86.125 113.492, 85 113.665, 85 114.139 M 51.705 116.750 C 51.212 119.316, 51.534 120.874, 52.359 119.917 C 53.298 118.828, 53.931 114, 53.136 114 C 52.639 114, 51.995 115.237, 51.705 116.750 M 54.636 116.506 C 54.321 117.328, 54.472 118, 54.972 118 C 56.328 118, 57.170 116.223, 56.121 115.575 C 55.620 115.265, 54.952 115.684, 54.636 116.506 M 57.787 118 C 57.545 119.650, 57.718 121, 58.173 121 C 58.628 121, 59 120.362, 59 119.582 C 59 118.802, 59.273 117.452, 59.607 116.582 C 59.941 115.712, 59.767 115, 59.220 115 C 58.674 115, 58.029 116.350, 57.787 118 M 74.015 117.191 C 74.007 118.671, 74.450 120.160, 75 120.500 C 76.277 121.289, 76.277 117.976, 75 116 C 74.242 114.827, 74.027 115.086, 74.015 117.191 M 80 115.883 C 80 116.369, 81.129 116.983, 82.509 117.246 C 84.539 117.635, 84.802 117.466, 83.886 116.363 C 82.623 114.840, 80 114.517, 80 115.883 M 61 117 C 61 117.550, 61.450 118, 62 118 C 62.550 118, 63 117.550, 63 117 C 63 116.450, 62.550 116, 62 116 C 61.450 116, 61 116.450, 61 117 M 64 118.500 C 64 119.875, 64.450 121, 65 121 C 65.550 121, 66 119.875, 66 118.500 C 66 117.125, 65.550 116, 65 116 C 64.450 116, 64 117.125, 64 118.500 M 68.970 117.944 C 70.044 119.951, 72 121.597, 72 120.493 C 72 119.119, 69.868 116, 68.930 116 C 68.277 116, 68.291 116.675, 68.970 117.944 M 78.813 125.683 C 79.534 125.972, 80.397 125.936, 80.729 125.604 C 81.061 125.272, 80.471 125.036, 79.417 125.079 C 78.252 125.127, 78.015 125.364, 78.813 125.683 M 72.250 126.689 C 73.213 126.941, 74.787 126.941, 75.750 126.689 C 76.713 126.438, 75.925 126.232, 74 126.232 C 72.075 126.232, 71.287 126.438, 72.250 126.689 M 61.250 127.716 C 62.763 127.945, 65.237 127.945, 66.750 127.716 C 68.263 127.487, 67.025 127.300, 64 127.300 C 60.975 127.300, 59.737 127.487, 61.250 127.716" stroke="none" fill="black" fill-rule="evenodd"/>
	<path fill-opacity="0.254" d="M 44 11.378 C 44 11.585, 44.788 12.373, 45.750 13.128 C 47.336 14.371, 47.371 14.336, 46.128 12.750 C 44.821 11.084, 44 10.555, 44 11.378 M 52.265 17.542 C 46.926 18.979, 37.540 23.318, 36.649 24.760 C 36.377 25.198, 39.158 24.069, 42.828 22.250 C 46.497 20.431, 51.075 18.782, 53 18.587 C 54.925 18.391, 57.175 17.967, 58 17.643 C 58.825 17.319, 61.975 16.901, 65 16.712 C 70.473 16.372, 70.468 16.369, 64 16.251 C 60.425 16.185, 55.144 16.766, 52.265 17.542 M 72.813 17.683 C 73.534 17.972, 74.397 17.936, 74.729 17.604 C 75.061 17.272, 74.471 17.036, 73.417 17.079 C 72.252 17.127, 72.015 17.364, 72.813 17.683 M 67.269 18.693 C 68.242 18.947, 69.592 18.930, 70.269 18.656 C 70.946 18.382, 70.150 18.175, 68.500 18.195 C 66.850 18.215, 66.296 18.439, 67.269 18.693 M 76.813 18.683 C 77.534 18.972, 78.397 18.936, 78.729 18.604 C 79.061 18.272, 78.471 18.036, 77.417 18.079 C 76.252 18.127, 76.015 18.364, 76.813 18.683 M 77.511 21.253 C 88.517 25.505, 98.273 33.869, 104.044 44 C 105.767 47.025, 106.890 48.600, 106.540 47.500 C 105.111 43.012, 99.207 34.515, 94.665 30.411 C 89.644 25.874, 79.700 20.495, 74.500 19.503 C 72.850 19.189, 74.205 19.976, 77.511 21.253 M 82.083 20.365 C 82.313 20.565, 83.625 21.265, 85 21.920 C 87.357 23.042, 87.389 23.022, 85.559 21.555 C 83.966 20.279, 80.711 19.164, 82.083 20.365 M 113.437 25.329 C 114.977 27.348, 116.440 29, 116.687 29 C 117.381 29, 113.052 23.150, 111.772 22.359 C 111.148 21.973, 111.897 23.310, 113.437 25.329 M 90 24.378 C 90 24.585, 90.787 25.373, 91.750 26.128 C 93.336 27.371, 93.371 27.336, 92.128 25.750 C 90.821 24.084, 90 23.555, 90 24.378 M 30 30.500 C 27.571 32.975, 25.809 35, 26.084 35 C 26.359 35, 28.571 32.975, 31 30.500 C 33.429 28.025, 35.191 26, 34.916 26 C 34.641 26, 32.429 28.025, 30 30.500 M 97 30.500 C 98.866 32.425, 100.617 34, 100.892 34 C 101.167 34, 99.866 32.425, 98 30.500 C 96.134 28.575, 94.383 27, 94.108 27 C 93.833 27, 95.134 28.575, 97 30.500 M 118 32 C 118.589 33.100, 119.295 34, 119.570 34 C 119.845 34, 119.589 33.100, 119 32 C 118.411 30.900, 117.705 30, 117.430 30 C 117.155 30, 117.411 30.900, 118 32 M 101 35.378 C 101 35.585, 101.787 36.373, 102.750 37.128 C 104.336 38.371, 104.371 38.336, 103.128 36.750 C 101.821 35.084, 101 34.555, 101 35.378 M 111 36.460 C 111 36.794, 112.131 39.298, 113.512 42.024 C 117.264 49.428, 119.271 59.289, 118.748 67.750 C 118.216 76.369, 119.545 77.455, 120.585 69.250 C 121.978 58.261, 116.850 37.041, 112.593 36.177 C 111.717 35.999, 111 36.126, 111 36.460 M 22 41 C 21.411 42.100, 21.155 43, 21.430 43 C 21.705 43, 22.411 42.100, 23 41 C 23.589 39.900, 23.845 39, 23.570 39 C 23.295 39, 22.589 39.900, 22 41 M 80 40.378 C 80 40.585, 80.787 41.373, 81.750 42.128 C 83.336 43.371, 83.371 43.336, 82.128 41.750 C 80.821 40.084, 80 39.555, 80 40.378 M 105.564 42.293 C 105.940 43.279, 106.499 43.834, 106.807 43.526 C 107.115 43.219, 106.808 42.412, 106.124 41.733 C 105.136 40.753, 105.022 40.868, 105.564 42.293 M 74 54 C 73.099 54.582, 72.975 54.975, 73.691 54.985 C 74.346 54.993, 75.160 54.550, 75.500 54 C 76.267 52.758, 75.921 52.758, 74 54 M 16.195 61.500 C 16.215 63.150, 16.439 63.704, 16.693 62.731 C 16.947 61.758, 16.930 60.408, 16.656 59.731 C 16.382 59.054, 16.175 59.850, 16.195 61.500 M 14.565 90.895 C 13.901 91.969, 20.809 102.538, 24.343 105.855 C 28.759 110, 29.441 107.202, 25.149 102.546 C 22.980 100.193, 19.974 96.407, 18.470 94.134 C 15.509 89.659, 15.390 89.561, 14.565 90.895 M 15.820 105.364 C 18.930 109.380, 26.861 116.345, 30.438 118.201 C 33.059 119.561, 32.757 119.271, 25.500 113.455 C 22.200 110.810, 17.999 107.039, 16.164 105.073 L 12.828 101.500 15.820 105.364 M 112.398 104.250 C 108.018 109.302, 106.717 111, 107.225 111 C 107.519 111, 109.418 108.975, 111.446 106.500 C 115.203 101.916, 115.947 100.157, 112.398 104.250 M 101.500 114.649 C 98.489 117.340, 98.263 117.713, 100.589 116.158 C 103.353 114.310, 106.829 110.941, 105.872 111.038 C 105.668 111.058, 103.700 112.683, 101.500 114.649 M 86.269 114.693 C 87.242 114.947, 88.592 114.930, 89.269 114.656 C 89.946 114.382, 89.150 114.175, 87.500 114.195 C 85.850 114.215, 85.296 114.439, 86.269 114.693 M 74.086 116 C 74.055 116.825, 74.467 118.175, 75 119 C 76.181 120.828, 76.181 119.249, 75 116.500 C 74.433 115.181, 74.122 115.011, 74.086 116 M 64.195 118.500 C 64.215 120.150, 64.439 120.704, 64.693 119.731 C 64.947 118.758, 64.930 117.408, 64.656 116.731 C 64.382 116.054, 64.175 116.850, 64.195 118.500 M 81.813 116.683 C 82.534 116.972, 83.397 116.936, 83.729 116.604 C 84.061 116.272, 83.471 116.036, 82.417 116.079 C 81.252 116.127, 81.015 116.364, 81.813 116.683 M 52.813 126.683 C 53.534 126.972, 54.397 126.936, 54.729 126.604 C 55.061 126.272, 54.471 126.036, 53.417 126.079 C 52.252 126.127, 52.015 126.364, 52.813 126.683 M 73.813 126.683 C 74.534 126.972, 75.397 126.936, 75.729 126.604 C 76.061 126.272, 75.471 126.036, 74.417 126.079 C 73.252 126.127, 73.015 126.364, 73.813 126.683" stroke="none" fill="black" fill-rule="evenodd"/>
</svg>