<?xml version="1.0"?><svg xmlns="http://www.w3.org/2000/svg" width="36" height="36" shape-rendering="geometricPrecision" text-rendering="geometricPrecision" image-rendering="optimizeQuality" fill-rule="evenodd" clip-rule="evenodd" viewBox="0 0 36 36"><path fill="#ed5c96" d="m15.7-0.1h4.5c8.8 1.8 14 7 15.7 15.8v4.5c-1.7 8.7-6.9 14-15.7 15.7h-4.5c-8.7-1.7-14-6.9-15.8-15.6v-4.8c1.8-8.6 7.1-13.8 15.8-15.6z" opacity=".706"></path><path fill="#fedde9" d="m34.1 20.7c-0.2-0.4-0.4-0.8-0.5-1.2-0.1 0.3-0.3 0.5-0.6 0.7-0.1-0.2-0.2-0.4-0.3-0.7-0.2 0-0.4 0-0.5 0.3-0.1-0.5-0.3-0.5-0.6-0.2-0.3-0.1-0.4-0.4-0.2-0.8 0-0.8-0.1-1.6-0.3-2.4-0.6-4.5-2.8-7.8-6.7-10-1.1-0.7-2.3-1.2-3.7-1.4-0.4-0.2-0.9-0.3-1.5-0.4-0.9-0.1-1.8-0.1-2.7 0.1-5.1 0.8-8.8 3.7-10.9 8.4-0.3 1-0.5 1.9-0.6 2.9-0.1 0.1-0.2 0.2-0.1 0.4-0.2 0.8-0.2 1.6-0.3 2.5 0-0.7-0.1-1.4-0.2-2.1-0.3 0.3-0.5 0.3-0.8 0.1-0.2 0.2-0.4 0.3-0.5 0.5-0.3-0.2-0.3-0.3 0.1-0.4l-0.2-0.1c-0.3 0.3-0.5 0.4-0.8 0.6-0.1 0-0.2-0.1-0.3-0.2 0.1-0.1 0.2-0.2 0.1-0.4-0.2 0.9-0.3 1.8-0.4 2.7-0.4-7.7 2.8-13.3 9.7-16.8 6.5-2.4 12.4-1.4 17.7 3 4.3 4.1 6 9.1 5.1 14.9z"></path><path fill="#f9bed4" d="m16.5 4.7c0.9-0.2 1.8-0.2 2.7-0.1 0.6 0.1 1.1 0.2 1.5 0.4-1.4-0.2-2.8-0.3-4.2-0.3z"></path><path fill="#e3508a" d="m16.5 4.7c1.4 0 2.8 0.1 4.2 0.3 1.4 0.2 2.6 0.7 3.7 1.4 0.1 0.3 0.3 0.5 0.6 0.6-0.2 0.1-0.3 0.3-0.3 0.5 0.1 0.3 0.3 0.5 0.5 0.7 0 0-0.1 0-0.2 0-0.5-0.1-0.9-0.3-1.3-0.5-1.2-0.7-2.5-1.1-3.9-1.2-1.4-0.1-2.8-0.1-4.1 0-4.2 0.9-7.3 3.1-9.4 6.8-0.5 1.2-1 2.4-1.2 3.6-0.1-0.3-0.1-0.6-0.1-0.9 0.1-1 0.3-1.9 0.6-2.9 2.1-4.7 5.8-7.6 10.9-8.4z"></path><path fill="#f676a6" d="m23.7 7.7c-0.3 0-0.3 0.1-0.1 0.3-0.4 0.2-0.4 0.3 0 0.4l-0.3 0.2c0.1 0.1 0.2 0.3 0.3 0.5-0.2 0.2-0.4 0.4-0.5 0.7-1.5-0.4-2.5 0.2-2.8 1.8-0.5-1.4-1.5-2.1-2.9-1.9-0.4 0.3-0.8 0.6-1.2 0.9-0.1 0-0.3 0-0.4-0.2 0.2 0 0.4-0.2 0.6-0.3-0.2-0.5-0.2-1 0-1.5-0.4-0.1-0.4-0.3 0-0.4-0.2 0-0.4 0-0.6-0.2 0.3-0.1 0.4-0.3 0.3-0.6 0.1-0.2 0.2-0.3 0.4-0.4-0.2-0.1-0.2-0.2 0-0.2-0.4 0-0.8 0-1.2 0 0.1-0.1 0.3-0.2 0.4-0.3 1.3-0.1 2.7-0.1 4.1 0 1.4 0.1 2.7 0.5 3.9 1.2z"></path><path fill="#e75f93" d="m24.4 6.4c3.9 2.2 6.1 5.5 6.7 10v1.8c-0.5-4.2-2.6-7.6-6.1-10 0.1 0 0.2 0 0.2 0-0.2-0.2-0.4-0.4-0.5-0.7 0-0.2 0.1-0.4 0.3-0.5-0.3-0.1-0.5-0.3-0.6-0.6z"></path><path fill="#f981ad" d="m23.7 7.7c0.4 0.2 0.8 0.4 1.3 0.5 3.5 2.4 5.6 5.8 6.1 10 0 1.5-0.3 3-0.8 4.4-1.3 3.4-3.7 5.8-7 7.3 0-0.5 0.1-0.9 0.4-1.2-0.1-0.2-0.3-0.3-0.4-0.2 0.4-0.3 0.4-0.5 0.1-0.7 0.1-0.4 0.1-0.7 0-0.9l0.3-0.2c-0.6-0.1-0.6-0.3 0-0.4-0.1-0.2-0.2-0.2-0.4-0.1-0.4-0.2-0.8-0.3-1.3-0.4 2.4 0.2 3.8-0.9 4.2-3.2 0.1-1.1 0.1-2.1 0-3.1-0.3-0.7-0.7-1.2-1.2-1.7 0.3-0.4 0.5-0.9 0.6-1.4 0.1-1.1 0.1-2.1-0.1-3.1-0.3-0.5-0.7-0.8-1.1-1.1 0.1-1.1-0.3-1.9-1.3-2.4 0.1-0.3 0.3-0.5 0.5-0.7-0.1-0.2-0.2-0.4-0.3-0.5l0.3-0.2c-0.4-0.1-0.4-0.2 0-0.4-0.2-0.2-0.2-0.3 0.1-0.3z"></path><path fill="#f0659c" d="m15.7 6.5c-0.1 0.1-0.3 0.2-0.4 0.3 0.4 0 0.8 0 1.2 0-0.2 0-0.2 0.1 0 0.2-0.2 0.1-0.3 0.2-0.4 0.4 0.1 0.3 0 0.5-0.3 0.6 0.2 0.2 0.4 0.2 0.6 0.2-0.4 0.1-0.4 0.3 0 0.4-0.2 0.5-0.2 1 0 1.5-0.2 0.1-0.4 0.3-0.6 0.3 0.1 0.2 0.3 0.2 0.4 0.2-0.1 0.4-0.1 0.9-0.1 1.3-0.3 0-0.7 0.1-1 0.3 0-2.1-1.1-2.9-3.1-2.4-0.4 0.3-0.7 0.6-0.9 1 0 0.6-0.1 1.3-0.2 1.9-1.2 0.3-1.8 1-1.8 2.3-0.2 1.5-0.3 3-0.4 4.5 0.4 1 1.1 1.4 2.2 1.2 0.1 1.8 0.2 3.5 0.4 5.2 0.6 1 1.4 1.3 2.6 0.9-0.4 0.2-0.8 0.4-1.2 0.7 0.1 0.1 0.2 0.2 0.3 0.2-0.1 0.1-0.2 0.2-0.3 0.3 0.1 0.4 0.3 0.8 0.4 1.2-0.3 0.1-0.3 0.2 0 0.3l-0.7 0.2c0.1 0 0.2 0.1 0.2 0.2-3.3-1.5-5.6-4-6.9-7.3-0.7-2-0.9-4.1-0.8-6.2-0.1-0.2 0-0.3 0.1-0.4 0 0.3 0 0.6 0.1 0.9 0.2-1.2 0.7-2.4 1.2-3.6 2.1-3.7 5.2-5.9 9.4-6.8z"></path><path fill="#e6568f" d="m16.2 10.6c0.4-0.3 0.8-0.6 1.2-0.9 1.4-0.2 2.4 0.5 2.9 1.9 0.3-1.6 1.3-2.2 2.8-1.8 1 0.5 1.4 1.3 1.3 2.4 0.4 0.3 0.8 0.6 1.1 1.1 0.2 1 0.2 2 0.1 3.1-0.1 0.5-0.3 1-0.6 1.4 0.5 0.5 0.9 1 1.2 1.7 0.1 1 0.1 2 0 3.1-0.4 2.3-1.8 3.4-4.2 3.2-0.7 1.1-1.7 1.5-2.9 1.1-0.7-0.6-1.1-1.2-1.2-2.1-0.9 0.9-1.9 1.3-3.2 1.2-0.2 0.4-0.5 0.7-0.8 0.8-1.2 0.4-2 0.1-2.6-0.9-0.2-1.7-0.3-3.4-0.4-5.2-1.1 0.2-1.8-0.2-2.2-1.2 0.1-1.5 0.2-3 0.4-4.5 0-1.3 0.6-2 1.8-2.3 0.1-0.6 0.2-1.3 0.2-1.9 0.2-0.4 0.5-0.7 0.9-1 2-0.5 3.1 0.3 3.1 2.4 0.3-0.2 0.7-0.3 1-0.3 0-0.4 0-0.9 0.1-1.3z"></path><path fill="#f4afb6" d="m12.2 11.2v14l-0.3-10.1v-0.7l0.3-3.2z"></path><path fill="#feefd5" d="m11.9 14.4v0.7c-0.1 1.4-0.3 2.8-0.6 4.2-0.4 0.4-0.8 0.5-1.2 0.4-0.3-0.2-0.4-0.4-0.5-0.7 0.4-1.6 0.6-3.1 0.7-4.7 0.3-0.4 0.8-0.5 1.3-0.4 0.2 0.1 0.3 0.3 0.3 0.5z"></path><path fill="#fef0d6" d="m13.9 11.2c-0.1 1 0 2 0.1 2.9 0.1 0 0.1 0 0.1-0.1 0.4-0.2 0.8-0.1 1.1 0.3 0.2 0.8 0.5 1.6 0.7 2.4 0.2-0.5 0.6-0.8 1-0.9h2.3c0-0.4 0-0.8-0.1-1.1-1.1 0-2.1 0-3.1-0.1-0.6-0.5-0.6-1.1 0-1.7 0.5 0 1-0.1 1.5 0-0.2-0.6-0.3-1.1-0.2-1.7 0.4-0.5 0.9-0.6 1.4-0.2 0.4 0.6 0.6 1.2 0.8 1.9 0.4 0 0.8 0 1.2-0.1 0.4-0.7 0.8-1.3 1.2-2 1.4 0 1.8 0.6 1 1.9 0.7 0.1 1.2 0.5 1.6 1.2 0.7 2.9-0.5 4.2-3.5 3.7v1c3.9-0.6 5.2 1 3.9 4.8-0.3 0.7-0.8 1.1-1.5 1.2-0.8 0.1-1.5 0.1-2.3-0.1 0.1 1.1-0.4 1.6-1.5 1.4-0.2-0.2-0.4-0.4-0.4-0.7 0-0.9 0-1.9-0.1-2.9-0.1 0-0.2 0.1-0.2 0.1-0.9 1-1.8 1.8-2.9 2.5-1.1 0.1-1.5-0.4-1.2-1.5 1.3-0.7 2.4-1.7 3.4-2.8-0.6-0.1-1.3-0.2-2-0.2-0.6-0.5-0.8-1.1-0.7-1.9-0.5 0.1-0.8-0.1-0.9-0.6 0-0.6-0.2-1.2-0.5-1.7v-0.2c0.1-0.2 0-0.3-0.1-0.5-0.1 3.3-0.2 6.5-0.1 9.7-0.3 0.7-0.8 0.9-1.5 0.7-0.1-0.2-0.2-0.4-0.2-0.7v-14c0.5-0.8 1.1-0.8 1.7 0z"></path><path fill="#f093a9" d="m14.1 16.2c0.3 0.5 0.5 1.1 0.5 1.7l-0.3-0.7c-0.1-0.3-0.1-0.6-0.2-1z"></path><path fill="#e23b82" d="m14.1 16v0.2c0.1 0.4 0.1 0.7 0.2 1l-0.3 8c-0.1-3.1 0-6.2 0.1-9.2z"></path><path fill="#f2a1b2" d="m14.1 16c-0.1 3-0.2 6.1-0.1 9.2h-0.1c-0.1-3.2 0-6.4 0.1-9.7 0.1 0.2 0.2 0.3 0.1 0.5z"></path><path fill="#f1a4b1" d="m19.1 14.7c0.1 0.3 0.1 0.7 0.1 1.1h-2.3c0.7-0.1 1.4-0.2 2.2-0.1v-1z"></path><path fill="#e7578f" d="m21 14.7c0.5 0 1.1 0 1.6 0.1 0.2 0.2 0.2 0.5 0 0.8-0.5 0.1-1.1 0.1-1.6 0.1v-1z"></path><path fill="#f2a3b2" d="m13.9 11.2l0.2 2.8c0 0.1 0 0.1-0.1 0.1-0.1-0.9-0.2-1.9-0.1-2.9z"></path><path fill="#fdd7e4" d="m4.9 16.4c-0.1 2.1 0.1 4.2 0.8 6.2-0.1 0-0.2-0.1-0.2-0.2-0.1 0.4-0.1 0.7 0 1 3 6.9 8.2 9.7 15.7 8.5 4.5-1.3 7.6-4.1 9.3-8.5 0.1-0.3 0.1-0.6 0-1 0 0.1-0.1 0.2-0.2 0.2 0.5-1.4 0.8-2.9 0.8-4.4v-1.8c0.2 0.8 0.3 1.6 0.3 2.4-0.2 0.4-0.1 0.7 0.2 0.8 0.3-0.3 0.5-0.3 0.6 0.2 0.1-0.3 0.3-0.3 0.5-0.3 0.1 0.3 0.2 0.5 0.3 0.7 0.3-0.2 0.5-0.4 0.6-0.7 0.1 0.4 0.3 0.8 0.5 1.2-1.7 7.7-6.5 12.2-14.2 13.6-8.3 0.5-14.2-3.1-17.5-10.7-0.4-1.3-0.6-2.6-0.8-4 0.1-0.9 0.2-1.8 0.4-2.7 0.1 0.2 0 0.3-0.1 0.4 0.1 0.1 0.2 0.2 0.3 0.2 0.3-0.2 0.5-0.3 0.8-0.6l0.2 0.1c-0.4 0.1-0.4 0.2-0.1 0.4 0.1-0.2 0.3-0.3 0.5-0.5 0.3 0.2 0.5 0.2 0.8-0.1 0.1 0.7 0.2 1.4 0.2 2.1 0.1-0.9 0.1-1.7 0.3-2.5z"></path><path fill="#e6558e" d="m17.8 17.6h1.3v1h-1.6c0-0.3 0-0.5 0.1-0.8 0-0.1 0.1-0.1 0.2-0.2z"></path><path fill="#f3a9b3" d="m17.8 17.6c0.4-0.1 0.9-0.1 1.4-0.1 0 0.4 0 0.8-0.1 1.1v-1h-1.3z"></path><path fill="#f7c0bf" d="m21 20.5v2.2h2c-0.7 0.1-1.4 0.2-2.1 0.2-0.1-0.9 0-1.7 0.1-2.4z"></path><path fill="#e7568f" d="m21 20.5c0.8-0.1 1.5 0 2.2 0.1 0.2 0.7 0.1 1.4-0.2 2.1h-2v-2.2z"></path><path fill="#f096ab" d="m18.9 22.4c0 0 0.1-0.1 0.2-0.1 0.1 1 0.1 2 0.1 2.9l-0.3-2.8z"></path><path fill="#feebf1" d="m5.7 22.6c1.3 3.3 3.6 5.8 6.9 7.3 3.5 1.5 7.1 1.5 10.7 0 3.3-1.5 5.7-3.9 7-7.3 0.1 0 0.2-0.1 0.2-0.2 0.1 0.4 0.1 0.7 0 1-1.7 4.4-4.8 7.2-9.3 8.5-7.5 1.2-12.7-1.6-15.7-8.5-0.1-0.3-0.1-0.6 0-1 0 0.1 0.1 0.2 0.2 0.2z"></path><path fill="#f473a4" d="m22 25.8c0.5 0.1 0.9 0.2 1.3 0.4 0.2-0.1 0.3-0.1 0.4 0.1-0.6 0.1-0.6 0.3 0 0.4l-0.3 0.2c0.1 0.2 0.1 0.5 0 0.9 0.3 0.2 0.3 0.4-0.1 0.7 0.1-0.1 0.3 0 0.4 0.2-0.3 0.3-0.4 0.7-0.4 1.2-3.6 1.5-7.2 1.5-10.7 0 0-0.1-0.1-0.2-0.2-0.2l0.7-0.2c-0.3-0.1-0.3-0.2 0-0.3-0.1-0.4-0.3-0.8-0.4-1.2 0.1-0.1 0.2-0.2 0.3-0.3-0.1 0-0.2-0.1-0.3-0.2 0.4-0.3 0.8-0.5 1.2-0.7 0.3-0.1 0.6-0.4 0.8-0.8 1.3 0.1 2.3-0.3 3.2-1.2 0.1 0.9 0.5 1.5 1.2 2.1 1.2 0.4 2.2 0 2.9-1.1z"></path></svg>