<svg xmlns="http://www.w3.org/2000/svg" width="256" height="256" viewBox="0 0 256 256" version="1.1">
	<path fill-opacity="0.251" d="M -0 128.004 L -0 256.008 128.250 255.754 L 256.500 255.500 256.754 127.750 L 257.008 0 128.504 0 L 0 0 -0 128.004 M 0.485 128.500 C 0.485 198.900, 0.604 227.553, 0.750 192.172 C 0.896 156.792, 0.896 99.192, 0.750 64.172 C 0.604 29.153, 0.485 58.100, 0.485 128.500 M 32 128 L 32 197 101 197 L 170 197 170 128 L 170 59 101 59 L 32 59 32 128 M 206 128 L 206 197 215.500 197 L 225 197 225 128 L 225 59 215.500 59 L 206 59 206 128 M 50.462 78.241 C 50.197 78.933, 50.097 101.775, 50.240 129 L 50.500 178.500 101 178.500 L 151.500 178.500 151.500 128 L 151.500 77.500 101.222 77.241 C 61.533 77.036, 50.843 77.247, 50.462 78.241" stroke="none" fill="black" fill-rule="evenodd"/>
	<path fill-opacity="0.314" d="M -0 128.004 L -0 256.008 128.250 255.754 L 256.500 255.500 256.754 127.750 L 257.008 0 128.504 0 L 0 0 -0 128.004 M 0.485 128.500 C 0.485 198.900, 0.604 227.553, 0.750 192.172 C 0.896 156.792, 0.896 99.192, 0.750 64.172 C 0.604 29.153, 0.485 58.100, 0.485 128.500 M 31 128 L 31 197 100.500 197 L 170 197 170 128 L 170 59 100.500 59 L 31 59 31 128 M 206 128 L 206 197 215.500 197 L 225 197 225 128 L 225 59 215.500 59 L 206 59 206 128 M 50 128 L 50 178 100.500 178 L 151 178 151 128 L 151 78 100.500 78 L 50 78 50 128" stroke="none" fill="black" fill-rule="evenodd"/>
	<path fill-opacity="0.199" d="M -0 128.004 L -0 256.008 128.250 255.754 L 256.500 255.500 256.754 127.750 L 257.008 0 128.504 0 L 0 0 -0 128.004 M 0.485 128.500 C 0.485 198.900, 0.604 227.553, 0.750 192.172 C 0.896 156.792, 0.896 99.192, 0.750 64.172 C 0.604 29.153, 0.485 58.100, 0.485 128.500 M 31.460 59.250 C 31.197 59.938, 31.099 91.325, 31.241 129 L 31.500 197.500 100.750 197.757 L 170 198.014 170 128.007 L 170 58 100.969 58 C 46.665 58, 31.835 58.267, 31.460 59.250 M 205.474 59.212 C 205.204 59.921, 205.099 91.325, 205.241 129 L 205.500 197.500 215 197.500 L 224.500 197.500 224.500 128 L 224.500 58.500 215.233 58.212 C 208.382 58, 205.838 58.260, 205.474 59.212 M 51 128 L 51 178 101 178 L 151 178 151 128 L 151 78 101 78 L 51 78 51 128" stroke="none" fill="black" fill-rule="evenodd"/>
	<path fill-opacity="0.981" d="M -0 128.004 L -0 256.008 128.250 255.754 L 256.500 255.500 256.754 127.750 L 257.008 0 128.504 0 L 0 0 -0 128.004 M 0.485 128.500 C 0.485 198.900, 0.604 227.553, 0.750 192.172 C 0.896 156.792, 0.896 99.192, 0.750 64.172 C 0.604 29.153, 0.485 58.100, 0.485 128.500 M 31 127.993 L 31 198 101.007 198 L 171.014 198 170.757 128.250 L 170.500 58.500 100.750 58.243 L 31 57.986 31 127.993 M 205 128 L 205 198 215 198 L 225 198 225 128 L 225 58 215 58 L 205 58 205 128 M 51 128 L 51 178 101 178 L 151 178 151 128 L 151 78 101 78 L 51 78 51 128" stroke="none" fill="black" fill-rule="evenodd"/>
</svg>