<svg xmlns="http://www.w3.org/2000/svg" version="1.1" width="100px" height="100px" style="shape-rendering:geometricPrecision; text-rendering:geometricPrecision; image-rendering:optimizeQuality; fill-rule:evenodd; clip-rule:evenodd" xmlns:xlink="http://www.w3.org/1999/xlink">
<g><path style="opacity:1" fill="#aa8052" d="M 51.5,-0.5 C 52.5,-0.5 53.5,-0.5 54.5,-0.5C 54.6107,0.117425 54.944,0.617425 55.5,1C 42.4452,4.53282 29.4452,8.36615 16.5,12.5C 17.5846,10.4131 19.2512,9.07978 21.5,8.5C 31.9041,6.40508 41.9041,3.40508 51.5,-0.5 Z"/></g>
<g><path style="opacity:1" fill="#956430" d="M 40.5,-0.5 C 44.1667,-0.5 47.8333,-0.5 51.5,-0.5C 41.9041,3.40508 31.9041,6.40508 21.5,8.5C 27.2109,4.15365 33.5442,1.15365 40.5,-0.5 Z"/></g>
<g><path style="opacity:1" fill="#fbf4db" d="M 68.5,2.5 C 70.3684,3.26315 72.0351,4.26315 73.5,5.5C 68.8394,6.49723 64.1727,7.49723 59.5,8.5C 58.1266,8.65668 56.7932,8.49001 55.5,8C 58.1667,7.33333 60.8333,6.66667 63.5,6C 65.7596,5.45065 67.4262,4.28398 68.5,2.5 Z"/></g>
<g><path style="opacity:1" fill="#c5a67f" d="M 54.5,-0.5 C 56.1667,-0.5 57.8333,-0.5 59.5,-0.5C 59.5,0.166667 59.8333,0.5 60.5,0.5C 60.9175,1.22158 61.5842,1.72158 62.5,2C 56.7148,3.26171 51.0482,4.92837 45.5,7C 48.5224,7.09842 51.1891,7.93175 53.5,9.5C 48.4889,9.33407 43.4889,9.50074 38.5,10C 36.8807,10.2355 35.8807,11.0689 35.5,12.5C 33.4471,12.4021 31.7804,13.0687 30.5,14.5C 26.302,16.4327 22.6353,19.0994 19.5,22.5C 19.5,22.1667 19.5,21.8333 19.5,21.5C 21.6676,18.5001 24.3343,16.0001 27.5,14C 21.5005,15.3799 15.5005,17.2132 9.5,19.5C 11.5,16.8333 13.8333,14.5 16.5,12.5C 29.4452,8.36615 42.4452,4.53282 55.5,1C 54.944,0.617425 54.6107,0.117425 54.5,-0.5 Z"/></g>
<g><path style="opacity:1" fill="#e3d1b5" d="M 60.5,0.5 C 63.221,0.962829 65.8877,1.6295 68.5,2.5C 67.4262,4.28398 65.7596,5.45065 63.5,6C 60.8333,6.66667 58.1667,7.33333 55.5,8C 56.7932,8.49001 58.1266,8.65668 59.5,8.5C 58.0813,9.45115 56.4147,9.78448 54.5,9.5C 54.1667,9.5 53.8333,9.5 53.5,9.5C 51.1891,7.93175 48.5224,7.09842 45.5,7C 51.0482,4.92837 56.7148,3.26171 62.5,2C 61.5842,1.72158 60.9175,1.22158 60.5,0.5 Z"/></g>
<g><path style="opacity:1" fill="#efdaa2" d="M 73.5,5.5 C 74.4916,5.32842 75.1583,5.66175 75.5,6.5C 71.2677,6.77774 67.2677,7.94441 63.5,10C 64.0442,10.7172 64.7109,11.2172 65.5,11.5C 68.1354,12.8109 70.4687,14.4776 72.5,16.5C 69.366,14.7073 66.0327,13.374 62.5,12.5C 60.0948,11.2318 57.4282,10.5651 54.5,10.5C 54.5,10.1667 54.5,9.83333 54.5,9.5C 56.4147,9.78448 58.0813,9.45115 59.5,8.5C 64.1727,7.49723 68.8394,6.49723 73.5,5.5 Z"/></g>
<g><path style="opacity:1" fill="#eac86e" d="M 75.5,6.5 C 76.1667,6.5 76.5,6.83333 76.5,7.5C 72.3559,7.77692 68.6892,9.11026 65.5,11.5C 64.7109,11.2172 64.0442,10.7172 63.5,10C 67.2677,7.94441 71.2677,6.77774 75.5,6.5 Z"/></g>
<g><path style="opacity:1" fill="#fefdc0" d="M 35.5,12.5 C 37.5643,12.687 39.5643,13.187 41.5,14C 39.6854,14.7568 38.0188,15.5902 36.5,16.5C 36.1667,16.5 35.8333,16.5 35.5,16.5C 34.2196,15.0687 32.5529,14.4021 30.5,14.5C 31.7804,13.0687 33.4471,12.4021 35.5,12.5 Z"/></g>
<g><path style="opacity:1" fill="#fbe76e" d="M 53.5,9.5 C 53.8333,9.5 54.1667,9.5 54.5,9.5C 54.5,9.83333 54.5,10.1667 54.5,10.5C 52.8235,11.1834 52.1568,12.5168 52.5,14.5C 52.5,14.8333 52.5,15.1667 52.5,15.5C 52.5,17.1667 52.5,18.8333 52.5,20.5C 51.5489,21.9187 51.2155,23.5853 51.5,25.5C 49.8333,25.5 48.1667,25.5 46.5,25.5C 46.7678,23.901 46.4345,22.5676 45.5,21.5C 44.0484,20.6981 42.3817,20.1981 40.5,20C 39.2695,18.5952 37.9361,17.4286 36.5,16.5C 38.0188,15.5902 39.6854,14.7568 41.5,14C 39.5643,13.187 37.5643,12.687 35.5,12.5C 35.8807,11.0689 36.8807,10.2355 38.5,10C 43.4889,9.50074 48.4889,9.33407 53.5,9.5 Z"/></g>
<g><path style="opacity:1" fill="#d59f30" d="M 54.5,10.5 C 57.4282,10.5651 60.0948,11.2318 62.5,12.5C 62.4361,13.3652 62.1027,14.3652 61.5,15.5C 60.8333,15.5 60.1667,15.5 59.5,15.5C 57.3926,14.5318 55.0593,14.1984 52.5,14.5C 52.1568,12.5168 52.8235,11.1834 54.5,10.5 Z"/></g>
<g><path style="opacity:1" fill="#e1b737" d="M 76.5,7.5 C 79.117,8.78588 81.4504,10.4525 83.5,12.5C 83.5,13.8333 83.5,15.1667 83.5,16.5C 81.1432,16.3367 78.8098,16.5034 76.5,17C 78.8418,18.3919 78.8418,19.2252 76.5,19.5C 75.7377,17.7376 74.4044,16.7376 72.5,16.5C 70.4687,14.4776 68.1354,12.8109 65.5,11.5C 68.6892,9.11026 72.3559,7.77692 76.5,7.5 Z"/></g>
<g><path style="opacity:1" fill="#f9d871" d="M 52.5,15.5 C 52.5,15.1667 52.5,14.8333 52.5,14.5C 55.0593,14.1984 57.3926,14.5318 59.5,15.5C 55.551,15.6932 55.551,16.1932 59.5,17C 64.8012,21.2998 69.8012,25.9664 74.5,31C 76.5183,31.5046 78.5183,32.0046 80.5,32.5C 81.1667,32.5 81.5,32.8333 81.5,33.5C 82.1098,34.391 82.4431,35.391 82.5,36.5C 82.631,37.2389 82.4643,37.9056 82,38.5C 78.2982,35.5584 74.4649,32.8917 70.5,30.5C 68.4178,28.2312 66.4178,25.7312 64.5,23C 63.1667,22.6667 61.8333,22.3333 60.5,22C 58.3921,19.1169 55.7254,16.9503 52.5,15.5 Z"/></g>
<g><path style="opacity:1" fill="#efdfa6" d="M 72.5,16.5 C 74.4044,16.7376 75.7377,17.7376 76.5,19.5C 74.5956,19.2624 73.2623,18.2624 72.5,16.5 Z"/></g>
<g><path style="opacity:1" fill="#bc8339" d="M 62.5,12.5 C 66.0327,13.374 69.366,14.7073 72.5,16.5C 73.2623,18.2624 74.5956,19.2624 76.5,19.5C 77.5,21.1667 78.8333,22.5 80.5,23.5C 81.4486,25.7772 82.7819,27.7772 84.5,29.5C 84.9321,30.7095 85.5987,31.7095 86.5,32.5C 86.5,33.1667 86.5,33.8333 86.5,34.5C 86.6495,35.552 86.4828,36.552 86,37.5C 85.2525,35.249 83.7525,33.9156 81.5,33.5C 81.5,32.8333 81.1667,32.5 80.5,32.5C 76.3507,24.3486 70.0174,18.6819 61.5,15.5C 62.1027,14.3652 62.4361,13.3652 62.5,12.5 Z"/></g>
<g><path style="opacity:1" fill="#efd76f" d="M 83.5,12.5 C 86.5497,14.5491 88.883,17.2157 90.5,20.5C 90.6309,21.3764 90.2975,22.0431 89.5,22.5C 87.1889,23.2135 85.0223,24.2135 83,25.5C 82.2917,24.6195 81.4584,23.9528 80.5,23.5C 78.8333,22.5 77.5,21.1667 76.5,19.5C 78.8418,19.2252 78.8418,18.3919 76.5,17C 78.8098,16.5034 81.1432,16.3367 83.5,16.5C 83.5,15.1667 83.5,13.8333 83.5,12.5 Z"/></g>
<g><path style="opacity:1" fill="#f6ca4c" d="M 52.5,15.5 C 55.7254,16.9503 58.3921,19.1169 60.5,22C 61.8333,22.3333 63.1667,22.6667 64.5,23C 66.4178,25.7312 68.4178,28.2312 70.5,30.5C 68.1829,31.8198 66.1829,33.4864 64.5,35.5C 63.8333,35.5 63.5,35.8333 63.5,36.5C 58.9704,38.0556 54.6371,39.0556 50.5,39.5C 50.5,39.1667 50.5,38.8333 50.5,38.5C 54.4608,36.1234 58.7941,34.6234 63.5,34C 65.229,32.2111 65.8957,30.0444 65.5,27.5C 61.8333,27.5 58.1667,27.5 54.5,27.5C 54.8016,24.9407 54.4682,22.6074 53.5,20.5C 53.1667,20.5 52.8333,20.5 52.5,20.5C 52.5,18.8333 52.5,17.1667 52.5,15.5 Z"/></g>
<g><path style="opacity:1" fill="#f4e9d0" d="M 19.5,21.5 C 15.1203,22.2931 10.7869,23.2931 6.5,24.5C 7.24848,22.6675 8.24848,21.0009 9.5,19.5C 15.5005,17.2132 21.5005,15.3799 27.5,14C 24.3343,16.0001 21.6676,18.5001 19.5,21.5 Z"/></g>
<g><path style="opacity:1" fill="#f3e0aa" d="M 19.5,21.5 C 19.5,21.8333 19.5,22.1667 19.5,22.5C 18.5,23.1667 17.5,23.8333 16.5,24.5C 16.5654,24.0618 16.3988,23.7284 16,23.5C 12.4965,24.4352 8.99651,25.4352 5.5,26.5C 5.32842,25.5084 5.66175,24.8417 6.5,24.5C 10.7869,23.2931 15.1203,22.2931 19.5,21.5 Z"/></g>
<g><path style="opacity:1" fill="#fcfacf" d="M 30.5,19.5 C 32.3092,20.4812 33.6426,21.9812 34.5,24C 35.5,24.3333 36.5,24.6667 37.5,25C 36.5842,25.2784 35.9175,25.7784 35.5,26.5C 40.3054,27.4872 45.3054,27.8205 50.5,27.5C 45.6946,28.4872 40.6946,28.8205 35.5,28.5C 32.6806,26.5812 30.014,24.4145 27.5,22C 28.3734,20.955 29.3734,20.1217 30.5,19.5 Z"/></g>
<g><path style="opacity:1" fill="#fcf6ac" d="M 35.5,16.5 C 35.8333,16.5 36.1667,16.5 36.5,16.5C 37.9361,17.4286 39.2695,18.5952 40.5,20C 42.3817,20.1981 44.0484,20.6981 45.5,21.5C 43.744,22.5521 43.0773,24.2188 43.5,26.5C 40.8333,26.5 38.1667,26.5 35.5,26.5C 35.9175,25.7784 36.5842,25.2784 37.5,25C 36.5,24.6667 35.5,24.3333 34.5,24C 33.6426,21.9812 32.3092,20.4812 30.5,19.5C 32.0009,18.2485 33.6675,17.2485 35.5,16.5 Z"/></g>
<g><path style="opacity:1" fill="#f6eeec" d="M 45.5,21.5 C 45.5,23.1667 45.5,24.8333 45.5,26.5C 47.4147,26.2155 49.0813,26.5489 50.5,27.5C 45.3054,27.8205 40.3054,27.4872 35.5,26.5C 38.1667,26.5 40.8333,26.5 43.5,26.5C 43.0773,24.2188 43.744,22.5521 45.5,21.5 Z"/></g>
<g><path style="opacity:1" fill="#f9f4c7" d="M 52.5,20.5 C 52.8333,20.5 53.1667,20.5 53.5,20.5C 53.5,22.8333 53.5,25.1667 53.5,27.5C 52.5,27.5 51.5,27.5 50.5,27.5C 49.0813,26.5489 47.4147,26.2155 45.5,26.5C 45.5,24.8333 45.5,23.1667 45.5,21.5C 46.4345,22.5676 46.7678,23.901 46.5,25.5C 48.1667,25.5 49.8333,25.5 51.5,25.5C 51.2155,23.5853 51.5489,21.9187 52.5,20.5 Z"/></g>
<g><path style="opacity:1" fill="#fae391" d="M 59.5,15.5 C 60.1667,15.5 60.8333,15.5 61.5,15.5C 70.0174,18.6819 76.3507,24.3486 80.5,32.5C 78.5183,32.0046 76.5183,31.5046 74.5,31C 69.8012,25.9664 64.8012,21.2998 59.5,17C 55.551,16.1932 55.551,15.6932 59.5,15.5 Z"/></g>
<g><path style="opacity:1" fill="#fefdf9" d="M 30.5,14.5 C 32.5529,14.4021 34.2196,15.0687 35.5,16.5C 33.6675,17.2485 32.0009,18.2485 30.5,19.5C 29.3734,20.1217 28.3734,20.955 27.5,22C 30.014,24.4145 32.6806,26.5812 35.5,28.5C 35.5,30.1667 35.5,31.8333 35.5,33.5C 35.5,34.1667 35.8333,34.5 36.5,34.5C 39.4213,35.1939 42.4213,36.0272 45.5,37C 46.2444,38.8148 46.9111,40.6481 47.5,42.5C 47.5,42.8333 47.5,43.1667 47.5,43.5C 45.863,45.4752 44.1964,47.4752 42.5,49.5C 41.8333,50.5 41.1667,51.5 40.5,52.5C 39.1667,53.1667 38.1667,54.1667 37.5,55.5C 36.375,54.6522 36.375,53.6522 37.5,52.5C 39.332,51.8595 39.6653,50.8595 38.5,49.5C 33.7222,46.8812 29.3889,43.7145 25.5,40C 21.8094,39.45 19.1428,37.6167 17.5,34.5C 17.5569,33.391 17.8902,32.391 18.5,31.5C 20.8995,29.4194 21.0662,27.0861 19,24.5C 17.955,25.3734 17.1217,26.3734 16.5,27.5C 15.3995,28.6049 14.7329,29.9382 14.5,31.5C 13.8333,31.5 13.5,31.1667 13.5,30.5C 13.5569,29.391 13.8902,28.391 14.5,27.5C 15.4013,26.7095 16.0679,25.7095 16.5,24.5C 17.5,23.8333 18.5,23.1667 19.5,22.5C 22.6353,19.0994 26.302,16.4327 30.5,14.5 Z"/></g>
<g><path style="opacity:1" fill="#f9ecb1" d="M 90.5,20.5 C 91.4013,21.2905 92.0679,22.2905 92.5,23.5C 89.5848,24.9798 86.9181,26.9798 84.5,29.5C 82.7819,27.7772 81.4486,25.7772 80.5,23.5C 81.4584,23.9528 82.2917,24.6195 83,25.5C 85.0223,24.2135 87.1889,23.2135 89.5,22.5C 90.2975,22.0431 90.6309,21.3764 90.5,20.5 Z"/></g>
<g><path style="opacity:1" fill="#e8c565" d="M 16.5,24.5 C 16.0679,25.7095 15.4013,26.7095 14.5,27.5C 14.5654,27.0618 14.3988,26.7284 14,26.5C 10.6662,28.0422 7.16618,29.0422 3.5,29.5C 3.93205,28.2905 4.59872,27.2905 5.5,26.5C 8.99651,25.4352 12.4965,24.4352 16,23.5C 16.3988,23.7284 16.5654,24.0618 16.5,24.5 Z"/></g>
<g><path style="opacity:1" fill="#fef6db" d="M 92.5,23.5 C 93.6737,24.5137 94.3404,25.847 94.5,27.5C 94.5,28.5 94.5,29.5 94.5,30.5C 91.5049,30.2938 88.8383,30.9605 86.5,32.5C 85.5987,31.7095 84.9321,30.7095 84.5,29.5C 86.9181,26.9798 89.5848,24.9798 92.5,23.5 Z"/></g>
<g><path style="opacity:1" fill="#feef9b" d="M 18.5,31.5 C 18.3404,29.847 17.6737,28.5137 16.5,27.5C 17.1217,26.3734 17.955,25.3734 19,24.5C 21.0662,27.0861 20.8995,29.4194 18.5,31.5 Z"/></g>
<g><path style="opacity:1" fill="#fdf7a3" d="M 53.5,20.5 C 54.4682,22.6074 54.8016,24.9407 54.5,27.5C 58.1667,27.5 61.8333,27.5 65.5,27.5C 65.8957,30.0444 65.229,32.2111 63.5,34C 58.7941,34.6234 54.4608,36.1234 50.5,38.5C 50.19,37.2617 49.69,37.2617 49,38.5C 48.51,37.2068 48.3433,35.8734 48.5,34.5C 53.6918,34.7266 58.6918,33.8933 63.5,32C 64.7112,31.1072 64.7112,30.2739 63.5,29.5C 59.3377,30.1351 55.3377,31.1351 51.5,32.5C 50.0689,32.1193 49.2355,31.1193 49,29.5C 44.3848,30.3878 39.8848,31.7212 35.5,33.5C 35.5,31.8333 35.5,30.1667 35.5,28.5C 40.6946,28.8205 45.6946,28.4872 50.5,27.5C 51.5,27.5 52.5,27.5 53.5,27.5C 53.5,25.1667 53.5,22.8333 53.5,20.5 Z"/></g>
<g><path style="opacity:1" fill="#deb029" d="M 14.5,27.5 C 13.8902,28.391 13.5569,29.391 13.5,30.5C 11.9348,32.5093 10.9348,34.8427 10.5,37.5C 9.88258,37.3893 9.38258,37.056 9,36.5C 6.36166,38.0351 3.52832,39.0351 0.5,39.5C 1.5,36.1667 2.5,32.8333 3.5,29.5C 7.16618,29.0422 10.6662,28.0422 14,26.5C 14.3988,26.7284 14.5654,27.0618 14.5,27.5 Z"/></g>
<g><path style="opacity:1" fill="#fefdc1" d="M 51.5,32.5 C 46.7105,33.7249 41.7105,34.3916 36.5,34.5C 35.8333,34.5 35.5,34.1667 35.5,33.5C 39.8848,31.7212 44.3848,30.3878 49,29.5C 49.2355,31.1193 50.0689,32.1193 51.5,32.5 Z"/></g>
<g><path style="opacity:1" fill="#d6a44d" d="M 81.5,33.5 C 83.7525,33.9156 85.2525,35.249 86,37.5C 86.4828,36.552 86.6495,35.552 86.5,34.5C 87.9313,35.7804 88.5979,37.4471 88.5,39.5C 88.5,40.8333 88.5,42.1667 88.5,43.5C 88.6621,45.5273 88.4955,47.5273 88,49.5C 86.9683,47.0056 85.8017,44.6723 84.5,42.5C 84.405,40.2143 83.7384,38.2143 82.5,36.5C 82.4431,35.391 82.1098,34.391 81.5,33.5 Z"/></g>
<g><path style="opacity:0.977" fill="#fefdf7" d="M 94.5,27.5 C 96.2049,30.2609 97.5383,33.2609 98.5,36.5C 95.0988,37.036 92.0988,38.3693 89.5,40.5C 89.5,39.8333 89.1667,39.5 88.5,39.5C 88.5979,37.4471 87.9313,35.7804 86.5,34.5C 86.5,33.8333 86.5,33.1667 86.5,32.5C 88.8383,30.9605 91.5049,30.2938 94.5,30.5C 94.5,29.5 94.5,28.5 94.5,27.5 Z"/></g>
<g><path style="opacity:1" fill="#fee558" d="M 16.5,27.5 C 17.6737,28.5137 18.3404,29.847 18.5,31.5C 17.8902,32.391 17.5569,33.391 17.5,34.5C 16.596,35.209 16.2627,36.209 16.5,37.5C 15.6618,37.8417 15.3284,38.5084 15.5,39.5C 14.6618,39.8417 14.3284,40.5084 14.5,41.5C 13.6554,40.3285 12.9887,38.9952 12.5,37.5C 12.6036,35.2972 13.2702,33.2972 14.5,31.5C 14.7329,29.9382 15.3995,28.6049 16.5,27.5 Z"/></g>
<g><path style="opacity:1" fill="#f5dd92" d="M 13.5,30.5 C 13.5,31.1667 13.8333,31.5 14.5,31.5C 13.2702,33.2972 12.6036,35.2972 12.5,37.5C 11.7321,38.2625 11.2321,39.2625 11,40.5C 10.5172,39.552 10.3505,38.552 10.5,37.5C 10.9348,34.8427 11.9348,32.5093 13.5,30.5 Z"/></g>
<g><path style="opacity:1" fill="#fedd58" d="M 70.5,30.5 C 74.4649,32.8917 78.2982,35.5584 82,38.5C 82.4643,37.9056 82.631,37.2389 82.5,36.5C 83.7384,38.2143 84.405,40.2143 84.5,42.5C 84.5,44.5 84.5,46.5 84.5,48.5C 81.6393,46.9925 79.306,44.8258 77.5,42C 73.1139,39.9825 68.7806,37.8158 64.5,35.5C 66.1829,33.4864 68.1829,31.8198 70.5,30.5 Z"/></g>
<g><path style="opacity:1" fill="#fefee5" d="M 50.5,38.5 C 50.5,38.8333 50.5,39.1667 50.5,39.5C 49.2719,40.3065 48.2719,41.3065 47.5,42.5C 46.9111,40.6481 46.2444,38.8148 45.5,37C 42.4213,36.0272 39.4213,35.1939 36.5,34.5C 41.7105,34.3916 46.7105,33.7249 51.5,32.5C 55.3377,31.1351 59.3377,30.1351 63.5,29.5C 64.7112,30.2739 64.7112,31.1072 63.5,32C 58.6918,33.8933 53.6918,34.7266 48.5,34.5C 48.3433,35.8734 48.51,37.2068 49,38.5C 49.69,37.2617 50.19,37.2617 50.5,38.5 Z"/></g>
<g><path style="opacity:1" fill="#fef7dd" d="M 98.5,36.5 C 98.2627,37.791 98.596,38.791 99.5,39.5C 99.5,41.1667 99.5,42.8333 99.5,44.5C 96.0448,43.1138 93.0448,43.7804 90.5,46.5C 90.4828,44.4352 90.1495,42.4352 89.5,40.5C 92.0988,38.3693 95.0988,37.036 98.5,36.5 Z"/></g>
<g><path style="opacity:1" fill="#fef6c3" d="M 16.5,38.5 C 23.9577,42.4015 30.9577,47.0682 37.5,52.5C 36.375,53.6522 36.375,54.6522 37.5,55.5C 36.1667,57.1667 34.8333,58.8333 33.5,60.5C 32.9569,60.44 32.6236,60.1067 32.5,59.5C 33.1925,58.4822 33.8592,57.4822 34.5,56.5C 35.525,56.1034 35.6917,55.4368 35,54.5C 33.8873,53.695 32.7206,53.0283 31.5,52.5C 26.5,47.8333 21.5,43.1667 16.5,38.5 Z"/></g>
<g><path style="opacity:1" fill="#efd569" d="M 10.5,37.5 C 10.3505,38.552 10.5172,39.552 11,40.5C 11.2321,39.2625 11.7321,38.2625 12.5,37.5C 12.9887,38.9952 13.6554,40.3285 14.5,41.5C 14.5,42.1667 14.5,42.8333 14.5,43.5C 12.9826,43.4894 11.8159,42.8228 11,41.5C 9.64631,45.3628 9.14631,49.3628 9.5,53.5C 8.59603,52.791 8.26269,51.791 8.5,50.5C 8.66018,48.8008 8.49351,47.1341 8,45.5C 5.62773,47.6861 2.7944,49.0195 -0.5,49.5C -0.5,47.1667 -0.5,44.8333 -0.5,42.5C 0.403972,41.791 0.737305,40.791 0.5,39.5C 3.52832,39.0351 6.36166,38.0351 9,36.5C 9.38258,37.056 9.88258,37.3893 10.5,37.5 Z"/></g>
<g><path style="opacity:1" fill="#fded96" d="M 15.5,39.5 C 15.5,41.1667 15.5,42.8333 15.5,44.5C 20.8333,47.1667 26.1667,49.8333 31.5,52.5C 32.7206,53.0283 33.8873,53.695 35,54.5C 35.6917,55.4368 35.525,56.1034 34.5,56.5C 27.3771,53.7215 20.7104,50.0548 14.5,45.5C 14.5,44.8333 14.5,44.1667 14.5,43.5C 14.5,42.8333 14.5,42.1667 14.5,41.5C 14.3284,40.5084 14.6618,39.8417 15.5,39.5 Z"/></g>
<g><path style="opacity:1" fill="#fcee8a" d="M 63.5,36.5 C 67.193,41.0138 71.8596,44.1804 77.5,46C 79.8045,47.9232 82.1379,49.7565 84.5,51.5C 84.3354,54.5184 84.502,57.5184 85,60.5C 85.1587,62.3427 85.6587,63.0093 86.5,62.5C 87.1667,62.5 87.5,62.8333 87.5,63.5C 87.3404,65.153 86.6737,66.4863 85.5,67.5C 84.017,69.0938 82.517,70.7605 81,72.5C 80.2086,71.255 79.7086,69.9217 79.5,68.5C 79.8333,67.8333 80.1667,67.1667 80.5,66.5C 81.3382,66.1583 81.6716,65.4916 81.5,64.5C 82.6129,63.0536 82.7796,61.3869 82,59.5C 77.7487,57.8712 77.582,56.0378 81.5,54C 76.4205,49.9131 71.0872,46.2464 65.5,43C 63.9512,41.786 62.7845,40.286 62,38.5C 57.5781,41.2521 52.7448,42.9188 47.5,43.5C 47.5,43.1667 47.5,42.8333 47.5,42.5C 48.2719,41.3065 49.2719,40.3065 50.5,39.5C 54.6371,39.0556 58.9704,38.0556 63.5,36.5 Z"/></g>
<g><path style="opacity:1" fill="#e1aa3f" d="M 14.5,43.5 C 14.5,44.1667 14.5,44.8333 14.5,45.5C 14.5,46.8333 14.5,48.1667 14.5,49.5C 14.5,51.1667 14.5,52.8333 14.5,54.5C 13.7516,52.067 12.585,49.7337 11,47.5C 10.5012,51.4862 10.3345,55.4862 10.5,59.5C 9.59603,58.791 9.26269,57.791 9.5,56.5C 9.5,55.5 9.5,54.5 9.5,53.5C 9.14631,49.3628 9.64631,45.3628 11,41.5C 11.8159,42.8228 12.9826,43.4894 14.5,43.5 Z"/></g>
<g><path style="opacity:1" fill="#fefef7" d="M 56.5,45.5 C 62.4091,48.6129 67.7424,52.4462 72.5,57C 72.0426,57.414 71.7093,57.914 71.5,58.5C 74.3405,60.0864 77.0072,61.9197 79.5,64C 80.2524,64.6708 80.5858,65.5041 80.5,66.5C 80.1667,67.1667 79.8333,67.8333 79.5,68.5C 78.2058,69.2899 77.0391,70.2899 76,71.5C 74.1201,69.0469 71.7867,67.0469 69,65.5C 68.6667,65.8333 68.3333,66.1667 68,66.5C 67.8138,63.9644 67.3138,61.631 66.5,59.5C 60.8333,59.5 55.1667,59.5 49.5,59.5C 50.4731,57.9317 50.6397,56.265 50,54.5C 49.31,55.7383 48.81,55.7383 48.5,54.5C 48.8333,53.8333 49.1667,53.1667 49.5,52.5C 51.0627,51.0552 52.396,49.3885 53.5,47.5C 54.5,46.8333 55.5,46.1667 56.5,45.5 Z"/></g>
<g><path style="opacity:1" fill="#fee875" d="M 63.5,36.5 C 63.5,35.8333 63.8333,35.5 64.5,35.5C 68.7806,37.8158 73.1139,39.9825 77.5,42C 79.306,44.8258 81.6393,46.9925 84.5,48.5C 84.5,49.5 84.5,50.5 84.5,51.5C 82.1379,49.7565 79.8045,47.9232 77.5,46C 71.8596,44.1804 67.193,41.0138 63.5,36.5 Z"/></g>
<g><path style="opacity:1" fill="#f8d15e" d="M 14.5,45.5 C 20.7104,50.0548 27.3771,53.7215 34.5,56.5C 33.8592,57.4822 33.1925,58.4822 32.5,59.5C 32.6236,60.1067 32.9569,60.44 33.5,60.5C 33.5,61.1667 33.8333,61.5 34.5,61.5C 34.5,62.8333 34.5,64.1667 34.5,65.5C 34.5,65.8333 34.5,66.1667 34.5,66.5C 33.8333,66.5 33.5,66.8333 33.5,67.5C 32.8354,65.6309 32.1687,63.6309 31.5,61.5C 30.4822,62.1925 29.4822,62.8592 28.5,63.5C 28.0618,63.5654 27.7284,63.3988 27.5,63C 29.0074,62.1627 29.5074,60.9961 29,59.5C 24.2863,55.9461 19.453,52.6128 14.5,49.5C 14.5,48.1667 14.5,46.8333 14.5,45.5 Z"/></g>
<g><path style="opacity:1" fill="#fef1ab" d="M 16.5,37.5 C 16.5,37.8333 16.5,38.1667 16.5,38.5C 21.5,43.1667 26.5,47.8333 31.5,52.5C 26.1667,49.8333 20.8333,47.1667 15.5,44.5C 15.5,42.8333 15.5,41.1667 15.5,39.5C 15.3284,38.5084 15.6618,37.8417 16.5,37.5 Z"/></g>
<g><path style="opacity:1" fill="#fefadd" d="M 17.5,34.5 C 19.1428,37.6167 21.8094,39.45 25.5,40C 29.3889,43.7145 33.7222,46.8812 38.5,49.5C 39.6653,50.8595 39.332,51.8595 37.5,52.5C 30.9577,47.0682 23.9577,42.4015 16.5,38.5C 16.5,38.1667 16.5,37.8333 16.5,37.5C 16.2627,36.209 16.596,35.209 17.5,34.5 Z"/></g>
<g><path style="opacity:1" fill="#fae6a9" d="M 99.5,44.5 C 99.5,45.8333 99.5,47.1667 99.5,48.5C 96.5448,49.1587 93.5448,49.4921 90.5,49.5C 90.5,48.5 90.5,47.5 90.5,46.5C 93.0448,43.7804 96.0448,43.1138 99.5,44.5 Z"/></g>
<g><path style="opacity:1" fill="#f9edad" d="M 8.5,50.5 C 5.87911,52.4848 2.87911,53.4848 -0.5,53.5C -0.5,52.1667 -0.5,50.8333 -0.5,49.5C 2.7944,49.0195 5.62773,47.6861 8,45.5C 8.49351,47.1341 8.66018,48.8008 8.5,50.5 Z"/></g>
<g><path style="opacity:1" fill="#fdf9b3" d="M 81.5,64.5 C 79.6026,61.4406 76.9359,59.2739 73.5,58C 74.1667,57.3333 74.8333,56.6667 75.5,56C 69.4778,52.3217 63.8111,48.155 58.5,43.5C 57.4777,43.8555 56.811,44.5222 56.5,45.5C 55.5,46.1667 54.5,46.8333 53.5,47.5C 53.5654,47.0618 53.3988,46.7284 53,46.5C 49.9686,49.4668 46.4686,50.4668 42.5,49.5C 44.1964,47.4752 45.863,45.4752 47.5,43.5C 52.7448,42.9188 57.5781,41.2521 62,38.5C 62.7845,40.286 63.9512,41.786 65.5,43C 71.0872,46.2464 76.4205,49.9131 81.5,54C 77.582,56.0378 77.7487,57.8712 82,59.5C 82.7796,61.3869 82.6129,63.0536 81.5,64.5 Z"/></g>
<g><path style="opacity:1" fill="#faca42" d="M 14.5,49.5 C 19.453,52.6128 24.2863,55.9461 29,59.5C 29.5074,60.9961 29.0074,62.1627 27.5,63C 27.7284,63.3988 28.0618,63.5654 28.5,63.5C 26.5,65.1667 24.5,66.8333 22.5,68.5C 21.5,68.5 20.5,68.5 19.5,68.5C 17.0377,64.1129 15.3711,59.4462 14.5,54.5C 14.5,52.8333 14.5,51.1667 14.5,49.5 Z"/></g>
<g><path style="opacity:1" fill="#eecb58" d="M 53.5,47.5 C 52.396,49.3885 51.0627,51.0552 49.5,52.5C 46.5033,52.3317 43.5033,52.3317 40.5,52.5C 41.1667,51.5 41.8333,50.5 42.5,49.5C 46.4686,50.4668 49.9686,49.4668 53,46.5C 53.3988,46.7284 53.5654,47.0618 53.5,47.5 Z"/></g>
<g><path style="opacity:1" fill="#fefed9" d="M 81.5,64.5 C 81.6716,65.4916 81.3382,66.1583 80.5,66.5C 80.5858,65.5041 80.2524,64.6708 79.5,64C 77.0072,61.9197 74.3405,60.0864 71.5,58.5C 71.7093,57.914 72.0426,57.414 72.5,57C 67.7424,52.4462 62.4091,48.6129 56.5,45.5C 56.811,44.5222 57.4777,43.8555 58.5,43.5C 63.8111,48.155 69.4778,52.3217 75.5,56C 74.8333,56.6667 74.1667,57.3333 73.5,58C 76.9359,59.2739 79.6026,61.4406 81.5,64.5 Z"/></g>
<g><path style="opacity:0.964" fill="#fef7e1" d="M 8.5,50.5 C 8.26269,51.791 8.59603,52.791 9.5,53.5C 9.5,54.5 9.5,55.5 9.5,56.5C 8.59603,57.209 8.26269,58.209 8.5,59.5C 5.83333,59.5 3.16667,59.5 0.5,59.5C 0.737305,58.209 0.403972,57.209 -0.5,56.5C -0.5,55.5 -0.5,54.5 -0.5,53.5C 2.87911,53.4848 5.87911,52.4848 8.5,50.5 Z"/></g>
<g><path style="opacity:1" fill="#e6b52b" d="M 49.5,52.5 C 49.1667,53.1667 48.8333,53.8333 48.5,54.5C 46.9373,55.9448 45.604,57.6115 44.5,59.5C 41.2365,60.4822 37.9032,61.1489 34.5,61.5C 33.8333,61.5 33.5,61.1667 33.5,60.5C 34.8333,58.8333 36.1667,57.1667 37.5,55.5C 38.1667,54.1667 39.1667,53.1667 40.5,52.5C 43.5033,52.3317 46.5033,52.3317 49.5,52.5 Z"/></g>
<g><path style="opacity:1" fill="#e9cb6d" d="M 88.5,39.5 C 89.1667,39.5 89.5,39.8333 89.5,40.5C 90.1495,42.4352 90.4828,44.4352 90.5,46.5C 90.5,47.5 90.5,48.5 90.5,49.5C 93.5448,49.4921 96.5448,49.1587 99.5,48.5C 99.5,52.1667 99.5,55.8333 99.5,59.5C 99.1667,59.5 98.8333,59.5 98.5,59.5C 98.6602,57.8008 98.4935,56.1341 98,54.5C 93.3818,55.0416 90.2151,57.3749 88.5,61.5C 88.6716,62.4916 88.3382,63.1583 87.5,63.5C 87.5,62.8333 87.1667,62.5 86.5,62.5C 89.225,56.2455 89.8916,49.9122 88.5,43.5C 88.5,42.1667 88.5,40.8333 88.5,39.5 Z"/></g>
<g><path style="opacity:0.945" fill="#fefdf6" d="M 9.5,56.5 C 9.26269,57.791 9.59603,58.791 10.5,59.5C 11.038,61.1172 11.3713,62.7839 11.5,64.5C 9.28441,66.2325 6.61774,67.2325 3.5,67.5C 2.12904,65.064 1.12904,62.3973 0.5,59.5C 3.16667,59.5 5.83333,59.5 8.5,59.5C 8.26269,58.209 8.59603,57.209 9.5,56.5 Z"/></g>
<g><path style="opacity:1" fill="#c58c3f" d="M 14.5,54.5 C 15.3711,59.4462 17.0377,64.1129 19.5,68.5C 19.5,68.8333 19.5,69.1667 19.5,69.5C 18.0998,70.1001 17.0998,71.1001 16.5,72.5C 15.8333,71.8333 15.1667,71.1667 14.5,70.5C 14.0075,68.1815 13.0075,66.1815 11.5,64.5C 11.3713,62.7839 11.038,61.1172 10.5,59.5C 10.3345,55.4862 10.5012,51.4862 11,47.5C 12.585,49.7337 13.7516,52.067 14.5,54.5 Z"/></g>
<g><path style="opacity:1" fill="#fefbc5" d="M 48.5,54.5 C 48.81,55.7383 49.31,55.7383 50,54.5C 50.6397,56.265 50.4731,57.9317 49.5,59.5C 47.8333,59.5 46.1667,59.5 44.5,59.5C 45.604,57.6115 46.9373,55.9448 48.5,54.5 Z"/></g>
<g><path style="opacity:0.984" fill="#d6b13f" d="M 98.5,59.5 C 98.7678,61.099 98.4345,62.4324 97.5,63.5C 97.6567,62.1266 97.49,60.7932 97,59.5C 94.2354,61.4038 91.4021,62.0705 88.5,61.5C 90.2151,57.3749 93.3818,55.0416 98,54.5C 98.4935,56.1341 98.6602,57.8008 98.5,59.5 Z"/></g>
<g><path style="opacity:1" fill="#ddbe77" d="M 44.5,59.5 C 46.1667,59.5 47.8333,59.5 49.5,59.5C 55.1667,59.5 60.8333,59.5 66.5,59.5C 66.5,61.8333 66.5,64.1667 66.5,66.5C 65.8333,66.5 65.1667,66.5 64.5,66.5C 64.2606,64.5328 64.5939,62.6995 65.5,61C 63.5273,60.5045 61.5273,60.3379 59.5,60.5C 54.3054,60.8205 49.3054,60.4872 44.5,59.5 Z"/></g>
<g><path style="opacity:1" fill="#f3c643" d="M 84.5,42.5 C 85.8017,44.6723 86.9683,47.0056 88,49.5C 88.4955,47.5273 88.6621,45.5273 88.5,43.5C 89.8916,49.9122 89.225,56.2455 86.5,62.5C 85.6587,63.0093 85.1587,62.3427 85,60.5C 84.502,57.5184 84.3354,54.5184 84.5,51.5C 84.5,50.5 84.5,49.5 84.5,48.5C 84.5,46.5 84.5,44.5 84.5,42.5 Z"/></g>
<g><path style="opacity:1" fill="#ae7616" d="M 44.5,59.5 C 49.3054,60.4872 54.3054,60.8205 59.5,60.5C 59.5,60.8333 59.5,61.1667 59.5,61.5C 55.351,60.9197 51.6843,61.5864 48.5,63.5C 43.9389,64.8115 39.2723,65.4781 34.5,65.5C 34.5,64.1667 34.5,62.8333 34.5,61.5C 37.9032,61.1489 41.2365,60.4822 44.5,59.5 Z"/></g>
<g><path style="opacity:1" fill="#a36b33" d="M 59.5,61.5 C 60.8333,61.5 62.1667,61.5 63.5,61.5C 63.5,62.8333 63.5,64.1667 63.5,65.5C 58.0557,66.1083 53.0557,65.4417 48.5,63.5C 51.6843,61.5864 55.351,60.9197 59.5,61.5 Z"/></g>
<g><path style="opacity:1" fill="#8d5117" d="M 59.5,61.5 C 59.5,61.1667 59.5,60.8333 59.5,60.5C 61.5273,60.3379 63.5273,60.5045 65.5,61C 64.5939,62.6995 64.2606,64.5328 64.5,66.5C 54.5,66.5 44.5,66.5 34.5,66.5C 34.5,66.1667 34.5,65.8333 34.5,65.5C 39.2723,65.4781 43.9389,64.8115 48.5,63.5C 53.0557,65.4417 58.0557,66.1083 63.5,65.5C 63.5,64.1667 63.5,62.8333 63.5,61.5C 62.1667,61.5 60.8333,61.5 59.5,61.5 Z"/></g>
<g><path style="opacity:1" fill="#dfd1b7" d="M 33.5,67.5 C 33.5,66.8333 33.8333,66.5 34.5,66.5C 44.5,66.5 54.5,66.5 64.5,66.5C 65.1667,66.5 65.8333,66.5 66.5,66.5C 62.3656,67.4849 58.0323,67.8182 53.5,67.5C 53.5,69.5 53.5,71.5 53.5,73.5C 51.6921,72.0821 51.0254,70.0821 51.5,67.5C 49.5,67.5 47.5,67.5 45.5,67.5C 44.8333,67.5 44.1667,67.5 43.5,67.5C 40.1667,67.5 36.8333,67.5 33.5,67.5 Z"/></g>
<g><path style="opacity:1" fill="#fbf8e9" d="M 43.5,67.5 C 44.1667,67.5 44.8333,67.5 45.5,67.5C 45.5,69.5 45.5,71.5 45.5,73.5C 43.6921,72.0821 43.0254,70.0821 43.5,67.5 Z"/></g>
<g><path style="opacity:1" fill="#fdf0c3" d="M 11.5,64.5 C 13.0075,66.1815 14.0075,68.1815 14.5,70.5C 14.5,71.5 14.5,72.5 14.5,73.5C 12.0347,73.767 9.7014,74.4336 7.5,75.5C 5.22946,73.3877 3.89612,70.721 3.5,67.5C 6.61774,67.2325 9.28441,66.2325 11.5,64.5 Z"/></g>
<g><path style="opacity:1" fill="#f9f6d2" d="M 66.5,59.5 C 67.3138,61.631 67.8138,63.9644 68,66.5C 68.3333,66.1667 68.6667,65.8333 69,65.5C 71.7867,67.0469 74.1201,69.0469 76,71.5C 77.0391,70.2899 78.2058,69.2899 79.5,68.5C 79.7086,69.9217 80.2086,71.255 81,72.5C 82.517,70.7605 84.017,69.0938 85.5,67.5C 84.9213,70.3311 83.588,72.6644 81.5,74.5C 80.1516,73.8141 78.985,72.8141 78,71.5C 77.2917,72.3805 76.4584,73.0472 75.5,73.5C 74.5041,73.4142 73.6708,73.7476 73,74.5C 71.1975,72.3222 69.0309,70.4888 66.5,69C 63.5184,68.502 60.5184,68.3354 57.5,68.5C 56.8333,68.5 56.1667,68.5 55.5,68.5C 54.8333,70.1667 54.1667,71.8333 53.5,73.5C 53.5,71.5 53.5,69.5 53.5,67.5C 58.0323,67.8182 62.3656,67.4849 66.5,66.5C 66.5,64.1667 66.5,61.8333 66.5,59.5 Z"/></g>
<g><path style="opacity:1" fill="#d0a019" d="M 97.5,63.5 C 96.3135,70.21 93.3135,75.8767 88.5,80.5C 83.4066,80.421 78.7399,81.7543 74.5,84.5C 74.1667,84.3333 73.8333,84.1667 73.5,84C 75.0414,82.6288 76.3747,81.1288 77.5,79.5C 78.8333,77.8333 80.1667,76.1667 81.5,74.5C 83.588,72.6644 84.9213,70.3311 85.5,67.5C 86.6737,66.4863 87.3404,65.153 87.5,63.5C 88.3382,63.1583 88.6716,62.4916 88.5,61.5C 91.4021,62.0705 94.2354,61.4038 97,59.5C 97.49,60.7932 97.6567,62.1266 97.5,63.5 Z"/></g>
<g><path style="opacity:1" fill="#c08b17" d="M 19.5,69.5 C 19.5,69.1667 19.5,68.8333 19.5,68.5C 20.5,68.5 21.5,68.5 22.5,68.5C 24.6298,70.1271 26.6298,71.9604 28.5,74C 34.5079,75.3455 39.5079,78.3455 43.5,83C 44.448,83.4828 45.448,83.6495 46.5,83.5C 46.5,83.8333 46.5,84.1667 46.5,84.5C 38.7981,83.1567 31.7981,80.1567 25.5,75.5C 23.785,73.1182 21.785,71.1182 19.5,69.5 Z"/></g>
<g><path style="opacity:1" fill="#d3a318" d="M 33.5,67.5 C 36.8333,67.5 40.1667,67.5 43.5,67.5C 43.0254,70.0821 43.6921,72.0821 45.5,73.5C 45.8333,73.5 46.1667,73.5 46.5,73.5C 46.5,76.8333 46.5,80.1667 46.5,83.5C 45.448,83.6495 44.448,83.4828 43.5,83C 39.5079,78.3455 34.5079,75.3455 28.5,74C 26.6298,71.9604 24.6298,70.1271 22.5,68.5C 24.5,66.8333 26.5,65.1667 28.5,63.5C 29.4822,62.8592 30.4822,62.1925 31.5,61.5C 32.1687,63.6309 32.8354,65.6309 33.5,67.5 Z"/></g>
<g><path style="opacity:1" fill="#8b5518" d="M 19.5,69.5 C 21.785,71.1182 23.785,73.1182 25.5,75.5C 28.0418,79.4265 31.0418,82.9265 34.5,86C 34.2716,86.3988 33.9382,86.5654 33.5,86.5C 31.0202,85.758 28.6869,84.758 26.5,83.5C 23.5256,80.8621 20.5256,78.1954 17.5,75.5C 17.4431,74.391 17.1098,73.391 16.5,72.5C 17.0998,71.1001 18.0998,70.1001 19.5,69.5 Z"/></g>
<g><path style="opacity:1" fill="#faefab" d="M 57.5,68.5 C 60.5184,68.3354 63.5184,68.502 66.5,69C 69.0309,70.4888 71.1975,72.3222 73,74.5C 73.6708,73.7476 74.5041,73.4142 75.5,73.5C 74.1667,75.5 72.5,77.1667 70.5,78.5C 68.8516,77.0735 66.8516,76.2401 64.5,76C 63.3235,72.6506 60.9902,71.1506 57.5,71.5C 57.5,70.5 57.5,69.5 57.5,68.5 Z"/></g>
<g><path style="opacity:1" fill="#fcfbf0" d="M 81.5,74.5 C 80.1667,76.1667 78.8333,77.8333 77.5,79.5C 75.9382,79.7329 74.6049,80.3995 73.5,81.5C 71.847,81.3404 70.5137,80.6737 69.5,79.5C 69.5,78.8333 69.8333,78.5 70.5,78.5C 72.5,77.1667 74.1667,75.5 75.5,73.5C 76.4584,73.0472 77.2917,72.3805 78,71.5C 78.985,72.8141 80.1516,73.8141 81.5,74.5 Z"/></g>
<g><path style="opacity:1" fill="#eecc5c" d="M 45.5,67.5 C 47.5,67.5 49.5,67.5 51.5,67.5C 51.0254,70.0821 51.6921,72.0821 53.5,73.5C 54.1667,71.8333 54.8333,70.1667 55.5,68.5C 55.3505,69.552 55.5172,70.552 56,71.5C 59.1584,75.5067 62.9918,78.5067 67.5,80.5C 66.1667,81.1667 64.8333,81.8333 63.5,82.5C 59.3359,80.8524 55.8359,78.1857 53,74.5C 52.5774,75.9561 51.7441,76.4561 50.5,76C 48.4967,73.911 47.33,71.411 47,68.5C 46.5065,70.1341 46.3398,71.8008 46.5,73.5C 46.1667,73.5 45.8333,73.5 45.5,73.5C 45.5,71.5 45.5,69.5 45.5,67.5 Z"/></g>
<g><path style="opacity:1" fill="#f3dd84" d="M 55.5,68.5 C 56.1667,68.5 56.8333,68.5 57.5,68.5C 57.5,69.5 57.5,70.5 57.5,71.5C 60.9902,71.1506 63.3235,72.6506 64.5,76C 66.8516,76.2401 68.8516,77.0735 70.5,78.5C 69.8333,78.5 69.5,78.8333 69.5,79.5C 68.8333,79.8333 68.1667,80.1667 67.5,80.5C 62.9918,78.5067 59.1584,75.5067 56,71.5C 55.5172,70.552 55.3505,69.552 55.5,68.5 Z"/></g>
<g><path style="opacity:1" fill="#eed380" d="M 14.5,70.5 C 15.1667,71.1667 15.8333,71.8333 16.5,72.5C 17.1098,73.391 17.4431,74.391 17.5,75.5C 17.4142,76.4959 17.7476,77.3292 18.5,78C 15.8832,78.8215 13.2165,79.3215 10.5,79.5C 8.73758,78.7377 7.73758,77.4044 7.5,75.5C 9.7014,74.4336 12.0347,73.767 14.5,73.5C 14.5,72.5 14.5,71.5 14.5,70.5 Z"/></g>
<g><path style="opacity:1" fill="#fcf3b3" d="M 69.5,79.5 C 70.5137,80.6737 71.847,81.3404 73.5,81.5C 72.1007,82.8897 70.4341,83.8897 68.5,84.5C 66.597,84.2041 64.9303,83.5375 63.5,82.5C 64.8333,81.8333 66.1667,81.1667 67.5,80.5C 68.1667,80.1667 68.8333,79.8333 69.5,79.5 Z"/></g>
<g><path style="opacity:1" fill="#dab541" d="M 17.5,75.5 C 20.5256,78.1954 23.5256,80.8621 26.5,83.5C 22.6279,83.2422 18.9612,83.9089 15.5,85.5C 13.086,84.0892 11.4194,82.0892 10.5,79.5C 13.2165,79.3215 15.8832,78.8215 18.5,78C 17.7476,77.3292 17.4142,76.4959 17.5,75.5 Z"/></g>
<g><path style="opacity:1" fill="#e8b734" d="M 63.5,82.5 C 64.9303,83.5375 66.597,84.2041 68.5,84.5C 62.2401,88.7995 55.2401,90.4662 47.5,89.5C 46.5489,88.0813 46.2155,86.4147 46.5,84.5C 46.5,84.1667 46.5,83.8333 46.5,83.5C 46.5,80.1667 46.5,76.8333 46.5,73.5C 46.3398,71.8008 46.5065,70.1341 47,68.5C 47.33,71.411 48.4967,73.911 50.5,76C 51.7441,76.4561 52.5774,75.9561 53,74.5C 55.8359,78.1857 59.3359,80.8524 63.5,82.5 Z"/></g>
<g><path style="opacity:1" fill="#b27d19" d="M 77.5,79.5 C 76.3747,81.1288 75.0414,82.6288 73.5,84C 73.8333,84.1667 74.1667,84.3333 74.5,84.5C 78.7399,81.7543 83.4066,80.421 88.5,80.5C 88.0679,81.7095 87.4013,82.7095 86.5,83.5C 71.5915,88.7883 56.5915,93.7883 41.5,98.5C 37.7858,98.4098 34.4525,97.4098 31.5,95.5C 36.9277,93.2838 42.5943,92.1171 48.5,92C 47.5842,91.7216 46.9175,91.2216 46.5,90.5C 47.1667,90.5 47.5,90.1667 47.5,89.5C 55.2401,90.4662 62.2401,88.7995 68.5,84.5C 70.4341,83.8897 72.1007,82.8897 73.5,81.5C 74.6049,80.3995 75.9382,79.7329 77.5,79.5 Z"/></g>
<g><path style="opacity:0.973" fill="#d3a317" d="M 26.5,83.5 C 28.6869,84.758 31.0202,85.758 33.5,86.5C 37.2546,89.4163 41.5879,90.7497 46.5,90.5C 46.9175,91.2216 47.5842,91.7216 48.5,92C 42.5943,92.1171 36.9277,93.2838 31.5,95.5C 25.1937,93.6824 19.8603,90.3491 15.5,85.5C 18.9612,83.9089 22.6279,83.2422 26.5,83.5 Z"/></g>
<g><path style="opacity:1" fill="#a46e16" d="M 25.5,75.5 C 31.7981,80.1567 38.7981,83.1567 46.5,84.5C 46.2155,86.4147 46.5489,88.0813 47.5,89.5C 47.5,90.1667 47.1667,90.5 46.5,90.5C 41.5879,90.7497 37.2546,89.4163 33.5,86.5C 33.9382,86.5654 34.2716,86.3988 34.5,86C 31.0418,82.9265 28.0418,79.4265 25.5,75.5 Z"/></g>
<g><path style="opacity:1" fill="#a16b18" d="M 86.5,83.5 C 85.1092,85.8903 83.1092,87.5569 80.5,88.5C 69.3892,91.8916 58.3892,95.5583 47.5,99.5C 45.8333,99.5 44.1667,99.5 42.5,99.5C 42.5,98.8333 42.1667,98.5 41.5,98.5C 56.5915,93.7883 71.5915,88.7883 86.5,83.5 Z"/></g>
<g><path style="opacity:1" fill="#915a19" d="M 80.5,88.5 C 73.721,94.0565 66.0543,97.7231 57.5,99.5C 54.1667,99.5 50.8333,99.5 47.5,99.5C 58.3892,95.5583 69.3892,91.8916 80.5,88.5 Z"/></g>
</svg>
