<?xml version="1.0"?><svg xmlns="http://www.w3.org/2000/svg" width="36" height="36" shape-rendering="geometricPrecision" text-rendering="geometricPrecision" image-rendering="optimizeQuality" fill-rule="evenodd" clip-rule="evenodd" viewBox="0 0 36 36"><path fill="#fdee9c" d="m27.5 3l0.3 0.3c-0.1 0-0.1 0-0.2 0.1 0.5 0.4 1 0.7 1.4 1.2-0.2 0.1-0.3 0.3-0.5 0.4-0.7-0.4-1.3-0.8-1.9-1.3 0.1-0.2 0.3-0.4 0.6-0.5-1.4-0.9-2.9-1.6-4.5-2-0.9-0.3-1.9-0.5-2.9-0.6-1 0.3-2 0.6-3 0.7-4.3 0.4-7.9 2.1-10.8 5.2l-0.7 0.6c-0.5 0.2-1 0.4-1.4 0.6-0.3 0.4-0.6 0.8-0.9 1.1 1-1.8 2.4-3.4 4-4.7 0.2-0.2 0.4-0.3 0.7-0.4 2-1.3 4.1-2.2 6.4-2.9-0.1 0-0.1 0-0.2 0 4.8-1.1 9.3-0.4 13.6 2.2z"></path><path fill="#fddc50" d="m19.8 1.8c-0.6 0.2-1.2 0.4-1.7 0.5-0.3 0.2-0.5 0.5-0.6 0.9-0.4 0.1-0.8 0.2-1.1 0.4h-0.7c-0.3 0-0.6 0-0.9 0.1l-0.9-0.8c-0.1 0.4-0.2 0.7-0.3 1.1-1.1 0.2-1.1 0.5 0 0.9 0.1 0.1 0.1 0.2 0.1 0.4-0.5-0.2-1-0.1-1.6 0.3-0.1-0.2-0.1-0.4-0.1-0.6 0-0.1 0-0.2-0.1-0.3-0.6 0.4-1.2 0.3-1.6-0.3-0.1 0.5-0.1 0.9-0.2 1.3-0.3 0.1-0.5 0.3-0.6 0.6 0.1 0.1 0.2 0.1 0.4 0.1-0.2 0.4-0.6 0.5-1 0.3-0.3 0.1-0.6 0.3-0.9 0.5-0.3-0.2-0.6-0.2-0.9-0.1-0.4 0-0.9 0.1-1.3 0.3 0 0-0.1-0.1-0.1-0.2l0.4-0.5c3.8-3.8 8.3-5.5 13.7-4.9z"></path><path fill="#fed347" d="m19.8 1.8c0.7-0.1 1.5 0 2.2 0.2 0.2 0.2 0.4 0.3 0.7 0.3-0.2 0.1-0.3 0.3-0.5 0.4-0.3-0.1-0.6 0-0.9 0.3l0.3 0.2c0.4 0.1 0.8 0.1 1.3 0-0.3 0.3-0.5 0.6-0.6 0.9 0 0.3 0.1 0.4 0.3 0.5 0 0.1 0 0.2 0.1 0.3-0.3 0.1-0.5 0.1-0.8 0-0.2 0.1-0.4 0.2-0.7 0.2 0 0.3 0 0.4-0.2 0.6 0-0.3 0-0.6-0.1-0.8l-1-0.6c0.2-0.2 0.4-0.3 0.7-0.4 0.2-0.2 0.2-0.3 0.1-0.5-0.4 0.2-0.8 0.4-1.2 0.5-0.2-0.1-0.2-0.2 0-0.3-0.4-0.2-0.8-0.3-1.1-0.4-0.2-0.3-0.3-0.6-0.3-0.9 0.5-0.1 1.1-0.3 1.7-0.5z"></path><path fill="#fdcd44" d="m22.7 1.2c1.6 0.4 3.1 1.1 4.5 2-0.3 0.1-0.5 0.3-0.6 0.5-1.4-0.9-2.9-1.5-4.6-1.8l-0.4-0.3 1.1-0.4z"></path><path fill="#fef5c7" d="m13.9 0.8c0.1 0 0.1 0 0.2 0-2.3 0.7-4.4 1.6-6.4 2.9 1.8-1.5 3.8-2.5 6.2-2.9z"></path><path fill="#fbc53b" d="m22.7 2.3c1.5 0.5 2.9 1.1 4.2 2 0 0.3 0 0.3-0.2 0.1 0 0.3-0.1 0.3-0.3 0.2-0.1 0-0.2 0.1-0.3 0.3-0.3-0.1-0.5 0-0.7 0l0.4 0.2c-0.4 0.3-0.9 0.5-1.4 0.7-0.1 0.2-0.2 0.4-0.3 0.6 0.1-0.6-0.2-1-0.8-1.2 0.4-0.1 0.7-0.1 1.1-0.3 0.1-0.2 0.2-0.4 0.1-0.6-0.5 0.3-0.9 0.5-1.4 0.6-0.2-0.1-0.4-0.2-0.5-0.3-0.2-0.1-0.3-0.2-0.3-0.5 0.1-0.3 0.3-0.6 0.6-0.9-0.5 0.1-0.9 0.1-1.3 0l-0.3-0.2c0.3-0.3 0.6-0.4 0.9-0.3 0.2-0.1 0.3-0.3 0.5-0.4z"></path><path fill="#eeaf30" d="m27.8 3h-0.3c-4.3-2.6-8.8-3.3-13.6-2.2-2.4 0.4-4.4 1.4-6.2 2.9-0.3 0.1-0.5 0.2-0.7 0.4-1.6 1.3-3 2.9-4 4.7-1.4 2.2-2.2 4.6-2.5 7.3v0.7l-0.3 2.4c-0.2-8 3.2-13.8 10.1-17.5 5-2.1 10-2.2 14.9-0.2 1 0.4 1.8 0.9 2.6 1.5z" opacity=".847"></path><path fill="#fbd964" d="m22.7 1.2l-1.1 0.4c-1.6-0.2-3.2-0.3-4.8-0.3 1-0.1 2-0.4 3-0.7 1 0.1 2 0.3 2.9 0.6z"></path><path fill="#a87827" d="m16.8 1.3c1.6 0 3.2 0.1 4.8 0.3l0.4 0.3v0.1c-0.7-0.2-1.5-0.3-2.2-0.2-5.4-0.6-9.9 1.1-13.7 4.9 0-0.1 0-0.2-0.1-0.2 2.9-3.1 6.5-4.8 10.8-5.2z"></path><path fill="#fadd70" d="m18.1 2.3c0 0.3 0.1 0.6 0.3 0.9 0.3 0.1 0.7 0.2 1.1 0.4-0.3 0.1-0.6 0.3-0.8 0.5 0 0.4 0 0.7-0.1 1-0.5-0.5-1.1-0.5-1.6 0.2 0.1-0.4 0.1-0.8 0-1.2-0.2-0.1-0.4-0.3-0.6-0.5 0.3-0.2 0.7-0.3 1.1-0.4 0.1-0.4 0.3-0.7 0.6-0.9z"></path><path fill="#f9e283" d="m15.7 3.6c-0.4 0.5-0.5 1.1-0.3 1.7-0.3-0.1-0.7-0.1-1-0.2 0 0.4-0.2 0.7-0.5 0.9-0.2-0.2-0.2-0.5-0.2-0.7 0-0.2 0-0.3-0.1-0.4-1.1-0.4-1.1-0.7 0-0.9 0.1-0.4 0.2-0.7 0.3-1.1l0.9 0.8c0.3-0.1 0.6-0.1 0.9-0.1z"></path><path fill="#f9c137" d="m21 5.7c-0.2-0.3-0.4-0.3-0.6 0h-0.7c-0.6 0.3-1.2 0.5-1.8 0.7-4.2 0.2-7.5 2.1-9.8 5.6-0.1-0.2-0.3-0.3-0.5-0.3l-0.7 0.5c-0.1-0.3-0.1-0.6 0-0.9 0.4-0.1 0.8-0.2 1.2-0.3-0.2-0.1-0.4-0.2-0.6-0.2-0.3-0.2-0.7-0.4-1-0.6-0.1-0.2-0.1-0.5 0-0.7 0 0.1 0.1 0.1 0.2 0.1 0.4-0.1 0.9-0.3 1.2-0.5 0-0.1 0-0.2-0.1-0.2-0.4 0-0.8 0-1-0.1 0.4-0.2 0.8-0.2 1.1-0.1 0.5 1.1 0.7 1 0.7-0.2 1.1 0 1.3-0.3 0.4-0.8-0.1-0.4-0.1-0.7-0.1-1 0.4 0.2 0.8 0.1 1-0.3 0.6 0.1 0.9 0.4 0.9 1 0.2-0.3 0.4-0.5 0.5-0.8l1.1-0.1c-0.2-0.3-0.4-0.6-0.7-0.9 0.1-0.2 0.2-0.4 0.3-0.6 0 0.2 0 0.4 0.1 0.6 0.6-0.4 1.1-0.5 1.6-0.3 0 0.2 0 0.5 0.2 0.7 0.3-0.2 0.5-0.5 0.5-0.9 0.3 0.1 0.7 0.1 1 0.2-0.2-0.6-0.1-1.2 0.3-1.7h0.7c0.2 0.2 0.4 0.4 0.6 0.5 0.1 0.4 0.1 0.8 0 1.2 0.5-0.7 1.1-0.7 1.6-0.2 0.1-0.3 0.1-0.6 0.1-1 0.2-0.2 0.5-0.4 0.8-0.5-0.2 0.1-0.2 0.2 0 0.3 0.4-0.1 0.8-0.3 1.2-0.5 0.1 0.2 0.1 0.3-0.1 0.5-0.3 0.1-0.5 0.2-0.7 0.4l1 0.6c0.1 0.2 0.1 0.5 0.1 0.8z"></path><path fill="#fbebb3" d="m27.8 3.3c1.6 1 3 2.3 4.1 3.9-0.5-0.2-0.8-0.1-1.2 0.2l-2.2-2.4c0.2-0.1 0.3-0.3 0.5-0.4-0.4-0.5-0.9-0.8-1.4-1.2 0.1-0.1 0.1-0.1 0.2-0.1z"></path><path fill="#fce88a" d="m12 5c-0.1 0.2-0.2 0.4-0.3 0.6 0.3 0.3 0.5 0.6 0.7 0.9l-1.1 0.1c-0.1 0.3-0.3 0.5-0.5 0.8 0-0.6-0.3-0.9-0.9-1-0.2 0-0.3 0-0.4-0.1 0.1-0.3 0.3-0.5 0.6-0.6 0.1-0.4 0.1-0.8 0.2-1.3 0.4 0.6 1 0.7 1.6 0.3 0.1 0.1 0.1 0.2 0.1 0.3z"></path><path fill="#f6ba33" d="m24.1 6.4v0.6c-0.1 0.1-0.3 0.2-0.5 0.4l-0.4-0.2c-0.1 0.1-0.2 0.2-0.2 0.3 0.6 0.3 1.2 0.7 1.7 1.2-0.1 0.1-0.1 0.1-0.2 0.2-0.7-0.3-1.4-0.7-2.1-1.1-0.3-0.1-0.5-0.2-0.8-0.3 0-0.2 0.2-0.3 0.4-0.3-0.7-0.3-1.5-0.5-2.2-0.7-0.7 0-1.3 0-1.9-0.1 0.6-0.2 1.2-0.4 1.8-0.7h0.7c0.2-0.3 0.4-0.3 0.6 0 0.2-0.2 0.2-0.3 0.2-0.6 0.3 0 0.5-0.1 0.7-0.2 0.3 0.1 0.5 0.1 0.8 0-0.1-0.1-0.1-0.2-0.1-0.3 0.1 0.1 0.3 0.2 0.5 0.3 0.5-0.1 0.9-0.3 1.4-0.6 0.1 0.2 0 0.4-0.1 0.6-0.4 0.2-0.7 0.2-1.1 0.3 0.6 0.2 0.9 0.6 0.8 1.2z"></path><path fill="#f7d46f" d="m26.1 4.9c0.3 0 0.3 0.2-0.1 0.4-0.3 0.4-0.3 0.9 0.1 1.3l-0.2 0.2c-0.2-0.1-0.5-0.3-0.8-0.4-0.3 0.1-0.7 0.3-1 0.6v-0.6c0.1-0.2 0.2-0.4 0.3-0.6 0.5-0.2 1-0.4 1.4-0.7l-0.4-0.2c0.2 0 0.4-0.1 0.7 0z"></path><path fill="#eeac2b" d="m26.9 4.3c1.3 0.7 2.4 1.7 3.3 2.8-0.1 0.2-0.3 0.2-0.4 0-0.1 0.1-0.3 0.3-0.3 0.4-0.4-0.1-0.8-0.2-1.2-0.3 0-0.3-0.1-0.7-0.2-1.1-0.2 0.8-0.8 1.2-1.6 1.1 0.4 0.3 0.5 0.6 0.4 1 0-0.1 0-0.2 0-0.3l-0.7 0.5c-0.3-0.2-0.6-0.2-0.9 0-0.1 0.2-0.2 0.3-0.3 0.3l1.3 1.4c0.1 0.1 0 0.2-0.1 0.4l-0.3-0.2c-0.2-0.3-0.5-0.6-0.9-0.8l-0.5-0.6c0.1-0.1 0.1-0.1 0.2-0.2-0.5-0.5-1.1-0.9-1.7-1.2 0-0.1 0.1-0.2 0.2-0.3l0.4 0.2c0.2-0.2 0.4-0.3 0.5-0.4 0.3-0.3 0.7-0.5 1-0.6 0.3 0.1 0.6 0.3 0.8 0.4l0.2-0.2c-0.4-0.4-0.4-0.9-0.1-1.3 0.4-0.2 0.4-0.4 0.1-0.4 0.1-0.2 0.2-0.3 0.3-0.3 0.2 0.1 0.3 0.1 0.3-0.2 0.2 0.2 0.2 0.2 0.2-0.1z"></path><path fill="#a06216" d="m22 1.9c1.7 0.3 3.2 0.9 4.6 1.8 0.6 0.5 1.2 0.9 1.9 1.3l2.2 2.4c0.3 0.3 0.6 0.6 0.9 1 0.8 1.3 1.5 2.8 2.1 4.3 0.6 2.1 0.8 4.2 0.7 6.4v0.5c-0.1-0.1-0.2-0.2-0.2-0.4v-1.4c0-1.6-0.2-3.1-0.7-4.7-0.4-1.5-1.1-3-2.1-4.3-0.3-0.7-0.7-1.2-1.2-1.7-0.9-1.1-2-2.1-3.3-2.8-1.3-0.9-2.7-1.5-4.2-2-0.3 0-0.5-0.1-0.7-0.3v-0.1z"></path><path fill="#5ebad8" d="m17.2 7.1c1.5-0.2 2.9-0.1 4.4 0.4 0.3 0.1 0.5 0.2 0.8 0.3-0.3 0-0.7 0.1-1.1 0.1-0.5 0-0.9-0.2-1.4-0.4-0.3-0.2-0.5-0.1-0.7 0-0.4 0.2-0.8 0.3-1.3 0.3l-0.3 0.1c0.1 0.4 0 0.5-0.2 0.3-0.4 0.1-0.8 0.2-1.2 0.2 0.2-0.1 0.5-0.2 0.7-0.2l-0.2-0.6c0.3 0 0.6-0.1 0.9-0.3-0.1-0.1-0.2-0.2-0.4-0.2z"></path><path fill="#d5982c" d="m27.5 3h0.3c2.8 1.9 5 4.4 6.3 7.5v0.4h-0.1c-0.2-0.6-0.5-1.2-0.8-1.8-0.4-0.7-0.8-1.3-1.3-1.9-1.1-1.6-2.5-2.9-4.1-3.9l-0.3-0.3z" opacity=".871"></path><path fill="#f8e6ab" d="m29.5 7.5c-0.3 0.2-0.5 0.4-0.8 0.6l-0.2 1.1c-0.4-0.6-1-0.7-1.6-0.3-0.1-0.2-0.1-0.4 0-0.7 0.1-0.4 0-0.7-0.4-1 0.8 0.1 1.4-0.3 1.6-1.1 0.1 0.4 0.2 0.8 0.2 1.1 0.4 0.1 0.8 0.2 1.2 0.3z"></path><path fill="#fdc93e" d="m7.1 7.1c0.1 0.2 0.2 0.5 0.3 0.7-0.2 0.3-0.4 0.7-0.6 1 0.2 0.1 0.6 0.1 1 0.1 0.1 0 0.1 0.1 0.1 0.2-0.3 0.2-0.8 0.4-1.2 0.5-0.1 0-0.2 0-0.2-0.1-0.1 0.2-0.1 0.5 0 0.7 0.3 0.2 0.7 0.4 1 0.6-0.7 0.1-1.1 0.6-1 1.4-0.4-0.7-0.9-0.8-1.5-0.3-0.1-0.4 0-0.7 0.3-1-0.2-0.3-0.4-0.5-0.7-0.7-0.3 0.1-0.7 0.2-1 0.3 0.5-1.2 1.2-2.3 2.1-3.3 0 0.1 0.1 0.2 0.1 0.2 0.4-0.2 0.9-0.3 1.3-0.3z"></path><path fill="#fde379" d="m8.9 6.7c0 0.3 0 0.6 0.1 1 0.9 0.5 0.7 0.8-0.4 0.8 0 1.2-0.2 1.3-0.7 0.2-0.3-0.1-0.7-0.1-1.1 0.1 0.2-0.3 0.4-0.7 0.6-1-0.1-0.2-0.2-0.5-0.3-0.7 0.3-0.1 0.6-0.1 0.9 0.1 0.3-0.2 0.6-0.4 0.9-0.5z"></path><path fill="#428cb9" d="m17.1 7.1h0.1c0.2 0 0.3 0.1 0.4 0.2-0.3 0.2-0.6 0.3-0.9 0.3l0.2 0.6c-0.2 0-0.5 0.1-0.7 0.2-0.2 0.1-0.4 0.2-0.6 0.2-0.2-0.4-0.5-0.6-1-0.5l2.5-1z"></path><path fill="#105d98" d="m17.6 7.9c-0.2 0.1-0.4 0.1-0.5 0 0.2-0.3 0.4-0.3 0.5 0z"></path><path fill="#e19a25" d="m30.2 7.1c0.5 0.5 0.9 1 1.2 1.7-0.2 0.3-0.4 0.5-0.7 0.6-0.2 0.1-0.4 0.3-0.7 0.4-0.3 0.1-0.7 0.1-1-0.2-0.1 0.1-0.1 0.2-0.1 0.3-0.3-0.2-0.6-0.1-0.8 0.2h-0.8c-0.2 0.2-0.4 0.3-0.6 0.2 0.2 0.6 0.5 1.1 0.9 1.6 0 0.2 0.1 0.4 0 0.5-0.5-0.6-1-1.2-1.4-1.9 0.1-0.2 0.2-0.3 0.1-0.4l-1.3-1.4c0.1 0 0.2-0.1 0.3-0.3 0.3-0.2 0.6-0.2 0.9 0l0.7-0.5c0 0.1 0 0.2 0 0.3-0.1 0.3-0.1 0.5 0 0.7 0.6-0.4 1.2-0.3 1.6 0.3l0.2-1.1c0.3-0.2 0.5-0.4 0.8-0.6 0-0.1 0.2-0.3 0.3-0.4 0.1 0.2 0.3 0.2 0.4 0z"></path><path fill="#f9e994" d="m19.8 6.5c0.7 0.2 1.5 0.4 2.2 0.7-0.2 0-0.4 0.1-0.4 0.3-1.5-0.5-2.9-0.6-4.4-0.4h-0.1c-2 0.2-3.8 0.9-5.4 2.1-1 0.8-1.9 1.7-2.6 2.8-0.2-0.1-0.4-0.1-0.6 0 2.7-3.9 6.5-5.7 11.3-5.5z"></path><path fill="#d9ebf2" d="m14.6 8.1c0.5-0.1 0.8 0.1 1 0.5 0.2 0 0.4-0.1 0.6-0.2 0.4 0 0.8-0.1 1.2-0.2 0 0.3-0.1 0.6-0.3 0.8l0.3 0.1c-0.4 0.4-0.7 0.8-0.9 1.3 0.1 0.1 0.1 0.1 0.2 0.2h-0.7c-0.2 0-0.3 0.1-0.4 0.3l-0.3-0.3c0.1 0.3 0.2 0.6 0.2 0.9-0.1-0.2-0.2-0.2-0.4 0 0-0.2-0.1-0.3-0.3-0.4 0.2-0.1 0.2-0.3 0.2-0.5-0.3 0-0.6 0.1-0.7 0.3-0.2 0-0.3 0.1-0.3 0.3-0.3 0.1-0.5 0-0.4-0.4 0.7-0.1 0.6-0.2-0.2-0.2 0 0.3 0.1 0.6 0.2 0.9l-0.3 0.2c-0.2 0.1-0.3 0.3-0.4 0.5-0.4-0.4-0.7-0.3-0.9 0.2-0.3 0.4-0.7 0.4-1 0-0.1-0.1-0.1-0.2-0.2-0.4-0.1 0.3-0.1 0.6 0.1 0.8-0.2 0.2-0.3 0.2-0.4-0.1 0.1-0.6-0.1-0.7-0.6-0.3-0.2 0.3-0.5 0.6-0.7 1-0.1 0-0.2 0-0.3-0.2 0.1-0.5 0.4-0.8 0.9-1 0.1-0.5 0.4-0.9 0.8-1.2 0.3-0.1 0.6-0.3 0.9-0.5l0.9-0.1c0.4-0.3 0.9-0.6 1.3-0.8-0.2-0.1-0.4-0.2-0.5-0.4-0.3 0.4-0.6 0.7-1 1 0-0.1-0.1-0.3-0.2-0.5l0.6-0.6c0.7-0.3 1.3-0.6 2-1z"></path><path fill="#7bb8d5" d="m17.1 7.1l-2.5 1c-0.7 0.4-1.3 0.7-2 1l-0.6 0.6c0.1 0.2 0.2 0.4 0.2 0.5 0.4-0.3 0.7-0.6 1-1 0.1 0.2 0.3 0.3 0.5 0.4-0.4 0.2-0.9 0.5-1.3 0.8l-0.9 0.1c-0.3 0.2-0.6 0.4-0.9 0.5-0.1 0-0.2-0.1-0.3-0.2l1.6-1.5c0-0.1-0.1-0.1-0.2-0.1 1.6-1.2 3.4-1.9 5.4-2.1z"></path><path fill="#fbdf8a" d="m31.9 7.2c0.5 0.6 0.9 1.2 1.3 1.9 0.3 0.6 0.6 1.2 0.8 1.8-0.5-0.9-1-1.7-1.5-2.5-0.3-0.4-0.6-0.4-0.9 0-0.3-0.4-0.6-0.7-0.9-1 0.4-0.3 0.7-0.4 1.2-0.2z"></path><path fill="#fddc66" d="m5.3 7.1c-0.8 1.1-1.5 2.1-2.1 3.2-0.4 0.1-0.7 0.3-1 0.5l0.8-2c0.3-0.3 0.6-0.7 0.9-1.1 0.4-0.2 0.9-0.4 1.4-0.6z"></path><path fill="#d78c21" d="m31.4 8.8c1 1.3 1.7 2.8 2.1 4.3-0.6 0-1 0.3-1.2 0.9 0-0.4 0-0.7 0.3-1.1-0.4 0.1-0.7 0.2-1 0.4-0.4-0.2-0.7-0.4-0.9-0.6 0.2 0.8 0 1.4-0.7 1.8 0.5 0 0.9 0.2 1.4 0.3 0.5-0.1 1.1-0.1 1.7 0-0.4 0-0.7 0.1-1.1 0.2l-0.6 0.8c0-0.3-0.2-0.5-0.5-0.5-0.5 0.1-1 0.2-1.4 0.4-0.2 0.5-0.2 1 0 1.5l-0.3 1.4c0-0.4 0-0.9-0.1-1.4 0 0.4-0.1 0.8-0.2 1.2v-0.6c0-1.9-0.4-3.7-1.3-5.4 0.1-0.1 0-0.3 0-0.5-0.4-0.5-0.7-1-0.9-1.6 0.2 0.1 0.4 0 0.6-0.2h0.8c0.2-0.3 0.5-0.4 0.8-0.2 0.2 0.2 0.4 0.4 0.4 0.7-0.6 0.7-0.4 1 0.6 0.9 0.1 0.3 0.3 0.5 0.5 0.7 0-0.3 0.1-0.6 0.3-0.9 0.3-0.1 0.6-0.3 0.9-0.5-0.3-0.2-0.6-0.3-0.9-0.3v-1.1c0.3-0.1 0.5-0.3 0.7-0.6z"></path><path fill="#fdc941" d="m30.7 9.4v1.1c0.3 0 0.6 0.1 0.9 0.3-0.3 0.2-0.6 0.4-0.9 0.5-0.2 0.3-0.3 0.6-0.3 0.9-0.2-0.2-0.4-0.4-0.5-0.7-1 0.1-1.2-0.2-0.6-0.9 0-0.3-0.2-0.5-0.4-0.7 0-0.1 0-0.2 0.1-0.3 0.3 0.3 0.7 0.3 1 0.2 0.3-0.1 0.5-0.3 0.7-0.4z"></path><path fill="#f0b94e" d="m14 11.2c0.1 0 0.1 0 0.1 0.1-0.1 0.2-0.3 0.2-0.5 0.2-0.1-0.3-0.2-0.6-0.2-0.9 0.8 0 0.9 0.1 0.2 0.2-0.1 0.4 0.1 0.5 0.4 0.4z"></path><path fill="#ecc069" d="m15.1 11.5c-0.2 0-0.4-0.1-0.5-0.3 0 0.1-0.1 0.2-0.2 0.3-0.1-0.2-0.2-0.4-0.1-0.6 0.1-0.2 0.4-0.3 0.7-0.3 0 0.2 0 0.4-0.2 0.5 0.2 0.1 0.3 0.2 0.3 0.4z"></path><path fill="#f0b847" d="m16.9 10.8c0.2-0.2 0.5-0.2 0.7-0.2-0.2 0.2-0.3 0.5-0.3 0.9 0-0.4-0.1-0.6-0.4-0.7z"></path><path fill="#f5b932" d="m34 10.9c0.1 0.6 0.3 1.2 0.5 1.8-0.2-0.1-0.5-0.1-0.8 0-0.6-1.5-1.3-3-2.1-4.3 0.3-0.4 0.6-0.4 0.9 0 0.5 0.8 1 1.6 1.5 2.5z"></path><path fill="#efb847" d="m16 10.6c-0.2 0.3-0.3 0.6-0.5 0.9 0-0.3-0.1-0.6-0.2-0.9l0.3 0.3c0.1-0.2 0.2-0.3 0.4-0.3z"></path><path fill="#ecbc5c" d="m18.5 10.6c0.3 0.6 0.1 0.9-0.6 0.9-0.3-0.6-0.1-0.9 0.6-0.9z"></path><path fill="#cfe1e1" d="m18.1 10.8c0.4 0.1 0.5 0.2 0.1 0.5-0.1-0.1-0.2-0.3-0.1-0.5z"></path><path fill="#eec36b" d="m12.2 10.8c0.6-0.1 0.8 0.1 0.5 0.7-0.2-0.6-0.3-0.6-0.5 0 0-0.3-0.1-0.5 0-0.7z"></path><path fill="#eabc62" d="m21 11.5h-0.5v-0.5c0.1-0.2 0.3-0.3 0.5-0.2 0 0.2-0.1 0.4-0.3 0.5 0.2 0 0.3 0.1 0.3 0.2z"></path><path fill="#cbe6f1" d="m19.2 7.5c0.5 0.2 0.5 0.5 0 0.7 0.3 0.1 0.3 0.3 0 0.5 0.2 0.2 0.1 0.3-0.1 0.3 0.3 0.1 0.2 0.2-0.2 0.3 0.4 0.1 0.4 0.2 0 0.3 0.2 0.3 0.1 0.5-0.3 0.5l0.3 0.2c-0.2 0-0.3 0.1-0.4 0.3-0.7 0-0.9 0.3-0.6 0.9-0.8 0.8-1.6 1.7-2.4 2.5l-0.2-0.3c-0.3 0.3-0.6 0.6-0.9 0.9-0.1 0-0.2 0.1-0.3 0.2 0.1 0.2 0.1 0.4 0.2 0.6 0.1 0.1 0.1 0.3 0 0.4-0.2-0.1-0.4 0-0.5 0.3-0.1-0.3-0.3-0.3-0.4 0l-0.2-0.3c-0.1 0.1-0.3 0.2-0.5 0.2 0-0.1 0-0.2-0.1-0.2-0.1-0.3-0.3-0.6-0.6-0.8v-0.2c0.1-0.1 0.3-0.1 0.4 0l0.1-0.2c0.1 0.1 0.2 0.1 0.4 0 0.1-0.2 0.3-0.4 0.6-0.6 0.3 0.1 0.5 0 0.7-0.3 0.1 0.2 0.2 0.1 0.4-0.1-0.2-0.1-0.2-0.2-0.2-0.3 0.2 0.1 0.5 0.1 0.7 0.1-0.1-0.3-0.1-0.6-0.1-1 0.3 0.4 0.6 0.4 0.8 0l-0.1-0.2c0.4-0.3 0.8-0.6 1.2-0.9 0-0.2 0.1-0.3 0-0.5 0.3 0.1 0.4 0.3 0.4 0.7 0-0.4 0.1-0.7 0.3-0.9-0.3-0.1-0.3-0.2 0-0.4l0.1 0.1c0.4-0.5 0.5-1.2 0.5-1.8-0.1 0.1-0.3 0.1-0.4 0.1 0.1-0.3 0.2-0.5 0.1-0.8 0.5 0 0.9-0.1 1.3-0.3z"></path><path fill="#c6e3ee" d="m19.2 7.5c0.2-0.1 0.4-0.2 0.7 0 0.5 0.2 0.9 0.4 1.4 0.4 0.1 0.6-0.1 1.2-0.4 1.7 0 0 0.1 0.1 0.1 0.2-0.2 0.3-0.4 0.6-0.7 1-0.3 0.1-0.4 0.4-0.3 0.7 0.1-0.2 0.2-0.3 0.3-0.5h0.2v0.5h0.5c-0.1 0.1-0.1 0.2-0.1 0.4-0.5-0.2-1-0.2-1.4 0.1-0.5 0.4-0.9 0.8-1.2 1.3-0.1 0.4 0 0.7 0.2 1-0.1 0.1-0.2 0.2-0.3 0.3-0.2-0.2-0.3-0.2-0.6 0v-1.2c-0.3 0-0.5 0.1-0.7 0.3 0.3 0.3 0.5 0.6 0.6 1l0.1 0.6-0.7 0.5c0.1-0.1 0-0.2-0.1-0.3-0.5-0.1-1-0.1-1.5-0.2 0 0.3 0.1 0.4 0.4 0.5-0.5 0.4-1 0.9-1.4 1.4 0-0.5-0.2-0.6-0.7-0.5 0-0.3-0.1-0.3-0.2-0.2-0.1-0.2-0.2-0.3-0.3-0.1-0.1-0.2-0.2-0.3-0.4-0.4 0.2 0 0.4-0.1 0.5-0.2l0.2 0.3c0.1-0.3 0.3-0.3 0.4 0 0.1-0.3 0.3-0.4 0.5-0.3 0.1-0.1 0.1-0.3 0-0.4 0.2-0.2 0.3-0.1 0.3 0.3 0.2 0 0.4-0.1 0.5-0.4-0.4-0.1-0.7-0.3-0.7-0.7 0.3-0.3 0.6-0.6 0.9-0.9l0.2 0.3c0.8-0.8 1.6-1.7 2.4-2.5 0.7 0 0.9-0.3 0.6-0.9 0.1-0.2 0.2-0.3 0.4-0.3l-0.3-0.2c0.4 0 0.5-0.2 0.3-0.5 0.4-0.1 0.4-0.2 0-0.3 0.4-0.1 0.5-0.2 0.2-0.3 0.2 0 0.3-0.1 0.1-0.3 0.3-0.2 0.3-0.4 0-0.5 0.5-0.2 0.5-0.5 0-0.7z"></path><path fill="#eebb54" d="m20.3 10.8v0.2c-0.1 0.2-0.2 0.3-0.3 0.5-0.1-0.3 0-0.6 0.3-0.7z"></path><path fill="#e9be68" d="m23.8 10.8h0.5c0.1 0.4-0.1 0.7-0.6 0.7 0.1-0.1 0.1-0.2 0.3-0.2-0.3-0.1-0.4-0.3-0.2-0.5z"></path><path fill="#f0be5b" d="m11.6 10.6c0.2 0.2 0.4 0.5 0.4 0.8-0.2 0.1-0.4 0.1-0.5 0 0.1-0.2 0.1-0.5 0.1-0.8z"></path><path fill="#eeb951" d="m19.3 10.9c0.3 0.2 0.3 0.3 0.2 0.6-0.2-0.2-0.2-0.4-0.2-0.6z"></path><path fill="#d0d0bc" d="m23.1 11.3c-0.1-0.1-0.1-0.2-0.2-0.4 0 0.2-0.1 0.4 0 0.6-0.2-0.2-0.4-0.2-0.6 0-0.7 0-0.9-0.3-0.5-0.9l0.4 0.3c0.3-0.1 0.6-0.2 0.9-0.1v0.5z"></path><path fill="#aad7ea" d="m25 9.5c0.4 0.2 0.7 0.5 0.9 0.8-0.1 0.1-0.1 0.2-0.2 0.3-0.3-0.3-0.6-0.6-0.8-1-0.2 0.2-0.4 0.2-0.6 0.2v0.7c0.6 0 1 0.2 1.3 0.8 0.3 0.5 0.3 0.6-0.1 0.3-0.1 0.3-0.1 0.6-0.1 0.8h-0.4c-0.1 0.5 0 0.9 0.2 1.3 0 0.1 0 0.1-0.1 0.2-0.2-0.5-0.5-0.9-0.9-1.2-0.5 0.4-0.4 0.7 0.3 0.7-0.1 0.1-0.2 0.2-0.2 0.3 0.7 1.5 0.3 2.3-1.4 2.5 0.2 0.6 0.3 1.1 0.3 1.7-0.1 0.2-0.2 0.2-0.3 0.3-0.3-0.1-0.6-0.3-0.8-0.6-0.3 0.3-0.3 0.7-0.1 1l-0.3-0.1c0.1-0.5 0-1.1-0.2-1.6-0.1 0.2-0.3 0.2-0.5 0.2 0.1-0.5 0-0.8-0.4-1.1-0.6 0.2-1.1 0.6-1.5 1.1 0-0.1 0.1-0.3 0.1-0.4 0-0.1 0-0.2 0.1-0.3 1.1-1.2 2.3-2.3 3.5-3.4 0.1-0.1 0.1-0.3 0-0.4l-1 1c-0.2-0.9 0-1.6 0.5-2.1 0.2-0.2 0.4-0.2 0.6 0h0.8c0.5 0 0.7-0.3 0.6-0.7h-0.5c0.2-0.4 0.3-0.8 0.3-1.2 0.3 0 0.6 0 0.9-0.1z"></path><path fill="#eabd60" d="m24.4 10.6c0.2 0 0.3 0.1 0.4 0.3-0.1 0.2-0.1 0.4-0.1 0.6-0.3-0.3-0.4-0.5-0.3-0.9z"></path><path fill="#f2b539" d="m20.9 11.9c0.7 0.5 0.9 1.1 0.5 2-0.5 0.6-1.1 1-1.8 1.2-0.6-0.3-1-0.1-1.3 0.4-0.1-0.3-0.1-0.6-0.1-0.9 0.1-0.1 0.2-0.2 0.3-0.3-0.2-0.3-0.3-0.6-0.2-1 0.3-0.5 0.7-0.9 1.2-1.3 0.4-0.3 0.9-0.3 1.4-0.1z"></path><path fill="#efaf2c" d="m7.5 10.8c0.2 0 0.4 0.1 0.6 0.2-0.4 0.1-0.8 0.2-1.2 0.3-0.1 0.3-0.1 0.6 0 0.9l0.7-0.5c0.2 0 0.4 0.1 0.5 0.3-0.3 0.7-0.5 1.3-0.9 1.9 0-0.1-0.1-0.1-0.2-0.2-0.3 0.1-0.6 0.2-0.9 0.4 0-0.1 0-0.3 0-0.4-0.4-0.1-0.8-0.2-1.2-0.3-0.2-0.2-0.3-0.5-0.4-0.8-0.1 0.3-0.2 0.5-0.4 0.8-0.4 0.2-0.8 0.4-1.1 0.6 0 0.1 0 0.2 0 0.3l-0.5-0.2c-0.1 0.4-0.2 0.4-0.3 0 0.2-1.3 0.7-2.5 1.4-3.6 0.3-0.1 0.7-0.2 1-0.3 0.3 0.2 0.5 0.4 0.7 0.7-0.3 0.3-0.4 0.6-0.3 1 0.6-0.5 1.1-0.4 1.5 0.3-0.1-0.8 0.3-1.3 1-1.4z"></path><path fill="#ecce81" d="m34 10.9h0.1c1.6 3.7 1.8 7.5 0.7 11.4 0.3-1.4 0.4-2.7 0.4-4.1 0.1-1.9-0.1-3.7-0.7-5.5-0.2-0.6-0.4-1.2-0.5-1.8z"></path><path fill="#fcefba" d="m17.9 6.4c0.6 0.1 1.2 0.1 1.9 0.1-4.8-0.2-8.6 1.6-11.3 5.5-1.3 2.2-1.8 4.6-1.5 7.1 0.1 1.5 0.5 3 1.2 4.5-0.1-0.1-0.2-0.2-0.3-0.3-0.2-0.4-0.4-0.9-0.5-1.3-0.6-1.8-0.9-3.6-0.9-5.5 0.2-0.9 0.5-1.7 0.7-2.6 0.4-0.6 0.6-1.2 0.9-1.9 2.3-3.5 5.6-5.4 9.8-5.6z"></path><path fill="#2d85b7" d="m15 12.4c0 0.4 0 0.7 0.1 1-0.2 0-0.5 0-0.7-0.1 0.1-0.4 0.1-0.8 0.1-1.3 0.2-0.2 0.5-0.3 0.8-0.1-0.4 0.1-0.5 0.3-0.3 0.5z"></path><path fill="#2f8abb" d="m13.3 11.7c-0.1 0.3 0 0.6 0.3 0.8l-0.2 0.2c-0.4-0.1-0.8-0.1-1.2 0-0.1 0-0.2-0.1-0.2-0.3 0.2-0.5 0.5-0.6 0.9-0.2 0.1-0.2 0.2-0.4 0.4-0.5z"></path><path fill="#d1eaf4" d="m17.9 7.8c0.1 0.3 0 0.5-0.1 0.8 0.1 0 0.3 0 0.4-0.1 0 0.6-0.1 1.3-0.5 1.8l-0.1-0.1c-0.3 0.2-0.3 0.3 0 0.4-0.2 0-0.5 0-0.7 0.2 0.1 0.2 0 0.3 0 0.5-0.4 0.3-0.8 0.6-1.2 0.9l0.1 0.2c-0.2 0.4-0.5 0.4-0.8 0-0.2-0.2-0.1-0.4 0.3-0.5-0.3-0.2-0.6-0.1-0.8 0.1 0 0.5 0 0.9-0.1 1.3 0 0.1 0 0.2 0.2 0.3-0.2 0.2-0.3 0.3-0.4 0.1-0.2 0.3-0.4 0.4-0.7 0.3-0.3 0.2-0.5 0.4-0.6 0.6-0.2 0.1-0.3 0.1-0.4 0l-0.1 0.2c-0.1-0.1-0.3-0.1-0.4 0-0.1 0-0.2 0.1-0.2 0.3-0.2-0.2-0.3-0.4-0.2-0.7 0.6 0 0.9-0.3 0.9-1-0.3 0.2-0.6 0.2-0.9 0.2 0-0.9-0.2-0.9-0.5-0.2-0.1-0.3-0.1-0.6-0.1-1 0.3 0.4 0.7 0.4 1 0 0 0.2 0.1 0.3 0.2 0.3 0.4-0.1 0.8-0.1 1.2 0l0.2-0.2c-0.3-0.2-0.4-0.5-0.3-0.8l0.3-0.2c0.2 0 0.4 0 0.5-0.2 0-0.1 0-0.1-0.1-0.1 0-0.2 0.1-0.3 0.3-0.3-0.1 0.2 0 0.4 0.1 0.6 0.1-0.1 0.2-0.2 0.2-0.3 0.1 0.2 0.3 0.3 0.5 0.3 0.2-0.2 0.3-0.2 0.4 0 0.2-0.3 0.3-0.6 0.5-0.9h0.1c-0.1 0.9 0.1 1 0.6 0.4 0.1-0.1 0.1-0.3 0-0.4-0.1-0.1-0.1-0.1-0.2-0.2 0.2-0.5 0.5-0.9 0.9-1.3l-0.3-0.1c0.2-0.2 0.3-0.5 0.3-0.8 0.2 0.2 0.3 0.1 0.2-0.3l0.3-0.1z"></path><path fill="#ecbf67" d="m16.1 10.6h0.6c0.1 0.1 0.1 0.3 0 0.4-0.5 0.6-0.7 0.5-0.6-0.4z"></path><path fill="#fdcf4b" d="m3.2 10.3c-0.9 2-1.5 4-1.7 6.1-0.3 0-0.5 0.1-0.7 0.3 0-2.1 0.4-4.1 1.4-5.9 0.3-0.2 0.6-0.4 1-0.5z"></path><path fill="#28578f" d="m11.7 9.2c0.1 0 0.2 0 0.2 0.1l-1.6 1.5c0.1 0.1 0.2 0.2 0.3 0.2-0.4 0.3-0.7 0.7-0.8 1.2-0.5 0.2-0.8 0.5-0.9 1 0.1 0.2 0.2 0.2 0.3 0.2 0.2-0.4 0.5-0.7 0.7-1 0.5-0.4 0.7-0.3 0.6 0.3 0 0.3-0.1 0.4-0.3 0.6 0.1 0.1 0.3 0.1 0.4 0 0.1 0.3 0.2 0.5 0.4 0.8 0 0 0 0-0.1 0-0.2 0.1-0.4 0.2-0.5 0.5-0.4-0.3-0.5-0.7-0.3-1.1-0.6-0.1-1.1 0.1-1.5 0.5-0.2 0.2-0.2 0.4-0.2 0.7-0.7 1.2-0.9 2.5-0.5 3.9 0 0.3 0.1 0.4 0.3 0.5 0.1 0.5 0 1-0.4 1.4-0.2-1.1-0.3-2.3-0.3-3.4 0.1-1.8 0.6-3.5 1.6-5.1 0.7-1.1 1.6-2 2.6-2.8z"></path><path fill="#c3dde2" d="m19.9 12.4c0.5 0 0.9 0.2 1 0.7-0.3 0.7-0.8 1.1-1.4 1.3v-0.5h-0.6c0-0.2 0-0.3 0.1-0.5 0.3-0.3 0.6-0.6 0.9-1z"></path><path fill="#104c8b" d="m25.9 10.3l0.3 0.2c0.4 0.7 0.9 1.3 1.4 1.9 0.9 1.7 1.3 3.5 1.3 5.4-0.2 0.1-0.4 0.1-0.6 0.1 0.1-0.7 0-1.5-0.2-2.2 0 0.8 0.1 1.6 0.1 2.4-0.5 0-0.9 0.1-1.4 0.1 0-0.9-0.1-1.8-0.3-2.7 0.2 0.1 0.4 0 0.6 0-0.3-0.1-0.5-0.1-0.7-0.2-0.1-0.5-0.2-0.9-0.3-1.3 0.3-0.4 0.3-0.9 0-1.3 0.2-0.3 0.1-0.5-0.2-0.7-0.1 0.3-0.1 0.6 0 0.9-0.3 0-0.4 0.1-0.2 0.3-0.2 0.2-0.4 0.3-0.5 0.5-0.2-0.4-0.3-0.8-0.2-1.3h0.4c0-0.2 0-0.5 0.1-0.8 0.4 0.3 0.4 0.2 0.1-0.3-0.3-0.6-0.7-0.8-1.3-0.8v-0.7c0.2 0 0.4 0 0.6-0.2 0.2 0.4 0.5 0.7 0.8 1 0.1-0.1 0.1-0.2 0.2-0.3z"></path><path fill="#90bdd8" d="m26.1 14c-0.2 0-0.2 0-0.3 0.1-0.1 0.4-0.3 0.4-0.4 0l0.7-1c-0.1 0-0.1-0.1-0.2-0.2-0.1-0.3-0.1-0.6 0-0.9 0.3 0.2 0.4 0.4 0.2 0.7 0.3 0.4 0.3 0.9 0 1.3z"></path><path fill="#b0d6e7" d="m10.9 14.1c0.2 0.2 0.4 0.3 0.7 0.3-0.1 0.3 0 0.5 0.2 0.7 0-0.2 0.1-0.3 0.2-0.3v0.2c0.1 1 0.4 1.8 1.1 2.5l0-0.3c-0.1-0.5-0.3-0.9-0.5-1.4 0.1 0 0.1 0.1 0.1 0.2 0.2 0.1 0.3 0.2 0.4 0.4 0.1-0.2 0.2-0.1 0.3 0.1 0.1-0.1 0.2-0.1 0.2 0.2 0.5-0.1 0.7 0 0.7 0.5-1.5 0.5-1.5 0.7 0 0.6v0.4c-0.1 0.4-0.3 0.8-0.6 1.1 0.4 0 0.7 0.1 1 0.2h-1.8v2.6c-0.2-0.1-0.2-0.2-0.2-0.4 0.1-0.7 0-1.4-0.1-2.1-1.9-1.2-3.3-2.8-4.2-4.9 0-0.3 0-0.5 0.2-0.7 0.4-0.4 0.9-0.6 1.5-0.5-0.2 0.4-0.1 0.8 0.3 1.1 0.1-0.3 0.3-0.4 0.5-0.5z"></path><path fill="#efb94e" d="m17.6 14.6c0 0 0 0.1-0.1 0.1-0.1-0.4-0.3-0.7-0.6-1 0.2-0.2 0.4-0.3 0.7-0.3v1.2z"></path><path fill="#fccf4f" d="m6.1 13.7c-0.3 0.2-0.6 0.5-0.8 0.8 0.1 0.2 0.1 0.5 0.1 0.8-0.3 0-0.5-0.1-0.8-0.3-0.2 0.2-0.5 0.3-0.8 0.5 0-0.3 0-0.7 0-1.1-0.2-0.3-0.4-0.4-0.8-0.4 0.3-0.2 0.7-0.4 1.1-0.6 0.2-0.3 0.3-0.5 0.4-0.8 0.1 0.3 0.2 0.6 0.4 0.8 0.4 0.1 0.8 0.2 1.2 0.3z"></path><path fill="#2e8ebe" d="m11 12.4c0 0.4 0 0.7 0.1 1 0.3-0.7 0.5-0.7 0.5 0.2 0.3 0 0.6 0 0.9-0.2 0 0.7-0.3 1-0.9 1-0.3 0-0.5-0.1-0.7-0.3 0.1 0 0.1 0 0.1 0-0.2-0.3-0.3-0.5-0.4-0.8-0.1 0.1-0.3 0.1-0.4 0 0.2-0.2 0.3-0.3 0.3-0.6 0.1 0.3 0.2 0.3 0.4 0.1-0.2-0.2-0.2-0.5-0.1-0.8 0.1 0.2 0.1 0.3 0.2 0.4z"></path><path fill="#f1b63e" d="m16.2 14.7c0.4 0 0.7 0.1 1 0.2-0.3 0.2-0.7 0.3-1.1 0.4 0-0.2 0-0.4 0.1-0.6z"></path><path fill="#dc9323" d="m34.5 12.7c0.6 1.8 0.8 3.6 0.7 5.5-0.5 0.1-0.8 0.3-0.8 0.9 0.1-2.2-0.1-4.3-0.7-6.4 0.3-0.1 0.6-0.1 0.8 0z"></path><path fill="#fde595" d="m3 8.8l-0.8 2c-1 1.8-1.4 3.8-1.4 5.9 0.2-0.2 0.4-0.3 0.7-0.3v1c-0.3 0-0.5 0.1-0.7 0.2l-0.1-0.1c0-0.5-0.1-1-0.2-1.4 0.3-2.7 1.1-5.1 2.5-7.3z"></path><path fill="#2e91c0" d="m14.4 14.6c0 0.4 0.3 0.6 0.7 0.7-0.1 0.3-0.3 0.4-0.5 0.4 0-0.4-0.1-0.5-0.3-0.3-0.1-0.2-0.1-0.4-0.2-0.6 0.1-0.1 0.2-0.2 0.3-0.2z"></path><path fill="#a0d0e7" d="m8.4 14.7c0.9 2.1 2.3 3.7 4.2 4.9 0.1 0.7 0.2 1.4 0.1 2.1-0.2 0-0.4-0.1-0.5-0.4-0.2 0.3-0.4 0.3-0.6 0.1 0.4-0.1 0.4-0.3 0.1-0.5-0.1 0.2-0.2 0.3-0.4 0.2-0.8-0.5-1.5-1.1-2.1-1.8-0.1-0.2-0.3-0.4-0.6-0.5-0.1 0.1-0.2 0.2-0.4 0.3-0.2-0.1-0.3-0.2-0.3-0.5-0.4-1.4-0.2-2.7 0.5-3.9z"></path><path fill="#e29b25" d="m6.1 13.7c0 0.1 0 0.3 0 0.4 0.3-0.2 0.6-0.3 0.9-0.4 0.1 0.1 0.2 0.1 0.2 0.2-0.2 0.9-0.5 1.7-0.7 2.6 0.1-0.1 0-0.2-0.1-0.3-0.7 0.2-1.3 0.4-2 0.7-0.2-0.2-0.5-0.4-0.7-0.7-0.1 0.4-0.1 0.7-0.3 1-0.2 0-0.5 0-0.7 0-0.3 0.2-0.6 0.3-0.9 0.4-0.1-1.2 0-2.3 0.4-3.5 0.1 0.4 0.2 0.4 0.3 0l0.5 0.2c0-0.1 0-0.2 0-0.3 0.4 0 0.6 0.1 0.8 0.4 0 0.4 0 0.8 0 1.1 0.3-0.2 0.6-0.3 0.8-0.5 0.3 0.2 0.5 0.3 0.8 0.3 0-0.3 0-0.6-0.1-0.8 0.2-0.3 0.5-0.6 0.8-0.8z"></path><path fill="#e59e25" d="m33.5 13.1c0.5 1.6 0.7 3.1 0.7 4.7-0.1 0.1-0.2 0.1-0.3 0-0.2 0.3-0.4 0.3-0.6 0.3-0.1 0.2 0 0.4 0.1 0.6-0.3 0.1-0.7 0.1-1-0.1-0.3 0.3-0.6 0.6-0.9 0.9 0-0.3-0.1-0.5-0.2-0.7-0.2 0.1-0.3 0.1-0.5 0-0.1 0.1-0.2 0.2-0.3 0.4-0.2-0.3-0.4-0.3-0.5 0l-0.2-0.1c-0.2 0.1-0.4 0.4-0.5 0.7 0.1-0.9 0.2-1.7 0.2-2.6-0.2-0.5-0.2-1 0-1.5 0.4-0.2 0.9-0.3 1.4-0.4 0.3 0 0.5 0.2 0.5 0.5l0.6-0.8c0.4-0.1 0.7-0.2 1.1-0.2-0.6-0.1-1.2-0.1-1.7 0-0.5-0.1-0.9-0.3-1.4-0.3 0.7-0.4 0.9-1 0.7-1.8 0.2 0.2 0.5 0.4 0.9 0.6 0.3-0.2 0.6-0.3 1-0.4-0.3 0.4-0.3 0.7-0.3 1.1 0.2-0.6 0.6-0.9 1.2-0.9z"></path><path fill="#f9c848" d="m9.1 12c-1 1.6-1.5 3.3-1.6 5.1-0.1 0.5-0.2 1.1-0.3 1.7-0.2-0.2-0.3-0.1-0.2 0.3-0.3-2.5 0.2-4.9 1.5-7.1 0.2-0.1 0.4-0.1 0.6 0z"></path><path fill="#3c7ead" d="m16.9 15.8c-0.4-0.2-0.8-0.2-1.2 0-0.3-0.1-0.4-0.2-0.4-0.5 0.5 0.1 1 0.1 1.5 0.2 0.1 0.1 0.2 0.2 0.1 0.3z"></path><path fill="#edb137" d="m17.6 15.3v0.8c0 0.5 0 1 0 1.5l-1.4 1.4c-0.2 0.2-0.5 0.2-0.8 0.1-0.4-0.3-0.8-0.6-1.1-0.9v-1c0.4-0.5 0.9-1 1.4-1.4 0.4-0.2 0.8-0.2 1.2 0l0.7-0.5z"></path><path fill="#b8ddeb" d="m22.4 7.8c0.7 0.4 1.4 0.8 2.1 1.1l0.5 0.6c-0.3 0.1-0.6 0.1-0.9 0.1 0 0.4-0.1 0.8-0.3 1.2-0.2 0.2-0.1 0.4 0.2 0.5-0.2 0-0.2 0.1-0.3 0.2h-0.1c-0.1-0.9-0.2-0.9-0.5-0.2v-0.5c-0.3-0.1-0.6 0-0.9 0.1l-0.4-0.3c-0.4 0.6-0.2 0.9 0.5 0.9-0.5 0.5-0.7 1.2-0.5 2.1l1-1c0.1 0.1 0.1 0.3 0 0.4-1.2 1.1-2.4 2.2-3.5 3.4-0.1 0.1-0.1 0.2-0.1 0.3-0.9-0.5-1.1-0.3-0.6 0.5 0.1 0.2 0.2 0.2 0.3 0v0.9c-0.2 0.1-0.3 0.2-0.4 0.4-0.4-0.8-0.7-1.6-0.9-2.4v-0.8l-0.1-0.6c0.1 0 0.1-0.1 0.1-0.1 0.3-0.2 0.4-0.2 0.6 0 0 0.3 0 0.6 0.1 0.9 0.3-0.5 0.7-0.7 1.3-0.4 0.7-0.2 1.3-0.6 1.8-1.2 0.4-0.9 0.2-1.5-0.5-2 0-0.2 0-0.3 0.1-0.4 0-0.1-0.1-0.2-0.3-0.2 0.2-0.1 0.3-0.3 0.3-0.5-0.2-0.1-0.4 0-0.5 0.2h-0.2v-0.2c0.3-0.4 0.5-0.7 0.7-1 0-0.1-0.1-0.2-0.1-0.2 0.3-0.5 0.5-1.1 0.4-1.7 0.4 0 0.8-0.1 1.1-0.1z"></path><path fill="#eabe66" d="m23.6 11.5h-0.7c-0.1-0.2 0-0.4 0-0.6 0.1 0.2 0.1 0.3 0.2 0.4 0.3-0.7 0.4-0.7 0.5 0.2z"></path><path fill="#f0b849" d="m18.8 15.8c0.2 0 0.4 0 0.5 0.2l-0.2 0.1c-0.2 0-0.3-0.1-0.3-0.3z"></path><path fill="#0f4c8b" d="m25.2 13.7c0.1-0.2 0.3-0.3 0.5-0.5-0.2-0.2-0.1-0.3 0.2-0.3 0.1 0.1 0.1 0.2 0.2 0.2l-0.7 1c0.1 0.4 0.3 0.4 0.4 0 0.1 0 0.2 0.1 0.2 0.2 0.2 0.4 0.2 0.8 0.1 1.2 0.2 0.1 0.3 0.3 0.3 0.6 0.2 0.7 0.2 1.5 0.2 2.3-0.4 0-0.8-0.1-1.2-0.2-0.3 0.3-0.6 0.3-1 0.2l0.4-0.4c-0.1-0.1-0.2-0.1-0.3 0.1l-0.2-0.9c0 0.4-0.1 0.9 0 1.3-1.5 0-1.5 0.1 0 0.1-0.3 0.5-0.7 0.8-1.2 0.9l0.2 0.8c0.2 0 0.5 0 0.7 0.2 0.2 0.2 0.2 0.4 0 0.7-0.4-0.2-0.9-0.4-1.3-0.5v-0.2c0-0.1 0.1-0.2 0.2-0.2-0.2-0.1-0.3-0.2-0.3-0.4h0.1c0.1-0.2 0.2-0.3 0.2-0.6h-0.5c0.1-0.4 0-0.6-0.4-0.7-0.2-0.3-0.2-0.7 0.1-1 0.2 0.3 0.5 0.5 0.8 0.6 0.1-0.1 0.2-0.1 0.3-0.3 0-0.6-0.1-1.1-0.3-1.7 1.7-0.2 2.1-1 1.4-2.5 0-0.1 0.1-0.2 0.2-0.3-0.7 0-0.8-0.3-0.3-0.7 0.4 0.3 0.7 0.7 0.9 1.2 0.1-0.1 0.1-0.1 0.1-0.2z"></path><path fill="#074888" d="m21.7 18.5c0 0.1 0 0.1-0.1 0.1-0.2-0.7-0.3-0.7-0.3 0-0.7 0.1-1.4 0-2.1-0.1-0.1-0.2-0.2-0.3-0.3-0.4v-0.9c0-0.1 0.1-0.1 0.2-0.1 0.4-0.5 0.9-0.9 1.5-1.1 0.4 0.3 0.5 0.6 0.4 1.1 0.2 0 0.4 0 0.5-0.2 0.2 0.5 0.3 1.1 0.2 1.6z"></path><path fill="#286ea7" d="m12 15c0.3 0.2 0.5 0.5 0.6 0.8 0.2 0.5 0.4 0.9 0.5 1.4l0 0.3c-0.7-0.7-1-1.5-1.1-2.5z"></path><path fill="#f1b63e" d="m19.2 16.7c0 0.1-0.1 0.3-0.1 0.4-0.1 0-0.2 0-0.2 0.1-0.1 0.2-0.2 0.2-0.3 0-0.5-0.8-0.3-1 0.6-0.5z"></path><path fill="#295087" d="m16.1 16.4c0.2 0.1 0.4 0.2 0.4 0.5 0.2 0 0.3 0.1 0.4 0-0.1 0.6-0.5 1-0.9 1.4-0.7 0.1-1-0.2-1-0.8 0.4-0.3 0.8-0.7 1.1-1.1z"></path><path fill="#f9e7ae" d="m4.4 16.9c0.4 0 0.8 0 1.2 0-0.7 0.5-0.8 1.1-0.2 1.7l-0.2 0.2c-0.3-0.2-0.6-0.3-0.9-0.2-0.6 1-0.9 0.9-0.9-0.4-0.3-0.1-0.6-0.2-0.9-0.3 0.3-0.2 0.6-0.5 0.9-0.7 0.2-0.3 0.2-0.6 0.3-1 0.2 0.3 0.5 0.5 0.7 0.7z"></path><path fill="#29578f" d="m14.3 17.2v0.6c-1.5 0.1-1.5-0.1 0-0.6z"></path><path fill="#d98e23" d="m6.5 16.5c0 1.9 0.3 3.7 0.9 5.5-1.6 0.5-3.2 1-4.7 1.4-0.7-1.8-1-3.7-0.9-5.8 0.3-0.1 0.6-0.2 0.9-0.4 0.2 0 0.5 0 0.7 0-0.3 0.2-0.6 0.5-0.9 0.7 0.3 0.1 0.6 0.2 0.9 0.3 0 1.3 0.3 1.4 0.9 0.4 0.3-0.1 0.6 0 0.9 0.2l0.2-0.2c-0.6-0.6-0.5-1.2 0.2-1.7-0.4 0-0.8 0-1.2 0 0.7-0.3 1.3-0.5 2-0.7 0.1 0.1 0.2 0.2 0.1 0.3z"></path><path fill="#6a9cbf" d="m25.4 18.2c-0.4 0-0.5-0.2-0.3-0.6 0-0.1-0.1-0.1-0.2 0-0.3-0.3-0.3-0.6 0.1-0.9 0.1 0.1 0.1 0.3 0 0.5 0.4 0.3 0.5 0.6 0.4 1z"></path><path fill="#fdeeb8" d="m0.5 16.1c0.1 0.4 0.2 0.9 0.2 1.4l0.1 0.1c0.2-0.1 0.4-0.2 0.7-0.2 0 1 0 1.9 0.1 2.9 0 0.3-0.1 0.5-0.4 0.6-0.1 0.6-0.1 1.1-0.1 1.7-0.5-1.9-0.7-3.8-0.6-5.8v-0.7z"></path><path fill="#0f4b8a" d="m28.9 18.1v0.3c-0.1 2.2-0.9 4.2-2.3 6-0.1-0.1-0.1-0.2-0.2-0.3 0 0.2-0.1 0.3-0.2 0.4-0.1 0-0.1 0-0.1-0.1 0.4-0.8 0.6-1.7 0.5-2.7l-0.4 0.9c-0.5-0.2-0.5-0.5-0.1-0.8-0.4-0.2-0.7-0.1-0.9 0.3-0.3-0.1-0.5-0.1-0.7 0.2-0.3-0.2-0.4-0.5-0.4-0.9 0.3 0 0.6 0 0.8 0 0.1 0 0.3 0 0.3-0.2-0.3-0.1-0.6 0-0.9 0.1 0-0.4-0.1-0.8 0-1.3l0.2-1.2c0.7-0.2 1.4-0.3 2.1-0.3 0 0.3 0 0.7 0.1 1 0.1-0.4 0.1-0.8 0.1-1.1 0.7-0.1 1.4-0.2 2.1-0.3z"></path><path fill="#24689f" d="m25.8 14.1c0.1-0.1 0.1-0.1 0.3-0.1 0.1 0.4 0.2 0.8 0.3 1.3 0.2 0.1 0.4 0.1 0.7 0.2-0.2 0-0.4 0.1-0.6 0 0.2 0.9 0.3 1.8 0.3 2.7 0.5 0 0.9-0.1 1.4-0.1 0-0.8-0.1-1.6-0.1-2.4 0.2 0.7 0.3 1.5 0.2 2.2 0.2 0 0.4 0 0.6-0.1v0.3c-0.7 0.1-1.4 0.2-2.1 0.3 0 0.3 0 0.7-0.1 1.1-0.1-0.3-0.1-0.7-0.1-1-0.7 0-1.4 0.1-2.1 0.3l-0.2-0.2c-1.5 0-1.5-0.1 0-0.1-0.1-0.4 0-0.9 0-1.3l0.2 0.9c0.1-0.2 0.2-0.2 0.3-0.1l-0.4 0.4c0.4 0.1 0.7 0.1 1-0.2 0.4 0.1 0.8 0.2 1.2 0.2 0-0.8 0-1.6-0.2-2.3 0-0.3-0.1-0.5-0.3-0.6 0.1-0.4 0.1-0.8-0.1-1.2 0-0.1-0.1-0.2-0.2-0.2z"></path><path fill="#2d5d92" d="m17.6 16.1c0.2 0.8 0.5 1.6 0.9 2.4 0.1-0.2 0.2-0.3 0.4-0.4 0.1 0.1 0.2 0.2 0.3 0.4 0.7 0.1 1.4 0.2 2.1 0.1 0-0.7 0.1-0.7 0.3 0 0.1 0 0.1 0 0.1-0.1l0.3 0.1c0 0.3 0 0.5 0.1 0.7-0.4 0-0.8 0-1.2 0.2-0.2 0.2-0.2 0.4-0.2 0.7-0.2 0-0.4-0.1-0.5-0.3v-0.4h-2v1.1c-0.2 0.2-0.3 0.1-0.3-0.3-0.1 0.2-0.1 0.3-0.3 0.4 0 0-0.1 0-0.1-0.1 0.1-0.4 0-0.8-0.3-1.1-0.6 0-1.3 0-1.9 0-0.2 0.2-0.2 0.4-0.2 0.7-0.2 0-0.4-0.1-0.4-0.3 0.2-0.1 0.2-0.3 0-0.4-0.3-0.1-0.6-0.2-1-0.2 0.3-0.3 0.5-0.7 0.6-1.1 0.3 0.3 0.7 0.6 1.1 0.9 0.3 0.1 0.6 0.1 0.8-0.1l1.4-1.4c0-0.5 0-1 0-1.5z"></path><path fill="#99c9e1" d="m24.3 18.6l0.2 0.2-0.2 1.2c-0.2 0.2-0.3 0.3-0.3 0.5-0.2-0.2-0.5-0.2-0.7-0.2l-0.2-0.8c0.5-0.1 0.9-0.4 1.2-0.9z"></path><path fill="#a3cee4" d="m22 18.6c0.4 0.1 0.5 0.3 0.4 0.7h-0.3c-0.1-0.2-0.1-0.4-0.1-0.7z"></path><path fill="#f7b92d" d="m34.2 17.8v1.4l-0.2 1.3v-0.5c-0.6 0.1-1.1 0.3-1.5 0.6-0.2-0.1-0.3-0.2-0.5-0.1 0 0.1 0 0.2-0.1 0.4-0.2-0.3-0.4-0.7-0.5-1-0.2 0.3-0.3 0.6-0.4 0.8-0.7 0.2-1.4 0.4-2.1 0.7 0.2-0.5 0.3-1.1 0.4-1.6 0.1-0.3 0.3-0.6 0.5-0.7l0.2 0.1c0.1-0.3 0.3-0.3 0.5 0 0.1-0.2 0.2-0.3 0.3-0.4 0.2 0.1 0.3 0.1 0.5 0 0.1 0.2 0.2 0.4 0.2 0.7 0.3-0.3 0.6-0.6 0.9-0.9 0.3 0.2 0.7 0.2 1 0.1-0.1-0.2-0.2-0.4-0.1-0.6 0.2 0 0.4 0 0.6-0.3 0.1 0.1 0.2 0.1 0.3 0z"></path><path fill="#ad9f78" d="m20.9 19.5c0.4-0.2 0.8-0.2 1.2-0.2h0.8c0 0.3-0.1 0.4-0.2 0.6v-0.4h-1.8z"></path><path fill="#ecb036" d="m14.7 19.5c0.2 0.1 0.2 0.3 0 0.4h-1.3v0.6h1.3v0.5h-1.1c0 0.5 0 0.8-0.3 1.1h-0.4v-2.6h1.8z"></path><path fill="#eeb134" d="m15.3 19.5c0.6 0 1.3 0 1.9 0 0.3 0.3 0.4 0.7 0.3 1.1-0.2 0.1-0.3 0.2-0.4 0.4 0.2 0.4 0.4 0.7 0.7 1.1-0.3 0.1-0.6 0.1-0.9 0-0.2-0.5-0.5-0.8-0.9-0.9v0.9h-0.7v-2.6z"></path><path fill="#ebb038" d="m20.2 19.9h-1.3v0.6h1.3c0 0.1 0 0.3-0.2 0.5-0.3 0-0.7 0-1.1 0v0.6h1.3v0.5h-2v-2.6h2v0.4z"></path><path fill="#e8ae39" d="m20.9 19.5h1.8v0.4h-1.3v0.6h1.3v0.2c-0.3 0.3-0.8 0.4-1.3 0.3 0 0.2 0.1 0.4 0.2 0.6 0.3 0.1 0.7 0.2 1.1 0.1v0.4h-2v-1.9c0-0.3 0-0.5 0.2-0.7z"></path><path fill="#f9be34" d="m35.2 18.2c0 1.4-0.1 2.7-0.4 4.1-0.3 0.5-0.5 1-0.6 1.5-0.2 0-0.4 0.1-0.7 0.2l-0.1-0.3c0.5-1.3 0.8-2.7 1-4.1v-0.5c0-0.6 0.3-0.8 0.8-0.9z"></path><path fill="#7eb1cf" d="m24.5 19.8l0.5 0.2c-0.6 1-0.7 1-0.5-0.2z"></path><path fill="#8fabb6" d="m22.6 19.9c0 0.2 0.1 0.3 0.3 0.4-0.1 0-0.2 0.1-0.2 0.2h-1.3v-0.6h1.2z"></path><path fill="#89c1de" d="m25.9 19.9c0.2 0.1 0.4 0.2 0.4 0.4 0.3-0.3 0.6-0.2 0.8 0.2 0.1 0.3 0.1 0.6 0.3 0.9-0.4-0.2-0.7-0.3-1-0.3 0-0.1 0.1-0.2 0.1-0.3-0.3-0.2-0.5-0.5-0.6-0.9z"></path><path fill="#fac43b" d="m34 20.5c0 0.6-0.1 1.2-0.3 1.8-0.5 0.1-0.9 0.2-1.2 0.6-0.7-0.6-1.3-0.6-1.8 0.1-0.1-0.1-0.2-0.2-0.3-0.3-0.3 0.1-0.6 0.2-0.9 0.3l-0.1-0.1c-0.3 0.2-0.6 0.3-0.9 0.4-0.1-0.1-0.2-0.2-0.2-0.3 0.3-0.5 0.5-1 0.6-1.6 0.7-0.3 1.4-0.5 2.1-0.7 0.1-0.2 0.2-0.5 0.4-0.8 0.1 0.3 0.3 0.7 0.5 1 0.1-0.2 0.1-0.3 0.1-0.4 0.2-0.1 0.3 0 0.5 0.1 0.4-0.3 0.9-0.5 1.5-0.6v0.5z"></path><path fill="#fada7c" d="m5.4 20.7c-0.6 0.4-1.3 0.7-2 1 0.2 0 0.3 0.1 0.3 0.2-0.2 0-0.4 0-0.7-0.1 0.2-0.3 0.5-0.5 0.8-0.6 0-0.4 0-0.8 0.1-1.2 0.5 0.6 1.1 0.6 1.7 0 0 0.3-0.1 0.5-0.2 0.7z"></path><path fill="#cd9431" d="m0.5 16.8c-0.1 2 0.1 3.9 0.6 5.8 0.2 0.8 0.4 1.5 0.8 2.2h-0.3c-0.8-1.8-1.2-3.6-1.4-5.6l0.3-2.4z" opacity=".576"></path><path fill="#2073b4" d="m9.2 19.3c0 0.3 0 0.5 0.1 0.7 0.5 0.8 0.8 1.7 1 2.6 0.5 0.8 1.1 1.6 1.7 2.4 0.5 0.7 1 1.4 1.7 1.9h-0.3c-0.6-0.4-1.2-0.9-1.7-1.5-0.1 0-0.2 0.1-0.2 0.1-0.4-0.2-0.8-0.3-1.2-0.4-1.2-1.3-2.1-2.9-2.5-4.6 0.4-0.4 0.5-0.9 0.4-1.4 0.2-0.1 0.3-0.2 0.4-0.3 0.3 0.1 0.5 0.3 0.6 0.5z"></path><path fill="#fdd153" d="m5.4 20.7c0 0.5 0.2 0.9 0.6 1.1-0.4 0.1-0.7 0.2-1 0.3-0.2 0.2-0.3 0.5-0.5 0.8-0.2-0.4-0.3-0.7-0.4-1h-0.4c0-0.1-0.1-0.2-0.3-0.2 0.7-0.3 1.4-0.6 2-1z"></path><path fill="#8ec7e2" d="m9.2 19.3c0.6 0.7 1.3 1.3 2.1 1.8 0.2 0.1 0.3 0 0.4-0.2 0.3 0.2 0.3 0.4-0.1 0.5 0.2 0.2 0.4 0.2 0.6-0.1 0.1 0.3 0.3 0.4 0.5 0.4 0 0.2 0 0.3 0.2 0.4h0.4c-0.2 0.3-0.4 0.6-0.6 0.9 0.1 0.1 0.2 0.2 0.3 0.3-0.1 0.5-0.1 1-0.2 1.5-0.2 0.1-0.5 0.2-0.8 0.2-0.6-0.8-1.2-1.6-1.7-2.4-0.2-0.9-0.5-1.8-1-2.6-0.1-0.2-0.1-0.4-0.1-0.7z"></path><path fill="#237fb1" d="m15.3 19.5v2.6h0.7v-0.9c0.4 0.1 0.7 0.4 0.9 0.9 0.3 0.1 0.6 0.1 0.9 0-0.3-0.4-0.5-0.7-0.7-1.1 0.1-0.2 0.2-0.3 0.4-0.4 0 0.1 0.1 0.1 0.1 0.1 0.2-0.1 0.2-0.2 0.3-0.4 0 0.4 0.1 0.5 0.3 0.3v1.5h2v-0.5h-1.3v-0.6c0.4 0 0.8 0 1.1 0 0.2-0.2 0.2-0.4 0.2-0.5h-1.3v-0.6h1.3c0.1 0.2 0.3 0.3 0.5 0.3v1.9h2c0.1-0.1 0.2-0.3 0.2-0.5h-1.3c-0.1-0.2-0.2-0.4-0.2-0.6 0.5 0.1 1 0 1.3-0.3 0.4 0.1 0.9 0.3 1.3 0.5 0.2-0.3 0.2-0.5 0-0.7 0-0.2 0.1-0.3 0.3-0.5-0.1 0.5 0 0.9 0 1.3 0.3-0.1 0.6-0.2 0.9-0.1 0 0.2-0.2 0.2-0.3 0.2-0.2 0-0.5 0-0.8 0 0 0.4 0.1 0.7 0.4 0.9-0.4 0.5-0.9 0.9-1.5 1.3-0.4-0.3-0.8-0.6-1.3-0.8-0.1-0.1-0.1-0.2-0.2-0.4-0.1 0.3-0.2 0.6-0.3 0.9l-0.1-1c0 0.1-0.1 0.3-0.2 0.4-0.6-0.2-1.2-0.3-1.8-0.4-0.3 0-0.5 0.2-0.6 0.4-0.1 0.1-0.2 0.3-0.2 0.4-0.2-0.4-0.3-0.5-0.6-0.1-0.4-0.4-0.7-0.4-1 0.1-0.1-0.5-0.3-0.5-0.5 0-0.1-0.2-0.2-0.3-0.4-0.4-0.1 0.2-0.2 0.4-0.2 0.7-0.2-0.2-0.4-0.2-0.6 0l-0.1-0.3c-0.2 0.6-0.3 0.6-0.3 0 0-0.5-0.1-0.9-0.3-1.4-0.1 0.3-0.2 0.6-0.4 0.7-0.3 0.4-0.5 0.7-0.7 1.2 0-0.2-0.1-0.3-0.2-0.3-0.1-0.1-0.2-0.2-0.3-0.3 0.2-0.3 0.4-0.6 0.6-0.9 0.3-0.3 0.3-0.6 0.3-1.1h1.1v-0.5h-1.3v-0.6h1.3c0 0.2 0.2 0.3 0.4 0.3 0-0.3 0-0.5 0.2-0.7z"></path><path fill="#236a9f" d="m16 19.9c0.2 0 0.4 0 0.7 0.1 0.2 0.2 0.2 0.3 0 0.5-0.3 0.1-0.5 0.1-0.7 0.1v-0.7z"></path><path fill="#a4916b" d="m21.6 21.6h1.3c0 0.2-0.1 0.4-0.2 0.5v-0.4c-0.4 0.1-0.8 0-1.1-0.1z"></path><path fill="#86c3e0" d="m26.1 24.4c-0.4 0.4-0.9 0.8-1.4 1.1l-0.3 0c0.2-0.4 0.1-0.7-0.4-0.8-0.2 0-0.5 0.1-0.7 0.3-0.2-0.1-0.4 0-0.5 0.1 0-0.5 0.1-1 0.2-1.5 0.6-0.4 1.1-0.8 1.5-1.3 0.2-0.3 0.4-0.3 0.7-0.2 0.2-0.4 0.5-0.5 0.9-0.3-0.4 0.3-0.4 0.6 0.1 0.8l0.4-0.9c0.1 1-0.1 1.9-0.5 2.7z"></path><path fill="#8ec8e3" d="m14.6 23.1c-0.2 0.2-0.2 0.4-0.2 0.6-0.2 0-0.4-0.1-0.5-0.3 0-0.3-0.1-0.6 0-1 0.2-0.1 0.3-0.4 0.4-0.7 0.2 0.5 0.3 0.9 0.3 1.4z"></path><path fill="#fed357" d="m33.7 22.3c-0.2 0.5-0.4 1.1-0.6 1.7-0.7 0.1-1.3 0.3-2 0.5 0 0-0.1-0.1-0.2-0.1-0.2-0.4-0.3-0.7-0.4-1.1 0 0.2-0.2 0.3-0.3 0.4-0.5 0.3-1 0.3-1.6 0.3v0.4c-0.4 0-0.8 0.1-1.2 0.3 0.3-0.6 0.6-1.1 0.9-1.7 0 0.1 0.1 0.2 0.2 0.3 0.3-0.1 0.6-0.2 0.9-0.4l0.1 0.1c0.3-0.1 0.6-0.2 0.9-0.3 0.1 0.1 0.2 0.2 0.3 0.3 0.5-0.7 1.1-0.7 1.8-0.1 0.3-0.4 0.7-0.5 1.2-0.6z"></path><path fill="#eeba3d" d="m29.2 18.6c-0.2 2.5-1 4.6-2.6 6.5 0-0.2 0-0.3-0.2-0.3l0.2-0.4c1.4-1.8 2.2-3.8 2.3-6 0.1-0.4 0.2-0.8 0.2-1.2 0.1 0.5 0.1 1 0.1 1.4z"></path><path fill="#dc9932" d="m7.5 17.1c0 1.1 0.1 2.3 0.3 3.4 0.4 1.7 1.3 3.3 2.5 4.6 0.8 0.8 1.6 1.5 2.6 2l0.8 0.5c-0.5 0-0.7 0.2-0.6 0.6-1-0.4-2-1-2.8-1.8-0.9-0.8-1.6-1.8-2.1-2.8-0.7-1.5-1.1-3-1.2-4.5-0.1-0.4 0-0.5 0.2-0.3 0.1-0.6 0.2-1.2 0.3-1.7z"></path><path fill="#de9a29" d="m31.1 24.5c0.3 0.1 0.5 0.2 0.8 0.3-0.4 0.1-0.7 0.3-1 0.4 0 0.4-0.1 0.8-0.2 1.2l-0.8-0.7c-0.3 0.1-0.6 0.1-0.9 0.1 0.5-0.6 0.4-1.1-0.2-1.5 0.3-0.2 0.7-0.2 1.1-0.1 0.2-0.1 0.3-0.3 0.3-0.5 0.1-0.1 0.3-0.2 0.3-0.4 0.1 0.4 0.2 0.7 0.4 1.1 0.1 0 0.2 0.1 0.2 0.1z"></path><path fill="#9f6114" d="m6 6.5c0.1 0 0.1 0.1 0.1 0.2l-0.4 0.5c-0.9 1-1.6 2.1-2.1 3.3-0.7 1.1-1.2 2.3-1.4 3.6-0.4 1.2-0.5 2.3-0.4 3.5-0.1 2.1 0.2 4 0.9 5.8 0.4 1.2 0.9 2.3 1.6 3.2 0.5 1.1 1.2 2 2.1 2.7l0.4 0.6c-0.4-0.2-0.7-0.5-1-0.9-0.8-0.9-1.6-1.9-2.2-2.9-0.6-1.3-1.1-2.5-1.6-3.8-0.1-0.7-0.2-1.3-0.4-2-0.1-1-0.1-1.9-0.1-2.9v-1c0.2-2.1 0.8-4.1 1.7-6.1 0.6-1.1 1.3-2.1 2.1-3.2l0.7-0.6z"></path><path fill="#f4b42d" d="m7.9 23.3c0.1 0.1 0.2 0.2 0.3 0.3 0.5 1 1.2 2 2.1 2.8-0.5 0-1 0.2-1.5 0.4-0.1-0.2-0.2-0.5-0.2-0.7-0.2 0.2-0.5 0.5-0.7 0.8l-1.1 0.1c0.2 0.3 0.4 0.5 0.6 0.8-0.2 0.2-0.2 0.4-0.3 0.7 0 0.1 0.1 0.2 0.3 0.3-0.4 0.1-0.7 0.3-1 0.5-0.9-0.7-1.6-1.6-2.1-2.7 0.2-0.1 0.3-0.2 0.5-0.4l0.1 0.2c0.4-0.5 0.9-0.5 1.4 0 0.2-0.3 0.3-0.7 0.3-1 0.4-0.2 0.7-0.3 1.1-0.5l-0.9-0.2c-0.7 0.3-1.4 0.6-2.1 0.8l-0.1 0c0.2-0.4 0.4-0.7 0.7-1-0.2-0.3-0.3-0.6-0.6-0.9 0.3 0 0.7 0.1 1 0.2 0.3-0.1 0.6-0.3 0.8-0.5 0 0.3 0.1 0.7 0.1 1.1 0.2-0.2 0.3-0.5 0.2-0.8 0.4-0.1 0.8-0.2 1.1-0.3z"></path><path fill="#189fcb" d="m23 23.6c-0.1 0.5-0.2 1-0.2 1.5 0.1-0.1 0.3-0.2 0.5-0.1 0.2 0.2 0.4 0.5 0.5 0.8 0.3-0.2 0.5-0.2 0.7 0-0.2 0.3-0.1 0.4 0.3 0.4-0.6 0.6-1.3 1-2.1 1.3 0.1-0.3 0.2-0.5 0.3-0.8 0-0.1-0.1-0.2-0.1-0.2-0.2-0.3-0.5-0.5-0.8-0.7 0.3-0.2 0.4-0.4 0.2-0.7-0.1 0.1-0.2 0.3-0.2 0.4 0-0.3-0.1-0.6-0.2-0.8-0.1-0.1-0.3-0.2-0.5-0.2-0.2 0-0.4 0.1-0.5 0.3 0-0.2 0-0.4-0.2-0.5-0.1 0.1-0.1 0.2-0.1 0.4l-0.3 0.1c-0.1-0.2-0.3-0.3-0.5-0.3h-0.5c-0.3 0-0.5 0.1-0.7 0.3l-0.2-0.1c-0.2 0-0.3 0-0.5-0.1l0.6-0.1c-0.3-0.2-0.5-0.3-0.9-0.2v0.5c-0.1 0.2-0.4 0.3-0.7 0.3 0.6-0.2 0.6-0.3 0-0.5 0.2 0 0.4-0.1 0.5-0.2-0.3-0.1-0.6-0.2-0.9-0.1 0.1 0.3 0 0.6-0.1 0.9-0.1-0.2-0.1-0.5-0.1-0.8-0.3-0.1-0.6-0.2-0.9-0.1h-1v0.7c-0.1-0.1-0.2 0-0.3 0.1 0.2 0.5 0.1 0.6-0.2 0.1-0.9 0.5-0.9 1 0 1.4 0 0.3-0.1 0.4-0.2 0.3-0.7-0.5-1.2-1.2-1.7-1.9 0.3 0 0.6-0.1 0.8-0.2 0.1-0.5 0.1-1 0.2-1.5 0.1 0 0.2 0.1 0.2 0.3 0.2-0.5 0.4-0.8 0.7-1.2-0.1 0.4 0 0.7 0 1 0.1 0.2 0.3 0.3 0.5 0.3 0-0.2 0-0.4 0.2-0.6 0 0.6 0.1 0.6 0.3 0l0.1 0.3c0.2-0.2 0.4-0.2 0.6 0 0-0.3 0.1-0.5 0.2-0.7l0.2 0.9h0.4c0-0.2 0-0.3 0.1-0.5 0 0.2 0.1 0.4 0.3 0.5 0.2-0.3 0.3-0.5 0.4-0.7 0.1 0.2 0.3 0.4 0.4 0.7 0.3-0.6 0.4-0.6 0.5 0h0.4c0.1-0.4 0.1-0.6 0-0.9 0.1-0.2 0.3-0.4 0.6-0.4 0.6 0.1 1.2 0.2 1.8 0.4 0.1-0.1 0.2-0.3 0.2-0.4l0.1 1c0.1-0.3 0.2-0.6 0.3-0.9 0.1 0.2 0.1 0.3 0.2 0.4 0.5 0.2 0.9 0.5 1.3 0.8z"></path><path fill="#cbe6f1" d="m20.9 24.8c0 0.2 0 0.4-0.2 0.6-0.1-0.2-0.1-0.5-0.1-0.7 0-0.2 0-0.3 0.1-0.4 0.2 0.1 0.2 0.3 0.2 0.5z"></path><path fill="#e2f0f7" d="m21.4 24.5c0.2 0 0.4 0.1 0.5 0.2 0 0.8-0.2 0.9-0.5 0.1-0.1 0.2-0.1 0.4-0.2 0.6-0.1-0.4 0-0.6 0.2-0.9z"></path><path fill="#e8f3f9" d="m18.4 24.7c-0.1 0.2-0.3 0.3-0.5 0.4 0.2 0.1 0.4 0.2 0.6 0.2-0.3 0.1-0.6 0.1-0.9 0.1v-1.1c0.4-0.1 0.6 0 0.9 0.2l-0.6 0.1c0.2 0.1 0.3 0.1 0.5 0.1z"></path><path fill="#eff6fa" d="m17.4 24.4c-0.1 0.1-0.3 0.2-0.5 0.2 0.6 0.2 0.6 0.3 0 0.5 0.2 0.1 0.3 0.2 0.5 0.2-0.3 0.1-0.5 0.1-0.7 0.1v-1h0.7z"></path><path fill="#e4f2f8" d="m15.3 24.3c-0.1 0.2-0.3 0.3-0.6 0.3 0.7 0.2 0.7 0.3 0 0.4-0.1 0.5-0.2 0.5-0.3 0v-0.7h0.9z"></path><path fill="#e9f3f8" d="m18.8 22.7c0.2 0.1 0.3 0.2 0.3 0.4 0.2-0.5 0.4-0.5 0.6 0 0-0.1 0.1-0.3 0.3-0.4 0.1 0.3 0 0.5-0.1 0.7-0.3 0.2-0.4 0.1-0.5-0.3-0.1 0.2-0.1 0.3-0.1 0.5h-0.4l-0.1-0.9z"></path><path fill="#e8f3f8" d="m15.8 22.7c0.2 0.1 0.3 0.2 0.4 0.4 0.2-0.5 0.4-0.5 0.5 0 0.3-0.5 0.6-0.5 1-0.1 0.3-0.4 0.4-0.3 0.6 0.1 0-0.1 0.1-0.3 0.2-0.4 0.1 0.3 0.1 0.5 0 0.9h-0.4c-0.1-0.6-0.2-0.6-0.5 0-0.1-0.3-0.3-0.5-0.4-0.7-0.1 0.2-0.2 0.4-0.4 0.7-0.2-0.1-0.3-0.3-0.3-0.5-0.1 0.2-0.1 0.3-0.1 0.5h-0.4l-0.2-0.9z"></path><path fill="#e69f23" d="m7.4 22c0.1 0.4 0.3 0.9 0.5 1.3-0.3 0.1-0.7 0.2-1.1 0.3 0.1 0.3 0 0.6-0.2 0.8 0-0.4-0.1-0.8-0.1-1.1-0.2 0.2-0.5 0.4-0.8 0.5-0.3-0.1-0.7-0.2-1-0.2 0.3 0.3 0.4 0.6 0.6 0.9-0.3 0.3-0.5 0.6-0.7 1l0.1 0c0.7-0.2 1.4-0.5 2.1-0.8l0.9 0.2c-0.4 0.2-0.7 0.3-1.1 0.5 0 0.3-0.1 0.7-0.3 1-0.5-0.5-1-0.5-1.4 0l-0.1-0.2c-0.2 0.2-0.3 0.3-0.5 0.4-0.7-0.9-1.2-2-1.6-3.2 1.5-0.4 3.1-0.9 4.7-1.4z"></path><path fill="#f5b832" d="m2 22.3c0.5 1.3 1 2.5 1.6 3.8-0.1 0.2-0.3 0.5-0.4 0.7-0.7-1.1-1.2-2.2-1.7-3.4 0-0.2 0-0.5 0-0.7 0.3-0.1 0.4-0.2 0.5-0.4z"></path><path fill="#fcdc7a" d="m30.2 23.7c0 0.2-0.1 0.4-0.3 0.5-0.4-0.1-0.8-0.1-1.1 0.1 0.6 0.4 0.7 0.9 0.2 1.5-1.3 0.6-2.6 1-4 1.3 0.8-0.8 1.6-1.6 2.4-2.4 0.4-0.2 0.8-0.3 1.2-0.3v-0.4c0.6 0 1.1 0 1.6-0.3z"></path><path fill="#44bcde" d="m15.3 24.3h0.1c0 0.3 0 0.7 0.1 1.1 0.3-0.4 0.5-0.4 0.7 0 0.1 0 0.2-0.1 0.2-0.2 0.1-0.3 0.2-0.6 0.1-0.9 0.3-0.1 0.6 0 0.9 0.1h-0.7v1c0.2 0 0.4 0 0.7-0.1-0.2 0-0.3-0.1-0.5-0.2 0.3 0 0.6-0.1 0.7-0.3v0.6c0.3 0 0.6 0 0.9-0.1-0.2 0-0.4-0.1-0.6-0.2 0.2-0.1 0.4-0.2 0.5-0.4l0.2 0.1c0 0.5 0.3 0.7 0.7 0.5-0.1-0.1-0.2-0.1-0.4-0.1v-0.4c0.3 0.1 0.4 0 0.4-0.3h0.5c-0.5 0.7-0.3 1 0.5 0.9v-0.6l0.3-0.1c0 0.2 0 0.5 0.1 0.7 0.2-0.2 0.2-0.4 0.2-0.6 0.1-0.2 0.3-0.3 0.5-0.3-0.2 0.3-0.3 0.5-0.2 0.9 0.1-0.2 0.1-0.4 0.2-0.6 0.3 0.8 0.5 0.7 0.5-0.1 0.1 0.2 0.2 0.5 0.2 0.8 0-0.1 0.1-0.3 0.2-0.4 0.2 0.3 0.1 0.5-0.2 0.7 0.3 0.2 0.6 0.4 0.8 0.7-0.2 0.6-0.3 0.6-0.5 0l-0.1 0.2c0.1 0.3 0.1 0.6 0.1 0.9-0.3 0.2-0.7 0.4-1.1 0.5-0.3 0-0.7 0-1-0.1 0.5-0.2 1.1-0.4 1.6-0.5 0.1-0.3 0.2-0.6 0.1-1-0.5-0.1-0.8 0.1-0.8 0.6-0.1 0.3-0.1 0.3-0.2 0v-0.6c-0.3 0-0.6 0-0.9 0.1-0.2-0.7-0.4-0.7-0.6 0-0.7 0.1-1.3 0-2-0.1 0 0.8-0.1 0.8-0.1 0h-0.6c0-0.2 0-0.3-0.1-0.4-0.1 0.1-0.2 0.1-0.2 0.3-0.2-0.1-0.5 0-0.7 0.1l-0.3 0.1c-0.5-0.3-1.1-0.4-1.6-0.4v0.4c-0.9-0.4-0.9-0.9 0-1.4 0.3 0.5 0.4 0.4 0.2-0.1 0.1-0.1 0.2-0.2 0.3-0.1 0.1 0.5 0.2 0.5 0.3 0 0.7-0.1 0.7-0.2 0-0.4 0.3 0 0.5-0.1 0.6-0.3z"></path><path fill="#f2f8fb" d="m19.3 24.5c0 0.3-0.1 0.4-0.4 0.3v0.4c0.2 0 0.3 0 0.4 0.1-0.4 0.2-0.7 0-0.7-0.5 0.2-0.2 0.4-0.3 0.7-0.3z"></path><path fill="#d4ecf6" d="m19.8 24.5c0.2 0 0.4 0.1 0.5 0.3v0.6c-0.8 0.1-1-0.2-0.5-0.9z"></path><path fill="#d9ecf5" d="m15.4 24.3c0.3-0.1 0.6 0 0.9 0.1 0 0.3 0 0.6 0.1 0.8 0 0.1-0.1 0.2-0.2 0.2-0.2-0.4-0.4-0.4-0.7 0-0.1-0.4-0.1-0.8-0.1-1.1z"></path><path fill="#1f83b5" d="m26.6 24.4l-0.2 0.4c-0.5 0.6-1 1.1-1.6 1.4-0.4 0-0.5-0.1-0.3-0.4-0.2-0.2-0.4-0.2-0.7 0-0.1-0.3-0.3-0.6-0.5-0.8 0.2-0.2 0.5-0.3 0.7-0.3 0.5 0.1 0.6 0.4 0.4 0.8l0.3 0c0.5-0.3 1-0.7 1.4-1.1 0 0.1 0 0.1 0.1 0.1 0.1-0.1 0.2-0.2 0.2-0.4 0.1 0.1 0.1 0.2 0.2 0.3z"></path><path fill="#d69028" d="m34.2 19.2c0 0.2 0.1 0.3 0.2 0.4-0.2 1.4-0.5 2.8-1 4.1l0.1 0.3c0.3-0.1 0.5-0.2 0.7-0.2-0.8 2.4-2.1 4.4-3.9 6.1-0.7 0.2-1.4 0.5-2.1 0.8 0.6-0.5 1.2-1.1 1.8-1.7 0.6-0.7 1.2-1.5 1.7-2.4 0.6-0.8 1.1-1.7 1.4-2.6 0.2-0.6 0.4-1.2 0.6-1.7 0.2-0.6 0.3-1.2 0.3-1.8l0.2-1.3z"></path><path fill="#905b19" d="m29.5 17.2c0 0.9-0.1 1.7-0.2 2.6-0.1 0.5-0.2 1.1-0.4 1.6-0.1 0.6-0.3 1.1-0.6 1.6-0.3 0.6-0.6 1.1-0.9 1.7-0.8 0.8-1.6 1.6-2.4 2.4-2.5 1.8-5.4 2.6-8.5 2.2-1-0.1-2.1-0.4-3.1-0.8l-0.3-0.3c1.5 0.6 3.1 0.9 4.7 1 3.6-0.1 6.5-1.4 8.8-4.1 1.6-1.9 2.4-4 2.6-6.5l0.3-1.4z"></path><path fill="#fbe395" d="m33.1 24c-0.3 0.9-0.8 1.8-1.4 2.6 0 0 0-0.1-0.1-0.1-1 0.3-1.9 0.6-2.8 1-0.2-0.3-0.2-0.6-0.3-1-0.2 0.2-0.5 0.4-0.7 0.6-0.9-0.5-1.2-0.3-0.7 0.5-3 0.8-6 1.6-8.9 2.5-0.1 0.1-0.1 0.2-0.1 0.3l-0.3 0.2c0-0.2-0.1-0.3-0.3-0.3-0.7 0.2-1.4 0.4-2.1 0.6 0-0.2 0.1-0.3 0.1-0.5-0.3 0-0.6 0-0.9-0.1 0.6-0.3 1.3-0.6 2.1-0.8-0.1 0-0.2-0.1-0.2-0.2 3.1 0.4 6-0.4 8.5-2.2 1.4-0.3 2.7-0.7 4-1.3 0.3 0 0.6 0 0.9-0.1l0.8 0.7c0.1-0.4 0.2-0.8 0.2-1.2 0.3-0.1 0.6-0.3 1-0.4-0.3-0.1-0.5-0.2-0.8-0.3 0.7-0.2 1.3-0.4 2-0.5z"></path><path fill="#f2d583" d="m1.6 20.3c0.2 0.7 0.3 1.3 0.4 2-0.1 0.2-0.2 0.3-0.5 0.4 0 0.2 0 0.5 0 0.7 0.5 1.2 1 2.3 1.7 3.4 0.5 0.9 1.1 1.8 1.9 2.7 0.5 0.6 1.1 1.1 1.7 1.5 0.3 0.4 0.6 0.7 1 0.9 0.8 0.5 1.5 1 2.3 1.5-3.8-1.9-6.5-4.7-8.2-8.6-0.4-0.7-0.6-1.4-0.8-2.2 0-0.6 0-1.1 0.1-1.7 0.3-0.1 0.4-0.3 0.4-0.6z"></path><path fill="#ecd694" d="m34.8 22.3c-1.5 5.6-5 9.6-10.4 11.9-0.6 0.2-1.2 0.4-1.8 0.5 2.3-0.8 4.5-1.9 6.4-3.5 0.5-0.4 0.9-0.9 1.3-1.3 1.8-1.7 3.1-3.7 3.9-6.1 0.1-0.5 0.3-1 0.6-1.5z"></path><path fill="#94601f" d="m34.1 10.5c2.9 7 1.9 13.4-2.9 19.2-5.7 5.8-12.4 7.3-20 4.6-4.5-1.9-7.7-5-9.6-9.5h0.3c1.7 3.9 4.4 6.7 8.2 8.6 1.7 1 3.6 1.7 5.7 1.9 1.4 0.1 2.7 0.1 4.1 0 0.7-0.1 1.4-0.2 2.1-0.5 0.2 0 0.4 0 0.6-0.1 0.6-0.1 1.2-0.3 1.8-0.5 5.4-2.3 8.9-6.3 10.4-11.9 1.1-3.9 0.9-7.7-0.7-11.4v-0.4z" opacity=".992"></path><path fill="#eacf89" d="m10.1 33.4c0.4 0.1 0.8 0.3 1.2 0.4 1.6 0.7 3.3 1.1 5.1 1.3 0.4 0.1 0.8 0.1 1.2 0.1 1.5 0 3-0.2 4.4-0.4-0.7 0.3-1.4 0.4-2.1 0.5-1.4 0.1-2.7 0.1-4.1 0-2.1-0.2-4-0.9-5.7-1.9z"></path><path fill="#da9327" d="m12.2 33.3l1.2 0.2c0.2 0.2 0.5 0.3 0.7 0.4 1.7 0.3 3.3 0.4 5 0.3 0.2 0 0.5 0 0.8 0.1-1.1 0.7-2.2 1-3.5 0.8-1.8-0.2-3.5-0.6-5.1-1.3 0.3 0 0.6 0 0.9-0.2 0.1-0.1 0.1-0.2 0-0.3z"></path><path fill="#fcecb4" d="m17.8 30.6c0 0.2-0.1 0.4-0.3 0.6-0.4 0.1-0.7 0.2-1.1 0.3 0.3 0.2 0.6 0.4 0.7 0.8-0.4 0-0.8 0.2-1.2 0.4l-0.1-0.1c-0.3 0.1-0.6 0.2-0.9 0.4-0.1-0.2-0.2-0.1-0.3 0.1h-0.8c-0.2 0.2-0.3 0.3-0.4 0.4l-1.2-0.2c-0.4-0.3-0.8-0.5-1.2-0.8 0.9-0.3 1.8-0.5 2.7-0.6 0.1 0.2 0.2 0.5 0.2 0.8 0.4-0.6 1-0.9 1.8-0.8-0.4-0.3-0.5-0.6-0.3-1 0.7-0.2 1.4-0.4 2.1-0.6 0.2 0 0.3 0.1 0.3 0.3z"></path><path fill="#f9bf35" d="m9.6 32c0.4 0.3 0.8 0.6 1.3 0.7 0.4 0.3 0.8 0.5 1.3 0.6 0.1 0.1 0.1 0.2 0 0.3-0.3 0.2-0.6 0.2-0.9 0.2-0.4-0.1-0.8-0.3-1.2-0.4-0.8-0.5-1.5-1-2.3-1.5-0.4-0.2-0.7-0.5-1-0.9 0.3 0 0.5-0.1 0.7-0.3 0.7 0.5 1.4 0.9 2.1 1.3z"></path><path fill="#d48e2a" d="m18.1 30.4c0.1 0.4 0.2 0.7 0.4 1 0.3 0 0.7 0.1 1 0.2-0.2 0.1-0.4 0.3-0.7 0.4 0 0.4 0 0.8 0 1.3-0.2-0.2-0.5-0.4-0.9-0.5-0.3 0.2-0.6 0.3-1 0.4 0.2-0.3 0.2-0.6 0.2-0.9-0.1-0.4-0.4-0.6-0.7-0.8 0.4-0.1 0.7-0.2 1.1-0.3 0.2-0.2 0.3-0.4 0.3-0.6l0.3-0.2z"></path><path fill="#dea93d" d="m30.3 29.9c-0.4 0.4-0.8 0.9-1.3 1.3-1.9 1.6-4.1 2.7-6.4 3.5-0.2 0.1-0.4 0.1-0.6 0.1-1.4 0.2-2.9 0.4-4.4 0.4-0.4 0-0.8 0-1.2-0.1 1.3 0.2 2.4-0.1 3.5-0.8-0.3-0.1-0.6-0.1-0.8-0.1 3.3-0.3 6.4-1.4 9.1-3.5 0.7-0.3 1.4-0.6 2.1-0.8z"></path><path fill="#fbe295" d="m13.7 30.3c0 0.2 0 0.4-0.1 0.6-0.2 0.1-0.5 0.3-0.7 0.5 0.3 0 0.6 0.2 0.8 0.5-0.9 0.1-1.8 0.3-2.7 0.6 0.4 0.3 0.8 0.5 1.2 0.8-0.5-0.1-0.9-0.3-1.3-0.6-0.3-0.3-0.7-0.6-1.1-0.8 0.7-0.3 1.5-0.5 2.3-0.8l0.2-0.1c-0.1-0.2-0.1-0.4-0.1-0.6 0.4 0 0.8-0.1 1.2-0.2 0.1 0 0.2 0 0.3 0.1z"></path><path fill="#d69530" d="m22.9 30.7c-0.2 0.3-0.3 0.6-0.5 0.8 0.1 0.3 0.3 0.6 0.5 0.8-0.4 0.1-0.8 0.1-1.2 0-0.6 0.9-1 0.7-1-0.4l-0.5-0.3c0.1-0.3 0.4-0.5 0.7-0.6 0.1-0.3 0.2-0.7 0.4-1 0.3 0.6 0.8 0.9 1.6 0.7z"></path><path fill="#e9aa2f" d="m14.6 30.3c0.3 0.1 0.6 0.1 0.9 0.1 0 0.2-0.1 0.3-0.1 0.5-0.2 0.4-0.1 0.7 0.3 1-0.8-0.1-1.4 0.2-1.8 0.8 0-0.3-0.1-0.6-0.2-0.8-0.2-0.3-0.5-0.5-0.8-0.5 0.2-0.2 0.5-0.4 0.7-0.5 0.1-0.2 0.1-0.4 0.1-0.6 0-0.2 0-0.4 0.2-0.6 0.2 0.2 0.4 0.4 0.7 0.6z"></path><path fill="#fbf4c6" d="m31.7 26.6c-0.5 0.9-1.1 1.7-1.7 2.4-0.6 0.6-1.2 1.2-1.8 1.7-2.7 2.1-5.8 3.2-9.1 3.5-1.7 0.1-3.3 0-5-0.3-0.2-0.1-0.5-0.2-0.7-0.4 0.1-0.1 0.2-0.2 0.4-0.4h0.8c0.1-0.2 0.2-0.3 0.3-0.1 0.3-0.2 0.6-0.3 0.9-0.4l0.1 0.1c0.4-0.2 0.8-0.4 1.2-0.4 0 0.3 0 0.6-0.2 0.9 0.4-0.1 0.7-0.2 1-0.4 0.4 0.1 0.7 0.3 0.9 0.5 0-0.5 0-0.9 0-1.3 0.3-0.1 0.5-0.3 0.7-0.4 0.2 0 0.4-0.1 0.5-0.3 0 0.1 0.1 0.2 0.2 0.3l0.5 0.3c0 1.1 0.4 1.3 1 0.4 0.4 0.1 0.8 0.1 1.2 0-0.2-0.2-0.4-0.5-0.5-0.8 0.2-0.2 0.3-0.5 0.5-0.8 0.1 0 0.1-0.1 0.2-0.3 0.2 0.2 0.4 0.2 0.6 0.2 0.3 0 0.5 0 0.8 0.1 0.1 1.3 0.4 1.3 0.7 0 0.4 0 0.8 0 1.2 0-0.6-0.4-0.7-0.9-0.5-1.5 0.5-0.5 1-0.7 1.7-0.6 0.5 1.1 0.8 1 0.7-0.3 0.4 0 0.8-0.1 1.2-0.3-0.3-0.2-0.5-0.3-0.7-0.5 0.9-0.4 1.8-0.7 2.8-1 0.1 0 0.1 0.1 0.1 0.1z"></path><path fill="#d99931" d="m25.9 29.2c-0.2 0.6-0.1 1.1 0.5 1.5-0.4 0-0.8 0-1.2 0-0.3 1.3-0.6 1.3-0.7 0-0.3-0.1-0.5-0.1-0.8-0.1 0-0.1-0.1-0.2-0.1-0.2 0.2-0.2 0.4-0.4 0.7-0.7-0.2-0.3-0.2-0.6 0-0.9l0.8 0.5c0.3-0.2 0.6-0.3 0.8-0.1z"></path><path fill="#fad875" d="m13.4 28.5c1 0.4 2.1 0.7 3.1 0.8 0 0.1 0.1 0.2 0.2 0.2-0.8 0.2-1.5 0.5-2.1 0.8-0.3-0.2-0.5-0.4-0.7-0.6-0.2 0.2-0.2 0.4-0.2 0.6-0.1-0.1-0.2-0.1-0.3-0.1-0.4 0.1-0.8 0.2-1.2 0.2 0 0.2 0 0.4 0.1 0.6l-0.2 0.1c-0.8 0.3-1.6 0.5-2.3 0.8 0.4 0.2 0.8 0.5 1.1 0.8-0.5-0.1-0.9-0.4-1.3-0.7-0.7-0.5-1.4-1.1-2.1-1.7 0.8-0.1 1.5-0.3 2.3-0.6 0.4 0.3 0.7 0.7 0.6 1.3 0.3-0.2 0.5-0.4 0.8-0.6 0.2 0.3 0.5 0.4 0.8 0.5 0-0.4 0-0.7-0.3-0.9 0.2-0.3 0.4-0.6 0.6-0.7-0.3-0.1-0.6-0.1-0.8-0.3 0.6-0.2 1.2-0.4 1.9-0.5z"></path><path fill="#fbcb3e" d="m13.7 27.6c1.1 0.5 2.2 0.8 3.4 0.9 0.4 0.1 0.8 0.2 1.3 0.2-0.3 0.1-0.5 0.2-0.8 0.3 0.1 0 0.2 0.1 0.2 0.2-1.6-0.1-3.2-0.4-4.7-1-0.1-0.4 0.1-0.6 0.6-0.6z"></path><path fill="#d99225" d="m3.6 26.1c0.6 1 1.4 2 2.2 2.9 0.3 0.4 0.6 0.7 1 0.9 0.3 0.1 0.5 0.2 0.7 0.4 0.7 0.6 1.4 1.2 2.1 1.7-0.7-0.4-1.4-0.8-2.1-1.3-0.2 0.2-0.4 0.3-0.7 0.3-0.6-0.4-1.2-0.9-1.7-1.5-0.8-0.9-1.4-1.8-1.9-2.7 0.1-0.2 0.3-0.5 0.4-0.7z"></path><path fill="#f6d758" d="m26.4 24.8c0.2 0 0.2 0.1 0.2 0.3-2.3 2.7-5.2 4-8.8 4.1 0-0.1-0.1-0.2-0.2-0.2 0.3-0.1 0.5-0.2 0.8-0.3-0.5 0-0.9-0.1-1.3-0.2 0.9 0 1.9 0 2.8-0.1 0.5-0.1 1-0.2 1.4-0.3 0.4-0.1 0.8-0.3 1.1-0.5 0.2 0.1 0.3 0 0.3-0.1 0.8-0.3 1.5-0.7 2.1-1.3 0.6-0.3 1.1-0.8 1.6-1.4z"></path><path fill="#fceaac" d="m27.1 27.6c-0.1 0.3-0.3 0.6-0.5 0.8 0.4 0 0.7 0.1 1 0.2-0.7-0.1-1.2 0.1-1.7 0.6-0.2-0.2-0.5-0.1-0.8 0.1l-0.8-0.5c-0.2 0.3-0.2 0.6 0 0.9-0.3 0.3-0.5 0.5-0.7 0.7 0 0 0.1 0.1 0.1 0.2-0.2 0-0.4 0-0.6-0.2-0.1 0.2-0.1 0.3-0.2 0.3-0.8 0.2-1.3-0.1-1.6-0.7-0.2 0.3-0.3 0.7-0.4 1-0.3 0.1-0.6 0.3-0.7 0.6-0.1-0.1-0.2-0.2-0.2-0.3-0.1 0.2-0.3 0.3-0.5 0.3-0.3-0.1-0.7-0.2-1-0.2-0.2-0.3-0.3-0.6-0.4-1 0-0.1 0-0.2 0.1-0.3 2.9-0.9 5.9-1.7 8.9-2.5z"></path><path fill="#b2e1f0" d="m21 27.1c-0.3 0.1-0.6 0.1-0.9 0-0.2 0.2-0.5 0.4-0.8 0.5-0.3 0.2-0.6 0.2-0.9 0.2-0.1-0.6-0.1-0.6-0.2 0-0.5 0-0.9 0-1.4-0.1l0.4-0.1c-0.1-0.3-0.2-0.6-0.3-1-0.3 0.7-0.4 0.6-0.4-0.2 0-0.2 0.1-0.2 0.2-0.3 0.1 0.1 0.1 0.2 0.1 0.4h0.6c0 0.8 0.1 0.8 0.1 0 0.7 0.1 1.3 0.2 2 0.1 0.2-0.7 0.4-0.7 0.6 0 0.3-0.1 0.6-0.1 0.9-0.1v0.6z"></path><path fill="#7ecbe4" d="m15.5 26.6c0.1 0.6 0.4 0.7 0.9 0.5-0.2 0-0.4-0.1-0.6 0v-0.5c0.8 0 0.8 0 0-0.1 0.2-0.1 0.5-0.2 0.7-0.1 0 0.8 0.1 0.9 0.4 0.2 0.1 0.4 0.2 0.7 0.3 1l-0.4 0.1c0.5 0.1 0.9 0.1 1.4 0.1 0.1-0.6 0.1-0.6 0.2 0 0.3 0 0.6 0 0.9-0.2 0.3-0.1 0.6-0.3 0.8-0.5 0.3 0.1 0.6 0.1 0.9 0 0.1 0.3 0.1 0.3 0.2 0 0.6 0.1 0.6 0.2 0.1 0.3 0.2 0.1 0.4 0.1 0.6 0.1-0.5 0.1-1.1 0.3-1.6 0.5 0.3 0.1 0.7 0.1 1 0.1-0.4 0.1-0.9 0.2-1.4 0.3-0.9 0.1-1.9 0.1-2.8 0.1-1.2-0.1-2.3-0.4-3.4-0.9l-0.8-0.5c0.1-0.1 0.3-0.2 0.5-0.2h0.3c0.1 0.1 0.2 0 0.2-0.3v-0.4c0.5 0 1.1 0.1 1.6 0.4z"></path><path fill="#d78f26" d="m28.8 27.5c0.2 0.2 0.4 0.3 0.7 0.5-0.4 0.2-0.8 0.3-1.2 0.3 0.1 1.3-0.2 1.4-0.7 0.3-0.3-0.1-0.6-0.2-1-0.2 0.2-0.2 0.4-0.5 0.5-0.8-0.5-0.8-0.2-1 0.7-0.5 0.2-0.2 0.5-0.4 0.7-0.6 0.1 0.4 0.1 0.7 0.3 1z"></path><path fill="#ebf4f8" d="m22.9 26.5c0 0 0.1 0.1 0.1 0.2-0.1 0.3-0.2 0.5-0.3 0.8 0 0.1-0.1 0.2-0.3 0.1 0-0.3 0-0.6-0.1-0.9l0.1-0.2c0.2 0.6 0.3 0.6 0.5 0z"></path><path fill="#fcc73e" d="m10.3 26.4c0.8 0.8 1.8 1.4 2.8 1.8l0.3 0.3c-0.7 0.1-1.3 0.3-1.9 0.5 0.2 0.2 0.5 0.2 0.8 0.3-0.2 0.1-0.4 0.4-0.6 0.7 0.3 0.2 0.3 0.5 0.3 0.9-0.3-0.1-0.6-0.2-0.8-0.5-0.3 0.2-0.5 0.4-0.8 0.6 0.1-0.6-0.2-1-0.6-1.3-0.8 0.3-1.5 0.5-2.3 0.6-0.2-0.2-0.4-0.3-0.7-0.4l-0.4-0.6c0.3-0.2 0.6-0.4 1-0.5 0.1-0.2 0.3-0.3 0.5-0.3 0.4 0.1 0.7 0.3 1 0.5 0.1-0.3 0.2-0.7 0.1-1.1 0.3-0.1 0.5-0.3 0.8-0.5-0.3-0.1-0.6-0.2-0.9-0.3-0.1-0.1-0.1-0.2-0.1-0.3 0.5-0.2 1-0.4 1.5-0.4z"></path><path fill="#e2f2f8" d="m21.9 27.5c-0.2 0-0.4 0-0.6-0.1 0.5-0.1 0.5-0.2-0.1-0.3 0-0.5 0.3-0.7 0.8-0.6 0.1 0.4 0 0.7-0.1 1z"></path><path fill="#f2f9fc" d="m15.8 26.5c0.8 0.1 0.8 0.1 0 0.1v0.5c0.2-0.1 0.4 0 0.6 0-0.5 0.2-0.8 0.1-0.9-0.5l0.3-0.1z"></path><path fill="#279ac5" d="m10.3 25.1c0.4 0.1 0.8 0.2 1.2 0.4 0 0 0.1-0.1 0.2-0.1 0.5 0.6 1.1 1.1 1.7 1.5-0.2 0-0.4 0.1-0.5 0.2-1-0.5-1.8-1.2-2.6-2z"></path><path fill="#d58c23" d="m8.8 26.8c0 0.1 0 0.2 0.1 0.3 0.3 0.1 0.6 0.2 0.9 0.3-0.3 0.2-0.5 0.4-0.8 0.5 0.1 0.4 0 0.8-0.1 1.1-0.3-0.2-0.6-0.4-1-0.5-0.2 0-0.4 0.1-0.5 0.3-0.2-0.1-0.3-0.2-0.3-0.3 0.1-0.3 0.1-0.5 0.3-0.7-0.2-0.3-0.4-0.5-0.6-0.8l1.1-0.1c0.2-0.3 0.5-0.6 0.7-0.8 0 0.2 0.1 0.5 0.2 0.7z"></path></svg>