<svg xmlns="http://www.w3.org/2000/svg" version="1.1" width="256px" height="256px" style="shape-rendering:geometricPrecision; text-rendering:geometricPrecision; image-rendering:optimizeQuality; fill-rule:evenodd; clip-rule:evenodd" xmlns:xlink="http://www.w3.org/1999/xlink">
<g><path style="opacity:1" fill="#fbfbfb" d="M 115.5,0.5 C 115.5,0.166667 115.5,-0.166667 115.5,-0.5C 162.167,-0.5 208.833,-0.5 255.5,-0.5C 255.5,46.1667 255.5,92.8333 255.5,139.5C 255.167,139.5 254.833,139.5 254.5,139.5C 257.129,78.2268 230.795,34.7268 175.5,9C 156.122,1.9108 136.122,-0.922535 115.5,0.5 Z"/></g>
<g><path style="opacity:1" fill="#050506" d="M 115.5,0.5 C 136.122,-0.922535 156.122,1.9108 175.5,9C 230.795,34.7268 257.129,78.2268 254.5,139.5C 247.83,189.659 221.497,225.159 175.5,246C 163.523,250.428 151.189,253.262 138.5,254.5C 128.473,254.699 118.473,254.366 108.5,253.5C 61.4123,245.244 28.2456,219.244 9,175.5C -8.29333,126.632 -0.626663,82.2991 32,42.5C 54.3531,17.74 82.1864,3.73998 115.5,0.5 Z"/></g>
<g><path style="opacity:1" fill="#f5bc7b" d="M 123.5,15.5 C 128.179,15.3342 132.845,15.5008 137.5,16C 138.965,17.7742 140.298,19.6075 141.5,21.5C 138.795,21.3802 138.128,22.3802 139.5,24.5C 135.37,28.2518 135.703,31.5851 140.5,34.5C 139.148,35.5244 137.815,36.5244 136.5,37.5C 137.211,34.1362 136.044,31.8029 133,30.5C 131.638,31.9247 130.138,32.758 128.5,33C 129.584,30.4121 131.251,28.2455 133.5,26.5C 128.938,25.8602 128.604,24.6936 132.5,23C 129.86,20.6616 128.193,21.1616 127.5,24.5C 125.896,23.713 125.229,22.3797 125.5,20.5C 121.901,20.7381 121.567,19.7381 124.5,17.5C 124.137,16.8165 123.804,16.1499 123.5,15.5 Z"/></g>
<g><path style="opacity:1" fill="#b8f5f3" d="M 237.5,106.5 C 238.264,120.484 238.264,134.484 237.5,148.5C 227.711,192.662 200.711,221.995 156.5,236.5C 156.167,236.167 155.833,235.833 155.5,235.5C 162.571,224.295 167.904,212.295 171.5,199.5C 172.167,202.5 172.833,205.5 173.5,208.5C 175.062,208.733 176.395,209.4 177.5,210.5C 176.213,207.594 175.213,204.594 174.5,201.5C 174.205,199.265 174.539,197.265 175.5,195.5C 179.325,200.47 183.158,205.47 187,210.5C 187.492,209.451 187.326,208.451 186.5,207.5C 187.025,206.808 187.692,206.308 188.5,206C 186.667,204.833 184.833,203.667 183,202.5C 182.26,201.251 182.427,200.251 183.5,199.5C 187.767,199.203 191.934,199.536 196,200.5C 197.779,198.983 197.279,198.149 194.5,198C 195.167,197.667 195.833,197.333 196.5,197C 193.633,196.199 190.966,196.366 188.5,197.5C 183.607,198.262 179.274,197.262 175.5,194.5C 174.939,193.092 174.605,191.592 174.5,190C 175.234,185.833 175.9,181.667 176.5,177.5C 182.31,177.314 187.977,177.98 193.5,179.5C 193.91,182.431 195.244,183.097 197.5,181.5C 198.702,182.405 200.036,182.405 201.5,181.5C 201.158,180.662 200.492,180.328 199.5,180.5C 198.602,179.842 197.602,179.176 196.5,178.5C 199.785,177.676 203.118,177.176 206.5,177C 206.167,176.667 205.833,176.333 205.5,176C 199.879,176.289 194.212,176.456 188.5,176.5C 184.833,176.5 181.167,176.5 177.5,176.5C 177.5,175.167 177.5,173.833 177.5,172.5C 180.5,168.5 183.5,164.5 186.5,160.5C 199.317,163.474 212.317,165.308 225.5,166C 227.56,168.091 229.227,167.758 230.5,165C 225.453,164.662 220.453,163.995 215.5,163C 216.373,161.955 217.373,161.122 218.5,160.5C 223.107,159.172 227.774,158.005 232.5,157C 228.517,156.996 224.517,157.329 220.5,158C 219.584,158.278 218.918,158.778 218.5,159.5C 215.492,161.49 212.159,162.49 208.5,162.5C 206.359,162.387 204.525,161.72 203,160.5C 201.769,161.108 200.436,161.441 199,161.5C 194.833,160.766 190.667,160.1 186.5,159.5C 187.487,156.854 188.487,154.188 189.5,151.5C 194.808,150.848 200.141,150.681 205.5,151C 200.58,149.75 195.58,149.25 190.5,149.5C 190.963,146.518 191.296,143.518 191.5,140.5C 196.832,136.168 202.832,134.835 209.5,136.5C 212.806,135.837 216.139,135.337 219.5,135C 218.944,134.617 218.611,134.117 218.5,133.5C 222.705,133.283 226.705,132.617 230.5,131.5C 230.938,131.565 231.272,131.399 231.5,131C 230.874,130.25 230.374,129.416 230,128.5C 229.184,129.823 228.017,130.489 226.5,130.5C 223.576,131.586 220.576,132.086 217.5,132C 218.5,131 219.5,130 220.5,129C 218.228,129.077 216.562,130.243 215.5,132.5C 211.806,134.412 207.806,134.912 203.5,134C 210.076,126.953 216.743,120.119 223.5,113.5C 224.492,113.672 225.158,113.338 225.5,112.5C 224.761,112.631 224.094,112.464 223.5,112C 225.954,110.26 227.454,108.093 228,105.5C 225.546,107.441 223.713,109.775 222.5,112.5C 221.206,113.29 220.039,114.29 219,115.5C 218.736,111.304 220.236,107.804 223.5,105C 222.663,103.989 222.33,102.822 222.5,101.5C 221.069,103.437 219.402,105.27 217.5,107C 215.148,107.24 213.148,108.073 211.5,109.5C 213.861,109.326 216.194,108.993 218.5,108.5C 217.265,114.97 214.432,120.637 210,125.5C 206.942,129.062 203.442,132.062 199.5,134.5C 198.904,133.284 198.737,131.951 199,130.5C 197.334,133.331 195.168,135.664 192.5,137.5C 192.5,132.5 192.5,127.5 192.5,122.5C 193.031,120.376 194.365,118.876 196.5,118C 195.376,117.751 194.376,117.251 193.5,116.5C 194.635,114.201 195.968,112.034 197.5,110C 196.325,107.162 196.491,104.329 198,101.5C 202.528,95.6448 207.028,89.8115 211.5,84C 210.234,83.6905 209.067,83.1905 208,82.5C 207.667,82.8333 207.333,83.1667 207,83.5C 207.195,85.1261 207.195,86.7928 207,88.5C 199.423,94.2481 193.923,101.581 190.5,110.5C 188.824,109.817 188.157,108.483 188.5,106.5C 191.51,99.9923 195.843,94.4923 201.5,90C 200.551,89.3828 199.718,89.5494 199,90.5C 198.667,89.8333 198.333,89.1667 198,88.5C 194.97,92.6947 191.47,96.3613 187.5,99.5C 186.325,99.719 185.325,99.3857 184.5,98.5C 185.127,97.5832 185.461,96.5832 185.5,95.5C 184.542,95.9528 183.708,96.6195 183,97.5C 181.907,95.6508 180.574,93.9842 179,92.5C 179.158,89.8206 179.658,87.154 180.5,84.5C 179.685,85.4293 178.852,86.4293 178,87.5C 177.79,85.9419 177.29,84.6085 176.5,83.5C 175.182,76.9064 174.515,70.2397 174.5,63.5C 177.103,59.9498 178.27,55.9498 178,51.5C 173.567,66.0639 172.567,65.7305 175,50.5C 174.059,52.7274 172.892,54.7274 171.5,56.5C 168.168,43.8321 163.168,31.8321 156.5,20.5C 157.167,20.1667 157.833,19.8333 158.5,19.5C 201.304,33.6337 227.638,62.6337 237.5,106.5 Z"/></g>
<g><path style="opacity:1" fill="#4fa4ef" d="M 99.5,26.5 C 99.0831,25.8761 98.4164,25.5427 97.5,25.5C 92.8816,27.1206 89.5483,30.1206 87.5,34.5C 85.3891,35.9681 83.5557,35.6348 82,33.5C 80.955,34.3734 80.1217,35.3734 79.5,36.5C 78.1667,38.5 76.5,40.1667 74.5,41.5C 73.5041,41.5858 72.6708,41.2524 72,40.5C 71.5065,38.8659 71.3398,37.1992 71.5,35.5C 70.5,35.5 69.5,35.5 68.5,35.5C 68.2964,37.6854 67.6298,39.6854 66.5,41.5C 63.4761,41.9467 63.1428,42.78 65.5,44C 61.9984,46.0105 61.9984,47.3439 65.5,48C 64.5842,48.2784 63.9175,48.7784 63.5,49.5C 61.5956,49.7376 60.2623,50.7376 59.5,52.5C 57.7354,53.4614 55.7354,53.7947 53.5,53.5C 53.5,51.5 53.5,49.5 53.5,47.5C 53.4326,46.0413 53.7659,44.7079 54.5,43.5C 68.3121,30.423 84.6454,21.7563 103.5,17.5C 104.167,17.8333 104.833,18.1667 105.5,18.5C 103.059,20.9264 101.059,23.593 99.5,26.5 Z"/></g>
<g><path style="opacity:1" fill="#1da33f" d="M 99.5,26.5 C 98.6743,29.4848 97.341,32.1515 95.5,34.5C 95.719,33.325 95.3857,32.325 94.5,31.5C 92.7539,33.8541 90.4206,34.8541 87.5,34.5C 89.5483,30.1206 92.8816,27.1206 97.5,25.5C 98.4164,25.5427 99.0831,25.8761 99.5,26.5 Z"/></g>
<g><path style="opacity:1" fill="#f6f03e" d="M 123.5,15.5 C 123.804,16.1499 124.137,16.8165 124.5,17.5C 121.567,19.7381 121.901,20.7381 125.5,20.5C 125.229,22.3797 125.896,23.713 127.5,24.5C 127.059,27.7162 125.393,30.0495 122.5,31.5C 124.791,33.2878 126.957,35.2878 129,37.5C 128.577,39.3867 128.744,41.3867 129.5,43.5C 126.697,43.9613 124.363,45.2947 122.5,47.5C 121.542,47.0472 120.708,46.3805 120,45.5C 119.751,46.624 119.251,47.624 118.5,48.5C 118.74,45.797 118.24,43.1304 117,40.5C 115.168,39.1417 113.335,38.8084 111.5,39.5C 110.702,39.0431 110.369,38.3764 110.5,37.5C 113.323,29.1737 117.656,21.8404 123.5,15.5 Z"/></g>
<g><path style="opacity:1" fill="#0daf1c" d="M 95.5,34.5 C 93.4266,40.3083 91.0932,45.975 88.5,51.5C 87.6829,49.0314 87.1829,46.3647 87,43.5C 85.4314,42.0621 83.9314,40.5621 82.5,39C 83.5358,37.3831 84.7025,37.2164 86,38.5C 87.1882,37.4366 87.6882,36.1033 87.5,34.5C 90.4206,34.8541 92.7539,33.8541 94.5,31.5C 95.3857,32.325 95.719,33.325 95.5,34.5 Z"/></g>
<g><path style="opacity:1" fill="#c9731a" d="M 136.5,37.5 C 135.911,39.3519 135.244,41.1852 134.5,43C 135.167,43.6667 135.833,44.3333 136.5,45C 135.748,45.6708 135.414,46.5041 135.5,47.5C 133.772,45.7745 131.772,44.4411 129.5,43.5C 128.744,41.3867 128.577,39.3867 129,37.5C 126.957,35.2878 124.791,33.2878 122.5,31.5C 125.393,30.0495 127.059,27.7162 127.5,24.5C 128.193,21.1616 129.86,20.6616 132.5,23C 128.604,24.6936 128.938,25.8602 133.5,26.5C 131.251,28.2455 129.584,30.4121 128.5,33C 130.138,32.758 131.638,31.9247 133,30.5C 136.044,31.8029 137.211,34.1362 136.5,37.5 Z"/></g>
<g><path style="opacity:1" fill="#f7f140" d="M 141.5,21.5 C 144.64,26.1146 146.974,31.1146 148.5,36.5C 144.751,38.9212 142.084,42.2546 140.5,46.5C 138.955,47.4519 137.288,47.7852 135.5,47.5C 135.414,46.5041 135.748,45.6708 136.5,45C 135.833,44.3333 135.167,43.6667 134.5,43C 135.244,41.1852 135.911,39.3519 136.5,37.5C 137.815,36.5244 139.148,35.5244 140.5,34.5C 135.703,31.5851 135.37,28.2518 139.5,24.5C 138.128,22.3802 138.795,21.3802 141.5,21.5 Z"/></g>
<g><path style="opacity:1" fill="#3799b0" d="M 79.5,36.5 C 79.8016,39.0593 79.4682,41.3926 78.5,43.5C 77.5326,42.1938 76.1993,41.5271 74.5,41.5C 76.5,40.1667 78.1667,38.5 79.5,36.5 Z"/></g>
<g><path style="opacity:1" fill="#19aa5b" d="M 87.5,34.5 C 87.6882,36.1033 87.1882,37.4366 86,38.5C 84.7025,37.2164 83.5358,37.3831 82.5,39C 83.9314,40.5621 85.4314,42.0621 87,43.5C 87.1829,46.3647 87.6829,49.0314 88.5,51.5C 88.5,52.1667 88.5,52.8333 88.5,53.5C 87.1667,53.5 85.8333,53.5 84.5,53.5C 84.33,52.1779 84.6634,51.0113 85.5,50C 84.552,49.5172 83.552,49.3505 82.5,49.5C 81.1667,47.5 79.8333,45.5 78.5,43.5C 79.4682,41.3926 79.8016,39.0593 79.5,36.5C 80.1217,35.3734 80.955,34.3734 82,33.5C 83.5557,35.6348 85.3891,35.9681 87.5,34.5 Z"/></g>
<g><path style="opacity:1" fill="#379096" d="M 74.5,41.5 C 73.516,44.0704 72.3493,44.0704 71,41.5C 70.6667,39.8333 70.3333,38.1667 70,36.5C 69.7767,38.8808 68.61,40.5475 66.5,41.5C 67.6298,39.6854 68.2964,37.6854 68.5,35.5C 69.5,35.5 70.5,35.5 71.5,35.5C 71.3398,37.1992 71.5065,38.8659 72,40.5C 72.6708,41.2524 73.5041,41.5858 74.5,41.5 Z"/></g>
<g><path style="opacity:1" fill="#c66c18" d="M 110.5,37.5 C 110.369,38.3764 110.702,39.0431 111.5,39.5C 113.335,38.8084 115.168,39.1417 117,40.5C 118.24,43.1304 118.74,45.797 118.5,48.5C 119.251,47.624 119.751,46.624 120,45.5C 120.708,46.3805 121.542,47.0472 122.5,47.5C 117.5,51.8333 112.833,56.5 108.5,61.5C 107.058,60.1805 106.392,58.5138 106.5,56.5C 105.5,56.5 104.5,56.5 103.5,56.5C 105.662,50.0037 107.996,43.6703 110.5,37.5 Z"/></g>
<g><path style="opacity:1" fill="#c87119" d="M 148.5,36.5 C 150.575,39.0746 151.909,42.0746 152.5,45.5C 150.804,45.6854 149.471,46.5187 148.5,48C 150.454,49.8978 151.454,51.8978 151.5,54C 150.057,55.0672 148.724,56.2338 147.5,57.5C 146.583,56.8728 145.583,56.5394 144.5,56.5C 141.719,53.2635 138.719,50.2635 135.5,47.5C 137.288,47.7852 138.955,47.4519 140.5,46.5C 142.084,42.2546 144.751,38.9212 148.5,36.5 Z"/></g>
<g><path style="opacity:1" fill="#075e0f" d="M 74.5,41.5 C 76.1993,41.5271 77.5326,42.1938 78.5,43.5C 79.8333,45.5 81.1667,47.5 82.5,49.5C 81.5515,50.9228 80.5515,52.4228 79.5,54C 79.5699,54.7648 79.9033,55.2648 80.5,55.5C 81.4822,56.1408 82.4822,56.8075 83.5,57.5C 84.4168,56.8728 85.4168,56.5394 86.5,56.5C 86.6107,57.1174 86.944,57.6174 87.5,58C 85.0891,65.1547 83.0891,72.3214 81.5,79.5C 75.8998,78.3769 75.2332,76.0435 79.5,72.5C 77.1274,72.2634 74.7941,71.2634 72.5,69.5C 73.0144,67.3016 74.0144,65.3016 75.5,63.5C 74.067,63.3248 72.4004,62.6581 70.5,61.5C 69.3961,62.6313 69.7295,63.4646 71.5,64C 66.5143,63.8555 64.8476,61.3555 66.5,56.5C 68.9352,55.8702 69.6018,54.5369 68.5,52.5C 67.8333,53.1667 67.1667,53.8333 66.5,54.5C 65.7255,52.6036 64.7255,50.937 63.5,49.5C 63.9175,48.7784 64.5842,48.2784 65.5,48C 61.9984,47.3439 61.9984,46.0105 65.5,44C 63.1428,42.78 63.4761,41.9467 66.5,41.5C 68.61,40.5475 69.7767,38.8808 70,36.5C 70.3333,38.1667 70.6667,39.8333 71,41.5C 72.3493,44.0704 73.516,44.0704 74.5,41.5 Z"/></g>
<g><path style="opacity:1" fill="#248060" d="M 82.5,49.5 C 83.552,49.3505 84.552,49.5172 85.5,50C 84.6634,51.0113 84.33,52.1779 84.5,53.5C 85.8333,53.5 87.1667,53.5 88.5,53.5C 88.1583,54.3382 87.4916,54.6716 86.5,54.5C 84.9397,54.4809 83.4397,54.1476 82,53.5C 80.9701,53.8361 80.4701,54.5028 80.5,55.5C 79.9033,55.2648 79.5699,54.7648 79.5,54C 80.5515,52.4228 81.5515,50.9228 82.5,49.5 Z"/></g>
<g><path style="opacity:1" fill="#097b41" d="M 53.5,47.5 C 53.5,49.5 53.5,51.5 53.5,53.5C 55.7354,53.7947 57.7354,53.4614 59.5,52.5C 60.5832,52.4606 61.5832,52.1272 62.5,51.5C 63.1508,53.8474 64.4841,55.5141 66.5,56.5C 64.8476,61.3555 66.5143,63.8555 71.5,64C 69.7295,63.4646 69.3961,62.6313 70.5,61.5C 72.4004,62.6581 74.067,63.3248 75.5,63.5C 74.0144,65.3016 73.0144,67.3016 72.5,69.5C 74.7941,71.2634 77.1274,72.2634 79.5,72.5C 75.2332,76.0435 75.8998,78.3769 81.5,79.5C 81.8064,82.3854 81.4731,85.0521 80.5,87.5C 77.8127,84.6585 76.9794,85.3252 78,89.5C 78.3826,90.056 78.8826,90.3893 79.5,90.5C 78.6493,92.8816 77.316,94.8816 75.5,96.5C 75.6309,95.6236 75.2975,94.9569 74.5,94.5C 73.354,95.1449 72.354,95.9783 71.5,97C 66.7417,96.0909 66.4083,94.0909 70.5,91C 69.8235,89.3167 68.8235,89.1501 67.5,90.5C 64.899,87.6896 62.7323,88.0229 61,91.5C 61.6307,86.9761 59.7974,84.1427 55.5,83C 54.2567,81.8455 53.2567,80.5122 52.5,79C 51.552,78.5172 50.552,78.3505 49.5,78.5C 49.4729,76.8007 48.8062,75.4674 47.5,74.5C 51.2241,73.6069 53.8908,71.4403 55.5,68C 54.552,67.5172 53.552,67.3505 52.5,67.5C 52.5,68.5 52.5,69.5 52.5,70.5C 51.5,70.5 50.5,70.5 49.5,70.5C 49.8432,68.5168 49.1765,67.1834 47.5,66.5C 46.3948,64.7 47.0614,63.5334 49.5,63C 48.3224,62.0331 46.989,61.5331 45.5,61.5C 48.4265,59.1844 48.0932,57.6844 44.5,57C 45.9158,54.7355 47.9158,53.5688 50.5,53.5C 50.0311,50.6067 51.0311,48.6067 53.5,47.5 Z"/></g>
<g><path style="opacity:1" fill="#379085" d="M 63.5,49.5 C 64.7255,50.937 65.7255,52.6036 66.5,54.5C 67.1667,53.8333 67.8333,53.1667 68.5,52.5C 69.6018,54.5369 68.9352,55.8702 66.5,56.5C 64.4841,55.5141 63.1508,53.8474 62.5,51.5C 61.5832,52.1272 60.5832,52.4606 59.5,52.5C 60.2623,50.7376 61.5956,49.7376 63.5,49.5 Z"/></g>
<g><path style="opacity:1" fill="#4c7b94" d="M 86.5,54.5 C 86.5,55.1667 86.5,55.8333 86.5,56.5C 85.4168,56.5394 84.4168,56.8728 83.5,57.5C 82.4822,56.8075 81.4822,56.1408 80.5,55.5C 80.4701,54.5028 80.9701,53.8361 82,53.5C 83.4397,54.1476 84.9397,54.4809 86.5,54.5 Z"/></g>
<g><path style="opacity:1" fill="#f0ec45" d="M 152.5,45.5 C 154.975,51.2603 156.642,57.2603 157.5,63.5C 157.5,65.5 156.5,66.5 154.5,66.5C 150.833,63.5 147.5,60.1667 144.5,56.5C 145.583,56.5394 146.583,56.8728 147.5,57.5C 148.724,56.2338 150.057,55.0672 151.5,54C 151.454,51.8978 150.454,49.8978 148.5,48C 149.471,46.5187 150.804,45.6854 152.5,45.5 Z"/></g>
<g><path style="opacity:1" fill="#92b2ad" d="M 174.5,63.5 C 172.643,61.7185 171.643,59.3852 171.5,56.5C 172.892,54.7274 174.059,52.7274 175,50.5C 172.567,65.7305 173.567,66.0639 178,51.5C 178.27,55.9498 177.103,59.9498 174.5,63.5 Z"/></g>
<g><path style="opacity:1" fill="#32312e" d="M 191.5,61.5 C 191.709,60.0783 192.209,58.745 193,57.5C 193.773,59.3524 193.273,60.6857 191.5,61.5 Z"/></g>
<g><path style="opacity:1" fill="#e8e656" d="M 103.5,56.5 C 104.5,56.5 105.5,56.5 106.5,56.5C 106.392,58.5138 107.058,60.1805 108.5,61.5C 106.431,64.5725 103.764,66.9059 100.5,68.5C 101.246,64.4346 102.246,60.4346 103.5,56.5 Z"/></g>
<g><path style="opacity:1" fill="#469cd0" d="M 54.5,43.5 C 53.7659,44.7079 53.4326,46.0413 53.5,47.5C 51.0311,48.6067 50.0311,50.6067 50.5,53.5C 47.9158,53.5688 45.9158,54.7355 44.5,57C 48.0932,57.6844 48.4265,59.1844 45.5,61.5C 46.989,61.5331 48.3224,62.0331 49.5,63C 47.0614,63.5334 46.3948,64.7 47.5,66.5C 44.5738,65.2903 43.5738,63.2903 44.5,60.5C 44.1992,58.5784 43.5325,56.9117 42.5,55.5C 45.5213,50.4787 49.5213,46.4787 54.5,43.5 Z"/></g>
<g><path style="opacity:1" fill="#ad6f27" d="M 157.5,63.5 C 158.612,65.5994 159.279,67.9327 159.5,70.5C 157.246,69.8763 155.579,68.543 154.5,66.5C 156.5,66.5 157.5,65.5 157.5,63.5 Z"/></g>
<g><path style="opacity:1" fill="#339198" d="M 72.5,69.5 C 73.5624,70.5754 73.5624,71.5754 72.5,72.5C 70.3955,71.1018 68.3955,69.6018 66.5,68C 67.6174,66.1079 69.2841,65.2746 71.5,65.5C 71.2322,67.099 71.5655,68.4324 72.5,69.5 Z"/></g>
<g><path style="opacity:1" fill="#37322e" d="M 191.5,61.5 C 191.494,64.5176 190.494,67.1843 188.5,69.5C 188.709,70.086 189.043,70.586 189.5,71C 185.348,74.8258 182.348,79.3258 180.5,84.5C 183.01,76.4166 184.176,68.0833 184,59.5C 184.187,61.8911 185.02,63.0577 186.5,63C 185.483,65.7866 185.316,68.62 186,71.5C 187.593,67.9758 189.427,64.6424 191.5,61.5 Z"/></g>
<g><path style="opacity:1" fill="#44a3b8" d="M 47.5,66.5 C 49.1765,67.1834 49.8432,68.5168 49.5,70.5C 50.5,70.5 51.5,70.5 52.5,70.5C 52.5,69.5 52.5,68.5 52.5,67.5C 53.552,67.3505 54.552,67.5172 55.5,68C 53.8908,71.4403 51.2241,73.6069 47.5,74.5C 47.0623,73.4937 46.3957,73.4937 45.5,74.5C 46.6607,72.8174 47.6607,70.984 48.5,69C 48.2568,68.0979 47.9234,67.2646 47.5,66.5 Z"/></g>
<g><path style="opacity:1" fill="#3caebf" d="M 45.5,74.5 C 44.1225,75.2344 42.6225,75.9011 41,76.5C 40.8119,78.0613 41.6453,78.728 43.5,78.5C 43.4139,80.677 42.7472,82.677 41.5,84.5C 42.7472,86.323 43.4139,88.323 43.5,90.5C 43.4142,91.4959 43.7476,92.3292 44.5,93C 42.6476,93.7726 41.3143,93.2726 40.5,91.5C 41.4972,91.5299 42.1639,91.0299 42.5,90C 41.8883,87.9423 40.8883,86.109 39.5,84.5C 40.1667,83.5 40.8333,82.5 41.5,81.5C 39.9263,80.0158 38.593,78.3492 37.5,76.5C 38.5145,75.3185 39.6812,74.3185 41,73.5C 42.4397,74.1476 43.9397,74.4809 45.5,74.5 Z"/></g>
<g><path style="opacity:1" fill="#3a3833" d="M 194.5,83.5 C 196.3,81.1717 197.467,78.505 198,75.5C 198.925,76.0465 199.758,76.7132 200.5,77.5C 198.812,79.8545 196.812,81.8545 194.5,83.5 Z"/></g>
<g><path style="opacity:1" fill="#0ac563" d="M 47.5,74.5 C 48.8062,75.4674 49.4729,76.8007 49.5,78.5C 50.552,78.3505 51.552,78.5172 52.5,79C 53.2567,80.5122 54.2567,81.8455 55.5,83C 59.7974,84.1427 61.6307,86.9761 61,91.5C 62.7323,88.0229 64.899,87.6896 67.5,90.5C 67.1788,92.0481 66.1788,92.7148 64.5,92.5C 64.2148,94.288 64.5481,95.9547 65.5,97.5C 68.071,98.9947 70.4043,100.661 72.5,102.5C 70.22,106.957 68.5533,111.623 67.5,116.5C 66.8826,116.611 66.3826,116.944 66,117.5C 65.7828,114.512 64.7828,111.845 63,109.5C 62.3878,112.032 60.8878,112.865 58.5,112C 56.5,110.667 54.5,109.333 52.5,108C 53.8825,106.539 53.5492,105.706 51.5,105.5C 50.7109,105.217 50.0442,104.717 49.5,104C 50.7279,102.51 50.7279,101.01 49.5,99.5C 50.8333,99.5 52.1667,99.5 53.5,99.5C 53.7678,97.901 53.4345,96.5676 52.5,95.5C 52.5,94.5 52.5,93.5 52.5,92.5C 51.0695,92.4208 49.7362,92.7542 48.5,93.5C 46.9713,92.2371 45.3046,91.2371 43.5,90.5C 43.4139,88.323 42.7472,86.323 41.5,84.5C 42.7472,82.677 43.4139,80.677 43.5,78.5C 41.6453,78.728 40.8119,78.0613 41,76.5C 42.6225,75.9011 44.1225,75.2344 45.5,74.5C 46.3957,73.4937 47.0623,73.4937 47.5,74.5 Z"/></g>
<g><path style="opacity:1" fill="#4fa6f8" d="M 42.5,55.5 C 43.5325,56.9117 44.1992,58.5784 44.5,60.5C 43.5738,63.2903 44.5738,65.2903 47.5,66.5C 47.9234,67.2646 48.2568,68.0979 48.5,69C 47.6607,70.984 46.6607,72.8174 45.5,74.5C 43.9397,74.4809 42.4397,74.1476 41,73.5C 39.6812,74.3185 38.5145,75.3185 37.5,76.5C 38.593,78.3492 39.9263,80.0158 41.5,81.5C 40.8333,82.5 40.1667,83.5 39.5,84.5C 40.8883,86.109 41.8883,87.9423 42.5,90C 42.1639,91.0299 41.4972,91.5299 40.5,91.5C 40.5,90.5 40.5,89.5 40.5,88.5C 37.5772,87.547 34.7439,87.2137 32,87.5C 30.951,89.1066 29.451,89.7733 27.5,89.5C 27.5,91.1667 27.5,92.8333 27.5,94.5C 28.8333,94.5 30.1667,94.5 31.5,94.5C 30.4537,96.8817 30.4537,99.2151 31.5,101.5C 32.1047,103.026 33.2714,104.026 35,104.5C 35.4696,105.577 35.3029,106.577 34.5,107.5C 31.8504,110.028 29.1838,110.028 26.5,107.5C 25.7564,108.991 25.0897,110.491 24.5,112C 23.2506,112.74 22.2506,112.573 21.5,111.5C 21.1788,109.952 20.1788,109.285 18.5,109.5C 19.6701,100.645 21.6701,91.978 24.5,83.5C 28.5366,72.8181 34.5366,63.4847 42.5,55.5 Z"/></g>
<g><path style="opacity:1" fill="#3cd150" d="M 80.5,87.5 C 79.8333,87.5 79.5,87.8333 79.5,88.5C 79.5,89.1667 79.5,89.8333 79.5,90.5C 78.8826,90.3893 78.3826,90.056 78,89.5C 76.9794,85.3252 77.8127,84.6585 80.5,87.5 Z"/></g>
<g><path style="opacity:1" fill="#798e89" d="M 194.5,83.5 C 191.814,87.8368 188.814,91.8368 185.5,95.5C 186.623,92.5648 187.623,89.5648 188.5,86.5C 189.086,86.7093 189.586,87.0426 190,87.5C 191.371,85.9586 192.871,84.6253 194.5,83.5 Z"/></g>
<g><path style="opacity:1" fill="#3ea1c5" d="M 40.5,91.5 C 39.2379,88.9292 37.9045,88.9292 36.5,91.5C 35.7836,90.689 34.9503,90.0223 34,89.5C 32.2399,90.6301 30.4066,91.6301 28.5,92.5C 29.6016,93.1757 30.6016,93.8423 31.5,94.5C 30.1667,94.5 28.8333,94.5 27.5,94.5C 27.5,92.8333 27.5,91.1667 27.5,89.5C 29.451,89.7733 30.951,89.1066 32,87.5C 34.7439,87.2137 37.5772,87.547 40.5,88.5C 40.5,89.5 40.5,90.5 40.5,91.5 Z"/></g>
<g><path style="opacity:1" fill="#199b5f" d="M 40.5,91.5 C 41.3143,93.2726 42.6476,93.7726 44.5,93C 43.7476,92.3292 43.4142,91.4959 43.5,90.5C 45.3046,91.2371 46.9713,92.2371 48.5,93.5C 49.7362,92.7542 51.0695,92.4208 52.5,92.5C 52.5,93.5 52.5,94.5 52.5,95.5C 53.4345,96.5676 53.7678,97.901 53.5,99.5C 52.1667,99.5 50.8333,99.5 49.5,99.5C 47.4352,99.4828 45.4352,99.1495 43.5,98.5C 41.3647,96.631 38.6981,95.9644 35.5,96.5C 35.6574,99.344 34.324,101.011 31.5,101.5C 30.4537,99.2151 30.4537,96.8817 31.5,94.5C 30.6016,93.8423 29.6016,93.1757 28.5,92.5C 30.4066,91.6301 32.2399,90.6301 34,89.5C 34.9503,90.0223 35.7836,90.689 36.5,91.5C 37.9045,88.9292 39.2379,88.9292 40.5,91.5 Z"/></g>
<g><path style="opacity:1" fill="#3f4a48" d="M 222.5,101.5 C 222.826,98.6887 223.659,96.022 225,93.5C 225.264,96.5391 224.431,99.2058 222.5,101.5 Z"/></g>
<g><path style="opacity:1" fill="#3eaac7" d="M 52.5,95.5 C 52.5,96.5 52.5,97.5 52.5,98.5C 45.4296,98.3803 44.9296,96.7136 51,93.5C 51.2784,94.4158 51.7784,95.0825 52.5,95.5 Z"/></g>
<g><path style="opacity:1" fill="#3a2d26" d="M 188.5,106.5 C 188.5,106.167 188.5,105.833 188.5,105.5C 189.014,103.634 189.68,101.8 190.5,100C 190.333,99.5 190.167,99 190,98.5C 189.329,99.2524 188.496,99.5858 187.5,99.5C 191.47,96.3613 194.97,92.6947 198,88.5C 198.333,89.1667 198.667,89.8333 199,90.5C 199.718,89.5494 200.551,89.3828 201.5,90C 195.843,94.4923 191.51,99.9923 188.5,106.5 Z"/></g>
<g><path style="opacity:1" fill="#2ace4e" d="M 75.5,96.5 C 75.0248,98.7837 74.0248,100.784 72.5,102.5C 70.4043,100.661 68.071,98.9947 65.5,97.5C 64.5481,95.9547 64.2148,94.288 64.5,92.5C 66.1788,92.7148 67.1788,92.0481 67.5,90.5C 68.8235,89.1501 69.8235,89.3167 70.5,91C 66.4083,94.0909 66.7417,96.0909 71.5,97C 72.354,95.9783 73.354,95.1449 74.5,94.5C 75.2975,94.9569 75.6309,95.6236 75.5,96.5 Z"/></g>
<g><path style="opacity:1" fill="#35f43b" d="M 43.5,98.5 C 45.4352,99.1495 47.4352,99.4828 49.5,99.5C 50.7279,101.01 50.7279,102.51 49.5,104C 50.0442,104.717 50.7109,105.217 51.5,105.5C 51.2671,107.062 50.6005,108.395 49.5,109.5C 48.1667,109.5 47.5,110.167 47.5,111.5C 44.5,111.5 41.5,111.5 38.5,111.5C 38.6716,110.508 38.3382,109.842 37.5,109.5C 37.1778,106.694 36.1778,104.194 34.5,102C 35.6853,100.647 37.0186,99.4803 38.5,98.5C 40.0026,99.0522 41.6693,99.0522 43.5,98.5 Z"/></g>
<g><path style="opacity:1" fill="#35d25f" d="M 43.5,98.5 C 41.6693,99.0522 40.0026,99.0522 38.5,98.5C 37.0186,99.4803 35.6853,100.647 34.5,102C 36.1778,104.194 37.1778,106.694 37.5,109.5C 35.8212,109.715 34.8212,109.048 34.5,107.5C 35.3029,106.577 35.4696,105.577 35,104.5C 33.2714,104.026 32.1047,103.026 31.5,101.5C 34.324,101.011 35.6574,99.344 35.5,96.5C 38.6981,95.9644 41.3647,96.631 43.5,98.5 Z"/></g>
<g><path style="opacity:1" fill="#49514d" d="M 211.5,99.5 C 213.842,99.7748 213.842,100.608 211.5,102C 210.365,102.749 209.365,102.583 208.5,101.5C 209.602,100.824 210.602,100.158 211.5,99.5 Z"/></g>
<g><path style="opacity:1" fill="#b7e2e0" d="M 188.5,105.5 C 185.195,103.933 184.862,101.933 187.5,99.5C 188.496,99.5858 189.329,99.2524 190,98.5C 190.167,99 190.333,99.5 190.5,100C 189.68,101.8 189.014,103.634 188.5,105.5 Z"/></g>
<g><path style="opacity:1" fill="#3a2114" d="M 192.5,122.5 C 191.622,118.664 190.956,114.664 190.5,110.5C 193.923,101.581 199.423,94.2481 207,88.5C 207.195,86.7928 207.195,85.1261 207,83.5C 207.333,83.1667 207.667,82.8333 208,82.5C 209.067,83.1905 210.234,83.6905 211.5,84C 207.028,89.8115 202.528,95.6448 198,101.5C 196.491,104.329 196.325,107.162 197.5,110C 195.968,112.034 194.635,114.201 193.5,116.5C 194.376,117.251 195.376,117.751 196.5,118C 194.365,118.876 193.031,120.376 192.5,122.5 Z"/></g>
<g><path style="opacity:1" fill="#788f88" d="M 225.5,112.5 C 225.158,113.338 224.492,113.672 223.5,113.5C 222.833,113.5 222.5,113.167 222.5,112.5C 223.713,109.775 225.546,107.441 228,105.5C 227.454,108.093 225.954,110.26 223.5,112C 224.094,112.464 224.761,112.631 225.5,112.5 Z"/></g>
<g><path style="opacity:1" fill="#738f8a" d="M 211.5,109.5 C 210.486,110.674 209.153,111.34 207.5,111.5C 206.167,111.5 204.833,111.5 203.5,111.5C 205.241,109.023 206.741,106.356 208,103.5C 208.429,105.669 207.929,107.669 206.5,109.5C 208.003,110.052 209.669,110.052 211.5,109.5 Z"/></g>
<g><path style="opacity:1" fill="#073144" d="M 129.5,43.5 C 131.772,44.4411 133.772,45.7745 135.5,47.5C 138.719,50.2635 141.719,53.2635 144.5,56.5C 147.5,60.1667 150.833,63.5 154.5,66.5C 155.579,68.543 157.246,69.8763 159.5,70.5C 164.482,76.9815 169.982,82.9815 176,88.5C 176.494,86.8659 176.66,85.1992 176.5,83.5C 177.29,84.6085 177.79,85.9419 178,87.5C 178.852,86.4293 179.685,85.4293 180.5,84.5C 179.658,87.154 179.158,89.8206 179,92.5C 180.574,93.9842 181.907,95.6508 183,97.5C 183.708,96.6195 184.542,95.9528 185.5,95.5C 185.461,96.5832 185.127,97.5832 184.5,98.5C 185.325,99.3857 186.325,99.719 187.5,99.5C 184.862,101.933 185.195,103.933 188.5,105.5C 188.5,105.833 188.5,106.167 188.5,106.5C 188.157,108.483 188.824,109.817 190.5,110.5C 190.956,114.664 191.622,118.664 192.5,122.5C 192.5,127.5 192.5,132.5 192.5,137.5C 191.596,138.209 191.263,139.209 191.5,140.5C 191.296,143.518 190.963,146.518 190.5,149.5C 195.58,149.25 200.58,149.75 205.5,151C 200.141,150.681 194.808,150.848 189.5,151.5C 188.487,154.188 187.487,156.854 186.5,159.5C 186.5,159.833 186.5,160.167 186.5,160.5C 183.5,164.5 180.5,168.5 177.5,172.5C 172.389,179.278 166.055,184.611 158.5,188.5C 156.176,189.656 153.843,190.656 151.5,191.5C 150.833,191.5 150.167,191.5 149.5,191.5C 147.161,192.634 144.827,193.634 142.5,194.5C 140.167,194.5 137.833,194.5 135.5,194.5C 135.5,198.167 135.5,201.833 135.5,205.5C 134.799,202.437 134.132,199.27 133.5,196C 126.065,195.85 118.732,195.017 111.5,193.5C 107.876,192.258 104.376,190.591 101,188.5C 100.601,188.728 100.435,189.062 100.5,189.5C 94.4744,186.136 89.1411,181.803 84.5,176.5C 82.9547,175.548 81.288,175.215 79.5,175.5C 79.9819,172.169 78.9819,169.503 76.5,167.5C 75.2485,165.999 74.2485,164.332 73.5,162.5C 73.0113,161.005 72.3446,159.671 71.5,158.5C 70.1406,154.747 68.8073,151.081 67.5,147.5C 65.7699,141.72 65.1032,135.72 65.5,129.5C 65.652,125.076 66.3187,120.743 67.5,116.5C 68.5533,111.623 70.22,106.957 72.5,102.5C 74.0248,100.784 75.0248,98.7837 75.5,96.5C 77.316,94.8816 78.6493,92.8816 79.5,90.5C 79.5,89.8333 79.5,89.1667 79.5,88.5C 80.2679,89.2625 80.7679,90.2625 81,91.5C 81.3333,90.5 81.6667,89.5 82,88.5C 88.7683,82.2378 94.935,75.5712 100.5,68.5C 103.764,66.9059 106.431,64.5725 108.5,61.5C 112.833,56.5 117.5,51.8333 122.5,47.5C 124.363,45.2947 126.697,43.9613 129.5,43.5 Z"/></g>
<g><path style="opacity:1" fill="#9db01a" d="M 177.5,110.5 C 178.81,115.076 179.81,119.743 180.5,124.5C 177.992,126.924 174.992,128.59 171.5,129.5C 170.883,129.389 170.383,129.056 170,128.5C 169.883,122.577 168.716,116.911 166.5,111.5C 169.279,110.05 172.279,109.05 175.5,108.5C 176.713,108.747 177.38,109.414 177.5,110.5 Z"/></g>
<g><path style="opacity:1" fill="#b0c94c" d="M 166.5,111.5 C 168.716,116.911 169.883,122.577 170,128.5C 170.383,129.056 170.883,129.389 171.5,129.5C 167.452,131.975 162.952,133.308 158,133.5C 153.157,132.748 148.324,131.915 143.5,131C 130.865,126.081 118.532,120.914 106.5,115.5C 105.192,114.768 103.858,113.934 102.5,113C 95.8804,111.863 89.2137,111.363 82.5,111.5C 82.5,110.5 82.5,109.5 82.5,108.5C 84.9332,101.398 89.2666,95.731 95.5,91.5C 112.433,98.3087 129.433,104.809 146.5,111C 153.158,111.5 159.825,111.666 166.5,111.5 Z"/></g>
<g><path style="opacity:1" fill="#81ad20" d="M 123.5,63.5 C 135.965,75.4647 148.298,87.6313 160.5,100C 154.909,99.2459 149.242,98.7459 143.5,98.5C 130.19,93.3902 116.857,88.0569 103.5,82.5C 109.55,75.4485 116.216,69.1152 123.5,63.5 Z"/></g>
<g><path style="opacity:1" fill="#719a28" d="M 143.5,98.5 C 149.242,98.7459 154.909,99.2459 160.5,100C 148.298,87.6313 135.965,75.4647 123.5,63.5C 124.263,61.4325 125.596,59.7659 127.5,58.5C 128.365,57.4173 129.365,57.2506 130.5,58C 143.333,70.8333 156.167,83.6667 169,96.5C 169.749,97.635 169.583,98.635 168.5,99.5C 159.945,102.275 151.612,101.941 143.5,98.5 Z"/></g>
<g><path style="opacity:1" fill="#96b062" d="M 82.5,108.5 C 82.5,109.5 82.5,110.5 82.5,111.5C 89.2137,111.363 95.8804,111.863 102.5,113C 103.858,113.934 105.192,114.768 106.5,115.5C 98.5491,112.988 90.3824,112.321 82,113.5C 79.2774,112.083 79.4441,110.416 82.5,108.5 Z"/></g>
<g><path style="opacity:1" fill="#71807a" d="M 225.5,112.5 C 227.591,110.085 229.924,109.585 232.5,111C 230.187,111.662 227.854,112.162 225.5,112.5 Z"/></g>
<g><path style="opacity:1" fill="#086012" d="M 51.5,105.5 C 53.5492,105.706 53.8825,106.539 52.5,108C 54.5,109.333 56.5,110.667 58.5,112C 60.8878,112.865 62.3878,112.032 63,109.5C 64.7828,111.845 65.7828,114.512 66,117.5C 66.3826,116.944 66.8826,116.611 67.5,116.5C 66.3187,120.743 65.652,125.076 65.5,129.5C 65.1667,129.5 64.8333,129.5 64.5,129.5C 63.3126,127.025 61.3126,126.025 58.5,126.5C 56.5259,124.713 54.0259,123.713 51,123.5C 50,123.833 49,124.167 48,124.5C 46.9895,124.108 46.4895,123.441 46.5,122.5C 45.5224,122.977 44.6891,123.643 44,124.5C 39.5199,122.974 35.3532,123.641 31.5,126.5C 31.6567,125.127 31.49,123.793 31,122.5C 30.7104,124.044 30.0437,125.377 29,126.5C 27.4169,124.607 25.9169,122.607 24.5,120.5C 23.5224,120.977 22.6891,121.643 22,122.5C 21.7216,121.584 21.2216,120.918 20.5,120.5C 19.4692,117.17 18.8026,114.003 18.5,111C 19.5768,110.53 20.5768,110.697 21.5,111.5C 22.2506,112.573 23.2506,112.74 24.5,112C 25.0897,110.491 25.7564,108.991 26.5,107.5C 29.1838,110.028 31.8504,110.028 34.5,107.5C 34.8212,109.048 35.8212,109.715 37.5,109.5C 38.3382,109.842 38.6716,110.508 38.5,111.5C 37.4808,113.54 37.4808,115.54 38.5,117.5C 39.1924,116.975 39.6924,116.308 40,115.5C 40.5613,116.022 41.228,116.355 42,116.5C 43.5072,115.445 45.0072,114.445 46.5,113.5C 46.7291,118.402 49.0625,120.068 53.5,118.5C 50.0472,117.521 49.7138,116.021 52.5,114C 51.376,113.751 50.376,113.251 49.5,112.5C 50.6527,111.313 50.6527,110.313 49.5,109.5C 50.6005,108.395 51.2671,107.062 51.5,105.5 Z"/></g>
<g><path style="opacity:1" fill="#2d8f81" d="M 38.5,111.5 C 41.5,111.5 44.5,111.5 47.5,111.5C 47.6716,112.492 47.3382,113.158 46.5,113.5C 45.0072,114.445 43.5072,115.445 42,116.5C 41.228,116.355 40.5613,116.022 40,115.5C 39.6924,116.308 39.1924,116.975 38.5,117.5C 37.4808,115.54 37.4808,113.54 38.5,111.5 Z"/></g>
<g><path style="opacity:1" fill="#33bf3c" d="M 49.5,109.5 C 50.6527,110.313 50.6527,111.313 49.5,112.5C 50.376,113.251 51.376,113.751 52.5,114C 49.7138,116.021 50.0472,117.521 53.5,118.5C 49.0625,120.068 46.7291,118.402 46.5,113.5C 47.3382,113.158 47.6716,112.492 47.5,111.5C 47.5,110.167 48.1667,109.5 49.5,109.5 Z"/></g>
<g><path style="opacity:1" fill="#6c873d" d="M 177.5,110.5 C 180.43,114.87 181.43,119.537 180.5,124.5C 179.81,119.743 178.81,115.076 177.5,110.5 Z"/></g>
<g><path style="opacity:1" fill="#2e2e2a" d="M 203.5,111.5 C 204.833,111.5 206.167,111.5 207.5,111.5C 205.36,113.237 203.027,114.404 200.5,115C 201.71,113.961 202.71,112.794 203.5,111.5 Z"/></g>
<g><path style="opacity:1" fill="#12c263" d="M 58.5,126.5 C 55.5448,127.159 52.5448,127.492 49.5,127.5C 49.7035,129.39 49.0368,130.89 47.5,132C 48.8491,132.772 49.6824,133.939 50,135.5C 50.8261,133.595 51.9928,133.261 53.5,134.5C 51.565,135.213 51.2317,136.213 52.5,137.5C 50.9826,137.511 49.8159,138.177 49,139.5C 48.6667,138.833 48.3333,138.167 48,137.5C 46.5861,138.413 45.0861,138.413 43.5,137.5C 41.2736,135.82 39.6069,136.153 38.5,138.5C 36.1964,137.837 33.8631,137.17 31.5,136.5C 30.5481,138.045 30.2148,139.712 30.5,141.5C 29.0413,141.433 27.7079,141.766 26.5,142.5C 24.871,140.804 25.2043,139.804 27.5,139.5C 29.2252,139.157 29.7252,138.157 29,136.5C 27.1114,135.903 25.2781,135.569 23.5,135.5C 24.1925,134.482 24.8592,133.482 25.5,132.5C 27.4572,130.509 29.4572,128.509 31.5,126.5C 35.3532,123.641 39.5199,122.974 44,124.5C 44.6891,123.643 45.5224,122.977 46.5,122.5C 46.4895,123.441 46.9895,124.108 48,124.5C 49,124.167 50,123.833 51,123.5C 54.0259,123.713 56.5259,124.713 58.5,126.5 Z"/></g>
<g><path style="opacity:1" fill="#86ccf0" d="M 167.5,143.5 C 162.43,160.716 150.764,171.55 132.5,176C 118.162,178.498 105.162,175.498 93.5,167C 90.568,163.558 87.2347,160.725 83.5,158.5C 78.0358,148.962 75.8691,138.628 77,127.5C 82.2429,123.773 88.0762,122.607 94.5,124C 97.1667,124.667 99.8333,125.333 102.5,126C 114.72,131.277 127.053,136.277 139.5,141C 148.699,143.178 158.032,144.011 167.5,143.5 Z"/></g>
<g><path style="opacity:1" fill="#0bf87c" d="M 58.5,126.5 C 61.3126,126.025 63.3126,127.025 64.5,129.5C 64.0347,135.684 64.7014,141.684 66.5,147.5C 66.5654,147.938 66.3988,148.272 66,148.5C 64.5557,146.845 62.7224,146.178 60.5,146.5C 60.4802,144.857 61.1468,143.524 62.5,142.5C 60.9564,141.378 59.623,141.711 58.5,143.5C 56.0428,141.999 56.0428,140.332 58.5,138.5C 56.9272,136.164 55.5939,136.164 54.5,138.5C 53.8165,138.137 53.1499,137.804 52.5,137.5C 51.2317,136.213 51.565,135.213 53.5,134.5C 51.9928,133.261 50.8261,133.595 50,135.5C 49.6824,133.939 48.8491,132.772 47.5,132C 49.0368,130.89 49.7035,129.39 49.5,127.5C 52.5448,127.492 55.5448,127.159 58.5,126.5 Z"/></g>
<g><path style="opacity:1" fill="#3699a1" d="M 20.5,120.5 C 21.2216,120.918 21.7216,121.584 22,122.5C 22.6891,121.643 23.5224,120.977 24.5,120.5C 25.9169,122.607 27.4169,124.607 29,126.5C 30.0437,125.377 30.7104,124.044 31,122.5C 31.49,123.793 31.6567,125.127 31.5,126.5C 29.4572,128.509 27.4572,130.509 25.5,132.5C 25.75,129.786 25.9167,127.119 26,124.5C 22.6031,125.539 20.7698,124.206 20.5,120.5 Z"/></g>
<g><path style="opacity:1" fill="#9cc8c6" d="M 237.5,106.5 C 239.001,113.27 239.667,120.27 239.5,127.5C 239.667,134.73 239.001,141.73 237.5,148.5C 238.264,134.484 238.264,120.484 237.5,106.5 Z"/></g>
<g><path style="opacity:1" fill="#231714" d="M 230.5,131.5 C 228.901,131.768 227.568,131.434 226.5,130.5C 228.017,130.489 229.184,129.823 230,128.5C 230.374,129.416 230.874,130.25 231.5,131C 231.272,131.399 230.938,131.565 230.5,131.5 Z"/></g>
<g><path style="opacity:1" fill="#85a5a1" d="M 226.5,130.5 C 227.568,131.434 228.901,131.768 230.5,131.5C 226.705,132.617 222.705,133.283 218.5,133.5C 217.391,133.443 216.391,133.11 215.5,132.5C 216.562,130.243 218.228,129.077 220.5,129C 219.5,130 218.5,131 217.5,132C 220.576,132.086 223.576,131.586 226.5,130.5 Z"/></g>
<g><path style="opacity:1" fill="#322b25" d="M 221.5,136.5 C 223.364,135.207 225.364,135.207 227.5,136.5C 225.674,136.92 223.674,136.92 221.5,136.5 Z"/></g>
<g><path style="opacity:1" fill="#4b9be1" d="M 24.5,83.5 C 21.6701,91.978 19.6701,100.645 18.5,109.5C 20.1788,109.285 21.1788,109.952 21.5,111.5C 20.5768,110.697 19.5768,110.53 18.5,111C 18.8026,114.003 19.4692,117.17 20.5,120.5C 20.7698,124.206 22.6031,125.539 26,124.5C 25.9167,127.119 25.75,129.786 25.5,132.5C 24.8592,133.482 24.1925,134.482 23.5,135.5C 25.2781,135.569 27.1114,135.903 29,136.5C 29.7252,138.157 29.2252,139.157 27.5,139.5C 26.5,138.167 25.5,138.167 24.5,139.5C 22.9826,139.511 21.8159,140.177 21,141.5C 20.6924,140.692 20.1924,140.025 19.5,139.5C 18.3391,143.795 18.1725,148.129 19,152.5C 21.3292,158.323 23.1625,164.323 24.5,170.5C 25.791,170.263 26.791,170.596 27.5,171.5C 26.5,171.5 25.5,171.5 24.5,171.5C 18.1331,157.829 15.1331,143.329 15.5,128C 14.8728,112.301 17.8728,97.4678 24.5,83.5 Z"/></g>
<g><path style="opacity:1" fill="#33f998" d="M 38.5,138.5 C 38.8333,139.5 39.5,140.167 40.5,140.5C 40.0472,141.458 39.3805,142.292 38.5,143C 39.448,143.483 40.448,143.649 41.5,143.5C 41.8162,147.472 43.6495,150.472 47,152.5C 48.1068,151.288 48.6068,151.621 48.5,153.5C 47.1779,153.33 46.0113,153.663 45,154.5C 40.9712,151.791 36.9712,149.125 33,146.5C 32.6924,147.308 32.1924,147.975 31.5,148.5C 30.9955,145.658 29.3289,144.325 26.5,144.5C 26.5,143.833 26.5,143.167 26.5,142.5C 27.7079,141.766 29.0413,141.433 30.5,141.5C 30.2148,139.712 30.5481,138.045 31.5,136.5C 33.8631,137.17 36.1964,137.837 38.5,138.5 Z"/></g>
<g><path style="opacity:1" fill="#23cc7f" d="M 64.5,129.5 C 64.8333,129.5 65.1667,129.5 65.5,129.5C 65.1032,135.72 65.7699,141.72 67.5,147.5C 67.1667,147.5 66.8333,147.5 66.5,147.5C 64.7014,141.684 64.0347,135.684 64.5,129.5 Z"/></g>
<g><path style="opacity:1" fill="#342822" d="M 222.5,101.5 C 222.33,102.822 222.663,103.989 223.5,105C 220.236,107.804 218.736,111.304 219,115.5C 220.039,114.29 221.206,113.29 222.5,112.5C 222.5,113.167 222.833,113.5 223.5,113.5C 216.743,120.119 210.076,126.953 203.5,134C 207.806,134.912 211.806,134.412 215.5,132.5C 216.391,133.11 217.391,133.443 218.5,133.5C 218.611,134.117 218.944,134.617 219.5,135C 216.139,135.337 212.806,135.837 209.5,136.5C 202.832,134.835 196.832,136.168 191.5,140.5C 191.263,139.209 191.596,138.209 192.5,137.5C 195.168,135.664 197.334,133.331 199,130.5C 198.737,131.951 198.904,133.284 199.5,134.5C 203.442,132.062 206.942,129.062 210,125.5C 214.432,120.637 217.265,114.97 218.5,108.5C 216.194,108.993 213.861,109.326 211.5,109.5C 213.148,108.073 215.148,107.24 217.5,107C 219.402,105.27 221.069,103.437 222.5,101.5 Z"/></g>
<g><path style="opacity:1" fill="#3ea1c8" d="M 43.5,137.5 C 43.5,139.5 42.5,140.5 40.5,140.5C 39.5,140.167 38.8333,139.5 38.5,138.5C 39.6069,136.153 41.2736,135.82 43.5,137.5 Z"/></g>
<g><path style="opacity:1" fill="#37b8b9" d="M 27.5,139.5 C 25.2043,139.804 24.871,140.804 26.5,142.5C 26.5,143.167 26.5,143.833 26.5,144.5C 27.4293,145.315 28.4293,146.148 29.5,147C 27.9336,147.608 26.6002,148.442 25.5,149.5C 25.1617,146.164 24.8283,142.831 24.5,139.5C 25.5,138.167 26.5,138.167 27.5,139.5 Z"/></g>
<g><path style="opacity:1" fill="#66b4d9" d="M 83.5,158.5 C 87.2347,160.725 90.568,163.558 93.5,167C 105.162,175.498 118.162,178.498 132.5,176C 150.764,171.55 162.43,160.716 167.5,143.5C 171.935,141.902 176.268,139.902 180.5,137.5C 179.345,154.616 171.345,167.782 156.5,177C 126.775,191.319 102.441,185.153 83.5,158.5 Z"/></g>
<g><path style="opacity:1" fill="#0db21f" d="M 60.5,146.5 C 62.7224,146.178 64.5557,146.845 66,148.5C 66.3988,148.272 66.5654,147.938 66.5,147.5C 66.8333,147.5 67.1667,147.5 67.5,147.5C 66.6572,152.094 67.9906,155.761 71.5,158.5C 71.5858,159.496 71.2524,160.329 70.5,161C 67.5682,161.953 64.5682,162.453 61.5,162.5C 61.5,161.5 61.5,160.5 61.5,159.5C 60.5,159.5 59.5,159.5 58.5,159.5C 56.9731,159.573 55.9731,158.906 55.5,157.5C 52.6947,156.895 50.3613,155.562 48.5,153.5C 48.6068,151.621 48.1068,151.288 47,152.5C 43.6495,150.472 41.8162,147.472 41.5,143.5C 42.8549,140.232 44.6883,139.898 47,142.5C 47.6739,141.422 48.6739,140.755 50,140.5C 53.8447,141.165 56.3447,143.331 57.5,147C 58.5768,147.47 59.5768,147.303 60.5,146.5 Z"/></g>
<g><path style="opacity:1" fill="#29b670" d="M 60.5,146.5 C 59.5768,147.303 58.5768,147.47 57.5,147C 56.3447,143.331 53.8447,141.165 50,140.5C 48.6739,140.755 47.6739,141.422 47,142.5C 44.6883,139.898 42.8549,140.232 41.5,143.5C 40.448,143.649 39.448,143.483 38.5,143C 39.3805,142.292 40.0472,141.458 40.5,140.5C 42.5,140.5 43.5,139.5 43.5,137.5C 45.0861,138.413 46.5861,138.413 48,137.5C 48.3333,138.167 48.6667,138.833 49,139.5C 49.8159,138.177 50.9826,137.511 52.5,137.5C 53.1499,137.804 53.8165,138.137 54.5,138.5C 55.5939,136.164 56.9272,136.164 58.5,138.5C 56.0428,140.332 56.0428,141.999 58.5,143.5C 59.623,141.711 60.9564,141.378 62.5,142.5C 61.1468,143.524 60.4802,144.857 60.5,146.5 Z"/></g>
<g><path style="opacity:1" fill="#fcfcfc" d="M 254.5,139.5 C 254.833,139.5 255.167,139.5 255.5,139.5C 255.5,178.167 255.5,216.833 255.5,255.5C 216.5,255.5 177.5,255.5 138.5,255.5C 138.5,255.167 138.5,254.833 138.5,254.5C 151.189,253.262 163.523,250.428 175.5,246C 221.497,225.159 247.83,189.659 254.5,139.5 Z"/></g>
<g><path style="opacity:1" fill="#f7fdfc" d="M 92.5,142.5 C 94.5273,142.338 96.5273,142.505 98.5,143C 102.238,150.073 107.404,155.906 114,160.5C 114.627,169.198 111.127,171.365 103.5,167C 96.8477,162.031 92.1811,155.697 89.5,148C 89.8627,145.808 90.8627,143.974 92.5,142.5 Z"/></g>
<g><path style="opacity:1" fill="#12c56c" d="M 26.5,144.5 C 29.3289,144.325 30.9955,145.658 31.5,148.5C 32.1924,147.975 32.6924,147.308 33,146.5C 36.9712,149.125 40.9712,151.791 45,154.5C 46.0113,153.663 47.1779,153.33 48.5,153.5C 50.3613,155.562 52.6947,156.895 55.5,157.5C 53.8561,157.286 52.3561,157.62 51,158.5C 50.654,160.218 50.154,161.885 49.5,163.5C 49.9569,164.298 50.6236,164.631 51.5,164.5C 51.4142,165.496 51.7476,166.329 52.5,167C 60.4313,171.972 60.0979,172.472 51.5,168.5C 50.6143,169.325 50.281,170.325 50.5,171.5C 47.0504,172.244 45.3838,170.91 45.5,167.5C 42.5825,167.635 39.9158,166.968 37.5,165.5C 38.0547,161.416 37.0547,160.749 34.5,163.5C 33.8333,161.5 33.1667,159.5 32.5,157.5C 31.7348,158.612 30.7348,159.279 29.5,159.5C 29.1667,159.5 28.8333,159.5 28.5,159.5C 27.5515,156.86 26.5515,154.193 25.5,151.5C 26.8333,150.833 26.8333,150.167 25.5,149.5C 26.6002,148.442 27.9336,147.608 29.5,147C 28.4293,146.148 27.4293,145.315 26.5,144.5 Z"/></g>
<g><path style="opacity:1" fill="#fcfcfc" d="M -0.5,-0.5 C 38.1667,-0.5 76.8333,-0.5 115.5,-0.5C 115.5,-0.166667 115.5,0.166667 115.5,0.5C 82.1864,3.73998 54.3531,17.74 32,42.5C -0.626663,82.2991 -8.29333,126.632 9,175.5C 28.2456,219.244 61.4123,245.244 108.5,253.5C 109.833,254.167 111.167,254.833 112.5,255.5C 74.8333,255.5 37.1667,255.5 -0.5,255.5C -0.5,170.167 -0.5,84.8333 -0.5,-0.5 Z"/></g>
<g><path style="opacity:1" fill="#5a706c" d="M 212.5,148.5 C 214.379,148.393 214.712,148.893 213.5,150C 220.833,150.333 228.167,150.667 235.5,151C 230.833,151.333 226.167,151.667 221.5,152C 220.5,152.5 219.5,153 218.5,153.5C 215.422,151.87 212.089,151.037 208.5,151C 210.32,150.8 211.653,149.966 212.5,148.5 Z"/></g>
<g><path style="opacity:1" fill="#23b56e" d="M 67.5,147.5 C 68.8073,151.081 70.1406,154.747 71.5,158.5C 67.9906,155.761 66.6572,152.094 67.5,147.5 Z"/></g>
<g><path style="opacity:1" fill="#2bafb8" d="M 25.5,151.5 C 26.5515,154.193 27.5515,156.86 28.5,159.5C 25.7041,157.285 24.7041,154.619 25.5,151.5 Z"/></g>
<g><path style="opacity:1" fill="#708f8a" d="M 218.5,160.5 C 218.5,160.167 218.5,159.833 218.5,159.5C 218.918,158.778 219.584,158.278 220.5,158C 224.517,157.329 228.517,156.996 232.5,157C 227.774,158.005 223.107,159.172 218.5,160.5 Z"/></g>
<g><path style="opacity:1" fill="#379af5" d="M 24.5,139.5 C 24.8283,142.831 25.1617,146.164 25.5,149.5C 26.8333,150.167 26.8333,150.833 25.5,151.5C 24.7041,154.619 25.7041,157.285 28.5,159.5C 28.8333,159.5 29.1667,159.5 29.5,159.5C 31.3131,162.929 31.8131,166.596 31,170.5C 30.0764,172.495 28.9097,172.828 27.5,171.5C 26.791,170.596 25.791,170.263 24.5,170.5C 23.1625,164.323 21.3292,158.323 19,152.5C 18.1725,148.129 18.3391,143.795 19.5,139.5C 20.1924,140.025 20.6924,140.692 21,141.5C 21.8159,140.177 22.9826,139.511 24.5,139.5 Z"/></g>
<g><path style="opacity:1" fill="#3495c4" d="M 55.5,157.5 C 55.9731,158.906 56.9731,159.573 58.5,159.5C 56.615,161.053 55.615,163.053 55.5,165.5C 54.0413,165.567 52.7079,165.234 51.5,164.5C 50.6236,164.631 49.9569,164.298 49.5,163.5C 50.154,161.885 50.654,160.218 51,158.5C 52.3561,157.62 53.8561,157.286 55.5,157.5 Z"/></g>
<g><path style="opacity:1" fill="#3c3e3a" d="M 186.5,160.5 C 186.5,160.167 186.5,159.833 186.5,159.5C 190.667,160.1 194.833,160.766 199,161.5C 200.436,161.441 201.769,161.108 203,160.5C 204.525,161.72 206.359,162.387 208.5,162.5C 212.159,162.49 215.492,161.49 218.5,159.5C 218.5,159.833 218.5,160.167 218.5,160.5C 217.373,161.122 216.373,161.955 215.5,163C 220.453,163.995 225.453,164.662 230.5,165C 229.227,167.758 227.56,168.091 225.5,166C 212.317,165.308 199.317,163.474 186.5,160.5 Z"/></g>
<g><path style="opacity:1" fill="#077c40" d="M 71.5,158.5 C 72.3446,159.671 73.0113,161.005 73.5,162.5C 72.0222,162.238 70.6888,162.571 69.5,163.5C 69.3048,165.265 69.3048,166.765 69.5,168C 72.184,170.145 74.5173,169.978 76.5,167.5C 78.9819,169.503 79.9819,172.169 79.5,175.5C 79.5,176.167 79.5,176.833 79.5,177.5C 77.0274,177.088 75.6941,178.088 75.5,180.5C 74.1667,180.5 72.8333,180.5 71.5,180.5C 71.7852,178.712 71.4519,177.045 70.5,175.5C 69.1724,178.148 67.5057,180.481 65.5,182.5C 64.603,183.598 63.7697,183.598 63,182.5C 61.9614,183.244 61.4614,184.244 61.5,185.5C 58.6655,184.931 56.9988,183.264 56.5,180.5C 53.0292,180.899 52.6958,182.399 55.5,185C 52.7182,186.548 50.0515,186.548 47.5,185C 44.2612,177.534 42.9278,177.701 43.5,185.5C 42.5178,184.859 41.5178,184.193 40.5,183.5C 39.8933,183.624 39.56,183.957 39.5,184.5C 36.7952,184.62 36.1285,183.62 37.5,181.5C 36.1916,180.374 34.8583,180.374 33.5,181.5C 30.8334,179.827 28.8334,177.493 27.5,174.5C 32.3634,173.974 34.6968,171.307 34.5,166.5C 35.791,166.737 36.791,166.404 37.5,165.5C 39.9158,166.968 42.5825,167.635 45.5,167.5C 45.3838,170.91 47.0504,172.244 50.5,171.5C 50.281,170.325 50.6143,169.325 51.5,168.5C 60.0979,172.472 60.4313,171.972 52.5,167C 51.7476,166.329 51.4142,165.496 51.5,164.5C 52.7079,165.234 54.0413,165.567 55.5,165.5C 55.615,163.053 56.615,161.053 58.5,159.5C 59.5,159.5 60.5,159.5 61.5,159.5C 61.5,160.5 61.5,161.5 61.5,162.5C 64.5682,162.453 67.5682,161.953 70.5,161C 71.2524,160.329 71.5858,159.496 71.5,158.5 Z"/></g>
<g><path style="opacity:1" fill="#208a74" d="M 37.5,165.5 C 36.791,166.404 35.791,166.737 34.5,166.5C 34.6968,171.307 32.3634,173.974 27.5,174.5C 28.8334,177.493 30.8334,179.827 33.5,181.5C 32.1667,181.5 30.8333,181.5 29.5,181.5C 27.3084,178.45 25.6417,175.117 24.5,171.5C 25.5,171.5 26.5,171.5 27.5,171.5C 28.9097,172.828 30.0764,172.495 31,170.5C 31.8131,166.596 31.3131,162.929 29.5,159.5C 30.7348,159.279 31.7348,158.612 32.5,157.5C 33.1667,159.5 33.8333,161.5 34.5,163.5C 37.0547,160.749 38.0547,161.416 37.5,165.5 Z"/></g>
<g><path style="opacity:1" fill="#1fd678" d="M 73.5,162.5 C 74.2485,164.332 75.2485,165.999 76.5,167.5C 74.5173,169.978 72.184,170.145 69.5,168C 69.3048,166.765 69.3048,165.265 69.5,163.5C 70.6888,162.571 72.0222,162.238 73.5,162.5 Z"/></g>
<g><path style="opacity:1" fill="#829895" d="M 199.5,180.5 C 198.508,180.328 197.842,180.662 197.5,181.5C 195.244,183.097 193.91,182.431 193.5,179.5C 194.376,179.631 195.043,179.298 195.5,178.5C 193.031,177.832 190.698,177.165 188.5,176.5C 194.212,176.456 199.879,176.289 205.5,176C 205.833,176.333 206.167,176.667 206.5,177C 203.118,177.176 199.785,177.676 196.5,178.5C 197.602,179.176 198.602,179.842 199.5,180.5 Z"/></g>
<g><path style="opacity:1" fill="#298788" d="M 79.5,177.5 C 79.2786,178.735 78.6119,179.735 77.5,180.5C 78.325,181.386 79.325,181.719 80.5,181.5C 79.4324,182.434 78.099,182.768 76.5,182.5C 76.1667,181.833 75.8333,181.167 75.5,180.5C 75.6941,178.088 77.0274,177.088 79.5,177.5 Z"/></g>
<g><path style="opacity:1" fill="#3791d7" d="M 79.5,177.5 C 80.8333,177.5 82.1667,177.5 83.5,177.5C 83.5,178.833 83.5,180.167 83.5,181.5C 82.5,181.5 81.5,181.5 80.5,181.5C 79.325,181.719 78.325,181.386 77.5,180.5C 78.6119,179.735 79.2786,178.735 79.5,177.5 Z"/></g>
<g><path style="opacity:1" fill="#2f8ea5" d="M 33.5,181.5 C 34.8583,180.374 36.1916,180.374 37.5,181.5C 36.1285,183.62 36.7952,184.62 39.5,184.5C 36.5605,185.526 33.8939,185.526 31.5,184.5C 30.0937,184.027 29.427,183.027 29.5,181.5C 30.8333,181.5 32.1667,181.5 33.5,181.5 Z"/></g>
<g><path style="opacity:1" fill="#28b27c" d="M 75.5,180.5 C 75.8333,181.167 76.1667,181.833 76.5,182.5C 75.0413,182.433 73.7079,182.766 72.5,183.5C 71.7838,180.988 70.7838,180.988 69.5,183.5C 69.6236,184.107 69.9569,184.44 70.5,184.5C 70.8333,185.167 71.1667,185.833 71.5,186.5C 68.4461,186.646 66.4461,185.313 65.5,182.5C 67.5057,180.481 69.1724,178.148 70.5,175.5C 71.4519,177.045 71.7852,178.712 71.5,180.5C 72.8333,180.5 74.1667,180.5 75.5,180.5 Z"/></g>
<g><path style="opacity:1" fill="#150e0b" d="M 197.5,181.5 C 197.842,180.662 198.508,180.328 199.5,180.5C 200.492,180.328 201.158,180.662 201.5,181.5C 200.036,182.405 198.702,182.405 197.5,181.5 Z"/></g>
<g><path style="opacity:1" fill="#3899e1" d="M 72.5,183.5 C 71.8333,183.833 71.1667,184.167 70.5,184.5C 69.9569,184.44 69.6236,184.107 69.5,183.5C 70.7838,180.988 71.7838,180.988 72.5,183.5 Z"/></g>
<g><path style="opacity:1" fill="#321f17" d="M 201.5,181.5 C 203.5,181.5 205.5,181.5 207.5,181.5C 207.719,182.675 207.386,183.675 206.5,184.5C 204.604,183.725 202.937,182.725 201.5,181.5 Z"/></g>
<g><path style="opacity:1" fill="#069313" d="M 65.5,182.5 C 66.4461,185.313 68.4461,186.646 71.5,186.5C 70.2317,187.787 70.565,188.787 72.5,189.5C 71.3595,190.425 71.3595,191.259 72.5,192C 71.4642,193.617 70.2975,193.784 69,192.5C 65.6333,194.567 63.8,197.567 63.5,201.5C 60.9931,197.581 58.4931,197.581 56,201.5C 55.586,201.043 55.086,200.709 54.5,200.5C 53.1456,202.184 51.4789,202.684 49.5,202C 50.7911,200.708 50.7911,199.542 49.5,198.5C 49.4326,197.041 49.7659,195.708 50.5,194.5C 51.5,194.167 52.1667,193.5 52.5,192.5C 54.1703,192.249 55.6703,191.582 57,190.5C 57.4186,191.672 58.0853,192.672 59,193.5C 60.1445,190.92 60.9778,188.253 61.5,185.5C 61.4614,184.244 61.9614,183.244 63,182.5C 63.7697,183.598 64.603,183.598 65.5,182.5 Z"/></g>
<g><path style="opacity:1" fill="#3899f2" d="M 39.5,184.5 C 39.56,183.957 39.8933,183.624 40.5,183.5C 41.5178,184.193 42.5178,184.859 43.5,185.5C 43.7086,186.922 44.2086,188.255 45,189.5C 45.9772,188.226 46.8106,188.226 47.5,189.5C 46.9569,189.56 46.6236,189.893 46.5,190.5C 48.7695,191.005 50.1028,192.338 50.5,194.5C 49.325,194.281 48.325,194.614 47.5,195.5C 48.6446,196.891 48.6446,198.224 47.5,199.5C 46.8333,198.833 46.1667,198.167 45.5,197.5C 44.7348,198.612 43.7348,199.279 42.5,199.5C 37.6817,195.348 34.015,190.348 31.5,184.5C 33.8939,185.526 36.5605,185.526 39.5,184.5 Z"/></g>
<g><path style="opacity:1" fill="#37e690" d="M 61.5,185.5 C 60.9778,188.253 60.1445,190.92 59,193.5C 58.0853,192.672 57.4186,191.672 57,190.5C 55.6703,191.582 54.1703,192.249 52.5,192.5C 52.6107,191.883 52.944,191.383 53.5,191C 51.5643,190.187 49.5643,189.687 47.5,189.5C 46.8106,188.226 45.9772,188.226 45,189.5C 44.2086,188.255 43.7086,186.922 43.5,185.5C 42.9278,177.701 44.2612,177.534 47.5,185C 50.0515,186.548 52.7182,186.548 55.5,185C 52.6958,182.399 53.0292,180.899 56.5,180.5C 56.9988,183.264 58.6655,184.931 61.5,185.5 Z"/></g>
<g><path style="opacity:1" fill="#0a7941" d="M 80.5,181.5 C 81.5,181.5 82.5,181.5 83.5,181.5C 84.4411,187.533 85.7745,193.533 87.5,199.5C 86.5041,199.586 85.6708,199.252 85,198.5C 84.8019,200.382 84.3019,202.048 83.5,203.5C 79.283,204.567 78.6164,206.567 81.5,209.5C 81.5761,212.767 80.2427,214.101 77.5,213.5C 76.2613,213.942 75.2613,214.609 74.5,215.5C 71.9967,216.256 69.6634,217.256 67.5,218.5C 64.17,217.849 63.8367,216.516 66.5,214.5C 65.8848,212.884 64.8848,211.551 63.5,210.5C 64.6119,209.735 65.2786,208.735 65.5,207.5C 64.8288,206.153 64.8288,204.986 65.5,204C 64.9558,203.283 64.2891,202.783 63.5,202.5C 63.5,202.167 63.5,201.833 63.5,201.5C 63.8,197.567 65.6333,194.567 69,192.5C 70.2975,193.784 71.4642,193.617 72.5,192C 71.3595,191.259 71.3595,190.425 72.5,189.5C 70.565,188.787 70.2317,187.787 71.5,186.5C 71.1667,185.833 70.8333,185.167 70.5,184.5C 71.1667,184.167 71.8333,183.833 72.5,183.5C 73.7079,182.766 75.0413,182.433 76.5,182.5C 78.099,182.768 79.4324,182.434 80.5,181.5 Z"/></g>
<g><path style="opacity:1" fill="#37cbb7" d="M 47.5,189.5 C 49.5643,189.687 51.5643,190.187 53.5,191C 52.944,191.383 52.6107,191.883 52.5,192.5C 52.1667,193.5 51.5,194.167 50.5,194.5C 50.1028,192.338 48.7695,191.005 46.5,190.5C 46.6236,189.893 46.9569,189.56 47.5,189.5 Z"/></g>
<g><path style="opacity:1" fill="#ebb783" d="M 111.5,193.5 C 111.631,194.239 111.464,194.906 111,195.5C 108.674,197.066 106.508,198.732 104.5,200.5C 103.883,200.389 103.383,200.056 103,199.5C 102.057,196.176 101.224,192.843 100.5,189.5C 100.435,189.062 100.601,188.728 101,188.5C 104.376,190.591 107.876,192.258 111.5,193.5 Z"/></g>
<g><path style="opacity:1" fill="#f2e550" d="M 149.5,191.5 C 150.167,191.5 150.833,191.5 151.5,191.5C 156.639,192.059 156.639,193.059 151.5,194.5C 150.449,193.778 149.782,192.778 149.5,191.5 Z"/></g>
<g><path style="opacity:1" fill="#442309" d="M 149.5,191.5 C 149.782,192.778 150.449,193.778 151.5,194.5C 149.878,198.239 151.211,200.239 155.5,200.5C 154.976,202.306 154.309,203.972 153.5,205.5C 151.856,203.519 150.19,201.519 148.5,199.5C 146.282,200.924 144.782,202.924 144,205.5C 139.854,215.327 138.687,225.327 140.5,235.5C 139.365,236.474 138.365,237.641 137.5,239C 131.804,239.83 126.137,239.663 120.5,238.5C 119.476,237.148 118.476,235.815 117.5,234.5C 118.658,224.675 118.825,214.675 118,204.5C 117.208,202.413 116.041,200.579 114.5,199C 111.015,198.674 107.682,199.174 104.5,200.5C 106.508,198.732 108.674,197.066 111,195.5C 111.464,194.906 111.631,194.239 111.5,193.5C 118.732,195.017 126.065,195.85 133.5,196C 134.132,199.27 134.799,202.437 135.5,205.5C 139.553,203.089 141.887,199.422 142.5,194.5C 144.827,193.634 147.161,192.634 149.5,191.5 Z"/></g>
<g><path style="opacity:1" fill="#e5b482" d="M 158.5,188.5 C 157.905,192.615 156.905,196.615 155.5,200.5C 151.211,200.239 149.878,198.239 151.5,194.5C 156.639,193.059 156.639,192.059 151.5,191.5C 153.843,190.656 156.176,189.656 158.5,188.5 Z"/></g>
<g><path style="opacity:1" fill="#daab7d" d="M 142.5,194.5 C 141.887,199.422 139.553,203.089 135.5,205.5C 135.5,201.833 135.5,198.167 135.5,194.5C 137.833,194.5 140.167,194.5 142.5,194.5 Z"/></g>
<g><path style="opacity:1" fill="#34231a" d="M 175.5,194.5 C 179.274,197.262 183.607,198.262 188.5,197.5C 190.199,197.34 191.866,197.506 193.5,198C 189.975,198.179 186.641,198.679 183.5,199.5C 182.427,200.251 182.26,201.251 183,202.5C 184.833,203.667 186.667,204.833 188.5,206C 187.692,206.308 187.025,206.808 186.5,207.5C 187.326,208.451 187.492,209.451 187,210.5C 183.158,205.47 179.325,200.47 175.5,195.5C 175.5,195.167 175.5,194.833 175.5,194.5 Z"/></g>
<g><path style="opacity:1" fill="#80908c" d="M 188.5,197.5 C 190.966,196.366 193.633,196.199 196.5,197C 195.833,197.333 195.167,197.667 194.5,198C 197.279,198.149 197.779,198.983 196,200.5C 191.934,199.536 187.767,199.203 183.5,199.5C 186.641,198.679 189.975,198.179 193.5,198C 191.866,197.506 190.199,197.34 188.5,197.5 Z"/></g>
<g><path style="opacity:1" fill="#15933c" d="M 49.5,198.5 C 50.7911,199.542 50.7911,200.708 49.5,202C 51.4789,202.684 53.1456,202.184 54.5,200.5C 55.086,200.709 55.586,201.043 56,201.5C 58.4931,197.581 60.9931,197.581 63.5,201.5C 63.5,201.833 63.5,202.167 63.5,202.5C 59.9264,203.967 56.2597,204.8 52.5,205C 50.9411,204.02 49.2744,203.187 47.5,202.5C 48.6302,201.378 49.2969,200.044 49.5,198.5 Z"/></g>
<g><path style="opacity:1" fill="#f2bb84" d="M 117.5,234.5 C 110.82,223.849 106.486,212.516 104.5,200.5C 107.682,199.174 111.015,198.674 114.5,199C 116.041,200.579 117.208,202.413 118,204.5C 118.825,214.675 118.658,224.675 117.5,234.5 Z"/></g>
<g><path style="opacity:1" fill="#f0b984" d="M 153.5,205.5 C 150.717,216.187 146.383,226.187 140.5,235.5C 138.687,225.327 139.854,215.327 144,205.5C 144.782,202.924 146.282,200.924 148.5,199.5C 150.19,201.519 151.856,203.519 153.5,205.5 Z"/></g>
<g><path style="opacity:1" fill="#6f8c88" d="M 175.5,194.5 C 175.5,194.833 175.5,195.167 175.5,195.5C 174.539,197.265 174.205,199.265 174.5,201.5C 173.532,203.607 173.198,205.941 173.5,208.5C 172.833,205.5 172.167,202.5 171.5,199.5C 172.612,197.581 173.946,195.914 175.5,194.5 Z"/></g>
<g><path style="opacity:1" fill="#3795db" d="M 87.5,199.5 C 87.1667,202.167 86.8333,204.833 86.5,207.5C 85.5,207.5 84.5,207.5 83.5,207.5C 83.5,206.167 83.5,204.833 83.5,203.5C 84.3019,202.048 84.8019,200.382 85,198.5C 85.6708,199.252 86.5041,199.586 87.5,199.5 Z"/></g>
<g><path style="opacity:1" fill="#3993d5" d="M 50.5,194.5 C 49.7659,195.708 49.4326,197.041 49.5,198.5C 49.2969,200.044 48.6302,201.378 47.5,202.5C 49.2744,203.187 50.9411,204.02 52.5,205C 56.2597,204.8 59.9264,203.967 63.5,202.5C 64.2891,202.783 64.9558,203.283 65.5,204C 64.8288,204.986 64.8288,206.153 65.5,207.5C 64.5416,207.047 63.7083,206.381 63,205.5C 60.834,207.121 58.334,207.955 55.5,208C 54.6919,208.308 54.0253,208.808 53.5,209.5C 54.6119,210.265 55.2786,211.265 55.5,212.5C 50.1667,209.167 45.8333,204.833 42.5,199.5C 43.7348,199.279 44.7348,198.612 45.5,197.5C 46.1667,198.167 46.8333,198.833 47.5,199.5C 48.6446,198.224 48.6446,196.891 47.5,195.5C 48.325,194.614 49.325,194.281 50.5,194.5 Z"/></g>
<g><path style="opacity:1" fill="#2c1c17" d="M 174.5,201.5 C 175.213,204.594 176.213,207.594 177.5,210.5C 176.395,209.4 175.062,208.733 173.5,208.5C 173.198,205.941 173.532,203.607 174.5,201.5 Z"/></g>
<g><path style="opacity:1" fill="#3a95ea" d="M 65.5,207.5 C 65.2786,208.735 64.6119,209.735 63.5,210.5C 64.8848,211.551 65.8848,212.884 66.5,214.5C 63.8367,216.516 64.17,217.849 67.5,218.5C 68.5,218.5 69.5,218.5 70.5,218.5C 70.3713,220.216 70.038,221.883 69.5,223.5C 64.235,220.565 59.5683,216.899 55.5,212.5C 55.2786,211.265 54.6119,210.265 53.5,209.5C 54.0253,208.808 54.6919,208.308 55.5,208C 58.334,207.955 60.834,207.121 63,205.5C 63.7083,206.381 64.5416,207.047 65.5,207.5 Z"/></g>
<g><path style="opacity:1" fill="#21756c" d="M 87.5,199.5 C 88.4345,200.568 88.7678,201.901 88.5,203.5C 87.8333,205.5 87.1667,207.5 86.5,209.5C 84.8333,209.5 83.1667,209.5 81.5,209.5C 78.6164,206.567 79.283,204.567 83.5,203.5C 83.5,204.833 83.5,206.167 83.5,207.5C 84.5,207.5 85.5,207.5 86.5,207.5C 86.8333,204.833 87.1667,202.167 87.5,199.5 Z"/></g>
<g><path style="opacity:1" fill="#363a37" d="M 177.5,210.5 C 179.085,211.002 179.585,212.002 179,213.5C 177.961,212.756 177.461,211.756 177.5,210.5 Z"/></g>
<g><path style="opacity:1" fill="#0f5621" d="M 88.5,203.5 C 90.2796,208.83 92.2796,214.163 94.5,219.5C 92.1944,219.993 89.861,220.326 87.5,220.5C 86.7494,219.427 85.7494,219.26 84.5,220C 83.8906,221.948 83.224,223.782 82.5,225.5C 82.0798,223.326 82.0798,221.326 82.5,219.5C 85.5027,218.915 88.5027,218.248 91.5,217.5C 90.8108,215.556 90.3108,213.556 90,211.5C 89.1841,210.177 88.0174,209.511 86.5,209.5C 87.1667,207.5 87.8333,205.5 88.5,203.5 Z"/></g>
<g><path style="opacity:1" fill="#055e0c" d="M 81.5,209.5 C 83.1667,209.5 84.8333,209.5 86.5,209.5C 88.0174,209.511 89.1841,210.177 90,211.5C 90.3108,213.556 90.8108,215.556 91.5,217.5C 88.5027,218.248 85.5027,218.915 82.5,219.5C 82.0798,221.326 82.0798,223.326 82.5,225.5C 82.5,226.167 82.5,226.833 82.5,227.5C 81.209,227.263 80.209,227.596 79.5,228.5C 76.0078,227.59 73.0078,225.924 70.5,223.5C 73.8957,223.367 74.2291,222.367 71.5,220.5C 72.325,219.614 73.325,219.281 74.5,219.5C 74.5,218.167 74.5,216.833 74.5,215.5C 75.2613,214.609 76.2613,213.942 77.5,213.5C 80.2427,214.101 81.5761,212.767 81.5,209.5 Z"/></g>
<g><path style="opacity:1" fill="#23828b" d="M 74.5,215.5 C 74.5,216.833 74.5,218.167 74.5,219.5C 73.325,219.281 72.325,219.614 71.5,220.5C 74.2291,222.367 73.8957,223.367 70.5,223.5C 70.1667,223.5 69.8333,223.5 69.5,223.5C 70.038,221.883 70.3713,220.216 70.5,218.5C 69.5,218.5 68.5,218.5 67.5,218.5C 69.6634,217.256 71.9967,216.256 74.5,215.5 Z"/></g>
<g><path style="opacity:1" fill="#3994e9" d="M 94.5,219.5 C 96.6284,225.09 99.2951,230.423 102.5,235.5C 94.2078,235.404 86.5412,233.071 79.5,228.5C 80.209,227.596 81.209,227.263 82.5,227.5C 84.3031,225.16 85.9697,222.827 87.5,220.5C 89.861,220.326 92.1944,219.993 94.5,219.5 Z"/></g>
<g><path style="opacity:1" fill="#207b77" d="M 87.5,220.5 C 85.9697,222.827 84.3031,225.16 82.5,227.5C 82.5,226.833 82.5,226.167 82.5,225.5C 83.224,223.782 83.8906,221.948 84.5,220C 85.7494,219.26 86.7494,219.427 87.5,220.5 Z"/></g>
<g><path style="opacity:1" fill="#a5a8a6" d="M 108.5,253.5 C 118.473,254.366 128.473,254.699 138.5,254.5C 138.5,254.833 138.5,255.167 138.5,255.5C 129.833,255.5 121.167,255.5 112.5,255.5C 111.167,254.833 109.833,254.167 108.5,253.5 Z"/></g>
</svg>
