<?xml version="1.0" encoding="UTF-8"?>
<!DOCTYPE svg PUBLIC "-//W3C//DTD SVG 1.1//EN" "http://www.w3.org/Graphics/SVG/1.1/DTD/svg11.dtd">
<svg xmlns="http://www.w3.org/2000/svg" version="1.1" width="256px" height="256px" style="shape-rendering:geometricPrecision; text-rendering:geometricPrecision; image-rendering:optimizeQuality; fill-rule:evenodd; clip-rule:evenodd" xmlns:xlink="http://www.w3.org/1999/xlink">
<g><path style="opacity:0.956" fill="#b40c0c" d="M 88.5,-0.5 C 114.5,-0.5 140.5,-0.5 166.5,-0.5C 170.566,1.01797 174.899,1.85131 179.5,2C 181.037,3.10963 181.703,4.60963 181.5,6.5C 184.187,6.33591 186.854,6.50258 189.5,7C 190.939,7.99064 191.939,9.32398 192.5,11C 196.967,10.6097 200.301,12.2764 202.5,16C 204.025,17.0086 205.692,17.5086 207.5,17.5C 207.22,20.3882 208.553,21.8882 211.5,22C 212.167,23.3333 212.833,24.6667 213.5,26C 215.608,26.3599 217.608,27.0266 219.5,28C 221.447,31.0699 223.947,33.5699 227,35.5C 227.667,37.5 228.333,39.5 229,41.5C 232,41.8333 233.667,43.5 234,46.5C 237.367,47.5531 239.034,49.8864 239,53.5C 242.901,55.5794 244.567,58.9127 244,63.5C 245.333,64.1667 246.667,64.8333 248,65.5C 248.333,68.1667 248.667,70.8333 249,73.5C 250.11,75.0368 251.61,75.7035 253.5,75.5C 253.335,79.1817 253.501,82.8484 254,86.5C 254.278,87.4158 254.778,88.0825 255.5,88.5C 255.5,114.5 255.5,140.5 255.5,166.5C 254.778,166.918 254.278,167.584 254,168.5C 253.501,172.152 253.335,175.818 253.5,179.5C 251.61,179.297 250.11,179.963 249,181.5C 248.667,184.167 248.333,186.833 248,189.5C 246.667,190.167 245.333,190.833 244,191.5C 244.567,196.087 242.901,199.421 239,201.5C 239.034,205.114 237.367,207.447 234,208.5C 233.667,211.5 232,213.167 229,213.5C 228.333,215.5 227.667,217.5 227,219.5C 223.947,221.43 221.447,223.93 219.5,227C 217.608,227.973 215.608,228.64 213.5,229C 213,232.167 211.167,234 208,234.5C 207.517,235.448 207.351,236.448 207.5,237.5C 205.692,237.491 204.025,237.991 202.5,239C 200.301,242.724 196.967,244.39 192.5,244C 191.939,245.676 190.939,247.009 189.5,248C 186.854,248.497 184.187,248.664 181.5,248.5C 181.703,250.39 181.037,251.89 179.5,253C 174.899,253.149 170.566,253.982 166.5,255.5C 140.5,255.5 114.5,255.5 88.5,255.5C 84.4341,253.982 80.1007,253.149 75.5,253C 73.9632,251.89 73.2965,250.39 73.5,248.5C 70.8127,248.664 68.146,248.497 65.5,248C 64.0611,247.009 63.0611,245.676 62.5,244C 58.0328,244.39 54.6994,242.724 52.5,239C 50.9751,237.991 49.3084,237.491 47.5,237.5C 47.7804,234.612 46.4471,233.112 43.5,233C 42.8333,231.667 42.1667,230.333 41.5,229C 39.3921,228.64 37.3921,227.973 35.5,227C 33.5526,223.93 31.0526,221.43 28,219.5C 27.3333,217.5 26.6667,215.5 26,213.5C 23,213.167 21.3333,211.5 21,208.5C 17.6327,207.447 15.966,205.114 16,201.5C 12.0994,199.421 10.4327,196.087 11,191.5C 9.66667,190.833 8.33333,190.167 7,189.5C 6.66667,186.833 6.33333,184.167 6,181.5C 4.89037,179.963 3.39037,179.297 1.5,179.5C 1.6653,175.818 1.49863,172.152 1,168.5C 0.721579,167.584 0.221579,166.918 -0.5,166.5C -0.5,140.5 -0.5,114.5 -0.5,88.5C 0.221579,88.0825 0.721579,87.4158 1,86.5C 1.49863,82.8484 1.6653,79.1817 1.5,75.5C 3.39037,75.7035 4.89037,75.0368 6,73.5C 6.33333,70.8333 6.66667,68.1667 7,65.5C 8.33333,64.8333 9.66667,64.1667 11,63.5C 10.4327,58.9127 12.0994,55.5794 16,53.5C 15.966,49.8864 17.6327,47.5531 21,46.5C 21.4017,45.1279 21.9017,43.7946 22.5,42.5C 26.3062,37.1938 30.6395,32.3605 35.5,28C 37.3921,27.0266 39.3921,26.3599 41.5,26C 42,22.8333 43.8333,21 47,20.5C 47.4828,19.552 47.6495,18.552 47.5,17.5C 49.3084,17.5086 50.9751,17.0086 52.5,16C 54.6994,12.2764 58.0328,10.6097 62.5,11C 63.0611,9.32398 64.0611,7.99064 65.5,7C 68.146,6.50258 70.8127,6.33591 73.5,6.5C 73.2965,4.60963 73.9632,3.10963 75.5,2C 80.1007,1.85131 84.4341,1.01797 88.5,-0.5 Z"/></g>
<g><path style="opacity:1" fill="#b71a19" d="M 166.5,179.5 C 167.082,178.069 167.915,176.736 169,175.5C 169.831,131.998 169.665,88.6647 168.5,45.5C 166.883,44.0277 164.883,43.361 162.5,43.5C 160.955,43.5108 159.622,43.8442 158.5,44.5C 157.728,45.6935 156.728,46.6935 155.5,47.5C 155.227,45.549 155.893,44.049 157.5,43C 161.167,42.3333 164.833,42.3333 168.5,43C 169.667,43.5 170.5,44.3333 171,45.5C 171.667,88.8333 171.667,132.167 171,175.5C 170.888,178.447 169.388,179.78 166.5,179.5 Z"/></g>
<g><path style="opacity:1" fill="#bd2c2c" d="M 158.5,44.5 C 159.622,43.8442 160.955,43.5108 162.5,43.5C 164.883,43.361 166.883,44.0277 168.5,45.5C 165.214,44.7929 161.881,44.4595 158.5,44.5 Z"/></g>
<g><path style="opacity:1" fill="#d57b7a" d="M 164.5,46.5 C 164.5,46.8333 164.5,47.1667 164.5,47.5C 160.64,47.0541 157.64,48.3875 155.5,51.5C 155.167,51.5 154.833,51.5 154.5,51.5C 152.147,52.3403 150.147,53.6736 148.5,55.5C 147.833,55.5 147.167,55.5 146.5,55.5C 148.844,53.0026 151.511,51.0026 154.5,49.5C 156.836,48.1479 159.169,46.8145 161.5,45.5C 162.726,45.5195 163.726,45.8529 164.5,46.5 Z"/></g>
<g><path style="opacity:1" fill="#c85150" d="M 154.5,49.5 C 151.511,51.0026 148.844,53.0026 146.5,55.5C 144.708,55.366 143.042,55.6993 141.5,56.5C 139.973,56.427 138.973,57.0937 138.5,58.5C 137.833,58.5 137.167,58.5 136.5,58.5C 136.833,57.8333 137.167,57.1667 137.5,56.5C 142.18,54.9974 146.514,52.8308 150.5,50C 151.793,49.51 153.127,49.3433 154.5,49.5 Z"/></g>
<g><path style="opacity:1" fill="#bb2827" d="M 154.5,48.5 C 154.5,48.8333 154.5,49.1667 154.5,49.5C 153.127,49.3433 151.793,49.51 150.5,50C 146.514,52.8308 142.18,54.9974 137.5,56.5C 137.167,56.5 136.833,56.5 136.5,56.5C 137.306,55.2719 138.306,54.2719 139.5,53.5C 142.486,53.5645 144.82,52.3979 146.5,50C 149.063,48.9207 151.729,48.4207 154.5,48.5 Z"/></g>
<g><path style="opacity:1" fill="#e1a1a2" d="M 164.5,47.5 C 164.833,47.5 165.167,47.5 165.5,47.5C 165.667,89.168 165.5,130.835 165,172.5C 164.047,175.432 163.547,178.432 163.5,181.5C 163.5,181.833 163.5,182.167 163.5,182.5C 162.662,182.842 162.328,183.508 162.5,184.5C 161.5,185.167 160.5,185.833 159.5,186.5C 159.5,186.167 159.5,185.833 159.5,185.5C 162.115,181.991 163.115,177.991 162.5,173.5C 163.338,173.158 163.672,172.492 163.5,171.5C 164.665,131.002 164.831,90.3354 164,49.5C 162.708,48.2089 161.542,48.2089 160.5,49.5C 159.5,49.8333 158.833,50.5 158.5,51.5C 157.833,51.5 157.167,51.5 156.5,51.5C 156.167,51.5 155.833,51.5 155.5,51.5C 157.64,48.3875 160.64,47.0541 164.5,47.5 Z"/></g>
<g><path style="opacity:1" fill="#d06f6f" d="M 164.5,47.5 C 164.5,47.1667 164.5,46.8333 164.5,46.5C 166.179,46.2852 167.179,46.9519 167.5,48.5C 167.832,89.6701 167.499,130.67 166.5,171.5C 166.832,129.997 166.499,88.6633 165.5,47.5C 165.167,47.5 164.833,47.5 164.5,47.5 Z"/></g>
<g><path style="opacity:1" fill="#f7e6e6" d="M 156.5,51.5 C 157.167,51.5 157.833,51.5 158.5,51.5C 159.822,51.33 160.989,51.6634 162,52.5C 162.5,92.832 162.667,133.165 162.5,173.5C 162.167,173.5 161.833,173.5 161.5,173.5C 161.5,133.5 161.5,93.5 161.5,53.5C 159.801,53.3398 158.134,53.5065 156.5,54C 154.676,56.5047 152.343,58.0047 149.5,58.5C 146.892,58.4003 144.558,59.0669 142.5,60.5C 142.953,59.5416 143.619,58.7083 144.5,58C 149.56,57.5907 153.56,55.424 156.5,51.5 Z"/></g>
<g><path style="opacity:1" fill="#e8b8b9" d="M 160.5,49.5 C 161.542,48.2089 162.708,48.2089 164,49.5C 164.831,90.3354 164.665,131.002 163.5,171.5C 163.667,131.165 163.5,90.832 163,50.5C 162.329,49.7476 161.496,49.4142 160.5,49.5 Z"/></g>
<g><path style="opacity:1" fill="#ca5656" d="M 167.5,48.5 C 168.665,89.6646 168.831,130.998 168,172.5C 167.722,173.416 167.222,174.082 166.5,174.5C 166.5,173.5 166.5,172.5 166.5,171.5C 167.499,130.67 167.832,89.6701 167.5,48.5 Z"/></g>
<g><path style="opacity:1" fill="#c23c3c" d="M 158.5,44.5 C 161.881,44.4595 165.214,44.7929 168.5,45.5C 169.665,88.6647 169.831,131.998 169,175.5C 167.915,176.736 167.082,178.069 166.5,179.5C 165.239,182.258 164.406,185.258 164,188.5C 161.528,190.298 159.861,192.632 159,195.5C 157.223,197.79 155.056,199.457 152.5,200.5C 154.5,198.167 156.5,195.833 158.5,193.5C 158.557,192.391 158.89,191.391 159.5,190.5C 162.893,188.927 164.226,186.26 163.5,182.5C 163.5,182.167 163.5,181.833 163.5,181.5C 164.677,179.321 165.677,176.987 166.5,174.5C 167.222,174.082 167.722,173.416 168,172.5C 168.831,130.998 168.665,89.6646 167.5,48.5C 167.179,46.9519 166.179,46.2852 164.5,46.5C 163.726,45.8529 162.726,45.5195 161.5,45.5C 159.169,46.8145 156.836,48.1479 154.5,49.5C 154.5,49.1667 154.5,48.8333 154.5,48.5C 155.167,48.5 155.5,48.1667 155.5,47.5C 156.728,46.6935 157.728,45.6935 158.5,44.5 Z"/></g>
<g><path style="opacity:1" fill="#fefefe" d="M 161.5,173.5 C 161.868,176.533 161.202,179.2 159.5,181.5C 158.325,181.281 157.325,181.614 156.5,182.5C 154.797,186.562 153.13,190.562 151.5,194.5C 151.167,195.167 150.833,195.833 150.5,196.5C 147.175,196.494 144.841,197.994 143.5,201C 140.576,201.988 137.576,202.654 134.5,203C 133.643,203.689 132.977,204.522 132.5,205.5C 125.189,206.665 117.856,206.831 110.5,206C 107.452,203.038 103.785,201.538 99.5,201.5C 95.8659,198.202 92.1992,194.869 88.5,191.5C 88.5,189.833 88.5,188.167 88.5,186.5C 87.1779,186.67 86.0113,186.337 85,185.5C 84.7401,181.75 84.0734,178.084 83,174.5C 81.8873,173.695 80.7206,173.028 79.5,172.5C 79.3337,165.492 79.5004,158.492 80,151.5C 85.0717,150.529 90.2384,150.195 95.5,150.5C 95.3338,156.842 95.5005,163.175 96,169.5C 96.9383,172.257 98.4383,174.59 100.5,176.5C 100.183,179.546 101.516,181.213 104.5,181.5C 104.511,183.017 105.177,184.184 106.5,185C 109.701,185.879 112.368,187.545 114.5,190C 118.833,190.667 123.167,190.667 127.5,190C 128.373,188.955 129.373,188.122 130.5,187.5C 133.238,187.149 135.904,186.482 138.5,185.5C 140.098,182.399 142.265,179.732 145,177.5C 145.667,140.5 145.667,103.5 145,66.5C 144.626,65.5838 144.126,64.7504 143.5,64C 144.771,61.2227 146.771,59.3894 149.5,58.5C 152.343,58.0047 154.676,56.5047 156.5,54C 158.134,53.5065 159.801,53.3398 161.5,53.5C 161.5,93.5 161.5,133.5 161.5,173.5 Z"/></g>
<g><path style="opacity:1" fill="#f0d0d0" d="M 160.5,49.5 C 161.496,49.4142 162.329,49.7476 163,50.5C 163.5,90.832 163.667,131.165 163.5,171.5C 163.672,172.492 163.338,173.158 162.5,173.5C 162.667,133.165 162.5,92.832 162,52.5C 160.989,51.6634 159.822,51.33 158.5,51.5C 158.833,50.5 159.5,49.8333 160.5,49.5 Z"/></g>
<g><path style="opacity:1" fill="#e3a7a7" d="M 154.5,51.5 C 153.198,53.8218 151.198,55.1551 148.5,55.5C 150.147,53.6736 152.147,52.3403 154.5,51.5 Z"/></g>
<g><path style="opacity:1" fill="#d37474" d="M 141.5,56.5 C 141.027,57.9063 140.027,58.573 138.5,58.5C 138.973,57.0937 139.973,56.427 141.5,56.5 Z"/></g>
<g><path style="opacity:1" fill="#ebc1c1" d="M 154.5,51.5 C 154.833,51.5 155.167,51.5 155.5,51.5C 155.833,51.5 156.167,51.5 156.5,51.5C 153.56,55.424 149.56,57.5907 144.5,58C 143.619,58.7083 142.953,59.5416 142.5,60.5C 141.833,60.5 141.167,60.5 140.5,60.5C 140.5,60.1667 140.5,59.8333 140.5,59.5C 142.272,57.7104 144.272,56.3771 146.5,55.5C 147.167,55.5 147.833,55.5 148.5,55.5C 151.198,55.1551 153.198,53.8218 154.5,51.5 Z"/></g>
<g><path style="opacity:1" fill="#dc9292" d="M 146.5,55.5 C 144.272,56.3771 142.272,57.7104 140.5,59.5C 139.833,59.5 139.167,59.5 138.5,59.5C 138.5,59.1667 138.5,58.8333 138.5,58.5C 140.027,58.573 141.027,57.9063 141.5,56.5C 143.042,55.6993 144.708,55.366 146.5,55.5 Z"/></g>
<g><path style="opacity:1" fill="#d47777" d="M 136.5,58.5 C 137.167,58.5 137.833,58.5 138.5,58.5C 138.5,58.8333 138.5,59.1667 138.5,59.5C 136.847,59.6596 135.514,60.3263 134.5,61.5C 133.167,61.5 131.833,61.5 130.5,61.5C 130.5,61.1667 130.5,60.8333 130.5,60.5C 132.5,59.8333 134.5,59.1667 136.5,58.5 Z"/></g>
<g><path style="opacity:1" fill="#c23d3d" d="M 136.5,56.5 C 136.833,56.5 137.167,56.5 137.5,56.5C 137.167,57.1667 136.833,57.8333 136.5,58.5C 134.5,59.1667 132.5,59.8333 130.5,60.5C 128.801,60.3398 127.134,60.5065 125.5,61C 124.295,62.3756 122.962,63.5423 121.5,64.5C 121.859,62.629 122.859,61.129 124.5,60C 128.876,59.9758 132.876,58.8091 136.5,56.5 Z"/></g>
<g><path style="opacity:1" fill="#e4acac" d="M 138.5,59.5 C 139.167,59.5 139.833,59.5 140.5,59.5C 140.5,59.8333 140.5,60.1667 140.5,60.5C 138.565,61.1495 136.565,61.4828 134.5,61.5C 135.514,60.3263 136.847,59.6596 138.5,59.5 Z"/></g>
<g><path style="opacity:1" fill="#cb5c5c" d="M 130.5,60.5 C 130.5,60.8333 130.5,61.1667 130.5,61.5C 129.833,61.5 129.167,61.5 128.5,61.5C 125.755,63.5676 122.755,65.2343 119.5,66.5C 119.833,65.8333 120.167,65.1667 120.5,64.5C 120.833,64.5 121.167,64.5 121.5,64.5C 122.962,63.5423 124.295,62.3756 125.5,61C 127.134,60.5065 128.801,60.3398 130.5,60.5 Z"/></g>
<g><path style="opacity:1" fill="#f4dcdc" d="M 140.5,60.5 C 141.167,60.5 141.833,60.5 142.5,60.5C 140.779,62.6943 138.445,63.861 135.5,64C 140.681,63.3665 143.681,65.5331 144.5,70.5C 143.626,68.31 141.959,67.31 139.5,67.5C 137.444,66.7839 135.277,66.1172 133,65.5C 132.7,63.9343 133.2,62.601 134.5,61.5C 136.565,61.4828 138.565,61.1495 140.5,60.5 Z"/></g>
<g><path style="opacity:1" fill="#b91f1f" d="M 139.5,53.5 C 138.306,54.2719 137.306,55.2719 136.5,56.5C 132.876,58.8091 128.876,59.9758 124.5,60C 122.859,61.129 121.859,62.629 121.5,64.5C 121.167,64.5 120.833,64.5 120.5,64.5C 114.769,64.0046 112.769,66.338 114.5,71.5C 121.468,72.497 128.468,72.8303 135.5,72.5C 135.833,72.5 136.167,72.5 136.5,72.5C 136.5,72.8333 136.5,73.1667 136.5,73.5C 128.167,73.5 119.833,73.5 111.5,73.5C 110.491,70.4726 110.491,67.4726 111.5,64.5C 115.35,63.8515 118.35,62.0182 120.5,59C 125.022,58.9511 129.356,58.1178 133.5,56.5C 134.386,55.675 134.719,54.675 134.5,53.5C 136.167,53.5 137.833,53.5 139.5,53.5 Z"/></g>
<g><path style="opacity:1" fill="#e8b8b8" d="M 130.5,61.5 C 131.833,61.5 133.167,61.5 134.5,61.5C 133.2,62.601 132.7,63.9343 133,65.5C 135.277,66.1172 137.444,66.7839 139.5,67.5C 136.421,67.7399 133.421,67.4066 130.5,66.5C 129.334,64.8327 129.334,63.166 130.5,61.5 Z"/></g>
<g><path style="opacity:1" fill="#e1a2a2" d="M 128.5,61.5 C 129.167,61.5 129.833,61.5 130.5,61.5C 129.334,63.166 129.334,64.8327 130.5,66.5C 133.421,67.4066 136.421,67.7399 139.5,67.5C 141.576,68.4268 142.743,70.0935 143,72.5C 143.831,105.669 143.664,138.669 142.5,171.5C 142.832,138.662 142.498,105.996 141.5,73.5C 141.5,72.8333 141.167,72.5 140.5,72.5C 140.5,71.1667 139.833,70.5 138.5,70.5C 138.389,69.8826 138.056,69.3826 137.5,69C 133.809,68.5804 130.142,68.0804 126.5,67.5C 126.253,65.1417 126.919,63.1417 128.5,61.5 Z"/></g>
<g><path style="opacity:1" fill="#d67e7e" d="M 128.5,61.5 C 126.919,63.1417 126.253,65.1417 126.5,67.5C 130.142,68.0804 133.809,68.5804 137.5,69C 138.056,69.3826 138.389,69.8826 138.5,70.5C 131.891,69.5774 125.224,69.2441 118.5,69.5C 118.557,68.391 118.89,67.391 119.5,66.5C 122.755,65.2343 125.755,63.5676 128.5,61.5 Z"/></g>
<g><path style="opacity:1" fill="#d06a6a" d="M 118.5,69.5 C 125.224,69.2441 131.891,69.5774 138.5,70.5C 139.833,70.5 140.5,71.1667 140.5,72.5C 138.958,71.6993 137.292,71.366 135.5,71.5C 129.833,70.8333 124.167,70.1667 118.5,69.5 Z"/></g>
<g><path style="opacity:1" fill="#c95555" d="M 119.5,66.5 C 118.89,67.391 118.557,68.391 118.5,69.5C 124.167,70.1667 129.833,70.8333 135.5,71.5C 129.491,71.6662 123.491,71.4995 117.5,71C 115.963,69.8904 115.297,68.3904 115.5,66.5C 116.833,66.5 118.167,66.5 119.5,66.5 Z"/></g>
<g><path style="opacity:1" fill="#c13b3a" d="M 120.5,64.5 C 120.167,65.1667 119.833,65.8333 119.5,66.5C 118.167,66.5 116.833,66.5 115.5,66.5C 115.297,68.3904 115.963,69.8904 117.5,71C 123.491,71.4995 129.491,71.6662 135.5,71.5C 135.5,71.8333 135.5,72.1667 135.5,72.5C 128.468,72.8303 121.468,72.497 114.5,71.5C 112.769,66.338 114.769,64.0046 120.5,64.5 Z"/></g>
<g><path style="opacity:1" fill="#f0d0d0" d="M 139.5,67.5 C 141.959,67.31 143.626,68.31 144.5,70.5C 144.667,104.835 144.5,139.168 144,173.5C 140.92,179.415 136.42,183.748 130.5,186.5C 129.391,186.557 128.391,186.89 127.5,187.5C 127.5,187.167 127.5,186.833 127.5,186.5C 133.07,185.263 136.737,181.93 138.5,176.5C 140.543,175.421 141.876,173.754 142.5,171.5C 143.664,138.669 143.831,105.669 143,72.5C 142.743,70.0935 141.576,68.4268 139.5,67.5 Z"/></g>
<g><path style="opacity:1" fill="#f9efef" d="M 149.5,58.5 C 146.771,59.3894 144.771,61.2227 143.5,64C 144.126,64.7504 144.626,65.5838 145,66.5C 145.667,103.5 145.667,140.5 145,177.5C 142.265,179.732 140.098,182.399 138.5,185.5C 135.904,186.482 133.238,187.149 130.5,187.5C 130.5,187.167 130.5,186.833 130.5,186.5C 136.42,183.748 140.92,179.415 144,173.5C 144.5,139.168 144.667,104.835 144.5,70.5C 143.681,65.5331 140.681,63.3665 135.5,64C 138.445,63.861 140.779,62.6943 142.5,60.5C 144.558,59.0669 146.892,58.4003 149.5,58.5 Z"/></g>
<g><path style="opacity:1" fill="#ca5958" d="M 135.5,72.5 C 135.5,72.1667 135.5,71.8333 135.5,71.5C 137.292,71.366 138.958,71.6993 140.5,72.5C 141.167,72.5 141.5,72.8333 141.5,73.5C 141.667,105.835 141.5,138.168 141,170.5C 140.8,172.32 139.966,173.653 138.5,174.5C 139.809,140.687 139.809,107.02 138.5,73.5C 138.158,72.6618 137.492,72.3284 136.5,72.5C 136.167,72.5 135.833,72.5 135.5,72.5 Z"/></g>
<g><path style="opacity:1" fill="#db8c8c" d="M 141.5,73.5 C 142.498,105.996 142.832,138.662 142.5,171.5C 141.876,173.754 140.543,175.421 138.5,176.5C 138.167,176.5 137.833,176.5 137.5,176.5C 137.328,175.508 137.662,174.842 138.5,174.5C 139.966,173.653 140.8,172.32 141,170.5C 141.5,138.168 141.667,105.835 141.5,73.5 Z"/></g>
<g><path style="opacity:1" fill="#b92020" d="M 136.5,74.5 C 137.498,105.996 137.832,137.662 137.5,169.5C 137.598,171.553 136.931,173.22 135.5,174.5C 136.457,141.184 136.791,107.851 136.5,74.5 Z"/></g>
<g><path style="opacity:1" fill="#bc2c2c" d="M 136.5,72.5 C 137.492,72.3284 138.158,72.6618 138.5,73.5C 138.832,105.671 138.498,137.671 137.5,169.5C 137.832,137.662 137.498,105.996 136.5,74.5C 136.5,74.1667 136.5,73.8333 136.5,73.5C 136.5,73.1667 136.5,72.8333 136.5,72.5 Z"/></g>
<g><path style="opacity:1" fill="#c23c3c" d="M 138.5,73.5 C 139.809,107.02 139.809,140.687 138.5,174.5C 137.662,174.842 137.328,175.508 137.5,176.5C 136.833,176.833 136.167,177.167 135.5,177.5C 135.5,176.5 135.5,175.5 135.5,174.5C 136.931,173.22 137.598,171.553 137.5,169.5C 138.498,137.671 138.832,105.671 138.5,73.5 Z"/></g>
<g><path style="opacity:1" fill="#bc2c2b" d="M 104.5,110.5 C 104.825,117.687 104.491,124.687 103.5,131.5C 103.666,125.158 103.5,118.825 103,112.5C 101.871,110.859 100.371,109.859 98.5,109.5C 91.6791,108.345 84.6791,108.179 77.5,109C 76.9558,109.717 76.2891,110.217 75.5,110.5C 75.5106,108.983 76.1772,107.816 77.5,107C 84.5,106.333 91.5,106.333 98.5,107C 100.388,108.394 102.388,109.56 104.5,110.5 Z"/></g>
<g><path style="opacity:1" fill="#c44444" d="M 98.5,109.5 C 100.371,109.859 101.871,110.859 103,112.5C 103.5,118.825 103.666,125.158 103.5,131.5C 103.5,131.833 103.5,132.167 103.5,132.5C 102.833,132.5 102.5,132.833 102.5,133.5C 102.167,133.5 101.833,133.5 101.5,133.5C 101.5,132.833 101.5,132.167 101.5,131.5C 102.653,125.681 102.819,119.681 102,113.5C 100.624,112.295 99.4577,110.962 98.5,109.5 Z"/></g>
<g><path style="opacity:1" fill="#e6b1b1" d="M 77.5,113.5 C 77.1778,119.358 77.5111,125.025 78.5,130.5C 84.6446,131.49 90.9779,131.823 97.5,131.5C 91.3554,132.49 85.0221,132.823 78.5,132.5C 77.8826,132.389 77.3826,132.056 77,131.5C 76.1808,125.319 76.3475,119.319 77.5,113.5 Z"/></g>
<g><path style="opacity:1" fill="#de9999" d="M 97.5,131.5 C 98.5,131.5 99.5,131.5 100.5,131.5C 99.3646,133.213 97.698,133.88 95.5,133.5C 89.642,133.822 83.9753,133.489 78.5,132.5C 85.0221,132.823 91.3554,132.49 97.5,131.5 Z"/></g>
<g><path style="opacity:1" fill="#d47676" d="M 98.5,109.5 C 99.4577,110.962 100.624,112.295 102,113.5C 102.819,119.681 102.653,125.681 101.5,131.5C 101.167,131.5 100.833,131.5 100.5,131.5C 101.068,124.947 100.401,118.613 98.5,112.5C 91.6778,111.182 85.0112,111.182 78.5,112.5C 77.8333,112.5 77.5,112.833 77.5,113.5C 76.3475,119.319 76.1808,125.319 77,131.5C 77.3826,132.056 77.8826,132.389 78.5,132.5C 83.9753,133.489 89.642,133.822 95.5,133.5C 89.69,134.49 83.69,134.823 77.5,134.5C 77.2172,133.711 76.7172,133.044 76,132.5C 75.3333,125.833 75.3333,119.167 76,112.5C 76.8333,111.667 77.6667,110.833 78.5,110C 85.1583,109.5 91.825,109.334 98.5,109.5 Z"/></g>
<g><path style="opacity:1" fill="#e4aaaa" d="M 78.5,112.5 C 85.0112,111.182 91.6778,111.182 98.5,112.5C 100.401,118.613 101.068,124.947 100.5,131.5C 99.5,131.5 98.5,131.5 97.5,131.5C 99.7082,126.095 100.042,120.428 98.5,114.5C 97.8165,114.137 97.1499,113.804 96.5,113.5C 90.69,112.51 84.69,112.177 78.5,112.5 Z"/></g>
<g><path style="opacity:1" fill="#fbf5f5" d="M 82.5,114.5 C 87.0986,114.2 91.5986,114.533 96,115.5C 96.4993,120.489 96.6659,125.489 96.5,130.5C 91.8333,130.5 87.1667,130.5 82.5,130.5C 86.2984,129.517 90.2984,129.183 94.5,129.5C 94.5,124.833 94.5,120.167 94.5,115.5C 90.2984,115.817 86.2984,115.483 82.5,114.5 Z"/></g>
<g><path style="opacity:1" fill="#fefdfd" d="M 78.5,114.5 C 79.8333,114.5 81.1667,114.5 82.5,114.5C 86.2984,115.483 90.2984,115.817 94.5,115.5C 94.5,120.167 94.5,124.833 94.5,129.5C 90.2984,129.183 86.2984,129.517 82.5,130.5C 81.1667,130.5 79.8333,130.5 78.5,130.5C 78.5,125.167 78.5,119.833 78.5,114.5 Z"/></g>
<g><path style="opacity:1" fill="#f4dddd" d="M 78.5,114.5 C 84.31,113.51 90.31,113.177 96.5,113.5C 97.1499,113.804 97.8165,114.137 98.5,114.5C 100.042,120.428 99.7082,126.095 97.5,131.5C 90.9779,131.823 84.6446,131.49 78.5,130.5C 79.8333,130.5 81.1667,130.5 82.5,130.5C 87.1667,130.5 91.8333,130.5 96.5,130.5C 96.6659,125.489 96.4993,120.489 96,115.5C 91.5986,114.533 87.0986,114.2 82.5,114.5C 81.1667,114.5 79.8333,114.5 78.5,114.5 Z"/></g>
<g><path style="opacity:1" fill="#eecbcb" d="M 78.5,112.5 C 84.69,112.177 90.69,112.51 96.5,113.5C 90.31,113.177 84.31,113.51 78.5,114.5C 78.5,119.833 78.5,125.167 78.5,130.5C 77.5111,125.025 77.1778,119.358 77.5,113.5C 77.5,112.833 77.8333,112.5 78.5,112.5 Z"/></g>
<g><path style="opacity:1" fill="#cb5c5c" d="M 100.5,131.5 C 100.833,131.5 101.167,131.5 101.5,131.5C 101.5,132.167 101.5,132.833 101.5,133.5C 100.833,133.833 100.167,134.167 99.5,134.5C 92.0249,135.743 84.6915,135.743 77.5,134.5C 83.69,134.823 89.69,134.49 95.5,133.5C 97.698,133.88 99.3646,133.213 100.5,131.5 Z"/></g>
<g><path style="opacity:1" fill="#c44545" d="M 98.5,109.5 C 91.825,109.334 85.1583,109.5 78.5,110C 77.6667,110.833 76.8333,111.667 76,112.5C 75.3333,119.167 75.3333,125.833 76,132.5C 76.7172,133.044 77.2172,133.711 77.5,134.5C 84.6915,135.743 92.0249,135.743 99.5,134.5C 99.0825,135.222 98.4158,135.722 97.5,136C 90.5079,136.5 83.5079,136.666 76.5,136.5C 76.5386,135.244 76.0386,134.244 75,133.5C 74.1777,125.655 74.3443,117.989 75.5,110.5C 76.2891,110.217 76.9558,109.717 77.5,109C 84.6791,108.179 91.6791,108.345 98.5,109.5 Z"/></g>
<g><path style="opacity:1" fill="#b91e1d" d="M 104.5,110.5 C 102.388,109.56 100.388,108.394 98.5,107C 91.5,106.333 84.5,106.333 77.5,107C 76.1772,107.816 75.5106,108.983 75.5,110.5C 74.3443,117.989 74.1777,125.655 75,133.5C 76.0386,134.244 76.5386,135.244 76.5,136.5C 83.6549,137.655 90.9882,137.822 98.5,137C 100.324,136.34 101.657,135.173 102.5,133.5C 102.5,132.833 102.833,132.5 103.5,132.5C 103.756,134.792 103.423,136.959 102.5,139C 93.5,139.667 84.5,139.667 75.5,139C 74.8742,138.25 74.3742,137.416 74,136.5C 73.3333,127.167 73.3333,117.833 74,108.5C 75.0217,107.646 75.8551,106.646 76.5,105.5C 84.4792,104.335 92.4792,104.168 100.5,105C 102.928,106.018 104.262,107.852 104.5,110.5 Z"/></g>
<g><path style="opacity:1" fill="#be3232" d="M 101.5,133.5 C 101.833,133.5 102.167,133.5 102.5,133.5C 101.657,135.173 100.324,136.34 98.5,137C 90.9882,137.822 83.6549,137.655 76.5,136.5C 83.5079,136.666 90.5079,136.5 97.5,136C 98.4158,135.722 99.0825,135.222 99.5,134.5C 100.167,134.167 100.833,133.833 101.5,133.5 Z"/></g>
<g><path style="opacity:1" fill="#ca5959" d="M 76.5,147.5 C 83.9818,146.508 91.6484,146.175 99.5,146.5C 99.8333,147.167 100.167,147.833 100.5,148.5C 99.8333,148.5 99.1667,148.5 98.5,148.5C 91.3524,147.508 84.0191,147.175 76.5,147.5 Z"/></g>
<g><path style="opacity:1" fill="#bb2625" d="M 101.5,146.5 C 100.833,146.5 100.167,146.5 99.5,146.5C 91.6484,146.175 83.9818,146.508 76.5,147.5C 74.5257,157.111 73.859,167.111 74.5,177.5C 74.2872,180.451 74.9539,183.118 76.5,185.5C 75.8501,185.196 75.1835,184.863 74.5,184.5C 73.334,171.846 73.1674,159.18 74,146.5C 83.2649,145.172 92.4315,145.172 101.5,146.5 Z"/></g>
<g><path style="opacity:1" fill="#c34241" d="M 99.5,146.5 C 100.167,146.5 100.833,146.5 101.5,146.5C 101.783,147.289 102.283,147.956 103,148.5C 103.171,156.344 103.671,164.011 104.5,171.5C 105.167,173.167 105.833,174.833 106.5,176.5C 105.833,176.5 105.167,176.5 104.5,176.5C 104.291,175.078 103.791,173.745 103,172.5C 102.829,164.656 102.329,156.989 101.5,149.5C 101.5,148.833 101.167,148.5 100.5,148.5C 100.167,147.833 99.8333,147.167 99.5,146.5 Z"/></g>
<g><path style="opacity:1" fill="#ba2424" d="M 101.5,146.5 C 102.5,146.5 103.5,146.5 104.5,146.5C 104.5,154.833 104.5,163.167 104.5,171.5C 103.671,164.011 103.171,156.344 103,148.5C 102.283,147.956 101.783,147.289 101.5,146.5 Z"/></g>
<g><path style="opacity:1" fill="#c64a4a" d="M 76.5,147.5 C 75.1841,156.932 75.1841,166.265 76.5,175.5C 76.8333,177.5 77.1667,179.5 77.5,181.5C 76.5,180.167 75.5,178.833 74.5,177.5C 73.859,167.111 74.5257,157.111 76.5,147.5 Z"/></g>
<g><path style="opacity:1" fill="#d67d7d" d="M 76.5,147.5 C 84.0191,147.175 91.3524,147.508 98.5,148.5C 91.2454,148.187 84.0787,148.52 77,149.5C 76.5002,158.16 76.3336,166.827 76.5,175.5C 75.1841,166.265 75.1841,156.932 76.5,147.5 Z"/></g>
<g><path style="opacity:1" fill="#cf6a6a" d="M 101.5,149.5 C 102.329,156.989 102.829,164.656 103,172.5C 103.791,173.745 104.291,175.078 104.5,176.5C 103.833,176.167 103.167,175.833 102.5,175.5C 101.699,173.958 101.366,172.292 101.5,170.5C 101.5,163.5 101.5,156.5 101.5,149.5 Z"/></g>
<g><path style="opacity:1" fill="#e7b3b3" d="M 98.5,148.5 C 100.095,155.743 101.095,163.077 101.5,170.5C 101.366,172.292 101.699,173.958 102.5,175.5C 102.5,175.833 102.5,176.167 102.5,176.5C 102.167,176.5 101.833,176.5 101.5,176.5C 101.167,176.5 100.833,176.5 100.5,176.5C 99.1573,167.91 98.1573,159.243 97.5,150.5C 91.0377,149.189 84.7043,149.189 78.5,150.5C 77.3443,157.989 77.1777,165.655 78,173.5C 78.3826,174.056 78.8826,174.389 79.5,174.5C 79.4326,175.959 79.7659,177.292 80.5,178.5C 80.5,179.167 80.5,179.833 80.5,180.5C 78.9263,179.016 77.593,177.349 76.5,175.5C 76.3336,166.827 76.5002,158.16 77,149.5C 84.0787,148.52 91.2454,148.187 98.5,148.5 Z"/></g>
<g><path style="opacity:1" fill="#f8eaea" d="M 100.5,176.5 C 98.4383,174.59 96.9383,172.257 96,169.5C 95.5005,163.175 95.3338,156.842 95.5,150.5C 90.2384,150.195 85.0717,150.529 80,151.5C 79.5004,158.492 79.3337,165.492 79.5,172.5C 78.5084,165.352 78.175,158.019 78.5,150.5C 84.7043,149.189 91.0377,149.189 97.5,150.5C 98.1573,159.243 99.1573,167.91 100.5,176.5 Z"/></g>
<g><path style="opacity:1" fill="#f2d6d6" d="M 78.5,150.5 C 78.175,158.019 78.5084,165.352 79.5,172.5C 79.5,173.167 79.5,173.833 79.5,174.5C 78.8826,174.389 78.3826,174.056 78,173.5C 77.1777,165.655 77.3443,157.989 78.5,150.5 Z"/></g>
<g><path style="opacity:1" fill="#da8b8b" d="M 98.5,148.5 C 99.1667,148.5 99.8333,148.5 100.5,148.5C 101.167,148.5 101.5,148.833 101.5,149.5C 101.5,156.5 101.5,163.5 101.5,170.5C 101.095,163.077 100.095,155.743 98.5,148.5 Z"/></g>
<g><path style="opacity:1" fill="#d57d7d" d="M 165.5,47.5 C 166.499,88.6633 166.832,129.997 166.5,171.5C 166.5,172.5 166.5,173.5 166.5,174.5C 165.677,176.987 164.677,179.321 163.5,181.5C 163.547,178.432 164.047,175.432 165,172.5C 165.5,130.835 165.667,89.168 165.5,47.5 Z"/></g>
<g><path style="opacity:1" fill="#db8e8e" d="M 102.5,175.5 C 103.167,175.833 103.833,176.167 104.5,176.5C 105.833,178.5 107.5,180.167 109.5,181.5C 109.833,182.167 110.167,182.833 110.5,183.5C 107.236,181.906 104.569,179.573 102.5,176.5C 102.5,176.167 102.5,175.833 102.5,175.5 Z"/></g>
<g><path style="opacity:1" fill="#cc5d5d" d="M 104.5,176.5 C 105.167,176.5 105.833,176.5 106.5,176.5C 107.925,177.922 108.925,179.589 109.5,181.5C 107.5,180.167 105.833,178.5 104.5,176.5 Z"/></g>
<g><path style="opacity:1" fill="#eabebf" d="M 101.5,176.5 C 101.833,176.5 102.167,176.5 102.5,176.5C 104.569,179.573 107.236,181.906 110.5,183.5C 111.71,183.932 112.71,184.599 113.5,185.5C 109.937,185.317 106.937,183.983 104.5,181.5C 102.721,180.33 101.721,178.664 101.5,176.5 Z"/></g>
<g><path style="opacity:1" fill="#c34140" d="M 106.5,176.5 C 109.333,178.478 112.333,180.311 115.5,182C 120.257,182.81 124.924,182.476 129.5,181C 131.146,179.179 133.146,178.013 135.5,177.5C 133.806,179.861 131.806,181.861 129.5,183.5C 126.517,183.898 123.517,184.232 120.5,184.5C 116.7,184.043 113.033,183.043 109.5,181.5C 108.925,179.589 107.925,177.922 106.5,176.5 Z"/></g>
<g><path style="opacity:1" fill="#f7e6e6" d="M 100.5,176.5 C 100.833,176.5 101.167,176.5 101.5,176.5C 101.721,178.664 102.721,180.33 104.5,181.5C 101.516,181.213 100.183,179.546 100.5,176.5 Z"/></g>
<g><path style="opacity:1" fill="#d47676" d="M 137.5,176.5 C 136.095,180.236 133.429,182.569 129.5,183.5C 131.806,181.861 133.806,179.861 135.5,177.5C 136.167,177.167 136.833,176.833 137.5,176.5 Z"/></g>
<g><path style="opacity:1" fill="#e2a5a5" d="M 137.5,176.5 C 137.833,176.5 138.167,176.5 138.5,176.5C 136.737,181.93 133.07,185.263 127.5,186.5C 126.5,186.5 125.5,186.5 124.5,186.5C 126.072,185.313 127.739,184.313 129.5,183.5C 133.429,182.569 136.095,180.236 137.5,176.5 Z"/></g>
<g><path style="opacity:1" fill="#d47978" d="M 109.5,181.5 C 113.033,183.043 116.7,184.043 120.5,184.5C 123.517,184.232 126.517,183.898 129.5,183.5C 127.739,184.313 126.072,185.313 124.5,186.5C 120.802,186.448 117.135,186.114 113.5,185.5C 112.71,184.599 111.71,183.932 110.5,183.5C 110.167,182.833 109.833,182.167 109.5,181.5 Z"/></g>
<g><path style="opacity:1" fill="#bd2d2c" d="M 74.5,177.5 C 75.5,178.833 76.5,180.167 77.5,181.5C 77.7497,183.674 78.7497,185.341 80.5,186.5C 80.5,186.833 80.5,187.167 80.5,187.5C 80.5569,188.609 80.8902,189.609 81.5,190.5C 81.7329,192.062 82.3995,193.395 83.5,194.5C 81.9826,194.489 80.8159,193.823 80,192.5C 79.861,189.555 78.6943,187.221 76.5,185.5C 74.9539,183.118 74.2872,180.451 74.5,177.5 Z"/></g>
<g><path style="opacity:1" fill="#cb5c5b" d="M 77.5,181.5 C 80.0838,182.048 81.0838,183.715 80.5,186.5C 78.7497,185.341 77.7497,183.674 77.5,181.5 Z"/></g>
<g><path style="opacity:1" fill="#f1d4d4" d="M 161.5,173.5 C 161.833,173.5 162.167,173.5 162.5,173.5C 163.115,177.991 162.115,181.991 159.5,185.5C 158.833,185.833 158.167,186.167 157.5,186.5C 158.167,184.833 158.833,183.167 159.5,181.5C 161.202,179.2 161.868,176.533 161.5,173.5 Z"/></g>
<g><path style="opacity:1" fill="#ebc1c1" d="M 80.5,178.5 C 81.1174,178.611 81.6174,178.944 82,179.5C 82.3951,182.207 82.8951,184.873 83.5,187.5C 83.1667,187.5 82.8333,187.5 82.5,187.5C 81.8333,185.167 81.1667,182.833 80.5,180.5C 80.5,179.833 80.5,179.167 80.5,178.5 Z"/></g>
<g><path style="opacity:1" fill="#f9eded" d="M 79.5,172.5 C 80.7206,173.028 81.8873,173.695 83,174.5C 84.0734,178.084 84.7401,181.75 85,185.5C 86.0113,186.337 87.1779,186.67 88.5,186.5C 88.5,188.167 88.5,189.833 88.5,191.5C 88.1667,191.5 87.8333,191.5 87.5,191.5C 87.5123,188.858 86.179,187.525 83.5,187.5C 82.8951,184.873 82.3951,182.207 82,179.5C 81.6174,178.944 81.1174,178.611 80.5,178.5C 79.7659,177.292 79.4326,175.959 79.5,174.5C 79.5,173.833 79.5,173.167 79.5,172.5 Z"/></g>
<g><path style="opacity:1" fill="#d98989" d="M 76.5,175.5 C 77.593,177.349 78.9263,179.016 80.5,180.5C 81.1667,182.833 81.8333,185.167 82.5,187.5C 82.5,187.833 82.5,188.167 82.5,188.5C 81.8333,188.167 81.1667,187.833 80.5,187.5C 80.5,187.167 80.5,186.833 80.5,186.5C 81.0838,183.715 80.0838,182.048 77.5,181.5C 77.1667,179.5 76.8333,177.5 76.5,175.5 Z"/></g>
<g><path style="opacity:1" fill="#f0cfcf" d="M 83.5,187.5 C 86.179,187.525 87.5123,188.858 87.5,191.5C 85.8333,190.5 84.5,189.167 83.5,187.5 Z"/></g>
<g><path style="opacity:1" fill="#e8b6b6" d="M 113.5,185.5 C 117.135,186.114 120.802,186.448 124.5,186.5C 125.5,186.5 126.5,186.5 127.5,186.5C 127.5,186.833 127.5,187.167 127.5,187.5C 124.024,188.643 120.358,188.81 116.5,188C 115.058,187.623 114.058,186.79 113.5,185.5 Z"/></g>
<g><path style="opacity:1" fill="#cb5b5b" d="M 163.5,182.5 C 164.226,186.26 162.893,188.927 159.5,190.5C 160.5,188.5 161.5,186.5 162.5,184.5C 162.328,183.508 162.662,182.842 163.5,182.5 Z"/></g>
<g><path style="opacity:1" fill="#f5e0e0" d="M 104.5,181.5 C 106.937,183.983 109.937,185.317 113.5,185.5C 114.058,186.79 115.058,187.623 116.5,188C 120.358,188.81 124.024,188.643 127.5,187.5C 128.391,186.89 129.391,186.557 130.5,186.5C 130.5,186.833 130.5,187.167 130.5,187.5C 129.373,188.122 128.373,188.955 127.5,190C 123.167,190.667 118.833,190.667 114.5,190C 112.368,187.545 109.701,185.879 106.5,185C 105.177,184.184 104.511,183.017 104.5,181.5 Z"/></g>
<g><path style="opacity:1" fill="#d16e6e" d="M 80.5,187.5 C 81.1667,187.833 81.8333,188.167 82.5,188.5C 83.925,189.922 84.925,191.589 85.5,193.5C 84.1667,192.5 82.8333,191.5 81.5,190.5C 80.8902,189.609 80.5569,188.609 80.5,187.5 Z"/></g>
<g><path style="opacity:1" fill="#f8e9e9" d="M 159.5,181.5 C 158.833,183.167 158.167,184.833 157.5,186.5C 156.647,190.02 154.647,192.687 151.5,194.5C 153.13,190.562 154.797,186.562 156.5,182.5C 157.325,181.614 158.325,181.281 159.5,181.5 Z"/></g>
<g><path style="opacity:1" fill="#eabdbd" d="M 159.5,185.5 C 159.5,185.833 159.5,186.167 159.5,186.5C 157.2,190.79 154.533,194.79 151.5,198.5C 149.716,198.893 148.05,199.559 146.5,200.5C 147.37,198.726 148.703,197.393 150.5,196.5C 150.833,195.833 151.167,195.167 151.5,194.5C 154.647,192.687 156.647,190.02 157.5,186.5C 158.167,186.167 158.833,185.833 159.5,185.5 Z"/></g>
<g><path style="opacity:1" fill="#f3d9d9" d="M 87.5,191.5 C 87.8333,191.5 88.1667,191.5 88.5,191.5C 92.1992,194.869 95.8659,198.202 99.5,201.5C 99.8333,202.167 100.167,202.833 100.5,203.5C 99.8333,203.5 99.1667,203.5 98.5,203.5C 98.0269,202.094 97.0269,201.427 95.5,201.5C 95.5858,200.504 95.2524,199.671 94.5,199C 90.6093,197.943 88.2759,195.443 87.5,191.5 Z"/></g>
<g><path style="opacity:1" fill="#da8c8b" d="M 162.5,184.5 C 161.5,186.5 160.5,188.5 159.5,190.5C 158.89,191.391 158.557,192.391 158.5,193.5C 155.907,194.754 153.573,196.42 151.5,198.5C 154.533,194.79 157.2,190.79 159.5,186.5C 160.5,185.833 161.5,185.167 162.5,184.5 Z"/></g>
<g><path style="opacity:1" fill="#e19f9f" d="M 82.5,187.5 C 82.8333,187.5 83.1667,187.5 83.5,187.5C 84.5,189.167 85.8333,190.5 87.5,191.5C 88.2759,195.443 90.6093,197.943 94.5,199C 95.2524,199.671 95.5858,200.504 95.5,201.5C 94.8333,201.5 94.1667,201.5 93.5,201.5C 93.1583,200.662 92.4916,200.328 91.5,200.5C 89.8333,198.167 87.8333,196.167 85.5,194.5C 85.5,194.167 85.5,193.833 85.5,193.5C 84.925,191.589 83.925,189.922 82.5,188.5C 82.5,188.167 82.5,187.833 82.5,187.5 Z"/></g>
<g><path style="opacity:1" fill="#c34140" d="M 81.5,190.5 C 82.8333,191.5 84.1667,192.5 85.5,193.5C 85.5,193.833 85.5,194.167 85.5,194.5C 86.4151,196.754 87.7484,198.754 89.5,200.5C 86.5,199.5 84.5,197.5 83.5,194.5C 82.3995,193.395 81.7329,192.062 81.5,190.5 Z"/></g>
<g><path style="opacity:1" fill="#d06a6a" d="M 85.5,194.5 C 87.8333,196.167 89.8333,198.167 91.5,200.5C 90.8333,200.5 90.1667,200.5 89.5,200.5C 87.7484,198.754 86.4151,196.754 85.5,194.5 Z"/></g>
<g><path style="opacity:1" fill="#ce6363" d="M 158.5,193.5 C 156.5,195.833 154.5,198.167 152.5,200.5C 151.833,200.5 151.167,200.5 150.5,200.5C 150.833,199.833 151.167,199.167 151.5,198.5C 153.573,196.42 155.907,194.754 158.5,193.5 Z"/></g>
<g><path style="opacity:1" fill="#d67e7e" d="M 93.5,201.5 C 94.1667,201.5 94.8333,201.5 95.5,201.5C 95.8333,202.167 96.1667,202.833 96.5,203.5C 94.9731,203.573 93.9731,202.906 93.5,201.5 Z"/></g>
<g><path style="opacity:1" fill="#c95352" d="M 89.5,200.5 C 90.1667,200.5 90.8333,200.5 91.5,200.5C 92.4916,200.328 93.1583,200.662 93.5,201.5C 93.9731,202.906 94.9731,203.573 96.5,203.5C 96.8333,204.167 97.1667,204.833 97.5,205.5C 95.7162,205.107 94.0495,204.441 92.5,203.5C 91.1667,202.833 90.1667,201.833 89.5,200.5 Z"/></g>
<g><path style="opacity:1" fill="#e3a8a8" d="M 95.5,201.5 C 97.0269,201.427 98.0269,202.094 98.5,203.5C 97.8333,203.5 97.1667,203.5 96.5,203.5C 96.1667,202.833 95.8333,202.167 95.5,201.5 Z"/></g>
<g><path style="opacity:1" fill="#f5e1e1" d="M 150.5,196.5 C 148.703,197.393 147.37,198.726 146.5,200.5C 141.93,203.132 137.264,205.465 132.5,207.5C 124.493,207.666 116.493,207.5 108.5,207C 106.922,205.906 105.255,205.072 103.5,204.5C 102.391,204.443 101.391,204.11 100.5,203.5C 100.167,202.833 99.8333,202.167 99.5,201.5C 103.785,201.538 107.452,203.038 110.5,206C 117.856,206.831 125.189,206.665 132.5,205.5C 132.977,204.522 133.643,203.689 134.5,203C 137.576,202.654 140.576,201.988 143.5,201C 144.841,197.994 147.175,196.494 150.5,196.5 Z"/></g>
<g><path style="opacity:1" fill="#d57b7b" d="M 148.5,201.5 C 147.833,202.5 147.167,203.5 146.5,204.5C 146.167,204.5 145.833,204.5 145.5,204.5C 144.833,204.5 144.167,204.5 143.5,204.5C 144.899,203.11 146.566,202.11 148.5,201.5 Z"/></g>
<g><path style="opacity:1" fill="#c95353" d="M 150.5,200.5 C 150.043,202.773 148.71,204.106 146.5,204.5C 147.167,203.5 147.833,202.5 148.5,201.5C 148.842,200.662 149.508,200.328 150.5,200.5 Z"/></g>
<g><path style="opacity:1" fill="#e3a8a8" d="M 151.5,198.5 C 151.167,199.167 150.833,199.833 150.5,200.5C 149.508,200.328 148.842,200.662 148.5,201.5C 146.566,202.11 144.899,203.11 143.5,204.5C 139.674,205.588 136.008,206.921 132.5,208.5C 132.5,208.167 132.5,207.833 132.5,207.5C 137.264,205.465 141.93,203.132 146.5,200.5C 148.05,199.559 149.716,198.893 151.5,198.5 Z"/></g>
<g><path style="opacity:1" fill="#be3130" d="M 150.5,200.5 C 151.167,200.5 151.833,200.5 152.5,200.5C 151.281,204.38 148.615,206.38 144.5,206.5C 144.833,205.833 145.167,205.167 145.5,204.5C 145.833,204.5 146.167,204.5 146.5,204.5C 148.71,204.106 150.043,202.773 150.5,200.5 Z"/></g>
<g><path style="opacity:1" fill="#e09c9d" d="M 98.5,203.5 C 99.1667,203.5 99.8333,203.5 100.5,203.5C 101.391,204.11 102.391,204.443 103.5,204.5C 103.833,205.167 104.167,205.833 104.5,206.5C 102.033,206.245 100.033,205.245 98.5,203.5 Z"/></g>
<g><path style="opacity:1" fill="#e7b4b4" d="M 103.5,204.5 C 105.255,205.072 106.922,205.906 108.5,207C 116.493,207.5 124.493,207.666 132.5,207.5C 132.5,207.833 132.5,208.167 132.5,208.5C 132.5,208.833 132.5,209.167 132.5,209.5C 124.493,209.666 116.493,209.5 108.5,209C 106.934,208.392 105.6,207.558 104.5,206.5C 104.167,205.833 103.833,205.167 103.5,204.5 Z"/></g>
<g><path style="opacity:1" fill="#d47878" d="M 143.5,204.5 C 142.014,206.619 140.014,208.119 137.5,209C 135.866,209.494 134.199,209.66 132.5,209.5C 132.5,209.167 132.5,208.833 132.5,208.5C 136.008,206.921 139.674,205.588 143.5,204.5 Z"/></g>
<g><path style="opacity:1" fill="#bd2d2c" d="M 92.5,203.5 C 94.0495,204.441 95.7162,205.107 97.5,205.5C 98.7095,205.932 99.7095,206.599 100.5,207.5C 100.833,208.167 101.167,208.833 101.5,209.5C 99.6854,208.37 97.6854,207.704 95.5,207.5C 93.7376,206.738 92.7376,205.404 92.5,203.5 Z"/></g>
<g><path style="opacity:1" fill="#b81c1c" d="M 166.5,179.5 C 167.835,185.53 166.002,190.197 161,193.5C 160.667,195.167 160.333,196.833 160,198.5C 156.209,200.3 153.043,202.8 150.5,206C 147.243,206.455 144.909,208.121 143.5,211C 141.19,211.497 138.857,211.663 136.5,211.5C 139.627,210.733 142.293,209.067 144.5,206.5C 148.615,206.38 151.281,204.38 152.5,200.5C 155.056,199.457 157.223,197.79 159,195.5C 159.861,192.632 161.528,190.298 164,188.5C 164.406,185.258 165.239,182.258 166.5,179.5 Z"/></g>
<g><path style="opacity:1" fill="#d06d6c" d="M 96.5,203.5 C 97.1667,203.5 97.8333,203.5 98.5,203.5C 100.033,205.245 102.033,206.245 104.5,206.5C 105.6,207.558 106.934,208.392 108.5,209C 116.493,209.5 124.493,209.666 132.5,209.5C 123.676,210.657 114.676,210.824 105.5,210C 103.922,208.906 102.255,208.072 100.5,207.5C 99.7095,206.599 98.7095,205.932 97.5,205.5C 97.1667,204.833 96.8333,204.167 96.5,203.5 Z"/></g>
<g><path style="opacity:1" fill="#c23e3d" d="M 143.5,204.5 C 144.167,204.5 144.833,204.5 145.5,204.5C 145.167,205.167 144.833,205.833 144.5,206.5C 142.293,209.067 139.627,210.733 136.5,211.5C 136.167,211.5 135.833,211.5 135.5,211.5C 124.828,211.667 114.161,211.5 103.5,211C 102.584,210.722 101.918,210.222 101.5,209.5C 101.167,208.833 100.833,208.167 100.5,207.5C 102.255,208.072 103.922,208.906 105.5,210C 114.676,210.824 123.676,210.657 132.5,209.5C 134.199,209.66 135.866,209.494 137.5,209C 140.014,208.119 142.014,206.619 143.5,204.5 Z"/></g>
<g><path style="opacity:1" fill="#b81a1a" d="M 95.5,207.5 C 97.6854,207.704 99.6854,208.37 101.5,209.5C 101.918,210.222 102.584,210.722 103.5,211C 114.161,211.5 124.828,211.667 135.5,211.5C 124.007,212.659 112.341,212.826 100.5,212C 98.9301,210.322 97.2635,208.822 95.5,207.5 Z"/></g>
</svg>
