<svg xmlns="http://www.w3.org/2000/svg" width="320" height="320" viewBox="0 0 320 320" version="1.1">
	<path fill-opacity="0.396" d="M 154.500 64.716 C 151.200 70.591, 147.375 77.446, 146 79.949 C 144.625 82.452, 143.275 84.725, 143 85 C 142.565 85.435, 141.198 87.881, 136.573 96.500 C 135.983 97.600, 135.275 98.725, 135 99 C 134.725 99.275, 133.532 101.300, 132.350 103.500 C 128.322 110.994, 125.788 115.498, 125.037 116.500 C 124.625 117.050, 122.929 119.975, 121.268 123 C 117.660 129.569, 106.115 150.048, 99 162.500 C 97.900 164.425, 96.100 167.575, 95 169.500 C 93.900 171.425, 92.100 174.575, 91 176.500 C 89.900 178.425, 88.100 181.575, 87 183.500 C 85.900 185.425, 84.100 188.575, 83 190.500 C 81.900 192.425, 80.100 195.575, 79 197.500 C 77.900 199.425, 76.142 202.513, 75.094 204.363 C 74.046 206.213, 72.587 208.689, 71.851 209.866 C 70.852 211.467, 70.792 212.447, 71.616 213.753 C 72.651 215.394, 78.172 215.500, 163 215.500 C 246.864 215.500, 253.358 215.379, 254.354 213.801 C 255.447 212.067, 254.978 210.889, 249.154 200.750 C 247.969 198.688, 246.100 195.425, 245 193.500 C 243.900 191.575, 242.100 188.425, 241 186.500 C 239.900 184.575, 238.100 181.425, 237 179.500 C 235.900 177.575, 234.100 174.425, 233 172.500 C 231.900 170.575, 230.100 167.425, 229 165.500 C 227.900 163.575, 226.100 160.425, 225 158.500 C 219.575 149.006, 218.536 147.175, 216.202 143 C 214.819 140.525, 210.103 132.200, 205.721 124.500 C 201.340 116.800, 196.392 108.025, 194.725 105 C 193.058 101.975, 190.863 98.306, 189.847 96.846 C 188.831 95.386, 188 93.915, 188 93.578 C 188 93.240, 186.200 90.001, 184 86.380 C 181.800 82.758, 180 79.636, 180 79.442 C 180 79.247, 178.587 76.706, 176.860 73.794 C 173.852 68.721, 172.315 66.026, 167.716 57.750 C 166.143 54.920, 165.002 54.004, 163.066 54.017 C 160.851 54.031, 159.678 55.497, 154.500 64.716 M 154.176 80.750 C 151.861 85.013, 148.783 90.525, 147.335 93 C 145.888 95.475, 143.351 99.975, 141.699 103 C 140.047 106.025, 137.863 109.694, 136.847 111.154 C 135.831 112.614, 135 114.120, 135 114.500 C 135 114.880, 134.051 116.524, 132.891 118.153 C 131.731 119.782, 130.998 121.331, 131.261 121.595 C 131.525 121.859, 137.874 117.997, 145.370 113.014 L 159 103.953 159 88.477 C 159 79.964, 158.862 73, 158.693 73 C 158.524 73, 156.491 76.487, 154.176 80.750 M 167 88.418 L 167 103.836 176.750 110.267 C 193.834 121.534, 195 122.188, 195 120.513 C 195 119.681, 194.602 119, 194.117 119 C 193.631 119, 192.976 118.213, 192.661 117.250 C 192.346 116.287, 190.879 113.475, 189.403 111 C 186.558 106.233, 184.327 102.366, 180.896 96.250 C 171.186 78.946, 167.733 73, 167.395 73 C 167.178 73, 167 79.938, 167 88.418 M 156.549 129.285 C 153.276 136.553, 148.630 146.775, 146.225 152 C 143.820 157.225, 140.717 163.975, 139.330 167 C 137.942 170.025, 135.951 174.230, 134.904 176.345 C 133.857 178.459, 133 180.371, 133 180.595 C 133 180.818, 146.500 181, 163 181 C 179.500 181, 193 180.661, 193 180.247 C 193 179.832, 191.383 176.120, 189.407 171.997 C 187.431 167.873, 184.731 162.137, 183.407 159.250 C 182.083 156.363, 179.906 151.637, 178.569 148.750 C 170.468 131.257, 167.834 125.484, 165.909 121.010 C 164.723 118.254, 163.472 116.016, 163.127 116.035 C 162.782 116.054, 159.822 122.016, 156.549 129.285 M 137.654 127.142 C 124.594 135.957, 122.888 137.422, 123.464 139.331 C 124.087 141.391, 124.426 143.604, 127.017 162.472 C 127.619 166.857, 128.280 170.613, 128.486 170.820 C 128.693 171.026, 129.839 169.013, 131.035 166.347 C 132.230 163.681, 134.511 158.688, 136.104 155.250 C 141.270 144.102, 144.696 136.657, 148.414 128.500 C 150.420 124.100, 152.501 119.713, 153.039 118.750 C 153.577 117.787, 153.676 117.028, 153.258 117.061 C 152.841 117.095, 145.819 121.631, 137.654 127.142 M 175.024 122.750 C 176.607 125.912, 179.552 132.100, 181.568 136.500 C 183.583 140.900, 186.580 147.425, 188.226 151 C 194.392 164.388, 195.800 167.546, 196.361 169.250 C 197.500 172.710, 199 170.907, 199 166.076 C 199 163.368, 199.423 158.981, 199.939 156.326 C 203.476 138.155, 203.481 138.001, 200.673 135.397 C 199.251 134.079, 197.829 133, 197.514 133 C 197.199 133, 191.568 129.400, 185 125 C 178.432 120.600, 172.853 117, 172.602 117 C 172.351 117, 173.440 119.588, 175.024 122.750 M 114.129 150.976 C 112.889 153.355, 107.247 163.446, 101.590 173.401 C 88.612 196.238, 86 200.954, 86 201.549 C 86 201.811, 90.838 199.483, 96.750 196.373 C 102.662 193.264, 110.650 189.074, 114.500 187.062 C 121.393 183.460, 121.499 183.344, 121.451 179.452 C 121.395 174.910, 118.230 152.692, 117.125 149.076 C 116.416 146.756, 116.287 146.838, 114.129 150.976 M 209 148.181 C 209 148.830, 207.846 156.766, 206.436 165.817 C 205.026 174.867, 204.238 182.625, 204.686 183.056 C 205.134 183.488, 209.325 185.842, 214 188.288 C 218.675 190.735, 226.845 195.021, 232.155 197.814 L 241.810 202.892 237.905 196.464 C 235.757 192.929, 234 189.760, 234 189.422 C 234 189.085, 233.169 187.614, 232.153 186.154 C 231.137 184.694, 228.946 181.025, 227.285 178 C 225.624 174.975, 221.280 167.258, 217.632 160.851 C 213.985 154.444, 211 148.707, 211 148.101 C 211 147.495, 210.550 147, 210 147 C 209.450 147, 209 147.531, 209 148.181 M 140.500 190.551 C 141.600 191.369, 143.175 192.597, 144 193.279 C 148.448 196.960, 162.414 207, 163.085 207 C 163.516 207, 168.680 203.400, 174.561 199 C 180.443 194.600, 185.647 191, 186.127 191 C 186.607 191, 187 190.550, 187 190 C 187 189.360, 178.271 189.011, 162.750 189.032 C 141.053 189.060, 138.711 189.220, 140.500 190.551 M 108.769 198.788 C 99.566 203.580, 92.029 207.838, 92.019 208.250 C 92.008 208.662, 105.275 209, 121.500 209 C 137.725 209, 151 208.658, 151 208.241 C 151 207.823, 149.988 206.849, 148.750 206.076 C 147.512 205.303, 142.097 201.370, 136.716 197.335 C 131.335 193.301, 126.610 190.017, 126.216 190.038 C 125.822 190.059, 117.971 193.997, 108.769 198.788 M 187.313 198.830 C 181.159 203.598, 175.797 207.838, 175.396 208.250 C 174.995 208.662, 188.332 209, 205.033 209 C 222.035 209, 234.982 208.622, 234.450 208.141 C 233.928 207.668, 227.650 204.217, 220.500 200.472 C 213.350 196.727, 206.024 192.839, 204.220 191.832 C 202.415 190.824, 200.390 190.036, 199.720 190.080 C 199.049 190.123, 193.466 194.061, 187.313 198.830 M 107.635 229.073 C 105.015 231.133, 105 231.223, 105 245 C 105 258.777, 105.015 258.867, 107.635 260.927 C 111.151 263.694, 119.777 263.811, 123.079 261.137 C 124.971 259.605, 125.512 257.882, 126.130 251.418 C 126.622 246.258, 126.515 243.121, 125.818 242.280 C 124.181 240.309, 115.990 240.646, 114.392 242.750 C 113.227 244.284, 113.060 243.914, 113.032 239.750 C 113.003 235.406, 113.203 235, 115.378 235 C 116.685 235, 118.315 235.675, 119 236.500 C 120.614 238.444, 123.444 238.413, 125.429 236.429 C 127.622 234.235, 127.420 233.267, 124.077 229.923 C 121.562 227.408, 120.393 227, 115.712 227 C 111.720 227, 109.567 227.552, 107.635 229.073 M 137.001 228.499 C 135.113 230.774, 136.049 260.786, 138.047 262.050 C 138.846 262.556, 142.482 262.976, 146.128 262.985 C 153.578 263.002, 155.636 261.672, 154.593 257.513 C 154.036 255.297, 153.433 255, 149.481 255 C 145.189 255, 145 254.876, 145 252.060 C 145 249.385, 145.337 249.093, 148.750 248.810 C 152.310 248.516, 152.500 248.323, 152.500 245 C 152.500 241.677, 152.310 241.484, 148.750 241.190 C 145.337 240.907, 145 240.615, 145 237.940 C 145 235.124, 145.189 235, 149.481 235 C 153.433 235, 154.036 234.703, 154.593 232.487 C 155.659 228.237, 153.610 227, 145.500 227 C 140.273 227, 137.897 227.419, 137.001 228.499 M 167.367 227.765 C 166.210 228.516, 165.561 239.788, 165.847 254.183 C 165.981 260.914, 166.248 261.944, 168 262.500 C 169.100 262.849, 170.900 262.849, 172 262.500 C 173.764 261.940, 174.007 260.960, 174.056 254.183 C 174.110 246.916, 174.178 246.689, 175.306 249.988 C 176.947 254.782, 179.132 254.888, 181.202 250.276 L 182.897 246.500 182.949 254.231 C 182.998 261.693, 183.090 261.984, 185.585 262.611 C 190.565 263.861, 191.162 261.915, 191.147 244.484 C 191.132 227.599, 190.876 226.728, 186.075 227.241 C 184.270 227.434, 182.956 228.846, 180.938 232.761 L 178.226 238.023 176.674 234.144 C 174.187 227.928, 170.749 225.572, 167.367 227.765 M 203.750 229.115 C 201.225 230.999, 201 231.718, 201 237.909 C 201 246.273, 203.167 249, 209.814 249 C 213.798 249, 214 249.145, 214 252 C 214 254.268, 213.542 255, 212.122 255 C 211.090 255, 209.666 254.302, 208.958 253.449 C 208.174 252.505, 206.463 252.016, 204.585 252.199 C 200.369 252.610, 199.757 256.848, 203.390 260.481 C 205.481 262.572, 206.858 263, 211.500 263 C 216.103 263, 217.525 262.566, 219.545 260.545 C 221.600 258.491, 222 257.124, 222 252.156 C 222 244.575, 220.050 241.908, 213.910 241.088 C 210.037 240.572, 209.500 240.197, 209.500 238.014 C 209.500 235.068, 212.820 233.926, 214.202 236.397 C 215.257 238.282, 219.085 238.515, 220.800 236.800 C 222.689 234.911, 222.213 232.122, 219.545 229.455 C 216.287 226.196, 207.904 226.016, 203.750 229.115 M 113.241 250 C 113.460 253.811, 113.845 254.549, 115.750 254.820 C 117.664 255.091, 118 254.681, 118 252.070 C 118 250.054, 117.502 249, 116.550 249 C 115.752 249, 114.623 248.213, 114.041 247.250 C 113.210 245.877, 113.038 246.470, 113.241 250 M 128.494 256.433 C 128.222 257.295, 127.802 258.642, 127.559 259.427 C 126.949 261.403, 129.426 263.219, 132.195 262.827 C 134.100 262.557, 134.500 261.893, 134.500 259 C 134.500 255.923, 134.167 255.462, 131.744 255.183 C 129.918 254.973, 128.822 255.394, 128.494 256.433 M 157.243 256.157 C 154.344 259.056, 156.936 263.430, 161.195 262.827 C 163.100 262.557, 163.500 261.893, 163.500 259 C 163.500 256.009, 163.136 255.457, 160.993 255.207 C 159.614 255.046, 157.927 255.473, 157.243 256.157 M 193.415 256.360 C 193.100 257.182, 192.990 258.900, 193.171 260.177 C 193.432 262.018, 194.122 262.500, 196.500 262.500 C 199.262 262.500, 199.500 262.222, 199.500 259 C 199.500 255.923, 199.167 255.462, 196.744 255.183 C 194.996 254.982, 193.779 255.412, 193.415 256.360" stroke="none" fill="black" fill-rule="evenodd"/>
	<path fill-opacity="0.390" d="M 160.223 56.697 C 159.129 58.239, 157.281 61.188, 156.117 63.250 C 154.953 65.313, 153.100 68.575, 152 70.500 C 150.900 72.425, 149.100 75.575, 148 77.500 C 146.900 79.425, 145.100 82.575, 144 84.500 C 142.900 86.425, 141.045 89.688, 139.877 91.750 C 134.802 100.716, 129.074 110.799, 126.954 114.500 C 125.694 116.700, 123.014 121.425, 121 125 C 118.986 128.575, 116.361 133.188, 115.169 135.250 C 113.976 137.313, 112.100 140.575, 111 142.500 C 109.900 144.425, 108.100 147.575, 107 149.500 C 101.574 158.995, 100.536 160.825, 98.202 165 C 96.819 167.475, 90.338 178.907, 83.800 190.405 C 77.262 201.903, 72.051 212.028, 72.220 212.905 C 72.498 214.349, 81.136 214.524, 163.264 214.755 L 254 215.011 254 212.910 C 254 211.755, 249.222 202.415, 243.382 192.155 C 237.542 181.895, 231.637 171.475, 230.259 169 C 228.880 166.525, 226.964 163.150, 226 161.500 C 225.036 159.850, 223.130 156.475, 221.765 154 C 219.464 149.828, 218.046 147.321, 213.140 138.750 C 212.117 136.963, 209.867 133.118, 208.140 130.206 C 206.413 127.294, 205 124.664, 205 124.360 C 205 124.057, 204.169 122.614, 203.153 121.154 C 202.137 119.694, 199.939 116.025, 198.269 113 C 192.406 102.381, 187.366 93.435, 183.339 86.500 C 181.104 82.650, 178.151 77.475, 176.779 75 C 175.406 72.525, 173.383 68.925, 172.283 67 C 171.183 65.075, 169.140 61.475, 167.743 59 C 164.669 53.554, 162.848 52.997, 160.223 56.697 M 157.065 74.250 C 156.287 75.487, 154.448 78.750, 152.979 81.500 C 151.510 84.250, 148.889 88.882, 147.154 91.794 C 145.419 94.706, 144 97.247, 144 97.442 C 144 97.636, 142.283 100.654, 140.184 104.148 C 131.650 118.355, 128.848 123.995, 130.711 123.217 C 131.695 122.806, 138.683 118.427, 146.240 113.485 L 159.981 104.500 159.990 88.250 C 159.996 79.313, 159.658 72, 159.241 72 C 158.823 72, 157.844 73.013, 157.065 74.250 M 166 87.852 L 166 103.870 169.750 106.429 C 181.369 114.359, 196.392 123.941, 196.709 123.624 C 196.990 123.343, 183.520 99.089, 169.182 74.060 C 168.728 73.267, 167.827 72.442, 167.179 72.226 C 166.307 71.936, 166 75.999, 166 87.852 M 160.323 119.768 C 153.682 134.208, 150.880 140.263, 147.604 147.253 C 143.979 154.988, 142.285 158.668, 135.678 173.175 C 133.756 177.396, 132.441 181.108, 132.758 181.425 C 133.707 182.373, 192.837 182.073, 193.428 181.117 C 193.728 180.631, 189.008 169.493, 182.938 156.367 C 176.868 143.240, 171.024 130.588, 169.951 128.250 C 164.974 117.407, 163.735 115.001, 163.140 115.018 C 162.788 115.027, 161.521 117.165, 160.323 119.768 M 137.620 126.256 L 122.740 136.238 123.423 141.869 C 123.798 144.966, 124.516 149.975, 125.019 153 C 125.522 156.025, 126.238 161.537, 126.612 165.250 C 127.001 169.120, 127.762 171.993, 128.395 171.983 C 129.003 171.974, 130.601 169.386, 131.947 166.233 C 133.293 163.080, 136.269 156.450, 138.561 151.500 C 140.852 146.550, 143.728 140.250, 144.952 137.500 C 146.176 134.750, 148.712 129.346, 150.589 125.491 C 153.950 118.585, 154.723 115.868, 153.250 116.137 C 152.838 116.212, 145.804 120.765, 137.620 126.256 M 172 116.730 C 172 117.222, 173.061 119.847, 174.358 122.563 C 177.221 128.557, 177.761 129.730, 188.375 152.968 C 193.015 163.126, 197.239 171.580, 197.762 171.754 C 198.285 171.928, 198.995 169.692, 199.340 166.785 C 199.919 161.905, 200.387 158.655, 202.794 142.753 C 203.836 135.873, 205.047 137.206, 187 125.361 C 171.820 115.397, 172 115.501, 172 116.730 M 114.737 148.750 C 113.961 150.262, 112.353 153.188, 111.163 155.250 C 109.974 157.313, 108.100 160.575, 107 162.500 C 105.900 164.425, 104.100 167.575, 103 169.500 C 101.900 171.425, 100.034 174.688, 98.853 176.750 C 97.672 178.813, 95.340 182.975, 93.671 186 C 92.002 189.025, 89.178 193.975, 87.396 197 C 85.614 200.025, 84.510 202.630, 84.944 202.789 C 85.915 203.144, 121.792 184.145, 122.592 182.851 C 122.908 182.339, 122.652 178.676, 122.021 174.710 C 121.391 170.745, 120.482 165.025, 120.002 162 C 119.521 158.975, 118.832 154.137, 118.470 151.250 C 117.731 145.352, 116.799 144.728, 114.737 148.750 M 208.510 147.250 C 208.275 147.938, 207.580 152.100, 206.965 156.500 C 204.480 174.283, 204.128 176.621, 203.491 179.556 C 203.049 181.594, 203.273 182.961, 204.164 183.660 C 204.899 184.237, 212.700 188.442, 221.500 193.005 C 230.300 197.568, 238.512 201.960, 239.750 202.766 C 242.853 204.785, 242.605 203.109, 238.866 196.794 C 236.005 191.961, 232.067 185.008, 224.539 171.500 C 223.007 168.750, 220.796 164.925, 219.626 163 C 215.902 156.870, 211.928 149.558, 211.338 147.750 C 210.674 145.716, 209.128 145.442, 208.510 147.250 M 138 188.917 C 138 189.421, 142.539 193.134, 148.086 197.167 C 153.633 201.200, 159.102 205.287, 160.239 206.250 C 161.376 207.213, 162.590 208, 162.938 208 C 163.286 208, 168.729 204.178, 175.035 199.507 C 181.341 194.836, 186.789 191.011, 187.143 191.007 C 187.497 191.003, 188.045 190.325, 188.362 189.500 C 188.864 188.191, 185.697 188, 163.469 188 C 148.692 188, 138 188.385, 138 188.917 M 119.500 192.334 C 116.200 194.170, 108.550 198.247, 102.500 201.395 C 96.450 204.542, 91.072 207.541, 90.550 208.059 C 89.956 208.647, 101.290 209, 120.800 209 C 137.960 209, 151.974 208.662, 151.943 208.250 C 151.879 207.414, 128.095 189.645, 126.507 189.248 C 125.953 189.109, 122.800 190.498, 119.500 192.334 M 187.449 197.999 C 180.877 202.948, 175.162 206.998, 174.750 206.999 C 174.338 206.999, 174 207.450, 174 208 C 174 208.645, 185 209, 205 209 C 222.050 209, 235.996 208.662, 235.992 208.250 C 235.988 207.838, 234.975 207.028, 233.742 206.452 C 232.509 205.875, 224.464 201.713, 215.864 197.202 C 207.265 192.691, 200.042 189, 199.813 189 C 199.584 189, 194.020 193.049, 187.449 197.999 M 108.025 229.779 C 105.961 231.450, 105.828 232.367, 105.828 244.855 C 105.828 261.245, 106.259 262.016, 115.405 261.968 C 123.987 261.923, 124.679 261.142, 125.126 250.980 L 125.500 242.500 120.250 242.198 C 115.040 241.898, 115 241.918, 115 244.831 C 115 246.958, 115.570 247.916, 117.069 248.308 C 118.729 248.742, 119.075 249.506, 118.819 252.174 C 118.551 254.963, 118.056 255.551, 115.750 255.816 C 112.702 256.167, 112.781 256.419, 112.818 246.500 C 112.863 234.394, 112.695 235, 116 235 C 117.650 235, 119 235.450, 119 236 C 119 237.470, 124.979 237.226, 125.118 235.750 C 125.382 232.973, 124.789 231.417, 122.833 229.750 C 120.004 227.340, 111.014 227.358, 108.025 229.779 M 138.250 228.642 C 136.881 229.217, 136.462 248.799, 137.636 257.360 L 138.272 262 146.136 262 L 154 262 154 259.055 C 154 256.251, 153.772 256.095, 149.250 255.805 C 144.546 255.503, 144.500 255.466, 144.500 252 C 144.500 248.677, 144.690 248.484, 148.250 248.190 C 151.643 247.909, 152 247.605, 152 245 C 152 242.395, 151.643 242.091, 148.250 241.810 C 144.826 241.527, 144.473 241.217, 144.187 238.250 C 143.883 235.099, 143.989 235, 147.687 234.985 C 152.593 234.965, 154.257 233.856, 153.837 230.887 C 153.522 228.652, 153.053 228.488, 146.500 228.309 C 142.650 228.203, 138.938 228.353, 138.250 228.642 M 167.224 228.841 C 166.256 229.454, 166.014 233.505, 166.224 245.575 L 166.500 261.500 169.817 261.818 L 173.135 262.137 172.908 254.372 C 172.777 249.894, 173.103 246.466, 173.677 246.274 C 174.225 246.092, 175.457 247.868, 176.413 250.221 L 178.152 254.500 180.273 250.250 C 181.440 247.912, 182.755 246, 183.197 246 C 183.639 246, 184 249.600, 184 254 L 184 262 186.878 262 L 189.755 262 190.139 253.250 C 190.350 248.438, 190.293 240.900, 190.011 236.500 C 189.509 228.637, 189.453 228.495, 186.718 228.180 C 184.231 227.895, 183.700 228.397, 181.718 232.907 C 180.498 235.682, 179.027 237.963, 178.448 237.976 C 177.870 237.989, 176.446 235.750, 175.284 233 C 173.602 229.018, 172.696 228.003, 170.836 228.015 C 169.551 228.024, 167.926 228.395, 167.224 228.841 M 204.223 229.557 C 202.297 230.905, 202 232.020, 202 237.902 C 202 245.780, 203.547 247.991, 209.079 248.015 C 213.777 248.036, 215.220 249.189, 214.830 252.609 C 214.438 256.043, 210.935 257.078, 208.374 254.517 C 206.322 252.465, 202.629 252.932, 202.177 255.299 C 201.989 256.289, 202.557 258.201, 203.440 259.549 C 204.864 261.722, 205.762 262, 211.368 262 C 219.704 262, 221 260.631, 221 251.826 C 221 243.959, 219.439 242, 213.171 242 C 209.071 242, 209 241.941, 209 238.500 C 209 235.278, 209.238 235, 212 235 C 213.650 235, 215 235.450, 215 236 C 215 236.550, 216.350 237, 218 237 C 220.654 237, 221 236.660, 221 234.057 C 221 230.031, 217.815 228, 211.500 228 C 208.543 228, 205.522 228.646, 204.223 229.557 M 128.667 256.667 C 128.300 257.033, 128 258.383, 128 259.667 C 128 261.581, 128.527 262, 130.933 262 C 133.899 262, 135.880 259.233, 134.506 257.009 C 133.807 255.879, 129.696 255.638, 128.667 256.667 M 157.387 257.433 C 156.314 260.231, 157.789 262.157, 160.744 261.817 C 162.933 261.565, 163.500 260.985, 163.500 259 C 163.500 257.015, 162.933 256.435, 160.744 256.183 C 158.947 255.976, 157.779 256.411, 157.387 257.433 M 193.362 257.500 C 192.404 259.995, 193.789 262, 196.469 262 C 198.615 262, 199 261.543, 199 259 C 199 256.457, 198.615 256, 196.469 256 C 195.076 256, 193.678 256.675, 193.362 257.500" stroke="none" fill="black" fill-rule="evenodd"/>
	<path fill-opacity="0.510" d="M 161.430 55.765 C 160.842 56.169, 158.995 58.975, 157.327 62 C 155.659 65.025, 152.387 70.875, 150.056 75 C 147.726 79.125, 144.219 85.425, 142.264 89 C 140.309 92.575, 138.373 95.950, 137.961 96.500 C 137.550 97.050, 136.265 99.188, 135.107 101.250 C 132.923 105.137, 130.543 109.315, 126.845 115.750 C 125.660 117.813, 123.416 121.898, 121.857 124.829 C 120.299 127.760, 118.118 131.429, 117.012 132.983 C 115.905 134.537, 115 136.085, 115 136.422 C 115 136.760, 113.200 139.999, 111 143.620 C 108.800 147.242, 107 150.346, 107 150.519 C 107 150.692, 101.825 159.928, 95.500 171.043 C 89.175 182.158, 84 191.374, 84 191.524 C 84 191.673, 82.200 194.758, 80 198.380 C 77.800 202.001, 76 205.240, 76 205.578 C 76 205.915, 75.058 207.514, 73.907 209.131 C 69.523 215.288, 65.169 215.002, 162.872 214.985 C 215.575 214.976, 252.094 214.594, 252.966 214.042 C 254.513 213.064, 254.214 212.301, 248.154 201.750 C 244.164 194.803, 241.730 190.523, 239.199 186 C 237.813 183.525, 229.399 168.675, 220.500 153 C 211.601 137.325, 203.187 122.475, 201.801 120 C 199.464 115.823, 198.400 113.950, 193 104.500 C 191.900 102.575, 190.100 99.425, 189 97.500 C 187.900 95.575, 186.100 92.425, 185 90.500 C 183.900 88.575, 182.153 85.537, 181.119 83.750 C 180.084 81.963, 175.991 74.763, 172.023 67.750 C 165.124 55.556, 163.844 54.108, 161.430 55.765 M 166.226 87.461 L 166.500 105.205 179.226 113.353 C 186.225 117.834, 192.913 122.327, 194.089 123.337 C 196.525 125.431, 199.175 124.142, 197.264 121.792 C 196.686 121.082, 195.265 118.813, 194.107 116.750 C 192.948 114.688, 191.100 111.425, 190 109.500 C 188.900 107.575, 187.100 104.425, 186 102.500 C 183.794 98.640, 180.913 93.562, 178.844 89.887 C 178.105 88.574, 177.275 87.275, 177 87 C 176.549 86.549, 174.151 82.178, 170.336 74.855 C 169.578 73.401, 168.282 71.649, 167.456 70.963 C 166.126 69.860, 165.984 71.766, 166.226 87.461 M 157.148 73.134 C 155.697 75.459, 153.029 80.213, 149.650 86.500 C 148.468 88.700, 147.275 90.725, 147 91 C 146.725 91.275, 145.532 93.300, 144.350 95.500 C 140.208 103.205, 137.752 107.521, 136.097 110 C 135.179 111.375, 133.781 113.850, 132.990 115.500 C 132.200 117.150, 130.740 119.590, 129.748 120.921 C 127.043 124.550, 129.120 125.756, 133.173 122.909 C 135.003 121.624, 136.650 120.218, 136.833 119.786 C 137.017 119.354, 137.594 119, 138.117 119 C 138.639 119, 143.777 115.840, 149.533 111.978 L 160 104.955 160 88.978 C 160 80.190, 160.034 72.674, 160.075 72.275 C 160.248 70.606, 158.386 71.153, 157.148 73.134 M 159.118 121.250 C 157.291 125.237, 154.313 131.650, 152.502 135.500 C 149.149 142.626, 146.111 149.207, 139.574 163.500 C 137.562 167.900, 135.035 173.230, 133.958 175.345 C 130.366 182.398, 128.600 182, 163.500 182 C 180.825 182, 195 181.802, 195 181.559 C 195 181.317, 193.169 177.154, 190.931 172.309 C 188.693 167.464, 185.719 161.025, 184.322 158 C 179.072 146.636, 176.119 140.282, 172.702 133 C 170.766 128.875, 168.022 122.912, 166.605 119.750 C 165.187 116.588, 163.670 114, 163.234 114 C 162.798 114, 160.946 117.263, 159.118 121.250 M 137.750 125.520 C 129.088 131.242, 122.008 136.504, 122.018 137.212 C 122.028 137.921, 122.920 143.900, 124 150.500 C 125.080 157.100, 125.979 164.300, 125.997 166.500 C 126.016 168.700, 126.428 171.128, 126.914 171.896 C 128.010 173.626, 131 172.618, 131 170.518 C 131 169.668, 131.440 168.191, 131.979 167.236 C 132.517 166.281, 134.577 161.900, 136.555 157.500 C 142.346 144.624, 143.021 143.164, 149.667 129.099 C 153.150 121.728, 156 115.540, 156 115.349 C 156 113.934, 151.441 116.475, 137.750 125.520 M 171 115.900 C 171 116.396, 172.844 120.783, 175.098 125.650 C 177.351 130.518, 180.546 137.425, 182.198 141 C 183.849 144.575, 186.055 149.272, 187.100 151.438 C 188.145 153.604, 189 155.966, 189 156.688 C 189 157.410, 189.450 158, 190 158 C 190.550 158, 191 158.632, 191 159.405 C 191 160.179, 191.956 162.766, 193.124 165.155 C 194.293 167.545, 195.563 170.148, 195.946 170.940 C 197.109 173.344, 198.899 173.281, 199.372 170.821 C 200.070 167.192, 204.017 138.643, 204.008 137.287 C 204 136.110, 173.536 115, 171.845 115 C 171.380 115, 171 115.405, 171 115.900 M 114.433 148.129 C 112.824 151.241, 111.452 153.709, 107 161.500 C 105.900 163.425, 104.100 166.575, 103 168.500 C 101.900 170.425, 100.100 173.575, 99 175.500 C 97.900 177.425, 96.100 180.575, 95 182.500 C 93.900 184.425, 92.100 187.575, 91 189.500 C 89.900 191.425, 88.052 194.688, 86.893 196.750 C 85.735 198.813, 84.321 201.073, 83.751 201.774 C 83.181 202.475, 83.025 203.358, 83.404 203.737 C 84.098 204.431, 88.515 202.293, 110.500 190.616 L 122.500 184.243 122.425 178.372 C 122.383 175.142, 121.761 168.900, 121.041 164.500 C 120.322 160.100, 119.456 154.060, 119.117 151.079 C 118.387 144.663, 116.757 143.636, 114.433 148.129 M 207.537 146.250 C 207.317 146.938, 206.885 150.200, 206.576 153.500 C 206.268 156.800, 205.578 162.425, 205.044 166 C 204.509 169.575, 203.788 174.975, 203.442 178 C 202.725 184.265, 201.571 183.059, 215.250 190.342 C 220.063 192.904, 227.797 197.025, 232.438 199.500 C 241.594 204.383, 243 204.782, 243 202.500 C 243 201.675, 242.602 201, 242.117 201 C 241.631 201, 240.976 200.213, 240.661 199.250 C 240.346 198.287, 238.879 195.475, 237.403 193 C 235.926 190.525, 233.881 187.037, 232.859 185.250 C 231.836 183.463, 230.031 180.313, 228.846 178.250 C 227.661 176.188, 225.749 172.700, 224.596 170.500 C 223.443 168.300, 222.275 166.275, 222 166 C 221.725 165.725, 220.533 163.700, 219.351 161.500 C 218.169 159.300, 216.012 155.475, 214.557 153 C 213.102 150.525, 211.654 147.713, 211.339 146.750 C 210.680 144.734, 208.130 144.399, 207.537 146.250 M 137.446 188.087 C 136.602 189.454, 136.143 189.047, 150.835 199.958 L 163.170 209.118 176.620 199.019 C 184.017 193.466, 189.802 188.489, 189.476 187.961 C 188.611 186.561, 138.314 186.684, 137.446 188.087 M 122.450 189.904 C 121.480 190.827, 106.485 198.830, 95.280 204.405 C 84.379 209.829, 85.461 210.058, 120.667 209.764 C 140.712 209.597, 152.430 209.133, 152.597 208.500 C 153.003 206.951, 128.191 189, 125.643 189 C 124.409 189, 122.973 189.407, 122.450 189.904 M 185.726 198.567 C 178.700 203.817, 173.214 208.538, 173.535 209.057 C 173.880 209.615, 186.933 210, 205.559 210 C 230.219 210, 237 209.728, 237 208.737 C 237 208.042, 232.838 205.326, 227.750 202.702 C 222.662 200.077, 214.747 195.920, 210.159 193.465 C 205.572 191.009, 201.072 189.005, 200.159 189.011 C 199.247 189.016, 192.752 193.317, 185.726 198.567 M 107.980 230.525 C 107.094 231.591, 106.721 236.110, 106.736 245.575 C 106.760 261.258, 107.124 261.936, 115.500 261.936 C 122.735 261.936, 124.161 260.452, 124.924 252.126 C 125.274 248.307, 125.397 244.691, 125.197 244.091 C 124.997 243.491, 122.621 243, 119.917 243 C 115.339 243, 115 243.172, 115 245.500 C 115 247.333, 115.533 248, 117 248 C 118.667 248, 119 248.667, 119 252 C 119 255.912, 118.922 256, 115.466 256 L 111.932 256 112.216 245.250 L 112.500 234.500 115.750 234.187 C 117.576 234.011, 119 234.339, 119 234.937 C 119 235.521, 120.350 236, 122 236 C 125.535 236, 126.121 233.325, 123.171 230.655 C 120.710 228.427, 109.798 228.334, 107.980 230.525 M 137.826 237.123 C 137.647 241.590, 137.725 248.903, 138 253.373 L 138.500 261.500 146 261.500 C 153.333 261.500, 153.500 261.444, 153.500 259 C 153.500 256.731, 153.066 256.472, 148.801 256.197 C 143.766 255.873, 142.212 254.057, 143.500 250 C 143.993 248.447, 145.013 248, 148.067 248 C 151.596 248, 152 247.743, 152 245.500 C 152 243.314, 151.564 243, 148.535 243 C 144.558 243, 142.454 240.310, 143.420 236.461 C 143.921 234.466, 144.731 234.063, 148.755 233.805 C 152.803 233.545, 153.547 233.170, 153.820 231.250 C 154.128 229.078, 153.863 229, 146.146 229 L 138.152 229 137.826 237.123 M 166.826 237.123 C 166.647 241.590, 166.725 248.903, 167 253.373 C 167.449 260.667, 167.705 261.500, 169.500 261.500 C 171.315 261.500, 171.527 260.737, 171.790 253.250 C 172.020 246.735, 172.395 245, 173.572 245 C 174.392 245, 175.314 245.787, 175.622 246.750 C 175.930 247.713, 176.697 249.570, 177.328 250.878 C 178.459 253.223, 178.500 253.199, 180.275 249.128 C 183.162 242.510, 184.500 243.815, 184.500 253.249 C 184.500 260.924, 184.650 261.521, 186.645 261.806 C 188.675 262.095, 188.809 261.645, 189.147 253.429 C 189.343 248.654, 189.342 241.204, 189.146 236.873 C 188.802 229.302, 188.695 229, 186.359 229 C 184.407 229, 183.496 229.981, 181.715 233.999 C 180.497 236.748, 178.993 238.998, 178.373 238.999 C 177.753 238.999, 176.278 236.750, 175.095 234 C 173.222 229.646, 172.570 229, 170.048 229 L 167.152 229 166.826 237.123 M 204.200 230.200 C 203.507 230.893, 203 234.210, 203 238.045 C 203 246.053, 204.531 248, 210.829 248 L 215 248 215 252 C 215 255.714, 214.800 256, 212.200 256 C 210.660 256, 208.912 255.512, 208.315 254.915 C 207.719 254.319, 206.166 253.981, 204.865 254.165 C 203.131 254.411, 202.591 255.033, 202.840 256.500 C 203.505 260.405, 206.011 262, 211.481 262 C 218.628 262, 221 259.469, 221 251.841 C 221 245.314, 219.157 243.008, 213.921 242.985 C 209.057 242.963, 207.798 241.848, 208.176 237.895 C 208.464 234.876, 208.860 234.465, 211.750 234.187 C 213.576 234.011, 215 234.339, 215 234.937 C 215 235.521, 216.350 236, 218 236 C 221.535 236, 222.121 233.325, 219.171 230.655 C 216.976 228.669, 206.063 228.337, 204.200 230.200 M 129 259 C 129 261.533, 129.389 262, 131.500 262 C 133.611 262, 134 261.533, 134 259 C 134 256.467, 133.611 256, 131.500 256 C 129.389 256, 129 256.467, 129 259 M 158.390 257.426 C 157.480 259.797, 158.767 262.191, 160.747 261.810 C 163.125 261.352, 163.125 256.648, 160.747 256.190 C 159.783 256.004, 158.722 256.560, 158.390 257.426 M 194 258.930 C 194 261.559, 194.369 262, 196.566 262 C 198.776 262, 199.089 261.618, 198.816 259.250 C 198.590 257.281, 197.861 256.409, 196.250 256.180 C 194.336 255.909, 194 256.319, 194 258.930" stroke="none" fill="black" fill-rule="evenodd"/>
	<path fill-opacity="0.957" d="M 160.678 57.750 C 160.135 59.463, 156.989 65.011, 156 66 C 155.725 66.275, 154.566 68.300, 153.425 70.500 C 150.517 76.104, 148.598 79.415, 147.920 80 C 147.601 80.275, 146.703 81.963, 145.926 83.750 C 145.148 85.537, 144.256 87, 143.943 87 C 143.629 87, 142.755 88.575, 142 90.500 C 141.245 92.425, 140.345 94, 140 94 C 139.655 94, 138.755 95.575, 138 97.500 C 137.245 99.425, 136.345 101, 136 101 C 135.655 101, 134.755 102.575, 134 104.500 C 133.245 106.425, 132.261 108, 131.813 108 C 131.366 108, 131 108.675, 131 109.500 C 131 110.325, 130.550 111, 130 111 C 129.450 111, 129 111.900, 129 113 C 129 114.100, 128.662 115.004, 128.250 115.008 C 127.838 115.012, 127.005 116.025, 126.399 117.258 C 123.444 123.276, 120.424 128.534, 119.750 128.833 C 119.338 129.017, 119 129.501, 119 129.910 C 119 130.622, 112.739 142.387, 108.176 150.250 C 106.107 153.816, 103.819 157.830, 100.844 163.113 C 100.105 164.426, 99.275 165.725, 99 166 C 98.725 166.275, 97.566 168.300, 96.425 170.500 C 93.741 175.672, 91.629 179.371, 91 180 C 90.725 180.275, 89.557 182.300, 88.404 184.500 C 87.251 186.700, 85.339 190.188, 84.154 192.250 C 81.984 196.028, 79.325 200.706, 76.844 205.113 C 76.105 206.426, 75.174 207.745, 74.775 208.044 C 74.376 208.343, 73.926 209.693, 73.775 211.044 L 73.500 213.500 163.360 213.755 L 253.220 214.011 252.621 211.626 C 252.292 210.315, 250.318 206.375, 248.236 202.871 C 246.153 199.367, 243.786 195.150, 242.976 193.500 C 242.166 191.850, 241.277 190.275, 241.002 190 C 240.014 189.015, 236.866 183.467, 236.322 181.750 C 236.016 180.787, 235.369 180, 234.883 180 C 234.398 180, 234 179.100, 234 178 C 234 176.900, 233.602 176, 233.117 176 C 232.631 176, 231.976 175.213, 231.661 174.250 C 231.346 173.287, 229.879 170.475, 228.403 168 C 226.926 165.525, 224.881 162.037, 223.859 160.250 C 222.836 158.463, 221.100 155.425, 220 153.500 C 218.900 151.575, 217.100 148.425, 216 146.500 C 214.900 144.575, 213.100 141.425, 212 139.500 C 207.700 131.974, 205.933 128.812, 202.380 122.281 C 200.352 118.551, 197.932 114.375, 197.003 113 C 196.074 111.625, 194.684 109.037, 193.913 107.250 C 193.142 105.462, 192.256 104, 191.943 104 C 191.629 104, 190.755 102.425, 190 100.500 C 189.245 98.575, 188.371 97, 188.057 97 C 187.744 97, 186.852 95.537, 186.074 93.750 C 185.297 91.963, 184.399 90.275, 184.080 90 C 183.402 89.415, 181.483 86.104, 178.575 80.500 C 177.434 78.300, 176.275 76.275, 176 76 C 175.371 75.371, 173.259 71.672, 170.575 66.500 C 169.434 64.300, 168.274 62.275, 167.998 62 C 167.723 61.725, 166.859 60.263, 166.079 58.750 C 164.483 55.652, 161.518 55.103, 160.678 57.750 M 158.180 70.309 C 157.163 71.562, 155.436 74.586, 149.380 85.719 C 147.352 89.449, 144.958 93.625, 144.060 95 C 143.162 96.375, 141.770 98.850, 140.966 100.500 C 140.161 102.150, 139.277 103.725, 139.002 104 C 138.372 104.627, 136.266 108.314, 133.575 113.499 C 132.434 115.698, 130.713 118.371, 129.750 119.438 C 125.853 123.756, 129.244 127.148, 133.561 123.250 C 134.628 122.287, 136.738 120.861, 138.250 120.081 C 139.762 119.301, 141 118.288, 141 117.831 C 141 117.374, 141.454 117, 142.009 117 C 143.493 117, 160.113 105.888, 160.557 104.599 C 160.765 103.995, 161.062 95.967, 161.217 86.760 C 161.422 74.618, 161.177 69.895, 160.323 69.569 C 159.676 69.321, 158.711 69.655, 158.180 70.309 M 165.667 69.667 C 165.300 70.033, 165 78.084, 165 87.558 L 165 104.782 174.250 110.839 C 179.338 114.170, 183.978 117.308, 184.563 117.813 C 185.148 118.317, 186.694 119.301, 188 120 C 189.306 120.699, 191.275 122.110, 192.376 123.135 C 194.342 124.967, 199 125.739, 199 124.232 C 199 123.810, 197.875 121.809, 196.500 119.785 C 195.125 117.762, 194 115.632, 194 115.053 C 194 114.474, 193.634 114, 193.187 114 C 192.739 114, 191.755 112.425, 191 110.500 C 190.245 108.575, 189.261 107, 188.813 107 C 188.366 107, 188 106.100, 188 105 C 188 103.900, 187.602 103, 187.117 103 C 186.631 103, 185.984 102.213, 185.678 101.250 C 184.936 98.910, 181.689 93.584, 180.750 93.167 C 180.338 92.983, 180 91.971, 180 90.917 C 180 89.862, 179.602 89, 179.117 89 C 178.631 89, 177.984 88.213, 177.678 87.250 C 177.135 85.537, 173.989 79.989, 173 79 C 171.973 77.973, 170 73.989, 170 72.942 C 170 71.909, 167.593 69, 166.738 69 C 166.515 69, 166.033 69.300, 165.667 69.667 M 160.221 117.289 C 158.298 121.154, 156.117 125.913, 150.041 139.500 C 148.812 142.250, 146.499 147.151, 144.903 150.390 C 143.306 153.630, 142 156.893, 142 157.640 C 142 158.388, 141.550 159, 141 159 C 140.450 159, 140 159.661, 140 160.470 C 140 161.278, 139.100 163.542, 138 165.500 C 136.900 167.458, 136 169.722, 136 170.530 C 136 171.339, 135.550 172, 135 172 C 134.450 172, 134 172.862, 134 173.917 C 134 174.971, 133.605 175.983, 133.122 176.167 C 132.639 176.350, 131.928 177.963, 131.542 179.750 L 130.841 183 162.862 183 C 181.658 183, 195.121 182.614, 195.460 182.065 C 195.778 181.550, 195.130 179.511, 194.019 177.534 C 192.909 175.557, 192 173.278, 192 172.470 C 192 171.661, 191.550 171, 191 171 C 190.450 171, 190 170.371, 190 169.602 C 190 168.832, 188.650 165.637, 187 162.500 C 185.350 159.363, 184 156.168, 184 155.398 C 184 154.629, 183.550 154, 183 154 C 182.450 154, 182 153.368, 182 152.595 C 182 151.821, 181.151 149.459, 180.114 147.345 C 176.060 139.081, 171.924 130.158, 168.645 122.601 C 164.297 112.580, 162.977 111.748, 160.221 117.289 M 151.230 116 C 150.050 117.100, 148.837 118, 148.535 118 C 148.234 118, 142.107 121.917, 134.920 126.705 L 121.852 135.410 122.370 141.955 C 122.654 145.555, 123.374 151.650, 123.970 155.500 C 124.565 159.350, 125.378 164.971, 125.776 167.990 C 126.314 172.072, 126.950 173.566, 128.253 173.814 C 129.273 174.008, 130.248 173.385, 130.586 172.324 C 130.904 171.321, 132.028 168.770, 133.083 166.655 C 134.137 164.541, 135 162.179, 135 161.405 C 135 160.632, 135.450 160, 136 160 C 136.550 160, 137 159.339, 137 158.530 C 137 157.722, 137.900 155.458, 139 153.500 C 140.100 151.542, 141 149.278, 141 148.470 C 141 147.661, 141.450 147, 142 147 C 142.550 147, 143 146.339, 143 145.530 C 143 144.722, 143.900 142.458, 145 140.500 C 146.100 138.542, 147 136.278, 147 135.470 C 147 134.661, 147.450 134, 148 134 C 148.550 134, 149 133.339, 149 132.530 C 149 131.722, 149.900 129.458, 151 127.500 C 152.100 125.542, 153 123.315, 153 122.553 C 153 121.790, 153.440 121.017, 153.977 120.833 C 154.515 120.650, 155.246 119.037, 155.602 117.250 C 156.374 113.377, 154.592 112.868, 151.230 116 M 170.006 115.250 C 170.010 115.938, 170.685 117.789, 171.506 119.364 C 172.328 120.940, 173 122.852, 173 123.614 C 173 124.376, 173.450 125, 174 125 C 174.550 125, 175 125.900, 175 127 C 175 128.100, 175.450 129, 176 129 C 176.550 129, 177 129.661, 177 130.470 C 177 131.278, 177.900 133.542, 179 135.500 C 180.100 137.458, 181 139.722, 181 140.530 C 181 141.339, 181.450 142, 182 142 C 182.550 142, 183 142.629, 183 143.398 C 183 144.168, 184.350 147.363, 186 150.500 C 187.650 153.637, 189 156.832, 189 157.602 C 189 158.371, 189.450 159, 190 159 C 190.550 159, 191 159.661, 191 160.470 C 191 161.278, 191.900 163.542, 193 165.500 C 194.100 167.458, 195 169.899, 195 170.923 C 195 172.920, 197.856 174.578, 199.065 173.283 C 199.466 172.852, 200.077 170.475, 200.422 168 C 200.767 165.525, 201.474 160.800, 201.994 157.500 C 203.680 146.804, 204.761 136.540, 204.322 135.397 C 204.087 134.783, 202.680 133.655, 201.197 132.891 C 199.714 132.126, 197.628 130.713, 196.561 129.750 C 195.495 128.787, 194.033 128, 193.311 128 C 192.590 128, 192 127.550, 192 127 C 192 126.450, 191.325 126, 190.500 126 C 189.675 126, 189 125.550, 189 125 C 189 124.450, 188.525 124, 187.945 124 C 186.674 124, 174.639 115.982, 174.167 114.819 C 173.631 113.502, 169.999 113.878, 170.006 115.250 M 115.314 145.250 C 114.872 145.938, 114.016 147.400, 113.412 148.500 C 112.808 149.600, 111.279 152.300, 110.015 154.500 C 105.050 163.142, 95.800 179.891, 94 183.500 C 93.177 185.150, 92.277 186.725, 92.002 187 C 91.014 187.985, 87.866 193.533, 87.322 195.250 C 87.016 196.213, 86.369 197, 85.883 197 C 85.398 197, 85 197.900, 85 199 C 85 200.100, 84.550 201, 84 201 C 82.900 201, 82.622 204.289, 83.637 205.304 C 83.988 205.654, 85.450 205.125, 86.887 204.128 C 88.324 203.130, 90.963 201.684, 92.750 200.913 C 94.537 200.142, 96 199.172, 96 198.756 C 96 198.340, 96.900 198, 98 198 C 99.100 198, 100.002 197.662, 100.004 197.250 C 100.006 196.838, 102.479 195.375, 105.500 194 C 108.521 192.625, 110.994 191.162, 110.996 190.750 C 110.998 190.338, 111.900 190, 113 190 C 114.100 190, 115 189.550, 115 189 C 115 188.450, 115.900 188, 117 188 C 118.100 188, 119 187.550, 119 187 C 119 186.450, 119.605 186, 120.345 186 C 121.085 186, 122.471 185.137, 123.425 184.083 C 124.785 182.580, 124.926 181.731, 124.080 180.149 C 123.486 179.039, 123 175.942, 123 173.266 C 123 170.590, 122.599 167.973, 122.109 167.450 C 121.619 166.928, 120.919 163.575, 120.555 160 C 119.056 145.307, 118.804 144, 117.463 144 C 116.723 144, 115.756 144.563, 115.314 145.250 M 206.610 150.250 C 206.245 153.688, 205.542 159.200, 205.048 162.500 C 203.098 175.516, 202.199 183.513, 202.609 184.176 C 202.845 184.559, 205.618 186.122, 208.769 187.649 C 211.921 189.177, 214.650 190.781, 214.833 191.213 C 215.017 191.646, 216.029 192, 217.083 192 C 218.137 192, 219.002 192.338, 219.004 192.750 C 219.006 193.162, 221.479 194.625, 224.500 196 C 227.521 197.375, 229.994 198.838, 229.996 199.250 C 229.998 199.662, 230.900 200, 232 200 C 233.100 200, 234 200.450, 234 201 C 234 201.550, 234.493 202, 235.096 202 C 235.698 202, 237.411 202.868, 238.901 203.929 C 242.968 206.826, 244.685 205.246, 242.492 200.625 C 241.546 198.631, 240.373 197, 239.886 197 C 239.399 197, 239 196.100, 239 195 C 239 193.900, 238.662 192.996, 238.250 192.992 C 237.838 192.988, 237.031 191.975, 236.458 190.742 C 234.973 187.544, 230.594 179.593, 229.992 179 C 229.713 178.725, 228.184 176.025, 226.593 173 C 225.003 169.975, 223.240 166.910, 222.677 166.188 C 221.694 164.929, 217.471 157.231, 212.838 148.250 C 209.541 141.858, 207.429 142.536, 206.610 150.250 M 136 188.432 C 136 189.219, 137.463 190.891, 139.250 192.146 C 141.037 193.401, 142.650 194.782, 142.833 195.214 C 143.017 195.646, 143.574 196, 144.072 196 C 144.928 196, 147.614 197.973, 150.540 200.750 C 151.265 201.438, 152.109 202, 152.417 202 C 152.976 202, 156.042 204.379, 158.540 206.750 C 159.265 207.438, 160.302 208, 160.845 208 C 161.389 208, 162.013 208.539, 162.232 209.197 C 162.626 210.377, 173.662 202.984, 178.574 198.250 C 179.858 197.012, 181.295 196, 181.766 196 C 182.237 196, 183.495 195.190, 184.561 194.200 C 185.628 193.209, 187.287 192.098, 188.250 191.731 C 189.213 191.363, 190 190.149, 190 189.031 C 190 187.040, 189.472 187, 163 187 C 140.237 187, 136 187.225, 136 188.432 M 196 190.313 C 193.525 192.019, 190.905 193.996, 190.179 194.707 C 189.452 195.418, 188.552 196.007, 188.179 196.016 C 187.805 196.025, 185.977 197.375, 184.114 199.016 C 182.252 200.657, 180.452 202.009, 180.114 202.019 C 178.904 202.057, 171.612 208.945, 172.181 209.514 C 173.313 210.646, 238.425 210.224, 238.806 209.082 C 239.004 208.487, 238.341 207.696, 237.333 207.323 C 236.325 206.951, 235.275 206.388, 235 206.073 C 234.498 205.497, 224.387 200.152, 209.500 192.592 C 205.100 190.357, 201.275 188.233, 201 187.871 C 200.725 187.509, 198.475 188.608, 196 190.313 M 120 190.724 C 116.975 192.208, 114.275 193.668, 114 193.969 C 113.725 194.270, 107.763 197.435, 100.750 201.003 C 92.938 204.977, 88 208.073, 88 208.995 C 88 210.305, 92.284 210.500, 121 210.500 C 158.350 210.500, 158.159 210.549, 148.321 203.500 C 145.250 201.300, 141.559 198.488, 140.119 197.251 C 138.679 196.014, 137.103 195.002, 136.617 195.001 C 136.132 195.001, 135.007 194.187, 134.117 193.194 C 132.018 190.850, 127.838 187.996, 126.527 188.013 C 125.962 188.020, 123.025 189.240, 120 190.724 M 108.622 231.250 C 106.112 235.214, 106.417 258.388, 109 260.021 C 111.371 261.520, 120.940 261.203, 122.571 259.571 C 123.558 258.585, 124 255.800, 124 250.571 L 124 243 119.393 243 C 115.603 243, 114.894 243.280, 115.393 244.582 C 115.727 245.452, 116 246.577, 116 247.082 C 116 247.587, 116.926 248, 118.057 248 C 119.860 248, 120.077 248.527, 119.807 252.250 C 119.501 256.490, 119.491 256.500, 115.500 256.500 L 111.500 256.500 111.254 245.250 L 111.007 234 114.945 234 C 117.110 234, 119.160 234.450, 119.500 235 C 120.678 236.905, 124 236.114, 124 233.929 C 124 230.421, 121.577 229, 115.594 229 C 110.929 229, 109.819 229.358, 108.622 231.250 M 138.823 237.250 C 138.646 241.787, 138.631 248.988, 138.792 253.250 L 139.084 261 146.042 261 C 152.333 261, 153 260.808, 153 259 C 153 257.305, 152.333 257, 148.622 257 C 143.557 257, 141.712 255.371, 142.178 251.310 C 142.463 248.820, 142.953 248.463, 146.487 248.176 C 150.396 247.857, 151.954 246.745, 151.985 244.250 C 151.994 243.462, 150.566 243, 148.122 243 C 143.579 243, 141.728 241.229, 142.178 237.310 C 142.471 234.753, 142.903 234.471, 146.984 234.181 C 151.343 233.871, 152.953 232.816, 152.985 230.250 C 152.995 229.369, 150.956 229, 146.073 229 L 139.147 229 138.823 237.250 M 167.826 237 C 167.258 250.926, 167.976 261, 169.536 261 C 170.578 261, 170.991 258.969, 171.210 252.761 C 171.454 245.841, 171.781 244.469, 173.253 244.187 C 174.272 243.992, 175.252 244.616, 175.594 245.676 C 175.917 246.679, 176.661 248.502, 177.247 249.726 L 178.312 251.952 179.656 249.362 C 180.395 247.937, 181 246.148, 181 245.386 C 181 244.591, 182.020 244, 183.389 244 C 185.763 244, 185.775 244.057, 185.248 252.500 C 184.738 260.685, 184.797 261, 186.859 261 C 188.958 261, 189 260.684, 189 245 C 189 229.045, 188.994 229, 186.736 229 C 185.080 229, 184.027 230.008, 182.817 232.750 C 181.907 234.813, 180.533 237.337, 179.764 238.361 C 178.453 240.105, 178.259 240.116, 176.682 238.539 C 175.757 237.614, 175 235.989, 175 234.929 C 175 233.868, 174.550 233, 174 233 C 173.450 233, 173 232.100, 173 231 C 173 229.550, 172.333 229, 170.576 229 C 168.240 229, 168.140 229.290, 167.826 237 M 205.200 230.200 C 204.491 230.909, 204 234.318, 204 238.531 C 204 246.498, 204.954 247.654, 211.992 248.219 C 215.758 248.522, 216.679 250.159, 215.570 254.579 C 215.100 256.449, 214.297 257, 212.040 257 C 210.433 257, 208.840 256.550, 208.500 256 C 208.160 255.450, 207.009 255, 205.941 255 C 204.560 255, 204 255.691, 204 257.393 C 204 260.264, 205.617 261, 211.927 261 C 218.422 261, 220 259.111, 220 251.340 C 220 244.513, 218.777 243.281, 211.500 242.777 C 207.559 242.504, 207.495 242.437, 207.193 238.250 L 206.885 234 210.883 234 C 213.083 234, 215.160 234.450, 215.500 235 C 215.840 235.550, 216.991 236, 218.059 236 C 220.555 236, 220.683 232.239, 218.250 230.392 C 216.057 228.727, 206.809 228.591, 205.200 230.200 M 129 259 C 129 260.467, 129.667 261, 131.500 261 C 133.333 261, 134 260.467, 134 259 C 134 257.533, 133.333 257, 131.500 257 C 129.667 257, 129 257.533, 129 259 M 159 259.073 C 159 261.636, 162.310 261.345, 162.812 258.739 C 163.043 257.539, 162.504 257, 161.073 257 C 159.642 257, 159 257.642, 159 259.073 M 194 259 C 194 260.467, 194.667 261, 196.500 261 C 198.333 261, 199 260.467, 199 259 C 199 257.533, 198.333 257, 196.500 257 C 194.667 257, 194 257.533, 194 259" stroke="none" fill="black" fill-rule="evenodd"/>
</svg>