<?xml version="1.0"?><svg xmlns="http://www.w3.org/2000/svg" width="36" height="36" shape-rendering="geometricPrecision" text-rendering="geometricPrecision" image-rendering="optimizeQuality" fill-rule="evenodd" clip-rule="evenodd" viewBox="0 0 36 36"><path fill="#fefefe" d="m-0.1-0.1h36v36h-36v-36z"></path><path fill="#bfbfbf" d="m19.1 6.8h-0.3c-0.1-0.7-0.5-0.8-1-0.3 0-0.2 0.1-0.3 0.1-0.5 0.3-0.1 0.6-0.1 0.8-0.1 0.1 0.3 0.3 0.6 0.4 0.9z"></path><path fill="#2b2b2b" d="m18.8 6.8l0.2 0.2c-0.3-0.1-0.4-0.3-0.5-0.6h-0.4c-0.1 0.3-0.3 0.5-0.6 0.7 0.1-0.2 0.2-0.4 0.3-0.6 0.5-0.5 0.9-0.4 1 0.3z"></path><path fill="#505050" d="m18.8 6.8h0.3c0.1 0.4 0.2 0.8 0.4 1.1-0.3-0.2-0.4-0.5-0.5-0.9l-0.2-0.2z"></path><path fill="#ababab" d="m17.5 7.1c0 0.2-0.1 0.3-0.1 0.4-0.1 0.1-0.2 0.2-0.4 0.3 0.1-0.2 0.2-0.4 0.2-0.7h0.3z"></path><path fill="#0d0d0d" d="m19 7c0.1 0.4 0.2 0.7 0.5 0.9 0.2 0.2 0.3 0.4 0.4 0.6 0 0.3 0.1 0.6 0.4 0.8 0.1 0 0.1 0.1 0.1 0.2 0.1 0.2 0.1 0.3 0.2 0.5 0.5 0.6 1 1.3 1.3 2.1 0.1 0.4 0.3 0.7 0.7 1-0.1 0.1 0 0.2 0.1 0.2 0 0.3 0.2 0.6 0.4 0.8 0.1 0.1 0.1 0.2 0.1 0.4 0 0.1 0.1 0.2 0.3 0.3-0.1 0.2 0 0.3 0.2 0.3v0.1c0.3 0.5 0.6 1 0.9 1.5v0.1c0.3 0.5 0.6 1 0.8 1.5 0.1 0.4 0.3 0.8 0.6 1.1 0.1 0 0.2 0.1 0.2 0.2 0.1 0.3 0.2 0.6 0.4 0.9 0 0.1 0.1 0.2 0.2 0.3 0.1 0.1 0.2 0.3 0.3 0.4 0 0 0.1 0 0.1 0.1 0 0.4 0.2 0.8 0.5 1 0 0.2 0.1 0.3 0.3 0.4 0.1 0.2 0.2 0.4 0.3 0.6 0 0.2 0.1 0.4 0.2 0.6 0 0 0 0.1-0.1 0.1h-20.2c0-0.2 0-0.4 0.1-0.5 0.1-0.2 0.2-0.5 0.2-0.7 0.2-0.1 0.3-0.3 0.3-0.6 0.3-0.2 0.5-0.4 0.6-0.7 0.1 0.1 0.2 0.2 0.3 0.4-0.1 0.2-0.2 0.4-0.3 0.7-0.1 0.1-0.2 0.3-0.1 0.5 0.2 0 0.4-0.1 0.5-0.2 0.2 0 0.3 0.1 0.4 0.2-0.1 0.1-0.1 0.2-0.2 0.1-0.2 0.2-0.2 0.4 0 0.5l3.5 0.1c4.4 0 8.7 0 13.1-0.1 0.3-0.2 0.3-0.3 0-0.5 0 0-0.1-0.1-0.2-0.1 0.1-0.2 0.3-0.2 0.5-0.2h0.4c-0.3-0.7-0.7-1.3-1.1-1.9-0.2-0.4-0.4-0.7-0.6-1-0.3-0.7-0.6-1.3-1-1.8-0.1-0.3-0.3-0.5-0.5-0.7-0.1-0.4-0.2-0.7-0.4-1-0.1-0.3-0.2-0.3-0.4-0.1-0.1 0.2-0.1 0.4-0.1 0.6v0.5h-0.1c-0.2 0.4-0.3 0.8-0.3 1.3-0.1-0.3-0.1-0.6-0.1-0.9 0.1-0.9 0.2-1.8 0.4-2.7-0.3-0.1-0.6-0.3-0.9-0.4l-0.2-0.1c-0.1-0.2-0.2-0.3-0.5-0.4 0.1-0.1 0.2-0.3 0.4-0.3h0.3c0-0.1 0-0.2 0-0.3-0.3-0.5-0.6-0.9-0.9-1.3 0-0.3-0.1-0.6-0.4-0.8-0.3-0.5-0.6-1-0.9-1.5 0-0.2-0.1-0.3-0.3-0.4-0.1-0.4-0.3-0.8-0.6-1.2 0-0.2-0.1-0.4-0.3-0.6 0-0.1-0.1-0.1-0.3-0.1 0 1.4 0 2.7 0.1 4h0.2c0.1 0.1 0.2 0.1 0.3 0.2 0 0.1 0.1 0.2 0.3 0.2 0.1 0.2 0.2 0.2 0.3 0.2 0.1 0.2 0.2 0.3 0.4 0.3v0.1c0.1 0.2 0.4 0.4 0.7 0.5-0.2 0.1-0.4 0.2-0.6 0.1-0.3-0.1-0.5-0.2-0.7-0.4-0.1-0.3-0.3-0.3-0.5-0.1 0 0.2-0.1 0.4-0.2 0.5 0-0.1-0.1-0.1-0.2-0.2 0-0.2 0-0.3-0.2-0.3-0.1 0-0.2 0-0.2 0.1-0.3 0.4-0.5 0.9-0.7 1.3-0.6 0.7-1 1.5-1.1 2.4v0.1h-0.4c0 0.3-0.1 0.6-0.2 0.8l-0.2-0.3c0.2-0.3 0.2-0.5 0.2-0.8 0.1-0.1 0.1-0.2 0.1-0.4v-0.1l0.2-0.1c0.4-0.5 0.7-1.1 0.9-1.7 0.2-0.2 0.2-0.4 0.2-0.6 0.1-0.2 0.3-0.4 0.3-0.6-0.2-0.2-0.3-0.2-0.5 0-0.1 0-0.3 0-0.4-0.1-0.1 0-0.1-0.1 0-0.2 0.3-0.3 0.7-0.6 1-0.8 0.1-0.1 0.2-0.1 0.3-0.1 0.2-1.3 0.2-2.6 0.2-4-0.2 0-0.3 0-0.4 0.1h-0.3v-0.4c0-0.1 0.1-0.2 0.1-0.4 0.3-0.2 0.5-0.4 0.6-0.7h0.4c0.1 0.3 0.2 0.5 0.5 0.6z"></path><path fill="#5a5a5a" d="m17.7 8.2v0.1c-0.1 0-0.1 0-0.1 0.1-0.1 0.2-0.2 0.3-0.3 0.4 0-0.3 0.1-0.5 0.4-0.6z"></path><path fill="#c9c9c9" d="m16.9 7.9c0 0.3-0.2 0.6-0.3 0.9-0.2 0.1-0.3 0.2-0.3 0.4-0.1-0.2 0-0.3 0.1-0.5 0.1-0.3 0.3-0.5 0.5-0.8z"></path><path fill="#f7f7f7" d="m17.7 8.3c0.1 0.5 0.1 1.1 0.1 1.7 0 0.6-0.1 1.3-0.2 1.9-0.5 0.2-0.9 0.4-1.3 0.7-0.2 0.1-0.3 0.2-0.4 0.4-0.2 0.2-0.5 0.3-0.8 0.4-0.2-0.1-0.3-0.3-0.1-0.5 0.1-0.2 0.2-0.3 0.2-0.5 0.3-0.1 0.4-0.3 0.5-0.6 0.1-0.1 0.2-0.2 0.3-0.3 0.2-0.4 0.4-0.9 0.6-1.3l0.2-0.6h0.1c0.2-0.3 0.4-0.5 0.6-0.8 0.1-0.1 0.1-0.3 0.1-0.4 0-0.1 0-0.1 0.1-0.1z"></path><path fill="#c2c2c2" d="m17.6 8.4c0 0.1 0 0.3 0 0.4-0.3 0.3-0.5 0.5-0.7 0.8 0.1-0.1 0.1-0.2 0.1-0.3 0.1-0.2 0.1-0.4 0.3-0.5 0.1-0.1 0.2-0.2 0.3-0.4z"></path><path fill="#f6f6f6" d="m19.1 8.5c0 0.4 0.2 0.7 0.4 1 0 0.1 0.1 0.2 0.2 0.2 0.2 0.1 0.3 0.2 0.3 0.4 0.1 0.6 0.4 1.1 0.9 1.5 0.1 0.3 0.2 0.6 0.4 0.8 0.1 0.4 0.2 0.7 0.3 1-0.5-0.3-1-0.6-1.5-0.7-0.1-0.2-0.2-0.3-0.4-0.3 0-0.1-0.1-0.2-0.3-0.2 0-0.2-0.2-0.2-0.3-0.2-0.1-0.1-0.2-0.1-0.3-0.2-0.1-1.2-0.1-2.4 0-3.6 0.1 0.1 0.2 0.2 0.3 0.3z"></path><path fill="#414141" d="m19.9 8.5c0.2 0.2 0.3 0.5 0.4 0.8-0.3-0.2-0.4-0.5-0.4-0.8z"></path><path fill="#3a3a3a" d="m18.8 7.9c-0.2 1.3-0.3 2.5-0.2 3.9-0.1-1.3-0.1-2.6-0.1-4 0.2 0 0.3 0 0.3 0.1z"></path><path fill="#b6b6b6" d="m19.1 8.5c0.3 0.4 0.5 0.8 0.6 1.2-0.1 0-0.2-0.1-0.2-0.2-0.2-0.3-0.4-0.6-0.4-1z"></path><path fill="#bababa" d="m17.7 7.9c0.2 1.3 0.3 2.5 0.2 3.9-0.1 0-0.2 0-0.3 0.1 0.1-0.6 0.2-1.3 0.2-1.9 0-0.6 0-1.2-0.1-1.7v-0.4z"></path><path fill="#a0a0a0" d="m18.8 7.9c0.2 0.2 0.3 0.4 0.3 0.6-0.1-0.1-0.2-0.2-0.3-0.3-0.1 1.2-0.1 2.4 0 3.6h-0.2c-0.1-1.4 0-2.6 0.2-3.9z"></path><path fill="#616161" d="m16.6 8.8c-0.2 0.4-0.4 0.8-0.7 1 0.1-0.2 0.2-0.4 0.4-0.6 0-0.2 0.1-0.3 0.3-0.4z"></path><path fill="#6f6f6f" d="m17 9.3c0 0.1 0 0.2-0.1 0.3h-0.1c0-0.2 0.1-0.3 0.2-0.3z"></path><path fill="#6e6e6e" d="m20.4 9.5c0.2 0.1 0.3 0.2 0.2 0.5-0.1-0.2-0.1-0.3-0.2-0.5z"></path><path fill="#8b8b8b" d="m15.9 10c0 0.2-0.2 0.3-0.3 0.4 0-0.2 0.1-0.4 0.3-0.4z"></path><path fill="#404040" d="m17.7 7.9c0.1-0.1 0.2-0.1 0.4-0.1 0 1.4 0 2.7-0.2 4 0.1-1.4 0-2.6-0.2-3.9z"></path><path fill="#afafaf" d="m20 10.1c0.3 0.5 0.6 1 0.9 1.5-0.5-0.4-0.8-0.9-0.9-1.5z"></path><path fill="#5e5e5e" d="m15.6 10.4c0 0.2-0.1 0.4-0.2 0.5 0-0.2 0.1-0.4 0.2-0.5z"></path><path fill="#a3a3a3" d="m16.6 10.2c-0.2 0.4-0.4 0.9-0.6 1.3-0.1 0.1-0.2 0.2-0.3 0.3 0.1-0.5 0.3-0.9 0.5-1.3 0.1-0.2 0.2-0.3 0.4-0.3z"></path><path fill="#737373" d="m19.1 12c0.1 0 0.3 0 0.3 0.2-0.2 0-0.3-0.1-0.3-0.2z"></path><path fill="#787878" d="m20.9 11.6c0.3 0.2 0.4 0.5 0.4 0.8-0.2-0.2-0.3-0.5-0.4-0.8z"></path><path fill="#949494" d="m15.7 11.8c-0.1 0.3-0.2 0.5-0.5 0.6 0.1-0.2 0.3-0.5 0.5-0.6z"></path><path fill="#9f9f9f" d="m17.6 11.9c-0.3 0.2-0.7 0.5-1 0.8-0.2 0.1-0.5 0.2-0.7 0.3 0.1-0.2 0.2-0.3 0.4-0.4 0.4-0.3 0.8-0.5 1.3-0.7z"></path><path fill="#747474" d="m19.4 12.2c0.2 0 0.3 0.1 0.3 0.2-0.1 0-0.2 0-0.3-0.2z"></path><path fill="#717171" d="m19.7 12.4c0.2 0 0.3 0.1 0.4 0.3-0.2 0-0.3-0.1-0.4-0.3z"></path><path fill="#898989" d="m21.9 12.1c0.3 0.3 0.5 0.6 0.7 1-0.4-0.3-0.6-0.6-0.7-1z"></path><path fill="#737373" d="m15.2 12.4c0 0.2-0.1 0.3-0.2 0.5 0-0.2 0.1-0.4 0.2-0.5z"></path><path fill="#5c5c5c" d="m17 13c0.2-0.2 0.3-0.2 0.5 0 0 0.2-0.2 0.4-0.3 0.6 0-0.2 0-0.3 0.1-0.4-0.1-0.2-0.1-0.2-0.3-0.2z"></path><path fill="#929292" d="m14.3 12.7c0 0.3-0.2 0.5-0.4 0.7 0-0.1 0-0.2 0.1-0.3 0-0.2 0.2-0.3 0.3-0.4z"></path><path fill="#fdfdfd" d="m18.4 12.9c0.4 1.4 1 2.8 1.8 4 0.5 1.2 1 2.3 1.5 3.4-2.3 0-4.5 0-6.8-0.1 1-2.1 2.1-4.2 3.1-6.3 0.1-0.3 0.1-0.6 0.2-0.9 0-0.1 0.1-0.1 0.2-0.1z"></path><path fill="#f5f5f5" d="m17 13c0.2 0 0.2 0 0.3 0.2-0.1 0.1-0.1 0.2-0.1 0.4-0.1 0-0.2 0-0.2 0.1-0.2 0.1-0.3 0.3-0.4 0.5-0.3 0.6-0.5 1.2-0.7 1.8v0.1c-0.4 0.5-0.7 1-0.7 1.6-0.2 0.2-0.3 0.4-0.3 0.7l-0.1 0.2c-0.2 0.1-0.3 0.3-0.3 0.5l-0.2-0.3c-0.1-1.1-0.3-2.2-0.5-3.3 0-0.1 0-0.2 0.1-0.3 0.5-0.3 0.9-0.6 1.3-0.9l1.8-1.3z"></path><path fill="#b3b3b3" d="m21.3 12.4c0.3 0.4 0.6 0.8 0.9 1.3 0 0.1 0 0.2 0 0.3h-0.3c-0.1-0.2-0.3-0.5-0.6-0.6-0.4-0.2-0.8-0.4-1.2-0.6v-0.1c0.5 0.1 1 0.4 1.5 0.7-0.1-0.3-0.2-0.6-0.3-1z"></path><path fill="#a4a4a4" d="m22.7 13.3c0.2 0.2 0.4 0.5 0.4 0.8-0.2-0.2-0.4-0.5-0.4-0.8z"></path><path fill="#f4f4f4" d="m19.5 13c0.2 0.2 0.4 0.3 0.7 0.4 0.4 0.4 0.8 0.7 1.3 0.9 0.1 0.2 0.3 0.4 0.5 0.4l0.2 0.1c0.1 0.2 0.3 0.3 0.5 0.4 0.1 0.3 0.1 0.5 0.1 0.7-0.1 0.1-0.2 0.1-0.2 0.2 0 0.3-0.1 0.6 0 0.9v0.5c-0.2 0.5-0.3 1.1-0.3 1.7h-0.3c-0.1-0.5-0.3-1-0.6-1.4-0.2-0.5-0.4-1-0.6-1.4 0-0.1-0.1-0.1-0.2-0.1 0.1-0.2 0-0.3 0-0.5-0.1-0.2-0.2-0.4-0.4-0.6 0-0.2 0-0.4-0.2-0.5-0.2-0.6-0.4-1.1-0.7-1.5 0-0.2 0.1-0.2 0.2-0.2z"></path><path fill="#1e1e1e" d="m20.1 12.8c0.4 0.2 0.8 0.4 1.2 0.6 0.3 0.1 0.5 0.4 0.6 0.6-0.2 0-0.3 0.2-0.4 0.3-0.5-0.2-0.9-0.5-1.3-0.9 0.2 0.1 0.4 0 0.6-0.1-0.3-0.1-0.6-0.3-0.7-0.5z"></path><path fill="#373737" d="m17.2 13.6c0 0.2 0 0.4-0.2 0.6-0.2 0.6-0.5 1.2-0.9 1.7 0-0.1 0-0.3 0.1-0.4 0.3-0.6 0.6-1.2 0.8-1.8 0-0.1 0.1-0.1 0.2-0.1z"></path><path fill="#1e1e1e" d="m19.5 13c-0.1 0-0.2 0-0.2 0.2 0.3 0.4 0.5 0.9 0.7 1.5 0 0.1 0 0.2 0.1 0.3-0.1 0.1-0.2 0.3-0.2 0.5 0 0.2 0.1 0.3 0.1 0.5-0.3-0.4-0.6-0.9-0.9-1.4-0.1-0.5-0.3-0.9-0.5-1.4 0.1 0.1 0.2 0.1 0.2 0.2 0.1-0.1 0.2-0.3 0.2-0.5 0.2-0.2 0.4-0.2 0.5 0.1z"></path><path fill="#5f5f5f" d="m21.5 14.3c0.3 0.1 0.4 0.2 0.5 0.4-0.2 0-0.4-0.2-0.5-0.4z"></path><path fill="#adadad" d="m18.4 12.9c0.2 0 0.2 0.1 0.2 0.3 0.2 0.5 0.4 0.9 0.5 1.4 0.3 0.5 0.6 1 0.9 1.4 0.1 0.3 0.2 0.6 0.2 0.9-0.8-1.2-1.4-2.6-1.8-4z"></path><path fill="#666" d="m23.2 14.5c0.2 0 0.3 0.1 0.3 0.3-0.2-0.1-0.3-0.2-0.3-0.3z"></path><path fill="#c7c7c7" d="m17 13.7c-0.2 0.6-0.5 1.2-0.8 1.8-0.1 0.1-0.1 0.3-0.1 0.4l-0.2 0.1c0.2-0.6 0.4-1.2 0.7-1.8 0.1-0.2 0.2-0.4 0.4-0.5z"></path><path fill="#7b7b7b" d="m20 14.7c0.2 0.1 0.2 0.3 0.2 0.5-0.1 0-0.1-0.1-0.1-0.2-0.1-0.1-0.1-0.2-0.1-0.3z"></path><path fill="#7a7a7a" d="m23.5 14.8c0.1 0 0.2 0.2 0.2 0.3-0.2 0-0.3-0.1-0.2-0.3z"></path><path fill="#3d3d3d" d="m22.2 14.8c0.3 0.1 0.6 0.3 0.9 0.4-0.2 0.9-0.3 1.8-0.4 2.7h-0.1v-0.9c0 0 0.1-0.1 0.1-0.2 0.1-0.3 0.1-0.6 0.1-0.9 0-0.2 0-0.4-0.1-0.7-0.2-0.1-0.4-0.2-0.5-0.4z"></path><path fill="#282828" d="m17.5 14.3c-0.4 0.8-0.8 1.6-1.1 2.4 0.1-0.9 0.5-1.7 1.1-2.4z"></path><path fill="#c2c2c2" d="m23.7 15.2c0.2 0.1 0.3 0.2 0.4 0.4 0.2 0.3 0.4 0.7 0.5 1.1-0.3-0.5-0.6-1-0.9-1.5z"></path><path fill="#626262" d="m20.2 15.2c0.2 0.2 0.3 0.4 0.4 0.6 0 0.2 0.1 0.3 0 0.5-0.2-0.3-0.3-0.7-0.4-1.1z"></path><path fill="#353535" d="m13.1 14.9c-0.2 0.5-0.4 1-0.6 1.6h-0.3c0.2-0.6 0.5-1.1 0.9-1.6z"></path><path fill="#7d7d7d" d="m23.7 16.5c-0.2 0.1-0.4 0.3-0.5 0.5 0-0.2 0-0.4 0.1-0.6 0.2-0.2 0.3-0.2 0.4 0.1z"></path><path fill="#878787" d="m15.2 14.3c-0.4 0.3-0.8 0.6-1.3 0.9-0.1 0.1-0.1 0.2-0.1 0.3 0.2 1.1 0.4 2.2 0.5 3.3l0.2 0.3c0-0.2 0.1-0.4 0.3-0.5-0.1 0.2-0.1 0.4-0.1 0.6-0.2 0.1-0.3 0.1-0.5 0.1 0.1-0.2 0-0.4-0.1-0.6-0.2-1.2-0.3-2.4-0.4-3.6 0.5-0.3 1-0.6 1.5-0.8z"></path><path fill="#bcbcbc" d="m12 16.6c0 0.3-0.1 0.5-0.4 0.7 0.1-0.3 0.2-0.5 0.4-0.7z"></path><path fill="#8e8e8e" d="m22.8 15.9c0 0.3 0 0.6-0.1 0.9 0 0.1-0.1 0.2-0.1 0.2-0.1-0.3 0-0.6 0-0.9 0-0.1 0.1-0.1 0.2-0.2z"></path><path fill="#fafafa" d="m24.1 17.5c0.2 0.2 0.4 0.4 0.5 0.7 0.2 0.7 0.5 1.3 1 1.8 0.2 0.3 0.4 0.6 0.6 1 0.1 0.5 0.3 1 0.7 1.4 0 0.1-0.1 0.2-0.2 0.2-0.7-0.4-1.4-0.8-2.1-1.1-0.5-0.4-1-0.7-1.6-0.9-0.1-0.1-0.1-0.2-0.1-0.3 0.1 0 0.1-0.1 0.2-0.2 0.1-1.1 0.3-2.2 0.6-3.3 0 0.3 0.2 0.5 0.4 0.7z"></path><path fill="#f9f9f9" d="m13.2 17c0 0.4 0 0.8 0.1 1.2 0.1 0.6 0.2 1.1 0.4 1.7 0 0.2 0 0.4-0.1 0.6-0.5 0.2-0.8 0.4-1.2 0.7-0.1 0.2-0.2 0.3-0.4 0.3-0.2 0.1-0.3 0.2-0.5 0.2-0.4 0.1-0.8 0.3-1.1 0.6-0.2 0.1-0.4 0.1-0.6 0.1 0.1-0.3 0.2-0.6 0.4-1v-0.1h0.3c0-0.4 0.2-0.7 0.4-1v-0.1c0.4-0.3 0.6-0.6 0.6-1.1v-0.1c0.3-0.1 0.4-0.3 0.5-0.6 0.2-0.5 0.4-1 0.7-1.5 0 0 0-0.1 0.1-0.1 0.1-0.1 0.1-0.2 0.1-0.3h0.3v0.5z"></path><path fill="#5b5b5b" d="m20.8 16.4c0.2 0.4 0.4 0.9 0.6 1.4-0.3-0.4-0.5-0.9-0.6-1.4z"></path><path fill="#343434" d="m12 16.6h0.2c-0.1 0.2-0.1 0.5-0.2 0.8l-0.1-0.2c-0.1 0.3-0.3 0.7-0.6 1 0.1-0.4 0.2-0.7 0.3-0.9 0.3-0.2 0.4-0.4 0.4-0.7z"></path><path fill="#d7d7d7" d="m23.7 16.5c0.2 0.3 0.3 0.6 0.4 1-0.2-0.2-0.4-0.4-0.4-0.7-0.3 1.1-0.5 2.2-0.6 3.3-0.1 0.1-0.1 0.2-0.2 0.2l0.1-0.9v-0.7c0.1 0 0.1-0.1 0.2-0.2 0-0.3 0-0.7 0-1v-0.5c0.1-0.2 0.3-0.4 0.5-0.5z"></path><path fill="#c6c6c6" d="m24.6 16.8c0.1 0 0.2 0 0.3 0.1 0.1 0.3 0.3 0.5 0.5 0.8 0.1 0.2 0.1 0.4 0.1 0.6h-0.1c-0.2-0.5-0.5-1-0.8-1.5z"></path><path fill="#121212" d="m17.4 7.5v0.4h0.3v0.3c-0.3 0.1-0.4 0.3-0.4 0.6-0.2 0.1-0.2 0.3-0.3 0.5-0.1 0-0.2 0.1-0.2 0.3l-0.2 0.6c-0.2 0-0.3 0.1-0.4 0.3-0.2 0.4-0.4 0.8-0.5 1.3-0.2 0.1-0.4 0.4-0.5 0.6-0.1 0.1-0.2 0.3-0.2 0.5-0.2 0.2-0.4 0.5-0.5 0.8-0.1 0-0.2 0.2-0.2 0.3 0.3 0 0.5 0 0.6-0.2l0.2-0.4c0.3-0.1 0.6-0.2 0.8-0.4 0.2-0.1 0.5-0.2 0.7-0.3-0.1 0.1-0.1 0.2 0 0.2 0.1 0.1 0.3 0.1 0.4 0.1l-1.8 1.3c-0.5 0.2-1 0.5-1.5 0.8 0.1 1.2 0.2 2.4 0.4 3.6v0.8c0.3 0.1 0.5 0 0.6-0.3 0-0.2 0-0.4 0.1-0.6l0.1-0.2c0.2-0.2 0.3-0.4 0.3-0.7 0.2-0.4 0.4-0.8 0.6-1.2 0 0.3 0 0.5-0.2 0.8l0.1 0.3c0.2-0.2 0.3-0.5 0.3-0.8h0.4c-0.6 1.1-1.1 2.2-1.6 3.4-0.1 0.1-0.1 0.2-0.1 0.3 2.4 0.1 4.8 0 7.2 0 0.1-0.2 0.1-0.4-0.1-0.4-0.5-1.1-1-2.1-1.6-3.2 0-0.3-0.1-0.6-0.2-0.9 0-0.2-0.1-0.3-0.1-0.5 0-0.2 0.1-0.4 0.2-0.5 0 0.1 0 0.2 0.1 0.2 0.1 0.4 0.2 0.8 0.4 1.1 0.1 0 0.2 0 0.2 0.1 0.1 0.5 0.3 1 0.6 1.4 0 0.2 0 0.3 0.1 0.5 0.2 0.2 0.4 0.5 0.5 0.9 0.1 0.2 0.2 0.2 0.4 0.1 0-0.5 0.1-0.9 0.2-1.4h0.1c0 0.3 0 0.6 0.1 0.9 0-0.5 0.1-0.9 0.3-1.3-0.1 0.4-0.1 0.8-0.1 1.2v0.3c-0.2 0.2-0.2 0.4-0.2 0.7-0.1 0.4 0 0.7 0.2 0.9 0.5 0.4 1 0.7 1.6 0.9 0.6 0.5 1.4 0.9 2.1 1.2l0.2 0.2c-0.2 0-0.4 0-0.5 0.2 0.1 0 0.2 0.1 0.2 0.1 0.3 0.2 0.3 0.3 0 0.5-4.4 0.1-8.7 0.1-13.1 0.1l-3.5-0.1c-0.2-0.1-0.2-0.3 0-0.5v0.4h7.2c0-0.2-0.1-0.3-0.2-0.4l-0.3-0.2c-0.1-0.2-0.3-0.4-0.6-0.4-0.1 0-0.1-0.1-0.2-0.2-0.1-0.2-0.4-0.4-0.7-0.5l-0.2-0.1c0-0.2-0.1-0.3-0.3-0.3-0.1-0.1-0.1-0.1-0.2-0.1-0.1-0.1-0.2-0.2-0.3-0.2-0.2 0-0.3 0.1-0.4 0.2h-0.2c-0.5 0.2-0.9 0.4-1.2 0.7h-0.1c-0.3 0.1-0.6 0.3-0.9 0.5-0.2-0.1-0.3 0-0.3 0.2-0.2 0-0.4 0.1-0.5 0.2l-0.4 0.1c-0.1-0.1-0.2-0.2-0.4-0.2-0.1 0.1-0.3 0.2-0.5 0.2-0.1-0.2 0-0.4 0.1-0.5 0 0.1 0.1 0.2 0.2 0.2 0.3-0.1 0.6-0.2 0.8-0.5 0.2 0 0.4-0.1 0.6-0.2 0.4-0.1 0.7-0.2 1-0.6 0.2 0 0.3-0.1 0.4-0.3 0.8 0 1.3-0.4 1.4-1.2 0-0.4-0.1-0.7-0.2-1v-0.7c0-0.3-0.1-0.6-0.3-0.8v-1.2c-0.4-0.1-0.6 0.1-0.5 0.5-0.1 0-0.1 0.1-0.1 0.1-0.4 0.4-0.7 0.9-0.8 1.5-0.2 0.2-0.3 0.3-0.4 0.6v0.1c-0.3 0.3-0.5 0.7-0.6 1.1v0.1c-0.4 0.3-0.6 0.6-0.7 1v0.1c-0.2 0.2-0.3 0.3-0.5 0.5-0.1-0.2-0.2-0.3-0.3-0.4 0.2-0.5 0.5-0.9 0.8-1.4v-0.1c0.2-0.2 0.4-0.4 0.4-0.7 0.1-0.5 0.4-0.8 0.7-1.1 0.3-0.3 0.5-0.7 0.6-1l0.1 0.2c0.1-0.3 0.1-0.6 0.2-0.8v-0.1h0.3c0.2-0.6 0.4-1.1 0.6-1.6 0.2-0.5 0.5-1 0.8-1.5 0.2-0.2 0.4-0.4 0.4-0.7 0.4-0.7 0.7-1.3 1.1-1.8 0.1-0.1 0.2-0.3 0.2-0.5 0.1-0.1 0.3-0.2 0.3-0.4v-0.2c0.3-0.2 0.5-0.6 0.7-1 0.1-0.3 0.3-0.6 0.3-0.9 0.1 0 0.1 0 0.1-0.1 0.2-0.1 0.3-0.2 0.4-0.3z"></path><path fill="#c1c1c1" d="m15.9 16.1c0 0.2 0 0.3-0.1 0.4-0.2 0.4-0.4 0.8-0.6 1.2 0-0.6 0.3-1.1 0.7-1.6z"></path><path fill="#737373" d="m13.3 17h-0.1v-0.5h-0.3c0 0.1 0 0.2-0.1 0.3-0.1-0.4 0.1-0.6 0.5-0.5v0.7z"></path><path fill="#505050" d="m14.5 13.7c-0.1 0.1 0 0.1 0.1 0.2 0.1-0.1 0.2-0.1 0.3-0.1-0.1 0.2-0.3 0.2-0.6 0.2 0-0.1 0.1-0.3 0.2-0.3z"></path><path fill="#999" d="m15 12.9c-0.2 0.2-0.1 0.4 0.1 0.5l-0.2 0.4c-0.1 0-0.2 0-0.3 0.1-0.1-0.1-0.2-0.1-0.1-0.2 0.1-0.3 0.3-0.6 0.5-0.8z"></path><path fill="#c1c1c1" d="m13.2 17h0.1v0.5c0 0.3 0.1 0.6 0.3 0.8v0.7l0.1 0.9c-0.2-0.6-0.3-1.1-0.4-1.7-0.1-0.4-0.1-0.8-0.1-1.2z"></path><path fill="#555" d="m12.7 16.9c-0.3 0.5-0.5 1-0.7 1.5h-0.1c0.1-0.6 0.4-1.1 0.8-1.5z"></path><path fill="#707070" d="m13.3 17.5c0.2 0.2 0.3 0.5 0.3 0.8-0.2-0.2-0.3-0.5-0.3-0.8z"></path><path fill="#5e5e5e" d="m15.2 17.7c0 0.3-0.1 0.5-0.3 0.7 0-0.3 0.1-0.5 0.3-0.7z"></path><path fill="#7a7a7a" d="m21.4 17.8c0.3 0.4 0.5 0.9 0.6 1.4-0.1-0.4-0.3-0.7-0.5-0.9-0.1-0.2-0.1-0.3-0.1-0.5z"></path><path fill="#7c7c7c" d="m23.1 17.5h0.1c0 0.3 0 0.7 0 1-0.1 0.1-0.1 0.2-0.2 0.2 0-0.4 0-0.8 0.1-1.2z"></path><path fill="#acacac" d="m11.9 18.4h0.1c-0.1 0.3-0.2 0.5-0.5 0.6 0.1-0.3 0.2-0.4 0.4-0.6z"></path><path fill="#707070" d="m22.6 17.5v0.4c-0.1 0.5-0.2 0.9-0.2 1.4-0.2 0.1-0.3 0.1-0.4-0.1h0.3c0-0.6 0.1-1.2 0.3-1.7z"></path><path fill="#464646" d="m25.4 18.3h0.1l0.5 1.1c-0.3-0.3-0.5-0.7-0.6-1.1z"></path><path fill="#3d3d3d" d="m14.1 18.7c0.1 0.2 0.2 0.4 0.1 0.6 0.2 0 0.3 0 0.5-0.1-0.1 0.3-0.3 0.4-0.6 0.3v-0.8z"></path><path fill="#b3b3b3" d="m24.6 18.2c0.4 0.5 0.7 1.1 1 1.8-0.5-0.5-0.8-1.1-1-1.8z"></path><path fill="#606060" d="m10.6 19.3c0 0.3-0.2 0.5-0.4 0.7 0.1-0.3 0.2-0.5 0.4-0.7z"></path><path fill="#4f4f4f" d="m23 19v0.4l-0.2 0.3c0-0.3 0-0.5 0.2-0.7z"></path><path fill="#acacac" d="m11.5 19.1c0 0.5-0.2 0.8-0.6 1.1 0.1-0.4 0.3-0.8 0.6-1.1z"></path><path fill="#5f5f5f" d="m26.2 19.6c0.3 0.3 0.5 0.7 0.6 1.2-0.1-0.1-0.2-0.2-0.2-0.3-0.2-0.3-0.3-0.6-0.4-0.9z"></path><path fill="#919191" d="m23 19.4l-0.1 0.9c0 0.1 0 0.2 0.1 0.3-0.2-0.2-0.3-0.5-0.2-0.9l0.2-0.3z"></path><path fill="#929292" d="m13.6 19c0.1 0.3 0.2 0.6 0.2 1-0.1 0.8-0.6 1.2-1.4 1.2 0.4-0.3 0.7-0.5 1.2-0.7 0.1-0.2 0.1-0.4 0.1-0.6l-0.1-0.9z"></path><path fill="#a6a6a6" d="m18.2 13c-0.1 0.3-0.1 0.6-0.2 0.9-1 2.1-2.1 4.2-3.1 6.3 2.3 0.1 4.5 0.1 6.8 0.1-0.5-1.1-1-2.2-1.5-3.4 0.6 1.1 1.1 2.1 1.6 3.2v0.3c-2.4 0.1-4.7 0-7-0.2 0.5-1.2 1-2.3 1.6-3.4v-0.1c0.3-0.8 0.7-1.6 1.1-2.4 0.2-0.4 0.4-0.9 0.7-1.3z"></path><path fill="#373737" d="m21.8 20.1c0.2 0 0.2 0.2 0.1 0.4-2.4 0-4.8 0.1-7.2 0 0-0.1 0-0.2 0.1-0.3 2.3 0.2 4.6 0.3 7 0.2v-0.3z"></path><path fill="#595959" d="m20.4 21.9c0-0.1 0-0.2 0.1-0.2 0.2-0.2 0.3-0.2 0.5-0.3 0.1 0 0.2-0.1 0.2-0.2l-2.9-0.1c-1 0-2 0.1-2.9 0.2-0.1-0.1-0.2-0.2-0.2-0.3h6.1c0 0.1 0 0.3 0 0.4-0.3 0.2-0.6 0.3-0.9 0.5z"></path><path fill="#a9a9a9" d="m21 21.4c-0.9-0.1-1.8-0.2-2.7-0.2-1 0-1.9 0.1-2.7 0.2l-0.2-0.1c0.9-0.1 1.9-0.2 2.9-0.2l2.9 0.1c0 0.1-0.1 0.2-0.2 0.2z"></path><path fill="#7b7b7b" d="m26.8 20.8c0.2 0 0.3 0.2 0.3 0.4-0.1-0.1-0.2-0.3-0.3-0.4z"></path><path fill="#ababab" d="m10.9 20.3c-0.2 0.3-0.4 0.6-0.4 1h-0.3c0.1-0.4 0.3-0.7 0.7-1z"></path><path fill="#989898" d="m14.5 21.4c-0.3-0.1-0.5-0.1-0.7 0 0.1-0.1 0.2-0.2 0.4-0.2 0.1 0 0.2 0.1 0.3 0.2z"></path><path fill="#dadada" d="m21 21.4c-0.2 0.1-0.3 0.1-0.5 0.3v-0.4c-1.5 0-3.1 0-4.7 0.1 0.1 0 0.2 0.1 0.2 0.3-0.1-0.1-0.3-0.2-0.4-0.3 0.8-0.1 1.7-0.2 2.7-0.2 0.9 0 1.8 0.1 2.7 0.2z"></path><path fill="#656565" d="m23.5 21.7c-0.4-0.1-0.7-0.2-1-0.4-0.1 0-0.3 0.1-0.4 0.1 0.1-0.1 0.2-0.2 0.4-0.2l0.4 0.1c0.2 0.1 0.4 0.2 0.6 0.4z"></path><path fill="#989898" d="m23 20.6c0.6 0.2 1.1 0.5 1.6 0.9-0.6-0.2-1.1-0.5-1.6-0.9z"></path><path fill="#f5f5f5" d="m20.5 21.7c-0.1 0-0.1 0.1-0.1 0.2-0.7 0.5-1.5 1-2.2 1.4-0.2-0.2-0.4-0.3-0.6-0.4 0-0.2-0.2-0.2-0.3-0.2-0.2-0.2-0.4-0.3-0.6-0.5-0.1-0.2-0.2-0.3-0.4-0.3-0.2-0.1-0.2-0.1-0.3-0.2 0-0.2-0.1-0.3-0.2-0.3 1.6-0.1 3.2-0.1 4.7-0.1v0.4z"></path><path fill="#f9f9f9" d="m14.5 21.4c0.1 0 0.1 0 0.2 0.1 0 0.2 0.1 0.3 0.3 0.3l0.2 0.1c0.2 0.3 0.4 0.4 0.7 0.5 0.1 0.1 0.1 0.2 0.2 0.2l0.3 0.3c0.1 0.2 0.2 0.3 0.4 0.4-2.1 0.1-4.3 0.1-6.4-0.1 0.1 0 0.2-0.1 0.2-0.2 0.2 0 0.4 0 0.5-0.2h0.2c0.5-0.1 0.8-0.3 1-0.7h0.1c0.4-0.1 0.8-0.2 1.2-0.3v-0.4h0.2c0.2-0.1 0.4-0.1 0.7 0z"></path><path fill="#fafafa" d="m23.5 21.7c0 0.1 0.1 0.2 0.3 0.2 0.4 0.4 0.9 0.7 1.5 0.8 0 0.1 0.1 0.1 0.2 0.1 0.1 0.2 0.3 0.4 0.5 0.4-2.1 0.2-4.2 0.2-6.3 0 0.3 0 0.5-0.2 0.6-0.4 0.3-0.1 0.4-0.2 0.6-0.5 0.2-0.1 0.4-0.2 0.5-0.4 0.3-0.1 0.6-0.2 0.7-0.5 0.1 0 0.3-0.1 0.4-0.1 0.3 0.2 0.6 0.3 1 0.4z"></path><path fill="#6e6e6e" d="m14.7 21.5c0.2 0 0.3 0.1 0.3 0.3-0.2 0-0.3-0.1-0.3-0.3z"></path><path fill="#505050" d="m27.2 21.3c0.2 0.3 0.4 0.7 0.5 1-0.3-0.2-0.5-0.6-0.5-1z"></path><path fill="#868686" d="m10.2 20.1c-0.3 0.5-0.6 0.9-0.8 1.4-0.1 0.3-0.3 0.5-0.6 0.7 0.3-0.8 0.8-1.5 1.4-2.1z"></path><path fill="#bcbcbc" d="m11.5 21.7l-0.5 0.4c-0.2 0.1-0.4 0.2-0.6 0.2 0.3-0.3 0.7-0.5 1.1-0.6z"></path><path fill="#505050" d="m12 21.5c-0.3 0.4-0.6 0.5-1 0.6l0.5-0.4c0.2 0 0.3-0.1 0.5-0.2z"></path><path fill="#8b8b8b" d="m22.1 21.4c-0.1 0.3-0.4 0.4-0.7 0.5 0.2-0.2 0.4-0.4 0.7-0.5z"></path><path fill="#696969" d="m23.5 21.7c0.1-0.1 0.2 0 0.3 0.2-0.2 0-0.3-0.1-0.3-0.2z"></path><path fill="#a8a8a8" d="m13.6 21.4v0.4c-0.4 0.1-0.8 0.2-1.2 0.3 0.3-0.3 0.7-0.5 1.2-0.7z"></path><path fill="#808080" d="m16.3 21.9c0.2 0 0.3 0.1 0.4 0.3-0.2 0-0.4-0.1-0.4-0.3z"></path><path fill="#b2b2b2" d="m26.2 21c0.4 0.6 0.8 1.2 1.1 1.9h-0.4l-0.2-0.2v-0.1c0.1 0 0.2-0.1 0.2-0.2-0.4-0.4-0.6-0.9-0.7-1.4z"></path><path fill="#595959" d="m15.2 21.9c0.3 0.1 0.6 0.3 0.7 0.5-0.3-0.1-0.5-0.2-0.7-0.5z"></path><path fill="#9e9e9e" d="m23.8 21.9c0.5 0.2 1 0.5 1.5 0.8-0.6-0.1-1.1-0.4-1.5-0.8z"></path><path fill="#8c8c8c" d="m24.6 21.5c0.7 0.3 1.4 0.7 2.1 1.1v0.1c-0.7-0.3-1.5-0.7-2.1-1.2z"></path><path fill="#525252" d="m21.4 21.9c-0.1 0.2-0.3 0.3-0.5 0.4h-0.1c0.1-0.2 0.3-0.4 0.6-0.4z"></path><path fill="#aeaeae" d="m10.2 21.4c-0.2 0.4-0.3 0.7-0.4 1 0.2 0 0.4 0 0.6-0.1-0.2 0.3-0.5 0.4-0.8 0.5-0.1 0-0.2-0.1-0.2-0.2 0.1-0.3 0.2-0.5 0.3-0.7 0.2-0.2 0.3-0.3 0.5-0.5z"></path><path fill="#b0b0b0" d="m12.3 22.1c-0.2 0.4-0.5 0.6-1 0.7l0.1-0.2c0.3-0.2 0.6-0.4 0.9-0.5z"></path><path fill="#787878" d="m27.7 22.3c0.2 0.1 0.3 0.2 0.3 0.4-0.2-0.1-0.3-0.2-0.3-0.4z"></path><path fill="#6b6b6b" d="m11.4 22.6l-0.1 0.2h-0.2c0-0.2 0.1-0.3 0.3-0.2z"></path><path fill="#9b9b9b" d="m20.8 22.3h0.1c-0.2 0.3-0.3 0.4-0.6 0.5 0.1-0.2 0.3-0.4 0.5-0.5z"></path><path fill="#515151" d="m16.1 22.6c0.3 0 0.5 0.2 0.6 0.4-0.1 0-0.2 0-0.3-0.1l-0.3-0.3z"></path><path fill="#787878" d="m17.3 22.7c0.1 0 0.3 0 0.3 0.2-0.2 0-0.3-0.1-0.3-0.2z"></path><path fill="#717171" d="m11.1 22.8c-0.1 0.2-0.3 0.2-0.5 0.2 0.1-0.1 0.3-0.2 0.5-0.2z"></path><path fill="#b2b2b2" d="m20.3 22.8c-0.1 0.2-0.3 0.4-0.6 0.4 0.2-0.2 0.3-0.3 0.6-0.4z"></path><path fill="#9c9c9c" d="m8.5 22.8c0 0.2-0.1 0.5-0.2 0.7h-0.1c0-0.3 0.1-0.5 0.3-0.7z"></path><path fill="#545454" d="m17.6 22.9c0.2 0.1 0.4 0.2 0.6 0.4-0.3 0-0.5-0.1-0.6-0.4z"></path><path fill="#d3d3d3" d="m16.4 22.9c0.1 0.1 0.2 0.1 0.3 0.1l0.3 0.2c-1 0.2-2.2 0.3-3.3 0.3l-3.4-0.2c0 0 0-0.1 0.1-0.1 2.1 0.2 4.3 0.2 6.4 0.1-0.2-0.1-0.3-0.2-0.4-0.4z"></path><path fill="#d0d0d0" d="m25.5 22.8c0.3 0.1 0.7 0.3 1 0.4-1.1 0.2-2.3 0.3-3.5 0.3-1.2 0-2.4-0.1-3.5-0.3h0.2c2.1 0.2 4.2 0.2 6.3 0-0.2 0-0.4-0.2-0.5-0.4z"></path><path fill="#676767" d="m10.6 23c0 0.1-0.1 0.2-0.2 0.2-0.1 0-0.1 0.1-0.1 0.1l3.4 0.2c1.1 0 2.3-0.1 3.3-0.3 0.1 0.1 0.2 0.2 0.2 0.4h-7.2v-0.4c0.1 0.1 0.1 0 0.2-0.1l0.4-0.1z"></path><path fill="#616161" d="m19.5 23.2c1.1 0.2 2.3 0.3 3.5 0.3 1.2 0 2.4-0.1 3.5-0.3h0.1v0.4h-7.2c0-0.2 0-0.3 0.1-0.4z"></path><path fill="#303030" d="m8.2 23.5h0.1c-0.1 0.1-0.1 0.3-0.1 0.5h20.2c-6.7 0.1-13.5 0.2-20.2 0.1-0.2-0.2-0.2-0.4 0-0.6z"></path><path fill="#9a9a9a" d="m28.3 23.3c0.3 0.2 0.4 0.5 0.2 0.9-6.8 0.1-13.6 0.1-20.3-0.1 6.7 0.1 13.5 0 20.2-0.1 0.1 0 0.1-0.1 0.1-0.1-0.1-0.2-0.2-0.4-0.2-0.6z"></path><path fill="#8c8c8c" d="m24.4 25.7c-0.5 0-0.9 0-1.4 0.1-0.1 0-0.1 0.1-0.1 0.1h-0.1c0-0.2 0.1-0.3 0.3-0.4l0.6 0c0.3 0 0.5 0.1 0.7 0.2z"></path><path fill="#979797" d="m13.7 25.7c-0.5 0-1 0-1.5 0.1-0.1 0-0.1 0.1-0.1 0.1-0.1 0-0.1 0.1-0.2 0.1 0 0.5 0 0.9 0 1.3h-0.1c-0.3-1.5 0.3-2.1 1.8-1.8 0 0.1 0.1 0.1 0.1 0.2z"></path><path fill="#0c0c0c" d="m13.7 25.7c0.1 0 0.2 0.1 0.2 0.2v0.6h-0.6v-0.1c-0.2-0.2-0.5-0.2-0.8 0-0.1 0.3-0.2 0.7-0.2 1.1 0 0.4 0.1 0.8 0.2 1.1 0.3 0.1 0.5 0.2 0.8 0.1v-0.9h-0.4v-0.5h1c0 0.7 0 1.4-0.2 2-0.5 0.1-1 0-1.5-0.2-0.1-1.1-0.1-2.1-0.1-3.2 0 0 0-0.1 0.1-0.1 0.5-0.1 1-0.1 1.5-0.1z"></path><path fill="#080808" d="m19.3 25.7h0.1c0.1 0 0.1 0.1 0.1 0.2 0.1 0.3 0.1 0.6 0.2 0.8 0 0.1 0.1 0.1 0.2 0.1h0.3c0.1-0.3 0.2-0.6 0.3-1v-0.1h0.7v3.6h-0.4c-0.1-0.6 0-1.3 0.1-1.9-0.3-0.1-0.5 0-0.6 0.2 0 0.3-0.1 0.5-0.3 0.7-0.1-0.1-0.1-0.2-0.3-0.2v-0.5c-0.1-0.2-0.3-0.3-0.5-0.2 0 0.6 0 1.3-0.1 1.9-0.2-1.2-0.2-2.3 0-3.5 0.1 0.2 0.2 0.1 0.2-0.1z"></path><path fill="#0d0d0d" d="m24.4 25.7h0.2l0.1 0.2v0.6h-0.6c0-0.1-0.2-0.2-0.4-0.2-0.1 0-0.2 0-0.4 0.1-0.1 0.3-0.1 0.5 0 0.8 0.5 0 1 0.1 1.4 0.3 0 0.5 0 1.1-0.1 1.6l-0.1 0.2c-0.5 0-0.9 0-1.4 0l-0.2-0.1h-0.1v-0.2c0-0.4 0.2-0.6 0.5-0.5v0.4c0.3 0 0.6 0 0.8-0.2v-0.9c-0.4 0.1-0.8 0-1.2-0.2v-1.7c0 0 0-0.1 0.1-0.1 0.5-0.1 0.9-0.1 1.4-0.1z"></path><path fill="#0b0b0b" d="m15.6 25.7h1.7v0.6h-1.3c0 0.3 0 0.6 0.1 0.9 0.3 0.1 0.6 0.1 0.9 0.1v0.5h-0.9c-0.3 1 0 1.3 1.1 1.1v0.4h-1.6v-3.6z"></path><path fill="#252525" d="m19.3 25.7c0 0.2-0.1 0.3-0.2 0.1-0.2 1.2-0.2 2.3 0 3.5 0.1-0.6 0.1-1.3 0.1-1.9 0.2-0.1 0.4 0 0.5 0.2-0.1-0.1-0.2-0.1-0.4-0.1v1.9h-0.5c0-0.6-0.1-1.1-0.2-1.7v-0.4c0.1-0.5 0.2-1 0.1-1.6h0.6z"></path><path fill="#9e9e9e" d="m17.3 25.7h-1.7c-0.1 0.7-0.2 1.3-0.2 2h-0.2v-2.1c0.7 0 1.4 0 2.1 0.1z"></path><path fill="#d0d0d0" d="m18.6 25.6v3.8h-0.2v-0.7l0.2-3.1z"></path><path fill="#797979" d="m18.6 25.6c0.3 0 0.6 0 0.8 0.1h-0.7c0.1 0.6 0 1.1-0.1 1.6v-1.7z"></path><path fill="#a4a4a4" d="m21.4 27.3l-0.2-1.6h-0.6c0.2-0.2 0.5-0.3 0.8-0.1 0 0.6 0 1.1 0 1.7z"></path><path fill="#878787" d="m20.5 25.8c-0.1 0.4-0.2 0.7-0.3 1h-0.3l-0.2-0.4c0.2 0 0.3 0.2 0.3 0.3 0.2-0.3 0.3-0.6 0.5-0.9z"></path><path fill="#383838" d="m22.7 25.9h0.2v1.7h-0.1c-0.1-0.5-0.2-1.1-0.1-1.7z"></path><path fill="#5b5b5b" d="m13.9 25.9h0.1v0.7h-0.7v-0.1h0.6v-0.6z"></path><path fill="#7b7b7b" d="m24.1 26.5c-0.2-0.1-0.4-0.1-0.6-0.1v0.7c-0.2-0.2-0.2-0.5-0.2-0.7 0.2-0.1 0.3-0.1 0.4-0.1 0.2 0 0.4 0.1 0.4 0.2z"></path><path fill="#5b5b5b" d="m24.7 25.9c0.1 0.2 0.1 0.5 0.1 0.7h-0.7v-0.1h0.6v-0.6z"></path><path fill="#8b8b8b" d="m13.3 26.4h-0.6v2.2h0.5v-0.6c-0.1 0-0.2-0.1-0.3-0.2h0.4v0.9c-0.3 0.1-0.5 0-0.8-0.1v-2.2c0.3-0.2 0.6-0.2 0.8 0z"></path><path fill="#464646" d="m19.5 25.9c0.2 0.1 0.3 0.3 0.2 0.5l0.2 0.4c-0.1 0-0.2 0-0.2-0.1-0.1-0.2-0.1-0.5-0.2-0.8z"></path><path fill="#dbdbdb" d="m24.6 25.7c0.2 0 0.3 0.1 0.4 0.3 0.1 0.5 0 0.8-0.5 0.8-0.2 0-0.3-0.1-0.4-0.2h0.7c0-0.2 0-0.5-0.1-0.7l-0.1-0.2z"></path><path fill="#ddd" d="m14 25.9c0.3 0.2 0.4 0.5 0.3 0.8-0.2 0.1-0.3 0.1-0.5 0.1-0.2 0-0.4-0.1-0.5-0.2h0.7v-0.7z"></path><path fill="#646464" d="m17.3 26.3c-0.3 0.1-0.7 0.1-1 0.1-0.2 0.2-0.2 0.5-0.2 0.8-0.1-0.3-0.1-0.6-0.1-0.9h1.3z"></path><path fill="#a0a0a0" d="m22.7 25.9c-0.1 0.6 0 1.2 0.1 1.7-0.1 0-0.1 0-0.2-0.1-0.1-0.5-0.1-1.1 0.1-1.6z"></path><path fill="#6a6a6a" d="m16.1 27.2h1.1c0 0.2 0 0.4-0.2 0.6v-0.5c-0.3 0-0.6 0-0.9-0.1z"></path><path fill="#585858" d="m23.3 26.4c0 0.2 0 0.5 0.2 0.7l1.1 0.2 0.1 0.2c-0.4-0.2-0.9-0.3-1.4-0.3-0.1-0.3-0.1-0.5 0-0.8z"></path><path fill="#2d2d2d" d="m12.1 25.9c0 1.1 0 2.1 0.1 3.2 0.5 0.2 1 0.3 1.5 0.2-0.5 0.1-1 0.2-1.5 0.1 0-0.1-0.1-0.2-0.2-0.2 0-0.6 0-1.3-0.1-1.9 0-0.4 0-0.8 0-1.3 0.1 0 0.1-0.1 0.2-0.1z"></path><path fill="#d4d4d4" d="m13.3 26.4v0.2c-0.1-0.1-0.3-0.1-0.5-0.1 0 0.2 0 0.4 0 0.6 0.2-0.1 0.4-0.2 0.6-0.2 0.3 0 0.6 0.1 0.8 0.3 0 0.6 0.1 1.1 0.1 1.7v0.5c-0.7 0.1-1.4 0.1-2.1 0 0.5 0.1 1 0 1.5-0.1 0 0 0.1-0.1 0.2-0.1 0.1-0.6 0.2-1.3 0.2-1.9-0.4-0.2-0.8-0.2-1.2 0v0.5c0.1 0.1 0.2 0.2 0.3 0.2v0.6h-0.5v-2.2h0.6z"></path><path fill="#4d4d4d" d="m12.9 27.3c0.4-0.2 0.8-0.2 1.2 0 0 0.6-0.1 1.3-0.2 1.9-0.1 0-0.2 0.1-0.2 0.1 0.2-0.6 0.2-1.3 0.2-2h-1z"></path><path fill="#4c4c4c" d="m24.7 27.5c0.1 0.6 0.1 1.2 0 1.8-0.1 0.1-0.2 0.1-0.3 0.1-0.5 0.1-0.9 0-1.3-0.1 0.5 0 0.9 0 1.4 0l0.1-0.2c0.1-0.5 0.1-1.1 0.1-1.6z"></path><path fill="#dbdbdb" d="m24.6 27.3c0.2 0 0.3 0.1 0.4 0.2 0.1 0.5 0.1 1.1 0 1.6-0.1 0.1-0.2 0.2-0.3 0.2 0.1-0.6 0.1-1.2 0-1.8l-0.1-0.2z"></path><path fill="#2a2a2a" d="m12.5 26.4v2.2c-0.1-0.3-0.2-0.7-0.2-1.1 0-0.4 0.1-0.8 0.2-1.1z"></path><path fill="#5b5b5b" d="m21.2 25.7l0.2 1.6c0 0.7-0.1 1.4-0.2 2.1v-3.7z"></path><path fill="#737373" d="m11.8 27.3h0.1c0.1 0.6 0.1 1.3 0.1 1.9-0.1-0.1-0.2-0.1-0.2-0.2 0-0.6-0.1-1.2 0-1.7z"></path><path fill="#939393" d="m20.3 27.6h0.3v1.8c0-0.5-0.1-1.1-0.1-1.7-0.1 0.3-0.3 0.6-0.5 0.8-0.1-0.1-0.2-0.2-0.3-0.4 0.2 0 0.2 0.1 0.3 0.2 0.2-0.2 0.3-0.4 0.3-0.7z"></path><path fill="#7a7a7a" d="m18.6 27.7c0.1 0.6 0.2 1.1 0.2 1.7h-0.2v-1.7z"></path><path fill="#b1b1b1" d="m19.6 27.8c-0.1 0.6-0.1 1.1-0.1 1.7-0.3 0.1-0.6 0-0.9-0.1h0.7c0.1-0.5 0.1-1.1 0.2-1.7 0.1 0 0.1 0.1 0.1 0.1z"></path><path fill="#323232" d="m21.2 29.3v0.1h-0.6v-1.8h-0.3c0.1-0.2 0.3-0.3 0.6-0.2-0.1 0.6-0.2 1.3-0.1 1.9h0.4z"></path><path fill="#6c6c6c" d="m19.7 27.6v0.2h-0.1c0 0 0-0.1-0.1-0.1-0.1 0.6-0.1 1.2-0.2 1.7v-1.9c0.2 0 0.3 0 0.4 0.1z"></path><path fill="#d4d4d4" d="m23.5 28.4c-0.3 0-0.5 0-0.7 0.1-0.2 0.1-0.2 0.3 0 0.5v0.2l-0.5 0.2c-0.5 0.2-1.1 0.2-1.7 0h0.6c0.1-0.7 0.2-1.4 0.2-2.1 0-0.6 0-1.1 0-1.7-0.3-0.2-0.6-0.1-0.8 0.1h-0.1v-0.3c0.4-0.1 0.7 0 1 0.1 0 1 0.1 2 0 3 0.3 0 0.6 0 0.9 0.1 0-0.3 0.2-0.5 0.6-0.4 0.2 0 0.4 0.1 0.5 0.2z"></path><path fill="#a1a1a1" d="m22.8 27.6h0.1c0.4 0.2 0.8 0.3 1.2 0.2v0.9c-0.2 0.1-0.4 0-0.6-0.1h0.5v-0.6c-0.4 0-0.7 0-1.1-0.2 0 0-0.1-0.1-0.1-0.2z"></path><path fill="#4a4a4a" d="m23.5 28.4v0.2c0.2 0.1 0.4 0.2 0.6 0.1-0.2 0.2-0.5 0.2-0.8 0.2v-0.4c-0.3-0.1-0.5 0.1-0.5 0.5-0.2-0.2-0.2-0.4 0-0.5 0.2-0.1 0.4-0.1 0.7-0.1z"></path><path fill="#d3d3d3" d="m15.2 27.7h0.2v1.7h-0.3v-0.7h-0.6c0.2-0.1 0.5-0.1 0.7-0.1v-0.9z"></path><path fill="#c5c5c5" d="m16.3 26.4v0.7c0.3-0.1 0.6 0 1 0 0.1 0.3 0.1 0.5 0 0.8-0.4 0.1-0.7 0.1-1 0.1v0.5c0.5 0.1 1.1 0.1 1.6 0 0.2 0 0.4 0.1 0.5 0.2h-0.7v0.7h0.6c-1 0.2-2 0.2-2.9 0v-1.7c0.1 0.6 0.1 1.1 0.1 1.7h1.8v-0.7c-0.4 0.1-0.7 0-1 0-0.1-0.3-0.2-0.6-0.2-0.9h0.9c0.2-0.2 0.2-0.4 0.2-0.6h-1.1c0-0.3 0-0.6 0.2-0.8z"></path><path fill="#6a6a6a" d="m22.3 28.9h-0.5v0.5c-0.1-0.2-0.2-0.4-0.1-0.7 0.2 0 0.4 0 0.6 0.2z"></path><path fill="#131313" d="m22.3 28.9v0.5h-0.5v-0.5h0.5z"></path><path fill="#777" d="m14.5 28.7h0.6v0.7h-0.1v-0.5h-0.5v0.5h-0.2v-0.5c0-0.1 0.1-0.2 0.2-0.2z"></path><path fill="#111" d="m15 29.4h-0.5v-0.5h0.5v0.5z"></path><path fill="#3c3c3c" d="m15.6 25.7v3.6h1.6v-0.4c-1.1 0.2-1.4-0.1-1.1-1.1 0 0.3 0.1 0.6 0.2 0.9 0.3 0 0.6 0.1 1 0v0.7h-1.8c0-0.6 0-1.1-0.1-1.7 0-0.7 0.1-1.3 0.2-2z"></path><path fill="#464646" d="m18.4 28.7v0.7h-0.7v-0.7h0.7z"></path><path fill="#0d0d0d" d="m17.8 28.9h0.5v0.4h-0.5v-0.4z"></path><path fill="#bababa" d="m22.9 29.2l0.2 0.1c0.4 0.1 0.8 0.2 1.3 0.1-0.5 0.1-0.9 0.2-1.4 0.1-0.1-0.1-0.1-0.2-0.1-0.3z"></path></svg>