<?xml version="1.0" encoding="UTF-8"?>
<!DOCTYPE svg PUBLIC "-//W3C//DTD SVG 1.1//EN" "http://www.w3.org/Graphics/SVG/1.1/DTD/svg11.dtd">
<svg xmlns="http://www.w3.org/2000/svg" version="1.1" width="320px" height="320px" style="shape-rendering:geometricPrecision; text-rendering:geometricPrecision; image-rendering:optimizeQuality; fill-rule:evenodd; clip-rule:evenodd" xmlns:xlink="http://www.w3.org/1999/xlink">
<g><path style="opacity:1" fill="#fefefe" d="M -0.5,-0.5 C 106.167,-0.5 212.833,-0.5 319.5,-0.5C 319.5,106.167 319.5,212.833 319.5,319.5C 212.833,319.5 106.167,319.5 -0.5,319.5C -0.5,212.833 -0.5,106.167 -0.5,-0.5 Z"/></g>
<g><path style="opacity:1" fill="#bfbfbf" d="M 169.5,60.5 C 168.833,60.5 168.167,60.5 167.5,60.5C 166.062,54.0192 163.062,53.0192 158.5,57.5C 158.421,56.0695 158.754,54.7362 159.5,53.5C 161.743,52.5258 164.076,52.1924 166.5,52.5C 167.454,55.1431 168.454,57.8097 169.5,60.5 Z"/></g>
<g><path style="opacity:1" fill="#2b2b2b" d="M 167.5,60.5 C 167.833,61.1667 168.167,61.8333 168.5,62.5C 166.281,61.1718 164.948,59.1718 164.5,56.5C 163.167,56.5 161.833,56.5 160.5,56.5C 159.621,59.3815 157.954,61.7149 155.5,63.5C 156.508,61.4561 157.508,59.4561 158.5,57.5C 163.062,53.0192 166.062,54.0192 167.5,60.5 Z"/></g>
<g><path style="opacity:1" fill="#505050" d="M 167.5,60.5 C 168.167,60.5 168.833,60.5 169.5,60.5C 170.634,63.9011 171.968,67.2344 173.5,70.5C 171.103,68.3379 169.436,65.6712 168.5,62.5C 168.167,61.8333 167.833,61.1667 167.5,60.5 Z"/></g>
<g><path style="opacity:1" fill="#ababab" d="M 155.5,63.5 C 155.443,64.609 155.11,65.609 154.5,66.5C 153.728,67.6935 152.728,68.6935 151.5,69.5C 152.15,67.5648 152.483,65.5648 152.5,63.5C 153.5,63.5 154.5,63.5 155.5,63.5 Z"/></g>
<g><path style="opacity:1" fill="#0d0d0d" d="M 168.5,62.5 C 169.436,65.6712 171.103,68.3379 173.5,70.5C 174.752,72.0009 175.752,73.6675 176.5,75.5C 176.599,78.6393 177.932,80.9726 180.5,82.5C 181.338,82.8417 181.672,83.5084 181.5,84.5C 181.989,85.9952 182.655,87.3285 183.5,88.5C 187.921,94.3344 191.588,100.668 194.5,107.5C 195.759,111.025 197.759,114.025 200.5,116.5C 200.328,117.492 200.662,118.158 201.5,118.5C 202.079,121.331 203.412,123.664 205.5,125.5C 206.11,126.391 206.443,127.391 206.5,128.5C 206.427,130.027 207.094,131.027 208.5,131.5C 208.427,133.027 209.094,134.027 210.5,134.5C 210.5,134.833 210.5,135.167 210.5,135.5C 213.447,139.74 216.114,144.074 218.5,148.5C 218.5,148.833 218.5,149.167 218.5,149.5C 221.398,153.527 223.732,157.86 225.5,162.5C 226.59,166.509 228.59,169.842 231.5,172.5C 232.338,172.842 232.672,173.508 232.5,174.5C 233.432,177.267 234.599,179.933 236,182.5C 236.708,183.381 237.542,184.047 238.5,184.5C 238.989,185.995 239.655,187.329 240.5,188.5C 241.167,188.5 241.5,188.833 241.5,189.5C 242.061,193.168 243.728,196.168 246.5,198.5C 246.427,200.027 247.094,201.027 248.5,201.5C 249.529,203.517 250.529,205.517 251.5,207.5C 251.92,209.094 252.586,210.594 253.5,212C 253.43,212.765 253.097,213.265 252.5,213.5C 192.5,213.5 132.5,213.5 72.5,213.5C 72.6287,211.784 72.962,210.117 73.5,208.5C 74.7196,206.718 75.3862,204.718 75.5,202.5C 77.2503,201.341 78.2503,199.674 78.5,197.5C 80.6326,195.909 82.2993,193.909 83.5,191.5C 84.7281,192.306 85.7281,193.306 86.5,194.5C 85.4918,196.544 84.4918,198.544 83.5,200.5C 82.5489,201.919 82.2155,203.585 82.5,205.5C 84.2769,205.214 85.9436,204.547 87.5,203.5C 89.0377,203.453 90.0377,204.12 90.5,205.5C 90.1583,206.338 89.4916,206.672 88.5,206.5C 87.1991,207.884 87.1991,209.384 88.5,211C 99,211.167 109.5,211.333 120,211.5C 158.754,211.395 197.588,211.229 236.5,211C 239.133,209.311 239.133,207.811 236.5,206.5C 236.082,205.778 235.416,205.278 234.5,205C 235.905,203.731 237.571,203.231 239.5,203.5C 240.5,203.5 241.5,203.5 242.5,203.5C 239.919,197.329 236.585,191.662 232.5,186.5C 231.389,183.144 229.723,180.144 227.5,177.5C 224.94,171.837 221.94,166.503 218.5,161.5C 217.456,159.185 216.123,157.185 214.5,155.5C 213.546,152.294 212.213,149.294 210.5,146.5C 209.923,144.348 208.756,144.015 207,145.5C 206.505,147.473 206.338,149.473 206.5,151.5C 206.5,152.833 206.5,154.167 206.5,155.5C 206.167,155.5 205.833,155.5 205.5,155.5C 203.732,159.044 202.898,163.044 203,167.5C 202.178,164.883 201.678,162.216 201.5,159.5C 202.465,151.402 203.799,143.402 205.5,135.5C 202.896,133.97 200.229,132.637 197.5,131.5C 196.833,131.167 196.167,130.833 195.5,130.5C 194.738,128.738 193.404,127.738 191.5,127.5C 191.856,125.81 192.856,124.81 194.5,124.5C 195.5,124.5 196.5,124.5 197.5,124.5C 197.649,123.448 197.483,122.448 197,121.5C 194.465,117.734 191.965,114.067 189.5,110.5C 189.401,107.361 188.068,105.027 185.5,103.5C 183.336,98.4997 180.669,93.833 177.5,89.5C 177.573,87.9731 176.906,86.9731 175.5,86.5C 174.241,82.353 172.241,78.6863 169.5,75.5C 169.635,73.4458 168.968,71.7791 167.5,70.5C 166.791,69.596 165.791,69.2627 164.5,69.5C 164.172,81.3453 164.505,93.012 165.5,104.5C 166.167,104.5 166.833,104.5 167.5,104.5C 167.833,105.5 168.5,106.167 169.5,106.5C 169.973,107.906 170.973,108.573 172.5,108.5C 172.973,109.906 173.973,110.573 175.5,110.5C 175.973,111.906 176.973,112.573 178.5,112.5C 178.5,112.833 178.5,113.167 178.5,113.5C 179.905,115.611 181.905,117.111 184.5,118C 183.095,119.269 181.429,119.769 179.5,119.5C 177.205,118.525 175.205,117.192 173.5,115.5C 172.545,113.29 171.045,112.957 169,114.5C 168.529,116.246 167.862,117.913 167,119.5C 166.722,118.584 166.222,117.918 165.5,117.5C 165.573,115.973 164.906,114.973 163.5,114.5C 162.508,114.328 161.842,114.662 161.5,115.5C 158.992,119.182 156.992,123.182 155.5,127.5C 150.333,133.505 147,140.505 145.5,148.5C 145.5,148.833 145.5,149.167 145.5,149.5C 144.5,149.5 143.5,149.5 142.5,149.5C 142.246,152.014 141.413,154.348 140,156.5C 139.5,155.5 139,154.5 138.5,153.5C 140.173,151.477 140.84,149.144 140.5,146.5C 141.11,145.609 141.443,144.609 141.5,143.5C 141.5,143.167 141.5,142.833 141.5,142.5C 142.167,142.167 142.833,141.833 143.5,141.5C 146.363,136.7 149.03,131.7 151.5,126.5C 152.466,124.604 152.799,122.604 152.5,120.5C 154.216,119.426 155.216,117.759 155.5,115.5C 154.042,114.218 152.708,114.218 151.5,115.5C 150.127,115.657 148.793,115.49 147.5,115C 146.402,114.23 146.402,113.397 147.5,112.5C 150.658,110.288 153.658,107.955 156.5,105.5C 157.391,104.89 158.391,104.557 159.5,104.5C 160.495,93.012 160.828,81.3453 160.5,69.5C 159.209,69.2627 158.209,69.596 157.5,70.5C 156.5,70.5 155.5,70.5 154.5,70.5C 154.5,69.1667 154.5,67.8333 154.5,66.5C 155.11,65.609 155.443,64.609 155.5,63.5C 157.954,61.7149 159.621,59.3815 160.5,56.5C 161.833,56.5 163.167,56.5 164.5,56.5C 164.948,59.1718 166.281,61.1718 168.5,62.5 Z"/></g>
<g><path style="opacity:1" fill="#5a5a5a" d="M 157.5,72.5 C 157.5,72.8333 157.5,73.1667 157.5,73.5C 156.833,73.5 156.5,73.8333 156.5,74.5C 155.857,76.0764 154.857,77.4097 153.5,78.5C 153.581,75.4866 154.914,73.4866 157.5,72.5 Z"/></g>
<g><path style="opacity:1" fill="#c9c9c9" d="M 150.5,70.5 C 149.801,73.3103 148.801,75.977 147.5,78.5C 146.1,79.0998 145.1,80.0998 144.5,81.5C 144.238,80.0222 144.571,78.6888 145.5,77.5C 146.97,74.8415 148.636,72.5081 150.5,70.5 Z"/></g>
<g><path style="opacity:1" fill="#f7f7f7" d="M 157.5,73.5 C 158.166,78.3218 158.499,83.3218 158.5,88.5C 158.405,94.3376 157.738,100.004 156.5,105.5C 152.394,107.433 148.394,109.599 144.5,112C 142.937,112.759 141.937,113.926 141.5,115.5C 139.337,117.083 137.004,118.416 134.5,119.5C 132.153,118.393 131.82,116.726 133.5,114.5C 134.345,113.329 135.011,111.995 135.5,110.5C 137.738,109.147 139.071,107.147 139.5,104.5C 140.458,104.047 141.292,103.381 142,102.5C 143.787,98.4462 145.62,94.4462 147.5,90.5C 148.167,88.8333 148.833,87.1667 149.5,85.5C 149.833,85.5 150.167,85.5 150.5,85.5C 151.929,83.0554 153.762,80.7221 156,78.5C 156.49,77.2068 156.657,75.8734 156.5,74.5C 156.5,73.8333 156.833,73.5 157.5,73.5 Z"/></g>
<g><path style="opacity:1" fill="#c2c2c2" d="M 156.5,74.5 C 156.657,75.8734 156.49,77.2068 156,78.5C 153.762,80.7221 151.929,83.0554 150.5,85.5C 151.11,84.609 151.443,83.609 151.5,82.5C 151.66,80.847 152.326,79.5137 153.5,78.5C 154.857,77.4097 155.857,76.0764 156.5,74.5 Z"/></g>
<g><path style="opacity:1" fill="#f6f6f6" d="M 169.5,75.5 C 170.179,78.7068 171.346,81.7068 173,84.5C 173.708,85.3805 174.542,86.0472 175.5,86.5C 176.906,86.9731 177.573,87.9731 177.5,89.5C 178.903,94.9335 181.57,99.6002 185.5,103.5C 186.545,106.061 187.878,108.394 189.5,110.5C 190.483,113.595 191.316,116.595 192,119.5C 187.839,116.503 183.339,114.17 178.5,112.5C 178.027,111.094 177.027,110.427 175.5,110.5C 175.027,109.094 174.027,108.427 172.5,108.5C 172.027,107.094 171.027,106.427 169.5,106.5C 168.5,106.167 167.833,105.5 167.5,104.5C 166.192,93.8943 166.192,83.2277 167.5,72.5C 168.176,73.6016 168.842,74.6016 169.5,75.5 Z"/></g>
<g><path style="opacity:1" fill="#414141" d="M 176.5,75.5 C 178.572,77.3495 179.905,79.6829 180.5,82.5C 177.932,80.9726 176.599,78.6393 176.5,75.5 Z"/></g>
<g><path style="opacity:1" fill="#3a3a3a" d="M 167.5,70.5 C 165.522,81.4507 164.856,92.784 165.5,104.5C 164.505,93.012 164.172,81.3453 164.5,69.5C 165.791,69.2627 166.791,69.596 167.5,70.5 Z"/></g>
<g><path style="opacity:1" fill="#b6b6b6" d="M 169.5,75.5 C 172.241,78.6863 174.241,82.353 175.5,86.5C 174.542,86.0472 173.708,85.3805 173,84.5C 171.346,81.7068 170.179,78.7068 169.5,75.5 Z"/></g>
<g><path style="opacity:1" fill="#bababa" d="M 157.5,70.5 C 159.478,81.4507 160.144,92.784 159.5,104.5C 158.391,104.557 157.391,104.89 156.5,105.5C 157.738,100.004 158.405,94.3376 158.5,88.5C 158.499,83.3218 158.166,78.3218 157.5,73.5C 157.5,73.1667 157.5,72.8333 157.5,72.5C 157.5,71.8333 157.5,71.1667 157.5,70.5 Z"/></g>
<g><path style="opacity:1" fill="#a0a0a0" d="M 167.5,70.5 C 168.968,71.7791 169.635,73.4458 169.5,75.5C 168.842,74.6016 168.176,73.6016 167.5,72.5C 166.192,83.2277 166.192,93.8943 167.5,104.5C 166.833,104.5 166.167,104.5 165.5,104.5C 164.856,92.784 165.522,81.4507 167.5,70.5 Z"/></g>
<g><path style="opacity:1" fill="#616161" d="M 147.5,78.5 C 146.082,81.9607 144.082,84.9607 141.5,87.5C 142.508,85.4561 143.508,83.4561 144.5,81.5C 145.1,80.0998 146.1,79.0998 147.5,78.5 Z"/></g>
<g><path style="opacity:1" fill="#6f6f6f" d="M 151.5,82.5 C 151.443,83.609 151.11,84.609 150.5,85.5C 150.167,85.5 149.833,85.5 149.5,85.5C 149.427,83.9731 150.094,82.9731 151.5,82.5 Z"/></g>
<g><path style="opacity:1" fill="#6e6e6e" d="M 181.5,84.5 C 183.176,85.1834 183.843,86.5168 183.5,88.5C 182.655,87.3285 181.989,85.9952 181.5,84.5 Z"/></g>
<g><path style="opacity:1" fill="#8b8b8b" d="M 141.5,88.5 C 140.974,90.2303 139.974,91.5637 138.5,92.5C 138.554,90.368 139.554,89.0347 141.5,88.5 Z"/></g>
<g><path style="opacity:1" fill="#404040" d="M 157.5,70.5 C 158.209,69.596 159.209,69.2627 160.5,69.5C 160.828,81.3453 160.495,93.012 159.5,104.5C 160.144,92.784 159.478,81.4507 157.5,70.5 Z"/></g>
<g><path style="opacity:1" fill="#afafaf" d="M 177.5,89.5 C 180.669,93.833 183.336,98.4997 185.5,103.5C 181.57,99.6002 178.903,94.9335 177.5,89.5 Z"/></g>
<g><path style="opacity:1" fill="#5e5e5e" d="M 138.5,92.5 C 138.843,94.4832 138.176,95.8166 136.5,96.5C 136.989,95.0048 137.655,93.6715 138.5,92.5 Z"/></g>
<g><path style="opacity:1" fill="#a3a3a3" d="M 147.5,90.5 C 145.62,94.4462 143.787,98.4462 142,102.5C 141.292,103.381 140.458,104.047 139.5,104.5C 140.701,100.736 142.201,97.0697 144,93.5C 144.759,91.9371 145.926,90.9371 147.5,90.5 Z"/></g>
<g><path style="opacity:1" fill="#737373" d="M 169.5,106.5 C 171.027,106.427 172.027,107.094 172.5,108.5C 170.973,108.573 169.973,107.906 169.5,106.5 Z"/></g>
<g><path style="opacity:1" fill="#787878" d="M 185.5,103.5 C 188.068,105.027 189.401,107.361 189.5,110.5C 187.878,108.394 186.545,106.061 185.5,103.5 Z"/></g>
<g><path style="opacity:1" fill="#949494" d="M 139.5,104.5 C 139.071,107.147 137.738,109.147 135.5,110.5C 136.298,108.034 137.631,106.034 139.5,104.5 Z"/></g>
<g><path style="opacity:1" fill="#9f9f9f" d="M 156.5,105.5 C 153.658,107.955 150.658,110.288 147.5,112.5C 145.517,113.471 143.517,114.471 141.5,115.5C 141.937,113.926 142.937,112.759 144.5,112C 148.394,109.599 152.394,107.433 156.5,105.5 Z"/></g>
<g><path style="opacity:1" fill="#747474" d="M 172.5,108.5 C 174.027,108.427 175.027,109.094 175.5,110.5C 173.973,110.573 172.973,109.906 172.5,108.5 Z"/></g>
<g><path style="opacity:1" fill="#717171" d="M 175.5,110.5 C 177.027,110.427 178.027,111.094 178.5,112.5C 176.973,112.573 175.973,111.906 175.5,110.5 Z"/></g>
<g><path style="opacity:1" fill="#898989" d="M 194.5,107.5 C 197.277,109.951 199.277,112.951 200.5,116.5C 197.759,114.025 195.759,111.025 194.5,107.5 Z"/></g>
<g><path style="opacity:1" fill="#737373" d="M 135.5,110.5 C 135.011,111.995 134.345,113.329 133.5,114.5C 133.157,112.517 133.824,111.183 135.5,110.5 Z"/></g>
<g><path style="opacity:1" fill="#5c5c5c" d="M 151.5,115.5 C 152.708,114.218 154.042,114.218 155.5,115.5C 155.216,117.759 154.216,119.426 152.5,120.5C 152.678,119.305 153.011,118.138 153.5,117C 153.164,115.97 152.497,115.47 151.5,115.5 Z"/></g>
<g><path style="opacity:1" fill="#929292" d="M 127.5,112.5 C 126.905,115.317 125.572,117.65 123.5,119.5C 123.351,118.448 123.517,117.448 124,116.5C 124.74,114.681 125.907,113.348 127.5,112.5 Z"/></g>
<g><path style="opacity:1" fill="#fdfdfd" d="M 163.5,114.5 C 167.495,127.175 172.829,139.175 179.5,150.5C 183.839,160.525 188.173,170.525 192.5,180.5C 172.489,180.833 152.489,180.5 132.5,179.5C 141.754,160.922 150.921,142.256 160,123.5C 160.567,120.832 161.067,118.166 161.5,115.5C 161.842,114.662 162.508,114.328 163.5,114.5 Z"/></g>
<g><path style="opacity:1" fill="#f5f5f5" d="M 151.5,115.5 C 152.497,115.47 153.164,115.97 153.5,117C 153.011,118.138 152.678,119.305 152.5,120.5C 151.833,120.5 151.5,120.833 151.5,121.5C 149.478,122.507 148.145,124.174 147.5,126.5C 145.186,131.79 143.186,137.123 141.5,142.5C 141.5,142.833 141.5,143.167 141.5,143.5C 137.498,147.163 135.498,151.83 135.5,157.5C 133.769,158.985 132.769,160.985 132.5,163.5C 132.167,164.167 131.833,164.833 131.5,165.5C 130.057,166.335 129.057,167.668 128.5,169.5C 128.167,168.667 127.833,167.833 127.5,167C 125.989,157.099 124.322,147.265 122.5,137.5C 122.608,136.558 122.941,135.725 123.5,135C 127.711,132.69 131.711,130.19 135.5,127.5C 140.833,123.5 146.167,119.5 151.5,115.5 Z"/></g>
<g><path style="opacity:1" fill="#b3b3b3" d="M 189.5,110.5 C 191.965,114.067 194.465,117.734 197,121.5C 197.483,122.448 197.649,123.448 197.5,124.5C 196.5,124.5 195.5,124.5 194.5,124.5C 193.404,122.233 191.737,120.4 189.5,119C 185.706,117.414 182.039,115.581 178.5,113.5C 178.5,113.167 178.5,112.833 178.5,112.5C 183.339,114.17 187.839,116.503 192,119.5C 191.316,116.595 190.483,113.595 189.5,110.5 Z"/></g>
<g><path style="opacity:1" fill="#a4a4a4" d="M 201.5,118.5 C 203.669,120.34 205.002,122.674 205.5,125.5C 203.412,123.664 202.079,121.331 201.5,118.5 Z"/></g>
<g><path style="opacity:1" fill="#f4f4f4" d="M 173.5,115.5 C 175.205,117.192 177.205,118.525 179.5,119.5C 182.854,123.072 186.854,125.739 191.5,127.5C 192.262,129.262 193.596,130.262 195.5,130.5C 196.167,130.833 196.833,131.167 197.5,131.5C 198.479,133.145 199.812,134.479 201.5,135.5C 202.348,137.409 202.682,139.409 202.5,141.5C 201.778,141.918 201.278,142.584 201,143.5C 200.503,146.146 200.336,148.813 200.5,151.5C 200.5,152.833 200.5,154.167 200.5,155.5C 198.762,160.217 198.096,165.217 198.5,170.5C 197.5,170.5 196.5,170.5 195.5,170.5C 194.923,166.017 193.257,162.017 190.5,158.5C 188.874,153.936 186.874,149.603 184.5,145.5C 184.5,144.833 184.167,144.5 183.5,144.5C 183.657,143.127 183.49,141.793 183,140.5C 182.098,138.569 180.931,136.903 179.5,135.5C 179.88,133.302 179.213,131.635 177.5,130.5C 176.178,125.731 174.178,121.231 171.5,117C 171.836,115.97 172.503,115.47 173.5,115.5 Z"/></g>
<g><path style="opacity:1" fill="#1e1e1e" d="M 178.5,113.5 C 182.039,115.581 185.706,117.414 189.5,119C 191.737,120.4 193.404,122.233 194.5,124.5C 192.856,124.81 191.856,125.81 191.5,127.5C 186.854,125.739 182.854,123.072 179.5,119.5C 181.429,119.769 183.095,119.269 184.5,118C 181.905,117.111 179.905,115.611 178.5,113.5 Z"/></g>
<g><path style="opacity:1" fill="#373737" d="M 152.5,120.5 C 152.799,122.604 152.466,124.604 151.5,126.5C 149.03,131.7 146.363,136.7 143.5,141.5C 143.343,140.127 143.51,138.793 144,137.5C 146.465,132.078 148.965,126.745 151.5,121.5C 151.5,120.833 151.833,120.5 152.5,120.5 Z"/></g>
<g><path style="opacity:1" fill="#1e1e1e" d="M 173.5,115.5 C 172.503,115.47 171.836,115.97 171.5,117C 174.178,121.231 176.178,125.731 177.5,130.5C 177.557,131.609 177.89,132.609 178.5,133.5C 177.335,134.496 176.668,135.829 176.5,137.5C 177.046,139.135 177.38,140.801 177.5,142.5C 175.113,138.256 172.613,133.922 170,129.5C 168.773,125.383 167.273,121.383 165.5,117.5C 166.222,117.918 166.722,118.584 167,119.5C 167.862,117.913 168.529,116.246 169,114.5C 171.045,112.957 172.545,113.29 173.5,115.5 Z"/></g>
<g><path style="opacity:1" fill="#5f5f5f" d="M 191.5,127.5 C 193.404,127.738 194.738,128.738 195.5,130.5C 193.596,130.262 192.262,129.262 191.5,127.5 Z"/></g>
<g><path style="opacity:1" fill="#adadad" d="M 163.5,114.5 C 164.906,114.973 165.573,115.973 165.5,117.5C 167.273,121.383 168.773,125.383 170,129.5C 172.613,133.922 175.113,138.256 177.5,142.5C 178.639,145.004 179.306,147.67 179.5,150.5C 172.829,139.175 167.495,127.175 163.5,114.5 Z"/></g>
<g><path style="opacity:1" fill="#666666" d="M 206.5,128.5 C 207.906,128.973 208.573,129.973 208.5,131.5C 207.094,131.027 206.427,130.027 206.5,128.5 Z"/></g>
<g><path style="opacity:1" fill="#c7c7c7" d="M 151.5,121.5 C 148.965,126.745 146.465,132.078 144,137.5C 143.51,138.793 143.343,140.127 143.5,141.5C 142.833,141.833 142.167,142.167 141.5,142.5C 143.186,137.123 145.186,131.79 147.5,126.5C 148.145,124.174 149.478,122.507 151.5,121.5 Z"/></g>
<g><path style="opacity:1" fill="#7b7b7b" d="M 177.5,130.5 C 179.213,131.635 179.88,133.302 179.5,135.5C 178.662,135.158 178.328,134.492 178.5,133.5C 177.89,132.609 177.557,131.609 177.5,130.5 Z"/></g>
<g><path style="opacity:1" fill="#7a7a7a" d="M 208.5,131.5 C 209.906,131.973 210.573,132.973 210.5,134.5C 209.094,134.027 208.427,133.027 208.5,131.5 Z"/></g>
<g><path style="opacity:1" fill="#3d3d3d" d="M 197.5,131.5 C 200.229,132.637 202.896,133.97 205.5,135.5C 203.799,143.402 202.465,151.402 201.5,159.5C 201.167,159.5 200.833,159.5 200.5,159.5C 200.5,158.167 200.5,156.833 200.5,155.5C 200.5,154.167 200.5,152.833 200.5,151.5C 201.222,151.082 201.722,150.416 202,149.5C 202.497,146.854 202.664,144.187 202.5,141.5C 202.682,139.409 202.348,137.409 201.5,135.5C 199.812,134.479 198.479,133.145 197.5,131.5 Z"/></g>
<g><path style="opacity:1" fill="#282828" d="M 155.5,127.5 C 152.072,134.553 148.739,141.553 145.5,148.5C 147,140.505 150.333,133.505 155.5,127.5 Z"/></g>
<g><path style="opacity:1" fill="#c2c2c2" d="M 210.5,135.5 C 212.384,135.712 213.717,136.712 214.5,138.5C 216.403,141.634 217.736,144.968 218.5,148.5C 216.114,144.074 213.447,139.74 210.5,135.5 Z"/></g>
<g><path style="opacity:1" fill="#626262" d="M 179.5,135.5 C 180.931,136.903 182.098,138.569 183,140.5C 183.49,141.793 183.657,143.127 183.5,144.5C 181.416,141.947 180.083,138.947 179.5,135.5 Z"/></g>
<g><path style="opacity:1" fill="#353535" d="M 116.5,132.5 C 114.525,137.074 112.858,141.741 111.5,146.5C 110.5,146.5 109.5,146.5 108.5,146.5C 110.65,141.532 113.317,136.865 116.5,132.5 Z"/></g>
<g><path style="opacity:1" fill="#7d7d7d" d="M 210.5,146.5 C 208.818,147.827 207.485,149.494 206.5,151.5C 206.338,149.473 206.505,147.473 207,145.5C 208.756,144.015 209.923,144.348 210.5,146.5 Z"/></g>
<g><path style="opacity:1" fill="#878787" d="M 135.5,127.5 C 131.711,130.19 127.711,132.69 123.5,135C 122.941,135.725 122.608,136.558 122.5,137.5C 124.322,147.265 125.989,157.099 127.5,167C 127.833,167.833 128.167,168.667 128.5,169.5C 129.057,167.668 130.057,166.335 131.5,165.5C 130.699,167.042 130.366,168.708 130.5,170.5C 129.292,171.234 127.959,171.567 126.5,171.5C 126.784,169.585 126.451,167.919 125.5,166.5C 123.702,155.885 122.535,145.218 122,134.5C 126.2,131.471 130.7,129.138 135.5,127.5 Z"/></g>
<g><path style="opacity:1" fill="#bcbcbc" d="M 106.5,147.5 C 106.346,149.97 105.346,151.97 103.5,153.5C 103.654,151.03 104.654,149.03 106.5,147.5 Z"/></g>
<g><path style="opacity:1" fill="#8e8e8e" d="M 202.5,141.5 C 202.664,144.187 202.497,146.854 202,149.5C 201.722,150.416 201.222,151.082 200.5,151.5C 200.336,148.813 200.503,146.146 201,143.5C 201.278,142.584 201.778,141.918 202.5,141.5 Z"/></g>
<g><path style="opacity:1" fill="#fafafa" d="M 214.5,155.5 C 216.123,157.185 217.456,159.185 218.5,161.5C 220.023,167.806 223.023,173.139 227.5,177.5C 229.723,180.144 231.389,183.144 232.5,186.5C 233.516,191.53 235.849,195.864 239.5,199.5C 239.043,200.298 238.376,200.631 237.5,200.5C 231.39,197.064 225.057,194.064 218.5,191.5C 214.6,187.57 209.934,184.903 204.5,183.5C 203.89,182.609 203.557,181.609 203.5,180.5C 204.222,180.082 204.722,179.416 205,178.5C 206.233,168.798 208.067,159.131 210.5,149.5C 211.016,152.185 212.35,154.185 214.5,155.5 Z"/></g>
<g><path style="opacity:1" fill="#f9f9f9" d="M 117.5,151.5 C 117.335,154.85 117.502,158.183 118,161.5C 118.903,166.673 120.07,171.673 121.5,176.5C 121.799,178.604 121.466,180.604 120.5,182.5C 116.885,184.133 113.552,186.133 110.5,188.5C 109.41,189.857 108.076,190.857 106.5,191.5C 105.292,192.234 103.959,192.567 102.5,192.5C 98.4249,193.391 95.0916,195.391 92.5,198.5C 90.8828,199.038 89.2161,199.371 87.5,199.5C 87.9827,196.342 88.9827,193.342 90.5,190.5C 90.5,190.167 90.5,189.833 90.5,189.5C 91.5,189.5 92.5,189.5 93.5,189.5C 93.6811,186.216 94.6811,183.216 96.5,180.5C 96.5,180.167 96.5,179.833 96.5,179.5C 100.02,177.133 102.02,173.8 102.5,169.5C 102.5,169.167 102.5,168.833 102.5,168.5C 104.688,167.556 106.021,165.889 106.5,163.5C 108.497,159.168 110.497,154.835 112.5,150.5C 112.5,149.833 112.833,149.5 113.5,149.5C 114.404,148.791 114.737,147.791 114.5,146.5C 115.5,146.5 116.5,146.5 117.5,146.5C 117.5,148.167 117.5,149.833 117.5,151.5 Z"/></g>
<g><path style="opacity:1" fill="#5b5b5b" d="M 184.5,145.5 C 186.874,149.603 188.874,153.936 190.5,158.5C 187.374,154.833 185.374,150.499 184.5,145.5 Z"/></g>
<g><path style="opacity:1" fill="#343434" d="M 106.5,147.5 C 107.167,147.5 107.833,147.5 108.5,147.5C 107.79,149.746 107.29,152.08 107,154.5C 106.667,153.833 106.333,153.167 106,152.5C 104.647,155.889 102.813,158.889 100.5,161.5C 100.965,158.635 101.965,155.968 103.5,153.5C 105.346,151.97 106.346,149.97 106.5,147.5 Z"/></g>
<g><path style="opacity:1" fill="#d7d7d7" d="M 210.5,146.5 C 212.213,149.294 213.546,152.294 214.5,155.5C 212.35,154.185 211.016,152.185 210.5,149.5C 208.067,159.131 206.233,168.798 205,178.5C 204.722,179.416 204.222,180.082 203.5,180.5C 203.833,177.833 204.167,175.167 204.5,172.5C 204.5,171.167 204.5,169.833 204.5,168.5C 204.5,167.833 204.5,167.167 204.5,166.5C 205.222,166.082 205.722,165.416 206,164.5C 206.498,161.518 206.665,158.518 206.5,155.5C 206.5,154.167 206.5,152.833 206.5,151.5C 207.485,149.494 208.818,147.827 210.5,146.5 Z"/></g>
<g><path style="opacity:1" fill="#c6c6c6" d="M 218.5,149.5 C 219.496,149.414 220.329,149.748 221,150.5C 222.374,152.747 223.874,154.913 225.5,157C 226.233,158.766 226.567,160.599 226.5,162.5C 226.167,162.5 225.833,162.5 225.5,162.5C 223.732,157.86 221.398,153.527 218.5,149.5 Z"/></g>
<g><path style="opacity:1" fill="#121212" d="M 154.5,66.5 C 154.5,67.8333 154.5,69.1667 154.5,70.5C 155.5,70.5 156.5,70.5 157.5,70.5C 157.5,71.1667 157.5,71.8333 157.5,72.5C 154.914,73.4866 153.581,75.4866 153.5,78.5C 152.326,79.5137 151.66,80.847 151.5,82.5C 150.094,82.9731 149.427,83.9731 149.5,85.5C 148.833,87.1667 148.167,88.8333 147.5,90.5C 145.926,90.9371 144.759,91.9371 144,93.5C 142.201,97.0697 140.701,100.736 139.5,104.5C 137.631,106.034 136.298,108.034 135.5,110.5C 133.824,111.183 133.157,112.517 133.5,114.5C 131.622,116.552 129.955,118.886 128.5,121.5C 127.596,122.209 127.263,123.209 127.5,124.5C 129.698,124.88 131.365,124.213 132.5,122.5C 133.167,121.5 133.833,120.5 134.5,119.5C 137.004,118.416 139.337,117.083 141.5,115.5C 143.517,114.471 145.517,113.471 147.5,112.5C 146.402,113.397 146.402,114.23 147.5,115C 148.793,115.49 150.127,115.657 151.5,115.5C 146.167,119.5 140.833,123.5 135.5,127.5C 130.7,129.138 126.2,131.471 122,134.5C 122.535,145.218 123.702,155.885 125.5,166.5C 125.5,168.833 125.5,171.167 125.5,173.5C 128.285,174.084 129.952,173.084 130.5,170.5C 130.366,168.708 130.699,167.042 131.5,165.5C 131.833,164.833 132.167,164.167 132.5,163.5C 134.231,162.015 135.231,160.015 135.5,157.5C 136.719,153.606 138.386,149.939 140.5,146.5C 140.84,149.144 140.173,151.477 138.5,153.5C 139,154.5 139.5,155.5 140,156.5C 141.413,154.348 142.246,152.014 142.5,149.5C 143.5,149.5 144.5,149.5 145.5,149.5C 140.284,159.265 135.617,169.265 131.5,179.5C 130.596,180.209 130.263,181.209 130.5,182.5C 151.836,182.667 173.169,182.5 194.5,182C 195.985,180.244 195.652,179.077 193.5,178.5C 189.208,168.904 184.541,159.571 179.5,150.5C 179.306,147.67 178.639,145.004 177.5,142.5C 177.38,140.801 177.046,139.135 176.5,137.5C 176.668,135.829 177.335,134.496 178.5,133.5C 178.328,134.492 178.662,135.158 179.5,135.5C 180.083,138.947 181.416,141.947 183.5,144.5C 184.167,144.5 184.5,144.833 184.5,145.5C 185.374,150.499 187.374,154.833 190.5,158.5C 190.343,159.873 190.51,161.207 191,162.5C 193.242,164.87 194.742,167.536 195.5,170.5C 196.255,172.466 197.421,172.8 199,171.5C 199.501,167.49 200.001,163.49 200.5,159.5C 200.833,159.5 201.167,159.5 201.5,159.5C 201.678,162.216 202.178,164.883 203,167.5C 202.898,163.044 203.732,159.044 205.5,155.5C 204.756,159.119 204.423,162.785 204.5,166.5C 204.5,167.167 204.5,167.833 204.5,168.5C 203.076,170.515 202.41,172.848 202.5,175.5C 201.964,178.698 202.631,181.365 204.5,183.5C 208.833,186.669 213.5,189.336 218.5,191.5C 224.36,195.577 230.693,198.91 237.5,201.5C 238.167,202.167 238.833,202.833 239.5,203.5C 237.571,203.231 235.905,203.731 234.5,205C 235.416,205.278 236.082,205.778 236.5,206.5C 239.133,207.811 239.133,209.311 236.5,211C 197.588,211.229 158.754,211.395 120,211.5C 109.5,211.333 99,211.167 88.5,211C 87.1991,209.384 87.1991,207.884 88.5,206.5C 88.5,207.5 88.5,208.5 88.5,209.5C 109.833,209.5 131.167,209.5 152.5,209.5C 152.737,208.209 152.404,207.209 151.5,206.5C 150.5,205.833 149.5,205.167 148.5,204.5C 147.415,202.413 145.749,201.08 143.5,200.5C 142.508,200.672 141.842,200.338 141.5,199.5C 140.089,197.086 138.089,195.419 135.5,194.5C 134.833,194.167 134.167,193.833 133.5,193.5C 133.027,192.094 132.027,191.427 130.5,191.5C 130.158,190.662 129.492,190.328 128.5,190.5C 128.209,189.351 127.376,188.684 126,188.5C 124.301,188.387 123.134,189.053 122.5,190.5C 121.833,190.5 121.167,190.5 120.5,190.5C 116.491,191.59 113.158,193.59 110.5,196.5C 110.167,196.5 109.833,196.5 109.5,196.5C 106.741,197.642 104.074,198.976 101.5,200.5C 99.9731,200.427 98.9731,201.094 98.5,202.5C 96.847,202.66 95.5137,203.326 94.5,204.5C 93.1667,204.833 91.8333,205.167 90.5,205.5C 90.0377,204.12 89.0377,203.453 87.5,203.5C 85.9436,204.547 84.2769,205.214 82.5,205.5C 82.2155,203.585 82.5489,201.919 83.5,200.5C 83.62,201.586 84.2867,202.253 85.5,202.5C 88.3489,201.914 90.6822,200.58 92.5,198.5C 94.403,198.204 96.0697,197.537 97.5,196.5C 101.299,195.985 104.299,194.319 106.5,191.5C 108.076,190.857 109.41,189.857 110.5,188.5C 117.769,188.226 121.769,184.559 122.5,177.5C 122.657,174.186 121.991,171.186 120.5,168.5C 120.5,166.5 120.5,164.5 120.5,162.5C 120.59,159.848 119.924,157.515 118.5,155.5C 118.5,154.167 118.5,152.833 118.5,151.5C 118.5,149.167 118.5,146.833 118.5,144.5C 114.5,143.833 112.833,145.5 113.5,149.5C 112.833,149.5 112.5,149.833 112.5,150.5C 108.966,154.073 106.633,158.406 105.5,163.5C 104.11,164.899 103.11,166.566 102.5,168.5C 102.5,168.833 102.5,169.167 102.5,169.5C 99.5787,172.242 97.5787,175.575 96.5,179.5C 96.5,179.833 96.5,180.167 96.5,180.5C 93.4191,182.674 91.4191,185.674 90.5,189.5C 90.5,189.833 90.5,190.167 90.5,190.5C 89.0001,191.625 87.6668,192.959 86.5,194.5C 85.7281,193.306 84.7281,192.306 83.5,191.5C 85.6528,187.1 87.9861,182.766 90.5,178.5C 90.5,178.167 90.5,177.833 90.5,177.5C 92.7379,176.147 94.0713,174.147 94.5,171.5C 95.5026,167.483 97.5026,164.149 100.5,161.5C 102.813,158.889 104.647,155.889 106,152.5C 106.333,153.167 106.667,153.833 107,154.5C 107.29,152.08 107.79,149.746 108.5,147.5C 108.5,147.167 108.5,146.833 108.5,146.5C 109.5,146.5 110.5,146.5 111.5,146.5C 112.858,141.741 114.525,137.074 116.5,132.5C 118.566,128.034 120.9,123.701 123.5,119.5C 125.572,117.65 126.905,115.317 127.5,112.5C 130.53,107.1 133.53,101.766 136.5,96.5C 138.176,95.8166 138.843,94.4832 138.5,92.5C 139.974,91.5637 140.974,90.2303 141.5,88.5C 141.5,88.1667 141.5,87.8333 141.5,87.5C 144.082,84.9607 146.082,81.9607 147.5,78.5C 148.801,75.977 149.801,73.3103 150.5,70.5C 151.167,70.5 151.5,70.1667 151.5,69.5C 152.728,68.6935 153.728,67.6935 154.5,66.5 Z"/></g>
<g><path style="opacity:1" fill="#c1c1c1" d="M 141.5,143.5 C 141.443,144.609 141.11,145.609 140.5,146.5C 138.386,149.939 136.719,153.606 135.5,157.5C 135.498,151.83 137.498,147.163 141.5,143.5 Z"/></g>
<g><path style="opacity:1" fill="#737373" d="M 118.5,151.5 C 118.167,151.5 117.833,151.5 117.5,151.5C 117.5,149.833 117.5,148.167 117.5,146.5C 116.5,146.5 115.5,146.5 114.5,146.5C 114.737,147.791 114.404,148.791 113.5,149.5C 112.833,145.5 114.5,143.833 118.5,144.5C 118.5,146.833 118.5,149.167 118.5,151.5 Z"/></g>
<g><path style="opacity:1" fill="#505050" d="M 128.5,121.5 C 128.369,122.376 128.702,123.043 129.5,123.5C 130.417,122.873 131.417,122.539 132.5,122.5C 131.365,124.213 129.698,124.88 127.5,124.5C 127.263,123.209 127.596,122.209 128.5,121.5 Z"/></g>
<g><path style="opacity:1" fill="#999999" d="M 133.5,114.5 C 131.82,116.726 132.153,118.393 134.5,119.5C 133.833,120.5 133.167,121.5 132.5,122.5C 131.417,122.539 130.417,122.873 129.5,123.5C 128.702,123.043 128.369,122.376 128.5,121.5C 129.955,118.886 131.622,116.552 133.5,114.5 Z"/></g>
<g><path style="opacity:1" fill="#c1c1c1" d="M 117.5,151.5 C 117.833,151.5 118.167,151.5 118.5,151.5C 118.5,152.833 118.5,154.167 118.5,155.5C 118.41,158.152 119.076,160.485 120.5,162.5C 120.5,164.5 120.5,166.5 120.5,168.5C 120.833,171.167 121.167,173.833 121.5,176.5C 120.07,171.673 118.903,166.673 118,161.5C 117.502,158.183 117.335,154.85 117.5,151.5 Z"/></g>
<g><path style="opacity:1" fill="#555555" d="M 112.5,150.5 C 110.497,154.835 108.497,159.168 106.5,163.5C 106.167,163.5 105.833,163.5 105.5,163.5C 106.633,158.406 108.966,154.073 112.5,150.5 Z"/></g>
<g><path style="opacity:1" fill="#707070" d="M 118.5,155.5 C 119.924,157.515 120.59,159.848 120.5,162.5C 119.076,160.485 118.41,158.152 118.5,155.5 Z"/></g>
<g><path style="opacity:1" fill="#5e5e5e" d="M 135.5,157.5 C 135.231,160.015 134.231,162.015 132.5,163.5C 132.769,160.985 133.769,158.985 135.5,157.5 Z"/></g>
<g><path style="opacity:1" fill="#7a7a7a" d="M 190.5,158.5 C 193.257,162.017 194.923,166.017 195.5,170.5C 194.742,167.536 193.242,164.87 191,162.5C 190.51,161.207 190.343,159.873 190.5,158.5 Z"/></g>
<g><path style="opacity:1" fill="#7c7c7c" d="M 205.5,155.5 C 205.833,155.5 206.167,155.5 206.5,155.5C 206.665,158.518 206.498,161.518 206,164.5C 205.722,165.416 205.222,166.082 204.5,166.5C 204.423,162.785 204.756,159.119 205.5,155.5 Z"/></g>
<g><path style="opacity:1" fill="#acacac" d="M 105.5,163.5 C 105.833,163.5 106.167,163.5 106.5,163.5C 106.021,165.889 104.688,167.556 102.5,168.5C 103.11,166.566 104.11,164.899 105.5,163.5 Z"/></g>
<g><path style="opacity:1" fill="#707070" d="M 200.5,155.5 C 200.5,156.833 200.5,158.167 200.5,159.5C 200.001,163.49 199.501,167.49 199,171.5C 197.421,172.8 196.255,172.466 195.5,170.5C 196.5,170.5 197.5,170.5 198.5,170.5C 198.096,165.217 198.762,160.217 200.5,155.5 Z"/></g>
<g><path style="opacity:1" fill="#464646" d="M 225.5,162.5 C 225.833,162.5 226.167,162.5 226.5,162.5C 228.167,165.833 229.833,169.167 231.5,172.5C 228.59,169.842 226.59,166.509 225.5,162.5 Z"/></g>
<g><path style="opacity:1" fill="#3d3d3d" d="M 125.5,166.5 C 126.451,167.919 126.784,169.585 126.5,171.5C 127.959,171.567 129.292,171.234 130.5,170.5C 129.952,173.084 128.285,174.084 125.5,173.5C 125.5,171.167 125.5,168.833 125.5,166.5 Z"/></g>
<g><path style="opacity:1" fill="#b3b3b3" d="M 218.5,161.5 C 221.94,166.503 224.94,171.837 227.5,177.5C 223.023,173.139 220.023,167.806 218.5,161.5 Z"/></g>
<g><path style="opacity:1" fill="#606060" d="M 94.5,171.5 C 94.0713,174.147 92.7379,176.147 90.5,177.5C 91.2977,175.034 92.631,173.034 94.5,171.5 Z"/></g>
<g><path style="opacity:1" fill="#4f4f4f" d="M 204.5,168.5 C 204.5,169.833 204.5,171.167 204.5,172.5C 203.833,173.5 203.167,174.5 202.5,175.5C 202.41,172.848 203.076,170.515 204.5,168.5 Z"/></g>
<g><path style="opacity:1" fill="#acacac" d="M 102.5,169.5 C 102.02,173.8 100.02,177.133 96.5,179.5C 97.5787,175.575 99.5787,172.242 102.5,169.5 Z"/></g>
<g><path style="opacity:1" fill="#5f5f5f" d="M 232.5,174.5 C 235.41,177.158 237.41,180.491 238.5,184.5C 237.542,184.047 236.708,183.381 236,182.5C 234.599,179.933 233.432,177.267 232.5,174.5 Z"/></g>
<g><path style="opacity:1" fill="#919191" d="M 204.5,172.5 C 204.167,175.167 203.833,177.833 203.5,180.5C 203.557,181.609 203.89,182.609 204.5,183.5C 202.631,181.365 201.964,178.698 202.5,175.5C 203.167,174.5 203.833,173.5 204.5,172.5 Z"/></g>
<g><path style="opacity:1" fill="#929292" d="M 120.5,168.5 C 121.991,171.186 122.657,174.186 122.5,177.5C 121.769,184.559 117.769,188.226 110.5,188.5C 113.552,186.133 116.885,184.133 120.5,182.5C 121.466,180.604 121.799,178.604 121.5,176.5C 121.167,173.833 120.833,171.167 120.5,168.5 Z"/></g>
<g><path style="opacity:1" fill="#a6a6a6" d="M 161.5,115.5 C 161.067,118.166 160.567,120.832 160,123.5C 150.921,142.256 141.754,160.922 132.5,179.5C 152.489,180.5 172.489,180.833 192.5,180.5C 188.173,170.525 183.839,160.525 179.5,150.5C 184.541,159.571 189.208,168.904 193.5,178.5C 193.5,179.5 193.5,180.5 193.5,181.5C 172.473,182.155 151.806,181.488 131.5,179.5C 135.617,169.265 140.284,159.265 145.5,149.5C 145.5,149.167 145.5,148.833 145.5,148.5C 148.739,141.553 152.072,134.553 155.5,127.5C 156.992,123.182 158.992,119.182 161.5,115.5 Z"/></g>
<g><path style="opacity:1" fill="#373737" d="M 193.5,178.5 C 195.652,179.077 195.985,180.244 194.5,182C 173.169,182.5 151.836,182.667 130.5,182.5C 130.263,181.209 130.596,180.209 131.5,179.5C 151.806,181.488 172.473,182.155 193.5,181.5C 193.5,180.5 193.5,179.5 193.5,178.5 Z"/></g>
<g><path style="opacity:1" fill="#595959" d="M 181.5,194.5 C 181.328,193.508 181.662,192.842 182.5,192.5C 183.605,191.4 184.938,190.733 186.5,190.5C 187.478,190.189 188.145,189.522 188.5,188.5C 179.833,188.167 171.167,187.833 162.5,187.5C 153.473,187.502 144.807,188.169 136.5,189.5C 135.596,188.791 135.263,187.791 135.5,186.5C 153.5,186.5 171.5,186.5 189.5,186.5C 189.657,187.873 189.49,189.207 189,190.5C 186.377,191.627 183.877,192.961 181.5,194.5 Z"/></g>
<g><path style="opacity:1" fill="#a9a9a9" d="M 186.5,190.5 C 178.862,189.169 170.862,188.502 162.5,188.5C 154.138,188.502 146.138,189.169 138.5,190.5C 137.833,190.167 137.167,189.833 136.5,189.5C 144.807,188.169 153.473,187.502 162.5,187.5C 171.167,187.833 179.833,188.167 188.5,188.5C 188.145,189.522 187.478,190.189 186.5,190.5 Z"/></g>
<g><path style="opacity:1" fill="#7b7b7b" d="M 238.5,184.5 C 240.176,185.183 240.843,186.517 240.5,188.5C 239.655,187.329 238.989,185.995 238.5,184.5 Z"/></g>
<g><path style="opacity:1" fill="#ababab" d="M 96.5,180.5 C 94.6811,183.216 93.6811,186.216 93.5,189.5C 92.5,189.5 91.5,189.5 90.5,189.5C 91.4191,185.674 93.4191,182.674 96.5,180.5 Z"/></g>
<g><path style="opacity:1" fill="#989898" d="M 128.5,190.5 C 126.549,189.359 124.549,189.359 122.5,190.5C 123.134,189.053 124.301,188.387 126,188.5C 127.376,188.684 128.209,189.351 128.5,190.5 Z"/></g>
<g><path style="opacity:1" fill="#dadada" d="M 186.5,190.5 C 184.938,190.733 183.605,191.4 182.5,192.5C 182.5,191.5 182.5,190.5 182.5,189.5C 168.496,189.333 154.496,189.5 140.5,190C 141.756,190.417 142.423,191.25 142.5,192.5C 141.005,192.011 139.671,191.345 138.5,190.5C 146.138,189.169 154.138,188.502 162.5,188.5C 170.862,188.502 178.862,189.169 186.5,190.5 Z"/></g>
<g><path style="opacity:1" fill="#656565" d="M 208.5,192.5 C 205.53,191.788 202.697,190.788 200,189.5C 198.744,189.648 197.577,189.982 196.5,190.5C 197.152,189.275 198.319,188.608 200,188.5C 201.167,188.667 202.333,188.833 203.5,189C 205.431,189.902 207.097,191.069 208.5,192.5 Z"/></g>
<g><path style="opacity:1" fill="#989898" d="M 204.5,183.5 C 209.934,184.903 214.6,187.57 218.5,191.5C 213.5,189.336 208.833,186.669 204.5,183.5 Z"/></g>
<g><path style="opacity:1" fill="#f5f5f5" d="M 182.5,192.5 C 181.662,192.842 181.328,193.508 181.5,194.5C 175.103,199.227 168.436,203.56 161.5,207.5C 160.24,205.633 158.573,204.3 156.5,203.5C 156.027,202.094 155.027,201.427 153.5,201.5C 151.858,200.197 150.191,198.864 148.5,197.5C 147.738,195.738 146.404,194.738 144.5,194.5C 143.5,194.167 142.833,193.5 142.5,192.5C 142.423,191.25 141.756,190.417 140.5,190C 154.496,189.5 168.496,189.333 182.5,189.5C 182.5,190.5 182.5,191.5 182.5,192.5 Z"/></g>
<g><path style="opacity:1" fill="#f9f9f9" d="M 128.5,190.5 C 129.492,190.328 130.158,190.662 130.5,191.5C 130.973,192.906 131.973,193.573 133.5,193.5C 134.167,193.833 134.833,194.167 135.5,194.5C 136.911,196.914 138.911,198.581 141.5,199.5C 141.842,200.338 142.508,200.672 143.5,200.5C 144.167,201.5 144.833,202.5 145.5,203.5C 146.348,205.093 147.681,206.26 149.5,207C 130.329,207.829 111.329,207.662 92.5,206.5C 93.5,206.167 94.1667,205.5 94.5,204.5C 96.3797,204.771 97.713,204.104 98.5,202.5C 99.1667,202.5 99.8333,202.5 100.5,202.5C 104.573,202.092 107.573,200.092 109.5,196.5C 109.833,196.5 110.167,196.5 110.5,196.5C 113.947,195.748 117.28,194.748 120.5,193.5C 120.5,192.5 120.5,191.5 120.5,190.5C 121.167,190.5 121.833,190.5 122.5,190.5C 124.549,189.359 126.549,189.359 128.5,190.5 Z"/></g>
<g><path style="opacity:1" fill="#fafafa" d="M 208.5,192.5 C 208.973,193.906 209.973,194.573 211.5,194.5C 215.073,198.122 219.406,200.455 224.5,201.5C 224.842,202.338 225.508,202.672 226.5,202.5C 227.507,204.522 229.174,205.855 231.5,206.5C 212.671,207.828 194.004,207.828 175.5,206.5C 177.889,206.021 179.556,204.688 180.5,202.5C 182.749,201.92 184.415,200.587 185.5,198.5C 187.389,197.396 189.055,196.063 190.5,194.5C 193.198,194.155 195.198,192.822 196.5,190.5C 197.577,189.982 198.744,189.648 200,189.5C 202.697,190.788 205.53,191.788 208.5,192.5 Z"/></g>
<g><path style="opacity:1" fill="#6e6e6e" d="M 130.5,191.5 C 132.027,191.427 133.027,192.094 133.5,193.5C 131.973,193.573 130.973,192.906 130.5,191.5 Z"/></g>
<g><path style="opacity:1" fill="#505050" d="M 241.5,189.5 C 243.723,192.144 245.389,195.144 246.5,198.5C 243.728,196.168 242.061,193.168 241.5,189.5 Z"/></g>
<g><path style="opacity:1" fill="#868686" d="M 90.5,178.5 C 87.9861,182.766 85.6528,187.1 83.5,191.5C 82.2993,193.909 80.6326,195.909 78.5,197.5C 81.2676,190.278 85.2676,183.944 90.5,178.5 Z"/></g>
<g><path style="opacity:1" fill="#bcbcbc" d="M 102.5,192.5 C 100.833,193.833 99.1667,195.167 97.5,196.5C 96.0697,197.537 94.403,198.204 92.5,198.5C 95.0916,195.391 98.4249,193.391 102.5,192.5 Z"/></g>
<g><path style="opacity:1" fill="#505050" d="M 106.5,191.5 C 104.299,194.319 101.299,195.985 97.5,196.5C 99.1667,195.167 100.833,193.833 102.5,192.5C 103.959,192.567 105.292,192.234 106.5,191.5 Z"/></g>
<g><path style="opacity:1" fill="#8b8b8b" d="M 196.5,190.5 C 195.198,192.822 193.198,194.155 190.5,194.5C 192.147,192.674 194.147,191.34 196.5,190.5 Z"/></g>
<g><path style="opacity:1" fill="#696969" d="M 208.5,192.5 C 210.027,192.427 211.027,193.094 211.5,194.5C 209.973,194.573 208.973,193.906 208.5,192.5 Z"/></g>
<g><path style="opacity:1" fill="#a8a8a8" d="M 120.5,190.5 C 120.5,191.5 120.5,192.5 120.5,193.5C 117.28,194.748 113.947,195.748 110.5,196.5C 113.158,193.59 116.491,191.59 120.5,190.5 Z"/></g>
<g><path style="opacity:1" fill="#808080" d="M 144.5,194.5 C 146.404,194.738 147.738,195.738 148.5,197.5C 146.596,197.262 145.262,196.262 144.5,194.5 Z"/></g>
<g><path style="opacity:1" fill="#b2b2b2" d="M 232.5,186.5 C 236.585,191.662 239.919,197.329 242.5,203.5C 241.5,203.5 240.5,203.5 239.5,203.5C 238.833,202.833 238.167,202.167 237.5,201.5C 237.5,201.167 237.5,200.833 237.5,200.5C 238.376,200.631 239.043,200.298 239.5,199.5C 235.849,195.864 233.516,191.53 232.5,186.5 Z"/></g>
<g><path style="opacity:1" fill="#595959" d="M 135.5,194.5 C 138.089,195.419 140.089,197.086 141.5,199.5C 138.911,198.581 136.911,196.914 135.5,194.5 Z"/></g>
<g><path style="opacity:1" fill="#9e9e9e" d="M 211.5,194.5 C 216.037,196.6 220.371,198.933 224.5,201.5C 219.406,200.455 215.073,198.122 211.5,194.5 Z"/></g>
<g><path style="opacity:1" fill="#8c8c8c" d="M 218.5,191.5 C 225.057,194.064 231.39,197.064 237.5,200.5C 237.5,200.833 237.5,201.167 237.5,201.5C 230.693,198.91 224.36,195.577 218.5,191.5 Z"/></g>
<g><path style="opacity:1" fill="#525252" d="M 190.5,194.5 C 189.055,196.063 187.389,197.396 185.5,198.5C 185.167,198.5 184.833,198.5 184.5,198.5C 185.802,196.178 187.802,194.845 190.5,194.5 Z"/></g>
<g><path style="opacity:1" fill="#aeaeae" d="M 90.5,190.5 C 88.9827,193.342 87.9827,196.342 87.5,199.5C 89.2161,199.371 90.8828,199.038 92.5,198.5C 90.6822,200.58 88.3489,201.914 85.5,202.5C 84.2867,202.253 83.62,201.586 83.5,200.5C 84.4918,198.544 85.4918,196.544 86.5,194.5C 87.6668,192.959 89.0001,191.625 90.5,190.5 Z"/></g>
<g><path style="opacity:1" fill="#b0b0b0" d="M 109.5,196.5 C 107.573,200.092 104.573,202.092 100.5,202.5C 100.833,201.833 101.167,201.167 101.5,200.5C 104.074,198.976 106.741,197.642 109.5,196.5 Z"/></g>
<g><path style="opacity:1" fill="#787878" d="M 246.5,198.5 C 247.906,198.973 248.573,199.973 248.5,201.5C 247.094,201.027 246.427,200.027 246.5,198.5 Z"/></g>
<g><path style="opacity:1" fill="#6b6b6b" d="M 101.5,200.5 C 101.167,201.167 100.833,201.833 100.5,202.5C 99.8333,202.5 99.1667,202.5 98.5,202.5C 98.9731,201.094 99.9731,200.427 101.5,200.5 Z"/></g>
<g><path style="opacity:1" fill="#9b9b9b" d="M 184.5,198.5 C 184.833,198.5 185.167,198.5 185.5,198.5C 184.415,200.587 182.749,201.92 180.5,202.5C 181.5,200.833 182.833,199.5 184.5,198.5 Z"/></g>
<g><path style="opacity:1" fill="#515151" d="M 143.5,200.5 C 145.749,201.08 147.415,202.413 148.5,204.5C 147.391,204.443 146.391,204.11 145.5,203.5C 144.833,202.5 144.167,201.5 143.5,200.5 Z"/></g>
<g><path style="opacity:1" fill="#787878" d="M 153.5,201.5 C 155.027,201.427 156.027,202.094 156.5,203.5C 154.973,203.573 153.973,202.906 153.5,201.5 Z"/></g>
<g><path style="opacity:1" fill="#717171" d="M 98.5,202.5 C 97.713,204.104 96.3797,204.771 94.5,204.5C 95.5137,203.326 96.847,202.66 98.5,202.5 Z"/></g>
<g><path style="opacity:1" fill="#b2b2b2" d="M 180.5,202.5 C 179.556,204.688 177.889,206.021 175.5,206.5C 176.539,204.469 178.205,203.136 180.5,202.5 Z"/></g>
<g><path style="opacity:1" fill="#9c9c9c" d="M 75.5,202.5 C 75.3862,204.718 74.7196,206.718 73.5,208.5C 73.1667,208.5 72.8333,208.5 72.5,208.5C 73.0292,206.216 74.0292,204.216 75.5,202.5 Z"/></g>
<g><path style="opacity:1" fill="#545454" d="M 156.5,203.5 C 158.573,204.3 160.24,205.633 161.5,207.5C 159.019,207.226 157.353,205.893 156.5,203.5 Z"/></g>
<g><path style="opacity:1" fill="#d3d3d3" d="M 145.5,203.5 C 146.391,204.11 147.391,204.443 148.5,204.5C 149.5,205.167 150.5,205.833 151.5,206.5C 141.856,207.832 131.856,208.499 121.5,208.5C 111.5,208.167 101.5,207.833 91.5,207.5C 91.6236,206.893 91.9569,206.56 92.5,206.5C 111.329,207.662 130.329,207.829 149.5,207C 147.681,206.26 146.348,205.093 145.5,203.5 Z"/></g>
<g><path style="opacity:1" fill="#d0d0d0" d="M 226.5,202.5 C 229.668,203.587 232.668,204.92 235.5,206.5C 225.522,207.832 215.189,208.499 204.5,208.5C 193.811,208.499 183.478,207.832 173.5,206.5C 174.167,206.5 174.833,206.5 175.5,206.5C 194.004,207.828 212.671,207.828 231.5,206.5C 229.174,205.855 227.507,204.522 226.5,202.5 Z"/></g>
<g><path style="opacity:1" fill="#676767" d="M 94.5,204.5 C 94.1667,205.5 93.5,206.167 92.5,206.5C 91.9569,206.56 91.6236,206.893 91.5,207.5C 101.5,207.833 111.5,208.167 121.5,208.5C 131.856,208.499 141.856,207.832 151.5,206.5C 152.404,207.209 152.737,208.209 152.5,209.5C 131.167,209.5 109.833,209.5 88.5,209.5C 88.5,208.5 88.5,207.5 88.5,206.5C 89.4916,206.672 90.1583,206.338 90.5,205.5C 91.8333,205.167 93.1667,204.833 94.5,204.5 Z"/></g>
<g><path style="opacity:1" fill="#616161" d="M 173.5,206.5 C 183.478,207.832 193.811,208.499 204.5,208.5C 215.189,208.499 225.522,207.832 235.5,206.5C 235.833,206.5 236.167,206.5 236.5,206.5C 236.5,207.5 236.5,208.5 236.5,209.5C 215.167,209.5 193.833,209.5 172.5,209.5C 172.263,208.209 172.596,207.209 173.5,206.5 Z"/></g>
<g><path style="opacity:1" fill="#303030" d="M 72.5,208.5 C 72.8333,208.5 73.1667,208.5 73.5,208.5C 72.962,210.117 72.6287,211.784 72.5,213.5C 132.5,213.5 192.5,213.5 252.5,213.5C 192.669,214.499 132.669,214.832 72.5,214.5C 71.2584,212.611 71.2584,210.611 72.5,208.5 Z"/></g>
<g><path style="opacity:1" fill="#9a9a9a" d="M 251.5,207.5 C 254.5,209.322 255.167,211.822 253.5,215C 192.999,215.832 132.665,215.665 72.5,214.5C 132.669,214.832 192.669,214.499 252.5,213.5C 253.097,213.265 253.43,212.765 253.5,212C 252.586,210.594 251.92,209.094 251.5,207.5 Z"/></g>
<g><path style="opacity:1" fill="#8c8c8c" d="M 216.5,228.5 C 212.486,228.334 208.486,228.501 204.5,229C 203.944,229.383 203.611,229.883 203.5,230.5C 203.167,230.5 202.833,230.5 202.5,230.5C 202.574,228.589 203.574,227.422 205.5,227C 207.333,226.833 209.167,226.667 211,226.5C 213.295,226.547 215.129,227.213 216.5,228.5 Z"/></g>
<g><path style="opacity:1" fill="#979797" d="M 121.5,228.5 C 117.154,228.334 112.821,228.501 108.5,229C 107.944,229.383 107.611,229.883 107.5,230.5C 106.883,230.611 106.383,230.944 106,231.5C 105.501,235.152 105.335,238.818 105.5,242.5C 105.167,242.5 104.833,242.5 104.5,242.5C 102.159,229.34 107.493,224.173 120.5,227C 121.056,227.383 121.389,227.883 121.5,228.5 Z"/></g>
<g><path style="opacity:1" fill="#0c0c0c" d="M 121.5,228.5 C 122.5,228.833 123.167,229.5 123.5,230.5C 123.5,232.167 123.5,233.833 123.5,235.5C 121.833,235.5 120.167,235.5 118.5,235.5C 118.5,235.167 118.5,234.833 118.5,234.5C 116.167,233.167 113.833,233.167 111.5,234.5C 110.18,237.428 109.514,240.761 109.5,244.5C 109.514,248.239 110.18,251.572 111.5,254.5C 113.607,255.468 115.941,255.802 118.5,255.5C 118.5,252.833 118.5,250.167 118.5,247.5C 117.167,247.5 115.833,247.5 114.5,247.5C 114.5,245.833 114.5,244.167 114.5,242.5C 117.5,242.5 120.5,242.5 123.5,242.5C 123.972,248.717 123.305,254.717 121.5,260.5C 116.915,261.013 112.582,260.346 108.5,258.5C 107.502,249.19 107.168,239.857 107.5,230.5C 107.611,229.883 107.944,229.383 108.5,229C 112.821,228.501 117.154,228.334 121.5,228.5 Z"/></g>
<g><path style="opacity:1" fill="#080808" d="M 171.5,228.5 C 171.833,228.5 172.167,228.5 172.5,228.5C 173.338,228.842 173.672,229.508 173.5,230.5C 174.06,232.801 174.56,235.134 175,237.5C 175.383,238.056 175.883,238.389 176.5,238.5C 177.5,238.5 178.5,238.5 179.5,238.5C 180.647,235.59 181.647,232.59 182.5,229.5C 182.5,229.167 182.5,228.833 182.5,228.5C 182.833,228.5 183.167,228.5 183.5,228.5C 185.167,228.5 186.833,228.5 188.5,228.5C 188.5,239.167 188.5,249.833 188.5,260.5C 187.167,260.5 185.833,260.5 184.5,260.5C 184.375,254.797 184.708,249.13 185.5,243.5C 183.219,243.077 181.552,243.744 180.5,245.5C 180.392,247.783 179.559,249.783 178,251.5C 177.292,250.619 176.458,249.953 175.5,249.5C 175.5,248.833 175.5,248.167 175.5,247.5C 175.5,246.833 175.5,246.167 175.5,245.5C 174.448,243.744 172.781,243.077 170.5,243.5C 170.829,249.206 170.495,254.872 169.5,260.5C 168.167,250.167 168.167,239.833 169.5,229.5C 170.944,230.981 171.611,230.648 171.5,228.5 Z"/></g>
<g><path style="opacity:1" fill="#0d0d0d" d="M 216.5,228.5 C 217.167,228.5 217.833,228.5 218.5,228.5C 218.833,229.167 219.167,229.833 219.5,230.5C 219.5,232.167 219.5,233.833 219.5,235.5C 217.833,235.5 216.167,235.5 214.5,235.5C 213.848,234.275 212.681,233.608 211,233.5C 209.615,233.514 208.449,233.848 207.5,234.5C 206.186,236.895 206.186,239.395 207.5,242C 211.721,242.143 215.721,242.977 219.5,244.5C 219.666,249.179 219.499,253.845 219,258.5C 218.5,259 218,259.5 217.5,260C 213.514,260.499 209.514,260.666 205.5,260.5C 204.833,260.167 204.167,259.833 203.5,259.5C 203.167,259.5 202.833,259.5 202.5,259.5C 202.5,258.833 202.5,258.167 202.5,257.5C 202.384,254.09 204.05,252.756 207.5,253.5C 207.5,254.5 207.5,255.5 207.5,256.5C 210.059,256.802 212.393,256.468 214.5,255.5C 214.5,252.833 214.5,250.167 214.5,247.5C 210.498,247.964 206.831,247.298 203.5,245.5C 203.5,240.5 203.5,235.5 203.5,230.5C 203.611,229.883 203.944,229.383 204.5,229C 208.486,228.501 212.486,228.334 216.5,228.5 Z"/></g>
<g><path style="opacity:1" fill="#0b0b0b" d="M 138.5,228.5 C 143.5,228.5 148.5,228.5 153.5,228.5C 153.5,230.167 153.5,231.833 153.5,233.5C 149.833,233.5 146.167,233.5 142.5,233.5C 142.194,236.385 142.527,239.052 143.5,241.5C 145.948,242.473 148.615,242.806 151.5,242.5C 151.5,244.167 151.5,245.833 151.5,247.5C 148.833,247.5 146.167,247.5 143.5,247.5C 140.502,255.84 143.502,258.84 152.5,256.5C 152.5,257.833 152.5,259.167 152.5,260.5C 147.833,260.5 143.167,260.5 138.5,260.5C 138.5,249.833 138.5,239.167 138.5,228.5 Z"/></g>
<g><path style="opacity:1" fill="#252525" d="M 171.5,228.5 C 171.611,230.648 170.944,230.981 169.5,229.5C 168.167,239.833 168.167,250.167 169.5,260.5C 170.495,254.872 170.829,249.206 170.5,243.5C 172.781,243.077 174.448,243.744 175.5,245.5C 174.292,244.766 172.959,244.433 171.5,244.5C 171.5,250.167 171.5,255.833 171.5,261.5C 170.167,261.5 168.833,261.5 167.5,261.5C 166.879,256.398 166.213,251.398 165.5,246.5C 165.5,245.167 165.5,243.833 165.5,242.5C 166.486,238.03 166.819,233.363 166.5,228.5C 168.167,228.5 169.833,228.5 171.5,228.5 Z"/></g>
<g><path style="opacity:1" fill="#9e9e9e" d="M 153.5,228.5 C 148.5,228.5 143.5,228.5 138.5,228.5C 137.649,234.34 136.982,240.34 136.5,246.5C 136.167,246.5 135.833,246.5 135.5,246.5C 135.5,240.167 135.5,233.833 135.5,227.5C 141.69,227.177 147.69,227.51 153.5,228.5 Z"/></g>
<g><path style="opacity:1" fill="#d0d0d0" d="M 165.5,227.5 C 165.5,232.5 165.5,237.5 165.5,242.5C 165.5,243.833 165.5,245.167 165.5,246.5C 165.5,251.5 165.5,256.5 165.5,261.5C 164.833,261.5 164.167,261.5 163.5,261.5C 163.5,259.5 163.5,257.5 163.5,255.5C 164.167,246.167 164.833,236.833 165.5,227.5 Z"/></g>
<g><path style="opacity:1" fill="#797979" d="M 165.5,227.5 C 168.059,227.198 170.393,227.532 172.5,228.5C 172.167,228.5 171.833,228.5 171.5,228.5C 169.833,228.5 168.167,228.5 166.5,228.5C 166.819,233.363 166.486,238.03 165.5,242.5C 165.5,237.5 165.5,232.5 165.5,227.5 Z"/></g>
<g><path style="opacity:1" fill="#a4a4a4" d="M 190.5,242.5 C 189.833,237.833 189.167,233.167 188.5,228.5C 186.833,228.5 185.167,228.5 183.5,228.5C 185.193,226.234 187.36,225.9 190,227.5C 190.499,232.489 190.666,237.489 190.5,242.5 Z"/></g>
<g><path style="opacity:1" fill="#878787" d="M 182.5,229.5 C 181.647,232.59 180.647,235.59 179.5,238.5C 178.5,238.5 177.5,238.5 176.5,238.5C 176.167,237.167 175.833,235.833 175.5,234.5C 176.79,235.058 177.623,236.058 178,237.5C 179.21,234.497 180.71,231.83 182.5,229.5 Z"/></g>
<g><path style="opacity:1" fill="#383838" d="M 201.5,230.5 C 201.833,230.5 202.167,230.5 202.5,230.5C 202.833,230.5 203.167,230.5 203.5,230.5C 203.5,235.5 203.5,240.5 203.5,245.5C 203.167,245.5 202.833,245.5 202.5,245.5C 201.608,240.562 201.274,235.562 201.5,230.5 Z"/></g>
<g><path style="opacity:1" fill="#5b5b5b" d="M 123.5,230.5 C 123.833,230.5 124.167,230.5 124.5,230.5C 124.5,232.5 124.5,234.5 124.5,236.5C 122.5,236.5 120.5,236.5 118.5,236.5C 118.5,236.167 118.5,235.833 118.5,235.5C 120.167,235.5 121.833,235.5 123.5,235.5C 123.5,233.833 123.5,232.167 123.5,230.5 Z"/></g>
<g><path style="opacity:1" fill="#7b7b7b" d="M 214.5,235.5 C 212.621,234.659 210.621,234.325 208.5,234.5C 208.5,236.5 208.5,238.5 208.5,240.5C 207.539,238.735 207.205,236.735 207.5,234.5C 208.449,233.848 209.615,233.514 211,233.5C 212.681,233.608 213.848,234.275 214.5,235.5 Z"/></g>
<g><path style="opacity:1" fill="#5b5b5b" d="M 219.5,230.5 C 220.461,232.265 220.795,234.265 220.5,236.5C 218.5,236.5 216.5,236.5 214.5,236.5C 214.5,236.167 214.5,235.833 214.5,235.5C 216.167,235.5 217.833,235.5 219.5,235.5C 219.5,233.833 219.5,232.167 219.5,230.5 Z"/></g>
<g><path style="opacity:1" fill="#8b8b8b" d="M 118.5,234.5 C 116.5,234.5 114.5,234.5 112.5,234.5C 112.5,241.167 112.5,247.833 112.5,254.5C 114.167,254.5 115.833,254.5 117.5,254.5C 117.5,252.5 117.5,250.5 117.5,248.5C 116.209,248.737 115.209,248.404 114.5,247.5C 115.833,247.5 117.167,247.5 118.5,247.5C 118.5,250.167 118.5,252.833 118.5,255.5C 115.941,255.802 113.607,255.468 111.5,254.5C 111.5,247.833 111.5,241.167 111.5,234.5C 113.833,233.167 116.167,233.167 118.5,234.5 Z"/></g>
<g><path style="opacity:1" fill="#464646" d="M 173.5,230.5 C 175.104,231.287 175.771,232.62 175.5,234.5C 175.833,235.833 176.167,237.167 176.5,238.5C 175.883,238.389 175.383,238.056 175,237.5C 174.56,235.134 174.06,232.801 173.5,230.5 Z"/></g>
<g><path style="opacity:1" fill="#dbdbdb" d="M 218.5,228.5 C 220.411,228.574 221.578,229.574 222,231.5C 223.308,235.807 221.808,238.14 217.5,238.5C 215.97,238.36 214.97,237.693 214.5,236.5C 216.5,236.5 218.5,236.5 220.5,236.5C 220.795,234.265 220.461,232.265 219.5,230.5C 219.167,229.833 218.833,229.167 218.5,228.5 Z"/></g>
<g><path style="opacity:1" fill="#dddddd" d="M 124.5,230.5 C 127.183,232.041 128.016,234.374 127,237.5C 125.6,238.116 124.1,238.449 122.5,238.5C 120.667,238.415 119.334,237.748 118.5,236.5C 120.5,236.5 122.5,236.5 124.5,236.5C 124.5,234.5 124.5,232.5 124.5,230.5 Z"/></g>
<g><path style="opacity:1" fill="#646464" d="M 153.5,233.5 C 150.713,234.477 147.713,234.81 144.5,234.5C 143.532,236.607 143.198,238.941 143.5,241.5C 142.527,239.052 142.194,236.385 142.5,233.5C 146.167,233.5 149.833,233.5 153.5,233.5 Z"/></g>
<g><path style="opacity:1" fill="#a0a0a0" d="M 201.5,230.5 C 201.274,235.562 201.608,240.562 202.5,245.5C 201.883,245.389 201.383,245.056 201,244.5C 200.185,239.648 200.352,234.981 201.5,230.5 Z"/></g>
<g><path style="opacity:1" fill="#6a6a6a" d="M 143.5,241.5 C 146.5,241.5 149.5,241.5 152.5,241.5C 152.795,243.735 152.461,245.735 151.5,247.5C 151.5,245.833 151.5,244.167 151.5,242.5C 148.615,242.806 145.948,242.473 143.5,241.5 Z"/></g>
<g><path style="opacity:1" fill="#585858" d="M 207.5,234.5 C 207.205,236.735 207.539,238.735 208.5,240.5C 211.833,241.167 215.167,241.833 218.5,242.5C 218.833,243.167 219.167,243.833 219.5,244.5C 215.721,242.977 211.721,242.143 207.5,242C 206.186,239.395 206.186,236.895 207.5,234.5 Z"/></g>
<g><path style="opacity:1" fill="#2d2d2d" d="M 107.5,230.5 C 107.168,239.857 107.502,249.19 108.5,258.5C 112.582,260.346 116.915,261.013 121.5,260.5C 117.366,261.485 113.032,261.818 108.5,261.5C 108.5,260.167 107.833,259.5 106.5,259.5C 106.687,253.788 106.354,248.121 105.5,242.5C 105.335,238.818 105.501,235.152 106,231.5C 106.383,230.944 106.883,230.611 107.5,230.5 Z"/></g>
<g><path style="opacity:1" fill="#d4d4d4" d="M 118.5,234.5 C 118.5,234.833 118.5,235.167 118.5,235.5C 118.5,235.833 118.5,236.167 118.5,236.5C 116.958,235.699 115.292,235.366 113.5,235.5C 113.34,237.199 113.506,238.866 114,240.5C 115.738,239.873 117.571,239.54 119.5,239.5C 122.011,239.288 124.178,239.955 126,241.5C 126.174,246.684 126.674,251.684 127.5,256.5C 127.5,258.167 127.5,259.833 127.5,261.5C 121.221,262.463 114.888,262.463 108.5,261.5C 113.032,261.818 117.366,261.485 121.5,260.5C 122.15,260.196 122.817,259.863 123.5,259.5C 124.538,253.839 125.038,248.172 125,242.5C 121.399,241.18 117.899,241.18 114.5,242.5C 114.5,244.167 114.5,245.833 114.5,247.5C 115.209,248.404 116.209,248.737 117.5,248.5C 117.5,250.5 117.5,252.5 117.5,254.5C 115.833,254.5 114.167,254.5 112.5,254.5C 112.5,247.833 112.5,241.167 112.5,234.5C 114.5,234.5 116.5,234.5 118.5,234.5 Z"/></g>
<g><path style="opacity:1" fill="#4d4d4d" d="M 114.5,242.5 C 117.899,241.18 121.399,241.18 125,242.5C 125.038,248.172 124.538,253.839 123.5,259.5C 122.817,259.863 122.15,260.196 121.5,260.5C 123.305,254.717 123.972,248.717 123.5,242.5C 120.5,242.5 117.5,242.5 114.5,242.5 Z"/></g>
<g><path style="opacity:1" fill="#4c4c4c" d="M 219.5,244.5 C 220.802,249.734 220.802,255.067 219.5,260.5C 218.609,261.11 217.609,261.443 216.5,261.5C 212.629,261.815 208.962,261.482 205.5,260.5C 209.514,260.666 213.514,260.499 217.5,260C 218,259.5 218.5,259 219,258.5C 219.499,253.845 219.666,249.179 219.5,244.5 Z"/></g>
<g><path style="opacity:1" fill="#dbdbdb" d="M 218.5,242.5 C 220.017,242.511 221.184,243.177 222,244.5C 222.667,249.167 222.667,253.833 222,258.5C 221.583,259.756 220.75,260.423 219.5,260.5C 220.802,255.067 220.802,249.734 219.5,244.5C 219.167,243.833 218.833,243.167 218.5,242.5 Z"/></g>
<g><path style="opacity:1" fill="#2a2a2a" d="M 111.5,234.5 C 111.5,241.167 111.5,247.833 111.5,254.5C 110.18,251.572 109.514,248.239 109.5,244.5C 109.514,240.761 110.18,237.428 111.5,234.5 Z"/></g>
<g><path style="opacity:1" fill="#5b5b5b" d="M 188.5,228.5 C 189.167,233.167 189.833,237.833 190.5,242.5C 190.006,248.992 189.339,255.325 188.5,261.5C 188.5,261.167 188.5,260.833 188.5,260.5C 188.5,249.833 188.5,239.167 188.5,228.5 Z"/></g>
<g><path style="opacity:1" fill="#737373" d="M 104.5,242.5 C 104.833,242.5 105.167,242.5 105.5,242.5C 106.354,248.121 106.687,253.788 106.5,259.5C 105.778,259.082 105.278,258.416 105,257.5C 104.501,252.511 104.334,247.511 104.5,242.5 Z"/></g>
<g><path style="opacity:1" fill="#939393" d="M 180.5,245.5 C 181.5,245.5 182.5,245.5 183.5,245.5C 183.5,250.833 183.5,256.167 183.5,261.5C 182.674,256.684 182.174,251.684 182,246.5C 181.099,249.071 179.766,251.404 178,253.5C 176.519,252.529 175.685,251.196 175.5,249.5C 176.458,249.953 177.292,250.619 178,251.5C 179.559,249.783 180.392,247.783 180.5,245.5 Z"/></g>
<g><path style="opacity:1" fill="#7a7a7a" d="M 165.5,246.5 C 166.213,251.398 166.879,256.398 167.5,261.5C 166.833,261.5 166.167,261.5 165.5,261.5C 165.5,256.5 165.5,251.5 165.5,246.5 Z"/></g>
<g><path style="opacity:1" fill="#b1b1b1" d="M 174.5,247.5 C 173.513,252.305 173.179,257.305 173.5,262.5C 170.615,262.806 167.948,262.473 165.5,261.5C 166.167,261.5 166.833,261.5 167.5,261.5C 168.833,261.5 170.167,261.5 171.5,261.5C 172.166,256.651 172.833,251.651 173.5,246.5C 174.107,246.624 174.44,246.957 174.5,247.5 Z"/></g>
<g><path style="opacity:1" fill="#323232" d="M 188.5,260.5 C 188.5,260.833 188.5,261.167 188.5,261.5C 186.833,261.5 185.167,261.5 183.5,261.5C 183.5,256.167 183.5,250.833 183.5,245.5C 182.5,245.5 181.5,245.5 180.5,245.5C 181.552,243.744 183.219,243.077 185.5,243.5C 184.708,249.13 184.375,254.797 184.5,260.5C 185.833,260.5 187.167,260.5 188.5,260.5 Z"/></g>
<g><path style="opacity:1" fill="#6c6c6c" d="M 175.5,245.5 C 175.5,246.167 175.5,246.833 175.5,247.5C 175.167,247.5 174.833,247.5 174.5,247.5C 174.44,246.957 174.107,246.624 173.5,246.5C 172.833,251.651 172.166,256.651 171.5,261.5C 171.5,255.833 171.5,250.167 171.5,244.5C 172.959,244.433 174.292,244.766 175.5,245.5 Z"/></g>
<g><path style="opacity:1" fill="#d4d4d4" d="M 208.5,252.5 C 206.473,252.338 204.473,252.505 202.5,253C 201.199,254.616 201.199,256.116 202.5,257.5C 202.5,258.167 202.5,258.833 202.5,259.5C 201.167,260.167 199.833,260.833 198.5,261.5C 193.5,262.833 188.5,262.833 183.5,261.5C 185.167,261.5 186.833,261.5 188.5,261.5C 189.339,255.325 190.006,248.992 190.5,242.5C 190.666,237.489 190.499,232.489 190,227.5C 187.36,225.9 185.193,226.234 183.5,228.5C 183.167,228.5 182.833,228.5 182.5,228.5C 182.5,227.5 182.5,226.5 182.5,225.5C 185.448,225.223 188.281,225.556 191,226.5C 191.5,235.494 191.666,244.494 191.5,253.5C 194.119,253.232 196.619,253.565 199,254.5C 199.297,251.136 201.131,249.803 204.5,250.5C 206.333,250.585 207.666,251.252 208.5,252.5 Z"/></g>
<g><path style="opacity:1" fill="#a1a1a1" d="M 202.5,245.5 C 202.833,245.5 203.167,245.5 203.5,245.5C 206.831,247.298 210.498,247.964 214.5,247.5C 214.5,250.167 214.5,252.833 214.5,255.5C 212.265,255.795 210.265,255.461 208.5,254.5C 210.167,254.5 211.833,254.5 213.5,254.5C 213.5,252.5 213.5,250.5 213.5,248.5C 210.102,248.82 206.768,248.487 203.5,247.5C 203.137,246.817 202.804,246.15 202.5,245.5 Z"/></g>
<g><path style="opacity:1" fill="#4a4a4a" d="M 208.5,252.5 C 208.5,253.167 208.5,253.833 208.5,254.5C 210.265,255.461 212.265,255.795 214.5,255.5C 212.393,256.468 210.059,256.802 207.5,256.5C 207.5,255.5 207.5,254.5 207.5,253.5C 204.05,252.756 202.384,254.09 202.5,257.5C 201.199,256.116 201.199,254.616 202.5,253C 204.473,252.505 206.473,252.338 208.5,252.5 Z"/></g>
<g><path style="opacity:1" fill="#d3d3d3" d="M 135.5,246.5 C 135.833,246.5 136.167,246.5 136.5,246.5C 136.5,251.5 136.5,256.5 136.5,261.5C 135.833,261.5 135.167,261.5 134.5,261.5C 134.5,259.5 134.5,257.5 134.5,255.5C 132.5,255.5 130.5,255.5 128.5,255.5C 130.607,254.532 132.941,254.198 135.5,254.5C 135.5,251.833 135.5,249.167 135.5,246.5 Z"/></g>
<g><path style="opacity:1" fill="#c5c5c5" d="M 144.5,234.5 C 144.5,236.5 144.5,238.5 144.5,240.5C 147.518,240.335 150.518,240.502 153.5,241C 154.833,243.333 154.833,245.667 153.5,248C 150.518,248.498 147.518,248.665 144.5,248.5C 144.5,250.167 144.5,251.833 144.5,253.5C 149.586,253.963 154.586,253.963 159.5,253.5C 161.333,253.585 162.666,254.252 163.5,255.5C 161.5,255.5 159.5,255.5 157.5,255.5C 157.5,257.5 157.5,259.5 157.5,261.5C 159.167,261.5 160.833,261.5 162.5,261.5C 153.833,262.833 145.167,262.833 136.5,261.5C 136.5,256.5 136.5,251.5 136.5,246.5C 137.487,251.305 137.821,256.305 137.5,261.5C 142.833,261.5 148.167,261.5 153.5,261.5C 153.5,259.5 153.5,257.5 153.5,255.5C 150.482,255.665 147.482,255.498 144.5,255C 143.565,252.619 143.232,250.119 143.5,247.5C 146.167,247.5 148.833,247.5 151.5,247.5C 152.461,245.735 152.795,243.735 152.5,241.5C 149.5,241.5 146.5,241.5 143.5,241.5C 143.198,238.941 143.532,236.607 144.5,234.5 Z"/></g>
<g><path style="opacity:1" fill="#6a6a6a" d="M 198.5,256.5 C 196.833,256.5 195.167,256.5 193.5,256.5C 193.5,258.167 193.5,259.833 193.5,261.5C 192.539,259.735 192.205,257.735 192.5,255.5C 194.735,255.205 196.735,255.539 198.5,256.5 Z"/></g>
<g><path style="opacity:1" fill="#131313" d="M 198.5,256.5 C 198.5,258.167 198.5,259.833 198.5,261.5C 196.833,261.5 195.167,261.5 193.5,261.5C 193.5,259.833 193.5,258.167 193.5,256.5C 195.167,256.5 196.833,256.5 198.5,256.5 Z"/></g>
<g><path style="opacity:1" fill="#777777" d="M 128.5,255.5 C 130.5,255.5 132.5,255.5 134.5,255.5C 134.5,257.5 134.5,259.5 134.5,261.5C 134.167,261.5 133.833,261.5 133.5,261.5C 133.5,259.833 133.5,258.167 133.5,256.5C 131.833,256.5 130.167,256.5 128.5,256.5C 128.5,258.167 128.5,259.833 128.5,261.5C 128.167,261.5 127.833,261.5 127.5,261.5C 127.5,259.833 127.5,258.167 127.5,256.5C 127.5,255.833 127.833,255.5 128.5,255.5 Z"/></g>
<g><path style="opacity:1" fill="#111111" d="M 133.5,261.5 C 131.833,261.5 130.167,261.5 128.5,261.5C 128.5,259.833 128.5,258.167 128.5,256.5C 130.167,256.5 131.833,256.5 133.5,256.5C 133.5,258.167 133.5,259.833 133.5,261.5 Z"/></g>
<g><path style="opacity:1" fill="#3c3c3c" d="M 138.5,228.5 C 138.5,239.167 138.5,249.833 138.5,260.5C 143.167,260.5 147.833,260.5 152.5,260.5C 152.5,259.167 152.5,257.833 152.5,256.5C 143.502,258.84 140.502,255.84 143.5,247.5C 143.232,250.119 143.565,252.619 144.5,255C 147.482,255.498 150.482,255.665 153.5,255.5C 153.5,257.5 153.5,259.5 153.5,261.5C 148.167,261.5 142.833,261.5 137.5,261.5C 137.821,256.305 137.487,251.305 136.5,246.5C 136.982,240.34 137.649,234.34 138.5,228.5 Z"/></g>
<g><path style="opacity:1" fill="#464646" d="M 163.5,255.5 C 163.5,257.5 163.5,259.5 163.5,261.5C 163.167,261.5 162.833,261.5 162.5,261.5C 160.833,261.5 159.167,261.5 157.5,261.5C 157.5,259.5 157.5,257.5 157.5,255.5C 159.5,255.5 161.5,255.5 163.5,255.5 Z"/></g>
<g><path style="opacity:1" fill="#0d0d0d" d="M 158.5,256.5 C 159.833,256.5 161.167,256.5 162.5,256.5C 162.5,257.833 162.5,259.167 162.5,260.5C 161.167,260.5 159.833,260.5 158.5,260.5C 158.5,259.167 158.5,257.833 158.5,256.5 Z"/></g>
<g><path style="opacity:1" fill="#bababa" d="M 203.5,259.5 C 204.167,259.833 204.833,260.167 205.5,260.5C 208.962,261.482 212.629,261.815 216.5,261.5C 212.689,262.645 208.689,262.812 204.5,262C 203.748,261.329 203.414,260.496 203.5,259.5 Z"/></g>
</svg>
