<?xml version="1.0"?><svg xmlns="http://www.w3.org/2000/svg" width="36" height="36" shape-rendering="geometricPrecision" text-rendering="geometricPrecision" image-rendering="optimizeQuality" fill-rule="evenodd" clip-rule="evenodd" viewBox="0 0 36 36"><path fill="#ea0e1a" d="m-0.1-0.1h7.6c0 0.2 0 0.4 0.1 0.5 0.3 0.1 0.5 0.1 0.8 0.1 0.1 0.1 0.1 0.2 0.1 0.3h0.4v0.5h0.9v0.4h0.4c-0.1 0.5 0.1 0.6 0.5 0.6v0.3h0.4c0 0.2 0 0.4 0.1 0.5 0.3 0.1 0.5 0.1 0.8 0 0.1 0.2 0.1 0.3 0.1 0.4h0.4v0.5c0.4 0 0.5 0.1 0.5 0.4h0.4v0.5c0.4 0 0.5 0.1 0.5 0.4h0.4v0.5c0.4 0 0.5 0.1 0.5 0.4h0.8c-0.1 0.5 0.1 0.6 0.5 0.6v0.3h0.4c0 0.2 0 0.4 0.1 0.5 0.3 0.1 0.5 0.1 0.8 0.1 0.1 0.1 0.1 0.2 0.1 0.3h0.4v0.5c0.4 0 0.5 0.1 0.5 0.4h0.4v0.5h0.9v0.4h0.4c-0.1 0.5 0.1 0.6 0.5 0.6v0.3h0.4c0 0.2 0 0.4 0.1 0.5 0.3 0.1 0.5 0.1 0.8 0 0.1 0.2 0.1 0.3 0.1 0.4h0.4v0.5c0.4 0 0.5 0.1 0.5 0.4h0.4v0.5h0.9v0.4h0.4c-0.1 0.5 0.1 0.6 0.5 0.6v0.3h0.4c-0.1 0.5 0.1 0.6 0.5 0.6v0.3h0.9v0.5c0.4 0 0.5 0.1 0.5 0.4h0.4v0.5h0.9v0.4h0.4c-0.1 0.5 0.1 0.6 0.5 0.6v0.3h0.4c0 0.2 0 0.4 0.1 0.5 0.3 0.1 0.5 0.1 0.8 0 0.1 0.2 0.1 0.3 0.1 0.4h0.4v0.5c0.4 0 0.5 0.1 0.5 0.4h0.4v0.5c0.4 0 0.5 0.1 0.5 0.4h0.4v0.5h0.9v0.4h0.4c-0.1 0.5 0.1 0.6 0.5 0.6v0.3h0.4c-0.1 0.5 0.1 0.6 0.5 0.6v9.3c-0.3 0.1-0.6 0.1-0.9 0.3 0.1-0.6-0.2-1-0.7-1.2-0.2-0.2-0.2-0.5-0.2-0.9h-0.9c0.1 0.3 0 0.3-0.2 0.3 0-0.2 0-0.4 0-0.7-0.2-0.2-0.4-0.3-0.7-0.2v-1.2h-1.1c0.1-0.2 0-0.4-0.2-0.6-0.4 0-0.8-0.1-1.2-0.2-0.3-0.3-0.4-0.6-0.4-1h-0.7v-0.6c-0.7 0-1.1-0.4-1.1-1.2-0.5 0-0.9 0.1-1.4 0.3-0.2-0.2-0.4-0.3-0.6-0.3 0-0.3-0.1-0.4-0.5-0.4v-1.4h-0.9c0 0.4-0.1 0.5-0.3 0.2 0.2-0.2 0.2-0.3 0.2-0.5-0.3-0.2-0.6-0.3-0.9-0.3 0.1-0.3 0.1-0.6 0.1-0.8h-0.3v-0.4h-0.3c0 0.2 0 0.4 0.2 0.5-0.1 0.2-0.2 0.3-0.5 0.2 0.1-0.1 0-0.3 0-0.4-0.4-0.3-0.7-0.7-0.9-1 0-0.5 0-0.9 0-1.3h-0.3c0-0.1 0-0.3 0-0.4-0.3-0.1-0.5-0.3-0.6-0.6l0.3-0.1c0.2 0.1 0.4 0.2 0.6 0.2-0.1-0.2-0.3-0.4-0.4-0.5 0.1-0.2 0.3-0.2 0.4 0 0-0.2 0-0.3-0.1-0.4-0.2-0.1-0.3-0.2-0.5-0.3 0.4-0.3 0.7-0.7 0.6-1.3 0.2-0.6 0.3-1.2 0.5-1.8-0.1-0.3-0.3-0.5-0.7-0.4v-0.1c0-0.2-0.1-0.3-0.1-0.5-0.8-0.6-1.6-0.9-2.6-0.8h-5.7c0 0.2 0 0.3 0.2 0.4 0.1 0.2 0.3 0.3 0.6 0.3 0.1 0.2 0.1 0.5 0.1 0.7 0.1 2.6 0.1 5.2 0.1 7.9-0.1 0-0.1 0.1-0.2 0.2-0.2-2.7-0.2-5.5 0-8.2-0.4 0-0.8-0.1-1.2-0.1-0.3 0-0.6 0-0.9-0.1-0.1-0.4-0.2-0.7-0.3-1.1-0.1 0.1-0.2 0.2-0.3 0.3-0.2-0.3-0.3-0.6-0.3-0.9-0.7 0-1.1-0.4-1.1-1.2h-2c0-0.3-0.1-0.4-0.5-0.4-0.1-0.5-0.1-0.9 0-1.4-0.3 0.1-0.6 0.1-0.9 0.3 0.1-0.6-0.2-1-0.7-1.2-0.2-0.2-0.2-0.5-0.2-0.9h-1.9c0.1-0.6 0.2-1.2 0.1-1.8-0.6 0-1.2 0.1-1.8 0.3v-0.9c-0.7 0-1.1-0.4-1.1-1.2h-0.7v-3.6z"></path><path fill="#e70b17" d="m7.5-0.1h28.4v23.1c-0.4 0-0.6-0.1-0.5-0.6h-0.4v-0.3c-0.4 0-0.6-0.1-0.5-0.6h-0.4v-0.4h-0.9v-0.5h-0.4c0-0.3-0.1-0.4-0.5-0.4v-0.5h-0.4c0-0.3-0.1-0.4-0.5-0.4v-0.5h-0.4c0-0.1 0-0.2-0.1-0.3-0.3 0-0.5 0-0.8-0.1-0.1-0.1-0.1-0.3-0.1-0.5h-0.4v-0.3c-0.4 0-0.6-0.1-0.5-0.6h-0.4v-0.4h-0.9v-0.5h-0.4c0-0.3-0.1-0.4-0.5-0.4v-0.5h-0.9v-0.3c-0.4 0-0.6-0.1-0.5-0.6h-0.4v-0.3c-0.4 0-0.6-0.1-0.5-0.6h-0.4v-0.4h-0.9v-0.5h-0.4c0-0.3-0.1-0.4-0.5-0.4v-0.5h-0.4c0-0.1 0-0.2-0.1-0.3-0.3 0-0.5 0-0.8-0.1-0.1-0.1-0.1-0.3-0.1-0.5h-0.4v-0.3c-0.4 0-0.6-0.1-0.5-0.6h-0.4v-0.4h-0.9v-0.5h-0.4c0-0.3-0.1-0.4-0.5-0.4v-0.5h-0.4c0-0.1 0-0.2-0.1-0.3-0.3 0-0.5 0-0.8-0.1-0.1-0.1-0.1-0.3-0.1-0.5h-0.4v-0.3c-0.4 0-0.6-0.1-0.5-0.6h-0.8c0-0.3-0.1-0.4-0.5-0.4v-0.5h-0.4c0-0.3-0.1-0.4-0.5-0.4v-0.5h-0.4c0-0.3-0.1-0.4-0.5-0.4v-0.5h-0.4c0-0.1 0-0.2-0.1-0.3-0.3 0-0.5 0-0.8-0.1-0.1-0.1-0.1-0.3-0.1-0.5h-0.4v-0.3c-0.4 0-0.6-0.1-0.5-0.6h-0.4v-0.4h-0.9v-0.5h-0.4c0-0.1 0-0.2-0.1-0.3-0.3 0-0.5 0-0.8-0.1-0.1-0.1-0.1-0.3-0.1-0.5z"></path><path fill="#ea1520" d="m-0.1 3.5h0.7c0 0.8 0.4 1.2 1.1 1.2v0.9c0.6-0.2 1.2-0.3 1.8-0.3 0.1 0.6 0 1.2-0.1 1.8h1.9c0 0.4 0 0.7 0.2 0.9 0.5 0.2 0.8 0.6 0.7 1.2 0.3-0.2 0.6-0.2 0.9-0.3-0.1 0.5-0.1 0.9 0 1.4 0.4 0 0.5 0.1 0.5 0.4h2c0 0.8 0.4 1.2 1.1 1.2 0 0.3 0.1 0.6 0.3 0.9 0.1-0.1 0.2-0.2 0.3-0.3 0.1 0.4 0.2 0.7 0.3 1.1 0.3 0.1 0.6 0.1 0.9 0.1 0.2 0.2 0.4 0.4 0.7 0.6 0 2.4 0 4.8 0 7.2-0.1 0.3-0.3 0.3-0.4 0.1 0.1-0.3 0.2-0.6 0.2-1-0.1-1.5-0.1-3-0.2-4.5-0.1 1.1-0.2 1.8-0.3 2.4-0.4 0-0.6-0.1-0.5-0.6h-0.4v-0.3c-0.4 0-0.6-0.1-0.5-0.6h-0.8c0-0.3-0.1-0.4-0.5-0.4v-0.5h-0.4c0-0.1 0-0.2-0.1-0.3-0.3 0-0.5 0-0.8-0.1-0.1-0.1-0.1-0.3-0.1-0.5h-0.4v-0.3c-0.4 0-0.6-0.1-0.5-0.6h-0.4v-0.4h-0.9v-0.5h-0.4c0-0.3-0.1-0.4-0.5-0.4v-0.5h-0.4c0-0.1 0-0.2-0.1-0.3-0.3 0-0.5 0-0.8-0.1-0.1-0.1-0.1-0.3-0.1-0.5h-0.4v-0.3c-0.4 0-0.6-0.1-0.5-0.6h-0.4v-0.3c-0.4 0-0.6-0.1-0.5-0.6h-0.8c0-0.3-0.1-0.4-0.5-0.4v-0.5h-0.4c0-0.3-0.1-0.4-0.5-0.4v-5z"></path><path fill="#ef1b27" d="m-0.1 8.5c0.4 0 0.5 0.1 0.5 0.4h0.4v0.5c0.4 0 0.5 0.1 0.5 0.4h0.8c-0.1 0.5 0.1 0.6 0.5 0.6v0.3h0.4c-0.1 0.5 0.1 0.6 0.5 0.6v0.3h0.4c0 0.2 0 0.4 0.1 0.5 0.3 0.1 0.5 0.1 0.8 0 0.1 0.2 0.1 0.3 0.1 0.4h0.4v0.5c0.4 0 0.5 0.1 0.5 0.4h0.4v0.5h0.9v0.4h0.4c-0.1 0.5 0.1 0.6 0.5 0.6v0.3h0.4c0 0.2 0 0.4 0.1 0.5 0.3 0.1 0.5 0.1 0.8 0 0.1 0.2 0.1 0.3 0.1 0.4h0.4v0.5c0.4 0 0.5 0.1 0.5 0.4h0.8c-0.1 0.5 0.1 0.6 0.5 0.6v0.3h0.4c-0.1 0.5 0.1 0.6 0.5 0.6 0.1-0.6 0.2-1.3 0.3-2.4 0.1 1.5 0.1 3 0.2 4.5 0 0.4-0.1 0.7-0.2 1 0.1 0.2 0.3 0.2 0.4-0.1 0-2.4 0-4.8 0-7.2-0.3-0.2-0.5-0.4-0.7-0.6 0.4 0 0.8 0.1 1.2 0.1-0.2 2.7-0.2 5.5 0 8.2 0.1-0.1 0.1-0.2 0.2-0.2v0.6c-0.3 0.3-0.6 0.5-1 0.5-0.1 0.1-0.2 0.2-0.1 0.3h4.1c-0.2 0.2-0.5 0.3-0.8 0.5 0.4 0 0.5 0.2 0.5 0.5h0.8c-0.1 0.5 0.1 0.6 0.5 0.6v0.3h0.4c-0.1 0.5 0.1 0.6 0.5 0.6v0.3h0.9v0.5c0.4 0 0.5 0.1 0.5 0.4h0.4v0.5c0.4 0 0.5 0.1 0.5 0.4h0.8c-0.1 0.5 0.1 0.6 0.5 0.6v0.3h0.4c-0.1 0.5 0.1 0.6 0.5 0.6v0.3h0.9v0.5c0.4 0 0.5 0.1 0.5 0.4h0.4v0.5c0.4 0 0.5 0.1 0.5 0.4h0.4v0.5h0.9v0.4h0.4c-0.1 0.5 0.1 0.6 0.5 0.6v0.3h0.4c0 0.2 0 0.4 0.1 0.5 0.3 0.1 0.5 0.1 0.8 0 0.1 0.2 0.1 0.3 0.1 0.4h0.4v0.5c0.4 0 0.5 0.1 0.5 0.4h0.4v0.5c0.4 0 0.5 0.1 0.5 0.4h-6c0.1-0.4 0.1-0.8 0.1-1.2-0.4 0-0.6-0.1-0.5-0.6h-1.3v-0.9h-0.4c0-0.3-0.1-0.4-0.5-0.4v-0.5c-0.5 0-1.1 0.1-1.6 0.3-0.2-0.1-0.3-0.3-0.3-0.5 0.1-0.3 0.2-0.5 0.4-0.7-0.2-0.2-0.4-0.3-0.7-0.4-0.1-0.1-0.1-0.3-0.1-0.5h-1.3c0 0.4-0.1 0.5-0.3 0.2-0.2-0.2-0.4-0.2-0.6-0.2 0-0.3 0.1-0.6 0.3-0.9-0.2-0.3-0.3-0.5-0.3-0.9-0.3 0.1-0.6 0-0.8-0.2-0.2 0.2-0.4 0.3-0.6 0.4-0.1 0.1-0.3 0.1-0.4 0 0-0.5 0-0.9 0-1.4-0.4 0-0.6-0.1-0.5-0.6h-1.3v-1.3h-0.9v-0.5h-0.9v-0.9c-0.3 0.1-0.6 0-0.8-0.2-0.3 0.2-0.6 0.4-1 0.5v-1.2h-0.9c0 0.4-0.1 0.5-0.3 0.2-0.2-0.2-0.4-0.2-0.6-0.2 0.1-0.2 0-0.4-0.3-0.6 0.1 0 0.2 0 0.3 0v-1.2c-0.5 0-1.1 0.1-1.6 0.3-0.2-0.1-0.3-0.3-0.3-0.5 0.1-0.3 0.2-0.5 0.4-0.7-0.2-0.3-0.3-0.5-0.3-0.9-0.6 0-1.3 0.1-1.9 0.4-0.3-0.2-0.2-0.3 0.1-0.4v-1.3h-0.9v-0.5c-0.7 0.2-1-0.1-0.9-0.9h-0.4c0-0.3-0.1-0.4-0.5-0.4v-0.5c-0.6 0-1.3 0.1-1.9 0.4-0.2-0.3-0.4-0.4-0.8-0.4v-7.6z"></path><path fill="#fce8e9" d="m18.6 12.5l1.1 0.4c-0.4-0.1-0.9-0.1-1.4-0.1 0.2 0.1 0.3 0.2 0.3 0.4-0.6-0.3-1.3-0.4-2-0.2-0.1-0.3-0.3-0.3-0.5-0.1-0.6 0.1-1.2 0.1-1.8 0.1 0.1 0.8 0 0.8-0.2 0.1l-0.1 0.1c0.2 2.9 0.2 5.8 0 8.7 0-2.9 0-5.7 0-8.6-0.2-0.3-0.5-0.4-0.9-0.4-0.2-0.1-0.2-0.2-0.2-0.4h5.7z"></path><path fill="#c83030" d="m18.6 12.5c1-0.1 1.8 0.2 2.6 0.8 0 0.2 0.1 0.3 0.1 0.5-0.4-0.5-0.9-0.8-1.6-0.9l-1.1-0.4z"></path><path fill="#c53439" d="m18.6 13.2c0.1 0.2 0.2 0.4 0.2 0.6-0.1 0-0.2 0-0.2-0.1-0.2-0.5-0.5-0.7-1-0.7-0.4-0.1-0.8 0-1.1 0.3 0-0.1 0-0.2 0.1-0.3 0.7-0.2 1.4-0.1 2 0.2z"></path><path fill="#fdfdfd" d="m16.6 13h-0.3c0 1.7-0.1 3.4-0.2 5 0.1 0.1 0.2 0.2 0.3 0.3-0.1 1.3 0 2.6 0 3.9 0.1 0.2 0.2 0.4 0.3 0.6 0 0.1 0.1 0.1 0.1 0.1-1 0.1-2 0.1-3 0l0.2-0.2c-0.1-0.1-0.1-0.1-0.1-0.3v-0.2c0.1-0.1 0.1-0.2 0.1-0.3 0.2-2.9 0.2-5.8 0-8.7l0.1-0.1c0.2 0.7 0.3 0.7 0.2-0.1 0.6 0 1.2 0 1.8-0.1 0.2-0.2 0.4-0.2 0.5 0.1z"></path><path fill="#d0282c" d="m21.3 13.9c0.4-0.1 0.6 0.1 0.7 0.4-0.2 0.6-0.3 1.2-0.5 1.8 0.3-0.7 0.2-1.5-0.2-2.2z"></path><path fill="#be4b4f" d="m13.1 12.9c0.4 0 0.7 0.1 0.9 0.4 0 2.9 0 5.7 0 8.6 0 0.1 0 0.2-0.1 0.3v-0.4c0-2.7 0-5.3-0.1-7.9 0-0.2 0-0.5-0.1-0.7-0.3 0-0.5-0.1-0.6-0.3z"></path><path fill="#c53740" d="m20.5 17.4c0 0.1 0 0.2-0.1 0.2-0.3 0.2-0.6 0.3-1 0.4 0.1 0.1 0.2 0.2 0.3 0.3-0.3 0-0.6-0.1-0.9-0.2 0.6-0.3 1.2-0.5 1.7-0.7z"></path><path fill="#dd1f25" d="m21.5 16.1c0.1 0.6-0.2 1-0.6 1.3 0.2 0.1 0.3 0.2 0.5 0.3 0.1 0.1 0.1 0.2 0.1 0.4-0.1-0.2-0.3-0.2-0.4 0 0.1 0.1 0.3 0.3 0.4 0.5-0.2 0-0.4-0.1-0.6-0.2l-0.3 0.1c0.1 0.3 0.3 0.5 0.5 0.6 0.1 0.1 0.1 0.3 0.1 0.4h0.3c0 0.4 0 0.8 0 1.3 0.2 0.3 0.5 0.7 0.9 1 0 0.1 0.1 0.3 0 0.4 0.3 0.1 0.4 0 0.5-0.2-0.2-0.1-0.2-0.3-0.2-0.5h0.3v0.4h0.3c0 0.2 0 0.5-0.1 0.8-0.4 0.4-0.8 0.6-1.4 0.6 0.5-0.1 0.9-0.4 1.2-0.8l-0.2-0.2c-0.3 0.4-0.6 0.4-1 0.1-0.3-0.9-0.5-1.9-0.8-2.9-0.2-0.6-0.7-1-1.3-1.2-0.1-0.1-0.2-0.2-0.3-0.3 0.4-0.1 0.7-0.2 1-0.4 0.1 0 0.1-0.1 0.1-0.2 0.4-0.4 0.7-0.8 1-1.3z"></path><path fill="#f3222f" d="m-0.1 16.1c0.4 0 0.6 0.1 0.8 0.4 0.6-0.3 1.3-0.4 1.9-0.4v0.5c0.4 0 0.5 0.1 0.5 0.4h0.4c-0.1 0.8 0.2 1.1 0.9 0.9v0.5h0.9v1.3c-0.3 0.1-0.4 0.2-0.1 0.4 0.6-0.3 1.3-0.4 1.9-0.4 0 0.4 0.1 0.6 0.3 0.9-0.2 0.2-0.3 0.4-0.4 0.7 0 0.2 0.1 0.4 0.3 0.5 0.5-0.2 1.1-0.3 1.6-0.3v1.2c-0.1 0-0.2 0-0.3 0 0.3 0.2 0.4 0.4 0.3 0.6 0.2 0 0.4 0 0.6 0.2 0.2 0.3 0.3 0.2 0.3-0.2h0.9v1.2c0.4-0.1 0.7-0.3 1-0.5 0.2 0.2 0.5 0.3 0.8 0.2v0.9h0.9v0.5h0.9v1.3h1.3c-0.1 0.5 0.1 0.6 0.5 0.6 0 0.5 0 0.9 0 1.4 0.1 0.1 0.3 0.1 0.4 0 0.2-0.1 0.4-0.2 0.6-0.4 0.2 0.2 0.5 0.3 0.8 0.2 0 0.4 0.1 0.6 0.3 0.9-0.2 0.3-0.3 0.6-0.3 0.9 0.2 0 0.4 0 0.6 0.2 0.2 0.3 0.3 0.2 0.3-0.2h1.3c0 0.2 0 0.4 0.1 0.5 0.3 0.1 0.5 0.2 0.7 0.4-0.2 0.2-0.3 0.4-0.4 0.7 0 0.2 0.1 0.4 0.3 0.5 0.5-0.2 1.1-0.3 1.6-0.3v0.5c0.4 0 0.5 0.1 0.5 0.4h0.4v0.9h1.3c-0.1 0.5 0.1 0.6 0.5 0.6 0 0.4 0 0.8-0.1 1.2h-8.9c0.1-0.4 0-0.9-0.1-1.3 0 0-0.1-0.1-0.1-0.1-0.3 0.3-0.7 0.5-1.1 0.5 0-0.3-0.1-0.4-0.5-0.4v-0.5h-0.4c0-0.3-0.1-0.4-0.5-0.4v-0.5h-0.9v-0.9h-0.9v-0.3h-0.3c0-0.5 0-1-0.2-1.5h-0.4c0.1 0.4 0 0.7-0.1 0.9-0.3-0.2-0.6-0.5-0.8-0.9-0.1-0.1-0.1-0.3 0-0.5-0.2-0.2-0.3-0.5-0.4-0.8-0.1-0.1-0.3-0.1-0.5-0.1v-0.4c-0.3 0-0.7 0-1.1 0.1 0.2 0.1 0.3 0.2 0.1 0.4-0.1-0.1-0.2-0.2-0.3-0.3-0.1-0.1-0.3-0.2-0.5-0.2 0.1-0.4 0-0.9-0.1-1.3 0 0-0.1-0.1-0.1-0.1-0.3 0.1-0.5 0.3-0.6 0.5-0.1-0.1-0.1-0.2-0.1-0.3-0.4 0-0.6-0.1-0.5-0.6 0.2 0.1 0.4 0 0.5-0.1 0-0.3-0.2-0.5-0.3-0.8-0.3 0.1-0.7 0.1-1 0 0-0.2 0-0.5-0.1-0.7-0.7-0.2-1.4-0.2-2.2-0.2v-0.3c-0.4 0-0.6-0.1-0.5-0.6h-0.4c0-0.3 0.1-0.5 0.3-0.8l-0.1-0.1c-0.1 0.3-0.3 0.5-0.4 0.6-0.2-0.4-0.4-0.8-0.5-1.2 0-0.1 0-0.2 0.1-0.2-0.4 0-0.8 0-1.2-0.2v-6.2z"></path><path fill="#faf6f6" d="m19.7 12.9c0.7 0.1 1.2 0.4 1.6 0.9v0.1c0.4 0.7 0.5 1.5 0.2 2.2-0.3 0.5-0.6 0.9-1 1.3-0.5 0.2-1.1 0.4-1.7 0.7 0.3 0.1 0.6 0.2 0.9 0.2 0.6 0.2 1.1 0.6 1.3 1.2 0.3 1 0.5 2 0.8 2.9 0.4 0.3 0.7 0.3 1-0.1l0.2 0.2c-0.3 0.4-0.7 0.7-1.2 0.8h-0.3c-0.8 0.2-1.6 0-2.2-0.6-0.2-0.9-0.5-1.8-0.7-2.7 0.1-0.6-0.1-1-0.4-1.4-0.1-0.2-0.2-0.3-0.4-0.4-0.5-0.1-1 0-1.4 0.1-0.1-0.1-0.2-0.2-0.3-0.3 0.1-1.6 0.2-3.3 0.2-5h0.3c-0.1 0.1-0.1 0.2-0.1 0.3-0.1 1.5-0.2 3-0.1 4.5 0.4 0.1 0.9 0 1.3-0.1 0.4 0 0.7-0.2 0.9-0.5 0.2-0.1 0.3-0.3 0.4-0.5 0.1-0.5 0.2-1 0.2-1.5 0-0.5-0.1-1-0.4-1.4 0-0.2-0.1-0.4-0.2-0.6 0-0.2-0.1-0.3-0.3-0.4 0.5 0 1 0 1.4 0.1z"></path><path fill="#c24b4f" d="m16.5 13.3v4.4h1.2c-0.4 0.1-0.9 0.2-1.3 0.1-0.1-1.5 0-3 0.1-4.5z"></path><path fill="#e8111c" d="m18.8 13.8c0.2 0.9 0.2 1.9 0.1 2.8-0.2 0.2-0.2 0.3-0.3 0.6-0.2 0.3-0.5 0.5-0.9 0.5h-1.2v-4.4c0.3-0.3 0.7-0.4 1.1-0.2 0.5-0.1 0.8 0.1 1 0.6 0 0.1 0.1 0.1 0.2 0.1z"></path><path fill="#c53234" d="m18.8 13.8c0.3 0.4 0.4 0.9 0.4 1.4 0 0.5-0.1 1-0.2 1.5-0.1 0.2-0.2 0.4-0.4 0.5 0.1-0.3 0.1-0.4 0.3-0.6 0.1-0.9 0.1-1.9-0.1-2.8z"></path><path fill="#cb3f44" d="m18.2 18.6c-0.6-0.3-1.1-0.4-1.7-0.3 0 1.4 0 2.8 0.1 4.1 0.3 0.1 0.7 0.2 1 0.4 0.2 0.2 0.1 0.3-0.1 0.3-0.2-0.2-0.5-0.3-0.8-0.3-0.1-0.2-0.2-0.4-0.3-0.6 0-1.3-0.1-2.6 0-3.9 0.4-0.1 0.9-0.2 1.4-0.1 0.2 0.1 0.3 0.2 0.4 0.4z"></path><path fill="#f52934" d="m-0.1 22.3c0.4 0.2 0.8 0.2 1.2 0.2-0.1 0-0.1 0.1-0.1 0.2 0.1 0.4 0.3 0.8 0.5 1.2 0.1-0.1 0.3-0.3 0.4-0.6l0.1 0.1c-0.2 0.3-0.3 0.5-0.3 0.8h0.4c-0.1 0.5 0.1 0.6 0.5 0.6v0.3c0.8 0 1.5 0 2.2 0.2 0.1 0.2 0.1 0.5 0.1 0.7 0.3 0.1 0.7 0.1 0.9 0 0.2 0.3 0.4 0.5 0.4 0.8-0.1 0.1-0.3 0.2-0.5 0.1-0.1 0.5 0.1 0.6 0.5 0.6 0 0.1 0 0.2 0.1 0.3 0.1-0.2 0.3-0.4 0.6-0.5 0 0 0.1 0.1 0.1 0.1 0.1 0.4 0.2 0.9 0.1 1.3 0.2 0 0.4 0.1 0.5 0.2 0.1 0.1 0.2 0.2 0.3 0.3 0.2-0.2 0.1-0.3-0.1-0.4 0.4-0.1 0.8-0.1 1.1-0.1v0.4c0.2 0 0.4 0 0.5 0.1 0.1 0.3 0.2 0.6 0.4 0.8-0.1 0.2-0.1 0.4 0 0.5 0.2 0.4 0.5 0.7 0.8 0.9 0.1-0.2 0.2-0.5 0.1-0.9h0.4c0.2 0.5 0.2 1 0.2 1.5h0.3v0.3h0.9v0.9h0.9v0.5c0.4 0 0.5 0.1 0.5 0.4h0.4v0.5c0.4 0 0.5 0.1 0.5 0.4 0.4 0 0.8-0.2 1.1-0.5 0 0 0.1 0.1 0.1 0.1 0.1 0.4 0.2 0.9 0.1 1.3h-9v-0.5h-1.8v-1.8h-1.8v-1.3c-0.3 0.1-0.6 0-0.9-0.1-0.1-0.6-0.5-0.8-1.1-0.5-0.7-0.1-1-0.5-0.9-1.2h-0.7v-8.2z"></path><path fill="#fde3eb" d="m13.9 22.4c0 0.2 0 0.2 0.1 0.3l-0.2 0.3c1 0 2 0 3 0 0-0.1-0.1-0.1-0.1-0.2 0.3 0 0.6 0.1 0.8 0.3-1.6 0.1-3.1 0-4.6-0.2 0.4 0 0.7-0.2 1-0.5z"></path><path fill="#c4484e" d="m12.9 22.9c1.5 0.2 3 0.3 4.6 0.2-0.2 0.1-0.4 0.2-0.6 0.1h-4.1c-0.1-0.1 0-0.2 0.1-0.3z"></path><path fill="#eb1521" d="m18.2 18.6c0.3 0.4 0.5 0.8 0.4 1.4 0.1 0.8 0.2 1.5 0.3 2.3 0.2 0.3 0.2 0.4-0.2 0.4v0.3c0.2 0 0.4-0.1 0.5-0.2 0.2 0.3 0.4 0.5 0.8 0.7 0.5 0.1 1 0.2 1.5 0.2v-0.4h0.3c0.6 0 1-0.2 1.4-0.6 0.3 0 0.6 0.1 0.9 0.3 0 0.2 0 0.3-0.2 0.5 0.2 0.3 0.3 0.2 0.3-0.2h0.9v1.4c0.4 0 0.5 0.1 0.5 0.4 0.2 0 0.4 0.1 0.6 0.3 0.5-0.2 0.9-0.3 1.4-0.3 0 0.8 0.4 1.2 1.1 1.2v0.6h0.7c0 0.4 0.1 0.7 0.4 1 0.4 0.1 0.8 0.2 1.2 0.2 0.2 0.2 0.3 0.4 0.2 0.6h1.1v1.2c0.3-0.1 0.5 0 0.7 0.2 0 0.3 0 0.5 0 0.7 0.2 0 0.3 0 0.2-0.3h0.9c0 0.4 0 0.7 0.2 0.9 0.5 0.2 0.8 0.6 0.7 1.2 0.3-0.2 0.6-0.2 0.9-0.3v3.6h-4.9c0-0.3-0.1-0.4-0.5-0.4v-0.5h-0.4c0-0.3-0.1-0.4-0.5-0.4v-0.5h-0.4c0-0.1 0-0.2-0.1-0.4-0.3 0.1-0.5 0.1-0.8 0-0.1-0.1-0.1-0.3-0.1-0.5h-0.4v-0.3c-0.4 0-0.6-0.1-0.5-0.6h-0.4v-0.4h-0.9v-0.5h-0.4c0-0.3-0.1-0.4-0.5-0.4v-0.5h-0.4c0-0.3-0.1-0.4-0.5-0.4v-0.5h-0.9v-0.3c-0.4 0-0.6-0.1-0.5-0.6h-0.4v-0.3c-0.4 0-0.6-0.1-0.5-0.6h-0.8c0-0.3-0.1-0.4-0.5-0.4v-0.5h-0.4c0-0.3-0.1-0.4-0.5-0.4v-0.5h-0.9v-0.3c-0.4 0-0.6-0.1-0.5-0.6h-0.4v-0.3c-0.4 0-0.6-0.1-0.5-0.6h-0.8c0-0.3-0.1-0.5-0.5-0.5 0.3-0.2 0.6-0.3 0.8-0.5 0.2 0.1 0.4 0 0.6-0.1 0.2 0 0.3-0.1 0.1-0.3-0.3-0.2-0.7-0.3-1-0.4-0.1-1.3-0.1-2.7-0.1-4.1 0.6-0.1 1.1 0 1.7 0.3z"></path><path fill="#d92e33" d="m18.6 20c0.2 0.9 0.5 1.8 0.8 2.7 0.5 0.6 1.3 0.8 2.1 0.6v0.4c-0.5 0-1-0.1-1.5-0.2-0.4-0.2-0.6-0.4-0.8-0.7-0.1 0.1-0.3 0.2-0.5 0.2v-0.3c0.4 0 0.4-0.1 0.2-0.4-0.1-0.8-0.2-1.5-0.3-2.3z"></path><path fill="#f62c3a" d="m-0.1 30.5h0.7c-0.1 0.7 0.2 1.1 0.9 1.2 0.6-0.3 1-0.1 1.1 0.5 0.3 0.1 0.6 0.2 0.9 0.1v1.3h1.8v1.8h1.8v0.5h-7.2v-5.4z"></path></svg>