<?xml version="1.0"?><svg xmlns="http://www.w3.org/2000/svg" width="36" height="36" shape-rendering="geometricPrecision" text-rendering="geometricPrecision" image-rendering="optimizeQuality" fill-rule="evenodd" clip-rule="evenodd" viewBox="0 0 36 36"><path fill="#010000" d="m-0.1-0.1h17.9c-0.1 0.3-0.3 0.5-0.6 0.6-0.2 0-0.2-0.1 0-0.2-0.2 0-0.3 0-0.4 0 0 0.2-0.1 0.3-0.2 0.4-0.2 0.1-0.4 0.1-0.6 0 0 0.2 0 0.3 0.1 0.5-2.1 1-4.2 1.9-6.5 2.6-0.3 0-0.7 0.1-1 0.2-0.8 0.1-1.6 0.3-2.4 0.4h-0.2c-0.8 0.1-1.7 0.3-2.5 0.5h-0.1c-0.1 0.6-0.2 1.3-0.2 2 0 0.7 0 1.4 0.1 2 0 1.3 0.1 2.6 0.2 3.9v0.1c0 1.1 0.2 2.3 0.5 3.4 0.5 3.1 1.6 6.1 3.1 8.8 2.3 4 5.3 7.1 9 9.6 0.1 0.2 0.2 0.4 0.4 0.5 0.4 0.2 0.7 0.3 1.1 0.5 0.3-0.1 0.6-0.1 0.9 0 0.1 0 0.2 0.1 0.2 0.2h-18.8v-36z m17.9 0h18.1v36h-17.2c0-0.1-0.1-0.2-0.2-0.2-0.3-0.1-0.6-0.1-0.9 0-0.4-0.2-0.7-0.3-1.1-0.5-0.2-0.1-0.3-0.3-0.4-0.5 0.5 0.3 0.9 0.5 1.4 0.7 0.3 0.1 0.5 0.1 0.8 0 3.9-2 7.1-5 9.4-8.8 1.3-1.6 2.2-3.4 2.8-5.4 0.5-1.4 1-2.8 1.3-4.3v-0.2c0.1-0.2 0.2-0.5 0.2-0.8v-0.2c0.1-0.4 0.2-0.9 0.2-1.4 0.2-1.3 0.3-2.7 0.3-4 0.1-1.8 0.1-3.6 0.1-5.4-0.3 0-0.6-0.1-0.9-0.1-1.2-0.3-2.4-0.5-3.6-0.6-1.2-0.3-2.4-0.6-3.5-0.9-2.3-0.9-4.5-1.8-6.7-2.9-0.6 0.3-1.2 0.5-1.8 0.8-0.1-0.2-0.1-0.3-0.1-0.5 0.2 0.1 0.4 0.1 0.6 0 0.1-0.1 0.2-0.2 0.2-0.4 0.1 0 0.2 0 0.4 0-0.2 0.1-0.2 0.2 0 0.2 0.3-0.1 0.5-0.3 0.6-0.6z"></path><path fill="#f6d010" d="m31.7 4.8c0.2 0.2 0.4 0.3 0.8 0.2v5c-0.1-0.2-0.2-0.3-0.2-0.5-0.1 0-0.3-0.1-0.4-0.2l-0.1-2.2c0 1-0.1 1.9-0.2 2.7 0-1.3 0-2.7-0.1-4-0.8-0.2-1.7-0.3-2.5-0.3-1.5-0.2-2.9-0.5-4.2-0.9-0.4-0.3-0.8-0.5-1.3-0.5-0.4-0.1-0.7-0.1-1.1-0.3-1.2-0.5-2.4-1.1-3.7-1.6v-0.1c-0.1-0.2-0.2-0.2-0.3 0-0.3 2.5-0.4 5-0.4 7.5 0-1.1-0.2-2.3-0.3-3.4-0.1-1.4-0.1-2.8-0.2-4.2-0.1-0.1-0.2 0-0.2 0.1-2.2 1.1-4.5 2-6.9 2.7-0.3 0-0.5 0-0.8 0-0.5 0.2-1.1 0.4-1.6 0.5-0.5 0-1 0.1-1.5 0.3l-1.2 0.1c-0.3 0-0.6 0-0.9-0.1l-0.1 0.3c-0.1 1.2 0 2.3 0 3.5-0.2 0.4-0.3 0.8-0.2 1.3-0.2-0.5-0.3-1.1-0.3-1.8-0.1 0.3-0.2 0.6-0.4 0.8 0.1-0.3 0-0.5-0.1-0.8 0-1.3 0-2.7 0.1-4h0.1c0.8 0 1.6-0.1 2.4-0.3 0.1 0 0.1-0.1 0.1-0.2h0.2c0.7 0 1.3 0 2-0.1 0.1-0.1 0.3-0.2 0.4-0.3 0.4 0 0.7 0 1-0.2 2.3-0.7 4.4-1.6 6.5-2.6 0.6-0.3 1.2-0.5 1.8-0.8 2.2 1.1 4.4 2 6.7 2.9 1.1 0.3 2.3 0.6 3.5 0.9 1.2 0.1 2.4 0.3 3.6 0.6z"></path><path fill="#69602e" d="m18.7 2.1c-0.2 3.4-0.3 6.9-0.3 10.3v-10.3c0.1-0.2 0.2-0.2 0.3 0z"></path><path fill="#2c2608" d="m17.3 2.1c0-0.1 0.1-0.2 0.2-0.1v10.4h0.9c-0.1 0.1-0.3 0.2-0.5 0.1h-0.3c-0.2-3.4-0.3-6.9-0.3-10.4z"></path><path fill="#a78a22" d="m9.6 3.8c-0.3 0.2-0.6 0.2-1 0.2 0.3-0.1 0.7-0.2 1-0.2z"></path><path fill="#c7ab2c" d="m8.6 4c-0.1 0.1-0.3 0.2-0.4 0.3-0.7 0.1-1.3 0.1-2 0.1 0.8-0.1 1.6-0.3 2.4-0.4z"></path><path fill="#2b2e3c" d="m17.3 2.1c0 3.5 0.1 7 0.3 10.4-0.2 0.5-0.5 0.5-0.9 0.1 0.2-0.1 0.3-0.1 0.5-0.1v-1.8c0-2.8 0-5.6-0.3-8.3 0.2-0.1 0.3-0.2 0.4-0.3z"></path><path fill="#c7ae34" d="m23.5 4.1c0.5 0 0.9 0.2 1.3 0.5-0.5-0.1-0.9-0.2-1.3-0.5z"></path><path fill="#c1a52c" d="m6 4.4c0 0.1 0 0.2-0.1 0.2-0.8 0.2-1.6 0.3-2.4 0.3 0.8-0.2 1.7-0.4 2.5-0.5z"></path><path fill="#a79024" d="m10.4 4.8c-0.8 0.2-1.5 0.4-2.4 0.5 0.5-0.1 1.1-0.3 1.6-0.5 0.3 0 0.5 0 0.8 0z"></path><path fill="#2f2f2f" d="m18.7 2.2c1.3 0.5 2.5 1.1 3.7 1.6 0.4 0.2 0.7 0.2 1.1 0.3 0.4 0.3 0.8 0.4 1.3 0.5 1.3 0.4 2.7 0.7 4.2 0.9 0.6 0.1 1.2 0.3 1.9 0.4-0.3 0-0.5 0-0.7 0.1 0.3 0.1 0.6 0.2 0.9 0.1v3.9c0.1 0.5 0 1-0.2 1.5 0-1.4 0-2.9-0.1-4.4-0.1 1.1-0.2 2.1-0.2 3.1-1.8-0.2-3.6-0.2-5.5-0.2-1.8 0-3.6 0-5.4 0.1 0-0.3-0.1-0.5-0.3-0.6-0.1-0.6-0.1-1.3-0.2-1.9 0 0.4-0.1 0.7-0.1 1.1 0.1 0.5 0.1 0.9 0 1.4l-0.1-0.6c0 0.6-0.1 1.1-0.2 1.6 0-2.6-0.1-5.1-0.2-7.6 0-0.4 0-0.9 0.1-1.3z"></path><path fill="#302f2f" d="m17.3 2.1c-0.1 0.1-0.2 0.2-0.4 0.3 0.3 2.7 0.3 5.5 0.3 8.3-0.2-0.4-0.3-0.9-0.3-1.4 0 0.5-0.1 1-0.2 1.4-0.1-1.2-0.1-2.4-0.2-3.6-0.1 0.4-0.2 0.8-0.2 1.2l-0.1 2.4c-0.1-0.2-0.1-0.5-0.1-0.7h-10.8c0.1 0.2 0 0.5 0 0.7 0-0.8-0.1-1.7-0.2-2.6 0.1-0.3 0.2-0.6 0.2-1 0.5 0.1 0.9 0 1.3 0-0.1-0.1-0.1-0.2 0.1-0.2l-1.6 0.1c-0.3-0.1-0.3-0.2 0-0.4-0.1-0.1-0.3-0.1-0.4 0.1 0.1 0.1 0.1 0.2 0 0.3-0.2-0.3-0.3-0.6-0.1-0.9 0.3 0.3 0.6 0.3 1 0.1-0.7-0.1-0.7-0.2-0.1-0.3 0.5 0.2 0.9 0.2 1.4 0.2-0.2-0.2-0.4-0.3-0.7-0.4 0.1 0 0.2-0.1 0.3-0.1 0.5-0.2 1-0.3 1.5-0.3 0.9-0.1 1.6-0.3 2.4-0.5 2.4-0.7 4.7-1.6 6.9-2.7z"></path><path fill="#ad9834" d="m3.4 4.9c-0.1 1.3-0.1 2.7-0.1 4-0.1-0.6-0.1-1.3-0.1-2 0-0.7 0.1-1.4 0.2-2z"></path><path fill="#d4ba35" d="m31.7 4.8c0.3 0 0.6 0.1 0.9 0.1 0 1.8 0 3.6-0.1 5.4v-5.3c-0.4 0.1-0.6 0-0.8-0.2z"></path><path fill="#0f0200" d="m31 5.9h0.4c0.1 1.4 0 2.7-0.1 4.1v-4c-0.1 0-0.2 0-0.3-0.1z"></path><path fill="#313024" d="m6.5 5.6c-0.1 0-0.2 0.1-0.3 0.1 0.3 0.1 0.5 0.2 0.7 0.4-0.5 0-0.9 0-1.4-0.2-0.6 0.1-0.6 0.2 0.1 0.3-0.4 0.2-0.7 0.2-1-0.1-0.2 0.3-0.1 0.6 0.1 0.9 0.1-0.1 0.1-0.2 0-0.3 0.1-0.2 0.3-0.2 0.4-0.1-0.3 0.2-0.3 0.3 0 0.4l1.6-0.1c-0.2 0-0.2 0.1-0.1 0.2-0.4 0-0.8 0.1-1.3 0h-0.4c0.1 1 0.2 1.9 0.2 2.8-0.1 0.6-0.1 1.2-0.1 1.7l-0.2-0.2c0-1.1 0-2.3-0.1-3.5-0.1 1.2-0.2 2.3-0.1 3.4-0.2-1.7-0.2-3.5-0.2-5.3 0.3-0.1 0.6-0.2 0.9-0.3l1.2-0.1z"></path><path fill="#c0a32f" d="m29 5.5c0.8 0 1.7 0.1 2.5 0.3 0.1 1.3 0.1 2.7 0.1 4-0.1 0.5-0.2 1-0.3 1.5v-1.3c0.1-1.4 0.2-2.7 0.1-4.1h-0.5c-0.7-0.1-1.3-0.3-1.9-0.4z"></path><path fill="#2c2e49" d="m30.9 5.9h0.1c0.1 0.1 0.2 0.1 0.3 0.1v4.2l-0.2-0.2v-3.9c-0.3 0.1-0.6 0-0.9-0.1 0.2-0.1 0.4-0.1 0.7-0.1z"></path><path fill="#e7b41f" d="m17.5 2c0.1 1.4 0.1 2.8 0.2 4.2 0.1 1.1 0.3 2.3 0.3 3.4 0-2.5 0.1-5 0.4-7.5v7.4c-0.1 0.9-0.2 1.8-0.1 2.7-0.2 0-0.4 0-0.6 0.1-0.1-1.4-0.1-2.8-0.2-4.3v-6z"></path><path fill="#2a2828" d="m18.6 3.5c0.1 2.5 0.2 5 0.2 7.6 0.1-0.5 0.2-1 0.2-1.6l0.1 0.6c0.1-0.5 0.1-0.9 0-1.4 0-0.4 0.1-0.7 0.1-1.1 0.1 0.6 0.1 1.3 0.2 1.9 0.2 0.1 0.3 0.3 0.3 0.6 1.8-0.1 3.6-0.1 5.4-0.1 1.9 0 3.7 0 5.5 0.2 0-1 0.1-2 0.2-3.1 0.1 1.5 0.1 3 0.1 4.4 0.2-0.5 0.3-1 0.2-1.5l0.2 0.2v2.8c-0.1 0.9-0.3 1.8-0.4 2.7-0.2-0.1-0.2-0.2-0.2-0.4 0.1-0.4 0.2-0.8 0.1-1.2l-0.1 0.4c-0.2 0.1-0.3 0.1-0.4 0 0.2-0.2 0.2-0.3 0.2-0.5-1.7-0.1-3.4-0.1-5.1-0.1-0.4 0.2-0.5 0.5-0.3 0.9-0.2 0.2-0.4 0.3-0.6 0.1l0.2-0.7c0-0.1-0.1-0.1-0.2-0.2-0.2 0.1-0.3 0.3-0.3 0.5 0.1 0.4 0.1 0.7 0.2 1.1v4.9c-0.1-2.3-0.2-4.7-0.3-7.1-0.1 1.1-0.1 2.1-0.1 3.2h-0.1v-3.3h-0.8l-0.2 1.4c-0.6-0.7-1.2-1.3-1.8-1.8 0-0.1-0.1-0.2-0.2-0.1l-0.3 0.8c0-0.1-0.1-0.1-0.2-0.2-0.8-0.1-1.6-0.1-2.3-0.1 0.6-0.1 1.4-0.1 2.1-0.1-0.6-0.1-1.2-0.1-1.8-0.2 0.2-0.2 0.4-0.3 0.7-0.4-0.1-0.2-0.2-0.5-0.3-0.7 0 0.2-0.1 0.4-0.1 0.6-0.1-3-0.1-6-0.1-9z"></path><path fill="#292829" d="m5.3 7.1c0 0.4-0.1 0.7-0.2 1 0.1 0.9 0.2 1.8 0.2 2.6 0-0.2 0.1-0.5 0-0.7h10.8c0 0.2 0 0.5 0.1 0.7l0.1-2.4c0-0.4 0.1-0.8 0.2-1.2 0.1 1.2 0.1 2.4 0.2 3.6 0.1-0.4 0.2-0.9 0.2-1.4 0 0.5 0.1 1 0.3 1.4v1.8c-0.2 0-0.3 0-0.5 0.1 0.4 0.4 0.7 0.4 0.9-0.1h0.3c-0.2 0.6-0.6 0.7-1.1 0.4h-2.7v-0.4c-0.3 0-0.6 0-0.9 0.1 0.3 0 0.5 0.1 0.7 0.2-0.4 0.1-0.8 0.1-1.2 0.1-0.1-0.5-0.1-0.5-0.2 0-0.3-0.1-0.6 0-0.9 0.2-0.2 0-0.4 0-0.5 0.1v0.1c-0.1 0.2-0.2 0.4-0.2 0.6-0.1-0.1-0.1-0.1-0.2-0.2-1.8-0.1-3.6-0.2-5.4-0.1 0.1-0.4 0-0.7 0-1.1-0.1 0.5-0.1 0.9 0 1.4 0 0 0.1 0.1 0.2 0.1 1.6-0.1 3.2-0.1 4.8-0.1 0.2 0.1 0.3 0.1 0.4 0.2-1.8 0-3.6 0-5.4 0.1 0 0.2-0.1 0.4-0.2 0.6 0-1-0.1-2-0.3-3 0 0.6 0 1.2 0 1.9-0.1-0.2-0.2-0.4-0.1-0.6 0-0.6-0.1-1.2-0.1-1.8-0.1-1.1 0-2.2 0.1-3.4 0.1 1.2 0.1 2.4 0.1 3.5l0.1 0.2c0.1-0.5 0.1-1.1 0.2-1.7 0-0.9-0.1-1.8-0.2-2.8h0.4z"></path><path fill="#c8a241" d="m17.5 8c0.1 1.5 0.1 2.9 0.2 4.3 0.2-0.1 0.4-0.1 0.6-0.1-0.1-0.9 0-1.8 0.1-2.7v2.9h-0.9v-4.4z"></path><path fill="#a9943d" d="m3.3 8.9c0.1 0.3 0.2 0.5 0.1 0.8 0.1 1 0.1 2.1 0.1 3.1-0.1-1.3-0.2-2.6-0.2-3.9z"></path><path fill="#d3b42c" d="m5.3 5.7c-0.3 0.1-0.6 0.2-0.9 0.3 0 1.8 0 3.6 0.2 5.3 0 0.6 0.1 1.2 0.1 1.8h-0.1c-0.2-1.2-0.3-2.5-0.3-3.7 0-1.2-0.1-2.3 0-3.5l0.1-0.3c0.3 0.1 0.6 0.1 0.9 0.1z"></path><path fill="#c7a623" d="m4 16.3c-0.3-1.1-0.5-2.3-0.5-3.4 0.2-0.1 0.3-0.2 0.3-0.4 0.1 0.6 0 1.2 0 1.7 0.1 0.7 0.2 1.4 0.2 2.1z"></path><path fill="#282735" d="m16.8 12.9c-1.7 0.2-3.4 0.3-5.2 0.2 0.3-0.2 0.6-0.3 0.9-0.2 0.1-0.5 0.1-0.5 0.2 0 0.4 0 0.8 0 1.2-0.1-0.2-0.1-0.4-0.2-0.7-0.2 0.3-0.1 0.6-0.1 0.9-0.1v0.4h2.7z"></path><path fill="#665a21" d="m11.1 13.2c2 0 3.9 0 5.8 0.1h-2.4c-0.1 0-0.2 0.1-0.2 0.1h-0.1c-1-0.1-2-0.1-3-0.1v0.8h1v0.1h-1.1v-1z"></path><path fill="#f7db48" d="m14.2 13.4c-0.2 0.3-0.4 0.5-0.6 0.7h-0.6v2.2h-0.7c0.1-0.8 0-1.5-0.1-2.2h-1v-0.8c1 0 2 0 3 0.1z"></path><path fill="#a38a25" d="m14.5 13.3v3h0.7c-0.2 0.1-0.5 0.1-0.9 0.1v-3c0 0 0.1-0.1 0.2-0.1z"></path><path fill="#837341" d="m23.1 13.3v1.5c-0.1 0-0.2 0-0.2-0.1l0.2-1.4z"></path><path fill="#232123" d="m11.1 13.3v0.9h0.4c-0.1 0.2-0.1 0.3-0.1 0.5-0.2 0-0.3-0.1-0.4-0.3-1.4-0.1-2.7-0.1-4.1 0.1 0.1 0 0.1 0.1 0.2 0.2 1.2-0.2 2.4-0.3 3.6-0.2v0.3c-0.7 0-1.5 0-2.3-0.1-0.4 0.1-0.8 0.1-1.3 0.1l4.2 0.2c-1.4 0.1-2.9 0.2-4.3 0.4l-0.2-0.2c0.2-0.3 0.1-0.6-0.2-0.9-0.1 0.3-0.1 0.6 0 0.8-0.2 0.1-0.4 0.2-0.6 0.4-0.1 0.4-0.2 0.7-0.4 1.1 0 0.3 0 0.7 0 1-0.1-0.1-0.2-0.2-0.3-0.3-0.3-1.2-0.5-2.4-0.5-3.6 0-0.7 0-1.3 0-1.9 0.2 1 0.3 2 0.3 3 0.1-0.2 0.2-0.4 0.2-0.6 1.8-0.1 3.6-0.1 5.4-0.1-0.1-0.1-0.2-0.1-0.4-0.2-1.6 0-3.2 0-4.8 0.1-0.1 0-0.2-0.1-0.2-0.1-0.1-0.5-0.1-0.9 0-1.4 0 0.4 0.1 0.7 0 1.1 1.8-0.1 3.6 0 5.4 0.1 0.1 0.1 0.1 0.1 0.2 0.2 0-0.2 0.1-0.4 0.2-0.6z"></path><path fill="#222120" d="m30.9 15.7c-0.1 0.8-0.2 1.5-0.5 2.2-0.1 0.2-0.2 0.4-0.2 0.7-0.1 0.1-0.2 0.2-0.3 0.2 0-0.9-0.2-1.8-0.6-2.7h-0.1c-0.1-0.2-0.2-0.4-0.5-0.5-1.4 0-2.9 0-4.3 0-0.1-0.4-0.1-0.7-0.2-1.1 0-0.2 0.1-0.4 0.3-0.5 0.1 0.1 0.2 0.1 0.2 0.2l-0.2 0.7c0.2 0.2 0.4 0.1 0.6-0.1-0.2-0.4-0.1-0.7 0.3-0.9 1.7 0 3.4 0 5.1 0.1 0 0.2 0 0.3-0.2 0.5 0.1 0.1 0.2 0.1 0.4 0l0.1-0.4c0.1 0.4 0 0.8-0.1 1.2 0 0.2 0 0.3 0.2 0.4z"></path><path fill="#f3c70c" d="m4.3 9.4c0 1.2 0.1 2.5 0.3 3.7-0.1 0.7 0 1.4 0 2.1 0.3 0.6 0.3 1.1 0.2 1.7-0.1-0.1-0.2-0.2-0.1-0.4-0.2 0-0.3 0-0.4 0.2-0.1-0.2-0.2-0.3-0.3-0.4 0-0.7-0.1-1.4-0.2-2.1 0-0.5 0.1-1.1 0-1.7 0 0.2-0.1 0.3-0.3 0.4v-0.1c0-1 0-2.1-0.1-3.1 0.2-0.2 0.3-0.5 0.4-0.8 0 0.7 0.1 1.3 0.2 1.8 0-0.5 0.1-0.9 0.3-1.3z"></path><path fill="#aa9858" d="m12.2 14.1c0.1 0.7 0.2 1.4 0.1 2.2h0.7v-2.2h0.6c-0.2 0.1-0.3 0.2-0.5 0.1v2.2h-0.9v-2.3z"></path><path fill="#1f1d1b" d="m18.7 2.1v0.1c-0.1 0.4-0.1 0.9-0.1 1.3 0 3 0 6 0.1 9 0-0.2 0.1-0.4 0.1-0.6 0.1 0.2 0.2 0.5 0.3 0.7-0.3 0.1-0.5 0.2-0.7 0.4 0.6 0.1 1.2 0.1 1.8 0.2-0.7 0-1.5 0-2.1 0.1-0.2 0.1-0.3 0.2-0.4 0.4-0.1 0.7-0.1 1.4 0 2.2 0 0.1 0.1 0.2 0.1 0.2 0.1 0.1 0.1 0.2 0.3 0.2 0.7 0.1 1.4 0.1 2.2 0 0.1 0 0.1-0.1 0.1-0.2 0.1 0 0.1 0 0.2-0.1 0-0.8 0.1-1.6 0-2.4l0.3-0.8v3.6h0.9c0-0.6 0-1.1 0-1.6 0.1 0.1 0.1 0.1 0.2 0.1 0.4 0.5 0.9 0.9 1.3 1.4 0.2 0.2 0.4 0.3 0.6 0.5 0 0 0-0.1 0-0.2h0.1c0 0.2 0 0.3 0.1 0.4-0.1 0-0.3 0-0.4 0h-0.2c-1-0.1-2-0.1-3.1-0.1 0-0.1 0-0.2 0.1-0.4-0.2-0.1-0.5 0-0.8 0.1 0.2 0.1 0.4 0.2 0.5 0.3-0.2 0.1-0.3 0.3-0.5 0.5 0-0.1-0.1-0.2-0.3-0.2 0-0.1-0.1-0.2-0.2-0.2-0.9-0.1-1.7-0.1-2.6 0-0.2 0.1-0.3 0.2-0.3 0.4h-0.2c-0.1 0-0.2 0-0.2-0.1-0.1 0.9-0.1 1.8-0.2 2.7-0.1-0.1-0.2-0.1-0.2-0.1v-2.9c-0.3-0.1-0.7-0.1-1-0.1v2.6h-1.5v-2.6h-1.1c-0.1 0.1-0.2 0.2-0.3 0.4-0.6 0-1.2 0-1.8 0-0.2 0.2-0.4 0.4-0.5 0.6-0.3 0.2-0.5 0.4-0.7 0.7 0.5 0 1.1 0 1.6 0v0.5h-2.2v-2.3h3.6v-1.3c-1.5-0.1-3 0-4.5 0.1-0.2 0.1-0.3 0.3-0.4 0.5-0.1 1.2-0.2 2.4-0.1 3.6 0.1 0.3 0.3 0.5 0.5 0.6 1.5 0.1 3 0.2 4.5 0.1-1.5 0.1-3 0.2-4.6 0.1l-0.2-0.3c-0.1 0.2-0.1 0.5 0 0.7-0.1 0.2-0.2 0.4-0.2 0.6-0.6-1.3-1-2.7-1.3-4.2 0.1 0.1 0.2 0.2 0.3 0.3 0-0.3 0-0.7 0-1 0.2-0.4 0.3-0.7 0.4-1.1 0.2-0.2 0.4-0.3 0.6-0.4-0.1-0.2-0.1-0.5 0-0.8 0.3 0.3 0.4 0.6 0.2 0.9l0.2 0.2c1.4-0.2 2.9-0.3 4.3-0.4l-4.2-0.2c0.5 0 0.9 0 1.3-0.1 0.8 0.1 1.6 0.1 2.3 0.1v-0.3c-1.2-0.1-2.4 0-3.6 0.2-0.1-0.1-0.1-0.2-0.2-0.2 1.4-0.2 2.7-0.2 4.1-0.1 0.1 0.2 0.2 0.3 0.4 0.3 0-0.2 0-0.3 0.1-0.5h0.7v2.2h0.9v-2.2c0.2 0.1 0.3 0 0.5-0.1 0.2-0.2 0.4-0.4 0.6-0.7h0.1v3c0.4 0 0.7 0 0.9-0.1 0-0.4 0-0.7 0.1-1.1 0.1 0.1 0.2 0.2 0.3 0.3 0.3 0.2 0.6 0.5 0.8 0.8 0.4 0.1 0.8 0.1 1.2 0-0.3-0.3-0.7-0.7-1-1 0.3 0 0.5-0.1 0.7-0.3 0.1-0.4 0.1-0.9 0-1.4-0.1-0.2-0.2-0.3-0.4-0.3-1.9-0.1-3.8-0.1-5.8-0.1 0.1-0.1 0.3-0.1 0.5-0.1 1.8 0.1 3.5 0 5.2-0.2 0.5 0.3 0.9 0.2 1.1-0.4 0.2 0.1 0.4 0 0.5-0.1 0-3.4 0.1-6.9 0.3-10.3z"></path><path fill="#ae9b50" d="m20.9 12.8c0.1-0.1 0.2 0 0.2 0.1-0.1 1.1-0.2 2.2-0.1 3.4 0.2 0 0.4-0.1 0.6-0.2 0.1-0.4 0.1-0.9 0.1-1.4 0.1 0 0.3 0 0.3 0.2-0.1 0-0.1 0-0.2-0.1 0 0.5 0 1 0 1.6h-0.9v-3.6z"></path><path fill="#f5d848" d="m21.1 12.9c0.6 0.5 1.2 1.1 1.8 1.8 0 0.1 0.1 0.1 0.2 0.1 0.1-0.4 0.2-0.9 0.1-1.4h0.6v2.9h-0.5c-0.4-0.5-0.9-0.9-1.3-1.4 0-0.2-0.2-0.2-0.3-0.2 0 0.5 0 1-0.1 1.4-0.2 0.1-0.4 0.2-0.6 0.2-0.1-1.2 0-2.3 0.1-3.4z"></path><path fill="#b99a2d" d="m32.2 14.3c0 0.5-0.1 1-0.2 1.4-0.1-0.5 0-1 0.2-1.4z"></path><path fill="#f5d949" d="m14.5 13.3h2.4c0.2 0 0.3 0.1 0.4 0.3 0.1 0.5 0.1 1 0 1.4-0.3 0.1-0.6 0.1-0.9 0-0.2 0.1-0.4 0.2-0.5 0.4-0.1 0.1-0.2 0.1-0.3 0.1-0.1-0.1-0.2-0.2-0.3-0.3-0.1 0.4-0.1 0.7-0.1 1.1h-0.7v-3z"></path><path fill="#766520" d="m15.2 14.1h1.4v0.4h-1.4v-0.4z"></path><path fill="#eec417" d="m32.5 10v0.3c0 1.3-0.1 2.7-0.3 4-0.2 0.4-0.3 0.9-0.2 1.4v0.2c-0.2 0.2-0.3 0.5-0.2 0.8v0.2c-0.1 0.1-0.2 0.2-0.3 0.3 0-0.2-0.1-0.3-0.2-0.4 0.1-0.2 0.1-0.3 0-0.4l-0.1 0.1c-0.1-0.3-0.1-0.6 0-0.9 0.1 0 0.2 0 0.4 0l-0.2-0.4c-0.1-0.7-0.1-1.5-0.1-2.2v-1.7c0.1-0.5 0.2-1 0.3-1.5 0.1-0.8 0.2-1.7 0.2-2.7l0.2 2.2c0 0.1 0.2 0.2 0.3 0.2 0 0.2 0.1 0.3 0.2 0.5z"></path><path fill="#a79659" d="m17.7 13.7c0 0.8 0 1.6 0.1 2.4 0 0-0.1-0.1-0.1-0.2-0.1-0.8-0.1-1.5 0-2.2z"></path><path fill="#f5d74d" d="m18.1 13.3c0.7 0 1.5 0 2.3 0.1 0.1 0.1 0.2 0.1 0.2 0.2 0.1 0.8 0 1.6 0 2.4-0.1 0.1-0.1 0.1-0.2 0.1-0.8 0.1-1.5 0.2-2.3 0.2-0.2 0-0.2-0.1-0.3-0.2-0.1-0.8-0.1-1.6-0.1-2.4 0.1-0.2 0.2-0.3 0.4-0.4z"></path><path fill="#1f1e20" d="m18.5 14.2h1.2v1.3-1.3h-1.2z"></path><path fill="#6f5d15" d="m18.5 14.2c0.4-0.1 0.9-0.1 1.4-0.1 0 0.5 0 0.9-0.2 1.4v-1.3h-1.2z"></path><path fill="#e7d064" d="m23.1 13.3h0.8v3.3c0 0.1 0 0.2 0 0.2-0.2-0.2-0.4-0.3-0.6-0.5h0.5v-2.9h-0.6c0.1 0.5 0 1-0.1 1.4v-1.5z"></path><path fill="#e9ca51" d="m17.3 15c-0.2 0.2-0.4 0.3-0.7 0.3 0.3 0.3 0.7 0.7 1 1-0.4 0.1-0.8 0.1-1.2 0-0.2-0.3-0.5-0.6-0.8-0.8 0.1 0 0.2 0 0.3-0.1 0.1-0.2 0.3-0.3 0.5-0.4 0.3 0.1 0.6 0.1 0.9 0z"></path><path fill="#f1cf4a" d="m29.2 16.1h0.1v1.5c-0.2 0-0.3-0.1-0.5-0.1-0.2 0.2-0.5 0.3-0.8 0.3v-0.9c-1-0.1-1.9-0.1-2.8-0.1-0.3 0.4-0.2 0.6 0.3 0.5 0.1 0.3 0.1 0.5 0 0.8-0.2-0.5-0.4-0.4-0.4 0.1-0.1-0.3-0.2-0.5-0.2-0.8-0.4-0.2-0.4-0.4-0.1-0.7-0.1-0.1-0.2-0.1-0.3-0.1v-0.8c1.4 0 2.8 0 4.2 0.1 0.2 0.1 0.3 0.2 0.5 0.2z"></path><path fill="#f3d24a" d="m7.1 15.6h4.4v1.1c-1.3 0-2.6 0-3.9 0.1v0.4h0.3v0.4c-0.4 0.2-0.8 0.1-1.1-0.2-0.1-0.4-0.1-0.8-0.1-1.3 0.1-0.2 0.2-0.4 0.4-0.5z"></path><path fill="#957f39" d="m20.4 16.1c0 0.1 0 0.2-0.1 0.2-0.8 0.1-1.5 0.1-2.2 0 0.8 0 1.5-0.1 2.3-0.2z"></path><path fill="#98852a" d="m32 15.9c0 0.3-0.1 0.6-0.2 0.8-0.1-0.3 0-0.6 0.2-0.8z"></path><path fill="#d6bc57" d="m7.1 15.6c1.5-0.1 3-0.2 4.5-0.1v1.3h-3.6v2.3c-0.1-0.5-0.1-1-0.1-1.5v-0.4h-0.3v-0.4c1.3-0.1 2.6-0.1 3.9-0.1v-1.1h-4.4z"></path><path fill="#ddb61e" d="m31.3 13c0 0.7 0 1.5 0.1 2.2l0.2 0.4c-0.2 0-0.3 0-0.4 0-0.1 0.3-0.1 0.6 0 0.9l0.1-0.1c0.1 0.1 0.1 0.2 0 0.4 0.1 0.1 0.2 0.2 0.2 0.4 0.1-0.1 0.2-0.2 0.3-0.3-0.3 1.5-0.8 2.9-1.3 4.3-0.2 0.2-0.3 0.4-0.5 0.6-0.1 0.1-0.2 0.1-0.4 0 0.3-0.2 0.5-0.5 0.6-0.9-0.1-0.5-0.2-0.5-0.4 0 0-0.1-0.1-0.3 0-0.4 0.2-0.8 0.5-1.7 0.6-2.6 0.3-0.7 0.4-1.4 0.5-2.2 0.1-0.9 0.3-1.8 0.4-2.7z"></path><path fill="#e7c347" d="m11.5 18.4c0 0-0.1-0.1-0.1-0.1-0.4 0.1-0.7 0.1-1.1 0.2 0.2 0.2 0.2 0.3 0.2 0.6h-0.3v-0.5c-0.5 0-1.1 0-1.6 0 0.2-0.3 0.4-0.5 0.7-0.7 0.2-0.1 0.5-0.2 0.7-0.5 0.5 0.1 1 0.1 1.5 0v1z"></path><path fill="#e2c55b" d="m24.4 15.6c1.4 0 2.9 0 4.3 0 0.3 0.1 0.4 0.3 0.5 0.5-0.2 0-0.3-0.1-0.5-0.2-1.4-0.1-2.8-0.1-4.2-0.1v0.8c0.1 0 0.2 0 0.3 0.1-0.3 0.3-0.3 0.5 0.1 0.7 0 0.3 0.1 0.5 0.2 0.8 0-0.5 0.2-0.6 0.4-0.1 0.1-0.3 0.1-0.5 0-0.8-0.5 0.1-0.6-0.1-0.3-0.5 0.9 0 1.8 0 2.8 0.1-0.8 0-1.6 0-2.3 0.1v1.6c-0.1-0.1-0.2-0.2-0.3-0.3-0.4 0.1-0.7 0.1-1 0.2v-2.9z"></path><path fill="#dbaa21" d="m6.7 16.1c0 0.5 0 0.9 0.1 1.3 0.3 0.3 0.7 0.4 1.1 0.2 0 0.5 0 1 0.1 1.5h2.5c0-0.3 0-0.4-0.2-0.6 0.4-0.1 0.7-0.1 1.1-0.2 0 0 0.1 0.1 0.1 0.1v1.9h-4.4c-0.2-0.1-0.4-0.3-0.5-0.6-0.1-1.2 0-2.4 0.1-3.6z"></path><path fill="#c8a64b" d="m11.6 17.3v3.1c-1.5 0.1-3 0-4.5-0.1h4.4v-2.9c-0.5 0.1-1 0.1-1.5 0-0.2 0.3-0.5 0.4-0.7 0.5 0.1-0.2 0.3-0.4 0.5-0.6 0.6 0 1.2 0 1.8 0z"></path><path fill="#11100f" d="m24.4 20.5c0.6 0.1 1.3 0.1 2 0.1 2.6 0.5 3.5-0.5 2.9-3v-1.5c0.4 0.9 0.6 1.8 0.6 2.7 0.1 0 0.2-0.1 0.2-0.2 0.1-0.3 0.2-0.5 0.3-0.7-0.1 0.9-0.4 1.8-0.6 2.6-0.7 2-1.7 3.9-2.9 5.7l-0.4 0.5c-0.1-0.2 0-0.4 0.2-0.6-0.2-0.2-0.2-0.3 0-0.5 0 0.1 0.1 0.2 0.2 0.3 0.1-0.2 0.2-0.5 0.1-0.8-0.1 0.5-0.2 0.5-0.3 0h-0.3c-0.2 0.4-0.3 0.8-0.3 1.3-0.4-0.3-0.5-0.7-0.2-1.1-0.3 0-0.6 0.2-0.7 0.6l-0.1-0.4c-1.8 0.1-3.6 0.1-5.4 0.1 0.1-0.4 0-0.8 0-1.2-0.1 0.3-0.2 0.3-0.2 0-0.1 0.2-0.1 0.5-0.1 0.7h-0.3c-0.1 0.7-0.2 2-0.2 3.9l-0.1-3.9-0.1 4.3c0 1.4 0.1 2.9 0.3 4.3-0.1 0.1-0.2 0.2-0.4 0.2l-0.2-9.8c-0.3 0-0.6 0-0.9 0.1h-0.1v-0.3c0.7 0.1 1.3-0.1 1.8-0.6-0.3-0.3-0.3-0.6 0-0.9-0.1-0.1-0.2-0.1-0.4-0.1 0.1 0 0.1-0.1 0.2-0.2-0.2-0.1-0.4-0.2-0.6-0.3-0.1-0.2-0.3-0.3-0.5-0.5-0.1 0.2-0.2 0.3-0.3 0.5-0.1 0.1-0.2 0.1-0.3 0.1h-0.9c-0.2-0.2-0.4-0.4-0.6-0.6-0.2 0.4-0.5 0.7-1 0.7 0.1 0.2 0.2 0.3 0.4 0.4 0 0.3 0.1 0.5 0 0.7 0.2 0 0.3 0 0.4-0.1 0.3 0 0.5 0.1 0.7 0.2-0.1 0-0.2 0-0.3 0.1 0.4 0.1 0.8 0.2 1.2 0.3 0 0.2 0 0.4-0.2 0.6-0.2-0.1-0.3-0.1-0.3 0.2 0 0.3 0.1 0.5 0.5 0.4v3.9c-0.2-0.8-0.3-1.6-0.4-2.5l-0.2-0.6c-0.3 0.4-0.4 0.9-0.4 1.3-0.1-0.4-0.1-0.9-0.1-1.3-1.8 0-3.6 0-5.4 0.1-0.1-0.2-0.2-0.3-0.3-0.5-0.1-0.1-0.2-0.1-0.3-0.1 0 0.5 0 1 0 1.4-0.2-0.3-0.4-0.6-0.7-0.7l-0.1 0.3c0.2 0.6 0.6 1.1 1 1.6-0.1 0-0.1 0.1-0.1 0.1-0.7-0.8-1.3-1.7-1.9-2.7-0.7-1.1-1.3-2.3-1.7-3.6 0-0.2 0.1-0.4 0.2-0.6-0.1-0.2-0.1-0.5 0-0.7l0.2 0.3c1.6 0.1 3.1 0 4.6-0.1v-3.1c0.1-0.2 0.2-0.3 0.3-0.4-0.1 1.1 0 2.1 0.1 3.1 0 0.2 0.1 0.4 0.3 0.5 1 0.1 1.9 0.1 2.8 0 0.3-0.2 0.4-0.4 0.4-0.6 0 0 0.1 0 0.2 0.1 0.1-0.9 0.1-1.8 0.2-2.7 0 0.1 0.1 0.1 0.2 0.1v3.1c0.4 0.1 0.7 0 1.1-0.1v-1.1h1.5v1.1c0.3 0.1 0.7 0.2 1 0.1v-3.1c0.2-0.2 0.3-0.4 0.5-0.5-0.1-0.1-0.3-0.2-0.5-0.3 0.3-0.1 0.6-0.2 0.8-0.1-0.1 0.2-0.1 0.3-0.1 0.4v3.5c0.3 0.1 0.7 0.2 1 0.1 0-0.4 0-0.9 0.1-1.3 0.4 0.4 0.8 0.9 1.3 1.3 1.4 0.2 1.6-0.1 0.4-0.9 0-0.1-0.1-0.2-0.2-0.2 0.3-0.1 0.6-0.2 0.9-0.4 0-0.6 0-1.2 0-1.7-0.1-0.1-0.2-0.2-0.2-0.3 0.1 0 0.3 0 0.4 0-0.1-0.1-0.1-0.2-0.1-0.4 0-1.1 0-2.1 0.1-3.2 0.1 2.4 0.2 4.8 0.3 7.1z"></path><path fill="#d5a629" d="m12.9 18.6c-0.1 0.3 0 0.6 0.1 0.9h1.5c0.1-0.2 0.1-0.4 0.1-0.7 0.2 0 0.5 0 0.9 0v1.1c0 0.2-0.1 0.4-0.4 0.6-0.9 0.1-1.8 0.1-2.8 0-0.2-0.1-0.3-0.3-0.3-0.5v-1.5c0.1 0 0.1 0 0.2-0.1 0.2 0.1 0.5 0.2 0.7 0.2z"></path><path fill="#d8a721" d="m29.3 17.6c0.6 2.5-0.3 3.5-2.9 3-0.7 0-1.4 0-2-0.1v-2c0.3-0.1 0.6-0.1 1-0.2 0.1 0.1 0.2 0.2 0.3 0.3v0.6c0.7 0.1 1.5 0.1 2.3 0.1v-1.5c0.3 0 0.6-0.1 0.8-0.3 0.2 0 0.3 0.1 0.5 0.1z"></path><path fill="#daaa24" d="m23.2 19.6c1.2 0.8 1 1.1-0.4 0.9-0.5-0.4-0.9-0.9-1.3-1.3 0-0.1 0-0.1-0.1-0.1 0 0.5-0.1 0.9-0.3 1.3-0.2-0.1-0.4-0.1-0.6-0.1v-1.5c0.8 0 1.6-0.1 2.4-0.2 0.2 0.1 0.3 0.2 0.3 0.2 0.4-0.4 0.5-0.4 0.5 0.2-0.3 0.1-0.5 0.1-0.8 0.2-0.1 0.3 0.1 0.4 0.3 0.4z"></path><path fill="#947c3a" d="m21.5 19.2c-0.1 0.4-0.1 0.9-0.1 1.3-0.3 0.1-0.7 0-1-0.1h0.7c0.2-0.4 0.3-0.8 0.3-1.3 0.1 0 0.1 0 0.1 0.1z"></path><path fill="#d8ab26" d="m19.6 18.8v1.6h-0.9v-1.1h-1.5v1.1h-0.9v-1.4c0.6-0.1 1.2-0.2 1.9-0.2 0-0.4 0.1-0.4 0.3 0 0.3 0.1 0.6 0 0.8-0.2 0.1 0.1 0.2 0.2 0.3 0.2z"></path><path fill="#a88931" d="m16.1 17.4h0.2v3h0.9c-0.4 0.1-0.7 0.2-1.1 0.1v-3.1z"></path><path fill="#a88c31" d="m19.4 17.2c0.2 0 0.3 0.1 0.3 0.2v3.1c-0.3 0.1-0.7 0-1-0.1h0.9v-1.6c0.1-0.5 0-1.1-0.2-1.6z"></path><path fill="#e5c356" d="m19.4 17.2c0.2 0.5 0.3 1.1 0.2 1.6-0.1 0-0.2-0.1-0.3-0.2-0.2 0.2-0.5 0.3-0.8 0.2-0.2-0.4-0.3-0.4-0.3 0-0.7 0-1.3 0.1-1.9 0.2v-1.6c0-0.2 0.1-0.3 0.3-0.4 0.9-0.1 1.7-0.1 2.6 0 0.1 0 0.2 0.1 0.2 0.2z"></path><path fill="#e7c450" d="m23.5 17h0.2c0 0.1 0.1 0.2 0.2 0.3 0 0.5 0 1.1 0 1.7-0.3 0.2-0.6 0.3-0.9 0.4 0.1 0 0.2 0.1 0.2 0.2-0.2 0-0.4-0.1-0.3-0.4 0.3-0.1 0.5-0.1 0.8-0.2 0-0.6-0.1-0.6-0.5-0.2 0 0-0.1-0.1-0.2-0.2-0.9 0.1-1.7 0.2-2.5 0.2v1.5c0.2 0 0.4 0 0.6 0.1h-0.7v-3.2c1-0.2 2-0.2 3.1-0.2z"></path><path fill="#524526" d="m21.3 17.9h1.7v0.4h-1.7v-0.4z"></path><path fill="#342b19" d="m17.2 17.9h1.5v0.4h-1.5v-0.4z"></path><path fill="#eac754" d="m15.5 17v1.8c-0.4 0-0.7 0-0.9 0v-1.8h0.9z"></path><path fill="#776026" d="m25.7 17c0.7-0.1 1.5-0.1 2.3-0.1v2.4c-0.8 0-1.6 0-2.3-0.1h2.1v-2.2h-2.1z"></path><path fill="#9c8b52" d="m15.5 17h-0.9v1.8c0 0.3 0 0.5-0.1 0.7v-2.6c0.3 0 0.7 0 1 0.1z"></path><path fill="#7c6a2e" d="m11.9 16.9h1.1v2.6c-0.1-0.3-0.2-0.6-0.1-0.9v-1.6h-0.9v3c-0.1-1-0.2-2-0.1-3.1z"></path><path fill="#eccb57" d="m12.9 18.6c-0.2 0-0.5-0.1-0.7-0.2-0.1 0.1-0.1 0.1-0.2 0.1v-1.5h0.9v1.6z"></path><path fill="#191114" d="m25.7 17h2.1v2.2h-2.1v-2.2z"></path><path fill="#1b1e17" d="m25.9 17.3c0.6-0.2 1.2-0.2 1.8-0.1-0.1 0.1-0.2 0.2-0.2 0.4 0 0.2 0.1 0.5 0.1 0.7-0.8 0-0.9 0.1-0.1 0.4-0.3 0.3-0.6 0.4-1 0.4l-0.6-0.1c0.3-0.2 0.5-0.3 0.8-0.4 0-0.2 0-0.4 0.2-0.7 0.1 0.3 0.2 0.3 0.3 0-0.1-0.2-0.2-0.4-0.1-0.6-0.1 0.1-0.2 0.3-0.2 0.5-0.1-0.1-0.2-0.1-0.3 0-0.1 0.3-0.1 0.5-0.3 0.7-0.1-0.3-0.2-0.6-0.3-0.8 0.1-0.2 0.1-0.3 0.3-0.4-0.1 0-0.3 0-0.4 0z"></path><path fill="#988950" d="m20.4 16.9c1.1 0 2.1 0 3.1 0.1-1.1 0-2.1 0-3.1 0.2v-0.3z"></path><path fill="#665829" d="m16.4 21.9h0.9l-0.3 0.2c0 0-0.1 0-0.1-0.1-0.1 0.1-0.1 0.2-0.2 0.2-0.1-0.1-0.2-0.3-0.3-0.3z"></path><path fill="#cba631" d="m20.3 21.5c0.1 0.1 0.2 0.2 0.2 0.3 0.7 0 0.8 0.2 0.3 0.6 0 0.3-0.1 0.6-0.2 0.8-0.3-0.3-0.7-0.3-1 0l-0.2-0.1c0.1-0.2 0.1-0.4 0.1-0.7 0.2 0.1 0.3 0.2 0.2 0.4 0.6 0.1 0.9-0.1 0.8-0.7 0.1 0 0.3 0 0.4-0.1-0.2 0-0.4 0-0.6 0v-0.5z"></path><path fill="#e0b31e" d="m4.6 13.1h0.1c-0.1 0.2 0 0.4 0.1 0.6 0 1.2 0.2 2.4 0.5 3.6 0.3 1.5 0.7 2.9 1.3 4.2 0.4 1.3 1 2.5 1.7 3.6v0.5c-0.2-0.1-0.4-0.1-0.5 0-0.1-0.5-0.3-0.6-0.7-0.5-1.5-2.7-2.6-5.7-3.1-8.8 0.1 0.1 0.2 0.2 0.3 0.4 0.1-0.2 0.2-0.2 0.4-0.2-0.1 0.2 0 0.3 0.1 0.4 0.1-0.6 0.1-1.1-0.2-1.7 0-0.7-0.1-1.4 0-2.1z"></path><path fill="#e7bc1b" d="m20.3 21.5v0.5c0.2 0 0.4 0 0.6 0-0.1 0.1-0.3 0.1-0.4 0.1 0.1 0.6-0.2 0.8-0.8 0.7 0.1-0.2 0-0.3-0.2-0.4-0.5-0.3-0.4-0.5 0.2-0.6 0.1-0.2 0.3-0.3 0.4-0.5 0.2 0.1 0.2 0.1 0.2 0.2z"></path><path fill="#e3b91e" d="m16.4 21.9c0.1 0 0.2 0.2 0.3 0.3 0 0.1-0.1 0.2-0.2 0.2-0.1 0.2-0.2 0.4-0.2 0.6-0.3-0.1-0.5-0.1-0.7 0-0.1 0.1-0.2 0.1-0.4 0.1 0.1-0.2 0-0.4 0-0.7-0.2-0.1-0.3-0.2-0.4-0.4 0.5 0 0.8-0.3 1-0.7 0.2 0.2 0.4 0.4 0.6 0.6z"></path><path fill="#ddb425" d="m18.8 22.3l-0.2 0.1c-0.1 0.2-0.1 0.4-0.2 0.6-0.2-0.1-0.4-0.1-0.6 0-0.1 0.2-0.3 0.2-0.5 0.2 0.2-0.4 0.1-0.8-0.3-1.1l0.3-0.2c0.1 0 0.2 0 0.3-0.1 0.1-0.2 0.2-0.3 0.3-0.5 0.2 0.2 0.4 0.3 0.5 0.5 0.2 0.1 0.4 0.2 0.6 0.3-0.1 0.1-0.1 0.2-0.2 0.2z"></path><path fill="#dbaf20" d="m29.8 20.5c-0.1 0.1 0 0.3 0 0.4 0.2-0.5 0.3-0.5 0.4 0-0.1 0.4-0.3 0.7-0.6 0.9 0.2 0.1 0.3 0.1 0.4 0 0.2-0.2 0.3-0.4 0.5-0.6-0.6 2-1.5 3.8-2.8 5.4-0.2 0-0.3 0-0.2 0.2-0.2 0.1-0.4 0.2-0.5 0.4l-0.1-0.3c-0.1 0.3-0.2 0.3-0.4 0.2 0.4-0.2 0.5-0.5 0.4-0.9 1.2-1.8 2.2-3.7 2.9-5.7z"></path><path fill="#937c37" d="m16.5 22.4c0 0.4 0 0.6-0.2 0.8-0.2-0.1-0.4-0.2-0.7-0.2 0.2-0.1 0.4-0.1 0.7 0 0-0.2 0.1-0.4 0.2-0.6z"></path><path fill="#0e0c14" d="m17 22.1c0.4 0.3 0.5 0.7 0.3 1.1 0.2 0 0.4 0 0.5-0.2 0.3 0 0.5 0.1 0.7 0.2 0.1-0.2 0.2-0.5 0.1-0.8l0.2-0.1c0.2 0 0.3 0 0.4 0.1-0.3 0.3-0.3 0.6 0 0.9-0.5 0.5-1.1 0.7-1.8 0.6v0.3c0 2.9 0 5.7-0.1 8.6-0.1-1.3-0.2-2.7-0.1-4.1v-3.9c-0.4 0.1-0.5-0.1-0.5-0.4 0-0.3 0.1-0.3 0.3-0.2 0.2-0.2 0.2-0.4 0.2-0.6-0.4-0.1-0.8-0.2-1.2-0.3 0.1-0.1 0.2-0.1 0.3-0.1 0.2-0.2 0.2-0.4 0.2-0.8 0.1 0 0.2-0.1 0.2-0.2 0.1 0 0.1-0.1 0.2-0.2 0 0.1 0.1 0.1 0.1 0.1z"></path><path fill="#a88a3a" d="m18.6 22.4c0.1 0.3 0 0.6-0.1 0.8-0.2-0.1-0.4-0.2-0.7-0.2 0.2-0.1 0.4-0.1 0.6 0 0.1-0.2 0.1-0.4 0.2-0.6z"></path><path fill="#070607" d="m17.4 24.2h0.1v6c0 1.3 0 2.6-0.1 3.8-2.8-1.5-5.2-3.6-7.2-6.2 0 0 0-0.1 0.1-0.1-0.4-0.5-0.8-1-1-1.6l0.1-0.3c0.3 0.1 0.5 0.4 0.7 0.7 0-0.4 0-0.9 0-1.4 0.1 0 0.2 0 0.3 0.1 0.1 0.2 0.2 0.3 0.3 0.5 1.8-0.1 3.6-0.1 5.4-0.1 0 0.4 0 0.9 0.1 1.3 0-0.4 0.1-0.9 0.4-1.3l0.2 0.6c0.1 0.9 0.2 1.7 0.4 2.5-0.1 1.4 0 2.8 0.1 4.1 0.1-2.9 0.1-5.7 0.1-8.6z"></path><path fill="#62571e" d="m18.4 24.1l0.2 9.8c-0.1 0.2-0.2 0.1-0.2-0.1v-9.7z"></path><path fill="#080607" d="m26.5 26.7c-1.6 2.4-3.5 4.4-5.9 6-0.5 0.4-1.1 0.7-1.6 1-0.2-1.4-0.3-2.9-0.3-4.3l0.1-4.3 0.1 3.9c0-1.9 0.1-3.2 0.2-3.9h0.3c0-0.2 0-0.5 0.1-0.7 0 0.3 0.1 0.3 0.2 0 0 0.4 0.1 0.8 0 1.2 1.8 0 3.6 0 5.4-0.1l0.1 0.4c0.1-0.4 0.4-0.6 0.7-0.6-0.3 0.4-0.2 0.8 0.2 1.1 0-0.5 0.1-0.9 0.3-1.3h0.3c0.1 0.5 0.2 0.5 0.3 0 0.1 0.3 0 0.6-0.1 0.8-0.1-0.1-0.2-0.2-0.2-0.3-0.2 0.2-0.2 0.3 0 0.5-0.2 0.2-0.3 0.4-0.2 0.6z"></path><path fill="#deb93b" d="m18.4 24.1v9.7c-0.1-0.8-0.2-1.6-0.1-2.5v-7.1h-0.7v6h-0.1v-6c0.3-0.1 0.6-0.1 0.9-0.1z"></path><path fill="#fbd207" d="m18.3 27.7c-0.1 0.4-0.2 0.8-0.2 1.3 0-0.7-0.1-1.4-0.2-2.1 0 0.7-0.1 1.3-0.3 1.8v-4.5h0.7v3.5z"></path><path fill="#d5a724" d="m8.3 25.1c0.6 1 1.2 1.9 1.9 2.7 2 2.6 4.4 4.7 7.2 6.2 0.1-1.2 0.1-2.5 0.1-3.8h0.1c0 0.5 0 1.1 0.1 1.6 0.1-0.4 0.2-0.8 0.2-1.3l0.1 1.8c0-0.3 0.1-0.7 0.3-1-0.1 0.9 0 1.7 0.1 2.5 0 0.2 0.1 0.3 0.2 0.1 0.2 0 0.3-0.1 0.4-0.2 0.5-0.3 1.1-0.6 1.6-1 2.4-1.6 4.3-3.6 5.9-6l0.4-0.5c0.1 0.4 0 0.7-0.4 0.9 0.2 0.1 0.3 0.1 0.4-0.2l0.1 0.3c0.1-0.2 0.3-0.3 0.5-0.4-0.1-0.2 0-0.2 0.2-0.2-2.3 3.8-5.5 6.8-9.4 8.8-0.3 0.1-0.5 0.1-0.8 0-0.5-0.2-0.9-0.4-1.4-0.7-3.7-2.5-6.7-5.6-9-9.6 0.4-0.1 0.6 0 0.7 0.5 0.1-0.1 0.3-0.1 0.5 0v-0.5z"></path><path fill="#e9be16" d="m18.3 27.7v3.6c-0.2 0.3-0.3 0.7-0.3 1l-0.1-1.8c0 0.5-0.1 0.9-0.2 1.3-0.1-0.5-0.1-1.1-0.1-1.6v-1.5c0.2-0.5 0.3-1.1 0.3-1.8 0.1 0.7 0.2 1.4 0.2 2.1 0-0.5 0.1-0.9 0.2-1.3z"></path></svg>