<svg xmlns="http://www.w3.org/2000/svg" width="200" height="200" viewBox="0 0 200 200" version="1.1">
	<path fill-opacity="0.600" d="M -0 100.005 L -0 200.010 100.250 199.755 L 200.500 199.500 200.755 99.750 L 201.010 0 100.505 0 L 0 0 -0 100.005 M 0.481 100.500 C 0.481 155.500, 0.602 178.147, 0.750 150.826 C 0.898 123.506, 0.898 78.506, 0.750 50.826 C 0.602 23.147, 0.481 45.500, 0.481 100.500" stroke="none" fill="black" fill-rule="evenodd"/>
	<path fill-opacity="0.039" d="M -0 100.005 L -0 200.010 100.250 199.755 L 200.500 199.500 200.755 99.750 L 201.010 0 100.505 0 L 0 0 -0 100.005 M 0.481 100.500 C 0.481 155.500, 0.602 178.147, 0.750 150.826 C 0.898 123.506, 0.898 78.506, 0.750 50.826 C 0.602 23.147, 0.481 45.500, 0.481 100.500 M 91.500 22.669 C 86.629 25.249, 80.109 30.920, 75.916 36.226 C 73.762 38.950, 72 41.513, 72 41.919 C 72 42.326, 75.615 43.436, 80.034 44.386 C 86.917 45.865, 88.458 45.918, 90.784 44.759 C 94.368 42.974, 102.789 42.583, 106.522 44.030 C 111.299 45.881, 114.270 46.247, 113.426 44.880 C 112.965 44.135, 113.118 43.955, 113.835 44.398 C 115.096 45.177, 126.791 43.148, 127.482 42.029 C 128.324 40.667, 114.669 26.851, 109.619 23.955 C 103.706 20.564, 96.448 20.048, 91.500 22.669 M 123.451 69.525 C 125.932 71.977, 132.741 80.956, 136.452 86.670 C 137.941 88.964, 140.870 91.972, 142.960 93.355 C 145.050 94.738, 150.827 99.740, 155.799 104.471 C 160.770 109.202, 165.069 112.697, 165.353 112.238 C 165.953 111.266, 164.671 108.904, 163.412 108.665 C 162.936 108.574, 162.424 107.694, 162.273 106.708 C 162.123 105.722, 161.100 103.950, 160 102.769 C 157.919 100.536, 157.269 98.430, 158.989 99.493 C 159.550 99.840, 159.726 99.450, 159.396 98.590 C 159.077 97.757, 157.957 96.804, 156.908 96.471 C 154.914 95.838, 154.220 93, 156.059 93 C 156.641 93, 156.838 92.547, 156.495 91.992 C 156.109 91.368, 155.299 91.558, 154.365 92.492 C 152.291 94.566, 151.744 94.381, 152.540 91.875 C 152.992 90.449, 152.851 89.974, 152.111 90.431 C 151.486 90.818, 150.518 90.036, 149.876 88.627 C 148.591 85.806, 138.267 77.160, 133 74.493 C 131.075 73.518, 129.198 72.253, 128.830 71.681 C 128.461 71.109, 127.409 70.531, 126.492 70.396 C 125.575 70.261, 124.054 69.555, 123.113 68.826 C 122.172 68.097, 122.324 68.411, 123.451 69.525 M 74.972 69.533 C 74.272 70.377, 73.215 70.905, 72.621 70.707 C 72.028 70.509, 70.639 71.190, 69.535 72.219 C 68.430 73.248, 66.396 74.688, 65.013 75.420 C 63.631 76.152, 61.081 77.493, 59.348 78.400 C 57.614 79.307, 55.929 80.742, 55.605 81.588 C 55.280 82.434, 54.561 82.847, 54.007 82.504 C 53.453 82.162, 53 82.610, 53 83.500 C 53 84.390, 52.582 84.860, 52.072 84.544 C 51.562 84.229, 50.856 84.877, 50.505 85.985 C 50.153 87.093, 49.419 88, 48.874 88 C 48.328 88, 48.131 88.403, 48.435 88.895 C 48.740 89.388, 48.345 90.037, 47.559 90.339 C 46.773 90.641, 45.879 90.350, 45.574 89.694 C 45.268 89.037, 45.269 89.510, 45.575 90.744 C 46.033 92.593, 45.811 92.868, 44.315 92.306 C 42.802 91.739, 42.702 91.875, 43.714 93.122 C 44.692 94.327, 44.562 94.930, 43.048 96.227 C 42.015 97.112, 40.962 97.628, 40.708 97.375 C 40.455 97.121, 39.972 97.632, 39.635 98.509 C 39.280 99.433, 39.439 99.847, 40.011 99.493 C 41.654 98.477, 41.121 100.492, 39.200 102.561 C 36.992 104.938, 35.516 108.417, 37.141 107.413 C 37.814 106.997, 38.075 107.275, 37.796 108.111 C 37.542 108.875, 36.921 109.507, 36.417 109.515 C 34.540 109.547, 33.105 111.111, 33.651 112.532 C 33.960 113.339, 33.824 114, 33.348 114 C 32.871 114, 31.906 115.013, 31.203 116.250 C 30.500 117.487, 32.176 116.069, 34.928 113.098 C 37.679 110.127, 39.688 107.304, 39.391 106.824 C 39.094 106.343, 39.278 106.074, 39.800 106.225 C 40.322 106.376, 42.268 105.139, 44.124 103.475 C 45.981 101.812, 50.763 97.823, 54.750 94.613 C 58.737 91.402, 62 88.402, 62 87.947 C 62 87.492, 64.250 84.184, 67 80.596 C 72.015 74.053, 72.996 72.266, 70.845 73.595 C 70.146 74.028, 69.962 73.871, 70.378 73.198 C 70.755 72.587, 71.612 72.281, 72.282 72.517 C 72.952 72.753, 74.309 71.833, 75.297 70.473 C 77.260 67.770, 77.018 67.069, 74.972 69.533" stroke="none" fill="black" fill-rule="evenodd"/>
	<path fill-opacity="0.306" d="M -0 100.005 L -0 200.010 100.250 199.755 L 200.500 199.500 200.755 99.750 L 201.010 0 100.505 0 L 0 0 -0 100.005 M 0.481 100.500 C 0.481 155.500, 0.602 178.147, 0.750 150.826 C 0.898 123.506, 0.898 78.506, 0.750 50.826 C 0.602 23.147, 0.481 45.500, 0.481 100.500 M 93.593 21.648 C 89.670 22.850, 86.912 24.926, 79.843 31.995 C 74.979 36.859, 71 41.216, 71 41.677 C 71 42.139, 74.840 43.509, 79.534 44.723 C 84.228 45.936, 90.340 48.070, 93.116 49.464 C 95.893 50.859, 98.614 52, 99.165 52 C 99.715 52, 103.260 50.642, 107.043 48.981 C 110.826 47.321, 117.088 45.247, 120.960 44.373 C 124.832 43.498, 128 42.475, 128 42.098 C 128 40.808, 118.503 30.180, 114.500 26.992 C 106.589 20.689, 101.207 19.314, 93.593 21.648 M 88 52.735 C 88 53.491, 81.778 55.141, 73.250 56.645 C 71.463 56.961, 70 57.524, 70 57.897 C 70 58.269, 69.042 58.647, 67.870 58.735 C 66.699 58.823, 64.697 59.876, 63.421 61.074 C 62.131 62.286, 60.428 62.994, 59.583 62.670 C 58.748 62.350, 57.755 62.587, 57.378 63.198 C 56.933 63.918, 57.185 64.040, 58.095 63.545 C 58.868 63.124, 58.288 63.842, 56.807 65.140 C 51.884 69.454, 35.972 97.711, 26.059 119.742 C 23.276 125.925, 21 131.252, 21 131.579 C 21 131.906, 23.621 128.647, 26.825 124.337 C 34.542 113.955, 46.725 101.128, 54.219 95.494 C 57.549 92.991, 62.097 88.368, 64.325 85.222 C 70.892 75.947, 78.671 67.491, 86.330 61.300 C 90.273 58.113, 93.775 55.128, 94.112 54.667 C 94.448 54.206, 95.011 53.868, 95.362 53.915 C 95.713 53.962, 96 53.775, 96 53.500 C 96 53.225, 96 52.786, 96 52.525 C 96 52.263, 94.964 52.443, 93.697 52.925 C 92.330 53.445, 90.705 53.415, 89.697 52.851 C 88.764 52.328, 88 52.276, 88 52.735 M 103.648 52.685 C 102.659 53.674, 102.876 55.195, 103.915 54.553 C 104.418 54.242, 104.980 54.330, 105.165 54.749 C 105.349 55.167, 108.425 57.835, 112 60.677 C 120.511 67.443, 127.596 74.906, 133.490 83.314 C 136.117 87.061, 141.244 92.511, 144.883 95.424 C 153.745 102.518, 166.437 115.905, 172.449 124.500 C 181.319 137.179, 181.105 136.424, 168.472 110.500 C 154.195 81.202, 145.526 66.840, 140.574 64.281 C 138.883 63.407, 137.042 62.068, 136.483 61.304 C 135.923 60.541, 134.218 59.820, 132.693 59.703 C 131.168 59.586, 129.601 59.035, 129.210 58.479 C 128.490 57.454, 116.984 54.131, 111.500 53.363 C 109.850 53.132, 107.554 52.739, 106.398 52.490 C 105.243 52.241, 104.005 52.328, 103.648 52.685 M 60 61.059 C 60 61.641, 60.450 61.840, 61 61.500 C 61.550 61.160, 62 60.684, 62 60.441 C 62 60.198, 61.550 60, 61 60 C 60.450 60, 60 60.477, 60 61.059 M 48.079 120.668 C 48.036 121.311, 47.741 122.661, 47.424 123.668 C 46.877 125.409, 46.906 125.412, 47.995 123.712 C 48.626 122.729, 48.920 121.379, 48.650 120.712 C 48.295 119.837, 48.136 119.825, 48.079 120.668 M 151.010 121.884 C 151.004 123.195, 151.450 126.008, 152 128.134 C 152.550 130.260, 153.494 133.912, 154.097 136.250 C 155.204 140.536, 159.740 147.593, 160.743 146.590 C 161.041 146.292, 160.716 145.362, 160.020 144.524 C 158.991 143.285, 159.011 142.997, 160.128 142.985 C 161.194 142.973, 161.220 142.792, 160.244 142.172 C 159.553 141.733, 158.349 138.928, 157.568 135.937 C 155.649 128.590, 151.023 118.676, 151.010 121.884 M 45.675 128.107 C 45.471 128.873, 44.723 131.075, 44.015 133 C 43.306 134.925, 42.675 137.512, 42.613 138.750 C 42.551 139.988, 41.911 141, 41.191 141 C 40.471 141, 40.172 141.470, 40.527 142.044 C 40.882 142.618, 40.796 143.652, 40.336 144.341 C 39.876 145.030, 40.486 144.474, 41.691 143.105 C 43.963 140.523, 47.782 128.448, 46.676 127.343 C 46.330 126.997, 45.880 127.341, 45.675 128.107" stroke="none" fill="black" fill-rule="evenodd"/>
	<path fill-opacity="0.265" d="M -0 100.005 L -0 200.010 100.250 199.755 L 200.500 199.500 200.755 99.750 L 201.010 0 100.505 0 L 0 0 -0 100.005 M 0.481 100.500 C 0.481 155.500, 0.602 178.147, 0.750 150.826 C 0.898 123.506, 0.898 78.506, 0.750 50.826 C 0.602 23.147, 0.481 45.500, 0.481 100.500 M 91.362 22.507 C 86.243 25.058, 79.957 30.470, 74.198 37.285 C 69.897 42.375, 70.029 43.991, 74.750 44.035 L 78.500 44.071 76 45.500 C 73.212 47.094, 70.646 47.521, 73 46 C 74.282 45.172, 74.246 45.028, 72.750 45.015 C 71.787 45.007, 71 45.477, 71 46.059 C 71 46.641, 70.621 46.884, 70.158 46.598 C 66.131 44.109, 37.144 92.601, 22.611 126.141 C 17.290 138.420, 16.639 141.907, 21.128 134.077 C 25.180 127.010, 28.833 122.015, 35.790 114.022 C 42.321 106.519, 54.339 95.320, 55.104 96.024 C 55.389 96.286, 57.122 94.792, 58.955 92.704 C 62.448 88.725, 72.579 83.391, 81.893 80.624 C 94.288 76.943, 109.198 77.610, 123.100 82.468 C 130.822 85.165, 132.966 86.507, 144.500 95.854 C 158.217 106.970, 172.850 123.766, 178.387 134.750 C 179.843 137.637, 181.230 140, 181.469 140 C 183.840 140, 167.215 104.620, 153.452 80.378 C 147.402 69.722, 138.021 55.402, 133.500 49.924 C 131.020 46.918, 126.557 44.538, 125.095 45.441 C 124.493 45.813, 124 45.641, 124 45.059 C 124 44.477, 124.873 44, 125.941 44 C 130.657 44, 128.805 40.593, 118.587 30.471 C 111.965 23.911, 104.913 20, 99.707 20 C 97.884 20, 94.129 21.128, 91.362 22.507 M 120.507 44.989 C 120.157 45.555, 120.558 45.723, 121.448 45.382 C 123.180 44.717, 123.497 44, 122.059 44 C 121.541 44, 120.843 44.445, 120.507 44.989 M 55 97.802 C 55 98.426, 54.371 98.696, 53.601 98.400 C 52.156 97.846, 50.573 99.565, 50.526 101.739 C 50.512 102.420, 50.106 102.946, 49.624 102.906 C 49.142 102.867, 47.962 104.034, 47 105.500 C 46.038 106.966, 44.869 108.094, 44.401 108.008 C 43.933 107.921, 43.368 108.396, 43.145 109.064 C 42.879 109.864, 43.211 109.993, 44.120 109.441 C 44.879 108.980, 44.151 110.043, 42.503 111.802 C 38.941 115.604, 38.658 115.694, 39.536 112.750 C 40.193 110.547, 40.175 110.541, 38.689 112.494 C 37.788 113.677, 37.563 114.730, 38.136 115.084 C 38.740 115.457, 38.653 116.667, 37.905 118.309 C 37.246 119.755, 36.417 120.758, 36.061 120.538 C 35.706 120.318, 35.342 121.114, 35.252 122.307 C 35.122 124.024, 35.284 124.166, 36.029 122.987 C 36.606 122.074, 36.975 121.964, 36.985 122.700 C 36.993 123.360, 36.212 124.359, 35.250 124.920 C 34.288 125.481, 33.849 125.953, 34.276 125.970 C 34.702 125.986, 34.315 127.424, 33.415 129.164 C 32.515 130.905, 31.666 134.417, 31.529 136.970 C 31.391 139.523, 30.750 142.599, 30.104 143.806 C 29.276 145.353, 29.234 146.568, 29.961 147.927 C 30.781 149.459, 30.634 149.948, 29.246 150.311 C 28.286 150.563, 29.085 150.820, 31.022 150.884 C 33.594 150.969, 35.557 150.165, 38.301 147.903 C 42.965 144.059, 45.208 139.634, 47.379 130 C 50.434 116.439, 51.177 113.585, 53.705 105.687 C 55.081 101.389, 55.935 97.602, 55.603 97.270 C 55.271 96.938, 55 97.178, 55 97.802 M 143 97.343 C 143 97.532, 143.917 100.345, 145.038 103.593 C 146.159 106.842, 147.976 113.325, 149.077 118 C 150.177 122.675, 151.768 129.425, 152.612 133 C 155.238 144.119, 161.223 151, 168.269 151 C 171.813 151, 171.845 150.962, 171.436 147.250 C 171.007 143.353, 169.984 137.592, 169.260 135 C 169.030 134.175, 168.602 132.267, 168.309 130.760 C 168.016 129.253, 167.406 128.249, 166.954 128.528 C 166.502 128.808, 166.259 127.854, 166.413 126.410 C 166.593 124.718, 165.861 122.952, 164.356 121.447 C 162.985 120.076, 162.267 118.468, 162.617 117.556 C 162.945 116.700, 162.748 116, 162.178 116 C 160.837 116, 158 113.161, 158 111.818 C 158 111.246, 158.885 111.841, 159.967 113.139 C 161.048 114.438, 161.948 115.148, 161.967 114.717 C 162.015 113.578, 155.253 107, 154.033 107 C 153.465 107, 153.112 106.438, 153.250 105.750 C 153.387 105.063, 152.938 104.612, 152.250 104.750 C 151.563 104.888, 151.113 104.605, 151.250 104.122 C 151.556 103.045, 145.410 97, 144.009 97 C 143.454 97, 143 97.155, 143 97.343 M 52 100.059 C 52 100.641, 52.450 100.840, 53 100.500 C 53.550 100.160, 54 99.684, 54 99.441 C 54 99.198, 53.550 99, 53 99 C 52.450 99, 52 99.477, 52 100.059 M 164.271 119.050 C 164.098 121.345, 165.573 122.500, 166.585 120.862 C 167.070 120.077, 166.872 119.961, 165.985 120.510 C 165.028 121.101, 164.834 120.875, 165.286 119.696 C 165.631 118.798, 165.576 117.856, 165.164 117.601 C 164.752 117.347, 164.350 117.999, 164.271 119.050" stroke="none" fill="black" fill-rule="evenodd"/>
</svg>