<?xml version="1.0"?><svg xmlns="http://www.w3.org/2000/svg" width="36" height="36" shape-rendering="geometricPrecision" text-rendering="geometricPrecision" image-rendering="optimizeQuality" fill-rule="evenodd" clip-rule="evenodd" viewBox="0 0 36 36"><path fill="#fefefb" d="m-0.1-0.1h16.2v0.2c-0.1 2-0.2 4-0.2 6-0.1 0.2-0.2 0.3-0.4 0.4l0.6 0.2c-0.4 0.1-0.7 0.2-1.1 0.1 0.2-0.1 0.2-0.2 0.3-0.4 0.1-2.1 0.1-4.2 0.1-6.3-0.2-0.1-0.4 0-0.6 0.1-0.2 0-0.5 0-0.7 0.2 0 2-0.2 4-0.4 6-0.8-1.6-1.7-3.3-2.6-4.9-0.6-0.2-0.7 0-0.5 0.5 0 0.3-0.1 0.5-0.3 0.7 0-0.3-0.2-0.6-0.4-0.8-0.6 0.1-1.2 0.3-1.6 0.8 0.2 0.3 0.4 0.6 0.6 0.9 0.1 0.2 0.1 0.4 0.1 0.5-0.2-0.1-0.5-0.2-0.8-0.2-0.2-0.2-0.5-0.4-0.7-0.6-0.5 0.1-0.8 0.4-0.8 0.8v0.5c0.5 0 0.6 0.1 0.2 0.4-0.1-0.3-0.3-0.4-0.6-0.4-0.1-0.1-0.2-0.2-0.3-0.2-0.3 0.2-0.5 0.4-0.7 0.6-0.3-0.2-0.5-0.2-0.7 0.1 0.2 0.6 0 0.9-0.7 1-0.2-0.1-0.4-0.1-0.6-0.1 0.2 0.2 0.3 0.5 0.4 0.7v0.1c-0.2 0.2-0.4 0.4-0.5 0.7-0.1-0.2-0.2-0.3-0.5-0.3-0.3 0.3-0.5 0.6-0.8 0.9 0.1 0.1 0.3 0.2 0.4 0.1v-0.4c0.2 0 0.3 0 0.4 0.1-0.2 0.6-0.1 1.1 0.3 1.5-0.2 0-0.4 0-0.5 0.2 0-0.1-0.2-0.2-0.3-0.2-0.3 0.1-0.6 0.2-0.9 0.3 0.2 0.2 0.2 0.3-0.1 0.4 0.1 0.4 0.1 0.7 0 1.1h0.6v0.1c1 0.6 0.9 0.8-0.3 0.6h-0.4c-0.1 0.3 0.1 0.6 0.4 0.7 0 0.2 0.1 0.3 0.3 0.4-0.3 0.1-0.5 0.2-0.7 0.1-0.2-0.1-0.4-0.1-0.6-0.1-0.2-0.1-0.4-0.3-0.6-0.4v-12.7z"></path><path fill="#fefdea" d="m17.2-0.1h0.7v6.2c0.6 0.1 1.2 0.1 1.7 0.2v-6.4h1.8c0.2 0.5 0.6 0.7 1.1 0.5 0.4 0 0.7 0.1 0.9 0.4-0.4-0.1-0.7-0.2-1.1-0.3 0 1 0 2.1 0.1 3.1 0.4-0.8 0.8-1.5 1.3-2.3 0 0.3 0 0.5 0.2 0.7 0.1-0.3 0.3-0.5 0.5-0.7 0.2-0.1 0.4-0.1 0.6 0-0.2 0-0.3 0-0.5 0.1-1 1.7-1.9 3.5-2.8 5.3-0.2 0-0.4 0-0.5-0.2 0.2-0.9 0.2-2 0.2-3.1 0-1 0-2.1-0.1-3.2-0.3-0.1-0.6-0.2-1-0.1 0 2.1 0 4.2 0.2 6.3 0.1 0 0.3 0 0.4 0.1h-0.7c0-2 0-4.1-0.1-6.1-0.2 0.8-0.2 1.8-0.2 2.7 0 0.9 0 1.8 0.1 2.7-0.1 0-0.2 0.1-0.2 0.2 0.1 0.2 0.1 0.3 0 0.5-0.2-0.1-0.3 0-0.3 0.3h-0.6c-0.8-0.1-1.7-0.2-2.5-0.3 0.2-0.1 0.5-0.1 0.8-0.1v-6.5z"></path><path fill="#fefefd" d="m21.4-0.1h14.5v12.8c-0.2 0-0.3 0.1-0.5 0.3-0.1-0.3-0.4-0.3-0.6-0.1h-0.3c-0.4-0.1-0.5-0.2-0.1-0.5 0.1 0.1 0.2 0.2 0.2 0.3l0.1-0.5c0.2 0.1 0.4 0.1 0.5 0-0.2-0.3-0.3-0.6-0.3-1-0.2 0-0.5 0.1-0.7 0.3h-0.1c-0.3 0-0.5-0.1-0.7-0.4 0.3 0 0.6-0.1 0.8-0.3 0.2-0.2 0.2-0.3 0-0.5 0-0.3-0.2-0.7-0.4-0.9-0.1-0.2-0.3-0.2-0.5-0.2v-0.4c-0.1-0.5-0.3-0.9-0.6-1.3-0.2-0.2-0.3-0.4-0.4-0.6 0.1-0.2 0.3-0.2 0.5-0.2 0.1-0.2 0-0.3-0.1-0.4-0.3-0.1-0.6 0-0.8 0.1 0.1-0.2 0.2-0.5 0.1-0.7l-0.3 0.3c-0.4-0.5-0.7-1-0.9-1.6-0.1 0.2-0.3 0.3-0.5 0.3-0.4-0.4-0.8-0.3-1.1 0.2-0.3-0.1-0.4-0.3-0.4-0.6h0.4c0-0.3-0.1-0.5-0.2-0.8l0.2-0.2 0.3 0.4c0.1-0.6-0.3-0.8-0.9-0.7 0.2-0.1 0.2-0.3 0.1-0.4-0.2 0.1-0.3 0.2-0.5 0.1 0.1-0.2 0.2-0.3 0.1-0.5l-0.2 0.1c-0.1-0.2-0.3-0.5-0.5-0.7-0.2 0.1-0.4 0.2-0.5 0.4 0.1 0.1 0.2 0 0.3-0.1 0.3 0.2 0.5 0.5 0.7 0.8-0.1 0.2-0.2 0.3-0.3 0.3-0.1-0.2-0.2-0.4-0.4-0.5-0.5-0.1-0.9-0.3-1.2-0.6-0.2 0-0.2 0.1-0.3 0.1-0.1 0.1-0.3 0.2-0.5 0.2 0-0.3 0-0.6-0.2-0.9h-0.2c-0.2-0.1-0.4-0.1-0.6 0-0.2 0.2-0.4 0.4-0.5 0.7-0.2-0.2-0.2-0.4-0.2-0.7 0-0.2-0.1-0.4-0.3-0.5-0.2-0.3-0.5-0.4-0.9-0.4-0.5 0.2-0.9 0-1.1-0.5z"></path><path fill="#fcd82e" d="m16.1-0.1h1.1v6.1c-0.3 0.1-0.7 0.1-1.1 0.1v-6.2z"></path><path fill="#fad618" d="m12.9 3c-0.4-0.6-0.7-1.2-1-1.9 0-0.1 0.1-0.2 0.3-0.2 0.3 0 0.6-0.1 0.9-0.1 0.1 0.8 0 1.5-0.2 2.2z"></path><path fill="#f5dd5b" d="m12.9 3c0.2-0.7 0.3-1.4 0.2-2.2-0.3 0-0.6 0.1-0.9 0.1 0.3-0.2 0.6-0.3 0.9-0.4 0.1 0 0.2 0.1 0.3 0.1 0.1 1 0.1 2 0 3-0.1 0.1-0.2 0.1-0.3 0.1-0.1-0.2-0.2-0.4-0.2-0.7z"></path><path fill="#fad520" d="m14.8 0.2h0.5v6.2l-1.2 0.1v-6.1c0.2-0.2 0.5-0.2 0.7-0.2z"></path><path fill="#fdf2b0" d="m14.8 0.2c0.2-0.1 0.4-0.2 0.6-0.1 0 2.1 0 4.2-0.1 6.3v-6.2h-0.5z"></path><path fill="#f9eb92" d="m21.3 0.2h-0.8v6.2c-0.2-2.1-0.2-4.2-0.2-6.3 0.4-0.1 0.7 0 1 0.1z"></path><path fill="#fad61b" d="m21.3 0.2c0.1 1.1 0.1 2.2 0.1 3.2 0 1.1 0 2.2-0.2 3.1h-0.3c-0.1-0.1-0.3-0.1-0.4-0.1v-6.2h0.8z"></path><path fill="#f7df6a" d="m17.9-0.1h0.2v6.1c0.4-0.1 0.8 0 1.2 0.1 0.2-2 0.2-4.1 0.2-6.2h0.1v6.4c-0.5-0.1-1.1-0.1-1.7-0.2v-6.2z"></path><path fill="#fcd611" d="m18.1-0.1h1.4c0 2.1 0 4.2-0.2 6.2-0.4-0.1-0.8-0.2-1.2-0.1v-6.1z"></path><path fill="#f8d837" d="m23.4 0.8c0.2 0.1 0.3 0.3 0.3 0.5-0.5 0.8-0.9 1.5-1.3 2.3-0.1-1-0.1-2.1-0.1-3.1 0.4 0.1 0.7 0.2 1.1 0.3z"></path><path fill="#fad723" d="m25 1.3h0.2c-0.4 2-1 4-1.6 5.9-0.6 0-1.1-0.2-1.6-0.4-0.1 0-0.2 0-0.3-0.1 0.9-1.8 1.8-3.6 2.8-5.3 0.2-0.1 0.3-0.1 0.5-0.1z"></path><path fill="#f9d72f" d="m9.9 1.9c0.2 0.9 0.4 1.8 0.8 2.7 0.1 0.2 0.1 0.5-0.1 0.7-0.5-0.6-1.1-1.2-1.7-1.7-0.2-0.3-0.4-0.6-0.6-0.9 0.4-0.5 1-0.7 1.6-0.8z"></path><path fill="#fdfce8" d="m25.2 1.3c0.2 0.3 0.2 0.6 0.2 0.9 0.2 0 0.4-0.1 0.5-0.2-0.1 0.7-0.3 1.3-0.6 1.9-0.1 0.3-0.1 0.7-0.1 1.1l2.1-2.1c0-0.2 0.1-0.3 0.1-0.4 0.2 0.1 0.3 0.3 0.4 0.5 0.1 0 0.2-0.1 0.3-0.3-0.2-0.3-0.4-0.6-0.7-0.8-0.1 0.1-0.2 0.2-0.3 0.1 0.1-0.2 0.3-0.3 0.5-0.4 0.2 0.2 0.4 0.5 0.5 0.7l0.2-0.1c0.1 0.2 0 0.3-0.1 0.5 0.2 0.1 0.3 0 0.5-0.1 0.1 0.1 0.1 0.3-0.1 0.4 0.6-0.1 1 0.1 0.9 0.7l-0.3-0.4-0.2 0.2c0.1 0.3 0.2 0.5 0.2 0.8h-0.4c0.1-0.2 0.1-0.5 0-0.7l-0.6-0.4c-1.5 1.3-2.9 2.7-4.2 4.3 0.1 0.1 0.3 0.3 0.4 0.4-0.4 0-0.9 0-1.3 0-0.1-0.1-0.1-0.2 0-0.4-0.3-0.1-0.6-0.2-1-0.3-0.1-0.1-0.1-0.2-0.1-0.4 0.5 0.2 1 0.4 1.6 0.4 0.6-1.9 1.2-3.9 1.6-5.9z"></path><path fill="#f8d72b" d="m27.4 2.5c0 0.1-0.1 0.2-0.1 0.4l-2.1 2.1c0-0.4 0-0.8 0.1-1.1 0.3-0.6 0.5-1.2 0.6-1.9 0.1 0 0.1-0.1 0.3-0.1 0.3 0.3 0.7 0.5 1.2 0.6z"></path><path fill="#fdfce0" d="m9.9 1.9c0.2 0.2 0.4 0.5 0.4 0.8 0.2-0.2 0.3-0.4 0.3-0.7 0.2 0.4 0.3 0.8 0.3 1.2-0.1-0.1-0.2-0.2-0.3-0.3l-0.1 0.2c0.2 0.7 0.3 1.5 0.4 2.3-0.4-0.1-0.6 0-0.8 0.3-0.7-0.6-1.3-1.2-1.9-1.8 0.3 0 0.6 0.1 0.8 0.2 0-0.1 0-0.3-0.1-0.5 0.6 0.5 1.2 1.1 1.7 1.7 0.2-0.2 0.2-0.5 0.1-0.7-0.4-0.9-0.6-1.8-0.8-2.7z"></path><path fill="#fad725" d="m28.8 4.3c-1.3 1.2-2.6 2.4-3.8 3.7-0.2 0.1-0.3 0.1-0.5 0.1-0.1 0-0.1-0.1-0.1-0.2-0.1-0.1-0.3-0.3-0.4-0.4 1.3-1.6 2.7-3 4.2-4.3l0.6 0.4c0.1 0.2 0.1 0.5 0 0.7z"></path><path fill="#fdfceb" d="m31.9 6.4c-0.3-0.1-0.4-0.3-0.6-0.5-0.2-0.1-0.4-0.1-0.6 0l-3.7 3.7c-0.1 0.2-0.1 0.3-0.1 0.5-0.1-0.1-0.1-0.2-0.2-0.3-0.1 0.2-0.1 0.4 0 0.7 0.2 0.1 0.4 0.3 0.5 0.5-0.1 0.2-0.3 0.2-0.4 0.1-0.3-0.6-0.5-0.6-0.6 0.1-0.1-0.1-0.2-0.2-0.3-0.3 0.5-0.6 0.6-1.1 0.2-1.7 0.1 0 0.3 0 0.4-0.1 1.2-1.3 2.5-2.6 3.9-3.8 0.1-0.2 0-0.4-0.1-0.6 0.2 0 0.4-0.1 0.5-0.3 0.2 0.6 0.5 1.1 0.9 1.6l0.3-0.3c0.1 0.2 0 0.5-0.1 0.7z"></path><path fill="#fdfdf8" d="m10.9 3.2c0.1 0.2 0.2 0.5 0.3 0.8 0 0.5 0.1 0.9 0.3 1.3-0.1 0.3-0.2 0.2-0.4 0 0 0.4 0.2 0.6 0.6 0.5 0.1 0.4 0 0.8-0.2 1.2-0.1-0.1-0.2-0.2-0.3-0.2-0.4-0.3-0.8-0.7-1.1-1.1 0.2-0.3 0.4-0.4 0.8-0.3-0.1-0.8-0.2-1.6-0.4-2.3l0.1-0.2c0.1 0.1 0.2 0.2 0.3 0.3z"></path><path fill="#fad726" d="m8.2 3.9c0.6 0.6 1.2 1.2 1.9 1.8 0.3 0.4 0.7 0.8 1.1 1.1 0.8 0.7 0.6 1.1-0.4 1.2-1.4-1.4-2.7-2.7-4.1-3.9 0-0.4 0.3-0.7 0.8-0.8 0.2 0.2 0.5 0.4 0.7 0.6z"></path><path fill="#fbd71d" d="m6.3 4.6c1.2 1.2 2.4 2.5 3.7 3.8 0.1 0.1 0.1 0.2 0 0.4-0.4 0.2-0.6 0.4-0.8 0.8-0.1 0.1-0.3 0.1-0.4 0l-3.7-3.8c-0.1-0.3-0.1-0.6 0.2-0.8 0.2-0.2 0.4-0.4 0.7-0.6 0.1 0 0.2 0.1 0.3 0.2z"></path><path fill="#fad726" d="m13.7 6.4c0.1 0.1 0.1 0.2 0.2 0.3-0.6 0.2-1.1 0.4-1.7 0.5-0.2-1.1-0.5-2.2-1-3.2-0.1-0.3-0.2-0.6-0.3-0.8 0-0.4-0.1-0.8-0.3-1.2-0.2-0.5-0.1-0.7 0.5-0.5 0.9 1.6 1.8 3.3 2.6 4.9z"></path><path fill="#fdfce8" d="m28.8 4.3c0 0.3 0.1 0.5 0.4 0.6-0.9 0.8-1.8 1.6-2.6 2.5-0.3 0.4-0.6 0.7-0.9 1-0.2 0.1-0.2 0.2-0.2 0.4-0.3-0.3-0.6-0.5-1-0.7 0.2 0 0.3 0 0.5-0.1 1.2-1.3 2.5-2.5 3.8-3.7z"></path><path fill="#fdfdf9" d="m20.9 6.5h0.3c0.1 0.2 0.3 0.2 0.5 0.2 0.1 0.1 0.2 0.1 0.3 0.1 0 0.2 0 0.3 0.1 0.4 0.4 0.1 0.7 0.2 1 0.3-0.1 0.2-0.1 0.3 0 0.4 0.4 0 0.9 0 1.3 0 0 0.1 0 0.2 0.1 0.2 0.4 0.2 0.7 0.4 1 0.7 0.3 0 0.5 0.2 0.6 0.4 0.4 0.6 0.3 1.1-0.2 1.7 0.1 0.1 0.2 0.2 0.3 0.3 0.1-0.7 0.3-0.7 0.6-0.1 0.1 0.1 0.3 0.1 0.4-0.1-0.1-0.2-0.3-0.4-0.5-0.5-0.1-0.3-0.1-0.5 0-0.7 0.1 0.1 0.1 0.2 0.2 0.3 0.2 0 0.4 0.2 0.5 0.4 0 0.2 0.1 0.4 0.1 0.7h1v0.4c0.1 0.4 0.2 0.7 0.4 1 0 0.2 0.1 0.4 0.3 0.5 0.2 0.6 0.4 1 0.8 1.5 1.5-0.9 3.1-1.8 4.7-2.6 0.2-0.4 0-0.6-0.5-0.5 0.2-0.2 0.5-0.3 0.7-0.3 0 0.4 0.1 0.7 0.3 1-0.1 0.1-0.3 0.1-0.5 0l-0.1 0.5c0-0.1-0.1-0.2-0.2-0.3-0.4 0.3-0.3 0.4 0.1 0.5-0.6 0.3-1.1 0.7-1.7 1.1 0.9 0.1 1.8 0.2 2.7 0.1 0-0.4-0.1-0.7-0.3-1.1-0.1-0.1-0.2-0.2-0.4-0.1 0.2-0.2 0.5-0.2 0.6 0.1 0.2-0.2 0.3-0.3 0.5-0.3v2.8c-0.1-0.1-0.1-0.3-0.1-0.5h-5.8c0.1 0.3 0.2 0.6 0.3 1 1.9 0.1 3.8 0.1 5.6 0.1v0.8h-5.5v1.2h5.5v0.7h-5.5c0 0.6 0 1.1 0.2 1.7 1.8 0 3.6 0 5.3-0.3v1.8h-0.3v-0.8c-1.8-0.1-3.5 0-5.3 0.1-0.1 0-0.2 0.1-0.2 0.1-0.1 0.5-0.1 0.9-0.1 1.3-0.2 0.4-0.3 0.8-0.5 1.3-0.2 0.4-0.5 0.7-1 0.8 0-0.1-0.1-0.2-0.2-0.3-0.2 0-0.4 0-0.7 0 0.3 0.4 0.4 0.8 0.2 1.3l-0.2-0.3-0.4 0.7c0.1 0.1 0.2 0.2 0.3 0.2-0.3 0.3-0.3 0.6-0.2 1 0 0.1 0.2 0.2 0.3 0.2 0.9 0.9 1.8 1.7 2.7 2.6-0.2-0.1-0.4-0.2-0.6-0.3 0 0.2 0 0.4-0.1 0.5-0.8-0.7-1.5-1.4-2.2-2.1-0.2-0.2-0.5-0.4-0.8-0.4-0.5-0.1-0.6-0.3-0.1-0.5-0.3-0.2-0.5-0.1-0.7 0.2 0.2 0.2 0.2 0.4 0 0.5l0.3 0.2c-0.3 0.2-0.6 0.3-1 0.3 0 0.5-0.1 0.6-0.4 0.2l-0.2 0.2c0.1 0.1 0.2 0.3 0.2 0.5-0.3-0.1-0.5 0-0.7 0.2-0.5-0.1-0.8 0.1-0.9 0.6-0.3 0.3-0.7 0.4-1.1 0.4l-0.3 0.3c-0.2 0-0.5 0-0.7 0.1-0.2 0-0.4 0.1-0.5 0.2-0.1 0-0.2 0.1-0.2 0.1-0.4-0.2-0.7-0.3-1.1-0.3l0.6-0.4c-0.4-0.1-0.8-0.1-1.1-0.3-0.1-0.2-0.1-0.5 0.1-0.8 0.3 0.1 0.6 0.2 1 0.1 0-0.4 0-0.8 0.1-1.2-0.1-0.3-0.2-0.6-0.4-0.9 0-0.1 0.1-0.2 0.3-0.3-0.3-0.8 0-1.3 0.8-1.6-0.2-0.1-0.2-0.2 0-0.3 0.3-0.3 0.6-0.4 1-0.5 0.4-0.2 0.7-0.6 1-1-0.1-0.2-0.2-0.3-0.4-0.3-0.6 0.3-1.3 0.7-1.9 1.1-0.1-0.3-0.1-0.5 0-0.7 0.1-0.5 0.3-1 0.4-1.4 0.3-0.4 0.4-0.8 0.3-1.3h-3.4v-0.6c0.3-1.2 0.5-2.5 0.6-3.8 0.2 0.2 0.3 0.4 0.4 0.6 0.2 0.9 0.4 1.8 0.7 2.7 0 0.2 0.1 0.3 0.3 0.5 1.8 0.1 3.5 0.1 5.2 0 0.3-0.2 0.6-0.4 0.7-0.8 0.2-0.9 0.5-1.9 0.8-2.8 0.2-0.5 0.4-0.9 0.7-1.3 0.2-0.7 0-1.3-0.6-1.7-2.6-0.1-5.1-0.1-7.6 0 0.2-0.8 0.3-1.7 0.4-2.6 0.1-0.1 0.2-0.1 0.2-0.2 0.1-0.7 0.2-1.4 0.3-2.1 0.1 0.2 0.2 0.2 0.3 0 0.1-0.2 0.1-0.5 0.2-0.7-0.1-0.5-0.2-1-0.3-1.5-0.1-0.2-0.2-0.2-0.4-0.2 0-0.3 0.1-0.4 0.3-0.3 0.1-0.2 0.1-0.3 0-0.5 0-0.1 0.1-0.2 0.2-0.2-0.1-0.9-0.1-1.8-0.1-2.7 0-0.9 0-1.9 0.2-2.7 0.1 2 0.1 4.1 0.1 6.1h0.7z"></path><path fill="#fcd512" d="m18.9 6.8h0.6c0.2 0 0.3 0 0.4 0.2-0.3 1.5-0.5 3-0.7 4.5-0.1 0.9-0.2 1.8-0.4 2.6-0.4 0.1-0.8 0.2-1.2 0.2-2.6-0.2-5.3-0.2-8-0.2-0.5 0.4-0.7 0.9-0.5 1.6 0.8 1.5 1.3 3 1.7 4.6-0.4-0.2-0.6-0.6-0.7-1.1l-0.1 0.1c-0.1-0.3-0.1-0.6-0.1-0.9-0.4 0-0.5-0.2-0.3-0.5 0-0.2-0.1-0.4-0.2-0.5-0.3 0.2-0.4 0.5-0.4 0.8-0.1-0.4-0.2-0.7-0.4-1 0.2 0 0.4-0.1 0.5-0.1-0.3-0.8-0.4-1.6-0.2-2.3l-0.3-0.6c-0.2 0.1-0.4 0-0.6-0.1-0.1-0.2-0.1-0.4-0.2-0.7 0.1-0.5 0.3-1.1 0.4-1.7 0.1-0.2 0.2-0.4 0.4-0.7 2.7-3.1 6.2-4.5 10.3-4.2z"></path><path fill="#fad726" d="m30.3 4.7c0.1 0.2 0.2 0.4 0.1 0.6-1.4 1.2-2.7 2.5-3.9 3.8-0.1 0.1-0.3 0.1-0.4 0.1-0.1-0.2-0.3-0.4-0.6-0.4 0-0.2 0-0.3 0.2-0.4 0.3-0.3 0.6-0.6 0.9-1 0.8-0.9 1.7-1.7 2.6-2.5 0.3-0.5 0.7-0.6 1.1-0.2z"></path><path fill="#fad721" d="m31.9 6.4c0.1 0.2 0.1 0.5 0 0.7l-3.7 3.7c-0.1 0.1-0.3 0.1-0.4 0-0.1-0.1-0.3-0.2-0.4-0.3-0.1-0.2-0.3-0.4-0.5-0.4 0-0.2 0-0.3 0.1-0.5l3.7-3.7c0.2-0.1 0.4-0.1 0.6 0 0.2 0.2 0.3 0.4 0.6 0.5z"></path><path fill="#fdfad8" d="m19.9 7c0.1 0.5 0.2 1 0.3 1.5-0.1 0.2-0.1 0.5-0.2 0.7-0.1 0.2-0.2 0.2-0.3 0-0.1 0.7-0.2 1.4-0.3 2.1 0 0.1-0.1 0.1-0.2 0.2 0.2-1.5 0.4-3 0.7-4.5z"></path><path fill="#fad721" d="m3 9.4c-0.4-0.4-0.5-0.9-0.3-1.5 0.2-0.1 0.4-0.1 0.6 0 0.2 0.3 0.5 0.5 0.8 0.7 1.1 1 2.1 2.1 3 3.3-0.1 0.2-0.2 0.5-0.3 0.7-0.2 0.1-0.3 0.1-0.4 0.1-1-1.2-2-2.2-3.1-3.3-0.1 0-0.2-0.1-0.3 0z"></path><path fill="#fefcdf" d="m33.3 8.8v0.4c0.2 0 0.4 0 0.5 0.2-0.7 0.5-1.4 1.1-1.9 1.8 0.9 0 1.7-0.2 2.3-0.9 0.2 0.2 0.2 0.3 0 0.5-0.2 0.2-0.5 0.3-0.8 0.3 0.2 0.3 0.4 0.4 0.7 0.4-0.3 0.1-0.5 0.2-0.8 0.2 0-0.2 0-0.3-0.1-0.5-0.4 0.1-0.8 0.2-1.1 0.4-0.2 0-0.4-0.1-0.5-0.2 0.1-0.2 0.1-0.3 0-0.5-0.6 0.3-1.1 0.6-1.6 1 1-1.2 2.1-2.2 3.3-3.1z"></path><path fill="#f9d72a" d="m3.7 11.9c-0.6-0.4-1.2-0.6-1.9-0.6v-0.1c-0.3-0.2-0.3-0.4-0.3-0.7l0.4-0.7c0.1-0.2 0.3-0.2 0.4-0.1 0.8 0.6 1.5 1.3 2.1 2-0.2 0.2-0.4 0.2-0.7 0.2z"></path><path fill="#fad723" d="m32.7 7.5c0.3 0.4 0.5 0.8 0.6 1.3-1.2 0.9-2.3 1.9-3.3 3.1-0.2 0.2-0.5 0.4-0.7 0.6-0.1 0.1-0.3 0.1-0.4 0.1-0.2-0.3-0.3-0.6-0.4-1 1.4-1.4 2.8-2.7 4.2-4.1z"></path><path fill="#fad728" d="m3.7 6.8v-0.1c0.2-0.4 0.5-0.5 0.9-0.3l3.8 3.9c-0.2 0.4-0.5 0.6-0.9 0.7-1.1-1.4-2.4-2.6-3.7-3.8-0.1-0.1-0.1-0.2-0.1-0.4z"></path><path fill="#f7d830" d="m33.8 9.4c0.2 0.2 0.4 0.6 0.4 0.9-0.6 0.7-1.4 0.9-2.3 0.9 0.5-0.7 1.2-1.3 1.9-1.8z"></path><path fill="#fdfce6" d="m32.7 7.5c-1.4 1.4-2.8 2.7-4.2 4.1v-0.4h-1c0-0.3-0.1-0.5-0.1-0.7 0.1 0.1 0.3 0.2 0.4 0.3 0.1 0.1 0.3 0.1 0.4 0l3.7-3.7c0.1-0.2 0.1-0.5 0-0.7 0.2-0.1 0.5-0.2 0.8-0.1 0.1 0.1 0.2 0.2 0.1 0.4-0.2 0-0.4 0-0.5 0.2 0.1 0.2 0.2 0.4 0.4 0.6z"></path><path fill="#fdfdf5" d="m33.3 11.7c-0.8 0.3-1.5 0.5-2.3 0.6-0.5 0.1-0.9 0.2-1.4 0.2 0.2-0.1 0.4-0.4 0.4-0.6 0.5-0.4 1-0.7 1.6-1 0.1 0.2 0.1 0.3 0 0.5 0.1 0.1 0.3 0.2 0.5 0.2 0.3-0.2 0.7-0.3 1.1-0.4 0.1 0.2 0.1 0.3 0.1 0.5z"></path><path fill="#fdfbdc" d="m1.8 11.3c0.7 0 1.3 0.2 1.9 0.6-0.2-0.1-0.5 0-0.7 0.2 0.5 0.1 0.9 0.2 1.2 0.5 0-0.2 0.2-0.3 0.4-0.3l0.4 0.1c-0.2 0.1-0.3 0.2-0.4 0.3-1.1-0.2-2.1-0.5-3.1-0.8 1.2 0.2 1.3 0 0.3-0.6z"></path><path fill="#fcf8c9" d="m30 11.9c0 0.2-0.2 0.5-0.4 0.6 0.5 0 0.9-0.1 1.4-0.2-0.6 0.3-1.2 0.6-1.8 0.8-0.2-0.1-0.3-0.3-0.3-0.5 0.1 0 0.3 0 0.4-0.1 0.2-0.2 0.5-0.4 0.7-0.6z"></path><path fill="#fad722" d="m34.1 11.5h0.1c0.5-0.1 0.7 0.1 0.5 0.5-1.6 0.8-3.2 1.7-4.7 2.6-0.4-0.5-0.6-0.9-0.8-1.5 0.6-0.2 1.2-0.5 1.8-0.8 0.8-0.1 1.5-0.3 2.3-0.6 0.3 0 0.5-0.1 0.8-0.2z"></path><path fill="#f8d72e" d="m34.5 12.9h0.3c0.2-0.1 0.3 0 0.4 0.1 0.2 0.4 0.3 0.7 0.3 1.1-0.9 0.1-1.8 0-2.7-0.1 0.6-0.4 1.1-0.8 1.7-1.1z"></path><path fill="#fdd512" d="m8.2 11.7c-0.1 0.6-0.3 1.2-0.4 1.7 0.1 0.3 0.1 0.5 0.2 0.7 0.2 0.1 0.4 0.2 0.6 0.1l0.3 0.6c-0.2 0.7-0.1 1.5 0.2 2.3-0.1 0-0.3 0.1-0.5 0.1 0.2 0.3 0.3 0.6 0.4 1 0-0.3 0.1-0.6 0.4-0.8 0.1 0.1 0.2 0.3 0.2 0.5-0.2 0.3-0.1 0.5 0.3 0.5 0 0.3 0 0.6 0.1 0.9l0.1-0.1c0.1 0.5 0.3 0.9 0.7 1.1 0.1 0.1 0.3 0.2 0.4 0.4 1.8 0.1 3.5 0.1 5.3 0 0.2-0.2 0.3-0.4 0.4-0.7 0.2-0.9 0.4-1.8 0.7-2.6 0.1-0.4 0.3-0.6 0.6-0.5-0.1 1.3-0.3 2.6-0.6 3.8-0.1 0.2-0.1 0.5-0.1 0.7h3.4l-0.2 1.2c-0.1 0.4-0.3 0.9-0.4 1.4-0.1 0.2-0.1 0.4 0 0.7 0.6-0.4 1.3-0.8 1.9-1.1 0.2 0 0.3 0.1 0.4 0.3-0.3 0.4-0.6 0.8-1 1-0.4 0.1-0.7 0.2-1 0.5h-0.8c0-0.2-0.1-0.3-0.2-0.4-1.2-0.2-2.5-0.3-3.8-0.3-0.8-0.1-1.4-0.5-1.9-1.1-0.6 0-0.7 0.2-0.5 0.7 0.6 0.5 1.2 0.8 2 0.9 0.3 0.3 0.7 0.4 1.1 0.3 1 0.2 2.1 0.2 3.1 0.2v0.4c-0.5 1.3-1 2.8-1.2 4.2-0.2 0.1-0.2 0.3-0.3 0.5l-0.8 0.1c-0.9-0.1-1.8-0.3-2.7-0.5-6.2-2.3-9.1-6.7-8.7-13.3 0.2-1 0.5-1.9 0.7-2.8l1-1.9c0.1-0.3 0.4-0.5 0.6-0.7z"></path><path fill="#f9d72a" d="m1.5 11.9c1 0.3 2 0.6 3.1 0.8 0.5 0.3 1.1 0.5 1.7 0.6-0.2 0.5-0.3 1-0.5 1.5-1.4-0.7-2.9-1.4-4.3-2.2-0.3-0.1-0.5-0.4-0.4-0.7h0.4z"></path><path fill="#140f0d" d="m18.8 14.1c2.5-0.1 5-0.1 7.6 0 0.6 0.4 0.8 1 0.6 1.7-0.3 0.4-0.5 0.8-0.7 1.3-0.3 0.9-0.6 1.9-0.8 2.8-0.1 0.4-0.4 0.6-0.7 0.8-1.7 0.1-3.4 0.1-5.2 0-0.2-0.2-0.3-0.3-0.3-0.5-0.3-0.9-0.5-1.8-0.7-2.7-0.1-0.2-0.2-0.4-0.4-0.6-0.3-0.1-0.5 0.1-0.6 0.5-0.3 0.8-0.5 1.7-0.7 2.6-0.1 0.3-0.2 0.5-0.4 0.7-1.8 0.1-3.5 0.1-5.3 0-0.1-0.2-0.3-0.3-0.4-0.4-0.4-1.6-0.9-3.1-1.7-4.6-0.2-0.7 0-1.2 0.5-1.6 2.7 0 5.4 0 8 0.2 0.4 0 0.8-0.1 1.2-0.2z"></path><path fill="#483217" d="m9.9 14.4c5.4 0.2 10.8 0.2 16.2 0.1 0.4 0.1 0.6 0.3 0.5 0.7-0.6 1.5-1.2 3.1-1.6 4.7l-0.3 0.4c-1.7 0-3.3 0-4.9 0-0.3-1.2-0.7-2.4-1.1-3.5-0.4-0.6-0.8-0.6-1.3 0-0.4 1.1-0.7 2.2-1 3.4-1.7 0.1-3.4 0.2-5.1 0.1-0.5-1-0.8-2.1-1-3.2-0.6-0.7-0.8-1.5-0.7-2.4 0.1-0.1 0.2-0.2 0.3-0.3z"></path><path fill="#0b0605" d="m11.9 14.8c-0.3 0.7-0.6 1.3-1 1.9-0.3-0.6-0.4-1.1-0.1-1.7 0.4-0.2 0.7-0.2 1.1-0.2z"></path><path fill="#0c0909" d="m12.3 14.8c0.1 0 0.2 0.1 0.3 0.2-0.4 0.9-0.9 1.7-1.4 2.5-0.1-0.1-0.2-0.2-0.2-0.4l1.3-2.3z"></path><path fill="#090607" d="m13.1 15h0.9c-0.8 1.3-1.5 2.7-2.3 4.1-0.3-0.3-0.4-0.7-0.2-1 0.5-1.1 1.1-2.1 1.6-3.1z"></path><path fill="#4e4d4c" d="m24.4 15.1c-0.9 1.6-1.8 3.2-2.7 4.8-0.4 0-0.7 0-1.1-0.1-0.1 0-0.1-0.1-0.1-0.2 0.9-1.4 1.8-2.9 2.6-4.5 0.5-0.2 0.9-0.2 1.3 0z"></path><path fill="#060203" d="m21.7 19.9c0.9-1.6 1.8-3.2 2.7-4.8 0.7-0.3 1.1-0.1 1.3 0.7-0.3 1.3-0.7 2.6-1.2 3.8-0.1 0.1-0.3 0.2-0.4 0.2-0.8 0.1-1.6 0.1-2.4 0.1z"></path><path fill="#4d4d4c" d="m14 15c0.4-0.1 0.9 0 1.3 0.1l-2.6 4.5c-0.5 0.2-0.8 0.1-1.1-0.3 0.1-0.1 0.1-0.2 0.1-0.2 0.8-1.4 1.5-2.8 2.3-4.1z"></path><path fill="#050203" d="m15.3 15.1c0.3 0 0.7 0 1.1 0.1 0.2 0.2 0.4 0.4 0.4 0.7-0.2 1.3-0.5 2.5-1 3.7-1 0.2-2.1 0.2-3.1 0l2.6-4.5z"></path><path fill="#0b0504" d="m20.9 15.3c-0.4 0.5-0.7 1.2-1 1.8-0.2-0.1-0.3-0.3-0.4-0.6-0.2-1.1 0.3-1.5 1.4-1.2z"></path><path fill="#0d0b0b" d="m21.3 15.1h0.4c-0.5 1-1.1 2-1.7 3-0.1-0.1-0.1-0.3-0.1-0.5 0.5-0.8 0.9-1.6 1.4-2.5z"></path><path fill="#090607" d="m22.3 15.1h0.8c-0.8 1.6-1.7 3.1-2.6 4.5-0.3-0.2-0.4-0.5-0.3-0.8 0.7-1.2 1.4-2.5 2.1-3.7z"></path><path fill="#fbd61b" d="m35.9 15.5v0.6c-1.8 0-3.7 0-5.6-0.1-0.1-0.4-0.2-0.7-0.3-1h5.8c0 0.2 0 0.4 0.1 0.5z"></path><path fill="#484746" d="m21.3 15.1c-0.5 0.9-0.9 1.7-1.4 2.5-0.2-0.1-0.2-0.3 0-0.5 0.3-0.6 0.6-1.3 1-1.8 0.1-0.1 0.2-0.2 0.4-0.2z"></path><path fill="#fbd613" d="m5.4 16v0.1h-5.2v-0.6h5.2v0.5z"></path><path fill="#474644" d="m11.9 14.8h0.4l-1.3 2.3c-0.1-0.1-0.1-0.3-0.1-0.4 0.4-0.6 0.7-1.2 1-1.9z"></path><path fill="#f2d95a" d="m-0.1 15.4h5.7c0 0.2-0.1 0.4-0.2 0.6v-0.5h-5.2v0.6h5.2c-1.8 0.1-3.6 0.2-5.5 0.1v-0.8z"></path><path fill="#4a4a4a" d="m12.6 15h0.5c-0.5 1-1.1 2-1.6 3.1-0.3-0.1-0.4-0.3-0.3-0.6 0.5-0.8 1-1.6 1.4-2.5z"></path><path fill="#4b4b4a" d="m21.7 15.1h0.6c-0.7 1.2-1.4 2.5-2.1 3.7-0.2-0.2-0.2-0.5-0.2-0.7 0.6-1 1.2-2 1.7-3z"></path><path fill="#f9ee92" d="m-0.1 17.1v-0.2h5.4c0 0.4 0 0.7-0.2 1v-0.8h-5.2z"></path><path fill="#fcd614" d="m-0.1 17.1h5.2v1.5h-5.2v-1.5z"></path><path fill="#fcd512" d="m35.9 17.1v0.8h-5.3v-0.8h5.3z"></path><path fill="#f5e473" d="m35.9 16.9v0.2h-5.3v0.8h5.3v0.2h-5.5v-1.2h5.5z"></path><path fill="#f9e47d" d="m35.9 18.8v0.1h-5.2c-0.1 0.5-0.2 1-0.1 1.6-0.2-0.6-0.2-1.1-0.2-1.7h5.5z"></path><path fill="#fefaba" d="m-0.1 19.3c1.8 0 3.5 0 5.2 0.2h-5v0.7h-0.2v-0.9z"></path><path fill="#f9d724" d="m5.1 19.5v1h-4.9c-0.1-0.1-0.2-0.2-0.1-0.3v-0.7h5z"></path><path fill="#f3d845" d="m30.7 18.9v1.4h4.9c0.1-0.3 0-0.7-0.1-1 0.1-0.1 0.2-0.3 0.3-0.4h0.1v1.3c-1.7 0.3-3.5 0.3-5.3 0.3-0.1-0.6 0-1.1 0.1-1.6z"></path><path fill="#fcd60f" d="m30.7 18.9h5.1c-0.1 0.1-0.2 0.3-0.3 0.4 0.1 0.3 0.2 0.7 0.1 1h-4.9v-1.4z"></path><path fill="#f4ea92" d="m5.1 19.5c0.2 0.3 0.2 0.7 0.2 1.1-1.7 0-3.4 0-5.1-0.1h4.9v-1z"></path><path fill="#fdf5aa" d="m30.3 21.3c1.8-0.1 3.5-0.2 5.3-0.1v0.8h-0.1v-0.7h-5.2z"></path><path fill="#fdf5a4" d="m17.6 20.7v0.6h3.4c0.1 0.5 0 0.9-0.3 1.3l0.2-1.2h-3.4c0-0.2 0-0.5 0.1-0.7z"></path><path fill="#fcd50f" d="m35.4 22v0.3h-5.1c0-0.3 0-0.5 0.1-0.7 1.7-0.2 3.3-0.2 5-0.2v0.6z"></path><path fill="#f4d94c" d="m30.3 21.3h5.2v0.7h-0.1v-0.6c-1.7 0-3.3 0-5 0.2-0.1 0.2-0.1 0.4-0.1 0.7h5.1v0.1h-5.2c-0.1-0.4 0-0.7 0.1-1.1z"></path><path fill="#fefcce" d="m30.3 21.3c-0.1 0.4-0.2 0.7-0.1 1.1h5.2c-1.4 0.1-2.8 0.2-4.3 0.2-0.1 0.2-0.1 0.4 0 0.5-0.3-0.1-0.7-0.3-1.1-0.4 0-0.4 0-0.8 0.1-1.3 0 0 0.1-0.1 0.2-0.1z"></path><path fill="#fefefc" d="m35.4 22h0.5v13.9h-12.8c0.2-0.1 0.5-0.2 0.7-0.1 0-0.3 0.1-0.6 0.4-0.7 0.1 0.3 0 0.5-0.2 0.6 0.1 0.1 0.3 0.1 0.4 0.1 0-0.2 0-0.3 0.1-0.4 0.3-0.1 0.6-0.2 0.9-0.2 0.2-0.2 0.2-0.4 0-0.5-0.3 0.2-0.5 0.3-0.9 0.2 0.4-0.1 0.7-0.4 0.7-0.8-0.1-0.1-0.2-0.2-0.2-0.4 0.1-0.2 0.2-0.2 0.3 0 0.2 0.2 0.2 0.4 0.2 0.7 0.5-0.1 0.8-0.4 1.1-0.7 0.3 0.1 0.4 0.1 0.2-0.2 0.1-0.1 0.3-0.1 0.4 0 0.2 0 0.2-0.1 0.3-0.2 0.2-0.1 0.5-0.2 0.7-0.2 0 0.2 0 0.3 0.1 0.4 0.2-0.1 0.4-0.3 0.6-0.5-0.2-0.1-0.4-0.2-0.6-0.2 0.1-0.1 0.1-0.2 0.2-0.2-0.4-0.2-0.5-0.4-0.2-0.7 0.1 0.1 0.2 0.1 0.3 0.1 0.2 0.1 0.4 0.1 0.6 0.1l0.8-0.8c-0.1-0.3-0.2-0.6-0.4-0.9 0.1-0.1 0.1-0.3 0.1-0.5 0.2 0.1 0.4 0.2 0.6 0.3 0.1 0.3 0.3 0.5 0.7 0.3 0.3-0.2 0.4-0.5 0.4-0.9-0.1-0.2-0.3-0.4-0.4-0.7 0-0.2 0.1-0.3 0.3-0.3 0.2 0.2 0.4 0.3 0.6 0.5 0 0.1 0.1 0.1 0.2 0 0.4-0.4 0.6-0.8 0.6-1.3 0-0.2 0-0.3 0.1-0.4 0.4 0 0.6-0.1 0.7-0.3 0-0.2 0.1-0.3 0.2-0.3 0.1-0.2 0.2-0.3 0.1-0.6-0.2 0.1-0.4 0-0.3-0.3 0.2-0.1 0.5-0.1 0.7 0 0.3 0 0.3-0.1 0.2-0.2v-0.9c-0.6-0.2-1.2-0.5-1.8-0.8-0.5-0.3-0.9-0.7-1.5-0.9-0.1-0.1-0.1-0.3 0-0.5 1.5 0 2.9-0.1 4.3-0.2v-0.4z"></path><path fill="#fbf19b" d="m35.1 23.3c-0.6-0.1-1.2 0-1.7 0.3-0.2-0.1-0.3-0.2-0.3-0.5 0.7 0 1.4 0 2 0.2z"></path><path fill="#fad621" d="m1.5 25.4c0-0.2 0-0.4 0.1-0.5 1.2-0.6 2.3-1.3 3.4-1.9 0.3-0.2 0.6-0.2 0.8 0 0.3 0.4 0.5 0.9 0.5 1.4-1.5 0.4-3 0.9-4.5 1.3-0.1-0.1-0.2-0.2-0.3-0.3z"></path><path fill="#f6d836" d="m35.1 23.3l-0.2 0.8c-0.5-0.1-1-0.2-1.5-0.5 0.5-0.3 1.1-0.4 1.7-0.3z"></path><path fill="#fefefc" d="m0.5 22.6c1.5 0 3 0.2 4.5 0.4-1.1 0.6-2.2 1.3-3.4 1.9-0.1 0.1-0.1 0.3-0.1 0.5-0.1 0.4 0.1 0.5 0.4 0.4 0.2 0.2 0.5 0.3 0.7 0.4-0.1 0.2-0.2 0.2-0.4 0.2v1c0.4-0.1 0.8 0 1.1 0.2-0.2 0.2-0.2 0.4-0.3 0.6 0.1 0.4 0 0.7-0.3 1.1 0.3 0 0.5-0.1 0.7-0.4 0.3 0.4 0.7 0.8 1 1.1l1 0.9c0.3 0.1 0.5 0.1 0.9 0v0.4c-0.1 0-0.2 0.1-0.2 0.2 0.2 0.2 0.4 0.4 0.6 0.6 0.3 0.3 0.7 0.5 1 0.7 0.2 0.1 0.5 0.3 0.7 0.5 0.3 0.1 0.5 0.1 0.8 0 0.4-0.2 0.7-0.4 0.9-0.7 0 0.2 0 0.5 0 0.8-0.5 0.7-0.3 0.9 0.5 0.8 0.1 0 0.2-0.1 0.2-0.2 0.1 0.3 0.3 0.6 0.5 0.9 0.2 0.1 0.4 0.1 0.6-0.1 0.2-0.1 0.4-0.2 0.5-0.4 0.1 0.1 0.2 0.2 0.2 0.4v0.4h0.4c0.1 0.2 0.2 0.2 0.4 0.2l-0.4 0.5h-13.1v-14c0.1 0 0.2-0.1 0.2-0.2 0 0.4 0.2 0.7 0.4 0.9z"></path><path fill="#f6da44" d="m0.8 23.3c0.6-0.1 1.2 0 1.8 0.1-0.5 0.3-0.9 0.6-1.4 0.9-0.3-0.3-0.5-0.6-0.4-1z"></path><path fill="#fad729" d="m30 22.7c0.4 0.1 0.8 0.3 1.1 0.4 0.6 0.2 1 0.6 1.5 0.9 0.6 0.3 1.2 0.6 1.8 0.8v0.9c-1.6-0.3-3.2-0.8-4.8-1.4-0.1-0.1-0.2-0.2-0.1-0.3 0.2-0.5 0.3-0.9 0.5-1.3z"></path><path fill="#fdfdee" d="m15.8 24.7c0.3 0.1 0.6 0.2 0.9 0.2 0.9 0.1 1.8 0.1 2.8 0.1v0.4c-1.4 0-2.7 0-4.1-0.2-0.8-0.1-1.4-0.4-2-0.9-0.2-0.5-0.1-0.7 0.5-0.7 0.5 0.6 1.1 1 1.9 1.1z"></path><path fill="#fdf5ae" d="m15.8 24.7c1.3 0 2.6 0.1 3.8 0.3v0.5h-3.1c-0.4 0.1-0.8 0-1.1-0.3 1.4 0.2 2.7 0.2 4.1 0.2v-0.4c-1 0-1.9 0-2.8-0.1-0.3 0-0.6-0.1-0.9-0.2z"></path><path fill="#f4e473" d="m19.6 25c0.1 0.1 0.2 0.2 0.2 0.4h0.5c-0.1 0.1-0.3 0.2-0.5 0.1 0 0.2-0.1 0.4-0.2 0.6v-0.4c-1 0-2.1 0-3.1-0.2h3.1v-0.5z"></path><path fill="#fdfceb" d="m29.5 24c-0.1 0.1 0 0.2 0.1 0.3 1.6 0.6 3.2 1.1 4.8 1.4 0.1 0.1 0.1 0.2-0.2 0.2-0.2-0.1-0.5-0.1-0.7 0-0.1 0.3 0.1 0.4 0.3 0.3 0.1 0.3 0 0.4-0.1 0.6v-0.4c-0.4-0.1-0.9-0.2-1.3-0.3l-0.3 0.1c0.4 0.3 0.8 0.7 1.1 1 0.1 0 0.2-0.1 0.3-0.1-0.1 0.2-0.3 0.3-0.7 0.3-0.1 0.1-0.1 0.2-0.1 0.4-1.1-1-2.1-2-3.1-3-0.4-0.1-0.7 0-0.9 0.4-0.1 0.3-0.1 0.5 0 0.7 0.9 0.9 1.8 1.8 2.6 2.7-0.2 0-0.3 0.1-0.3 0.3 0.1 0.3 0.3 0.5 0.4 0.7h-0.3c-0.9-1-1.8-2-2.8-3-0.7 0-0.9 0.4-0.7 1-0.1 0-0.3-0.1-0.3-0.2-0.1-0.4-0.1-0.7 0.2-1-0.1 0-0.2-0.1-0.3-0.2l0.4-0.7 0.2 0.3c0.2-0.5 0.1-0.9-0.2-1.3 0.3 0 0.5 0 0.7 0 0.1 0.1 0.2 0.2 0.2 0.3 0.5-0.1 0.8-0.4 1-0.8z"></path><path fill="#f4da47" d="m2.2 26.8v-0.4c0.2 0 0.3 0 0.4-0.2 0.4-0.2 0.8-0.3 1.3-0.1-0.4 0.5-0.8 0.8-1.3 1.1-0.2-0.1-0.3-0.2-0.4-0.4z"></path><path fill="#f6d72f" d="m33.7 26.8c-0.1 0-0.2 0.1-0.2 0.3-0.1 0-0.2 0.1-0.3 0.1-0.3-0.3-0.7-0.7-1.1-1l0.3-0.1c0.4 0.1 0.9 0.2 1.3 0.3v0.4z"></path><path fill="#fad725" d="m3 28.2c0.1-0.2 0.1-0.4 0.3-0.6 1-1 2.1-2 3.2-2.9 0.5 0.4 0.6 0.8 0.5 1.4-1 0.9-2 1.9-3 2.9-0.1 0.1-0.2 0.1-0.3 0-0.2-0.3-0.4-0.6-0.7-0.8z"></path><path fill="#fdfce8" d="m16.1 0.1v6c0.4 0 0.8 0 1.1-0.1v0.4c-0.3 0-0.6 0-0.8 0.1 0.8 0.1 1.7 0.2 2.5 0.3-4.1-0.3-7.6 1.1-10.3 4.2-0.2 0.3-0.3 0.5-0.4 0.7-0.2 0.2-0.5 0.4-0.6 0.7l-1 1.9c-0.2 0.9-0.5 1.8-0.7 2.8-0.4 6.6 2.5 11 8.7 13.3 0 0.2 0.1 0.3 0.2 0.4-0.3 0.1-0.7 0.1-1.1-0.1-0.4 0-0.7-0.1-1-0.3-0.1 0.1-0.2 0.1-0.3 0.2-0.4 1.2-0.7 2.5-1.1 3.7 0 0.4 0.2 0.6 0.6 0.5-0.2 0.2-0.4 0.2-0.6 0.1-0.2-0.3-0.4-0.6-0.5-0.9 0 0.1-0.1 0.2-0.2 0.2 0.1-0.4 0.1-0.8 0.1-1.2-0.2 0.1-0.5 0.2-0.6 0.4 0-0.3 0-0.6 0-0.8-0.2 0.3-0.5 0.5-0.9 0.7 1-1.1 2-2.1 3-3.1-0.5-0.2-0.9-0.5-1.4-0.7-1.1 0.9-2.1 1.9-3.1 2.9 0 0.1-0.1 0.3 0 0.4-0.3-0.2-0.7-0.4-1-0.7 0.1 0.1 0.3 0 0.4 0l2.9-2.9c0-0.7-0.3-0.9-0.9-0.7-1 0.9-1.9 1.9-2.8 2.8v-0.4c-0.4 0.1-0.6 0.1-0.9 0 1.2-1 2.3-2.1 3.4-3.2-0.3-0.5-0.7-0.9-1.3-1.1l-3 3c-0.1 0.1-0.1 0.3-0.1 0.4-0.3-0.3-0.7-0.7-1-1.1-0.2 0.3-0.4 0.4-0.7 0.4 0.3-0.4 0.4-0.7 0.3-1.1 0.3 0.2 0.5 0.5 0.7 0.8 0.1 0.1 0.2 0.1 0.3 0 1-1 2-2 3-2.9 0.1-0.6 0-1-0.5-1.4-1.1 0.9-2.2 1.9-3.2 2.9-0.3-0.2-0.7-0.3-1.1-0.2v-0.6c0.1 0.2 0.2 0.3 0.4 0.4 0.5-0.3 0.9-0.6 1.3-1.1-0.5-0.2-0.9-0.1-1.3 0.1-0.2-0.1-0.5-0.2-0.7-0.4-0.3 0.1-0.5 0-0.4-0.4 0.1 0.1 0.2 0.2 0.3 0.3 1.5-0.4 3-0.9 4.5-1.3 0-0.5-0.2-1-0.5-1.4-0.2-0.2-0.5-0.2-0.8 0-1.5-0.2-3-0.4-4.5-0.4-0.2-0.2-0.4-0.5-0.4-0.9 0 0.1-0.1 0.2-0.2 0.2v-1.7h0.2c-0.1 0.1 0 0.2 0.1 0.3 1.7 0.1 3.4 0.1 5.1 0.1 0-0.4 0-0.8-0.2-1.1-1.7-0.2-3.4-0.2-5.2-0.2v-0.7h5.2v-0.7c0.2-0.3 0.2-0.6 0.2-1h-5.4v-0.7c1.9 0.1 3.7 0 5.5-0.1v-0.1c0.1-0.2 0.2-0.4 0.2-0.6h-5.7v-2.8c0.2 0.1 0.4 0.3 0.6 0.4 0 0.3-0.1 0.7-0.1 1-0.2 0.2-0.2 0.4-0.2 0.7 1.1 0 2.3 0 3.4-0.1-0.1-0.2-0.2-0.3-0.4-0.3-0.8-0.4-1.5-0.7-2.1-1.2 0.2 0.1 0.4 0 0.7-0.1-0.2-0.1-0.3-0.2-0.3-0.4 1.4 0.8 2.9 1.5 4.3 2.2 0.2-0.5 0.3-1 0.5-1.5-0.6-0.1-1.2-0.3-1.7-0.6 0.1-0.1 0.2-0.2 0.4-0.3l-0.4-0.1c-0.2 0-0.4 0.1-0.4 0.3-0.3-0.3-0.7-0.4-1.2-0.5 0.2-0.2 0.5-0.3 0.7-0.2 0.3 0 0.5 0 0.7-0.2-0.6-0.7-1.3-1.4-2.1-2-0.1-0.1-0.3-0.1-0.4 0.1l-0.4 0.7c0 0.3 0 0.5 0.3 0.7h-0.6c0.1-0.4 0.1-0.7 0-1.1 0.3-0.1 0.3-0.2 0.1-0.4 0.3-0.1 0.6-0.2 0.9-0.3 0.1 0 0.3 0.1 0.3 0.2 0.1-0.2 0.3-0.2 0.5-0.2 0.1-0.1 0.2 0 0.3 0 1.1 1.1 2.1 2.1 3.1 3.3 0.1 0 0.2 0 0.4-0.1 0.1-0.2 0.2-0.5 0.3-0.7-0.9-1.2-1.9-2.3-3-3.3-0.3-0.2-0.6-0.4-0.8-0.7-0.2-0.1-0.4-0.1-0.6 0-0.1-0.1-0.2-0.1-0.4-0.1v0.4c-0.1 0.1-0.3 0-0.4-0.1 0.3-0.3 0.5-0.6 0.8-0.9 0.3 0 0.4 0.1 0.5 0.3 0.1-0.3 0.3-0.5 0.5-0.7 0 0.2 0 0.3 0.1 0.4 1.3 1.2 2.6 2.4 3.7 3.8 0.4-0.1 0.7-0.3 0.9-0.7l-3.8-3.9c-0.4-0.2-0.7-0.1-0.9 0.3-0.1-0.2-0.2-0.5-0.4-0.7 0.2 0 0.4 0 0.6 0.1 0.7-0.1 0.9-0.4 0.7-1 0.2-0.3 0.4-0.3 0.7-0.1-0.3 0.2-0.3 0.5-0.2 0.8l3.7 3.8c0.1 0.1 0.3 0.1 0.4 0 0.2-0.4 0.4-0.6 0.8-0.8 0.1-0.2 0.1-0.3 0-0.4-1.3-1.3-2.5-2.6-3.7-3.8 0.3 0 0.5 0.1 0.6 0.4 0.4-0.3 0.3-0.4-0.2-0.4v-0.5c1.4 1.2 2.7 2.5 4.1 3.9 1-0.1 1.2-0.5 0.4-1.2 0.1 0 0.2 0.1 0.3 0.2 0.2-0.4 0.3-0.8 0.2-1.2-0.4 0.1-0.6-0.1-0.6-0.5 0.2 0.2 0.3 0.3 0.4 0-0.2-0.4-0.3-0.8-0.3-1.3 0.5 1 0.8 2.1 1 3.2 0.6-0.1 1.1-0.3 1.7-0.5-0.1-0.1-0.1-0.2-0.2-0.3 0.2-2 0.4-4 0.4-6v6.1l1.2-0.1c-0.1 0.2-0.1 0.3-0.3 0.4 0.4 0.1 0.7 0 1.1-0.1l-0.6-0.2c0.2-0.1 0.3-0.2 0.4-0.4 0-2 0.1-4 0.2-6z"></path><path fill="#efde72" d="m5.6 22c0.1 0.2 0.1 0.3 0.1 0.6h-5.2v-0.2h5.1v-0.4z"></path><path fill="#fbd61c" d="m5.6 22v0.4h-5.1c-0.1-0.3-0.1-0.7-0.1-1.1 1.6 0 3.3 0 5 0.1 0.1 0.2 0.2 0.4 0.2 0.6z"></path><path fill="#fbf39b" d="m0.4 14v0.6c0.9 0 1.9 0 2.9-0.1-0.1-0.1-0.1-0.1-0.1-0.2 0.2 0 0.3 0.1 0.4 0.3-1.1 0.1-2.3 0.1-3.4 0.1 0-0.3 0-0.5 0.2-0.7z"></path><path fill="#f9d623" d="m0.5 13c0.2 0 0.4 0 0.6 0.1 0.6 0.5 1.3 0.8 2.1 1.2 0 0.1 0 0.1 0.1 0.2-1 0.1-2 0.1-2.9 0.1v-0.6c0-0.3 0.1-0.7 0.1-1z"></path><path fill="#fad729" d="m32.7 27.8c0 0.5-0.2 0.9-0.6 1.3-0.1 0.1-0.2 0.1-0.2 0-0.2-0.2-0.4-0.3-0.6-0.5-0.8-0.9-1.7-1.8-2.6-2.7-0.1-0.2-0.1-0.4 0-0.7 0.2-0.4 0.5-0.5 0.9-0.4 1 1 2 2 3.1 3z"></path><path fill="#fad72b" d="m5.4 30.9l-1-0.9c0-0.1 0-0.3 0.1-0.4l3-3c0.6 0.2 1 0.6 1.3 1.1-1.1 1.1-2.2 2.2-3.4 3.2z"></path><path fill="#fad621" d="m31.1 29.6c0.1 0.7-0.2 0.9-0.8 0.6-0.9-0.9-1.8-1.7-2.7-2.6-0.2-0.6 0-1 0.7-1 1 1 1.9 2 2.8 3z"></path><path fill="#f8d82b" d="m6.7 32.1c-0.2-0.2-0.4-0.4-0.6-0.6 0-0.1 0.1-0.2 0.2-0.2 0.9-0.9 1.8-1.9 2.8-2.8 0.6-0.2 0.9 0 0.9 0.7l-2.9 2.9c-0.1 0-0.3 0.1-0.4 0z"></path><path fill="#fad623" d="m26.6 27.9c0.3 0 0.6 0.2 0.8 0.4 0.7 0.7 1.4 1.4 2.2 2.1 0.2 0.3 0.3 0.6 0.4 0.9l-0.8 0.8c-0.2 0-0.4 0-0.6-0.1-0.9-1-1.9-2-2.9-3 0.3-0.4 0.6-0.7 0.9-1.1z"></path><path fill="#f6e888" d="m31.1 29.6h0.3c0 0.4-0.1 0.7-0.4 0.9-0.4 0.2-0.6 0-0.7-0.3 0.6 0.3 0.9 0.1 0.8-0.6z"></path><path fill="#fad71d" d="m24.7 29.5c0.1-0.1 0.3 0 0.4 0 1 1 2 2.1 3 3.1-0.3 0.2-0.4 0.4-0.6 0.7-0.2 0-0.4 0-0.6-0.1-1-1-2-2-2.9-3.1 0.2-0.2 0.4-0.5 0.7-0.6z"></path><path fill="#fdfce8" d="m26.6 27.9c-0.3 0.4-0.6 0.7-0.9 1.1 1 1 2 2 2.9 3-0.1 0-0.2 0-0.3-0.1-0.3 0.3-0.2 0.5 0.2 0.7-0.1 0-0.1 0.1-0.2 0.2 0.2 0 0.4 0.1 0.6 0.2-0.2 0.2-0.4 0.4-0.6 0.5-0.1-0.1-0.1-0.2-0.1-0.4-0.2 0-0.5 0.1-0.7 0.2 0.2-0.3 0.3-0.5 0.6-0.7-1-1-2-2.1-3-3.1-0.1 0-0.3-0.1-0.4 0 0-0.2-0.1-0.4-0.2-0.5l0.2-0.2c0.3 0.4 0.4 0.3 0.4-0.2 0.4 0 0.7-0.1 1-0.3l-0.3-0.2c0.2-0.1 0.2-0.3 0-0.5 0.2-0.3 0.4-0.4 0.7-0.2-0.5 0.2-0.4 0.4 0.1 0.5z"></path><path fill="#fbd71e" d="m9.2 33.3c-0.3 0.1-0.5 0.1-0.8 0-0.2-0.2-0.5-0.4-0.7-0.5-0.1-0.1 0-0.3 0-0.4 1-1 2-2 3.1-2.9 0.5 0.2 0.9 0.5 1.4 0.7-1 1-2 2-3 3.1z"></path><path fill="#fefcd1" d="m18.4 30.3c-0.1 0.3-0.1 0.7-0.3 1-0.1-0.2-0.2-0.3-0.5-0.2l0.3 0.2c0 1.5 0.1 3.1 0 4.6h-0.1v-4.5h-1.7c0.4-0.1 0.8-0.2 1.3-0.2l-0.2-0.1c-0.7-0.1-1.4-0.2-2.1-0.4-0.1 0.1-0.2 0.3-0.1 0.4h-0.4c-0.1-0.1-0.3-0.1-0.5-0.1v4.5c-0.1-1.4-0.2-2.8-0.2-4.2 0 0.3-0.2 0.6-0.5 0.7 0.1-0.3 0.3-0.7 0.5-1-0.1-0.1-0.1-0.2-0.2-0.3 0.4 0.2 0.8 0.2 1.1 0.1-0.1-0.1-0.2-0.2-0.2-0.4 0.9 0.2 1.8 0.4 2.7 0.5l0.8-0.1c0.1-0.2 0.1-0.4 0.3-0.5z"></path><path fill="#fbd610" d="m14.6 31.1h0.4c0 0.2 0.1 0.2 0.3 0.2v4.3c-0.4 0-0.7-0.1-1-0.1-0.1-1.5 0-3 0.3-4.4z"></path><path fill="#fce778" d="m16.1 31.4h0.3c-0.2 1.6-0.2 3.1 0.1 4.5h-0.4v-4.5z"></path><path fill="#fcd617" d="m16.4 31.4h1.4v4.5h-1.3c-0.3-1.4-0.3-2.9-0.1-4.5z"></path><path fill="#f9d625" d="m13.7 30.7c0.1 0.1 0.1 0.2 0.2 0.3-0.2 0.3-0.4 0.7-0.5 1-0.6 0.9-1.1 1.8-1.5 2.8-0.4 0.1-0.6-0.1-0.6-0.5 0.4-1.2 0.7-2.5 1.1-3.7 0.1-0.1 0.2-0.1 0.3-0.2 0.3 0.2 0.6 0.3 1 0.3z"></path><path fill="#f2d955" d="m14.6 31.1c-0.3 1.4-0.4 2.9-0.3 4.4 0.3 0 0.6 0.1 1 0.1v-4.3c0.1 1.5 0.1 3 0.1 4.5-0.5 0-0.9-0.1-1.3-0.3v-4.5c0.2 0 0.4 0 0.5 0.1z"></path><path fill="#f2db4c" d="m10.6 34.2c-0.8 0.1-1-0.1-0.5-0.8 0.1-0.2 0.4-0.3 0.6-0.4 0 0.4 0 0.8-0.1 1.2z"></path><path fill="#f6ea97" d="m13.4 35.4c-0.2 0-0.3 0-0.4-0.2 0.2-0.1 0.3-0.2 0.3-0.5 0-0.2-0.1-0.4-0.3-0.5 0.1-0.1 0.2-0.3 0.3-0.4 0.1 0.5 0.2 1 0.1 1.6z"></path><path fill="#f3da46" d="m13 34.2c0.2 0.1 0.3 0.3 0.3 0.5 0 0.3-0.1 0.4-0.3 0.5h-0.4v-0.4c0.2-0.1 0.3-0.3 0.4-0.6z"></path><path fill="#fdfdeb" d="m20.3 25.4h0.3c-0.2 0.1-0.2 0.2 0 0.3-0.8 0.3-1.1 0.8-0.8 1.6-0.2 0.1-0.3 0.2-0.3 0.3 0.2 0.3 0.3 0.6 0.4 0.9-0.1 0.4-0.1 0.8-0.1 1.2-0.4 0.1-0.7 0-1-0.1-0.2 0.3-0.2 0.6-0.1 0.8 0.3 0.2 0.7 0.2 1.1 0.3l-0.6 0.4c0.4 0 0.7 0.1 1.1 0.3 0 0 0.1-0.1 0.2-0.1v4.5c0.4-0.1 0.8-0.1 1.2-0.2v-4.6l0.3-0.3c0.7 1.3 1.3 2.6 1.9 4 0.3 0.1 0.6 0.1 0.9 0 0-0.3 0-0.6 0-0.9-0.4-1.2-0.8-2.3-1.1-3.5h-0.6c0.1-0.5 0.4-0.7 0.9-0.6 0.2-0.2 0.4-0.3 0.7-0.2-0.3 0.1-0.5 0.4-0.7 0.6 0.9 1.1 1.9 2.1 2.9 3.1 0.2 0.1 0.4 0.1 0.6 0.1-0.1 0.1-0.1 0.2-0.3 0.2-0.1-0.1-0.3-0.1-0.4 0 0.2 0.3 0.1 0.3-0.2 0.2-0.3 0.3-0.6 0.6-1.1 0.7 0-0.3 0-0.5-0.2-0.7-0.1-0.2-0.2-0.2-0.3 0 0 0.2 0.1 0.3 0.2 0.4 0 0.4-0.3 0.7-0.7 0.8 0.4 0.1 0.6 0 0.9-0.2 0.2 0.1 0.2 0.3 0 0.5-0.3 0-0.6 0.1-0.9 0.2-0.1 0.1-0.1 0.2-0.1 0.4-0.1 0-0.3 0-0.4-0.1 0.2-0.1 0.3-0.3 0.2-0.6-0.3 0.1-0.4 0.4-0.4 0.7-0.2-0.1-0.5 0-0.7 0.1h-3.5v-4.5h-1v4.5h-0.7c0.1-1.5 0-3.1 0-4.6l-0.3-0.2c0.3-0.1 0.4 0 0.5 0.2 0.2-0.3 0.2-0.7 0.3-1 0.2-1.4 0.7-2.9 1.2-4.2 0.1-0.2 0.2-0.4 0.2-0.6 0.2 0.1 0.4 0 0.5-0.1z"></path><path fill="#faf0a3" d="m22.9 34.1c-0.1 0-0.2-0.1-0.3-0.1l0 0.6c0 0.3 0.1 0.5 0.3 0.6-0.1 0.2-0.3 0.2-0.5 0.2 0-0.6 0-1.2 0.2-1.7 0.2 0.1 0.3 0.2 0.3 0.4z"></path><path fill="#f2d74d" d="m21.7 31v4.6c-0.4 0.1-0.8 0.1-1.2 0.2v-4.5c0.1-0.1 0.3-0.2 0.5-0.2 0.2-0.1 0.5-0.1 0.7-0.1z"></path><path fill="#f4d83a" d="m25.2 32.7c0.5 0.2 0.8 0.6 1 1.1-0.1 0.1-0.3 0.2-0.5 0.3-0.2-0.4-0.4-0.9-0.5-1.4z"></path><path fill="#f9d72a" d="m23.1 30.3h0.6c0.3 1.2 0.7 2.3 1.1 3.5 0 0.3 0 0.6 0 0.9-0.3 0.1-0.6 0.1-0.9 0-0.6-1.4-1.2-2.7-1.9-4 0.4 0 0.8-0.1 1.1-0.4z"></path><path fill="#fad51e" d="m19.6 35.9h-1v-4.5h1v4.5z"></path><path fill="#fdd60d" d="m21 31.1h0.6v4.4h-1v-4.2c0.2 0 0.3 0 0.4-0.2z"></path><path fill="#f4d939" d="m22.9 34.1c0.2 0.3 0.4 0.7 0.4 1.1h-0.4c-0.2-0.1-0.3-0.3-0.3-0.6l0-0.6c0.1 0 0.2 0.1 0.3 0.1z"></path><path fill="#fdfdef" d="m16.1 31.4v4.5h-3.1l0.4-0.5c0.1-0.6 0-1.1-0.1-1.6-0.1 0.1-0.2 0.3-0.3 0.4-0.1 0.3-0.2 0.5-0.4 0.6 0-0.2-0.1-0.3-0.2-0.4-0.1 0.2-0.3 0.3-0.5 0.4 0.4-1 0.9-1.9 1.5-2.8 0.3-0.1 0.5-0.4 0.5-0.7 0 1.4 0.1 2.8 0.2 4.2 0.4 0.2 0.8 0.3 1.3 0.3 0-1.5 0-3-0.1-4.5-0.2 0-0.3 0-0.3-0.2-0.1-0.1 0-0.3 0.1-0.4 0.7 0.2 1.4 0.3 2.1 0.4l0.2 0.1c-0.5 0-0.9 0.1-1.3 0.2z"></path></svg>