<svg xmlns="http://www.w3.org/2000/svg" version="1.1" width="320px" height="320px" style="shape-rendering:geometricPrecision; text-rendering:geometricPrecision; image-rendering:optimizeQuality; fill-rule:evenodd; clip-rule:evenodd" xmlns:xlink="http://www.w3.org/1999/xlink">
<g><path style="opacity:1" fill="#fcfcfd" d="M -0.5,-0.5 C 106.167,-0.5 212.833,-0.5 319.5,-0.5C 319.5,106.167 319.5,212.833 319.5,319.5C 270.167,319.5 220.833,319.5 171.5,319.5C 182.763,317.667 194.097,315.5 205.5,313C 210.491,311.007 215.491,309.174 220.5,307.5C 222.394,306.055 224.06,304.388 225.5,302.5C 227.734,300.554 230.401,299.387 233.5,299C 234.381,298.292 235.047,297.458 235.5,296.5C 237.687,295.242 240.02,294.242 242.5,293.5C 246.954,292.374 250.621,290.041 253.5,286.5C 253.833,285.5 254.5,284.833 255.5,284.5C 257.827,284.753 259.827,284.086 261.5,282.5C 265.212,278.128 268.879,273.795 272.5,269.5C 279.106,262.05 285.606,254.383 292,246.5C 295.84,240.144 299.007,233.477 301.5,226.5C 303.201,225.475 304.535,223.975 305.5,222C 306.368,217.892 307.701,214.058 309.5,210.5C 311.277,207.495 312.277,204.162 312.5,200.5C 313.117,200.389 313.617,200.056 314,199.5C 318.343,182.901 319.51,166.235 317.5,149.5C 317.5,146.167 317.5,142.833 317.5,139.5C 317.665,136.482 317.498,133.482 317,130.5C 316.617,129.944 316.117,129.611 315.5,129.5C 315.5,128.833 315.5,128.167 315.5,127.5C 315.435,124.572 314.768,121.905 313.5,119.5C 312.453,114.934 310.786,110.601 308.5,106.5C 306.632,99.2353 303.966,92.2353 300.5,85.5C 298.066,81.7471 295.899,77.7471 294,73.5C 293.292,72.6195 292.458,71.9528 291.5,71.5C 277.358,50.0259 259.024,33.0259 236.5,20.5C 236.167,20.5 235.833,20.5 235.5,20.5C 230.533,16.5182 224.866,13.8516 218.5,12.5C 217.609,11.8902 216.609,11.5569 215.5,11.5C 214.4,10.4415 213.066,9.6082 211.5,9C 205.765,7.42502 200.099,5.92502 194.5,4.5C 194.167,4.5 193.833,4.5 193.5,4.5C 189.41,2.92506 185.077,1.92506 180.5,1.5C 178.167,1.5 175.833,1.5 173.5,1.5C 162.674,0.340973 151.674,0.174306 140.5,1C 138.618,1.19808 136.952,1.69808 135.5,2.5C 133.621,3.34141 131.621,3.67474 129.5,3.5C 126.447,3.11066 123.78,3.77733 121.5,5.5C 121.167,5.5 120.833,5.5 120.5,5.5C 114.157,7.22455 107.824,9.05788 101.5,11C 99.3162,12.3634 97.3162,13.8634 95.5,15.5C 94.8333,15.5 94.1667,15.5 93.5,15.5C 88.2796,18.2151 82.9463,20.7151 77.5,23C 76.6195,23.7083 75.9528,24.5416 75.5,25.5C 71.9754,26.7589 68.9754,28.7589 66.5,31.5C 55.5445,39.4547 45.8779,48.7881 37.5,59.5C 28.5594,69.0344 21.8928,80.0344 17.5,92.5C 15.7497,93.6594 14.7497,95.326 14.5,97.5C 10.0684,103.28 7.73504,109.946 7.5,117.5C 7.76781,119.099 7.43448,120.432 6.5,121.5C 4.65621,125.862 3.65621,130.529 3.5,135.5C 3.5,136.833 3.5,138.167 3.5,139.5C 2.33996,151.993 2.17329,164.66 3,177.5C 4.37179,181.897 5.53846,186.231 6.5,190.5C 6.5,190.833 6.5,191.167 6.5,191.5C 8.01174,198.877 9.84507,206.21 12,213.5C 15.4389,220.73 18.9389,227.73 22.5,234.5C 23.2632,236.368 24.2632,238.035 25.5,239.5C 26.1098,240.391 26.4431,241.391 26.5,242.5C 26.4486,244.57 27.1153,246.403 28.5,248C 28.2645,248.873 27.9312,249.707 27.5,250.5C 30.6925,251.366 33.3592,253.032 35.5,255.5C 38.1395,258.806 41.1395,261.806 44.5,264.5C 45.7536,267.093 47.4202,269.427 49.5,271.5C 49.3505,272.552 49.5172,273.552 50,274.5C 53.5,276.667 56.3333,279.5 58.5,283C 59.7932,283.49 61.1266,283.657 62.5,283.5C 62.3433,284.873 62.51,286.207 63,287.5C 64.2988,287.034 65.7988,287.034 67.5,287.5C 67.5,288.5 67.5,289.5 67.5,290.5C 69.861,290.674 72.1944,291.007 74.5,291.5C 75.1408,292.482 75.8075,293.482 76.5,294.5C 83.2047,298.607 90.2047,302.273 97.5,305.5C 98.4803,306.981 99.647,308.315 101,309.5C 104.16,308.249 107.66,308.249 111.5,309.5C 118.767,312.144 126.1,314.144 133.5,315.5C 133.586,316.496 133.252,317.329 132.5,318C 130.618,318.198 128.952,318.698 127.5,319.5C 84.8333,319.5 42.1667,319.5 -0.5,319.5C -0.5,212.833 -0.5,106.167 -0.5,-0.5 Z"/></g>
<g><path style="opacity:1" fill="#3150ac" d="M 181.5,103.5 C 202.5,103.5 223.5,103.5 244.5,103.5C 243.791,104.404 242.791,104.737 241.5,104.5C 233.5,104.5 225.5,104.5 217.5,104.5C 205.655,104.172 193.988,104.505 182.5,105.5C 182.5,159.833 182.5,214.167 182.5,268.5C 182.819,273.363 182.486,278.03 181.5,282.5C 181.5,222.833 181.5,163.167 181.5,103.5 Z"/></g>
<g><path style="opacity:1" fill="#33489b" d="M 3.5,139.5 C 3.5,145.833 3.5,152.167 3.5,158.5C 4.41573,169.129 5.41573,179.796 6.5,190.5C 5.53846,186.231 4.37179,181.897 3,177.5C 2.17329,164.66 2.33996,151.993 3.5,139.5 Z"/></g>
<g><path style="opacity:1" fill="#1a3990" d="M 314.5,127.5 C 314.833,127.5 315.167,127.5 315.5,127.5C 315.5,128.167 315.5,128.833 315.5,129.5C 315.322,133.122 315.989,136.456 317.5,139.5C 317.5,142.833 317.5,146.167 317.5,149.5C 317.826,158.017 317.493,166.35 316.5,174.5C 316.821,158.764 316.154,143.098 314.5,127.5 Z"/></g>
<g><path style="opacity:1" fill="#adc4ff" d="M 6.5,153.5 C 6.83333,153.5 7.16667,153.5 7.5,153.5C 7.53944,154.583 7.87277,155.583 8.5,156.5C 8.03017,157.463 7.3635,157.463 6.5,156.5C 6.5,155.5 6.5,154.5 6.5,153.5 Z"/></g>
<g><path style="opacity:1" fill="#0938c9" d="M 12.5,128.5 C 13.0431,128.56 13.3764,128.893 13.5,129.5C 5.49521,132.102 5.49521,133.436 13.5,133.5C 8.25842,135.311 8.59175,136.311 14.5,136.5C 16.1667,136.167 17.8333,135.833 19.5,135.5C 19.2176,133.013 19.2176,130.347 19.5,127.5C 20.8333,127.5 22.1667,127.5 23.5,127.5C 22.4997,143.505 22.4997,159.505 23.5,175.5C 24.3323,165.183 24.8323,154.849 25,144.5C 26.3124,156.01 26.9791,167.677 27,179.5C 28.092,182.044 28.7586,184.711 29,187.5C 31.1504,184.49 30.9838,181.657 28.5,179C 29.448,178.517 30.448,178.351 31.5,178.5C 31.7846,173.103 31.4512,167.77 30.5,162.5C 30.968,160.866 31.968,159.7 33.5,159C 31.709,156.894 31.0423,154.394 31.5,151.5C 32.8333,151.5 34.1667,151.5 35.5,151.5C 36.6392,154.004 37.3059,156.67 37.5,159.5C 38.8734,159.657 40.2068,159.49 41.5,159C 40.3044,158.346 40.3044,157.846 41.5,157.5C 43.1789,159.104 45.1789,159.771 47.5,159.5C 47.5,162.167 47.5,164.833 47.5,167.5C 50.1667,167.5 52.8333,167.5 55.5,167.5C 55.5,170.167 55.5,172.833 55.5,175.5C 58.1667,175.5 60.8333,175.5 63.5,175.5C 63.8171,196.716 64.1505,217.383 64.5,237.5C 63.7639,242.803 63.2639,248.137 63,253.5C 61.8176,250.445 60.4843,247.445 59,244.5C 58.0565,245.263 57.5565,246.263 57.5,247.5C 61.1807,255.507 58.8473,259.507 50.5,259.5C 50.7751,261.758 51.7751,262.092 53.5,260.5C 54.1867,262.274 55.0201,263.941 56,265.5C 56.6708,264.748 57.5041,264.414 58.5,264.5C 56.8597,259.802 58.5263,257.135 63.5,256.5C 63.3505,257.552 63.5172,258.552 64,259.5C 68.1049,262.283 71.6049,265.617 74.5,269.5C 75.8498,268.05 77.5165,267.383 79.5,267.5C 79.3433,268.873 79.51,270.207 80,271.5C 84.4083,274.289 88.9083,276.955 93.5,279.5C 94.4847,281.098 94.6514,282.765 94,284.5C 90.2844,279.241 85.6178,277.908 80,280.5C 79.3333,281.167 79.3333,281.833 80,282.5C 80.6708,281.748 81.5041,281.414 82.5,281.5C 82.3893,282.117 82.056,282.617 81.5,283C 84.9055,283.603 85.2388,284.769 82.5,286.5C 81.056,285.019 80.3894,285.352 80.5,287.5C 79.3707,286.53 78.3707,285.364 77.5,284C 80.8029,278.911 79.8029,274.911 74.5,272C 72.1667,271.333 69.8333,271.333 67.5,272C 69.3817,272.198 71.0484,272.698 72.5,273.5C 70.9652,274.844 69.6319,276.511 68.5,278.5C 69.0253,279.192 69.6919,279.692 70.5,280C 69.1602,282.179 69.4935,282.679 71.5,281.5C 72.7784,282.791 73.4451,284.791 73.5,287.5C 74.9168,288.892 77.2501,289.892 80.5,290.5C 82.8948,289.477 83.8948,290.477 83.5,293.5C 81.5441,291.852 79.2108,291.185 76.5,291.5C 75.8333,291.5 75.1667,291.5 74.5,291.5C 74.1667,290.833 73.8333,290.167 73.5,289.5C 72.3949,286.668 70.3949,284.668 67.5,283.5C 66.5713,282.311 66.238,280.978 66.5,279.5C 65.5,279.5 64.5,279.5 63.5,279.5C 63.6567,278.127 63.49,276.793 63,275.5C 62.2904,276.973 61.1238,277.64 59.5,277.5C 59.5,276.167 59.5,274.833 59.5,273.5C 57.712,273.785 56.0453,273.452 54.5,272.5C 52.6206,267.948 49.2873,265.281 44.5,264.5C 43.287,261.775 41.4536,259.441 39,257.5C 38.0138,255.222 37.1805,252.889 36.5,250.5C 33.5793,248.704 31.0793,246.37 29,243.5C 28.51,242.207 28.3433,240.873 28.5,239.5C 27.5,239.5 26.5,239.5 25.5,239.5C 24.2632,238.035 23.2632,236.368 22.5,234.5C 16.2863,220.267 10.953,205.934 6.5,191.5C 6.5,191.167 6.5,190.833 6.5,190.5C 5.41573,179.796 4.41573,169.129 3.5,158.5C 4.22235,157.449 5.22235,156.782 6.5,156.5C 7.3635,157.463 8.03017,157.463 8.5,156.5C 7.87277,155.583 7.53944,154.583 7.5,153.5C 7.16667,153.5 6.83333,153.5 6.5,153.5C 5.28694,152.048 5.62027,150.714 7.5,149.5C 4.71951,146.643 5.05284,144.31 8.5,142.5C 10.717,143.369 13.0504,143.702 15.5,143.5C 15.496,137.216 12.8293,135.882 7.5,139.5C 6.77842,139.918 6.27842,140.584 6,141.5C 6.3256,136.56 6.49227,131.56 6.5,126.5C 7.83333,126.5 9.16667,126.5 10.5,126.5C 10.281,127.675 10.6143,128.675 11.5,129.5C 12.1067,129.376 12.44,129.043 12.5,128.5 Z"/></g>
<g><path style="opacity:1" fill="#798ce7" d="M 9.5,166.5 C 16.678,168.515 17.178,171.515 11,175.5C 5.75385,173.267 5.25385,170.267 9.5,166.5 Z"/></g>
<g><path style="opacity:1" fill="#acc1fe" d="M 7.5,153.5 C 9.7569,152.197 11.5902,152.864 13,155.5C 13.3333,154.5 13.6667,153.5 14,152.5C 14.7975,154.259 14.6309,155.926 13.5,157.5C 11.736,155.722 9.73604,154.389 7.5,153.5 Z"/></g>
<g><path style="opacity:1" fill="#3755ad" d="M 73.5,104.5 C 73.5,104.167 73.5,103.833 73.5,103.5C 73.8333,103.5 74.1667,103.5 74.5,103.5C 95.5,103.5 116.5,103.5 137.5,103.5C 137.5,162.833 137.5,222.167 137.5,281.5C 136.501,237.67 136.168,193.67 136.5,149.5C 136.5,134.5 136.5,119.5 136.5,104.5C 125.167,104.5 113.833,104.5 102.5,104.5C 92.8333,104.5 83.1667,104.5 73.5,104.5 Z"/></g>
<g><path style="opacity:1" fill="#9fb0f4" d="M 8.5,142.5 C 7.89022,141.609 7.55688,140.609 7.5,139.5C 12.8293,135.882 15.496,137.216 15.5,143.5C 13.0504,143.702 10.717,143.369 8.5,142.5 Z"/></g>
<g><path style="opacity:1" fill="#0816a6" d="M 9.5,139.5 C 11.288,139.215 12.9547,139.548 14.5,140.5C 13.6667,140.833 12.8333,141.167 12,141.5C 10.6244,141.316 9.79106,140.649 9.5,139.5 Z"/></g>
<g><path style="opacity:1" fill="#b0bdde" d="M 315.5,129.5 C 316.117,129.611 316.617,129.944 317,130.5C 317.498,133.482 317.665,136.482 317.5,139.5C 315.989,136.456 315.322,133.122 315.5,129.5 Z"/></g>
<g><path style="opacity:1" fill="#0d3ac0" d="M 228.5,27.5 C 228.433,28.9587 228.766,30.2921 229.5,31.5C 229.062,31.4346 228.728,31.6012 228.5,32C 234.116,35.6155 239.116,39.9489 243.5,45C 250.756,48.7743 256.923,53.941 262,60.5C 263.579,58.5415 263.412,56.5415 261.5,54.5C 262.002,53.479 262.668,53.3123 263.5,54C 264.293,55.0852 264.96,56.2519 265.5,57.5C 264.572,58.7678 264.405,60.1011 265,61.5C 267.5,63.8333 270,66.1667 272.5,68.5C 271.572,69.7678 271.405,71.1011 272,72.5C 273.11,70.9632 274.61,70.2965 276.5,70.5C 274.11,65.9489 271.11,61.7822 267.5,58C 269.464,58.2659 270.964,59.4326 272,61.5C 272.595,60.1011 272.428,58.7678 271.5,57.5C 273.655,56.9986 275.322,55.9986 276.5,54.5C 279.092,56.0361 280.092,58.3695 279.5,61.5C 278.978,59.7809 277.978,58.4475 276.5,57.5C 275.5,57.5 274.5,57.5 273.5,57.5C 273.285,59.1788 273.952,60.1788 275.5,60.5C 277.118,61.4511 278.451,62.7844 279.5,64.5C 278.336,64.1654 277.003,64.1654 275.5,64.5C 278.426,68.079 279.426,72.079 278.5,76.5C 277.667,75.5 276.833,74.5 276,73.5C 275.376,75.4645 275.876,77.1311 277.5,78.5C 278.675,77.1451 279.675,77.3117 280.5,79C 279.663,80.0113 279.33,81.1779 279.5,82.5C 280.5,82.5 281.5,82.5 282.5,82.5C 282.343,83.8734 282.51,85.2068 283,86.5C 285.71,90.3136 288.043,94.3136 290,98.5C 290.595,99.8989 290.428,101.232 289.5,102.5C 290.665,105.501 292.332,108.168 294.5,110.5C 294.069,111.293 293.735,112.127 293.5,113C 295.833,116.836 297.166,121.002 297.5,125.5C 298.5,125.5 299.5,125.5 300.5,125.5C 300.682,123.409 300.348,121.409 299.5,119.5C 300.557,119.094 301.891,119.094 303.5,119.5C 301.576,121.09 301.243,122.924 302.5,125C 305.065,125.609 307.399,125.109 309.5,123.5C 310.268,122.737 310.768,121.737 311,120.5C 311.743,123.192 312.91,125.525 314.5,127.5C 316.154,143.098 316.821,158.764 316.5,174.5C 316.802,177.059 316.468,179.393 315.5,181.5C 315.167,181.5 314.833,181.5 314.5,181.5C 314.496,177.75 313.496,177.083 311.5,179.5C 310.132,180.306 308.799,181.306 307.5,182.5C 304.71,180.667 305.043,179.667 308.5,179.5C 308.5,178.5 308.5,177.5 308.5,176.5C 310.722,176.822 312.556,176.155 314,174.5C 315.325,169.599 315.825,164.599 315.5,159.5C 313.516,159.617 311.85,158.95 310.5,157.5C 312.044,156.378 313.377,156.711 314.5,158.5C 314.833,158 315.167,157.5 315.5,157C 314.571,155.923 313.904,154.756 313.5,153.5C 313.771,151.62 313.104,150.287 311.5,149.5C 312.091,148.849 312.757,148.182 313.5,147.5C 310.833,146.833 308.167,146.167 305.5,145.5C 307.966,144.877 310.299,144.043 312.5,143C 303.847,144.087 303.514,143.087 311.5,140C 312.712,138.893 312.379,138.393 310.5,138.5C 311.895,137.352 311.728,136.352 310,135.5C 308.56,137.046 306.727,137.879 304.5,138C 305.448,138.483 306.448,138.649 307.5,138.5C 305.625,139.732 303.792,140.398 302,140.5C 301.667,139.5 301.333,138.5 301,137.5C 301.54,150.14 301.54,162.807 301,175.5C 298.692,187.634 295.859,199.634 292.5,211.5C 291.5,211.5 290.5,211.5 289.5,211.5C 289.36,209.876 290.027,208.71 291.5,208C 289.879,203.984 289.379,199.817 290,195.5C 290.098,197.619 290.931,199.286 292.5,200.5C 294.923,192.21 296.756,183.877 298,175.5C 298.77,161.141 298.437,146.807 297,132.5C 295.142,125.684 292.976,119.017 290.5,112.5C 292.802,111.001 292.469,109.668 289.5,108.5C 288.319,104.776 286.486,101.442 284,98.5C 284.107,95.4426 282.94,93.1093 280.5,91.5C 280.105,87.5819 278.272,84.5819 275,82.5C 273.727,80.2864 272.727,77.953 272,75.5C 271.329,76.2524 270.496,76.5858 269.5,76.5C 264.952,72.3136 261.286,67.647 258.5,62.5C 258.5,61.8333 258.167,61.5 257.5,61.5C 257.649,60.448 257.483,59.448 257,58.5C 253.975,56.5926 251.308,54.2592 249,51.5C 248.667,51.8333 248.333,52.1667 248,52.5C 245.497,47.835 241.663,45.0017 236.5,44C 231.407,40.4222 226.407,36.5888 221.5,32.5C 217.893,31.5108 214.226,31.1774 210.5,31.5C 210.5,30.5 210.5,29.5 210.5,28.5C 209.209,28.7373 208.209,28.404 207.5,27.5C 205.842,26.8186 204.175,25.9853 202.5,25C 207.88,23.857 211.88,25.6904 214.5,30.5C 215.611,29.3887 216.945,28.722 218.5,28.5C 222.531,32.7973 225.864,32.4639 228.5,27.5 Z"/></g>
<g><path style="opacity:1" fill="#8e9ee7" d="M 311.5,149.5 C 313.104,150.287 313.771,151.62 313.5,153.5C 311.262,154.537 308.929,154.703 306.5,154C 305.62,152.644 305.286,151.144 305.5,149.5C 307.5,149.5 309.5,149.5 311.5,149.5 Z"/></g>
<g><path style="opacity:1" fill="#a8bdfd" d="M 310.5,138.5 C 309.5,138.5 308.5,138.5 307.5,138.5C 306.448,138.649 305.448,138.483 304.5,138C 306.727,137.879 308.56,137.046 310,135.5C 311.728,136.352 311.895,137.352 310.5,138.5 Z"/></g>
<g><path style="opacity:1" fill="#335ad3" d="M 182.5,105.5 C 193.988,104.505 205.655,104.172 217.5,104.5C 218.23,106.045 219.563,106.878 221.5,107C 211.506,107.75 201.506,108.416 191.5,109C 197.897,109.182 204.23,109.848 210.5,111C 208.236,111.236 206.069,111.736 204,112.5C 201.413,117.182 199.913,122.182 199.5,127.5C 198.325,127.281 197.325,127.614 196.5,128.5C 194.649,130.776 192.982,133.109 191.5,135.5C 191.265,140.559 190.765,145.559 190,150.5C 189.814,148.1 189.314,145.766 188.5,143.5C 187.553,159.504 186.553,175.504 185.5,191.5C 184.172,162.934 184.172,134.434 185.5,106C 184.552,105.517 183.552,105.351 182.5,105.5 Z"/></g>
<g><path style="opacity:1" fill="#a1b1db" d="M 6.5,121.5 C 6.12964,126.422 5.12964,131.089 3.5,135.5C 3.65621,130.529 4.65621,125.862 6.5,121.5 Z"/></g>
<g><path style="opacity:1" fill="#90a3f4" d="M 14.5,124.5 C 15.9217,124.709 17.255,125.209 18.5,126C 16.4144,126.315 14.4144,126.815 12.5,127.5C 11.596,126.791 11.2627,125.791 11.5,124.5C 12.5,124.5 13.5,124.5 14.5,124.5 Z"/></g>
<g><path style="opacity:1" fill="#879bca" d="M 313.5,119.5 C 314.768,121.905 315.435,124.572 315.5,127.5C 315.167,127.5 314.833,127.5 314.5,127.5C 313.908,124.873 313.575,122.206 313.5,119.5 Z"/></g>
<g><path style="opacity:1" fill="#9baff1" d="M 303.5,119.5 C 307.241,118.599 309.241,119.932 309.5,123.5C 307.399,125.109 305.065,125.609 302.5,125C 301.243,122.924 301.576,121.09 303.5,119.5 Z"/></g>
<g><path style="opacity:1" fill="#111cb1" d="M 303.5,121.5 C 304.978,121.238 306.311,121.571 307.5,122.5C 306.833,122.833 306.167,123.167 305.5,123.5C 304.287,123.253 303.62,122.586 303.5,121.5 Z"/></g>
<g><path style="opacity:1" fill="#1736a2" d="M 308.5,106.5 C 310.786,110.601 312.453,114.934 313.5,119.5C 313.575,122.206 313.908,124.873 314.5,127.5C 312.91,125.525 311.743,123.192 311,120.5C 310.768,121.737 310.268,122.737 309.5,123.5C 309.241,119.932 307.241,118.599 303.5,119.5C 305.265,118.539 307.265,118.205 309.5,118.5C 309.917,115.921 309.25,113.754 307.5,112C 308.406,110.301 308.739,108.467 308.5,106.5 Z"/></g>
<g><path style="opacity:1" fill="#1738ab" d="M 17.5,92.5 C 16.4413,97.2342 15.108,101.901 13.5,106.5C 15.9688,107.168 18.3021,107.835 20.5,108.5C 18.4727,108.338 16.4727,108.505 14.5,109C 13.4186,110.711 13.752,112.211 15.5,113.5C 13.2239,113.244 12.0572,111.91 12,109.5C 11.9693,114.188 11.136,118.688 9.5,123C 9.66667,123.5 9.83333,124 10,124.5C 11.6155,123.199 13.1155,123.199 14.5,124.5C 13.5,124.5 12.5,124.5 11.5,124.5C 11.2627,125.791 11.596,126.791 12.5,127.5C 12.5,127.833 12.5,128.167 12.5,128.5C 12.44,129.043 12.1067,129.376 11.5,129.5C 10.6143,128.675 10.281,127.675 10.5,126.5C 9.16667,126.5 7.83333,126.5 6.5,126.5C 6.49227,131.56 6.3256,136.56 6,141.5C 6.27842,140.584 6.77842,139.918 7.5,139.5C 7.55688,140.609 7.89022,141.609 8.5,142.5C 5.05284,144.31 4.71951,146.643 7.5,149.5C 5.62027,150.714 5.28694,152.048 6.5,153.5C 6.5,154.5 6.5,155.5 6.5,156.5C 5.22235,156.782 4.22235,157.449 3.5,158.5C 3.5,152.167 3.5,145.833 3.5,139.5C 3.5,138.167 3.5,136.833 3.5,135.5C 5.12964,131.089 6.12964,126.422 6.5,121.5C 7.43448,120.432 7.76781,119.099 7.5,117.5C 9.80624,110.919 12.1396,104.252 14.5,97.5C 14.7497,95.326 15.7497,93.6594 17.5,92.5 Z"/></g>
<g><path style="opacity:1" fill="#1039cb" d="M 276.5,57.5 C 277.978,58.4475 278.978,59.7809 279.5,61.5C 283.769,64.4295 287.769,67.7629 291.5,71.5C 292.833,76.5 294.167,81.5 295.5,86.5C 298.57,86.6934 299.57,88.0267 298.5,90.5C 293.067,88.1216 290.567,89.7883 291,95.5C 292.808,97.3959 294.975,97.8959 297.5,97C 299.037,95.8904 299.703,94.3904 299.5,92.5C 301.113,92.9443 302.28,93.9443 303,95.5C 303.497,97.8098 303.663,100.143 303.5,102.5C 304.675,102.281 305.675,102.614 306.5,103.5C 306.942,104.739 307.609,105.739 308.5,106.5C 308.739,108.467 308.406,110.301 307.5,112C 309.25,113.754 309.917,115.921 309.5,118.5C 307.265,118.205 305.265,118.539 303.5,119.5C 301.891,119.094 300.557,119.094 299.5,119.5C 300.348,121.409 300.682,123.409 300.5,125.5C 299.5,125.5 298.5,125.5 297.5,125.5C 297.166,121.002 295.833,116.836 293.5,113C 293.735,112.127 294.069,111.293 294.5,110.5C 292.332,108.168 290.665,105.501 289.5,102.5C 290.428,101.232 290.595,99.8989 290,98.5C 288.043,94.3136 285.71,90.3136 283,86.5C 282.51,85.2068 282.343,83.8734 282.5,82.5C 281.5,82.5 280.5,82.5 279.5,82.5C 279.33,81.1779 279.663,80.0113 280.5,79C 279.675,77.3117 278.675,77.1451 277.5,78.5C 275.876,77.1311 275.376,75.4645 276,73.5C 276.833,74.5 277.667,75.5 278.5,76.5C 279.426,72.079 278.426,68.079 275.5,64.5C 277.003,64.1654 278.336,64.1654 279.5,64.5C 278.451,62.7844 277.118,61.4511 275.5,60.5C 276.404,59.791 276.737,58.791 276.5,57.5 Z"/></g>
<g><path style="opacity:1" fill="#2b55d5" d="M 217.5,104.5 C 225.5,104.5 233.5,104.5 241.5,104.5C 240.737,105.268 239.737,105.768 238.5,106C 239.833,106.333 241.167,106.667 242.5,107C 233.516,107.874 224.516,108.541 215.5,109C 218.101,109.92 220.768,110.587 223.5,111C 207.092,128.182 196.592,148.682 192,172.5C 191.111,171.112 190.611,171.278 190.5,173C 191.018,174.626 191.352,176.293 191.5,178C 189.953,179.695 189.286,182.362 189.5,186C 191.385,203.812 191.718,221.646 190.5,239.5C 189.057,228.893 188.057,218.226 187.5,207.5C 186.667,226.491 186.167,245.491 186,264.5C 185.667,265.5 185.333,266.5 185,267.5C 184.667,265.167 184.333,262.833 184,260.5C 183.817,263.365 183.317,266.031 182.5,268.5C 182.5,214.167 182.5,159.833 182.5,105.5C 183.552,105.351 184.552,105.517 185.5,106C 184.172,134.434 184.172,162.934 185.5,191.5C 186.553,175.504 187.553,159.504 188.5,143.5C 189.314,145.766 189.814,148.1 190,150.5C 190.765,145.559 191.265,140.559 191.5,135.5C 192.982,133.109 194.649,130.776 196.5,128.5C 197.325,127.614 198.325,127.281 199.5,127.5C 199.913,122.182 201.413,117.182 204,112.5C 206.069,111.736 208.236,111.236 210.5,111C 204.23,109.848 197.897,109.182 191.5,109C 201.506,108.416 211.506,107.75 221.5,107C 219.563,106.878 218.23,106.045 217.5,104.5 Z"/></g>
<g><path style="opacity:1" fill="#2650d3" d="M 73.5,104.5 C 83.1667,104.5 92.8333,104.5 102.5,104.5C 106.406,105.298 109.406,106.465 111.5,108C 117.167,108.333 122.833,108.667 128.5,109C 129.654,109.914 129.487,110.747 128,111.5C 126.475,110.28 124.641,109.613 122.5,109.5C 117.851,110.128 113.184,110.461 108.5,110.5C 104.154,110.334 99.8206,110.501 95.5,111C 98.2263,111.182 100.893,111.682 103.5,112.5C 106.155,120.488 110.321,127.488 116,133.5C 120.293,143.082 124.293,152.748 128,162.5C 128.172,166.871 128.672,171.204 129.5,175.5C 130.332,167.521 130.832,159.521 131,151.5C 132.281,188.474 132.948,225.474 133,262.5C 134.483,222.228 134.983,181.894 134.5,141.5C 134.334,134.159 134.5,126.826 135,119.5C 135.17,129.675 135.67,139.675 136.5,149.5C 136.168,193.67 136.501,237.67 137.5,281.5C 151.99,282.496 166.657,282.829 181.5,282.5C 167.343,283.496 153.01,283.829 138.5,283.5C 136.574,282.758 134.741,281.758 133,280.5C 132.803,275.914 132.303,271.414 131.5,267C 132.28,265.927 132.113,264.76 131,263.5C 130.667,265.5 130.333,267.5 130,269.5C 119.863,241.87 115.863,213.203 118,183.5C 116.044,167.595 111.377,152.595 104,138.5C 103.667,138.833 103.333,139.167 103,139.5C 101.026,136.196 98.6926,133.196 96,130.5C 94.2494,128.51 93.2494,126.177 93,123.5C 91.9887,122.663 90.8221,122.33 89.5,122.5C 87.5457,119.279 85.5457,115.945 83.5,112.5C 83.7093,111.914 84.0426,111.414 84.5,111C 81.8585,110.677 79.5252,109.677 77.5,108C 75.6226,107.424 73.7892,107.591 72,108.5C 70.9412,108.37 70.1079,107.87 69.5,107C 71.437,106.878 72.7703,106.045 73.5,104.5 Z"/></g>
<g><path style="opacity:1" fill="#9eb0f5" d="M 20.5,108.5 C 21.6005,109.605 22.2671,110.938 22.5,112.5C 21.8333,112.5 21.5,112.833 21.5,113.5C 19.6907,114.291 17.6907,114.291 15.5,113.5C 13.752,112.211 13.4186,110.711 14.5,109C 16.4727,108.505 18.4727,108.338 20.5,108.5 Z"/></g>
<g><path style="opacity:1" fill="#365dd4" d="M 102.5,104.5 C 113.833,104.5 125.167,104.5 136.5,104.5C 136.5,119.5 136.5,134.5 136.5,149.5C 135.67,139.675 135.17,129.675 135,119.5C 134.5,126.826 134.334,134.159 134.5,141.5C 133.188,136.105 131.188,130.938 128.5,126C 124.064,122.633 121.564,118.133 121,112.5C 116.732,111.86 112.565,111.193 108.5,110.5C 113.184,110.461 117.851,110.128 122.5,109.5C 124.641,109.613 126.475,110.28 128,111.5C 129.487,110.747 129.654,109.914 128.5,109C 122.833,108.667 117.167,108.333 111.5,108C 109.406,106.465 106.406,105.298 102.5,104.5 Z"/></g>
<g><path style="opacity:1" fill="#a2b5ed" d="M 302.5,106.5 C 303.189,105.226 304.023,105.226 305,106.5C 305.531,110.283 304.031,111.283 300.5,109.5C 298.286,111.924 297.286,111.257 297.5,107.5C 299.06,107.519 300.56,107.852 302,108.5C 303.718,107.969 303.885,107.302 302.5,106.5 Z"/></g>
<g><path style="opacity:1" fill="#224dd2" d="M 245.5,67.5 C 246.404,68.209 246.737,69.209 246.5,70.5C 246.821,82.0809 246.488,93.5809 245.5,105C 247.888,105.303 250.055,106.137 252,107.5C 252.765,109.066 252.598,110.399 251.5,111.5C 250.768,110.192 249.934,108.858 249,107.5C 246.595,108.274 244.095,108.774 241.5,109C 242.711,109.893 242.711,110.726 241.5,111.5C 239.345,111.162 237.011,111.162 234.5,111.5C 234.657,112.873 234.49,114.207 234,115.5C 228.679,120.253 224.846,125.587 222.5,131.5C 218.883,133.519 216.216,135.853 214.5,138.5C 212.047,145.407 209.047,152.074 205.5,158.5C 205.709,159.086 206.043,159.586 206.5,160C 204.064,166.31 202.231,172.81 201,179.5C 200.667,194.167 200.333,208.833 200,223.5C 198.011,234.081 196.844,244.748 196.5,255.5C 195.5,255.5 194.5,255.5 193.5,255.5C 193.415,257.929 192.415,259.929 190.5,261.5C 191.348,263.409 191.682,265.409 191.5,267.5C 190.5,267.5 189.5,267.5 188.5,267.5C 187.231,273.169 185.898,278.836 184.5,284.5C 184.529,286.029 185.196,287.196 186.5,288C 184.833,288.667 183.167,288.667 181.5,288C 180.516,285.875 178.85,284.708 176.5,284.5C 168.912,285.959 161.246,286.959 153.5,287.5C 154.025,288.192 154.692,288.692 155.5,289C 155,289.167 154.5,289.333 154,289.5C 151.655,287.379 148.821,286.212 145.5,286C 145.833,285.667 146.167,285.333 146.5,285C 143.635,284.817 140.969,284.317 138.5,283.5C 153.01,283.829 167.343,283.496 181.5,282.5C 182.486,278.03 182.819,273.363 182.5,268.5C 183.317,266.031 183.817,263.365 184,260.5C 184.333,262.833 184.667,265.167 185,267.5C 185.333,266.5 185.667,265.5 186,264.5C 186.167,245.491 186.667,226.491 187.5,207.5C 188.057,218.226 189.057,228.893 190.5,239.5C 191.718,221.646 191.385,203.812 189.5,186C 189.286,182.362 189.953,179.695 191.5,178C 191.352,176.293 191.018,174.626 190.5,173C 190.611,171.278 191.111,171.112 192,172.5C 196.592,148.682 207.092,128.182 223.5,111C 220.768,110.587 218.101,109.92 215.5,109C 224.516,108.541 233.516,107.874 242.5,107C 241.167,106.667 239.833,106.333 238.5,106C 239.737,105.768 240.737,105.268 241.5,104.5C 242.791,104.737 243.791,104.404 244.5,103.5C 245.495,91.6783 245.828,79.6783 245.5,67.5 Z"/></g>
<g><path style="opacity:1" fill="#1a47d0" d="M 73.5,67.5 C 73.5,79.5 73.5,91.5 73.5,103.5C 73.5,103.833 73.5,104.167 73.5,104.5C 72.7703,106.045 71.437,106.878 69.5,107C 70.1079,107.87 70.9412,108.37 72,108.5C 73.7892,107.591 75.6226,107.424 77.5,108C 79.5252,109.677 81.8585,110.677 84.5,111C 84.0426,111.414 83.7093,111.914 83.5,112.5C 85.5457,115.945 87.5457,119.279 89.5,122.5C 90.8221,122.33 91.9887,122.663 93,123.5C 93.2494,126.177 94.2494,128.51 96,130.5C 98.6926,133.196 101.026,136.196 103,139.5C 103.333,139.167 103.667,138.833 104,138.5C 111.377,152.595 116.044,167.595 118,183.5C 115.863,213.203 119.863,241.87 130,269.5C 130.333,267.5 130.667,265.5 131,263.5C 132.113,264.76 132.28,265.927 131.5,267C 132.303,271.414 132.803,275.914 133,280.5C 134.741,281.758 136.574,282.758 138.5,283.5C 140.969,284.317 143.635,284.817 146.5,285C 146.167,285.333 145.833,285.667 145.5,286C 148.821,286.212 151.655,287.379 154,289.5C 154.5,289.333 155,289.167 155.5,289C 154.692,288.692 154.025,288.192 153.5,287.5C 161.246,286.959 168.912,285.959 176.5,284.5C 178.85,284.708 180.516,285.875 181.5,288C 183.167,288.667 184.833,288.667 186.5,288C 185.196,287.196 184.529,286.029 184.5,284.5C 185.898,278.836 187.231,273.169 188.5,267.5C 189.5,267.5 190.5,267.5 191.5,267.5C 191.682,265.409 191.348,263.409 190.5,261.5C 192.415,259.929 193.415,257.929 193.5,255.5C 194.5,255.5 195.5,255.5 196.5,255.5C 196.844,244.748 198.011,234.081 200,223.5C 200.333,208.833 200.667,194.167 201,179.5C 202.231,172.81 204.064,166.31 206.5,160C 206.043,159.586 205.709,159.086 205.5,158.5C 209.047,152.074 212.047,145.407 214.5,138.5C 216.216,135.853 218.883,133.519 222.5,131.5C 224.846,125.587 228.679,120.253 234,115.5C 234.49,114.207 234.657,112.873 234.5,111.5C 237.011,111.162 239.345,111.162 241.5,111.5C 242.711,110.726 242.711,109.893 241.5,109C 244.095,108.774 246.595,108.274 249,107.5C 249.934,108.858 250.768,110.192 251.5,111.5C 251.649,112.552 251.483,113.552 251,114.5C 246.101,118.647 242.434,123.647 240,129.5C 239.667,128.833 239.333,128.167 239,127.5C 234.569,132.068 231.736,137.401 230.5,143.5C 227.675,143.162 225.508,144.162 224,146.5C 220.052,155.257 216.552,164.257 213.5,173.5C 213.608,174.442 213.941,175.275 214.5,176C 211.575,189.373 210.908,202.873 212.5,216.5C 210.314,221.561 209.981,226.728 211.5,232C 207.957,239.525 207.957,247.025 211.5,254.5C 210.311,255.429 208.978,255.762 207.5,255.5C 207.813,258.247 207.48,260.914 206.5,263.5C 203.804,267.242 200.971,270.909 198,274.5C 197.71,276.952 197.044,279.285 196,281.5C 194.644,282.38 193.144,282.714 191.5,282.5C 191.662,280.473 191.495,278.473 191,276.5C 189.233,279.33 189.067,282.33 190.5,285.5C 190.182,286.647 189.516,287.481 188.5,288C 189.624,288.249 190.624,288.749 191.5,289.5C 188.167,290.833 184.833,292.167 181.5,293.5C 185.659,294.179 189.826,293.845 194,292.5C 195.226,292.645 196.393,292.978 197.5,293.5C 201.089,291.908 204.422,289.908 207.5,287.5C 208.632,288.354 209.965,288.354 211.5,287.5C 211.586,288.496 211.252,289.329 210.5,290C 208.942,290.21 207.609,290.71 206.5,291.5C 204.364,292.719 202.031,293.552 199.5,294C 199.002,295.158 198.169,295.991 197,296.5C 195.627,295.485 194.46,295.485 193.5,296.5C 192.265,296.721 191.265,297.388 190.5,298.5C 185.339,297.103 180.339,297.603 175.5,300C 166.833,300.333 158.167,300.667 149.5,301C 149.752,303.468 150.086,305.968 150.5,308.5C 149.675,309.386 148.675,309.719 147.5,309.5C 147.898,307.46 148.064,305.46 148,303.5C 146.586,302.587 145.086,302.587 143.5,303.5C 143.361,301.663 142.694,301.33 141.5,302.5C 140.652,304.409 140.318,306.409 140.5,308.5C 139.448,308.649 138.448,308.483 137.5,308C 138.747,306.506 138.747,305.006 137.5,303.5C 136.877,305.966 136.043,308.299 135,310.5C 134.005,309.934 133.172,309.267 132.5,308.5C 133.725,307.848 134.392,306.681 134.5,305C 134.333,303.833 134.167,302.667 134,301.5C 133.79,303.058 133.29,304.391 132.5,305.5C 132.406,301.44 130.906,298.107 128,295.5C 127.612,296.428 126.945,297.095 126,297.5C 123.344,295.556 120.51,293.89 117.5,292.5C 118.333,292.167 119.167,291.833 120,291.5C 122.27,292.86 124.77,293.527 127.5,293.5C 127.393,291.097 128.393,289.264 130.5,288C 128.834,285.52 128.001,282.687 128,279.5C 127.685,282.147 126.518,282.813 124.5,281.5C 123.149,278.804 121.316,276.47 119,274.5C 117.54,272.028 116.54,269.361 116,266.5C 112.244,263.853 110.744,260.187 111.5,255.5C 110.022,255.762 108.689,255.429 107.5,254.5C 109.243,249.667 109.91,244.667 109.5,239.5C 108.5,239.5 107.5,239.5 106.5,239.5C 107.98,218.487 107.813,197.487 106,176.5C 103.802,170.239 101.802,163.905 100,157.5C 97.1283,154.427 95.4617,151.094 95,147.5C 92.0735,143.963 89.4068,140.296 87,136.5C 84.9088,133.782 82.2421,131.782 79,130.5C 78.8347,126.825 77.168,124.158 74,122.5C 71.6357,118.813 69.3024,115.146 67,111.5C 66.0347,113.26 64.868,113.594 63.5,112.5C 65.3722,110.465 67.0389,108.298 68.5,106C 68.1667,105.5 67.8333,105 67.5,104.5C 66.5,105.167 65.5,105.833 64.5,106.5C 64.1667,106 63.8333,105.5 63.5,105C 63.7689,101.834 64.1022,98.667 64.5,95.5C 65.1667,97.5 65.8333,99.5 66.5,101.5C 67.9458,100.829 68.6125,99.6624 68.5,98C 67.2706,90.1683 67.2706,82.335 68.5,74.5C 67.1667,74.5 65.8333,74.5 64.5,74.5C 64.6308,70.3482 66.1308,69.6815 69,72.5C 69.3333,72.1667 69.6667,71.8333 70,71.5C 71.0996,77.5504 71.2663,83.717 70.5,90C 70.3657,94.0137 70.8657,97.8471 72,101.5C 72.1694,89.9926 72.6694,78.6593 73.5,67.5 Z"/></g>
<g><path style="opacity:1" fill="#2e55d3" d="M 108.5,110.5 C 112.565,111.193 116.732,111.86 121,112.5C 121.564,118.133 124.064,122.633 128.5,126C 131.188,130.938 133.188,136.105 134.5,141.5C 134.983,181.894 134.483,222.228 133,262.5C 132.948,225.474 132.281,188.474 131,151.5C 130.832,159.521 130.332,167.521 129.5,175.5C 128.672,171.204 128.172,166.871 128,162.5C 124.293,152.748 120.293,143.082 116,133.5C 110.321,127.488 106.155,120.488 103.5,112.5C 100.893,111.682 98.2263,111.182 95.5,111C 99.8206,110.501 104.154,110.334 108.5,110.5 Z"/></g>
<g><path style="opacity:1" fill="#b6c3e2" d="M 14.5,97.5 C 12.1396,104.252 9.80624,110.919 7.5,117.5C 7.73504,109.946 10.0684,103.28 14.5,97.5 Z"/></g>
<g><path style="opacity:1" fill="#0d3bcc" d="M 62.5,49.5 C 60.7304,47.8867 59.5637,45.8867 59,43.5C 57.9264,44.6184 56.7598,45.6184 55.5,46.5C 56.6016,47.1757 57.6016,47.8423 58.5,48.5C 58.9954,50.4817 59.4954,52.4817 60,54.5C 61.0695,54.3601 62.2361,54.3601 63.5,54.5C 59.8079,59.026 55.6413,63.026 51,66.5C 50.5983,67.8721 50.0983,69.2054 49.5,70.5C 47.6091,71.3107 46.2758,72.6441 45.5,74.5C 44.3493,75.731 43.1827,75.731 42,74.5C 39.1542,76.2935 38.9875,78.1268 41.5,80C 38.7609,83.7132 37.0942,87.8799 36.5,92.5C 35.5,92.5 34.5,92.5 33.5,92.5C 31.4212,98.9789 29.0879,105.312 26.5,111.5C 25.0413,111.433 23.7079,111.766 22.5,112.5C 22.2671,110.938 21.6005,109.605 20.5,108.5C 18.3021,107.835 15.9688,107.168 13.5,106.5C 15.108,101.901 16.4413,97.2342 17.5,92.5C 18.4959,92.5858 19.3292,92.2524 20,91.5C 21.815,85.7008 24.4816,80.3675 28,75.5C 29.0113,74.6634 30.1779,74.33 31.5,74.5C 31.5,75.5 31.5,76.5 31.5,77.5C 32.5,77.5 33.5,77.5 34.5,77.5C 34.5,76.1667 34.5,74.8333 34.5,73.5C 33.5,73.5 32.5,73.5 31.5,73.5C 32.4272,68.3186 34.4272,63.6519 37.5,59.5C 41.8023,55.207 46.469,51.207 51.5,47.5C 53.321,46.2723 54.321,44.6056 54.5,42.5C 55.552,42.6495 56.552,42.4828 57.5,42C 59.4555,39.5283 61.7889,37.695 64.5,36.5C 65.3764,36.3691 66.0431,36.7025 66.5,37.5C 65.5,38.8333 64.5,40.1667 63.5,41.5C 64.9479,42.3539 66.2813,43.3539 67.5,44.5C 68.2652,43.3881 69.2652,42.7214 70.5,42.5C 71.2389,42.631 71.9056,42.4643 72.5,42C 71.6138,40.3853 70.6138,38.8853 69.5,37.5C 69.4226,36.2502 68.756,35.4169 67.5,35C 69.699,33.3029 72.0324,31.8029 74.5,30.5C 77.0789,31.8883 77.0789,33.3883 74.5,35C 75.9733,35.7096 76.6399,36.8762 76.5,38.5C 78.8954,37.6365 81.2287,37.6365 83.5,38.5C 82.5036,41.3319 80.5036,42.6653 77.5,42.5C 77.7657,46.0794 79.099,46.4127 81.5,43.5C 82.1667,44.1667 82.8333,44.8333 83.5,45.5C 84.0959,44.2839 84.2626,42.9506 84,41.5C 85.298,42.5596 86.4647,43.7263 87.5,45C 85.7678,46.6946 83.7678,48.028 81.5,49C 80.5,49.6667 79.5,49.6667 78.5,49C 77.8448,47.5134 76.8448,46.3467 75.5,45.5C 71.6138,47.6955 67.7805,50.0289 64,52.5C 63.7679,51.2625 63.2679,50.2625 62.5,49.5 Z"/></g>
<g><path style="opacity:1" fill="#093ace" d="M 47.5,79.5 C 46.2382,83.2855 46.2382,86.7855 47.5,90C 46.8333,91 46.1667,92 45.5,93C 47.1499,96.9225 47.9833,101.089 48,105.5C 50.0559,106.583 51.3892,108.25 52,110.5C 52.3333,110.167 52.6667,109.833 53,109.5C 52.2931,111.843 52.6265,114.176 54,116.5C 56.4157,119.663 58.5823,122.996 60.5,126.5C 61.325,127.386 62.325,127.719 63.5,127.5C 63.687,129.564 64.187,131.564 65,133.5C 69.4483,138.057 74.1149,142.39 79,146.5C 79.658,148.108 79.158,149.275 77.5,150C 78.448,150.483 79.448,150.649 80.5,150.5C 83.579,156.536 86.579,162.703 89.5,169C 91.2167,173.7 92.3833,178.533 93,183.5C 94.2287,203.147 95.2287,222.814 96,242.5C 96.3459,244.848 97.5125,246.681 99.5,248C 98.2022,250.499 98.5356,252.833 100.5,255C 99.6919,255.308 99.0253,255.808 98.5,256.5C 100.135,260.571 101.468,264.738 102.5,269C 100.359,271.091 100.192,273.258 102,275.5C 103.938,274.14 105.604,274.473 107,276.5C 107.75,280.116 109.25,283.283 111.5,286C 111.167,286.833 110.833,287.667 110.5,288.5C 108.182,287.051 106.182,285.218 104.5,283C 102.514,283.794 100.681,283.294 99,281.5C 98.5439,282.744 99.0439,283.577 100.5,284C 98.8333,285 97.1667,286 95.5,287C 96.8333,287.333 98.1667,287.667 99.5,288C 98.9056,288.464 98.2389,288.631 97.5,288.5C 95.6203,288.229 94.287,288.896 93.5,290.5C 91.47,294.531 92.8033,296.864 97.5,297.5C 93.8857,298.51 90.8857,297.51 88.5,294.5C 87.2638,295.246 85.9305,295.579 84.5,295.5C 84.6716,294.508 84.3382,293.842 83.5,293.5C 83.8948,290.477 82.8948,289.477 80.5,290.5C 77.2501,289.892 74.9168,288.892 73.5,287.5C 73.4451,284.791 72.7784,282.791 71.5,281.5C 72.4756,280.185 73.4756,278.852 74.5,277.5C 73.1468,276.476 72.4802,275.143 72.5,273.5C 71.0484,272.698 69.3817,272.198 67.5,272C 69.8333,271.333 72.1667,271.333 74.5,272C 79.8029,274.911 80.8029,278.911 77.5,284C 78.3707,285.364 79.3707,286.53 80.5,287.5C 85.0819,289.069 86.5819,287.402 85,282.5C 84.3292,281.748 83.4959,281.414 82.5,281.5C 81.5041,281.414 80.6708,281.748 80,282.5C 79.3333,281.833 79.3333,281.167 80,280.5C 85.6178,277.908 90.2844,279.241 94,284.5C 94.6514,282.765 94.4847,281.098 93.5,279.5C 88.9083,276.955 84.4083,274.289 80,271.5C 79.51,270.207 79.3433,268.873 79.5,267.5C 77.5165,267.383 75.8498,268.05 74.5,269.5C 71.6049,265.617 68.1049,262.283 64,259.5C 63.5172,258.552 63.3505,257.552 63.5,256.5C 58.5263,257.135 56.8597,259.802 58.5,264.5C 57.5041,264.414 56.6708,264.748 56,265.5C 55.0201,263.941 54.1867,262.274 53.5,260.5C 51.7751,262.092 50.7751,261.758 50.5,259.5C 58.8473,259.507 61.1807,255.507 57.5,247.5C 57.5565,246.263 58.0565,245.263 59,244.5C 60.4843,247.445 61.8176,250.445 63,253.5C 63.2639,248.137 63.7639,242.803 64.5,237.5C 64.1505,217.383 63.8171,196.716 63.5,175.5C 60.8333,175.5 58.1667,175.5 55.5,175.5C 55.5,172.833 55.5,170.167 55.5,167.5C 52.8333,167.5 50.1667,167.5 47.5,167.5C 47.5,164.833 47.5,162.167 47.5,159.5C 45.1789,159.771 43.1789,159.104 41.5,157.5C 40.3044,157.846 40.3044,158.346 41.5,159C 40.2068,159.49 38.8734,159.657 37.5,159.5C 37.3059,156.67 36.6392,154.004 35.5,151.5C 34.1667,151.5 32.8333,151.5 31.5,151.5C 31.0423,154.394 31.709,156.894 33.5,159C 31.968,159.7 30.968,160.866 30.5,162.5C 31.4512,167.77 31.7846,173.103 31.5,178.5C 30.448,178.351 29.448,178.517 28.5,179C 30.9838,181.657 31.1504,184.49 29,187.5C 28.7586,184.711 28.092,182.044 27,179.5C 26.9791,167.677 26.3124,156.01 25,144.5C 24.8323,154.849 24.3323,165.183 23.5,175.5C 22.4997,159.505 22.4997,143.505 23.5,127.5C 22.1667,127.5 20.8333,127.5 19.5,127.5C 19.2176,130.347 19.2176,133.013 19.5,135.5C 17.8333,135.833 16.1667,136.167 14.5,136.5C 8.59175,136.311 8.25842,135.311 13.5,133.5C 5.49521,133.436 5.49521,132.102 13.5,129.5C 13.3764,128.893 13.0431,128.56 12.5,128.5C 12.5,128.167 12.5,127.833 12.5,127.5C 14.4144,126.815 16.4144,126.315 18.5,126C 17.255,125.209 15.9217,124.709 14.5,124.5C 13.1155,123.199 11.6155,123.199 10,124.5C 9.83333,124 9.66667,123.5 9.5,123C 11.136,118.688 11.9693,114.188 12,109.5C 12.0572,111.91 13.2239,113.244 15.5,113.5C 17.6907,114.291 19.6907,114.291 21.5,113.5C 23.0217,114.431 24.3551,115.598 25.5,117C 23.3702,119.953 23.0369,123.12 24.5,126.5C 25.5,127.833 26.5,127.833 27.5,126.5C 26.5721,125.232 26.4054,123.899 27,122.5C 28.2812,122.619 29.4479,122.119 30.5,121C 29.552,120.517 28.552,120.351 27.5,120.5C 27.7287,113.216 30.3953,107.049 35.5,102C 35.1667,101.667 34.8333,101.333 34.5,101C 35.1029,99.1746 35.7696,97.3413 36.5,95.5C 40.5388,90.2841 44.2054,84.9508 47.5,79.5 Z"/></g>
<g><path style="opacity:1" fill="#0d1963" d="M 18.5,110.5 C 20.337,110.639 20.6704,111.306 19.5,112.5C 18.7025,112.043 18.3691,111.376 18.5,110.5 Z"/></g>
<g><path style="opacity:1" fill="#7689e5" d="M 298.5,90.5 C 298.328,91.4916 298.662,92.1583 299.5,92.5C 299.703,94.3904 299.037,95.8904 297.5,97C 294.975,97.8959 292.808,97.3959 291,95.5C 290.567,89.7883 293.067,88.1216 298.5,90.5 Z"/></g>
<g><path style="opacity:1" fill="#0939cd" d="M 307.5,138.5 C 308.5,138.5 309.5,138.5 310.5,138.5C 312.379,138.393 312.712,138.893 311.5,140C 303.514,143.087 303.847,144.087 312.5,143C 310.299,144.043 307.966,144.877 305.5,145.5C 308.167,146.167 310.833,146.833 313.5,147.5C 312.757,148.182 312.091,148.849 311.5,149.5C 309.5,149.5 307.5,149.5 305.5,149.5C 305.286,151.144 305.62,152.644 306.5,154C 308.929,154.703 311.262,154.537 313.5,153.5C 313.904,154.756 314.571,155.923 315.5,157C 315.167,157.5 314.833,158 314.5,158.5C 313.377,156.711 312.044,156.378 310.5,157.5C 311.85,158.95 313.516,159.617 315.5,159.5C 315.825,164.599 315.325,169.599 314,174.5C 312.556,176.155 310.722,176.822 308.5,176.5C 308.5,177.5 308.5,178.5 308.5,179.5C 305.043,179.667 304.71,180.667 307.5,182.5C 308.799,181.306 310.132,180.306 311.5,179.5C 313.496,177.083 314.496,177.75 314.5,181.5C 314.493,187.016 312.993,192.016 310,196.5C 309.135,201.897 307.968,207.231 306.5,212.5C 305.859,213.993 304.859,214.993 303.5,215.5C 303.631,214.761 303.464,214.094 303,213.5C 300.995,215.8 298.828,215.8 296.5,213.5C 295.707,214.355 296.04,215.189 297.5,216C 298.448,216.483 299.448,216.649 300.5,216.5C 300.737,220.289 301.404,220.289 302.5,216.5C 303.147,217.274 303.48,218.274 303.5,219.5C 302.818,221.841 302.151,224.174 301.5,226.5C 299.025,227.687 298.025,229.687 298.5,232.5C 295.795,232.38 295.128,233.38 296.5,235.5C 292.078,241.87 287.412,248.037 282.5,254C 282.833,254.333 283.167,254.667 283.5,255C 279.294,256.213 276.794,259.046 276,263.5C 272.844,265.946 270.011,268.779 267.5,272C 266.234,272.309 265.067,272.809 264,273.5C 263.583,272.244 262.75,271.577 261.5,271.5C 261.22,268.728 261.887,266.228 263.5,264C 260.098,262.214 259.598,259.714 262,256.5C 263.509,255.91 265.009,255.244 266.5,254.5C 268.308,249.831 270.308,249.164 272.5,252.5C 276.095,256.857 278.095,256.191 278.5,250.5C 276.721,248.656 274.388,247.99 271.5,248.5C 271.649,244.678 273.649,242.345 277.5,241.5C 276.833,240.833 276.167,240.167 275.5,239.5C 276.651,238.269 277.817,238.269 279,239.5C 279.333,240.833 279.667,242.167 280,243.5C 280.986,242.829 282.153,242.829 283.5,243.5C 286.389,242.951 288.056,241.118 288.5,238C 287.872,235.474 286.539,234.641 284.5,235.5C 288.564,238.26 288.231,238.926 283.5,237.5C 282.77,236.288 281.77,235.288 280.5,234.5C 281.389,231.054 283.056,228.054 285.5,225.5C 284.391,223.786 285.058,223.119 287.5,223.5C 287.371,219.991 288.704,217.158 291.5,215C 290.241,214.018 288.908,213.685 287.5,214C 285.704,217.752 283.371,221.086 280.5,224C 281.428,224.388 282.095,225.055 282.5,226C 281.303,227.52 279.803,228.687 278,229.5C 277.51,230.793 277.343,232.127 277.5,233.5C 276.5,233.5 275.5,233.5 274.5,233.5C 274.785,235.288 274.452,236.955 273.5,238.5C 270.94,242.582 268.107,246.582 265,250.5C 258.337,255.488 252.17,261.321 246.5,268C 238.903,273.231 231.236,278.398 223.5,283.5C 221.926,284.631 220.259,284.798 218.5,284C 219.696,283.346 219.696,282.846 218.5,282.5C 217.749,283.376 217.249,284.376 217,285.5C 216.311,284.643 215.478,283.977 214.5,283.5C 213.545,284.872 212.545,286.205 211.5,287.5C 209.965,288.354 208.632,288.354 207.5,287.5C 208.806,286.533 209.473,285.199 209.5,283.5C 210.5,283.5 211.5,283.5 212.5,283.5C 211.994,279.014 213.328,275.181 216.5,272C 216.92,266.825 218.253,261.659 220.5,256.5C 219.407,251.527 220.241,246.861 223,242.5C 223.937,225.511 224.604,208.511 225,191.5C 226.202,181.009 228.202,170.676 231,160.5C 232.892,159.87 234.559,158.87 236,157.5C 238.596,154.12 240.096,150.287 240.5,146C 241.646,145.355 242.646,144.522 243.5,143.5C 244.623,145.289 245.956,145.622 247.5,144.5C 246.975,143.808 246.308,143.308 245.5,143C 247.643,138.526 250.81,135.026 255,132.5C 255.494,130.866 255.66,129.199 255.5,127.5C 256.675,127.719 257.675,127.386 258.5,126.5C 263.464,118.792 267.964,110.792 272,102.5C 272.359,97.1406 272.359,91.8073 272,86.5C 273.009,88.0249 273.509,89.6916 273.5,91.5C 274.5,91.5 275.5,91.5 276.5,91.5C 276.23,87.7871 274.564,84.9537 271.5,83C 272.641,82.2588 272.641,81.4255 271.5,80.5C 269.604,79.5344 267.604,79.2011 265.5,79.5C 265.259,76.001 266.092,75.6677 268,78.5C 268.278,77.5842 268.778,76.9175 269.5,76.5C 270.496,76.5858 271.329,76.2524 272,75.5C 272.727,77.953 273.727,80.2864 275,82.5C 278.272,84.5819 280.105,87.5819 280.5,91.5C 282.94,93.1093 284.107,95.4426 284,98.5C 286.486,101.442 288.319,104.776 289.5,108.5C 292.469,109.668 292.802,111.001 290.5,112.5C 292.976,119.017 295.142,125.684 297,132.5C 298.437,146.807 298.77,161.141 298,175.5C 296.756,183.877 294.923,192.21 292.5,200.5C 290.931,199.286 290.098,197.619 290,195.5C 289.379,199.817 289.879,203.984 291.5,208C 290.027,208.71 289.36,209.876 289.5,211.5C 290.5,211.5 291.5,211.5 292.5,211.5C 295.859,199.634 298.692,187.634 301,175.5C 301.54,162.807 301.54,150.14 301,137.5C 301.333,138.5 301.667,139.5 302,140.5C 303.792,140.398 305.625,139.732 307.5,138.5 Z"/></g>
<g><path style="opacity:1" fill="#1d3ca9" d="M 291.5,71.5 C 292.458,71.9528 293.292,72.6195 294,73.5C 295.899,77.7471 298.066,81.7471 300.5,85.5C 303.966,92.2353 306.632,99.2353 308.5,106.5C 307.609,105.739 306.942,104.739 306.5,103.5C 305.675,102.614 304.675,102.281 303.5,102.5C 303.663,100.143 303.497,97.8098 303,95.5C 302.28,93.9443 301.113,92.9443 299.5,92.5C 298.662,92.1583 298.328,91.4916 298.5,90.5C 299.57,88.0267 298.57,86.6934 295.5,86.5C 294.167,81.5 292.833,76.5 291.5,71.5 Z"/></g>
<g><path style="opacity:1" fill="#9bb1f5" d="M 25.5,85.5 C 28.9571,85.6672 29.2904,86.6672 26.5,88.5C 25.6143,87.675 25.281,86.675 25.5,85.5 Z"/></g>
<g><path style="opacity:1" fill="#1241cf" d="M 72.5,63.5 C 73.2625,64.2679 74.2625,64.7679 75.5,65C 74.944,65.3826 74.6107,65.8826 74.5,66.5C 73.8333,66.5 73.5,66.8333 73.5,67.5C 72.6694,78.6593 72.1694,89.9926 72,101.5C 70.8657,97.8471 70.3657,94.0137 70.5,90C 71.2663,83.717 71.0996,77.5504 70,71.5C 69.6667,71.8333 69.3333,72.1667 69,72.5C 66.1308,69.6815 64.6308,70.3482 64.5,74.5C 65.8333,74.5 67.1667,74.5 68.5,74.5C 67.2706,82.335 67.2706,90.1683 68.5,98C 68.6125,99.6624 67.9458,100.829 66.5,101.5C 65.8333,99.5 65.1667,97.5 64.5,95.5C 64.1022,98.667 63.7689,101.834 63.5,105C 63.8333,105.5 64.1667,106 64.5,106.5C 65.5,105.833 66.5,105.167 67.5,104.5C 67.8333,105 68.1667,105.5 68.5,106C 67.0389,108.298 65.3722,110.465 63.5,112.5C 64.868,113.594 66.0347,113.26 67,111.5C 69.3024,115.146 71.6357,118.813 74,122.5C 77.168,124.158 78.8347,126.825 79,130.5C 82.2421,131.782 84.9088,133.782 87,136.5C 89.4068,140.296 92.0735,143.963 95,147.5C 95.4617,151.094 97.1283,154.427 100,157.5C 101.802,163.905 103.802,170.239 106,176.5C 107.813,197.487 107.98,218.487 106.5,239.5C 107.5,239.5 108.5,239.5 109.5,239.5C 109.91,244.667 109.243,249.667 107.5,254.5C 108.689,255.429 110.022,255.762 111.5,255.5C 110.744,260.187 112.244,263.853 116,266.5C 116.54,269.361 117.54,272.028 119,274.5C 121.316,276.47 123.149,278.804 124.5,281.5C 126.518,282.813 127.685,282.147 128,279.5C 128.001,282.687 128.834,285.52 130.5,288C 128.393,289.264 127.393,291.097 127.5,293.5C 124.77,293.527 122.27,292.86 120,291.5C 119.167,291.833 118.333,292.167 117.5,292.5C 120.51,293.89 123.344,295.556 126,297.5C 126.945,297.095 127.612,296.428 128,295.5C 130.906,298.107 132.406,301.44 132.5,305.5C 132.5,306.5 132.5,307.5 132.5,308.5C 133.172,309.267 134.005,309.934 135,310.5C 136.043,308.299 136.877,305.966 137.5,303.5C 138.747,305.006 138.747,306.506 137.5,308C 138.448,308.483 139.448,308.649 140.5,308.5C 140.318,306.409 140.652,304.409 141.5,302.5C 142.694,301.33 143.361,301.663 143.5,303.5C 143.581,306.513 144.914,308.513 147.5,309.5C 148.675,309.719 149.675,309.386 150.5,308.5C 150.086,305.968 149.752,303.468 149.5,301C 158.167,300.667 166.833,300.333 175.5,300C 180.339,297.603 185.339,297.103 190.5,298.5C 191.265,297.388 192.265,296.721 193.5,296.5C 192.815,298.414 192.315,300.414 192,302.5C 186.388,303.395 186.222,304.395 191.5,305.5C 191.5,306.5 191.5,307.5 191.5,308.5C 195.724,307.038 200.057,305.872 204.5,305C 203.906,304.536 203.239,304.369 202.5,304.5C 202.842,303.662 203.508,303.328 204.5,303.5C 205.239,303.631 205.906,303.464 206.5,303C 205.269,301.817 205.269,300.651 206.5,299.5C 207.23,300.934 208.23,302.1 209.5,303C 207.729,303.535 207.396,304.369 208.5,305.5C 209.622,304.37 210.956,303.703 212.5,303.5C 213.11,304.391 213.443,305.391 213.5,306.5C 212.508,306.328 211.842,306.662 211.5,307.5C 207.181,308.035 202.848,308.535 198.5,309C 197.624,310.585 196.291,311.585 194.5,312C 182.53,313.297 170.53,314.13 158.5,314.5C 149.034,314.286 139.701,313.12 130.5,311C 119.822,308.497 109.155,305.997 98.5,303.5C 97.5337,301.943 96.2004,300.61 94.5,299.5C 90.8912,298.59 87.5578,297.257 84.5,295.5C 85.9305,295.579 87.2638,295.246 88.5,294.5C 90.8857,297.51 93.8857,298.51 97.5,297.5C 92.8033,296.864 91.47,294.531 93.5,290.5C 93.5,291.833 93.5,293.167 93.5,294.5C 98.2602,294.799 99.5936,292.799 97.5,288.5C 98.2389,288.631 98.9056,288.464 99.5,288C 98.1667,287.667 96.8333,287.333 95.5,287C 97.1667,286 98.8333,285 100.5,284C 99.0439,283.577 98.5439,282.744 99,281.5C 100.681,283.294 102.514,283.794 104.5,283C 106.182,285.218 108.182,287.051 110.5,288.5C 110.833,287.667 111.167,286.833 111.5,286C 109.25,283.283 107.75,280.116 107,276.5C 105.604,274.473 103.938,274.14 102,275.5C 100.192,273.258 100.359,271.091 102.5,269C 101.468,264.738 100.135,260.571 98.5,256.5C 99.0253,255.808 99.6919,255.308 100.5,255C 98.5356,252.833 98.2022,250.499 99.5,248C 97.5125,246.681 96.3459,244.848 96,242.5C 95.2287,222.814 94.2287,203.147 93,183.5C 92.3833,178.533 91.2167,173.7 89.5,169C 86.579,162.703 83.579,156.536 80.5,150.5C 79.448,150.649 78.448,150.483 77.5,150C 79.158,149.275 79.658,148.108 79,146.5C 74.1149,142.39 69.4483,138.057 65,133.5C 64.187,131.564 63.687,129.564 63.5,127.5C 62.325,127.719 61.325,127.386 60.5,126.5C 58.5823,122.996 56.4157,119.663 54,116.5C 52.6265,114.176 52.2931,111.843 53,109.5C 52.6667,109.833 52.3333,110.167 52,110.5C 51.3892,108.25 50.0559,106.583 48,105.5C 47.9833,101.089 47.1499,96.9225 45.5,93C 46.1667,92 46.8333,91 47.5,90C 46.2382,86.7855 46.2382,83.2855 47.5,79.5C 48.0444,77.4205 48.8777,75.4205 50,73.5C 56.7524,65.2458 64.2524,57.9125 72.5,51.5C 74.0709,50.6906 75.7376,50.3573 77.5,50.5C 77.6261,52.1998 78.2927,53.6998 79.5,55C 79.1667,55.5 78.8333,56 78.5,56.5C 76.3326,55.0458 74.3326,55.2125 72.5,57C 73.7588,57.9234 75.0921,58.7568 76.5,59.5C 75.7376,59.9106 74.7376,60.0773 73.5,60C 73.3809,61.1448 73.0476,62.3115 72.5,63.5 Z"/></g>
<g><path style="opacity:1" fill="#3d52b0" d="M 37.5,59.5 C 34.4272,63.6519 32.4272,68.3186 31.5,73.5C 32.5,73.5 33.5,73.5 34.5,73.5C 34.5,74.8333 34.5,76.1667 34.5,77.5C 33.5,77.5 32.5,77.5 31.5,77.5C 31.5,76.5 31.5,75.5 31.5,74.5C 30.1779,74.33 29.0113,74.6634 28,75.5C 24.4816,80.3675 21.815,85.7008 20,91.5C 19.3292,92.2524 18.4959,92.5858 17.5,92.5C 21.8928,80.0344 28.5594,69.0344 37.5,59.5 Z"/></g>
<g><path style="opacity:1" fill="#778de2" d="M 281.5,68.5 C 284.957,68.6672 285.29,69.6672 282.5,71.5C 281.614,70.675 281.281,69.675 281.5,68.5 Z"/></g>
<g><path style="opacity:1" fill="#fefefd" d="M 74.5,68.5 C 130.833,68.5 187.167,68.5 243.5,68.5C 243.5,79.8333 243.5,91.1667 243.5,102.5C 222.327,102.169 201.327,102.503 180.5,103.5C 180.5,162.833 180.5,222.167 180.5,281.5C 166.5,281.5 152.5,281.5 138.5,281.5C 138.832,221.998 138.499,162.664 137.5,103.5C 116.5,103.5 95.5,103.5 74.5,103.5C 74.5,91.8333 74.5,80.1667 74.5,68.5 Z"/></g>
<g><path style="opacity:1" fill="#96a9fa" d="M 39.5,63.5 C 40.5,63.5 41.5,63.5 42.5,63.5C 42.5,64.5 42.5,65.5 42.5,66.5C 41.5,66.5 40.5,66.5 39.5,66.5C 39.5,65.5 39.5,64.5 39.5,63.5 Z"/></g>
<g><path style="opacity:1" fill="#1241d0" d="M 258.5,62.5 C 261.286,67.647 264.952,72.3136 269.5,76.5C 268.778,76.9175 268.278,77.5842 268,78.5C 266.092,75.6677 265.259,76.001 265.5,79.5C 267.604,79.2011 269.604,79.5344 271.5,80.5C 272.641,81.4255 272.641,82.2588 271.5,83C 274.564,84.9537 276.23,87.7871 276.5,91.5C 275.5,91.5 274.5,91.5 273.5,91.5C 273.509,89.6916 273.009,88.0249 272,86.5C 272.359,91.8073 272.359,97.1406 272,102.5C 267.964,110.792 263.464,118.792 258.5,126.5C 257.675,127.386 256.675,127.719 255.5,127.5C 255.66,129.199 255.494,130.866 255,132.5C 250.81,135.026 247.643,138.526 245.5,143C 246.308,143.308 246.975,143.808 247.5,144.5C 245.956,145.622 244.623,145.289 243.5,143.5C 242.646,144.522 241.646,145.355 240.5,146C 240.096,150.287 238.596,154.12 236,157.5C 234.559,158.87 232.892,159.87 231,160.5C 228.202,170.676 226.202,181.009 225,191.5C 224.604,208.511 223.937,225.511 223,242.5C 220.241,246.861 219.407,251.527 220.5,256.5C 218.253,261.659 216.92,266.825 216.5,272C 213.328,275.181 211.994,279.014 212.5,283.5C 211.5,283.5 210.5,283.5 209.5,283.5C 209.473,285.199 208.806,286.533 207.5,287.5C 204.422,289.908 201.089,291.908 197.5,293.5C 196.393,292.978 195.226,292.645 194,292.5C 189.826,293.845 185.659,294.179 181.5,293.5C 184.833,292.167 188.167,290.833 191.5,289.5C 190.624,288.749 189.624,288.249 188.5,288C 189.516,287.481 190.182,286.647 190.5,285.5C 189.067,282.33 189.233,279.33 191,276.5C 191.495,278.473 191.662,280.473 191.5,282.5C 193.144,282.714 194.644,282.38 196,281.5C 197.044,279.285 197.71,276.952 198,274.5C 200.971,270.909 203.804,267.242 206.5,263.5C 207.48,260.914 207.813,258.247 207.5,255.5C 208.978,255.762 210.311,255.429 211.5,254.5C 207.957,247.025 207.957,239.525 211.5,232C 209.981,226.728 210.314,221.561 212.5,216.5C 210.908,202.873 211.575,189.373 214.5,176C 213.941,175.275 213.608,174.442 213.5,173.5C 216.552,164.257 220.052,155.257 224,146.5C 225.508,144.162 227.675,143.162 230.5,143.5C 231.736,137.401 234.569,132.068 239,127.5C 239.333,128.167 239.667,128.833 240,129.5C 242.434,123.647 246.101,118.647 251,114.5C 251.483,113.552 251.649,112.552 251.5,111.5C 252.598,110.399 252.765,109.066 252,107.5C 250.055,106.137 247.888,105.303 245.5,105C 246.488,93.5809 246.821,82.0809 246.5,70.5C 247.497,70.4701 248.164,70.9701 248.5,72C 248.287,82.4441 248.287,92.9441 248.5,103.5C 253.368,102.945 256.201,100.278 257,95.5C 257.829,90.1357 257.663,84.8023 256.5,79.5C 255.667,78.5 254.833,77.5 254,76.5C 253.167,77.5 252.333,78.5 251.5,79.5C 249.9,76.4925 250.567,74.1592 253.5,72.5C 252.098,71.1575 252.431,70.3242 254.5,70C 252.162,68.4918 251.162,66.3252 251.5,63.5C 253.95,63.702 256.283,63.3686 258.5,62.5 Z"/></g>
<g><path style="opacity:1" fill="#9bb0fd" d="M 276.5,57.5 C 276.737,58.791 276.404,59.791 275.5,60.5C 273.952,60.1788 273.285,59.1788 273.5,57.5C 274.5,57.5 275.5,57.5 276.5,57.5 Z"/></g>
<g><path style="opacity:1" fill="#a1b1e9" d="M 62.5,49.5 C 62.44,50.0431 62.1067,50.3764 61.5,50.5C 60.4822,49.8075 59.4822,49.1408 58.5,48.5C 57.6016,47.8423 56.6016,47.1757 55.5,46.5C 56.7598,45.6184 57.9264,44.6184 59,43.5C 59.5637,45.8867 60.7304,47.8867 62.5,49.5 Z"/></g>
<g><path style="opacity:1" fill="#1946cf" d="M 85.5,23.5 C 83.5522,24.1312 81.7189,25.1312 80,26.5C 79.4719,27.816 79.9719,28.4827 81.5,28.5C 77.7024,30.7358 77.5357,33.4025 81,36.5C 80.8047,34.8739 80.8047,33.2072 81,31.5C 81.3678,32.91 82.2011,33.91 83.5,34.5C 83.7486,33.4179 83.9152,32.0846 84,30.5C 84.8373,32.0074 86.0039,32.5074 87.5,32C 86.4911,29.8282 84.8244,28.6615 82.5,28.5C 83.829,26.6227 85.1623,26.4561 86.5,28C 87.2961,29.0921 87.9628,30.2588 88.5,31.5C 87.5196,33.5193 86.1862,35.3526 84.5,37C 85.7932,37.49 87.1266,37.6567 88.5,37.5C 88.5,36.5 88.5,35.5 88.5,34.5C 90.6807,34.2837 92.3474,35.117 93.5,37C 91.047,37.7267 88.7136,38.7267 86.5,40C 88,41.8333 89.5,43.6667 91,45.5C 91.6667,44.8333 92.3333,44.1667 93,43.5C 94.2447,43.4615 95.5781,43.7948 97,44.5C 98.8261,43.9896 98.9928,43.1562 97.5,42C 99.4406,41.2571 101.274,41.4238 103,42.5C 104.419,41.5399 105.919,40.7065 107.5,40C 106.62,38.6439 106.286,37.1439 106.5,35.5C 107.93,35.5792 109.264,35.2458 110.5,34.5C 111.452,36.0453 111.785,37.712 111.5,39.5C 138.768,37.4484 166.101,36.9484 193.5,38C 196.108,39.8524 198.441,39.6857 200.5,37.5C 202.618,38.9459 204.951,39.6126 207.5,39.5C 207.351,38.448 207.517,37.448 208,36.5C 211.055,40.7446 215.222,42.9113 220.5,43C 221.931,43.4652 223.097,44.2986 224,45.5C 225.836,43.9302 225.67,42.4302 223.5,41C 223.833,40.5 224.167,40 224.5,39.5C 227.137,41.3867 229.803,43.22 232.5,45C 230.616,45.2163 228.949,45.883 227.5,47C 233.502,46.5323 237.502,49.0323 239.5,54.5C 241.92,54.2924 244.253,54.6258 246.5,55.5C 248.798,61.143 252.465,63.143 257.5,61.5C 258.167,61.5 258.5,61.8333 258.5,62.5C 256.283,63.3686 253.95,63.702 251.5,63.5C 251.162,66.3252 252.162,68.4918 254.5,70C 252.431,70.3242 252.098,71.1575 253.5,72.5C 250.567,74.1592 249.9,76.4925 251.5,79.5C 252.333,78.5 253.167,77.5 254,76.5C 254.833,77.5 255.667,78.5 256.5,79.5C 257.663,84.8023 257.829,90.1357 257,95.5C 256.201,100.278 253.368,102.945 248.5,103.5C 248.287,92.9441 248.287,82.4441 248.5,72C 248.164,70.9701 247.497,70.4701 246.5,70.5C 246.737,69.209 246.404,68.209 245.5,67.5C 245.167,67.5 244.833,67.5 244.5,67.5C 244.5,67.1667 244.5,66.8333 244.5,66.5C 244.611,65.8826 244.944,65.3826 245.5,65C 237.474,66.1392 230.807,63.8059 225.5,58C 210.604,52.7183 195.27,49.2183 179.5,47.5C 162.157,48.2488 144.824,48.5821 127.5,48.5C 126.624,49.2508 125.624,49.7508 124.5,50C 120.167,50.3333 115.833,50.6667 111.5,51C 112.167,51.3333 112.833,51.6667 113.5,52C 109.636,52.7061 105.803,53.5394 102,54.5C 96.7734,56.5144 91.9401,59.1811 87.5,62.5C 82.544,63.4941 77.544,63.8275 72.5,63.5C 73.0476,62.3115 73.3809,61.1448 73.5,60C 74.7376,60.0773 75.7376,59.9106 76.5,59.5C 75.0921,58.7568 73.7588,57.9234 72.5,57C 74.3326,55.2125 76.3326,55.0458 78.5,56.5C 78.8333,56 79.1667,55.5 79.5,55C 78.2927,53.6998 77.6261,52.1998 77.5,50.5C 75.7376,50.3573 74.0709,50.6906 72.5,51.5C 64.2524,57.9125 56.7524,65.2458 50,73.5C 48.8777,75.4205 48.0444,77.4205 47.5,79.5C 44.2054,84.9508 40.5388,90.2841 36.5,95.5C 35.7696,97.3413 35.1029,99.1746 34.5,101C 34.8333,101.333 35.1667,101.667 35.5,102C 30.3953,107.049 27.7287,113.216 27.5,120.5C 28.552,120.351 29.552,120.517 30.5,121C 29.4479,122.119 28.2812,122.619 27,122.5C 26.4054,123.899 26.5721,125.232 27.5,126.5C 26.5,127.833 25.5,127.833 24.5,126.5C 23.0369,123.12 23.3702,119.953 25.5,117C 24.3551,115.598 23.0217,114.431 21.5,113.5C 21.5,112.833 21.8333,112.5 22.5,112.5C 23.7079,111.766 25.0413,111.433 26.5,111.5C 29.0879,105.312 31.4212,98.9789 33.5,92.5C 34.5,92.5 35.5,92.5 36.5,92.5C 37.0942,87.8799 38.7609,83.7132 41.5,80C 38.9875,78.1268 39.1542,76.2935 42,74.5C 43.1827,75.731 44.3493,75.731 45.5,74.5C 46.2758,72.6441 47.6091,71.3107 49.5,70.5C 50.0983,69.2054 50.5983,67.8721 51,66.5C 55.6413,63.026 59.8079,59.026 63.5,54.5C 62.2361,54.3601 61.0695,54.3601 60,54.5C 59.4954,52.4817 58.9954,50.4817 58.5,48.5C 59.4822,49.1408 60.4822,49.8075 61.5,50.5C 62.1067,50.3764 62.44,50.0431 62.5,49.5C 63.2679,50.2625 63.7679,51.2625 64,52.5C 67.7805,50.0289 71.6138,47.6955 75.5,45.5C 76.8448,46.3467 77.8448,47.5134 78.5,49C 79.5,49.6667 80.5,49.6667 81.5,49C 83.7678,48.028 85.7678,46.6946 87.5,45C 86.4647,43.7263 85.298,42.5596 84,41.5C 84.2626,42.9506 84.0959,44.2839 83.5,45.5C 82.8333,44.8333 82.1667,44.1667 81.5,43.5C 79.099,46.4127 77.7657,46.0794 77.5,42.5C 80.5036,42.6653 82.5036,41.3319 83.5,38.5C 81.2287,37.6365 78.8954,37.6365 76.5,38.5C 76.6399,36.8762 75.9733,35.7096 74.5,35C 77.0789,33.3883 77.0789,31.8883 74.5,30.5C 72.0324,31.8029 69.699,33.3029 67.5,35C 68.756,35.4169 69.4226,36.2502 69.5,37.5C 68.6365,36.537 67.9698,36.537 67.5,37.5C 68.7629,39.0287 69.7629,40.6954 70.5,42.5C 69.2652,42.7214 68.2652,43.3881 67.5,44.5C 66.2813,43.3539 64.9479,42.3539 63.5,41.5C 64.5,40.1667 65.5,38.8333 66.5,37.5C 66.0431,36.7025 65.3764,36.3691 64.5,36.5C 65.968,35.2209 66.6347,33.5542 66.5,31.5C 69.1264,30.5785 71.7931,29.5785 74.5,28.5C 75.3857,27.675 75.719,26.675 75.5,25.5C 78.698,24.2132 82.0314,23.5465 85.5,23.5 Z"/></g>
<g><path style="opacity:1" fill="#d3dbf4" d="M 74.5,68.5 C 130.998,67.501 187.664,67.1677 244.5,67.5C 244.833,67.5 245.167,67.5 245.5,67.5C 245.828,79.6783 245.495,91.6783 244.5,103.5C 223.5,103.5 202.5,103.5 181.5,103.5C 181.167,103.5 180.833,103.5 180.5,103.5C 201.327,102.503 222.327,102.169 243.5,102.5C 243.5,91.1667 243.5,79.8333 243.5,68.5C 187.167,68.5 130.833,68.5 74.5,68.5 Z"/></g>
<g><path style="opacity:1" fill="#7d9ae1" d="M 74.5,66.5 C 131.167,66.5 187.833,66.5 244.5,66.5C 244.5,66.8333 244.5,67.1667 244.5,67.5C 187.664,67.1677 130.998,67.501 74.5,68.5C 74.5,80.1667 74.5,91.8333 74.5,103.5C 74.1667,103.5 73.8333,103.5 73.5,103.5C 73.5,91.5 73.5,79.5 73.5,67.5C 73.5,66.8333 73.8333,66.5 74.5,66.5 Z"/></g>
<g><path style="opacity:1" fill="#244ed1" d="M 244.5,66.5 C 187.833,66.5 131.167,66.5 74.5,66.5C 74.6107,65.8826 74.944,65.3826 75.5,65C 74.2625,64.7679 73.2625,64.2679 72.5,63.5C 77.544,63.8275 82.544,63.4941 87.5,62.5C 91.9401,59.1811 96.7734,56.5144 102,54.5C 105.803,53.5394 109.636,52.7061 113.5,52C 112.833,51.6667 112.167,51.3333 111.5,51C 115.833,50.6667 120.167,50.3333 124.5,50C 125.624,49.7508 126.624,49.2508 127.5,48.5C 144.824,48.5821 162.157,48.2488 179.5,47.5C 195.27,49.2183 210.604,52.7183 225.5,58C 230.807,63.8059 237.474,66.1392 245.5,65C 244.944,65.3826 244.611,65.8826 244.5,66.5 Z"/></g>
<g><path style="opacity:1" fill="#97adf0" d="M 69.5,37.5 C 70.6138,38.8853 71.6138,40.3853 72.5,42C 71.9056,42.4643 71.2389,42.631 70.5,42.5C 69.7629,40.6954 68.7629,39.0287 67.5,37.5C 67.9698,36.537 68.6365,36.537 69.5,37.5 Z"/></g>
<g><path style="opacity:1" fill="#1e41b5" d="M 236.5,20.5 C 259.024,33.0259 277.358,50.0259 291.5,71.5C 287.769,67.7629 283.769,64.4295 279.5,61.5C 280.092,58.3695 279.092,56.0361 276.5,54.5C 273.18,52.3274 270.513,49.4941 268.5,46C 267.667,45.8333 266.833,45.6667 266,45.5C 263.71,46.6213 261.543,47.9546 259.5,49.5C 259.167,49.1667 258.833,48.8333 258.5,48.5C 264.121,44.822 263.621,42.1554 257,40.5C 256.163,38.6494 255.329,36.8161 254.5,35C 253.207,34.51 251.873,34.3433 250.5,34.5C 250.5,33.5 250.5,32.5 250.5,31.5C 248.473,31.3379 246.473,31.5045 244.5,32C 246.18,32.3468 247.18,33.3468 247.5,35C 247.302,37.1845 246.302,38.6845 244.5,39.5C 244.297,37.6096 244.963,36.1096 246.5,35C 244.265,33.6788 242.265,34.3454 240.5,37C 240.728,37.3988 241.062,37.5654 241.5,37.5C 241.44,38.0431 241.107,38.3764 240.5,38.5C 239.5,37.1667 238.5,35.8333 237.5,34.5C 239.216,34.0028 240.883,33.6694 242.5,33.5C 241.125,31.8366 241.458,30.5032 243.5,29.5C 242.147,28.4763 241.48,27.143 241.5,25.5C 238.5,25.1667 236.833,23.5 236.5,20.5 Z"/></g>
<g><path style="opacity:1" fill="#304ba7" d="M 66.5,31.5 C 66.6347,33.5542 65.968,35.2209 64.5,36.5C 61.7889,37.695 59.4555,39.5283 57.5,42C 56.552,42.4828 55.552,42.6495 54.5,42.5C 54.321,44.6056 53.321,46.2723 51.5,47.5C 46.469,51.207 41.8023,55.207 37.5,59.5C 45.8779,48.7881 55.5445,39.4547 66.5,31.5 Z"/></g>
<g><path style="opacity:1" fill="#123ebc" d="M 93.5,15.5 C 94.1667,15.5 94.8333,15.5 95.5,15.5C 96.5,15.5 97.5,15.5 98.5,15.5C 98.1412,17.371 97.1412,18.871 95.5,20C 97.4335,20.7826 98.9335,20.2826 100,18.5C 100.5,19 101,19.5 101.5,20C 100.39,22.7372 100.223,25.5706 101,28.5C 103.292,29.6009 104.792,28.7676 105.5,26C 117.022,23.0198 128.689,20.3531 140.5,18C 160.169,16.6186 179.669,17.7853 199,21.5C 202.622,23.7925 202.289,24.7925 198,24.5C 180.073,20.2855 161.907,18.7855 143.5,20C 135.611,21.0102 127.944,22.8435 120.5,25.5C 117.332,26.8638 113.999,27.6972 110.5,28C 105.435,30.5327 100.435,33.0327 95.5,35.5C 94.0683,35.2668 93.5683,34.6001 94,33.5C 94.9078,31.5614 96.4078,30.5614 98.5,30.5C 98.5,29.5 98.5,28.5 98.5,27.5C 99.3029,26.5768 99.4696,25.5768 99,24.5C 97.9887,25.3366 96.8221,25.67 95.5,25.5C 95.4125,22.4017 95.9125,22.0684 97,24.5C 97.6924,23.9747 98.1924,23.3081 98.5,22.5C 96.8327,21.3336 95.166,21.3336 93.5,22.5C 95.1859,19.4633 94.1859,18.13 90.5,18.5C 91.9002,17.8999 92.9002,16.8999 93.5,15.5 Z"/></g>
<g><path style="opacity:1" fill="#a2b4f4" d="M 81.5,28.5 C 81.8333,28.5 82.1667,28.5 82.5,28.5C 84.8244,28.6615 86.4911,29.8282 87.5,32C 86.0039,32.5074 84.8373,32.0074 84,30.5C 83.9152,32.0846 83.7486,33.4179 83.5,34.5C 82.2011,33.91 81.3678,32.91 81,31.5C 80.8047,33.2072 80.8047,34.8739 81,36.5C 77.5357,33.4025 77.7024,30.7358 81.5,28.5 Z"/></g>
<g><path style="opacity:1" fill="#354fa5" d="M 75.5,25.5 C 75.719,26.675 75.3857,27.675 74.5,28.5C 71.7931,29.5785 69.1264,30.5785 66.5,31.5C 68.9754,28.7589 71.9754,26.7589 75.5,25.5 Z"/></g>
<g><path style="opacity:1" fill="#a5b9f3" d="M 98.5,27.5 C 95.1667,27.5 93.5,25.8333 93.5,22.5C 95.166,21.3336 96.8327,21.3336 98.5,22.5C 98.1924,23.3081 97.6924,23.9747 97,24.5C 95.9125,22.0684 95.4125,22.4017 95.5,25.5C 96.8221,25.67 97.9887,25.3366 99,24.5C 99.4696,25.5768 99.3029,26.5768 98.5,27.5 Z"/></g>
<g><path style="opacity:1" fill="#1341d0" d="M 90.5,18.5 C 94.1859,18.13 95.1859,19.4633 93.5,22.5C 93.5,25.8333 95.1667,27.5 98.5,27.5C 98.5,28.5 98.5,29.5 98.5,30.5C 96.4078,30.5614 94.9078,31.5614 94,33.5C 93.5683,34.6001 94.0683,35.2668 95.5,35.5C 100.435,33.0327 105.435,30.5327 110.5,28C 113.999,27.6972 117.332,26.8638 120.5,25.5C 120.389,26.1174 120.056,26.6174 119.5,27C 127.279,27.5903 134.779,26.4237 142,23.5C 147.699,24.7658 153.532,25.4325 159.5,25.5C 165.341,25.453 171.008,24.7863 176.5,23.5C 180.305,24.5743 183.971,25.9076 187.5,27.5C 191.174,28.645 194.841,28.8117 198.5,28C 196.405,28.5556 196.238,29.0556 198,29.5C 200.771,28.467 203.937,27.8003 207.5,27.5C 208.209,28.404 209.209,28.7373 210.5,28.5C 210.5,29.5 210.5,30.5 210.5,31.5C 214.226,31.1774 217.893,31.5108 221.5,32.5C 226.407,36.5888 231.407,40.4222 236.5,44C 241.663,45.0017 245.497,47.835 248,52.5C 248.333,52.1667 248.667,51.8333 249,51.5C 251.308,54.2592 253.975,56.5926 257,58.5C 257.483,59.448 257.649,60.448 257.5,61.5C 252.465,63.143 248.798,61.143 246.5,55.5C 244.253,54.6258 241.92,54.2924 239.5,54.5C 237.502,49.0323 233.502,46.5323 227.5,47C 228.949,45.883 230.616,45.2163 232.5,45C 229.803,43.22 227.137,41.3867 224.5,39.5C 224.167,40 223.833,40.5 223.5,41C 225.67,42.4302 225.836,43.9302 224,45.5C 223.097,44.2986 221.931,43.4652 220.5,43C 215.222,42.9113 211.055,40.7446 208,36.5C 207.517,37.448 207.351,38.448 207.5,39.5C 204.951,39.6126 202.618,38.9459 200.5,37.5C 198.441,39.6857 196.108,39.8524 193.5,38C 166.101,36.9484 138.768,37.4484 111.5,39.5C 111.785,37.712 111.452,36.0453 110.5,34.5C 109.264,35.2458 107.93,35.5792 106.5,35.5C 106.286,37.1439 106.62,38.6439 107.5,40C 105.919,40.7065 104.419,41.5399 103,42.5C 101.274,41.4238 99.4406,41.2571 97.5,42C 98.9928,43.1562 98.8261,43.9896 97,44.5C 95.5781,43.7948 94.2447,43.4615 93,43.5C 92.3333,44.1667 91.6667,44.8333 91,45.5C 89.5,43.6667 88,41.8333 86.5,40C 88.7136,38.7267 91.047,37.7267 93.5,37C 92.3474,35.117 90.6807,34.2837 88.5,34.5C 88.5,35.5 88.5,36.5 88.5,37.5C 87.1266,37.6567 85.7932,37.49 84.5,37C 86.1862,35.3526 87.5196,33.5193 88.5,31.5C 87.9628,30.2588 87.2961,29.0921 86.5,28C 85.1623,26.4561 83.829,26.6227 82.5,28.5C 82.1667,28.5 81.8333,28.5 81.5,28.5C 79.9719,28.4827 79.4719,27.816 80,26.5C 81.7189,25.1312 83.5522,24.1312 85.5,23.5C 87.3271,22.0681 88.9937,20.4014 90.5,18.5 Z"/></g>
<g><path style="opacity:1" fill="#3049a8" d="M 93.5,15.5 C 92.9002,16.8999 91.9002,17.8999 90.5,18.5C 88.9937,20.4014 87.3271,22.0681 85.5,23.5C 82.0314,23.5465 78.698,24.2132 75.5,25.5C 75.9528,24.5416 76.6195,23.7083 77.5,23C 82.9463,20.7151 88.2796,18.2151 93.5,15.5 Z"/></g>
<g><path style="opacity:1" fill="#2240a3" d="M 218.5,12.5 C 224.866,13.8516 230.533,16.5182 235.5,20.5C 230.303,19.8146 225.469,18.1479 221,15.5C 219.69,14.8699 218.856,13.8699 218.5,12.5 Z"/></g>
<g><path style="opacity:1" fill="#0f3bcb" d="M 184.5,3.5 C 187.391,4.40252 190.391,4.73586 193.5,4.5C 193.833,4.5 194.167,4.5 194.5,4.5C 194.804,5.14987 195.137,5.81654 195.5,6.5C 202.245,7.91497 208.912,9.58164 215.5,11.5C 216.609,11.5569 217.609,11.8902 218.5,12.5C 218.856,13.8699 219.69,14.8699 221,15.5C 225.469,18.1479 230.303,19.8146 235.5,20.5C 235.833,20.5 236.167,20.5 236.5,20.5C 236.833,23.5 238.5,25.1667 241.5,25.5C 241.48,27.143 242.147,28.4763 243.5,29.5C 241.458,30.5032 241.125,31.8366 242.5,33.5C 240.883,33.6694 239.216,34.0028 237.5,34.5C 238.5,35.8333 239.5,37.1667 240.5,38.5C 241.107,38.3764 241.44,38.0431 241.5,37.5C 242.222,38.5511 243.222,39.2178 244.5,39.5C 246.302,38.6845 247.302,37.1845 247.5,35C 247.18,33.3468 246.18,32.3468 244.5,32C 246.473,31.5045 248.473,31.3379 250.5,31.5C 250.5,32.5 250.5,33.5 250.5,34.5C 251.873,34.3433 253.207,34.51 254.5,35C 255.329,36.8161 256.163,38.6494 257,40.5C 263.621,42.1554 264.121,44.822 258.5,48.5C 258.833,48.8333 259.167,49.1667 259.5,49.5C 261.543,47.9546 263.71,46.6213 266,45.5C 266.833,45.6667 267.667,45.8333 268.5,46C 270.513,49.4941 273.18,52.3274 276.5,54.5C 275.322,55.9986 273.655,56.9986 271.5,57.5C 272.428,58.7678 272.595,60.1011 272,61.5C 270.964,59.4326 269.464,58.2659 267.5,58C 271.11,61.7822 274.11,65.9489 276.5,70.5C 274.61,70.2965 273.11,70.9632 272,72.5C 271.405,71.1011 271.572,69.7678 272.5,68.5C 270,66.1667 267.5,63.8333 265,61.5C 264.405,60.1011 264.572,58.7678 265.5,57.5C 264.96,56.2519 264.293,55.0852 263.5,54C 262.668,53.3123 262.002,53.479 261.5,54.5C 263.412,56.5415 263.579,58.5415 262,60.5C 256.923,53.941 250.756,48.7743 243.5,45C 239.116,39.9489 234.116,35.6155 228.5,32C 228.728,31.6012 229.062,31.4346 229.5,31.5C 233.677,32.1584 235.177,30.4918 234,26.5C 231.856,25.1563 230.023,25.4896 228.5,27.5C 225.864,32.4639 222.531,32.7973 218.5,28.5C 216.945,28.722 215.611,29.3887 214.5,30.5C 211.88,25.6904 207.88,23.857 202.5,25C 204.175,25.9853 205.842,26.8186 207.5,27.5C 203.937,27.8003 200.771,28.467 198,29.5C 196.238,29.0556 196.405,28.5556 198.5,28C 194.841,28.8117 191.174,28.645 187.5,27.5C 183.971,25.9076 180.305,24.5743 176.5,23.5C 171.008,24.7863 165.341,25.453 159.5,25.5C 153.532,25.4325 147.699,24.7658 142,23.5C 134.779,26.4237 127.279,27.5903 119.5,27C 120.056,26.6174 120.389,26.1174 120.5,25.5C 127.944,22.8435 135.611,21.0102 143.5,20C 161.907,18.7855 180.073,20.2855 198,24.5C 202.289,24.7925 202.622,23.7925 199,21.5C 179.669,17.7853 160.169,16.6186 140.5,18C 128.689,20.3531 117.022,23.0198 105.5,26C 104.792,28.7676 103.292,29.6009 101,28.5C 100.223,25.5706 100.39,22.7372 101.5,20C 101,19.5 100.5,19 100,18.5C 98.9335,20.2826 97.4335,20.7826 95.5,20C 97.1412,18.871 98.1412,17.371 98.5,15.5C 106.075,12.5647 113.408,9.23138 120.5,5.5C 120.833,5.5 121.167,5.5 121.5,5.5C 124.127,4.90843 126.794,4.5751 129.5,4.5C 136.366,4.21704 143.2,3.55038 150,2.5C 161.437,2.22345 172.937,2.55679 184.5,3.5 Z"/></g>
<g><path style="opacity:1" fill="#b7d0ff" d="M 264.5,48.5 C 266.337,48.6395 266.67,49.3061 265.5,50.5C 264.702,50.0431 264.369,49.3764 264.5,48.5 Z"/></g>
<g><path style="opacity:1" fill="#b5c2fc" d="M 244.5,39.5 C 243.222,39.2178 242.222,38.5511 241.5,37.5C 241.062,37.5654 240.728,37.3988 240.5,37C 242.265,34.3454 244.265,33.6788 246.5,35C 244.963,36.1096 244.297,37.6096 244.5,39.5 Z"/></g>
<g><path style="opacity:1" fill="#9babf5" d="M 229.5,31.5 C 228.766,30.2921 228.433,28.9587 228.5,27.5C 230.023,25.4896 231.856,25.1563 234,26.5C 235.177,30.4918 233.677,32.1584 229.5,31.5 Z"/></g>
<g><path style="opacity:1" fill="#010d8d" d="M 230.5,27.5 C 232.337,27.6395 232.67,28.3061 231.5,29.5C 230.702,29.0431 230.369,28.3764 230.5,27.5 Z"/></g>
<g><path style="opacity:1" fill="#a3b1eb" d="M 216.5,16.5 C 221.981,17.0717 222.981,19.5717 219.5,24C 217.888,24.7203 216.388,24.5536 215,23.5C 214.761,21.0405 215.261,18.7072 216.5,16.5 Z"/></g>
<g><path style="opacity:1" fill="#a7b8f0" d="M 107.5,15.5 C 108.693,15.9704 109.36,16.9704 109.5,18.5C 109.333,19.5 109.167,20.5 109,21.5C 107.681,19.7505 107.181,17.7505 107.5,15.5 Z"/></g>
<g><path style="opacity:1" fill="#a1b4f3" d="M 131.5,7.5 C 133.604,7.2011 135.604,7.53443 137.5,8.5C 136.284,9.09595 134.951,9.26261 133.5,9C 132.62,10.3561 132.286,11.8561 132.5,13.5C 133.873,13.6567 135.207,13.49 136.5,13C 134.355,12.2569 134.189,11.4235 136,10.5C 138.48,11.1224 138.98,12.4557 137.5,14.5C 131.32,15.9802 129.32,13.6468 131.5,7.5 Z"/></g>
<g><path style="opacity:1" fill="#7285e0" d="M 166.5,7.5 C 165.691,8.46872 164.691,9.30206 163.5,10C 164.736,11.0848 166.069,11.9181 167.5,12.5C 163,14.1632 161.5,12.4965 163,7.5C 164.292,6.20891 165.458,6.20891 166.5,7.5 Z"/></g>
<g><path style="opacity:1" fill="#93a5e7" d="M 193.5,9.5 C 195.847,11.0301 196.014,13.0301 194,15.5C 190.159,16.9948 188.826,15.6615 190,11.5C 191.302,10.9152 192.469,10.2485 193.5,9.5 Z"/></g>
<g><path style="opacity:1" fill="#97a9ee" d="M 147.5,7.5 C 148.943,8.33507 149.943,9.6684 150.5,11.5C 152.673,6.58859 153.673,7.25525 153.5,13.5C 148.5,14.5 146.5,12.5 147.5,7.5 Z"/></g>
<g><path style="opacity:1" fill="#b7d0ff" d="M 177.5,8.5 C 178.552,8.35055 179.552,8.51722 180.5,9C 179.033,10.0975 178.199,11.5975 178,13.5C 177.506,11.8659 177.34,10.1992 177.5,8.5 Z"/></g>
<g><path style="opacity:1" fill="#bccdf6" d="M 166.5,7.5 C 167.451,8.91866 167.784,10.5853 167.5,12.5C 166.069,11.9181 164.736,11.0848 163.5,10C 164.691,9.30206 165.691,8.46872 166.5,7.5 Z"/></g>
<g><path style="opacity:1" fill="#364ea6" d="M 120.5,5.5 C 113.408,9.23138 106.075,12.5647 98.5,15.5C 97.5,15.5 96.5,15.5 95.5,15.5C 97.3162,13.8634 99.3162,12.3634 101.5,11C 107.824,9.05788 114.157,7.22455 120.5,5.5 Z"/></g>
<g><path style="opacity:1" fill="#29439c" d="M 194.5,4.5 C 200.099,5.92502 205.765,7.42502 211.5,9C 213.066,9.6082 214.4,10.4415 215.5,11.5C 208.912,9.58164 202.245,7.91497 195.5,6.5C 195.137,5.81654 194.804,5.14987 194.5,4.5 Z"/></g>
<g><path style="opacity:1" fill="#869dd3" d="M 129.5,3.5 C 129.5,3.83333 129.5,4.16667 129.5,4.5C 126.794,4.5751 124.127,4.90843 121.5,5.5C 123.78,3.77733 126.447,3.11066 129.5,3.5 Z"/></g>
<g><path style="opacity:1" fill="#4c60a8" d="M 180.5,1.5 C 185.077,1.92506 189.41,2.92506 193.5,4.5C 190.391,4.73586 187.391,4.40252 184.5,3.5C 183.167,2.83333 181.833,2.16667 180.5,1.5 Z"/></g>
<g><path style="opacity:1" fill="#113597" d="M 173.5,1.5 C 175.833,1.5 178.167,1.5 180.5,1.5C 181.833,2.16667 183.167,2.83333 184.5,3.5C 172.937,2.55679 161.437,2.22345 150,2.5C 143.2,3.55038 136.366,4.21704 129.5,4.5C 129.5,4.16667 129.5,3.83333 129.5,3.5C 131.621,3.67474 133.621,3.34141 135.5,2.5C 148.144,1.62575 160.811,1.29241 173.5,1.5 Z"/></g>
<g><path style="opacity:1" fill="#6980bd" d="M 173.5,1.5 C 160.811,1.29241 148.144,1.62575 135.5,2.5C 136.952,1.69808 138.618,1.19808 140.5,1C 151.674,0.174306 162.674,0.340973 173.5,1.5 Z"/></g>
<g><path style="opacity:1" fill="#adc0fa" d="M 311.5,179.5 C 309.663,179.361 309.33,178.694 310.5,177.5C 311.298,177.957 311.631,178.624 311.5,179.5 Z"/></g>
<g><path style="opacity:1" fill="#9aabd4" d="M 317.5,149.5 C 319.51,166.235 318.343,182.901 314,199.5C 313.617,200.056 313.117,200.389 312.5,200.5C 313.717,194.189 314.717,187.856 315.5,181.5C 316.468,179.393 316.802,177.059 316.5,174.5C 317.493,166.35 317.826,158.017 317.5,149.5 Z"/></g>
<g><path style="opacity:1" fill="#c6d9fe" d="M 307.5,189.5 C 309.337,189.639 309.67,190.306 308.5,191.5C 307.702,191.043 307.369,190.376 307.5,189.5 Z"/></g>
<g><path style="opacity:1" fill="#1a3ba1" d="M 314.5,181.5 C 314.833,181.5 315.167,181.5 315.5,181.5C 314.717,187.856 313.717,194.189 312.5,200.5C 310.723,203.505 309.723,206.838 309.5,210.5C 307.701,214.058 306.368,217.892 305.5,222C 304.535,223.975 303.201,225.475 301.5,226.5C 302.151,224.174 302.818,221.841 303.5,219.5C 303.48,218.274 303.147,217.274 302.5,216.5C 302.5,215.833 302.833,215.5 303.5,215.5C 304.859,214.993 305.859,213.993 306.5,212.5C 307.968,207.231 309.135,201.897 310,196.5C 312.993,192.016 314.493,187.016 314.5,181.5 Z"/></g>
<g><path style="opacity:1" fill="#7b8fef" d="M 12.5,195.5 C 14.5323,196.048 15.5323,197.381 15.5,199.5C 14.5,199.5 13.5,199.5 12.5,199.5C 12.5,198.167 12.5,196.833 12.5,195.5 Z"/></g>
<g><path style="opacity:1" fill="#7f93c4" d="M 312.5,200.5 C 312.277,204.162 311.277,207.495 309.5,210.5C 309.723,206.838 310.723,203.505 312.5,200.5 Z"/></g>
<g><path style="opacity:1" fill="#b5c2ec" d="M 137.5,103.5 C 138.499,162.664 138.832,221.998 138.5,281.5C 152.5,281.5 166.5,281.5 180.5,281.5C 180.5,222.167 180.5,162.833 180.5,103.5C 180.833,103.5 181.167,103.5 181.5,103.5C 181.5,163.167 181.5,222.833 181.5,282.5C 166.657,282.829 151.99,282.496 137.5,281.5C 137.5,222.167 137.5,162.833 137.5,103.5 Z"/></g>
<g><path style="opacity:1" fill="#9eb2f8" d="M 16.5,208.5 C 17.5,208.5 18.5,208.5 19.5,208.5C 19.5,209.5 19.5,210.5 19.5,211.5C 18.5,211.5 17.5,211.5 16.5,211.5C 16.5,210.5 16.5,209.5 16.5,208.5 Z"/></g>
<g><path style="opacity:1" fill="#acbcfb" d="M 303.5,215.5 C 302.833,215.5 302.5,215.833 302.5,216.5C 301.404,220.289 300.737,220.289 300.5,216.5C 299.448,216.649 298.448,216.483 297.5,216C 296.04,215.189 295.707,214.355 296.5,213.5C 298.828,215.8 300.995,215.8 303,213.5C 303.464,214.094 303.631,214.761 303.5,215.5 Z"/></g>
<g><path style="opacity:1" fill="#1c3b9b" d="M 6.5,191.5 C 10.953,205.934 16.2863,220.267 22.5,234.5C 18.9389,227.73 15.4389,220.73 12,213.5C 9.84507,206.21 8.01174,198.877 6.5,191.5 Z"/></g>
<g><path style="opacity:1" fill="#7488ec" d="M 290.5,226.5 C 293.029,225.551 295.362,226.218 297.5,228.5C 297.167,228.833 296.833,229.167 296.5,229.5C 294.473,228.487 292.473,227.487 290.5,226.5 Z"/></g>
<g><path style="opacity:1" fill="#9aaef1" d="M 31.5,229.5 C 33.4286,229.231 35.0953,229.731 36.5,231C 33.791,231.541 31.791,233.041 30.5,235.5C 29.2888,234.726 29.2888,233.893 30.5,233C 29.376,232.751 28.376,232.251 27.5,231.5C 28.9492,230.828 30.2825,230.161 31.5,229.5 Z"/></g>
<g><path style="opacity:1" fill="#acbef6" d="M 283.5,243.5 C 282.77,242.288 281.77,241.288 280.5,240.5C 280.833,240.167 281.167,239.833 281.5,239.5C 285.974,241.859 286.308,241.359 282.5,238C 282.728,237.601 283.062,237.435 283.5,237.5C 288.231,238.926 288.564,238.26 284.5,235.5C 286.539,234.641 287.872,235.474 288.5,238C 288.056,241.118 286.389,242.951 283.5,243.5 Z"/></g>
<g><path style="opacity:1" fill="#92a3ed" d="M 38.5,241.5 C 43.453,243.078 43.6197,245.078 39,247.5C 34.5806,245.701 34.414,243.701 38.5,241.5 Z"/></g>
<g><path style="opacity:1" fill="#c1c9e1" d="M 26.5,242.5 C 29.7438,246.651 32.7438,250.984 35.5,255.5C 33.3592,253.032 30.6925,251.366 27.5,250.5C 27.9312,249.707 28.2645,248.873 28.5,248C 27.1153,246.403 26.4486,244.57 26.5,242.5 Z"/></g>
<g><path style="opacity:1" fill="#8ea0e9" d="M 278.5,250.5 C 278.095,256.191 276.095,256.857 272.5,252.5C 273.533,249.401 275.533,248.734 278.5,250.5 Z"/></g>
<g><path style="opacity:1" fill="#16399f" d="M 25.5,239.5 C 26.5,239.5 27.5,239.5 28.5,239.5C 28.3433,240.873 28.51,242.207 29,243.5C 31.0793,246.37 33.5793,248.704 36.5,250.5C 37.1805,252.889 38.0138,255.222 39,257.5C 41.4536,259.441 43.287,261.775 44.5,264.5C 41.1395,261.806 38.1395,258.806 35.5,255.5C 32.7438,250.984 29.7438,246.651 26.5,242.5C 26.4431,241.391 26.1098,240.391 25.5,239.5 Z"/></g>
<g><path style="opacity:1" fill="#a9b7f2" d="M 50.5,259.5 C 49.5178,260.141 48.5178,260.807 47.5,261.5C 46.2888,260.726 46.2888,259.893 47.5,259C 42.203,257.866 42.203,257.032 47.5,256.5C 48.0325,251.203 48.8658,251.203 50,256.5C 50.8928,255.289 51.7261,255.289 52.5,256.5C 51.8075,257.518 51.1408,258.518 50.5,259.5 Z"/></g>
<g><path style="opacity:1" fill="#0b37bf" d="M 283.5,237.5 C 283.062,237.435 282.728,237.601 282.5,238C 286.308,241.359 285.974,241.859 281.5,239.5C 281.167,239.833 280.833,240.167 280.5,240.5C 281.77,241.288 282.77,242.288 283.5,243.5C 282.153,242.829 280.986,242.829 280,243.5C 279.667,242.167 279.333,240.833 279,239.5C 277.817,238.269 276.651,238.269 275.5,239.5C 276.167,240.167 276.833,240.833 277.5,241.5C 273.649,242.345 271.649,244.678 271.5,248.5C 274.388,247.99 276.721,248.656 278.5,250.5C 275.533,248.734 273.533,249.401 272.5,252.5C 270.308,249.164 268.308,249.831 266.5,254.5C 265.009,255.244 263.509,255.91 262,256.5C 259.598,259.714 260.098,262.214 263.5,264C 261.887,266.228 261.22,268.728 261.5,271.5C 259.871,270.375 258.371,269.041 257,267.5C 256.333,268.167 256.333,268.833 257,269.5C 258.376,270.705 259.542,272.038 260.5,273.5C 256.893,272.658 254.893,270.325 254.5,266.5C 253.129,268.546 251.462,270.379 249.5,272C 250.849,273.538 251.516,275.371 251.5,277.5C 250.416,276.026 249.082,275.193 247.5,275C 246.643,275.689 245.977,276.522 245.5,277.5C 246.63,278.622 247.297,279.956 247.5,281.5C 242.325,277.61 242.658,274.61 248.5,272.5C 247.833,272.167 247.167,271.833 246.5,271.5C 241.694,274.761 237.028,278.261 232.5,282C 229.255,282.962 226.255,284.462 223.5,286.5C 221.257,287.474 218.924,287.808 216.5,287.5C 216.366,289.292 216.699,290.958 217.5,292.5C 215.186,293.179 214.853,294.512 216.5,296.5C 216.167,296.833 215.833,297.167 215.5,297.5C 213.678,293.898 212.678,293.898 212.5,297.5C 211.265,297.721 210.265,298.388 209.5,299.5C 208.437,297.565 207.103,295.899 205.5,294.5C 207.044,293.378 208.377,293.711 209.5,295.5C 210.429,294.311 210.762,292.978 210.5,291.5C 209.167,291.5 207.833,291.5 206.5,291.5C 207.609,290.71 208.942,290.21 210.5,290C 211.252,289.329 211.586,288.496 211.5,287.5C 212.545,286.205 213.545,284.872 214.5,283.5C 215.478,283.977 216.311,284.643 217,285.5C 217.249,284.376 217.749,283.376 218.5,282.5C 219.696,282.846 219.696,283.346 218.5,284C 220.259,284.798 221.926,284.631 223.5,283.5C 231.236,278.398 238.903,273.231 246.5,268C 252.17,261.321 258.337,255.488 265,250.5C 268.107,246.582 270.94,242.582 273.5,238.5C 274.452,236.955 274.785,235.288 274.5,233.5C 275.5,233.5 276.5,233.5 277.5,233.5C 277.343,232.127 277.51,230.793 278,229.5C 279.803,228.687 281.303,227.52 282.5,226C 282.095,225.055 281.428,224.388 280.5,224C 283.371,221.086 285.704,217.752 287.5,214C 288.908,213.685 290.241,214.018 291.5,215C 288.704,217.158 287.371,219.991 287.5,223.5C 285.058,223.119 284.391,223.786 285.5,225.5C 283.056,228.054 281.389,231.054 280.5,234.5C 281.77,235.288 282.77,236.288 283.5,237.5 Z"/></g>
<g><path style="opacity:1" fill="#9eacea" d="M 58.5,264.5 C 60.903,264.695 62.5696,265.862 63.5,268C 62.0863,269.844 60.253,271.344 58,272.5C 54.7012,270.873 54.8678,269.373 58.5,268C 57.3157,266.855 57.3157,265.688 58.5,264.5 Z"/></g>
<g><path style="opacity:1" fill="#96a7f6" d="M 72.5,273.5 C 72.4802,275.143 73.1468,276.476 74.5,277.5C 73.4756,278.852 72.4756,280.185 71.5,281.5C 69.4935,282.679 69.1602,282.179 70.5,280C 69.6919,279.692 69.0253,279.192 68.5,278.5C 69.6319,276.511 70.9652,274.844 72.5,273.5 Z"/></g>
<g><path style="opacity:1" fill="#1a3bab" d="M 44.5,264.5 C 49.2873,265.281 52.6206,267.948 54.5,272.5C 56.0453,273.452 57.712,273.785 59.5,273.5C 59.5,274.833 59.5,276.167 59.5,277.5C 61.1238,277.64 62.2904,276.973 63,275.5C 63.49,276.793 63.6567,278.127 63.5,279.5C 64.5,279.5 65.5,279.5 66.5,279.5C 66.238,280.978 66.5713,282.311 67.5,283.5C 70.3949,284.668 72.3949,286.668 73.5,289.5C 69.402,287.251 65.402,284.751 61.5,282C 57.6558,278.257 53.6558,274.757 49.5,271.5C 47.4202,269.427 45.7536,267.093 44.5,264.5 Z"/></g>
<g><path style="opacity:1" fill="#0d39cd" d="M 260.5,273.5 C 260.611,274.117 260.944,274.617 261.5,275C 259.677,276.658 258.01,278.491 256.5,280.5C 255.5,281.833 254.5,281.833 253.5,280.5C 251.831,284.746 248.831,287.246 244.5,288C 241.171,290.501 238.171,293.334 235.5,296.5C 231.734,297.691 228.067,299.191 224.5,301C 220.547,302.148 216.547,302.982 212.5,303.5C 210.956,303.703 209.622,304.37 208.5,305.5C 207.396,304.369 207.729,303.535 209.5,303C 208.23,302.1 207.23,300.934 206.5,299.5C 205.269,300.651 205.269,301.817 206.5,303C 205.906,303.464 205.239,303.631 204.5,303.5C 204.978,300.722 203.978,298.722 201.5,297.5C 197.378,300.467 197.711,302.8 202.5,304.5C 203.239,304.369 203.906,304.536 204.5,305C 200.057,305.872 195.724,307.038 191.5,308.5C 191.5,307.5 191.5,306.5 191.5,305.5C 186.222,304.395 186.388,303.395 192,302.5C 192.315,300.414 192.815,298.414 193.5,296.5C 194.46,295.485 195.627,295.485 197,296.5C 198.169,295.991 199.002,295.158 199.5,294C 202.031,293.552 204.364,292.719 206.5,291.5C 207.833,291.5 209.167,291.5 210.5,291.5C 210.762,292.978 210.429,294.311 209.5,295.5C 208.377,293.711 207.044,293.378 205.5,294.5C 207.103,295.899 208.437,297.565 209.5,299.5C 210.265,298.388 211.265,297.721 212.5,297.5C 213.482,298.141 214.482,298.807 215.5,299.5C 216.833,299.167 218.167,298.833 219.5,298.5C 217.914,296.827 217.247,294.827 217.5,292.5C 216.699,290.958 216.366,289.292 216.5,287.5C 218.924,287.808 221.257,287.474 223.5,286.5C 226.255,284.462 229.255,282.962 232.5,282C 237.028,278.261 241.694,274.761 246.5,271.5C 247.167,271.833 247.833,272.167 248.5,272.5C 242.658,274.61 242.325,277.61 247.5,281.5C 249.833,281.167 251.167,279.833 251.5,277.5C 251.516,275.371 250.849,273.538 249.5,272C 251.462,270.379 253.129,268.546 254.5,266.5C 254.893,270.325 256.893,272.658 260.5,273.5 Z"/></g>
<g><path style="opacity:1" fill="#97a8ee" d="M 251.5,277.5 C 251.167,279.833 249.833,281.167 247.5,281.5C 247.297,279.956 246.63,278.622 245.5,277.5C 245.977,276.522 246.643,275.689 247.5,275C 249.082,275.193 250.416,276.026 251.5,277.5 Z"/></g>
<g><path style="opacity:1" fill="#d2d8e7" d="M 49.5,271.5 C 53.6558,274.757 57.6558,278.257 61.5,282C 65.402,284.751 69.402,287.251 73.5,289.5C 73.8333,290.167 74.1667,290.833 74.5,291.5C 72.1944,291.007 69.861,290.674 67.5,290.5C 67.5,289.5 67.5,288.5 67.5,287.5C 65.7988,287.034 64.2988,287.034 63,287.5C 62.51,286.207 62.3433,284.873 62.5,283.5C 61.1266,283.657 59.7932,283.49 58.5,283C 56.3333,279.5 53.5,276.667 50,274.5C 49.5172,273.552 49.3505,272.552 49.5,271.5 Z"/></g>
<g><path style="opacity:1" fill="#b6c1dc" d="M 272.5,269.5 C 268.879,273.795 265.212,278.128 261.5,282.5C 259.827,284.086 257.827,284.753 255.5,284.5C 261.354,279.735 267.021,274.735 272.5,269.5 Z"/></g>
<g><path style="opacity:1" fill="#9cb1f2" d="M 82.5,281.5 C 83.4959,281.414 84.3292,281.748 85,282.5C 86.5819,287.402 85.0819,289.069 80.5,287.5C 80.3894,285.352 81.056,285.019 82.5,286.5C 85.2388,284.769 84.9055,283.603 81.5,283C 82.056,282.617 82.3893,282.117 82.5,281.5 Z"/></g>
<g><path style="opacity:1" fill="#a0afd5" d="M 253.5,286.5 C 250.621,290.041 246.954,292.374 242.5,293.5C 242.953,292.542 243.619,291.708 244.5,291C 247.522,289.489 250.522,287.989 253.5,286.5 Z"/></g>
<g><path style="opacity:1" fill="#aec4fc" d="M 97.5,288.5 C 99.5936,292.799 98.2602,294.799 93.5,294.5C 93.5,293.167 93.5,291.833 93.5,290.5C 94.287,288.896 95.6203,288.229 97.5,288.5 Z"/></g>
<g><path style="opacity:1" fill="#203da6" d="M 301.5,226.5 C 299.007,233.477 295.84,240.144 292,246.5C 285.606,254.383 279.106,262.05 272.5,269.5C 267.021,274.735 261.354,279.735 255.5,284.5C 254.5,284.833 253.833,285.5 253.5,286.5C 250.522,287.989 247.522,289.489 244.5,291C 243.619,291.708 242.953,292.542 242.5,293.5C 240.02,294.242 237.687,295.242 235.5,296.5C 238.171,293.334 241.171,290.501 244.5,288C 248.831,287.246 251.831,284.746 253.5,280.5C 254.5,281.833 255.5,281.833 256.5,280.5C 258.01,278.491 259.677,276.658 261.5,275C 260.944,274.617 260.611,274.117 260.5,273.5C 259.542,272.038 258.376,270.705 257,269.5C 256.333,268.833 256.333,268.167 257,267.5C 258.371,269.041 259.871,270.375 261.5,271.5C 262.75,271.577 263.583,272.244 264,273.5C 265.067,272.809 266.234,272.309 267.5,272C 270.011,268.779 272.844,265.946 276,263.5C 276.794,259.046 279.294,256.213 283.5,255C 283.167,254.667 282.833,254.333 282.5,254C 287.412,248.037 292.078,241.87 296.5,235.5C 295.128,233.38 295.795,232.38 298.5,232.5C 298.025,229.687 299.025,227.687 301.5,226.5 Z"/></g>
<g><path style="opacity:1" fill="#283dad" d="M 95.5,290.5 C 98.0118,291.216 98.0118,292.216 95.5,293.5C 94.4376,292.575 94.4376,291.575 95.5,290.5 Z"/></g>
<g><path style="opacity:1" fill="#b4c6fe" d="M 225.5,289.5 C 226.189,288.226 227.023,288.226 228,289.5C 229.187,291.044 229.52,292.711 229,294.5C 227.811,292.767 226.644,291.1 225.5,289.5 Z"/></g>
<g><path style="opacity:1" fill="#a7bcfa" d="M 108.5,295.5 C 110.112,294.445 111.445,294.945 112.5,297C 111.804,298.893 110.97,300.726 110,302.5C 109.349,300.765 109.515,299.098 110.5,297.5C 110.145,296.478 109.478,295.811 108.5,295.5 Z"/></g>
<g><path style="opacity:1" fill="#a4b6fb" d="M 217.5,292.5 C 217.247,294.827 217.914,296.827 219.5,298.5C 218.167,298.833 216.833,299.167 215.5,299.5C 214.482,298.807 213.482,298.141 212.5,297.5C 212.678,293.898 213.678,293.898 215.5,297.5C 215.833,297.167 216.167,296.833 216.5,296.5C 214.853,294.512 215.186,293.179 217.5,292.5 Z"/></g>
<g><path style="opacity:1" fill="#d2d7e4" d="M 74.5,291.5 C 75.1667,291.5 75.8333,291.5 76.5,291.5C 79.9324,293.752 83.2658,296.252 86.5,299C 90.6209,300.229 94.6209,301.729 98.5,303.5C 102.576,305.612 106.909,307.279 111.5,308.5C 111.5,308.833 111.5,309.167 111.5,309.5C 107.66,308.249 104.16,308.249 101,309.5C 99.647,308.315 98.4803,306.981 97.5,305.5C 90.2047,302.273 83.2047,298.607 76.5,294.5C 75.8075,293.482 75.1408,292.482 74.5,291.5 Z"/></g>
<g><path style="opacity:1" fill="#2b45a0" d="M 76.5,291.5 C 79.2108,291.185 81.5441,291.852 83.5,293.5C 84.3382,293.842 84.6716,294.508 84.5,295.5C 87.5578,297.257 90.8912,298.59 94.5,299.5C 96.2004,300.61 97.5337,301.943 98.5,303.5C 94.6209,301.729 90.6209,300.229 86.5,299C 83.2658,296.252 79.9324,293.752 76.5,291.5 Z"/></g>
<g><path style="opacity:1" fill="#94a6eb" d="M 204.5,303.5 C 203.508,303.328 202.842,303.662 202.5,304.5C 197.711,302.8 197.378,300.467 201.5,297.5C 203.978,298.722 204.978,300.722 204.5,303.5 Z"/></g>
<g><path style="opacity:1" fill="#20419f" d="M 235.5,296.5 C 235.047,297.458 234.381,298.292 233.5,299C 230.401,299.387 227.734,300.554 225.5,302.5C 221.51,303.826 217.51,305.16 213.5,306.5C 213.443,305.391 213.11,304.391 212.5,303.5C 216.547,302.982 220.547,302.148 224.5,301C 228.067,299.191 231.734,297.691 235.5,296.5 Z"/></g>
<g><path style="opacity:1" fill="#9babee" d="M 147.5,309.5 C 144.914,308.513 143.581,306.513 143.5,303.5C 145.086,302.587 146.586,302.587 148,303.5C 148.064,305.46 147.898,307.46 147.5,309.5 Z"/></g>
<g><path style="opacity:1" fill="#a5b9fa" d="M 173.5,303.5 C 178.213,303.468 179.713,305.801 178,310.5C 173.67,309.714 172.17,307.38 173.5,303.5 Z"/></g>
<g><path style="opacity:1" fill="#0e1b83" d="M 174.5,304.5 C 176.465,304.948 176.798,305.948 175.5,307.5C 174.614,306.675 174.281,305.675 174.5,304.5 Z"/></g>
<g><path style="opacity:1" fill="#aec3fe" d="M 132.5,308.5 C 132.5,307.5 132.5,306.5 132.5,305.5C 133.29,304.391 133.79,303.058 134,301.5C 134.167,302.667 134.333,303.833 134.5,305C 134.392,306.681 133.725,307.848 132.5,308.5 Z"/></g>
<g><path style="opacity:1" fill="#9dafef" d="M 159.5,303.5 C 163.264,304.385 164.264,306.552 162.5,310C 161.216,310.684 160.049,310.517 159,309.5C 158.322,307.402 158.489,305.402 159.5,303.5 Z"/></g>
<g><path style="opacity:1" fill="#21409e" d="M 98.5,303.5 C 109.155,305.997 119.822,308.497 130.5,311C 139.701,313.12 149.034,314.286 158.5,314.5C 170.53,314.13 182.53,313.297 194.5,312C 196.291,311.585 197.624,310.585 198.5,309C 202.848,308.535 207.181,308.035 211.5,307.5C 204.538,310.481 197.205,312.481 189.5,313.5C 163.059,317.534 137.059,315.868 111.5,308.5C 106.909,307.279 102.576,305.612 98.5,303.5 Z"/></g>
<g><path style="opacity:1" fill="#7b8ebc" d="M 111.5,309.5 C 111.5,309.167 111.5,308.833 111.5,308.5C 137.059,315.868 163.059,317.534 189.5,313.5C 186.742,314.761 183.742,315.594 180.5,316C 164.808,316.771 149.142,316.604 133.5,315.5C 126.1,314.144 118.767,312.144 111.5,309.5 Z"/></g>
<g><path style="opacity:1" fill="#e9ebee" d="M 225.5,302.5 C 224.06,304.388 222.394,306.055 220.5,307.5C 215.491,309.174 210.491,311.007 205.5,313C 194.097,315.5 182.763,317.667 171.5,319.5C 156.833,319.5 142.167,319.5 127.5,319.5C 128.952,318.698 130.618,318.198 132.5,318C 133.252,317.329 133.586,316.496 133.5,315.5C 149.142,316.604 164.808,316.771 180.5,316C 183.742,315.594 186.742,314.761 189.5,313.5C 197.205,312.481 204.538,310.481 211.5,307.5C 211.842,306.662 212.508,306.328 213.5,306.5C 217.51,305.16 221.51,303.826 225.5,302.5 Z"/></g>
</svg>
