<svg xmlns="http://www.w3.org/2000/svg" width="256" height="256" viewBox="0 0 256 256" version="1.1">
	<path fill-opacity="0.412" d="M 106.500 1.588 C 59.178 9.917, 19.988 44.141, 5.692 89.619 C -1.862 113.654, -1.862 142.346, 5.692 166.381 C 18.101 205.857, 50.143 237.899, 89.619 250.308 C 113.654 257.862, 142.346 257.862, 166.381 250.308 C 211.436 236.145, 246.846 195.843, 254.072 150.500 C 254.773 146.100, 255.719 142.072, 256.174 141.550 C 257.230 140.335, 257.266 112.718, 256.210 113.370 C 255.775 113.639, 254.848 110.229, 254.150 105.792 C 247 60.352, 211.512 19.879, 166.381 5.692 C 148.689 0.131, 124.279 -1.542, 106.500 1.588 M 121.079 71.583 C 121.127 72.748, 121.364 72.985, 121.683 72.188 C 121.972 71.466, 121.936 70.603, 121.604 70.271 C 121.272 69.939, 121.036 70.529, 121.079 71.583 M 89.117 83.026 C 89.364 94.098, 90.728 95.764, 92.610 87.291 C 93.226 84.516, 94.057 81.717, 94.455 81.072 C 95.466 79.436, 92.233 73, 90.400 73 C 89.144 73, 88.931 74.663, 89.117 83.026 M 174.500 82.207 C 177.800 85.290, 180.662 87.655, 180.859 87.463 C 181.802 86.549, 176.736 81.221, 172.855 79.045 L 168.500 76.604 174.500 82.207 M 0.397 128 C 0.397 135.975, 0.553 139.238, 0.743 135.250 C 0.932 131.262, 0.932 124.737, 0.743 120.750 C 0.553 116.763, 0.397 120.025, 0.397 128 M 93.754 130.750 C 91.406 133.392, 89.995 139.750, 90.149 147 L 90.287 153.500 91.002 145.329 C 91.457 140.119, 92.486 135.680, 93.842 133.079 C 96.162 128.627, 96.141 128.065, 93.754 130.750 M 90.140 180.500 C 90.066 187.930, 90.345 191.013, 91 190 C 92.149 188.222, 92.174 180.312, 91.051 174 C 90.409 170.390, 90.229 171.675, 90.140 180.500" stroke="none" fill="black" fill-rule="evenodd"/>
	<path fill-opacity="0.160" d="M 114 0.623 C 84.662 4.358, 59.686 16.391, 38.692 36.904 C 20.017 55.153, 7.996 77.046, 2.401 103 C -0.161 114.885, -0.161 141.115, 2.401 153 C 13.422 204.125, 51.875 242.578, 103 253.599 C 114.885 256.161, 141.115 256.161, 153 253.599 C 178.936 248.008, 199.276 236.914, 218.095 218.095 C 232.809 203.381, 241.795 189.443, 248.458 171 C 251.685 162.070, 254.948 147.959, 254.978 142.809 C 254.990 140.779, 255.450 138.840, 256 138.500 C 256.569 138.149, 257 133.137, 257 126.882 C 257 119.803, 256.644 116.102, 256 116.500 C 255.401 116.870, 254.991 115.589, 254.978 113.309 C 254.949 108.055, 251.714 94.011, 248.458 85 C 242.059 67.286, 233.074 53.103, 219.171 38.767 C 201.503 20.550, 180.194 8.638, 155 2.894 C 146.652 0.991, 121.887 -0.381, 114 0.623 M 118 68.500 L 118 73 103.500 73 L 89 73 88.999 83.250 L 88.999 93.500 103.546 93.155 L 118.093 92.810 117.796 109.822 C 117.561 123.345, 117.756 126.621, 118.750 125.795 C 119.438 125.223, 120.045 124.023, 120.100 123.128 C 120.155 122.229, 120.503 122.586, 120.877 123.926 C 121.250 125.260, 122.117 126.464, 122.803 126.601 C 123.489 126.738, 123.589 126.621, 123.025 126.342 C 122.389 126.026, 122 119.805, 122 109.966 C 122 95.932, 122.202 93.975, 123.750 93.022 C 125.280 92.080, 125.185 91.961, 123 92.083 C 121.625 92.159, 118.402 92.172, 115.837 92.111 L 111.175 92 114.069 86.750 C 115.661 83.862, 116.972 80.745, 116.982 79.821 C 117.008 77.364, 119.675 75.102, 121.870 75.676 C 122.917 75.950, 124.047 75.734, 124.379 75.195 C 124.712 74.657, 127.201 74.410, 129.909 74.647 C 132.718 74.893, 135.109 74.632, 135.476 74.039 C 135.829 73.468, 135.442 73, 134.617 73 C 133.565 73, 133.023 71.726, 132.807 68.750 C 132.556 65.269, 132.138 64.500, 130.500 64.500 C 129.054 64.500, 128.478 65.193, 128.421 67 C 128.235 72.901, 128.102 73.145, 125.250 72.816 C 122.789 72.533, 122.468 72.053, 122.193 68.250 C 121.944 64.814, 121.513 64, 119.943 64 C 118.307 64, 118 64.711, 118 68.500 M 163.777 76.557 C 165.358 77.664, 166 79.130, 166 81.634 C 166 84.220, 166.804 85.958, 169.032 88.186 C 171.771 90.925, 172.482 91.155, 176.402 90.567 L 180.740 89.916 182.888 94.486 C 187.038 103.315, 186.568 116.873, 181.778 126.500 C 179.395 131.291, 173.586 137.595, 169.657 139.656 C 168.093 140.476, 167.057 141.391, 167.354 141.688 C 168.256 142.589, 174.590 138.196, 178.283 134.109 C 183.893 127.899, 186.317 120.252, 186.401 108.500 C 186.487 96.515, 184.482 89.646, 179.188 83.786 C 175.329 79.515, 167.427 75, 163.811 75 L 161.555 75 163.777 76.557 M 127.676 93.250 C 128.769 94.972, 128.713 94.253, 129.073 111.250 L 129.395 126.500 130 115.500 L 130.605 104.500 130.802 114.628 C 130.960 122.689, 131.339 125.035, 132.664 126.128 C 134.185 127.382, 134.216 127.290, 133.024 125.055 C 131.211 121.653, 132.174 94.138, 134.151 92.886 C 135.191 92.227, 135.092 92.027, 133.719 92.015 C 132.739 92.007, 131.659 92.724, 131.320 93.609 C 130.752 95.089, 130.629 95.089, 129.801 93.609 C 129.306 92.724, 128.446 92, 127.891 92 C 127.327 92, 127.232 92.551, 127.676 93.250 M 163.050 98.216 C 168.861 104.578, 169.321 111.857, 164.390 119.390 C 161.922 123.159, 161.889 123.334, 163.988 121.500 C 170.690 115.642, 170.494 101.261, 163.647 96.465 C 160.190 94.044, 159.932 94.802, 163.050 98.216 M 0.378 128 C 0.378 134.325, 0.541 136.912, 0.739 133.750 C 0.937 130.587, 0.937 125.412, 0.739 122.250 C 0.541 119.087, 0.378 121.675, 0.378 128 M 95.881 128.503 C 90.398 131.483, 89.811 134.724, 89.366 164.475 L 88.958 191.668 94.729 191.210 C 97.903 190.958, 100.678 190.593, 100.895 190.398 C 101.112 190.203, 101.505 187.805, 101.767 185.068 C 102.199 180.572, 101.964 179.822, 99.334 177.296 C 97.733 175.758, 95.540 173.999, 94.461 173.387 C 92.635 172.351, 92.511 171.221, 92.664 157.004 C 92.868 137.928, 93.276 135.807, 97.673 130.940 C 101.312 126.912, 100.598 125.940, 95.881 128.503 M 108.015 146.972 C 106.637 149.547, 107.088 190.198, 108.500 190.667 C 109.146 190.881, 109.500 183.438, 109.500 169.652 C 109.500 153.029, 109.804 147.940, 110.872 146.653 C 112.051 145.233, 112.021 145, 110.658 145 C 109.785 145, 108.595 145.888, 108.015 146.972 M 118.079 147.583 C 118.127 148.748, 118.364 148.985, 118.683 148.188 C 118.972 147.466, 118.936 146.603, 118.604 146.271 C 118.272 145.939, 118.036 146.529, 118.079 147.583 M 121.079 147.583 C 121.127 148.748, 121.364 148.985, 121.683 148.188 C 121.972 147.466, 121.936 146.603, 121.604 146.271 C 121.272 145.939, 121.036 146.529, 121.079 147.583" stroke="none" fill="black" fill-rule="evenodd"/>
	<path fill-opacity="0.333" d="M 112.500 1.067 C 57.443 8.574, 14.376 48.235, 2.896 102 C -0.273 116.842, -0.273 139.158, 2.896 154 C 13.576 204.018, 51.998 242.420, 102.066 253.116 C 116.810 256.266, 139.190 256.266, 153.934 253.116 C 196.438 244.036, 231.261 214.643, 246.892 174.654 C 250.892 164.423, 255 147.194, 255 140.652 C 255 138.708, 255.450 136.840, 256 136.500 C 256.550 136.160, 257 131.832, 257 126.882 C 257 121.137, 256.638 118.105, 256 118.500 C 255.407 118.866, 255 117.714, 255 115.669 C 255 113.773, 254.310 108.582, 253.466 104.133 C 243.730 52.809, 203.301 12.416, 151.727 2.484 C 141.493 0.513, 121.783 -0.199, 112.500 1.067 M 119.250 63.718 C 118.498 63.988, 118 65.986, 118 68.732 L 118 73.297 106.355 72.724 C 98.903 72.357, 94.442 71.716, 93.965 70.943 C 92.747 68.973, 86.358 70.730, 84.043 73.672 C 81.090 77.427, 81.305 83.396, 84.508 86.599 C 85.888 87.979, 87.463 88.832, 88.008 88.495 C 88.581 88.141, 89 89.174, 89 90.941 L 89 94 103.500 94 L 118 94 118 109.884 L 118 125.767 108.162 126.163 C 97.174 126.604, 94.232 127.840, 91.271 133.259 C 89.772 136.002, 89.450 139.691, 89.177 157.264 C 89 168.684, 88.501 177.810, 88.069 177.543 C 87.637 177.276, 86.482 178.548, 85.501 180.369 C 82.921 185.158, 84.098 190.479, 88.304 193.044 C 92.138 195.382, 95.319 195.539, 97.367 193.491 C 98.274 192.583, 101.094 191.885, 104.437 191.741 L 109.999 191.500 110 169.229 L 110 146.957 112.436 145.847 C 116.417 144.033, 118 145.348, 118 150.469 C 118 154.333, 118.294 155, 120 155 C 121.619 155, 122 154.333, 122 151.500 C 122 149.373, 122.759 147.241, 123.935 146.065 C 125.848 144.152, 125.837 144.123, 122.937 143.486 L 120.004 142.842 125.186 135.421 C 128.769 130.288, 131.004 127.995, 132.434 127.985 C 133.570 127.976, 135.175 127.533, 136 127 C 137.213 126.216, 137.069 126.028, 135.250 126.015 C 133.011 126, 133 125.919, 133 110.061 L 133 94.123 137.479 93.451 C 145.536 92.243, 156.591 93.304, 159.637 95.579 C 164.012 98.845, 166.182 102.437, 166.733 107.326 C 167.439 113.588, 166.543 116.393, 162.358 121.025 C 158.119 125.717, 159.436 126.312, 164.404 121.950 C 168.954 117.955, 170.413 113.339, 169.609 105.485 L 168.970 99.250 174.235 98.686 C 177.131 98.376, 180.369 97.982, 181.431 97.811 C 183.848 97.422, 184.765 100.283, 184.900 108.645 C 185.126 122.547, 178.357 134.260, 166.325 140.787 C 159.693 144.385, 161.577 145.148, 168.761 141.774 C 174.800 138.937, 180.931 132.814, 183.758 126.795 C 188.567 116.557, 188.685 100.858, 184.032 90.340 C 182.484 86.839, 182.410 86.056, 183.589 85.604 C 187.332 84.168, 183.662 75.704, 178.566 74.022 C 174.743 72.760, 170.358 74.151, 171.636 76.220 C 172.111 76.989, 171.728 77.089, 170.414 76.540 C 164.894 74.235, 156.293 73.030, 145.250 73.016 L 133 73 133 68.607 C 133 65.797, 132.503 64.023, 131.622 63.685 C 129.452 62.853, 128 65.064, 128 69.200 C 128 72.587, 127.728 73, 125.500 73 C 123.263 73, 123 72.592, 123 69.122 C 123 65.142, 121.461 62.923, 119.250 63.718 M 122.666 107.750 C 121.918 123.782, 122.277 126, 125.617 126 L 128 126 128 110 L 128 94 125.654 94 C 123.338 94, 123.300 94.173, 122.666 107.750 M 0.360 128 C 0.360 133.225, 0.529 135.363, 0.735 132.750 C 0.941 130.137, 0.941 125.862, 0.735 123.250 C 0.529 120.638, 0.360 122.775, 0.360 128 M 127.787 148.250 C 128.274 154.337, 128.998 156.027, 130.037 153.500 C 130.737 151.798, 130.870 151.761, 130.930 153.250 C 131.083 157.078, 133 154.718, 133 150.700 C 133 148.335, 133.540 145.860, 134.200 145.200 C 135.133 144.267, 135.001 144, 133.606 144 C 132.605 144, 131.561 144.962, 131.244 146.176 L 130.675 148.353 129.869 146.176 C 128.544 142.593, 127.424 143.709, 127.787 148.250" stroke="none" fill="black" fill-rule="evenodd"/>
	<path fill-opacity="0.464" d="M 115.500 1.048 C 98.249 2.950, 84.723 7.035, 69 15.092 C 6.904 46.912, -17.352 124.092, 15.008 186.889 C 46.838 248.658, 123.238 273.160, 185.696 241.630 C 215.464 226.602, 238.272 200.182, 248.925 168.385 C 252.165 158.713, 255 144.267, 255 137.428 C 255 135.058, 255.450 132.840, 256 132.500 C 256.550 132.160, 257 129.632, 257 126.882 C 257 123.803, 256.616 122.119, 256 122.500 C 255.391 122.876, 255 121.387, 255 118.690 C 255 111.790, 252.194 97.374, 248.989 87.808 C 236.215 49.680, 206.392 19.809, 168.385 7.075 C 152.402 1.721, 131.259 -0.689, 115.500 1.048 M 87.500 62.919 C 76.325 65.652, 70.956 77.080, 75.975 87.449 C 79.711 95.165, 87.472 98.395, 97.125 96.250 C 100.248 95.556, 100.051 95.456, 94.500 94.918 C 90.445 94.525, 93.253 94.282, 103.158 94.168 L 117.816 94 117.947 109.349 L 118.078 124.699 108.987 125.288 C 99.085 125.929, 95.201 127.501, 91.605 132.320 C 89.680 134.900, 89.467 136.736, 89.108 153.820 C 88.892 164.094, 88.439 171.447, 88.100 170.160 C 87.496 167.861, 87.404 167.892, 82.763 171.977 C 79.472 174.874, 77.707 177.374, 76.939 180.226 C 73.928 191.408, 81.897 202, 93.321 202 C 99.305 202, 102.298 200.768, 106.482 196.585 C 109.798 193.269, 109.847 193.114, 107.718 192.702 C 105.672 192.306, 105.694 192.262, 108 192.137 L 110.500 192.002 110.175 171.369 C 109.996 160.021, 110.117 149.670, 110.444 148.368 C 110.926 146.445, 111.692 146, 114.519 146 C 117.971 146, 118 146.037, 118 150.441 C 118 152.884, 118.470 155.172, 119.044 155.527 C 120.968 156.716, 123 153.814, 123 149.878 C 123 146.408, 123.263 146, 125.500 146 C 127.787 146, 128 146.374, 128 150.393 C 128 154.720, 129.126 156.185, 131.750 155.269 C 132.496 155.009, 133 153.051, 133 150.417 L 133 146 142.750 145.992 C 160.938 145.978, 169.139 143.600, 177.464 135.926 C 186.241 127.836, 190.354 110.584, 186.757 96.945 L 185.291 91.389 188.015 91.789 C 190.337 92.130, 190.905 91.710, 191.869 88.945 C 194.120 82.490, 192.866 76.607, 188.186 71.661 C 184.340 67.595, 180.760 66, 175.484 66 C 170.524 66, 167.831 67.037, 164.201 70.345 C 162.069 72.288, 162.033 72.495, 163.701 73.196 C 164.796 73.657, 164.131 73.781, 162 73.513 C 160.075 73.271, 152.786 72.788, 145.803 72.439 L 133.105 71.805 132.803 67.652 C 132.556 64.268, 132.130 63.500, 130.500 63.500 C 128.833 63.500, 128.450 64.266, 128.201 68.102 C 127.925 72.360, 127.723 72.670, 125.504 72.245 C 123.497 71.862, 123.055 71.110, 122.802 67.643 C 122.556 64.267, 122.130 63.500, 120.500 63.500 C 118.862 63.500, 118.444 64.269, 118.193 67.750 L 117.885 72 110.693 71.985 C 106.737 71.976, 104.063 71.612, 104.751 71.175 C 105.699 70.573, 105.509 69.850, 103.972 68.201 C 99.899 63.829, 92.924 61.592, 87.500 62.919 M 123 109.500 L 123 125 125.500 125 L 128 125 128 109.500 L 128 94 125.500 94 L 123 94 123 109.500 M 133 109.383 C 133 127.278, 132.007 125.963, 145.538 125.986 C 156.099 126.004, 161.496 123.491, 164.750 117.038 C 165.988 114.584, 167 111.192, 167 109.500 C 167 107.808, 165.988 104.416, 164.750 101.962 C 161.404 95.326, 157.997 94.003, 144.250 94.002 L 133 94 133 109.383 M 0.300 128 C 0.300 131.025, 0.487 132.262, 0.716 130.750 C 0.945 129.238, 0.945 126.763, 0.716 125.250 C 0.487 123.737, 0.300 124.975, 0.300 128" stroke="none" fill="black" fill-rule="evenodd"/>
</svg>