<?xml version="1.0"?><svg viewBox="0 0 36 36" width="36" height="36" xmlns="http://www.w3.org/2000/svg"><path class="st0" d="m18.1 35c9.7 0 17.5-7.5 17.5-16.8 0-9.3-7.8-16.8-17.5-16.8-9.7 0-17.5 7.5-17.5 16.8 0 9.3 7.8 16.8 17.5 16.8z" fill="#FF060A"></path><path class="st1" d="m28 15.2c-1-0.9-2.3-2.2-3.4-3.1l-0.1-0.1c-0.1 0-0.2-0.1-0.3-0.2-2.7-0.4-14.9-2.6-15.2-2.6 0 0-0.1 0-0.2 0.1l0 0c-0.1 0.1-0.2 0.2-0.2 0.3l0 0v0.3c1.4 3.7 6.8 15.7 7.9 18.5 0.1 0.2 0.2 0.6 0.4 0.6h0.1c0.1 0 0.6-0.6 0.6-0.6s9.4-10.9 10.3-12.1c0.1-0.1 0.2-0.3 0.3-0.4 0.1-0.2 0.1-0.3 0-0.4 0-0.1-0.1-0.2-0.2-0.3z m-8 1.2l4-3.1 2.3 2-6.3 1.1z m-1.5-0.2l-6.9-5.4 11.1 2-4.2 3.4z m0.6 1.5l7-1.1-8 9.3 1-8.2z m-8.5-6.3l7.3 5.9-1.1 8.6-6.2-14.5z" fill="#fff"></path></svg>