<?xml version="1.0"?><svg xmlns="http://www.w3.org/2000/svg" width="36" height="36" shape-rendering="geometricPrecision" text-rendering="geometricPrecision" image-rendering="optimizeQuality" fill-rule="evenodd" clip-rule="evenodd" viewBox="0 0 36 36"><path fill="#fefefe" d="m-0.1-0.1h36v36h-36v-36z"></path><path fill="#090808" d="m8.1 6c5.5 1.2 10.9 2.5 16.4 3.7 1.5 0.8 2.9 1.7 4.1 2.7-3.8 5.7-7.7 11.3-11.7 16.8-3.1-7.7-6-15.4-8.8-23.2z"></path><path fill="#215ff2" d="m10.3 7.7c0.1-0.1 0.2-0.2 0.3-0.2 3.9 0.9 7.9 1.8 11.8 2.6 0.5 0.1 1 0.3 1.4 0.5-1.8 2-3.7 3.9-5.7 5.8-2.5-3-5.1-5.9-7.8-8.7z"></path><path fill="#14d7d8" d="m24.8 10.5c1 0.5 1.9 1.1 2.7 1.8-2.8 1.5-5.6 2.8-8.4 4 1.9-1.9 3.8-3.9 5.7-5.8z"></path><path fill="#20df53" d="m9.5 8.1c2.7 3 5.5 6.1 8.2 9.1-0.3 3.4-0.6 6.7-1.1 10-2.4-6.4-4.8-12.7-7.1-19.1z"></path><path fill="#f02b39" d="m27.1 13.1c0.3 0.1 0.3 0.2 0 0.5-3.2 4.5-6.5 9.1-9.7 13.8 0.2-3.2 0.5-6.4 0.9-9.6 0-0.2 0.1-0.3 0.2-0.4 2.9-1.4 5.7-2.8 8.6-4.3z"></path></svg>