<svg xmlns="http://www.w3.org/2000/svg" width="256" height="256" viewBox="0 0 256 256" version="1.1">
	<path fill-opacity="0.329" d="M 58.540 45.211 C 58.924 46.470, 67.524 69.550, 77.649 96.500 C 87.775 123.450, 101.285 159.450, 107.672 176.500 C 114.059 193.550, 119.482 207.724, 119.724 207.998 C 120.232 208.574, 121.365 207.090, 133.401 190.080 C 168.479 140.507, 203.310 90.280, 203.396 89.145 C 203.453 88.400, 197.407 83.674, 189.959 78.644 L 176.418 69.497 154.459 64.660 C 136.215 60.640, 68.213 45.357, 60.170 43.469 C 58.122 42.988, 57.925 43.198, 58.540 45.211" stroke="none" fill="black" fill-rule="evenodd"/>
	<path fill-opacity="0.480" d="M 58 43.349 C 58 43.615, 67.176 68.283, 78.391 98.166 C 89.607 128.050, 101.567 159.925, 104.971 169 C 115.296 196.531, 119.167 206.467, 119.849 207.189 C 120.625 208.011, 126.793 199.472, 170.780 136.689 C 189.203 110.392, 203.877 88.521, 203.389 88.086 C 202.900 87.651, 196.792 83.394, 189.816 78.626 L 177.132 69.956 154.816 64.930 C 142.542 62.166, 116.525 56.318, 97 51.935 C 77.475 47.552, 60.712 43.718, 59.750 43.416 C 58.788 43.113, 58 43.083, 58 43.349 M 68.216 59 C 71.306 68.274, 118.884 194.660, 119.037 194 C 119.100 193.725, 120.826 177.787, 122.872 158.581 L 126.591 123.663 98.674 92.081 C 83.320 74.712, 70.073 59.825, 69.236 59 C 67.885 57.667, 67.772 57.667, 68.216 59 M 156.491 96.130 C 144.946 107.751, 135.950 117.031, 136.500 116.751 C 137.050 116.471, 139.975 115.108, 143 113.722 C 164.527 103.859, 196.186 87.807, 195.424 87.143 C 194.107 85.996, 178.123 75, 177.773 75 C 177.613 75, 168.036 84.508, 156.491 96.130" stroke="none" fill="black" fill-rule="evenodd"/>
	<path fill-opacity="0.764" d="M 58.690 43.734 C 58.443 44.155, 62.249 55.075, 67.147 68 C 72.045 80.925, 78.037 96.900, 80.462 103.500 C 82.887 110.100, 91.690 133.500, 100.024 155.500 C 108.359 177.500, 116.016 197.871, 117.041 200.769 C 118.067 203.667, 119.189 206.496, 119.535 207.057 C 120.039 207.872, 129.291 195.812, 140.016 180.361 C 140.832 179.185, 144.455 174.010, 148.066 168.861 C 190.518 108.333, 204.096 88.767, 203.824 88.518 C 203.646 88.356, 197.518 84.093, 190.206 79.047 L 176.912 69.870 152.706 64.502 C 101.015 53.038, 60.572 43.854, 59.871 43.420 C 59.468 43.171, 58.936 43.312, 58.690 43.734 M 81.175 62.330 C 85.204 66.912, 97.725 81.117, 109 93.897 L 129.500 117.133 149.874 96.362 C 167.009 78.893, 169.951 75.471, 168.374 74.842 C 166.507 74.096, 76.119 54, 74.632 54 C 74.202 54, 77.146 57.749, 81.175 62.330 M 68.118 59.750 C 68.706 61.263, 80.190 91.957, 93.638 127.961 C 107.085 163.964, 118.293 193.627, 118.544 193.877 C 118.795 194.128, 119.142 194.146, 119.315 193.917 C 119.488 193.687, 121.251 177.794, 123.233 158.597 L 126.835 123.694 115.726 111.097 C 88.335 80.039, 67.763 57, 67.421 57 C 67.217 57, 67.530 58.237, 68.118 59.750 M 156.491 96.110 C 144.946 107.721, 136.003 117.059, 136.617 116.860 C 139.857 115.816, 195.976 88.402, 195.987 87.859 C 195.999 87.285, 178.645 75, 177.821 75 C 177.635 75, 168.036 84.500, 156.491 96.110 M 163 109.057 C 146.225 117.239, 132.200 124.061, 131.834 124.217 C 131.135 124.514, 123.686 192.631, 124.202 194.006 C 124.366 194.442, 137.775 175.852, 154 152.695 C 194.049 95.533, 195.111 93.987, 194.253 94.090 C 193.839 94.139, 179.775 100.874, 163 109.057" stroke="none" fill="black" fill-rule="evenodd"/>
	<path fill-opacity="0.857" d="M 59 44.923 C 59 45.814, 108.012 176.868, 116.164 197.772 L 120.169 208.045 122.335 205.013 C 123.526 203.345, 125.850 200.088, 127.500 197.776 C 129.150 195.463, 135.085 187.030, 140.689 179.035 C 146.293 171.041, 151.746 163.375, 152.806 162 C 153.866 160.625, 158.464 154.100, 163.023 147.500 C 173.569 132.234, 176.953 127.384, 191.892 106.134 C 198.607 96.582, 203.966 88.689, 203.800 88.593 C 203.635 88.497, 201.843 87.200, 199.817 85.710 C 197.791 84.219, 195.691 83, 195.150 83 C 194.609 83, 194.017 82.618, 193.833 82.151 C 193.650 81.684, 189.603 78.718, 184.839 75.560 L 176.179 69.819 136.839 61.021 C 115.203 56.182, 89.290 50.373, 79.256 48.111 C 59.365 43.629, 59 43.572, 59 44.923 M 76.551 57.250 C 78.052 59.038, 90.552 73.237, 104.327 88.804 L 129.374 117.108 150.194 96.306 C 169.007 77.509, 170.796 75.434, 168.757 74.771 C 165.816 73.815, 76.255 54, 74.876 54 C 74.296 54, 75.050 55.462, 76.551 57.250 M 67.498 58.500 C 68.899 62.458, 80.197 92.599, 81.929 97 C 82.903 99.475, 91.530 122.537, 101.100 148.249 C 110.670 173.961, 118.748 194.999, 119.052 194.999 C 119.355 195, 120.166 189.262, 120.855 182.250 C 121.543 175.237, 123.237 159.205, 124.619 146.623 L 127.131 123.746 124.744 121.123 C 123.431 119.680, 118.860 114.450, 114.585 109.500 C 110.310 104.550, 104.919 98.475, 102.604 96 C 94.233 87.050, 88.064 79.270, 88.774 78.559 C 89.173 78.160, 89.015 77.983, 88.421 78.167 C 87.828 78.350, 85.128 76.026, 82.421 73.002 C 73.329 62.844, 66.784 56.484, 67.498 58.500 M 156.729 95.348 C 145.374 107.028, 135.730 116.937, 135.298 117.368 C 134.434 118.233, 147.104 112.281, 177.392 97.596 C 188.333 92.291, 197.108 87.811, 196.892 87.639 C 196.676 87.467, 192.197 84.354, 186.938 80.720 L 177.375 74.112 156.729 95.348 M 176.500 102.329 C 166.050 107.423, 151.544 114.459, 144.264 117.964 C 132.027 123.856, 130.992 124.569, 130.554 127.418 C 129.322 135.443, 123.902 191.264, 124.182 193.046 C 124.523 195.217, 122.930 197.399, 167.329 133.968 C 180.623 114.975, 192.543 97.987, 193.818 96.218 C 195.093 94.448, 195.993 93.015, 195.818 93.033 C 195.643 93.052, 186.950 97.235, 176.500 102.329" stroke="none" fill="black" fill-rule="evenodd"/>
</svg>