<svg xmlns="http://www.w3.org/2000/svg" width="256" height="256" viewBox="0 0 256 256" version="1.1">
	<path fill-opacity="0.290" d="M 117.636 1.105 C 106.633 2.030, 96.051 4.342, 85 8.235 C 60.303 16.934, 37.428 34.574, 23.151 55.929 C 15.420 67.494, 12.169 73.853, 8.032 85.500 C -1.617 112.664, -1.627 143.136, 8.002 170.500 C 15.045 190.515, 28.287 210.268, 43.355 223.236 C 68.032 244.476, 96.238 255.090, 128 255.090 C 189.667 255.090, 241.307 212.417, 253.099 151.715 C 254.145 146.333, 255 139.239, 255 135.951 C 255 132.663, 255.563 129.020, 256.250 127.856 C 257.250 126.162, 257.250 125.648, 256.250 125.286 C 255.464 125.001, 255 122.864, 255 119.527 C 255 107.703, 249.910 88.088, 243.003 73.296 C 231.668 49.019, 209.490 26.308, 185.171 14.075 C 165.683 4.272, 139.580 -0.741, 117.636 1.105 M 117 12.057 C 96.660 13.902, 75.312 21.846, 60 33.267 C 35.275 51.708, 18.928 77.487, 13.421 106.725 C 11.143 118.820, 11.351 139.622, 13.871 151.608 C 17.264 167.750, 25.189 185.071, 35.385 198.635 C 41.214 206.389, 53.948 218.532, 61.947 223.964 C 71.272 230.296, 87.512 237.715, 98.663 240.736 C 107.741 243.196, 110.005 243.402, 128 243.402 C 146.052 243.402, 148.243 243.201, 157.500 240.701 C 169.491 237.462, 188.859 228.110, 198.051 221.120 C 206.370 214.794, 218.442 202.185, 223.964 194.053 C 230.380 184.606, 237.751 168.391, 240.656 157.337 C 243.822 145.291, 244.943 122.879, 243.035 109.824 C 239.693 86.972, 229.341 65.944, 212.859 48.533 C 187.338 21.571, 153.604 8.735, 117 12.057 M 107.516 36.659 C 78.138 42.954, 50.847 66.160, 40.065 94.016 C 35.181 106.632, 33.652 116.544, 34.288 131.463 C 35.399 157.535, 43.944 177.188, 61.939 195.061 C 98.179 231.054, 158.555 230.543, 194.105 193.943 C 209.072 178.535, 217.075 161.520, 220.516 137.797 C 222.262 125.760, 221.560 116.089, 218.013 103.288 C 208.842 70.197, 180.337 43.500, 146.792 36.588 C 137.082 34.587, 117.017 34.624, 107.516 36.659 M 80.637 89.465 C 78.513 90.222, 75.481 92.081, 73.900 93.596 C 66.604 100.586, 70.019 109.325, 89.455 133.396 C 105.573 153.358, 106.939 156.066, 107.534 169.257 C 108.368 187.720, 112.812 196.100, 122.545 197.559 C 128.277 198.419, 135.633 197.470, 138.671 195.480 C 143.394 192.385, 144.426 189.344, 145.089 176.572 C 145.550 167.698, 146.298 162.988, 147.914 158.793 C 153.133 145.240, 166.693 129.113, 183.750 116.170 C 188.480 112.581, 191.991 109.183, 191.978 108.205 C 191.945 105.646, 188.173 97.819, 185.688 95.153 C 180.594 89.687, 169.807 86.800, 163.822 89.301 C 156.458 92.378, 146.115 106.696, 134.602 129.750 C 129.160 140.647, 127.788 142.381, 126.695 139.750 C 126.409 139.063, 122.755 130.034, 118.576 119.687 C 109.268 96.644, 107.911 93.944, 103.967 90.626 C 101.143 88.249, 100.070 88.004, 92.673 88.044 C 88.178 88.068, 82.762 88.707, 80.637 89.465 M 0.079 127.583 C 0.127 128.748, 0.364 128.985, 0.683 128.188 C 0.972 127.466, 0.936 126.603, 0.604 126.271 C 0.272 125.939, 0.036 126.529, 0.079 127.583" stroke="none" fill="black" fill-rule="evenodd"/>
	<path fill-opacity="0.056" d="M 112.500 1.608 C 98.165 3.714, 83.303 8.363, 70.500 14.744 C 58.693 20.629, 50.368 26.571, 40.110 36.434 C 21.851 53.989, 10.361 74.165, 3.909 100 C 1.816 108.380, 1.542 111.741, 1.584 128.500 C 1.630 146.533, 1.792 148.102, 4.770 159.339 C 8.335 172.790, 16.484 190.686, 23.684 200.873 C 30.187 210.075, 42.986 223.142, 52.500 230.293 C 63.571 238.613, 81.933 247.326, 96.617 251.226 C 108.015 254.254, 109.295 254.383, 128 254.383 C 146.690 254.383, 147.992 254.252, 159.339 251.238 C 172.790 247.664, 190.703 239.504, 200.873 232.316 C 210.075 225.813, 223.142 213.014, 230.293 203.500 C 238.613 192.429, 247.326 174.067, 251.226 159.383 C 254.254 147.985, 254.383 146.705, 254.383 128 C 254.383 109.310, 254.252 108.008, 251.238 96.661 C 247.664 83.210, 239.504 65.297, 232.316 55.127 C 220.984 39.092, 202.981 23.502, 186.020 15.035 C 166.526 5.305, 153.142 1.986, 131.500 1.515 C 122.700 1.323, 114.150 1.365, 112.500 1.608 M 112.500 12.137 C 78.087 16.485, 46.670 37.004, 28.067 67.284 C 5.548 103.938, 5.583 151.985, 28.155 188.825 C 65.804 250.270, 150.039 263.499, 204.192 216.473 C 247.606 178.773, 257.587 115.762, 227.845 67.167 C 203.603 27.560, 158.972 6.267, 112.500 12.137 M 112 36.145 C 102.894 37.653, 87.483 43.438, 78.770 48.620 C 67.839 55.121, 54.121 68.839, 47.620 79.770 C 39.439 93.527, 34.025 112.180, 34.008 126.678 C 33.954 170.872, 63.602 208.784, 106.206 218.998 C 110.768 220.091, 116.750 220.908, 119.500 220.813 L 124.500 220.640 119.779 220.266 L 115.058 219.893 117.529 213.327 C 120.472 205.508, 120.423 206.009, 118.250 205.965 C 117.287 205.945, 115.375 205.286, 114 204.500 C 110.806 202.674, 111.489 202.666, 116.500 204.471 C 121.317 206.207, 131.477 206.412, 137.499 204.896 C 143.744 203.323, 149.508 198.052, 151.340 192.237 C 152.161 189.632, 153.047 182.659, 153.309 176.742 C 153.737 167.075, 154.135 165.250, 157.231 158.742 C 163.174 146.251, 174.645 133.392, 190.576 121.363 C 200.987 113.501, 202.029 110.497, 198.040 99.837 C 195.222 92.304, 189.375 85.838, 182.840 83.027 C 176.672 80.373, 167.934 79.372, 162.953 80.747 L 159.405 81.727 163.795 69.613 C 166.210 62.951, 168.337 57.344, 168.522 57.154 C 168.707 56.963, 171.558 58.246, 174.857 60.004 C 197.396 72.018, 215.994 99.479, 219.891 126.500 L 220.756 132.500 220.865 126 C 221.220 104.788, 210.169 79.096, 193.537 62.463 C 172.535 41.461, 141.122 31.322, 112 36.145 M 154.407 83.893 C 151.482 85.677, 145.166 92.740, 143.581 96 C 143.180 96.825, 143.898 96.157, 145.176 94.515 C 148.382 90.397, 153.016 85.807, 156 83.793 C 159.414 81.488, 158.229 81.563, 154.407 83.893 M 80.155 89.274 C 76.133 90.560, 71.230 95.234, 70.390 98.584 C 68.740 105.158, 73.152 113.327, 89.114 133.251 C 105.521 153.729, 106.225 155.111, 107.129 168.595 C 108.297 185.985, 110.937 192.690, 118.020 196.248 C 122.686 198.593, 132.253 198.523, 137.576 196.105 C 143.395 193.462, 144.997 189.531, 145.013 177.849 C 145.029 166.862, 148.186 156.278, 154.287 146.756 C 159.298 138.935, 171.587 126.218, 182.750 117.301 C 192.878 109.210, 193.265 108.380, 190.129 101.478 C 186.460 93.402, 177.854 88, 168.656 88 C 159.872 88, 149.123 100.577, 136.730 125.355 C 133.940 130.935, 130.873 136.792, 129.916 138.370 L 128.176 141.240 126.478 137.957 C 125.544 136.151, 121.875 127.460, 118.325 118.642 C 106.118 88.322, 105.794 87.946, 92 88.106 C 87.325 88.160, 81.995 88.686, 80.155 89.274 M 133.500 112 C 132.647 113.650, 132.174 115, 132.449 115 C 132.724 115, 133.647 113.650, 134.500 112 C 135.353 110.350, 135.826 109, 135.551 109 C 135.276 109, 134.353 110.350, 133.500 112 M 124.031 110.500 C 124.031 111.050, 124.467 112.175, 125 113 C 125.533 113.825, 125.969 114.050, 125.969 113.500 C 125.969 112.950, 125.533 111.825, 125 111 C 124.467 110.175, 124.031 109.950, 124.031 110.500 M 126.631 117 C 127.806 121.808, 128.648 122.535, 130.002 119.910 C 131.030 117.916, 131.017 117.716, 129.922 118.750 C 128.850 119.764, 128.356 119.480, 127.310 117.250 C 126.107 114.686, 126.061 114.669, 126.631 117 M 96.215 158.250 C 96.922 159.488, 97.759 164.550, 98.075 169.500 L 98.649 178.500 98.825 170.200 C 98.947 164.424, 98.536 161.004, 97.474 158.950 C 96.635 157.328, 95.719 156, 95.439 156 C 95.159 156, 95.508 157.012, 96.215 158.250 M 99.158 181 C 99.158 182.375, 99.385 182.938, 99.662 182.250 C 99.940 181.563, 99.940 180.438, 99.662 179.750 C 99.385 179.063, 99.158 179.625, 99.158 181 M 100.121 185 C 100.104 185.825, 100.708 187.850, 101.464 189.500 C 103.232 193.362, 103.258 191.566, 101.500 187 C 100.759 185.075, 100.138 184.175, 100.121 185 M 103.872 194.500 C 104.412 195.600, 105.586 197.400, 106.482 198.500 L 108.110 200.500 107.128 198.500 C 106.588 197.400, 105.414 195.600, 104.518 194.500 L 102.890 192.500 103.872 194.500 M 144.813 219.683 C 145.534 219.972, 146.397 219.936, 146.729 219.604 C 147.061 219.272, 146.471 219.036, 145.417 219.079 C 144.252 219.127, 144.015 219.364, 144.813 219.683 M 137.269 220.693 C 138.242 220.947, 139.592 220.930, 140.269 220.656 C 140.946 220.382, 140.150 220.175, 138.500 220.195 C 136.850 220.215, 136.296 220.439, 137.269 220.693 M 126.269 221.693 C 127.242 221.947, 128.592 221.930, 129.269 221.656 C 129.946 221.382, 129.150 221.175, 127.500 221.195 C 125.850 221.215, 125.296 221.439, 126.269 221.693" stroke="none" fill="black" fill-rule="evenodd"/>
	<path fill-opacity="0.163" d="M 110.635 2.032 C 56.401 10.581, 15.003 49.618, 3.346 103.204 C 0.824 114.793, 0.824 141.207, 3.346 152.796 C 14.463 203.896, 52.104 241.537, 103.204 252.654 C 114.880 255.194, 141.357 255.211, 152.500 252.685 C 164.764 249.904, 172.571 247.209, 183.500 241.983 C 218.782 225.111, 243.997 192.591, 252.654 152.796 C 255.198 141.104, 255.176 114.801, 252.613 103 C 241.952 53.917, 206.724 17.291, 158.190 4.831 C 148.344 2.303, 144.134 1.773, 131.500 1.469 C 123.250 1.270, 113.861 1.524, 110.635 2.032 M 106.655 12.535 C 62.965 20.771, 25.987 55.287, 14.242 98.794 C 11.837 107.705, 11.622 110.098, 11.622 128 C 11.622 145.902, 11.837 148.295, 14.242 157.206 C 25.179 197.722, 58.278 230.821, 98.794 241.758 C 107.705 244.163, 110.098 244.378, 128 244.378 C 145.902 244.378, 148.295 244.163, 157.206 241.758 C 197.722 230.821, 230.821 197.722, 241.758 157.206 C 244.163 148.295, 244.378 145.902, 244.378 128 C 244.378 110.098, 244.163 107.705, 241.758 98.794 C 230.814 58.253, 197.384 24.853, 157.206 14.317 C 144.820 11.069, 119.219 10.167, 106.655 12.535 M 114.500 36.100 C 106.898 37.185, 92.998 41.469, 86.500 44.728 C 55.900 60.079, 36.226 89.898, 34.530 123.500 C 34.107 131.895, 34.140 132.097, 35.025 126.500 C 41.096 88.121, 68.793 58.116, 106.726 48.825 C 118.985 45.822, 137.056 45.832, 149.377 48.849 C 171.624 54.297, 192.525 68.630, 204.991 86.987 C 210.047 94.432, 216.371 107.607, 218.496 115.120 L 220.017 120.500 219.441 114.500 C 219.125 111.200, 217.379 104.107, 215.562 98.738 C 206.064 70.665, 183.554 48.554, 155.459 39.699 C 141.679 35.356, 128.083 34.162, 114.500 36.100 M 77.737 81.792 C 71.307 84.098, 66.177 88.398, 63.916 93.377 C 58.888 104.449, 63.143 113.928, 85.605 141.697 C 97.776 156.743, 98.658 158.593, 99.332 170.500 C 100.716 194.959, 109.558 206, 127.761 206 C 135.063 206, 142.514 203.420, 146.382 199.551 C 151.067 194.866, 152.993 188.500, 153.033 177.572 C 153.070 167.278, 154.706 161.430, 160.056 152.469 C 164.645 144.784, 177.236 131.545, 188.126 122.955 C 199.074 114.319, 200.436 112.393, 199.589 106.745 C 198.694 100.777, 194.912 93.066, 190.923 89.077 C 183.599 81.753, 171.121 78.471, 162.052 81.483 C 153.428 84.347, 143.887 95.471, 133.011 115.341 L 128.720 123.182 126.928 118.841 C 117.641 96.340, 115.486 91.590, 113.017 88.182 C 108.586 82.065, 103.216 79.992, 91.934 80.042 C 85.656 80.069, 80.907 80.655, 77.737 81.792 M 84.326 88.044 C 78.290 89.238, 74.187 91.645, 71.960 95.299 C 67.176 103.144, 70.839 110.918, 91.254 136.254 C 104.927 153.222, 106.635 156.869, 107.295 170.500 C 107.872 182.428, 108.966 186.735, 112.690 191.751 C 116.164 196.430, 119.879 198, 127.482 198 C 141.412 198, 144.155 194.818, 145.071 177.599 C 145.775 164.378, 147.634 158.184, 154.145 147.372 C 158.439 140.242, 171.154 126.610, 179.788 119.880 C 183.479 117.003, 187.924 113.326, 189.665 111.710 C 192.800 108.801, 192.817 108.732, 191.410 104.746 C 190.629 102.531, 189.053 99.204, 187.908 97.351 C 184.042 91.095, 173.654 86.904, 165.710 88.395 C 158.031 89.835, 148.757 101.654, 135.944 126.329 C 132.040 133.848, 128.486 140, 128.046 140 C 127.281 140, 125.732 136.444, 113.944 107.622 C 108.229 93.648, 104.572 88.764, 98.990 87.648 C 94.932 86.836, 89.724 86.977, 84.326 88.044 M 220.158 124 C 220.158 125.375, 220.385 125.938, 220.662 125.250 C 220.940 124.563, 220.940 123.438, 220.662 122.750 C 220.385 122.063, 220.158 122.625, 220.158 124" stroke="none" fill="black" fill-rule="evenodd"/>
	<path fill-opacity="0.217" d="M 81.393 81.410 C 65.665 85.227, 59.017 97.621, 65.316 111.380 C 68.654 118.670, 72.344 124.054, 83.697 138.202 C 88.862 144.638, 94.643 152.486, 96.544 155.643 C 99.684 160.857, 100 162.082, 100 169.031 C 100 178.393, 102.943 190.446, 106.567 195.922 C 108.355 198.623, 111.043 200.852, 114.628 202.607 C 119.547 205.013, 120.819 205.203, 129.482 204.824 C 138.024 204.450, 139.372 204.117, 143.180 201.441 C 150.047 196.615, 151.222 193.630, 152.040 178.941 C 152.672 167.571, 153.098 165.387, 155.814 159.583 C 161.772 146.852, 170.478 136.583, 185.999 123.980 C 198.647 113.710, 199.454 112.731, 199.261 107.891 C 199.076 103.253, 195.443 94.828, 191.743 90.454 C 185.601 83.195, 170.690 78.967, 161.698 81.935 C 153.694 84.576, 141.702 99.141, 133 116.786 C 131.075 120.690, 129.194 123.910, 128.821 123.942 C 128.447 123.974, 125.822 118.037, 122.987 110.750 C 114.607 89.209, 110.520 83.349, 102.277 81.060 C 97.350 79.692, 87.813 79.851, 81.393 81.410 M 81.704 88.366 C 76.459 89.840, 71.787 93.685, 70.002 97.996 C 67.534 103.952, 72.705 113.514, 90.283 135.500 C 105.573 154.625, 106.319 156.150, 107.124 169.917 C 107.857 182.433, 108.705 186.168, 112.037 191.560 C 115.393 196.990, 118.806 198.246, 129.115 197.845 C 137.543 197.516, 138.117 197.347, 141.177 194.285 C 144.323 191.139, 144.406 190.819, 145.105 179.285 C 145.545 172.010, 146.605 165.013, 147.875 161 C 152.100 147.648, 166.844 129.718, 184.750 116.158 C 189.484 112.573, 192.991 109.184, 192.978 108.205 C 192.906 102.580, 185.617 92.639, 179.541 89.880 C 174.690 87.676, 165.970 87.447, 162.148 89.423 C 155.434 92.895, 146.861 104.770, 136.508 124.940 C 132.962 131.848, 129.641 138.131, 129.128 138.901 C 127.914 140.725, 125.985 136.930, 118.581 118.145 C 111.669 100.609, 108.005 93.250, 104.610 90.085 C 102.420 88.043, 100.822 87.620, 94.260 87.344 C 89.754 87.155, 84.489 87.583, 81.704 88.366" stroke="none" fill="black" fill-rule="evenodd"/>
</svg>