<?xml version="1.0"?><svg xmlns="http://www.w3.org/2000/svg" width="36" height="36" shape-rendering="geometricPrecision" text-rendering="geometricPrecision" image-rendering="optimizeQuality" fill-rule="evenodd" clip-rule="evenodd" viewBox="0 0 36 36"><path fill="#010000" d="m0.1-0.1h15.7c-0.5 0.1-1 0.2-1.4 0.4-0.4 0-0.7 0-1 0.2-0.9 0.2-1.8 0.5-2.6 0.9-0.5 0.1-1 0.4-1.5 0.7-2 1.1-3.8 2.5-5.2 4.4-0.7 0.7-1.3 1.5-1.7 2.4-0.4 0.5-0.7 1-0.8 1.6-0.4 0.6-0.6 1.2-0.7 1.8-0.1 0.1-0.1 0.1-0.1 0.2-0.3 0.9-0.5 1.7-0.7 2.6v-15.2z"></path><path fill="#3a2813" d="m15.8-0.1h3.3v0.2c-1.1-0.1-2.2 0-3.2 0.1l-1.2 0.1h-0.3c0.4-0.2 0.9-0.3 1.4-0.4z"></path><path fill="#020101" d="m19.1 0.1v-0.2h16.7v0.9c-0.2 0.1-0.3 0.2-0.4 0.4-0.1 3.7-0.1 7.4 0 11.1 0.1 0.2 0.2 0.3 0.4 0.4v4c-0.5-5.4-2.9-9.8-7.2-13.2-0.7-0.6-1.5-1.1-2.4-1.4-0.2-0.2-0.5-0.4-0.8-0.5-0.4-0.2-0.9-0.4-1.3-0.5-0.4-0.2-0.7-0.3-1.1-0.4-0.5-0.2-1.1-0.4-1.6-0.3-0.4-0.3-0.8-0.4-1.3-0.2-0.3-0.1-0.6-0.1-1-0.1z"></path><path fill="#a28f68" d="m15.9 0.2c1-0.1 2.1-0.2 3.2-0.1 0.4 0 0.7 0 1 0.1v0.1c-1.4-0.1-2.8-0.2-4.2-0.1z"></path><path fill="#4e3c24" d="m21.4 0.4c-0.4-0.1-0.8-0.1-1.3-0.1v-0.1c0.5-0.2 0.9-0.1 1.3 0.2z"></path><path fill="#90805f" d="m14.4 0.3h0.3c-0.4 0.2-0.8 0.3-1.3 0.2 0.3-0.2 0.6-0.2 1-0.2z"></path><path fill="#6d5e42" d="m21.4 0.4c0.5-0.1 1.1 0.1 1.5 0.3-0.5 0-1-0.2-1.5-0.3z"></path><path fill="#6c6046" d="m22.9 0.7c0.5 0.1 0.8 0.2 1.2 0.4-0.4 0-0.8-0.1-1.2-0.4z"></path><path fill="#9c9170" d="m13.4 0.5c-0.8 0.4-1.7 0.7-2.6 0.9 0.8-0.4 1.7-0.7 2.6-0.9z"></path><path fill="#acacac" d="m35.8 0.8v11.9c-0.2-0.1-0.3-0.2-0.4-0.4-0.1-3.7-0.1-7.4 0-11.1 0.1-0.2 0.2-0.3 0.4-0.4z"></path><path fill="#918565" d="m24.1 1.1c0.4 0.1 0.9 0.3 1.3 0.5 0.3 0.1 0.6 0.3 0.8 0.5-0.4-0.2-0.9-0.3-1.3-0.5-0.3-0.1-0.6-0.3-0.8-0.5z"></path><path fill="#f5efc4" d="m10 3.7l-0.2 0.3c0.2 0.1 0.4 0.1 0.7 0.1 0 0.5 0.1 0.6 0.3 0.2 0.2-0.1 0.4-0.1 0.7-0.1 0.1 0.2 0.1 0.2 0.3 0 0.1 0.3 0 0.5-0.3 0.6 0.1 0.2 0.1 0.3 0 0.4-0.6 0.3-1.2 0.6-1.7 1 0.3-0.2 0.5-0.5 0.6-0.9l-0.1-0.2c-0.1 0.2-0.1 0.2-0.3 0.2 0.3-0.6 0.1-0.9-0.4-1.1 0-0.4-0.1-0.8-0.2-1.2-0.2 0.1-0.3 0.1-0.5 0-0.1 0.2-0.2 0.3-0.2 0.4-0.2-0.1-0.3-0.1-0.5-0.1 0.3-0.2 0.6-0.4 0.9-0.7 0.2 0 0.5-0.1 0.7-0.2 0.3-0.1 0.6-0.1 0.9 0-0.2 0.4-0.5 0.7-0.9 0.7 0.2 0.1 0.2 0.3 0.2 0.6z"></path><path fill="#a78d58" d="m11.6 3.3c-0.2 0.1-0.3 0.3-0.2 0.5-0.1-0.1-0.2-0.2-0.3-0.3-0.4 0.3-0.8 0.4-1.3 0.5l0.2-0.3c0.4-0.3 0.9-0.5 1.4-0.6 0.1 0 0.2 0.1 0.2 0.2z"></path><path fill="#e6dfbb" d="m9.3 2.1c-0.1 0.1-0.2 0.3-0.2 0.5-0.8 0.5-1.6 0.9-2.3 1.3-0.7 0.7-1.4 1.5-2.1 2.2-0.2 0.1-0.4 0.2-0.7 0.4 1.5-1.9 3.3-3.3 5.3-4.4z"></path><path fill="#74592e" d="m11.4 3.8c0 0.1 0.1 0.2 0.2 0.3 0 0.1-0.1 0.1-0.1 0.1-0.3 0-0.5 0-0.7 0.1-0.2 0.4-0.3 0.3-0.3-0.2-0.3 0-0.5 0-0.7-0.1 0.5-0.1 0.9-0.2 1.3-0.5 0.1 0.1 0.2 0.2 0.3 0.3z"></path><path fill="#fdfad0" d="m9.8 6.2c-0.1 0.2-0.2 0.3-0.4 0.5-0.1 0-0.3 0.1-0.4 0.2-0.4 0.4-0.8 0.8-1.2 1.1-0.3 0.1-0.5 0.3-0.7 0.5-0.1 0.1-0.2 0.1-0.3 0.1 0-0.1 0-0.2 0.1-0.2l-0.4-0.2c0.2-0.3 0.3-0.5 0.5-0.8-0.2-0.2-0.4-0.3-0.6-0.4v-0.3c-0.4 0.2-0.8 0.1-1-0.3-0.1 0.2-0.1 0.4-0.1 0.6h-0.4c-0.2 0-0.3-0.1-0.3-0.3 1-1.4 2.2-2.5 3.6-3.4 0.2 0 0.3 0 0.5 0.1 0-0.1 0.1-0.2 0.2-0.4 0.2 0.1 0.3 0.1 0.5 0 0.1 0.4 0.2 0.8 0.2 1.2 0.5 0.2 0.7 0.5 0.4 1.1 0.2 0 0.2 0 0.3-0.2l0 0.2c0 0.4-0.2 0.7-0.5 0.9z"></path><path fill="#d9c99b" d="m11.6 3.3c0.1 0 0.2 0.1 0.3 0.2 0-0.2 0.2-0.2 0.4 0l0.6 0.9-0.1 0.1h0.7c-0.3 0.1-0.6 0.2-0.9 0.3 0.2 0.1 0.4 0.1 0.6 0 0.1 0.2 0.3 0.4 0.4 0.6-0.1 0-0.2 0.1-0.2 0.2 0 0-0.1 0.1-0.1 0.1-0.1-0.2-0.2-0.4-0.4-0.5l0.2-0.1c-0.3-0.1-0.6-0.1-0.8 0-1 0.5-2 1-2.8 1.6 0.1-0.2 0.2-0.3 0.3-0.5 0.5-0.4 1.1-0.7 1.7-1 0.1-0.1 0.1-0.2 0-0.4 0.3-0.1 0.4-0.3 0.3-0.6-0.2 0.2-0.2 0.2-0.3 0 0 0 0.1 0 0.1-0.1-0.1-0.1-0.2-0.2-0.2-0.3-0.1-0.2 0-0.4 0.2-0.5z"></path><path fill="#ded5ad" d="m28.6 3.5c4.3 3.4 6.7 7.8 7.2 13.2v2.1c-0.2 1-0.4 2-0.6 3-0.1-0.2-0.1-0.4-0.1-0.6 0.6-3 0.4-6-0.5-9-0.5-1.3-1.1-2.6-1.7-3.8-0.2-0.1-0.4-0.3-0.6-0.5-0.8-1.3-1.9-2.5-3.2-3.5-0.2-0.3-0.5-0.6-0.9-0.8 0.1-0.1 0.3-0.1 0.4-0.1z"></path><path fill="#ece3ab" d="m29.1 4.4l1.2 1.3c-0.1 0.2-0.2 0.2-0.3 0-0.4 0.1-0.4 0.2 0 0.3-0.1 0.1-0.2 0.1-0.4 0 0 0.1 0 0.2 0.1 0.3-0.3 0.1-0.3 0.3-0.2 0.6-0.1 0-0.2 0-0.3-0.1l-0.3 0.7c-0.1-0.2-0.2-0.3-0.3-0.4 0.1 0.5 0.2 1 0.2 1.5l-0.3-0.2c-0.4-0.6-0.8-1-1.4-1.4l-0.3-0.4c0-0.2 0.1-0.3 0.3-0.3 0.3-0.1 0.6-0.1 0.9 0.1 0 0.1 0 0.3 0.1 0.4 0.1-0.2 0.3-0.3 0.4-0.4 0.2 0 0.4 0.1 0.6 0-0.1-0.1-0.2-0.3-0.2-0.5 0.1-0.2 0.3-0.3 0.5-0.5-0.3-0.1-0.5-0.1-0.7-0.1 0-0.3-0.1-0.6-0.4-0.8 0.2-0.1 0.3-0.2 0.2-0.3 0.2 0 0.4 0.1 0.6 0.2z"></path><path fill="#9e834f" d="m28.9 5.9c0 0.2 0.1 0.4 0.2 0.5-0.2 0.1-0.4 0-0.6 0-0.1-0.5-0.4-0.8-0.8-0.7 0-0.2-0.1-0.3-0.3-0.5l0.2-0.1c0.5 0.2 0.9 0.5 1.3 0.8z"></path><path fill="#684c23" d="m28.5 6.4c-0.1 0.1-0.3 0.2-0.4 0.4-0.1-0.1-0.1-0.3-0.1-0.4-0.2-0.2-0.4-0.3-0.7-0.3 0.2-0.1 0.3-0.3 0.4-0.4 0.4-0.1 0.7 0.2 0.8 0.7z"></path><path fill="#a0926c" d="m14.8 6.7c-0.1-0.1-0.3-0.3-0.5-0.5 0 0.1 0 0.1 0 0.2-0.1 0.2-0.1 0.5 0 0.7-0.2-0.4-0.4-0.9-0.6-1.4 0.2-0.2 0.4-0.3 0.6-0.1 0.2 0.3 0.4 0.6 0.6 0.9 0.1 0.1 0.1 0.1-0.1 0.2z"></path><path fill="#4a402f" d="m12.8 6.2c0.3 0.2 0.4 0.4 0.4 0.7-0.2-0.2-0.3-0.4-0.4-0.7z"></path><path fill="#574125" d="m26.6 6.6h0.2l0.3 0.4c-0.2 0-0.4-0.2-0.5-0.4z"></path><path fill="#d0bc8c" d="m15.9 0.2c1.4-0.1 2.8 0 4.2 0.1 0.5 0 0.9 0 1.3 0.1 0.5 0.1 1 0.3 1.6 0.3 0.3 0.3 0.7 0.4 1.1 0.4 0.2 0.2 0.5 0.4 0.8 0.5 0.4 0.2 0.9 0.3 1.3 0.5 0.9 0.3 1.7 0.8 2.4 1.4-0.1 0-0.3 0-0.4 0.1 0.4 0.2 0.7 0.5 0.9 0.8-0.2-0.1-0.4-0.2-0.6-0.2 0.1 0.1 0 0.2-0.1 0.3 0.2 0.2 0.3 0.5 0.3 0.8 0.2 0 0.4 0 0.7 0.1-0.2 0.2-0.4 0.3-0.5 0.5-0.4-0.3-0.8-0.6-1.3-0.8l-0.1 0.1c0.1 0.2 0.2 0.3 0.2 0.5-0.1 0.1-0.2 0.3-0.4 0.4 0.3 0 0.5 0.1 0.7 0.3-0.3-0.2-0.6-0.2-0.9-0.1-0.2 0-0.3 0.1-0.3 0.3h-0.2c0.1 0.2 0.3 0.4 0.5 0.4 0.4 0.5 0.9 1 1.4 1.4 0.1 0.3 0.3 0.5 0.5 0.7 0.1 0.2 0.2 0.3 0.4 0.4 0.1 0.4 0.3 0.7 0.6 1 0.3 0.7 0.6 1.3 0.9 1.8 0.1 0.5 0.3 0.9 0.5 1.3 0 0.3 0.1 0.5 0.2 0.7 0.1 0.7 0.1 1.3 0.3 1.8 0-0.1 0.1-0.2 0.1-0.3 0.1 0.2 0.1 0.4 0.1 0.7-0.1 0.9-0.2 1.9-0.3 2.9 0-0.2-0.1-0.3-0.2-0.4 0.1-0.7 0.1-1.3 0-1.8-0.1-3.4-1.3-6.3-3.6-8.8-0.4-0.6-1-1.1-1.7-1.4 0.1 0.2 0 0.3-0.2 0.3-0.1 0.5-0.1 1 0 1.5-0.2 0.2-0.4 0.4-0.6 0.6-0.1-0.1-0.1-0.2 0-0.3-0.1-0.1-0.2-0.2-0.3-0.2 0-0.6-0.1-0.6-0.2 0-0.2 0.2-0.3 0.5-0.4 0.7-0.1-0.1-0.2-0.2-0.3-0.3 0.2-0.2 0.3-0.4 0.3-0.7 0-0.2 0-0.3-0.2-0.3 0-0.1 0-0.1 0.1-0.1 0.5 0.1 0.6 0 0.1-0.3 0.2-0.2 0.3-0.4 0.4-0.6h0.2c0.2 0 0.4 0.2 0.6 0.3 0 0.3-0.2 0.5-0.4 0.7 0.1 0.1 0.2 0.1 0.3 0 0.1-0.3 0.2-0.6 0.3-0.9-0.4-0.3-0.8-0.6-1.1-1l-0.1 0.1c-0.1-0.2-0.2-0.3 0-0.5-0.2-0.4-0.5-0.6-0.9-0.8-0.3-0.1-0.5-0.1-0.7-0.2-0.3-0.2-0.7-0.3-1-0.3-0.4-0.2-0.8-0.3-1.2-0.4-0.5-0.2-1.1-0.3-1.8-0.3-1-0.1-2-0.1-3.1 0-0.7 0.1-1.4 0.2-2.1 0.4-0.2 0.2-0.2 0.3 0 0.5 0 0 0.1-0.1 0.1-0.1 0.1 0.3 0.3 0.5 0.6 0.5 0.4 0.2 0.5 0.5 0.5 0.8 0 0.2 0 0.4 0.1 0.5 0 0.3 0.1 0.7 0.3 1 0-0.2 0-0.5-0.1-0.7 0.1 0 0.3 0.1 0.4 0.1l0.2-0.2c0.2 0.3 0.4 0.5 0.8 0.6l-0.6 0.1c0.1 0.3 0.2 0.3 0.4 0.2 0.1 0.2 0.2 0.2 0.4 0.3-0.2 0-0.3 0.1-0.4 0.2-0.2-0.1-0.4 0-0.5 0.1-0.5 0-0.9 0.1-1.3 0.2-0.1-0.2-0.1-0.5 0-0.8 0.1 0 0.3 0 0.4-0.1-0.2-0.3-0.4-0.6-0.4-0.9 0.1-0.1 0.1-0.1 0-0.2-0.2-0.3-0.4-0.6-0.6-0.9-0.2-0.2-0.4-0.1-0.6 0.1-0.1-0.1-0.2-0.1-0.3-0.1 0-0.1 0.1-0.2 0.2-0.2-0.1-0.2-0.3-0.4-0.4-0.6-0.2 0.1-0.4 0.1-0.6 0 0.3-0.1 0.6-0.2 0.9-0.3h-0.7l0.1-0.1-0.6-0.9c-0.2-0.2-0.4-0.2-0.4 0-0.1-0.1-0.2-0.2-0.3-0.2 0-0.1-0.1-0.2-0.2-0.2-0.5 0.1-1 0.3-1.4 0.6 0-0.3 0-0.5-0.2-0.6 0.4 0 0.7-0.3 0.9-0.7-0.3-0.1-0.6-0.1-0.9 0-0.2 0.1-0.5 0.2-0.7 0.2 0-0.2 0.1-0.4 0.2-0.5 0.5-0.3 1-0.6 1.5-0.7 0.9-0.2 1.8-0.5 2.6-0.9 0.5 0.1 0.9 0 1.3-0.2l1.2-0.1z"></path><path fill="#e7d9aa" d="m18.3 5.1v2.2h0.8c-0.3 0.1-0.6 0.1-1 0.1v-0.8c-0.1-0.6 0-1 0.2-1.5z"></path><path fill="#a49164" d="m22.6 6c0.1 0 0.2 0.1 0.2 0.2-0.3 0.6-0.5 1.2-0.5 1.8-0.2 0-0.2-0.1-0.2-0.3 0.1-0.6 0.3-1.1 0.5-1.7z"></path><path fill="#513a1d" d="m23.9 6.2c0 0.1 0 0.2 0.1 0.3-0.3 0.5-0.5 1-0.8 1.4 0.1-0.5 0.3-0.9 0.5-1.4 0-0.1-0.1-0.2-0.2-0.3 0.1 0 0.2 0 0.3 0z"></path><path fill="#ab996d" d="m20.5 5.3c0.8-0.1 1.2 0.3 1.1 1.1-0.1 0-0.2 0-0.3-0.1-0.3-0.9-0.5-0.9-0.8-0.1 0 0.5-0.1 0.9-0.1 1.3-0.2-0.1-0.3-0.3-0.3-0.5l0.3-1.1c0-0.1-0.1-0.2-0.1-0.3 0-0.1 0.1-0.2 0.2-0.3z"></path><path fill="#553c1d" d="m26.1 6.2c0.2 0.1 0.4 0.2 0.5 0.4-0.3 0-0.4-0.2-0.5-0.4z"></path><path fill="#7d6640" d="m22.2 4.7c0.3 0 0.7 0.1 1 0.3-0.1 0.2-0.1 0.4-0.1 0.6 0.3 0.2 0.6 0.3 0.9 0.5-0.1 0-0.1 0.1-0.1 0.1-0.2 0-0.3 0-0.4 0-0.1 0-0.2 0.1-0.2 0.2-0.3 0.6-0.6 1.2-0.8 1.8-0.1 0-0.2-0.1-0.2-0.2 0.2-0.6 0.5-1.3 0.8-2-0.4-0.2-0.7-0.4-0.9-0.7 0.2-0.2 0.2-0.4 0-0.6z"></path><path fill="#ac996b" d="m18.3 5.1c0.4 0 0.8 0 1.1 0.1l0.1 0.1-0.4 0.2c-0.2-0.1-0.4-0.1-0.5 0v0.6c0.2 0 0.5 0.1 0.6 0.3-0.2 0.1-0.5 0.1-0.7 0-0.1 0.3 0 0.6 0.2 0.9h-0.4v-2.2z"></path><path fill="#3f2b12" d="m17.1 6.2c0.4 0.2 0.5 0.4 0.5 0.8-0.1-0.2-0.3-0.5-0.5-0.8z"></path><path fill="#decd9a" d="m22.6 6c-0.2 0.6-0.4 1.1-0.5 1.7 0 0.2 0 0.3 0.2 0.3 0 0.1 0.1 0.2 0.2 0.2l0.2 0.2c-0.5 0-0.8-0.2-0.9-0.7 0.2-0.6 0.4-1.2 0.7-1.8 0.1 0 0.1 0.1 0.1 0.1z"></path><path fill="#533c21" d="m25.8 6c0.1 0 0.2 0.1 0.3 0.2-0.2 0.1-0.3 0-0.3-0.2z"></path><path fill="#513d25" d="m25.4 5.8c0.2 0 0.3 0.1 0.4 0.2-0.2 0-0.3 0-0.4-0.2z"></path><path fill="#958056" d="m23.2 5c0.2 0.1 0.4 0.1 0.7 0.2 0.1 0.3 0.2 0.5 0.4 0.7-0.1 0.5-0.1 0.9 0 1.4 0 0.1-0.1 0.2-0.2 0.3-0.1 0-0.2-0.1-0.3-0.1 0.2-0.2 0.2-0.3 0.1-0.5-0.1 0.3-0.3 0.6-0.5 0.9-0.1 0.2-0.2 0.2-0.2 0 0.3-0.4 0.5-0.9 0.8-1.4-0.1-0.1-0.1-0.2-0.2-0.3 0.1 0 0.1-0.1 0.2-0.1-0.3-0.2-0.6-0.3-0.9-0.5 0-0.2 0-0.4 0.1-0.6z"></path><path fill="#3c2811" d="m18.6 5.5c0.1 0.1 0.1 0.3 0.1 0.5h0.7c0 0.2-0.1 0.3-0.2 0.4-0.1-0.2-0.4-0.3-0.6-0.3v-0.6z"></path><path fill="#ac9767" d="m16.1 4c-0.1 0.2-0.2 0.3-0.3 0.4 0.1 0.3 0.3 0.4 0.5 0.5l-0.1 0.2 1 0.1c0.1 0.1 0.1 0.3 0.1 0.5-0.2-0.2-0.5-0.3-0.9-0.4 0 0.5 0.2 0.8 0.7 0.9 0.2 0.3 0.4 0.6 0.5 0.8 0-0.4 0.2-0.4 0.3 0 0.1-0.1 0.1-0.3 0.2-0.4v0.8c0.4 0 0.7 0 1-0.1 0.1 0 0.2 0.1 0.1 0.2-0.2 0-0.5 0-0.8 0l0.2 0.1-0.6 0.4c0.4 0 0.8 0.1 1.1 0.2-0.1-0.1-0.2 0-0.2 0.1-0.7-0.1-1.5-0.2-2.3-0.1 0.2-0.1 0.3-0.2 0.5-0.2-0.2-0.1-0.3-0.1-0.5-0.3-0.1 0.1-0.2 0.1-0.3-0.2l0.6-0.1c-0.4-0.1-0.6-0.3-0.8-0.6l-0.2 0.2c-0.1 0-0.3-0.1-0.4-0.1 0-0.2-0.1-0.4-0.1-0.7-0.1 0.2-0.1 0.3-0.1 0.4-0.1-0.1-0.1-0.3-0.1-0.5 0.1-0.3 0.1-0.6 0-0.9-0.2 0-0.3 0-0.5 0.1-0.3 0-0.5-0.2-0.6-0.5 0 0-0.1 0.1-0.2 0.1-0.1-0.2-0.1-0.3 0-0.5 0.8-0.2 1.5-0.3 2.2-0.4z"></path><path fill="#eadfb1" d="m16 5.3c0.2 0.6 0.6 1 1.2 1.3 0 0.1 0 0.3 0 0.4-0.3-0.4-0.6-0.7-1.1-0.9-0.1-0.2-0.1-0.5-0.1-0.8z"></path><path fill="#604b2d" d="m14.7 5.3c0.2-0.1 0.3-0.1 0.5-0.1 0.1 0.3 0.1 0.6 0 0.9 0-0.3-0.1-0.6-0.5-0.8z"></path><path fill="#664e2b" d="m21 4.3c0.4 0.1 0.8 0.2 1.2 0.4 0.2 0.2 0.2 0.4 0 0.6 0.2 0.3 0.5 0.5 0.9 0.7-0.3 0.7-0.6 1.4-0.8 2 0-0.6 0.2-1.2 0.5-1.8 0-0.1-0.1-0.2-0.2-0.2 0 0 0-0.1-0.1-0.1-0.3 0.6-0.5 1.2-0.7 1.8-0.1-0.1-0.1-0.3-0.2-0.5 0.3-0.1 0.3-0.2-0.1-0.3 0 0.3-0.1 0.5-0.3 0.7-0.1-0.2 0-0.3 0.1-0.5-0.1-0.1-0.2-0.1-0.4-0.2 0 0.3-0.2 0.5-0.4 0.6h-0.1c0-0.4 0.1-0.8 0.1-1.3 0.3-0.8 0.5-0.8 0.8 0.1 0.1 0.1 0.2 0.1 0.3 0.1 0.1-0.8-0.3-1.2-1.1-1.1 0 0 0-0.1 0.1-0.1-0.2-0.1-0.5-0.2-0.7-0.2 0.1-0.3-0.1-0.4-0.3-0.5 0.3-0.3 0.6-0.4 0.9-0.1 0.2 0 0.3-0.1 0.5-0.1z"></path><path fill="#725730" d="m19.2 4c0.7 0 1.3 0.1 1.8 0.3-0.2 0-0.3 0.1-0.5 0.1-0.3-0.3-0.6-0.2-0.9 0.1 0.2 0.1 0.4 0.2 0.3 0.5 0.2 0 0.5 0.1 0.7 0.2-0.1 0-0.1 0.1-0.1 0.1-0.1 0.1-0.2 0.2-0.2 0.3-0.2 0.6-0.3 1.2-0.4 1.8 0 0.1-0.1 0.1-0.2 0-0.1-0.1-0.1-0.2-0.2-0.4 0 0.2-0.1 0.4-0.1 0.6-0.1 0-0.2-0.1-0.2-0.1 0.1-0.1 0-0.2-0.1-0.2h-0.4c-0.2-0.3-0.3-0.6-0.3-0.9 0.3 0.1 0.6 0.1 0.8 0 0.1-0.1 0.2-0.2 0.2-0.4h-0.7c0-0.2 0-0.4-0.1-0.5 0.1-0.1 0.3-0.1 0.5 0l0.4-0.2-0.1-0.1c-0.3-0.1-0.7-0.1-1.1-0.1 0-0.1 0-0.1-0.1-0.1l0.7-0.2c-0.4 0-0.7-0.1-1-0.3 0.1-0.1 0.1-0.2-0.1-0.3l-0.6-0.2c0.7 0 1.4 0 2 0z"></path><path fill="#846a40" d="m19.2 4c-0.6 0-1.3 0-2 0l0.6 0.2c0.2 0.1 0.2 0.2 0.1 0.3 0.3 0.2 0.6 0.3 1 0.3l-0.7 0.2c0.1 0 0.1 0 0.1 0.1-0.2 0.5-0.3 0.9-0.2 1.5-0.1 0.1-0.1 0.3-0.2 0.4-0.1-0.4-0.3-0.4-0.3 0 0-0.4-0.1-0.6-0.5-0.8-0.5-0.1-0.7-0.4-0.7-0.9 0.4 0.1 0.7 0.2 0.9 0.4 0-0.2 0-0.4-0.1-0.5l-1-0.1 0.1-0.1c-0.2-0.2-0.4-0.3-0.5-0.6 0.1-0.1 0.2-0.2 0.3-0.4 1.1-0.1 2.1-0.1 3.1 0z"></path><path fill="#b8a877" d="m24.9 1.9c0.8 0.2 1.4 0.6 2 1.2-0.1 0.2-0.1 0.2 0 0.3 0.1-0.1 0.2-0.1 0.2 0-0.2 0.2-0.3 0.2-0.5 0-0.2 0.3-0.4 0.5-0.5 0.8-0.1 0.2-0.2 0.2-0.3 0-0.1 0.1 0 0.2 0.1 0.3-0.3 0.3-0.5 0.6-0.6 1v-0.4c-0.1 0-0.3 0-0.4 0.1-0.2-0.2-0.2-0.3 0.1-0.5-0.3-0.1-0.3-0.2 0-0.3 0.1-0.1 0.1-0.3 0.2-0.5l-0.1-0.1 0.3-0.1c0-0.2 0-0.3 0.2-0.5l0.1 0.2c0.1-0.3 0.1-0.6 0-0.9-0.3-0.2-0.6-0.4-0.8-0.6z"></path><path fill="#9e895a" d="m23.4 1.4c0.9 0.1 1.4 0.5 1.6 1.3-0.4 0.7-0.6 1.5-0.8 2.3-0.6-0.2-1.1-0.5-1.7-0.7 0.1-0.1 0.2-0.2 0.3-0.3-0.2 0-0.2-0.1 0-0.3l-0.1-0.1c0.2-0.1 0.3-0.1 0.4 0.1 0.1-0.3 0.1-0.5 0-0.7-0.4-0.3-0.7-0.4-1-0.3-0.2-0.1-0.3-0.2-0.3-0.4 0.2 0 0.4 0 0.6-0.1 0.1-0.2 0.2-0.4 0.3-0.6 0.2 0.1 0.4 0.2 0.7 0.1v-0.3z"></path><path fill="#ac986b" d="m23.2 1.2c0.6 0.1 1.1 0.3 1.7 0.7 0.2 0.2 0.5 0.4 0.8 0.6 0.1 0.3 0.1 0.6 0 0.9l-0.1-0.2c-0.2 0.2-0.2 0.3-0.2 0.5l-0.3 0.1 0.1 0.1c-0.1 0.2-0.1 0.4-0.2 0.5-0.3 0.1-0.3 0.2 0 0.3-0.3 0.2-0.3 0.3-0.1 0.5 0.1-0.1 0.3-0.1 0.4-0.1v0.4c0 0.1 0.1 0.2 0.1 0.3-0.2 0-0.4-0.1-0.5-0.3-0.2-0.2-0.4-0.4-0.7-0.5 0.2-0.8 0.4-1.6 0.8-2.3-0.2-0.8-0.7-1.2-1.6-1.3-0.1 0-0.2-0.1-0.2-0.2z"></path><path fill="#ad9360" d="m13.6 1c0.1 0 0.2 0.1 0.4 0.1l-0.3 0.1c0.3 0.8 0.7 1.6 1.1 2.3 0.2 0.1 0.3 0.2 0.5 0.2-0.3 0.1-0.5 0.2-0.8 0.2 0.1 0.1 0.2 0.1 0.2 0.1-0.2 0.1-0.5 0.2-0.9 0.2 0.2-0.1 0.3-0.3 0.2-0.4-0.5-0.8-0.9-1.6-1.4-2.4 0.3-0.3 0.6-0.4 1-0.4z"></path><path fill="#977b4c" d="m15 0.6c-0.1 0.2-0.1 0.4-0.2 0.6 0.3 0.5 0.5 1 0.7 1.6 0.1 0 0.1 0.1 0.3 0.1-0.1 0.2 0 0.4 0.2 0.5l-0.1 0.1 0.3 0.1c-0.2 0-0.4 0.1-0.6 0.2-0.2 0.1-0.5 0.2-0.9 0.2 0 0-0.1 0-0.2-0.1 0.3 0 0.5-0.1 0.8-0.2-0.2 0-0.3-0.1-0.5-0.2-0.4-0.7-0.8-1.5-1.1-2.3l0.2-0.1c-0.1 0-0.2-0.1-0.3-0.1 0.4-0.2 0.9-0.4 1.4-0.4z"></path><path fill="#6b4e27" d="m19.2 0.5c-0.4 0-0.9 0.1-1.3 0.2 0.3 0.1 0.4 0.3 0.1 0.7 0.1 0 0.1 0.1 0.1 0.1l-0.2 0.1c0.7 0.1 1 0.5 0.8 1.2 0.2 0.2 0.4 0.4 0.7 0.6-0.6 0.1-1.2 0.2-1.8 0.1-0.4-0.2-0.8-0.5-1.1-0.9 0.2-0.2 0.4-0.2 0.6 0 0.1-0.1 0.1-0.1-0.1-0.2-0.3-0.1-0.6 0-0.7 0.2-0.1-0.2-0.1-0.5-0.1-0.7 0.4-0.1 0.8 0 1.1 0.1 0.5-0.2 0.6-0.3 0.1-0.5 0-0.1-0.2-0.1-0.3-0.1v-0.4c-0.3 0.1-0.5 0.1-0.8 0-0.1-0.2-0.1-0.3 0-0.5 1-0.1 2-0.1 2.9 0z"></path><path fill="#b79d62" d="m16.3 1c0.3 0.1 0.5 0.1 0.8 0v0.4c0.1 0 0.3 0 0.3 0.1 0 0.1-0.2 0.2-0.3 0.2-0.4 0.1-0.8 0.1-1.2 0 0.1-0.3 0.2-0.5 0.4-0.7z"></path><path fill="#8c7449" d="m21.3 0.7c0.6 0.2 1.2 0.3 1.9 0.5 0 0.1 0.1 0.2 0.2 0.2v0.3c-0.3 0.1-0.5 0-0.7-0.1-0.1 0.2-0.2 0.4-0.3 0.6-0.2 0.1-0.4 0.1-0.6 0.1-0.1-0.6-0.2-1.1-0.5-1.6z"></path><path fill="#886b40" d="m16.3 0.5c-0.1 0.2-0.1 0.3 0 0.5-0.2 0.2-0.3 0.4-0.4 0.7 0.4 0.1 0.8 0.1 1.2 0 0.1 0 0.3-0.1 0.3-0.2 0.5 0.2 0.4 0.3-0.1 0.5-0.3-0.1-0.7-0.2-1.1-0.1 0 0.2 0 0.5 0.1 0.7 0.1-0.2 0.4-0.3 0.7-0.2 0.2 0.1 0.2 0.1 0.1 0.2-0.2-0.2-0.4-0.2-0.6 0 0.3 0.4 0.7 0.7 1 0.9-0.3 0-0.6 0-0.9 0.2-0.3 0.1-0.6 0.1-1 0.1 0.2-0.1 0.4-0.2 0.6-0.2l-0.3-0.1 0.1-0.1c-0.2-0.1-0.3-0.3-0.2-0.5-0.2 0-0.2-0.1-0.3-0.1-0.2-0.6-0.4-1.1-0.7-1.6 0.1-0.2 0.1-0.4 0.2-0.6 0.4-0.1 0.8-0.1 1.3-0.1z"></path><path fill="#6e5531" d="m21.2 0.7h0.1c0.3 0.5 0.4 1 0.5 1.6 0 0.2 0.1 0.3 0.3 0.4 0.3-0.1 0.6 0 1 0.3 0.1 0.2 0.1 0.4 0 0.7-0.1-0.2-0.2-0.2-0.4-0.1l0.1 0.1c-0.2 0.2-0.2 0.3 0 0.3-0.1 0.1-0.2 0.2-0.3 0.3 0.6 0.2 1.1 0.5 1.7 0.7 0.3 0.1 0.5 0.3 0.7 0.5-0.9-0.4-1.7-0.8-2.5-1.2-0.2-0.1-0.5-0.2-0.7-0.3 0.1-0.2 0.1-0.3-0.2-0.1-0.2-0.2-0.1-0.3 0.2-0.3-0.3 0-0.3-0.1-0.2-0.3-0.2-0.7-0.5-1.4-0.7-2.1 0.2 0 0.2-0.1 0-0.2 0.2 0 0.3-0.1 0.3-0.3z"></path><path fill="#5e4221" d="m19.2 0.5c0.7 0.1 1.3 0.1 2 0.2-0.1 0.2-0.2 0.3-0.4 0.3 0.2 0.1 0.2 0.2 0 0.2 0.2 0.7 0.5 1.4 0.7 2.1-0.1 0.2-0.1 0.3 0.2 0.3-0.3 0-0.4 0.1-0.2 0.3 0.3-0.2 0.3-0.1 0.2 0.1 0.2 0.1 0.5 0.2 0.7 0.3-0.8-0.1-1.5-0.3-2.3-0.5-1.1-0.1-2.3-0.2-3.4-0.1 0.2-0.2 0.5-0.2 0.9-0.2 0.6 0.1 1.2 0 1.8-0.1-0.3-0.2-0.5-0.4-0.7-0.6 0.2-0.7-0.1-1.1-0.8-1.2l0.2-0.1c0 0 0-0.1-0.1-0.1 0.3-0.4 0.2-0.6-0.1-0.7 0.4-0.1 0.9-0.2 1.3-0.2z"></path><path fill="#b59d65" d="m6.4 7h-0.1c-0.3 0.3-0.6 0.6-0.9 0.8-0.2 0.2-0.1 0.3 0.1 0.2 0 0.1 0 0.2-0.1 0.2-0.1 0-0.1 0-0.2 0.1-0.1-0.2-0.1-0.4 0-0.6-0.1-0.2-0.3-0.3-0.5-0.4 0.1-0.1 0.2-0.2 0.3-0.3h0.3c0-0.2 0-0.4 0.1-0.6 0.2 0.4 0.6 0.5 1 0.3v0.3z"></path><path fill="#beae80" d="m9.5 6.7c-0.7 0.6-1.3 1.2-2 1.8 0.1-0.2 0.1-0.3 0.3-0.5 0.4-0.3 0.8-0.7 1.2-1.1 0.1-0.1 0.3-0.2 0.5-0.2z"></path><path fill="#bdb38d" d="m12.3 6.1c0.2 0 0.4 0 0.5 0.1 0.1 0.3 0.2 0.5 0.4 0.7 0.1 0.2 0.2 0.4 0.1 0.6-0.3-0.3-0.6-0.6-0.7-1l-0.2-0.1c-0.1 0-0.2 0.1-0.2 0.2-0.2 0-0.2 0.2-0.1 0.4 0.1 0.4 0.3 0.7 0.5 0.9v0.3c-0.1 0-0.2-0.1-0.2-0.2-0.2-0.3-0.3-0.6-0.5-0.9-0.1-0.3-0.1-0.6 0-0.9 0.1 0 0.2-0.1 0.4-0.1z"></path><path fill="#e6e0bb" d="m13.4 5.6c0.1 0 0.2 0 0.3 0.1 0.2 0.5 0.4 1 0.6 1.4 0.1 0.3 0.2 0.5 0.3 0.7l0-0.3c-0.1-0.3-0.2-0.7-0.3-1.1 0-0.1 0-0.1 0-0.2 0.2 0.2 0.4 0.4 0.6 0.5 0 0.3 0.2 0.6 0.4 0.9-0.1 0.1-0.3 0.1-0.4 0.1-0.1 0.3-0.1 0.6 0 0.8-0.5 0.1-0.9 0.3-1.3 0.4 0.1-0.2 0.2-0.3 0.5-0.5-0.3 0-0.6 0.1-0.9 0.1-0.3 0-0.5-0.2-0.6-0.3 0.4 0.1 0.4 0 0-0.3l-0.4-1.3c0-0.1 0.1-0.2 0.2-0.2l0.2 0.1c0.1 0.4 0.4 0.7 0.7 1 0.1-0.2 0-0.4-0.1-0.6 0-0.3-0.1-0.5-0.4-0.7-0.1-0.1-0.3-0.1-0.5-0.1 0.1-0.1 0.2-0.1 0.4-0.1-0.3-0.1-0.5-0.3-0.7-0.5 0.2-0.1 0.2-0.2 0.3-0.4 0.2-0.1 0.5-0.1 0.7 0l-0.1 0.1c0.2 0.1 0.3 0.3 0.4 0.5 0 0 0.1-0.1 0.1-0.1z"></path><path fill="#504431" d="m14.3 6.4c0.1 0.4 0.2 0.8 0.3 1.1l0 0.3c-0.1-0.2-0.2-0.4-0.3-0.7-0.1-0.2-0.1-0.5 0-0.7z"></path><path fill="#5f4d30" d="m15.5 6.9c0.1 0.2 0.1 0.5 0.1 0.7-0.2-0.3-0.3-0.7-0.3-1 0-0.1 0-0.2 0.1-0.4 0 0.3 0.1 0.5 0.1 0.7z"></path><path fill="#b29d6a" d="m23.5 6.2c0.1 0.1 0.2 0.2 0.2 0.3-0.2 0.5-0.4 0.9-0.5 1.4-0.2 0.1-0.4 0.3-0.5 0.5l-0.2-0.2c0.2-0.6 0.5-1.2 0.8-1.8 0-0.1 0.1-0.2 0.2-0.2z"></path><path fill="#4f4837" d="m12.2 6.6l0.4 1.3c-0.2-0.2-0.4-0.5-0.5-0.9-0.1-0.2-0.1-0.4 0.1-0.4z"></path><path fill="#dfd0a4" d="m20.3 5.6c0 0.1 0.1 0.2 0.1 0.3l-0.3 1.1c0 0.2 0.1 0.4 0.3 0.5h0.1c0 0.1 0.1 0.1 0.2 0.2l-0.2 0c-0.2-0.1-0.4-0.2-0.6-0.3 0.1-0.6 0.2-1.2 0.4-1.8z"></path><path fill="#5c4628" d="m27.1 7c0.6 0.4 1 0.8 1.4 1.4-0.5-0.4-1-0.9-1.4-1.4z"></path><path fill="#e0cd96" d="m23.7 8.9c-0.1 0-0.1-0.1-0.2-0.2 0.3-0.3 0.4-0.7 0.6-1.1 0.1-0.1 0.2-0.2 0.2-0.3 0.1-0.2 0.2-0.3 0.3-0.5l0 0.2c-0.3 0.7-0.6 1.3-0.9 1.9z"></path><path fill="#74592e" d="m6.3 7c0.1 0.3 0.2 0.5 0.5 0.6-0.5 0.1-0.7 0.4-0.7 0.9-0.1-0.2-0.3-0.4-0.6-0.5-0.2 0.1-0.3 0-0.1-0.2 0.3-0.2 0.6-0.5 0.9-0.8z"></path><path fill="#706850" d="m13.4 7.6c0.3 0.2 0.3 0.4 0 0.7 0-0.3 0-0.5 0-0.7z"></path><path fill="#ad996a" d="m23.9 5.2c0.4 0.2 0.7 0.4 0.9 0.8-0.2 0.2-0.1 0.3 0 0.5l0.1-0.1c0.3 0.4 0.7 0.7 1.1 1-0.1 0.3-0.2 0.6-0.3 0.9-0.1 0.1-0.2 0.1-0.3 0 0.2-0.2 0.4-0.4 0.4-0.7 0-0.1-0.1-0.2-0.2-0.3-0.2-0.2-0.5-0.4-0.8-0.4 0.1 0.1 0.2 0.3 0.4 0.4h-0.2c-0.3 0.2-0.5 0.5-0.5 0.9-0.1 0-0.1 0-0.1 0.1-0.1 0-0.2 0-0.2 0.1-0.1 0.2-0.2 0.4-0.4 0.7 0-0.1-0.1-0.1-0.1-0.2 0.3-0.6 0.6-1.2 0.9-1.9l0-0.2c-0.1 0.2-0.2 0.3-0.3 0.5-0.1-0.5-0.1-0.9 0-1.4-0.2-0.2-0.3-0.4-0.5-0.7z"></path><path fill="#5e4c31" d="m25 7.3c-0.1 0.2-0.2 0.4-0.4 0.6 0.5 0.3 0.4 0.4-0.1 0.3 0-0.4 0.2-0.7 0.5-0.9z"></path><path fill="#413423" d="m25.8 7.6c-0.2-0.1-0.4-0.3-0.6-0.3-0.2-0.1-0.3-0.3-0.4-0.4 0.3 0 0.6 0.2 0.8 0.4 0.1 0.1 0.2 0.2 0.2 0.3z"></path><path fill="#e6dba6" d="m28 8.4c-0.1 0-0.1 0-0.2 0.1 0.1 0.3 0 0.5 0 0.8-0.2-0.4-0.5-0.8-0.9-1.1-0.1-0.1-0.2 0-0.2 0.1-0.4 0.5-0.8 1-1.2 1.4-0.1 0-0.1 0-0.1-0.1l0.1-0.2c0.2-0.2 0.4-0.4 0.6-0.6-0.1-0.5-0.1-1 0-1.5 0.2 0 0.3-0.1 0.2-0.3 0.7 0.3 1.3 0.8 1.7 1.4z"></path><path fill="#50452f" d="m12.6 7.9c0.4 0.3 0.4 0.4 0 0.3v-0.3z"></path><path fill="#a38440" d="m16.2 8.3c0.1-0.1 0.3-0.2 0.4-0.1 0.8-0.1 1.6 0 2.3 0.1 0.6 0.1 1.2 0.2 1.8 0.4 0.2 0.1 0.2 0.3 0.2 0.5-0.5-0.1-0.8-0.3-1.2-0.6-0.2 0.1-0.4 0.1-0.7 0-0.4-0.1-0.7-0.1-1.1-0.1h-1.3c0.1-0.1 0.2-0.1 0.4-0.2-0.3 0-0.5 0-0.8 0z"></path><path fill="#4e4534" d="m26.7 8.3c0-0.1 0.1-0.2 0.2-0.1 0.4 0.3 0.7 0.7 0.9 1.1-0.3-0.2-0.5-0.5-0.8-0.7-0.1-0.1-0.2-0.3-0.3-0.3z"></path><path fill="#ede2b3" d="m6.3 7h0.1c0.2 0.1 0.4 0.2 0.6 0.4-0.2 0.3-0.3 0.5-0.5 0.8l0.4 0.2c-0.1 0-0.1 0.1-0.1 0.1 0.1 0.1 0.2 0.1 0.3 0 0.2-0.2 0.4-0.4 0.7-0.5-0.2 0.2-0.2 0.3-0.3 0.5-0.3 0.3-0.6 0.6-0.9 1-0.2 0.1-0.4 0.1-0.5 0-0.3-0.4-0.5-0.9-0.7-1.3 0.1 0 0.1-0.1 0.1-0.2 0.3 0.1 0.5 0.3 0.6 0.5 0-0.5 0.2-0.8 0.7-0.9-0.3-0.1-0.4-0.3-0.5-0.6z"></path><path fill="#7f6330" d="m16.2 8.3c0.3 0 0.5 0 0.8 0-0.2 0.1-0.3 0.1-0.3 0.2-0.3 0-0.5 0-0.6 0.1-0.6 0-1.2 0.2-1.7 0.5-0.5 0.1-1 0.3-1.5 0.6 0-0.1-0.1-0.2-0.2-0.2 0.3-0.2 0.6-0.4 0.9-0.6 0.4-0.1 0.8-0.3 1.3-0.4 0.4-0.1 0.8-0.2 1.3-0.2z"></path><path fill="#8e7346" d="m21.8 7.7c0.1 0.5 0.4 0.7 0.9 0.7 0.1-0.2 0.3-0.4 0.5-0.5 0 0.2 0.1 0.2 0.2 0 0.2-0.3 0.4-0.6 0.5-0.9 0.1 0.2 0.1 0.3 0 0.5 0 0 0.1 0.1 0.2 0.1-0.2 0.4-0.3 0.8-0.6 1.1 0.1 0.1 0.1 0.2 0.2 0.2 0 0.1 0.1 0.1 0.2 0.2 0.1-0.3 0.2-0.5 0.3-0.7 0-0.1 0.1-0.1 0.2-0.1 0.2 0 0.2 0.1 0.2 0.3 0 0.3-0.1 0.5-0.3 0.7 0.1 0.1 0.2 0.2 0.3 0.3 0.1-0.2 0.2-0.5 0.4-0.7 0.1-0.6 0.2-0.6 0.2 0 0 0.1 0 0.2 0.1 0.2-0.2 0.2-0.4 0.3-0.4 0.6 0 0.3 0 0.7 0 1h-0.4l-0.4-0.3c-1.4-1.2-3.1-2-5-2.2-0.3-0.1-0.7-0.2-1.1-0.2l0.6-0.4-0.1-0.1c0.2 0 0.5 0 0.7 0 0 0 0.1 0.1 0.2 0.1 0-0.2 0.1-0.4 0.1-0.6 0.1 0.2 0.1 0.3 0.2 0.4 0.1 0.1 0.2 0.1 0.2 0 0.2 0.1 0.4 0.2 0.6 0.3l0.2-0.1c-0.1 0-0.2 0-0.2-0.1 0.2-0.1 0.4-0.3 0.4-0.6 0.2 0.1 0.3 0.1 0.4 0.2-0.1 0.2-0.2 0.3-0.1 0.5 0.2-0.2 0.3-0.4 0.3-0.7 0.4 0.1 0.4 0.2 0.1 0.3 0.1 0.2 0.1 0.4 0.2 0.5z"></path><path fill="#dccc99" d="m9.1 2.6c-0.3 0.3-0.6 0.5-0.9 0.7-1.4 0.9-2.6 2-3.6 3.4 0 0.2 0.1 0.3 0.4 0.3-0.1 0.1-0.2 0.2-0.3 0.3 0.2 0.1 0.4 0.2 0.5 0.4-0.1 0.2-0.1 0.4 0 0.6 0.1-0.1 0.1-0.1 0.2-0.1 0.2 0.4 0.4 0.9 0.7 1.3 0.1 0.1 0.3 0.1 0.5 0-0.1 0.2-0.2 0.4-0.4 0.6-0.1-0.1-0.1-0.2-0.2-0.3 0 0.3-0.2 0.4-0.4 0.5-0.5-0.7-0.9-1.4-1-2.3-0.1-0.1-0.2-0.2-0.4-0.3l-0.1-0.8c-0.1 0.2-0.2 0.2-0.3 0.1 0.1-0.1 0.2-0.3 0.2-0.5 0.3-0.2 0.5-0.3 0.7-0.4 0.7-0.7 1.4-1.5 2.1-2.2 0.7-0.4 1.5-0.8 2.3-1.3z"></path><path fill="#574226" d="m28.5 8.4l0.3 0.2c0.1 0.1 0.2 0.3 0.2 0.5-0.2-0.2-0.4-0.4-0.5-0.7z"></path><path fill="#6f6046" d="m26.8 8.8c-0.3 0.3-0.3 0.5 0 0.7-0.2 0.1-0.4 0-0.5-0.2 0.1-0.2 0.2-0.4 0.4-0.6 0.1 0 0.1 0.1 0.1 0.1z"></path><path fill="#f9f7d1" d="m12.3 5.1c-0.1 0.2-0.1 0.3-0.3 0.4 0.2 0.2 0.4 0.4 0.7 0.5-0.2 0-0.3 0-0.4 0.1-0.2 0-0.3 0.1-0.4 0.1-0.1 0.3-0.1 0.6 0 0.9 0.2 0.3 0.3 0.6 0.5 0.9 0 0.1 0.1 0.2 0.2 0.2 0.1 0.1 0.3 0.3 0.6 0.3 0.3 0 0.6-0.1 0.9-0.1-0.3 0.2-0.4 0.3-0.5 0.5-0.3 0.2-0.6 0.4-0.9 0.6-1.3 0.7-2.3 1.6-3 2.8-0.3 0.4-0.6 0.8-0.8 1.3-0.6-1.3-1.1-2.6-1.7-3.8-0.1-0.2-0.2-0.3-0.3-0.3 0.2-0.3 0.4-0.7 0.6-1 0.7-0.6 1.3-1.2 2-1.8 0.8-0.6 1.8-1.1 2.8-1.6z"></path><path fill="#60553e" d="m8.8 8.4c0.1 0 0.2 0 0.2 0.1-0.2 0.2-0.2 0.4-0.2 0.7 0.4 0.3 0.7 0.7 1 1.1-0.4-0.4-0.8-0.7-1.2-1.1 0-0.3 0.1-0.6 0.2-0.8z"></path><path fill="#d8cd9f" d="m8.8 8.4c-0.1 0.2-0.2 0.5-0.2 0.8 0.4 0.4 0.8 0.7 1.2 1.1 0.3 0.1 0.3 0.3 0 0.4-0.4-0.4-0.9-0.9-1.5-1.4-0.1 0.1-0.2 0.3-0.4 0.4-0.1-0.1-0.1-0.3-0.1-0.4 0.3-0.3 0.6-0.6 1-0.9z"></path><path fill="#403d33" d="m10.8 8.8c0.1 0.1 0.1 0.2 0.1 0.4-0.1-0.1-0.2-0.1-0.2-0.3 0 0 0-0.1 0.1-0.1z"></path><path fill="#564f3e" d="m11 7.5c0.3 0.5 0.6 1 1 1.4l-0.1 0.2c-0.1-0.4-0.4-0.7-0.8-0.8 0-0.3 0-0.6-0.1-0.8z"></path><path fill="#c8bf95" d="m11 7.5c0.1 0.2 0.1 0.5 0.1 0.8-0.1-0.3-0.3-0.6-0.5-0.8-0.2 0.1-0.3 0.2-0.5 0.3-0.1 0-0.1 0.1 0 0.4l0.3 0.3c0.1 0 0.1-0.1 0.1-0.1 0.3 0 0.4 0.1 0.3 0.4-0.1 0-0.1 0.1-0.1 0.1-0.1 0-0.2-0.1-0.1-0.3-0.5 0-0.9-0.3-1-0.8 0.3-0.5 0.7-0.7 1.3-0.6 0.1 0.1 0.1 0.2 0.1 0.3z"></path><path fill="#564d39" d="m10.1 7.8c0.1 0.2 0.2 0.4 0.4 0.6 0 0 0 0.1-0.1 0.1l-0.3-0.3c-0.1-0.3-0.1-0.4 0-0.4z"></path><path fill="#cab784" d="m16.1 8.6c0.1-0.1 0.3-0.1 0.6-0.1h1.2c0.3 0.3 0.5 0.6 0.8 0.9-0.1 0.4-0.2 0.7-0.2 1.1-0.2-0.1-0.3-0.2-0.4-0.4-0.2 0.1-0.3 0-0.1-0.2-0.2 0-0.3-0.2-0.2-0.3-0.2-0.3-0.3-0.2-0.4 0 0.4 0.4 0.3 0.5 0 0.2-0.1-0.2-0.1-0.5 0-0.7-0.4-0.1-0.3-0.2 0.2-0.2-0.5-0.2-1-0.3-1.5-0.3z"></path><path fill="#d6c694" d="m18.9 8.3c0-0.1 0.1-0.2 0.2-0.1 1.9 0.2 3.6 1 5 2.2-0.1 0-0.1 0-0.1 0.1l-0.5-0.3c-0.6-0.6-1.4-1-2.2-1.3-0.2-0.1-0.4-0.2-0.6-0.2-0.6-0.2-1.2-0.3-1.8-0.4z"></path><path fill="#4f3b20" d="m29 9.1c0.2 0 0.3 0.2 0.4 0.4-0.2-0.1-0.3-0.2-0.4-0.4z"></path><path fill="#6e5225" d="m21.3 8.9c0.8 0.3 1.6 0.7 2.2 1.3 0 0-0.1 0-0.1 0 0.1 0.1 0.2 0.3 0.2 0.4-0.7-0.5-1.4-1-2.2-1.3-0.1-0.1-0.2-0.2-0.1-0.4z"></path><path fill="#979077" d="m10.9 9.2c0.4 0.1 0.4 0.3 0.1 0.5 0.1-0.2 0-0.3-0.1-0.5z"></path><path fill="#fbf8bb" d="m28 8.4c2.3 2.5 3.5 5.4 3.6 8.8 0.1 0.4 0 0.8-0.3 1.1-0.4-0.5-0.7-1.1-1-1.7 0 0 0.1-0.1 0.1-0.1-0.5-0.7-0.9-1.4-1.2-2.2-0.7-1.6-1.3-3.2-2-4.9 0.2 0 0.4 0 0.6-0.1 0-0.3 0.1-0.5 0-0.8 0.1-0.1 0.1-0.1 0.2-0.1z"></path><path fill="#9f8451" d="m19 8.6c0.3 0.1 0.5 0.1 0.7 0 0.4 0.3 0.7 0.5 1.2 0.6 0-0.2 0-0.4-0.2-0.5 0.2 0 0.4 0.1 0.6 0.2-0.1 0.2 0 0.3 0.1 0.4 0.8 0.3 1.5 0.8 2.2 1.3 2.6 2.3 3.7 5.2 3.2 8.7 0-0.9 0-1.9-0.1-2.8-0.2 0-0.3 0-0.4-0.1-0.1 0.2-0.1 0.4-0.3 0.5 0-0.1 0-0.2 0.1-0.4-0.1-0.1-0.3-0.2-0.3-0.4-0.1 0.2-0.2 0.2-0.3 0 0.1-0.1 0.3-0.2 0.5-0.2-0.2-0.4-0.4-0.4-0.5 0-0.1-0.1-0.1-0.3 0-0.4-0.2-0.1-0.4-0.2-0.5-0.4 0.3-0.1 0.3-0.2 0-0.2 0-0.1 0.1-0.2 0.3-0.3 0-0.1 0-0.3 0-0.4-0.5 0.9-1.2 1.2-2.1 0.9l0.6-0.1c-0.3-0.1-0.3-0.2-0.1-0.3l-0.2-0.1c0.2 0 0.4-0.2 0.5-0.4 0.1-0.7 0.1-1.4-0.1-2.1l-0.1 2c-0.2 0.1-0.3 0-0.4-0.2-0.2-0.5-0.5-1.1-0.8-1.6-0.1 0.1-0.2 0.2-0.3 0.2 0-0.5 0.2-0.9 0.8-1.1-0.1-0.1-0.2-0.2-0.2-0.3-0.2 0.3-0.4 0.5-0.7 0.8l-0.3-0.5-0.1 0.1c0-0.3 0-0.7 0-1.1v-0.3c-0.2 0-0.4-0.1-0.5-0.3l-0.4 0.3c-0.3-0.3-0.5-0.6-0.5-0.9-0.5-0.2-0.9-0.4-1.4-0.6z"></path><path fill="#ac935f" d="m17.9 8.5c0.4 0 0.7 0 1.1 0.1 0.5 0.2 0.9 0.4 1.4 0.6 0 0.3 0.2 0.6 0.5 0.9l0.4-0.3c0.1 0.2 0.3 0.3 0.5 0.3v0.3c-0.1 0-0.1-0.1-0.1-0.2-0.1 0.4-0.1 0.8-0.2 1.2-0.2-0.1-0.3-0.1-0.5 0l0.2-0.1c-0.3-0.2-0.4-0.3-0.4-0.6h-0.5c0-0.3-0.1-0.6-0.1-0.9-0.1-0.1-0.2-0.1-0.3 0 0.1 0.3 0.1 0.5 0.1 0.7h-0.5c0-0.3-0.1-0.4-0.2-0.1-0.2-0.2-0.3-0.5-0.3-0.8-0.1-0.1-0.2-0.2-0.3-0.2-0.3-0.3-0.5-0.6-0.8-0.9z"></path><path fill="#58452c" d="m29.4 9.5c0.3 0.3 0.5 0.6 0.6 1-0.3-0.3-0.5-0.6-0.6-1z"></path><path fill="#8f7f5b" d="m2.4 8.9c0 0.2 0 0.3-0.1 0.5-0.2 0.4-0.5 0.8-0.7 1.1 0.1-0.6 0.4-1.1 0.8-1.6z"></path><path fill="#5a401c" d="m12.7 9.5c0.1 0 0.2 0.1 0.2 0.2-1.2 0.8-2.2 1.7-3 2.8l-0.2-0.2c0.7-1.2 1.7-2.1 3-2.8z"></path><path fill="#fbf9bc" d="m30.3 5.7c3.7 3.8 5.3 8.4 4.9 13.7-0.2 0.8-0.3 1.6-0.5 2.4-0.7-0.5-1.5-1-2.3-1.6-0.2-0.3-0.3-0.6-0.3-0.9v-2.8c0-0.3 0-0.5-0.2-0.7 0-0.5-0.1-1-0.3-1.5 0-0.3-0.1-0.5-0.2-0.7-0.1-0.5-0.2-0.9-0.5-1.3-0.1-0.6-0.4-1.2-0.9-1.8-0.1-0.4-0.3-0.7-0.6-1-0.1-0.2-0.2-0.4-0.4-0.4 0-0.2-0.1-0.4-0.2-0.5 0-0.5-0.1-1-0.2-1.5 0.1 0.1 0.2 0.2 0.3 0.4l0.3-0.7c0.1 0.1 0.2 0.1 0.3 0.1-0.1-0.3-0.1-0.5 0.2-0.6-0.1-0.1-0.1-0.2-0.1-0.3 0.2 0.1 0.3 0.1 0.4 0-0.4-0.1-0.4-0.2 0-0.3 0.1 0.2 0.2 0.2 0.3 0z"></path><path fill="#cdb678" d="m32.6 11c-0.2-0.3-0.3-0.6-0.5-0.9 0.2-0.1 0.3-0.1 0.5-0.3 0.1 0.4 0.3 0.7 0.6 0.9-0.2 0.2-0.4 0.2-0.6 0.3z"></path><path fill="#6d5126" d="m32.1 11.3c-0.2 0.1-0.3 0.1-0.4 0.2-0.1-0.2-0.1-0.4-0.1-0.6-0.2 0-0.4-0.1-0.5-0.3 0.2-0.1 0.3-0.2 0.5-0.3 0.1 0 0.1-0.1 0.2-0.1 0.1 0.3 0.2 0.6 0.4 0.9-0.1 0.1-0.1 0.1-0.1 0.2z"></path><path fill="#5e492c" d="m30 10.5c0.5 0.6 0.8 1.2 0.9 1.8-0.3-0.5-0.6-1.1-0.9-1.8z"></path><path fill="#9f8653" d="m32.1 10.1c0.2 0.3 0.3 0.6 0.5 0.9 0.1 0.7-0.1 0.8-0.5 0.3 0-0.1 0-0.1 0.1-0.2-0.2-0.3-0.3-0.6-0.4-0.9-0.1 0-0.1 0.1-0.2 0.1-0.1-0.7 0.1-0.7 0.5-0.2z"></path><path fill="#837454" d="m1.6 10.5c-0.2 0.7-0.4 1.3-0.7 1.8 0.1-0.6 0.3-1.2 0.7-1.8z"></path><path fill="#9b7f4f" d="m7.5 8.5c-0.2 0.3-0.4 0.7-0.6 1-0.2 0.2-0.3 0.4-0.4 0.6-0.2 0.2-0.3 0.4-0.4 0.6-0.3 0.3-0.4 0.5-0.5 0.8-0.1 0.3-0.2 0.5-0.3 0.8l-0.2 0.2c-0.1-0.1 0-0.3 0-0.4 0.3-0.7 0.7-1.4 1.1-2 0.2-0.2 0.3-0.4 0.4-0.6 0.3-0.4 0.6-0.7 0.9-1z"></path><path fill="#ede4b6" d="m6.9 9.5c0.1 0 0.2 0.1 0.3 0.3 0.6 1.2 1.1 2.5 1.7 3.8-0.1 0.2-0.2 0.5-0.4 0.7-0.4-1-0.8-2-1.2-3.1-0.2-0.3-0.4-0.6-0.7-0.9 0.2-0.2 0.2-0.2-0.1-0.2 0.1-0.2 0.2-0.4 0.4-0.6z"></path><path fill="#ded3a7" d="m16.1 8.6c0.5 0 1 0.1 1.5 0.3-0.5 0-0.6 0.1-0.2 0.2-0.1 0.2-0.1 0.5 0 0.7 0.3 0.3 0.4 0.2 0-0.2 0.1-0.2 0.2-0.3 0.4 0-0.1 0.1 0 0.3 0.2 0.3-0.2 0.2-0.1 0.3 0.1 0.2 0.1 0.2 0.2 0.3 0.3 0.4 0.1-0.4 0.2-0.7 0.3-1.1 0 0.4 0 0.9 0 1.3 0.1 0.2 0.2 0.4 0.4 0.5-0.1 0.8 0.1 1.4 0.7 1.8l-0.1 0.2c0.2 0 0.4 0 0.7 0-0.2 0.1-0.1 0.3 0.1 0.4l-0.4 0.1c0.4 0.2 0.7 0.1 1-0.3 0 0.3-0.1 0.4-0.3 0.5-0.4 0.1-0.9 0.1-1.3 0.2-0.6 0-1.1-0.1-1.6-0.2-0.2 0-0.3 0-0.3 0.1-0.2 0-0.4 0-0.5-0.1 0.1 0 0.3 0 0.3-0.1h0.7c0-0.5 0-1.1 0-1.6-0.4-0.2-0.5-0.5-0.5-0.9-0.3 0.6-0.2 1 0.2 1.5 0.1 0.2 0.1 0.5 0 0.8l-0.1-0.7c-0.2-0.2-0.3-0.4-0.4-0.6l-0.1-1.2-0.4-0.4 0.1-0.1c-0.2-0.2-0.3-0.4-0.5-0.5l0.1-0.1-0.4-0.2c0.1-0.2 0-0.3-0.1-0.4-0.3 0.5-0.2 0.8 0.3 1.2 0 0-0.1 0-0.1 0-0.1-0.1-0.3-0.2-0.4-0.3 0-0.5-0.1-0.9-0.3-1.4l-0.1-0.1c-0.4 0.2-0.7 0.2-1 0.3 0.5-0.3 1.1-0.5 1.7-0.5z"></path><path fill="#b7a26f" d="m24 14.2c-0.4 0.3-0.9 0.3-1.3 0-0.1-0.2-0.2-0.5-0.4-0.6 0-0.4 0-0.7 0-1.1 0.1 0 0.2-0.1 0.3-0.2 0.3 0.5 0.6 1.1 0.8 1.6 0.1 0.2 0.2 0.3 0.4 0.2l0.1-2c0.2 0.7 0.2 1.4 0.1 2.1z"></path><path fill="#bfa66d" d="m5.6 11.5c0.1 0.2 0.2 0.4 0.4 0.7l-0.1 0.1c0.3 0.3 0.5 0.6 0.7 1 0.3 1.1 0.6 2.1 1.1 3.1 0 0.4 0.1 0.9 0.2 1.3 0 0.4 0 0.8-0.1 1.1-0.1 0.2-0.2 0.3-0.4 0.2l0.1-0.1c-0.3-0.6-0.6-1.3-0.9-1.9l0.2-0.1c-0.5-0.8-0.8-1.6-1.1-2.4-0.1-0.2-0.2-0.3-0.3-0.3 0.2-0.3 0.1-0.5-0.2-0.7 0-0.1 0-0.2 0.1-0.2-0.1-0.1-0.2-0.1-0.2-0.2 0.1-0.2 0.2-0.5 0.2-0.8 0.1-0.3 0.2-0.5 0.3-0.8z"></path><path fill="#614a2b" d="m30.9 12.3c0.3 0.4 0.4 0.8 0.5 1.3-0.2-0.4-0.4-0.8-0.5-1.3z"></path><path fill="#d8c891" d="m29.1 4.4c1.3 1 2.4 2.2 3.2 3.5 0.2 0.2 0.4 0.4 0.6 0.5 0.6 1.2 1.2 2.5 1.7 3.8 0.9 3 1.1 6 0.5 9 0 0.2 0 0.4 0.1 0.6 0 0.2 0 0.4-0.1 0.5-0.2 0.1-0.3 0.3-0.3 0.5-0.2-0.5-0.3-0.5-0.3 0l-0.4-0.4c0 0.2-0.1 0.2-0.2 0.1-0.2-0.3-0.4-0.5-0.7-0.7-0.5-0.2-0.9-0.4-1.4-0.7v-0.5c0.1-0.4 0.2-0.9 0.3-1.3 0 0.3 0.1 0.6 0.3 0.9 0.8 0.6 1.6 1.1 2.3 1.6 0.2-0.8 0.3-1.6 0.5-2.4 0.4-5.3-1.2-9.9-4.9-13.7l-1.2-1.3z"></path><path fill="#3b2914" d="m9.7 12.3l0.2 0.2c-0.2 0.4-0.4 0.8-0.6 1.2-0.1 0.2-0.3 0.5-0.3 0.8-0.8 1.9-0.9 3.9-0.2 5.9 0 0.2 0 0.4 0.2 0.6 0.2 0.6 0.5 1.2 0.8 1.8-0.3-0.2-0.4-0.4-0.5-0.7-0.1 0.1-0.1 0.2-0.2 0.2-0.9-1.7-1.2-3.5-1.1-5.4 0.1-0.6 0.2-1.2 0.3-1.8 0.1-0.2 0.2-0.5 0.3-0.8 0.1-0.2 0.2-0.5 0.3-0.7 0.2-0.5 0.5-0.9 0.8-1.3z"></path><path fill="#2c1f12" d="m23.5 10.2l0.5 0.3c2.6 2.4 3.6 5.4 3.1 9-0.5 2.6-1.8 4.6-3.8 6.1-0.4 0.3-0.8 0.5-1.3 0.7 0.1-0.2 0.2-0.3 0.4-0.3-0.1-0.1-0.1-0.1-0.1-0.2 0.9-0.5 1.6-1.1 2.2-1.9 0.7-0.6 1.2-1.4 1.5-2.2 0.4-0.8 0.7-1.5 0.8-2.4 0.5-3.5-0.6-6.4-3.2-8.7 0-0.1-0.1-0.3-0.2-0.4 0 0 0.1 0 0.1 0z"></path><path fill="#eeebc9" d="m17.4 13.8c-1-0.2-2-0.4-3-0.6 0-0.1 0-0.1 0.1-0.1-0.7-0.6-1.2-1.3-1.6-2.1l0.2-0.1c0.3 0.9 0.9 1.5 1.8 1.9l-0.2 0.1c0.6 0.1 1-0.1 1.3-0.6-0.6-0.1-1.2-0.1-1.8-0.2 0-0.3-0.1-0.5-0.3-0.7-0.1-0.4-0.1-0.8 0.1-1.2 0.1 0 0.1 0.1 0.2 0.2-0.3 0.6-0.1 1.1 0.3 1.5l1.5 0.1c0.2 0.2 0.4 0.5 0.4 0.9 0-0.2 0.1-0.3 0.2-0.1 0.2-1-0.1-1.3-1.1-1.2l-0.2-0.2c0.3 0 0.7 0 1 0-0.1-0.2-0.1-0.3 0.1-0.4l-0.2-0.1c0.1-0.1 0.1-0.2 0-0.3 0 0 0.1 0 0.1 0-0.5-0.4-0.6-0.7-0.3-1.2 0.1 0.1 0.2 0.2 0.1 0.4l0.4 0.2-0.1 0.1c0.2 0.1 0.3 0.3 0.5 0.5l-0.1 0.1 0.4 0.4 0.1 1.2c0.1 0.2 0.2 0.4 0.4 0.6l0.1 0.7c0.1-0.3 0.1-0.6 0-0.8-0.4-0.5-0.5-0.9-0.2-1.5 0 0.4 0.1 0.7 0.5 0.9 0 0.5 0 1.1 0 1.6h-0.7z"></path><path fill="#c8b788" d="m18.7 9.4c0.1 0 0.2 0.1 0.3 0.2 0 0.3 0.1 0.6 0.3 0.8 0.1-0.3 0.2-0.2 0.2 0.1h0.5c0-0.2 0-0.4-0.1-0.7 0.1-0.1 0.2-0.1 0.3 0 0 0.3 0.1 0.6 0 0.9h0.6c0 0.3 0.1 0.4 0.3 0.6l-0.1 0.1c0.2-0.1 0.3-0.1 0.5 0 0.1-0.4 0.1-0.8 0.2-1.2 0 0.1 0 0.2 0.1 0.2 0 0.4 0 0.8 0 1.1l0.1-0.1 0.3 0.5c0.3-0.3 0.5-0.5 0.7-0.8 0 0.1 0.1 0.2 0.2 0.3-0.6 0.2-0.8 0.6-0.8 1.1 0 0.4 0 0.7 0 1.1 0.2 0.1 0.3 0.4 0.4 0.6 0.4 0.3 0.9 0.3 1.3 0-0.1 0.2-0.3 0.4-0.5 0.4l0.2 0.1c-0.2 0.1-0.2 0.2 0.1 0.3l-0.6 0.1c0.9 0.3 1.6 0 2.1-0.9 0 0.1 0 0.3 0 0.4-0.2 0.1-0.3 0.2-0.3 0.3-0.2 0.1-0.3 0.2-0.4 0.3l-1.4 0.1c-0.1 0.2-0.2 0.3-0.4 0.3-0.2-0.2-0.5-0.3-0.8-0.5-0.1-0.2-0.3-0.4-0.6-0.6-0.7-0.1-1.3-0.2-1.9-0.4 0.4-0.1 0.9-0.1 1.3-0.1 0.2-0.2 0.3-0.3 0.3-0.6-0.3 0.4-0.6 0.5-1 0.3l0.4-0.1c-0.2-0.1-0.3-0.3-0.1-0.4-0.3 0-0.5 0-0.7 0l0.1-0.1c-0.6-0.5-0.8-1.1-0.7-1.9-0.2-0.1-0.3-0.3-0.4-0.5 0-0.4 0-0.9 0-1.3z"></path><path fill="#e3d6a3" d="m6.5 10.1c0.3 0 0.3 0 0.1 0.2 0.3 0.3 0.5 0.6 0.7 0.9 0.4 1.1 0.8 2.1 1.3 3.1-0.1 0.3-0.2 0.6-0.3 0.8-0.1 0.1-0.1 0.2-0.1 0.3-0.1-0.4-0.2-0.7-0.3-1.1-0.3-0.3-0.6-0.8-0.8-1.2-0.2-0.5-0.3-1.1-0.4-1.7-0.2-0.2-0.4-0.5-0.6-0.7 0.1-0.2 0.2-0.4 0.4-0.6z"></path><path fill="#ceba85" d="m6.1 10.7c0.2 0.2 0.4 0.5 0.6 0.7 0.1 0.6 0.2 1.2 0.4 1.7 0.2 0.4 0.5 0.9 0.8 1.2 0.1 0.4 0.2 0.7 0.3 1.1 0-0.1 0-0.2 0.1-0.3-0.1 0.6-0.2 1.2-0.3 1.8-0.1 0.3-0.2 0.5-0.1 0.8-0.1-0.4-0.2-0.9-0.2-1.3-0.5-1-0.8-2-1.1-3.1-0.2-0.4-0.4-0.7-0.8-1l0.2-0.1c-0.2-0.3-0.3-0.5-0.4-0.7 0.1-0.3 0.2-0.5 0.5-0.8z"></path><path fill="#9e9779" d="m14.4 13.2c1 0.2 2 0.4 3 0.6 0 0.1-0.2 0.1-0.3 0.1-0.3 0-0.5-0.1-0.8-0.1-0.2-0.1-0.4-0.1-0.7-0.1-0.8-0.2-1.7-0.4-2.6-0.5l-0.1-0.2c0.5 0 1 0.1 1.5 0.2z"></path><path fill="#d9ce97" d="m26.7 10.3c0 0 0.1 0 0.2 0.1-0.1 0.1-0.1 0.3 0 0.5 0.2 0.7 0.6 1.4 0.9 2 0.4 1 0.8 2.1 1.2 3.1l1.7 2.8c0.2 0.2 0.5 0.4 0.7 0.6 0.1 0 0.1-0.1 0-0.2 0.1 0 0.1 0 0.2 0 0.2 0.6 0.1 1.1-0.1 1.7 0-0.3 0-0.5-0.1-0.7 0-0.2-0.1-0.2-0.2 0-0.2-0.3-0.5-0.6-0.8-0.9-0.6-0.8-1.1-1.7-1.6-2.6-0.1-0.4-0.1-0.8-0.2-1.1-0.8-1.7-1.5-3.5-1.9-5.3z"></path><path fill="#faf8d1" d="m16.2 10.6c0.1 0.1 0.1 0.2 0 0.3l0.2 0.1c-0.2 0.1-0.2 0.2-0.1 0.4-0.3 0-0.7 0-1 0l0.2 0.2c1-0.1 1.3 0.2 1.1 1.2-0.1-0.2-0.2-0.1-0.2 0.1 0-0.4-0.2-0.7-0.4-0.9l-1.5-0.1c-0.4-0.4-0.6-0.9-0.3-1.5-0.1-0.1-0.1-0.2-0.3-0.2-0.1 0.4-0.1 0.8 0 1.2 0.2 0.2 0.3 0.4 0.3 0.7 0.6 0.1 1.2 0.1 1.8 0.2-0.3 0.5-0.7 0.7-1.3 0.6l0.1-0.1c-0.8-0.4-1.4-1-1.8-1.9l-0.1 0.1c0.4 0.8 0.9 1.5 1.6 2.1-0.1 0-0.1 0-0.1 0.1-0.5-0.1-1-0.2-1.5-0.1l0.1 0.1c0.9 0.1 1.8 0.3 2.6 0.5-0.6 0.1-1.2 0.1-1.9 0-0.1-0.3-0.2-0.4-0.4-0.3 0 0.2 0.1 0.2 0.2 0.3-0.1 0.1-0.2 0.1-0.2 0.2 0.1 0.3 0.3 0.6 0.4 0.9 0.1 0.3 0.2 0.6 0.2 0.9 0.1 0.3 0.1 0.5 0.2 0.8-0.3 0-0.6-0.2-0.7-0.4l-1.4-0.1-0.4-0.4c0-0.7 0-1.3-0.2-1.9 0 0.6 0.1 1.3 0.1 2l0.5 0.5c0.8-0.1 1.4 0.1 1.9 0.6-0.3 0-0.7 0.1-1 0.3-0.7 0.1-1.4 0.1-2.1 0l-0.2-0.2-0.1-1.5c-0.2-0.2-0.3-0.4-0.5-0.6-0.1-0.4-0.2-0.4-0.5-0.1 0-0.2 0.1-0.4 0.1-0.6-0.2-0.1-0.2-0.3-0.3-0.4 0.2-0.4 0.4-0.8 0.6-1.2 0.8-1.1 1.8-2 3-2.8 0.5-0.3 1-0.5 1.5-0.6 0.3-0.1 0.6-0.1 1-0.3l0.1 0.1c0.2 0.5 0.3 0.9 0.3 1.4 0.1 0.1 0.3 0.2 0.4 0.3z"></path><path fill="#b0aa8b" d="m13.7 13.7c0.3 0.2 0.3 0.3-0.1 0.3 0 0.3 0.1 0.5 0.1 0.8-0.1-0.3-0.3-0.6-0.4-0.9 0-0.1 0.1-0.1 0.2-0.2-0.1-0.1-0.2-0.1-0.2-0.3 0.2-0.1 0.3 0 0.4 0.3z"></path><path fill="#634c2b" d="m31.4 13.6c0.1 0.2 0.2 0.4 0.2 0.7-0.1-0.2-0.2-0.4-0.2-0.7z"></path><path fill="#8d774c" d="m17.6 14c0-0.1 0.1-0.1 0.3-0.1 0.5 0.1 1 0.2 1.6 0.2 0.6 0.2 1.2 0.3 1.9 0.4 0.3 0.2 0.5 0.4 0.7 0.6-0.3 0-0.5-0.1-0.6-0.3-0.3 0.2-0.6 0.5-0.8 0.8-0.1 0-0.1-0.1-0.1-0.1 0.1-0.1 0.1-0.3 0.2-0.4 0.1-0.1 0.2-0.2 0.3-0.3-0.9-0.3-1.9-0.6-2.9-0.7-0.2 0-0.4 0-0.7-0.1z"></path><path fill="#816433" d="m5.1 12.5c-0.3 0.8-0.4 1.5-0.6 2.3-0.3 1-0.4 2.1-0.3 3.3 0 0.4 0 0.9-0.2 1.3-0.2-2 0-3.9 0.6-5.8 0.1-0.4 0.2-0.8 0.5-1.1z"></path><path fill="#796643" d="m0.8 12.5c-0.2 1.3-0.4 2.5-0.7 3.6v-1c0.2-0.9 0.4-1.7 0.7-2.6z"></path><path fill="#b7a370" d="m25.2 8.9c0.1 0 0.2 0.1 0.3 0.2-0.1 0.1-0.1 0.2 0 0.3l-0.1 0.2c-0.1 0.1-0.2 0.2-0.2 0.4 0.5 0.3 0.8 0.7 1 1.2 0.1 0.3 0.2 0.7 0.3 1 0.1-0.1 0.3 0 0.4 0.2l-0.1 0.1c0.3 0.5 0.4 1.1 0.5 1.7 0.3 0.9 0.7 1.8 1.1 2.6 0.1-0.1 0.2-0.1 0.2 0 0.6 1.7 1.5 3 2.8 4.1 0 0.2-0.1 0.5-0.2 0.6-0.6-0.7-1.2-1.3-1.9-2-0.5-0.7-1-1.4-1.3-2.2l-0.3 0.2-0.1-0.6c0 0.5-0.1 1-0.2 1.5 0.2-3-0.8-5.5-2.9-7.7h0.4c0-0.3 0-0.7 0-1 0-0.3 0.2-0.4 0.4-0.6-0.1 0-0.1-0.1-0.1-0.2z"></path><path fill="#70562f" d="m31.6 14.3c0.2 0.5 0.3 1 0.3 1.5 0.1 0.1 0 0.2 0 0.3-0.2-0.5-0.2-1.1-0.3-1.8z"></path><path fill="#faf9da" d="m13.7 13.7c0.7 0.1 1.3 0.1 1.9 0 0.3 0 0.5 0 0.7 0.1 0 0.1 0 0.2 0.1 0.3 0.3 0.1 0.6 0.3 0.9 0.5 0 0.7-0.1 1.4-0.4 2 0-0.1 0-0.2 0-0.3-0.2-0.1-0.3 0-0.4 0.2-0.1-0.1-0.2-0.1-0.3-0.1-0.5-0.7-1.1-1.4-1.7-1.9-0.1 0-0.1 0.1 0 0.2 0.4 0.4 0.8 0.9 1.3 1.3-0.2 0-0.3 0-0.4 0 0.1 0.2 0.1 0.3 0.2 0.5l0.1-0.1c0 0.2 0.1 0.3 0.1 0.5-0.4 0-0.6 0.2-0.6 0.6 0.2 0.3 0.4 0.5 0.6 0.8 0.4 0.3 0.8 0.6 1.1 0.9-0.2 0.5-0.3 1-0.4 1.6 0.1 0.2 0.1 0.5 0 0.7-0.1 0-0.2-0.2-0.3-0.3 0-0.3-0.1-0.6-0.3-0.9-0.1-0.5-0.3-1-0.6-1.5-0.2-0.7-0.4-1.3-0.8-2 0-0.2-0.1-0.4-0.2-0.5-0.1-0.6-0.3-1.1-0.6-1.5 0-0.3-0.1-0.5-0.1-0.8 0.4 0 0.4-0.1 0.1-0.3z"></path><path fill="#8c846a" d="m16.2 16.4l-0.4-0.4c-0.5-0.4-0.9-0.9-1.3-1.3-0.1-0.1-0.1-0.2 0-0.2 0.6 0.5 1.2 1.2 1.7 1.9z"></path><path fill="#eee6b7" d="m17.6 14c0.2 0.1 0.4 0.1 0.6 0.1 0.5 0.3 1 0.6 1.5 0.9-0.1 0.2 0 0.4 0.2 0.5-0.3 0.4-0.6 0.9-0.9 1.5-0.1 0.2-0.2 0.4-0.4 0.5 0.3-0.8 0.2-1.5-0.3-2.1 0.1-0.1 0.1-0.2 0.2-0.2-0.1-0.2-0.2-0.3-0.2-0.5l-0.1 0.1c-0.1-0.2-0.1-0.3-0.1-0.5-0.2 0.1-0.4 0-0.5 0 0.1-0.1 0.1-0.2 0-0.3z"></path><path fill="#8e876c" d="m13.7 14.8c0.3 0.4 0.5 0.9 0.6 1.5-0.1-0.2-0.3-0.4-0.4-0.6 0-0.3-0.1-0.6-0.2-0.9z"></path><path fill="#b19761" d="m5.3 12.3c0 0.3-0.1 0.6-0.2 0.8 0 0.1 0.1 0.1 0.2 0.2-0.1 0-0.1 0.1-0.1 0.2 0.3 0.2 0.4 0.4 0.2 0.7 0.1 0 0.2 0.1 0.3 0.3 0.3 0.8 0.6 1.6 1.1 2.4l-0.2 0.1c0.3 0.6 0.6 1.3 0.9 1.9l-0.1 0.1c0.2 0.1 0.3 0 0.4-0.2 0.1-0.3 0.1-0.7 0.1-1.1-0.1-0.3 0-0.5 0.1-0.8-0.1 1.9 0.2 3.7 1.1 5.4 0.3 0.7 0.8 1.2 1.3 1.7v0.1c-0.3 0.1-0.3 0.2 0 0.3-0.1 0.3-0.2 0.5-0.3 0.7-0.1 0-0.2-0.1-0.3-0.3-0.1-0.1-0.1-0.1-0.2-0.1-0.2-0.3-0.3-0.6-0.3-0.9-0.5-0.2-0.7-0.6-0.6-1.1-0.2 0-0.3 0-0.4-0.1-0.3-1-0.7-1.9-1.4-2.6 0-0.7-0.3-1.2-0.8-1.5 0-0.2 0-0.3 0.1-0.4-0.3-0.3-0.4-0.7-0.5-1.1h-0.3c-0.3-0.5-0.4-1.1-0.4-1.8-0.1-0.2-0.2-0.3-0.3-0.5l-0.1 0.3c-0.1 0-0.1-0.1-0.1-0.2 0.2-0.8 0.3-1.5 0.6-2.3l0.2-0.2z"></path><path fill="#cbb681" d="m22.1 15.1c0.2 0.3 0.5 0.6 0.8 0.8-0.4 0.3-0.8 0.5-1.3 0.7 0.1-0.3 0.1-0.5-0.2-0.6 0.1-0.2 0-0.2-0.2-0.1-0.1-0.1 0-0.2 0.1-0.3-0.2 0-0.4 0-0.6 0 0.2-0.3 0.5-0.6 0.8-0.8 0.1 0.2 0.3 0.3 0.5 0.3z"></path><path fill="#dfd09c" d="m18.2 14.1c1 0.1 2 0.4 3 0.7-0.2 0.1-0.3 0.2-0.4 0.3h-0.3v0.5h-0.4c-0.2 0.6-0.5 1.1-1.1 1.4 0.3-0.6 0.6-1.1 0.9-1.5-0.2-0.1-0.3-0.3-0.2-0.5-0.5-0.3-1-0.6-1.5-0.9z"></path><path fill="#cabb87" d="m26.7 8.3c0.1 0 0.2 0.2 0.3 0.3l-0.2 0.2c0 0 0-0.1-0.1-0.1-0.2 0.2-0.3 0.4-0.4 0.6 0.1 0.2 0.3 0.3 0.5 0.2 0.1 0 0.2 0.1 0.2 0.2-0.1 0.2-0.3 0.4-0.3 0.6 0.4 1.8 1.1 3.6 1.9 5.3 0.1 0.3 0.1 0.7 0.2 1.1 0.5 0.9 1 1.8 1.6 2.6 0.3 0.3 0.6 0.6 0.8 0.9 0.1-0.2 0.2-0.2 0.2 0 0.1 0.2 0.1 0.4 0.1 0.7h-0.1c-1.3-1.1-2.2-2.4-2.8-4.1 0-0.1-0.1-0.1-0.2 0-0.4-0.8-0.8-1.7-1.1-2.6-0.1-0.6-0.2-1.2-0.5-1.7l0.1-0.1c-0.1-0.2-0.3-0.3-0.4-0.2-0.1-0.3-0.2-0.7-0.3-1-0.2-0.5-0.5-0.9-1-1.2 0-0.2 0.1-0.3 0.2-0.4 0 0.1 0 0.1 0.1 0.1 0.4-0.4 0.8-0.9 1.2-1.4z"></path><path fill="#5d533f" d="m26 9.5c0 0 0.1 0.1 0.1 0.1-0.3 0.3-0.2 0.6 0.2 0.8 0 0.1 0 0.2 0 0.2-0.2-0.2-0.4-0.4-0.6-0.5 0-0.2 0.1-0.4 0.3-0.6z"></path><path fill="#65491f" d="m33.5 16.3c0.1 0.2 0.2 0.5 0.1 0.9-0.1-0.1-0.3 0-0.4 0.1-0.1 0-0.2-0.1-0.2-0.1 0.3-0.4 0.2-0.6-0.2-0.9 0.3 0 0.5-0.1 0.7 0z"></path><path fill="#a88d56" d="m9.6 24.7c-0.1 0-0.2 0-0.3-0.1-0.2-0.2-0.4-0.5-0.4-0.8h-0.4c0.1-0.2 0-0.5 0-0.7-0.4-0.3-0.6-0.7-0.7-1.2-0.6-0.6-1.1-1.2-1.8-1.7l-0.3-0.8c-0.1 0.2-0.2 0.2-0.4 0-0.3-0.5-0.6-1-1-1.6 0 0.1-0.1 0.2-0.1 0.3-0.1-1.2 0-2.3 0.3-3.3 0 0.1 0 0.2 0.1 0.2l0.1-0.3c0.1 0.1 0.2 0.3 0.3 0.5 0 0.7 0.1 1.3 0.4 1.8h0.3c0.1 0.4 0.2 0.8 0.5 1.1-0.1 0.1-0.1 0.2-0.1 0.3 0.5 0.4 0.8 0.9 0.8 1.6 0.7 0.7 1.1 1.6 1.4 2.6 0.1 0.1 0.2 0.1 0.4 0.1-0.1 0.5 0.1 0.9 0.6 1.1 0 0.3 0.1 0.6 0.3 0.9z"></path><path fill="#9b814e" d="m33.9 15.8c0 0.5 0.1 1.1 0.1 1.6-0.1 0.4-0.2 0.4-0.4 0-0.1-0.1-0.2-0.2-0.4-0.1 0.1-0.1 0.3-0.2 0.4-0.1 0.1-0.4 0-0.7-0.1-0.9 0-0.2 0.1-0.4 0.1-0.5 0.1-0.1 0.2-0.1 0.3 0z"></path><path fill="#c8b073" d="m33.9 15.8c0.1 0.1 0.1 0.2 0.1 0.3 0.2 0 0.4 0 0.6 0.1-0.2 0.3-0.2 0.6 0.2 0.9-0.3 0-0.6 0.1-0.8 0.3 0-0.5-0.1-1.1-0.1-1.6z"></path><path fill="#faf8d0" d="m16.3 13.8c0.3 0 0.5 0.1 0.8 0.1 0.1 0.1 0.3 0.1 0.5 0.1 0.1 0.1 0.1 0.2 0 0.3 0.1 0 0.3 0.1 0.5 0 0 0.2 0 0.3 0.1 0.5l0.1-0.1c0 0.2 0.1 0.3 0.1 0.5 0 0 0 0.1-0.1 0.2 0.5 0.6 0.6 1.3 0.3 2.1-0.1 0.1-0.2 0.2-0.3 0.2-0.1 0.1-0.2 0.2-0.4 0.2-0.3-0.2-0.6-0.5-0.9-0.7 0.2 0.3 0.4 0.6 0.8 0.9l0.1 0.2c-0.2 1.8-0.3 3.6-0.5 5.4-0.2-0.1-0.3-0.3-0.4-0.5 0-0.3-0.2-0.6-0.3-0.9-0.1-0.3-0.2-0.5-0.2-0.8 0.1-0.2 0.1-0.5 0-0.7 0.1-0.6 0.2-1.1 0.4-1.6-0.3-0.3-0.7-0.6-1.1-0.9-0.2-0.3-0.4-0.5-0.6-0.8 0-0.4 0.2-0.6 0.6-0.6 0-0.2-0.1-0.3-0.1-0.5l-0.1 0.1c-0.1-0.2-0.1-0.3-0.2-0.5 0.1 0 0.2 0 0.4 0l0.4 0.4c0.1 0 0.2 0 0.3 0.1 0.1-0.2 0.2-0.3 0.4-0.2 0 0.1 0 0.2 0 0.3 0.3-0.6 0.4-1.3 0.4-2-0.3-0.2-0.6-0.4-0.9-0.5-0.1-0.1-0.1-0.2-0.1-0.3z"></path><path fill="#e4d8a9" d="m20.7 15.6c0.2 0 0.4 0 0.6 0-0.1 0.1-0.2 0.2-0.1 0.3 0.2-0.1 0.3-0.1 0.2 0.1 0.3 0.1 0.3 0.3 0.2 0.6-0.5 0.2-1 0.3-1.5 0.6-0.3 0.1-0.6 0.2-0.9 0.4-0.1 0-0.3 0-0.4 0 0.6-0.7 1.3-1.3 1.9-2z"></path><path fill="#e6dfb7" d="m24 10.5c0-0.1 0-0.1 0.1-0.1l0.4 0.3c2.1 2.2 3.1 4.7 3 7.7-0.2 1.3-0.5 2.5-0.9 3.7-0.8 1.4-1.9 2.6-3.2 3.6-0.1 0-0.1 0-0.1-0.1 2-1.5 3.3-3.5 3.8-6.1 0.5-3.6-0.5-6.6-3.1-9z"></path><path fill="#ad945e" d="m25 14.9c0.3 0 0.3 0.1 0 0.2 0.1 0.2 0.3 0.3 0.5 0.4-0.1 0.1-0.1 0.3 0 0.4 0.1-0.4 0.3-0.4 0.5 0-0.2 0-0.4 0.1-0.5 0.2 0.1 0.2 0.2 0.2 0.3 0 0 0.2 0.2 0.3 0.3 0.4-0.1 0.2-0.1 0.3-0.1 0.4 0.2-0.1 0.2-0.3 0.3-0.5 0.1 0.1 0.2 0.1 0.4 0.1 0.1 0.9 0.1 1.9 0.1 2.8-0.1 0.9-0.4 1.6-0.8 2.4 0-0.3 0-0.6-0.1-0.9-0.2-0.2-0.5-0.4-0.7-0.6 0.1-0.3 0.4-0.4 0.7-0.4-0.4-0.1-0.7-0.2-1-0.2l0.1-0.1c-0.3-0.2-0.3-0.3 0.1-0.4-0.1-0.1-0.1-0.2-0.2-0.3 0 0.2-0.1 0.3-0.3 0.3v-0.3c0.5-0.2 1-0.2 1.5-0.1-0.4-0.2-0.9-0.2-1.3-0.3 0.1-0.1 0.2-0.3 0.4-0.4-0.3-0.1-0.5-0.3-0.5-0.6 0.4 0.4 0.8 0.5 1.3 0.5l0.1-0.1c-0.3-0.1-0.6-0.1-0.9-0.1-0.4-0.5-1-0.7-1.6-0.7 0.2-0.1 0.4-0.2 0.6-0.4l-0.1-0.1c-0.1 0.1-0.2 0.2-0.3 0.2-0.2-0.2-0.3-0.3-0.5-0.4 0-0.1 0-0.2 0.1-0.2-0.2-0.2-0.4-0.4-0.6-0.5 0.2 0 0.3-0.1 0.4-0.3l1.4-0.1c0.1-0.1 0.2-0.2 0.4-0.3z"></path><path fill="#d5d0ad" d="m14 15.7c0 0.2 0.2 0.4 0.3 0.6 0.1 0.1 0.2 0.3 0.2 0.5-0.2-0.3-0.3-0.2-0.3 0.2-0.8 0.2-1.5 0.3-2.3 0.4-0.4 0-0.8-0.1-1.2-0.2l-0.2-0.2-0.1-1.5c-0.2-0.2-0.4-0.4-0.4-0.7 0.2 0.2 0.3 0.4 0.5 0.6l0.1 1.5 0.2 0.2c0.7 0.1 1.4 0.1 2.1 0 0.3-0.2 0.7-0.3 1-0.3-0.5-0.5-1.1-0.7-1.9-0.6l-0.5-0.5c0-0.7-0.1-1.4-0.1-2 0.2 0.6 0.2 1.2 0.2 1.9l0.4 0.4 1.4 0.1c0.1 0.2 0.4 0.4 0.7 0.4-0.1-0.3-0.1-0.5-0.2-0.8z"></path><path fill="#775c30" d="m22.1 15.1c0.2 0.2 0.5 0.3 0.7 0.5 0.2 0.1 0.4 0.3 0.6 0.5-0.1 0-0.1 0.1-0.1 0.2-0.3 0.3-0.6 0.8-0.8 1.2l-0.3 0.2c0.2-0.5 0.6-1.1 1-1.6-0.1-0.1-0.1-0.1-0.3-0.2-0.3-0.2-0.6-0.5-0.8-0.8z"></path><path fill="#8c8160" d="m17.9 17.9c0 0.1 0 0.2-0.1 0.2-0.4-0.3-0.6-0.6-0.8-0.9 0.3 0.2 0.6 0.5 0.9 0.7z"></path><path fill="#c8bf97" d="m9.9 17.3c0.2 0 0.4 0.2 0.6 0.4 0.9 0 1.8 0 2.8 0 0.2-0.4 0.6-0.5 1-0.4-0.4 0-0.7 0.2-0.9 0.5-0.3 0-0.7 0-1 0-0.7 0-1.4 0-2.1 0l-0.2-0.2c-0.3-0.1-0.5-0.2-0.8-0.3l0.2-0.1c0.1 0.1 0.3 0.1 0.4 0.1z"></path><path fill="#b09b68" d="m22.9 15.9c0.2 0.1 0.2 0.1 0.3 0.2-0.4 0.5-0.8 1.1-1 1.6-0.2 0.4-0.4 0.7-0.6 0.9-0.1 0.2-0.3 0.4-0.4 0.6 0.1-0.6 0.4-1.1 0.7-1.6 0.7-0.6 0.6-0.9-0.3-0.8l-1.3 0.5c-0.1 0-0.1-0.1-0.2-0.1 0.5-0.3 1-0.4 1.5-0.6 0.5-0.2 0.9-0.4 1.4-0.7z"></path><path fill="#8f876c" d="m14.5 16.8c0.4 0.7 0.6 1.3 0.8 2-0.1-0.1-0.2-0.3-0.3-0.5-0.2-0.5-0.4-1-0.5-1.5z"></path><path fill="#ebe3ab" d="m27 8.6c0.3 0.2 0.5 0.5 0.8 0.7-0.2 0.1-0.4 0.1-0.6 0.2 0.7 1.6 1.3 3.2 2 4.8 0.3 0.8 0.7 1.5 1.2 2.2 0 0-0.1 0.1-0.1 0.1 0.3 0.6 0.6 1.2 1 1.7 0.3-0.3 0.4-0.7 0.3-1.1 0.1 0.5 0.1 1.1 0 1.8v0.2c-0.1 0-0.1 0-0.2 0 0.1 0.1 0.1 0.2 0 0.2-0.2-0.2-0.5-0.4-0.7-0.6l-1.7-2.8c-0.4-1-0.8-2.1-1.2-3.1-0.4-0.6-0.7-1.3-0.9-2-0.1-0.2-0.1-0.4 0-0.6-0.1 0-0.2 0-0.2 0 0-0.2 0.2-0.4 0.3-0.6 0-0.1-0.1-0.2-0.2-0.2-0.3-0.2-0.3-0.4 0-0.7l0.2-0.2z"></path><path fill="#eae2b5" d="m9 14.5c0.3 0.9 0.6 1.8 0.9 2.8-0.1 0-0.3 0-0.4-0.1l-0.2 0.1c0.3 0.1 0.5 0.2 0.8 0.3l0.2 0.2c0.7 0 1.4 0 2.1 0-0.7 0.1-1.4 0.2-2.1 0.2 0.1 0.1 0.2 0.2 0.3 0.3-0.2 0.4-0.5 0.5-0.9 0.3-0.1-0.2-0.2-0.4-0.2-0.7-0.4-0.3-0.5-0.7-0.3-1.2-0.2-0.2-0.4-0.4-0.4-0.7-0.2 1.5-0.2 3 0.2 4.4l-0.1 0.2c0-0.1 0-0.1-0.1-0.2-0.7-2-0.6-4 0.2-5.9z"></path><path fill="#eadfb2" d="m21.9 17.6c-0.3 0.5-0.6 1-0.8 1.6-0.3 0.3-0.6 0.7-0.8 1.2-0.2 0.2-0.4 0.4-0.6 0.6 0.2-0.5 0.4-0.9 0.8-1.3-0.2-0.1-0.3-0.2-0.3-0.4-0.1 0.4-0.2 0.4-0.2 0-0.1 0.1-0.1 0.2-0.2 0.3-0.1-0.1-0.2-0.3-0.3-0.4-0.2 0-0.3 0-0.4-0.2-0.1-0.1-0.1-0.2-0.2-0.3 0.1-0.2 0.1-0.4 0.1-0.6-0.4-0.1-0.7 0-1 0.3 0-0.1 0-0.1-0.1-0.1l-0.1-0.2c0.1 0 0.1-0.1 0.1-0.2 0.2 0 0.3-0.1 0.4-0.2 0.1 0.1 0.2 0.2 0.3 0.2 0.9-0.1 1.7-0.4 2.6-0.8 0.2-0.1 0.5-0.1 0.7-0.1v0.6z"></path><path fill="#c7b886" d="m20.8 15.1c-0.1 0.1-0.1 0.3-0.2 0.4 0 0 0 0.1 0.1 0.1-0.6 0.7-1.3 1.3-1.9 2 0.1 0 0.3 0 0.4 0 0.3-0.2 0.6-0.3 0.9-0.4 0.1 0 0.1 0.1 0.2 0.1l1.3-0.5c0.9-0.1 1 0.2 0.3 0.8v-0.6c-0.2 0-0.5 0-0.8 0.1-0.8 0.4-1.6 0.7-2.5 0.8-0.1 0-0.2-0.1-0.3-0.2 0.1 0 0.2-0.1 0.3-0.2 0.2-0.1 0.3-0.3 0.4-0.5 0.6-0.3 0.9-0.8 1.1-1.4h0.4v-0.5h0.3z"></path><path fill="#c8b27b" d="m23.3 16.3c0.2 0.1 0.3 0.2 0.5 0.4 0.1 0 0.2-0.1 0.3-0.2l0.1 0.1c-0.2 0.2-0.4 0.3-0.6 0.4 0.6 0 1.2 0.2 1.6 0.7 0.3 0 0.6 0 0.9 0.1l-0.1 0.1c-0.5 0-0.9-0.1-1.3-0.5 0 0.3 0.2 0.5 0.5 0.6-0.2 0.1-0.3 0.3-0.4 0.4 0.4 0.1 0.9 0.1 1.3 0.3-0.5-0.1-1-0.1-1.5 0.1-0.8 0.3-1.4 0.1-1.9-0.6 0.3 0 0.3-0.1 0.1-0.3 0.4-0.1 0.6-0.3 0.7-0.6-0.2 0.1-0.4 0.3-0.6 0.4-0.1-0.1-0.2-0.2-0.4-0.2 0.2-0.4 0.5-0.9 0.8-1.2z"></path><path fill="#f7f3c8" d="m9.3 13.7c0.1 0.1 0.1 0.3 0.3 0.4 0 0.2-0.1 0.4-0.1 0.6 0.3-0.3 0.4-0.3 0.5 0.1 0 0.3 0.2 0.5 0.4 0.7l0.1 1.5 0.2 0.2c0.4 0.1 0.8 0.2 1.2 0.2 0.8-0.1 1.5-0.2 2.3-0.4 0-0.4 0.1-0.5 0.3-0.2 0.1 0.5 0.3 1 0.5 1.5 0 0.1-0.1 0.3-0.2 0.4-0.2 0-0.4 0-0.6 0.1l-0.8 0.8c-0.5-0.1-1 0.1-1.3 0.5-0.1 0.5-0.1 1.1 0 1.7 0 0 0.1 0.1 0.2 0.1 0.4 0.3 0.7 0.7 0.6 1.2 0.1-0.2 0.1-0.3 0.1-0.5 0.1 0.4 0.3 0.7 0.6 1 0-0.1 0.1-0.1 0.1-0.1-0.2 0.4-0.5 0.7-0.9 0.9 0.1 0.1 0.2 0.2 0.2 0.3 0.2-0.4 0.5-0.7 0.8-0.9 0.1-0.1 0.2-0.3 0.3-0.5 0 0.1 0.1 0.1 0.1 0.2 0 0.5 0 1-0.1 1.6 0 0.3 0.2 0.3 0.3 0-0.1-0.5-0.1-1-0.1-1.5 0.2-0.2 0.4-0.4 0.4-0.6l0.3 0.1c-0.1 0.4 0 0.8 0.2 1.1 0.1 0.6 0.1 1.1 0.1 1.6 0.1 0 0.2 0 0.3-0.1-0.1-0.4-0.1-0.9-0.1-1.3 0.1-0.1 0.2-0.2 0.2-0.3 0.2 0.2 0.2 0.4 0 0.5 0.3 0.4 0.6 0.9 0.8 1.3 0.1-0.3 0-0.5-0.2-0.8-0.1-0.3-0.1-0.7 0-1.1 0.3 0.1 0.3 0.2 0 0.4 0 0 0.1 0.1 0.2 0.2l0.3-0.4 0.2 0.4c0 0.4 0 0.8 0 1.2 0.1 0.1 0.1 0.2 0.2 0.2 0-0.4 0-0.8 0.1-1.3 0.3 0.4 0.3 0.8 0.1 1.3 0.2 0.2 0.4 0.2 0.5-0.1-0.2-0.6-0.1-1.1 0.3-1.5 0 0.3 0.2 0.5 0.4 0.7 0.1-0.2 0.1-0.2 0.2-0.1 0.1 0.4 0.1 0.7 0.3 0.9-0.2-0.8-0.3-1.7-0.3-2.7l0.2 0.5c0.2 0.1 0.4 0.3 0.6 0.5 0.1 0.3 0.1 0.6 0.2 0.8 0.3 0.3 0.5 0.6 0.7 0.9-0.3 0.1-0.3 0.2 0 0.3-0.3 0.1-0.4 0.3-0.5 0.5-1.6 0.5-3.2 0.5-4.8 0-1.9-0.6-3.6-1.6-4.9-3.1-0.1-0.3-0.3-0.6-0.5-0.8-0.3-0.6-0.6-1.2-0.8-1.8 0-0.2 0-0.3 0.2-0.1 0.5 1.4 1.3 2.6 2.4 3.7-0.3-0.8-0.6-1.5-0.9-2.2 0.2-0.2 0.5-0.5 0.7-0.7l0.1-2.1c0.2-0.2 0.4-0.3 0.6-0.4-0.3-0.1-0.5 0-0.7 0.3l-0.1 2c0 0.1-0.1 0.1-0.2 0.2-0.1-0.2-0.1-0.3 0-0.5 0-0.1-0.1-0.1-0.1 0-0.1-0.3-0.2-0.6-0.4-0.9 0.3-0.4 0.4-0.8 0.4-1.3l0.1-0.2 2.3-0.1c-0.8-0.1-1.6-0.1-2.4 0l-0.3 0.3-0.1 1c-0.3 0.3-0.6 0.2-0.8-0.2-0.4-0.6-0.2-1 0.5-1l0.4-0.3 2.6-0.2c0.2-0.4 0.6-0.6 1.1-0.6-0.5-0.2-0.9 0-1.1 0.4-0.9 0-1.8 0.1-2.7 0.2-0.1-0.1-0.2-0.2-0.3-0.3 0.7 0 1.4-0.1 2.1-0.2 0.3 0 0.7 0 1 0 0.2-0.3 0.5-0.5 0.9-0.5-0.4-0.1-0.8 0-1 0.4-1 0-1.9 0-2.8 0-0.2-0.2-0.4-0.4-0.6-0.4-0.3-1-0.6-1.9-0.9-2.8 0-0.3 0.2-0.6 0.3-0.8z"></path><path fill="#9f9673" d="m17.9 18.3c0.1 0 0.1 0 0.1 0.1-0.1 1.9-0.3 3.7-0.6 5.3 0.2-1.8 0.3-3.6 0.5-5.4z"></path><path fill="#dbcd9e" d="m24.6 18.8v0.3c-0.4 0-0.9 0-1.3-0.1-0.2-0.2-0.3-0.2-0.4 0.1-0.9-0.9-0.9-0.9-0.1 0.1 0 0.3 0.1 0.6 0.4 0.8l1.1 0.1c-0.2 0.1-0.4 0.3-0.6 0.4-0.2-0.1-0.4-0.1-0.7-0.1-0.4 0.3-0.3 0.4 0.2 0.5 0.3-0.2 0.4-0.1 0.3 0.3-0.6 0.1-1 0-1.4-0.4 0.1-0.8-0.1-1.5-0.5-2.2 0.2-0.2 0.4-0.5 0.6-0.9l0.3-0.2c0.2 0 0.3 0.1 0.4 0.2 0.2-0.1 0.4-0.3 0.6-0.4-0.1 0.3-0.3 0.5-0.7 0.6 0.2 0.2 0.2 0.3-0.1 0.3 0.5 0.7 1.1 0.9 1.9 0.6z"></path><path fill="#fbf9d7" d="m15 18.3c0.1 0.2 0.2 0.4 0.3 0.5 0.1 0.6 0.3 1.1 0.6 1.5 0 0.3 0.1 0.6 0.3 0.9l0.2 0.9c0 0.2-0.1 0.3-0.3 0.1-0.2 0.1-0.3 0.2-0.4 0.4-0.1 0.3-0.1 0.7 0 1.1l0.1-1c0.3-0.3 0.5-0.3 0.7 0l-0.1 0.1c0.1 0.6 0.4 1.2 0.7 1.7 0 0-0.1 0.1-0.1 0.1l-0.2-0.4-0.3 0.4c-0.1-0.1-0.2-0.2-0.2-0.2 0.3-0.2 0.3-0.3 0-0.4-0.1 0.4-0.1 0.8 0 1.1 0.2 0.3 0.3 0.5 0.2 0.8-0.2-0.4-0.5-0.9-0.7-1.3 0.1-0.1 0.1-0.3-0.1-0.5 0 0.1-0.1 0.2-0.2 0.3 0-0.2-0.1-0.3-0.3-0.4 0-0.6 0-1.2 0-1.8 0.3-0.2 0.5-0.4 0.9-0.4-0.9 0-1.3 0.4-1.1 1.3l-0.3-0.1c0-0.4 0-0.9 0.1-1.3 0.3-0.3 0.6-0.5 1.1-0.4-0.5-0.2-0.9-0.1-1.2 0.2l-0.1 1.6c-0.1 0.2-0.3 0.3-0.4 0.4 0-0.1-0.1-0.1-0.1-0.2-0.1 0.2-0.2 0.4-0.3 0.5 0.1-0.7 0-1.4 0-2.1-0.4-0.5-0.5-0.9-0.4-1.5l1-1 0.6-0.1c-0.3-0.1-0.5-0.1-0.7 0l-1.1 1.1c-0.2 0.6 0 1.1 0.5 1.6 0 0.5 0 1.1 0 1.7 0 0-0.1 0-0.1 0.1-0.3-0.3-0.5-0.6-0.6-1 0 0.2 0 0.3-0.1 0.5 0.1-0.5-0.2-0.9-0.6-1.2-0.1-0.6 0-1.2 0-1.8l0.2-0.2 0.9-0.1c0.4-0.5 0.9-0.9 1.5-1.1 0-0.1 0.1-0.3 0.1-0.4z"></path><path fill="#aa8f5b" d="m31.2 21.5c0 0.2 0 0.3-0.1 0.4-0.1-0.2-0.1-0.3-0.3-0.4l0.1-0.1c-0.1-0.1-0.3-0.2-0.4-0.4-0.6-0.2-1.1-0.4-1.7-0.8-0.1 0.1-0.2 0.2-0.2 0.3 0 0.2 0.1 0.4 0.1 0.6 0 0.3-0.1 0.5-0.2 0.7 0.1 0.3 0.1 0.6 0 0.9-0.2 0.3-0.4 0.7-0.5 1 0.2 0.3 0.2 0.5-0.1 0.6l0.2 0.2-0.2 0.6c0 0.2-0.1 0.5-0.3 0.7l-0.1-0.2c-0.1 0.1-0.2 0.1-0.4 0.1-0.3-0.3-0.6-0.6-0.9-0.9-0.1 0-0.1 0.1-0.1 0.1-0.1 0-0.1-0.1-0.1-0.1 0.1-0.2 0.2-0.3 0.3-0.4 0-0.2 0-0.4 0-0.6 0-0.1-0.1-0.1-0.2-0.2 0.1-0.1 0.1-0.2 0-0.3 0.2 0 0.2-0.1 0.1-0.3 0.3-0.2 0.4-0.5 0.3-0.9 0.5-1.2 0.8-2.4 0.9-3.7 0.1-0.5 0.2-1 0.2-1.5l0.1 0.6 0.3-0.2c0.3 0.8 0.8 1.5 1.3 2.2 0.7 0.7 1.3 1.3 1.9 2z"></path><path fill="#8f886e" d="m15.3 18.8c0.3 0.5 0.5 1 0.6 1.5-0.3-0.4-0.5-0.9-0.6-1.5z"></path><path fill="#9c804c" d="m9.6 24.7c0.1 0 0.1 0 0.2 0.1-0.1 0-0.1 0-0.1 0.1-0.1 0-0.2 0-0.3 0.1l0.5 0.6c-0.1 0.2-0.2 0.4-0.3 0.6-0.1-0.2-0.2-0.4-0.4-0.5-0.1 0-0.1 0.1-0.1 0.1h-0.1c0-0.1 0-0.2-0.1-0.3l0.4-0.1-1.7-1.7c-0.1 0-0.2 0-0.3 0v-0.4c-0.3 0.1-0.5-0.1-0.6-0.4-0.1 0.1-0.2 0.1-0.3 0.1-0.1-0.2-0.3-0.4-0.4-0.6-0.3 0.1-0.4 0-0.5-0.3l-0.2 0.2c-0.2-0.4-0.4-0.9-0.6-1.4 0-0.1-0.1-0.2-0.2-0.1-0.1-0.5-0.2-0.9-0.3-1.3 0 0.1-0.1 0.2 0 0.2-0.1 0-0.2-0.1-0.2-0.3 0.2-0.4 0.2-0.9 0.2-1.3 0-0.1 0.1-0.2 0.1-0.3 0.4 0.6 0.7 1.1 1 1.6 0.2 0.2 0.3 0.2 0.4 0l0.3 0.8c0.7 0.5 1.2 1.1 1.8 1.7 0.1 0.5 0.3 0.9 0.7 1.2 0 0.2 0.1 0.5 0 0.7h0.4c0 0.3 0.2 0.6 0.4 0.8 0.1 0.1 0.2 0.1 0.3 0.1z"></path><path fill="#9a8861" d="m21.2 19.2c-0.2 0.3-0.4 0.6-0.6 0.9-0.1 0.1-0.2 0.2-0.3 0.3 0.2-0.5 0.5-0.9 0.9-1.2z"></path><path fill="#d5c898" d="m10.6 18.3c0.9-0.1 1.8-0.2 2.7-0.2 0.2-0.4 0.6-0.6 1.1-0.4-0.5 0-0.9 0.2-1.1 0.6l-2.6 0.2-0.3 0.3c-0.8 0-1 0.4-0.6 1 0.2 0.4 0.5 0.5 0.8 0.2l0.1-1 0.3-0.3c0.8-0.1 1.6-0.1 2.4 0l-2.3 0.1-0.1 0.2c0 0.5-0.1 0.9-0.4 1.3-0.4 0.1-0.7 0.1-1 0.1 0.1 0.7 0.4 1.3 0.9 1.8 0.2-0.1 0.5-0.3 0.6-0.5 0.1-0.1 0.2-0.1 0.2-0.2l0.1-2c0.2-0.3 0.4-0.4 0.8-0.3-0.3 0.1-0.5 0.2-0.7 0.4l-0.1 2.1c-0.2 0.2-0.5 0.5-0.7 0.7 0.3 0.7 0.6 1.4 0.9 2.2-1.1-1.1-1.9-2.3-2.4-3.7-0.2-0.2-0.2-0.1-0.2 0.1-0.2-0.2-0.2-0.4-0.2-0.6 0.1 0.1 0.1 0.1 0.1 0.2l0.1-0.2c-0.4-1.4-0.4-2.9-0.2-4.4 0 0.3 0.2 0.5 0.4 0.7-0.2 0.5-0.1 0.9 0.3 1.2 0 0.3 0.1 0.5 0.2 0.7 0.4 0.2 0.7 0.1 0.9-0.3z"></path><path fill="#cec8a4" d="m14.8 18.7c-0.5 0.2-1 0.6-1.4 1.1l-0.9 0.1-0.2 0.2c0 0.6-0.1 1.2 0 1.8-0.1 0-0.2-0.1-0.2-0.1-0.1-0.6-0.1-1.2 0-1.7 0.3-0.4 0.8-0.6 1.3-0.5l0.8-0.8c0.2-0.1 0.4-0.1 0.6-0.1z"></path><path fill="#8e8770" d="m15.9 20.3c0.2 0.3 0.3 0.6 0.3 0.9-0.2-0.3-0.3-0.6-0.3-0.9z"></path><path fill="#010100" d="m35.8 18.8v17.1h-17.1c-0.1 0-0.3-0.1-0.5-0.1 1 0.1 2.1 0 3.1-0.3-0.2 0-0.4 0-0.6-0.1 1.3-0.2 2.6-0.6 3.8-1.1 0.6-0.2 1.1-0.4 1.5-0.7 1.3-0.7 2.6-1.5 3.7-2.5 0.5-0.4 1-0.9 1.3-1.5 0.3-0.2 0.6-0.4 0.9-0.7 0.1-0.2 0.1-0.3 0.2-0.5 0.3-0.6 0.7-1.2 1.1-1.8 0.1 0 0.2 0 0.3-0.1 0.4-0.7 0.7-1.5 0.9-2.3 0.3-0.6 0.6-1.2 0.7-1.9 0.1-0.1 0.1-0.3 0.1-0.5 0.2-1 0.4-2 0.6-3z"></path><path fill="#020100" d="m0.1 20.5c0.3 1.8 0.9 3.5 1.6 5.1 0.1 0.2 0.3 0.3 0.4 0.4 0.4 0.5 0.7 1 0.9 1.5 0 0.1 0 0.1-0.1 0.2 0.4 0.5 0.8 1.1 1.3 1.6 0.1 0.1 0.2 0.1 0.3 0.1 1.2 1.3 2.5 2.4 3.9 3.4 0.2 0.3 0.5 0.5 0.8 0.7 1.8 0.9 3.7 1.5 5.6 1.9 0.7 0.1 1.4 0.2 2.1 0.2 1.3 0 2.5 0 3.8-0.2 0.2 0.1 0.4 0.1 0.6 0.2-1 0.2-2.1 0.3-3.1 0.2 0.2 0 0.4 0.1 0.5 0.1h-18.6v-15.4z"></path><path fill="#65481c" d="m4.5 20.8c0.2 0.7 0.4 1.4 0.6 2.1-0.5-1-0.8-2-0.9-3.2-0.1 0 0-0.1 0-0.2 0.1 0.4 0.2 0.8 0.3 1.3z"></path><path fill="#c4ad75" d="m25.2 20.2c0.2 0.2 0.5 0.4 0.7 0.6 0.1 0.3 0.1 0.6 0.1 0.9-0.3 0.8-0.8 1.6-1.5 2.2 0-0.2 0.1-0.4 0.3-0.6-0.1-0.1-0.2-0.2-0.3-0.2 0.2 0 0.4 0 0.6 0 0-0.2 0-0.3 0.2-0.4-0.2-0.1-0.2-0.3-0.2-0.5 0.1 0.3 0.2 0.4 0.4 0.2-0.1-0.2-0.2-0.4-0.1-0.6-0.3-0.1-0.6-0.3-0.9-0.7l0.1-0.1c-0.2-0.1-0.4-0.2-0.5-0.4 0.3-0.3 0.7-0.4 1.1-0.4z"></path><path fill="#ece2b2" d="m10.6 20.3c0.2 0.3 0.3 0.6 0.4 0.9 0-0.1 0.1-0.1 0.1 0-0.1 0.2-0.1 0.3 0 0.5-0.1 0.2-0.4 0.4-0.6 0.5-0.5-0.5-0.8-1.1-0.9-1.8 0.3 0 0.6 0 1-0.1z"></path><path fill="#d5c087" d="m24.6 19.1c0.2 0 0.3-0.1 0.3-0.3 0.1 0.1 0.1 0.2 0.2 0.3-0.4 0.1-0.4 0.2-0.1 0.4l-0.1 0.1c0.3 0 0.6 0.1 1 0.2-0.3 0-0.6 0.1-0.7 0.4-0.4 0-0.8 0.1-1.1 0.4 0.1 0.2 0.3 0.3 0.5 0.4l-0.1 0.2c0.3 0.3 0.6 0.5 0.9 0.6-0.1 0.2 0 0.4 0.1 0.6-0.2 0.2-0.3 0.1-0.4-0.2 0 0.2 0 0.4 0.2 0.5-0.2 0.1-0.2 0.2-0.2 0.4-0.2 0-0.4 0-0.6 0 0.1 0 0.2 0.1 0.2 0.2-0.1 0.2-0.2 0.4-0.2 0.6-0.6 0.8-1.3 1.4-2.2 1.9h-0.1c-0.3 0.1-0.4 0-0.5-0.3 0.2 0 0.3-0.1 0.5-0.3-0.1-0.3-0.1-0.7-0.3-1.1 0.1-0.2 0.3-0.4 0.4-0.5 0.2 0.2 0.4 0.4 0.6 0.6l0.2-0.1c-0.2-0.2-0.4-0.4-0.6-0.6 0.1-0.3 0.2-0.5 0.2-0.8 0.2 0 0.3 0 0.4-0.1 0.2 0.4 0.5 0.6 0.9 0.7-0.4-0.3-0.7-0.7-0.9-1.2-0.1-0.1-0.2-0.1-0.3-0.1-0.4-0.1-0.8-0.2-1.2-0.2 0.5-0.1 1 0 1.5 0.1l0.1-0.1c-0.1-0.1-0.2-0.1-0.3-0.3 0.3-0.1 0.6-0.2 0.8-0.2 0-0.1-0.1-0.1-0.2-0.1 0.1-0.4 0-0.5-0.3-0.3-0.5-0.1-0.6-0.2-0.2-0.5 0.3 0 0.5 0 0.7 0.1 0.2-0.1 0.4-0.3 0.6-0.4l-1.1-0.1c-0.3-0.2-0.4-0.5-0.4-0.8-0.8-1-0.8-1 0.1-0.1 0.1-0.3 0.2-0.3 0.4-0.1 0.4 0.1 0.9 0.1 1.3 0.1z"></path><path fill="#c8c29f" d="m14.7 23c0 0.2-0.2 0.4-0.4 0.6 0 0.5 0 1 0.1 1.5-0.1 0.3-0.3 0.3-0.3 0 0.1-0.6 0.1-1.1 0.1-1.6 0.1-0.1 0.3-0.2 0.4-0.4l0.1-1.6c0.3-0.3 0.7-0.4 1.2-0.2-0.5-0.1-0.8 0.1-1.1 0.4-0.1 0.4-0.1 0.9-0.1 1.3z"></path><path fill="#bab495" d="m16.2 21.2c0.1 0.1 0.2 0.3 0.3 0.3 0 0.3 0.1 0.5 0.1 0.8l-0.2-0.2-0.2-0.9z"></path><path fill="#d6d1ae" d="m15.5 24.4c0 0.4 0 0.9 0.1 1.3-0.1 0.1-0.2 0.1-0.3 0.1 0-0.5 0-1-0.1-1.6-0.2-0.3-0.3-0.7-0.2-1.1-0.2-0.9 0.2-1.3 1.1-1.3-0.4 0-0.6 0.2-0.9 0.4 0 0.6 0 1.2 0 1.8 0.2 0.1 0.3 0.2 0.3 0.4z"></path><path fill="#eee9c1" d="m19.7 21c-0.1 0.2-0.2 0.4-0.2 0.5 0.3-0.3 0.6-0.7 0.8-1.1 0.1-0.1 0.2-0.2 0.3-0.3 0 0.3 0 0.5 0 0.8-0.2 0.3-0.3 0.6-0.4 1-0.2 0-0.3 0-0.5-0.2l0 0.1c0.1 0.1 0.2 0.3 0.3 0.5-0.2 0.4-0.2 0.9 0 1.3-0.2 0.7 0 1.2 0.5 1.6l-0.2 0.2-0.4-0.5c-0.1 0-0.1 0.1-0.1 0.1-0.1-0.2-0.1-0.5-0.2-0.8-0.2-0.2-0.4-0.4-0.6-0.5l-0.2-0.5c0 1 0.1 1.9 0.3 2.7-0.2-0.2-0.2-0.5-0.3-0.9-0.1-0.1-0.1-0.1-0.2 0.1-0.2-0.2-0.4-0.4-0.4-0.7-0.4 0.4-0.5 0.9-0.3 1.5-0.1 0.3-0.3 0.3-0.5 0.1 0.2-0.5 0.2-0.9-0.1-1.3-0.1 0.5-0.1 0.9-0.1 1.3-0.1 0-0.1-0.1-0.2-0.2 0-0.4 0-0.8 0-1.2 0 0 0.1-0.1 0.1-0.1-0.3-0.5-0.6-1.1-0.7-1.7l0.1-0.1c-0.2-0.3-0.4-0.3-0.7 0l-0.1 1c-0.1-0.4-0.1-0.8 0-1.1 0.1-0.2 0.2-0.3 0.4-0.4 0.2 0.2 0.3 0.1 0.3-0.1l0.3 0.2c0 0.4 0.1 0.7 0.3 0.9 0.1 0.2 0.2 0.4 0.4 0.5 0.3-1.6 0.5-3.4 0.6-5.3 0.3-0.3 0.6-0.4 1-0.3 0 0.2 0 0.4-0.1 0.6 0.1 0.1 0.1 0.2 0.2 0.3 0.1 0.2 0.2 0.2 0.4 0.2 0.1 0.1 0.2 0.3 0.3 0.4 0.1-0.1 0.1-0.2 0.2-0.3 0 0.4 0.1 0.4 0.2 0 0 0.2 0.1 0.3 0.3 0.4-0.4 0.4-0.6 0.8-0.8 1.3z"></path><path fill="#9b8c68" d="m20.3 20.4c-0.2 0.4-0.5 0.8-0.8 1.1 0-0.1 0.1-0.3 0.2-0.5 0.2-0.2 0.4-0.4 0.6-0.6z"></path><path fill="#988152" d="m32.1 16.5v2.8c-0.1 0.4-0.2 0.9-0.3 1.3-0.2 0.8 0 1.2 0.7 1.5-0.1 0.3-0.2 0.5-0.4 0.7 0-0.3-0.2-0.4-0.4-0.2-0.2-0.1-0.3-0.3-0.3-0.4 0.2-0.4 0.2-0.7 0.1-1v-0.3c0.2-0.6 0.3-1.1 0.1-1.7v-0.2c0.1 0.1 0.2 0.2 0.2 0.4 0.1-1 0.2-2 0.3-2.9z"></path><path fill="#cbc5a0" d="m13.8 23.8c-0.3 0.2-0.6 0.5-0.7 0.9-0.1-0.1-0.2-0.2-0.3-0.3 0.4-0.2 0.7-0.5 0.9-0.9 0-0.6 0-1.2 0-1.7-0.5-0.5-0.7-1-0.5-1.6l1.1-1.1c0.2-0.1 0.4-0.1 0.7 0l-0.6 0.1-1 1c-0.1 0.6 0 1 0.4 1.5 0 0.7 0.1 1.4 0 2.1z"></path><path fill="#8b7f5e" d="m16.7 22.3c0.1 0.3 0.3 0.6 0.3 0.9-0.2-0.2-0.3-0.5-0.3-0.9z"></path><path fill="#b6a16d" d="m31.8 20.6v0.5c0.5 0.3 0.9 0.5 1.4 0.7 0.3 0.2 0.5 0.4 0.7 0.7 0.1 0.1 0.2 0.1 0.2-0.1l0.4 0.4c0-0.5 0.1-0.5 0.3 0 0-0.2 0.1-0.4 0.3-0.5-0.1 0.7-0.4 1.3-0.7 1.9 0.1-0.4 0.1-0.8 0.2-1.2-0.2 0.4-0.3 0.8-0.5 1.1 0-0.2 0-0.4-0.2-0.5-0.2 0.1-0.4 0.1-0.7 0-0.1 0.1-0.3 0.2-0.5 0.3-0.2-0.1-0.2-0.3-0.1-0.6 0.1 0.1 0.1 0.2 0.2 0.4 0-0.6 0.1-1.1 0.5-1.5-0.3 0-0.5 0-0.8-0.1-0.7-0.3-0.9-0.7-0.7-1.5z"></path><path fill="#593e16" d="m9.8 22.8c0.2 0.2 0.4 0.5 0.5 0.8 0.1 0.2 0.1 0.3 0 0.4-0.4-0.5-0.9-1-1.2-1.7 0.1 0 0.1-0.1 0.2-0.2 0.1 0.3 0.2 0.5 0.5 0.7z"></path><path fill="#8a6d40" d="m4.5 20.8c0.1-0.1 0.2 0 0.2 0.1 0.2 0.5 0.4 1 0.6 1.4l0.2-0.2c0.1 0.3 0.2 0.4 0.5 0.3 0.1 0.2 0.3 0.4 0.4 0.5 0.1 0.1 0.2 0.1 0.3 0 0.1 0.3 0.3 0.5 0.6 0.4v0.4c0.1 0 0.2 0 0.4 0l1.6 1.7-0.4 0.1c0.1 0.1 0.1 0.2 0.1 0.3-0.1 0-0.1 0.1-0.1 0.1l0.3 0.5c-0.1 0.1-0.2 0.3-0.3 0.4l-0.1-0.2c-0.1-0.3-0.3-0.6-0.6-0.8l-0.1 0.2c-0.1-0.3-0.3-0.5-0.7-0.7l0.2-0.1c-0.2 0-0.4-0.1-0.6-0.2l-0.5-0.5h-0.5c-0.4-0.5-0.7-1.1-0.9-1.6-0.2-0.7-0.4-1.4-0.6-2.1z"></path><path fill="#e0d09c" d="m22.8 22c0.1 0 0.2 0 0.3 0.1 0.2 0.5 0.5 0.9 0.9 1.2-0.4-0.1-0.7-0.3-0.9-0.7-0.1 0.1-0.2 0.1-0.4 0.1 0 0.3-0.1 0.5-0.2 0.8 0.2 0.2 0.4 0.4 0.6 0.6l-0.2 0.1c-0.2-0.2-0.4-0.4-0.6-0.6-0.1 0.1-0.3 0.3-0.4 0.5 0.2 0.4 0.2 0.8 0.3 1.1-0.2 0.2-0.3 0.3-0.5 0.3 0.1 0.3 0.2 0.4 0.5 0.3-0.3 0.2-0.5 0.3-0.8 0.5 0-0.1-0.1-0.2-0.1-0.3 0.2-0.1 0.3-0.3 0.2-0.5-0.1 0.1-0.2 0.1-0.4 0-0.1-0.3-0.2-0.6-0.1-0.9 0.1 0 0.2 0 0.3 0.1 0.1-0.1 0.1-0.2 0.2-0.2l0.2 0.6 0.1 0c0-0.5-0.2-0.8-0.5-1.1l0.3-0.3c-0.1 0-0.1-0.1 0-0.2 0.2-0.1 0.4-0.2 0.6-0.2-0.7 0-1.3-0.1-1.8-0.2 0.1-0.1 0.2-0.1 0.2 0 0.1-0.2 0.2-0.3 0.3-0.4l0.1 0.1c0.5-0.6 1.1-0.8 1.8-0.8z"></path><path fill="#795d33" d="m31.5 21.2c0.1 0.3 0.1 0.6-0.1 1 0 0.1 0.1 0.3 0.3 0.4 0.2-0.2 0.4-0.1 0.4 0.2 0.2-0.2 0.3-0.4 0.4-0.7 0.3 0.1 0.5 0.1 0.8 0.1-0.4 0.4-0.5 0.9-0.5 1.5-0.1-0.2-0.1-0.3-0.2-0.4-0.1 0.3-0.1 0.5 0.1 0.6 0.2-0.1 0.4-0.2 0.5-0.3 0.3 0.1 0.5 0.1 0.7 0 0.2 0.1 0.2 0.3 0.2 0.5-0.3 0.5-0.5 1-0.8 1.5 0-0.2 0-0.3-0.1-0.4l0.2-0.3c-0.1-0.1-0.2-0.3-0.3-0.4l-0.2 0.2c-0.4-0.2-0.6-0.1-0.6 0.3-0.2 0-0.4 0-0.6 0.1l0.1 0.3-0.4 0.4c0 0.1 0.1 0.2 0.1 0.3-0.3 0.5-0.5 1.1-0.7 1.7 0.3 0.1 0.3 0.1 0 0.2 0.2 0.3 0.4 0.5 0.6 0.6l-0.7 0.8c-0.3-0.2-0.3-0.5-0.1-0.8 0.3-0.1 0.3-0.3 0-0.4 0-0.3 0-0.5 0.1-0.7l-0.1-0.1c-0.2 0.2-0.3 0.2-0.6 0.2 0.1 0.3 0 0.5-0.2 0.6-0.2 0.3-0.5 0.3-0.8 0 0.2-0.1 0.4-0.2 0.6-0.1 0-0.3 0-0.6-0.1-0.9 0.2 0 0.2-0.1 0.1-0.2 0.1-0.3 0.2-0.6 0.3-0.8l-0.2-0.2 0.3-0.2c-0.1 0.1-0.2 0-0.2-0.2-0.1 0.1-0.1 0.1-0.2 0.1 0.9-1.4 1.5-2.9 1.9-4.5z"></path><path fill="#4d3b23" d="m0.1 19.2c0.2 1.2 0.5 2.4 0.7 3.6 0.4 1.1 0.9 2.2 1.3 3.2-0.1-0.1-0.3-0.2-0.4-0.4-0.7-1.6-1.3-3.3-1.6-5.1v-1.3z"></path><path fill="#e9e0b1" d="m21.6 18.6c0.4 0.7 0.6 1.4 0.5 2.2 0.4 0.4 0.8 0.5 1.4 0.4 0.1 0 0.2 0 0.2 0.1-0.2 0-0.5 0.1-0.7 0.2 0 0.2 0.1 0.2 0.2 0.3l-0.1 0.1c-0.5-0.1-1-0.2-1.5-0.1 0.4 0 0.8 0.1 1.2 0.2-0.7 0-1.3 0.2-1.8 0.8l-0.1-0.1c-0.1 0.1-0.2 0.2-0.3 0.4 0-0.1-0.1-0.1-0.2 0 0.5 0.1 1.1 0.2 1.8 0.2-0.2 0-0.4 0.1-0.6 0.2-0.1 0.1-0.1 0.2 0 0.2l-0.3 0.3c0.3 0.3 0.5 0.6 0.5 1.1l-0.1 0-0.2-0.6c-0.1 0-0.1 0.1-0.2 0.2-0.1-0.1-0.2-0.1-0.3-0.1-0.1 0.3 0 0.6 0.2 0.9 0.1 0.1 0.2 0.1 0.3 0 0.1 0.2 0 0.4-0.2 0.5 0 0.1 0.1 0.2 0.1 0.3-0.5 0.1-0.9 0.2-1.3 0.4h-0.1c0.1-0.2 0.2-0.4 0.5-0.5-0.3-0.1-0.3-0.2 0-0.3-0.2-0.3-0.4-0.6-0.7-0.9 0 0 0-0.1 0.1-0.1l0.4 0.5 0.2-0.2c-0.5-0.4-0.7-0.9-0.5-1.6-0.2-0.4-0.2-0.9 0-1.3-0.1-0.2-0.2-0.4-0.3-0.5l0-0.1c0.2 0.2 0.3 0.2 0.5 0.2 0.1-0.4 0.2-0.7 0.4-1 0-0.3 0-0.5 0-0.8 0.2-0.3 0.4-0.6 0.6-0.9 0.1-0.2 0.3-0.4 0.4-0.6z"></path><path fill="#3e2d1a" d="m9.8 24.8c0.1 0.2 0.2 0.3 0.3 0.3l0.1 0.3c-0.2-0.1-0.4-0.2-0.5-0.5 0-0.1 0-0.1 0.1-0.1z"></path><path fill="#453421" d="m27.1 25.7l0.5 0.6c-0.5-0.4-1-0.7-1.4-1.2l-0.1-0.2c0 0 0-0.1 0.1-0.1 0.3 0.3 0.6 0.6 0.9 0.9z"></path><path fill="#47331a" d="m34.4 24.2c-0.2 0.8-0.5 1.6-0.9 2.3-0.1 0.1-0.2 0.1-0.3 0.1 0.4-0.8 0.8-1.6 1.2-2.4z"></path><path fill="#6d5129" d="m33.3 25.6c-0.5 1.1-1.1 2.1-1.9 3-0.2-0.1-0.4-0.3-0.6-0.6 0.3-0.1 0.3-0.1 0-0.2 0.2-0.6 0.4-1.2 0.7-1.7 0-0.1-0.1-0.2-0.1-0.3l0.4-0.4-0.1-0.3c0.2-0.1 0.4-0.1 0.6-0.1 0-0.4 0.2-0.5 0.6-0.3l0.2-0.2c0.1 0.1 0.2 0.3 0.3 0.4l-0.2 0.3c0.1 0.1 0.1 0.2 0.1 0.4z"></path><path fill="#cbb67d" d="m26.6 22.1c0 0.4-0.1 0.7-0.4 0.9 0.1 0.2 0.1 0.3-0.1 0.3 0.1 0.1 0.1 0.2 0 0.3 0.1 0.1 0.2 0.1 0.2 0.2 0 0.2 0 0.4 0 0.6-0.1 0.1-0.2 0.2-0.3 0.3 0 0.1 0 0.2 0.1 0.2l0.1 0.2v0.2c-0.1-0.1-0.2-0.2-0.3-0.3-0.1 0.1-0.2 0.2-0.1 0.3 0.1 0.2 0.2 0.4 0.3 0.6-0.1 0.1-0.1 0.2-0.2 0.2 0.1 0.1 0.1 0.2 0 0.3-0.1-0.1-0.1-0.1-0.2 0-0.2-0.2-0.3-0.3-0.5-0.4-0.3-0.3-0.4-0.2-0.2 0.2 0.3 1 0.2 1-0.4 0.1-0.1 0-0.3 0.1-0.5 0.1 0.1 0.2 0.1 0.3 0.1 0.4-0.1-0.1-0.3-0.2-0.4-0.3-0.1 0-0.1 0.1-0.1 0.1-0.2 0.1-0.4 0.1-0.5 0.2-0.3 0-0.6-0.1-0.7-0.4 0.3-0.2 0.6-0.5 0.9-0.7 1.3-1 2.4-2.2 3.2-3.6z"></path><path fill="#957849" d="m31.1 21.9c-0.7 2.1-1.8 3.9-3.3 5.5-0.3-0.1-0.3-0.2 0-0.3-0.1-0.1-0.2-0.2-0.3-0.3-0.1 0.2-0.3 0.3-0.5 0.3 0.3-0.3 0.7-0.6 1-0.9 0-0.1 0-0.2-0.1-0.3-0.1 0.1-0.3 0.2-0.3 0.4l-0.5-0.6c0.2 0 0.3 0 0.4-0.1l0.1 0.2c0.2-0.2 0.3-0.5 0.3-0.7l0.2-0.6-0.2-0.2c0.3-0.1 0.3-0.3 0.1-0.6 0.1-0.3 0.3-0.7 0.5-1 0.1-0.3 0.1-0.6 0-0.9 0.1-0.2 0.2-0.4 0.2-0.7 0-0.2-0.1-0.4-0.1-0.6 0-0.1 0.1-0.2 0.2-0.3 0.6 0.4 1.1 0.6 1.7 0.8 0.1 0.2 0.3 0.3 0.4 0.4l-0.1 0.1c0.2 0.1 0.2 0.2 0.3 0.4z"></path><path fill="#413525" d="m9.6 26.2c-0.3-0.1-0.4-0.2-0.5-0.4 0 0 0-0.1 0.1-0.1 0.2 0.1 0.3 0.3 0.4 0.5z"></path><path fill="#f0e2b1" d="m26.2 25.3c0.3 0.4 0.6 0.8 1 1.1 0 0.1 0 0.2 0 0.3-0.4-0.5-0.9-1-1.4-1.4-0.1-0.1 0-0.2 0.1-0.3 0.1 0.1 0.2 0.2 0.3 0.3z"></path><path fill="#644822" d="m3.3 25.8c0.2-0.1 0.4-0.1 0.6 0.1 0.2 0.3 0.4 0.4 0.7 0.5v-0.4c0.3 0.1 0.6 0.2 0.8 0.4l-0.1 0.2c0.2 0.1 0.2 0.3 0.3 0.6 0.1-0.2 0.2-0.3 0.4-0.1 0 0.2 0.1 0.4 0.1 0.6 0.2-0.5 0.4-0.5 0.6 0.1l0.1-0.2c0.2 0.4 0.4 0.8 0.8 1l0.1-0.1c0 0.2-0.1 0.3-0.2 0.5 0.1 0.2 0.1 0.3 0.2 0.5 0.3 0.1 0.6 0.2 0.8 0.3 0.2 0.1 0.2 0.2 0.2 0.4h0.3c0.3 0.3 0.4 0.8 0.6 1.4-0.2-0.1-0.3 0-0.5 0 0.1 0.1 0.1 0.3 0.1 0.4 0.3 0 0.5 0.1 0.7 0.2 0 0.1-0.1 0.2-0.1 0.2 0.2 0.1 0.3 0.2 0.4 0.3 0 0.1-0.1 0.2-0.2 0.2-0.2-0.2-0.5-0.3-0.8-0.1-0.4-0.1-0.7-0.4-1-0.7 1 0.5 1.1 0.5 0.4-0.3l0.1-0.3c-0.2-0.1-0.3-0.2-0.3-0.4l-0.1 0.2c-0.2-0.2-0.3-0.4-0.3-0.6 0.1 0 0.2-0.1 0.2-0.2 0-0.2-0.1-0.4-0.2-0.5-0.4-0.1-0.6-0.3-0.8-0.6-0.2-0.1-0.4-0.1-0.6-0.2 0-0.2 0.1-0.3 0.3-0.4l-1.6-1.1c0 0.1-0.1 0.1-0.1 0.1-0.2-0.1-0.3-0.4-0.2-0.6-0.3-0.1-0.5-0.2-0.7-0.4-0.2 0.1-0.4 0.2-0.6 0.1 0-0.2 0-0.4-0.2-0.6-0.1 0-0.3 0-0.6 0 0.4 0.5 0.8 1 1.1 1.5l-0.1 0.1c0.2 0.2 0.4 0.3 0.5 0.5l0.2-0.1c0 0.3 0.1 0.5 0.3 0.7 0.2-0.3 0.4-0.3 0.6 0 0 0.2 0 0.4 0 0.6-0.1-0.2-0.2-0.2-0.2 0-1.2-1-2.1-2.3-2.7-3.7 0.1-0.1 0.2-0.2 0.3-0.4 0 0.1 0 0.3 0 0.4 0.2 0.1 0.3 0 0.4-0.1z"></path><path fill="#dbce9e" d="m11.6 25.4c0.6 0.4 1.3 0.9 2 1.2-1-0.3-1.1-0.1-0.3 0.6h-0.5c-0.2 0.6-0.4 1.3-0.8 1.9l0.3 0.2c-0.2 0.1-0.4 0.1-0.5-0.2 0.2-0.3 0.4-0.6 0.5-0.9-0.1-0.2-0.2-0.4-0.4-0.5 0.1-0.3 0.2-0.6 0.4-0.9-0.1-0.1-0.2-0.2-0.3-0.2-0.2-0.3-0.4-0.6-0.6-0.9 0-0.2 0-0.3 0.2-0.3z"></path><path fill="#4e3d25" d="m25.2 26c0.1 0.1 0.1 0.3 0.1 0.4l-0.3-0.2c-0.2-0.4-0.1-0.5 0.2-0.2z"></path><path fill="#7d612f" d="m10.3 23.6c1.3 1.5 3 2.5 4.9 3.1-0.1 0.1-0.1 0.2-0.2 0.2 0.2 0.1 0.5 0.2 0.8 0.2-0.2 0.1-0.3 0.1-0.4 0.1-0.6-0.2-1.2-0.4-1.8-0.6-0.7-0.3-1.4-0.8-2-1.2-0.5-0.4-0.9-0.8-1.3-1.3v-0.1c0.1-0.1 0.1-0.2 0-0.4z"></path><path fill="#baa675" d="m9.7 24.9c0.1 0.3 0.3 0.4 0.5 0.5 0.1 0.1 0.1 0.2 0.2 0.4-0.2 0.2-0.4 0.4-0.5 0.7-0.3 0.2-0.6 0.5-0.8 0.8-0.1-0.1-0.2-0.2-0.3-0.4 0.1 0 0.1 0 0.1-0.1 0.1-0.1 0.2-0.3 0.3-0.4l-0.3-0.5c0 0 0-0.1 0.1-0.1h0.1c0.1 0.2 0.2 0.3 0.5 0.4 0.1-0.2 0.2-0.4 0.3-0.6l-0.4-0.6c0-0.1 0.1-0.1 0.2-0.1z"></path><path fill="#6b5021" d="m22.2 25.8h0.1c0 0.1 0 0.1 0.1 0.2-0.2 0-0.3 0.1-0.3 0.3-0.4 0.2-0.9 0.4-1.3 0.6-0.2 0-0.4 0.1-0.7 0.2 0.2-0.2 0.2-0.3 0-0.4 0.4-0.2 0.8-0.3 1.3-0.4 0.3-0.2 0.5-0.3 0.8-0.5z"></path><path fill="#dccf9f" d="m23.3 25.6c0 0.1 0 0.1 0.1 0.1-0.3 0.2-0.6 0.5-0.9 0.7 0.1 0.3 0.4 0.4 0.7 0.4-0.2 0.1-0.5 0.3-0.7 0.4 0 0 0.1 0.1 0.1 0.2 0 0.4 0.1 0.7 0.4 1 0 0.2 0 0.4 0.1 0.6 0 0-0.1 0.1-0.1 0.1-0.3-0.6-0.5-1.1-0.7-1.7-0.1 0-0.2 0.1-0.3 0.1-0.2-0.2-0.4-0.5-0.6-0.7 0 0.1 0 0.2 0.1 0.3l-0.2 0.1c-0.1-0.2-0.3-0.2-0.5-0.3 0.4-0.2 0.9-0.4 1.3-0.6 0.4-0.2 0.8-0.4 1.2-0.7z"></path><path fill="#443928" d="m25.3 26.4c0.2 0.1 0.4 0.3 0.5 0.5-0.3-0.1-0.4-0.3-0.5-0.5z"></path><path fill="#a78847" d="m15.2 26.7c1.6 0.5 3.2 0.5 4.8 0h0.1c0.2 0.1 0.2 0.2 0 0.4-0.3 0.1-0.7 0.2-1.1 0.2-1 0.1-2.1 0.1-3.1 0-0.2 0-0.4 0-0.5-0.1 0.1 0 0.2 0 0.4-0.1-0.3 0-0.6-0.1-0.8-0.2 0.1 0 0.1-0.1 0.2-0.2z"></path><path fill="#42311d" d="m25.8 26.9c0.2 0.2 0.3 0.4 0.4 0.6-0.2-0.1-0.4-0.3-0.4-0.6z"></path><path fill="#c3b284" d="m23.7 26.6c0.4 0.4 0.7 0.9 0.9 1.5 0 0-0.1 0-0.1 0.1-0.1-0.8-0.2-0.9-0.3-0.1 0 0.2 0.1 0.4 0.3 0.6-0.1 0.2-0.1 0.5-0.1 0.7-0.1-0.1-0.2-0.1-0.3 0 0.1 0.1 0.3 0.2 0.4 0.2-0.1 0.2-0.1 0.2 0.1 0.3-0.1 0.1-0.2 0.2-0.3 0.3-0.7 0.3-1.5 0.6-2.2 0.8 0.4-0.2 0.9-0.4 1.3-0.7 0 0 0.1-0.1 0.1-0.2-0.1-0.2-0.2-0.4-0.3-0.6 0.1 0 0.1 0 0.2 0-0.2-0.1-0.3-0.3-0.4-0.4 0 0 0.1-0.1 0.1-0.1 0.1 0.1 0.1 0.1 0.2 0-0.1-0.2-0.2-0.4-0.3-0.6-0.1-0.4-0.2-0.7-0.4-1 0-0.1-0.1-0.2-0.1-0.2 0.2-0.1 0.5-0.3 0.7-0.4 0.1-0.1 0.3-0.1 0.5-0.2z"></path><path fill="#f0e9bc" d="m13.6 26.6c0.6 0.2 1.2 0.4 1.8 0.6 0.1 0.1 0.3 0.1 0.5 0.1 1 0.1 2.1 0.1 3.1 0 0.4 0 0.8-0.1 1.1-0.2 0.3-0.1 0.5-0.2 0.7-0.2 0.2 0.1 0.4 0.1 0.5 0.3l0.2-0.1c-0.1-0.1-0.1-0.2-0.1-0.3 0.2 0.2 0.4 0.5 0.6 0.7 0.1 0 0.2-0.1 0.3-0.1 0.2 0.6 0.4 1.1 0.7 1.7 0.1 0.1 0.2 0.3 0.4 0.4-0.1 0-0.1 0-0.2 0-0.2 0-0.3-0.1-0.4-0.2-0.2-0.5-0.5-1.1-0.6-1.7 0 0.2-0.1 0.4-0.3 0.5-0.1-0.2-0.3-0.3-0.5-0.5 0 0.1 0 0.2 0 0.2-0.3-0.2-0.6-0.4-0.9-0.6-0.4 0.1-0.9 0.3-1.3 0.5-0.6-0.1-1.3-0.2-2-0.2-0.8 0-1.6 0.1-2.3 0.3-0.2 0.1-0.3 0.2-0.3 0.4 0.2 0.6 0.3 0.6 0.5 0 0.1-0.1 0.2-0.2 0.3-0.1 0 0.6-0.1 1.2-0.2 1.8h-0.5c0-0.3-0.1-0.4-0.3-0.6-0.1-0.2-0.1-0.4-0.2-0.6l-0.1 0.4c-0.1-0.3-0.2-0.7-0.1-1 0-0.4-0.1-0.6-0.4-0.7 0-0.2-0.2-0.2-0.3-0.2-0.8-0.7-0.7-0.9 0.3-0.6z"></path><path fill="#886b40" d="m29.8 28.2c-0.1 0.4-0.3 0.6-0.5 0.8l0 0.2c0.2-0.2 0.4-0.2 0.6-0.2 0.1 0.1 0.2 0.1 0.4 0 0-0.2 0.1-0.3 0.3-0.4-0.2 0.3-0.2 0.6 0.1 0.8-0.5 0.7-1.1 1.2-1.8 1.7-0.3-0.1-0.3-0.2 0-0.3-0.2 0-0.2-0.1-0.1-0.2-0.1-0.3-0.2-0.6-0.2-1 0-0.6 0-1.2 0.1-1.8l0.2-0.1c-0.3-0.4-0.4-0.3-0.5 0.1-0.1-0.1-0.2-0.2-0.3-0.3 0.5-0.6 1-1.2 1.5-1.8 0.1 0 0.1 0 0.2-0.1 0 0.2 0.1 0.3 0.2 0.2l-0.3 0.2 0.2 0.2c-0.1 0.2-0.2 0.5-0.3 0.8 0.1 0.1 0.1 0.2-0.1 0.2 0.1 0.3 0.1 0.6 0.1 0.9-0.2-0.1-0.4 0-0.6 0.1 0.3 0.3 0.6 0.3 0.8 0z"></path><path fill="#7a5e34" d="m5.1 22.9c0.2 0.5 0.5 1.1 0.9 1.6h0.5l0.5 0.5c0.2 0.1 0.4 0.2 0.7 0.2l-0.3 0.1c0.4 0.2 0.6 0.4 0.7 0.7l0.1-0.2c0.3 0.2 0.5 0.5 0.6 0.8-0.2-0.1-0.4-0.2-0.5-0.3 0 0-0.1 0-0.1 0.1-0.2 0-0.2 0.1-0.2 0.2 0.4 0.2 0.6 0.5 0.9 0.7 0.1 0.1 0.2 0.1 0.2 0 0.2-0.3 0.5-0.6 0.8-0.8-0.2 0.3-0.4 0.6-0.6 0.9 0.3 0.1 0.3 0.2 0 0.4 0.2 0.1 0.4 0.1 0.6 0 0.1 0.3 0.2 0.5 0.5 0.6-0.1 0.3-0.1 0.5 0 0.8 0.4 0.3 0.9 0.6 1.4 0.9l1.1 0.4c0.5 0.2 0.9 0.4 1.4 0.6-4.2-1.1-7.2-3.6-9.1-7.5-0.1-0.2-0.1-0.5-0.1-0.7z"></path><path fill="#e9e0ba" d="m8.2 26.4c0.2 0.2 0.4 0.4 0.6 0.5 0.1 0.2 0.2 0.3 0.3 0.4 0 0.1-0.1 0.1-0.2 0-0.3-0.2-0.5-0.5-0.9-0.7 0-0.1 0-0.2 0.2-0.2z"></path><path fill="#4a4130" d="m8.8 26.6l0.1 0.2c0 0.1 0 0.1-0.1 0.1-0.2-0.1-0.4-0.3-0.6-0.5 0-0.1 0.1-0.1 0.1-0.1 0.1 0.1 0.3 0.2 0.5 0.3z"></path><path fill="#8e7448" d="m10.2 25.4c0.4 0 0.4 0.2 0.3 0.5 0.2 0 0.3 0.1 0.4 0.3-0.2 0.2-0.4 0.6-0.4 1-0.1 0.1-0.2 0.1-0.3 0.1-0.2 0.1-0.3 0.3-0.3 0.5-0.2 0.1-0.4 0.1-0.6 0 0.3-0.2 0.3-0.3 0-0.4 0.2-0.3 0.4-0.6 0.6-0.9 0.1-0.3 0.3-0.5 0.4-0.7 0-0.2 0-0.3-0.1-0.4z"></path><path fill="#826e48" d="m10.6 28.3c-0.1 0-0.2-0.1-0.2-0.2 0-0.7 0.3-0.8 0.7-0.4-0.1 0.2-0.3 0.4-0.5 0.6z"></path><path fill="#d9bb8c" d="m31.4 20.9h0.1v0.3c-0.4 1.6-1 3.1-1.9 4.5-0.5 0.6-1 1.2-1.5 1.8-0.3 0.3-0.6 0.5-0.9 0.8-0.7 0.5-1.4 1.1-2.1 1.6-0.2 0.1-0.5 0.2-0.7 0.3h-0.1c0.1-0.1 0.2-0.2 0.3-0.3 0.5-0.3 0.9-0.5 1.3-0.8 0.7-0.5 1.4-1 1.9-1.7 1.5-1.6 2.6-3.4 3.3-5.5 0.1-0.1 0.1-0.2 0.1-0.4 0.1-0.1 0.2-0.4 0.2-0.6z"></path><path fill="#5c401f" d="m6.6 29.2c-0.1 0.2 0 0.3 0.2 0.4-0.1 0.3-0.2 0.5-0.4 0.7 0.2 0.1 0.5 0.2 0.7 0.1 0 0.2 0 0.4 0.2 0.6 0.1-0.2 0.2-0.4 0.5-0.5 0 0.1 0.1 0.2 0.2 0.2 0 0.2 0.1 0.4 0.3 0.6l0.1-0.2c0 0.2 0.1 0.3 0.3 0.4l-0.2 0.3c0.8 0.8 0.7 0.8-0.3 0.3-1.1-0.6-2.1-1.4-2.9-2.5 0-0.2 0.1-0.2 0.2 0 0-0.2 0-0.4 0-0.6-0.2-0.3-0.4-0.3-0.6 0-0.2-0.2-0.3-0.4-0.3-0.7l-0.2 0.1c-0.1-0.2-0.3-0.3-0.5-0.5l0.1-0.1c-0.3-0.5-0.7-1-1.1-1.5 0.3 0 0.5 0 0.6 0 0.2 0.2 0.2 0.4 0.2 0.6 0.2 0.1 0.4 0 0.6-0.1 0.2 0.2 0.4 0.3 0.6 0.4 0 0.2 0.1 0.5 0.3 0.6 0 0 0.1 0 0.1-0.1l1.6 1.1c-0.2 0.1-0.3 0.2-0.3 0.4z"></path><path fill="#f2ecc3" d="m22.8 27.4c0.2-0.1 0.3-0.1 0.4 0.1 0.3 0.5 0.5 1 0.5 1.5-0.2-0.6-0.5-1.1-0.9-1.6z"></path><path fill="#68593d" d="m13.6 27.4c0.3 0.1 0.4 0.3 0.4 0.7-0.3 0.5-0.5 1-0.6 1.5-0.1 0-0.1 0-0.1-0.1 0.3-0.7 0.4-1.4 0.3-2.1z"></path><path fill="#b6a373" d="m14.8 27.8h0.3l0.3 0.3c-0.1-0.1-0.2 0-0.3 0.1-0.2 0.6-0.3 0.6-0.5 0 0-0.2 0.1-0.3 0.2-0.4z"></path><path fill="#f0e6b8" d="m24.2 26.8c0 0.3 0.2 0.5 0.6 0.5-0.1 0.5 0 0.8 0.4 1.1-0.3 0-0.5-0.1-0.6-0.3-0.2-0.6-0.5-1.1-0.9-1.5 0 0 0-0.1 0.1-0.1 0.1 0.1 0.3 0.2 0.4 0.3z"></path><path fill="#ad9563" d="m26.2 25.1c0.4 0.5 0.9 0.8 1.4 1.2 0-0.2 0.2-0.3 0.3-0.4 0.1 0.1 0.1 0.2 0.1 0.3-0.3 0.3-0.7 0.6-1 0.9 0.2 0 0.4-0.1 0.5-0.3 0.1 0.1 0.2 0.2 0.3 0.3-0.3 0.1-0.3 0.2 0 0.3-0.5 0.7-1.2 1.2-1.9 1.7-0.3 0-0.4-0.1-0.3-0.3-0.2-0.4-0.5-0.9-0.7-1.4 0-0.1 0.1-0.1 0.2-0.1 0.1 0.3 0.3 0.5 0.5 0.8 0.3-0.1 0.5-0.3 0.6-0.6-0.1-0.2-0.2-0.4-0.4-0.6-0.1-0.2-0.3-0.4-0.5-0.5 0-0.1 0-0.3-0.1-0.4 0.2 0.1 0.3 0.2 0.4 0.4 0.2-0.1 0.2-0.1 0.3 0 0.1-0.1 0.1-0.2 0-0.3 0.1 0 0.1-0.1 0.2-0.2-0.1-0.2-0.2-0.4-0.3-0.6 0.5 0.4 1 0.9 1.4 1.4 0-0.1 0-0.2 0-0.3-0.4-0.3-0.7-0.7-1-1.1v-0.2z"></path><path fill="#dfd3a6" d="m10.2 27.3c0 0.1 0 0.3-0.1 0.4 0 0.2 0.1 0.3 0.2 0.4 0.1 0.1 0.2 0.2 0.3 0.2 0.1 0.1 0.3 0.2 0.4 0.3 0 0.1 0 0.1-0.1 0.1-0.2 0-0.4-0.2-0.6-0.3-0.2-0.1-0.3-0.3-0.4-0.6 0-0.2 0.1-0.4 0.3-0.5z"></path><path fill="#4c3f2b" d="m22.6 27.4c0.2 0.3 0.3 0.6 0.3 1-0.2-0.3-0.3-0.6-0.3-1z"></path><path fill="#483d2c" d="m23.3 27.2c0.3 0.3 0.6 0.8 0.8 1.3 0.1 0.2 0.1 0.3 0 0.5-0.2-0.7-0.5-1.3-0.8-1.8z"></path><path fill="#bdaa7b" d="m10.3 24.1c0.4 0.5 0.8 0.9 1.3 1.3-0.2 0-0.2 0.1-0.2 0.3 0.2 0.3 0.4 0.6 0.6 0.9 0.1 0.4-0.1 0.7-0.4 1-0.1-0.1-0.1-0.2-0.2-0.3-0.2-0.1-0.3-0.3-0.3-0.6 0 0.1-0.1 0.2-0.1 0.3 0 0.2 0.1 0.3 0.3 0.4 0.1 0.1 0.1 0.3 0 0.4l0.2 0.2c-0.2 0.3-0.3 0.6-0.5 0.9 0-0.1-0.1-0.1-0.1-0.2 0.1 0 0.1 0 0.1-0.1-0.1-0.1-0.3-0.2-0.4-0.3 0.2-0.2 0.4-0.4 0.5-0.6-0.4-0.4-0.7-0.3-0.7 0.4-0.2-0.1-0.3-0.2-0.3-0.4 0.1-0.1 0.1-0.3 0.1-0.4 0.1 0 0.2 0 0.3-0.1 0-0.4 0.2-0.8 0.4-1-0.1-0.2-0.2-0.3-0.4-0.3 0.1-0.3 0.1-0.5-0.3-0.5l-0.1-0.3c0.1-0.2 0.2-0.4 0.3-0.7-0.3-0.1-0.3-0.2 0-0.3z"></path><path fill="#4e371b" d="m11.1 26.7c0 0.3 0.1 0.5 0.3 0.6 0 0.1-0.1 0.1-0.1 0.1-0.2-0.1-0.3-0.2-0.3-0.4 0-0.1 0.1-0.2 0.1-0.3z"></path><path fill="#544228" d="m11.1 26.7c0.2-0.2 0.2-0.4 0.1-0.7 0.3 0.3 0.3 0.5-0.1 0.7z"></path><path fill="#b9a573" d="m25 26.2l0.3 0.2c0.1 0.2 0.2 0.4 0.5 0.5 0 0.3 0.2 0.5 0.4 0.6-0.1 0.3-0.3 0.5-0.6 0.6-0.2-0.3-0.4-0.5-0.5-0.8-0.1 0-0.2 0-0.2 0.2 0.2 0.4 0.5 0.9 0.7 1.3-0.1 0.2 0 0.3 0.3 0.3-0.4 0.3-0.8 0.5-1.3 0.8-0.2-0.1-0.2-0.1-0.1-0.3-0.1 0-0.3-0.1-0.4-0.2 0.1-0.1 0.2-0.1 0.3 0 0-0.2 0-0.5 0.1-0.7-0.2-0.2-0.3-0.4-0.3-0.6 0.1-0.8 0.2-0.7 0.3 0.1 0-0.1 0.1-0.1 0.1-0.1 0.1 0.2 0.3 0.3 0.6 0.3-0.4-0.3-0.5-0.6-0.4-1.1-0.4 0-0.6-0.2-0.6-0.5 0-0.1 0-0.2-0.1-0.4 0.2 0 0.4-0.1 0.5-0.1 0.6 0.9 0.7 0.9 0.4-0.1z"></path><path fill="#5f533d" d="m21.7 29c0-0.2 0-0.3-0.1-0.4 0-0.1 0-0.3 0.1-0.4 0.2 0.5 0.4 1.1 0.4 1.7-0.1-0.3-0.2-0.6-0.4-0.9z"></path><path fill="#4a3c27" d="m22.9 28.4c0.2 0.2 0.3 0.4 0.4 0.6-0.1 0.1-0.1 0.1-0.2 0-0.1-0.2-0.1-0.4-0.2-0.6z"></path><path fill="#a58955" d="m30.6 28.2c-0.1-0.1-0.1-0.1-0.2-0.1-0.2 0.2-0.5 0.5-0.7 0.7 0.1 0 0.2 0.1 0.2 0.2-0.2 0-0.4 0-0.6 0.2l0-0.2c0.2-0.2 0.4-0.4 0.5-0.8 0.2-0.1 0.3-0.3 0.2-0.6 0.3 0 0.4 0 0.6-0.2l0.1 0.1c-0.1 0.2-0.1 0.4-0.1 0.7z"></path><path fill="#cab174" d="m30.6 28.2c0.3 0.1 0.3 0.3 0 0.4-0.2 0.1-0.3 0.2-0.3 0.4-0.2 0.1-0.3 0.1-0.4 0 0-0.1-0.1-0.2-0.2-0.2 0.2-0.2 0.5-0.5 0.7-0.7 0.1 0 0.1 0 0.2 0.1z"></path><path fill="#987c4d" d="m28.9 31.1c-0.4 0.4-0.8 0.7-1.2 1l-0.6 0.2c-0.1-0.2-0.1-0.4 0.2-0.6-0.1 0-0.2 0-0.4 0-0.1-0.7-0.1-1.4 0.1-2.2 0.1 0.1 0.3 0 0.4-0.1 0-0.2 0.1-0.4 0.2-0.5-0.1-0.2-0.2-0.4-0.4-0.6 0.3-0.3 0.6-0.5 0.9-0.8 0.1 0.1 0.2 0.2 0.3 0.3 0.1-0.4 0.2-0.5 0.5-0.1l-0.2 0.1c-0.1 0.6-0.1 1.2-0.1 1.8 0 0.4 0.1 0.7 0.2 1-0.1 0.1-0.1 0.2 0.1 0.2-0.3 0.1-0.3 0.2 0 0.3z"></path><path fill="#31200f" d="m3 27.5c0.5 0.7 1 1.3 1.5 1.9-0.1 0-0.2 0-0.3-0.1-0.5-0.5-0.9-1.1-1.3-1.6 0.1-0.1 0.1-0.1 0.1-0.2z"></path><path fill="#62553c" d="m15.1 27.8c0.5 0 0.7 0.3 0.7 0.8-0.1 0.4-0.1 0.9-0.2 1.3-0.1 0.1-0.2 0.2-0.3 0.3 0.1-0.5 0.2-1.1 0.3-1.6 0.1-0.3 0-0.4-0.2-0.5l-0.3-0.3z"></path><path fill="#3e2e19" d="m32.1 28.4c-0.1 0.2-0.1 0.3-0.2 0.5-0.3 0.3-0.6 0.5-0.8 0.7 0.2-0.4 0.6-0.8 1-1.2z"></path><path fill="#8a7146" d="m12 26.6c0.1 0 0.2 0.1 0.3 0.2-0.2 0.3-0.3 0.6-0.4 0.9-0.3 0.3-0.6 0.8-0.7 1.3l0.6 1.1c-0.5-0.3-1-0.6-1.5-0.9 0-0.3 0-0.5 0-0.8 0.2 0.1 0.4 0.3 0.6 0.3 0 0.1 0.1 0.1 0.1 0.2 0.2-0.3 0.3-0.6 0.5-0.9l-0.3-0.2c0.2-0.1 0.2-0.3 0-0.4 0.1 0 0.2 0 0.2-0.1 0.1 0.1 0.1 0.2 0.2 0.3 0.3-0.3 0.5-0.6 0.4-1z"></path><path fill="#ede4b4" d="m13.3 27.5c0.2 0 0.3 0.1 0.3 0.3-0.2 0.5-0.4 1.1-0.7 1.6 0.3 0.3 0.3 0.4-0.1 0.2 0 0-0.1 0-0.1-0.1 0.4-0.7 0.6-1.3 0.6-2z"></path><path fill="#73562d" d="m6 25.4c1.2 1.9 2.8 3.5 4.8 4.6 0.1 0.2 0.2 0.5 0.3 0.8 0.2-0.1 0.3 0 0.4 0.1 0.1 0.2 0.2 0.4 0.3 0.5-0.2 0.4-0.1 0.5 0.1 0.3 0.1 0.3 0.3 0.6 0.5 0.8-0.2 0-0.4 0.1-0.6 0.2 0.1 0.2 0.3 0.3 0.5 0.5-0.1 0.1-0.2 0.2-0.1 0.3-0.4 0.2-0.3 0.3 0.1 0.4-0.2 0.1-0.5 0.1-0.7 0.1-0.6-0.3-1.2-0.6-1.9-0.8-0.2-0.2-0.3-0.3-0.5-0.4 0.3-0.2 0.6-0.1 0.8 0.1 0.1 0 0.2-0.1 0.2-0.2-0.1-0.1-0.2-0.2-0.4-0.3 0 0 0.1-0.1 0.1-0.2-0.2-0.1-0.4-0.2-0.7-0.2 0-0.1 0-0.3-0.1-0.4 0.2 0 0.3-0.1 0.5 0-0.2-0.6-0.3-1.1-0.6-1.4h-0.3c0-0.2 0-0.3-0.2-0.4-0.2-0.1-0.5-0.2-0.8-0.3-0.1-0.2-0.1-0.3-0.2-0.5 0.1-0.2 0.2-0.3 0.2-0.5l-0.1 0.1c-0.4-0.2-0.6-0.6-0.8-1l-0.1 0.2c-0.2-0.6-0.4-0.6-0.6-0.1 0-0.2-0.1-0.4-0.1-0.6-0.2-0.2-0.3-0.1-0.4 0.1-0.1-0.3-0.1-0.5-0.3-0.6l0.1-0.2c-0.2-0.2-0.5-0.3-0.8-0.4v0.4c-0.3-0.1-0.5-0.2-0.7-0.5 0.1 0 0.1-0.1 0.1-0.2-0.1-0.1-0.2-0.3-0.3-0.7 0-0.4-0.2-0.8-0.6-1-0.1 0.3-0.1 0.5-0.1 0.8-0.6 0-0.7 0.2-0.1 0.5 0.1 0.2 0.2 0.4 0.4 0.5-0.1 0.1-0.2 0.2-0.4 0.1 0-0.1 0-0.3 0-0.4-0.1 0.2-0.2 0.3-0.3 0.4-0.4-0.6-0.8-1.3-1-2.1 0.1-0.3 0.1-0.6 0-0.9 0-0.1 0-0.3 0.1-0.3 0.1 0.1 0.3 0.2 0.4 0.2l-0.1 0.2c0.3 0 0.5 0.1 0.7 0.3 0.2 0.1 0.3 0 0.5-0.1 0.2 0.4 0.5 0.5 0.8 0.4 0.2 0.3 0.6 0.6 1 0.8 0.2 0.2 0.4 0.5 0.6 0.9 0.1 0 0.2 0.1 0.4 0.1z"></path><path fill="#ac986c" d="m13.3 27.2c0.1 0 0.3 0 0.3 0.2-0.1 0-0.2 0-0.3 0.1 0 0.7-0.2 1.3-0.6 2 0 0.1 0.1 0.1 0.1 0.1 0.1 0.3 0.1 0.5 0.3 0.7-0.1 0-0.2 0.1-0.2 0.2l-1.1-0.4-0.5-1.1c0-0.5 0.3-1 0.6-1.3 0.2 0.1 0.3 0.3 0.4 0.5-0.1 0.3-0.3 0.6-0.5 0.9 0.1 0.3 0.3 0.3 0.5 0.2l-0.3-0.2c0.4-0.6 0.6-1.3 0.8-1.9h0.5z"></path><path fill="#c1b081" d="m13.3 27.5c0.1-0.1 0.2-0.1 0.3-0.1 0.1 0.7 0 1.4-0.3 2.1 0 0.1 0 0.1 0.1 0.1 0 0.3 0.2 0.5 0.4 0.7-0.1 0-0.1 0.1 0 0.2 0.3 0.2 0.5 0.4 0.7 0.6h-0.2c-0.5-0.2-0.9-0.4-1.4-0.6 0-0.1 0.1-0.2 0.2-0.2-0.2-0.2-0.2-0.4-0.3-0.7 0.4 0.2 0.4 0.1 0.1-0.2 0.3-0.5 0.5-1.1 0.7-1.6 0-0.2-0.1-0.3-0.3-0.3z"></path><path fill="#d8cea5" d="m14 28.1c-0.1 0.3 0 0.7 0.1 1l0.1-0.4c0.1 0.2 0.1 0.4 0.2 0.6 0 0-0.1 0-0.1 0.1 0.1 0.1 0.3 0.3 0.3 0.6 0.1 0 0.1-0.1 0.1-0.1h0.5c0.1-0.6 0.2-1.2 0.2-1.8 0.2 0.1 0.3 0.2 0.2 0.5-0.1 0.5-0.2 1.1-0.3 1.6-0.1 0.1-0.2 0.1-0.3 0-0.3 0.3-0.3 0.5 0.1 0.7-0.2 0.1-0.3 0.1-0.4 0.2h-0.2c-0.2-0.2-0.4-0.4-0.7-0.6-0.1-0.1-0.1-0.2 0-0.2-0.2-0.2-0.4-0.4-0.4-0.7 0.1-0.5 0.3-1 0.6-1.5z"></path><path fill="#403624" d="m14.4 29.3c0.2 0.2 0.3 0.3 0.3 0.6 0 0 0 0.1-0.1 0.1 0-0.3-0.2-0.5-0.3-0.6 0-0.1 0.1-0.1 0.1-0.1z"></path><path fill="#e1d8ae" d="m23.2 29.5c0.1 0.2 0.2 0.4 0.3 0.6 0 0.1-0.1 0.2-0.1 0.2-0.4 0.3-0.9 0.5-1.4 0.7-0.2 0-0.4 0-0.6 0.1 0-0.1 0.1-0.3 0.1-0.4 0.4 0.1 0.6 0 0.7-0.3-0.1-0.1-0.2-0.3-0.2-0.4-0.1 0-0.3 0-0.4-0.1-0.2-0.3-0.3-0.6-0.5-0.8 0.2 0 0.3 0.1 0.3 0.2 0.1 0 0.1-0.1 0.1-0.1 0.2 0.1 0.3 0 0.2-0.2 0.2 0.3 0.3 0.6 0.4 0.9 0-0.6-0.2-1.2-0.4-1.7-0.1 0.1-0.1 0.3-0.1 0.4-0.1-0.2-0.2-0.5-0.2-0.8 0 0 0-0.1 0-0.2 0.2 0.2 0.4 0.3 0.5 0.5 0.2-0.1 0.3-0.3 0.3-0.5 0.1 0.6 0.4 1.2 0.6 1.7 0.1 0.1 0.2 0.2 0.4 0.2z"></path><path fill="#473b28" d="m31.1 29.6c-0.4 0.6-0.9 1.1-1.4 1.5v-0.1c0.4-0.5 0.9-0.9 1.4-1.4z"></path><path fill="#b7a374" d="m25.1 29.9c0.2 0.5 0.4 0.9 0.6 1.2 0 0.3-0.1 0.4-0.4 0.5-0.1-0.6-0.3-0.6-0.5-0.1-0.3 0-0.4 0.1-0.6 0.2-0.1 0-0.1-0.1-0.1-0.1 0.1-0.1 0.3-0.2 0.4-0.2-0.1-0.3-0.2-0.6-0.3-0.9 0.1-0.1 0.1-0.2 0.2-0.3 0.2-0.1 0.5-0.2 0.7-0.3z"></path><path fill="#f8f6cd" d="m21.4 27.8c0 0.3 0.1 0.6 0.2 0.8 0.1 0.1 0.1 0.2 0.1 0.4 0.1 0.2 0 0.3-0.2 0.2-0.3-0.4-0.6-0.9-0.9-1.2-0.1-0.2-0.2-0.2-0.3 0 0.2 0.6 0.3 1.3 0.5 2 0 0.2 0.2 0.2 0.4 0.1-0.1 0-0.1 0-0.2 0l-0.1-0.9c0-0.3 0.1-0.3 0.3-0.1 0.1 0.2 0.2 0.5 0.4 0.8 0.1 0.1 0.3 0.1 0.5 0.1-0.1 0.1 0 0.3 0.1 0.4-0.1 0.3-0.3 0.4-0.7 0.3 0 0.1-0.1 0.3-0.1 0.4-0.8 0.2-1.7 0.3-2.5 0.3h-2.2c-0.7 0-1.3-0.1-2-0.3 0.1-0.1 0.2-0.1 0.4-0.2-0.4-0.2-0.4-0.4-0.1-0.7 0.1 0.1 0.2 0.1 0.3 0 0.1-0.1 0.2-0.2 0.3-0.3 0.1-0.4 0.1-0.9 0.2-1.3 0-0.5-0.2-0.8-0.7-0.8h-0.2c0.7-0.2 1.5-0.3 2.3-0.3 0.7 0 1.4 0.1 2 0.2 0.4-0.2 0.9-0.4 1.3-0.5 0.3 0.2 0.6 0.4 0.9 0.6z"></path><path fill="#b0a47d" d="m19.7 30.2v0.1c-0.1 0.2-0.1 0.2-0.3 0.2-0.3 0-0.6-0.1-0.8-0.1-0.4-0.4-0.3-0.6 0.2-0.5v0.3c0.3 0.1 0.6 0.1 0.9 0z"></path><path fill="#b4a67b" d="m17.4 28.3c0.1 0.7 0.2 1.5 0.2 2.2-0.5 0-0.9-0.1-1.3-0.2 0.3-0.1 0.7-0.1 1-0.1 0.1-0.6 0.1-1.3 0.1-1.9z"></path><path fill="#3c3222" d="m19.6 29.5c0.1 0.1 0.2 0.3 0.2 0.5 0 0.1 0 0.2-0.1 0.3v-0.1c0-0.2-0.1-0.5-0.1-0.7z"></path><path fill="#605745" d="m20.9 29.2l0.1 0.9c-0.2-0.3-0.3-0.6-0.2-1 0 0 0.1 0.1 0.1 0.1z"></path><path fill="#514a3a" d="m18.8 29c0.3 0.1 0.6 0.3 0.8 0.5-0.3-0.1-0.6-0.3-0.8-0.5z"></path><path fill="#4f432b" d="m17.6 30.5c0-0.7-0.1-1.5-0.2-2.2-0.2 0-0.5 0-0.8-0.1 0.4 0 0.7 0 1.1 0 0 0.8 0 1.6-0.2 2.3z"></path><path fill="#524937" d="m20.6 28c0.3 0.3 0.6 0.8 0.9 1.2 0 0 0 0.1-0.1 0.1 0-0.1-0.1-0.2-0.2-0.2l-0.6-1.1z"></path><path fill="#d4cda8" d="m20.6 28l0.6 1.1c-0.2-0.2-0.3-0.2-0.3 0.1 0 0-0.1-0.1-0.1-0.1-0.1 0.4 0 0.7 0.2 1 0.1 0 0.1 0 0.2 0-0.2 0.1-0.4 0.1-0.4-0.1-0.2-0.7-0.3-1.4-0.5-2 0.1-0.2 0.2-0.2 0.3 0z"></path><path fill="#aca486" d="m18.8 29c-0.2-0.2-0.3-0.2-0.3 0.1-0.1-0.3-0.1-0.7 0.1-1 0.4-0.1 0.7 0 1 0.3 0 0.4-0.1 0.4-0.2 0-0.5-0.1-0.7 0.1-0.6 0.6z"></path><path fill="#94794b" d="m14.3 31.2v-0.1h0.4c0.7 0.2 1.3 0.3 1.9 0.3-0.7 0.2-1.5 0.1-2.3-0.2z"></path><path fill="#e7e0b9" d="m23.5 34.1c-0.2 0.2-0.4 0.3-0.7 0.3 0-0.2 0.1-0.3 0.1-0.4-0.3-0.9-0.5-1.8-0.6-2.8 0.1 0.2 0.2 0.1 0.3-0.1 0.2-0.1 0.4-0.1 0.6-0.1-0.1 0.2 0 0.3 0.1 0.4 0.1-0.1 0.2-0.1 0.3 0.1 0 0.2-0.1 0.3-0.1 0.5 0.2 0 0.3 0.1 0.1 0.2 0.3 0.2 0.3 0.4 0.1 0.7 0.1 0.1 0.2 0.1 0.4 0.2l-0.5 0.1 0.2 0.1c-0.1 0-0.2 0.1-0.3 0.2 0.2 0 0.4 0.2 0.6 0.4-0.3 0-0.5 0.1-0.6 0.2z"></path><path fill="#b09e70" d="m22.1 31l-1.1 0.4h-0.3c-1.3 0.2-2.5 0.3-3.8 0.3l2-0.3c0.8 0 1.7-0.1 2.5-0.3 0.2-0.1 0.4-0.1 0.7-0.1z"></path><path fill="#d1b787" d="m4 6.5c0 0.2-0.1 0.4-0.2 0.5 0.1 0.1 0.2 0.1 0.3-0.1l0.1 0.8c0.2 0.1 0.3 0.2 0.4 0.3 0.1 0.9 0.5 1.6 1 2.3 0.2-0.1 0.4-0.2 0.4-0.5 0.1 0.1 0.1 0.2 0.2 0.3-0.4 0.6-0.8 1.3-1.1 2 0 0.1-0.1 0.3 0 0.4-0.3 0.3-0.4 0.7-0.5 1.1-0.6 1.9-0.8 3.8-0.5 5.8-0.1 0.2 0 0.3 0.1 0.3 0.1 1.2 0.4 2.2 0.9 3.2 0 0.2 0 0.5 0.1 0.7 1.9 3.9 4.9 6.4 9.1 7.5v0.1c-0.2 0-0.3 0-0.3 0.1l-1.5-0.4c-0.6-0.3-1.1-0.6-1.7-0.9-2-1.1-3.6-2.7-4.8-4.6-0.7-1.1-1.2-2.1-1.6-3.3-0.3-0.9-0.5-1.8-0.6-2.7-0.1-0.9-0.1-1.8-0.1-2.7 0.2-1.1 0.4-2.2 0.7-3.3l0.3-0.9c0.3-0.5 0.5-1 0.7-1.6-0.5-0.8-1-1.7-1.7-2.6-0.2 0-0.3-0.1-0.4-0.3-0.5 0.7-0.9 1.4-1.2 2.2-0.1 0.1-0.1 0.2-0.2 0.3-0.2 0.5-0.3 0.9-0.4 1.4-0.2 0.5-0.3 1.1-0.5 1.7-0.5 2-0.7 4-0.4 6 0 0.4 0.1 0.7 0.2 1 0.1 1.1 0.4 2.2 0.8 3.2 0.2 0.8 0.6 1.5 1 2.1 0.6 1.4 1.5 2.7 2.7 3.7 0.8 1.1 1.8 1.9 2.9 2.5 0.3 0.3 0.6 0.6 1 0.7 0.2 0.1 0.3 0.2 0.5 0.4 0.7 0.2 1.3 0.5 1.9 0.8 0.5 0.1 1 0.3 1.4 0.5 0.8 0.3 1.6 0.5 2.4 0.4 0-0.2 0-0.3 0-0.5-0.3-0.5-0.5-1-0.7-1.5 0.3 0.4 0.6 0.7 1 0.9 0.2 0.2 0.2 0.4-0.1 0.6 0.2 0.3 0.5 0.4 0.8 0.5l-0.1 0.1c0.4 0.1 0.8 0.2 1.1 0.2h1.7c0.1-0.1 0.2 0 0.3 0.1-1.1 0-2.2 0-3.2 0 0.1 0.1 0.3 0.1 0.3 0.2-0.6-0.1-1.3-0.2-2-0.3-2.2-0.5-4.2-1.2-6.1-2.4-1.4-1-2.7-2.1-3.9-3.4-0.5-0.6-1-1.2-1.5-1.9-0.2-0.5-0.5-1-0.9-1.5-0.4-1-0.9-2.1-1.3-3.2-0.2-1.2-0.5-2.4-0.7-3.6v-3.1c0.3-1.1 0.5-2.3 0.7-3.6 0-0.1 0-0.1 0.1-0.2 0.3-0.5 0.5-1.1 0.7-1.8 0.2-0.3 0.5-0.7 0.7-1.1 0.1-0.2 0.1-0.3 0.1-0.5 0.4-0.9 1-1.7 1.6-2.4z"></path><path fill="#c1a76c" d="m7.8 30.5c-0.3 0.1-0.4 0.3-0.5 0.5-0.2-0.2-0.2-0.4-0.2-0.6-0.2 0.1-0.5 0-0.7-0.1 0.2-0.2 0.3-0.4 0.4-0.7-0.1 0 0 0 0-0.1 0.5 0.3 0.8 0.7 1 1z"></path><path fill="#917546" d="m6.6 29.2c0.2 0.1 0.4 0.1 0.6 0.2 0.2 0.3 0.4 0.5 0.8 0.6 0.1 0.1 0.2 0.3 0.2 0.5 0 0.1-0.1 0.2-0.2 0.2-0.1 0-0.2-0.1-0.2-0.2-0.2-0.3-0.5-0.7-1-1 0 0.1-0.1 0.1 0 0.1-0.2-0.1-0.3-0.2-0.2-0.4z"></path><path fill="#b49a61" d="m3.9 25.9c-0.2-0.2-0.4-0.2-0.6-0.1-0.2-0.1-0.3-0.3-0.4-0.5-0.6-0.3-0.5-0.5 0.1-0.5 0-0.3 0-0.5 0.1-0.8 0.4 0.2 0.6 0.6 0.6 1 0.1 0.4 0.2 0.6 0.3 0.7 0 0.1 0 0.2-0.1 0.2z"></path><path fill="#7f6132" d="m4.4 22.1c0.4 1.2 0.9 2.2 1.6 3.3-0.2 0-0.3-0.1-0.4-0.1-0.2-0.4-0.4-0.7-0.6-0.9-0.4-0.2-0.8-0.5-1-0.8-0.3 0.1-0.6 0-0.9-0.4-0.1 0.1-0.2 0.2-0.4 0.1-0.2-0.2-0.4-0.3-0.7-0.4l0.1-0.1c-0.1 0-0.3-0.1-0.4-0.2-0.1 0-0.1 0.2-0.1 0.3 0.1 0.3 0.1 0.6 0 0.9-0.4-1-0.7-2.1-0.8-3.2 0 0 0-0.1 0-0.2 0.1 0.2 0.1 0.4 0.2 0.6 0.2-0.2 0.3-0.1 0.4 0.1 0.3-0.2 0.6-0.1 0.8 0.2l0.1-0.1c0 0.4-0.1 0.4-0.3 0.1-0.1 0.2-0.1 0.3 0 0.5 0.3-0.1 0.5 0 0.8 0.2l0.1-0.3c0 0.1 0.1 0.1 0.2 0l0.1 0.3c0.3 0.1 0.5 0.2 0.6 0.4l0.2-0.3c0.2 0.2 0.3 0.2 0.4 0z"></path><path fill="#8e713d" d="m1.6 18.3c-0.2 0.1-0.3 0.3-0.6 0.3 0.3 0.3 0.3 0.7 0 1 0.5-0.1 0.8 0.1 1 0.5 0.1-0.2 0.2-0.4 0.3-0.6 0.1 0 0.3 0 0.5 0-0.4-0.3-0.4-0.6-0.2-1h-0.5v1c-0.1-0.3-0.2-0.7-0.2-1.1 0.3 0 0.7 0 1 0.1-0.1 0.2-0.1 0.4 0 0.7 0.2 0.1 0.3 0.3 0.1 0.5 0.2 0 0.3 0.1 0.3 0.3 0.1-0.1 0.1-0.1 0.2-0.1 0.1 0.1 0.1 0.3 0.2 0.5 0-0.3 0-0.7 0.1-1 0.1 0.9 0.3 1.8 0.6 2.7-0.1 0.2-0.2 0.2-0.4 0l-0.2 0.3c-0.1-0.2-0.3-0.3-0.6-0.4l-0.1-0.3c-0.1 0.1-0.2 0.1-0.2 0l-0.1 0.3c-0.3-0.2-0.5-0.3-0.8-0.2-0.1-0.2-0.1-0.3 0-0.5 0.2 0.3 0.3 0.3 0.3-0.1l-0.1 0.1c-0.2-0.3-0.5-0.4-0.8-0.2-0.1-0.2-0.2-0.3-0.4-0.1-0.1-0.2-0.1-0.4-0.2-0.6 0 0.1 0 0.2 0 0.2-0.1-0.3-0.2-0.6-0.2-1-0.1-0.9 0-1.9 0-2.9 0.1 0.3 0.1 0.4 0.2 0.1 0.2 0.2 0.2 0.4 0.2 0.6h0.4c-0.1 0.2-0.1 0.4-0.2 0.6 0.1 0.3 0.2 0.3 0.3 0.1 0.1 0 0.1 0.1 0.1 0.2z"></path><path fill="#bca266" d="m1.6 18.3c0.2 0.5 0.3 1.1 0.4 1.8-0.2-0.4-0.5-0.6-1-0.5 0.3-0.3 0.3-0.7 0-1 0.3 0 0.4-0.2 0.6-0.3z"></path><path fill="#9b7e49" d="m3.7 16.7c0 0.9 0 1.8 0.1 2.7-0.1 0.3-0.1 0.7-0.1 1-0.1-0.2-0.1-0.4-0.2-0.5-0.1 0-0.1 0-0.2 0.1 0-0.2-0.1-0.3-0.3-0.3 0.2-0.2 0.1-0.4-0.1-0.5-0.1-0.3-0.1-0.5 0-0.7-0.3-0.1-0.7-0.1-1-0.1 0 0.4 0.1 0.8 0.2 1.1h0.1c0 0.2-0.1 0.4-0.2 0.6-0.1-0.7-0.2-1.3-0.4-1.8 0-0.1 0-0.2-0.1-0.2-0.1 0.2-0.2 0.2-0.3-0.1 0.1-0.2 0.1-0.4 0.1-0.6h-0.3c0-0.2 0-0.4-0.2-0.6-0.1 0.3-0.1 0.2-0.2-0.1 0 1-0.1 2 0 2.9-0.3-2-0.1-4 0.4-6 0.2-0.1 0.3-0.1 0.4 0 0.1 0.2 0.2 0.5 0.4 0.7-0.1 0.1-0.1 0.2-0.1 0.4 0.2 0.2 0.4 0.3 0.7 0.4-0.1 0.3-0.1 0.5 0 0.8 0.3 0.3 0.4 0.6 0.5 0.9l0.1-0.5 0.1 0.7 0.1-0.2c0.1 0.4 0.2 0.7 0.3 1 0.1-0.4 0.1-0.7 0.2-1.1z"></path><path fill="#674a1e" d="m2.3 19.5h-0.2v-1h0.5c-0.2 0.4-0.2 0.7 0.2 1-0.2 0-0.4 0-0.5 0z"></path><path fill="#a68a53" d="m3.1 12.4c0 0-0.1 0.1-0.2 0.1-0.1 0.3-0.2 0.6-0.3 0.8 0.2 0.1 0.4 0.2 0.5 0.3 0.1-0.3 0.2-0.5 0.3-0.7 0-0.1 0.1-0.1 0.2-0.1-0.1 0.2-0.1 0.5 0 0.8 0.1-0.1 0.1-0.2 0-0.3 0.3-0.3 0.4-0.2 0.2 0.2 0.2 0.1 0.3 0.2 0.3 0.4 0-0.2 0.1-0.4 0.3-0.5-0.3 1.1-0.5 2.2-0.7 3.3-0.1 0.4-0.1 0.7-0.2 1.1-0.1-0.3-0.2-0.6-0.3-1l-0.1 0.2-0.1-0.7-0.1 0.5c-0.1-0.3-0.2-0.6-0.5-0.9-0.1-0.3-0.1-0.5 0-0.8-0.3-0.1-0.5-0.2-0.7-0.4 0-0.2 0-0.3 0.1-0.4-0.2-0.2-0.3-0.5-0.4-0.7-0.1-0.1-0.2-0.1-0.4 0 0.2-0.6 0.3-1.2 0.5-1.7 0.1-0.4 0.3-0.4 0.5-0.1l0.1-0.2c0.1 0.2 0.1 0.3 0.3 0.4-0.1 0.1-0.2 0.1-0.4 0.1 0.1 0.3 0 0.6-0.2 0.9 0.1 0.2 0.3 0.3 0.6 0.1 0.2-0.3 0.4-0.7 0.6-1.1 0.1 0.1 0.2 0.3 0.2 0.4z"></path><path fill="#6d5025" d="m3.1 12.4c0.3 0.1 0.4 0.2 0.5 0.4-0.1 0-0.2 0-0.2 0.1-0.1 0.2-0.2 0.4-0.3 0.7-0.1-0.1-0.3-0.2-0.5-0.3 0.1-0.2 0.2-0.5 0.3-0.8 0.1 0 0.2-0.1 0.2-0.1z"></path><path fill="#b49860" d="m4.7 12.5l-0.3 0.9c-0.2 0.1-0.3 0.3-0.3 0.5 0-0.2-0.1-0.3-0.3-0.4 0.2-0.4 0.1-0.5-0.2-0.2 0.1 0.1 0.1 0.2 0 0.3-0.1-0.3-0.1-0.6 0-0.8-0.1-0.2-0.2-0.3-0.5-0.4 0.1-0.1 0-0.3-0.1-0.4-0.2 0.4-0.4 0.8-0.6 1.1-0.3 0.2-0.5 0.1-0.6-0.1 0.2-0.3 0.3-0.6 0.2-0.9 0.2 0 0.3 0 0.4-0.1-0.2-0.1-0.2-0.2-0.3-0.4l-0.1 0.2c-0.2-0.3-0.4-0.3-0.5 0.1 0.1-0.5 0.2-0.9 0.4-1.4 0.1-0.1 0.1-0.2 0.2-0.3 0.3-0.3 0.5-0.5 0.7-0.8 0 0.2 0.1 0.2 0.2 0.1 0.1 0.1 0 0.2-0.1 0.3 0.7 0.9 1.3 1.9 1.8 2.7z"></path><path fill="#bda46a" d="m4.7 12.5c-0.5-0.8-1.1-1.8-1.8-2.7 0.1-0.1 0.2-0.2 0.1-0.3-0.1 0.1-0.2 0.1-0.2-0.1-0.2 0.3-0.4 0.5-0.7 0.8 0.3-0.8 0.7-1.5 1.2-2.2 0.1 0.2 0.2 0.3 0.4 0.3 0.7 0.9 1.2 1.8 1.7 2.6-0.2 0.6-0.4 1.1-0.7 1.6z"></path><path fill="#a3895a" d="m27.2 28.3c0.2 0.2 0.3 0.4 0.4 0.6-0.1 0.1-0.2 0.3-0.2 0.5-0.1 0.1-0.3 0.2-0.4 0.1-0.2 0.8-0.2 1.5-0.1 2.2 0.2 0 0.3 0 0.4 0-0.3 0.2-0.3 0.4-0.2 0.6-0.2 0.3-0.5 0.5-0.9 0.6-0.4-0.2-0.4-0.3 0.1-0.4-0.2-0.2-0.4-0.4-0.6-0.6-0.3 0.1-0.6 0.2-0.8 0.4-0.2 0.1-0.4 0.1-0.5-0.1v-0.2c0.1 0 0.1 0.1 0.2 0.1 0.3-0.2 0.5-0.3 0.7-0.5 0.3-0.1 0.4-0.2 0.3-0.5-0.1-0.3-0.3-0.7-0.5-1.2 0.7-0.5 1.4-1.1 2.1-1.6z"></path><path fill="#dccfa2" d="m24.3 30.2h0.1c-0.1 0.1-0.1 0.2-0.2 0.3 0.1 0.3 0.2 0.6 0.3 0.9-0.1 0-0.3 0.1-0.4 0.2 0 0 0 0.1 0.1 0.1l0.2 0.3v0.2c-0.2 0.1-0.3 0.2-0.3 0.5 0.3 0.1 0.4 0.3 0.1 0.6 0.1 0.2 0.1 0.3 0.2 0.5-0.3 0.2-0.6 0.3-0.9 0.3 0.1-0.1 0.3-0.2 0.6-0.2-0.2-0.2-0.4-0.4-0.6-0.4 0.1-0.1 0.2-0.2 0.4-0.2l-0.3-0.1 0.5-0.1c-0.2-0.1-0.3-0.1-0.4-0.2 0.2-0.3 0.2-0.5-0.1-0.7 0.2-0.1 0.1-0.2-0.1-0.2 0-0.2 0.1-0.3 0.1-0.5-0.1-0.2-0.2-0.2-0.3-0.1-0.1-0.1-0.2-0.2-0.1-0.4-0.2 0-0.4 0-0.6 0.1-0.1 0.2-0.2 0.3-0.3 0.1-0.4 0.1-0.8 0.2-1.3 0.2l1.1-0.4c0.7-0.2 1.5-0.5 2.2-0.8z"></path><path fill="#f9f6ca" d="m22.3 31.2c0.1 1 0.3 1.9 0.7 2.8-0.1 0.1-0.2 0.2-0.2 0.4-1.2 0.4-2.4 0.6-3.7 0.6-0.4 0.1-0.9 0-1.3-0.1-0.6-0.8-1-1.7-1.1-2.7-0.3 0-0.4-0.1-0.5-0.3l3.5-0.1c0.4-0.1 0.7-0.2 1-0.4h0.3c0.5 0 0.9-0.1 1.3-0.2z"></path><path fill="#674b20" d="m25.3 31.6c-0.2 0.2-0.4 0.3-0.7 0.5-0.1 0-0.1-0.1-0.2-0.1l-0.2-0.3c0.2-0.1 0.3-0.2 0.6-0.2 0.2-0.5 0.4-0.5 0.5 0.1z"></path><path fill="#907346" d="m10.8 30c0.6 0.3 1.1 0.6 1.7 0.9-0.1 0.1-0.2 0.1-0.2 0.2 0.3 0.3 0.6 0.7 0.8 1.1 0.1 0.2 0.3 0.2 0.5 0 0.1 0.1 0.2 0.2 0 0.3-0.2-0.1-0.4-0.1-0.7-0.1-0.1-0.2-0.2-0.3-0.4-0.3-0.1 0.5 0.2 0.8 0.7 0.8 0.1-0.1 0.2-0.1 0.3-0.2v0.4c-0.6 0-1.2-0.1-1.7-0.4 0.2-0.1 0.4-0.2 0.6-0.2-0.2-0.2-0.4-0.5-0.5-0.8-0.2 0.2-0.3 0.1-0.1-0.3-0.1-0.1-0.2-0.3-0.3-0.5-0.1-0.1-0.2-0.2-0.4-0.1-0.1-0.3-0.2-0.6-0.3-0.8z"></path><path fill="#7a6d50" d="m29.7 31v0.1c-1.1 1-2.4 1.8-3.7 2.5 1.3-0.8 2.5-1.7 3.7-2.6z"></path><path fill="#684c22" d="m13.6 32.5l-0.1 0.2c-0.1 0.1-0.2 0.1-0.3 0.2-0.5 0-0.8-0.3-0.7-0.8 0.2 0 0.3 0.1 0.4 0.3 0.3 0 0.5 0 0.7 0.1z"></path><path fill="#d6c193" d="m34.4 24.2c-0.4 0.8-0.8 1.6-1.2 2.4-0.4 0.6-0.8 1.2-1.1 1.8-0.4 0.4-0.8 0.8-1 1.2-0.5 0.5-1 0.9-1.4 1.4-1.2 0.9-2.4 1.8-3.7 2.6-0.4 0.3-0.9 0.5-1.5 0.7-0.3 0-0.6 0-0.9 0.1-1.3 0.5-2.8 0.8-4.2 0.9-0.1-0.1-0.2-0.2-0.3-0.1v-0.2c1.3 0 2.5-0.2 3.7-0.6 0.3 0 0.5-0.1 0.7-0.3 0.3 0 0.6-0.1 0.9-0.3-0.1-0.2-0.1-0.3-0.2-0.5 0.3-0.3 0.2-0.5-0.1-0.6 0.4 0 0.7 0.2 0.9 0.5 0.1 0 0.2-0.1 0.3 0-0.1 0.1-0.2 0.3-0.3 0.4l0.1 0.1c0.7-0.4 1.3-0.8 2-1.1 0.3-0.1 0.4-0.3 0.6-0.5 0.4-0.3 0.8-0.6 1.2-1 0.7-0.5 1.3-1 1.8-1.7l0.7-0.8c0.8-0.9 1.4-1.9 1.9-3 0.3-0.5 0.5-1 0.8-1.5 0.2-0.3 0.3-0.7 0.5-1.1-0.1 0.4-0.1 0.8-0.2 1.2z"></path><path fill="#bea673" d="m27.1 32.3l0.6-0.2c-0.2 0.2-0.3 0.4-0.6 0.5-0.7 0.3-1.3 0.7-2 1.1l-0.1-0.1c0.1-0.1 0.2-0.3 0.3-0.4-0.1-0.1-0.2 0-0.3 0-0.2-0.3-0.5-0.5-0.9-0.5 0-0.3 0.1-0.4 0.3-0.5 0.1 0.2 0.3 0.2 0.5 0.1 0.2-0.2 0.5-0.3 0.8-0.4 0.2 0.2 0.4 0.4 0.6 0.6-0.5 0.1-0.5 0.2-0.1 0.4 0.4-0.1 0.7-0.3 0.9-0.6z"></path><path fill="#b39d6b" d="m12.5 30.9l1.5 0.4c0.1 0 0.2 0.1 0.2 0.1 0.2 0.6 0.3 1 0.5 1.5 0.2 0.5 0.4 1 0.7 1.5 0 0.2 0 0.3 0 0.5-0.8 0.1-1.6-0.1-2.3-0.4 0.4 0.1 0.9 0.2 1.4 0.1-0.3-0.1-0.3-0.3-0.2-0.5-0.1-0.2-0.2-0.4-0.3-0.6-0.3-0.1-0.6-0.1-0.8 0 0 0.2 0 0.4-0.1 0.5-0.3-0.3-0.6-0.5-0.9-0.5-0.1-0.1 0-0.2 0.1-0.3-0.2-0.2-0.4-0.3-0.5-0.5 0.5 0.3 1.1 0.4 1.7 0.4v-0.4l0.1-0.2c0.2-0.1 0.1-0.2 0-0.3-0.2 0.2-0.4 0.2-0.5 0-0.2-0.4-0.5-0.8-0.8-1.1 0-0.1 0.1-0.1 0.2-0.2z"></path><path fill="#d6c89a" d="m14 31.3c0-0.1 0.1-0.1 0.3-0.1 0.8 0.3 1.6 0.4 2.4 0.2h2.2l-2 0.3c-0.6 0-1.2 0-1.7 0 0.4 0.4 0.6 0.8 0.6 1.3 0.5 0.6 0.9 1.3 1.2 2 0.2 0 0.3 0.1 0.4 0.2-0.3 0-0.7-0.1-1.1-0.2l0.1-0.1c-0.3-0.1-0.6-0.2-0.8-0.5 0.3-0.2 0.3-0.4 0.1-0.6-0.4-0.2-0.7-0.5-1-0.9-0.2-0.5-0.3-0.9-0.5-1.5 0 0-0.1-0.1-0.2-0.1z"></path><path fill="#684d23" d="m19.5 33.5c-0.3 0.1-0.6 0.1-0.9 0.1 0-0.2 0-0.3-0.1-0.4-0.1-0.1 0-0.2 0-0.3 0.3 0.3 0.6 0.3 0.9 0 0.1 0.2 0.1 0.4 0.1 0.6z"></path><path fill="#efe6b6" d="m20.7 31.4c-0.3 0.2-0.6 0.3-1 0.4l-3.5 0.2c0.1 0.1 0.2 0.2 0.4 0.2 0.2 1 0.6 1.9 1.2 2.7 0.4 0.1 0.9 0.2 1.3 0.1v0.2h-1.7c-0.1-0.1-0.2-0.2-0.4-0.2-0.3-0.7-0.7-1.4-1.2-2 0-0.5-0.2-0.9-0.6-1.3 0.5 0 1.1 0 1.7 0 1.3 0 2.5-0.1 3.8-0.3z"></path><path fill="#99804e" d="m18.4 33.2c0.2 0.1 0.2 0.2 0.2 0.4 0.3 0 0.6 0 0.9-0.1 0.2 0 0.4 0 0.5 0.2 0 0.1-0.1 0.1-0.2 0.1-0.6 0.1-1.1 0.1-1.7 0.1 0 0-0.1 0-0.1-0.1 0.3-0.1 0.4-0.3 0.4-0.6z"></path><path fill="#917545" d="m13.1 34.5c-0.5-0.2-1-0.4-1.5-0.5 0.2 0 0.5 0 0.7-0.1-0.4-0.1-0.5-0.2-0.1-0.4 0.3 0 0.6 0.2 0.9 0.5 0.1-0.1 0.1-0.3 0.1-0.5 0.2-0.1 0.5-0.1 0.8 0 0.1 0.2 0.2 0.4 0.3 0.6-0.1 0.2-0.1 0.4 0.2 0.5-0.5 0.1-1 0-1.4-0.1z"></path><path fill="#c4ae75" d="m19.8 33.8c-0.1 0.1-0.2 0.2-0.2 0.3 0.1 0.2 0.1 0.4 0 0.6-0.2-0.1-0.4-0.2-0.5-0.3-0.4 0.4-0.6 0.4-0.6-0.3-0.1 0-0.3-0.1-0.4-0.2 0.6 0 1.1 0 1.7-0.1z"></path><path fill="#4e3e27" d="m8.4 32.8c1.9 1.2 3.9 1.9 6.1 2.4l0.3 0.2c-1.9-0.4-3.8-1-5.6-1.9-0.3-0.2-0.6-0.4-0.8-0.7z"></path><path fill="#e1d8b2" d="m24.5 34.3c-1.2 0.5-2.5 0.9-3.8 1.1-1.3 0.2-2.5 0.2-3.8 0.2-0.1-0.1-0.2-0.1-0.4-0.1 0-0.1-0.2-0.1-0.3-0.2 1 0 2.1 0 3.2 0 1.4-0.1 2.9-0.4 4.2-0.9 0.3-0.1 0.6-0.1 0.9-0.1z"></path><path fill="#8d8265" d="m14.5 35.2c0.7 0.1 1.4 0.2 2 0.3 0.2 0 0.3 0 0.4 0.1-0.7 0-1.4-0.1-2.1-0.2l-0.3-0.2z"></path></svg>