<?xml version="1.0"?><svg xmlns="http://www.w3.org/2000/svg" width="36" height="36" shape-rendering="geometricPrecision" text-rendering="geometricPrecision" image-rendering="optimizeQuality" fill-rule="evenodd" clip-rule="evenodd" viewBox="0 0 36 36"><path fill="#caba47" d="m15.7-0.1h0.1c0 0.1 0.1 0.2 0.2 0.2 0.2-0.1 0.4 0 0.5 0.1 0 1.1-0.2 1.1-0.4 0l-0.3 1c-0.1-0.2-0.2-0.5-0.2-0.7 0 0.4-0.1 0.6-0.3 0.8-0.1-0.3-0.2-0.6-0.3-0.9-0.1 0.3-0.2 0.6-0.2 0.9-0.2-0.9-0.4-0.8-0.5 0.2-0.3-1.2-0.5-1.1-0.5 0.1-0.2-0.2-0.3-0.4-0.4-0.7-0.1 0.2-0.2 0.5-0.2 0.7-0.1-0.2-0.2-0.4-0.3-0.5-0.1 0.2-0.2 0.5-0.2 0.8-0.4-1.1-0.5-1-0.5 0.1-0.4-0.7-0.5-0.7-0.3 0.1-0.2 0-0.4-0.1-0.6-0.3 0 0.2-0.1 0.4 0 0.7-0.1-0.4-0.3-0.6-0.7-0.5 0.4 0.6 0.3 0.7-0.2 0.2-0.1 0.1-0.1 0.2-0.1 0.3-0.3-0.6-0.4-0.6-0.2 0.1-0.2 0-0.3 0-0.3 0.1 0.1 0.2 0.1 0.3 0 0.5-0.6-1-0.7-1-0.3 0.1-0.1 0.2-0.2 0.2-0.4 0 0 0.1-0.1 0.3 0 0.4-0.2 0.1-0.3 0-0.3-0.1-0.1-0.4-0.3-0.6-0.7-0.7 1-0.7 2-1.3 3.2-1.8 1.5-0.5 2.9-0.9 4.4-1.2z" opacity=".161"></path><path fill="#cdb53a" d="m16 0.1v-0.2h4c2.6 0.4 5 1.2 7.2 2.5 0.4 0.3 0.8 0.6 1.1 0.9-0.3 0.1-0.6 0.4-0.8 0.7l-0.1-0.1c0.3-0.2 0.3-0.5 0.2-0.9-0.2 0.3-0.4 0.5-0.7 0.7 0.3-0.3 0.4-0.6 0.4-1l-0.2-0.1c-0.1 0.3-0.3 0.6-0.5 0.8l-0.1-0.1c0.3-0.3 0.4-0.5 0.3-0.8-0.4 0.4-0.5 0.3-0.3-0.2-0.2-0.1-0.4-0.1-0.6 0 0.1-0.1 0-0.3-0.1-0.4-0.2 0.3-0.4 0.6-0.6 0.8 0-0.2 0-0.5 0.2-0.7 0-0.2-0.1-0.3-0.2-0.4-0.1 0.3-0.2 0.6-0.4 0.9 0-0.4 0-0.7 0-1-0.3 0.2-0.5 0.5-0.5 0.8 0-0.3-0.1-0.6-0.2-1-0.1 0.2-0.2 0.4-0.2 0.6-0.1 0.2-0.2 0.2-0.3 0 0.1-0.2 0.3-0.5 0.4-0.8-0.2 0-0.3-0.1-0.4 0-0.1 0.3-0.1 0.5-0.3 0.8l-0.2-0.1c0.1-0.3 0.2-0.6 0.3-0.8-0.1-0.1-0.3-0.1-0.4-0.1 0 0.3-0.1 0.6-0.3 0.9 0-0.4 0-0.7 0-1-0.2 0.2-0.4 0.5-0.5 0.8 0-0.2 0-0.5 0.1-0.7-0.1-0.2-0.2-0.3-0.4-0.4 0 0.3-0.1 0.6 0 1h-0.3c0.1-1.4 0-1.4-0.4-0.2l-0.2 0 0.3-0.9c-0.1 0-0.3-0.1-0.4 0 0 0.3-0.1 0.7-0.3 0.9 0-0.4 0-0.7-0.2-1.1-0.3 1.3-0.4 1.3-0.2 0h-0.4c0 0.3 0 0.6-0.2 0.9-0.2-1.3-0.4-1.3-0.5 0 0-0.4-0.1-0.7 0-1h-0.5v1c-0.2-0.2-0.3-0.5-0.3-0.9 0 0.3-0.1 0.6-0.2 0.9-0.2-1.4-0.4-1.4-0.6 0-0.1-0.4-0.2-0.7-0.1-1h-0.5c0.2 0.3 0.2 0.6 0 1 0-0.4-0.2-0.7-0.4-0.9-0.1-0.1-0.3-0.2-0.5-0.1z" opacity=".086"></path><path fill="#f5ee20" d="m21.6 1.5c-0.4 0-0.6 0.1-0.8 0.4l-0.4-0.3c0.1 0.5 0 0.6-0.4 0.2-0.2 0.2-0.5 0.3-0.8 0.2 0.5-0.2 0.5-0.4 0-0.5-0.1 0-0.2 0.1-0.2 0.1 0-0.3-0.1-0.4-0.4-0.5v-1h0.5c-0.1 0.3 0 0.6 0 1 0.1-1.3 0.3-1.3 0.5 0 0.2-0.3 0.2-0.6 0.2-0.9h0.4c-0.2 1.3-0.1 1.3 0.2 0 0.2 0.4 0.2 0.7 0.2 1.1 0.2-0.2 0.3-0.6 0.3-0.9 0.1-0.1 0.3 0 0.4 0l-0.3 0.9 0.2 0c0.4-1.2 0.5-1.2 0.4 0.2z"></path><path fill="#7b6614" d="m10.3 2.5c0 0.3 0 0.3-0.2 0.1-0.2-0.7-0.1-0.7 0.2-0.1z"></path><path fill="#faec0f" d="m24.3 2.3c0.3 0.2 0.6 0.4 0.9 0.7l0.1-0.1c0.1 0.2 0.2 0.4 0.4 0.5-0.4 0.2-0.7 0.2-0.9-0.1-0.3 0.1-0.6 0.2-0.8 0.4-0.1-0.1-0.1-0.1-0.2-0.1-0.3 0.3-0.7 0.4-1 0.4-0.2-0.3-0.4-0.6-0.7-0.8 0.3-0.4 0.3-0.9 0.3-1.3l-0.2 0.1c-0.1-0.2-0.2-0.3-0.3-0.5-0.1-0.4 0-0.7 0-1 0.2 0.1 0.3 0.2 0.4 0.4-0.1 0.2-0.1 0.5-0.1 0.7 0.1-0.3 0.3-0.6 0.5-0.8 0 0.3 0 0.6 0 1 0.2-0.3 0.3-0.6 0.3-0.9 0.1 0 0.3 0 0.4 0.1-0.1 0.2-0.2 0.5-0.3 0.8l0.2 0.1c0.2-0.3 0.2-0.5 0.3-0.8 0.1-0.1 0.2 0 0.4 0-0.1 0.3-0.3 0.6-0.4 0.8 0.1 0.2 0.2 0.2 0.3 0 0-0.2 0.1-0.4 0.2-0.6 0.1 0.4 0.2 0.7 0.2 1z"></path><path fill="#f3eb39" d="m15.3 1.3c-0.4 0.2-0.7 0.4-1 0.6-0.3-0.1-0.6-0.1-0.9-0.1-0.7 0.3-1.4 0.6-2.1 0.9-0.1 0-0.1 0-0.2-0.1-0.2 0.1-0.4 0.2-0.6 0.2-0.4 0.3-0.7 0.7-0.9 1.1-0.1-0.3-0.3-0.4-0.5-0.2-0.1-0.1 0-0.3 0-0.4 0.2 0.2 0.3 0.2 0.4 0-0.4-1.1-0.3-1.1 0.3-0.1 0.1-0.2 0.1-0.3 0-0.5 0-0.1 0.1-0.1 0.3-0.1 0.2 0.2 0.2 0.2 0.2-0.1 0-0.1 0-0.2 0.1-0.3 0.5 0.5 0.6 0.4 0.2-0.2 0.4-0.1 0.6 0.1 0.7 0.5-0.1-0.3 0-0.5 0-0.7 0.2 0.2 0.4 0.3 0.6 0.3-0.2-0.8-0.1-0.8 0.3-0.1 0-1.1 0.1-1.2 0.5-0.1 0-0.3 0.1-0.6 0.2-0.8 0.1 0.1 0.2 0.3 0.3 0.5 0-0.2 0.1-0.5 0.2-0.7 0.1 0.3 0.2 0.5 0.4 0.7 0-1.2 0.2-1.3 0.5-0.1 0.1-1 0.3-1.1 0.5-0.2 0-0.3 0.1-0.6 0.2-0.9 0.1 0.3 0.2 0.6 0.3 0.9z"></path><path fill="#ebe16a" d="m8.1 2.9c0.4 0.1 0.6 0.3 0.7 0.7h-0.3c-0.2-0.2-0.4-0.4-0.5-0.6 0 0.4 0.1 0.7 0.4 1-0.1 0.1-0.2 0.3-0.3 0.4-0.1 0-0.1 0-0.2-0.1 0.1-0.3 0-0.6-0.3-0.9 0 0.2 0 0.4 0.1 0.6-0.1 0-0.2 0.1-0.2 0.1-0.1-0.1-0.3-0.3-0.4-0.5 0.3-0.3 0.6-0.5 1-0.7z"></path><path fill="#e2d527" d="m21 3c0.1-0.1 0.3-0.2 0.4-0.1-0.1 0.4-0.1 0.8 0 1.2l-0.2 0.1c0.1 0.2 0.3 0.3 0.5 0.2-0.2 0.2-0.4 0.2-0.7 0.2 0.1-0.6 0.1-1.1 0-1.6z"></path><path fill="#a4941d" d="m8.5 3.6c0.2 0.2 0.2 0.4-0.1 0.4-0.3-0.3-0.4-0.6-0.4-1 0.1 0.2 0.3 0.4 0.5 0.6z"></path><path fill="#8d7820" d="m7.9 4.3c0-0.2-0.1-0.2-0.2-0.3-0.1-0.2-0.1-0.4-0.1-0.6 0.3 0.3 0.4 0.6 0.3 0.9z"></path><path fill="#cfaa38" d="m28.3 3.3c0.7 0.4 1.3 0.8 1.9 1.3 0.3 0.3 0.6 0.7 0.8 1.1-0.3-0.3-0.7-0.5-1-0.8-0.4 0-0.7 0.2-0.9 0.5-0.1-0.1-0.1-0.2 0-0.3 0.2-0.1 0.4-0.3 0.5-0.5l-0.1-0.2c-0.3 0.2-0.5 0.4-0.7 0.6-0.1 0-0.2-0.1-0.2-0.1 0.3-0.2 0.5-0.4 0.6-0.7-0.1-0.2-0.2-0.2-0.3-0.1-0.2 0.2-0.3 0.4-0.5 0.6 0-0.3 0.1-0.6 0.4-0.8-0.1-0.1-0.2-0.2-0.3-0.3-0.1 0.3-0.4 0.6-0.7 0.7 0.3-0.3 0.5-0.6 0.5-1z" opacity=".333"></path><path fill="#6d530c" d="m21 3c0.1 0.5 0.1 1 0 1.6 0.3 0 0.5 0 0.7-0.2 0.2-0.3 0.4-0.7 0.5-1.1 0.1 0.6-0.1 1.1-0.5 1.5-0.5 0.1-0.8 0-1-0.5 0.1-0.5 0.2-0.9 0.3-1.3z"></path><path fill="#f8d710" d="m28.3 3.3c0 0.4-0.2 0.7-0.5 1-0.2 0.2-0.4 0.3-0.6 0.3v0.4l-1.4 0.7v0.4c-0.6 0.2-1.1 0.6-1.3 1.3-0.6-0.1-1.1 0.1-1.5 0.6 0.1 0.1 0.3 0.3 0.4 0.4v0.1c-0.1 0.2-0.2 0.4-0.2 0.6 0-0.2-0.1-0.3-0.2-0.5-0.5 0.4-0.9 0.3-1.2-0.1-0.1 0.1-0.2 0.2-0.4 0.1l-1.9-0.4c-0.8-0.1-1.6-0.2-2.4-0.1 0.6-0.2 1.1-0.3 1.7-0.4 0.3 0.3 0.5 0.3 0.8 0-0.4 0.2-0.6 0-0.5-0.5 0.2 0.2 0.2 0.2 0.2 0 0-0.1 0-0.2-0.1-0.3-0.5-0.2-0.9-0.3-1.4-0.4 0.2-0.1 0.4-0.1 0.7-0.2-0.3-0.2-0.5-0.2-0.9-0.2 0.3-0.3 0.5-0.3 0.9-0.1 0.1 0.2 0.2 0.4 0.1 0.7 0.5 0.1 0.8-0.1 0.9-0.6 0.1 0.1 0.2 0.1 0.3 0.2-0.3 0.2-0.4 0.6-0.2 0.9 0.1-0.2 0.2-0.4 0.3-0.6 0.3 0 0.5 0 0.7-0.1-0.2-0.2-0.4-0.3-0.7-0.2 0.3-0.2 0.6-0.2 1 0 0.1-0.1 0.2 0 0.3 0-0.2 0.2-0.4 0.4-0.5 0.7-0.3-0.2-0.5-0.2-0.8 0 0.2 0.3 0.2 0.5 0 0.8 0.3 0.2 0.6 0.2 1 0l0.3 0.1c-0.2 0.2-0.2 0.3 0 0.3 0-0.3 0.2-0.6 0.4-0.8 0.1-0.5 0.3-0.7 0.8-0.6 0.5-0.1 0.9-0.1 1.2 0.2 0.1-0.1 0.1-0.2 0-0.3-0.2-0.1-0.4-0.3-0.6-0.5 0.5-0.3 0.5-0.5-0.1-0.5-0.1-0.2 0-0.3 0.1-0.4 0 0 0 0.1 0.1 0.1 0.2-0.2 0.5-0.3 0.7-0.3v0.7c0.2 0.1 0.4 0 0.5-0.1-0.1-0.3-0.1-0.6-0.1-0.8 0.2-0.3 0.4-0.5 0.6-0.8 0.7 0.5 0.8 0.4 0.3-0.2l0.1-0.1c0.3 0 0.6 0.1 0.9 0.2 0.2 0 0.3-0.2 0.4-0.3-0.3-0.3-0.7-0.6-1-0.9 0.1-0.2 0.3-0.4 0.4-0.5 0.2-0.1 0.4-0.1 0.6 0-0.2 0.5-0.1 0.6 0.3 0.2 0.1 0.3 0 0.5-0.3 0.8l0.1 0.1c0.2-0.2 0.4-0.5 0.5-0.8l0.2 0.1c0 0.4-0.1 0.7-0.4 1 0.3-0.2 0.5-0.4 0.7-0.7 0.1 0.4 0.1 0.7-0.2 0.9l0.1 0.1c0.2-0.3 0.5-0.6 0.8-0.7z"></path><path fill="#fdfc04" d="m7.1 12.2c0 0.1 0.1 0.1 0.1 0.2-0.4 0.5-0.7 1.1-0.7 1.8-0.3 0.4-0.5 0.9-0.7 1.3-0.1-0.4-0.1-0.7-0.3-1.1-0.3 0.5-0.7 0.9-1.2 1.1 0.1 0.2 0.1 0.4-0.1 0.6 0-0.2-0.2-0.3-0.3-0.2-0.6 0.5-1.2 0.9-1.8 1.3l-0.3-0.5c-0.1 0.1-0.1 0.1-0.2 0 0.1-0.2 0.2-0.3 0.3-0.5-0.1-0.4-0.3-0.8-0.6-1.1-0.3 0.1-0.6 0-0.8-0.3 0.3 0 0.6 0 1-0.1-0.3-0.1-0.5-0.2-0.7-0.3 0.2-0.1 0.5-0.2 0.8-0.2-0.3-0.2-0.3-0.3 0.2-0.3 0.1-0.4 0.1-0.6 0-0.9-0.4 0-0.7-0.1-0.9-0.3 0.4 0 0.8 0 1.1-0.1-0.3-0.1-0.6-0.2-0.9-0.4 0-0.1 0.2-0.2 0.3-0.2 0.3 0.2 0.5 0.2 0.8 0.1-0.9-0.4-0.9-0.5 0.1-0.4 0.3-0.3 0.5-0.6 0.9-0.9 0-0.3-0.1-0.5-0.2-0.7 0.4-0.2 0.7-0.4 0.9-0.7l0.2 0.2c0-0.3-0.1-0.7-0.1-1.1h0.1c0.4-0.3 0.8-0.5 1.3-0.6 0.3 0 0.6-0.1 0.9-0.3-0.2-0.1-0.3-0.2-0.5-0.3 0.4-0.1 0.7-0.3 0.9-0.5l-0.2-0.2c0.4 0 0.8-0.1 1.2-0.2 0.1-0.2 0.1-0.5 0-0.7 0.2 0.2 0.3 0.2 0.4 0 0.2-0.3 0.3-0.6 0.4-0.9 0.2-0.1 0.3 0 0.4 0.2 0.4-0.1 0.5-0.3 0.2-0.6-0.1 0.2-0.2 0.2-0.3 0 0.3-0.6 0.7-0.7 1.2-0.1l0.1 0.6c0.3-0.2 0.3-0.1 0.1 0.2l0.3 0.1c-0.3 0.2-0.4 0.5-0.4 0.8 0.5-0.1 0.9 0.2 1.1 0.7-0.3 0.4-0.6 0.8-1 1.2-0.2 0-0.5 0.1-0.7 0v0.6h-0.4c0 0.4-0.3 0.7-0.7 0.9-0.2 0.4-0.5 0.8-0.8 1.1 0-0.7-0.2-0.7-0.4-0.2 0.1 0.1 0.1 0.2 0.2 0.2-0.2 0.6-0.3 1.1-0.3 1.7z"></path><path fill="#fbfa0f" d="m18.6 1.1c0.3 0.1 0.4 0.2 0.4 0.5 0 0 0.1-0.1 0.2-0.1 0.5 0.1 0.5 0.3 0 0.5 0.3 0.1 0.6 0 0.8-0.2 0.4 0.4 0.5 0.3 0.4-0.2l0.4 0.3c0.2-0.3 0.4-0.4 0.8-0.4h0.3c0.1 0.2 0.2 0.3 0.3 0.5l0.2-0.1c0 0.4 0 0.9-0.3 1.3-0.6-0.4-0.7-0.3-0.2 0.5l-0.3 0.1c0.1 0.2 0.2 0.4 0.1 0.6-0.2 0.1-0.4 0-0.5-0.2l0.2-0.1c-0.1-0.4-0.1-0.8 0-1.2-0.1-0.1-0.3 0-0.4 0.1-0.1 0.4-0.2 0.8-0.3 1.3-0.1 0.2-0.1 0.4-0.1 0.7 0.6 0 0.6 0.1 0 0.2 0.2 0.1 0.2 0.2 0 0.3 0.7 0.1 1.3 0.3 1.8 0.7 0 0.1-0.1 0.2-0.3 0.2-0.4-0.3-0.8-0.3-1.2-0.1-0.4-0.2-0.7-0.2-1 0h-0.1c-0.1-0.1-0.2-0.1-0.3-0.2-0.1 0.5-0.4 0.7-0.9 0.6 0.1-0.3 0-0.5-0.1-0.7-0.4-0.2-0.6-0.2-0.9 0.1-0.3 0.1-0.6 0.1-0.9 0.3-0.1 0-0.2-0.1-0.2-0.1 0-0.2 0-0.4 0-0.6-0.2 0.1-0.4 0.2-0.5 0.1 0-0.3-0.1-0.6-0.3-0.8 0 0.3 0 0.6 0 1-0.3 0-0.6-0.1-0.9-0.4 0.1-0.7 0.2-1.4 0.2-2.1-0.3-0.2-0.6-0.2-0.9-0.2h-0.2c-0.3-0.1-0.6-0.1-0.9 0-0.5 1.4 0 2.1 1.6 2v0.4c-0.6-0.1-0.9 0.1-0.9 0.6 0.3 0 0.6-0.1 0.8-0.3 0.2 0.1 0.4 0.3 0.6 0.5-0.1 0.1-0.2 0-0.3-0.1-0.1 0.2-0.1 0.3-0.2 0.4l-0.7-0.3c-0.2 0.2-0.2 0.3-0.2 0.5-0.3-0.2-0.3-0.4-0.1-0.7l-0.4 0c-0.6 0.3-1.3 0.6-2 0.9 0.5 0.1 1 0 1.4-0.4 0.1-0.1 0.3-0.1 0.4 0 0.1 0.3 0.2 0.7 0.1 1.1-0.3 0-0.7 0-1-0.1-0.2 0-0.3 0.1-0.4 0.3 0 0.1 0 0.1-0.1 0.1-0.1 0.3-0.2 0.7-0.1 1h0.4c0 0.2 0 0.5 0 0.7-0.3 0.2-0.6 0.4-0.9 0.7-0.3 0.3-0.5 0.2-0.7-0.1v-0.7c0.3 0 0.5 0 0.7 0.1 0.3-0.5 0-0.8-0.6-0.8-0.5 0-0.7 0.2-0.6 0.7-0.2 0.2-0.3 0.4-0.4 0.7-0.1-0.2-0.2-0.2-0.3 0l0.3 0.2c-0.3 0-0.5 0.1-0.8 0.2l-0.2 0.4c-0.3 0-0.5 0.2-0.6 0.4 0.2 0.2 0.2 0.3 0 0.4l0.3 0.1c-0.3 0.1-0.7 0.1-1 0 0-0.6 0.1-1.1 0.3-1.7-0.1 0-0.1-0.1-0.2-0.2 0.2-0.5 0.4-0.5 0.4 0.2 0.3-0.3 0.6-0.7 0.8-1.1 0.4-0.2 0.7-0.5 0.7-0.9h0.4v-0.6c0.2 0.1 0.5 0 0.7 0 0.4-0.4 0.7-0.8 1-1.2-0.2-0.5-0.6-0.8-1.1-0.7 0-0.3 0.1-0.6 0.4-0.8l-0.3-0.1c0.2-0.3 0.2-0.4-0.1-0.2l-0.1-0.6c-0.5-0.6-0.9-0.5-1.2 0.1 0.1 0.2 0.2 0.2 0.3 0 0.3 0.3 0.2 0.5-0.2 0.6-0.1-0.2-0.2-0.3-0.4-0.2-0.1 0.3-0.2 0.6-0.4 0.9-0.1 0.2-0.2 0.2-0.4 0 0.1 0.2 0.1 0.5 0 0.7-0.4 0.1-0.8 0.2-1.2 0.2l0.2 0.2c-0.2 0.2-0.5 0.4-0.9 0.5 0.2 0.1 0.3 0.2 0.5 0.3-0.3 0.2-0.6 0.3-0.9 0.3-0.1-0.1-0.2-0.2-0.3-0.2-0.1-0.1-0.1-0.2 0-0.3 0.1 0.1 0.2 0.1 0.3 0 0.2-0.1 0.2-0.2 0-0.4l1.1-0.7c0.6 0.2 0.7 0.1 0.3-0.4 0.1-0.2 0.3-0.4 0.4-0.6 0.3 0.2 0.4 0.1 0.6-0.1l-0.1-0.1c0-0.3 0.1-0.6 0.2-0.8 0.1 0.1 0.1 0.1 0.2 0.1 0.1-0.1 0.2-0.3 0.3-0.4 0.3 0 0.3-0.2 0.1-0.4h0.3c0 0.1 0.1 0.2 0.3 0.1 0.2-0.2 0.4-0.1 0.5 0.2 0.2-0.4 0.5-0.8 0.9-1.1 0.2 0 0.4-0.1 0.6-0.2 0.1 0.1 0.1 0.1 0.2 0.1 0.7-0.3 1.4-0.6 2.1-0.9 0.3 0 0.6 0 0.9 0.1 0.3-0.2 0.6-0.4 1-0.6 0.2-0.2 0.3-0.4 0.3-0.8 0 0.2 0.1 0.5 0.2 0.7l0.3-1c0.2 1.1 0.4 1.1 0.4 0 0.2 0.2 0.4 0.5 0.4 0.9 0.2-0.4 0.2-0.7 0-1h0.5c-0.1 0.3 0 0.6 0.1 1 0.2-1.4 0.4-1.4 0.6 0 0.1-0.3 0.2-0.6 0.2-0.9 0 0.4 0.1 0.7 0.3 0.9z"></path><path fill="#684f09" d="m19.5 4.4c-0.5 0.1-0.8 0-1.1-0.3 0.1-0.3 0.1-0.7 0.2-1.1 0 0.4 0.1 0.9 0 1.3 0.3-0.1 0.6 0 0.9 0.1z"></path><path fill="#ab9c1e" d="m19.5 4.4c-0.3-0.1-0.6-0.2-0.9-0.1 0.1-0.4 0-0.9 0-1.3-0.1 0.4-0.1 0.8-0.2 1.1-0.1-0.4 0-0.8 0-1.2 0.1-0.1 0.2-0.1 0.2-0.2 0.2 0.5 0.2 1 0.2 1.4 0.3 0 0.6 0.1 0.8 0.2 0 0.1 0 0.1-0.1 0.1z" opacity=".996"></path><path fill="#e7de28" d="m16.4 4.6c0.2-0.1 0.5-0.2 0.8-0.3l0-0.2c-0.5 0.1-0.8 0.2-1.1 0.5-0.1-0.7-0.2-1.4-0.1-2.1h0.5c0 0.5 0.1 1 0.2 1.5 0.2 0 0.5 0 0.8 0.1-0.1 0.1-0.2 0.3-0.1 0.5h-1z"></path><path fill="#77630b" d="m16.4 4.6h-0.3c0.3-0.3 0.6-0.4 1.1-0.5l0 0.2c-0.3 0.1-0.6 0.2-0.8 0.3z"></path><path fill="#654b0a" d="m16.1 2.9c0.3 0.4 0.3 0.8 0.2 1.2-0.2-0.3-0.3-0.8-0.2-1.2z"></path><path fill="#876913" d="m24 4.7c-0.1 0.4 0 0.7 0.3 1-0.1 0.1-0.3 0.2-0.5 0.1v-0.7c-0.2 0-0.5 0.1-0.7 0.3-0.1 0-0.1-0.1-0.1-0.1 0.3-0.3 0.6-0.5 1-0.6z"></path><path fill="#837013" d="m6.4 5.3c0 0.1 0 0.2-0.1 0.3-0.1-0.2-0.2-0.3-0.3-0.3-0.1-0.2-0.2-0.3-0.1-0.4 0.2 0.1 0.3 0.3 0.5 0.4z"></path><path fill="#fae40e" d="m25.9 2.3c-0.1 0.1-0.3 0.3-0.4 0.5 0.3 0.3 0.7 0.6 1 0.9-0.1 0.1-0.2 0.3-0.4 0.3-0.3-0.1-0.6-0.2-0.9-0.2l-0.1 0.1c0.5 0.6 0.4 0.7-0.3 0.2-0.3 0.2-0.6 0.4-0.8 0.6-0.4 0.1-0.7 0.3-1 0.6-0.1 0.1-0.2 0.2-0.1 0.4 0.6 0 0.6 0.2 0.1 0.5 0.2 0.2 0.4 0.4 0.6 0.5 0.1 0.1 0.1 0.2 0 0.3-0.3-0.3-0.7-0.3-1.2-0.2-0.5-0.1-0.7 0.1-0.8 0.6-0.2 0.2-0.4 0.5-0.4 0.8-0.2 0-0.2-0.1 0-0.3l-0.3-0.1c-0.4 0.2-0.7 0.2-1 0 0.2-0.3 0.2-0.5 0-0.8 0.3-0.2 0.5-0.2 0.8 0 0.1-0.3 0.3-0.5 0.5-0.7-0.1 0-0.2-0.1-0.3 0 0.4-0.2 0.8-0.2 1.2 0.1 0.2 0 0.3-0.1 0.3-0.2-0.5-0.4-1.1-0.6-1.8-0.7 0.2-0.1 0.2-0.2 0-0.3 0.6-0.1 0.6-0.2 0-0.2 0-0.3 0-0.5 0.1-0.7 0.2 0.5 0.5 0.6 1 0.5 0.4-0.4 0.6-0.9 0.5-1.5-0.1 0.4-0.3 0.8-0.5 1.1 0.1-0.2 0-0.4-0.1-0.6l0.3-0.1c-0.5-0.8-0.4-0.9 0.2-0.5 0.3 0.2 0.5 0.5 0.7 0.8 0.3 0 0.7-0.1 1-0.4 0.1 0 0.1 0 0.2 0.1 0.2-0.2 0.5-0.3 0.8-0.4 0.2 0.3 0.5 0.3 0.9 0.1-0.2-0.1-0.3-0.3-0.4-0.5l-0.1 0.1c-0.3-0.3-0.6-0.5-0.9-0.7 0-0.3 0.2-0.6 0.5-0.8 0 0.3 0 0.6 0 1 0.2-0.3 0.3-0.6 0.4-0.9 0.1 0.1 0.2 0.2 0.2 0.4-0.2 0.2-0.2 0.5-0.2 0.7 0.2-0.2 0.4-0.5 0.6-0.8 0.1 0.1 0.2 0.3 0.1 0.4z"></path><path fill="#98770c" d="m24 3.7c0 0.3 0 0.5-0.1 0.7-0.3-0.3-0.3-0.5 0.1-0.7z"></path><path fill="#fbcc09" d="m28.8 5c-0.6 0.4-1 0.9-1.4 1.5-0.4 0.1-0.7 0.2-1 0.3-0.3 0.5-0.7 0.7-1.2 0.7-0.2 0.4-0.3 0.7-0.3 1.1-0.1-0.1-0.2-0.2-0.4-0.4-0.4-0.2-0.7-0.1-1.1 0.2-0.1-0.1-0.3-0.3-0.4-0.4 0.4-0.5 0.9-0.7 1.5-0.6 0.2-0.7 0.7-1.1 1.3-1.3v-0.4l1.4-0.7v-0.4c0.2 0 0.4-0.1 0.6-0.3 0.3-0.1 0.6-0.4 0.7-0.7 0.1 0.1 0.2 0.2 0.3 0.3-0.3 0.2-0.4 0.5-0.4 0.8 0.2-0.2 0.3-0.4 0.5-0.6 0.1-0.1 0.2-0.1 0.3 0.1-0.1 0.3-0.3 0.5-0.6 0.7 0 0 0.1 0.1 0.2 0.1z"></path><path fill="#765a0f" d="m11.9 4.4c0.1 0.2 0.2 0.4 0.1 0.6-0.4 0.3-0.6 0.7-0.8 1.1-0.1-0.5 0-0.9 0.5-1.1 0-0.1 0.1-0.3 0-0.4-0.4-0.1-0.7 0.1-0.7 0.5-0.2-0.1-0.3-0.3-0.2-0.5 0.4-0.2 0.7-0.2 1.1-0.2z"></path><path fill="#d7b92d" d="m11.9 4.4c-0.4 0-0.7 0-1.1 0.2-0.1 0.2 0 0.4 0.2 0.5 0-0.4 0.3-0.6 0.7-0.5 0.1 0.1 0 0.3 0 0.4-0.5 0.2-0.6 0.6-0.5 1.1-0.5-0.5-0.6-1-0.5-1.7 0.4-0.2 0.8-0.2 1.2 0z"></path><path fill="#5d3e0a" d="m24.8 4.1c-0.2 0.3-0.4 0.5-0.6 0.8 0 0.2 0 0.5 0.1 0.8-0.3-0.3-0.4-0.6-0.3-1 0.2-0.2 0.5-0.4 0.8-0.6z"></path><path fill="#f9bf0a" d="m30 4.9c0 0.3-0.2 0.4-0.5 0.4-0.1 0.3 0 0.5 0.2 0.7-0.2 0-0.3 0.1-0.5 0.2-0.8 0.5-1.5 1.2-2.1 1.8-0.2 0.1-0.4 0.1-0.5 0.2-0.2 0-0.5 0-0.7-0.1-0.1 0.3 0 0.5 0.3 0.6-0.2 0.2-0.5 0.4-0.8 0.4 0.1 0.1 0.1 0.3 0 0.4-0.3 0.1-0.4 0.3-0.5 0.6-0.2-0.3-0.4-0.5-0.8-0.5 0 0.3 0 0.4-0.3 0.5-0.7-0.6-1.5-1-2.4-1.5 0.2 0.1 0.3 0 0.4-0.1 0.3 0.4 0.7 0.5 1.2 0.1 0.1 0.2 0.2 0.3 0.2 0.5 0-0.2 0.1-0.4 0.2-0.6 0.2 0.9 0.3 0.9 0.4 0 0.2-0.2 0.4-0.2 0.6 0 0.1-0.1 0.2-0.2 0.1-0.3 0.2 0.2 0.3 0.3 0.4 0.4 0-0.4 0.1-0.7 0.3-1.1 0.5 0 0.9-0.2 1.2-0.7 0.3-0.1 0.6-0.2 1-0.3 0.4-0.6 0.8-1.1 1.4-1.5 0.2-0.2 0.4-0.4 0.7-0.6l0.1 0.2c-0.1 0.2-0.3 0.4-0.5 0.5-0.1 0.1-0.1 0.2 0 0.3 0.2-0.3 0.5-0.5 0.9-0.5z"></path><path fill="#fbb004" d="m29.7 6c0.1 0.1 0.3 0.2 0.5 0.1 0 0.2 0 0.4-0.1 0.6-0.2-0.2-0.2-0.1-0.2 0.1-0.4 0-0.6 0.1-0.8 0.4l-0.1-0.1c-0.6 0.4-1 0.9-1.4 1.5-0.4 0.2-0.8 0.2-1.2 0v0.5c-0.3 0-0.6 0.1-0.7 0.3-0.1 0.1-0.2 0.1-0.3 0.1 0.1-0.1 0.1-0.3 0-0.4 0.3 0 0.6-0.2 0.8-0.4-0.3-0.1-0.4-0.3-0.3-0.6 0.2 0.1 0.5 0.1 0.7 0.1 0.1-0.1 0.3-0.1 0.5-0.2 0.6-0.6 1.3-1.3 2.1-1.8 0.2-0.1 0.3-0.2 0.5-0.2z"></path><path fill="#c7b84b" d="m7.1 3.6c0.1 0.2 0.3 0.4 0.4 0.5 0.2 0.4 0.2 0.5-0.1 0.3l-0.3 0.5c-0.7-0.4-0.7-0.3-0.1 0.3-0.3 0-0.4 0-0.6 0.1-0.2-0.1-0.3-0.3-0.5-0.4-0.1 0.1 0 0.2 0.1 0.4-0.1 0-0.2 0-0.3 0.1 0.1 0.2 0.3 0.4 0.4 0.5-0.1 0.1-0.2 0.1-0.3-0.1 0 0.3-0.1 0.4-0.1 0.6-0.5-0.2-0.6-0.1-0.3 0.2-0.2 0-0.4 0.1-0.5 0.2 0 0.1 0 0.2 0.1 0.2-0.2 0.1-0.3 0.1-0.4 0.2 0.1 0.5 0 0.5-0.5 0.1-0.1-0.1-0.2-0.1-0.4 0 0.2 0.2 0.5 0.4 0.7 0.6-0.2 0-0.5-0.1-0.7-0.2-0.1 0-0.2 0.1-0.3 0.2 0.4 0.1 0.6 0.3 0.7 0.6h-0.1c-0.1-0.1-0.2-0.1-0.3-0.3-0.1 0.3-0.1 0.5 0 0.7-0.3-0.2-0.5-0.3-0.8-0.2 0.2 0.2 0.4 0.4 0.7 0.6-0.3 0-0.5-0.1-0.8-0.2l-0.2 0.1c0.9 0.6 0.9 0.7-0.1 0.3 0-0.1-0.1-0.2-0.2-0.3 0.6-1.2 1.3-2.3 2.2-3.4 0.8-0.8 1.7-1.6 2.6-2.2z" opacity=".235"></path><path fill="#6e550c" d="m15.5 6.7c0-0.1 0.1-0.2 0.2-0.2 0.3-0.2 0.7-0.1 1 0.2-0.6-0.2-1 0.1-1.1 0.7-0.1-0.2-0.1-0.5-0.1-0.7z"></path><path fill="#6c510a" d="m17.6 6.1c0.4 0 0.6 0 0.9 0.2-0.3 0.1-0.5 0.1-0.7 0.2-0.1 0.2-0.2 0.4-0.3 0.6-0.2-0.4-0.1-0.7 0.1-1z"></path><path fill="#694c0a" d="m19.8 6.3h0.1c0.3-0.1 0.5 0 0.7 0.2-0.2 0.1-0.4 0.1-0.7 0.1-0.1 0.2-0.2 0.4-0.3 0.6-0.2-0.3-0.1-0.7 0.2-0.9z"></path><path fill="#e9a619" d="m30 4.9c0.3 0.3 0.7 0.5 1 0.8 0.2 0.1 0.3 0.2 0.4 0.4-0.4 0.1-0.7 0.4-0.8 0.7-0.2 0-0.3 0.1-0.4 0.3 0-0.2-0.1-0.3-0.3-0.3 0-0.2 0-0.3 0.2-0.1 0.1-0.2 0.1-0.4 0.1-0.6-0.2 0.1-0.4 0-0.5-0.1-0.2-0.2-0.3-0.4-0.2-0.7 0.3 0 0.5-0.1 0.5-0.4z"></path><path fill="#5b310c" d="m22.6 7.2c-0.2 0.2-0.5 0.2-0.7 0.3-0.1 0.2-0.2 0.4-0.2 0.6-0.1-0.2-0.1-0.4-0.1-0.6v-0.1c0.3-0.3 0.6-0.4 1-0.2z"></path><path fill="#f5e513" d="m16.5 6.3c0 0 0.1 0.1 0.2 0.1 0.3-0.2 0.6-0.2 0.9-0.3-0.2 0.3-0.3 0.6-0.1 1 0.1-0.2 0.2-0.4 0.3-0.6 0.5 0.1 0.9 0.2 1.4 0.4 0.1 0.1 0.1 0.2 0.1 0.3 0 0.2 0 0.2-0.2 0-0.1 0.5 0.1 0.7 0.5 0.5-0.3 0.3-0.5 0.3-0.8 0-0.6 0.1-1.1 0.2-1.7 0.4l-1.7 0.3c0-0.2 0.2-0.3 0.4-0.3 0.3-0.1 0.7-0.2 1.1-0.2 0.1-0.1 0.2-0.2 0.3-0.4 0.1 0.2 0.2 0.2 0.2 0-0.3-0.2-0.3-0.4-0.2-0.5l-0.2-0.2c-0.3 0.1-0.7 0.2-1 0.2-0.2 0.2-0.2 0.4-0.2 0.7h-0.4c0-0.4 0-0.7 0.1-1 0 0.2 0 0.5 0.1 0.7 0.1-0.6 0.5-0.9 1.1-0.7-0.3-0.3-0.7-0.4-1-0.2 0-0.2 0.1-0.3 0.3-0.4 0.2 0.1 0.3 0.2 0.5 0.2z"></path><path fill="#f89109" d="m32.3 8.2c-0.5 0.2-1 0.5-1.4 0.7v0.5c-0.2-0.1-0.4 0-0.6 0-0.4 0.4-0.8 0.8-1.3 1.1-0.2 0.1-0.4 0.1-0.7 0.1-0.2-0.1-0.4-0.3-0.6-0.5l-0.1 0.1c0.4 0.4 0.6 0.8 0.9 1.3h-0.4c0 0.2-0.1 0.5-0.2 0.7v0.4c-0.4-0.1-0.7 0-1 0.3l-0.1-0.3c-0.2 0.1-0.4 0.1-0.6 0.1-0.2-0.3-0.4-0.6-0.5-1 0 0 0-0.1 0-0.1 0.1 0.2 0.3 0.3 0.5 0.3 0-0.3 0-0.5 0.1-0.7 0.1-0.1 0.3-0.1 0.5 0-0.2 0.3-0.2 0.7 0.1 1 0-0.3 0.1-0.6 0.2-0.8 0.2 0 0.5-0.1 0.7-0.1-0.1-0.2-0.3-0.3-0.6-0.3 0.2-0.1 0.3-0.3 0.3-0.6-0.1-0.4-0.3-0.8-0.4-1.2 0.4 0.5 0.8 0.5 1.4 0.2 0.8-0.8 1.7-1.4 2.6-1.9 0.1 0.1 0.2 0.2 0.3 0.2 0.9-0.4 0.9-0.3 0.2 0.3 0.1 0.1 0.3 0 0.5-0.1 0.1 0.1 0.2 0.2 0.2 0.3z"></path><path fill="#f4ee30" d="m7.7 4c0.1 0.1 0.2 0.1 0.2 0.3-0.1 0.2-0.2 0.5-0.2 0.8l0.1 0.1c-0.2 0.2-0.3 0.3-0.6 0.1-0.1 0.2-0.3 0.4-0.4 0.6 0.4 0.5 0.3 0.6-0.3 0.4l-1.1 0.7c0.2 0.2 0.2 0.3 0 0.4-0.1 0.1-0.2 0.1-0.3 0-0.1 0.1-0.1 0.2 0 0.3 0.1 0 0.2 0.1 0.3 0.2-0.5 0.1-0.9 0.3-1.3 0.6-0.1-0.3-0.3-0.5-0.7-0.6 0.1-0.1 0.2-0.2 0.3-0.2 0.2 0.1 0.5 0.2 0.7 0.2-0.2-0.2-0.5-0.4-0.7-0.6 0.2-0.1 0.3-0.1 0.4 0 0.5 0.4 0.6 0.4 0.5-0.1 0.1-0.1 0.2-0.1 0.4-0.2-0.1 0-0.1-0.1-0.1-0.2 0.1-0.1 0.3-0.2 0.5-0.2-0.3-0.3-0.2-0.4 0.3-0.2 0-0.2 0.1-0.3 0.1-0.6 0.1 0.2 0.2 0.2 0.3 0.1-0.1-0.1-0.3-0.3-0.4-0.5 0.1-0.1 0.2-0.1 0.3-0.1 0.1 0 0.2 0.1 0.3 0.3 0.1-0.1 0.1-0.2 0.1-0.3 0.2-0.1 0.3-0.1 0.6-0.1-0.6-0.6-0.6-0.7 0.1-0.3l0.3-0.5c0.3 0.2 0.3 0.1 0.1-0.3 0 0 0.1-0.1 0.2-0.1z"></path><path fill="#d4ad25" d="m22.6 7.2c0 0.1 0.1 0.1 0.1 0.2-0.2 0.1-0.4 0.2-0.7 0.1 0.1 0.3 0 0.6-0.1 0.9-0.4-0.2-0.5-0.5-0.3-0.9 0 0.2 0 0.4 0.1 0.6 0-0.2 0.1-0.4 0.2-0.6 0.2-0.1 0.5-0.1 0.7-0.3z"></path><path fill="#523409" d="m12.6 8.1l-0.7 0.3c-0.1 0.1-0.2 0.3-0.2 0.5-0.1-0.2-0.1-0.4-0.1-0.7 0.1 0 0.1 0 0.1-0.1 0.3-0.2 0.6-0.2 0.9 0z"></path><path fill="#b5a316" d="m12.6 8.1c0.1 0 0.1 0 0.1 0.1-0.2 0.2-0.5 0.2-0.8 0.2l0.7-0.3z"></path><path fill="#d9962c" d="m31.4 6.1c1.1 1 1.9 2.2 2.4 3.5l-0.3-0.2c-0.4-0.4-0.8-0.8-1.2-1.2 0-0.1-0.1-0.2-0.2-0.3-0.2 0.1-0.4 0.2-0.5 0.1 0.7-0.6 0.7-0.7-0.2-0.3-0.1 0-0.2-0.1-0.3-0.2 0-0.2-0.1-0.3-0.2-0.3 0.1-0.4 0-0.5-0.3-0.4 0.1-0.3 0.4-0.6 0.8-0.7z"></path><path fill="#f88406" d="m32.3 8.2c0.4 0.4 0.8 0.8 1.2 1.2-0.3 0-0.5 0.2-0.7 0.4h-0.1c-0.1-0.3-0.3-0.5-0.6-0.7-1 0.7-1.9 1.4-2.8 2.2l-0.2-0.3c0 0.2-0.2 0.3-0.3 0.3-0.2-0.2-0.4-0.4-0.5-0.7 0.3 0 0.5 0 0.7-0.1 0.5-0.3 0.9-0.7 1.3-1.1 0.2 0 0.4-0.1 0.6 0v-0.5c0.4-0.2 0.9-0.5 1.4-0.7z"></path><path fill="#fde205" d="m16.7 8.5c0.8 0 1.7 0 2.5 0.1-0.5 0.7-1.2 1.2-2 1.7-0.1 0.1-0.2 0.3-0.3 0.5-0.7 0.5-1.5 1-2.3 1.5-0.3 0.3-0.5 0.5-0.7 0.8-0.6 0.2-1.1 0.4-1.6 0.8v0.4c0.5-0.3 0.9-0.2 1.1 0.3-0.2 0.1-0.5 0.1-0.7 0.2-0.3 0-0.5 0.1-0.7 0.3 0.2 0.7 0.2 1.4 0 2.1-0.2 0-0.5 0-0.8 0 0.6-0.4 0.7-0.9 0.2-1.5-0.1 0.1-0.2 0.2-0.2 0.3 0.1 0.2 0.1 0.4 0.1 0.5-0.9 0.3-1.6 0.8-2.2 1.6 0-0.4-0.1-0.7-0.3-1l0.3-1.1c-0.2-0.5-0.2-0.9 0-1.3 0.1-0.7 0.4-1.2 0.8-1.7 0 0.2 0 0.4 0.1 0.6 0.1-0.2 0.3-0.2 0.3 0-0.1 0.6-0.2 0.6-0.3 0.1-0.1 0.3-0.2 0.3-0.3 0.2-0.3 0.3-0.3 0.7 0.1 0.9 0.2-0.1 0.3-0.3 0.3-0.5 0.1 0.2 0.2 0.4 0.4 0.5 0.1-0.4 0.2-0.8 0.5-1.2 0.1 0.1 0.3 0.1 0.5 0 0.3-0.3 0.6-0.7 0.9-1 0.8-0.4 1.5-0.8 2.2-1.3 0.1-0.1 0.2-0.1 0.4-0.1v-0.4c0.2 0 0.4-0.1 0.5-0.2 0.2-0.3 0.4-0.6 0.7-0.8l-0.2-0.2c0.3-0.1 0.6-0.1 0.9-0.2l0.1 0.1c0.2-0.2 0.4-0.4 0.6-0.5-0.3-0.1-0.2-0.2 0.2-0.3-0.3-0.1-0.6 0-0.8 0.2l-0.1-0.3c-0.1 0.3-0.3 0.5-0.5 0.5-0.6 0.2-1.1 0.1-1.6 0l-0.2 0.4c-0.1-0.2-0.3-0.3-0.5-0.3 0.8-0.4 1.6-0.7 2.6-0.7z"></path><path fill="#fcdb07" d="m16.7 8.5c0.7-0.1 1.4-0.2 2.2-0.1 0.3 0 0.5 0 0.7 0.1 0.1 0.2 0.3 0.3 0.6 0.4-0.4 0.1-0.3 0.2 0.1 0.2-0.2 0.2-0.4 0.4-0.6 0.5l-0.2-0.1c-0.2 0.7-0.7 1.1-1.4 1.3 0 0.1 0 0.2 0.1 0.3-0.8 0.4-1.6 0.9-2.2 1.6 0 0-0.1-0.1-0.2-0.1-0.2 0.3-0.5 0.6-0.8 0.8-0.2 0.1-0.5 0.2-0.7 0.2l0 0.1 0.4 0.3c-0.4 0.4-0.3 0.7 0.2 1 0.2-0.1 0.3 0 0.4 0.3h-0.3c-0.3-0.2-0.6-0.3-0.9-0.3-0.4-0.2-0.9-0.2-1.4-0.2 0.2-0.1 0.5-0.1 0.7-0.2-0.2-0.5-0.6-0.6-1.1-0.3v-0.4c0.5-0.4 1-0.6 1.6-0.8 0.2-0.3 0.4-0.5 0.7-0.8 0.8-0.5 1.6-1 2.3-1.5 0.1-0.2 0.2-0.4 0.3-0.5 0.8-0.5 1.5-1 2-1.7-0.8-0.1-1.7-0.1-2.5-0.1z"></path><path fill="#6c3f09" d="m24.5 8.2c0.1 0.1 0 0.2-0.1 0.3-0.2-0.2-0.4-0.2-0.6 0-0.1 0.9-0.2 0.9-0.4 0v-0.1c0.4-0.3 0.7-0.4 1.1-0.2z"></path><path fill="#f3ec33" d="m4 8.5c0 0.4 0.1 0.8 0.1 1.1l-0.2-0.2c-0.2 0.3-0.5 0.5-0.9 0.7-0.3-0.1-0.6-0.2-0.8-0.4 0.1-0.1 0.1-0.2 0.3-0.2 1 0.4 1 0.3 0.1-0.3l0.2-0.1c0.3 0.1 0.5 0.2 0.8 0.2-0.3-0.2-0.5-0.4-0.7-0.6 0.3-0.1 0.5 0 0.8 0.2-0.1-0.2-0.1-0.4 0-0.7 0.1 0.2 0.2 0.2 0.3 0.3z"></path><path fill="#ccbe25" d="m11.6 8.2c0 0.3 0 0.5 0.1 0.7 0-0.2 0.1-0.4 0.2-0.5v0.8h-0.4c-0.1-0.3 0-0.7 0.1-1z"></path><path fill="#fbeb08" d="m9.9 13c1-1.8 2.4-3 4.2-3.8 0.2 0 0.4 0.1 0.5 0.3l0.2-0.4c0.5 0.1 1 0.2 1.6 0 0.2 0 0.4-0.2 0.5-0.5l0.1 0.3c0.2-0.2 0.5-0.3 0.8-0.2-0.4 0.1-0.5 0.2-0.2 0.3-0.2 0.1-0.4 0.3-0.6 0.5l-0.1-0.1c-0.3 0.1-0.6 0.1-0.9 0.2l0.2 0.2c-0.3 0.2-0.5 0.5-0.7 0.8-0.1 0.1-0.3 0.2-0.5 0.2v0.4c-0.2 0-0.3 0-0.4 0.1-0.7 0.5-1.4 0.9-2.2 1.3-0.3 0.3-0.6 0.7-0.9 1-0.2 0.1-0.4 0.1-0.5 0-0.3 0.4-0.4 0.8-0.5 1.2-0.2-0.1-0.3-0.3-0.4-0.5 0 0.2-0.1 0.4-0.3 0.5-0.4-0.2-0.4-0.6-0.1-0.9 0.1 0.1 0.2 0.1 0.3-0.2 0.1 0.5 0.2 0.5 0.3-0.1 0-0.2-0.2-0.2-0.3 0-0.1-0.2-0.1-0.4-0.1-0.6z"></path><path fill="#fdd103" d="m19.6 8.5c0.7 0.1 1.4 0.3 2 0.6 0.2 0.2 0.4 0.4 0.5 0.7 0.2-0.2 0.4-0.1 0.6 0-1.1 1-2.3 1.9-3.6 2.6-0.2 0.2-0.2 0.3-0.2 0.5-0.2-0.1-0.4 0-0.5 0.2l-0.1-0.1c-0.2 0.3-0.4 0.5-0.7 0.7 0.1 0.1 0.2 0.2 0.3 0.2l-0.1 0.2c0.2 0.3 0.5 0.5 0.8 0.6 0 0.1 0 0.1-0.1 0.1-0.5 0-0.9 0-1.3 0.2h-0.1c-0.3 0-0.5-0.1-0.6-0.3l-0.8 0.6c-0.2 0.1-0.3 0.1-0.4 0-0.1-0.3-0.2-0.4-0.4-0.3-0.5-0.3-0.6-0.6-0.2-1l-0.4-0.3 0-0.1c0.2 0 0.5-0.1 0.7-0.2 0.3-0.2 0.6-0.5 0.8-0.8 0.1 0 0.2 0.1 0.2 0.1 0.6-0.7 1.4-1.2 2.2-1.6-0.1-0.1-0.1-0.2-0.1-0.3 0.7-0.2 1.2-0.6 1.4-1.3l0.2 0.1c0.2-0.1 0.4-0.3 0.6-0.5-0.4 0-0.5-0.1-0.1-0.2-0.3-0.1-0.5-0.2-0.6-0.4z"></path><path fill="#9c5f0c" d="m18.9 8.4c0.2-0.2 0.4-0.2 0.6-0.2l1.9 0.4c0.9 0.5 1.7 0.9 2.4 1.5 0 0 0.1 0.1 0.2 0.1 0 0.1-0.1 0.1-0.2 0.1l-0.4-0.2c-0.5-0.5-1.1-0.8-1.8-1-0.6-0.3-1.3-0.5-2-0.6-0.2-0.1-0.4-0.1-0.7-0.1z"></path><path fill="#672e0b" d="m25.7 9.4c0.2-0.1 0.5 0 0.7 0.2-0.3 0-0.5 0.1-0.7 0.2-0.1 0.1-0.2 0.3-0.2 0.5-0.1-0.2-0.1-0.5-0.1-0.8 0.1 0 0.2 0 0.3-0.1z"></path><path fill="#e3d529" d="m10.3 10.5c-0.1 0-0.2 0-0.2-0.2 0.1-0.2 0.1-0.4 0.1-0.7 0.3 0.1 0.6 0 0.8 0-0.7-0.5-1.1-0.3-1.1 0.6-0.1-0.1-0.2-0.2-0.1-0.4-0.1-0.5 0.1-0.7 0.6-0.7 0.6 0 0.9 0.3 0.6 0.8-0.2-0.1-0.4-0.1-0.7-0.1v0.7z"></path><path fill="#63490e" d="m10.1 10.3c-0.1 0-0.2 0-0.2-0.1 0-0.9 0.4-1.1 1.1-0.6-0.2 0-0.5 0.1-0.8 0 0 0.3 0 0.5-0.1 0.7z"></path><path fill="#f7a009" d="m31.1 7.5c-0.9 0.5-1.8 1.1-2.6 1.9-0.6 0.3-1 0.3-1.4-0.2 0.1 0.4 0.3 0.8 0.4 1.2 0 0.3-0.1 0.5-0.3 0.6-0.1 0-0.3 0.1-0.4 0.2-0.2-0.1-0.4-0.1-0.5 0-0.1 0.2-0.1 0.4-0.1 0.7-0.2 0-0.4-0.1-0.5-0.3 0 0 0 0.1 0 0.1l-1.7-1.5c-0.1 0-0.2-0.1-0.2-0.1 0.3-0.1 0.3-0.2 0.3-0.5 0.4 0 0.6 0.2 0.8 0.5 0.1-0.3 0.2-0.5 0.5-0.6 0 0.3 0 0.6 0.1 0.8 0-0.2 0.1-0.4 0.2-0.5 0.2-0.1 0.4-0.2 0.7-0.2-0.2-0.2-0.5-0.3-0.7-0.2 0.1-0.2 0.4-0.3 0.7-0.3v-0.5c0.4 0.2 0.8 0.2 1.2 0 0.4-0.6 0.8-1.1 1.4-1.5l0.1 0.1c0.2-0.3 0.4-0.4 0.8-0.4 0.2 0 0.3 0.1 0.3 0.3 0.1-0.2 0.2-0.3 0.4-0.3 0.3-0.1 0.4 0 0.3 0.4 0.1 0 0.2 0.1 0.2 0.3z"></path><path fill="#fb7903" d="m32.7 9.8c-0.9 0.8-1.9 1.6-3 2.2-0.1 0.4-0.1 0.8 0 1.1-0.2-0.2-0.4-0.5-0.5-0.8-0.1-0.3-0.3-0.7-0.4-1 0.1 0 0.3-0.1 0.3-0.3l0.2 0.3c0.9-0.8 1.8-1.5 2.8-2.2 0.3 0.2 0.5 0.4 0.6 0.7z"></path><path fill="#cd6d15" d="m33.5 9.4l0.3 0.2c0.2 0.5 0.4 1 0.7 1.4l0.2 0.9c-0.3 0-0.5 0.1-0.7 0.3-0.1-0.3 0-0.5 0.2-0.7-0.3 0-0.6-0.1-0.8-0.5 0.1-0.3 0.2-0.5 0.6-0.5-0.2-0.1-0.4-0.1-0.6 0-0.5-0.1-0.6-0.3-0.3-0.7-0.1 0-0.2 0-0.3 0 0.2-0.2 0.4-0.4 0.7-0.4z" opacity=".812"></path><path fill="#dbbe5a" d="m33.8 9.6c0.4 0.4 0.6 0.9 0.7 1.4-0.3-0.4-0.5-0.9-0.7-1.4z" opacity=".161"></path><path fill="#fcc004" d="m21.6 9.1c0.7 0.2 1.3 0.5 1.8 1-0.1 0.2-0.1 0.4 0 0.6-1.1 0.6-2.1 1.4-3.1 2.4-0.5 0.4-1.1 0.7-1.7 0.9l0.6 0.3c0 0.1-0.1 0.1-0.1 0.2 0.2 0.2 0.5 0.5 0.7 0.8-0.1 0.1-0.2 0.1-0.3 0.1-0.2-0.2-0.4-0.3-0.7-0.3l-0.3-0.1v-0.2c0.1 0 0.1 0 0.1-0.1-0.3-0.1-0.6-0.3-0.8-0.6l0.1-0.2c-0.1 0-0.2-0.1-0.3-0.2 0.3-0.2 0.5-0.4 0.7-0.7l0.1 0.1c0.1-0.2 0.3-0.3 0.5-0.2 0-0.2 0-0.3 0.2-0.5 1.3-0.7 2.5-1.6 3.6-2.6-0.2-0.1-0.4-0.2-0.6 0-0.1-0.3-0.3-0.5-0.5-0.7z"></path><path fill="#f3ea2b" d="m3 10.1c0.1 0.2 0.2 0.4 0.2 0.7-0.4 0.3-0.6 0.6-0.9 0.9-0.1-0.3-0.4-0.4-0.8-0.4 0.1-0.2 0.2-0.2 0.3-0.3 0.3 0.2 0.5 0.2 0.8 0.1-0.2-0.1-0.4-0.2-0.7-0.2 0-0.2 0-0.3 0.1-0.4 0.3 0.2 0.5 0.2 0.7 0.1-0.1-0.1-0.3-0.2-0.5-0.3-0.2-0.1-0.2-0.2 0-0.4 0.2 0.1 0.5 0.3 0.8 0.4 0 0 0-0.1 0-0.2z"></path><path fill="#f5b80f" d="m25.7 9.8c0.3 0 0.6 0 0.9 0.1 0.1 0.7-0.2 1-0.9 0.9v-1z"></path><path fill="#fa6c02" d="m32.7 9.8h0.1c0.1 0 0.2 0 0.3 0-0.3 0.4-0.2 0.6 0.3 0.7l-0.1 0.3c-0.5 0.5-1.1 1-1.7 1.3l0.1 0.1c-0.3 0.2-0.5 0.3-0.8 0.3-0.1 0.1-0.1 0.3-0.2 0.4-0.1-0.1-0.1-0.1-0.2-0.2-0.1 0.5-0.3 0.7-0.8 0.4-0.1-0.3-0.1-0.7 0-1.1 1.1-0.6 2.1-1.4 3-2.2z"></path><path fill="#64490b" d="m8.6 10.9c0.4 0 0.7 0.1 0.9 0.3-0.2 0-0.5 0.1-0.7 0.1-0.1 0.2-0.2 0.4-0.3 0.6-0.1-0.2-0.2-0.4-0.1-0.6l0.2-0.4z"></path><path fill="#fcaf05" d="m23.4 10.1l0.4 0.2c0.3 0.2 0.5 0.5 0.7 0.7 0 0.4-0.1 0.4-0.2 0l-0.3 0.3c0.1 0.2 0 0.4 0 0.5-0.6 0.3-1 0.6-1.2 1.1l-0.2-0.2c-0.5 0.5-1 0.9-1.6 1.3 0.2 0.2 0.5 0.3 0.9 0.3 0.1 0.2 0.3 0.4 0.4 0.5-0.6 0-1.2 0-1.7 0.3-0.1 0-0.3 0.1-0.3 0.2-0.1 0.3-0.1 0.7-0.1 1.1-0.3-0.3-0.5-0.6-0.7-1 0.1 0 0.2 0 0.3-0.1-0.2-0.3-0.5-0.6-0.7-0.8 0-0.1 0.1-0.1 0.1-0.2l-0.6-0.3c0.6-0.2 1.2-0.5 1.7-0.9 1-1 2-1.8 3.1-2.4-0.1-0.2-0.1-0.4 0-0.6z"></path><path fill="#6b2406" d="m27.2 11c0.3 0 0.5 0.1 0.6 0.3-0.2 0-0.5 0.1-0.7 0.1-0.1 0.2-0.2 0.5-0.2 0.8-0.3-0.3-0.3-0.7-0.1-1 0.1-0.1 0.3-0.2 0.4-0.2z"></path><path fill="#946c0d" d="m17.1 8.1c0.8-0.1 1.6 0 2.4 0.1-0.2 0-0.4 0-0.6 0.2-0.8-0.1-1.5 0-2.2 0.1-1 0-1.8 0.3-2.6 0.7-1.8 0.8-3.2 2-4.2 3.8-0.4 0.5-0.7 1-0.8 1.7-0.4 0.7-0.5 1.5-0.5 2.4 0 0.2-0.1 0.4-0.1 0.6 0.1 0.8 0.2 1.6 0.3 2.3h-0.2c-0.1-0.3-0.2-0.6-0.4-0.9-0.1-1.5 0.1-3 0.6-4.4 0.2-0.6 0.4-1.2 0.7-1.8 1.5-2.2 3.4-3.7 5.9-4.5l1.7-0.3z"></path><path fill="#fc9e03" d="m24.5 11c0.2 0.1 0.4 0.3 0.5 0.5 0.2 0.4 0.1 0.9-0.1 1.4l-0.1-0.2c-0.6 0.6-1.1 1-1.8 1.3 0.6 0.1 1.1 0.3 1.5 0.6 0.2 0.1 0.2 0.2 0 0.2h-1.4c-0.1 0.1-0.2 0.2-0.4 0.2-0.1 0-0.3-0.1-0.4-0.2-0.1-0.1-0.3-0.3-0.4-0.5-0.4 0-0.7-0.1-0.9-0.3 0.6-0.4 1.1-0.8 1.6-1.3l0.2 0.2c0.2-0.5 0.6-0.8 1.2-1.1 0-0.1 0.1-0.3 0-0.5l0.3-0.3c0.1 0.4 0.2 0.4 0.2 0z"></path><path fill="#c15107" d="m28.3 10.6c0.1 0.3 0.3 0.5 0.5 0.7 0.1 0.3 0.3 0.7 0.4 1h-0.2c-0.2-0.2-0.4-0.5-0.5-0.8-0.3-0.5-0.5-0.9-0.9-1.3l0.1-0.1c0.2 0.2 0.4 0.4 0.6 0.5z"></path><path fill="#ec5d02" d="m33.3 10.8c0 0.4 0.1 0.9 0.2 1.4-0.2 0-0.5 0.1-0.7 0.1 0.2 0.1 0.3 0.2 0.5 0.2-0.8 0.3-1.4 0.7-1.9 1.3-0.2 0.1-0.5 0.2-0.8 0.2 0 0.2 0 0.4-0.1 0.6 0-0.3-0.2-0.5-0.5-0.6-0.2-0.2-0.3-0.5-0.3-0.9 0.5 0.3 0.7 0.1 0.8-0.4 0.1 0.1 0.1 0.1 0.2 0.2 0.1-0.1 0.1-0.3 0.2-0.4 0.3 0 0.5-0.1 0.8-0.3l-0.1-0.1c0.6-0.3 1.2-0.8 1.7-1.3z"></path><path fill="#f89108" d="m25 11.5c0.8 0.5 0.9 1.1 0.4 1.9-0.4 0.1-0.7 0.3-1 0.5 0.2 0.2 0.3 0.5 0.4 0.7-0.2 0.4-0.2 0.7 0 1.1-0.2 0.3-0.4 0.5-0.8 0.7-0.2 0.3-0.3 0.6-0.4 0.9 0.2 0.3 0.4 0.7 0.4 1.2l-0.9-1.4c0.4-0.7 0.9-1.4 1.4-2v-0.3c0.2 0 0.2-0.1 0-0.2-0.4-0.3-0.9-0.5-1.5-0.6 0.7-0.3 1.2-0.7 1.8-1.3l0.1 0.2c0.2-0.5 0.3-1 0.1-1.4z"></path><path fill="#d19d43" d="m34.5 11c0.3 0.6 0.5 1.1 0.6 1.7-0.3-0.2-0.4-0.5-0.4-0.8l-0.2-0.9z" opacity=".553"></path><path fill="#d85503" d="m34 12.2c-0.1-0.1-0.2 0-0.3 0 0.1 0.2 0.2 0.4 0.1 0.7-1 0.7-1.9 1.4-2.9 2.2-0.2 0-0.5 0-0.7-0.1-0.1-0.4-0.1-0.7-0.2-1 0.3 0.1 0.5 0.3 0.5 0.6 0.1-0.2 0.1-0.4 0.1-0.6 0.3 0 0.6-0.1 0.8-0.2 0.5-0.6 1.1-1 1.9-1.3-0.2 0-0.3-0.1-0.5-0.2 0.2 0 0.5-0.1 0.7-0.1-0.1-0.5-0.2-1-0.2-1.4l0.1-0.3c0.2-0.1 0.4-0.1 0.6 0-0.4 0-0.5 0.2-0.6 0.5 0.2 0.4 0.5 0.5 0.8 0.5-0.2 0.2-0.3 0.4-0.2 0.7z"></path><path fill="#5c410d" d="m7.7 12.9c1.1 0.1 1.1 0.2 0 0.3-0.2 0.7-0.3 0.7-0.3-0.1 0-0.1 0.1-0.2 0.3-0.2z"></path><path fill="#f57707" d="m24 10.2l1.7 1.5c0.1 0.4 0.3 0.7 0.5 1 0.2 0 0.4 0 0.6-0.1l0.1 0.3c0.3-0.3 0.6-0.4 1-0.3v-0.4c0.1-0.2 0.2-0.5 0.2-0.7h0.4c0.1 0.3 0.3 0.6 0.5 0.8v0.3c-0.2-0.1-0.5-0.1-0.8 0.1 0.1 0.1 0.3 0.2 0.4 0.3-0.3 0-0.6 0.1-1 0.1 0 1 0.2 1.1 0.5 0.3 0.2-0.1 0.4-0.1 0.6 0 0.1-0.1 0.1-0.1 0.1-0.3 0.2 0.3 0.2 0.6 0.1 0.9 0-0.1-0.1-0.2-0.2-0.3-0.3 0.1-0.4 0.3-0.5 0.6-0.2-0.2-0.4-0.2-0.6 0 0.1 0.1 0.2 0.1 0.3 0.2-0.1 0.3-0.3 0.5-0.5 0.7 0.1 0.5 0.2 1.1 0.4 1.6v1.3c0 0.4 0 0.8-0.2 1.2 0.1-0.9 0.1-1.4-0.1-1.5-0.1-0.2-0.2-0.4-0.1-0.7 0-0.6 0-1.1-0.2-1.7-0.2 0.4-0.3 0.4-0.5 0-0.7 0.5-1.5 1.1-2.2 1.8l0.2 0.1c-0.2 0.2-0.4 0.4-0.6 0.6 0.4 0.7 0.8 1.4 1 2.1-0.2 0.1-0.3 0.3-0.4 0.5-0.1 0-0.2 0-0.2 0.1-0.5-0.1-0.9-0.2-1.2-0.4 0-0.2 0.1-0.3 0.3-0.3h0.5c0.2 0.2 0.5 0.2 0.7 0.1-0.4-0.4-0.7-0.9-0.8-1.5 0-0.5-0.2-0.9-0.4-1.2 0.1-0.3 0.2-0.6 0.4-0.9 0.4-0.2 0.6-0.4 0.8-0.7-0.2-0.4-0.2-0.7 0-1.1-0.1-0.2-0.2-0.5-0.4-0.7 0.3-0.2 0.6-0.4 1-0.5 0.5-0.8 0.4-1.4-0.4-1.9-0.1-0.2-0.3-0.4-0.5-0.5-0.2-0.2-0.4-0.5-0.7-0.7 0.1 0 0.2 0 0.2-0.1z"></path><path fill="#f9ca16" d="m27.9 12.2c-0.8 0.1-0.9 0-0.1-0.5 0.1 0.2 0.1 0.3 0.1 0.5z"></path><path fill="#661f07" d="m28.6 13c0 0.1 0.1 0.1 0.2 0.1 0 0.2 0 0.2-0.1 0.3-0.2-0.1-0.4-0.1-0.6 0-0.3 0.8-0.5 0.7-0.5-0.3 0.4 0 0.7-0.1 1-0.1z"></path><path fill="#e7db25" d="m1.8 13c0.1 0.3 0.1 0.5 0 0.9-0.5 0-0.5 0.1-0.2 0.3-0.3 0-0.6 0.1-0.8 0.2-0.1 0-0.2 0-0.3-0.1 0.1-0.2 0.2-0.5 0.3-0.7 0.2 0.1 0.5 0.1 0.8 0l-0.8-0.3c0.3-0.2 0.5-0.2 0.8 0 0.1-0.1 0.2-0.2 0.2-0.3z"></path><path fill="#b7530f" d="m34.7 11.9c0 0.3 0.1 0.6 0.4 0.8 0.1 0.2 0.2 0.5 0.3 0.7-0.4 0.1-0.7 0.2-1 0.3 0.1 0.2 0.1 0.4 0.1 0.6-0.1 0-0.2 0-0.3-0.2 0.1-0.3 0-0.6-0.2-0.8 0.3-0.2 0.3-0.4-0.2-0.4 0.1-0.3 0-0.5-0.1-0.7 0.1 0 0.2-0.1 0.3 0 0.2-0.2 0.4-0.3 0.7-0.3z"></path><path fill="#d2c418" d="m7.7 12.9c0.4-0.3 0.9-0.2 1.2 0.2-0.2 0.1-0.5 0.2-0.8 0.2-0.2 0.1-0.4 0.3-0.4 0.6-0.2 0.1-0.3 0.1-0.5 0.1 0-0.3 0-0.6 0.2-0.9 0 0.8 0.1 0.8 0.3 0.1 1.1-0.1 1.1-0.2 0-0.3z"></path><path fill="#f7bb1f" d="m28.9 14c-0.2 0.2-0.4 0.3-0.7 0.3 0.1-0.3 0.2-0.5 0.5-0.6 0.1 0.1 0.2 0.2 0.2 0.3z"></path><path fill="#c04702" d="m33.8 12.9c0.5 0 0.5 0.2 0.2 0.4 0.2 0.2 0.3 0.5 0.2 0.8-1 0.7-2 1.4-2.9 2.2-0.2 0.1-0.5 0.2-0.7 0.2-0.2-0.5-0.3-1-0.4-1.5 0.2 0.1 0.5 0.1 0.7 0.1 1-0.8 1.9-1.5 2.9-2.2z"></path><path fill="#ef6806" d="m29 12.6c0.4 0.6 0.6 1.3 0.7 2.1 0.1 0.2 0 0.3-0.1 0.4-0.2-0.1-0.3-0.2-0.5-0.4-0.3 0.1-0.6 0.2-0.9 0.1-0.1 1-0.2 1.7-0.4 2-0.2-0.5-0.3-1.1-0.4-1.6 0.2-0.2 0.4-0.4 0.5-0.7-0.1-0.1-0.2-0.1-0.3-0.2 0.2-0.2 0.4-0.2 0.6 0 0.3 0 0.5-0.1 0.7-0.3 0.1-0.3 0.1-0.6-0.1-0.9-0.1 0-0.2 0-0.2-0.1-0.1-0.1-0.3-0.2-0.4-0.3 0.3-0.2 0.6-0.2 0.8-0.1z"></path><path fill="#faf310" d="m13.9 3.3c-0.6 0-0.9 0.3-0.8 0.9 0.4 1.1 0.9 1.2 1.7 0.4 0-0.4 0-0.8-0.1-1.2-0.2 0.1-0.4 0-0.6-0.1 0.3 0 0.6 0 0.9 0.2 0 0.7-0.1 1.4-0.2 2.1 0.3 0.3 0.6 0.4 0.9 0.4 0-0.4 0-0.7 0-1 0.2 0.2 0.3 0.5 0.3 0.8 0.1 0.1 0.3 0 0.5-0.1 0 0.2 0 0.4 0 0.6-0.2 0-0.3-0.1-0.5-0.2-0.2 0.1-0.3 0.2-0.3 0.4-0.1 0-0.2 0.1-0.2 0.2-0.1 0.3-0.1 0.6-0.1 1h0.4c0-0.3 0-0.5 0.2-0.7 0.3 0 0.7-0.1 1-0.2l0.2 0.2c-0.1 0.1-0.1 0.3 0.2 0.5 0 0.2-0.1 0.2-0.2 0-0.1 0.2-0.2 0.3-0.3 0.4-0.4 0-0.8 0.1-1.1 0.2-0.2 0-0.4 0.1-0.4 0.3-2.5 0.8-4.4 2.3-5.9 4.5l-0.6 0.2c-0.3-0.4-0.8-0.5-1.2-0.2-0.2 0-0.3 0.1-0.3 0.2-0.2 0.3-0.2 0.6-0.2 0.9 0.2 0 0.3 0 0.5-0.1 0-0.3 0.2-0.5 0.4-0.6 0.1 0.2 0.2 0.3 0.4 0.4-0.1 0.3-0.4 0.5-0.7 0.6 0.1 0.1 0.3 0.1 0.4 0.1 0.1 0.9-0.1 0.9-0.5 0.2-0.6-0.1-1 0.1-1.2 0.7 0.2 0.1 0.2 0.3 0 0.4-0.1-0.4-0.3-0.3-0.4 0.1 0.1 0.4 0 0.7-0.4 1-0.1-0.3-0.3-0.6-0.4-1-0.1 0.1-0.3 0.1-0.6 0v0.4h-0.6c0.1 0.2 0 0.4-0.1 0.5-0.5 0.4-1.1 0.7-1.7 0.9-0.1 0.3-0.1 0.5-0.2 0.8-0.2-0.2-0.4-0.2-0.5 0.1-0.1-0.1-0.2-0.2-0.3-0.3 0.1-0.2 0-0.5-0.1-0.7-0.3-0.3-0.6-0.3-1-0.3v-0.4c1.2 0.2 1.2 0.1 0.2-0.3 0.3-0.1 0.6-0.2 0.9-0.2-1.3-0.2-1.3-0.4 0-0.5-0.3-0.2-0.6-0.3-0.9-0.4 0.3-0.1 0.6-0.2 0.9-0.3 0.3 0.3 0.5 0.7 0.6 1.1-0.1 0.2-0.2 0.3-0.3 0.5 0.1 0.1 0.1 0.1 0.2 0l0.3 0.5c0.6-0.4 1.2-0.8 1.8-1.3 0.1-0.1 0.3 0 0.3 0.2 0.2-0.2 0.2-0.4 0.1-0.6 0.5-0.2 0.9-0.6 1.2-1.1 0.2 0.4 0.2 0.7 0.3 1.1 0.2-0.4 0.4-0.9 0.7-1.3 0-0.7 0.3-1.3 0.7-1.8 0-0.1-0.1-0.1-0.1-0.2 0.3 0.1 0.7 0.1 1 0l-0.3-0.1c0.2-0.1 0.2-0.2 0-0.4 0.1-0.2 0.3-0.4 0.6-0.4-0.1 0.2 0 0.4 0.1 0.6 0.1-0.2 0.2-0.4 0.3-0.6 0.2 0 0.5-0.1 0.7-0.1-0.2-0.2-0.5-0.3-0.9-0.3 0.3-0.1 0.5-0.2 0.8-0.2l-0.3-0.2c0.1-0.2 0.2-0.2 0.3 0 0.1-0.3 0.2-0.5 0.4-0.7-0.1 0.2 0 0.3 0.1 0.4 0 0.1 0.1 0.1 0.2 0.1 0 0.2 0.1 0.2 0.2 0.2 0.2 0.3 0.4 0.4 0.7 0.1 0.3-0.3 0.6-0.5 0.9-0.7 0-0.2 0-0.5 0-0.7v-0.8c0.3 0 0.6 0 0.8-0.2 0-0.1 0-0.1-0.1-0.1-0.3-0.2-0.6-0.2-0.9 0 0.1-0.2 0.2-0.3 0.4-0.3 0.3 0.1 0.7 0.1 1 0.1 0.1-0.4 0-0.8-0.1-1.1-0.1-0.1-0.3-0.1-0.4 0-0.4 0.4-0.9 0.5-1.4 0.4 0.7-0.3 1.4-0.6 2-0.9l0.4 0c-0.2 0.3-0.2 0.5 0.1 0.7 0-0.2 0-0.3 0.2-0.5l0.7 0.3c0.1-0.1 0.1-0.2 0.2-0.4 0.1 0.1 0.2 0.2 0.3 0.1-0.2-0.2-0.4-0.4-0.6-0.5-0.2 0.2-0.5 0.3-0.8 0.3 0-0.5 0.3-0.7 0.9-0.6v-0.4c-1.6 0.1-2.1-0.6-1.6-2 0.3-0.1 0.6-0.1 0.9 0z"></path><path fill="#6d530a" d="m13.7 7.1c0.3 0 0.6 0 0.9 0.2-0.7-0.2-1 0-1 0.8 0-0.1-0.1-0.1-0.2-0.2 0-0.3 0.1-0.6 0.3-0.8z"></path><path fill="#d9cb20" d="m13.7 7.1v-0.1c0.4-0.1 0.8 0 1.1 0.2-0.2 0.3-0.5 0.4-0.8 0.4-0.1 0.2-0.2 0.4-0.1 0.6-0.3 0.1-0.4 0-0.5-0.3 0.1 0.1 0.2 0.1 0.2 0.2 0-0.8 0.3-1 1-0.8-0.3-0.2-0.6-0.2-0.9-0.2z"></path><path fill="#81660e" d="m13.9 3.3h0.2c0.2 0.1 0.4 0.2 0.6 0.1 0.1 0.4 0.1 0.8 0.1 1.2-0.8 0.8-1.3 0.7-1.7-0.4-0.1-0.6 0.2-0.9 0.8-0.9z"></path><path fill="#d2c64b" d="m13.6 4.4c0.2 0.2 0.4 0.3 0.7 0.3-0.2 0.1-0.5 0.2-0.7 0.2v-0.5z" opacity=".988"></path><path fill="#f4ed25" d="m14.3 4.7c-0.3 0-0.5-0.1-0.7-0.3-0.2-0.8 0.1-1 0.9-0.5 0.1 0.3 0 0.6-0.2 0.8z"></path><path fill="#bc9020" d="m12.7 14.8c0.5 0 1 0 1.4 0.2-0.7-0.1-1.3 0-1.9 0.1h-0.2c0.2-0.2 0.4-0.3 0.7-0.3z"></path><path fill="#9f7413" d="m17.2 15c0.4-0.2 0.8-0.2 1.3-0.2v0.2c-0.2-0.1-0.4 0-0.4 0.3-0.2-0.1-0.3-0.1-0.5-0.2-0.1-0.1-0.2-0.2-0.4-0.1z"></path><path fill="#b1700f" d="m23.1 14.8h1.4v0.3h-0.1c-0.1-0.1-0.3-0.1-0.5-0.1-0.2 0-0.4 0.1-0.5 0.3-0.1-0.2-0.2-0.3-0.3-0.5z"></path><path fill="#3e1603" d="m24.4 15.1h-0.4l-0.6 0.2c0.1-0.2 0.3-0.3 0.5-0.3 0.2 0 0.4 0 0.5 0.1z"></path><path fill="#692a0b" d="m20.7 15.1c0.4-0.1 0.9-0.2 1.3-0.1-0.3 0.1-0.4 0.3-0.4 0.5 0.2 0.6 0.5 1.2 0.8 1.7 0.1 0.2 0.1 0.4 0 0.6-0.1-0.1-0.2-0.2-0.3-0.3-0.2-0.8-0.6-1.5-1.1-2.1 0-0.1-0.1-0.2-0.3-0.3z"></path><path fill="#c88a1e" d="m22.3 14.8c0.1 0.1 0.3 0.2 0.4 0.2-0.3 0.5-0.2 1 0.3 1.4-0.1 0.2-0.2 0.3-0.4 0.2-0.2-0.3-0.4-0.6-0.5-0.9-0.2-0.1-0.3-0.2-0.5-0.2 0-0.2 0.1-0.4 0.4-0.5-0.4-0.1-0.9 0-1.3 0.1h-0.1c0.5-0.3 1.1-0.3 1.7-0.3z"></path><path fill="#5f3f0b" d="m7.8 15.1c-0.2 0.1-0.3 0.2-0.6 0.2-0.1 0.2-0.1 0.3-0.1 0.5 0 0.1 0 0.2-0.1 0.3-0.3-0.9-0.1-1.2 0.8-1z"></path><path fill="#643613" d="m14.1 15c0.3 0 0.6 0.1 0.9 0.3l0.3 0.4c0 0-0.1 0.1-0.1 0.1-0.4-0.4-1-0.7-1.6-0.7h-0.7c-0.3 1.6-0.4 3.2-0.3 4.8-0.2 0.3-0.3 0.3-0.6 0.1l0.2-0.2c0.1-0.6 0.1-1.1 0.1-1.7-0.1-0.3-0.1-0.5 0-0.7 0-0.8 0-1.5-0.1-2.3 0.6-0.1 1.2-0.2 1.9-0.1z"></path><path fill="#e1b320" d="m12.9 15.1h0.7c0.3 0.2 0.6 0.4 1 0.6 0.1 0.4 0.1 0.7 0 1.1 0-0.2-0.1-0.5-0.2-0.7-0.2 0.2-0.3 0.1-0.4-0.1-0.2-0.1-0.4-0.2-0.6-0.2v1.6c-0.2-0.7-0.4-1.4-0.5-2.1v-0.2z"></path><path fill="#935016" d="m13.6 15.1c0.6 0 1.2 0.3 1.6 0.7 0 0 0.1-0.1 0.1-0.1 0.1 0 0.1 0 0.1 0.1 0 0.4-0.2 0.8-0.4 1.1 0 0.1-0.1 0.2-0.2 0.2 0.1-0.5 0-1 0-1.4-0.1-0.2-0.2-0.2-0.2 0-0.4-0.2-0.7-0.4-1-0.6z"></path><path fill="#9f3b03" d="m34.2 14.1c0.1 0.2 0.2 0.2 0.3 0.2 0 0.1 0 0.3 0.2 0.4 0.2-0.2 0.3-0.2 0.5 0-0.1 0.1-0.3 0.2-0.5 0.2-0.1 0.3-0.3 0.5-0.6 0.6 0.1 0.1 0.2 0.3 0.1 0.5-1.2 0.8-2.4 1.6-3.5 2.5-0.1-0.7-0.1-1.3-0.1-2 0.2 0 0.5-0.1 0.7-0.2 0.9-0.8 1.9-1.5 2.9-2.2z"></path><path fill="#913e0c" d="m35.4 13.4c0.1 0.8 0.2 1.5 0.4 2.3-0.1 0.1-0.2 0.3-0.2 0.5h-0.7c-0.1 0.1-0.2 0-0.3-0.1-1 0.8-2 1.5-3 2.3-0.3 0.1-0.5 0.3-0.8 0.4-0.1-0.1-0.1-0.2-0.1-0.3 1.1-0.9 2.3-1.7 3.5-2.5 0.1-0.2 0-0.4-0.1-0.5 0.3-0.1 0.5-0.3 0.6-0.6 0.2 0 0.4-0.1 0.5-0.2-0.2-0.2-0.3-0.2-0.5 0-0.2-0.1-0.2-0.3-0.2-0.4 0-0.2 0-0.4-0.1-0.6 0.3-0.1 0.6-0.2 1-0.3z"></path><path fill="#f4aa15" d="m23.1 14.8c0.1 0.2 0.2 0.3 0.3 0.5 0.1 0.4 0 0.8-0.4 1.1-0.5-0.4-0.6-0.9-0.3-1.4 0.2 0 0.3-0.1 0.4-0.2z"></path><path fill="#fced06" d="m9.5 12.9c-0.3 0.6-0.5 1.2-0.7 1.8-0.2 0.1-0.5 0.3-0.6 0.6-0.2-0.1-0.3-0.1-0.4-0.2-0.9-0.2-1.1 0.1-0.8 1 0.1-0.1 0.1-0.2 0.1-0.3 0.6-0.4 0.9-0.3 1.1 0.4-0.2 0.7-0.7 0.9-1.3 0.6-0.1 0.1-0.1 0.3-0.1 0.4-0.2-0.1-0.3-0.1-0.5 0-0.1 0.5-0.2 1.1-0.3 1.6-0.2 0-0.3 0.1-0.4 0.3-0.1-0.3-0.2-0.7-0.3-1-0.4 0.5-1 0.9-1.7 1 0.2 0.2 0.2 0.3 0 0.4-0.3 0.2-0.7 0.3-1 0.3-0.2 0.4-0.3 0.8-0.5 1.2-0.1-0.5-0.2-0.5-0.3 0l-0.3-0.8c-0.2 0.1-0.4 0.1-0.6 0 0.1-0.1 0.3-0.2 0.4-0.2-0.3-0.1-0.6-0.1-0.9 0 0-0.1-0.1-0.2 0-0.4 0.4 0.1 0.7 0 0.9-0.3 0.1-0.3 0.1-0.7 0-1.1 0.1 0.1 0.2 0.2 0.3 0.3 0.1-0.3 0.3-0.3 0.5-0.1 0.1-0.3 0.1-0.5 0.2-0.8 0.6-0.2 1.2-0.5 1.7-0.9 0.1-0.1 0.2-0.3 0.1-0.5h0.6v-0.4c0.3 0.1 0.5 0.1 0.6 0 0.1 0.4 0.3 0.7 0.4 1 0.4-0.3 0.5-0.6 0.4-1 0.1-0.4 0.3-0.5 0.4-0.1 0.2-0.1 0.2-0.3 0-0.4 0.2-0.6 0.6-0.8 1.2-0.7 0.4 0.7 0.6 0.7 0.5-0.2-0.1 0-0.3 0-0.4-0.1 0.3-0.1 0.6-0.3 0.7-0.6-0.2-0.1-0.3-0.2-0.4-0.4 0.3 0 0.6-0.1 0.8-0.2l0.6-0.2z"></path><path fill="#eaaa1d" d="m21 15.4c0.5 0.6 0.9 1.3 1.1 2.1v0.4h-0.1c-0.2-0.8-0.6-1.6-1.3-2.2 0.1-0.2 0.2-0.3 0.3-0.3z"></path><path fill="#884613" d="m19.2 15.5c0.2 0.3 0.4 0.7 0.5 1 0.1 0.5 0.1 0.8-0.1 1 0-0.5-0.2-1-0.4-1.4-0.3-0.2-0.3-0.4 0-0.6z"></path><path fill="#f7d717" d="m14.6 16.8c-0.1 0.4-0.4 0.5-0.7 0.6h-0.5v-1.6c0.2 0 0.4 0.1 0.6 0.2 0.1 0.2 0.2 0.3 0.4 0.1 0.1 0.2 0.2 0.5 0.2 0.7z"></path><path fill="#f06002" d="m27.4 17.1c-0.2 0-0.3 0-0.4-0.2-0.4 0.4-0.9 0.8-1.3 1.2-0.2 0.1-0.3 0.1-0.5 0-0.3 0.6-0.3 1.3-0.1 1.9-0.2-0.7-0.6-1.4-1-2.1 0.2-0.2 0.4-0.4 0.6-0.6l-0.2-0.1c0.7-0.7 1.5-1.3 2.2-1.8 0.2 0.4 0.3 0.4 0.5 0 0.2 0.6 0.2 1.1 0.2 1.7z"></path><path fill="#60300a" d="m14.8 17.1c-0.1 0.3-0.3 0.4-0.7 0.4-0.1 0-0.2 0-0.2-0.1 0.3-0.1 0.6-0.2 0.7-0.6 0.1-0.4 0.1-0.7 0-1.1 0-0.2 0.1-0.2 0.2 0 0 0.4 0.1 0.9 0 1.4z"></path><path fill="#eab619" d="m17.6 15.1c0.2 0.1 0.3 0.1 0.5 0.2 0.3 0.1 0.6 0.3 0.7 0.7 0.3 0.8 0.3 1.6 0.1 2.5-0.1-0.5-0.2-1.1-0.2-1.7-0.7-0.8-1.2-0.7-1.4 0.4-0.1 0.4-0.1 0.8-0.1 1.2-0.1-0.5-0.2-1-0.2-1.5 0 0.6-0.1 1.2-0.2 1.7v-0.1c0-0.9 0-1.7-0.1-2.5 0.1-0.5 0.4-0.8 0.9-0.9z"></path><path fill="#813106" d="m29 12.3h0.2c0.1 0.3 0.3 0.6 0.5 0.8 0 0.4 0.1 0.7 0.3 0.9 0.1 0.3 0.1 0.6 0.2 1 0.1 0.5 0.2 1 0.4 1.5 0 0.7 0 1.3 0.1 2 0 0.1 0 0.2 0.1 0.3 0.3-0.1 0.5-0.3 0.8-0.4 1-0.8 2-1.5 3-2.3 0.1 0.1 0.2 0.2 0.3 0.1 0.2 0.2 0.4 0.3 0.6 0.5-0.8 0-1.5 0.4-2 1.1-0.3 0.2-0.7 0.5-1.1 0.9-0.6 0.2-1.1 0.6-1.6 1.1-0.1-0.2-0.2-0.3-0.4-0.3v-0.2c0.1-0.8 0-1.7 0-2.5 0 0.6-0.1 1.2-0.2 1.7v-1c-0.1-0.8-0.2-1.6-0.2-2.4-0.1-0.2-0.1-0.3-0.3-0.4-0.1-0.8-0.3-1.5-0.7-2.1v-0.3z"></path><path fill="#eab823" d="m24 15.1h0.5c-0.5 0.6-1 1.3-1.4 2 0.1 0.2 0 0.3-0.1 0.4-0.1-0.2-0.2-0.4-0.1-0.7 0.5-0.5 0.8-1.1 1.1-1.7z"></path><path fill="#c85206" d="m29.7 14.7c0.2 0.1 0.2 0.2 0.3 0.4 0 0.8 0.1 1.6 0.2 2.4-0.2-0.2-0.5-0.3-0.7-0.4-0.4 0-0.7 0-1 0.1-0.3 0.3-0.5 0.5-0.7 0.9v-1.3c0.2-0.3 0.3-1 0.4-2 0.3 0.1 0.6 0 0.9-0.1 0.2 0.2 0.3 0.3 0.5 0.4 0.1-0.1 0.2-0.2 0.1-0.4z"></path><path fill="#f0ba23" d="m29 15.8c0.3 0 0.4 0.1 0.4 0.3-0.4 0.2-0.5 0.1-0.4-0.3z"></path><path fill="#531a09" d="m28.5 15.1c0.3 0 0.6 0 0.8 0.2-0.2 0.1-0.4 0.1-0.7 0.1 0.1 0.3 0 0.6-0.1 0.8-0.2-0.3-0.2-0.7 0-1.1z"></path><path fill="#d19715" d="m15.4 15.8c0.3 0 0.5 0.2 0.4 0.6 0 0.3-0.1 0.6-0.2 0.8-0.1-0.1-0.1-0.2-0.1-0.4-0.2 0-0.4 0-0.5 0.1 0.2-0.3 0.4-0.7 0.4-1.1z"></path><path fill="#491806" d="m18.5 15l0.3 0.1c0.1 0.2 0.2 0.3 0.4 0.4-0.3 0.2-0.3 0.4 0 0.6v2.3c0 0.2-0.1 0.5-0.1 0.8-0.2-0.1-0.2-0.2-0.2-0.4v-0.3c0.2-0.9 0.2-1.7-0.1-2.5-0.1-0.4-0.4-0.6-0.7-0.7 0-0.3 0.2-0.4 0.4-0.3z"></path><path fill="#b15817" d="m19.2 16.1c0.2 0.4 0.4 0.9 0.4 1.4-0.2 0.3-0.3 0.6-0.4 0.9v-2.3z" opacity=".996"></path><path fill="#fcd10e" d="m9.1 14.7c-0.2 0.4-0.2 0.8 0 1.3l-0.3 1.1c0.2 0.3 0.3 0.6 0.3 1 0.6-0.8 1.3-1.3 2.2-1.6 0-0.1 0-0.3-0.1-0.5 0-0.1 0.1-0.2 0.2-0.3 0.5 0.6 0.4 1.1-0.2 1.5 0.3 0 0.6 0 0.8 0 0.2-0.7 0.2-1.4 0-2.1h0.2c0.1 0.8 0.1 1.5 0.1 2.3-0.7 0.1-0.8 0.4-0.3 0.8 0-0.1 0.2-0.1 0.3-0.1 0 0.6 0 1.1-0.1 1.7-0.3-0.4-0.5-0.7-0.7-1.2h-0.5c-0.6 0.6-1.3 1-2 1.4-0.1-0.9-0.3-1.9-0.4-2.9 0-0.9 0.1-1.7 0.5-2.4z"></path><path fill="#d07614" d="m16.7 16c0.1 0.8 0.1 1.6 0.1 2.5-0.1-0.3-0.2-0.6-0.2-1l-0.1 0.6c-0.1-0.6-0.1-1.3 0-1.9 0-0.1 0-0.2 0.2-0.2z"></path><path fill="#f7af0f" d="m18.9 18.5v0.3c-0.2 0.2-0.3 0.5-0.4 0.9-0.3 0.2-0.6 0.2-0.9 0.1v-0.2c0.3-0.2 0.5-0.4 0.8-0.5 0.1-0.8 0.1-1.5 0-2.3-0.2-0.4-0.4-0.4-0.7 0-0.3 0.7-0.4 1.5-0.3 2.3-0.2-0.2-0.2-0.5-0.2-0.7 0-0.4 0-0.8 0.1-1.2 0.2-1.1 0.7-1.2 1.4-0.4 0 0.6 0.1 1.2 0.2 1.7z"></path><path fill="#4e1505" d="m29.5 17.1c0 0.2-0.1 0.3-0.2 0.4-0.6-0.2-0.8 0-0.8 0.7-0.2-0.3-0.2-0.6 0-1 0.3-0.1 0.6-0.1 1-0.1z"></path><path fill="#722d04" d="m34.9 16.2h0.7c0 0.7 0 1.2-0.1 1.7-0.3 0.1-0.6 0.1-0.9 0-1 0.8-2 1.5-3 2.3-0.4 0.2-0.7 0.4-1.2 0.5v-1.2c0.2 0 0.3 0.1 0.4 0.3 0.5-0.5 1-0.9 1.6-1.1 0.4-0.4 0.8-0.7 1.1-0.9 0.5-0.7 1.2-1.1 2-1.1-0.2-0.2-0.4-0.3-0.6-0.5z"></path><path fill="#592909" d="m17.1 15h0.1c0.2-0.1 0.3 0 0.4 0.1-0.5 0.1-0.8 0.4-0.9 0.9-0.2 0-0.2 0.1-0.2 0.2-0.2 0.4-0.3 0.8-0.3 1.3 0.1 0.5 0.1 0.9 0.2 1.4 0 0.1-0.1 0.2-0.2 0.2 0-0.3-0.1-0.5-0.2-0.7-0.2-1.4 0.2-2.5 1.1-3.4z"></path><path fill="#fb9f07" d="m17.6 19.6c-0.2-0.1-0.3-0.3-0.2-0.5-0.1-0.8 0-1.6 0.3-2.3 0.3-0.4 0.5-0.4 0.7 0 0.1 0.8 0.1 1.5 0 2.3-0.3 0.1-0.5 0.3-0.8 0.5z"></path><path fill="#c39424" d="m12.3 17.4c-0.1 0.2-0.1 0.4 0 0.7-0.1 0-0.3 0-0.3 0.1-0.5-0.4-0.4-0.7 0.3-0.8z"></path><path fill="#cf8517" d="m18.8 15.1c0.3 0 0.5 0.1 0.7 0.3 0.2 0.4 0.4 0.7 0.7 1 0 0.8 0 1.6-0.2 2.4l-0.2-0.6c-0.3 0.2-0.4 0.4-0.5 0.7 0 0.2-0.1 0.3-0.2 0.4v-0.1c0-0.3 0.1-0.6 0.1-0.8 0.1-0.3 0.2-0.6 0.4-0.9 0.2-0.2 0.2-0.5 0.1-1-0.1-0.3-0.3-0.7-0.5-1-0.2-0.1-0.3-0.2-0.4-0.4z"></path><path fill="#944714" d="m24 15.1c-0.3 0.6-0.6 1.2-1.1 1.7-0.1 0.3 0 0.5 0.1 0.7 0.4 0.8 0.9 1.5 1.3 2.3-0.1 0.1-0.1 0.1-0.2 0.1h-0.5c-0.2-0.6-0.5-1.3-0.8-1.8-0.1-0.2-0.2-0.2-0.2 0-0.2-0.1-0.3-0.2-0.5-0.2v-0.4c0.1 0.1 0.2 0.2 0.3 0.3 0.1-0.2 0.1-0.4 0-0.6-0.3-0.5-0.6-1.1-0.8-1.7 0.2 0 0.3 0.1 0.5 0.2 0.1 0.3 0.3 0.6 0.5 0.9 0.2 0.1 0.3 0 0.4-0.2 0.4-0.3 0.5-0.7 0.4-1.1l0.6-0.2z"></path><path fill="#f3e323" d="m1.2 17.5c0.1 0.2 0.2 0.5 0.1 0.7 0.1 0.4 0.1 0.8 0 1.1-0.3 0.2-0.6 0.2-0.9 0.1-0.1-0.1-0.2-0.1-0.2-0.2 1.1-0.2 1.1-0.3 0-0.3v-0.4c1.3-0.1 1.3-0.1 0-0.1v-0.5c1.3 0 1.3-0.1 0-0.3 0.3-0.1 0.7-0.1 1-0.1z"></path><path fill="#662604" d="m35.5 17.9c0.1 0.4 0.1 0.7 0 1h-0.6v0.4c-0.2 0-0.4 0-0.7 0-0.3 0.3-0.7 0.7-1.1 1.1-1 0.7-1.9 1.4-2.9 2-0.2-0.6-0.1-1.1 0.2-1.7 0.5-0.1 0.8-0.3 1.2-0.5 1-0.8 2-1.5 3-2.3 0.3 0.1 0.6 0.1 0.9 0z"></path><path fill="#fce209" d="m6 18.8c0.2 0.5 0.1 1-0.1 1.5-0.2-0.2-0.3-0.5-0.3-0.8-0.4-0.4-0.5-0.3-0.6 0.2-0.6 0.3-1 0.6-1.4 1.1-0.7 0.3-1.3 0.6-1.6 1.1-0.1-0.2-0.1-0.3 0-0.4-0.1-0.1-0.2-0.1-0.4-0.1-1.4 0.2-1.4 0.1-0.1-0.3-0.3-0.1-0.6-0.1-0.9 0.1-0.1-0.2-0.1-0.3-0.1-0.5 0.3 0.1 0.6 0 0.8-0.2-0.3 0-0.6 0-0.9 0.1v-0.4h0.5c0.2 0.1 0.4 0.1 0.6 0l0.3 0.8c0.1-0.5 0.2-0.5 0.3 0 0.2-0.4 0.3-0.8 0.5-1.2 0.3 0 0.7-0.1 1-0.3 0.2-0.1 0.2-0.2 0-0.4 0.7-0.1 1.3-0.5 1.7-1 0.1 0.3 0.2 0.7 0.3 1 0.1-0.2 0.2-0.3 0.4-0.3z"></path><path fill="#95430d" d="m12.9 15.1v0.2c-0.2 1.5-0.2 3-0.2 4.6h-0.1c-0.1-1.6 0-3.2 0.3-4.8z"></path><path fill="#b46913" d="m12.9 15.3c0.1 0.7 0.3 1.4 0.5 2.1h0.5c0 0.1 0.1 0.1 0.2 0.1-0.4 0.1-0.8 0.2-1.1 0.3 0 0.7 0.2 1.4 0.4 2 0.2 0.2 0.2 0.2-0.1 0.2-0.2 0-0.4-0.1-0.6-0.1 0-1.6 0-3.1 0.2-4.6z"></path><path fill="#f4c615" d="m17.1 15c-0.9 0.9-1.3 2-1.1 3.4 0 0-0.1 0.1-0.2 0.1-0.3-0.2-0.6-0.4-0.9-0.4-0.1 0.3-0.2 0.4-0.4 0.3-0.2 0.1-0.4 0.3-0.6 0.4 0 0.4-0.1 0.8-0.2 1.1 0-0.1-0.1-0.2-0.3-0.1v-1.7c0.6 0 1.1-0.1 1.6-0.2-0.7 0.1-1.3 0-2-0.1 0.3-0.1 0.7-0.2 1.1-0.3 0.4 0 0.6-0.1 0.7-0.4 0.1 0 0.2-0.1 0.2-0.2 0.1-0.1 0.3-0.1 0.5-0.1 0 0.2 0 0.3 0.1 0.4 0.1-0.2 0.2-0.5 0.2-0.8 0.1-0.4-0.1-0.6-0.4-0.6 0-0.1 0-0.1-0.1-0.1l-0.3-0.4h0.3c0.1 0.1 0.2 0.1 0.4 0l0.8-0.6c0.1 0.2 0.3 0.3 0.6 0.3z"></path><path fill="#a7541b" d="m16.5 16.2c-0.1 0.6-0.1 1.3 0 1.9l0.1-0.6c0 0.4 0.1 0.7 0.2 1v0.6c0 0.1 0 0.2-0.1 0.4-0.1-0.2-0.2-0.4-0.3-0.6-0.1-0.5-0.1-0.9-0.2-1.4 0-0.5 0.1-0.9 0.3-1.3z"></path><path fill="#fbc007" d="m8.6 17.1c0.1 1 0.3 2 0.4 2.9 0.7-0.4 1.4-0.8 2-1.4h0.5c0.2 0.5 0.4 0.8 0.7 1.2l-0.2 0.2c-0.1 0.2-0.1 0.3 0 0.5-0.1 0-0.3-0.1-0.4-0.2-0.1-0.2-0.2-0.4-0.4-0.5-0.5 0.5-1.1 0.9-1.7 1.2-0.2 0-0.3-0.1-0.4-0.3-0.2-0.1-0.3-0.4-0.3-0.7-0.1-0.7-0.2-1.5-0.3-2.3 0-0.2 0.1-0.4 0.1-0.6z"></path><path fill="#fba506" d="m16 18.4c0.1 0.2 0.2 0.4 0.2 0.7l0.6 0.8c-0.6 0.2-1 0-1.2-0.7-0.1 0.6-0.3 0.7-0.7 0.3-0.1 0.3-0.2 0.3-0.4 0.1 0 0.5-0.2 0.9-0.5 1.3-0.7 0.1-1.4 0.5-1.9 1l-0.1-0.2c-0.6 0.4-1.1 0.8-1.6 1.3-0.1 0-0.2-0.1-0.3-0.1-0.3-0.3-0.4-0.5-0.5-0.9 0.5-0.2 1.1-0.3 1.6-0.5l-0.2-0.1c0.3-0.1 0.6-0.3 0.7-0.5 0.2 0.1 0.4 0.2 0.5 0.3 0.5-0.2 0.9-0.4 1.4-0.6 0.3-0.2 0.3-0.4 0.1-0.7 0.1-0.3 0.2-0.7 0.2-1.1 0.2-0.1 0.4-0.3 0.6-0.4 0.2 0.1 0.3 0 0.4-0.3 0.3 0 0.6 0.2 0.9 0.4 0.1 0 0.2-0.1 0.2-0.1z"></path><path fill="#682408" d="m23.6 19.9c-0.2 0-0.3 0.1-0.3 0.3-0.2 0-0.3 0-0.3-0.2 0.2 0 0.3-0.2 0.3-0.4-0.1-0.4-0.3-0.7-0.6-1l-0.1-0.5c0-0.2 0.1-0.2 0.2 0 0.3 0.5 0.6 1.2 0.8 1.8z"></path><path fill="#b46219" d="m23.1 17.1l0.9 1.4c0.1 0.6 0.4 1.1 0.8 1.5-0.2 0.1-0.5 0.1-0.7-0.1 0.1 0 0.1 0 0.2-0.1-0.4-0.8-0.9-1.5-1.3-2.3 0.1-0.1 0.2-0.2 0.1-0.4z"></path><path fill="#9e4206" d="m29.5 17.1c0.2 0.1 0.5 0.2 0.7 0.4v1.3c-0.1 0-0.2 0-0.2 0.1 0 0.6-0.3 1.1-0.7 1.4 0-0.1 0-0.3 0-0.4-0.2 0.2-0.4 0.3-0.7 0.4 0.1 0.1 0.3 0.2 0.4 0.2 0 0-0.1 0.1-0.2 0.1-0.2 0-0.3-0.1-0.3-0.3v-0.4c0.3-0.1 0.6-0.1 1-0.1-0.1-0.4-0.2-0.8-0.2-1.2-0.3 0.4-0.6 0.6-1.1 0.5-0.1 0.4-0.2 0.8-0.2 1.2-0.4 0.6-0.6 1.2-0.7 1.8-0.2 0.1-0.4 0.2-0.5 0.3l0.1 0.3c-0.2 0.2-0.4 0.3-0.7 0.3 0.7-1.1 1.2-2.4 1.4-3.7 0.2-0.4 0.2-0.8 0.2-1.2 0.2-0.4 0.4-0.6 0.7-0.9-0.2 0.4-0.2 0.7 0 1 0-0.7 0.2-0.9 0.8-0.7 0.1-0.1 0.2-0.2 0.2-0.4z"></path><path fill="#f1c02a" d="m29.3 17.8c0.4 0.2 0.3 0.4-0.1 0.6l-0.2-0.2c0.1-0.1 0.2-0.3 0.3-0.4z"></path><path fill="#d4a01b" d="m13 17.8c0.7 0.1 1.3 0.2 2 0.1-0.5 0.1-1 0.2-1.6 0.2v1.7c-0.2-0.6-0.4-1.3-0.4-2z"></path><path fill="#f7960b" d="m20.6 15.1h0.1c0.2 0.1 0.3 0.2 0.3 0.3-0.1 0-0.2 0.1-0.3 0.3 0.7 0.6 1.1 1.4 1.3 2.2-0.3 0.4-0.6 0.8-0.8 1.2-0.2 0.4-0.5 0.7-0.9 0.8-0.1-0.1-0.2-0.3-0.3-0.4-0.2 0.3-0.4 0.5-0.7 0.7 0.2-0.4 0.4-0.7 0.6-1.1l-0.1-0.2c0 0.1-0.1 0.2-0.2 0.3 0-0.1-0.1-0.2-0.3-0.3 0.1-0.3 0.2-0.5 0.5-0.7l0.2 0.6c0.2-0.8 0.2-1.6 0.2-2.4 0-0.4 0-0.8 0.1-1.1 0-0.1 0.2-0.2 0.3-0.2z"></path><path fill="#fb8705" d="m21.2 19.1c-0.3 0-0.5 0.1-0.7 0.1 0.1-0.6 0.1-1.2 0-1.8-0.1-0.3 0-0.6 0.3-0.7 0.4 0.2 0.6 0.6 0.6 1-0.1 0.5-0.2 0.9-0.2 1.4z"></path><path fill="#dfa928" d="m22.1 17.9c0.2 0 0.3 0.1 0.5 0.2l0.1 0.5c-0.2-0.1-0.5-0.1-0.7 0.1-0.1 0.4-0.3 0.7-0.6 0.9-0.1-0.1-0.1-0.2 0-0.4 0.3-0.4 0.6-0.8 0.7-1.3z"></path><path fill="#fadb0b" d="m8.8 14.7c-0.5 1.4-0.7 2.9-0.6 4.4 0 0.1 0 0.2-0.1 0.2-0.3-0.5-0.6-0.6-1.1-0.4-0.2 0.1-0.4 0.2-0.5 0.4-0.1 0.4-0.1 0.8 0 1.2-0.1 0.1-0.3 0.3-0.3 0.5-0.4-0.1-0.6-0.3-0.7-0.7-0.3 0.1-0.6 0.3-0.8 0.4 0.4 0.3 0.3 0.4-0.1 0.5v0.4c-0.2 0-0.4 0-0.6 0.1-0.2 0.1-0.2 0.1 0 0.2-0.4 0.2-0.9 0.3-1.4 0.4v0.4c-0.3 0-0.5 0.1-0.6 0.3-0.2 0.1-0.5 0.2-0.8 0.3-0.1-0.1-0.2-0.3-0.1-0.4 0.2 0 0.5-0.1 0.7-0.2 0.1-0.1 0.1-0.2 0-0.3-0.4 0.3-0.7 0.3-1 0.2 0.3-0.2 0.6-0.4 1-0.5-0.4 0-0.8-0.1-1.2-0.1 0.4-0.1 0.7-0.3 1-0.6 0.2 0 0.3 0 0.4 0.1-0.1 0.1-0.1 0.2 0 0.4 0.3-0.5 0.9-0.8 1.6-1.1 0.4-0.5 0.8-0.8 1.4-1.1 0.1-0.5 0.2-0.6 0.6-0.2 0 0.3 0.1 0.6 0.3 0.8 0.2-0.5 0.3-1 0.1-1.5 0.1-0.5 0.2-1.1 0.3-1.6 0.2-0.1 0.3-0.1 0.5 0 0-0.1 0-0.3 0.1-0.4 0.6 0.3 1.1 0.1 1.3-0.6-0.2-0.7-0.5-0.8-1.1-0.4 0-0.2 0-0.3 0.1-0.5 0.3 0 0.4-0.1 0.6-0.2 0.1 0.1 0.2 0.1 0.4 0.2 0.1-0.3 0.4-0.5 0.6-0.6z"></path><path fill="#673d0b" d="m6.8 17.2c0.4-0.2 0.7-0.1 1 0.2-0.3 0-0.5 0-0.8 0-0.1 0.2-0.2 0.5-0.3 0.7-0.2-0.4-0.2-0.6 0.1-0.9z"></path><path fill="#613509" d="m7 18.9c0.2 0 0.5 0 0.7 0.2-0.3 0.1-0.5 0.1-0.7 0.2-0.2 0.8-0.3 0.8-0.5 0 0.1-0.2 0.3-0.3 0.5-0.4z"></path><path fill="#5a2405" d="m35.5 18.9c-0.1 0.6-0.1 1.1-0.1 1.7h-0.5c0.1 0.3-0.1 0.5-0.4 0.6-0.1-0.2-0.1-0.4 0-0.6-0.1-0.2-0.2-0.4-0.3-0.6-0.2 0.3-0.5 0.5-0.8 0.5 0 0.1 0 0.3-0.1 0.5-0.3 0-0.6 0.1-0.9 0.3-0.6 0.6-1.2 1.1-1.7 1.7-0.2-0.1-0.3-0.3-0.3-0.4-0.3 0.4-0.6 0.9-1 1.2l-0.2-0.2c0.1-0.4 0.2-0.8 0.3-1.2 0.4-1 0.7-2 0.9-3.1v1.4c-0.3 0.6-0.4 1.1-0.2 1.7 1-0.6 1.9-1.3 2.9-2 0.4-0.4 0.8-0.8 1.1-1.1 0.3 0 0.5 0 0.7 0v-0.4h0.6z"></path><path fill="#74370b" d="m18.9 18.8c0 0.2 0 0.3 0.2 0.4v0.1c-0.2 0.4-0.5 0.6-0.9 0.7-0.2 0-0.5 0.1-0.7 0.2-0.2-0.1-0.5-0.2-0.7-0.3l-0.6-0.8c0.1 0 0.2-0.1 0.2-0.2 0.1 0.2 0.2 0.4 0.3 0.6 0.1-0.2 0.1-0.3 0.1-0.4 0.2 0.1 0.3 0.4 0.4 0.6 0.2 0.1 0.3 0.1 0.4 0.1 0.3 0.1 0.6 0.1 0.9-0.1 0.1-0.4 0.2-0.7 0.4-0.9z"></path><path fill="#be7f1b" d="m17.2 18.4c0 0.2 0 0.5 0.2 0.7-0.1 0.2 0 0.4 0.2 0.5v0.2c-0.1 0-0.2 0-0.4-0.1-0.1-0.2-0.2-0.5-0.4-0.6v-0.5c0.1-0.5 0.2-1.1 0.2-1.7 0 0.5 0.1 1 0.2 1.5z"></path><path fill="#e58b14" d="m22.7 18.6c0.3 0.3 0.5 0.6 0.6 1 0 0.2-0.1 0.4-0.3 0.4h-0.1c0-0.3-0.1-0.5-0.2-0.8-0.2 0.2-0.3 0.2-0.5 0-0.1 0.3-0.3 0.7-0.3 1.1-0.5 0.2-1 0.1-1.4-0.1 0.3-0.2 0.7-0.4 0.9-0.6 0.3-0.2 0.5-0.5 0.6-0.9 0.2-0.2 0.5-0.2 0.7-0.1z"></path><path fill="#76390b" d="m22 17.9h0.1c-0.1 0.5-0.4 0.9-0.7 1.3-0.1 0.2-0.1 0.3 0 0.4-0.2 0.2-0.6 0.4-0.9 0.6h-0.2c-0.1-0.1-0.1-0.2 0-0.3 0.4-0.1 0.7-0.4 0.9-0.8 0.2-0.4 0.5-0.8 0.8-1.2z"></path><path fill="#eec822" d="m19.3 18.9c0.2 0.1 0.3 0.2 0.3 0.3-0.2 0.6-0.5 0.9-1.1 1.1-0.2 0-0.3-0.1-0.3-0.3 0.4-0.1 0.7-0.3 0.9-0.7 0.1-0.1 0.2-0.2 0.2-0.4z"></path><path fill="#fb9104" d="m16.8 19.9c0.2 0.1 0.5 0.2 0.7 0.3-0.1 0.1-0.1 0.2-0.3 0.2 0.4 0.2 0.8 0.2 1.2 0.2-0.6 0.1-1.1 0.2-1.7 0.1-0.4-0.2-0.8-0.2-1.2 0-1.5 1.1-3 2.2-4.6 3.3-0.2-0.3-0.4-0.5-0.7-0.7-0.1-0.2-0.1-0.3-0.1-0.4 0.1 0 0.2 0.1 0.3 0.1 0.5-0.5 1-0.9 1.6-1.3l0.1 0.2c0.5-0.5 1.2-0.9 1.9-1 0.3-0.4 0.5-0.8 0.5-1.3 0.2 0.2 0.3 0.2 0.4-0.1 0.4 0.4 0.6 0.3 0.7-0.3 0.2 0.7 0.6 0.9 1.2 0.7z"></path><path fill="#fbd208" d="m6.5 19.3c0.2 0.8 0.3 0.8 0.5 0 0.3 0.1 0.7 0.2 1.1 0.2l-0.2 0.2c0.5 0.2 0.6 0.5 0.2 0.8 0.1 0.1 0.1 0.2 0.1 0.2-0.3 0.1-0.6 0.2-0.8 0.3 0 0.1-0.1 0.2-0.2 0.2 0-0.1-0.1-0.2-0.2-0.3-0.3 0.2-0.5 0.5-0.6 0.8-0.1-0.1-0.3-0.1-0.4 0-0.1 0.2-0.3 0.4-0.4 0.5-0.5 0.5-1.1 0.9-1.7 1.1-0.2 0.2-0.3 0.3-0.4 0.5-0.2-0.1-0.4-0.1-0.6-0.1 0 0.3 0 0.5-0.2 0.7-0.3 0.1-0.6 0.2-0.9 0.4-0.3 0-0.3-0.1-0.3-0.3 0.4-0.1 0.7-0.2 1-0.5-0.1-0.2-0.2-0.4-0.4-0.4-0.3 0-0.6 0.1-0.8 0.2-0.1-0.1-0.1-0.2-0.1-0.4 0.4 0 0.6-0.1 0.8-0.4 0.1-0.2 0.3-0.3 0.6-0.3v-0.4c0.5-0.1 1-0.2 1.4-0.4-0.2-0.1-0.2-0.1 0-0.2 0.2-0.1 0.4-0.1 0.6-0.1v-0.4c0.4-0.1 0.5-0.2 0.1-0.5 0.2-0.1 0.5-0.3 0.8-0.4 0.1 0.4 0.3 0.6 0.7 0.7 0-0.2 0.2-0.4 0.3-0.5-0.1-0.4-0.1-0.8 0-1.2z"></path><path fill="#fcaf05" d="m12 20.5c0.5 0.1 1 0.1 1.6 0.1-0.5 0.2-0.9 0.4-1.4 0.6-0.1-0.1-0.3-0.2-0.5-0.3-0.1 0.2-0.4 0.4-0.7 0.5l0.2 0.1c-0.5 0.2-1.1 0.3-1.6 0.5-0.3-0.4-0.5-0.8-0.5-1.3 0.1 0.2 0.2 0.3 0.4 0.3 0.6-0.3 1.2-0.7 1.7-1.2 0.2 0.1 0.3 0.3 0.4 0.5 0.1 0.1 0.3 0.2 0.4 0.2z"></path><path fill="#dd9c1a" d="m13.4 19.8c0.2-0.1 0.3 0 0.3 0.1 0.2 0.3 0.2 0.5-0.1 0.7-0.6 0-1.1 0-1.6-0.1-0.1-0.2-0.1-0.3 0-0.5 0.3 0.2 0.4 0.2 0.6-0.1h0.1c0.2 0 0.4 0.1 0.6 0.1 0.3 0 0.3 0 0.1-0.2z"></path><path fill="#fc8602" d="m20.3 19.9c-0.1 0.1-0.1 0.2 0 0.3 0 0.3-0.1 0.3-0.3 0-0.4 0.1-0.6 0.3-0.8 0.5-1 0.3-2 0.4-3 0.4-1.3 1.1-2.7 2.1-4.1 3.2-0.1-0.4-0.2-0.3-0.3 0.1-0.1 0.1-0.2 0.2-0.3 0.1-0.3-0.1-0.5-0.3-0.6-0.5 1.6-1.1 3.1-2.2 4.6-3.3 0.4-0.2 0.8-0.2 1.2 0 0.6 0.1 1.1 0 1.7-0.1 0.3 0 0.7-0.2 0.9-0.4 0.3-0.2 0.5-0.4 0.7-0.7 0.1 0.1 0.2 0.3 0.3 0.4z"></path><path fill="#d98c14" d="m19.3 20.2c-0.2 0.2-0.6 0.4-0.9 0.4-0.4 0-0.8 0-1.2-0.2 0.2 0 0.2-0.1 0.3-0.2 0.2-0.1 0.5-0.2 0.7-0.2 0 0.2 0.1 0.3 0.3 0.3 0.6-0.2 0.9-0.5 1.1-1.1 0.1-0.1 0.2-0.2 0.2-0.3l0.1 0.2c-0.2 0.4-0.4 0.7-0.6 1.1z"></path><path fill="#380e03" d="m30.4 19.3c-0.2 1.1-0.5 2.1-0.9 3.1v-0.4c0.4-1 0.6-2.1 0.7-3.2v-0.3c0.1-0.5 0.2-1.1 0.2-1.7 0 0.8 0.1 1.7 0 2.5z"></path><path fill="#fd7c02" d="m19.2 20.7c-0.6 0.6-1.3 0.9-2.1 1-0.5 0.2-1 0.5-1.3 1-0.3 0.3-0.7 0.5-1.1 0.6-0.7 0.8-1.4 1.4-2.3 1.9-0.3-0.1-0.7-0.4-0.9-0.7 0.1 0.1 0.2 0 0.3-0.1 0.1-0.4 0.2-0.5 0.3-0.1 1.4-1.1 2.8-2.1 4.1-3.2 1 0 2-0.1 3-0.4z"></path><path fill="#63300b" d="m7.4 21c0.3 0 0.6 0 0.8 0.2-0.2 0.1-0.5 0.1-0.7 0.2-0.1 0.2-0.2 0.4-0.2 0.6 0-0.1-0.1-0.1-0.2-0.1v-0.6c0.1 0 0.1 0 0.1-0.1 0.1 0 0.2-0.1 0.2-0.2z"></path><path fill="#d1b53a" d="m2.3 9.2c0.1 0.1 0.2 0.2 0.2 0.3-0.2 0-0.2 0.1-0.3 0.2 0.2 0.2 0.5 0.3 0.8 0.4 0 0.1 0 0.2 0 0.2-0.3-0.1-0.6-0.3-0.8-0.4-0.2 0.2-0.2 0.3 0 0.4 0.2 0.1 0.4 0.2 0.5 0.3-0.2 0.1-0.4 0.1-0.7-0.1-0.1 0.1-0.1 0.2-0.1 0.4 0.3 0 0.5 0.1 0.7 0.2-0.3 0.1-0.5 0.1-0.8-0.1-0.1 0.1-0.2 0.1-0.3 0.3 0.4 0 0.7 0.1 0.8 0.4-1-0.1-1 0-0.1 0.4-0.3 0.1-0.5 0.1-0.8-0.1-0.1 0-0.3 0.1-0.3 0.2 0.3 0.2 0.6 0.3 0.9 0.4-0.3 0.1-0.7 0.1-1.1 0.1 0.2 0.2 0.5 0.3 0.9 0.3 0 0.1-0.1 0.2-0.2 0.3-0.3-0.2-0.5-0.2-0.8 0l0.8 0.3c-0.3 0.1-0.6 0.1-0.8 0-0.1 0.2-0.2 0.5-0.3 0.7 0.1 0.1 0.2 0.1 0.3 0.1 0.2 0.1 0.4 0.2 0.7 0.3-0.4 0.1-0.7 0.1-1 0.1 0.2 0.3 0.5 0.4 0.8 0.3-0.3 0.1-0.6 0.2-0.9 0.3 0.3 0.1 0.6 0.2 0.9 0.4-1.3 0.1-1.3 0.3 0 0.5-0.3 0-0.6 0.1-0.9 0.2 1 0.4 1 0.5-0.2 0.3v0.4c0.4 0 0.7 0 1 0.3-0.3 0-0.7 0-1 0.1 1.3 0.2 1.3 0.3 0 0.3v0.5c1.3 0 1.3 0 0 0.1v0.4c1.1 0 1.1 0.1 0 0.3 0 0.1 0.1 0.1 0.2 0.2 0.3 0.1 0.6 0.1 0.9-0.1-0.2 0.3-0.5 0.4-0.9 0.3-0.1 0.2 0 0.3 0 0.4 0.3-0.1 0.6-0.1 0.9 0-0.1 0-0.3 0.1-0.4 0.2h-0.5v0.4c0.3-0.1 0.6-0.1 0.9-0.1-0.2 0.2-0.5 0.3-0.8 0.2 0 0.2 0 0.3 0.1 0.5 0.3-0.2 0.6-0.2 0.9-0.1-1.3 0.4-1.3 0.5 0.1 0.3-0.3 0.3-0.6 0.5-1 0.6 0.4 0 0.8 0.1 1.2 0.1-0.4 0.1-0.7 0.3-1 0.5 0.3 0.1 0.6 0.1 1-0.2 0.1 0.1 0.1 0.2 0 0.3-0.2 0.1-0.5 0.2-0.7 0.2-0.1 0.1 0 0.3 0.1 0.4 0.3-0.1 0.6-0.2 0.8-0.3-0.2 0.3-0.4 0.4-0.8 0.4 0 0.2 0 0.3 0.1 0.4 0.2-0.1 0.5-0.2 0.8-0.2 0.2 0 0.3 0.2 0.4 0.4-0.3 0.3-0.6 0.4-1 0.5 0 0.2 0 0.3 0.3 0.3 0 0.4 0.1 0.7 0.2 1 0.4 0.7 0.8 1.3 1.2 2 0.2 0.3 0.4 0.7 0.7 1 0.1 0.1 0.2 0.3 0.2 0.5-2.4-2.7-3.7-5.9-4-9.5-0.4-3.8 0.4-7.3 2.2-10.6z" opacity=".235"></path><path fill="#ae4003" d="m27.5 18.2c0 0.4 0 0.8-0.3 1.1-0.6 0.8-1.2 1.5-1.8 2.1-1.4 1.1-2.9 2.1-4.2 3.2-0.2 0.2-0.4 0.4-0.5 0.7-0.7 0.5-1.3 1-1.9 1.6-0.4 0.1-0.8 0.2-1.2 0.3h-0.5c0.2-0.2 0.4-0.4 0.4-0.7 0.4 0 0.7 0 1-0.2l-0.1-0.1c0.6-0.7 1.4-1.3 2.2-1.7 1.1-1 2.3-1.9 3.5-2.8 0.2-0.1 0.3-0.1 0.4-0.1 0-0.5 0.3-0.7 0.7-0.6 0.4-0.8 0.9-1.5 1.6-1.9 0.1-0.3 0.2-0.6 0.2-0.9 0.2 0.2 0.3 0.2 0.5 0z"></path><path fill="#fb7002" d="m22.9 20c0 0.6-0.2 0.7-0.5 0.3-0.2 0.3-0.4 0.6-0.7 0.7-0.6 0.1-1.2 0.1-1.8 0-0.3 0.1-0.6 0.2-0.8 0.4 0.1 0.1 0.1 0.2-0.1 0.3-0.1-0.3-0.2-0.3-0.4-0.1-1 0.8-2.1 1.6-3.2 2.3-0.2 0.4-0.5 0.7-0.8 0.6-0.2 0.2-0.2 0.3-0.2 0.5l-1.4 0.7c-0.2-0.1-0.4-0.3-0.6-0.5 0.9-0.5 1.6-1.1 2.3-1.9 0.4-0.1 0.8-0.3 1.1-0.6 0.3-0.5 0.8-0.8 1.3-1 0.8-0.1 1.5-0.4 2.1-1 0.2-0.2 0.4-0.4 0.8-0.5 0.2 0.3 0.3 0.3 0.3 0h0.2c0.4 0.2 0.9 0.3 1.4 0.1 0-0.4 0.2-0.8 0.3-1.1 0.2 0.2 0.3 0.2 0.5 0 0.1 0.3 0.2 0.5 0.2 0.8z"></path><path fill="#c74a02" d="m27.4 17.1c-0.1 0.3 0 0.5 0.1 0.7v0.4c-0.2 0.2-0.3 0.2-0.5 0 0 0.3-0.1 0.6-0.2 0.9-0.7 0.4-1.2 1.1-1.6 1.9-0.4-0.1-0.7 0.1-0.7 0.6-0.1 0-0.2 0-0.4 0.1-1.2 0.9-2.4 1.8-3.5 2.8-0.8 0.4-1.6 1-2.2 1.7l0.1 0.1c-0.3 0.2-0.6 0.2-1 0.2 0 0.3-0.2 0.5-0.4 0.7h-0.7c-0.4-0.1-0.9-0.3-1.3-0.4 0.5-0.4 0.9-0.8 1.3-1.3 1.5-1 3-2.1 4.5-3.1 0.2-0.2 0.3-0.4 0.4-0.6 0.6-0.1 1.2-0.3 1.7-0.6 0.3 0.3 0.5 0.3 0.7-0.1 0.3 0 0.7-0.1 1-0.2 0.1-0.1 0.1-0.3 0-0.4 0.1-0.2 0.2-0.4 0.4-0.5-0.2-0.6-0.2-1.3 0.1-1.9 0.2 0.1 0.3 0.1 0.5 0 0.4-0.4 0.9-0.8 1.3-1.2 0.1 0.2 0.2 0.2 0.4 0.2z"></path><path fill="#fdc803" d="m7.2 21.2c0 0.1 0 0.1-0.1 0.1-0.1 0.2-0.2 0.4-0.2 0.7-0.2-0.2-0.3-0.2-0.5 0-0.1 0.3-0.2 0.6-0.4 0.9-0.7 0.5-1.4 1-2.1 1.4-0.2 0.4-0.5 0.7-0.9 0.8-0.2-0.2-0.3-0.4-0.3-0.7 0.2-0.2 0.2-0.4 0.2-0.7 0.2 0 0.4 0 0.6 0.1 0.1-0.2 0.2-0.3 0.4-0.5 0.6-0.2 1.2-0.6 1.7-1.1 0.1-0.1 0.3-0.3 0.4-0.5 0.1-0.1 0.3-0.1 0.4 0 0.1-0.3 0.3-0.6 0.6-0.8 0.1 0.1 0.2 0.2 0.2 0.3z"></path><path fill="#f46302" d="m21.7 21c-0.4 0.2-0.8 0.4-1.3 0.4-2.2 1.5-4.3 3.2-6.3 5-0.4-0.2-0.8-0.4-1.1-0.7l1.4-0.7c0-0.2 0-0.3 0.2-0.5 0.3 0.1 0.6-0.2 0.8-0.6 1.1-0.7 2.2-1.5 3.2-2.3 0.2-0.2 0.3-0.2 0.4 0.1 0.2-0.1 0.2-0.2 0.1-0.3 0.2-0.2 0.5-0.3 0.8-0.4 0.6 0.1 1.2 0.1 1.8 0z"></path><path fill="#e05802" d="m22.9 20h0.1c0 0.2 0.1 0.2 0.3 0.2 0.3 0.2 0.7 0.3 1.2 0.4 0-0.1 0.1-0.1 0.2-0.1 0.1 0.1 0.1 0.3 0 0.4-0.3 0.1-0.7 0.2-1 0.2-0.2 0.4-0.4 0.4-0.7 0.1-0.5 0.3-1.1 0.5-1.7 0.6-0.1 0.2-0.2 0.4-0.4 0.6-1.5 1-3 2.1-4.5 3.1-0.4 0.5-0.8 0.9-1.3 1.3-0.3 0-0.6-0.1-0.8-0.3 0-0.1-0.1-0.1-0.2-0.1 2-1.8 4.1-3.5 6.3-5 0.5 0 0.9-0.2 1.3-0.4 0.3-0.1 0.5-0.4 0.7-0.7 0.3 0.4 0.5 0.3 0.5-0.3z"></path><path fill="#983903" d="m27.2 19.3c0 0.8-0.2 1.4-0.6 2-0.5 0.1-0.8 0.3-0.7 0.8l-0.5 0.9c-0.2-0.1-0.3-0.2-0.4-0.3-0.4 0.4-0.7 0.7-1.2 1l0.3 0.1c-0.9 0.5-1.8 0.9-2.7 1.5-0.1 0.2-0.1 0.4 0 0.6-0.3 0.1-0.6 0.4-0.8 0.7-0.5 0.1-1.1 0.2-1.5 0.3 0.1 0.2 0.3 0.2 0.5 0.2-0.6 0.1-1.3 0.2-2 0.1 0.4-0.1 0.8-0.2 1.2-0.3 0.6-0.6 1.2-1.1 1.9-1.6 0.1-0.3 0.3-0.5 0.5-0.7 1.3-1.1 2.8-2.1 4.2-3.2 0.6-0.6 1.2-1.3 1.8-2.1z"></path><path fill="#bb600c" d="m8.6 20h0.2c0 0.3 0.1 0.6 0.3 0.7 0 0.5 0.2 0.9 0.5 1.3 0.1 0.4 0.2 0.6 0.5 0.9 0 0.1 0 0.2 0.1 0.4v0.1l-0.6-0.5c0-0.4-0.2-0.7-0.4-0.9-0.3-0.6-0.4-1.3-0.6-2z"></path><path fill="#3e1902" d="m34 23.1c-0.4 0.1-0.8 0.2-1.2 0.3-0.7 0.6-1.4 1.2-2.1 1.8-0.3 0.2-0.7 0.2-1.1 0.3-0.3 0.7-0.9 1.3-1.7 1.6-0.3 0.6-0.8 0.8-1.4 0.7l0.1 0.2c-0.3 0-0.4 0.2-0.2 0.4-0.2 0.2-0.3 0.3-0.5 0.1-0.2 0.2-0.3 0.5-0.4 0.8-0.4 0.1-0.9 0.3-1.4 0.5-0.4 0.6-0.9 1.1-1.5 1.6-0.2-0.2-0.5-0.4-0.9-0.4l0.2-0.8c-0.5 0-0.9-0.1-1.3-0.2 1.2-0.3 2.4-0.7 3.5-1.2 0.9-0.7 1.8-1.3 2.7-2 0 0.3-0.1 0.6-0.3 0.8 0.3 0 0.6-0.1 0.9-0.2 0.3-0.5 0.7-0.9 1.2-1.2 0.3-0.9 0.9-1.3 1.8-1.4 0.1-0.4 0.3-0.7 0.5-1l0.2 0.2 2.2-1.4c0.2-0.1 0.4-0.4 0.5-0.7 0.1 0.1 0.4 0.2 0.6 0.3-0.2 0.3-0.3 0.6-0.4 0.9z"></path><path fill="#773106" d="m28.5 19.9c0-0.1 0-0.3 0.1-0.4 0.3 0.1 0.5 0 0.7 0-0.3-0.3-0.6-0.4-1-0.2 0 0.1-0.1 0.3-0.1 0.5 0 0.3 0.1 0.4 0.3 0.5 0 0.2 0.1 0.3 0.3 0.3 0.1 0 0.2-0.1 0.2-0.1 0.2 0 0.3-0.1 0.3-0.2 0.4-0.3 0.7-0.8 0.7-1.4 0-0.1 0.1-0.1 0.2-0.1-0.1 1.1-0.3 2.2-0.7 3.2-0.2 0.2-0.4 0.5-0.6 0.8-0.1 0-0.3 0.1-0.4 0.1 0 0.3-0.1 0.6-0.3 0.8-0.1-0.2-0.2-0.4-0.1-0.6h-0.6c-0.2 0.1-0.5 0.1-0.7 0.2-0.2 0.1-0.4 0.4-0.4 0.7-0.2-0.2-0.4-0.1-0.6 0.1 0.3 0.1 0.3 0.3 0.1 0.4-0.2 0.1-0.4 0-0.5-0.2 0.2-0.5 0.5-0.9 0.8-1.3 0.3 0 0.5-0.1 0.7-0.3l-0.1-0.3c0.1-0.1 0.3-0.2 0.5-0.3 0.1-0.6 0.3-1.2 0.7-1.8 0-0.4 0.1-0.8 0.2-1.2 0.5 0.1 0.8-0.1 1.1-0.5 0 0.4 0.1 0.8 0.2 1.2-0.4 0-0.7 0-1 0.1z"></path><path fill="#dbac3e" d="m28.6 22c0.1 0 0.2 0 0.3 0.1-0.1 0.4-0.4 0.5-0.7 0.3 0.2-0.1 0.3-0.2 0.4-0.4z"></path><path fill="#4a1e07" d="m27.9 21.3c0.3 0 0.6 0 0.9 0.1 0 0 0.1 0.1 0.1 0.2-0.2 0.1-0.5 0.2-0.7 0.2-0.1 0.2-0.2 0.4-0.3 0.6-0.2 0-0.3-0.1-0.3-0.3 0.1-0.3 0.2-0.5 0.3-0.8z"></path><path fill="#e1af2c" d="m29.3 20.3c0 0.1-0.1 0.2-0.3 0.2-0.1 0-0.3-0.1-0.4-0.2 0.3-0.1 0.5-0.2 0.7-0.4 0 0.1 0 0.3 0 0.4z"></path><path fill="#4a1406" d="m28.5 19.9v0.4c-0.2-0.1-0.3-0.2-0.3-0.5 0-0.2 0.1-0.4 0.1-0.5 0.4-0.2 0.7-0.1 1 0.2-0.2 0-0.4 0.1-0.7 0-0.1 0.1-0.1 0.3-0.1 0.4z"></path><path fill="#f8bd09" d="m7.1 21.3v0.6c0.3 0.4 0.2 0.7-0.3 1-0.1-0.2-0.2-0.3-0.4-0.3 0.1 0.5 0.1 0.8 0 1-0.6 0.3-1.2 0.6-1.7 1-0.4 0.5-0.9 0.9-1.5 1.2 0-0.2-0.1-0.3-0.2-0.4-0.1 0-0.1 0-0.1 0.1-0.3 0.2-0.6 0.3-0.9 0.3-0.1-0.3-0.2-0.6-0.2-1 0.3-0.2 0.6-0.3 0.9-0.4 0 0.3 0.1 0.5 0.3 0.7 0.4-0.1 0.7-0.4 0.9-0.8 0.7-0.4 1.4-0.9 2.1-1.4 0.2-0.3 0.3-0.6 0.4-0.9 0.2-0.2 0.3-0.2 0.5 0 0-0.3 0.1-0.5 0.2-0.7z"></path><path fill="#2e0c03" d="m27.5 23.1c0.1 0.1 0.2 0.2 0.3 0.3-0.2 0.1-0.5 0.1-0.7 0.1-0.1 0.2-0.2 0.5-0.3 0.8-0.2-0.4-0.2-0.7 0-1 0.2-0.1 0.5-0.1 0.7-0.2z"></path><path fill="#351603" d="m34.9 23.4c0 0.6-0.2 1.1-0.5 1.6 0-0.2 0-0.4 0.1-0.5-0.3-0.2-0.5 0-0.6 0.3-0.5-0.1-0.6 0-0.2 0.4-0.2 0-0.3 0.1-0.4 0 0 0.2-0.1 0.3-0.2 0.5-0.2-0.2-0.2-0.4 0-0.5-0.2-0.3-0.3-0.3-0.3 0-0.5-0.1-0.8 0.1-1.1 0.5-0.8 0.5-1.6 1.1-2.4 1.7-0.1 0.6-0.4 0.9-1.1 0.9-0.5 0.6-1.1 1-1.8 1.2 0 0.1-0.1 0.3-0.2 0.5-0.8 0.5-1.7 1.1-2.5 1.6l0.1 0.2c-0.4 0.3-0.8 0.6-1.2 1 0-0.1 0-0.2 0.1-0.3l-0.4-0.2c-0.2-0.4-0.4-0.8-0.6-1.2v-0.1c0.4 0 0.7 0.2 0.9 0.4 0.6-0.5 1.1-1 1.5-1.6 0.5-0.2 1-0.4 1.4-0.5 0.1-0.3 0.2-0.6 0.4-0.8 0.2 0.2 0.3 0.1 0.5-0.1-0.2-0.2-0.1-0.4 0.2-0.4l-0.1-0.2c0.6 0.1 1.1-0.1 1.4-0.7 0.8-0.3 1.4-0.9 1.7-1.6 0.4-0.1 0.8-0.1 1.1-0.3 0.7-0.6 1.4-1.2 2.1-1.8 0.4-0.1 0.8-0.2 1.2-0.3 0.2 0.1 0.4 0.2 0.7 0.1-0.3-0.1-0.4-0.3-0.2-0.5 0.3 0.1 0.5 0.4 0.4 0.7z"></path><path fill="#f7b10a" d="m7 18.9c0.5-0.2 0.8-0.1 1.1 0.4 0.1 0 0.1-0.1 0.1-0.2 0.2 0.3 0.3 0.6 0.4 0.9 0.2 0.7 0.3 1.4 0.6 2 0.1 0.4 0 0.7-0.3 0.9-0.5 0-0.8 0.2-0.8 0.8-0.2 0-0.5 0.1-0.7 0.1-0.5-0.9-0.7-0.8-0.4 0.2-0.2 0.2-0.5 0.3-0.7 0.3v0.4c-0.2 0-0.4 0-0.6 0.1l0.1 0.1c-0.4 0.5-1 0.8-1.7 1 0.1 0.2 0 0.4-0.1 0.6-0.3-0.1-0.6-0.3-0.8-0.6l-0.3 0.2c-0.1-0.2-0.1-0.4 0-0.6 0-0.1 0-0.1 0.1-0.1 0.1 0.1 0.2 0.2 0.2 0.4 0.6-0.3 1.1-0.7 1.5-1.2 0.5-0.4 1.1-0.7 1.7-1 0.1-0.2 0.1-0.5 0-1 0.2 0 0.3 0.1 0.4 0.3 0.5-0.3 0.6-0.6 0.3-1 0.1 0 0.2 0 0.2 0.1 0-0.2 0.1-0.4 0.2-0.6 0.2-0.1 0.5-0.1 0.7-0.2-0.2-0.2-0.5-0.2-0.8-0.2 0.2-0.1 0.5-0.2 0.8-0.3 0 0 0-0.1-0.1-0.2 0.4-0.3 0.3-0.6-0.2-0.8l0.2-0.2c-0.4 0-0.8-0.1-1.1-0.2 0.2-0.1 0.4-0.1 0.7-0.2-0.2-0.2-0.5-0.2-0.7-0.2z"></path><path fill="#f6d90b" d="m7.5 21.4c0.3 0 0.3 0.1 0.2 0.3 0.1 0 0.3 0 0.5 0 0.1 0.4-0.1 0.6-0.5 0.6l-0.2-0.9z"></path><path fill="#65280a" d="m8.9 22.9c0.2 0.1 0.3 0.2 0.2 0.4-0.6-0.3-0.9 0-0.8 0.7-0.1-0.1-0.2-0.2-0.2-0.3 0-0.6 0.3-0.8 0.8-0.8z"></path><path fill="#481c05" d="m35.8 15.7c-0.1 0.6 0 1.2 0.1 1.8v0.1c-0.2 0.1-0.2 0.1 0 0.2v0.3c0 1.8-0.4 3.6-1 5.3 0.1-0.3-0.1-0.6-0.4-0.7-0.2 0.2-0.1 0.4 0.2 0.5-0.3 0.1-0.5 0-0.7-0.1 0.1-0.3 0.2-0.6 0.4-0.9-0.2-0.1-0.5-0.2-0.6-0.3-0.1 0.3-0.3 0.6-0.5 0.7l-2.2 1.4-0.2-0.2c-0.2 0.3-0.4 0.6-0.5 1-0.9 0.1-1.5 0.5-1.8 1.4-0.5 0.3-0.9 0.7-1.2 1.2-0.3 0.1-0.6 0.2-0.9 0.2 0.2-0.2 0.3-0.5 0.3-0.8 0.7-0.8 1.3-1.7 1.9-2.5 0.2-0.3 0.2-0.5 0.1-0.7 0 0-0.1 0.1-0.2 0.1 0-0.4 0.2-0.7 0.6-0.7-0.1-0.3 0-0.5 0.3-0.6-0.1 0.4-0.2 0.8-0.3 1.2l0.2 0.2c0.4-0.3 0.7-0.8 1-1.2 0 0.1 0.1 0.3 0.3 0.4 0.5-0.6 1.1-1.1 1.7-1.7 0.3-0.2 0.6-0.3 0.9-0.3 0.1-0.2 0.1-0.4 0.1-0.5 0.3 0 0.6-0.2 0.8-0.5 0.1 0.2 0.2 0.4 0.3 0.6-0.1 0.2-0.1 0.4 0 0.6 0.3-0.1 0.5-0.3 0.4-0.6h0.5c0-0.6 0-1.1 0.1-1.7 0.1-0.3 0.1-0.6 0-1 0.1-0.5 0.1-1 0.1-1.7 0-0.2 0.1-0.4 0.2-0.5z"></path><path fill="#faa306" d="m9.2 22c0.2 0.2 0.4 0.5 0.4 0.9 0 0.2 0.1 0.4 0.3 0.6-0.2 0.2-0.4 0.4-0.7 0.6-0.1 0.3-0.3 0.4-0.6 0.3-0.1 0.1-0.2 0.2-0.3 0.3-0.3-0.3-0.6-0.5-1-0.7-0.3 0.4-0.2 0.6 0.2 0.7 0.2 0.1 0.3 0.3 0.3 0.5-0.1 0-0.3 0-0.4 0.1-0.8 0.6-1.7 1.1-2.5 1.6-0.1 0.2-0.3 0.4-0.4 0.6-0.1-0.2-0.3-0.3-0.5-0.3v-0.7c0.1-0.2 0.2-0.4 0.1-0.6 0.7-0.2 1.3-0.5 1.7-1l-0.1-0.1c0.2-0.1 0.4-0.1 0.6-0.1v-0.4c0.2 0 0.5-0.1 0.7-0.3-0.3-1-0.1-1.1 0.4-0.2 0.2 0 0.5-0.1 0.7-0.1 0 0.1 0.1 0.2 0.2 0.3-0.1-0.7 0.2-1 0.8-0.7 0.1-0.2 0-0.3-0.2-0.4 0.3-0.2 0.4-0.5 0.3-0.9z"></path><path fill="#fad519" d="m9.2 24.1c-0.7-0.1-0.7-0.2 0-0.5 0.1 0.1 0.1 0.3 0 0.5z"></path><path fill="#863804" d="m26.6 21.3c-1.2 3.2-3.6 5.1-7 5.8-0.2 0-0.4 0-0.5-0.2 0.4-0.1 1-0.2 1.5-0.3 0.2-0.3 0.5-0.6 0.8-0.7-0.1-0.2-0.1-0.4 0-0.6 0.9-0.6 1.8-1 2.7-1.5l-0.3-0.1c0.5-0.3 0.8-0.6 1.2-1 0.1 0.1 0.2 0.2 0.4 0.3l0.5-0.9c-0.1-0.5 0.2-0.7 0.7-0.8z"></path><path fill="#f7900b" d="m9.6 22.9l0.6 0.5c0.1 0.3 0.3 0.6 0.6 0.9-0.1 0.1-0.2 0.3-0.2 0.5-0.8-0.5-1.2-0.2-1.2 0.7-0.2 0.2-0.3 0.4-0.4 0.6l-1.4-1.7c-0.1 0.1-0.1 0.2-0.1 0.3-0.4-0.1-0.5-0.3-0.2-0.7 0.4 0.2 0.7 0.4 1 0.7 0.1-0.1 0.2-0.2 0.3-0.3 0.3 0.1 0.5 0 0.6-0.3 0.3-0.2 0.5-0.4 0.7-0.6-0.2-0.2-0.3-0.4-0.3-0.6z"></path><path fill="#742d0d" d="m10.6 24.8v0.3c-0.3-0.1-0.6-0.1-1-0.1 0.1 0.2 0 0.4-0.2 0.5 0-0.9 0.4-1.2 1.2-0.7z"></path><path fill="#dfa935" d="m27.6 19.3c-0.2 1.3-0.7 2.6-1.4 3.7-0.3 0.4-0.6 0.8-0.8 1.3-1.2 1.2-2.6 2.1-4.2 2.8-0.9 0.2-1.7 0.3-2.6 0.4h-1.9c-0.1-0.1-0.2-0.2-0.3-0.1v-0.2h1.2c0.7 0.1 1.4 0 2-0.1 3.4-0.7 5.8-2.6 7-5.8 0.4-0.6 0.6-1.2 0.6-2 0.3-0.3 0.3-0.7 0.3-1.1v-0.4c0.2 0.1 0.2 0.6 0.1 1.5z"></path><path fill="#290f04" d="m25.2 25c0.4-0.1 0.7 0 1 0.2-0.2 0-0.5 0.1-0.7 0.2 0 0.2-0.2 0.4-0.4 0.5-0.2-0.3-0.2-0.6 0.1-0.9z"></path><path fill="#2c1205" d="m34.4 25c-0.3 0.7-0.7 1.4-1.1 2.1 0-0.4 0.1-0.7 0.2-1.1l-0.1-0.2c-0.1 0.1-0.2 0.3-0.2 0.4-0.1 0-0.1-0.1-0.2-0.1-0.2 0.2-0.2 0.3-0.2 0.5h-0.4l-0.5 1.3c-0.3 0-0.4-0.1-0.5-0.3-0.1 0.3 0 0.5 0.2 0.6-0.3 0.3-0.6 0.6-0.7 1-0.4-0.1-0.7 0-0.9 0.3l-0.3-0.2c0.5-0.1 0.8-0.4 1-0.7-0.3-0.2-0.5-0.1-0.6 0.3l-0.1-0.3c-0.3 0.4-0.7 0.6-1.2 0.6-0.1 0.4-0.4 0.6-0.9 0.5 0 0.2 0 0.4-0.1 0.5-0.3 0.1-0.5 0.2-0.7 0.2-0.5 0.7-1.1 1.2-1.9 1.4 0.9 0 0.9 0.2 0.2 0.7 0.4 0.2 0.5 0.5 0.2 0.9-0.2-0.1-0.4-0.2-0.6-0.3-0.2-0.1-0.2-0.3 0-0.4-0.3-0.1-0.5-0.2-0.7-0.1-0.1 0.2 0 0.4 0 0.7 0.1-0.3 0.2-0.4 0.4-0.2 0.2 0.2 0.2 0.3 0 0.4-0.4 0.3-0.8 0.4-1.2 0.3-0.3 0.3-0.7 0.5-1.2 0.6-0.3 0.4-0.6 0.5-1 0.4-0.1 0-0.1 0-0.1-0.1 0.1-0.1 0.1-0.2 0.2-0.3 0.4 0.1 0.4 0 0-0.3-0.3 0.2-0.6 0.3-0.9 0.4-0.2 0.4 0 0.7 0.5 0.8-0.8 0.2-1-0.1-0.7-0.9 0.1-0.2 0.3-0.4 0.4-0.6 0.1 0.3 0.3 0.3 0.5-0.1-0.2-0.1-0.3-0.2-0.5-0.2-0.1-0.6-0.1-1.3-0.1-1.9 0-0.3 0.1-0.5 0.4-0.6 0.1 0.3 0.2 0.3 0.2-0.1 0.1 0.2 0.3 0.3 0.5 0.2 0.2 0.4 0.4 0.8 0.6 1.2l0.4 0.2c-0.1 0.1-0.1 0.2-0.1 0.3 0.4-0.4 0.8-0.7 1.2-1l-0.1-0.2c0.8-0.5 1.7-1.1 2.5-1.6 0.1-0.2 0.2-0.4 0.2-0.5 0.7-0.2 1.3-0.6 1.8-1.2 0.7 0 1-0.3 1.1-0.9 0.8-0.6 1.6-1.2 2.4-1.7 0.3-0.4 0.6-0.6 1.1-0.5 0-0.3 0.1-0.3 0.3 0-0.2 0.1-0.2 0.3 0 0.5 0.1-0.2 0.2-0.3 0.2-0.5 0.1 0.1 0.2 0 0.4 0-0.4-0.4-0.3-0.5 0.2-0.4 0.1-0.3 0.3-0.5 0.6-0.3-0.1 0.1-0.1 0.3-0.1 0.5z"></path><path fill="#f57306" d="m10.2 23.3c0.3 0.2 0.5 0.4 0.7 0.7 0.1 0.2 0.3 0.4 0.6 0.5 0.2 0.3 0.6 0.6 0.9 0.7 0.2 0.2 0.4 0.4 0.6 0.5 0.3 0.3 0.7 0.5 1.1 0.7 0.1 0 0.2 0 0.2 0.1-0.1 0-0.2 0-0.3 0.1 0.1 0 0.2 0.1 0.3 0.2l-1.9-0.6c-0.8 0-1.1 0.3-0.9 1.2-0.3-0.1-0.5 0-0.6 0.2 0.3 0 0.4 0.1 0.6 0.3h-0.5c-0.6-0.4-1.1-0.8-1.5-1.4 0-0.1 0-0.2-0.1-0.3 0.1-0.1 0.2-0.2 0.3-0.3 0.3 0.3 0.6 0.4 0.9 0.3-0.1-0.1-0.1-0.2-0.1-0.3 0.2 0 0.3-0.2 0.3-0.4 0-0.2-0.1-0.3-0.2-0.4v-0.3c0-0.2 0.1-0.4 0.2-0.5-0.3-0.3-0.5-0.6-0.6-0.9v-0.1z"></path><path fill="#f89608" d="m7.8 25.2h0.1c-0.9 1-2 1.9-3.2 2.5 0.2 0.2 0.4 0.5 0.4 0.8-0.1 0-0.2 0.1-0.2 0.1-0.1-0.1-0.2-0.3-0.2-0.4-0.3 0.1-0.6 0.3-0.8 0.6-0.3-0.3-0.5-0.7-0.7-1 0.3-0.1 0.6-0.3 0.8-0.6 0.2 0 0.4 0.1 0.5 0.3 0.1-0.2 0.3-0.4 0.4-0.6 0.8-0.5 1.7-1 2.5-1.6 0.1-0.1 0.3-0.1 0.4-0.1z"></path><path fill="#e57a0e" d="m9.4 25.5c0.2-0.1 0.3-0.3 0.2-0.5 0.4 0 0.7 0 1 0.1 0.1 0.1 0.2 0.2 0.2 0.4 0 0.2-0.1 0.4-0.3 0.4 0 0.1 0 0.2 0.1 0.3-0.3 0.1-0.6 0-0.9-0.3-0.1 0.1-0.2 0.2-0.3 0.3 0.1 0.1 0.1 0.2 0.1 0.3-0.1-0.1-0.3-0.2-0.4-0.3-0.1 0-0.2 0.1-0.2 0.2l-1-1.2h-0.1c0-0.2-0.1-0.4-0.3-0.5 0-0.1 0-0.2 0.1-0.3l1.4 1.7c0.1-0.2 0.2-0.4 0.4-0.6z"></path><path fill="#f8b712" d="m10.5 25.9h-0.6c0-0.3 0.2-0.5 0.6-0.7 0.1 0.3 0.1 0.5 0 0.7z"></path><path fill="#d6a736" d="m26.2 25.9l-0.1 0.3c-0.5-0.1-0.5-0.3 0.1-0.5 0 0 0 0.1 0 0.2z"></path><path fill="#62200a" d="m12.4 26.2c-0.1 0.2-0.3 0.4-0.6 0.4 0 0.4-0.1 0.6-0.3 0.8-0.2-0.9 0.1-1.2 0.9-1.2z"></path><path fill="#fc8b03" d="m7.9 25.2l1 1.2 0.2 0.2c-0.3 0.4-0.7 0.6-1.1 0.8l-0.1-0.2c-0.6 0.8-1.3 1.4-2.2 1.6l0.3 0.2c-0.1 0-0.1 0-0.2 0-0.1 0-0.3 0-0.4-0.1-0.1 0.4-0.3 0.4-0.4 0 0.1-0.1 0.1-0.3 0.1-0.4 0-0.3-0.2-0.6-0.4-0.8 1.2-0.6 2.3-1.5 3.2-2.5z"></path><path fill="#f38e1b" d="m14.3 26.5c0.2 0.2 0.5 0.3 0.8 0.3 0.4 0.1 0.9 0.3 1.3 0.4v0.2c-0.8-0.1-1.5-0.3-2.1-0.6-0.1-0.1-0.2-0.2-0.3-0.2 0.1-0.1 0.2-0.1 0.3-0.1z"></path><path fill="#fb7904" d="m9.1 26.6c0.1 0.1 0.2 0.2 0.3 0.3 0 0.2 0 0.3 0.1 0.5-0.3 0.4-0.7 0.7-1.3 0.8-0.5 0.3-0.8 0.8-1.1 1.3h-0.6v0.4c0.2 0 0.4 0 0.5-0.2 0 0.3 0 0.5 0.1 0.7-0.2 0.1-0.4 0.2-0.6 0.3-0.1-0.1-0.1-0.3 0-0.5-0.2 0-0.4 0-0.5 0l0.1-0.3c-0.3-0.3-0.3-0.6-0.3-0.9 0.1 0 0.1 0 0.2 0l-0.3-0.2c0.9-0.2 1.6-0.8 2.2-1.6l0.1 0.2c0.4-0.2 0.8-0.4 1.1-0.8z"></path><path fill="#a34005" d="m9.5 26.5c0.4 0.6 0.9 1 1.5 1.4-0.1 0-0.1 0.1-0.1 0.2l-1.5-1.2c-0.1-0.1-0.2-0.2-0.3-0.3l-0.2-0.2c0-0.1 0.1-0.2 0.2-0.2 0.1 0.1 0.3 0.2 0.4 0.3z"></path><path fill="#e4a018" d="m2.9 25.5c-0.1 0.2-0.1 0.4 0 0.6l0.3-0.2c0.2 0.3 0.5 0.5 0.8 0.6v0.7c-0.2 0.3-0.5 0.5-0.8 0.6-0.4-0.7-0.8-1.3-1.2-2 0.3 0 0.6-0.1 0.9-0.3z"></path><path fill="#601e09" d="m14.6 27.8l-0.6-0.2c-0.2 0.2-0.4 0.4-0.4 0.7-0.3-0.2-0.4-0.5-0.2-0.8 0.5-0.4 0.9-0.3 1.2 0.3z"></path><path fill="#6b2c06" d="m29.5 22v0.4c-0.3 0.1-0.4 0.3-0.3 0.6-0.4 0-0.6 0.3-0.6 0.7-0.1 0-0.1 0.1-0.1 0.3-0.3 0.2-0.6 0.5-0.9 0.8-0.1 0-0.3 0-0.4-0.1-0.1 0.2-0.3 0.3-0.5 0.4-0.5-0.3-1-0.3-1.5-0.1-0.3 0.3-0.3 0.6-0.1 0.9-0.3 0.2-0.5 0.2-0.8-0.1-0.3 0.1-0.6 0.3-0.7 0.6-0.5-0.1-0.9 0.1-1.2 0.5-0.5 0.1-0.9 0.3-1.2 0.8 0.4 0.7 0.3 1-0.5 1.1 0.1-0.2 0-0.3-0.1-0.3-0.2 0.2-0.4 0.3-0.7 0.3v0.4c-0.1-0.1-0.2-0.2-0.1-0.3v-0.7c0.2 0 0.3 0 0.5 0.1 0.1 0 0.2-0.1 0.3-0.2-0.2-0.2-0.5-0.3-0.8-0.3 0.4-0.1 0.8-0.1 1.2-0.1l-0.1-0.1c0.2-0.1 0.3-0.3 0.3-0.5 1.6-0.7 3-1.6 4.2-2.8 0.1 0.2 0.3 0.3 0.5 0.2 0.2-0.1 0.2-0.3-0.1-0.4 0.2-0.2 0.4-0.3 0.6-0.1 0-0.3 0.2-0.6 0.4-0.7-0.2 0.3-0.2 0.6 0 1 0.1-0.3 0.2-0.6 0.3-0.8 0.2 0 0.5 0 0.7-0.1-0.1-0.1-0.2-0.2-0.3-0.3h0.6c-0.1 0.2 0 0.4 0.1 0.6 0.2-0.2 0.3-0.5 0.3-0.8 0.1 0 0.3-0.1 0.4-0.1 0.2-0.3 0.4-0.6 0.6-0.8z"></path><path fill="#d9a834" d="m27.6 23.8c0.3 0.1 0.3 0.2 0.2 0.5-0.2 0.1-0.4 0.1-0.6 0 0.2-0.1 0.4-0.2 0.4-0.5z"></path><path fill="#db5b06" d="m12.4 26.2l1.9 0.6c0.6 0.3 1.3 0.5 2.1 0.6 0.1-0.1 0.2 0 0.3 0.1-0.4 0-0.8 0-1.2 0.1-0.1 0.1-0.2 0.2-0.2 0.3 0 0.1-0.1 0.2-0.2 0.2-0.3 0.2-0.5 0.1-0.5-0.3-0.3-0.6-0.7-0.7-1.2-0.3h-0.4v0.4c-0.3 0.1-0.5 0.2-0.8 0.3-0.3 0-0.6-0.1-0.7-0.3-0.2-0.2-0.3-0.3-0.6-0.3 0.1-0.2 0.3-0.3 0.6-0.2 0.2-0.2 0.3-0.4 0.3-0.8 0.3 0 0.5-0.2 0.6-0.4z"></path><path fill="#f3b21f" d="m12.4 26.9c0.3 0.1 0.4 0.2 0.3 0.5-0.8 0.1-0.8 0-0.3-0.5z"></path><path fill="#491507" d="m15.3 27.9c0.3 0 0.6 0 0.9 0.2-0.2 0.1-0.5 0.1-0.8 0.1v0.7h-0.1c-0.2-0.2-0.2-0.5-0.2-0.8 0.1 0 0.2-0.1 0.2-0.2z"></path><path fill="#813406" d="m21.2 27.1c0 0.2-0.1 0.4-0.3 0.5l0.1 0.1c-0.4 0-0.8 0-1.2 0.1l-0.3 0.3c-0.2 0.3-0.2 0.7 0 1.2 0 0.2-0.1 0.2-0.2 0-0.2 0.1-0.3 0.2-0.5 0.2 0.1 0.1 0.1 0.2 0.1 0.4-1.1 0-2.2 0-3.4-0.1-0.3 0-0.5-0.1-0.7-0.3 0.3-0.1 0.5-0.3 0.5-0.6h0.1c0 0.2 0.2 0.3 0.4 0.3 0.1-0.1 0.3-0.2 0.4-0.2 0.1 0.2 0 0.3-0.1 0.4 0.1 0 0.2 0.1 0.4 0.2 0.4-0.4 0.7-0.9 0.9-1.5 0.3-0.2 0.6-0.3 1-0.3 0.1-0.1 0.2-0.2 0.2-0.3 0.9-0.1 1.7-0.2 2.6-0.4z"></path><path fill="#edbe2a" d="m14.4 28.5c-0.2 0-0.4-0.1-0.4-0.3 0.1 0 0.3-0.1 0.4-0.1 0.2 0.1 0.2 0.2 0 0.4z"></path><path fill="#311408" d="m19.8 27.8c0.3 0 0.6 0.1 0.8 0.3-0.1 0.1-0.2 0.2-0.3 0.2-0.2-0.1-0.3-0.1-0.5-0.1v0.7c-0.3-0.2-0.4-0.5-0.3-0.8l0.3-0.3z"></path><path fill="#290c02" d="m26.8 26.8c-0.9 0.7-1.8 1.3-2.7 2-1.1 0.5-2.3 0.9-3.5 1.2-1.4 0.2-2.8 0.2-4.2 0.1 0.9 0 1.7-0.1 2.5-0.2h0.7c3.9-0.6 6.9-2.6 8.9-5.9 0-0.2 0-0.3 0.1-0.3 0.1 0 0.2-0.1 0.2-0.1 0.1 0.2 0.1 0.4-0.1 0.7-0.6 0.8-1.2 1.7-1.9 2.5z"></path><path fill="#25120c" d="m33.3 27.1c-2.6 4.3-6.4 7-11.3 8.1h-0.7v-0.4c0.4 0.1 0.7 0 1-0.4 0.5-0.1 0.9-0.3 1.2-0.6 0.4 0.1 0.8 0 1.2-0.3 0.2-0.1 0.2-0.2 0-0.4-0.2-0.2-0.3-0.1-0.4 0.2 0-0.3-0.1-0.5 0-0.7 0.2-0.1 0.4 0 0.7 0.1-0.2 0.1-0.2 0.3 0 0.4 0.2 0.1 0.4 0.2 0.6 0.3 0.3-0.4 0.2-0.7-0.2-0.9 0.7-0.5 0.7-0.7-0.2-0.7 0.8-0.2 1.4-0.7 1.9-1.4 0.2 0 0.4-0.1 0.7-0.2 0.1-0.1 0.1-0.3 0.1-0.5 0.5 0.1 0.8-0.1 0.9-0.5 0.5 0 0.9-0.2 1.2-0.6l0.1 0.3c0.1-0.4 0.3-0.5 0.6-0.3-0.2 0.3-0.5 0.6-1 0.7l0.3 0.2c0.2-0.3 0.5-0.4 0.9-0.3 0.1-0.4 0.4-0.7 0.7-1-0.2-0.1-0.3-0.3-0.2-0.6 0.1 0.2 0.2 0.3 0.5 0.3l0.5-1.3h0.4c0-0.2 0-0.3 0.2-0.5 0.1 0 0.1 0.1 0.2 0.1 0-0.1 0.1-0.3 0.2-0.4l0.1 0.2c-0.1 0.4-0.2 0.7-0.2 1.1z" opacity=".983"></path><path fill="#fc6d01" d="m9.5 27.4c0.4 0.1 0.6 0.3 0.8 0.7-1 0.8-2 1.7-3.1 2.6-0.1 0-0.1-0.1-0.1-0.3-0.1-0.2-0.1-0.4-0.1-0.7-0.1 0.2-0.3 0.2-0.5 0.2v-0.4h0.6c0.3-0.5 0.6-1 1.1-1.3 0.6-0.1 1-0.4 1.3-0.8z"></path><path fill="#9c3f08" d="m16.7 27.5h1.9c0 0.1-0.1 0.2-0.2 0.3-0.4 0-0.7 0.1-1 0.3-0.2 0.6-0.5 1.1-0.9 1.5-0.2-0.1-0.3-0.2-0.4-0.2 0.1-0.1 0.2-0.2 0.1-0.4 0.2-0.2 0.2-0.3 0-0.5-0.4 0.1-0.5 0.3-0.4 0.7-0.2 0-0.4-0.1-0.4-0.3v-0.7c0.3 0 0.6 0 0.8-0.1-0.3-0.2-0.6-0.2-0.9-0.2 0-0.1 0.1-0.2 0.2-0.3 0.4-0.1 0.8-0.1 1.2-0.1z"></path><path fill="#2e0e03" d="m17.5 28.2c1.1 0.1 1.1 0.2 0 0.3 0 0.2 0 0.4-0.1 0.7-0.2-0.4-0.2-0.7 0.1-1z"></path><path fill="#602606" d="m25.5 25.4c0.3 0.1 0.6 0.2 0.9 0.1 0 0.2 0 0.3-0.2 0.4 0-0.1 0-0.2 0-0.2-0.6 0.2-0.6 0.4-0.1 0.5-0.3 0.7-0.7 1.1-1.4 1.2l-0.3 0.6c-0.5 0-1 0.1-1.5 0.3 0.1 0.2 0.1 0.3 0 0.5-0.1-0.2-0.3-0.2-0.5-0.2 0.3-0.2 0.3-0.4 0.2-0.7-0.2 0.2-0.4 0.4-0.6 0.6 0.1 0.1 0.2 0.1 0.3 0.1-0.4 0.3-0.9 0.5-1.4 0.4v0.5c-0.5-0.1-1 0-1.3 0.4h-0.7c0-0.2 0-0.3-0.1-0.4 0.2 0 0.3-0.1 0.5-0.2 0.1 0.2 0.2 0.2 0.2 0-0.2-0.5-0.2-0.9 0-1.2-0.1 0.3 0 0.6 0.3 0.8-0.1 0.1 0 0.2 0.1 0.3 0.4 0 0.6-0.2 0.8-0.4 0.8-0.1 0.9-0.4 0.5-1.1 0.3-0.5 0.7-0.7 1.2-0.8 0.3-0.4 0.7-0.6 1.2-0.5 0.1-0.3 0.4-0.5 0.7-0.6 0.3 0.3 0.5 0.3 0.8 0.1 0.2-0.1 0.4-0.3 0.4-0.5z"></path><path fill="#d09b35" d="m22.4 28.6h-0.1c-0.1 0-0.2 0-0.3-0.1 0.2-0.2 0.4-0.4 0.6-0.6 0.1 0.3 0.1 0.5-0.2 0.7z"></path><path fill="#3f190a" d="m21.9 27.2c1 0.2 1 0.4 0.1 0.7-0.2 0.6-0.4 0.6-0.6 0 0.1-0.3 0.2-0.5 0.5-0.7z" opacity=".996"></path><path fill="#dfb031" d="m24.4 26.9c0.2 0.3 0.1 0.5-0.2 0.6l-0.2-0.1c0.2-0.2 0.3-0.3 0.4-0.5z"></path><path fill="#2d0e06" d="m23.6 26.4c0.3-0.2 0.5-0.2 0.8 0l-0.6 0.2c0.1 0.2 0 0.4-0.2 0.6-0.2-0.3-0.2-0.6 0-0.8z"></path><path fill="#c55006" d="m13.4 27.5c-0.2 0.3-0.1 0.6 0.2 0.8 0-0.3 0.2-0.5 0.4-0.7 0.1 0.2 0.1 0.4 0 0.6 0 0.2 0.2 0.3 0.4 0.3 0.2 0 0.3 0.2 0.3 0.4-0.6 0.2-1.2 0.2-1.8 0-0.6-0.3-1.2-0.6-1.7-1h0.3c0.1 0.2 0.4 0.3 0.7 0.3 0.3-0.1 0.5-0.2 0.8-0.3v-0.4h0.4z"></path><path fill="#4e2005" d="m28.5 24c-2 3.3-5 5.3-8.9 5.9 0.3-0.4 0.8-0.5 1.3-0.4v-0.5c0.5 0.1 1-0.1 1.4-0.4h0.1c0.2 0 0.4 0 0.5 0.2 0.1-0.2 0.1-0.3 0-0.5 0.5-0.2 1-0.3 1.5-0.3l0.3-0.6c0.7-0.1 1.1-0.5 1.4-1.2l0.1-0.3c0.2-0.1 0.2-0.2 0.2-0.4-0.3 0.1-0.6 0-0.9-0.1 0.2-0.1 0.5-0.2 0.7-0.2-0.3-0.2-0.6-0.3-1-0.2 0.5-0.2 1-0.2 1.5 0.1 0.2-0.1 0.4-0.2 0.5-0.4 0.1 0.1 0.3 0.1 0.4 0.1 0.3-0.3 0.6-0.6 0.9-0.8z"></path><path fill="#da5a05" d="m9.4 26.9l1.5 1.2c0.4 0.2 0.7 0.4 1 0.7l0.1 0.2c-0.6 0.3-1.2 0.8-1.7 1.4-0.1 0-0.3 0.1-0.5 0v0.5c-0.2-0.1-0.3 0-0.4 0-0.3 0.3-0.6 0.6-1 0.8-0.3-0.3-0.5-0.2-0.6 0.3h-0.4c0-0.2 0-0.4 0.1-0.6-0.2-0.2-0.5-0.4-0.7-0.5-0.2 0.2-0.3 0.2-0.4 0.1l0.1-0.3c0.2-0.1 0.4-0.2 0.6-0.3 0 0.2 0 0.3 0.1 0.3 0.2 0.1 0.4 0.1 0.6 0.2-0.2 0.2-0.1 0.3 0.1 0.4 0.8-0.6 1.7-1.1 2.6-1.6 0.1-0.2 0.1-0.3 0-0.5 0.3-0.2 0.6-0.3 0.8-0.6-0.3-0.2-0.6-0.4-1-0.5-0.2-0.4-0.4-0.6-0.8-0.7-0.1-0.2-0.1-0.3-0.1-0.5z"></path><path fill="#e3b321" d="m16.2 29c-0.1 0-0.3 0.1-0.4 0.2-0.1-0.4 0-0.6 0.4-0.7 0.2 0.2 0.2 0.3 0 0.5z"></path><path fill="#a84608" d="m14 27.6l0.6 0.2c0 0.4 0.2 0.5 0.5 0.3 0 0.3 0 0.6 0.2 0.8 0 0.3-0.2 0.5-0.5 0.6-0.7 0-1.3-0.2-1.9-0.6 0.6 0.2 1.2 0.2 1.8 0 0-0.2-0.1-0.4-0.3-0.4 0.2-0.2 0.2-0.3 0-0.4-0.1 0-0.3 0.1-0.4 0.1 0.1-0.2 0.1-0.4 0-0.6z"></path><path fill="#dd7a15" d="m5.1 28.5c0 0.1 0 0.3-0.1 0.4 0.1 0.4 0.3 0.4 0.4 0 0.1 0.1 0.3 0.1 0.4 0.1 0 0.3 0 0.6 0.3 0.9l-0.1 0.3c0.1 0 0.3 0 0.5 0-0.1 0.2-0.1 0.4 0 0.5l-0.1 0.3c-0.2 0-0.5-0.1-0.7-0.1-0.2 0-0.4-0.1-0.4-0.3-0.3-0.5-0.7-0.9-1.2-1.3 0-0.2-0.1-0.4-0.2-0.5 0.2-0.3 0.5-0.5 0.8-0.6 0 0.1 0.1 0.3 0.2 0.4 0 0 0.1-0.1 0.2-0.1z"></path><path fill="#eb5d02" d="m10.3 28.1c0.4 0.1 0.7 0.3 1 0.5-0.2 0.3-0.5 0.4-0.8 0.6 0.1 0.2 0.1 0.3 0 0.5-0.9 0.5-1.8 1-2.6 1.6-0.2-0.1-0.3-0.2-0.1-0.4-0.2-0.1-0.4-0.1-0.6-0.2 1.1-0.9 2.1-1.8 3.1-2.6z"></path><path fill="#be8320" d="m20.7 28.8c-0.2 0.2-0.4 0.4-0.8 0.4v-0.4c0.3 0 0.5-0.1 0.7-0.3 0.1 0 0.2 0.1 0.1 0.3z"></path><path fill="#c89221" d="m18.2 28.8c0.1-0.1 0.2 0 0.3 0.1-0.1 0.5-0.4 0.7-0.9 0.4 0.2-0.2 0.4-0.4 0.6-0.5z"></path><path fill="#dcbd5a" d="m4.1 29.3c0.5 0.4 0.9 0.8 1.2 1.3-0.5-0.4-0.9-0.8-1.2-1.3z" opacity=".086"></path><path fill="#c84b02" d="m12 29c0.3 0.2 0.5 0.4 0.7 0.7-0.9 0.8-1.9 1.5-2.9 2.2-0.2-0.2-0.2-0.1 0 0.2-0.2 0-0.3 0.1-0.3 0.3h-0.4v-0.4h-0.6c-0.2-0.1-0.4-0.1-0.7 0 0.1-0.5 0.3-0.6 0.6-0.3 0.4-0.2 0.7-0.5 1-0.8 0.1 0 0.2-0.1 0.4 0v-0.5c0.2 0.1 0.4 0 0.5 0 0.5-0.6 1.1-1.1 1.7-1.4z"></path><path fill="#b74302" d="m11.9 28.8c0.6 0.2 1.2 0.5 1.8 0.8 0 0.3-0.2 0.5-0.6 0.5 0.2 0.2 0.1 0.3-0.1 0.4-0.7 0.3-1.2 0.7-1.7 1.3-0.6 0.1-1.2 0.4-1.8 0.6 0-0.2 0.1-0.3 0.3-0.3-0.2-0.3-0.2-0.4 0-0.2 1-0.7 2-1.4 2.9-2.2-0.2-0.3-0.4-0.5-0.7-0.7l-0.1-0.2z"></path><path fill="#7d3406" d="m14.1 29.7c1.1 0.3 2.2 0.5 3.3 0.7 0 0.4 0 0.8 0 1.2h-0.6c0.1-0.1 0.3-0.2 0.4-0.2-0.3-0.1-0.6-0.1-0.8 0.2-0.2 0.2-0.2 0.4 0 0.5v0.3c-0.1 0-0.2 0-0.3-0.1-0.1-0.5-0.3-0.9-0.6-1.2-0.2-0.1-0.4-0.1-0.5 0h-0.4c0.1-0.1 0.1-0.2-0.1-0.2-0.3 0-0.5 0.2-0.6 0.4-0.1-0.2-0.1-0.3-0.2-0.4 0.8-0.2 1-0.6 0.4-1.2z"></path><path fill="#a44005" d="m13.7 29.6c0.2 0 0.3 0 0.4 0.1 0.6 0.6 0.4 1-0.4 1.2 0.1 0.1 0.1 0.2 0.2 0.4h-0.2c-0.3 0-0.5 0-0.8 0.2-0.7 0.3-1.2 0.8-1.6 1.5l-0.2-0.3c-0.6 0.1-0.9 0.4-1.1 1-0.1-0.2-0.1-0.4-0.1-0.6h-0.4c0-0.5-0.2-0.5-0.4-0.1 0 0.1 0.1 0.1 0.3 0.2-0.2 0-0.3 0.1-0.3 0.2-0.2-0.1-0.4-0.3-0.6-0.4-0.1-0.2-0.2-0.4-0.4-0.4 0.1-0.3 0.2-0.5 0.4-0.6h0.6v0.4h0.4c0.6-0.2 1.2-0.5 1.8-0.6 0.5-0.6 1-1 1.7-1.3 0.2-0.1 0.3-0.2 0.1-0.4 0.4 0 0.6-0.2 0.6-0.5z"></path><path fill="#5a2407" d="m10.9 28.1c0-0.1 0-0.2 0.1-0.2h0.2c0.5 0.4 1.1 0.7 1.7 1 0.6 0.4 1.2 0.6 1.9 0.6 0.2 0.2 0.4 0.3 0.7 0.3 1.2 0.1 2.3 0.1 3.4 0.1-0.8 0.1-1.6 0.2-2.5 0.2 1.4 0.1 2.8 0.1 4.2-0.1 0.4 0.1 0.8 0.2 1.3 0.2l-0.2 0.8v0.1c-0.2 0.1-0.4 0-0.5-0.2 0 0.4-0.1 0.4-0.2 0.1-0.3 0.1-0.4 0.3-0.4 0.6-0.3 0-0.6 0-0.8-0.1-0.2-0.1-0.2-0.3-0.2-0.5h-0.4v1.3c0 0.1 0 0.3-0.1 0.4-0.2-0.2-0.3-0.4-0.5-0.6l0.3-0.2c-0.2-0.2-0.3-0.2-0.5 0.1-0.3-0.3-0.6-0.5-1-0.4 0-0.4 0-0.8 0-1.2-1.1-0.2-2.2-0.4-3.3-0.7-0.1-0.1-0.2-0.1-0.4-0.1-0.6-0.3-1.2-0.6-1.8-0.8-0.3-0.3-0.6-0.5-1-0.7z"></path><path fill="#d29d3d" d="m14.6 31.1c-0.4 0.1-0.6 0.3-0.6 0.6-0.1 0-0.1 0.1-0.1 0.2-0.2-0.2-0.2-0.4-0.2-0.6h0.2c0.1-0.2 0.3-0.4 0.6-0.4 0.2 0 0.2 0.1 0.1 0.2z"></path><path fill="#481805" d="m14.6 31.1h0.4c0.5 0 0.6 0.3 0.4 0.8-0.2-0.2-0.5-0.4-0.7-0.6-0.4 0-0.6 0.3-0.6 0.6 0.1 0.3 0.1 0.5 0.2 0.8 0.2 0.2 0.4 0.2 0.5 0 0.2-0.1 0.3-0.1 0.3-0.3 0.1-0.1 0.2-0.1 0.3 0-0.1 0.3-0.2 0.5-0.4 0.7-0.3 0-0.7-0.1-1-0.3-0.1-0.4-0.1-0.7 0-1.1 0-0.3 0.2-0.5 0.6-0.6z"></path><path fill="#c66c1d" d="m5.7 30.9c0.2 0 0.5 0.1 0.7 0.1 0.1 0.1 0.2 0.1 0.4-0.1 0.2 0.1 0.5 0.3 0.7 0.5-0.1 0.2-0.1 0.4-0.1 0.6h0.4c0.3-0.1 0.5-0.1 0.7 0-0.2 0.1-0.3 0.3-0.4 0.6 0.2 0 0.3 0.2 0.4 0.4-1.1-0.5-2-1.2-2.8-2.1z"></path><path fill="#cb9b41" d="m16.8 31.6c-0.2 0.1-0.4 0.3-0.4 0.5-0.2-0.1-0.2-0.3 0-0.5 0.2-0.3 0.5-0.3 0.8-0.2-0.1 0-0.3 0.1-0.4 0.2z"></path><path fill="#8f3b08" d="m13.7 31.3c0 0.2 0 0.4 0.2 0.6 0 0.1-0.1 0.2-0.2 0.2-0.2 0.1-0.3 0.3-0.3 0.5-0.1-0.2-0.1-0.3-0.3-0.5-0.1 0.3-0.1 0.6 0 0.8-0.4 0.2-0.9 0.5-1.4 0.6-0.3-0.2-0.4-0.1-0.5 0.2-0.3 0.1-0.6 0.2-0.9 0.3-0.4-0.2-0.8-0.4-1.2-0.6 0-0.1 0.1-0.2 0.3-0.2-0.2-0.1-0.3-0.1-0.3-0.2 0.2-0.4 0.4-0.4 0.4 0.1h0.4c0 0.2 0 0.4 0.1 0.6 0.2-0.6 0.5-0.9 1.1-1l0.2 0.3c0.4-0.7 0.9-1.2 1.6-1.5 0.3-0.2 0.5-0.2 0.8-0.2z"></path><path fill="#7b3408" d="m13.7 32.1c-0.1 0.5 0.1 0.8 0.4 1.1l-0.8 0.6 0.1 0.1c-0.1 0.3-0.2 0.5-0.3 0.8-0.1-0.3-0.1-0.5-0.2-0.7-0.2 0.3-0.3 0.5-0.5 0.8-0.4-0.3-0.9-0.5-1.5-0.6-0.2 0-0.4-0.1-0.6-0.2 0.3-0.1 0.6-0.2 0.9-0.3 0.1-0.3 0.2-0.4 0.5-0.2 0.5-0.1 1-0.4 1.4-0.6-0.1-0.2-0.1-0.5 0-0.8 0.2 0.2 0.2 0.3 0.3 0.5 0-0.2 0.1-0.4 0.3-0.5z"></path><path fill="#39190b" d="m20.6 31.6c0 0.6 0 1.3 0.1 1.9 0.2 0 0.3 0.1 0.5 0.2-0.2 0.4-0.4 0.4-0.5 0.1-0.1 0.2-0.3 0.4-0.4 0.6-0.3 0.8-0.1 1.1 0.7 0.9-0.5-0.1-0.7-0.4-0.5-0.8 0.3-0.1 0.6-0.2 0.9-0.4 0.4 0.3 0.4 0.4 0 0.3-0.1 0.1-0.1 0.2-0.2 0.3 0 0.1 0 0.1 0.1 0.1v0.4h0.7c-1.7 0.5-3.5 0.6-5.3 0.4 0 0 0-0.1 0.1-0.1 0.6 0.1 1.2 0 1.8-0.3l0.4 0.2c0.2-0.4 0.2-0.8-0.1-1.1 0.1-0.3 0.3-0.5 0.6-0.5-0.2-0.2-0.3-0.4-0.4-0.5 0.2-0.4 0.3-0.7 0.1-1v-1.3h0.4c0 0.2 0 0.4 0.2 0.5 0.2 0.1 0.5 0.1 0.8 0.1z"></path><path fill="#a28d3c" d="m21.6 32c0.3 0.1 0.3 0.2 0.1 0.4-0.1-0.1-0.1-0.2-0.1-0.4z" opacity=".984"></path><path fill="#652908" d="m15 31.1c0.1-0.1 0.3-0.1 0.5 0 0.3 0.3 0.5 0.7 0.6 1.2 0.1 0.1 0.2 0.1 0.3 0.1v0.3c-0.1 0.1-0.2 0.1-0.2 0.3 0.2 0.2 0.3 0.4 0.3 0.7l-0.2-0.2c-0.3 0.2-0.6 0.4-0.9 0.7 0.1 0.3 0.2 0.4 0.4 0.2 0.1 0.3 0.1 0.6 0 1-0.1-0.7-0.3-0.8-0.6-0.2-0.1-0.1-0.1-0.2-0.2-0.3-0.4 0.4-0.8 0.4-1.2 0-0.1 0.1-0.3 0.1-0.4 0.2-0.3 0-0.7-0.1-1-0.3 0.2-0.3 0.3-0.5 0.5-0.8 0.1 0.2 0.1 0.4 0.2 0.7 0.1-0.3 0.2-0.5 0.3-0.8l-0.1-0.1 0.8-0.6c-0.3-0.3-0.5-0.6-0.4-1.1 0.1 0 0.2-0.1 0.2-0.2 0-0.1 0-0.2 0.1-0.2-0.1 0.4-0.1 0.7 0 1.1 0.3 0.2 0.7 0.3 1 0.3 0.2-0.2 0.3-0.4 0.4-0.7-0.1-0.1-0.2-0.1-0.3 0 0-0.1 0-0.1-0.1-0.1-0.1 0.1-0.3 0.2-0.4 0.3 0 0.1 0.1 0.1 0.2 0.1-0.1 0.2-0.3 0.2-0.5 0-0.1-0.3-0.1-0.5-0.2-0.8 0-0.3 0.2-0.6 0.6-0.6 0.2 0.2 0.5 0.4 0.7 0.6 0.2-0.5 0.1-0.8-0.4-0.8z"></path><path fill="#bba048" d="m15.1 32.4c0 0.2-0.1 0.2-0.3 0.3-0.1 0-0.2 0-0.2-0.1 0.1-0.1 0.3-0.2 0.4-0.3 0.1 0 0.1 0 0.1 0.1z" opacity=".984"></path><path fill="#431b07" d="m16.8 31.6h0.6c0.4-0.1 0.7 0.1 1 0.4 0.2-0.3 0.3-0.3 0.5-0.1l-0.3 0.2c0.2 0.2 0.3 0.4 0.5 0.6 0.1-0.1 0.1-0.3 0.1-0.4 0.2 0.3 0.1 0.6-0.1 1 0.1 0.1 0.2 0.3 0.4 0.5-0.3 0-0.5 0.2-0.6 0.5 0.3 0.3 0.3 0.7 0.1 1.1l-0.4-0.2c-0.6 0.3-1.2 0.4-1.8 0.3 0.1-0.3 0.2-0.6 0.3-0.9-0.2 0-0.3-0.1-0.4-0.2 0.3-0.1 0.5-0.3 0.7-0.6-0.5-0.3-0.8-0.7-1-1.1v-0.6c0-0.2 0.2-0.4 0.4-0.5z"></path><path fill="#b1963d" d="m17.8 32.6c-0.1 0.5-0.4 0.6-0.9 0.4 0.4-0.1 0.7-0.3 0.8-0.6 0.1 0 0.1 0.1 0.1 0.2z" opacity=".984"></path><path fill="#5f2808" d="m17.8 32.6c0-0.1 0-0.2-0.1-0.2-0.1 0.3-0.4 0.5-0.8 0.6-0.5-1.2-0.1-1.5 1-1 0.1 0.2 0 0.4-0.1 0.6z"></path><path fill="#4f200a" d="m16.4 32.7c0.2 0.4 0.5 0.8 1 1.1-0.2 0.3-0.4 0.5-0.7 0.6 0.1 0.1 0.2 0.2 0.4 0.2-0.1 0.3-0.2 0.6-0.3 0.9-0.1 0-0.1 0.1-0.1 0.1-1.2 0.1-2.2-0.1-3.3-0.5 0.1-0.1 0.3-0.1 0.4-0.2 0.4 0.4 0.8 0.4 1.2 0 0.1 0.1 0.1 0.2 0.2 0.3 0.3-0.6 0.5-0.5 0.6 0.2 0.1-0.4 0.1-0.7 0-1-0.2 0.2-0.3 0.1-0.4-0.2 0.3-0.3 0.6-0.5 0.9-0.7l0.2 0.2c0-0.3-0.1-0.5-0.3-0.7 0-0.2 0.1-0.2 0.2-0.3z" opacity=".996"></path><path fill="#764d39" d="m10.9 34.2c0.6 0.1 1.1 0.3 1.5 0.6-0.5-0.1-1-0.3-1.5-0.6z" opacity=".118"></path></svg>