<?xml version="1.0"?><svg xmlns="http://www.w3.org/2000/svg" width="36" height="36" shape-rendering="geometricPrecision" text-rendering="geometricPrecision" image-rendering="optimizeQuality" fill-rule="evenodd" clip-rule="evenodd" viewBox="0 0 36 36"><path fill="#09070c" d="m0.1-0.1h21.3c-0.1 0.3-0.2 0.6-0.5 0.7-0.2-0.3-0.4-0.3-0.5 0.1 0.2 0 0.3 0.1 0.2 0.3 0.2 0.2 0.3 0.4 0.4 0.6-0.1 0.2-0.3 0.1-0.4-0.1l-0.1 0.4c-0.2-0.7-0.6-0.8-1.1-0.4 0.1 0.3 0.2 0.6 0.5 0.8 0.2 0.1 0.3 0.1 0.5 0 0 0.1 0 0.2 0.1 0.3 0.1 0 0.2 0 0.3-0.1 0.1 0.2 0.3 0.3 0.5 0.3-0.1 0.1-0.2 0.2-0.4 0.2 0.2 0.3 0.4 0.5 0.7 0.7 0.1 0 0.1 0.2 0.1 0.3 0.2 0 0.3 0 0.4 0.1l0.2-0.4c0.3 0.1 0.5 0.2 0.7 0.2l0.5 0.7c0.6 0.1 0.9 0.3 0.8 0.9 0.2-0.1 0.3 0 0.5 0.1-0.1 0-0.1 0.1-0.2 0.1 0.2 0.2 0.3 0.3 0.4 0.5 0.2 0.3 0.5 0.3 0.8 0.2l-0.3-0.3c0.8-0.2 1.4-0.6 2-1.2-0.2-0.1-0.4-0.2-0.6-0.3-0.2-0.2-0.1-0.3 0.1-0.3-0.1-0.1-0.1-0.3-0.2-0.4-0.2 0-0.5 0-0.7-0.2 0.2-0.1 0.3-0.3 0.2-0.5-0.1 0-0.2 0-0.3-0.1 0.1 0 0.2-0.1 0.3-0.3-0.2-0.4-0.1-0.4 0.3-0.2l-0.2 0.1c0.2 0 0.3 0.1 0.4 0.2 0.1-0.2 0-0.3-0.1-0.4 0.1-0.1 0.3-0.3 0.4-0.5 0.1 0.1 0.1 0.3-0.1 0.4 0.1 0.1 0.1 0.3 0.2 0.5 0-0.2 0.1-0.4 0.3-0.6l-0.2-0.2c0.3-0.1 0.5-0.3 0.7-0.5 0 0.2 0 0.4 0 0.6l0.3-0.3c0.1 0.4 0.3 0.3 0.3-0.2 0.3 0.3 0.5 0.3 0.8 0 0.1 0.2 0.1 0.3 0.1 0.5 0.2 0 0.3 0 0.5 0.1l0.1-0.4c0 0.2 0.1 0.5 0.2 0.7 0.1-0.1 0.2-0.2 0.4-0.2 0 0.5 0.3 0.9 0.7 1 0.3-0.2 0.5-0.2 0.8 0l0.3 0-0.5-0.4 0.3-0.1c-0.1 0-0.1-0.1 0-0.1 0.1 0 0.1 0.1 0.2 0.2 0-0.1 0-0.3 0.1-0.4 0.1 0.1 0.1 0.3 0 0.4 0.2 0.1 0.3 0.1 0.5 0l0.1 0.1-0.2 0.2c0.1 0.1 0.3 0.2 0.4 0.4 0.1-0.1 0.2-0.2 0.3-0.3 0.1 0.2 0.3 0.2 0.4 0 0.1-0.3 0.2-0.6 0.3-0.9 0 0.1 0.1 0.2 0.1 0.4 0.2 0.1 0.3 0.1 0.5 0.1-0.2 0.1-0.4 0.2-0.6 0.3 0.3 0.1 0.3 0.3 0.1 0.5 0.5 0.3 0.4 0.4-0.1 0.2-0.1 0.2-0.1 0.3 0 0.4 0.2 0.2 0.5 0.3 0.7 0.2-0.1 0.3 0 0.5 0.2 0.6 0.3-0.2 0.3-0.4 0-0.6 0.2-0.1 0.3-0.1 0.5-0.2v2.2c-0.1-0.1-0.2-0.1-0.3-0.1-0.1 0.1-0.2 0.2-0.2 0.3l-0.2-0.2c-0.1 0.1-0.2 0.1-0.3 0 0 0.1 0 0.2 0.1 0.3-0.1 0.1-0.1 0.2-0.3 0.2 0 0.4-0.1 0.4-0.3 0.2-0.1 0.1-0.1 0.2 0 0.3l-0.2 0.2c0.2 0 0.4 0 0.5 0 0.1 0.2 0.1 0.4 0.2 0.5-0.3 0.2-0.6 0.4-0.8 0.5l-0.1 0.5c0-0.2-0.1-0.3-0.3-0.4 0 0.4-0.2 0.6-0.4 0.8-0.1-0.3-0.3-0.3-0.5-0.1 0.1 0.2 0.2 0.4 0.2 0.7l0.2 0.2c0.2-0.3 0.5-0.4 0.8-0.2-0.2 0.1-0.4 0.2-0.6 0.3-0.1 0.2-0.2 0.3-0.5 0.4 0.2 0.1 0.3 0.2 0.2 0.3-0.2-0.1-0.4-0.1-0.5 0-0.3-0.1-0.3-0.2 0-0.3l-0.2-0.1c-0.7 0.2-0.7 0-0.1-0.4-0.2-0.1-0.2-0.2 0-0.3-0.2 0-0.4 0-0.6 0.1-0.2-0.2-0.3-0.5-0.2-0.7l-0.2 0.2-0.2-0.2c0 0.1-0.1 0.2-0.1 0.2l-0.1-0.1c-0.1 0.2-0.2 0.3-0.3 0.4 0.1 0.2 0 0.2-0.2 0.2-0.2-1-0.3-1.9-0.4-2.9l-0.1-0.1c0 0.4-0.1 0.4-0.3 0 0.1-0.2 0.1-0.3-0.1-0.4-0.2 0.2-0.4 0.3-0.6 0.3 0.2 0 0.3 0.1 0.4 0.2-1.7 0-3.5 0-5.2-0.1-1.8-3.2-4.4-4.4-8-3.7-1 0.3-2 0.7-2.8 1.4-1-0.5-2-1-3-1.4-0.6-0.2-1.3-0.2-2-0.1-0.3 0.1-0.5 0.3-0.6 0.6-0.2 0.7 0 1.4 0.4 1.9 0.9 0.9 1.8 1.8 2.8 2.5-2.7 1.6-4.8 3.8-6.1 6.6-0.2 0.5-0.3 0.9-0.4 1.4-0.2 0.2-0.3 0.5-0.3 0.8-0.1 0.4-0.2 0.8-0.2 1.3-0.1 1.2-0.1 2.3 0 3.4 0.8 4.8 3.4 8.2 7.8 10.3-0.3 0-0.6 0.1-0.9 0.3-0.5 0-1 0.2-1.4 0.5-0.2 0.4-0.1 0.8 0.3 1.1 5.1 0.1 10.3 0.1 15.5-0.1 0.3 0.1 0.6 0.4 0.7 0.9-0.2 0.2-0.4 0.4-0.6 0.5-0.2-0.1-0.3-0.1-0.5 0.1 0-0.2 0-0.3-0.1-0.4-0.1 0.2-0.3 0.2-0.5 0 0.1-0.1 0.2-0.2 0.3-0.4-0.2-0.1-0.3 0-0.4 0.1-0.2 0.1-0.4 0-0.5-0.2-0.1 0.1-0.1 0.2 0 0.3l-0.7 0.1c-0.3 0.4-0.8 0.6-1.3 0.6-0.3-0.2-0.5-0.1-0.7 0.1-0.1-0.1-0.1-0.1-0.2-0.2-0.1 0.1-0.1 0.2 0 0.3h-20.5v-36z"></path><path fill="#0d0a10" d="m21.4-0.1h14.4v4.5c-0.2 0.1-0.3 0.1-0.5 0.2 0.3 0.2 0.3 0.4 0 0.6-0.2-0.1-0.3-0.3-0.2-0.6-0.2 0.1-0.5 0-0.7-0.2-0.1-0.1-0.1-0.2 0-0.4 0.5 0.2 0.6 0.1 0.1-0.2 0.2-0.2 0.2-0.4-0.1-0.5 0.2-0.1 0.4-0.2 0.6-0.3-0.2 0-0.3 0-0.5-0.1 0-0.2-0.1-0.3-0.1-0.4-0.1 0.3-0.2 0.6-0.3 0.9-0.1 0.2-0.3 0.2-0.4 0-0.1 0.1-0.2 0.2-0.3 0.3-0.1-0.2-0.3-0.3-0.4-0.4l0.2-0.2-0.1-0.1c-0.2 0.1-0.3 0.1-0.5 0 0.1-0.1 0.1-0.3 0-0.4-0.1 0.1-0.1 0.3-0.1 0.4-0.1-0.1-0.1-0.2-0.2-0.2-0.1 0-0.1 0.1 0 0.1l-0.4 0.1 0.6 0.4-0.3 0c-0.3-0.2-0.5-0.2-0.8 0-0.4-0.1-0.7-0.5-0.7-1-0.2 0-0.3 0.1-0.4 0.2-0.1-0.2-0.2-0.5-0.2-0.7l-0.1 0.4c-0.2-0.1-0.3-0.1-0.5-0.1 0-0.2 0-0.3-0.1-0.5-0.3 0.3-0.5 0.3-0.8 0 0 0.5-0.2 0.6-0.3 0.2l-0.3 0.3c0-0.2 0-0.4 0-0.6-0.2 0.2-0.4 0.4-0.7 0.5l0.2 0.2c-0.2 0.2-0.3 0.4-0.3 0.6-0.1-0.2-0.1-0.4-0.2-0.5 0.2-0.1 0.2-0.3 0.1-0.4-0.1 0.2-0.3 0.4-0.4 0.5 0.1 0.1 0.2 0.2 0.1 0.4-0.1-0.1-0.2-0.2-0.4-0.2l0.2-0.1c-0.4-0.2-0.5-0.2-0.3 0.2-0.1 0.2-0.2 0.3-0.3 0.3 0.1 0.1 0.2 0.1 0.3 0.1 0.1 0.2 0 0.4-0.2 0.5 0.2 0.2 0.5 0.2 0.7 0.2 0.1 0.1 0.1 0.3 0.2 0.4-0.2 0-0.3 0.1-0.1 0.3 0.2 0.1 0.4 0.2 0.5 0.4-0.5 0.5-1.1 0.9-1.9 1.1l0.3 0.3c-0.3 0.1-0.6 0.1-0.8-0.2-0.1-0.2-0.2-0.3-0.4-0.5 0.1 0 0.1-0.1 0.2-0.1-0.2-0.1-0.3-0.2-0.5-0.1 0.1-0.6-0.2-0.8-0.8-0.9l-0.5-0.7c-0.2 0-0.4-0.1-0.7-0.2l-0.2 0.4c-0.1-0.1-0.2-0.1-0.4-0.1 0-0.1 0-0.3-0.1-0.3-0.3-0.2-0.5-0.4-0.7-0.7 0.2 0 0.3-0.1 0.4-0.2-0.2 0-0.4-0.1-0.5-0.3-0.1 0.1-0.2 0.1-0.3 0.1-0.1-0.1-0.1-0.2-0.1-0.3-0.2 0.1-0.3 0.1-0.5 0-0.3-0.2-0.4-0.5-0.6-0.8 0.6-0.4 1-0.3 1.2 0.4l0.1-0.4c0.1 0.2 0.3 0.3 0.4 0.1-0.1-0.2-0.2-0.4-0.4-0.6 0.1-0.2 0-0.3-0.2-0.3 0.1-0.4 0.3-0.4 0.5-0.1 0.3-0.1 0.4-0.4 0.5-0.7z"></path><path fill="#2e232f" d="m26.9 4.6c-0.2 0.8-0.7 1.1-1.6 0.9l-0.3-0.5c0.4-0.4 0.7-0.6 0.9-0.9 0.3 0.3 0.6 0.4 1 0.5z"></path><path fill="#ebebeb" d="m24 7.3c1.7 0.2 3.4 0.3 5.3 0.2 0.1 0.1 0.3 0.3 0.5 0.4 0 0.8 0 1.6-0.2 2.4-0.4 1.5-1.3 2.5-2.7 3.3 0.1 0.1 0.2 0.3 0.4 0.5 0.1 0.5 0.1 0.9 0 1.4-0.1 0.2-0.3 0.3-0.5 0.3-1 0.1-1.9 0-2.8-0.2-0.2-0.1-0.4-0.2-0.6-0.1v0.8c-0.1 0.2-0.1 0.4-0.1 0.6 2.3 0.1 4.7 0.2 7.1 0.2 0.1 0.1 0.2 0.2 0.3 0.2 0.1 1.5 0.2 3.1 0.1 4.7 0 0.8-0.2 1.6-0.4 2.4-1.4 3.5-3.9 6.2-7.5 7.8 0.7 0.2 1.3 0.4 2 0.7 0.1 0.1 0.2 0.2 0.3 0.2 0 0.4 0 0.7-0.1 1-5.2 0.2-10.4 0.2-15.5 0.1-0.4-0.3-0.5-0.7-0.3-1.1 0.5-0.2 0.9-0.3 1.4-0.5 0.3-0.2 0.6-0.3 0.9-0.3-4.4-2.1-7-5.5-7.8-10.3 0-1.6 0.1-3.2 0.2-4.7 0.2-0.3 0.3-0.5 0.3-0.8 0.1-0.5 0.2-0.9 0.4-1.4 1.3-2.8 3.4-5 6.1-6.5-1-0.8-1.9-1.7-2.8-2.6-0.4-0.5-0.6-1.2-0.4-1.9 0.1-0.3 0.3-0.5 0.6-0.6 0.7-0.1 1.4-0.1 2 0.1 1 0.4 2 0.9 3 1.4 0.8-0.7 1.8-1.1 2.8-1.4 3.6-0.7 6.2 0.5 8 3.7z"></path><path fill="#f1eef0" d="m8.9 4.7c1.2 0.2 2.4 0.5 3.6 1 0.2 0.1 0.5 0.3 0.7 0.5-0.3 0.5-0.6 0.9-1 1.2-0.9-0.6-1.7-1.2-2.5-1.8-0.4-0.2-0.6-0.6-0.8-0.9z"></path><path fill="#682b70" d="m19.4 4.9c0.8 0.3 1.6 0.7 2.3 1.2 0.3 0.4 0.6 0.8 0.9 1.2 0.2 0.5 0.4 1.1 0.6 1.6 0.1 0.7 0.1 1.4 0 2.1-0.2-0.4-0.5-0.5-0.9-0.4-0.2-0.9-0.5-1.8-0.9-2.7-0.3 0-0.6-0.2-0.8-0.6-0.2-0.2-0.4-0.3-0.7-0.4-0.1-0.1-0.1-0.2-0.1-0.3-0.2 0-0.4-0.1-0.5-0.2-0.1 0-0.1 0.1-0.2 0.1-0.2-0.2-0.4-0.3-0.5-0.4l-0.5 0.1c-0.1-0.1-0.2-0.2-0.3-0.3-0.3 0.1-0.5 0.3-0.7 0.5-0.3 0-0.5 0.1-0.7 0.2-0.1-0.1-0.1-0.1-0.2-0.1-0.3 0.1-0.5 0.2-0.8 0.4-0.3 0.2-0.7 0.5-1 0.9l0.1 0.1c-0.2 0.1-0.2 0.3-0.2 0.5-0.4-0.1-0.8-0.2-1.1-0.4-0.3 0-0.4-0.1-0.4-0.4 0.6-1.2 1.6-2.1 2.8-2.5 1.3-0.3 2.5-0.4 3.8-0.2z"></path><path fill="#6d3a70" d="m8.7 4.4c0 0 0.1-0.1 0.2-0.1 0.7 0.1 1.3 0.2 1.9 0.5 0.2 0 0.3 0 0.4 0 0.5 0.3 0.9 0.6 1.4 0.8 0 0 0 0.1-0.1 0.1-1.2-0.5-2.4-0.8-3.6-1h-0.1c0.3-0.2 0.2-0.3-0.1-0.3z"></path><path fill="#9e949f" d="m12.6 5.6c0.3 0.2 0.6 0.2 1 0.2-0.1 0.2-0.2 0.3-0.4 0.4-0.2-0.2-0.5-0.4-0.7-0.5 0.1 0 0.1-0.1 0.1-0.1z"></path><path fill="#62286a" d="m22.6 7.3c0.4 0.5 0.7 1.1 0.8 1.8 0.1 1.3 0 2.7-0.5 4-0.1 0.1-0.2 0.2-0.3 0.2-0.7-0.2-1.3-0.5-1.9-0.8-1.5-0.8-3-1.7-4.5-2.4-1.1-0.6-2.1-1.3-3-2.1 0.3 0.2 0.7 0.3 1.1 0.4 0-0.2 0-0.4 0.2-0.5l-0.1-0.1c0.3-0.4 0.7-0.7 1-0.9 0.3-0.2 0.5-0.3 0.8-0.4 0.1 0 0.1 0 0.2 0.1 0.2-0.1 0.4-0.2 0.7-0.2 0.2-0.2 0.4-0.4 0.7-0.5 0.1 0.1 0.2 0.2 0.3 0.3l0.5-0.1c0.1 0.1 0.3 0.2 0.5 0.4 0.1 0 0.1-0.1 0.2-0.1 0.1 0.1 0.3 0.2 0.5 0.2 0 0.1 0 0.2 0.1 0.3 0.3 0.1 0.5 0.2 0.7 0.4 0.2 0.4 0.5 0.6 0.8 0.6 0.4 0.9 0.7 1.8 0.9 2.7 0.4-0.1 0.7 0 0.9 0.4 0.1-0.7 0.1-1.4 0-2.1-0.2-0.5-0.4-1.1-0.6-1.6z"></path><path fill="#29152d" d="m10.8 4.8c-0.6-0.3-1.2-0.4-1.9-0.5-0.1 0-0.2 0.1-0.2 0.1-0.3 0.2-0.3 0.5-0.1 0.7 0.3 0.4 0.6 0.8 1 1.1 2 1.6 4.2 3.2 6.5 4.5-0.2 0.1-0.3 0-0.5 0-0.4-0.3-0.8-0.5-1.2-0.7-0.7-0.4-1.3-0.8-1.9-1.2-0.2 0.7-0.3 1.4-0.3 2.2-0.1-0.3-0.2-0.6-0.2-0.9 0-0.5 0.1-1.1 0.3-1.6h-0.4c-0.8-0.7-1.7-1.5-2.6-2.2-0.4-0.4-0.7-0.9-1-1.4-0.1-0.5 0.1-0.8 0.6-0.8 0.7 0.1 1.4 0.3 1.9 0.7z"></path><path fill="#b895b8" d="m8.7 4.4c0.3 0 0.4 0.1 0.1 0.3-0.1 0.1-0.1 0.3 0 0.4 1.2 1.2 2.4 2.2 3.8 3.1 2.9 1.9 5.9 3.6 9 5.1l0.7 0.4c0 0-0.1 0.1-0.1 0.1-2.1-0.9-4.1-1.9-6.1-3.1-2.3-1.3-4.5-2.9-6.5-4.5-0.4-0.3-0.7-0.7-1-1.1-0.2-0.2-0.2-0.5 0.1-0.7z"></path><path fill="#9c9c9d" d="m24 7.3c1.7 0.1 3.5 0.1 5.3 0.1v0.1c-1.9 0.1-3.6 0-5.3-0.2z"></path><path fill="#787779" d="m23.3 7.6c0.2 0.1 0.2 0.2 0.2 0.4-0.1-0.1-0.2-0.2-0.2-0.4z"></path><path fill="#1d0c21" d="m8.8 4.7h0.1c0.2 0.3 0.4 0.7 0.8 0.9 0.8 0.6 1.6 1.2 2.5 1.8 0.1 0.1 0.2 0.2 0.3 0.4 0.1-0.1 0.2-0.2 0.3-0.2 0 0.3 0.1 0.4 0.4 0.4 0.9 0.8 1.9 1.5 3 2.1 1.5 0.7 3 1.6 4.5 2.4 0.6 0.3 1.2 0.6 1.9 0.8 0 0.1-0.1 0.2-0.2 0.3l-0.7-0.4c-0.1 0-0.1 0.1-0.1 0.1-3.1-1.5-6.1-3.2-9-5.1-1.4-0.9-2.6-1.9-3.8-3.1-0.1-0.1-0.1-0.3 0-0.4z"></path><path fill="#0d090f" d="m23.3 7.6c0 0.2 0.1 0.3 0.2 0.4 1.8 0.1 3.6 0.2 5.5 0.3 0.1 2.4-1 4.1-3.2 4.9-0.4 0.2-0.6 0.2-0.8-0.2 0.5-0.2 0.9-0.4 1.3-0.7 0.6-0.2 1-0.6 1.4-1.1 0.6-0.7 0.9-1.6 0.9-2.6h-4.7c-0.1 0.2 0 0.3 0.1 0.5v2.2l-0.5 1.1c-0.1-0.1-0.2-0.2-0.2-0.3 0.2-0.6 0.2-1.2 0.2-1.8 0-0.4 0-0.8-0.1-1.2-0.1-0.7-0.4-1.3-0.8-1.8-0.3-0.4-0.6-0.8-0.9-1.2-0.7-0.5-1.5-0.9-2.3-1.2-0.1-0.1-0.2-0.1-0.4-0.2-0.9-0.1-1.7-0.1-2.6 0-0.3 0.1-0.6 0.2-0.8 0.4-1.2 0.4-2.2 1.3-2.8 2.5-0.1 0-0.2 0.1-0.3 0.2-0.1-0.2-0.2-0.3-0.3-0.4 0.4-0.3 0.7-0.7 1-1.2 0.2-0.1 0.3-0.2 0.4-0.4 3.1-2.4 6-2.2 8.8 0.4 0.4 0.5 0.6 0.9 0.9 1.4z"></path><path fill="#3d1c44" d="m19.4 4.9c-1.3-0.2-2.5-0.1-3.8 0.2 0.2-0.2 0.5-0.3 0.8-0.4 0.9-0.1 1.7-0.1 2.6 0 0.2 0.1 0.3 0.1 0.3 0.2z"></path><path fill="#49454b" d="m3.5 7.8h0.4v0.6c-0.2 0-0.4 0-0.6-0.1 0-0.1 0.1-0.3 0.2-0.5z"></path><path fill="#422149" d="m27.7 11.2v-0.3c0.5-0.6 0.7-1.4 0.7-2.2h-4.4v0.4c-0.1-0.2-0.2-0.3-0.1-0.5h4.7c0 1-0.3 1.9-0.9 2.6z"></path><path fill="#1b1824" d="m35.8 6.6v4.1c-0.2 0-0.4 0-0.6 0.2 0.1 0.1 0.1 0.2 0.1 0.3-0.3-0.3-0.6-0.3-0.9 0 0-0.3-0.2-0.6-0.4-0.8 0.1 0 0.2 0 0.4 0v-0.3c0.4-0.1 0.7-0.3 0.9-0.5-0.2-0.2-0.5-0.2-0.8-0.2 0.3-0.2 0.4-0.3 0.3-0.6 0.1-0.1 0.2-0.1 0.3-0.1 0-0.2 0-0.5-0.2-0.7 0-0.1 0.1-0.1 0.2 0 0.1-0.1 0.1-0.2 0.1-0.4-0.1 0-0.3 0-0.4 0.1-0.1-0.2-0.2-0.4-0.2-0.6 0.2 0 0.2-0.1 0.3-0.2-0.1-0.1-0.1-0.2-0.1-0.3 0.1 0.1 0.2 0.1 0.3 0l0.2 0.2c0-0.1 0.1-0.2 0.2-0.3 0.1 0 0.2 0 0.3 0.1z"></path><path fill="#602768" d="m27.7 10.9c-0.2 0.1-0.4 0.2-0.6 0.2 0.1 0.2 0.1 0.3-0.2 0.4-0.1 0-0.2-0.1-0.3-0.2-0.7 0-1.4 0-2.1 0.1-0.1-0.1-0.2-0.3-0.2-0.4-0.1-0.7-0.2-1.3-0.3-1.9v-0.4h4.4c0 0.8-0.2 1.6-0.7 2.2z"></path><path fill="#330e38" d="m14.4 10c0.4 0.2 0.8 0.4 1.2 0.7 0.2 0 0.3 0.1 0.5 0 0.1 0.3 0.2 0.5 0.4 0.6-0.5-0.3-1-0.6-1.5-0.8-0.3-0.2-0.5-0.3-0.6-0.5z"></path><path fill="#57235d" d="m24 9.1c0.1 0.6 0.2 1.2 0.3 1.9 0 0.1 0.1 0.3 0.2 0.4 0.7-0.1 1.4-0.1 2.1-0.1 0.1 0.1 0.2 0.2 0.3 0.2 0.3-0.1 0.3-0.2 0.2-0.4 0.2 0 0.4-0.1 0.6-0.2v0.3c-0.4 0.5-0.8 0.9-1.4 1.1-0.4 0.1-0.7 0.2-1 0.4-0.5 0.1-1 0.2-1.4 0.1-0.2-0.3-0.1-0.5 0.3-0.5-0.2-0.3-0.3-0.6-0.2-1v-2.2z"></path><path fill="#5f2666" d="m14.4 10c0.1 0.2 0.3 0.3 0.6 0.5 0.5 0.2 1 0.5 1.5 0.8 1.3 0.7 2.5 1.4 3.8 2-0.1 0.6-0.4 0.9-0.9 0.9l0.2 0.1c-0.2 0-0.4 0-0.5-0.2l-0.3 0.2c-0.3-0.1-0.7-0.1-1 0-0.4 0-0.7 0-1-0.2-0.1 0.1-0.3 0.1-0.4-0.1-0.2 0.1-0.4 0.1-0.5 0.1-0.4-0.1-0.6-0.3-0.7-0.5l-0.2 0c0.1 0.1 0.1 0.2 0 0.3-0.1-0.1-0.2-0.2-0.2-0.3-0.3 0-0.5-0.1-0.6-0.4l-0.1 0.1c-0.4-0.2-0.7-0.5-0.9-0.9-0.1 0.3 0 0.5 0.2 0.7l-0.2 0.1c-0.2-0.2-0.4-0.5-0.6-0.7-0.2-0.4-0.4-1-0.4-1.5 0-0.8 0.1-1.5 0.3-2.2 0.6 0.4 1.2 0.8 1.9 1.2z"></path><path fill="#220d26" d="m16.1 10.7c2 1.2 4 2.2 6.1 3.1l0.2 0.2-0.5 0.2c0-0.2-0.1-0.4-0.4-0.3-0.3-0.3-0.8-0.5-1.2-0.6-1.3-0.6-2.5-1.3-3.8-2-0.2-0.1-0.3-0.3-0.4-0.6z"></path><path fill="#522058" d="m20.3 13.3c0.4 0.1 0.9 0.3 1.2 0.6 0 0.8-0.5 1.1-1.2 0.9-0.3 0.3-0.5 0.3-0.8 0-0.2 0.4-0.4 0.4-0.8 0.1l-1 0.5c-0.3-0.1-0.7-0.3-1-0.5-0.1 0.1-0.3 0.2-0.3 0.3-0.1-0.1-0.1-0.2-0.1-0.3-0.3 0-0.6-0.1-0.9-0.2-0.1 0-0.1 0-0.2 0.1-0.2-0.4-0.5-0.4-0.8-0.2-0.4-0.3-0.8-0.7-1-1.2h-0.3c-0.2-0.2-0.4-0.5-0.5-0.9 0.2 0.2 0.4 0.5 0.6 0.7l0.2-0.1c-0.2-0.2-0.3-0.4-0.2-0.7 0.2 0.4 0.5 0.7 0.9 0.9l0.1-0.1c0.1 0.3 0.3 0.4 0.6 0.4 0 0.1 0.1 0.2 0.2 0.3 0.1-0.1 0.1-0.2 0-0.3l0.2 0c0.1 0.2 0.3 0.4 0.7 0.5 0.1 0 0.3 0 0.5-0.1 0.1 0.2 0.3 0.2 0.4 0.1 0.3 0.2 0.6 0.2 1 0.2 0.3-0.1 0.7-0.1 1 0l0.3-0.2c0.1 0.2 0.3 0.2 0.5 0.2l-0.2-0.1c0.5 0 0.8-0.3 0.9-0.9z"></path><path fill="#150c17" d="m23.4 9.1c0.1 0.4 0.1 0.8 0.1 1.2 0 0.6 0 1.2-0.2 1.8 0 0.1 0.1 0.2 0.2 0.3v0.6c0.6-0.1 1.2 0 1.6 0.4-0.7 0.1-1.4 0.2-2 0.2 0.8 0.5 1.7 0.9 2.7 1.1 0.1 0 0.2-0.1 0.3-0.1h0.1c0 0 0.1 0.1 0.1 0.2-0.2 0.1-0.5 0.1-0.8 0-1.1-0.2-2.2-0.6-3.2-1.1l-0.7-0.4c0 0 0-0.1 0.1-0.1l0.7 0.4c0.1-0.1 0.2-0.2 0.2-0.3 0.1 0 0.2-0.1 0.3-0.2 0.5-1.3 0.6-2.7 0.5-4z"></path><path fill="#45204a" d="m24 11.3c-0.1 0.4 0 0.7 0.2 1-0.4 0-0.5 0.2-0.3 0.5 0.4 0.1 0.9 0 1.4-0.1 0.3-0.2 0.6-0.3 1-0.4-0.4 0.3-0.8 0.5-1.3 0.7 0.2 0.4 0.4 0.4 0.8 0.2-0.1 0.1-0.1 0.2-0.1 0.4l0.9 0.9c0.1 0.1 0.1 0.3 0 0.5-0.1 0.1-0.2 0.1-0.3 0.1 0.1-0.1 0.2-0.2 0.3-0.3-0.2-0.3-0.4-0.6-0.7-0.8 0 0.2 0.1 0.4 0.3 0.6h-0.1c-0.3-0.4-0.7-0.8-1-1.2-0.4-0.4-1-0.5-1.6-0.4v-0.6l0.5-1.1z"></path><path fill="#e5e3e5" d="m25.1 13.4c0.3 0.4 0.7 0.8 1 1.2-0.1 0-0.2 0.1-0.3 0.1-1-0.2-1.9-0.6-2.7-1.1 0.6 0 1.3-0.1 2-0.2z"></path><path fill="#351f38" d="m23.1 14.2c1 0.5 2.1 0.8 3.2 0.9-0.4 0.2-0.9 0.2-1.3 0-0.8-0.1-1.5-0.4-2.2-0.8 0.1 0.1 0.2 0 0.3-0.1z"></path><path fill="#a17aa2" d="m22.3 13.7c1 0.5 2.1 0.9 3.2 1.2 0.3 0 0.6 0 0.8-0.1 0-0.1-0.1-0.2-0.1-0.2-0.2-0.2-0.3-0.4-0.3-0.6 0.3 0.2 0.5 0.5 0.7 0.8-0.1 0.1-0.2 0.2-0.3 0.3-1.1-0.1-2.2-0.4-3.2-0.9l-0.7-0.2-0.2-0.2c0 0 0.1-0.1 0.1-0.1z"></path><path fill="#451d4a" d="m13.1 13.4h0.3c0.2 0.5 0.6 0.9 1 1.2 0.3-0.2 0.6-0.2 0.8 0.2 0.1-0.1 0.1-0.1 0.2-0.1 0.3 0.1 0.6 0.2 0.9 0.2 0 0.1 0 0.2 0.1 0.3 0-0.1 0.2-0.2 0.3-0.3 0.3 0.2 0.7 0.4 1 0.5l1-0.5c0.4 0.3 0.6 0.3 0.8-0.1 0.3 0.3 0.5 0.3 0.7 0 0.8 0.2 1.3-0.1 1.3-0.9 0.3-0.1 0.4 0.1 0.4 0.3-1.4 1.5-3.1 2.1-5.1 1.8-1.6-0.4-2.9-1.2-3.8-2.6z"></path><path fill="#9b9b9c" d="m24 15.6h-0.5c0 0.2 0 0.3-0.1 0.4v-0.5c0.2-0.1 0.4 0 0.6 0.1z"></path><path fill="#9a9a9b" d="m22.6 15.4c0-0.1 0.1-0.1 0.1-0.2 0.2 0.4 0.1 0.8-0.1 1.1 0.1-0.4 0.1-0.7 0-0.9z"></path><path fill="#0b0a0f" d="m34.6 7.1c0 0.2 0.1 0.4 0.2 0.6 0.1-0.1 0.3-0.1 0.4-0.1 0 0.2 0 0.3-0.1 0.4-0.1-0.1-0.2-0.1-0.2 0 0.2 0.2 0.2 0.5 0.2 0.7-0.1 0-0.2 0-0.3 0.1 0.1 0.3 0 0.4-0.3 0.6 0.3 0 0.6 0 0.8 0.2-0.2 0.2-0.5 0.4-0.9 0.5v0.3c-0.2 0-0.3 0-0.4 0 0.2 0.2 0.4 0.5 0.4 0.8 0.3-0.3 0.6-0.3 0.9 0 0-0.1 0-0.2-0.1-0.3 0.2-0.2 0.4-0.2 0.6-0.2v10.4c-0.2 0.2-0.4 0.1-0.5-0.1-0.1 0-0.1 0.1-0.1 0.2-0.3-0.1-0.5-0.2-0.8-0.2 0.1 0.1 0.1 0.1 0.1 0.2-0.1 0-0.2 0.1-0.3 0.1 0.2 0.2 0.1 0.3-0.1 0.5-0.1 0-0.3-0.1-0.5-0.1-0.1-0.3-0.4-0.5-0.6-0.7-0.2 0.1-0.3 0.3-0.4 0.5l0.3 0.1c-0.2 0.2-0.3 0.3-0.5 0.3 0.5 0.1 0.5 0.3 0.2 0.7l0.1 0.2c-0.1 0.1-0.3 0.3-0.4 0.5-0.1-0.2-0.3-0.2-0.5 0 0.1 0.5 0.1 1.1 0 1.6-0.1 0.1-0.2 0.2-0.4 0.2 0 0.7-0.3 1.3-0.9 1.7 0 0.4 0 0.8 0.1 1.1-0.1 0.1-0.2 0.3-0.2 0.4 0 0.1 0.1 0.1 0.2 0 0.1 0.2 0.2 0.3 0.2 0.4-0.1 0.4-0.2 0.5-0.3 0.1-0.1-0.1-0.2 0-0.3 0.1-0.1-0.1-0.2-0.2-0.3-0.3-0.3 0.2-0.5 0.3-0.7 0.5-0.1-0.2-0.3-0.2-0.4 0-0.1-0.1-0.2-0.1-0.3-0.2-0.1 0.2-0.2 0.4-0.4 0.6 0 0.1 0.1 0.1 0.1 0.2-0.1 0.2-0.2 0.5-0.2 0.7-0.3 0-0.4 0.1-0.1 0.3-0.4 0.2-0.8 0.4-1.1 0.7 0.2 0.1 0.2 0.2 0 0.3 0.2 0.3 0.2 0.6-0.1 0.8 0.1 0.2 0 0.3-0.3 0.3 0 0.2 0.1 0.5 0.3 0.6-0.2 0.1-0.3 0.1-0.5 0.1 0 0.1 0 0.2 0 0.3-0.4-0.1-0.6-0.2-0.7-0.6l-0.1 0.7c-0.1-0.3-0.1-0.5-0.2-0.8-0.1 0-0.2-0.1-0.3-0.3-0.7-0.2-1.3-0.4-2-0.6 3.6-1.6 6.1-4.3 7.5-7.8 0.2-0.8 0.4-1.6 0.4-2.4 0.2-1.5 0.2-3.1 0.1-4.6-0.1-0.1-0.1-0.1-0.2-0.1-0.1-0.2-0.2-0.3-0.3-0.4-2.3-0.1-4.7-0.1-7-0.1v-0.8c0.1-0.1 0.1-0.2 0.1-0.4h0.5c0.2 0.1 0.4 0.2 0.6 0.3 0.8 0.1 1.5 0 2.2-0.1 0.2 0 0.4-0.1 0.5-0.3 0.1-0.5 0.1-0.9 0-1.4-0.2-0.2-0.3-0.4-0.4-0.5 1.4-0.8 2.3-1.8 2.7-3.3 0.2-0.8 0.2-1.6 0.2-2.4-0.2-0.1-0.4-0.3-0.5-0.4v-0.1c-0.2-0.1-0.3-0.2-0.5-0.2 0.2 0 0.4-0.1 0.6-0.3 0.2 0.1 0.2 0.2 0.1 0.4 0.2 0.4 0.3 0.4 0.3 0l0.1 0.1c0.1 1 0.2 1.9 0.4 2.9 0.2 0 0.3 0 0.2-0.2 0.1-0.1 0.2-0.2 0.3-0.4l0.1 0.1c0 0 0.1-0.1 0.2-0.2l0.1 0.2 0.2-0.2c-0.1 0.2 0 0.5 0.2 0.7 0.2-0.1 0.4-0.1 0.6-0.1-0.2 0.1-0.2 0.2 0 0.3-0.6 0.4-0.6 0.6 0.1 0.4l0.2 0.1c-0.3 0.1-0.3 0.2 0 0.3 0.1-0.1 0.3-0.1 0.5 0 0.1-0.1 0-0.2-0.1-0.3 0.2-0.1 0.3-0.2 0.4-0.4 0.2-0.1 0.4-0.2 0.6-0.3-0.3-0.2-0.6-0.1-0.8 0.2l-0.2-0.2c0-0.3-0.1-0.5-0.2-0.7 0.2-0.2 0.4-0.2 0.5 0.1 0.2-0.2 0.4-0.4 0.4-0.8 0.2 0.1 0.3 0.2 0.3 0.4l0.1-0.5c0.2-0.1 0.5-0.3 0.8-0.5-0.1-0.1-0.1-0.3-0.1-0.5-0.2 0-0.4 0-0.6 0l0.2-0.2c-0.1-0.1-0.1-0.2 0-0.3 0.2 0.2 0.3 0.2 0.4-0.2z"></path><path fill="#b5b4b6" d="m24 15.6c0.9 0.2 1.8 0.3 2.8 0.2-0.7 0.1-1.4 0.2-2.2 0.1-0.2-0.1-0.4-0.2-0.6-0.3z"></path><path fill="#5d5d5e" d="m23.4 16.3v0.5c2.3 0 4.7 0 7 0.1h-7.1c0-0.2 0-0.4 0.1-0.6z"></path><path fill="#d3d2d3" d="m23.3 16.9h7.1c0.1 0.1 0.2 0.2 0.3 0.4-0.1 0-0.2-0.1-0.3-0.2-2.4 0-4.8-0.1-7.1-0.2z"></path><path fill="#a1a1a2" d="m4.3 16.5c0 0.3-0.1 0.5-0.2 0.8-0.1-0.3 0-0.6 0.2-0.8z"></path><path fill="#acacad" d="m22.6 16.5v1c2.5 0 5 0 7.4 0.1h-7.6c0-0.4 0.1-0.8 0.2-1.1z"></path><path fill="#b2b2b3" d="m30.7 17.3c0.1 0 0.1 0 0.2 0.1 0.1 1.5 0.1 3.1-0.1 4.6 0.1-1.6 0-3.2-0.1-4.7z"></path><path fill="#0c090f" d="m11.9 8.5h0.4c-0.2 0.5-0.3 1.1-0.3 1.6 0 0.3 0.1 0.6 0.2 0.9 0 0.5 0.2 1.1 0.4 1.5 0.1 0.4 0.3 0.7 0.5 0.9 0.8 1.4 2.1 2.2 3.7 2.6 2 0.3 3.7-0.3 5.1-1.8l0.5-0.2 0.7 0.2c-0.1 0.1-0.2 0.2-0.3 0.1-0.1 0-0.2 0-0.3-0.1-0.9 1.1-2 1.7-3.4 2.1-0.7 0-1.4 0.1-2.1 0.1-1.5-0.2-2.7-0.9-3.7-1.9-0.3 0.1-0.5 0.2-0.7 0.5 2 2.3 4.5 3 7.4 2 1-0.4 1.8-1 2.6-1.6 0.1 0.2 0.1 0.5 0 0.9v0.2c-0.1 0.3-0.2 0.7-0.2 1.1h7.6c0.9 5.1-0.8 9.3-4.9 12.5-1.5 1-3 1.7-4.7 2.1 0 0.1 0.1 0.2 0.2 0.1 0.7 0.4 1.4 0.6 2.1 0.7 0.4 0.2 0.8 0.3 1.1 0.4-4.3 0.1-8.7 0.1-13.1 0 1-0.3 2-0.6 3-0.9 0.4-0.1 0.4-0.2 0.1-0.4-4.4-1.2-7.3-4-8.9-8.3 0.1-0.3 0-0.6-0.2-0.8-0.7-3.8 0.1-7.2 2.3-10.3 1.2-1.3 2.4-2.3 3.8-3.2 0.3-0.2 0.7-0.4 1-0.4 0-0.2 0-0.4 0.1-0.6z"></path><path fill="#55255c" d="m15.3 17.5c-0.3 0-0.5-0.1-0.8-0.2l-0.1 0.1c0.5 0.5 0.4 0.7-0.3 0.7 0 0.4 0.1 0.8 0.2 1.1l-0.1 0.2c-0.1-0.1-0.2-0.3-0.3-0.4-0.1 0.1-0.1 0.2-0.1 0.4l-0.2-0.2c-0.1-0.5-0.1-1-0.2-1.5l0.1-0.2c0.3 0.2 0.6 0.4 1 0.4-0.5-0.4-1-0.8-1.5-1.3-0.1 0.2-0.1 0.5-0.1 0.8 0.1 0.2 0 0.4 0 0.7 0-0.2-0.1-0.4-0.2-0.5-0.2-0.7-0.3-1.4-0.2-2.1 0.3 0.3 0.7 0.6 1 0.9 0.6 0.5 1.2 0.8 1.8 1.1z"></path><path fill="#848485" d="m19.1 16.3c-0.4 0.1-0.8 0.2-1.3 0.2-0.3 0-0.6-0.1-0.8-0.1 0.7 0 1.4-0.1 2.1-0.1z"></path><path fill="#ebebeb" d="m12.3 17.8c-0.1 0.7 0.1 1.3 0.3 1.9 0.1 0.6 0.2 1.1 0.2 1.6 0.1 0.7 0.1 1.4 0.2 2.2 0.1 0.1 0.2 0.2 0.3 0.3v0.2c-0.1 0.5 0 1 0.2 1.4 0 0.2 0 0.5-0.1 0.8 0-0.1-0.1-0.2-0.2-0.2-1.7-0.9-2.7-2.2-3.1-4-0.1-1-0.1-2-0.1-3 0.2-1.3 0.8-2.4 1.8-3.3 0.2 0.7 0.4 1.4 0.5 2.1z"></path><path fill="#481d4e" d="m11.6 15c-0.4 0.4-0.7 0.8-1 1.1-0.1 0-0.2 0.1-0.3 0.2-0.3 0.6-0.6 1.1-1 1.5-0.1-0.1-0.3-0.2-0.5-0.3 0 0.2-0.1 0.3-0.3 0.3-0.5-0.1-1.1-0.2-1.6-0.3-0.3 0.1-0.6 0.1-0.8 0-0.3 0.6-0.4 0.6-0.6 0 0.2-0.4 0.3-0.7 0.3-1.1 0.2-0.3 0.3-0.6 0.5-0.9 0 0.1 0 0.3 0.2 0.4 0.1-0.2 0.3-0.4 0.5-0.5l0.2 0.1c0.6 0 1.2 0.1 1.7 0.2 0.3-0.2 0.5-0.2 0.7 0 0.2-0.2 0.3-0.4 0.4-0.7 0.1 0.4 0.2 0.7 0.2 1 0-0.2 0.1-0.2 0.2-0.1 0.3-0.4 0.7-0.7 1.2-0.9z"></path><path fill="#35193b" d="m12.5 13.4c0.5 0.5 0.4 0.8-0.2 1.1-0.3-0.1-0.4-0.2-0.5-0.4-0.1 0.3-0.1 0.6-0.2 0.9 0-0.4 0-0.7 0.1-1.1 0.2 0.1 0.3 0.2 0.5 0.3l0.3-0.1c0-0.2 0-0.4 0-0.7z"></path><path fill="#411f47" d="m10.1 10.6c-0.4 0.6-0.9 1.1-1.5 1.4-0.7 0.5-1.1 1.1-1.3 1.8-0.2 0.2-0.4 0.4-0.7 0.5 0.3-0.5 0.6-1.1 1-1.5 0.7-0.7 1.4-1.4 2.1-2 0.1-0.1 0.3-0.1 0.4-0.2z"></path><path fill="#532159" d="m12.5 13.4c0 0.3 0 0.5 0 0.7l-0.3 0.1c-0.2-0.1-0.3-0.2-0.5-0.3-0.1 0.4-0.1 0.7-0.1 1.1-0.5 0.2-0.9 0.5-1.2 0.9-0.1-0.1-0.2-0.1-0.2 0.1 0-0.3-0.1-0.6-0.2-1-0.1 0.3-0.2 0.5-0.4 0.7-0.2-0.2-0.4-0.2-0.7 0-0.5-0.1-1.1-0.2-1.7-0.2l-0.2-0.1c-0.2 0.1-0.4 0.3-0.5 0.5-0.2-0.1-0.2-0.3-0.2-0.4 0.2-0.4 0.3-0.7 0.3-1.2 0.3-0.1 0.5-0.3 0.7-0.5 0.2-0.7 0.6-1.3 1.2-1.8 0.7-0.3 1.2-0.8 1.6-1.4 0.4-0.4 1-0.7 1.6-0.9 0 0.8 0 1.5 0.2 2.2 0.2 0.5 0.4 1 0.6 1.5z"></path><path fill="#62286a" d="m15.3 17.5c0.4 0.1 0.9 0.2 1.4 0.3 0.9 0.2 1.8 0.2 2.8 0l0.6 0.1c0.1 0 0.1 0.1 0.2 0.2-0.4 0.1-0.8 0.3-1.2 0.4-0.2 0-0.4 0-0.7 0.1 0.9 0.2 1.7 0.1 2.4-0.3 0.1 0.2 0.2 0.4 0.1 0.7-0.3 0.9-0.6 1.9-0.8 3-0.1 0.6-0.1 1.1-0.1 1.7-0.3 1.4-0.5 2.7-0.6 4.1-0.2 0.6-0.3 1.1-0.2 1.7 0.4-0.9 0.6-1.8 0.8-2.8l0.1-0.1c0 0.3 0.1 0.6 0 0.9 0 0.8-0.1 1.6-0.4 2.4-0.2 0.8-0.5 1.6-0.7 2.4 0.1 0.2 0.1 0.3 0.2 0.4 0.4 0.1 0.7 0.1 1.1 0.3-2.1 0-4.1 0-6.1 0 0.1-0.1 0.2-0.2 0.3-0.3 0.1-0.1 0.3-0.2 0.5-0.1 0.1-0.1 0.2-0.3 0.2-0.5-0.2-1-0.3-2-0.6-3v-0.1c0-0.9-0.1-1.7-0.3-2.5 0-0.1-0.1-0.1-0.1-0.1 0.1-0.6 0.2-1.2 0.3-1.7 0-0.3-0.1-0.5-0.2-0.7 0-0.4 0-0.8-0.1-1.2 0-1.2-0.2-2.3-0.4-3.4 0-0.2 0-0.3 0.2-0.4 0 0.1 0.1 0.3 0.2 0.4l0.1-0.2c-0.1-0.3-0.2-0.7-0.2-1.1 0.7 0 0.8-0.2 0.3-0.7l0.1-0.1c0.3 0.1 0.5 0.2 0.8 0.2z"></path><path fill="#9d9d9e" d="m4 17.3c-0.1 1.5-0.2 3.1-0.2 4.7-0.1-1.1-0.1-2.2 0-3.4 0-0.5 0.1-0.9 0.2-1.3z"></path><path fill="#3e1943" d="m22.1 21.2v-1.1c-0.1-0.2 0-0.3 0.1-0.4 0.1-0.4 0.2-0.9 0.2-1.4 2.4-0.1 4.8 0 7.2 0.1 0 0.8 0 1.6-0.1 2.4-0.1 0.2-0.1 0.5-0.2 0.7-0.1 0-0.1-0.1-0.2-0.2-0.3-0.1-0.7-0.1-1-0.2h-0.5c-0.1 0.3-0.3 0.3-0.4 0-0.2 0-0.3 0-0.4 0.1-0.1-0.3-0.3-0.3-0.5-0.2 0.3 0.1 0.3 0.2-0.1 0.3 0.3 0.1 0.3 0.2-0.1 0.2-0.3-0.1-0.5-0.1-0.7 0l-0.1-0.3c-0.3 0.1-0.5 0.1-0.8 0-0.1 0-0.3 0.1-0.4 0.2-0.2-0.1-0.3-0.1-0.4 0.1-0.1 0-0.2-0.1-0.2-0.2-0.4 0.2-0.8 0.2-1.2 0-0.2 0.3-0.3 0.3-0.2-0.1z"></path><path fill="#8c8c8d" d="m12.3 17.8c0.1 0.6 0.2 1.3 0.3 1.9-0.2-0.6-0.4-1.2-0.3-1.9z"></path><path fill="#0a030d" d="m13.6 19.2c0.2 1.2 0.4 2.4 0.6 3.6 0.1 0.4 0.1 0.8 0.1 1.2 0 0.2 0 0.4-0.1 0.6-0.5-2.4-0.9-4.8-1.3-7.2 0-0.3 0-0.6 0.2-0.8 0.4 0.5 0.9 0.9 1.4 1.3-0.4 0-0.7-0.2-1-0.4l-0.1 0.2c0.1 0.5 0.1 1 0.2 1.5z"></path><path fill="#401d46" d="m20.9 19c0.1-0.3 0-0.5-0.1-0.7-0.7 0.4-1.5 0.5-2.4 0.3 0.3-0.1 0.5-0.1 0.7-0.1 0.2 0.1 0.4 0.2 0.6 0.1 0.5-0.2 1-0.4 1.4-0.5 0.1 0.3 0 0.6-0.2 0.9z"></path><path fill="#3d1841" d="m10.6 16.1c-0.4 0.9-0.8 1.7-1.1 2.5-0.2 1.1-0.4 2.2-0.4 3.3-0.3-0.4-0.4-0.8-0.5-1.3-0.1 0.3-0.2 0.5-0.2 0.7-0.6-0.1-1.2-0.1-1.8 0-0.1-0.1-0.1-0.2-0.2-0.3-0.2 0.1-0.4 0.3-0.5 0.5-0.4 0-0.6-0.2-0.7-0.5-0.1-1.2 0-2.4 0.3-3.5 0.2 0.6 0.3 0.6 0.6 0 0.2 0.1 0.5 0.1 0.8 0 0.5 0.1 1.1 0.2 1.6 0.3 0.2 0 0.3-0.1 0.3-0.3 0.2 0.1 0.4 0.2 0.5 0.3 0.4-0.4 0.7-0.9 1-1.5 0.1-0.1 0.2-0.2 0.3-0.2z"></path><path fill="#a9a9aa" d="m10 19c0 1 0 2 0.1 3-0.1-0.1-0.1-0.1-0.1-0.2-0.1-1-0.1-1.9 0-2.8z"></path><path fill="#492050" d="m20.1 27.5c0.1-0.3 0-0.6 0-0.9l-0.1 0.1c-0.2 1-0.4 1.9-0.8 2.8-0.1-0.6 0-1.1 0.1-1.7 0 0.2 0.1 0.4 0.1 0.6 0.9-3.6 1.6-7.3 2-11-0.3 0.3-0.7 0.5-1.2 0.7 0-0.1 0-0.2-0.1-0.2l-0.6-0.1c-1 0.2-1.9 0.2-2.9 0 2 0.2 3.8-0.3 5.4-1.4 0.1 0.4 0.1 0.9 0 1.3-0.6 3.3-1.2 6.6-1.9 9.8z"></path><path fill="#3d1c43" d="m12.9 17.4c0.4 2.4 0.8 4.8 1.3 7.2 0.1-0.2 0.1-0.4 0.1-0.6 0.1 0.2 0.2 0.4 0.2 0.7-0.1 0.5-0.2 1.1-0.3 1.7-0.6-2.9-1-5.8-1.5-8.8 0.1 0.1 0.2 0.3 0.2 0.5 0-0.3 0.1-0.5 0-0.7z"></path><path fill="#100f11" d="m12.3 22.2c-0.1 0.5 0 1 0.2 1.5 0.3 1 0.1 1.2-0.5 0.4-1.1-1.4-1.5-3-1.4-4.7 0.2-0.4 0.3-0.8 0.4-1.2 0.1-0.3 0.2-0.5 0.4-0.7 0.3 1.6 0.6 3.2 0.9 4.7z"></path><path fill="#321536" d="m6.6 14.3c0 0.5-0.1 0.8-0.3 1.2-0.2 0.3-0.3 0.6-0.5 0.9 0 0.4-0.1 0.7-0.3 1.1-0.3 1.1-0.4 2.3-0.3 3.5 0.1 0.3 0.3 0.5 0.7 0.5 0.1-0.2 0.3-0.4 0.5-0.5 0.1 0.1 0.1 0.2 0.2 0.3 0.6-0.1 1.2-0.1 1.8 0 0-0.2 0.1-0.4 0.2-0.7 0.1 0.5 0.2 0.9 0.5 1.3 0-1.1 0.2-2.2 0.3-3.3-0.2 1.6-0.1 3.1 0.4 4.6 0.2 0.8-0.1 1-0.7 0.6-0.8 0.2-1.6 0.1-2.3-0.1-0.3 0.1-0.5 0.2-0.8 0.1l-0.1 0.2c-0.1-0.1-0.2-0.2-0.4-0.3-0.6-2.5-0.6-5.1 0.2-7.6 0.3-0.6 0.6-1.2 0.9-1.8z"></path><path fill="#39173f" d="m13.6 19.2l0.2 0.2c0.2 1.1 0.4 2.2 0.4 3.4-0.2-1.2-0.4-2.4-0.6-3.6z"></path><path fill="#321536" d="m29.5 22.2c-0.2 0.3-0.3 0.7-0.4 1-0.1 0.3-0.3 0.5-0.5 0.6l0.1 0.2c-0.3-0.1-0.6-0.2-1-0.2-0.7 0.1-1.5 0.1-2.3 0.2-0.1-0.1-0.2-0.1-0.3 0.1 0-0.3 0-0.6 0.2-0.8-0.1-0.2-0.2-0.4-0.3-0.6 0.1-0.1 0.1-0.3 0-0.4-1.1-0.1-2.1-0.1-3.2-0.1 0-0.4 0.1-0.7 0.3-1-0.1 0.4 0 0.4 0.2 0.1 0.4 0.2 0.8 0.2 1.2 0 0 0.1 0.1 0.2 0.2 0.2 0.1-0.2 0.2-0.2 0.4-0.1 0.1-0.1 0.3-0.2 0.4-0.2 0.3 0.1 0.5 0.1 0.8 0l0.1 0.3c0.2-0.1 0.4-0.1 0.7 0 0.4 0 0.4-0.1 0.1-0.2 0.4-0.1 0.4-0.2 0.1-0.3 0.2-0.1 0.4-0.1 0.5 0.2 0.1-0.1 0.2-0.1 0.4-0.1 0.1 0.3 0.3 0.3 0.4 0h0.5c0.3 0.1 0.7 0.1 1 0.2 0.1 0.1 0.1 0.2 0.2 0.2 0.1-0.2 0.1-0.5 0.2-0.7 0.1-0.8 0.1-1.6 0.1-2.4-2.4-0.1-4.8-0.2-7.2-0.1 0 0.5-0.1 1-0.2 1.4 0-0.5 0-1 0.1-1.5h7.4c0 1.1 0 2.2-0.1 3.3 0 0.3 0 0.5-0.1 0.7z"></path><path fill="#46214d" d="m20.9 19c-0.3 1.5-0.6 3.1-0.9 4.7 0-0.6 0-1.1 0.1-1.7 0.2-1.1 0.5-2.1 0.8-3z"></path><path fill="#8b8b8c" d="m12.3 22.2c0.1 0.5 0.2 1 0.2 1.5-0.2-0.5-0.3-1-0.2-1.5z"></path><path fill="#3e3d40" d="m21.5 22.9c0.9-0.1 1.8-0.2 2.8-0.1 0 0.1 0 0.2-0.1 0.3-0.9-0.2-1.8-0.3-2.7-0.2z"></path><path fill="#bebebf" d="m12.8 21.3c0.2 0.8 0.4 1.6 0.5 2.5-0.1-0.1-0.2-0.2-0.3-0.3-0.1-0.8-0.1-1.5-0.2-2.2z"></path><path fill="#ebebeb" d="m21.5 22.9c0.9-0.1 1.8 0 2.7 0.2-0.7 1.4-1.7 2.4-3.1 3.1-0.1-0.3-0.1-0.6-0.1-0.9 0.1-0.9 0.3-1.6 0.5-2.4z"></path><path fill="#8e8e8f" d="m4.7 23c0.2 0.2 0.3 0.5 0.3 0.8-0.2-0.2-0.3-0.5-0.3-0.8z"></path><path fill="#100513" d="m19.4 27.8c0.1-1.4 0.3-2.7 0.6-4.1 0.3-1.6 0.6-3.2 0.9-4.7 0.2-0.3 0.3-0.6 0.3-0.9-0.5 0.1-1 0.3-1.5 0.5-0.2 0.1-0.4 0-0.6-0.1 0.4-0.1 0.8-0.3 1.2-0.4 0.4-0.2 0.8-0.4 1.1-0.7-0.4 3.7-1.1 7.4-2 11 0-0.2-0.1-0.4 0-0.6z"></path><path fill="#1a191c" d="m22.1 24.7c-0.1-0.2-0.1-0.5 0-0.8v-0.3c0.3-0.1 0.6 0 0.8 0.1-0.2 0.4-0.5 0.7-0.8 1z"></path><path fill="#270f2b" d="m22.1 20.1v1.1c-0.2 0.3-0.3 0.6-0.3 1 1.1 0 2.1 0 3.2 0.1 0.1 0.1 0.1 0.3 0 0.4 0.1 0.2 0.2 0.4 0.3 0.6-0.2 0.2-0.2 0.5-0.2 0.8 0.1-0.2 0.2-0.2 0.3-0.1 0.8-0.1 1.6-0.1 2.3-0.2 0.4 0 0.7 0.1 1 0.2l-0.1-0.2c0.2-0.1 0.4-0.3 0.5-0.6 0.1-0.3 0.2-0.7 0.4-1-0.3 1.7-0.9 3.2-1.8 4.5-0.3 0-0.5 0.2-0.5 0.5-0.1-0.1-0.2-0.2-0.3-0.1l-0.5 0.6c-0.2 0.1-0.3 0-0.5-0.1-0.1-0.1-0.3-0.2-0.5-0.3 0.2 0 0.2-0.1 0-0.1-0.1 0.1-0.1 0.2-0.1 0.3-0.2 0-0.4 0-0.5-0.2-0.2 0.1-0.4 0.2-0.7 0.2-0.4-0.2-0.7-0.1-0.9 0.3-0.1-0.1-0.2-0.2-0.1-0.4-0.5-0.1-0.8-0.2-1.2-0.3-0.2 0.1-0.4 0.3-0.5 0.5-0.1-0.1-0.2-0.2-0.3-0.4l0.8-0.5c0.2-0.2 0.4-0.2 0.7-0.1 0-0.1 0.1-0.2 0.2-0.2 0-0.4 0.2-0.7 0.5-1 0.4-0.5 0.8-1.1 1.2-1.6 0.2-0.5 0.4-1 0.4-1.5h-3.2c0-0.7 0.1-1.5 0.3-2.2z"></path><path fill="#0c0a14" d="m35.8 21.1v4.8h-0.4c0.1 0.3 0 0.4-0.2 0.3-0.1 0.1-0.1 0.2-0.1 0.3-0.4 0-0.4 0.1-0.1 0.4-0.5 0.2-0.6 0.1-0.5-0.4-0.7 0-0.7 0.1-0.2 0.3-0.1 0.1-0.3 0.2-0.4 0.4-0.1 0-0.3-0.1-0.4-0.1-0.1 0.1-0.1 0.2-0.2 0.3-0.1-0.2-0.1-0.5-0.1-0.7-0.1 0.2-0.2 0.3-0.2 0.5-0.1-0.2-0.1-0.2-0.2 0 0.1 0.1 0.2 0.2 0.3 0.2-0.2 0.1-0.4 0.1-0.5 0.2-0.1-0.1-0.1-0.2 0-0.3-0.1 0-0.2 0-0.3-0.2 0.1-0.2 0.1-0.4 0-0.6-0.1 0.1-0.1 0.2 0 0.3-0.1 0-0.2 0-0.3-0.1-0.3 0.1-0.4 0.3-0.1 0.5 0.2-0.2 0.3-0.2 0.3 0-0.1 0.1-0.1 0.2-0.3 0.2l0.2 0.2c-0.1 0-0.2 0.1-0.3 0.1-0.1-0.1-0.1-0.1-0.2-0.2-0.1 0.2-0.2 0.3-0.4 0.5l0.1 0.3c0.1-0.1 0.2-0.1 0.2 0-0.1 0.1-0.3 0.1-0.4 0-0.2 0.1-0.3 0.2-0.3 0.4 0-0.1-0.1-0.2-0.2-0.4-0.1 0.1-0.2 0.1-0.2 0 0-0.1 0.1-0.3 0.2-0.4-0.1-0.3-0.1-0.7-0.1-1.1 0.6-0.4 0.9-1 0.9-1.7 0.2 0 0.3-0.1 0.4-0.2 0.1-0.5 0.1-1.1 0-1.6 0.2-0.2 0.4-0.2 0.5 0 0.1-0.2 0.3-0.4 0.4-0.5l-0.1-0.2c0.3-0.4 0.3-0.6-0.2-0.7 0.2 0 0.3-0.1 0.4-0.3l-0.2-0.1c0.1-0.2 0.2-0.4 0.4-0.5 0.2 0.2 0.5 0.4 0.6 0.7 0.2 0 0.4 0.1 0.5 0.1 0.2-0.2 0.3-0.3 0.1-0.5 0.1 0 0.2-0.1 0.3-0.1 0-0.1 0-0.1-0.1-0.2 0.3 0 0.5 0.1 0.8 0.2 0-0.1 0-0.2 0.1-0.2 0.1 0.2 0.3 0.3 0.5 0.1z"></path><path fill="#270f2b" d="m9.8 23.2c0.3 0.5 0.6 1 0.9 1.5 0.7 0.7 1.3 1.3 2 1.9v0.3c0.4 0.1 0.7 0.2 0.9 0.5-0.1 0.4-0.3 0.4-0.5 0-1.3 0-2.7 0.1-4.2 0.2-0.3-0.1-0.5-0.1-0.6 0.1-0.3-0.5-0.8-0.9-1.3-1.1-0.7-0.9-1.2-1.8-1.5-2.9 0.2 0.1 0.3 0.2 0.4 0.3l0.1-0.2c0.3 0.1 0.5 0 0.8-0.1 0.7 0.2 1.5 0.3 2.3 0.1 0.6 0.4 0.9 0.2 0.7-0.6z"></path><path fill="#818082" d="m22.1 23.9c-0.1 0.3-0.1 0.6 0 0.8-0.1 0.1-0.1 0.1-0.2 0.1-0.1-0.3-0.1-0.6 0.2-0.9z"></path><path fill="#9c9c9d" d="m13.3 24c0.1 0.4 0.2 0.9 0.2 1.4-0.2-0.4-0.3-0.9-0.2-1.4z"></path><path fill="#a2a2a3" d="m13.5 25.4c0.1 0.2 0.1 0.5 0.1 0.9-0.2 0-0.3-0.1-0.4-0.3 0.1 0 0.2 0.1 0.2 0.2 0.1-0.3 0.1-0.6 0.1-0.8z"></path><path fill="#aeaeaf" d="m21 25.3c0 0.3 0 0.6 0.2 0.9-0.2 0.3-0.3 0.2-0.4-0.1 0.1-0.3 0.1-0.6 0.2-0.8z"></path><path fill="#1c0b20" d="m7 26.6c0.5 0.2 1 0.6 1.3 1.1 0.1-0.2 0.3-0.2 0.6-0.1 1.5-0.1 2.9-0.2 4.2-0.2 0.2 0.4 0.4 0.4 0.5 0-0.2-0.3-0.5-0.4-0.9-0.5v-0.3c0.4 0.2 0.7 0.3 1.1 0.5 0 0.5 0.1 1 0.1 1.5 0 0.4 0 0.8 0 1.1-0.6 0.1-1.3 0.2-1.9 0.4-0.1-0.1-0.1-0.2 0-0.3l-0.4 0c-0.3 0-0.6 0.1-0.9 0.2 0-0.2 0-0.3-0.1-0.5-0.1 0.2-0.2 0.1-0.3-0.1-0.1 0.2-0.2 0.3-0.4 0.2-0.2 0-0.4-0.1-0.5-0.3l-0.1 0.1c-0.2-0.3-0.4-0.5-0.6-0.7-0.1-0.1-0.3-0.1-0.4-0.1-0.4-0.7-0.8-1.3-1.3-2z"></path><path fill="#1d0c20" d="m23.3 25.4c-0.3 0.3-0.5 0.6-0.5 1-0.1 0-0.2 0.1-0.2 0.2-0.3-0.1-0.5-0.1-0.7 0.1l-0.7 0.5c0 0.2 0.1 0.3 0.2 0.4 0.1-0.2 0.3-0.4 0.5-0.5 0.4 0.1 0.7 0.2 1.2 0.3-0.1 0.2 0 0.3 0.1 0.4 0.2-0.4 0.5-0.5 0.9-0.3 0.3 0 0.5-0.1 0.7-0.2 0.1 0.2 0.3 0.2 0.5 0.2 0-0.1 0-0.2 0.1-0.3 0.2 0 0.2 0.1 0 0.1 0.2 0.1 0.4 0.2 0.5 0.3 0.2 0.1 0.3 0.2 0.5 0.1l0.5-0.6c0.1-0.1 0.2 0 0.3 0.1 0-0.3 0.2-0.5 0.5-0.5-0.7 1.1-1.6 1.9-2.6 2.6-0.6 0.3-1.2 0.6-1.7 0.8-0.3-0.2-0.7-0.4-1.2-0.3-0.3 0-0.7 0-1 0.2 0-0.2-0.1-0.4-0.2-0.6-0.1 0.3-0.2 0.5-0.4 0.7 0-0.1-0.1-0.2-0.2-0.2 0.1-1 0.2-1.9 0.4-2.8 0.9-0.5 1.7-1.1 2.5-1.7z"></path><path fill="#44204b" d="m14.2 26.4c0 0 0.1 0 0.1 0.1 0.2 0.8 0.3 1.6 0.3 2.5-0.2-0.9-0.3-1.7-0.4-2.6z"></path><path fill="#160819" d="m14 28.6c0 0.2 0.1 0.4 0.2 0.7-0.1 0.4 0 0.9 0.1 1.4 0.1 0.3 0.1 0.6 0 0.9-0.4-0.1-0.8-0.1-1.2-0.3l-0.1 0.1c-0.5-0.4-1.2-0.7-1.9-0.8-0.4-0.3-0.8-0.6-1.2-1 0.2 0.1 0.3 0 0.4-0.2 0.1 0.2 0.2 0.3 0.3 0.1 0.1 0.2 0.1 0.3 0.1 0.5 0.3-0.1 0.6-0.2 0.9-0.2l0.4 0c-0.1 0.1-0.1 0.2 0 0.3 0.6-0.2 1.3-0.3 1.9-0.4 0-0.3 0-0.7 0-1.1z m11.1 0.7c-0.5 0.4-0.9 0.8-1.4 1.2l-0.1-0.1c-0.5 0.2-0.9 0.4-1.3 0.7-0.7 0.1-1.4 0.3-2 0.5-0.4-0.6-0.3-1.2 0.1-1.7 0.1 0 0.2 0.1 0.2 0.2 0.2-0.2 0.3-0.4 0.4-0.7 0.1 0.2 0.2 0.4 0.2 0.6 0.3-0.2 0.7-0.2 1-0.2 0.5-0.1 0.9 0.1 1.2 0.3 0.5-0.2 1.1-0.5 1.7-0.8z"></path><path fill="#13101d" d="m35.8 25.9v10h-3.4c0-0.3 0.1-0.6 0.3-0.8 0-0.3-0.2-0.5-0.4-0.6 0.3-0.3 0.3-0.4-0.1-0.4 0 0.2 0 0.3-0.1 0.4-0.6 0-1.1-0.2-1.4-0.6-0.3 0.2-0.4 0.5-0.3 0.8-0.1 0-0.3 0-0.4 0 0.2-0.2 0.2-0.3 0.1-0.4-0.1 0.1-0.2 0.2-0.4 0.2 0 0.3-0.1 0.4-0.3 0.5 0 0.1 0.1 0.2 0.2 0.2-0.2 0.1-0.4 0.2-0.6 0.3 0.1 0.1 0.2 0.1 0.3 0.2-0.2 0-0.3 0.1-0.3 0.2h-1.5c0-0.4 0.2-0.6 0.6-0.6 0.1 0.1 0.2 0.3 0.2 0.5 0.3-0.4 0.7-0.8 1-1.2-0.2-0.5 0-0.7 0.5-0.7 0.1-0.3 0.2-0.4 0.4-0.6-0.1-0.3-0.3-0.3-0.5-0.2-0.2-0.1-0.4-0.3-0.6-0.4-0.1 0-0.2 0.1-0.2 0.2l0.2 0.1c-0.1 0.2-0.1 0.4 0 0.5-1 0.2-1.1-0.2-0.3-1-0.5-0.3-0.4-0.4 0.1-0.4-0.1 0.2-0.1 0.3 0.2 0.3-0.1-0.1-0.1-0.2 0-0.3 0.4 0.1 0.5 0 0.2-0.3-0.1 0.1-0.1 0.1-0.2 0 0.1-0.2 0.2-0.3 0.3-0.4 0.2 0.2 0.4 0.3 0.6 0.4 0-0.1 0.1-0.2 0.2-0.3-0.1-0.2-0.2-0.5-0.2-0.7 0.2 0 0.3 0 0.5 0.1-0.1 0.2-0.1 0.4-0.1 0.5 0.1-0.1 0.1-0.2 0.1-0.3 0.2 0 0.4 0 0.5-0.2 0.5 0.2 0.5 0.5 0.1 0.7l0.1 0.2c0.2-0.1 0.3-0.3 0.4-0.4-0.1-0.2-0.1-0.4 0-0.5-0.1-0.1-0.2-0.2-0.3-0.4 0.2-0.3 0.2-0.6 0.1-1l-0.3 0.3c-0.2-0.3-0.2-0.6 0-0.9-0.1-0.1-0.2-0.2-0.3-0.2 0-0.2 0.1-0.3 0.3-0.4 0.1 0.1 0.3 0.1 0.4 0 0-0.1-0.1-0.1-0.2 0l-0.1-0.3c0.2-0.2 0.3-0.3 0.4-0.5 0.1 0.1 0.1 0.1 0.2 0.2 0.1 0 0.2-0.1 0.3-0.1l-0.1-0.1c0.1-0.1 0.1-0.2 0.2-0.3 0-0.2-0.1-0.2-0.2 0-0.4-0.2-0.3-0.4 0-0.5 0.1 0.1 0.2 0.1 0.3 0.1-0.1-0.1-0.1-0.2 0-0.3 0.1 0.2 0.1 0.4 0 0.6 0.1 0.2 0.2 0.2 0.3 0.2-0.1 0.1-0.1 0.2 0 0.3 0.1-0.1 0.3-0.1 0.5-0.1-0.1-0.1-0.2-0.2-0.2-0.3 0-0.2 0-0.2 0.1 0 0-0.2 0.1-0.3 0.2-0.5 0 0.2 0 0.5 0.1 0.7 0.1-0.1 0.1-0.2 0.2-0.3 0.1 0 0.3 0.1 0.4 0.1 0.1-0.2 0.3-0.3 0.4-0.4-0.5-0.2-0.5-0.3 0.2-0.3-0.1 0.5 0 0.6 0.5 0.4-0.3-0.3-0.3-0.4 0.1-0.4 0-0.1 0-0.2 0.1-0.3 0.2 0.1 0.3 0 0.2-0.3h0.4z"></path><path fill="#37193d" d="m14.6 29.1c0.3 1 0.4 2 0.6 3 0 0.2-0.1 0.4-0.2 0.5 0-0.2 0.1-0.3 0.1-0.4-0.2-1.1-0.4-2.1-0.5-3.1z"></path><path fill="#6d6c6f" d="m13.8 32.1c0.3 0.2 0.3 0.3-0.1 0.4 0.1-0.1 0.1-0.3 0.1-0.4z"></path><path fill="#979798" d="m20.6 32.3c0.7 0.2 1.5 0.4 2.1 0.7-0.7-0.1-1.4-0.3-2.1-0.7z"></path><path fill="#0e0b16" d="m30.8 28.7c0.1 0 0.2 0.1 0.3 0.2-0.2 0.3-0.2 0.6 0 0.9l0.3-0.3c0.1 0.4 0.1 0.7-0.1 1 0.1 0.2 0.2 0.3 0.3 0.4-0.1 0.1-0.1 0.3 0 0.5-0.1 0.1-0.2 0.3-0.4 0.4l-0.2-0.2c0.5-0.2 0.5-0.5 0-0.7-0.1 0.2-0.3 0.2-0.5 0.2 0 0.1 0 0.2-0.1 0.3 0-0.1 0-0.3 0.1-0.5-0.2-0.1-0.3-0.1-0.5-0.1 0 0.2 0.1 0.5 0.1 0.7 0 0.1-0.1 0.2-0.1 0.3-0.2-0.1-0.4-0.2-0.6-0.4-0.1 0.1-0.2 0.2-0.3 0.4 0.1 0.1 0.1 0.1 0.2 0 0.3 0.3 0.2 0.4-0.2 0.3-0.1 0.1-0.1 0.2 0 0.3-0.3 0-0.3-0.1-0.2-0.3-0.5 0-0.6 0.1-0.1 0.4-0.8 0.8-0.7 1.2 0.3 1-0.1-0.1-0.1-0.3 0-0.5l-0.2-0.1c0-0.1 0.1-0.2 0.2-0.2 0.2 0.1 0.4 0.3 0.6 0.4 0.2-0.1 0.4-0.1 0.4 0.2-0.1 0.2-0.2 0.3-0.3 0.6-0.5 0-0.7 0.2-0.6 0.7-0.2 0.4-0.6 0.8-0.9 1.2 0-0.2-0.1-0.4-0.2-0.5-0.4 0-0.6 0.2-0.7 0.6h-6.8c-0.1-0.1-0.1-0.2 0-0.3 0.1 0.1 0.1 0.1 0.2 0.2 0.2-0.2 0.4-0.3 0.7-0.1 0.5 0 1-0.2 1.3-0.6l0.7-0.1c-0.1-0.1-0.1-0.2 0-0.3 0.1 0.2 0.3 0.3 0.5 0.2 0.1-0.1 0.2-0.2 0.4-0.1-0.1 0.2-0.2 0.3-0.3 0.4 0.2 0.2 0.4 0.2 0.5 0 0.1 0.1 0.1 0.2 0.1 0.4 0.2-0.2 0.3-0.2 0.5-0.1 0.2-0.1 0.4-0.3 0.6-0.5-0.1-0.5-0.4-0.8-0.7-0.9 0.1-0.3 0.1-0.6 0.1-1 0.1 0.3 0.1 0.5 0.2 0.8l0.1-0.7c0.1 0.4 0.3 0.5 0.7 0.6 0-0.1 0-0.2 0-0.3 0.2 0 0.3 0 0.5-0.1-0.2-0.1-0.3-0.4-0.3-0.6 0.3 0 0.4-0.1 0.3-0.3 0.3-0.2 0.3-0.5 0.1-0.8 0.2-0.1 0.2-0.2 0-0.3 0.3-0.3 0.7-0.5 1.1-0.7-0.3-0.2-0.2-0.3 0.1-0.3 0-0.2 0.1-0.5 0.2-0.7 0-0.1-0.1-0.1-0.1-0.2 0.2-0.2 0.3-0.4 0.4-0.6 0.1 0.1 0.2 0.1 0.3 0.2 0.1-0.2 0.3-0.2 0.4 0 0.2-0.2 0.4-0.3 0.7-0.5 0.1 0.1 0.2 0.2 0.2 0.3 0.2-0.1 0.3-0.2 0.4-0.1 0.1 0.4 0.2 0.3 0.3-0.1z"></path><path fill="#ababac" d="m10.7 32.6c-0.5 0.2-0.9 0.3-1.4 0.5 0.4-0.3 0.9-0.5 1.4-0.5z"></path><path fill="#492350" d="m19.7 29.9c-0.1 0.9-0.2 1.8-0.3 2.7 0.6 0.1 1.3 0.2 1.9 0.5-2.7 0.1-5.3 0-7.9-0.1 0.3-0.2 0.7-0.3 1.1-0.3-0.1 0.1-0.2 0.2-0.3 0.3 2 0 4 0 6.1 0-0.4-0.2-0.7-0.2-1.1-0.3-0.1-0.1-0.1-0.2-0.2-0.4 0.2-0.8 0.5-1.6 0.7-2.4z"></path><path fill="#cdcdcd" d="m10.3 33.4c0 0-0.1 0.1-0.2 0.1 4.8 0.1 9.5 0.1 14.2 0-0.1 0-0.3-0.1-0.3-0.1 0.2-0.1 0.4 0 0.5 0.2-4.8 0.1-9.6 0.1-14.5 0.1v-0.3h0.4z"></path><path fill="#444345" d="m10.3 33.4h0.4c4.4 0.1 8.8 0.1 13.2 0h0.1c0 0 0.2 0.1 0.3 0.1-4.7 0.1-9.5 0.1-14.2 0 0.1 0 0.2-0.1 0.2-0.1z"></path><path fill="#191625" d="m32.4 35.9h-3.4c0-0.1 0.1-0.2 0.3-0.2-0.1-0.1-0.2-0.1-0.3-0.2 0.2-0.1 0.4-0.2 0.6-0.3-0.1 0-0.2-0.1-0.2-0.2 0.2-0.1 0.3-0.2 0.3-0.5 0.2 0 0.3-0.1 0.4-0.2 0.1 0.1 0.1 0.2-0.1 0.3 0.1 0.1 0.3 0.1 0.4 0-0.1-0.2 0-0.5 0.3-0.7 0.3 0.4 0.8 0.6 1.4 0.6 0.1-0.1 0.1-0.2 0.1-0.4 0.4 0 0.4 0.1 0.1 0.4 0.2 0.1 0.4 0.3 0.4 0.6-0.2 0.2-0.3 0.5-0.3 0.8z"></path></svg>