<svg xmlns="http://www.w3.org/2000/svg" width="256" height="256" viewBox="0 0 256 256" version="1.1">
	<path fill-opacity="0.243" d="M 113.581 7.065 C 87.192 10.125, 61.247 22.787, 42.141 41.930 C -5.491 89.653, -5.586 166.434, 41.930 213.859 C 89.653 261.491, 166.434 261.586, 213.859 214.070 C 250.791 177.068, 260.235 120.744, 237.261 74.500 C 214.191 28.064, 164.788 1.127, 113.581 7.065 M 117 17.694 C 71.709 22.539, 34.125 54.097, 21.395 97.970 C 20.043 102.629, 18.660 109.716, 18.322 113.720 L 17.707 121 20.334 121 C 23.203 121, 23.045 121.384, 25.084 109.500 C 29.691 82.649, 45.694 57.831, 68.620 41.982 C 99.767 20.450, 139.461 17.412, 173.500 33.956 C 205.273 49.398, 227.484 80.113, 231.757 114.520 C 232.449 120.086, 232.690 120.522, 235.250 120.816 C 237.877 121.119, 237.999 120.940, 237.978 116.816 C 237.966 114.442, 237.108 108.675, 236.070 104 C 227.328 64.602, 197.440 32.827, 158.500 21.532 C 145.762 17.837, 129.620 16.345, 117 17.694 M 89.200 50.200 C 87.215 52.185, 87.720 57.780, 89.994 58.997 C 91.340 59.717, 105.485 59.972, 133.531 59.782 C 178.281 59.478, 176.947 59.646, 176.985 54.321 C 177.022 48.971, 177.264 49, 132.129 49 C 101.006 49, 90.095 49.305, 89.200 50.200 M 118 67.500 C 118 71.255, 118.218 71.355, 124.250 70.358 C 127.568 69.810, 128 69.408, 128 66.869 C 128 64.093, 127.838 64, 123 64 L 118 64 118 67.500 M 135 66.883 C 135 69.956, 136.772 70.959, 142.250 70.986 C 144.729 70.999, 145 70.655, 145 67.500 L 145 64 140 64 C 135.156 64, 135 64.090, 135 66.883 M 113.500 76.636 C 98.650 79.760, 86.583 88.022, 81.401 98.613 C 79.293 102.922, 78.778 105.420, 78.778 111.342 C 78.778 127.247, 87.432 136.325, 109 143.045 L 117.500 145.694 117.778 159.237 C 118.084 174.188, 117.963 173.950, 125.250 173.986 L 128 174 128 161 C 128 147.103, 128.269 146.468, 133.066 149.035 C 134.814 149.971, 135 151.230, 135 162.115 L 135 174.159 138.250 173.461 C 144.841 172.046, 145 171.775, 145 161.965 C 145 156.112, 145.382 153, 146.100 153 C 146.705 153, 148.730 154.530, 150.600 156.400 C 157.983 163.783, 153.172 173.859, 140.505 177.542 C 131.935 180.033, 120.572 179.113, 113.106 175.324 C 108.351 172.910, 107.045 171.608, 104.500 166.742 L 101.500 161.006 88.817 161.003 C 74.258 161, 74.119 161.093, 76.026 169.633 C 77.461 176.060, 80.853 181.688, 86.339 186.745 C 93.214 193.082, 101.347 196.667, 115.202 199.468 C 117.750 199.983, 117.922 200.372, 118.202 206.257 L 118.500 212.500 121.815 212.818 C 126.654 213.283, 128 211.649, 128 205.314 L 128 199.873 131.250 200.187 C 134.456 200.496, 134.507 200.581, 135 206.500 C 135.495 212.446, 135.530 212.503, 138.815 212.818 C 143.703 213.287, 145 211.664, 145 205.078 L 145 199.400 150.905 198.181 C 158.996 196.509, 170.073 190.768, 174.358 186.025 C 181.011 178.662, 182.494 174.645, 182.494 164 C 182.494 152.947, 180.962 149.129, 173.833 142.427 C 165.530 134.622, 157.899 131.460, 135.344 126.482 C 119.014 122.877, 113.431 120.630, 109.997 116.278 C 106.795 112.220, 107.676 105.573, 111.917 101.782 C 117.253 97.016, 118 97.783, 118 108.025 C 118 117.905, 117.846 117.668, 125.544 119.600 L 128 120.217 128 108.045 L 128 95.873 131.250 96.187 L 134.500 96.500 134.779 109.177 L 135.059 121.854 138.279 122.502 C 140.051 122.858, 142.287 123.371, 143.250 123.642 C 144.847 124.092, 145 123.081, 145 112.067 C 145 104.339, 145.376 100, 146.045 100 C 147.503 100, 151.169 104.007, 153.221 107.843 L 154.942 111.060 167.721 110.780 C 180.154 110.508, 180.509 110.439, 180.823 108.227 C 181.907 100.583, 172.745 87.808, 162.117 82.143 C 149.357 75.342, 130.046 73.155, 113.500 76.636 M 18.022 139.184 C 18.077 150.198, 24.128 169.404, 31.669 182.500 C 65.727 241.645, 143.517 256.917, 196.617 214.882 C 218.946 197.206, 235.511 167.917, 237.678 142.280 L 238.293 135 235.666 135 C 232.797 135, 232.955 134.616, 230.916 146.500 C 226.309 173.351, 210.306 198.169, 187.380 214.018 C 156.233 235.550, 116.539 238.588, 82.500 222.044 C 50.727 206.602, 28.516 175.887, 24.243 141.480 C 23.551 135.914, 23.310 135.478, 20.750 135.184 C 18.123 134.881, 18.001 135.060, 18.022 139.184" stroke="none" fill="black" fill-rule="evenodd"/>
	<path fill-opacity="0.213" d="M 116.179 7.103 C 97.617 8.756, 78.042 15.666, 61.399 26.441 C 49.578 34.094, 32.402 51.549, 25.158 63.271 C -0.035 104.039, 0.457 154.465, 26.441 194.601 C 34.094 206.422, 51.549 223.598, 63.271 230.842 C 104.039 256.035, 154.465 255.543, 194.601 229.559 C 206.422 221.906, 223.598 204.451, 230.842 192.729 C 256.042 151.951, 255.539 101.410, 229.537 61.399 C 218.907 45.042, 199.339 27.702, 181.237 18.600 C 163.409 9.635, 138.059 5.155, 116.179 7.103 M 117 17.458 C 116.175 17.657, 112.125 18.368, 108 19.039 C 75.122 24.384, 44.137 47.637, 28.768 78.500 C 20.966 94.167, 15.314 118.722, 18.988 120.992 C 21.983 122.844, 23.606 120.319, 24.888 111.813 C 28.326 89.003, 39.133 68.627, 56.583 52.051 C 68.833 40.415, 82.337 32.664, 99.701 27.303 C 107.998 24.741, 109.611 24.587, 128 24.587 C 146.448 24.587, 147.986 24.735, 156.500 27.346 C 186.175 36.445, 209.593 56.423, 222.558 83.701 C 226.696 92.407, 230.629 105.601, 231.573 113.939 C 232.292 120.300, 234.174 122.746, 237.003 120.998 C 238.681 119.961, 238.507 114.540, 236.486 104.935 C 227.507 62.248, 194.021 28.926, 150.500 19.370 C 144.068 17.957, 120.505 16.613, 117 17.458 M 89.385 49.765 C 87.239 51.179, 86.775 55.007, 88.440 57.549 L 90.046 60 131.589 60 C 158.313 60, 173.821 59.631, 175.066 58.965 C 177.283 57.778, 177.754 52.154, 175.800 50.200 C 174.904 49.304, 163.940 49.004, 132.550 49.015 C 109.422 49.024, 89.998 49.361, 89.385 49.765 M 117 67.552 L 117 71.105 122.250 70.802 C 127.370 70.508, 127.508 70.419, 127.813 67.250 L 128.127 64 122.563 64 L 117 64 117 67.552 M 134.187 67.250 C 134.492 70.419, 134.630 70.508, 139.750 70.802 L 145 71.105 145 67.552 L 145 64 139.437 64 L 133.873 64 134.187 67.250 M 111.202 77.022 C 90.491 82.448, 78.506 95.101, 78.541 111.500 C 78.549 115.350, 79.144 120.196, 79.862 122.270 C 82.877 130.972, 95.455 139.814, 110.390 143.731 L 117 145.465 117 159.187 L 117 172.909 120.750 173.542 C 122.813 173.890, 125.287 174.391, 126.250 174.655 C 127.854 175.095, 128 174.005, 128 161.567 C 128 154.105, 128.338 148.006, 128.750 148.014 C 129.162 148.021, 130.512 148.299, 131.750 148.630 C 133.930 149.214, 134 149.620, 134 161.617 C 134 175.515, 134.098 175.657, 141.532 172.551 L 145 171.102 145 162.051 C 145 157.073, 145.418 153, 145.929 153 C 146.440 153, 148.465 154.516, 150.429 156.368 C 153.395 159.165, 154 160.431, 154 163.833 C 154 169.112, 149.756 174.160, 143.203 176.676 C 137.582 178.833, 123.728 179.094, 117.193 177.164 C 111.802 175.572, 105.468 169.947, 103.976 165.426 C 103.351 163.533, 102.005 161.538, 100.986 160.992 C 98.532 159.679, 79.404 159.713, 76.934 161.035 C 74.616 162.276, 74.500 164.955, 76.478 171.614 C 80.766 186.053, 92.716 194.860, 114.250 199.452 C 116.761 199.987, 117 200.434, 117 204.585 C 117 210.888, 118.339 213, 122.335 213 C 126.778 213, 128 211.446, 128 205.800 C 128 201.133, 128.083 201, 131 201 C 133.841 201, 134 201.215, 134 205.066 C 134 210.930, 135.412 213, 139.413 213 C 143.779 213, 144.815 211.570, 145.190 205.029 L 145.500 199.618 152.159 197.942 C 161.938 195.481, 167.813 192.294, 174.090 186.045 C 180.574 179.590, 183.200 173.238, 183.200 164.009 C 183.200 152.791, 178.437 144.178, 168.782 137.938 C 160.795 132.775, 155.461 130.901, 136.580 126.621 C 118.561 122.538, 112.638 120.094, 109.906 115.613 C 107.616 111.859, 107.500 108.867, 109.494 105.011 C 110.919 102.256, 114.564 99, 116.223 99 C 116.650 99, 117 103.001, 117 107.891 L 117 116.783 121.020 118.391 C 128.114 121.230, 128 121.400, 128 108 L 128 96 131 96 L 134 96 134 108.875 L 134 121.750 136.883 122.327 C 138.469 122.644, 140.944 123.199, 142.383 123.560 L 145 124.217 145 112.108 C 145 105.449, 145.406 100, 145.902 100 C 146.397 100, 148.085 101.596, 149.652 103.547 C 156.805 112.456, 155.867 112, 167.020 112 C 178.899 112, 181.004 111.204, 180.990 106.715 C 180.966 98.630, 172.360 87.115, 162.317 81.728 C 149.779 75.003, 126.936 72.900, 111.202 77.022 M 18.997 135.002 C 17.319 136.039, 17.493 141.460, 19.514 151.065 C 27.565 189.340, 56.345 221.326, 93.500 233.295 C 106.668 237.537, 112.752 238.445, 128 238.445 C 143.258 238.445, 149.409 237.533, 162.500 233.327 C 189.951 224.507, 213.882 203.962, 226.944 178 C 234.979 162.029, 240.764 137.326, 237.012 135.008 C 234.017 133.156, 232.394 135.681, 231.112 144.187 C 227.674 166.997, 216.867 187.373, 199.417 203.949 C 187.165 215.587, 173.657 223.340, 156.299 228.695 C 148.030 231.246, 146.355 231.409, 128.500 231.400 C 107.623 231.390, 102.041 230.405, 86.743 224.037 C 71.662 217.759, 54.502 204.133, 43.969 190.072 C 34.386 177.278, 26.112 156.952, 24.427 142.061 C 23.708 135.700, 21.826 133.254, 18.997 135.002" stroke="none" fill="black" fill-rule="evenodd"/>
	<path fill-opacity="0.269" d="M 104.500 8.981 C 61.312 17.677, 26.592 48.455, 12.591 90.455 C 4.935 113.421, 5.086 143.421, 12.977 167 C 22.798 196.348, 45.543 222.306, 73.889 236.516 C 91.084 245.137, 107.859 249, 128.096 249 C 162.479 249, 192.884 235.911, 216.286 211.034 C 228.552 197.995, 237.280 183.394, 243.140 166.111 C 247.281 153.898, 249 142.693, 249 127.904 C 249 93.521, 235.911 63.116, 211.034 39.714 C 193.835 23.534, 171.831 12.422, 149.164 8.469 C 137.511 6.437, 115.904 6.685, 104.500 8.981 M 108.655 18.597 C 61.672 27.085, 25.406 64.452, 18.074 111.928 C 17.083 118.344, 17.138 119.567, 18.482 120.911 C 21.303 123.731, 23.371 121.078, 24.726 112.899 C 29.564 83.700, 45.784 57.766, 69.116 41.922 C 78.076 35.837, 92.333 29.380, 102.560 26.776 C 110.267 24.814, 113.913 24.511, 129 24.576 C 145.017 24.646, 147.263 24.882, 155.500 27.360 C 184.930 36.214, 207.152 54.246, 220.372 80 C 226.322 91.593, 227.783 95.830, 230.373 109.006 C 232.761 121.154, 234.463 123.965, 237.558 120.870 C 239.019 119.409, 239.018 118.490, 237.551 109.986 C 228.158 55.559, 181.877 16.627, 127.119 17.090 C 121.279 17.139, 112.970 17.817, 108.655 18.597 M 88.571 50.571 C 86.556 52.587, 86.556 56.413, 88.571 58.429 C 89.950 59.808, 95.315 60, 132.371 60 C 163.883 60, 174.905 59.695, 175.800 58.800 C 177.350 57.250, 177.350 51.750, 175.800 50.200 C 174.905 49.305, 163.883 49, 132.371 49 C 95.315 49, 89.950 49.192, 88.571 50.571 M 117 67.500 L 117 71 122.500 71 L 128 71 128 67.500 L 128 64 122.500 64 L 117 64 117 67.500 M 134 67.500 C 134 70.904, 134.107 71, 137.918 71 C 140.073 71, 142.548 71.273, 143.418 71.607 C 144.702 72.100, 145 71.441, 145 68.107 L 145 64 139.500 64 L 134 64 134 67.500 M 120.799 75.090 C 90.814 78.231, 72.831 98.232, 79.575 120.941 C 82.564 131.007, 95.544 140.508, 111.250 144.129 L 117 145.455 117 159.160 C 117 174.323, 116.440 173.140, 124.250 174.458 L 128 175.091 128 161.438 C 128 149.400, 128.187 147.858, 129.582 148.393 C 130.452 148.727, 131.802 149, 132.582 149 C 133.730 149, 134 151.376, 134 161.500 C 134 173.955, 134.008 174, 136.351 174 C 137.644 174, 140.103 173.511, 141.816 172.914 L 144.930 171.829 145.215 162.343 L 145.500 152.856 149 155.212 C 155.557 159.625, 155.366 168.392, 148.603 173.437 C 143.830 176.999, 138.296 178.383, 129 178.341 C 115.625 178.280, 108.108 174.251, 103.507 164.677 L 101.500 160.500 89.642 160.217 C 81.264 160.018, 77.342 160.301, 76.278 161.184 C 72.344 164.449, 78.653 180.926, 86.430 187.695 C 91.854 192.417, 100.788 196.594, 109.707 198.578 L 117 200.201 117 205.577 C 117 210.180, 117.353 211.185, 119.451 212.560 C 121.993 214.225, 125.821 213.761, 127.235 211.615 C 127.639 211.002, 127.976 208.363, 127.985 205.750 C 127.999 201.161, 128.100 201, 130.948 201 C 133.796 201, 133.906 201.176, 134.198 206.217 C 134.451 210.586, 134.906 211.658, 137 212.808 C 138.896 213.850, 140.165 213.924, 142.250 213.116 C 144.825 212.117, 145 211.669, 145 206.063 L 145 200.077 149.250 198.982 C 161.999 195.698, 166.680 193.362, 173.574 186.841 C 180.538 180.255, 183.292 173.852, 183.400 164 C 183.468 157.711, 183.029 155.576, 180.680 150.776 C 177.492 144.263, 171.989 139.074, 164 135.049 C 156.610 131.326, 151.062 129.610, 134.500 125.927 C 118.008 122.259, 111.375 119.141, 109.250 114.056 C 107.346 109.498, 108.929 103.898, 112.929 101.050 C 114.513 99.923, 116.060 99, 116.367 99 C 116.674 99, 117.054 103.121, 117.212 108.157 L 117.500 117.314 122.750 119.096 L 128 120.878 128 109.022 C 128 96.762, 128.345 95.767, 132.250 96.779 C 133.797 97.181, 134 98.657, 134 109.498 L 134 121.763 138.443 122.881 C 140.886 123.497, 143.361 124, 143.943 124 C 144.627 124, 145 119.766, 145 112 C 145 105.400, 145.403 100, 145.896 100 C 146.999 100, 153 106.727, 153 107.963 C 153 108.455, 153.707 109.564, 154.571 110.429 C 156.568 112.425, 177.862 112.738, 179.800 110.800 C 183.265 107.335, 177.944 93.698, 170.682 87.429 C 159.159 77.484, 140.950 72.979, 120.799 75.090 M 18.057 135.431 C 17.136 136.542, 17.226 138.926, 18.461 146.082 C 24.913 183.472, 49.418 214.822, 84.083 230.037 C 88.015 231.762, 95.567 234.341, 100.866 235.767 C 109.504 238.092, 112.309 238.360, 128 238.360 C 143.836 238.360, 146.451 238.105, 155.500 235.676 C 199.059 223.984, 231.081 188.398, 237.926 144.072 C 238.917 137.656, 238.862 136.433, 237.518 135.089 C 234.697 132.269, 232.629 134.922, 231.274 143.101 C 226.436 172.300, 210.216 198.234, 186.884 214.078 C 177.924 220.163, 163.667 226.620, 153.440 229.224 C 145.733 231.186, 142.087 231.489, 127 231.424 C 110.983 231.354, 108.737 231.118, 100.500 228.640 C 71.093 219.793, 49.001 201.878, 35.584 176 C 30.076 165.375, 27.576 157.988, 25.416 145.946 C 24.484 140.751, 23.279 135.938, 22.738 135.250 C 21.435 133.593, 19.521 133.667, 18.057 135.431" stroke="none" fill="black" fill-rule="evenodd"/>
	<path fill-opacity="0.181" d="M 107.136 8.606 C 57.306 16.959, 16.638 58.125, 8.471 108.477 C -1.155 167.827, 33.814 224.638, 91.578 243.494 C 114.433 250.954, 142.995 250.761, 166.195 242.988 C 208.680 228.754, 240.390 191.534, 247.529 147.523 C 257.155 88.173, 222.186 31.362, 164.422 12.506 C 147.941 7.126, 125.198 5.578, 107.136 8.606 M 106 18.908 C 70.726 26.714, 43.313 47.958, 27.965 79.381 C 23.034 89.477, 18.832 103.411, 17.509 114.052 C 16.744 120.208, 18.197 122.707, 21.864 121.543 C 23.349 121.072, 23.983 119.662, 24.484 115.711 C 29.939 72.714, 61.384 37.408, 103.693 26.776 C 110.941 24.955, 115.333 24.561, 128.500 24.552 C 142.770 24.542, 145.527 24.827, 154 27.189 C 179.548 34.313, 200.915 49.631, 214.802 70.779 C 223.862 84.578, 227.730 95.161, 231.689 116.987 C 232.564 121.810, 234.781 123.256, 237.649 120.876 C 239.510 119.332, 239.023 113.926, 235.868 101.114 C 226.256 62.085, 195.307 30.609, 156.477 20.369 C 142.801 16.762, 118.831 16.069, 106 18.908 M 88.200 50.200 C 86.636 51.764, 86.663 56.159, 88.250 58.322 C 89.399 59.888, 92.962 60.005, 132.487 59.763 L 175.473 59.500 176.747 56.842 C 177.651 54.956, 177.735 53.432, 177.035 51.592 L 176.050 49 132.725 49 C 100.361 49, 89.096 49.304, 88.200 50.200 M 117 68.107 C 117 71.441, 117.298 72.100, 118.582 71.607 C 119.452 71.273, 121.927 71, 124.082 71 C 127.893 71, 128 70.904, 128 67.500 L 128 64 122.500 64 L 117 64 117 68.107 M 134 67.373 C 134 70.709, 134.056 70.751, 139.250 71.262 C 142.137 71.545, 144.838 71.576, 145.250 71.330 C 145.662 71.083, 146 69.334, 146 67.441 L 146 64 140 64 L 134 64 134 67.373 M 118.536 75.046 C 100.925 77.809, 87.165 86.064, 81.170 97.460 C 78.872 101.828, 78.518 103.699, 78.516 111.500 C 78.514 122.065, 80.201 126.165, 87.208 132.624 C 93.162 138.112, 100.473 141.435, 115.750 145.597 C 116.671 145.848, 117 149.482, 117 159.422 L 117 172.906 120.750 173.947 C 128.292 176.042, 128 176.537, 128 161.673 L 128 148.346 131 148.787 L 134 149.227 134 162.133 L 134 175.038 136.750 174.386 C 138.262 174.027, 140.963 173.142, 142.750 172.418 L 146 171.102 146 162.551 C 146 157.848, 146.366 154, 146.813 154 C 148.344 154, 152.857 159.498, 153.516 162.165 C 154.549 166.348, 151.454 171.650, 146.169 174.747 C 142.313 177.006, 140.140 177.489, 132.266 177.833 C 121.545 178.302, 115.710 177.022, 110.122 172.973 C 108.041 171.466, 105.739 168.718, 105.005 166.867 C 102.367 160.211, 101.876 160, 89.045 160 C 81.321 160, 76.996 160.404, 76.200 161.200 C 74.382 163.018, 74.756 168.274, 77.163 174.705 C 81.458 186.186, 93.760 195.309, 109.574 198.740 L 117 200.352 117 205.604 C 117 213.036, 120.549 215.917, 126.066 212.965 C 127.616 212.135, 128 210.844, 128 206.465 C 128 201.059, 128.033 201, 131 201 C 133.928 201, 134 201.119, 134 205.929 C 134 211.386, 135.743 214, 139.380 214 C 143.521 214, 145.277 211.710, 145.779 205.655 L 146.247 200.011 150.373 198.946 C 157.628 197.074, 158.395 196.792, 164.332 193.814 C 177.041 187.439, 183.276 177.850, 183.393 164.500 C 183.480 154.447, 180.838 147.993, 174.025 141.620 C 165.980 134.095, 158.219 130.920, 136 126.065 C 120.819 122.748, 116.617 121.232, 112.121 117.448 C 109.476 115.222, 109 114.135, 109 110.311 C 109 106.414, 109.510 105.303, 112.750 102.150 L 116.500 98.500 117 108 L 117.500 117.500 122.500 119.159 L 127.500 120.819 127.781 108.909 L 128.062 97 131.031 97 L 134 97 134 109.393 C 134 123.108, 133.615 122.370, 141.372 123.533 L 146 124.227 146 112.614 C 146 106.144, 146.411 101, 146.927 101 C 148.008 101, 150.775 104.483, 153.203 108.902 L 154.907 112 166.882 112 C 180.614 112, 182.584 111.140, 181.477 105.626 C 179.493 95.737, 170.635 85.006, 160.718 80.477 C 149.393 75.305, 131.535 73.006, 118.536 75.046 M 18.028 135.467 C 16.979 136.730, 16.962 138.467, 17.941 144.532 C 25.078 188.774, 56.747 224.160, 99.523 235.689 C 108.549 238.122, 111.215 238.384, 127.500 238.439 C 143.324 238.493, 146.574 238.216, 154.386 236.151 C 194.571 225.529, 225.757 195.051, 235.400 156.977 C 238.893 143.189, 239.556 136.707, 237.639 135.115 C 234.635 132.622, 232.231 134.654, 231.516 140.289 C 226.061 183.286, 194.616 218.592, 152.307 229.224 C 145.059 231.045, 140.667 231.439, 127.500 231.448 C 113.230 231.458, 110.473 231.173, 102 228.811 C 76.452 221.687, 55.085 206.369, 41.198 185.221 C 32.136 171.420, 28.247 160.774, 24.311 139 C 23.683 135.525, 23.023 134.432, 21.411 134.202 C 20.264 134.038, 18.741 134.607, 18.028 135.467" stroke="none" fill="black" fill-rule="evenodd"/>
</svg>