<?xml version="1.0"?><svg xmlns="http://www.w3.org/2000/svg" width="36" height="36" shape-rendering="geometricPrecision" text-rendering="geometricPrecision" image-rendering="optimizeQuality" fill-rule="evenodd" clip-rule="evenodd" viewBox="0 0 36 36"><path d="m0.6-0.1h0.2c0 0.1 0.1 0.2 0.2 0.3-0.2 0-0.4 0.1-0.6 0.3l0.1 0.1c0.5-0.2 0.8-0.4 1.2-0.7h0.2c0.5 0.2 0.9 0.2 1.4 0h0.2c0.1 0.2 0.2 0.2 0.4 0h0.1c0.9 0.2 1.8 0.2 2.8 0h0.1c0.2 0.2 0.3 0.2 0.4 0h0.2c0 0.2 0.1 0.2 0.1 0h0.4c0.5 0.2 1 0.2 1.4 0h0.4c0 0.6 0.1 0.7 0.5 0.5-0.2-0.1-0.3-0.3-0.3-0.5h0.2c0.1 0.1 0.3 0.2 0.5 0.3-0.1 0.2-0.1 0.4 0.2 0.6-0.4 0.1-0.8 0.1-1.2 0.2 0-0.2-0.1-0.4-0.3-0.6-0.7-0.2-1.5-0.1-2.3 0.2-0.2-0.2-0.5-0.3-0.9-0.3-0.4 0-0.8 0.1-1.1 0.4 0.3 0.1 0.4 0 0.5-0.3 0.2 0.3 0.3 0.6 0.2 0.9-0.1 0-0.3 0.1-0.5 0.1 0.5 0.5 0.8 0.4 1-0.2 0.1 0.2 0.3 0.2 0.4 0 0.2 0.1 0.3 0.3 0.3 0.5 0.5-0.1 0.5-0.3 0.1-0.4 0.1-0.2 0.2-0.4 0.4-0.5 0.2 0.1 0.2 0.2 0 0.3 0.5 0 1 0.1 1.4 0.4 0.1-0.1 0.2-0.2 0.3-0.3 0 0.1 0.1 0.2 0.2 0.3 0.2-0.2 0.4-0.2 0.6 0-0.3 0.2-0.6 0.3-0.9 0.4-0.1 0.2-0.3 0.4-0.6 0.3 0-0.2-0.1-0.2-0.1 0-0.2 0-0.2 0.1-0.2 0.2-0.1 0.2-0.2 0.3-0.4 0.4 0-0.2-0.1-0.2-0.2 0 0 0.2-0.1 0.3-0.3 0.3l-0.2 0.4c-0.3 0.1-0.5 0.2-0.7 0.4-0.2-0.2-0.4-0.2-0.6 0.1 0.1 0 0.2 0.1 0.2 0 0 0.2-0.2 0.4-0.3 0.4-0.3 0-0.4 0.1-0.2 0.2-0.5 0.6-1 1.1-1.6 1.6-0.2 0.4-0.4 0.8-0.8 1.1 0-0.2-0.2-0.3-0.3-0.5 0.2-0.3 0.2-0.4-0.1-0.2-0.1 0.4-0.1 0.8 0.1 1.2 0 0.2-0.1 0.2-0.2 0.2s-0.2 0.1-0.2 0.2c0-0.3-0.1-0.5-0.2-0.7-0.3-0.1-0.6 0-0.9 0.2 0.3 0.2 0.3 0.2 0 0.3-0.1-0.7-0.3-0.7-0.4 0-0.2-0.7-0.3-0.6-0.3 0.2-0.3-0.2-0.6-0.5-0.7-0.9v-0.6c0.2 0 0.2-0.1 0-0.1v-0.6c0.2 0 0.2-0.1 0-0.2v-1.2c0.6 0 1.2-0.1 1.6-0.2-0.5-0.1-1-0.1-1.6 0v-1.1c0.2 0 0.2-0.1 0-0.2v-0.1c0.7-0.2 0.7-0.4 0-0.6v-0.9c0.1 0 0.2 0.1 0.3 0.2 0-0.3 0.1-0.5 0.2-0.8-0.1-0.1-0.3-0.1-0.5-0.1v-0.2c0.5-0.1 0.5-0.2 0-0.3v-0.2c0.3 0 0.5 0 0.7-0.2z m1.3 0.4c0.4 0 0.5 0.1 0.1 0.3-0.1-0.1-0.1-0.2-0.1-0.3z m1.1 0.2c0.2-0.3 0.5-0.3 0.9 0-0.1 0.1-0.1 0.1-0.2 0.1-0.2-0.1-0.4-0.2-0.7-0.1z m1.2 0.3l0.3-0.5c0.1 0.3 0 0.4-0.3 0.5z m-0.5-0.2c0.1 0.2 0.3 0.3 0.5 0.2v0.2c-0.3 0-0.6-0.1-0.9-0.3 0.1-0.1 0.3-0.1 0.4-0.1z m-1.3 0.2c0.3 0 0.5 0.1 0.8 0.3-0.4 0.1-0.6 0-0.8-0.3z m1.8 0.2c0.6 0.1 0.6 0.2 0.2 0.4l-0.2-0.4z m-3.4 0.5c0.1-0.2 0.2-0.2 0.4 0-0.1 0.2-0.2 0.2-0.4 0z m3.6-0.1c-0.4 0.1-0.6 0.4-0.6 0.9-0.1-0.3-0.1-0.5-0.1-0.8-0.2 0.1-0.4 0-0.5-0.1 0.4 0 0.8-0.1 1.2-0.1z m3.3 0c0.6-0.2 0.8 0 0.4 0.5-0.3-0.1-0.4-0.3-0.5-0.5z m-3.6 2.3c-0.3 0.2-0.4 0.2-0.6-0.1 0-0.2 0.1-0.4 0.2-0.6-0.4-0.2-0.4-0.4-0.1-0.6 0.3 0.1 0.7 0.3 1 0.4-0.2 0.1-0.4 0.1-0.7 0-0.1 0.3 0 0.6 0.2 0.9z m3-0.9c-0.4 0-0.7 0-1.1 0.2 0-0.2-0.2-0.2-0.3-0.3 0.5-0.4 1-0.3 1.4 0.1z m-4.5 0.3c-0.5 0.2-0.5 0.3 0 0.4v0.2c-0.2 0-0.2 0.1 0 0.2-0.1 0.2-0.3 0.2-0.5 0-0.1-0.2-0.2-0.5-0.2-0.7 0.2-0.5 0.4-0.5 0.7 0z m4.5-0.3c0.2 0.1 0.2 0.2 0.2 0.3-0.4 0.1-0.5-0.1-0.2-0.3z m-6.8 0.5c0-0.1 0.1-0.3 0.2-0.3 0.2 0.1 0.4 0.1 0.6 0l0.2 0.5c0-0.2 0.2-0.4 0.3-0.5 0.1 0.4-0.1 0.8-0.4 1.1-0.4-0.2-0.4-0.4-0.2-0.7-0.2-0.1-0.5-0.1-0.7-0.1z m4.7-0.3c0.2 0.1 0.2 0.2 0 0.3-0.2-0.1-0.2-0.2 0-0.3z m1 0c0.3 0.5 0.2 0.6-0.3 0.3 0-0.2 0.2-0.3 0.3-0.3z m-3.4 0.2h0.6c-0.2 0.1-0.4 0.2-0.6 0.3v-0.3z m3.1 0.1c-0.2 0.3-0.3 0.6-0.1 0.9-0.2-0.2-0.3-0.3-0.5-0.5 0.2-0.2 0.4-0.3 0.6-0.4z m-5.4 0.2c0.4 0.1 0.4 0.2 0 0.4-0.2-0.1-0.2-0.2 0-0.4z m1.8 0.7c0.2 0.1 0.2 0.3 0 0.4-0.2-0.1-0.2-0.2 0-0.4z m-1.3 0.6c0.3 0 0.4 0.1 0.2 0.3-0.2-0.1-0.2-0.2-0.2-0.3z m0 1.1c0.2-0.1 0.4 0 0.6 0.1-0.3 0.2-0.3 0.5 0 0.7-0.3-0.1-0.6-0.3-0.8-0.6 0.1 0 0.2-0.1 0.2-0.3z m-0.2 0.9c0.2 0.1 0.4 0.3 0.6 0.4-0.6 0.2-0.7 0-0.6-0.4z m11.2-6.9h0.2c0.1 0.2 0.3 0.2 0.5 0h0.2l0.7 0.4-0.4 0.2c-0.3-0.3-0.4-0.3-0.5 0-0.1 0.1-0.2 0.2-0.4 0.1l-0.3-0.7z m10.4 0h0.2c0.1 0.1 0.3 0.2 0.5 0.3-0.1 0-0.1 0.1-0.1 0.3-0.4-0.1-0.7-0.3-0.9-0.4 0.1 0 0.3 0 0.3-0.2z m0.9 0h0.2v0.2l-0.2-0.2z m0.6 0h0.1c0.3 0.2 0.3 0.4-0.1 0.5 0.2 0 0.4 0.1 0.6 0.2l0.2-0.5 0.2 0.2c0.4-0.1 0.9-0.3 1.3-0.4h0.2c0 0.1 0 0.3 0.1 0.4 0.5-0.1 1-0.3 1.5-0.4h0.2c0.1 0.2 0.2 0.2 0.3 0h0.2c0.2 0.2 0.3 0.2 0.4 0h0.2c0.6 0.2 1.2 0.2 1.8 0h0.1c0.2 0.2 0.4 0.2 0.6 0h0.2c1 0.2 2 0.2 3 0h0.2c0.3 0.2 0.6 0.2 0.9 0.2v0.2c-0.2 0-0.2 0.1 0 0.1v0.2c-0.1 0.1-0.2 0.2-0.3 0.4-0.1-0.4-0.3-0.4-0.6 0 0.2 0.1 0.3 0.2 0.5 0.3 0.1-0.1 0.2-0.1 0.4-0.1v0.1c-0.2 0.1-0.2 0.2 0 0.2v1.5c-0.4 0.2-0.9 0.3-1.3 0.3 0.2 0.1 0.3 0.2 0.4 0.3-0.4 0.1-0.8 0.1-1.2 0 0.2-0.2 0.2-0.4-0.1-0.6-0.1 0.3-0.2 0.6-0.1 0.9 0.8 0 1.6 0 2.3 0v0.5c-0.9-0.2-1.9-0.2-2.9 0.1 0.7 0 1.3 0.1 1.9 0.5 0.3-0.4 0.6-0.5 1-0.4v0.7c-0.2 0.1-0.2 0.1 0 0.2v0.3c-0.2 0.1-0.2 0.2 0 0.2v1.1c-0.4 0-0.7-0.1-1-0.4-0.4 0.4-0.7 0.4-1.1 0-0.1 0.4-0.2 0.5-0.5 0.2-0.2 0.1-0.4 0.3-0.6 0.4-0.3-0.1-0.4-0.3-0.4-0.6-0.3-0.1-0.4-0.4-0.5-0.7 0-0.1-0.1-0.2-0.2-0.2-0.2 0-0.3-0.1-0.4-0.3-0.2-0.1-0.3-0.2-0.3-0.4 0-0.1-0.1-0.2-0.2-0.2s-0.2 0-0.2-0.1c0.3-0.1 0.5-0.2 0.7-0.4-0.4 0.1-0.8 0-1.2-0.2-0.2 0-0.2 0-0.2-0.2 0.2 0.1 0.3 0 0.5-0.2-0.3-0.2-0.6-0.1-0.9 0.1-0.2-0.1-0.3-0.2-0.3-0.4 0.2-0.2 0.2-0.3-0.1-0.5-0.1 0.1-0.1 0.3-0.1 0.5-0.1 0-0.2 0-0.2-0.2 0-0.2-0.1-0.3-0.4-0.3-0.3-0.1-0.5-0.3-0.7-0.6 0-0.2-0.1-0.2-0.2 0-0.6-0.4-1.3-0.8-2.1-1.1 0-0.2 0-0.4-0.1-0.7-0.1 0.3-0.2 0.4-0.4 0.4 0-0.1-0.1-0.3-0.1-0.4-0.2 0.2-0.3 0.2-0.5 0.2-0.4 0-0.8-0.1-1.1-0.4l0.2-0.3c0.2 0 0.3 0 0.4-0.2z m4.3 0.6c0.1 0.1 0.3 0.3 0.4 0.5 0.2-0.2 0.4-0.2 0.5 0-1.1-0.1-2.1 0-3.2 0.4-0.2-0.2-0.3-0.3-0.1-0.5 0.2-0.1 0.4-0.1 0.5 0.1 0.2-0.3 0.4-0.4 0.6-0.2 0.1 0.2 0.2 0.2 0.2 0 0.3-0.1 0.5-0.1 0.7 0 0.2-0.1 0.3-0.2 0.4-0.3z m7 0.5l-0.7 0.4c-0.1-0.1-0.2-0.2-0.4-0.2l-0.1 0.3c-0.4-0.3-0.8-0.4-1.3-0.2 0.2 0.1 0.2 0.2 0 0.2-0.4-0.3-0.8-0.4-1.3-0.3 0.1 0.6-0.1 0.7-0.5 0.2l0.4-0.1c-0.5-0.2-1-0.1-1.4 0.1-0.1-0.2-0.1-0.3-0.3-0.4 0.9-0.1 1.7-0.1 2.5 0 0.2-0.1 0.4-0.2 0.5-0.4l1.6 0.4c0.1-0.5 0.3-0.5 0.4 0 0.2-0.1 0.4-0.1 0.6 0z m-5.6 0c-0.1 0.4-0.2 0.4-0.5 0 0.2-0.2 0.4-0.2 0.5 0z m2.4 0.4c0.4 0 0.5 0.1 0.1 0.3-0.1-0.1-0.2-0.2-0.1-0.3z m-2.7 2.1h-0.2c0-0.2 0-0.4 0.1-0.5 0.3 0.2 0.3 0.3 0.1 0.5z m0.5-0.5c0.3 0 0.6 0.1 0.7 0.4-0.3 0.2-0.6 0.1-0.9-0.1 0.1-0.1 0.2-0.2 0.2-0.3z m1.3 0.5h0.2c-0.1-0.2 0-0.3 0.1-0.3 0 0 0.1 0.1 0.2 0.1 0.3-0.2 0.6-0.4 0.9-0.3 0 0.2 0 0.5 0.1 0.7 0.1-0.1 0.2-0.2 0.3-0.2 0.2 0.2 0.4 0.2 0.7 0.3-0.8 0-1.6 0.1-2.3 0.3-0.6-0.3-0.7-0.6-0.4-1.1 0.1 0.1 0.2 0.3 0.2 0.5z m3.7-0.2c-0.1 0.2-0.3 0.3-0.5 0.2 0-0.2 0-0.4 0.1-0.5 0.1 0.1 0.3 0.2 0.5 0.3z m-1.9 0.2c-0.1-0.1 0-0.2 0.1-0.3 0.2 0 0.4 0.1 0.6 0.1-0.2 0.2-0.5 0.3-0.7 0.2z m-1.3 0.7c0.6 0 0.7 0.1 0.2 0.4-0.2-0.1-0.2-0.2-0.2-0.4z m0.7 0c0.3 0.1 0.5 0.2 0.8 0.2l-0.4 0.2c-0.2-0.1-0.3-0.2-0.4-0.4z m1.3 0.9c0.2 0.1 0.2 0.3 0 0.4-0.2-0.1-0.2-0.2 0-0.4z m1.4 0.4c0.2-0.2 0.3-0.2 0.6-0.1-0.2 0.3-0.4 0.3-0.6 0.1z m-1.4 0.4c0 0.1 0 0.1 0.2 0.1-0.3 0.2-0.5 0.3-0.8 0.4-0.2-0.2-0.2-0.5 0-0.7l0.1 0.3c0.2-0.1 0.3-0.2 0.5-0.1z m-1.1 0.5c-0.1-0.1-0.2-0.2-0.2-0.4 0.4-0.2 0.5 0 0.2 0.4z m1.3-0.4v-0.1c0.6 0.1 1.2 0.1 1.8 0.1-0.5 0.2-0.9 0.4-1.4 0.6-0.1-0.2-0.3-0.4-0.4-0.6z m-0.4 0.4c0.2 0 0.3 0.1 0.4 0.3-0.3 0.1-0.6 0.1-0.9 0 0.2-0.1 0.4-0.2 0.5-0.3z m-22.3-6.1c0.2-0.2 0.4-0.3 0.7-0.1-0.2 0.1-0.5 0.1-0.7 0.1z" opacity=".004"></path><path fill="#ceae50" d="m13.8-0.1h0.1c0.3 0.2 0.5 0.2 0.8 0h6.3c0.2 0.2 0.5 0.2 0.9 0.2 0.2 0.1 0.5 0.3 0.9 0.3h0.3c0.3 0.3 0.7 0.4 1.1 0.4v0.2c-3.3-0.9-6.7-1.1-10.1-0.6-0.3 0-0.5 0.1-0.7 0.2-0.4 0.1-0.8 0.2-1.3 0.2v-0.2c0.2 0.1 0.3 0 0.4-0.1h0.5l0.4-0.2c0.2-0.1 0.3-0.2 0.4-0.4z" opacity=".224"></path><path d="m7.1 0.6c0 0.2 0 0.3-0.1 0.4-0.2-0.2-0.4-0.2-0.6 0-0.2-0.2-0.2-0.3-0.2-0.6 0.3 0 0.6 0.1 0.9 0.2z m0.5 0c0.3-0.1 0.6-0.1 0.9-0.1 0.1 0.1 0.2 0.2 0.4 0.2-0.2 0.2-0.5 0.3-0.8 0.3-0.1-0.2-0.3-0.3-0.5-0.4z m1.8-0.2l-0.2 0.6c-0.2-0.3-0.1-0.5 0.2-0.6z m2.8 0.2v0.2h-0.6c-0.2 0-0.3 0-0.3 0.2h-0.2c0-0.1-0.1-0.2-0.2-0.2 0.3-0.4 0.8-0.5 1.3-0.2z" opacity=".004"></path><path fill="#e4d99b" d="m24.2 1c0.8 0.4 1.6 0.9 2.4 1.4l-0.1 0.2c-0.8-0.5-1.7-0.8-2.6-0.9-1.3-0.4-2.7-0.7-4-0.9-1.5-0.2-2.9-0.2-4.3 0h-0.4c-0.6 0.1-1.2 0-1.8-0.2 0.2-0.1 0.4-0.2 0.7-0.2 3.4-0.5 6.8-0.3 10.1 0.6z"></path><path d="m10.7 1.2c-0.1 0.1-0.2 0.2-0.4 0.1-0.2 0-0.3-0.1-0.2-0.3 0.2 0.1 0.4 0.2 0.6 0.2z" opacity=".004"></path><path fill="#e80a25" d="m15.2 0.8h0.4c0.6 0 1.3 0 1.9 0.1-0.3 0.4-0.7 0.9-1 1.4-4 2.1-7.9 4.3-11.7 6.6-0.5 0-1 0-1.4 0.2-0.1-0.1-0.1-0.2-0.1-0.4 0.7-1.1 1.6-2.1 2.5-3 2.7-2.5 5.8-4.1 9.4-4.9z"></path><path fill="#a2917b" d="m15.6 0.8c1.4-0.2 2.8-0.2 4.3 0-0.5 0-1 0-1.5 0.1 0.3 0.4 0.5 0.8 0.8 1.2-0.3 0-0.5 0.2-0.6 0.5-0.1 0-0.3 0-0.3 0.2h-0.7c-0.3-0.2-0.5-0.2-0.8 0 0.3-0.6 0.2-0.8-0.3-0.5 0.3-0.5 0.7-1 1.1-1.4-0.7-0.1-1.4-0.1-2-0.1z"></path><path fill="#c4ae6f" d="m13.4 0.6c0.6 0.2 1.2 0.3 1.8 0.2-3.6 0.8-6.7 2.4-9.3 4.9-0.2-0.2-0.4-0.4-0.6-0.5 0.6-0.6 1.2-1.2 1.8-1.7l0.2-0.4c0.2 0 0.3-0.1 0.4-0.3h0.1c0.2-0.1 0.3-0.2 0.4-0.4 0.1 0 0.2 0 0.2-0.1h0.2c0.2 0 0.4-0.2 0.5-0.4 0.3-0.1 0.6-0.2 0.9-0.4 0.2 0.1 0.3 0 0.3-0.1 0.2 0 0.3-0.1 0.4-0.2 0.2 0 0.3-0.1 0.4-0.2h0.1c0.2 0 0.3 0 0.4-0.2h0.5c0.5 0 0.9-0.1 1.3-0.2z"></path><path fill="#e80925" d="m19.9 0.8c1.3 0.2 2.7 0.5 4 0.9 1.8 0.8 3.6 1.8 5.2 3.1 0.5 0.6 1.1 1.2 1.8 1.8 0.6 0.8 1.2 1.6 1.8 2.5-0.6-0.2-1.1-0.2-1.6-0.2-4-2.3-7.9-4.6-11.9-6.8-0.3-0.4-0.5-0.8-0.7-1.2 0.4-0.1 0.9-0.1 1.4-0.1z"></path><path d="m2.6 3.1v0.4c-0.5-0.1-0.5-0.2 0-0.4z m33.1 0.2c-0.1-0.2-0.1-0.2 0 0z m-3.8 0c0.1 0.1 0.1 0.2 0.2 0.3-0.4 0.1-0.7 0.1-1-0.1 0.3 0 0.6 0 0.9-0.2z m3.8 0h0.2v0.4c-0.2 0-0.5 0-0.7-0.1 0.2 0 0.4-0.1 0.5-0.3z" opacity=".004"></path><path fill="#c8ab62" d="m24.2 1h0.6c0.1 0.2 0.3 0.3 0.5 0.4 0.8 0.2 1.5 0.6 2.1 1h0.2c0.2 0.3 0.4 0.5 0.7 0.6 0.1 0.2 0.2 0.3 0.4 0.3 0 0.2 0.1 0.2 0.2 0.2h0.2c0 0.2 0.1 0.3 0.3 0.4l0.4 0.1c0 0.2 0 0.2 0.2 0.2 0.1 0.3 0.3 0.4 0.5 0.6 0 0.1 0.1 0.1 0.2 0.1s0.2 0.1 0.2 0.2c0 0.2 0.1 0.3 0.3 0.4 0.1 0.2 0.2 0.3 0.4 0.3 0.1 0 0.2 0.1 0.2 0.2 0.1 0.3 0.2 0.6 0.5 0.7 0 0.3 0.1 0.5 0.4 0.6l0.3 0.3c0.1 0.5 0.4 0.8 0.7 0.9 0 0.3 0.1 0.6 0.2 0.8 0.1 0.1 0.2 0.3 0.2 0.5 0.1 0.2 0.3 0.4 0.5 0.5-0.2 0.3-0.2 0.4 0.2 0.4l0.2 0.7c-0.2 0.1-0.2 0.2 0 0.2 0.1 0.1 0.2 0.2 0.4 0.3-0.2 0.2-0.2 0.3 0.1 0.2 0 0.2-0.1 0.3-0.3 0.3 0 0.1 0.1 0.1 0.2 0.1v0.4c-0.1 0.1 0 0.3 0.1 0.3v0.6c0 0.1 0.1 0.1 0.2 0.1 0 0.2 0.1 0.2 0.2 0.2v0.2c-0.2 0.1-0.2 0.2 0 0.4v6.6c-0.2 0.2-0.2 0.3 0 0.4v0.2c-0.5 0.1-0.5 0.2 0 0.3v0.2c-0.2 0-0.3 0-0.4 0.2-0.1 0.1-0.2 0.3-0.1 0.5h-0.2c0.6-2.8 0.7-5.7 0.3-8.6-0.2-0.5-0.4-0.5-0.5 0 0.2 1.7 0.2 3.4 0 5 0.3-3.5-0.3-6.8-2-9.9 0-0.2-0.1-0.4-0.3-0.5-0.6-0.9-1.2-1.7-1.8-2.5-0.4-0.8-1.1-1.4-1.8-1.8-1.6-1.3-3.4-2.3-5.3-3.1 1 0.1 1.9 0.4 2.7 0.9l0-0.2c-0.7-0.5-1.5-1-2.3-1.4z"></path><path fill="#efe22d" d="m18.6 2.8c1.1 0.5 2.2 1.1 3.1 1.8-0.4 0.1-0.9 0.3-1.3 0.5-0.3-0.1-0.5-0.2-0.6-0.5 0 0.5-0.2 0.6-0.5 0.4-0.3 0-0.5 0.1-0.7 0.3 0.6 0.2 1.2 0.4 1.7 0.6 0.2-0.2 0.4-0.3 0.7-0.1l-0.4 0.1c0.2 0.2 0.2 0.3 0 0.5 0.4 0.5 0.3 0.7-0.4 0.7-0.4-0.2-0.8-0.4-1.2-0.5-0.2 0-0.4 0.1-0.5 0.3 0-1 0-2 0-3l0-0.4c0.3 0.2 0.6 0.2 0.9 0.1l-0.9-0.6c0-0.1 0-0.2 0.1-0.2z"></path><path fill="#c7b273" d="m19.2 2.1c4 2.2 7.9 4.5 11.8 6.8 0.1 0.5 0 0.9-0.1 1.3-0.2-0.5-0.5-0.9-0.9-1.2-0.7-0.2-1.4-0.5-2-0.8-1.4-0.9-2.7-1.7-4.2-2.5l-2.1-1.1c-0.9-0.7-2-1.3-3.1-1.8v-0.2c0.1-0.3 0.3-0.5 0.6-0.5z"></path><path fill="#edda27" d="m17.6 2.8v3.8c-0.5 0-0.6-0.2-0.4-0.5-0.2 0-0.3-0.1-0.5-0.3-0.4 0.1-0.8 0.1-1.2 0 0.1-0.5-0.1-0.9-0.6-1.2-0.3 0.2-0.5 0.4-0.7 0.7-0.1-0.2-0.2-0.2-0.3 0-0.2 0.6-0.1 1.1 0.4 1.5l-0.2 0.3c-0.4 0.1-0.8 0.3-1.1 0.5l-0.2-1.4c-0.3 0.2-0.5 0.2-0.8 0.2v-0.6c1.6-0.9 3.2-1.9 4.8-3 0.3-0.2 0.5-0.2 0.7 0z"></path><path fill="#754b42" d="m29.1 4.8c0.7 0.4 1.4 1 1.8 1.8-0.7-0.6-1.3-1.2-1.8-1.8z"></path><path fill="#e4d490" d="m17.6 2.8h0.7v2.9c-0.1-0.2-0.3-0.5-0.4-0.7-0.1 0.3-0.2 0.6-0.3 0.8v-3z"></path><path fill="#c8b474" d="m16.8 2.8c-1.6 1.1-3.2 2.1-4.8 3-0.4 0.1-0.7 0.2-0.9 0.4-1.6 1-3.2 1.9-4.9 2.7-0.5 0.2-1 0.4-1.4 0.5v-0.5c3.8-2.3 7.7-4.5 11.7-6.6 0.5-0.3 0.6-0.1 0.3 0.5z"></path><path fill="#dad1bc" d="m18.3 5.7v3.2h-0.7v-3.1c0.1-0.2 0.2-0.5 0.3-0.9 0.1 0.3 0.3 0.6 0.4 0.8z"></path><path d="m35.9 7.3v0.2c-0.9 0.1-1.8 0.2-2.9 0.1 0.9-0.3 1.9-0.4 2.9-0.3z" opacity=".004"></path><path fill="#eedb2a" d="m15.6 10.7c-0.3 0.3-0.6 0.4-0.9 0.6-0.3-0.2-0.6-0.3-0.9-0.4-0.2 0.3-0.4 0.4-0.7 0.4-0.3-0.5-0.8-0.7-1.2-0.8-0.2 0.3-0.5 0.5-0.7 0.8-0.2-0.3-0.1-0.5 0.2-0.7l-0.3-0.2c0.2-0.2 0.2-0.4 0-0.6 0.1-0.1 0.2-0.2 0.3-0.3-0.2-0.2-0.4-0.5-0.3-0.9 0.1-0.5 0.1-1 0.1-1.5h0.6l0.2 1.1c1-0.3 2-0.7 2.9-1.1 0.4 0 0.6 0.1 0.8 0.4 0.2-0.1 0.3-0.2 0.3-0.4 0.2 0.2 0.4 0.2 0.6 0.2 0.1 0.3-0.1 0.5-0.3 0.7 0.2 0.3 0.2 0.6 0 0.9 0.1 0.1 0.3 0.1 0.5 0.1-0.1 0.6-0.4 0.6-1 0.1-0.5 0.3-0.6 0.7-0.2 1.1-0.3 0.2-0.3 0.3 0 0.5z"></path><path fill="#e5c51b" d="m18.6 2.6v0.2c-0.1 0-0.1 0.1-0.2 0.2l0.9 0.6c-0.2 0.1-0.5 0.1-0.8-0.1l-0.1 0.4c0.1 1 0.1 2 0.1 3 0.1-0.2 0.3-0.3 0.5-0.3 0.4 0.1 0.8 0.3 1.2 0.5 0.7 0 0.8-0.2 0.4-0.7 0.2-0.2 0.2-0.3 0-0.5l0.4-0.1c-0.3-0.2-0.5-0.1-0.7 0-0.5-0.1-1.1-0.3-1.7-0.5 0.2-0.2 0.4-0.3 0.7-0.4 0.3 0.3 0.5 0.2 0.5-0.3 0.1 0.3 0.3 0.4 0.6 0.5 0.4-0.2 0.9-0.4 1.3-0.5l2.1 1.1c0 0.3 0.1 0.5 0.2 0.8l-0.5 0.2c0.4 0 0.7 0.1 1.1 0.2v0.6c-0.3 0-0.5 0-0.8-0.1 0.4-0.1 0.4-0.3 0.2-0.5-0.1 0.1-0.2 0.1-0.2 0.2-0.5-0.1-0.9-0.2-1.4-0.4-0.2 0.3-0.2 0.5 0 0.7-0.2 0.1-0.4 0.1-0.6-0.1-0.1 0.2-0.2 0.4-0.3 0.6l0.2 0.2c-0.5 0.3-0.6 0.7-0.5 1.2 0.1-0.1 0.2-0.2 0.3-0.2 0.1 0.1 0.3 0.2 0.4 0.3-0.3 0.4-0.4 0.7-0.6 1 0.5 0.1 0.6 0.3 0.4 0.6 0.4 0 0.8 0.2 1.1 0.5-0.3 0.1-0.4 0.2-0.4 0.5h-0.2c0.1-0.2 0-0.4-0.1-0.6l-0.1 0.2c-0.2-0.2-0.4-0.4-0.7-0.4 0.3-0.2 0.3-0.3 0-0.4-0.3-0.3-0.6-0.5-1-0.5 0.2-0.3 0.1-0.5-0.3-0.7-0.3-0.2-0.4-0.5-0.3-0.8-0.4 0-0.8 0.1-1.3 0.3-0.1 0-0.1-0.1-0.1-0.2v-6.1c0-0.2 0.2-0.2 0.3-0.2z"></path><path d="m2.4 8.4c0 0.1 0 0.1-0.2 0.1-0.2 0.1-0.2 0.2 0 0.2 0 0.2-0.1 0.3-0.3 0.4-0.3 0.1-0.4 0.2-0.2 0.3v0.4c-0.3 0-0.4 0.1-0.2 0.2v0.2c-0.1 0-0.2 0-0.2 0.1 0.1 0.2 0 0.3-0.1 0.4 0-0.7 0-1.3-0.2-2-0.1 0.1-0.2 0.1-0.2 0.2-0.4-0.3-0.5-0.2-0.3 0.2-0.2 0.1-0.4 0.2-0.6 0.2v-0.8c0.2-0.2 0.4-0.2 0.6 0 0.1-0.1 0.2-0.2 0.1-0.3 0.2 0.1 0.4 0.2 0.5 0.3 0.2-0.1 0.4-0.2 0.6-0.1 0-0.2 0-0.4 0.2-0.6 0.1 0.3 0.3 0.5 0.5 0.6z m-0.9 0.1c0.4 0.1 0.4 0.2 0.2 0.4-0.1-0.1-0.2-0.2-0.2-0.4z m32.4-0.7c0.3 0.2 0.3 0.2 0 0z m2 0v0.2c-0.4 0-0.8 0-1.2 0.2l-0.2-0.3c0.4-0.1 0.9-0.1 1.4-0.1z m-2.1 0.7c0.4-0.1 0.8-0.1 1.2 0-0.2 0.1-0.2 0.2 0 0.3-0.3 0-0.5 0-0.7 0.1-0.2 0-0.4-0.2-0.5-0.4z m1.9 0c-0.5 0.6-0.6 0.5-0.2-0.1 0 0.1 0.1 0.1 0.2 0.1z m0.2-0.1v0.1c-0.1 0-0.1-0.1 0-0.1z" opacity=".004"></path><path fill="#d4ba6c" d="m7.1 3.5c-0.6 0.5-1.2 1.1-1.8 1.7 0.2 0.1 0.4 0.3 0.5 0.5-0.9 0.9-1.8 1.9-2.5 3-0.2 0.5-0.6 0.8-1.1 0.9-0.1 0.5-0.2 1-0.1 1.5-1 2.3-1.4 4.8-1.5 7.3-0.2-1-0.2-2.1 0-3.2l-0.1-0.2c-0.1 0.2-0.2 0.4-0.3 0.6-0.1 2.1-0.1 4.2 0.1 6.3h-0.4v-0.4c0.2 0 0.2-0.1 0-0.2v-0.1c0.2-0.1 0.2-0.2 0-0.2v-6.3c0.2-0.2 0.2-0.3 0-0.4v-0.2c0.2 0 0.3-0.1 0.4-0.3v-0.6c0.1 0 0.2-0.2 0.1-0.3v-0.4c0.2 0 0.2 0 0.2-0.2l0.2-0.3c0-0.2 0-0.3-0.2-0.4 0.3-0.2 0.5-0.5 0.6-0.9 0.1-0.1 0.2-0.2 0.1-0.3 0.2 0 0.2-0.1 0.2-0.2v-0.2c0.2 0 0.2-0.1 0.2-0.2v-0.3c0.2-0.1 0.2-0.2 0.2-0.4 0.2-0.1 0.3-0.2 0.3-0.4v-0.1c0.2 0 0.2-0.1 0.2-0.2v-0.2c0.2 0 0.2-0.1 0.2-0.2 0.1 0 0.2 0 0.2-0.2 0.2-0.1 0.2-0.3 0-0.4 0.1-0.1 0.2-0.1 0.3-0.1 0.4-0.3 0.6-0.7 0.8-1.1 0.6-0.5 1.1-1 1.6-1.6 0.1 0 0.2-0.1 0.2-0.2 0.1 0 0.3-0.2 0.3-0.3l0.4-0.2c0.2-0.2 0.4-0.3 0.7-0.4z"></path><path fill="#ecd324" d="m24.6 6.9c0.2 0 0.5 0 0.7 0.1 0.6 0.4 1.2 0.7 1.8 1.1-0.2 0.3-0.4 0.7-0.4 1.2 0.2 0.8 0.2 1.6 0 2.3 0.2 0.2 0.2 0.5 0 0.7-0.2 0.2-0.4 0.3-0.5 0.6-1.5 0.4-2.7 0.1-3.8-0.9 0.1-0.1 0.3-0.2 0.5-0.2 0.3 0.6 0.7 0.6 1.1 0.2-0.1-0.3-0.2-0.6-0.3-0.8 0.1-0.2 0.3-0.1 0.4 0.1 0.1-0.2 0.2-0.3 0.3-0.4 0.2 0.1 0.4 0.3 0.6 0.5 0.1-0.5 0.3-0.6 0.6-0.1 0.2-0.2 0.3-0.5 0.1-0.8 0.2 0.3 0.4 0.4 0.7 0.3l-0.2-0.2c0.1 0 0.3-0.1 0.3-0.3-0.2-0.1-0.4-0.2-0.7-0.4 0.7-0.2 0.9-0.6 0.6-1.2-0.5 0.1-0.9 0.2-1.3 0.6 0.2 0.1 0.3 0.2 0.5 0.2-0.4 0.3-0.8 0.4-1.2 0.1-1.6 0.9-1.9 0.7-0.8-0.5 0.1-0.2 0.1-0.5 0.1-0.7-0.4-0.1-0.7-0.3-1-0.6l-0.3 0.3c1.1 0.4 1.1 0.8 0.2 1.3-0.3 0-0.5 0-0.7 0-0.1-0.1-0.3-0.2-0.4-0.3-0.1 0-0.2 0.1-0.3 0.2-0.1-0.5 0-0.9 0.5-1.2l-0.2-0.2c0.1-0.2 0.2-0.4 0.3-0.6 0.2 0.2 0.4 0.2 0.6 0.1-0.2-0.2-0.2-0.4 0-0.6 0.5 0.1 0.9 0.2 1.4 0.3 0-0.1 0.1-0.1 0.2-0.2 0.2 0.2 0.2 0.4-0.2 0.5 0.3 0.1 0.5 0.1 0.8 0.1v-0.6z"></path><path fill="#d6ae07" d="m23.8 5.7c1.5 0.8 2.8 1.6 4.2 2.5 0 0.3 0.1 0.5 0.3 0.6-0.1 0.3-0.3 0.5-0.5 0.7 0 0.1 0.1 0.1 0.2 0.2-0.3 0.2-0.4 0.5-0.4 0.8h-0.5l-0.4 1.1c0.2-0.7 0.2-1.5 0-2.3 0-0.5 0.2-0.9 0.4-1.2-0.6-0.4-1.2-0.7-1.8-1.1-0.2-0.1-0.5-0.1-0.7-0.1-0.4-0.1-0.7-0.2-1.1-0.2l0.5-0.2c-0.1-0.3-0.2-0.5-0.1-0.8z"></path><path d="m0.8 8.9c0.2 0.5 0.2 1.1 0.1 1.6-0.3 0.1-0.6 0.1-1 0.2v-0.4c0.2 0 0.2-0.1 0-0.1v-0.8h0.9v-0.5z m-0.2 0.7c0.1 0 0.2 0.1 0.2 0.2-0.1 0.2-0.3 0.2-0.5 0.1 0.1-0.1 0.3-0.1 0.3-0.3z m33.7-0.7c0.2 0.1 0.2 0.1 0 0z m-33.9 0.2c0.3 0.1 0.3 0.1 0 0z m35.5 0.2v0.5c-0.2 0.1-0.2 0.1 0 0.2v0.7c-0.4-0.2-0.6-0.1-0.4 0.4 0.2-0.1 0.3-0.2 0.4-0.2v0.3c-0.2 0-0.3 0.1-0.4 0.2-0.2-0.3-0.4-0.5-0.7-0.7 0.1-0.2 0-0.3-0.2-0.4 0.2-0.1 0.4-0.2 0.6-0.4l-0.3-0.3c-0.2 0-0.5 0.1-0.8 0.2 0-0.2-0.1-0.4-0.2-0.5 0.6 0.1 1.3 0.1 2 0z" opacity=".004"></path><path fill="#ba8f0a" d="m11.1 6.2c0.1 0.4 0.1 0.8 0 1.1-0.4 0-0.8 0.1-1.3 0.1-0.2 0.2-0.1 0.3 0.2 0.3-0.6 0.4-1.2 0.8-1.8 1-0.2 0.2-0.2 0.4-0.2 0.6-0.9 0.1-1.8 0.5-2.5 1-0.2-0.1-0.4-0.1-0.5-0.1-0.1-0.2 0-0.3 0-0.4 0.5-0.3 0.9-0.6 1.2-0.9 1.7-0.8 3.3-1.7 4.9-2.7z"></path><path fill="#a2906f" d="m31 8.9c0.6 0 1.1 0 1.7 0.2 0.2 0.1 0.3 0.3 0.3 0.5-0.1 0.4-0.3 0.8-0.6 1.1-0.1 4.8-0.1 9.6 0 14.4 0.3 0.4 0.5 0.7 0.6 1.1-0.1 0.3-0.2 0.5-0.5 0.7-0.4 0-0.8 0-1.3 0 0.1-0.5 0.2-1 0.4-1.5-0.5 0-1-0.3-1.3-0.7 0.4 0.1 0.7 0.2 0.9 0.4 0.2-2.4 0.2-4.8 0.2-7.2 0-2.5-0.1-4.9-0.4-7.2 0-0.2-0.1-0.4-0.3-0.4 0-0.1 0-0.1 0.2-0.1 0.1-0.4 0.2-0.8 0.1-1.3z"></path><path fill="#e2bd0f" d="m17.6 6.6v2.3c-0.4 0.3-0.6 0.7-0.8 1.2l-1.2 0.6c-0.3-0.2-0.3-0.3 0-0.5-0.4-0.4-0.3-0.8 0.2-1.1 0.6 0.5 0.9 0.5 1-0.1-0.2 0-0.4 0-0.5-0.1 0.2-0.3 0.2-0.6 0-0.9 0.2-0.2 0.4-0.4 0.4-0.7-0.3 0-0.5 0-0.7-0.2 0 0.2-0.1 0.3-0.2 0.4-0.3-0.3-0.5-0.4-0.9-0.4-0.9 0.4-1.9 0.8-2.9 1.1l-0.2-1.1h-0.5c-0.1 0.5-0.1 1-0.2 1.5-0.1 0.4 0.1 0.7 0.3 0.9-0.1 0.1-0.2 0.2-0.3 0.3 0.2 0.2 0.2 0.4 0 0.6l0.3 0.2c-0.3 0.2-0.4 0.4-0.2 0.7 0.2-0.3 0.5-0.5 0.7-0.8 0.4 0.1 0.9 0.3 1.2 0.8 0.3 0 0.5-0.1 0.7-0.4 0.3 0.1 0.6 0.2 0.9 0.4-0.9 0.6-1.9 1.1-2.9 1.7-0.4 0-0.8-0.1-1.3-0.1-0.1-0.1-0.1-0.2-0.1-0.3 0.1-0.3 0.3-0.5 0.5-0.8-0.2-0.6-0.5-1.2-0.9-1.8 0.8-0.6 1-1.4 0.8-2.3l-0.9 0.9c-0.1 0.1-0.1 0.3-0.1 0.5-0.3 0.1-0.6 0.1-0.8 0-0.3 0.2-0.5 0.5-0.5 0.9l-0.2-0.2c-0.2 0.3-0.5 0.4-0.8 0.5l0.2 0.1c-0.4 0.2-0.8 0.3-1.1 0.5-0.4-0.2-0.7-0.4-1.1-0.5 0.7-0.6 1.6-1 2.5-1.1 0-0.2 0-0.4 0.2-0.6 0.6-0.2 1.2-0.6 1.8-1-0.3 0-0.4-0.1-0.2-0.3 0.5 0 0.9-0.1 1.3-0.1 0.1-0.3 0.1-0.7 0-1.1 0.2-0.2 0.5-0.3 0.9-0.4v0.6c0.3 0 0.5 0 0.8-0.2l0.2 1.5c0.3-0.3 0.7-0.5 1.1-0.6l0.2-0.3c-0.5-0.4-0.6-0.9-0.4-1.5 0.1-0.2 0.2-0.2 0.3 0 0.2-0.3 0.4-0.5 0.7-0.7 0.5 0.3 0.7 0.7 0.6 1.2 0.4 0.1 0.8 0.1 1.2 0 0.2 0.2 0.3 0.3 0.5 0.3-0.2 0.3-0.1 0.5 0.4 0.5z"></path><path fill="#e90927" d="m33 9.6c1.7 3.1 2.3 6.4 2 9.9l-0.4 2.7c-0.4 1.4-1 2.7-1.6 4-0.1-0.4-0.3-0.7-0.6-1.1-0.1-4.8-0.1-9.6 0-14.4 0.3-0.3 0.5-0.7 0.6-1.1z"></path><path fill="#e80c25" d="m2.8 26.2c-1.3-2.4-2-5-2.2-7.8 0.1-2.5 0.5-5 1.5-7.3 0.3-0.5 0.6-0.9 0.8-1.5 0.1 0.4 0.2 0.8 0.5 1.1 0.1 4.8 0.1 9.6 0 14.4-0.2 0.4-0.5 0.7-0.6 1.1z"></path><path fill="#bf960e" d="m22.2 12c-1-0.6-2-1.2-3-1.7-0.3-0.4-0.5-0.8-0.7-1.2 0.4-0.2 0.8-0.3 1.2-0.3-0.1 0.3 0 0.6 0.3 0.8 0.4 0.2 0.5 0.4 0.3 0.7 0.4 0 0.7 0.2 1 0.5 0.3 0.1 0.3 0.2 0 0.4 0.3 0 0.5 0.2 0.7 0.4l0.1-0.2c0.1 0.2 0.2 0.4 0.1 0.6z"></path><path fill="#efe43f" d="m22.4 12c0-0.3 0.1-0.4 0.4-0.5-0.3-0.3-0.7-0.5-1.1-0.5 0.2-0.3 0.1-0.5-0.4-0.6 0.2-0.3 0.3-0.6 0.6-0.9 0.2-0.1 0.4-0.1 0.7 0 0.9-0.6 0.9-1-0.2-1.4l0.3-0.3c0.3 0.3 0.6 0.5 1 0.6 0 0.2 0 0.5-0.1 0.7-1.1 1.2-0.8 1.4 0.8 0.5 0.4 0.3 0.8 0.2 1.2-0.1-0.2 0-0.3-0.1-0.5-0.2 0.4-0.4 0.8-0.5 1.3-0.6 0.3 0.6 0.1 1-0.6 1.2 0.3 0.2 0.5 0.3 0.7 0.5 0 0.1-0.2 0.2-0.3 0.2l0.2 0.2c-0.3 0.1-0.5 0-0.7-0.3 0.2 0.3 0.1 0.6-0.1 0.8-0.3-0.5-0.5-0.4-0.6 0.1-0.2-0.2-0.4-0.4-0.6-0.5-0.1 0.1-0.2 0.2-0.3 0.4-0.1-0.2-0.3-0.3-0.4-0.1 0.1 0.2 0.2 0.5 0.3 0.8-0.4 0.4-0.8 0.4-1.1-0.2-0.2 0-0.4 0.1-0.5 0.2z"></path><path d="m-0.1 10.9c0.1 0 0.2 0 0.2 0.2l-0.2-0.2z m0.5 0.2c0.2-0.3 0.3-0.3 0.4 0-0.1 0.1-0.2 0.1-0.4 0z" opacity=".004"></path><path fill="#ad8211" d="m28 8.2c0.6 0.3 1.3 0.6 2 0.8 0.4 0.3 0.7 0.7 0.9 1.2-0.2 0-0.2 0-0.2 0.1-1.3 0.8-2.6 1.4-4 2 0.2-0.2 0.2-0.5 0-0.7l0.4-1.1h0.5c0-0.3 0.1-0.6 0.4-0.8-0.1-0.1-0.2-0.1-0.2-0.3 0.2-0.1 0.4-0.3 0.5-0.6-0.2-0.1-0.3-0.3-0.3-0.6z"></path><path d="m0.1 11.1h0.3c-0.2 0.2-0.1 0.4 0.2 0.5-0.2 0.3-0.2 0.4 0.2 0.4l-0.2 0.3h-0.7v-0.9c0.2 0 0.2-0.2 0.2-0.3z" opacity=".004"></path><path fill="#d1bf80" d="m5 10.2c0.1 0 0.3 0 0.5 0.1 0.4 0.2 0.7 0.4 1.1 0.6 0.3 0.2 0.6 0.4 0.9 0.7-0.4 0.1-0.5 0.2-0.2 0.6-0.9-0.4-1.8-0.9-2.5-1.5-0.1-0.2 0-0.4 0.2-0.5z"></path><path d="m35 11.4c0.2 0.2 0.2 0.2 0 0z m0.9 0v0.2c-0.1-0.1-0.1-0.1 0-0.2z m-0.2 0.2c-0.1 0.1-0.1 0.1 0 0z" opacity=".004"></path><path fill="#c69d09" d="m10.5 12.9c-0.1 0.2-0.3 0.2-0.5 0.1-0.8-0.5-1.7-1-2.5-1.4-0.3-0.3-0.6-0.5-0.9-0.7 0.3-0.2 0.7-0.3 1-0.5l-0.1-0.1c0.3-0.1 0.6-0.2 0.8-0.5l0.2 0.2c0-0.4 0.2-0.7 0.5-0.9 0.2 0.1 0.5 0.1 0.8 0 0-0.2 0-0.4 0.1-0.5l0.9-0.9c0.2 0.9 0 1.7-0.8 2.3 0.4 0.6 0.7 1.2 0.9 1.8-0.2 0.3-0.4 0.5-0.5 0.8 0 0.1 0 0.2 0.1 0.3z"></path><path fill="#79736f" d="m24.6 14.5v0.3h-0.4c-0.2-0.3-0.5-0.7-0.7-1.1l-4.7-2.7c-1-0.2-2-0.1-2.9 0.5-1.2 0.7-2.4 1.5-3.6 2.3-0.3 0-0.6 0.2-0.7 0.5 0-0.5 0.2-0.8 0.7-1l4.7-2.7c0.6-0.1 1.1-0.1 1.6 0l5.3 3c0.1 0.3 0.2 0.5 0.3 0.8 0.1 0.1 0.2 0.1 0.4 0.1z"></path><path d="m35.5 12.2c0.1-0.2 0.2-0.3 0.4-0.2v0.3l-0.4-0.1z" opacity=".004"></path><path fill="#c8b895" d="m30.7 10.3c0.2 0 0.3 0.2 0.3 0.4-0.4 0-0.6 0.3-0.5 0.7-1.3 0.3-2.5 0.8-3.6 1.6 0-0.1 0-0.2-0.2-0.3-0.1 0.1-0.3 0.2-0.5 0.2 0.1-0.3 0.3-0.4 0.5-0.6 1.4-0.6 2.7-1.2 4-2z"></path><path d="m-0.1 12.5h0.6v0.4c-0.2-0.1-0.3 0-0.4 0.1h-0.2v-0.5z m35.5 0c0.1 0.1 0.3 0.2 0.5 0.2v0.2h-0.5v-0.4z" opacity=".004"></path><path fill="#dbb40c" d="m4.4 10.7h0.4c0.7 0.6 1.6 1.1 2.5 1.4l2.5 1.7c0.1 0.6-0.1 0.8-0.5 0.5-0.2 0.1-0.4 0.2-0.5 0.4l-0.5-0.4c-0.1 0.2-0.1 0.3 0.1 0.5-0.2 0.2-0.4 0.4-0.7 0.4-0.5-0.1-0.9-0.2-1.4-0.4-0.2 0.5-0.4 0.7-0.7 0.8-0.1-0.3-0.2-0.5-0.5-0.6-0.2 0.3-0.4 0.4-0.7 0.4v-4.7z"></path><path fill="#c3c2c2" d="m24.2 14.8c-0.3 0.2-0.5 0.2-0.8 0-0.3 0.3-0.6 0.3-0.9 0.2-0.1 0.6-0.2 0.6-0.4 0.2-0.8 0.9-1.7 0.9-2.6-0.1 0.3-0.1 0.5-0.2 0.8-0.4-0.3-0.4-0.6-0.4-0.9-0.2-0.5-0.5-1-0.6-1.5-0.2-0.3-0.1-0.4-0.3-0.2-0.5-0.2-0.2-0.5-0.3-0.8-0.4-0.5 0-1.1 0.1-1.6 0.2-0.2-0.5-0.4-0.5-0.7 0-0.3-0.4-0.6-0.4-0.9 0.2-0.1-0.3-0.3-0.3-0.4 0-0.2-0.4-0.4-0.4-0.5 0.1-0.1-0.1-0.3-0.1-0.5-0.1 1.2-0.8 2.4-1.6 3.6-2.3 0.9-0.6 1.9-0.7 2.9-0.5l4.7 2.7c0.2 0.4 0.5 0.8 0.7 1.1z"></path><path d="m0.1 13c0.1 0 0.2 0.1 0.2 0.2v0.2c-0.3 0.1-0.3 0.1 0 0.2v0.2h-0.4v-0.6c0.1 0 0.2 0 0.2-0.2z m35.8 0v0.4h-0.4v-0.2l0.4-0.2z m-0.4 0.8v-0.2h0.4v0.3h-0.2c-0.1 0-0.2 0-0.2-0.1z" opacity=".004"></path><path fill="#eee1a0" d="m35.2 23.1l-0.4 0.2c-0.2 0.3-0.3 0.2-0.3-0.1 0.1-0.3 0.2-0.6 0.1-1l0.4-2.7c0.2-1.6 0.2-3.3 0-5 0.1-0.5 0.3-0.5 0.5 0 0.4 2.9 0.3 5.8-0.3 8.6z"></path><path fill="#c19606" d="m9.8 13.8c0.1 0.3 0.3 0.6 0.6 0.9 0.1 1.5 0.2 3 0.1 4.5-0.8-0.3-1.1-0.8-0.7-1.5 0.1 0.2 0.2 0.4 0.3 0.6-0.2-1-0.4-1.9-0.8-2.7-0.9-0.2-1.8-0.3-2.7-0.1-0.8 0.3-1.2 0.9-1.3 1.7-0.4 1.5 0.1 2.6 1.5 3.4-0.4 0.4-0.8 0.7-1.3 1 0.6 0.4 1.1 0.3 1.6-0.1 1 0.3 2 0.2 2.9-0.4l-0.2-0.2c0.4-0.5 0.6-0.4 0.6 0.2-0.3 0.6-0.6 1.1-0.9 1.5-0.6 0.2-1.2 0.4-1.7 0.7-0.4-0.3-0.9-0.4-1.4-0.5-0.4 0-0.7 0.1-1 0.3-0.1-0.1-0.1-0.3 0.1-0.4-0.3-0.1-0.6-0.1-0.9 0 0.2 0.1 0.2 0.3-0.1 0.4-0.1-2.5-0.1-5.1-0.1-7.7 0.3 0 0.5-0.1 0.7-0.4 0.3 0.1 0.4 0.3 0.5 0.6 0.3-0.1 0.5-0.3 0.7-0.8 0.5 0.2 0.9 0.3 1.4 0.4 0.3 0 0.5-0.2 0.7-0.4-0.2-0.2-0.2-0.3-0.1-0.5l0.5 0.4c0.1-0.2 0.3-0.3 0.5-0.4 0.4 0.3 0.6 0.1 0.5-0.5z"></path><path fill="#847041" d="m9.3 15.8c0 0.3-0.1 0.6-0.4 0.8-1.5-0.3-2.1 0.4-1.8 1.8-0.2-0.4-0.2-0.9-0.2-1.4 0.5-0.6 1.2-0.9 2-0.8 0.1-0.2 0.2-0.3 0.4-0.4z"></path><path fill="#e5dcb3" d="m9.3 15.6v0.2c-0.2 0.1-0.3 0.2-0.4 0.4-0.8-0.1-1.5 0.2-2 0.8l-0.2-0.5c-0.3 0-0.6 0-0.8 0-0.2 0.3-0.3 0.5-0.6 0.7 0.1-0.8 0.5-1.4 1.3-1.7 0.9-0.2 1.8-0.1 2.7 0.1z"></path><path fill="#b8a573" d="m9.4 20.1h-0.1v-2.5h-1.7c0.2 0.6 0.2 1.3 0 1.9-0.1 0-0.1-0.1-0.1-0.1 0.1-0.2 0.1-0.3 0.1-0.5-0.2-0.5-0.3-1-0.3-1.5h2.1v2.7z"></path><path fill="#f4f1dc" d="m6.9 17c0 0.5 0 1 0.2 1.4-0.1 0.4 0.1 0.7 0.4 0.9 0 0.1 0 0.2 0.1 0.2 0.2-0.6 0.2-1.3 0-2h1.7v2.6c-2.7 0.9-4 0-4-2.9 0.3-0.2 0.4-0.4 0.5-0.7 0.3 0 0.6 0 0.9 0l0.2 0.5z"></path><path fill="#d6d4d4" d="m24.2 14.8h0.2c-0.1 2.2 0 4.4 0.2 6.5-0.1 1.3-0.4 1.4-0.7 0.2-0.1 0.3-0.3 0.5-0.4 0.8 0.3 0.1 0.5 0.2 0.5 0.5-0.5 0.3-0.9 0.6-1.4 0.9l-2.2 1c0-0.1-0.2-0.2-0.3-0.2 0.7-0.3 1.3-0.7 2-1.1 0.2-0.1 0.2-0.2 0-0.3-0.2 0.1-0.3 0.2-0.4 0.2 0-0.3-0.1-0.5-0.4-0.6 0.5-0.1 0.5-0.3 0-0.6 0.6-0.4 0.9-0.9 0.8-1.7 0.2 0.1 0.5 0 0.7-0.2-0.2-0.2-0.3-0.2-0.5 0-0.1 0-0.2-0.2-0.2-0.3 0.3-0.4 0.7-0.7 1.2-0.9 0.2-0.2 0.2-0.3 0.2-0.6-0.2 0-0.5 0.1-0.6 0.2-0.2-0.1-0.3-0.2-0.3-0.3 0.3-0.2 0.5-0.3 0.8-0.4 0.1-0.2 0.1-0.3-0.1-0.4 0.3-0.1 0.6-0.2 0.9-0.1 0-0.3 0-0.5-0.1-0.8-0.8 0.3-1.6 0.6-2.4 0.9 0.2 0.1 0.2 0.3 0 0.4-0.6-0.4-1.2-0.8-1.7-1.1-0.2 0.1-0.3 0.2-0.5 0.3 0.4 0.5 0.8 1 1.3 1.4-0.4 0.2-0.7 0.1-1.1-0.1-0.2 0.2-0.2 0.3 0 0.5-0.4 0.4-0.7 0.4-1-0.1-0.2 0.1-0.3 0.2-0.4 0.4v-0.6c0.3 0.1 0.5 0 0.8-0.2 0.1-0.3 0.1-0.7 0.1-1h-0.9v-0.8c0.4 0.1 0.8 0 1.1-0.3v-0.9h-2.9c-0.2 1.7-0.3 3.4-0.2 5.2h1.8c-0.4 0.2-0.8 0.3-1.3 0.5 0.2 0.2 0.4 0.3 0.6 0.2 0 0.6-0.1 0.6-0.3 0.2-0.1 0.2-0.1 0.4 0 0.5 0.4 0.4 0.9 0.6 1.4 0.4 0.1 0.2 0.2 0.3 0.1 0.5 0.4 0.1 0.7 0 0.9-0.3 0.3 0.2 0.4 0.5 0.2 0.7 0 0.4-0.2 0.6-0.5 0.6l0.5 0.5c-0.6 0.6-1.3 0.8-2.1 0.7-0.1 0.4-0.2 0.9-0.3 1.3-0.1-0.3-0.2-0.4-0.3-0.6-1.8-0.9-3.6-1.9-5.2-3 0-0.2 0-0.3 0.2-0.4 0.4 0.3 0.8 0.4 1.2 0.5-0.4-0.3-0.8-0.6-1.2-0.8-0.1-0.3-0.3-0.6-0.5-1-0.1-2.2-0.1-4.5 0.1-6.8 0.1-0.3 0.4-0.5 0.7-0.5 0.2 0 0.4 0 0.5 0.1 0.1-0.5 0.3-0.5 0.5-0.1 0.1-0.3 0.3-0.3 0.4 0 0.3-0.6 0.6-0.6 0.9-0.2 0.3-0.5 0.5-0.5 0.7 0 0.5-0.1 1.1-0.2 1.6-0.2 0.3 0.1 0.6 0.2 0.8 0.4-0.2 0.2-0.1 0.4 0.2 0.5 0.5-0.4 1-0.3 1.5 0.2 0.3-0.2 0.6-0.2 0.9 0.2-0.3 0.2-0.5 0.3-0.8 0.4 0.9 1 1.8 1 2.6 0.1 0.2 0.4 0.3 0.4 0.4-0.2 0.3 0.1 0.6 0.1 0.9-0.2 0.3 0.2 0.5 0.2 0.8 0z"></path><path fill="#a4987b" d="m16.5 15.4v4.9h1.6v-1.9c0.2-0.1 0.5-0.2 0.9-0.1v-0.7c-0.4 0-0.7-0.1-0.9-0.4v-0.9h1.3c-0.3 0.3-0.7 0.4-1.1 0.4v0.7h0.9c0 0.3 0 0.7-0.1 1.1-0.3 0.1-0.5 0.2-0.8 0.1v0.6c0 0.5 0 1-0.2 1.4h-1.8c-0.1-1.8 0-3.5 0.2-5.2z"></path><path fill="#f8f5e4" d="m18.1 17.2c0.2 0.3 0.5 0.4 0.9 0.3v0.8c-0.4-0.1-0.7 0-0.9 0.1-0.1 0.5-0.2 1-0.4 1.5-0.2-0.1-0.5-0.1-0.8-0.2l-0.2 0.4c-0.1-1.1-0.1-2.1 0.1-3.1 0.5 0 0.9 0.1 1.3 0.2z"></path><path fill="#dcdcdc" d="m21.7 23.3c-0.3 0.2-0.6 0.2-0.8 0-0.1 0.2-0.2 0.3-0.3 0.4-0.3-0.2-0.6-0.3-0.9-0.4 0.2-0.2 0.1-0.5-0.2-0.7-0.2 0.3-0.5 0.4-0.9 0.3 0.1-0.2 0-0.3-0.1-0.5-0.5 0.2-1 0-1.4-0.3-0.1-0.2-0.1-0.4 0-0.6 0.2 0.4 0.3 0.4 0.3-0.2-0.2 0.1-0.4 0-0.6-0.1 0.5-0.3 0.9-0.4 1.3-0.6 0.2-0.4 0.2-0.9 0.2-1.4 0.1-0.2 0.2-0.3 0.4-0.4 0.3 0.5 0.6 0.5 1 0.1-0.2-0.2-0.2-0.3 0-0.4 0.4 0.1 0.7 0.2 1.1 0-0.5-0.4-0.9-0.9-1.3-1.4 0.2-0.1 0.3-0.2 0.5-0.3 0.5 0.3 1.1 0.7 1.7 1.1 0.2-0.1 0.2-0.3 0-0.4 0.8-0.3 1.6-0.6 2.4-0.8 0.1 0.2 0.1 0.4 0.1 0.7-0.3-0.1-0.6 0-0.9 0.1 0.2 0.1 0.2 0.2 0.1 0.4-0.3 0.1-0.5 0.2-0.8 0.4 0 0.1 0.1 0.2 0.3 0.3 0.1-0.1 0.4-0.2 0.6-0.1 0 0.2 0 0.3-0.2 0.5-0.5 0.2-0.9 0.5-1.3 0.9 0.1 0.1 0.2 0.3 0.3 0.4 0.2-0.3 0.3-0.3 0.5 0-0.2 0.1-0.5 0.2-0.8 0.1 0.2 0.8-0.1 1.3-0.7 1.7 0.5 0.3 0.5 0.5 0 0.6 0.3 0.1 0.4 0.3 0.4 0.6z"></path><path fill="#ece4b6" d="m16.5 15.4h2.8v0.9h-1.2v0.9c-0.4-0.1-0.8-0.2-1.3-0.2-0.2 1-0.2 2-0.1 3.1l0.2-0.4c0.3 0.1 0.6 0.1 0.8 0.2 0.2-0.5 0.3-1 0.4-1.5v1.8h-1.6v-4.8z"></path><path fill="#70603e" d="m5.3 17.2c0 2.9 1.3 3.8 4 2.9h0.1c-0.1 0.3-0.4 0.5-0.9 0.6-0.6 0.1-1.2 0.1-1.8-0.1-1.3-0.8-1.8-1.9-1.4-3.4z"></path><path fill="#bfbbb9" d="m31 10.7c0.3 2.3 0.4 4.7 0.4 7.2 0 2.4 0 4.8-0.2 7.2 0.1-3.1 0-6.1-0.1-9.2-0.1 0.2-0.4 0.2-0.6 0.2v-0.7h-1.4c0 0.7 0 1.3-0.2 2-0.5-0.6-0.9-1.3-1.1-2h-1.4c-0.4 1.7-0.5 3.4-0.4 5.2h1.6c-0.6 0.1-1.3 0.3-2 0.6 0.2 0.3 0.3 0.6 0.2 0.8 0.6 0.1 0.9 0 1.1-0.2 0.2 0.2 0.4 0.4 0.5 0.7l-0.3 0.2 0.7 0.5c-0.1 0.1-0.3 0.2-0.4 0.3 0.2 0.2 0.3 0.4 0.4 0.5-0.9-0.4-1.8-0.9-2.7-1.2h-1.1c0-0.3-0.2-0.4-0.5-0.5 0.1-0.3 0.3-0.5 0.4-0.8 0.3 1.2 0.6 1.1 0.7-0.2-0.2-2.1-0.3-4.3-0.2-6.5h0.2v-0.3c0.3 0 0.6 0 0.9-0.2 0.2-0.7 0.7-1.1 1.4-1.3 1.1-0.8 2.3-1.3 3.6-1.6-0.1-0.4 0.1-0.7 0.5-0.7z"></path><path fill="#f2edd7" d="m26.4 15.4h1.4c0.2 0.7 0.6 1.4 1.1 2 0.2-0.7 0.2-1.3 0.2-2h1.4v0.7c0.1 1.5 0 3-0.2 4.5-0.3-0.1-0.7-0.2-1-0.3l-1.6-2.2c-0.1 0.7-0.1 1.4-0.1 2.1h-1.2v-4.8z"></path><path fill="#f2f0ed" d="m24.6 14.8h0.5v6.2h-0.5v-6.2z"></path><path fill="#9e947f" d="m26.4 15.4v4.9h1.2c0-0.8 0-1.5 0.1-2.2l1.6 2.2c0.3 0.1 0.7 0.2 1 0.3-0.5 0.1-0.9 0-1.4-0.2l-1-1.6c0 0.6-0.1 1.2-0.3 1.8h-1.6c-0.1-1.8 0-3.5 0.4-5.2z"></path><path fill="#a97d12" d="m9.3 15.6c0.4 0.8 0.6 1.7 0.8 2.7-0.1-0.2-0.2-0.4-0.3-0.6-0.4 0.7-0.1 1.2 0.7 1.5 0.1 0.7 0 1.3-0.1 2 0-0.7-0.2-0.8-0.6-0.3l0.2 0.2c-0.9 0.6-1.9 0.7-2.9 0.4-0.5 0.4-1 0.5-1.6 0.1 0.5-0.3 0.9-0.6 1.3-1 0.5 0.2 1.1 0.2 1.8 0.1 0.4-0.1 0.7-0.3 0.9-0.6v-2.7h-2.2c0 0.5 0.1 1 0.4 1.5-0.1 0.2-0.1 0.3-0.2 0.5-0.3-0.3-0.5-0.6-0.4-0.9-0.3-1.5 0.3-2.2 1.8-1.9 0.3-0.2 0.4-0.5 0.4-0.8v-0.2z"></path><path fill="#c7c2bf" d="m17.6 8.9h0.7c0 0.1 0 0.2 0.1 0.2 0.3 0.4 0.5 0.8 0.8 1.2 1 0.5 2 1.1 3 1.7h0.2c1.1 1 2.3 1.3 3.8 0.9 0.2 0 0.4-0.1 0.5-0.2 0.2 0.1 0.2 0.2 0.2 0.3-0.7 0.2-1.2 0.6-1.4 1.3-0.3 0.2-0.6 0.2-0.9 0.2-0.2 0-0.3 0-0.4-0.1-0.1-0.3-0.2-0.5-0.4-0.8l-5.2-3c-0.5-0.1-1.1-0.1-1.6 0l-4.7 2.7c-0.5 0.2-0.7 0.5-0.7 1-0.2 2.3-0.2 4.6-0.1 6.8 0.2 0.4 0.4 0.7 0.5 1 0.4 0.2 0.8 0.5 1.2 0.8-0.4-0.1-0.8-0.2-1.2-0.5-0.2 0.1-0.2 0.2-0.2 0.4-0.5 0.2-1 0.2-1.5 0-0.2 0.2-0.4 0.3-0.7 0.3 0.6-0.5 0.5-0.7-0.2-0.5 0.4-0.4 0.7-0.9 0.9-1.5 0.2-0.6 0.3-1.2 0.2-1.9 0.1-1.5 0-3-0.2-4.5-0.2-0.3-0.4-0.6-0.5-0.9l-2.5-1.7c-0.3-0.3-0.2-0.4 0.2-0.5 0.8 0.4 1.7 0.9 2.5 1.4 0.2 0.1 0.4 0.1 0.5-0.1 0.5 0 0.9 0.1 1.3 0.1 1-0.6 2-1.1 2.9-1.8 0.3-0.1 0.6-0.2 0.9-0.5l1.2-0.6c0.2-0.5 0.4-0.9 0.7-1.2z"></path><path fill="#f7f5f4" d="m10.7 14.8c0.2 1 0.4 2 0.4 3.1l-0.2 3.1c-0.2-2.1-0.2-4.1-0.2-6.2z"></path><path fill="#ede1ac" d="m4.2 10.9v14h-0.5v-14h0.5z"></path><path fill="#d4d2d0" d="m31.2 25.1c-0.2-0.2-0.5-0.3-0.9-0.3-0.4-0.6-0.9-0.8-1.6-0.6 0.1 0.2 0.3 0.4 0.4 0.6-0.5-0.2-0.9-0.5-1.3-0.8-0.1-0.1-0.2-0.3-0.4-0.5 0.1-0.1 0.3-0.2 0.4-0.3l-0.7-0.5 0.3-0.2c-0.1-0.3-0.3-0.5-0.5-0.7-0.2 0.2-0.5 0.3-1.1 0.3 0.1-0.3 0-0.6-0.2-0.9 0.7-0.3 1.4-0.5 2-0.6 0.2-0.6 0.3-1.2 0.3-1.8l1 1.6c0.5 0.2 0.9 0.3 1.4 0.2 0.2-1.5 0.3-3 0.2-4.5 0.2 0 0.5 0 0.6-0.2 0.1 3.1 0.2 6.1 0.1 9.2z"></path><path d="m35.5 22.6h0.4v0.3c-0.2 0-0.4-0.1-0.4-0.3z" opacity=".004"></path><path fill="#b38b1a" d="m4.4 10.7v4.7c0 2.6 0 5.2 0.1 7.7 0.3-0.1 0.3-0.3 0.1-0.4 0.3-0.1 0.6-0.1 0.9 0-0.2 0.1-0.2 0.3-0.1 0.4 0.3-0.2 0.6-0.3 1-0.3 0.5 0.1 1 0.2 1.4 0.5-1 0.8-2.2 1.4-3.4 1.8-0.1 0-0.2 0-0.2-0.2v-14c0-0.1 0.1-0.2 0.2-0.2z"></path><path d="m-0.1 23.3v-0.2h0.6c0.1 0 0.1 0.1 0.1 0.2-0.2 0.2-0.5 0.2-0.7 0z" opacity=".004"></path><path fill="#a47816" d="m24 22.8h1.1c0 0.1-0.1 0.2-0.2 0.2 0.5 0.4 0.8 0.8 1.1 1.3-0.2 0.7-0.1 1.3 0.3 1.9 0.1-0.2 0.2-0.2 0.2 0-0.4 0.2-0.7 0.1-0.9-0.4l-2-2.5-0.6 0.6c-0.1-0.2-0.2-0.2-0.4-0.2 0.5-0.3 0.9-0.6 1.4-0.9z"></path><path d="m35.2 23.3v-0.2h0.7v0.2c-0.3 0.2-0.5 0.2-0.7 0z" opacity=".005"></path><path d="m-0.1 23.8v-0.1c0.3 0.1 0.5 0.1 0.7 0 0.2 0 0.2 0.2 0.2 0.3-0.2 0.1-0.2 0.2 0 0.2 0.2 0.1 0.2 0.3 0.2 0.5v0.2c-0.2 0.1-0.2 0.2 0 0.2 0 0.2 0.1 0.2 0.2 0 0.1 0.1 0.2 0.2 0.1 0.4 0.3 0.6 0.6 1.2 1 1.8 0 0.1 0 0.1 0.1 0.1l0.2 0.4c-0.2 0.3-0.2 0.4 0.2 0.2 0.4 0.4 0.8 0.9 1.1 1.4-0.3 0.1-0.3 0.2 0 0.2 0.2 0.1 0.3 0.2 0.3 0.4 0 0.2 0.2 0.3 0.4 0.3 0 0.2 0 0.2 0.2 0.2s0.2 0.1 0.2 0.2c-0.3 0-0.3 0.1 0 0.2 0 0.7 0.1 0.7 0.1 0h0.2l0.2 0.3c-0.2 0.2-0.2 0.3 0 0.4-0.3 0.4-0.2 0.5 0.3 0.3 0.1 0.5 0.3 0.6 0.6 0.4h0.2c0 0.2 0.1 0.2 0.1 0 0.5 0.1 0.8 0.4 0.9 0.7 0.1 0.4 0.1 0.8 0 1.1l0.4 0.2c-0.1 0.1-0.3 0.2-0.5 0.3l0.3 0.1c-0.2 0.2-0.2 0.3 0 0.4s0.5 0.1 0.7 0c-0.1-0.3-0.2-0.3-0.4-0.1-0.1-0.2 0-0.3 0.2-0.4 0.2 0.1 0.4 0.2 0.6 0.3 0.1 0.3 0 0.5-0.3 0.6-0.2 0-0.4 0-0.6-0.1 0.1 0.2 0 0.4-0.3 0.5h-0.8c0-0.2-0.1-0.2-0.1 0h-0.6c-0.1-0.2-0.2-0.2-0.3 0h-0.2c-0.1-0.1-0.2-0.2-0.4-0.2-0.2-0.2-0.3-0.1-0.3 0.2h-1.1c-0.2-0.2-0.3-0.2-0.4 0h-0.2c0-0.2-0.1-0.2-0.1 0h-2.9c-0.1-0.2-0.2-0.4-0.4-0.5v-0.2c0.5-0.3 0.5-0.6 0-0.9v-0.2c0.2 0 0.2-0.1 0-0.2v-0.3c0.2-0.1 0.2-0.2 0-0.2v-0.2c0.1 0 0.3 0 0.4-0.1-0.1-0.3-0.3-0.5-0.4-0.8v-0.2c0.2 0 0.3-0.1 0.4-0.2-0.1-0.3-0.3-0.5-0.4-0.7v-0.2c0.2-0.7 0.2-1.4 0-2.1v-0.6c0.2-0.1 0.2-0.2 0-0.3v-0.2c0.1-0.1 0.2-0.2 0.3-0.4 0.1 0.4 0.2 0.5 0.3 0.1-0.1-0.1-0.3-0.3-0.4-0.4 0.3-0.3 0.2-0.4-0.2-0.4v-0.7c0.2-0.2 0.2-0.4 0.2-0.7 0.7 0 0.7-0.1 0-0.3 0-0.3 0-0.6 0.2-0.9-0.1-0.1-0.2-0.2-0.4-0.2z m0.4 2.2c0.5 0.1 0.6 0.3 0.2 0.5-0.2-0.1-0.3-0.3-0.2-0.5z m0.9 0.4c0.1-0.3 0.2-0.3 0.3 0-0.1 0.1-0.2 0.1-0.3 0z m-0.9 1.9c0.2 0.2 0.2 0.3 0 0.4-0.2-0.1-0.2-0.2 0-0.4z m0.7 0.6c-0.2-0.1-0.2-0.2 0-0.4 0.2 0.1 0.2 0.2 0 0.4z m-0.7 0c0.4 0 0.5 0.1 0.1 0.3-0.1-0.1-0.2-0.2-0.1-0.3z m1.1 0c0.1 0.2 0.2 0.4 0.1 0.7-0.2 0.1-0.5 0-0.7-0.2 0.1-0.2 0.2-0.2 0.3 0 0.2-0.1 0.3-0.3 0.3-0.5z m-0.9 0.7c0.2 0.1 0.2 0.2 0 0.4-0.2-0.1-0.2-0.2 0-0.4z m2.8 1.8c-0.3-0.2-0.5-0.5-0.4-0.9l0.2 0.2 0.1-0.7c0.3 0.5 0.3 0.9 0.1 1.4z m0.4-1.4c0.3 0.2 0.4 0.4 0.1 0.7-0.1-0.2-0.1-0.5-0.1-0.7z m-3.1 0.9h-0.2c-0.2-0.3-0.2-0.5 0-0.8 0.2 0.3 0.3 0.5 0.2 0.8z m1.5-0.4c-0.4 0-0.4-0.1-0.2-0.4 0.1 0.1 0.2 0.3 0.2 0.4z m0 0h0.3c-0.1 0.7-0.2 0.7-0.3 0z m2.7 0.9c-0.1 0.2-0.3 0.4-0.4 0.5 0-0.2 0-0.4-0.2-0.7 0.2-0.4 0.4-0.3 0.6 0.2z m-1.1 0c0.2 0.3 0.3 0.6 0.2 0.9-0.2 0-0.3-0.1-0.4-0.3 0.2-0.1 0.2-0.4 0.2-0.6z m-0.4 0.2c0.1 0.2 0 0.3-0.2 0.3-0.4-0.2-0.4-0.3 0.2-0.3z m-2.9 1.1c-0.2-0.1-0.2-0.3 0-0.4 0.2 0.1 0.2 0.2 0 0.4z m2.9-0.4c0.2 0.1 0.3 0.2 0.4 0.3-0.2 0.1-0.4 0-0.4-0.3z m-2.5 0.5c0.2 0.1 0.3 0.2 0.4 0.3-0.3 0.1-0.4 0-0.4-0.3z m2.7 0.9c-0.1 0-0.2-0.1-0.3-0.3l-0.1 0.3c-0.1-0.2-0.2-0.4-0.5-0.5 0.7-0.6 1-0.4 0.9 0.5z m1.4-0.9c0.3 0.3 0.3 0.5 0 0.8 0-0.2 0-0.5 0-0.8z m0.6 0c0.2 0.2 0.2 0.3 0 0.4-0.2-0.1-0.2-0.2 0-0.4z m0.7 1.7c-0.1-0.1-0.2-0.3-0.4-0.4 0.3-0.3 0.3-0.5 0-0.7 0-0.2 0.1-0.4 0.3-0.6 0.1 0.5 0.2 1 0.3 1.5 0 0.1-0.1 0.2-0.2 0.2z m-2-1.5c0.3 0.1 0.4 0.3 0.3 0.6-0.2-0.2-0.3-0.3-0.3-0.6z m-3 0.6c-0.3 0.4-0.4 0.4-0.3-0.2 0.1 0.1 0.2 0.2 0.3 0.2z m5.7 0c0.2-0.2 0.4-0.2 0.6-0.1-0.2 0.3-0.3 0.7-0.2 1.1h-0.7c-0.1-0.8 0.1-0.8 0.3-0.1l0.2-0.2c0-0.3-0.1-0.5-0.2-0.7z m-6.6 0c0.4 0 0.5 0.1 0.1 0.3-0.1-0.1-0.2-0.2-0.1-0.3z m4.3 1.6v0.5c-0.6 0-0.6 0-0.2-0.2-0.3-0.4-0.5-0.4-0.7 0-0.1-0.3-0.1-0.7-0.1-1-0.2 0.3-0.4 0.4-0.6 0.1l0.3-0.3c0.5-0.2 0.9-0.3 1.3-0.2-0.2 0.2-0.5 0.2-0.7 0.2-0.1 0.3 0 0.5 0.1 0.7 0.2 0 0.2-0.1 0.3-0.2 0.1 0.2 0.2 0.3 0.3 0.4z m0.7-1.1c0.1 0 0.3 0 0.4 0.1-0.3 0.1-0.3 0.2 0 0.4-0.3 0-0.4-0.2-0.4-0.5z m-4.1 0.7c-0.2-0.3-0.1-0.4 0.3-0.2-0.1 0.2-0.2 0.3-0.3 0.2z m1.8-0.2c-0.2 0.1-0.4 0.2-0.7 0.2l-0.2-0.2c0.3-0.2 0.6-0.1 0.9 0z m3.2-0.1c0 0.4-0.1 0.7-0.3 1 0-0.1-0.1-0.2-0.2-0.3 0.1-0.3 0.2-0.6 0.5-0.7z m-1.6 0.7c0.4-0.5 0.6-0.5 0.4 0.2-0.1-0.2-0.2-0.2-0.4-0.2z m1.8-0.4c0.7 0 0.7 0.1 0.1 0.4-0.1-0.1-0.1-0.2-0.1-0.4z m-4.5 0.6c-0.1 0-0.2 0.2-0.3 0.3-0.1-0.2-0.1-0.4 0.1-0.5 0.1 0 0.2 0.1 0.2 0.2z m0.7 0c-0.3 0.2-0.5 0.2-0.7 0 0.3-0.2 0.5-0.2 0.7 0z m0 0c0.2-0.2 0.3-0.2 0.4 0-0.2 0.2-0.3 0.2-0.4 0z" opacity=".004"></path><path d="m35.2 23.7h0.7v0.3c-0.3-0.1-0.6-0.1-0.9 0 0-0.1 0-0.3 0.2-0.3z" opacity=".005"></path><path fill="#e2d197" d="m0.6 18.4c0.2 2.8 0.9 5.4 2.2 7.8 0.1 0.3 0.3 0.5 0.5 0.7l1.1 1.8c0.3 0.5 0.5 0.9 0.6 1.4-1-1-1.9-2.1-2.7-3.4-0.7-1.5-1.4-3-2-4.5v-0.3c-0.2-2.1-0.2-4.2-0.1-6.3 0.1-0.2 0.2-0.4 0.3-0.6l0.1 0.2c-0.2 1.1-0.2 2.2 0 3.2z"></path><path fill="#eee1a6" d="m31.6 10.9h0.5v14h-0.5v-14z"></path><path fill="#ddd5bc" d="m9.6 23.1c-1.6 0.8-3.1 1.6-4.7 2.5l-0.5-0.5c1.2-0.4 2.4-1 3.4-1.8 0.5-0.3 1.1-0.5 1.6-0.7 0.7-0.2 0.8 0 0.2 0.5z"></path><path d="m35 24.2c0.1 0 0.3 0 0.4 0.1-0.2 0.1-0.3 0.1-0.4-0.1z m0.9 0v0.2c-0.1-0.1-0.1-0.2 0-0.2z m-0.5 0.9c-0.2-0.1-0.5-0.2-0.8-0.2 0-0.1 0.1-0.1 0.2-0.1 0.4-0.3 0.6-0.2 0.6 0.3z" opacity=".004"></path><path fill="#b08612" d="m9.6 23.1c0 0.2-0.1 0.3-0.2 0.5 0.4 0.2 0.5 0.4 0.4 0.7l-0.4 0.2c0.3 0.3 0.7 0.6 1.1 0.8-0.3 0.5-0.7 0.6-1.2 0.4 0.1 0.1 0.1 0.2 0.1 0.3-0.5 0.2-1.1 0.2-1.8 0.2 0 0.6 0 1.1 0 1.6-0.8-0.4-1.5-0.8-2.3-1.3-0.2-0.2-0.4-0.5-0.4-0.9 1.6-0.9 3.1-1.7 4.7-2.5z"></path><path d="m35.9 24.8v0.1c-0.5 0-0.5-0.1 0-0.1z m-1.3 0.3c0.5 0 0.5 0.1 0.1 0.4 0-0.1-0.1-0.3-0.1-0.4z m0.8 0c0.1 0.2 0.3 0.2 0.5 0v0.4c-0.2-0.1-0.3 0-0.4 0.1h-0.1c0-0.1-0.1-0.1-0.2-0.1l0.2-0.4z" opacity=".004"></path><path fill="#c09503" d="m11.8 22.8c1.6 1.1 3.4 2.1 5.2 3 0.3 0.7 0.5 1.3 0.5 2-0.8 0.4-1.8 0.8-2.7 1.1-0.3 0-0.6 0-0.9 0-0.3 0.5-0.6 0.5-0.9 0-0.1 0.3-0.2 0.5-0.4 0.7l-0.2-0.2c-0.1 0.5-0.5 0.7-1 0.6-1.2-0.8-2.5-1.5-3.8-2.2 0-0.5 0-1 0-1.6 0.7 0 1.3 0 1.8-0.2 0-0.1 0-0.2-0.1-0.3 0.5 0.2 0.9 0.1 1.2-0.4-0.4-0.2-0.8-0.5-1.1-0.8l0.4-0.2c0.1-0.3 0-0.5-0.4-0.7 0.1-0.2 0.2-0.3 0.2-0.5 0.3 0 0.5-0.1 0.7-0.3 0.5 0.2 1 0.2 1.5 0z"></path><path d="m35.2 25.5c0.1 0 0.2 0 0.2 0.1-0.1 0.2-0.2 0.3-0.4 0.2 0-0.1 0-0.3 0.2-0.3z" opacity=".004"></path><path fill="#ad9a77" d="m3.3 8.7c0 0.2 0 0.3 0.1 0.4 0.4-0.2 0.9-0.2 1.4-0.2v0.5c0.4-0.1 0.9-0.3 1.4-0.5-0.3 0.3-0.7 0.6-1.2 0.9 0 0.1-0.1 0.2-0.1 0.4-0.1 0.1-0.2 0.3-0.1 0.5h-0.4c-0.1 0-0.2 0.1-0.2 0.2h-0.5v14h0.5c0 0.2 0.1 0.2 0.2 0.2l0.5 0.5c0 0.4 0.2 0.7 0.4 0.9-0.4 0.1-0.5 0.3-0.2 0.6-0.5-0.1-1.1-0.2-1.7-0.4-0.1 0.1-0.1 0.1-0.1 0.2-0.2-0.2-0.4-0.4-0.5-0.7 0.1-0.4 0.4-0.7 0.6-1.1 0.1-4.8 0.1-9.6 0-14.4-0.3-0.3-0.4-0.7-0.5-1.1-0.2 0.6-0.5 1-0.8 1.5-0.1-0.5 0-1 0.2-1.5 0.4-0.1 0.8-0.4 1-0.9z"></path><path d="m35.5 25.6c0.3 0.2 0.3 0.2 0 0z m-0.9 0.4c0.1-0.1 0.2-0.2 0.4-0.2-0.1 0.2-0.2 0.2-0.4 0.2z m0 0c-0.1 0.1-0.1 0.1 0 0z m0.9 0c0.3 0.1 0.3 0.1 0 0z" opacity=".004"></path><path fill="#c5beba" d="m20.4 24.8c-0.2 0.3-0.5 0.6-0.9 0.7-0.2 0-0.3 0-0.5 0.1-0.7 1.2-0.9 2.4-0.7 3.7v1.9c-0.2-0.1-0.3-0.3-0.3-0.5l-0.2 0.2c0-0.6-0.1-1.1-0.2-1.6v-1.5c-0.1-0.7-0.3-1.3-0.6-2 0.1 0.2 0.2 0.3 0.3 0.6 0.1-0.4 0.2-0.9 0.3-1.3 0.8 0.1 1.5-0.1 2.1-0.7l-0.5-0.5c0.3 0 0.5-0.2 0.5-0.6 0.3 0.1 0.6 0.2 0.9 0.4 0.1-0.1 0.2-0.2 0.3-0.4 0.2 0.2 0.5 0.2 0.8 0 0.1 0 0.2-0.1 0.4-0.2 0.2 0.1 0.2 0.2 0 0.3-0.7 0.4-1.3 0.8-2 1.1 0.1 0 0.3 0.1 0.3 0.2z"></path><path fill="#bc9106" d="m25.1 22.8c0.9 0.3 1.8 0.8 2.7 1.2 0.4 0.3 0.8 0.6 1.3 0.8 0.5 0.3 1 0.6 1.6 0.9 0.2 0.3 0.2 0.5 0 0.7-2.1 1.1-4.1 2.3-6.1 3.4-0.3-0.5-0.2-0.9 0.3-1.2 0-0.2-0.1-0.4-0.1-0.6v-0.6c-0.3 0.1-0.5 0-0.8 0l1.5-0.2c-0.4-0.1-0.8-0.3-1.1-0.5 0.1-0.2 0.3-0.2 0.4 0 0.2-0.6 0.4-0.6 0.8-0.1-0.1-0.6-0.4-1.1-0.9-1.5l-0.2 0.4c-0.5-0.4-0.9-0.9-1.1-1.5-0.4 0.4-0.3 0.8 0.1 1.1l-0.2 0.2c-0.6-1-0.9-0.9-0.9 0.3h-0.7c-0.1 0.4 0 0.7 0.2 1-0.2 0.3-0.4 0.4-0.7 0.5-0.5-0.5-1.1-0.8-1.8-0.8l-0.2-0.2c0.1-0.2 0.2-0.4 0.3-0.6 0.4-0.1 0.7-0.4 0.9-0.7l2.2-1.1c0.2 0 0.3 0 0.4 0.2l0.6-0.6 2 2.5c0.2 0.5 0.5 0.6 0.9 0.4 0-0.2-0.1-0.2-0.2 0-0.4-0.6-0.5-1.2-0.3-1.9-0.3-0.5-0.6-0.9-1.1-1.3 0.1 0 0.2-0.1 0.2-0.2z"></path><path d="m35.5 26.2c0 0.5-0.2 0.6-0.5 0.3l0.5-0.3z m-1.6 0.4c0-0.2 0.1-0.2 0.2-0.2 0.5 0 0.5 0.1 0.1 0.3-0.1-0.1-0.2-0.1-0.3-0.1z m0.7-0.2c0.3 0.1 0.3 0.1 0 0z m1.3 0v0.3c-0.2-0.1-0.2-0.2 0-0.3z m-1.4 0.3c0.2 0.2 0.2 0.2 0 0z m0.5 0.4c0.1-0.2 0.2-0.2 0.4-0.1-0.1 0.1-0.3 0.1-0.4 0.1z" opacity=".004"></path><path fill="#e90823" d="m5.1 27.1c3.7 2.2 7.4 4.4 11.2 6.6 0.5 0.3 0.9 0.7 1.3 1.1-0.6 0.2-1.1 0.3-1.7 0.2-0.5-0.1-1-0.1-1.6-0.2-1.2-0.3-2.4-0.7-3.6-1.2-2.4-1.3-4.5-2.9-6.3-4.9l-1.1-1.8c0-0.1 0-0.1 0.1-0.2 0.6 0.2 1.2 0.3 1.7 0.4z"></path><path fill="#ae8209" d="m24.8 28c-0.5 0-0.9-0.3-1.3-0.7 0.9-1.2 0.6-1.8-0.9-1.8 0 0.3-0.1 0.5-0.4 0.6l0.4 0.4c0.1 0.6-0.1 1.2-0.4 1.8-0.2 0.1-0.5 0-0.7-0.1-0.1 0.1-0.2 0.3-0.3 0.5-0.4-0.3-0.8-0.5-1.3-0.5 0 0.2 0 0.4 0.2 0.6-0.3 0.1-0.5 0.1-0.7 0.1 0 0.2-0.1 0.4-0.2 0.5-0.3-0.1-0.6-0.2-0.9-0.2-0.2-1.2 0-2.4 0.7-3.6 0.2-0.1 0.3-0.1 0.5-0.1-0.1 0.2-0.2 0.4-0.3 0.6l0.2 0.2c0.7 0 1.3 0.3 1.8 0.8 0.3-0.1 0.5-0.2 0.7-0.5-0.2-0.3-0.3-0.6-0.2-1h0.7c0-1.2 0.3-1.3 0.9-0.3l0.2-0.2c-0.4-0.3-0.5-0.7-0.1-1.1 0.2 0.6 0.6 1.1 1.1 1.5l0.2-0.4c0.5 0.4 0.8 0.9 0.9 1.5-0.4-0.5-0.6-0.5-0.8 0.1-0.1-0.2-0.3-0.2-0.4 0 0.3 0.2 0.7 0.4 1.1 0.5l-1.5 0.2c0.3 0 0.5 0.1 0.7 0.1v0.5z"></path><path fill="#e80926" d="m32.5 26.9c-3 4.8-7.4 7.5-13.1 8.1-0.5 0.1-0.8 0-1.1-0.2 0.4-0.3 0.8-0.7 1.2-1.1 3.9-2.3 7.8-4.5 11.7-6.8 0.5 0 0.9 0 1.3 0z"></path><path d="m34.1 27.1c0.2 0.1 0.2 0.2 0.1 0.3-0.1-0.1-0.1-0.2-0.1-0.3z m1.8 0v0.3c-0.2-0.1-0.2-0.2 0-0.3z m-2.1 0.2c0.2 0.1 0.2 0.1 0 0z m2.1 0.3v0.2c-0.2 0-0.4 0.1-0.4 0.4-0.3 0-0.6 0.2-0.8 0.5-0.1-0.1-0.4-0.2-0.6-0.2 0-0.2-0.1-0.2-0.2 0-0.1 0-0.2 0.1-0.2 0.2-0.1 0-0.2 0-0.3-0.2 0.1 0 0.2 0 0.2-0.2 0.4-0.1 0.6-0.3 0.6-0.7l0.3 0.1c-0.2 0.1-0.2 0.3-0.1 0.5 0.2-0.1 0.5-0.1 0.8-0.1 0.2-0.2 0.1-0.3-0.2-0.4 0.1-0.1 0.2-0.3 0.3-0.4 0.1 0.2 0.3 0.3 0.6 0.3z m-2.5 0c0.4 0.2 0.3 0.3-0.2 0.5 0.2 0 0.3 0.1 0.4 0.2-0.2 0-0.2 0.1-0.2 0.2-0.1 0-0.3 0-0.4 0.1 0.2 0.2 0.2 0.3 0 0.5l-0.3-0.6c0.2-0.3 0.4-0.6 0.7-0.9z m1.2 0c0.3 0.2 0.3 0.2 0 0z" opacity=".004"></path><path fill="#a68837" d="m0.3 22.2c0.6 1.5 1.3 3 2 4.5 0.8 1.3 1.7 2.4 2.6 3.4l0.4 0.6v0.2h-0.4v-0.2c0-0.1 0-0.2-0.1-0.2s-0.2 0-0.2-0.2c-0.1-0.2-0.2-0.3-0.4-0.3 0-0.2-0.2-0.3-0.3-0.4v-0.2c-0.3-0.5-0.7-1-1.1-1.4 0-0.1-0.1-0.2-0.2-0.2l-0.2-0.4c-0.1 0-0.2 0-0.2-0.1-0.3-0.6-0.6-1.2-0.9-1.8 0.1-0.2 0-0.3-0.1-0.4h-0.2v-0.2c0.2 0 0.2-0.1 0-0.1 0-0.3 0-0.5-0.2-0.6v-0.2c0-0.1 0-0.3-0.2-0.3v-0.4c0-0.1 0-0.2-0.2-0.2-0.1-0.2-0.2-0.5-0.3-0.8 0-0.1 0.1-0.1 0.2-0.1z" opacity=".51"></path><path d="m35.9 28v1.4c-0.2-0.4-0.3-0.8-0.4-1.2l0.4-0.2z m-2 0.5h0.2v0.4c-0.2 0.3-0.2 0.7-0.2 1.1-0.3 0.2-0.4 0.1-0.1-0.3-0.1-0.1-0.3-0.2-0.4-0.3-0.1-0.1-0.2-0.2-0.4-0.1v-0.2c0.4 0 0.6-0.1 0.8-0.4 0.1 0 0.1 0 0.1-0.2z m1.5 0.4c-0.2 0-0.2 0-0.2 0.2h-0.2c0-0.2 0-0.4 0.2-0.6 0.1 0.1 0.2 0.2 0.2 0.4z m-0.8 0.4c0 0.2 0.2 0.4 0.4 0.5-0.1 0.2-0.2 0.2-0.4 0.1-0.2-0.3-0.4-0.6-0.5-1 0.1 0 0.2-0.1 0.3-0.2 0 0.2 0.1 0.4 0.3 0.6z m0.8-0.4c0.1 0.4 0.1 0.8 0 1.3l-0.4-0.4v-0.4c0.2 0 0.2-0.2 0.2-0.3 0.1 0 0.2-0.1 0.2-0.2z m-0.8 0.4c0.1-0.2 0.2-0.3 0.4-0.2v0.3l-0.4-0.1z" opacity=".004"></path><path fill="#886e32" d="m35.2 23.1v0.6c-0.2 0-0.2 0.2-0.2 0.3v0.2c-0.2 0.1-0.2 0.3-0.2 0.5-0.1 0-0.2 0.1-0.2 0.2v0.2c-0.3 0.4-0.5 0.8-0.5 1.3-0.1 0-0.2 0-0.2 0.1-0.2 0.4-0.3 0.8-0.5 1.1-0.3 0.3-0.5 0.6-0.7 0.9-0.2 0.2-0.2 0.5-0.1 0.7-0.2-0.2-0.3-0.2-0.5 0-0.2 0.3-0.4 0.5-0.7 0.6 0.7-1 1.4-2 2.1-3.1 0.6-1.1 1-2.2 1.3-3.4l0.4-0.2z" opacity=".298"></path><path d="m33 29.3c0.1 0.1 0.2 0.2 0.4 0.1 0 0.3-0.1 0.5-0.4 0.7 0.3 0 0.4 0.2 0.3 0.4-0.3-0.1-0.5-0.2-0.8-0.3l0.4-0.1c-0.3-0.1-0.5-0.2-0.6-0.5l0.7-0.3z" opacity=".004"></path><path fill="#9a6c20" d="m24.8 28c0 0.2 0.1 0.4 0.1 0.6-0.5 0.3-0.6 0.7-0.3 1.2-0.2 0.2-0.4 0.3-0.6 0.3v-0.5h-0.5c0-0.5-0.1-0.6-0.4-0.3l0.2 0.2c-0.2 0.1-0.4 0.3-0.5 0.5-0.3-0.4-0.6-0.3-0.9 0.1-0.5-0.2-0.9-0.2-1.3 0 0.1 0.2 0.2 0.3 0.4 0.3-0.7 0.1-1.3 0.4-1.8 0.6-0.3 0-0.6-0.1-0.9-0.1v-1.7c0.3 0 0.6 0.1 0.9 0.2 0.1-0.1 0.2-0.3 0.2-0.5 0.2 0 0.4 0 0.7-0.1-0.2-0.2-0.2-0.4-0.2-0.6 0.5 0 0.9 0.2 1.3 0.5 0.1-0.2 0.2-0.4 0.3-0.5 0.2 0.1 0.5 0.2 0.7 0.1 0.3-0.6 0.5-1.2 0.4-1.8l-0.4-0.4c0.3-0.1 0.4-0.3 0.4-0.6 1.5 0 1.8 0.6 0.9 1.8 0.4 0.4 0.8 0.7 1.3 0.7z"></path><path d="m35.9 29.6v0.2c-0.1-0.1-0.1-0.2 0-0.2z" opacity=".004"></path><path fill="#cbb178" d="m4.4 28.7c1.8 2 3.9 3.6 6.3 4.9-0.1 0.2-0.2 0.4-0.3 0.5-0.6-0.3-1.2-0.6-1.8-0.7-1.1-0.9-2.2-1.8-3.3-2.7l-0.3-0.6c-0.1-0.5-0.3-0.9-0.6-1.4z"></path><path d="m33.9 30c0.2 0 0.3 0.1 0.4 0.2-0.2 0.1-0.4 0-0.4-0.2z m2 0v0.3c-0.2-0.1-0.2-0.2 0-0.3z m-4.3 0.3c0.1-0.2 0.2-0.2 0.3-0.1-0.1 0.1-0.2 0.2-0.3 0.1z m3.8-0.2c0.2 0.2 0.2 0.3 0 0.5 0.1 0.1 0.3 0.1 0.5 0.1v0.2c-0.9 0.1-1.1-0.1-0.5-0.8z m-2.9 0.4c0.2 0.1 0.2 0.2 0 0.4-0.2-0.1-0.2-0.2 0-0.4z m2.1 0c0.3 0.1 0.3 0.2 0 0.4-0.1-0.1-0.1-0.2 0-0.4z m-3.4 0.4c0.1-0.2 0.2-0.2 0.4-0.1-0.1 0.1-0.2 0.1-0.4 0.1z m0.7 0.5c-0.2 0.1-0.4 0.3-0.4 0.5-0.9-0.7-0.8-0.9 0.3-0.7 0.1-0.6 0.1-0.6 0.1 0.2z m1.1-0.5c0.2-0.2 0.5-0.3 0.8-0.1-0.3 0.1-0.5 0.1-0.8 0.1z m1.1-0.2c0.2 0.1 0.2 0.1 0 0z" opacity=".004"></path><path fill="#6c5626" d="m5.3 30.7c1.1 0.9 2.2 1.8 3.2 2.7-0.2 0.2-0.5 0.2-0.7-0.1 0.2-0.2 0.2-0.3-0.2-0.3-0.1-0.3-0.4-0.6-0.8-0.7h-0.2c-0.1-0.2-0.2-0.2-0.2 0-0.2-0.4-0.5-0.6-0.9-0.7 0.2-0.2 0.2-0.3 0-0.4l-0.2-0.3v-0.2z" opacity=".106"></path><path d="m32.1 31.4c0-0.3 0.2-0.4 0.4-0.3-0.1 0.2-0.2 0.3-0.4 0.3z m0.9-0.2c-0.1 0-0.1 0.1-0.1 0.2h-0.2c0-0.3 0.1-0.4 0.3-0.2z m1.6 0.2c0.2 0.3 0.1 0.6-0.3 0.7-0.3-0.4-0.2-0.7 0.1-1 0 0.1 0.1 0.2 0.3 0.3z m0 0c0.3-0.4 0.6-0.5 0.9-0.1-0.2 0.1-0.5 0.1-0.9 0.1z m-1.6 0v-0.2c0.3 0 0.6 0 0.9 0.1-0.1 0.1-0.2 0.2-0.3 0.3 0.2 0.1 0.3 0.3 0.2 0.5-0.2-0.2-0.5-0.5-0.8-0.7z m2.9-0.2v0.2c-0.1-0.1-0.1-0.1 0-0.2z" opacity=".004"></path><path fill="#5d4c24" d="m32.1 29.3l0.2 0.3c-0.3 0-0.4 0.1-0.2 0.3-0.2 0.1-0.4 0.1-0.7 0.1v0.5c-0.3 0.1-0.6 0.3-0.9 0.5 0.2 0.2 0.2 0.4 0 0.6-0.2-0.2-0.3-0.2-0.5-0.1-0.2 0.4-0.5 0.6-0.9 0.7 0.1 0.1 0.1 0.2 0.2 0.3-0.6-0.1-0.9 0.1-1.1 0.5-0.2 0-0.3 0.1-0.4 0.2-0.4 0.3-0.8 0.5-1.2 0.7-0.2 0-0.2 0.1-0.2 0.2-0.2 0-0.3 0-0.4 0.2-0.1 0-0.2 0-0.2 0.2l-0.3-0.2c2.2-1.2 4.1-2.7 5.9-4.5 0.3-0.1 0.5-0.3 0.7-0.5z" opacity=".055"></path><path d="m31.9 31.4h0.2c0.1 0.2 0.2 0.2 0.4 0.2 0 0.1 0 0.2-0.1 0.3-0.1-0.2-0.3-0.2-0.5 0-0.1-0.1-0.1-0.3 0-0.5z m0.8 0c-0.2 0.1-0.2 0.1 0 0z m0.2 0h0.1c0 0.1-0.1 0.1-0.1 0z m-2.4 0.2c0.5 0.1 0.5 0.3 0.1 0.5-0.1-0.1-0.1-0.3-0.1-0.5z" opacity=".004"></path><path fill="#bba77b" d="m30.3 24.8c0.3 0.3 0.8 0.6 1.3 0.6-0.2 0.5-0.3 1-0.4 1.5-3.9 2.3-7.8 4.5-11.7 6.8-0.4 0.4-0.8 0.8-1.2 1.1h-0.7c-0.4-0.4-0.8-0.8-1.3-1.1-3.8-2.2-7.5-4.4-11.2-6.6-0.3-0.3-0.2-0.5 0.2-0.6 0.8 0.5 1.5 0.9 2.3 1.3 1.3 0.7 2.6 1.4 3.8 2.2 0.7 0.5 1.4 0.9 2.2 1.2 0.5 0.4 1.1 0.8 1.8 1.1 0.4 0.3 0.8 0.5 1.2 0.8 0.4 0.2 0.7 0.1 0.9-0.1h0.8c0.1 0.2 0.3 0.3 0.5 0.1 1.8-1 3.5-2 5.2-2.9 0.2-0.1 0.4-0.2 0.6-0.4 2-1.1 4-2.3 6.1-3.4 0.2-0.2 0.2-0.4 0-0.7-0.6-0.3-1.1-0.6-1.6-0.9-0.1-0.2-0.3-0.4-0.4-0.6 0.7-0.2 1.2 0 1.6 0.6z"></path><path fill="#b38709" d="m24 30.1c-1.7 1-3.4 2-5.2 3-0.2 0.2-0.4 0.1-0.5-0.1v-2.1c0.3 0 0.6 0.1 0.9 0.1 0.5-0.2 1.1-0.5 1.8-0.6-0.2 0-0.3-0.1-0.4-0.3 0.4-0.2 0.8-0.2 1.3 0 0.3-0.4 0.6-0.5 0.9-0.1 0.1-0.2 0.3-0.4 0.5-0.5l-0.2-0.2c0.3-0.3 0.4-0.2 0.4 0.3h0.5v0.5z"></path><path fill="#b2860b" d="m15.4 32.3c-0.7-0.3-1.3-0.7-1.8-1.1-0.2-0.3 0-0.6 0.4-0.7l0.2-0.5c0.4 0.3 0.9 0.4 1.4 0.4 0.2 0.5 0.6 0.9 1 1.1-0.2 0.2-0.3 0.4-0.5 0.6-0.2 0.2-0.4 0.3-0.7 0.2z"></path><path fill="#a2751d" d="m17.6 27.8v5.2c-0.3 0.2-0.6 0.3-0.9 0.1-0.5-0.3-0.9-0.5-1.3-0.8 0.3 0.1 0.5 0 0.7-0.2 0.2-0.2 0.3-0.4 0.6-0.6-0.5-0.2-0.9-0.6-1.1-1.1-0.5 0-1-0.1-1.4-0.4l-0.2 0.5c-0.4 0.1-0.6 0.4-0.4 0.7-0.8-0.3-1.5-0.7-2.2-1.2 0.5 0.1 0.9-0.1 1-0.6l0.2 0.2c0.2-0.2 0.3-0.4 0.4-0.7 0.3 0.5 0.6 0.5 0.9 0 0.3 0 0.6 0 0.9 0 0.9-0.3 1.9-0.7 2.8-1.1z"></path><path d="m35 31.8c0.2 0.1 0.2 0.1 0 0z m0 0.1c-0.1 0.2-0.1 0.2 0 0z m-4.5 0.8c-0.4 0-0.5-0.2-0.4-0.6 0.1 0.2 0.3 0.4 0.4 0.6z m0.5-0.6c0.2 0.1 0.3 0.2 0.1 0.4 0-0.1-0.1-0.2-0.1-0.4z m0.6 0c0.2 0.1 0.2 0.2 0.1 0.4-0.1-0.1-0.1-0.2-0.1-0.4z m0.9 0.2c-0.1-0.2-0.1-0.2 0 0z m0 0c0.1-0.2 0.3-0.2 0.4 0-0.2 0.2-0.3 0.2-0.4 0z m0.7 0c-0.1-0.2-0.1-0.2 0 0z m2.7-0.2v0.2c-0.1-0.1-0.1-0.1 0-0.2z m-3.6 0.2c-0.1 0.1-0.1 0.1 0 0z m0.9 0c0.2 0.1 0.2 0.1 0 0z m0.4 0.2c0-0.2 0.2-0.2 0.3-0.1-0.1 0.1-0.2 0.1-0.3 0.1z m0.7-0.2c0.2 0.1 0.2 0.1 0 0z m-5 0.4v-0.2c0.2 0 0.4 0.1 0.5 0.4-0.1 0-0.2 0-0.2 0.1l-0.3-0.3z m2.8-0.2c0.2 0.1 0.2 0.3 0 0.4-0.2-0.2-0.2-0.3 0-0.4z m1.1 0c-0.1 0.1-0.1 0.1 0 0z m1.4 0c0.3 0.1 0.3 0.1 0 0z m0.9 0.2c0.1-0.2 0.2-0.2 0.4-0.2v0.2h-0.4z" opacity=".004"></path><path fill="#d6c18f" d="m17.6 29.3c0.1 0.5 0.2 1 0.2 1.6l0.2-0.2c0 0.2 0.1 0.4 0.3 0.5v1.8h-0.7v-3.7z"></path><path d="m29.3 32.7c0 0.2-0.1 0.3-0.1 0.5-0.2-0.2-0.1-0.4 0.1-0.5z m1.2 0c0.2 0.1 0.2 0.1 0 0z m3.3 0.3c-0.2 0-0.3-0.2-0.1-0.3 0 0.1 0.1 0.2 0.1 0.3z m1.7-0.3c0.1 0.6 0 0.6-0.3 0.1 0.1-0.1 0.2-0.2 0.3-0.1z m-5.7 0.2c0.1 0 0.2 0 0.2 0.1l-0.2-0.1z m1.2 0.1c-0.1-0.2-0.1-0.2 0 0z m1.5-0.1c0.2 0 0.2 0.1 0.1 0.3-0.1-0.1-0.1-0.2-0.1-0.3z m2.1 0c0.3 0.1 0.3 0.1 0 0z m-6.8 0.3c0.1-0.1 0.2-0.2 0.4-0.2 0.2 0 0.5 0 0.7 0.1-0.4 0.1-0.6 0.3-0.8 0.7-0.1-0.3-0.2-0.5-0.3-0.6z m1.8-0.2h0.2c0 0.2-0.1 0.2-0.2 0z m0.4 0c0.2 0 0.3 0.2 0.2 0.4-0.1-0.1-0.2-0.2-0.2-0.4z m1 0.2v-0.2c0.5 0.1 0.5 0.2 0 0.2z m0.6 0c0.1-0.2 0.2-0.2 0.3-0.1-0.1 0.1-0.2 0.1-0.3 0.1z m0.5-0.2c0.3 0.2 0.3 0.2 0 0z m0.9 0.2c0.1-0.2 0.2-0.2 0.4-0.1-0.1 0.1-0.2 0.1-0.4 0.1z m0.8-0.2c0.2 0.2 0.2 0.2 0 0z m0.8 0c-0.1 0.2-0.3 0.3-0.5 0.1 0.2-0.1 0.4-0.1 0.5-0.1z m-3.6 0.2c-0.1 0.1-0.1 0.1 0 0z m-1.9 0.2c0.2 0.1 0.2 0.2 0.1 0.4-0.1-0.2-0.2-0.3-0.1-0.4z m3.4 0c0.2 0.1 0.2 0.1 0 0z m0.5 0c0.3 0.1 0.3 0.1 0 0z m0.6 0c0.2 0.1 0.2 0.1 0 0z m0.5 0c0.2 0.1 0.2 0.1 0 0z m0.4 0.2c0.1-0.3 0.2-0.3 0.3 0-0.1 0.1-0.2 0.1-0.3 0z m-26 0c0.1 0.7 0.3 0.8 0.8 0.3l0.3 0.2c0.1 0.2 0.2 0.2 0.2 0 0.2 0.1 0.4 0.2 0.5 0.4 0.1 0.2 0.2 0.2 0.2 0l0.4 0.1c-0.2 0.3-0.2 0.6 0 0.9 0-0.2 0.1-0.4 0.3-0.7 0.2 0 0.3 0.1 0.4 0.2-0.1 0.2-0.1 0.2 0.2 0 0.2 0 0.3 0 0.3 0.2 0 0.1 0.1 0.2 0.2 0.2v0.5h-0.5c-0.2-0.7-0.5-0.7-0.7 0h-0.2c-0.1-0.2-0.2-0.2-0.4 0h-0.5c-0.1-0.2-0.1-0.2-0.2 0h-0.4c-0.2-0.2-0.4-0.2-0.7 0h-0.2v-0.4c0.3 0.1 0.5 0 0.8 0-0.3-0.4-0.2-0.7 0.1-1-0.3 0-0.8-0.1-1.2-0.2 0.2-0.2 0.2-0.3 0-0.5 0.1-0.1 0.2-0.2 0.3-0.2z m1.5 1.4c-0.2 0.2-0.4 0.2-0.6 0 0.4-0.1 0.5-0.3 0.4-0.5 0.2 0.1 0.2 0.3 0.2 0.5z m0 0c0.7 0 0.7 0.1 0.1 0.4-0.1-0.1-0.1-0.3-0.1-0.4z m17.6-1.4c0.3 0.1 0.3 0.1 0 0z m3.1 0.2c0.3-0.3 0.6-0.3 0.9-0.1-0.3 0-0.6 0.1-0.9 0.1z m1.8-0.2c-0.2 0.2-0.4 0.2-0.7 0.1 0.2-0.1 0.4-0.2 0.7-0.1z m1.1 0c-0.2 0.1-0.2 0.1 0 0z m1.6 0c0.2 0.1 0.2 0.1 0 0z m0.3 0c0.3 0.1 0.3 0.1 0 0z m-8.9 0.3c0.2 0.6 0 0.8-0.6 0.6v-0.2c0.2 0 0.3 0 0.4-0.2 0-0.1 0-0.2 0.2-0.2z m0.7 0.7c-0.1-0.2 0-0.4 0.1-0.7 0.2 0.3 0.2 0.5-0.1 0.7z m2-0.7c0.2 0.2 0.2 0.2 0 0z m1.2 0.4c-0.1 0.2-0.3 0.2-0.5 0-0.1-0.1 0-0.3 0.1-0.4 0.1 0.2 0.2 0.3 0.4 0.4z m1.8-0.2c0.1-0.2 0.2-0.2 0.4-0.1-0.1 0.1-0.3 0.1-0.4 0.1z m0.9 0c-0.1-0.2-0.1-0.2 0 0z m2.2 0c-0.2-0.2-0.2-0.2 0 0z m-7.6 0.2c0.1-0.2 0.2-0.2 0.4 0-0.1 0.2-0.2 0.2-0.4 0z m0.5 0c0.2-0.2 0.4-0.2 0.6 0.1-0.2 0.3-0.4 0.3-0.6-0.1z m1.5 0c-0.1-0.2-0.1-0.2 0 0z m0.9 0c-0.1-0.2-0.1-0.2 0 0z m0.5-0.2c0.3 0.1 0.3 0.1 0 0z m0.7 0.2c-0.1 0-0.2 0-0.3-0.1 0.2-0.1 0.3-0.1 0.3 0.1z" opacity=".004"></path><path d="m32.3 34.1v0.2c-0.1-0.1-0.1-0.2 0-0.2z" opacity=".008"></path><path d="m33.2 34.1c0.2 0.1 0.2 0.1 0 0z m0.9 0.2c0.1-0.2 0.3-0.2 0.5-0.1-0.1 0.1-0.3 0.1-0.5 0.1z m0.9 0c-0.1-0.2-0.1-0.2 0 0z m0.4-0.2c0.2 0.1 0.2 0.1 0 0z m-5.6 0.2h0.2c-0.1 0.5-0.2 0.5-0.2 0z m0.9 0c0.1 0 0.2 0 0.3 0.1-0.1 0.1-0.2 0.1-0.3-0.1z m1.2 0h0.2c0 0.1-0.1 0.1-0.1 0z m0.4 0c0.1 0 0.2 0 0.2 0.2l-0.2-0.2z m0.6 0c0.2 0.1 0.2 0.1 0 0z m1.2 0c0 0.1 0 0.2-0.1 0.3-0.1-0.1-0.1-0.2 0.1-0.3z m0.9 0.2v-0.2h0.4v0.2h-0.4z m-9.2 0h0.2c0 0.1-0.1 0.1-0.2 0z m6.1 0c-0.1 0.1-0.1 0.1 0 0z m0.6 0c0.2 0.1 0.2 0.1 0 0z m2 0c0.2 0.1 0.2 0.1 0 0z m0.5 0c-0.1 0.1-0.1 0.1 0 0z m0.4 0c0.2 0.1 0.2 0.1 0 0z m0.5 0v0.1c-0.1 0-0.1-0.1 0-0.1z m-10.1 0.1c-0.1 0.2-0.1 0.2 0 0z m1.5 0c-0.2 0.2-0.2 0.2 0 0z m0.3 0c0.3 0.2 0.3 0.2 0 0z m0.6 0c0.2 0.2 0.2 0.2 0 0z m3.6 0c0.2 0.5 0.2 0.6-0.2 0.4 0-0.2 0-0.3 0.2-0.4z m-6.5 0.8c-0.2-0.3-0.4-0.3-0.5 0 0.3-0.7 0.4-0.7 0.5 0z m1.1-0.6c0.2 0.2 0.2 0.2 0 0z m0.5 0.2c-0.1-0.2-0.1-0.2 0 0z m2.7 0.9h-0.2c0-0.2-0.1-0.5-0.2-0.7-0.2 0.5-0.3 0.5-0.4 0-0.1 0.2-0.3 0.2-0.4 0.1 0.4-0.3 0.8-0.5 1.2-0.5 0.2 0.4 0.2 0.8 0 1.1z m1.1-0.9c-0.1-0.2-0.1-0.2 0 0z m1.4-0.2c0.3 0.2 0.3 0.2 0 0z m2.4 0.7c-0.3-0.1-0.4-0.3-0.4-0.7 0.6 0 0.6 0.1 0.2 0.3 0.1 0.1 0.2 0.3 0.2 0.5z m0.5-0.5c-0.1-0.2-0.1-0.2 0 0z m0.4-0.2c0.2 0.2 0.2 0.2 0 0z m-11.6 0.2c0 0.6 0.1 0.7 0.4 0.2 0.2 0.1 0.4 0.2 0.5 0.2 0.1 0.1 0.1 0.2 0.2 0.2-0.1 0.1-0.3 0.2-0.3 0.3h-0.4c0-0.2-0.1-0.2-0.2 0h-0.3c0-0.1-0.1-0.2-0.2-0.2 0.1-0.1 0.2-0.3 0.2-0.5 0-0.1 0-0.2 0.1-0.2z m2.2 0.2c-0.1 0.1-0.2 0.2-0.2 0.3h-0.2c0-0.2 0.1-0.3 0.2-0.5 0.1 0 0.2 0.1 0.2 0.2z m0.9-0.2c0.3 0 0.4 0.1 0.3 0.4-0.1-0.1-0.2-0.2-0.3-0.4z m1.1 0c0.2 0.1 0.2 0.1 0 0z m2.7 0h0.9c-0.1 0.1-0.3 0.2-0.6 0.3l0.4 0.2c-0.1 0.1-0.2 0.2-0.2 0.4h-0.2c0.1-0.2 0-0.3-0.1-0.3 0-0.2-0.1-0.4-0.2-0.6z m2 0.2c-0.2-0.2-0.2-0.2 0 0z m0.2 0c0.2-0.1 0.4-0.2 0.6-0.2 0.1 0.2 0.1 0.4 0 0.5-0.2-0.1-0.3-0.1-0.5 0 0.1-0.1 0-0.2-0.1-0.3z m2.1-0.2h0.4c0.1 0.2 0.1 0.5-0.1 0.7-0.2-0.2-0.3-0.4-0.3-0.7z m-22.7 0.4v-0.2c0.2 0 0.4 0.1 0.6 0.2-0.3 0.1-0.3 0.3 0 0.5h-0.4c0.1-0.2 0-0.4-0.2-0.5z m11-0.2c0 0.2 0 0.4 0.2 0.5v0.2h-0.4c0-0.2-0.1-0.4-0.3-0.5 0.2 0 0.3-0.1 0.5-0.2z m2.7 0c0.5-0.1 0.6 0.1 0.3 0.3-0.1 0-0.2-0.2-0.3-0.3z m1.4 0.2c0.1-0.2 0.2-0.2 0.4-0.1-0.1 0.1-0.2 0.1-0.4 0.1z m2.9-0.2c0.3 0.1 0.3 0.1 0 0z m1.8 0c0.3 0.1 0.3 0.2 0 0.3-0.1 0-0.1-0.2 0-0.3z m0.6 0h0.2c-0.1 0.2 0 0.3 0.1 0.3l-0.1 0.4h-0.2v-0.7z m1.1 0.5c-0.1-0.2 0-0.3 0-0.5 0.2 0.2 0.1 0.4 0 0.5z m-20.8-0.3l0.4 0.1c0.1 0.3 0.1 0.3 0.2 0h0.2c0 0.2 0 0.2 0.1 0.2v0.2h-0.9v-0.5z" opacity=".004"></path><path fill="#cbaf73" d="m34.6 22.2c0.1 0.4 0 0.7-0.1 1 0 0.3 0.1 0.4 0.3 0.1-0.3 1.2-0.7 2.3-1.3 3.4-0.7 1.1-1.4 2.1-2.1 3.1-1.8 1.8-3.7 3.3-5.9 4.5-3.2 1.2-6.5 1.6-9.9 1.3-1.6-0.2-3.2-0.6-4.7-1.2 0.1-0.2 0.2-0.3 0.4-0.3 1 0.4 2 0.7 3 0.7 0.6 0.1 1.1 0.1 1.6 0.2 1.2 0.2 2.3 0.2 3.4 0 5.8-0.6 10.2-3.3 13.2-8.1 0.3-0.2 0.4-0.4 0.5-0.7 0.6-1.3 1.2-2.6 1.6-4z"></path><path d="m25.3 35.4l0.3 0.1v0.4h-0.1c0-0.1-0.1-0.2-0.2-0.2v-0.3z m9.5 0.5h-0.2c0-0.1 0-0.2-0.1-0.2v-0.2c0.3-0.2 0.4 0 0.3 0.4z m-9-0.4c0.3 0.2 0.3 0.2 0 0z m1.1 0c0.2 0.2 0.2 0.2 0 0z m1.6 0c0.3 0.2 0.3 0.2 0 0z m2 0.2c-0.2 0.1-0.4 0-0.5-0.1 0.2-0.1 0.4-0.1 0.5 0.1z m0.4-0.2c-0.2 0.2-0.2 0.2 0 0z m-25.6 0.2v0.2c-0.1-0.1-0.1-0.1 0-0.2z" opacity=".004"></path><path fill="#826934" d="m8.5 33.6v-0.2c0.7 0.1 1.3 0.4 1.8 0.7 0.2-0.1 0.3-0.3 0.4-0.5 1.2 0.5 2.4 0.9 3.6 1.2-1 0-2-0.3-3-0.7-0.2 0-0.3 0.1-0.4 0.3 1.5 0.6 3.1 1 4.7 1.2 3.4 0.3 6.7-0.1 9.9-1.3-0.5 0.4-1 0.6-1.7 0.7-0.1 0-0.1 0.1-0.1 0.2h-0.4c-0.2 0.1-0.3 0.2-0.5 0.2-0.4 0.1-0.7 0.2-0.9 0.5h-0.2c-0.1-0.2-0.2-0.2-0.4 0h-6.6c-0.1-0.2-0.2-0.2-0.2 0h-0.4c0-0.1 0-0.2-0.1-0.2s-0.2 0-0.2-0.2h-0.4l-0.3-0.1h-0.2c-0.2-0.1-0.4-0.2-0.6-0.2h-0.1c-0.1-0.2-0.2-0.2-0.4-0.2h-0.2c-0.1-0.1-0.2-0.2-0.3-0.2l-0.4-0.2-0.4-0.1h-0.1c-0.2-0.2-0.4-0.3-0.6-0.4h-0.2l-0.3-0.2c-0.2-0.2-0.5-0.3-0.7-0.3z" opacity=".982"></path><path fill="#5b425b" d="m17.6 34.8h0.7c0.3 0.2 0.6 0.3 1.1 0.2-1.2 0.2-2.3 0.2-3.5 0 0.6 0.1 1.1 0 1.7-0.2z"></path><path d="m22.4 35.9c-0.1-0.2-0.1-0.2 0 0z m0.2 0c0.1-0.2 0.2-0.2 0.3 0h-0.3z m2.7-0.2v0.2c-0.1-0.1-0.1-0.1 0-0.2z m2.7 0.2c0.1-0.2 0.2-0.2 0.3 0h-0.3z m2.5-0.2h0.2v0.2l-0.2-0.2z m1.1 0.2c-0.1-0.2-0.1-0.2 0 0z m0.3 0c-0.1-0.2-0.1-0.2 0 0z m0.6 0c-0.1-0.2-0.1-0.2 0 0z m1.3-0.2v0.2c-0.2-0.1-0.2-0.1 0-0.2z m0.7 0v0.2c-0.2-0.1-0.2-0.1 0-0.2z" opacity=".004"></path></svg>