<svg xmlns="http://www.w3.org/2000/svg" width="200" height="200" viewBox="0 0 200 200" version="1.1">
	<path fill-opacity="0.216" d="M 83.334 4.481 C 56.748 9.305, 33.960 24.134, 19.255 46.180 C 16.041 50.999, 14.340 52.714, 13.150 52.336 C 11.985 51.965, 11.865 52.075, 12.742 52.710 C 13.695 53.399, 13.184 55.577, 10.552 62.054 C 6.573 71.846, 2.997 88.241, 3.006 96.657 C 3.021 111.391, 8.446 133.571, 15.062 145.950 C 24.448 163.510, 40.862 179.482, 57.762 187.500 C 63.445 190.196, 63.176 191.433, 57.441 188.975 C 42.725 182.666, 23.272 164.918, 14.250 149.567 C 11.362 144.654, 9 141.061, 9 141.583 C 9 142.105, 10.762 145.547, 12.915 149.232 C 41.830 198.712, 103.099 214.618, 152.203 185.392 C 163.317 178.778, 177.973 164.237, 184.844 153.009 C 190.144 144.348, 196.411 129.730, 195.716 127.651 C 195.504 127.018, 194.525 128.975, 193.542 132 C 191.383 138.641, 185.096 151, 183.876 151 C 183.394 151, 183 151.575, 183 152.278 C 183 152.981, 182.100 154.326, 181 155.268 C 179.900 156.210, 179 156.837, 179 156.661 C 179 156.485, 181.033 152.777, 183.518 148.421 C 192.317 132.995, 195.959 118.654, 195.984 99.338 C 196.002 85.760, 194.446 76.029, 190.532 65.237 C 189.083 61.243, 188.215 57.461, 188.603 56.833 C 189.038 56.130, 188.865 55.965, 188.155 56.405 C 187.520 56.797, 187 56.641, 187 56.059 C 187 55.477, 187.563 54.968, 188.250 54.930 C 188.938 54.891, 188.600 54.473, 187.500 54 C 186.400 53.527, 186.078 53.109, 186.785 53.070 C 187.765 53.017, 187.812 52.518, 186.985 50.972 C 186.388 49.857, 185.523 49.177, 185.063 49.461 C 183.791 50.247, 181.888 47.455, 182.540 45.757 C 183.132 44.215, 173.705 31.719, 168.390 27 C 165.838 24.735, 165.875 24.855, 168.787 28.285 C 174.480 34.991, 173.333 34.529, 163 25.953 C 140.865 7.584, 110.838 -0.510, 83.334 4.481 M 96.384 8.442 C 96.080 9.234, 96.007 10.697, 96.223 11.692 C 96.467 12.821, 96.809 12.279, 97.134 10.250 C 97.678 6.844, 97.325 5.991, 96.384 8.442 M 139.083 8.377 C 140.106 9.303, 148 12.989, 148 12.541 C 148 11.972, 140.453 8, 139.373 8 C 138.985 8, 138.854 8.170, 139.083 8.377 M 55.441 10.555 C 53.611 12.022, 53.643 12.042, 56 10.920 C 59.061 9.462, 59.628 9, 58.358 9 C 57.821 9, 56.509 9.700, 55.441 10.555 M 100 11.500 C 100 12.325, 100.450 13, 101 13 C 101.550 13, 102 12.325, 102 11.500 C 102 10.675, 101.550 10, 101 10 C 100.450 10, 100 10.675, 100 11.500 M 82.500 19.219 C 57.807 33.692, 54.241 35.772, 43.500 41.971 C 28.479 50.639, 25.962 52.288, 28.627 51.712 C 30.278 51.355, 87.632 19.193, 93.872 15.126 C 94.626 14.634, 95.076 13.771, 94.872 13.208 C 94.667 12.646, 89.100 15.350, 82.500 19.219 M 105 13.310 C 105 14.555, 138.414 34.187, 159.965 45.605 C 162.971 47.197, 166.041 49.063, 166.787 49.750 C 168.351 51.192, 170.941 51.520, 169.450 50.087 C 168.927 49.585, 155.675 41.664, 140 32.485 C 124.325 23.306, 110.037 14.905, 108.250 13.817 C 105.617 12.213, 105 12.116, 105 13.310 M 42.861 18.059 L 40.500 20.119 43.250 18.444 C 44.763 17.523, 46 16.597, 46 16.385 C 46 15.604, 45.165 16.050, 42.861 18.059 M 89.441 19.657 C 86.174 21.668, 81.025 24.670, 78 26.329 C 70.634 30.368, 67.695 32.694, 68.966 33.479 C 69.535 33.831, 70.007 33.529, 70.015 32.809 C 70.026 31.911, 70.261 31.848, 70.765 32.608 C 71.169 33.218, 72.371 33.583, 73.435 33.420 C 74.499 33.256, 75.962 33.883, 76.687 34.811 C 77.913 36.382, 77.962 36.377, 77.391 34.737 C 77.053 33.768, 77.273 32.376, 77.879 31.645 C 78.486 30.914, 78.649 29.922, 78.241 29.441 C 77.834 28.960, 78.287 29.169, 79.250 29.905 C 80.784 31.080, 81 30.990, 81 29.181 C 81 28.047, 81.450 26.840, 82 26.500 C 82.550 26.160, 83 26.359, 83 26.941 C 83 27.523, 83.702 28, 84.559 28 C 85.416 28, 85.872 28.399, 85.570 28.886 C 85.269 29.374, 85.896 30.001, 86.963 30.280 C 88.031 30.559, 89.147 30.273, 89.443 29.644 C 89.739 29.015, 89.739 29.485, 89.443 30.689 C 89.064 32.229, 89.511 33.203, 90.952 33.974 C 92.261 34.675, 93 34.708, 93 34.067 C 93 33.514, 93.655 33.314, 94.455 33.621 C 95.687 34.094, 95.648 34.452, 94.205 35.953 C 93.267 36.928, 91.825 37.977, 91 38.284 C 90.154 38.599, 90.725 38.877, 92.309 38.921 C 93.943 38.967, 94.860 38.582, 94.500 38 C 94.160 37.450, 94.780 37, 95.878 37 C 97.380 37, 97.973 36.196, 98.277 33.750 C 98.498 31.962, 98.752 34.888, 98.840 40.250 C 98.934 45.977, 99.413 50, 100 50 C 100.627 50, 101 43.667, 101 33 L 101 16 98.191 16 C 96.646 16, 92.709 17.645, 89.441 19.657 M 102.480 17.033 C 101.634 18.402, 103.094 39.395, 104.079 40.028 C 104.531 40.319, 105.344 41.669, 105.887 43.028 C 106.622 44.870, 106.889 45.039, 106.937 43.691 C 106.971 42.696, 107.445 42.157, 107.989 42.493 C 108.550 42.840, 108.726 42.450, 108.396 41.590 C 108.077 40.757, 106.897 39.785, 105.775 39.429 C 104.256 38.947, 104.068 38.576, 105.036 37.978 C 105.792 37.511, 107.317 37.817, 108.680 38.710 C 110.226 39.723, 112.125 40.034, 114.262 39.624 C 116.688 39.159, 117.124 39.267, 116 40.055 C 114.758 40.926, 114.844 41.053, 116.500 40.790 C 117.600 40.615, 118.512 39.804, 118.527 38.986 C 118.544 38.051, 119.378 37.588, 120.777 37.738 C 122.224 37.893, 123 37.433, 123 36.421 C 123 35.320, 122.415 35.051, 121 35.500 C 119.463 35.988, 118.965 35.657, 118.850 34.067 C 118.767 32.930, 118.655 31.438, 118.600 30.750 C 118.540 30.002, 119.706 29.506, 121.500 29.516 C 124.250 29.530, 124.475 29.790, 124.203 32.637 C 123.982 34.957, 124.369 35.863, 125.733 36.220 C 128.137 36.848, 130.281 34.460, 129.506 32.017 C 129.166 30.948, 125.442 28.196, 121.195 25.877 C 116.963 23.566, 112.321 20.859, 110.881 19.862 C 107.026 17.195, 103.180 15.900, 102.480 17.033 M 157 18.265 C 157 18.485, 158.912 20.185, 161.250 22.043 C 163.588 23.900, 164.865 24.630, 164.089 23.663 C 162.627 21.843, 157 17.558, 157 18.265 M 37.405 22.250 L 35.500 24.500 37.750 22.595 C 39.864 20.805, 40.455 20, 39.655 20 C 39.465 20, 38.453 21.012, 37.405 22.250 M 29.946 28.750 L 26.500 32.500 30.250 29.054 C 33.740 25.846, 34.460 25, 33.696 25 C 33.529 25, 31.842 26.688, 29.946 28.750 M 116 27.833 C 116 28.475, 115.213 29.007, 114.250 29.015 C 112.770 29.028, 112.729 29.176, 113.986 29.970 C 115.023 30.626, 115.730 30.447, 116.327 29.380 C 116.798 28.538, 116.917 27.584, 116.592 27.258 C 116.266 26.933, 116 27.192, 116 27.833 M 103.721 29.714 C 103.992 30.421, 104.568 31, 105 31 C 105.432 31, 106.008 30.421, 106.279 29.714 C 106.567 28.965, 106.034 28.429, 105 28.429 C 103.966 28.429, 103.433 28.965, 103.721 29.714 M 85 35 C 83.718 35.828, 83.754 35.972, 85.250 35.985 C 86.213 35.993, 87 35.550, 87 35 C 87 33.780, 86.887 33.780, 85 35 M 72.872 36.215 C 72.802 36.372, 72.639 37.513, 72.509 38.750 C 72.324 40.515, 72.782 41, 74.637 41 C 77.553 41, 77.781 38.488, 75 37 C 73.900 36.411, 72.943 36.058, 72.872 36.215 M 74 39.059 C 74 39.641, 74.450 39.840, 75 39.500 C 75.550 39.160, 76 38.684, 76 38.441 C 76 38.198, 75.550 38, 75 38 C 74.450 38, 74 38.477, 74 39.059 M 124 39.171 C 124 39.815, 124.787 41.231, 125.750 42.317 C 127.451 44.236, 127.435 44.257, 125.186 43.076 C 123.403 42.140, 122.545 42.132, 121.447 43.044 C 120.663 43.694, 120.249 44.595, 120.527 45.044 C 120.805 45.494, 120.507 46.187, 119.865 46.584 C 119.044 47.091, 119.244 47.705, 120.540 48.653 C 121.553 49.394, 121.857 50, 121.216 50 C 120.385 50, 120.323 50.719, 121 52.500 C 121.670 54.262, 121.613 55, 120.809 55 C 120.181 55, 119.963 55.296, 120.325 55.658 C 120.687 56.020, 120.424 57.004, 119.741 57.845 C 118.692 59.138, 118.790 59.266, 120.371 58.672 C 121.906 58.096, 122.143 58.345, 121.693 60.064 C 121.308 61.540, 121.540 62.007, 122.479 61.646 C 124.132 61.012, 127.244 64.274, 126.236 65.585 C 125.831 66.111, 126.284 65.700, 127.242 64.670 C 128.927 62.860, 128.974 62.892, 128.653 65.649 C 128.342 68.325, 128.558 68.509, 132.161 68.654 C 135.832 68.801, 137.130 67.816, 135 66.500 C 133.508 65.578, 133.792 63.706, 135.333 64.298 C 136.067 64.579, 136.667 64.177, 136.667 63.405 C 136.667 62.632, 136.217 62, 135.667 62 C 135.117 62, 134.956 61.711, 135.309 61.357 C 135.663 61.004, 136.672 61.313, 137.552 62.043 C 138.889 63.153, 139.317 63.135, 140.152 61.936 C 140.919 60.835, 141.271 60.793, 141.662 61.756 C 141.942 62.447, 142.582 62.758, 143.085 62.447 C 143.588 62.136, 144 62.359, 144 62.941 C 144 63.523, 143.352 64, 142.559 64 C 141.766 64, 140.843 64.445, 140.507 64.989 C 140.148 65.570, 140.583 65.714, 141.563 65.337 C 142.896 64.826, 143.097 65.118, 142.567 66.790 C 142.051 68.414, 142.311 68.852, 143.726 68.746 C 146.412 68.543, 149.468 65.407, 147.914 64.447 C 147.068 63.924, 146.938 64.124, 147.492 65.095 C 148.092 66.147, 147.993 66.224, 147.099 65.402 C 146.173 64.551, 146.176 63.708, 147.113 61.652 C 147.777 60.193, 148.725 59, 149.220 59 C 149.714 59, 149.822 58.520, 149.459 57.934 C 149.097 57.347, 148.771 53.778, 148.736 50.001 C 148.677 43.569, 148.517 43.096, 146.219 42.519 C 144.607 42.114, 143.117 42.489, 141.876 43.612 C 140.838 44.552, 139.690 45.024, 139.327 44.661 C 138.964 44.297, 139.304 43.993, 140.083 43.985 C 141.250 43.972, 141.235 43.798, 140 43 C 139.175 42.467, 136.614 42.024, 134.309 42.015 C 130.263 42.001, 127.017 40.103, 130.691 39.900 C 131.972 39.830, 131.771 39.567, 130 39 C 126.246 37.798, 124 37.862, 124 39.171 M 133 40 C 133 40.550, 133.450 41, 134 41 C 134.550 41, 135 40.550, 135 40 C 135 39.450, 134.550 39, 134 39 C 133.450 39, 133 39.450, 133 40 M 136.500 40 C 136.160 40.550, 136.610 41, 137.500 41 C 138.390 41, 138.840 40.550, 138.500 40 C 138.160 39.450, 137.710 39, 137.500 39 C 137.290 39, 136.840 39.450, 136.500 40 M 140 40.031 C 140 40.564, 140.675 41, 141.500 41 C 142.325 41, 143 40.823, 143 40.607 C 143 40.391, 142.325 39.955, 141.500 39.638 C 140.675 39.322, 140 39.499, 140 40.031 M 63.449 41.082 C 63.081 41.677, 62.660 44.869, 62.512 48.175 C 62.347 51.871, 61.666 54.762, 60.744 55.684 C 59.427 57.001, 59.421 57.537, 60.694 60.089 C 61.912 62.529, 62.452 62.829, 64.072 61.962 C 65.132 61.394, 66 60.184, 66 59.274 C 66 57.864, 66.215 57.906, 67.450 59.559 C 68.849 61.432, 68.880 61.420, 68.330 59.234 C 68.016 57.988, 67.363 56.724, 66.879 56.425 C 66.396 56.127, 66 55.398, 66 54.806 C 66 54.214, 66.946 54.933, 68.102 56.403 C 69.767 58.520, 70.495 58.834, 71.602 57.915 C 72.618 57.073, 73.034 57.062, 73.125 57.878 C 73.194 58.495, 73.306 59.525, 73.375 60.167 C 73.444 60.808, 74.125 61.542, 74.889 61.796 C 75.856 62.119, 76.020 61.840, 75.428 60.880 C 74.900 60.023, 75.671 60.215, 77.460 61.385 C 80.238 63.202, 80.462 63.206, 83.642 61.493 C 85.457 60.516, 86.733 59.377, 86.477 58.963 C 86.221 58.549, 86.707 57.943, 87.558 57.616 C 88.594 57.219, 88.873 57.431, 88.405 58.261 C 87.853 59.241, 87.984 59.243, 89.030 58.274 C 90.124 57.259, 90.090 56.741, 88.832 55.274 C 87.804 54.075, 87.553 52.690, 88.056 51 C 88.767 48.614, 88.805 48.603, 88.900 50.750 C 88.970 52.323, 89.620 53, 91.059 53 C 92.380 53, 92.858 52.579, 92.393 51.827 C 91.418 50.249, 91.308 45, 92.250 45 C 92.662 45, 93 44.347, 93 43.550 C 93 42.752, 93.787 41.656, 94.750 41.114 C 96.106 40.350, 95.547 40.140, 92.264 40.182 C 89.934 40.211, 88.273 40.632, 88.573 41.118 C 88.873 41.603, 88.668 42, 88.118 42 C 87.568 42, 86.844 41.557, 86.509 41.015 C 85.690 39.690, 81 40.146, 81 41.551 C 81 42.164, 79.987 42.587, 78.750 42.492 C 76.160 42.292, 72.893 44.018, 73.624 45.200 C 73.896 45.640, 73.529 46.037, 72.809 46.081 C 72.089 46.126, 70.265 46.253, 68.756 46.364 C 67.247 46.475, 66.063 46.101, 66.125 45.533 C 66.624 40.945, 65.100 38.411, 63.449 41.082 M 111.500 42 C 109.870 42.701, 109.812 42.872, 111.191 42.930 C 112.121 42.968, 113.160 42.550, 113.500 42 C 114.211 40.850, 114.176 40.850, 111.500 42 M 136.813 47.683 C 137.534 47.972, 138.397 47.936, 138.729 47.604 C 139.061 47.272, 138.471 47.036, 137.417 47.079 C 136.252 47.127, 136.015 47.364, 136.813 47.683 M 75 49 C 75 49.550, 75.675 50, 76.500 50 C 77.325 50, 78 49.550, 78 49 C 78 48.450, 77.325 48, 76.500 48 C 75.675 48, 75 48.450, 75 49 M 96.125 53.349 C 95.487 54.118, 95.283 55.574, 95.671 56.585 C 96.267 58.137, 96.498 57.970, 97.155 55.512 C 98.068 52.098, 97.738 51.406, 96.125 53.349 M 38.872 55.750 C 37.629 57.336, 37.664 57.371, 39.250 56.128 C 40.916 54.821, 41.445 54, 40.622 54 C 40.415 54, 39.627 54.788, 38.872 55.750 M 99 56.500 C 99 58.482, 99.439 59.062, 100.750 58.810 C 101.713 58.624, 102.500 57.585, 102.500 56.500 C 102.500 55.415, 101.713 54.376, 100.750 54.190 C 99.439 53.938, 99 54.518, 99 56.500 M 80.013 65.579 C 67.304 72.898, 63.006 76, 65.575 76 C 66.135 76, 92.987 60.764, 94.854 59.386 C 95.049 59.243, 95.049 58.700, 94.854 58.181 C 94.659 57.662, 87.981 60.991, 80.013 65.579 M 104.552 57.916 C 104.247 58.410, 110.748 62.722, 118.999 67.499 C 127.563 72.458, 134 76.815, 134 77.652 C 134 78.458, 134.450 78.840, 135 78.500 C 137.840 76.745, 135.415 74.208, 125.718 68.792 C 120.098 65.653, 113.161 61.720, 110.303 60.052 C 107.444 58.384, 104.856 57.423, 104.552 57.916 M 27.806 59.206 C 28.469 59.869, 34.967 63.824, 42.245 67.994 C 49.971 72.421, 55.953 76.526, 56.616 77.857 C 57.733 80.097, 57.761 80.084, 58.203 77.069 C 58.451 75.381, 58.250 74, 57.758 74 C 57.265 74, 50.651 70.400, 43.061 66 C 30.238 58.567, 24.701 56.101, 27.806 59.206 M 163.476 62.555 C 159.089 65.060, 152.463 68.755, 148.750 70.765 C 142.641 74.074, 140.485 76, 142.891 76 C 143.803 76, 170.729 60.371, 172.450 58.843 C 174.877 56.689, 170.781 58.383, 163.476 62.555 M 80 60 C 80 60.550, 80.450 61, 81 61 C 81.550 61, 82 60.550, 82 60 C 82 59.450, 81.550 59, 81 59 C 80.450 59, 80 59.450, 80 60 M 21 100 C 21 134, 21.192 139, 22.500 139 C 23.808 139, 24 134, 24 100 C 24 66, 23.808 61, 22.500 61 C 21.192 61, 21 66, 21 100 M 176.667 61.667 C 176.300 62.033, 176 79.583, 176 100.667 C 176 134.074, 176.193 139, 177.500 139 C 178.808 139, 179 134, 179 100 C 179 78.550, 178.625 61, 178.167 61 C 177.708 61, 177.033 61.300, 176.667 61.667 M 84.733 68.773 C 83.211 68.973, 82.244 69.586, 82.583 70.135 C 82.930 70.695, 82.388 70.995, 81.350 70.817 C 80.249 70.628, 79.608 71.025, 79.766 71.797 C 79.912 72.511, 79.462 72.974, 78.766 72.826 C 76.609 72.369, 67.921 77.302, 65.910 80.127 C 64.205 82.521, 64 84.688, 64 100.345 C 64 110.958, 64.395 118.126, 65 118.500 C 65.550 118.840, 66 119.980, 66 121.033 C 66 122.187, 67.292 123.608, 69.250 124.607 C 71.037 125.519, 77.688 129.314, 84.028 133.040 C 99.362 142.051, 99.361 142.051, 117.743 131.599 C 125.577 127.144, 131.989 122.860, 131.993 122.079 C 131.997 121.297, 132.689 119.896, 133.531 118.966 C 134.759 117.609, 135.095 114.020, 135.231 100.840 C 135.384 85.970, 135.214 84.152, 133.450 81.735 C 131.376 78.893, 127.357 77.881, 128.342 80.449 C 128.714 81.418, 128.418 81.714, 127.449 81.342 C 126.642 81.032, 126 81.361, 126 82.084 C 126 82.883, 125.485 82.678, 124.661 81.551 C 123.415 79.848, 123.276 79.839, 122.665 81.432 C 122.277 82.441, 121.082 83.069, 119.754 82.961 C 115.726 82.635, 114 82.978, 114 84.107 C 114 84.743, 114.732 84.933, 115.720 84.554 C 116.665 84.191, 117.119 84.214, 116.728 84.605 C 116.337 84.996, 116.519 85.920, 117.131 86.658 C 118.611 88.441, 116.972 88.369, 114.354 86.535 C 113.204 85.730, 111.895 85.392, 111.445 85.785 C 110.996 86.178, 111.644 85.161, 112.886 83.524 C 114.555 81.323, 114.799 80.443, 113.822 80.145 C 113.095 79.923, 110.495 78.846, 108.044 77.752 C 103.662 75.796, 101.785 75.228, 99.191 75.077 C 98.471 75.034, 98.131 74.597, 98.435 74.105 C 99.162 72.928, 96.414 71.904, 94.500 72.638 C 93.565 72.997, 93 72.631, 93 71.666 C 93 69.107, 90.050 68.074, 84.733 68.773 M 60 78.500 C 60 80.482, 60.439 81.062, 61.750 80.810 C 62.712 80.624, 63.500 79.585, 63.500 78.500 C 63.500 77.415, 62.712 76.376, 61.750 76.190 C 60.439 75.938, 60 76.518, 60 78.500 M 137.688 76.646 C 136.147 78.186, 137.040 81, 139.070 81 C 140.625 81, 141.060 80.461, 140.820 78.828 C 140.488 76.573, 138.880 75.453, 137.688 76.646 M 170.971 82.070 C 169.876 83.611, 168.670 84.046, 166.250 83.771 C 164.463 83.568, 163 83.761, 163 84.201 C 163 84.640, 164.587 85, 166.526 85 L 170.052 85 169.776 100.250 L 169.500 115.500 165.815 115.807 C 162.367 116.093, 161.903 115.777, 158.625 110.910 L 155.122 105.707 154.811 110.604 C 154.500 115.495, 154.496 115.501, 150.500 116.035 C 148.300 116.329, 145.872 116.959, 145.104 117.434 C 143.993 118.122, 143.844 117.759, 144.373 115.649 C 144.756 114.123, 144.619 113, 144.050 113 C 143.507 113, 143.322 112.325, 143.638 111.500 C 143.956 110.672, 143.668 110, 142.993 110 C 142.206 110, 141.929 111.065, 142.213 113 C 142.455 114.650, 142.212 116, 141.672 116 C 141.132 116, 141.435 116.823, 142.345 117.829 C 143.255 118.835, 144 120.362, 144 121.223 C 144 122.169, 148.455 125.345, 155.250 129.244 C 161.438 132.795, 168.188 136.712, 170.250 137.949 L 174 140.198 174 110.099 C 174 93.544, 173.649 80, 173.221 80 C 172.792 80, 171.780 80.932, 170.971 82.070 M 142.509 81.986 C 142.174 82.528, 141.887 85.115, 141.872 87.736 C 141.856 90.356, 141.778 96.096, 141.698 100.491 C 141.572 107.332, 141.800 108.530, 143.276 108.815 C 145.329 109.210, 145.712 105.112, 143.800 103.200 C 142.867 102.267, 142.891 102, 143.909 102 C 145.299 102, 145.058 97.253, 143.482 93.586 C 142.837 92.083, 142.965 91.856, 144.080 92.528 C 145.286 93.255, 145.296 93.132, 144.147 91.716 C 143.308 90.681, 142.931 88.331, 143.155 85.524 C 143.535 80.736, 143.477 80.418, 142.509 81.986 M 59.667 83.667 C 59.300 84.033, 59 91.683, 59 100.667 C 59 116.333, 59.082 117, 61 117 C 62.922 117, 63 116.333, 63 100 C 63 86.500, 62.725 83, 61.667 83 C 60.933 83, 60.033 83.300, 59.667 83.667 M 137 100 C 137 114.444, 137.225 117, 138.500 117 C 139.775 117, 140 114.444, 140 100 C 140 85.556, 139.775 83, 138.500 83 C 137.225 83, 137 85.556, 137 100 M 90.492 86.250 C 90.247 86.938, 90.149 93.800, 90.273 101.500 L 90.500 115.500 96 115.500 L 101.500 115.500 101.800 109.750 C 102.081 104.357, 102.255 104, 104.610 104 C 106.900 104, 107.093 103.670, 106.810 100.250 C 106.561 97.238, 106.057 96.437, 104.250 96.180 C 100.799 95.690, 101.434 93, 105 93 C 107.833 93, 108 92.778, 108 89 L 108 85 99.469 85 C 93.548 85, 90.801 85.382, 90.492 86.250 M 36.789 88.197 C 30.061 92.097, 28.395 101.187, 33.014 108.783 C 35.305 112.551, 41.285 114.484, 47.679 113.525 L 52 112.877 52 105.439 L 52 98 47 98 C 43.298 98, 42 98.377, 42 99.450 C 42 100.248, 42.619 101.260, 43.376 101.700 C 45.101 102.703, 44.340 109, 42.493 109 C 40.889 109, 40.246 107.338, 39.410 101.030 C 38.486 94.071, 40.521 91, 46.054 91 C 48.807 91, 50.255 90.499, 50.677 89.399 C 52.145 85.574, 42.721 84.758, 36.789 88.197 M 92.708 86.626 C 92.318 87.015, 92 93.108, 92 100.167 L 92 113 96.500 113 L 101 113 101 107.500 C 101 102.300, 101.136 102, 103.500 102 C 105.333 102, 106 101.467, 106 100 C 106 98.659, 105.333 98, 103.975 98 C 102.718 98, 101.578 97.020, 100.968 95.416 C 99.689 92.052, 100.442 91, 104.129 91 C 106.679 91, 107.090 90.656, 106.820 88.750 C 106.530 86.714, 105.877 86.472, 99.958 86.209 C 96.359 86.049, 93.097 86.237, 92.708 86.626 M 147 99.500 L 147 113 150.454 113 L 153.909 113 154.204 106.250 L 154.500 99.500 158.458 106.250 C 162.084 112.434, 162.694 113, 165.737 113 L 169.058 113 168.779 99.750 L 168.500 86.500 165.500 86.500 C 162.586 86.500, 162.491 86.651, 162.198 91.750 C 161.906 96.815, 160.794 98.511, 159.675 95.596 C 159.379 94.825, 159.340 93.137, 159.589 91.846 C 159.984 89.796, 159.932 89.749, 159.178 91.478 C 158.331 93.417, 158.292 93.414, 157.164 91.306 C 155.198 87.632, 152.972 86, 149.929 86 L 147 86 147 99.500 M 198.158 115 C 198.158 116.375, 198.385 116.938, 198.662 116.250 C 198.940 115.563, 198.940 114.438, 198.662 113.750 C 198.385 113.063, 198.158 113.625, 198.158 115 M 135.183 119.217 C 133.795 120.605, 133.606 124.638, 134.892 125.433 C 135.382 125.736, 135.993 124.300, 136.250 122.242 C 136.799 117.839, 136.737 117.663, 135.183 119.217 M 56.503 120.991 C 56.155 122.086, 56.152 123.436, 56.494 123.991 C 56.837 124.546, 56.582 125, 55.926 125 C 54.722 125, 29.293 139.408, 27.567 141.069 C 27.053 141.563, 26.872 142.205, 27.163 142.497 C 27.455 142.788, 34.512 139.141, 42.847 134.391 C 53.554 128.289, 58 125.229, 58 123.960 C 58 122.972, 58.273 121.452, 58.607 120.582 C 58.941 119.712, 58.746 119, 58.174 119 C 57.603 119, 56.850 119.896, 56.503 120.991 M 197.079 120.583 C 197.127 121.748, 197.364 121.985, 197.683 121.188 C 197.972 120.466, 197.936 119.603, 197.604 119.271 C 197.272 118.939, 197.036 119.529, 197.079 120.583 M 60 123.500 C 60 125.482, 60.439 126.062, 61.750 125.810 C 62.712 125.624, 63.500 124.585, 63.500 123.500 C 63.500 122.415, 62.712 121.376, 61.750 121.190 C 60.439 120.938, 60 121.518, 60 123.500 M 137.810 121.523 C 137.484 121.849, 137.452 123.012, 137.738 124.106 C 138.404 126.654, 141.500 126.155, 141.500 123.500 C 141.500 121.608, 139.042 120.291, 137.810 121.523 M 65.246 125.237 C 65.472 125.917, 72.261 130.291, 80.331 134.956 C 89.503 140.259, 95.247 144.200, 95.650 145.470 C 96.293 147.491, 96.299 147.491, 97.078 145.500 C 98.018 143.094, 98.230 140.436, 97.417 141.250 C 97.096 141.571, 89.893 137.821, 81.410 132.917 C 72.927 128.012, 65.727 124, 65.410 124 C 65.093 124, 65.019 124.557, 65.246 125.237 M 143.034 125.215 C 143.052 125.922, 149.802 130.324, 158.034 134.997 C 166.265 139.670, 173.007 143.945, 173.015 144.497 C 173.034 145.724, 174.963 142.870, 174.985 141.583 C 174.993 141.079, 174.704 140.963, 174.342 141.325 C 173.980 141.687, 173.193 141.583, 172.592 141.094 C 171.511 140.215, 149.590 127.405, 145.250 125.116 C 143.468 124.176, 143.007 124.197, 143.034 125.215 M 118 133.111 C 106.037 140.107, 101.052 143.879, 105.135 142.846 C 107.758 142.182, 134 126.762, 134 125.885 C 134 124.120, 131.261 125.357, 118 133.111 M 18.600 142.600 C 18.244 143.527, 18.178 144.511, 18.453 144.786 C 18.728 145.061, 19.244 144.527, 19.600 143.600 C 19.956 142.673, 20.022 141.689, 19.747 141.414 C 19.472 141.139, 18.956 141.673, 18.600 142.600 M 22.553 144.915 C 22.231 145.436, 22.394 146.125, 22.915 146.447 C 23.436 146.769, 24.125 146.606, 24.447 146.085 C 24.769 145.564, 24.606 144.875, 24.085 144.553 C 23.564 144.231, 22.875 144.394, 22.553 144.915 M 99 146.573 C 99 149.856, 102.345 149.564, 102.820 146.240 C 103.062 144.539, 102.641 144, 101.070 144 C 99.513 144, 99 144.638, 99 146.573 M 27.202 148.107 C 27.517 149.051, 74.128 176.347, 85.250 182.101 C 92.693 185.951, 88.797 182.239, 80.250 177.336 C 75.438 174.575, 61.696 166.620, 49.712 159.658 C 37.729 152.696, 27.679 147, 27.379 147 C 27.079 147, 26.999 147.498, 27.202 148.107 M 148.500 160.593 C 107.872 184.286, 104.805 186.138, 105.328 186.662 C 105.910 187.243, 104.349 188.104, 143.750 165.474 C 169.017 150.962, 175.651 146.683, 172.250 147.090 C 171.838 147.139, 161.150 153.215, 148.500 160.593 M 98.348 157.750 C 98.699 161.463, 98.989 168.662, 98.993 173.750 C 98.997 179.245, 99.406 183, 100 183 C 100.625 183, 101 177, 101 167 C 101 152.819, 100.813 151, 99.355 151 C 97.929 151, 97.795 151.894, 98.348 157.750 M 150.021 183.076 C 141.317 188.425, 140.049 190.033, 147.694 186.027 C 151.101 184.242, 154.658 181.930, 155.599 180.890 C 157.928 178.317, 157.476 178.494, 150.021 183.076" stroke="none" fill="black" fill-rule="evenodd"/>
	<path fill-opacity="0.285" d="M 87.472 4.042 C 77.540 5.341, 69.028 7.901, 59.148 12.559 C 47.316 18.139, 39.377 23.829, 30.428 33.141 C 13.444 50.814, 5.252 69.815, 4.262 93.835 C 3.017 124.020, 12.693 148.961, 33.665 169.626 C 62.249 197.791, 104.889 204.706, 141.493 187.112 C 162.210 177.155, 176.692 162.403, 187.053 140.706 C 192.772 128.729, 195.024 118.865, 195.661 103 C 196.277 87.677, 194.461 76.053, 189.491 63.495 C 173.555 23.230, 130.887 -1.635, 87.472 4.042 M 95.432 9.415 C 94.951 11.332, 87.831 15.892, 60.913 31.521 C 31.166 48.794, 24.672 53, 27.753 53 C 28.167 53, 44.019 44.112, 62.978 33.250 C 95.481 14.629, 97.488 13.314, 98.099 10.250 C 98.882 6.326, 96.402 5.550, 95.432 9.415 M 99 11.500 C 99 13.286, 99.540 14, 100.893 14 C 102.911 14, 103.986 12.304, 103.269 10.250 C 103.030 9.563, 101.971 9, 100.917 9 C 99.539 9, 99 9.703, 99 11.500 M 104.009 13.143 C 104.014 13.889, 119.356 23.245, 138.103 33.933 C 162.716 47.965, 172.433 54.010, 173.070 55.683 C 174.250 58.787, 175 58.607, 175 55.220 C 175 52.622, 172.777 51.145, 141.250 32.781 C 122.688 21.969, 106.713 12.822, 105.750 12.454 C 104.613 12.020, 104.003 12.262, 104.009 13.143 M 82.062 23.636 C 67.240 32.315, 61.862 36, 64.018 36 C 64.799 36, 64.520 36.689, 63.310 37.750 C 62.211 38.712, 61.508 40.072, 61.747 40.771 C 62.061 41.692, 61.197 41.919, 58.602 41.598 C 56.633 41.353, 54.766 41.569, 54.453 42.077 C 54.139 42.585, 54.359 43, 54.941 43 C 55.523 43, 56 43.477, 56 44.059 C 56 44.641, 55.550 44.840, 55 44.500 C 54.450 44.160, 54 44.310, 54 44.834 C 54 45.645, 56.241 47, 57.582 47 C 57.812 47, 58 46.175, 58 45.167 C 58 44.147, 58.715 43.333, 59.611 43.333 C 60.917 43.333, 61.131 44.144, 60.741 47.609 C 60.321 51.334, 58.164 55.144, 56.536 55.036 C 56.241 55.016, 55.763 55, 55.474 55 C 55.185 55, 55.629 56.315, 56.459 57.922 C 57.617 60.161, 57.682 60.949, 56.735 61.296 C 55.902 61.601, 56.249 62.469, 57.801 63.960 C 59.640 65.729, 59.863 66.461, 58.910 67.609 C 58.204 68.459, 56.857 68.805, 55.609 68.457 C 54.081 68.031, 53.879 68.132, 54.878 68.823 C 55.636 69.347, 55.947 70.277, 55.569 70.888 C 55.191 71.500, 55.246 72.023, 55.691 72.051 C 63.244 72.523, 66.230 72.436, 66.666 71.731 C 66.957 71.261, 68.276 70.466, 69.597 69.963 C 70.919 69.461, 72 68.337, 72 67.466 C 72 66.595, 72.452 66.161, 73.005 66.503 C 74.157 67.215, 84.307 62.261, 90.683 57.874 C 93.057 56.241, 95 55.310, 95 55.806 C 95 56.302, 88.138 60.662, 79.750 65.496 C 71.362 70.329, 64.275 74.602, 64 74.991 C 63.392 75.851, 59.695 75.931, 59 75.099 C 58.725 74.769, 56.700 73.496, 54.500 72.268 C 52.300 71.040, 50.624 69.544, 50.775 68.944 C 50.926 68.343, 50.575 68.145, 49.995 68.503 C 49.048 69.088, 42.809 65.990, 37.500 62.298 C 35.600 60.977, 35.634 60.931, 38.189 61.376 C 40.219 61.731, 40.744 61.497, 40.332 60.423 C 39.999 59.556, 40.414 59, 41.393 59 C 42.277 59, 43 58.523, 43 57.941 C 43 57.359, 43.453 57.162, 44.008 57.505 C 45.142 58.206, 48 55.730, 48 54.047 C 48 53.021, 52.726 50.526, 54.143 50.803 C 54.496 50.872, 55.017 50.045, 55.299 48.964 C 55.794 47.071, 55.460 46.778, 52.750 46.726 C 50.334 46.680, 45 49.209, 45 50.400 C 45 51.063, 42.638 52.441, 39.750 53.462 C 36.862 54.483, 33.600 55.933, 32.500 56.684 C 30.525 58.032, 30.528 58.056, 32.750 58.641 C 33.987 58.967, 35 59.667, 35 60.198 C 35 60.729, 33.484 60.226, 31.632 59.082 C 27.706 56.655, 27 56.535, 27 58.293 C 27 59.005, 33.525 63.311, 41.500 67.863 C 49.475 72.416, 56 76.732, 56 77.455 C 56 78.816, 60.161 82, 61.939 82 C 62.494 82, 63.592 80.763, 64.377 79.250 C 66.410 75.338, 94.900 58.863, 99.889 58.714 C 102.685 58.631, 106.321 60.262, 116 65.942 C 122.875 69.976, 129.738 73.987, 131.250 74.854 C 132.762 75.721, 134 77.130, 134 77.984 C 134 78.838, 135.238 80.304, 136.750 81.242 C 138.262 82.180, 138.938 82.959, 138.250 82.973 C 137.300 82.994, 137 87.067, 137 99.930 C 137 116.703, 137.021 116.864, 139.240 117.180 C 140.472 117.356, 141.618 118.229, 141.788 119.121 C 142.025 120.366, 141.506 120.628, 139.548 120.254 C 138.147 119.986, 137 119.343, 137 118.824 C 137 118.306, 136.662 118.091, 136.250 118.347 C 135.838 118.603, 135.632 111.040, 135.794 101.541 C 136.174 79.169, 136.639 79.988, 117.500 69.311 C 98.828 58.894, 99.467 58.893, 81.153 69.327 C 71.217 74.987, 66.367 78.345, 65.377 80.250 C 63.811 83.265, 59.510 84.042, 57.068 81.750 C 55.970 80.720, 55.837 81.045, 56.311 83.590 L 56.886 86.679 48.447 86.256 C 41.073 85.885, 39.562 86.107, 36.476 88.015 C 28.135 93.170, 27.970 106.963, 36.190 111.974 C 39.767 114.155, 46.212 114.630, 50.435 113.025 C 52.875 112.097, 53 111.682, 53 104.525 L 53 97 47.500 97 C 42.722 97, 42 97.255, 42 98.941 C 42 100.009, 42.450 101.160, 43 101.500 C 44.230 102.260, 44.340 109, 43.122 109 C 41.613 109, 39.841 106.201, 40.152 104.310 C 40.316 103.314, 40.079 101.908, 39.626 101.185 C 38.280 99.038, 39.895 93.127, 42.158 91.916 C 43.297 91.306, 45.494 90.992, 47.038 91.219 C 49.253 91.544, 50.080 91.121, 50.947 89.218 C 51.671 87.628, 52.579 87.008, 53.605 87.402 C 54.462 87.731, 55.577 88, 56.082 88 C 56.587 88, 56.921 88.338, 56.825 88.750 C 56.730 89.162, 57.236 90.702, 57.950 92.172 C 58.926 94.177, 58.984 95.607, 58.185 97.900 C 57.529 99.780, 57.481 101.179, 58.060 101.537 C 59.650 102.520, 59.218 117.574, 57.560 118.950 C 56.768 119.607, 55.981 121.073, 55.810 122.208 C 55.587 123.689, 51.336 126.673, 40.716 132.801 C 31.293 138.240, 26.280 141.680, 26.891 142.291 C 27.501 142.901, 33.305 140.122, 42.897 134.624 C 53.052 128.805, 58.970 126, 61.094 126 C 65.456 126, 94.702 142.683, 95.432 145.587 C 95.721 146.736, 96.979 148.168, 98.228 148.770 C 99.478 149.372, 99.938 149.895, 99.250 149.932 C 98.302 149.984, 98 154.103, 98 167 C 98 183.127, 98.099 184, 99.930 184 C 101.763 184, 101.859 183.124, 101.850 166.449 C 101.843 154.323, 102.209 148.453, 103.032 147.461 C 104.875 145.241, 103.397 142.691, 100.579 143.230 C 98.930 143.545, 98.334 143.293, 98.668 142.423 C 98.951 141.685, 98.185 140.975, 96.826 140.716 C 95.547 140.472, 96.669 140.211, 99.319 140.136 C 103.407 140.021, 106.264 138.768, 118.146 131.880 C 126.560 127.003, 132.496 122.910, 133.013 121.630 L 133.873 119.500 133.937 121.669 C 133.988 123.440, 131.203 125.435, 118.750 132.548 C 101.166 142.590, 102.366 141.767, 103.567 142.961 C 104.142 143.533, 110.448 140.466, 120 134.970 C 130.707 128.809, 136.510 126.043, 138.768 126.025 C 143.248 125.991, 172.617 142.623, 173.220 145.536 C 173.503 146.907, 173.121 147.571, 172.050 147.571 C 170.670 147.571, 150.748 158.820, 114.255 180.205 C 108.621 183.507, 104.271 186.629, 104.589 187.144 C 105.244 188.204, 106.792 187.364, 146 164.683 C 173.930 148.527, 174.512 148.125, 175.093 144.598 C 175.588 141.591, 175.392 141, 173.902 141 C 172.921 141, 171.866 140.592, 171.558 140.093 C 171.249 139.595, 171.898 139.422, 172.999 139.710 C 174.970 140.225, 174.998 139.774, 174.894 109.367 C 174.836 92.390, 174.498 74.600, 174.144 69.833 L 173.500 61.165 159.500 69.058 C 149.814 74.518, 144.932 77.882, 143.658 79.975 C 142.017 82.670, 140 84.010, 140 82.404 C 140 79.723, 146.065 74.938, 158.523 67.788 C 166.466 63.229, 172.972 58.900, 172.982 58.167 C 173.005 56.458, 173.793 56.081, 156.668 65.967 C 148.601 70.624, 142 75.067, 142 75.840 C 142 76.918, 141.680 76.980, 140.627 76.105 C 139.871 75.478, 138.409 75.270, 137.377 75.642 C 136.345 76.014, 135.812 75.973, 136.193 75.550 C 136.574 75.127, 134.774 73.668, 132.193 72.307 C 129.612 70.946, 127.050 69.347, 126.500 68.752 C 125.950 68.157, 127.603 68.869, 130.174 70.333 C 134.678 72.898, 137.983 73.029, 138.015 70.643 C 138.026 69.824, 138.239 69.812, 138.765 70.600 C 140.034 72.500, 142.401 72.776, 145.220 71.352 C 148.922 69.484, 150.246 66.778, 149.028 63.575 C 148.308 61.680, 148.373 61.081, 149.278 61.259 C 149.950 61.392, 150.387 60.938, 150.250 60.250 C 150.112 59.563, 150.477 59, 151.059 59 C 151.641 59, 151.840 58.550, 151.500 58 C 151.160 57.450, 151.380 57, 151.989 57 C 152.711 57, 152.992 54.834, 152.798 50.759 C 152.526 45.068, 152.258 44.403, 149.750 43.205 C 148.238 42.482, 147 41.465, 147 40.945 C 147 40.425, 146.155 40, 145.122 40 C 144.090 40, 142.678 39.317, 141.985 38.482 C 141.292 37.646, 139.099 36.207, 137.112 35.284 C 135.126 34.360, 133.271 33.279, 132.991 32.882 C 132.710 32.485, 126.276 28.490, 118.691 24.005 C 99.943 12.916, 100.363 12.920, 82.062 23.636 M 87.813 36.683 C 88.534 36.972, 89.397 36.936, 89.729 36.604 C 90.061 36.272, 89.471 36.036, 88.417 36.079 C 87.252 36.127, 87.015 36.364, 87.813 36.683 M 131.083 37.362 C 132.071 38.221, 139.953 38.733, 139.441 37.905 C 139.134 37.407, 137.034 37, 134.774 37 C 132.515 37, 130.854 37.163, 131.083 37.362 M 68.412 41.750 C 68.800 42.438, 68.615 43, 68 43 C 67.385 43, 67.184 43.489, 67.554 44.087 C 68.038 44.870, 68.530 44.870, 69.313 44.087 C 70.096 43.304, 70.023 42.650, 69.053 41.750 C 67.976 40.750, 67.848 40.750, 68.412 41.750 M 114.472 46.920 C 115.089 47.944, 114.921 48.184, 113.869 47.780 C 112.076 47.092, 111.566 50.639, 113.314 51.641 C 113.966 52.015, 114.166 51.952, 113.759 51.502 C 112.590 50.212, 114.965 48.054, 116.823 48.719 C 118.635 49.367, 118.514 49.200, 115.558 46.967 C 113.946 45.749, 113.761 45.741, 114.472 46.920 M 100.853 49.670 C 99.947 49.910, 98.985 50.949, 98.716 51.979 C 98.368 53.309, 98.644 53.690, 99.673 53.295 C 100.468 52.990, 102.330 53.852, 103.810 55.212 C 105.289 56.571, 110.325 59.840, 115 62.476 C 126.051 68.706, 126.051 68.706, 122.250 65.219 C 120.463 63.579, 119 61.926, 119 61.547 C 119 60.197, 116.114 58, 114.321 57.985 C 112.826 57.972, 112.760 57.805, 113.952 57.051 C 114.751 56.545, 115.763 56.354, 116.202 56.625 C 116.641 56.896, 117 56.641, 117 56.059 C 117 55.477, 116.523 55, 115.941 55 C 115.359 55, 115.167 54.539, 115.515 53.975 C 115.864 53.412, 115.778 53.015, 115.324 53.094 C 112.913 53.512, 111 52.833, 111 51.559 C 111 49.403, 109.477 48.868, 106.527 49.990 C 104.782 50.653, 104.095 50.656, 104.502 49.997 C 105.126 48.987, 103.852 48.873, 100.853 49.670 M 96.500 51 C 96.160 51.550, 96.359 52, 96.941 52 C 97.523 52, 98 51.550, 98 51 C 98 50.450, 97.802 50, 97.559 50 C 97.316 50, 96.840 50.450, 96.500 51 M 18.385 53.439 C 18.081 54.231, 18.307 55.693, 18.886 56.689 C 19.781 58.228, 19.944 58.012, 19.970 55.250 C 20.002 51.822, 19.309 51.030, 18.385 53.439 M 22.400 55.400 C 22.034 56.354, 22.229 57.629, 22.834 58.234 C 23.634 59.034, 24.116 58.861, 24.600 57.600 C 24.966 56.646, 24.771 55.371, 24.166 54.766 C 23.366 53.966, 22.884 54.139, 22.400 55.400 M 177 55.917 C 177 57.145, 177.646 58, 178.573 58 C 179.505 58, 180.015 57.320, 179.823 56.333 C 179.337 53.824, 177 53.480, 177 55.917 M 20.725 61.274 C 20.438 62.022, 20.139 80.077, 20.060 101.397 C 19.962 127.958, 19.565 140.723, 18.800 141.948 C 18.169 142.959, 18.020 144.552, 18.459 145.618 C 19.262 147.570, 19.419 147.341, 20.432 142.750 C 20.765 141.238, 21.705 140, 22.519 140 C 23.763 140, 24 137.522, 24 124.500 C 24 111.389, 24.231 109, 25.500 109 C 26.325 109, 27 108.311, 27 107.469 C 27 106.626, 26.325 105.678, 25.500 105.362 C 23.358 104.540, 23.282 86, 25.421 86 C 26.210 86, 27.158 84.556, 27.555 82.750 C 28.227 79.696, 28.320 79.636, 29.103 81.750 C 29.561 82.987, 30.427 84, 31.027 84 C 31.627 84, 31.864 84.410, 31.554 84.912 C 31.244 85.414, 31.756 85.712, 32.691 85.575 C 33.626 85.438, 34.543 84.870, 34.729 84.313 C 34.956 83.632, 36.723 83.628, 40.130 84.302 C 45.426 85.349, 47.462 84.368, 46.296 81.329 C 45.933 80.384, 46.337 80.156, 47.639 80.570 C 49.381 81.125, 49.376 81.062, 47.559 79.582 C 46.491 78.712, 46.140 78, 46.777 78 C 47.465 78, 47.670 77.288, 47.281 76.250 C 46.699 74.697, 46.822 74.660, 48.369 75.919 C 49.875 77.145, 50.071 77.145, 49.806 75.919 C 49.638 75.139, 49.074 74.194, 48.554 73.820 C 47.285 72.908, 43.787 74.847, 44.531 76.050 C 45.530 77.667, 42.767 77.096, 40.659 75.250 C 38.752 73.580, 38.691 73.582, 39.319 75.302 C 39.712 76.379, 39.580 76.858, 38.989 76.493 C 37.467 75.552, 37.818 72, 39.433 72 C 40.221 72, 41.153 72.907, 41.505 74.015 C 41.856 75.123, 42.591 75.753, 43.137 75.415 C 43.741 75.042, 43.515 74.122, 42.563 73.070 C 41.701 72.117, 41.248 71.086, 41.555 70.778 C 42.250 70.083, 38.272 67.261, 30.750 63.112 L 25 59.940 25 63.092 C 25 65.802, 25.214 66.067, 26.523 64.981 C 27.796 63.924, 27.943 63.986, 27.416 65.359 C 27.069 66.261, 26.476 67, 26.097 67 C 24.546 67, 25.643 72.023, 27.500 73.425 C 28.600 74.256, 29.107 74.951, 28.628 74.968 C 28.148 74.986, 28.282 75.635, 28.926 76.411 C 29.727 77.376, 29.765 78.027, 29.049 78.470 C 27.604 79.363, 25.816 78.107, 26.638 76.776 C 27.057 76.099, 26.839 75.981, 26.061 76.463 C 25.293 76.937, 24.955 78.730, 25.183 81.117 C 25.386 83.253, 25.217 85, 24.807 85 C 24.397 85, 23.935 79.524, 23.781 72.832 C 23.598 64.924, 23.105 60.532, 22.373 60.289 C 21.753 60.084, 21.012 60.527, 20.725 61.274 M 177.250 60.662 C 176.280 61.054, 176 69.952, 176 100.417 C 176 134.639, 176.192 139.667, 177.500 139.667 C 178.808 139.667, 179 134.574, 179 99.833 C 179 77.925, 178.887 60.036, 178.750 60.079 C 178.613 60.122, 177.938 60.385, 177.250 60.662 M 31.022 77.750 C 30.981 80.062, 31.195 80.501, 32.223 80.209 C 32.785 80.049, 33.007 80.540, 32.715 81.300 C 32.424 82.060, 32.531 83.241, 32.954 83.925 C 33.503 84.814, 33.867 84.616, 34.228 83.234 C 34.507 82.170, 33.904 80.220, 32.889 78.900 C 31.875 77.580, 31.034 77.063, 31.022 77.750 M 51 77.962 C 48.890 78.606, 48.773 78.824, 50.250 79.362 C 54.093 80.763, 54.596 80.710, 54.733 78.890 C 54.887 76.850, 54.754 76.817, 51 77.962 M 38 79.059 C 38 79.641, 38.450 79.840, 39 79.500 C 39.550 79.160, 40 78.684, 40 78.441 C 40 78.198, 39.550 78, 39 78 C 38.450 78, 38 78.477, 38 79.059 M 146.250 85.662 C 145.331 86.033, 145 89.986, 145 100.583 L 145 115 150 115 C 152.750 115, 155 114.624, 155 114.164 C 155 113.704, 153.088 113.366, 150.750 113.414 L 146.500 113.500 146.596 100 L 146.693 86.500 150.596 85.892 L 154.500 85.284 151 85.221 C 149.075 85.186, 146.938 85.385, 146.250 85.662 M 161.250 85.662 C 159.797 86.248, 159.504 95.575, 160.911 96.445 C 161.412 96.755, 161.975 94.305, 162.161 91.002 C 162.347 87.699, 162.500 85.033, 162.500 85.077 C 162.500 85.122, 161.938 85.385, 161.250 85.662 M 91.207 100.250 L 91 115 96 115 C 98.750 115, 101.001 114.662, 101.001 114.250 C 101.002 113.838, 99.090 113.500, 96.751 113.500 L 92.500 113.500 91.957 99.500 L 91.414 85.500 91.207 100.250 M 107.079 89.250 C 107.022 90.510, 106.160 91, 104 91 C 102.350 91, 101 91.450, 101 92 C 101 92.550, 102.364 93, 104.031 93 C 107.096 93, 108.646 91.205, 107.673 88.783 C 107.350 87.977, 107.129 88.151, 107.079 89.250 M 169.232 91 C 169.232 92.925, 169.438 93.713, 169.689 92.750 C 169.941 91.787, 169.941 90.213, 169.689 89.250 C 169.438 88.287, 169.232 89.075, 169.232 91 M 154.033 101.681 C 154.015 102.330, 155.688 105.588, 157.750 108.920 C 161.382 114.787, 161.634 114.978, 165.750 114.989 C 169.088 114.998, 170 114.635, 170 113.300 C 170 111.978, 169.733 111.867, 168.800 112.800 C 166.187 115.413, 163.044 114.159, 160.225 109.377 C 156.760 103.498, 154.076 100.163, 154.033 101.681 M 101 103 C 101 103.550, 102.098 104, 103.441 104 C 104.784 104, 106.160 103.550, 106.500 103 C 106.861 102.417, 105.844 102, 104.059 102 C 102.377 102, 101 102.450, 101 103 M 59.753 118.835 C 59.367 120.312, 59.735 120.582, 61.637 120.219 C 64.356 119.699, 64.718 118.489, 62.418 117.607 C 60.262 116.780, 60.295 116.764, 59.753 118.835 M 154 129.430 C 154 129.705, 154.900 130.411, 156 131 C 157.100 131.589, 158 131.845, 158 131.570 C 158 131.295, 157.100 130.589, 156 130 C 154.900 129.411, 154 129.155, 154 129.430 M 78 130.430 C 78 130.705, 78.900 131.411, 80 132 C 81.100 132.589, 82 132.845, 82 132.570 C 82 132.295, 81.100 131.589, 80 131 C 78.900 130.411, 78 130.155, 78 130.430 M 152 134.940 C 152 135.740, 151.349 135.966, 150.250 135.548 C 148.847 135.014, 148.748 135.131, 149.750 136.141 C 150.712 137.110, 151.272 137.128, 152.183 136.217 C 152.834 135.566, 153.059 134.726, 152.683 134.350 C 152.308 133.974, 152 134.240, 152 134.940 M 166 136.430 C 166 136.705, 166.900 137.411, 168 138 C 169.100 138.589, 170 138.845, 170 138.570 C 170 138.295, 169.100 137.589, 168 137 C 166.900 136.411, 166 136.155, 166 136.430 M 156.307 140.454 C 155.366 141.511, 155.555 142.184, 157.203 143.647 C 159.276 145.487, 159.282 145.482, 158.010 143 L 156.729 140.500 159.375 142.934 C 161.332 144.735, 161.693 145.577, 160.761 146.169 C 160.067 146.609, 159.950 146.969, 160.500 146.969 C 163.493 146.969, 163.535 145.298, 160.616 142.308 C 158.066 139.695, 157.284 139.359, 156.307 140.454 M 110.805 142.147 C 108.649 143.773, 108.624 143.919, 110.380 144.592 C 111.658 145.083, 112.561 144.749, 113.241 143.535 C 114.057 142.076, 114.408 142.004, 115.211 143.130 C 115.974 144.199, 116.071 144.130, 115.651 142.815 C 115.355 141.888, 115.650 140.921, 116.306 140.667 C 116.963 140.412, 116.509 140.252, 115.298 140.311 C 114.088 140.370, 112.066 141.196, 110.805 142.147 M 21.810 143.523 C 21.484 143.849, 21.452 145.012, 21.738 146.106 C 22.404 148.654, 25.500 148.155, 25.500 145.500 C 25.500 143.608, 23.042 142.291, 21.810 143.523 M 177.639 143.694 C 176.403 144.930, 177.017 148, 178.500 148 C 179.325 148, 180 147.127, 180 146.059 C 180 143.972, 178.682 142.651, 177.639 143.694 M 27.050 146.906 C 26.127 148.631, 29.297 150.676, 60.603 168.551 C 79.617 179.408, 95.436 188.973, 95.756 189.806 C 96.203 190.972, 96.533 190.790, 97.190 189.015 C 97.659 187.747, 97.921 186.662, 97.771 186.605 C 96.045 185.938, 87.127 180.993, 77 175.086 C 70.125 171.076, 56.211 163.036, 46.079 157.220 C 31.519 148.862, 28.061 146.488, 29.579 145.893 C 31.216 145.252, 31.247 145.130, 29.785 145.070 C 28.842 145.032, 27.611 145.858, 27.050 146.906 M 73.596 147.250 C 75.172 148.488, 76.920 149.350, 77.481 149.167 C 78.041 148.983, 78.166 149.167, 77.759 149.575 C 77.351 149.982, 77.519 150.920, 78.131 151.658 C 79.851 153.731, 77.604 153.258, 75 151 C 71.363 147.846, 70.868 148.389, 74.043 152.050 C 75.848 154.131, 76.431 154.276, 79.043 153.290 C 81.138 152.499, 82 152.489, 82 153.254 C 82 153.847, 82.236 154.098, 82.524 153.810 C 83.293 153.040, 81.945 150, 80.834 150 C 80.310 150, 80.203 150.520, 80.595 151.155 C 81.016 151.836, 80.872 152.039, 80.243 151.650 C 79.657 151.288, 79.295 149.918, 79.439 148.606 C 79.666 146.541, 79.310 146.247, 76.793 146.421 C 75.193 146.532, 73.659 146.258, 73.383 145.811 C 73.108 145.365, 72.398 145, 71.806 145 C 71.214 145, 72.020 146.012, 73.596 147.250 M 185 151 C 184.411 152.100, 184.155 153, 184.430 153 C 184.705 153, 185.411 152.100, 186 151 C 186.589 149.900, 186.845 149, 186.570 149 C 186.295 149, 185.589 149.900, 185 151 M 84 152 C 84 152.550, 84.477 153, 85.059 153 C 85.641 153, 85.840 152.550, 85.500 152 C 85.160 151.450, 84.684 151, 84.441 151 C 84.198 151, 84 151.450, 84 152 M 156 152 C 156 152.550, 156.477 153, 157.059 153 C 157.641 153, 157.840 152.550, 157.500 152 C 157.160 151.450, 156.684 151, 156.441 151 C 156.198 151, 156 151.450, 156 152 M 175.938 163.584 C 170.507 170.160, 161.278 178.259, 153.250 183.494 C 150.912 185.019, 149 186.458, 149 186.692 C 149 187.241, 150.203 186.523, 157.500 181.621 C 163.799 177.389, 175.936 165.779, 179.841 160.250 C 183.551 154.997, 181.787 156.504, 175.938 163.584 M 27 168.313 C 27 168.485, 28.462 169.948, 30.250 171.563 L 33.500 174.500 30.563 171.250 C 27.825 168.221, 27 167.540, 27 168.313 M 35.911 176.337 C 37.373 178.157, 43 182.442, 43 181.735 C 43 181.515, 41.087 179.815, 38.750 177.957 C 36.413 176.100, 35.135 175.370, 35.911 176.337 M 47 184.430 C 47 184.705, 47.900 185.411, 49 186 C 50.100 186.589, 51 186.845, 51 186.570 C 51 186.295, 50.100 185.589, 49 185 C 47.900 184.411, 47 184.155, 47 184.430 M 99.756 188.577 C 98.744 189.590, 100.098 192, 101.680 192 C 102.512 192, 103.007 191.278, 102.823 190.333 C 102.476 188.543, 100.768 187.565, 99.756 188.577 M 60 191.500 C 61.375 192.286, 62.950 192.929, 63.500 192.929 C 64.050 192.929, 63.375 192.286, 62 191.500 C 60.625 190.714, 59.050 190.071, 58.500 190.071 C 57.950 190.071, 58.625 190.714, 60 191.500 M 139 190.938 C 136.182 192.586, 123.899 196.208, 116.694 197.515 C 112.737 198.232, 110.850 198.857, 112.500 198.903 C 116.930 199.026, 130.858 195.476, 137.076 192.639 C 140.059 191.277, 142.050 190.141, 141.500 190.112 C 140.950 190.084, 139.825 190.456, 139 190.938 M 74.818 196.555 C 81.214 198.566, 93.118 200.020, 101.822 199.853 C 108.565 199.725, 108.039 199.613, 97.500 198.936 C 90.900 198.512, 82.435 197.453, 78.688 196.583 C 70.555 194.693, 68.856 194.681, 74.818 196.555" stroke="none" fill="black" fill-rule="evenodd"/>
	<path fill-opacity="0.084" d="M 80.446 5.426 C 48.685 12.605, 22.657 34.088, 11.074 62.685 C 5.948 75.343, 4.500 83.238, 4.505 98.500 C 4.517 127.628, 13.114 148.490, 33.368 168.540 C 52.533 187.511, 72.936 196, 99.370 196 C 116.517 196, 128.275 193.359, 142.908 186.220 C 164.671 175.602, 183.303 154.136, 190.837 131 C 196.218 114.476, 197.292 92.965, 193.521 77.245 C 185.334 43.112, 159.452 16.369, 125.470 6.929 C 115.354 4.118, 89.979 3.271, 80.446 5.426 M 96.203 7.197 C 95.541 7.859, 94.997 9.098, 94.993 9.950 C 94.988 10.930, 82.310 18.849, 60.493 31.499 C 41.522 42.499, 26 52.110, 26 52.856 C 26 54.758, 26.962 54.297, 46.915 42.830 C 56.587 37.271, 64.950 32.484, 65.500 32.191 C 66.050 31.898, 65.150 32.990, 63.500 34.618 C 61.850 36.246, 60.164 37.422, 59.752 37.231 C 59.341 37.041, 56.589 38.330, 53.636 40.096 C 49.522 42.557, 48.383 43.749, 48.762 45.196 C 49.033 46.235, 48.861 46.992, 48.378 46.879 C 47.895 46.765, 46.220 47.030, 44.655 47.468 C 42.570 48.052, 42.169 48.492, 43.155 49.117 C 44.213 49.787, 44.149 49.973, 42.857 49.985 C 41.953 49.993, 40.917 50.775, 40.553 51.722 C 40.005 53.151, 39.744 53.203, 39.018 52.030 C 38.437 51.090, 38.707 50.171, 39.822 49.291 C 41.244 48.170, 41.085 48.145, 38.781 49.130 C 37.286 49.769, 36.301 50.677, 36.592 51.148 C 36.882 51.619, 35.968 52.442, 34.560 52.977 C 33.152 53.512, 32 54.412, 32 54.975 C 32 56.586, 27.387 56.172, 25.942 54.430 C 25.226 53.567, 23.821 53.075, 22.820 53.337 C 21.661 53.640, 21 53.271, 21 52.323 C 21 50.018, 18.541 51.375, 18.173 53.883 C 17.994 55.108, 18.351 56.718, 18.967 57.460 C 20.420 59.211, 20.431 139.969, 18.979 141.421 C 17.020 143.380, 17.902 147.012, 20.584 148.032 C 22.005 148.572, 23.524 148.794, 23.960 148.525 C 24.396 148.256, 28.520 150.281, 33.126 153.026 C 37.732 155.771, 53.514 164.876, 68.198 173.259 C 83.805 182.168, 95.282 189.342, 95.825 190.528 C 97.124 193.362, 102.627 193.751, 103.478 191.069 C 103.877 189.812, 115.744 182.444, 136.799 170.381 C 154.784 160.076, 170.737 150.794, 172.249 149.754 C 173.838 148.662, 175.799 148.119, 176.894 148.466 C 179.166 149.187, 182 146.669, 182 143.929 C 182 142.868, 181.662 142.053, 181.250 142.118 C 178.776 142.509, 176.143 141.815, 175.698 140.656 C 175.326 139.686, 175.874 139.444, 177.670 139.788 L 180.158 140.263 179.955 99.882 C 179.814 71.881, 180.097 58.637, 180.876 56.685 C 181.494 55.137, 182 53.772, 182 53.653 C 182 53.534, 180.762 53.334, 179.250 53.209 C 177.738 53.085, 176.350 52.537, 176.167 51.991 C 175.983 51.446, 175.237 51, 174.507 51 C 171.795 51, 106.508 12.255, 105.317 9.939 C 104.667 8.673, 103.485 7.542, 102.691 7.425 C 101.897 7.309, 100.383 6.939, 99.327 6.604 C 98.270 6.268, 96.865 6.535, 96.203 7.197 M 68.441 30.555 C 66.577 32.049, 66.589 32.067, 68.750 31.020 C 69.987 30.420, 71 29.720, 71 29.465 C 71 28.700, 70.481 28.921, 68.441 30.555 M 130.500 30.490 C 132.734 32.347, 139.069 35.772, 137.500 34.274 C 136.950 33.749, 134.700 32.309, 132.500 31.074 C 130.300 29.839, 129.400 29.576, 130.500 30.490 M 141 36.328 C 141 36.546, 144.600 38.902, 149 41.562 C 153.400 44.222, 157.067 47.096, 157.148 47.949 C 157.229 48.802, 157.342 50.247, 157.398 51.160 C 157.454 52.072, 157.838 53.160, 158.250 53.576 C 159.312 54.648, 159.184 56.232, 158.090 55.556 C 156.563 54.612, 154.092 56.076, 154.670 57.583 C 154.969 58.362, 154.689 59, 154.048 59 C 153.407 59, 153.165 59.457, 153.510 60.016 C 153.856 60.575, 154.552 60.777, 155.058 60.464 C 155.563 60.152, 155.709 60.594, 155.382 61.448 C 155.054 62.302, 154.111 63, 153.286 63 C 152.327 63, 152.006 63.572, 152.395 64.588 C 152.764 65.550, 152.117 66.966, 150.752 68.182 C 148.699 70.011, 150.497 69.187, 159.299 64.268 C 159.738 64.023, 159.513 63.075, 158.799 62.161 C 157.638 60.677, 157.685 60.645, 159.243 61.866 C 160.763 63.059, 161.709 62.803, 166.660 59.866 C 169.780 58.015, 172.504 55.988, 172.713 55.362 C 172.921 54.736, 170.186 52.598, 166.634 50.612 C 160.243 47.038, 156.934 45.873, 160.178 48.339 C 161.231 49.140, 161.551 50.109, 161.037 50.940 C 160.431 51.921, 160.009 51.647, 159.408 49.882 C 158.963 48.572, 158.576 47.167, 158.549 46.759 C 158.487 45.819, 141 35.425, 141 36.328 M 99.750 51.662 C 100.438 51.940, 101.563 51.940, 102.250 51.662 C 102.938 51.385, 102.375 51.158, 101 51.158 C 99.625 51.158, 99.063 51.385, 99.750 51.662 M 105.542 52.932 C 105.174 53.527, 105.603 54.294, 106.494 54.636 C 107.386 54.978, 107.887 55.852, 107.608 56.578 C 107.286 57.417, 107.630 57.696, 108.551 57.342 C 110.420 56.625, 110.381 56.325, 108.106 53.883 C 106.881 52.569, 105.975 52.232, 105.542 52.932 M 81.256 67.812 C 72.954 72.588, 66.325 76.659, 66.525 76.859 C 66.725 77.059, 73.326 73.520, 81.195 68.994 C 99.875 58.249, 99.124 58.249, 117.820 69.003 C 126.873 74.209, 132.444 78.038, 132.966 79.411 C 133.420 80.605, 134.514 82.181, 135.396 82.914 C 136.756 84.042, 137 83.998, 137 82.622 C 137 81.730, 136.539 81, 135.975 81 C 135.412 81, 134.546 79.937, 134.052 78.637 C 133.446 77.042, 128.529 73.571, 118.909 67.947 C 99.679 56.704, 100.561 56.707, 81.256 67.812 M 112 59.893 C 112 60.384, 112.739 61.069, 113.641 61.416 C 115.014 61.943, 115.076 61.796, 114.019 60.523 C 112.579 58.788, 112 58.607, 112 59.893 M 158.562 67.892 C 150.346 72.697, 143.449 77.274, 143.236 78.064 C 142.982 79.005, 143.133 79.120, 143.674 78.398 C 144.706 77.021, 172.554 61, 173.916 61 C 174.464 61, 175.049 64.263, 175.215 68.250 L 175.518 75.500 176.009 67.248 C 176.420 60.338, 176.256 59.008, 175 59.076 C 174.175 59.120, 166.778 63.088, 158.562 67.892 M 45.500 62 C 45.840 62.550, 47.104 62.968, 48.309 62.930 C 50.421 62.862, 50.428 62.829, 48.500 62 C 45.748 60.817, 44.769 60.817, 45.500 62 M 51 62.060 C 51 63.003, 54.128 64.205, 54.810 63.524 C 55.098 63.236, 54.782 63, 54.108 63 C 53.434 63, 53.114 62.625, 53.397 62.167 C 53.680 61.708, 53.257 61.333, 52.456 61.333 C 51.655 61.333, 51 61.660, 51 62.060 M 36 65.430 C 36 65.705, 36.900 66.411, 38 67 C 39.100 67.589, 40 67.845, 40 67.570 C 40 67.295, 39.100 66.589, 38 66 C 36.900 65.411, 36 65.155, 36 65.430 M 41 68.360 C 41 69.086, 54.343 77.001, 55.558 76.996 C 56.076 76.994, 55.150 76.174, 53.500 75.174 C 45.338 70.227, 41 67.862, 41 68.360 M 59.500 73 C 59.840 73.550, 61.018 74, 62.118 74 C 63.218 74, 63.840 73.550, 63.500 73 C 63.160 72.450, 61.982 72, 60.882 72 C 59.782 72, 59.160 72.450, 59.500 73 M 137 73 C 135.875 73.727, 136.375 73.969, 139 73.969 C 141.625 73.969, 142.125 73.727, 141 73 C 140.175 72.467, 139.275 72.031, 139 72.031 C 138.725 72.031, 137.825 72.467, 137 73 M 55.242 78.914 C 55.444 79.692, 56.710 81.015, 58.055 81.853 C 59.966 83.044, 60.182 83.063, 59.046 81.938 C 58.246 81.147, 56.980 79.825, 56.233 79 C 55.133 77.786, 54.944 77.769, 55.242 78.914 M 64.100 80.295 C 62.835 82.402, 62.857 82.423, 64.579 80.774 C 65.570 79.824, 66.166 78.832, 65.903 78.569 C 65.640 78.306, 64.829 79.083, 64.100 80.295 M 140.872 81.750 C 139.629 83.336, 139.664 83.371, 141.250 82.128 C 142.213 81.373, 143 80.585, 143 80.378 C 143 79.555, 142.179 80.084, 140.872 81.750 M 49.165 84.877 C 48.144 85.524, 48.303 85.846, 49.841 86.248 C 51.271 86.622, 51.697 86.374, 51.318 85.387 C 50.696 83.767, 50.857 83.805, 49.165 84.877 M 34.629 87.523 C 34.138 88.803, 34.400 88.861, 36.273 87.888 C 39.461 86.229, 39.582 86, 37.274 86 C 36.141 86, 34.951 86.685, 34.629 87.523 M 51.015 89.971 C 50.219 91.459, 49.282 91.806, 47.193 91.389 C 43.584 90.667, 38.595 94.353, 41 95.964 C 42.257 96.806, 42.176 96.985, 40.500 97.064 C 39.400 97.115, 39.063 97.385, 39.750 97.662 C 40.438 97.940, 41 98.978, 41 99.969 C 41 100.960, 41.657 103.285, 42.461 105.135 L 43.922 108.500 43.961 105.250 C 43.982 103.463, 43.566 102, 43.036 102 C 42.507 102, 42.112 100.067, 42.159 97.704 C 42.229 94.252, 42.615 93.379, 44.123 93.266 C 45.155 93.188, 46 93.573, 46 94.121 C 46 94.669, 45.550 94.840, 45 94.500 C 44.450 94.160, 44 94.584, 44 95.441 C 44 96.644, 45.135 97, 48.969 97 C 52.815 97, 53.816 97.316, 53.400 98.399 C 53.105 99.168, 53.339 100.092, 53.920 100.451 C 54.563 100.848, 54.744 100.496, 54.382 99.552 C 54.054 98.698, 54.253 98, 54.823 98 C 55.908 98, 54.707 92.302, 53.372 91.114 C 52.992 90.776, 52.964 91.287, 53.309 92.250 C 53.655 93.213, 53.475 94, 52.910 94 C 52.344 94, 52.200 94.563, 52.588 95.250 C 53.132 96.214, 53.002 96.231, 52.022 95.326 C 51.057 94.434, 51.009 93.412, 51.824 91.076 C 53.035 87.600, 52.602 87.008, 51.015 89.971 M 91.272 92 C 91.272 94.475, 91.467 95.487, 91.706 94.250 C 91.944 93.013, 91.944 90.987, 91.706 89.750 C 91.467 88.513, 91.272 89.525, 91.272 92 M 30.679 92.546 C 28.473 97.173, 28.551 103.797, 30.884 109.938 C 31.921 112.666, 32.497 115.169, 32.165 115.502 C 31.833 115.834, 32.277 115.831, 33.151 115.495 C 34.117 115.125, 34.987 115.523, 35.365 116.508 C 35.860 117.800, 35.550 117.992, 33.842 117.450 C 32.138 116.909, 31.825 117.101, 32.317 118.385 C 32.769 119.561, 32.357 120, 30.802 120 C 29.628 120, 28.957 120.291, 29.313 120.646 C 30.356 121.689, 47.001 121.599, 47 120.550 C 47 120.027, 47.540 120.140, 48.200 120.800 C 48.860 121.460, 49.872 121.993, 50.450 121.985 C 51.027 121.976, 50.825 121.520, 50 120.971 C 48.899 120.238, 49.474 120.069, 52.162 120.338 C 54.928 120.615, 55.697 120.374, 55.305 119.352 C 54.969 118.476, 55.537 118, 56.918 118 C 58.858 118, 59.035 117.503, 58.871 112.500 C 58.697 107.164, 58.607 107, 55.846 107 C 53.488 107, 53 107.422, 53 109.465 C 53 112.937, 49.824 114.300, 42.898 113.799 C 39.010 113.518, 36.352 112.733, 34.899 111.439 C 30.172 107.225, 28.622 98.566, 31.574 92.857 C 32.439 91.184, 32.970 89.637, 32.753 89.420 C 32.536 89.203, 31.603 90.610, 30.679 92.546 M 101 92 C 101 92.550, 102.323 93, 103.941 93 C 105.559 93, 107.160 92.550, 107.500 92 C 107.868 91.405, 106.677 91, 104.559 91 C 102.602 91, 101 91.450, 101 92 M 154.361 102.497 C 154.677 103.321, 156.519 106.471, 158.455 109.497 C 161.755 114.656, 162.210 114.990, 165.738 114.840 L 169.500 114.680 166.170 114.271 C 163.326 113.921, 162.253 112.924, 158.809 107.431 C 154.969 101.307, 153.115 99.250, 154.361 102.497 M 53 103.500 C 53 104.325, 53.436 105, 53.969 105 C 54.501 105, 54.678 104.325, 54.362 103.500 C 54.045 102.675, 53.609 102, 53.393 102 C 53.177 102, 53 102.675, 53 103.500 M 102 103 C 100.827 103.758, 101.086 103.973, 103.191 103.985 C 104.671 103.993, 106.160 103.550, 106.500 103 C 107.289 101.723, 103.976 101.723, 102 103 M 91.116 112.750 C 91.009 114.834, 91.388 114.987, 96.250 114.820 L 101.500 114.640 96.813 114.268 C 93.453 114.001, 92 113.415, 91.679 112.198 C 91.359 110.983, 91.199 111.141, 91.116 112.750 M 146 114.224 C 146 114.651, 147.800 115, 150 115 C 152.200 115, 154 114.822, 154 114.605 C 154 114.388, 152.200 114.038, 150 113.829 C 147.800 113.619, 146 113.797, 146 114.224 M 60.750 118.662 C 61.438 118.940, 62.563 118.940, 63.250 118.662 C 63.938 118.385, 63.375 118.158, 62 118.158 C 60.625 118.158, 60.063 118.385, 60.750 118.662 M 138.813 118.683 C 139.534 118.972, 140.397 118.936, 140.729 118.604 C 141.061 118.272, 140.471 118.036, 139.417 118.079 C 138.252 118.127, 138.015 118.364, 138.813 118.683 M 38 123.531 C 38 124.374, 38.788 125.341, 39.750 125.680 C 40.712 126.020, 42.428 127.130, 43.562 128.147 C 45.399 129.794, 45.835 129.836, 47.562 128.530 C 49.420 127.124, 49.388 127.062, 46.802 127.032 C 45.317 127.014, 42.889 125.875, 41.405 124.500 C 38.246 121.572, 38 121.502, 38 123.531 M 53.593 123.619 C 53.212 124.611, 52.243 125.035, 51.063 124.727 C 49.734 124.379, 49.310 124.644, 49.675 125.595 C 50.045 126.560, 50.686 126.684, 51.850 126.015 C 55.554 123.887, 56.197 123.240, 55.212 122.631 C 54.660 122.290, 53.932 122.735, 53.593 123.619 M 26.040 126.548 C 26.783 127.444, 26.781 128.017, 26.032 128.480 C 24.471 129.445, 25.939 131.238, 27.728 130.551 C 29.500 129.871, 32.244 131.796, 31.415 133.138 C 31.105 133.639, 31.391 133.926, 32.051 133.775 C 34.122 133.300, 34.210 135.799, 32.145 136.454 C 31.065 136.797, 29.662 137.702, 29.028 138.466 C 28.394 139.230, 31.495 137.807, 35.919 135.305 L 43.962 130.755 39.990 127.878 C 35.741 124.800, 33.550 124.302, 32.405 126.155 C 31.932 126.918, 32.134 127.035, 33 126.500 C 33.885 125.953, 34.068 126.081, 33.565 126.894 C 33.098 127.651, 32.391 127.758, 31.661 127.183 C 31.022 126.680, 29.259 126.045, 27.741 125.771 C 25.588 125.383, 25.215 125.554, 26.040 126.548 M 47.500 132.187 C 42 135.420, 37.624 138.534, 37.775 139.107 C 37.926 139.680, 37.589 139.864, 37.027 139.517 C 36.464 139.169, 34.090 140.031, 31.752 141.433 C 27.649 143.892, 27.118 145.078, 31.066 142.965 C 32.742 142.068, 33 142.268, 33 144.465 C 33 147.500, 33.548 147.573, 37.625 145.087 L 40.750 143.181 40.750 145.591 C 40.750 146.916, 40.330 148, 39.816 148 C 39.302 148, 39.160 148.450, 39.500 149 C 40.587 150.760, 43 150.070, 43 148 C 43 146.900, 42.523 146, 41.941 146 C 41.359 146, 41.190 145.502, 41.566 144.893 C 42.064 144.088, 42.440 144.093, 42.946 144.913 C 43.764 146.236, 48.172 145.947, 49.235 144.500 C 49.690 143.881, 49.975 143.976, 49.985 144.750 C 49.993 145.438, 50.675 146, 51.500 146 C 53.327 146, 53.426 144.850, 51.750 143.078 C 50.718 141.986, 50.893 141.957, 52.750 142.913 C 54.273 143.697, 55 143.728, 55 143.010 C 55 142.427, 53.875 141.523, 52.500 141 C 51.125 140.477, 50.036 139.476, 50.079 138.775 C 50.141 137.772, 50.265 137.767, 50.662 138.750 C 51.536 140.916, 54.295 140.237, 53.710 138 C 53.423 136.900, 53.520 136, 53.927 136 C 55.546 136, 54.543 132.990, 52.732 132.415 C 49.281 131.320, 56.105 128.034, 61.207 128.334 C 65.360 128.579, 72.871 131.721, 72.958 133.250 C 72.981 133.662, 73 134.691, 73 135.535 C 73 136.741, 73.413 136.849, 74.926 136.039 C 76.458 135.220, 78.296 135.776, 83.900 138.754 C 87.777 140.814, 91.910 143.326, 93.086 144.336 C 94.262 145.346, 95.038 145.613, 94.809 144.928 C 94.581 144.244, 87.893 139.878, 79.947 135.226 C 61.355 124.340, 60.919 124.299, 47.500 132.187 M 124.229 132.696 C 118.030 136.323, 113.124 139.457, 113.327 139.660 C 113.530 139.863, 115.789 138.859, 118.348 137.429 C 120.907 135.999, 123.014 135.205, 123.030 135.665 C 123.047 136.124, 123.525 135.703, 124.092 134.729 C 124.659 133.755, 125.545 133.219, 126.061 133.538 C 126.578 133.857, 127 133.615, 127 133 C 127 132.385, 127.468 132.171, 128.041 132.525 C 128.613 132.879, 128.820 133.993, 128.500 135 C 128.180 136.007, 128.385 137.120, 128.954 137.472 C 129.523 137.823, 130.491 139.099, 131.104 140.306 C 131.740 141.556, 130.895 140.995, 129.139 139 C 126.562 136.072, 125.892 135.745, 125.040 137 C 124.479 137.825, 124.246 139.113, 124.522 139.861 C 124.842 140.731, 124.506 141.024, 123.594 140.674 C 122.017 140.069, 120.572 142.526, 120.908 145.242 C 121.044 146.340, 120.625 146.793, 119.776 146.468 C 118.906 146.134, 118.389 146.755, 118.317 148.225 C 118.255 149.476, 118.420 149.938, 118.685 149.250 C 118.950 148.563, 119.859 148, 120.706 148 C 121.960 148, 122.015 148.277, 121 149.500 C 119.240 151.620, 116.366 151.360, 114.661 148.927 C 113.069 146.654, 111.566 147.701, 113.051 150.048 C 114.222 151.899, 114.243 153, 113.108 153 C 112.618 153, 111.924 151.835, 111.567 150.412 C 111 148.152, 110.708 147.993, 109.267 149.162 C 108.093 150.113, 107.833 150.139, 108.367 149.250 C 108.830 148.479, 108.561 148, 107.666 148 C 106.867 148, 105.955 148.675, 105.638 149.500 C 105.322 150.325, 104.509 151, 103.831 151 C 102.874 151, 102.867 150.733, 103.800 149.800 C 104.460 149.140, 105 147.929, 105 147.109 C 105 145.992, 104.632 146.105, 103.532 147.559 C 102.431 149.014, 102.056 152.566, 102.032 161.750 C 102.014 168.488, 102.342 174, 102.759 174 C 103.853 174, 106.248 178.085, 105.559 178.774 C 105.240 179.093, 104.323 178.487, 103.521 177.427 C 102.170 175.640, 102.061 175.810, 102.032 179.750 C 102.010 182.687, 101.572 184, 100.617 184 C 99.856 184, 99.027 184.787, 98.776 185.750 C 98.422 187.103, 98.941 187.500, 101.064 187.500 C 102.574 187.500, 103.611 187.180, 103.369 186.788 C 103.127 186.397, 104.761 185.142, 107 184 C 109.239 182.858, 110.790 181.469, 110.446 180.913 C 110.032 180.242, 109.382 180.268, 108.514 180.988 C 107.501 181.829, 107.220 181.559, 107.265 179.787 C 107.297 178.529, 106.941 176.600, 106.474 175.500 C 105.691 173.654, 105.771 173.616, 107.505 175 C 108.598 175.873, 109.070 175.977, 108.633 175.250 C 108.220 174.563, 108.359 174, 108.941 174 C 109.523 174, 110 175.070, 110 176.378 C 110 180.226, 112.125 181.216, 115.546 178.960 C 117.530 177.653, 117.953 177.011, 116.833 177.007 C 115.917 177.003, 114.977 177.563, 114.746 178.250 C 114.417 179.228, 113.968 179.205, 112.684 178.145 C 110.102 176.014, 112.246 172.951, 116.011 173.390 C 117.708 173.587, 119.469 173.139, 120.131 172.342 C 121.116 171.155, 121.527 171.167, 122.915 172.423 C 124.369 173.739, 125.581 173.294, 134.273 168.250 C 140.768 164.480, 143.670 162.270, 143.001 161.601 C 142.451 161.051, 142 159.820, 142 158.867 C 142 157.914, 141.149 156.865, 140.108 156.534 C 139.067 156.204, 137.984 155.049, 137.702 153.967 C 137.308 152.463, 137.695 151.996, 139.344 151.985 C 140.530 151.976, 142.175 151.533, 143 151 C 144.118 150.277, 143.560 150.027, 140.809 150.015 C 138.779 150.007, 136.909 149.662, 136.654 149.250 C 136.398 148.838, 137.945 148.567, 140.091 148.648 C 144.332 148.809, 144.335 148.704, 140.251 143.184 C 138.902 141.361, 137.546 140.120, 137.238 140.428 C 136.931 140.736, 137.539 141.991, 138.589 143.217 C 139.858 144.697, 139.269 144.447, 136.837 142.473 C 133.852 140.051, 133.204 138.889, 133.337 136.205 L 133.500 132.911 135.351 135.205 C 141.872 143.287, 145.420 147, 146.623 147 C 147.380 147, 148 146.550, 148 146 C 148 145.450, 147.475 145.113, 146.834 145.250 C 146.193 145.388, 145.350 144.037, 144.961 142.250 C 144.491 140.094, 144.631 138.995, 145.376 138.985 C 145.994 138.976, 145.825 138.533, 145 138 C 143.822 137.239, 143.795 137.027, 144.872 137.015 C 145.985 137.003, 145.953 136.576, 144.702 134.750 C 143.855 133.512, 142.655 132.619, 142.038 132.764 C 141.242 132.951, 141.209 132.479, 141.922 131.146 C 143.120 128.907, 142.430 127.939, 140.152 128.663 C 138.789 129.097, 138.752 129.010, 139.938 128.169 C 140.995 127.420, 142.853 127.955, 146.938 130.185 C 149.997 131.855, 153 133.846, 153.610 134.610 C 154.221 135.375, 155.240 136, 155.874 136 C 157.924 136, 163.873 140.434, 164.930 142.750 C 165.495 143.988, 166.487 145, 167.134 145 C 167.812 145, 167.503 144.081, 166.405 142.830 C 164.695 140.883, 164.679 140.726, 166.250 141.299 C 170.394 142.810, 167.162 140.644, 154.702 133.560 C 146.137 128.690, 140.354 126.018, 138.452 126.050 C 136.688 126.080, 130.965 128.754, 124.229 132.696 M 48.153 133.247 C 47.519 133.881, 47.036 135.097, 47.079 135.950 C 47.125 136.860, 47.356 137.016, 47.637 136.327 C 47.900 135.681, 49.215 135.353, 50.558 135.596 C 53.428 136.117, 53.810 134.504, 51.153 133.082 C 49.883 132.402, 48.947 132.453, 48.153 133.247 M 43.614 136.563 C 43.284 137.423, 42.561 137.847, 42.007 137.504 C 40.420 136.523, 40.833 138.617, 42.500 140 C 43.861 141.129, 44.418 140.714, 44.130 138.786 C 44.072 138.393, 44.661 138.316, 45.439 138.615 C 46.468 139.010, 46.706 138.590, 46.310 137.079 C 45.666 134.615, 44.451 134.382, 43.614 136.563 M 134 136.755 C 134 137.305, 134.675 138.315, 135.500 139 C 136.337 139.694, 137 139.803, 137 139.245 C 137 138.695, 136.325 137.685, 135.500 137 C 134.663 136.306, 134 136.197, 134 136.755 M 148.574 140.667 C 148.222 141.584, 148.287 142.686, 148.717 143.116 C 149.148 143.546, 149.565 142.796, 149.644 141.449 C 149.813 138.588, 149.469 138.337, 148.574 140.667 M 22 140.912 C 22 141.928, 24.557 141.776, 25.638 140.696 C 26.020 140.313, 25.358 140, 24.167 140 C 22.975 140, 22 140.410, 22 140.912 M 99 141 C 100.970 142.273, 103.287 142.273, 102.500 141 C 102.160 140.450, 100.896 140.007, 99.691 140.015 C 97.910 140.028, 97.781 140.212, 99 141 M 108.250 141.989 C 104.900 144.032, 103.633 145.822, 106.750 144.108 C 109.072 142.832, 112.631 140.071, 112 140.036 C 111.725 140.020, 110.037 140.899, 108.250 141.989 M 36 142 C 36 143.253, 37.061 143.253, 39 142 C 40.213 141.216, 40.069 141.028, 38.250 141.015 C 37.013 141.007, 36 141.450, 36 142 M 151 141.941 C 151 142.459, 151.445 143.157, 151.989 143.493 C 152.555 143.843, 152.723 143.442, 152.382 142.552 C 151.717 140.820, 151 140.503, 151 141.941 M 169.629 143.477 C 169.951 144.315, 170.841 145, 171.607 145 C 173.560 145, 173.341 144.253, 171.023 143.012 C 169.409 142.149, 169.153 142.234, 169.629 143.477 M 150.562 146.700 C 149.710 148.920, 151.102 150.570, 152.188 148.628 C 152.689 147.733, 153.752 147, 154.550 147 C 157.032 147, 156.135 145.508, 153.564 145.360 C 152.225 145.283, 150.874 145.886, 150.562 146.700 M 140 147 C 140 147.550, 140.477 148, 141.059 148 C 141.641 148, 141.840 147.550, 141.500 147 C 141.160 146.450, 140.684 146, 140.441 146 C 140.198 146, 140 146.450, 140 147 M 169.046 146.730 C 168.246 147.045, 166.671 148.190, 165.546 149.275 C 163.553 151.196, 163.552 151.220, 165.500 150.197 C 167.766 149.007, 171.761 146.039, 171 146.111 C 170.725 146.137, 169.846 146.416, 169.046 146.730 M 35.148 147.887 C 34.089 148.558, 34.299 149.096, 36.121 150.372 C 38.869 152.297, 40 152.431, 40 150.833 C 40 150.192, 39.704 149.963, 39.342 150.325 C 38.438 151.229, 35.889 148.988, 36.570 147.887 C 37.251 146.786, 36.886 146.786, 35.148 147.887 M 50.500 147.713 C 47.648 148.399, 46.189 150, 48.417 150 C 49.741 150, 50.092 150.542, 49.710 152 C 49.136 154.194, 49.094 154.168, 53.750 154.555 C 55.754 154.722, 57 154.368, 57 153.631 C 57 152.974, 58.212 152.336, 59.694 152.213 C 62.988 151.941, 64.640 149.757, 62.213 148.884 C 61.271 148.546, 60.350 148.658, 60.167 149.134 C 59.983 149.610, 59.394 150, 58.858 150 C 58.321 150, 58.190 149.502, 58.566 148.893 C 59.022 148.155, 58.570 148.002, 57.209 148.434 C 56.087 148.790, 54.879 148.613, 54.525 148.041 C 53.851 146.950, 53.718 146.939, 50.500 147.713 M 95.638 148.500 C 95.955 149.325, 96.671 150, 97.229 150 C 97.815 150, 97.718 149.365, 97 148.500 C 96.315 147.675, 95.599 147, 95.409 147 C 95.219 147, 95.322 147.675, 95.638 148.500 M 41 152.059 C 41 152.641, 41.450 152.840, 42 152.500 C 42.550 152.160, 43 151.684, 43 151.441 C 43 151.198, 42.550 151, 42 151 C 41.450 151, 41 151.477, 41 152.059 M 108.298 152.631 C 108.645 152.979, 108.505 154.057, 107.986 155.026 C 107.294 156.319, 107.504 157.143, 108.771 158.112 C 109.722 158.839, 110.184 159.058, 109.798 158.598 C 109.411 158.138, 109.764 157.093, 110.582 156.275 C 111.726 155.132, 111.802 154.466, 110.912 153.394 C 110.276 152.627, 109.285 152, 108.711 152 C 108.137 152, 107.951 152.284, 108.298 152.631 M 119.500 153 C 119.160 153.550, 119.359 154, 119.941 154 C 120.523 154, 121 153.550, 121 153 C 121 152.450, 120.802 152, 120.559 152 C 120.316 152, 119.840 152.450, 119.500 153 M 91.502 153.997 C 91.161 154.549, 91.359 155, 91.941 155 C 92.523 155, 93 155.498, 93 156.107 C 93 156.716, 92.337 156.960, 91.526 156.649 C 90.716 156.338, 89.673 156.761, 89.210 157.590 C 88.746 158.419, 87.384 159.171, 86.183 159.261 C 84.982 159.352, 84 159.780, 84 160.213 C 84 160.646, 83.325 161, 82.500 161 C 81.675 161, 81 160.464, 81 159.809 C 81 159.154, 80.292 159.491, 79.426 160.559 C 78.560 161.626, 78.054 162.050, 78.301 161.500 C 78.548 160.950, 78.388 159.600, 77.945 158.500 L 77.141 156.500 77.034 158.500 C 76.939 160.286, 76.679 160.196, 74.604 157.660 C 72.381 154.942, 72.257 154.909, 71.734 156.910 C 71.371 158.298, 71.659 159, 72.594 159 C 73.406 159, 73.970 159.950, 73.930 161.250 C 73.863 163.397, 73.820 163.408, 73 161.500 C 72.171 159.572, 72.138 159.579, 72.070 161.691 C 71.989 164.235, 70.405 165.594, 69.664 163.756 C 69.298 162.849, 69.136 162.894, 69.079 163.921 C 69.036 164.703, 68.255 166.165, 67.345 167.171 C 65.744 168.940, 66.364 169.574, 69.250 169.118 C 69.662 169.053, 70 169.441, 70 169.980 C 70 170.518, 71.834 171.895, 74.076 173.039 C 78.597 175.345, 81 174.530, 81 170.690 C 81 168.794, 81.250 168.864, 84.074 171.563 C 86.435 173.819, 86.782 174.575, 85.574 174.823 C 83.766 175.195, 83.407 178, 85.167 178 C 85.808 178, 86.028 178.305, 85.655 178.679 C 84.816 179.517, 93.877 184.959, 96.150 184.983 C 97.372 184.996, 97.800 184.093, 97.800 181.500 C 97.800 178.043, 96.641 176.824, 95.662 179.250 C 95.385 179.938, 95.122 179.461, 95.079 178.191 C 95.035 176.891, 95.437 176.152, 96 176.500 C 97.042 177.144, 97.126 176.713, 97.574 168.500 C 97.880 162.881, 96.890 151.829, 96.252 153.743 C 95.956 154.631, 95.310 154.701, 93.980 153.989 C 92.744 153.328, 91.914 153.331, 91.502 153.997 M 152 156.661 L 149.500 159.201 152.500 157.637 C 154.150 156.777, 156.175 155.614, 157 155.052 C 158.253 154.199, 158.170 154.038, 156.500 154.076 C 155.400 154.101, 153.375 155.264, 152 156.661 M 85 156.500 C 85.685 157.325, 86.672 158, 87.194 158 C 87.716 158, 87.468 157.325, 86.643 156.500 C 85.818 155.675, 84.831 155, 84.449 155 C 84.067 155, 84.315 155.675, 85 156.500 M 55.813 156.683 C 56.534 156.972, 57.397 156.936, 57.729 156.604 C 58.061 156.272, 57.471 156.036, 56.417 156.079 C 55.252 156.127, 55.015 156.364, 55.813 156.683 M 106 158.819 C 106 160.027, 107.897 161.436, 108.591 160.743 C 108.842 160.491, 108.362 159.716, 107.524 159.020 C 106.574 158.231, 106 158.155, 106 158.819 M 68.500 160 C 68.840 160.550, 69.568 161, 70.118 161 C 70.668 161, 70.840 160.550, 70.500 160 C 70.160 159.450, 69.432 159, 68.882 159 C 68.332 159, 68.160 159.450, 68.500 160 M 103.639 159.694 C 102.513 160.820, 102.954 162, 104.500 162 C 105.325 162, 106 161.577, 106 161.059 C 106 159.798, 104.438 158.895, 103.639 159.694 M 145.333 160.446 C 145.333 161.538, 145.782 161.652, 147.167 160.911 C 148.175 160.371, 149 159.720, 149 159.465 C 149 159.209, 148.175 159, 147.167 159 C 146.158 159, 145.333 159.651, 145.333 160.446 M 123.834 171.474 C 124.125 172.585, 124.530 172.910, 124.761 172.218 C 124.986 171.541, 125.531 171.210, 125.972 171.483 C 126.413 171.755, 127.236 171.420, 127.802 170.739 C 128.577 169.805, 128.152 169.500, 126.074 169.500 C 123.822 169.500, 123.412 169.861, 123.834 171.474 M 77 173 C 77 173.550, 77.477 174, 78.059 174 C 78.641 174, 78.840 173.550, 78.500 173 C 78.160 172.450, 77.684 172, 77.441 172 C 77.198 172, 77 172.450, 77 173 M 88 173.819 C 88 175.027, 89.897 176.436, 90.591 175.743 C 90.842 175.491, 90.362 174.716, 89.524 174.020 C 88.574 173.231, 88 173.155, 88 173.819 M 96.750 199.723 C 98.537 199.945, 101.463 199.945, 103.250 199.723 C 105.037 199.502, 103.575 199.320, 100 199.320 C 96.425 199.320, 94.963 199.502, 96.750 199.723" stroke="none" fill="black" fill-rule="evenodd"/>
	<path fill-opacity="0.580" d="M 85 5.163 C 81.425 5.667, 74.107 7.578, 68.738 9.410 C 37.643 20.018, 13.789 46.704, 6.304 79.257 C 4.112 88.790, 4.139 109.797, 6.355 119.743 C 15.382 160.246, 48.436 190.435, 88.964 195.190 C 128.911 199.877, 167.619 178.800, 185.727 142.500 C 192.485 128.952, 195.403 115.767, 195.354 99 C 195.275 71.873, 185.341 48.900, 165.681 30.382 C 143.899 9.864, 115.225 0.902, 85 5.163 M 96.320 7.199 C 95.765 7.915, 95.065 9.175, 94.764 10 C 94.463 10.825, 78.812 20.422, 59.984 31.327 C 33.337 46.760, 25.227 51.023, 23.390 50.562 C 18.994 49.459, 15.371 56.257, 19.121 58.575 C 19.604 58.873, 20 77.040, 20 98.945 C 20 131.416, 19.737 139.277, 18.579 141.511 C 16.521 145.477, 17.902 148.420, 22.010 148.825 C 24.036 149.024, 37.090 155.933, 55.902 166.762 C 72.731 176.449, 88.390 185.442, 90.701 186.746 C 93.012 188.050, 95.172 189.967, 95.502 191.007 C 96.674 194.699, 103.316 194.731, 104.484 191.050 C 105.267 188.584, 173.874 149, 177.365 149 C 178.982 149, 180.534 148.114, 181.500 146.641 C 183.015 144.328, 182.657 141, 180.893 141 C 180.384 141, 180 123.646, 180 100.614 C 180 67.359, 180.255 59.737, 181.444 57.445 C 183.463 53.553, 181.942 51, 177.603 51 C 173.170 51, 106.410 12.462, 104.633 8.877 C 103.285 6.159, 97.961 5.084, 96.320 7.199 M 98.813 60.683 C 99.534 60.972, 100.397 60.936, 100.729 60.604 C 101.061 60.272, 100.471 60.036, 99.417 60.079 C 98.252 60.127, 98.015 60.364, 98.813 60.683 M 106 61.430 C 106 61.705, 106.900 62.411, 108 63 C 109.100 63.589, 110 63.845, 110 63.570 C 110 63.295, 109.100 62.589, 108 62 C 106.900 61.411, 106 61.155, 106 61.430 M 46.750 92.662 C 47.438 92.940, 48.563 92.940, 49.250 92.662 C 49.938 92.385, 49.375 92.158, 48 92.158 C 46.625 92.158, 46.063 92.385, 46.750 92.662 M 31 108.889 C 31 109.838, 35.886 114.497, 36.277 113.921 C 36.434 113.689, 35.311 112.291, 33.781 110.814 C 32.251 109.336, 31 108.470, 31 108.889 M 161.879 114.279 C 162.362 114.762, 164.049 114.995, 165.628 114.798 C 168.272 114.468, 168.202 114.399, 164.751 113.921 C 162.601 113.623, 161.376 113.776, 161.879 114.279 M 38.813 114.683 C 39.534 114.972, 40.397 114.936, 40.729 114.604 C 41.061 114.272, 40.471 114.036, 39.417 114.079 C 38.252 114.127, 38.015 114.364, 38.813 114.683 M 47.813 114.683 C 48.534 114.972, 49.397 114.936, 49.729 114.604 C 50.061 114.272, 49.471 114.036, 48.417 114.079 C 47.252 114.127, 47.015 114.364, 47.813 114.683 M 147.762 114.707 C 149.006 114.946, 150.806 114.937, 151.762 114.687 C 152.718 114.437, 151.700 114.241, 149.500 114.252 C 147.300 114.263, 146.518 114.468, 147.762 114.707" stroke="none" fill="black" fill-rule="evenodd"/>
</svg>