<?xml version="1.0"?><svg xmlns="http://www.w3.org/2000/svg" width="36" height="36" shape-rendering="geometricPrecision" text-rendering="geometricPrecision" image-rendering="optimizeQuality" fill-rule="evenodd" clip-rule="evenodd" viewBox="0 0 36 36"><path fill="#010101" d="m-0.1-0.1h36v36h-36v-36z"></path><path fill="#77797f" d="m17.6 4.8c-0.2 0.2-0.4 0.4-0.6 0.7 0.4 0 0.7 0.2 0.8 0.5-0.2 0.4-0.3 0.9-0.2 1.4h-0.2c-0.2-0.1-0.3-0.2-0.5-0.3-0.4 0.3-0.8 0.4-1.2 0.5 0.5-1 1-1.9 1.6-2.8 0.1-0.2 0.2-0.2 0.3 0z"></path><path fill="#2a2e3c" d="m17.2 6c0.2 0.3 0.3 0.6 0.3 0.9h-0.7c0.1-0.3 0.2-0.6 0.4-0.9z"></path><path fill="#4a4d57" d="m20.2 11c-0.6-1-1.1-1.9-1.6-3 0.1 0.2 0.2 0.2 0.2 0-0.2-0.3-0.3-0.6-0.3-1 0.7 1.3 1.4 2.5 2 3.8l0 0.2c-0.1-0.1-0.2-0.2-0.2-0.4-0.1 0.1-0.1 0.3-0.1 0.4z"></path><path fill="#919399" d="m17.4 7.4c-0.2 0.3-0.4 0.5-0.6 0.8-0.2 0.2-0.3 0.4-0.3 0.6-0.1 0.3-0.2 0.5-0.5 0.6 0.3-0.7 0.6-1.4 1.2-1.9-0.2-0.2-0.4-0.2-0.6 0-0.4 0.9-0.8 1.8-1.4 2.6-0.1 0.1-0.3 0.3-0.4 0.6-0.1 0.1-0.2 0.1-0.2 0 0.4-0.4 0.4-0.9 0.1-1.3 0.3-0.6 0.7-1.2 1-1.8 0.4-0.1 0.8-0.2 1.2-0.5 0.2 0.1 0.3 0.2 0.5 0.3z"></path><path fill="#d7d9e2" d="m16 9.4c0 0.2-0.1 0.4-0.2 0.6-0.1 0.1-0.3 0.2-0.3 0.4-0.8 1.3-1.5 2.6-2.2 3.9-0.1 0.5-0.3 0.9-0.6 1.3 0 0.2-0.1 0.4 0 0.5-0.3 0.1-0.5-0.1-0.6-0.3 0.2-0.3 0.3-0.6 0.4-0.9 0.9-1.6 1.8-3.2 2.7-4.8 0.6-0.8 1-1.7 1.4-2.6 0.2-0.2 0.4-0.2 0.6 0-0.6 0.5-0.9 1.2-1.2 1.9z"></path><path fill="#4e4e4f" d="m17.4 7.4h0.2c0.1 0.1 0.2 0.3 0.3 0.4 0 0.3 0.1 0.6 0.2 0.9-0.1 0.3 0 0.5 0.1 0.7l-0.3 0.2c0.2 0.1 0.3 0.2 0.5 0.2 0.1 0.1 0.1 0.2 0 0.3l0.6 0.4-0.5 0.1 0.2 0.4c0.1-0.1 0.1-0.2 0.3-0.1-0.2 0.1-0.3 0.2-0.5 0.3 0 0.1 0.1 0.1 0.1 0.2-0.7 0-1.5 0-2.2 0 0-0.2 0-0.4 0.2-0.5-0.1-0.7-0.1-1.4-0.1-2.1 0-0.2 0.1-0.4 0.3-0.6 0.2-0.3 0.4-0.5 0.6-0.8z"></path><path fill="#3f4146" d="m17.6 4.8c1.3 2.1 2.6 4.3 3.7 6.5-0.1-0.2-0.3-0.4-0.5-0.6-0.1 0.1-0.1 0.2-0.2 0.3 1.1 1.9 2.2 3.9 3.2 5.8 0.1 0.2 0.1 0.3 0 0.4-0.1-0.2-0.2-0.4-0.3-0.5 0.1 0.3 0 0.5-0.4 0.5 0.1-0.3 0.2-0.5 0.1-0.7-1.1-1.8-2.1-3.7-3-5.5 0-0.1 0-0.3 0-0.4 0.1 0.2 0.2 0.3 0.3 0.4l0-0.2c-0.6-1.3-1.3-2.5-2.1-3.8 0.1 0.4 0.2 0.7 0.4 1 0 0.2-0.1 0.2-0.2 0-0.2-0.2-0.5-0.5-0.7-0.9-0.1-0.3-0.1-0.7-0.1-1.1-0.1-0.3-0.4-0.5-0.8-0.5 0.2-0.3 0.4-0.5 0.6-0.7z"></path><path fill="#222225" d="m16.1 11.5c1 0 1.9 0 2.7 0.1-1 0-2 0-3 0.2-0.1 0-0.1 0.1-0.1 0.3-0.1-0.2-0.2-0.4-0.1-0.6h0.5z"></path><path fill="#4c505c" d="m18.6 8.7c1.4 2.6 2.8 5.1 4.2 7.7 0 0.2-0.1 0.4-0.4 0.4l0.2-0.2c-0.2-0.4-0.4-0.7-0.5-1-0.1 0.1-0.1 0.2-0.1 0.3-0.3-0.2-0.4-0.5-0.5-0.9 0.1 0 0.1 0 0.2-0.1l-3.5-6.5 0-0.1c0.1 0.1 0.3 0.3 0.4 0.4z"></path><path fill="#ededf4" d="m15.8 11.8h3v0.3h-1.3v2.9h-0.2c-0.2 0.1-0.3 0.1-0.4 0 0.1 0 0.2 0 0.2-0.1l0.1-1.2c0-0.4-0.1-0.8-0.3-1.2 0-0.1-0.1-0.2-0.2-0.2-0.3-0.1-0.7-0.1-1 0-0.1 0-0.1-0.1 0-0.2 0-0.2 0-0.3 0.1-0.3z"></path><path fill="#302f33" d="m17.7 15.1v-2.8h1.4v-0.5c0-0.1 0.1-0.2 0.1-0.3 0.2 0.3 0.2 0.7 0.1 1-0.4 0-0.8 0.1-1.2 0 0 0.9 0 1.8-0.1 2.7-0.2 0.2-0.3 0.2-0.3-0.1z"></path><path fill="#a2a4a8" d="m14.7 9.4c0.3 0.4 0.3 0.9-0.1 1.3 0 0.1 0.1 0.1 0.2 0 0.1-0.3 0.3-0.5 0.4-0.6-0.9 1.6-1.8 3.2-2.7 4.8 0-0.4 0.1-0.9 0.2-1.3 0.1-0.2 0.2-0.5 0.3-0.8-0.1 0-0.2-0.1-0.2-0.1 0.6-1.2 1.2-2.2 1.9-3.3z"></path><path fill="#898894" d="m19 11.5c0.1 0.1 0.1 0.1 0.1 0.3-0.1 0.1-0.2 0.2-0.1 0.4h-1.4c0 1 0 1.9-0.1 2.8v-2.9h1.3v-0.3h-3c1-0.2 2-0.2 3-0.2 0.1 0 0.2 0 0.2-0.1z"></path><path fill="#babfcd" d="m17.8 6c0 0.4 0 0.8 0.1 1.1 0.2 0.4 0.5 0.7 0.7 0.9 0.5 1.1 1 2 1.6 3 0.9 1.8 1.9 3.7 3 5.5 0.1 0.2 0 0.4-0.1 0.7-3.6 0-7.2 0-10.8-0.2 3.6 0.1 7.1 0 10.7 0 0.1-0.1 0.1-0.3 0.1-0.4-0.1 0.1-0.1 0.2-0.2 0.2 0-0.2 0-0.3-0.1-0.4-1.4-2.6-2.8-5.1-4.2-7.7-0.1-0.4-0.3-0.7-0.7-0.9-0.1-0.1-0.2-0.3-0.3-0.4-0.1-0.5 0-1 0.2-1.4z"></path><path fill="#05050e" d="m19.1 11.8v0.5h-1.4v2.8c-0.2 0.1-0.3 0-0.4-0.1h0.2c0.1-0.9 0.1-1.8 0.1-2.8h1.4c-0.1-0.2 0-0.3 0.1-0.4z"></path><path fill="#5e5e5f" d="m18.1 8.7c1.1 2 2.2 3.9 3.2 6-0.1-0.1-0.3-0.2-0.4-0.4l-0.1 0.2c0-0.2 0-0.3 0.1-0.4-0.3-0.5-0.6-1-1-1.4 0 0.1 0 0.2 0.1 0.3-0.1 0.1-0.1 0.1-0.2 0-0.1 0.2-0.2 0.4-0.1 0.6 0.2-0.1 0.3-0.1 0.5 0-0.1 0.2-0.1 0.3-0.2 0.5-0.2-0.1-0.3 0-0.3 0.2-0.1 0-0.2 0-0.3 0.1 0.2 0.1 0.4 0.2 0.6 0.2 0.1 0.3 0.1 0.6 0 1-0.2 0-0.3 0.1-0.5 0.2 0.2 0.1 0.4 0.1 0.5 0 0.1 0.1 0.1 0.2 0 0.3 0-0.1-0.1-0.1-0.1 0l1 0.2c0.4 0 0.8-0.1 1.1-0.3 0.1 0.1 0.1 0.2 0.1 0.4h-4.2c0.2-0.1 0.3-0.2 0.3-0.4 0.1 0.1 0.3 0.2 0.4 0.1v-1c-0.1 0-0.3 0-0.4 0.1 0-0.1 0-0.3 0-0.5 0.1 0 0.3 0 0.4-0.1-0.1 0-0.2 0-0.3-0.3-0.2-0.2-0.2-0.4 0-0.6 0.3-0.2 0.6-0.4 0.9-0.5 0-0.1 0-0.2-0.1-0.3-0.3 0.2-0.5 0.2-0.8 0.2-0.2 0.2-0.2 0.1 0-0.4l1.1-0.1c0.1-0.2 0.2-0.3 0.3-0.2l0.2-0.1c-0.2-0.3-0.3-0.5-0.4-0.8-0.1-0.1-0.3-0.1-0.4-0.2-0.1 0.1-0.2 0.1-0.1 0.2 0 0.1-0.1 0.1-0.2 0.1-0.8-0.1-1.7-0.1-2.7-0.1-0.1-0.1-0.2-0.1-0.4-0.1 0-0.2 0-0.4-0.1-0.5 0.2-0.3 0.2-0.6 0.2-0.9 0.1-0.2 0.2-0.4 0.2-0.6 0.3-0.1 0.4-0.3 0.5-0.6 0 0.7 0 1.4 0.1 2.1-0.2 0.1-0.2 0.3-0.2 0.5 0.7 0 1.5 0 2.2 0 0-0.1-0.1-0.1-0.1-0.2 0.2-0.1 0.3-0.2 0.5-0.3-0.2-0.1-0.2 0-0.3 0.1l-0.2-0.4 0.5-0.1-0.6-0.4c0.1-0.1 0.1-0.2 0-0.3-0.2 0-0.3-0.1-0.5-0.2l0.3-0.2c-0.1-0.2-0.2-0.4-0.1-0.7z"></path><path fill="#797b84" d="m17.9 7.8c0.4 0.2 0.6 0.5 0.7 0.9-0.1-0.1-0.3-0.3-0.4-0.4l0 0.1 3.5 6.5c-0.1 0.1-0.1 0.1-0.2 0.1 0-0.1-0.1-0.2-0.2-0.3-1-2.1-2.1-4-3.2-6-0.1-0.3-0.2-0.6-0.2-0.9z"></path><path fill="#868586" d="m15.8 10c0 0.3 0 0.6-0.2 0.9 0.1 0.1 0.1 0.3 0.1 0.5 0.2 0 0.3 0 0.4 0.1h-0.5c-0.1 0.2 0 0.4 0.1 0.6-0.1 0.1-0.1 0.2 0 0.2 0 0.1-0.1 0.1-0.1 0.2 0.1 0 0.2 0.1 0.2 0.2-0.1 0.5-0.1 1-0.1 1.5 0.1 0.8 0.2 1.4 0.3 2.1v0.1h-0.8c0-0.4 0-0.8 0-1.2l-0.2-0.8c0.2 0 0.4-0.2 0.5-0.4-0.2-0.2-0.3-0.5-0.4-0.8 0.2-0.3 0.3-0.6 0.3-0.9h-0.4c0-0.2 0.1-0.5 0.2-0.7 0.1 0.2 0.2 0.3 0.2 0.5l0.1-0.3c-0.1-0.2-0.2-0.4-0.4-0.6 0.3-0.2 0.4-0.5 0.4-0.8 0-0.2 0.2-0.3 0.3-0.4z"></path><path fill="#37373b" d="m21.3 11.3c0.3 0.3 0.5 0.7 0.7 1.1 0.5 1 1 2 1.6 3l-0.1 0.2c0.3 0.7 0.7 1.4 1.1 2.1-0.1 0-0.2 0.1-0.2 0.2-2.7 0.2-5.3 0.2-7.9 0 2.6 0.1 5.2 0 7.7-0.1 0.2-0.2 0.2-0.4 0-0.5-0.1 0.2-0.2 0.3-0.4 0.3-3.9-0.1-7.8-0.1-11.7-0.2 0-0.1 0-0.1 0.1-0.1 3.9 0.1 7.8 0.1 11.7 0-0.1 0-0.1-0.1-0.1-0.1 0.1-0.1 0.1-0.2 0-0.4-1-1.9-2.1-3.9-3.2-5.8 0.1-0.1 0.1-0.2 0.2-0.3 0.2 0.2 0.4 0.4 0.5 0.6z"></path><path fill="#6d6d6d" d="m15.8 12.7h0.7c-0.1 0.4-0.1 0.7-0.2 1.1 0.1 0.5 0 1-0.3 1.5 0.2 0.3 0.2 0.6 0 1-0.1-0.7-0.2-1.3-0.3-2.1 0-0.5 0-1 0.1-1.5z"></path><path fill="#545455" d="m17.9 16.4h-1.9v-0.1c0.2-0.4 0.2-0.7 0-1 0.3-0.5 0.4-1 0.3-1.5 0.1-0.4 0.1-0.7 0.2-1.1h-0.7c0-0.1-0.1-0.2-0.2-0.2 0-0.1 0.1-0.1 0.1-0.2 0.3-0.1 0.7-0.1 1 0 0.1 0 0.2 0.1 0.2 0.2v2.5c0.1 0.1 0.2 0.1 0.4 0 0.1 0.1 0.2 0.2 0.4 0.1 0 0.3 0.1 0.3 0.3 0.1 0.1-0.9 0.1-1.8 0.1-2.7 0.4 0.1 0.8 0 1.2 0 0.1-0.3 0.1-0.7-0.1-1 0 0.1-0.1 0.2-0.1 0.3 0-0.2 0-0.2-0.1-0.3-0.1-0.1 0-0.1 0.1-0.2 0.1 0.1 0.3 0.1 0.4 0.2 0.1 0.3 0.2 0.5 0.4 0.8l-0.2 0.1c-0.1-0.1-0.2 0-0.3 0.2l-1.1 0.1c-0.2 0.5-0.2 0.6 0 0.4 0.3 0 0.5 0 0.8-0.2 0.1 0.1 0.1 0.2 0.1 0.3-0.3 0.1-0.6 0.3-0.9 0.5-0.2 0.2-0.2 0.4 0 0.6 0.1 0.3 0.2 0.3 0.3 0.3-0.1 0.1-0.3 0.1-0.4 0.1 0 0.2 0 0.4 0 0.5 0.1-0.1 0.3-0.1 0.4-0.1v1c-0.1 0.1-0.3 0-0.4-0.1 0 0.2-0.1 0.3-0.3 0.4z"></path><path fill="#3a3c43" d="m16.9 12.5c0.2 0.4 0.3 0.8 0.3 1.2l-0.1 1.2c0 0.1-0.1 0.1-0.2 0.1v-2.5z"></path><path fill="#515151" d="m21.3 14.7c0.1 0.1 0.2 0.2 0.2 0.3 0.1 0.4 0.2 0.7 0.5 0.9v0.1c-0.3 0.2-0.7 0.3-1.1 0.3l-1-0.2c0-0.1 0.1-0.1 0.1 0 0.1-0.1 0.1-0.2 0-0.3-0.1 0.1-0.3 0.1-0.5 0 0.2-0.1 0.3-0.2 0.5-0.2 0.1-0.4 0.1-0.7 0-1-0.2 0-0.4-0.1-0.6-0.2 0.1-0.1 0.2-0.1 0.3-0.1 0-0.2 0.1-0.3 0.3-0.2 0.1-0.2 0.1-0.3 0.2-0.5-0.2-0.1-0.3-0.1-0.5 0-0.1-0.2 0-0.4 0.1-0.6 0.1 0.1 0.1 0.1 0.2 0-0.1-0.1-0.1-0.2-0.1-0.3 0.4 0.4 0.7 0.9 1 1.4-0.1 0.1-0.1 0.2-0.1 0.4l0.1-0.2c0.1 0.2 0.3 0.3 0.4 0.4z"></path><path fill="#7e7f87" d="m12.8 12.7c0 0 0.1 0.1 0.2 0.1-0.1 0.3-0.2 0.6-0.3 0.8-0.1 0.4-0.2 0.9-0.2 1.3-0.1 0.3-0.2 0.6-0.4 0.8 0.1 0.3 0.3 0.5 0.6 0.4v0.5l-0.5 0.1c-0.2-0.9-0.5-0.9-0.8 0 0.2 0.1 0.4 0.2 0.6 0.1-0.2 0.2-0.4 0.4-0.6 0.5 0.2 0.1 0.4 0 0.6 0l-0.1 0.2h-0.9c0-0.2 0.1-0.3 0.2-0.5l-0.2-0.5c0.1-0.1 0.2-0.2 0.4-0.4 0.1-0.3 0.2-0.6 0.5-0.9 0.1-0.2 0.2-0.5 0.2-0.9h-0.3c0.3-0.5 0.6-1.1 1-1.6z"></path><path fill="#aaaaab" d="m15.5 10.4c0 0.3-0.1 0.6-0.4 0.9 0.2 0.1 0.3 0.3 0.4 0.5l-0.1 0.3c0-0.2-0.1-0.3-0.2-0.5-0.1 0.2-0.2 0.5-0.2 0.7h0.4c0 0.3-0.1 0.6-0.3 0.9 0.1 0.3 0.2 0.6 0.4 0.8-0.1 0.2-0.3 0.4-0.5 0.4l0.2 0.8c0 0.4 0 0.8 0 1.2h0.8v0.2h-2.3c-0.1-0.3-0.3-0.3-0.5-0.1l-0.1-0.2c0.1-0.2 0.2-0.4 0.3-0.6 0 0.1 0.1 0.2 0.2 0.2 0.1-0.1 0.1-0.3 0.1-0.4-0.5-0.2-0.6-0.3-0.1-0.5 0.1-0.2 0.1-0.4 0.2-0.5-0.2 0-0.2-0.1-0.3-0.3 0 0.1-0.1 0.1-0.2 0.1 0.7-1.3 1.4-2.6 2.2-3.9z"></path><path fill="#8f9192" d="m13.7 16.6c-0.2 0-0.3 0.1-0.4 0.2l-0.6-0.2v-0.5c-0.1-0.1 0-0.3 0-0.5 0.3-0.4 0.5-0.8 0.6-1.3 0.1 0 0.2 0 0.2-0.1 0.1 0.2 0.1 0.3 0.3 0.3-0.1 0.1-0.1 0.3-0.2 0.5-0.5 0.2-0.4 0.3 0.1 0.5 0 0.1 0 0.3-0.1 0.4-0.1 0-0.2-0.1-0.2-0.2-0.1 0.2-0.2 0.4-0.3 0.6l0.1 0.2c0.2-0.2 0.4-0.2 0.5 0.1z"></path><path fill="#828389" d="m22.6 16.6h-6.6v-0.2h6.1c0-0.2 0-0.3-0.1-0.4v-0.1c0-0.1 0-0.2 0-0.3 0.2 0.3 0.4 0.6 0.6 1z"></path><path fill="#2c303c" d="m12.2 16.7l-0.2 0.1c-0.2 0.1-0.4 0-0.6-0.1 0.3-0.9 0.6-0.9 0.8 0z"></path><path fill="#7b808e" d="m22.8 16.4c0.1 0.1 0.1 0.2 0.1 0.4-3.2 0.2-6.4 0.2-9.6 0h9.1c0.3 0 0.4-0.2 0.4-0.4z"></path><path fill="#d2d7e5" d="m12.7 16.6l0.6 0.2c3.2 0.2 6.4 0.2 9.6 0 0.1 0 0.1-0.1 0.2-0.2 0 0.1 0 0.3-0.1 0.4-3.6 0-7.1 0.1-10.7 0-0.2 0-0.3 0.1-0.3 0.3-0.2 0-0.4 0.1-0.6 0 0.2-0.1 0.4-0.3 0.6-0.5l0.2-0.1 0.5-0.1z"></path><path fill="#3c3e49" d="m13.7 16.6h8.9l-0.2 0.2h-9.1c0.1-0.1 0.2-0.2 0.4-0.2z"></path><path fill="#141621" d="m23.8 17.2c0 0 0 0.1 0.1 0.1-3.9 0.1-7.8 0.1-11.7 0 3.7 0 7.3 0 10.9-0.1 0.4 0 0.5-0.2 0.4-0.5 0.1 0.1 0.2 0.3 0.3 0.5z"></path><path fill="#56575f" d="m12.3 17c3.6 0.2 7.2 0.2 10.8 0.2-3.6 0.1-7.2 0.1-10.9 0.1-0.1 0-0.1 0-0.1 0.1 3.9 0.1 7.8 0.1 11.7 0.2h-7.4c-1.6 0-3.1 0-4.5-0.1l0.1-0.2c0-0.2 0.1-0.3 0.3-0.3z"></path><path fill="#39383c" d="m11 17.5h0.9c1.4 0.1 2.9 0.1 4.5 0.1-0.4 0.1-0.7 0.2-0.9 0.3h-0.1c-1.3 0.1-2.6 0-3.9-0.1 0.1 0 0.1-0.1 0.1-0.1-0.2-0.1-0.4-0.1-0.6-0.2z"></path><path fill="#282629" d="m16.5 17.9h-1c0.2-0.1 0.5-0.2 0.9-0.3h7.4c0.2 0 0.3-0.1 0.4-0.3 0.2 0.1 0.2 0.3 0 0.5-2.5 0.1-5.1 0.2-7.7 0.1z"></path><path fill="#696969" d="m11.8 14.3h0.3c0 0.4-0.1 0.7-0.2 0.9-0.3 0.3-0.4 0.6-0.5 0.9-0.2 0.2-0.3 0.3-0.4 0.4l0.2 0.5c-0.1 0.2-0.2 0.3-0.2 0.5 0.2 0.1 0.4 0.1 0.6 0.2 0 0 0 0.1-0.1 0.1 1.3 0.1 2.6 0.2 3.9 0.1l-0.2 0.3c-1.8 0-3.6 0-5.4-0.1-0.1-0.2 0-0.4 0.1-0.6 0.6-1 1.3-2.1 1.9-3.2z"></path><path fill="#5a5a5b" d="m22 12.4c1 1.6 2 3.2 2.9 4.9 0.2 0.2 0.2 0.5 0.2 0.9h-9.9l0.2-0.3h1.1c2.6 0.2 5.2 0.2 7.9 0 0-0.1 0.1-0.2 0.2-0.2-0.4-0.7-0.8-1.4-1.1-2.1l0.1-0.2c-0.6-1-1.1-2-1.6-3z"></path><path fill="#212126" d="m3.4 20c0-0.4-0.1-0.7-0.1-0.9-0.8 0-1.7 0-2.6 0-0.1 0.2-0.1 0.3-0.2 0.4-0.2-0.3-0.1-0.5 0.2-0.6 0.9-0.1 1.8-0.1 2.6 0 0.3 0.1 0.4 0.3 0.4 0.6 0 0.3-0.1 0.4-0.3 0.5z"></path><path fill="#313138" d="m13.4 19.1l-0.6 0.2c-0.2-0.2-0.1-0.3 0.1-0.4 0.4-0.1 0.9-0.1 1.3 0-0.3 0-0.5 0.1-0.8 0.2z"></path><path fill="#a9a9ad" d="m22.9 18.8c0.1 0 0.2 0.1 0.2 0.2-0.4 0.5-0.5 0.5-0.2-0.2z"></path><path fill="#a3a3ab" d="m3.4 20c-0.1-0.2-0.3-0.4-0.4-0.6-0.2-0.1-0.4-0.1-0.6-0.1h-0.3c0 1 0 2 0 3 0.1 0.1 0.1 0.1 0.2 0.1 0.1 0.1 0.3 0.2 0.5 0.2-0.5 0.1-1.1 0.2-1.6 0.1 0.2-0.1 0.4-0.2 0.7-0.1 0-1.1 0-2.1-0.1-3.2-0.3-0.1-0.7-0.1-1.1-0.1v0.7c-0.2-0.1-0.2-0.3-0.2-0.5 0.1-0.1 0.1-0.2 0.2-0.4 0.9 0 1.8 0 2.6 0 0 0.2 0.1 0.5 0.1 0.9z"></path><path fill="#05070c" d="m16.7 19c0 1.1 0 2.2-0.1 3.3 0-1 0-2.1-0.1-3.1 0-0.1 0.1-0.2 0.2-0.2z"></path><path fill="#2f3037" d="m16.1 19.2c0.1 0 0.2 0 0.2 0.1 0.1 1.1 0.1 2.2 0.1 3.3-0.2-0.1-0.4 0-0.6 0.1 0 0 0.1 0.1 0.1 0.1 0 0 0 0.1-0.1 0.1-0.1-0.1-0.1-0.3-0.1-0.5h0.3c0-1.1 0-2.1 0.1-3.2z"></path><path fill="#a6a7af" d="m16.7 19c-0.1 0-0.2 0.1-0.2 0.2 0.1 1 0.1 2.1 0.1 3.1 0 0.1 0.1 0.2 0.2 0.1l0.4 0.2c-0.5 0.1-0.9 0.1-1.3 0.2 0 0-0.1-0.1-0.1-0.1 0.2-0.1 0.4-0.2 0.6-0.1 0-1.1 0-2.2-0.1-3.3 0-0.1-0.1-0.1-0.2-0.1-0.1-0.1-0.1-0.2 0.1-0.2 0.2-0.2 0.4-0.2 0.5 0z"></path><path fill="#404146" d="m16.7 19c0.1 1.1 0.2 2.3 0.1 3.4-0.1 0.1-0.2 0-0.2-0.1 0.1-1.1 0.1-2.2 0.1-3.3z"></path><path fill="#b3b4bc" d="m13.4 19.1c0.6 0 1.2 0 1.7 0.2 0.4 1.5-0.1 2.1-1.7 1.9 0 0.3 0 0.7 0.1 1 0.1 0.1 0.2 0.2 0.3 0.2 0.2 0.1 0.4 0.2 0.5 0.3l-0.2 0.1c-0.4-0.1-0.8-0.1-1.2 0-0.1 0-0.1-0.1-0.1-0.1 0.1-0.1 0.3-0.2 0.5-0.1 0-1.1 0-2.1 0-3.1-0.1 0-0.1-0.1-0.2-0.1-0.1-0.1-0.2-0.1-0.3-0.1l0.6-0.2z"></path><path fill="#3e4047" d="m13.7 19.3h0.1c-0.1 0.6 0 1.2 0.1 1.8-0.2 0-0.3-0.1-0.3-0.2 0.1-0.5 0.1-1.1 0.1-1.6z"></path><path fill="#121216" d="m13.8 19.3c1.2 0 1.5 0.5 1 1.6-0.3 0.1-0.6 0.2-0.9 0.2-0.1-0.6-0.2-1.2-0.1-1.8z"></path><path fill="#03050e" d="m13.7 19.3c0 0.5 0 1.1-0.1 1.6 0-0.5 0-1.1-0.2-1.6 0.1 0 0.2 0 0.3 0z"></path><path fill="#35373c" d="m31.3 20c-0.1 0-0.2 0.1-0.3 0.3-0.2 0-0.3-0.1-0.3-0.3 0.2-0.2 0.4-0.2 0.6 0z"></path><path fill="#19191c" d="m8.3 20.1c-1.3-0.4-1.8 0.1-1.7 1.3 0 0.5 0 0.9 0.2 1.3 0.4 0 0.8 0.1 1.1 0.1 0.1 0 0.1 0.1 0.2 0.1 0.2-0.1 0.4-0.2 0.5-0.3 0.3 0 0.5-0.1 0.8-0.2l-0.1 0.3c0 0 0.1 0.1 0.3 0.1 0.3-0.1 0.7-0.1 1-0.2 0.1 0.1 0.2 0.2 0.1 0.4-0.4 0-0.8 0-1.2 0-0.3-0.1-0.5-0.2-0.7-0.3-0.2 0.2-0.4 0.3-0.6 0.5-0.3-0.2-0.6-0.3-1-0.3-0.1 0.1-0.1 0.2-0.2 0.3-0.3-0.1-0.4-0.2-0.1-0.2-0.1-0.2-0.3-0.4-0.5-0.4l0.2-0.1c-0.2-0.2-0.2-0.4-0.3-0.6 0-0.4-0.1-0.8-0.2-1.1-0.2-0.1-0.3-0.1-0.5-0.2 0.1-0.1 0.2-0.3 0.3-0.5 0.4-0.1 0.9-0.2 1.4-0.4 0.4 0 0.7 0.1 1 0.4z"></path><path fill="#a2a3a9" d="m32.8 20.1l-0.3 0.2h-0.5c-0.1 0-0.2 0-0.2-0.1 0.3-0.1 0.6-0.2 1-0.1z"></path><path fill="#b2b2b8" d="m5.8 20c0.1 0 0.1 0 0.1 0.1-0.1 0.2-0.2 0.4-0.3 0.5v-0.3c-0.2 0-0.4 0-0.6 0.1-0.1-0.1-0.1-0.2-0.1-0.3 0.3 0 0.6 0 0.9-0.1z"></path><path fill="#292930" d="m23.1 20c0.1 0 0.2 0.1 0.2 0.2 0.1 0.8 0.1 1.5-0.1 2.2 0 0-0.1 0-0.1-0.1-0.1-0.8-0.1-1.5 0-2.3z"></path><path fill="#b6b7be" d="m8.3 20.1c0 0 0.1 0 0.1 0.1 0.2 0.6 0.3 1.2 0.2 1.9-0.2 0.3-0.4 0.5-0.7 0.7-0.3 0-0.7-0.1-1.1-0.1-0.2-0.4-0.2-0.8-0.2-1.3-0.1-1.2 0.4-1.7 1.7-1.3z"></path><path fill="#313236" d="m21.3 20.2v2.2c-0.1 0-0.1 0-0.1-0.1-0.1-0.7-0.1-1.5 0-2.2 0.1 0 0.1 0 0.1 0.1z"></path><path fill="#a7a8ae" d="m23.1 20c-0.1 0.8-0.1 1.5 0 2.3 0 0.1 0.1 0.1 0.1 0.1 0.2 0.1 0.3 0.2 0.5 0.2-0.5 0.1-1 0.1-1.5 0.2 0.1-0.2 0.3-0.3 0.6-0.2 0-0.8 0-1.5-0.1-2.2 0 0-0.1-0.1-0.1-0.1-0.3 0-0.3-0.1-0.3-0.3 0.3 0.1 0.5 0.1 0.8 0z"></path><path fill="#313338" d="m4.2 20.3c0.1 0 0.1 0.1 0.2 0.1 0 0.7 0.1 1.4 0 2.2-0.2-0.1-0.3 0-0.5 0.1 0 0 0 0.1 0.1 0.1 0 0-0.1 0.1-0.1 0.1-0.1-0.1-0.2-0.3-0.1-0.5h0.3c0-0.7 0-1.4 0.1-2.1z"></path><path fill="#030205" d="m7.6 20.2c0.2 0 0.3 0.1 0.4 0.2 0.2 0.6 0.2 1.1 0.1 1.7-0.2 0.3-0.5 0.4-0.8 0.3h-0.2c-0.1-0.6-0.1-1.2 0-1.8 0.1-0.1 0.3-0.3 0.5-0.4z"></path><path fill="#00000a" d="m9.7 20.4c0.1 0.4 0.1 0.7 0.1 1.1 0 0.4 0 0.7-0.2 1.1 0.1-0.7 0.2-1.5 0.1-2.2z"></path><path fill="#1f2023" d="m22.6 20.3c0 0 0.1 0.1 0.1 0.1 0.1 0.7 0.1 1.4 0.1 2.2-0.3-0.1-0.5 0-0.6 0.2-0.1 0-0.1-0.1-0.1-0.1-0.4 0.4-0.7 0.4-1.1 0.1-0.1-0.2-0.2-0.3-0.1-0.5 0.1 0.1 0.1 0.2 0.1 0.4 0.3 0 0.6 0 0.8-0.1 0.2-0.2 0.5-0.2 0.8-0.2v-2.1z"></path><path fill="#2d2f32" d="m28.2 20c0.1 0.6 0.1 1.3 0.2 2 0 0.1-0.1 0.2-0.1 0.3-0.1 0-0.1-0.1-0.2-0.2-0.1-0.7 0-1.4 0.1-2.1z"></path><path fill="#3f3f48" d="m9.6 20.3c0.1 0 0.1 0 0.1 0.1 0.1 0.7 0 1.5-0.1 2.2-0.1 0-0.2 0.1-0.3 0.1l0.1-0.3c0.1 0 0.1 0 0.2-0.1 0-0.6 0-1.3 0-2z"></path><path fill="#393b40" d="m21 19.3c0 0.3-0.1 0.7-0.2 1 0 0.1 0 0.1 0.1 0.2-0.1 0.6-0.2 1.3-0.2 1.9-0.1-0.7-0.1-1.4-0.1-2.1-0.5-0.2-0.5-0.3 0-0.5 0.1-0.2 0.2-0.4 0.4-0.5z"></path><path fill="#b5b5be" d="m21 19.3c0.2 0.2 0.3 0.4 0.2 0.7 0.2 0 0.5 0 0.7 0-0.2 0.2-0.4 0.2-0.6 0.2 0-0.1 0-0.1-0.1-0.1-0.1 0.7-0.1 1.5 0 2.2 0 0.1 0 0.1 0.1 0.1 0.2 0.1 0.3 0.2 0.5 0.2-0.2 0.1-0.5 0.1-0.8 0.1 0-0.2 0-0.3-0.1-0.4v-1.8c-0.1-0.1-0.1-0.1-0.1-0.2 0.1-0.3 0.2-0.7 0.2-1z"></path><path fill="#2d2f35" d="m27.6 20.3c0.1 0 0.1 0.1 0.2 0.1 0 0.7 0.1 1.4 0.2 2.2-0.2-0.1-0.3-0.1-0.3-0.3-0.1-0.6-0.1-1.3-0.1-2z"></path><path fill="#aeb0b6" d="m29.9 20c-0.2 0.8-0.2 1.5-0.1 2.3 0.1 0.1 0.1 0.1 0.2 0.1-0.2 0.4-0.4 0.4-0.6 0.2 0.1-0.8 0.2-1.5 0.1-2.2-0.1 0-0.1-0.1-0.2-0.1l-0.3-0.2c0.3 0 0.6-0.1 0.9-0.1z"></path><path fill="#01020a" d="m31.4 22.2v-1.7c0.1-0.1 0.2-0.1 0.3 0-0.1 0.6-0.2 1.2-0.3 1.7z"></path><path fill="#303137" d="m7.6 20.2c-0.2 0.1-0.4 0.3-0.5 0.4-0.1 0.6-0.1 1.2 0 1.8-0.1 0-0.2-0.1-0.2-0.2-0.3-0.7-0.2-1.4 0.2-1.9 0.2-0.1 0.3-0.1 0.5-0.1z"></path><path fill="#29292e" d="m26.2 22.6c-0.2-0.6-0.3-1.3-0.3-2-0.2-0.1-0.3 0-0.4 0.2-0.2-0.2-0.2-0.3 0.1-0.3-0.1-0.1-0.2-0.1-0.2-0.2 0.3-0.1 0.6 0 0.8 0.3 0.1 0.7 0.1 1.3 0 2z"></path><path fill="#2b2c31" d="m29.9 20c0 0 0.1 0.1 0.1 0.2 0.1 0.8 0.1 1.5 0 2.2-0.1 0-0.1 0-0.2-0.1-0.1-0.8-0.1-1.5 0.1-2.3z"></path><path fill="#2d2d33" d="m8 20.4c0.3 0.1 0.4 0.2 0.4 0.5 0.2 0.6 0.1 1.1-0.4 1.6-0.2 0.1-0.5 0.1-0.7-0.1 0.3 0.1 0.6 0 0.8-0.3 0.1-0.6 0.1-1.1-0.1-1.7z"></path><path fill="#303137" d="m8.4 20.2c0.4 0.3 0.6 0.7 0.5 1.2 0 0.4-0.1 0.8-0.3 1.2-0.1 0.1-0.3 0.2-0.5 0.3-0.1 0-0.1-0.1-0.2-0.1 0.3-0.2 0.5-0.4 0.6-0.7 0.2-0.7 0.1-1.3-0.1-1.9z"></path><path fill="#b9bbc0" d="m11.6 20.1c0.1 0.7 0.2 1.5 0.2 2.2 0.1 0.1 0.2 0.2 0.3 0.3-0.2 0-0.3 0.1-0.5 0.2-0.1 0-0.1 0-0.2-0.1 0.1-0.1 0.2-0.1 0.2-0.2 0-0.7-0.1-1.4-0.3-2-0.2-0.2-0.4-0.2-0.7-0.2-0.1 0-0.2 0-0.2-0.1 0.4-0.1 0.8-0.2 1.2-0.1z"></path><path fill="#1d1d20" d="m19.4 20.1c-0.3 0-0.6-0.1-0.8-0.1-0.5 0-0.7 0.2-0.7 0.6 0.4-0.5 0.8-0.5 1.3-0.2 0.1 0.3 0.1 0.6 0 0.9-1.2-0.2-1.6 0.2-1.4 1.4-0.6-0.5-0.6-1 0-1.5-0.3-0.3-0.3-0.7 0-1.1 0.5-0.5 1.1-0.5 1.6 0z"></path><path fill="#c1c3cc" d="m24.8 20.1c-0.1 0.7-0.1 1.5 0 2.2 0 0.1 0.1 0.2 0.2 0.1 0 0.1 0.1 0.2 0.1 0.2l-1 0.2c0.1-0.2 0.2-0.3 0.5-0.2 0-0.7 0-1.4-0.1-2.1 0 0-0.1-0.1-0.1-0.1-0.1-0.1-0.3-0.2-0.4-0.3 0.3 0 0.5-0.1 0.7-0.1 0.1 0 0.1 0 0.1 0.1z"></path><path fill="#86868c" d="m32.9 20.1c0.1 0 0.2 0.1 0.2 0.2v1.9c-0.1-0.7-0.1-1.4-0.2-2.1z"></path><path fill="#28292e" d="m34.6 20.2c0.2 0 0.3 0.1 0.4 0.3 0 0.7 0.1 1.3 0 1.9-0.1 0.1-0.2 0-0.2-0.1-0.1-0.7-0.1-1.4-0.2-2.1z"></path><path fill="#27292e" d="m11.3 20.5c0.2 0.6 0.3 1.3 0.3 2 0 0.1-0.1 0.1-0.2 0.2-0.1-0.7-0.1-1.4-0.2-2.1 0-0.1 0.1-0.1 0.1-0.1z"></path><path fill="#b6b7bd" d="m34.6 20.2c0.1 0.7 0.1 1.4 0.2 2.1 0 0.1 0.1 0.2 0.2 0.1v0.2l-0.4 0.2c-0.1 0-0.2 0-0.2-0.1 0.1-0.7 0.1-1.4 0-2.2 0 0-0.1-0.1-0.1-0.1-0.3-0.1-0.6-0.1-0.8 0-0.1 0-0.2-0.1-0.1-0.2 0.4-0.2 0.8-0.2 1.2 0z"></path><path fill="#2e2f34" d="m15.1 19.3c0.6 0.5 0.6 1 0.2 1.7-0.4 0.4-0.9 0.5-1.5 0.5v0.9c-0.1 0-0.2-0.1-0.3-0.2-0.1-0.3-0.1-0.7-0.1-1 1.6 0.2 2.1-0.4 1.7-1.9z"></path><path fill="#34343c" d="m24.4 20.4c0 0 0.1 0.1 0.1 0.1 0.1 0.7 0.1 1.4 0.1 2.1-0.3-0.1-0.4 0-0.5 0.2-0.1 0.1-0.1 0.1-0.2-0.1 0-0.1 0.1-0.2 0.2-0.3 0.1-0.6 0.2-1.3 0.3-2z"></path><path fill="#2a2c31" d="m24.8 20.1l0.2 0.2h0.3c-0.3 0.7-0.3 1.4-0.3 2.1-0.1 0.1-0.2 0-0.2-0.1-0.1-0.7-0.1-1.5 0-2.2z"></path><path fill="#3b3c43" d="m31.6 20.2h0.2c0 0.1 0.1 0.1 0.2 0.1l-0.2 0.3c0 0.7 0 1.3-0.1 1.8-0.1 0-0.2-0.1-0.3-0.2 0.1-0.5 0.2-1.1 0.3-1.7-0.1-0.1-0.2-0.1-0.3 0 0.1-0.1 0.1-0.2 0.2-0.3z"></path><path fill="#c5c4cb" d="m26.5 20.3c-0.1 0.6-0.2 1.3-0.1 1.9 0.1 0.2 0.2 0.2 0.3 0.2 0 0.2-0.2 0.3-0.3 0.4-0.2 0-0.2-0.1-0.2-0.2 0.1-0.7 0.1-1.3 0-2-0.2-0.3-0.5-0.4-0.8-0.3h-0.4c0-0.1 0.1-0.1 0.1-0.2 0.5 0 0.9 0 1.3 0 0 0.1 0.1 0.1 0.1 0.2z"></path><path fill="#25262b" d="m5.8 20c-0.3 0.1-0.6 0.1-0.9 0.1 0 0.1 0 0.2 0.1 0.3-0.1 0.7-0.1 1.4-0.1 2-0.1 0-0.2 0-0.3-0.2 0-0.7 0-1.5 0-2.2-0.2 0-0.4 0.1-0.6 0.1 0.1 0.1 0.1 0.1 0.1 0.2-0.3 0-0.4-0.2-0.3-0.4 0.6-0.1 1.1-0.2 1.7-0.2 0.1 0.1 0.2 0.2 0.3 0.3z"></path><path fill="#a8aab2" d="m19.4 20.1c0 0.8 0.1 1.7 0.3 2.5 0 0.1-0.2 0.1-0.3 0.2-0.1-0.5-0.1-0.9-0.2-1.3-0.4-0.1-0.8-0.1-1.2 0.2-0.1 0.7 0.2 0.9 1 0.6 0.1 0.1 0.1 0.2 0 0.4h-1.2c-0.2-1.2 0.2-1.6 1.4-1.4 0.1-0.3 0.1-0.6 0-0.9-0.5-0.3-0.9-0.3-1.3 0.2 0-0.4 0.2-0.6 0.7-0.6 0.2 0 0.5 0.1 0.8 0.1z"></path><path fill="#27272b" d="m34.3 20.4c0 0 0.1 0.1 0.1 0.1 0.1 0.8 0.1 1.5 0 2.2-0.1-0.7-0.2-1.4-0.3-2.1 0.1-0.1 0.1-0.1 0.2-0.2z"></path><path fill="#28282c" d="m2.4 19.3c0.1 1.1 0 2.1-0.1 3.1-0.1 0-0.1 0-0.2-0.1 0-1 0-2 0-3h0.3z"></path><path fill="#010107" d="m31.1 20.4c0.1 0.4 0.1 0.7 0.1 1.1 0 0.4-0.1 0.7-0.2 1.1 0.1-0.7 0.1-1.5 0.1-2.2z"></path><path fill="#babcc2" d="m4.9 22.4c0.1 0.1 0.2 0.2 0.3 0.2-0.3 0-0.6 0.1-0.9 0.2h-0.3c-0.1 0-0.1-0.1-0.1-0.1 0.2-0.1 0.3-0.2 0.5-0.1 0.1-0.8 0-1.5 0-2.2-0.1 0-0.1-0.1-0.2-0.1h-0.1c0-0.1 0-0.1-0.1-0.2 0.2 0 0.4-0.1 0.6-0.1 0 0.7 0 1.5 0 2.2 0.1 0.2 0.2 0.2 0.3 0.2z"></path><path fill="#353539" d="m26.5 20.3c0.1 0 0.1 0.1 0.2 0.1 0 0.7 0 1.4 0 2-0.1 0-0.2 0-0.3-0.2-0.1-0.6 0-1.3 0.1-1.9z"></path><path fill="#404045" d="m31 20.3c0.1 0 0.1 0 0.1 0.1 0 0.7 0 1.5-0.1 2.2-0.1 0-0.2 0.1-0.3 0.1l0.1-0.3c0 0 0.1 0 0.1-0.1 0.1-0.6 0.1-1.3 0.1-2z"></path><path fill="#c7c8cd" d="m32.8 20.1h0.1c0.1 0.7 0.1 1.4 0.2 2.1 0 0.2 0.1 0.2 0.3 0.2 0 0.1 0 0.2 0.1 0.2-0.3 0.1-0.5 0.1-0.7 0.1 0.1-0.7 0.1-1.4 0.1-2.1-0.1-0.1-0.2-0.1-0.3-0.2 0-0.1-0.1-0.1-0.1-0.1l0.3-0.2z"></path><path fill="#333438" d="m33.4 20.2c-0.1 0.1 0 0.2 0.1 0.2-0.1 0.7-0.2 1.4-0.1 2-0.2 0-0.3 0-0.3-0.2v-1.9l0.3-0.1z"></path><path fill="#26262c" d="m13.1 19.4c0.1 0 0.1 0.1 0.2 0.1 0 1 0 2 0 3.1-0.2-0.1-0.4 0-0.5 0.1 0 0 0 0.1 0.1 0.1-0.2 0.1-0.3 0.2-0.4 0.3-0.3-0.1-0.6-0.3-0.9-0.3 0.2-0.1 0.3-0.2 0.5-0.2-0.1-0.1-0.2-0.2-0.3-0.3 0-0.7-0.1-1.5-0.2-2.2 0.2 0.1 0.4 0.2 0.4 0.4 0.1 0.6 0.1 1.2 0.2 1.7 0.2 0.2 0.5 0.3 0.8 0.2 0-1 0-2 0.1-3z"></path><path fill="#2d2d33" d="m10.2 20.2h0.2c0 0.1 0.1 0.1 0.2 0.1l-0.1 0.3c-0.1 0.7-0.1 1.3-0.2 1.8-0.1 0-0.1 0-0.2-0.1-0.1-0.7 0-1.4 0.1-2.1z"></path><path fill="#2e2f33" d="m29.3 20.3c0.1 0 0.1 0.1 0.2 0.1 0.1 0.7 0 1.4-0.1 2.2h-0.1c0-0.1-0.1-0.2-0.2-0.2 0.2-0.6 0.3-1.4 0.2-2.1z"></path><path fill="#b5b6be" d="m28.2 20c-0.1 0.7-0.2 1.4-0.1 2.1 0.1 0.1 0.1 0.2 0.2 0.2 0.2 0.1 0.5 0.2 0.8 0.1 0.1 0 0.2 0.1 0.2 0.2-0.4 0.1-0.9 0.1-1.3 0-0.1-0.8-0.2-1.5-0.2-2.2-0.1 0-0.1-0.1-0.2-0.1 0 0-0.1 0-0.1-0.1 0.2-0.1 0.4-0.2 0.7-0.2z"></path><path fill="#aeb0b9" d="m10.2 20.2c-0.1 0.7-0.2 1.4-0.1 2.1 0.1 0.1 0.1 0.1 0.2 0.1 0.1 0.1 0.2 0.1 0.3 0.2-0.3 0.1-0.7 0.1-1 0.2-0.2 0-0.3-0.1-0.3-0.1 0.1 0 0.2-0.1 0.3-0.1 0.2-0.4 0.2-0.7 0.2-1.1 0-0.4 0-0.7-0.1-1.1 0-0.1 0-0.1-0.1-0.1-0.1 0-0.1-0.1-0.2-0.2 0.2 0 0.5-0.1 0.7-0.1 0.1 0 0.1 0.1 0.1 0.2z"></path><path fill="#afb0b8" d="m31.3 20c0.2 0 0.3 0 0.3 0.2-0.1 0.1-0.1 0.2-0.2 0.3v1.7c0.1 0.1 0.2 0.2 0.3 0.2 0.1 0.1 0.2 0.1 0.3 0.2-0.3 0.1-0.7 0.1-1.1 0.2-0.1 0-0.2-0.1-0.2-0.1 0.1 0 0.2-0.1 0.3-0.1 0.1-0.4 0.2-0.7 0.2-1.1 0-0.4 0-0.7-0.1-1.1 0-0.1 0-0.1-0.1-0.1 0.1-0.2 0.2-0.3 0.3-0.3z"></path><path fill="#333438" d="m5.2 22.6c0.1 0 0.2 0.1 0.1 0.3-0.3 0-0.7 0-1-0.1 0.3-0.1 0.6-0.2 0.9-0.2z"></path><path fill="#1d1e21" d="m19.4 20.1c0.2 0.1 0.4 0.3 0.4 0.5 0 0.8 0.1 1.6 0.3 2.4-0.3 0-0.5 0-0.6 0.2-0.2-0.2-0.4-0.4-0.5-0.5 0.1-0.2 0.1-0.3 0-0.4-0.8 0.3-1.1 0.1-1-0.6 0.4-0.3 0.8-0.3 1.2-0.2 0.1 0.4 0.1 0.8 0.2 1.3 0.1-0.1 0.3-0.1 0.3-0.2-0.2-0.8-0.3-1.7-0.3-2.5z"></path><path fill="#35363a" d="m26.7 22.4c0.2 0.1 0.3 0.2 0.3 0.4-0.2 0.1-0.4 0.1-0.6 0 0.1-0.1 0.3-0.2 0.3-0.4z"></path><path fill="#323339" d="m35 22.6c0.3-0.1 0.4 0 0.3 0.2-0.3 0.1-0.5 0.1-0.7 0l0.4-0.2z"></path><path fill="#1b1b1e" d="m2.8 22.6c0.1 0.1 0.1 0.2 0 0.4-0.6 0-1.1 0-1.7 0-0.3-0.1-0.3-0.3 0.1-0.5 0.1-0.1 0.3-0.1 0.4-0.1 0.1-0.8 0-1.7-0.1-2.5-0.2-0.6-0.4-0.6-0.6 0.1-0.1 0.1-0.1 0.1-0.2 0v-0.7c0.4 0 0.8 0 1.1 0.1 0.1 1.1 0.1 2.1 0.1 3.2-0.3-0.1-0.5 0-0.7 0.1 0.5 0.1 1.1 0 1.6-0.1z"></path><path fill="#1e1e21" d="m30 22.4c0.2 0.1 0.5 0.1 0.8 0l-0.1 0.3c0 0 0.1 0.1 0.2 0.1 0.4-0.1 0.8-0.1 1.1-0.2 0.1 0.1 0.1 0.2 0.1 0.4-0.7 0-1.4 0-2.1 0-0.4 0-0.6-0.1-0.6-0.4 0.2 0.2 0.4 0.2 0.6-0.2z"></path><path fill="#1f1f23" d="m32.6 20.4c0.1 0.1 0.2 0.1 0.3 0.2 0 0.7 0 1.4-0.1 2.1 0.2 0 0.4 0 0.7-0.1-0.1 0-0.1-0.1-0.1-0.2 0.1 0 0.2 0 0.2-0.2 0.4 0.8 0.1 1-0.7 0.7-0.1 0-0.2-0.1-0.3-0.2 0-0.8 0-1.5 0-2.3z"></path></svg>