<svg xmlns="http://www.w3.org/2000/svg" version="1.1" width="320px" height="320px" style="shape-rendering:geometricPrecision; text-rendering:geometricPrecision; image-rendering:optimizeQuality; fill-rule:evenodd; clip-rule:evenodd" xmlns:xlink="http://www.w3.org/1999/xlink">
<g><path style="opacity:1" fill="#010101" d="M -0.5,-0.5 C 106.167,-0.5 212.833,-0.5 319.5,-0.5C 319.5,106.167 319.5,212.833 319.5,319.5C 212.833,319.5 106.167,319.5 -0.5,319.5C -0.5,212.833 -0.5,106.167 -0.5,-0.5 Z"/></g>
<g><path style="opacity:1" fill="#77797f" d="M 156.5,42.5 C 154.26,44.1068 152.594,46.2735 151.5,49C 154.843,49.0888 157.176,50.5888 158.5,53.5C 156.577,57.0293 155.911,61.0293 156.5,65.5C 155.833,65.5 155.167,65.5 154.5,65.5C 153.228,64.5657 151.728,63.899 150,63.5C 146.758,65.5912 143.258,66.9246 139.5,67.5C 143.901,59.0323 148.568,50.699 153.5,42.5C 154.614,41.2241 155.614,41.2241 156.5,42.5 Z"/></g>
<g><path style="opacity:1" fill="#2a2e3c" d="M 152.5,53.5 C 154.856,55.5573 155.856,58.224 155.5,61.5C 153.5,61.5 151.5,61.5 149.5,61.5C 149.957,58.5944 150.957,55.9278 152.5,53.5 Z"/></g>
<g><path style="opacity:1" fill="#4a4d57" d="M 179.5,97.5 C 174.328,89.1597 169.662,80.4931 165.5,71.5C 166.363,72.463 167.03,72.463 167.5,71.5C 165.71,68.6116 164.543,65.6116 164,62.5C 170.551,73.4025 176.718,84.5691 182.5,96C 182.333,96.5 182.167,97 182,97.5C 181.085,96.6721 180.419,95.6721 180,94.5C 179.517,95.448 179.351,96.448 179.5,97.5 Z"/></g>
<g><path style="opacity:1" fill="#919399" d="M 154.5,65.5 C 153.263,68.2446 151.43,70.5779 149,72.5C 147.878,74.4068 147.045,76.4068 146.5,78.5C 145.872,80.6616 144.539,82.3282 142.5,83.5C 144.536,77.0983 147.869,71.4317 152.5,66.5C 150.865,65.3192 149.198,65.3192 147.5,66.5C 144.233,74.6812 140.233,82.3478 135.5,89.5C 133.821,90.9997 132.488,92.833 131.5,95C 130.833,95.6667 130.167,95.6667 129.5,95C 132.925,91.251 133.259,87.4177 130.5,83.5C 133.467,78.1867 136.467,72.8533 139.5,67.5C 143.258,66.9246 146.758,65.5912 150,63.5C 151.728,63.899 153.228,64.5657 154.5,65.5 Z"/></g>
<g><path style="opacity:1" fill="#d7d9e2" d="M 142.5,83.5 C 142.107,85.2838 141.441,86.9505 140.5,88.5C 139.122,89.5451 138.122,90.8784 137.5,92.5C 130.882,104.073 124.549,115.74 118.5,127.5C 117.116,131.287 115.283,134.954 113,138.5C 112.506,140.134 112.34,141.801 112.5,143.5C 109.873,143.707 108.207,142.54 107.5,140C 109.075,137.602 110.408,135.102 111.5,132.5C 119.21,118.087 127.21,103.754 135.5,89.5C 140.233,82.3478 144.233,74.6812 147.5,66.5C 149.198,65.3192 150.865,65.3192 152.5,66.5C 147.869,71.4317 144.536,77.0983 142.5,83.5 Z"/></g>
<g><path style="opacity:1" fill="#4e4e4f" d="M 154.5,65.5 C 155.167,65.5 155.833,65.5 156.5,65.5C 157.512,66.8717 158.512,68.205 159.5,69.5C 159.401,72.2372 159.735,74.9039 160.5,77.5C 160.318,79.5914 160.652,81.5914 161.5,83.5C 160.833,84.1667 160.167,84.8333 159.5,85.5C 160.736,86.3567 162.069,87.0234 163.5,87.5C 164.711,88.2739 164.711,89.1072 163.5,90C 165.167,91.1667 166.833,92.3333 168.5,93.5C 167.167,93.8333 165.833,94.1667 164.5,94.5C 165,95.5 165.5,96.5 166,97.5C 166.718,96.5494 167.551,96.3828 168.5,97C 167.241,97.9234 165.908,98.7568 164.5,99.5C 164.709,100.086 165.043,100.586 165.5,101C 158.842,101.5 152.175,101.666 145.5,101.5C 145.383,99.5165 146.05,97.8498 147.5,96.5C 146.934,90.4323 146.601,84.4323 146.5,78.5C 147.045,76.4068 147.878,74.4068 149,72.5C 151.43,70.5779 153.263,68.2446 154.5,65.5 Z"/></g>
<g><path style="opacity:1" fill="#3f4146" d="M 156.5,42.5 C 168.292,61.3143 179.292,80.6477 189.5,100.5C 188.017,98.9062 186.517,97.2395 185,95.5C 184.308,96.0253 183.808,96.6919 183.5,97.5C 192.998,114.703 202.498,132.036 212,149.5C 212.74,150.749 212.573,151.749 211.5,152.5C 210.928,151.027 210.095,149.693 209,148.5C 210.012,151.341 208.845,152.674 205.5,152.5C 206.511,150.598 206.678,148.598 206,146.5C 196.619,130.4 187.785,114.067 179.5,97.5C 179.351,96.448 179.517,95.448 180,94.5C 180.419,95.6721 181.085,96.6721 182,97.5C 182.167,97 182.333,96.5 182.5,96C 176.718,84.5691 170.551,73.4025 164,62.5C 164.543,65.6116 165.71,68.6116 167.5,71.5C 167.03,72.463 166.363,72.463 165.5,71.5C 163.197,69.022 161.031,66.3553 159,63.5C 158.502,60.1832 158.335,56.8499 158.5,53.5C 157.176,50.5888 154.843,49.0888 151.5,49C 152.594,46.2735 154.26,44.1068 156.5,42.5 Z"/></g>
<g><path style="opacity:1" fill="#222225" d="M 143.5,102.5 C 151.684,102.174 159.684,102.508 167.5,103.5C 158.318,103.173 149.318,103.507 140.5,104.5C 139.596,105.209 139.263,106.209 139.5,107.5C 138.549,106.081 138.216,104.415 138.5,102.5C 140.167,102.5 141.833,102.5 143.5,102.5 Z"/></g>
<g><path style="opacity:1" fill="#4c505c" d="M 165.5,77.5 C 177.819,100.074 190.152,122.741 202.5,145.5C 202.912,147.973 201.912,149.306 199.5,149.5C 199.833,148.833 200.167,148.167 200.5,147.5C 199.261,144.411 197.761,141.411 196,138.5C 195.517,139.448 195.351,140.448 195.5,141.5C 193.163,139.493 191.829,136.827 191.5,133.5C 192.043,133.44 192.376,133.107 192.5,132.5C 182.167,113.167 171.833,93.8333 161.5,74.5C 161.667,74.1667 161.833,73.8333 162,73.5C 162.949,75.0931 164.115,76.4264 165.5,77.5 Z"/></g>
<g><path style="opacity:1" fill="#ededf4" d="M 140.5,104.5 C 149.5,104.5 158.5,104.5 167.5,104.5C 167.5,105.5 167.5,106.5 167.5,107.5C 163.5,107.5 159.5,107.5 155.5,107.5C 155.5,116.167 155.5,124.833 155.5,133.5C 154.833,133.5 154.167,133.5 153.5,133.5C 152.348,134.625 151.348,134.625 150.5,133.5C 151.117,133.389 151.617,133.056 152,132.5C 152.167,129 152.333,125.5 152.5,122C 152.488,118.098 151.821,114.598 150.5,111.5C 150.423,110.25 149.756,109.417 148.5,109C 145.408,108.264 142.408,108.431 139.5,109.5C 138.494,109.062 138.494,108.396 139.5,107.5C 139.263,106.209 139.596,105.209 140.5,104.5 Z"/></g>
<g><path style="opacity:1" fill="#302f33" d="M 157.5,134.5 C 157.5,126.167 157.5,117.833 157.5,109.5C 161.5,109.5 165.5,109.5 169.5,109.5C 169.5,107.833 169.5,106.167 169.5,104.5C 170.222,104.082 170.722,103.416 171,102.5C 172.664,105.289 172.83,108.123 171.5,111C 167.848,111.499 164.182,111.665 160.5,111.5C 160.666,119.507 160.5,127.507 160,135.5C 158.539,136.883 157.706,136.549 157.5,134.5 Z"/></g>
<g><path style="opacity:1" fill="#a2a4a8" d="M 130.5,83.5 C 133.259,87.4177 132.925,91.251 129.5,95C 130.167,95.6667 130.833,95.6667 131.5,95C 132.488,92.833 133.821,90.9997 135.5,89.5C 127.21,103.754 119.21,118.087 111.5,132.5C 111.356,128.625 111.69,124.792 112.5,121C 113.583,118.724 114.583,116.391 115.5,114C 114.584,113.722 113.918,113.222 113.5,112.5C 118.929,102.633 124.596,92.9668 130.5,83.5 Z"/></g>
<g><path style="opacity:1" fill="#898894" d="M 168.5,102.5 C 169.338,102.842 169.672,103.508 169.5,104.5C 168.566,105.568 168.232,106.901 168.5,108.5C 164.5,108.5 160.5,108.5 156.5,108.5C 156.826,117.017 156.493,125.35 155.5,133.5C 155.5,124.833 155.5,116.167 155.5,107.5C 159.5,107.5 163.5,107.5 167.5,107.5C 167.5,106.5 167.5,105.5 167.5,104.5C 158.5,104.5 149.5,104.5 140.5,104.5C 149.318,103.507 158.318,103.173 167.5,103.5C 168.167,103.5 168.5,103.167 168.5,102.5 Z"/></g>
<g><path style="opacity:1" fill="#babfcd" d="M 158.5,53.5 C 158.335,56.8499 158.502,60.1832 159,63.5C 161.031,66.3553 163.197,69.022 165.5,71.5C 169.662,80.4931 174.328,89.1597 179.5,97.5C 187.785,114.067 196.619,130.4 206,146.5C 206.678,148.598 206.511,150.598 205.5,152.5C 173.482,152.789 141.482,152.455 109.5,151.5C 140.977,151.608 172.644,151.442 204.5,151C 205.517,149.951 205.684,148.784 205,147.5C 204.722,148.416 204.222,149.082 203.5,149.5C 203.768,147.901 203.434,146.568 202.5,145.5C 190.152,122.741 177.819,100.074 165.5,77.5C 164.615,73.9545 162.615,71.2878 159.5,69.5C 158.512,68.205 157.512,66.8717 156.5,65.5C 155.911,61.0293 156.577,57.0293 158.5,53.5 Z"/></g>
<g><path style="opacity:1" fill="#05050e" d="M 169.5,104.5 C 169.5,106.167 169.5,107.833 169.5,109.5C 165.5,109.5 161.5,109.5 157.5,109.5C 157.5,117.833 157.5,126.167 157.5,134.5C 155.901,134.768 154.568,134.434 153.5,133.5C 154.167,133.5 154.833,133.5 155.5,133.5C 156.493,125.35 156.826,117.017 156.5,108.5C 160.5,108.5 164.5,108.5 168.5,108.5C 168.232,106.901 168.566,105.568 169.5,104.5 Z"/></g>
<g><path style="opacity:1" fill="#5e5e5f" d="M 160.5,77.5 C 170.925,94.6781 180.592,112.345 189.5,130.5C 188.206,129.71 187.039,128.71 186,127.5C 185.667,127.833 185.333,128.167 185,128.5C 184.508,127.451 184.674,126.451 185.5,125.5C 183.18,120.77 180.346,116.437 177,112.5C 176.508,113.549 176.674,114.549 177.5,115.5C 177.154,116.696 176.654,116.696 176,115.5C 174.813,117.044 174.48,118.711 175,120.5C 176.578,120.412 178.078,120.412 179.5,120.5C 178.985,122.225 178.318,123.892 177.5,125.5C 175.786,124.391 175.119,125.058 175.5,127.5C 174.448,127.351 173.448,127.517 172.5,128C 174.543,128.93 176.376,129.43 178,129.5C 178.821,132.554 178.655,135.554 177.5,138.5C 176.069,138.977 174.736,139.643 173.5,140.5C 175.006,141.747 176.506,141.747 178,140.5C 178.667,141.5 178.667,142.5 178,143.5C 177.346,142.304 176.846,142.304 176.5,143.5C 179.667,143.833 182.833,144.167 186,144.5C 189.576,144.485 192.742,143.818 195.5,142.5C 196.404,143.209 196.737,144.209 196.5,145.5C 184.167,145.5 171.833,145.5 159.5,145.5C 161.246,144.782 161.912,143.782 161.5,142.5C 162.736,143.246 164.07,143.579 165.5,143.5C 165.5,140.5 165.5,137.5 165.5,134.5C 164.178,134.33 163.011,134.663 162,135.5C 161.506,133.866 161.34,132.199 161.5,130.5C 162.978,130.762 164.311,130.429 165.5,129.5C 164.242,130.016 163.242,129.35 162.5,127.5C 161.167,125.5 161.167,123.5 162.5,121.5C 164.982,119.656 167.649,118.323 170.5,117.5C 170.719,116.325 170.386,115.325 169.5,114.5C 167.477,116.173 165.144,116.84 162.5,116.5C 161.139,118.372 161.139,117.206 162.5,113C 165.833,112.667 169.167,112.333 172.5,112C 173.035,109.891 174.035,109.391 175.5,110.5C 175.833,110 176.167,109.5 176.5,109C 175.217,106.995 174.217,104.828 173.5,102.5C 172.264,101.643 170.931,100.977 169.5,100.5C 168.702,100.957 168.369,101.624 168.5,102.5C 168.5,103.167 168.167,103.5 167.5,103.5C 159.684,102.508 151.684,102.174 143.5,102.5C 142.432,101.566 141.099,101.232 139.5,101.5C 139.643,99.7376 139.309,98.0709 138.5,96.5C 140.055,94.057 140.722,91.3903 140.5,88.5C 141.441,86.9505 142.107,85.2838 142.5,83.5C 144.539,82.3282 145.872,80.6616 146.5,78.5C 146.601,84.4323 146.934,90.4323 147.5,96.5C 146.05,97.8498 145.383,99.5165 145.5,101.5C 152.175,101.666 158.842,101.5 165.5,101C 165.043,100.586 164.709,100.086 164.5,99.5C 165.908,98.7568 167.241,97.9234 168.5,97C 167.551,96.3828 166.718,96.5494 166,97.5C 165.5,96.5 165,95.5 164.5,94.5C 165.833,94.1667 167.167,93.8333 168.5,93.5C 166.833,92.3333 165.167,91.1667 163.5,90C 164.711,89.1072 164.711,88.2739 163.5,87.5C 162.069,87.0234 160.736,86.3567 159.5,85.5C 160.167,84.8333 160.833,84.1667 161.5,83.5C 160.652,81.5914 160.318,79.5914 160.5,77.5 Z"/></g>
<g><path style="opacity:1" fill="#797b84" d="M 159.5,69.5 C 162.615,71.2878 164.615,73.9545 165.5,77.5C 164.115,76.4264 162.949,75.0931 162,73.5C 161.833,73.8333 161.667,74.1667 161.5,74.5C 171.833,93.8333 182.167,113.167 192.5,132.5C 192.376,133.107 192.043,133.44 191.5,133.5C 191.068,132.29 190.401,131.29 189.5,130.5C 180.592,112.345 170.925,94.6781 160.5,77.5C 159.735,74.9039 159.401,72.2372 159.5,69.5 Z"/></g>
<g><path style="opacity:1" fill="#868586" d="M 140.5,88.5 C 140.722,91.3903 140.055,94.057 138.5,96.5C 139.309,98.0709 139.643,99.7376 139.5,101.5C 141.099,101.232 142.432,101.566 143.5,102.5C 141.833,102.5 140.167,102.5 138.5,102.5C 138.216,104.415 138.549,106.081 139.5,107.5C 138.494,108.396 138.494,109.062 139.5,109.5C 139.389,110.117 139.056,110.617 138.5,111C 139.416,111.278 140.082,111.778 140.5,112.5C 139.739,117.189 139.405,121.856 139.5,126.5C 140.502,132.903 141.502,138.903 142.5,144.5C 142.5,144.833 142.5,145.167 142.5,145.5C 140.167,145.5 137.833,145.5 135.5,145.5C 134.734,141.918 134.734,138.418 135.5,135C 134.833,132.667 134.167,130.333 133.5,128C 135.521,127.599 136.855,126.432 137.5,124.5C 135.822,122.297 134.822,119.797 134.5,117C 136.085,114.744 136.752,112.244 136.5,109.5C 135.5,109.5 134.5,109.5 133.5,109.5C 133.565,107.304 134.232,105.304 135.5,103.5C 136.281,104.729 136.781,106.062 137,107.5C 137.167,106.667 137.333,105.833 137.5,105C 136.756,103.145 135.756,101.479 134.5,100C 136.751,97.9982 137.751,95.4982 137.5,92.5C 138.122,90.8784 139.122,89.5451 140.5,88.5 Z"/></g>
<g><path style="opacity:1" fill="#37373b" d="M 189.5,100.5 C 192,103.494 194,106.827 195.5,110.5C 199.613,119.388 204.28,128.055 209.5,136.5C 209.167,137.167 208.833,137.833 208.5,138.5C 211.96,144.587 215.294,150.754 218.5,157C 217.643,157.689 216.977,158.522 216.5,159.5C 193.003,160.829 169.67,160.829 146.5,159.5C 169.51,159.833 192.51,159.5 215.5,158.5C 216.939,156.657 216.772,154.99 215,153.5C 214.578,155.426 213.411,156.426 211.5,156.5C 176.998,155.833 142.331,155.167 107.5,154.5C 107.624,153.893 107.957,153.56 108.5,153.5C 142.998,154.664 177.664,154.831 212.5,154C 211.944,153.617 211.611,153.117 211.5,152.5C 212.573,151.749 212.74,150.749 212,149.5C 202.498,132.036 192.998,114.703 183.5,97.5C 183.808,96.6919 184.308,96.0253 185,95.5C 186.517,97.2395 188.017,98.9062 189.5,100.5 Z"/></g>
<g><path style="opacity:1" fill="#6d6d6d" d="M 140.5,112.5 C 142.5,112.5 144.5,112.5 146.5,112.5C 146.157,116.039 145.49,119.539 144.5,123C 145.832,127.496 145.165,131.83 142.5,136C 143.786,138.832 143.786,141.665 142.5,144.5C 141.502,138.903 140.502,132.903 139.5,126.5C 139.405,121.856 139.739,117.189 140.5,112.5 Z"/></g>
<g><path style="opacity:1" fill="#545455" d="M 159.5,145.5 C 153.833,145.5 148.167,145.5 142.5,145.5C 142.5,145.167 142.5,144.833 142.5,144.5C 143.786,141.665 143.786,138.832 142.5,136C 145.165,131.83 145.832,127.496 144.5,123C 145.49,119.539 146.157,116.039 146.5,112.5C 144.5,112.5 142.5,112.5 140.5,112.5C 140.082,111.778 139.416,111.278 138.5,111C 139.056,110.617 139.389,110.117 139.5,109.5C 142.408,108.431 145.408,108.264 148.5,109C 149.756,109.417 150.423,110.25 150.5,111.5C 150.5,118.833 150.5,126.167 150.5,133.5C 151.348,134.625 152.348,134.625 153.5,133.5C 154.568,134.434 155.901,134.768 157.5,134.5C 157.706,136.549 158.539,136.883 160,135.5C 160.5,127.507 160.666,119.507 160.5,111.5C 164.182,111.665 167.848,111.499 171.5,111C 172.83,108.123 172.664,105.289 171,102.5C 170.722,103.416 170.222,104.082 169.5,104.5C 169.672,103.508 169.338,102.842 168.5,102.5C 168.369,101.624 168.702,100.957 169.5,100.5C 170.931,100.977 172.264,101.643 173.5,102.5C 174.217,104.828 175.217,106.995 176.5,109C 176.167,109.5 175.833,110 175.5,110.5C 174.035,109.391 173.035,109.891 172.5,112C 169.167,112.333 165.833,112.667 162.5,113C 161.139,117.206 161.139,118.372 162.5,116.5C 165.144,116.84 167.477,116.173 169.5,114.5C 170.386,115.325 170.719,116.325 170.5,117.5C 167.649,118.323 164.982,119.656 162.5,121.5C 161.167,123.5 161.167,125.5 162.5,127.5C 163.242,129.35 164.242,130.016 165.5,129.5C 164.311,130.429 162.978,130.762 161.5,130.5C 161.34,132.199 161.506,133.866 162,135.5C 163.011,134.663 164.178,134.33 165.5,134.5C 165.5,137.5 165.5,140.5 165.5,143.5C 164.07,143.579 162.736,143.246 161.5,142.5C 161.912,143.782 161.246,144.782 159.5,145.5 Z"/></g>
<g><path style="opacity:1" fill="#3a3c43" d="M 150.5,111.5 C 151.821,114.598 152.488,118.098 152.5,122C 152.333,125.5 152.167,129 152,132.5C 151.617,133.056 151.117,133.389 150.5,133.5C 150.5,126.167 150.5,118.833 150.5,111.5 Z"/></g>
<g><path style="opacity:1" fill="#515151" d="M 189.5,130.5 C 190.401,131.29 191.068,132.29 191.5,133.5C 191.829,136.827 193.163,139.493 195.5,141.5C 195.5,141.833 195.5,142.167 195.5,142.5C 192.742,143.818 189.576,144.485 186,144.5C 182.833,144.167 179.667,143.833 176.5,143.5C 176.846,142.304 177.346,142.304 178,143.5C 178.667,142.5 178.667,141.5 178,140.5C 176.506,141.747 175.006,141.747 173.5,140.5C 174.736,139.643 176.069,138.977 177.5,138.5C 178.655,135.554 178.821,132.554 178,129.5C 176.376,129.43 174.543,128.93 172.5,128C 173.448,127.517 174.448,127.351 175.5,127.5C 175.119,125.058 175.786,124.391 177.5,125.5C 178.318,123.892 178.985,122.225 179.5,120.5C 178.078,120.412 176.578,120.412 175,120.5C 174.48,118.711 174.813,117.044 176,115.5C 176.654,116.696 177.154,116.696 177.5,115.5C 176.674,114.549 176.508,113.549 177,112.5C 180.346,116.437 183.18,120.77 185.5,125.5C 184.674,126.451 184.508,127.451 185,128.5C 185.333,128.167 185.667,127.833 186,127.5C 187.039,128.71 188.206,129.71 189.5,130.5 Z"/></g>
<g><path style="opacity:1" fill="#7e7f87" d="M 113.5,112.5 C 113.918,113.222 114.584,113.722 115.5,114C 114.583,116.391 113.583,118.724 112.5,121C 111.69,124.792 111.356,128.625 111.5,132.5C 110.408,135.102 109.075,137.602 107.5,140C 108.207,142.54 109.873,143.707 112.5,143.5C 112.5,144.833 112.5,146.167 112.5,147.5C 111.167,147.833 109.833,148.167 108.5,148.5C 106.359,140.722 104.026,140.722 101.5,148.5C 103.045,149.452 104.712,149.785 106.5,149.5C 105.028,151.134 103.362,152.634 101.5,154C 103.197,154.384 104.863,154.218 106.5,153.5C 106.167,154.167 105.833,154.833 105.5,155.5C 102.833,155.5 100.167,155.5 97.5,155.5C 97.7031,153.956 98.3698,152.622 99.5,151.5C 98.8333,149.833 98.1667,148.167 97.5,146.5C 98.7598,145.618 99.9264,144.618 101,143.5C 101.849,140.439 103.349,137.772 105.5,135.5C 106.482,132.904 107.149,130.238 107.5,127.5C 106.5,127.5 105.5,127.5 104.5,127.5C 107.263,122.299 110.263,117.299 113.5,112.5 Z"/></g>
<g><path style="opacity:1" fill="#aaaaab" d="M 137.5,92.5 C 137.751,95.4982 136.751,97.9982 134.5,100C 135.756,101.479 136.756,103.145 137.5,105C 137.333,105.833 137.167,106.667 137,107.5C 136.781,106.062 136.281,104.729 135.5,103.5C 134.232,105.304 133.565,107.304 133.5,109.5C 134.5,109.5 135.5,109.5 136.5,109.5C 136.752,112.244 136.085,114.744 134.5,117C 134.822,119.797 135.822,122.297 137.5,124.5C 136.855,126.432 135.521,127.599 133.5,128C 134.167,130.333 134.833,132.667 135.5,135C 134.734,138.418 134.734,141.918 135.5,145.5C 137.833,145.5 140.167,145.5 142.5,145.5C 142.5,146.167 142.5,146.833 142.5,147.5C 135.5,147.5 128.5,147.5 121.5,147.5C 120.821,145.186 119.488,144.853 117.5,146.5C 117.167,146 116.833,145.5 116.5,145C 117.742,143.349 118.576,141.515 119,139.5C 119.308,140.308 119.808,140.975 120.5,141.5C 121.429,140.311 121.762,138.978 121.5,137.5C 116.933,136.177 116.766,134.844 121,133.5C 121.346,131.782 121.846,130.115 122.5,128.5C 121.282,128.891 120.448,128.224 120,126.5C 119.617,127.056 119.117,127.389 118.5,127.5C 124.549,115.74 130.882,104.073 137.5,92.5 Z"/></g>
<g><path style="opacity:1" fill="#8f9192" d="M 121.5,147.5 C 119.973,147.427 118.973,148.094 118.5,149.5C 116.5,148.833 114.5,148.167 112.5,147.5C 112.5,146.167 112.5,144.833 112.5,143.5C 112.34,141.801 112.506,140.134 113,138.5C 115.283,134.954 117.116,131.287 118.5,127.5C 119.117,127.389 119.617,127.056 120,126.5C 120.448,128.224 121.282,128.891 122.5,128.5C 121.846,130.115 121.346,131.782 121,133.5C 116.766,134.844 116.933,136.177 121.5,137.5C 121.762,138.978 121.429,140.311 120.5,141.5C 119.808,140.975 119.308,140.308 119,139.5C 118.576,141.515 117.742,143.349 116.5,145C 116.833,145.5 117.167,146 117.5,146.5C 119.488,144.853 120.821,145.186 121.5,147.5 Z"/></g>
<g><path style="opacity:1" fill="#828389" d="M 200.5,147.5 C 181.167,147.5 161.833,147.5 142.5,147.5C 142.5,146.833 142.5,146.167 142.5,145.5C 148.167,145.5 153.833,145.5 159.5,145.5C 171.833,145.5 184.167,145.5 196.5,145.5C 196.737,144.209 196.404,143.209 195.5,142.5C 195.5,142.167 195.5,141.833 195.5,141.5C 195.351,140.448 195.517,139.448 196,138.5C 197.761,141.411 199.261,144.411 200.5,147.5 Z"/></g>
<g><path style="opacity:1" fill="#2c303c" d="M 108.5,148.5 C 107.833,148.833 107.167,149.167 106.5,149.5C 104.712,149.785 103.045,149.452 101.5,148.5C 104.026,140.722 106.359,140.722 108.5,148.5 Z"/></g>
<g><path style="opacity:1" fill="#7b808e" d="M 202.5,145.5 C 203.434,146.568 203.768,147.901 203.5,149.5C 175.069,150.828 146.736,150.828 118.5,149.5C 145.5,149.5 172.5,149.5 199.5,149.5C 201.912,149.306 202.912,147.973 202.5,145.5 Z"/></g>
<g><path style="opacity:1" fill="#d2d7e5" d="M 112.5,147.5 C 114.5,148.167 116.5,148.833 118.5,149.5C 146.736,150.828 175.069,150.828 203.5,149.5C 204.222,149.082 204.722,148.416 205,147.5C 205.684,148.784 205.517,149.951 204.5,151C 172.644,151.442 140.977,151.608 109.5,151.5C 107.973,151.427 106.973,152.094 106.5,153.5C 104.863,154.218 103.197,154.384 101.5,154C 103.362,152.634 105.028,151.134 106.5,149.5C 107.167,149.167 107.833,148.833 108.5,148.5C 109.833,148.167 111.167,147.833 112.5,147.5 Z"/></g>
<g><path style="opacity:1" fill="#3c3e49" d="M 121.5,147.5 C 128.5,147.5 135.5,147.5 142.5,147.5C 161.833,147.5 181.167,147.5 200.5,147.5C 200.167,148.167 199.833,148.833 199.5,149.5C 172.5,149.5 145.5,149.5 118.5,149.5C 118.973,148.094 119.973,147.427 121.5,147.5 Z"/></g>
<g><path style="opacity:1" fill="#141621" d="M 211.5,152.5 C 211.611,153.117 211.944,153.617 212.5,154C 177.664,154.831 142.998,154.664 108.5,153.5C 141.004,153.832 173.338,153.498 205.5,152.5C 208.845,152.674 210.012,151.341 209,148.5C 210.095,149.693 210.928,151.027 211.5,152.5 Z"/></g>
<g><path style="opacity:1" fill="#56575f" d="M 109.5,151.5 C 141.482,152.455 173.482,152.789 205.5,152.5C 173.338,153.498 141.004,153.832 108.5,153.5C 107.957,153.56 107.624,153.893 107.5,154.5C 142.331,155.167 176.998,155.833 211.5,156.5C 189.5,156.5 167.5,156.5 145.5,156.5C 131.99,156.829 118.656,156.496 105.5,155.5C 105.833,154.833 106.167,154.167 106.5,153.5C 106.973,152.094 107.973,151.427 109.5,151.5 Z"/></g>
<g><path style="opacity:1" fill="#39383c" d="M 97.5,155.5 C 100.167,155.5 102.833,155.5 105.5,155.5C 118.656,156.496 131.99,156.829 145.5,156.5C 142.523,156.902 139.857,157.902 137.5,159.5C 137.167,159.5 136.833,159.5 136.5,159.5C 125.147,159.832 113.814,159.499 102.5,158.5C 102.709,157.914 103.043,157.414 103.5,157C 101.292,156.809 99.2922,156.309 97.5,155.5 Z"/></g>
<g><path style="opacity:1" fill="#282629" d="M 146.5,159.5 C 143.5,159.5 140.5,159.5 137.5,159.5C 139.857,157.902 142.523,156.902 145.5,156.5C 167.5,156.5 189.5,156.5 211.5,156.5C 213.411,156.426 214.578,155.426 215,153.5C 216.772,154.99 216.939,156.657 215.5,158.5C 192.51,159.5 169.51,159.833 146.5,159.5 Z"/></g>
<g><path style="opacity:1" fill="#696969" d="M 104.5,127.5 C 105.5,127.5 106.5,127.5 107.5,127.5C 107.149,130.238 106.482,132.904 105.5,135.5C 103.349,137.772 101.849,140.439 101,143.5C 99.9264,144.618 98.7598,145.618 97.5,146.5C 98.1667,148.167 98.8333,149.833 99.5,151.5C 98.3698,152.622 97.7031,153.956 97.5,155.5C 99.2922,156.309 101.292,156.809 103.5,157C 103.043,157.414 102.709,157.914 102.5,158.5C 113.814,159.499 125.147,159.832 136.5,159.5C 136.167,160.167 135.833,160.833 135.5,161.5C 119.256,161.825 103.089,161.491 87,160.5C 86.4795,158.711 86.8129,157.044 88,155.5C 93.7649,146.301 99.2649,136.967 104.5,127.5 Z"/></g>
<g><path style="opacity:1" fill="#5a5a5b" d="M 195.5,110.5 C 204.478,124.44 212.978,138.773 221,153.5C 222.707,155.909 223.54,158.575 223.5,161.5C 194.167,161.5 164.833,161.5 135.5,161.5C 135.833,160.833 136.167,160.167 136.5,159.5C 136.833,159.5 137.167,159.5 137.5,159.5C 140.5,159.5 143.5,159.5 146.5,159.5C 169.67,160.829 193.003,160.829 216.5,159.5C 216.977,158.522 217.643,157.689 218.5,157C 215.294,150.754 211.96,144.587 208.5,138.5C 208.833,137.833 209.167,137.167 209.5,136.5C 204.28,128.055 199.613,119.388 195.5,110.5 Z"/></g>
<g><path style="opacity:1" fill="#212126" d="M 30.5,177.5 C 30.0086,174.548 29.6753,171.881 29.5,169.5C 21.8825,169.906 14.2158,170.073 6.5,170C 5.69499,171.113 5.02832,172.279 4.5,173.5C 2.92305,171.006 3.58972,169.173 6.5,168C 14.1667,167.333 21.8333,167.333 29.5,168C 31.6648,169.161 32.6648,170.994 32.5,173.5C 32.6289,175.988 31.9623,177.321 30.5,177.5 Z"/></g>
<g><path style="opacity:1" fill="#313138" d="M 119.5,169.5 C 117.5,170.167 115.5,170.833 113.5,171.5C 112.355,170.207 112.689,169.041 114.5,168C 118.5,167.333 122.5,167.333 126.5,168C 123.964,168.186 121.631,168.686 119.5,169.5 Z"/></g>
<g><path style="opacity:1" fill="#a9a9ad" d="M 203.5,167.5 C 204.376,167.369 205.043,167.702 205.5,168.5C 201.703,173.699 201.036,173.366 203.5,167.5 Z"/></g>
<g><path style="opacity:1" fill="#a3a3ab" d="M 30.5,177.5 C 28.9481,175.965 27.6148,174.131 26.5,172C 24.8659,171.506 23.1992,171.34 21.5,171.5C 20.5,171.5 19.5,171.5 18.5,171.5C 18.3336,180.506 18.5002,189.506 19,198.5C 19.3826,199.056 19.8826,199.389 20.5,199.5C 21.7079,200.234 23.0413,200.567 24.5,200.5C 20.0315,201.807 15.3648,202.307 10.5,202C 12.2495,200.681 14.2495,200.181 16.5,200.5C 16.6665,191.161 16.4998,181.827 16,172.5C 12.9433,171.549 9.77659,171.216 6.5,171.5C 6.5,173.5 6.5,175.5 6.5,177.5C 4.82351,176.817 4.15684,175.483 4.5,173.5C 5.02832,172.279 5.69499,171.113 6.5,170C 14.2158,170.073 21.8825,169.906 29.5,169.5C 29.6753,171.881 30.0086,174.548 30.5,177.5 Z"/></g>
<g><path style="opacity:1" fill="#05070c" d="M 148.5,168.5 C 148.827,178.681 148.494,188.681 147.5,198.5C 147.807,189.113 147.473,179.78 146.5,170.5C 146.855,169.478 147.522,168.811 148.5,168.5 Z"/></g>
<g><path style="opacity:1" fill="#2f3037" d="M 143.5,170.5 C 144.117,170.611 144.617,170.944 145,171.5C 145.5,181.161 145.666,190.828 145.5,200.5C 143.712,200.215 142.045,200.548 140.5,201.5C 140.624,202.107 140.957,202.44 141.5,202.5C 141.44,203.043 141.107,203.376 140.5,203.5C 139.571,202.311 139.238,200.978 139.5,199.5C 140.5,199.5 141.5,199.5 142.5,199.5C 142.194,189.75 142.527,180.084 143.5,170.5 Z"/></g>
<g><path style="opacity:1" fill="#a6a7af" d="M 148.5,168.5 C 147.522,168.811 146.855,169.478 146.5,170.5C 147.473,179.78 147.807,189.113 147.5,198.5C 147.842,199.338 148.508,199.672 149.5,199.5C 150.473,199.987 151.473,200.487 152.5,201C 148.83,201.548 145.163,202.048 141.5,202.5C 140.957,202.44 140.624,202.107 140.5,201.5C 142.045,200.548 143.712,200.215 145.5,200.5C 145.666,190.828 145.5,181.161 145,171.5C 144.617,170.944 144.117,170.611 143.5,170.5C 142.115,169.698 142.282,169.031 144,168.5C 145.677,167.392 147.177,167.392 148.5,168.5 Z"/></g>
<g><path style="opacity:1" fill="#404146" d="M 148.5,168.5 C 149.494,178.653 149.828,188.986 149.5,199.5C 148.508,199.672 147.842,199.338 147.5,198.5C 148.494,188.681 148.827,178.681 148.5,168.5 Z"/></g>
<g><path style="opacity:1" fill="#b3b4bc" d="M 119.5,169.5 C 124.638,169.434 129.638,170.1 134.5,171.5C 138.022,184.816 133.022,190.482 119.5,188.5C 119.335,191.518 119.502,194.518 120,197.5C 120.708,198.381 121.542,199.047 122.5,199.5C 124.195,200.011 125.861,200.678 127.5,201.5C 126.833,201.833 126.167,202.167 125.5,202.5C 121.847,201.428 118.18,201.428 114.5,202.5C 113.957,202.44 113.624,202.107 113.5,201.5C 115.045,200.548 116.712,200.215 118.5,200.5C 118.666,191.494 118.5,182.494 118,173.5C 117.617,172.944 117.117,172.611 116.5,172.5C 115.609,171.89 114.609,171.557 113.5,171.5C 115.5,170.833 117.5,170.167 119.5,169.5 Z"/></g>
<g><path style="opacity:1" fill="#3e4047" d="M 121.5,171.5 C 121.833,171.5 122.167,171.5 122.5,171.5C 122.218,176.927 122.551,182.26 123.5,187.5C 121.973,187.573 120.973,186.906 120.5,185.5C 121.486,181.03 121.819,176.363 121.5,171.5 Z"/></g>
<g><path style="opacity:1" fill="#121216" d="M 122.5,171.5 C 132.96,171.6 135.96,176.267 131.5,185.5C 129.057,187.055 126.39,187.722 123.5,187.5C 122.551,182.26 122.218,176.927 122.5,171.5 Z"/></g>
<g><path style="opacity:1" fill="#03050e" d="M 121.5,171.5 C 121.819,176.363 121.486,181.03 120.5,185.5C 120.8,180.901 120.467,176.401 119.5,172C 120.094,171.536 120.761,171.369 121.5,171.5 Z"/></g>
<g><path style="opacity:1" fill="#35373c" d="M 278.5,177.5 C 277.1,178.1 276.1,179.1 275.5,180.5C 273.637,180.154 272.804,179.154 273,177.5C 274.943,176.193 276.777,176.193 278.5,177.5 Z"/></g>
<g><path style="opacity:1" fill="#19191c" d="M 73.5,178.5 C 62.6054,175.115 57.6054,179.115 58.5,190.5C 58.3645,194.403 59.0311,198.07 60.5,201.5C 63.8067,202.051 67.1401,202.384 70.5,202.5C 70.7352,203.097 71.2352,203.43 72,203.5C 73.6434,202.685 75.1434,201.685 76.5,200.5C 78.9029,200.552 81.2362,200.219 83.5,199.5C 83.1667,200.167 82.8333,200.833 82.5,201.5C 83.0968,202.139 83.9302,202.472 85,202.5C 88.3501,202.054 91.5167,201.388 94.5,200.5C 95.4345,201.568 95.7678,202.901 95.5,204.5C 91.8183,204.665 88.1516,204.499 84.5,204C 81.9925,203.907 79.8259,203.074 78,201.5C 76.3761,203.158 74.7094,204.825 73,206.5C 70.2873,204.87 67.2873,203.87 64,203.5C 63.4536,204.289 62.7869,205.289 62,206.5C 59.2656,205.638 59.0989,204.805 61.5,204C 60.2842,202.26 58.6175,201.26 56.5,201C 57.1667,200.667 57.8333,200.333 58.5,200C 57.283,198.352 56.4497,196.519 56,194.5C 55.7537,191.11 55.2537,187.777 54.5,184.5C 52.7855,184.405 51.1188,184.072 49.5,183.5C 50.7368,182.035 51.7368,180.368 52.5,178.5C 56.3555,177.799 60.3555,176.799 64.5,175.5C 68.0891,175.14 71.0891,176.14 73.5,178.5 Z"/></g>
<g><path style="opacity:1" fill="#a2a3a9" d="M 291.5,178.5 C 290.5,179.167 289.5,179.833 288.5,180.5C 287.167,180.5 285.833,180.5 284.5,180.5C 283.508,180.672 282.842,180.338 282.5,179.5C 285.287,178.523 288.287,178.19 291.5,178.5 Z"/></g>
<g><path style="opacity:1" fill="#b2b2b8" d="M 51.5,177.5 C 52.1667,177.5 52.5,177.833 52.5,178.5C 51.7368,180.368 50.7368,182.035 49.5,183.5C 49.5,182.5 49.5,181.5 49.5,180.5C 47.5853,180.216 45.9187,180.549 44.5,181.5C 43.596,180.791 43.2627,179.791 43.5,178.5C 46.2788,178.721 48.9455,178.388 51.5,177.5 Z"/></g>
<g><path style="opacity:1" fill="#292930" d="M 205.5,177.5 C 206.222,177.918 206.722,178.584 207,179.5C 207.792,186.247 207.626,192.914 206.5,199.5C 205.883,199.389 205.383,199.056 205,198.5C 204.24,191.45 204.407,184.45 205.5,177.5 Z"/></g>
<g><path style="opacity:1" fill="#b6b7be" d="M 73.5,178.5 C 74.1667,178.5 74.5,178.833 74.5,179.5C 76.4484,184.988 76.9484,190.655 76,196.5C 75.0084,199.323 73.1751,201.323 70.5,202.5C 67.1401,202.384 63.8067,202.051 60.5,201.5C 59.0311,198.07 58.3645,194.403 58.5,190.5C 57.6054,179.115 62.6054,175.115 73.5,178.5 Z"/></g>
<g><path style="opacity:1" fill="#313236" d="M 189.5,179.5 C 189.5,186.167 189.5,192.833 189.5,199.5C 188.883,199.389 188.383,199.056 188,198.5C 187.169,191.808 187.336,185.142 188.5,178.5C 189.107,178.624 189.44,178.957 189.5,179.5 Z"/></g>
<g><path style="opacity:1" fill="#a7a8ae" d="M 205.5,177.5 C 204.407,184.45 204.24,191.45 205,198.5C 205.383,199.056 205.883,199.389 206.5,199.5C 207.766,200.09 209.099,200.59 210.5,201C 206.168,201.583 201.835,202.083 197.5,202.5C 198.552,200.744 200.219,200.077 202.5,200.5C 202.666,194.158 202.5,187.825 202,181.5C 201.617,180.944 201.117,180.611 200.5,180.5C 198.637,180.154 197.804,179.154 198,177.5C 200.459,178.649 202.959,178.649 205.5,177.5 Z"/></g>
<g><path style="opacity:1" fill="#313338" d="M 37.5,180.5 C 38.1174,180.611 38.6174,180.944 39,181.5C 39.4995,187.825 39.6662,194.158 39.5,200.5C 37.712,200.215 36.0453,200.548 34.5,201.5C 34.6236,202.107 34.9569,202.44 35.5,202.5C 35.44,203.043 35.1067,203.376 34.5,203.5C 33.5713,202.311 33.238,200.978 33.5,199.5C 34.5,199.5 35.5,199.5 36.5,199.5C 36.2088,193.077 36.5422,186.744 37.5,180.5 Z"/></g>
<g><path style="opacity:1" fill="#030205" d="M 67.5,179.5 C 69.153,179.66 70.4863,180.326 71.5,181.5C 72.5591,186.448 72.7258,191.448 72,196.5C 70.195,199.039 67.695,200.039 64.5,199.5C 64.1667,199.5 63.8333,199.5 63.5,199.5C 62.5581,194.195 62.3914,188.861 63,183.5C 64.3968,181.93 65.8968,180.596 67.5,179.5 Z"/></g>
<g><path style="opacity:1" fill="#00000a" d="M 86.5,181.5 C 87.1649,184.482 87.4982,187.648 87.5,191C 87.4848,194.576 86.8182,197.742 85.5,200.5C 86.4578,194.256 86.7912,187.923 86.5,181.5 Z"/></g>
<g><path style="opacity:1" fill="#1f2023" d="M 200.5,180.5 C 201.117,180.611 201.617,180.944 202,181.5C 202.5,187.825 202.666,194.158 202.5,200.5C 200.219,200.077 198.552,200.744 197.5,202.5C 196.883,202.389 196.383,202.056 196,201.5C 193.289,205.127 190.122,205.46 186.5,202.5C 185.571,201.311 185.238,199.978 185.5,198.5C 186.404,199.209 186.737,200.209 186.5,201.5C 189.653,201.843 191.987,201.51 193.5,200.5C 195.607,199.532 197.941,199.198 200.5,199.5C 200.5,193.167 200.5,186.833 200.5,180.5 Z"/></g>
<g><path style="opacity:1" fill="#2d2f32" d="M 250.5,177.5 C 251.247,183.347 251.914,189.347 252.5,195.5C 252.315,196.584 251.982,197.584 251.5,198.5C 250.778,198.082 250.278,197.416 250,196.5C 249.21,190.085 249.376,183.752 250.5,177.5 Z"/></g>
<g><path style="opacity:1" fill="#3f3f48" d="M 85.5,180.5 C 86.1667,180.5 86.5,180.833 86.5,181.5C 86.7912,187.923 86.4578,194.256 85.5,200.5C 84.609,201.11 83.609,201.443 82.5,201.5C 82.8333,200.833 83.1667,200.167 83.5,199.5C 84.1174,199.389 84.6174,199.056 85,198.5C 85.4995,192.509 85.6662,186.509 85.5,180.5 Z"/></g>
<g><path style="opacity:1" fill="#393b40" d="M 186.5,171.5 C 186.844,174.62 186.177,177.453 184.5,180C 184.743,180.902 185.077,181.735 185.5,182.5C 184.673,187.985 184.173,193.652 184,199.5C 183.5,193.175 183.334,186.842 183.5,180.5C 178.427,178.936 178.427,177.436 183.5,176C 184.053,174.122 185.053,172.622 186.5,171.5 Z"/></g>
<g><path style="opacity:1" fill="#b5b5be" d="M 186.5,171.5 C 188.308,172.918 188.975,174.918 188.5,177.5C 190.527,177.338 192.527,177.505 194.5,178C 193.095,179.269 191.429,179.769 189.5,179.5C 189.44,178.957 189.107,178.624 188.5,178.5C 187.336,185.142 187.169,191.808 188,198.5C 188.383,199.056 188.883,199.389 189.5,199.5C 190.708,200.234 192.041,200.567 193.5,200.5C 191.987,201.51 189.653,201.843 186.5,201.5C 186.737,200.209 186.404,199.209 185.5,198.5C 185.5,193.167 185.5,187.833 185.5,182.5C 185.077,181.735 184.743,180.902 184.5,180C 186.177,177.453 186.844,174.62 186.5,171.5 Z"/></g>
<g><path style="opacity:1" fill="#2d2f35" d="M 245.5,180.5 C 246.117,180.611 246.617,180.944 247,181.5C 247.293,187.867 247.793,194.2 248.5,200.5C 247.25,200.423 246.417,199.756 246,198.5C 245.501,192.509 245.334,186.509 245.5,180.5 Z"/></g>
<g><path style="opacity:1" fill="#aeb0b6" d="M 265.5,177.5 C 264.407,184.45 264.24,191.45 265,198.5C 265.383,199.056 265.883,199.389 266.5,199.5C 265.208,202.67 263.542,203.004 261.5,200.5C 262.584,194.217 262.751,187.884 262,181.5C 261.617,180.944 261.117,180.611 260.5,180.5C 259.527,180.013 258.527,179.513 257.5,179C 260.207,178.605 262.873,178.105 265.5,177.5 Z"/></g>
<g><path style="opacity:1" fill="#01020a" d="M 279.5,197.5 C 279.5,192.5 279.5,187.5 279.5,182.5C 280.363,181.537 281.03,181.537 281.5,182.5C 280.879,187.632 280.213,192.632 279.5,197.5 Z"/></g>
<g><path style="opacity:1" fill="#303137" d="M 67.5,179.5 C 65.8968,180.596 64.3968,181.93 63,183.5C 62.3914,188.861 62.5581,194.195 63.5,199.5C 62.5416,199.047 61.7083,198.381 61,197.5C 58.3031,191.043 59.1364,185.21 63.5,180C 64.7932,179.51 66.1266,179.343 67.5,179.5 Z"/></g>
<g><path style="opacity:1" fill="#29292e" d="M 232.5,200.5 C 230.708,195.255 229.874,189.588 230,183.5C 228.853,182.542 227.853,182.875 227,184.5C 224.904,183.285 225.071,182.451 227.5,182C 226.584,181.722 225.918,181.222 225.5,180.5C 228.47,179.543 230.97,180.543 233,183.5C 233.818,189.349 233.652,195.015 232.5,200.5 Z"/></g>
<g><path style="opacity:1" fill="#2b2c31" d="M 265.5,177.5 C 266.222,177.918 266.722,178.584 267,179.5C 267.792,186.247 267.626,192.914 266.5,199.5C 265.883,199.389 265.383,199.056 265,198.5C 264.24,191.45 264.407,184.45 265.5,177.5 Z"/></g>
<g><path style="opacity:1" fill="#2d2d33" d="M 71.5,181.5 C 73.335,182.122 74.5017,183.456 75,185.5C 76.3581,191.031 75.1914,195.865 71.5,200C 68.9615,200.796 66.6282,200.629 64.5,199.5C 67.695,200.039 70.195,199.039 72,196.5C 72.7258,191.448 72.5591,186.448 71.5,181.5 Z"/></g>
<g><path style="opacity:1" fill="#303137" d="M 74.5,179.5 C 78.1494,181.9 79.816,185.4 79.5,190C 79.4029,193.788 78.4029,197.288 76.5,200.5C 75.1434,201.685 73.6434,202.685 72,203.5C 71.2352,203.43 70.7352,203.097 70.5,202.5C 73.1751,201.323 75.0084,199.323 76,196.5C 76.9484,190.655 76.4484,184.988 74.5,179.5 Z"/></g>
<g><path style="opacity:1" fill="#b9bbc0" d="M 103.5,178.5 C 104.165,185.143 104.665,191.809 105,198.5C 105.925,199.047 106.758,199.713 107.5,200.5C 106.051,201.172 104.718,201.839 103.5,202.5C 102.508,202.672 101.842,202.338 101.5,201.5C 102.289,201.217 102.956,200.717 103.5,200C 103.178,193.826 102.178,187.993 100.5,182.5C 99.0101,180.72 97.0101,180.054 94.5,180.5C 93.5084,180.672 92.8417,180.338 92.5,179.5C 95.9619,178.518 99.6286,178.185 103.5,178.5 Z"/></g>
<g><path style="opacity:1" fill="#1d1d20" d="M 172.5,178.5 C 169.962,178.493 167.462,178.159 165,177.5C 160.579,177.728 158.745,179.728 159.5,183.5C 162.551,178.969 166.384,178.303 171,181.5C 171.818,184.227 171.652,186.894 170.5,189.5C 160.172,187.161 156.172,191.161 158.5,201.5C 153.232,197.42 153.232,193.087 158.5,188.5C 155.48,185.625 155.313,182.292 158,178.5C 162.946,174.522 167.78,174.522 172.5,178.5 Z"/></g>
<g><path style="opacity:1" fill="#c1c3cc" d="M 220.5,178.5 C 219.502,185.138 219.335,191.805 220,198.5C 220.671,199.252 221.504,199.586 222.5,199.5C 222.611,200.117 222.944,200.617 223.5,201C 220.487,201.502 217.487,202.002 214.5,202.5C 214.694,201.032 216.028,200.365 218.5,200.5C 218.666,194.491 218.499,188.491 218,182.5C 217.617,181.944 217.117,181.611 216.5,181.5C 215.571,180.685 214.571,179.852 213.5,179C 215.556,178.689 217.556,178.189 219.5,177.5C 220.107,177.624 220.44,177.957 220.5,178.5 Z"/></g>
<g><path style="opacity:1" fill="#86868c" d="M 292.5,178.5 C 293.5,178.833 294.167,179.5 294.5,180.5C 294.5,186.167 294.5,191.833 294.5,197.5C 293.757,191.3 293.09,184.966 292.5,178.5 Z"/></g>
<g><path style="opacity:1" fill="#28292e" d="M 307.5,179.5 C 309.411,179.574 310.578,180.574 311,182.5C 311.499,188.157 311.666,193.824 311.5,199.5C 310.504,199.586 309.671,199.252 309,198.5C 308.707,192.133 308.207,185.8 307.5,179.5 Z"/></g>
<g><path style="opacity:1" fill="#27292e" d="M 100.5,182.5 C 102.178,187.993 103.178,193.826 103.5,200C 102.956,200.717 102.289,201.217 101.5,201.5C 100.815,195.433 100.149,189.266 99.5,183C 99.7284,182.601 100.062,182.435 100.5,182.5 Z"/></g>
<g><path style="opacity:1" fill="#b6b7bd" d="M 307.5,179.5 C 308.207,185.8 308.707,192.133 309,198.5C 309.671,199.252 310.504,199.586 311.5,199.5C 311.5,199.833 311.5,200.167 311.5,200.5C 310.167,201.167 308.833,201.833 307.5,202.5C 306.508,202.672 305.842,202.338 305.5,201.5C 306.653,195.347 306.82,189.014 306,182.5C 305.617,181.944 305.117,181.611 304.5,181.5C 302.059,180.244 299.726,180.244 297.5,181.5C 296.662,181.158 296.328,180.492 296.5,179.5C 300.268,178.213 303.935,178.213 307.5,179.5 Z"/></g>
<g><path style="opacity:1" fill="#2e2f34" d="M 134.5,171.5 C 139.33,175.867 139.83,180.867 136,186.5C 132.133,189.845 127.633,191.511 122.5,191.5C 122.5,194.167 122.5,196.833 122.5,199.5C 121.542,199.047 120.708,198.381 120,197.5C 119.502,194.518 119.335,191.518 119.5,188.5C 133.022,190.482 138.022,184.816 134.5,171.5 Z"/></g>
<g><path style="opacity:1" fill="#34343c" d="M 216.5,181.5 C 217.117,181.611 217.617,181.944 218,182.5C 218.499,188.491 218.666,194.491 218.5,200.5C 216.028,200.365 214.694,201.032 214.5,202.5C 213.698,203.885 213.031,203.718 212.5,202C 212.613,200.72 213.28,199.887 214.5,199.5C 215.167,193.346 215.833,187.346 216.5,181.5 Z"/></g>
<g><path style="opacity:1" fill="#2a2c31" d="M 220.5,178.5 C 221.167,179.167 221.833,179.833 222.5,180.5C 223.167,180.5 223.833,180.5 224.5,180.5C 222.635,186.618 221.968,192.952 222.5,199.5C 221.504,199.586 220.671,199.252 220,198.5C 219.335,191.805 219.502,185.138 220.5,178.5 Z"/></g>
<g><path style="opacity:1" fill="#3b3c43" d="M 280.5,179.5 C 281.167,179.5 281.833,179.5 282.5,179.5C 282.842,180.338 283.508,180.672 284.5,180.5C 284.013,181.473 283.513,182.473 283,183.5C 282.785,188.915 282.285,194.248 281.5,199.5C 280.5,199.167 279.833,198.5 279.5,197.5C 280.213,192.632 280.879,187.632 281.5,182.5C 281.03,181.537 280.363,181.537 279.5,182.5C 279.557,181.391 279.89,180.391 280.5,179.5 Z"/></g>
<g><path style="opacity:1" fill="#c5c4cb" d="M 235.5,180.5 C 234.348,185.985 234.182,191.651 235,197.5C 235.417,198.756 236.25,199.423 237.5,199.5C 236.9,200.9 235.9,201.9 234.5,202.5C 233.167,202.5 232.5,201.833 232.5,200.5C 233.652,195.015 233.818,189.349 233,183.5C 230.97,180.543 228.47,179.543 225.5,180.5C 225.167,180.5 224.833,180.5 224.5,180.5C 223.833,180.5 223.167,180.5 222.5,180.5C 222.611,179.883 222.944,179.383 223.5,179C 227.167,178.333 230.833,178.333 234.5,179C 235.056,179.383 235.389,179.883 235.5,180.5 Z"/></g>
<g><path style="opacity:1" fill="#25262b" d="M 51.5,177.5 C 48.9455,178.388 46.2788,178.721 43.5,178.5C 43.2627,179.791 43.596,180.791 44.5,181.5C 43.6932,187.464 43.3599,193.464 43.5,199.5C 42.2502,199.423 41.4169,198.756 41,197.5C 40.9525,190.79 40.7858,184.123 40.5,177.5C 38.8849,178.154 37.2182,178.654 35.5,179C 36.056,179.383 36.3893,179.883 36.5,180.5C 34.0882,180.306 33.0882,178.973 33.5,176.5C 38.8249,175.748 43.8249,175.415 48.5,175.5C 49.7387,175.942 50.7387,176.609 51.5,177.5 Z"/></g>
<g><path style="opacity:1" fill="#a8aab2" d="M 172.5,178.5 C 172.763,186.01 173.763,193.344 175.5,200.5C 174.672,201.415 173.672,202.081 172.5,202.5C 171.803,198.623 171.136,194.79 170.5,191C 166.683,189.977 163.183,190.477 160,192.5C 159.184,199.196 162.017,201.196 168.5,198.5C 169.562,199.425 169.562,200.425 168.5,201.5C 165.167,201.5 161.833,201.5 158.5,201.5C 156.172,191.161 160.172,187.161 170.5,189.5C 171.652,186.894 171.818,184.227 171,181.5C 166.384,178.303 162.551,178.969 159.5,183.5C 158.745,179.728 160.579,177.728 165,177.5C 167.462,178.159 169.962,178.493 172.5,178.5 Z"/></g>
<g><path style="opacity:1" fill="#27272b" d="M 304.5,181.5 C 305.117,181.611 305.617,181.944 306,182.5C 306.82,189.014 306.653,195.347 305.5,201.5C 304.815,195.433 304.149,189.266 303.5,183C 304.056,182.617 304.389,182.117 304.5,181.5 Z"/></g>
<g><path style="opacity:1" fill="#28282c" d="M 21.5,171.5 C 21.8055,180.917 21.4721,190.25 20.5,199.5C 19.8826,199.389 19.3826,199.056 19,198.5C 18.5002,189.506 18.3336,180.506 18.5,171.5C 19.5,171.5 20.5,171.5 21.5,171.5 Z"/></g>
<g><path style="opacity:1" fill="#010107" d="M 276.5,181.5 C 277.165,184.482 277.498,187.648 277.5,191C 277.485,194.576 276.818,197.742 275.5,200.5C 276.458,194.256 276.791,187.923 276.5,181.5 Z"/></g>
<g><path style="opacity:1" fill="#babcc2" d="M 43.5,199.5 C 44.209,200.404 45.209,200.737 46.5,200.5C 43.9471,201.255 41.2804,201.922 38.5,202.5C 37.5,202.5 36.5,202.5 35.5,202.5C 34.9569,202.44 34.6236,202.107 34.5,201.5C 36.0453,200.548 37.712,200.215 39.5,200.5C 39.6662,194.158 39.4995,187.825 39,181.5C 38.6174,180.944 38.1174,180.611 37.5,180.5C 37.1667,180.5 36.8333,180.5 36.5,180.5C 36.3893,179.883 36.056,179.383 35.5,179C 37.2182,178.654 38.8849,178.154 40.5,177.5C 40.7858,184.123 40.9525,190.79 41,197.5C 41.4169,198.756 42.2502,199.423 43.5,199.5 Z"/></g>
<g><path style="opacity:1" fill="#353539" d="M 235.5,180.5 C 236.117,180.611 236.617,180.944 237,181.5C 237.499,187.491 237.666,193.491 237.5,199.5C 236.25,199.423 235.417,198.756 235,197.5C 234.182,191.651 234.348,185.985 235.5,180.5 Z"/></g>
<g><path style="opacity:1" fill="#404045" d="M 275.5,180.5 C 276.167,180.5 276.5,180.833 276.5,181.5C 276.791,187.923 276.458,194.256 275.5,200.5C 274.609,201.11 273.609,201.443 272.5,201.5C 272.833,200.833 273.167,200.167 273.5,199.5C 274.117,199.389 274.617,199.056 275,198.5C 275.499,192.509 275.666,186.509 275.5,180.5 Z"/></g>
<g><path style="opacity:1" fill="#c7c8cd" d="M 291.5,178.5 C 291.833,178.5 292.167,178.5 292.5,178.5C 293.09,184.966 293.757,191.3 294.5,197.5C 294.5,198.833 295.167,199.5 296.5,199.5C 296.611,200.117 296.944,200.617 297.5,201C 295.471,201.681 293.471,202.014 291.5,202C 292.642,195.916 292.809,189.749 292,183.5C 291.292,182.619 290.458,181.953 289.5,181.5C 289.5,180.833 289.167,180.5 288.5,180.5C 289.5,179.833 290.5,179.167 291.5,178.5 Z"/></g>
<g><path style="opacity:1" fill="#333438" d="M 296.5,179.5 C 296.328,180.492 296.662,181.158 297.5,181.5C 296.587,187.441 296.254,193.441 296.5,199.5C 295.167,199.5 294.5,198.833 294.5,197.5C 294.5,191.833 294.5,186.167 294.5,180.5C 295.167,180.167 295.833,179.833 296.5,179.5 Z"/></g>
<g><path style="opacity:1" fill="#26262c" d="M 116.5,172.5 C 117.117,172.611 117.617,172.944 118,173.5C 118.5,182.494 118.666,191.494 118.5,200.5C 116.712,200.215 115.045,200.548 113.5,201.5C 113.624,202.107 113.957,202.44 114.5,202.5C 113.312,203.364 112.145,204.364 111,205.5C 108.622,204.033 106.122,203.033 103.5,202.5C 104.718,201.839 106.051,201.172 107.5,200.5C 106.758,199.713 105.925,199.047 105,198.5C 104.665,191.809 104.165,185.143 103.5,178.5C 105.173,179.343 106.34,180.676 107,182.5C 107.171,187.533 107.671,192.533 108.5,197.5C 110.523,199.173 112.856,199.84 115.5,199.5C 115.196,190.416 115.529,181.416 116.5,172.5 Z"/></g>
<g><path style="opacity:1" fill="#2d2d33" d="M 90.5,179.5 C 91.1667,179.5 91.8333,179.5 92.5,179.5C 92.8417,180.338 93.5084,180.672 94.5,180.5C 94.0133,181.473 93.5133,182.473 93,183.5C 92.7849,188.915 92.2849,194.248 91.5,199.5C 90.8826,199.389 90.3826,199.056 90,198.5C 89.2944,192.13 89.4611,185.797 90.5,179.5 Z"/></g>
<g><path style="opacity:1" fill="#2e2f33" d="M 260.5,180.5 C 261.117,180.611 261.617,180.944 262,181.5C 262.751,187.884 262.584,194.217 261.5,200.5C 261.167,200.5 260.833,200.5 260.5,200.5C 260.158,199.662 259.492,199.328 258.5,199.5C 260.312,193.353 260.979,187.02 260.5,180.5 Z"/></g>
<g><path style="opacity:1" fill="#b5b6be" d="M 250.5,177.5 C 249.376,183.752 249.21,190.085 250,196.5C 250.278,197.416 250.778,198.082 251.5,198.5C 253.717,199.369 256.05,199.702 258.5,199.5C 259.492,199.328 260.158,199.662 260.5,200.5C 256.5,201.833 252.5,201.833 248.5,200.5C 247.793,194.2 247.293,187.867 247,181.5C 246.617,180.944 246.117,180.611 245.5,180.5C 244.957,180.44 244.624,180.107 244.5,179.5C 246.411,178.523 248.411,177.857 250.5,177.5 Z"/></g>
<g><path style="opacity:1" fill="#aeb0b9" d="M 90.5,179.5 C 89.4611,185.797 89.2944,192.13 90,198.5C 90.3826,199.056 90.8826,199.389 91.5,199.5C 92.391,200.11 93.391,200.443 94.5,200.5C 91.5167,201.388 88.3501,202.054 85,202.5C 83.9302,202.472 83.0968,202.139 82.5,201.5C 83.609,201.443 84.609,201.11 85.5,200.5C 86.8182,197.742 87.4848,194.576 87.5,191C 87.4982,187.648 87.1649,184.482 86.5,181.5C 86.5,180.833 86.1667,180.5 85.5,180.5C 84.7109,180.217 84.0442,179.717 83.5,179C 85.556,178.689 87.556,178.189 89.5,177.5C 90.2975,177.957 90.6309,178.624 90.5,179.5 Z"/></g>
<g><path style="opacity:1" fill="#afb0b8" d="M 278.5,177.5 C 279.833,177.5 280.5,178.167 280.5,179.5C 279.89,180.391 279.557,181.391 279.5,182.5C 279.5,187.5 279.5,192.5 279.5,197.5C 279.833,198.5 280.5,199.167 281.5,199.5C 282.391,200.11 283.391,200.443 284.5,200.5C 281.517,201.388 278.35,202.054 275,202.5C 273.93,202.472 273.097,202.139 272.5,201.5C 273.609,201.443 274.609,201.11 275.5,200.5C 276.818,197.742 277.485,194.576 277.5,191C 277.498,187.648 277.165,184.482 276.5,181.5C 276.5,180.833 276.167,180.5 275.5,180.5C 276.1,179.1 277.1,178.1 278.5,177.5 Z"/></g>
<g><path style="opacity:1" fill="#333438" d="M 46.5,200.5 C 47.404,201.209 47.7373,202.209 47.5,203.5C 44.2869,203.81 41.2869,203.477 38.5,202.5C 41.2804,201.922 43.9471,201.255 46.5,200.5 Z"/></g>
<g><path style="opacity:1" fill="#1d1e21" d="M 172.5,178.5 C 174.61,179.453 175.777,181.119 176,183.5C 176.162,190.624 176.995,197.624 178.5,204.5C 176.234,204.141 174.401,204.808 173,206.5C 171.634,204.638 170.134,202.972 168.5,201.5C 169.562,200.425 169.562,199.425 168.5,198.5C 162.017,201.196 159.184,199.196 160,192.5C 163.183,190.477 166.683,189.977 170.5,191C 171.136,194.79 171.803,198.623 172.5,202.5C 173.672,202.081 174.672,201.415 175.5,200.5C 173.763,193.344 172.763,186.01 172.5,178.5 Z"/></g>
<g><path style="opacity:1" fill="#35363a" d="M 237.5,199.5 C 239.363,199.846 240.196,200.846 240,202.5C 238.057,203.807 236.223,203.807 234.5,202.5C 235.9,201.9 236.9,200.9 237.5,199.5 Z"/></g>
<g><path style="opacity:1" fill="#323339" d="M 311.5,200.5 C 313.942,200.354 314.609,201.187 313.5,203C 311.288,203.789 309.288,203.622 307.5,202.5C 308.833,201.833 310.167,201.167 311.5,200.5 Z"/></g>
<g><path style="opacity:1" fill="#1b1b1e" d="M 24.5,200.5 C 25.7911,201.542 25.7911,202.708 24.5,204C 19.5251,204.332 14.6917,204.499 10,204.5C 7.12162,203.209 7.28829,201.709 10.5,200C 11.7932,199.51 13.1266,199.343 14.5,199.5C 14.8308,191.804 14.4975,184.138 13.5,176.5C 11.2554,171.487 9.42204,171.82 8,177.5C 7.31001,178.738 6.81001,178.738 6.5,177.5C 6.5,175.5 6.5,173.5 6.5,171.5C 9.77659,171.216 12.9433,171.549 16,172.5C 16.4998,181.827 16.6665,191.161 16.5,200.5C 14.2495,200.181 12.2495,200.681 10.5,202C 15.3648,202.307 20.0315,201.807 24.5,200.5 Z"/></g>
<g><path style="opacity:1" fill="#1e1e21" d="M 266.5,199.5 C 268.756,200.438 271.09,200.438 273.5,199.5C 273.167,200.167 272.833,200.833 272.5,201.5C 273.097,202.139 273.93,202.472 275,202.5C 278.35,202.054 281.517,201.388 284.5,200.5C 285.434,201.568 285.768,202.901 285.5,204.5C 279.123,204.007 272.79,204.007 266.5,204.5C 263.397,204.798 261.73,203.465 261.5,200.5C 263.542,203.004 265.208,202.67 266.5,199.5 Z"/></g>
<g><path style="opacity:1" fill="#1f1f23" d="M 289.5,181.5 C 290.458,181.953 291.292,182.619 292,183.5C 292.809,189.749 292.642,195.916 291.5,202C 293.471,202.014 295.471,201.681 297.5,201C 296.944,200.617 296.611,200.117 296.5,199.5C 297.75,199.423 298.583,198.756 299,197.5C 301.813,204.025 299.646,206.192 292.5,204C 291.333,203.5 290.5,202.667 290,201.5C 289.5,194.842 289.334,188.175 289.5,181.5 Z"/></g>
</svg>
