<svg xmlns="http://www.w3.org/2000/svg" version="1.1" width="400px" height="400px" style="shape-rendering:geometricPrecision; text-rendering:geometricPrecision; image-rendering:optimizeQuality; fill-rule:evenodd; clip-rule:evenodd" xmlns:xlink="http://www.w3.org/1999/xlink">
<g><path style="opacity:1" fill="#fefefe" d="M -0.5,-0.5 C 132.833,-0.5 266.167,-0.5 399.5,-0.5C 399.5,132.833 399.5,266.167 399.5,399.5C 266.167,399.5 132.833,399.5 -0.5,399.5C -0.5,266.167 -0.5,132.833 -0.5,-0.5 Z"/></g>
<g><path style="opacity:1" fill="#77ad92" d="M 191.5,84.5 C 189.095,85.7682 186.428,86.4349 183.5,86.5C 185.838,84.9605 188.505,84.2938 191.5,84.5 Z"/></g>
<g><path style="opacity:1" fill="#1a633e" d="M 191.5,84.5 C 197.026,84.1786 202.36,84.5119 207.5,85.5C 204.553,86.7805 202.219,88.7805 200.5,91.5C 197.39,92.0885 194.39,92.7552 191.5,93.5C 188.447,93.1107 185.78,93.7773 183.5,95.5C 181.073,95.523 178.74,96.023 176.5,97C 172.606,99.4458 168.606,101.612 164.5,103.5C 164.84,101.321 165.84,99.4877 167.5,98C 171.242,97.0967 174.909,95.9301 178.5,94.5C 176.854,93.3401 175.021,92.6734 173,92.5C 163.633,95.701 156.133,101.368 150.5,109.5C 151,109.833 151.5,110.167 152,110.5C 155.532,107.818 159.365,105.818 163.5,104.5C 160.861,106.473 158.527,108.806 156.5,111.5C 152.69,115.131 149.357,119.131 146.5,123.5C 148.016,119.866 149.182,116.199 150,112.5C 149.439,111.978 148.772,111.645 148,111.5C 146.877,113.1 145.377,114.1 143.5,114.5C 146.004,110.172 149.004,106.172 152.5,102.5C 155.982,100.252 159.316,97.7524 162.5,95C 167.068,92.5482 171.735,90.3815 176.5,88.5C 176.389,89.1174 176.056,89.6174 175.5,90C 182.34,92.5555 189.34,92.8888 196.5,91C 198.483,89.8864 200.15,88.3864 201.5,86.5C 200.167,86.1667 198.833,85.8333 197.5,85.5C 190.969,87.2427 184.303,88.2427 177.5,88.5C 179.102,86.9261 181.102,86.2594 183.5,86.5C 186.428,86.4349 189.095,85.7682 191.5,84.5 Z"/></g>
<g><path style="opacity:1" fill="#036837" d="M 176.5,88.5 C 176.833,88.5 177.167,88.5 177.5,88.5C 184.303,88.2427 190.969,87.2427 197.5,85.5C 198.833,85.8333 200.167,86.1667 201.5,86.5C 200.15,88.3864 198.483,89.8864 196.5,91C 189.34,92.8888 182.34,92.5555 175.5,90C 176.056,89.6174 176.389,89.1174 176.5,88.5 Z"/></g>
<g><path style="opacity:1" fill="#e2f5ea" d="M 207.5,85.5 C 206.826,87.0245 205.826,88.3578 204.5,89.5C 207.044,89.9491 209.71,89.9491 212.5,89.5C 210.622,90.5324 208.955,91.8657 207.5,93.5C 206.136,95.1911 204.803,96.8577 203.5,98.5C 202.766,97.2921 202.433,95.9587 202.5,94.5C 196.131,94.347 189.797,94.6803 183.5,95.5C 185.78,93.7773 188.447,93.1107 191.5,93.5C 195.012,94.0545 198.012,93.3878 200.5,91.5C 202.219,88.7805 204.553,86.7805 207.5,85.5 Z"/></g>
<g><path style="opacity:1" fill="#e3f7e7" d="M 212.5,122.5 C 221.089,125.334 228.256,123.334 234,116.5C 234.483,115.552 234.649,114.552 234.5,113.5C 234.833,113.5 235.167,113.5 235.5,113.5C 239.615,101.342 235.615,93.1754 223.5,89C 219.797,88.4213 216.131,88.588 212.5,89.5C 212.47,88.5028 212.97,87.8361 214,87.5C 218.029,86.8631 221.862,86.0298 225.5,85C 228.274,88.4487 231.607,91.1153 235.5,93C 238.498,102.358 238.165,111.525 234.5,120.5C 231.534,121.699 228.868,123.366 226.5,125.5C 222.555,124.732 218.555,124.232 214.5,124C 213.584,123.722 212.918,123.222 212.5,122.5 Z"/></g>
<g><path style="opacity:1" fill="#97c1ac" d="M 200.5,91.5 C 198.012,93.3878 195.012,94.0545 191.5,93.5C 194.39,92.7552 197.39,92.0885 200.5,91.5 Z"/></g>
<g><path style="opacity:1" fill="#fbfdfc" d="M 203.5,98.5 C 201.589,98.5743 200.422,99.5743 200,101.5C 199.211,105.091 199.378,108.591 200.5,112C 197.704,114.499 194.871,116.999 192,119.5C 191.536,120.094 191.369,120.761 191.5,121.5C 184.454,127.878 177.121,134.045 169.5,140C 167.5,140.667 165.5,140.667 163.5,140C 161.354,138.398 159.02,137.232 156.5,136.5C 150.584,135.677 144.584,135.344 138.5,135.5C 139.802,133.799 141.469,132.632 143.5,132C 144.252,131.329 144.586,130.496 144.5,129.5C 144.328,128.508 144.662,127.842 145.5,127.5C 148.538,124.48 151.372,121.146 154,117.5C 155.122,115.593 155.955,113.593 156.5,111.5C 159.32,111.752 161.986,111.252 164.5,110C 163.833,109.667 163.167,109.333 162.5,109C 167.78,103.858 174.113,100.525 181.5,99C 182.823,98.1841 183.489,97.0174 183.5,95.5C 189.797,94.6803 196.131,94.347 202.5,94.5C 202.433,95.9587 202.766,97.2921 203.5,98.5 Z"/></g>
<g><path style="opacity:1" fill="#e6f6e9" d="M 228.5,98.5 C 230.726,102.654 231.059,106.987 229.5,111.5C 229.167,111.5 228.833,111.5 228.5,111.5C 228.817,108.428 228.484,105.428 227.5,102.5C 225.475,100.804 223.475,99.137 221.5,97.5C 219.162,100.841 216.495,101.174 213.5,98.5C 212.482,99.1925 211.482,99.8592 210.5,100.5C 211.74,96.5551 214.574,94.8885 219,95.5C 222.754,95.0093 225.921,96.0093 228.5,98.5 Z"/></g>
<g><path style="opacity:1" fill="#066636" d="M 164.5,103.5 C 164.5,104.167 164.167,104.5 163.5,104.5C 159.365,105.818 155.532,107.818 152,110.5C 151.5,110.167 151,109.833 150.5,109.5C 156.133,101.368 163.633,95.701 173,92.5C 175.021,92.6734 176.854,93.3401 178.5,94.5C 174.909,95.9301 171.242,97.0967 167.5,98C 165.84,99.4877 164.84,101.321 164.5,103.5 Z"/></g>
<g><path style="opacity:1" fill="#fafcfb" d="M 228.5,111.5 C 227.244,111.904 226.077,112.571 225,113.5C 224.055,113.095 223.388,112.428 223,111.5C 222.51,112.793 222.343,114.127 222.5,115.5C 218.733,116.074 215.733,114.907 213.5,112C 212.552,111.517 211.552,111.351 210.5,111.5C 209.163,109.651 208.497,107.484 208.5,105C 208.307,102.992 208.974,101.492 210.5,100.5C 211.482,99.8592 212.482,99.1925 213.5,98.5C 216.495,101.174 219.162,100.841 221.5,97.5C 223.475,99.137 225.475,100.804 227.5,102.5C 228.484,105.428 228.817,108.428 228.5,111.5 Z"/></g>
<g><path style="opacity:1" fill="#7cb788" d="M 235.5,113.5 C 235.666,109.486 235.499,105.486 235,101.5C 234.395,99.5188 233.395,99.1854 232,100.5C 232.094,104.633 231.26,108.299 229.5,111.5C 231.059,106.987 230.726,102.654 228.5,98.5C 229.5,98.5 230.5,98.5 231.5,98.5C 231.64,96.8762 230.973,95.7096 229.5,95C 229.833,94.6667 230.167,94.3333 230.5,94C 223.373,89.2999 216.54,89.4666 210,94.5C 209.329,93.7476 208.496,93.4142 207.5,93.5C 208.955,91.8657 210.622,90.5324 212.5,89.5C 216.131,88.588 219.797,88.4213 223.5,89C 235.615,93.1754 239.615,101.342 235.5,113.5 Z"/></g>
<g><path style="opacity:1" fill="#e1f5eb" d="M 183.5,95.5 C 183.489,97.0174 182.823,98.1841 181.5,99C 174.113,100.525 167.78,103.858 162.5,109C 163.167,109.333 163.833,109.667 164.5,110C 161.986,111.252 159.32,111.752 156.5,111.5C 158.527,108.806 160.861,106.473 163.5,104.5C 164.167,104.5 164.5,104.167 164.5,103.5C 168.606,101.612 172.606,99.4458 176.5,97C 178.74,96.023 181.073,95.523 183.5,95.5 Z"/></g>
<g><path style="opacity:1" fill="#ecfcee" d="M 203.5,98.5 C 202.772,103.451 202.272,108.451 202,113.5C 198.605,116.407 195.105,119.073 191.5,121.5C 191.369,120.761 191.536,120.094 192,119.5C 194.871,116.999 197.704,114.499 200.5,112C 199.378,108.591 199.211,105.091 200,101.5C 200.422,99.5743 201.589,98.5743 203.5,98.5 Z"/></g>
<g><path style="opacity:1" fill="#66b877" d="M 235.5,113.5 C 235.167,113.5 234.833,113.5 234.5,113.5C 231.846,116.018 230.179,115.351 229.5,111.5C 231.26,108.299 232.094,104.633 232,100.5C 233.395,99.1854 234.395,99.5188 235,101.5C 235.499,105.486 235.666,109.486 235.5,113.5 Z"/></g>
<g><path style="opacity:1" fill="#046734" d="M 254.5,111.5 C 255.167,111.5 255.5,111.833 255.5,112.5C 255.215,114.288 255.548,115.955 256.5,117.5C 258.167,120.167 259.833,122.833 261.5,125.5C 261.147,127.731 260.314,129.731 259,131.5C 258.502,129.456 257.335,128.122 255.5,127.5C 255.5,127.167 255.5,126.833 255.5,126.5C 255.206,120.682 252.539,116.182 247.5,113C 247.833,112.667 248.167,112.333 248.5,112C 246.016,110.108 244.682,107.608 244.5,104.5C 248.396,106.068 251.73,108.402 254.5,111.5 Z"/></g>
<g><path style="opacity:1" fill="#d9f4e7" d="M 152.5,102.5 C 149.004,106.172 146.004,110.172 143.5,114.5C 142.167,115.833 140.833,117.167 139.5,118.5C 139.421,117.07 139.754,115.736 140.5,114.5C 142.549,110.506 145.049,106.839 148,103.5C 149.356,102.62 150.856,102.286 152.5,102.5 Z"/></g>
<g><path style="opacity:1" fill="#d1ede0" d="M 156.5,111.5 C 155.955,113.593 155.122,115.593 154,117.5C 151.372,121.146 148.538,124.48 145.5,127.5C 145.833,126.167 146.167,124.833 146.5,123.5C 149.357,119.131 152.69,115.131 156.5,111.5 Z"/></g>
<g><path style="opacity:1" fill="#67b978" d="M 213.5,116.5 C 216.764,117.324 220.098,117.658 223.5,117.5C 224.583,117.461 225.583,117.127 226.5,116.5C 227.644,119.248 226.644,121.081 223.5,122C 219.195,121.923 214.862,121.756 210.5,121.5C 209.504,120.335 208.171,119.668 206.5,119.5C 204.816,120.527 203.149,121.527 201.5,122.5C 197.476,124.307 196.142,123.141 197.5,119C 198.833,118.667 200.167,118.333 201.5,118C 202.939,115.775 204.606,113.775 206.5,112C 204.17,108.796 203.836,105.296 205.5,101.5C 205.833,101.167 206.167,100.833 206.5,100.5C 207.332,105.492 207.999,110.492 208.5,115.5C 210.216,115.629 211.883,115.962 213.5,116.5 Z"/></g>
<g><path style="opacity:1" fill="#dbf5e1" d="M 210.5,111.5 C 211.552,111.351 212.552,111.517 213.5,112C 215.733,114.907 218.733,116.074 222.5,115.5C 222.343,114.127 222.51,112.793 223,111.5C 223.388,112.428 224.055,113.095 225,113.5C 226.077,112.571 227.244,111.904 228.5,111.5C 227.55,114.115 225.883,116.115 223.5,117.5C 220.098,117.658 216.764,117.324 213.5,116.5C 212.075,115.078 211.075,113.411 210.5,111.5 Z"/></g>
<g><path style="opacity:1" fill="#78b786" d="M 228.5,111.5 C 228.833,111.5 229.167,111.5 229.5,111.5C 230.179,115.351 231.846,116.018 234.5,113.5C 234.649,114.552 234.483,115.552 234,116.5C 228.256,123.334 221.089,125.334 212.5,122.5C 211.508,122.672 210.842,122.338 210.5,121.5C 214.862,121.756 219.195,121.923 223.5,122C 226.644,121.081 227.644,119.248 226.5,116.5C 225.583,117.127 224.583,117.461 223.5,117.5C 225.883,116.115 227.55,114.115 228.5,111.5 Z"/></g>
<g><path style="opacity:1" fill="#256846" d="M 254.5,111.5 C 251.73,108.402 248.396,106.068 244.5,104.5C 244.682,107.608 246.016,110.108 248.5,112C 248.167,112.333 247.833,112.667 247.5,113C 252.539,116.182 255.206,120.682 255.5,126.5C 252.893,121.626 249.56,117.292 245.5,113.5C 243.312,109.424 242.979,105.091 244.5,100.5C 248.588,103.583 251.921,107.25 254.5,111.5 Z"/></g>
<g><path style="opacity:1" fill="#056736" d="M 146.5,123.5 C 145.5,123.5 144.5,123.5 143.5,123.5C 144.04,127.423 142.373,129.756 138.5,130.5C 138.167,130 137.833,129.5 137.5,129C 139.228,123.966 141.228,119.132 143.5,114.5C 145.377,114.1 146.877,113.1 148,111.5C 148.772,111.645 149.439,111.978 150,112.5C 149.182,116.199 148.016,119.866 146.5,123.5 Z"/></g>
<g><path style="opacity:1" fill="#e3f5ec" d="M 260.5,118.5 C 262.592,118.561 264.092,119.561 265,121.5C 267.917,128.142 270.084,135.142 271.5,142.5C 270.603,153.469 270.437,164.469 271,175.5C 270.781,174.062 270.281,172.729 269.5,171.5C 268.621,175.154 267.787,178.821 267,182.5C 266.276,184.959 264.943,185.959 263,185.5C 261.807,188.776 261.64,191.943 262.5,195C 261.874,195.75 261.374,196.584 261,197.5C 256.948,198.096 253.114,199.762 249.5,202.5C 257.144,194.881 262.477,185.881 265.5,175.5C 272.109,155.874 270.442,136.874 260.5,118.5 Z"/></g>
<g><path style="opacity:1" fill="#276546" d="M 143.5,114.5 C 141.228,119.132 139.228,123.966 137.5,129C 137.833,129.5 138.167,130 138.5,130.5C 142.373,129.756 144.04,127.423 143.5,123.5C 144.5,123.5 145.5,123.5 146.5,123.5C 146.167,124.833 145.833,126.167 145.5,127.5C 144.662,127.842 144.328,128.508 144.5,129.5C 140.783,131.109 137.283,133.109 134,135.5C 133.616,133.803 133.782,132.137 134.5,130.5C 136.167,126.5 137.833,122.5 139.5,118.5C 140.833,117.167 142.167,115.833 143.5,114.5 Z"/></g>
<g><path style="opacity:1" fill="#e4f8e7" d="M 200.5,124.5 C 199.307,127.052 197.973,129.552 196.5,132C 192.914,133.641 189.247,135.141 185.5,136.5C 185.762,137.978 185.429,139.311 184.5,140.5C 181.972,142.874 178.972,143.874 175.5,143.5C 183.286,136.441 191.619,130.108 200.5,124.5 Z"/></g>
<g><path style="opacity:1" fill="#e3f4ea" d="M 144.5,129.5 C 144.586,130.496 144.252,131.329 143.5,132C 141.469,132.632 139.802,133.799 138.5,135.5C 144.584,135.344 150.584,135.677 156.5,136.5C 148.035,135.774 140.702,138.107 134.5,143.5C 135.171,142.153 135.171,140.986 134.5,140C 135.833,139.333 136.833,138.333 137.5,137C 135.19,136.503 132.857,136.337 130.5,136.5C 130.375,133.392 131.708,131.392 134.5,130.5C 133.782,132.137 133.616,133.803 134,135.5C 137.283,133.109 140.783,131.109 144.5,129.5 Z"/></g>
<g><path style="opacity:1" fill="#19673e" d="M 255.5,112.5 C 257.167,114.5 258.833,116.5 260.5,118.5C 270.442,136.874 272.109,155.874 265.5,175.5C 266.163,168.17 266.83,160.837 267.5,153.5C 267.531,148.765 267.031,144.099 266,139.5C 263.66,145.551 263.16,151.718 264.5,158C 262.429,159.95 262.095,162.117 263.5,164.5C 262.668,167.161 261.834,169.828 261,172.5C 260.292,173.381 259.458,174.047 258.5,174.5C 263.43,158.37 262.43,142.703 255.5,127.5C 257.335,128.122 258.502,129.456 259,131.5C 260.314,129.731 261.147,127.731 261.5,125.5C 259.833,122.833 258.167,120.167 256.5,117.5C 255.548,115.955 255.215,114.288 255.5,112.5 Z"/></g>
<g><path style="opacity:1" fill="#dff3ea" d="M 245.5,113.5 C 249.56,117.292 252.893,121.626 255.5,126.5C 255.5,126.833 255.5,127.167 255.5,127.5C 262.43,142.703 263.43,158.37 258.5,174.5C 257.5,175.833 256.5,177.167 255.5,178.5C 255.705,173.847 256.872,169.513 259,165.5C 259.776,156.126 259.442,146.793 258,137.5C 256.696,146.004 256.029,154.671 256,163.5C 255.801,161.598 254.967,160.098 253.5,159C 254.733,157.302 255.4,155.302 255.5,153C 255.177,145.253 255.177,137.42 255.5,129.5C 254.07,129.421 252.736,129.754 251.5,130.5C 249.904,128.016 249.571,125.516 250.5,123C 247.787,120.436 246.12,117.269 245.5,113.5 Z"/></g>
<g><path style="opacity:1" fill="#6fb77e" d="M 228.5,98.5 C 225.921,96.0093 222.754,95.0093 219,95.5C 214.574,94.8885 211.74,96.5551 210.5,100.5C 208.974,101.492 208.307,102.992 208.5,105C 208.497,107.484 209.163,109.651 210.5,111.5C 211.075,113.411 212.075,115.078 213.5,116.5C 211.883,115.962 210.216,115.629 208.5,115.5C 207.999,110.492 207.332,105.492 206.5,100.5C 206.167,100.833 205.833,101.167 205.5,101.5C 203.836,105.296 204.17,108.796 206.5,112C 204.606,113.775 202.939,115.775 201.5,118C 200.167,118.333 198.833,118.667 197.5,119C 196.142,123.141 197.476,124.307 201.5,122.5C 201.167,123.167 200.833,123.833 200.5,124.5C 191.619,130.108 183.286,136.441 175.5,143.5C 172.908,145.036 171.908,147.369 172.5,150.5C 172.5,151.833 172.5,153.167 172.5,154.5C 171.685,153.571 170.852,152.571 170,151.5C 170.011,158.576 168.844,165.409 166.5,172C 162.827,173.17 159.494,174.836 156.5,177C 152.747,177.091 149.08,177.258 145.5,177.5C 144.287,177.253 143.62,176.586 143.5,175.5C 154.437,178.101 162.103,174.435 166.5,164.5C 168.427,161.863 168.927,158.863 168,155.5C 166.827,151.663 164.827,148.329 162,145.5C 157.642,142.806 153.142,142.14 148.5,143.5C 145.386,143.555 143.052,144.888 141.5,147.5C 138.482,148.353 136.649,150.353 136,153.5C 135.333,157.167 135.333,160.833 136,164.5C 136.236,166.119 137.069,167.119 138.5,167.5C 139.415,169.754 140.748,171.754 142.5,173.5C 141.5,173.5 140.5,173.5 139.5,173.5C 139.421,174.93 139.754,176.264 140.5,177.5C 141.993,178.141 142.993,179.141 143.5,180.5C 131.073,174.783 126.573,165.116 130,151.5C 131.456,148.924 132.623,146.258 133.5,143.5C 133.833,143.5 134.167,143.5 134.5,143.5C 140.702,138.107 148.035,135.774 156.5,136.5C 159.02,137.232 161.354,138.398 163.5,140C 165.5,140.667 167.5,140.667 169.5,140C 177.121,134.045 184.454,127.878 191.5,121.5C 195.105,119.073 198.605,116.407 202,113.5C 202.272,108.451 202.772,103.451 203.5,98.5C 204.803,96.8577 206.136,95.1911 207.5,93.5C 208.496,93.4142 209.329,93.7476 210,94.5C 216.54,89.4666 223.373,89.2999 230.5,94C 230.167,94.3333 229.833,94.6667 229.5,95C 230.973,95.7096 231.64,96.8762 231.5,98.5C 230.5,98.5 229.5,98.5 228.5,98.5 Z"/></g>
<g><path style="opacity:1" fill="#fcfcfc" d="M 148.5,143.5 C 152.889,143.639 157.056,144.639 161,146.5C 165.525,151.581 167.358,157.581 166.5,164.5C 165.5,164.5 164.5,164.5 163.5,164.5C 163.617,166.484 162.95,168.15 161.5,169.5C 158.957,170.803 156.29,171.803 153.5,172.5C 149.981,171.068 146.314,170.234 142.5,170C 141.529,168.519 140.196,167.685 138.5,167.5C 136.613,160.349 137.613,153.683 141.5,147.5C 143.052,144.888 145.386,143.555 148.5,143.5 Z"/></g>
<g><path style="opacity:1" fill="#d8f3de" d="M 148.5,143.5 C 153.142,142.14 157.642,142.806 162,145.5C 164.827,148.329 166.827,151.663 168,155.5C 168.927,158.863 168.427,161.863 166.5,164.5C 167.358,157.581 165.525,151.581 161,146.5C 157.056,144.639 152.889,143.639 148.5,143.5 Z"/></g>
<g><path style="opacity:1" fill="#ebf9ed" d="M 248.5,146.5 C 238.006,137.313 229.673,138.98 223.5,151.5C 219.314,151.544 215.147,151.877 211,152.5C 207.366,151.567 203.699,150.567 200,149.5C 196.927,149.523 194.26,150.523 192,152.5C 190.432,158.625 191.599,163.958 195.5,168.5C 193.321,168.16 191.488,167.16 190,165.5C 189.667,165.833 189.333,166.167 189,166.5C 188.131,163.67 186.964,161.003 185.5,158.5C 186.833,155.833 188.167,153.167 189.5,150.5C 192.685,149.832 195.518,148.498 198,146.5C 201.514,146.988 205.181,147.988 209,149.5C 213.807,149.12 218.64,149.12 223.5,149.5C 223.328,147.508 223.995,145.842 225.5,144.5C 224.147,143.476 223.48,142.143 223.5,140.5C 228.371,139.741 233.205,138.741 238,137.5C 244.481,137.153 247.981,140.153 248.5,146.5 Z"/></g>
<g><path style="opacity:1" fill="#76b884" d="M 223.5,151.5 C 218.655,152.963 213.655,154.297 208.5,155.5C 207.914,155.291 207.414,154.957 207,154.5C 204.94,157.572 205.107,160.238 207.5,162.5C 206.55,165.115 204.883,167.115 202.5,168.5C 200.167,168.5 197.833,168.5 195.5,168.5C 191.599,163.958 190.432,158.625 192,152.5C 194.26,150.523 196.927,149.523 200,149.5C 203.699,150.567 207.366,151.567 211,152.5C 215.147,151.877 219.314,151.544 223.5,151.5 Z"/></g>
<g><path style="opacity:1" fill="#62ba78" d="M 213.5,158.5 C 211.5,158.833 209.5,159.167 207.5,159.5C 207.5,160.5 207.5,161.5 207.5,162.5C 205.107,160.238 204.94,157.572 207,154.5C 207.414,154.957 207.914,155.291 208.5,155.5C 213.655,154.297 218.655,152.963 223.5,151.5C 225.144,151.714 226.644,151.38 228,150.5C 228.72,152.112 228.554,153.612 227.5,155C 223.833,155.333 220.167,155.667 216.5,156C 214.881,156.236 213.881,157.069 213.5,158.5 Z"/></g>
<g><path style="opacity:1" fill="#036835" d="M 265.5,175.5 C 264.624,175.369 263.957,175.702 263.5,176.5C 262.257,182.669 259.257,187.669 254.5,191.5C 253.692,191.192 253.025,190.692 252.5,190C 254.238,187.358 255.571,184.525 256.5,181.5C 257.425,180.359 258.259,180.359 259,181.5C 259.5,180.5 260,179.5 260.5,178.5C 260.154,177.304 259.654,177.304 259,178.5C 258.51,177.207 258.343,175.873 258.5,174.5C 259.458,174.047 260.292,173.381 261,172.5C 261.834,169.828 262.668,167.161 263.5,164.5C 262.095,162.117 262.429,159.95 264.5,158C 263.16,151.718 263.66,145.551 266,139.5C 267.031,144.099 267.531,148.765 267.5,153.5C 266.83,160.837 266.163,168.17 265.5,175.5 Z"/></g>
<g><path style="opacity:1" fill="#6db77d" d="M 248.5,146.5 C 251.809,156.883 248.142,163.216 237.5,165.5C 238.422,160.927 236.422,159.093 231.5,160C 231.833,160.333 232.167,160.667 232.5,161C 231.391,162.876 230.391,164.709 229.5,166.5C 229.723,161.931 227.723,158.931 223.5,157.5C 220.455,157.508 217.455,157.841 214.5,158.5C 214.167,158.5 213.833,158.5 213.5,158.5C 213.881,157.069 214.881,156.236 216.5,156C 220.167,155.667 223.833,155.333 227.5,155C 228.554,153.612 228.72,152.112 228,150.5C 226.644,151.38 225.144,151.714 223.5,151.5C 229.673,138.98 238.006,137.313 248.5,146.5 Z"/></g>
<g><path style="opacity:1" fill="#e5f9e9" d="M 241.5,156.5 C 241.389,157.117 241.056,157.617 240.5,158C 233,159.833 230.167,157 232,149.5C 235.375,145.552 238.875,145.552 242.5,149.5C 244.191,152.345 243.857,154.679 241.5,156.5 Z"/></g>
<g><path style="opacity:1" fill="#fafafb" d="M 241.5,156.5 C 239.602,155.911 237.602,155.744 235.5,156C 232.627,153.629 232.961,151.796 236.5,150.5C 237.5,151.833 238.5,151.833 239.5,150.5C 241.283,152.023 241.949,154.023 241.5,156.5 Z"/></g>
<g><path style="opacity:1" fill="#e5f8e7" d="M 141.5,147.5 C 137.613,153.683 136.613,160.349 138.5,167.5C 137.069,167.119 136.236,166.119 136,164.5C 135.333,160.833 135.333,157.167 136,153.5C 136.649,150.353 138.482,148.353 141.5,147.5 Z"/></g>
<g><path style="opacity:1" fill="#eaf7ea" d="M 196.5,154.5 C 202.02,154.151 204.354,156.817 203.5,162.5C 196.461,163.717 194.128,161.051 196.5,154.5 Z"/></g>
<g><path style="opacity:1" fill="#d7f5dd" d="M 223.5,157.5 C 227.723,158.931 229.723,161.931 229.5,166.5C 227.953,167.768 226.953,169.435 226.5,171.5C 225.5,172.833 224.5,174.167 223.5,175.5C 225.243,171.035 226.576,166.368 227.5,161.5C 226.167,161.5 224.833,161.5 223.5,161.5C 223.5,160.167 223.5,158.833 223.5,157.5 Z"/></g>
<g><path style="opacity:1" fill="#66b975" d="M 237.5,165.5 C 235.284,166.203 233.451,167.536 232,169.5C 230.899,172.867 229.399,176.034 227.5,179C 226.4,179.432 225.733,178.932 225.5,177.5C 226.156,175.547 226.489,173.547 226.5,171.5C 226.953,169.435 227.953,167.768 229.5,166.5C 230.391,164.709 231.391,162.876 232.5,161C 232.167,160.667 231.833,160.333 231.5,160C 236.422,159.093 238.422,160.927 237.5,165.5 Z"/></g>
<g><path style="opacity:1" fill="#e7faec" d="M 248.5,146.5 C 249.5,146.5 250.5,146.5 251.5,146.5C 251.786,151.261 251.786,155.928 251.5,160.5C 247.195,165.227 241.862,167.894 235.5,168.5C 236.167,167.5 236.833,166.5 237.5,165.5C 248.142,163.216 251.809,156.883 248.5,146.5 Z"/></g>
<g><path style="opacity:1" fill="#d8f0df" d="M 213.5,158.5 C 213.833,158.5 214.167,158.5 214.5,158.5C 213.469,159.249 212.302,159.915 211,160.5C 210.83,162.715 210.163,164.715 209,166.5C 208.667,166.167 208.333,165.833 208,165.5C 206.654,167.342 204.821,168.342 202.5,168.5C 204.883,167.115 206.55,165.115 207.5,162.5C 207.5,161.5 207.5,160.5 207.5,159.5C 209.5,159.167 211.5,158.833 213.5,158.5 Z"/></g>
<g><path style="opacity:1" fill="#eafaef" d="M 166.5,164.5 C 162.103,174.435 154.437,178.101 143.5,175.5C 143.672,174.508 143.338,173.842 142.5,173.5C 140.748,171.754 139.415,169.754 138.5,167.5C 140.196,167.685 141.529,168.519 142.5,170C 146.314,170.234 149.981,171.068 153.5,172.5C 156.29,171.803 158.957,170.803 161.5,169.5C 162.95,168.15 163.617,166.484 163.5,164.5C 164.5,164.5 165.5,164.5 166.5,164.5 Z"/></g>
<g><path style="opacity:1" fill="#7ab687" d="M 172.5,150.5 C 173.952,152.848 174.618,155.514 174.5,158.5C 174.233,162.401 173.567,166.234 172.5,170C 173.652,172.318 175.319,174.151 177.5,175.5C 175.712,175.215 174.045,175.548 172.5,176.5C 174.297,177.695 175.297,179.362 175.5,181.5C 172.646,180.116 169.98,178.45 167.5,176.5C 164.823,177.852 162.156,179.185 159.5,180.5C 159.5,179.5 159.5,178.5 159.5,177.5C 163.33,176 167.33,175.333 171.5,175.5C 171.773,168.496 172.106,161.496 172.5,154.5C 172.5,153.167 172.5,151.833 172.5,150.5 Z"/></g>
<g><path style="opacity:1" fill="#65ba79" d="M 172.5,154.5 C 172.106,161.496 171.773,168.496 171.5,175.5C 167.33,175.333 163.33,176 159.5,177.5C 159.5,178.5 159.5,179.5 159.5,180.5C 159.5,180.833 159.5,181.167 159.5,181.5C 153.974,181.821 148.64,181.488 143.5,180.5C 142.993,179.141 141.993,178.141 140.5,177.5C 139.754,176.264 139.421,174.93 139.5,173.5C 140.5,173.5 141.5,173.5 142.5,173.5C 143.338,173.842 143.672,174.508 143.5,175.5C 143.62,176.586 144.287,177.253 145.5,177.5C 149.08,177.258 152.747,177.091 156.5,177C 159.494,174.836 162.827,173.17 166.5,172C 168.844,165.409 170.011,158.576 170,151.5C 170.852,152.571 171.685,153.571 172.5,154.5 Z"/></g>
<g><path style="opacity:1" fill="#fcfcfd" d="M 189.5,191.5 C 191.027,191.427 192.027,192.094 192.5,193.5C 194.59,198.23 194.924,203.064 193.5,208C 203.216,214.587 202.216,216.254 190.5,213C 186.193,212.163 182.193,210.496 178.5,208C 176.527,207.505 174.527,207.338 172.5,207.5C 172.719,206.325 172.386,205.325 171.5,204.5C 167.355,203.263 163.688,201.263 160.5,198.5C 159.723,196.219 158.723,194.052 157.5,192C 158.956,191.577 159.456,190.744 159,189.5C 157.186,190.76 155.353,190.76 153.5,189.5C 152.355,188.109 152.355,186.776 153.5,185.5C 155.409,184.652 157.409,184.318 159.5,184.5C 159.5,183.5 159.5,182.5 159.5,181.5C 165.082,179.414 170.082,180.248 174.5,184C 172.291,184.957 172.457,186.124 175,187.5C 175.249,186.376 175.749,185.376 176.5,184.5C 180.485,187.569 184.818,189.902 189.5,191.5 Z"/></g>
<g><path style="opacity:1" fill="#ebfbee" d="M 175.5,181.5 C 180.785,183.934 185.451,187.268 189.5,191.5C 184.818,189.902 180.485,187.569 176.5,184.5C 175.749,185.376 175.249,186.376 175,187.5C 172.457,186.124 172.291,184.957 174.5,184C 170.082,180.248 165.082,179.414 159.5,181.5C 159.5,181.167 159.5,180.833 159.5,180.5C 162.156,179.185 164.823,177.852 167.5,176.5C 169.98,178.45 172.646,180.116 175.5,181.5 Z"/></g>
<g><path style="opacity:1" fill="#ddf4e0" d="M 223.5,175.5 C 223.178,178.306 222.178,180.806 220.5,183C 215.981,183.175 211.647,183.675 207.5,184.5C 207.167,184.5 206.833,184.5 206.5,184.5C 204.122,186.041 201.622,187.375 199,188.5C 194.43,186.424 190.263,183.757 186.5,180.5C 192.199,180.599 196.699,182.932 200,187.5C 201.522,184.776 203.689,182.776 206.5,181.5C 210.484,182.77 214.484,182.77 218.5,181.5C 218.783,178.242 220.45,176.242 223.5,175.5 Z"/></g>
<g><path style="opacity:1" fill="#73b883" d="M 177.5,175.5 C 180.366,177.432 183.366,179.099 186.5,180.5C 190.263,183.757 194.43,186.424 199,188.5C 201.622,187.375 204.122,186.041 206.5,184.5C 204.499,188.651 201.166,190.485 196.5,190C 195.272,191.49 195.272,192.99 196.5,194.5C 195.167,194.167 193.833,193.833 192.5,193.5C 192.027,192.094 191.027,191.427 189.5,191.5C 185.451,187.268 180.785,183.934 175.5,181.5C 175.297,179.362 174.297,177.695 172.5,176.5C 174.045,175.548 175.712,175.215 177.5,175.5 Z"/></g>
<g><path style="opacity:1" fill="#64b977" d="M 206.5,184.5 C 206.833,184.5 207.167,184.5 207.5,184.5C 213.167,184.5 218.833,184.5 224.5,184.5C 224.663,186.857 224.497,189.19 224,191.5C 219.672,187.578 214.672,186.578 209,188.5C 207.97,188.836 207.47,189.503 207.5,190.5C 204.513,193.419 202.846,197.086 202.5,201.5C 202.5,203.5 202.5,205.5 202.5,207.5C 201.5,207.5 200.5,207.5 199.5,207.5C 199.495,204.468 199.162,201.468 198.5,198.5C 198.36,196.97 197.693,195.97 196.5,195.5C 196.5,195.167 196.5,194.833 196.5,194.5C 195.272,192.99 195.272,191.49 196.5,190C 201.166,190.485 204.499,188.651 206.5,184.5 Z"/></g>
<g><path style="opacity:1" fill="#f3faf5" d="M 202.5,201.5 C 202.846,197.086 204.513,193.419 207.5,190.5C 218.107,187.704 223.274,191.704 223,202.5C 218.72,209.832 212.887,211.332 205.5,207C 204.391,205.124 203.391,203.291 202.5,201.5 Z"/></g>
<g><path style="opacity:1" fill="#16643c" d="M 258.5,174.5 C 258.343,175.873 258.51,177.207 259,178.5C 259.654,177.304 260.154,177.304 260.5,178.5C 260,179.5 259.5,180.5 259,181.5C 258.259,180.359 257.425,180.359 256.5,181.5C 255.571,184.525 254.238,187.358 252.5,190C 253.025,190.692 253.692,191.192 254.5,191.5C 259.257,187.669 262.257,182.669 263.5,176.5C 263.957,175.702 264.624,175.369 265.5,175.5C 262.477,185.881 257.144,194.881 249.5,202.5C 244.321,207.677 238.487,212.011 232,215.5C 233.038,213.042 233.871,210.375 234.5,207.5C 235.793,206.158 236.626,204.491 237,202.5C 241.4,199.602 244.9,195.935 247.5,191.5C 250.952,187.701 253.618,183.368 255.5,178.5C 256.5,177.167 257.5,175.833 258.5,174.5 Z"/></g>
<g><path style="opacity:1" fill="#dcf3e8" d="M 247.5,191.5 C 244.9,195.935 241.4,199.602 237,202.5C 236.626,204.491 235.793,206.158 234.5,207.5C 234.184,202.563 236.184,199.063 240.5,197C 241.676,193.74 244.009,191.907 247.5,191.5 Z"/></g>
<g><path style="opacity:1" fill="#73b881" d="M 237.5,165.5 C 236.833,166.5 236.167,167.5 235.5,168.5C 232.398,173.593 229.565,178.926 227,184.5C 226.833,185.667 226.667,186.833 226.5,188C 226.608,189.681 227.275,190.848 228.5,191.5C 232.029,208.8 225.029,216.966 207.5,216C 199.214,211.81 195.547,204.976 196.5,195.5C 197.693,195.97 198.36,196.97 198.5,198.5C 199.162,201.468 199.495,204.468 199.5,207.5C 200.5,207.5 201.5,207.5 202.5,207.5C 202.5,205.5 202.5,203.5 202.5,201.5C 203.391,203.291 204.391,205.124 205.5,207C 212.887,211.332 218.72,209.832 223,202.5C 223.274,191.704 218.107,187.704 207.5,190.5C 207.47,189.503 207.97,188.836 209,188.5C 214.672,186.578 219.672,187.578 224,191.5C 224.497,189.19 224.663,186.857 224.5,184.5C 218.833,184.5 213.167,184.5 207.5,184.5C 211.647,183.675 215.981,183.175 220.5,183C 222.178,180.806 223.178,178.306 223.5,175.5C 224.5,174.167 225.5,172.833 226.5,171.5C 226.489,173.547 226.156,175.547 225.5,177.5C 225.733,178.932 226.4,179.432 227.5,179C 229.399,176.034 230.899,172.867 232,169.5C 233.451,167.536 235.284,166.203 237.5,165.5 Z"/></g>
<g><path style="opacity:1" fill="#0f6639" d="M 185.5,213.5 C 187.928,215.8 190.928,216.967 194.5,217C 195.841,218.826 195.341,219.993 193,220.5C 185.568,218.629 177.735,216.963 169.5,215.5C 168.167,215.167 166.833,214.833 165.5,214.5C 158.941,210.283 152.941,205.283 147.5,199.5C 144.844,195.529 142.177,191.529 139.5,187.5C 139.833,187.167 140.167,186.833 140.5,186.5C 143.748,187.645 147.081,188.479 150.5,189C 159.247,201.233 170.914,209.4 185.5,213.5 Z"/></g>
<g><path style="opacity:1" fill="#1d643f" d="M 185.5,213.5 C 191.736,213.015 196.736,215.182 200.5,220C 201.745,220.791 203.078,221.291 204.5,221.5C 200.702,222.483 196.702,222.817 192.5,222.5C 184.077,222.357 176.411,220.024 169.5,215.5C 177.735,216.963 185.568,218.629 193,220.5C 195.341,219.993 195.841,218.826 194.5,217C 190.928,216.967 187.928,215.8 185.5,213.5 Z"/></g>
<g><path style="opacity:1" fill="#e9f8ef" d="M 133.5,143.5 C 132.623,146.258 131.456,148.924 130,151.5C 126.573,165.116 131.073,174.783 143.5,180.5C 148.64,181.488 153.974,181.821 159.5,181.5C 159.5,182.5 159.5,183.5 159.5,184.5C 157.409,184.318 155.409,184.652 153.5,185.5C 152.355,186.776 152.355,188.109 153.5,189.5C 155.353,190.76 157.186,190.76 159,189.5C 159.456,190.744 158.956,191.577 157.5,192C 158.723,194.052 159.723,196.219 160.5,198.5C 163.688,201.263 167.355,203.263 171.5,204.5C 172.386,205.325 172.719,206.325 172.5,207.5C 174.527,207.338 176.527,207.505 178.5,208C 182.193,210.496 186.193,212.163 190.5,213C 202.216,216.254 203.216,214.587 193.5,208C 194.924,203.064 194.59,198.23 192.5,193.5C 193.833,193.833 195.167,194.167 196.5,194.5C 196.5,194.833 196.5,195.167 196.5,195.5C 195.547,204.976 199.214,211.81 207.5,216C 225.029,216.966 232.029,208.8 228.5,191.5C 229.5,191.5 230.5,191.5 231.5,191.5C 231.334,196.511 231.501,201.511 232,206.5C 232.671,207.252 233.504,207.586 234.5,207.5C 233.871,210.375 233.038,213.042 232,215.5C 238.487,212.011 244.321,207.677 249.5,202.5C 249.5,204.167 249.5,205.833 249.5,207.5C 248.127,207.343 246.793,207.51 245.5,208C 243.366,210.886 241.032,213.553 238.5,216C 239.554,217.388 239.72,218.888 239,220.5C 237.089,217.697 234.589,217.03 231.5,218.5C 232.115,220.116 233.115,221.449 234.5,222.5C 230.977,223.244 227.977,222.077 225.5,219C 226.668,217.129 226.168,215.629 224,214.5C 218.142,217.117 211.975,218.117 205.5,217.5C 205.281,218.675 205.614,219.675 206.5,220.5C 208.541,221.236 210.541,222.069 212.5,223C 212.043,223.414 211.709,223.914 211.5,224.5C 207.359,225.331 203.192,225.997 199,226.5C 192.04,224.149 184.873,222.649 177.5,222C 174.036,219.953 170.37,218.287 166.5,217C 165.748,216.329 165.414,215.496 165.5,214.5C 166.833,214.833 168.167,215.167 169.5,215.5C 176.411,220.024 184.077,222.357 192.5,222.5C 197.316,223.65 202.316,223.816 207.5,223C 206.756,221.961 205.756,221.461 204.5,221.5C 203.078,221.291 201.745,220.791 200.5,220C 196.736,215.182 191.736,213.015 185.5,213.5C 170.914,209.4 159.247,201.233 150.5,189C 147.081,188.479 143.748,187.645 140.5,186.5C 140.167,186.833 139.833,187.167 139.5,187.5C 142.177,191.529 144.844,195.529 147.5,199.5C 146.883,199.611 146.383,199.944 146,200.5C 143.766,198.3 141.266,196.467 138.5,195C 137.5,192.667 136.5,190.333 135.5,188C 136.669,186.164 138.336,184.998 140.5,184.5C 141.606,181.301 140.273,179.635 136.5,179.5C 133.845,180.138 132.511,181.472 132.5,183.5C 131.231,181.305 131.231,179.139 132.5,177C 130.42,174.084 128.92,170.917 128,167.5C 127.28,160.464 127.447,153.464 128.5,146.5C 129.5,146.5 130.5,146.5 131.5,146.5C 131.285,144.821 131.952,143.821 133.5,143.5 Z"/></g>
<g><path style="opacity:1" fill="#62a383" d="M 204.5,221.5 C 205.756,221.461 206.756,221.961 207.5,223C 202.316,223.816 197.316,223.65 192.5,222.5C 196.702,222.817 200.702,222.483 204.5,221.5 Z"/></g>
<g><path style="opacity:1" fill="#c9dbd2" d="M 253.5,241.5 C 249.404,239.72 245.071,239.054 240.5,239.5C 243.897,238.802 247.397,238.135 251,237.5C 252.706,238.308 253.539,239.641 253.5,241.5 Z"/></g>
<g><path style="opacity:1" fill="#6da289" d="M 209.5,271.5 C 209.5,261.167 209.5,250.833 209.5,240.5C 208.5,240.5 207.5,240.5 206.5,240.5C 206.831,248.196 206.497,255.862 205.5,263.5C 204.893,263.376 204.56,263.043 204.5,262.5C 205.492,255.352 205.825,248.019 205.5,240.5C 206.919,239.549 208.585,239.216 210.5,239.5C 210.828,250.346 210.494,261.013 209.5,271.5 Z"/></g>
<g><path style="opacity:1" fill="#206743" d="M 240.5,239.5 C 245.071,239.054 249.404,239.72 253.5,241.5C 263.843,253.417 262.51,263.75 249.5,272.5C 245.731,272.756 242.064,272.423 238.5,271.5C 227.42,262.191 226.753,252.191 236.5,241.5C 237.605,240.4 238.938,239.733 240.5,239.5 Z"/></g>
<g><path style="opacity:1" fill="#f8fbfa" d="M 249.5,244.5 C 255.647,249.161 257.147,255.161 254,262.5C 253.148,263.571 252.315,264.571 251.5,265.5C 248.201,266.376 244.868,266.543 241.5,266C 239.977,263.246 238.311,260.579 236.5,258C 236.493,256.188 237.16,254.688 238.5,253.5C 237.184,250.107 238.184,247.441 241.5,245.5C 244.086,244.52 246.753,244.187 249.5,244.5 Z"/></g>
<g><path style="opacity:1" fill="#d9eee3" d="M 249.5,244.5 C 246.753,244.187 244.086,244.52 241.5,245.5C 238.184,247.441 237.184,250.107 238.5,253.5C 237.16,254.688 236.493,256.188 236.5,258C 238.311,260.579 239.977,263.246 241.5,266C 244.868,266.543 248.201,266.376 251.5,265.5C 241.238,270.856 235.571,267.522 234.5,255.5C 235.449,245.847 240.449,242.18 249.5,244.5 Z"/></g>
<g><path style="opacity:1" fill="#17643e" d="M 189.5,240.5 C 189.833,241.5 190.5,242.167 191.5,242.5C 195.807,249.149 200.141,255.816 204.5,262.5C 204.56,263.043 204.893,263.376 205.5,263.5C 206.497,255.862 206.831,248.196 206.5,240.5C 207.5,240.5 208.5,240.5 209.5,240.5C 209.5,250.833 209.5,261.167 209.5,271.5C 207.856,271.714 206.356,271.38 205,270.5C 199.823,262.805 194.657,255.138 189.5,247.5C 189.44,246.957 189.107,246.624 188.5,246.5C 187.502,254.807 187.169,263.14 187.5,271.5C 186.5,271.5 185.5,271.5 184.5,271.5C 184.5,261.167 184.5,250.833 184.5,240.5C 186.167,240.5 187.833,240.5 189.5,240.5 Z"/></g>
<g><path style="opacity:1" fill="#e2f8ee" d="M 205.5,240.5 C 205.825,248.019 205.492,255.352 204.5,262.5C 200.141,255.816 195.807,249.149 191.5,242.5C 194.766,242.433 196.266,244.099 196,247.5C 197.264,249.607 199.097,250.607 201.5,250.5C 201.28,253.4 201.946,256.067 203.5,258.5C 204.167,252.346 204.833,246.346 205.5,240.5 Z"/></g>
<g><path style="opacity:1" fill="#d1e9db" d="M 274.5,252.5 C 276.411,252.574 277.578,253.574 278,255.5C 278.499,260.823 278.666,266.156 278.5,271.5C 279.833,271.5 281.167,271.5 282.5,271.5C 281.081,272.451 279.415,272.784 277.5,272.5C 277.666,267.156 277.499,261.823 277,256.5C 274.772,254.887 272.272,254.22 269.5,254.5C 269.5,260.5 269.5,266.5 269.5,272.5C 267.5,272.5 265.5,272.5 263.5,272.5C 263.5,272.167 263.5,271.833 263.5,271.5C 264.833,271.5 266.167,271.5 267.5,271.5C 268.49,265.355 268.823,259.022 268.5,252.5C 270.5,252.5 272.5,252.5 274.5,252.5 Z"/></g>
<g><path style="opacity:1" fill="#76a38d" d="M 189.5,247.5 C 188.833,255.5 188.167,263.5 187.5,271.5C 187.169,263.14 187.502,254.807 188.5,246.5C 189.107,246.624 189.44,246.957 189.5,247.5 Z"/></g>
<g><path style="opacity:1" fill="#3a7c5c" d="M 183.5,239.5 C 185.735,239.205 187.735,239.539 189.5,240.5C 187.833,240.5 186.167,240.5 184.5,240.5C 184.5,250.833 184.5,261.167 184.5,271.5C 184.167,271.5 183.833,271.5 183.5,271.5C 183.5,260.833 183.5,250.167 183.5,239.5 Z"/></g>
<g><path style="opacity:1" fill="#dcf2e5" d="M 236.5,241.5 C 226.753,252.191 227.42,262.191 238.5,271.5C 233.515,271.86 230.515,269.526 229.5,264.5C 229.167,261.833 228.833,259.167 228.5,256.5C 228.562,253.387 229.229,250.554 230.5,248C 229.978,247.439 229.645,246.772 229.5,246C 231.461,243.863 233.794,242.363 236.5,241.5 Z"/></g>
<g><path style="opacity:1" fill="#1a663f" d="M 310.5,261.5 C 304.5,261.5 298.5,261.5 292.5,261.5C 292.5,264.833 294.167,266.5 297.5,266.5C 301.298,267.483 305.298,267.817 309.5,267.5C 309.5,268.833 309.5,270.167 309.5,271.5C 304.167,271.5 298.833,271.5 293.5,271.5C 291.408,270.106 289.742,268.272 288.5,266C 287.596,261.889 287.263,257.722 287.5,253.5C 292.893,244.64 299.726,243.306 308,249.5C 310.132,253.208 310.965,257.208 310.5,261.5 Z"/></g>
<g><path style="opacity:1" fill="#cdefdf" d="M 295.5,250.5 C 298.32,250.248 300.986,250.748 303.5,252C 305.037,253.11 305.703,254.61 305.5,256.5C 301.167,256.5 296.833,256.5 292.5,256.5C 292.615,254.053 293.615,252.053 295.5,250.5 Z"/></g>
<g><path style="opacity:1" fill="#faf9fa" d="M 296.5,251.5 C 298.958,251.227 300.625,252.227 301.5,254.5C 299.604,255.466 297.604,255.799 295.5,255.5C 295.433,254.041 295.766,252.708 296.5,251.5 Z"/></g>
<g><path style="opacity:1" fill="#f1f9f6" d="M 189.5,247.5 C 194.657,255.138 199.823,262.805 205,270.5C 206.356,271.38 207.856,271.714 209.5,271.5C 207.008,272.502 204.342,272.502 201.5,271.5C 199.754,271.971 198.087,272.638 196.5,273.5C 194.613,271.867 193.113,272.2 192,274.5C 191.311,273.643 190.478,272.977 189.5,272.5C 187.275,273.101 185.109,273.434 183,273.5C 180.931,272.736 178.764,272.236 176.5,272C 177.252,271.329 177.586,270.496 177.5,269.5C 179.847,266.32 181.347,262.653 182,258.5C 182.175,263.019 182.675,267.353 183.5,271.5C 183.833,271.5 184.167,271.5 184.5,271.5C 185.5,271.5 186.5,271.5 187.5,271.5C 188.167,263.5 188.833,255.5 189.5,247.5 Z"/></g>
<g><path style="opacity:1" fill="#e9f7ef" d="M 310.5,261.5 C 309.962,263.117 309.629,264.784 309.5,266.5C 305.5,266.5 301.5,266.5 297.5,266.5C 294.167,266.5 292.5,264.833 292.5,261.5C 298.5,261.5 304.5,261.5 310.5,261.5 Z"/></g>
<g><path style="opacity:1" fill="#e5f4ec" d="M 159.5,239.5 C 151.421,244.677 148.588,252.01 151,261.5C 153.01,265.324 155.51,268.658 158.5,271.5C 155.644,270.586 153.144,268.919 151,266.5C 148.403,258.328 146.903,258.661 146.5,267.5C 146.551,269.1 146.884,270.6 147.5,272C 142.198,274.338 137.198,273.838 132.5,270.5C 137.792,263.097 135.792,259.763 126.5,260.5C 125.231,262.695 125.231,264.861 126.5,267C 125.915,268.302 125.249,269.469 124.5,270.5C 124.5,266.833 124.5,263.167 124.5,259.5C 128.6,259.237 132.6,259.57 136.5,260.5C 138.147,263.729 139.814,267.063 141.5,270.5C 142.689,271.429 144.022,271.762 145.5,271.5C 144.696,266.882 143.029,262.549 140.5,258.5C 142.342,257.158 143.842,255.491 145,253.5C 147.038,247.329 145.204,242.996 139.5,240.5C 133.021,239.509 126.354,239.176 119.5,239.5C 119.5,250.167 119.5,260.833 119.5,271.5C 119.156,262.287 118.156,253.287 116.5,244.5C 116.5,242.833 116.5,241.167 116.5,239.5C 106.985,239.173 97.6517,239.506 88.5,240.5C 87.5655,241.568 87.2322,242.901 87.5,244.5C 91.8333,244.5 96.1667,244.5 100.5,244.5C 100.5,253.5 100.5,262.5 100.5,271.5C 98.8514,263.54 97.8514,255.207 97.5,246.5C 96.8076,247.025 96.3076,247.692 96,248.5C 93.5598,247.729 91.0598,247.562 88.5,248C 86.0544,245.514 85.3877,242.68 86.5,239.5C 95.8052,238.778 105.139,238.112 114.5,237.5C 124.147,238.256 133.814,238.756 143.5,239C 145.773,242.478 147.273,246.311 148,250.5C 149.861,248.112 151.194,245.446 152,242.5C 153.067,241.809 154.234,241.309 155.5,241C 155.167,240.667 154.833,240.333 154.5,240C 156.134,239.506 157.801,239.34 159.5,239.5 Z"/></g>
<g><path style="opacity:1" fill="#17633d" d="M 139.5,240.5 C 145.204,242.996 147.038,247.329 145,253.5C 143.842,255.491 142.342,257.158 140.5,258.5C 143.029,262.549 144.696,266.882 145.5,271.5C 144.022,271.762 142.689,271.429 141.5,270.5C 139.814,267.063 138.147,263.729 136.5,260.5C 132.627,258.57 128.294,257.903 123.5,258.5C 123.5,262.833 123.5,267.167 123.5,271.5C 122.5,271.5 121.5,271.5 120.5,271.5C 120.5,261.167 120.5,250.833 120.5,240.5C 126.833,240.5 133.167,240.5 139.5,240.5 Z"/></g>
<g><path style="opacity:1" fill="#a3cdb7" d="M 136.5,260.5 C 132.6,259.57 128.6,259.237 124.5,259.5C 124.5,263.167 124.5,266.833 124.5,270.5C 124.5,271.167 124.167,271.5 123.5,271.5C 123.5,267.167 123.5,262.833 123.5,258.5C 128.294,257.903 132.627,258.57 136.5,260.5 Z"/></g>
<g><path style="opacity:1" fill="#1b6841" d="M 116.5,244.5 C 112.5,244.5 108.5,244.5 104.5,244.5C 104.5,253.5 104.5,262.5 104.5,271.5C 103.167,271.5 101.833,271.5 100.5,271.5C 100.5,262.5 100.5,253.5 100.5,244.5C 96.7016,243.517 92.7016,243.183 88.5,243.5C 88.5,242.5 88.5,241.5 88.5,240.5C 97.6517,239.506 106.985,239.173 116.5,239.5C 116.5,241.167 116.5,242.833 116.5,244.5 Z"/></g>
<g><path style="opacity:1" fill="#458a68" d="M 139.5,240.5 C 133.167,240.5 126.833,240.5 120.5,240.5C 120.5,250.833 120.5,261.167 120.5,271.5C 120.167,271.5 119.833,271.5 119.5,271.5C 119.5,260.833 119.5,250.167 119.5,239.5C 126.354,239.176 133.021,239.509 139.5,240.5 Z"/></g>
<g><path style="opacity:1" fill="#a2cbb5" d="M 124.5,244.5 C 124.5,247.5 124.5,250.5 124.5,253.5C 129.167,253.5 133.833,253.5 138.5,253.5C 133.695,254.487 128.695,254.821 123.5,254.5C 123.187,250.958 123.521,247.625 124.5,244.5 Z"/></g>
<g><path style="opacity:1" fill="#d1f3e1" d="M 116.5,244.5 C 113.038,245.482 109.371,245.815 105.5,245.5C 105.826,254.349 105.493,263.016 104.5,271.5C 104.5,262.5 104.5,253.5 104.5,244.5C 108.5,244.5 112.5,244.5 116.5,244.5 Z"/></g>
<g><path style="opacity:1" fill="#def9ec" d="M 124.5,244.5 C 129.511,244.334 134.511,244.501 139.5,245C 142.14,247.621 142.14,250.121 139.5,252.5C 139.5,253.167 139.167,253.5 138.5,253.5C 133.833,253.5 129.167,253.5 124.5,253.5C 124.5,250.5 124.5,247.5 124.5,244.5 Z"/></g>
<g><path style="opacity:1" fill="#fafafc" d="M 139.5,252.5 C 135.486,252.666 131.486,252.499 127.5,252C 126.424,250.274 126.257,248.441 127,246.5C 130.409,245.378 133.909,245.211 137.5,246C 139.229,247.789 139.896,249.956 139.5,252.5 Z"/></g>
<g><path style="opacity:1" fill="#4d8268" d="M 88.5,240.5 C 88.5,241.5 88.5,242.5 88.5,243.5C 92.7016,243.183 96.7016,243.517 100.5,244.5C 96.1667,244.5 91.8333,244.5 87.5,244.5C 87.2322,242.901 87.5655,241.568 88.5,240.5 Z"/></g>
<g><path style="opacity:1" fill="#568e74" d="M 297.5,266.5 C 301.5,266.5 305.5,266.5 309.5,266.5C 310.833,268.167 310.833,269.833 309.5,271.5C 309.5,270.167 309.5,268.833 309.5,267.5C 305.298,267.817 301.298,267.483 297.5,266.5 Z"/></g>
<g><path style="opacity:1" fill="#1e6542" d="M 159.5,239.5 C 163.931,239.231 168.265,239.564 172.5,240.5C 180.496,246.33 182.663,253.996 179,263.5C 174.514,271.16 168.014,273.827 159.5,271.5C 159.167,271.5 158.833,271.5 158.5,271.5C 155.51,268.658 153.01,265.324 151,261.5C 148.588,252.01 151.421,244.677 159.5,239.5 Z"/></g>
<g><path style="opacity:1" fill="#e2f6ec" d="M 157.5,247.5 C 163.259,241.903 168.759,242.236 174,248.5C 178.757,261.886 174.257,268.053 160.5,267C 153.845,261.246 152.845,254.746 157.5,247.5 Z"/></g>
<g><path style="opacity:1" fill="#fbfbfc" d="M 157.5,247.5 C 161.382,246.197 165.382,245.53 169.5,245.5C 170.119,248.311 171.452,250.811 173.5,253C 173.18,254.653 172.18,255.653 170.5,256C 171.574,256.739 172.241,257.739 172.5,259C 169.47,267.529 164.637,268.696 158,262.5C 156.344,257.569 156.177,252.569 157.5,247.5 Z"/></g>
<g><path style="opacity:1" fill="#e7f6ee" d="M 287.5,253.5 C 287.263,257.722 287.596,261.889 288.5,266C 289.742,268.272 291.408,270.106 293.5,271.5C 290.346,271.341 287.846,270.007 286,267.5C 285.878,269.437 285.045,270.77 283.5,271.5C 288.373,253.497 281.706,245.164 263.5,246.5C 263.5,254.833 263.5,263.167 263.5,271.5C 263.5,271.833 263.5,272.167 263.5,272.5C 258.833,272.5 254.167,272.5 249.5,272.5C 262.51,263.75 263.843,253.417 253.5,241.5C 256.632,242.567 259.632,243.9 262.5,245.5C 264.556,244.952 266.223,243.786 267.5,242C 266.391,240.187 267.058,239.354 269.5,239.5C 269.5,241.167 269.5,242.833 269.5,244.5C 272.607,244.351 275.607,244.851 278.5,246C 281.795,248.338 284.795,250.838 287.5,253.5 Z"/></g>
<g><path style="opacity:1" fill="#1d6641" d="M 283.5,271.5 C 283.167,271.5 282.833,271.5 282.5,271.5C 281.167,271.5 279.833,271.5 278.5,271.5C 278.666,266.156 278.499,260.823 278,255.5C 277.578,253.574 276.411,252.574 274.5,252.5C 272.393,251.532 270.059,251.198 267.5,251.5C 267.5,258.167 267.5,264.833 267.5,271.5C 266.167,271.5 264.833,271.5 263.5,271.5C 263.5,263.167 263.5,254.833 263.5,246.5C 281.706,245.164 288.373,253.497 283.5,271.5 Z"/></g>
<g><path style="opacity:1" fill="#679b81" d="M 274.5,252.5 C 272.5,252.5 270.5,252.5 268.5,252.5C 268.823,259.022 268.49,265.355 267.5,271.5C 267.5,264.833 267.5,258.167 267.5,251.5C 270.059,251.198 272.393,251.532 274.5,252.5 Z"/></g>
<g><path style="opacity:1" fill="#e8f9f1" d="M 183.5,239.5 C 183.5,250.167 183.5,260.833 183.5,271.5C 182.675,267.353 182.175,263.019 182,258.5C 181.347,262.653 179.847,266.32 177.5,269.5C 175.7,270.473 173.866,271.473 172,272.5C 171.225,277.575 172.892,278.575 177,275.5C 178.032,277.145 179.199,277.478 180.5,276.5C 181.308,276.808 181.975,277.308 182.5,278C 186.924,278.18 191.257,278.347 195.5,278.5C 198.5,282.684 197.666,286.018 193,288.5C 191.586,287.587 190.086,287.587 188.5,288.5C 190,286.821 191.833,285.488 194,284.5C 194.765,282.934 194.598,281.601 193.5,280.5C 187.021,279.509 180.354,279.176 173.5,279.5C 173.5,280.833 173.5,282.167 173.5,283.5C 178.363,283.181 183.03,283.514 187.5,284.5C 184.17,286.162 180.836,287.828 177.5,289.5C 176.934,287.922 175.934,286.588 174.5,285.5C 173.571,286.689 173.238,288.022 173.5,289.5C 172.167,289.5 170.833,289.5 169.5,289.5C 168.929,296.781 169.595,303.781 171.5,310.5C 170.167,310.5 168.833,310.5 167.5,310.5C 167.5,302.833 167.5,295.167 167.5,287.5C 168.833,287.5 170.167,287.5 171.5,287.5C 171.5,286.5 171.5,285.5 171.5,284.5C 170.432,283.566 169.099,283.232 167.5,283.5C 167.5,282.167 167.5,280.833 167.5,279.5C 166.167,279.5 164.833,279.5 163.5,279.5C 163.5,280.833 163.5,282.167 163.5,283.5C 162.5,283.5 161.5,283.5 160.5,283.5C 161.535,280.233 163.535,277.733 166.5,276C 164.19,275.503 161.857,275.337 159.5,275.5C 159.5,274.167 159.5,272.833 159.5,271.5C 168.014,273.827 174.514,271.16 179,263.5C 182.663,253.996 180.496,246.33 172.5,240.5C 175.65,240.882 178.317,242.216 180.5,244.5C 181.696,242.855 182.696,241.189 183.5,239.5 Z"/></g>
<g><path style="opacity:1" fill="#cfeadd" d="M 131.5,281.5 C 131.217,282.289 130.717,282.956 130,283.5C 129.83,292.343 129.33,301.01 128.5,309.5C 128.5,305.833 128.5,302.167 128.5,298.5C 127.5,298.5 126.5,298.5 125.5,298.5C 125.5,297.167 125.5,295.833 125.5,294.5C 122.833,294.5 120.167,294.5 117.5,294.5C 120.625,293.521 123.958,293.187 127.5,293.5C 127.665,290.482 127.498,287.482 127,284.5C 126.023,285.774 125.189,285.774 124.5,284.5C 125.434,283.432 125.768,282.099 125.5,280.5C 122.833,280.5 120.167,280.5 117.5,280.5C 117.5,281.833 117.5,283.167 117.5,284.5C 116.504,284.414 115.671,284.748 115,285.5C 114.242,283.231 114.409,281.064 115.5,279C 119.486,278.501 123.486,278.334 127.5,278.5C 127.343,279.873 127.51,281.207 128,282.5C 129.011,281.663 130.178,281.33 131.5,281.5 Z"/></g>
<g><path style="opacity:1" fill="#216645" d="M 278.5,280.5 C 279.117,280.611 279.617,280.944 280,281.5C 280.498,284.482 280.665,287.482 280.5,290.5C 279.711,290.783 279.044,291.283 278.5,292C 267.505,292.5 256.505,292.667 245.5,292.5C 244.57,288.6 244.237,284.6 244.5,280.5C 255.833,280.5 267.167,280.5 278.5,280.5 Z"/></g>
<g><path style="opacity:1" fill="#326a4f" d="M 124.5,284.5 C 122.167,284.5 119.833,284.5 117.5,284.5C 117.5,283.167 117.5,281.833 117.5,280.5C 120.167,280.5 122.833,280.5 125.5,280.5C 125.768,282.099 125.434,283.432 124.5,284.5 Z"/></g>
<g><path style="opacity:1" fill="#478265" d="M 193.5,280.5 C 187.132,280.17 180.798,280.504 174.5,281.5C 179.167,282.167 183.833,282.833 188.5,283.5C 188.376,284.107 188.043,284.44 187.5,284.5C 183.03,283.514 178.363,283.181 173.5,283.5C 173.5,282.167 173.5,280.833 173.5,279.5C 180.354,279.176 187.021,279.509 193.5,280.5 Z"/></g>
<g><path style="opacity:1" fill="#548d70" d="M 171.5,284.5 C 169.833,284.5 168.167,284.5 166.5,284.5C 165.833,279.167 165.167,279.167 164.5,284.5C 162.833,284.5 161.167,284.5 159.5,284.5C 159.5,284.167 159.5,283.833 159.5,283.5C 159.833,283.5 160.167,283.5 160.5,283.5C 161.5,283.5 162.5,283.5 163.5,283.5C 163.5,282.167 163.5,280.833 163.5,279.5C 164.833,279.5 166.167,279.5 167.5,279.5C 167.5,280.833 167.5,282.167 167.5,283.5C 169.099,283.232 170.432,283.566 171.5,284.5 Z"/></g>
<g><path style="opacity:1" fill="#90c4ab" d="M 275.5,288.5 C 275.5,287.167 275.5,285.833 275.5,284.5C 266.5,284.5 257.5,284.5 248.5,284.5C 248.5,285.833 248.5,287.167 248.5,288.5C 247.549,287.081 247.216,285.415 247.5,283.5C 257.167,283.5 266.833,283.5 276.5,283.5C 276.784,285.415 276.451,287.081 275.5,288.5 Z"/></g>
<g><path style="opacity:1" fill="#1f6441" d="M 193.5,280.5 C 194.598,281.601 194.765,282.934 194,284.5C 191.833,285.488 190,286.821 188.5,288.5C 187.244,288.461 186.244,288.961 185.5,290C 187.473,290.495 189.473,290.662 191.5,290.5C 193.903,290.393 195.736,291.393 197,293.5C 197.667,299.5 197.667,305.5 197,311.5C 194.804,314.125 191.97,315.125 188.5,314.5C 188.5,313.167 188.5,311.833 188.5,310.5C 190.167,310.5 191.833,310.5 193.5,310.5C 193.5,305.167 193.5,299.833 193.5,294.5C 188.489,294.666 183.489,294.499 178.5,294C 177.663,292.989 177.33,291.822 177.5,290.5C 177.5,290.167 177.5,289.833 177.5,289.5C 180.836,287.828 184.17,286.162 187.5,284.5C 188.043,284.44 188.376,284.107 188.5,283.5C 183.833,282.833 179.167,282.167 174.5,281.5C 180.798,280.504 187.132,280.17 193.5,280.5 Z"/></g>
<g><path style="opacity:1" fill="#f2fdf8" d="M 275.5,288.5 C 266.5,288.5 257.5,288.5 248.5,288.5C 248.5,287.167 248.5,285.833 248.5,284.5C 257.5,284.5 266.5,284.5 275.5,284.5C 275.5,285.833 275.5,287.167 275.5,288.5 Z"/></g>
<g><path style="opacity:1" fill="#88b29a" d="M 154.5,283.5 C 155.461,285.265 155.795,287.265 155.5,289.5C 153.901,289.768 152.568,289.434 151.5,288.5C 152.5,288.5 153.5,288.5 154.5,288.5C 154.5,286.833 154.5,285.167 154.5,283.5 Z"/></g>
<g><path style="opacity:1" fill="#b0e5cb" d="M 188.5,288.5 C 189.5,289.167 190.5,289.833 191.5,290.5C 189.473,290.662 187.473,290.495 185.5,290C 186.244,288.961 187.244,288.461 188.5,288.5 Z"/></g>
<g><path style="opacity:1" fill="#f8fcfa" d="M 177.5,289.5 C 177.5,289.833 177.5,290.167 177.5,290.5C 176.414,290.62 175.747,291.287 175.5,292.5C 176.346,296.118 176.68,299.785 176.5,303.5C 176.834,306.491 175.834,308.824 173.5,310.5C 172.833,310.5 172.167,310.5 171.5,310.5C 169.595,303.781 168.929,296.781 169.5,289.5C 170.833,289.5 172.167,289.5 173.5,289.5C 173.238,288.022 173.571,286.689 174.5,285.5C 175.934,286.588 176.934,287.922 177.5,289.5 Z"/></g>
<g><path style="opacity:1" fill="#1f6743" d="M 153.5,281.5 C 153.833,282.167 154.167,282.833 154.5,283.5C 154.5,285.167 154.5,286.833 154.5,288.5C 153.5,288.5 152.5,288.5 151.5,288.5C 151.5,287.5 151.5,286.5 151.5,285.5C 149.167,285.5 146.833,285.5 144.5,285.5C 144.5,287.5 144.5,289.5 144.5,291.5C 147.833,291.5 151.167,291.5 154.5,291.5C 154.662,293.527 154.495,295.527 154,297.5C 152.558,299.391 151.391,301.391 150.5,303.5C 148.727,304.314 148.227,305.648 149,307.5C 150.78,308.639 152.614,309.639 154.5,310.5C 154.737,311.791 154.404,312.791 153.5,313.5C 150.477,312.572 147.643,311.238 145,309.5C 141.204,311.316 137.37,312.983 133.5,314.5C 133.5,313.167 133.5,311.833 133.5,310.5C 136.502,310.002 138.835,308.502 140.5,306C 139.039,303.702 137.372,301.535 135.5,299.5C 136.723,298.386 138.056,298.219 139.5,299C 141.017,300.685 142.684,302.185 144.5,303.5C 146.522,301.469 148.189,299.135 149.5,296.5C 143.872,295.505 138.206,295.171 132.5,295.5C 132.666,300.511 132.499,305.511 132,310.5C 131.302,311.691 130.469,312.691 129.5,313.5C 127.158,312.789 126.825,311.456 128.5,309.5C 129.33,301.01 129.83,292.343 130,283.5C 130.717,282.956 131.217,282.289 131.5,281.5C 135.602,281.956 139.435,281.289 143,279.5C 146.276,281.227 149.776,281.894 153.5,281.5 Z"/></g>
<g><path style="opacity:1" fill="#e9f5ee" d="M 132.5,285.5 C 135.167,285.5 137.833,285.5 140.5,285.5C 140.5,287.5 140.5,289.5 140.5,291.5C 137.833,291.5 135.167,291.5 132.5,291.5C 132.5,289.5 132.5,287.5 132.5,285.5 Z"/></g>
<g><path style="opacity:1" fill="#c7f7e0" d="M 280.5,290.5 C 280.567,291.959 280.234,293.292 279.5,294.5C 267.5,294.5 255.5,294.5 243.5,294.5C 244.167,293.833 244.833,293.167 245.5,292.5C 256.505,292.667 267.505,292.5 278.5,292C 279.044,291.283 279.711,290.783 280.5,290.5 Z"/></g>
<g><path style="opacity:1" fill="#0c5c36" d="M 171.5,284.5 C 171.5,285.5 171.5,286.5 171.5,287.5C 170.167,287.5 168.833,287.5 167.5,287.5C 166.833,294.678 166.167,302.011 165.5,309.5C 164.833,302.011 164.167,294.678 163.5,287.5C 162.167,287.5 160.833,287.5 159.5,287.5C 159.5,286.5 159.5,285.5 159.5,284.5C 161.167,284.5 162.833,284.5 164.5,284.5C 165.167,279.167 165.833,279.167 166.5,284.5C 168.167,284.5 169.833,284.5 171.5,284.5 Z"/></g>
<g><path style="opacity:1" fill="#caead8" d="M 177.5,290.5 C 177.33,291.822 177.663,292.989 178.5,294C 183.489,294.499 188.489,294.666 193.5,294.5C 193.5,299.833 193.5,305.167 193.5,310.5C 191.833,310.5 190.167,310.5 188.5,310.5C 188.5,311.833 188.5,313.167 188.5,314.5C 187.778,314.082 187.278,313.416 187,312.5C 186.044,313.894 184.711,314.561 183,314.5C 180.863,313.923 178.696,313.59 176.5,313.5C 180.085,308.527 181.751,302.861 181.5,296.5C 180.167,296.5 178.833,296.5 177.5,296.5C 177.802,299.059 177.468,301.393 176.5,303.5C 176.68,299.785 176.346,296.118 175.5,292.5C 175.747,291.287 176.414,290.62 177.5,290.5 Z"/></g>
<g><path style="opacity:1" fill="#e6f7ee" d="M 159.5,283.5 C 159.5,283.833 159.5,284.167 159.5,284.5C 159.5,285.5 159.5,286.5 159.5,287.5C 160.833,287.5 162.167,287.5 163.5,287.5C 163.5,295.167 163.5,302.833 163.5,310.5C 162.167,310.5 160.833,310.5 159.5,310.5C 159.5,311.833 159.5,313.167 159.5,314.5C 163.5,314.5 167.5,314.5 171.5,314.5C 171.5,313.167 171.5,311.833 171.5,310.5C 172.167,310.5 172.833,310.5 173.5,310.5C 173.157,312.483 173.824,313.817 175.5,314.5C 169.799,314.924 164.133,315.924 158.5,317.5C 156.604,316.725 154.937,315.725 153.5,314.5C 154.586,314.38 155.253,313.713 155.5,312.5C 155.457,311.584 155.124,310.917 154.5,310.5C 152.614,309.639 150.78,308.639 149,307.5C 148.227,305.648 148.727,304.314 150.5,303.5C 151.391,301.391 152.558,299.391 154,297.5C 154.495,295.527 154.662,293.527 154.5,291.5C 151.167,291.5 147.833,291.5 144.5,291.5C 144.5,289.5 144.5,287.5 144.5,285.5C 146.833,285.5 149.167,285.5 151.5,285.5C 151.5,286.5 151.5,287.5 151.5,288.5C 152.568,289.434 153.901,289.768 155.5,289.5C 155.795,287.265 155.461,285.265 154.5,283.5C 154.167,282.833 153.833,282.167 153.5,281.5C 155.258,281.123 156.925,280.456 158.5,279.5C 158.788,280.861 159.121,282.194 159.5,283.5 Z"/></g>
<g><path style="opacity:1" fill="#0c5f38" d="M 201.5,294.5 C 213.833,294.5 226.167,294.5 238.5,294.5C 238.5,295.5 238.5,296.5 238.5,297.5C 226.167,297.5 213.833,297.5 201.5,297.5C 201.5,296.5 201.5,295.5 201.5,294.5 Z"/></g>
<g><path style="opacity:1" fill="#2f684d" d="M 117.5,294.5 C 120.167,294.5 122.833,294.5 125.5,294.5C 125.5,295.833 125.5,297.167 125.5,298.5C 122.833,298.5 120.167,298.5 117.5,298.5C 117.5,297.167 117.5,295.833 117.5,294.5 Z"/></g>
<g><path style="opacity:1" fill="#1b633f" d="M 252.5,298.5 C 251.609,299.261 250.942,300.261 250.5,301.5C 260.195,302.216 269.861,302.883 279.5,303.5C 279.789,307.106 279.456,310.606 278.5,314C 268.172,314.5 257.839,314.666 247.5,314.5C 247.5,313.5 247.5,312.5 247.5,311.5C 257.015,311.827 266.348,311.494 275.5,310.5C 276.434,309.432 276.768,308.099 276.5,306.5C 266.81,306.832 257.144,306.498 247.5,305.5C 246.328,303.177 246.328,300.844 247.5,298.5C 247.414,297.504 247.748,296.671 248.5,296C 259.182,295.168 269.849,295.334 280.5,296.5C 271.009,297.167 261.675,297.833 252.5,298.5 Z"/></g>
<g><path style="opacity:1" fill="#ddf1e6" d="M 133.5,314.5 C 132.292,313.766 130.959,313.433 129.5,313.5C 130.469,312.691 131.302,311.691 132,310.5C 132.499,305.511 132.666,300.511 132.5,295.5C 138.206,295.171 143.872,295.505 149.5,296.5C 148.189,299.135 146.522,301.469 144.5,303.5C 142.684,302.185 141.017,300.685 139.5,299C 138.056,298.219 136.723,298.386 135.5,299.5C 137.372,301.535 139.039,303.702 140.5,306C 138.835,308.502 136.502,310.002 133.5,310.5C 133.5,311.833 133.5,313.167 133.5,314.5 Z"/></g>
<g><path style="opacity:1" fill="#7caf95" d="M 201.5,294.5 C 213.989,293.505 226.656,293.171 239.5,293.5C 239.5,295.167 239.5,296.833 239.5,298.5C 226.656,298.829 213.989,298.495 201.5,297.5C 213.833,297.5 226.167,297.5 238.5,297.5C 238.5,296.5 238.5,295.5 238.5,294.5C 226.167,294.5 213.833,294.5 201.5,294.5 Z"/></g>
<g><path style="opacity:1" fill="#448365" d="M 243.5,294.5 C 255.5,294.5 267.5,294.5 279.5,294.5C 280.167,294.5 280.833,294.5 281.5,294.5C 281.5,295.833 281.5,297.167 281.5,298.5C 271.833,298.5 262.167,298.5 252.5,298.5C 261.675,297.833 271.009,297.167 280.5,296.5C 269.849,295.334 259.182,295.168 248.5,296C 247.748,296.671 247.414,297.504 247.5,298.5C 246.167,298.5 244.833,298.5 243.5,298.5C 243.5,297.167 243.5,295.833 243.5,294.5 Z"/></g>
<g><path style="opacity:1" fill="#216645" d="M 189.5,299.5 C 188.781,301.764 188.448,304.097 188.5,306.5C 187.867,310.467 185.534,312.8 181.5,313.5C 184.027,307.857 185.361,301.857 185.5,295.5C 186.833,295.5 188.167,295.5 189.5,295.5C 189.5,296.833 189.5,298.167 189.5,299.5 Z"/></g>
<g><path style="opacity:1" fill="#e8fcf2" d="M 281.5,294.5 C 283.975,295.687 284.975,297.687 284.5,300.5C 282.436,300.687 280.436,301.187 278.5,302C 279.056,302.383 279.389,302.883 279.5,303.5C 269.861,302.883 260.195,302.216 250.5,301.5C 250.942,300.261 251.609,299.261 252.5,298.5C 262.167,298.5 271.833,298.5 281.5,298.5C 281.5,297.167 281.5,295.833 281.5,294.5 Z"/></g>
<g><path style="opacity:1" fill="#fbfafc" d="M 150.5,303.5 C 153.075,302.272 155.408,300.605 157.5,298.5C 154.82,295.853 155.487,294.52 159.5,294.5C 160.117,290.578 160.784,290.578 161.5,294.5C 160.85,299.529 160.517,304.529 160.5,309.5C 159.833,308.167 159.167,306.833 158.5,305.5C 154.783,308.571 152.117,307.905 150.5,303.5 Z"/></g>
<g><path style="opacity:1" fill="#f1faf1" d="M 188.5,306.5 C 188.448,304.097 188.781,301.764 189.5,299.5C 190.161,298.282 190.828,296.949 191.5,295.5C 192.66,299.459 192.827,303.459 192,307.5C 191.29,308.973 190.124,309.64 188.5,309.5C 188.5,308.5 188.5,307.5 188.5,306.5 Z"/></g>
<g><path style="opacity:1" fill="#e1f2e8" d="M 278.5,280.5 C 267.167,280.5 255.833,280.5 244.5,280.5C 244.237,284.6 244.57,288.6 245.5,292.5C 244.833,293.167 244.167,293.833 243.5,294.5C 243.5,295.833 243.5,297.167 243.5,298.5C 244.833,298.5 246.167,298.5 247.5,298.5C 246.328,300.844 246.328,303.177 247.5,305.5C 257.144,306.498 266.81,306.832 276.5,306.5C 276.768,308.099 276.434,309.432 275.5,310.5C 265.833,310.5 256.167,310.5 246.5,310.5C 246.5,311.833 246.5,313.167 246.5,314.5C 244.311,313.592 242.144,313.925 240,315.5C 239.219,314.056 239.386,312.723 240.5,311.5C 242.064,312.186 243.731,312.019 245.5,311C 243.508,309.002 241.508,307.002 239.5,305C 241.047,304.814 242.047,303.481 242.5,301C 241.87,299.69 240.87,298.856 239.5,298.5C 239.5,296.833 239.5,295.167 239.5,293.5C 240.5,293.5 241.5,293.5 242.5,293.5C 242.978,290.722 241.978,288.722 239.5,287.5C 240.263,286.281 241.263,285.281 242.5,284.5C 241.833,283.5 241.167,282.5 240.5,281.5C 241.025,280.808 241.692,280.308 242.5,280C 254.674,279.174 266.674,279.34 278.5,280.5 Z"/></g>
<g><path style="opacity:1" fill="#a4cdb8" d="M 117.5,310.5 C 120.962,309.518 124.629,309.185 128.5,309.5C 126.825,311.456 127.158,312.789 129.5,313.5C 125.5,314.833 121.5,314.833 117.5,313.5C 120.167,313.5 122.833,313.5 125.5,313.5C 125.5,312.5 125.5,311.5 125.5,310.5C 122.833,310.5 120.167,310.5 117.5,310.5 Z"/></g>
<g><path style="opacity:1" fill="#1c583c" d="M 117.5,310.5 C 120.167,310.5 122.833,310.5 125.5,310.5C 125.5,311.5 125.5,312.5 125.5,313.5C 122.833,313.5 120.167,313.5 117.5,313.5C 117.5,312.5 117.5,311.5 117.5,310.5 Z"/></g>
<g><path style="opacity:1" fill="#2c6f4e" d="M 163.5,287.5 C 164.167,294.678 164.833,302.011 165.5,309.5C 166.167,302.011 166.833,294.678 167.5,287.5C 167.5,295.167 167.5,302.833 167.5,310.5C 168.833,310.5 170.167,310.5 171.5,310.5C 171.5,311.833 171.5,313.167 171.5,314.5C 167.5,314.5 163.5,314.5 159.5,314.5C 159.5,313.167 159.5,311.833 159.5,310.5C 160.833,310.5 162.167,310.5 163.5,310.5C 163.5,302.833 163.5,295.167 163.5,287.5 Z"/></g>
<g><path style="opacity:1" fill="#236544" d="M 176.5,313.5 C 175.833,313.5 175.5,313.833 175.5,314.5C 173.824,313.817 173.157,312.483 173.5,310.5C 175.834,308.824 176.834,306.491 176.5,303.5C 177.468,301.393 177.802,299.059 177.5,296.5C 178.833,296.5 180.167,296.5 181.5,296.5C 181.751,302.861 180.085,308.527 176.5,313.5 Z"/></g>
<g><path style="opacity:1" fill="#689d85" d="M 275.5,310.5 C 266.348,311.494 257.015,311.827 247.5,311.5C 247.5,312.5 247.5,313.5 247.5,314.5C 247.167,314.5 246.833,314.5 246.5,314.5C 246.5,313.167 246.5,311.833 246.5,310.5C 256.167,310.5 265.833,310.5 275.5,310.5 Z"/></g>
<g><path style="opacity:1" fill="#81a793" d="M 154.5,310.5 C 155.124,310.917 155.457,311.584 155.5,312.5C 155.253,313.713 154.586,314.38 153.5,314.5C 153.5,314.167 153.5,313.833 153.5,313.5C 154.404,312.791 154.737,311.791 154.5,310.5 Z"/></g>
</svg>
