<svg xmlns="http://www.w3.org/2000/svg" width="400" height="400" viewBox="0 0 400 400" version="1.1">
	<path fill-opacity="0.251" d="M 184.208 86.556 C 164.993 91.728, 148.110 104.747, 139.589 120.963 C 136.137 127.532, 132.677 136, 133.445 136 C 133.641 136, 136.129 134.921, 138.975 133.603 C 143.146 131.671, 144.644 130.267, 146.712 126.353 C 156.303 108.203, 177.607 94.056, 195.460 93.983 C 198.925 93.969, 200.116 93.329, 203.830 89.483 L 208.160 85 198.830 85.066 C 193.698 85.102, 187.119 85.773, 184.208 86.556 M 214.007 90.593 C 206.504 93.847, 202.784 99.513, 203.017 107.333 C 203.101 110.175, 203.132 113.033, 203.085 113.684 C 203.038 114.336, 198.217 118.611, 192.371 123.184 C 186.526 127.758, 179.888 132.966, 177.621 134.758 C 168.189 142.214, 168.506 142.121, 162.281 139.271 C 157.689 137.169, 155.772 136.834, 150.880 137.277 C 136.130 138.615, 126.950 151.329, 130.536 165.453 C 132.006 171.241, 134.422 174.604, 139.887 178.470 C 143.321 180.899, 145.322 181.509, 150.873 181.823 C 156.683 182.151, 158.408 181.827, 162.867 179.567 C 165.731 178.116, 168.621 177.235, 169.287 177.609 C 169.954 177.983, 176.463 182.114, 183.750 186.787 L 197 195.284 197 199.326 C 197 211.819, 209.130 220.133, 220.208 215.232 C 222.670 214.143, 225.737 211.774, 227.023 209.968 C 230.074 205.683, 230.846 197.536, 228.610 193.213 C 226.244 188.638, 226.646 186.488, 231.817 176.040 C 236 167.588, 236.874 166.468, 240.008 165.540 C 246.824 163.520, 250 159.751, 250 153.682 C 250 143.758, 239.687 137.845, 231.299 142.960 C 229.538 144.033, 227.389 146.281, 226.523 147.956 C 225.657 149.630, 224.848 151, 224.724 151 C 224.601 151, 220.971 151.676, 216.659 152.501 C 209.121 153.943, 208.719 153.924, 206.274 152.001 C 200.232 147.249, 191 151.188, 191 158.518 C 191 160.505, 191.463 162.997, 192.030 164.055 C 193.594 166.979, 198.678 169.230, 202.046 168.490 C 204.690 167.909, 209.277 163.670, 210.174 160.979 C 210.375 160.376, 213.854 159.370, 217.905 158.743 L 225.272 157.603 227.631 160.551 C 228.928 162.173, 229.992 163.898, 229.995 164.384 C 229.998 164.871, 228.004 169.483, 225.563 174.634 L 221.127 184 214.961 184 C 210.132 184, 207.765 184.579, 204.045 186.670 L 199.296 189.339 193.898 185.881 C 190.929 183.979, 184.983 180.190, 180.685 177.461 C 172.875 172.503, 172.871 172.498, 173.610 169 C 174.605 164.291, 174.605 155.418, 173.611 150.421 L 172.799 146.342 188.576 133.921 C 197.253 127.089, 204.981 121.121, 205.750 120.659 C 206.616 120.138, 208.998 120.613, 212.010 121.909 C 218.094 124.526, 222.977 124.563, 227.945 122.028 C 238.590 116.597, 240.759 103.207, 232.388 94.588 C 227.247 89.294, 220.422 87.811, 214.007 90.593 M 216.415 96.419 C 207.446 100.332, 206.593 112.153, 214.967 116.483 C 218.664 118.395, 221.324 118.401, 224.989 116.506 C 231.704 113.033, 233.214 104.582, 228.099 99.106 C 226.503 97.398, 224.515 96, 223.681 96 C 222.846 96, 221.564 95.791, 220.832 95.536 C 220.099 95.282, 218.112 95.679, 216.415 96.419 M 244.041 105.279 C 244.004 110.560, 244.352 111.505, 248.086 116.228 C 256.998 127.502, 260.960 139.271, 260.985 154.540 C 261.013 171.371, 256.089 183.443, 243.906 196.414 C 239.721 200.869, 235.987 205.820, 235.589 207.439 C 235.192 209.055, 233.997 211.600, 232.934 213.093 C 230.245 216.869, 230.499 217.310, 234.250 215.372 C 245.327 209.646, 255.988 198.535, 262.388 186.045 C 268.056 174.982, 270 166.888, 270 154.346 C 270 135.357, 264.153 120.552, 251.351 107.124 L 244.081 99.500 244.041 105.279 M 145.350 144.873 C 133.726 150.305, 132.648 165.498, 143.323 173.408 C 145.472 175, 147.623 175.500, 152.323 175.500 C 159.828 175.500, 164.267 172.825, 167.095 166.599 C 169.496 161.310, 169.475 157.605, 167.015 152.566 C 163.067 144.481, 153.476 141.076, 145.350 144.873 M 234.223 148.557 C 232.685 149.634, 232 151.136, 232 153.434 C 232 157.415, 234.015 159.333, 238.195 159.333 C 243.742 159.333, 245.990 152.932, 241.811 149.039 C 239.189 146.596, 237.202 146.470, 234.223 148.557 M 196.607 156.582 C 195.474 159.534, 195.994 161.926, 198 163 C 201.845 165.058, 206.030 160.794, 203.961 156.928 C 202.682 154.536, 197.486 154.292, 196.607 156.582 M 139 186.689 C 139 188.483, 147.467 199.645, 152.511 204.500 C 164.829 216.357, 179.689 222.698, 197.525 223.708 C 203.286 224.034, 208 224.015, 208 223.664 C 208 223.314, 206.313 222.322, 204.250 221.460 C 202.188 220.599, 199.375 218.849, 198 217.572 C 196.423 216.108, 192.742 214.642, 188.030 213.603 C 176.372 211.033, 166.806 205.767, 158.040 197.095 C 151.713 190.835, 149.575 189.365, 144.750 187.959 C 141.588 187.037, 139 186.466, 139 186.689 M 207.770 191.966 C 203.967 194.958, 202.564 199.148, 203.954 203.359 C 205.408 207.766, 208.802 210, 214.042 210 C 221.727 210, 226.112 202.730, 222.805 195.472 C 220.420 190.237, 212.359 188.357, 207.770 191.966 M 158.761 241.006 C 153.708 243.750, 150.615 249.837, 150.747 256.777 C 150.930 266.370, 157.163 273, 166 273 C 175.026 273, 181 266.195, 181 255.913 C 181 243.441, 169.040 235.424, 158.761 241.006 M 239.180 240.626 C 231.084 244.752, 227.695 255.640, 231.854 264.164 C 234.772 270.143, 239.274 273, 245.777 273 C 250.160 273, 251.481 272.516, 254.614 269.766 C 261.065 264.101, 262.695 256.329, 259.095 248.401 C 255.565 240.630, 246.283 237.006, 239.180 240.626 M 88 242.473 C 88 244.895, 88.250 245, 94 245 L 100 245 100 258.500 L 100 272 102.500 272 L 105 272 105 258.500 L 105 245 111.570 245 C 117.810 245, 118.123 244.887, 117.820 242.750 C 117.507 240.547, 117.189 240.494, 102.750 240.223 L 88 239.947 88 242.473 M 120 256 L 120 272 122.500 272 C 124.912 272, 125 271.770, 125 265.450 L 125 258.900 130.742 259.200 L 136.484 259.500 138.992 265.739 C 141.213 271.263, 141.815 271.979, 144.250 271.989 C 145.762 271.995, 147 271.760, 147 271.467 C 147 271.173, 145.875 268.713, 144.500 266 C 141.490 260.061, 141.418 258.836, 143.943 256.551 C 148.364 252.551, 147.240 244.210, 141.909 241.453 C 140.027 240.480, 135.945 240, 129.550 240 L 120 240 120 256 M 184 256 L 184 272 186.469 272 L 188.938 272 189.219 260.095 L 189.500 248.191 197.500 260.056 C 204.428 270.332, 205.868 271.927, 208.250 271.961 L 211 272 211 256 L 211 240 208.532 240 C 206.065 240, 206.063 240.009, 205.782 251.603 L 205.500 263.207 197.500 251.633 C 190.607 241.661, 189.119 240.055, 186.750 240.030 L 184 240 184 256 M 160.261 246.433 C 156.067 249.963, 154.564 254.669, 155.968 259.881 C 157.508 265.599, 161.306 268.328, 166.862 267.708 C 173.508 266.965, 175.500 264.379, 175.500 256.495 C 175.500 250.913, 175.157 249.702, 172.946 247.492 C 169.060 243.606, 164.113 243.193, 160.261 246.433 M 241.256 245.029 C 235.980 247.150, 233.461 256.123, 236.494 261.989 C 241.965 272.569, 256.010 268.112, 255.996 255.800 C 255.987 247.588, 248.500 242.117, 241.256 245.029 M 125.195 249.750 L 125.500 254.500 132.500 254.153 C 139.927 253.785, 142 252.868, 142 249.949 C 142 246.348, 139.242 245, 131.874 245 L 124.890 245 125.195 249.750 M 294.388 246.980 C 286.455 250.185, 284.752 264.514, 291.659 269.946 C 293.820 271.646, 295.711 272, 302.635 272 C 310.891 272, 311 271.967, 311 269.500 C 311 267.058, 310.829 267, 303.571 267 C 296.362 267, 293 265.705, 293 262.929 C 293 262.418, 297.295 262, 302.545 262 L 312.091 262 311.412 258.250 C 310.510 253.272, 308.508 249.469, 305.783 247.561 C 303.386 245.882, 297.810 245.597, 294.388 246.980 M 263.750 247.561 C 263.337 247.986, 263 253.658, 263 260.167 L 263 272 265.964 272 L 268.928 272 269.214 262.250 L 269.500 252.500 272.488 252.825 C 277.421 253.362, 278 254.496, 278 263.622 L 278 272 281.097 272 L 284.193 272 283.847 262.521 C 283.529 253.833, 283.279 252.822, 280.851 250.395 C 278.641 248.186, 277.067 247.668, 271.351 247.268 C 267.583 247.005, 264.163 247.137, 263.750 247.561 M 294.571 253.571 C 291.869 256.274, 292.806 257, 299 257 C 305.109 257, 306.499 255.899, 303.800 253.200 C 302.088 251.488, 296.427 251.716, 294.571 253.571 M 141 281 C 141 281.550, 139.007 282, 136.571 282 C 129.547 282, 129 283.121, 129 297.512 C 129 304.680, 128.579 310.142, 128 310.500 C 126.514 311.418, 126.789 315, 128.345 315 C 131.363 315, 132.901 311.508, 133.202 303.975 L 133.500 296.500 141.750 296.210 C 146.287 296.050, 150 296.327, 150 296.825 C 150 298.345, 145.935 303, 144.608 303 C 143.922 303, 142.382 301.875, 141.187 300.500 C 139.267 298.292, 135 296.986, 135 298.606 C 135 298.939, 136.340 300.904, 137.977 302.972 C 140.766 306.492, 140.845 306.825, 139.227 308.213 C 138.277 309.029, 136.713 309.975, 135.750 310.317 C 133.764 311.021, 133.337 315.006, 135.250 314.988 C 135.938 314.981, 138.444 313.865, 140.820 312.506 L 145.139 310.037 150.036 312.518 C 155.919 315.499, 156 315.507, 156 313.082 C 156 311.968, 154.532 310.256, 152.500 309 C 150.575 307.810, 149 306.652, 149 306.427 C 149 306.202, 150.598 303.924, 152.551 301.366 C 157.428 294.976, 156.974 292.595, 150.801 292.197 C 147.188 291.965, 145.959 291.446, 145.486 289.956 C 144.608 287.190, 145.682 286, 149.059 286 C 151.333 286, 152 286.453, 152 288 C 152 289.353, 152.667 290, 154.060 290 C 155.830 290, 156.077 289.470, 155.810 286.250 C 155.506 282.572, 155.413 282.494, 151 282.187 C 148.525 282.015, 146.072 281.452, 145.550 280.937 C 144.286 279.691, 141 279.736, 141 281 M 164 282 C 164 283.333, 163.333 284, 162 284 C 160.637 284, 160 284.667, 160 286.094 C 160 287.346, 160.803 288.397, 162 288.710 C 163.845 289.193, 164 290.074, 164 300.117 C 164 310.333, 163.877 311, 162 311 C 160.667 311, 160 311.667, 160 313 C 160 314.778, 160.667 315, 166 315 C 171.333 315, 172 314.778, 172 313 C 172 311.667, 171.333 311, 170 311 C 168.123 311, 168 310.333, 168 300.117 C 168 290.074, 168.155 289.193, 170 288.710 C 171.197 288.397, 172 287.346, 172 286.094 C 172 284.667, 171.363 284, 170 284 C 168.667 284, 168 283.333, 168 282 C 168 280.667, 167.333 280, 166 280 C 164.667 280, 164 280.667, 164 282 M 174 281.954 C 174 283.671, 174.820 283.945, 180.750 284.204 L 187.500 284.500 182.867 287.223 C 174.537 292.120, 175.741 294.733, 186.542 295.200 L 193.500 295.500 193.500 303 C 193.500 310.016, 193.355 310.521, 191.250 310.820 C 189.804 311.025, 189 311.829, 189 313.070 C 189 314.605, 189.708 315, 192.465 315 C 197.113 315, 198 313.033, 198 302.721 C 198 292.988, 196.966 291.347, 190.500 290.824 L 186.500 290.500 190.704 288.092 C 195.370 285.419, 196.607 283.436, 194.895 281.373 C 194.069 280.379, 191.032 280, 183.878 280 C 174.744 280, 174 280.147, 174 281.954 M 245.571 281.571 C 243.719 283.424, 243.478 290.078, 245.200 291.800 C 246.037 292.637, 251.443 293, 263.093 293 C 281.647 293, 281 293.255, 281 285.953 C 281 283.138, 280.468 281.786, 279.066 281.035 C 277.979 280.454, 270.561 280, 262.137 280 C 249.839 280, 246.860 280.283, 245.571 281.571 M 118 283 C 118 284.667, 118.667 285, 122 285 C 125.333 285, 126 284.667, 126 283 C 126 281.333, 125.333 281, 122 281 C 118.667 281, 118 281.333, 118 283 M 249 287 C 249 288.900, 249.667 289, 262.333 289 C 269.667 289, 275.936 288.731, 276.264 288.402 C 276.593 288.073, 276.620 287.173, 276.324 286.402 C 275.900 285.296, 272.960 285, 262.393 285 C 249.667 285, 249 285.100, 249 287 M 133.362 287.500 C 132.278 290.324, 133.808 292, 137.469 292 C 140.726 292, 141 291.767, 141 289 C 141 286.233, 140.726 286, 137.469 286 C 135.252 286, 133.723 286.559, 133.362 287.500 M 202 296.478 L 202 299 221.070 299 L 240.139 299 239.820 296.750 C 239.503 294.519, 239.339 294.498, 220.750 294.228 L 202 293.956 202 296.478 M 118 297 C 118 298.667, 118.667 299, 122 299 C 125.333 299, 126 298.667, 126 297 C 126 295.333, 125.333 295, 122 295 C 118.667 295, 118 295.333, 118 297 M 243.676 296.402 C 242.999 298.167, 243.809 299, 246.202 299 C 247.760 299, 247.893 299.332, 247 301 C 246.240 302.421, 246.240 303.579, 247 305 C 247.992 306.853, 249.094 307, 262.035 307 C 275.333 307, 276 307.095, 276 309 C 276 310.908, 275.333 311, 261.500 311 C 247.667 311, 247 311.092, 247 313 C 247 314.919, 247.667 315, 263.393 315 C 281.410 315, 281 315.149, 281 308.618 C 281 303.364, 279.951 303, 264.800 303 C 257.210 303, 251 302.640, 251 302.200 C 251 299.577, 254.013 299, 267.700 299 C 281.333 299, 282 298.907, 282 297 C 282 295.071, 281.333 295, 263.107 295 C 247.821 295, 244.111 295.268, 243.676 296.402 M 178.619 296.807 C 178.345 297.252, 177.806 299.981, 177.422 302.874 C 177.039 305.766, 176.112 308.745, 175.362 309.495 C 173.569 311.288, 173.613 315, 175.427 315 C 177.716 315, 180.781 310.293, 181.471 305.721 C 181.821 303.399, 182.344 300.262, 182.633 298.750 C 183.066 296.484, 182.803 296, 181.138 296 C 180.027 296, 178.893 296.363, 178.619 296.807 M 185.499 301.250 C 185.120 304.137, 184.177 307.497, 183.405 308.715 C 181.894 311.097, 181.504 315, 182.777 315 C 185.491 315, 187.951 311.521, 188.970 306.242 C 189.580 303.084, 190.295 299.488, 190.558 298.250 C 190.952 296.403, 190.603 296, 188.613 296 C 186.441 296, 186.116 296.549, 185.499 301.250 M 118 312.500 C 118 314.750, 118.400 315, 122 315 C 125.600 315, 126 314.750, 126 312.500 C 126 310.250, 125.600 310, 122 310 C 118.400 310, 118 310.250, 118 312.500" stroke="none" fill="black" fill-rule="evenodd"/>
	<path fill-opacity="0.157" d="M 185.376 86.491 C 170.797 89.662, 154.672 100.049, 145.488 112.185 C 140.683 118.536, 135.695 128.071, 134.425 133.332 L 133.742 136.164 138.855 133.573 C 142.686 131.632, 144.509 129.919, 146.126 126.741 C 151.707 115.770, 162 105.528, 172.948 100.052 C 180.236 96.407, 184.039 95.242, 192.554 94.050 C 198.797 93.176, 200.096 92.599, 203.846 89.031 L 208.084 85 199.792 85.079 C 195.231 85.123, 188.744 85.758, 185.376 86.491 M 210.816 92.902 C 205.081 96.539, 202.402 102.527, 203.433 109.405 C 204.229 114.713, 204.679 114.172, 190.056 125.500 C 184.376 129.900, 177.346 135.412, 174.432 137.750 C 171.519 140.088, 168.572 142, 167.883 142 C 167.195 142, 164.577 140.999, 162.066 139.775 C 147.344 132.601, 130 143.586, 130 160.084 C 130 168.025, 134.932 175.790, 142.309 179.467 C 148.895 182.749, 154.835 182.756, 161.849 179.490 C 164.791 178.121, 167.682 177, 168.273 177 C 169.536 177, 195.733 193.759, 196.560 195.097 C 196.870 195.599, 197.290 198.050, 197.493 200.545 C 198.243 209.742, 204.601 216, 213.198 216 C 225.869 216, 233.027 204.907, 227.958 193.125 L 225.734 187.954 230.441 177.727 C 235.369 167.022, 236.974 165, 240.543 165 C 243.289 165, 248.754 159.829, 249.609 156.422 C 250.444 153.093, 248.582 146.836, 246.082 144.574 C 241.262 140.212, 232.755 141.030, 228.568 146.257 C 227.139 148.041, 225.576 149.990, 225.095 150.590 C 224.614 151.189, 220.830 152.259, 216.686 152.968 C 209.468 154.203, 209 154.163, 205.539 152.024 C 195.939 146.091, 186.050 157.204, 193.923 165.077 C 198.502 169.656, 202.913 169.181, 207.571 163.608 C 210.289 160.357, 212.184 159.066, 214.871 158.635 C 216.867 158.315, 219.903 157.772, 221.618 157.428 C 224.198 156.911, 225.190 157.292, 227.368 159.641 C 228.816 161.202, 230 163.239, 230 164.167 C 230 165.095, 228.425 169.264, 226.500 173.431 C 224.575 177.599, 223 181.441, 223 181.969 C 223 183.777, 219.489 184.809, 214.994 184.324 C 211.453 183.942, 209.482 184.386, 205.697 186.419 C 203.055 187.839, 200.150 189, 199.240 189 C 197.379 189, 176.404 175.646, 173.844 172.831 C 172.331 171.168, 172.318 170.511, 173.689 165.259 C 175.038 160.093, 175.030 158.928, 173.606 153.808 C 172.735 150.673, 172.273 147.521, 172.580 146.804 C 173.104 145.579, 185.327 135.609, 199.744 124.646 C 206.569 119.455, 206.560 119.457, 215.116 122.505 C 229.827 127.745, 243.259 109.940, 234.116 97.319 C 228.487 89.549, 218.953 87.741, 210.816 92.902 M 214.190 97.026 C 212.357 98.143, 210.202 100.665, 209.362 102.675 C 207.999 105.938, 208.005 106.725, 209.423 110.438 C 214.378 123.412, 234.136 118.200, 231.583 104.593 C 230.720 99.990, 225.063 94.999, 220.715 95.004 C 218.947 95.006, 216.010 95.916, 214.190 97.026 M 244 105.665 C 244 109.877, 244.466 112.142, 245.510 113.009 C 246.341 113.698, 249.012 117.258, 251.446 120.919 C 256.458 128.459, 260.486 139.575, 261.491 148.639 C 262.295 155.903, 260.614 168.284, 257.803 175.798 C 255.051 183.153, 246.747 195.254, 241.504 199.551 C 238.894 201.689, 236.872 204.305, 236.492 206.034 C 236.142 207.629, 234.777 210.524, 233.458 212.467 C 230.678 216.563, 230.819 216.659, 235.790 214.060 C 251.051 206.077, 264.733 187.182, 268.665 168.657 C 271.029 157.523, 270.086 142.692, 266.326 131.882 C 262.891 122.003, 256.396 111.713, 249.068 104.538 L 244 99.575 244 105.665 M 143.848 144.961 C 134.182 150.218, 132.524 164.043, 140.642 171.698 C 152.172 182.573, 170.080 174.041, 168.775 158.295 C 168.018 149.171, 162.489 143.826, 153.263 143.302 C 148.944 143.057, 146.585 143.473, 143.848 144.961 M 233.039 149.189 C 230.711 151.688, 230.520 153.219, 232.150 156.316 C 233.653 159.172, 234.940 159.966, 238.095 159.985 C 241.311 160.004, 244.250 156.908, 244.250 153.500 C 244.250 147.614, 237.076 144.855, 233.039 149.189 M 196.706 155.772 C 194.579 158.123, 194.533 160.390, 196.571 162.429 C 200.643 166.501, 207.313 161.185, 204.225 156.329 C 202.791 154.075, 198.528 153.759, 196.706 155.772 M 140 187.555 C 140 189.706, 146.937 198.636, 153.308 204.687 C 161.440 212.410, 172.864 218.888, 182.943 221.491 C 189.570 223.202, 207 224.784, 207 223.674 C 207 223.331, 205.537 222.313, 203.750 221.412 C 201.963 220.510, 199.375 218.759, 198 217.521 C 196.453 216.128, 193.022 214.810, 189 214.065 C 177.872 212.002, 166.649 205.864, 157.738 196.967 C 151.949 191.188, 149.071 189.048, 146.417 188.550 C 144.459 188.183, 142.215 187.636, 141.429 187.334 C 140.643 187.033, 140 187.132, 140 187.555 M 211.910 189.770 C 206.233 191.285, 203 195.379, 203 201.050 C 203 203.299, 203.973 205.173, 206.400 207.600 C 210.227 211.427, 214.141 212.013, 219.020 209.490 C 222.718 207.577, 224 205.171, 224 200.142 C 224 193.518, 217.798 188.198, 211.910 189.770 M 161.001 240.078 C 154.634 242.732, 151 248.596, 151 256.216 C 151 262.657, 153.403 267.605, 158.102 270.839 C 160.853 272.733, 162.465 273.101, 166.570 272.772 C 172.782 272.274, 176.293 269.869, 179.104 264.189 C 183.013 256.290, 180.012 244.753, 173.085 241.045 C 170.132 239.465, 163.705 238.951, 161.001 240.078 M 239.274 241.093 C 233.271 244.065, 230.513 248.935, 230.506 256.578 C 230.501 261.700, 230.941 263.233, 233.302 266.329 C 240.806 276.168, 253.121 275.040, 258.815 263.992 C 263.228 255.432, 259.922 245.130, 251.434 240.985 C 246.306 238.481, 244.519 238.497, 239.274 241.093 M 88.667 240.667 C 88.300 241.033, 88 242.137, 88 243.119 C 88 244.611, 89.028 244.954, 94.250 245.202 L 100.500 245.500 100.779 258.750 C 101.041 271.174, 101.181 272, 103.029 272 C 104.893 272, 105 271.267, 105 258.500 L 105 245 111 245 C 116.733 245, 117 244.889, 117 242.500 L 117 240 103.167 240 C 95.558 240, 89.033 240.300, 88.667 240.667 M 120 255.909 C 120 271.202, 120.097 272, 121.952 272 C 123.649 272, 123.944 271.181, 124.202 265.750 L 124.500 259.500 130.090 259.205 C 136.426 258.870, 136.857 259.197, 139.533 266.348 C 141.360 271.231, 142.652 272.450, 145.352 271.835 C 146.539 271.564, 146.269 270.289, 143.939 265.177 L 141.057 258.855 143.756 256.533 C 147.580 253.244, 147.557 247.104, 143.707 243.250 C 141.115 240.656, 140.363 240.481, 130.480 240.159 L 120 239.818 120 255.909 M 184 256 L 184 272 186.469 272 L 188.938 272 189.219 260.047 L 189.500 248.094 197.788 260.047 C 204.615 269.893, 206.514 272, 208.563 272 L 211.051 272 210.775 256.250 C 210.506 240.843, 210.452 240.493, 208.282 240.185 C 206.113 239.876, 206.058 240.127, 205.782 251.643 L 205.500 263.417 197.229 251.709 C 190.468 242.136, 188.507 240, 186.479 240 L 184 240 184 256 M 160.381 245.910 C 155.405 248.943, 153.603 256.399, 156.494 261.989 C 158.557 265.978, 161.784 268, 166.088 268 C 176.392 268, 180.293 253.631, 171.904 246.573 C 168.274 243.518, 164.645 243.309, 160.381 245.910 M 240.217 245.561 C 237.043 247.784, 235 252.249, 235 256.965 C 235 262.674, 239.999 268.200, 245.165 268.200 C 250.002 268.200, 252.423 266.736, 254.370 262.633 C 258.475 253.982, 253.723 244, 245.500 244 C 243.820 244, 241.442 244.702, 240.217 245.561 M 124.195 249.750 L 124.500 254.500 130.572 254.793 C 138.743 255.188, 142 253.886, 142 250.225 C 142 245.822, 140.386 245, 131.745 245 L 123.890 245 124.195 249.750 M 293.763 247.565 C 290.046 249.582, 287.643 254.556, 287.709 260.095 C 287.817 269.119, 291.644 272, 303.520 272 C 310.849 272, 311.127 271.914, 310.820 269.750 C 310.528 267.698, 309.838 267.456, 303 267 C 295.018 266.468, 293 265.750, 293 263.441 C 293 262.293, 294.830 262, 302 262 L 311 262 310.993 258.250 C 310.977 249.036, 301.679 243.270, 293.763 247.565 M 264 259.500 L 264 272 266.500 272 L 269 272 269 262 L 269 252 271.545 252 C 272.945 252, 275.195 253.105, 276.545 254.455 C 278.718 256.627, 279 257.777, 279 264.455 C 279 271.836, 279.054 272, 281.500 272 C 283.952 272, 284 271.850, 283.998 264.250 C 283.996 251.201, 280.443 247.195, 268.750 247.056 L 264 247 264 259.500 M 297 251.694 C 295.346 252.285, 293 254.923, 293 256.191 C 293 256.636, 295.925 257, 299.500 257 C 303.075 257, 306 256.628, 306 256.174 C 306 254.800, 301.471 250.995, 299.936 251.079 C 299.146 251.122, 297.825 251.399, 297 251.694 M 141.500 281 C 141.160 281.550, 138.939 282, 136.563 282 C 133.965 282, 131.754 282.591, 131.013 283.484 C 130.247 284.407, 129.617 289.570, 129.348 297.129 C 129.111 303.816, 128.443 310.172, 127.865 311.252 C 126.379 314.029, 128.104 315.316, 130.791 313.434 C 132.754 312.059, 133 311.004, 133 303.943 L 133 296 141.500 296 C 146.175 296, 150 296.415, 150 296.923 C 150 297.431, 148.812 299.258, 147.360 300.984 L 144.720 304.121 141.426 300.928 C 139.184 298.755, 137.579 297.948, 136.401 298.400 C 134.891 298.979, 135.074 299.481, 137.835 302.330 C 139.576 304.126, 141 306.065, 141 306.640 C 141 307.215, 139.425 308.533, 137.500 309.570 C 134.174 311.361, 133.071 313.308, 134.783 314.366 C 135.214 314.632, 137.772 313.732, 140.467 312.366 L 145.367 309.882 150.190 312.507 C 154.615 314.915, 155.068 314.987, 155.685 313.380 C 156.124 312.235, 155.734 311.259, 154.560 310.564 C 153.572 309.979, 151.840 308.782, 150.713 307.904 L 148.663 306.309 151.206 302.904 C 157.473 294.515, 157.170 292, 149.893 292 C 145.123 292, 145 291.925, 145 289 C 145 286.238, 145.278 286, 148.500 286 C 150.944 286, 152 286.452, 152 287.500 C 152 288.333, 152.889 289, 154 289 C 155.420 289, 156 288.333, 156 286.700 C 156 283.415, 154.152 282, 149.859 282 C 147.801 282, 145.840 281.550, 145.500 281 C 145.160 280.450, 144.260 280, 143.500 280 C 142.740 280, 141.840 280.450, 141.500 281 M 164 281.933 C 164 282.996, 163.100 284.151, 162 284.500 C 160.900 284.849, 160 285.779, 160 286.567 C 160 287.355, 160.900 288, 162 288 C 163.884 288, 164 288.667, 164 299.500 C 164 310.333, 163.884 311, 162 311 C 160.667 311, 160 311.667, 160 313 C 160 314.778, 160.667 315, 166 315 C 171.333 315, 172 314.778, 172 313 C 172 311.667, 171.333 311, 170 311 C 168.116 311, 168 310.333, 168 299.500 C 168 288.667, 168.116 288, 170 288 C 171.333 288, 172 287.333, 172 286 C 172 284.667, 171.333 284, 170 284 C 168.667 284, 168 283.333, 168 282 C 168 280.667, 167.333 280, 166 280 C 164.690 280, 164 280.667, 164 281.933 M 174 282 C 174 283.813, 174.678 284.003, 181.250 284.034 L 188.500 284.067 183.218 287.284 C 179.311 289.663, 178.009 291.021, 178.218 292.500 C 178.464 294.244, 179.460 294.564, 186 295 L 193.500 295.500 193.500 303 C 193.500 310.016, 193.355 310.521, 191.250 310.820 C 187.707 311.323, 188.230 315, 191.845 315 C 196.702 315, 198 312.434, 198 302.826 C 198 292.907, 196.804 291.033, 190.421 290.948 L 186.500 290.895 188.967 289.198 C 195.252 284.873, 196.509 283.318, 195.095 281.615 C 194.027 280.328, 191.749 280, 183.878 280 C 174.667 280, 174 280.135, 174 282 M 246.373 281.469 C 244.447 282.877, 243.801 287.347, 245.049 290.629 C 245.947 292.990, 246.020 293, 262.275 293 C 273.639 293, 278.965 292.635, 279.800 291.800 C 281.159 290.441, 281.389 284.162, 280.151 282.210 C 279.023 280.432, 248.702 279.766, 246.373 281.469 M 118 283 C 118 284.667, 118.667 285, 122 285 C 125.333 285, 126 284.667, 126 283 C 126 281.333, 125.333 281, 122 281 C 118.667 281, 118 281.333, 118 283 M 248.380 285.452 C 247.198 288.533, 249.131 289, 263.059 289 C 276.071 289, 277 288.874, 277 287.107 C 277 284.357, 275.207 284, 261.387 284 C 251.425 284, 248.826 284.290, 248.380 285.452 M 133.667 286.667 C 133.300 287.033, 133 288.383, 133 289.667 C 133 291.722, 133.476 292, 137 292 C 140.778 292, 141 291.833, 141 289 C 141 286.267, 140.704 286, 137.667 286 C 135.833 286, 134.033 286.300, 133.667 286.667 M 118 297 C 118 298.667, 118.667 299, 122 299 C 125.333 299, 126 298.667, 126 297 C 126 295.333, 125.333 295, 122 295 C 118.667 295, 118 295.333, 118 297 M 202 297.022 C 202 298.989, 202.509 299.037, 220.737 298.772 C 237.661 298.526, 239.507 298.331, 239.810 296.750 C 240.121 295.133, 238.700 295, 221.073 295 C 202.597 295, 202 295.063, 202 297.022 M 244 297 C 244 298.333, 244.667 299, 246 299 C 248.251 299, 248.397 299.390, 247.070 301.870 C 245 305.736, 247.178 306.474, 262.211 307 C 274.023 307.413, 276.500 307.760, 276.500 309 C 276.500 310.253, 274.071 310.546, 261.750 310.777 C 247.764 311.039, 247 311.157, 247 313.052 C 247 314.978, 247.580 315.040, 263.227 314.775 L 279.454 314.500 280.420 311.750 C 281.041 309.981, 281.041 308.019, 280.420 306.250 L 279.454 303.500 265.227 303.223 C 257.402 303.070, 251 302.563, 251 302.095 C 251 299.755, 254.570 299.040, 267.555 298.779 C 279.887 298.532, 281.513 298.300, 281.811 296.750 C 282.121 295.133, 280.700 295, 263.073 295 C 244.667 295, 244 295.070, 244 297 M 178.543 297.250 C 178.327 297.938, 177.872 300.577, 177.534 303.115 C 177.195 305.653, 176.276 308.578, 175.491 309.615 C 173.953 311.646, 173.509 315, 174.777 315 C 177.491 315, 179.951 311.521, 180.970 306.242 C 181.580 303.084, 182.295 299.488, 182.558 298.250 C 182.933 296.492, 182.590 296, 180.988 296 C 179.860 296, 178.760 296.563, 178.543 297.250 M 186.656 296.750 C 186.402 297.163, 185.877 299.750, 185.489 302.500 C 185.101 305.250, 184.157 308.497, 183.392 309.715 C 181.767 312.300, 181.567 315, 183 315 C 186.224 315, 190 306.073, 190 298.451 C 190 296.141, 187.739 294.991, 186.656 296.750 M 118.469 310.864 C 118.211 311.122, 118 311.933, 118 312.667 C 118 313.556, 119.333 314, 122 314 C 127.190 314, 127.572 311.402, 122.469 310.807 C 120.528 310.580, 118.728 310.606, 118.469 310.864" stroke="none" fill="black" fill-rule="evenodd"/>
	<path fill-opacity="0.329" d="M 186.483 86.523 C 171.036 89.918, 158.031 97.786, 147.476 110.125 C 143.116 115.221, 134 131.714, 134 134.505 C 134 135.377, 135.758 134.855, 139.318 132.927 C 143.731 130.537, 145.050 129.149, 147.065 124.773 C 150.754 116.762, 163.573 104.452, 173.157 99.717 C 180.387 96.145, 191.403 93.056, 197.047 93.017 C 198.686 93.006, 200.986 91.574, 203.500 89 L 207.406 85 199.953 85.100 C 195.854 85.156, 189.792 85.796, 186.483 86.523 M 244.593 106.432 C 244.710 111.154, 245.211 112.427, 248.429 116.182 C 256.375 125.451, 261.965 141.277, 261.965 154.500 C 261.965 170.944, 253.874 188.896, 241.581 199.722 C 239.222 201.800, 236.954 204.625, 236.543 206 C 236.131 207.375, 234.923 210.019, 233.857 211.876 C 232.791 213.733, 232.097 215.430, 232.314 215.647 C 233.231 216.564, 245.022 207.645, 250.601 201.814 C 276.093 175.170, 276.340 135.489, 251.191 107.012 C 248.271 103.705, 245.562 101, 245.170 101 C 244.778 101, 244.518 103.444, 244.593 106.432 M 140 187.516 C 140 189.270, 149.369 201.147, 154.129 205.426 C 160.766 211.394, 170.752 217.284, 178.730 219.936 C 185.910 222.324, 199.010 223.959, 203.456 223.022 C 206.478 222.385, 206.482 222.376, 204 221.722 C 202.625 221.359, 200.211 219.858, 198.636 218.385 C 196.750 216.622, 193.653 215.264, 189.565 214.407 C 175.445 211.447, 162.357 203.981, 154.192 194.229 C 151.223 190.683, 149.106 189.111, 146.769 188.719 C 144.971 188.417, 142.713 187.859, 141.750 187.478 C 140.787 187.097, 140 187.115, 140 187.516 M 88.587 241 C 87.441 243.639, 88.867 244.517, 94.750 244.798 L 101 245.095 101 258.548 C 101 271.333, 101.099 272, 103 272 C 104.901 272, 105 271.333, 105 258.500 L 105 245 111 245 C 116.279 245, 117 244.766, 117 243.053 C 117 241.229, 116.102 241.086, 102.902 240.803 C 95.149 240.636, 88.707 240.725, 88.587 241 M 157.999 242.250 C 152.920 245.717, 150.807 250.419, 151.254 257.263 C 151.671 263.665, 153.651 267.117, 158.990 270.750 C 171.220 279.074, 185.942 262.840, 179.058 248.621 C 175.029 240.297, 165.211 237.327, 157.999 242.250 M 184.592 240.742 C 184.266 241.067, 184 248.233, 184 256.667 C 184 271.256, 184.096 272, 185.970 272 C 187.812 272, 187.958 271.174, 188.220 259.274 L 188.500 246.548 191.500 250.722 C 193.150 253.017, 197.148 258.744, 200.386 263.448 C 204.221 269.022, 206.920 272, 208.136 272 C 209.877 272, 210 270.948, 210 256.094 C 210 240.762, 209.929 240.206, 208.031 240.702 C 206.238 241.171, 206.036 242.244, 205.781 252.700 L 205.500 264.183 198 253.391 C 193.875 247.455, 190.242 242.228, 189.927 241.776 C 189.186 240.714, 185.361 239.972, 184.592 240.742 M 240 240.706 C 234.715 242.638, 231 249.041, 231 256.216 C 231 268.645, 241.261 276.292, 251.450 271.457 C 261.798 266.546, 263.625 252.390, 255.022 243.786 C 251.639 240.404, 250.716 240.008, 246.368 240.079 C 243.690 240.122, 240.825 240.405, 240 240.706 M 120 256.500 C 120 271.333, 120.086 272, 122 272 C 123.795 272, 124 271.333, 124 265.500 L 124 259 130.350 259 L 136.700 259 139.462 265.500 C 141.472 270.228, 142.739 272, 144.113 272 C 146.566 272, 146.503 271.340, 143.405 264.574 L 140.810 258.905 143.405 256.500 C 146.969 253.197, 147.037 246.946, 143.545 243.455 C 141.250 241.159, 140.409 241, 130.545 241 L 120 241 120 256.500 M 160.217 245.561 C 157.021 247.799, 155 252.258, 155 257.068 C 155 260.575, 155.615 261.850, 158.882 265.118 C 163.987 270.222, 167.826 270.374, 172.541 265.659 C 174.379 263.821, 176.183 261.118, 176.551 259.652 C 178.450 252.085, 173.155 244, 166.299 244 C 164.180 244, 161.442 244.702, 160.217 245.561 M 238.667 246.825 C 229.315 256.587, 238.432 273.482, 249.862 267.572 C 257.538 263.602, 258.211 250.928, 251.046 245.282 C 250.196 244.612, 247.672 244.049, 245.437 244.032 C 242.260 244.007, 240.784 244.616, 238.667 246.825 M 124 250 L 124 255 131.066 255 C 139.561 255, 142 253.921, 142 250.165 C 142 245.832, 140.358 245, 131.800 245 L 124 245 124 250 M 295.326 247.063 C 290.874 248.402, 288 253.420, 288 259.852 C 288 264.088, 288.500 265.528, 290.908 268.223 C 293.654 271.296, 294.256 271.497, 301.763 271.838 C 308 272.121, 309.829 271.889, 310.262 270.759 C 311.314 268.018, 309.410 267.095, 302.088 266.798 C 295.752 266.541, 294.529 266.189, 293.246 264.250 L 291.756 262 301.378 262 L 311 262 311 258.950 C 311 250.322, 303.471 244.612, 295.326 247.063 M 264 260.070 C 264 272.014, 264.023 272.136, 266.250 271.820 C 268.392 271.515, 268.507 271.043, 268.636 262 L 268.772 252.500 271.827 252.191 C 277.208 251.647, 279 254.614, 279 264.070 C 279 271.866, 279.076 272.128, 281.250 271.820 C 283.382 271.517, 283.496 271.067, 283.432 263.274 C 283.328 250.650, 280.989 248, 269.953 248 L 264 248 264 260.070 M 294.807 252.750 C 291.352 256.773, 291.572 257, 298.941 257 C 306.413 257, 307.299 256.299, 304 253 C 301.533 250.533, 296.821 250.405, 294.807 252.750 M 141.500 281 C 141.160 281.550, 139.195 282, 137.132 282 C 130.596 282, 130.125 282.954, 129.722 297 C 129.525 303.875, 129.004 310.512, 128.565 311.750 C 127.622 314.407, 129.100 314.757, 131.429 312.429 C 132.575 311.282, 133 308.848, 133 303.429 L 133 296 142.035 296 C 151.954 296, 151.883 295.916, 147.089 301.995 L 145.121 304.491 142.256 301.745 C 139.619 299.219, 136 298.037, 136 299.702 C 136 300.089, 137.402 301.851, 139.115 303.618 L 142.229 306.831 138.627 309.166 C 135.069 311.471, 133.822 314.005, 136.250 313.995 C 136.938 313.992, 139.252 312.930, 141.392 311.634 L 145.285 309.278 149.392 311.627 C 156.644 315.774, 158.908 313.861, 151.948 309.467 L 147.896 306.909 151.448 302.071 C 156.893 294.653, 156.095 292, 148.418 292 C 145.302 292, 145 291.740, 145 289.059 C 145 287.441, 145.476 285.824, 146.057 285.465 C 147.743 284.423, 152 285.895, 152 287.519 C 152 288.334, 152.900 289, 154 289 C 155.309 289, 156 288.333, 156 287.071 C 156 283.999, 153.213 282, 148.929 282 C 146.768 282, 145 281.550, 145 281 C 145 280.450, 144.352 280, 143.559 280 C 142.766 280, 141.840 280.450, 141.500 281 M 174.513 280.821 C 174.231 281.103, 174 281.914, 174 282.623 C 174 283.530, 176.150 284, 181.250 284.206 L 188.500 284.500 183.250 287.741 C 175.011 292.827, 176.308 295, 187.582 295 L 194 295 194 302.981 C 194 310.660, 193.905 310.986, 191.500 311.589 C 188.345 312.381, 188.198 315, 191.309 315 C 196.206 315, 197.474 312.825, 197.823 303.831 C 198.223 293.519, 197.249 291.849, 190.374 291.060 L 185.500 290.500 190.250 287.708 C 193.348 285.886, 195 284.235, 195 282.958 C 195 281.881, 194.438 280.944, 193.750 280.875 C 189.393 280.437, 174.936 280.397, 174.513 280.821 M 118 282.500 C 118 283.583, 119.111 284, 122 284 C 124.889 284, 126 283.583, 126 282.500 C 126 281.417, 124.889 281, 122 281 C 119.111 281, 118 281.417, 118 282.500 M 164 283 C 164 284.333, 163.333 285, 162 285 C 160.889 285, 160 285.667, 160 286.500 C 160 287.333, 160.889 288, 162 288 C 163.884 288, 164 288.667, 164 299.500 C 164 310.333, 163.884 311, 162 311 C 160.667 311, 160 311.667, 160 313 C 160 314.778, 160.667 315, 166 315 C 171.333 315, 172 314.778, 172 313 C 172 311.667, 171.333 311, 170 311 C 168.116 311, 168 310.333, 168 299.500 C 168 288.667, 168.116 288, 170 288 C 171.111 288, 172 287.333, 172 286.500 C 172 285.667, 171.111 285, 170 285 C 168.667 285, 168 284.333, 168 283 C 168 281.667, 167.333 281, 166 281 C 164.667 281, 164 281.667, 164 283 M 245.690 281.643 C 245.310 282.023, 245 284.500, 245 287.148 C 245 293.197, 244.880 293.162, 264.477 292.787 L 279.454 292.500 280.420 289.750 C 281.041 287.981, 281.041 286.019, 280.420 284.250 L 279.454 281.500 262.917 281.227 C 253.822 281.076, 246.069 281.264, 245.690 281.643 M 248.373 285.472 C 246.895 289.323, 248.321 289.737, 262.667 289.616 L 276.500 289.500 276.500 287 L 276.500 284.500 262.729 284.222 C 251.124 283.987, 248.867 284.184, 248.373 285.472 M 134.250 285.639 C 133.563 285.929, 133 287.479, 133 289.083 C 133 291.879, 133.189 292, 137.563 292 C 142.109 292, 142.126 291.988, 141.813 288.750 C 141.541 285.928, 141.105 285.474, 138.500 285.306 C 136.850 285.199, 134.938 285.349, 134.250 285.639 M 118.177 296.553 C 118.355 297.407, 118.838 298.082, 119.250 298.053 C 119.662 298.024, 121.350 298, 123 298 C 125 298, 126 297.500, 126 296.500 C 126 295.412, 124.881 295, 121.927 295 C 118.772 295, 117.926 295.350, 118.177 296.553 M 202 296.500 C 202 297.780, 204.759 298, 220.833 298 C 236.907 298, 239.667 297.780, 239.667 296.500 C 239.667 295.220, 236.907 295, 220.833 295 C 204.759 295, 202 295.220, 202 296.500 M 244 297 C 244 298.359, 244.667 299, 246.079 299 C 247.859 299, 248.066 299.423, 247.515 301.930 C 246.593 306.130, 248.502 306.758, 262.500 306.860 C 269.100 306.907, 275.094 306.959, 275.820 306.973 C 276.611 306.989, 277.011 307.901, 276.820 309.250 C 276.507 311.453, 276.192 311.506, 261.676 311.777 C 250.534 311.985, 246.953 312.358, 247.259 313.277 C 247.558 314.173, 251.927 314.500, 263.583 314.500 L 279.500 314.500 279.811 309.597 C 280.017 306.351, 279.679 304.412, 278.811 303.862 C 278.090 303.405, 271.489 303.024, 264.143 303.015 C 252.378 303.002, 250.858 302.811, 251.393 301.418 C 251.727 300.548, 252 299.648, 252 299.418 C 252 299.188, 258.525 299, 266.500 299 C 280.333 299, 281 298.908, 281 297 C 281 295.072, 280.333 295, 262.500 295 C 244.667 295, 244 295.072, 244 297 M 178.478 299.750 C 177.177 307.713, 176.827 308.899, 175.436 310.053 C 173.624 311.557, 173.568 314, 175.345 314 C 178.540 314, 182 305.610, 182 297.864 C 182 294.323, 179.112 295.870, 178.478 299.750 M 187.874 296.771 C 186.692 297.009, 186.066 298.702, 185.584 302.960 C 185.219 306.183, 184.264 309.366, 183.460 310.033 C 181.629 311.553, 181.557 314, 183.345 314 C 185.803 314, 187.993 310.403, 189.065 304.608 C 190.311 297.866, 190.077 296.327, 187.874 296.771 M 118 312.500 C 118 313.583, 119.111 314, 122 314 C 124.889 314, 126 313.583, 126 312.500 C 126 311.417, 124.889 311, 122 311 C 119.111 311, 118 311.417, 118 312.500" stroke="none" fill="black" fill-rule="evenodd"/>
	<path fill-opacity="0.315" d="M 192 86.038 C 169.809 88.682, 150.345 102.328, 139.279 123 C 136.067 129.001, 133.626 135.377, 134.776 134.762 C 135.174 134.549, 137.387 133.503, 139.693 132.438 C 142.920 130.946, 144.392 129.420, 146.087 125.807 C 148.906 119.798, 156.112 111.178, 162.500 106.175 C 171.984 98.746, 186.387 93.057, 195.817 93.015 C 198.326 93.004, 199.970 92.113, 202.567 89.360 C 204.455 87.358, 206 85.558, 206 85.360 C 206 84.833, 199.446 85.150, 192 86.038 M 245.048 106.357 C 245.006 110.556, 245.542 111.895, 249.004 116.243 C 253.954 122.459, 258.472 131.602, 260.478 139.460 C 262.225 146.301, 262.465 159.275, 260.989 167.057 C 258.896 178.092, 251.041 191.427, 241.443 200.239 C 239.469 202.051, 236.862 206.035, 235.575 209.205 L 233.260 214.910 237.284 212.705 C 243.843 209.111, 256.045 196.222, 260.733 187.936 C 275.101 162.540, 271.296 129.734, 251.508 108.410 L 245.095 101.500 245.048 106.357 M 141.615 189.891 C 154.682 210.425, 176.629 223.016, 199.315 222.994 L 205.500 222.988 202.500 221.427 C 200.850 220.569, 198.600 219.046, 197.500 218.041 C 196.400 217.037, 191.889 215.314, 187.475 214.213 C 174.285 210.921, 166.668 206.723, 157.547 197.719 C 151.052 191.306, 148.580 189.534, 144.727 188.528 L 139.954 187.281 141.615 189.891 M 160.500 240.906 C 159.400 241.393, 157.291 243.076, 155.814 244.646 C 150.704 250.074, 149.706 256.553, 152.896 263.579 C 156.667 271.881, 164.037 274.703, 171.788 270.812 C 185.684 263.838, 182.104 241.727, 166.864 240.400 C 164.464 240.191, 161.600 240.419, 160.500 240.906 M 238 242.181 C 232.886 245.628, 230.811 250.271, 231.260 257.263 C 231.849 266.441, 237.672 272.575, 245.631 272.403 C 256.621 272.164, 263.505 259.189, 258.377 248.381 C 254.788 240.818, 244.615 237.723, 238 242.181 M 89 242.500 C 89 243.667, 90.333 244, 95 244 L 101 244 101 258 C 101 269.658, 101.246 272, 102.472 272 C 103.683 272, 103.993 269.562, 104.222 258.250 L 104.500 244.500 110.750 244.202 C 115.411 243.980, 117 243.535, 117 242.452 C 117 241.252, 114.573 241, 103 241 C 91.222 241, 89 241.238, 89 242.500 M 121 256.500 C 121 269.611, 121.231 272, 122.500 272 C 123.677 272, 124 270.621, 124 265.585 L 124 259.171 130.421 258.835 L 136.842 258.500 139.839 265.250 C 141.715 269.477, 143.427 272, 144.418 272 C 146.441 272, 146.384 271.669, 143.140 264.610 L 140.434 258.720 143.217 255.937 C 146.183 252.971, 146.719 249.673, 144.890 245.657 C 143.243 242.043, 139.898 241, 129.953 241 L 121 241 121 256.500 M 185 256.500 C 185 269.611, 185.231 272, 186.500 272 C 187.753 272, 188 269.944, 188 259.500 C 188 252.625, 188.338 247.004, 188.750 247.010 C 189.162 247.015, 191.975 250.650, 195 255.089 C 203.837 268.055, 206.997 272, 208.546 272 C 209.756 272, 210 269.394, 210 256.500 C 210 243.389, 209.769 241, 208.500 241 C 207.254 241, 207 242.944, 207 252.500 C 207 258.825, 206.626 264, 206.168 264 C 205.383 264, 203.638 261.736, 193.136 247.087 C 190.444 243.332, 188.050 241, 186.886 241 C 185.119 241, 185 241.979, 185 256.500 M 161.449 244.551 C 157.157 246.670, 155 250.834, 155 257.004 C 155 261.580, 155.406 262.606, 158.400 265.600 C 166.606 273.806, 178.126 266.683, 176.727 254.268 C 176.303 250.512, 175.478 248.910, 172.613 246.284 C 168.676 242.676, 166.069 242.271, 161.449 244.551 M 240.190 244.974 C 232.983 249.480, 232.157 260.296, 238.587 265.943 C 244.736 271.341, 252.609 269.208, 255.619 261.328 C 259.956 249.971, 249.657 239.054, 240.190 244.974 M 124.750 244.574 C 124.338 244.992, 124 247.508, 124 250.167 L 124 255 131.929 255 C 140.241 255, 143 253.784, 143 250.120 C 143 246.023, 140.507 244.564, 132.848 244.182 C 128.807 243.981, 125.162 244.157, 124.750 244.574 M 293.117 248.631 C 288.140 252.117, 286.561 261.127, 289.952 266.689 C 292.198 270.372, 296.698 271.986, 304.750 271.994 C 309.212 271.999, 310 271.720, 310 270.132 C 310 268.512, 308.978 268.197, 302.339 267.771 C 296.450 267.393, 294.368 266.856, 293.339 265.449 C 290.661 261.787, 291.619 261.255, 301.211 261.080 C 306.276 260.988, 310.580 260.753, 310.775 260.558 C 311.859 259.474, 309.374 252.541, 306.984 249.983 C 304.713 247.551, 303.389 247, 299.821 247 C 297.394 247, 294.408 247.726, 293.117 248.631 M 264 259.887 C 264 271.333, 264.110 272, 266 272 C 267.867 272, 268 271.333, 268 262 L 268 252 271.845 252 C 277.744 252, 279 254.076, 279 263.829 C 279 271.459, 279.139 272, 281.097 272 C 283.102 272, 283.178 271.589, 282.847 262.526 C 282.396 250.220, 281.180 248.745, 271.005 248.170 L 264 247.774 264 259.887 M 294 253 C 290.663 256.337, 291.581 257, 299.535 257 C 307.034 257, 307.065 256.989, 305.885 254.750 C 305.234 253.512, 304.205 252.169, 303.600 251.765 C 301.412 250.304, 296 251, 294 253 M 119 282.437 C 119 283.564, 120 284, 122.583 284 C 127.102 284, 126.757 281.639, 122.173 281.187 C 119.828 280.955, 119 281.281, 119 282.437 M 141.718 281.616 C 141.379 281.954, 139.255 282.369, 136.998 282.537 C 130.321 283.035, 130 283.705, 130 297.136 C 130 304.717, 129.561 309.731, 128.788 310.968 C 126.969 313.880, 128.884 314.855, 131.086 312.139 C 132.588 310.287, 133 308.178, 133 302.350 L 133 294.922 141.669 295.211 C 146.959 295.387, 150.484 295.938, 150.711 296.624 C 151.116 297.848, 146.343 304, 144.988 304 C 144.529 304, 142.771 302.837, 141.081 301.415 C 136.814 297.824, 135.182 298.847, 138.926 302.765 C 140.617 304.534, 142 306.443, 142 307.007 C 142 307.571, 140.425 308.783, 138.500 309.701 C 136.575 310.619, 135 311.962, 135 312.685 C 135 314.493, 135.535 314.378, 141.042 311.380 L 145.855 308.761 148.678 310.718 C 152.691 313.500, 155 314.197, 155 312.626 C 155 311.905, 153.425 310.467, 151.500 309.430 C 149.575 308.393, 148 307.201, 148 306.781 C 148 306.361, 149.575 303.954, 151.500 301.432 C 153.425 298.910, 155 295.981, 155 294.923 C 155 293.282, 154.267 293, 150 293 L 145 293 145 289 C 145 285.075, 145.068 285, 148.594 285 C 151.346 285, 152.310 285.468, 152.710 287 C 153.445 289.810, 155 289.494, 155 286.535 C 155 283.515, 152.380 281.971, 148.163 282.505 C 146.423 282.725, 145 282.476, 145 281.952 C 145 280.893, 142.679 280.655, 141.718 281.616 M 165 283 C 165 284.467, 164.333 285, 162.500 285 C 160.944 285, 160 285.567, 160 286.500 C 160 287.438, 160.948 288, 162.532 288 L 165.063 288 164.782 299.750 C 164.510 311.076, 164.419 311.512, 162.250 311.820 C 157.611 312.478, 160.227 314, 166 314 C 169.333 314, 172 313.556, 172 313 C 172 312.450, 171.148 312, 170.107 312 C 167.420 312, 167 310.172, 167 298.488 C 167 288.631, 167.103 288.124, 169.172 287.820 C 172.170 287.378, 172.627 285.227, 169.808 284.827 C 168.331 284.617, 167.550 283.869, 167.639 282.750 C 167.715 281.787, 167.153 281, 166.389 281 C 165.625 281, 165 281.900, 165 283 M 174.540 282.250 C 174.876 283.131, 177.080 283.402, 182.008 283.168 C 186.164 282.971, 189 283.236, 189 283.822 C 189 284.365, 186.495 286.223, 183.432 287.951 C 180.370 289.680, 178.043 291.635, 178.261 292.297 C 178.498 293.016, 181.507 293.701, 185.749 294 C 189.649 294.275, 193.060 294.725, 193.329 295 C 193.597 295.275, 194.002 298.754, 194.228 302.731 C 194.652 310.194, 193.984 312, 190.800 312 C 189.810 312, 189 312.464, 189 313.031 C 189 314.737, 191.968 315.336, 194.564 314.153 C 196.892 313.092, 197 312.629, 197 303.721 C 197 297.805, 196.562 293.962, 195.800 293.200 C 195.140 292.540, 192.692 292, 190.359 292 C 184.689 292, 184.084 290.508, 188.782 288.111 C 193.262 285.826, 195.442 283.524, 194.527 282.044 C 193.540 280.446, 173.929 280.649, 174.540 282.250 M 246.224 282.176 C 244.210 284.190, 244.687 290.762, 246.934 291.965 C 249 293.070, 273.952 293.387, 277.798 292.357 C 279.870 291.802, 280.066 291.239, 279.798 286.621 L 279.500 281.500 263.474 281.226 C 251.854 281.028, 247.111 281.289, 246.224 282.176 M 248 287 L 248 290 262.500 290 L 277 290 277 287 L 277 284 262.500 284 L 248 284 248 287 M 133.660 285.750 C 133.407 286.163, 133.043 287.850, 132.851 289.500 C 132.507 292.441, 132.589 292.500, 137 292.500 C 141.478 292.500, 141.502 292.482, 141.810 288.750 L 142.121 285 138.119 285 C 135.919 285, 133.912 285.337, 133.660 285.750 M 119 296.587 C 119 297.541, 120.163 298, 122.583 298 C 125.005 298, 126.032 297.595, 125.752 296.750 C 125.152 294.945, 119 294.796, 119 296.587 M 203 296.500 C 203 297.778, 205.667 298, 221 298 C 236.333 298, 239 297.778, 239 296.500 C 239 295.222, 236.333 295, 221 295 C 205.667 295, 203 295.222, 203 296.500 M 244.414 295.917 C 243.280 297.057, 244.273 298, 246.607 298 C 248.706 298, 249.069 298.341, 248.472 299.750 C 248.064 300.712, 247.678 302.400, 247.615 303.500 C 247.506 305.403, 248.215 305.513, 262.250 305.777 L 277 306.053 277 309.027 L 277 312 262.500 312 C 250.164 312, 248 312.228, 248 313.527 C 248 314.832, 250.140 315.038, 262.750 314.941 C 271.282 314.876, 278.027 314.391, 278.750 313.792 C 279.438 313.221, 280 311.026, 280 308.913 C 280 303.499, 278.251 302.870, 263.722 303.058 C 257 303.144, 251.393 302.829, 251.262 302.358 C 251.131 301.886, 251.274 300.712, 251.579 299.750 C 252.075 298.190, 253.700 298, 266.567 298 C 275.084 298, 281 297.608, 281 297.044 C 281 296.124, 245.301 295.025, 244.414 295.917 M 178.131 303.144 C 177.536 306.523, 176.291 310.126, 175.364 311.150 C 173.476 313.236, 174.084 314.565, 176.502 313.638 C 178.495 312.873, 180.548 307.929, 181.438 301.750 C 181.986 297.947, 181.833 297, 180.668 297 C 179.671 297, 178.874 298.931, 178.131 303.144 M 186.630 299.250 C 186.299 300.488, 186.019 302.625, 186.010 304 C 186 305.375, 185.070 308.013, 183.942 309.863 C 181.615 313.681, 181.901 314.658, 184.880 313.064 C 187.926 311.434, 191.324 297, 188.662 297 C 187.876 297, 186.962 298.012, 186.630 299.250 M 119 312.500 C 119 313.548, 120.056 314, 122.500 314 C 124.944 314, 126 313.548, 126 312.500 C 126 311.452, 124.944 311, 122.500 311 C 120.056 311, 119 311.452, 119 312.500" stroke="none" fill="black" fill-rule="evenodd"/>
</svg>