<?xml version="1.0"?><svg xmlns="http://www.w3.org/2000/svg" width="36" height="36" shape-rendering="geometricPrecision" text-rendering="geometricPrecision" image-rendering="optimizeQuality" fill-rule="evenodd" clip-rule="evenodd" viewBox="0 0 36 36"><path fill="#fdfdfd" d="m0.7-0.1h11.7c0.1 0.1 0.2 0.2 0.3 0.2v0.4c-0.3 0.1-0.5 0.2-0.8 0.5-0.1-0.2-0.3-0.1-0.4 0.1-0.2-0.1-0.3 0-0.4 0.3 0.2 0.2 0.3 0.5 0.2 0.8-0.2-0.5-0.3-0.4-0.3 0.1-0.2 0-0.4 0-0.5 0.1-0.1 0.1 0 0.2 0.1 0.2l0.8 1.8c-0.1 0.2-0.2 0.2-0.3 0.3-0.3-0.2-0.7-0.3-1-0.4l-0.1 0.3c0 0.2 0.1 0.3 0.2 0.3 0 0.1 0.1 0.1 0.2 0.2l-0.5 0.1c0.1 0.1 0.1 0.2 0.1 0.4-0.1-0.2-0.2-0.2-0.3 0 0 0 0.1 0.1 0.2 0.1l-0.1 0.1 0.3 0.2c-0.4 0.2-0.8 0.4-1.2 0.7-0.1 0-0.1-0.1-0.2-0.1-0.4 0.3-0.8 0.4-1.3 0.3-0.1-0.2-0.1-0.3-0.1-0.4-0.2 0.1-0.2 0.2-0.1 0.4-0.2 0.3-0.3 0.7-0.2 1 0.2 0 0.3 0 0.5 0 0.1 0 0.2-0.1 0.3-0.2 0.1 0 0.2-0.1 0.4-0.2 0.2 0.1 0.3 0.3 0.1 0.6 0.2 0.1 0.5 0.2 0.7 0.2-0.1 0.3-0.1 0.4 0.2 0.5-0.1 0.1-0.3 0-0.4-0.1 0 0.2-0.1 0.3-0.2 0.4-0.3-0.1-0.6-0.3-0.9-0.4-0.1 0.4 0 0.8 0.3 1.1-0.1 0.1-0.2 0.2-0.3 0.3-0.2-0.2-0.4-0.4-0.6-0.6l-0.1 0.2c-0.2 0-0.4-0.1-0.6-0.2l-0.2 0.2c0.2 0.1 0.2 0.2 0.2 0.4 0.3 0 0.5 0.1 0.8 0.2-0.2 0.1-0.2 0.4-0.2 0.7 0.1 0.1 0.2 0.1 0.3-0.1 0.3 0.1 0.5 0.3 0.8 0.5-0.1 0.2-0.3 0.4-0.6 0.6-0.1 0.2-0.1 0.5 0 0.7-0.1 0.5 0.2 0.8 0.7 0.7-0.1 0.5 0.1 0.7 0.6 0.8-0.2 0-0.2 0.1 0 0.1 0.3-0.2 0.4-0.6 0.1-0.9 0.2-0.1 0.3-0.2 0.2-0.3 0.5 0.2 0.9 0.5 1 1l0.1-0.1c0.1 0.2 0.2 0.3 0.4 0.3 0.1 0 0.3-0.1 0.4-0.1v-0.3c0-0.3 0-0.6-0.1-0.9 0.2-0.1 0.3-0.1 0.4 0.1 0.1-0.2 0.1-0.4 0-0.6 0.2 0 0.4 0.1 0.4 0.4-0.1 0.1-0.1 0.2-0.1 0.3 0.2 0.1 0.3 0.2 0.5 0.4 0.2-0.1 0.4-0.1 0.6 0 0.2 0 0.3 0.1 0.3 0.3-1.1 0.4-2.1 0.9-3.2 1.3-0.2 0-0.4 0.1-0.5 0.3-1.8 0.7-3.7 1.4-5.5 2.3-0.3 0.2-0.3 0.4 0 0.6 1 0.4 1.9 0.8 2.7 1.3-0.9 0.5-1.8 0.9-2.8 1.3-0.1 0.2-0.1 0.4 0 0.5 1.1 0.7 2.3 1.2 3.5 1.5 0 2.7 0 5.5 0.1 8.2 3.5 1.6 7.1 3.1 10.7 4.5l-0.2 0.2h-17.1v-36z"></path><path fill="#fdfdfc" d="m12.4-0.1h22.8v36h-17.4l0.2-0.2c3.7-1.4 7.3-2.9 10.9-4.5l0.2-8.2c0.7-0.3 1.5-0.6 2.2-0.8 0.5-0.2 0.9-0.5 1.3-0.8 0-0.2-0.1-0.3-0.2-0.4-0.9-0.4-1.8-0.8-2.7-1.3 0.9-0.5 1.8-0.9 2.7-1.3 0.3-0.3 0.2-0.6-0.2-0.7-1.6-0.6-3.1-1.3-4.6-2 0-0.3 0.1-0.5 0.4-0.5-0.1-0.3-0.1-0.6 0-0.9h0.9v-0.5h-0.3c-0.2 0.1-0.4 0.2-0.6 0.3-0.1-0.2-0.1-0.4 0.1-0.6-0.2 0-0.3 0-0.5 0.1-0.1-0.2 0-0.4 0.1-0.5-0.2-0.2-0.3-0.4-0.4-0.7-0.3 0-0.6-0.2-0.7-0.5 0-0.2 0.1-0.3 0.2-0.5 0.2 0.1 0.5 0.2 0.8 0.1 0.1-0.7-0.1-1-0.8-1 0-0.2 0.1-0.3 0.3-0.4 0-0.2 0-0.4-0.1-0.5-0.3-0.3-0.6-0.2-0.8 0.2l-0.2-0.1-0.1 0.4c0-0.1 0-0.2 0-0.3-0.1-0.2-0.1-0.5-0.1-0.7 0.1 0 0.1 0 0.2 0.1 0.1-0.3 0.2-0.5 0.3-0.8-0.1-0.1-0.2-0.1-0.4 0-0.1 0.2-0.2 0.4-0.2 0.5l-0.3-0.1c-0.1-0.2-0.1-0.4-0.2-0.6l-0.4-0.3c0.2-0.1 0.5-0.3 0.8-0.5 0 0.1 0.1 0.2 0.1 0.3-0.2 0-0.3 0-0.4 0.1 0.2 0 0.4 0 0.5 0.2 0.1-0.1 0.1-0.2 0-0.2 0.2-0.2 0.3-0.3 0.1-0.5 0.3-0.2 0.5-0.1 0.6 0.3 0 0.3 0.1 0.5 0.2 0.8 0.4 0.2 0.7 0.5 0.9 1 0.1 0.2 0.1 0.4 0.1 0.7 0.2 0 0.4-0.1 0.5-0.3 0-0.1-0.1-0.2-0.1-0.4v-0.1c-0.1-0.3-0.1-0.5 0.1-0.7 0.2 0.2 0.5 0.1 0.7-0.1-0.2-0.1-0.4-0.3-0.3-0.6 0.2 0.1 0.3 0 0.4-0.2 0-0.1-0.1-0.3 0-0.4-0.4-0.2-0.3-0.4 0-0.5-0.2-0.2-0.2-0.4-0.2-0.7-0.2 0.1-0.4 0-0.5-0.2-0.3 0.1-0.4 0-0.5-0.3l0.1-0.1c-0.2 0-0.3-0.1-0.4-0.3-0.3 0.2-0.6 0.1-0.8-0.2l-0.1 0.2c0-0.2-0.2-0.3-0.3-0.2l-0.1-0.3c-0.2 0.1-0.3 0.1-0.4 0.1 0 0.1 0 0.3-0.1 0.4-0.1-0.1-0.2-0.1-0.2 0.1 0.1 0.2 0.2 0.4 0.4 0.4-0.1 0.1-0.2 0.2-0.3 0.2-0.4-0.2-0.8-0.5-1.2-0.8l0.1-0.1c-0.4-0.4-0.4-0.8 0.1-1.1 0.8 0 1-0.3 0.6-0.9 0.3-0.1 0.6 0 0.8 0.2 0.1-0.2 0.2-0.3 0.3-0.5 0-0.1-0.1-0.1-0.2-0.1-0.2-0.2-0.5-0.3-0.9-0.2-0.1 0.2-0.2 0.3-0.2 0.5-0.2 0.1-0.3 0.1-0.4 0-0.1 0.1-0.2 0.2-0.3 0.1 0-0.4 0-0.8 0-1.3-0.2 0-0.3 0.1-0.5 0.2v0.1c-0.3 0.1-0.3 0.3 0 0.6-0.1 0.1-0.3 0.2-0.6 0.2l-0.1 0.7c-0.1-0.1-0.2-0.2-0.4-0.2 0-0.2-0.1-0.2-0.3-0.1-0.2 0.1-0.4 0.1-0.7 0.1v-0.3h0.3c0.1-0.3 0-0.6-0.2-0.8-0.1 0.2-0.3 0.5-0.4 0.8v0.1c-0.6 0.2-1.1 0.3-1.7 0.2 0.3-0.1 0.4-0.3 0.3-0.5-0.3-0.1-0.5 0-0.7 0.3-0.2-0.2-0.4-0.4-0.6-0.6-0.2 0.1-0.3 0.2-0.5 0.1-0.1 0.1-0.1 0.2-0.1 0.4h-1.3c-0.1-0.2-0.2-0.3-0.3-0.5-0.1 0.2-0.1 0.3-0.1 0.5h-0.5c-0.2-0.1-0.4-0.2-0.6-0.1v-0.4c-0.4 0.1-0.7 0-0.9-0.3 0-0.1 0-0.1-0.1-0.1l-0.1 0.3c-0.5 0.2-1 0.3-1.6 0.2h-0.7c0-0.3-0.1-0.7-0.2-1l-0.1-0.1c-0.1 0.3-0.2 0.6-0.1 0.9h-1c0.1-0.1 0.3-0.1 0.5-0.1 0-0.5 0.1-0.6 0.3-0.1 0.1-0.3 0-0.6-0.2-0.8 0.1-0.3 0.2-0.4 0.4-0.3 0.1-0.2 0.3-0.3 0.4-0.1 0.3-0.3 0.5-0.4 0.8-0.5v-0.4c-0.1 0-0.2-0.1-0.3-0.2z"></path><path fill="#b8847f" d="m21.3 0.3c0.4 0 0.4 0.1 0.1 0.3-0.1-0.1-0.2-0.2-0.1-0.3z"></path><path fill="#7b3834" d="m12.7 0.7c0.1 0 0.2 0.1 0.2 0.1-0.2 0.2-0.3 0.2-0.2-0.1z"></path><path fill="#8f4038" d="m25.8 1c0.1-0.2 0.2-0.2 0.4-0.1 0.2 0.1 0.2 0.3 0 0.4-0.1-0.1-0.3-0.2-0.4-0.3z"></path><path fill="#eed5d0" d="m16.9 0.6c0.2 0 0.5-0.1 0.7-0.1 0.3 0.5 0.1 0.8-0.4 0.8-0.3 0-0.5-0.1-0.6-0.3-0.6 1-0.7 1-0.5-0.2 0.2 0 0.4 0 0.6 0 0-0.1 0.1-0.1 0.2-0.2z"></path><path fill="#ab413a" d="m16.9 0.6c0.7 0.3 0.7 0.4 0 0.6v-0.6z"></path><path fill="#ab8179" d="m19.9 1c0.1 0 0.2 0.1 0.2 0.2l0 0.3c-0.2-0.1-0.2-0.3-0.2-0.5z"></path><path fill="#a0453f" d="m27 1.1c0.2-0.1 0.3 0 0.4 0.1 0 0.2-0.2 0.2-0.4 0.2v-0.3z"></path><path fill="#b56058" d="m20.9 1.7h0.6v0.5c-0.4 0.1-0.6-0.1-0.6-0.5z"></path><path fill="#cc8981" d="m13.6 1.6h0.5v0.6c-0.4 0-0.6-0.2-0.5-0.6z"></path><path fill="#ab7e78" d="m23.9 1.9h0.3v0.3c-0.2 0-0.3-0.1-0.3-0.2v-0.1z"></path><path fill="#d98f7c" d="m11.9 2.6c-0.1 0-0.2-0.1-0.3-0.3-0.3 0.2-0.7 0.3-1 0.3-0.1 0-0.2-0.1-0.1-0.2h1c-0.1-0.3 0-0.6 0.1-0.9l0.1 0.1c0.1 0.3 0.2 0.7 0.2 1z"></path><path fill="#925957" d="m14.4 2.2c0 0.2 0 0.3-0.2 0.4 0 0 0-0.1 0-0.2l0.1-0.3c0.1 0 0.1 0 0.1 0.1z"></path><path fill="#ceaea9" d="m26.1 2.6c0 0.1-0.1 0.2-0.2 0.3-0.2-0.4-0.3-0.4-0.4 0h-0.3v-0.5c0.4-0.1 0.7 0 0.9 0.2z"></path><path fill="#f0c0b7" d="m14.4 2.2c0.2 0.3 0.5 0.4 0.9 0.3v0.4c0.2-0.1 0.4 0 0.6 0.1-0.3 0-0.6 0-0.8-0.1 0.1-0.2 0.1-0.3-0.1-0.3-0.3 0.2-0.5 0.2-0.8 0.3-0.6-0.1-1.1-0.1-1.6-0.3 0.6 0.1 1.1 0 1.6-0.2 0 0.1 0 0.2 0 0.2 0.2-0.1 0.2-0.2 0.2-0.4z"></path><path fill="#e1c2b8" d="m21.7 3.3c-0.1-0.1-0.2-0.3-0.3-0.3 0.1-0.3 0.3-0.6 0.4-0.8 0.2 0.2 0.3 0.5 0.3 0.8h-0.4v0.3z"></path><path fill="#d28f7a" d="m16.8 3v0.1c-0.2 0-0.3-0.1-0.4-0.1 0-0.2 0-0.3 0.1-0.5 0.1 0.2 0.2 0.3 0.3 0.5z"></path><path fill="#bb6b61" d="m18.7 2.5c0 0.3-0.1 0.4-0.4 0.5-0.1-0.1-0.1-0.2-0.1-0.4 0.2 0.1 0.3 0 0.5-0.1z"></path><path fill="#f4d1c6" d="m18.7 2.5c0.2 0.2 0.4 0.4 0.6 0.6 0.2-0.3 0.4-0.4 0.7-0.3 0.1 0.2 0 0.4-0.3 0.5 0.6 0.1 1.1 0 1.7-0.2 0 0.2 0 0.3-0.1 0.4-0.7-0.1-1.5-0.1-2.2-0.1 0.1-0.2 0-0.3-0.2-0.4-0.3 0.1-0.6 0.2-0.9 0.2-0.4 0-0.8-0.1-1.2-0.1v-0.1h1.3c0-0.2 0-0.3 0.1-0.4 0 0.2 0 0.3 0.1 0.4 0.3-0.1 0.4-0.2 0.4-0.5z"></path><path fill="#96635d" d="m22.7 3.3c-0.2 0.2-0.3 0.2-0.3-0.1 0.2-0.1 0.3-0.1 0.3 0.1z"></path><path fill="#cfa6a3" d="m9.1 3.2h0.4v0.7h-0.4v-0.7z"></path><path fill="#bf372d" d="m11.9 2.6h0.7c0.5 0.2 1 0.2 1.6 0.3 0.3-0.1 0.5-0.1 0.8-0.3 0.2 0 0.2 0.1 0.1 0.3 0.2 0.1 0.5 0.1 0.8 0.1h0.5c0.1 0 0.2 0.1 0.4 0.1 0.4 0 0.8 0.1 1.2 0.1 0.3 0 0.6-0.1 0.9-0.2 0.2 0.1 0.3 0.2 0.2 0.4 0.7 0 1.5 0 2.2 0.1 0.1-0.1 0.1-0.2 0.1-0.4v-0.1c0.1 0 0.2 0.2 0.3 0.3 0.4 0.2 0.8 0.5 1.2 0.7 0.2 0.1 0.2 0.2 0.3 0.3-0.1 0-0.3 0-0.4-0.1-0.1 0.2-0.3 0.2-0.5 0l0.3-0.2c-0.3-0.1-0.6-0.2-0.9-0.2 0.1 0.7-0.2 1.2-1 1.3 0.2-0.2 0.4-0.5 0.7-0.7-0.2 0-0.4-0.1-0.6-0.1-0.6-0.2-1.2-0.2-1.9-0.2-0.9-0.2-1.8-0.4-2.8-0.3h-0.9c-0.3-0.1-0.7-0.2-1-0.1-0.4-0.1-0.8-0.2-1.2-0.2-0.2 0-0.2 0.1-0.1 0.2 0.2 0.1 0.4 0.1 0.6 0.1 0 0.1 0 0.2 0.1 0.3 0.2 0.1 0.3 0.2 0.5 0.3 0.1 0.1 0.2 0.2 0.4 0.3 0.1 0.2 0.3 0.2 0.6 0.2-0.1 0.3 0 0.4 0.3 0.4 0.2 0.4 0.5 0.5 0.9 0.4 0 0.2 0 0.3 0.1 0.4 0.4 0.1 0.7 0.2 1 0.3 0 0.1 0 0.2-0.2 0.2 0.1 0.1 0.1 0.2 0.2 0.2 0.2 0.2 0.4 0.3 0.6 0.5 0.1 0 0.3 0.1 0.4 0.1 0.1 0.1 0 0.1-0.1 0.2-0.3-0.1-0.6-0.2-0.9-0.4l0.1-0.1c-0.1-0.1-0.3-0.1-0.5-0.1 0 0.3 0.1 0.4 0.2 0.6h-0.3c0-0.1-0.1-0.2-0.1-0.3-0.4-0.2-0.7-0.4-0.9-0.6-0.2-0.1-0.4-0.2-0.6-0.3l-0.2-0.3c-0.2-0.1-0.4-0.2-0.7-0.3-0.1-0.2-0.3-0.4-0.6-0.5-0.5-0.3-1-0.7-1.5-1.1l0 0.1c0.3 0.6 0.6 1.2 0.8 1.8 0.1 0.2 0.2 0.3 0.4 0.3-0.1 0.5 0.1 0.9 0.4 1.2 0.1 0.2 0.2 0.4 0.3 0.6 0 0.2 0.1 0.3 0.3 0.2 0.1 0.1 0.1 0.3 0 0.4 0.1 0.2 0.1 0.4 0.2 0.5l0.3 0.2c-0.1 0.3 0 0.5 0.2 0.7 0 0.1 0.1 0.3 0.2 0.4 0.1 0.2 0.2 0.4 0.3 0.5 0.2 0.5 0.4 1 0.6 1.4 0 0.3 0.2 0.5 0.3 0.7 0.2 0.4 0.4 0.8 0.6 1.1 0 0.1 0.1 0.2 0.2 0.3v0.4c-0.1-0.1-0.2-0.3-0.4-0.4-0.1 0-0.1 0.1-0.2 0.2 0-0.2-0.1-0.3-0.2-0.2-0.1-0.1-0.3-0.3-0.4-0.5-0.1 0-0.2-0.1-0.2-0.2 0-0.4-0.1-0.7-0.5-0.8-0.1-0.6-0.4-1.1-0.7-1.6-0.1-0.3-0.3-0.6-0.4-1 0-0.2-0.1-0.4-0.3-0.5 0-0.3-0.1-0.5-0.3-0.6 0-0.2-0.1-0.4-0.2-0.5-0.4-0.2-0.7-0.3-1.1-0.4l0.3-0.2c0.2 0 0.3 0 0.5-0.1-0.5-0.9-0.9-1.8-1.4-2.6-0.1-0.5-0.3-0.8-0.5-1.2l-0.8-1.8c0.3 0 0.7-0.1 1-0.3 0.1 0.2 0.2 0.3 0.3 0.3z"></path><path fill="#db796b" d="m14.2 3.7h-0.6v0.4c-0.1-0.1-0.1-0.2-0.1-0.3-0.2 0-0.4 0-0.6-0.1-0.1-0.1-0.1-0.2 0.2-0.2 0.3 0 0.7 0.1 1.1 0.2z"></path><path fill="#a56e6b" d="m10.3 3.4c0.2 0.1 0.3 0.2 0.3 0.4l-0.1 0.3c-0.1-0.2-0.2-0.4-0.2-0.7z"></path><path fill="#b34a40" d="m16.1 3.9v-0.1c1-0.1 1.9 0.1 2.8 0.3-0.9-0.1-1.9-0.2-2.8-0.2z"></path><path fill="#faeeea" d="m14.2 3.7c0.2 0.3 0.1 0.5-0.1 0.7-0.2-0.1-0.3-0.2-0.5-0.3v-0.4h0.6z"></path><path fill="#dca194" d="m14.2 3.7c0.3-0.1 0.7 0 1 0.1-0.2-0.1-0.5 0-0.7 0.1 0.1 0.1 0.1 0.2 0.1 0.3-0.1 0.1-0.1 0.3-0.1 0.5-0.2-0.1-0.3-0.2-0.4-0.3 0.2-0.2 0.3-0.4 0.1-0.7z"></path><path fill="#ce794e" d="m15.6 3.8h0.5v0.1c-0.3 0.1-0.3 0.3-0.1 0.5-0.4 0.2-0.5 0.1-0.2-0.2-0.1-0.2-0.2-0.3-0.2-0.4z"></path><path fill="#c96152" d="m18.9 4.1c0.7 0 1.3 0 1.9 0.2h-0.7c-0.2-0.1-0.4-0.1-0.6-0.1v0.5c-0.2 0.1-0.4 0.1-0.6 0.1 0.1-0.3 0.1-0.5 0-0.7z"></path><path fill="#e7beb1" d="m23.6 4.6l-0.4-0.3c-0.1-0.1-0.1-0.2-0.3-0.3 0.2 0 0.4 0 0.5-0.1 0.1 0 0.1 0.1 0.2 0.2 0.3-0.3 0.4-0.2 0.5 0.2-0.2 0-0.4 0.1-0.5 0.3z"></path><path fill="#f6d3cf" d="m11.4 4.4c0.2 0.4 0.4 0.7 0.5 1.2-0.2-0.2-0.3-0.2-0.5 0-0.2-0.1-0.4-0.3-0.4-0.5 0-0.1-0.2-0.3-0.3-0.3-0.1-0.2-0.3-0.3-0.5-0.2v0.3c-0.1 0-0.2-0.1-0.2-0.3l0.1-0.3c0.3 0.1 0.7 0.2 1 0.4 0.1-0.1 0.2-0.1 0.3-0.3z"></path><path fill="#faeee9" d="m20.1 4.3h0.2c0 0.2 0 0.3 0.2 0.3-0.1 0-0.2 0.1-0.2 0.2 0.1 0.1 0.2 0.3 0.2 0.5-0.1 0.1-0.2 0.2-0.2 0.3h-0.5c0-0.4 0-0.8-0.2-1.2 0.1-0.1 0.3-0.1 0.5-0.1z"></path><path fill="#e8b9ad" d="m20.3 4.3h0.5c0.2 0 0.4 0.1 0.6 0.1-0.3 0.2-0.5 0.5-0.7 0.7l-0.2 0.2c0-0.2-0.1-0.4-0.3-0.5 0.1-0.1 0.2-0.2 0.3-0.2-0.2 0-0.2-0.1-0.3-0.3z"></path><path fill="#9e3731" d="m10.7 4.8c-0.1 0.1-0.3 0.1-0.5 0.1v-0.3c0.2-0.1 0.4 0 0.5 0.2z"></path><path fill="#f4cabc" d="m14.6 4.2c0 0.1 0 0.2 0.1 0.2 0.4 0.2 0.7 0.5 0.7 0.9-0.3 0-0.4-0.1-0.3-0.4-0.3 0-0.5 0-0.6-0.2 0-0.2 0-0.4 0.1-0.5z"></path><path fill="#bd8065" d="m6.3 4.7c0.4 0 0.5 0.1 0.5 0.4-0.3 0-0.5-0.2-0.5-0.4z"></path><path fill="#b0453c" d="m11 5.1v-0.3c0.3 0 0.4 0.1 0.5 0.3-0.2 0.1-0.3 0.1-0.5 0z"></path><path fill="#ebe3b2" d="m16.9 5.5c-0.3 0.2-0.5 0.1-0.6-0.3 0.1 0 0.2-0.2 0.1-0.3h0.5v0.6z"></path><path fill="#f8e9e3" d="m13.8 5.3c0 0.3 0.1 0.5 0.3 0.6 0 0.1 0.1 0.1 0.2 0.2-0.2 0-0.3 0.1-0.4 0.1v0.4c0 0-0.1 0.1-0.2 0.2-0.1-0.2-0.1-0.3-0.2-0.4-0.2 0-0.3-0.1-0.4-0.3-0.2-0.6-0.5-1.2-0.8-1.8l0-0.1c0.5 0.4 1 0.8 1.5 1.1z"></path><path fill="#f9f4f1" d="m23.9 1.9c0.1-0.1 0.2-0.2 0.4-0.2 0 0.5 0 0.9 0 1.3 0.1 0.1 0.2 0 0.3-0.1 0.1 0.1 0.2 0.1 0.4 0 0-0.2 0.1-0.3 0.2-0.5v0.5h0.3c0.1-0.4 0.2-0.4 0.4 0 0.1-0.1 0.2-0.2 0.2-0.3 0.1 0 0.2 0 0.2 0.1-0.1 0.2-0.2 0.3-0.3 0.5-0.2-0.2-0.5-0.3-0.8-0.2 0.4 0.6 0.2 0.9-0.6 0.9-0.5 0.3-0.5 0.7-0.1 1l-0.1 0.2c0.4 0.3 0.8 0.6 1.2 0.8 0.1 0 0.2-0.1 0.3-0.2-0.2 0-0.3-0.2-0.4-0.4 0-0.2 0.1-0.2 0.2-0.1 0.1-0.1 0.1-0.3 0.1-0.4 0.1 0 0.2 0 0.4-0.1l0.1 0.3c0.1-0.1 0.3 0 0.3 0.2l0.1-0.2c0.2 0.3 0.5 0.4 0.8 0.2 0.1 0.2 0.2 0.3 0.4 0.3l-0.1 0.1c0.1 0.3 0.2 0.4 0.5 0.3 0.1 0.2 0.3 0.3 0.5 0.2 0 0.3 0 0.5 0.2 0.6-0.3 0.2-0.4 0.4 0 0.6-0.1 0.1 0 0.3 0 0.4-0.1 0.2-0.2 0.3-0.4 0.2-0.1 0.3 0.1 0.5 0.3 0.6-0.2 0.2-0.5 0.3-0.7 0.1-0.2 0.2-0.2 0.4-0.1 0.7-0.1-0.2-0.3-0.3-0.3-0.6-0.2 0.2-0.3 0.4-0.2 0.7-0.2-0.5-0.5-0.8-0.9-1-0.1-0.3-0.2-0.5-0.2-0.8-0.1-0.4-0.3-0.5-0.6-0.3 0.2 0.2 0.1 0.3-0.1 0.5 0.1 0 0.1 0.1 0 0.2-0.1-0.2-0.3-0.2-0.5-0.2 0.1-0.1 0.2-0.1 0.4-0.1 0-0.1-0.1-0.2-0.1-0.3-0.3 0.2-0.6 0.4-0.8 0.5 0.3-0.5 0.6-1 1-1.5-0.8-0.6-1.5-1.2-2.2-1.8 0.1-0.2 0.3-0.3 0.5-0.3-0.1-0.4-0.2-0.5-0.5-0.2-0.1-0.1-0.1-0.2-0.2-0.2-0.1 0.1-0.3 0.1-0.4 0.1-0.5-0.2-0.9-0.5-1.3-0.7 0.3 0 0.5 0 0.7-0.1 0 0.3 0.1 0.3 0.3 0.1 0.2 0 0.3 0.1 0.4 0.2l0.1-0.7c0.3 0 0.5-0.1 0.7-0.2-0.4-0.3-0.4-0.5 0-0.6 0 0.1 0.1 0.2 0.3 0.2v-0.3h-0.3z"></path><path fill="#c68a84" d="m24.6 3.2c0.4-0.1 0.6 0.1 0.6 0.5-0.4 0-0.6-0.1-0.6-0.5z"></path><path fill="#c17d5b" d="m23.3 2.9c0.4 0.1 0.4 0.3 0.1 0.5-0.1-0.1-0.1-0.3-0.1-0.5z"></path><path fill="#eac7bd" d="m16.3 5.2c0.1 0.4 0.3 0.5 0.6 0.3 0 0.2 0.1 0.4 0.1 0.6h-0.6c-0.1-0.1-0.1-0.2-0.1-0.4-0.4 0.1-0.7 0-0.9-0.4 0.2 0.1 0.4 0.1 0.6 0.2 0-0.4 0.1-0.4 0.3-0.3z"></path><path fill="#e19e96" d="m20.1 4.3c-0.2 0-0.4 0-0.5 0.1 0.2 0.4 0.2 0.8 0.2 1.2h0.5c-0.2 0.1-0.3 0.1-0.5 0.1-0.1 0.2-0.1 0.4-0.2 0.5 0-0.3-0.1-0.6-0.3-0.9 0.1-0.1 0.2-0.3 0.3-0.5 0 0-0.1-0.1-0.1-0.1v-0.5c0.2 0 0.4 0 0.6 0.1z"></path><path fill="#841e19" d="m19.5 5.2c0.2 0 0.2 0.1 0.1 0.3-0.1-0.1-0.2-0.2-0.1-0.3z"></path><path fill="#e2ad87" d="m18.1 6.2c0.2-0.3 0.1-0.4-0.3-0.4 0.3-0.4 0.5-0.4 0.8 0-0.2 0.2-0.3 0.3-0.5 0.4z"></path><path fill="#c2755b" d="m6.6 5.6h0.4v0.3h-0.4v-0.3z"></path><path fill="#d48069" d="m13.8 5.3c0.3 0.1 0.5 0.3 0.6 0.5-0.1 0.1-0.2 0.1-0.3 0.1-0.2-0.1-0.3-0.3-0.3-0.6z"></path><path fill="#c97861" d="m17.8 5.8c0.4 0 0.5 0.1 0.3 0.4-0.1 0.2-0.2 0.3-0.2 0.5 0.1 0.2 0.1 0.4 0.1 0.6-0.2-0.2-0.4-0.3-0.6-0.5 0.3-0.2 0.4-0.4 0.4-0.8h-0.4v0.4c-0.3-0.1-0.6-0.2-1-0.3h0.6c0.2-0.1 0.3-0.2 0.4-0.4 0.1 0.1 0.3 0.1 0.4 0.1z"></path><path fill="#eac0bd" d="m5.4 5.7c0.1 0.1 0.1 0.3 0.1 0.4h-0.5v-0.5c0.1-0.1 0.3 0 0.4 0.1z"></path><path fill="#9f3d37" d="m5.4 5.7v0.3h-0.3v-0.3h0.3z"></path><path fill="#95625d" d="m7.7 6c0.1 0.1 0.2 0.3 0.1 0.5-0.1-0.2-0.1-0.3-0.1-0.5z"></path><path fill="#cc9486" d="m11.7 6.1c-0.2 0.2-0.1 0.3 0.1 0.4v0.1h-0.3c-0.1-0.3-0.3-0.6-0.6-0.8-0.2 0-0.5 0-0.7 0-0.1-0.2-0.1-0.3-0.1-0.5 0.6 0.3 1.1 0.5 1.6 0.8z"></path><path fill="#e9b1a6" d="m14.4 5.8c0.3 0.1 0.5 0.2 0.7 0.3-0.2 0.1-0.4 0-0.5-0.2l-0.1 0.1c-0.1 0.4-0.1 0.8 0 1.1-0.2 0.2-0.3 0.4-0.5 0.5-0.4-0.3-0.6-0.7-0.5-1.2 0.1 0.1 0.1 0.2 0.2 0.4 0.1-0.1 0.2-0.2 0.3-0.2 0 0.1-0.1 0.3-0.2 0.4 0.1 0.1 0.2 0.2 0.3 0.3 0.2-0.4 0.2-0.7 0.2-1.1h-0.4c0.1 0 0.2-0.1 0.4-0.1-0.1-0.1-0.2-0.1-0.2-0.2 0.1 0 0.2 0 0.3-0.1z"></path><path fill="#c0352a" d="m23.2 4.3l0.4 0.3c0.7 0.6 1.4 1.2 2.2 1.8-0.4 0.5-0.7 1-1 1.5-0.7 0.8-1.2 1.6-1.7 2.5-0.2 0.1-0.3 0.3-0.4 0.5-0.1 0-0.2 0.1-0.3 0.2-0.3-0.2-0.4-0.1-0.2 0.2-0.5 0.1-0.7 0.4-0.6 0.8h-0.3c0-0.3 0.1-0.5 0.2-0.8 0-0.3 0.2-0.6 0.4-0.9 0.4-0.4 0.8-0.9 1.1-1.3 0.1-0.3 0.2-0.5 0.4-0.7-0.1-0.1-0.2-0.2-0.3-0.2 0 0 0.1-0.1 0.1-0.2 0.2 0.2 0.4 0.1 0.5-0.2 0.2-0.2 0.3-0.4 0.5-0.5l-0.2-0.2c-0.7 0.2-1.3 0.4-1.9 0.6-0.5 0-0.9 0.2-1.3 0.3-0.2 0.1-0.4 0.1-0.5 0.2l-0.5 0.1c-0.2-0.1-0.4 0-0.4 0.2h-0.6v1.8c-0.1 0.4-0.2 0.9-0.1 1.3v1.3c-0.1 0-0.1 0-0.1 0.1-0.1 0.8-0.2 1.6-0.1 2.5h0.5c0 0.3-0.1 0.5-0.3 0.8l-0.1-0.2c0 0.3-0.1 0.5-0.3 0.6-0.2 0.1-0.5 0-0.7-0.2 0.1-0.2 0.2-0.4 0.2-0.6-0.3 0-0.4 0-0.6-0.2-0.2-0.4-0.4-0.8-0.5-1.1 0-0.1 0.1 0 0.1 0.2 0.1-0.1 0.1-0.2 0.2-0.2 0.2 0.1 0.3 0.3 0.4 0.4 0.1 0.1 0.2 0.2 0.3 0.2 0.1-0.1 0.1-0.3 0-0.5 0 0 0.1-0.1 0.1-0.1 0.1-1.6 0.1-3.1 0.2-4.6 0-0.6 0-1.2-0.1-1.8-0.1-0.1-0.2-0.1-0.2-0.2-0.1-0.1-0.2-0.2-0.4-0.3-0.1 0-0.1 0-0.1-0.1-0.1-0.2-0.2-0.3-0.2-0.6 0.2 0 0.4 0 0.6 0.1l-0.2 0.1c0.3 0.2 0.6 0.3 0.9 0.4 0.1-0.1 0.2-0.1 0.2-0.2 0.3-0.4 0.7-0.8 1.1-1.2 0.1-0.1 0.1-0.3 0.2-0.5 0.2 0 0.3 0 0.5-0.1 0-0.1 0.1-0.2 0.2-0.3l0.2-0.2c0.8-0.1 1.1-0.6 1-1.3 0.3 0 0.6 0.1 0.9 0.2l-0.3 0.2c0.2 0.2 0.4 0.2 0.5 0 0.1 0.1 0.3 0.1 0.4 0.1z"></path><path fill="#f9eee7" d="m22.8 5c0.2 0.1 0.3 0.2 0.4 0.5 0.4 0.1 0.7 0.3 1 0.6 0 0.1-0.1 0.2-0.1 0.2-0.4 0.1-0.9 0.2-1.3 0.3-0.3-0.1-0.6 0-0.9 0.2-0.1 0-0.2-0.1-0.4-0.1-0.1 0.1-0.2 0.2-0.4 0.2 0-0.1-0.1-0.1-0.2 0-0.2 0-0.3-0.1-0.4-0.2 0.2-0.4 0.5-0.8 0.9-1.1 0 0.1 0.1 0.3 0.2 0.4 0.1 0 0.2-0.1 0.3-0.2 0 0.1 0.1 0.2 0.1 0.2 0.1-0.3 0.2-0.6 0.4-0.8l-0.1-0.1c0.2-0.1 0.3-0.1 0.5-0.1z"></path><path fill="#b96f65" d="m23.2 5.5c0 0.2-0.2 0.3-0.5 0.3v-0.3h0.5z"></path><path fill="#e1b6ae" d="m22.8 5c-0.2 0-0.3 0-0.5 0.1l0.1 0.1c-0.2 0.2-0.3 0.5-0.3 0.8-0.1 0-0.2-0.1-0.2-0.2-0.1 0.1-0.2 0.2-0.3 0.2-0.1-0.1-0.2-0.3-0.2-0.4 0.3-0.4 0.7-0.7 1.2-0.8 0.1 0 0.2 0.1 0.2 0.2z"></path><path fill="#ab463e" d="m11.7 6.1c0.2 0.1 0.3 0.2 0.1 0.4-0.2-0.1-0.3-0.2-0.1-0.4z"></path><path fill="#f4d8cd" d="m11.9 5.6c0.5 0.8 0.9 1.7 1.4 2.6-0.2 0.1-0.3 0.1-0.5 0.1-0.3-0.2-0.4-0.4-0.4-0.7 0-0.2-0.1-0.4-0.2-0.5 0-0.7-0.1-0.7-0.4-0.1-0.2 0-0.2-0.1-0.2-0.3 0.2 0 0.3 0 0.2-0.1v-0.1c0.2-0.2 0.1-0.3-0.1-0.4 0.2-0.1 0.2-0.3 0.2-0.5z"></path><path fill="#f4c8c1" d="m17.4 6.8c-0.1 0-0.1-0.1-0.2-0.2 0.2 0 0.2-0.1 0.2-0.2v-0.4h0.4c0 0.4-0.1 0.6-0.4 0.8z"></path><path fill="#dfa06e" d="m22.8 6.6c-0.2 0.1-0.5 0.1-0.9 0.2 0.3-0.2 0.6-0.3 0.9-0.2z"></path><path fill="#a1382f" d="m28.4 6.2h0.3c-0.2 0.8-0.3 0.8-0.3 0z"></path><path fill="#bd5d4c" d="m14 6.2h0.3c0 0.4 0 0.7-0.2 1.1-0.1-0.1-0.2-0.2-0.3-0.3 0.1-0.1 0.2-0.3 0.2-0.4v-0.4z"></path><path fill="#cc7062" d="m15.3 6.4c0.2 0.1 0.4 0.2 0.6 0.3-0.3 0-0.3 0.1-0.1 0.3-0.1 0.2-0.2 0.3-0.3 0.4-0.3-0.2-0.3-0.4 0-0.5-0.1-0.2-0.2-0.3-0.2-0.5z"></path><path fill="#faf0e9" d="m15.2 3.8h0.4c0 0.1 0.1 0.2 0.2 0.4-0.3 0.3-0.2 0.4 0.2 0.2-0.2-0.2-0.2-0.4 0.1-0.5 0.9 0 1.9 0.1 2.8 0.2 0.1 0.2 0.1 0.4 0 0.7 0.2 0 0.4 0 0.6-0.1 0 0 0.1 0.1 0.1 0.1-0.1 0.2-0.2 0.4-0.3 0.5 0.2 0.3 0.3 0.6 0.3 0.9-0.4 0.4-0.8 0.8-1.2 1.2-0.1 0-0.3-0.1-0.4-0.1 0-0.2 0-0.4-0.1-0.6 0-0.2 0.1-0.3 0.2-0.5 0.2-0.1 0.3-0.2 0.5-0.4-0.3-0.4-0.5-0.4-0.8 0-0.1 0-0.3 0-0.4-0.1-0.1 0.2-0.2 0.3-0.4 0.4 0-0.2-0.1-0.4-0.1-0.6v-0.6h-0.5c0.1 0.1 0 0.3-0.1 0.3-0.2-0.1-0.3-0.1-0.3 0.3-0.2-0.1-0.4-0.1-0.6-0.2 0-0.4-0.3-0.7-0.7-0.9-0.1 0-0.1-0.1-0.1-0.2 0-0.1 0-0.2-0.1-0.3 0.2-0.1 0.5-0.2 0.7-0.1z"></path><path fill="#834f4f" d="m19.1 5.7c0.2 0.1 0.1 0.2 0 0.3-0.1-0.1-0.1-0.2 0-0.3z"></path><path fill="#7f4240" d="m6.3 6.7c0.1 0.1 0.1 0.3-0.1 0.4 0-0.1 0-0.3 0.1-0.4z"></path><path fill="#a9514b" d="m12.2 7.1c-0.2 0.1-0.3 0-0.4-0.1 0.3-0.6 0.4-0.6 0.4 0.1z"></path><path fill="#e39e8e" d="m21.9 6.8c-0.1 0.1-0.4 0.2-0.6 0.2-0.1 0-0.1 0-0.1-0.1 0.1 0 0.2-0.1 0.3-0.2 0.2 0 0.3 0.1 0.4 0.1z"></path><path fill="#b5655d" d="m30 6.9c0.6 0 0.7 0.1 0.3 0.4-0.2-0.1-0.3-0.2-0.3-0.4z"></path><path fill="#f7f3e5" d="m15.1 6.1l0.2 0.3c0 0.2 0.1 0.3 0.2 0.5-0.3 0.1-0.3 0.3 0 0.5h0.5c0 0.1 0 0.2 0.1 0.3v0.3c-0.1 0.1-0.2 0.2-0.1 0.4h-0.4c0.1-0.2 0-0.3-0.1-0.4-0.1 0.2-0.3 0.3-0.4 0.5-0.2 0-0.4-0.1-0.5-0.3-0.1 0.1-0.3 0.1-0.4 0-0.1-0.2-0.2-0.4-0.3-0.6 0.3-0.1 0.4-0.3 0.6-0.5-0.1-0.3-0.1-0.7 0-1.1l0.1-0.1c0.1 0.2 0.3 0.3 0.5 0.2z"></path><path fill="#f1be9e" d="m20.5 6.7c0.1 0.1 0.2 0.2 0.4 0.2-0.3 0.3-0.7 0.5-1.2 0.6-0.1-0.1-0.1-0.1-0.1-0.2 0.3-0.3 0.6-0.5 0.9-0.6z"></path><path fill="#f6cec1" d="m15.9 6.7c0.2 0.2 0.5 0.4 0.9 0.6 0 0.1 0.1 0.2 0.1 0.3-0.1 0-0.2 0.1-0.3 0.2-0.2 0-0.3 0.1-0.4 0.2h-0.1v-0.3c0.5-0.3 0.4-0.4-0.1-0.3h-0.5c0.1-0.1 0.2-0.2 0.2-0.4-0.1-0.2-0.1-0.3 0.2-0.3z"></path><path fill="#e9bcab" d="m23.7 7.8c-0.1-0.3-0.2-0.3-0.4 0 0-0.1 0-0.2-0.1-0.3-0.3 0-0.4 0.2-0.4 0.4-0.1 0-0.1 0-0.2 0.1-0.1 0-0.2-0.1-0.3-0.2-0.1 0.1-0.2 0.1-0.4 0.1l0.2-0.2c0.6-0.2 1.2-0.4 1.9-0.6l0.2 0.2c-0.2 0.1-0.3 0.3-0.5 0.5z"></path><path fill="#a24d44" d="m16 7.4c0.5-0.1 0.6 0 0.1 0.3-0.1-0.1-0.1-0.2-0.1-0.3z"></path><path fill="#d7a24b" d="m11.8 7.6h0.6c0 0.3 0.1 0.5 0.4 0.7l-0.3 0.2c-0.1-0.4-0.3-0.5-0.7-0.5v-0.4z"></path><path fill="#edcb8c" d="m16.9 7.6h0.3c0 0.1 0 0.1 0.1 0.1 0 0.2-0.2 0.3-0.3 0.3h-0.3v-0.2c0-0.1 0.1-0.2 0.2-0.2z"></path><path fill="#be6d51" d="m16.7 7.8v0.2c0 0.2-0.1 0.3-0.2 0.4 0 0-0.1-0.1-0.1-0.1 0-0.2-0.1-0.3-0.2-0.3 0.1-0.1 0.2-0.2 0.4-0.2z"></path><path fill="#fbe6df" d="m23.7 7.8c-0.1 0.3-0.3 0.4-0.5 0.2-0.1 0-0.3 0-0.4-0.1 0-0.2 0.1-0.4 0.4-0.4 0.1 0.1 0.1 0.2 0.1 0.3 0.2-0.3 0.3-0.3 0.4 0z"></path><path fill="#b48f7e" d="m26.8 7.9c0.4 0.1 0.4 0.2 0.1 0.4-0.1-0.1-0.1-0.2-0.1-0.4z"></path><path fill="#ebdb8a" d="m11.8 7.6v0.4c0 0.2 0 0.3 0 0.5h-0.5v-0.7h0.1c0.1 0 0.3-0.1 0.4-0.2z"></path><path fill="#d58059" d="m22.1 7.7l-0.2 0.2c0.1 0.2 0.1 0.4 0.3 0.5-0.3 0-0.6 0-0.8 0.1 0-0.4-0.2-0.5-0.6-0.5 0.4-0.1 0.8-0.3 1.3-0.3z"></path><path fill="#c7c060" d="m22.6 8c0.2 0.3 0.1 0.6-0.2 0.8-0.1-0.1-0.2-0.3-0.2-0.4-0.2-0.1-0.2-0.3-0.3-0.5 0.2 0 0.3 0 0.4-0.1 0.1 0.1 0.2 0.2 0.3 0.2z"></path><path fill="#d89a83" d="m14.2 8.2c0.1 0.1 0.3 0.1 0.4 0 0.1 0.2 0.3 0.3 0.5 0.3 0 0.4-0.1 0.4-0.3 0.1l-0.1 0.1c0.1 0.2 0.1 0.4 0 0.6-0.1-0.1-0.1-0.3-0.2-0.5 0.1-0.1 0.1-0.3 0-0.4-0.2 0.1-0.3 0-0.3-0.2z"></path><path fill="#e7bcae" d="m17.3 7.7c0.2 0.1 0.3 0.2 0.4 0.3 0 0.2-0.1 0.4-0.2 0.6-0.1 0.1-0.2 0.1-0.3 0-0.2-0.2-0.5-0.3-0.8-0.1-0.2 0-0.2-0.1 0-0.2 0 0 0.1 0.1 0.1 0.1 0.1-0.1 0.2-0.2 0.1-0.4h0.4c0.1 0 0.3-0.1 0.3-0.3z"></path><path fill="#c95844" d="m17 8c0.2 0 0.3 0.1 0.4 0.2-0.2 0.3-0.3 0.2-0.4-0.2z"></path><path fill="#dd8f7c" d="m19.8 8.3c0 0.1-0.1 0.3-0.2 0.3-0.1-0.1-0.1-0.1-0.3-0.1 0.1-0.2 0.3-0.3 0.5-0.2z"></path><path fill="#d6735e" d="m22.6 8c0.1-0.1 0.1-0.1 0.2-0.1 0.1 0.1 0.3 0.1 0.4 0.1 0 0.1-0.1 0.2-0.1 0.2 0.1 0 0.2 0.1 0.3 0.2-0.2 0.2-0.3 0.4-0.5 0.7 0.1-0.4-0.1-0.8-0.3-1.1z"></path><path fill="#f3e2be" d="m11.8 8c0.4 0 0.6 0.1 0.7 0.5l0.3 0.2c-0.3 0-0.6 0.1-0.9 0.2 0-0.1 0-0.3-0.1-0.4 0-0.2 0-0.3 0-0.5z"></path><path fill="#b2c889" d="m15.6 8.4c0 0-0.1 0-0.1 0.1 0 0-0.1 0.1-0.2 0.1-0.1 0.3-0.2 0.6-0.3 0.9l-0.3-0.2c0.1-0.2 0.1-0.4 0-0.6l0.2-0.1c0.1 0.3 0.2 0.3 0.2-0.1 0.1-0.2 0.3-0.3 0.4-0.5 0.1 0.1 0.2 0.2 0.1 0.4z"></path><path fill="#dfc985" d="m16.1 8h0.1c0.1 0 0.2 0.1 0.2 0.3-0.2 0.1-0.2 0.2 0 0.2 0.1 0.1 0.3 0.1 0.5 0.1 0 0.2-0.1 0.3-0.2 0.3-0.2-0.2-0.3-0.2-0.4 0h-0.1c0 0-0.1-0.1-0.2-0.2-0.4 0.6-0.5 0.6-0.5-0.2 0-0.1 0.1-0.1 0.1-0.1h0.4c-0.1-0.2 0-0.3 0.1-0.4z"></path><path fill="#dbc075" d="m20.3 8.2c0 0.1 0.1 0.2 0.1 0.3-0.1 0-0.2 0-0.3 0.1-0.1 0.1-0.1 0.2-0.1 0.3h-0.3c0-0.1-0.1-0.2-0.1-0.3 0.1 0 0.2-0.2 0.2-0.3l0.5-0.1z"></path><path fill="#ebe6ce" d="m17.7 8c0 0.1 0.1 0.1 0.2 0.2 0.1 0.6 0.1 1.2 0.1 1.8l-0.2 0.1c0-0.3 0-0.5-0.2-0.7 0-0.1-0.1-0.1-0.2-0.1 0-0.2-0.1-0.4-0.3-0.5 0-0.1 0-0.2 0.1-0.2 0.1 0.1 0.2 0.1 0.4 0 0-0.2 0.1-0.4 0.1-0.6z"></path><path fill="#70a452" d="m16.7 8.9c-0.2 0.2-0.3 0.2-0.4 0 0.1-0.2 0.2-0.2 0.4 0z"></path><path fill="#f5ccbe" d="m12.5 8.5c0.4 0.1 0.7 0.2 1.1 0.4 0.1 0.1 0.2 0.3 0.2 0.5 0.1 0.1 0 0.3-0.1 0.3l-0.3-0.2v-0.1c0.1-0.1 0.1-0.2 0.1-0.3-0.3 0-0.5-0.2-0.7-0.4l-0.3-0.2z"></path><path fill="#e3bab0" d="m28.1 9.3v0.1h-0.3v0.6c0.2 0 0.3-0.1 0.4-0.2-0.1 0.2-0.3 0.3-0.5 0.3 0-0.3 0-0.5-0.1-0.7-0.1-0.3 0-0.5 0.2-0.7 0 0.3 0.2 0.4 0.3 0.6z"></path><path fill="#f8f6f0" d="m10.7 4.8c0.1 0 0.3 0.2 0.3 0.3 0 0.2 0.2 0.4 0.4 0.5 0.2-0.2 0.3-0.2 0.5 0 0 0.2 0 0.4-0.2 0.5-0.5-0.3-1-0.5-1.6-0.8 0 0.2 0 0.3 0.1 0.5 0.2 0 0.5 0 0.7 0 0.3 0.2 0.5 0.5 0.6 0.8h0.3c0.1 0.1 0 0.1-0.2 0.1 0 0.2 0 0.3 0.2 0.3 0.1 0.1 0.2 0.2 0.4 0.1 0.1 0.1 0.2 0.3 0.2 0.5h-0.6c-0.1 0.1-0.3 0.2-0.4 0.2v-0.8c-0.2 0-0.4 0-0.5 0.1-0.2 0.1-0.2 0.3-0.2 0.5-0.4 0-0.8 0.1-1.1 0.3-0.2 0.2-0.2 0.3 0.1 0.4h0.1c0.1 0.1 0.2 0.1 0.3 0.1 0-0.2 0-0.3 0.1-0.4 0.4-0.1 0.7-0.2 1.1-0.2v0.7h0.5c0.1 0.1 0.1 0.3 0.1 0.4 0.3-0.1 0.6-0.2 0.9-0.2-0.3 0.6-0.8 0.8-1.4 0.7-0.1 0.5 0.2 0.7 0.6 0.8 0.1 0.2 0.2 0.3 0.4 0.4 0.1 0.2 0.1 0.3 0.1 0.5 0.3 0.1 0.5 0.2 0.7 0.4 0 0.4 0.1 0.8 0.3 1.1-0.3 0-0.6 0.1-0.9 0.2v0.1c0 0.2-0.1 0.3-0.2 0.1-0.2-0.3-0.1-0.5 0.1-0.6-0.1-0.2-0.2-0.2-0.3-0.1-0.3-0.2-0.5-0.2-0.8-0.1-0.1 0.1-0.2 0.2-0.1 0.3-0.3 0.1-0.4 0.2-0.4 0.5-0.4-0.1-0.5-0.3-0.3-0.7 0-0.2-0.1-0.3-0.2-0.4-0.1-0.2-0.1-0.3-0.3-0.4 0.1 0 0.3-0.1 0.4-0.2 0-0.2 0-0.4-0.1-0.7 0 0.1-0.1 0.1-0.2 0.1-0.2 0.4-0.4 0.9-0.5 1.4 0-0.1-0.1-0.2-0.2-0.2 0 0.1 0 0.2 0 0.4-0.3 0-0.5 0-0.7 0v0.4c0 0.1 0.1 0.2 0.2 0.2 0.1 0.1 0.3 0.1 0.5 0 0-0.2 0.1-0.4 0.2-0.6 0.1-0.1 0.2-0.1 0.3-0.1 0.1 0.4 0.2 0.8 0.1 1.1 0.2 0.1 0.3 0.2 0.5 0.3-0.1 0-0.2 0-0.2 0.2 0 0.2 0.1 0.4 0.2 0.5-0.2 0-0.3-0.1-0.4-0.3l-0.1 0.1c-0.1-0.5-0.5-0.8-1-1 0.1 0.1 0 0.2-0.2 0.3 0.3 0.3 0.2 0.7-0.1 0.9-0.2 0-0.2-0.1 0-0.1-0.5-0.1-0.7-0.3-0.6-0.8-0.1-0.1-0.1-0.2 0.1-0.3-0.1-0.3-0.3-0.6-0.3-1-0.1-0.1-0.3-0.1-0.4 0-0.1 0.2-0.1 0.4-0.1 0.6-0.1-0.2-0.1-0.5 0-0.7 0.3-0.2 0.5-0.4 0.6-0.6-0.3-0.2-0.5-0.4-0.8-0.5-0.1 0.2-0.2 0.2-0.3 0.1 0-0.3 0-0.6 0.2-0.7-0.3-0.1-0.5-0.2-0.8-0.2 0-0.2 0-0.3-0.2-0.4l0.2-0.2c0.2 0.1 0.4 0.2 0.6 0.2l0.1-0.2c0.2 0.2 0.4 0.4 0.6 0.6 0.1-0.1 0.2-0.2 0.3-0.3-0.3-0.3-0.4-0.7-0.3-1.1 0.3 0.1 0.6 0.3 0.9 0.4 0.1-0.1 0.2-0.2 0.2-0.4 0.1 0.1 0.3 0.2 0.4 0.1-0.3-0.1-0.3-0.2-0.2-0.5-0.2 0-0.5-0.1-0.7-0.2 0.2-0.3 0.1-0.5-0.1-0.6-0.2 0.1-0.3 0.2-0.4 0.2-0.1 0.1-0.2 0.2-0.3 0.2-0.2 0-0.3 0-0.5 0-0.1-0.3 0-0.7 0.2-1-0.1-0.2-0.1-0.3 0.1-0.4 0 0.1 0 0.2 0.1 0.4 0.5 0.1 0.9 0 1.3-0.3 0.1 0 0.1 0.1 0.2 0.1 0.4-0.3 0.8-0.5 1.2-0.7l-0.3-0.1 0.1-0.2c-0.1 0-0.2-0.1-0.2-0.1 0.1-0.2 0.2-0.2 0.3 0 0-0.2 0-0.3-0.1-0.4l0.5-0.1c-0.1-0.1-0.2-0.1-0.2-0.2 0.2 0 0.4 0 0.5-0.1z"></path><path fill="#b65e56" d="m7.8 8.9c0.1 0.1 0.3 0.1 0.5 0.2v0.3c-0.4 0.1-0.6-0.1-0.5-0.5z"></path><path fill="#b4594f" d="m9.6 8.8c0.2 0.1 0.4 0.3 0.5 0.5-0.1 0.1-0.2 0.1-0.3 0-0.2-0.1-0.3-0.3-0.5-0.5 0.1-0.3 0.2-0.3 0.3 0z"></path><path fill="#dcada7" d="m9.6 8.8c0.2 0 0.5 0 0.7 0.1 0.2 0.2 0.1 0.4-0.2 0.4-0.1-0.2-0.3-0.4-0.5-0.5z"></path><path fill="#eaccc6" d="m11.4 7.8h-0.1c-0.4 0-0.7 0.1-1.1 0.2-0.1 0.1-0.1 0.2-0.1 0.4-0.1 0-0.2 0-0.3-0.1 0.3-0.1 0.3-0.2 0-0.4-0.1 0.1-0.1 0.2-0.1 0.4-0.3-0.1-0.3-0.2-0.1-0.4 0.3-0.2 0.7-0.3 1.1-0.3 0-0.2 0-0.4 0.2-0.5 0.1-0.1 0.3-0.1 0.5-0.1v0.8z"></path><path fill="#983f38" d="m9.8 8.3h-0.1c0-0.2 0-0.3 0.1-0.4 0.3 0.2 0.3 0.3 0 0.4z"></path><path fill="#c98f75" d="m7.8 7.7c-0.4 0.1-0.5-0.1-0.3-0.4 0.1-0.1 0.2-0.2 0.4-0.2 0 0.2 0 0.4-0.1 0.6z"></path><path fill="#b84f3f" d="m10.9 7.1h0.4v0.5c-0.5 0-0.6-0.1-0.4-0.5z"></path><path fill="#f5f5e4" d="m15.5 8.5c0 0.8 0.1 0.8 0.5 0.2 0.1 0.1 0.2 0.2 0.2 0.2 0.1 0.2 0.2 0.3 0.4 0.4-0.1 0.2-0.3 0.2-0.5 0.2 0-0.1 0-0.2-0.1-0.3 0 0.2-0.1 0.4-0.2 0.5-0.1 0.2-0.2 0.2-0.3 0-0.1 0.1-0.3 0.3-0.3 0.5-0.2-0.2-0.3-0.4-0.2-0.7 0.1-0.3 0.2-0.6 0.3-0.9 0.1 0 0.2-0.1 0.2-0.1z"></path><path fill="#59bb47" d="m17.6 9.4c0.2 0.2 0.2 0.4 0.2 0.7-0.2-0.1-0.4-0.1-0.5-0.3 0.1-0.1 0.1-0.3 0.3-0.4z"></path><path fill="#d7ad52" d="m13.4 9.4v0.1c-0.1 0-0.1 0-0.1 0.1 0.1 0.2 0.2 0.4 0.2 0.6h-0.4c0-0.2-0.1-0.3-0.3-0.4 0-0.1 0-0.2-0.1-0.3 0.2 0 0.4-0.1 0.5-0.3 0.1 0 0.2 0.1 0.2 0.2z"></path><path fill="#f7e8e1" d="m24.8 7.9l0.4 0.3c0.1 0.2 0.1 0.4 0.2 0.6l0.3 0.1c0-0.1 0.1-0.3 0.2-0.5 0.2-0.1 0.3-0.1 0.4 0-0.1 0.3-0.2 0.5-0.3 0.8-0.1-0.1-0.1-0.1-0.2-0.1 0 0.2 0 0.5 0.1 0.7-0.2 0.3-0.4 0.3-0.5 0-0.4 0.1-0.6 0.4-0.6 0.7-0.3 0-0.5-0.1-0.7-0.2 0.1-0.2 0.1-0.4 0-0.7-0.4 0.1-0.6 0.3-0.8 0.7 0 0.1-0.1 0.1-0.2 0.1 0.5-0.9 1-1.7 1.7-2.5z"></path><path fill="#c3736b" d="m25.2 8.2v0.4h-0.3v-0.4h0.3z"></path><path fill="#d6a27d" d="m24.6 9.8h-0.3c0.1-0.2 0.3-0.5 0.6-0.7 0.1 0 0.2 0.1 0.2 0.2-0.1 0.2-0.1 0.3-0.1 0.5h-0.4z"></path><path fill="#c57b63" d="m12.7 9.5c0.1 0.1 0.1 0.2 0.1 0.3h-0.1c-0.1-0.1-0.3-0.1-0.4-0.1v-0.3c0.1 0 0.3 0 0.4 0.1z"></path><path fill="#cebb5d" d="m17.4 9.3c0.1 0 0.2 0 0.2 0.1-0.2 0.1-0.2 0.3-0.3 0.4v0.2c-0.2 0.1-0.4 0.1-0.5 0-0.1 0-0.2 0.1-0.2 0.2v0.1c-0.1 0-0.1 0-0.2-0.1 0.2-0.6 0.5-0.9 1-0.9z"></path><path fill="#cc6f43" d="m19.4 9.4c0.1 0 0.3 0.1 0.4 0.2 0 0.2-0.1 0.3-0.2 0.4-0.2-0.1-0.3-0.2-0.4-0.4 0-0.1 0.1-0.2 0.2-0.2z"></path><path fill="#f3e6c8" d="m20.8 8c0.4 0 0.6 0.1 0.6 0.5 0.2-0.1 0.5-0.1 0.8-0.1 0 0.1 0.1 0.3 0.2 0.4 0.3-0.2 0.4-0.5 0.2-0.8 0.2 0.3 0.4 0.7 0.3 1.1-0.2 0.4-0.6 0.9-1 1.3-0.1 0.1-0.2 0.2-0.4 0.2-0.1-0.4 0.1-0.8 0.4-1.2 0.2 0.2 0.4 0.1 0.6-0.1-0.2-0.2-0.4-0.3-0.7-0.4-0.1 0.3-0.3 0.6-0.5 0.7 0-0.1-0.1-0.2-0.2-0.2 0.1-0.1 0.2-0.2 0.3-0.3-0.1-0.3-0.2-0.6-0.1-0.8l-0.7-0.1 0.1 1.1c0.1 0 0.3 0 0.3 0.1-0.1 0-0.3 0-0.4 0.2 0.1 0.2 0.1 0.4 0.1 0.6h-0.4c0-0.2-0.1-0.3-0.2-0.4 0-0.1-0.1-0.2-0.3-0.2-0.1-0.1-0.3-0.2-0.4-0.2 0-0.2 0.1-0.4 0.1-0.7-0.2 0-0.4 0-0.6 0 0.2-0.1 0.3-0.1 0.5-0.2 0.1 0 0.1 0 0.2 0.1 0 0.1 0.1 0.2 0.1 0.3-0.2 0.1-0.2 0.2 0 0.3 0.2-0.2 0.5-0.1 0.7 0.1 0.1-0.1 0.1-0.3 0-0.4v-0.4c0-0.1-0.1-0.2-0.1-0.3 0.1-0.1 0.3-0.1 0.5-0.2z"></path><path fill="#bb7d5c" d="m20.1 8.6c0 0.2 0.1 0.3 0.3 0.3 0.1 0.1 0.1 0.3 0 0.4-0.2-0.2-0.5-0.3-0.7-0.1-0.2-0.1-0.2-0.2 0-0.3h0.3c0-0.1 0-0.2 0.1-0.3z"></path><path fill="#973521" d="m20.4 8.5v0.4c-0.2 0-0.3-0.1-0.3-0.3 0.1-0.1 0.2-0.1 0.3-0.1z"></path><path fill="#f6f7ef" d="m21.2 9.4h-0.2c0-0.1-0.2-0.1-0.3-0.1l-0.1-1.1 0.7 0.1c-0.1 0.2 0 0.5 0.1 0.8-0.1 0.1-0.2 0.2-0.2 0.3z"></path><path fill="#bf7068" d="m28.1 9.4c0 0.2 0.1 0.3 0.1 0.4-0.1 0.1-0.2 0.2-0.4 0.2v-0.6h0.3z"></path><path fill="#ae452c" d="m13.4 9.5l0.3 0.2c0 0.2 0.1 0.3 0.1 0.4-0.1 0.1-0.2 0.1-0.3 0.1 0-0.2-0.1-0.4-0.2-0.6 0-0.1 0-0.1 0.1-0.1z"></path><path fill="#8bb058" d="m12.7 9.8h0.1c0.2 0.1 0.3 0.2 0.3 0.4v0.1c-0.3 0-0.4-0.2-0.4-0.5z"></path><path fill="#d79674" d="m21 9.4h0.2c0 0 0.1 0.1 0.1 0.2-0.1 0.2-0.2 0.3-0.3 0.1 0 0.2-0.1 0.4-0.3 0.5 0-0.2 0-0.4-0.1-0.6 0.1-0.2 0.3-0.2 0.4-0.2z"></path><path fill="#f5e5d0" d="m12.8 8.7c0.2 0.2 0.4 0.4 0.7 0.4 0 0.1 0 0.2-0.1 0.3 0-0.1-0.1-0.2-0.2-0.2-0.1 0.2-0.3 0.3-0.5 0.3-0.1-0.1-0.3-0.1-0.4-0.1v0.3c0.1 0 0.3 0 0.4 0.1 0 0.3 0.1 0.5 0.4 0.5 0 0.1 0 0.2 0.2 0.2 0.1 0 0.3-0.1 0.4-0.2 0.1 0 0.1 0 0.1 0.1 0 0.3-0.2 0.4-0.3 0.5-0.3-0.1-0.6-0.2-0.9-0.4-0.1 0-0.2 0.1-0.2 0.1-0.2-0.1-0.3-0.2-0.4-0.4-0.4-0.1-0.7-0.3-0.6-0.8 0.6 0.1 1.1-0.1 1.4-0.7z"></path><path fill="#a64c3a" d="m11.6 9.6c0.4 0 0.5 0.1 0.2 0.4-0.2-0.1-0.2-0.2-0.2-0.4z"></path><path fill="#e7b59c" d="m19.4 8.5c-0.2 0.1-0.3 0.1-0.5 0.2 0.2 0 0.4 0 0.6 0 0 0.3-0.1 0.5-0.1 0.7-0.1 0-0.2 0.1-0.2 0.2-0.2-0.2-0.2-0.4-0.2-0.7-0.1 0.5-0.1 0.9-0.2 1.3v-1.7h0.5z"></path><path fill="#dcb457" d="m19.8 9.6c0.2 0 0.3 0.1 0.3 0.2v0.4h-0.3l-0.2-0.2c0.1-0.1 0.2-0.2 0.2-0.4z"></path><path fill="#d28563" d="m27 9.6c0.1 0.1 0.1 0.3 0.1 0.5-0.2 0.1-0.3 0.2-0.3 0.4h-0.1c-0.1-0.1-0.2-0.2-0.3-0.3-0.1-0.1-0.1-0.2 0-0.4l0.1 0.2c0.1-0.2 0.3-0.3 0.5-0.4z"></path><path fill="#e1a47a" d="m13.8 9.4c0.2 0.1 0.3 0.3 0.3 0.6-0.1 0.1-0.1 0.3-0.3 0.4 0-0.1 0-0.1-0.1-0.1-0.1 0.1-0.3 0.2-0.4 0.2-0.2 0-0.2-0.1-0.2-0.2v-0.1h0.4c0.1 0 0.2 0 0.3-0.1 0-0.1-0.1-0.2-0.1-0.4 0.1 0 0.2-0.2 0.1-0.3z"></path><path fill="#ba7449" d="m14.1 10c0.2 0.1 0.3 0.3 0.3 0.5h-0.1c-0.1-0.1-0.2 0-0.2 0.1-0.2 0.1-0.2 0.3-0.3 0.5-0.1 0-0.2-0.1-0.3-0.2 0.1-0.1 0.3-0.2 0.3-0.5 0.2-0.1 0.2-0.3 0.3-0.4z"></path><path fill="#dab8ad" d="m15.5 9.7c0 0.2 0 0.4 0.1 0.6 0 0.1-0.1 0.1-0.1 0-0.1 0.1-0.1 0.2-0.1 0.3-0.1-0.1-0.2-0.3-0.2-0.4 0-0.2 0.2-0.4 0.3-0.5z"></path><path fill="#cca58f" d="m17.3 10c0 0.1 0 0.2-0.1 0.3h-0.2c-0.1-0.1-0.2-0.1-0.4-0.1 0-0.1 0.1-0.2 0.2-0.2 0.1 0.1 0.3 0.1 0.5 0z"></path><path fill="#e3d78b" d="m21.5 10.6c0 0.3-0.2 0.5-0.3 0.7-0.3 0.1-0.5 0.2-0.7 0.2-0.2-0.3-0.1-0.4 0.3-0.4 0-0.2 0-0.3-0.1-0.5-0.1-0.1-0.2-0.2-0.3-0.3-0.3 0.2-0.5 0.1-0.6-0.1h0.3v-0.4c0.1 0.1 0.2 0.2 0.2 0.4h0.4c0.2-0.1 0.3-0.3 0.3-0.5 0.1 0.2 0.2 0.1 0.3-0.1 0.2-0.1 0.4-0.4 0.5-0.7 0.3 0.1 0.5 0.2 0.7 0.4-0.2 0.2-0.4 0.3-0.6 0.1-0.3 0.4-0.5 0.8-0.4 1.2z"></path><path fill="#e0e5b2" d="m17.2 8.6c-0.1 0-0.1 0.1-0.1 0.2 0.2 0.1 0.3 0.3 0.3 0.5-0.5 0-0.8 0.3-1 0.9-0.2 0.1-0.5 0.3-0.8 0.5 0.1 0.3 0.3 0.4 0.6 0.2-0.1 0.1-0.2 0.2-0.4 0.2-0.2-0.1-0.3-0.3-0.4-0.5 0-0.1 0-0.2 0.1-0.3 0 0.1 0.1 0.1 0.1 0-0.1-0.2-0.1-0.4-0.1-0.6 0.1 0.2 0.2 0.2 0.3 0 0.1-0.1 0.2-0.3 0.2-0.5 0.1 0.1 0.1 0.2 0.1 0.3 0.2 0 0.4 0 0.6-0.2-0.3-0.1-0.4-0.2-0.5-0.4h0.1c0.1 0.2 0.2 0.2 0.4 0 0.1 0 0.2-0.1 0.2-0.3-0.2 0-0.4 0-0.5-0.1 0.3-0.2 0.6-0.1 0.8 0.1z"></path><path fill="#e9f3e2" d="m16.7 10.2c0.1 0 0.2 0 0.3 0.1-0.1 0.1-0.1 0.3-0.1 0.4-0.1 0.1-0.2 0-0.3-0.1v-0.4z"></path><path fill="#f5e6cf" d="m5.5 10.4c0.4 0.1 0.7 0.2 1 0.3-0.1 0.3-0.1 0.6-0.1 0.9h-0.9c0.1-0.4 0.1-0.8 0-1.2z"></path><path fill="#92b056" d="m16.4 10.2c0.1 0.1 0.1 0.1 0.3 0.1v0.3c-0.2 0-0.4 0.1-0.4 0.3h-0.1c-0.3 0.2-0.5 0.1-0.6-0.2 0.3-0.2 0.6-0.4 0.8-0.5z"></path><path fill="#70b6be" d="m17 10.3h0.2v0.4h-0.3c0-0.1 0-0.3 0.1-0.4z"></path><path fill="#c97867" d="m18.8 10.3c0 0.4 0 0.7 0.1 1h0.1c0 0.2-0.1 0.3-0.3 0.3-0.1-0.4 0-0.9 0.1-1.3z"></path><path fill="#e9f2de" d="m19.2 9.6c0.1 0.2 0.2 0.3 0.4 0.4l0.2 0.2c0.1 0.2 0.3 0.3 0.6 0.1 0.1 0.1 0.2 0.2 0.3 0.3 0.1 0.2 0.1 0.3 0.1 0.5-0.4 0-0.5 0.1-0.3 0.4 0.2 0 0.4-0.1 0.6-0.2 0.1 0 0.2 0 0.2 0.1-0.2 0.2-0.4 0.3-0.6 0.4-0.5-0.2-0.7-0.1-0.3 0.4 0 0 0.1-0.1 0.2-0.1 0 0.3-0.1 0.5-0.3 0.7-0.3 0-0.4 0-0.6 0-0.1 0-0.2 0.1-0.3 0.2h-0.5c0-0.3 0-0.7 0-1 0.2-0.1 0.2-0.2 0.2-0.4h0.7c0-0.1 0.1-0.3 0.1-0.5-0.2-0.2-0.1-0.3 0.1-0.3-0.3-0.1-0.5-0.4-0.7-0.6 0 0.2 0 0.3 0.2 0.4-0.2 0.2-0.3 0.3-0.4 0.5-0.1 0-0.2 0.1-0.2 0.2-0.1-0.3-0.1-0.6-0.1-1v-0.1c0.1-0.4 0.1-0.8 0.2-1.3 0 0.3 0 0.5 0.2 0.7z"></path><path fill="#faf8d3" d="m26.7 10.5h0.1c0.7 0 0.9 0.3 0.8 1-0.3 0.1-0.6 0-0.8-0.1v-0.2c-0.2-0.1-0.3-0.2-0.2-0.4 0-0.1 0-0.2 0.1-0.3z"></path><path fill="#ce985d" d="m16.7 10.6c0 0.1 0.1 0.2 0.2 0.1 0.2 0.2 0.3 0.5 0.4 0.7-0.1 0.3 0 0.5 0.3 0.6-0.2 0.1-0.4 0.1-0.6 0 0-0.2 0-0.4-0.1-0.6-0.1 0-0.1 0.1-0.1 0.1-0.2-0.2-0.4-0.4-0.5-0.6 0-0.2 0.2-0.3 0.4-0.3z"></path><path fill="#f6f2ea" d="m17.3 9.8c0.1 0.2 0.3 0.2 0.5 0.3 0 0.2 0 0.4 0.1 0.6-0.1 0.1-0.1 0.2-0.2 0.2-0.2 0-0.4-0.1-0.5-0.2v-0.4c0.1-0.1 0.1-0.2 0.1-0.3v-0.2z"></path><path fill="#9ddb9b" d="m19.9 11.1c-0.3 0-0.5 0-0.8 0 0.1-0.2 0.2-0.3 0.4-0.5-0.2-0.1-0.2-0.2-0.2-0.4 0.2 0.2 0.4 0.5 0.7 0.6-0.2 0-0.3 0.1-0.1 0.3z"></path><path fill="#c36e42" d="m5.9 10.7h0.3c-0.1 0.5-0.2 0.5-0.3 0z"></path><path fill="#7bc380" d="m10.5 11.3h-0.4c0-0.2 0-0.4 0.1-0.6 0.1 0 0.2 0 0.2-0.1 0.1 0.3 0.1 0.5 0.1 0.7z"></path><path fill="#f0e9b3" d="m16.9 10.7h0.3c0.1 0.1 0.3 0.2 0.5 0.2 0.1 0.2 0.1 0.4 0.1 0.6-0.2-0.1-0.3-0.1-0.5-0.1-0.1-0.2-0.2-0.5-0.4-0.7z"></path><path fill="#eab06e" d="m21.9 10.4c-0.2 0.3-0.4 0.6-0.4 0.9l-0.2 0.1c0-0.1-0.1-0.1-0.2-0.1 0.2-0.2 0.4-0.4 0.4-0.7 0.2 0 0.3-0.1 0.4-0.2z"></path><path fill="#dec" d="m12.4 10.6c0 0 0.1-0.1 0.2-0.1 0.3 0.2 0.6 0.3 0.9 0.4 0.1 0.1 0.2 0.2 0.3 0.2 0 0.1-0.1 0.3-0.3 0.3-0.1 0.2-0.1 0.4 0 0.6 0.1-0.1 0.2-0.2 0.2-0.2h0.5c0 0 0.1 0 0.1 0.1 0.2-0.2 0.3-0.3 0.3-0.5-0.2-0.2-0.3-0.5-0.3-0.9h0.1c0.1 0.4 0.3 0.7 0.4 1 0 0.1-0.1 0.3-0.2 0.4-0.3 0.1-0.6 0.1-0.9 0 0 0.3 0 0.6 0.1 1l0.1-0.1c0.1 0.1 0.2 0.2 0.3 0.3-0.1 0.1-0.1 0.1-0.2 0.1-0.2-0.1-0.3-0.2-0.5-0.3-0.3-0.1-0.6-0.2-0.9-0.1 0.3-0.1 0.6-0.2 0.9-0.2-0.2-0.3-0.3-0.7-0.3-1.1-0.2-0.2-0.4-0.3-0.7-0.4 0-0.2 0-0.3-0.1-0.5z"></path><path fill="#84c062" d="m14.3 10.5c0 0.4 0.1 0.7 0.3 0.9 0 0.2-0.1 0.3-0.3 0.5 0-0.1-0.1-0.1-0.1-0.1 0-0.3-0.1-0.5-0.2-0.7l0.2-0.4c0 0-0.1-0.1-0.1-0.1 0-0.1 0.1-0.2 0.2-0.1z"></path><path fill="#f6f0dc" d="m23.1 10.4c0.3 0.4 0.5 0.7 0.8 0.9 0.1-0.2 0.3-0.3 0.5-0.3l0.2 0.5c-0.1 0-0.3 0.1-0.5 0.1-0.1 0-0.2-0.1-0.2-0.2l-0.3 0.8-0.1-0.2c-0.1 0.7-0.5 1-1.2 0.8 0-0.4-0.2-0.6-0.5-0.7 0.2-0.1 0.3-0.2 0.4-0.5 0.6 0.1 0.8-0.2 0.5-0.7 0.1-0.2 0.2-0.4 0.4-0.5z"></path><path fill="#cfd587" d="m14.1 10.6c0 0 0.1 0.1 0.1 0.1l-0.2 0.4c0.1 0.2 0.2 0.4 0.2 0.7h-0.5c0.2-0.3 0.1-0.4-0.2-0.4 0.2 0 0.3-0.2 0.3-0.3 0.1-0.2 0.1-0.4 0.3-0.5z"></path><path fill="#e5ce70" d="m26.8 11.2v-0.5c0.5 0 0.7 0.2 0.7 0.7-0.3 0-0.5 0-0.7-0.2z"></path><path fill="#d7f4d9" d="m10.2 10.7c-0.1 0.2-0.1 0.4-0.1 0.6h0.4c-0.1 0.1-0.3 0.2-0.4 0.2 0.2 0.1 0.2 0.2 0.2 0.4-0.2-0.2-0.3 0-0.3 0.3-0.1 0-0.2 0-0.3 0.1-0.1 0.2-0.2 0.4-0.3 0.6-0.1 0.1-0.3 0.1-0.4 0 0.5-0.1 0.6-0.2 0.1-0.5-0.1 0.1-0.2 0.2-0.3 0.3v-0.4c0.2 0 0.4 0 0.7 0 0-0.2 0-0.3 0-0.4 0.1 0 0.2 0.1 0.2 0.2 0.1-0.5 0.3-1 0.5-1.4z"></path><path fill="#b68e87" d="m24.4 11c0.3 0 0.4 0.2 0.5 0.4-0.1 0.1-0.2 0.1-0.3 0.1l-0.2-0.5z"></path><path fill="#69bc63" d="m13.5 11.4c0.3 0 0.4 0.1 0.2 0.4 0 0-0.1 0.1-0.2 0.2-0.1-0.2-0.1-0.4 0-0.6z"></path><path fill="#87be5a" d="m19.1 11.1c0.3 0 0.5 0 0.8 0 0 0.2-0.1 0.4-0.1 0.5h-0.7c0.1-0.1 0-0.2-0.1-0.3h-0.1c0-0.1 0.1-0.2 0.2-0.2z"></path><path fill="#80b552" d="m22.7 10.9c0.3 0.5 0.1 0.8-0.5 0.7 0.1-0.1 0.1-0.3 0.2-0.5 0.1-0.1 0.2-0.2 0.3-0.2z"></path><path fill="#e5d283" d="m23.3 11.2c0.2 0 0.3 0.1 0.3 0.3-0.1 0.1-0.2 0.2-0.3 0.4l-0.1-0.2c-0.1-0.2 0-0.3 0.1-0.5z"></path><path fill="#e3d1cf" d="m4.5 11.5c0.5 0.1 0.9 0.2 1.2 0.5-0.3 0.2-0.5 0.1-0.6-0.2-0.3 0.3-0.5 0.2-0.6-0.3z"></path><path fill="#dfa084" d="m18 10c-0.1 1.5-0.1 3-0.2 4.6v-3.1c0-0.2 0-0.4-0.1-0.6 0.1 0 0.1-0.1 0.2-0.2-0.1-0.2-0.1-0.4-0.1-0.6l0.2-0.1z"></path><path fill="#e6cb71" d="m19 11.3c0.1 0.1 0.2 0.2 0.1 0.3 0 0.2 0 0.3-0.2 0.4 0-0.1-0.1-0.2-0.2-0.2v-0.2c0.2 0 0.3-0.1 0.3-0.3z"></path><path fill="#f6f6f1" d="m27 9.6c-0.2 0.1-0.4 0.2-0.5 0.4l-0.1-0.2c-0.1 0.2-0.1 0.3 0 0.4 0.1 0.1 0.2 0.2 0.3 0.3-0.1 0.1-0.1 0.2-0.2 0.3 0 0.2 0.1 0.3 0.3 0.4v0.2c-0.1 0.2-0.2 0.3-0.3 0.5 0.2 0.3 0.5 0.5 0.8 0.5 0.1 0.3 0.2 0.5 0.4 0.7-0.1 0.1-0.2 0.3-0.1 0.5 0.2-0.1 0.3-0.1 0.5-0.1-0.2 0.2-0.2 0.4-0.1 0.6 0.2-0.1 0.4-0.2 0.6-0.3-0.1 0.2-0.2 0.3-0.1 0.5h-0.5c-0.1 0.3-0.1 0.6 0 0.9-0.3 0-0.4 0.2-0.4 0.5-0.5-0.1-0.9-0.3-1.3-0.6h0.5v-0.3c-0.3-0.1-0.5 0-0.7 0.2-1.1-0.3-2.2-0.7-3.3-1.2-0.2-0.3-0.4-0.5-0.6-0.8-0.2 0.2-0.4 0.4-0.6 0.4-0.3 0.2-0.5 0.2-0.8 0.3 0.2-0.5 0.5-0.8 0.8-1.2 0.2 0.2 0.4 0.3 0.7 0.3 0.7 0.2 1.1-0.1 1.2-0.8l0.1 0.2 0.3-0.8c0 0.1 0.1 0.2 0.2 0.2 0.2 0 0.4-0.1 0.5-0.1 0.1 0 0.2 0 0.3-0.1-0.1-0.2-0.2-0.4-0.5-0.4-0.2 0-0.4 0.1-0.5 0.3-0.3-0.2-0.5-0.5-0.8-0.9 0.1 0 0.2 0 0.2-0.1 0.2-0.4 0.4-0.6 0.8-0.7 0.1 0.3 0.1 0.5 0 0.7 0.2 0.1 0.4 0.2 0.7 0.2 0-0.3 0.2-0.6 0.6-0.7 0.1 0.3 0.3 0.3 0.5 0 0 0.1 0 0.2 0 0.3l0.1-0.4 0.2 0.1c0.2-0.4 0.5-0.5 0.8-0.2z"></path><path fill="#933f35" d="m26.1 11.3c0.1 0 0.2 0 0.3 0.1-0.1 0.2-0.2 0.1-0.3-0.1z"></path><path fill="#aa635c" d="m26 10.5c0.2 0 0.3 0.2 0.4 0.4-0.2 0-0.4-0.1-0.4-0.4z"></path><path fill="#dbc665" d="m24.3 9.8h0.3c0.1 0.2 0 0.4-0.1 0.5-0.2-0.1-0.2-0.2-0.2-0.5z"></path><path fill="#75c055" d="m20.7 11.8l-0.1 0.2v0.1c-0.1 0-0.2 0.1-0.2 0.1-0.4-0.5-0.2-0.6 0.3-0.4z"></path><path fill="#5aba51" d="m10.3 11.9v0.3h-0.3c0-0.3 0.1-0.5 0.3-0.3z"></path><path fill="#a7673d" d="m21.3 11.4c0 0.6-0.2 0.7-0.7 0.6l0.1-0.2c0.2-0.1 0.4-0.2 0.6-0.4z"></path><path fill="#f5e9b9" d="m8.2 13.4c-0.5 0.1-0.8-0.2-0.7-0.7 0-0.2 0-0.4 0.1-0.6 0.1-0.1 0.3-0.1 0.4 0 0 0.4 0.2 0.7 0.3 1-0.2 0.1-0.2 0.2-0.1 0.3z"></path><path fill="#b9c463" d="m21.8 12.1c0.3 0.1 0.5 0.3 0.5 0.7-0.3 0-0.5-0.1-0.7-0.3 0-0.1 0.1-0.3 0.2-0.4z"></path><path fill="#55b645" d="m9 12.9c-0.1 0-0.2-0.1-0.2-0.2 0.1-0.1 0.2-0.2 0.3-0.3 0.5 0.3 0.4 0.4-0.1 0.5z"></path><path fill="#f3f2ee" d="m14.8 11.5c0.3 0.5 0.6 1 0.7 1.6-0.1 0.2-0.2 0.2-0.4 0.2-0.1-0.1-0.1-0.2-0.2-0.3-0.3-0.2-0.5-0.1-0.7 0.1-0.1-0.1-0.2-0.2-0.3-0.3l-0.1 0.1c-0.1-0.4-0.1-0.7-0.1-1 0.3 0.1 0.6 0.1 0.9 0 0.1-0.1 0.2-0.3 0.2-0.4z"></path><path fill="#e3d27b" d="m7.7 12.2c0.1 0 0.2 0 0.2 0.1 0.1 0.3 0.1 0.5 0.1 0.8h-0.3v-0.9z"></path><path fill="#e4ecc6" d="m10.3 11.9c0.2 0.1 0.3 0.2 0.3 0.4-0.2 0.4-0.1 0.6 0.3 0.7 0.1 0.3 0.1 0.6 0.1 0.9-0.1-0.2-0.2-0.3-0.4-0.3-0.2-0.1-0.3-0.2-0.5-0.3 0.1-0.3 0-0.7-0.1-1.1h0.4v-0.3z"></path><path fill="#8c9ca3" d="m11.3 12.5c0.1 0.2 0.1 0.4 0 0.6-0.1-0.2-0.2-0.2-0.4-0.1 0-0.3 0.1-0.4 0.4-0.5z"></path><path fill="#ebc69b" d="m18.7 11.8c0.1 0 0.2 0.1 0.2 0.2 0 0.3 0 0.7 0 1l-0.2 0.1v-1.3z"></path><path fill="#8cd990" d="m12.6 12.9v-0.1c0.3-0.1 0.6 0 0.9 0.1-0.1 0.1-0.2 0.2-0.2 0.3-0.3 0-0.5-0.1-0.7-0.3z"></path><path fill="#ecece5" d="m16.2 10.9h0.1c0.1 0.2 0.3 0.4 0.5 0.6-0.1 0.2-0.2 0.3-0.3 0.4-0.2 0.6 0 0.8 0.6 0.6-0.3-0.1-0.3-0.3-0.1-0.5 0.2 0.1 0.4 0.1 0.5 0-0.2-0.1-0.3-0.3-0.2-0.6 0.2 0 0.3 0 0.5 0.1v1.5c-0.2 0-0.3 0.1-0.4 0.2-0.3-0.4-0.4-0.4-0.4 0.2 0.2 0 0.3 0.1 0.4 0.2 0.1 0 0.3 0.1 0.4 0.1v0.9c0 0-0.1 0.1-0.1 0.1l-0.3-0.1c-0.1-0.1-0.2-0.2-0.2-0.3-0.2-0.3-0.4-0.7-0.6-1.1 0-0.3-0.1-0.5-0.3-0.7-0.2-0.4-0.4-0.9-0.6-1.4 0.3 0 0.4-0.1 0.5-0.2z"></path><path fill="#c7dca6" d="m17 12c-0.2 0.2-0.2 0.4 0.1 0.5-0.6 0.2-0.8 0-0.6-0.6 0.1-0.1 0.2-0.2 0.3-0.4 0 0 0-0.1 0.1-0.1 0.1 0.2 0.1 0.4 0.1 0.6z"></path><path fill="#7bbe77" d="m11.6 13.2c0-0.1 0-0.2 0.1-0.3 0.2-0.1 0.3-0.2 0.4-0.4 0.1 0.5 0 0.7-0.5 0.7z"></path><path fill="#e2e8c5" d="m12.6 12.9c0.2 0.2 0.4 0.3 0.7 0.3v0.1c-0.3 0-0.4 0.1-0.6 0.3-0.2-0.1-0.4-0.1-0.6 0-0.2-0.2-0.3-0.3-0.5-0.4 0.5 0 0.6-0.2 0.5-0.7-0.1 0.2-0.2 0.3-0.4 0.4 0-0.3-0.2-0.4-0.4-0.4-0.1-0.1 0-0.2 0.1-0.4 0.3 0 0.5 0 0.8 0.2 0.1-0.1 0.2-0.1 0.3 0.1-0.2 0.1-0.3 0.3-0.1 0.6 0.1 0.2 0.2 0.1 0.2-0.1z"></path><path fill="#7ab3b6" d="m13.5 12.9c0.2 0.1 0.3 0.2 0.5 0.3 0.1 0 0.1 0 0.2-0.1 0.2-0.2 0.4-0.3 0.6-0.1-0.1 0.1-0.2 0.2-0.2 0.4-0.4 0.1-0.7 0.2-1.1 0.3-0.1-0.1-0.2-0.2-0.2-0.4v-0.1c0-0.1 0.1-0.2 0.2-0.3z"></path><path fill="#cf827d" d="m16.3 12.5c0.2 0.2 0.3 0.4 0.3 0.7-0.1-0.2-0.3-0.4-0.3-0.7z"></path><path fill="#863c39" d="m24.5 13.1c0.2 0.1 0.2 0.3 0 0.5-0.1-0.2-0.1-0.3 0-0.5z"></path><path fill="#6cb76d" d="m14.8 13c0.2 0.1 0.2 0.2 0.3 0.3v0.3c-0.2-0.1-0.3-0.2-0.5-0.2 0-0.2 0.1-0.3 0.2-0.4z"></path><path fill="#77c976" d="m17.8 13v0.7c-0.1 0-0.3-0.1-0.4-0.1v-0.4c0.1-0.1 0.2-0.2 0.4-0.2z"></path><path fill="#80c77b" d="m20.3 12.8c-0.1 0.2-0.2 0.4-0.4 0.5-0.1 0-0.3 0-0.5 0v-0.3c0.1-0.1 0.2-0.2 0.3-0.2 0.2 0 0.3 0 0.6 0z"></path><path fill="#bac7ac" d="m15.5 13.1c0.4 0.1 0.5 0.4 0.5 0.8-0.4 0-0.7-0.1-0.9-0.3v-0.3c0.2 0 0.3 0 0.4-0.2z"></path><path fill="#84cba1" d="m17.4 13.2v0.4c-0.1-0.1-0.2-0.2-0.4-0.2 0-0.6 0.1-0.6 0.4-0.2z"></path><path fill="#bb7769" d="m18.7 12.9v0.4c0 0.5 0 0.9 0 1.3 0 0-0.1 0.1-0.1 0.1v-1.7c0-0.1 0-0.1 0.1-0.1z"></path><path fill="#85999e" d="m22.8 13.8c-0.4-0.2-0.8-0.3-1.2-0.4 0.2 0 0.4-0.2 0.6-0.4 0.2 0.3 0.4 0.5 0.6 0.8z"></path><path fill="#d1b0a2" d="m13.3 13.3c0 0.2 0.1 0.3 0.2 0.4-0.1 0.1-0.3 0.1-0.4 0.2-0.1-0.2-0.2-0.3-0.4-0.3 0.2-0.2 0.3-0.3 0.6-0.3z"></path><path fill="#cbd999" d="m10.6 13.6c0.2 0 0.3 0.1 0.4 0.3v0.3c-0.1 0-0.3 0.1-0.4 0.1-0.1-0.1-0.2-0.3-0.2-0.5 0-0.2 0.1-0.2 0.2-0.2z"></path><path fill="#e4eec7" d="m27.1 13.1c0.1 0 0.2 0 0.3 0.1 0 0.2 0.1 0.5 0.3 0.6-0.2 0.2-0.5 0.4-0.8 0.4-0.1-0.1-0.1-0.2-0.2-0.3 0 0.4-0.1 0.6-0.5 0.6 0.1-0.4 0.1-0.7 0.1-1.1 0.2 0 0.4 0 0.6 0 0.1 0 0.2-0.1 0.2-0.3z"></path><path fill="#60a5bc" d="m23.9 13.6c0.2 0.1 0.5 0.2 0.9 0.4-0.2 0.1-0.5 0.2-0.7 0.1-0.1-0.2-0.1-0.4-0.3-0.5z"></path><path fill="#d19a93" d="m7.9 13.7c0.2 0 0.2 0.2 0.2 0.4h-0.3c0-0.1 0-0.3 0.1-0.4z"></path><path fill="#e1c0b3" d="m28.6 13.8h0.3v0.5h-0.4c-0.1-0.2 0-0.3 0.1-0.5z"></path><path fill="#b7372d" d="m22.4 11.1c-0.1 0.2-0.1 0.4-0.2 0.5-0.1 0.3-0.2 0.4-0.4 0.5-0.1 0.1-0.2 0.3-0.2 0.4-0.3 0.4-0.6 0.7-0.8 1.2-0.4 0.4-0.7 0.8-1 1.3 0 0 0.1 0 0.1 0-0.2 0.2-0.3 0.3-0.3 0.6-0.3 0.1-0.5 0.3-0.6 0.7-0.1 0-0.2 0.1-0.2 0.3-0.3 0.3-0.7 0.6-1 0.9-0.1-0.4-0.2-0.7-0.5-1 0-0.1 0-0.3-0.1-0.4v-0.4c0.2 0.2 0.3 0.2 0.6 0.2 0 0.2-0.1 0.4-0.3 0.6 0.3 0.2 0.6 0.3 0.8 0.2 0.2-0.1 0.3-0.3 0.3-0.6l0.1 0.2c0.2-0.3 0.3-0.5 0.3-0.8h-0.6c0-0.9 0.1-1.7 0.2-2.5v1.7c0.1 0.5 0.2 0.5 0.5 0 0-0.1-0.1-0.1-0.2-0.1l0.4-0.4c0.3-0.2 0.5-0.5 0.6-0.8v-0.1c0.2-0.1 0.3-0.3 0.3-0.5 0.3-0.2 0.4-0.4 0.4-0.7v-0.1c0.5 0.1 0.7 0 0.7-0.6l0.2-0.1c-0.1 0.3-0.2 0.5-0.2 0.8h0.3c-0.1-0.4 0.1-0.7 0.6-0.8-0.2-0.3-0.1-0.4 0.2-0.2z"></path><path fill="#dee9e9" d="m18.9 13.4c0 0.3 0 0.5 0.1 0.7 0.1-0.1 0.2-0.2 0.2-0.3h0.2v0.4l-0.5 0.4h-0.2c0-0.4 0-0.8 0-1.3 0.1-0.1 0.2-0.1 0.2 0.1z"></path><path fill="#93c4b6" d="m18.9 13h0.5v0.3c0.2 0 0.4 0 0.5 0v0.1c-0.2 0.1-0.4 0.2-0.5 0.4h-0.2v-0.4h-0.3c0-0.2-0.1-0.2-0.2-0.1v-0.2l0.2-0.1z"></path><path fill="#8ad58e" d="m26.3 15.1c-0.1 0.1-0.2 0-0.2-0.1 0.2-0.2 0.4-0.3 0.7-0.2v0.3h-0.5z"></path><path fill="#757676" d="m9.8 15.2c-0.1 0.2-0.3 0.3-0.5 0.3 0.1-0.2 0.3-0.3 0.5-0.3z"></path><path fill="#0f0f0f" d="m14.6 13.4c0.2 0 0.3 0.1 0.5 0.2 0.2 0.2 0.5 0.3 0.9 0.3 0 0.1 0.1 0.2 0.2 0.2 0 0.2 0 0.3 0.1 0.5 0.1 0.2 0.2 0.4 0.3 0.6l-0.2-0.1c-0.1-0.1-0.3-0.2-0.5-0.2-0.2-0.1-0.3-0.2-0.5-0.2l-0.9-0.5c-0.2 0.1-0.5 0.2-0.7 0.4-0.7 0.2-1.3 0.4-2 0.8-2.2 0.8-4.4 1.7-6.5 2.7 0.7 0.4 1.5 0.8 2.4 1.1 1.1-0.4 2.2-0.8 3.2-1.3 0.2 0 0.3-0.1 0.5-0.2 0.7-0.3 1.4-0.6 2.1-0.9 0.1 0 0.2 0 0.2-0.1 0.2 0 0.4-0.1 0.6-0.2h0.1c0.3-0.1 0.6-0.2 0.9-0.5l0.7-0.2c0.1-0.1 0.2-0.2 0.3-0.2l0.5-0.1c0.1 0.2 0.2 0.4 0.3 0.6l-0.2 0.3-0.6 0.2c-0.4 0.1-0.7 0.2-1 0.4-0.3 0.1-0.6 0.2-0.8 0.4-0.5 0.1-0.9 0.3-1.3 0.5-0.3 0-0.5 0.1-0.6 0.3-1.2 0.4-2.4 1-3.6 1.5 1.7 0.8 3.3 1.5 5.1 2.2 0 0.1 0.2 0.1 0.3 0.1 0 0.1 0.1 0.1 0.2 0.1 0.3 0.2 0.5 0.3 0.8 0.3 0.3 0.2 0.5 0.3 0.8 0.4 0.1 0.1 0.3 0.2 0.4 0.2 0.3 0.1 0.5 0.2 0.7 0.2 0.3 0.1 0.5 0.2 0.8 0.4 0 0 0.1-0.1 0.1-0.1h0.2l0.3-0.2c0.1 0 0.2-0.1 0.3-0.1 0.1 0 0.2 0 0.3-0.1 0.5-0.1 0.8-0.3 1.2-0.5 0.2 0 0.4-0.1 0.5-0.3 0 0 0.1-0.1 0.1-0.1 2.1-0.7 4.1-1.5 6-2.5-0.7-0.3-1.4-0.7-2.1-1-1.2-0.5-2.4-1-3.6-1.4-0.2-0.2-0.4-0.3-0.7-0.4-0.3-0.2-0.6-0.3-1-0.4h-0.2c-0.2-0.2-0.3-0.2-0.5-0.2 0.1-0.4 0.3-0.6 0.6-0.7 1.2 0.5 2.4 1 3.6 1.4 1.7 0.8 3.5 1.6 5.3 2.3l2.3-1.2c-2.6-1.2-5.3-2.4-8.1-3.4-0.3-0.2-0.6-0.3-0.9-0.5-0.7 0.3-1.3 0.5-1.9 0.8 0 0-0.1 0-0.1 0 0.3-0.5 0.6-0.9 1-1.3 0.3-0.1 0.5-0.1 0.8-0.3 0.4 0.1 0.8 0.2 1.2 0.4 1.1 0.5 2.2 0.9 3.3 1.2 0 0.1 0.1 0.2 0.2 0.1 0.4 0.3 0.8 0.5 1.3 0.6 1.5 0.7 3 1.4 4.6 2 0.4 0.1 0.5 0.4 0.2 0.7-0.9 0.4-1.8 0.8-2.7 1.3 0.9 0.5 1.8 0.9 2.7 1.3 0.1 0.1 0.2 0.2 0.2 0.4-0.4 0.3-0.8 0.6-1.3 0.8-0.7 0.2-1.5 0.5-2.2 0.8l-0.2 8.2c-3.6 1.6-7.2 3.1-10.9 4.5-3.6-1.4-7.2-2.9-10.7-4.5-0.1-2.7-0.1-5.5-0.1-8.2-1.2-0.3-2.4-0.8-3.5-1.5-0.1-0.1-0.1-0.3 0-0.5 1-0.4 1.9-0.8 2.8-1.3-0.8-0.5-1.7-0.9-2.7-1.3-0.3-0.2-0.3-0.4 0-0.6 1.8-0.9 3.7-1.6 5.5-2.3 0.2 0 0.4-0.1 0.5-0.3 1.1-0.4 2.1-0.9 3.3-1.3 0.1-0.1 0.3-0.1 0.4-0.2 0.4-0.1 0.7-0.2 1.1-0.3z"></path><path fill="#a637ba" d="m17.4 22.4h0.3c0.1 0.1 0.2 0.1 0.3 0.2 0.2 0 0.4 0.1 0.6 0.2 0.1 0.2 0.1 0.3 0.1 0.5l-0.3 0.2c-0.1-0.3-0.2-0.4-0.5-0.4 0-0.1 0-0.1-0.1-0.1 0-0.3-0.1-0.5-0.4-0.6z"></path><path fill="#d99bf2" d="m17.2 22.3l0.2 0.1c0.3 0.1 0.4 0.3 0.4 0.6-0.2-0.2-0.4-0.4-0.6-0.6v-0.1z"></path><path fill="#376da7" d="m16.8 22.2c0.1 0 0.3 0 0.4 0.1v0.1c-0.1 0.1-0.2 0.2-0.3 0.4-0.2 0-0.3 0.1-0.3 0.2-0.1 0-0.3-0.1-0.4-0.2 0.1 0 0.1-0.1 0.1-0.1h0.2c0.2-0.1 0.3-0.3 0.3-0.5z"></path><path fill="#536eb0" d="m19.6 21.7v0.2c-0.3 0.6-0.3 0.7 0.1 0.1 0.1 0.3 0 0.5-0.4 0.6v0.5c-0.1 0.1-0.2 0.1-0.3 0.1 0.1-0.2 0.1-0.4-0.1-0.5v-0.1c0.1 0 0.2-0.1 0.3-0.2 0-0.3 0.1-0.6 0.4-0.7z"></path><path fill="#d8bae5" d="m18.7 21.9c-0.1 0.2-0.2 0.4-0.1 0.7 0.1 0 0.2 0.1 0.3 0.1 0.2 0.1 0.2 0.3 0.1 0.5-0.1 0-0.2 0.1-0.3 0.1 0-0.2 0-0.3-0.1-0.5-0.2-0.1-0.4-0.2-0.6-0.2 0.2-0.2 0.3-0.3 0.2-0.6l0.5-0.1z"></path><path fill="#bdccd5" d="m19.6 21.9c0.3 0.2 0.6 0.4 0.9 0.7-0.4 0.2-0.7 0.4-1.2 0.5v-0.5c0.4-0.1 0.5-0.3 0.4-0.6-0.4 0.6-0.4 0.5-0.1-0.1z"></path><path fill="#d4bbdb" d="m16.2 22.1c0 0.2 0 0.4 0.1 0.6 0 0 0 0.1-0.1 0.1-0.3-0.1-0.5-0.2-0.8-0.4 0.3 0 0.4-0.1 0.4-0.4 0.1 0.1 0.3 0.1 0.4 0.1z"></path><path fill="#8a49a2" d="m16.2 22.1c0.2 0.1 0.3 0.3 0.3 0.6h-0.2c-0.1-0.2-0.1-0.4-0.1-0.6z"></path><path fill="#be92c9" d="m21.2 22.2c-0.1 0-0.2 0.1-0.2 0.1-0.4 0-0.5-0.1-0.2-0.4 0.2 0.1 0.3 0.2 0.3 0.3z"></path><path fill="#ddd1f5" d="m16.5 21c0 0.1 0.1 0.2 0.3 0.2-0.3 0.2-0.3 0.4 0 0.6-0.3 0.2-0.3 0.3 0 0.4 0 0.2-0.1 0.4-0.3 0.5 0-0.3-0.1-0.5-0.3-0.6 0.2-0.4 0.3-0.7 0.3-1.1z"></path><path fill="#8c4ea0" d="m14.6 22.1c-0.1 0-0.2 0-0.2-0.1 0.3-0.4 0.3-0.4 0.2 0.1z"></path><path fill="#d8e0f4" d="m18.8 20.9v0.2h-0.1c-0.1 0-0.2 0-0.3 0.1-0.1 0.2-0.2 0.4-0.3 0.6 0 0.1 0.1 0.2 0.1 0.2 0.1 0.3 0 0.4-0.2 0.6-0.1-0.1-0.2-0.1-0.3-0.2 0.1-0.3 0.2-0.6 0.2-0.9 0.2-0.1 0.3-0.4 0.3-0.6 0.2-0.2 0.3-0.3 0.5-0.4 0.1 0.1 0.1 0.3 0.1 0.4z"></path><path fill="#ac63ce" d="m18.7 21.1h0.1c0 0.3 0 0.5 0.2 0.7-0.1 0.2-0.3 0.4-0.3 0.6 0 0.1 0.1 0.1 0.2 0.2v0.1c-0.1 0-0.2-0.1-0.3-0.1-0.1-0.3 0-0.5 0.1-0.7-0.1-0.3-0.1-0.6 0-0.8z"></path><path fill="#4a78c1" d="m17.7 21.5h0.2c0 0.3-0.1 0.6-0.2 0.9h-0.3l-0.2-0.1c0-0.3 0.2-0.6 0.5-0.8z"></path><path fill="#7f5fc1" d="m19.6 21.2c0.1 0.1 0.2 0.1 0.3 0 0 0.2-0.1 0.4-0.3 0.5-0.3 0.1-0.4 0.4-0.4 0.7-0.1 0.1-0.2 0.2-0.3 0.2 0.2-0.3 0.3-0.7 0.2-1.1h0.4c-0.1-0.1 0-0.2 0.1-0.3z"></path><path fill="#6e59c2" d="m16.8 21.2l0.2 0.1c0.1 0.1 0.3 0.1 0.6 0 0 0.1 0.1 0.1 0.1 0.2-0.3 0.2-0.5 0.5-0.5 0.8-0.1-0.1-0.3-0.1-0.4-0.1-0.3-0.1-0.3-0.2 0-0.4-0.3-0.2-0.3-0.4 0-0.6z"></path><path fill="#f0d4f5" d="m15.1 21.3c-0.2 0.2-0.2 0.4 0 0.6 0.1-0.2 0.1-0.3 0.1-0.5h0.1c0.2 0.7 0 0.9-0.7 0.7 0.1-0.5 0.1-0.5-0.2-0.1-0.1 0-0.3 0-0.3-0.1 0.1-0.2 0.3-0.3 0.5-0.5 0.2-0.1 0.3-0.1 0.5-0.1z"></path><path fill="#4781be" d="m18.7 21.1c-0.1 0.2-0.1 0.5 0 0.8l-0.5 0.1c0 0-0.1-0.1-0.1-0.2 0.1-0.2 0.2-0.4 0.3-0.6 0.1-0.1 0.2-0.1 0.3-0.1z"></path><path fill="#a329bd" d="m19.5 21l0.1 0.2c-0.1 0.1-0.2 0.2-0.1 0.3h-0.4c0.1 0.4 0 0.8-0.2 1.1-0.1-0.1-0.2-0.1-0.2-0.2 0-0.2 0.2-0.4 0.3-0.6-0.2-0.2-0.2-0.4-0.2-0.7 0.2-0.1 0.4-0.1 0.7-0.1z"></path><path fill="#ddbeed" d="m17.6 21c0.1 0.1 0.1 0.2 0 0.3-0.3 0.1-0.5 0.1-0.6 0v-0.2c0.2 0 0.4-0.1 0.6-0.1z"></path><path fill="#597ab4" d="m16.8 20.8c-0.1 0.1 0 0.2 0.1 0.3h0.1v0.2l-0.2-0.1c-0.2 0-0.3-0.1-0.3-0.2v-0.1c0.1-0.1 0.2-0.2 0.3-0.1z"></path><path fill="#8177d2" d="m19.2 20.8c0.1 0.1 0.2 0.1 0.3 0.1v0.1c-0.3 0-0.5 0-0.7 0.1v-0.2l0.4-0.1z"></path><path fill="#a52eba" d="m18.1 20.9h0.1c0 0.2-0.1 0.5-0.3 0.6h-0.2c0-0.1-0.1-0.1-0.1-0.2 0.1-0.1 0.1-0.2 0-0.3 0.1-0.1 0.3-0.2 0.5-0.1z"></path><path fill="#f1f5f3" d="m14.5 17.4c0.1 0 0.2 0 0.3 0.1 0 0.2 0.1 0.4 0.1 0.7h-0.4c0.2 0.7 0.4 0.7 0.6 0h0.1c0.1 0.1 0.1 0.2 0 0.3l0.1 0.1c0.2-0.4 0.3-0.4 0.3 0 0 0.1 0.1 0.2 0.2 0.2-0.2 0.3-0.2 0.4 0.1 0.6l-0.8 0.2c0.1 0.3 0.1 0.5 0 0.7 0.1 0.1 0.3 0.1 0.4 0.1l-0.3 0.3c0.2 0.2 0.3 0.2 0.2 0 0.2-0.1 0.3 0 0.5 0.1 0.1 0.1 0.3 0.1 0.5 0.1h0.1v0.1c0 0.4-0.1 0.7-0.3 1.1-0.1 0-0.3 0-0.4-0.1 0 0.3-0.1 0.4-0.4 0.4-0.3 0-0.5-0.1-0.8-0.3 0.7 0.2 0.9 0 0.7-0.7 0.3-0.1 0.3-0.2 0-0.3-0.1 0-0.2 0.1-0.2 0.2-0.2 0-0.3 0-0.5 0.1-0.2 0.2-0.4 0.3-0.5 0.5-1.8-0.7-3.4-1.4-5.1-2.2 1.2-0.5 2.4-1.1 3.6-1.5 0.2 0 0.2 0.1 0.2 0.3h0.5c0.1 0.3 0.1 0.5 0 0.8-0.1 0-0.3 0-0.5 0 0.2 0.3 0.4 0.5 0.8 0.4-0.1 0.6 0.1 0.9 0.7 0.7 0.1-0.2 0.1-0.4 0-0.6-0.7-0.1-0.9-0.4-0.5-1 0-0.2-0.1-0.3-0.1-0.5-0.2 0-0.4-0.2-0.5-0.4 0.4-0.2 0.8-0.4 1.3-0.5z"></path><path fill="#864a9f" d="m15.1 21.3c0.1 0 0.1 0.1 0.1 0.1 0 0.2 0 0.3-0.1 0.5-0.2-0.2-0.2-0.4 0-0.6z"></path><path fill="#7a9eb9" d="m15.3 21.4h-0.1c0 0 0-0.1-0.1-0.1 0-0.1 0.1-0.2 0.2-0.2 0.3 0.1 0.3 0.2 0 0.3z"></path><path fill="#b45ecc" d="m17.8 20.3l0.1 0.2c0 0.2 0.1 0.3 0.2 0.3v0.1c-0.2-0.1-0.4 0-0.5 0.1-0.2 0-0.4 0.1-0.6 0.1h-0.1c0-0.3 0.1-0.4 0.4-0.3 0-0.4 0.1-0.5 0.5-0.5z"></path><path fill="#debde7" d="m15.8 20.2c0 0.2 0.2 0.3 0.4 0.3 0.1 0.1 0.2 0.2 0.2 0.4-0.2 0-0.4 0-0.5-0.1-0.1-0.2-0.2-0.3-0.3-0.4 0-0.1 0.1-0.2 0.2-0.2z"></path><path fill="#babce0" d="m20.3 19.9c-0.2 0.1-0.2 0.2 0 0.2-0.2 0.1-0.4 0.2-0.6 0.3 0.4 0.3 0.4 0.4-0.1 0.2-0.1 0.1-0.2 0.2-0.1 0.3-0.1 0-0.2 0-0.3-0.1v-0.2c0.1-0.3 0.4-0.4 0.7-0.5-0.2-0.1-0.3-0.3-0.1-0.5 0.2 0 0.3 0.1 0.4 0.3z"></path><path fill="#6695c3" d="m18.6 20.2c0.2 0 0.4 0 0.5 0.2 0 0 0 0 0-0.1 0.1 0.1 0.1 0.2 0.1 0.3v0.2l-0.4 0.1c0-0.1 0-0.3-0.1-0.4-0.2 0.1-0.3 0.2-0.5 0.4h-0.1v-0.1c0.2-0.1 0.3-0.3 0.3-0.5 0-0.1 0.1-0.1 0.2-0.1z"></path><path fill="#d3e5f8" d="m18.2 20.3h0.3c-0.1 0.2-0.2 0.4-0.4 0.5-0.1 0-0.2-0.1-0.2-0.3l0.3-0.2z"></path><path fill="#e6d7f4" d="m17.2 20c0.2 0 0.4 0 0.6 0v0.3c-0.4 0-0.5 0.1-0.5 0.5-0.3-0.1-0.4 0-0.4 0.3-0.1-0.1-0.2-0.2-0.1-0.3-0.1-0.2-0.2-0.4-0.1-0.6 0.1 0 0.2-0.2 0.2-0.3 0.1 0.2 0.2 0.2 0.3 0.1z"></path><path fill="#f5f5f6" d="m28.4 20.2c0.8 0.3 1.7 0.6 2.5 1.1l-9.2 4c-0.8-0.5-1.6-0.9-2.5-1.3 3.1-1.3 6.1-2.5 9.1-3.8z"></path><path fill="#f5f5f5" d="m7.5 20.2c3.2 1.2 6.4 2.5 9.5 3.9-0.8 0.4-1.7 0.7-2.5 1-3.1-1.1-6.1-2.4-9.1-3.7-0.1 0-0.1-0.1 0-0.2 0.7-0.3 1.4-0.6 2.1-1z"></path><path fill="#923eb7" d="m16 20.1c0.2 0.1 0.4 0.1 0.6 0.1 0 0.2 0.1 0.4 0.2 0.6-0.1-0.1-0.2 0-0.3 0.1h-0.1c0-0.2-0.1-0.3-0.2-0.4-0.2 0-0.4-0.1-0.5-0.3 0.2 0 0.2 0 0.3-0.1z"></path><path fill="#c3dbf0" d="m19.4 19.5c0.2 0.3 0.2 0.5-0.2 0.5 0 0.1-0.1 0.2-0.1 0.3 0 0.1 0 0.1 0 0.1-0.1-0.2-0.3-0.2-0.5-0.2v-0.2c0.2-0.1 0.5-0.1 0.8-0.1v-0.4z"></path><path fill="#4f6ec6" d="m18 19.7c0.2 0.2 0.3 0.4 0.2 0.6l-0.3 0.2-0.1-0.2v-0.3c0.2 0.1 0.2 0 0.2-0.3z"></path><path fill="#7960c1" d="m17 19.7c0.1 0 0.2 0.1 0.2 0.3-0.1 0.1-0.2 0.1-0.3-0.1 0 0.1-0.1 0.3-0.2 0.3-0.3 0-0.5 0-0.7-0.1-0.1-0.5 0-0.6 0.4-0.2 0.2-0.1 0.4-0.2 0.6-0.2z"></path><path fill="#6e53c1" d="m17.9 19.2h0.2c0.1 0.1 0.2 0.2 0.3 0.2 0 0.2 0.1 0.3 0.3 0.3l-0.1 0.3v0.2c-0.1 0-0.2 0-0.2 0.1h-0.2c0.1-0.2 0-0.4-0.2-0.6 0-0.2 0-0.3-0.1-0.5z"></path><path fill="#357cbd" d="m19.4 19.5v0.4c-0.3 0-0.6 0-0.8 0.1l0.1-0.3 0.7-0.2z"></path><path fill="#d2deec" d="m15.9 18.2h0.2c0 0.2 0.2 0.3 0.4 0.3-0.1 0.3 0 0.5 0.4 0.5-0.2 0.2-0.1 0.5 0.1 0.7-0.2 0-0.4 0.1-0.6 0.2-0.4-0.4-0.5-0.3-0.4 0.2-0.1 0.1-0.1 0.1-0.2 0.1-0.1 0-0.2 0.1-0.2 0.2 0.1 0.1 0.2 0.2 0.3 0.4-0.2-0.1-0.3-0.2-0.5-0.1 0.1 0.2 0 0.2-0.2 0l0.3-0.3c-0.1 0-0.3 0-0.4-0.1 0.1-0.2 0.1-0.4 0-0.7l0.8-0.2c-0.3-0.2-0.3-0.3-0.1-0.6 0 0.1 0.1 0.1 0.1 0.2 0.1-0.3 0.1-0.6 0-0.8z"></path><path fill="#6663c0" d="m20.3 19.4c0 0.1 0 0.3 0 0.5-0.2-0.2-0.3-0.3-0.5-0.3-0.2 0.2-0.1 0.4 0.1 0.5-0.3 0.1-0.6 0.2-0.7 0.5 0-0.1 0-0.2-0.1-0.3 0-0.1 0.1-0.2 0.1-0.3 0.4 0 0.4-0.2 0.2-0.5l-0.2-0.2c0.1-0.1 0.1-0.1 0.2-0.1 0.3 0.1 0.5 0.2 0.9 0.2z"></path><path fill="#a392de" d="m17.4 18.8l0.3 0.2c0.1 0.1 0.2 0.1 0.4 0.1v0.1h-0.2c-0.2 0-0.3 0.1-0.2 0.3h-0.5v-0.5c0.1 0 0.2-0.1 0.2-0.2z"></path><path fill="#cfe7ec" d="m13.2 17.9c0.1 0.2 0.3 0.4 0.5 0.4 0 0.2 0.1 0.3 0.1 0.5-0.4 0.6-0.2 0.9 0.5 1 0.1 0.2 0.1 0.4 0 0.6-0.6 0.2-0.8-0.1-0.7-0.7-0.4 0.1-0.6-0.1-0.8-0.4 0.2 0 0.4 0 0.5 0 0.1-0.3 0.1-0.5 0-0.8h-0.5c0-0.2 0-0.3-0.2-0.3 0.1-0.2 0.3-0.3 0.6-0.3z"></path><path fill="#64adcc" d="m18.4 19.4c-0.1 0-0.2-0.1-0.3-0.2v-0.1c0.2-0.1 0.5-0.1 0.7 0-0.1 0.1-0.2 0.1-0.3 0.1 0.1 0.1 0.1 0.2 0 0.2z"></path><path fill="#9c3dc1" d="m17.2 19v0.5h0.5c-0.1-0.2 0-0.3 0.2-0.3 0.1 0.2 0.1 0.3 0.1 0.5 0 0.3 0 0.4-0.2 0.3-0.2 0-0.4 0-0.6 0 0-0.2-0.1-0.3-0.2-0.3-0.2-0.2-0.3-0.5-0.1-0.7 0.1-0.2 0.2-0.2 0.3 0z"></path><path fill="#5297cd" d="m20.6 18.7v0.6c-0.2 0-0.3 0-0.3 0.1-0.4 0-0.6-0.1-0.9-0.2-0.1 0-0.1 0-0.2 0.1-0.1-0.1-0.1-0.2 0.1-0.3 0.4 0.1 0.5 0.1 0.3-0.3 0.1-0.1 0.2-0.2 0.4-0.3 0.1 0.3 0.3 0.4 0.6 0.3z"></path><path fill="#57a2c2" d="m17.4 18.3c0.1 0.1 0.3 0.1 0.4 0.2 0.1-0.1 0.3-0.1 0.4-0.1 0 0.4-0.2 0.5-0.5 0.3 0 0.1-0.1 0.2 0 0.3l-0.3-0.2c-0.1-0.2-0.1-0.3 0-0.5z"></path><path fill="#3373aa" d="m15.8 18.2h0.1c0.1 0.2 0.1 0.5 0 0.8 0-0.1-0.1-0.1-0.1-0.2-0.1 0-0.2-0.1-0.2-0.2 0.1-0.1 0.2-0.3 0.2-0.4z"></path><path fill="#5d98b8" d="m16.5 18.5c-0.2 0-0.4-0.1-0.4-0.3 0.1-0.1 0.2-0.1 0.3-0.3 0.1 0.2 0.2 0.4 0.1 0.6z"></path><path fill="#cde9ef" d="m19.5 16.5h0.2c0.2 0.4 0.6 0.5 1 0.4 0.3 0.1 0.5 0.2 0.7 0.4-0.2 0.3-0.3 0.6-0.4 0.9-0.1-0.2-0.2-0.4-0.3-0.6 0-0.2-0.2-0.4-0.4-0.4-0.3-0.1-0.5 0-0.6 0.1 0.2 0 0.4 0.1 0.6 0.2-0.2 0.1-0.4 0.3-0.5 0.6 0.2 0 0.4 0 0.7 0-0.2 0.3-0.1 0.5 0.1 0.6-0.3 0.1-0.5 0-0.6-0.3-0.2 0.1-0.3 0.2-0.4 0.3 0.2 0.4 0.1 0.4-0.3 0.3-0.2 0.1-0.2 0.2-0.1 0.3l0.2 0.2-0.7 0.2c-0.2 0-0.3-0.1-0.2-0.3 0.1 0 0.1-0.1 0-0.2 0.1 0 0.2 0 0.3-0.1-0.2-0.1-0.5-0.1-0.7 0-0.2 0-0.3 0-0.4-0.1-0.1-0.1 0-0.2 0-0.3 0.3 0.2 0.5 0.1 0.5-0.3-0.1 0-0.3 0-0.4 0.1-0.1-0.1-0.3-0.1-0.4-0.2 0-0.1-0.1-0.2-0.2-0.1 0.1-0.2 0.3-0.2 0.5 0 0.2-0.1 0.4-0.2 0.5-0.4 0.1-0.1 0.2-0.3 0.1-0.4 0.1-0.2 0.2-0.3 0.4-0.2l0.2 0.1c0.1 0 0.2 0 0.3 0.1 0-0.3 0.1-0.6 0.3-0.9z"></path><path fill="#8aafc2" d="m19.4 18.4l0.2-0.1c-0.1 0.3-0.3 0.4-0.6 0.3l-0.2-0.2c0.1-0.1 0.2-0.2 0.3-0.3 0 0.1 0.1 0.3 0.3 0.3z"></path><path fill="#f4f6f6" d="m21.4 17.3c1.2 0.4 2.4 0.9 3.6 1.4 0.7 0.3 1.4 0.7 2.1 1-1.9 1-3.9 1.8-6 2.5 0-0.1-0.1-0.2-0.3-0.3-0.3 0.3-0.2 0.4 0.2 0.4-0.1 0.2-0.3 0.3-0.5 0.3-0.3-0.3-0.6-0.5-0.9-0.7v-0.2c0.2-0.1 0.3-0.3 0.3-0.5-0.1 0.1-0.2 0.1-0.3 0l-0.1-0.2v-0.1c-0.1-0.1 0-0.2 0.1-0.3 0.5 0.2 0.5 0.1 0.1-0.2 0.2-0.1 0.4-0.2 0.6-0.3-0.2 0-0.2-0.1 0-0.2 0-0.2 0-0.4 0-0.5 0-0.1 0.1-0.1 0.3-0.1v-0.6c-0.2-0.1-0.3-0.3-0.1-0.6-0.3 0-0.5 0-0.7 0 0.1-0.3 0.3-0.5 0.5-0.6 0 0 0.1 0.1 0.1 0.2 0.1-0.1 0.2-0.1 0.3-0.1 0.1 0.2 0.2 0.4 0.3 0.6 0.1-0.3 0.2-0.6 0.4-0.9z"></path><path fill="#c9a1d3" d="m19.9 21.2c0-0.1 0.1-0.2 0.2-0.2 0.2 0.1 0.3 0.1 0.5 0 0.1 0.1 0.1 0.2 0.1 0.3 0.1 0 0.2 0 0.3 0.1-0.2 0-0.5 0-0.7 0-0.2 0-0.3-0.1-0.4-0.2z"></path><path fill="#dcace5" d="m21.7 20.8c0.1-0.1 0.2-0.2 0.4-0.2v0.5h-0.5c0-0.2 0-0.3 0.1-0.3z"></path><path fill="#b590c3" d="m21.3 20.8c0.1 0 0.1 0.1 0 0.2-0.3 0.3-0.4 0.3-0.3-0.1 0.1 0 0.2 0 0.3-0.1z"></path><path fill="#6e237f" d="m21.7 20.8c0.2 0 0.3 0 0.1 0.2-0.1-0.1-0.1-0.1-0.1-0.2z"></path><path fill="#8f61a2" d="m20.9 20.4v-0.1c0.1-0.2 0.1-0.3 0.3 0-0.1 0.1-0.2 0.1-0.3 0.1z"></path><path fill="#d8e9ee" d="m22.4 20.3c-0.2-0.2-0.4-0.5-0.5-0.8-0.1-0.1-0.2-0.1-0.2 0-0.1 0-0.2-0.2-0.3-0.3 0 0.3-0.1 0.5-0.3 0.7 0.2 0.3 0.2 0.6 0.2 0.9-0.1 0.1-0.2 0.1-0.3 0.1 0-0.2-0.1-0.3-0.1-0.5 0.1 0 0.2 0 0.2-0.1-0.1-0.3-0.1-0.2-0.2 0-0.1 0-0.3 0-0.4 0 0.1-0.2 0.1-0.3 0.1-0.4h0.4c0-0.3 0.1-0.6 0.3-0.8-0.1 0-0.1-0.1-0.2-0.1-0.1-0.1-0.1-0.2 0-0.4 0.2-0.4 0.6-0.7 1.1-0.8v0.5c-0.2-0.1-0.4 0-0.6 0.1 0.1 0.2 0.1 0.4 0 0.6 0 0.1 0 0.2 0.1 0.2 0.4 0 0.6 0.2 0.6 0.5 0.1 0.1 0.2 0 0.3 0l-0.2-0.8c0.3-0.1 0.6-0.1 0.9 0 0.3 0.4 0.2 0.8-0.1 1.2 0.1 0.3 0.1 0.5-0.1 0.8l-0.1-0.3c-0.1 0.2-0.2 0.2-0.3 0.1 0-0.2 0-0.5 0-0.7-0.1 0.1-0.2 0.2-0.3 0.3z"></path><path fill="#8bb6c4" d="m22.4 20.3c-0.5-0.1-0.7-0.3-0.7-0.8 0-0.1 0.1-0.1 0.2 0 0.1 0.3 0.3 0.6 0.5 0.8z"></path><path fill="#2c689d" d="m22.7 19.2c0.4-0.1 0.5 0.1 0.3 0.3-0.2 0-0.2-0.2-0.3-0.3z"></path><path fill="#326fa2" d="m21.2 19c0-0.2 0-0.4 0.1-0.5 0.3 0.3 0.2 0.4-0.1 0.5z"></path><path fill="#46a08d" d="m19.6 18.3l-0.3 0.1c0.1-0.2 0-0.4-0.1-0.5 0.1-0.1 0.2-0.2 0.3-0.3 0.1 0.2 0.1 0.4 0.1 0.7z"></path><path fill="#7998a7" d="m11.4 17.7c-0.2 0.1-0.3 0.2-0.5 0.2-0.1-0.1-0.2-0.3-0.2-0.5 0.2 0.2 0.4 0.3 0.7 0.3z"></path><path fill="#337bb0" d="m18.3 17.4c0.1 0.1 0 0.3-0.1 0.4-0.1 0.2-0.3 0.3-0.5 0.4 0-0.2-0.1-0.3-0.3-0.3 0.1-0.2 0.2-0.3 0.3-0.4 0 0.1 0.1 0.2 0.1 0.2 0.2-0.1 0.4-0.2 0.5-0.3z"></path><path fill="#e8f7f9" d="m16 17.4h0.2c0.2 0.1 0.4 0.2 0.6 0.3 0 0.2 0.2 0.4 0.4 0.5 0.1-0.1 0.2 0 0.2 0.1-0.1 0.2-0.1 0.3 0 0.5 0 0.1-0.1 0.2-0.2 0.2-0.1-0.2-0.2-0.2-0.3 0-0.4 0-0.5-0.2-0.4-0.5 0.1-0.2 0-0.4-0.1-0.6-0.1 0.2-0.2 0.2-0.3 0.3h-0.3c0-0.3 0.1-0.6 0.2-0.8z"></path><path fill="#777a81" d="m18.8 16.6v0.2c-0.1 0.1-0.1 0.2-0.1 0.4-0.2-0.1-0.3 0-0.4 0.2-0.1 0.1-0.3 0.2-0.5 0.3 0 0-0.1-0.1-0.1-0.2h0.1c0.3-0.3 0.7-0.6 1-0.9z"></path><path fill="#3183bd" d="m16.8 17.7c-0.2-0.1-0.4-0.2-0.6-0.3 0-0.1 0-0.2 0.1-0.2 0.1 0.2 0.4 0.3 0.6 0.2 0.3 0.3 0.2 0.4-0.1 0.3z"></path><path fill="#4290aa" d="m20.7 17.6c-0.1 0-0.2 0-0.3 0.1 0-0.1-0.1-0.2-0.1-0.2-0.2-0.1-0.4-0.2-0.6-0.2 0.1-0.1 0.3-0.2 0.6-0.1 0.2 0 0.4 0.2 0.4 0.4z"></path><path fill="#b4d9e4" d="m15.3 17c0.2 0.2 0.4 0.4 0.7 0.4-0.1 0.2-0.2 0.5-0.2 0.8 0 0.1-0.1 0.3-0.2 0.4 0-0.4-0.1-0.4-0.3 0l-0.1-0.1c0.1-0.1 0.1-0.2 0-0.3 0.1-0.1 0.3-0.1 0.4 0v-0.4c-0.2 0-0.3 0-0.5 0-0.2 0.1-0.2 0.2 0 0.4-0.2 0.7-0.4 0.7-0.6 0h0.3c0.1-0.3 0-0.5 0-0.7-0.1-0.1-0.2-0.1-0.3-0.1 0.2-0.2 0.5-0.3 0.8-0.4z"></path><path fill="#2778b5" d="m15.2 18.2h-0.1c-0.2-0.2-0.2-0.3 0-0.4 0.2 0 0.3 0 0.5 0v0.4c-0.1-0.1-0.3-0.1-0.4 0z"></path><path fill="#8ac6d8" d="m17.3 16.5c0 0.4 0.2 0.7 0.4 1-0.1 0.1-0.2 0.2-0.3 0.4 0.2 0 0.3 0.1 0.3 0.3-0.2-0.2-0.4-0.2-0.5 0-0.2-0.1-0.4-0.3-0.4-0.5 0.3 0.1 0.4 0 0.1-0.3-0.2 0.1-0.5 0-0.6-0.2-0.1 0-0.1 0.1-0.1 0.2h-0.2c-0.3 0-0.5-0.2-0.7-0.4 0.3-0.2 0.6-0.3 1-0.4 0.2 0.4 0.4 0.5 0.8 0.3v-0.3l0.2-0.1z"></path><path fill="#97a9af" d="m19.7 16.5c0.4 0.1 0.7 0.2 1 0.4-0.4 0.1-0.8 0-1-0.4z"></path><path fill="#debeb9" d="m17.3 16.5c0.3 0.3 0.4 0.6 0.5 1h-0.1c-0.2-0.3-0.4-0.6-0.4-1z"></path><path fill="#2484c7" d="m18.9 17.3l-0.2-0.1c0-0.2 0-0.3 0.1-0.4 0.1-0.1 0.3-0.2 0.4-0.1 0 0.2-0.1 0.4-0.3 0.6z"></path><path fill="#6bb59d" d="m16.9 16.4l0.2 0.2v0.3c-0.4 0.2-0.6 0.1-0.8-0.3l0.6-0.2z"></path><path fill="#89bbce" d="m19 16.3c0.2 0 0.3 0 0.5 0.2-0.2 0.3-0.3 0.6-0.3 0.9-0.1-0.1-0.2-0.1-0.3-0.1 0.2-0.2 0.3-0.4 0.3-0.6-0.1-0.1-0.3 0-0.4 0.1v-0.2c0-0.2 0.1-0.3 0.2-0.3z"></path><path fill="#ecf1d3" d="m12.9 16c0.1 0.4-0.1 0.6-0.5 0.5v-0.6c0 0.1 0.1 0.2 0.3 0.2 0.1-0.1 0.1-0.3-0.2-0.4 0 0-0.1 0-0.1 0.1-0.1 0-0.2-0.1-0.1-0.2 0.2-0.2 0.4-0.1 0.6 0 0.1 0.1 0.1 0.3 0 0.4z"></path><path fill="#6b6b74" d="m17.1 16.1h0.1c0.1 0.1 0.1 0.3 0.1 0.4l-0.2 0.1-0.2-0.2 0.2-0.3z"></path><path fill="#85bac6" d="m14.1 15.9c0.1 0.2 0 0.4-0.2 0.5 0.2 0.1 0.3 0.1 0.4 0.1-0.2 0.1-0.4 0.2-0.6 0.2 0-0.2 0-0.5 0-0.7 0.2 0.1 0.3 0 0.4-0.1z"></path><path fill="#f5f5f4" d="m21.6 14.7c0.2 0 0.4 0 0.6 0-0.2 0.2-0.2 0.3-0.1 0.4 0.1-0.2 0.4-0.4 0.6-0.4 2.8 1 5.5 2.2 8.1 3.4l-2.3 1.2c-1.8-0.7-3.6-1.5-5.3-2.3-0.1-0.2-0.1-0.4-0.1-0.6-0.3-0.2-0.4-0.5-0.3-0.8-0.3 0-0.7 0-1 0-0.2 0.4-0.5 0.4-0.9 0.1h0.1c0.3 0 0.4 0 0.5-0.2l0.2-0.1c0.2-0.3 0.1-0.5-0.1-0.7z"></path><path fill="#deefee" d="m13.8 14.6h0.4c0 0.2 0 0.3 0 0.5 0.1 0.1 0.2 0.2 0.3 0.1 0.1 0.2 0.2 0.3 0.4 0.3-0.3 0.1-0.4 0.3-0.4 0.5 0.1 0 0.3 0 0.4 0.1-0.2 0.1-0.4 0.2-0.5 0.4h-0.1c-0.1 0-0.2 0-0.3-0.1 0.1-0.1 0.2-0.3 0.1-0.5v-0.3c-0.6-0.1-0.7 0.1-0.4 0.4 0 0.2 0 0.5 0 0.7 0 0.1-0.1 0.1-0.2 0.1-0.2-0.2-0.4-0.5-0.6-0.8 0.1-0.1 0.1-0.3 0-0.4-0.2-0.1-0.4-0.2-0.6 0-0.1-0.2-0.3-0.3-0.5-0.2 0.7-0.4 1.3-0.6 2-0.8z"></path><path fill="#f3f4f3" d="m11.8 15.4c0.2-0.1 0.4 0 0.5 0.2-0.1 0.1 0 0.2 0.1 0.2v0.7c0.4 0.1 0.6-0.1 0.5-0.5 0.2 0.3 0.4 0.6 0.6 0.8-0.7 0.3-1.4 0.6-2.1 0.9-0.3 0-0.5-0.1-0.7-0.3 0 0.2 0.1 0.4 0.2 0.5-1 0.5-2.1 0.9-3.2 1.3-0.9-0.3-1.7-0.7-2.4-1.1 2.1-1 4.3-1.9 6.5-2.7z"></path><path fill="#90332d" d="m16.2 14.1c0.1 0.2 0.3 0.4 0.4 0.5 0.2 0.3 0.4 0.7 0.6 1.1v0.4h-0.1c-0.1-0.2-0.2-0.4-0.3-0.6 0-0.1-0.1-0.2-0.2-0.3-0.1-0.2-0.2-0.4-0.3-0.6-0.1-0.2-0.1-0.3-0.1-0.5z"></path><path fill="#d1bf5e" d="m12.4 15.9v-0.1c0-0.1 0.1-0.1 0.1-0.1 0.3 0.1 0.3 0.3 0.2 0.4-0.2 0-0.3-0.1-0.3-0.2z"></path><path fill="#d6eef0" d="m15.6 15.1l0.4 0.7-0.7 0.2c-0.1-0.2-0.2-0.5-0.3-0.8 0.2 0.1 0.4 0 0.6-0.1z"></path><path fill="#5b9fbb" d="m14.8 15.1h0.2v0.1c0.1 0.3 0.2 0.6 0.3 0.8-0.3 0.3-0.6 0.4-0.9 0.5 0.1-0.2 0.3-0.3 0.4-0.4 0-0.1-0.2-0.1-0.3-0.1 0-0.2 0.1-0.4 0.3-0.5-0.1 0-0.2-0.1-0.3-0.3 0.1 0 0.2 0 0.3-0.1z"></path><path fill="#5eb69a" d="m14.1 15.9c-0.1 0.1-0.2 0.2-0.4 0.1-0.3-0.3-0.2-0.5 0.4-0.4v0.3z"></path><path fill="#89d59e" d="m21 15.4v0.3h-0.1c-0.2 0-0.4-0.2-0.3-0.5 0.2 0 0.3 0.1 0.4 0.2z"></path><path fill="#dfe8e6" d="m22.7 14.7c-0.2 0-0.5 0.2-0.6 0.4-0.1-0.1-0.1-0.2 0.1-0.4-0.2 0-0.4 0-0.6 0-0.1-0.1-0.2-0.1-0.3 0 0 0.3-0.1 0.5-0.3 0.7-0.1-0.1-0.2-0.2-0.4-0.2-0.1 0.3 0.1 0.5 0.3 0.5 0.4 0.3 0.7 0.3 0.9-0.1 0.3 0 0.7 0 1 0-0.1 0.3 0 0.6 0.3 0.8 0 0.2 0 0.4 0.1 0.6-1.2-0.4-2.4-0.9-3.6-1.4 0-0.3 0.1-0.4 0.3-0.6 0.6-0.3 1.2-0.5 1.9-0.8 0.3 0.2 0.6 0.3 0.9 0.5z"></path><path fill="#93c9d1" d="m15.9 14.9c0.2 0 0.4 0.1 0.5 0.2-0.1 0.2-0.1 0.3-0.1 0.5-0.1 0-0.2 0.1-0.3 0.2l-0.4-0.7c0.1-0.1 0.2-0.2 0.3-0.2z"></path><path fill="#72b26a" d="m21.7 15.4l-0.2 0.1c-0.1-0.2-0.1-0.4 0.1-0.6 0.1 0.1 0.1 0.3 0.1 0.5z"></path><path fill="#7ac277" d="m16.4 15.1l0.3 0.1c0 0.1 0.1 0.2 0.1 0.3l-0.5 0.1c0-0.2 0-0.3 0.1-0.5z"></path><path fill="#461716" d="m17.4 14.6l0.3 0.1c0.1 0.2 0.1 0.4 0 0.5-0.1 0-0.2-0.1-0.3-0.2v-0.4z"></path><path fill="#91d99c" d="m15 14.7h0.4c0.2 0 0.3 0.1 0.5 0.2-0.2 0-0.2 0.1-0.3 0.2-0.2 0.1-0.4 0.2-0.6 0.1v-0.1c0.1-0.1 0.1-0.2 0-0.4z"></path><path fill="#bce4d0" d="m15.4 14.7h-0.4c-0.2-0.1-0.5-0.2-0.7-0.1 0 0.4 0.1 0.5 0.4 0.2 0.1 0.1 0.2 0.2 0.1 0.3-0.1 0.1-0.2 0.1-0.3 0.1-0.1 0.1-0.2 0-0.3-0.1 0-0.2 0-0.3 0-0.5h-0.4c0.2-0.2 0.5-0.3 0.7-0.4l0.9 0.5z"></path><path fill="#461a18" d="m18.7 14.6h0.2c0.1 0 0.2 0 0.2 0.1-0.3 0.5-0.4 0.5-0.5 0 0 0 0.1-0.1 0.1-0.1z"></path><path fill="#52b156" d="m15 14.7c0.1 0.2 0.1 0.3 0 0.4h-0.2c0.1-0.1 0-0.2-0.1-0.3-0.3 0.3-0.4 0.2-0.4-0.2 0.2-0.1 0.5 0 0.7 0.1z"></path><path fill="#cbe5b8" d="m21.6 14.7c0.2 0.2 0.3 0.4 0.1 0.7 0-0.2 0-0.4-0.1-0.5-0.2 0.2-0.2 0.4-0.1 0.6-0.1 0.2-0.2 0.2-0.5 0.2v-0.3c0.2-0.2 0.3-0.4 0.3-0.7 0.1-0.1 0.2-0.1 0.3 0z"></path><path fill="#d48d80" d="m19.9 13.4c-0.1 0.3-0.3 0.6-0.5 0.8v-0.4c0.1-0.2 0.3-0.3 0.5-0.4z"></path><path fill="#4094b8" d="m18.9 13.4h0.3v0.4c0 0.1-0.1 0.2-0.2 0.3-0.1-0.2-0.1-0.4-0.1-0.7z"></path><path fill="#cbb5db" d="m16.9 22.8c0.1 0.1 0.3 0.3 0.4 0.4-0.2 0-0.4-0.1-0.7-0.2 0-0.1 0.1-0.2 0.3-0.2z"></path><path fill="#7a44b4" d="m17.2 22.4c0.2 0.2 0.4 0.4 0.6 0.6 0.1 0 0.1 0 0.1 0.1 0 0.2 0.1 0.3 0.3 0.4 0 0-0.1 0.1-0.1 0.1-0.3-0.2-0.5-0.3-0.8-0.4-0.1-0.1-0.3-0.3-0.4-0.4 0.1-0.2 0.2-0.3 0.3-0.4z"></path><path fill="#e2acf1" d="m17.9 23.1c0.3 0 0.4 0.1 0.5 0.4h-0.2c-0.2-0.1-0.3-0.2-0.3-0.4z"></path><path fill="#fcfcfc" d="m27.7 23.7c0.2 2.3 0.3 4.7 0.2 7.1-3 1.2-6.1 2.5-9.1 3.8-0.2-3.3-0.2-6.5 0-9.8 0.9 0.5 1.9 0.9 2.9 1.2 2-0.7 4-1.5 6-2.3z m-19.1 0c1.9 0.8 3.9 1.6 5.9 2.3 1-0.4 1.9-0.8 2.9-1.2 0.2 3.3 0.2 6.5 0 9.8-3-1.3-6.1-2.5-9.1-3.8 0-2.4 0-4.8 0.2-7.1z"></path><path fill="#c3c2c2" d="m8.6 23.7c-0.3 2.3-0.3 4.7-0.3 7.1-0.1-2.4-0.1-4.8-0.1-7.2 0.2-0.1 0.3 0 0.4 0.1z"></path><path fill="#bfbfbf" d="m27.7 23.7c0.1-0.1 0.2-0.2 0.3-0.1 0 2.4 0 4.8-0.1 7.2 0.1-2.4 0-4.8-0.2-7.1z"></path></svg>