<?xml version="1.0" encoding="UTF-8"?>
<!DOCTYPE svg PUBLIC "-//W3C//DTD SVG 1.1//EN" "http://www.w3.org/Graphics/SVG/1.1/DTD/svg11.dtd">
<svg xmlns="http://www.w3.org/2000/svg" version="1.1" width="320px" height="320px" style="shape-rendering:geometricPrecision; text-rendering:geometricPrecision; image-rendering:optimizeQuality; fill-rule:evenodd; clip-rule:evenodd" xmlns:xlink="http://www.w3.org/1999/xlink">
<g><path style="opacity:1" fill="#f4f4f4" d="M -0.5,-0.5 C 106.167,-0.5 212.833,-0.5 319.5,-0.5C 319.5,106.167 319.5,212.833 319.5,319.5C 212.833,319.5 106.167,319.5 -0.5,319.5C -0.5,212.833 -0.5,106.167 -0.5,-0.5 Z"/></g>
<g><path style="opacity:1" fill="#808466" d="M 278.5,127.5 C 273.847,126.999 269.514,127.666 265.5,129.5C 265.5,128.833 265.5,128.167 265.5,127.5C 269.833,126.167 274.167,126.167 278.5,127.5 Z"/></g>
<g><path style="opacity:1" fill="#4b340d" d="M 65.5,120.5 C 67.5273,120.338 69.5273,120.505 71.5,121C 67.2318,121.031 63.2318,122.031 59.5,124C 60.7839,124.684 61.9505,124.517 63,123.5C 64.008,125.259 65.508,126.426 67.5,127C 70.4816,127.498 73.4816,127.665 76.5,127.5C 76.8652,130.079 76.8652,132.412 76.5,134.5C 75.0047,134.415 74.0047,135.081 73.5,136.5C 70.2317,137.487 66.8984,137.82 63.5,137.5C 63.5,138.5 63.5,139.5 63.5,140.5C 70.603,140.038 77.103,141.705 83,145.5C 83.5,146.5 84,147.5 84.5,148.5C 82.3835,150.6 80.7169,152.933 79.5,155.5C 79.2555,158.519 80.5888,160.353 83.5,161C 84.6933,165.381 86.0267,165.548 87.5,161.5C 86.3487,159.191 87.182,157.524 90,156.5C 90.7648,156.57 91.2648,156.903 91.5,157.5C 90.4893,161.856 88.6559,165.856 86,169.5C 83.1192,171.028 80.7859,170.362 79,167.5C 76.4483,160.5 77.2817,154 81.5,148C 78.7216,146.608 75.7216,146.108 72.5,146.5C 71.036,145.84 69.3693,145.507 67.5,145.5C 65.3587,145.613 63.5253,146.28 62,147.5C 61.6758,145.431 60.8425,145.098 59.5,146.5C 58.8333,145.833 58.1667,145.167 57.5,144.5C 56.5345,146.384 54.7012,148.05 52,149.5C 51.5,149.167 51,148.833 50.5,148.5C 51.727,147.41 52.5604,146.076 53,144.5C 54.3988,143.773 55.8988,143.273 57.5,143C 55.7096,140.509 53.5429,138.342 51,136.5C 50.2496,137.126 49.4162,137.626 48.5,138C 50.1554,139.444 50.822,141.278 50.5,143.5C 49.5,143.5 48.5,143.5 47.5,143.5C 47.6567,142.127 47.49,140.793 47,139.5C 46.586,139.957 46.086,140.291 45.5,140.5C 44.5159,137.572 44.1826,134.572 44.5,131.5C 44.7329,129.938 45.3995,128.605 46.5,127.5C 51.8171,122.614 58.1504,120.281 65.5,120.5 Z"/></g>
<g><path style="opacity:1" fill="#724a12" d="M 111.5,143.5 C 113.727,147.916 114.061,152.583 112.5,157.5C 111.85,157.804 111.183,158.137 110.5,158.5C 107.36,156.527 104.36,154.36 101.5,152C 102.167,151.667 102.833,151.333 103.5,151C 95.9387,143.86 88.6054,136.527 81.5,129C 80.0494,129.263 78.7161,129.096 77.5,128.5C 80.0392,125.851 80.0392,123.184 77.5,120.5C 77.8555,119.478 78.5222,118.811 79.5,118.5C 79.56,119.043 79.8933,119.376 80.5,119.5C 81.8498,118.05 83.5165,117.383 85.5,117.5C 85.687,119.564 86.187,121.564 87,123.5C 89.4117,126.711 92.0784,129.711 95,132.5C 95.5056,137.276 97.839,140.943 102,143.5C 103.059,143.37 103.892,142.87 104.5,142C 102.957,140.122 101.124,138.622 99,137.5C 98.51,136.207 98.3433,134.873 98.5,133.5C 100.144,133.286 101.644,133.62 103,134.5C 106.371,138.442 109.037,142.442 111,146.5C 111.483,145.552 111.649,144.552 111.5,143.5 Z"/></g>
<g><path style="opacity:1" fill="#64410e" d="M 79.5,115.5 C 79.5,116.5 79.5,117.5 79.5,118.5C 78.5222,118.811 77.8555,119.478 77.5,120.5C 80.0392,123.184 80.0392,125.851 77.5,128.5C 78.7161,129.096 80.0494,129.263 81.5,129C 88.6054,136.527 95.9387,143.86 103.5,151C 102.833,151.333 102.167,151.667 101.5,152C 104.36,154.36 107.36,156.527 110.5,158.5C 111.183,158.137 111.85,157.804 112.5,157.5C 112.5,158.167 112.5,158.833 112.5,159.5C 110.887,159.944 109.72,160.944 109,162.5C 108.517,161.552 108.351,160.552 108.5,159.5C 106.473,159.662 104.473,159.495 102.5,159C 100.14,156.395 97.6396,153.895 95,151.5C 94.6667,152.167 94.3333,152.833 94,153.5C 92.7652,149.035 90.0985,145.702 86,143.5C 85.6541,141.152 84.4875,139.319 82.5,138C 80.0481,137.71 77.7148,137.044 75.5,136C 76.056,135.617 76.3893,135.117 76.5,134.5C 76.8652,132.412 76.8652,130.079 76.5,127.5C 73.4816,127.665 70.4816,127.498 67.5,127C 65.508,126.426 64.008,125.259 63,123.5C 61.9505,124.517 60.7839,124.684 59.5,124C 63.2318,122.031 67.2318,121.031 71.5,121C 69.5273,120.505 67.5273,120.338 65.5,120.5C 70.5197,120.047 75.1863,118.381 79.5,115.5 Z"/></g>
<g><path style="opacity:1" fill="#eeead6" d="M 265.5,127.5 C 265.5,128.167 265.5,128.833 265.5,129.5C 265.657,130.873 265.49,132.207 265,133.5C 262.713,130.538 259.88,128.371 256.5,127C 248.16,125.735 240.16,126.569 232.5,129.5C 232.821,127.952 233.821,127.285 235.5,127.5C 235.147,125.365 235.98,124.032 238,123.5C 244.797,124.279 251.63,124.779 258.5,125C 260.303,127.103 262.636,127.936 265.5,127.5 Z"/></g>
<g><path style="opacity:1" fill="#7f5b18" d="M 105.5,132.5 C 108.377,135.705 110.377,139.371 111.5,143.5C 111.649,144.552 111.483,145.552 111,146.5C 109.037,142.442 106.371,138.442 103,134.5C 101.644,133.62 100.144,133.286 98.5,133.5C 98.3433,134.873 98.51,136.207 99,137.5C 101.124,138.622 102.957,140.122 104.5,142C 103.892,142.87 103.059,143.37 102,143.5C 97.839,140.943 95.5056,137.276 95,132.5C 92.0784,129.711 89.4117,126.711 87,123.5C 86.187,121.564 85.687,119.564 85.5,117.5C 83.5165,117.383 81.8498,118.05 80.5,119.5C 79.8933,119.376 79.56,119.043 79.5,118.5C 79.5,117.5 79.5,116.5 79.5,115.5C 82.8407,110.11 87.5074,108.11 93.5,109.5C 90.6745,113.392 89.8412,117.725 91,122.5C 95.7137,126.054 100.547,129.387 105.5,132.5 Z"/></g>
<g><path style="opacity:1" fill="#3e2d09" d="M 265.5,129.5 C 269.514,127.666 273.847,126.999 278.5,127.5C 278.5,144.833 278.5,162.167 278.5,179.5C 274.167,179.5 269.833,179.5 265.5,179.5C 265.663,177.143 265.497,174.81 265,172.5C 262.651,175.926 259.484,178.26 255.5,179.5C 258.579,177.151 261.246,174.318 263.5,171C 262.256,170.544 261.423,171.044 261,172.5C 260.091,170.342 259.925,168.342 260.5,166.5C 261.391,164.391 262.558,162.391 264,160.5C 267.359,144.202 260.859,136.702 244.5,138C 239.721,139.795 236.388,142.962 234.5,147.5C 235.466,141.634 234.8,135.968 232.5,130.5C 232.5,130.167 232.5,129.833 232.5,129.5C 240.16,126.569 248.16,125.735 256.5,127C 259.88,128.371 262.713,130.538 265,133.5C 265.49,132.207 265.657,130.873 265.5,129.5 Z"/></g>
<g><path style="opacity:1" fill="#f3f1e4" d="M 66.5,128.5 C 69.1873,128.336 71.854,128.503 74.5,129C 75.5171,130.049 75.6838,131.216 75,132.5C 70.8345,136.027 66.0011,137.36 60.5,136.5C 60.2148,134.712 60.5481,133.045 61.5,131.5C 63.3964,130.725 65.063,129.725 66.5,128.5 Z"/></g>
<g><path style="opacity:1" fill="#6c5412" d="M 203.5,126.5 C 208.695,127.129 213.029,129.462 216.5,133.5C 215.09,134.569 214.09,135.903 213.5,137.5C 211.852,138.81 210.186,140.143 208.5,141.5C 203.355,137.622 197.689,136.622 191.5,138.5C 195.213,136.973 199.213,135.973 203.5,135.5C 201.016,134.106 201.016,132.606 203.5,131C 203.167,130.5 202.833,130 202.5,129.5C 200.556,128.811 198.556,128.311 196.5,128C 198.866,127.56 201.199,127.06 203.5,126.5 Z"/></g>
<g><path style="opacity:1" fill="#8d6e11" d="M 203.5,126.5 C 201.199,127.06 198.866,127.56 196.5,128C 198.556,128.311 200.556,128.811 202.5,129.5C 202.833,130 203.167,130.5 203.5,131C 201.016,132.606 201.016,134.106 203.5,135.5C 199.213,135.973 195.213,136.973 191.5,138.5C 191.158,139.338 190.492,139.672 189.5,139.5C 189.724,137.213 190.391,135.047 191.5,133C 191.167,132.5 190.833,132 190.5,131.5C 189.264,132.246 187.93,132.579 186.5,132.5C 186.473,130.801 185.806,129.467 184.5,128.5C 190.704,125.568 197.037,124.902 203.5,126.5 Z"/></g>
<g><path style="opacity:1" fill="#caab32" d="M 178.5,132.5 C 179.5,132.5 180.5,132.5 181.5,132.5C 183.64,135.797 184.973,139.464 185.5,143.5C 185.167,143.5 184.833,143.5 184.5,143.5C 184.586,142.504 184.252,141.671 183.5,141C 180.785,140.122 178.451,138.622 176.5,136.5C 174.459,137.707 173.126,139.374 172.5,141.5C 172.744,137.348 174.744,134.348 178.5,132.5 Z"/></g>
<g><path style="opacity:1" fill="#ad8a19" d="M 184.5,128.5 C 185.806,129.467 186.473,130.801 186.5,132.5C 187.93,132.579 189.264,132.246 190.5,131.5C 190.833,132 191.167,132.5 191.5,133C 190.391,135.047 189.724,137.213 189.5,139.5C 188.5,141.167 187.167,142.5 185.5,143.5C 184.973,139.464 183.64,135.797 181.5,132.5C 180.5,132.5 179.5,132.5 178.5,132.5C 178.833,131.833 179.167,131.167 179.5,130.5C 181.167,129.833 182.833,129.167 184.5,128.5 Z"/></g>
<g><path style="opacity:1" fill="#59430c" d="M 232.5,130.5 C 234.8,135.968 235.466,141.634 234.5,147.5C 234.5,148.5 234.5,149.5 234.5,150.5C 233.732,151.263 233.232,152.263 233,153.5C 232.174,150.207 231.674,146.874 231.5,143.5C 228.5,143.5 225.5,143.5 222.5,143.5C 223.287,140.592 224.62,137.926 226.5,135.5C 228.202,133.463 230.202,131.797 232.5,130.5 Z"/></g>
<g><path style="opacity:1" fill="#f4f4f1" d="M 260.5,166.5 C 258.176,167.656 255.843,168.656 253.5,169.5C 246.318,170.449 240.651,168.116 236.5,162.5C 234.748,158.773 234.081,154.773 234.5,150.5C 234.5,149.5 234.5,148.5 234.5,147.5C 236.388,142.962 239.721,139.795 244.5,138C 260.859,136.702 267.359,144.202 264,160.5C 262.558,162.391 261.391,164.391 260.5,166.5 Z"/></g>
<g><path style="opacity:1" fill="#3c2b0b" d="M 44.5,131.5 C 44.1826,134.572 44.5159,137.572 45.5,140.5C 46.086,140.291 46.586,139.957 47,139.5C 47.49,140.793 47.6567,142.127 47.5,143.5C 48.5,143.5 49.5,143.5 50.5,143.5C 50.822,141.278 50.1554,139.444 48.5,138C 49.4162,137.626 50.2496,137.126 51,136.5C 53.5429,138.342 55.7096,140.509 57.5,143C 55.8988,143.273 54.3988,143.773 53,144.5C 52.5604,146.076 51.727,147.41 50.5,148.5C 51,148.833 51.5,149.167 52,149.5C 54.7012,148.05 56.5345,146.384 57.5,144.5C 58.1667,145.167 58.8333,145.833 59.5,146.5C 60.8425,145.098 61.6758,145.431 62,147.5C 63.5253,146.28 65.3587,145.613 67.5,145.5C 69.3693,145.507 71.036,145.84 72.5,146.5C 64.2418,148.127 56.2418,150.627 48.5,154C 42.4137,154.933 39.7471,152.266 40.5,146C 40.5765,140.72 41.9099,135.887 44.5,131.5 Z"/></g>
<g><path style="opacity:1" fill="#54380a" d="M 76.5,134.5 C 76.3893,135.117 76.056,135.617 75.5,136C 77.7148,137.044 80.0481,137.71 82.5,138C 84.4875,139.319 85.6541,141.152 86,143.5C 90.0985,145.702 92.7652,149.035 94,153.5C 94.3333,152.833 94.6667,152.167 95,151.5C 97.6396,153.895 100.14,156.395 102.5,159C 104.473,159.495 106.473,159.662 108.5,159.5C 108.351,160.552 108.517,161.552 109,162.5C 109.72,160.944 110.887,159.944 112.5,159.5C 112.167,160.833 111.833,162.167 111.5,163.5C 110.675,165.81 109.342,167.81 107.5,169.5C 104.052,170.02 102.386,172.02 102.5,175.5C 99.1909,175.692 96.6909,174.359 95,171.5C 94.3486,173.235 94.5153,174.902 95.5,176.5C 94.6063,176.517 93.6063,176.851 92.5,177.5C 92.5,176.833 92.5,176.167 92.5,175.5C 92.9453,169.972 93.2786,164.306 93.5,158.5C 93.3333,157.5 93.1667,156.5 93,155.5C 92.7216,156.416 92.2216,157.082 91.5,157.5C 91.2648,156.903 90.7648,156.57 90,156.5C 87.182,157.524 86.3487,159.191 87.5,161.5C 86.0267,165.548 84.6933,165.381 83.5,161C 80.5888,160.353 79.2555,158.519 79.5,155.5C 80.7169,152.933 82.3835,150.6 84.5,148.5C 84,147.5 83.5,146.5 83,145.5C 77.103,141.705 70.603,140.038 63.5,140.5C 63.5,139.5 63.5,138.5 63.5,137.5C 66.8984,137.82 70.2317,137.487 73.5,136.5C 74.0047,135.081 75.0047,134.415 76.5,134.5 Z"/></g>
<g><path style="opacity:1" fill="#f3f3ed" d="M 226.5,135.5 C 224.62,137.926 223.287,140.592 222.5,143.5C 221.194,149.599 221.194,155.599 222.5,161.5C 223.647,170.156 228.313,175.822 236.5,178.5C 236.918,179.222 237.584,179.722 238.5,180C 244.249,180.785 249.916,180.618 255.5,179.5C 259.484,178.26 262.651,175.926 265,172.5C 265.497,174.81 265.663,177.143 265.5,179.5C 269.833,179.5 274.167,179.5 278.5,179.5C 275.576,180.366 272.576,181.366 269.5,182.5C 267.682,181.364 265.682,180.697 263.5,180.5C 260.86,181.095 258.193,181.428 255.5,181.5C 255.5,182.5 255.5,183.5 255.5,184.5C 249.552,186.117 243.718,185.783 238,183.5C 233.796,186.953 229.296,187.287 224.5,184.5C 223.614,183.675 223.281,182.675 223.5,181.5C 234.078,180.746 234.078,179.579 223.5,178C 218.616,177.228 213.949,177.728 209.5,179.5C 211.662,178.872 213.328,177.539 214.5,175.5C 217.076,175.278 217.91,173.945 217,171.5C 214.643,168.81 211.977,166.477 209,164.5C 203.594,167.635 197.76,168.968 191.5,168.5C 188.833,165.5 186.167,162.5 183.5,159.5C 183.353,154.786 183.686,150.119 184.5,145.5C 184.5,144.833 184.5,144.167 184.5,143.5C 184.833,143.5 185.167,143.5 185.5,143.5C 187.167,142.5 188.5,141.167 189.5,139.5C 190.492,139.672 191.158,139.338 191.5,138.5C 197.689,136.622 203.355,137.622 208.5,141.5C 210.186,140.143 211.852,138.81 213.5,137.5C 211.752,140.176 212.419,142.009 215.5,143C 213.58,148.197 212.913,153.697 213.5,159.5C 214.5,159.5 215.5,159.5 216.5,159.5C 216.172,154.125 216.505,148.792 217.5,143.5C 218.167,144.833 218.833,146.167 219.5,147.5C 219.629,144.197 219.963,140.863 220.5,137.5C 222.323,136.253 224.323,135.586 226.5,135.5 Z"/></g>
<g><path style="opacity:1" fill="#cfb15a" d="M 171.5,141.5 C 171.5,147.5 171.5,153.5 171.5,159.5C 171.5,160.5 171.5,161.5 171.5,162.5C 170.732,161.737 170.232,160.737 170,159.5C 169.501,154.845 169.334,150.179 169.5,145.5C 170.167,144.167 170.833,142.833 171.5,141.5 Z"/></g>
<g><path style="opacity:1" fill="#715511" d="M 222.5,143.5 C 225.5,143.5 228.5,143.5 231.5,143.5C 231.674,146.874 232.174,150.207 233,153.5C 233.232,152.263 233.732,151.263 234.5,150.5C 234.081,154.773 234.748,158.773 236.5,162.5C 235.292,161.766 233.959,161.433 232.5,161.5C 232.66,159.801 232.494,158.134 232,156.5C 228.886,154.263 226.219,151.597 224,148.5C 222.569,152.635 222.069,156.968 222.5,161.5C 221.194,155.599 221.194,149.599 222.5,143.5 Z"/></g>
<g><path style="opacity:1" fill="#cbad74" d="M 184.5,145.5 C 183.686,150.119 183.353,154.786 183.5,159.5C 182.838,157.696 182.505,155.696 182.5,153.5C 182.287,150.473 182.953,147.807 184.5,145.5 Z"/></g>
<g><path style="opacity:1" fill="#f3f1ea" d="M 46.5,127.5 C 45.3995,128.605 44.7329,129.938 44.5,131.5C 41.9099,135.887 40.5765,140.72 40.5,146C 39.7471,152.266 42.4137,154.933 48.5,154C 56.2418,150.627 64.2418,148.127 72.5,146.5C 75.7216,146.108 78.7216,146.608 81.5,148C 77.2817,154 76.4483,160.5 79,167.5C 80.7859,170.362 83.1192,171.028 86,169.5C 88.6559,165.856 90.4893,161.856 91.5,157.5C 92.2216,157.082 92.7216,156.416 93,155.5C 93.1667,156.5 93.3333,157.5 93.5,158.5C 93.2786,164.306 92.9453,169.972 92.5,175.5C 92.6641,172.813 92.4974,170.146 92,167.5C 91.586,167.043 91.086,166.709 90.5,166.5C 89.218,168.179 88.218,170.013 87.5,172C 85.1893,171.845 82.856,171.845 80.5,172C 79.9288,173.205 79.2621,174.372 78.5,175.5C 75.928,168.758 74.928,161.758 75.5,154.5C 73.712,154.215 72.0453,154.548 70.5,155.5C 71.1667,159.167 71.8333,162.833 72.5,166.5C 71.3063,167.799 70.3063,169.132 69.5,170.5C 69.6655,166.486 69.4988,162.486 69,158.5C 56.3742,157.691 52.5408,163.357 57.5,175.5C 55.6994,174.242 54.1994,172.576 53,170.5C 52.5499,166.812 52.7166,163.146 53.5,159.5C 51.2341,159.141 49.4007,159.808 48,161.5C 48.3878,155.684 46.3878,154.351 42,157.5C 38.6065,155.358 37.1065,152.191 37.5,148C 38.1978,143.189 38.5312,138.356 38.5,133.5C 42.0681,133.241 43.4015,131.241 42.5,127.5C 43.8333,127.5 45.1667,127.5 46.5,127.5 Z"/></g>
<g><path style="opacity:1" fill="#f3f5ee" d="M 179.5,130.5 C 179.167,131.167 178.833,131.833 178.5,132.5C 174.744,134.348 172.744,137.348 172.5,141.5C 172.167,141.5 171.833,141.5 171.5,141.5C 170.833,142.833 170.167,144.167 169.5,145.5C 169.179,143.952 168.179,143.285 166.5,143.5C 166.879,140.433 165.879,139.433 163.5,140.5C 164.167,138.5 164.833,136.5 165.5,134.5C 167.351,133.134 167.684,131.467 166.5,129.5C 164.235,127.873 161.901,126.539 159.5,125.5C 150.921,125.992 142.088,125.992 133,125.5C 130.705,125.547 128.871,126.213 127.5,127.5C 126.512,132.64 126.179,137.974 126.5,143.5C 126.5,154.167 126.5,164.833 126.5,175.5C 126.5,176.833 126.5,178.167 126.5,179.5C 131.294,180.097 135.627,179.43 139.5,177.5C 139.334,167.828 139.5,158.161 140,148.5C 140.352,146.753 140.852,145.086 141.5,143.5C 142.922,142.075 144.589,141.075 146.5,140.5C 146.092,141.643 145.425,142.643 144.5,143.5C 143.997,155.559 142.997,167.559 141.5,179.5C 145.01,185.661 143.343,187.661 136.5,185.5C 135.921,192.123 133.255,193.123 128.5,188.5C 127.721,185.885 127.721,184.219 128.5,183.5C 126.958,182.253 125.458,182.253 124,183.5C 122.559,180.953 122.059,178.453 122.5,176C 121.854,170.552 121.188,165.052 120.5,159.5C 119.833,164.833 119.167,170.167 118.5,175.5C 117.821,166.274 117.154,157.107 116.5,148C 118.107,146.951 118.773,145.451 118.5,143.5C 117.167,143.5 115.833,143.5 114.5,143.5C 114.666,151.507 114.5,159.507 114,167.5C 113.392,165.934 112.558,164.6 111.5,163.5C 111.833,162.167 112.167,160.833 112.5,159.5C 112.5,158.833 112.5,158.167 112.5,157.5C 114.061,152.583 113.727,147.916 111.5,143.5C 110.377,139.371 108.377,135.705 105.5,132.5C 106.583,132.539 107.583,132.873 108.5,133.5C 109.167,132.5 109.833,131.5 110.5,130.5C 111.185,132.781 111.351,135.114 111,137.5C 112.091,134.245 113.091,130.911 114,127.5C 114.231,131.584 114.898,135.584 116,139.5C 116.143,135.381 116.81,131.381 118,127.5C 118.361,132.914 119.194,138.248 120.5,143.5C 121.806,137.946 121.806,132.446 120.5,127C 121.453,125.045 122.787,123.378 124.5,122C 134.135,120.963 143.635,121.463 153,123.5C 155.564,122.218 158.231,121.218 161,120.5C 161.5,120.833 162,121.167 162.5,121.5C 161.289,122.72 161.289,123.887 162.5,125C 164.936,125.93 167.269,127.097 169.5,128.5C 170.167,128.167 170.833,127.833 171.5,127.5C 173.917,129.107 176.584,130.107 179.5,130.5 Z"/></g>
<g><path style="opacity:1" fill="#b99c40" d="M 165.5,134.5 C 164.833,136.5 164.167,138.5 163.5,140.5C 161.737,141.954 160.403,141.62 159.5,139.5C 160.791,139.737 161.791,139.404 162.5,138.5C 162.468,136.381 163.468,135.048 165.5,134.5 Z"/></g>
<g><path style="opacity:1" fill="#ebc321" d="M 165.5,134.5 C 163.468,135.048 162.468,136.381 162.5,138.5C 159.995,138.02 157.662,137.02 155.5,135.5C 154.614,134.675 154.281,133.675 154.5,132.5C 143.672,132.874 143.006,130.874 152.5,126.5C 156.963,127.102 161.296,128.102 165.5,129.5C 165.5,131.167 165.5,132.833 165.5,134.5 Z"/></g>
<g><path style="opacity:1" fill="#deb933" d="M 159.5,125.5 C 161.901,126.539 164.235,127.873 166.5,129.5C 167.684,131.467 167.351,133.134 165.5,134.5C 165.5,132.833 165.5,131.167 165.5,129.5C 161.296,128.102 156.963,127.102 152.5,126.5C 143.006,130.874 143.672,132.874 154.5,132.5C 154.281,133.675 154.614,134.675 155.5,135.5C 157.662,137.02 159.995,138.02 162.5,138.5C 161.791,139.404 160.791,139.737 159.5,139.5C 158.209,139.737 157.209,139.404 156.5,138.5C 152.276,137.177 147.943,135.844 143.5,134.5C 142.147,133.476 141.48,132.143 141.5,130.5C 146.597,125.989 152.597,124.322 159.5,125.5 Z"/></g>
<g><path style="opacity:1" fill="#ba9121" d="M 127.5,127.5 C 131.182,127.335 134.848,127.501 138.5,128C 139.191,129.067 139.691,130.234 140,131.5C 140.383,130.944 140.883,130.611 141.5,130.5C 141.48,132.143 142.147,133.476 143.5,134.5C 147.943,135.844 152.276,137.177 156.5,138.5C 153.813,138.336 151.146,138.503 148.5,139C 147.584,139.278 146.918,139.778 146.5,140.5C 144.589,141.075 142.922,142.075 141.5,143.5C 140.022,144.448 139.022,145.781 138.5,147.5C 137.883,147.611 137.383,147.944 137,148.5C 136.506,146.866 136.34,145.199 136.5,143.5C 134.857,143.52 133.524,142.853 132.5,141.5C 131.833,142.167 131.167,142.833 130.5,143.5C 127.93,138.49 126.93,133.157 127.5,127.5 Z"/></g>
<g><path style="opacity:1" fill="#f0e9b8" d="M 159.5,125.5 C 152.597,124.322 146.597,125.989 141.5,130.5C 140.883,130.611 140.383,130.944 140,131.5C 139.691,130.234 139.191,129.067 138.5,128C 134.848,127.501 131.182,127.335 127.5,127.5C 128.871,126.213 130.705,125.547 133,125.5C 142.088,125.992 150.921,125.992 159.5,125.5 Z"/></g>
<g><path style="opacity:1" fill="#86670e" d="M 236.5,162.5 C 240.651,168.116 246.318,170.449 253.5,169.5C 251.369,170.314 249.036,170.814 246.5,171C 248.246,171.471 249.913,172.138 251.5,173C 249.285,173.17 247.285,173.837 245.5,175C 248.408,175.689 251.075,176.855 253.5,178.5C 247.827,179.69 242.16,179.69 236.5,178.5C 228.313,175.822 223.647,170.156 222.5,161.5C 222.069,156.968 222.569,152.635 224,148.5C 226.219,151.597 228.886,154.263 232,156.5C 232.494,158.134 232.66,159.801 232.5,161.5C 233.959,161.433 235.292,161.766 236.5,162.5 Z"/></g>
<g><path style="opacity:1" fill="#956c18" d="M 127.5,127.5 C 126.93,133.157 127.93,138.49 130.5,143.5C 131.167,142.833 131.833,142.167 132.5,141.5C 133.524,142.853 134.857,143.52 136.5,143.5C 136.34,145.199 136.506,146.866 137,148.5C 137.383,147.944 137.883,147.611 138.5,147.5C 138.5,150.5 138.5,153.5 138.5,156.5C 137.224,158.562 136.39,160.896 136,163.5C 135.51,162.207 135.343,160.873 135.5,159.5C 133.5,159.5 131.5,159.5 129.5,159.5C 129.715,157.821 129.048,156.821 127.5,156.5C 127.818,151.968 127.485,147.634 126.5,143.5C 126.179,137.974 126.512,132.64 127.5,127.5 Z"/></g>
<g><path style="opacity:1" fill="#392a0b" d="M 69.5,170.5 C 68.1947,178.689 64.1947,180.355 57.5,175.5C 52.5408,163.357 56.3742,157.691 69,158.5C 69.4988,162.486 69.6655,166.486 69.5,170.5 Z"/></g>
<g><path style="opacity:1" fill="#72511e" d="M 126.5,143.5 C 127.485,147.634 127.818,151.968 127.5,156.5C 128.425,163.131 129.425,169.797 130.5,176.5C 132.467,176.261 134.301,176.594 136,177.5C 136.667,176.833 137.333,176.167 138,175.5C 138.5,169.175 138.666,162.842 138.5,156.5C 138.5,153.5 138.5,150.5 138.5,147.5C 139.022,145.781 140.022,144.448 141.5,143.5C 140.852,145.086 140.352,146.753 140,148.5C 139.5,158.161 139.334,167.828 139.5,177.5C 135.6,178.43 131.6,178.763 127.5,178.5C 127.737,177.209 127.404,176.209 126.5,175.5C 126.5,164.833 126.5,154.167 126.5,143.5 Z"/></g>
<g><path style="opacity:1" fill="#7c5211" d="M 127.5,156.5 C 129.048,156.821 129.715,157.821 129.5,159.5C 131.5,159.5 133.5,159.5 135.5,159.5C 135.343,160.873 135.51,162.207 136,163.5C 136.39,160.896 137.224,158.562 138.5,156.5C 138.666,162.842 138.5,169.175 138,175.5C 137.333,176.167 136.667,176.833 136,177.5C 134.301,176.594 132.467,176.261 130.5,176.5C 129.425,169.797 128.425,163.131 127.5,156.5 Z"/></g>
<g><path style="opacity:1" fill="#9a8044" d="M 174.5,169.5 C 178.5,173.827 183.167,177.161 188.5,179.5C 182.038,178.609 177.371,175.275 174.5,169.5 Z"/></g>
<g><path style="opacity:1" fill="#eabe25" d="M 184.5,143.5 C 184.5,144.167 184.5,144.833 184.5,145.5C 182.953,147.807 182.287,150.473 182.5,153.5C 182.505,155.696 182.838,157.696 183.5,159.5C 186.167,162.5 188.833,165.5 191.5,168.5C 193.978,169.164 196.645,169.497 199.5,169.5C 202.819,169.359 205.986,168.693 209,167.5C 211.452,168.785 212.952,170.785 213.5,173.5C 212.5,173.5 211.5,173.5 210.5,173.5C 210.5,174.833 210.5,176.167 210.5,177.5C 206.21,178.425 201.876,179.091 197.5,179.5C 195.786,178.262 193.786,177.595 191.5,177.5C 190.097,173.695 188.43,170.028 186.5,166.5C 183.899,167.28 181.899,168.946 180.5,171.5C 179.065,170.176 178.065,168.51 177.5,166.5C 176.575,165.359 175.741,165.359 175,166.5C 174.578,164.645 174.078,162.811 173.5,161C 173.164,159.97 172.497,159.47 171.5,159.5C 171.5,153.5 171.5,147.5 171.5,141.5C 171.833,141.5 172.167,141.5 172.5,141.5C 173.126,139.374 174.459,137.707 176.5,136.5C 178.451,138.622 180.785,140.122 183.5,141C 184.252,141.671 184.586,142.504 184.5,143.5 Z"/></g>
<g><path style="opacity:1" fill="#674e0c" d="M 260.5,166.5 C 259.925,168.342 260.091,170.342 261,172.5C 261.423,171.044 262.256,170.544 263.5,171C 261.246,174.318 258.579,177.151 255.5,179.5C 249.916,180.618 244.249,180.785 238.5,180C 237.584,179.722 236.918,179.222 236.5,178.5C 242.16,179.69 247.827,179.69 253.5,178.5C 251.075,176.855 248.408,175.689 245.5,175C 247.285,173.837 249.285,173.17 251.5,173C 249.913,172.138 248.246,171.471 246.5,171C 249.036,170.814 251.369,170.314 253.5,169.5C 255.843,168.656 258.176,167.656 260.5,166.5 Z"/></g>
<g><path style="opacity:1" fill="#d4b940" d="M 214.5,175.5 C 212.938,175.733 211.605,176.4 210.5,177.5C 210.5,176.167 210.5,174.833 210.5,173.5C 211.5,173.5 212.5,173.5 213.5,173.5C 212.952,170.785 211.452,168.785 209,167.5C 205.986,168.693 202.819,169.359 199.5,169.5C 196.645,169.497 193.978,169.164 191.5,168.5C 197.76,168.968 203.594,167.635 209,164.5C 211.977,166.477 214.643,168.81 217,171.5C 217.91,173.945 217.076,175.278 214.5,175.5 Z"/></g>
<g><path style="opacity:1" fill="#d8ab26" d="M 171.5,159.5 C 172.497,159.47 173.164,159.97 173.5,161C 174.078,162.811 174.578,164.645 175,166.5C 175.741,165.359 176.575,165.359 177.5,166.5C 178.065,168.51 179.065,170.176 180.5,171.5C 181.899,168.946 183.899,167.28 186.5,166.5C 188.43,170.028 190.097,173.695 191.5,177.5C 193.786,177.595 195.786,178.262 197.5,179.5C 194.5,179.5 191.5,179.5 188.5,179.5C 183.167,177.161 178.5,173.827 174.5,169.5C 172.552,167.68 171.552,165.346 171.5,162.5C 171.5,161.5 171.5,160.5 171.5,159.5 Z"/></g>
<g><path style="opacity:1" fill="#3e2e14" d="M 126.5,175.5 C 127.404,176.209 127.737,177.209 127.5,178.5C 131.6,178.763 135.6,178.43 139.5,177.5C 135.627,179.43 131.294,180.097 126.5,179.5C 126.5,178.167 126.5,176.833 126.5,175.5 Z"/></g>
<g><path style="opacity:1" fill="#b29548" d="M 214.5,175.5 C 213.328,177.539 211.662,178.872 209.5,179.5C 205.409,180.563 201.242,181.23 197,181.5C 193.85,181.64 191.017,180.973 188.5,179.5C 191.5,179.5 194.5,179.5 197.5,179.5C 201.876,179.091 206.21,178.425 210.5,177.5C 211.605,176.4 212.938,175.733 214.5,175.5 Z"/></g>
<g><path style="opacity:1" fill="#e7e4d1" d="M 92.5,175.5 C 92.5,176.167 92.5,176.833 92.5,177.5C 91.6246,180.541 89.6246,182.375 86.5,183C 81.0233,181.3 75.3566,180.633 69.5,181C 67.6298,183.04 65.6298,184.873 63.5,186.5C 64.516,183.949 66.1826,181.782 68.5,180C 75.874,180.186 83.2073,180.019 90.5,179.5C 90.1568,177.517 90.8235,176.183 92.5,175.5 Z"/></g>
<g><path style="opacity:1" fill="#3a2a09" d="M 107.5,169.5 C 103.091,177.301 97.9239,184.634 92,191.5C 91.8272,196.584 91.1606,201.584 90,206.5C 87.7146,209.892 84.548,211.559 80.5,211.5C 81.5625,201.782 78.0625,194.448 70,189.5C 68.0654,190.518 66.2321,191.352 64.5,192C 63.5939,190.301 63.2606,188.467 63.5,186.5C 65.6298,184.873 67.6298,183.04 69.5,181C 75.3566,180.633 81.0233,181.3 86.5,183C 89.6246,182.375 91.6246,180.541 92.5,177.5C 93.6063,176.851 94.6063,176.517 95.5,176.5C 94.5153,174.902 94.3486,173.235 95,171.5C 96.6909,174.359 99.1909,175.692 102.5,175.5C 102.386,172.02 104.052,170.02 107.5,169.5 Z"/></g>
</svg>
