<?xml version="1.0"?><svg xmlns="http://www.w3.org/2000/svg" width="36" height="36" shape-rendering="geometricPrecision" text-rendering="geometricPrecision" image-rendering="optimizeQuality" fill-rule="evenodd" clip-rule="evenodd" viewBox="0 0 36 36"><path fill="#f4f4f4" d="m-0.1-0.1h36v36h-36v-36z"></path><path fill="#808466" d="m31.3 14.3c-0.5 0-1 0.1-1.4 0.3v-0.3c0.5-0.1 0.9-0.1 1.4 0z"></path><path fill="#4b340d" d="m7.4 13.6c0.2-0.1 0.4 0 0.6 0-0.4 0-0.9 0.1-1.3 0.4 0.1 0 0.3 0 0.4-0.1 0.1 0.2 0.3 0.3 0.5 0.4 0.3 0 0.7 0.1 1 0 0 0.3 0 0.6 0 0.8-0.2 0-0.3 0.1-0.3 0.3-0.4 0.1-0.8 0.1-1.2 0.1v0.3c0.8 0 1.6 0.1 2.2 0.6l0.2 0.3c-0.2 0.2-0.4 0.5-0.6 0.8 0 0.3 0.2 0.5 0.5 0.6 0.1 0.5 0.3 0.5 0.4 0.1-0.1-0.3 0-0.5 0.3-0.6 0.1 0 0.2 0.1 0.2 0.1-0.1 0.5-0.3 1-0.6 1.4-0.3 0.1-0.6 0.1-0.8-0.3-0.3-0.7-0.2-1.5 0.3-2.2-0.3-0.1-0.7-0.2-1-0.1-0.2-0.1-0.4-0.1-0.6-0.1-0.2 0-0.5 0.1-0.6 0.2-0.1-0.2-0.2-0.3-0.3-0.1l-0.2-0.2c-0.1 0.2-0.3 0.4-0.7 0.5l-0.1-0.1c0.1-0.1 0.2-0.3 0.3-0.4 0.1-0.1 0.3-0.2 0.5-0.2-0.2-0.3-0.5-0.5-0.8-0.7 0 0-0.1 0.1-0.2 0.1 0.1 0.2 0.2 0.4 0.2 0.6h-0.4c0.1-0.1 0-0.3 0-0.4-0.1 0-0.1 0.1-0.2 0.1-0.1-0.3-0.1-0.7-0.1-1 0-0.2 0.1-0.3 0.2-0.5 0.6-0.5 1.3-0.8 2.2-0.7z"></path><path fill="#724a12" d="m12.5 16.1c0.3 0.5 0.3 1.1 0.2 1.6-0.1 0.1-0.2 0.1-0.3 0.1-0.3-0.2-0.7-0.4-1-0.7l0.2-0.1c-0.8-0.8-1.6-1.6-2.4-2.5-0.2 0-0.3 0-0.5 0 0.3-0.3 0.3-0.6 0-0.9 0.1-0.2 0.1-0.2 0.2-0.3 0.1 0.1 0.1 0.1 0.2 0.1 0.1-0.1 0.3-0.2 0.5-0.2 0 0.3 0.1 0.5 0.2 0.7 0.3 0.4 0.6 0.7 0.9 1 0 0.5 0.3 1 0.8 1.2 0.1 0 0.2 0 0.3-0.1-0.2-0.2-0.4-0.4-0.7-0.5 0-0.2 0-0.3 0-0.5 0.2 0 0.3 0 0.5 0.1 0.4 0.5 0.7 0.9 0.9 1.4 0-0.1 0.1-0.2 0-0.4z"></path><path fill="#64410e" d="m8.9 13v0.3c-0.1 0.1-0.1 0.1-0.2 0.3 0.3 0.3 0.3 0.6 0 0.9 0.2 0 0.3 0 0.5 0 0.8 0.9 1.6 1.7 2.4 2.5l-0.2 0.1c0.3 0.3 0.7 0.5 1 0.7 0.1 0 0.2 0 0.3-0.1v0.2c-0.2 0.1-0.4 0.2-0.4 0.4-0.1-0.1-0.1-0.2-0.1-0.4-0.2 0.1-0.4 0-0.7 0-0.2-0.3-0.5-0.6-0.8-0.9l-0.1 0.3c-0.2-0.5-0.5-0.9-0.9-1.2-0.1-0.2-0.2-0.4-0.4-0.6-0.3 0-0.6-0.1-0.8-0.2 0.1 0 0.1-0.1 0.1-0.2 0-0.2 0-0.5 0-0.8-0.3 0.1-0.7 0-1 0-0.2-0.1-0.4-0.2-0.5-0.4-0.1 0.1-0.3 0.1-0.4 0.1 0.4-0.3 0.9-0.4 1.3-0.4-0.2 0-0.4-0.1-0.6 0 0.5-0.1 1.1-0.3 1.5-0.6z"></path><path fill="#eeead6" d="m29.9 14.3v0.3c0 0.1 0 0.3-0.1 0.4-0.2-0.3-0.6-0.6-0.9-0.7-1-0.2-1.9-0.1-2.7 0.3 0-0.2 0.1-0.3 0.3-0.3 0-0.2 0-0.3 0.3-0.4 0.7 0.1 1.5 0.1 2.3 0.2 0.2 0.2 0.4 0.3 0.8 0.2z"></path><path fill="#7f5b18" d="m11.9 14.9c0.3 0.4 0.5 0.8 0.6 1.2 0.1 0.2 0 0.3 0 0.4-0.2-0.5-0.5-0.9-0.9-1.4-0.2-0.1-0.3-0.1-0.5-0.1 0 0.2 0 0.3 0 0.5 0.3 0.1 0.5 0.3 0.7 0.5-0.1 0.1-0.2 0.1-0.3 0.1-0.5-0.2-0.8-0.7-0.8-1.2-0.3-0.3-0.6-0.6-0.9-1-0.1-0.2-0.2-0.4-0.2-0.7-0.2 0-0.4 0.1-0.5 0.2-0.1 0-0.1 0-0.2-0.1v-0.3c0.4-0.6 0.9-0.8 1.6-0.7-0.3 0.5-0.4 0.9-0.3 1.5 0.6 0.4 1.1 0.8 1.7 1.1z"></path><path fill="#3e2d09" d="m29.9 14.6c0.4-0.2 0.9-0.3 1.4-0.3v5.9h-1.4c0-0.3 0-0.5-0.1-0.8-0.3 0.4-0.6 0.7-1.1 0.8 0.4-0.3 0.7-0.6 0.9-1-0.1 0-0.2 0-0.2 0.2-0.1-0.2-0.2-0.5-0.1-0.7 0.1-0.2 0.2-0.4 0.4-0.6 0.4-1.9-0.4-2.7-2.2-2.6-0.5 0.2-0.9 0.6-1.1 1.1 0.1-0.7 0-1.3-0.2-1.9v-0.1c0.8-0.4 1.7-0.5 2.7-0.3 0.3 0.1 0.7 0.4 0.9 0.7 0.1-0.1 0.1-0.3 0.1-0.4z"></path><path fill="#f3f1e4" d="m7.5 14.5c0.3-0.1 0.6 0 0.9 0 0.1 0.1 0.1 0.3 0 0.4-0.4 0.4-1 0.6-1.6 0.5 0-0.2 0-0.4 0.1-0.6 0.2-0.1 0.4-0.2 0.6-0.3z"></path><path fill="#6c5412" d="m22.9 14.2c0.6 0.1 1.1 0.4 1.5 0.8-0.2 0.1-0.3 0.3-0.4 0.5-0.2 0.1-0.4 0.3-0.5 0.4-0.6-0.4-1.3-0.5-2-0.3 0.5-0.2 0.9-0.3 1.4-0.4-0.3-0.1-0.3-0.3 0-0.5l-0.1-0.1c-0.2-0.1-0.5-0.2-0.7-0.2 0.3 0 0.5-0.1 0.8-0.2z"></path><path fill="#8d6e11" d="m22.9 14.2c-0.3 0.1-0.5 0.2-0.8 0.2 0.2 0 0.5 0.1 0.7 0.2l0.1 0.1c-0.3 0.2-0.3 0.4 0 0.5-0.5 0.1-0.9 0.2-1.4 0.4 0 0.1-0.1 0.1-0.2 0.1 0-0.3 0.1-0.5 0.2-0.7l-0.1-0.2c-0.1 0.1-0.3 0.1-0.4 0.1 0-0.2-0.1-0.3-0.2-0.4 0.7-0.4 1.4-0.4 2.1-0.3z"></path><path fill="#caab32" d="m20.1 14.9h0.3c0.3 0.4 0.4 0.8 0.5 1.2h-0.1c0-0.1-0.1-0.2-0.2-0.2-0.3-0.1-0.5-0.3-0.7-0.5-0.3 0.1-0.4 0.3-0.5 0.5 0-0.4 0.3-0.8 0.7-1z"></path><path fill="#ad8a19" d="m20.8 14.5c0.1 0.1 0.2 0.2 0.2 0.4 0.1 0 0.3 0 0.4-0.1l0.1 0.2c-0.1 0.2-0.2 0.4-0.2 0.7-0.1 0.2-0.2 0.3-0.4 0.4-0.1-0.4-0.2-0.8-0.5-1.2h-0.3l0.1-0.2 0.6-0.2z"></path><path fill="#59430c" d="m26.2 14.7c0.2 0.6 0.3 1.2 0.2 1.9v0.3c-0.1 0.1-0.2 0.2-0.2 0.4-0.1-0.4-0.1-0.8-0.2-1.2h-1c0.1-0.3 0.3-0.6 0.5-0.9 0.2-0.2 0.4-0.4 0.7-0.5z"></path><path fill="#f4f4f1" d="m29.3 18.7c-0.3 0.2-0.5 0.3-0.8 0.4-0.8 0.1-1.4-0.2-1.9-0.8-0.2-0.4-0.3-0.9-0.2-1.4v-0.3c0.2-0.5 0.6-0.9 1.1-1.1 1.8-0.1 2.6 0.7 2.2 2.6-0.2 0.2-0.3 0.4-0.4 0.6z"></path><path fill="#3c2b0b" d="m5 14.8c0 0.3 0 0.7 0.1 1 0.1 0 0.1-0.1 0.2-0.1 0 0.1 0.1 0.3 0 0.4h0.4c0-0.2-0.1-0.4-0.2-0.6 0.1 0 0.2-0.1 0.2-0.1 0.3 0.2 0.6 0.4 0.8 0.7-0.2 0-0.4 0.1-0.5 0.2-0.1 0.1-0.2 0.3-0.3 0.4l0.2 0.1c0.3-0.1 0.5-0.3 0.6-0.5l0.2 0.2c0.1-0.2 0.2-0.1 0.3 0.1 0.1-0.1 0.4-0.2 0.6-0.2 0.2 0 0.4 0 0.6 0.1-1 0.2-1.9 0.4-2.7 0.8-0.7 0.1-1-0.2-0.9-0.9 0-0.6 0.1-1.1 0.4-1.6z"></path><path fill="#54380a" d="m8.6 15.1c0 0.1 0 0.2-0.1 0.2 0.2 0.1 0.5 0.2 0.8 0.2 0.2 0.2 0.3 0.4 0.4 0.6 0.4 0.3 0.7 0.7 0.9 1.2l0.1-0.3c0.3 0.3 0.6 0.6 0.8 0.9 0.3 0 0.5 0.1 0.7 0 0 0.2 0 0.3 0.1 0.4 0-0.2 0.2-0.3 0.4-0.4l-0.2 0.5c0 0.3-0.2 0.5-0.4 0.7-0.4 0-0.6 0.3-0.6 0.6-0.3 0.1-0.6-0.1-0.8-0.4-0.1 0.2-0.1 0.4 0 0.6-0.1 0-0.2 0-0.3 0.1v-0.3c0.1-0.6 0.1-1.2 0.1-1.9l0-0.3c-0.1 0.1-0.1 0.2-0.2 0.2 0 0-0.1-0.1-0.2-0.1-0.3 0.1-0.4 0.3-0.3 0.6-0.1 0.4-0.3 0.4-0.4-0.1-0.3-0.1-0.5-0.3-0.5-0.6 0.2-0.3 0.4-0.6 0.6-0.8l-0.2-0.3c-0.6-0.5-1.4-0.6-2.2-0.6v-0.3c0.4 0 0.8 0 1.2-0.1 0-0.2 0.1-0.3 0.3-0.3z"></path><path fill="#f3f3ed" d="m25.5 15.2c-0.2 0.3-0.4 0.6-0.5 0.9-0.1 0.7-0.1 1.4 0 2.1 0.2 0.9 0.7 1.6 1.6 1.9 0.1 0.1 0.1 0.1 0.2 0.2 0.7 0 1.3 0 1.9-0.1 0.5-0.1 0.8-0.4 1.1-0.8 0.1 0.3 0.1 0.5 0.1 0.8h1.4c-0.3 0.1-0.6 0.2-1 0.3-0.2-0.1-0.4-0.2-0.7-0.2-0.3 0.1-0.6 0.1-0.9 0.1v0.4c-0.6 0.1-1.3 0.1-1.9-0.2-0.5 0.4-1 0.5-1.5 0.2-0.1-0.1-0.2-0.2-0.2-0.4 1.2-0.1 1.2-0.2 0-0.4-0.5-0.1-1 0-1.5 0.2 0.2-0.1 0.4-0.2 0.5-0.5 0.3 0 0.4-0.1 0.3-0.4-0.3-0.3-0.6-0.6-0.9-0.8-0.6 0.4-1.3 0.5-2 0.5l-0.9-1.1c0-0.5 0.1-1 0.2-1.5v-0.3h0.1c0.2-0.1 0.3-0.2 0.4-0.4 0.1 0 0.2 0 0.2-0.1 0.7-0.2 1.4-0.1 2 0.3 0.1-0.1 0.3-0.3 0.5-0.4-0.2 0.3-0.1 0.5 0.2 0.6-0.2 0.6-0.2 1.2-0.2 1.8h0.4c-0.1-0.6 0-1.2 0.1-1.8l0.2 0.5c0-0.4 0-0.8 0.1-1.1 0.2-0.2 0.4-0.2 0.7-0.3z"></path><path fill="#cfb15a" d="m19.3 15.9v2.4c-0.1-0.1-0.1-0.2-0.2-0.4 0-0.5 0-1 0-1.5l0.2-0.5z"></path><path fill="#715511" d="m25 16.1h1c0.1 0.4 0.1 0.8 0.2 1.2 0-0.2 0.1-0.3 0.2-0.4-0.1 0.5 0 1 0.2 1.4-0.1-0.1-0.3-0.1-0.4-0.1 0-0.2 0-0.4-0.1-0.6-0.4-0.2-0.7-0.5-0.9-0.9-0.2 0.5-0.2 1-0.2 1.5-0.1-0.7-0.1-1.4 0-2.1z"></path><path fill="#cbad74" d="m20.8 16.4c-0.1 0.5-0.2 1-0.2 1.5 0-0.2-0.1-0.4-0.1-0.6 0-0.4 0.1-0.7 0.3-0.9z"></path><path fill="#f3f1ea" d="m5.2 14.3c-0.1 0.2-0.2 0.3-0.2 0.5-0.3 0.5-0.4 1-0.4 1.6-0.1 0.7 0.2 1 0.9 0.9 0.8-0.4 1.7-0.6 2.7-0.8 0.3-0.1 0.7 0 1 0.1-0.5 0.7-0.6 1.5-0.3 2.2 0.2 0.4 0.5 0.4 0.8 0.3 0.3-0.4 0.5-0.9 0.6-1.4 0.1 0 0.1-0.1 0.2-0.2l0 0.3c0 0.7 0 1.3-0.1 1.9 0-0.3 0-0.6-0.1-0.9 0 0-0.1 0-0.1-0.1-0.2 0.2-0.3 0.4-0.4 0.6-0.2 0-0.5 0-0.7 0-0.1 0.2-0.2 0.3-0.3 0.4-0.3-0.7-0.4-1.5-0.3-2.3-0.2-0.1-0.4 0-0.6 0.1l0.3 1.2c-0.2 0.2-0.3 0.3-0.4 0.5 0-0.5 0-0.9 0-1.4-1.5-0.1-1.9 0.6-1.3 1.9-0.2-0.1-0.4-0.3-0.5-0.5-0.1-0.4-0.1-0.8 0-1.3-0.2 0-0.4 0.1-0.6 0.3 0-0.7-0.2-0.8-0.7-0.5-0.4-0.2-0.5-0.6-0.5-1.1 0.1-0.5 0.1-1 0.1-1.6 0.4 0 0.6-0.2 0.5-0.7h0.4z"></path><path fill="#f3f5ee" d="m20.2 14.7l-0.1 0.2c-0.4 0.2-0.7 0.6-0.7 1h-0.1l-0.2 0.5c-0.1-0.2-0.2-0.3-0.4-0.3 0.1-0.3 0-0.4-0.3-0.3l0.2-0.7c0.2-0.1 0.3-0.3 0.1-0.5-0.2-0.2-0.5-0.4-0.8-0.5-0.9 0.1-1.9 0.1-2.9 0-0.3 0-0.5 0.1-0.7 0.2-0.1 0.6-0.1 1.2-0.1 1.8v4.1c0.6 0.1 1.1 0 1.5-0.2 0-1.1 0-2.2 0.1-3.3 0-0.2 0-0.4 0.1-0.6 0.2-0.1 0.4-0.2 0.6-0.3-0.1 0.1-0.1 0.2-0.2 0.3-0.1 1.4-0.2 2.8-0.4 4.1 0.4 0.7 0.2 0.9-0.5 0.7-0.1 0.7-0.4 0.8-0.9 0.3-0.1-0.3-0.1-0.5 0-0.6-0.2-0.1-0.4-0.1-0.5 0-0.2-0.2-0.3-0.5-0.2-0.8-0.1-0.6-0.2-1.2-0.2-1.9l-0.3 1.8c0-1-0.1-2-0.2-3.1 0.2-0.1 0.3-0.2 0.2-0.5h-0.4c0 0.9 0 1.8-0.1 2.7 0-0.1-0.1-0.3-0.3-0.4l0.2-0.5v-0.2c0.1-0.5 0.1-1.1-0.2-1.6-0.1-0.4-0.3-0.8-0.6-1.2 0.1 0 0.2 0 0.3 0.1l0.2-0.3c0.1 0.2 0.1 0.5 0.1 0.8 0.1-0.4 0.2-0.8 0.3-1.2 0.1 0.5 0.1 1 0.3 1.4 0-0.5 0-0.9 0.2-1.4 0 0.7 0.1 1.3 0.3 1.8 0.1-0.6 0.1-1.2 0-1.8 0.1-0.2 0.2-0.4 0.4-0.6 1.1-0.1 2.2 0 3.2 0.2 0.3-0.2 0.6-0.3 0.9-0.3l0.2 0.1c-0.2 0.1-0.2 0.2 0 0.4 0.3 0.1 0.5 0.2 0.8 0.4l0.2-0.2c0.3 0.2 0.6 0.3 0.9 0.4z"></path><path fill="#b99c40" d="m18.6 15.1l-0.2 0.7c-0.2 0.2-0.4 0.1-0.5-0.1 0.2 0 0.3 0 0.4-0.1 0-0.3 0.1-0.4 0.3-0.5z"></path><path fill="#ebc321" d="m18.6 15.1c-0.2 0.1-0.3 0.2-0.3 0.5-0.3-0.1-0.6-0.2-0.8-0.4-0.1 0-0.1-0.2-0.1-0.3-1.2 0-1.3-0.2-0.2-0.7 0.5 0.1 0.9 0.2 1.4 0.4v0.5z"></path><path fill="#deb933" d="m17.9 14.1c0.3 0.1 0.6 0.3 0.8 0.5 0.2 0.2 0.1 0.4-0.1 0.5v-0.5c-0.5-0.2-0.9-0.3-1.4-0.4-1.1 0.5-1 0.7 0.2 0.7 0 0.1 0 0.3 0.1 0.3 0.2 0.2 0.5 0.3 0.8 0.4-0.1 0.1-0.2 0.1-0.4 0.1-0.1 0-0.2 0-0.3-0.1-0.5-0.2-1-0.3-1.5-0.5-0.1-0.1-0.2-0.2-0.2-0.4 0.6-0.5 1.3-0.7 2-0.6z"></path><path fill="#ba9121" d="m14.3 14.3c0.5 0 0.9 0 1.3 0.1 0.1 0.1 0.1 0.3 0.2 0.4 0-0.1 0-0.1 0.1-0.1 0 0.2 0.1 0.3 0.2 0.4 0.5 0.2 1 0.3 1.5 0.5-0.3 0-0.6 0-0.9 0-0.1 0.1-0.2 0.1-0.2 0.2-0.2 0.1-0.4 0.2-0.6 0.3-0.1 0.2-0.3 0.3-0.3 0.5-0.1 0-0.1 0-0.2 0.1 0-0.2-0.1-0.4 0-0.6-0.2 0-0.4 0-0.5-0.2l-0.2 0.2c-0.3-0.5-0.4-1.1-0.4-1.8z"></path><path fill="#f0e9b8" d="m17.9 14.1c-0.7-0.1-1.4 0.1-2 0.6-0.1 0-0.1 0-0.1 0.1-0.1-0.1-0.1-0.3-0.2-0.4-0.4-0.1-0.8-0.1-1.3-0.1 0.2-0.1 0.4-0.2 0.7-0.2 1 0.1 2 0.1 2.9 0z"></path><path fill="#86670e" d="m26.6 18.3c0.5 0.6 1.1 0.9 1.9 0.8-0.2 0.1-0.5 0.1-0.8 0.1 0.2 0.1 0.4 0.2 0.6 0.3-0.3 0-0.5 0.1-0.7 0.2 0.3 0.1 0.6 0.2 0.9 0.4-0.6 0.1-1.3 0.1-1.9 0-0.9-0.3-1.4-1-1.6-1.9 0-0.5 0-1 0.2-1.5 0.2 0.4 0.5 0.7 0.9 0.9 0.1 0.2 0.1 0.4 0.1 0.6 0.1 0 0.3 0 0.4 0.1z"></path><path fill="#956c18" d="m14.3 14.3c0 0.7 0.1 1.3 0.4 1.8l0.2-0.2c0.1 0.2 0.3 0.2 0.5 0.2-0.1 0.2 0 0.4 0 0.6 0.1-0.1 0.1-0.1 0.2-0.1v1c-0.2 0.2-0.3 0.5-0.3 0.8-0.1-0.2-0.1-0.3-0.1-0.5h-0.6c0-0.1-0.1-0.3-0.3-0.3 0.1-0.5 0-1-0.1-1.5 0-0.6 0-1.2 0.1-1.8z"></path><path fill="#392a0b" d="m7.8 19.2c-0.1 0.9-0.6 1.1-1.3 0.5-0.6-1.3-0.2-2 1.3-1.9 0 0.5 0 0.9 0 1.4z"></path><path fill="#72511e" d="m14.2 16.1c0.1 0.5 0.2 1 0.1 1.5 0.1 0.8 0.3 1.5 0.4 2.3 0.2-0.1 0.4 0 0.6 0.1l0.2-0.3c0.1-0.7 0.1-1.4 0.1-2.1v-1c0-0.2 0.2-0.3 0.3-0.5-0.1 0.2-0.1 0.4-0.1 0.6-0.1 1.1-0.1 2.2-0.1 3.3-0.4 0.1-0.9 0.1-1.4 0.1 0.1-0.2 0-0.3-0.1-0.4v-3.6z"></path><path fill="#7c5211" d="m14.3 17.6c0.2 0 0.3 0.2 0.3 0.3h0.6c0 0.2 0 0.3 0.1 0.5 0-0.3 0.1-0.6 0.3-0.8 0 0.7 0 1.4-0.1 2.1l-0.2 0.3c-0.2-0.1-0.4-0.2-0.6-0.1-0.1-0.8-0.3-1.5-0.4-2.3z"></path><path fill="#9a8044" d="m19.6 19.1c0.5 0.5 1 0.8 1.6 1.1-0.7-0.1-1.2-0.5-1.6-1.1z"></path><path fill="#eabe25" d="m20.8 16.1v0.3c-0.2 0.2-0.3 0.5-0.3 0.9 0 0.2 0.1 0.4 0.1 0.6l0.9 1.1c0.3 0 0.6 0.1 0.9 0.1 0.4 0 0.8-0.1 1.1-0.3 0.3 0.2 0.5 0.4 0.5 0.7h-0.3v0.5c-0.5 0.1-1 0.1-1.5 0.2-0.2-0.1-0.4-0.2-0.7-0.2-0.1-0.5-0.3-0.9-0.5-1.3-0.3 0.1-0.5 0.3-0.7 0.6-0.2-0.2-0.3-0.3-0.3-0.6-0.1-0.1-0.2-0.1-0.3 0-0.1-0.2-0.1-0.4-0.2-0.6 0-0.1-0.1-0.2-0.2-0.2v-2h0.1c0.1-0.2 0.2-0.4 0.5-0.5 0.2 0.2 0.4 0.4 0.7 0.5 0.1 0 0.2 0.1 0.2 0.2z"></path><path fill="#674e0c" d="m29.3 18.7c-0.1 0.2 0 0.5 0.1 0.7 0-0.2 0.1-0.2 0.2-0.2-0.2 0.4-0.5 0.7-0.9 1-0.6 0.1-1.2 0.1-1.9 0.1-0.1-0.1-0.1-0.1-0.2-0.2 0.6 0.1 1.3 0.1 1.9 0-0.3-0.2-0.6-0.3-0.9-0.4 0.2-0.1 0.4-0.2 0.7-0.2-0.2-0.1-0.4-0.2-0.6-0.3 0.3 0 0.6 0 0.8-0.1 0.3-0.1 0.5-0.2 0.8-0.4z"></path><path fill="#d4b940" d="m24.1 19.7c-0.1 0.1-0.3 0.1-0.4 0.3v-0.5h0.3c0-0.3-0.2-0.5-0.5-0.7-0.3 0.2-0.7 0.3-1.1 0.3-0.3 0-0.6-0.1-0.9-0.1 0.7 0 1.4-0.1 2-0.5 0.3 0.2 0.6 0.5 0.9 0.8 0.1 0.3 0 0.4-0.3 0.4z"></path><path fill="#d8ab26" d="m19.3 17.9c0.1 0 0.2 0.1 0.2 0.2 0.1 0.2 0.1 0.4 0.2 0.6 0.1-0.1 0.2-0.1 0.3 0 0 0.3 0.1 0.4 0.3 0.6 0.2-0.3 0.4-0.5 0.7-0.6 0.2 0.4 0.4 0.8 0.5 1.3 0.3 0 0.5 0.1 0.7 0.2h-1c-0.6-0.3-1.1-0.6-1.6-1.1-0.2-0.2-0.3-0.5-0.3-0.8v-0.4z"></path><path fill="#3e2e14" d="m14.2 19.7c0.1 0.1 0.2 0.2 0.1 0.4 0.5 0 1 0 1.4-0.1-0.4 0.2-0.9 0.3-1.5 0.2v-0.5z"></path><path fill="#b29548" d="m24.1 19.7c-0.1 0.3-0.3 0.4-0.5 0.5-0.5 0.1-1 0.2-1.4 0.2-0.4 0-0.7 0-1-0.2h1c0.5-0.1 1-0.1 1.5-0.2 0.1-0.2 0.3-0.2 0.4-0.3z"></path><path fill="#e7e4d1" d="m10.4 19.7v0.3c-0.1 0.3-0.3 0.5-0.7 0.6-0.6-0.2-1.2-0.3-1.9-0.2-0.2 0.2-0.4 0.4-0.7 0.6 0.2-0.3 0.3-0.5 0.6-0.7 0.8 0 1.7 0 2.5-0.1-0.1-0.2 0-0.4 0.2-0.5z"></path><path fill="#3a2a09" d="m12.1 19.1c-0.5 0.8-1.1 1.7-1.8 2.4 0 0.6 0 1.2-0.2 1.7-0.2 0.4-0.6 0.6-1 0.6 0.1-1.1-0.3-1.9-1.2-2.5-0.2 0.1-0.4 0.2-0.6 0.3-0.1-0.2-0.2-0.4-0.2-0.6 0.3-0.2 0.5-0.4 0.7-0.6 0.7-0.1 1.3 0 1.9 0.2 0.4-0.1 0.6-0.3 0.7-0.6 0.1-0.1 0.2-0.1 0.3-0.1-0.1-0.2-0.1-0.4 0-0.6 0.2 0.3 0.5 0.5 0.8 0.4 0-0.3 0.2-0.6 0.6-0.6z"></path></svg>