<?xml version="1.0" encoding="UTF-8"?>
<!DOCTYPE svg PUBLIC "-//W3C//DTD SVG 1.1//EN" "http://www.w3.org/Graphics/SVG/1.1/DTD/svg11.dtd">
<svg xmlns="http://www.w3.org/2000/svg" version="1.1" width="320px" height="320px" style="shape-rendering:geometricPrecision; text-rendering:geometricPrecision; image-rendering:optimizeQuality; fill-rule:evenodd; clip-rule:evenodd" xmlns:xlink="http://www.w3.org/1999/xlink">
<g><path style="opacity:1" fill="#000000" d="M -0.5,-0.5 C 106.167,-0.5 212.833,-0.5 319.5,-0.5C 319.5,106.167 319.5,212.833 319.5,319.5C 212.833,319.5 106.167,319.5 -0.5,319.5C -0.5,212.833 -0.5,106.167 -0.5,-0.5 Z"/></g>
<g><path style="opacity:1" fill="#030303" d="M 140.5,103.5 C 151.332,106.796 162.332,109.963 173.5,113C 187.668,119.169 199.501,128.336 209,140.5C 217.504,155.53 225.338,170.863 232.5,186.5C 229.014,191.145 224.68,194.978 219.5,198C 214.898,202.094 210.898,206.594 207.5,211.5C 200.982,217.519 194.648,223.685 188.5,230C 181.612,234.112 174.278,237.112 166.5,239C 155.886,240.809 145.219,241.809 134.5,242C 121.312,235.814 109.478,227.647 99,217.5C 91.1447,204.601 86.478,190.601 85,175.5C 82.8528,152.473 83.0195,129.473 85.5,106.5C 86.4824,102.684 87.1491,98.6836 87.5,94.5C 105.364,96.3832 123.03,99.3832 140.5,103.5 Z"/></g>
<g><path style="opacity:1" fill="#eaeaea" d="M 202.5,245.5 C 203.978,245.762 205.311,245.429 206.5,244.5C 204.466,243.168 202.466,241.834 200.5,240.5C 209.722,242.557 218.722,245.39 227.5,249C 237.425,253.875 246.925,259.375 256,265.5C 256.772,265.355 257.439,265.022 258,264.5C 259.132,259.111 258.298,254.111 255.5,249.5C 242.579,243.682 229.246,239.682 215.5,237.5C 218.482,237.173 221.315,237.173 224,237.5C 224.239,236.212 223.739,235.212 222.5,234.5C 233.328,235.79 243.661,238.79 253.5,243.5C 253.833,242.833 254.167,242.167 254.5,241.5C 253.008,237.194 251.675,232.86 250.5,228.5C 234.706,226.772 219.039,227.438 203.5,230.5C 204.662,229.322 205.662,228.155 206.5,227C 204.765,226.349 203.098,226.515 201.5,227.5C 201.891,226.282 201.224,225.448 199.5,225C 202.246,223.25 205.246,222.25 208.5,222C 207.366,220.984 207.699,220.317 209.5,220C 208.833,219.333 208.167,218.667 207.5,218C 208.833,216.667 208.833,215.333 207.5,214C 209.842,212.608 209.842,211.775 207.5,211.5C 210.898,206.594 214.898,202.094 219.5,198C 224.68,194.978 229.014,191.145 232.5,186.5C 225.338,170.863 217.504,155.53 209,140.5C 199.501,128.336 187.668,119.169 173.5,113C 162.332,109.963 151.332,106.796 140.5,103.5C 138.438,102.224 136.104,101.39 133.5,101C 135.715,99.9562 138.048,99.2895 140.5,99C 137.812,98.2177 136.812,96.7177 137.5,94.5C 138.192,95.0253 138.692,95.6919 139,96.5C 142.68,95.5433 146.18,96.2099 149.5,98.5C 149.326,96.6687 148.326,94.8354 146.5,93C 147.094,92.5357 147.761,92.369 148.5,92.5C 154.5,95.5 160.5,98.5 166.5,101.5C 146.691,83.0541 124.024,69.0541 98.5,59.5C 97.325,59.719 96.325,59.3857 95.5,58.5C 96.5063,57.6043 96.5063,56.9377 95.5,56.5C 93.5914,57.3482 91.5914,57.6816 89.5,57.5C 88.5041,57.4142 87.6708,57.7476 87,58.5C 85.8201,60.8599 84.6534,63.1932 83.5,65.5C 82.3079,66.5659 82.6412,67.3992 84.5,68C 83.635,69.3588 82.635,70.5255 81.5,71.5C 80.6993,73.0418 80.366,74.7085 80.5,76.5C 79.2267,77.0768 79.2267,77.7435 80.5,78.5C 83.6026,78.9231 86.436,79.9231 89,81.5C 90.3561,80.6198 91.8561,80.2865 93.5,80.5C 95.2161,80.6287 96.8828,80.962 98.5,81.5C 98.6495,82.552 98.4828,83.552 98,84.5C 96.7012,84.0338 95.2012,84.0338 93.5,84.5C 92.1667,84.5 90.8333,84.5 89.5,84.5C 89.5,85.5 89.5,86.5 89.5,87.5C 88.8826,87.6107 88.3826,87.944 88,88.5C 87.5204,86.867 86.6871,85.5336 85.5,84.5C 83.4855,83.0762 81.1522,82.4095 78.5,82.5C 78.6747,84.6208 78.3414,86.6208 77.5,88.5C 79.663,89.4691 81.9963,90.3024 84.5,91C 81.6471,92.8082 78.6471,92.9749 75.5,91.5C 74.5748,90.6431 73.9081,89.6431 73.5,88.5C 73.5,86.8333 73.5,85.1667 73.5,83.5C 74.0431,83.44 74.3764,83.1067 74.5,82.5C 71.3553,81.1968 68.3553,81.1968 65.5,82.5C 65.6747,84.6208 65.3414,86.6208 64.5,88.5C 76.5,90.1667 76.5,91.8333 64.5,93.5C 64.3022,115.981 67.4689,137.981 74,159.5C 74.49,158.207 74.6567,156.873 74.5,155.5C 75.4511,156.919 75.7845,158.585 75.5,160.5C 74.8761,160.917 74.5427,161.584 74.5,162.5C 74.7075,164.808 75.3742,166.141 76.5,166.5C 77.3913,168.291 78.3913,170.124 79.5,172C 78.1354,173.682 76.6354,173.849 75,172.5C 74.5172,173.448 74.3505,174.448 74.5,175.5C 64.4523,149.561 59.4523,122.561 59.5,94.5C 56.4552,94.5079 53.4552,94.8413 50.5,95.5C 52.7223,126.494 61.389,155.494 76.5,182.5C 78.0698,183.875 78.9031,185.541 79,187.5C 76.81,184.751 75.1433,185.085 74,188.5C 72.9614,187.756 72.4614,186.756 72.5,185.5C 72.2503,183.326 71.2503,181.659 69.5,180.5C 69.5,181.167 69.5,181.833 69.5,182.5C 68.5178,181.859 67.5178,181.193 66.5,180.5C 65.7025,180.957 65.3691,181.624 65.5,182.5C 64.5,181.833 63.5,181.167 62.5,180.5C 62.7376,182.404 63.7376,183.738 65.5,184.5C 68.7239,186.561 71.0573,189.394 72.5,193C 70.6799,192.524 69.0133,192.691 67.5,193.5C 48.0788,173.666 34.5788,150.333 27,123.5C 24.5181,113.662 26.8514,105.329 34,98.5C 35.8484,89.9858 40.6818,83.8192 48.5,80C 52.0522,72.7824 57.7189,68.1158 65.5,66C 69.7786,58.0647 76.4453,53.7314 85.5,53C 90.3479,46.1781 97.0146,42.8448 105.5,43C 115.761,34.8718 126.427,34.5384 137.5,42C 153,53.5 166.5,67 178,82.5C 185.624,93.5804 193.124,104.747 200.5,116C 225.896,125.033 250.563,135.699 274.5,148C 281.11,151.889 287.277,156.389 293,161.5C 296.596,168.687 294.429,172.853 286.5,174C 291.508,177.642 293.675,182.475 293,188.5C 289.989,190.941 286.489,192.107 282.5,192C 285.388,195.222 287.888,198.722 290,202.5C 291.671,211.464 287.837,215.297 278.5,214C 282.529,219.205 284.362,225.038 284,231.5C 283.167,232.333 282.333,233.167 281.5,234C 277.759,234.502 274.092,234.502 270.5,234C 273.488,239.119 274.655,244.619 274,250.5C 273.535,251.931 272.701,253.097 271.5,254C 268.469,254.495 265.469,254.329 262.5,253.5C 262.666,258.179 262.499,262.845 262,267.5C 258.974,270.864 255.474,271.364 251.5,269C 236.665,257.915 220.332,250.082 202.5,245.5 Z"/></g>
<g><path style="opacity:1" fill="#575757" d="M 234.5,178.5 C 232.584,177.335 231.751,175.668 232,173.5C 233.883,174.653 234.716,176.319 234.5,178.5 Z"/></g>
<g><path style="opacity:1" fill="#111111" d="M 216.5,135.5 C 216.5,135.167 216.5,134.833 216.5,134.5C 236.946,144.554 256.279,156.388 274.5,170C 271.029,171.825 267.362,172.825 263.5,173C 248.532,159.53 232.866,147.03 216.5,135.5 Z"/></g>
<g><path style="opacity:1" fill="#141414" d="M 223.5,147.5 C 223.897,146.475 224.563,146.308 225.5,147C 236.794,155.958 247.794,165.291 258.5,175C 256.35,176.59 254.017,177.257 251.5,177C 242.3,166.969 232.967,157.135 223.5,147.5 Z"/></g>
<g><path style="opacity:1" fill="#181818" d="M 229.5,160.5 C 235.634,166.804 241.634,173.304 247.5,180C 245.702,181.505 243.868,181.672 242,180.5C 238.32,173.796 234.153,167.462 229.5,161.5C 229.5,161.167 229.5,160.833 229.5,160.5 Z"/></g>
<g><path style="opacity:1" fill="#a5a5a5" d="M 92.5,162.5 C 94.5,162.5 96.5,162.5 98.5,162.5C 98.5,169.5 98.5,176.5 98.5,183.5C 97.5093,177.021 97.176,170.354 97.5,163.5C 95.5853,163.784 93.9187,163.451 92.5,162.5 Z"/></g>
<g><path style="opacity:1" fill="#e5e5e5" d="M 149.5,158.5 C 154.814,157.74 158.647,159.74 161,164.5C 161.667,169.5 161.667,174.5 161,179.5C 158.103,184.155 153.937,185.655 148.5,184C 147.333,182.833 146.167,181.667 145,180.5C 144.333,174.833 144.333,169.167 145,163.5C 146.025,161.313 147.525,159.646 149.5,158.5 Z"/></g>
<g><path style="opacity:1" fill="#656565" d="M 75.5,160.5 C 75.8333,162.5 76.1667,164.5 76.5,166.5C 75.3742,166.141 74.7075,164.808 74.5,162.5C 74.5427,161.584 74.8761,160.917 75.5,160.5 Z"/></g>
<g><path style="opacity:1" fill="#e8e8e8" d="M 118.5,158.5 C 121.85,158.335 125.183,158.502 128.5,159C 134.158,160.829 135.992,164.663 134,170.5C 132.833,171.667 131.667,172.833 130.5,174C 132.702,176.882 133.869,180.049 134,183.5C 132.951,184.517 131.784,184.684 130.5,184C 128.873,181.246 127.373,178.412 126,175.5C 124.989,174.663 123.822,174.33 122.5,174.5C 122.5,177.833 122.5,181.167 122.5,184.5C 120.856,184.714 119.356,184.38 118,183.5C 117.199,175.088 117.366,166.755 118.5,158.5 Z"/></g>
<g><path style="opacity:1" fill="#1d1d1d" d="M 122.5,162.5 C 129.158,161.344 131.158,163.844 128.5,170C 126.527,170.495 124.527,170.662 122.5,170.5C 122.5,167.833 122.5,165.167 122.5,162.5 Z"/></g>
<g><path style="opacity:1" fill="#efefef" d="M 98.5,183.5 C 98.5,176.5 98.5,169.5 98.5,162.5C 96.5,162.5 94.5,162.5 92.5,162.5C 91.5655,161.432 91.2322,160.099 91.5,158.5C 97.1667,158.5 102.833,158.5 108.5,158.5C 108.5,159.833 108.5,161.167 108.5,162.5C 106.5,162.5 104.5,162.5 102.5,162.5C 102.5,169.833 102.5,177.167 102.5,184.5C 100.901,184.768 99.5676,184.434 98.5,183.5 Z"/></g>
<g><path style="opacity:1" fill="#8c8c8c" d="M 229.5,160.5 C 229.5,160.833 229.5,161.167 229.5,161.5C 227.946,160.086 226.612,158.419 225.5,156.5C 225.667,156.167 225.833,155.833 226,155.5C 227.802,156.789 228.969,158.456 229.5,160.5 Z"/></g>
<g><path style="opacity:1" fill="#0f0f0f" d="M 215.5,127.5 C 239.721,135.609 262.721,146.442 284.5,160C 292.9,166.655 291.567,169.655 280.5,169C 259.785,153.645 238.119,139.811 215.5,127.5 Z"/></g>
<g><path style="opacity:1" fill="#171717" d="M 60.5,177.5 C 47.0224,162.133 37.5224,144.466 32,124.5C 31.0968,118.719 31.4301,113.053 33,107.5C 34.6983,116.96 37.0317,126.293 40,135.5C 46.0599,149.952 52.8932,163.952 60.5,177.5 Z"/></g>
<g><path style="opacity:1" fill="#121212" d="M 44.5,97.5 C 45.1667,100.5 45.8333,103.5 46.5,106.5C 47.055,116.723 48.8883,126.723 52,136.5C 56.9526,151.526 62.7859,166.193 69.5,180.5C 54.7791,160.044 44.6124,137.377 39,112.5C 38.3333,108.5 38.3333,104.5 39,100.5C 40.4877,98.84 42.321,97.84 44.5,97.5 Z"/></g>
<g><path style="opacity:1" fill="#6b6b6b" d="M 216.5,134.5 C 216.5,134.833 216.5,135.167 216.5,135.5C 214.862,134.343 213.196,133.176 211.5,132C 213.668,131.751 215.335,132.584 216.5,134.5 Z"/></g>
<g><path style="opacity:1" fill="#858585" d="M 215.5,127.5 C 212.484,127.159 209.818,125.993 207.5,124C 210.495,124.329 213.162,125.496 215.5,127.5 Z"/></g>
<g><path style="opacity:1" fill="#101010" d="M 64.5,93.5 C 67.1873,93.3359 69.854,93.5026 72.5,94C 71.1698,108.931 71.1698,123.765 72.5,138.5C 72.7325,144.262 73.3992,149.928 74.5,155.5C 74.6567,156.873 74.49,158.207 74,159.5C 67.4689,137.981 64.3022,115.981 64.5,93.5 Z"/></g>
<g><path style="opacity:1" fill="#8b8b8b" d="M 178.5,103.5 C 181.073,104.879 182.573,106.879 183,109.5C 181.293,107.963 179.793,106.296 178.5,104.5C 178.5,104.167 178.5,103.833 178.5,103.5 Z"/></g>
<g><path style="opacity:1" fill="#464646" d="M 186.5,104.5 C 188.446,105.254 189.279,106.588 189,108.5C 187.519,107.529 186.685,106.196 186.5,104.5 Z"/></g>
<g><path style="opacity:1" fill="#838383" d="M 44.5,97.5 C 44.56,96.9569 44.8933,96.6236 45.5,96.5C 46.487,99.7683 46.8204,103.102 46.5,106.5C 45.8333,103.5 45.1667,100.5 44.5,97.5 Z"/></g>
<g><path style="opacity:1" fill="#4b4b4b" d="M 166.5,101.5 C 167.756,101.461 168.756,101.961 169.5,103C 168.002,103.585 167.002,103.085 166.5,101.5 Z"/></g>
<g><path style="opacity:1" fill="#131313" d="M 76.5,93.5 C 78.924,93.1924 81.2573,93.5258 83.5,94.5C 82.6906,96.0709 82.3573,97.7376 82.5,99.5C 80.636,106.578 79.636,113.912 79.5,121.5C 78.8333,129.833 78.1667,138.167 77.5,146.5C 76.717,128.845 76.3836,111.178 76.5,93.5 Z"/></g>
<g><path style="opacity:1" fill="#0f0f0f" d="M 74.5,175.5 C 75.4552,177.746 76.1218,180.079 76.5,182.5C 61.389,155.494 52.7223,126.494 50.5,95.5C 53.4552,94.8413 56.4552,94.5079 59.5,94.5C 59.4523,122.561 64.4523,149.561 74.5,175.5 Z"/></g>
<g><path style="opacity:1" fill="#1a1a1a" d="M 44.5,87.5 C 45.5862,87.62 46.2528,88.2867 46.5,89.5C 40.9111,95.0089 40.2444,94.3423 44.5,87.5 Z"/></g>
<g><path style="opacity:1" fill="#171717" d="M 85.5,84.5 C 84.5655,85.5676 84.2322,86.901 84.5,88.5C 82.1667,88.5 79.8333,88.5 77.5,88.5C 78.3414,86.6208 78.6747,84.6208 78.5,82.5C 81.1522,82.4095 83.4855,83.0762 85.5,84.5 Z"/></g>
<g><path style="opacity:1" fill="#e2e2e2" d="M 98.5,59.5 C 97.5,62.8333 96.5,66.1667 95.5,69.5C 114.275,74.646 131.942,82.3126 148.5,92.5C 147.761,92.369 147.094,92.5357 146.5,93C 148.326,94.8354 149.326,96.6687 149.5,98.5C 146.18,96.2099 142.68,95.5433 139,96.5C 138.692,95.6919 138.192,95.0253 137.5,94.5C 136.812,96.7177 137.812,98.2177 140.5,99C 138.048,99.2895 135.715,99.9562 133.5,101C 136.104,101.39 138.438,102.224 140.5,103.5C 123.03,99.3832 105.364,96.3832 87.5,94.5C 87.1491,98.6836 86.4824,102.684 85.5,106.5C 85.7267,103.562 84.7267,101.229 82.5,99.5C 82.3573,97.7376 82.6906,96.0709 83.5,94.5C 81.2573,93.5258 78.924,93.1924 76.5,93.5C 75.8501,93.1961 75.1835,92.8627 74.5,92.5C 73.7022,94.0777 73.2022,95.7444 73,97.5C 72.5001,111.163 72.3334,124.829 72.5,138.5C 71.1698,123.765 71.1698,108.931 72.5,94C 69.854,93.5026 67.1873,93.3359 64.5,93.5C 76.5,91.8333 76.5,90.1667 64.5,88.5C 67.5,88.5 70.5,88.5 73.5,88.5C 73.9081,89.6431 74.5748,90.6431 75.5,91.5C 78.6471,92.9749 81.6471,92.8082 84.5,91C 81.9963,90.3024 79.663,89.4691 77.5,88.5C 79.8333,88.5 82.1667,88.5 84.5,88.5C 84.2322,86.901 84.5655,85.5676 85.5,84.5C 86.6871,85.5336 87.5204,86.867 88,88.5C 88.3826,87.944 88.8826,87.6107 89.5,87.5C 89.8807,88.9311 90.8807,89.7645 92.5,90C 105.584,91.916 118.584,93.916 131.5,96C 118.824,91.8362 106.157,88.0028 93.5,84.5C 95.2012,84.0338 96.7012,84.0338 98,84.5C 98.4828,83.552 98.6495,82.552 98.5,81.5C 113.464,85.0443 128.131,89.211 142.5,94C 126.943,85.6355 110.776,78.8022 94,73.5C 93.1628,75.3506 92.3295,77.1839 91.5,79C 92.4158,79.2784 93.0825,79.7784 93.5,80.5C 91.8561,80.2865 90.3561,80.6198 89,81.5C 86.436,79.9231 83.6026,78.9231 80.5,78.5C 79.2267,77.7435 79.2267,77.0768 80.5,76.5C 85.0222,79.8616 87.6889,78.6949 88.5,73C 86.3225,71.7978 83.9892,71.2978 81.5,71.5C 82.635,70.5255 83.635,69.3588 84.5,68C 82.6412,67.3992 82.3079,66.5659 83.5,65.5C 85.686,66.9645 88.0193,67.2979 90.5,66.5C 91.7061,63.9206 93.0394,61.4206 94.5,59C 92.6183,58.8019 90.9516,58.3019 89.5,57.5C 91.5914,57.6816 93.5914,57.3482 95.5,56.5C 96.5063,56.9377 96.5063,57.6043 95.5,58.5C 96.325,59.3857 97.325,59.719 98.5,59.5 Z"/></g>
<g><path style="opacity:1" fill="#161616" d="M 93.5,84.5 C 106.157,88.0028 118.824,91.8362 131.5,96C 118.584,93.916 105.584,91.916 92.5,90C 90.8807,89.7645 89.8807,88.9311 89.5,87.5C 89.5,86.5 89.5,85.5 89.5,84.5C 90.8333,84.5 92.1667,84.5 93.5,84.5 Z"/></g>
<g><path style="opacity:1" fill="#121212" d="M 98.5,81.5 C 96.8828,80.962 95.2161,80.6287 93.5,80.5C 93.0825,79.7784 92.4158,79.2784 91.5,79C 92.3295,77.1839 93.1628,75.3506 94,73.5C 110.776,78.8022 126.943,85.6355 142.5,94C 128.131,89.211 113.464,85.0443 98.5,81.5 Z"/></g>
<g><path style="opacity:1" fill="#121212" d="M 65.5,82.5 C 68.3854,82.1936 71.0521,82.5269 73.5,83.5C 73.5,85.1667 73.5,86.8333 73.5,88.5C 70.5,88.5 67.5,88.5 64.5,88.5C 65.3414,86.6208 65.6747,84.6208 65.5,82.5 Z"/></g>
<g><path style="opacity:1" fill="#161616" d="M 54.5,82.5 C 56.5,82.5 58.5,82.5 60.5,82.5C 60.5,84.8333 60.5,87.1667 60.5,89.5C 57.5525,89.2229 54.7191,89.5562 52,90.5C 51.3396,87.3167 52.173,84.65 54.5,82.5 Z"/></g>
<g><path style="opacity:1" fill="#6c6c6c" d="M 65.5,82.5 C 68.3553,81.1968 71.3553,81.1968 74.5,82.5C 74.3764,83.1067 74.0431,83.44 73.5,83.5C 71.0521,82.5269 68.3854,82.1936 65.5,82.5 Z"/></g>
<g><path style="opacity:1" fill="#0e0e0e" d="M 81.5,71.5 C 83.9892,71.2978 86.3225,71.7978 88.5,73C 87.6889,78.6949 85.0222,79.8616 80.5,76.5C 80.366,74.7085 80.6993,73.0418 81.5,71.5 Z"/></g>
<g><path style="opacity:1" fill="#1c1c1c" d="M 68.5,70.5 C 71.1667,70.5 73.8333,70.5 76.5,70.5C 76.0074,72.8056 75.6741,75.139 75.5,77.5C 72.5,77.5 69.5,77.5 66.5,77.5C 66.8782,75.079 67.5448,72.7457 68.5,70.5 Z"/></g>
<g><path style="opacity:1" fill="#141414" d="M 61.5,72.5 C 62.7053,73.6719 62.7053,75.0052 61.5,76.5C 59.9255,77.6309 58.2588,77.7975 56.5,77C 58.0632,75.264 59.7299,73.764 61.5,72.5 Z"/></g>
<g><path style="opacity:1" fill="#141414" d="M 186.5,104.5 C 172.7,89.8666 158.366,75.6999 143.5,62C 133.953,54.724 123.62,48.724 112.5,44C 116.555,41.6597 120.889,40.993 125.5,42C 133.967,45.398 141.634,50.0647 148.5,56C 162.994,70.867 175.66,87.0337 186.5,104.5 Z"/></g>
<g><path style="opacity:1" fill="#141414" d="M 89.5,57.5 C 90.9516,58.3019 92.6183,58.8019 94.5,59C 93.0394,61.4206 91.7061,63.9206 90.5,66.5C 88.0193,67.2979 85.686,66.9645 83.5,65.5C 84.6534,63.1932 85.8201,60.8599 87,58.5C 87.6708,57.7476 88.5041,57.4142 89.5,57.5 Z"/></g>
<g><path style="opacity:1" fill="#1a1a1a" d="M 79.5,58.5 C 80.2389,58.369 80.9056,58.5357 81.5,59C 80.6919,61.0876 79.6919,63.0876 78.5,65C 76.1667,65.6667 73.8333,65.6667 71.5,65C 73.7761,62.2111 76.4427,60.0444 79.5,58.5 Z"/></g>
<g><path style="opacity:1" fill="#0f0f0f" d="M 98.5,59.5 C 124.024,69.0541 146.691,83.0541 166.5,101.5C 160.5,98.5 154.5,95.5 148.5,92.5C 131.942,82.3126 114.275,74.646 95.5,69.5C 96.5,66.1667 97.5,62.8333 98.5,59.5 Z"/></g>
<g><path style="opacity:1" fill="#141414" d="M 98.5,48.5 C 99.2389,48.369 99.9056,48.5357 100.5,49C 98.7977,53.1262 95.7977,54.4596 91.5,53C 93.5922,50.964 95.9255,49.464 98.5,48.5 Z"/></g>
<g><path style="opacity:1" fill="#111111" d="M 178.5,103.5 C 178.5,103.833 178.5,104.167 178.5,104.5C 164.611,93.1147 150.277,82.2814 135.5,72C 124.724,65.2789 113.391,59.6122 101.5,55C 103.013,52.1541 105.179,49.9874 108,48.5C 116.385,50.7762 124.219,54.2762 131.5,59C 148.929,71.9277 164.595,86.761 178.5,103.5 Z"/></g>
<g><path style="opacity:1" fill="#e2e2e2" d="M 177.5,172.5 C 177.217,171.711 176.717,171.044 176,170.5C 175.501,174.821 175.334,179.154 175.5,183.5C 174.116,184.801 172.616,184.801 171,183.5C 170.333,175.5 170.333,167.5 171,159.5C 172.667,158.167 174.333,158.167 176,159.5C 178.738,163.922 181.071,168.588 183,173.5C 183.499,168.511 183.666,163.511 183.5,158.5C 185.144,158.286 186.644,158.62 188,159.5C 188.667,167.5 188.667,175.5 188,183.5C 186.333,184.833 184.667,184.833 183,183.5C 181.153,179.807 179.32,176.14 177.5,172.5 Z"/></g>
<g><path style="opacity:1" fill="#4f4f4f" d="M 177.5,172.5 C 176.833,176.167 176.167,179.833 175.5,183.5C 175.334,179.154 175.501,174.821 176,170.5C 176.717,171.044 177.217,171.711 177.5,172.5 Z"/></g>
<g><path style="opacity:1" fill="#121212" d="M 277.5,174.5 C 281.302,175.779 284.469,178.112 287,181.5C 288.009,183.025 288.509,184.692 288.5,186.5C 285.159,187.005 281.826,187.172 278.5,187C 275.292,183.623 271.958,180.456 268.5,177.5C 271.656,176.616 274.656,175.616 277.5,174.5 Z"/></g>
<g><path style="opacity:1" fill="#191919" d="M 60.5,177.5 C 61.9063,177.973 62.573,178.973 62.5,180.5C 61.0937,180.027 60.427,179.027 60.5,177.5 Z"/></g>
<g><path style="opacity:1" fill="#1a1a1a" d="M 151.5,162.5 C 153.39,162.297 154.89,162.963 156,164.5C 156.667,169.167 156.667,173.833 156,178.5C 154.267,180.602 152.267,180.935 150,179.5C 149.333,174.5 149.333,169.5 150,164.5C 150.717,163.956 151.217,163.289 151.5,162.5 Z"/></g>
<g><path style="opacity:1" fill="#e0e0e0" d="M 203.5,158.5 C 208.039,157.957 211.873,159.29 215,162.5C 215.667,168.5 215.667,174.5 215,180.5C 211.692,184.327 207.526,185.494 202.5,184C 200.951,182.786 199.785,181.286 199,179.5C 198.333,174.167 198.333,168.833 199,163.5C 200.366,161.638 201.866,159.972 203.5,158.5 Z"/></g>
<g><path style="opacity:1" fill="#121212" d="M 204.5,163.5 C 206.467,163.261 208.301,163.594 210,164.5C 210.667,169.167 210.667,173.833 210,178.5C 208,181.167 206,181.167 204,178.5C 203.222,173.416 203.389,168.416 204.5,163.5 Z"/></g>
<g><path style="opacity:1" fill="#5e5e5e" d="M 62.5,180.5 C 63.5,181.167 64.5,181.833 65.5,182.5C 65.5,183.167 65.5,183.833 65.5,184.5C 63.7376,183.738 62.7376,182.404 62.5,180.5 Z"/></g>
<g><path style="opacity:1" fill="#131313" d="M 234.5,178.5 C 235.885,179.574 237.051,180.907 238,182.5C 238.688,183.332 238.521,183.998 237.5,184.5C 235.962,182.757 234.962,180.757 234.5,178.5 Z"/></g>
<g><path style="opacity:1" fill="#0e0e0e" d="M 260.5,179.5 C 261.873,179.343 263.207,179.51 264.5,180C 266.833,182.333 269.167,184.667 271.5,187C 264.428,190.392 259.095,188.725 255.5,182C 257.315,181.243 258.981,180.41 260.5,179.5 Z"/></g>
<g><path style="opacity:1" fill="#131313" d="M 248.5,184.5 C 251.815,184.972 254.149,186.805 255.5,190C 253.444,190.311 251.444,190.811 249.5,191.5C 246.713,189.122 246.38,186.788 248.5,184.5 Z"/></g>
<g><path style="opacity:1" fill="#1c1c1c" d="M 240.5,188.5 C 242.741,189.3 243.741,190.966 243.5,193.5C 240.151,193.127 239.151,191.46 240.5,188.5 Z"/></g>
<g><path style="opacity:1" fill="#111111" d="M 264.5,192.5 C 268.846,192.334 273.179,192.501 277.5,193C 280.699,196.566 283.533,200.4 286,204.5C 286.49,205.793 286.657,207.127 286.5,208.5C 282.466,208.328 278.466,207.828 274.5,207C 270.921,202.268 267.587,197.435 264.5,192.5 Z"/></g>
<g><path style="opacity:1" fill="#171717" d="M 233.5,192.5 C 235.687,193.049 236.354,194.215 235.5,196C 231.359,197.75 227.359,199.416 223.5,201C 227.025,198.302 230.358,195.469 233.5,192.5 Z"/></g>
<g><path style="opacity:1" fill="#101010" d="M 255.5,194.5 C 256.873,194.343 258.207,194.51 259.5,195C 262.358,198.358 265.025,201.858 267.5,205.5C 264.216,206.657 260.882,206.824 257.5,206C 255.706,202.912 254.039,199.746 252.5,196.5C 253.602,195.824 254.602,195.158 255.5,194.5 Z"/></g>
<g><path style="opacity:1" fill="#1e1e1e" d="M 243.5,197.5 C 244.873,197.343 246.207,197.51 247.5,198C 249.041,200.916 250.707,203.749 252.5,206.5C 250.5,207.833 248.5,207.833 246.5,206.5C 245.199,203.573 244.199,200.573 243.5,197.5 Z"/></g>
<g><path style="opacity:1" fill="#111111" d="M 236.5,200.5 C 239.983,201.863 241.65,204.53 241.5,208.5C 239.143,208.337 236.81,208.503 234.5,209C 226.402,211.405 218.402,213.739 210.5,216C 218.436,209.535 227.103,204.368 236.5,200.5 Z"/></g>
<g><path style="opacity:1" fill="#0f0f0f" d="M 260.5,212.5 C 263.976,211.357 267.642,211.19 271.5,212C 275.789,217.113 278.456,222.947 279.5,229.5C 275.694,229.588 272.027,228.921 268.5,227.5C 266.044,222.248 263.378,217.248 260.5,212.5 Z"/></g>
<g><path style="opacity:1" fill="#101010" d="M 238.5,212.5 C 241.044,212.104 243.211,212.771 245,214.5C 245.914,217.545 246.581,220.545 247,223.5C 236.91,222.348 226.744,222.181 216.5,223C 212.426,223.705 208.426,224.371 204.5,225C 215.489,219.508 226.822,215.341 238.5,212.5 Z"/></g>
<g><path style="opacity:1" fill="#121212" d="M 249.5,211.5 C 251.604,211.201 253.604,211.534 255.5,212.5C 258.532,216.889 260.698,221.556 262,226.5C 259.071,225.812 256.237,224.812 253.5,223.5C 251.562,219.686 250.229,215.686 249.5,211.5 Z"/></g>
<g><path style="opacity:1" fill="#f2f2f2" d="M 76.5,93.5 C 76.3836,111.178 76.717,128.845 77.5,146.5C 77.2011,148.604 77.5344,150.604 78.5,152.5C 79.4986,142.188 79.8319,131.855 79.5,121.5C 79.636,113.912 80.636,106.578 82.5,99.5C 84.7267,101.229 85.7267,103.562 85.5,106.5C 83.0195,129.473 82.8528,152.473 85,175.5C 86.478,190.601 91.1447,204.601 99,217.5C 109.478,227.647 121.312,235.814 134.5,242C 145.219,241.809 155.886,240.809 166.5,239C 174.278,237.112 181.612,234.112 188.5,230C 194.648,223.685 200.982,217.519 207.5,211.5C 209.842,211.775 209.842,212.608 207.5,214C 208.833,215.333 208.833,216.667 207.5,218C 208.167,218.667 208.833,219.333 209.5,220C 207.699,220.317 207.366,220.984 208.5,222C 205.246,222.25 202.246,223.25 199.5,225C 201.224,225.448 201.891,226.282 201.5,227.5C 203.098,226.515 204.765,226.349 206.5,227C 205.662,228.155 204.662,229.322 203.5,230.5C 202.167,230.833 200.833,231.167 199.5,231.5C 198.244,231.461 197.244,231.961 196.5,233C 201.823,233.499 207.156,233.666 212.5,233.5C 215.939,233.253 219.272,233.586 222.5,234.5C 223.739,235.212 224.239,236.212 224,237.5C 221.315,237.173 218.482,237.173 215.5,237.5C 207.472,237.169 199.472,237.502 191.5,238.5C 194.478,239.353 197.478,240.019 200.5,240.5C 202.466,241.834 204.466,243.168 206.5,244.5C 205.311,245.429 203.978,245.762 202.5,245.5C 197.627,245.12 192.794,244.453 188,243.5C 182.662,247.487 176.829,250.654 170.5,253C 146.548,258.677 124.882,254.01 105.5,239C 99.492,232.653 94.6587,225.486 91,217.5C 82.294,210.295 74.4607,202.295 67.5,193.5C 69.0133,192.691 70.6799,192.524 72.5,193C 71.0573,189.394 68.7239,186.561 65.5,184.5C 65.5,183.833 65.5,183.167 65.5,182.5C 65.3691,181.624 65.7025,180.957 66.5,180.5C 67.5178,181.193 68.5178,181.859 69.5,182.5C 70.2719,183.694 71.2719,184.694 72.5,185.5C 72.4614,186.756 72.9614,187.756 74,188.5C 75.1433,185.085 76.81,184.751 79,187.5C 78.9031,185.541 78.0698,183.875 76.5,182.5C 76.1218,180.079 75.4552,177.746 74.5,175.5C 74.3505,174.448 74.5172,173.448 75,172.5C 76.6354,173.849 78.1354,173.682 79.5,172C 78.3913,170.124 77.3913,168.291 76.5,166.5C 76.1667,164.5 75.8333,162.5 75.5,160.5C 75.7845,158.585 75.4511,156.919 74.5,155.5C 73.3992,149.928 72.7325,144.262 72.5,138.5C 72.3334,124.829 72.5001,111.163 73,97.5C 73.2022,95.7444 73.7022,94.0777 74.5,92.5C 75.1835,92.8627 75.8501,93.1961 76.5,93.5 Z"/></g>
<g><path style="opacity:1" fill="#4b4b4b" d="M 69.5,180.5 C 71.2503,181.659 72.2503,183.326 72.5,185.5C 71.2719,184.694 70.2719,183.694 69.5,182.5C 69.5,181.833 69.5,181.167 69.5,180.5 Z"/></g>
<g><path style="opacity:1" fill="#adadad" d="M 79.5,121.5 C 79.8319,131.855 79.4986,142.188 78.5,152.5C 77.5344,150.604 77.2011,148.604 77.5,146.5C 78.1667,138.167 78.8333,129.833 79.5,121.5 Z"/></g>
<g><path style="opacity:1" fill="#0c0c0c" d="M 222.5,234.5 C 219.272,233.586 215.939,233.253 212.5,233.5C 208.167,232.833 203.833,232.167 199.5,231.5C 200.833,231.167 202.167,230.833 203.5,230.5C 219.039,227.438 234.706,226.772 250.5,228.5C 251.675,232.86 253.008,237.194 254.5,241.5C 254.167,242.167 253.833,242.833 253.5,243.5C 243.661,238.79 233.328,235.79 222.5,234.5 Z"/></g>
<g><path style="opacity:1" fill="#848484" d="M 199.5,231.5 C 203.833,232.167 208.167,232.833 212.5,233.5C 207.156,233.666 201.823,233.499 196.5,233C 197.244,231.961 198.244,231.461 199.5,231.5 Z"/></g>
<g><path style="opacity:1" fill="#0d0d0d" d="M 255.5,229.5 C 258.794,230.115 261.961,231.115 265,232.5C 267.631,237.888 269.131,243.555 269.5,249.5C 266.138,249.93 263.305,248.93 261,246.5C 259.06,240.846 257.226,235.18 255.5,229.5 Z"/></g>
<g><path style="opacity:1" fill="#0f0f0f" d="M 215.5,237.5 C 229.246,239.682 242.579,243.682 255.5,249.5C 258.298,254.111 259.132,259.111 258,264.5C 257.439,265.022 256.772,265.355 256,265.5C 246.925,259.375 237.425,253.875 227.5,249C 218.722,245.39 209.722,242.557 200.5,240.5C 197.478,240.019 194.478,239.353 191.5,238.5C 199.472,237.502 207.472,237.169 215.5,237.5 Z"/></g>
</svg>
