<?xml version="1.0"?><svg xmlns="http://www.w3.org/2000/svg" width="36" height="36" shape-rendering="geometricPrecision" text-rendering="geometricPrecision" image-rendering="optimizeQuality" fill-rule="evenodd" clip-rule="evenodd" viewBox="0 0 36 36"><path d="m-0.1-0.1h36v36h-36v-36z"></path><path fill="#030303" d="m15.8 11.6c1.2 0.4 2.5 0.8 3.7 1.1 1.6 0.7 2.9 1.7 4 3.1 1 1.7 1.9 3.4 2.7 5.2-0.4 0.5-0.9 0.9-1.5 1.3-0.5 0.4-1 0.9-1.4 1.5-0.7 0.7-1.4 1.4-2.1 2.1-0.8 0.4-1.6 0.8-2.5 1-1.2 0.2-2.4 0.3-3.6 0.3-1.5-0.7-2.8-1.6-4-2.7-0.8-1.5-1.4-3.1-1.5-4.8-0.3-2.5-0.3-5.1 0-7.7 0.1-0.4 0.2-0.9 0.2-1.4 2.1 0.2 4 0.6 6 1z"></path><path fill="#eaeaea" d="m22.8 27.6c0.1 0 0.3 0 0.4-0.1-0.2-0.1-0.4-0.3-0.6-0.4 1 0.2 2 0.5 3 0.9 1.1 0.6 2.2 1.2 3.2 1.9 0.1 0 0.2-0.1 0.2-0.1 0.2-0.7 0.1-1.2-0.3-1.7-1.4-0.7-2.9-1.1-4.5-1.4 0.4 0 0.7 0 1 0 0-0.1 0-0.2-0.2-0.3 1.2 0.1 2.4 0.5 3.5 1l0.1-0.2c-0.1-0.5-0.3-1-0.4-1.5-1.8-0.2-3.6-0.1-5.3 0.2 0.1-0.1 0.2-0.2 0.3-0.4-0.2 0-0.4 0-0.5 0.1 0-0.1-0.1-0.2-0.3-0.3 0.4-0.2 0.7-0.3 1.1-0.3-0.2-0.1-0.1-0.2 0.1-0.2l-0.3-0.3c0.2-0.1 0.2-0.3 0-0.4 0.3-0.2 0.3-0.3 0-0.3 0.4-0.6 0.9-1.1 1.4-1.5 0.6-0.4 1.1-0.8 1.5-1.3-0.8-1.8-1.7-3.5-2.7-5.2-1.1-1.4-2.4-2.4-4-3.1-1.2-0.3-2.5-0.7-3.7-1.1-0.2-0.1-0.5-0.2-0.8-0.2 0.3-0.2 0.5-0.2 0.8-0.3-0.3-0.1-0.4-0.2-0.3-0.5 0 0.1 0.1 0.2 0.1 0.3 0.5-0.2 0.8-0.1 1.2 0.2 0-0.2-0.1-0.4-0.3-0.6 0-0.1 0.1-0.1 0.2-0.1l2 1c-2.2-2.1-4.7-3.6-7.6-4.7-0.2 0-0.3 0-0.4-0.1 0.2-0.1 0.2-0.2 0-0.2-0.2 0.1-0.4 0.1-0.6 0.1-0.1 0-0.2 0-0.3 0.1l-0.4 0.8c-0.1 0.1-0.1 0.2 0.1 0.2-0.1 0.2-0.2 0.3-0.3 0.4-0.1 0.2-0.2 0.4-0.1 0.6-0.2 0.1-0.2 0.1 0 0.2 0.3 0.1 0.6 0.2 0.9 0.4 0.2-0.1 0.3-0.2 0.5-0.1 0.2 0 0.4 0 0.6 0.1 0 0.1 0 0.2-0.1 0.3-0.1 0-0.3 0-0.5 0h-0.4v0.3c-0.1 0.1-0.2 0.1-0.2 0.2-0.1-0.2-0.1-0.4-0.3-0.5-0.2-0.2-0.5-0.2-0.8-0.2 0.1 0.2 0 0.4-0.1 0.7 0.3 0.1 0.5 0.2 0.8 0.2-0.3 0.2-0.7 0.3-1 0.1-0.1-0.1-0.2-0.2-0.2-0.3v-0.6c0 0 0.1-0.1 0.1-0.1-0.4-0.2-0.7-0.2-1 0 0 0.2 0 0.4-0.1 0.7 1.3 0.1 1.3 0.3 0 0.5-0.1 2.5 0.3 5 1 7.4 0.1-0.1 0.1-0.3 0.1-0.4 0.1 0.2 0.1 0.3 0.1 0.6-0.1 0-0.1 0.1-0.1 0.2 0 0.2 0.1 0.4 0.2 0.4 0.1 0.2 0.2 0.4 0.3 0.7-0.1 0.1-0.3 0.2-0.5 0 0 0.1 0 0.2 0 0.3-1.1-2.9-1.7-5.9-1.7-9.1-0.3 0-0.7 0.1-1 0.1 0.2 3.5 1.2 6.8 2.9 9.8 0.2 0.2 0.3 0.4 0.3 0.6-0.3-0.3-0.4-0.3-0.6 0.1-0.1-0.1-0.1-0.2-0.1-0.3-0.1-0.3-0.2-0.5-0.4-0.6v0.2c-0.1 0-0.2-0.1-0.3-0.2-0.1 0.1-0.1 0.1-0.1 0.2l-0.4-0.2c0.1 0.2 0.2 0.4 0.4 0.5 0.3 0.2 0.6 0.5 0.8 0.9-0.2 0-0.4 0-0.6 0.1-2.2-2.3-3.7-4.9-4.6-7.9-0.2-1.1 0-2.1 0.8-2.8 0.2-1 0.8-1.7 1.7-2.1 0.4-0.8 1-1.3 1.9-1.6 0.5-0.9 1.2-1.4 2.2-1.4 0.6-0.8 1.3-1.2 2.3-1.2 1.1-0.9 2.3-0.9 3.6-0.1 1.7 1.3 3.2 2.8 4.5 4.6 0.9 1.2 1.7 2.5 2.6 3.8 2.8 1 5.6 2.2 8.3 3.6 0.7 0.4 1.4 0.9 2.1 1.5 0.4 0.8 0.1 1.2-0.8 1.4 0.6 0.4 0.8 0.9 0.8 1.6-0.4 0.3-0.8 0.4-1.2 0.4 0.3 0.4 0.6 0.8 0.8 1.2 0.2 1-0.2 1.4-1.3 1.3 0.5 0.6 0.7 1.2 0.6 1.9l-0.2 0.3c-0.5 0.1-0.9 0.1-1.3 0 0.4 0.6 0.5 1.2 0.4 1.9 0 0.1-0.1 0.3-0.3 0.4-0.3 0-0.6 0-1-0.1 0 0.5 0 1.1 0 1.6-0.4 0.4-0.8 0.4-1.2 0.2-1.7-1.3-3.5-2.2-5.5-2.7z"></path><path fill="#575757" d="m26.4 20.1c-0.2-0.1-0.3-0.3-0.3-0.6 0.2 0.1 0.3 0.3 0.3 0.6z"></path><path fill="#111" d="m24.4 15.2v-0.1c2.3 1.2 4.4 2.5 6.5 4-0.4 0.2-0.8 0.3-1.3 0.4-1.6-1.6-3.4-3-5.2-4.3z"></path><path fill="#141414" d="m25.1 16.6c0.1-0.1 0.2-0.1 0.3-0.1 1.2 1 2.5 2.1 3.7 3.2-0.3 0.2-0.5 0.2-0.8 0.2-1-1.1-2.1-2.2-3.2-3.3z"></path><path fill="#181818" d="m25.8 18.1c0.7 0.7 1.4 1.4 2 2.2-0.2 0.1-0.4 0.1-0.6 0-0.4-0.7-0.9-1.5-1.4-2.1v-0.1z"></path><path fill="#a5a5a5" d="m10.4 18.3h0.7v2.3c-0.1-0.7-0.2-1.4-0.1-2.2-0.2 0-0.4 0-0.6-0.1z"></path><path fill="#e5e5e5" d="m16.8 17.8c0.6-0.1 1 0.2 1.3 0.7 0.1 0.6 0.1 1.1 0 1.7-0.3 0.5-0.8 0.7-1.4 0.5l-0.4-0.4c-0.1-0.6-0.1-1.3 0-1.9 0.1-0.3 0.3-0.4 0.5-0.6z"></path><path fill="#656565" d="m8.5 18.1l0.1 0.6c-0.1 0-0.2-0.2-0.2-0.4 0-0.1 0-0.2 0.1-0.2z"></path><path fill="#e8e8e8" d="m13.3 17.8c0.4 0 0.8 0 1.2 0.1 0.6 0.2 0.8 0.6 0.6 1.3l-0.4 0.4c0.2 0.3 0.4 0.7 0.4 1-0.1 0.2-0.3 0.2-0.4 0.1-0.2-0.3-0.4-0.6-0.5-1-0.1-0.1-0.3-0.1-0.4-0.1v1.2c-0.2 0-0.4-0.1-0.5-0.2-0.1-0.9-0.1-1.8 0-2.8z"></path><path fill="#1d1d1d" d="m13.8 18.3c0.7-0.1 1 0.1 0.7 0.8-0.3 0.1-0.5 0.1-0.7 0.1v-0.9z"></path><path fill="#efefef" d="m11.1 20.6v-2.3h-0.7c-0.1-0.1-0.1-0.3-0.1-0.5h1.9v0.5h-0.7v2.5c-0.1 0-0.3-0.1-0.4-0.2z"></path><path fill="#8c8c8c" d="m25.8 18.1v0.1c-0.2-0.2-0.3-0.4-0.4-0.6l0-0.1c0.2 0.1 0.4 0.3 0.4 0.6z"></path><path fill="#0f0f0f" d="m24.2 14.3c2.8 1 5.4 2.2 7.8 3.7 1 0.7 0.8 1.1-0.4 1-2.4-1.7-4.8-3.3-7.4-4.7z"></path><path fill="#171717" d="m6.8 20c-1.5-1.8-2.6-3.7-3.2-6-0.1-0.6-0.1-1.3 0.1-1.9 0.2 1.1 0.5 2.1 0.8 3.1 0.7 1.7 1.5 3.2 2.3 4.8z"></path><path fill="#121212" d="m5 11l0.2 1c0.1 1.1 0.3 2.3 0.7 3.4 0.5 1.6 1.2 3.3 1.9 4.9-1.6-2.3-2.8-4.8-3.4-7.6-0.1-0.5-0.1-0.9 0-1.4 0.2-0.2 0.4-0.3 0.6-0.3z"></path><path fill="#6b6b6b" d="m24.4 15.1v0.1c-0.2-0.1-0.4-0.2-0.6-0.4 0.2 0 0.4 0.1 0.6 0.3z"></path><path fill="#858585" d="m24.2 14.3c-0.3 0-0.6-0.1-0.9-0.4 0.4 0.1 0.7 0.2 0.9 0.4z"></path><path fill="#101010" d="m7.3 10.5c0.3 0 0.6 0 0.9 0.1-0.2 1.7-0.2 3.3 0 5 0 0.6 0.1 1.3 0.2 1.9 0 0.1 0 0.3-0.1 0.4-0.7-2.4-1.1-4.9-1-7.4z"></path><path fill="#8b8b8b" d="m20.1 11.6c0.3 0.2 0.4 0.4 0.5 0.7-0.2-0.2-0.4-0.3-0.5-0.5v-0.2z"></path><path fill="#464646" d="m21 11.8c0.2 0 0.3 0.2 0.3 0.4-0.2-0.1-0.3-0.3-0.3-0.4z"></path><path fill="#838383" d="m5 11c0-0.1 0.1-0.1 0.1-0.1 0.1 0.3 0.2 0.7 0.1 1.1l-0.2-1z"></path><path fill="#4b4b4b" d="m18.7 11.4c0.2 0 0.3 0.1 0.4 0.2-0.2 0.1-0.3 0-0.4-0.2z"></path><path fill="#131313" d="m8.6 10.5c0.3 0 0.5 0 0.8 0.1-0.1 0.2-0.1 0.4-0.1 0.6-0.2 0.8-0.3 1.6-0.4 2.5l-0.2 2.8c-0.1-2-0.1-4-0.1-6z"></path><path fill="#0f0f0f" d="m8.4 19.7c0.1 0.3 0.2 0.6 0.2 0.8-1.7-3-2.7-6.3-2.9-9.8 0.3 0 0.7-0.1 1-0.1 0 3.2 0.6 6.2 1.7 9.1z"></path><path fill="#1a1a1a" d="m5 9.8c0.1 0.1 0.2 0.1 0.2 0.3-0.6 0.6-0.7 0.5-0.2-0.3z"></path><path fill="#171717" d="m9.6 9.5c-0.1 0.1-0.1 0.3-0.1 0.5h-0.8c0.1-0.3 0.2-0.5 0.1-0.7 0.3 0 0.6 0 0.8 0.2z"></path><path fill="#e2e2e2" d="m11.1 6.7l-0.4 1.1c2.2 0.6 4.1 1.5 6 2.6-0.1 0-0.2 0-0.2 0.1 0.2 0.2 0.3 0.4 0.3 0.6-0.4-0.3-0.7-0.4-1.2-0.2 0-0.1-0.1-0.2-0.1-0.3-0.1 0.3 0 0.4 0.3 0.5-0.3 0.1-0.5 0.1-0.8 0.3 0.3 0 0.6 0.1 0.8 0.2-2-0.4-3.9-0.8-6-1 0 0.5-0.1 1-0.2 1.4 0-0.3-0.1-0.6-0.3-0.8 0-0.2 0-0.4 0.1-0.6-0.3-0.1-0.5-0.1-0.8-0.1-0.1 0-0.1-0.1-0.2-0.1-0.1 0.2-0.2 0.4-0.2 0.6 0 1.5-0.1 3 0 4.6-0.2-1.7-0.2-3.3 0-5-0.3-0.1-0.6-0.1-0.9-0.1 1.3-0.2 1.3-0.4 0-0.5h1c0 0.1 0.1 0.2 0.2 0.3 0.3 0.2 0.7 0.1 1-0.1-0.3 0-0.5-0.1-0.8-0.2h0.8c0-0.2 0-0.4 0.1-0.5 0.2 0.1 0.2 0.3 0.3 0.5 0-0.1 0.1-0.1 0.2-0.2 0 0.2 0.1 0.3 0.3 0.3 1.5 0.2 2.9 0.5 4.4 0.7-1.4-0.5-2.9-0.9-4.3-1.3 0.2 0 0.4 0 0.5 0 0.1-0.1 0.1-0.2 0.1-0.3 1.7 0.4 3.3 0.8 4.9 1.4-1.7-1-3.5-1.7-5.4-2.3-0.1 0.2-0.2 0.4-0.3 0.6 0.1 0 0.2 0.1 0.2 0.2-0.2-0.1-0.3 0-0.5 0.1-0.3-0.2-0.6-0.3-0.9-0.4-0.2-0.1-0.2-0.1 0-0.2 0.5 0.4 0.8 0.3 0.9-0.4-0.3-0.1-0.6-0.2-0.8-0.2 0.1-0.1 0.2-0.2 0.3-0.4-0.2 0-0.2-0.1-0.1-0.2 0.2 0.1 0.5 0.2 0.8 0.1 0.1-0.3 0.3-0.6 0.4-0.9-0.2 0-0.4 0-0.5-0.1 0.2 0 0.4 0 0.6-0.1 0.2 0 0.2 0.1 0 0.2 0.1 0.1 0.2 0.1 0.4 0.1z"></path><path fill="#161616" d="m10.5 9.5c1.4 0.4 2.9 0.8 4.3 1.3-1.5-0.2-2.9-0.5-4.4-0.7-0.2 0-0.3-0.1-0.3-0.3v-0.3h0.4z"></path><path fill="#121212" d="m11.1 9.2c-0.2-0.1-0.4-0.1-0.6-0.1 0-0.1-0.1-0.2-0.2-0.2 0.1-0.2 0.2-0.4 0.3-0.6 1.9 0.6 3.7 1.3 5.4 2.3-1.6-0.6-3.2-1-4.9-1.4z m-3.7 0.1c0.3-0.1 0.6 0 0.9 0.1v0.6h-1c0.1-0.3 0.1-0.5 0.1-0.7z"></path><path fill="#161616" d="m6.1 9.3h0.7v0.8c-0.3-0.1-0.6 0-0.9 0.1-0.1-0.4 0-0.7 0.2-0.9z"></path><path fill="#6c6c6c" d="m7.4 9.3c0.3-0.2 0.6-0.2 1 0 0 0-0.1 0.1-0.1 0.1-0.3-0.1-0.6-0.2-0.9-0.1z"></path><path fill="#0e0e0e" d="m9.2 8c0.2 0 0.5 0.1 0.8 0.2-0.1 0.7-0.4 0.8-0.9 0.4-0.1-0.2 0-0.4 0.1-0.6z"></path><path fill="#1c1c1c" d="m7.7 7.9h0.9c0 0.3-0.1 0.6-0.1 0.8h-1c0-0.3 0.1-0.5 0.2-0.8z"></path><path fill="#141414" d="m6.9 8.2c0.2 0.1 0.2 0.2 0 0.4-0.2 0.1-0.3 0.2-0.5 0.1 0.1-0.2 0.3-0.4 0.5-0.5z m14.1 3.6c-1.6-1.7-3.2-3.3-4.9-4.8-1-0.8-2.2-1.5-3.4-2.1 0.4-0.2 0.9-0.3 1.4-0.2 1 0.4 1.8 0.9 2.6 1.6 1.6 1.7 3.1 3.5 4.3 5.5z m-10.9-5.3c0.1 0.1 0.3 0.1 0.5 0.1-0.1 0.3-0.3 0.6-0.4 0.9-0.3 0.1-0.6 0-0.8-0.1l0.4-0.8c0.1-0.1 0.2-0.1 0.3-0.1z"></path><path fill="#1a1a1a" d="m8.9 6.6c0.1 0 0.2 0 0.3 0-0.1 0.3-0.2 0.5-0.4 0.7-0.2 0.1-0.5 0.1-0.8 0 0.3-0.3 0.6-0.5 0.9-0.7z"></path><path fill="#0f0f0f" d="m11.1 6.7c2.9 1.1 5.4 2.6 7.6 4.7l-2-1c-1.9-1.1-3.8-2-6-2.6l0.4-1.1z"></path><path fill="#141414" d="m11.1 5.5c0.1-0.1 0.1 0 0.2 0-0.2 0.5-0.5 0.6-1 0.5 0.2-0.3 0.5-0.4 0.8-0.5z"></path><path fill="#111" d="m20.1 11.6v0.2c-1.6-1.3-3.2-2.5-4.9-3.7-1.2-0.8-2.4-1.4-3.8-1.9 0.2-0.3 0.4-0.6 0.7-0.7 1 0.2 1.9 0.6 2.7 1.1 2 1.5 3.7 3.2 5.3 5z"></path><path fill="#e2e2e2" d="m20 19.4c-0.1-0.1-0.1-0.2-0.2-0.2-0.1 0.5-0.1 1-0.1 1.4-0.1 0.2-0.3 0.2-0.5 0 0-0.9 0-1.8 0-2.7 0.2-0.1 0.4-0.1 0.6 0 0.3 0.5 0.6 1.1 0.8 1.6 0-0.5 0.1-1.1 0-1.7 0.2 0 0.4 0 0.6 0.1 0 0.9 0 1.8 0 2.7-0.2 0.2-0.4 0.2-0.6 0l-0.6-1.2z"></path><path fill="#4f4f4f" d="m20 19.4l-0.3 1.2c0-0.4 0-0.9 0.1-1.4 0.1 0 0.1 0.1 0.2 0.2z"></path><path fill="#121212" d="m31.2 19.6c0.4 0.2 0.8 0.4 1.1 0.8 0.1 0.2 0.2 0.4 0.2 0.6-0.4 0-0.8 0.1-1.2 0-0.3-0.3-0.7-0.7-1.1-1 0.4-0.1 0.7-0.2 1-0.4z"></path><path fill="#191919" d="m6.8 20c0.2 0 0.2 0.1 0.2 0.3-0.1 0-0.2-0.2-0.2-0.3z"></path><path fill="#1a1a1a" d="m17 18.3c0.3 0 0.4 0 0.6 0.2 0 0.5 0 1.1 0 1.6-0.2 0.2-0.5 0.3-0.7 0.1-0.1-0.6-0.1-1.1 0-1.7 0.1-0.1 0.1-0.1 0.1-0.2z"></path><path fill="#e0e0e0" d="m22.9 17.8c0.5 0 0.9 0.1 1.3 0.5 0.1 0.7 0.1 1.3 0 2-0.4 0.4-0.9 0.6-1.4 0.4-0.2-0.1-0.3-0.3-0.4-0.5-0.1-0.6-0.1-1.2 0-1.8 0.1-0.2 0.3-0.4 0.5-0.6z"></path><path fill="#121212" d="m23 18.4c0.2 0 0.4 0 0.6 0.1 0.1 0.5 0.1 1.1 0 1.6-0.2 0.3-0.4 0.3-0.7 0 0-0.6 0-1.2 0.1-1.7z"></path><path fill="#5e5e5e" d="m7 20.3l0.4 0.2v0.3c-0.2-0.1-0.3-0.3-0.4-0.5z"></path><path fill="#131313" d="m26.4 20.1c0.1 0.1 0.3 0.3 0.4 0.4 0.1 0.1 0 0.2-0.1 0.3-0.2-0.2-0.3-0.5-0.3-0.7z"></path><path fill="#0e0e0e" d="m29.3 20.2c0.2 0 0.3 0 0.5 0.1l0.7 0.7c-0.8 0.4-1.4 0.2-1.8-0.5 0.2-0.1 0.4-0.2 0.6-0.3z"></path><path fill="#131313" d="m28 20.8c0.3 0 0.6 0.2 0.7 0.6-0.2 0-0.4 0.1-0.6 0.1-0.3-0.2-0.4-0.5-0.1-0.7z"></path><path fill="#1c1c1c" d="m27.1 21.2c0.2 0.1 0.3 0.3 0.3 0.6-0.4-0.1-0.5-0.3-0.3-0.6z"></path><path fill="#111" d="m29.8 21.7c0.4-0.1 0.9 0 1.4 0 0.4 0.4 0.7 0.8 1 1.3 0 0.2 0 0.3 0 0.5-0.4-0.1-0.9-0.1-1.3-0.2-0.4-0.5-0.8-1.1-1.1-1.6z"></path><path fill="#171717" d="m26.3 21.7c0.2 0 0.3 0.1 0.2 0.4-0.5 0.1-0.9 0.3-1.4 0.5 0.4-0.3 0.8-0.6 1.2-0.9z"></path><path fill="#101010" d="m28.7 21.9c0.2 0 0.3 0 0.5 0 0.3 0.4 0.6 0.8 0.9 1.2-0.4 0.1-0.8 0.2-1.1 0.1-0.2-0.4-0.4-0.7-0.6-1.1 0.1-0.1 0.2-0.1 0.3-0.2z"></path><path fill="#1e1e1e" d="m27.4 22.2c0.1 0 0.3 0 0.4 0.1 0.2 0.3 0.4 0.6 0.6 0.9-0.2 0.2-0.4 0.2-0.7 0-0.1-0.3-0.2-0.6-0.3-1z"></path><path fill="#111" d="m26.6 22.6c0.4 0.1 0.6 0.4 0.6 0.9-0.3-0.1-0.6 0-0.8 0-0.9 0.3-1.8 0.5-2.7 0.8 0.9-0.7 1.8-1.3 2.9-1.7z"></path><path fill="#0f0f0f" d="m29.3 23.9c0.4-0.1 0.8-0.1 1.2 0 0.5 0.5 0.8 1.2 0.9 1.9-0.4 0-0.8 0-1.2-0.2-0.3-0.6-0.6-1.2-0.9-1.7z"></path><path fill="#101010" d="m26.8 23.9c0.3 0 0.6 0 0.8 0.2 0.1 0.4 0.1 0.7 0.2 1-1.1-0.1-2.3-0.1-3.4 0-0.5 0.1-1 0.1-1.4 0.2 1.2-0.6 2.5-1.1 3.8-1.4z"></path><path fill="#121212" d="m28.1 23.8c0.2 0 0.4 0 0.6 0.1 0.4 0.5 0.6 1 0.8 1.6-0.4-0.1-0.7-0.2-1-0.4-0.2-0.4-0.3-0.8-0.4-1.3z"></path><path fill="#f2f2f2" d="m8.6 10.5c0 2 0 4 0.1 6 0 0.2 0 0.4 0.1 0.7 0.1-1.2 0.2-2.4 0.1-3.5 0.1-0.9 0.2-1.7 0.4-2.5 0.2 0.2 0.3 0.5 0.3 0.8-0.3 2.6-0.3 5.2 0 7.7 0.1 1.7 0.7 3.3 1.5 4.8 1.2 1.1 2.5 2 4 2.7 1.2 0 2.4-0.1 3.6-0.3 0.9-0.2 1.7-0.6 2.5-1 0.7-0.7 1.4-1.4 2.1-2.1 0.3 0 0.3 0.1 0 0.3 0.2 0.1 0.2 0.3 0 0.4l0.3 0.3c-0.2 0-0.3 0.1-0.1 0.2-0.4 0-0.7 0.1-1.1 0.3 0.2 0.1 0.3 0.2 0.3 0.3 0.1-0.1 0.3-0.1 0.5-0.1-0.1 0.2-0.2 0.3-0.3 0.4l-0.5 0.1c-0.1 0-0.2 0.1-0.3 0.2 0.6 0.1 1.2 0.1 1.8 0.1 0.4-0.1 0.8 0 1.1 0.1 0.2 0.1 0.2 0.2 0.2 0.3-0.3 0-0.6 0-1 0-0.9 0-1.8 0-2.7 0.1 0.4 0.1 0.7 0.2 1.1 0.3 0.2 0.1 0.4 0.3 0.6 0.4-0.1 0.1-0.3 0.1-0.4 0.1-0.6 0-1.1-0.1-1.6-0.2-0.7 0.4-1.3 0.8-2 1.1-2.7 0.6-5.2 0.1-7.3-1.6-0.7-0.7-1.3-1.5-1.7-2.4-0.9-0.8-1.8-1.7-2.6-2.7 0.2-0.1 0.4-0.1 0.6-0.1-0.2-0.4-0.5-0.7-0.8-0.9v-0.3c0-0.1 0-0.1 0.1-0.2 0.1 0.1 0.2 0.2 0.3 0.2 0.1 0.2 0.2 0.3 0.4 0.4 0 0.1 0 0.2 0.1 0.3 0.2-0.4 0.3-0.4 0.6-0.1 0-0.2-0.1-0.4-0.3-0.6 0-0.2-0.1-0.5-0.2-0.8 0-0.1 0-0.2 0-0.3 0.2 0.2 0.4 0.1 0.5 0-0.1-0.3-0.2-0.5-0.3-0.7l-0.1-0.6c0-0.3 0-0.4-0.1-0.6-0.1-0.6-0.2-1.3-0.2-1.9-0.1-1.6 0-3.1 0-4.6 0-0.2 0.1-0.4 0.2-0.6 0.1 0 0.1 0.1 0.2 0.1z"></path><path fill="#4b4b4b" d="m7.8 20.3c0.2 0.1 0.3 0.3 0.4 0.6-0.2-0.1-0.3-0.2-0.4-0.4v-0.2z"></path><path fill="#adadad" d="m8.9 13.7c0.1 1.1 0 2.3-0.1 3.5-0.1-0.3-0.1-0.5-0.1-0.7l0.2-2.8z"></path><path fill="#0c0c0c" d="m25 26.4c-0.3-0.1-0.7-0.2-1.1-0.1l-1.5-0.3 0.5-0.1c1.7-0.3 3.5-0.4 5.3-0.2 0.1 0.5 0.3 1 0.4 1.5l-0.1 0.2c-1.1-0.5-2.3-0.9-3.5-1z"></path><path fill="#848484" d="m22.4 26l1.5 0.3c-0.6 0-1.2 0-1.8-0.1 0.1-0.1 0.2-0.2 0.3-0.2z"></path><path fill="#0d0d0d" d="m28.7 25.8c0.4 0.1 0.8 0.2 1.1 0.4 0.3 0.6 0.5 1.2 0.5 1.9-0.4 0-0.7-0.1-0.9-0.4-0.3-0.6-0.5-1.2-0.7-1.9z"></path><path fill="#0f0f0f" d="m24.2 26.7c1.6 0.3 3.1 0.7 4.5 1.4 0.4 0.5 0.5 1 0.3 1.7 0 0-0.1 0.1-0.2 0.1-1-0.7-2.1-1.3-3.2-1.9-1-0.4-2-0.7-3-0.9-0.4-0.1-0.7-0.2-1.1-0.3 0.9-0.1 1.8-0.1 2.7-0.1z"></path></svg>