<?xml version="1.0"?><svg xmlns="http://www.w3.org/2000/svg" width="36" height="36" shape-rendering="geometricPrecision" text-rendering="geometricPrecision" image-rendering="optimizeQuality" fill-rule="evenodd" clip-rule="evenodd" viewBox="0 0 36 36"><path fill="#6fd944" d="m-0.1-0.1h3.9c-1.1 1.4-2.3 2.7-3.5 3.9-0.1 0.1-0.2 0.1-0.4 0.1v-4z"></path><path fill="#67d452" d="m3.8-0.1h3.7c-0.1 0.3-0.2 0.4-0.4 0.5-0.4 0.3-0.8 0.7-1.2 1.1-1.9 2-3.9 4-6 5.9v-3.5c0.2 0 0.3 0 0.4-0.1 1.2-1.2 2.4-2.5 3.5-3.9z"></path><path fill="#70d944" d="m7.5-0.1h20.3c-0.2 0.5-0.6 0.9-1 1.3-0.8 0.7-1.5 1.4-2.2 2.1-0.1 0.5-0.2 1-0.1 1.5 0.3 0 0.5 0.2 0.6 0.5 1 0.3 1.8 0 2.4-0.8 0.1-0.1 0.2-0.1 0.3-0.1 0.1-0.3 0.2-0.5 0.5-0.7 0.6-0.4 1.1-0.9 1.4-1.5 0.7-0.6 1.2-1.2 1.7-1.9 0-0.1 0-0.2 0-0.4h4.5v36h-36v-5.9c0.2-0.2 0.5-0.3 0.7-0.4 0.2-0.1 0.3-0.3 0.3-0.5l2.1-2.1c0.1 0 0.3-0.1 0.4-0.2 0.2-0.4 0.3-0.8 0.4-1.2-0.1-0.3-0.2-0.7-0.3-1-0.7-0.6-1.4-0.7-2.1-0.2-0.3 0.3-0.6 0.7-0.9 1l-0.6 0.3v-4.4c0.7-0.4 1.1-0.9 1.4-1.7-0.1-0.2-0.4-0.4-0.6-0.4-0.4 0.1-0.6 0.3-0.8 0.5v-1.9c0.3-0.1 0.5-0.2 0.7-0.2 0.2-0.2 0.3-0.3 0.2-0.6 0.4 0 0.7-0.1 0.9-0.4l0.1-0.6c0.2 0.2 0.3 0.2 0.2 0 0.2-0.2 0.4-0.2 0.6-0.3v-0.5c0.2 0.1 0.3 0 0.4 0 0.5-0.5 1-1.1 1.6-1.6 0.1 0 0.2-0.1 0.3 0v0.3c-0.3 0.5-0.5 1.1-0.5 1.8-0.1 0.1-0.1 0.3-0.1 0.4-0.2 1.4-0.3 2.7 0 4.1 0 0.1 0.1 0.2 0.1 0.2l0.4 0.7c0 0.2 0 0.3 0.1 0.4 0 0.3 0 0.5 0.2 0.7v0.2c0.1 0.4 0.2 0.7 0.5 0.9 0 0.3 0 0.6 0 0.9 0.1 0 0.2 0.1 0.3 0 0 0.3 0.1 0.5 0.3 0.5 0 0.2 0.1 0.3 0.3 0.3l0.2 0.4v0.2c0.2 0.5 0.1 1-0.5 1.2-0.2 1.3 0.3 1.6 1.4 1 0.1-0.1 0.1-0.3 0.1-0.4h0.6c0.2 0.1 0.4 0.2 0.6 0.4l0.3 0.4c0 0.1 0 0.2 0.1 0.3-0.5 0.5-0.9 1-1.3 1.5-0.6 0.4-1.2 0.9-1.6 1.4-0.4 0.5-0.7 1-1.1 1.4 0.1 0.2 0.1 0.3 0.2 0.4 0.2 0.1 0.3 0.1 0.5-0.1 0.8-0.9 1.7-1.6 2.7-2.3 0-0.2 0-0.3 0-0.5 0.5-0.1 0.8-0.4 0.9-0.8 0.2-0.1 0.3-0.1 0.5-0.1 0-0.1 0-0.2 0-0.3 0.1 0.2 0.3 0.2 0.5 0.2l0.5 0.1v0.1c0.1 0.2 0.2 0.4 0.3 0.5-0.3 0.3-0.7 0.7-1 1.1-0.5 1.3-0.1 2.1 1.3 2.4 0.2-0.1 0.5-0.1 0.7-0.3 0.7-0.6 1.4-1.3 2.1-2.1 1.1 0.1 2.3 0.2 3.4 0.3l1.8-0.1c0.6 0.1 1.1 0 1.5-0.3 0.5 0 0.9-0.1 1.2-0.2 0.1-0.1 0.2-0.2 0.3-0.1 0.3-0.1 0.6-0.2 0.9-0.5 0.3 0 0.6-0.2 0.8-0.6 0.2 0 0.4-0.1 0.6-0.2 0.4 0 0.7-0.3 0.8-0.7 0.3 0 0.6-0.2 0.8-0.4 0.4-0.1 0.7-0.3 1-0.5 0-0.2 0.1-0.4 0.2-0.6v-0.3c0.3-0.1 0.5-0.2 0.7-0.4 0.2-0.2 0.4-0.4 0.6-0.6 0.2 0.1 0.3 0.2 0.4 0.1-0.1-0.1-0.2-0.2-0.2-0.4 0.2-0.1 0.2-0.3 0.2-0.6 0.6-0.4 1-0.9 1-1.7v-0.3c0.2 0 0.2 0 0.3-0.2 0-0.3 0.2-0.6 0.4-0.9 0.1-0.4 0.1-0.8 0.1-1.3 0.1-0.2 0.2-0.5 0.1-0.9 0.6-2.8 0.2-5.5-1.2-8.1l-0.3-0.9c-0.2-0.5-0.5-1.1-0.8-1.6-0.1-0.1-0.3-0.2-0.5-0.2-0.2-0.3-0.4-0.5-0.8-0.6-0.1-0.6-0.5-1-1.1-1.2h-0.1c-0.2-0.3-0.5-0.5-0.9-0.6 0-0.2-0.2-0.3-0.3-0.3-0.4-0.4-0.8-0.7-1.4-0.9l0.1-0.1c-0.2-0.1-0.5-0.1-0.8-0.1-0.3-0.3-0.6-0.4-1.1-0.4-0.3-0.4-0.8-0.6-1.3-0.5-0.5-0.2-0.5-0.4 0-0.6-0.3-0.4-0.4-0.8-0.4-1.3-0.4-0.4-0.8-0.7-1.2-1-0.5 0-1.1 0-1.6 0-0.3 0.2-0.7 0.4-1.1 0.6-0.3 0.2-0.4 0.4-0.4 0.7-0.1 0.5-0.1 1-0.1 1.4l-0.4 0.2c-0.2 0-0.3 0-0.5 0.1-1.4 0.1-2.7 0.6-3.8 1.4-0.3 0-0.5 0.1-0.8 0.3-0.1 0.1-0.1 0.1-0.1 0.2h-0.1c-0.3 0.1-0.4 0.3-0.6 0.5-0.3 0.1-0.5 0.3-0.6 0.7h-0.3c-0.1 0.1-0.3 0.2-0.5 0.4-0.1 0-0.1 0.1-0.1 0.2v0.2c-0.3 0-0.5 0.1-0.5 0.4-0.3 0.2-0.6 0.5-0.7 0.9-0.1 0.1-0.1 0.2-0.2 0.3h-0.1c0-0.2 0.1-0.5 0.2-0.8 0-0.2-0.1-0.4-0.3-0.6-1.4-1-2.6-0.9-3.6 0.5-0.3 0-0.5 0.2-0.5 0.5l-0.1-0.1-1.3 1.3 0.1 0.1c-0.1 0-0.2 0.1-0.3 0.3l-0.1-0.1c-0.3 0.3-0.6 0.7-1 1v-4.5c2.1-1.9 4.1-3.9 6-5.9 0.4-0.4 0.8-0.8 1.2-1 0.2-0.2 0.3-0.3 0.4-0.6z"></path><path fill="#7bcb47" d="m27.8-0.1h3.6c0 0.2 0 0.3 0 0.4-0.5 0.7-1 1.3-1.7 1.9-0.3 0.6-0.8 1.1-1.4 1.5-0.3 0.2-0.4 0.4-0.5 0.7-0.1 0-0.2 0-0.3 0.1-0.6 0.8-1.4 1.1-2.4 0.8-0.1-0.3-0.3-0.5-0.6-0.5-0.1-0.5 0-1 0.1-1.5 0.7-0.7 1.4-1.4 2.2-2.1 0.4-0.4 0.8-0.8 1-1.3z"></path><path fill="#7ccb42" d="m20.9 4.2c-1.6-0.3-3.2-0.4-4.8-0.2 0-0.4 0-0.9 0.1-1.4 0-0.3 0.1-0.5 0.4-0.7 0.4-0.2 0.8-0.4 1.1-0.6 0.5 0 1.1 0 1.6 0 0.4 0.3 0.8 0.6 1.2 1 0 0.5 0.1 0.9 0.4 1.3-0.5 0.2-0.5 0.4 0 0.6z"></path><path fill="#7bb45d" d="m20.9 4.2l0.3 0.2h-0.4c-1.4-0.3-2.8-0.4-4.2-0.2h-0.9l0.4-0.2c1.6-0.2 3.2-0.1 4.8 0.2z"></path><path fill="#5f7a4d" d="m15.7 4.2h0.7c-0.4 0.1-0.8 0.2-1.2 0.2v-0.1c0.2-0.1 0.3-0.1 0.5-0.1z"></path><path fill="#76cb51" d="m20.9 4.2c0.5-0.1 1 0.1 1.3 0.5-0.3-0.1-0.7-0.1-1-0.3l-0.3-0.2z"></path><path fill="#77786a" d="m16.6 4.2c1.4-0.2 2.8-0.1 4.2 0.2 0.3 0.2 0.8 0.3 1.2 0.4v0.4h-0.5v-0.3c-0.4-0.1-0.8-0.1-1.2 0-0.1-0.1-0.3-0.2-0.4-0.2-1.1 0-2.1 0-3.1 0 0-0.2 0-0.3 0.1-0.4 0.3 0 0.6 0 0.9 0.1 0.2 0 0.4 0 0.5-0.1-0.6-0.1-1.1-0.1-1.7-0.1z"></path><path fill="#8aa478" d="m20.8 4.4h0.4c0.3 0.2 0.7 0.2 1 0.3l0.5 0.3c-0.3 0-0.5-0.1-0.7-0.2-0.4-0.1-0.9-0.2-1.2-0.4z"></path><path fill="#73b954" d="m15.2 4.3v0.1c-0.2 0-0.4 0-0.5 0.2-0.3-0.1-0.6 0-0.8 0.2-0.4 0-0.8 0.2-1.1 0.3-0.2 0-0.4 0.1-0.5 0.2-0.2 0.1-0.4 0.2-0.5 0.4h-0.4c1.1-0.8 2.4-1.3 3.8-1.4z"></path><path fill="#4f6a40" d="m14.7 4.6c-0.2 0.1-0.5 0.2-0.8 0.2 0.2-0.2 0.5-0.3 0.8-0.2z"></path><path fill="#9e9b95" d="m16.8 4.7c1 0 2 0 3.1 0 0.1 0 0.3 0.1 0.4 0.2-0.4-0.1-0.7 0-0.9 0.2-1.3 0-2.7 0-4 0.2-0.2 0.1-0.4 0.2-0.6 0.3h-0.1c-0.4 0.1-0.8 0.2-1.1 0.3-0.1-0.1-0.2-0.2-0.4-0.2 0.3-0.2 0.5-0.3 0.8-0.4 1-0.2 1.9-0.4 2.8-0.6z"></path><path fill="#81c161" d="m22.2 4.7c0.5 0 0.8 0.1 1.1 0.4l-0.4-0.1h-0.2l-0.5-0.3z"></path><path fill="#67665b" d="m16.4 4.2h0.2c0.6 0 1.1 0 1.7 0.1-0.1 0.1-0.3 0.1-0.5 0.1-0.3-0.1-0.6-0.1-0.9-0.1-0.1 0.1-0.1 0.2-0.1 0.4-0.9 0.2-1.8 0.4-2.8 0.6-0.3 0.1-0.5 0.2-0.8 0.4-0.1 0-0.3 0-0.4 0.1-0.1-0.3-0.3-0.4-0.6-0.3 0 0.1 0 0.2 0 0.3-0.2-0.1-0.3-0.1-0.4-0.1 0.1-0.2 0.3-0.3 0.5-0.4 0.2 0.1 0.4 0 0.5-0.2 0.3-0.1 0.7-0.3 1.1-0.3 0.3 0 0.6-0.1 0.8-0.2 0.1-0.2 0.3-0.2 0.5-0.2 0.4 0 0.8-0.1 1.2-0.2z"></path><path fill="#adaaa3" d="m20.3 4.9c0.3 0.1 0.7 0.2 1 0.3 0.1 0.1 0.2 0.2 0.2 0.4-0.5-0.2-1-0.3-1.5-0.3l-0.6-0.2c0.2-0.2 0.5-0.3 0.9-0.2z"></path><path fill="#a4997b" d="m19.4 5.1l0.6 0.2c-1.8-0.2-3.5-0.1-5.2 0.3 0.2-0.1 0.4-0.2 0.6-0.3 1.3-0.2 2.7-0.2 4-0.2z"></path><path fill="#a0b88e" d="m22.9 5l0.4 0.1c0.3 0.1 0.5 0.3 0.6 0.5h-0.2c-0.3-0.2-0.6-0.4-0.8-0.6z"></path><path fill="#51733f" d="m12.8 5.1c-0.1 0.2-0.3 0.3-0.5 0.2 0.1-0.1 0.3-0.2 0.5-0.2z"></path><path fill="#83c663" d="m23.3 5.1c0.3 0 0.6 0 0.8 0.1l-0.1 0.1c0.6 0.2 1 0.5 1.4 0.9-0.4-0.1-0.7-0.3-1-0.6-0.2 0-0.3 0-0.5 0-0.1-0.2-0.3-0.4-0.6-0.5z"></path><path fill="#80682d" d="m19.5 5.7c0 0.1 0.1 0.2 0.2 0.3 0.4 0 0.7 0 0.9 0.1-0.6 0.2-1.2 0.1-1.8-0.4 0.3 0 0.5-0.1 0.7-0.2 0 0 0 0.1 0 0.2z"></path><path fill="#73b355" d="m11.4 5.7l-0.7 0.5h-0.2c0-0.1 0-0.1 0.1-0.2 0.3-0.2 0.5-0.3 0.8-0.3z"></path><path fill="#b49e5e" d="m20 5.3c0.5 0 1 0.1 1.5 0.3 0.5 0.2 1 0.4 1.5 0.6 0.3 0.2 0.6 0.4 0.9 0.6-0.2 0-0.3 0.1-0.3 0.3-0.2-0.2-0.4-0.3-0.7-0.4v-0.3c-0.4-0.1-0.7-0.2-1-0.4-0.1 0-0.3 0.1-0.4 0.1l-0.6-0.1c0.1-0.2 0.1-0.3-0.2-0.3-0.4-0.2-0.8-0.2-1.2 0 0-0.1 0-0.2 0-0.2-0.2 0.1-0.4 0.2-0.7 0.2 0-0.2 0-0.2-0.2-0.2-0.2-0.1-0.4-0.2-0.7-0.2-0.4 0.1-0.8 0.2-1.2 0.3-0.4 0-0.9 0.1-1.3 0.2-0.1-0.1-0.1-0.1-0.2-0.1-0.1 0.2-0.3 0.3-0.5 0.4l-0.2-0.1c0-0.1-0.1-0.1-0.2-0.1 0.2-0.1 0.3-0.2 0.4-0.3h0.1c1.7-0.4 3.4-0.5 5.2-0.3z"></path><path fill="#e3c979" d="m20.9 6c-0.1 0-0.1 0.1-0.1 0.1h-0.2c-0.2-0.1-0.5-0.1-0.9-0.1-0.1-0.1-0.2-0.2-0.2-0.3 0.4-0.2 0.8-0.2 1.2 0 0.3 0 0.3 0.1 0.2 0.3z"></path><path fill="#e2c774" d="m16.7 5.6v0.3c-0.2 0-0.4 0-0.6 0.1-0.3 0.1-0.6 0-0.9-0.1 0.1-0.1 0.1-0.1 0.2-0.1 0.4-0.1 0.9-0.2 1.3-0.2z"></path><path fill="#e4c875" d="m18.6 5.5c0.2 0 0.2 0 0.2 0.2-0.4 0.1-0.8 0.1-1.3 0.1v-0.3h1.1z"></path><path fill="#58654a" d="m11.4 5.7h0.2c-0.1 0.3-0.4 0.5-0.9 0.5l0.7-0.5z"></path><path fill="#c4c1ba" d="m13.2 5.7c0.2 0 0.3 0.1 0.4 0.2-0.7 0.3-1.3 0.6-2 0.9-0.1-0.1-0.3-0.1-0.5-0.1 0.5-0.3 1.1-0.6 1.7-0.9 0.1-0.1 0.3-0.1 0.4-0.1z"></path><path fill="#757268" d="m12.8 5.8c-0.6 0.3-1.2 0.6-1.7 0.9-0.4 0.2-0.7 0.4-1 0.7l-0.5-0.3 0.2-0.4c0.2 0 0.3-0.1 0.4-0.1 0.2 0 0.4-0.2 0.5-0.4 0.5 0 0.8-0.2 0.9-0.5h0.2c0.1 0 0.2 0 0.4 0.1 0-0.1 0-0.2 0-0.3 0.3-0.1 0.5 0 0.6 0.3z"></path><path fill="#8e7535" d="m15.4 5.8c-0.1 0-0.1 0-0.2 0.1 0.3 0.1 0.6 0.2 0.9 0.1 0.2 0 0.3 0 0.5 0.1-0.6 0.2-1.3 0.2-1.9 0 0.2-0.1 0.4-0.2 0.5-0.4 0.1 0 0.1 0 0.2 0.1z"></path><path fill="#a9914b" d="m18.6 5.5h-1.1v0.3c0.5 0 0.9 0 1.3-0.1 0.6 0.5 1.2 0.6 1.8 0.4h0.2c-0.5 0.2-1.1 0.3-1.6 0.4-1.2-0.2-2.4-0.2-3.6 0-0.2-0.2-0.3-0.2-0.5 0-0.2-0.1-0.3-0.2-0.4-0.3v-0.1c0.6 0.2 1.3 0.2 1.9 0-0.2-0.1-0.3-0.1-0.5-0.1 0.2-0.1 0.4-0.1 0.6-0.1v-0.3c0.4-0.1 0.8-0.2 1.2-0.3 0.3 0 0.5 0.1 0.7 0.2z"></path><path fill="#735c21" d="m17.5 5.8c0.3 0.1 0.7 0.1 1.1 0.2-0.6 0.1-1.2 0-1.8-0.3 0.3 0 0.5 0 0.7 0.1z"></path><path fill="#856e32" d="m20.9 6l0.6 0.1c0.1 0.2 0.1 0.3 0.2 0.4h-0.3c-0.2-0.2-0.4-0.3-0.5-0.5z"></path><path fill="#537043" d="m10.4 6.2h0.3c-0.1 0.2-0.3 0.4-0.5 0.4l0.2-0.4z"></path><path fill="#e7cf81" d="m22.9 6.7c-0.4 0-0.8-0.1-1.2-0.2-0.1-0.1-0.1-0.2-0.2-0.4 0.1 0 0.3-0.1 0.4-0.1 0.3 0.2 0.6 0.3 1 0.4v0.3z"></path><path fill="#e4c874" d="m14.5 6l0.2 0.1v0.1c0 0.1-0.1 0.2-0.1 0.2-0.4 0.1-0.8 0.2-1.3 0.3v-0.3c0.4-0.1 0.8-0.2 1.2-0.4z"></path><path fill="#97c97e" d="m25.4 6.2c0.1 0 0.3 0.1 0.3 0.3-0.2 0-0.3-0.1-0.3-0.3z"></path><path fill="#74ba55" d="m10.4 6.2l-0.2 0.4c-0.1 0-0.2 0.1-0.4 0.1 0.2-0.2 0.3-0.4 0.6-0.5z"></path><path fill="#c4ac66" d="m20.9 6c0.1 0.2 0.3 0.3 0.5 0.5 0 0.1 0.1 0.2 0.1 0.3 1.2 0.3 2.2 0.9 3.1 1.6l-1-0.5c-0.7-0.4-1.5-0.8-2.3-1-0.3-0.1-0.7-0.2-1.1-0.3-0.3-0.1-0.7-0.1-1-0.1 0.5-0.1 1.1-0.2 1.6-0.4 0 0 0-0.1 0.1-0.1z"></path><path fill="#97803f" d="m14.3 5.9c0.1 0 0.2 0 0.2 0.1-0.4 0.2-0.8 0.3-1.2 0.4v0.3c0.5-0.1 0.9-0.2 1.3-0.3-0.5 0.5-1.1 0.6-1.8 0.4 0.1-0.1 0.3-0.3 0.3-0.4l1.2-0.5z"></path><path fill="#908d85" d="m22 4.8c0.2 0.1 0.4 0.2 0.7 0.2h0.2c0.2 0.2 0.5 0.4 0.8 0.6-0.1 0.1-0.2 0.2-0.4 0.3 1.4 0.7 2.6 1.5 3.8 2.5 0.1-0.2 0-0.3-0.2-0.5l0.2-0.1c0.1 0.1 0.2 0.2 0.4 0.2 0.1 0.1 0.1 0.2 0.1 0.3l0.8 0.9c-0.1 0.3-0.1 0.6 0.1 0.9 0.8 1.2 1.4 2.5 1.8 3.9h-0.2c-0.1-0.3-0.2-0.7-0.3-1-0.3-0.7-0.7-1.5-1.1-2.1-0.5-0.7-1-1.4-1.5-2.1-0.7-0.4-1.3-0.8-1.9-1.3l-0.3-0.3c-0.5-0.2-0.9-0.5-1.3-0.8-0.2-0.1-0.5-0.1-0.7-0.2-0.5-0.2-1-0.4-1.5-0.6 0-0.2-0.1-0.3-0.2-0.4-0.3-0.1-0.7-0.2-1-0.3 0.4-0.1 0.8-0.1 1.2 0v0.3h0.5v-0.4z"></path><path fill="#92c778" d="m25.7 6.5c0.4 0.1 0.7 0.3 0.9 0.6-0.3-0.1-0.6-0.4-0.9-0.6z"></path><path fill="#91793c" d="m12.4 6.7v0.1c-0.1 0.1-0.2 0.2-0.4 0.2 0.1-0.1 0.2-0.2 0.4-0.3z"></path><path fill="#e6cb75" d="m12.4 6.8c0.2 0.1 0.2 0.3 0 0.5-0.3 0.1-0.6 0.2-0.9 0.3 0 0-0.1-0.1-0.1-0.1 0.2-0.1 0.4-0.3 0.6-0.5 0.2 0 0.3-0.1 0.4-0.2z"></path><path fill="#8b753b" d="m19.2 6.5c0.3 0 0.7 0 1 0.1-1.3 0-2.5 0-3.8 0-0.4 0.1-0.8 0.2-1.2 0.3-0.4 0.1-0.9 0.2-1.3 0.3-0.7 0.2-1.3 0.6-1.8 1-0.1 0-0.3 0.1-0.3 0.2-0.2 0-0.4 0.1-0.6 0.3-0.4 0.2-0.7 0.5-1 0.9l-1 0.9c0.2-0.3 0.4-0.7 0.8-1 0.9-0.8 1.9-1.6 3-2.1 0.9-0.4 1.7-0.7 2.6-0.9 1.2-0.2 2.4-0.2 3.6 0z"></path><path fill="#877137" d="m19.6 7c0.7 0.1 1.3 0.3 1.9 0.6-2-0.5-4-0.6-6-0.3-0.2 0-0.3 0.1-0.4 0.2-0.5 0.2-1.1 0.3-1.7 0.4v-0.1c0.7-0.3 1.3-0.5 2-0.7 1.4-0.2 2.8-0.2 4.2-0.1z"></path><path fill="#836d33" d="m21.7 6.5c0.4 0.1 0.8 0.2 1.2 0.2 0.3 0.1 0.5 0.2 0.7 0.4 0.2 0.2 0.5 0.4 0.8 0.5 0 0.1 0 0.1 0.1 0.1 0 0.1-0.1 0.1-0.1 0.1-0.4-0.2-0.7-0.4-1.1-0.7-0.6-0.1-1.1-0.3-1.6-0.6z"></path><path fill="#edd78f" d="m23.9 6.8c0.3 0.2 0.5 0.4 0.9 0.6l0 0.1c-0.1 0.1-0.3 0.1-0.4 0.1-0.3-0.1-0.6-0.3-0.8-0.5 0-0.2 0.1-0.3 0.3-0.3z"></path><path fill="#d2bc7c" d="m14.7 6.2c0.1 0.1 0.2 0.2 0.4 0.3 0.2-0.2 0.3-0.2 0.5 0-0.9 0.2-1.7 0.5-2.6 0.9-0.5 0.1-0.9 0.2-1.4 0.3 0 0-0.1 0-0.1-0.1 0.3-0.1 0.6-0.2 0.9-0.3 0.2-0.2 0.2-0.4 0-0.5v-0.1c0.2-0.2 0.4-0.3 0.7-0.3 0 0.1-0.2 0.3-0.3 0.4 0.7 0.2 1.3 0.1 1.8-0.4 0 0 0.1-0.1 0.1-0.2z"></path><path fill="#698754" d="m9.8 6.7l-0.2 0.4c-0.1 0.2-0.2 0.3-0.4 0.3 0.1-0.4 0.3-0.6 0.6-0.7z"></path><path fill="#cdbf96" d="m14.7 5.6c-0.1 0.1-0.2 0.2-0.4 0.3l-1.2 0.5c-0.3 0-0.5 0.1-0.7 0.3-0.2 0.1-0.3 0.2-0.4 0.3-0.5 0.1-0.9 0.4-1.1 0.8-0.2 0-0.3 0-0.4 0.1-0.5 0.4-1 0.8-1.3 1.3-0.3 0-0.5 0.1-0.6 0.4-0.1 0.1-0.2 0.3-0.2 0.5h-0.4c0.3-0.5 0.7-0.9 1.1-1.3 0.8-0.8 1.7-1.5 2.5-2 0.7-0.3 1.3-0.6 2-0.9 0.3-0.1 0.7-0.2 1.1-0.3z"></path><path fill="#c8b170" d="m19.6 7c0.4-0.1 0.8-0.1 1.3 0 1 0.4 2 0.8 3 1.4 0.5 0.3 0.9 0.7 1.2 1.1-0.5-0.4-1.1-0.8-1.8-1.2-0.3-0.2-0.8-0.4-1.2-0.5-0.1-0.1-0.3-0.2-0.6-0.2-0.6-0.3-1.2-0.5-1.9-0.6z"></path><path fill="#aeac9f" d="m23.7 5.6h0.2c0.2 0 0.3 0 0.5 0 0.3 0.3 0.6 0.5 1 0.6 0 0.2 0.1 0.3 0.3 0.3 0.3 0.2 0.6 0.5 0.9 0.6h0.1c0.3 0.3 0.6 0.6 0.8 0.9-0.2 0-0.3-0.1-0.4-0.2l-0.2 0.1c0.2 0.2 0.3 0.3 0.2 0.5-1.2-1-2.4-1.8-3.8-2.5 0.2-0.1 0.3-0.2 0.4-0.3z"></path><path fill="#74b356" d="m8.9 7.4c-0.1 0.3-0.3 0.5-0.6 0.6 0-0.1 0-0.2 0.1-0.2 0.2-0.2 0.4-0.3 0.5-0.4z"></path><path fill="#7ec85e" d="m26.7 7.1c0.6 0.2 1 0.6 1.1 1.2h-0.2c0-0.1 0-0.2-0.1-0.3-0.2-0.3-0.5-0.6-0.8-0.9z"></path><path fill="#8f793d" d="m12 7c-0.2 0.2-0.4 0.4-0.6 0.5 0 0 0.1 0.1 0.1 0.1 0 0.1 0.1 0.1 0.1 0.1-0.2 0.1-0.4 0.2-0.7 0.2 0 0-0.1 0 0-0.1 0.2-0.4 0.6-0.7 1.1-0.8z"></path><path fill="#c2af78" d="m15.2 6.9c0.4 0 0.5 0.1 0.2 0.2-0.7 0.2-1.3 0.4-2 0.7h-0.2c0 0 0-0.1-0.1-0.1-0.3 0.2-0.7 0.3-1 0.5 0.5-0.4 1.1-0.8 1.8-1 0.4-0.1 0.9-0.2 1.3-0.3z"></path><path fill="#7bd93f" d="m6.8 9.8c-0.3 0.3-0.5 0.6-0.6 0.9-0.3 0.3-0.5 0.7-0.5 1.2h-0.1c-0.5 0.4-0.8 1-0.7 1.7-0.1-0.1-0.2 0-0.3 0-0.6 0.5-1.1 1.1-1.6 1.6-0.1 0-0.2 0.1-0.4 0v0.5c-0.2 0.1-0.4 0.1-0.6 0.3 0.1 0.2 0 0.2-0.2 0l-0.1 0.6c-0.2 0.3-0.5 0.4-0.9 0.4 0.1 0.3 0 0.4-0.2 0.6-0.2 0-0.4 0.1-0.7 0.2v-5.9c0.4-0.3 0.7-0.7 1-1l0.1 0.1c0.1-0.2 0.2-0.3 0.3-0.3l-0.1-0.1 1.3-1.3 0.1 0.1c0-0.3 0.2-0.5 0.5-0.5 1-1.4 2.2-1.5 3.6-0.5 0.2 0.2 0.3 0.4 0.3 0.6-0.1 0.3-0.2 0.6-0.2 0.8z"></path><path fill="#e1dfd8" d="m11.1 6.7c0.2 0 0.4 0 0.5 0.1-0.8 0.5-1.7 1.2-2.5 2-0.4 0.4-0.8 0.8-1.1 1.3l-0.5 0.4-0.1-0.2c0.3-0.5 0.6-0.9 1-1.4 0.5-0.6 1-1.1 1.7-1.5 0.3-0.3 0.6-0.5 1-0.7z"></path><path fill="#8b897d" d="m9.6 7.1l0.5 0.3c-0.7 0.4-1.2 0.9-1.7 1.5h-0.2l0.1-0.6v-0.3c0.3-0.1 0.5-0.3 0.6-0.6h0.3c0.2 0 0.3-0.1 0.4-0.3z"></path><path fill="#c9b680" d="m15.1 7.5c0.2 0 0.4 0 0.5 0.1-0.5 0.2-1 0.4-1.6 0.6h-0.1c-0.1-0.1-0.3-0.2-0.5-0.2v-0.1c0.6-0.1 1.2-0.2 1.7-0.4z"></path><path fill="#e6cb76" d="m10.6 7.9c0.2 0.2 0.2 0.3 0.1 0.5-0.2 0.2-0.4 0.3-0.5 0.5h-0.2c-0.2 0-0.3 0-0.2-0.2 0.3-0.3 0.5-0.5 0.8-0.8z"></path><path fill="#c0a967" d="m17.5 7.8c0.4-0.1 0.9-0.1 1.3-0.1 2.5 0.2 4.5 1.1 6.2 2.8v0.2c-0.7-0.8-1.7-1.4-2.8-1.8-1.5-0.7-3.1-1-4.8-0.9 0.4 0.1 0.9 0 1.3-0.1-0.4-0.1-0.8-0.1-1.2-0.1z"></path><path fill="#857036" d="m20.1 7.7c1.7 0.4 3.2 1.1 4.6 2.1 0.6 0.6 1.1 1.2 1.5 1.8l-1.2-1.1c-1.7-1.7-3.7-2.6-6.2-2.8-0.4-0.1-0.9-0.1-1.4-0.1v0.4c1.7-0.1 3.3 0.2 4.8 0.9 0.7 0.3 1.3 0.8 1.8 1.3-0.5-0.3-1.1-0.7-1.7-1-0.1 0-0.3 0-0.4 0-0.1-0.2-0.2-0.4-0.5-0.4-0.4-0.2-0.9-0.3-1.3-0.3-0.2-0.1-0.4-0.2-0.6-0.2-1.2-0.1-2.3 0-3.5 0.1h-0.1c-0.1 0-0.3 0-0.4-0.1 0.1 0 0.2-0.1 0.3-0.1 0.5-0.1 0.9-0.1 1.4-0.2 0-0.1 0-0.1 0.1-0.2-0.7-0.1-1.3-0.1-1.9 0.2-0.5 0-0.9 0.1-1.3 0.3-0.1 0-0.1-0.1-0.1-0.1 0.6-0.2 1.1-0.4 1.6-0.6 1.5-0.2 3-0.1 4.5 0.1z"></path><path fill="#f0d98c" d="m17.5 7.8c0.4 0 0.8 0 1.2 0.1-0.4 0.1-0.9 0.2-1.3 0.1v-0.1c0.1 0 0.1 0 0.1-0.1z"></path><path fill="#b09957" d="m15.8 8.2h-0.2c-0.1-0.1-0.1-0.2-0.2-0.2 0.6-0.3 1.2-0.4 1.9-0.2-0.1 0.1-0.1 0.1-0.1 0.2-0.5 0.1-0.9 0.1-1.4 0.2z"></path><path fill="#9b8546" d="m18.8 7.7c-0.4 0-0.9 0-1.3 0.1 0 0.1 0 0.1-0.1 0.1v-0.3c0.5 0 1 0 1.4 0.1z"></path><path fill="#6fa853" d="m8.3 8.2v0.1l-0.5 0.3c0-0.3 0.2-0.4 0.5-0.4z"></path><path fill="#9ab388" d="m27.6 8.3h0.2c0.3 0.3 0.5 0.5 0.8 0.8v0.2l-0.2-0.1-0.8-0.9z"></path><path fill="#81c561" d="m27.8 8.3c0.4 0.1 0.6 0.3 0.8 0.6v0.2c-0.3-0.3-0.5-0.5-0.8-0.8z"></path><path fill="#928358" d="m13.2 7.8h0.2v0.2l-1.8 0.9c0.5-0.4 1.1-0.8 1.6-1.1z"></path><path fill="#d1c08e" d="m15.4 8c0.1 0 0.1 0.1 0.2 0.2-0.5 0.1-1 0.3-1.5 0.4-0.1 0-0.2 0-0.3-0.1l0.3-0.2c0.4-0.2 0.8-0.3 1.3-0.3z"></path><path fill="#ac9554" d="m21.5 7.6c0.3 0 0.5 0.1 0.6 0.2 1.5 0.7 2.8 1.7 3.9 2.8 0.3 0.4 0.5 0.7 0.8 1 0.1 0.3 0.2 0.6 0.3 0.8-0.4-0.4-0.8-0.9-1.1-1.4-0.4-0.5-0.8-0.8-1.3-1.2-1.2-1.1-2.6-1.9-4.3-2.2-0.1 0-0.2 0-0.3 0.1-1.5-0.2-3-0.3-4.5-0.1-0.1-0.1-0.3-0.1-0.5-0.1 0.1-0.1 0.2-0.2 0.4-0.2 2-0.3 4-0.2 6 0.3z"></path><path fill="#81916f" d="m8.3 8.3l-0.1 0.6c-0.1 0-0.2-0.1-0.2-0.2-0.3 0.3-0.6 0.6-0.9 0.8 0.1-0.4 0.4-0.7 0.7-0.9l0.5-0.3z"></path><path fill="#8c7436" d="m10.5 7.9h0.1c-0.3 0.3-0.5 0.5-0.8 0.8-0.1 0.2 0 0.2 0.2 0.2 0 0.1-0.1 0.2-0.2 0.3-0.2-0.1-0.4-0.1-0.6 0 0.3-0.5 0.8-0.9 1.3-1.3z"></path><path fill="#cbb880" d="m15.9 8.4h0.1c0.3-0.1 0.4 0 0.5 0.2-0.4 0-0.8 0.1-1.1 0.2-0.4 0.1-0.8 0.2-1.2 0.4l-0.1-0.3c0.6-0.2 1.2-0.4 1.8-0.5z"></path><path fill="#b19b5d" d="m16 8.4c1.2-0.1 2.3-0.2 3.5-0.1 0.2 0 0.4 0.1 0.6 0.2-0.3-0.1-0.6 0-0.8 0.2-0.1-0.1-0.3-0.1-0.5-0.1-0.4-0.2-0.8-0.3-1.3-0.2v0.3c-0.2-0.4-0.3-0.4-0.5 0v1c-0.2-0.3-0.2-0.7-0.2-1.1h-0.3c-0.1-0.2-0.2-0.3-0.5-0.2z"></path><path fill="#ebd489" d="m18.8 8.6c-0.4 0.1-0.8 0.1-1.3 0.1v-0.3c0.5-0.1 0.9 0 1.3 0.2z"></path><path fill="#725d27" d="m24.7 7.7c0.3 0.1 0.5 0.3 0.7 0.6 0.2 0.2 0.5 0.4 0.8 0.6v0.2c0 0-0.1 0-0.1 0.1-0.6-0.4-1-0.9-1.4-1.5z"></path><path fill="#ebd694" d="m26.2 8.9c-0.3-0.2-0.6-0.4-0.8-0.6 0-0.2 0-0.3 0.1-0.4 0.5 0.3 0.8 0.6 1 1h-0.3z"></path><path fill="#d7c38b" d="m13 7.4c-1.1 0.5-2.1 1.3-3 2.1-0.1 0-0.1 0-0.2-0.1 0.2-0.1 0.4-0.2 0.4-0.5 0.1-0.2 0.3-0.3 0.5-0.5 0.1-0.2 0.1-0.3-0.1-0.5h-0.1c0.1-0.1 0.2-0.1 0.4-0.1-0.1 0.1 0 0.1 0 0.1 0.3 0 0.5-0.1 0.7-0.2 0.5-0.1 0.9-0.2 1.4-0.3z"></path><path fill="#d7cdaf" d="m13.4 8c0.2 0 0.4 0.1 0.5 0.2-1 0.4-2 1-2.8 1.8v-0.5c0.2-0.1 0.4-0.3 0.5-0.6l1.8-0.9z"></path><path fill="#95875f" d="m13.9 8.2h0.1c0 0 0 0.1 0.1 0.1l-0.3 0.2c-1 0.3-1.8 0.9-2.5 1.6-0.2 0.2-0.4 0.3-0.7 0.4l0.5-0.5c0.8-0.8 1.8-1.4 2.8-1.8z"></path><path fill="#d7ccab" d="m13.2 7.8c-0.5 0.3-1.1 0.7-1.6 1.1h-0.2c0.1-0.2 0.2-0.4 0.4-0.5 0-0.1 0.2-0.2 0.3-0.2 0.3-0.2 0.7-0.3 1-0.5 0.1 0 0.1 0.1 0.1 0.1z"></path><path fill="#ceb879" d="m20.1 8.5c0.4 0 0.9 0.1 1.3 0.3 0.3 0 0.4 0.2 0.5 0.4 0.8 0.4 1.6 0.9 2.2 1.5h-0.1c-1.2-0.9-2.5-1.6-4-1.9-0.2-0.1-0.4-0.1-0.6 0l0.1 0.1c0.7 0.1 1.3 0.2 1.8 0.5l1.6 1.1v0.1c-0.4-0.3-0.8-0.5-1.4-0.6-0.5-0.4-1.1-0.6-1.8-0.7 0-0.1-0.1-0.2-0.3-0.1 0 0.2 0 0.3 0.1 0.5 0 0-0.1 0-0.2 0v-1c0.2-0.2 0.5-0.3 0.8-0.2z"></path><path fill="#7c662c" d="m17.5 8.7c0.3 0.1 0.7 0.2 1.1 0.2-0.3 0-0.7 0.1-1 0-0.2 0-0.4-0.1-0.6-0.2 0.2-0.4 0.3-0.4 0.5 0z"></path><path fill="#786632" d="m18.8 8.6c0.2 0 0.4 0 0.5 0.1v0.9c-0.1-0.2-0.2-0.5-0.1-0.8-0.2 0.1-0.3 0-0.4-0.2z"></path><path fill="#cfbd89" d="m11.8 8.4c-0.2 0.1-0.3 0.3-0.4 0.5-0.6 0.6-1.2 1.2-1.8 1.7 0-0.1 0-0.2 0.1-0.3 0.2-0.2 0.4-0.4 0.5-0.7 0.3-0.4 0.6-0.7 1-0.9 0.2-0.2 0.4-0.3 0.6-0.3z"></path><path fill="#d8cfb3" d="m13.8 8.5c0.1 0.1 0.2 0.1 0.3 0.1-1 0.6-2 1.2-2.9 1.9-0.1 0-0.1 0-0.1 0 0.1-0.1 0.2-0.3 0.2-0.4 0.7-0.7 1.5-1.3 2.5-1.6z"></path><path fill="#cdbc8a" d="m14.3 9.7c0 0-0.1-0.1-0.2-0.1-0.2 0.1-0.4 0.2-0.7 0.2 0.2 0 0.3-0.2 0.4-0.3 0.3 0 0.6-0.1 0.9-0.3 0.4-0.1 0.8-0.1 1.2-0.1-0.5 0.2-1 0.5-1.6 0.6z"></path><path fill="#b79e52" d="m17 8.7c0.2 0.1 0.4 0.2 0.6 0.2 0.5 0.2 1 0.2 1.5 0.2v0.4c-0.7 0-1.4 0-2.1-0.1v-0.7z"></path><path fill="#cfba7d" d="m20.1 7.7c0.1-0.1 0.2-0.1 0.3-0.1 1.7 0.3 3.1 1.1 4.3 2.2-1.4-1-2.9-1.7-4.6-2.1z"></path><path fill="#806c37" d="m22.1 7.8c0.4 0.1 0.9 0.3 1.2 0.5 0.7 0.4 1.3 0.8 1.8 1.2 0.4 0.4 0.7 0.7 0.9 1.1-1.1-1.1-2.4-2.1-3.9-2.8z"></path><path fill="#e9d493" d="m26.8 9.4c0.4 0.1 0.7 0.3 1 0.7 0.1 0.1 0.1 0.3-0.1 0.4-0.3-0.2-0.5-0.5-0.8-0.8-0.1-0.1-0.1-0.2-0.1-0.3z"></path><path fill="#95855a" d="m15.6 8.2h0.2c-0.1 0-0.2 0.1-0.3 0.1 0.1 0.1 0.3 0.1 0.4 0.1-0.6 0.1-1.2 0.3-1.8 0.5-1 0.3-1.8 0.9-2.5 1.6-0.6 0.4-1.1 0.9-1.5 1.5 0.3-0.6 0.6-1.1 1.1-1.5 0.9-0.7 1.9-1.3 2.9-1.9 0.5-0.1 1-0.3 1.5-0.4z"></path><path fill="#9a8855" d="m15.4 8.8c0.4 0.1 0.8 0.1 1.3 0v0.4c-0.3-0.1-0.5 0-0.7 0.2-0.2 0.1-0.5 0.2-0.8 0.3-0.1 0-0.3 0-0.5 0.1-0.7 0.4-1.4 0.8-2.2 1.2 0.6-0.6 1.2-1 1.8-1.3 0.6-0.1 1.1-0.4 1.6-0.6-0.4 0-0.8 0-1.2 0.1-0.3 0.2-0.6 0.3-0.9 0.3l0.4-0.3c0.4-0.2 0.8-0.3 1.2-0.4z"></path><path fill="#b8a161" d="m16 9.4c0.3-0.1 0.5 0 0.7 0.2-0.4 0.2-0.8 0.3-1.2 0.4 0-0.1 0.1-0.2 0.2-0.2-0.2-0.1-0.3-0.1-0.5-0.1 0.3-0.1 0.6-0.2 0.8-0.3z"></path><path fill="#856f36" d="m16.5 8.6h0.3c0 0.4 0 0.8 0.2 1.1h2.3c0.1 0.1 0.3 0.2 0.4 0.2-0.9 0.1-1.8 0-2.8-0.1-0.1 0-0.2 0-0.2-0.2-0.2-0.2-0.4-0.3-0.7-0.2 0.2-0.2 0.4-0.3 0.7-0.2v-0.4c-0.5 0.1-0.9 0.1-1.3 0 0.3-0.1 0.7-0.2 1.1-0.2z"></path><path fill="#a99354" d="m18.8 8.6c0.1 0.2 0.2 0.3 0.4 0.2-0.1 0.3 0 0.6 0.1 0.8v0.1h-2.3v-0.3c0.7 0.1 1.4 0.1 2.1 0.1v-0.4c-0.5 0-1 0-1.5-0.2 0.3 0.1 0.7 0 1 0-0.4 0-0.8-0.1-1.1-0.2 0.5 0 0.9 0 1.3-0.1z"></path><path fill="#92b17e" d="m28.6 9.3c0.3 0.1 0.4 0.3 0.5 0.5-0.3-0.1-0.4-0.3-0.5-0.5z"></path><path fill="#e9cf7c" d="m8.4 10.1c0.2-0.2 0.4-0.4 0.5-0.6 0.2-0.1 0.3-0.1 0.5-0.1-0.2 0.4-0.4 0.8-0.8 1.1-0.2-0.1-0.3-0.2-0.2-0.4z"></path><path fill="#8b753a" d="m19.7 9.3c0.7 0.1 1.3 0.3 1.8 0.7-0.6-0.2-1.3-0.5-2-0.7 0.1 0 0.2 0 0.2 0z"></path><path fill="#c4ae6e" d="m10 8.9h0.2c0 0.3-0.2 0.4-0.4 0.5 0.1 0.1 0.1 0.1 0.2 0.1-0.4 0.3-0.6 0.7-0.8 1-0.3 0.2-0.6 0.5-0.8 0.8-0.1 0.1-0.1 0.3-0.1 0.5-0.2 0-0.3 0.1-0.3 0.3-0.1-0.1-0.1-0.1-0.2-0.2 0.1-0.3 0.2-0.5 0.4-0.7-0.2-0.1-0.3-0.1-0.5-0.1 0-0.2-0.1-0.2-0.2 0-0.1 0.3-0.2 0.6-0.5 0.8 0 0.1-0.2 0.3-0.3 0.4 0.2-0.6 0.4-1.2 0.8-1.8l0.5-0.4h0.4c-0.1 0.2 0 0.3 0.2 0.4 0.4-0.3 0.6-0.7 0.8-1.1-0.2 0-0.3 0-0.5 0.1 0.1 0 0-0.1 0-0.1-0.1 0.1-0.2 0.2-0.3 0.2 0.1-0.3 0.3-0.4 0.6-0.4 0.2-0.1 0.4-0.1 0.6 0 0.1-0.1 0.2-0.2 0.2-0.3z"></path><path fill="#a8a497" d="m8.2 8.9h0.2c-0.4 0.5-0.7 0.9-1 1.4-0.2 0.1-0.3 0.2-0.3 0.4h-0.3c0 0.2-0.1 0.4-0.2 0.5 0 0.1 0 0.1 0.1 0.2-0.2 0-0.4-0.1-0.6-0.2 0.1-0.1 0.2-0.3 0.1-0.5 0.4-0.2 0.6-0.5 0.7-0.9 0.1-0.1 0.1-0.2 0.2-0.3 0.3-0.2 0.6-0.5 0.9-0.8 0 0.1 0.1 0.2 0.2 0.2z"></path><path fill="#866c2b" d="m8.9 9.5c-0.1 0.2-0.3 0.4-0.5 0.6 0-0.2 0.1-0.4 0.2-0.5 0.1 0 0.2-0.1 0.3-0.2 0 0 0.1 0.1 0 0.1z"></path><path fill="#8ebe74" d="m29.1 9.8c0.3 0.2 0.5 0.5 0.5 0.8-0.2-0.2-0.4-0.5-0.5-0.8z"></path><path fill="#948865" d="m13.8 9.5c-0.1 0.1-0.2 0.3-0.4 0.3-0.4 0.3-0.8 0.6-1.2 0.9h-0.3c0.5-0.5 1.2-0.9 1.9-1.2z"></path><path fill="#857039" d="m24 10.7c0.4 0.5 0.8 0.9 1.1 1.4l-0.3-0.2c-0.9-1.2-2.1-2-3.5-2.5-0.5-0.3-1.1-0.4-1.8-0.5l-0.1-0.1c0.2-0.1 0.4-0.1 0.6 0 1.5 0.3 2.8 1 4 1.9z"></path><path fill="#b9a15e" d="m21.9 9.2c0.1 0 0.3 0 0.4 0 0.6 0.3 1.2 0.7 1.7 1l1.1 1.2v0.2l-1-0.9c-0.6-0.6-1.4-1.1-2.2-1.5z"></path><path fill="#799a64" d="m6.8 9.8h0.1c-0.1 0.4-0.3 0.7-0.7 0.9 0.1-0.3 0.3-0.6 0.6-0.9z"></path><path fill="#d8ceb1" d="m14.1 8.9l0.1 0.3-0.4 0.3c-0.7 0.3-1.4 0.7-1.9 1.2l-0.3 0.2c0-0.1 0-0.2 0-0.4 0.7-0.7 1.5-1.3 2.5-1.6z"></path><path fill="#aa9557" d="m19.7 9.3c0 0-0.1 0-0.2 0 0.7 0.2 1.4 0.5 2 0.7 2.6 1.3 4.1 3.3 4.8 6.1-0.8-2.7-2.5-4.7-5.1-6-0.4-0.2-0.9-0.3-1.3-0.1 0.5 0.2 1.1 0.5 1.8 0.7 0.5 0.3 1.1 0.7 1.6 1.1 0.2 0 0.2 0.1 0.3 0.2l0.1 0.4c-0.8-0.7-1.7-1.3-2.7-1.8-0.1 0-0.1 0.1-0.1 0.1h-0.3c-0.5-0.3-1-0.4-1.6-0.5-1-0.1-1.9 0-2.8 0.2-0.1-0.1-0.2-0.1-0.3-0.1-0.1-0.1-0.3-0.1-0.4-0.1 0.5-0.1 0.9-0.2 1.4-0.4 1 0.1 1.9 0.2 2.8 0.1-0.1 0-0.3-0.1-0.4-0.2 0.1 0 0.2 0 0.2 0-0.1-0.2-0.1-0.3-0.1-0.5 0.2-0.1 0.3 0 0.3 0.1z"></path><path fill="#937f49" d="m16.7 9.6c0 0.2 0.1 0.2 0.2 0.2-0.5 0.2-0.9 0.3-1.4 0.4-0.8 0.3-1.6 0.6-2.3 1 0.7-0.6 1.4-1 2.3-1.2 0.4-0.1 0.8-0.2 1.2-0.4z"></path><path fill="#77d052" d="m28.6 8.9c0.2 0 0.4 0.1 0.5 0.2 0.3 0.5 0.6 1.1 0.8 1.6h-0.3v-0.1c0-0.3-0.2-0.6-0.5-0.8-0.1-0.2-0.2-0.4-0.5-0.5v-0.4z"></path><path fill="#af9958" d="m21.3 9.4c1.4 0.5 2.6 1.3 3.5 2.5v0.2c-0.5-0.4-0.9-0.8-1.3-1.3-0.2-0.1-0.4-0.2-0.6-0.3l-1.6-1.1z"></path><path fill="#d7cdae" d="m14.3 9.7c-0.6 0.3-1.2 0.7-1.8 1.3h-0.2l-0.1-0.3c0.4-0.3 0.8-0.6 1.2-0.9 0.3 0 0.5-0.1 0.7-0.2 0.1 0 0.2 0.1 0.2 0.1z"></path><path fill="#c3a859" d="m20.4 10.7v0.3c-0.3 0-0.7-0.1-1-0.1-0.1 0-0.2 0.1-0.3 0.2 0 0.2 0 0.5 0.1 0.8-0.2 0.9-0.4 1.8-0.7 2.7 0 0 0.1 0.1 0.1 0.2-0.2 0-0.5 0-0.7 0.1v0.2c-0.1-0.1-0.1-0.3 0-0.5-0.2-0.3-0.3-0.6-0.2-0.9-0.2 0-0.2-0.2-0.1-0.4 0-0.2-0.1-0.4-0.2-0.5 0.1-0.2 0.2-0.3 0.4-0.3-0.2-0.4-0.2-0.9 0.1-1.3-0.1-0.1-0.2-0.3-0.3-0.5-0.5-0.1-1-0.1-1.5 0-0.3 0.1-0.7 0.2-1 0.3h-0.3c0.9-0.4 1.8-0.6 2.7-0.6 1 0 2 0.1 2.9 0.3z"></path><path fill="#917c40" d="m9.2 10.5c-0.2 0.5-0.5 0.9-0.9 1.3 0-0.2 0-0.4 0.1-0.5 0.2-0.3 0.5-0.6 0.8-0.8z"></path><path fill="#d7c796" d="m15.2 9.7c0.2 0 0.3 0 0.5 0.1-0.1 0-0.2 0.1-0.2 0.2-0.9 0.2-1.6 0.6-2.3 1.2-0.3 0.2-0.7 0.4-1 0.7 0-0.2 0-0.3 0-0.5l0.3-0.4c0.8-0.4 1.5-0.8 2.2-1.2 0.2-0.1 0.4-0.1 0.5-0.1z"></path><path fill="#948049" d="m20.6 10.7h-0.2c-0.9-0.2-1.9-0.3-2.8-0.3-1 0-1.9 0.2-2.8 0.6-0.2 0-0.5 0.1-0.7 0.3-0.5 0.3-1 0.6-1.4 1 0.8-1 1.9-1.6 3.2-2 0.1 0 0.2 0 0.3 0.1 0.9-0.2 1.8-0.3 2.8-0.2 0.6 0.1 1.1 0.2 1.6 0.5z"></path><path fill="#816c33" d="m20.6 10.7h0.3c0.4 0.2 0.8 0.4 1.1 0.7-0.5-0.1-0.9-0.4-1.4-0.7z"></path><path fill="#816d37" d="m19.9 10c1.3 0.2 2.5 0.8 3.4 1.8-0.5-0.4-1.1-0.8-1.6-1.1-0.7-0.2-1.3-0.5-1.8-0.7z"></path><path fill="#75612e" d="m26 10.6c0.4 0.3 0.7 0.6 0.8 1-0.3-0.3-0.5-0.6-0.8-1z"></path><path fill="#90bd77" d="m29.6 10.7h0.3l0.3 0.9c-0.2-0.2-0.4-0.5-0.6-0.9z"></path><path fill="#78a55f" d="m6.2 10.7c0.1 0.2 0 0.4-0.1 0.5-0.1 0.2-0.3 0.4-0.4 0.7 0-0.5 0.2-0.9 0.5-1.2z"></path><path fill="#fae8b0" d="m14.9 11.2l0.7 0.1c-0.1 0.7-0.4 1.2-0.9 1.7-0.3-0.1-0.7-0.2-1-0.5-0.1-0.1-0.2-0.2-0.1-0.4 0.3-0.4 0.8-0.7 1.3-0.9z"></path><path fill="#a08a4b" d="m21.4 6.5h0.3c0.5 0.3 1 0.5 1.6 0.6 0.4 0.3 0.7 0.5 1.1 0.7 0 0 0.1 0 0.1-0.1h0.2c0.4 0.6 0.8 1.1 1.4 1.5 0-0.1 0.1-0.1 0.1-0.1h0.1c0.3 0.5 0.7 1 1 1.5l0.5 0.3c0.4 0.9 0.8 1.7 1.3 2.5 0 0.3 0.1 0.6 0.2 0.9-0.2-0.1-0.4-0.3-0.5-0.6-0.7 0.5-1.1 0.3-1.2-0.7 0.2 0.1 0.3 0.3 0.4 0.5 0 0.1 0.1 0.1 0.2 0-0.5-1.1-1.2-2.1-1.9-3-0.3-0.4-0.7-0.7-1.2-1-0.3-0.4-0.7-0.8-1.2-1.1-1-0.6-2-1-3-1.4-0.5-0.1-0.9-0.1-1.3 0-1.4-0.1-2.8-0.1-4.2 0.1 0.3-0.1 0.2-0.2-0.2-0.2 0.4-0.1 0.8-0.2 1.2-0.3 1.3 0 2.5 0 3.8 0 0.4 0.1 0.8 0.2 1.1 0.3 0.7 0.4 1.4 0.7 2.3 1 0.4 0.4 0.8 0.7 1.3 0.9 0.3 0.1 0.5 0.3 0.7 0.6 0.5 0.6 1 1.2 1.5 1.8 0.4 0.6 0.8 1.3 1.2 1.9 0.1 0.1 0.2 0.3 0.3 0.5l0.1-0.2c-0.7-1.6-1.7-3-3-4.3-0.3-0.3-0.7-0.5-1.1-0.7-0.9-0.7-1.9-1.3-3.1-1.7 0 0-0.1-0.1-0.1-0.2z"></path><path fill="#796633" d="m25.6 9.4c1.2 1 2.1 2.2 2.7 3.7-0.4-0.6-0.8-1.3-1.2-1.9-0.5-0.6-1-1.2-1.5-1.8z"></path><path fill="#816c34" d="m23.6 7.9l1 0.5 0.3 0.4c-0.5-0.2-0.9-0.5-1.3-0.9z"></path><path fill="#836c31" d="m21.3 6.9c0.8 0.2 1.6 0.6 2.3 1-0.9-0.3-1.6-0.6-2.3-1z"></path><path fill="#bfbcb2" d="m7.4 10.3l0.1 0.2c-0.4 0.6-0.6 1.2-0.8 1.8-0.1 0.1-0.2 0.2-0.2 0.4-0.4 0.6-0.6 1.2-0.7 2-0.1 0-0.1 0.1-0.1 0.2-0.3-0.2-0.3-0.5-0.1-0.9-0.2-0.1-0.3-0.1-0.5-0.1 0.1-0.3 0.1-0.5 0.1-0.8 0-0.1 0.1-0.2 0.1-0.3 0.3-0.3 0.4-0.6 0.4-0.9 0.1-0.3 0.3-0.5 0.4-0.7 0.2 0.1 0.4 0.2 0.6 0.2-0.1-0.1-0.1-0.1-0.1-0.2 0.1-0.1 0.2-0.3 0.2-0.5h0.3c0-0.2 0.1-0.3 0.3-0.4z"></path><path fill="#e4cc86" d="m28.9 12.3c-0.3-0.2-0.5-0.5-0.7-0.9v-0.3c0.1 0 0.3 0 0.4 0.1 0.1 0.3 0.2 0.5 0.4 0.8 0.1 0.1 0 0.3-0.1 0.3z"></path><path fill="#826829" d="m7.7 11.1l-0.4 0.9c-0.1 0.1-0.2 0.2-0.2 0.3-0.1-0.1-0.1-0.3-0.1-0.4 0.3-0.2 0.4-0.5 0.5-0.8 0.1-0.2 0.2-0.2 0.2 0z"></path><path fill="#ecd384" d="m7.7 11.1c0.2 0 0.3 0 0.5 0.1-0.2 0.2-0.3 0.4-0.4 0.7-0.1 0.1-0.2 0.3-0.3 0.4-0.2 0-0.3-0.2-0.2-0.3l0.4-0.9z"></path><path fill="#ead38f" d="m16.1 11.6c0 1.2 0.3 2.3 1 3.3 0.2 0.5 0.3 1 0.3 1.6l0.2 0.1c-0.2 0.1-0.3 0.2-0.3 0.3v0.5c-0.2-0.3-0.3-0.7-0.4-1 0.3-0.1 0.4-0.3 0.3-0.6-0.4-0.6-0.8-1.3-1.1-2.1-0.5-0.6-0.6-1.2-0.2-1.9 0-0.1 0.1-0.2 0.2-0.2z"></path><path fill="#e5cc81" d="m16.1 10.7c0.3 0.2 0.5 0.4 0.6 0.7-0.2 0.3-0.3 0.7-0.2 1.1 0.3 1 0.6 1.9 0.9 2.7l0.2 1.2c0 0.3 0.2 0.5 0.3 0.8 0.1 0.1 0.1 0.3 0.1 0.4-0.2-0.2-0.5-0.5-0.7-0.7 0-0.1 0.1-0.2 0.3-0.2l-0.2-0.2c0-0.6-0.1-1.1-0.3-1.6-0.7-1-1-2.1-1-3.3 0.1-0.1 0-0.2-0.1-0.3-0.3-0.1-0.6-0.2-0.9-0.3 0.3-0.1 0.7-0.2 1-0.3z"></path><path fill="#efdb9c" d="m15.1 11c0.3 0.1 0.6 0.2 0.9 0.3 0.1 0.1 0.2 0.2 0.1 0.3-0.1 0-0.2 0.1-0.2 0.2-0.4 0.7-0.3 1.3 0.2 1.9 0.3 0.8 0.7 1.5 1.1 2.1 0.1 0.3 0 0.5-0.3 0.6-0.2-0.5-0.4-1-0.5-1.4-0.5-0.2-0.9-0.2-1.4-0.1h-0.1c0.1-0.2 0.3-0.3 0.5-0.4l-0.5-0.1c-0.4-0.4-0.8-0.7-1.3-1.1-0.2 0.1-0.3 0-0.4-0.2l-0.1 0.1c-0.1-0.1-0.1-0.2-0.2-0.3 0.1-0.4 0.3-0.7 0.7-0.8-0.1 0.2 0 0.3 0.1 0.4 0.3 0.3 0.7 0.4 1 0.5 0.5-0.5 0.8-1 0.9-1.7l-0.7-0.1 0.2-0.2z"></path><path fill="#816e3a" d="m22 11.4c1.1 0.6 1.9 1.4 2.5 2.5 0.2 0.2 0.3 0.5 0.3 0.8-0.2-0.3-0.4-0.6-0.6-0.9-0.3-0.5-0.7-1-1.2-1.4-0.3-0.3-0.6-0.7-1-1z"></path><path fill="#c6b482" d="m25.1 9.5c0.5 0.3 0.9 0.6 1.2 1 0.7 0.9 1.4 1.9 1.9 3-0.1 0.1-0.2 0.1-0.2 0-0.1-0.2-0.2-0.4-0.4-0.5-0.1-0.5-0.4-1-0.8-1.4-0.1-0.4-0.4-0.7-0.8-1-0.2-0.4-0.5-0.7-0.9-1.1z"></path><path fill="#8e7941" d="m11.4 8.9h0.2c-0.1 0.3-0.3 0.5-0.5 0.6-2.1 1.7-3.3 4-3.7 6.6-0.1 0.2-0.2 0.3-0.1 0.5v2.2c-0.2-0.2-0.3-0.7-0.3-1.4 0.1-0.6 0.1-1.3 0.3-1.9 0.3-1.9 1.1-3.5 2.3-4.9 0.6-0.5 1.2-1.1 1.8-1.7z"></path><path fill="#d9bd69" d="m20.4 11c0.1 0.2 0.2 0.4 0.2 0.6-0.3 0.2-0.6 0.6-0.8 0.9-0.1 0.6-0.3 1.2-0.6 1.7 0.1 0.1 0.1 0.3 0 0.5v0.1c-0.2 0.1-0.4 0.1-0.6 0 0-0.1-0.1-0.2-0.1-0.2 0.3-0.9 0.5-1.8 0.7-2.7-0.1-0.3-0.1-0.6-0.1-0.8 0.1-0.1 0.2-0.2 0.3-0.2 0.3 0 0.7 0.1 1 0.1z"></path><path fill="#806d38" d="m24 10.2c0.9 0.6 1.6 1.4 2.2 2.3l-1.1-1.1-1.1-1.2z"></path><path fill="#97834d" d="m13.2 11.2c-0.4 0.4-0.8 0.7-1.2 1.1v-0.1l0.2-0.3c0.3-0.3 0.7-0.5 1-0.7z"></path><path fill="#ae9b65" d="m23 6.2c0.2 0.1 0.5 0.1 0.7 0.2 0.4 0.3 0.8 0.6 1.3 0.8l0.3 0.3c0.6 0.5 1.2 0.9 1.9 1.3 0.5 0.7 1 1.4 1.5 2.1 0.4 0.6 0.8 1.4 1.1 2.1 0.1 0.3 0.2 0.7 0.3 1 0.2 0.9 0.4 1.8 0.6 2.7 0 0.9-0.1 1.8-0.2 2.7-0.1 0.5-0.2 1.1-0.3 1.6v-0.6c0.1-0.5 0.1-1.1 0-1.7 0.3-0.7 0.3-1.4 0-2.1 0.2-0.8 0-1.6-0.4-2.3 0-0.1 0.1-0.1 0.1-0.2-0.1-0.4-0.3-0.8-0.5-1.2-0.1 0-0.2 0-0.2 0.2 0.1 0.2 0.1 0.4 0.1 0.6l-0.2-0.3c0-0.4-0.1-0.7-0.2-1.1 0.1 0 0.2-0.2 0.1-0.3-0.2-0.3-0.3-0.5-0.4-0.8-0.1-0.1-0.3-0.1-0.4-0.1v0.3c-0.1-0.3-0.3-0.6-0.5-0.9 0.2-0.1 0.2-0.3 0.1-0.4-0.3-0.4-0.6-0.6-1-0.7-0.1-0.2-0.3-0.3-0.5-0.3h-0.1v-0.2h0.3c-0.2-0.4-0.5-0.7-1-1-0.1 0.1-0.1 0.2-0.1 0.4-0.2-0.3-0.4-0.5-0.7-0.6h-0.2c-0.1 0-0.1 0-0.1-0.1 0.1 0 0.3 0 0.4-0.1l0-0.1c-0.4-0.2-0.6-0.4-0.9-0.6-0.3-0.2-0.6-0.4-0.9-0.6z"></path><path fill="#7cc556" d="m5.6 11.9c-0.2 0.3-0.2 0.6-0.3 0.9 0 0.1-0.1 0.2-0.1 0.3l-0.3 0.7v-0.2c-0.1-0.7 0.2-1.3 0.7-1.7z"></path><path fill="#96824b" d="m12.3 11h0.2l-0.3 0.4c-0.5 0.4-0.9 0.9-1.3 1.4 0-0.2 0.1-0.4 0.2-0.5l1.2-1.3z"></path><path fill="#8ba778" d="m5.6 11.9h0.1c0 0.3-0.1 0.6-0.4 0.9 0.1-0.3 0.1-0.6 0.3-0.9z"></path><path fill="#745e27" d="m26.3 9.1c0.2 0 0.4 0.1 0.5 0.3 0 0.1 0 0.2 0.1 0.3 0.3 0.3 0.5 0.6 0.8 0.8 0.2 0.3 0.4 0.6 0.5 0.9 0.2 0.4 0.4 0.7 0.7 0.9 0.1 0.4 0.2 0.7 0.2 1.1-0.5-0.8-0.9-1.6-1.3-2.5l-0.5-0.3c-0.3-0.5-0.7-1-1-1.5z"></path><path fill="#897640" d="m26.8 11.6c0.4 0.4 0.7 0.9 0.8 1.4-0.1-0.1-0.3-0.2-0.4-0.2-0.1-0.1-0.1-0.2-0.1-0.4-0.1-0.2-0.2-0.5-0.3-0.8z"></path><path fill="#958046" d="m10.1 12c-0.4 0.7-0.7 1.4-1.2 2 0.2-0.6 0.5-1.2 0.8-1.7 0.1-0.1 0.2-0.2 0.4-0.3z"></path><path fill="#b39a4f" d="m20.4 10.7h0.2c0.5 0.3 0.9 0.6 1.4 0.7 0.4 0.3 0.7 0.7 1 1 0.1 0.3 0.1 0.6 0 0.9-0.2 0-0.3 0.1-0.5 0.1-0.1-0.2-0.2-0.2-0.2 0.2-0.2-0.2-0.3-0.2-0.5-0.2 0 0 0.1 0.1 0.1 0.2-0.1 0.1-0.2 0.1-0.3 0-0.1 0.1-0.1 0.2 0.1 0.2-0.3 0-0.5 0-0.7 0.1 0.1 0.2 0.1 0.4 0 0.6-0.1 0.1-0.2 0-0.4 0-0.1 0.1-0.2 0.2-0.3 0.2l0.1 0.2c-0.1 0-0.3 0-0.4 0-0.3-0.1-0.5-0.1-0.8-0.1v-0.1c0.3 0 0.5-0.1 0.3-0.4l0.7-0.7c-0.2-0.1-0.3-0.3-0.2-0.4 0.2-0.2 0.4-0.2 0.6 0 0-0.2 0-0.3-0.2-0.4 0.2-0.2 0.1-0.3-0.1-0.3 0.3 0 0.7 0 1 0.2 0.1-0.1 0.2-0.2 0.2-0.3 0.1 0.2 0.2 0.2 0.3 0-0.1 0-0.2-0.1-0.3-0.1 0.4-0.1 0.5-0.3 0.2-0.7-0.4-0.3-0.8-0.5-1.3-0.6v-0.3z"></path><path fill="#c9b782" d="m22.2 8.9c1.1 0.4 2.1 1 2.8 1.8 1.3 1.4 2.1 2.9 2.6 4.7 0.2 0.1 0.4 0.3 0.6 0.5l-0.7-0.3c-0.1-0.6-0.4-1.2-0.7-1.7-0.1-0.5-0.3-1-0.6-1.4-0.6-0.9-1.3-1.7-2.2-2.3-0.5-0.5-1.1-1-1.8-1.3z"></path><path fill="#c5b37f" d="m24.6 8.4c0.4 0.2 0.8 0.4 1.1 0.7 1.3 1.3 2.3 2.7 3 4.3l-0.1 0.2c-0.1-0.2-0.2-0.4-0.3-0.5-0.6-1.5-1.5-2.7-2.7-3.7-0.2-0.3-0.4-0.5-0.7-0.6l-0.3-0.4z"></path><path fill="#d4c087" d="m14.8 11h0.3l-0.2 0.2c-0.5 0.2-1 0.5-1.3 0.9-0.4 0.1-0.6 0.4-0.7 0.8-0.2 0-0.3-0.1-0.3-0.2-0.5 0.6-0.9 1.2-1.3 1.9 0.2 0.2 0.5 0.3 0.8 0.3v0.1c-0.2 0-0.3 0-0.5 0.1h-0.1c-0.1-0.1-0.2-0.2-0.4-0.2-0.1 0.7-0.2 1.3-0.4 1.9h-0.1c0.1-1 0.3-2 0.8-2.9 0.4-0.5 0.8-1.1 1.3-1.6 0.4-0.4 0.9-0.7 1.4-1 0.2-0.2 0.5-0.3 0.7-0.3z"></path><path fill="#cbb986" d="m24.7 9.8c0.5 0.4 0.9 0.7 1.3 1.2 0.3 0.5 0.7 1 1.1 1.4 0 0.2 0 0.3 0.1 0.4 0.3 0.7 0.6 1.4 1.1 2.1-0.2 0-0.4-0.1-0.5-0.3-0.4-1.1-0.9-2.1-1.6-3-0.4-0.6-0.9-1.2-1.5-1.8z"></path><path fill="#888a74" d="m30.4 12.4c0.2 0.2 0.3 0.4 0.3 0.7-0.4 0.1-0.4 0.1-0.2-0.2l-0.4-0.2c0.1-0.1 0.2-0.2 0.3-0.3z"></path><path fill="#cab576" d="m11.1 9.5v0.5l-0.5 0.5c-1.4 1.3-2.3 2.9-2.8 4.9-0.1 0-0.1 0-0.1 0.1-0.1 0.3-0.2 0.6-0.3 1 0-0.1 0-0.2 0-0.4 0.4-2.6 1.6-4.9 3.7-6.6z"></path><path fill="#c9b784" d="m24 10.7h0.1l1 0.9c1.1 1.4 1.8 2.9 2.1 4.5 0.1 0.3 0.3 0.4 0.5 0.6 0 0 0 0-0.1 0h-0.2c-0.2-0.2-0.4-0.4-0.5-0.7 0-0.9-0.3-1.8-0.9-2.6-0.1-0.5-0.4-0.9-0.9-1.3-0.3-0.5-0.7-0.9-1.1-1.4z"></path><path fill="#c0a966" d="m9.7 12.3c-0.3 0.5-0.6 1.1-0.8 1.7-0.1 0.3-0.3 0.6-0.4 0.9l-0.2 0.1c0.3-0.9 0.7-1.8 1.2-2.7 0-0.1 0.1-0.1 0.2 0z"></path><path fill="#c8b682" d="m20.9 10.7c0 0 0-0.1 0.1-0.1 1 0.5 1.9 1.1 2.7 1.8 0.2 0.3 0.4 0.5 0.5 0.7 1.2 1.7 1.7 3.5 1.5 5.5-0.1 0.1-0.1 0.2-0.2 0.2 0-1.1-0.1-2.2-0.3-3.3-0.1-0.3-0.2-0.6-0.4-0.8 0-0.3-0.1-0.6-0.3-0.8-0.6-1.1-1.4-1.9-2.5-2.5-0.3-0.3-0.7-0.5-1.1-0.7z"></path><path fill="#8b7640" d="m11.9 10.7h0.2c-2.9 2.7-3.9 6-2.8 9.8-0.2-0.2-0.4-0.5-0.4-1-0.3-1.6-0.2-3.2 0.3-4.8 0.5-1.5 1.3-2.8 2.4-3.8l0.3-0.2z"></path><path fill="#ead58e" d="m6.4 14.1c0-0.3 0.1-0.5 0.2-0.8 0.1-0.2 0.3-0.5 0.5-0.8 0.1-0.1 0.1-0.1 0.2 0-0.2 0.6-0.3 1.2-0.5 1.7-0.2 0-0.3 0-0.4-0.1z"></path><path fill="#ddc273" d="m12.9 12.9c0.1 0.1 0.1 0.2 0.1 0.3l0.2-0.1c0.1 0.2 0.2 0.3 0.4 0.2 0.5 0.4 0.9 0.7 1.3 1.1l0.5 0.1c-0.2 0.1-0.4 0.2-0.5 0.4h-0.1c-0.3 0.1-0.5 0.3-0.6 0.6-0.5-0.6-1.2-0.8-1.9-0.6h-0.2c-0.3 0-0.6-0.1-0.8-0.3 0.4-0.7 0.8-1.3 1.3-1.9 0 0.1 0.1 0.2 0.3 0.2z"></path><path fill="#7f6c39" d="m26.2 12.5c0.3 0.4 0.5 0.9 0.6 1.4-0.3-0.4-0.5-0.9-0.6-1.4z"></path><path fill="#927e45" d="m12.7 12.3c-0.5 0.5-0.9 1.1-1.3 1.6 0.2-0.4 0.4-0.9 0.7-1.2 0.2-0.2 0.3-0.3 0.6-0.4z"></path><path fill="#ad9d72" d="m6.5 12.7v0.4c-0.1 0.2-0.1 0.4-0.3 0.6-0.1 0.3-0.3 0.6-0.4 1 0.1-0.8 0.3-1.4 0.7-2z"></path><path fill="#aa934b" d="m23 12.4c0.5 0.4 0.9 0.9 1.2 1.4-0.1 0-0.2 0.1-0.3 0.1-0.5-0.4-0.9-0.2-1.1 0.4 0 0.1 0.1 0.3 0.1 0.4 0.3-0.2 0.4-0.1 0.2 0.1-0.5 0-0.9-0.1-1.4-0.2-0.2 0.1-0.3 0.2-0.5 0.3 0.3 0.3 0.6 0.5 0.9 0.8-0.2 0.3-0.2 0.6-0.2 0.9l-0.1 0.7-0.5 0.6c-0.1-0.4-0.3-0.7-0.5-1 0.1-0.2 0.2-0.5 0.2-0.8 0.1 0 0.1-0.1 0.1-0.2-0.1-0.3-0.2-0.6-0.2-0.9-0.4 0.1-0.7 0-0.9-0.1 0.1 0 0.3 0 0.4 0l-0.1-0.2c0.1 0 0.2-0.1 0.3-0.2 0.2 0 0.3 0.1 0.4 0 0.1-0.2 0.1-0.4 0-0.6 0.2-0.1 0.4-0.1 0.7-0.1-0.2 0-0.2-0.1-0.1-0.2 0.1 0.1 0.2 0.1 0.3 0 0-0.1-0.1-0.2-0.1-0.2 0.2 0 0.3 0 0.5 0.2 0-0.4 0.1-0.4 0.2-0.2 0.2 0 0.3-0.1 0.5-0.1 0.1-0.3 0.1-0.6 0-0.9z"></path><path fill="#927d43" d="m10.6 10.5c-1.3 1.5-2.2 3.2-2.7 5.1 0-0.1 0-0.1-0.1-0.1v-0.1c0.5-2 1.4-3.6 2.8-4.9z"></path><path fill="#bea765" d="m11.1 12.3c-0.1 0.1-0.2 0.3-0.2 0.5-0.5 0.5-0.9 1.2-1.1 1.9-0.3 0.6-0.5 1.3-0.5 2-0.1 0.7-0.2 1.4-0.1 2.1-0.4-2.3 0.1-4.5 1.5-6.4 0.2-0.1 0.3-0.1 0.4-0.1z"></path><path fill="#b39b50" d="m24.2 13.8c0.2 0.3 0.4 0.6 0.6 0.9 0.1 0.7 0.3 1.3 0.5 2 0.1 0.7 0.1 1.4 0 2.1-0.1 0.1-0.2 0.2-0.3 0.3l-0.5-0.6c-0.1 0-0.2 0-0.3-0.2-0.1-0.4-0.3-0.8-0.4-1.3-0.1-0.8-0.3-1.5-0.7-2.2 0.2-0.2 0.1-0.3-0.1-0.1-0.1-0.1-0.2-0.3-0.2-0.4 0.2-0.6 0.6-0.8 1.1-0.4 0.1 0 0.2-0.1 0.3-0.1z"></path><path fill="#cbb77e" d="m11.3 10.1c0 0.1-0.1 0.3-0.2 0.4 0 0 0 0 0.1 0-0.5 0.4-0.8 0.9-1.1 1.5-0.2 0.1-0.3 0.2-0.4 0.3-0.1-0.1-0.2-0.1-0.2 0-0.5 0.9-0.9 1.8-1.2 2.7-0.5 1.8-0.5 3.6 0 5.4 0.1 0.5 0.3 0.9 0.5 1.3 0.3 0.5 0.5 1.1 0.9 1.6 0.4 0.5 0.7 0.9 1 1.4l-0.9-0.8c-0.2-0.5-0.5-0.9-0.9-1.3-0.3-0.8-0.6-1.6-0.9-2.3-0.3-1.6-0.4-3.1-0.1-4.7 0.5-1.9 1.4-3.6 2.7-5.1 0.3-0.1 0.5-0.2 0.7-0.4z"></path><path fill="#907c42" d="m10.9 12.8c-0.4 0.6-0.7 1.3-1.1 1.9 0.2-0.7 0.6-1.4 1.1-1.9z"></path><path fill="#8b763f" d="m12 12.3c-1.5 1.8-2.2 3.8-2 6.1h-0.2c-0.1-1.9 0.3-3.6 1.3-5.2 0.3-0.3 0.5-0.6 0.9-0.9z"></path><path fill="#7a6734" d="m21.5 10c0.6 0.1 1 0.3 1.4 0.6 2.1 1.4 3.3 3.4 3.6 5.9 0 0.1 0 0.2-0.1 0.3 0-0.2 0-0.4-0.1-0.5v-0.2c-0.7-2.8-2.2-4.8-4.8-6.1z"></path><path fill="#e4cc83" d="m29.9 14.1h-0.5l-0.1-0.4c0-0.2 0-0.4-0.1-0.6 0-0.2 0.1-0.2 0.2-0.2 0.2 0.4 0.4 0.8 0.5 1.2z"></path><path fill="#aa924c" d="m27.2 12.8c0.1 0 0.3 0.1 0.4 0.2 0.1 1 0.5 1.2 1.2 0.7 0.1 0.3 0.3 0.5 0.5 0.6 0.2 0.2 0.3 0.4 0.1 0.7-0.3 0-0.6 0-0.9 0.1-0.1 0-0.2-0.1-0.2-0.2-0.5-0.7-0.8-1.4-1.1-2.1z"></path><path fill="#ccb677" d="m10.2 9.6c-0.1 0.3-0.3 0.5-0.5 0.7-0.1 0.1-0.1 0.2-0.1 0.3-1.2 1.4-2 3-2.3 4.9-0.2 0-0.3 0.1-0.3 0.3-0.1 0.3-0.1 0.7-0.1 1-0.1-0.2-0.1-0.4-0.1-0.7 0.1-0.5 0.1-1 0.2-1.5 0.4-1 0.8-1.9 1.3-2.8 0.4-0.4 0.7-0.8 0.9-1.3l1-0.9z"></path><path fill="#8c7740" d="m11.4 13.9c-0.5 0.9-0.7 1.9-0.8 2.9 0 0.2-0.1 0.2-0.1 0-0.1-0.2-0.1-0.4-0.1-0.7 0.2-0.4 0.3-0.9 0.5-1.4 0.1-0.3 0.3-0.6 0.5-0.8z"></path><path fill="#c1a555" d="m20.4 11c0.5 0.1 0.9 0.3 1.3 0.6 0.3 0.4 0.2 0.6-0.2 0.7 0.1 0 0.2 0.1 0.3 0.1-0.1 0.2-0.2 0.2-0.3 0 0 0.1-0.1 0.2-0.2 0.3-0.3-0.2-0.7-0.2-1-0.2 0.2 0 0.3 0.1 0.1 0.3 0.2 0.1 0.2 0.2 0.2 0.4-0.2-0.2-0.4-0.2-0.6 0-0.1 0.1 0 0.3 0.2 0.4l-0.7 0.7c0.2 0.3 0 0.4-0.3 0.4 0.1-0.2 0.1-0.4 0-0.5 0.3-0.5 0.5-1.1 0.6-1.7 0.2-0.3 0.5-0.7 0.8-0.9 0-0.2-0.1-0.4-0.2-0.6z"></path><path fill="#d6b964" d="m17.9 15.1c-0.1 0.7-0.1 1.4 0 2.1-0.1-0.3-0.3-0.5-0.3-0.8l-0.2-1.2c-0.3-0.8-0.6-1.7-0.9-2.7-0.1-0.4 0-0.8 0.2-1.1-0.1-0.3-0.3-0.5-0.6-0.7 0.5-0.1 1-0.1 1.5 0 0.1 0.2 0.2 0.4 0.3 0.5-0.3 0.4-0.3 0.9-0.1 1.3-0.2 0-0.3 0.1-0.4 0.3 0.1 0.1 0.2 0.3 0.2 0.5-0.1 0.2-0.1 0.4 0.1 0.4-0.1 0.3 0 0.6 0.2 0.9-0.1 0.2-0.1 0.4 0 0.5z"></path><path fill="#cdba82" d="m12.1 10.7h0.1l0.1 0.3-1.2 1.3c-0.1 0-0.2 0-0.4 0.1-1.4 1.9-1.9 4.1-1.5 6.4 0 0.7 0.1 1.3 0.4 1.8v0.2c0.7 1.7 1.8 3.2 3.4 4.3-0.4-0.1-0.8-0.4-1.1-0.6-0.5-0.5-0.9-1-1.4-1.5-0.4-0.7-0.8-1.5-1.1-2.2 0-0.2 0-0.2-0.1-0.3-1.1-3.8-0.1-7.1 2.8-9.8z"></path><path fill="#cbb986" d="m22.9 10.6v-0.1c0.2 0.1 0.4 0.2 0.6 0.3 0.4 0.5 0.8 0.9 1.3 1.3 1.1 1.3 1.7 2.8 1.9 4.5 0 0.2 0 0.4 0.1 0.6 0.2 0 0.4 0.2 0.5 0.4-0.2 0-0.3-0.1-0.5-0.2-0.1 0-0.1 0.1-0.1 0.2 0 0.5 0 1 0 1.5 0 0.2-0.1 0.5-0.3 0.6 0.1-0.8 0.2-1.7 0.2-2.5 0-0.3 0-0.5-0.1-0.7-0.3-2.5-1.5-4.5-3.6-5.9z"></path><path fill="#ccb77d" d="m11.6 10.5c0 0.2 0 0.3 0 0.4-1.1 1-1.9 2.3-2.4 3.8-0.2 0.1-0.4 0.3-0.4 0.5-0.9 4 0.2 7.3 3.3 9.9 0.2 0.1 0.4 0.3 0.7 0.4 0.2 0.2 0.4 0.4 0.8 0.4 0.1 0.1 0.1 0.2 0 0.3l-1.2-0.6c-0.5-0.5-1-0.9-1.5-1.4-0.7-0.8-1.3-1.7-1.8-2.7-0.3-0.6-0.5-1.3-0.6-2 0-0.2 0-0.3-0.1-0.4-0.2-1.8 0-3.4 0.5-5.1 0.5-0.6 0.8-1.3 1.2-2 0.4-0.6 0.9-1.1 1.5-1.5z"></path><path fill="#cdbb87" d="m14.2 15.5c0.1 0.1 0.1 0.2 0.1 0.4 0.1 0.2 0 0.4-0.2 0.6 0.1-0.4 0-0.7-0.2-1-0.1-0.2-0.2-0.3-0.3-0.3-0.4-0.3-0.8-0.3-1.3-0.2v-0.1c0.7-0.2 1.4 0 1.9 0.6z"></path><path fill="#b2a171" d="m17.9 14.9c0.2-0.1 0.5-0.1 0.7-0.1 0.2 0.1 0.4 0.1 0.6 0 0.3 0 0.5 0 0.8 0.1 0.2 0.1 0.5 0.2 0.9 0.1 0 0.3 0.1 0.6 0.2 0.9 0 0.1 0 0.2-0.1 0.2-0.1-0.3-0.1-0.6-0.3-0.9-0.1 0-0.2-0.1-0.3-0.1-0.1 0-0.2 0-0.2 0.1-0.2-0.1-0.4-0.2-0.7-0.2-0.2 0-0.4 0.1-0.5 0.1 0 0-0.1-0.1-0.2-0.1h-0.5c-0.1 0-0.2-0.1-0.4-0.1z"></path><path fill="#96c47d" d="m30.2 11.6c1.4 2.6 1.8 5.3 1.2 8.1 0.2-1.2 0.2-2.4 0-3.7 0.1-0.3 0-0.6-0.2-0.9 0-0.7-0.2-1.4-0.5-2 0-0.3-0.1-0.5-0.3-0.7-0.1-0.2-0.2-0.5-0.2-0.8z"></path><path fill="#7e6b39" d="m26 13.4c0.6 0.8 0.9 1.7 0.9 2.6-0.3-0.8-0.6-1.6-0.9-2.6z"></path><path fill="#a89359" d="m6.2 13.7c0 0.2 0 0.4 0 0.6-0.4 0.7-0.5 1.5-0.4 2.3 0 0.2-0.1 0.3-0.2 0.3v-0.8c0-0.4 0-0.8 0.1-1.2 0-0.1 0-0.2 0.1-0.2 0.1-0.4 0.3-0.7 0.4-1z"></path><path fill="#cdb061" d="m14.8 14.9c0.1 0.2 0.3 0.3 0.6 0.5 0.1 0.1 0.2 0.2 0.2 0.4-0.4 0.7-0.7 1.5-1 2.3-0.1-0.3-0.3-0.5-0.5-0.7 0-0.2-0.1-0.3-0.3-0.2-0.4-0.2-0.4-0.3-0.1-0.5 0.1 0.1 0.1 0.1 0.2-0.1l0.2-0.1c0.2-0.2 0.3-0.4 0.2-0.6 0-0.2 0-0.3-0.1-0.4 0.1-0.3 0.3-0.5 0.6-0.6z"></path><path fill="#65a04b" d="m4.9 13.9v0.3c-0.2 0.5-0.3 1-0.5 1.5 0-0.7 0.2-1.3 0.5-1.8z"></path><path fill="#6f755c" d="m4.9 14.2c-0.1 0.4-0.1 0.7-0.1 1 0.5 0 0.5 0.1 0.2 0.4-0.1-0.1-0.1-0.1-0.2-0.1-0.1 0.2-0.2 0.4-0.4 0.6v-0.4c0.2-0.5 0.3-1 0.5-1.5z"></path><path fill="#e7d089" d="m6.4 14.3c0.1 0.7 0.1 1.3 0 2-0.2 0-0.4-0.1-0.5-0.2 0-0.6 0.2-1.2 0.5-1.8z"></path><path fill="#d4cdb8" d="m16.9 16.4c0.1 0.3 0.2 0.7 0.4 1 0.2 0.5 0.3 0.9 0.4 1.4h-0.2c-0.3-0.5-0.5-1.1-0.7-1.8-0.2-0.6-0.5-1.3-0.8-2l-0.1 0.2c0.3 0.7 0.6 1.3 0.7 2.1 0 0 0 0.1-0.1 0.1 0-0.2-0.1-0.3-0.2-0.4-0.1-0.2-0.2-0.5-0.3-0.7-0.1-0.2-0.2-0.2-0.2 0-0.1 0-0.2 0-0.3 0.1 0-0.2 0.1-0.4 0.1-0.6 0.1-0.2 0.1-0.4-0.1-0.6-0.2-0.1-0.3-0.2-0.5-0.3 0.5-0.1 0.9-0.1 1.4 0.1 0.1 0.4 0.3 0.9 0.5 1.4z"></path><path fill="#806d3b" d="m26.8 13.9c0.3 0.5 0.6 1.1 0.7 1.7-0.2-0.2-0.3-0.3-0.4-0.6-0.1-0.4-0.1-0.7-0.3-1.1z"></path><path fill="#796228" d="m26.2 11.6c0.7 0.9 1.2 1.9 1.6 3 0.1 0.2 0.3 0.3 0.5 0.3 0 0.1 0.1 0.2 0.2 0.2 0.3-0.1 0.6-0.1 0.9-0.1 0.2-0.3 0.1-0.5-0.1-0.7-0.1-0.3-0.2-0.6-0.2-0.9l0.2 0.3 0.1 0.4c0.3 0.3 0.4 0.6 0.2 1 0.4 1.4 0.5 2.7 0.4 4.1h-0.1c-0.1 0-0.1-0.1-0.1-0.1 0-0.2 0.1-0.3 0.1-0.5-0.3 0.1-0.6 0-0.8-0.1v-0.1h0.7v-0.6h-0.7v-0.2h0.7v-0.6c-0.7-0.1-1.5-0.1-2.3-0.1-0.1-0.1-0.1-0.1-0.1-0.2h0.2c0.7 0.1 1.5 0.2 2.3 0.1 0-0.3-0.1-0.5-0.3-0.7v-0.2c0.1-0.2 0-0.3-0.1-0.5-0.7 0.1-1.4-0.1-1.8-0.7-0.4-1.1-0.9-2.1-1.5-3.1z"></path><path fill="#939088" d="m5.2 13.1c0 0.3 0 0.5-0.1 0.8 0.2 0 0.3 0 0.5 0.1-0.2 0.4-0.2 0.7 0.1 0.9-0.1 0.4-0.1 0.8-0.1 1.2-0.1 0.1-0.2 0.2-0.2 0.4-0.1 0.9-0.1 1.9 0.1 2.8 0 0.3-0.1 0.4-0.3 0.6 0-0.5-0.1-0.9-0.2-1.4v-0.7c0.1-0.7 0.1-1.5 0-2.2 0.3-0.3 0.3-0.4-0.2-0.4 0-0.3 0-0.6 0.1-1v-0.4l0.3-0.7z"></path><path fill="#89753e" d="m8.9 14c-0.5 1.7-0.7 3.3-0.5 5.1-0.2-0.3-0.3-0.7-0.2-1.4 0-1 0.1-1.9 0.3-2.8 0.1-0.3 0.3-0.6 0.4-0.9z"></path><path fill="#80724e" d="m14.8 14.9h0.2c0.2 0.1 0.3 0.2 0.5 0.3 0.2 0.2 0.2 0.4 0.1 0.6 0-0.2-0.1-0.3-0.2-0.4-0.3-0.2-0.5-0.3-0.6-0.5z"></path><path fill="#a7945c" d="m23.1 14.8c0.4 0.7 0.6 1.4 0.7 2.2-0.4-0.6-0.6-1.3-0.7-2.1-0.4 0.1-0.8 0.1-1.2 0.1-0.1-0.1-0.3-0.1-0.4 0 0.6 0.2 0.8 0.6 0.7 1.1l-0.3 0.5c0-0.3 0-0.6 0.2-0.9-0.3-0.3-0.6-0.5-0.9-0.8 0.2-0.1 0.3-0.2 0.5-0.3 0.5 0.1 0.9 0.2 1.4 0.2z"></path><path fill="#d8be73" d="m29.4 14.1h0.5c0 0.1-0.1 0.1-0.1 0.2 0.4 0.7 0.6 1.5 0.4 2.3 0.3 0.7 0.3 1.4 0 2.1 0.1 0.6 0.1 1.2 0 1.7h-0.2c0.1-0.4 0.1-0.8 0-1.2 0.1-1.4 0-2.7-0.4-4.1 0.2-0.4 0.1-0.7-0.2-1z"></path><path fill="#a7904d" d="m25 10.5l1.2 1.1c0.6 1 1.1 2 1.5 3.1 0.4 0.6 1.1 0.8 1.8 0.7 0.1 0.2 0.2 0.3 0.1 0.5h-1.4c-0.2-0.2-0.4-0.4-0.6-0.5-0.5-1.8-1.3-3.3-2.6-4.7v-0.2z"></path><path fill="#3b341b" d="m18.8 15c0.1 0 0.2 0.1 0.2 0.1v1.6c-0.1 0.9 0 1.7 0.1 2.5-0.1 0.1-0.1 0.1-0.3 0.1v-4.3z"></path><path fill="#bcb6a6" d="m13.9 15.5c0.2 0.3 0.3 0.6 0.2 1l-0.2 0.1v-1.1z"></path><path fill="#6f6852" d="m16.8 17c-0.1 0.1-0.1 0.2-0.1 0.3h-0.1c-0.1-0.8-0.4-1.4-0.7-2.1l0.1-0.2c0.3 0.7 0.6 1.4 0.8 2z"></path><path fill="#a59155" d="m19.4 15.2h0.2l0.3 0.4c0 0.4 0 0.7-0.1 1.1-0.1 0.1-0.2 0.1-0.3 0.2-0.1 0.1-0.1 0.1-0.2-0.1 0-0.5 0-1.1 0.1-1.6z"></path><path fill="#5d553d" d="m20.2 15.2c0-0.1 0.1-0.1 0.2-0.1 0.2 0.4 0.3 0.9 0.2 1.4 0 0.2 0 0.3-0.2 0.4-0.1 0-0.1-0.1-0.1-0.2 0.1-0.2 0.1-0.4 0.1-0.6 0-0.3 0-0.6-0.2-0.9z"></path><path fill="#9f9988" d="m20.4 15.1c0.1 0 0.2 0.1 0.3 0.1 0.2 0.3 0.2 0.6 0.3 0.9-0.2 0.1-0.3 0.2-0.4 0.4 0.1-0.5 0-1-0.2-1.4z"></path><path fill="#859875" d="m31.2 15.1c0.2 0.3 0.3 0.6 0.2 0.9-0.1-0.2-0.2-0.5-0.2-0.9z"></path><path fill="#b19a5a" d="m7.8 15.4v0.1c-0.2 1-0.2 2.1-0.2 3.1v0.8c-0.2-0.9-0.3-1.9-0.3-2.8-0.1-0.2 0-0.3 0.1-0.5 0 0.2 0 0.3 0 0.4 0.1-0.4 0.2-0.7 0.3-1 0-0.1 0-0.1 0.1-0.1z"></path><path fill="#c9b57c" d="m15.5 10.2c0.1 0 0.3 0 0.4 0.1-1.3 0.4-2.4 1-3.2 2-0.3 0.1-0.4 0.2-0.5 0.4-0.4 0.3-0.6 0.8-0.8 1.2-0.2 0.2-0.4 0.5-0.5 0.8-0.2 0.5-0.3 1-0.5 1.4-0.2 0.7-0.3 1.3-0.2 2v0.2c0 0.9 0.2 1.7 0.7 2.5 0.3 0.9 0.8 1.7 1.5 2.3 0.5 0.6 1.1 1 1.7 1.4 0 0 0 0.1-0.1 0.1-0.3-0.2-0.7-0.4-1-0.6-0.7-0.7-1.3-1.4-1.9-2.1-0.5-1-0.9-2-1-3.1 0-0.1 0-0.3-0.1-0.4-0.2-2.3 0.5-4.3 2-6.1 0.4-0.4 0.8-0.7 1.2-1.1 0.7-0.4 1.5-0.7 2.3-1z"></path><path fill="#615535" d="m17.9 14.9c0.2 0 0.3 0.1 0.4 0.1l0.1 0.4c0.1 0.7 0.1 1.5 0.1 2.2 0 0.6 0 1.1-0.2 1.6-0.1-0.1-0.1-0.1-0.1-0.2 0.1-1.2 0.1-2.4 0-3.5 0-0.2-0.1-0.3-0.3-0.4v-0.2z"></path><path fill="#7d6e43" d="m19.9 15.6l0.2 1c-0.1 0.2-0.3 0.4-0.6 0.3 0.1-0.1 0.2-0.1 0.3-0.2 0.1-0.4 0.1-0.7 0.1-1.1z"></path><path fill="#473f25" d="m19.6 15.2c0.2 0.1 0.4 0.2 0.5 0.4v1l-0.2-1-0.3-0.4z"></path><path fill="#594e2f" d="m21.9 15c0.6 0.3 0.7 0.7 0.3 1.1 0.1-0.5-0.1-0.9-0.7-1.1 0.1-0.1 0.3-0.1 0.4 0z"></path><path fill="#9b864d" d="m24.8 11.9l0.3 0.2c0.5 0.4 0.8 0.8 0.9 1.3 0.3 1 0.6 1.8 0.9 2.6 0.1 0.3 0.3 0.5 0.5 0.7 0 0.1 0 0.1 0.1 0.2 0.8 0 1.6 0 2.3 0.1-0.8 0.1-1.6 0-2.4 0-0.2-0.2-0.3-0.4-0.5-0.6 0 0.1-0.1 0.1-0.2 0.2-0.2-1.7-0.8-3.2-1.9-4.5v-0.2z"></path><path fill="#a8904d" d="m25.1 11.4l1.1 1.1c0.1 0.5 0.3 1 0.6 1.4 0.2 0.4 0.2 0.7 0.3 1.1 0.1 0.3 0.2 0.4 0.4 0.6 0.1 0.2 0.3 0.3 0.5 0.5 0.5 0 1.1 0.1 1.6 0 0.2 0.2 0.3 0.4 0.3 0.7-0.8 0.1-1.6 0-2.3-0.1 0.1 0 0.1 0 0.1 0-0.2-0.2-0.4-0.3-0.5-0.6-0.3-1.6-1-3.1-2.1-4.5v-0.2z"></path><path fill="#7e672e" d="m27.5 15.6l0.7 0.3h1.4v0.2c-0.5 0.1-1.1 0-1.6 0-0.2-0.2-0.4-0.3-0.5-0.5z"></path><path fill="#7f6a34" d="m7 14.6c-0.1 0.5-0.1 1-0.2 1.5-0.2 1.7-0.1 3.3 0.3 5l-0.2-0.2c-0.5-1.9-0.5-3.8-0.1-5.7 0-0.2 0.1-0.4 0.2-0.6z"></path><path fill="#b3ad99" d="m19.5 15l-0.1 0.2c-0.1 0.5-0.1 1.1-0.1 1.6-0.1 0-0.2-0.1-0.3-0.1v-1.6c0.1 0 0.3-0.1 0.5-0.1z"></path><path fill="#a29e93" d="m19.5 15c0.3 0 0.5 0.1 0.7 0.2 0.2 0.3 0.2 0.6 0.2 0.9 0 0.2 0 0.4-0.1 0.6h-0.1c0-0.4 0-0.8-0.1-1.1-0.1-0.2-0.3-0.3-0.5-0.4h-0.2l0.1-0.2z"></path><path fill="#ab9458" d="m24.2 13.1c0.3 0.1 0.5 0.2 0.6 0.5 1.6 2.8 1.5 5.6-0.2 8.4 0-0.1-0.1-0.1-0.1-0.2 0.2-0.2 0.3-0.4 0.2-0.7 0.2-0.4 0.4-0.9 0.4-1.4-0.2 0.5-0.5 1-0.7 1.5 0.1-0.5 0.3-1.1 0.4-1.7-0.2 0-0.3 0-0.4-0.1 0.1 0 0.3 0 0.4-0.1-0.1-0.3-0.2-0.5-0.3-0.8l0.5 0.6c0.1-0.1 0.2-0.2 0.3-0.3-0.1 0.3-0.1 0.6-0.1 0.8 0.1-0.2 0.2-0.5 0.3-0.8 0.1 0 0.1-0.1 0.2-0.2 0.2-2-0.3-3.8-1.5-5.5z"></path><path fill="#5f563a" d="m13.9 15.5v1.1c-0.1 0.2-0.1 0.2-0.2 0.1 0.1-0.5 0.1-1-0.1-1.5 0.1 0 0.2 0.1 0.3 0.3z"></path><path fill="#554d36" d="m22.2 16.1c-0.1 0.4-0.2 0.7-0.3 1.1 0 0-0.1 0.1-0.1 0.1l0.1-0.7 0.3-0.5z"></path><path fill="#aea99e" d="m18.3 15h0.5v1.5c0 0.4-0.1 0.9-0.1 1.3-0.1-0.1-0.1-0.1-0.2-0.2 0-0.7 0-1.5 0-2.2l-0.2-0.4z"></path><path fill="#477333" d="m4.4 15.7v0.4c0 0.5 0.1 1 0.2 1.4-0.2 0.5-0.2 1.1-0.2 1.7-0.1-1-0.1-2-0.1-3.1 0-0.1 0-0.3 0.1-0.4z"></path><path fill="#5f5d52" d="m5 15.6c0.1 0.7 0.1 1.5 0 2.2-0.5 0.2-0.6 0.1-0.1-0.2-0.1-0.1-0.2-0.1-0.3-0.1-0.1-0.4-0.2-0.9-0.2-1.4 0.2-0.2 0.3-0.4 0.4-0.6 0.1 0 0.1 0 0.2 0.1z"></path><path fill="#bca35f" d="m12 12.2v0.1c-0.4 0.3-0.6 0.6-0.9 0.9-1 1.6-1.4 3.3-1.3 5.2v0.9l-0.2-0.2c-0.3-2.7 0.4-5.1 2.2-7.1 0 0.1 0.1 0.2 0.2 0.2z"></path><path fill="#c5a450" d="m11.5 15.1c0 1.2 0 2.4 0 3.6-0.1 0.1-0.1 0.1-0.2 0.1-0.1 0.1-0.1 0.1-0.2 0.2 0-0.2-0.2-0.3-0.4-0.4 0.1-0.3-0.1-0.4-0.3-0.2l-0.2-0.1v-0.2c0.2-0.1 0.3-0.2 0.5-0.2 0-0.1 0.1-0.3 0.2-0.5-0.6 0-0.6-0.2 0-0.4-0.1 0-0.1-0.1-0.2-0.2 0.2-0.6 0.3-1.2 0.4-1.9 0.2 0 0.3 0.1 0.4 0.2z"></path><path fill="#786637" d="m11.5 15.1h0.1c0 0.2 0.1 0.3 0.2 0.4 0 1.2-0.1 2.4-0.2 3.6 0 0-0.1 0-0.1 0.1 0.2 0.1 0.4 0.1 0.6 0.1 0.3 0.1 0.7 0.1 1 0h0.3c0 0.1-0.1 0.1-0.2 0.2-0.6 0-1.3 0-1.9 0-0.1-0.2-0.1-0.4 0-0.7 0.1 0 0.1 0 0.2-0.1 0-1.2 0-2.4 0-3.6z"></path><path fill="#5e512e" d="m16.3 17c-0.1 0.1-0.2 0.2-0.3 0.2 0-0.3-0.1-0.6-0.2-0.8v-0.1c0-0.2 0.1-0.2 0.2 0 0.1 0.2 0.2 0.5 0.3 0.7z"></path><path fill="#c7b580" d="m19.9 10c0.4-0.2 0.9-0.1 1.3 0.1 2.6 1.3 4.3 3.3 5.1 6v0.2c0 0.9 0 1.8-0.1 2.7l-0.2 0.6c-0.1 0-0.1-0.1-0.1-0.2 0.4-2.2 0-4.3-1.1-6.2-0.4-0.5-0.8-0.9-1.2-1.2-0.1-0.1-0.1-0.2-0.3-0.2-0.9-1-2.1-1.6-3.4-1.8z"></path><path fill="#af954d" d="m10.4 16.1c0 0.3 0 0.5 0.1 0.7 0 0.2 0.1 0.2 0.1 0h0.1c0.1 0.1 0.1 0.2 0.2 0.2-0.6 0.2-0.6 0.4 0 0.4-0.1 0.2-0.2 0.4-0.2 0.5-0.2 0-0.3 0.1-0.5 0.2-0.1-0.7 0-1.3 0.2-2z"></path><path fill="#c5ae6d" d="m15.8 16.4c0.1 0.2 0.2 0.5 0.2 0.8-0.2 0.1-0.4 0.1-0.5-0.2 0.1-0.2 0.2-0.4 0.3-0.6z"></path><path fill="#ad9c6c" d="m21 16.1c0 0.3-0.1 0.6-0.2 0.8 0.2 0.3 0.4 0.6 0.5 1 0 0.2 0 0.3-0.1 0.4 0-0.3-0.1-0.6-0.3-0.8-0.1-0.3-0.2-0.4-0.4-0.2-0.3-0.1-0.4-0.3-0.3-0.6h0.1c0 0.1 0 0.2 0.1 0.2 0.2-0.1 0.2-0.2 0.2-0.4 0.1-0.2 0.2-0.3 0.4-0.4z"></path><path fill="#7c6730" d="m7.8 15.5c0.1 0 0.1 0 0.1 0.1-0.3 1.6-0.2 3.1 0.1 4.7-0.2-0.5-0.3-1.1-0.4-1.7 0-1 0-2.1 0.2-3.1z"></path><path fill="#ada999" d="m12.1 15v4.3c-0.2 0-0.4 0-0.6-0.1 0-0.1 0.1-0.1 0.1-0.1 0.1-0.1 0.2-0.2 0.2-0.3 0.1-1.1 0.1-2.2 0-3.3-0.1-0.1-0.2-0.2-0.2-0.4 0.2-0.1 0.3-0.1 0.5-0.1z"></path><path fill="#b8b2a0" d="m13.6 15.2c0.2 0.5 0.2 1 0.1 1.5-0.3 0.2-0.3 0.3 0.1 0.5v0.2c-0.1-0.1-0.2-0.1-0.4-0.1-0.3-0.2-0.6-0.2-0.9 0.1v1.1l-0.2-1.1v-2.4c0.5-0.1 0.9-0.1 1.3 0.2z"></path><path fill="#6e6346" d="m12.8 15.2c0.4 0.1 0.7 0.4 0.6 0.9 0 0.3-0.1 0.6-0.4 0.8-0.1 0-0.1 0-0.1-0.1 0.3-0.1 0.4-0.3 0.3-0.7 0-0.3-0.1-0.6-0.4-0.9z"></path><path fill="#ccb063" d="m12.8 15.2c0.3 0.3 0.4 0.6 0.4 0.9 0.1 0.4 0 0.6-0.3 0.7h-0.4c0-0.5 0-1 0.1-1.4 0-0.1 0.1-0.1 0.2-0.2z"></path><path fill="#685c3a" d="m15.6 15.8c0 0.2-0.1 0.4-0.1 0.6-0.3 0.6-0.6 1.3-0.8 2h-0.1v-0.3c0.3-0.8 0.6-1.6 1-2.3z"></path><path fill="#7e672d" d="m6.5 13.1c0.1 0 0.1 0.1 0.1 0.2-0.1 0.3-0.2 0.5-0.2 0.8v0.2c-0.3 0.6-0.5 1.2-0.5 1.8v0.9c-0.1 0.6-0.1 1.2 0 1.7 0 0.1 0 0.1-0.1 0.1-0.2-0.6-0.3-1.2-0.2-1.9 0.1 0 0.2-0.1 0.2-0.3-0.1-0.8 0-1.6 0.4-2.3 0-0.2 0-0.4 0-0.6 0.2-0.2 0.2-0.4 0.3-0.6z"></path><path fill="#8d897c" d="m11.8 15.5c0.1 1.1 0.1 2.2 0 3.3 0 0.1-0.1 0.2-0.2 0.3 0.1-1.2 0.2-2.4 0.2-3.6z"></path><path fill="#b6b09d" d="m15.8 16.3v0.1c-0.1 0.2-0.2 0.4-0.3 0.6 0.1 0.3 0.3 0.3 0.5 0.2 0.1 0 0.2-0.1 0.3-0.2 0.1 0.1 0.2 0.2 0.2 0.4 0.1 0 0.1-0.1 0.1-0.1h0.1c0.1 0.2 0.2 0.4 0.2 0.6 0.1 0.3 0 0.4-0.1 0.6 0-0.1-0.1-0.2-0.1-0.3-0.1-0.2-0.2-0.5-0.2-0.7-0.5 0-0.9 0-1.3 0.1 0 0.3-0.1 0.5-0.2 0.8-0.1 0.3-0.1 0.6-0.1 0.9-0.2 0-0.5 0-0.7-0.1 0.2-0.3 0.4-0.5 0.5-0.8 0.2-0.7 0.5-1.4 0.8-2 0.1-0.1 0.2-0.1 0.3-0.1z"></path><path fill="#b0974e" d="m29.8 17v0.6h-0.7c-0.4-0.2-0.9-0.3-1.4-0.2-0.1 0-0.3 0.1-0.4 0.2-0.1-0.2-0.3-0.4-0.5-0.4-0.1-0.2-0.1-0.4-0.1-0.6 0.1-0.1 0.2-0.1 0.2-0.2 0.2 0.2 0.3 0.4 0.5 0.6 0.8 0 1.6 0.1 2.4 0z"></path><path fill="#ceba82" d="m12.2 11.4c0 0.2 0 0.3 0 0.5l-0.2 0.3c-0.1 0-0.2-0.1-0.2-0.2-1.8 2-2.5 4.4-2.2 7.1-0.1 0-0.1-0.1-0.1-0.1 0-0.2 0-0.3-0.1-0.4-0.1-1.3 0.1-2.6 0.4-3.9 0.4-0.6 0.7-1.3 1.1-1.9 0.4-0.5 0.8-1 1.3-1.4z"></path><path fill="#675f47" d="m12.1 14.9h0.2v4.4h0.8c-0.3 0.1-0.7 0.1-1 0v-4.4z"></path><path fill="#685c3a" d="m13.4 17.3c0.3 0.5 0.3 1 0 1.5 0.1-0.4 0-0.8 0-1.2-0.3-0.2-0.5-0.3-0.9-0.2 0.3-0.3 0.6-0.3 0.9-0.1z"></path><path fill="#9a9587" d="m21.9 15c0.4 0 0.8 0 1.2-0.1 0.1 0.8 0.3 1.5 0.7 2.1 0.1 0.5 0.3 0.9 0.4 1.3 0.1 0.2 0.2 0.2 0.3 0.2 0.1 0.3 0.2 0.5 0.3 0.8-0.2 0-0.3 0-0.4-0.1-0.1-0.2-0.2-0.3-0.3-0.4v0.5c-0.2 0-0.4 0-0.5-0.1 0-0.6-0.1-1.1-0.5-1.6-0.4 0-0.9 0-1.3 0.1-0.2 0.5-0.3 1.1-0.1 1.6-0.3 0-0.5 0-0.7-0.1 0.3-0.6 0.6-1.2 0.8-1.9 0 0 0.1-0.1 0.1-0.1 0.1-0.4 0.2-0.7 0.3-1.1 0.4-0.4 0.3-0.8-0.3-1.1z"></path><path fill="#a99661" d="m22.6 16.4c0.1 0.3 0.2 0.6 0.3 0.9h-0.7c0-0.4 0.1-0.7 0.4-0.9z"></path><path fill="#514a36" d="m22.9 17.3c-0.1-0.3-0.2-0.6-0.3-0.9-0.1-0.1 0-0.3 0-0.4 0.3 0.4 0.4 0.8 0.3 1.3z"></path><path fill="#4f4934" d="m23 15.8c0.4 0.7 0.7 1.4 0.8 2.1-0.4-0.6-0.6-1.3-0.8-2.1z"></path><path fill="#4e4834" d="m23 15.8c-0.2-0.2-0.3-0.5-0.2-0.8 0.1 0.3 0.2 0.5 0.2 0.8z"></path><path fill="#816c35" d="m9.8 14.7c-0.3 1.3-0.5 2.6-0.4 3.9-0.1-0.5-0.2-1.1-0.1-1.9 0-0.7 0.2-1.4 0.5-2z"></path><path fill="#dfbd62" d="m27.7 17.4c0.5-0.1 1 0 1.4 0.2v0.9l-0.2 0.1h-1.2v-1.2z"></path><path fill="#c4a95b" d="m17.9 15.1c0.2 0.1 0.3 0.2 0.3 0.4 0.1 1.1 0.1 2.3 0 3.5-0.2-0.1-0.3-0.1-0.4-0.2-0.1-0.3-0.1-0.7 0.1-1-0.2-0.1-0.5-0.2-0.6-0.4v-0.5c0.2 0.2 0.5 0.5 0.7 0.7 0-0.1 0-0.3-0.1-0.4-0.1-0.7-0.1-1.4 0-2.1z"></path><path fill="#413b22" d="m20.9 17.5v1.1h-0.1c0-0.5-0.1-0.9-0.3-1.3 0.2-0.2 0.3-0.1 0.4 0.2z"></path><path fill="#826f3b" d="m24.8 14.7c0.2 0.2 0.3 0.5 0.4 0.8 0.2 1.1 0.3 2.2 0.3 3.3-0.1 0.3-0.2 0.6-0.3 0.8 0-0.2 0-0.5 0.1-0.8 0.1-0.7 0.1-1.4 0-2.1-0.2-0.7-0.4-1.3-0.5-2z"></path><path fill="#534a2f" d="m23.1 17.6c0.4 0.5 0.5 1 0.5 1.6l-0.3-0.7-0.2-0.7v-0.2z"></path><path fill="#b6ab8b" d="m30.7 16.7c0 0.3 0.1 0.7 0.1 1.1 0 0.5-0.1 1.1-0.3 1.6 0.1-0.9 0.2-1.8 0.2-2.7z"></path><path fill="#a5a08f" d="m13.4 17.3c0.2 0 0.3 0 0.4 0.1 0.3 0.5 0.3 1.1 0 1.7-0.2 0-0.3 0.1-0.4 0.2h-1.1v-1.9l0.2 1.1c0 0.2 0.1 0.3 0.3 0.4 0.2 0.1 0.4 0 0.6-0.1 0.3-0.5 0.3-1 0-1.5z"></path><path fill="#4b4227" d="m13.8 17.2c0.2-0.1 0.3 0 0.3 0.2v1.4c-0.1 0.1-0.2 0.2-0.2 0.4-0.1 0-0.1-0.1-0.1-0.1 0.3-0.6 0.3-1.2 0-1.7v-0.2z"></path><path fill="#726542" d="m15.2 17.6c0.4-0.1 0.8-0.1 1.3-0.1 0 0.2 0.1 0.5 0.2 0.7-0.1 0-0.1 0.1-0.1 0.2h-0.1c0-0.2 0-0.3-0.1-0.3v-0.5h-1.2z"></path><path fill="#b39b51" d="m29.1 17.8h0.7v0.6h-0.7v-0.6z"></path><path fill="#a89152" d="m7.3 15.5c-0.2 0.6-0.2 1.3-0.3 1.9 0 0.7 0.1 1.2 0.3 1.4 0.1 0.2 0.1 0.3 0.1 0.5-0.1 0.1-0.1 0.2-0.1 0.3 0.1 0.8 0.2 1.5 0.4 2.2-0.2-0.3-0.3-0.6-0.4-0.9-0.3-1.4-0.5-2.7-0.4-4.1 0-0.3 0-0.7 0.1-1 0-0.2 0.1-0.3 0.3-0.3z"></path><path fill="#a79052" d="m8.5 14.9c-0.2 0.9-0.3 1.8-0.3 2.8-0.1 0.7 0 1.1 0.2 1.4 0.1 0.1 0.1 0.2 0.1 0.4-0.1 0.1-0.1 0.1-0.1 0.2 0.1 0.7 0.3 1.3 0.4 2-0.2-0.4-0.4-0.8-0.5-1.3-0.5-1.8-0.5-3.6 0-5.4l0.2-0.1z"></path><path fill="#b39d64" d="m17.3 17.4c0.1 0.2 0.4 0.3 0.6 0.4-0.2 0.3-0.2 0.7-0.1 1h-0.1c-0.1-0.5-0.2-0.9-0.4-1.4z"></path><path fill="#443d25" d="m23.8 17.9c0.2 0.3 0.3 0.6 0.3 0.9-0.2-0.2-0.3-0.5-0.3-0.9z"></path><path fill="#a48d50" d="m9.3 16.7c-0.1 0.8 0 1.4 0.1 1.9 0.1 0.1 0.1 0.2 0.1 0.4-0.1 0-0.1 0.2-0.1 0.3 0.1 0.4 0.2 0.9 0.2 1.3-0.3-0.5-0.4-1.1-0.4-1.8-0.1-0.7 0-1.4 0.1-2.1z"></path><path fill="#949085" d="m14.1 17.4c0.2 0.2 0.4 0.4 0.5 0.7v0.3c-0.2 0.1-0.2 0.3-0.3 0.4-0.1 0.2-0.1 0.2-0.2 0v-1.4z"></path><path fill="#444737" d="m4.6 17.5c0.1 0 0.2 0 0.3 0.1-0.5 0.3-0.4 0.4 0.1 0.2v0.7h-0.4v0.7c0.1 0 0.2 0 0.3 0.1-0.1 0.1-0.2 0.3-0.2 0.4 0 0.3 0.1 0.6 0.1 0.9-0.2-0.3-0.3-0.7-0.4-1.1v-0.3c0-0.6 0-1.2 0.2-1.7z"></path><path fill="#bc9e51" d="m12.5 17.4c0.4-0.1 0.6 0 0.9 0.2 0 0.4 0.1 0.8 0 1.2-0.2 0.1-0.4 0.2-0.6 0.1-0.2-0.1-0.3-0.2-0.3-0.4v-1.1z"></path><path fill="#bc9c4b" d="m15.2 17.6h1.2v0.5c0 0.2-0.1 0.3-0.3 0.2-0.4 0.1-0.8 0.3-1 0.7-0.1-0.2-0.1-0.4-0.1-0.6 0.1-0.3 0.2-0.5 0.2-0.8z"></path><path fill="#5e5c50" d="m14.6 18.4h0.1c-0.1 0.3-0.3 0.5-0.5 0.8-0.1 0.1-0.2 0.1-0.3 0 0-0.2 0.1-0.3 0.2-0.4 0.1 0.2 0.1 0.2 0.2 0 0.1-0.1 0.1-0.3 0.3-0.4z"></path><path fill="#383218" d="m16.7 18.2c0 0.1 0.1 0.2 0.1 0.3v0.7l-0.2-0.7v-0.1c0-0.1 0-0.2 0.1-0.2z"></path><path fill="#8b8779" d="m20.1 15.6c0.1 0.3 0.1 0.7 0.1 1.1-0.1 0.3 0 0.5 0.3 0.6 0.2 0.4 0.3 0.8 0.3 1.3-0.2 0.1-0.3 0.3-0.3 0.5l-0.2 0.1c0.1-0.2 0.1-0.4 0.1-0.6 0-0.3 0-0.7 0-1-0.1-0.2-0.2-0.2-0.3-0.1-0.3-0.2-0.5-0.3-0.8-0.1-0.1 0.5-0.2 1-0.1 1.6 0.2 0.1 0.2 0.2-0.1 0.2-0.1-0.8-0.2-1.6-0.1-2.5 0.1 0 0.2 0.1 0.3 0.1 0.1 0.2 0.1 0.2 0.2 0.1 0.3 0.1 0.5-0.1 0.6-0.3v-1z"></path><path fill="#594f32" d="m20.4 18.6c-0.1 0.2-0.2 0.3-0.4 0.5 0-0.1 0-0.2 0-0.3 0.1 0 0.1-0.1 0.1-0.2 0.1-0.3 0.1-0.7 0-1.1 0.1-0.1 0.2-0.1 0.3 0.1 0 0.3 0 0.7 0 1z"></path><path fill="#a79359" d="m20.1 17.5c0.1 0.4 0.1 0.8 0 1.1 0-0.3 0-0.6-0.1-0.9-0.1-0.2-0.3-0.2-0.6-0.2v1.3c-0.1-0.4-0.1-0.9-0.1-1.4 0.3-0.2 0.5-0.1 0.8 0.1z"></path><path fill="#b99e51" d="m20.1 18.6c0 0.1 0 0.2-0.1 0.2-0.2 0.2-0.4 0.2-0.6 0v-1.3c0.3 0 0.5 0 0.6 0.2 0.1 0.3 0.1 0.6 0.1 0.9z"></path><path fill="#9c988c" d="m16.9 17.9c0.2 0.4 0.4 0.8 0.5 1.3-0.2 0.1-0.4 0.1-0.6 0v-0.7c0.1-0.2 0.2-0.3 0.1-0.6z"></path><path fill="#88857a" d="m20.9 17.5c0.2 0.2 0.3 0.5 0.3 0.8 0 0.2-0.1 0.4-0.2 0.7-0.1 0.1-0.2 0.1-0.2 0 0-0.1 0.1-0.3 0.1-0.4v-1.1z"></path><path fill="#ab9b6c" d="m23.1 17.6v0.2c-0.4-0.1-0.7-0.1-1.1 0-0.1 0.3-0.2 0.6-0.3 0.9 0.1 0.2 0.1 0.4 0 0.6-0.2-0.5-0.1-1.1 0.1-1.6 0.4-0.1 0.9-0.1 1.3-0.1z"></path><path fill="#58574b" d="m5 18.5c0.1 0.5 0.2 0.9 0.2 1.4l0.3 1c-0.3 0-0.5-0.1-0.7-0.3 0-0.3-0.1-0.6-0.1-0.9 0-0.1 0.1-0.3 0.2-0.4-0.1-0.1-0.2-0.1-0.3-0.1v-0.7h0.4z"></path><path fill="#544e38" d="m16.8 17c0.2 0.7 0.4 1.3 0.7 1.8 0.1 0.3 0.3 0.4 0.6 0.5-0.3 0-0.5 0-0.7-0.1-0.1-0.5-0.3-0.9-0.5-1.3 0-0.2-0.1-0.4-0.2-0.6 0-0.1 0-0.2 0.1-0.3z"></path><path fill="#7e6831" d="m23.6 12c0.4 0.3 0.8 0.7 1.2 1.2 1.1 1.9 1.5 4 1.1 6.2-0.3 1.2-0.8 2.2-1.5 3.2 0-0.2 0.1-0.4 0.2-0.6 1.7-2.8 1.8-5.6 0.2-8.4-0.1-0.3-0.3-0.4-0.6-0.5-0.1-0.2-0.3-0.4-0.5-0.7l-0.1-0.4z"></path><path fill="#e2cc88" d="m6.2 20.4c0 0-0.1 0-0.1-0.1-0.1-0.4-0.2-0.7-0.2-1.1 0.2-0.2 0.2-0.3 0-0.5-0.1-0.5-0.1-1.1 0-1.7 0.1 0 0.2 0 0.2-0.1 0.2 0.6 0.2 1.2 0 1.8 0.2 0.4 0.3 0.9 0.4 1.4-0.1 0.2-0.1 0.3-0.3 0.3z"></path><path fill="#7b6834" d="m9.5 19c0 0 0 0.1 0.1 0.1 0 0.4 0.1 0.8 0.2 1.2 0.2 0.6 0.5 1.1 0.7 1.7-0.3-0.3-0.5-0.7-0.7-1.1 0-0.1-0.1-0.2-0.2-0.1v-0.2c0-0.4-0.1-0.9-0.2-1.3 0-0.1 0-0.3 0.1-0.3z"></path><path fill="#938e7f" d="m18.8 16.5v2.8h-0.7c-0.3-0.1-0.5-0.2-0.6-0.5h0.3c0.1 0.1 0.2 0.1 0.4 0.2 0 0.1 0 0.1 0.1 0.2 0.2-0.5 0.2-1 0.2-1.6 0.1 0.1 0.1 0.1 0.2 0.2 0-0.4 0.1-0.9 0.1-1.3z"></path><path fill="#90876f" d="m19.3 17.4c0 0.5 0 1 0.1 1.4 0.2 0.2 0.4 0.2 0.6 0 0 0.1 0 0.2 0 0.3 0.2-0.2 0.3-0.3 0.4-0.5 0 0.2 0 0.4-0.1 0.6-0.2 0-0.3 0-0.3 0.2-0.4 0-0.8 0-1.2-0.1 0.2 0 0.2 0 0.3-0.1 0.3 0 0.3-0.1 0.1-0.2-0.1-0.6 0-1.1 0.1-1.6z"></path><path fill="#645b42" d="m21.8 17.3c-0.2 0.7-0.5 1.3-0.8 1.9 0.2 0.1 0.4 0.1 0.7 0.1-0.4 0.1-0.7 0.1-1.1 0.1 0-0.1 0-0.2-0.1-0.3 0-0.2 0.1-0.4 0.3-0.5h0.1c0 0.1-0.1 0.3-0.1 0.4 0 0.1 0.1 0.1 0.2 0 0.1-0.3 0.2-0.5 0.2-0.7 0.1-0.1 0.1-0.2 0.1-0.4l0.5-0.6z"></path><path fill="#af9650" d="m29.1 18.5c0.2 0.1 0.5 0.2 0.8 0.1 0 0.2-0.1 0.3-0.1 0.5-0.7 0.1-1.3 0.1-2 0.1-0.2 0.1-0.4 0.3-0.5 0.5-0.1 0.6-0.3 1.1-0.6 1.6-0.1-0.1-0.2-0.1-0.3-0.1 0.1-0.2 0.2-0.4 0.3-0.7 0.2-0.1 0.3-0.4 0.4-0.8 0.1-0.2 0.1-0.4 0.2-0.7 0-0.1-0.1-0.1-0.1-0.2 0.1-0.2 0.3-0.2 0.4 0 0.5 0.1 0.9 0.1 1.4 0-0.1-0.1-0.1-0.1-0.1-0.2l0.2-0.1z"></path><path fill="#b09755" d="m8.3 11.8c-0.5 0.9-0.9 1.8-1.3 2.8-0.1 0.2-0.2 0.4-0.2 0.6-0.4 1.9-0.4 3.8 0.1 5.7 0 0.1-0.1 0.2-0.1 0.3-0.1 0-0.2-0.1-0.3-0.2 0 0.2 0 0.4 0 0.5-0.1-0.1-0.2-0.3-0.1-0.5 0-0.2-0.1-0.3-0.2-0.5v-0.1c0.2 0 0.2-0.1 0.3-0.3-0.1-0.5-0.2-1-0.4-1.4 0.2-0.6 0.2-1.2 0-1.8 0 0.1-0.1 0.1-0.2 0.1v-0.9c0.1 0.1 0.3 0.2 0.5 0.2 0.1-0.7 0.1-1.3 0-2v-0.2c0.1 0.1 0.2 0.1 0.4 0.1 0.2-0.5 0.3-1.1 0.5-1.7-0.1-0.1-0.1-0.1-0.2 0-0.2 0.3-0.4 0.6-0.5 0.8 0-0.1 0-0.2-0.1-0.2v-0.4c0-0.2 0.1-0.3 0.2-0.4 0.1-0.1 0.3-0.3 0.3-0.4 0 0.1 0 0.3 0.1 0.4 0-0.1 0.1-0.2 0.2-0.3-0.1 0.1 0 0.3 0.2 0.3 0.1-0.1 0.2-0.3 0.3-0.4 0.1 0.1 0.1 0.1 0.2 0.2 0-0.2 0.1-0.3 0.3-0.3z"></path><path fill="#be9d4a" d="m24 21.5c-0.3-0.2-0.6-0.5-0.9-0.8-0.1-0.1-0.3 0-0.4 0.2-0.1-0.4-0.4-0.6-0.7-0.5-0.3-0.1-0.6-0.4-0.9-0.7-0.3-0.1-0.7-0.2-1-0.3h-0.1c0-0.2 0.1-0.2 0.3-0.2l0.2-0.1c0.1 0.1 0.1 0.2 0.1 0.3 0.4 0.1 0.8 0.2 1.3 0.1 0-0.3 0-0.7 0-1 0.2 0.2 0.2 0.4 0.3 0.7 0.1-0.2 0.2-0.5 0.3-0.7 0.2 0.8 0.3 0.8 0.5 0.1 0.1 0.3 0.1 0.7 0.2 1h0.5c0.1 0.2 0.2 0.3 0.3 0.3l-0.3 0.1c0.1 0.3 0.2 0.6 0.3 0.9 0.1-0.1 0.1-0.1 0.2-0.1 0.1 0.3 0 0.5-0.2 0.7z"></path><path fill="#9d9786" d="m30.1 14h0.2c0.2 0.2 0.3 0.5 0.3 0.8 0.2 1.4 0.3 2.9 0.2 4.4-0.1 0.8-0.3 1.7-0.6 2.5-0.1 0.6-0.4 1.3-0.8 1.9-0.2 0.4-0.5 0.9-0.8 1.3l-0.2 0.2c0-0.1 0.1-0.3 0.1-0.5 0.5-0.5 0.8-1.1 1-1.8l0.3-0.4c0.2-0.4 0.3-0.9 0.4-1.4 0.1-0.5 0.2-1.1 0.3-1.6 0.2-0.5 0.3-1.1 0.3-1.6 0-0.4-0.1-0.8-0.1-1.1-0.2-0.9-0.4-1.8-0.6-2.7z"></path><path fill="#7c6b3e" d="m16.6 18.5l0.2 0.7c0.2 0.1 0.4 0.1 0.6 0 0.2 0.1 0.4 0.1 0.7 0.1h0.5c-0.4 0.1-0.9 0.1-1.3 0.1h-0.1c-0.3 0-0.5 0-0.7-0.1 0.1-0.3 0.1-0.5 0.1-0.8z"></path><path fill="#796a40" d="m23.3 18.5l0.3 0.7c0.1 0.1 0.3 0.1 0.5 0.1v-0.5c0.1 0.1 0.2 0.2 0.3 0.4 0.1 0.1 0.2 0.1 0.4 0.1-0.1 0.1-0.3 0.1-0.4 0.1-0.4 0-0.8 0-1.2 0 0.1-0.3 0.2-0.6 0.1-0.9z"></path><path fill="#8f7534" d="m29.8 19.1c0 0 0 0.1 0.1 0.1 0 0.2 0 0.4-0.1 0.5v-0.4c-0.6 0-1.1 0-1.6 0.1 0.5 0 1 0 1.4 0 0.1 0.2 0 0.4-0.1 0.6v-0.5c-0.5 0-0.9 0-1.4 0.1-0.2 0.1-0.3 0.1-0.5 0-0.1 0.1-0.1 0.2-0.2 0.3 0-0.1 0-0.2-0.1-0.2 0.1-0.2 0.3-0.4 0.5-0.5 0.7 0 1.3 0 2-0.1z"></path><path fill="#75c951" d="m4.3 16.1c0 1.1 0 2.1 0.1 3.1v1.2c0 0-0.1-0.1-0.1-0.2-0.3-1.4-0.2-2.7 0-4.1z"></path><path fill="#7e6529" d="m27.3 17.6c0.1-0.1 0.3-0.2 0.4-0.2v1.2h1.2c0 0.1 0 0.1 0.1 0.2-0.5 0.1-0.9 0.1-1.4 0-0.1-0.2-0.3-0.2-0.4 0-0.2 0.6-0.4 1.1-0.5 1.7-0.1 0.3-0.2 0.5-0.3 0.7-0.3 0.3-0.5 0.6-0.6 1 0 0.1 0.1 0.2 0.2 0.2-0.3 0.2-0.6 0.5-0.9 0.8l0.3-0.5c0.2-0.7 0.6-1.4 1-1.9 0.3-0.7 0.4-1.3 0.5-2 0.1-0.1 0.3-0.2 0.5-0.3 0.1-0.2 0.1-0.4 0.1-0.7-0.3 0-0.5 0-0.8-0.2 0-0.1 0-0.2 0.1-0.2 0.2 0.1 0.3 0.2 0.5 0.2z"></path><path fill="#a88b44" d="m16.4 18.1c0.1 0 0.1 0.1 0.1 0.3 0 0.2-0.1 0.3-0.3 0.2-0.2 0.2-0.4 0.4-0.7 0.6 0 0.1 0 0.2 0 0.3-0.4 0.1-0.8 0.2-1.2 0.2-0.2 0-0.4 0-0.5 0.3 0 0 0 0.1 0.1 0.1-0.3 0.3-0.5 0.5-0.7 0.8-0.3 0.2-0.6 0.3-0.9 0.4 0 0.2 0 0.3-0.1 0.4-0.1-0.1-0.2-0.2-0.3-0.2-0.3-0.3-0.6-0.7-0.8-1.2-0.1-0.6-0.2-1.1-0.4-1.7 0.2 0.1 0.4 0.2 0.4 0.4 0.1-0.1 0.1-0.1 0.2-0.2-0.1 0.3-0.1 0.5 0 0.7 0.6 0 1.3 0 1.9 0 0.1-0.1 0.2-0.1 0.2-0.2 0.1-0.1 0.2-0.2 0.4-0.2 0 0 0 0.1 0.1 0.1v0.3c0.4 0.1 0.8 0 1.1-0.1 0-0.1 0-0.1-0.1-0.1 0-0.3 0-0.6 0.1-0.9 0 0.2 0 0.4 0.1 0.6 0.2-0.4 0.6-0.6 1-0.7 0.2 0.1 0.3 0 0.3-0.2z"></path><path fill="#837243" d="m13.9 19.2c0.1 0.1 0.2 0.1 0.3 0 0.2 0.1 0.5 0.1 0.7 0.1 0.1 0 0.1 0 0.1 0.1-0.3 0.1-0.7 0.2-1.1 0.1v-0.3z"></path><path fill="#7c6732" d="m26.6 17.2c0 0.8-0.1 1.7-0.2 2.5-0.1 0.5-0.3 0.9-0.6 1.3 0.4-1.3 0.7-2.6 0.8-3.8z"></path><path fill="#cfab52" d="m18.4 19.9c0.1 0.8 0.1 1.6 0.1 2.4 0.2 0 0.3 0 0.5 0.1-0.1 0-0.2 0.1-0.3 0.2 0.1-0.1 0.3 0 0.4 0.1-0.2 0.2-0.2 0.4 0 0.6-0.2 0.1-0.3 0.2-0.4 0.4 0.1 0.3 0.2 0.6 0.1 0.9-0.1 0-0.2 0-0.3 0.1h-0.6c-0.1-0.5-0.1-0.9 0.2-1.3-0.1-0.1-0.1-0.3-0.3-0.3 0.3-0.2 0.3-0.4 0-0.5 0.1-0.1 0.1-0.2 0.1-0.2-0.4-0.2-0.4-0.3 0-0.5-0.1-0.1-0.2-0.3-0.3-0.5-0.4 0.8-0.6 1.7-0.6 2.7 0 0.2-0.1 0.4-0.3 0.5 0-0.1 0-0.1-0.1-0.2 0.2-0.4 0.3-0.9 0.3-1.4-0.1-0.2-0.1-0.4 0.1-0.6l-0.1-0.1c0.1-0.4 0.2-0.7 0.4-1 0.1-0.4 0.1-0.7 0.2-1.1 0.1-0.2 0.1-0.4 0.1-0.6 0.3 0 0.6 0.1 0.8 0.3z"></path><path fill="#c0ac73" d="m27.2 18.8c0 0.1 0.1 0.1 0.1 0.2-0.1 0.3-0.1 0.5-0.2 0.7-0.1 0.4-0.2 0.7-0.4 0.8 0.1-0.6 0.3-1.1 0.5-1.7z"></path><path fill="#a79256" d="m10.2 18.3l0.2 0.1c0.1 0.8 0.2 1.6 0.5 2.4-0.5-0.8-0.7-1.6-0.7-2.5z"></path><path fill="#e9cd78" d="m22.8 22.8c-0.1 0-0.2 0-0.3 0.1 0-0.3-0.2-0.5-0.4-0.6-0.3-0.1-0.5-0.3-0.8-0.4-0.2 0.1-0.4 0-0.5-0.2-0.2 0.2-0.3 0.4-0.3 0.7 0.1-0.1 0.2-0.2 0.3-0.4 0 0.1 0 0.3 0.1 0.5-0.4 0.5-0.6 1-0.6 1.6-0.2-0.1-0.4-0.3-0.3-0.5 0-0.3 0.1-0.5 0.2-0.8-0.3-0.1-0.3-0.3 0-0.4-0.4-0.1-0.5-0.2-0.2-0.4-0.2-0.1-0.3-0.3-0.3-0.5-0.2 0.1-0.3 0-0.2-0.2-0.4-0.6-0.6-1.1-0.7-1.7 0.7-0.2 1.2 0 1.3 0.7 0.4 0.2 0.7 0.5 0.9 0.9 0.3 0.2 0.5 0.4 0.8 0.6 0.1 0.1 0.3 0.1 0.5 0 0.1 0.3 0.3 0.5 0.6 0.6-0.2 0.1-0.3 0.2-0.1 0.4z"></path><path fill="#b5994d" d="m23.1 17.8l0.2 0.7c0.1 0.3 0 0.6-0.1 0.9 0.4 0 0.8 0 1.2 0 0.1 0.1 0.2 0.1 0.4 0.1-0.1 0.6-0.3 1.2-0.4 1.7-0.2 0.5-0.5 1-0.9 1.4 0-0.2 0-0.4 0.1-0.6 0.1 0 0.1 0 0.2-0.1 0.1-0.1 0.1-0.2 0.2-0.4 0.2-0.2 0.3-0.4 0.2-0.7-0.1 0-0.1 0-0.2 0.1-0.1-0.3-0.2-0.6-0.3-0.9l0.3-0.1c-0.1 0-0.2-0.1-0.3-0.3h-0.5c-0.1-0.3-0.1-0.7-0.2-1-0.2 0.7-0.3 0.7-0.5-0.1-0.1 0.2-0.2 0.5-0.3 0.7-0.1-0.3-0.1-0.5-0.3-0.7 0 0.3 0 0.7 0 1-0.5 0.1-0.9 0-1.3-0.1 0.4 0 0.7 0 1.1-0.1 0.1-0.2 0.1-0.4 0-0.6 0.1-0.3 0.2-0.6 0.3-0.9 0.4-0.1 0.7-0.1 1.1 0z"></path><path fill="#745e27" d="m5.9 19.2c0 0.4 0.1 0.7 0.2 1.1 0 0.1 0.1 0.1 0.1 0.1v0.1c0 0.3-0.1 0.3-0.2 0-0.1-0.4-0.2-0.8-0.3-1.2 0-0.3 0.1-0.4 0.2-0.1z"></path><path fill="#8f7537" d="m16.5 18.4h0.1v0.1c0 0.3 0 0.5-0.1 0.8 0.2 0.1 0.4 0.1 0.7 0.1-0.2 0.1-0.5 0.2-0.7 0.1-0.1 0-0.2-0.1-0.2-0.2-0.1 0.2-0.3 0.3-0.5 0.4-0.1 0.2-0.3 0.4-0.5 0.5-0.1 0.2-0.1 0.3 0.1 0.5-0.3 0-0.6 0.1-0.9 0.3-0.3 0.5-0.6 0.5-0.8-0.1 0.1-0.3 0.3-0.6 0.6-0.8 0-0.1 0.1-0.2 0-0.4 0.4 0 0.8-0.1 1.2-0.2 0-0.1 0-0.2 0-0.3 0.3-0.2 0.5-0.4 0.7-0.6 0.2 0.1 0.3 0 0.3-0.2z"></path><path fill="#76d243" d="m-0.1 21.3v-1.6c0.2-0.2 0.4-0.4 0.8-0.5 0.2 0 0.5 0.2 0.6 0.4-0.3 0.8-0.7 1.3-1.4 1.7z"></path><path fill="#c0ae79" d="m9.6 19.1l0.2 0.2c0.4 1.9 1.3 3.5 2.7 4.8 0.4 0.2 0.8 0.5 1.2 0.7 0 0.1-0.1 0.1-0.1 0.1-0.4-0.2-0.8-0.4-1.2-0.7-0.7-0.6-1.3-1.4-1.9-2.2-0.2-0.6-0.5-1.1-0.7-1.7-0.1-0.4-0.2-0.8-0.2-1.2z"></path><path fill="#7c6937" d="m10.1 18.8c0.1 1.1 0.5 2.1 1 3.1-0.7-0.9-1.1-1.9-1-3.1z"></path><path fill="#785f24" d="m29.8 19.7c-0.1 0.3-0.1 0.5 0 0.8-0.2 0.5-0.4 1-0.6 1.5-0.1 0.3-0.2 0.7-0.3 1l-0.4 0.2c0.4-0.9 0.7-1.9 1-2.9-0.5 0-1.1 0-1.7 0.2-0.3 0.9-0.6 1.7-1.1 2.5-0.5 0.8-1.1 1.5-1.8 2.3-0.5 0.4-1.1 0.8-1.7 1.2-0.7 0.4-1.5 0.7-2.2 1-1.5 0.4-3 0.5-4.5 0.3l2.9-0.1c0.1-0.1 0.1-0.1 0.1-0.2 1.4-0.2 2.7-0.6 3.8-1.3 0.7-0.5 1.4-1 2-1.6 0.4-0.4 0.8-0.9 1.1-1.5 0.6-0.8 1-1.7 1.3-2.7l0.3-0.3c0.5 0 1 0 1.5-0.1 0.1-0.2 0.2-0.4 0.1-0.6-0.4 0-0.9 0-1.4 0 0.5-0.1 1-0.1 1.6-0.1v0.4z"></path><path fill="#676659" d="m28.4 9.2l0.2 0.1c0.1 0.2 0.2 0.4 0.5 0.5 0.1 0.3 0.3 0.6 0.5 0.8v0.1c0.2 0.4 0.4 0.7 0.6 0.9 0 0.3 0.1 0.6 0.2 0.8-0.1 0.1-0.2 0.2-0.3 0.3l0.4 0.2c-0.2 0.3-0.2 0.3 0.2 0.2 0.3 0.6 0.5 1.3 0.5 2 0 0.4 0.1 0.7 0.2 0.9 0.2 1.3 0.2 2.5 0 3.7-0.2 0.6-0.4 1.2-0.5 1.8-0.2 0.1-0.3 0-0.4-0.1-0.1 0.1-0.2 0.2-0.3 0.3 0.3-0.8 0.5-1.7 0.6-2.5 0.1-1.5 0-3-0.2-4.4 0-0.3-0.1-0.6-0.3-0.8-0.4-1.4-1-2.7-1.8-3.9-0.2-0.3-0.2-0.6-0.1-0.9z"></path><path fill="#dcbe6a" d="m18.6 19.3h0.2c0.4 0.1 0.8 0.1 1.2 0.1h0.1c0.2 0.4 0.5 0.8 0.8 1.2 0.2-0.1 0.3 0 0.4 0.2 0 0-0.1 0.1-0.2 0.1 0.1 0.2 0.3 0.2 0.5 0.1 0.1 0.2 0.3 0.2 0.5 0.2 0 0.3 0.1 0.4 0.4 0.2 0.3 0.2 0.6 0.4 0.8 0.6 0.1-0.1 0.2-0.1 0.3 0-0.1 0.2-0.1 0.4-0.1 0.6-0.1 0.1-0.2 0.2-0.4 0.3-0.1 0-0.2 0-0.3 0.1v-0.2c-0.2-0.2-0.1-0.3 0.1-0.4-0.3-0.1-0.5-0.3-0.6-0.6-0.2 0.1-0.4 0.1-0.5 0-0.3-0.2-0.5-0.4-0.8-0.6-0.2-0.4-0.5-0.7-0.9-0.9-0.1-0.7-0.6-0.9-1.3-0.7 0.1 0.6 0.3 1.1 0.7 1.7-0.1 0.2 0 0.3 0.2 0.2 0 0.2 0.1 0.4 0.3 0.5-0.3 0.2-0.2 0.3 0.2 0.4-0.3 0.1-0.3 0.3 0 0.4-0.1 0.3-0.2 0.5-0.2 0.8-0.1 0.2 0.1 0.4 0.3 0.5h0.3c-0.2 0.1-0.4 0.2-0.6 0.3-0.6-0.4-0.7-0.8-0.3-1.2l-0.2-0.2c0-0.3 0-0.5 0-0.8-0.1-0.1-0.2-0.1-0.3-0.1 0-0.4-0.2-0.7-0.5-0.9 0.1-0.2 0-0.4-0.2-0.5l0.2-0.3c0-0.2 0-0.4 0-0.7-0.2-0.1-0.2 0-0.3 0.2-0.2-0.2-0.5-0.3-0.8-0.3 0 0.2 0 0.4-0.1 0.6 0-0.2 0-0.4-0.2-0.5v-0.3c0.4 0 0.9 0 1.3-0.1z"></path><path fill="#d5b258" d="m20.1 19.4c0.3 0.1 0.7 0.2 1 0.3 0.3 0.3 0.6 0.6 0.9 0.7 0.3-0.1 0.6 0.1 0.7 0.5 0.1-0.2 0.3-0.3 0.4-0.2 0.3 0.3 0.6 0.6 0.9 0.8-0.1 0.2-0.1 0.3-0.2 0.4-0.1 0.1-0.1 0.1-0.2 0.1-0.1-0.1-0.2-0.1-0.3 0-0.2-0.2-0.5-0.4-0.8-0.6-0.3 0.2-0.4 0.1-0.4-0.2-0.2 0-0.4 0-0.5-0.2-0.2 0.1-0.4 0.1-0.5-0.1 0.1 0 0.2-0.1 0.2-0.1-0.1-0.2-0.2-0.3-0.4-0.2-0.3-0.4-0.6-0.8-0.8-1.2z"></path><path fill="#87a772" d="m31.4 19.7c0.1 0.4 0 0.7-0.1 0.9-0.1 0.5-0.2 0.9-0.4 1.4 0 0.1-0.1 0.1-0.1 0.1 0-0.2 0.1-0.4 0.1-0.6 0.1-0.6 0.3-1.2 0.5-1.8z"></path><path fill="#598f42" d="m4.4 19.5c0.1 0.4 0.2 0.8 0.4 1.1v0.5l-0.4-0.7v-0.9z"></path><path fill="#8d7a48" d="m5.6 16.1v0.8c-0.1 0.7 0 1.3 0.3 1.9 0 0 0 0 0-0.1 0.2 0.2 0.2 0.3 0 0.5-0.1-0.3-0.2-0.2-0.2 0.1 0.1 0.4 0.2 0.8 0.3 1.2 0.1 0.3 0.2 0.3 0.2 0 0.1 0.2 0.2 0.3 0.2 0.5-0.1 0.1-0.2 0.2-0.3 0.3 0.2 0.7 0.5 1.2 0.9 1.7 0 0.1-0.1 0.2-0.1 0.3-0.1-0.1-0.3-0.3-0.4-0.5-0.5-1.1-0.9-2.3-1-3.5-0.2-0.9-0.2-1.9-0.1-2.8 0-0.2 0.1-0.3 0.2-0.4z"></path><path fill="#cdad5d" d="m29.9 19.2h0.1c0.1 0.4 0.1 0.8 0 1.2-0.2 0.5-0.3 1-0.3 1.5-0.1 0.2-0.2 0.3-0.3 0.5-0.2 0-0.2-0.2-0.2-0.4 0.2-0.5 0.4-1 0.6-1.5-0.1-0.3-0.1-0.5 0-0.8 0.1-0.1 0.1-0.3 0.1-0.5z"></path><path fill="#9a7e3d" d="m16.5 19.5c-0.4 0.3-0.7 0.5-1 0.9 0.1 0.1 0.1 0.3 0 0.5-0.4 0.3-0.8 0.6-1.2 0.9l0.2 0.1c-0.4 0-0.7 0-1.1 0.1v0.4c-0.1 0-0.3 0-0.4 0.1 0.1 0.1 0.1 0.2 0 0.4-0.1-0.1-0.2-0.1-0.3-0.1-0.3-0.4-0.6-0.8-0.8-1.3 0.1 0 0.2 0.1 0.3 0.2 0.1-0.1 0.1-0.2 0.1-0.4 0.3-0.1 0.6-0.2 0.9-0.4 0.2-0.3 0.4-0.5 0.7-0.8-0.1 0-0.1-0.1-0.1-0.1 0.1-0.3 0.3-0.3 0.5-0.3 0.1 0.2 0 0.3 0 0.4-0.3 0.2-0.5 0.5-0.6 0.8 0.2 0.6 0.5 0.6 0.8 0.1 0.3-0.2 0.6-0.3 0.9-0.3-0.2-0.2-0.2-0.3-0.1-0.5 0.2-0.1 0.4-0.3 0.5-0.5 0.2-0.1 0.4-0.2 0.5-0.4 0 0.1 0.1 0.2 0.2 0.2z"></path><path fill="#d5b35b" d="m17.3 19.7c0.2 0.1 0.2 0.3 0.2 0.5-0.1 0.4-0.1 0.7-0.2 1.1-0.2 0.3-0.3 0.6-0.4 1l0.1 0.1c-0.2 0.2-0.2 0.4-0.1 0.6 0 0.5-0.1 1-0.3 1.4 0.1 0.1 0.1 0.1 0.1 0.2-0.2 0-0.2 0-0.1 0.1-0.1 0.1-0.3 0.1-0.5 0.1h-0.3c0-0.1 0-0.1-0.1-0.1 0.1-0.1 0.1-0.2 0-0.2 0-0.3 0-0.6 0.1-0.8 0.2-0.3 0.4-0.7 0.5-1 0.3-0.8 0.5-1.5 0.6-2.3 0.1-0.2 0.2-0.4 0.4-0.7z"></path><path fill="#736130" d="m8 20.3c0.3 0.7 0.6 1.5 0.9 2.3-0.3-0.4-0.5-0.9-0.7-1.4-0.1-0.3-0.1-0.6-0.2-0.9z"></path><path fill="#af995a" d="m26.7 17.6c0.3 0.2 0.5 0.2 0.8 0.2 0 0.3 0 0.5-0.1 0.7-0.2 0.1-0.4 0.2-0.5 0.3-0.1 0.7-0.2 1.3-0.5 2-0.4 0.5-0.8 1.2-1 1.9 0-0.2 0-0.3-0.1-0.4 0.2-0.4 0.4-0.8 0.5-1.3 0.3-0.4 0.5-0.8 0.6-1.3 0.2-0.1 0.3-0.4 0.3-0.6 0-0.5 0-1 0-1.5z"></path><path fill="#414e33" d="m4.8 20.6c0.2 0.2 0.4 0.3 0.7 0.3v0.1c-0.1 0-0.2 0-0.4 0-0.1 0.2-0.1 0.3-0.1 0.4 0.7-0.1 0.7 0 0.1 0.3 0.3 0.3 0.3 0.6 0.2 1l-0.2-0.3v-0.2c0-0.2-0.1-0.5-0.2-0.7-0.1-0.1-0.1-0.2-0.1-0.4v-0.5z"></path><path fill="#c1af7b" d="m10.7 18.6c0.2 0.6 0.3 1.1 0.4 1.7 0.2 0.5 0.5 0.9 0.8 1.2 0.2 0.5 0.5 0.9 0.8 1.3-1-0.9-1.7-2.1-2-3.4-0.1-0.3-0.1-0.5 0-0.8z"></path><path fill="#755c20" d="m25.8 21c-0.1 0.5-0.3 0.9-0.5 1.3l-0.3 0.1c0.3-0.5 0.5-1 0.8-1.4z"></path><path fill="#578b41" d="m4.9 21.5c0.1 0.2 0.2 0.5 0.2 0.7-0.2-0.2-0.2-0.4-0.2-0.7z"></path><path fill="#b29a5b" d="m26.3 16.3c0.1 0.1 0.1 0.3 0.1 0.5 0.1-0.1 0.1-0.2 0.1-0.3 0.1 0.2 0.1 0.4 0.1 0.7-0.1 1.3-0.4 2.5-0.8 3.8-0.3 0.4-0.5 0.9-0.8 1.4-0.7 0.9-1.6 1.8-2.6 2.5-0.7 0.3-1.4 0.6-2.2 0.8l0.1-0.2c1.7-0.6 3-1.5 4.1-2.9 0.7-1 1.2-2 1.5-3.2 0 0.1 0 0.2 0.1 0.2l0.2-0.6c0.1-0.9 0.1-1.8 0.1-2.7z"></path><path fill="#c8a653" d="m26.4 21.2c0.1 0 0.2 0 0.3 0.1-0.1 0.4-0.3 0.8-0.5 1.1h-0.2c-0.1 0-0.2-0.1-0.2-0.2 0.1-0.4 0.3-0.7 0.6-1z"></path><path fill="#5b5a4d" d="m30.9 21.5c0 0.2-0.1 0.4-0.1 0.6 0 0.2-0.1 0.4-0.1 0.6-0.2 0-0.3 0.1-0.4 0.3-0.1 0-0.2 0-0.3 0.1l0.1 0.1c-0.3 0-0.4 0.1-0.2 0.4-0.1 0.1-0.2 0.1-0.4 0.1 0.2 0.1 0.2 0.2 0 0.2-0.1-0.1-0.1-0.2-0.1-0.3 0.4-0.6 0.7-1.3 0.8-1.9 0.1-0.1 0.2-0.2 0.3-0.3 0.1 0.1 0.2 0.2 0.4 0.1z"></path><path fill="#81c761" d="m31.3 20.6c0 0.5 0 0.9-0.1 1.3-0.2 0.3-0.4 0.6-0.4 0.9-0.1 0.2-0.1 0.2-0.3 0.2 0.1-0.1 0.1-0.2 0.2-0.3 0-0.2 0.1-0.4 0.1-0.6 0 0 0.1 0 0.1-0.1 0.2-0.5 0.3-0.9 0.4-1.4z"></path><path fill="#765d20" d="m26.8 24.6c0.2-0.3 0.3-0.5 0.5-0.8 0.4-0.6 0.7-1.2 1.1-1.9 0-0.2 0-0.4-0.1-0.6 0.1-0.1 0.2-0.1 0.3-0.1-0.3 1.3-0.9 2.4-1.8 3.4z"></path><path fill="#76632f" d="m9.4 20.8c0.3 0.7 0.7 1.5 1.1 2.2-0.5-0.6-0.9-1.3-1.2-2.1 0-0.1 0-0.1 0.1-0.1z"></path><path fill="#816d38" d="m10.7 18.6c-0.1 0.3-0.1 0.5 0 0.8 0.3 1.3 1 2.5 2 3.4 0.2 0.3 0.5 0.6 0.9 0.8l0.7 0.6c-0.1 0.1-0.2 0-0.3 0-0.5-0.4-1-0.8-1.6-1.1-0.7-0.6-1.2-1.4-1.5-2.3-0.3-0.8-0.4-1.6-0.5-2.4 0.2-0.2 0.4-0.1 0.3 0.2z"></path><path fill="#a78941" d="m17.2 19.4h0.1v0.3c-0.2 0.3-0.3 0.5-0.4 0.7-0.1 0.1-0.2 0.2-0.2 0.4 0 0.4-0.2 0.8-0.6 1l0.2 0.1c-0.2 0.2-0.3 0.3-0.4 0.4-0.2 0-0.4 0-0.6-0.2-0.1 0.1-0.2 0.1-0.4 0.1 0 0.2 0 0.3-0.1 0.4-0.1-0.2-0.3-0.3-0.4-0.4-0.2 0-0.2 0.1-0.1 0.2-0.3 0-0.5 0.1-0.6 0.5-0.1 0.1-0.2 0.1-0.3 0.2 0.2 0 0.2 0.1 0 0.2-0.1-0.1-0.3-0.2-0.4-0.4 0.1-0.2 0.1-0.3 0-0.4 0.1-0.1 0.3-0.1 0.4-0.1v-0.4c0.4-0.1 0.7-0.1 1.1-0.1l-0.2-0.1c0.4-0.3 0.8-0.6 1.2-0.9 0.1-0.2 0.1-0.4 0-0.5 0.3-0.4 0.6-0.6 1-0.9 0.2 0.1 0.5 0 0.7-0.1z"></path><path fill="#ecd488" d="m22.8 22.8v0.2c-0.7 0.5-1.4 0.8-2.2 1.1h-0.3c0-0.6 0.2-1.1 0.6-1.6-0.1-0.2-0.1-0.4-0.1-0.5-0.1 0.2-0.2 0.3-0.3 0.4 0-0.3 0.1-0.5 0.3-0.7 0.1 0.2 0.3 0.3 0.5 0.2 0.3 0.1 0.5 0.3 0.8 0.4 0.2 0.1 0.4 0.3 0.4 0.6 0.1-0.1 0.2-0.1 0.3-0.1z"></path><path fill="#7a6227" d="m27.3 19.7c0.1 0 0.1 0.1 0.1 0.2-0.3 1-0.7 2-1.2 3-0.2 0.3-0.4 0.6-0.7 0.8 0.2-0.4 0.5-0.8 0.7-1.3 0.2-0.3 0.4-0.7 0.5-1.1 0.3-0.5 0.5-1 0.6-1.6z"></path><path fill="#6e5b29" d="m7.1 21.1c0.4 0.7 0.7 1.5 1.1 2.2-0.6-0.6-0.9-1.4-1.1-2.2z"></path><path fill="#988246" d="m9.8 18.4h0.2c0.1 0.1 0.1 0.3 0.1 0.4-0.1 1.2 0.3 2.2 1 3.1 0.4 0.9 1.1 1.6 1.9 2.1 0.2 0.2 0.4 0.5 0.7 0.6 0.1 0.1 0.2 0.1 0.3 0.1 0.3 0.1 0.6 0.2 0.9 0.4-0.5 0.1-0.9 0-1.2-0.3-0.4-0.2-0.8-0.5-1.2-0.7-1.4-1.3-2.3-2.9-2.7-4.8v-0.9z"></path><path fill="#d7b75f" d="m20 24.4c-0.5 0.2-1 0.3-1.5 0.3 0.1-0.1 0.2-0.1 0.3-0.1 0.1-0.3 0-0.6-0.1-0.9 0.1-0.2 0.2-0.3 0.4-0.4-0.2-0.2-0.2-0.4 0-0.6-0.1-0.1-0.3-0.2-0.4-0.1 0.1-0.1 0.2-0.2 0.3-0.2-0.2-0.1-0.3-0.1-0.5-0.1 0-0.8 0-1.6-0.1-2.4 0.1-0.2 0.1-0.3 0.3-0.2 0 0.3 0 0.5 0 0.7l-0.2 0.3c0.2 0.1 0.3 0.3 0.2 0.4 0.3 0.3 0.5 0.6 0.5 1 0.1 0 0.2 0 0.3 0.1 0 0.3 0 0.5 0 0.7l0.2 0.3c-0.4 0.4-0.3 0.8 0.3 1.2z"></path><path fill="#b19855" d="m29.5 20c-0.5 0.1-1 0.1-1.5 0.1l-0.3 0.3c-0.3 1-0.7 1.9-1.3 2.7-0.1-0.1-0.1-0.2-0.2-0.2 0.5-1 0.9-2 1.2-3 0.1-0.1 0.1-0.2 0.2-0.3 0.2 0.1 0.3 0.1 0.5 0 0.5-0.1 0.9-0.1 1.4-0.1v0.5z"></path><path fill="#69a84e" d="m5.1 22.4l0.2 0.3 0.3 0.6c-0.3-0.2-0.4-0.5-0.5-0.9z"></path><path fill="#c5a14a" d="m17.9 24.7h-1.3c-0.1-0.1-0.1-0.1 0.1-0.1 0.2-0.1 0.3-0.3 0.3-0.5 0-1 0.2-1.9 0.6-2.7 0.1 0.2 0.2 0.4 0.3 0.5-0.4 0.2-0.4 0.3 0 0.5 0 0 0 0.1-0.1 0.2 0.3 0.1 0.3 0.3 0 0.5 0.2 0 0.2 0.2 0.3 0.3-0.3 0.4-0.3 0.8-0.2 1.3z"></path><path fill="#c1af7b" d="m7.3 16.6c0 0.9 0.1 1.9 0.3 2.8 0.4 2.5 1.5 4.6 3.5 6.2 0.3 0.3 0.7 0.6 1.1 0.8 0.1 0.1 0.1 0.2 0 0.2-0.4-0.2-0.7-0.4-1.1-0.7-0.5-0.5-1-1.1-1.6-1.5-0.2-0.5-0.5-0.8-0.8-1.2-0.2-0.6-0.5-1.2-0.8-1.8-0.3-0.7-0.5-1.4-0.5-2.1 0-0.2 0-0.3-0.1-0.5v-2.2z"></path><path fill="#6f5c28" d="m10.5 22c0.6 0.8 1.2 1.6 1.9 2.2-0.8-0.5-1.5-1.2-1.9-2.2z"></path><path fill="#705d2a" d="m11.1 21.9c0.6 0.7 1.2 1.4 1.9 2.1-0.8-0.5-1.5-1.2-1.9-2.1z"></path><path fill="#b09249" d="m15.9 22.3c0.1 0 0.1 0 0.1 0.1-0.2 0.1-0.3 0.3-0.3 0.6-0.2 0-0.3 0-0.4 0.1l-0.3-0.4c-0.1 0.3-0.3 0.5-0.7 0.4 0.2 0.1 0.3 0.3 0.3 0.6 0.1 0 0.3 0 0.4 0.1-0.1 0.1-0.1 0.2 0 0.3l0.1-0.1c0.1 0.2 0.3 0.4 0.6 0.5 0.1 0 0.1 0.1 0 0.2h-0.1c-0.4-0.2-0.8-0.3-1.3-0.5l-0.7-0.6-0.2-0.3c0.2-0.1 0.2-0.2 0-0.2 0.1-0.1 0.2-0.1 0.3-0.2 0.1-0.4 0.3-0.5 0.6-0.5-0.1-0.1-0.1-0.2 0.1-0.2 0.1 0.1 0.3 0.2 0.4 0.4 0.1-0.1 0.1-0.2 0.1-0.4 0.2 0 0.3 0 0.4-0.1 0.2 0.2 0.4 0.2 0.6 0.2z"></path><path fill="#b19653" d="m28.5 23.2c-0.3 0.4-0.6 0.8-0.7 1.3-0.4 0.3-0.8 0.7-1.1 1.1 0-0.1 0-0.2-0.1-0.2-0.1 0.1-0.3 0.2-0.4 0.2 0-0.1 0.1-0.2 0.1-0.3 0.2-0.2 0.4-0.4 0.5-0.7 0.9-1 1.5-2.1 1.8-3.4-0.1 0-0.2 0-0.3 0.1 0.1 0.2 0.1 0.4 0.1 0.6-0.4 0.7-0.7 1.3-1.1 1.9-0.1-0.1-0.1-0.2-0.2-0.2v-0.3h-0.2c0-0.1-0.1-0.2-0.2-0.3 0.5-0.8 0.8-1.6 1.1-2.5 0.6-0.2 1.2-0.2 1.7-0.2-0.3 1-0.6 2-1 2.9z"></path><path fill="#735a1e" d="m27.1 23.3c0.3-0.7 0.6-1.5 1-2.2-0.1 0.8-0.5 1.6-1 2.2z"></path><path fill="#66521d" d="m6.4 21c-0.1 0.2 0 0.4 0.1 0.5 0.4 0.7 0.7 1.5 0.9 2.3 0.1 0.3 0.3 0.4 0.6 0.6 0.2 0.2 0.3 0.4 0.3 0.7 0.3 0.2 0.4 0.5 0.6 0.7 0.1 0.1 0.2 0.2 0.4 0.1l0.1 0.3h-0.5c-0.1-0.1-0.2-0.1-0.3-0.2-0.1-0.3-0.3-0.7-0.6-1l0.2-0.1c-0.2-0.2-0.4-0.4-0.7-0.5-0.1-0.4-0.3-0.8-0.6-1.1 0-0.1 0.1-0.2 0.1-0.3-0.4-0.5-0.7-1-0.9-1.7 0.1-0.1 0.2-0.2 0.3-0.3z"></path><path fill="#bb9a48" d="m16.9 20.4c-0.1 0.8-0.3 1.5-0.6 2.3-0.1 0.3-0.3 0.7-0.5 1-0.1 0.2-0.1 0.5-0.1 0.8-0.3-0.1-0.5-0.3-0.6-0.5l-0.1 0.1c-0.1-0.1-0.1-0.2 0-0.3-0.1-0.1-0.3-0.1-0.4-0.1 0-0.3-0.1-0.5-0.3-0.6 0.4 0.1 0.6-0.1 0.7-0.4l0.3 0.4c0.1-0.1 0.2-0.1 0.4-0.1 0-0.3 0.1-0.5 0.3-0.6 0-0.1 0-0.1-0.1-0.1 0.1-0.1 0.2-0.2 0.4-0.4l-0.2-0.1c0.4-0.2 0.6-0.6 0.6-1 0-0.2 0.1-0.3 0.2-0.4z"></path><path fill="#aa9151" d="m9.2 14.7c-0.5 1.6-0.6 3.2-0.3 4.8 0 0.5 0.2 0.8 0.4 1 0.1 0.1 0.1 0.1 0.1 0.3-0.1 0-0.1 0-0.1 0.1 0.3 0.8 0.7 1.5 1.2 2.1 0.3 0.6 0.8 1.1 1.4 1.5 0.3 0.3 0.6 0.6 0.9 1-0.3-0.1-0.5-0.3-0.7-0.4-3.1-2.6-4.2-5.9-3.3-9.9 0-0.2 0.2-0.4 0.4-0.5z"></path><path fill="#bfaa70" d="m12.7 22.8c0.1 0 0.2 0 0.3 0.1 0.1 0.2 0.3 0.3 0.4 0.4l0.2 0.3c-0.4-0.2-0.7-0.5-0.9-0.8z"></path><path fill="#6f8e5b" d="m30.7 22.7c-0.1 0.1-0.1 0.2-0.2 0.3v0.3c-0.1 0.1-0.2 0.2-0.3 0.4 0-0.3 0-0.5 0.1-0.7 0.1-0.2 0.2-0.3 0.4-0.3z"></path><path fill="#555647" d="m5.5 21c0.3 1.2 0.8 2.3 1.4 3.4-0.1 0.1-0.3 0.2-0.5 0.2 0-0.2-0.1-0.3-0.3-0.4l-0.5-0.9-0.3-0.6c0.1-0.4 0.1-0.7-0.2-1 0.6-0.3 0.6-0.4-0.1-0.3 0-0.1 0-0.2 0.1-0.4 0.2 0 0.3 0 0.4 0z"></path><path fill="#735f29" d="m10.5 23c0.5 0.5 0.9 1 1.4 1.5-0.6-0.4-1.1-0.9-1.4-1.5z"></path><path fill="#d5be79" d="m6.8 21.2c0.2 0.5 0.3 1 0.5 1.6 0.4 0.5 0.8 1.1 1 1.8 0.4 0.3 0.7 0.6 1 1 0.1 0.1 0.1 0.2 0.1 0.3h-0.1c-0.2 0.1-0.3 0-0.4-0.1-0.2-0.2-0.3-0.5-0.6-0.7 0-0.3-0.1-0.5-0.3-0.7-0.3-0.2-0.5-0.3-0.6-0.6-0.2-0.8-0.5-1.6-0.9-2.3 0-0.1 0-0.3 0-0.5 0.1 0.1 0.2 0.2 0.3 0.2z"></path><path fill="#cbb575" d="m23.1 22.9c-0.6 0.6-1.2 1-2 1.3l-0.5-0.1c0.8-0.3 1.5-0.6 2.2-1.1 0.1-0.1 0.2-0.1 0.3-0.1z"></path><path fill="#bdaa74" d="m6.8 16.1c0 0.3 0 0.5 0.1 0.7-0.1 1.4 0.1 2.7 0.4 4.1 0.1 0.3 0.2 0.6 0.4 0.9 0.6 1.6 1.6 3 2.9 4.2 0.1 0 0.2 0.1 0.3 0 0.4 0.5 0.9 0.9 1.5 1.2 0.2 0.1 0.2 0.2 0 0.2l-0.9-0.5c-0.2-0.2-0.5-0.5-0.9-0.6-0.4-0.6-0.9-1-1.4-1.5-0.3-0.5-0.7-1-1-1.5-0.4-0.7-0.7-1.5-1.1-2.2-0.4-1.7-0.5-3.3-0.3-5z"></path><path fill="#c0a867" d="m26 22.4h0.2c-0.2 0.5-0.5 0.9-0.7 1.3l-0.5 0.3c0-0.1-0.2-0.1-0.3-0.1 0.2-0.2 0.3-0.4 0.4-0.7 0.3-0.3 0.6-0.6 0.9-0.8z"></path><path fill="#c69f49" d="m28.9 23c0.1 0 0.1 0.1 0.2 0.2-0.2 0.3-0.3 0.6-0.5 0.9-0.1 0.1-0.2 0.2-0.3 0.1-0.1 0.1-0.2 0-0.2-0.1 0.2-0.2 0.3-0.5 0.4-0.9l0.4-0.2z"></path><path fill="#6a5623" d="m8.2 23.3c0.3 0.5 0.7 1 1 1.5-0.5-0.4-0.8-0.9-1-1.5z"></path><path fill="#6b5725" d="m8.7 23.2c0.3 0.4 0.6 0.7 0.8 1.2-0.4-0.3-0.6-0.7-0.8-1.2z"></path><path fill="#715e2c" d="m9.1 21.5c0.5 1 1.1 1.9 1.8 2.7-0.5-0.3-0.9-0.8-1.2-1.3-0.3-0.4-0.5-0.9-0.6-1.4z"></path><path fill="#bfa765" d="m24.7 21.1c0.1 0.3 0 0.5-0.2 0.7 0 0.1 0.1 0.1 0.1 0.2-0.1 0.2-0.2 0.4-0.2 0.6-1.2 1.3-2.7 2.2-4.4 2.7 0.2-0.2 0.5-0.4 0.9-0.6 1.6-0.8 2.9-2 3.8-3.6z"></path><path fill="#aa904f" d="m30 20.4h0.2v0.6c-0.1 0.5-0.2 1-0.4 1.4l-0.3 0.4c-0.2 0.7-0.5 1.3-1 1.8-0.2 0-0.4 0.1-0.6 0.3 0 0-0.1-0.1-0.2-0.1 0.1-0.1 0.3-0.3 0.4-0.4 0.2 0.1 0.3 0.1 0.2-0.2 0.1 0.1 0.2 0 0.3-0.1 0.2-0.3 0.3-0.6 0.5-0.9-0.1-0.1-0.1-0.2-0.2-0.2 0.1-0.3 0.2-0.7 0.3-1 0 0.2 0 0.4 0.2 0.4 0.1-0.2 0.2-0.3 0.3-0.5 0-0.5 0.1-1 0.3-1.5z"></path><path fill="#947e43" d="m8.5 19.5c0.1 0.7 0.3 1.4 0.6 2 0.1 0.5 0.3 1 0.6 1.4 0.3 0.5 0.7 1 1.2 1.3 0.5 0.5 1 0.9 1.5 1.4-0.2-0.1-0.3-0.1-0.5-0.1l-1.2-0.8c-0.3-0.5-0.6-0.9-1-1.4-0.4-0.5-0.6-1.1-0.9-1.6-0.1-0.7-0.3-1.3-0.4-2 0-0.1 0-0.1 0.1-0.2z"></path><path fill="#c4ad6d" d="m26.2 22.9c0.1 0 0.1 0.1 0.2 0.2-0.3 0.6-0.7 1.1-1.1 1.5-0.1-0.1-0.2-0.2-0.4-0.1 0.3-0.3 0.4-0.5 0.6-0.8 0.3-0.2 0.5-0.5 0.7-0.8z"></path><path fill="#705c29" d="m9.8 23.9l0.9 0.8c0.1 0.1 0.1 0.2 0.2 0.3-0.5-0.3-0.8-0.6-1.1-1.1z"></path><path fill="#75602a" d="m13 24c0.3 0.2 0.7 0.4 1 0.6v0.1c-0.1 0-0.2 0-0.3-0.1-0.3-0.1-0.5-0.4-0.7-0.6z"></path><path fill="#82b169" d="m30.2 23.7c0 0.2-0.1 0.4-0.2 0.5-0.1-0.2 0-0.4 0.2-0.5z"></path><path fill="#c2ac6f" d="m25.3 22.3c0.1 0.1 0.1 0.2 0.1 0.4l-0.3 0.5c-0.7 0.7-1.4 1.4-2.2 2-1 0.6-2 1-3.2 1.2 0 0-0.1 0-0.2-0.1 0.2 0 0.3-0.1 0.4-0.1 2-0.6 3.6-1.7 5-3.3 0.1-0.1 0.1-0.3 0.1-0.5l0.3-0.1z"></path><path fill="#9d8444" d="m12.4 23.1c0.6 0.3 1.1 0.7 1.6 1.1 0.1 0 0.2 0.1 0.3 0 0.4 0.4 0.8 0.6 1.3 0.5h0.1c0.1 0 0.1 0 0.1 0.1-0.1 0-0.1 0-0.1 0.1-0.6 0.1-1.1-0.1-1.6-0.4-0.6-0.4-1.2-0.8-1.7-1.4z"></path><path fill="#706e62" d="m30.3 23c-0.1 0.2-0.1 0.4-0.1 0.7-0.2 0.1-0.3 0.3-0.2 0.5-0.2 0.2-0.3 0.3-0.4 0.5-0.1 0-0.2 0.1-0.3 0.2-0.2-0.2-0.3-0.2-0.5 0.1 0 0-0.1-0.1-0.2-0.1 0.3-0.4 0.6-0.9 0.8-1.3 0 0.1 0 0.2 0.1 0.3 0.2 0 0.2-0.1 0-0.2 0.2 0 0.3 0 0.4-0.1-0.2-0.3-0.1-0.4 0.2-0.4l-0.1-0.1c0.1-0.1 0.2-0.1 0.3-0.1z"></path><path fill="#6db54d" d="m5.6 23.3l0.5 0.9 0.1 0.5c-0.2 0-0.3-0.2-0.3-0.5-0.1 0.1-0.2 0-0.3 0 0-0.3 0-0.6 0-0.9z"></path><path fill="#79cf53" d="m30.5 23.3c0 0.8-0.4 1.3-1 1.7 0-0.1 0.1-0.2 0.1-0.3 0.1-0.2 0.2-0.3 0.4-0.5 0.1-0.1 0.2-0.3 0.2-0.5 0.1-0.2 0.2-0.3 0.3-0.4z"></path><path fill="#756028" d="m12.4 24.2c0.4 0.3 0.8 0.5 1.2 0.7v0.1c-0.5-0.1-0.9-0.4-1.2-0.8z"></path><path fill="#786025" d="m14.3 24.2c0.5 0.2 0.9 0.3 1.3 0.5-0.5 0.1-0.9-0.1-1.3-0.5z"></path><path fill="#795f21" d="m28.5 23.2c-0.1 0.4-0.2 0.7-0.4 0.9 0 0.1 0.1 0.2 0.2 0.1 0.1 0.3 0 0.3-0.2 0.2-0.1 0.1-0.3 0.3-0.4 0.4-0.3 0.3-0.6 0.6-0.9 1 0.1 0.1 0.2 0.2 0.4 0.2-0.3 0-0.6 0-0.9 0.2 0.2-0.1 0.3-0.4 0.4-0.6 0.3-0.4 0.7-0.8 1.1-1.1 0.1-0.5 0.4-0.9 0.7-1.3z"></path><path fill="#6b5724" d="m9.5 24.4c0.6 0.4 1.1 1 1.6 1.5-0.7-0.4-1.2-0.9-1.6-1.5z"></path><path fill="#c3ab6a" d="m26.7 23c0.1 0.1 0.2 0.2 0.2 0.3-0.4 0.7-0.9 1.4-1.5 2-0.2-0.1-0.3-0.1-0.5 0 0.7-0.8 1.3-1.5 1.8-2.3z"></path><path fill="#4a4c3e" d="m6.1 24.2c0.2 0.1 0.3 0.2 0.3 0.4 0.2 0 0.4-0.1 0.5-0.2 0.6 1.1 1.4 2 2.4 2.9 0.8 0.7 1.6 1.3 2.6 1.8-0.1 0.1-0.2 0.2-0.3 0.3-0.3-0.3-0.4-0.3-0.3 0h-0.2c-0.1-0.2-0.3-0.3-0.6-0.3 0-0.2-0.1-0.3-0.3-0.2 0-0.3-0.2-0.4-0.5-0.4-0.2-0.3-0.4-0.5-0.8-0.7-0.2-0.2-0.4-0.3-0.6-0.4v-0.1c-0.1-0.2-0.2-0.3-0.4-0.4 0-0.3-0.1-0.5-0.4-0.5-0.2-0.2-0.4-0.5-0.6-0.7 0-0.2 0-0.3-0.2-0.3l-0.2-0.4c0-0.1-0.1-0.3-0.3-0.3l-0.1-0.5z"></path><path fill="#a18949" d="m9.6 20.8c0.1-0.1 0.2 0 0.2 0.1 0.2 0.4 0.4 0.8 0.7 1.1 0.4 1 1.1 1.7 1.9 2.2 0.3 0.4 0.7 0.7 1.2 0.8 0.5 0.4 1 0.7 1.6 0.9-0.4 0-0.8-0.1-1.2-0.2-0.3-0.3-0.6-0.4-1-0.6-1.6-1.1-2.7-2.6-3.4-4.3z"></path><path fill="#af924b" d="m20.6 24.1l0.5 0.1c-1.6 0.8-3.2 1-5 0.6 0.2 0 0.4 0 0.5-0.1h1.9c0.5 0 1-0.1 1.5-0.3 0.2-0.1 0.4-0.2 0.6-0.3z"></path><path fill="#7d6c3e" d="m6.9 23.3c0.3 0.3 0.5 0.7 0.6 1.1 0.3 0.1 0.5 0.3 0.7 0.5l-0.2 0.1c0.3 0.3 0.5 0.7 0.6 1-0.4-0.5-0.8-1-1.3-1.5-0.2-0.4-0.3-0.8-0.4-1.2z"></path><path fill="#978145" d="m7.6 18.6c0.1 0.6 0.2 1.2 0.4 1.7 0.1 0.3 0.1 0.6 0.2 0.9 0.2 0.5 0.4 1 0.7 1.4 0.4 0.4 0.7 0.8 0.9 1.3 0.3 0.5 0.6 0.8 1.1 1.1 0.1 0.2 0.2 0.4 0.4 0.6h-0.2c-2-1.6-3.1-3.7-3.5-6.2v-0.8z"></path><path fill="#bea76a" d="m28.5 24.6c0 0.2-0.1 0.4-0.1 0.5-0.2 0.2-0.3 0.4-0.4 0.6-0.3 0.1-0.4 0.2-0.6 0.3 0.1-0.3 0.3-0.6 0.4-0.9 0-0.1-0.1-0.2-0.1-0.3 0.1 0 0.2 0.1 0.2 0.1 0.2-0.2 0.4-0.3 0.6-0.3z"></path><path fill="#588d41" d="m6.2 24.7c0.2 0 0.3 0.2 0.3 0.3-0.2 0-0.3-0.1-0.3-0.3z"></path><path fill="#7a6225" d="m24.7 21.1c-0.9 1.6-2.2 2.8-3.8 3.6-1.7 0.6-3.5 0.7-5.2 0.2 0-0.1 0-0.1 0.1-0.1h0.3c1.8 0.4 3.4 0.2 5-0.6 0.8-0.3 1.4-0.7 2-1.3 0.2-0.1 0.3-0.2 0.4-0.3 0.4-0.4 0.7-0.9 0.9-1.4 0.2-0.5 0.5-1 0.7-1.5 0 0.5-0.2 1-0.4 1.4z"></path><path fill="#655220" d="m9.2 24.8c0.5 0.5 1 0.9 1.4 1.5-0.6-0.4-1.1-0.9-1.4-1.5z"></path><path fill="#8a743b" d="m7.4 19.3c0 0.7 0.2 1.4 0.5 2.1 0.3 0.6 0.6 1.2 0.8 1.8 0.2 0.5 0.4 0.9 0.8 1.2 0.4 0.6 0.9 1.1 1.6 1.5 0.4 0.3 0.7 0.5 1.1 0.7 0.1 0.1 0.3 0.2 0.3 0.3-0.5-0.2-1.1-0.5-1.6-0.9-0.1 0.1-0.2 0-0.3 0-1.3-1.2-2.3-2.6-2.9-4.2-0.2-0.7-0.3-1.4-0.4-2.2 0-0.1 0-0.2 0.1-0.3z"></path><path fill="#cbb984" d="m24.9 24.5c0.2-0.1 0.3 0 0.4 0.1-0.6 0.6-1.3 1.1-2 1.6 0 0-0.1 0-0.2-0.1 0.2-0.1 0.3-0.2 0.4-0.4 0.5-0.4 0.9-0.8 1.4-1.2z"></path><path fill="#7a6024" d="m26.8 24.6c-0.1 0.3-0.3 0.5-0.5 0.7 0.1-0.3 0.3-0.6 0.5-0.7z"></path><path fill="#c7a24c" d="m27.7 24.8c0 0.1 0.1 0.2 0.1 0.3-0.1 0.3-0.3 0.6-0.4 0.9h-0.2c-0.2 0-0.3-0.1-0.4-0.2 0.3-0.4 0.6-0.7 0.9-1z"></path><path fill="#7ccb42" d="m-0.1 30v-4.3l0.6-0.3c0.3-0.3 0.6-0.7 0.9-1 0.7-0.5 1.4-0.4 2.1 0.2 0.1 0.3 0.2 0.7 0.3 1-0.1 0.4-0.2 0.8-0.4 1.2-0.1 0.1-0.3 0.2-0.4 0.2l-2.1 2.1c0 0.2-0.1 0.4-0.3 0.5-0.2 0.1-0.5 0.2-0.7 0.4z"></path><path fill="#7b6327" d="m25.1 23.2c-0.1 0.3-0.2 0.5-0.4 0.7-1.1 1.1-2.3 1.9-3.7 2.5-2.1 0.6-4.2 0.6-6.2-0.1-0.2 0-0.3-0.1-0.5-0.3 0.7 0.2 1.4 0.4 2.1 0.5 1.1 0.1 2.2 0.1 3.3-0.1 1.2-0.2 2.2-0.6 3.2-1.2 0.8-0.6 1.5-1.3 2.2-2z"></path><path fill="#af934e" d="m14.1 24.5c0.5 0.3 1 0.5 1.6 0.4 1.7 0.5 3.5 0.4 5.2-0.2-0.4 0.2-0.7 0.4-0.9 0.6-0.2 0.1-0.4 0.2-0.7 0.2-0.9 0.1-1.7 0.1-2.6 0-0.6-0.1-1.2-0.2-1.8-0.4-0.3-0.2-0.6-0.3-0.9-0.4v-0.1c0.1 0 0.1-0.1 0.1-0.1z"></path><path fill="#bea86b" d="m10.7 24.7l1.2 0.8c0.2 0.2 0.5 0.4 0.6 0.7-0.5-0.4-1.1-0.8-1.6-1.2-0.1-0.1-0.1-0.2-0.2-0.3z"></path><path fill="#907637" d="m11.9 24.5c0.3 0.2 0.7 0.5 1.1 0.6 0.4 0.4 0.9 0.7 1.3 0.9-0.2 0-0.5 0-0.7-0.1-0.4 0-0.6-0.2-0.8-0.4-0.3-0.4-0.6-0.7-0.9-1z"></path><path fill="#b59b57" d="m13.7 24.8c0.3 0.3 0.7 0.4 1.2 0.3 0.5 0.4 1 0.5 1.6 0.6 0.1 0.2 0 0.3-0.2 0.2-1-0.1-1.9-0.4-2.7-0.9v-0.1c0 0 0.1 0 0.1-0.1z"></path><path fill="#588d41" d="m6.7 25.4c0.2 0 0.2 0.1 0.2 0.3l-0.2-0.1v-0.2z"></path><path fill="#838077" d="m5.5 19.3c0.1 1.2 0.5 2.4 1 3.5 0.1 0.2 0.3 0.4 0.4 0.5 0.1 0.4 0.2 0.8 0.4 1.2 0.5 0.5 0.9 1 1.3 1.5 0.1 0.1 0.2 0.1 0.3 0.2 0 0.1 0 0.2 0.1 0.3 0.2 0.2 0.4 0.4 0.5 0.6-0.1 0-0.2 0-0.2 0.2-1-0.9-1.8-1.8-2.4-2.9-0.6-1.1-1.1-2.2-1.4-3.4v-0.1l-0.3-1c0.2-0.2 0.3-0.3 0.3-0.6z"></path><path fill="#7a6226" d="m24.4 22.6c-1.1 1.4-2.4 2.3-4.1 2.9-1.3 0.3-2.5 0.4-3.8 0.2-0.6-0.1-1.1-0.2-1.6-0.6 0.6 0.2 1.2 0.3 1.8 0.4 0.9 0.1 1.7 0.1 2.6 0 0.3 0 0.5-0.1 0.7-0.2 1.7-0.5 3.2-1.4 4.4-2.7z"></path><path fill="#8c8a7c" d="m29.6 24.7c0 0.1-0.1 0.2-0.1 0.3-0.2 0.4-0.5 0.7-0.9 1l-0.4 0.5c-0.4-0.2-0.4-0.4-0.2-0.8 0.1-0.2 0.2-0.4 0.4-0.6l0.2-0.2c0.1 0 0.2 0.1 0.2 0.1 0.2-0.3 0.3-0.3 0.5-0.1 0.1-0.1 0.2-0.2 0.3-0.2z"></path><path fill="#755e24" d="m12.4 25.6l1.2 0.6v0.1c-0.5-0.1-0.9-0.4-1.2-0.7z"></path><path fill="#7dcd59" d="m29.5 25c0 0.3 0 0.5-0.2 0.6 0 0.2 0.1 0.3 0.2 0.4-0.1 0.1-0.2 0-0.4-0.1-0.2 0.2-0.4 0.4-0.6 0.6l0.1-0.5c0.4-0.3 0.7-0.6 0.9-1z"></path><path fill="#b99e59" d="m13 25.1c0.4 0.2 0.7 0.3 1 0.6 0.4 0.1 0.8 0.2 1.2 0.2 0.4 0.1 0.8 0.2 1.2 0.3 0.1 0.1 0.1 0.2 0 0.3-0.7-0.1-1.4-0.3-2.1-0.5-0.4-0.2-0.9-0.5-1.3-0.9z"></path><path fill="#997f3e" d="m26.3 25.3c0 0.1-0.1 0.2-0.1 0.3-0.3 0.2-0.5 0.5-0.7 0.7-0.2 0.1-0.4 0.1-0.6 0.2 0.4-0.5 0.9-0.9 1.4-1.2z"></path><path fill="#775f23" d="m25 22.4c0 0.2 0 0.4-0.1 0.5-1.4 1.6-3 2.7-5 3.3-1.2 0.1-2.4 0.1-3.5 0-0.4-0.1-0.8-0.2-1.2-0.3-0.6-0.2-1.1-0.5-1.6-0.9 0.8 0.5 1.7 0.8 2.7 0.9 0.9 0.3 2 0.3 3 0.1 0.3 0 0.6-0.1 0.9-0.3 0.8-0.2 1.5-0.5 2.2-0.8 1-0.7 1.9-1.6 2.6-2.5z"></path><path fill="#a38948" d="m20.3 25.5l-0.1 0.2c-0.3 0.2-0.6 0.3-0.9 0.3-1 0.2-2.1 0.2-3-0.1 0.2 0.1 0.3 0 0.2-0.2 1.3 0.2 2.5 0.1 3.8-0.2z"></path><path fill="#6fcd4e" d="m6.7 25.6l0.2 0.1c0.2 0.2 0.4 0.5 0.6 0.7 0.1 0.2 0.3 0.4 0.4 0.5 0 0.3 0.1 0.4 0.4 0.4v0.1h-0.6c0 0.1 0 0.3-0.1 0.4-1.1 0.6-1.6 0.3-1.4-1 0.6-0.2 0.7-0.7 0.5-1.2z"></path><path fill="#c2ad74" d="m24.7 23.9c0.1 0 0.3 0 0.3 0.1-1.1 1.3-2.4 2.1-4 2.6-0.1 0-0.2 0-0.2 0 0.1-0.1 0.1-0.1 0.2-0.2 1.4-0.6 2.6-1.4 3.7-2.5z"></path><path fill="#3a5d2a" d="m7.5 26.4c0.3 0 0.4 0.2 0.4 0.5-0.1-0.1-0.3-0.3-0.4-0.5z"></path><path fill="#a98d49" d="m16.4 26.2c1.1 0.1 2.3 0.1 3.5 0-0.1 0-0.2 0.1-0.4 0.1 0.1 0.1 0.2 0.1 0.2 0.1-1.1 0.2-2.2 0.2-3.3 0.1 0.1-0.1 0.1-0.2 0-0.3z"></path><path fill="#785d20" d="m26.2 26.4c-0.3 0.2-0.6 0.5-0.9 0.8 0 0.1 0.1 0.2 0.2 0.2-0.2 0-0.5 0-0.7 0.1 0.4-0.5 0.8-0.9 1.3-1.2 0 0 0.1 0 0.1 0.1z"></path><path fill="#624b15" d="m9.4 26.2c0.2 0.1 0.4 0.3 0.4 0.5 0.3 0.2 0.6 0.5 0.8 0.7 0 0.1 0 0.1-0.1 0.1-0.3-0.3-0.6-0.5-0.9-0.8-0.1-0.2-0.2-0.4-0.2-0.5z"></path><path fill="#6e5823" d="m10.6 26.3c0.4 0.1 0.7 0.4 0.9 0.6-0.4-0.1-0.7-0.3-0.9-0.6z"></path><path fill="#cab780" d="m25.4 25.3c-0.7 0.6-1.4 1.1-2.2 1.5-0.1 0-0.1 0-0.2 0 0.1-0.1 0.2-0.2 0.2-0.3 0.6-0.4 1.2-0.8 1.7-1.2 0.2-0.1 0.3-0.1 0.5 0z"></path><path fill="#96bc80" d="m28.6 26l-0.1 0.5c-0.2 0.2-0.4 0.3-0.7 0.4 0.1-0.1 0.2-0.3 0.4-0.4l0.4-0.5z"></path><path fill="#c6aa5e" d="m9.3 25.9h0.1c0.6 0.4 1.1 0.8 1.6 1.3 0 0-0.1 0.1-0.1 0.1-0.1 0-0.2 0-0.2 0.1h-0.1c-0.2-0.2-0.5-0.5-0.8-0.7 0-0.2-0.2-0.4-0.4-0.5l-0.1-0.3z"></path><path fill="#795f23" d="m10.9 25c0.5 0.4 1.1 0.8 1.6 1.2 1.2 0.7 2.5 1.2 3.9 1.5-1 0-2-0.2-2.8-0.7-0.9-0.4-1.6-0.9-2.3-1.4-0.2-0.2-0.3-0.4-0.4-0.6z"></path><path fill="#af9450" d="m13.6 25.9c0.2 0.1 0.5 0.1 0.7 0.1 0.2 0.2 0.3 0.3 0.5 0.3 2 0.7 4.1 0.7 6.2 0.1-0.1 0.1-0.1 0.1-0.2 0.2 0 0 0.1 0 0.2 0-0.6 0.3-1.2 0.4-1.8 0.5-2 0.2-3.9 0-5.6-0.8v-0.1c0.1-0.1 0.1-0.2 0-0.3z"></path><path fill="#c5a14c" d="m26.2 26.4c0.1 0.1 0.1 0.2 0.1 0.3h0.3c-0.2 0.2-0.3 0.3-0.6 0.5l-0.5 0.2c-0.1 0-0.2-0.1-0.2-0.2 0.3-0.3 0.6-0.6 0.9-0.8z"></path><path fill="#b6a165" d="m23.5 25.7c-0.1 0.2-0.2 0.3-0.4 0.4 0.1 0.1 0.2 0.1 0.2 0.1-1.1 0.7-2.4 1.1-3.8 1.3 0-0.1-0.1-0.1-0.2-0.1 1.5-0.4 2.8-0.9 4.2-1.7z"></path><path fill="#775f24" d="m26.9 23.3h0.2v0.3c-1.6 2.1-3.7 3.7-6.2 4.6-1 0.1-2 0.3-3 0.3-0.8 0-1.6-0.1-2.4-0.3-0.2 0-0.4-0.1-0.6-0.2 1.6 0.3 3.2 0.4 4.8 0.1 0.5-0.1 0.9-0.2 1.3-0.4 0.8-0.2 1.5-0.5 2.2-0.9 0.8-0.4 1.5-0.9 2.2-1.5 0.6-0.6 1.1-1.3 1.5-2z"></path><path fill="#659e4b" d="m7.9 26.9c0.2 0.1 0.3 0.2 0.4 0.4-0.3 0-0.4-0.1-0.4-0.4z"></path><path fill="#6e571d" d="m11.5 26.9l0.9 0.5 0.9 0.6c-0.7-0.2-1.3-0.5-1.8-1.1z"></path><path fill="#c3b795" d="m27.3 26.4c-0.1 0.3-0.3 0.5-0.6 0.5-0.1 0.3-0.4 0.5-0.7 0.7v-0.4c0.3-0.2 0.4-0.3 0.6-0.5h0.3v-0.3h0.4z"></path><path fill="#bba567" d="m27.1 23.6c0.1 0 0.1 0.1 0.2 0.2-0.2 0.3-0.3 0.5-0.5 0.8-0.2 0.1-0.4 0.4-0.5 0.7-0.5 0.3-1 0.7-1.4 1.2-0.7 0.5-1.5 0.9-2.2 1.3-0.5 0.3-1.1 0.4-1.6 0.5-0.1 0-0.2 0-0.2-0.1 2.5-0.9 4.6-2.5 6.2-4.6z"></path><path fill="#9fbd8c" d="m27.8 26.9v0.3l-0.4 0.3c0.1-0.2 0.2-0.4 0.4-0.6z"></path><path fill="#755d22" d="m25.5 23.7c-0.2 0.3-0.3 0.5-0.6 0.8-0.5 0.4-0.9 0.8-1.4 1.2-1.4 0.8-2.7 1.3-4.2 1.7-1.6 0.1-3.1-0.1-4.6-0.5-0.4-0.2-0.8-0.4-1.1-0.6 1.7 0.8 3.6 1 5.6 0.8 0.6-0.1 1.2-0.2 1.8-0.5 1.6-0.5 2.9-1.3 4-2.6l0.5-0.3z"></path><path fill="#866b2d" d="m12.5 26.9c0.8 0.4 1.6 0.8 2.4 1.1-0.6-0.1-1.1-0.2-1.7-0.3-0.1-0.3-0.4-0.6-0.7-0.8z"></path><path fill="#b5a065" d="m23.2 26.5c0 0.1-0.1 0.2-0.2 0.3 0.1 0 0.1 0 0.2 0-0.7 0.4-1.4 0.7-2.2 0.9-0.1 0-0.2 0-0.2 0 0.1-0.1 0.1-0.1 0.2-0.2 0.7-0.3 1.5-0.6 2.2-1z"></path><path fill="#8f8c85" d="m9.5 27.1c1 0.8 2 1.5 3.2 2.1-0.1 0-0.2 0.1-0.2 0.2l-0.6-0.3c-1-0.5-1.8-1.1-2.6-1.8 0-0.2 0.1-0.2 0.2-0.2z"></path><path fill="#3b5e2b" d="m8.9 27.8c0.4 0.2 0.6 0.4 0.8 0.7-0.2 0-0.4-0.2-0.5-0.3l-0.3-0.4z"></path><path fill="#c9a752" d="m12.4 28.5c-0.3-0.2-0.6-0.3-0.9-0.5-0.1-0.1-0.1-0.2-0.1-0.4 0.1 0 0.1 0 0.2-0.1 0.4 0.2 0.8 0.5 1.2 0.8-0.1 0.1-0.2 0.2-0.4 0.2z"></path><path fill="#977d3d" d="m6.9 20.9l0.2 0.2c0.2 0.8 0.5 1.6 1.1 2.2 0.2 0.6 0.5 1.1 1 1.5 0.3 0.6 0.8 1.1 1.4 1.5 0.2 0.3 0.5 0.5 0.9 0.6 0.5 0.6 1.1 0.9 1.8 1.1l0.9 0.5c-0.2 0.1-0.4 0.1-0.6-0.1-0.2 0.1-0.2 0.3-0.3 0.5 0-0.2-0.2-0.2-0.3-0.2 0.1 0.1 0.1 0.2 0.1 0.4-0.1 0-0.2 0-0.3-0.1-0.3-0.1-0.4-0.2-0.4-0.4v-0.1c0.2 0 0.3-0.1 0.4-0.2-0.4-0.3-0.8-0.6-1.2-0.8-0.1 0.1-0.1 0.1-0.2 0.1-0.2 0-0.4-0.2-0.5-0.3 0 0 0.1-0.1 0.1-0.1-0.5-0.5-1-0.9-1.6-1.3 0-0.1 0-0.2-0.1-0.3-0.3-0.4-0.6-0.7-1-1-0.2-0.7-0.6-1.3-1-1.8-0.2-0.6-0.3-1.1-0.5-1.6 0-0.1 0.1-0.2 0.1-0.3z"></path><path fill="#c9a14a" d="m24.5 27.7h0.1l0.1 0.3c-0.4 0.2-0.7 0.3-1.1 0.4 0-0.1 0-0.2 0.1-0.3l0.8-0.4z"></path><path fill="#664e15" d="m10.9 27.3c0.1 0.1 0.3 0.3 0.5 0.3 0 0.2 0 0.3 0.1 0.4 0.3 0.2 0.6 0.3 0.9 0.5v0.1c-0.7-0.2-1.2-0.6-1.7-1.2 0-0.1 0.1-0.1 0.2-0.1z"></path><path fill="#a78b46" d="m10.9 26c0.5 0.4 1.1 0.7 1.6 0.9 0.3 0.2 0.6 0.5 0.7 0.8 0.6 0.1 1.1 0.2 1.7 0.3 0.2 0.1 0.4 0.2 0.6 0.2 0.8 0.2 1.6 0.3 2.4 0.3 1 0 2-0.2 3-0.3 0 0.1 0.1 0.1 0.2 0.1-2.6 0.7-5.2 0.6-7.8-0.3l-0.9-0.6c0.2 0 0.2-0.1 0-0.2-0.6-0.3-1.1-0.7-1.5-1.2z"></path><path fill="#a78b47" d="m11.9 25.5c0.2 0 0.3 0 0.5 0.1 0.3 0.3 0.7 0.6 1.2 0.7 0.3 0.2 0.7 0.4 1.1 0.6 1.5 0.4 3 0.6 4.6 0.5 0.1 0 0.2 0 0.2 0.1 0 0.1 0 0.1-0.1 0.2l-2.9 0.1c1.5 0.2 3 0.1 4.5-0.3-0.1 0.1-0.1 0.1-0.2 0.2 0 0 0.1 0 0.2 0-0.4 0.2-0.8 0.3-1.3 0.4-1.6 0.3-3.2 0.2-4.8-0.1-0.8-0.3-1.6-0.7-2.4-1.1 0-0.1-0.2-0.2-0.3-0.3 0.1 0 0.1-0.1 0-0.2-0.4-0.2-0.8-0.5-1.1-0.8h0.2c0.7 0.5 1.4 1 2.3 1.4 0.8 0.5 1.8 0.7 2.8 0.7-1.4-0.3-2.7-0.8-3.9-1.5-0.1-0.3-0.4-0.5-0.6-0.7z"></path><path fill="#7ece5b" d="m27.8 27.2c-0.1 0.2-0.2 0.4-0.2 0.6-0.3 0.2-0.6 0.4-1 0.5 0.1-0.1 0.1-0.2 0.1-0.3 0.3-0.1 0.5-0.3 0.7-0.5l0.4-0.3z"></path><path fill="#bfa766" d="m26.7 25.6c-0.1 0.2-0.2 0.5-0.4 0.6 0.3-0.2 0.6-0.2 0.9-0.2h0.2c-0.1 0.1-0.1 0.3-0.1 0.4h-0.4v0.3h-0.6c0-0.1 0-0.2-0.1-0.3 0-0.1-0.1-0.1-0.1-0.1-0.5 0.3-0.9 0.7-1.3 1.1 0.2 0 0.5 0 0.7 0l0.5-0.2v0.1c-0.4 0.3-0.9 0.5-1.4 0.4h-0.1c-0.1-0.1-0.2-0.1-0.4 0-0.4 0.2-0.7 0.4-1.1 0.7-0.1 0.1-0.1 0.2 0 0.2 0.2-0.1 0.4-0.1 0.6 0 0.1 0 0.1-0.1 0-0.2 0.4-0.1 0.7-0.2 1.1-0.4 0.1 0 0.1 0 0 0.1-0.3 0.2-0.6 0.3-0.9 0.6-0.4 0.1-0.8 0.1-1.1-0.1-0.1 0-0.1-0.1-0.2-0.1-0.4 0.1-0.7 0.3-1.1 0.4 0-0.1-0.2-0.2-0.3-0.2v-0.1c0.7-0.3 1.5-0.6 2.2-0.9 0.6-0.4 1.1-0.8 1.6-1.2 0.2-0.1 0.4-0.1 0.6-0.2 0.2-0.2 0.4-0.5 0.7-0.7 0.1 0 0.3-0.1 0.4-0.2 0.1 0 0.1 0.1 0.1 0.2z"></path><path fill="#745c20" d="m24.9 26.5c-0.5 0.4-1 0.8-1.6 1.2-0.7 0.3-1.5 0.6-2.2 0.9-1.8 0.4-3.6 0.5-5.4 0.3-0.5-0.2-1-0.3-1.5-0.4l-0.9-0.5c2.6 0.9 5.2 1 7.8 0.3 0.5-0.1 1.1-0.2 1.6-0.5 0.7-0.4 1.5-0.8 2.2-1.3z"></path><path fill="#765c20" d="m24.5 27.7l-0.8 0.4c-0.1 0.1-0.1 0.2-0.1 0.3 0.1 0.1 0.1 0.2 0 0.2-0.2-0.1-0.4-0.1-0.6 0-0.1 0-0.1-0.1 0-0.2 0.4-0.3 0.7-0.5 1.1-0.7 0.2-0.1 0.3-0.1 0.4 0z"></path><path fill="#96bc80" d="m26.7 28c0 0.1 0 0.2-0.1 0.3-0.2 0.2-0.5 0.4-0.8 0.4 0.3-0.2 0.6-0.5 0.9-0.7z"></path><path fill="#3b582c" d="m9.7 28.5c0.3 0 0.5 0.1 0.5 0.4-0.2-0.1-0.4-0.2-0.5-0.4z"></path><path fill="#877545" d="m8.9 26.2h0.5c0 0.1 0.1 0.3 0.2 0.5 0.3 0.3 0.6 0.5 0.9 0.8 0.1 0 0.1 0 0.1-0.1h0.1c0.5 0.6 1 1 1.7 1.2 0 0.2 0.1 0.3 0.4 0.4 0.1 0.1 0.2 0.1 0.3 0.1 0.4 0.1 0.8 0.2 1.1 0.4 0.4 0.2 0.7 0.4 1 0.5-0.9-0.2-1.7-0.5-2.5-0.8-1.2-0.6-2.2-1.3-3.2-2.1-0.1-0.2-0.3-0.4-0.5-0.6-0.1-0.1-0.1-0.2-0.1-0.3z"></path><path fill="#467232" d="m10.2 28.9c0.2-0.1 0.3 0 0.3 0.2-0.2 0-0.3-0.1-0.3-0.2z"></path><path fill="#c59f49" d="m22.7 28.6c0 0.2 0 0.3 0.1 0.4-1.5 0.3-1.5 0.2-0.1-0.4z"></path><path fill="#c9b67f" d="m26 27.3v0.3c-0.3 0.2-0.6 0.4-0.9 0.7-0.1 0-0.3 0-0.4 0-0.6 0.4-1.3 0.7-1.9 1l0.1-0.2c0-0.1 0-0.1-0.1-0.1-0.1-0.1-0.1-0.2-0.1-0.4 0.3 0.2 0.7 0.2 1.1 0.1 0.3-0.3 0.6-0.4 0.9-0.6 0.1-0.1 0.1-0.1 0-0.1l-0.1-0.3c0.5 0.1 1-0.1 1.4-0.4z"></path><path fill="#bf9c4a" d="m14.2 28.5c0.5 0.1 1 0.2 1.5 0.4 0 0 0 0.1 0.1 0.1-0.2 0-0.5 0.1-0.7 0.2h-0.5c-0.1 0-0.1 0-0.1 0.1-0.5-0.1-0.8-0.2-1.2-0.4 0.1-0.2 0.1-0.4 0.3-0.5 0.2 0.2 0.4 0.2 0.6 0.1z"></path><path fill="#6b5014" d="m13.3 28.9c0.4 0.2 0.7 0.3 1.2 0.4 0 0.2-0.1 0.2-0.3 0.2-0.3-0.2-0.7-0.3-1.1-0.4 0-0.2 0-0.3-0.1-0.4 0.1 0 0.3 0 0.3 0.2z"></path><path fill="#aa8a3f" d="m21.1 28.6v0.1c-0.9 0.3-1.8 0.4-2.7 0.4l-0.1 0.2c0.1 0 0.2 0 0.3 0.1l-1.1 0.2c0.4 0.1 0.8 0.2 1.1 0.3h-1.2c0-0.2 0-0.3-0.1-0.5-0.2 0.1-0.4 0.2-0.6 0.1-0.4-0.1-0.8-0.2-1.2-0.3 0 0.1 0 0.2 0.1 0.3h-0.4c0.1-0.1 0-0.2-0.1-0.3 0.2-0.1 0.5-0.2 0.7-0.2-0.1 0-0.1-0.1-0.1-0.1 1.8 0.2 3.6 0.1 5.4-0.3z"></path><path fill="#bfa050" d="m21.1 28.7c0.1 0 0.3 0.1 0.3 0.2-0.1 0.1-0.3 0.2-0.5 0.2v0.3c0.1 0.2 0.3 0.3 0.5 0.3-0.3 0.1-0.5 0-0.8-0.2 0 0-0.1 0.1-0.1 0.1h-1c0.4-0.1 0.7-0.3 1.1-0.4l-0.1-0.1c-0.4 0.1-0.8 0.2-1.2 0.3h-0.5v0.4c0.3 0 0.4 0.1 0.6 0.3-0.3 0-0.6 0-0.8-0.2-0.3-0.1-0.7-0.2-1.1-0.3l1.1-0.2c-0.1-0.1-0.2-0.1-0.3-0.2l0.1-0.1c0.9 0 1.8-0.1 2.7-0.4z"></path><path fill="#84c166" d="m25.8 28.7c-0.1 0.4-0.4 0.7-0.8 0.7l0.8-0.7z"></path><path fill="#6fce4f" d="m30.2 28.9c2.1 0.1 2.9 1.1 2.4 3.2-0.6 1-1.6 1.4-2.7 1.1-0.7-0.3-1.2-0.8-1.4-1.5-0.1-0.6-0.1-1.2 0-1.7 0.5-0.5 1.1-0.9 1.7-1.1z"></path><path fill="#446c31" d="m10.5 29.1c0.3 0 0.5 0.1 0.6 0.3l-0.5-0.1-0.1-0.2z"></path><path fill="#98772e" d="m19.5 29.6l-0.2-0.2c0.4-0.1 0.8-0.2 1.2-0.3l0.1 0.1c-0.4 0.1-0.7 0.3-1.1 0.4z"></path><path fill="#8d7130" d="m22.7 28.6c-1.4 0.6-1.4 0.7 0.1 0.4 0.1 0 0.1 0 0.1 0.1-0.4 0-0.9 0.2-1.2 0.4-0.3-0.1-0.6-0.1-0.8-0.1v-0.3c0.2 0 0.4-0.1 0.5-0.2 0.4-0.1 0.7-0.3 1.1-0.4 0.1 0 0.1 0.1 0.2 0.1z"></path><path fill="#587a45" d="m11.1 29.5v-0.1h0.2c0.4 0.3 0.9 0.5 1.4 0.7 0.1 0 0.3 0.1 0.4 0.2-0.2 0-0.4 0-0.6 0l-1.4-0.8z"></path><path fill="#c7c0ac" d="m25.1 28.3c-1 0.7-2.1 1.2-3.3 1.6 0.3-0.2 0.6-0.4 1-0.6 0.6-0.3 1.3-0.6 1.9-1 0.1 0 0.3 0 0.4 0z"></path><path fill="#6f6d65" d="m11.9 29.1l0.6 0.3 0.5 0.1c0.2 0.2 0.2 0.4 0.2 0.6-0.2-0.4-0.4-0.4-0.5 0-0.5-0.2-1-0.4-1.4-0.7-0.1-0.3 0-0.3 0.3 0 0.1-0.1 0.2-0.2 0.3-0.3z"></path><path fill="#af985c" d="m22.9 29.1l-0.1 0.2c-0.4 0.2-0.7 0.4-1 0.6-0.6 0-1.1 0-1.6 0.2h-0.8c-0.2-0.2-0.3-0.3-0.6-0.3 0.3 0 0.6 0 0.9 0.1 0.4-0.1 0.7-0.1 0.8-0.3 0 0 0.1-0.1 0.1-0.1 0.3 0.2 0.5 0.3 0.8 0.2-0.2 0-0.4-0.1-0.5-0.3 0.2 0 0.5 0 0.8 0.1 0.3-0.2 0.8-0.4 1.2-0.4z"></path><path fill="#67d84c" d="m11.4 30c0.6 0.2 1.2 0.4 1.8 0.5h0.1c0.4 0.2 0.8 0.4 1.2 0.6-0.7 0.8-1.4 1.5-2.1 2.1-0.2 0.2-0.5 0.2-0.7 0.3-1.4-0.3-1.8-1.1-1.3-2.4 0.3-0.4 0.7-0.8 1-1.1z"></path><path fill="#7eb660" d="m24.4 29.6c-0.2 0.4-0.5 0.6-0.8 0.6h-0.3c0.4-0.2 0.7-0.4 1.1-0.6z"></path><path fill="#74c554" d="m11.1 29.5l1.4 0.8c0.2 0 0.4 0 0.6 0l0.1 0.2c-0.6-0.1-1.2-0.3-1.8-0.5-0.1-0.1-0.2-0.3-0.3-0.5z"></path><path fill="#7e936c" d="m13.1 30.3c0.3 0 0.5 0.1 0.7 0.2h-0.6l-0.1-0.2z"></path><path fill="#a19f96" d="m28 25.7c-0.2 0.4-0.2 0.6 0.2 0.8-0.2 0.1-0.3 0.3-0.4 0.4-0.2 0.2-0.3 0.4-0.4 0.6-0.2 0.2-0.4 0.4-0.7 0.5-0.3 0.2-0.6 0.5-0.9 0.7l-0.8 0.7c-0.2 0.1-0.4 0.2-0.6 0.2-0.4 0.2-0.7 0.4-1.1 0.6-0.1 0-0.2 0.1-0.3 0.1-0.4 0.1-0.8 0.3-1.1 0.5-0.3 0-0.5 0.1-0.7 0.2h-0.9c-0.6 0-1.2 0.1-1.8 0.2-1.3 0.1-2.7-0.1-3.9-0.4 0.2-0.2 0.2-0.3 0.1-0.5-0.6-0.3-1.2-0.5-1.7-0.8l-0.5-0.1c0-0.1 0.1-0.2 0.2-0.2 0.8 0.3 1.6 0.6 2.5 0.8 0.9 0.3 1.9 0.4 2.9 0.3 0.7 0 1.4 0 2.1-0.2 0.5-0.2 1-0.2 1.6-0.2 1.2-0.4 2.3-0.9 3.3-1.6 0.3-0.3 0.6-0.5 0.9-0.7 0.3-0.2 0.6-0.4 0.7-0.7 0.3 0 0.5-0.2 0.6-0.5 0-0.1 0-0.3 0.1-0.4 0.2-0.1 0.3-0.2 0.6-0.3z"></path><path fill="#9c8d64" d="m15.2 30h1.4c0.2 0.1 0.4 0.2 0.6 0.2 0.7 0 1.5 0 2.2-0.1h0.8c-0.7 0.2-1.4 0.2-2.1 0.2-1 0.1-2 0-2.9-0.3z"></path><path fill="#9b8345" d="m16.7 29.5c0.1 0.2 0.3 0.3 0.6 0.4 0.4 0.1 0.9 0.1 1.3 0 0.2 0.2 0.5 0.2 0.8 0.2-0.7 0.1-1.5 0.1-2.2 0.1-0.2 0-0.4-0.1-0.6-0.2l-0.2-0.4c0.1 0 0.2 0 0.3-0.1z"></path><path fill="#a89051" d="m14.6 29.2c0.2 0.1 0.4 0.3 0.6 0.5 0.4 0.1 0.8 0.2 1.2 0.3h-1.2c-0.3-0.1-0.6-0.3-1-0.5 0.2 0 0.3 0 0.3-0.2 0-0.1 0-0.1 0.1-0.1z"></path><path fill="#62480e" d="m18.6 29.9c-0.4 0.1-0.9 0.1-1.3 0-0.3-0.1-0.5-0.2-0.6-0.4 0.2 0.1 0.4 0 0.6-0.1 0.1 0.2 0.1 0.3 0.1 0.5h1.2z"></path><path fill="#755a1d" d="m19.3 29.4l0.2 0.2h1c-0.1 0.2-0.4 0.2-0.8 0.3-0.3-0.1-0.6-0.1-0.9-0.1v-0.4h0.5z"></path><path fill="#72571a" d="m14.6 29.2h0.5c0.1 0.1 0.2 0.2 0.1 0.3h0.4c0.2 0.1 0.5 0.2 0.8 0.1l0.2 0.4h-0.2c-0.4-0.1-0.8-0.2-1.2-0.3-0.2-0.2-0.4-0.4-0.6-0.5z"></path><path fill="#c89c43" d="m16.7 29.5c-0.1 0.1-0.2 0.1-0.3 0.1-0.3 0.1-0.6 0-0.8-0.1-0.1-0.1-0.1-0.2-0.1-0.3 0.4 0.1 0.8 0.2 1.2 0.3z"></path><path fill="#78c855" d="m23.3 30.2h0.3c-0.3 0.3-0.6 0.4-0.9 0.5 0.1-0.2 0.2-0.3 0.3-0.4 0.1 0 0.2-0.1 0.3-0.1z"></path><path fill="#939289" d="m13 29.5c0.5 0.3 1.1 0.5 1.7 0.8 0.1 0.2 0.1 0.3-0.1 0.5-0.3-0.1-0.6-0.1-0.8-0.3-0.2-0.1-0.4-0.2-0.7-0.2-0.1-0.1-0.3-0.2-0.4-0.2 0.1-0.4 0.3-0.4 0.5 0 0-0.2 0-0.4-0.2-0.6z"></path><path fill="#7bb55d" d="m23 30.3c-0.1 0.1-0.2 0.2-0.3 0.4-0.1-0.1-0.2 0-0.3 0.1h-0.5c0.3-0.2 0.7-0.4 1.1-0.5z"></path><path fill="#75c952" d="m21.9 30.8h0.5c-0.3 0.1-0.7 0.2-1.2 0.2 0.2-0.1 0.4-0.2 0.7-0.2z"></path><path fill="#6fa755" d="m13.3 30.5h0.5c0.2 0.2 0.5 0.2 0.8 0.3 1.2 0.3 2.6 0.5 3.9 0.4h1.2v0.1l-1.8 0.1c-1.1-0.1-2.3-0.2-3.4-0.3-0.4-0.2-0.8-0.4-1.2-0.6z"></path><path fill="#829870" d="m20.3 31c-0.1 0.2-0.3 0.2-0.6 0.2h-1.2c0.6-0.1 1.2-0.2 1.8-0.2z"></path><path fill="#77c555" d="m20.3 31h0.9c-0.4 0.3-0.9 0.4-1.5 0.3v-0.1c0.3 0 0.5 0 0.6-0.2z"></path><path fill="#68d451" d="m9.2 28.2c0.1 0.1 0.3 0.3 0.5 0.3 0.1 0.2 0.3 0.3 0.5 0.4 0 0.1 0.1 0.2 0.3 0.2l0.1 0.2c-0.2 0-0.4 0-0.5-0.2 0 0.1 0 0.2 0 0.3-0.2 0-0.3 0-0.5 0.1-0.1 0.4-0.4 0.7-0.9 0.8 0 0.2 0 0.3 0 0.5-1 0.7-1.9 1.4-2.7 2.3-0.2 0.2-0.3 0.2-0.5 0.1-0.1-0.1-0.1-0.2-0.2-0.4 0.4-0.4 0.7-0.9 1.1-1.4 0.4-0.5 1-1 1.6-1.4 0.4-0.5 0.8-1 1.3-1.5-0.1-0.1-0.1-0.2-0.1-0.3z"></path><path fill="#78d043" d="m26.3 32.3c0.6 0.1 0.7 0.3 0 0.7-0.1 0.5-0.3 0.7-0.8 0.8-0.2 0.3-0.4 0.6-0.8 0.9 0 0.1 0 0.2 0 0.3h-0.7c0-0.2 0.1-0.4 0.2-0.5 0.8-0.7 1.4-1.4 2.1-2.2z"></path></svg>