<?xml version="1.0" encoding="UTF-8"?>
<!DOCTYPE svg PUBLIC "-//W3C//DTD SVG 1.1//EN" "http://www.w3.org/Graphics/SVG/1.1/DTD/svg11.dtd">
<svg xmlns="http://www.w3.org/2000/svg" version="1.1" width="320px" height="303px" style="shape-rendering:geometricPrecision; text-rendering:geometricPrecision; image-rendering:optimizeQuality; fill-rule:evenodd; clip-rule:evenodd" xmlns:xlink="http://www.w3.org/1999/xlink">
<g><path style="opacity:1" fill="#f6f6f6" d="M -0.5,-0.5 C 106.167,-0.5 212.833,-0.5 319.5,-0.5C 319.5,100.5 319.5,201.5 319.5,302.5C 212.833,302.5 106.167,302.5 -0.5,302.5C -0.5,201.5 -0.5,100.5 -0.5,-0.5 Z"/></g>
<g><path style="opacity:1" fill="#e3e3e3" d="M 202.5,7.5 C 171.149,6.84085 140.149,7.50752 109.5,9.5C 108.596,8.79105 108.263,7.79105 108.5,6.5C 140.004,6.16848 171.338,6.50182 202.5,7.5 Z"/></g>
<g><path style="opacity:1" fill="#c9c9c9" d="M 202.5,7.5 C 203.833,7.5 205.167,7.5 206.5,7.5C 207.04,11.6423 207.706,15.6423 208.5,19.5C 211.833,19.5 215.167,19.5 218.5,19.5C 217.129,20.7868 215.295,21.4535 213,21.5C 210.775,21.4351 208.608,21.1018 206.5,20.5C 205.511,16.8927 205.177,13.226 205.5,9.5C 173.5,9.5 141.5,9.5 109.5,9.5C 140.149,7.50752 171.149,6.84085 202.5,7.5 Z"/></g>
<g><path style="opacity:1" fill="#969696" d="M 206.5,7.5 C 211.167,7.5 215.833,7.5 220.5,7.5C 220.665,11.1817 220.499,14.8484 220,18.5C 219.617,19.056 219.117,19.3893 218.5,19.5C 219.344,15.9009 219.677,12.2343 219.5,8.5C 215.833,8.5 212.167,8.5 208.5,8.5C 208.5,12.1667 208.5,15.8333 208.5,19.5C 207.706,15.6423 207.04,11.6423 206.5,7.5 Z"/></g>
<g><path style="opacity:1" fill="#686868" d="M 218.5,19.5 C 215.167,19.5 211.833,19.5 208.5,19.5C 208.5,15.8333 208.5,12.1667 208.5,8.5C 212.167,8.5 215.833,8.5 219.5,8.5C 219.677,12.2343 219.344,15.9009 218.5,19.5 Z"/></g>
<g><path style="opacity:1" fill="#b8b8b8" d="M 190.5,22.5 C 187.673,21.6317 184.673,21.6317 181.5,22.5C 182.694,21.2227 184.36,20.5561 186.5,20.5C 188.167,20.6667 189.833,20.8333 191.5,21C 192.712,22.1068 192.379,22.6068 190.5,22.5 Z"/></g>
<g><path style="opacity:1" fill="#696969" d="M 190.5,22.5 C 185.757,23.6531 183.09,26.6531 182.5,31.5C 181.732,32.2625 181.232,33.2625 181,34.5C 180.179,41.6791 180.345,48.6791 181.5,55.5C 182.167,55.5 182.833,55.5 183.5,55.5C 184.167,55.5 184.833,55.5 185.5,55.5C 183.735,56.4614 181.735,56.7947 179.5,56.5C 176.772,55.7948 173.939,55.1281 171,54.5C 170.227,46.1185 170.394,37.7852 171.5,29.5C 171.511,27.9826 172.177,26.8159 173.5,26C 175.935,24.2845 178.602,23.1179 181.5,22.5C 184.673,21.6317 187.673,21.6317 190.5,22.5 Z"/></g>
<g><path style="opacity:1" fill="#e1e1e1" d="M 169.5,31.5 C 169.5,39.8333 169.5,48.1667 169.5,56.5C 172.833,56.5 176.167,56.5 179.5,56.5C 185.625,57.1921 191.625,58.5254 197.5,60.5C 195.304,60.59 193.137,60.9233 191,61.5C 189.427,61.1554 188.26,60.4887 187.5,59.5C 186.353,59.8178 185.519,60.4844 185,61.5C 183.866,58.0907 182.2,57.7573 180,60.5C 178.089,57.9767 176.255,57.9767 174.5,60.5C 172.505,58.8903 170.339,57.5569 168,56.5C 167.831,49.4764 167.331,42.4764 166.5,35.5C 165.521,38.777 164.187,39.1103 162.5,36.5C 163.646,35.2813 164.646,33.9479 165.5,32.5C 167.219,33.7887 168.553,33.4554 169.5,31.5 Z"/></g>
<g><path style="opacity:1" fill="#8a8a8a" d="M 182.5,31.5 C 182.5,32.8333 182.5,34.1667 182.5,35.5C 181.509,41.979 181.176,48.6457 181.5,55.5C 180.345,48.6791 180.179,41.6791 181,34.5C 181.232,33.2625 181.732,32.2625 182.5,31.5 Z"/></g>
<g><path style="opacity:1" fill="#8b8b8b" d="M 171.5,29.5 C 170.394,37.7852 170.227,46.1185 171,54.5C 173.939,55.1281 176.772,55.7948 179.5,56.5C 176.167,56.5 172.833,56.5 169.5,56.5C 169.5,48.1667 169.5,39.8333 169.5,31.5C 169.833,30.5 170.5,29.8333 171.5,29.5 Z"/></g>
<g><path style="opacity:1" fill="#bbbbbb" d="M 182.5,35.5 C 182.207,42.2554 182.54,48.9221 183.5,55.5C 182.833,55.5 182.167,55.5 181.5,55.5C 181.176,48.6457 181.509,41.979 182.5,35.5 Z"/></g>
<g><path style="opacity:1" fill="#e2e2e2" d="M 190.5,22.5 C 190.064,26.7667 187.897,29.7667 184,31.5C 183.333,38.8333 183.333,46.1667 184,53.5C 189.699,53.9665 195.199,54.9665 200.5,56.5C 197.14,56.3841 193.807,56.0508 190.5,55.5C 188.833,55.5 187.167,55.5 185.5,55.5C 184.833,55.5 184.167,55.5 183.5,55.5C 182.54,48.9221 182.207,42.2554 182.5,35.5C 182.5,34.1667 182.5,32.8333 182.5,31.5C 183.09,26.6531 185.757,23.6531 190.5,22.5 Z"/></g>
<g><path style="opacity:1" fill="#747474" d="M 185.5,55.5 C 187.167,55.5 188.833,55.5 190.5,55.5C 195.223,57.2249 200.223,58.2249 205.5,58.5C 210.348,60.1209 215.348,61.1209 220.5,61.5C 222.38,61.2291 223.713,61.8958 224.5,63.5C 221.531,62.6713 218.531,62.5046 215.5,63C 217.119,63.2355 218.119,64.0689 218.5,65.5C 214.214,64.2934 209.88,63.2934 205.5,62.5C 203.039,61.469 200.373,60.8023 197.5,60.5C 191.625,58.5254 185.625,57.1921 179.5,56.5C 181.735,56.7947 183.735,56.4614 185.5,55.5 Z"/></g>
<g><path style="opacity:1" fill="#a8a8a8" d="M 190.5,55.5 C 193.807,56.0508 197.14,56.3841 200.5,56.5C 201.167,56.5 201.833,56.5 202.5,56.5C 203.5,57.1667 204.5,57.8333 205.5,58.5C 200.223,58.2249 195.223,57.2249 190.5,55.5 Z"/></g>
<g><path style="opacity:1" fill="#c9c9c9" d="M 202.5,56.5 C 208.869,57.256 214.869,58.9226 220.5,61.5C 215.348,61.1209 210.348,60.1209 205.5,58.5C 204.5,57.8333 203.5,57.1667 202.5,56.5 Z"/></g>
<g><path style="opacity:1" fill="#d9d9d9" d="M 205.5,62.5 C 209.88,63.2934 214.214,64.2934 218.5,65.5C 219.29,66.4013 220.29,67.0679 221.5,67.5C 221.5,67.8333 221.5,68.1667 221.5,68.5C 218.465,67.7091 215.465,66.7091 212.5,65.5C 211.558,65.6082 210.725,65.9415 210,66.5C 208.302,65.2593 206.802,63.926 205.5,62.5 Z"/></g>
<g><path style="opacity:1" fill="#dfdfdf" d="M 230.5,65.5 C 232.527,65.3379 234.527,65.5045 236.5,66C 237.459,67.4638 238.792,68.2972 240.5,68.5C 243.464,67.5282 246.464,67.3615 249.5,68C 248.241,68.9234 246.908,69.7568 245.5,70.5C 245.863,71.1835 246.196,71.8501 246.5,72.5C 240.964,70.461 235.631,68.1276 230.5,65.5 Z"/></g>
<g><path style="opacity:1" fill="#a9a9a9" d="M 221.5,68.5 C 221.5,68.1667 221.5,67.8333 221.5,67.5C 223.967,67.7549 225.967,68.7549 227.5,70.5C 225.421,70.0293 223.421,69.3627 221.5,68.5 Z"/></g>
<g><path style="opacity:1" fill="#b7b7b7" d="M 122.5,72.5 C 122.167,72.5 121.833,72.5 121.5,72.5C 121.833,71.8333 122.167,71.1667 122.5,70.5C 133.113,69.1746 133.113,69.8413 122.5,72.5 Z"/></g>
<g><path style="opacity:1" fill="#959595" d="M 122.5,70.5 C 122.167,71.1667 121.833,71.8333 121.5,72.5C 120.041,72.4326 118.708,72.7659 117.5,73.5C 116.432,72.5655 115.099,72.2322 113.5,72.5C 116.171,70.8819 119.171,70.2153 122.5,70.5 Z"/></g>
<g><path style="opacity:1" fill="#686868" d="M 176.5,71.5 C 177.833,71.5 179.167,71.5 180.5,71.5C 180.5,122.167 180.5,172.833 180.5,223.5C 179.209,223.263 178.209,223.596 177.5,224.5C 175.236,225.219 172.903,225.552 170.5,225.5C 170.5,174.167 170.5,122.833 170.5,71.5C 172.5,71.5 174.5,71.5 176.5,71.5 Z"/></g>
<g><path style="opacity:1" fill="#a5a5a5" d="M 230.5,71.5 C 232.027,71.427 233.027,72.0937 233.5,73.5C 231.973,73.573 230.973,72.9063 230.5,71.5 Z"/></g>
<g><path style="opacity:1" fill="#d5d5d5" d="M 121.5,72.5 C 121.833,72.5 122.167,72.5 122.5,72.5C 118.711,74.4598 114.711,76.1265 110.5,77.5C 110.833,76.8333 111.167,76.1667 111.5,75.5C 113.214,74.2616 115.214,73.595 117.5,73.5C 118.708,72.7659 120.041,72.4326 121.5,72.5 Z"/></g>
<g><path style="opacity:1" fill="#888888" d="M 180.5,71.5 C 181.499,122.331 181.832,173.331 181.5,224.5C 180.167,224.5 178.833,224.5 177.5,224.5C 178.209,223.596 179.209,223.263 180.5,223.5C 180.5,172.833 180.5,122.167 180.5,71.5 Z"/></g>
<g><path style="opacity:1" fill="#bebebe" d="M 169.5,70.5 C 173.678,69.4285 178.011,69.4285 182.5,70.5C 182.832,122.003 182.499,173.336 181.5,224.5C 181.832,173.331 181.499,122.331 180.5,71.5C 179.167,71.5 177.833,71.5 176.5,71.5C 174.393,70.5318 172.059,70.1984 169.5,70.5 Z"/></g>
<g><path style="opacity:1" fill="#b6b6b6" d="M 98.5,76.5 C 93.6717,79.6777 88.6717,82.6777 83.5,85.5C 84.4749,83.8073 85.8082,82.3073 87.5,81C 90.9302,78.9525 94.5969,77.4525 98.5,76.5 Z"/></g>
<g><path style="opacity:1" fill="#b5b5b5" d="M 111.5,75.5 C 111.167,76.1667 110.833,76.8333 110.5,77.5C 106.96,78.3872 103.627,79.7205 100.5,81.5C 103.388,78.2197 107.055,76.2197 111.5,75.5 Z"/></g>
<g><path style="opacity:1" fill="#c0c0c0" d="M 257.5,79.5 C 259.749,80.0798 261.415,81.4131 262.5,83.5C 260.251,82.9202 258.585,81.5869 257.5,79.5 Z"/></g>
<g><path style="opacity:1" fill="#7e7e7e" d="M 169.5,70.5 C 172.059,70.1984 174.393,70.5318 176.5,71.5C 174.5,71.5 172.5,71.5 170.5,71.5C 170.5,122.833 170.5,174.167 170.5,225.5C 169.501,174.003 169.168,122.336 169.5,70.5 Z"/></g>
<g><path style="opacity:1" fill="#b1b1af" d="M 265.5,86.5 C 268.5,87.5 270.5,89.5 271.5,92.5C 269.167,90.8333 267.167,88.8333 265.5,86.5 Z"/></g>
<g><path style="opacity:1" fill="#babab8" d="M 271.5,92.5 C 274.167,93.1667 275.833,94.8333 276.5,97.5C 274.5,96.1667 272.833,94.5 271.5,92.5 Z"/></g>
<g><path style="opacity:1" fill="#7a7a7a" d="M 78.5,89.5 C 77.6109,91.736 76.2776,93.736 74.5,95.5C 75.09,96.7989 76.09,97.6322 77.5,98C 75.7373,99.6016 73.904,100.102 72,99.5C 70.6927,101.192 69.1927,102.525 67.5,103.5C 69.9984,97.9917 73.6651,93.3251 78.5,89.5 Z"/></g>
<g><path style="opacity:1" fill="#adadad" d="M 84.5,95.5 C 83.011,98.478 81.511,101.478 80,104.5C 79.2917,105.381 78.4584,106.047 77.5,106.5C 78.6257,102.046 80.9591,98.379 84.5,95.5 Z"/></g>
<g><path style="opacity:1" fill="#eaeae8" d="M 251.5,86.5 C 259.991,92.9899 266.657,100.99 271.5,110.5C 269.215,109.775 267.382,108.442 266,106.5C 263.813,110.095 260.98,110.928 257.5,109C 258.833,107.667 258.833,106.333 257.5,105C 258.167,104.333 258.833,103.667 259.5,103C 258.76,101.215 258.093,99.3817 257.5,97.5C 256.675,96.6143 255.675,96.281 254.5,96.5C 254.421,95.0695 254.754,93.7362 255.5,92.5C 253.748,90.7541 252.415,88.7541 251.5,86.5 Z"/></g>
<g><path style="opacity:1" fill="#a0a09f" d="M 280.5,103.5 C 281.906,103.973 282.573,104.973 282.5,106.5C 281.094,106.027 280.427,105.027 280.5,103.5 Z"/></g>
<g><path style="opacity:1" fill="#6c6c6c" d="M 113.5,72.5 C 115.099,72.2322 116.432,72.5655 117.5,73.5C 115.214,73.595 113.214,74.2616 111.5,75.5C 107.055,76.2197 103.388,78.2197 100.5,81.5C 94.253,85.0776 88.9197,89.7442 84.5,95.5C 80.9591,98.379 78.6257,102.046 77.5,106.5C 77.5,107.167 77.5,107.833 77.5,108.5C 75.7549,110.033 74.7549,112.033 74.5,114.5C 73.0762,116.515 72.4095,118.848 72.5,121.5C 69.9154,136.269 69.9154,150.936 72.5,165.5C 74.5253,170.593 76.0253,175.927 77,181.5C 77.9022,183.431 79.0688,185.097 80.5,186.5C 82.7729,191.394 85.7729,195.727 89.5,199.5C 91.5691,202.573 94.2358,204.906 97.5,206.5C 97.8417,207.338 98.5084,207.672 99.5,207.5C 102.803,211.156 106.803,213.822 111.5,215.5C 113.033,217.245 115.033,218.245 117.5,218.5C 121.982,220.404 126.649,221.737 131.5,222.5C 131.833,222.5 132.167,222.5 132.5,222.5C 133.711,224.563 132.877,225.563 130,225.5C 127.502,225.083 125.002,224.749 122.5,224.5C 118.736,223.008 114.736,222.008 110.5,221.5C 97.4791,217.001 86.1458,210.001 76.5,200.5C 75.5806,197.911 73.914,195.911 71.5,194.5C 71.5,194.167 71.5,193.833 71.5,193.5C 69.8283,190.787 68.1616,188.12 66.5,185.5C 66.0248,183.216 65.0248,181.216 63.5,179.5C 61.314,172.23 59.6474,164.896 58.5,157.5C 58.5165,146.821 58.8498,136.154 59.5,125.5C 59.5172,123.435 59.8505,121.435 60.5,119.5C 61.1174,119.389 61.6174,119.056 62,118.5C 62.4396,116.134 62.9396,113.801 63.5,111.5C 63.8961,108.279 65.2295,105.612 67.5,103.5C 69.1927,102.525 70.6927,101.192 72,99.5C 73.904,100.102 75.7373,99.6016 77.5,98C 76.09,97.6322 75.09,96.7989 74.5,95.5C 76.2776,93.736 77.6109,91.736 78.5,89.5C 79.8726,87.7935 81.5393,86.4602 83.5,85.5C 88.6717,82.6777 93.6717,79.6777 98.5,76.5C 103.155,74.0854 108.155,72.7521 113.5,72.5 Z"/></g>
<g><path style="opacity:1" fill="#aaaaaa" d="M 282.5,106.5 C 283.906,106.973 284.573,107.973 284.5,109.5C 283.094,109.027 282.427,108.027 282.5,106.5 Z"/></g>
<g><path style="opacity:1" fill="#bcbcbc" d="M 77.5,108.5 C 77.2451,110.967 76.2451,112.967 74.5,114.5C 74.7549,112.033 75.7549,110.033 77.5,108.5 Z"/></g>
<g><path style="opacity:1" fill="#8d8d8d" d="M 271.5,110.5 C 272.458,110.953 273.292,111.619 274,112.5C 274.333,111.833 274.667,111.167 275,110.5C 275.548,114.17 276.048,117.837 276.5,121.5C 275.037,117.792 273.37,114.126 271.5,110.5 Z"/></g>
<g><path style="opacity:1" fill="#6b6b6b" d="M 224.5,63.5 C 226.698,63.8751 228.698,64.5418 230.5,65.5C 235.631,68.1276 240.964,70.461 246.5,72.5C 249.989,75.08 253.656,77.4133 257.5,79.5C 258.585,81.5869 260.251,82.9202 262.5,83.5C 263.306,84.7281 264.306,85.7281 265.5,86.5C 267.167,88.8333 269.167,90.8333 271.5,92.5C 272.833,94.5 274.5,96.1667 276.5,97.5C 278.218,99.2228 279.551,101.223 280.5,103.5C 280.427,105.027 281.094,106.027 282.5,106.5C 282.427,108.027 283.094,109.027 284.5,109.5C 285.931,110.78 286.598,112.447 286.5,114.5C 286.755,116.967 287.755,118.967 289.5,120.5C 289.517,122.565 289.85,124.565 290.5,126.5C 290.259,128.898 290.926,130.898 292.5,132.5C 292.5,138.833 292.5,145.167 292.5,151.5C 291.778,151.918 291.278,152.584 291,153.5C 290.452,157.17 289.952,160.837 289.5,164.5C 289.5,164.833 289.5,165.167 289.5,165.5C 287.759,167.395 286.759,169.728 286.5,172.5C 286.5,172.833 286.5,173.167 286.5,173.5C 283.705,176.655 281.705,180.322 280.5,184.5C 278.926,185.984 277.593,187.651 276.5,189.5C 274.453,191.55 272.786,193.883 271.5,196.5C 267.881,199.452 264.548,202.785 261.5,206.5C 257.016,210.578 252.016,213.911 246.5,216.5C 245.814,215.152 244.814,213.985 243.5,213C 244.381,212.292 245.047,211.458 245.5,210.5C 245.5,209.833 245.833,209.5 246.5,209.5C 251.167,206.833 254.833,203.167 257.5,198.5C 269.342,186.149 276.342,171.483 278.5,154.5C 279.222,154.082 279.722,153.416 280,152.5C 281.398,141.73 280.231,131.397 276.5,121.5C 276.048,117.837 275.548,114.17 275,110.5C 274.667,111.167 274.333,111.833 274,112.5C 273.292,111.619 272.458,110.953 271.5,110.5C 266.657,100.99 259.991,92.9899 251.5,86.5C 249.621,83.8852 247.288,81.7186 244.5,80C 240.77,77.807 237.103,75.6404 233.5,73.5C 233.027,72.0937 232.027,71.427 230.5,71.5C 229.391,71.4431 228.391,71.1098 227.5,70.5C 225.967,68.7549 223.967,67.7549 221.5,67.5C 220.29,67.0679 219.29,66.4013 218.5,65.5C 218.119,64.0689 217.119,63.2355 215.5,63C 218.531,62.5046 221.531,62.6713 224.5,63.5 Z"/></g>
<g><path style="opacity:1" fill="#adadad" d="M 74.5,114.5 C 74.5905,117.152 73.9238,119.485 72.5,121.5C 72.4095,118.848 73.0762,116.515 74.5,114.5 Z"/></g>
<g><path style="opacity:1" fill="#b1b1b1" d="M 63.5,111.5 C 62.9396,113.801 62.4396,116.134 62,118.5C 61.6174,119.056 61.1174,119.389 60.5,119.5C 61.0604,117.199 61.5604,114.866 62,112.5C 62.3826,111.944 62.8826,111.611 63.5,111.5 Z"/></g>
<g><path style="opacity:1" fill="#a7a7a7" d="M 286.5,114.5 C 288.245,116.033 289.245,118.033 289.5,120.5C 287.755,118.967 286.755,116.967 286.5,114.5 Z"/></g>
<g><path style="opacity:1" fill="#a5a5a5" d="M 290.5,126.5 C 292.074,128.102 292.741,130.102 292.5,132.5C 290.926,130.898 290.259,128.898 290.5,126.5 Z"/></g>
<g><path style="opacity:1" fill="#ababab" d="M 59.5,125.5 C 58.8498,136.154 58.5165,146.821 58.5,157.5C 57.8343,153.347 57.5009,149.013 57.5,144.5C 57.3198,137.928 57.9865,131.595 59.5,125.5 Z"/></g>
<g><path style="opacity:1" fill="#d0d0d0" d="M 276.5,121.5 C 280.231,131.397 281.398,141.73 280,152.5C 279.722,153.416 279.222,154.082 278.5,154.5C 278.661,143.435 277.994,132.435 276.5,121.5 Z"/></g>
<g><path style="opacity:1" fill="#a8a8a8" d="M 292.5,151.5 C 292.575,156.192 291.575,160.526 289.5,164.5C 289.952,160.837 290.452,157.17 291,153.5C 291.278,152.584 291.778,151.918 292.5,151.5 Z"/></g>
<g><path style="opacity:1" fill="#bcbcbc" d="M 289.5,165.5 C 289.357,168.385 288.357,170.718 286.5,172.5C 286.759,169.728 287.759,167.395 289.5,165.5 Z"/></g>
<g><path style="opacity:1" fill="#d9d9d9" d="M 58.5,157.5 C 59.6474,164.896 61.314,172.23 63.5,179.5C 62.5178,178.859 61.5178,178.193 60.5,177.5C 59.1733,170.899 58.5066,164.233 58.5,157.5 Z"/></g>
<g><path style="opacity:1" fill="#d3d3d3" d="M 72.5,165.5 C 73.9348,166.79 74.9348,168.456 75.5,170.5C 76.3957,169.494 77.0623,169.494 77.5,170.5C 76.9781,171.607 76.6448,172.774 76.5,174C 78.5258,177.912 79.8592,182.079 80.5,186.5C 79.0688,185.097 77.9022,183.431 77,181.5C 76.0253,175.927 74.5253,170.593 72.5,165.5 Z"/></g>
<g><path style="opacity:1" fill="#bdbdbd" d="M 286.5,173.5 C 285.821,176.707 284.654,179.707 283,182.5C 282.292,183.381 281.458,184.047 280.5,184.5C 281.705,180.322 283.705,176.655 286.5,173.5 Z"/></g>
<g><path style="opacity:1" fill="#babab8" d="M 66.5,185.5 C 68.1616,188.12 69.8283,190.787 71.5,193.5C 68.368,191.797 66.7014,189.13 66.5,185.5 Z"/></g>
<g><path style="opacity:1" fill="#bababa" d="M 276.5,189.5 C 276.031,192.643 274.364,194.977 271.5,196.5C 272.786,193.883 274.453,191.55 276.5,189.5 Z"/></g>
<g><path style="opacity:1" fill="#b9b9b7" d="M 71.5,194.5 C 73.914,195.911 75.5806,197.911 76.5,200.5C 74.086,199.089 72.4194,197.089 71.5,194.5 Z"/></g>
<g><path style="opacity:1" fill="#c2c2c2" d="M 271.5,196.5 C 269.145,200.855 265.812,204.188 261.5,206.5C 264.548,202.785 267.881,199.452 271.5,196.5 Z"/></g>
<g><path style="opacity:1" fill="#b5b5b5" d="M 89.5,199.5 C 92.7642,201.094 95.4309,203.427 97.5,206.5C 94.2358,204.906 91.5691,202.573 89.5,199.5 Z"/></g>
<g><path style="opacity:1" fill="#949494" d="M 257.5,198.5 C 254.833,203.167 251.167,206.833 246.5,209.5C 249.833,205.5 253.5,201.833 257.5,198.5 Z"/></g>
<g><path style="opacity:1" fill="#e2e2e2" d="M 99.5,207.5 C 101.094,207.92 102.594,208.586 104,209.5C 105.789,208.591 107.623,208.424 109.5,209C 109.167,209.333 108.833,209.667 108.5,210C 111.281,210.842 112.948,212.676 113.5,215.5C 112.833,215.5 112.167,215.5 111.5,215.5C 106.803,213.822 102.803,211.156 99.5,207.5 Z"/></g>
<g><path style="opacity:1" fill="#898989" d="M 245.5,210.5 C 245.047,211.458 244.381,212.292 243.5,213C 244.814,213.985 245.814,215.152 246.5,216.5C 245.738,218.262 244.404,219.262 242.5,219.5C 245.24,217.415 245.073,215.748 242,214.5C 239.721,215.391 237.554,216.391 235.5,217.5C 238.475,214.677 241.808,212.344 245.5,210.5 Z"/></g>
<g><path style="opacity:1" fill="#d4d4d4" d="M 261.5,206.5 C 260.04,208.463 258.373,210.296 256.5,212C 257.624,212.249 258.624,212.749 259.5,213.5C 259.167,213.833 258.833,214.167 258.5,214.5C 254.331,212.512 251.831,213.846 251,218.5C 250.439,217.978 249.772,217.645 249,217.5C 244.958,219.852 240.791,222.018 236.5,224C 235.207,224.49 233.873,224.657 232.5,224.5C 235.795,222.841 239.128,221.174 242.5,219.5C 244.404,219.262 245.738,218.262 246.5,216.5C 252.016,213.911 257.016,210.578 261.5,206.5 Z"/></g>
<g><path style="opacity:1" fill="#a0a0a0" d="M 111.5,215.5 C 112.167,215.5 112.833,215.5 113.5,215.5C 115.076,216.143 116.41,217.143 117.5,218.5C 115.033,218.245 113.033,217.245 111.5,215.5 Z"/></g>
<g><path style="opacity:1" fill="#d9d9d9" d="M 113.5,215.5 C 119.944,216.846 125.944,219.179 131.5,222.5C 126.649,221.737 121.982,220.404 117.5,218.5C 116.41,217.143 115.076,216.143 113.5,215.5 Z"/></g>
<g><path style="opacity:1" fill="#cfcfcf" d="M 110.5,221.5 C 114.736,222.008 118.736,223.008 122.5,224.5C 119.65,224.364 116.817,224.031 114,223.5C 112.319,223.392 111.152,222.725 110.5,221.5 Z"/></g>
<g><path style="opacity:1" fill="#d3d3d3" d="M 132.5,222.5 C 134.256,223.552 134.923,225.219 134.5,227.5C 130.126,227.498 126.126,226.498 122.5,224.5C 125.002,224.749 127.502,225.083 130,225.5C 132.877,225.563 133.711,224.563 132.5,222.5 Z"/></g>
<g><path style="opacity:1" fill="#d9d9d9" d="M 232.5,224.5 C 231.748,226.1 230.748,227.6 229.5,229C 225.83,229.548 222.163,230.048 218.5,230.5C 223.144,228.72 227.811,226.72 232.5,224.5 Z"/></g>
<g><path style="opacity:1" fill="#737373" d="M 242.5,219.5 C 239.128,221.174 235.795,222.841 232.5,224.5C 227.811,226.72 223.144,228.72 218.5,230.5C 212.663,232.443 206.663,233.776 200.5,234.5C 199.761,234.631 199.094,234.464 198.5,234C 200.974,233.963 202.974,233.13 204.5,231.5C 215.44,227.871 225.774,223.205 235.5,217.5C 237.554,216.391 239.721,215.391 242,214.5C 245.073,215.748 245.24,217.415 242.5,219.5 Z"/></g>
<g><path style="opacity:1" fill="#a6a6a6" d="M 204.5,231.5 C 202.974,233.13 200.974,233.963 198.5,234C 199.094,234.464 199.761,234.631 200.5,234.5C 195.491,236.723 190.157,237.556 184.5,237C 187.803,235.517 191.136,234.35 194.5,233.5C 197.865,232.96 201.198,232.294 204.5,231.5 Z"/></g>
<g><path style="opacity:1" fill="#e2e2e2" d="M 218.5,230.5 C 217.026,231.675 215.36,232.675 213.5,233.5C 214.59,234.609 214.59,235.609 213.5,236.5C 212.476,235.147 211.143,234.48 209.5,234.5C 209.719,235.675 209.386,236.675 208.5,237.5C 206.807,235.721 204.807,235.221 202.5,236C 203.167,236.333 203.833,236.667 204.5,237C 202.131,237.536 200.131,238.703 198.5,240.5C 197.573,238.054 195.906,237.221 193.5,238C 195.595,238.556 195.762,239.056 194,239.5C 190.559,238.618 187.059,238.284 183.5,238.5C 183.279,247.866 183.613,257.199 184.5,266.5C 183.069,265.22 182.402,263.553 182.5,261.5C 181.635,253.534 181.302,245.534 181.5,237.5C 180.5,237.5 179.5,237.5 178.5,237.5C 179.552,235.744 181.219,235.077 183.5,235.5C 183.649,231.877 184.816,231.543 187,234.5C 189.434,233.678 191.934,233.344 194.5,233.5C 191.136,234.35 187.803,235.517 184.5,237C 190.157,237.556 195.491,236.723 200.5,234.5C 206.663,233.776 212.663,232.443 218.5,230.5 Z"/></g>
<g><path style="opacity:1" fill="#bbbbbb" d="M 173.5,238.5 C 172.432,239.434 171.099,239.768 169.5,239.5C 169.289,248.2 169.623,256.867 170.5,265.5C 169.778,265.082 169.278,264.416 169,263.5C 168.5,255.173 168.334,246.84 168.5,238.5C 170.167,238.5 171.833,238.5 173.5,238.5 Z"/></g>
<g><path style="opacity:1" fill="#6c6c6c" d="M 173.5,238.5 C 175.833,238.5 178.167,238.5 180.5,238.5C 180.334,245.175 180.5,251.842 181,258.5C 181.232,259.737 181.732,260.737 182.5,261.5C 182.402,263.553 183.069,265.22 184.5,266.5C 185.117,268.229 186.117,269.729 187.5,271C 190.776,272.692 194.109,273.859 197.5,274.5C 197.5,274.833 197.5,275.167 197.5,275.5C 193.5,275.5 189.5,275.5 185.5,275.5C 183.095,274.232 180.428,273.565 177.5,273.5C 174.48,271.477 172.146,268.81 170.5,265.5C 169.623,256.867 169.289,248.2 169.5,239.5C 171.099,239.768 172.432,239.434 173.5,238.5 Z"/></g>
<g><path style="opacity:1" fill="#8e8e8e" d="M 173.5,238.5 C 174.919,237.549 176.585,237.216 178.5,237.5C 179.5,237.5 180.5,237.5 181.5,237.5C 181.302,245.534 181.635,253.534 182.5,261.5C 181.732,260.737 181.232,259.737 181,258.5C 180.5,251.842 180.334,245.175 180.5,238.5C 178.167,238.5 175.833,238.5 173.5,238.5 Z"/></g>
<g><path style="opacity:1" fill="#b7b7b7" d="M 177.5,273.5 C 180.428,273.565 183.095,274.232 185.5,275.5C 183.833,275.5 182.167,275.5 180.5,275.5C 179.5,274.833 178.5,274.167 177.5,273.5 Z"/></g>
<g><path style="opacity:1" fill="#cccccc" d="M 110.5,273.5 C 117.567,273.848 117.901,274.848 111.5,276.5C 109.197,276.124 108.863,275.124 110.5,273.5 Z"/></g>
<g><path style="opacity:1" fill="#a6a6a6" d="M 197.5,275.5 C 197.5,275.167 197.5,274.833 197.5,274.5C 204.687,274.175 211.687,274.509 218.5,275.5C 214.298,275.183 210.298,275.517 206.5,276.5C 203.57,275.701 200.57,275.368 197.5,275.5 Z"/></g>
<g><path style="opacity:1" fill="#e7e7e7" d="M 180.5,275.5 C 182.167,275.5 183.833,275.5 185.5,275.5C 189.5,275.5 193.5,275.5 197.5,275.5C 200.57,275.368 203.57,275.701 206.5,276.5C 207.01,279.983 207.677,283.316 208.5,286.5C 212.298,287.483 216.298,287.817 220.5,287.5C 215.964,288.802 211.297,288.802 206.5,287.5C 206.015,284.926 205.015,283.426 203.5,283C 205.847,281.419 205.847,280.086 203.5,279C 204.167,278.667 204.833,278.333 205.5,278C 199.96,277.236 194.46,277.403 189,278.5C 188.055,278.095 187.388,277.428 187,276.5C 184.843,279.078 183.677,279.078 183.5,276.5C 180.758,279.205 179.758,278.871 180.5,275.5 Z"/></g>
<g><path style="opacity:1" fill="#676767" d="M 206.5,276.5 C 210.298,275.517 214.298,275.183 218.5,275.5C 218.833,275.5 219.167,275.5 219.5,275.5C 219.5,278.833 219.5,282.167 219.5,285.5C 215.833,285.5 212.167,285.5 208.5,285.5C 208.664,282.813 208.497,280.146 208,277.5C 207.617,276.944 207.117,276.611 206.5,276.5 Z"/></g>
<g><path style="opacity:1" fill="#848484" d="M 206.5,276.5 C 207.117,276.611 207.617,276.944 208,277.5C 208.497,280.146 208.664,282.813 208.5,285.5C 212.167,285.5 215.833,285.5 219.5,285.5C 216.038,286.482 212.371,286.815 208.5,286.5C 207.677,283.316 207.01,279.983 206.5,276.5 Z"/></g>
<g><path style="opacity:1" fill="#a4a4a4" d="M 219.5,275.5 C 220.483,279.298 220.817,283.298 220.5,287.5C 216.298,287.817 212.298,287.483 208.5,286.5C 212.371,286.815 216.038,286.482 219.5,285.5C 219.5,282.167 219.5,278.833 219.5,275.5 Z"/></g>
</svg>
