<?xml version="1.0"?><svg xmlns="http://www.w3.org/2000/svg" width="36" height="36" shape-rendering="geometricPrecision" text-rendering="geometricPrecision" image-rendering="optimizeQuality" fill-rule="evenodd" clip-rule="evenodd" viewBox="0 0 36 36"><path fill="#fdfdfd" d="m0 0h36v36h-36v-36z"></path><path fill="#676772" d="m17.1 0.7c-0.5 0.1-1 0.2-1.6 0.2 0.5-0.2 1-0.2 1.6-0.2z"></path><path fill="#1e1c2a" d="m17.1 0.7c6.9-0.1 12.3 2.8 15.9 8.7 2.9 5.5 3 11.1 0.2 16.7-2.8 4.9-7.1 7.9-12.7 8.9-7.9 0.8-13.8-2.2-17.8-9-2.2-4.6-2.5-9.3-0.9-14.2 2.3-5.6 6.4-9.1 12.3-10.7 0.5-0.1 0.9-0.2 1.4-0.2 0.6 0 1.1-0.1 1.6-0.2z"></path><path fill="#f96d4e" d="m15.8 1.6h0.4c1.3 0 2.6 0 3.9 0 0.3 0.1 0.6 0.2 0.8 0.2-1.7 0.3-3.4 0.4-5.1 0.2 0 0.1 0 0.2 0.1 0.3 1.1 0 2.2 0 3.3-0.1 0.3 0.1 0.6 0.1 0.9 0.2-0.6 0.1-1.2 0.2-1.9 0.2 0.2 0 0.4 0.1 0.5 0.2-1 0-1.9 0.1-2.9 0.1l-2.2-0.1c-0.3-0.1-0.7-0.2-1.1-0.1l-0.2 0c0.1 0 0.2-0.1 0.2-0.2 0.2 0 0.5-0.1 0.8-0.2 0.1 0 0.2 0 0.2 0.1 0.3-0.2 0.6-0.4 0.9-0.5 0.2-0.1 0.4-0.1 0.7-0.1 0.2-0.1 0.5-0.1 0.7-0.2z"></path><path fill="#d76458" d="m14.4 1.9c-0.3 0.1-0.6 0.3-0.9 0.5 0-0.1-0.1-0.1-0.2-0.1-0.3 0.1-0.6 0.2-0.8 0.2 0.6-0.3 1.2-0.5 1.9-0.6z"></path><path fill="#f67748" d="m20.9 1.8c0.4 0.1 0.8 0.1 1.2 0.2 0.4 0.1 0.7 0.2 1.1 0.4-0.4-0.1-0.6 0-0.8 0.3l-0.1 0c-0.5 0.1-0.5 0.1 0.1 0.2l-0.8 0.1c0.5 0.2 1 0.4 1.4 0.6-0.4 0-0.8-0.1-1.3-0.2l-0.1-0.1c-1-0.3-1.9-0.4-2.9-0.5-0.1-0.1-0.3-0.2-0.5-0.2 0.7 0 1.3-0.1 1.9-0.2-0.3-0.1-0.6-0.1-0.9-0.2-1.1 0.1-2.2 0.1-3.3 0.1-0.1-0.1-0.1-0.2-0.1-0.3 1.7 0.2 3.4 0.1 5.1-0.2z"></path><path fill="#6f3a2e" d="m15.8 1.6c-0.2 0.1-0.5 0.1-0.7 0.2 0.2-0.2 0.4-0.2 0.7-0.2z"></path><path fill="#4b2b2c" d="m22.1 2c-0.4-0.1-0.8-0.1-1.2-0.2-0.2 0-0.5-0.1-0.8-0.2-1.3 0-2.6 0-3.9 0 1.7-0.1 3.5-0.2 5.4-0.2-0.3 0.1-0.6 0.1-0.9 0.2 0.5 0.2 0.9 0.2 1.3 0.2 0.1 0 0.1 0.1 0.1 0.2z"></path><path fill="#b96a4a" d="m23.3 2.4c0.4 0.1 0.8 0.2 1.1 0.4-0.4 0-0.8-0.2-1.1-0.4z"></path><path fill="#f38143" d="m23.2 2.4h0.1c0.3 0.2 0.7 0.4 1.1 0.4 1.2 0.5 2.3 1.2 3.3 1.9-0.4-0.1-0.7-0.2-1.1-0.3-0.2 0.2-0.4 0.4-0.5 0.5 0.2 0.1 0.3 0.3 0.4 0.5-0.5-0.3-1.1-0.6-1.6-0.9-0.7-0.3-1.3-0.5-1.9-0.9-0.4-0.2-0.9-0.4-1.4-0.6l0.8-0.1c-0.6-0.1-0.6-0.1-0.1-0.2l0.1 0c0.2-0.3 0.4-0.4 0.8-0.3z"></path><path fill="#ba5a53" d="m11.5 2.8c-0.3 0.3-0.7 0.5-1.1 0.6 0.3-0.3 0.7-0.5 1.1-0.6z"></path><path fill="#1b1c2e" d="m21.6 3.3l0.1 0.1c0.1 0.1 0.3 0.2 0.4 0.3-0.3 0-0.5-0.1-0.8-0.1-0.1 0-0.2 0-0.3 0.1 0.6 0.2 1.2 0.4 1.7 0.5-0.5 0-1-0.1-1.5-0.2l-0.8 0.2c-0.6-0.1-1.1-0.1-1.7 0 0.9 0.1 1.9 0.1 2.9 0-0.1 0.1 0 0.2 0 0.3 0.4 0.1 0.8 0.2 1.2 0.3 0.1 0 0.2 0.1 0.2 0.2-0.5-0.1-1-0.1-1.4 0v0.3c-0.3 0-0.5 0.1-0.7 0.3-0.1 0.1-0.1 0.2-0.1 0.4-0.2 0.1-0.5 0.2-0.7 0.4-0.2 0-0.5 0-0.7 0v0.8h-0.7v0.2c-0.3 0.2-0.7 0.4-1 0.5-0.1 0.2-0.2 0.3-0.4 0.3-0.1 0.1-0.1 0.3-0.1 0.4h-0.7v0.3c-0.2 0-0.4 0.1-0.6 0.3-0.1 0.1-0.1 0.2-0.1 0.4-0.3 0-0.5 0.2-0.7 0.3l-0.2-0.2 0 0.4c-0.2-0.1-0.4-0.2-0.6-0.4-0.2 0.1-0.4 0.3-0.6 0.4 0 0-0.1 0-0.1-0.1-0.3 0.3-0.6 0.3-0.8 0 0 0.1-0.1 0.2-0.2 0.2-0.1 0-0.3 0-0.5-0.1-0.2 0.1-0.5 0.2-0.7 0.2-0.3 0-0.5-0.1-0.7-0.2 0 0.5 0 0.9 0 1.4h-0.7c0 0.5 0 0.9 0 1.3 0.2 0.1 0.5 0.1 0.8 0.1v0.3c-0.3 0.1-0.6 0.2-0.8 0.4-0.2 0-0.4 0-0.6 0 0 0.3 0 0.6 0.1 0.8-0.3 0-0.6 0-0.9 0v0.2c-0.3 0.1-0.5 0.2-0.7 0.4 0 0.1 0 0.3 0 0.4h-0.7v0.4h-0.8v0.7h-0.7v0.3c-0.3 0.1-0.6 0.3-1 0.5-0.1 0.1-0.2 0.2-0.3 0.3-0.1 0.1-0.2 0.2-0.2 0.4 0-0.1 0-0.2-0.1-0.3-0.1 0.8-0.1 1.6-0.2 2.4-0.1-0.1-0.1-0.3-0.1-0.4 0-0.8-0.1-1.7-0.2-2.5-0.1-0.2-0.2-0.5-0.1-0.7-0.1-0.4-0.3-0.8-0.4-1.2 0-0.4 0.1-0.9 0.3-1.3 0.1-0.1 0.2-0.1 0.3-0.2 0-0.2 0.1-0.4 0.2-0.6 0 0.1 0.1 0.2 0.1 0.3 0.1-0.2 0.1-0.3 0.2-0.5 0.2-0.1 0.5-0.1 0.8-0.1 0-0.2 0.1-0.4 0.2-0.6-0.1-0.1-0.1-0.1-0.2-0.2 0.1-0.1 0.1-0.1 0.2 0 0.2-0.3 0.4-0.5 0.5-0.8l0-0.2c-0.1 0.4-0.3 0.4-0.6 0.2-0.1 0.2-0.3 0.2-0.5 0.1 0-0.2 0-0.3 0.1-0.5 0.1 0.1 0.1 0.2 0.1 0.3 0.3-0.1 0.5-0.3 0.7-0.5 0-0.3 0.1-0.6 0.2-0.8-0.1-0.2-0.1-0.5 0-0.8 0.5-0.6 1-1.3 1.5-1.9 0.2-0.1 0.4-0.2 0.6-0.4 0.5-0.2 1-0.6 1.4-1 0.1 0.1 0.3 0.1 0.4 0-0.1-0.1-0.1-0.2 0-0.3 0.3 0.2 0.2 0.3-0.1 0.4 0.1 0.1 0.2 0.1 0.4 0.2-0.4 0.3-0.8 0.5-1.2 0.5-0.1 0.2-0.1 0.3-0.1 0.5-0.2-0.1-0.3-0.1-0.5-0.1l0 0.1c0.4 0.1 0.7 0 1-0.3 0.2 0.3 0.6 0.4 0.9 0.4v-0.3h-0.2c-0.1-0.2 0-0.4 0.2-0.5 0-0.2 0-0.4 0-0.7l1.5-0.4c0 0.2-0.1 0.3-0.3 0.4 0.3 0.1 0.6 0 0.9-0.2 0.7 0.2 1.5 0.3 2.3 0.2v-0.9h1.4v-0.6c-0.5-0.1-1-0.2-1.4-0.3 0.4-0.1 0.8-0.1 1.2 0 0.2 0.1 0.5 0.3 0.7 0.4 0.3-0.1 0.5-0.1 0.7 0l0.2-0.1c-0.2-0.1-0.5-0.1-0.8-0.2 0.2-0.1 0.3-0.1 0.5-0.1-0.4-0.2-0.7-0.3-1.1-0.3v-0.3c0.4 0 0.8 0 1.2 0l-0.2 0.1 0.3 0.2-0.1 0.1c1 0 2 0.1 3 0.1l0.1-0.1c-0.5 0-0.9-0.1-1.4-0.2 0.6-0.1 1.2-0.1 1.8 0 0.3-0.2 0.7-0.3 1.1-0.2z"></path><path fill="#1c1b28" d="m18.7 2.8c1 0.1 1.9 0.2 2.9 0.5-0.4-0.1-0.8 0-1.1 0.2-0.6-0.1-1.2-0.1-1.8 0 0.5 0.1 0.9 0.2 1.4 0.2l-0.1 0.1c-1 0-2-0.1-3-0.1l0.1-0.1-0.3-0.2 0.2-0.1c-0.4 0-0.8 0-1.2 0v0.3c0.4 0 0.7 0.1 1.1 0.3-0.2 0-0.3 0-0.5 0.2 0.3 0 0.6 0 0.8 0.1l-0.2 0.1c-0.2-0.1-0.4-0.1-0.7 0-0.2-0.1-0.5-0.3-0.7-0.4-0.4-0.1-0.8-0.1-1.2 0 0.4 0.1 0.9 0.2 1.4 0.3v0.6h-1.4v0.9c-0.8 0.1-1.6 0-2.3-0.2-0.3 0.2-0.6 0.3-0.9 0.2 0.2-0.1 0.3-0.2 0.3-0.4l-1.5 0.4c0 0.3 0 0.5 0 0.7-0.2 0.1-0.3 0.3-0.2 0.5h0.2v0.3c-0.3 0-0.7-0.1-0.9-0.4-0.3 0.3-0.6 0.4-1 0.3l0-0.1c0.2 0 0.3 0 0.5 0.1 0-0.2 0-0.3 0.1-0.5 0.4 0 0.8-0.2 1.2-0.5-0.2-0.1-0.3-0.1-0.4-0.2 0.3-0.1 0.4-0.2 0.1-0.4-0.1 0.1-0.1 0.2 0 0.3-0.1 0.1-0.3 0.1-0.4 0-0.4 0.4-0.9 0.8-1.4 1 0.2-0.3 0.5-0.6 0.9-0.9 0.9-0.6 1.9-1.2 2.9-1.8 1.3-0.5 2.8-0.9 4.2-1.2 1 0 1.9-0.1 2.9-0.1z"></path><path fill="#f66554" d="m12.5 2.5c0 0.1-0.1 0.2-0.2 0.2l0.2 0c0.4-0.1 0.8 0 1.1 0.1l2.2 0.1c-1.4 0.3-2.9 0.7-4.2 1.2-1 0.6-2 1.2-2.9 1.8-0.4 0.3-0.7 0.6-0.9 0.9-0.2 0.2-0.4 0.3-0.6 0.4-0.5 0.6-1 1.3-1.5 1.9-1.1 1.5-1.9 3.1-2.3 4.9-0.2 0.4-0.3 0.9-0.3 1.3l-0.2 0.5c0-1.1-0.1-2.1-0.3-3.2-0.2 0.6-0.5 1.2-0.7 1.8 0.4-2.1 1.2-4 2.4-5.7 0.4-0.5 0.8-1 1.1-1.5 0.1 0 0.2-0.1 0.3 0 0-0.3 0.1-0.4 0.2-0.6 0.4-0.2 0.6-0.5 0.9-0.8 0.1-0.1 0.2-0.1 0.4-0.1 0-0.2 0.1-0.3 0.2-0.4 0.9-0.8 1.9-1.4 3-1.9 0.4-0.1 0.8-0.3 1.1-0.6 0.3-0.2 0.6-0.3 1-0.3z"></path><path fill="#f88f3a" d="m27.7 4.7c0.5 0.3 0.9 0.6 1.2 1 0 0.1 0 0.2-0.1 0.2 0.3 0.1 0.4 0.2 0.5 0.4-0.2 0-0.3 0.1-0.2 0.4 0.2 0.3 0.4 0.2 0.6-0.1 0.1 0.1 0.2 0.2 0.2 0.3-0.2 0.1-0.3 0.3-0.2 0.6-0.1 0.3-0.1 0.2-0.2-0.1-0.2 0.2-0.4 0.3-0.6 0.1-0.1-0.1-0.2-0.2-0.1-0.3-0.1 0-0.2 0-0.3-0.1-0.4-0.4-0.8-0.7-1.2-1.1v-0.3c-0.2-0.1-0.5-0.2-0.8-0.3-0.1-0.2-0.2-0.4-0.4-0.5 0.1-0.1 0.3-0.3 0.5-0.5 0.4 0.1 0.7 0.2 1.1 0.3z"></path><path fill="#cd8052" d="m26.5 5.4c0.3 0.1 0.6 0.2 0.8 0.3v0.3c-0.3-0.1-0.6-0.3-0.8-0.6z"></path><path fill="#232437" d="m26.7 7.2c0.6 0.2 1.1 0.7 1.5 1.3 0.2 0.1 0.5 0.1 0.7 0.1 0 0.2-0.1 0.4-0.1 0.6 0 0.4 0.1 0.4 0.3 0.1 0.1 0.3 0.3 0.6 0.4 0.9 0.5 0.3 0.7 0.8 0.7 1.3-0.2 0.1-0.4 0.3-0.6 0.4-0.1 0.1-0.1 0.2-0.1 0.3-0.4 0.1-0.7 0.2-1 0.4-0.2 0.2-0.3 0.4-0.4 0.6 0-0.1-0.1-0.2-0.2-0.3-0.1 0.2-0.3 0.4-0.5 0.5-0.1 0-0.1 0.1-0.1 0.2h-0.4v0.8h-0.3c0-0.2 0-0.3 0-0.5-0.2 0.1-0.4 0.2-0.5 0.4l0 0.1c-0.1 0-0.2 0-0.3 0-0.1 0-0.1 0.1-0.1 0.2-0.1 0-0.2-0.1-0.3-0.1-0.6-0.4-1.2-0.8-1.9-1.2-1.7-0.4-3.4-0.9-5.1-1.3v-0.2c0.1 0.2 0.2 0.2 0.3 0 0.1 0.2 0.2 0.2 0.3 0.1 0.4 0 0.8-0.1 1.1-0.2-0.3 0-0.6-0.1-0.9-0.1 0.4-0.5 1-0.8 1.6-0.9 0.2-0.2 0.4-0.4 0.7-0.5 0.1 0.2 0.3 0.2 0.4-0.1l-0.3-0.2c0.3-0.2 0.6-0.5 1-0.6v-0.7h1.1v-0.4h0.7c0-0.2 0-0.3 0.1-0.5 0.4-0.3 0.9-0.6 1.4-0.8 0-0.1 0-0.2 0-0.3 0.3 0.1 0.6 0.3 0.8 0.6z"></path><path fill="#bc8346" d="m30.5 7.3c0.3 0.3 0.6 0.6 0.8 1-0.3-0.3-0.6-0.6-0.8-1z"></path><path fill="#f59938" d="m28.9 5.7c0.6 0.4 1 0.9 1.3 1.5 0.1-0.1 0.2 0 0.3 0.1 0.2 0.4 0.5 0.7 0.8 1 0 0.3 0.2 0.6 0.4 0.7l0.1 0.5c0.1-0.1 0.2-0.1 0.2 0.1l0.3 0.7c-0.1 0.1-0.1 0.1-0.2 0-0.1-0.1-0.1-0.3-0.1-0.4h-0.3c0-0.3-0.1-0.5-0.3-0.5l-0.3 0.4c0-0.2-0.1-0.3-0.3-0.4l-0.1 0.1c0.1 0.2 0.2 0.3 0.2 0.5-0.6-0.8-1.3-1.7-2-2.5 0.2 0.2 0.4 0.1 0.6-0.1 0.1 0.3 0.1 0.4 0.2 0.1-0.1-0.3 0-0.5 0.2-0.6 0-0.1-0.1-0.2-0.2-0.3-0.2 0.3-0.4 0.4-0.6 0.1-0.1-0.3 0-0.4 0.2-0.4-0.1-0.2-0.2-0.3-0.5-0.4 0.1 0 0.1-0.1 0.1-0.2z"></path><path fill="#d59338" d="m31.3 8.3c0.6 0.7 1 1.5 1.4 2.4-0.1-0.1-0.2-0.2-0.3-0.3-0.1 0.2-0.3 0.2-0.3-0.1 0.1 0.1 0.1 0.1 0.2 0l-0.3-0.7c0-0.2-0.1-0.2-0.2-0.1l-0.1-0.5c-0.2-0.1-0.4-0.4-0.4-0.7z"></path><path fill="#f3f3f5" d="m15.7 11.4c0.9 0.2 1.8 0.4 2.7 0.6 1.7 0.4 3.4 0.9 5.1 1.3 0.7 0.4 1.3 0.8 1.9 1.2 0.3 0.3 0.5 0.5 0.8 0.7 0.1 0.1 0.2 0.3 0.1 0.5-2.3 3.2-4.5 6.4-6.6 9.6-0.7 0.9-1.4 1.8-2 2.7-0.2 0.2-0.5 0.1-0.6-0.1-0.3-0.7-0.6-1.3-0.9-2-0.5-1.6-1.1-3.2-1.7-4.8-0.7-2.2-1.5-4.4-2.4-6.6-0.3-1.1-0.8-2.3-1.2-3.5-0.1-0.2 0-0.4 0.1-0.6 0.4 0 0.8 0 1.2 0.1 1.2 0.3 2.3 0.6 3.5 0.9z"></path><path fill="#f3a331" d="m32.1 10.3c0 0.3 0.2 0.3 0.3 0.1 0.1 0.1 0.2 0.2 0.3 0.3 0.3 0.4 0.5 0.8 0.6 1.3v0.6h-0.3c0 0.3 0.1 0.6 0 0.9 0-0.2-0.1-0.3-0.1-0.4-0.1 0.2-0.2 0.5-0.3 0.7l0.1 0.3c0-0.2 0.1-0.3 0.2-0.5 0-0.1 0.1-0.1 0.1 0-0.1 0.4-0.2 0.7-0.2 1h-0.1c-0.4-1.6-1-3.1-1.8-4.6 0-0.2-0.1-0.3-0.2-0.5l0.1-0.1c0.2 0.1 0.3 0.2 0.3 0.4l0.3-0.4c0.2 0 0.3 0.2 0.3 0.5h0.3c0 0.1 0 0.3 0.1 0.4z"></path><path fill="#1d1b27" d="m5.7 9.1c-0.1 0.3-0.1 0.6 0 0.8-0.1 0.2-0.2 0.5-0.2 0.8-0.2 0.2-0.4 0.4-0.7 0.5 0-0.1 0-0.2-0.1-0.3-0.1 0.2-0.1 0.3-0.1 0.5 0.2 0.1 0.4 0.1 0.5-0.1 0.3 0.2 0.5 0.2 0.6-0.2l0 0.2c-0.1 0.3-0.3 0.5-0.5 0.8-0.1-0.1-0.1-0.1-0.2 0 0.1 0.1 0.1 0.1 0.2 0.2-0.1 0.2-0.2 0.4-0.2 0.6-0.3 0-0.6 0-0.8 0.1-0.1 0.2-0.1 0.3-0.1 0.5-0.1-0.1-0.2-0.2-0.2-0.3-0.1 0.2-0.2 0.4-0.2 0.6-0.1 0.1-0.2 0.1-0.3 0.2 0.4-1.8 1.2-3.4 2.3-4.9z"></path><path fill="#1f2032" d="m23 5c1.1 0.5 2.1 1 3.1 1.6 0.3 0.1 0.5 0.3 0.6 0.6-0.2-0.3-0.5-0.5-0.8-0.6 0 0.1 0 0.2 0 0.3-0.5 0.2-1 0.5-1.4 0.8-0.1 0.2-0.1 0.3-0.1 0.5h-0.7v0.4h-1.1v0.7c-0.4 0.1-0.7 0.4-1 0.6l0.3 0.2c-0.1 0.3-0.3 0.3-0.4 0.1-0.3 0.1-0.5 0.3-0.7 0.5-0.6 0.1-1.2 0.4-1.6 0.9 0.3 0 0.6 0.1 0.9 0.1-0.3 0.1-0.7 0.2-1.1 0.2-0.1 0.1-0.2 0.1-0.3-0.1-0.1 0.2-0.2 0.2-0.3 0-0.3-0.3-0.6-0.5-0.9-0.8-0.3 0.2-0.5 0.4-0.8 0.6-0.3-0.2-0.6-0.2-1-0.2-1.2-0.3-2.3-0.6-3.5-0.9-0.4-0.1-0.8-0.1-1.2-0.1-0.1 0.2-0.2 0.4-0.1 0.6 0.4 1.2 0.9 2.4 1.2 3.5-0.1 0.3-0.1 0.5 0 0.7-0.2 0.2-0.3 0.5-0.3 0.9l0.1 0.5 0.1 0.1c-0.1 0.2-0.3 0.3-0.5 0.3v0.2c0.9 0.1 0.9 0.1 0 0.2-0.3 0.1-0.5 0.3-0.7 0.5-0.8 0.1-1.3 0.5-1.8 1.1-0.2 0.2-0.5 0.3-0.8 0.4v0.7c-0.3 0-0.7 0-1 0.1l-1.5 1.3c-0.2 0.1-0.5 0.1-0.8 0.1-0.1 0.4-0.1 0.8-0.1 1.2 0.2 0.6 0.4 1.3 0.6 1.9h0.3c0 0.2 0 0.3 0.1 0.5 0.1 0.2 0.3 0.5 0.5 0.8-0.4 0-0.6 0.1-0.6 0.4-0.1-0.1-0.1-0.2-0.2-0.3l0.2-0.1c-0.1-0.1-0.1-0.3-0.1-0.4h-0.2c-0.1-0.3-0.3-0.7-0.5-0.9 0.3-0.2 0.3-0.3 0-0.3 0-0.5 0-0.9-0.2-1.4-0.1 0-0.3 0-0.4-0.1-0.2-0.4-0.3-0.8-0.4-1.3 0.1 0 0.2-0.1 0.3 0 0-0.2 0-0.4-0.1-0.6 0-0.1-0.1-0.1-0.1 0-0.1-0.1-0.1-0.2-0.2-0.3 0.1-0.2 0.1-0.4 0.1-0.6 0.1-0.8 0.1-1.6 0.2-2.4 0.1 0.1 0.1 0.2 0.1 0.3 0-0.2 0.1-0.3 0.2-0.4 0.1-0.1 0.2-0.2 0.3-0.3 0.4-0.2 0.7-0.4 1-0.5v-0.3h0.7v-0.7h0.8v-0.4h0.7c0-0.1 0-0.3 0-0.4 0.2-0.2 0.4-0.3 0.7-0.4v-0.2c0.3 0 0.6 0 0.9 0-0.1-0.2-0.1-0.5-0.1-0.8 0.2 0 0.4 0 0.6 0 0.2-0.2 0.5-0.3 0.8-0.4v-0.3c-0.3 0-0.6 0-0.8-0.1 0-0.4 0-0.8 0-1.3h0.7c0-0.5 0-0.9 0-1.4 0.2 0.1 0.4 0.2 0.7 0.2 0.2 0 0.5-0.1 0.7-0.2 0.2 0.1 0.4 0.1 0.5 0.1 0.1 0 0.2-0.1 0.2-0.2 0.2 0.3 0.5 0.3 0.8 0 0 0.1 0.1 0.1 0.1 0.1 0.2-0.1 0.4-0.3 0.6-0.4 0.2 0.2 0.4 0.3 0.6 0.4l-0.1-0.4 0.3 0.2c0.2-0.1 0.4-0.3 0.7-0.3 0-0.2 0-0.3 0.1-0.4 0.2-0.2 0.4-0.3 0.6-0.3v-0.3h0.7c0-0.1 0-0.3 0.1-0.4 0.2 0 0.3-0.1 0.4-0.3 0.3-0.1 0.7-0.3 1-0.5v-0.2h0.7v-0.8c0.2 0 0.5 0 0.7 0 0.2-0.2 0.5-0.3 0.7-0.4 0-0.2 0-0.3 0.1-0.4 0.2-0.2 0.4-0.3 0.7-0.3v-0.3c0.4-0.1 0.9-0.1 1.4 0z"></path><path fill="#35354b" d="m18.4 11.8v0.2c-0.9-0.2-1.8-0.4-2.7-0.6 0.4 0 0.7 0 1 0.2 0.3-0.2 0.5-0.4 0.8-0.6 0.3 0.3 0.6 0.5 0.9 0.8z"></path><path fill="#232436" d="m12.6 11.7c3.3 0.7 6.6 1.5 9.9 2.4-1.4 1.5-2.7 3-4.2 4.4-1.9-2.3-3.8-4.6-5.7-6.8z"></path><path fill="#fa6c4d" d="m2.9 15.8c-0.1 1.4-0.1 2.9 0 4.3 0 0-0.1 0.1-0.1 0.1 0-0.5-0.1-1-0.1-1.5-0.1 0.5-0.2 0.9-0.1 1.4h-0.3c-0.1-0.6-0.1-1.3 0-2 0-0.2-0.1-0.5-0.1-0.8-0.1 0.7-0.2 1.4-0.2 2.1 0-0.1-0.1-0.2-0.1-0.4l-0.1 0.5-0.1-0.1c-0.1-1-0.1-2 0-3.1l0.1-0.1c0.1 0.4 0.1 0.4 0.1 0 0-0.6 0-1.2 0-1.8 0.2-0.6 0.5-1.2 0.7-1.8 0.2 1.1 0.3 2.1 0.3 3.2z"></path><path fill="#eeab2f" d="m33.3 12c0.1 0.2 0.2 0.4 0.3 0.6l0.6 2.7c0.1 0.4 0.1 0.8 0.2 1.2v2.4l-0.2 1.2v-0.1c0.1-1.1 0-2.3 0-3.4-0.1 0.1-0.1 0.3-0.1 0.4 0 0.3 0.1 0.6 0 0.9 0-0.3-0.1-0.6-0.3-0.8 0-0.5 0.1-1 0.3-1.5-0.1-0.2-0.1-0.3-0.3-0.2 0-0.1-0.1-0.3-0.2-0.4-0.2 0.3-0.3 0.6-0.2 1 0 0.7-0.1 1.4-0.1 2.1l-0.1-1.1c0 0.6-0.1 1.1-0.1 1.7v-1.9c-0.1-0.7-0.2-1.5-0.3-2.2 0-0.3 0.1-0.6 0.2-1 0-0.1-0.1-0.1-0.2 0 0 0.2-0.1 0.3-0.1 0.5l-0.1-0.3c0.1-0.2 0.2-0.5 0.2-0.7 0.1 0.1 0.2 0.2 0.2 0.4 0.1-0.3 0-0.6 0-0.9h0.3v-0.6z"></path><path fill="#2a2a3c" d="m23.2 14.4c0.1-0.1 0.2 0 0.3 0 0.5 0.3 0.9 0.6 1.3 0.9-1.6 1-3.3 1.8-5 2.6 1.2-1.2 2.3-2.4 3.4-3.5z"></path><path fill="#3a2a18" d="m32.7 14.6h0.1c0.1 0.7 0.2 1.5 0.3 2.2-0.3-0.7-0.4-1.4-0.4-2.2z"></path><path fill="#33210c" d="m34.2 15.3c0.1 0 0.2 0.1 0.2 0.2 0 0.4 0 0.7 0 1-0.1-0.4-0.1-0.8-0.2-1.2z"></path><path fill="#2c2d42" d="m30.2 11.5c0.2 0 0.4 0.1 0.4 0.3 0.5 1.2 0.9 2.4 1.3 3.6 0 0.1 0 0.3-0.1 0.5 0.2 0.7 0.3 1.4 0.3 2.1-0.1 0.5-0.1 1.1-0.1 1.7-0.1-0.3-0.1-0.7-0.1-1h-1.7c0 0.3 0 0.6-0.1 1-0.3 0.2-0.5 0.3-0.8 0.5-0.4 0.4-0.8 0.7-1.2 1.1l-0.1-0.7c-0.2 0.3-0.3 0.6-0.2 1-0.5 0.1-0.9 0.4-1.1 0.9-0.1-0.2-0.2-0.2-0.3-0.2-0.3 0.4-0.8 0.8-1.2 1.1 0 0-0.1-0.1-0.1-0.1-0.3 0.1-0.5 0.3-0.6 0.6 0-0.1-0.1-0.2-0.2-0.1-0.4 0.4-0.8 0.7-1.3 1.1l0-0.7c-0.3 0.3-0.3 0.6-0.3 1-0.5 0.1-0.8 0.4-1.1 0.9 0-0.2-0.1-0.2-0.2-0.2-0.4 0.4-0.8 0.8-1.2 1.1-0.1-0.1-0.1-0.2 0-0.4-0.1-0.2-0.3-0.4-0.6-0.6-0.1 0.2-0.2 0.2-0.3 0 0.1-0.1 0.3-0.2 0.4-0.3-0.1-0.1-0.1-0.2 0-0.4 2.1-3.2 4.3-6.4 6.6-9.6 0.1-0.2 0-0.4-0.1-0.5-0.3-0.2-0.5-0.4-0.8-0.7 0.1 0 0.2 0.1 0.3 0.1 0-0.1 0-0.2 0.1-0.2 0.1 0 0.2 0 0.3 0l0-0.1c0.1-0.2 0.3-0.3 0.5-0.4 0 0.2 0 0.3 0 0.5h0.3v-0.8h0.4c0-0.1 0-0.2 0.1-0.2 0.2-0.1 0.4-0.3 0.5-0.5 0.1 0.1 0.2 0.2 0.2 0.3 0.1-0.2 0.2-0.4 0.4-0.6 0.3-0.2 0.6-0.3 1-0.4 0-0.1 0-0.2 0.1-0.3 0.2-0.1 0.4-0.3 0.6-0.4z"></path><path fill="#d66c51" d="m1.9 14.4c0 0.6 0 1.2 0 1.8 0 0.4 0 0.4-0.1 0l-0.1 0.1c-0.1 1.1-0.1 2.1 0 3.1l0.1 0.1 0.1-0.5c0 0.2 0.1 0.3 0.1 0.4-0.1 0.6-0.1 1.2-0.1 1.8 0.2 0.6 0.4 1.3 0.5 2-0.2-0.4-0.3-0.9-0.5-1.3-0.4-1.9-0.5-3.8-0.4-5.7 0.1-0.7 0.2-1.3 0.4-1.8z"></path><path fill="#222337" d="m12.1 14.5c0.9 2.2 1.7 4.4 2.4 6.6 0.1 0.5 0 0.9-0.1 1.4 0.2 0.1 0.2 0.2 0 0.4 0 0.1 0 0.1-0.2 0 0 0.3-0.2 0.5-0.5 0.5 0 0-0.1-0.1-0.1-0.1-0.3 0.1-0.5 0.4-0.7 0.7h-0.7v0.4h-0.5v0.8h-0.9c0 0.1-0.1 0.2-0.1 0.3-0.5 0.2-0.9 0.5-1.3 0.8-0.3 0.7-0.8 0.9-1.5 0.8-0.1 0.2-0.3 0.2-0.5 0.2-0.5-0.4-0.9-0.8-1.1-1.3-0.2-0.3-0.4-0.6-0.5-0.8-0.1-0.2-0.1-0.3-0.1-0.5h-0.3c-0.2-0.6-0.4-1.3-0.6-1.9 0-0.4 0-0.8 0.1-1.2 0.3 0 0.6 0 0.8-0.1l1.5-1.3c0.3-0.1 0.7-0.1 1-0.1v-0.7c0.3-0.1 0.6-0.2 0.8-0.4 0.5-0.6 1-1 1.8-1.1 0.2-0.2 0.4-0.4 0.7-0.5 0.9-0.1 0.9-0.1 0-0.2v-0.2c0.2 0 0.4-0.1 0.5-0.3l-0.1-0.1-0.1-0.5c0-0.4 0.1-0.7 0.3-0.9-0.1-0.2-0.1-0.4 0-0.7z"></path><path fill="#26273a" d="m17.3 24.9c0 0.3-0.1 0.7-0.2 1.1-1.7-4.6-3.3-9.2-5-13.7l5.7 6.7c-0.1 2-0.3 3.9-0.5 5.9z"></path><path fill="#f67b46" d="m2.9 20.1c0.3 1.8 0.9 3.4 1.7 5.1h-0.2c-0.1 0.1 0 0.2 0.1 0.4-0.2 0.1-0.4 0-0.5-0.2 0.1-0.2 0.2-0.3 0.4-0.4-0.1-0.1-0.2-0.2-0.4-0.3 0.1-0.1 0.1-0.3 0-0.4-0.1-0.1-0.2-0.1-0.3-0.1 0.1 0.1 0.1 0.3 0.1 0.4-0.1 0-0.2 0-0.3 0.1-0.1 0.2-0.1 0.5-0.1 0.7 0.1 0 0.2 0 0.3-0.2 0.1 0.3 0.2 0.5 0.3 0.7-0.1 0-0.2 0-0.3 0.1 0.1 0.1 0.1 0.2 0.1 0.3-0.6-0.9-1.1-2-1.4-3.1-0.1-0.7-0.3-1.4-0.5-2 0-0.6 0-1.2 0.1-1.8 0-0.7 0.1-1.4 0.2-2.1 0 0.3 0.1 0.6 0.1 0.8-0.1 0.7-0.1 1.4 0 2h0.3c-0.1-0.5 0-0.9 0.1-1.4 0 0.5 0.1 1 0.1 1.5 0 0 0.1-0.1 0.1-0.1z"></path><path fill="#f4b727" d="m34.2 20c0-0.2-0.1-0.4-0.1-0.7-0.1 0.2-0.2 0.4-0.3 0.6 0.1 0.1 0.2 0.2 0.4 0.2-0.2 0.6-0.3 1.2-0.5 1.8-0.1 0-0.2-0.1-0.2-0.2 0.1-0.2 0.1-0.5 0.1-0.7-0.1-0.1-0.2-0.2-0.3-0.2 0.1 0.3 0 0.5-0.1 0.8-0.1-0.2-0.2-0.3-0.2-0.4 0 0.3-0.1 0.7-0.2 1-0.1-0.1-0.1-0.1-0.1-0.2 0 0.4 0 0.7 0 1-0.2 0.3-0.3 0.7-0.4 1.1-0.1 0.1-0.2 0-0.2-0.2 0.1-0.3 0.2-0.6 0.2-0.9 0.4-1.4 0.7-2.8 0.8-4.3 0-0.6 0.1-1.1 0.1-1.7l0.1 1.1c0-0.7 0.1-1.4 0.1-2.1-0.1-0.4 0-0.7 0.2-1 0.1 0.1 0.2 0.3 0.2 0.4 0.2-0.1 0.2 0 0.3 0.2-0.2 0.5-0.3 1-0.3 1.5 0.2 0.2 0.3 0.5 0.3 0.8 0.1-0.3 0-0.6 0-0.9 0-0.1 0-0.3 0.1-0.4 0 1.1 0.1 2.3 0 3.4z"></path><path fill="#322417" d="m34.4 18.9c0 0.7 0 1.3 0.1 2l0 0.3c0-0.2-0.1-0.4-0.2-0.5 0 0.3-0.1 0.6-0.2 0.9 0-0.5 0.1-1 0.1-1.5l0.2-1.2z"></path><path fill="#4c3712" d="m34.1 21.6c0 0.2-0.1 0.4-0.2 0.6 0-0.3 0-0.5 0.2-0.6z"></path><path fill="#f78a3e" d="m4.6 25.2c0.2 0.3 0.4 0.6 0.6 0.9 0 0.4 0.2 0.7 0.5 0.9l0.1 0.4c0-0.1 0.1-0.1 0.2-0.1 0.4 0.4 0.8 0.9 1.2 1.4-0.8 0.1-0.8 0.2-0.1 0.3-0.1 0.2-0.1 0.3-0.1 0.5-0.2 0-0.3 0-0.4-0.1-0.1-0.2-0.3-0.4-0.5-0.5-0.1 0.1-0.1 0.2-0.1 0.3-0.9-0.9-1.6-1.8-2.2-2.9 0-0.1 0-0.2-0.1-0.3 0.1-0.1 0.2-0.1 0.3-0.1-0.1-0.2-0.2-0.4-0.3-0.7-0.1 0.2-0.2 0.2-0.3 0.2 0-0.2 0-0.5 0.1-0.7 0.1-0.1 0.2-0.1 0.3-0.1 0-0.1 0-0.3-0.1-0.4 0.1 0 0.2 0 0.3 0.1 0.1 0.1 0.1 0.3 0 0.4 0.2 0.1 0.3 0.2 0.4 0.3-0.2 0.1-0.3 0.2-0.4 0.4 0.1 0.2 0.3 0.3 0.5 0.2-0.1-0.2-0.2-0.3-0.1-0.4h0.2z"></path><path fill="#d47f49" d="m5.2 26.1c0.3 0.4 0.6 0.8 0.8 1.2-0.1 0-0.2 0-0.2 0.1l-0.1-0.4c-0.3-0.2-0.5-0.5-0.5-0.9z"></path><path fill="#f1c023" d="m34.2 20v0.1c0 0.5-0.1 1-0.1 1.5-0.2 0.1-0.2 0.3-0.2 0.6-0.7 2.4-1.8 4.6-3.4 6.5-0.1 0-0.2 0.1-0.3 0.1 0 0 0 0.1-0.1 0.2l-1.1 1.1c-0.1 0.1-0.2 0.1-0.2 0.1 0 0.1-0.1 0.2-0.1 0.3-1.3 1-2.7 1.9-4.3 2.6-0.2 0-0.5 0.2-0.7 0.3-0.5 0.2-1 0.3-1.5 0.5-0.2 0-0.4 0-0.6 0.1 0.1-0.2 0.3-0.3 0.4-0.3-0.1-0.2-0.2-0.3-0.3-0.4-0.4 0.3-0.7 0.2-1 0l0.8-0.1 0.1-0.1-0.3-0.1c0.1 0 0.2 0 0.3-0.1 0.3 0.1 0.7 0.2 1 0.2l0.2-0.1-0.3-0.1 0-0.1c0.3 0 0.6-0.1 0.9-0.3-0.2 0-0.3-0.1-0.4-0.2 0.5-0.3 1-0.5 1.6-0.7 3.7-1.9 6.2-4.8 7.7-8.6 0 0.3-0.1 0.6-0.2 0.9 0 0.2 0.1 0.3 0.2 0.2 0.1-0.4 0.2-0.8 0.4-1.1 0-0.3 0-0.6 0-1 0 0.1 0 0.1 0.1 0.2 0.1-0.3 0.2-0.7 0.2-1 0 0.1 0.1 0.2 0.2 0.4 0.1-0.3 0.2-0.5 0.1-0.8 0.1 0 0.2 0.1 0.3 0.2 0 0.2 0 0.5-0.1 0.7 0 0.1 0.1 0.2 0.2 0.2 0.2-0.6 0.3-1.2 0.5-1.8-0.2 0-0.3-0.1-0.4-0.2 0.1-0.2 0.2-0.4 0.3-0.6 0 0.3 0.1 0.5 0.1 0.7z"></path><path fill="#1c1b29" d="m21.7 3.4c0.5 0.1 0.9 0.2 1.3 0.2 0.6 0.4 1.2 0.6 1.9 0.9 0.5 0.3 1.1 0.6 1.6 0.9 0.2 0.3 0.5 0.5 0.8 0.6 0.4 0.4 0.8 0.7 1.2 1.1 0.1 0.1 0.2 0.1 0.3 0.1-0.1 0.1 0 0.2 0.1 0.3 0.7 0.8 1.4 1.7 2 2.5 0.8 1.5 1.4 3 1.8 4.6 0 0.8 0.1 1.5 0.4 2.2v1.9c-0.1 1.5-0.4 2.9-0.8 4.3-1.5 3.8-4 6.7-7.7 8.6-0.6 0.2-1.1 0.4-1.6 0.7-0.8 0.2-1.6 0.4-2.4 0.5-0.9 0.1-1.8 0.2-2.7 0.2l-1.4-0.1c-0.7-0.1-1.4-0.2-2.1-0.3h-0.3c-1.4-0.4-2.7-0.9-4-1.6-1-0.7-2-1.4-2.9-2.2 0 0 0-0.1 0-0.1-0.4-0.5-0.8-1-1.2-1.4-0.2-0.4-0.5-0.8-0.8-1.2-0.2-0.3-0.4-0.6-0.6-0.9-0.8-1.7-1.4-3.3-1.7-5.1-0.1-1.4-0.1-2.9 0-4.3l0.2-0.5c0.1 0.4 0.3 0.8 0.4 1.2-0.1 0.2 0 0.5 0.1 0.7 0.1 0.8 0.2 1.7 0.2 2.5 0 0.1 0 0.3 0.1 0.4 0 0.2 0 0.4-0.1 0.6 0.1 0.1 0.1 0.2 0.2 0.3 0-0.1 0.1-0.1 0.1 0 0.1 0.2 0.1 0.4 0.1 0.6-0.1-0.1-0.2 0-0.3 0 0.1 0.5 0.2 0.9 0.4 1.3 0.1 0.1 0.3 0.1 0.4 0.1 0.2 0.5 0.2 0.9 0.2 1.4 0.3 0 0.3 0.1 0 0.3 0.2 0.2 0.4 0.6 0.5 0.9h0.2c0 0.1 0 0.3 0.1 0.4l-0.2 0.1c0.1 0.1 0.1 0.2 0.2 0.3 0-0.3 0.2-0.4 0.6-0.4 0.2 0.5 0.6 0.9 1.1 1.3 1.1 1.4 2.4 2.4 3.9 3.3 2.1 1 4.3 1.6 6.7 1.7 0.2 0 0.5-0.1 0.7-0.1 4.5-0.3 8.1-2.3 10.8-6 0.9-1.2 1.5-2.5 2-3.9 0-0.3 0.1-0.6 0.2-0.9l-0.1-0.1c0.2-0.5 0.3-1.1 0.4-1.6 0-0.6 0-1.2 0.1-1.7 0-0.7-0.1-1.4-0.3-2.1 0.1-0.2 0.1-0.4 0.1-0.5-0.4-1.2-0.8-2.4-1.3-3.6 0-0.2-0.2-0.3-0.4-0.3 0-0.5-0.2-1-0.7-1.3-0.1-0.3-0.3-0.6-0.4-0.9-0.2 0.3-0.3 0.3-0.3-0.1 0-0.2 0.1-0.4 0.1-0.6-0.2 0-0.5 0-0.7-0.1-0.4-0.6-0.9-1.1-1.5-1.3-0.1-0.3-0.3-0.5-0.6-0.6-1-0.6-2-1.1-3.1-1.6 0-0.1-0.1-0.2-0.2-0.2-0.4-0.1-0.8-0.2-1.2-0.3 0-0.1-0.1-0.2 0-0.3-1 0.1-2 0.1-2.9 0 0.6-0.1 1.1-0.1 1.7 0l0.8-0.2c0.5 0.1 1 0.2 1.5 0.2-0.5-0.1-1.1-0.3-1.7-0.5 0.1-0.1 0.2-0.1 0.3-0.1 0.3 0 0.5 0.1 0.8 0.1-0.1-0.1-0.3-0.2-0.4-0.3z"></path><path fill="#a7a7af" d="m17.3 24.9c0 0.4 0 0.9-0.2 1.3 0 0-0.1-0.1 0-0.2 0.1-0.4 0.2-0.8 0.2-1.1z"></path><path fill="#292a3f" d="m14.5 21.1c0.6 1.6 1.2 3.2 1.7 4.8 0.1 0.1 0 0.2 0 0.2-0.2-0.1-0.3-0.3-0.4-0.5 0 0.1 0 0.2 0 0.4 0.4 0.5 0.7 1.1 1 1.7-0.5 0.5-0.7 0.4-0.6-0.3-0.1-0.1-0.2-0.3-0.4-0.5 0 0.2 0 0.4 0.1 0.6-0.3 0.1-0.6 0.2-0.8 0.4 0-0.1-0.1-0.1-0.2-0.1-0.1 0.2-0.2 0.3-0.3 0.5-0.2 0.1-0.4 0.2-0.6 0.4-0.1 0.1-0.2 0.1-0.4 0.1v0.2c-0.2 0.1-0.4 0.2-0.6 0.3-0.1 0.2-0.1 0.3-0.1 0.4-0.2 0.1-0.5 0.2-0.7 0.4-0.1-0.2-0.2-0.2-0.4 0.1 0.2 0 0.3 0 0.4 0 0 0.1 0 0.2 0 0.3-0.1-0.1-0.2-0.2-0.3-0.2-0.2 0.1-0.4 0.2-0.6 0.3-1.5-0.9-2.8-1.9-3.9-3.3 0.2 0 0.4 0 0.5-0.2 0.7 0.1 1.2-0.1 1.5-0.8 0.4-0.3 0.8-0.6 1.3-0.8 0-0.1 0.1-0.2 0.1-0.3h0.9v-0.8h0.5v-0.4h0.7c0.2-0.3 0.4-0.6 0.7-0.7 0 0 0.1 0.1 0.1 0.1 0.3 0 0.5-0.2 0.5-0.5 0.2 0.1 0.2 0.1 0.2 0 0.2-0.2 0.2-0.3 0-0.4 0.1-0.5 0.2-0.9 0.1-1.4z"></path><path fill="#32324a" d="m31.5 22.3c-0.5 1.4-1.1 2.7-2 3.9-2.7 3.7-6.3 5.7-10.8 6-0.4 0-0.8 0-1.2-0.1-0.4-0.2-0.8-0.3-1.3-0.3 0.3-0.1 0.2-0.2 0-0.2 0.2-0.3 0.3-0.3 0.3 0h0.7c0.1-0.4 0.1-0.9 0-1.4 1 0.3 1.5-0.1 1.6-1 0.1-0.1 0.3-0.2 0.4-0.4 0.3 0 0.6-0.1 0.9 0 0 0 0 0.1 0.1 0.2 0.1-0.2 0.3-0.3 0.5-0.5 0.1 0.1 0.2 0.1 0.1 0.3h0.8c-0.1-0.3-0.1-0.5 0-0.7-0.1 0-0.1-0.1-0.2-0.2-0.3 0.1-0.2 0.1 0.1-0.1 0.1-0.2 0.1-0.3 0.1-0.5h1.4c0-0.3 0-0.7 0.1-1 0.4-0.3 0.8-0.5 1.2-0.7 0.1-0.2 0.2-0.3 0.2-0.5l0.1 0.1c0.2-0.2 0.3-0.4 0.4-0.7 0.1 0.2 0.2 0.2 0.2-0.1 0.3 0 0.7 0 1 0 0.2-0.3 0.4-0.3 0.4 0h0.7c0-0.1 0-0.3 0.1-0.4 0-0.2 0.1-0.2 0.2-0.2-0.1-0.1-0.2-0.1-0.3-0.1v-0.7c0.9 0.3 1.5-0.1 1.5-1 0.2-0.1 0.4-0.2 0.5-0.4 0.3 0 0.6-0.1 0.9 0 0 0.2 0 0.4 0 0.6 0.3-0.2 0.4-0.4 0.4-0.6 0.3 0 0.6 0 0.9-0.1 0 0.2 0 0.5 0 0.8z"></path><path fill="#2b2c3f" d="m24.5 16.2c0.2 0 0.2 0.1 0.2 0.2l-6.7 9.6c0.1-2.2 0.3-4.4 0.6-6.6 2-1 4-2.1 5.9-3.2z"></path><path fill="#2f3045" d="m32 19.7c-0.1 0.5-0.2 1.1-0.4 1.6l0.1 0.1c-0.1 0.3-0.2 0.6-0.2 0.9 0-0.3 0-0.6 0-0.8-0.3 0.1-0.6 0.1-0.9 0.1 0 0.2-0.1 0.4-0.4 0.6 0-0.2 0-0.4 0-0.6-0.3-0.1-0.6 0-0.9 0-0.1 0.2-0.3 0.3-0.5 0.4 0 0.9-0.6 1.3-1.5 1v0.7c0.1 0 0.2 0 0.3 0.1-0.1 0-0.2 0-0.2 0.2-0.1 0.1-0.1 0.3-0.1 0.4h-0.7c0-0.3-0.2-0.3-0.4 0-0.3 0-0.7 0-1 0 0 0.3-0.1 0.3-0.2 0.1-0.1 0.3-0.2 0.5-0.4 0.7l-0.1-0.1c0 0.2-0.1 0.3-0.2 0.5-0.4 0.2-0.8 0.4-1.2 0.7-0.1 0.3-0.1 0.7-0.1 1h-1.4c0 0.2 0 0.3-0.1 0.5-0.3 0.2-0.4 0.2-0.1 0.1 0.1 0.1 0.1 0.2 0.2 0.2-0.1 0.2-0.1 0.4 0 0.7h-0.8c0.1-0.2 0-0.2-0.1-0.3-0.2 0.2-0.4 0.3-0.5 0.5-0.1-0.1-0.1-0.2-0.1-0.2-0.3-0.1-0.6 0-0.9 0-0.1 0.2-0.3 0.3-0.4 0.4-0.1 0.9-0.6 1.3-1.6 1 0.1 0.5 0.1 1 0 1.4h-0.7c0-0.3-0.1-0.3-0.3 0 0.2 0 0.3 0.1 0 0.2 0.5 0 0.9 0.1 1.3 0.3 0.4 0.1 0.8 0.1 1.2 0.1-0.2 0-0.5 0.1-0.7 0.1-2.4-0.1-4.6-0.7-6.7-1.7 0.2-0.1 0.4-0.2 0.6-0.3 0.1 0 0.2 0.1 0.2 0.2 0.1-0.1 0.1-0.2 0.1-0.3-0.1 0-0.2 0-0.4-0.1 0.2-0.2 0.3-0.2 0.4 0 0.2-0.2 0.5-0.3 0.7-0.4 0-0.1 0-0.2 0.1-0.4 0.2-0.1 0.4-0.2 0.6-0.3v-0.2c0.2 0 0.3 0 0.4-0.1 0.2-0.2 0.4-0.3 0.6-0.4 0.1-0.2 0.2-0.3 0.3-0.5 0.1 0 0.2 0 0.2 0.1 0.2-0.2 0.5-0.3 0.8-0.4-0.1-0.2-0.1-0.4-0.1-0.6 0.2 0.2 0.3 0.4 0.4 0.5-0.1 0.7 0.1 0.8 0.6 0.3-0.3-0.6-0.6-1.2-1-1.7 0-0.2 0-0.3 0-0.4 0.1 0.2 0.2 0.4 0.4 0.5 0 0 0.1-0.1 0-0.2 0.3 0.7 0.6 1.3 0.9 2 0.1 0.2 0.4 0.3 0.6 0.1 0.6-0.9 1.3-1.8 2-2.7-0.1 0.2-0.1 0.3 0 0.4-0.1 0.1-0.3 0.2-0.4 0.3 0.1 0.2 0.2 0.2 0.3 0 0.3 0.2 0.5 0.4 0.6 0.6-0.1 0.2-0.1 0.3 0 0.4 0.4-0.3 0.8-0.7 1.2-1.1 0.1 0 0.2 0 0.2 0.2 0.3-0.5 0.6-0.8 1.1-0.9 0-0.4 0-0.7 0.2-1l0.1 0.7c0.5-0.4 0.9-0.7 1.3-1.1 0.1-0.1 0.2 0 0.2 0.1 0.1-0.3 0.3-0.5 0.6-0.6 0 0 0.1 0.1 0.1 0.1 0.4-0.3 0.9-0.7 1.2-1.1 0.1 0 0.2 0 0.3 0.2 0.2-0.5 0.6-0.8 1.1-0.9-0.1-0.4 0-0.7 0.2-1l0.1 0.7c0.4-0.4 0.8-0.7 1.2-1.1 0.3-0.2 0.5-0.3 0.8-0.5 0.1-0.4 0.1-0.7 0.1-1h1.7c0 0.3 0 0.7 0.1 1z"></path><path fill="#f79737" d="m7.2 28.7c0 0 0 0.1 0 0.1 0 0.1 0 0.1 0 0.2 0 0.1 0.1 0.1 0.2 0 0.1 0.1 0.2 0.1 0.2 0.3-0.4 0.2-0.3 0.4 0.1 0.5 0-0.1 0-0.3 0-0.4 0.3 0.1 0.5 0.3 0.5 0.6-0.1-0.3-0.2-0.3-0.4 0 0.4 0.3 0.8 0.5 1.3 0.5l-0.1 0.1 0.8 0.5c-0.1 0.1-0.1 0.1-0.2 0.2-0.1-0.1-0.2-0.1-0.4-0.1v0.3c-0.2-0.1-0.3 0-0.3 0.1-0.3 0-0.4-0.1-0.6-0.3-0.3-0.4-0.7-0.7-1.1-0.9-0.4-0.3-0.8-0.7-1.2-1.2 0-0.1 0-0.2 0.1-0.3 0.2 0.1 0.4 0.3 0.5 0.5 0.1 0.1 0.2 0.1 0.4 0.1 0-0.2 0-0.3 0.1-0.5-0.7-0.1-0.7-0.2 0.1-0.3z"></path><path fill="#bf8649" d="m7.2 30.4c0.4 0.2 0.8 0.5 1.1 0.9-0.4-0.2-0.8-0.5-1.1-0.9z"></path><path fill="#f09d35" d="m7.2 28.8c0.9 0.8 1.9 1.5 2.9 2.2 1.3 0.7 2.6 1.2 4 1.6-0.3 0-0.5 0-0.7 0.2-0.3-0.1-0.6-0.2-0.9-0.3 0 0 0.1-0.1 0.1-0.1-0.3-0.2-0.5-0.3-0.8-0.5 0 0.2-0.2 0.3-0.3 0.3-0.4-0.1-0.7-0.2-1.1-0.3 0.1-0.1 0.1-0.2-0.1-0.2-0.1 0.1-0.2 0.1-0.3 0.2 0.4 0.2 0.7 0.4 1.1 0.5-0.2 0-0.4 0-0.6 0 0.2 0.1 0.3 0.2 0.3 0.4-0.7-0.3-1.4-0.6-1.9-1.2 0-0.1 0.1-0.2 0.3-0.1v-0.3c0.2 0 0.3 0 0.4 0.1 0.1-0.1 0.1-0.1 0.2-0.2l-0.8-0.5 0.1-0.1c-0.5 0-0.9-0.2-1.3-0.5 0.2-0.3 0.3-0.3 0.4 0 0-0.3-0.2-0.5-0.5-0.6 0 0.1 0 0.3 0 0.4-0.4-0.1-0.5-0.3-0.1-0.5 0-0.2-0.1-0.2-0.2-0.3-0.1 0.1-0.2 0.1-0.2 0 0-0.1 0-0.1 0-0.2z"></path><path fill="#845f27" d="m14.6 32.7c0.3 0 0.5 0 0.7 0.2-0.2 0-0.5 0-0.7-0.2z"></path><path fill="#312827" d="m14.4 32.6c0.7 0.1 1.4 0.2 2.1 0.3l1.4 0.1c0.9 0 1.8-0.1 2.7-0.2l-0.5 0.2c-1.3 0.1-2.6 0.1-3.9 0.1-0.2-0.2-0.5-0.2-0.9-0.2-0.2-0.2-0.4-0.2-0.7-0.2-0.1 0-0.2 0-0.2-0.1z"></path><path fill="#f2a730" d="m14.1 32.6h0.3c0 0.1 0.1 0.1 0.2 0.1 0.2 0.2 0.5 0.2 0.7 0.2 0.4 0 0.7 0 0.9 0.2-0.1 0-0.3 0-0.5-0.1-0.4 0.1-0.9 0.2-1.3 0.3v0.3c0.2 0 0.4 0 0.6 0.2-0.3-0.1-0.6 0-0.8 0.2-1.2-0.3-2.3-0.7-3.4-1.2 0-0.2-0.1-0.3-0.3-0.4 0.2 0 0.4 0 0.6 0-0.4-0.1-0.7-0.3-1.1-0.5 0.1-0.1 0.2-0.1 0.3-0.2 0.2 0 0.2 0.1 0.1 0.2 0.4 0.1 0.7 0.2 1.1 0.3 0.1 0 0.3-0.1 0.3-0.3 0.3 0.2 0.5 0.3 0.8 0.5 0 0-0.1 0.1-0.1 0.1 0.3 0.1 0.6 0.2 0.9 0.3 0.2-0.2 0.4-0.2 0.7-0.2z"></path><path fill="#352814" d="m24.4 33.1c0 0.1 0 0.1-0.1 0.2-0.1 0-0.3 0.1-0.4 0.2 0 0-0.1-0.1-0.2-0.1 0.2-0.1 0.5-0.3 0.7-0.3z"></path><path fill="#f1ae2d" d="m16.2 33.1c1.3 0 2.6 0 3.9-0.1-0.1 0.1-0.2 0.1-0.3 0.1 0.2 0.1 0.1 0.2-0.1 0.2-0.7 0-1.4 0.1-2 0.1 0.3 0.1 0.6 0.1 0.9 0.2-0.7 0-0.7 0.1 0.1 0.1-0.4 0.1-0.8 0.1-1.2 0.3 0 0-0.1-0.1-0.1-0.1-0.1 0.2-0.3 0.3-0.5 0.2-0.1 0-0.2 0-0.2 0.1 1.1 0 2.3 0.1 3.4 0l-1.2 0.2c-1.6 0.1-3.2 0-4.7-0.4 0.2-0.2 0.5-0.3 0.8-0.3-0.2-0.1-0.4-0.1-0.6-0.1v-0.3c0.4-0.1 0.9-0.2 1.3-0.3 0.2 0.1 0.4 0.1 0.5 0.1z"></path><path fill="#f5b925" d="m23 32.3c0.1 0.1 0.2 0.2 0.4 0.2-0.3 0.2-0.6 0.3-0.9 0.4l0 0 0.3 0.1-0.2 0.1c-0.3 0-0.7-0.1-1-0.2-0.1 0.1-0.2 0.1-0.3 0.1l0.3 0.1-0.1 0.1-0.8 0.1c0.3 0.2 0.6 0.3 1 0 0.1 0.1 0.2 0.2 0.3 0.4-0.1 0-0.3 0.1-0.4 0.3v0.1c-0.4 0-0.8 0-1.1 0.1h-0.4c-1.1 0.1-2.3 0-3.4 0 0-0.1 0.1-0.1 0.2-0.1 0.2 0.1 0.4 0 0.5-0.2 0 0 0.1 0.1 0.1 0.1 0.4-0.2 0.8-0.2 1.2-0.2-0.8-0.1-0.8-0.2-0.1-0.2-0.3-0.1-0.6-0.1-0.9-0.2 0.6 0 1.3-0.1 2-0.1 0.2 0 0.3-0.1 0.1-0.2 0.1 0 0.2 0 0.3-0.1l0.5-0.2c0.8-0.1 1.6-0.3 2.4-0.5z"></path><path fill="#463311" d="m22.2 33.9c-0.2 0.1-0.4 0.2-0.6 0.2v-0.1c0.2-0.1 0.4-0.1 0.6-0.1z"></path><path fill="#372617" d="m21.6 34.1c-0.4 0.1-0.7 0.2-1.1 0.1 0.3-0.1 0.7-0.1 1.1-0.1z"></path><path fill="#352410" d="m20.1 34.2h0.4c0 0.1-0.1 0.1-0.1 0.2-0.5 0-1 0-1.5 0l1.2-0.2z"></path></svg>