<?xml version="1.0" encoding="UTF-8"?>
<!DOCTYPE svg PUBLIC "-//W3C//DTD SVG 1.1//EN" "http://www.w3.org/Graphics/SVG/1.1/DTD/svg11.dtd">
<svg xmlns="http://www.w3.org/2000/svg" version="1.1" width="400px" height="400px" style="shape-rendering:geometricPrecision; text-rendering:geometricPrecision; image-rendering:optimizeQuality; fill-rule:evenodd; clip-rule:evenodd" xmlns:xlink="http://www.w3.org/1999/xlink">
<g><path style="opacity:1" fill="#fdfdfd" d="M -0.5,-0.5 C 132.833,-0.5 266.167,-0.5 399.5,-0.5C 399.5,132.833 399.5,266.167 399.5,399.5C 266.167,399.5 132.833,399.5 -0.5,399.5C -0.5,266.167 -0.5,132.833 -0.5,-0.5 Z"/></g>
<g><path style="opacity:1" fill="#676772" d="M 189.5,7.5 C 184.056,8.88364 178.389,9.55031 172.5,9.5C 177.944,8.11636 183.611,7.44969 189.5,7.5 Z"/></g>
<g><path style="opacity:1" fill="#1e1c2a" d="M 189.5,7.5 C 267.062,6.85253 326.228,39.1859 367,104.5C 398.991,165.754 399.658,227.421 369,289.5C 337.547,344.673 290.38,377.839 227.5,389C 139.955,397.628 74.1214,364.128 30,288.5C 5.17184,237.579 1.83851,185.246 20,131.5C 45.8407,69.3327 91.3407,29.4993 156.5,12C 161.846,11.1622 167.179,10.3289 172.5,9.5C 178.389,9.55031 184.056,8.88364 189.5,7.5 Z"/></g>
<g><path style="opacity:1" fill="#f96d4e" d="M 175.5,17.5 C 176.833,17.5 178.167,17.5 179.5,17.5C 194.17,17.3334 208.837,17.5001 223.5,18C 226.678,18.6595 229.678,19.4928 232.5,20.5C 213.691,23.2658 194.858,23.9324 176,22.5C 175.251,23.635 175.417,24.635 176.5,25.5C 189.057,25.7264 201.224,25.393 213,24.5C 216.459,25.1334 219.959,25.8 223.5,26.5C 216.565,27.8281 209.565,28.6615 202.5,29C 204.744,29.0496 206.411,29.8829 207.5,31.5C 196.813,31.3542 186.146,31.6875 175.5,32.5C 167.505,32.0003 159.505,31.5003 151.5,31C 147.454,29.5762 143.12,29.4095 138.5,30.5C 137.833,30.3333 137.167,30.1667 136.5,30C 137.756,29.5831 138.423,28.7498 138.5,27.5C 141.58,27.2523 144.58,26.5856 147.5,25.5C 148.554,25.6799 149.554,26.0133 150.5,26.5C 153.331,24.2906 156.331,22.624 159.5,21.5C 161.905,20.2318 164.572,19.5651 167.5,19.5C 170.428,19.4349 173.095,18.7682 175.5,17.5 Z"/></g>
<g><path style="opacity:1" fill="#d76458" d="M 159.5,21.5 C 156.331,22.624 153.331,24.2906 150.5,26.5C 149.554,26.0133 148.554,25.6799 147.5,25.5C 144.58,26.5856 141.58,27.2523 138.5,27.5C 145.039,24.2507 152.039,22.2507 159.5,21.5 Z"/></g>
<g><path style="opacity:1" fill="#f67748" d="M 232.5,20.5 C 236.894,20.8437 241.228,21.5103 245.5,22.5C 249.75,23.0157 253.75,24.349 257.5,26.5C 253.51,25.6155 250.677,26.9489 249,30.5C 248.667,30.1667 248.333,29.8333 248,29.5C 242.013,30.7313 242.18,31.5646 248.5,32C 245.833,32.3333 243.167,32.6667 240.5,33C 245.653,35.4245 250.653,37.9245 255.5,40.5C 250.811,39.4813 246.144,38.4813 241.5,37.5C 240.833,37.1667 240.167,36.8333 239.5,36.5C 229.159,33.5556 218.493,31.8889 207.5,31.5C 206.411,29.8829 204.744,29.0496 202.5,29C 209.565,28.6615 216.565,27.8281 223.5,26.5C 219.959,25.8 216.459,25.1334 213,24.5C 201.224,25.393 189.057,25.7264 176.5,25.5C 175.417,24.635 175.251,23.635 176,22.5C 194.858,23.9324 213.691,23.2658 232.5,20.5 Z"/></g>
<g><path style="opacity:1" fill="#6f3a2e" d="M 175.5,17.5 C 173.095,18.7682 170.428,19.4349 167.5,19.5C 169.838,17.9605 172.505,17.2938 175.5,17.5 Z"/></g>
<g><path style="opacity:1" fill="#4b2b2c" d="M 245.5,22.5 C 241.228,21.5103 236.894,20.8437 232.5,20.5C 229.678,19.4928 226.678,18.6595 223.5,18C 208.837,17.5001 194.17,17.3334 179.5,17.5C 199.34,16.5027 219.34,16.0027 239.5,16C 236.447,16.1786 233.447,16.6786 230.5,17.5C 235.075,19.4869 239.741,20.1536 244.5,19.5C 245.386,20.325 245.719,21.325 245.5,22.5 Z"/></g>
<g><path style="opacity:1" fill="#b96a4a" d="M 258.5,26.5 C 263.132,27.5961 267.466,29.2628 271.5,31.5C 266.632,30.9433 262.299,29.2766 258.5,26.5 Z"/></g>
<g><path style="opacity:1" fill="#f38143" d="M 257.5,26.5 C 257.833,26.5 258.167,26.5 258.5,26.5C 262.299,29.2766 266.632,30.9433 271.5,31.5C 284.412,36.9555 296.412,43.9555 307.5,52.5C 303.512,50.9763 299.512,49.8097 295.5,49C 293.65,51.0176 291.65,52.8509 289.5,54.5C 291.914,55.9108 293.581,57.9108 294.5,60.5C 288.719,56.7709 282.719,53.2709 276.5,50C 269.226,47.091 262.226,43.9243 255.5,40.5C 250.653,37.9245 245.653,35.4245 240.5,33C 243.167,32.6667 245.833,32.3333 248.5,32C 242.18,31.5646 242.013,30.7313 248,29.5C 248.333,29.8333 248.667,30.1667 249,30.5C 250.677,26.9489 253.51,25.6155 257.5,26.5 Z"/></g>
<g><path style="opacity:1" fill="#ba5a53" d="M 127.5,31.5 C 124.085,34.4317 120.085,36.4317 115.5,37.5C 118.962,34.4358 122.962,32.4358 127.5,31.5 Z"/></g>
<g><path style="opacity:1" fill="#1b1c2e" d="M 239.5,36.5 C 240.167,36.8333 240.833,37.1667 241.5,37.5C 242.574,38.8846 243.907,40.0513 245.5,41C 242.655,40.951 239.822,40.451 237,39.5C 235.596,39.5093 234.43,40.0093 233.5,41C 239.815,43.1602 246.149,45.1602 252.5,47C 247.043,46.4461 241.543,45.6127 236,44.5C 233,45.1667 230,45.8333 227,46.5C 220.494,45.3118 213.994,45.3118 207.5,46.5C 218.169,47.6793 228.836,47.6793 239.5,46.5C 239.33,47.8221 239.663,48.9887 240.5,50C 244.805,51.2682 249.138,52.4349 253.5,53.5C 254.713,53.7472 255.38,54.4138 255.5,55.5C 250.224,54.7952 244.891,54.7952 239.5,55.5C 239.5,56.5 239.5,57.5 239.5,58.5C 236.86,58.954 234.527,60.1207 232.5,62C 231.62,63.3561 231.286,64.8561 231.5,66.5C 228.511,67.2984 225.845,68.7984 223.5,71C 220.854,71.4974 218.187,71.6641 215.5,71.5C 215.5,74.1667 215.5,76.8333 215.5,79.5C 212.833,79.5 210.167,79.5 207.5,79.5C 207.5,80.5 207.5,81.5 207.5,82.5C 203.897,84.3013 200.231,86.1346 196.5,88C 195.636,89.6965 194.303,90.8632 192.5,91.5C 191.571,92.6888 191.238,94.0222 191.5,95.5C 188.833,95.5 186.167,95.5 183.5,95.5C 183.5,96.5 183.5,97.5 183.5,98.5C 180.86,98.954 178.527,100.121 176.5,102C 175.62,103.356 175.286,104.856 175.5,106.5C 172.685,107.126 170.185,108.46 168,110.5C 167,109.5 166,108.5 165,107.5C 165.333,109.167 165.667,110.833 166,112.5C 163.117,111.391 160.617,109.724 158.5,107.5C 156.709,109.413 154.709,111.08 152.5,112.5C 151.914,112.291 151.414,111.957 151,111.5C 147.878,113.98 144.878,113.98 142,111.5C 141.692,112.308 141.192,112.975 140.5,113.5C 138.398,113.521 136.232,113.187 134,112.5C 131.787,113.76 129.287,114.426 126.5,114.5C 123.713,114.426 121.213,113.76 119,112.5C 118.501,117.489 118.334,122.489 118.5,127.5C 116.167,127.5 113.833,127.5 111.5,127.5C 111.174,132.954 111.174,137.954 111.5,142.5C 113.727,143.191 116.394,143.524 119.5,143.5C 119.5,144.5 119.5,145.5 119.5,146.5C 116.511,147.298 113.845,148.798 111.5,151C 109.19,151.497 106.857,151.663 104.5,151.5C 104.223,154.448 104.556,157.281 105.5,160C 102.254,159.683 98.9205,159.517 95.5,159.5C 95.5,160.5 95.5,161.5 95.5,162.5C 92.6851,163.126 90.1851,164.46 88,166.5C 87.5065,168.134 87.3398,169.801 87.5,171.5C 84.8333,171.5 82.1667,171.5 79.5,171.5C 79.5,172.833 79.5,174.167 79.5,175.5C 76.8333,175.5 74.1667,175.5 71.5,175.5C 71.5,178.167 71.5,180.833 71.5,183.5C 68.8333,183.5 66.1667,183.5 63.5,183.5C 63.5,184.5 63.5,185.5 63.5,186.5C 59.8974,188.301 56.2308,190.135 52.5,192C 51.6364,193.697 50.3031,194.863 48.5,195.5C 47.7189,196.729 47.2189,198.062 47,199.5C 46.7508,198.376 46.2508,197.376 45.5,196.5C 44.8333,205.658 44.1666,214.658 43.5,223.5C 42.6981,222.048 42.1981,220.382 42,218.5C 41.832,209.482 41.332,200.482 40.5,191.5C 38.3863,188.846 37.7197,186.013 38.5,183C 37.2778,178.741 35.9445,174.574 34.5,170.5C 34.6087,165.29 35.6087,160.29 37.5,155.5C 38.7206,154.972 39.8873,154.305 41,153.5C 41.2895,151.048 41.9562,148.715 43,146.5C 43.4186,147.672 44.0853,148.672 45,149.5C 45.346,147.782 45.846,146.115 46.5,144.5C 49.4281,143.516 52.4281,143.183 55.5,143.5C 55.7239,141.213 56.3906,139.047 57.5,137C 56.9777,136.05 56.311,135.216 55.5,134.5C 56.2739,133.289 57.1072,133.289 58,134.5C 59.9224,131.585 61.7557,128.585 63.5,125.5C 63.3333,124.833 63.1667,124.167 63,123.5C 61.7892,127.462 59.7892,128.129 57,125.5C 55.6062,127.402 53.7729,127.735 51.5,126.5C 51.2148,124.712 51.5481,123.045 52.5,121.5C 53.3857,122.325 53.719,123.325 53.5,124.5C 56.692,123.486 59.192,121.486 61,118.5C 61.0006,115.313 61.8339,112.48 63.5,110C 62.7089,107.25 62.7089,104.417 63.5,101.5C 68.8403,94.1446 74.1737,86.8113 79.5,79.5C 82.078,78.5873 84.4113,77.254 86.5,75.5C 92.3267,72.8519 97.4934,69.1852 102,64.5C 103.507,65.5348 105.007,65.3681 106.5,64C 105.346,63.0862 105.513,62.2529 107,61.5C 109.86,63.3808 109.36,64.8808 105.5,66C 106.938,66.2189 108.271,66.7189 109.5,67.5C 105.618,71.0998 101.285,73.0998 96.5,73.5C 95.5481,75.0453 95.2148,76.712 95.5,78.5C 93.7741,78.1854 92.1075,78.0187 90.5,78C 90.1667,78.3333 89.8333,78.6667 89.5,79C 94.1169,80.297 97.9502,79.1303 101,75.5C 103.744,78.6229 107.244,79.9563 111.5,79.5C 111.5,78.5 111.5,77.5 111.5,76.5C 110.5,76.5 109.5,76.5 108.5,76.5C 108.275,74.2841 109.108,72.6174 111,71.5C 111.497,68.854 111.664,66.1873 111.5,63.5C 116.833,61.8333 122.167,60.1667 127.5,58.5C 127.439,60.5922 126.439,62.0922 124.5,63C 128.118,63.966 131.451,63.466 134.5,61.5C 142.632,63.4274 150.965,64.094 159.5,63.5C 159.5,60.1667 159.5,56.8333 159.5,53.5C 164.833,53.5 170.167,53.5 175.5,53.5C 175.5,51.1667 175.5,48.8333 175.5,46.5C 170.125,45.7584 164.791,44.7584 159.5,43.5C 164.257,42.5558 168.757,42.5558 173,43.5C 175.783,44.9283 178.616,46.2616 181.5,47.5C 183.961,46.3981 186.461,46.3981 189,47.5C 189.833,47.1667 190.667,46.8333 191.5,46.5C 188.553,45.6786 185.553,45.1786 182.5,45C 183.949,43.883 185.616,43.2163 187.5,43C 183.792,40.8682 179.792,40.0349 175.5,40.5C 175.5,39.1667 175.5,37.8333 175.5,36.5C 180.026,36.6649 184.359,36.8316 188.5,37C 187.833,37.3333 187.167,37.6667 186.5,38C 187.833,38.6667 189.167,39.3333 190.5,40C 189.833,40.3333 189.167,40.6667 188.5,41C 199.7,41.1987 210.867,41.6987 222,42.5C 222.5,42.1667 223,41.8333 223.5,41.5C 218.136,40.645 212.803,39.645 207.5,38.5C 214.3,37.546 220.967,37.546 227.5,38.5C 231.217,36.6561 235.217,35.9894 239.5,36.5 Z"/></g>
<g><path style="opacity:1" fill="#1c1b28" d="M 207.5,31.5 C 218.493,31.8889 229.159,33.5556 239.5,36.5C 235.217,35.9894 231.217,36.6561 227.5,38.5C 220.967,37.546 214.3,37.546 207.5,38.5C 212.803,39.645 218.136,40.645 223.5,41.5C 223,41.8333 222.5,42.1667 222,42.5C 210.867,41.6987 199.7,41.1987 188.5,41C 189.167,40.6667 189.833,40.3333 190.5,40C 189.167,39.3333 187.833,38.6667 186.5,38C 187.167,37.6667 187.833,37.3333 188.5,37C 184.359,36.8316 180.026,36.6649 175.5,36.5C 175.5,37.8333 175.5,39.1667 175.5,40.5C 179.792,40.0349 183.792,40.8682 187.5,43C 185.616,43.2163 183.949,43.883 182.5,45C 185.553,45.1786 188.553,45.6786 191.5,46.5C 190.667,46.8333 189.833,47.1667 189,47.5C 186.461,46.3981 183.961,46.3981 181.5,47.5C 178.616,46.2616 175.783,44.9283 173,43.5C 168.757,42.5558 164.257,42.5558 159.5,43.5C 164.791,44.7584 170.125,45.7584 175.5,46.5C 175.5,48.8333 175.5,51.1667 175.5,53.5C 170.167,53.5 164.833,53.5 159.5,53.5C 159.5,56.8333 159.5,60.1667 159.5,63.5C 150.965,64.094 142.632,63.4274 134.5,61.5C 131.451,63.466 128.118,63.966 124.5,63C 126.439,62.0922 127.439,60.5922 127.5,58.5C 122.167,60.1667 116.833,61.8333 111.5,63.5C 111.664,66.1873 111.497,68.854 111,71.5C 109.108,72.6174 108.275,74.2841 108.5,76.5C 109.5,76.5 110.5,76.5 111.5,76.5C 111.5,77.5 111.5,78.5 111.5,79.5C 107.244,79.9563 103.744,78.6229 101,75.5C 97.9502,79.1303 94.1169,80.297 89.5,79C 89.8333,78.6667 90.1667,78.3333 90.5,78C 92.1075,78.0187 93.7741,78.1854 95.5,78.5C 95.2148,76.712 95.5481,75.0453 96.5,73.5C 101.285,73.0998 105.618,71.0998 109.5,67.5C 108.271,66.7189 106.938,66.2189 105.5,66C 109.36,64.8808 109.86,63.3808 107,61.5C 105.513,62.2529 105.346,63.0862 106.5,64C 105.007,65.3681 103.507,65.5348 102,64.5C 97.4934,69.1852 92.3267,72.8519 86.5,75.5C 89.3325,71.8348 92.6659,68.6682 96.5,66C 106.921,58.9063 117.588,52.2397 128.5,46C 143.792,39.7645 159.459,35.2645 175.5,32.5C 186.146,31.6875 196.813,31.3542 207.5,31.5 Z"/></g>
<g><path style="opacity:1" fill="#f66554" d="M 138.5,27.5 C 138.423,28.7498 137.756,29.5831 136.5,30C 137.167,30.1667 137.833,30.3333 138.5,30.5C 143.12,29.4095 147.454,29.5762 151.5,31C 159.505,31.5003 167.505,32.0003 175.5,32.5C 159.459,35.2645 143.792,39.7645 128.5,46C 117.588,52.2397 106.921,58.9063 96.5,66C 92.6659,68.6682 89.3325,71.8348 86.5,75.5C 84.4113,77.254 82.078,78.5873 79.5,79.5C 74.1737,86.8113 68.8403,94.1446 63.5,101.5C 50.6072,117.291 41.9405,135.291 37.5,155.5C 35.6087,160.29 34.6087,165.29 34.5,170.5C 33.8333,172.167 33.1667,173.833 32.5,175.5C 32.2527,163.699 30.9194,152.032 28.5,140.5C 26.1339,146.943 23.8005,153.276 21.5,159.5C 26.0829,136.686 34.7496,115.686 47.5,96.5C 51.8032,91.1912 56.1366,85.8579 60.5,80.5C 61.325,79.6143 62.325,79.281 63.5,79.5C 63.6079,77.2166 64.4412,75.2166 66,73.5C 69.4954,70.8377 72.6621,67.8377 75.5,64.5C 76.6888,63.5713 78.0222,63.238 79.5,63.5C 79.679,61.3944 80.679,59.7277 82.5,58.5C 92.6501,50.2201 103.65,43.2201 115.5,37.5C 120.085,36.4317 124.085,34.4317 127.5,31.5C 130.8,29.3582 134.467,28.0249 138.5,27.5 Z"/></g>
<g><path style="opacity:1" fill="#f88f3a" d="M 307.5,52.5 C 312.799,55.4774 317.466,59.144 321.5,63.5C 321.586,64.4959 321.252,65.3292 320.5,66C 322.861,66.1968 324.528,67.3635 325.5,69.5C 322.809,69.5633 321.976,71.2299 323,74.5C 325.574,77.2594 327.74,76.926 329.5,73.5C 330.833,74.1667 331.833,75.1667 332.5,76.5C 329.894,78.1822 329.227,80.3489 330.5,83C 329.356,86.2472 328.356,86.0805 327.5,82.5C 325.844,84.7347 323.844,85.068 321.5,83.5C 319.896,82.713 319.229,81.3797 319.5,79.5C 318.448,79.6495 317.448,79.4828 316.5,79C 312.176,74.8353 307.843,70.6687 303.5,66.5C 303.5,65.5 303.5,64.5 303.5,63.5C 300.644,62.1721 297.644,61.1721 294.5,60.5C 293.581,57.9108 291.914,55.9108 289.5,54.5C 291.65,52.8509 293.65,51.0176 295.5,49C 299.512,49.8097 303.512,50.9763 307.5,52.5 Z"/></g>
<g><path style="opacity:1" fill="#cd8052" d="M 294.5,60.5 C 297.644,61.1721 300.644,62.1721 303.5,63.5C 303.5,64.5 303.5,65.5 303.5,66.5C 299.975,65.2411 296.975,63.2411 294.5,60.5 Z"/></g>
<g><path style="opacity:1" fill="#232437" d="M 296.5,79.5 C 303.693,82.6889 309.36,87.6889 313.5,94.5C 316.086,95.48 318.753,95.8134 321.5,95.5C 321.145,97.8897 320.478,100.223 319.5,102.5C 319.714,106.144 320.881,106.477 323,103.5C 324.691,106.847 326.358,110.181 328,113.5C 332.99,117.159 335.49,121.825 335.5,127.5C 333.439,129.381 331.106,131.047 328.5,132.5C 327.614,133.325 327.281,134.325 327.5,135.5C 323.584,136.213 319.918,137.713 316.5,140C 314.498,142.06 312.998,144.227 312,146.5C 311.751,145.376 311.251,144.376 310.5,143.5C 308.909,145.633 306.909,147.299 304.5,148.5C 303.614,149.325 303.281,150.325 303.5,151.5C 301.833,151.5 300.167,151.5 298.5,151.5C 298.5,154.167 298.5,156.833 298.5,159.5C 297.5,159.5 296.5,159.5 295.5,159.5C 295.66,157.801 295.494,156.134 295,154.5C 292.876,155.622 291.043,157.122 289.5,159C 289.833,159.333 290.167,159.667 290.5,160C 289.328,160.353 288.162,160.187 287,159.5C 285.902,160.384 285.402,161.384 285.5,162.5C 284.583,161.873 283.583,161.539 282.5,161.5C 275.557,157.021 268.557,152.521 261.5,148C 242.531,143.008 223.531,138.174 204.5,133.5C 204.5,132.833 204.5,132.167 204.5,131.5C 205.473,132.791 206.473,132.791 207.5,131.5C 208.848,133.461 210.181,133.628 211.5,132C 215.541,131.827 219.541,131.327 223.5,130.5C 220.215,129.676 216.882,129.176 213.5,129C 218.145,123.191 224.145,119.691 231.5,118.5C 233.657,116.588 235.991,114.921 238.5,113.5C 240.205,115.555 241.872,115.222 243.5,112.5C 242.167,111.833 240.833,111.167 239.5,110.5C 243.051,107.258 247.051,104.925 251.5,103.5C 251.5,100.833 251.5,98.1667 251.5,95.5C 255.5,95.5 259.5,95.5 263.5,95.5C 263.5,94.1667 263.5,92.8333 263.5,91.5C 266.167,91.5 268.833,91.5 271.5,91.5C 271.201,89.396 271.534,87.396 272.5,85.5C 277.138,81.6898 282.138,78.6898 287.5,76.5C 287.351,75.448 287.517,74.448 288,73.5C 291.291,74.9746 294.125,76.9746 296.5,79.5 Z"/></g>
<g><path style="opacity:1" fill="#bc8346" d="M 338.5,81.5 C 342.628,84.2901 345.628,87.9568 347.5,92.5C 344.129,89.1294 341.129,85.4627 338.5,81.5 Z"/></g>
<g><path style="opacity:1" fill="#f59938" d="M 321.5,63.5 C 327.314,67.9712 331.981,73.3045 335.5,79.5C 337.179,79.2852 338.179,79.9519 338.5,81.5C 341.129,85.4627 344.129,89.1294 347.5,92.5C 348.164,95.6779 349.664,98.3446 352,100.5C 352.333,102.167 352.667,103.833 353,105.5C 354.147,104.542 355.147,104.875 356,106.5C 356.834,109.172 357.668,111.839 358.5,114.5C 358.03,115.463 357.363,115.463 356.5,114.5C 355.699,112.958 355.366,111.292 355.5,109.5C 354.5,109.5 353.5,109.5 352.5,109.5C 352.629,106.271 351.462,104.605 349,104.5C 348,105.833 347,107.167 346,108.5C 345.059,106.939 343.892,105.605 342.5,104.5C 342.167,104.833 341.833,105.167 341.5,105.5C 342.747,107.323 343.414,109.323 343.5,111.5C 336.671,101.882 329.338,92.5482 321.5,83.5C 323.844,85.068 325.844,84.7347 327.5,82.5C 328.356,86.0805 329.356,86.2472 330.5,83C 329.227,80.3489 329.894,78.1822 332.5,76.5C 331.833,75.1667 330.833,74.1667 329.5,73.5C 327.74,76.926 325.574,77.2594 323,74.5C 321.976,71.2299 322.809,69.5633 325.5,69.5C 324.528,67.3635 322.861,66.1968 320.5,66C 321.252,65.3292 321.586,64.4959 321.5,63.5 Z"/></g>
<g><path style="opacity:1" fill="#d59338" d="M 347.5,92.5 C 354.042,100.386 359.376,109.052 363.5,118.5C 362.141,117.993 361.141,116.993 360.5,115.5C 358.484,118.163 357.151,117.83 356.5,114.5C 357.363,115.463 358.03,115.463 358.5,114.5C 357.668,111.839 356.834,109.172 356,106.5C 355.147,104.875 354.147,104.542 353,105.5C 352.667,103.833 352.333,102.167 352,100.5C 349.664,98.3446 348.164,95.6779 347.5,92.5 Z"/></g>
<g><path style="opacity:1" fill="#f3f3f5" d="M 174.5,126.5 C 184.358,128.819 194.358,131.152 204.5,133.5C 223.531,138.174 242.531,143.008 261.5,148C 268.557,152.521 275.557,157.021 282.5,161.5C 285.171,164.161 288.171,166.494 291.5,168.5C 292.641,170.421 292.808,172.421 292,174.5C 266.863,209.79 242.363,245.457 218.5,281.5C 210.837,291.177 203.503,301.177 196.5,311.5C 193.917,312.938 191.583,312.604 189.5,310.5C 186.333,302.769 183.333,295.102 180.5,287.5C 174.62,269.629 168.286,251.962 161.5,234.5C 153.294,209.777 144.294,185.444 134.5,161.5C 130.596,148.345 126.096,135.345 121,122.5C 120.104,119.975 120.604,117.808 122.5,116C 126.888,115.423 131.221,115.756 135.5,117C 148.463,120.324 161.463,123.491 174.5,126.5 Z"/></g>
<g><path style="opacity:1" fill="#f3a331" d="M 356.5,114.5 C 357.151,117.83 358.484,118.163 360.5,115.5C 361.141,116.993 362.141,117.993 363.5,118.5C 366.657,122.957 368.657,127.957 369.5,133.5C 369.5,135.5 369.5,137.5 369.5,139.5C 368.5,139.5 367.5,139.5 366.5,139.5C 367.221,142.817 367.388,146.151 367,149.5C 366.71,147.956 366.044,146.623 365,145.5C 364.358,148.277 363.524,150.944 362.5,153.5C 362.667,154.5 362.833,155.5 363,156.5C 363.471,154.754 364.138,153.087 365,151.5C 365.654,150.304 366.154,150.304 366.5,151.5C 365.648,155.131 364.981,158.798 364.5,162.5C 364.167,162.5 363.833,162.5 363.5,162.5C 359.153,144.436 352.486,127.436 343.5,111.5C 343.414,109.323 342.747,107.323 341.5,105.5C 341.833,105.167 342.167,104.833 342.5,104.5C 343.892,105.605 345.059,106.939 346,108.5C 347,107.167 348,105.833 349,104.5C 351.462,104.605 352.629,106.271 352.5,109.5C 353.5,109.5 354.5,109.5 355.5,109.5C 355.366,111.292 355.699,112.958 356.5,114.5 Z"/></g>
<g><path style="opacity:1" fill="#1d1b27" d="M 63.5,101.5 C 62.7089,104.417 62.7089,107.25 63.5,110C 61.8339,112.48 61.0006,115.313 61,118.5C 59.192,121.486 56.692,123.486 53.5,124.5C 53.719,123.325 53.3857,122.325 52.5,121.5C 51.5481,123.045 51.2148,124.712 51.5,126.5C 53.7729,127.735 55.6062,127.402 57,125.5C 59.7892,128.129 61.7892,127.462 63,123.5C 63.1667,124.167 63.3333,124.833 63.5,125.5C 61.7557,128.585 59.9224,131.585 58,134.5C 57.1072,133.289 56.2739,133.289 55.5,134.5C 56.311,135.216 56.9777,136.05 57.5,137C 56.3906,139.047 55.7239,141.213 55.5,143.5C 52.4281,143.183 49.4281,143.516 46.5,144.5C 45.846,146.115 45.346,147.782 45,149.5C 44.0853,148.672 43.4186,147.672 43,146.5C 41.9562,148.715 41.2895,151.048 41,153.5C 39.8873,154.305 38.7206,154.972 37.5,155.5C 41.9405,135.291 50.6072,117.291 63.5,101.5 Z"/></g>
<g><path style="opacity:1" fill="#1f2032" d="M 255.5,55.5 C 267.266,60.8311 278.932,66.6644 290.5,73C 293.409,74.4055 295.409,76.5722 296.5,79.5C 294.125,76.9746 291.291,74.9746 288,73.5C 287.517,74.448 287.351,75.448 287.5,76.5C 282.138,78.6898 277.138,81.6898 272.5,85.5C 271.534,87.396 271.201,89.396 271.5,91.5C 268.833,91.5 266.167,91.5 263.5,91.5C 263.5,92.8333 263.5,94.1667 263.5,95.5C 259.5,95.5 255.5,95.5 251.5,95.5C 251.5,98.1667 251.5,100.833 251.5,103.5C 247.051,104.925 243.051,107.258 239.5,110.5C 240.833,111.167 242.167,111.833 243.5,112.5C 241.872,115.222 240.205,115.555 238.5,113.5C 235.991,114.921 233.657,116.588 231.5,118.5C 224.145,119.691 218.145,123.191 213.5,129C 216.882,129.176 220.215,129.676 223.5,130.5C 219.541,131.327 215.541,131.827 211.5,132C 210.181,133.628 208.848,133.461 207.5,131.5C 206.473,132.791 205.473,132.791 204.5,131.5C 201.437,128.108 197.937,125.108 194,122.5C 191.152,124.257 188.486,126.257 186,128.5C 182.362,126.815 178.529,126.149 174.5,126.5C 161.463,123.491 148.463,120.324 135.5,117C 131.221,115.756 126.888,115.423 122.5,116C 120.604,117.808 120.104,119.975 121,122.5C 126.096,135.345 130.596,148.345 134.5,161.5C 133.215,163.953 133.215,166.453 134.5,169C 132.06,171.661 131.06,174.828 131.5,178.5C 131.667,180.5 131.833,182.5 132,184.5C 132.5,185 133,185.5 133.5,186C 131.842,187.663 129.842,188.496 127.5,188.5C 127.5,189.5 127.5,190.5 127.5,191.5C 138.146,191.671 138.146,192.171 127.5,193C 124.659,194.586 121.993,196.42 119.5,198.5C 111.41,200.105 105.077,204.272 100.5,211C 97.7997,213.225 94.7997,214.725 91.5,215.5C 91.5,218.167 91.5,220.833 91.5,223.5C 87.4454,223.176 83.4454,223.509 79.5,224.5C 74.1667,229.167 68.8333,233.833 63.5,238.5C 60.5719,239.484 57.5719,239.817 54.5,239.5C 53.7704,244.019 53.437,248.519 53.5,253C 55.3141,260.276 57.3141,267.442 59.5,274.5C 60.8333,274.5 62.1667,274.5 63.5,274.5C 63.3398,276.199 63.5065,277.866 64,279.5C 65.8445,282.528 67.6778,285.528 69.5,288.5C 65.8932,288.379 63.7266,290.045 63,293.5C 62.5983,292.128 62.0983,290.795 61.5,289.5C 62.1667,289.167 62.8333,288.833 63.5,288.5C 62.7542,287.264 62.4208,285.93 62.5,284.5C 61.5,284.5 60.5,284.5 59.5,284.5C 58.5127,280.719 56.846,277.219 54.5,274C 58.2364,272.493 58.2364,271.66 54.5,271.5C 54.748,265.956 54.0813,260.623 52.5,255.5C 50.712,255.785 49.0453,255.452 47.5,254.5C 45.3437,250.113 44.0103,245.447 43.5,240.5C 44.325,239.614 45.325,239.281 46.5,239.5C 46.6621,237.473 46.4955,235.473 46,233.5C 45.3333,232.167 44.6667,232.167 44,233.5C 43.3623,232.391 42.8623,231.225 42.5,230C 43.2865,227.901 43.6199,225.734 43.5,223.5C 44.1666,214.658 44.8333,205.658 45.5,196.5C 46.2508,197.376 46.7508,198.376 47,199.5C 47.2189,198.062 47.7189,196.729 48.5,195.5C 50.3031,194.863 51.6364,193.697 52.5,192C 56.2308,190.135 59.8974,188.301 63.5,186.5C 63.5,185.5 63.5,184.5 63.5,183.5C 66.1667,183.5 68.8333,183.5 71.5,183.5C 71.5,180.833 71.5,178.167 71.5,175.5C 74.1667,175.5 76.8333,175.5 79.5,175.5C 79.5,174.167 79.5,172.833 79.5,171.5C 82.1667,171.5 84.8333,171.5 87.5,171.5C 87.3398,169.801 87.5065,168.134 88,166.5C 90.1851,164.46 92.6851,163.126 95.5,162.5C 95.5,161.5 95.5,160.5 95.5,159.5C 98.9205,159.517 102.254,159.683 105.5,160C 104.556,157.281 104.223,154.448 104.5,151.5C 106.857,151.663 109.19,151.497 111.5,151C 113.845,148.798 116.511,147.298 119.5,146.5C 119.5,145.5 119.5,144.5 119.5,143.5C 116.394,143.524 113.727,143.191 111.5,142.5C 111.174,137.954 111.174,132.954 111.5,127.5C 113.833,127.5 116.167,127.5 118.5,127.5C 118.334,122.489 118.501,117.489 119,112.5C 121.213,113.76 123.713,114.426 126.5,114.5C 129.287,114.426 131.787,113.76 134,112.5C 136.232,113.187 138.398,113.521 140.5,113.5C 141.192,112.975 141.692,112.308 142,111.5C 144.878,113.98 147.878,113.98 151,111.5C 151.414,111.957 151.914,112.291 152.5,112.5C 154.709,111.08 156.709,109.413 158.5,107.5C 160.617,109.724 163.117,111.391 166,112.5C 165.667,110.833 165.333,109.167 165,107.5C 166,108.5 167,109.5 168,110.5C 170.185,108.46 172.685,107.126 175.5,106.5C 175.286,104.856 175.62,103.356 176.5,102C 178.527,100.121 180.86,98.954 183.5,98.5C 183.5,97.5 183.5,96.5 183.5,95.5C 186.167,95.5 188.833,95.5 191.5,95.5C 191.238,94.0222 191.571,92.6888 192.5,91.5C 194.303,90.8632 195.636,89.6965 196.5,88C 200.231,86.1346 203.897,84.3013 207.5,82.5C 207.5,81.5 207.5,80.5 207.5,79.5C 210.167,79.5 212.833,79.5 215.5,79.5C 215.5,76.8333 215.5,74.1667 215.5,71.5C 218.187,71.6641 220.854,71.4974 223.5,71C 225.845,68.7984 228.511,67.2984 231.5,66.5C 231.286,64.8561 231.62,63.3561 232.5,62C 234.527,60.1207 236.86,58.954 239.5,58.5C 239.5,57.5 239.5,56.5 239.5,55.5C 244.891,54.7952 250.224,54.7952 255.5,55.5 Z"/></g>
<g><path style="opacity:1" fill="#35354b" d="M 204.5,131.5 C 204.5,132.167 204.5,132.833 204.5,133.5C 194.358,131.152 184.358,128.819 174.5,126.5C 178.529,126.149 182.362,126.815 186,128.5C 188.486,126.257 191.152,124.257 194,122.5C 197.937,125.108 201.437,128.108 204.5,131.5 Z"/></g>
<g><path style="opacity:1" fill="#232436" d="M 140.5,129.5 C 177.005,137.709 213.338,146.709 249.5,156.5C 234.853,173.447 219.519,189.781 203.5,205.5C 182.484,180.153 161.484,154.82 140.5,129.5 Z"/></g>
<g><path style="opacity:1" fill="#fa6c4d" d="M 32.5,175.5 C 31.1667,191.5 31.1667,207.5 32.5,223.5C 31.8826,223.611 31.3826,223.944 31,224.5C 30.8299,218.804 30.3299,213.138 29.5,207.5C 28.5052,212.792 28.1718,218.125 28.5,223.5C 27.5,223.5 26.5,223.5 25.5,223.5C 24.4502,216.159 24.4502,208.826 25.5,201.5C 25.4931,198.408 24.9931,195.408 24,192.5C 23.2233,200.153 22.7233,207.819 22.5,215.5C 21.71,214.391 21.21,213.058 21,211.5C 20.6667,213.167 20.3333,214.833 20,216.5C 19.6667,216.167 19.3333,215.833 19,215.5C 18.3333,204.167 18.3333,192.833 19,181.5C 19.3333,181.167 19.6667,180.833 20,180.5C 20.9717,184.232 21.4717,183.899 21.5,179.5C 20.6377,172.851 20.6377,166.185 21.5,159.5C 23.8005,153.276 26.1339,146.943 28.5,140.5C 30.9194,152.032 32.2527,163.699 32.5,175.5 Z"/></g>
<g><path style="opacity:1" fill="#eeab2f" d="M 369.5,133.5 C 370.957,135.242 372.124,137.242 373,139.5C 375.514,149.558 378.014,159.558 380.5,169.5C 380.69,174.37 381.356,179.036 382.5,183.5C 382.5,192.5 382.5,201.5 382.5,210.5C 381.833,214.833 381.167,219.167 380.5,223.5C 380.5,223.167 380.5,222.833 380.5,222.5C 380.667,209.829 380.5,197.162 380,184.5C 379.125,185.873 378.625,187.373 378.5,189C 379.426,192.139 379.592,195.306 379,198.5C 378.613,195.336 377.446,192.502 375.5,190C 375.951,184.233 376.951,178.566 378.5,173C 378.32,170.759 377.487,170.259 376,171.5C 375.02,169.941 374.187,168.274 373.5,166.5C 371.124,169.931 370.457,173.598 371.5,177.5C 370.728,185.472 370.228,193.472 370,201.5C 369.667,197.167 369.333,192.833 369,188.5C 368.828,195.013 368.328,201.347 367.5,207.5C 367.5,200.5 367.5,193.5 367.5,186.5C 366.239,178.53 365.239,170.53 364.5,162.5C 364.981,158.798 365.648,155.131 366.5,151.5C 366.154,150.304 365.654,150.304 365,151.5C 364.138,153.087 363.471,154.754 363,156.5C 362.833,155.5 362.667,154.5 362.5,153.5C 363.524,150.944 364.358,148.277 365,145.5C 366.044,146.623 366.71,147.956 367,149.5C 367.388,146.151 367.221,142.817 366.5,139.5C 367.5,139.5 368.5,139.5 369.5,139.5C 369.5,137.5 369.5,135.5 369.5,133.5 Z"/></g>
<g><path style="opacity:1" fill="#2a2a3c" d="M 257.5,159.5 C 258.873,159.343 260.207,159.51 261.5,160C 266.332,163.339 270.999,166.839 275.5,170.5C 257.271,180.611 238.938,190.111 220.5,199C 233.094,185.911 245.428,172.745 257.5,159.5 Z"/></g>
<g><path style="opacity:1" fill="#3a2a18" d="M 363.5,162.5 C 363.833,162.5 364.167,162.5 364.5,162.5C 365.239,170.53 366.239,178.53 367.5,186.5C 364.787,178.863 363.454,170.863 363.5,162.5 Z"/></g>
<g><path style="opacity:1" fill="#33210c" d="M 380.5,169.5 C 381.268,170.263 381.768,171.263 382,172.5C 382.499,176.152 382.665,179.818 382.5,183.5C 381.356,179.036 380.69,174.37 380.5,169.5 Z"/></g>
<g><path style="opacity:1" fill="#2c2d42" d="M 335.5,127.5 C 338.05,127.561 339.55,128.894 340,131.5C 345.648,144.451 350.481,157.618 354.5,171C 354.589,172.716 354.256,174.549 353.5,176.5C 355.397,184.014 356.397,191.681 356.5,199.5C 355.985,205.827 355.652,212.16 355.5,218.5C 354.518,215.038 354.185,211.371 354.5,207.5C 348.167,207.5 341.833,207.5 335.5,207.5C 335.823,211.226 335.489,214.893 334.5,218.5C 331.586,220.603 328.586,222.437 325.5,224C 321.471,228.608 316.971,232.774 312,236.5C 311.667,233.833 311.333,231.167 311,228.5C 308.723,231.699 307.89,235.365 308.5,239.5C 302.939,241.068 298.939,244.402 296.5,249.5C 295.742,248.189 294.742,247.689 293.5,248C 289.471,252.608 284.971,256.774 280,260.5C 279.692,259.692 279.192,259.025 278.5,258.5C 275.059,259.607 273.059,261.94 272.5,265.5C 271.742,264.189 270.742,263.689 269.5,264C 265.471,268.608 260.971,272.774 256,276.5C 255.667,273.833 255.333,271.167 255,268.5C 252.723,271.699 251.89,275.365 252.5,279.5C 246.939,281.068 242.939,284.402 240.5,289.5C 239.742,288.189 238.742,287.689 237.5,288C 233.471,292.608 228.971,296.774 224,300.5C 223.28,298.888 223.446,297.388 224.5,296C 222.78,293.197 220.614,290.697 218,288.5C 216.684,291.028 215.517,291.028 214.5,288.5C 215.908,287.757 217.241,286.923 218.5,286C 217.587,284.586 217.587,283.086 218.5,281.5C 242.363,245.457 266.863,209.79 292,174.5C 292.808,172.421 292.641,170.421 291.5,168.5C 288.171,166.494 285.171,164.161 282.5,161.5C 283.583,161.539 284.583,161.873 285.5,162.5C 285.402,161.384 285.902,160.384 287,159.5C 288.162,160.187 289.328,160.353 290.5,160C 290.167,159.667 289.833,159.333 289.5,159C 291.043,157.122 292.876,155.622 295,154.5C 295.494,156.134 295.66,157.801 295.5,159.5C 296.5,159.5 297.5,159.5 298.5,159.5C 298.5,156.833 298.5,154.167 298.5,151.5C 300.167,151.5 301.833,151.5 303.5,151.5C 303.281,150.325 303.614,149.325 304.5,148.5C 306.909,147.299 308.909,145.633 310.5,143.5C 311.251,144.376 311.751,145.376 312,146.5C 312.998,144.227 314.498,142.06 316.5,140C 319.918,137.713 323.584,136.213 327.5,135.5C 327.281,134.325 327.614,133.325 328.5,132.5C 331.106,131.047 333.439,129.381 335.5,127.5 Z"/></g>
<g><path style="opacity:1" fill="#d66c51" d="M 21.5,159.5 C 20.6377,166.185 20.6377,172.851 21.5,179.5C 21.4717,183.899 20.9717,184.232 20,180.5C 19.6667,180.833 19.3333,181.167 19,181.5C 18.3333,192.833 18.3333,204.167 19,215.5C 19.3333,215.833 19.6667,216.167 20,216.5C 20.3333,214.833 20.6667,213.167 21,211.5C 21.21,213.058 21.71,214.391 22.5,215.5C 21.2307,222.113 20.7307,228.78 21,235.5C 23.5961,242.667 25.4295,250 26.5,257.5C 24.6166,252.924 22.7833,248.258 21,243.5C 16.9647,222.336 15.6314,201.003 17,179.5C 17.8552,172.562 19.3552,165.895 21.5,159.5 Z"/></g>
<g><path style="opacity:1" fill="#222337" d="M 134.5,161.5 C 144.294,185.444 153.294,209.777 161.5,234.5C 161.936,239.66 161.269,244.827 159.5,250C 161.957,251.154 161.957,252.488 159.5,254C 160.34,255.666 159.84,255.833 158,254.5C 157.274,257.46 155.44,259.46 152.5,260.5C 151.808,259.975 151.308,259.308 151,258.5C 147.55,260.444 145.05,263.111 143.5,266.5C 140.833,266.5 138.167,266.5 135.5,266.5C 135.5,268.167 135.5,269.833 135.5,271.5C 133.833,271.5 132.167,271.5 130.5,271.5C 130.5,274.167 130.5,276.833 130.5,279.5C 126.833,279.5 123.167,279.5 119.5,279.5C 119.67,280.822 119.337,281.989 118.5,283C 113.662,285.918 108.996,289.085 104.5,292.5C 100.991,299.483 95.3245,302.316 87.5,301C 86.3826,302.892 84.7159,303.725 82.5,303.5C 77.0458,299.386 72.7125,294.386 69.5,288.5C 67.6778,285.528 65.8445,282.528 64,279.5C 63.5065,277.866 63.3398,276.199 63.5,274.5C 62.1667,274.5 60.8333,274.5 59.5,274.5C 57.3141,267.442 55.3141,260.276 53.5,253C 53.437,248.519 53.7704,244.019 54.5,239.5C 57.5719,239.817 60.5719,239.484 63.5,238.5C 68.8333,233.833 74.1667,229.167 79.5,224.5C 83.4454,223.509 87.4454,223.176 91.5,223.5C 91.5,220.833 91.5,218.167 91.5,215.5C 94.7997,214.725 97.7997,213.225 100.5,211C 105.077,204.272 111.41,200.105 119.5,198.5C 121.993,196.42 124.659,194.586 127.5,193C 138.146,192.171 138.146,191.671 127.5,191.5C 127.5,190.5 127.5,189.5 127.5,188.5C 129.842,188.496 131.842,187.663 133.5,186C 133,185.5 132.5,185 132,184.5C 131.833,182.5 131.667,180.5 131.5,178.5C 131.06,174.828 132.06,171.661 134.5,169C 133.215,166.453 133.215,163.953 134.5,161.5 Z"/></g>
<g><path style="opacity:1" fill="#26273a" d="M 192.5,276.5 C 191.684,280.539 190.684,284.539 189.5,288.5C 171.319,237.736 153.152,187.07 135,136.5C 156,161.5 177,186.5 198,211.5C 196.174,233.138 194.34,254.805 192.5,276.5 Z"/></g>
<g><path style="opacity:1" fill="#f67b46" d="M 32.5,223.5 C 36.0501,242.998 42.3834,261.664 51.5,279.5C 50.5,279.5 49.5,279.5 48.5,279.5C 48.2865,281.144 48.6198,282.644 49.5,284C 47.5801,285.416 45.9135,284.916 44.5,282.5C 45.4839,280.52 46.8173,278.853 48.5,277.5C 47.4825,276.148 46.1492,275.148 44.5,274.5C 45.6808,272.802 45.6808,271.135 44.5,269.5C 43.549,268.674 42.549,268.508 41.5,269C 42.3802,270.356 42.7135,271.856 42.5,273.5C 41.1779,273.33 40.0113,273.663 39,274.5C 37.7475,277.014 37.2475,279.68 37.5,282.5C 39.1238,282.64 40.2904,281.973 41,280.5C 42.1297,282.933 43.2964,285.266 44.5,287.5C 43.325,287.281 42.325,287.614 41.5,288.5C 42.2458,289.736 42.5792,291.07 42.5,292.5C 35.3367,281.829 30.0034,270.162 26.5,257.5C 25.4295,250 23.5961,242.667 21,235.5C 20.7307,228.78 21.2307,222.113 22.5,215.5C 22.7233,207.819 23.2233,200.153 24,192.5C 24.9931,195.408 25.4931,198.408 25.5,201.5C 24.4502,208.826 24.4502,216.159 25.5,223.5C 26.5,223.5 27.5,223.5 28.5,223.5C 28.1718,218.125 28.5052,212.792 29.5,207.5C 30.3299,213.138 30.8299,218.804 31,224.5C 31.3826,223.944 31.8826,223.611 32.5,223.5 Z"/></g>
<g><path style="opacity:1" fill="#f4b727" d="M 380.5,222.5 C 379.683,220.031 379.183,217.365 379,214.5C 377.961,216.746 376.794,218.913 375.5,221C 376.308,222.706 377.641,223.539 379.5,223.5C 378.236,230.316 376.403,236.983 374,243.5C 373.13,242.892 372.63,242.059 372.5,241C 373.493,238.547 373.66,236.047 373,233.5C 372.29,232.027 371.124,231.36 369.5,231.5C 370.855,234.453 370.522,237.119 368.5,239.5C 367.719,238.271 367.219,236.938 367,235.5C 366.213,239.179 365.379,242.846 364.5,246.5C 363.808,245.975 363.308,245.308 363,244.5C 363.153,248.487 363.32,252.32 363.5,256C 361.033,259.437 359.533,263.27 359,267.5C 357.513,268.741 356.68,268.241 356.5,266C 357.973,262.664 358.64,259.164 358.5,255.5C 363.538,239.974 366.538,223.974 367.5,207.5C 368.328,201.347 368.828,195.013 369,188.5C 369.333,192.833 369.667,197.167 370,201.5C 370.228,193.472 370.728,185.472 371.5,177.5C 370.457,173.598 371.124,169.931 373.5,166.5C 374.187,168.274 375.02,169.941 376,171.5C 377.487,170.259 378.32,170.759 378.5,173C 376.951,178.566 375.951,184.233 375.5,190C 377.446,192.502 378.613,195.336 379,198.5C 379.592,195.306 379.426,192.139 378.5,189C 378.625,187.373 379.125,185.873 380,184.5C 380.5,197.162 380.667,209.829 380.5,222.5 Z"/></g>
<g><path style="opacity:1" fill="#322417" d="M 382.5,210.5 C 382.298,217.694 382.631,224.86 383.5,232C 383.333,233.167 383.167,234.333 383,235.5C 382.808,233.423 382.308,231.423 381.5,229.5C 381.104,233.263 380.104,236.597 378.5,239.5C 379.073,234.153 379.74,228.82 380.5,223.5C 381.167,219.167 381.833,214.833 382.5,210.5 Z"/></g>
<g><path style="opacity:1" fill="#4c3712" d="M 378.5,239.5 C 378.59,242.152 377.924,244.485 376.5,246.5C 376.41,243.848 377.076,241.515 378.5,239.5 Z"/></g>
<g><path style="opacity:1" fill="#f78a3e" d="M 51.5,279.5 C 53.7664,283.034 55.7664,286.7 57.5,290.5C 57.7756,294.628 59.6089,297.962 63,300.5C 63.3333,301.833 63.6667,303.167 64,304.5C 64.6708,303.748 65.5041,303.414 66.5,303.5C 71.2294,308.224 75.5627,313.224 79.5,318.5C 71.2288,319.687 70.8954,321.02 78.5,322.5C 77.6906,324.071 77.3573,325.738 77.5,327.5C 76.0695,327.579 74.7362,327.246 73.5,326.5C 72.1413,324.308 70.3079,322.641 68,321.5C 66.9614,322.244 66.4614,323.244 66.5,324.5C 57.0333,314.884 49.0333,304.218 42.5,292.5C 42.5792,291.07 42.2458,289.736 41.5,288.5C 42.325,287.614 43.325,287.281 44.5,287.5C 43.2964,285.266 42.1297,282.933 41,280.5C 40.2904,281.973 39.1238,282.64 37.5,282.5C 37.2475,279.68 37.7475,277.014 39,274.5C 40.0113,273.663 41.1779,273.33 42.5,273.5C 42.7135,271.856 42.3802,270.356 41.5,269C 42.549,268.508 43.549,268.674 44.5,269.5C 45.6808,271.135 45.6808,272.802 44.5,274.5C 46.1492,275.148 47.4825,276.148 48.5,277.5C 46.8173,278.853 45.4839,280.52 44.5,282.5C 45.9135,284.916 47.5801,285.416 49.5,284C 48.6198,282.644 48.2865,281.144 48.5,279.5C 49.5,279.5 50.5,279.5 51.5,279.5 Z"/></g>
<g><path style="opacity:1" fill="#d47f49" d="M 57.5,290.5 C 61.6625,294.001 64.6625,298.335 66.5,303.5C 65.5041,303.414 64.6708,303.748 64,304.5C 63.6667,303.167 63.3333,301.833 63,300.5C 59.6089,297.962 57.7756,294.628 57.5,290.5 Z"/></g>
<g><path style="opacity:1" fill="#f1c023" d="M 380.5,222.5 C 380.5,222.833 380.5,223.167 380.5,223.5C 379.74,228.82 379.073,234.153 378.5,239.5C 377.076,241.515 376.41,243.848 376.5,246.5C 369.116,273.267 356.449,297.267 338.5,318.5C 337.675,319.386 336.675,319.719 335.5,319.5C 335.649,320.552 335.483,321.552 335,322.5C 330.833,326.667 326.667,330.833 322.5,335C 321.552,335.483 320.552,335.649 319.5,335.5C 319.719,336.675 319.386,337.675 318.5,338.5C 304.243,350.461 288.576,360.128 271.5,367.5C 268.515,368.326 265.849,369.659 263.5,371.5C 257.92,373.313 252.253,374.98 246.5,376.5C 244.139,376.674 241.806,377.007 239.5,377.5C 241.125,375.666 242.792,374.499 244.5,374C 243.465,372.726 242.298,371.56 241,370.5C 237.222,372.9 233.388,372.733 229.5,370C 232.5,369.667 235.5,369.333 238.5,369C 238.833,368.667 239.167,368.333 239.5,368C 238.5,367.667 237.5,367.333 236.5,367C 237.766,366.691 238.933,366.191 240,365.5C 243.816,366.665 247.65,367.499 251.5,368C 252.167,367.667 252.833,367.333 253.5,367C 252.167,366.667 250.833,366.333 249.5,366C 249.833,365.667 250.167,365.333 250.5,365C 253.798,364.513 256.798,363.347 259.5,361.5C 257.668,360.943 256.335,359.943 255.5,358.5C 261.159,355.382 267.159,352.882 273.5,351C 313.939,329.964 342.273,298.13 358.5,255.5C 358.64,259.164 357.973,262.664 356.5,266C 356.68,268.241 357.513,268.741 359,267.5C 359.533,263.27 361.033,259.437 363.5,256C 363.32,252.32 363.153,248.487 363,244.5C 363.308,245.308 363.808,245.975 364.5,246.5C 365.379,242.846 366.213,239.179 367,235.5C 367.219,236.938 367.719,238.271 368.5,239.5C 370.522,237.119 370.855,234.453 369.5,231.5C 371.124,231.36 372.29,232.027 373,233.5C 373.66,236.047 373.493,238.547 372.5,241C 372.63,242.059 373.13,242.892 374,243.5C 376.403,236.983 378.236,230.316 379.5,223.5C 377.641,223.539 376.308,222.706 375.5,221C 376.794,218.913 377.961,216.746 379,214.5C 379.183,217.365 379.683,220.031 380.5,222.5 Z"/></g>
<g><path style="opacity:1" fill="#1c1b29" d="M 241.5,37.5 C 246.144,38.4813 250.811,39.4813 255.5,40.5C 262.226,43.9243 269.226,47.091 276.5,50C 282.719,53.2709 288.719,56.7709 294.5,60.5C 296.975,63.2411 299.975,65.2411 303.5,66.5C 307.843,70.6687 312.176,74.8353 316.5,79C 317.448,79.4828 318.448,79.6495 319.5,79.5C 319.229,81.3797 319.896,82.713 321.5,83.5C 329.338,92.5482 336.671,101.882 343.5,111.5C 352.486,127.436 359.153,144.436 363.5,162.5C 363.454,170.863 364.787,178.863 367.5,186.5C 367.5,193.5 367.5,200.5 367.5,207.5C 366.538,223.974 363.538,239.974 358.5,255.5C 342.273,298.13 313.939,329.964 273.5,351C 267.159,352.882 261.159,355.382 255.5,358.5C 246.584,360.98 237.584,362.98 228.5,364.5C 218.566,365.813 208.566,366.479 198.5,366.5C 193.5,366.333 188.5,366.167 183.5,366C 175.512,364.493 167.512,363.326 159.5,362.5C 158.5,362.5 157.5,362.5 156.5,362.5C 141.167,357.998 126.501,351.831 112.5,344C 101.084,336.743 90.4176,328.577 80.5,319.5C 79.8333,319.5 79.5,319.167 79.5,318.5C 75.5627,313.224 71.2294,308.224 66.5,303.5C 64.6625,298.335 61.6625,294.001 57.5,290.5C 55.7664,286.7 53.7664,283.034 51.5,279.5C 42.3834,261.664 36.0501,242.998 32.5,223.5C 31.1667,207.5 31.1667,191.5 32.5,175.5C 33.1667,173.833 33.8333,172.167 34.5,170.5C 35.9445,174.574 37.2778,178.741 38.5,183C 37.7197,186.013 38.3863,188.846 40.5,191.5C 41.332,200.482 41.832,209.482 42,218.5C 42.1981,220.382 42.6981,222.048 43.5,223.5C 43.6199,225.734 43.2865,227.901 42.5,230C 42.8623,231.225 43.3623,232.391 44,233.5C 44.6667,232.167 45.3333,232.167 46,233.5C 46.4955,235.473 46.6621,237.473 46.5,239.5C 45.325,239.281 44.325,239.614 43.5,240.5C 44.0103,245.447 45.3437,250.113 47.5,254.5C 49.0453,255.452 50.712,255.785 52.5,255.5C 54.0813,260.623 54.748,265.956 54.5,271.5C 58.2364,271.66 58.2364,272.493 54.5,274C 56.846,277.219 58.5127,280.719 59.5,284.5C 60.5,284.5 61.5,284.5 62.5,284.5C 62.4208,285.93 62.7542,287.264 63.5,288.5C 62.8333,288.833 62.1667,289.167 61.5,289.5C 62.0983,290.795 62.5983,292.128 63,293.5C 63.7266,290.045 65.8932,288.379 69.5,288.5C 72.7125,294.386 77.0458,299.386 82.5,303.5C 94.2458,318.547 108.579,330.547 125.5,339.5C 148.614,351.485 173.28,357.818 199.5,358.5C 202.355,358.497 205.022,358.164 207.5,357.5C 258.097,354.126 298.263,332.126 328,291.5C 337.394,277.755 344.561,263.089 349.5,247.5C 350.428,244.411 351.428,241.245 352.5,238C 352.167,237.667 351.833,237.333 351.5,237C 352.995,230.864 354.328,224.698 355.5,218.5C 355.652,212.16 355.985,205.827 356.5,199.5C 356.397,191.681 355.397,184.014 353.5,176.5C 354.256,174.549 354.589,172.716 354.5,171C 350.481,157.618 345.648,144.451 340,131.5C 339.55,128.894 338.05,127.561 335.5,127.5C 335.49,121.825 332.99,117.159 328,113.5C 326.358,110.181 324.691,106.847 323,103.5C 320.881,106.477 319.714,106.144 319.5,102.5C 320.478,100.223 321.145,97.8897 321.5,95.5C 318.753,95.8134 316.086,95.48 313.5,94.5C 309.36,87.6889 303.693,82.6889 296.5,79.5C 295.409,76.5722 293.409,74.4055 290.5,73C 278.932,66.6644 267.266,60.8311 255.5,55.5C 255.38,54.4138 254.713,53.7472 253.5,53.5C 249.138,52.4349 244.805,51.2682 240.5,50C 239.663,48.9887 239.33,47.8221 239.5,46.5C 228.836,47.6793 218.169,47.6793 207.5,46.5C 213.994,45.3118 220.494,45.3118 227,46.5C 230,45.8333 233,45.1667 236,44.5C 241.543,45.6127 247.043,46.4461 252.5,47C 246.149,45.1602 239.815,43.1602 233.5,41C 234.43,40.0093 235.596,39.5093 237,39.5C 239.822,40.451 242.655,40.951 245.5,41C 243.907,40.0513 242.574,38.8846 241.5,37.5 Z"/></g>
<g><path style="opacity:1" fill="#a7a7af" d="M 192.5,276.5 C 192.571,281.6 191.904,286.6 190.5,291.5C 189.614,290.675 189.281,289.675 189.5,288.5C 190.684,284.539 191.684,280.539 192.5,276.5 Z"/></g>
<g><path style="opacity:1" fill="#292a3f" d="M 161.5,234.5 C 168.286,251.962 174.62,269.629 180.5,287.5C 180.719,288.675 180.386,289.675 179.5,290.5C 177.703,288.869 176.536,286.869 176,284.5C 175.333,285.833 175.333,287.167 176,288.5C 179.721,294.889 183.221,301.389 186.5,308C 181.015,313.259 179.015,312.259 180.5,305C 178.877,302.92 177.377,300.754 176,298.5C 175.231,301.099 175.398,303.599 176.5,306C 173.213,306.616 170.379,308.116 168,310.5C 167.577,309.044 166.744,308.544 165.5,309C 164.642,310.788 163.642,312.622 162.5,314.5C 159.827,315.501 157.493,317.001 155.5,319C 154.207,319.49 152.873,319.657 151.5,319.5C 151.5,320.5 151.5,321.5 151.5,322.5C 148.86,322.954 146.527,324.121 144.5,326C 143.62,327.356 143.286,328.856 143.5,330.5C 140.685,331.126 138.185,332.46 136,334.5C 134.529,332.098 133.029,332.264 131.5,335C 132.793,335.49 134.127,335.657 135.5,335.5C 135.649,336.552 135.483,337.552 135,338.5C 134.261,337.426 133.261,336.759 132,336.5C 129.852,337.73 127.686,338.73 125.5,339.5C 108.579,330.547 94.2458,318.547 82.5,303.5C 84.7159,303.725 86.3826,302.892 87.5,301C 95.3245,302.316 100.991,299.483 104.5,292.5C 108.996,289.085 113.662,285.918 118.5,283C 119.337,281.989 119.67,280.822 119.5,279.5C 123.167,279.5 126.833,279.5 130.5,279.5C 130.5,276.833 130.5,274.167 130.5,271.5C 132.167,271.5 133.833,271.5 135.5,271.5C 135.5,269.833 135.5,268.167 135.5,266.5C 138.167,266.5 140.833,266.5 143.5,266.5C 145.05,263.111 147.55,260.444 151,258.5C 151.308,259.308 151.808,259.975 152.5,260.5C 155.44,259.46 157.274,257.46 158,254.5C 159.84,255.833 160.34,255.666 159.5,254C 161.957,252.488 161.957,251.154 159.5,250C 161.269,244.827 161.936,239.66 161.5,234.5 Z"/></g>
<g><path style="opacity:1" fill="#32324a" d="M 349.5,247.5 C 344.561,263.089 337.394,277.755 328,291.5C 298.263,332.126 258.097,354.126 207.5,357.5C 203.154,357.666 198.821,357.499 194.5,357C 190.377,354.12 185.71,352.786 180.5,353C 182.878,352.026 182.544,351.359 179.5,351C 181.693,347.676 183.026,347.843 183.5,351.5C 186.167,351.5 188.833,351.5 191.5,351.5C 191.822,346.273 191.822,340.939 191.5,335.5C 201.789,338.501 207.456,334.835 208.5,324.5C 210.389,323.396 212.055,322.063 213.5,320.5C 216.768,319.513 220.102,319.18 223.5,319.5C 223.351,320.552 223.517,321.552 224,322.5C 225.99,320.344 228.157,318.344 230.5,316.5C 231.386,317.325 231.719,318.325 231.5,319.5C 234.167,319.5 236.833,319.5 239.5,319.5C 239.162,316.989 239.162,314.655 239.5,312.5C 239.192,311.692 238.692,311.025 238,310.5C 234.969,311.226 235.136,310.559 238.5,308.5C 239.452,306.955 239.785,305.288 239.5,303.5C 244.833,303.5 250.167,303.5 255.5,303.5C 255.177,299.774 255.511,296.107 256.5,292.5C 260.745,289.086 265.412,286.419 270.5,284.5C 271.308,282.577 271.808,280.577 272,278.5C 272.333,278.833 272.667,279.167 273,279.5C 275.315,277.818 276.982,275.485 278,272.5C 279.087,274.932 279.587,274.598 279.5,271.5C 283.514,271.666 287.514,271.499 291.5,271C 293.693,267.676 295.026,267.843 295.5,271.5C 298.167,271.5 300.833,271.5 303.5,271.5C 303.34,269.801 303.506,268.134 304,266.5C 304.448,264.776 305.282,264.109 306.5,264.5C 305.675,263.614 304.675,263.281 303.5,263.5C 303.5,260.833 303.5,258.167 303.5,255.5C 313.789,258.501 319.456,254.835 320.5,244.5C 322.389,243.396 324.055,242.063 325.5,240.5C 328.768,239.513 332.102,239.18 335.5,239.5C 335.337,241.857 335.503,244.19 336,246.5C 338.755,244.99 339.921,242.657 339.5,239.5C 343.106,239.789 346.606,239.456 350,238.5C 349.71,241.413 349.543,244.413 349.5,247.5 Z"/></g>
<g><path style="opacity:1" fill="#2b2c3f" d="M 272.5,180.5 C 274.028,180.517 274.528,181.184 274,182.5C 249.333,217.833 224.667,253.167 200,288.5C 201.361,264.097 203.694,239.764 207,215.5C 229.133,204.186 250.967,192.52 272.5,180.5 Z"/></g>
<g><path style="opacity:1" fill="#2f3045" d="M 355.5,218.5 C 354.328,224.698 352.995,230.864 351.5,237C 351.833,237.333 352.167,237.667 352.5,238C 351.428,241.245 350.428,244.411 349.5,247.5C 349.543,244.413 349.71,241.413 350,238.5C 346.606,239.456 343.106,239.789 339.5,239.5C 339.921,242.657 338.755,244.99 336,246.5C 335.503,244.19 335.337,241.857 335.5,239.5C 332.102,239.18 328.768,239.513 325.5,240.5C 324.055,242.063 322.389,243.396 320.5,244.5C 319.456,254.835 313.789,258.501 303.5,255.5C 303.5,258.167 303.5,260.833 303.5,263.5C 304.675,263.281 305.675,263.614 306.5,264.5C 305.282,264.109 304.448,264.776 304,266.5C 303.506,268.134 303.34,269.801 303.5,271.5C 300.833,271.5 298.167,271.5 295.5,271.5C 295.026,267.843 293.693,267.676 291.5,271C 287.514,271.499 283.514,271.666 279.5,271.5C 279.587,274.598 279.087,274.932 278,272.5C 276.982,275.485 275.315,277.818 273,279.5C 272.667,279.167 272.333,278.833 272,278.5C 271.808,280.577 271.308,282.577 270.5,284.5C 265.412,286.419 260.745,289.086 256.5,292.5C 255.511,296.107 255.177,299.774 255.5,303.5C 250.167,303.5 244.833,303.5 239.5,303.5C 239.785,305.288 239.452,306.955 238.5,308.5C 235.136,310.559 234.969,311.226 238,310.5C 238.692,311.025 239.192,311.692 239.5,312.5C 239.162,314.655 239.162,316.989 239.5,319.5C 236.833,319.5 234.167,319.5 231.5,319.5C 231.719,318.325 231.386,317.325 230.5,316.5C 228.157,318.344 225.99,320.344 224,322.5C 223.517,321.552 223.351,320.552 223.5,319.5C 220.102,319.18 216.768,319.513 213.5,320.5C 212.055,322.063 210.389,323.396 208.5,324.5C 207.456,334.835 201.789,338.501 191.5,335.5C 191.822,340.939 191.822,346.273 191.5,351.5C 188.833,351.5 186.167,351.5 183.5,351.5C 183.026,347.843 181.693,347.676 179.5,351C 182.544,351.359 182.878,352.026 180.5,353C 185.71,352.786 190.377,354.12 194.5,357C 198.821,357.499 203.154,357.666 207.5,357.5C 205.022,358.164 202.355,358.497 199.5,358.5C 173.28,357.818 148.614,351.485 125.5,339.5C 127.686,338.73 129.852,337.73 132,336.5C 133.261,336.759 134.261,337.426 135,338.5C 135.483,337.552 135.649,336.552 135.5,335.5C 134.127,335.657 132.793,335.49 131.5,335C 133.029,332.264 134.529,332.098 136,334.5C 138.185,332.46 140.685,331.126 143.5,330.5C 143.286,328.856 143.62,327.356 144.5,326C 146.527,324.121 148.86,322.954 151.5,322.5C 151.5,321.5 151.5,320.5 151.5,319.5C 152.873,319.657 154.207,319.49 155.5,319C 157.493,317.001 159.827,315.501 162.5,314.5C 163.642,312.622 164.642,310.788 165.5,309C 166.744,308.544 167.577,309.044 168,310.5C 170.379,308.116 173.213,306.616 176.5,306C 175.398,303.599 175.231,301.099 176,298.5C 177.377,300.754 178.877,302.92 180.5,305C 179.015,312.259 181.015,313.259 186.5,308C 183.221,301.389 179.721,294.889 176,288.5C 175.333,287.167 175.333,285.833 176,284.5C 176.536,286.869 177.703,288.869 179.5,290.5C 180.386,289.675 180.719,288.675 180.5,287.5C 183.333,295.102 186.333,302.769 189.5,310.5C 191.583,312.604 193.917,312.938 196.5,311.5C 203.503,301.177 210.837,291.177 218.5,281.5C 217.587,283.086 217.587,284.586 218.5,286C 217.241,286.923 215.908,287.757 214.5,288.5C 215.517,291.028 216.684,291.028 218,288.5C 220.614,290.697 222.78,293.197 224.5,296C 223.446,297.388 223.28,298.888 224,300.5C 228.971,296.774 233.471,292.608 237.5,288C 238.742,287.689 239.742,288.189 240.5,289.5C 242.939,284.402 246.939,281.068 252.5,279.5C 251.89,275.365 252.723,271.699 255,268.5C 255.333,271.167 255.667,273.833 256,276.5C 260.971,272.774 265.471,268.608 269.5,264C 270.742,263.689 271.742,264.189 272.5,265.5C 273.059,261.94 275.059,259.607 278.5,258.5C 279.192,259.025 279.692,259.692 280,260.5C 284.971,256.774 289.471,252.608 293.5,248C 294.742,247.689 295.742,248.189 296.5,249.5C 298.939,244.402 302.939,241.068 308.5,239.5C 307.89,235.365 308.723,231.699 311,228.5C 311.333,231.167 311.667,233.833 312,236.5C 316.971,232.774 321.471,228.608 325.5,224C 328.586,222.437 331.586,220.603 334.5,218.5C 335.489,214.893 335.823,211.226 335.5,207.5C 341.833,207.5 348.167,207.5 354.5,207.5C 354.185,211.371 354.518,215.038 355.5,218.5 Z"/></g>
<g><path style="opacity:1" fill="#f79737" d="M 79.5,318.5 C 79.5,319.167 79.8333,319.5 80.5,319.5C 80.4606,320.583 80.1272,321.583 79.5,322.5C 80.3914,323.59 81.3914,323.59 82.5,322.5C 83.7199,322.887 84.3865,323.72 84.5,325C 80.2995,327.783 80.6329,329.95 85.5,331.5C 85.8797,329.979 86.0464,328.313 86,326.5C 89.3597,327.827 91.0264,330.16 91,333.5C 89.8902,329.721 88.3902,329.554 86.5,333C 90.8476,337.215 95.8476,339.215 101.5,339C 101.167,339.333 100.833,339.667 100.5,340C 103.167,342 105.833,344 108.5,346C 107.975,346.692 107.308,347.192 106.5,347.5C 105.264,346.754 103.93,346.421 102.5,346.5C 102.5,347.5 102.5,348.5 102.5,349.5C 100.517,349.157 99.1834,349.824 98.5,351.5C 95.9641,350.963 93.9641,349.63 92.5,347.5C 88.7977,343.797 84.7977,340.463 80.5,337.5C 75.2387,333.909 70.572,329.576 66.5,324.5C 66.4614,323.244 66.9614,322.244 68,321.5C 70.3079,322.641 72.1413,324.308 73.5,326.5C 74.7362,327.246 76.0695,327.579 77.5,327.5C 77.3573,325.738 77.6906,324.071 78.5,322.5C 70.8954,321.02 71.2288,319.687 79.5,318.5 Z"/></g>
<g><path style="opacity:1" fill="#bf8649" d="M 80.5,337.5 C 84.7977,340.463 88.7977,343.797 92.5,347.5C 87.6187,345.291 83.6187,341.957 80.5,337.5 Z"/></g>
<g><path style="opacity:1" fill="#f09d35" d="M 80.5,319.5 C 90.4176,328.577 101.084,336.743 112.5,344C 126.501,351.831 141.167,357.998 156.5,362.5C 153.635,362.055 151.135,362.722 149,364.5C 145.358,363.707 141.858,362.54 138.5,361C 139.308,360.692 139.975,360.192 140.5,359.5C 137.187,357.998 134.02,356.331 131,354.5C 130.592,356.41 129.425,357.41 127.5,357.5C 123.599,356.177 119.599,355.177 115.5,354.5C 116.894,353.313 116.727,352.646 115,352.5C 113.605,352.78 112.438,353.447 111.5,354.5C 115.213,357.069 119.213,358.902 123.5,360C 121.005,360.157 118.672,360.324 116.5,360.5C 118.375,361.409 119.708,362.743 120.5,364.5C 112.224,361.643 104.891,357.31 98.5,351.5C 99.1834,349.824 100.517,349.157 102.5,349.5C 102.5,348.5 102.5,347.5 102.5,346.5C 103.93,346.421 105.264,346.754 106.5,347.5C 107.308,347.192 107.975,346.692 108.5,346C 105.833,344 103.167,342 100.5,340C 100.833,339.667 101.167,339.333 101.5,339C 95.8476,339.215 90.8476,337.215 86.5,333C 88.3902,329.554 89.8902,329.721 91,333.5C 91.0264,330.16 89.3597,327.827 86,326.5C 86.0464,328.313 85.8797,329.979 85.5,331.5C 80.6329,329.95 80.2995,327.783 84.5,325C 84.3865,323.72 83.7199,322.887 82.5,322.5C 81.3914,323.59 80.3914,323.59 79.5,322.5C 80.1272,321.583 80.4606,320.583 80.5,319.5 Z"/></g>
<g><path style="opacity:1" fill="#845f27" d="M 162.5,363.5 C 165.553,363.111 168.22,363.777 170.5,365.5C 167.505,365.706 164.838,365.04 162.5,363.5 Z"/></g>
<g><path style="opacity:1" fill="#312827" d="M 159.5,362.5 C 167.512,363.326 175.512,364.493 183.5,366C 188.5,366.167 193.5,366.333 198.5,366.5C 208.566,366.479 218.566,365.813 228.5,364.5C 226.833,365.167 225.167,365.833 223.5,366.5C 209.192,367.412 194.858,367.745 180.5,367.5C 177.493,365.825 174.16,365.159 170.5,365.5C 168.22,363.777 165.553,363.111 162.5,363.5C 161.209,363.737 160.209,363.404 159.5,362.5 Z"/></g>
<g><path style="opacity:1" fill="#f2a730" d="M 156.5,362.5 C 157.5,362.5 158.5,362.5 159.5,362.5C 160.209,363.404 161.209,363.737 162.5,363.5C 164.838,365.04 167.505,365.706 170.5,365.5C 174.16,365.159 177.493,365.825 180.5,367.5C 178.409,367.682 176.409,367.348 174.5,366.5C 169.522,367.662 164.522,368.662 159.5,369.5C 159.5,370.833 159.5,372.167 159.5,373.5C 161.989,373.298 164.323,373.798 166.5,375C 163.008,374.93 160.008,375.763 157.5,377.5C 144.612,374.539 132.279,370.205 120.5,364.5C 119.708,362.743 118.375,361.409 116.5,360.5C 118.672,360.324 121.005,360.157 123.5,360C 119.213,358.902 115.213,357.069 111.5,354.5C 112.438,353.447 113.605,352.78 115,352.5C 116.727,352.646 116.894,353.313 115.5,354.5C 119.599,355.177 123.599,356.177 127.5,357.5C 129.425,357.41 130.592,356.41 131,354.5C 134.02,356.331 137.187,357.998 140.5,359.5C 139.975,360.192 139.308,360.692 138.5,361C 141.858,362.54 145.358,363.707 149,364.5C 151.135,362.722 153.635,362.055 156.5,362.5 Z"/></g>
<g><path style="opacity:1" fill="#352814" d="M 271.5,367.5 C 271.586,368.496 271.252,369.329 270.5,370C 268.598,370.199 267.098,371.033 266,372.5C 265.329,371.748 264.496,371.414 263.5,371.5C 265.849,369.659 268.515,368.326 271.5,367.5 Z"/></g>
<g><path style="opacity:1" fill="#f1ae2d" d="M 180.5,367.5 C 194.858,367.745 209.192,367.412 223.5,366.5C 222.391,367.29 221.058,367.79 219.5,368C 221.935,369.003 221.602,369.503 218.5,369.5C 211.187,370.227 203.853,370.727 196.5,371C 199.477,371.84 202.811,372.507 206.5,373C 198.833,373.813 199.166,374.479 207.5,375C 202.978,375.049 198.644,375.882 194.5,377.5C 193.914,377.291 193.414,376.957 193,376.5C 191.801,379.207 189.967,379.874 187.5,378.5C 186.692,378.808 186.025,379.308 185.5,380C 198.162,380.5 210.829,380.667 223.5,380.5C 219.167,381.167 214.833,381.833 210.5,382.5C 192.539,383.607 174.873,381.94 157.5,377.5C 160.008,375.763 163.008,374.93 166.5,375C 164.323,373.798 161.989,373.298 159.5,373.5C 159.5,372.167 159.5,370.833 159.5,369.5C 164.522,368.662 169.522,367.662 174.5,366.5C 176.409,367.348 178.409,367.682 180.5,367.5 Z"/></g>
<g><path style="opacity:1" fill="#f5b925" d="M 255.5,358.5 C 256.335,359.943 257.668,360.943 259.5,361.5C 256.798,363.347 253.798,364.513 250.5,365C 250.167,365.333 249.833,365.667 249.5,366C 250.833,366.333 252.167,366.667 253.5,367C 252.833,367.333 252.167,367.667 251.5,368C 247.65,367.499 243.816,366.665 240,365.5C 238.933,366.191 237.766,366.691 236.5,367C 237.5,367.333 238.5,367.667 239.5,368C 239.167,368.333 238.833,368.667 238.5,369C 235.5,369.333 232.5,369.667 229.5,370C 233.388,372.733 237.222,372.9 241,370.5C 242.298,371.56 243.465,372.726 244.5,374C 242.792,374.499 241.125,375.666 239.5,377.5C 239.5,377.833 239.5,378.167 239.5,378.5C 235.267,378.539 231.267,379.205 227.5,380.5C 226.167,380.5 224.833,380.5 223.5,380.5C 210.829,380.667 198.162,380.5 185.5,380C 186.025,379.308 186.692,378.808 187.5,378.5C 189.967,379.874 191.801,379.207 193,376.5C 193.414,376.957 193.914,377.291 194.5,377.5C 198.644,375.882 202.978,375.049 207.5,375C 199.166,374.479 198.833,373.813 206.5,373C 202.811,372.507 199.477,371.84 196.5,371C 203.853,370.727 211.187,370.227 218.5,369.5C 221.602,369.503 221.935,369.003 219.5,368C 221.058,367.79 222.391,367.29 223.5,366.5C 225.167,365.833 226.833,365.167 228.5,364.5C 237.584,362.98 246.584,360.98 255.5,358.5 Z"/></g>
<g><path style="opacity:1" fill="#463311" d="M 246.5,376.5 C 244.485,377.924 242.152,378.59 239.5,378.5C 239.5,378.167 239.5,377.833 239.5,377.5C 241.806,377.007 244.139,376.674 246.5,376.5 Z"/></g>
<g><path style="opacity:1" fill="#372617" d="M 239.5,378.5 C 235.971,380.423 231.971,381.089 227.5,380.5C 231.267,379.205 235.267,378.539 239.5,378.5 Z"/></g>
<g><path style="opacity:1" fill="#352410" d="M 223.5,380.5 C 224.833,380.5 226.167,380.5 227.5,380.5C 227.389,381.117 227.056,381.617 226.5,382C 221.177,382.499 215.844,382.666 210.5,382.5C 214.833,381.833 219.167,381.167 223.5,380.5 Z"/></g>
</svg>
