<?xml version="1.0" encoding="UTF-8"?>
<!DOCTYPE svg PUBLIC "-//W3C//DTD SVG 1.1//EN" "http://www.w3.org/Graphics/SVG/1.1/DTD/svg11.dtd">
<svg xmlns="http://www.w3.org/2000/svg" version="1.1" width="100px" height="100px" style="shape-rendering:geometricPrecision; text-rendering:geometricPrecision; image-rendering:optimizeQuality; fill-rule:evenodd; clip-rule:evenodd" xmlns:xlink="http://www.w3.org/1999/xlink">
<g><path style="opacity:1" fill="#fdfefe" d="M -0.5,-0.5 C 13.1667,-0.5 26.8333,-0.5 40.5,-0.5C 36.3491,0.773429 32.3491,2.4401 28.5,4.5C 24.827,6.00025 21.4937,8.00025 18.5,10.5C 8.87113,18.4524 2.53779,28.4524 -0.5,40.5C -0.5,26.8333 -0.5,13.1667 -0.5,-0.5 Z"/></g>
<g><path style="opacity:1" fill="#fcfefe" d="M 50.5,-0.5 C 66.8333,-0.5 83.1667,-0.5 99.5,-0.5C 99.5,13.5 99.5,27.5 99.5,41.5C 98.2683,36.2888 96.2683,31.2888 93.5,26.5C 90.6095,19.6097 85.9428,14.2764 79.5,10.5C 75.9293,6.8793 71.596,4.54596 66.5,3.5C 66.8303,10.5316 66.497,17.5316 65.5,24.5C 62.7692,26.1916 60.1025,27.8583 57.5,29.5C 55.0038,30.5804 52.6705,31.9138 50.5,33.5C 45.5816,32.0396 40.9149,30.0396 36.5,27.5C 33.0012,25.2495 29.3346,23.2495 25.5,21.5C 24.2347,20.5207 22.9014,19.5207 21.5,18.5C 24.5503,15.6518 27.8836,13.3184 31.5,11.5C 35.2526,10.1406 38.9192,8.80726 42.5,7.5C 44.8333,7.5 47.1667,7.5 49.5,7.5C 50.4731,5.0521 50.8064,2.38544 50.5,-0.5 Z"/></g>
<g><path style="opacity:1" fill="#2ee8d7" d="M 40.5,-0.5 C 43.8333,-0.5 47.1667,-0.5 50.5,-0.5C 50.8064,2.38544 50.4731,5.0521 49.5,7.5C 49.5,5.16667 49.5,2.83333 49.5,0.5C 47.1432,0.336688 44.8098,0.503354 42.5,1C 41.6566,3.01293 41.6566,5.1796 42.5,7.5C 38.9192,8.80726 35.2526,10.1406 31.5,11.5C 30.1301,11.1435 29.1301,10.3102 28.5,9C 29.7221,7.43699 29.7221,5.93699 28.5,4.5C 32.3491,2.4401 36.3491,0.773429 40.5,-0.5 Z"/></g>
<g><path style="opacity:1" fill="#01e9cb" d="M 49.5,7.5 C 47.1667,7.5 44.8333,7.5 42.5,7.5C 41.6566,5.1796 41.6566,3.01293 42.5,1C 44.8098,0.503354 47.1432,0.336688 49.5,0.5C 49.5,2.83333 49.5,5.16667 49.5,7.5 Z"/></g>
<g><path style="opacity:1" fill="#15f2b6" d="M 79.5,10.5 C 77.4677,11.0478 76.4677,12.3812 76.5,14.5C 73.075,14.3668 72.7417,15.0335 75.5,16.5C 74.6762,20.3123 74.1762,24.3123 74,28.5C 68.9284,31.7548 63.7618,34.7548 58.5,37.5C 57.5222,37.189 56.8555,36.5223 56.5,35.5C 57.7849,33.4234 58.1182,31.4234 57.5,29.5C 60.1025,27.8583 62.7692,26.1916 65.5,24.5C 66.497,17.5316 66.8303,10.5316 66.5,3.5C 71.596,4.54596 75.9293,6.8793 79.5,10.5 Z"/></g>
<g><path style="opacity:1" fill="#21e3e2" d="M 28.5,4.5 C 29.7221,5.93699 29.7221,7.43699 28.5,9C 29.1301,10.3102 30.1301,11.1435 31.5,11.5C 27.8836,13.3184 24.5503,15.6518 21.5,18.5C 22.9014,19.5207 24.2347,20.5207 25.5,21.5C 24.5222,21.811 23.8555,22.4777 23.5,23.5C 24.156,25.6183 24.4893,27.6183 24.5,29.5C 21.6484,27.9091 18.6484,26.5758 15.5,25.5C 16.0906,24.8485 16.7573,24.1818 17.5,23.5C 16.3887,22.3887 15.722,21.0554 15.5,19.5C 16.0077,16.4908 17.0077,13.4908 18.5,10.5C 21.4937,8.00025 24.827,6.00025 28.5,4.5 Z"/></g>
<g><path style="opacity:1" fill="#24f7aa" d="M 79.5,10.5 C 85.9428,14.2764 90.6095,19.6097 93.5,26.5C 92.5272,27.7914 91.5272,27.7914 90.5,26.5C 89.7251,28.8432 89.0584,31.1766 88.5,33.5C 85.2855,26.9554 80.9521,21.2887 75.5,16.5C 72.7417,15.0335 73.075,14.3668 76.5,14.5C 76.4677,12.3812 77.4677,11.0478 79.5,10.5 Z"/></g>
<g><path style="opacity:1" fill="#fcfefd" d="M 75.5,16.5 C 80.9521,21.2887 85.2855,26.9554 88.5,33.5C 93.1066,46.6138 92.1066,59.2804 85.5,71.5C 84.6851,72.4293 83.8518,73.4293 83,74.5C 82.3292,73.7476 81.4959,73.4142 80.5,73.5C 72.8271,68.6618 64.8271,64.3285 56.5,60.5C 56.189,59.5222 55.5223,58.8555 54.5,58.5C 53.1667,52.5 53.1667,46.5 54.5,40.5C 55.9014,39.4793 57.2347,38.4793 58.5,37.5C 63.7618,34.7548 68.9284,31.7548 74,28.5C 74.1762,24.3123 74.6762,20.3123 75.5,16.5 Z"/></g>
<g><path style="opacity:1" fill="#1fdeef" d="M 18.5,10.5 C 17.0077,13.4908 16.0077,16.4908 15.5,19.5C 15.722,21.0554 16.3887,22.3887 17.5,23.5C 16.7573,24.1818 16.0906,24.8485 15.5,25.5C 4.91929,41.7158 4.91929,58.0492 15.5,74.5C 14.232,76.6702 14.232,78.8368 15.5,81C 14.695,82.1127 14.0283,83.2794 13.5,84.5C 6.73519,76.9708 2.06852,68.3042 -0.5,58.5C -0.5,52.5 -0.5,46.5 -0.5,40.5C 2.53779,28.4524 8.87113,18.4524 18.5,10.5 Z"/></g>
<g><path style="opacity:1" fill="#25e6da" d="M 25.5,21.5 C 29.3346,23.2495 33.0012,25.2495 36.5,27.5C 35.7109,27.7828 35.0442,28.2828 34.5,29C 34.9863,31.0266 34.9863,33.1933 34.5,35.5C 31.1309,33.4854 27.7976,31.4854 24.5,29.5C 24.4893,27.6183 24.156,25.6183 23.5,23.5C 23.8555,22.4777 24.5222,21.811 25.5,21.5 Z"/></g>
<g><path style="opacity:1" fill="#fcfefe" d="M 15.5,25.5 C 18.6484,26.5758 21.6484,27.9091 24.5,29.5C 27.7976,31.4854 31.1309,33.4854 34.5,35.5C 38.2168,37.1088 41.7168,39.1088 45,41.5C 45.8299,47.1959 45.6632,52.8625 44.5,58.5C 41.4594,60.5591 38.4594,62.5591 35.5,64.5C 31.8884,66.2723 28.3884,68.2723 25,70.5C 24.8265,74.5408 24.3265,78.5408 23.5,82.5C 20.4517,80.1185 17.7851,77.4518 15.5,74.5C 4.91929,58.0492 4.91929,41.7158 15.5,25.5 Z"/></g>
<g><path style="opacity:1" fill="#1cfaa2" d="M 93.5,26.5 C 96.2683,31.2888 98.2683,36.2888 99.5,41.5C 99.5,45.8333 99.5,50.1667 99.5,54.5C 98.7041,61.6722 96.3708,68.3389 92.5,74.5C 91.5,74.5 90.5,74.5 89.5,74.5C 89.6495,75.552 89.4828,76.552 89,77.5C 88.5065,75.8659 88.3398,74.1992 88.5,72.5C 87.209,72.7373 86.209,72.404 85.5,71.5C 92.1066,59.2804 93.1066,46.6138 88.5,33.5C 89.0584,31.1766 89.7251,28.8432 90.5,26.5C 91.5272,27.7914 92.5272,27.7914 93.5,26.5 Z"/></g>
<g><path style="opacity:1" fill="#1deace" d="M 36.5,27.5 C 40.9149,30.0396 45.5816,32.0396 50.5,33.5C 50.0825,34.2216 49.4158,34.7216 48.5,35C 49.3081,35.3076 49.9747,35.8076 50.5,36.5C 49.846,45.697 49.1793,54.8637 48.5,64C 49.4158,64.2784 50.0825,64.7784 50.5,65.5C 45.8333,67.8333 41.1667,70.1667 36.5,72.5C 36.0032,70.2197 35.6699,67.5531 35.5,64.5C 38.4594,62.5591 41.4594,60.5591 44.5,58.5C 45.6632,52.8625 45.8299,47.1959 45,41.5C 41.7168,39.1088 38.2168,37.1088 34.5,35.5C 34.9863,33.1933 34.9863,31.0266 34.5,29C 35.0442,28.2828 35.7109,27.7828 36.5,27.5 Z"/></g>
<g><path style="opacity:1" fill="#1eecc7" d="M 57.5,29.5 C 58.1182,31.4234 57.7849,33.4234 56.5,35.5C 56.8555,36.5223 57.5222,37.189 58.5,37.5C 57.2347,38.4793 55.9014,39.4793 54.5,40.5C 53.1667,46.5 53.1667,52.5 54.5,58.5C 55.5223,58.8555 56.189,59.5222 56.5,60.5C 56.5079,63.5448 56.8413,66.5448 57.5,69.5C 54.9684,68.4043 52.6351,67.0709 50.5,65.5C 50.0825,64.7784 49.4158,64.2784 48.5,64C 49.1793,54.8637 49.846,45.697 50.5,36.5C 49.9747,35.8076 49.3081,35.3076 48.5,35C 49.4158,34.7216 50.0825,34.2216 50.5,33.5C 52.6705,31.9138 55.0038,30.5804 57.5,29.5 Z"/></g>
<g><path style="opacity:1" fill="#fcfefd" d="M 99.5,54.5 C 99.5,69.5 99.5,84.5 99.5,99.5C 85.5,99.5 71.5,99.5 57.5,99.5C 61.0449,98.7613 64.3783,97.428 67.5,95.5C 71.9334,94.7855 75.6,92.7855 78.5,89.5C 84.5281,85.8041 89.1948,80.8041 92.5,74.5C 96.3708,68.3389 98.7041,61.6722 99.5,54.5 Z"/></g>
<g><path style="opacity:1" fill="#fcfefe" d="M -0.5,58.5 C 2.06852,68.3042 6.73519,76.9708 13.5,84.5C 18.6426,89.6172 24.6426,93.6172 31.5,96.5C 32.3311,89.5236 32.8311,82.5236 33,75.5C 34.1451,74.3636 35.3117,73.3636 36.5,72.5C 41.1667,70.1667 45.8333,67.8333 50.5,65.5C 52.6351,67.0709 54.9684,68.4043 57.5,69.5C 63.0353,72.7674 68.7019,75.7674 74.5,78.5C 75.6935,79.2719 76.6935,80.2719 77.5,81.5C 73.0486,84.6349 68.3819,87.3016 63.5,89.5C 58.5754,90.6845 53.5754,91.3512 48.5,91.5C 48.5,94.1667 48.5,96.8333 48.5,99.5C 32.1667,99.5 15.8333,99.5 -0.5,99.5C -0.5,85.8333 -0.5,72.1667 -0.5,58.5 Z"/></g>
<g><path style="opacity:1" fill="#1ef1b9" d="M 56.5,60.5 C 64.8271,64.3285 72.8271,68.6618 80.5,73.5C 79.5041,73.4142 78.6708,73.7476 78,74.5C 77.6667,73.8333 77.3333,73.1667 77,72.5C 76.7635,74.8452 75.9302,76.8452 74.5,78.5C 68.7019,75.7674 63.0353,72.7674 57.5,69.5C 56.8413,66.5448 56.5079,63.5448 56.5,60.5 Z"/></g>
<g><path style="opacity:1" fill="#1ce4de" d="M 35.5,64.5 C 35.6699,67.5531 36.0032,70.2197 36.5,72.5C 35.3117,73.3636 34.1451,74.3636 33,75.5C 32.8311,82.5236 32.3311,89.5236 31.5,96.5C 24.6426,93.6172 18.6426,89.6172 13.5,84.5C 14.0283,83.2794 14.695,82.1127 15.5,81C 14.232,78.8368 14.232,76.6702 15.5,74.5C 17.7851,77.4518 20.4517,80.1185 23.5,82.5C 24.3265,78.5408 24.8265,74.5408 25,70.5C 28.3884,68.2723 31.8884,66.2723 35.5,64.5 Z"/></g>
<g><path style="opacity:1" fill="#18f6ac" d="M 85.5,71.5 C 86.209,72.404 87.209,72.7373 88.5,72.5C 88.3398,74.1992 88.5065,75.8659 89,77.5C 89.4828,76.552 89.6495,75.552 89.5,74.5C 90.5,74.5 91.5,74.5 92.5,74.5C 89.1948,80.8041 84.5281,85.8041 78.5,89.5C 78.5676,88.2671 77.9009,86.9338 76.5,85.5C 76.8457,84.1508 77.179,82.8175 77.5,81.5C 76.6935,80.2719 75.6935,79.2719 74.5,78.5C 75.9302,76.8452 76.7635,74.8452 77,72.5C 77.3333,73.1667 77.6667,73.8333 78,74.5C 78.6708,73.7476 79.5041,73.4142 80.5,73.5C 81.4959,73.4142 82.3292,73.7476 83,74.5C 83.8518,73.4293 84.6851,72.4293 85.5,71.5 Z"/></g>
<g><path style="opacity:1" fill="#19f2b5" d="M 77.5,81.5 C 77.179,82.8175 76.8457,84.1508 76.5,85.5C 77.9009,86.9338 78.5676,88.2671 78.5,89.5C 75.6,92.7855 71.9334,94.7855 67.5,95.5C 62.5487,96.3988 61.5487,95.0654 64.5,91.5C 64.1373,90.8165 63.8039,90.1499 63.5,89.5C 68.3819,87.3016 73.0486,84.6349 77.5,81.5 Z"/></g>
<g><path style="opacity:1" fill="#21eec4" d="M 63.5,89.5 C 63.8039,90.1499 64.1373,90.8165 64.5,91.5C 61.5487,95.0654 62.5487,96.3988 67.5,95.5C 64.3783,97.428 61.0449,98.7613 57.5,99.5C 54.5,99.5 51.5,99.5 48.5,99.5C 48.5,96.8333 48.5,94.1667 48.5,91.5C 53.5754,91.3512 58.5754,90.6845 63.5,89.5 Z"/></g>
</svg>
