<?xml version="1.0"?><svg xmlns="http://www.w3.org/2000/svg" width="36" height="36" shape-rendering="geometricPrecision" text-rendering="geometricPrecision" image-rendering="optimizeQuality" fill-rule="evenodd" clip-rule="evenodd" viewBox="0 0 36 36"><path fill="#fdfefe" d="m-0.2-0.2h14.8c-1.5 0.5-3 1.1-4.3 1.8-1.4 0.6-2.6 1.3-3.6 2.2-3.5 2.8-5.8 6.4-6.9 10.8v-14.8z"></path><path fill="#fcfefe" d="m18.2-0.2h17.6v15.1c-0.4-1.8-1.1-3.6-2.1-5.4-1.1-2.4-2.8-4.4-5.1-5.7-1.3-1.3-2.8-2.2-4.7-2.5 0.2 2.5 0 5-0.3 7.5-1 0.6-2 1.2-2.9 1.8-0.9 0.4-1.7 0.9-2.5 1.5-1.8-0.6-3.5-1.3-5.1-2.2-1.2-0.8-2.5-1.5-3.9-2.2-0.5-0.3-1-0.7-1.5-1 1.1-1.1 2.3-1.9 3.6-2.6 1.4-0.4 2.7-0.9 4-1.4h2.5c0.4-0.9 0.5-1.8 0.4-2.9z"></path><path fill="#2ee8d7" d="m14.6-0.2h3.6c0.1 1.1 0 2-0.4 2.9v-2.5c-0.8-0.1-1.7 0-2.5 0.2-0.3 0.7-0.3 1.5 0 2.3-1.3 0.5-2.6 1-4 1.4-0.5-0.1-0.8-0.4-1-0.9 0.4-0.5 0.4-1.1 0-1.6 1.3-0.7 2.8-1.3 4.3-1.8z"></path><path fill="#01e9cb" d="m17.8 2.7h-2.5c-0.3-0.8-0.3-1.6 0-2.3 0.8-0.2 1.7-0.3 2.5-0.2v2.5z"></path><path fill="#15f2b6" d="m28.6 3.8c-0.7 0.2-1.1 0.7-1.1 1.4-1.2 0-1.3 0.2-0.3 0.7-0.3 1.4-0.5 2.9-0.6 4.4-1.8 1.1-3.6 2.2-5.5 3.2-0.4-0.1-0.6-0.4-0.8-0.7 0.5-0.8 0.6-1.5 0.4-2.2 0.9-0.6 1.9-1.2 2.9-1.8 0.3-2.5 0.5-5 0.3-7.5 1.9 0.3 3.4 1.2 4.7 2.5z"></path><path fill="#21e3e2" d="m10.3 1.6c0.4 0.5 0.4 1.1 0 1.6 0.2 0.5 0.5 0.8 1 0.9-1.3 0.7-2.5 1.5-3.6 2.6 0.5 0.3 1 0.7 1.5 1-0.4 0.2-0.6 0.4-0.7 0.8 0.2 0.7 0.3 1.4 0.3 2.1-1-0.6-2.1-1-3.2-1.4 0.2-0.3 0.4-0.5 0.7-0.7-0.4-0.4-0.6-0.9-0.7-1.5 0.2-1.1 0.5-2.1 1.1-3.2 1-0.9 2.2-1.6 3.6-2.2z"></path><path fill="#24f7aa" d="m28.6 3.8c2.3 1.3 4 3.3 5.1 5.7-0.4 0.5-0.8 0.5-1.1 0-0.3 0.9-0.5 1.7-0.7 2.6-1.2-2.4-2.8-4.4-4.7-6.2-1-0.5-0.9-0.7 0.3-0.7 0-0.7 0.4-1.2 1.1-1.4z"></path><path fill="#fcfefd" d="m27.2 5.9c1.9 1.8 3.5 3.8 4.7 6.2 1.6 4.7 1.3 9.2-1.1 13.6-0.3 0.4-0.6 0.7-0.9 1.1-0.3-0.3-0.6-0.4-0.9-0.3-2.8-1.8-5.7-3.3-8.7-4.7-0.1-0.4-0.3-0.6-0.7-0.7-0.5-2.2-0.5-4.4 0-6.5 0.5-0.4 1-0.7 1.5-1.1 1.9-1 3.7-2.1 5.5-3.2 0.1-1.5 0.3-3 0.6-4.4z"></path><path fill="#1fdeef" d="m6.7 3.8c-0.6 1.1-0.9 2.1-1.1 3.2 0.1 0.6 0.3 1.1 0.7 1.5-0.3 0.2-0.5 0.4-0.7 0.7-3.8 5.8-3.8 11.7 0 17.6-0.5 0.8-0.5 1.6 0 2.4-0.3 0.4-0.5 0.8-0.7 1.2-2.5-2.7-4.2-5.8-5.1-9.3v-6.5c1.1-4.4 3.4-8 6.9-10.8z"></path><path fill="#25e6da" d="m9.2 7.7c1.4 0.7 2.7 1.4 3.9 2.2-0.2 0.1-0.5 0.3-0.7 0.5 0.2 0.8 0.2 1.5 0 2.4-1.2-0.7-2.4-1.5-3.6-2.2 0-0.7-0.1-1.4-0.3-2.1 0.1-0.4 0.3-0.6 0.7-0.8z"></path><path fill="#fcfefe" d="m5.6 9.2c1.1 0.4 2.2 0.8 3.2 1.4 1.2 0.7 2.4 1.5 3.6 2.2 1.4 0.6 2.6 1.3 3.8 2.1 0.3 2.1 0.2 4.1-0.2 6.2-1.1 0.7-2.2 1.4-3.2 2.1-1.3 0.7-2.6 1.4-3.8 2.2-0.1 1.4-0.2 2.9-0.5 4.3-1.1-0.9-2.1-1.8-2.9-2.9-3.8-5.9-3.8-11.8 0-17.6z"></path><path fill="#1cfaa2" d="m33.7 9.5c1 1.8 1.7 3.6 2.1 5.4v4.7c-0.3 2.6-1.1 5-2.5 7.2h-1.1c0.1 0.4 0 0.8-0.2 1.1-0.1-0.6-0.2-1.2-0.1-1.8-0.5 0.1-0.9 0-1.1-0.4 2.4-4.4 2.7-8.9 1.1-13.6 0.2-0.9 0.4-1.7 0.7-2.6 0.3 0.5 0.7 0.5 1.1 0z"></path><path fill="#1deace" d="m13.1 9.9c1.6 0.9 3.3 1.6 5.1 2.2-0.2 0.2-0.4 0.4-0.7 0.5 0.3 0.1 0.5 0.3 0.7 0.5-0.3 3.4-0.5 6.7-0.7 9.9 0.3 0.1 0.5 0.3 0.7 0.6l-5.1 2.5c-0.1-0.8-0.3-1.8-0.3-2.9 1-0.7 2.1-1.4 3.2-2.1 0.4-2.1 0.5-4.1 0.2-6.2-1.2-0.8-2.4-1.5-3.8-2.1 0.2-0.9 0.2-1.6 0-2.4 0.2-0.2 0.5-0.4 0.7-0.5z"></path><path fill="#1eecc7" d="m20.7 10.6c0.2 0.7 0.1 1.4-0.4 2.2 0.2 0.3 0.4 0.6 0.8 0.7-0.5 0.4-1 0.7-1.5 1.1-0.5 2.1-0.5 4.3 0 6.5 0.4 0.1 0.6 0.3 0.7 0.7 0 1.1 0.2 2.2 0.4 3.2-0.9-0.4-1.8-0.9-2.5-1.4-0.2-0.3-0.4-0.5-0.7-0.6 0.2-3.2 0.4-6.5 0.7-9.9-0.2-0.2-0.4-0.4-0.7-0.5 0.3-0.1 0.5-0.3 0.7-0.5 0.8-0.6 1.6-1.1 2.5-1.5z"></path><path fill="#fcfefd" d="m35.8 19.6v16.2h-15.1c1.3-0.2 2.5-0.7 3.6-1.4 1.6-0.3 2.9-1 4-2.2 2.1-1.3 3.8-3.1 5-5.4 1.4-2.2 2.2-4.6 2.5-7.2z"></path><path fill="#fcfefe" d="m-0.2 21.1c0.9 3.5 2.6 6.6 5.1 9.3 1.8 1.9 4 3.3 6.4 4.3 0.3-2.5 0.5-5 0.6-7.5 0.4-0.4 0.8-0.8 1.2-1.1l5.1-2.5c0.7 0.5 1.6 1 2.5 1.4 2 1.2 4 2.3 6.1 3.3 0.4 0.2 0.8 0.6 1.1 1-1.6 1.2-3.3 2.1-5 2.9-1.8 0.4-3.6 0.7-5.4 0.7v2.9h-17.7v-14.7z"></path><path fill="#1ef1b9" d="m20.3 21.8c3 1.4 5.9 2.9 8.7 4.7-0.4-0.1-0.7 0-0.9 0.3l-0.4-0.7c-0.1 0.8-0.4 1.6-0.9 2.2-2.1-1-4.1-2.1-6.1-3.3-0.2-1-0.4-2.1-0.4-3.2z"></path><path fill="#1ce4de" d="m12.8 23.2c0 1.1 0.2 2.1 0.3 2.9-0.4 0.3-0.8 0.7-1.2 1.1-0.1 2.5-0.3 5-0.6 7.5-2.4-1-4.6-2.4-6.4-4.3 0.2-0.4 0.4-0.8 0.7-1.2-0.5-0.8-0.5-1.6 0-2.4 0.8 1.1 1.8 2 2.9 2.9 0.3-1.4 0.4-2.9 0.5-4.3 1.2-0.8 2.5-1.5 3.8-2.2z"></path><path fill="#18f6ac" d="m30.8 25.7c0.2 0.4 0.6 0.5 1.1 0.4-0.1 0.6 0 1.2 0.1 1.8 0.2-0.3 0.3-0.7 0.2-1.1h1.1c-1.2 2.3-2.9 4.1-5 5.4 0-0.4-0.3-0.9-0.8-1.4 0.2-0.5 0.3-1 0.4-1.5-0.3-0.4-0.7-0.8-1.1-1 0.5-0.6 0.8-1.4 0.9-2.2l0.4 0.7c0.2-0.3 0.5-0.4 0.9-0.3 0.3-0.1 0.6 0 0.9 0.3 0.3-0.4 0.6-0.7 0.9-1.1z"></path><path fill="#19f2b5" d="m27.9 29.3c-0.1 0.5-0.2 1-0.4 1.5 0.5 0.5 0.8 1 0.8 1.4-1.1 1.2-2.4 1.9-4 2.2-1.8 0.3-2.1-0.2-1.1-1.5-0.1-0.2-0.2-0.4-0.3-0.7 1.7-0.8 3.4-1.7 5-2.9z"></path><path fill="#21eec4" d="m22.9 32.2c0.1 0.3 0.2 0.5 0.3 0.7-1 1.3-0.7 1.8 1.1 1.5-1.1 0.7-2.3 1.2-3.6 1.4h-3.2v-2.9c1.8 0 3.6-0.3 5.4-0.7z"></path></svg>