<svg xmlns="http://www.w3.org/2000/svg" version="1.1" width="312px" height="320px" style="shape-rendering:geometricPrecision; text-rendering:geometricPrecision; image-rendering:optimizeQuality; fill-rule:evenodd; clip-rule:evenodd" xmlns:xlink="http://www.w3.org/1999/xlink">
<g><path style="opacity:1" fill="#dc3522" d="M -0.5,-0.5 C 103.5,-0.5 207.5,-0.5 311.5,-0.5C 311.5,106.167 311.5,212.833 311.5,319.5C 207.5,319.5 103.5,319.5 -0.5,319.5C -0.5,212.833 -0.5,106.167 -0.5,-0.5 Z"/></g>
<g><path style="opacity:1" fill="#dc3622" d="M 115.5,110.5 C 97.0829,120.577 81.7496,134.244 69.5,151.5C 64.0238,142.282 60.6905,132.282 59.5,121.5C 56.9717,90.5247 70.9717,72.0247 101.5,66C 118.677,65.1021 135.01,68.4354 150.5,76C 136.314,85.0202 124.647,96.5202 115.5,110.5 Z"/></g>
<g><path style="opacity:1" fill="#dc3623" d="M 241.5,151.5 C 230.882,135.826 217.216,123.326 200.5,114C 198.7,112.188 197.033,110.355 195.5,108.5C 186.499,95.8336 175.499,85.1669 162.5,76.5C 162.709,75.914 163.043,75.414 163.5,75C 183.156,64.5941 203.489,62.9275 224.5,70C 243.626,78.6332 253.293,93.4665 253.5,114.5C 252.809,127.928 249.309,140.595 243,152.5C 242.617,151.944 242.117,151.611 241.5,151.5 Z"/></g>
<g><path style="opacity:1" fill="#f8e7e4" d="M 257.5,103.5 C 257.711,112.2 257.377,120.867 256.5,129.5C 254.948,139.492 251.614,148.825 246.5,157.5C 248.711,161.257 250.377,165.257 251.5,169.5C 252.256,173.767 253.589,177.767 255.5,181.5C 263.425,209.364 255.425,231.197 231.5,247C 205.446,256.979 180.113,255.146 155.5,241.5C 134.76,253.106 112.76,256.272 89.5,251C 70.5238,244.197 58.8571,231.03 54.5,211.5C 55.9265,213.148 56.7599,215.148 57,217.5C 57.3333,217.167 57.6667,216.833 58,216.5C 57.7994,208.996 57.9661,201.663 58.5,194.5C 57.1485,223.532 70.4818,241.199 98.5,247.5C 101.598,248.821 105.098,249.488 109,249.5C 112.683,249.499 116.183,249.165 119.5,248.5C 130.008,246.718 140.008,243.218 149.5,238C 147.382,236.951 145.716,235.451 144.5,233.5C 146.094,233.92 147.594,234.586 149,235.5C 150.645,233.265 149.812,232.265 146.5,232.5C 146.5,231.5 146.5,230.5 146.5,229.5C 149.482,231.474 152.482,233.474 155.5,235.5C 163.692,231.302 171.025,225.969 177.5,219.5C 177.297,221.044 176.63,222.378 175.5,223.5C 176.712,223.07 178.045,223.07 179.5,223.5C 174.267,229.228 168.267,234.061 161.5,238C 182.662,249.946 204.662,251.612 227.5,243C 244.288,233.786 252.954,219.453 253.5,200C 252.795,187.449 249.629,175.616 244,164.5C 243.282,163.549 242.449,163.383 241.5,164C 232.631,177.368 221.297,188.202 207.5,196.5C 207.297,194.61 207.963,193.11 209.5,192C 208.181,191.805 206.847,191.972 205.5,192.5C 217.823,183.177 228.823,172.51 238.5,160.5C 238.343,161.873 238.51,163.207 239,164.5C 240.667,162.833 242.333,161.167 244,159.5C 244.333,159.833 244.667,160.167 245,160.5C 245.667,158.5 245.667,156.5 245,154.5C 243.271,154.026 242.105,153.026 241.5,151.5C 242.117,151.611 242.617,151.944 243,152.5C 249.309,140.595 252.809,127.928 253.5,114.5C 253.293,93.4665 243.626,78.6332 224.5,70C 203.489,62.9275 183.156,64.5941 163.5,75C 163.043,75.414 162.709,75.914 162.5,76.5C 175.499,85.1669 186.499,95.8336 195.5,108.5C 194.279,107.972 193.113,107.305 192,106.5C 191.781,107.938 191.281,109.271 190.5,110.5C 188.855,109.304 187.189,108.304 185.5,107.5C 188.907,107.875 189.407,106.875 187,104.5C 178.39,93.8763 168.057,85.543 156,79.5C 143.342,86.4263 132.509,95.5929 123.5,107C 124.448,107.483 125.448,107.649 126.5,107.5C 125.359,108.339 124.026,109.006 122.5,109.5C 122.002,108.397 121.669,107.397 121.5,106.5C 119.471,107.844 117.471,109.177 115.5,110.5C 124.647,96.5202 136.314,85.0202 150.5,76C 135.01,68.4354 118.677,65.1021 101.5,66C 70.9717,72.0247 56.9717,90.5247 59.5,121.5C 58.6717,115.013 58.1717,108.346 58,101.5C 57.6667,100.5 57.3333,99.5 57,98.5C 56.7599,100.852 55.9265,102.852 54.5,104.5C 61.6391,75.378 80.3058,60.7114 110.5,60.5C 126.63,61.6986 141.964,65.6986 156.5,72.5C 176.689,61.6455 198.023,58.4789 220.5,63C 241.091,69.0853 253.424,82.5853 257.5,103.5 Z"/></g>
<g><path style="opacity:1" fill="#db3522" d="M 185.5,107.5 C 181.498,105.39 177.165,104.057 172.5,103.5C 167.243,102.025 161.743,101.358 156,101.5C 152.317,101.501 148.817,101.835 145.5,102.5C 138.712,102.768 132.379,104.435 126.5,107.5C 125.448,107.649 124.448,107.483 123.5,107C 132.509,95.5929 143.342,86.4263 156,79.5C 168.057,85.543 178.39,93.8763 187,104.5C 189.407,106.875 188.907,107.875 185.5,107.5 Z"/></g>
<g><path style="opacity:1" fill="#e4a39a" d="M 145.5,102.5 C 148.817,101.835 152.317,101.501 156,101.5C 161.743,101.358 167.243,102.025 172.5,103.5C 163.521,102.734 154.521,102.401 145.5,102.5 Z"/></g>
<g><path style="opacity:1" fill="#e8b2aa" d="M 257.5,103.5 C 258.656,110.989 258.822,118.655 258,126.5C 257.768,127.737 257.268,128.737 256.5,129.5C 257.377,120.867 257.711,112.2 257.5,103.5 Z"/></g>
<g><path style="opacity:1" fill="#db3622" d="M 238.5,160.5 C 228.823,172.51 217.823,183.177 205.5,192.5C 204.957,192.44 204.624,192.107 204.5,191.5C 213.786,176.844 216.452,161.177 212.5,144.5C 212.346,139.711 211.013,135.378 208.5,131.5C 207.58,128.492 206.246,125.659 204.5,123C 219.167,131.165 230.834,142.665 239.5,157.5C 238.873,158.417 238.539,159.417 238.5,160.5 Z"/></g>
<g><path style="opacity:1" fill="#f9ece9" d="M 59.5,121.5 C 60.6905,132.282 64.0238,142.282 69.5,151.5C 81.7496,134.244 97.0829,120.577 115.5,110.5C 117.471,109.177 119.471,107.844 121.5,106.5C 121.669,107.397 122.002,108.397 122.5,109.5C 124.026,109.006 125.359,108.339 126.5,107.5C 132.379,104.435 138.712,102.768 145.5,102.5C 154.521,102.401 163.521,102.734 172.5,103.5C 177.165,104.057 181.498,105.39 185.5,107.5C 187.189,108.304 188.855,109.304 190.5,110.5C 191.281,109.271 191.781,107.938 192,106.5C 193.113,107.305 194.279,107.972 195.5,108.5C 197.033,110.355 198.7,112.188 200.5,114C 217.216,123.326 230.882,135.826 241.5,151.5C 242.105,153.026 243.271,154.026 245,154.5C 245.667,156.5 245.667,158.5 245,160.5C 244.667,160.167 244.333,159.833 244,159.5C 242.333,161.167 240.667,162.833 239,164.5C 238.51,163.207 238.343,161.873 238.5,160.5C 238.539,159.417 238.873,158.417 239.5,157.5C 230.834,142.665 219.167,131.165 204.5,123C 206.246,125.659 207.58,128.492 208.5,131.5C 209.457,136.032 210.79,140.365 212.5,144.5C 216.452,161.177 213.786,176.844 204.5,191.5C 204.624,192.107 204.957,192.44 205.5,192.5C 206.847,191.972 208.181,191.805 209.5,192C 207.963,193.11 207.297,194.61 207.5,196.5C 204.978,198.172 202.312,199.672 199.5,201C 194.082,209.586 187.415,217.086 179.5,223.5C 178.045,223.07 176.712,223.07 175.5,223.5C 176.63,222.378 177.297,221.044 177.5,219.5C 181.13,215.369 184.963,211.369 189,207.5C 189.667,206.833 189.667,206.167 189,205.5C 172.554,212.663 155.387,214.496 137.5,211C 132.446,209.697 127.613,207.864 123,205.5C 123.747,207.976 125.081,210.309 127,212.5C 132.78,219.122 139.28,224.788 146.5,229.5C 146.5,230.5 146.5,231.5 146.5,232.5C 149.812,232.265 150.645,233.265 149,235.5C 147.594,234.586 146.094,233.92 144.5,233.5C 131.353,225.186 120.686,214.352 112.5,201C 95.2078,191.545 80.8745,178.712 69.5,162.5C 63.3849,172.278 59.7183,182.945 58.5,194.5C 57.9661,201.663 57.7994,208.996 58,216.5C 57.6667,216.833 57.3333,217.167 57,217.5C 56.7599,215.148 55.9265,213.148 54.5,211.5C 51.6329,191.804 55.6329,173.637 66.5,157C 56.3165,140.916 52.3165,123.416 54.5,104.5C 55.9265,102.852 56.7599,100.852 57,98.5C 57.3333,99.5 57.6667,100.5 58,101.5C 58.1717,108.346 58.6717,115.013 59.5,121.5 Z"/></g>
<g><path style="opacity:1" fill="#ebb3aa" d="M 208.5,131.5 C 211.013,135.378 212.346,139.711 212.5,144.5C 210.79,140.365 209.457,136.032 208.5,131.5 Z"/></g>
<g><path style="opacity:1" fill="#db3622" d="M 106.5,121.5 C 107.239,121.369 107.906,121.536 108.5,122C 101.229,131.572 97.8961,142.406 98.5,154.5C 98.5293,160.874 99.0293,167.207 100,173.5C 102.64,179.41 104.64,185.41 106,191.5C 92.4429,182.277 81.2763,170.777 72.5,157C 75.0459,152.079 78.2126,147.579 82,143.5C 89.9565,135.798 98.1232,128.465 106.5,121.5 Z"/></g>
<g><path style="opacity:1" fill="#dc3622" d="M 149.5,106.5 C 195.443,106.742 214.276,129.409 206,174.5C 201.364,191.799 190.197,202.299 172.5,206C 153.744,210.312 136.41,207.312 120.5,197C 111.835,189.84 106.669,180.674 105,169.5C 102.504,154.012 104.838,139.346 112,125.5C 121.827,113.67 134.327,107.337 149.5,106.5 Z"/></g>
<g><path style="opacity:1" fill="#dc3522" d="M 144.5,233.5 C 145.716,235.451 147.382,236.951 149.5,238C 140.008,243.218 130.008,246.718 119.5,248.5C 112.457,248.72 105.457,248.386 98.5,247.5C 70.4818,241.199 57.1485,223.532 58.5,194.5C 59.7183,182.945 63.3849,172.278 69.5,162.5C 80.8745,178.712 95.2078,191.545 112.5,201C 120.686,214.352 131.353,225.186 144.5,233.5 Z"/></g>
<g><path style="opacity:1" fill="#dc3622" d="M 179.5,223.5 C 187.415,217.086 194.082,209.586 199.5,201C 202.312,199.672 204.978,198.172 207.5,196.5C 221.297,188.202 232.631,177.368 241.5,164C 242.449,163.383 243.282,163.549 244,164.5C 249.629,175.616 252.795,187.449 253.5,200C 252.954,219.453 244.288,233.786 227.5,243C 204.662,251.612 182.662,249.946 161.5,238C 168.267,234.061 174.267,229.228 179.5,223.5 Z"/></g>
<g><path style="opacity:1" fill="#ebb2aa" d="M 251.5,169.5 C 253.806,173.085 255.139,177.085 255.5,181.5C 253.589,177.767 252.256,173.767 251.5,169.5 Z"/></g>
<g><path style="opacity:1" fill="#db3722" d="M 177.5,219.5 C 171.025,225.969 163.692,231.302 155.5,235.5C 152.482,233.474 149.482,231.474 146.5,229.5C 139.28,224.788 132.78,219.122 127,212.5C 125.081,210.309 123.747,207.976 123,205.5C 127.613,207.864 132.446,209.697 137.5,211C 155.387,214.496 172.554,212.663 189,205.5C 189.667,206.167 189.667,206.833 189,207.5C 184.963,211.369 181.13,215.369 177.5,219.5 Z"/></g>
<g><path style="opacity:1" fill="#eebcb5" d="M 98.5,247.5 C 105.457,248.386 112.457,248.72 119.5,248.5C 116.183,249.165 112.683,249.499 109,249.5C 105.098,249.488 101.598,248.821 98.5,247.5 Z"/></g>
</svg>
