<svg xmlns="http://www.w3.org/2000/svg" width="320" height="316" viewBox="0 0 320 316" version="1.1">
	<path fill-opacity="0.392" d="M 160 37.071 C 146.725 39.441, 143.343 40.178, 141.764 41.046 C 140.809 41.571, 139.448 42, 138.741 42 C 138.034 42, 136.565 43.683, 135.477 45.741 C 134.390 47.798, 132.037 51.726, 130.250 54.468 C 128.463 57.211, 127 60.060, 127 60.800 C 127 61.541, 125.198 63.764, 122.996 65.741 C 116.770 71.330, 109.344 87.203, 107.082 99.758 C 106.510 102.932, 105.255 104.995, 102.157 107.855 C 99.871 109.966, 98 111.932, 98 112.224 C 98 112.517, 98.738 114.498, 99.641 116.628 C 100.544 118.758, 101.617 121.850, 102.026 123.500 C 102.435 125.150, 103.089 127.274, 103.480 128.221 C 104.186 129.927, 102.794 130.813, 94 134.256 C 88.371 136.460, 86.401 137.982, 84.435 141.649 C 83.298 143.767, 81.306 146.031, 80.007 146.681 C 77.575 147.897, 75.098 151.468, 75.035 153.849 C 74.980 155.959, 71.863 162.213, 69.314 165.327 C 68.041 166.881, 67 168.800, 67 169.590 C 67 170.381, 66.603 171.809, 66.117 172.764 C 65.631 173.719, 64.777 175.625, 64.219 177 C 63.661 178.375, 62.453 181.300, 61.534 183.500 C 60.616 185.700, 59.492 188.400, 59.037 189.500 C 58.582 190.600, 57 194.200, 55.522 197.500 C 54.044 200.800, 52.469 204.400, 52.022 205.500 C 51.575 206.600, 50.037 210.020, 48.605 213.100 C 47.172 216.179, 46 219.223, 46 219.863 C 46 220.503, 45.550 221.921, 45 223.014 C 44.450 224.106, 43.550 225.894, 43 226.986 C 41.399 230.166, 41.835 234.648, 44.141 238.720 C 45.420 240.978, 46.227 244.040, 46.145 246.325 C 45.947 251.860, 48.669 259.253, 52.591 263.835 C 54.466 266.026, 56 268.309, 56 268.909 C 56 269.628, 52.417 270, 45.500 270 C 39.167 270, 35 270.397, 35 271 C 35 271.583, 38.310 272, 42.929 272 C 48.733 272, 51.270 272.412, 52.396 273.539 C 53.681 274.824, 57.007 275.058, 72.502 274.956 C 89.507 274.844, 91.404 275.009, 95.065 276.917 C 98.988 278.961, 100.193 279, 160.202 279 C 217.029 279, 221.479 278.877, 223.274 277.250 C 224.963 275.719, 228.291 275.428, 249.852 274.925 C 263.409 274.608, 276.272 273.849, 278.438 273.238 C 280.605 272.626, 282.630 272.151, 282.938 272.181 C 284.740 272.360, 286 271.873, 286 271 C 286 270.385, 281.004 270, 273.012 270 L 260.025 270 263.375 264.750 C 269.307 255.455, 271 251.042, 271 244.871 C 271 241.707, 270.550 238.840, 270 238.500 C 269.450 238.160, 269 236.841, 269 235.568 C 269 234.295, 268.129 229.934, 267.064 225.877 C 266 221.819, 264.837 217.375, 264.481 216 C 264.125 214.625, 263.443 212.600, 262.967 211.500 C 262.491 210.400, 261.446 207.475, 260.645 205 C 259.008 199.938, 257.586 196.338, 254.921 190.500 C 250.855 181.595, 247.811 170.822, 248.429 167.528 C 249.195 163.443, 248.072 160.471, 244.097 156.070 C 241.750 153.470, 241 151.696, 241 148.738 C 241 143.087, 233.192 133.507, 226.500 130.946 C 224.850 130.315, 222.600 129.452, 221.500 129.029 C 220.400 128.606, 217.263 127.189, 214.530 125.880 C 209.908 123.667, 209.437 123.094, 207.807 117.707 C 206.375 112.972, 206.250 111.055, 207.125 107.207 C 208.311 101.994, 209.090 103.975, 197.182 81.920 L 192.010 72.339 194.505 69.995 C 197.488 67.193, 197.699 64.325, 195.085 62.117 C 194.031 61.228, 190.143 58.025, 186.444 55 C 182.745 51.975, 176.431 46.462, 172.412 42.750 C 168.393 39.038, 164.968 36.060, 164.802 36.134 C 164.636 36.207, 162.475 36.629, 160 37.071 M 146.500 92 C 146.160 92.550, 144.810 93, 143.500 93 C 142.190 93, 140.872 93.398, 140.571 93.885 C 140.271 94.371, 138.781 94.983, 137.262 95.243 C 135.743 95.504, 133.713 96.054, 132.750 96.466 C 131.687 96.920, 131 96.780, 131 96.107 C 131 95.498, 131.675 95, 132.500 95 C 133.325 95, 134 94.550, 134 94 C 134 93.450, 133.325 93, 132.500 93 C 131.675 93, 131 93.450, 131 94 C 131 94.550, 130.127 95, 129.059 95 C 127.991 95, 126.861 95.415, 126.548 95.923 C 126.234 96.431, 124.644 97.139, 123.015 97.497 C 121.385 97.855, 117.903 100.044, 115.276 102.363 C 112.649 104.681, 108.588 108.061, 106.250 109.873 C 102.016 113.155, 101.167 115.401, 102.889 118.764 C 103.378 119.719, 104.606 122.300, 105.618 124.500 C 107.645 128.906, 119.695 142, 121.723 142 C 122.425 142, 123 142.358, 123 142.795 C 123 143.232, 125.079 144.447, 127.620 145.495 C 130.160 146.543, 134.210 148.650, 136.620 150.178 C 140.725 152.782, 143.059 152.845, 139.250 150.249 C 130.469 144.265, 126.963 142, 126.481 142 C 125.324 142, 115.368 134.079, 111.590 130.152 C 109.158 127.624, 107.617 125.032, 107.514 123.294 C 107.422 121.757, 106.988 119.234, 106.549 117.686 C 105.838 115.178, 106.281 114.363, 110.628 110.186 C 114.651 106.320, 117.037 105.019, 124.265 102.750 C 129.083 101.237, 134.340 100, 135.948 100 C 137.555 100, 139.966 99.583, 141.307 99.073 C 142.647 98.564, 148.903 98.005, 155.207 97.832 C 167.866 97.483, 165.530 96.806, 185.386 106.585 C 192.260 109.972, 196.194 112.603, 198.303 115.227 C 199.970 117.302, 201.466 118.867, 201.627 118.706 C 201.788 118.545, 200.926 115.578, 199.710 112.113 C 197.657 106.262, 197.109 105.601, 192 102.820 C 188.975 101.174, 186.072 99.416, 185.550 98.913 C 184.295 97.707, 183 97.751, 183 99 C 183 99.550, 183.627 100, 184.393 100 C 185.159 100, 186.045 100.675, 186.362 101.500 C 187.132 103.509, 186.558 103.413, 180.600 100.545 C 171.234 96.036, 166.893 95.030, 156.750 95.015 C 150.926 95.006, 147 94.597, 147 94 C 147 93.140, 150.466 92.572, 154.750 92.731 C 155.438 92.757, 156 92.378, 156 91.889 C 156 90.661, 147.264 90.763, 146.500 92 M 179.813 97.683 C 180.534 97.972, 181.397 97.936, 181.729 97.604 C 182.061 97.272, 181.471 97.036, 180.417 97.079 C 179.252 97.127, 179.015 97.364, 179.813 97.683 M 196.464 128.626 C 193.734 131.840, 189.363 136.608, 186.750 139.221 C 184.137 141.835, 182 144.314, 182 144.731 C 182 145.147, 186.556 140.932, 192.123 135.364 C 197.691 129.796, 202.063 124.688, 201.837 124.012 C 201.612 123.336, 199.194 125.413, 196.464 128.626 M 153 134 C 153 134.550, 153.927 135, 155.059 135 C 156.191 135, 156.840 134.550, 156.500 134 C 156.160 133.450, 155.234 133, 154.441 133 C 153.648 133, 153 133.450, 153 134 M 176 137.794 C 176 139.423, 175.302 141.334, 174.449 142.042 C 173.135 143.133, 172.806 142.976, 172.294 141.017 C 171.798 139.120, 171.489 138.955, 170.575 140.102 C 168.322 142.927, 164.864 144, 158.014 144 C 154.005 144, 151 144.428, 151 145 C 151 145.550, 153.420 146, 156.378 146 C 159.976 146, 162.174 146.504, 163.020 147.524 C 164.867 149.750, 163.653 150.371, 156.712 150.746 C 149.832 151.118, 146.065 149.740, 144.539 146.294 C 144.011 145.100, 142.774 143.913, 141.789 143.655 C 139.330 143.012, 139.542 141.105, 142.181 140.129 C 143.973 139.466, 143.507 139.204, 139.578 138.666 C 136.946 138.305, 134.370 138.271, 133.853 138.591 C 132.206 139.609, 136.261 144.557, 143.500 150.362 C 150.142 155.688, 150.790 155.975, 156.167 155.987 C 159.283 155.994, 161.983 155.662, 162.167 155.250 C 162.350 154.838, 165.875 151.584, 170 148.019 C 178.827 140.391, 179.089 140.080, 178.756 137.578 C 178.321 134.314, 176 134.496, 176 137.794 M 146.505 139.992 C 145.940 140.906, 160.835 140.296, 161.917 139.360 C 162.146 139.162, 158.910 139, 154.726 139 C 150.541 139, 146.842 139.446, 146.505 139.992 M 137 142.500 C 137 143.325, 137.450 144, 138 144 C 138.550 144, 139 143.325, 139 142.500 C 139 141.675, 138.550 141, 138 141 C 137.450 141, 137 141.675, 137 142.500 M 172.264 152.506 C 170.019 154.428, 167.770 156, 167.265 156 C 166.761 156, 165.292 157.125, 164 158.500 C 161.751 160.894, 161.737 161, 163.664 161 C 164.771 161, 168.337 158.573, 171.588 155.606 C 178.144 149.625, 178.721 146.979, 172.264 152.506 M 111 158.117 C 111 158.704, 112.013 160.518, 113.250 162.150 C 115.809 165.524, 125.216 174.951, 126.053 174.980 C 126.357 174.991, 126.282 172.412, 125.887 169.250 C 125.492 166.088, 125.131 162.785, 125.084 161.910 C 124.959 159.556, 111 155.796, 111 158.117 M 221.250 159.138 C 220.563 159.832, 220 161.009, 220 161.753 C 220 162.497, 218.875 164.762, 217.500 166.785 C 216.017 168.968, 215 171.880, 215 173.945 L 215 177.425 219.970 172.529 C 223.183 169.365, 224.624 167.252, 224.045 166.554 C 223.552 165.960, 223.003 163.765, 222.825 161.676 C 222.564 158.629, 222.252 158.127, 221.250 159.138 M 128.580 162.258 C 128.140 163.224, 128.144 165.699, 128.588 167.758 C 129.341 171.245, 129.421 171.312, 129.764 168.750 C 129.967 167.238, 129.964 164.762, 129.757 163.250 C 129.445 160.973, 129.243 160.802, 128.580 162.258 M 134 173 L 134 184 157.434 184 L 180.867 184 181.184 173.902 C 181.504 163.660, 181.127 161.937, 179.099 164.381 C 176.149 167.935, 156.578 171.558, 148 170.137 C 141.393 169.042, 137.003 166.823, 136.352 164.250 C 135.018 158.976, 134 162.763, 134 173 M 98 163.844 C 98 164.308, 100.688 166.844, 103.973 169.479 C 107.259 172.114, 110.669 175.372, 111.552 176.719 C 113.035 178.983, 113.025 179.314, 111.423 181.085 C 110.067 182.583, 108.328 183, 103.427 183 C 97.347 183, 97.100 182.897, 95 179.500 C 93.810 177.575, 92.424 176, 91.918 176 C 91.077 176, 90.892 176.595, 90.600 180.250 C 90.341 183.485, 86.301 183.003, 82.217 179.250 C 81.469 178.563, 80.777 177.999, 80.679 177.999 C 80.580 177.998, 80.654 180.473, 80.843 183.499 C 81.031 186.524, 81.623 189, 82.159 189 C 82.695 189, 84.608 187.875, 86.411 186.500 C 89.629 184.045, 90.019 184, 107.844 184 C 117.830 184, 126 183.637, 126 183.193 C 126 182.748, 123.961 180.947, 121.468 179.190 C 118.975 177.433, 116.635 175.209, 116.268 174.248 C 115.901 173.287, 114.791 171.628, 113.800 170.561 C 112.810 169.495, 112 168.302, 112 167.909 C 112 167.517, 110.650 166.725, 109 166.150 C 105.261 164.846, 105.168 165.760, 108.750 168.623 C 110.263 169.832, 111.202 171.122, 110.837 171.490 C 109.989 172.346, 105.274 169.344, 101.849 165.768 C 99.127 162.926, 98 162.363, 98 163.844 M 139 164 C 139 164.550, 140.152 165, 141.559 165 C 143.010 165, 143.851 164.567, 143.500 164 C 143.160 163.450, 142.009 163, 140.941 163 C 139.873 163, 139 163.450, 139 164 M 185.374 173.500 C 185.376 179.550, 185.541 181.896, 185.740 178.713 C 185.939 175.531, 185.937 170.581, 185.736 167.713 C 185.535 164.846, 185.372 167.450, 185.374 173.500 M 189 173.906 L 189 184 194 184 C 197.250 184, 199 183.576, 199 182.788 C 199 182.121, 200.912 179.592, 203.250 177.168 C 205.588 174.743, 206.595 173.222, 205.489 173.787 C 204.383 174.352, 202.625 175.756, 201.584 176.907 C 199.710 178.978, 197 179.744, 197 178.203 C 197 177.765, 198.800 175.648, 201 173.500 C 203.200 171.352, 205 169.247, 205 168.823 C 205 167.415, 199.573 165.244, 194.250 164.523 L 189 163.812 189 173.906 M 224.495 175.903 C 219.884 182.902, 219.736 183.334, 221.513 184.633 C 222.541 185.385, 223.893 186, 224.517 186 C 226.948 186, 230 190.627, 230 194.314 C 230 198.651, 230.813 198.892, 234 195.500 C 235.292 194.125, 236.034 193, 235.649 193 C 235.264 193, 235.618 191.705, 236.437 190.121 C 237.792 187.501, 237.765 187.098, 236.134 185.621 C 235.149 184.730, 233.815 184, 233.171 184 C 232.527 184, 232 182.650, 232 181 C 232 177.294, 230.604 177.186, 227.616 180.660 C 223.493 185.453, 222.766 182.405, 226.601 176.409 C 228.542 173.375, 229.954 170.362, 229.738 169.715 C 229.523 169.068, 227.163 171.853, 224.495 175.903 M 232.663 203.435 C 232.360 204.225, 232.650 205.091, 233.306 205.359 C 234.160 205.709, 234.073 206.154, 233 206.924 C 231.667 207.880, 231.667 208.108, 233 208.969 C 234.236 209.768, 234.280 210.294, 233.250 211.956 C 231.138 215.364, 231.738 216.134, 236.250 215.807 C 240.225 215.520, 240.520 215.293, 240.810 212.296 C 241.201 208.251, 239.291 204.309, 237.707 205.893 C 235.854 207.746, 234.927 207.137, 235.589 204.500 C 236.050 202.665, 235.818 202, 234.715 202 C 233.890 202, 232.966 202.646, 232.663 203.435 M 228 208.500 C 227.123 209.557, 227.018 210.418, 227.685 211.085 C 228.351 211.751, 229.123 211.557, 230 210.500 C 230.877 209.443, 230.982 208.582, 230.315 207.915 C 229.649 207.249, 228.877 207.443, 228 208.500 M 71.506 216.006 C 73.495 218.205, 74.586 217.970, 73.655 215.543 C 73.329 214.694, 72.304 214, 71.376 214 C 69.837 214, 69.849 214.175, 71.506 216.006 M 72.635 220.624 C 74.321 221.316, 71.985 225.738, 69.500 226.555 C 67.529 227.202, 67.529 227.219, 69.462 227.720 C 70.541 228, 71.591 227.727, 71.795 227.114 C 72 226.501, 73.704 226, 75.583 226 C 77.463 226, 79 225.635, 79 225.188 C 79 224.217, 73.418 219.966, 72.290 220.079 C 71.856 220.122, 72.011 220.368, 72.635 220.624 M 74.500 229 C 74.160 229.550, 71.714 230, 69.063 230 C 65.783 230, 63.807 230.532, 62.872 231.666 C 61.627 233.177, 61.778 233.256, 64.500 232.516 C 66.150 232.068, 68.625 231.610, 70 231.498 C 73.547 231.211, 77 229.921, 77 228.883 C 77 227.683, 75.264 227.764, 74.500 229 M 75.750 234.689 C 74.787 234.941, 74 235.564, 74 236.073 C 74 237.532, 76.626 237.155, 78 235.500 C 79.259 233.983, 78.919 233.861, 75.750 234.689 M 88 239 C 88 240.100, 88.450 241, 89 241 C 89.550 241, 90 240.100, 90 239 C 90 237.900, 89.550 237, 89 237 C 88.450 237, 88 237.900, 88 239" stroke="none" fill="black" fill-rule="evenodd"/>
	<path fill-opacity="0.129" d="M 153.500 38.685 C 150.200 39.469, 145.557 40.527, 143.183 41.037 C 137.734 42.208, 137.882 42.099, 135.510 46.667 C 134.415 48.775, 133.290 50.725, 133.010 51 C 132.420 51.579, 130.707 54.583, 127.948 59.875 C 126.880 61.925, 124.427 65.132, 122.498 67.002 C 117.533 71.814, 109.232 89.178, 108.363 96.567 C 107.759 101.710, 107.114 103.033, 103.141 107.280 C 98.742 111.983, 98.647 112.219, 99.903 115.313 C 101.084 118.223, 101.579 119.970, 103.569 128.238 C 104.085 130.379, 103.823 131.106, 102.364 131.578 C 101.339 131.910, 99.600 132.570, 98.500 133.046 C 97.400 133.521, 94.716 134.623, 92.537 135.493 C 87.774 137.396, 85.008 139.741, 84.976 141.905 C 84.963 142.782, 83.147 144.836, 80.940 146.469 C 78.734 148.102, 76.684 150.577, 76.386 151.969 C 75.663 155.348, 74.044 158.859, 71.530 162.500 C 68.947 166.242, 66.606 171.414, 63.381 180.500 C 62.405 183.250, 60.795 186.976, 59.803 188.780 C 58.811 190.585, 58 192.503, 58 193.043 C 58 193.582, 56.481 197.281, 54.625 201.262 C 51.583 207.788, 49.720 212.022, 46.932 218.750 C 46.420 219.988, 45.581 222.012, 45.070 223.250 C 41.876 230.975, 41.821 232.550, 44.546 238.506 C 46.068 241.835, 46.935 245.136, 46.611 246.371 C 45.744 249.672, 49.725 260.063, 53.551 264.489 C 55.448 266.683, 57 268.821, 57 269.239 C 57 269.658, 52.302 270, 46.559 270 C 40.677 270, 35.848 270.437, 35.500 271 C 35.100 271.647, 39.462 272, 47.858 272 C 57.258 272, 60.947 272.340, 61.245 273.234 C 61.545 274.135, 65.813 274.495, 77.078 274.570 C 90.949 274.662, 92.880 274.890, 96.280 276.836 C 100.042 278.989, 100.368 279, 160.459 279 C 213.996 279, 221.035 278.822, 222.426 277.431 C 225.277 274.581, 230.201 274.017, 251.689 274.082 C 263.384 274.118, 273.526 273.784, 274.227 273.341 C 274.927 272.898, 277.750 272.253, 280.500 271.909 C 283.903 271.482, 281.427 271.237, 272.750 271.141 C 262.146 271.024, 260 270.748, 260 269.500 C 260 268.675, 260.398 268, 260.883 268 C 261.369 268, 262.031 267.212, 262.354 266.250 C 262.932 264.530, 263.639 263.322, 267.371 257.680 C 269.766 254.060, 270.524 244.351, 269.025 236.500 C 268.396 233.200, 267.633 229.033, 267.330 227.241 C 267.027 225.448, 266.379 223.734, 265.890 223.432 C 265.400 223.129, 265 222.109, 265 221.163 C 265 219.485, 260.771 205.480, 259.062 201.500 C 258.590 200.400, 257.483 197.857, 256.602 195.849 C 255.721 193.841, 255 191.923, 255 191.588 C 255 191.253, 254.131 189.071, 253.069 186.739 C 249.524 178.959, 248 172.984, 248 166.865 C 248 161.267, 247.731 160.531, 244.500 157.300 C 241.700 154.500, 241 153.022, 241 149.911 C 241 146.856, 240.053 144.776, 236.579 140.209 C 232.073 134.284, 228.408 131.889, 218.500 128.398 C 208.286 124.798, 206.730 122.277, 206.532 109 C 206.380 98.861, 206.454 99.067, 196.975 82.500 C 191.029 72.107, 191.053 72.238, 194.500 69 C 198.665 65.087, 199.312 65.913, 179.610 50 C 177.907 48.625, 174.089 45.138, 171.124 42.250 C 165.108 36.390, 164.058 36.178, 153.500 38.685 M 147.813 43.683 C 148.534 43.972, 149.397 43.936, 149.729 43.604 C 150.061 43.272, 149.471 43.036, 148.417 43.079 C 147.252 43.127, 147.015 43.364, 147.813 43.683 M 169.500 46 C 171.081 47.650, 172.852 48.993, 173.437 48.984 C 174.022 48.975, 172.977 47.625, 171.114 45.984 C 166.744 42.132, 165.803 42.141, 169.500 46 M 139.557 46.223 C 138.701 47.445, 138 48.895, 138 49.445 C 138 49.995, 138.701 49.445, 139.557 48.223 C 140.413 47, 141.789 46, 142.616 46 C 143.442 46, 143.840 45.550, 143.500 45 C 142.524 43.421, 141.240 43.819, 139.557 46.223 M 174.600 50.674 C 175.205 51.128, 175.985 52.175, 176.332 53 C 176.777 54.054, 176.896 53.930, 176.732 52.583 C 176.605 51.528, 175.825 50.482, 175 50.257 C 174.035 49.994, 173.893 50.143, 174.600 50.674 M 136.079 52.583 C 136.127 53.748, 136.364 53.985, 136.683 53.188 C 136.972 52.466, 136.936 51.603, 136.604 51.271 C 136.272 50.939, 136.036 51.529, 136.079 52.583 M 162 53.902 C 162 54.940, 163.902 56.443, 164.466 55.850 C 164.649 55.658, 164.169 54.920, 163.399 54.211 C 162.630 53.501, 162 53.362, 162 53.902 M 172 56 C 173.688 57.650, 175.363 59, 175.722 59 C 176.081 59, 175.081 57.650, 173.500 56 C 171.919 54.350, 170.244 53, 169.778 53 C 169.312 53, 170.312 54.350, 172 56 M 132 59 C 131.146 60.596, 131.240 61, 132.465 61 C 133.333 61, 134 60.131, 134 59 C 134 57.900, 133.791 57, 133.535 57 C 133.280 57, 132.589 57.900, 132 59 M 164.813 60.683 C 165.534 60.972, 166.397 60.936, 166.729 60.604 C 167.061 60.272, 166.471 60.036, 165.417 60.079 C 164.252 60.127, 164.015 60.364, 164.813 60.683 M 169.638 61.500 C 169.955 62.325, 171.178 62.986, 172.357 62.968 C 174.456 62.937, 174.461 62.907, 172.559 61.468 C 170.068 59.584, 168.908 59.597, 169.638 61.500 M 188 65 C 186.707 65.835, 186.734 65.971, 188.191 65.985 C 189.121 65.993, 190.160 65.550, 190.500 65 C 191.282 63.734, 189.958 63.734, 188 65 M 133 66 C 133 66.550, 133.450 67, 134 67 C 134.550 67, 135 66.550, 135 66 C 135 65.450, 134.550 65, 134 65 C 133.450 65, 133 65.450, 133 66 M 164 66 C 164 66.550, 165.238 66.993, 166.750 66.985 C 168.893 66.973, 169.169 66.755, 168 66 C 166.043 64.736, 164 64.736, 164 66 M 191 67 C 191 67.550, 191.450 68, 192 68 C 192.550 68, 193 67.550, 193 67 C 193 66.450, 192.550 66, 192 66 C 191.450 66, 191 66.450, 191 67 M 130 68.059 C 130 68.641, 130.450 68.840, 131 68.500 C 131.550 68.160, 132 67.684, 132 67.441 C 132 67.198, 131.550 67, 131 67 C 130.450 67, 130 67.477, 130 68.059 M 124.539 71.492 C 122.911 72.823, 121.795 74.128, 122.060 74.393 C 122.325 74.658, 124.056 73.553, 125.906 71.938 C 129.936 68.419, 128.766 68.037, 124.539 71.492 M 177.750 69.662 C 178.438 69.940, 179.563 69.940, 180.250 69.662 C 180.938 69.385, 180.375 69.158, 179 69.158 C 177.625 69.158, 177.063 69.385, 177.750 69.662 M 183.813 71.683 C 184.534 71.972, 185.397 71.936, 185.729 71.604 C 186.061 71.272, 185.471 71.036, 184.417 71.079 C 183.252 71.127, 183.015 71.364, 183.813 71.683 M 128 74 C 128 74.550, 128.450 75, 129 75 C 129.550 75, 130 74.550, 130 74 C 130 73.450, 129.550 73, 129 73 C 128.450 73, 128 73.450, 128 74 M 188.032 74.250 C 188.014 75.213, 188.417 76, 188.927 76 C 189.436 76, 190.059 76.787, 190.311 77.750 C 190.666 79.110, 190.794 79.152, 190.884 77.941 C 190.948 77.084, 190.339 75.509, 189.532 74.441 C 188.203 72.685, 188.061 72.667, 188.032 74.250 M 124 76 C 123.207 76.490, 122.890 77.223, 123.296 77.629 C 123.701 78.035, 124.558 77.842, 125.200 77.200 C 126.711 75.689, 125.868 74.846, 124 76 M 156.500 76 C 156.840 76.550, 157.541 77, 158.059 77 C 158.577 77, 159 76.550, 159 76 C 159 75.450, 158.298 75, 157.441 75 C 156.584 75, 156.160 75.450, 156.500 76 M 146.813 77.683 C 147.534 77.972, 148.397 77.936, 148.729 77.604 C 149.061 77.272, 148.471 77.036, 147.417 77.079 C 146.252 77.127, 146.015 77.364, 146.813 77.683 M 118.174 81.055 C 116.895 82.675, 116.128 84, 116.469 84 C 117.234 84, 122 79.300, 122 78.545 C 122 77.234, 120.324 78.334, 118.174 81.055 M 129 81 C 128.099 81.582, 127.975 81.975, 128.691 81.985 C 129.346 81.993, 130.160 81.550, 130.500 81 C 131.267 79.758, 130.921 79.758, 129 81 M 148.813 83.683 C 149.534 83.972, 150.397 83.936, 150.729 83.604 C 151.061 83.272, 150.471 83.036, 149.417 83.079 C 148.252 83.127, 148.015 83.364, 148.813 83.683 M 119.670 88.614 C 117.564 90.572, 116.071 92.405, 116.354 92.687 C 116.637 92.970, 117.882 92.256, 119.122 91.101 C 120.363 89.945, 121.742 89, 122.189 89 C 122.635 89, 123 88.362, 123 87.583 C 123 86.804, 123.563 85.940, 124.250 85.662 C 124.938 85.385, 125.050 85.135, 124.500 85.106 C 123.950 85.077, 121.777 86.656, 119.670 88.614 M 157.813 85.683 C 158.534 85.972, 159.397 85.936, 159.729 85.604 C 160.061 85.272, 159.471 85.036, 158.417 85.079 C 157.252 85.127, 157.015 85.364, 157.813 85.683 M 151.500 87 C 151.160 87.550, 151.557 88, 152.382 88 C 153.207 88, 154.160 87.550, 154.500 87 C 154.840 86.450, 154.443 86, 153.618 86 C 152.793 86, 151.840 86.450, 151.500 87 M 194.638 87.500 C 194.955 88.325, 195.391 89, 195.607 89 C 195.823 89, 196 88.325, 196 87.500 C 196 86.675, 195.564 86, 195.031 86 C 194.499 86, 194.322 86.675, 194.638 87.500 M 140.250 89.854 C 137.363 90.745, 135 91.817, 135 92.237 C 135 93.364, 138.780 93.165, 139.500 92 C 139.840 91.450, 141.216 91, 142.559 91 C 143.902 91, 145 90.498, 145 89.883 C 145 89.259, 145.882 88.997, 146.999 89.289 C 148.098 89.577, 149.250 89.404, 149.558 88.906 C 150.377 87.581, 146.254 88, 140.250 89.854 M 172.750 88.662 C 173.438 88.940, 174.563 88.940, 175.250 88.662 C 175.938 88.385, 175.375 88.158, 174 88.158 C 172.625 88.158, 172.063 88.385, 172.750 88.662 M 179.500 90 C 179.160 90.550, 179.610 91, 180.500 91 C 181.390 91, 181.840 90.550, 181.500 90 C 181.160 89.450, 180.710 89, 180.500 89 C 180.290 89, 179.840 89.450, 179.500 90 M 149.513 90.749 C 147.320 90.969, 144.903 91.665, 144.143 92.296 C 143.383 92.927, 140.002 93.480, 136.630 93.525 C 133.259 93.569, 129.150 94.166, 127.500 94.852 C 120.446 97.782, 119 98.529, 119 99.244 C 119 99.660, 118.484 100, 117.854 100 C 117.223 100, 114.631 101.912, 112.092 104.250 C 109.554 106.588, 106.245 109.394, 104.739 110.487 C 102.906 111.818, 102 113.379, 102 115.210 C 102 119.622, 106.964 128.850, 112.589 134.892 C 117.434 140.097, 120.050 141.846, 133.500 148.871 C 136.250 150.307, 138.650 151.824, 138.833 152.241 C 139.327 153.366, 142 153.162, 142 152 C 142 151.450, 141.363 151, 140.583 151 C 139.804 151, 139.017 150.662, 138.833 150.250 C 138.414 149.306, 131.350 144, 130.512 144 C 130.170 144, 127.259 142.213, 124.042 140.029 C 116.587 134.966, 108.568 126.698, 108.269 123.767 C 108.142 122.520, 107.766 119.906, 107.434 117.958 C 106.894 114.795, 107.266 113.967, 110.914 110.208 C 113.160 107.894, 115.872 106, 116.940 106 C 118.008 106, 119.127 105.604, 119.426 105.119 C 119.726 104.635, 120.990 104.005, 122.235 103.719 C 123.481 103.433, 127.096 102.483, 130.268 101.608 C 136.836 99.795, 163.132 97.565, 166.872 98.504 C 168.234 98.846, 175.354 102.061, 182.693 105.649 C 192.655 110.519, 196.396 112.866, 197.453 114.909 C 198.231 116.414, 199.631 118.279, 200.564 119.053 C 202.120 120.344, 202.202 120.173, 201.559 116.980 C 199.755 108.032, 198.187 105.583, 192.037 102.108 C 184.586 97.899, 178.339 95, 176.719 95 C 173.979 95, 175.582 96.749, 179.011 97.503 C 180.655 97.864, 182 98.573, 182 99.079 C 182 100.531, 180.360 100.172, 176.280 97.826 C 173.124 96.011, 170.477 95.578, 160.250 95.205 C 153.512 94.959, 148 94.363, 148 93.879 C 148 93.396, 150.363 92.968, 153.250 92.930 C 159.322 92.848, 164.745 91.190, 159.332 91.070 C 157.589 91.032, 155.564 90.854, 154.832 90.674 C 154.099 90.495, 151.706 90.529, 149.513 90.749 M 166.473 91.044 C 166.148 91.570, 166.097 92, 166.359 92 C 166.622 92, 167.548 92.273, 168.418 92.607 C 169.288 92.941, 170 92.764, 170 92.214 C 170 90.815, 167.191 89.883, 166.473 91.044 M 172.500 94 C 172.840 94.550, 173.316 95, 173.559 95 C 173.802 95, 174 94.550, 174 94 C 174 93.450, 173.523 93, 172.941 93 C 172.359 93, 172.160 93.450, 172.500 94 M 189.813 93.683 C 190.534 93.972, 191.397 93.936, 191.729 93.604 C 192.061 93.272, 191.471 93.036, 190.417 93.079 C 189.252 93.127, 189.015 93.364, 189.813 93.683 M 199.079 94.583 C 199.127 95.748, 199.364 95.985, 199.683 95.188 C 199.972 94.466, 199.936 93.603, 199.604 93.271 C 199.272 92.939, 199.036 93.529, 199.079 94.583 M 199.902 100.214 C 201.554 101.981, 203.200 103.134, 203.559 102.774 C 204.348 101.985, 199.544 97, 197.995 97 C 197.392 97, 198.250 98.446, 199.902 100.214 M 183.500 101 C 183.840 101.550, 184.316 102, 184.559 102 C 184.802 102, 185 101.550, 185 101 C 185 100.450, 184.523 100, 183.941 100 C 183.359 100, 183.160 100.450, 183.500 101 M 197.875 126.250 C 189.879 136.571, 178.146 147.674, 165.624 156.769 C 162.229 159.236, 161.589 161.297, 164.071 161.775 C 166.040 162.154, 203 125.959, 203 123.651 C 203 120.925, 201.354 121.760, 197.875 126.250 M 153 134 C 153 134.550, 153.900 135, 155 135 C 156.100 135, 157 134.550, 157 134 C 157 133.450, 156.100 133, 155 133 C 153.900 133, 153 133.450, 153 134 M 175.545 137.324 C 175.902 138.747, 175.570 140.112, 174.686 140.845 C 173.514 141.818, 173.127 141.617, 172.616 139.771 L 171.987 137.500 170.244 139.557 C 167.573 142.709, 163.540 144, 156.370 144 C 151.587 144, 149.944 144.335, 150.246 145.250 C 150.502 146.024, 153.009 146.613, 156.829 146.798 C 163.460 147.118, 164.504 147.994, 160.453 149.839 C 155.279 152.197, 147.087 150.110, 144.531 145.784 C 143.627 144.253, 142.462 143, 141.943 143 C 141.425 143, 141 142.659, 141 142.242 C 141 141.825, 145.609 141.355, 151.243 141.199 C 161.310 140.918, 165.694 139.702, 160.895 138.522 C 159.578 138.197, 154.675 138.060, 150 138.216 C 145.325 138.372, 140.141 138.150, 138.481 137.721 C 136.388 137.181, 134.856 137.385, 133.490 138.383 C 131.607 139.760, 131.853 140.145, 139.010 147.013 C 148.012 155.653, 150.262 156.919, 156.193 156.682 C 160.185 156.522, 161.695 155.722, 168.419 150.200 C 178.889 141.602, 182.561 135, 176.874 135 C 175.372 135, 175.087 135.499, 175.545 137.324 M 105 143 C 105 143.550, 105.702 144, 106.559 144 C 107.416 144, 107.840 143.550, 107.500 143 C 107.160 142.450, 106.459 142, 105.941 142 C 105.423 142, 105 142.450, 105 143 M 197 142.800 C 197 143.423, 195.410 145.523, 193.467 147.467 C 191.100 149.834, 190.450 151, 191.498 151 C 192.359 151, 193.331 150.302, 193.658 149.448 C 194.092 148.319, 195.035 148.068, 197.127 148.528 C 198.978 148.934, 200 148.754, 200 148.020 C 200 147.394, 199.550 147.160, 199 147.500 C 197.132 148.655, 195.930 147, 197.078 144.854 C 197.674 143.740, 197.901 142.567, 197.581 142.248 C 197.261 141.928, 197 142.177, 197 142.800 M 91 145 C 91 145.550, 91.450 146, 92 146 C 92.550 146, 93 145.550, 93 145 C 93 144.450, 92.550 144, 92 144 C 91.450 144, 91 144.450, 91 145 M 109 145 C 109 145.550, 109.702 146, 110.559 146 C 111.416 146, 111.840 145.550, 111.500 145 C 111.160 144.450, 110.459 144, 109.941 144 C 109.423 144, 109 144.450, 109 145 M 223.500 147 C 223.840 147.550, 224.316 148, 224.559 148 C 224.802 148, 225 147.550, 225 147 C 225 146.450, 224.523 146, 223.941 146 C 223.359 146, 223.160 146.450, 223.500 147 M 216.813 148.683 C 217.534 148.972, 218.397 148.936, 218.729 148.604 C 219.061 148.272, 218.471 148.036, 217.417 148.079 C 216.252 148.127, 216.015 148.364, 216.813 148.683 M 104 150.559 C 104 151.416, 104.457 151.835, 105.016 151.490 C 105.575 151.144, 105.774 150.443, 105.457 149.931 C 104.600 148.544, 104 148.802, 104 150.559 M 234.079 150.583 C 234.127 151.748, 234.364 151.985, 234.683 151.188 C 234.972 150.466, 234.936 149.603, 234.604 149.271 C 234.272 148.939, 234.036 149.529, 234.079 150.583 M 80.459 151.067 C 80.096 151.653, 80.014 152.348, 80.276 152.610 C 80.538 152.872, 81.019 152.392, 81.345 151.543 C 82.021 149.781, 81.445 149.471, 80.459 151.067 M 98.543 150.931 C 98.226 151.443, 98.425 152.144, 98.984 152.490 C 99.543 152.835, 100 152.416, 100 151.559 C 100 149.802, 99.400 149.544, 98.543 150.931 M 207.269 150.693 C 208.242 150.947, 209.592 150.930, 210.269 150.656 C 210.946 150.382, 210.150 150.175, 208.500 150.195 C 206.850 150.215, 206.296 150.439, 207.269 150.693 M 201 152.622 C 201 153.951, 201.271 154.020, 202.500 153 C 203.325 152.315, 204 151.585, 204 151.378 C 204 151.170, 203.325 151, 202.500 151 C 201.675 151, 201 151.730, 201 152.622 M 121 152.829 C 121 153.405, 121.787 153.844, 122.750 153.804 C 123.713 153.765, 125.400 154.084, 126.500 154.514 C 127.908 155.063, 128.204 154.976, 127.500 154.218 C 126.037 152.643, 121 151.567, 121 152.829 M 234.158 155 C 234.158 156.375, 234.385 156.938, 234.662 156.250 C 234.940 155.563, 234.940 154.438, 234.662 153.750 C 234.385 153.063, 234.158 153.625, 234.158 155 M 110.406 157.385 C 109.362 160.104, 125.070 177.315, 126.493 175.011 C 127.581 173.251, 126.042 161.280, 124.570 160.058 C 123.864 159.473, 121.310 158.600, 118.893 158.120 C 116.477 157.639, 113.716 156.919, 112.758 156.519 C 111.598 156.035, 110.813 156.324, 110.406 157.385 M 195.813 157.683 C 196.534 157.972, 197.397 157.936, 197.729 157.604 C 198.061 157.272, 197.471 157.036, 196.417 157.079 C 195.252 157.127, 195.015 157.364, 195.813 157.683 M 218.750 159.572 C 215.901 161.118, 214.937 162.622, 217.402 161.676 C 219.222 160.978, 220.231 162.009, 219.098 163.408 C 215.063 168.388, 212.750 176.110, 214.897 177.436 C 215.856 178.029, 227 166.525, 227 164.943 C 227 163.562, 225.251 163.792, 224.662 165.250 C 224.385 165.938, 224.122 164.588, 224.079 162.250 C 223.992 157.586, 223.171 157.173, 218.750 159.572 M 84 160.441 C 84 161.298, 84.450 162, 85 162 C 85.550 162, 86 161.577, 86 161.059 C 86 160.541, 85.550 159.840, 85 159.500 C 84.450 159.160, 84 159.584, 84 160.441 M 104.015 159.559 C 104.038 160.941, 105.814 163.520, 106.364 162.969 C 106.624 162.710, 106.198 161.624, 105.418 160.557 C 104.638 159.491, 104.007 159.041, 104.015 159.559 M 190 160 C 190 160.550, 190.423 161, 190.941 161 C 191.459 161, 192.160 160.550, 192.500 160 C 192.840 159.450, 192.416 159, 191.559 159 C 190.702 159, 190 159.450, 190 160 M 96.175 162.796 C 97.637 164.533, 101.820 168.489, 105.472 171.587 C 113.433 178.341, 113.959 181.071, 107.500 182.126 C 100.842 183.214, 97.094 182.119, 94.664 178.377 C 91.744 173.880, 89.565 173.042, 90.404 176.739 L 91.031 179.500 89.105 177.250 C 88.046 176.012, 86.914 175, 86.590 175 C 85.296 175, 86.121 177.121, 88.239 179.239 C 90.273 181.273, 90.314 181.508, 88.691 181.821 C 87.709 182.010, 85.322 180.957, 83.387 179.481 C 79.547 176.552, 78.230 176.692, 79.919 179.849 C 80.514 180.960, 81 183.698, 81 185.934 C 81 190.721, 82.525 191.199, 86 187.500 C 88.342 185.007, 88.398 185, 107.008 185 C 117.270 185, 125.978 184.689, 126.359 184.308 C 126.739 183.928, 124.452 181.053, 121.275 177.919 C 118.099 174.786, 113.823 170.383, 111.773 168.134 C 109.301 165.423, 107.511 164.250, 106.461 164.653 C 105.140 165.160, 105.345 165.750, 107.686 168.195 C 109.964 170.572, 110.118 170.994, 108.498 170.421 C 107.399 170.032, 104.925 168.284, 103 166.535 C 101.075 164.787, 98.154 162.520, 96.509 161.497 L 93.517 159.638 96.175 162.796 M 128 164.860 C 128 166.984, 128.338 170.921, 128.750 173.610 L 129.500 178.500 130 171 C 130.534 162.992, 130.313 161, 128.893 161 C 128.402 161, 128 162.737, 128 164.860 M 133.471 162.214 C 133.171 162.996, 133.055 168.330, 133.213 174.068 L 133.500 184.500 157.121 184.768 L 180.743 185.036 181.371 181.893 C 181.717 180.164, 182 175.206, 182 170.875 C 182 164.542, 181.706 163, 180.500 163 C 179.675 163, 179 163.406, 179 163.902 C 179 166.193, 166.621 169.012, 154 169.595 C 146.694 169.933, 144.875 169.673, 141.051 167.744 C 138.604 166.510, 136.411 164.825, 136.176 164 C 135.832 162.790, 136.006 162.741, 137.075 163.750 C 137.804 164.438, 139.408 165, 140.641 165 C 141.874 165, 143.160 165.450, 143.500 166 C 144.217 167.161, 148 167.366, 148 166.244 C 148 165.380, 143.764 163.491, 139.843 162.608 C 138.381 162.278, 136.473 161.735, 135.601 161.401 C 134.692 161.052, 133.784 161.398, 133.471 162.214 M 184.494 163.154 C 183.533 165.659, 184.418 184.010, 185.500 184.010 C 186.847 184.009, 187.382 163.982, 186.070 162.670 C 185.398 161.998, 184.877 162.158, 184.494 163.154 M 240.292 163.771 C 241.174 164.744, 242.340 166.657, 242.884 168.021 C 243.843 170.425, 243.875 170.432, 243.937 168.261 C 244.002 165.956, 241.277 162, 239.623 162 C 239.110 162, 239.411 162.797, 240.292 163.771 M 74.789 164.744 C 73.015 166.777, 70.992 170.499, 71.017 171.684 C 71.026 172.133, 72.021 170.925, 73.228 169 C 74.435 167.075, 75.877 165.187, 76.433 164.804 C 76.988 164.422, 77.190 163.857, 76.882 163.548 C 76.573 163.240, 75.632 163.778, 74.789 164.744 M 86 163.318 C 86 164.362, 92.241 171.092, 92.743 170.590 C 92.972 170.361, 91.549 168.466, 89.580 166.379 C 87.611 164.291, 86 162.914, 86 163.318 M 189.216 173.750 L 189.500 184.500 193.759 184.808 C 197.126 185.051, 198.161 184.737, 198.699 183.308 C 199.073 182.314, 201.544 179.403, 204.190 176.840 C 211.786 169.482, 210.555 169.268, 201.585 176.389 C 196.134 180.717, 196.205 178.873, 201.693 173.593 L 206.500 168.968 204.239 167.065 C 202.201 165.349, 194.212 163, 190.417 163 C 189.179 163, 188.979 164.783, 189.216 173.750 M 229.190 168.580 C 227.985 169.423, 227 170.556, 227 171.097 C 227 171.946, 223.461 177.539, 222 179 C 221.725 179.275, 220.937 180.506, 220.250 181.737 C 219.100 183.794, 219.269 184.086, 222.358 185.376 C 226.852 187.254, 230.233 191.001, 229.604 193.407 C 229.328 194.461, 229.565 196.188, 230.131 197.245 C 231.119 199.090, 231.237 199.096, 233.126 197.386 C 235.672 195.081, 238.263 189.597, 237.835 187.418 C 237.651 186.481, 236.600 185.216, 235.500 184.607 C 232.593 182.998, 231.914 181.782, 232.509 179.250 C 233.260 176.055, 229.732 176.235, 227.592 179.500 C 226.691 180.875, 225.528 182, 225.008 182 C 223.808 182, 224.811 179.103, 226.912 176.500 C 229.176 173.695, 232.276 167.943, 231.787 167.454 C 231.563 167.229, 230.394 167.736, 229.190 168.580 M 69.158 175 C 69.158 176.375, 69.385 176.938, 69.662 176.250 C 69.940 175.563, 69.940 174.438, 69.662 173.750 C 69.385 173.063, 69.158 173.625, 69.158 175 M 76.079 174.583 C 76.127 175.748, 76.364 175.985, 76.683 175.188 C 76.972 174.466, 76.936 173.603, 76.604 173.271 C 76.272 172.939, 76.036 173.529, 76.079 174.583 M 242.720 175.332 C 241.606 178.165, 241.788 179.612, 243.094 178.306 C 243.695 177.705, 244.020 176.377, 243.814 175.356 C 243.454 173.566, 243.415 173.565, 242.720 175.332 M 75.583 178.750 C 75.280 179.713, 75.436 181.850, 75.930 183.500 C 76.766 186.291, 76.834 186.170, 76.914 181.750 C 77.003 176.815, 76.530 175.747, 75.583 178.750 M 67 179.559 C 67 180.416, 67.450 180.840, 68 180.500 C 68.550 180.160, 69 179.459, 69 178.941 C 69 178.423, 68.550 178, 68 178 C 67.450 178, 67 178.702, 67 179.559 M 234.500 180 C 234.840 180.550, 235.316 181, 235.559 181 C 235.802 181, 236 180.550, 236 180 C 236 179.450, 235.523 179, 234.941 179 C 234.359 179, 234.160 179.450, 234.500 180 M 243.369 181.480 C 242.525 183.680, 243.453 184.364, 244.906 182.613 C 245.724 181.628, 245.766 180.974, 245.041 180.526 C 244.461 180.167, 243.708 180.596, 243.369 181.480 M 239.459 186.067 C 239.096 186.653, 239.040 187.373, 239.333 187.667 C 240.050 188.383, 242 187.121, 242 185.941 C 242 184.663, 240.274 184.748, 239.459 186.067 M 246.733 187.383 C 246.983 188.693, 246.696 190.070, 246.094 190.442 C 245.492 190.814, 245 191.574, 245 192.130 C 245 192.687, 245.675 192.468, 246.500 191.643 C 248.098 190.045, 248.583 185, 247.139 185 C 246.665 185, 246.482 186.072, 246.733 187.383 M 64.079 188.583 C 64.127 189.748, 64.364 189.985, 64.683 189.188 C 64.972 188.466, 64.936 187.603, 64.604 187.271 C 64.272 186.939, 64.036 187.529, 64.079 188.583 M 77 192 C 77 192.550, 77.450 193, 78 193 C 78.550 193, 79 192.550, 79 192 C 79 191.450, 78.550 191, 78 191 C 77.450 191, 77 191.450, 77 192 M 62.079 194.583 C 62.127 195.748, 62.364 195.985, 62.683 195.188 C 62.972 194.466, 62.936 193.603, 62.604 193.271 C 62.272 192.939, 62.036 193.529, 62.079 194.583 M 77.275 197 C 77.358 198.100, 77.780 199, 78.213 199 C 78.646 199, 79 198.100, 79 197 C 79 195.900, 78.578 195, 78.062 195 C 77.546 195, 77.192 195.900, 77.275 197 M 60.079 198.583 C 60.127 199.748, 60.364 199.985, 60.683 199.188 C 60.972 198.466, 60.936 197.603, 60.604 197.271 C 60.272 196.939, 60.036 197.529, 60.079 198.583 M 235.284 200.880 C 231.600 202.736, 230.351 204.925, 232.216 206.257 C 233.094 206.884, 232.785 207.017, 231.237 206.677 C 229.047 206.196, 227 208.253, 227 210.934 C 227 212.503, 229.564 212.231, 230.991 210.511 C 231.671 209.692, 232.655 209.287, 233.178 209.610 C 233.717 209.943, 233.397 211.009, 232.444 212.062 C 230.017 214.744, 231.290 217.003, 235.219 216.985 C 239.998 216.962, 241.273 215.751, 241.273 211.232 C 241.273 206.314, 240.336 204.679, 237.887 205.319 C 235.412 205.966, 235.292 202.496, 237.742 201.125 C 240.802 199.412, 238.627 199.195, 235.284 200.880 M 62 202.441 C 62 203.234, 62.408 204.134, 62.907 204.442 C 63.405 204.751, 63.578 204.102, 63.290 203.001 C 62.679 200.666, 62 200.371, 62 202.441 M 75.500 204 C 75.160 204.550, 75.359 205, 75.941 205 C 76.523 205, 77 204.550, 77 204 C 77 203.450, 76.802 203, 76.559 203 C 76.316 203, 75.840 203.450, 75.500 204 M 253 204.441 C 253 205.298, 253.450 206, 254 206 C 254.550 206, 255 205.577, 255 205.059 C 255 204.541, 254.550 203.840, 254 203.500 C 253.450 203.160, 253 203.584, 253 204.441 M 72 208 C 72.589 209.100, 73.574 210, 74.190 210 C 74.806 210, 74.495 209.100, 73.500 208 C 72.505 206.900, 71.519 206, 71.310 206 C 71.101 206, 71.411 206.900, 72 208 M 255.079 209.583 C 255.127 210.748, 255.364 210.985, 255.683 210.188 C 255.972 209.466, 255.936 208.603, 255.604 208.271 C 255.272 207.939, 255.036 208.529, 255.079 209.583 M 67 209.902 C 67 210.940, 68.902 212.443, 69.466 211.850 C 69.649 211.658, 69.169 210.920, 68.399 210.211 C 67.630 209.501, 67 209.362, 67 209.902 M 53 212.559 C 53 213.416, 53.450 213.840, 54 213.500 C 54.550 213.160, 55 212.459, 55 211.941 C 55 211.423, 54.550 211, 54 211 C 53.450 211, 53 211.702, 53 212.559 M 70 214.417 C 70 215.196, 70.563 216.096, 71.250 216.417 C 72.242 216.880, 72.244 217.120, 71.259 217.580 C 70.311 218.023, 70.371 218.513, 71.509 219.652 C 72.329 220.472, 73 221.586, 73 222.128 C 73 223.493, 66.971 228.979, 64.311 230.035 C 63.107 230.513, 61.606 231.868, 60.975 233.047 C 59.925 235.010, 60.024 235.130, 62.164 234.482 C 63.449 234.093, 64.928 233.376, 65.450 232.888 C 65.973 232.399, 67.998 231.986, 69.950 231.968 C 73.613 231.935, 77.909 229.576, 76.632 228.298 C 76.234 227.901, 75.036 228.121, 73.968 228.788 C 72.901 229.455, 71.234 229.997, 70.264 229.993 C 68.986 229.989, 69.318 229.448, 71.469 228.029 C 73.298 226.824, 75.315 226.292, 76.719 226.644 C 80.498 227.593, 79.509 223.851, 75.238 221.040 C 72.371 219.154, 71.908 218.496, 73.250 218.217 C 75.488 217.752, 75.465 216.731, 73.171 214.655 C 70.930 212.627, 70 212.557, 70 214.417 M 257.079 214.583 C 257.127 215.748, 257.364 215.985, 257.683 215.188 C 257.972 214.466, 257.936 213.603, 257.604 213.271 C 257.272 212.939, 257.036 213.529, 257.079 214.583 M 246.038 216.902 C 247.942 218.499, 249.660 219.651, 249.856 219.463 C 250.488 218.857, 245.134 214, 243.833 214 C 243.142 214, 244.134 215.306, 246.038 216.902 M 51.583 215.866 C 51.152 216.563, 51.070 217.403, 51.400 217.733 C 52.295 218.628, 53.271 217.312, 52.787 215.862 C 52.449 214.846, 52.213 214.846, 51.583 215.866 M 50.158 221 C 50.158 222.375, 50.385 222.938, 50.662 222.250 C 50.940 221.563, 50.940 220.438, 50.662 219.750 C 50.385 219.063, 50.158 219.625, 50.158 221 M 258.543 219.931 C 258.226 220.443, 258.425 221.144, 258.984 221.490 C 259.543 221.835, 260 221.416, 260 220.559 C 260 218.802, 259.400 218.544, 258.543 219.931 M 60.813 223.683 C 61.534 223.972, 62.397 223.936, 62.729 223.604 C 63.061 223.272, 62.471 223.036, 61.417 223.079 C 60.252 223.127, 60.015 223.364, 60.813 223.683 M 245 223.902 C 245 224.940, 246.902 226.443, 247.466 225.850 C 247.649 225.658, 247.169 224.920, 246.399 224.211 C 245.630 223.501, 245 223.362, 245 223.902 M 48.079 225.583 C 48.127 226.748, 48.364 226.985, 48.683 226.188 C 48.972 225.466, 48.936 224.603, 48.604 224.271 C 48.272 223.939, 48.036 224.529, 48.079 225.583 M 255.813 225.683 C 256.534 225.972, 257.397 225.936, 257.729 225.604 C 258.061 225.272, 257.471 225.036, 256.417 225.079 C 255.252 225.127, 255.015 225.364, 255.813 225.683 M 260.015 226.750 C 260.024 227.162, 260.467 228.175, 261 229 C 261.784 230.213, 261.972 230.069, 261.985 228.250 C 261.993 227.012, 261.550 226, 261 226 C 260.450 226, 260.007 226.338, 260.015 226.750 M 233.750 227.689 C 232.787 227.941, 232 228.594, 232 229.141 C 232 229.687, 232.903 229.848, 234.007 229.498 C 235.111 229.147, 237.430 229.567, 239.161 230.430 C 242.824 232.258, 243 232.289, 243 231.114 C 243 230.327, 236.731 226.823, 235.849 227.116 C 235.657 227.180, 234.713 227.438, 233.750 227.689 M 253.604 231.444 C 256.267 233.889, 258.679 235.654, 258.966 235.367 C 259.669 234.664, 251.383 227, 249.921 227 C 249.284 227, 250.942 229, 253.604 231.444 M 46 230.386 C 46 231.698, 46.717 234.060, 47.592 235.636 C 49.029 238.220, 49.114 238.256, 48.460 236 C 48.062 234.625, 47.731 232.262, 47.724 230.750 C 47.718 229.238, 47.328 228, 46.856 228 C 46.385 228, 46 229.074, 46 230.386 M 261.031 231.500 C 261.031 232.050, 261.467 233.175, 262 234 C 262.533 234.825, 262.969 235.050, 262.969 234.500 C 262.969 233.950, 262.533 232.825, 262 232 C 261.467 231.175, 261.031 230.950, 261.031 231.500 M 74.750 234.572 C 73.237 235.393, 72 236.508, 72 237.051 C 72 238.179, 76.840 237.243, 78.739 235.749 C 79.946 234.799, 79.574 232.960, 78.191 233.040 C 77.811 233.062, 76.263 233.751, 74.750 234.572 M 82.182 237.500 C 81.555 238.875, 81.413 240, 81.866 240 C 83.188 240, 86.069 236.403, 85.336 235.669 C 84.148 234.481, 83.345 234.948, 82.182 237.500 M 233 235.839 C 233 236.891, 237.526 239, 239.782 239 C 240.711 239, 239.791 238.100, 237.739 237 C 233.576 234.769, 233 234.628, 233 235.839 M 87.577 237.758 C 86.795 240.222, 87.881 243.209, 89.373 242.699 C 90.592 242.283, 90.339 238.035, 89.013 236.649 C 88.565 236.181, 87.919 236.681, 87.577 237.758 M 69 238 C 69 238.550, 69.477 239, 70.059 239 C 70.641 239, 70.840 238.550, 70.500 238 C 70.160 237.450, 69.684 237, 69.441 237 C 69.198 237, 69 237.450, 69 238 M 50.079 240.583 C 50.127 241.748, 50.364 241.985, 50.683 241.188 C 50.972 240.466, 50.936 239.603, 50.604 239.271 C 50.272 238.939, 50.036 239.529, 50.079 240.583 M 63 240.059 C 63 240.641, 63.450 240.840, 64 240.500 C 64.550 240.160, 65 239.684, 65 239.441 C 65 239.198, 64.550 239, 64 239 C 63.450 239, 63 239.477, 63 240.059 M 229.136 242.750 C 229.237 245.514, 229.393 245.843, 229.732 244 C 229.985 242.625, 230.654 240.938, 231.218 240.250 C 231.964 239.342, 231.801 239, 230.622 239 C 229.390 239, 229.033 239.902, 229.136 242.750 M 242.500 240 C 242.840 240.550, 243.316 241, 243.559 241 C 243.802 241, 244 240.550, 244 240 C 244 239.450, 243.523 239, 242.941 239 C 242.359 239, 242.160 239.450, 242.500 240 M 259.079 241.583 C 259.127 242.748, 259.364 242.985, 259.683 242.188 C 259.972 241.466, 259.936 240.603, 259.604 240.271 C 259.272 239.939, 259.036 240.529, 259.079 241.583 M 232.813 241.683 C 233.534 241.972, 234.397 241.936, 234.729 241.604 C 235.061 241.272, 234.471 241.036, 233.417 241.079 C 232.252 241.127, 232.015 241.364, 232.813 241.683 M 246.500 242 C 246.840 242.550, 247.316 243, 247.559 243 C 247.802 243, 248 242.550, 248 242 C 248 241.450, 247.523 241, 246.941 241 C 246.359 241, 246.160 241.450, 246.500 242 M 75 244.500 C 74.282 245.365, 74.185 246, 74.771 246 C 75.329 246, 76.045 245.325, 76.362 244.500 C 76.678 243.675, 76.781 243, 76.591 243 C 76.401 243, 75.685 243.675, 75 244.500 M 71.695 249.057 C 71.254 250.745, 71.412 250.903, 72.579 249.935 C 74.170 248.614, 74.465 247, 73.117 247 C 72.631 247, 71.991 247.926, 71.695 249.057 M 229.158 249 C 229.158 250.375, 229.385 250.938, 229.662 250.250 C 229.940 249.563, 229.940 248.438, 229.662 247.750 C 229.385 247.063, 229.158 247.625, 229.158 249 M 90.079 250.583 C 90.127 251.748, 90.364 251.985, 90.683 251.188 C 90.972 250.466, 90.936 249.603, 90.604 249.271 C 90.272 248.939, 90.036 249.529, 90.079 250.583 M 260 251.059 C 260 251.641, 260.450 251.840, 261 251.500 C 261.550 251.160, 262 250.684, 262 250.441 C 262 250.198, 261.550 250, 261 250 C 260.450 250, 260 250.477, 260 251.059 M 53.079 252.583 C 53.127 253.748, 53.364 253.985, 53.683 253.188 C 53.972 252.466, 53.936 251.603, 53.604 251.271 C 53.272 250.939, 53.036 251.529, 53.079 252.583 M 227 256.500 L 227 259 241.250 258.781 L 255.500 258.561 241.692 258.252 C 228.473 257.956, 227.910 257.859, 228.509 255.971 C 228.865 254.850, 228.675 254, 228.067 254 C 227.480 254, 227 255.125, 227 256.500 M 257.029 255.961 C 256.220 256.473, 255.818 257.152, 256.136 257.470 C 256.455 257.788, 257.284 257.362, 257.980 256.524 C 259.423 254.786, 259.146 254.622, 257.029 255.961 M 55 256.806 C 55 257.328, 55.675 258.315, 56.500 259 C 57.325 259.685, 58 259.933, 58 259.551 C 58 259.169, 57.325 258.182, 56.500 257.357 C 55.675 256.532, 55 256.284, 55 256.806 M 92 260.032 C 92 260.600, 90.987 261.471, 89.750 261.969 C 87.587 262.838, 87.607 262.876, 90.250 262.937 C 92.354 262.985, 93 262.531, 93 261 C 93 259.900, 92.775 259, 92.500 259 C 92.225 259, 92 259.465, 92 260.032 M 60 261.500 C 60.685 262.325, 62.202 262.997, 63.372 262.994 C 65.216 262.988, 65.118 262.789, 62.636 261.494 C 59.024 259.610, 58.433 259.611, 60 261.500" stroke="none" fill="black" fill-rule="evenodd"/>
	<path fill-opacity="0.311" d="M 158.500 38.027 C 156.850 38.480, 152.800 39.382, 149.500 40.032 C 139.423 42.017, 138.530 42.611, 133.594 50.609 C 131.067 54.704, 129 58.492, 129 59.027 C 129 59.562, 128.550 60, 128 60 C 127.450 60, 127 60.877, 127 61.949 C 127 63.021, 125.501 65.042, 123.668 66.439 C 121.836 67.837, 119.038 71.572, 117.450 74.740 C 115.862 77.908, 114.212 80.650, 113.782 80.833 C 113.352 81.017, 113 82.029, 113 83.083 C 113 84.138, 112.650 85, 112.221 85 C 111.252 85, 107.980 97.534, 107.992 101.203 C 107.998 103.152, 106.902 104.788, 104.062 107.071 C 99.539 110.705, 98.599 112.490, 99.968 114.836 C 100.863 116.369, 100.942 116.371, 100.970 114.854 C 100.999 113.244, 102.615 111.650, 112.474 103.500 C 117.740 99.147, 125.212 95.157, 133.324 92.367 C 136.171 91.388, 138.950 90.270, 139.500 89.883 C 140.050 89.496, 142.300 88.881, 144.500 88.518 C 148.302 87.889, 151.369 86.851, 155.236 84.883 C 156.191 84.397, 157.654 84, 158.486 84 C 159.319 84, 160 83.550, 160 83 C 160 82.450, 159.693 82, 159.318 82 C 157.900 82, 142.432 86.162, 140.962 86.939 C 140.115 87.387, 137.640 87.967, 135.462 88.228 C 133.283 88.489, 132.287 88.514, 133.250 88.282 C 134.213 88.050, 135 87.442, 135 86.930 C 135 86.419, 135.756 86, 136.679 86 C 138.320 86, 143.505 84.524, 147.500 82.920 C 149.379 82.165, 156.050 80.534, 162.240 79.315 C 165.839 78.607, 164.764 77, 160.691 77 C 156.765 77, 145.892 79.303, 140.500 81.276 C 135.704 83.032, 122.996 89.409, 117.677 92.731 C 107.410 99.141, 114.295 91.945, 133.500 76.192 C 135.289 74.724, 135.321 74.516, 133.801 74.212 C 132.018 73.856, 123.140 79.180, 119.184 82.978 C 116.498 85.556, 114.988 84.850, 116.842 81.881 C 117.539 80.766, 119.055 78.038, 120.211 75.820 C 121.691 72.981, 124.343 70.485, 129.167 67.393 C 132.936 64.977, 136.284 63, 136.606 63 C 136.928 63, 138.504 62.066, 140.107 60.924 C 144.776 57.599, 142.416 56.818, 136.488 59.725 C 133.500 61.190, 130.797 62.130, 130.481 61.814 C 129.919 61.252, 133.051 55.113, 137.589 47.880 C 138.839 45.889, 140.905 44.007, 142.181 43.698 C 156.858 40.140, 161.739 39.047, 163.050 39.026 C 165.055 38.992, 178 51.235, 178 53.163 C 178 53.972, 181.354 56.975, 185.454 59.837 C 193.533 65.478, 194.701 66.699, 193.328 68.072 C 191.725 69.675, 176.597 61.445, 169.395 55.052 C 165.645 51.723, 162.222 49, 161.789 49 C 159.432 49, 161.768 52.080, 167.476 56.500 C 174.534 61.965, 176.556 64.676, 172.765 63.595 C 171.519 63.240, 168.302 62.665, 165.615 62.319 C 161.676 61.811, 160.820 61.962, 161.194 63.095 C 161.467 63.921, 163.686 64.755, 166.579 65.120 C 169.286 65.460, 173.975 66.497, 177 67.424 C 180.025 68.351, 183.486 69.357, 184.690 69.660 C 185.895 69.962, 187.536 70.950, 188.336 71.855 C 190.462 74.256, 204 100.748, 204 102.506 C 204 104.646, 203.442 104.413, 199.360 100.562 C 197.356 98.672, 194.317 96.601, 192.608 95.962 C 190.899 95.322, 188.600 94.440, 187.500 94.002 C 183.447 92.390, 171.912 89, 170.479 89 C 167.788 89, 168.943 90.747, 172.750 92.435 C 174.813 93.349, 177.281 94.525, 178.236 95.048 C 179.191 95.572, 180.616 96, 181.403 96 C 182.190 96, 182.983 96.338, 183.167 96.750 C 183.350 97.162, 186.200 98.839, 189.500 100.475 C 198.009 104.694, 201 108.013, 201 113.234 C 201 114.535, 201.540 116.140, 202.200 116.800 C 203.096 117.696, 203.112 118.288, 202.264 119.136 C 201.417 119.983, 200.732 119.875, 199.564 118.707 C 198.704 117.847, 198 116.693, 198 116.144 C 198 114.999, 190.994 109, 189.657 109 C 189.169 109, 183.984 106.677, 178.135 103.837 L 167.500 98.675 156.949 98.879 C 148.068 99.051, 138.442 100.396, 122.750 103.656 C 121.237 103.970, 120 104.626, 120 105.113 C 120 105.601, 119.083 106, 117.961 106 C 114.910 106, 107.808 113.049, 107.854 116.031 C 107.990 124.720, 108.646 126.255, 114.649 131.929 C 119.630 136.636, 125.909 141.128, 135.145 146.589 C 136.158 147.188, 137.812 148.425, 138.822 149.339 C 143.037 153.154, 141.704 150.609, 137.048 145.952 C 131.985 140.890, 130.920 138.595, 133.250 137.774 C 135.703 136.909, 163.500 138.496, 163.500 139.500 C 163.500 140.740, 149.845 142.190, 144.750 141.491 C 142.548 141.189, 141 141.394, 141 141.988 C 141 142.545, 141.650 143, 142.445 143 C 143.240 143, 144.481 144.237, 145.202 145.750 C 146.222 147.891, 147.531 148.697, 151.106 149.390 C 156.039 150.345, 163.404 149.463, 162.514 148.023 C 162.217 147.541, 159.603 147.392, 156.706 147.691 C 152.575 148.117, 151.146 147.881, 150.077 146.593 C 149.328 145.690, 149.002 144.665, 149.353 144.314 C 149.704 143.963, 153.894 143.366, 158.666 142.987 C 165.838 142.417, 167.642 141.926, 169.080 140.149 C 171.280 137.433, 173 137.393, 173 140.059 C 173 141.191, 173.450 141.840, 174 141.500 C 174.550 141.160, 175 139.559, 175 137.941 C 175 135.471, 175.400 135, 177.500 135 C 181.355 135, 180.778 139.025, 176.250 143.724 C 169.758 150.460, 159.783 158.131, 158.271 157.550 C 157.482 157.248, 155.186 156.998, 153.168 156.995 C 150.495 156.992, 148.653 156.197, 146.380 154.066 C 144.125 151.953, 142.956 151.444, 142.168 152.232 C 141.379 153.021, 139.609 152.545, 135.788 150.518 C 132.880 148.975, 127.850 146.361, 124.612 144.709 C 118.762 141.725, 107 130.851, 107 128.427 C 107 127.734, 106.649 127.017, 106.219 126.833 C 105.789 126.650, 104.631 124.925, 103.645 123 C 102.369 120.510, 102.029 120.221, 102.465 122 C 102.802 123.375, 103.337 125.917, 103.653 127.649 C 104.264 130.989, 104.236 131.011, 94 135.236 C 88.055 137.690, 87.011 138.455, 85.604 141.395 C 84.198 144.329, 80.722 148, 79.349 148 C 78.122 148, 76.063 151.533, 76.032 153.691 C 76.014 154.896, 75.585 156.139, 75.077 156.452 C 74.569 156.766, 73.869 158.321, 73.520 159.908 C 73.172 161.494, 72.012 163.584, 70.943 164.551 C 69.874 165.519, 69 166.915, 69 167.655 C 69 168.395, 68.600 169, 68.111 169 C 67.623 169, 66.917 170.630, 66.543 172.623 C 66.169 174.616, 65.500 176.978, 65.057 177.873 C 61.189 185.677, 60 188.318, 60 189.107 C 60 189.611, 58.481 193.281, 56.625 197.262 C 53.630 203.686, 51.880 207.660, 49.032 214.500 C 48.574 215.600, 47.264 218.613, 46.120 221.195 C 42.595 229.157, 42.448 232.922, 45.413 239.403 C 47.207 243.325, 47.748 245.627, 47.135 246.723 C 45.769 249.163, 49.537 259.099, 53.649 263.903 C 59.092 270.262, 58.058 271.198, 46.004 270.817 C 40.499 270.642, 35.997 270.837, 35.998 271.250 C 35.999 271.663, 41.850 272, 49 272 C 57.534 272, 62 272.366, 62 273.066 C 62 273.778, 66.724 274.074, 76.250 273.959 C 90.941 273.781, 92.647 274.043, 97.154 277.163 C 99.659 278.896, 103.223 279, 160.249 279 C 218.371 279, 220.756 278.927, 222.410 277.099 C 224.820 274.437, 228.746 273.915, 246.751 273.866 C 255.413 273.842, 267.450 273.248, 273.500 272.545 L 284.500 271.268 272.250 271.134 C 263.186 271.035, 260.001 270.675, 260.004 269.750 C 260.007 269.063, 261.370 266.475, 263.034 264 C 267.751 256.985, 270.004 251.162, 269.952 246.123 C 269.899 241.079, 266.872 225.539, 265.718 224.385 C 265.323 223.990, 265 222.611, 265 221.320 C 265 220.029, 264.604 218.191, 264.121 217.236 C 263.637 216.281, 262.474 213.025, 261.536 210 C 259.679 204.012, 259.216 202.798, 256.146 195.860 C 255.017 193.309, 253.798 190.042, 253.436 188.601 C 253.074 187.160, 252.378 185.734, 251.889 185.432 C 251.400 185.129, 251 183.874, 251 182.641 C 251 181.408, 250.628 179.972, 250.174 179.450 C 248.612 177.654, 247.083 170.493, 247.291 165.951 C 247.473 161.991, 247.015 160.836, 243.750 157.021 C 240.679 153.433, 240 151.862, 240 148.345 C 240 144.463, 239.448 143.489, 234.250 138.193 C 230.252 134.120, 226.977 131.800, 223.500 130.579 C 220.750 129.613, 217.719 128.413, 216.764 127.911 C 215.809 127.410, 214.346 127, 213.514 127 C 212.681 127, 212 126.550, 212 126 C 212 125.450, 211.377 125, 210.617 125 C 209.856 125, 208.902 123.988, 208.497 122.750 C 205.332 113.072, 205.083 111.415, 206.134 107 C 207.170 102.650, 207.040 102.183, 202.235 93 C 193.321 75.962, 192.509 74.504, 191.750 74.167 C 190.204 73.479, 191.086 71.174, 193.500 69.592 C 198.220 66.499, 196.813 63.906, 185.856 55.500 C 182.988 53.300, 177.203 48.237, 172.999 44.250 C 165.291 36.938, 164.192 36.466, 158.500 38.027 M 148.242 93.575 C 148.559 93.892, 153.246 94.279, 158.659 94.436 C 164.071 94.594, 170.075 95.044, 172 95.438 L 175.500 96.154 172.636 94.577 C 170.514 93.409, 166.906 93, 158.719 93 C 152.640 93, 147.926 93.259, 148.242 93.575 M 175.813 97.683 C 176.534 97.972, 177.397 97.936, 177.729 97.604 C 178.061 97.272, 177.471 97.036, 176.417 97.079 C 175.252 97.127, 175.015 97.364, 175.813 97.683 M 201.478 121.765 C 200.915 122.169, 198.215 125.169, 195.478 128.432 C 187.553 137.876, 179.050 146.189, 171.500 151.874 C 161.293 159.559, 160.857 159.959, 161.516 161.027 C 163.387 164.054, 167.221 161.186, 184.674 143.704 C 194.670 133.692, 203.138 124.487, 203.491 123.250 C 204.140 120.982, 203.364 120.410, 201.478 121.765 M 152.063 134.118 C 153.372 136.563, 156.645 136.532, 157.966 134.063 C 158.913 132.294, 158.657 132.130, 155.029 132.180 C 151.455 132.229, 151.157 132.424, 152.063 134.118 M 95.383 141.894 C 90.494 143.147, 83.526 146.800, 81.335 149.259 C 80.237 150.491, 78.601 153.872, 77.699 156.771 C 76.798 159.670, 74.751 163.720, 73.149 165.771 C 71.548 167.822, 69.462 171.750, 68.513 174.500 C 66.537 180.229, 65.148 183.751, 63.883 186.236 C 63.397 187.191, 63 188.416, 63 188.958 C 63 189.500, 61.030 194.119, 58.623 199.222 C 44.909 228.288, 44.252 230.795, 48.079 239.446 C 49.222 242.031, 49.928 244.744, 49.648 245.476 C 49.367 246.207, 49.767 247.637, 50.537 248.653 C 51.307 249.669, 51.951 251.529, 51.968 252.787 C 52.013 256.042, 60.247 263.768, 64.527 264.571 C 66.405 264.923, 72.588 264.759, 78.267 264.206 C 83.946 263.652, 89.859 263.441, 91.406 263.737 C 94.055 264.244, 94.186 264.106, 93.652 261.388 C 93.339 259.799, 92.576 254.900, 91.955 250.500 C 91.334 246.100, 90.615 241.009, 90.356 239.186 C 89.832 235.497, 87.700 235.296, 87.173 238.886 C 86.993 240.112, 86.318 240.921, 85.673 240.683 C 84.440 240.228, 84.419 239.613, 85.533 236.750 C 86.967 233.066, 83.538 235.226, 76.404 242.500 C 72.359 246.625, 68.813 250, 68.524 250 C 68.236 250, 68 249.057, 68 247.904 C 68 244.913, 71.577 240.292, 76.107 237.432 C 82.376 233.475, 80.393 231.190, 73.700 234.659 C 71.940 235.571, 69.150 236.666, 67.500 237.091 C 65.850 237.517, 63.487 238.173, 62.250 238.549 C 60.604 239.049, 60 238.826, 60 237.715 C 60 235.486, 66.546 232.005, 70.807 231.968 C 74.307 231.938, 78 230.169, 78 228.523 C 78 227.738, 74.967 228.192, 71.500 229.494 C 69.555 230.225, 69.556 230.204, 71.546 228.709 C 72.671 227.864, 74.921 227.021, 76.546 226.836 C 78.253 226.642, 79.500 225.908, 79.500 225.099 C 79.500 223.510, 70.035 216.631, 69.115 217.552 C 68.786 217.881, 69.300 218.589, 70.258 219.125 C 74.098 221.273, 70.514 227.058, 65.492 226.817 C 64.397 226.764, 62.150 227.084, 60.500 227.526 C 57.778 228.257, 57.627 228.177, 58.872 226.666 C 59.627 225.750, 60.786 225, 61.448 225 C 62.110 225, 63.696 223.888, 64.972 222.529 C 66.791 220.594, 67.043 219.757, 66.136 218.664 C 65.252 217.599, 65.309 216.633, 66.378 214.573 L 67.776 211.877 69.956 214.939 C 71.155 216.622, 73.006 218, 74.068 218 C 75.131 218, 76 217.765, 76 217.478 C 76 217.191, 73.638 214.583, 70.750 211.683 C 65.277 206.185, 62.193 201.474, 63.325 200.341 C 63.991 199.675, 65.153 200.857, 70.293 207.429 C 71.829 209.393, 73.741 211, 74.543 211 C 75.344 211, 76 211.525, 76 212.167 C 76 212.808, 76.261 213.072, 76.581 212.752 C 76.901 212.433, 76.639 211.194, 76 210 C 74.483 207.165, 75.598 206.088, 77.479 208.573 C 78.848 210.383, 78.938 210.390, 78.968 208.684 C 78.986 207.686, 78.546 206.021, 77.992 204.985 C 77.256 203.610, 77.439 202.147, 78.671 199.564 C 80.151 196.461, 80.205 195.256, 79.114 189.763 C 77.107 179.662, 76.958 177.768, 77.760 172.512 C 78.820 165.566, 80.958 165.463, 83.889 172.216 C 85.151 175.122, 86.889 178.290, 87.752 179.256 C 88.615 180.222, 89.068 181.266, 88.758 181.575 C 87.994 182.339, 83.833 179.909, 82.205 177.750 C 79.854 174.630, 78.845 175.746, 79.493 180.750 C 80.838 191.123, 81.824 192.085, 86.409 187.500 C 88.901 185.008, 88.973 185, 107.955 185 C 122.546 185, 126.991 184.708, 126.960 183.750 C 126.938 183.063, 124.688 180.739, 121.960 178.586 C 119.232 176.434, 117 174.145, 117 173.501 C 117 172.857, 115.067 170.343, 112.703 167.915 C 110.340 165.487, 107.325 161.925, 106.002 160 C 104.679 158.075, 103.305 156.275, 102.948 156 C 100.686 154.256, 98.955 147, 100.801 147 C 101.241 147, 102.548 148.949, 103.706 151.332 C 104.863 153.714, 107.766 157.863, 110.155 160.553 C 115.649 166.734, 125.263 175.949, 126.250 175.978 C 127.167 176.005, 127.239 167.446, 126.359 163.047 C 125.630 159.398, 123.831 158.443, 114.319 156.659 C 110.919 156.022, 108.219 155.050, 108.319 154.500 C 108.527 153.352, 114.487 153.587, 124.315 155.132 C 128.064 155.721, 131.379 155.954, 131.683 155.651 C 131.986 155.347, 129.565 153.805, 126.302 152.225 C 123.040 150.644, 117.672 147.686, 114.375 145.651 C 107.994 141.712, 101.277 140.383, 95.383 141.894 M 192.645 147.126 C 189.975 149.875, 187.977 152.311, 188.205 152.538 C 189.115 153.449, 207 146.131, 207 144.848 C 207 143.750, 205.273 143.749, 204.595 144.847 C 204.307 145.313, 202.684 145.733, 200.989 145.781 C 198.380 145.855, 198.001 145.572, 198.521 143.934 C 199.494 140.867, 197.866 141.752, 192.645 147.126 M 221.726 146.599 C 221.300 147.030, 218.600 147.518, 215.726 147.685 C 208.268 148.118, 200.606 150.724, 199.456 153.219 C 198.930 154.360, 196.490 156.067, 194.033 157.013 C 188.503 159.143, 187.816 161.240, 188.214 174.778 L 188.500 184.500 193.750 184.802 C 197.902 185.041, 199 184.788, 199 183.592 C 199 182.761, 201.284 179.943, 204.076 177.332 C 209.092 172.640, 211.810 168.996, 210.285 169.005 C 209.853 169.007, 208.150 170.274, 206.500 171.819 C 198.700 179.126, 198.029 177.886, 205.373 169.737 C 209.703 164.932, 213.865 161, 214.623 161 C 216.444 161, 216.361 161.944, 214.345 164.171 C 211.838 166.941, 213.549 166.360, 216.455 163.455 C 219.740 160.169, 219.767 162.407, 216.500 167.215 C 213.993 170.905, 213.007 178, 215.001 178 C 216.191 178, 227 166.929, 227 165.710 C 227 164.438, 232.109 158, 233.119 158 C 234.303 158, 234.243 161.781, 233.035 163.292 C 232.504 163.956, 230.804 166.075, 229.256 168 C 225.640 172.499, 219 182.723, 219 183.792 C 219 184.245, 220.802 185.410, 223.005 186.382 C 227.545 188.385, 229.511 191.238, 229.118 195.252 C 228.777 198.741, 231.095 199.756, 233.906 197.349 C 235.058 196.362, 236 195.165, 236 194.688 C 236 194.211, 238.276 191.273, 241.057 188.160 C 245.709 182.954, 246.057 182.219, 245.397 179 C 245.002 177.075, 244.611 173.069, 244.529 170.098 C 244.393 165.149, 244.062 164.429, 240.586 161.510 C 237.439 158.869, 236.700 157.522, 236.261 153.626 C 235.925 150.641, 235.114 148.596, 234.039 148.021 C 231.593 146.712, 222.637 145.678, 221.726 146.599 M 86 158.418 C 86 159.836, 87.858 163.013, 90.489 166.096 C 95.259 171.684, 95.567 173.177, 91.500 171 C 87.371 168.790, 87.732 170.398, 92.496 175.442 C 94.973 178.064, 97 180.613, 97 181.105 C 97 182.674, 109.617 182.166, 110.964 180.543 C 112.589 178.586, 111.349 176.954, 102.130 168.922 C 98.077 165.390, 93.127 161.054, 91.130 159.288 C 86.743 155.406, 86 155.280, 86 158.418 M 207.638 159.276 C 206.902 162.092, 207.547 162.596, 209.452 160.690 C 211.358 158.785, 211.379 158.359, 209.599 157.676 C 208.739 157.346, 207.981 157.965, 207.638 159.276 M 97 159.247 C 97 160.582, 106.781 170, 108.167 170 C 108.623 170, 107.378 168.313, 105.401 166.250 C 103.424 164.188, 101.123 161.488, 100.288 160.250 C 98.624 157.784, 97 157.289, 97 159.247 M 128 170.858 C 128 176.921, 128.409 182.135, 128.910 182.444 C 129.897 183.054, 131.405 168.342, 130.844 163.577 C 130.655 161.970, 129.938 160.470, 129.250 160.244 C 128.301 159.932, 128 162.486, 128 170.858 M 133 173.018 L 133 185.036 157.250 184.768 L 181.500 184.500 182.037 174 C 182.361 167.670, 182.187 163.232, 181.600 162.825 C 181.063 162.454, 179.523 163.016, 178.178 164.075 C 176.832 165.134, 174.981 166, 174.065 166 C 173.149 166, 171.973 166.404, 171.450 166.898 C 170.405 167.885, 164.844 168.827, 155.263 169.640 C 148.887 170.181, 139.793 168.092, 138.348 165.754 C 137.908 165.043, 138.285 164.895, 139.423 165.332 C 142.664 166.576, 149 167.264, 149 166.372 C 149 165.476, 146.400 164.270, 139.929 162.163 C 132.868 159.864, 133 159.658, 133 173.018 M 184.639 161.694 C 184.288 162.046, 184 167.433, 184 173.667 C 184 183.074, 184.255 185, 185.500 185 C 186.746 185, 187 183.062, 187 173.559 C 187 163.110, 186.373 159.960, 184.639 161.694 M 192 162 C 192 162.550, 192.702 163, 193.559 163 C 194.416 163, 194.840 162.550, 194.500 162 C 194.160 161.450, 193.459 161, 192.941 161 C 192.423 161, 192 161.450, 192 162 M 224 162.941 C 224 165.356, 224.556 165.599, 225.349 163.532 C 225.659 162.725, 225.482 161.798, 224.956 161.473 C 224.430 161.148, 224 161.809, 224 162.941 M 198.750 163.662 C 199.438 163.940, 200.563 163.940, 201.250 163.662 C 201.938 163.385, 201.375 163.158, 200 163.158 C 198.625 163.158, 198.063 163.385, 198.750 163.662 M 231.636 170.636 C 230.186 172.086, 229 173.886, 229 174.636 C 229 175.386, 228.647 176, 228.216 176 C 227.784 176, 226.634 177.350, 225.659 179 C 224.684 180.650, 224.120 182, 224.406 182 C 225.404 182, 237 170.065, 237 169.037 C 237 167.156, 234.317 167.956, 231.636 170.636 M 88 175.449 C 88 175.831, 88.675 176.818, 89.500 177.643 C 90.325 178.468, 91 178.716, 91 178.194 C 91 177.672, 90.325 176.685, 89.500 176 C 88.675 175.315, 88 175.067, 88 175.449 M 236.649 176.495 C 234.860 177.822, 234.868 177.942, 236.899 180.122 C 238.055 181.362, 239 182.742, 239 183.189 C 239 183.635, 239.731 184, 240.625 184 C 241.924 184, 242.120 183.350, 241.603 180.763 C 240.690 176.200, 239.005 174.748, 236.649 176.495 M 233.110 180 C 233.081 181.561, 234.016 183.194, 235.600 184.348 C 239.040 186.854, 240.166 185.370, 236.881 182.660 C 235.440 181.472, 234.013 179.825, 233.710 179 C 233.379 178.103, 233.139 178.504, 233.110 180 M 246 186.360 C 246 190.528, 237.722 200.861, 234.301 200.964 C 233.641 200.984, 231.841 202.688, 230.301 204.750 C 228.760 206.813, 227.162 208.650, 226.750 208.833 C 226.338 209.017, 226 209.818, 226 210.615 C 226 212.917, 228.893 213.406, 231.037 211.466 C 232.117 210.489, 233 210.048, 233 210.485 C 233 210.922, 232.366 211.779, 231.592 212.390 C 230.604 213.169, 230.442 214.163, 231.049 215.721 C 231.736 217.485, 232.653 217.915, 235.499 217.808 C 237.471 217.733, 239.317 217.296, 239.601 216.836 C 240.936 214.677, 244.857 216.315, 249.289 220.884 C 251.895 223.571, 255.371 226.325, 257.014 227.006 C 259.145 227.889, 260 228.924, 260 230.621 C 260 233.058, 258.616 233.805, 257.486 231.978 C 256.529 230.428, 246.233 223, 245.043 223 C 244.469 223, 244 223.450, 244 224 C 244 224.550, 244.378 225, 244.839 225 C 245.301 225, 248.451 227.597, 251.839 230.772 C 256.946 235.557, 258 237.102, 258 239.803 C 258 241.613, 257.401 243.293, 256.653 243.580 C 255.912 243.864, 251.750 242.449, 247.403 240.435 C 237.216 235.715, 236.096 235.273, 232.500 234.563 C 229.539 233.977, 229.527 233.992, 231.554 235.735 C 232.684 236.706, 234.709 238.238, 236.054 239.141 C 240.200 241.922, 237.511 242.245, 232.677 239.547 C 230.168 238.146, 227.977 237.001, 227.808 237.001 C 227.638 237.002, 227.491 240.714, 227.480 245.251 C 227.469 249.788, 227.142 254.963, 226.755 256.750 L 226.050 260 240.906 260 L 255.763 260 258.699 256.997 C 262.808 252.793, 266.581 240.437, 265.161 235.830 C 264.597 233.998, 263.661 230.700, 263.080 228.500 C 258.700 211.901, 248.478 184.056, 246.750 184.017 C 246.338 184.008, 246 185.062, 246 186.360 M 237 203.583 C 237 205.349, 239.153 205.042, 239.771 203.188 C 239.989 202.534, 239.454 202, 238.583 202 C 237.713 202, 237 202.713, 237 203.583 M 233.207 227.041 C 231.634 229.559, 232.375 230.976, 234.917 230.311 C 235.971 230.036, 239.157 230.978, 241.998 232.405 C 248.055 235.447, 248.718 235.574, 246.872 233.334 C 245.699 231.910, 235.680 225, 234.789 225 C 234.619 225, 233.908 225.918, 233.207 227.041" stroke="none" fill="black" fill-rule="evenodd"/>
	<path fill-opacity="0.559" d="M 170.443 43.858 C 173.711 47.207, 176.608 49.725, 176.880 49.453 C 177.527 48.806, 169.088 40.151, 166.500 38.808 C 165.400 38.236, 167.174 40.509, 170.443 43.858 M 140.976 42.220 C 138.631 43.156, 132 51.797, 132 53.917 C 132 54.434, 131.438 55.469, 130.750 56.217 C 128.810 58.328, 127 61.820, 127 63.451 C 127 64.264, 125.987 65.466, 124.750 66.122 C 121.721 67.726, 119.488 70.391, 117.918 74.275 C 117.200 76.049, 116.338 77.725, 116.001 78 C 114.262 79.420, 110.805 88.960, 109.390 96.246 C 107.905 103.893, 107.463 104.794, 103.385 108.500 C 99.988 111.587, 99.210 112.842, 99.976 114 C 100.736 115.148, 100.973 115.184, 100.985 114.152 C 101 112.817, 107.835 106.068, 109.217 106.023 C 109.611 106.010, 111.419 104.537, 113.236 102.750 C 116.478 99.559, 129.082 92.730, 134 91.500 C 136.559 90.860, 140.149 89.454, 143.236 87.883 C 144.191 87.397, 145.991 86.984, 147.236 86.965 C 148.481 86.945, 150.625 86.251, 152 85.423 C 153.959 84.242, 154.067 84.014, 152.500 84.366 C 148.745 85.211, 138.505 88.179, 136.203 89.091 C 133.349 90.220, 130 90.271, 130 89.185 C 130 88.068, 135.754 85.416, 140.004 84.575 C 141.927 84.195, 144.400 83.511, 145.500 83.056 C 147.412 82.264, 151.389 81.099, 159 79.100 L 162.500 78.180 159.312 78.090 C 156.008 77.997, 144.004 80.425, 140.500 81.895 C 134.029 84.611, 121.893 90.806, 118.221 93.267 C 115.868 94.845, 113.168 95.982, 112.221 95.793 C 110.742 95.499, 110.858 95.103, 113.052 92.975 C 117.474 88.687, 124.328 82.641, 129.307 78.638 C 136.786 72.625, 133.994 73.137, 125.021 79.425 C 113.601 87.427, 113.277 87.408, 117.690 79 C 121.072 72.556, 122.301 71.221, 128.625 67.120 C 132.544 64.579, 137.218 61.698, 139.011 60.719 C 144.145 57.913, 141.890 57.720, 136.418 60.497 C 130.642 63.427, 130 63.520, 130 61.424 C 130 60.126, 135.107 50.723, 138.853 45.124 C 139.359 44.367, 141.962 43.160, 144.637 42.442 C 148.400 41.430, 148.822 41.144, 146.500 41.174 C 144.850 41.195, 142.364 41.666, 140.976 42.220 M 162 51 C 162 51.550, 162.338 52.010, 162.750 52.023 C 163.162 52.036, 165.275 53.644, 167.443 55.597 C 169.612 57.550, 172.762 60.311, 174.443 61.732 C 176.709 63.648, 177.124 64.444, 176.045 64.810 C 175.244 65.082, 177.683 66.480, 181.464 67.917 C 188.409 70.558, 190.615 72.818, 193.993 80.750 C 194.519 81.987, 195.217 83, 195.543 83 C 196.236 83, 195.018 78.734, 194.115 78 C 192.961 77.062, 191 73.031, 191 71.597 C 191 70.810, 191.563 69.940, 192.250 69.662 C 193.156 69.297, 193.113 69.136, 192.097 69.079 C 187.355 68.812, 172.388 59.274, 164.179 51.286 C 162.590 49.740, 162 49.663, 162 51 M 178.497 52.205 C 178.593 53.512, 181.097 55.869, 185.573 58.864 C 189.383 61.414, 192.944 64.513, 193.487 65.750 C 194.698 68.510, 196 68.675, 196 66.067 C 196 64.963, 193.964 62.499, 191.250 60.321 C 188.637 58.224, 185.825 55.820, 185 54.978 C 184.175 54.137, 182.341 52.713, 180.924 51.815 C 178.463 50.255, 178.354 50.272, 178.497 52.205 M 167.765 63.978 C 170.111 64.486, 172.586 65.214, 173.265 65.597 C 174.193 66.120, 174.219 65.988, 173.371 65.068 C 172.750 64.394, 170.275 63.665, 167.871 63.449 L 163.500 63.055 167.765 63.978 M 155.813 83.683 C 156.534 83.972, 157.397 83.936, 157.729 83.604 C 158.061 83.272, 157.471 83.036, 156.417 83.079 C 155.252 83.127, 155.015 83.364, 155.813 83.683 M 200.450 92.730 C 202.952 97.807, 205 102.419, 205 102.980 C 205 104.828, 202.135 104.044, 199.591 101.500 C 198.216 100.125, 196.620 99, 196.045 99 C 195.470 99, 195 98.660, 195 98.244 C 195 97.270, 191.031 95.637, 183.500 93.512 C 180.200 92.581, 176.466 91.410, 175.203 90.909 C 173.940 90.409, 172.140 90.019, 171.203 90.042 C 170.266 90.065, 175.125 92.888, 182 96.316 C 188.875 99.743, 195.410 103.144, 196.523 103.872 C 198.882 105.418, 201 109.499, 201 112.499 C 201 113.655, 201.525 115.125, 202.167 115.767 C 202.808 116.408, 203.333 118.968, 203.333 121.455 C 203.333 124.873, 202.795 126.443, 201.126 127.891 C 199.573 129.237, 199.301 129.941, 200.209 130.261 C 202.525 131.076, 198.162 136.917, 187.753 146.934 C 176.584 157.682, 173.203 160.195, 170.891 159.464 C 170.006 159.184, 168.714 159.640, 168.019 160.477 C 166.353 162.484, 161 162.512, 161 160.514 C 161 159.697, 162.912 157.789, 165.250 156.274 C 167.588 154.758, 169.725 153.290, 170 153.009 C 170.275 152.729, 173.425 150.031, 177 147.014 C 184.878 140.366, 184.058 141.185, 192.008 132 C 195.579 127.875, 198.838 124.350, 199.250 124.167 C 199.662 123.983, 200 123.196, 200 122.417 C 200 121.638, 200.470 121, 201.045 121 C 201.620 121, 201.058 119.942, 199.795 118.649 C 198.533 117.357, 196.600 115.182, 195.500 113.818 C 194.400 112.453, 191.364 110.473, 188.754 109.418 C 186.143 108.363, 184.006 107.162, 184.004 106.750 C 184.002 106.338, 183.409 106, 182.687 106 C 181.965 106, 179.042 104.875, 176.192 103.500 C 173.342 102.125, 170.558 101, 170.005 101 C 169.452 101, 169 100.524, 169 99.943 C 169 98.709, 148.006 99.261, 138.500 100.745 C 124.737 102.893, 114.191 106.895, 110.203 111.482 C 107.874 114.160, 107.094 121, 109.117 121 C 109.779 121, 110.032 122.055, 109.737 123.593 C 109.340 125.673, 110.182 127.156, 113.996 131.093 C 116.611 133.792, 119.051 136, 119.417 136 C 119.784 136, 120.934 136.787, 121.974 137.750 C 123.014 138.713, 125.583 140.400, 127.683 141.500 C 129.782 142.600, 132.372 144.287, 133.439 145.250 C 137.822 149.207, 136.943 146.405, 132.250 141.460 C 130.407 139.518, 130.705 138.496, 133.562 136.967 C 135.587 135.883, 136.527 135.848, 138.048 136.798 C 139.269 137.560, 144.366 138, 151.986 138 C 161.998 138, 164 138.250, 164 139.500 C 164 140.365, 163.047 141.035, 161.750 141.082 C 160.512 141.127, 158.150 141.351, 156.500 141.578 C 154.850 141.806, 151.588 142.246, 149.250 142.557 C 146.140 142.971, 145 143.578, 145 144.821 C 145 148.251, 153.175 150.866, 159.172 149.354 C 162.206 148.589, 161.925 148.470, 156 148.008 C 150.336 147.565, 149.500 147.243, 149.500 145.500 C 149.500 143.723, 150.336 143.443, 157 142.992 C 164.433 142.488, 168.480 141.057, 170.598 138.184 C 171.925 136.385, 174.371 137.590, 173.580 139.653 C 173.261 140.484, 173.457 140.836, 174.038 140.477 C 174.596 140.132, 174.928 138.646, 174.776 137.175 C 174.543 134.915, 174.888 134.500, 177 134.500 C 179.067 134.500, 179.553 135.040, 179.804 137.618 C 180.072 140.377, 179.253 141.506, 172.684 147.433 C 168.601 151.116, 164.189 154.862, 162.880 155.757 C 161.571 156.652, 160.197 157.831, 159.826 158.378 C 159.389 159.023, 158.677 158.977, 157.797 158.246 C 157.051 157.628, 155.011 157.162, 153.263 157.212 C 151.276 157.268, 148.810 156.330, 146.685 154.709 C 144.191 152.807, 142.988 152.412, 142.173 153.227 C 141.359 154.041, 139.788 153.552, 136.281 151.391 C 133.652 149.771, 128.802 147.107, 125.505 145.472 C 115.793 140.657, 110.615 135.807, 105.420 126.661 L 103.222 122.793 103.700 127.146 C 104.159 131.319, 104.040 131.555, 100.839 132.815 C 99.003 133.539, 96.719 134.552, 95.764 135.065 C 94.809 135.579, 93.501 136, 92.858 136 C 91.076 136, 85 140.931, 85 142.377 C 85 143.815, 80.869 147.996, 79.436 148.008 C 78.380 148.017, 76 152.687, 76 154.749 C 76 156.527, 73.217 161.983, 71.025 164.500 C 70.067 165.600, 68.454 168.975, 67.440 172 C 66.426 175.025, 65.237 177.928, 64.798 178.450 C 64.359 178.972, 64 180.210, 64 181.200 C 64 182.190, 63.660 183, 63.245 183 C 62.517 183, 60.475 188.076, 59.322 192.750 C 59.017 193.988, 58.369 195, 57.883 195 C 57.398 195, 57 195.900, 57 197 C 57 198.100, 56.660 199, 56.245 199 C 55.517 199, 53.475 204.076, 52.322 208.750 C 52.017 209.988, 51.369 211, 50.883 211 C 50.398 211, 50 211.900, 50 213 C 50 214.100, 49.550 215, 49 215 C 48.450 215, 48 215.873, 48 216.941 C 48 218.009, 47.589 219.136, 47.087 219.446 C 46.585 219.757, 45.871 221.806, 45.500 224 C 45.129 226.194, 44.415 228.243, 43.913 228.554 C 42.370 229.508, 42.894 233.409, 45.190 238.062 C 46.467 240.650, 47.462 244.725, 47.578 247.838 C 47.687 250.774, 48.276 253.676, 48.888 254.288 C 49.500 254.900, 50 256.347, 50 257.505 C 50 258.662, 51.610 261.367, 53.578 263.515 C 55.546 265.664, 57.217 268.227, 57.291 269.211 C 57.378 270.369, 58.232 271, 59.713 271 C 60.971 271, 62 271.450, 62 272 C 62 272.621, 67.532 273, 76.596 273 C 90.131 273, 91.420 273.164, 94.346 275.250 L 97.500 277.500 159.156 277.772 C 208.276 277.989, 221.086 277.783, 222.156 276.760 C 225.579 273.490, 229.217 272.999, 250.797 272.900 C 262.734 272.845, 273.625 272.415, 275 271.944 C 276.668 271.373, 274.422 271.156, 268.249 271.294 C 263.162 271.407, 258.999 271.252, 258.999 270.949 C 259.001 269.690, 261.558 265.015, 262.250 265.008 C 262.663 265.004, 263 264.507, 263 263.904 C 263 263.302, 263.876 261.579, 264.946 260.076 C 269.236 254.052, 270.918 245.712, 269.082 239.571 C 268.577 237.882, 267.410 232.900, 266.488 228.500 C 265.567 224.100, 264.405 219.719, 263.906 218.764 C 263.408 217.809, 263 216.340, 263 215.500 C 263 214.660, 262.590 213.191, 262.089 212.236 C 261.587 211.281, 260.427 208.250, 259.511 205.500 C 257.701 200.069, 257.195 198.775, 254.230 192 C 253.147 189.525, 251.949 186.375, 251.568 185 C 250.838 182.369, 249.365 178.675, 247.883 175.764 C 247.397 174.809, 247 170.970, 247 167.234 C 247 160.765, 246.833 160.282, 243.500 157.139 C 240.501 154.310, 240 153.189, 240 149.310 C 240 146.019, 239.385 144.102, 237.750 142.292 C 231.822 135.731, 227.316 132.009, 224.574 131.406 C 222.919 131.043, 220.876 130.391, 220.033 129.957 C 219.190 129.523, 216.809 128.432, 214.741 127.533 C 210.025 125.482, 207 122.291, 207 119.370 C 207 118.132, 206.550 116.840, 206 116.500 C 205.450 116.160, 205 113.910, 205 111.500 C 205 109.090, 205.450 106.840, 206 106.500 C 207.848 105.358, 206.594 99.484, 203.972 97 C 203.682 96.725, 202.649 94.700, 201.675 92.500 C 200.702 90.300, 199.005 87.375, 197.903 86 C 196.801 84.625, 197.947 87.654, 200.450 92.730 M 157.500 93.597 C 162.103 94.346, 169.777 94.444, 169.347 93.750 C 169.091 93.338, 165.871 93.061, 162.191 93.136 C 158.511 93.211, 156.400 93.419, 157.500 93.597 M 171.813 95.683 C 172.534 95.972, 173.397 95.936, 173.729 95.604 C 174.061 95.272, 173.471 95.036, 172.417 95.079 C 171.252 95.127, 171.015 95.364, 171.813 95.683 M 149.532 131.948 C 148.778 133.168, 152.933 136, 155.476 136 C 156.906 136, 158.376 135.166, 159 134 C 159.589 132.900, 159.942 131.945, 159.785 131.878 C 158.540 131.343, 149.869 131.402, 149.532 131.948 M 188.049 141 C 182.514 146.500, 178.335 151, 178.762 151 C 179.188 151, 184.021 146.500, 189.500 141 C 194.979 135.500, 199.159 131, 198.787 131 C 198.416 131, 193.584 135.500, 188.049 141 M 218 139.339 C 218 140.890, 222.704 143.301, 224.075 142.454 C 225.629 141.493, 225.109 140.558, 222.293 139.250 C 218.865 137.658, 218 137.676, 218 139.339 M 92.530 142.076 C 83.652 145.444, 79.766 148.999, 77.324 155.987 C 76.127 159.412, 74.241 163.179, 73.132 164.359 C 72.024 165.539, 68.604 172.949, 65.533 180.826 C 62.462 188.703, 58.095 199.052, 55.827 203.824 C 50.091 215.897, 45 229.048, 45 231.791 C 45 233.059, 45.900 235.959, 47 238.236 C 48.100 240.513, 49 243.840, 49 245.629 C 49 247.418, 49.392 249.124, 49.871 249.420 C 50.350 249.716, 51.024 251.369, 51.369 253.094 C 52.078 256.642, 58.374 263.084, 63.009 265.004 C 65.394 265.992, 68.587 266.015, 78.060 265.116 C 86.259 264.338, 90.687 264.297, 91.981 264.990 C 94.585 266.383, 94.858 265.440, 93.861 258.500 C 93.387 255.200, 92.622 249.088, 92.162 244.918 C 91.240 236.555, 90.476 234.603, 88.431 235.388 C 87.679 235.677, 86.798 235.482, 86.473 234.956 C 85.370 233.171, 84.146 233.991, 76.568 241.593 C 71.265 246.914, 69 248.631, 69 247.333 C 69 246.313, 70.125 244.266, 71.500 242.783 C 72.875 241.301, 74 239.618, 74 239.044 C 74 238.470, 74.707 238, 75.571 238 C 77.367 238, 80 235.665, 80 234.071 C 80 232.421, 77.144 232.815, 69.500 235.517 C 62.181 238.104, 59.992 238.504, 60.011 237.250 C 60.029 236.111, 66.859 233.278, 72.750 231.968 C 76.257 231.188, 78 230.298, 78 229.287 C 78 228.180, 77.208 227.889, 75.053 228.206 C 73.432 228.443, 72.333 228.270, 72.612 227.819 C 72.890 227.369, 74.666 227, 76.559 227 C 79.345 227, 80 226.616, 80 224.979 C 80 223.790, 78.964 222.485, 77.486 221.812 C 75.629 220.965, 75.132 220.158, 75.587 218.725 C 76.028 217.336, 75.100 215.604, 72.327 212.642 C 67.673 207.670, 63.645 202.022, 64.292 201.374 C 64.550 201.117, 66.428 203.177, 68.466 205.953 C 70.503 208.729, 72.622 211, 73.175 211 C 73.727 211, 74.987 211.998, 75.975 213.218 C 77.533 215.142, 77.990 215.253, 79.430 214.058 C 81.167 212.616, 80.816 207.801, 78.789 205.283 C 78.132 204.466, 78.374 202.586, 79.528 199.566 C 80.473 197.092, 81.023 193.901, 80.751 192.476 C 80.381 190.541, 80.610 190.020, 81.655 190.421 C 82.425 190.717, 83.818 190.068, 84.750 188.979 C 85.682 187.891, 87.019 187, 87.722 187 C 88.425 187, 89 186.499, 89 185.887 C 89 185.131, 91.805 184.874, 97.750 185.086 C 102.563 185.257, 111.112 185.308, 116.750 185.199 C 128.643 184.968, 129.487 184.087, 122.884 178.797 C 120.620 176.984, 117.381 173.489, 115.685 171.031 C 113.990 168.573, 111.609 165.648, 110.394 164.531 C 106.850 161.272, 100.998 151.965, 101.028 149.638 C 101.049 148.078, 101.658 148.664, 103.278 151.800 C 105.441 155.987, 112.121 164.165, 116.838 168.400 C 118.124 169.555, 120.502 171.738, 122.123 173.250 C 123.743 174.762, 125.503 176, 126.034 176 C 127.153 176, 127.332 162.044, 126.235 160.400 C 124.907 158.411, 121.593 157.240, 115.248 156.516 C 106.547 155.524, 106.030 153.764, 114.669 154.545 C 118.426 154.884, 122.805 155.576, 124.399 156.081 C 128.614 157.417, 133 157.225, 133 155.705 C 133 154.993, 130.878 153.535, 128.284 152.465 C 125.690 151.396, 121.078 148.917, 118.034 146.958 C 106.882 139.778, 101.369 138.722, 92.530 142.076 M 192.220 146.640 C 189.320 149.743, 187.208 152.541, 187.526 152.859 C 188.276 153.610, 203.907 148.294, 206.446 146.425 C 209.111 144.464, 207.164 142.307, 204.173 143.907 C 200.840 145.691, 198.690 145.292, 199.290 143 C 200.204 139.502, 197.676 140.804, 192.220 146.640 M 219.318 145.387 C 219.841 146.748, 219.096 147, 214.552 147 C 208.346 147, 200.653 149.911, 199.078 152.854 C 198.494 153.946, 196.324 155.385, 194.258 156.050 C 187.995 158.068, 188 158.055, 188 172.122 L 188 185 193.500 185 C 197.436 185, 199 184.618, 199 183.657 C 199 182.919, 201.078 180.578, 203.617 178.456 C 206.157 176.334, 209.996 172.213, 212.149 169.299 C 216.431 163.502, 219.163 162.045, 215.989 167.250 C 213.847 170.763, 213.271 178, 215.134 178 C 216.541 178, 224.963 169.527, 227.571 165.489 C 231.434 159.505, 234.769 156.743, 233.292 160.750 C 232.731 162.271, 228.448 168.574, 227.006 170 C 226.244 170.753, 224.251 174.113, 222.436 177.704 C 221.545 179.466, 220.182 181.434, 219.408 182.076 C 217.076 184.012, 217.809 185.740, 221.250 186.420 C 225.651 187.291, 228.101 189.325, 228.151 192.150 C 228.237 196.923, 229.047 199, 230.823 199 C 232.690 199, 241.977 189.185, 243.218 185.900 C 243.938 183.992, 246 183.235, 246 184.878 C 246 188.846, 236.676 200.888, 233.500 201.020 C 232.045 201.081, 226 209.405, 226 211.348 C 226 212.313, 226.802 213, 227.930 213 C 229.171 213, 229.975 213.804, 230.180 215.250 C 230.481 217.364, 230.972 217.500, 238.320 217.500 C 244.712 217.500, 246.318 217.818, 247.115 219.241 C 248.419 221.571, 254.246 226.981, 255.500 227.027 C 257.299 227.093, 260.215 229.843, 259.578 230.874 C 259.224 231.447, 255.686 229.535, 251.373 226.440 C 244.346 221.399, 241 219.890, 241 221.763 C 241 222.182, 242.238 223.420, 243.750 224.513 C 249.520 228.682, 257.986 237.873, 257.494 239.433 C 257.222 240.295, 256.794 241.661, 256.543 242.469 C 256.172 243.663, 255.092 243.416, 250.779 241.147 C 244.258 237.717, 232.071 233, 229.729 233 C 226.787 233, 227.810 234.744, 232.177 237.175 C 234.474 238.454, 236.533 240.175, 236.753 241 C 236.991 241.896, 236.820 242.098, 236.326 241.500 C 235.023 239.922, 229.353 237, 227.596 237 C 225.717 237, 225.702 237.087, 226.994 240.485 C 227.692 242.320, 227.565 245.537, 226.571 251.269 C 225.791 255.762, 225.370 259.790, 225.636 260.219 C 225.901 260.649, 232.476 261, 240.247 261 C 253.187 261, 254.648 260.814, 257.604 258.788 C 260.904 256.527, 264 251.363, 264 248.120 C 264 247.123, 264.670 244.964, 265.489 243.322 C 267.059 240.175, 267.144 240.760, 262.826 225 C 262.299 223.075, 261.505 219.925, 261.062 218 C 260.620 216.075, 258.850 210.910, 257.129 206.523 C 255.408 202.135, 254 198.209, 254 197.798 C 254 197.387, 252.599 194.001, 250.886 190.275 C 246.580 180.904, 245.023 175.369, 245.011 169.377 C 245.001 164.808, 244.637 163.944, 241.642 161.377 C 238.370 158.574, 236.366 154.764, 236.845 152.261 C 237.269 150.050, 234.981 147, 232.899 147 C 231.782 147, 230.111 146.602, 229.184 146.116 C 228.258 145.630, 225.520 144.904, 223.100 144.503 C 219.291 143.871, 218.782 143.990, 219.318 145.387 M 138.083 148.283 C 138.313 148.439, 139.400 149.226, 140.500 150.033 C 142.350 151.390, 142.397 151.369, 141.128 149.750 C 140.373 148.787, 139.285 148, 138.711 148 C 138.137 148, 137.854 148.127, 138.083 148.283 M 173.766 155.019 C 172.262 156.659, 171.401 158, 171.851 158 C 172.301 158, 173.872 156.650, 175.342 155 C 176.813 153.350, 177.674 152.009, 177.258 152.019 C 176.841 152.029, 175.270 153.379, 173.766 155.019 M 86.707 159.248 C 86.952 160.528, 88.911 163.584, 91.060 166.038 C 93.210 168.492, 94.976 171.063, 94.984 171.750 C 95.004 173.339, 92.769 173.369, 91.200 171.800 C 90.333 170.933, 90 170.917, 90 171.743 C 90 172.372, 90.806 173.475, 91.791 174.193 C 92.776 174.912, 94.607 176.963, 95.859 178.750 C 97.984 181.782, 98.525 182, 103.946 182 C 107.940 182, 110.152 181.522, 111.025 180.470 C 112.389 178.826, 109.138 175.379, 94.561 163.016 C 86.946 156.557, 86.117 156.159, 86.707 159.248 M 128.015 170.667 C 128.030 182.376, 129.181 188.128, 130.473 182.948 C 131.585 178.487, 130.616 159.701, 129.250 159.248 C 128.297 158.932, 128.004 161.640, 128.015 170.667 M 184.639 160.694 C 184.288 161.046, 184 166.658, 184 173.167 C 184 183.019, 184.251 185, 185.500 185 C 186.750 185, 187 183.007, 187 173.059 C 187 162.161, 186.386 158.947, 184.639 160.694 M 101.502 163.995 C 103.151 165.917, 104.612 167.680, 104.750 167.912 C 104.888 168.144, 105.218 168.115, 105.485 167.848 C 105.752 167.582, 104.290 165.819, 102.237 163.932 L 98.504 160.500 101.502 163.995 M 133 172.891 L 133 185 157.353 185 L 181.707 185 182.353 177.349 C 183.469 164.146, 183.280 162, 181 162 C 179.900 162, 179 162.340, 179 162.756 C 179 163.172, 177.537 164.109, 175.750 164.840 C 173.963 165.570, 171.468 166.667, 170.206 167.277 C 166.675 168.983, 142.433 168.849, 140.803 167.114 C 139.706 165.947, 139.896 165.839, 142 166.428 C 143.375 166.813, 146.525 167.383, 149 167.696 L 153.500 168.264 151 166.293 C 148.509 164.329, 142.428 162.268, 136.250 161.294 L 133 160.781 133 172.891 M 203.107 172.576 C 200.690 175.009, 199.134 177, 199.648 177 C 200.163 177, 202.571 174.975, 205 172.500 C 207.429 170.025, 208.985 168.034, 208.458 168.076 C 207.931 168.118, 205.523 170.143, 203.107 172.576 M 234 169.833 C 234 170.475, 233.298 171, 232.441 171 C 231.565 171, 231.179 171.480, 231.559 172.096 C 232.021 172.843, 232.737 172.691, 233.809 171.620 C 234.673 170.755, 235.070 169.737, 234.690 169.357 C 234.311 168.977, 234 169.192, 234 169.833 M 229 174.378 C 229 175.135, 228.325 176.315, 227.500 177 C 226.675 177.685, 226 178.687, 226 179.227 C 226 179.768, 227.117 179.150, 228.483 177.855 C 231.024 175.445, 231.788 173, 230 173 C 229.450 173, 229 173.620, 229 174.378 M 78.118 178.750 C 78.183 181.363, 78.591 184.850, 79.024 186.500 C 79.573 188.591, 79.764 187.154, 79.656 181.759 C 79.570 177.501, 79.162 174.013, 78.750 174.009 C 78.338 174.004, 78.053 176.137, 78.118 178.750 M 83.460 177.065 C 82.674 178.337, 83.815 180, 85.476 180 C 86.222 180, 87.034 180.563, 87.280 181.250 C 87.525 181.938, 88.040 182.210, 88.424 181.856 C 88.807 181.502, 87.978 180.068, 86.580 178.671 C 85.182 177.273, 83.778 176.550, 83.460 177.065 M 238.478 179.036 C 238.085 179.672, 238.438 180.867, 239.263 181.692 C 241.213 183.642, 242.217 182.018, 240.507 179.679 C 239.589 178.423, 238.976 178.229, 238.478 179.036 M 231.500 211 C 231.160 211.550, 231.359 212, 231.941 212 C 232.523 212, 233 211.550, 233 211 C 233 210.450, 232.802 210, 232.559 210 C 232.316 210, 231.840 210.450, 231.500 211 M 68 215 C 68 215.550, 68.477 216, 69.059 216 C 69.641 216, 69.840 215.550, 69.500 215 C 69.160 214.450, 68.684 214, 68.441 214 C 68.198 214, 68 214.450, 68 215 M 69.710 222 C 70.143 223.654, 69.738 224.003, 67.367 224.015 C 65.790 224.024, 63.825 224.467, 63 225 C 61.900 225.711, 62.625 225.973, 65.715 225.985 C 68.930 225.996, 70.186 225.521, 71.011 223.979 C 72.096 221.951, 71.618 220, 70.035 220 C 69.569 220, 69.423 220.900, 69.710 222 M 232.615 226.465 C 230.533 229.642, 230.572 230.973, 232.750 231.112 C 238.746 231.495, 241.454 232.272, 245.024 234.634 C 249.115 237.342, 251.309 237.282, 249.021 234.525 C 247.731 232.970, 235.513 224, 234.686 224 C 234.435 224, 233.503 225.109, 232.615 226.465 M 85 238.500 C 85 239.325, 85.450 240, 86 240 C 86.550 240, 87 239.325, 87 238.500 C 87 237.675, 86.550 237, 86 237 C 85.450 237, 85 237.675, 85 238.500 M 52.269 271.693 C 53.242 271.947, 54.592 271.930, 55.269 271.656 C 55.946 271.382, 55.150 271.175, 53.500 271.195 C 51.850 271.215, 51.296 271.439, 52.269 271.693" stroke="none" fill="black" fill-rule="evenodd"/>
</svg>