<?xml version="1.0"?><svg xmlns="http://www.w3.org/2000/svg" width="36" height="36" shape-rendering="geometricPrecision" text-rendering="geometricPrecision" image-rendering="optimizeQuality" fill-rule="evenodd" clip-rule="evenodd" viewBox="0 0 36 36"><path fill="#fdfdfd" d="m-0.1-0.1h36v36h-36v-36z"></path><path fill="#2e2e2e" d="m16.4 0.3v-0.1c1.2-0.1 2.4 0 3.6 0.2-1.2-0.1-2.4-0.1-3.6-0.1z"></path><path fill="#c4c4c5" d="m15.7 0.2c1.6-0.2 3.3-0.2 4.9-0.1 0.4 0.1 0.9 0.2 1.3 0.3 0.2 0.1 0.4 0.2 0.5 0.3-0.8-0.2-1.6-0.3-2.4-0.3-1.2-0.2-2.4-0.3-3.6-0.2h-0.7z"></path><path fill="#6a696a" d="m15.7 0.2h0.7v0.1c-0.9 0.1-1.8 0.2-2.7 0.3 0.6-0.1 1.3-0.3 2-0.4z"></path><path fill="#cbcacb" d="m13.2 0.7c-0.1 0.2-0.4 0.3-0.7 0.3-0.3 0-0.6 0.1-0.7 0.3l-0.7 0.2c-0.1 0-0.3 0.1-0.4 0.1 0.4-0.2 0.8-0.4 1.2-0.6 0.4-0.1 0.9-0.2 1.3-0.3z"></path><path fill="#737373" d="m12.5 1c-0.2 0.1-0.4 0.3-0.7 0.3 0.1-0.2 0.4-0.3 0.7-0.3z"></path><path fill="#999" d="m22.7 0.7c0.6 0 1.1 0.2 1.5 0.6-0.5-0.1-1.1-0.3-1.5-0.6z"></path><path fill="#666" d="m11.1 1.5c-0.1 0.2-0.3 0.3-0.5 0.2v-0.1h0.1c0.1 0 0.3-0.1 0.4-0.1z"></path><path fill="#9b9b9c" d="m24.9 1.5c0.3 0 0.5 0.2 0.7 0.4-0.3-0.1-0.5-0.2-0.7-0.4z"></path><path fill="#a9a9a9" d="m25.7 2c0.4-0.1 0.6 0 0.8 0.3-0.3-0.1-0.5-0.2-0.8-0.3z"></path><path fill="#d4d4d5" d="m10.6 1.6v0.1c-0.7 0.3-1.4 0.6-2 1.1 0.1-0.3 0.3-0.5 0.6-0.6 0.5-0.2 0.9-0.4 1.4-0.6z"></path><path fill="#8a8989" d="m10.9 2.1h0.3c0 0.6 0 1.2 0.1 1.7 0.4 0.1 0.6 0 0.8-0.3 0.4-0.1 0.8-0.3 1.2-0.4 0.2-0.1 0.3-0.1 0.4-0.2 1.1-0.3 2.2-0.5 3.3-0.7h1.8c0.5 0.1 0.9 0.1 1.4 0.1 0.4 0.2 0.9 0.3 1.3 0.2 0.2 0.2 0.3 0.4 0.5 0.5-0.3 0.1-0.5 0.1-0.8 0.1-2.1-0.4-4.2-0.5-6.3-0.1l-0.3 0.4c0 0 0 0 0.1 0 0 0.1-0.1 0.1-0.1 0.1-0.8 0.2-1.6 0.5-2.4 0.8-0.5 0.2-1 0.5-1.5 0.7 0.1-0.1 0.1-0.1 0.2-0.2-0.2 0-0.4 0-0.6 0 0.1-0.1 0.2-0.2 0.3-0.3-0.3-0.1-0.6-0.1-1-0.1-0.2-0.4-0.3-0.9-0.2-1.4-0.1 0.1-0.3 0.2-0.5 0.2 0.1-0.1 0.2-0.2 0.3-0.3 0.4-0.2 0.9-0.4 1.3-0.6 0.1-0.2 0.2-0.2 0.4-0.2z"></path><path fill="#3c3c3c" d="m21.2 1.3c0.9 0.2 1.7 0.5 2.6 0.8 0.4 0.3 0.8 0.6 1.2 0.7 0.2 0.1 0.2 0.2 0.3 0.3-0.2 0.5-0.4 0.8-0.8 0.9 0.1 0.1 0.2 0.2 0.3 0.3-0.2 0-0.4-0.1-0.6-0.1v-0.3c-0.2 0-0.5 0-0.7-0.1 0.1 0 0.1-0.1 0.2-0.1l-0.4-0.3c0.2-0.2 0.4-0.4 0.7-0.6 0-0.1 0-0.2-0.1-0.3-0.1 0.2-0.3 0.3-0.6 0.2 0.1 0 0.1-0.1 0.2-0.2-0.2-0.1-0.3-0.1-0.5 0-0.1 0.1-0.2 0.3-0.3 0.4l0.5 0.2c-0.4 0.2-0.8 0.1-1.2-0.3 0.1 0 0.2-0.1 0.3 0 0.1-0.4 0.3-0.6 0.6-0.7-0.2-0.2-0.4-0.2-0.7 0-0.2 0.2-0.4 0.3-0.7 0.4-0.4 0.1-0.9 0-1.3-0.2 0-0.1-0.1-0.1-0.1-0.2 0.5 0.2 0.8 0 0.9-0.6-0.3 0-0.4 0.1-0.5 0.4 0-0.2-0.1-0.4-0.2-0.5-0.3 0.2-0.5 0.5-0.6 0.8-0.1-0.3 0-0.5 0-0.8 0.5-0.1 1-0.1 1.5-0.1z"></path><path fill="#6b6b6b" d="m8 3.2c0 0.2-0.2 0.3-0.4 0.2 0.1-0.1 0.3-0.2 0.4-0.2z"></path><path fill="#a8a8a7" d="m10.3 4.8c-0.2 0.2-0.5 0.3-0.8 0.4-0.1 0-0.2 0-0.2-0.1-0.1-0.4-0.2-0.7-0.4-0.9-0.2-0.1-0.4 0-0.6 0.1-0.1-0.1-0.3-0.2-0.5-0.3 0.3-0.2 0.7-0.3 1-0.4l-0.1-0.1c0.2-0.1 0.2-0.2 0.2-0.3 0.2 0 0.4-0.1 0.5-0.2-0.1 0.5 0 1 0.2 1.4 0.4 0 0.7 0 1 0.1-0.1 0.1-0.2 0.2-0.3 0.3z"></path><path fill="#a8a7a8" d="m27.7 3.1c0.3 0 0.5 0.1 0.6 0.3-0.2 0-0.4-0.1-0.6-0.3z"></path><path fill="#adaba7" d="m16.3 3.5h0.5c0.7 0.1 1.3 0.1 1.9 0.2 0.4 0 0.7 0 0.9 0.2 0.2-0.1 0.3-0.1 0.5-0.1 1 0.1 1.9 0.3 2.9 0.6l1.2 0.6c1 0.6 2 1.2 3 1.9 0.3 0.3 0.7 0.7 1 1-0.3 0-0.5-0.2-0.7-0.4-0.1 0-0.1 0.1-0.2 0.2-0.3-0.2-0.5-0.5-0.6-0.8-0.2-0.1-0.4-0.1-0.5 0.1l0.5 0.1c-0.1 0.1-0.1 0.2-0.1 0.4-0.2-0.2-0.2-0.2-0.3 0 0.2 0.2 0.5 0.3 0.8 0.3-0.2 0-0.2 0.1-0.1 0.2 0.1-0.1 0.3-0.1 0.4 0l0.4 0.6-0.1 0.2c0.2 0.1 0.4 0.1 0.6 0.1-0.1 0.2-0.1 0.4 0.1 0.5l-0.3 0.6c0 0.1 0.1 0.3 0.1 0.4-0.2-0.1-0.3-0.3-0.4-0.6 0.2-0.2 0.2-0.3 0-0.5-0.3-0.2-0.5-0.5-0.6-0.8-0.1-0.1-0.1-0.1-0.3-0.1 0.1-0.1 0-0.2-0.1-0.3-0.4-0.3-0.8-0.6-1.2-1-1.3-0.9-2.8-1.6-4.4-2-0.7-0.2-1.5-0.4-2.2-0.3-0.1-0.1-0.1-0.1-0.2-0.2-0.9 0-1.9 0-2.9 0.1-0.6 0-1.2 0.1-1.8 0.4-0.4 0.2-0.8 0.3-1.2 0.4 0.2-0.2 0.4-0.3 0.7-0.4-0.2-0.1-0.2-0.2 0-0.3-0.1-0.1-0.3-0.2-0.4-0.2l0.7-0.1c-0.3-0.2-0.5-0.2-0.8-0.1-0.2 0.2-0.5 0.4-0.7 0.5-0.1-0.1-0.2-0.1-0.3-0.1-0.2 0.1-0.4 0.2-0.7 0.2 0.6-0.3 1.2-0.6 1.8-0.8 1-0.2 2.1-0.4 3.1-0.7z"></path><path fill="#777677" d="m28.5 3.7c0.2 0 0.4 0.1 0.5 0.3-0.2 0-0.4-0.1-0.5-0.3z"></path><path fill="#aaa173" d="m14.6 3.5c0 0.1 0 0.2 0.1 0.3 0.5-0.2 1-0.3 1.6-0.3-1 0.3-2.1 0.5-3.1 0.7-0.6 0.2-1.2 0.5-1.8 0.8-0.2 0.1-0.5 0.2-0.8 0.2l0.1-0.2c0.5-0.2 1-0.5 1.5-0.7 0.8-0.3 1.6-0.6 2.4-0.8z"></path><path fill="#888788" d="m8.9 3.2c0 0.1 0 0.2-0.2 0.3l0.1 0.1c-0.3 0.1-0.7 0.2-1 0.4 0.2 0.1 0.4 0.2 0.5 0.3 0.2-0.1 0.4-0.2 0.6-0.1 0.2 0.2 0.3 0.5 0.4 0.9 0 0.1 0.1 0.1 0.2 0.1 0 0.2-0.1 0.3-0.2 0.4-0.2 0.1-0.4 0.2-0.6 0.3 0.1-0.1 0.1-0.1 0.1-0.2-0.4-0.1-0.8-0.2-1.2-0.2 0-0.4-0.2-0.7-0.3-1.1v-0.2c0.5-0.4 1-0.7 1.6-1z"></path><path fill="#adacad" d="m7.8 4.4h1c0.1 0.3 0.1 0.6 0.1 0.8h-0.4v-0.5h-0.3c-0.1 0.1 0 0.3 0.1 0.4-0.2 0.1-0.4 0.2-0.6 0.1 0.1-0.2 0.1-0.5 0.1-0.8z"></path><path fill="#8e8344" d="m23.6 4.2c0.1 0 0.3 0 0.4 0.1 0.2 0.1 0.4 0.2 0.6 0.4-0.4-0.1-0.7-0.2-1-0.5z"></path><path fill="#464546" d="m7.3 3.8c-0.1 0.1-0.2 0.2-0.3 0.3 0.1 0.1 0.2 0.1 0.3 0.1v0.2h-0.2c-0.1 0.1-0.3 0.3-0.4 0.4-0.2 0.2-0.4 0.2-0.6 0.2 0-0.2 0.1-0.3 0.1-0.4 0.3-0.4 0.7-0.7 1.1-0.8z"></path><path fill="#9b9a9b" d="m29.2 4.1c0.1 0 0.2 0 0.3 0.1 0.6 0.6 1.1 1.1 1.5 1.7-0.6-0.6-1.2-1.2-1.8-1.8z"></path><path fill="#a3a2a4" d="m28 3.9c0 0 0.1 0 0.1 0.1 0.3 0.2 0.4 0.6 0.4 1-0.5 0.2-0.9 0.2-1.3 0l-0.1-0.2c0.1-0.4 0.2-0.7 0.4-0.9h0.5z"></path><path fill="#b5af84" d="m15.9 4.7c-0.3 0.1-0.7 0.2-1.1 0.3-0.2 0.1-0.4 0.2-0.7 0.1 0.6-0.3 1.2-0.4 1.8-0.4z"></path><path fill="#cbc271" d="m19 4.8h-1.1c-1 0-2.1 0-3.1 0.2 0.4-0.1 0.8-0.2 1.1-0.3 1-0.1 2-0.1 2.9-0.1 0.1 0.1 0.1 0.1 0.2 0.2z"></path><path fill="#e3d65e" d="m17.9 4.8c-0.1 0.1-0.2 0.1-0.4 0.2 0.3 0 0.3 0.1 0 0.2 0.1 0 0.3 0 0.4 0v0.4c0.3 0 0.4 0.1 0.6 0.3 0 0.3 0.1 0.5 0.2 0.8 0.1-0.6 0.2-0.6 0.4 0.1-0.1 0-0.1 0-0.1 0-0.8 0-1.6 0-2.3 0.1h-0.8c-0.3 0.1-0.5 0-0.8-0.2-0.1 0.1-0.2 0.1-0.3-0.2l0.1-0.1c-0.1-0.2-0.2-0.3-0.3-0.3 0.1-0.2 0-0.2-0.3-0.2v-0.4c-0.1 0-0.2-0.1-0.3-0.2 0.1 0 0.1-0.1 0.1-0.2 0.3 0.1 0.5 0 0.7-0.1 1-0.2 2.1-0.2 3.1-0.2z"></path><path fill="#6f6f6f" d="m22.1 1.1c1.4 0.3 2.7 0.8 3.9 1.5 0.4 0.3 0.7 0.5 1.2 0.5 0.2 0.3 0.5 0.6 0.8 0.8h-0.5c-0.2 0.2-0.3 0.5-0.4 0.9l0.1 0.2c0.4 0.2 0.8 0.2 1.3 0 0-0.4-0.1-0.8-0.4-1 0.1 0 0.2 0 0.3 0 1.2 1 2.3 2.1 3.2 3.4-0.2-0.1-0.3-0.2-0.4-0.3-0.1-0.1-0.2-0.1-0.3 0-0.3 0.3-0.4 0.7-0.5 1.1-0.1 0-0.2 0.1-0.3 0.2-0.1-0.1-0.2-0.1-0.2-0.1-0.5-0.6-0.9-1.2-1.5-1.7-0.5-0.1-0.9-0.4-1.2-0.9-0.8-0.4-1.6-0.9-2.4-1.4-0.1-0.1-0.2-0.2-0.3-0.3 0.4-0.1 0.6-0.4 0.8-0.9-0.1-0.1-0.1-0.2-0.3-0.3-0.4-0.1-0.8-0.4-1.2-0.7-0.9-0.3-1.7-0.6-2.6-0.8 0.2-0.2 0.5-0.3 0.9-0.2z"></path><path fill="#756c3c" d="m24.9 4.8c0.3 0 0.6 0.2 0.8 0.4-0.3 0-0.6-0.2-0.8-0.4z"></path><path fill="#a5a4a2" d="m12.9 5.5c0 0.2 0 0.3-0.1 0.5-0.5 0.3-1.1 0.5-1.6 0.8-0.3 0.3-0.7 0.6-1.1 0.8-0.1 0.1-0.2 0.1-0.4 0.1 0-0.2 0-0.4 0-0.5-0.1-0.1-0.2-0.1-0.3-0.1 0.1-0.3 0.1-0.6-0.1-0.9 0.3-0.3 0.7-0.5 1.1-0.6 0.1-0.1 0.2-0.2 0.2-0.4 0.3 0 0.6-0.1 0.8-0.2 0.3 0 0.5-0.1 0.7-0.2 0.1 0 0.2 0 0.3 0.1 0.2-0.1 0.5-0.3 0.7-0.5 0.3-0.1 0.5-0.1 0.8 0.1l-0.7 0.1c0.1 0 0.3 0.1 0.4 0.2-0.2 0.1-0.2 0.2 0 0.3-0.3 0.1-0.5 0.2-0.7 0.4z"></path><path fill="#3b3a38" d="m10.3 4.8c0.2 0 0.4 0 0.6 0-0.1 0.1-0.1 0.1-0.2 0.2l-0.1 0.2c-0.3 0-0.6 0.1-0.8 0.4 0.1-0.1 0-0.2-0.1-0.3-0.1 0.2-0.2 0.3-0.4 0.3 0.1-0.1 0.2-0.2 0.2-0.4 0.3-0.1 0.6-0.2 0.8-0.4z"></path><path fill="#625b30" d="m25.9 5.3c0.2 0 0.3 0.1 0.4 0.3-0.2 0-0.3-0.1-0.4-0.3z"></path><path fill="#d4c353" d="m14 5.3c0.1 0.1 0.2 0.2 0.3 0.2v0.4c0.3 0 0.4 0 0.3 0.2 0.1 0 0.2 0.1 0.3 0.3l-0.1 0.1c0.1 0.3 0.2 0.3 0.3 0.2 0.3 0.2 0.5 0.3 0.8 0.2-0.6 0.2-1.2 0.4-1.8 0.5 0 0.1-0.1 0.1-0.1 0.2-0.3 0-0.6 0.1-0.9 0.2-0.3 0.1-0.6 0.1-0.8 0 0-0.2 0-0.4-0.1-0.5 0-0.2 0.1-0.4 0.2-0.5 0.3-0.1 0.6-0.3 0.7-0.6-0.1-0.6 0.2-0.9 0.9-0.9z"></path><path fill="#9e9d9e" d="m7.1 4.4h0.2c0.1 0.4 0.3 0.7 0.3 1.1 0.4 0 0.8 0.1 1.2 0.2 0 0.1 0 0.1-0.1 0.2-0.4 0.2-0.7 0.5-0.9 0.8h-0.3c0.1-0.5-0.1-0.9-0.5-1.1-0.2 0.1-0.4 0.2-0.6 0.2 0-0.3 0-0.5 0.2-0.7 0.2-0.1 0.3-0.1 0.4-0.1 0-0.2 0.1-0.4 0.1-0.6z"></path><path fill="#201e1c" d="m21.2 3.1c0.7 0.2 1.5 0.4 2.3 0.7 0.2 0.1 0.5 0.1 0.7 0.1v0.3c0.2 0 0.4 0.1 0.6 0.1 0.8 0.5 1.6 1 2.4 1.4 0.3 0.5 0.7 0.8 1.2 0.9 0.6 0.5 1 1.1 1.5 1.7 0.3 0.5 0.6 1 0.9 1.5h-0.3c0-0.2-0.2-0.4-0.4-0.5 0-0.2-0.1-0.4-0.3-0.5-0.1-0.3-0.3-0.5-0.6-0.6 0-0.3-0.1-0.4-0.3-0.5l-0.5-0.3c-0.3-0.4-0.6-0.7-1-0.9 0-0.1-0.1-0.2-0.2-0.3-0.2-0.2-0.3-0.3-0.6-0.4-0.1-0.1-0.2-0.1-0.3-0.2-0.1-0.2-0.2-0.3-0.4-0.3l-0.2-0.1c-0.2-0.2-0.5-0.4-0.8-0.4-0.1-0.1-0.2-0.1-0.3-0.1-0.2-0.2-0.4-0.3-0.6-0.4-0.1-0.1-0.3-0.1-0.4-0.1-0.3-0.2-0.6-0.3-0.9-0.3-0.2-0.2-0.4-0.3-0.7-0.2l-0.5-0.2c-0.3-0.1-0.7-0.2-1.2-0.2h-0.1c-0.1-0.1-0.2-0.1-0.3-0.2-1.4 0-2.7 0-4 0-0.1 0.1-0.2 0.1-0.3 0.2-0.3 0-0.6 0-0.9 0.1-0.1 0-0.1 0-0.1 0l0.3-0.4c2.1-0.4 4.2-0.3 6.3 0.1z"></path><path fill="#8b7f3f" d="m26.6 5.8c0.3 0.1 0.4 0.2 0.6 0.4-0.3 0-0.5-0.2-0.6-0.4z"></path><path fill="#888" d="m7.1 4.4c0 0.2-0.1 0.4-0.1 0.6-0.1 0-0.2 0-0.4 0.1-0.2 0.2-0.2 0.4-0.2 0.7 0.2 0 0.4-0.1 0.6-0.2 0.4 0.2 0.6 0.6 0.5 1.1h0.3c-0.5 0.4-1 0.9-1.4 1.5 0-0.2 0-0.3 0.1-0.5-0.3-0.4-0.6-0.8-0.8-1.2 0.1-0.3 0-0.7-0.1-1.1 0.1-0.2 0.2-0.4 0.4-0.6 0-0.2 0.1-0.2 0.2-0.2 0 0.1-0.1 0.2-0.1 0.4 0.2 0 0.4 0 0.6-0.2 0.1-0.1 0.3-0.3 0.4-0.4z"></path><path fill="#b8ae6e" d="m14.1 5.1c0 0.1 0 0.2-0.1 0.2-0.7 0-1 0.3-0.9 0.9-1 0.4-2 0.9-2.9 1.6-0.1 0-0.1-0.1-0.1-0.2 0.4-0.2 0.8-0.5 1.1-0.8 0.5-0.3 1.1-0.5 1.6-0.8 0.1-0.2 0.1-0.3 0.1-0.5 0.4-0.1 0.8-0.2 1.2-0.4z"></path><path fill="#6d6851" d="m10.6 5.2c0 0.2-0.1 0.3-0.2 0.4-0.4 0.1-0.8 0.3-1.1 0.6-0.4 0.2-0.7 0.5-1 0.7 0.4-0.5 0.9-1 1.5-1.3 0.2-0.3 0.5-0.4 0.8-0.4z"></path><path fill="#f1e86d" d="m17.9 4.8h1.1c0.7-0.1 1.5 0.1 2.2 0.3 0.1 0.2 0.2 0.4 0.1 0.6 0.3-0.1 0.6 0 0.9 0.3l0.1-0.2c0.1 0.1 0.3 0.1 0.4 0 0.6 0.2 0.6 0.4 0.1 0.5 0.2 0.2 0.5 0.2 0.7 0.1 0.1 0.2 0.2 0.4 0.5 0.4 0.1 0.5 0.4 0.9 0.9 1.3-0.1 0.2-0.2 0.2-0.3-0.1l-0.1 0.2c0 0.1 0.1 0.3 0.1 0.4 0.1-0.3 0.2-0.3 0.4 0 0 0.1 0 0.2 0 0.3-0.4 0-0.8-0.1-1.2-0.3-1.5-0.9-3.1-1.5-4.8-1.8 0 0 0 0 0.1 0-0.2-0.7-0.3-0.7-0.4-0.1-0.1-0.3-0.2-0.5-0.3-0.8-0.1-0.2-0.2-0.3-0.5-0.3v-0.4c-0.1 0-0.3 0-0.4 0 0.3-0.1 0.3-0.2 0-0.2 0.2-0.1 0.3-0.1 0.4-0.2z"></path><path fill="#ababac" d="m6.1 6h1c0.1 0.3 0.1 0.5 0 0.8-0.3 0-0.7 0-1.1 0 0.1-0.3 0.1-0.5 0.1-0.8z"></path><path fill="#a8a8aa" d="m29.4 5.3c0.6 0.2 0.9 0.7 0.8 1.3h-1.3c-0.1-0.3 0-0.6 0.1-0.8 0.1-0.1 0.3-0.1 0.4-0.1v-0.4z"></path><path fill="#999" d="m6 4.8c-0.2 0.2-0.3 0.4-0.4 0.6 0.1 0.4 0.2 0.8 0.1 1.1 0.2 0.4 0.5 0.8 0.8 1.2-0.1 0.2-0.1 0.3-0.1 0.5-0.5 0.2-0.9 0.3-1.3 0.4-0.7 0-0.9-0.3-0.7-0.9 0.5-0.1 0.9 0 1.3 0.2 0.1-0.1 0.1-0.2 0-0.4-0.5 0.1-0.9 0.1-1.4-0.1 0.4-0.2 0.4-0.5 0.2-0.8-0.1 0.1-0.2 0.1-0.3 0.1 0.5-0.8 1.1-1.4 1.8-1.9z"></path><path fill="#a69a51" d="m27.4 6.5c0.4 0.2 0.7 0.5 1 0.9-0.4-0.3-0.7-0.6-1-0.9z"></path><path fill="#b0aa85" d="m15.9 6.9h0.8c0.7 0 1.3 0 1.9 0.1-0.8 0-1.6 0-2.5 0.1-0.7 0.2-1.4 0.3-2.1 0.5 0-0.1 0.1-0.1 0.1-0.2 0.6-0.1 1.2-0.3 1.8-0.5z"></path><path fill="#aaa8a4" d="m18.6 7v0.7c-1.6-0.2-3.1 0.1-4.6 0.7-0.4 0-0.7 0.2-1 0.4-0.3-0.2-0.4-0.4-0.2-0.8 0.1 0.1 0.3 0 0.3-0.2 0.3-0.1 0.6-0.2 0.9-0.2 0.7-0.2 1.4-0.3 2.1-0.5 0.9-0.1 1.7-0.1 2.5-0.1z"></path><path fill="#e5d965" d="m20.4 7.6c-0.2 0-0.4 0-0.7 0.1 0 0 0 0.1-0.1 0.1 0.3-0.1 0.6-0.1 0.9 0 0.2 0.1 0.3 0.3 0.3 0.6-0.6 0-1.1 0-1.6 0.2-0.1-0.1-0.2-0.1-0.4-0.2l-2.5-0.1c0.1-0.1 0.3-0.2 0.5-0.4 0.6 0 1.2 0 1.8 0 0.1-0.2 0.2-0.4 0.1-0.6 0.6-0.1 1.2 0 1.7 0.3z"></path><path fill="#808080" d="m6.4 8.2c-0.6 0.7-1.1 1.4-1.6 2.2-0.2 0.1-0.4 0.1-0.6 0.1-0.1-0.2-0.1-0.4-0.1-0.7h-0.3v-0.4h-0.5c0 0.3-0.1 0.6-0.4 0.7v-0.5c0.1-0.1 0.2-0.3 0.3-0.5 0-0.3-0.2-0.4-0.4-0.4-0.1-0.1 0-0.3 0.1-0.4 0.4-0.6 0.9-1.1 1.3-1.6 0.1 0 0.2 0 0.3-0.1 0.2 0.3 0.2 0.6-0.2 0.8 0.5 0.2 0.9 0.2 1.4 0.1 0.1 0.2 0.1 0.3 0 0.4-0.4-0.2-0.8-0.3-1.3-0.2-0.2 0.6 0 0.9 0.7 0.9 0.4-0.1 0.8-0.2 1.3-0.4z"></path><path fill="#a49a6d" d="m13.1 6.2c-0.1 0.3-0.4 0.5-0.7 0.6-0.5 0.3-1.1 0.6-1.7 0.9-0.4 0.4-0.8 0.8-1.2 1.1-0.1 0.1-0.3 0.1-0.4 0.1 0.3-0.3 0.6-0.6 0.9-0.9-0.2-0.1-0.4-0.1-0.5 0 0-0.1 0.1-0.2 0.2-0.3 0.2 0 0.3 0 0.4-0.1 0 0.1 0 0.2 0.1 0.2 0.9-0.7 1.9-1.2 2.9-1.6z"></path><path fill="#807749" d="m28.9 7.7c0.2 0.1 0.3 0.2 0.3 0.5-0.2-0.1-0.3-0.3-0.3-0.5z"></path><path fill="#a09fa1" d="m31.6 7.4c0.1 0 0.1 0.1 0.2 0.2 0 0.3 0 0.5-0.1 0.7-0.4 0.1-0.9 0.1-1.3 0.1v-0.2c0.1-0.4 0.2-0.8 0.5-1.1 0.1-0.1 0.2-0.1 0.3 0 0.1 0.1 0.2 0.2 0.4 0.3z"></path><path fill="#949391" d="m9.3 6.2c0.2 0.3 0.2 0.6 0.1 0.9 0.1 0 0.2 0 0.3 0.1 0 0.1 0 0.3 0 0.5-0.1 0.1-0.2 0.2-0.2 0.3-0.2 0.2-0.5 0.4-0.7 0.7-0.2-0.1-0.5-0.1-0.8 0-0.4 0.5-0.8 1-1.2 1.5 0.1-0.3 0.2-0.5 0.3-0.7l-0.1-0.2c-0.1 0-0.3 0-0.5 0.1-0.1-0.1-0.1-0.2 0-0.3l0.1 0.1c0.5-0.8 1-1.5 1.7-2.3 0.3-0.2 0.6-0.5 1-0.7z"></path><path fill="#c8bf76" d="m16.7 6.9c0.7-0.1 1.5-0.1 2.3-0.1 1.7 0.3 3.3 0.9 4.8 1.8l0.8 0.7-0.4 0.2c0.1-0.1 0-0.2-0.1-0.3-1.1-0.8-2.3-1.4-3.7-1.6-0.5-0.3-1.1-0.4-1.7-0.3 0.1 0.2 0 0.4-0.1 0.6-0.6 0-1.2 0-1.8 0-0.9 0.1-1.9 0.3-2.8 0.5 1.5-0.6 3-0.9 4.6-0.7v-0.7c-0.6-0.1-1.2-0.1-1.9-0.1z"></path><path fill="#a8995c" d="m9.5 8.8c-0.1 0.2-0.3 0.4-0.5 0.5-0.2-0.2-0.5-0.4-0.7-0.6h-0.3c0.3-0.1 0.6-0.1 0.8 0 0.2-0.3 0.5-0.5 0.7-0.7 0.1-0.1 0.3-0.1 0.5 0-0.3 0.3-0.6 0.6-0.9 0.9 0.1 0 0.3 0 0.4-0.1z"></path><path fill="#d6cb71" d="m25.6 7.1c0.4 0.4 0.8 0.7 1.2 1 0.1 0.1 0.2 0.2 0.1 0.3-0.6-0.2-1-0.6-1.3-1.3z"></path><path fill="#d2c055" d="m16.8 7.9c-0.2 0.2-0.4 0.3-0.5 0.4l2.5 0.1c0.2 0.1 0.3 0.1 0.4 0.2-1.7-0.2-3.3-0.1-4.9 0.6-0.4 0.1-0.8 0.1-1.2 0.1v-0.4c0.3-0.1 0.6-0.3 0.9-0.5 0.9-0.2 1.9-0.4 2.8-0.5z"></path><path fill="#ab9e62" d="m12.8 8c-0.2 0.4-0.1 0.6 0.2 0.8 0.3-0.2 0.6-0.4 1-0.4-0.3 0.2-0.6 0.4-0.9 0.5h-0.3c-0.1-0.3-0.3-0.4-0.6-0.3-0.7 0.3-1.3 0.8-1.8 1.5h-0.3l0.2-0.4c0.7-0.7 1.5-1.3 2.5-1.7z"></path><path fill="#b5b193" d="m20.8 8.4l0.1 0.2c-0.3-0.1-0.6-0.1-0.9-0.1-0.1 0.1-0.2 0.2-0.1 0.3-0.1 0-0.2 0.1-0.2 0.1-0.2 0-0.5-0.1-0.7-0.1-1-0.1-2-0.1-3 0-0.3 0.1-0.6 0.3-0.8 0.5-0.3-0.1-0.6-0.2-0.9-0.1 1.6-0.7 3.2-0.8 4.9-0.6 0.5-0.2 1-0.2 1.6-0.2z"></path><path fill="#908648" d="m29.2 8.2c0.3 0.1 0.5 0.3 0.6 0.6-0.3-0.1-0.5-0.4-0.6-0.6z"></path><path fill="#bda33a" d="m12.4 6.8c-0.1 0.1-0.2 0.3-0.2 0.5 0.1 0.1 0.1 0.3 0.1 0.5 0.2 0.1 0.5 0.1 0.8 0 0 0.2-0.2 0.3-0.3 0.2-1 0.4-1.8 1-2.5 1.7-0.2 0.2-0.5 0.3-0.8 0.3v0.4c-0.8 0-1.4-0.4-1.6-1.2 0.2-0.1 0.3-0.3 0.4-0.5 0.2 0.2 0.5 0.4 0.7 0.6 0.2-0.1 0.4-0.3 0.5-0.5 0.4-0.3 0.8-0.7 1.2-1.1 0.6-0.3 1.2-0.6 1.7-0.9z"></path><path fill="#aaaaa9" d="m19.9 8.8c0.1 0.3 0.1 0.5 0.1 0.8 0.2-0.1 0.5-0.1 0.7 0 0.1 0.2 0 0.3-0.2 0.3 0.3 0.2 0.7 0.2 1 0.1l-0.5-0.1c0.1-0.1 0.2-0.1 0.3-0.1 0-0.3 0.2-0.5 0.5-0.5-0.2 0.2-0.1 0.2 0.1 0.3-0.1 0.1-0.2 0.1-0.4 0.2 0.1 0 0.2 0.1 0.3 0.2-0.2 0.2-0.3 0.4-0.3 0.6-0.4 0-0.5-0.1-0.1-0.3-0.1 0-0.3-0.1-0.4-0.1-0.6 0.1-1.2 0.1-1.8 0-0.1-0.1-0.2-0.1-0.4-0.1-0.8-0.2-1.7-0.2-2.7-0.1-0.2 0.1-0.4 0.1-0.5 0.3-0.3 0-0.6 0.1-0.9 0.2-0.5 0.3-1 0.5-1.6 0.6l-0.1-0.1 0.4-0.3c-0.1-0.1-0.2-0.1-0.2 0-0.2 0-0.3-0.1-0.3-0.2 0.1-0.2 0.1-0.4 0.1-0.5 0.4-0.1 0.6 0 0.7 0.4 0-0.3 0-0.6 0-0.9 0.2 0 0.5-0.1 0.6-0.3 0.3-0.1 0.6 0 0.9 0.1 0.2-0.2 0.5-0.4 0.8-0.5 1-0.1 2-0.1 3 0 0.2 0 0.5 0.1 0.7 0.1 0 0 0.1-0.1 0.2-0.1z"></path><path fill="#4e4d4e" d="m2.8 8.7c0.2 0 0.4 0.1 0.4 0.4-0.1 0.2-0.2 0.4-0.3 0.5 0-0.3-0.1-0.5-0.3-0.7l0.2-0.2z"></path><path fill="#cfc987" d="m21.7 8.8c0.4 0.1 0.7 0.3 1 0.6-0.4-0.1-0.7-0.3-1-0.6z"></path><path fill="#c1a93f" d="m12.8 8.9c0.1 0.2 0.2 0.4 0.3 0.7-0.1 0.1-0.3 0.2-0.4 0.2-0.1 0.1-0.2 0.2-0.2 0.3-0.2 0-0.4 0.2-0.5 0.4-0.2 0.1-0.4 0.2-0.6 0.4-0.2-0.1-0.4-0.2-0.5-0.3-0.2-0.1-0.4-0.3-0.5-0.5 0.5-0.7 1.1-1.2 1.8-1.6 0.3 0 0.5 0.1 0.6 0.4z"></path><path fill="#171717" d="m16.4 0.3c1.2 0 2.4 0 3.6 0.1 0.8 0 1.6 0.1 2.4 0.3h0.3c0.4 0.3 1 0.5 1.5 0.6 0.2 0.1 0.5 0.2 0.7 0.2 0.2 0.2 0.4 0.3 0.7 0.4 0.1 0 0.1 0 0.1 0.1 0.3 0.1 0.5 0.2 0.8 0.3 0.4 0.2 0.8 0.5 1.2 0.8 0.2 0.2 0.4 0.3 0.6 0.3 0.1 0.1 0.2 0.1 0.2 0.3 0.1 0.2 0.3 0.3 0.5 0.3l0.2 0.1c0.6 0.6 1.2 1.2 1.8 1.8 0.2 0.3 0.5 0.6 0.8 0.9 0.4 0.6 0.8 1.2 1.2 1.8 0.4 0.6 0.7 1.1 1 1.7 0.2 0.4 0.3 0.8 0.5 1.1 0 0.5 0.1 0.9 0.3 1.3 0.1 0.1 0.2 0.2 0.1 0.4 0.1 0.5 0.2 0.9 0.4 1.2 0.2 1.6 0.2 3.2 0.2 4.9v0.8c-0.2 0.3-0.3 0.7-0.2 1.2-0.3 0.9-0.5 1.9-0.7 2.8-0.3 0.3-0.5 0.7-0.6 1.1v0.2c-0.1 0-0.2 0.1-0.2 0.3-0.1-0.1-0.2-0.2-0.2-0.4 0.2-0.8 0.5-1.5 0.8-2.2 0.1-0.2 0.1-0.4 0.1-0.6 0.2-0.2 0.3-0.6 0.4-1 0-0.7 0.2-1.3 0.3-2 0.1-1.1 0.1-2.1 0-3.1 0-0.1-0.1-0.2-0.2-0.2v-0.1c0.1-0.4 0-0.7-0.2-1 0.1-1.1-0.2-2.2-0.9-3v-0.1c0-0.6-0.2-1.1-0.4-1.5-0.5-0.8-0.9-1.6-1.3-2.5-0.1-0.1-0.3-0.2-0.4-0.3-0.1-0.1-0.1-0.2-0.2-0.2-0.9-1.3-2-2.4-3.2-3.3-0.1-0.1-0.2-0.1-0.3-0.1 0-0.1-0.1-0.1-0.1-0.1-0.3-0.2-0.6-0.5-0.8-0.7-0.5-0.1-0.8-0.3-1.2-0.6-1.2-0.7-2.5-1.2-3.9-1.5-0.6-0.2-1.2-0.3-1.9-0.4-0.2-0.1-0.4-0.1-0.7-0.1-0.4-0.1-0.8-0.2-1.2-0.2-0.2 0-0.3 0-0.4 0.1-0.9 0-1.8 0.1-2.7 0.3h-0.6c-0.7 0.1-1.2 0.2-1.7 0.6h-0.1c-0.2 0.1-0.3 0.2-0.5 0.3-0.5 0.1-1 0.2-1.4 0.4-0.2 0-0.3 0-0.4 0.2-0.4 0.2-0.9 0.4-1.3 0.6-0.1 0.1-0.2 0.2-0.3 0.3-0.6 0.3-1.1 0.6-1.6 1-0.1 0-0.2 0-0.3-0.1 0.1-0.1 0.2-0.2 0.3-0.3 0.1-0.1 0.3-0.2 0.3-0.4 0.2 0.1 0.4 0 0.4-0.2 0.2-0.2 0.4-0.3 0.6-0.4 0.6-0.5 1.3-0.8 2-1.1 0.2 0.1 0.4 0 0.5-0.2l0.7-0.2c0.3 0 0.5-0.2 0.7-0.3 0.3 0 0.6-0.1 0.7-0.3 0.2 0.1 0.3 0 0.5-0.1 0.9-0.1 1.8-0.2 2.7-0.3z"></path><path fill="#908546" d="m22.7 3.9c0.3 0 0.6 0.1 0.9 0.3-0.4 0-0.7-0.1-0.9-0.3z"></path><path fill="#7f753d" d="m22 3.7c0.3-0.1 0.5 0 0.7 0.2-0.3 0-0.5-0.1-0.7-0.2z"></path><path fill="#747474" d="m24.2 2.8c0.3-0.1 0.6 0.1 0.7 0.3-0.1 0.2-0.3 0.5-0.5 0.7-0.3-0.1-0.3-0.2 0-0.4-0.1-0.1-0.2-0.2-0.4-0.4 0.1 0 0.2-0.1 0.2-0.2z"></path><path fill="#b3af96" d="m16.8 3.5c0.1-0.1 0.2-0.1 0.4-0.1 0.7 0 1.4 0 2.1 0.1 0.3 0 0.5 0.1 0.8 0.3-0.2 0-0.3 0-0.5 0.1-0.2-0.2-0.5-0.2-0.9-0.2-0.6-0.1-1.2-0.1-1.9-0.2z"></path><path fill="#a0a0a0" d="m26 2.6v0.4c0.4 0 0.6 0.2 0.6 0.6 0 0.1-0.1 0.2-0.1 0.3-0.4 0.1-0.8 0.1-1.2 0.1 0-0.3 0-0.7 0.1-1h0.3v-0.4h0.3z"></path><path fill="#9a8e4e" d="m20.3 3.3c0.5 0 0.9 0.1 1.2 0.2-0.4 0.1-0.8 0-1.2-0.2z"></path><path fill="#ada35f" d="m17 3.2l0.2 0.2c-0.2 0-0.3 0-0.4 0.1h-0.5c-0.6 0-1.1 0.1-1.6 0.3-0.1-0.1-0.1-0.2-0.1-0.3 0 0 0.1 0 0.1-0.1 0.3-0.1 0.6-0.1 0.9-0.1 0.5-0.1 1-0.1 1.4-0.1z"></path><path fill="#5f5f5f" d="m23.5 3.8c-0.8-0.3-1.6-0.5-2.3-0.7 0.3 0 0.5 0 0.8-0.1-0.2-0.1-0.3-0.3-0.5-0.5 0.3-0.1 0.5-0.2 0.7-0.4 0.3-0.2 0.5-0.2 0.7 0-0.3 0.1-0.5 0.3-0.6 0.7-0.1-0.1-0.2 0-0.3 0 0.4 0.4 0.8 0.5 1.2 0.3l-0.5-0.2c0.1-0.1 0.2-0.3 0.3-0.4 0.2-0.1 0.3-0.1 0.5 0-0.1 0.1-0.1 0.2-0.2 0.2 0.3 0.1 0.5 0 0.6-0.2 0.1 0.1 0.1 0.2 0.1 0.3-0.3 0.2-0.5 0.4-0.7 0.6l0.4 0.3c-0.1 0-0.1 0.1-0.2 0.1z"></path><path fill="#acacad" d="m10.4 3.1h0.3c0.1 0.3 0.1 0.5 0.2 0.8-0.4 0-0.8 0-1.2-0.1 0.1-0.2 0.2-0.4 0.1-0.6 0.3 0 0.4 0 0.6-0.1z"></path><path fill="#817741" d="m20.2 3.3c-1.1-0.1-2.1-0.1-3.2-0.1-0.4 0-0.9 0-1.4 0.1 0.1-0.1 0.2-0.1 0.3-0.2 1.3 0 2.6 0 4 0 0.1 0.1 0.2 0.1 0.3 0.2z"></path><path fill="#a9a9a9" d="m10.5 2.3c0.2-0.1 0.4-0.1 0.6-0.1 0 0.3 0 0.5-0.1 0.8-0.3-0.1-0.6-0.1-0.9 0 0-0.3 0.2-0.5 0.4-0.7z"></path><path fill="#565556" d="m13.7 2.9c-0.1 0.1-0.2 0.1-0.4 0.2-0.1-0.1-0.3-0.2-0.5-0.1 0-0.3 0-0.5 0-0.8 0.1-0.1 0.3-0.1 0.4-0.1 0 0.7 0.1 0.7 0.2 0 0 0 0-0.1-0.1-0.1 0.2-0.1 0.3-0.2 0.5-0.1 0 0.3 0 0.6-0.2 0.9 0 0.1 0 0.1 0.1 0.1z"></path><path fill="#434343" d="m17.9 0.5c0.6 0.1 1.1 0.1 1.6 0.1 0.3 0 0.5 0 0.7 0.1-0.8 0-1.6 0-2.4-0.1v0.4c-0.1 0.2-0.1 0.4-0.2 0.7l0.1 0.3c0.1-0.3 0.3-0.6 0.5-0.8l0.2 0c-0.1 0.2-0.2 0.4-0.3 0.7l0.1 0.1c0.2-0.2 0.4-0.5 0.5-0.7 0.5-0.1 0.5 0 0.1 0.3-0.1 0.2-0.1 0.4 0 0.6h-1.4c-0.1-0.5-0.1-0.9 0.2-1.4-0.4-0.1-0.8-0.1-1.2 0-0.2 0.4-0.4 0.5-0.8 0.5-0.1 0.3-0.1 0.6 0 0.9 0.2-0.1 0.4-0.1 0.7-0.2 0.1-0.3 0.2-0.6 0.3-0.9 0.1-0.2 0.3-0.2 0.4-0.1 0 0.4-0.2 0.7-0.4 1 0.2 0 0.3 0.1 0.4 0.2-1.1 0.2-2.2 0.4-3.3 0.7-0.1 0-0.1 0-0.1-0.1 0.2-0.3 0.2-0.6 0.2-0.9-0.2-0.1-0.3 0-0.5 0.1 0.1 0 0.1 0.1 0.1 0.1-0.1 0.7-0.2 0.7-0.2 0-0.1 0-0.3 0-0.4 0.1 0 0.3 0 0.5 0 0.8 0.2-0.1 0.4 0 0.5 0.1-0.4 0.1-0.8 0.3-1.2 0.4-0.2 0.3-0.4 0.4-0.8 0.3-0.1-0.5-0.1-1.1-0.1-1.7h-0.3c0.4-0.2 0.9-0.3 1.4-0.4 0.2-0.1 0.3-0.2 0.5-0.3v0.5c0.9-0.5 1.9-0.7 3-0.9 0.2-0.1 0.2-0.2-0.1-0.3-0.1 0.1-0.3 0.1-0.5 0.1 0.9-0.2 1.8-0.3 2.7-0.3z"></path><path fill="#707070" d="m12 1.9h0.4c0 0.4 0 0.8 0.1 1.2l-0.1 0.1c-0.2-0.1-0.4-0.2-0.6-0.2 0 0.2 0 0.4-0.1 0.5-0.1 0.2-0.1 0.2-0.2 0-0.1-0.4-0.1-0.8 0-1.2 0.1-0.2 0.3-0.3 0.5-0.4z"></path><path fill="#373737" d="m12 2.1c0.1 0 0.2 0.1 0.2 0.3 0 0.3-0.1 0.4-0.4 0.4-0.1-0.3 0-0.5 0.2-0.7z"></path><path fill="#666667" d="m21.4 1.6c0.2 0 0.4 0 0.6 0.1-0.3 0.3-0.6 0.5-0.8 0.7l-0.2-0.1c0.1-0.2 0.3-0.4 0.4-0.7z"></path><path fill="#5a595a" d="m20.2 0.7c0.7 0.1 1.3 0.2 1.9 0.4-0.4-0.1-0.7 0-0.9 0.2-0.5 0-1 0-1.5 0.1 0 0.3-0.1 0.5 0 0.8 0.1-0.3 0.3-0.6 0.6-0.8 0.1 0.1 0.2 0.3 0.2 0.5 0.1-0.3 0.2-0.4 0.5-0.4-0.1 0.6-0.4 0.8-0.9 0.6 0 0.1 0.1 0.1 0.1 0.2-0.5 0-0.9 0-1.4-0.1-0.1-0.2-0.1-0.4 0-0.6 0.4-0.3 0.4-0.4-0.1-0.3-0.1 0.2-0.3 0.5-0.5 0.7l-0.1-0.1c0.1-0.3 0.2-0.5 0.3-0.7l-0.2 0c-0.2 0.2-0.4 0.5-0.5 0.8l-0.1-0.3c0.1-0.3 0.1-0.5 0.2-0.7 0.8 0 1.5 0 2.3 0.2 0.3-0.1 0.7-0.1 1-0.2l-0.8-0.1c-0.1 0-0.1-0.1-0.1-0.2z"></path><path fill="#969696" d="m12.8 1.4h0.1c0.5-0.2 1-0.3 1.6-0.4 0 0 0.1-0.1 0.1-0.2h0.6c0.2 0 0.4 0 0.6-0.1 0.2 0.1 0.2 0.2 0 0.3-1.1 0.2-2.1 0.4-3 0.9v-0.5z"></path><path fill="#636363" d="m17.4 2.2h-0.4c-0.1-0.1-0.2-0.2-0.4-0.2 0.2-0.3 0.4-0.6 0.4-1-0.1-0.1-0.3-0.1-0.4 0.1-0.1 0.3-0.2 0.6-0.3 0.9-0.3 0.1-0.5 0.1-0.7 0.2-0.1-0.3-0.1-0.6 0-0.9 0.4 0 0.6-0.1 0.8-0.5 0.4-0.1 0.8-0.1 1.2 0-0.3 0.5-0.3 0.9-0.2 1.4z"></path><path fill="#868686" d="m20.2 0.7c0 0.1 0 0.2 0.1 0.2l0.8 0.1c-0.3 0.1-0.7 0.1-1 0.2-0.8-0.2-1.5-0.2-2.3-0.2v-0.4c0.8 0.1 1.6 0.1 2.4 0.1z"></path><path fill="#5d5d5e" d="m14.6 0.8c0 0.1-0.1 0.2-0.1 0.2-0.6 0.1-1.1 0.2-1.6 0.4 0.5-0.4 1-0.5 1.7-0.6z"></path><path fill="#393839" d="m17.9 0.5c0.1-0.1 0.2-0.1 0.4-0.1 0.4 0 0.8 0.1 1.2 0.2-0.5 0-1 0-1.6-0.1z"></path><path fill="#c0ae5b" d="m12.8 8.9h0.3v0.4c0.4 0 0.8 0 1.2-0.1-0.1 0.2-0.4 0.3-0.6 0.3l-1.2 0.6c0-0.1 0.1-0.2 0.2-0.3 0.1 0 0.3-0.1 0.4-0.2-0.1-0.3-0.2-0.5-0.3-0.7z"></path><path fill="#d9ce69" d="m17 3.2c1.1 0 2.1 0 3.2 0.1h0.1c0.4 0.2 0.8 0.3 1.2 0.2l0.5 0.2c0.2 0.1 0.4 0.2 0.7 0.2 0.2 0.2 0.5 0.3 0.9 0.3 0.3 0.3 0.6 0.4 1 0.5 0.1 0 0.2 0 0.3 0.1 0.2 0.2 0.5 0.4 0.8 0.4l0.2 0.1c0.1 0.2 0.2 0.3 0.4 0.3 0.1 0.1 0.2 0.1 0.3 0.2 0.1 0.2 0.3 0.4 0.6 0.4 0.1 0.1 0.2 0.2 0.2 0.3 0.3 0.3 0.6 0.6 1 0.9l0.5 0.3c0 0.2 0.1 0.4 0.3 0.5 0.1 0.2 0.3 0.5 0.6 0.6 0.2 0.1 0.3 0.3 0.3 0.5 0.1 0.2 0.2 0.4 0.4 0.5 0.1 0.3 0.2 0.5 0.4 0.6l0.1 0.2c0.1 0.2 0.2 0.5 0.2 0.7-0.2 0.1-0.3 0.1-0.5 0.1 0-0.1 0-0.2-0.1-0.3-0.4-0.6-0.7-1.2-1.1-1.8-0.5-0.5-0.9-0.9-1.3-1.4-0.3-0.3-0.7-0.7-1-1-1-0.7-2-1.3-3-1.9l-1.2-0.6c-1-0.3-1.9-0.5-2.9-0.6-0.3-0.2-0.5-0.3-0.8-0.3-0.7-0.1-1.4-0.1-2.1-0.1l-0.2-0.2z"></path><path fill="#ede36d" d="m21.2 5.1c1.6 0.4 3.1 1.1 4.4 2 0.3 0.7 0.7 1.1 1.3 1.3 0.2 0 0.2 0 0.3 0.1 0.1 0.3 0.3 0.6 0.6 0.8l-0.3 0.7c-0.2-0.2-0.2-0.2-0.2 0.1 0.3 0.4 0.7 0.9 1 1.4 0.1 0 0.3 0 0.4-0.1 0.3 0.4 0.5 0.9 0.7 1.4 0.3 0.2 0.5 0.5 0.5 1-0.2-0.2-0.4-0.5-0.5-0.8l-0.2 0.1-0.1-0.6c0 0.2-0.2 0.3-0.4 0.3-0.1-0.3-0.2-0.6-0.4-0.9-0.7-0.7-0.9-0.6-0.5 0.3 0.5-0.1 0.5 0 0.2 0.4l0.3 0.3c-0.1 0.1-0.2 0.3-0.2 0.4 0.1 0.3 0.2 0.7 0.2 1h-0.1c-0.3-0.8-0.7-1.7-1.3-2.4-0.1-0.4-0.3-0.7-0.6-0.9-0.5-0.7-1.1-1.2-1.7-1.7l-0.8-0.7c0.4 0.2 0.8 0.3 1.2 0.3 0-0.1 0-0.2 0-0.3-0.2-0.3-0.3-0.3-0.4 0 0-0.1-0.1-0.3-0.1-0.4l0.1-0.2c0.1 0.3 0.2 0.3 0.3 0.1-0.5-0.4-0.8-0.8-0.9-1.3-0.3 0-0.4-0.2-0.5-0.4-0.2 0.1-0.5 0.1-0.7-0.1 0.5-0.1 0.5-0.3-0.1-0.5-0.1 0.1-0.3 0.1-0.4 0l-0.1 0.2c-0.3-0.3-0.6-0.4-0.9-0.3 0.1-0.2 0-0.4-0.1-0.6z"></path><path fill="#9f9fa0" d="m31.6 10.2v-0.1c0-0.2 0.1-0.5 0.1-0.7 0.1 0 0.3 0 0.4-0.1-0.1-0.1-0.1-0.2-0.1-0.4h0.5c0 0.3 0 0.4 0.2 0.5 0.2 0.3 0.2 0.6 0.2 0.9-0.5 0-0.9 0-1.3-0.1z"></path><path fill="#80763f" d="m30.1 9.3c0.2 0.1 0.4 0.3 0.4 0.5-0.2-0.1-0.3-0.3-0.4-0.5z"></path><path fill="#b8b7b8" d="m33 8.6c0.3 0.1 0.4 0.3 0.6 0.5 0.1 0.4 0.3 0.8 0.4 1.2-0.3-0.6-0.6-1.1-1-1.7z"></path><path fill="#d5ce82" d="m22.8 9.4c0.1 0 0.2 0 0.3 0.1l0.1 0.6c0.1 0.1 0.3 0.3 0.4 0.4-0.2 0-0.4-0.1-0.5-0.3-0.1-0.3-0.1-0.6-0.3-0.8z"></path><path fill="#ae9330" d="m8 8.7h0.3c-0.1 0.2-0.2 0.4-0.4 0.5 0.2 0.8 0.8 1.2 1.6 1.2v-0.4c0.3 0 0.6-0.1 0.8-0.3l-0.2 0.4c-0.4 0.2-0.7 0.5-0.8 1-0.1 0-0.3 0-0.4 0.1-0.3 0.3-0.5 0.6-0.7 1-0.3 0.5-0.5 1-0.7 1.5-0.5 0.7-0.8 1.5-0.8 2.4-0.2-0.5-0.3-0.5-0.4 0-0.1-0.3-0.2-0.6-0.3-0.9l-0.4-0.1c-0.1-0.2-0.3-0.5-0.5-0.8 0.1-0.4 0.1-0.8 0.2-1.2 0.3-0.5 0.5-1 0.6-1.5 0.2-0.4 0.5-0.8 0.9-1.1 0-0.1 0-0.2 0-0.3 0.4-0.5 0.8-1 1.2-1.5z"></path><path fill="#b2ab7f" d="m18.8 10.1c-1.1-0.1-2.1 0-3.2 0.2 0.1-0.2 0.3-0.2 0.5-0.3 1-0.1 1.9-0.1 2.7 0.1z"></path><path fill="#838281" d="m8.3 6.9c-0.7 0.8-1.2 1.5-1.7 2.3l-0.1-0.1c-0.1 0.1-0.1 0.2 0 0.3 0.2-0.1 0.4-0.1 0.5-0.1l0.1 0.1c-0.1 0.3-0.2 0.5-0.3 0.8 0 0.1 0 0.2 0 0.3-0.4 0.3-0.7 0.7-0.9 1.1-0.2 0.2-0.3 0.4-0.4 0.6-0.2 0.4-0.3 0.7-0.4 1.1-0.4 0.2-0.6 0.1-0.4-0.4-0.1-0.2-0.1-0.1-0.2 0.1 0-0.5 0-0.9 0.2-1.4 0.1-0.2 0.3-0.5 0.6-0.7 0.2-0.6 0.5-1.1 0.7-1.6 0.6-0.9 1.4-1.7 2.3-2.4z"></path><path fill="#9b9995" d="m13.7 9.5c0 0.3 0 0.6 0 0.9-0.1-0.4-0.3-0.5-0.7-0.4 0 0.1 0 0.3-0.1 0.5 0 0.1 0.1 0.2 0.3 0.2 0-0.1 0.1-0.1 0.2 0l-0.4 0.3 0.1 0.1c0.6-0.1 1.1-0.3 1.6-0.6l-0.1 0.2c-0.5 0.3-1 0.5-1.5 0.8-0.4 0.1-0.7 0.3-0.8 0.7-0.2 0-0.3 0.1-0.3 0.3 0.2 0.2 0.2 0.4 0.2 0.6-0.3 0.3-0.6 0.5-0.8 0.8v-0.6c0.4 0.1 0.4 0 0.1-0.2l-0.2 0.1c-0.1-0.3-0.2-0.7-0.3-1-0.3 0.1-0.3 0.3 0 0.4-0.2 0.2-0.3 0.2-0.4-0.1-0.1-0.2-0.1-0.4-0.1-0.6-0.3 0-0.3-0.1-0.2-0.3-0.2-0.1-0.3-0.2-0.1-0.4-0.2-0.7-0.5-0.8-0.9-0.1 0.1-0.5 0.4-0.8 0.8-1h0.3c0.1 0.2 0.3 0.4 0.5 0.5 0.4 0.6 0.7 0.6 1.1-0.1 0.1-0.2 0.3-0.4 0.5-0.4l1.2-0.6z"></path><path fill="#706637" d="m30.5 9.8h0.3c0 0.2 0 0.4 0.1 0.6-0.2-0.1-0.3-0.3-0.4-0.6z"></path><path fill="#6b6b6b" d="m31.8 7.6c0.1 0.1 0.3 0.2 0.4 0.3 0.4 0.9 0.8 1.7 1.3 2.5v0.5l-1.8 0.1c0-0.3-0.1-0.4-0.3-0.6 0.1-0.1 0.1-0.1 0.2-0.2 0.4 0.1 0.8 0.1 1.3 0.1 0-0.3 0-0.6-0.2-0.9-0.2-0.1-0.2-0.2-0.2-0.5h-0.5c0 0.2 0 0.3 0.1 0.4-0.1 0.1-0.3 0.1-0.4 0.1 0 0.2-0.1 0.5-0.1 0.7-0.2 0-0.3 0-0.4-0.1l-0.2-0.6c-0.3-0.1-0.5-0.3-0.6-0.6-0.1-0.1-0.1-0.3 0-0.4 0.4 0 0.9 0 1.3-0.1 0.1-0.2 0.1-0.4 0.1-0.7z"></path><path fill="#cdc061" d="m18.8 10.1c0.2 0 0.3 0 0.4 0.1 0.8 0.2 1.6 0.4 2.3 0.7 0.4 0.2 0.7 0.5 0.9 0.7-0.3-0.1-0.5-0.2-0.7-0.5-0.5-0.1-1-0.3-1.5-0.5-0.3 0.1-0.5 0.1-0.8 0.1 0.2 0 0.3-0.1 0.5-0.2-0.4-0.1-0.7-0.1-1 0.1-0.3-0.4-0.6-0.4-1-0.3 0.3 0.2 0.6 0.4 0.8 0.7 0.7 0.2 1.3 0.4 1.9 0.6 0.2 0 0.3 0.1 0.4 0.3-1-0.3-1.9-0.6-2.8-0.9-0.1-0.2-0.2-0.4-0.5-0.4-0.4 0.1-0.9 0.3-1.2 0.6 0.2-0.1 0.3-0.3 0.3-0.6 0.3 0 0.6 0 0.9-0.1-1.1-0.3-2.1-0.2-3.1 0.2l0.1-0.2c0.3-0.1 0.6-0.2 0.9-0.2 1.1-0.2 2.1-0.3 3.2-0.2z"></path><path fill="#bfb981" d="m27.8 9.3c0.2 0.2 0.2 0.3 0 0.5 0.1 0.3 0.2 0.5 0.4 0.6 0.3 0.3 0.5 0.6 0.5 1-0.1 0.1-0.3 0.1-0.4 0.1-0.3-0.5-0.7-1-1-1.4 0-0.3 0-0.3 0.2-0.1l0.3-0.7z"></path><path fill="#9c9c9c" d="m4.2 10.5c-0.2 0.2-0.4 0.2-0.7 0.2-0.6 0.1-0.8-0.1-0.6-0.6 0.3-0.1 0.4-0.4 0.4-0.7h0.5v0.4h0.3c0 0.3 0 0.5 0.1 0.7z"></path><path fill="#1a191a" d="m9.8 5.6c-0.6 0.3-1.1 0.8-1.5 1.3-0.9 0.7-1.7 1.5-2.3 2.4-0.4 0.6-0.8 1.2-1.2 1.8 0 0.2-0.1 0.4-0.1 0.5-0.2 0.4-0.4 0.7-0.5 1.1-0.2 0.3-0.4 0.6-0.5 1-0.1-0.4 0-0.7 0.1-1 0.1-0.5 0.3-1 0.5-1.4 0.1-0.3 0.3-0.6 0.5-0.9 0.5-0.8 1-1.5 1.6-2.2 0.4-0.6 0.9-1.1 1.4-1.5 0.2-0.3 0.5-0.6 0.9-0.8 0.2-0.1 0.4-0.2 0.6-0.3 0.2 0 0.3-0.1 0.4-0.3 0.1 0.1 0.2 0.2 0.1 0.3z"></path><path fill="#5c5c5c" d="m6 9.3c-0.2 0.5-0.5 1-0.7 1.6-0.3 0.2-0.5 0.5-0.6 0.7 0-0.1 0.1-0.3 0.1-0.5 0.4-0.6 0.8-1.2 1.2-1.8z"></path><path fill="#afaeac" d="m20.9 8.6c0.3 0 0.5 0.1 0.8 0.2 0.3 0.3 0.6 0.5 1 0.6h0.1c0.2 0.2 0.2 0.5 0.3 0.8 0.1 0.2 0.3 0.3 0.5 0.3 0.5 0.5 1.1 1 1.5 1.6 0.3 0.4 0.5 0.8 0.7 1.2 0.1 0.1 0.1 0.2 0.2 0.1 0 0.2 0 0.3 0.1 0.5 0.1 0.3 0.3 0.5 0.5 0.7v0.3c0.2 1.2 0.4 2.5 0.5 3.7-0.1 0.8-0.2 1.5-0.5 2.3-0.2 0.6-0.4 1.3-0.7 1.9-0.3 0.3-0.6 0.7-0.8 1.1-0.1 0.1-0.2 0.1-0.3 0.1-0.1-0.2-0.3-0.5-0.6-0.7-0.1 0.2-0.3 0.3-0.5 0.5l0-0.1c0.2-0.3 0.4-0.7 0.5-1 0.1-0.5 0.3-0.8 0.7-0.9l0.4-1.4c0-0.1-0.1-0.2-0.2-0.2 0-0.1-0.1-0.3-0.1-0.4 0.1-0.5 0.2-1.1 0.3-1.6 0.1 0 0.2 0 0.3-0.1 0.1-0.3 0.1-0.6 0.1-0.9 0-0.5-0.1-0.9-0.2-1.3-0.1-0.4-0.2-0.8-0.3-1.2-0.1-0.2-0.2-0.3-0.4-0.4l-0.2-0.5c-0.2-0.5-0.6-0.9-1-1.3-0.2-0.1-0.4-0.3-0.5-0.5-0.2-0.1-0.4-0.2-0.7-0.4-0.2-0.2-0.5-0.5-0.9-0.7-0.7-0.3-1.5-0.5-2.3-0.7 0.6 0.1 1.2 0.1 1.8 0 0.1 0 0.3 0.1 0.4 0.1-0.4 0.2-0.3 0.3 0.1 0.3 0-0.2 0.1-0.4 0.3-0.6-0.1-0.1-0.2-0.2-0.3-0.2 0.2-0.1 0.3-0.1 0.4-0.2-0.2-0.1-0.3-0.1-0.1-0.3-0.3 0-0.5 0.2-0.5 0.5-0.1 0-0.2 0-0.3 0.1l0.5 0.1c-0.3 0.1-0.7 0.1-1-0.1 0.2 0 0.3-0.1 0.2-0.3-0.2-0.1-0.5-0.1-0.7 0 0-0.3 0-0.5-0.1-0.8-0.1-0.1 0-0.2 0.1-0.3 0.3 0 0.6 0 0.9 0.1z"></path><path fill="#aa9c66" d="m12 10.5c-0.4 0.7-0.7 0.7-1.1 0.1 0.1 0.1 0.3 0.2 0.5 0.3 0.2-0.2 0.4-0.3 0.6-0.4z"></path><path fill="#cdb949" d="m16.5 11.2c-0.8 0.1-1.4 0.3-2 0.7-0.2 0-0.3 0-0.5-0.1 0.2-0.1 0.4-0.2 0.6-0.3-0.1 0-0.2 0-0.4 0 0.1-0.1 0.2-0.2 0.3-0.3 0.1 0.1 0.2 0.1 0.4 0.1-0.2-0.2-0.3-0.3-0.3-0.6 1-0.4 2-0.5 3.1-0.2-0.3 0.1-0.6 0.1-0.9 0.1 0 0.3-0.1 0.5-0.3 0.6z"></path><path fill="#a7a6a5" d="m28.2 7.9c0.4 0.5 0.8 0.9 1.3 1.4 0.4 0.6 0.7 1.2 1.1 1.8 0.1 0.1 0.1 0.2 0.1 0.3 0.2 0 0.3 0 0.5-0.1 0.1 0 0.1 0 0.1-0.1 0.2 0.3 0.4 0.7 0.5 1.1 0.2 0.6 0.3 1.2 0.5 1.8 0.1 0.1 0.2 0.3 0.3 0.4 0.1 0.4 0.2 0.8 0.2 1.3 0.1 0.5 0.1 1 0.1 1.5-0.3-0.1-0.5 0-0.7 0.1 0 0.5-0.1 1.1-0.2 1.7-0.5 0.3-0.8 0.1-0.8-0.6l-0.4 0.7-0.1-2.8c0-0.1-0.1-0.2-0.2-0.3h-0.1c-0.1-0.8-0.3-1.6-0.5-2.3 0-0.5-0.2-0.8-0.5-1-0.2-0.5-0.4-1-0.7-1.4 0-0.4-0.2-0.7-0.5-1 0-0.1-0.1-0.3-0.1-0.4l0.3-0.5c-0.2-0.2-0.2-0.4-0.1-0.6-0.2 0-0.4 0-0.6-0.1l0.1-0.2-0.4-0.6c-0.1-0.1-0.3-0.1-0.4 0-0.1-0.1-0.1-0.2 0.1-0.2-0.3 0-0.6-0.1-0.8-0.3 0.1-0.2 0.1-0.2 0.2 0 0.1-0.2 0.1-0.3 0.2-0.4l-0.5-0.1c0.1-0.2 0.3-0.2 0.5-0.1 0.1 0.3 0.3 0.6 0.6 0.8 0.1-0.1 0.1-0.2 0.2-0.2 0.2 0.2 0.4 0.4 0.7 0.4z"></path><path fill="#70683e" d="m31 10.6c0.2 0.1 0.4 0.3 0.3 0.6 0 0.1 0 0.1-0.1 0.1 0-0.2-0.1-0.5-0.2-0.7z"></path><path fill="#bab487" d="m26.3 11c0.3 0.2 0.5 0.5 0.6 0.9-0.2-0.3-0.5-0.6-0.6-0.9z"></path><path fill="#545354" d="m30.4 8.2v0.2c-0.1 0.1-0.1 0.3 0 0.4 0.1 0.3 0.3 0.5 0.6 0.6l0.2 0.6c0.1 0.1 0.2 0.1 0.4 0.1v0.1c-0.1 0.1-0.1 0.1-0.2 0.2 0.2 0.2 0.3 0.3 0.3 0.6l1.8-0.1v-0.5c0.2 0.4 0.4 0.9 0.4 1.5-0.2 0.1-0.4 0.1-0.6 0.2-0.2 0-0.2-0.1-0.3-0.2-0.1-0.1-0.1-0.2-0.1-0.4h0.6v-0.3h-1.5v0.3c-0.3-0.4-0.6-0.8-0.8-1.3-0.1-0.2-0.3-0.3-0.4-0.4-0.3-0.5-0.6-1-0.9-1.5 0 0 0.1 0 0.2 0.1 0.1-0.1 0.2-0.2 0.3-0.2z"></path><path fill="#929292" d="m11.4 13.9c-0.1 0.1-0.1 0.3-0.1 0.4h-0.1c-0.1 0.2-0.2 0.4-0.4 0.5l-0.1-0.1c-0.1 0.2-0.2 0.4-0.2 0.7-0.1-0.2-0.2-0.2-0.3 0 0.2 0.2 0.3 0.4 0 0.6-0.1-0.5-0.2-1.1-0.4-1.7-0.1 0.2-0.2 0.2-0.4 0 0-0.3-0.1-0.7-0.2-1.1l-0.2 0.2c-0.3-0.2-0.3-0.4-0.1-0.6 0.1 0.2 0.2 0.2 0.3 0-0.2-0.2-0.4-0.5-0.6-0.7 0.2-0.3 0.3-0.6 0.3-0.9 0.1-0.1 0.3-0.1 0.4-0.1 0.4-0.7 0.7-0.6 0.9 0.1-0.2 0.2-0.1 0.3 0.1 0.4-0.1 0.2-0.1 0.3 0.2 0.3 0 0.2 0 0.4 0.1 0.6 0.1 0.3 0.2 0.3 0.4 0.1-0.3-0.1-0.3-0.3 0-0.4 0.1 0.3 0.2 0.7 0.3 1l0.2-0.1c0.3 0.2 0.3 0.3-0.1 0.2v0.6z"></path><path fill="#2d2c2d" d="m33 11.9c0.1-0.2 0.2-0.3 0.5-0.3v0.4c-0.2 0-0.3 0-0.5-0.1z"></path><path fill="#747474" d="m34.5 11.4c0.2 0.4 0.4 0.8 0.3 1.3-0.2-0.4-0.3-0.8-0.3-1.3z"></path><path fill="#d0cfd0" d="m1.9 10.4c-0.2 0.6-0.5 1.1-0.7 1.7l-0.2 0.6c0-0.9 0.3-1.6 0.9-2.3z"></path><path fill="#a49558" d="m13.1 11.5c-0.2 0.3-0.5 0.6-0.8 0.7 0.1-0.4 0.4-0.6 0.8-0.7z"></path><path fill="#bfa53d" d="m14.6 10.7c0 0.3 0.1 0.4 0.3 0.6-0.2 0-0.3 0-0.4-0.1-0.1 0.1-0.2 0.2-0.3 0.3 0.2 0 0.3 0 0.4 0-0.2 0.1-0.4 0.2-0.6 0.3 0.2 0.1 0.3 0.1 0.5 0.1-0.4 0.1-0.6 0.3-0.8 0.6-0.4 0.1-0.7 0.4-0.9 0.7-0.2 0-0.3 0.1-0.4 0.3-0.1 0.1-0.2 0.1-0.3-0.1 0.1-0.1 0.2-0.3 0.2-0.5-0.1-0.2-0.1-0.5 0-0.7 0.3-0.1 0.6-0.4 0.8-0.7 0.5-0.3 1-0.5 1.5-0.8z"></path><path fill="#ece371" d="m20.4 7.6c1.4 0.2 2.6 0.8 3.7 1.6 0.1 0.1 0.2 0.2 0.1 0.3-0.1 0.2-0.1 0.4 0 0.6 1 0.7 1.8 1.6 2.4 2.7 0.2 0.6 0.4 1.2 0.6 1.8 0.1 0 0.1 0.1 0.2 0.1 0.1 0 0.1 0.1 0.1 0.2 0.1 0.3 0.1 0.5 0.1 0.8-0.2-0.4-0.4-0.9-0.5-1.4h-0.4c0 0.3 0.1 0.6 0.3 0.7 0.3 1.4 0.3 2.8 0.2 4.2 0-1.1-0.1-2.1-0.2-3.2 0-0.4-0.2-0.8-0.4-1.1v-0.3c-0.1-0.5-0.3-0.8-0.6-1.2-0.1-0.4-0.3-0.8-0.4-1.3-0.1 0.1-0.3 0.1-0.5 0-0.4-0.6-1-1.1-1.5-1.6-0.1-0.1-0.3-0.3-0.4-0.4l-0.1-0.6c-0.1-0.1-0.2-0.1-0.3-0.1h-0.1c-0.3-0.3-0.6-0.5-1-0.6-0.3-0.1-0.5-0.2-0.8-0.2l-0.1-0.2c0-0.3-0.1-0.5-0.3-0.6-0.3-0.1-0.6-0.1-0.9 0 0.1 0 0.1-0.1 0.1-0.1 0.3-0.1 0.5-0.1 0.7-0.1z"></path><path fill="#e0d87c" d="m26 13.4c-0.1 0.1-0.1 0-0.2-0.1-0.2-0.4-0.4-0.8-0.7-1.2 0.2 0.1 0.4 0.1 0.5 0 0.1 0.5 0.3 0.9 0.4 1.3z"></path><path fill="#a89c6a" d="m16.5 11.2c-0.5 0.2-1 0.4-1.5 0.5-0.2 0.2-0.5 0.4-0.8 0.5-0.1 0.2-0.3 0.3-0.5 0.3 0.2-0.3 0.4-0.5 0.8-0.6 0.6-0.4 1.2-0.6 2-0.7z"></path><path fill="#939294" d="m33 11.9c0.1 0.1 0.1 0.2 0.3 0.2 0.2-0.1 0.4-0.1 0.6-0.2v0.4h-0.8c-0.2 0-0.3 0-0.5 0.1 0-0.1 0-0.3 0-0.4 0.1-0.1 0.1-0.2 0.1-0.4-0.3 0.1-0.5 0-0.7-0.1v-0.3h1.5v0.3h-0.6c0 0.2 0 0.3 0.1 0.4z"></path><path fill="#887e59" d="m5.9 11.6c-0.1 0.5-0.3 1-0.6 1.5l-0.2 0.2c0.1-0.4 0.2-0.7 0.4-1.1 0.1-0.2 0.2-0.4 0.4-0.6z"></path><path fill="#8d866d" d="m8.9 11.2c0 0.3-0.1 0.6-0.3 0.9-0.2 0.3-0.5 0.7-0.7 1-0.2 0.4-0.3 0.8-0.5 1.1 0-0.2 0.1-0.3 0.1-0.5 0.2-0.5 0.4-1 0.7-1.5 0.2-0.4 0.4-0.7 0.7-1z"></path><path fill="#1b1a1a" d="m30.8 9.8c0.1 0.1 0.3 0.2 0.4 0.4 0.2 0.5 0.5 0.9 0.8 1.3 0.2 0.6 0.4 1.1 0.5 1.7-0.1 0.1-0.2 0.1-0.3 0.1-0.1-0.3-0.2-0.7-0.4-1-0.1-0.4-0.3-0.8-0.5-1.1 0.1-0.3-0.1-0.5-0.3-0.6l-0.1-0.2c-0.1-0.2-0.1-0.4-0.1-0.6z"></path><path fill="#c0b66e" d="m21.2 12.1c0.4 0.1 0.8 0.3 1 0.7-0.3-0.2-0.7-0.5-1-0.7z"></path><path fill="#747371" d="m4.7 11.6c-0.2 0.5-0.2 0.9-0.2 1.4 0.1-0.2 0.1-0.3 0.2-0.1-0.2 0.5 0 0.6 0.4 0.4l-0.1 0.7c-0.3 0.4-0.5 0.9-0.4 1.5-0.3 1.7-0.3 3.3 0 5-0.3-0.5-0.4-1.1-0.4-1.7-0.2-0.1-0.2-0.2-0.3-0.4l-0.1 0.2c-0.1-0.1-0.3-0.2-0.4-0.3 0-1.5 0.1-2.9 0.4-4.3 0.1-0.4 0.3-0.9 0.4-1.3 0.1-0.4 0.3-0.7 0.5-1.1z"></path><path fill="#575657" d="m33.9 12c0.7 0.8 1 1.9 0.9 3 0 0.3-0.1 0.3-0.2 0-0.1-0.8-0.4-1.7-0.7-2.5-0.3 0-0.5-0.1-0.8-0.2h0.8v-0.3z"></path><path fill="#434343" d="m4.3 11.3c-0.2 0.4-0.4 0.9-0.5 1.4-0.3-0.1-0.5-0.2-0.7-0.2 0.4 0.4 0.4 0.8 0 1.2-0.2-0.1-0.3-0.3-0.5-0.4-0.1-0.1-0.2-0.1-0.3 0 0.1 0.5 0.3 0.7 0.7 0.8v0.5c-0.8-0.3-0.9-0.1-0.4 0.6l-0.1 0.2c-0.4-0.2-0.6-0.4-0.9-0.6 0.2-0.4 0.3-0.8 0.3-1.2 0.3-0.9 0.7-1.6 1.1-2.4 0.1-0.1 0.2-0.1 0.3-0.1 0.2 0.2 0.4 0.4 0.7 0.5 0.1-0.1 0.2-0.2 0.3-0.3z"></path><path fill="#858485" d="m19 12.8c0-0.1 0-0.1 0.1-0.1 0.8 0 1.5 0.1 2.2 0.1 0.4 0.1 0.6 0.3 0.8 0.6-0.2 0-0.4-0.1-0.6-0.3 0-0.1-0.2-0.1-0.3-0.2-0.7 0-1.5 0-2.2-0.1z"></path><path fill="#b5af81" d="m23.6 12.5c0.4 0.4 0.8 0.8 1 1.3-0.4-0.4-0.7-0.8-1-1.3z"></path><path fill="#cececf" d="m18.8 12.9c-0.7 0.2-1.4 0.2-2.1 0.1-0.1 0-0.2 0-0.2-0.1v-0.1c0.2-0.1 0.3-0.3 0.3-0.5 0.5 0.1 1 0.2 1.5 0.1 0.2-0.2 0.2-0.4 0.2-0.6h-1.7v0.4c-0.1-0.2-0.1-0.3-0.1-0.6 0.6 0.1 1.2 0 1.8 0l0.2-0.2c0.1 0.4 0 0.7-0.2 1 0.2 0.1 0.3 0.3 0.3 0.5z"></path><path fill="#6f6f6f" d="m31.8 12.3c0.2 0.3 0.3 0.7 0.4 1 0.2 0.4 0.3 0.8 0.4 1.2-0.1-0.1-0.2-0.3-0.3-0.4-0.2-0.6-0.3-1.2-0.5-1.8z"></path><path fill="#8f8f8f" d="m1.2 12.1c0 0.5-0.2 0.9-0.5 1.2 0.1-0.2 0.1-0.4 0.3-0.6l0.2-0.6z"></path><path fill="#222122" d="m14 13.6c-0.5 0.1-0.7 0.5-0.8 1-0.1 0-0.1 0.1-0.1 0.2-0.1 0.3-0.1 0.6-0.2 0.9 0 0-0.1 0.1-0.1 0.1-0.3-1-0.1-1.8 0.6-2.5 0.1-0.1 0.2-0.1 0.3-0.1 0.7-0.2 1.5-0.3 2.3-0.1l0.3 0.2-2.2 0.1c0 0-0.1 0.1-0.1 0.2z"></path><path fill="#f0e76d" d="m29.9 13.8c0.2 0.7 0.4 1.5 0.5 2.3 0 0.8 0 1.6 0 2.4-0.1 0.1-0.3 0.1-0.4 0.1v0.9c-0.2 0.2-0.3 0.3-0.3 0.6 0-0.2-0.1-0.3-0.2-0.1l-0.1-0.8c-0.2 0.1-0.3 0.3-0.4 0.5 0-0.5 0-1.1 0.2-1.7-0.1-0.4-0.2-0.8-0.2-1.2-0.1-0.1-0.2-0.2-0.3-0.3 0-0.8-0.2-1.5-0.4-2.2 0-0.3-0.1-0.7-0.2-1 0-0.1 0.1-0.3 0.2-0.4l-0.3-0.3c0.3-0.4 0.3-0.5-0.2-0.4-0.4-0.9-0.2-1 0.6-0.3 0.1 0.3 0.2 0.6 0.3 0.9 0.2 0 0.4-0.1 0.4-0.3l0.2 0.6 0.1-0.1c0.1 0.3 0.3 0.6 0.5 0.8z"></path><path fill="#e1d461" d="m22.4 11.6c0.3 0.2 0.5 0.3 0.7 0.4 0.1 0.2 0.3 0.4 0.5 0.5 0.3 0.5 0.6 0.9 1 1.3l0.2 0.5c0.2 0.6 0.4 1.1 0.7 1.6 0 0.7 0 1.4 0.1 2.2-0.2-0.1-0.4 0-0.6 0.1 0 0.3-0.1 0.6-0.2 0.9-0.1-0.7-0.1-1.4-0.2-2.1 0-0.3-0.1-0.6-0.2-0.9h-0.2c0.1-0.1 0-0.3-0.1-0.4 0-0.2 0-0.3 0-0.5-0.2-0.4-0.5-0.8-0.8-1.2-0.3-0.4-0.7-0.8-1.1-1.2-0.2-0.4-0.6-0.6-1-0.7 0-0.1-0.1-0.2-0.2-0.2-0.1-0.2-0.2-0.3-0.4-0.3-0.6-0.2-1.2-0.4-1.9-0.6-0.2-0.3-0.5-0.5-0.8-0.6 0.4-0.2 0.7-0.2 1 0.2 0.3-0.2 0.6-0.2 1-0.1-0.2 0.1-0.3 0.2-0.5 0.2 0.3 0 0.5 0 0.8-0.1 0.5 0.2 1 0.4 1.5 0.5 0.2 0.3 0.4 0.4 0.7 0.5z"></path><path fill="#282828" d="m21.5 13.1c0.2 0.2 0.4 0.3 0.6 0.3 0.5 0.8 0.8 1.6 0.7 2.5h-0.5c0-0.4 0-0.8 0-1.2-0.1-0.2-0.1-0.3-0.2-0.4l-0.6-0.6c0-0.2-0.1-0.3-0.3-0.3-0.7-0.1-1.3-0.1-2-0.1v-0.3c0.8 0 1.6 0 2.3 0.1z"></path><path fill="#a38f48" d="m12.3 12.2c-0.1 0.2-0.1 0.5 0 0.7 0 0.2-0.1 0.4-0.2 0.5 0.1 0.2 0.2 0.2 0.3 0.1 0.1-0.2 0.2-0.3 0.4-0.3-0.3 0.4-0.6 0.8-0.9 1.1 0-0.2 0.1-0.4 0.2-0.6l-0.2 0c-0.2 0.2-0.4 0.4-0.6 0.6 0-0.1 0-0.3 0.1-0.4 0.2-0.3 0.5-0.5 0.8-0.8 0-0.2 0-0.4-0.2-0.6 0-0.2 0.1-0.3 0.3-0.3z"></path><path fill="#8d8d8d" d="m21.1 13.6c-0.6-0.1-1.2 0-1.8 0-0.5 0.5-1.2 0.7-1.9 0.6l-1 0c-0.1-0.2-0.2-0.3-0.1-0.5-0.8 0-1.6 0-2.4 0-0.2 0.2-0.4 0.4-0.5 0.6 0 0.2-0.1 0.2-0.2 0.3 0.1-0.5 0.3-0.9 0.8-1 0.8-0.1 1.6 0 2.4 0 0.3 0.3 0.7 0.5 1.2 0.4 0.6 0.1 1.1-0.1 1.6-0.5 0.6-0.1 1.3-0.1 1.9 0.1z"></path><path fill="#cac48d" d="m26.6 12.8c0.3 0.4 0.5 0.8 0.7 1.3 0.1 0.2 0.1 0.4 0.1 0.6-0.1 0-0.1-0.1-0.2-0.1-0.2-0.6-0.4-1.2-0.6-1.8z"></path><path fill="#636363" d="m2.9 9.6v0.5c-0.2 0.5 0 0.7 0.6 0.6 0.3 0 0.5 0 0.7-0.2 0.2 0 0.4 0 0.6-0.1-0.2 0.3-0.4 0.6-0.5 0.9-0.1 0.1-0.2 0.2-0.3 0.3-0.3-0.1-0.5-0.3-0.7-0.5-0.1 0-0.2 0-0.3 0.1-0.4 0.8-0.8 1.5-1.1 2.4 0 0.4-0.1 0.8-0.3 1.2 0 0.1 0 0.1-0.1 0.1-0.1 0.2-0.1 0.4-0.2 0.6l-0.1-0.4c0-0.8 0.2-1.6 0.4-2.3 0.3-1.2 0.7-2.2 1.3-3.2z"></path><path fill="#878787" d="m8.6 12.1c0.2 0.2 0.4 0.5 0.6 0.7-0.1 0.2-0.2 0.2-0.3 0-0.2 0.2-0.2 0.4 0.1 0.6l0.2-0.2c0.1 0.4 0.2 0.8 0.3 1.1 0.1 0.2 0.2 0.2 0.3 0 0.2 0.6 0.3 1.2 0.4 1.7 0.3-0.2 0.2-0.4 0-0.6 0.1-0.2 0.2-0.2 0.3 0v1.1c-0.2 0-0.4 0-0.5 0-0.2 0.1-0.3 0.2-0.3 0.3-0.1 0.8-0.1 1.6-0.1 2.4-0.2-0.4-0.4-0.7-0.5-1.1l-0.1 0.5c-0.1-0.2-0.1-0.5-0.1-0.8-0.1 0.1-0.2 0-0.4-0.1 0-0.2 0-0.4-0.1-0.6-0.1-0.1-0.2-0.1-0.4-0.1-0.2-0.5-0.4-1.1-0.7-1.6 0-0.3-0.1-0.5 0-0.7-0.1-0.2 0-0.3 0.1-0.5 0.2-0.3 0.3-0.7 0.5-1.1 0.2-0.3 0.5-0.7 0.7-1z"></path><path fill="#a3a3a3" d="m21.1 13.6l0.4 0.1 0.6 0.6c0 0.6 0 1.2 0 1.8-0.1 0.2-0.3 0.3-0.4 0.3v0.4h-0.2v-0.1c0-0.3-0.1-0.5-0.2-0.8 0.2 0 0.4 0 0.7 0 0-0.6 0-1.1-0.2-1.7-0.9 0.1-1.8 0.2-2.8 0.3l-0.3-0.2c-0.7 0.3-1.4 0.3-2.2 0-0.2 0.2-0.5 0.1-0.7-0.1l-1.5 0.3c-0.1-0.1-0.3-0.2-0.5-0.4-0.2 0.1-0.1 0.1 0.1 0.2-0.1 0.2-0.3 0.2-0.5 0 0.1-0.2 0.3-0.4 0.5-0.6 0.8 0 1.6 0 2.4 0-0.1 0.2 0 0.3 0.1 0.5l1 0c0.7 0.1 1.4-0.1 1.9-0.6 0.6 0 1.2-0.1 1.8 0z"></path><path fill="#5f5f60" d="m19 12.8c0.7 0.1 1.5 0.1 2.2 0.1 0.1 0.1 0.3 0.1 0.3 0.2-0.7-0.1-1.5-0.1-2.3-0.1v0.3c0.7 0 1.3 0 2 0.1 0.2 0 0.3 0.1 0.3 0.3l-0.4-0.1c-0.6-0.2-1.3-0.2-1.9-0.1-0.5 0.4-1 0.6-1.6 0.5-0.5 0.1-0.9-0.1-1.2-0.4-0.8 0-1.6-0.1-2.4 0 0-0.1 0.1-0.2 0.1-0.2l2.2-0.1-0.3-0.3c-0.8-0.1-1.6 0-2.3 0.2 0-0.1 0.1-0.2 0.3-0.3 0.8 0 1.7 0 2.5 0 0 0.1 0.1 0.1 0.2 0.1 0.2 0.3 0.5 0.4 0.9 0.3 0.4 0 0.7 0 1-0.1 0.1-0.1 0.2-0.2 0.2-0.3 0.1 0 0.2-0.1 0.2-0.1z"></path><path fill="#a3a3a4" d="m18.8 12.9c0 0.1-0.1 0.2-0.2 0.3-0.3 0.1-0.6 0.1-1 0.1-0.4 0.1-0.7 0-0.9-0.3 0.7 0.1 1.4 0.1 2.1-0.1z"></path><path fill="#c9c38c" d="m26 13.4c0.3 0.4 0.5 0.7 0.6 1.2-0.2-0.2-0.4-0.4-0.5-0.7-0.1-0.2-0.1-0.3-0.1-0.5z"></path><path fill="#4a494a" d="m34.9 13.1c0.3 0.4 0.4 0.8 0.4 1.2-0.2-0.3-0.3-0.7-0.4-1.2z"></path><path fill="#b1afaa" d="m24.6 9.3c0.6 0.5 1.2 1 1.7 1.7 0.1 0.3 0.4 0.6 0.6 0.9 0.6 0.7 1 1.6 1.3 2.4 0.1 0.9 0.3 1.8 0.5 2.7 0 0.8 0.1 1.5 0 2.2v0.3l-0.6-0.1c0-1.4-0.1-2.7-0.3-4 0-0.2-0.1-0.4-0.3-0.5 0-0.1 0-0.2-0.1-0.2 0-0.2 0-0.4-0.1-0.6-0.2-0.5-0.4-0.9-0.7-1.3-0.6-1.1-1.4-2-2.4-2.7-0.1-0.2-0.1-0.4 0-0.6l0.4-0.2z"></path><path fill="#b3ac83" d="m23.3 14c0.3 0.4 0.6 0.8 0.8 1.2 0 0.2 0 0.3 0 0.5-0.3-0.5-0.6-1.1-0.8-1.7z"></path><path fill="#949290" d="m14.2 12.2c0.3 0.1 0.4 0.2 0.6 0.4 0.5 0.1 0.9 0.1 1.4-0.1 0.1 0.1 0.2 0.2 0.3 0.3v0.1c-0.8 0-1.7 0-2.5 0-0.2 0.1-0.3 0.2-0.3 0.3-0.1 0-0.2 0-0.3 0.1-0.6 0.4-0.9 0.9-0.9 1.7-0.1 0.4-0.1 0.7-0.1 1.1-0.2 0-0.4 0.1-0.5 0.2 0-0.2 0-0.3-0.1-0.4-0.1 0.2-0.2 0.3-0.4 0.5 0-0.3 0-0.5 0-0.8 0.1-0.4 0.3-0.9 0.5-1.3 0.3-0.3 0.6-0.7 0.9-1.1 0.2-0.3 0.5-0.6 0.9-0.7 0.2 0 0.4-0.1 0.5-0.3z"></path><path fill="#afaeaf" d="m21.3 15.9c-0.2-0.1-0.4-0.2-0.7-0.4-0.7-0.2-1.2 0-1.6 0.6-0.1 0.2-0.1 0.4 0 0.6 0.5-0.9 1.2-1.1 2-0.4 0.1 0.1 0.1 0.3 0.1 0.4h0.4v0.1c-0.2 0.1-0.4 0.2-0.6 0.4 0.1-0.7-0.1-1-0.8-1.1-0.2 0-0.4 0.1-0.5 0.3-0.1 0.2-0.1 0.5-0.1 0.8-0.1-0.2-0.1-0.5-0.2-0.7 0 0.2-0.2 0.4-0.5 0.3 0-0.1 0-0.1-0.1-0.1v-0.3c-0.6-0.1-1.3-0.2-2-0.1-0.1 0.2-0.1 0.4-0.2 0.5h-0.6c0 0.2 0 0.3-0.1 0.4 0.1-0.8-0.2-1.1-1-1-0.2 0.2-0.4 0.4-0.5 0.6h-0.6v-0.5c-0.2 0-0.3-0.1-0.4-0.2-0.1-0.5-0.1-1-0.1-1.5 0.1-0.1 0.2-0.1 0.2-0.3 0.2 0.2 0.4 0.2 0.5 0-0.2-0.1-0.3-0.1-0.1-0.2 0.2 0.2 0.4 0.3 0.5 0.4l1.4-0.3c0.3 0.2 0.6 0.3 0.8 0.1 0.8 0.3 1.5 0.3 2.2 0l0.3 0.2c1-0.1 1.9-0.2 2.8-0.3 0.2 0.6 0.2 1.1 0.2 1.7-0.3 0-0.5 0-0.7 0z"></path><path fill="#918a72" d="m11.2 14.3c-0.2 0.7-0.4 1.3-0.7 1.8v-0.7c0-0.3 0.1-0.5 0.2-0.7l0.1 0.1c0.2-0.1 0.3-0.3 0.4-0.5z"></path><path fill="#242424" d="m32 11.5c0.2 0.1 0.4 0.2 0.7 0.1 0 0.2 0 0.3-0.1 0.4-0.1 0-0.1 0.1-0.1 0.3 0.2 0.5 0.3 1 0.2 1.6h0.3c-0.1 0.7 0 1.4 0.1 2 0.1 0.1 0.2 0.3 0.1 0.5l-0.2-0.3-0.2-0.3c0-0.5-0.1-0.9-0.2-1.3-0.1-0.4-0.2-0.8-0.4-1.2 0.1 0 0.2 0 0.3-0.1-0.1-0.6-0.3-1.1-0.5-1.7z"></path><path fill="#7e7e7e" d="m35.3 14.3c0.3 0.6 0.4 1.3 0.3 2 0.1 0.5 0.1 1 0.1 1.5 0 0.5-0.1 1-0.2 1.4 0-1.7 0-3.3-0.2-4.9z"></path><path fill="#888" d="m0.7 13.7c-0.3 2.1-0.4 4.2-0.3 6.3v0.4c-0.3-1.7-0.3-3.5-0.1-5.3 0.1-0.5 0.3-1 0.4-1.4z"></path><path fill="#857c56" d="m5 14c-0.1 0.5-0.3 1-0.4 1.5-0.1-0.6 0.1-1.1 0.4-1.5z"></path><path fill="#bea43e" d="m5.1 14.3c0.2 0.3 0.4 0.6 0.5 0.8l0.4 0.1c0.1 0.3 0.2 0.6 0.3 0.9 0.1-0.5 0.2-0.5 0.4 0v0.4c-0.2 1.4-0.1 2.8 0.2 4.1 0.2 0.3 0.3 0.7 0.4 1.1-0.3-0.2-0.4-0.4-0.5-0.7-0.1 0.1-0.3 0.2-0.4 0.2-0.1-0.3-0.1-0.5-0.1-0.8 0.1 0 0.2-0.1 0.4 0-0.1-0.1-0.1-0.2-0.2-0.3l-0.1-2c-0.1-0.2-0.2-0.1-0.2 0.1l-0.3-0.7c-0.1 0.1-0.2 0.1-0.3 0-0.1-0.2-0.2-0.4-0.2-0.7l-0.1 0.2-0.1-0.4c-0.2 0-0.4 0.1-0.6 0.1 0-0.8 0.2-1.6 0.5-2.4z"></path><path fill="#9c8942" d="m7.5 13.7c0 0.2-0.1 0.3-0.1 0.5-0.1 0.2-0.2 0.3-0.1 0.5-0.1 0-0.2 0-0.2 0.1-0.1 0.6-0.3 1.1-0.4 1.7v-0.4c0-0.9 0.3-1.7 0.8-2.4z"></path><path fill="#424242" d="m32.6 12c0 0.1 0 0.3 0 0.4 0.2-0.1 0.3-0.1 0.5-0.1 0.3 0.1 0.5 0.2 0.8 0.2 0.3 0.8 0.6 1.7 0.8 2.5 0 0.3 0.1 0.3 0.1 0 0.2 0.3 0.3 0.6 0.2 1-0.1 0-0.3-0.1-0.4-0.2-0.1-0.6-0.2-1.2-0.4-1.8-0.3-0.2-0.7-0.3-1.1-0.2v0.3c0.6 0 0.7 0.1 0.3 0.4 0.1 0.8 0.2 1.6 0.4 2.4 0.4 0.3 0.8 0.4 1.4 0.5v-1.1c0.1 1 0.1 2 0 3.1-0.1 0.7-0.3 1.3-0.3 2-0.1 0.4-0.2 0.8-0.4 1 0.1-0.8 0-0.8-0.3 0-0.2-0.3-0.5-0.6-0.8-0.9-0.1 0.4-0.3 0.6-0.7 0.6v-0.2c0.1-0.4 0.2-0.8 0.3-1.1 0 0.2 0 0.5 0.1 0.7 0 0 0.1 0 0.1-0.1 0.1-0.4 0.2-0.8 0.2-1.2 0.1-0.1 0.2-0.2 0.3-0.3 0.1 0.1 0.1 0.2 0 0.4 0.2 0.3 0.3 0.5 0.6 0.7l-0.2 0.1c-0.2-0.1-0.4-0.2-0.5-0.3-0.1 0.4 0.1 0.6 0.5 0.7 0.5-0.4 0.5-0.8 0-1.2 0.2-0.1 0.3 0 0.4 0.1 0-0.4-0.2-0.6-0.6-0.8v-0.1h0.7c0.1-0.4 0-0.7-0.3-0.9-0.2-0.1-0.3-0.1-0.4 0 0.2 0.2 0.2 0.3 0 0.5-0.1-0.1-0.2-0.2-0.3-0.4 0-0.3 0-0.6 0-0.9 0.3 0.4 0.7 0.6 1.1 0.7-0.1-0.3-0.3-0.5-0.6-0.7l0.1-0.1c0.3 0.1 0.6 0.3 0.8 0.5 0.1-0.2 0.2-0.4 0.2-0.6-0.4 0-0.8-0.1-1.1-0.2-0.3 0.2-0.5 0.1-0.6-0.2 0-0.7-0.1-1.4-0.3-2-0.1 0.3-0.1 0.5-0.1 0.7-0.1-0.6-0.2-1.3-0.1-2h-0.3c0.1-0.6 0-1.1-0.2-1.6 0-0.2 0-0.3 0.1-0.3z"></path><path fill="#7c7c7c" d="m32.8 12.7c0.8-0.2 1.1 0.1 1.1 0.9-0.3 0-0.6 0-0.9-0.1-0.1-0.3-0.2-0.5-0.2-0.8z"></path><path fill="#bdb787" d="m28.2 14.3h0.1c0.2 0.7 0.4 1.4 0.4 2.2 0.2 0.9 0.2 1.8 0 2.7 0.1-0.7 0-1.4 0-2.2-0.2-0.9-0.4-1.8-0.5-2.7z"></path><path fill="#4d4d4d" d="m1.6 12.8c-0.2 0.7-0.4 1.5-0.4 2.3l0.1 0.4c0.1-0.2 0.1-0.4 0.2-0.6-0.1 0.5-0.1 1 0 1.5-0.2 0.6-0.3 1.3-0.3 2-0.1 0.1-0.2 0.1-0.4 0.1 0-1.7 0.1-3.3 0.4-4.9 0.1-0.3 0.3-0.6 0.4-0.8z"></path><path fill="#dcdbdc" d="m14.6 15.5c0.6-0.2 1.2 0 1.7 0.5 0.1 0.2 0.2 0.5 0.2 0.7-0.1 0-0.2 0-0.4 0-0.4-1-1-1.1-1.8-0.4-0.1 0.1-0.1 0.3-0.1 0.4h-0.3c0-0.2 0-0.4 0.1-0.6 0.2-0.2 0.4-0.4 0.6-0.6z"></path><path fill="#b4ae83" d="m24.8 14.3c0.2 0.1 0.3 0.2 0.4 0.4 0.1 0.4 0.2 0.8 0.3 1.2-0.3-0.5-0.5-1-0.7-1.6z"></path><path fill="#4c4c4c" d="m13.4 13.3c-0.7 0.7-0.9 1.5-0.6 2.5 0 0 0.1-0.1 0.1-0.1 0.1-0.3 0.1-0.6 0.2-0.9v1.3c-0.2 0.1-0.3 0-0.4-0.1-0.1-0.3-0.2-0.6-0.2-1 0-0.8 0.3-1.3 0.9-1.7z"></path><path fill="#9c9b9c" d="m34.6 15.8c0.1 0.1 0.3 0.2 0.4 0.2v0.1c0.1 0.2 0 0.3-0.2 0.4-0.2-0.2-0.4-0.2-0.7-0.2 0-0.2-0.1-0.3-0.3-0.3 0-0.2 0-0.4-0.1-0.5 0.4-0.1 0.7 0 0.9 0.3z"></path><path fill="#dbdbdc" d="m21.3 15.9c0.1 0.3 0.2 0.5 0.2 0.8h-0.4c0-0.1 0-0.3-0.1-0.4-0.8-0.7-1.5-0.5-2 0.4-0.1-0.2-0.1-0.4 0-0.6 0.4-0.6 0.9-0.8 1.6-0.6 0.3 0.2 0.5 0.3 0.7 0.4z"></path><path fill="#6d6d6d" d="m13.2 14.6c0 0.5 0 1 0.1 1.5 0.1 0.1 0.2 0.2 0.4 0.2v0.5c-0.2-0.1-0.3-0.1-0.5-0.1v0.3h-0.1c-0.2-0.3-0.4-0.6-0.7-0.9 0-0.4 0-0.7 0.1-1.1 0 0.4 0.1 0.7 0.2 1 0.1 0.1 0.2 0.2 0.4 0.1v-1.3c0-0.1 0-0.2 0.1-0.2z"></path><path fill="#7a797a" d="m34.6 15.8c-0.2-0.3-0.5-0.4-0.9-0.3 0.1 0.1 0.1 0.3 0.1 0.5 0.2 0 0.3 0.1 0.3 0.3-0.2 0-0.2 0.1-0.1 0.2 0.2 0.1 0.4 0.2 0.6 0.2 0.1 0 0.2-0.1 0.2-0.2 0.2-0.1 0.3-0.2 0.2-0.4 0.1 0 0.2 0.1 0.2 0.2v1.1c-0.6-0.1-1-0.2-1.4-0.5-0.2-0.8-0.3-1.6-0.4-2.4 0.4-0.3 0.3-0.4-0.3-0.4v-0.3c0.4-0.1 0.8 0 1.1 0.2 0.2 0.6 0.3 1.2 0.4 1.8z"></path><path fill="#3f3f3f" d="m3.1 15.1c-0.2 1.4-0.3 2.8-0.2 4.2-0.1 0.2-0.1 0.3-0.2 0.4-0.1-0.7-0.2-1.4-0.2-2.1-0.6 0.1-1-0.1-1-0.8 0.3 0 0.6 0 0.9 0.1-0.2 0.2-0.2 0.4-0.1 0.6l0.1-0.1c0.2-0.5 0.2-0.9 0-1.4 0 0.2-0.1 0.4-0.1 0.6-0.4-0.1-0.6-0.4-0.6-0.7 0.2 0.1 0.3 0.1 0.4 0-0.1-0.1-0.2-0.2-0.4-0.3l0.2-0.1c0.2 0.2 0.5 0.3 0.8 0.4 0.1-0.4 0.1-0.8 0.1-1.2h0.3v0.4z"></path><path fill="#a38c35" d="m11.9 14.3c-0.2 0.4-0.4 0.9-0.5 1.3-0.1 0.1-0.2 0.3-0.2 0.5-0.1 0.2-0.2 0.3-0.3 0.5l-0.1 1.6c-0.1 0.1-0.2 0.1-0.4 0.1v0.3c0 0.5 0.1 1 0.2 1.5-0.1-0.1-0.2-0.3-0.3-0.5-0.1-0.5-0.1-0.9-0.1-1.4 0.1 0 0.2 0 0.3-0.1-0.1-0.2-0.1-0.4 0-0.6-0.2-0.2-0.4-0.1-0.5 0.2 0 0.4-0.1 0.8-0.2 1.2 0.3 0.6 0.4 1.2 0.5 1.9-0.5-1.3-0.7-2.6-0.6-4 0-0.1 0.1-0.2 0.3-0.3 0.1 0 0.3 0 0.5 0v-0.4c0.3-0.5 0.5-1.1 0.7-1.8h0.1c0.2-0.2 0.4-0.4 0.6-0.6l0.2 0c-0.1 0.2-0.2 0.4-0.2 0.6z"></path><path fill="#616161" d="m22.1 13.4c0.2 0.1 0.4 0.2 0.5 0.4 0.2 0.8 0.3 1.6 0.2 2.5-0.2 0.1-0.4 0.3-0.5 0.5v0.2h-0.1c-0.3 0.7-0.5 0.6-0.5-0.2v-0.4c0.1 0 0.3-0.1 0.4-0.3 0-0.6 0-1.2 0-1.8 0.1 0.1 0.1 0.2 0.2 0.4 0 0.4 0 0.8 0 1.2h0.5c0.1-0.9-0.2-1.7-0.7-2.5z"></path><path fill="#474746" d="m32.8 15.8l0.2 0.3v1.3h-0.1v-0.1c0-0.5 0-1-0.1-1.5z"></path><path fill="#2d2d2e" d="m34.1 16.3c0.3 0 0.5 0 0.7 0.2 0 0.1-0.1 0.2-0.2 0.2-0.2 0-0.4-0.1-0.6-0.2-0.1-0.1-0.1-0.2 0.1-0.2z"></path><path fill="#dad9da" d="m35.6 16.3c0.2 0.4 0.2 0.9 0.2 1.5l0 1.5c-0.1 0.4-0.2 0.7-0.3 1.1v-1.2c0.1-0.4 0.2-0.9 0.2-1.4 0-0.5 0-1-0.1-1.5z"></path><path fill="#797977" d="m7 16.6c0 0.4 0 0.8 0.2 1.2 0.2-0.1 0.4 0 0.5 0.2-0.1 0.3-0.1 0.6 0.1 0.8l0.2-0.4c0.3 0.6 0.5 1.2 0.6 1.9h0.3v0.3h0.4l0.2 1.4c0.5-0.2 0.7 0 0.6 0.5 0.1 0.3 0.2 0.6 0.2 1 0.5 0.3 0.7 0.8 0.8 1.3 0.3 0 0.5 0.1 0.5 0.5 0.1 0.1 0.2 0.1 0.3 0 0.1 0.1 0.1 0.2 0.2 0.2-0.3 0-0.5 0-0.8 0h-0.1c-0.2-0.5-0.5-0.8-0.9-0.9-0.2-0.4-0.5-0.7-0.8-1.1-0.1-0.1-0.2-0.1-0.3 0.1-0.3 0-0.6 0.1-0.9 0.2-0.4-0.4-0.6-0.9-0.7-1.4 0-0.3-0.1-0.5-0.3-0.7-0.1-0.4-0.2-0.8-0.4-1.1-0.1-1.3-0.1-2.6 0-3.9 0-0.1 0.1-0.1 0.1-0.1z"></path><path fill="#c4c4c5" d="m15.8 17.2c-0.4 0.6-0.9 0.6-1.4 0-0.1-0.2-0.1-0.3-0.1-0.4 0.1-0.2 0.3-0.4 0.5-0.6 0.8-0.1 1.1 0.2 1 1z"></path><path fill="#c4c3c5" d="m20.9 17.2c-0.3 0.3-0.7 0.3-1.2 0.2-0.1 0-0.1-0.1-0.2-0.2 0-0.3 0-0.6 0.1-0.8 0.1-0.2 0.3-0.3 0.5-0.3 0.7 0.1 0.9 0.4 0.8 1.1z"></path><path fill="#887f5c" d="m7.1 14.8c0 0.6-0.1 1.2-0.1 1.8 0 0-0.1 0-0.1 0.1-0.1 1.3-0.1 2.6 0 3.9-0.3-1.3-0.4-2.7-0.2-4.1 0.1-0.6 0.3-1.1 0.4-1.7z"></path><path fill="#595959" d="m33.9 19.1c-0.1 0.1-0.1 0.3 0 0.4v0.1c-0.1 0-0.2 0.1-0.2 0.3-0.1 0.1-0.2 0.2-0.3 0.3 0 0.4-0.1 0.8-0.2 1.2 0 0.1-0.1 0.1-0.1 0.1-0.1-0.2-0.1-0.5-0.1-0.7 0.1-0.3 0-0.5-0.2-0.6v-0.1l0.2-0.2c0 0 0 0.1 0.1 0.2l0.1-0.4c0-1.1 0.1-2.2 0-3.3 0.1-0.2 0-0.4-0.1-0.5 0-0.2 0-0.4 0.1-0.7 0.2 0.6 0.3 1.3 0.3 2 0.1 0.3 0.3 0.4 0.6 0.2 0.3 0.1 0.7 0.2 1.1 0.2 0 0.2-0.1 0.4-0.2 0.6-0.2-0.2-0.5-0.4-0.8-0.5l-0.1 0.1c0.3 0.2 0.5 0.4 0.6 0.7-0.4-0.1-0.8-0.3-1.1-0.7 0 0.3 0 0.6 0 0.9 0.1 0.2 0.2 0.3 0.3 0.4z"></path><path fill="#868687" d="m13.8 16.8h0.5c0 0.1 0 0.2 0.1 0.4 0.5 0.6 1 0.6 1.4 0 0.1-0.1 0.1-0.2 0.1-0.4h0.6v0.9c0.2 0 0.5 0 0.7-0.2-0.1 0.3-0.3 0.5-0.6 0.4-0.2 0-0.3 0-0.5-0.1-0.7 0.4-1.3 0.3-2-0.1-0.3 0.1-0.6 0.2-0.9 0.1v-0.4c0.2 0.1 0.4 0.1 0.6 0.1v-0.7z"></path><path fill="#b9b174" d="m24.4 16.1c0.1 0.3 0.2 0.6 0.2 0.9 0 0.9 0 1.6-0.1 2.4 0-1.1 0-2.2-0.1-3.3z"></path><path fill="#4f4e4f" d="m13.7 16.8h0.1v0.7c-0.2 0-0.4 0-0.6-0.1v-0.7c0.2 0 0.3 0 0.5 0.1z"></path><path fill="#bab37a" d="m25.5 15.9c0.1 0.4 0.2 0.8 0.2 1.3 0 0.3 0 0.6-0.1 0.9-0.1-0.8-0.1-1.5-0.1-2.2z"></path><path fill="#737373" d="m18.7 16.7c0.1 0 0.1 0 0.1 0.1 0.1 0.1 0.2 0.2 0.4 0.1 0 0.3 0.1 0.5 0.2 0.7 0.4 0.2 0.7 0.4 1.1 0.5-0.7-0.1-1.4-0.1-2.1-0.2 0-0.3-0.1-0.4-0.4-0.5-0.1 0.2-0.1 0.4-0.1 0.7h-0.5c0-0.3 0-0.5-0.2-0.6-0.2 0.2-0.5 0.2-0.7 0.2v-0.9c0.1-0.1 0.1-0.3 0.2-0.5 0.7-0.1 1.4 0 2 0.1v0.3z"></path><path fill="#424142" d="m18.7 16.7v0.8c-0.1 0-0.3 0-0.4-0.1-0.2-0.2-0.4-0.4-0.6-0.6-0.2 0.1-0.3 0.2-0.3 0.5h-0.7v-0.7c0.7 0 1.4 0 2 0.1z"></path><path fill="#8a898a" d="m19.5 17.2c0.1 0.1 0.1 0.2 0.2 0.2 0.5 0.1 0.9 0.1 1.2-0.2 0.2-0.2 0.4-0.3 0.6-0.4h0.2c0 0.8 0.2 0.9 0.5 0.2 0 0.4-0.1 0.7-0.3 0.9-0.4-0.1-0.9 0-1.4 0.2-0.4-0.1-0.7-0.3-1.1-0.5-0.1-0.2-0.2-0.4-0.2-0.7-0.2 0.1-0.3 0-0.4-0.1 0.3 0.1 0.5-0.1 0.6-0.3 0 0.2 0 0.5 0.1 0.7z"></path><path fill="#dededf" d="m22.7 17.6h-0.4v-0.8c0.2-0.1 0.3-0.1 0.5-0.1 0 0.3 0 0.6-0.1 0.9z"></path><path fill="#aca891" d="m24.2 16.1h0.2c0.1 1.1 0.1 2.2 0.1 3.3 0 0.1-0.1 0.1-0.1 0.1 0-1.1-0.1-2.2-0.2-3.4z"></path><path fill="#bbb695" d="m26.6 14.9c0.2 0.3 0.4 0.7 0.4 1.1 0.1 1.1 0.2 2.1 0.2 3.2-0.1 0.4-0.2 0.9-0.3 1.3 0 0.2-0.1 0.3-0.3 0.4 0.3-0.8 0.4-1.5 0.5-2.3-0.1-1.2-0.3-2.5-0.5-3.7z"></path><path fill="#bfbb94" d="m27.5 14.9c0.2 0.1 0.3 0.3 0.3 0.5 0.2 1.3 0.3 2.6 0.3 4-0.1-1.1-0.2-2.1-0.4-3.1 0-0.2 0-0.4-0.1-0.6 0-0.3 0-0.5-0.1-0.8z"></path><path fill="#e1d76c" d="m32.9 17.4v1.4c-0.1 0.4-0.2 0.8-0.2 1.2 0-0.8 0-1.5-0.1-2.3-0.1 0.5-0.2 0.9-0.3 1.4v-1.6c0.2-0.1 0.4-0.2 0.6-0.1z"></path><path fill="#746d37" d="m32.9 17.4h0.1v2.5l-0.2 0.2c0.1-0.4 0.1-0.8 0.1-1.3v-1.4z"></path><path fill="#101010" d="m33 16.1l0.2 0.3c0.1 1.1 0 2.2 0 3.3l-0.1 0.4c-0.1-0.1-0.1-0.2-0.1-0.2v-3.8z"></path><path fill="#171717" d="m2.6 8.9c0.2 0.2 0.3 0.4 0.3 0.7-0.6 1-1 2-1.3 3.2-0.1 0.2-0.3 0.5-0.4 0.8-0.3 1.6-0.4 3.2-0.4 4.9 0.1 0.6 0.2 1.2 0.4 1.7-0.1 0.6-0.1 1.2 0 1.8 0.1 0.1 0.1 0.1 0.2 0.1 0.2 0.5 0.3 1.1 0.5 1.6 0.3 0.3 0.5 0.7 0.7 1.2-0.2 0.1-0.2 0.2-0.1 0.4 0.8 1.6 1.9 3.2 3.2 4.6 0.2 0.1 0.3 0.2 0.5 0.3 0.5 0.6 1 1 1.6 1.4 0 0.1 0.1 0.3 0.2 0.4 0.4 0.1 0.7 0.3 1.1 0.4l0.2 0.3c1.1 0.5 2.1 1 3.2 1.4 0.4 0.2 0.8 0.4 1.2 0.6 0.6 0 1.3 0.1 2 0.2-0.5 0.1-1 0.2-1.5 0.1-0.1-0.1-0.3-0.1-0.5-0.1 0 0-0.1-0.1-0.1-0.1-0.5-0.2-1-0.3-1.5-0.4-0.3-0.1-0.5-0.2-0.8-0.3-0.1 0-0.3-0.1-0.4-0.1-1-0.5-2-1-3-1.7-0.5-0.3-0.9-0.7-1.4-1-0.7-0.6-1.3-1.2-1.9-1.9-0.3-0.3-0.5-0.7-0.7-1h-0.1c-0.5-0.6-0.9-1.3-1.3-2-0.1-0.2-0.2-0.5-0.3-0.7-0.3-0.6-0.6-1.1-0.9-1.7 0-0.2 0-0.4-0.1-0.7 0-0.2 0-0.4-0.2-0.5 0-0.2 0-0.4-0.2-0.6h-0.1c0.1-0.3 0-0.7-0.1-1 0.1-0.5 0-0.9-0.2-1.2-0.1-2.1 0-4.2 0.3-6.3v-0.4c0.3-0.3 0.5-0.7 0.5-1.2 0.2-0.6 0.5-1.1 0.7-1.7 0.2-0.5 0.5-1 0.7-1.5z"></path><path fill="#8c8466" d="m11.2 16.1c-0.1 0.7-0.1 1.3-0.2 1.9 0 0 0.1 0.1 0.1 0.2-0.2 0.2-0.4 0.4-0.7 0.4v-0.3c0.2 0 0.3 0 0.4-0.1l0.1-1.6c0.1-0.2 0.2-0.3 0.3-0.5z"></path><path fill="#d0cfd1" d="m16.7 18.6c0 0.1 0 0.2 0.1 0.3 0.6 0.1 1.1 0.1 1.7 0.1 0 0 0 0.1-0.1 0.1-0.6 0.1-1.1 0.1-1.7 0-0.1-0.2-0.1-0.4-0.2-0.5-1.1-0.3-2.1-0.3-3.2 0 0 0.3 0.1 0.6 0.3 0.7 2.8 0.1 5.7 0.1 8.5 0v0.3c-0.8 0.3-1.5 0.3-2.2 0-1.5-0.1-2.8-0.1-4.2 0l-0.5 0.4c-0.6 0-1.3-0.1-2-0.3v-1.3c0.4 0 0.8-0.1 1.1-0.2l2 0.2c0.2 0 0.3 0.1 0.4 0.2z"></path><path fill="#b7b6b8" d="m12.4 16.1c0.3 0.3 0.5 0.6 0.7 0.9h0.1v0.8c0.3 0.1 0.6 0 0.9-0.1 0.7 0.4 1.3 0.5 2 0.1 0.2 0.1 0.3 0.1 0.5 0.1 0.3 0.1 0.5-0.1 0.6-0.4 0.2 0.1 0.2 0.3 0.2 0.6h0.5c0-0.3 0-0.5 0.1-0.7 0.3 0.1 0.4 0.2 0.4 0.5 0.7 0.1 1.4 0.1 2.1 0.2 0.5-0.2 1-0.3 1.4-0.2 0.2-0.2 0.3-0.5 0.3-0.9h0.1v0.6h0.4v0.6c-0.2-0.1-0.3 0-0.4 0.1-0.1 0.2-0.1 0.5-0.1 0.8v0.1h-0.1v-0.8c-0.3-0.1-0.7-0.2-1.1-0.2-0.7 0.1-1.5 0.2-2.3 0.2 0.1 0.2 0 0.4-0.1 0.6v-0.4h-1.9c-0.1-0.1-0.2-0.2-0.4-0.2l-2-0.2c-0.3 0.1-0.7 0.2-1.1 0.2v0.7h-0.1c0-0.3-0.2-0.6-0.5-0.7-0.1-0.2-0.1-0.3-0.1-0.5-0.1 0.1-0.3 0-0.4-0.1 0-0.1 0.1-0.2 0.3-0.2v-0.9h-0.5v-0.4c0.1-0.1 0.3-0.2 0.5-0.2z"></path><path fill="#d2d2d3" d="m13.1 17c0 0.4 0 0.7 0 1.1-0.2-0.1-0.3-0.2-0.4-0.2-0.1-0.4-0.2-0.8-0.1-1.2 0.2 0.1 0.4 0.2 0.5 0.3z"></path><path fill="#3d3d3d" d="m22.9 18.1h0.4c-0.2 0.5-0.4 1-0.5 1.5v0.4c-0.3 0.1-0.5 0-0.5-0.4l0.1-0.3c0.4-0.3 0.5-0.7 0.5-1.2z"></path><path fill="#888785" d="m11.4 15.6c0 0.3 0 0.5 0 0.8 0.2-0.2 0.3-0.3 0.4-0.5 0.1 0.1 0.1 0.2 0.1 0.4v0.4h0.5v0.9c-0.2 0-0.3 0.1-0.3 0.2-0.2 0.3-0.2 0.5-0.2 0.9l0 0.8c0.2 0.1 0.3 0.2 0.5 0.1v1.2c0 0.7 0.2 1.4 0.8 1.9l0.7 0.4c2.1 0.1 4.2 0.2 6.3 0.1-1.4 0.1-2.9 0.2-4.4 0.2 0.1 0.2 0.1 0.4 0.1 0.6 0.1 0.3 0.3 0.4 0.6 0.5 0 0.2-0.1 0.3-0.1 0.5 0.2 0 0.4 0.1 0.6 0.1h-0.9l-1-0.2c-0.5-0.3-1.1-0.6-1.7-0.9-1.3-1-2.2-2.3-2.8-3.9-0.1-0.5-0.2-1-0.2-1.5 0.3 0 0.5-0.2 0.7-0.4 0-0.1-0.1-0.2-0.1-0.2 0.1-0.6 0.1-1.2 0.2-1.9 0-0.2 0.1-0.4 0.2-0.5z"></path><path fill="#4b4a4b" d="m12.1 17.8c0.1 0.1 0.3 0.2 0.4 0.1 0 0.2 0 0.3 0.1 0.5 0.3 0.1 0.5 0.4 0.5 0.7 0.1 0.4 0 0.7-0.2 1-0.1 0.1-0.2 0.1-0.3 0 0-0.2-0.1-0.3-0.2-0.5-0.2 0.1-0.3 0-0.5-0.1l0-0.8c0-0.4 0-0.6 0.2-0.9z"></path><path fill="#605f60" d="m22.9 19.6h-0.1c0.1-0.5 0.3-1 0.5-1.5h-0.4c0.1-0.1 0.3-0.2 0.4-0.2v-0.3h-0.3c0-0.3 0-0.6 0.1-0.9 0.2 0.1 0.3 0.1 0.4 0.2 0.1 0.9 0.1 1.8 0 2.6-0.2 0.1-0.4 0.2-0.6 0.1z"></path><path fill="#aeada9" d="m30.5 16.1c0.1 0.1 0.2 0.2 0.2 0.3l0.1 2.8 0.4-0.7c0 0.7 0.3 0.9 0.8 0.6 0.1-0.6 0.2-1.2 0.2-1.7 0.2-0.1 0.4-0.2 0.7-0.1v0.1c-0.2-0.1-0.4 0-0.6 0.1-0.1 1.4-0.2 2.8-0.5 4.3-0.1 0.2-0.2 0.5-0.2 0.8-0.3 0.4-0.5 1-0.6 1.5-0.2 0.2-0.4 0.5-0.5 0.8-0.2 0.3-0.5 0.7-0.6 1.1-0.4 0.4-0.7 0.8-1 1.3-0.3 0.2-0.6 0.4-0.9 0.7 0 0.1-0.1 0.2-0.2 0.4-0.4 0.3-0.7 0.4-0.7 0.2-0.1-0.2-0.2-0.4-0.4-0.5 0.3-0.2 0.3-0.4 0-0.6 0.2-0.1 0.3-0.1 0.5 0 0.1 0 0.2-0.1 0.2-0.2 0.3-0.1 0.5-0.3 0.7-0.6 0.3-0.3 0.5-0.7 0.6-1.1 0.1-0.3 0.3-0.6 0.5-0.8 0.1 0 0.2-0.1 0.3-0.2 0.3-0.6 0.5-1.3 0.7-1.9 0.7-0.8 0.8-1.7 0.6-2.6-0.2-0.2-0.2-0.4-0.3-0.6 0.2-1.1 0.2-2.2 0-3.4z"></path><path fill="#cec781" d="m30.4 16.1h0.1c0.2 1.2 0.2 2.3 0 3.4 0.1 0.2 0.1 0.4 0.3 0.6-0.3-0.1-0.6-0.1-0.8-0.1v-1.4c0.1 0 0.3 0 0.4-0.1 0-0.8 0-1.6 0-2.4z"></path><path fill="#e3d661" d="m27.6 15.7c0.1 0.2 0.1 0.4 0.1 0.6 0.1 1 0.2 2.1 0.3 3.2 0.2 0.1 0.4 0.2 0.5 0.3-0.1 0.6-0.3 1.2-0.5 1.9-0.2 0.1-0.3 0.3-0.4 0.5-0.1-0.4-0.3-0.7-0.6-1-0.1-0.2-0.1-0.4-0.1-0.7 0.1-0.4 0.2-0.9 0.3-1.3 0.1-1.4 0.1-2.8-0.2-4.2-0.2-0.1-0.3-0.4-0.3-0.7h0.4c0.1 0.5 0.3 1 0.5 1.4z"></path><path fill="#686866" d="m3.4 18.3c0.1 0.1 0.3 0.2 0.4 0.3l0.1-0.2c0.1 0.2 0.1 0.3 0.3 0.4 0 0.6 0.1 1.2 0.4 1.7 0.1 0.2 0.4 0.3 0.6 0.3 0.1 0.5 0.2 1 0.4 1.5 0 0.2 0 0.3 0 0.5 0.4 0.7 0.7 1.3 1 2 0.7 0.7 1.3 1.4 1.8 2.1 0.4 0.5 1 1 1.6 1.3v0.3c-0.2 0.3-0.1 0.5 0.3 0.6 0.1 0.1 0.3 0.3 0.4 0.4 0.5 0.1 1 0.3 1.4 0.5 0.3 0.3 0.6 0.5 1.1 0.5 0.1 0.1 0.2 0.2 0.4 0.2-0.2 0.1-0.4 0.2-0.6 0.2 0.3 0.1 0.5 0.1 0.8 0.2 0 0.3 0.1 0.5 0.1 0.8l-0.1 0.2c-1.5-0.3-2.9-0.9-4.2-1.8-0.1-0.1-0.1-0.2-0.1-0.3-0.5-0.3-0.9-0.7-1.3-1.2-0.2-0.1-0.3-0.1-0.4-0.1-0.9-0.8-1.7-1.7-2.4-2.8-0.2-0.5-0.5-1-0.8-1.4-0.1-0.4-0.2-0.7-0.3-1 0-0.4-0.1-0.8-0.1-1.2-0.7-1.2-0.9-2.6-0.8-4z"></path><path fill="#7b7b7c" d="m33.9 19.5c-0.1-0.1-0.1-0.3 0-0.4 0.2-0.2 0.2-0.3 0-0.5 0.1-0.1 0.2-0.1 0.4 0 0.3 0.2 0.4 0.5 0.3 0.9h-0.7z"></path><path fill="#e9e9ea" d="m22.1 19.2v0.1c-2.8 0.1-5.7 0.1-8.5 0.1-0.2-0.2-0.3-0.5-0.3-0.8 1.1-0.3 2.1-0.3 3.2 0 0.1 0.1 0.1 0.3 0.2 0.5 0.6 0.1 1.1 0.1 1.7 0 0.1 0 0.1-0.1 0.1-0.1h0.1c0.1-0.2 0.2-0.4 0.1-0.6 0.8 0 1.6-0.1 2.3-0.2 0.4 0 0.8 0.1 1.1 0.2v0.8z"></path><path fill="#929293" d="m16.7 18.6h1.9v0.4h-0.1c-0.6 0-1.1 0-1.7-0.1-0.1-0.1-0.1-0.2-0.1-0.3z"></path><path fill="#b4ad7d" d="m25.6 18.1c-0.1 0.1-0.2 0.1-0.3 0.1-0.1 0.5-0.2 1.1-0.3 1.6 0 0.1 0.1 0.3 0.1 0.4-0.1-0.1-0.2-0.2-0.2-0.4 0.1-0.5 0.1-1.1 0.1-1.6 0.2-0.1 0.4-0.2 0.6-0.1z"></path><path fill="#b3a75b" d="m32.9 18.8c0 0.5 0 0.9-0.1 1.3v0.7l-0.2 0.1c0.1-0.3 0.1-0.6 0.1-0.9 0-0.4 0.1-0.8 0.2-1.2z"></path><path fill="#857e66" d="m9.7 16.8c-0.1 1.4 0.1 2.7 0.6 4v0.2c-0.1 0-0.1-0.1-0.2-0.1-0.1-0.6-0.3-1.2-0.5-1.7 0-0.8 0-1.6 0.1-2.4z"></path><path fill="#a8a7a4" d="m18.2 11c0.9 0.3 1.8 0.6 2.8 0.9 0.1 0 0.2 0.1 0.2 0.2 0.3 0.2 0.7 0.5 1 0.7 0.4 0.4 0.8 0.8 1.1 1.2 0.2 0.6 0.5 1.2 0.8 1.7 0.1 0.1 0.2 0.3 0.1 0.4 0.1 1.2 0.2 2.3 0.2 3.4-0.1 0.3-0.1 0.6-0.2 0.9-0.4 0.7-0.8 1.4-1.2 2-0.1 0-0.2 0.1-0.3 0.2 0 0.3 0 0.6 0 0.9-0.5 0.4-1.1 0.8-1.7 1.1-0.3 0-0.6 0.1-0.8 0.2 0-0.1-0.1-0.1-0.1-0.2 0.5 0 0.9-0.2 1.3-0.4 0-0.2 0-0.3 0-0.5-0.1 0-0.3 0-0.5 0.1-0.2 0-0.3-0.1-0.2-0.3 0.1 0.1 0.3 0.1 0.4 0 0.3-0.4 0.7-0.6 1.1-0.9 0.1-0.1 0.1-0.2 0.1-0.3 0.5-0.8 0.7-1.7 0.6-2.7 0.2 0.1 0.4 0 0.6-0.1 0.1-0.8 0.1-1.7 0-2.6-0.1-0.1-0.2-0.1-0.4-0.2-0.1 0.3-0.1 0.6-0.1 0.9h0.3v0.3c-0.1 0-0.3 0.1-0.4 0.2-0.2 0.3-0.4 0.7-0.7 1 0-0.3 0-0.6 0.1-0.8 0.1-0.1 0.2-0.2 0.4-0.1v-0.6c0.1-0.3 0.1-0.6 0.1-0.9-0.2 0-0.3 0-0.5 0.1 0.1-0.2 0.3-0.4 0.5-0.5 0.1-0.9 0-1.7-0.2-2.5-0.1-0.2-0.3-0.3-0.5-0.4-0.2-0.3-0.4-0.5-0.8-0.6-0.7 0-1.4-0.1-2.2-0.1-0.1 0-0.1 0-0.1 0.1 0 0-0.1 0.1-0.2 0.1 0-0.2-0.1-0.4-0.3-0.5 0.2-0.3 0.3-0.6 0.2-1l-0.2 0.2c-0.6 0-1.2 0.1-1.8 0 0 0.3 0 0.4 0.1 0.6v0.1c0 0.2-0.1 0.4-0.3 0.5-0.1-0.1-0.2-0.2-0.3-0.3-0.5 0.2-0.9 0.2-1.4 0.1-0.2-0.2-0.3-0.3-0.6-0.4 0.3-0.1 0.6-0.3 0.8-0.5 0.5-0.1 1-0.3 1.5-0.5 0.3-0.3 0.8-0.5 1.2-0.6 0.3 0 0.4 0.2 0.5 0.4z"></path><path fill="#f1f1f2" d="m16.8 12.3v-0.5h1.7c0 0.2 0 0.4-0.2 0.6-0.5 0.1-1 0-1.5-0.1z"></path><path fill="#6b6a6b" d="m18.2 11c0.1 0.1 0.2 0.3 0.2 0.5h-1.5c0-0.2 0.1-0.4 0.3-0.5 0.3 0 0.6 0 1 0z"></path><path fill="#4c4c4c" d="m0.4 20c0.2 0.3 0.3 0.7 0.2 1.2l-0.2-0.8v-0.4z"></path><path fill="#4e4e4e" d="m35.5 20v0.4l-0.2 0.8c-0.1-0.5 0-0.9 0.2-1.2z"></path><path fill="#070708" d="m32.8 20.2c0.2 0.1 0.3 0.3 0.2 0.6-0.1 0.3-0.2 0.7-0.3 1.1 0-0.4 0-0.8 0.1-1.1v-0.6z"></path><path fill="#e5d862" d="m28.7 16.5c0.1 0.1 0.2 0.2 0.3 0.3 0 0.4 0.1 0.8 0.2 1.2-0.2 0.6-0.2 1.2-0.2 1.7 0.1-0.2 0.2-0.4 0.4-0.5l0.1 0.8c0.1-0.2 0.2-0.1 0.2 0.1 0-0.3 0.1-0.4 0.3-0.6v0.5c0.2 0 0.5 0 0.8 0.1 0 0.4 0 0.7-0.1 1.1-0.2 0.5-0.4 1-0.5 1.5h-0.1c-0.2-0.1-0.3-0.1-0.5-0.3-0.1 0.1-0.1 0.1 0 0.2-0.2 0-0.4 0-0.6 0.1l-0.1-0.1c0.3-0.4 0.2-0.5-0.3-0.5 0-0.4-0.1-0.7-0.1-1.1 0.2-0.5 0.3-1 0.2-1.5v-0.3c0.2-0.9 0.2-1.8 0-2.7z"></path><path fill="#c4ba6a" d="m27.7 16.3c0.2 1 0.3 2 0.4 3.1l0.6 0.1c0.1 0.5 0 1-0.2 1.5-0.1 0.5-0.3 1.1-0.4 1.6-0.4 0.4-0.7 0.9-0.9 1.4-0.2 0.3-0.3 0.6-0.6 0.8 0-0.2-0.1-0.3-0.2-0.1 0.2-0.3 0.3-0.6 0.4-0.9 0.6-0.6 1-1.3 1.2-2.1 0.2-0.7 0.4-1.3 0.5-1.9-0.2-0.1-0.3-0.2-0.5-0.3-0.1-1.1-0.2-2.2-0.3-3.2z"></path><path fill="#c6bf79" d="m32.3 17.5v1.6c-0.1 0.7-0.2 1.5-0.2 2.2-0.1 0.2-0.2 0.4-0.3 0.5 0.3-1.5 0.4-2.9 0.5-4.3z"></path><path fill="#a69550" d="m5.3 13.1c-0.1 0.4-0.1 0.8-0.2 1.2-0.3 0.8-0.5 1.6-0.5 2.4-0.1 1.3 0 2.6 0.2 3.8 0.8-0.2 1.2 0.1 1.1 0.9-0.1-0.2-0.3-0.5-0.4-0.8 0 0.6 0.1 1.1 0.3 1.6 0 0.3-0.1 0.3-0.2 0.1-0.2-0.5-0.3-1-0.4-1.5-0.2 0-0.5-0.1-0.6-0.3-0.3-1.7-0.3-3.3 0-5 0.1-0.5 0.3-1 0.4-1.5l0.1-0.7 0.2-0.2z"></path><path fill="#6d6d6e" d="m22.9 18.1c0 0.5-0.1 0.9-0.5 1.2l-0.1 0.3c0 0.4 0.2 0.5 0.5 0.4 0.1 0.4-0.1 0.5-0.5 0.5 0 1.3-0.6 2-1.9 2.1-1.8 0.1-3.7 0.1-5.5 0-0.6-0.1-1.2-0.4-1.7-0.8-0.1-0.3-0.2-0.6-0.3-0.9-0.1 0-0.2 0.1-0.2 0.2 0.1 0.2 0.1 0.4 0 0.7-0.1-0.4-0.2-0.7-0.3-1v-1.2c0.1 0.2 0.2 0.3 0.2 0.5 0.1 0.1 0.2 0.1 0.3 0 0.2-0.3 0.3-0.6 0.2-1h0.1v0.6c0 0.3 0.1 0.6 0.1 0.8 0.7 0 1.3-0.1 1.9-0.2v-0.3l0.5-0.4c0.7 0.1 0.7 0.2 0 0.3v0.3h0.6v0.6h0.3v-0.6h0.9v0.6h0.3v-0.6c0.3 0 0.6 0 0.9 0.1 0.1 0.1 0.2 0.3 0.1 0.5h0.4v-0.6c0.7-0.1 0.7-0.2-0.1-0.2v-0.4c0.4-0.1 0.8 0.1 1 0.5 0 0.2 0 0.3 0.2 0.4 0.6 0.1 1.2 0.2 1.8 0.3 0.1-0.6 0.1-1.1 0.1-1.6v-0.1c0.3-0.3 0.5-0.7 0.7-1z"></path><path fill="#8c8c8d" d="m22.1 19.2h0.1c0 0.5 0 1-0.1 1.6-0.6-0.1-1.2-0.2-1.8-0.3-0.2-0.1-0.2-0.2-0.2-0.4 0.6 0.1 1.2 0.1 1.9 0 0.1-0.1 0.1-0.3 0.1-0.5v-0.4z"></path><path fill="#9b9a9c" d="m13.2 19.7c0.7 0.2 1.4 0.3 2 0.3v0.3c-0.6 0.1-1.2 0.2-1.9 0.2 0-0.2-0.1-0.5-0.1-0.8z"></path><path fill="#a4a4a6" d="m15.7 19.6c1.4-0.1 2.7-0.1 4.2 0 0.7 0.3 1.4 0.3 2.2 0 0 0.2 0 0.4-0.1 0.5-0.7 0.1-1.3 0.1-1.9 0-0.2-0.4-0.6-0.6-1-0.5v0.4c0.8 0 0.8 0.1 0.1 0.2v0.6h-0.4c0.1-0.2 0-0.4-0.1-0.5-0.3-0.1-0.6-0.1-0.9-0.1v0.6h-0.3v-0.6h-0.9v0.6h-0.3v-0.6h-0.6v-0.3c0.7-0.1 0.7-0.2 0-0.3z"></path><path fill="#69696a" d="m17.8 19.6c1.2 0.1 1.2 0.2 0.1 0.4-0.1-0.1-0.1-0.3-0.1-0.4z"></path><path fill="#686869" d="m16.6 19.6c0.3 0 0.6 0 0.9 0.1l-0.5 0.2c-0.2-0.1-0.3-0.1-0.4-0.3z"></path><path fill="#6f6f70" d="m33.9 19.6c0.4 0.2 0.6 0.4 0.6 0.8-0.1-0.1-0.2-0.2-0.4-0.1 0.5 0.4 0.5 0.8 0 1.2-0.4-0.1-0.6-0.3-0.5-0.7 0.1 0.1 0.3 0.2 0.5 0.3l0.2-0.1c-0.3-0.2-0.4-0.4-0.6-0.7 0.1-0.2 0.1-0.3 0-0.4 0-0.2 0.1-0.3 0.2-0.3z"></path><path fill="#484324" d="m32.8 20.8c-0.1 0.3-0.1 0.7-0.1 1.1l-0.2 0.1c0-0.3 0-0.5 0.1-0.8v-0.3l0.2-0.1z"></path><path fill="#bfbfc0" d="m35.5 20.4c-0.1 1.3-0.4 2.5-0.9 3.6 0.2-0.9 0.4-1.9 0.7-2.8l0.2-0.8z"></path><path fill="#b7b28e" d="m30.8 20.1c0.2 0.9 0.1 1.8-0.6 2.6 0.1-0.5 0.3-1 0.5-1.5 0.1-0.4 0.1-0.7 0.1-1.1z"></path><path fill="#af973c" d="m10.6 20.1c0.6 1.6 1.5 2.9 2.8 3.9l0.6 0.6c-0.3 0.1-0.6 0.1-0.9 0-0.5-0.6-1.1-1.2-1.8-1.8-0.3-0.6-0.6-1.3-1-1.8v-0.2c-0.1-0.7-0.2-1.3-0.5-1.9 0.1-0.4 0.2-0.8 0.2-1.2 0.1-0.3 0.3-0.4 0.5-0.2-0.1 0.2-0.1 0.4 0 0.6-0.1 0.1-0.2 0.1-0.3 0.1 0 0.5 0 0.9 0.1 1.4 0.1 0.2 0.2 0.4 0.3 0.5z"></path><path fill="#897e43" d="m32.6 21.2c-0.1 0.3-0.1 0.5-0.1 0.8 0 0.2-0.1 0.4-0.3 0.6 0.1-0.5 0.2-1 0.4-1.4z"></path><path fill="#c9b54e" d="m24.6 17c0.1 0.7 0.1 1.4 0.2 2.1 0.1-0.3 0.2-0.6 0.2-0.9 0 0.5 0 1.1-0.1 1.6 0 0.2 0.1 0.3 0.2 0.4 0.1 0 0.2 0.1 0.2 0.2l-0.4 1.4c-0.4 0.1-0.6 0.4-0.7 0.9-0.2 0.1-0.4 0.2-0.5 0.4-0.1 0-0.3 0.1-0.4 0.1-0.1-0.1-0.3-0.2-0.5-0.2 0-0.2 0-0.4 0.2-0.6 0.4-0.6 0.8-1.3 1.2-2 0.1-0.3 0.1-0.6 0.2-0.9 0 0 0.1 0 0.1-0.1 0.1-0.8 0.1-1.5 0.1-2.4z"></path><path fill="#bebdbf" d="m0.4 20.4l0.2 0.8c0.1 0.3 0.2 0.7 0.1 1-0.2-0.5-0.4-1.1-0.3-1.8z"></path><path fill="#4d4c4d" d="m3.7 14h0.1c-0.3 1.4-0.4 2.8-0.4 4.3-0.1 1.4 0.1 2.8 0.8 4 0 0.4 0.1 0.8 0.1 1.2-0.2-0.2-0.3-0.4-0.4-0.6-0.8-2.9-0.9-5.9-0.2-8.9z"></path><path fill="#968954" d="m7.3 21.7c0.2 0.2 0.3 0.4 0.3 0.7-0.3-0.1-0.4-0.4-0.3-0.7z"></path><path fill="#d4c353" d="m26.9 20.5c0 0.3 0 0.5 0.1 0.7 0.3 0.3 0.5 0.6 0.6 1 0.1-0.2 0.2-0.4 0.4-0.5-0.2 0.8-0.6 1.5-1.2 2.1-0.1-0.1-0.2-0.2-0.3-0.3v0.6c-0.2 0.2-0.3 0.1-0.4-0.1 0-0.2 0-0.4 0-0.5-0.1-0.1-0.2-0.2-0.3-0.2 0.1-0.2 0.2-0.3 0.1-0.5 0.3-0.6 0.5-1.3 0.7-1.9 0.2-0.1 0.3-0.2 0.3-0.4z"></path><path fill="#2d2d2d" d="m3.8 12.7c-0.1 0.3-0.2 0.6-0.1 1 0.1-0.4 0.3-0.7 0.5-1-0.1 0.4-0.3 0.9-0.4 1.3h-0.1c-0.1-0.1-0.1-0.1-0.2-0.1-0.1 0.2-0.2 0.4-0.4 0.5 0.1 0.3 0.1 0.5 0 0.7v-0.4h-0.3c0 0.4 0 0.8-0.1 1.2-0.3-0.1-0.6-0.2-0.8-0.4l-0.2 0.1c0.2 0.1 0.3 0.2 0.4 0.3-0.1 0.1-0.2 0.1-0.4 0 0 0.3 0.2 0.6 0.6 0.7 0-0.2 0.1-0.4 0.1-0.6 0.2 0.5 0.2 0.9 0 1.4l-0.1 0.1c-0.1-0.2-0.1-0.4 0.1-0.6-0.3-0.1-0.6-0.1-0.9-0.1 0 0.7 0.4 0.9 1 0.8 0 0.7 0.1 1.4 0.2 2.1 0.1-0.1 0.1-0.2 0.2-0.4 0.2 0.8 0.3 1.5 0.4 2.4 0.2 0.5 0.4 1.2 0.6 1.8 0 0.1-0.1 0.2-0.1 0.3 0.1 0.1 0.1 0.1 0.3 0 0.1 0.3 0.1 0.7 0.2 1 0.2 0.1 0.3 0.3 0.4 0.5-0.8-0.1-1.5-0.1-2.2 0-0.1-0.2-0.1-0.3 0.1-0.4-0.2-0.5-0.4-0.9-0.7-1.2h0.4c-0.4-1-0.7-2-0.8-3.1-0.2-0.1-0.3-0.1-0.3 0.1 0.1 0.5 0.1 0.9 0.2 1.4-0.1 0-0.1 0-0.2-0.1-0.1-0.6-0.1-1.2 0-1.8-0.2-0.5-0.3-1.1-0.4-1.7 0.2 0 0.3 0 0.4-0.1 0-0.7 0.1-1.4 0.3-2-0.1-0.5-0.1-1 0-1.5 0.1 0 0.1 0 0.1-0.1 0.3 0.2 0.5 0.4 0.9 0.6l0.1-0.2c-0.5-0.7-0.4-0.9 0.4-0.6v-0.5c-0.4-0.1-0.6-0.3-0.7-0.8 0.1-0.1 0.2-0.1 0.3 0 0.2 0.1 0.3 0.3 0.5 0.4 0.4-0.4 0.4-0.8 0-1.2 0.2 0 0.4 0.1 0.7 0.2z"></path><path fill="#3c3b3c" d="m1.2 20.2c-0.1-0.4-0.2-0.9-0.1-1.4 0.4 0.2 0.9 0.3 1.3 0.4 0 0.3 0 0.6 0.2 0.8-0.2 0.3-0.2 0.6 0.1 0.9 0-0.3 0.1-0.6 0.2-0.8 0.1 0.5 0.1 0.9-0.1 1.4 0 0.1 0 0.2 0.1 0.3-0.3 0.2-0.5 0.2-0.8 0.1 0-0.3-0.1-0.5-0.2-0.7 0.2 0 0.5 0 0.7-0.1-0.5-0.2-1-0.5-1.4-0.9z"></path><path fill="#7d7d7e" d="m22.8 19.6h0.1c0.1 1-0.1 1.9-0.6 2.7-0.6 0.6-1.3 0.9-2.1 0.9-2.1 0.1-4.2 0-6.3-0.1l-0.7-0.4c-0.6-0.5-0.8-1.2-0.8-1.9 0.1 0.3 0.2 0.6 0.3 1 0.1-0.3 0.1-0.5 0-0.7 0-0.1 0.1-0.2 0.2-0.2 0.1 0.3 0.2 0.6 0.3 0.9 0.5 0.4 1.1 0.7 1.7 0.8 1.8 0.1 3.7 0.1 5.5 0 1.3-0.1 1.9-0.8 1.9-2.1 0.4 0 0.6-0.1 0.5-0.5v-0.4z"></path><path fill="#474647" d="m1.9 23.7c-0.2-0.5-0.3-1.1-0.5-1.6-0.1-0.5-0.1-0.9-0.2-1.4 0-0.2 0.1-0.2 0.3-0.1 0.1 1.1 0.4 2.1 0.8 3.1h-0.4z"></path><path fill="#6a696a" d="m34.5 22.4c0 0.2 0 0.4-0.1 0.6-0.3 0.7-0.6 1.4-0.8 2.2 0 0.2 0.1 0.3 0.2 0.4-0.2 0.2-0.3 0.5-0.4 0.8-0.2-0.1-0.3-0.2-0.4-0.4 0.1-0.3 0.3-0.6 0.4-0.9-0.2-0.1-0.3-0.1-0.4-0.1 0-0.1-0.1-0.2-0.2-0.2 0-0.1 0.1-0.2 0.1-0.2-0.2-0.1-0.4-0.2-0.6-0.1v-0.4l0.8-0.2c0 0.3 0 0.5 0.1 0.8l0.6-1c0-0.4 0-0.5-0.2-0.2-0.5-0.4-0.5-0.3-0.2 0.1 0.1 0.1 0.1 0.2 0 0.3-0.4-0.2-0.6-0.5-0.7-0.9 0.1 0 0.2 0 0.3 0-0.2-0.1-0.3-0.2-0.4-0.3 0-0.2 0.1-0.4 0.1-0.6 0.4 0 0.6-0.2 0.7-0.6 0.3 0.3 0.6 0.6 0.8 0.9 0.3-0.8 0.4-0.8 0.3 0z"></path><path fill="#666" d="m1 22.8c0.2 0.1 0.2 0.3 0.2 0.5-0.1-0.1-0.2-0.3-0.2-0.5z"></path><path fill="#81807d" d="m7.3 14.7c-0.1 0.2 0 0.4 0 0.7 0.3 0.5 0.5 1.1 0.7 1.6 0.2 0 0.3 0 0.4 0.1 0.1 0.2 0.1 0.4 0.2 0.6 0.1 0.1 0.2 0.2 0.3 0.1 0 0.3 0 0.6 0.1 0.8l0.1-0.5c0.1 0.4 0.3 0.7 0.5 1.1 0.2 0.5 0.4 1.1 0.5 1.7 0.1 0 0.1 0.1 0.2 0.1 0.4 0.5 0.7 1.2 1 1.8 0.1 0.2 0.2 0.4 0.4 0.7 0.4 0.4 0.9 0.8 1.4 1.1v0.1c-0.2 0-0.4 0.2-0.4 0.4 0.6 0.2 0.8 0.6 0.7 1.2h0.4l0.2 1c0.3 0.1 0.6 0.3 0.8 0.6-0.1 0-0.1 0.1-0.1 0.2-0.6-0.2-1.1-0.4-1.7-0.6-0.1-0.3-0.1-0.6 0-0.9-0.2 0-0.5 0-0.7-0.1v-0.2c-0.3-0.3-0.6-0.6-1-0.8 0.3 0 0.5 0 0.8 0-0.1 0-0.1-0.1-0.2-0.2-0.1 0.1-0.2 0.1-0.3 0 0-0.4-0.2-0.5-0.5-0.5-0.1-0.5-0.3-1-0.7-1.3-0.1-0.4-0.2-0.7-0.3-1 0.1-0.5-0.1-0.7-0.6-0.5l-0.2-1.4h-0.4v-0.3h-0.3c-0.1-0.7-0.3-1.3-0.6-1.9l-0.2 0.4c-0.2-0.2-0.2-0.5-0.1-0.8-0.1-0.2-0.3-0.3-0.5-0.2-0.2-0.4-0.2-0.8-0.2-1.2 0-0.6 0.1-1.2 0.1-1.8 0-0.1 0.1-0.1 0.2-0.1z"></path><path fill="#999899" d="m22.3 22.3c0 0.1 0 0.2-0.1 0.3-0.4 0.3-0.8 0.5-1.1 0.9-0.1 0.1-0.3 0.1-0.4 0-0.1 0.2 0 0.3 0.2 0.3 0.2-0.1 0.4-0.1 0.5-0.1 0 0.2 0 0.3 0 0.5-0.4 0.2-0.8 0.4-1.3 0.4 0 0.1 0.1 0.1 0.1 0.2-1 0.3-2.1 0.4-3.2 0.3-0.2 0-0.4-0.1-0.6-0.1 0-0.2 0.1-0.3 0.1-0.5-0.3-0.1-0.5-0.2-0.6-0.5 0-0.2 0-0.4-0.1-0.6 1.5 0 3-0.1 4.4-0.2 0.8 0 1.5-0.3 2.1-0.9z"></path><path fill="#d9c855" d="m28.5 21c0 0.4 0.1 0.7 0.1 1.1 0.5 0 0.6 0.1 0.3 0.5l0.1 0.1c0.2-0.1 0.4-0.1 0.6-0.1-0.1-0.1-0.1-0.1 0-0.2 0.2 0.2 0.3 0.2 0.5 0.3-0.3 0.7-0.6 1.4-0.9 2.1-0.2 0.2-0.4 0.5-0.5 0.8h-0.1c-0.1 0.1-0.3 0.1-0.4 0.1 0.3-0.3 0.2-0.6-0.2-0.8l-0.2 0.2c0-0.1-0.1-0.3-0.3-0.3l0.1-0.2c-0.4 0-0.5-0.2-0.4-0.6 0.2-0.5 0.5-1 0.9-1.4 0.1-0.5 0.3-1.1 0.4-1.6z"></path><path fill="#a5984c" d="m32.2 22.6c-0.2 0.5-0.4 1-0.5 1.6-0.3 0.5-0.5 0.9-0.8 1.4 0.3-0.8 0.6-1.6 0.9-2.4 0.1-0.2 0.2-0.5 0.4-0.6z"></path><path fill="#8e845c" d="m11.3 22.8c0.7 0.6 1.3 1.2 1.8 1.8-0.5-0.3-1-0.7-1.4-1.1-0.2-0.3-0.3-0.5-0.4-0.7z"></path><path fill="#c8c7c8" d="m0.8 22.2c0.2 0.2 0.2 0.4 0.2 0.6 0 0.2 0.1 0.4 0.2 0.5 0.1 0.3 0.1 0.5 0.1 0.7-0.4-0.5-0.5-1.1-0.5-1.8z"></path><path fill="#c5bb70" d="m31.6 22.6c-0.1 0.6-0.3 1.1-0.6 1.5 0.1-0.5 0.3-1.1 0.6-1.5z"></path><path fill="#cab449" d="m25.9 22.8c0.1 0.2 0 0.3-0.1 0.5 0.1 0 0.2 0.1 0.3 0.2 0 0.1 0 0.3 0 0.5 0.1 0.2 0.2 0.3 0.4 0.1v-0.6c0.1 0.1 0.2 0.2 0.3 0.3-0.1 0.3-0.2 0.6-0.4 0.9-0.4 0.4-0.8 0.8-1.3 1.1 0-0.1-0.1-0.3-0.2-0.4h-0.1c-0.1-0.2-0.2-0.4-0.3-0.6l0.2-0.4c0-0.2 0-0.3 0.1-0.4 0.1 0 0.2 0 0.3-0.1 0.2-0.4 0.5-0.8 0.8-1.1z"></path><path fill="#bbb270" d="m30.1 22.7h0.1c-0.2 0.6-0.4 1.3-0.7 1.9-0.1 0.1-0.2 0.2-0.3 0.2 0.3-0.7 0.6-1.4 0.9-2.1z"></path><path fill="#a09776" d="m23.3 23.7c-0.2 0.2-0.3 0.4-0.3 0.7-0.4 0.1-0.7 0.2-0.9 0.5-0.5 0.2-1 0.4-1.5 0.6-0.2 0.1-0.4 0.1-0.6 0.1 0.4-0.2 0.8-0.4 1.3-0.5 0.8-0.4 1.4-0.9 2-1.4z"></path><path fill="#a6a5a2" d="m24.2 22.7c-0.1 0.3-0.3 0.7-0.5 1l0 0.1c0.2-0.2 0.4-0.3 0.5-0.5 0.3 0.2 0.5 0.5 0.6 0.7-0.1 0.1-0.1 0.2-0.1 0.4-0.2 0-0.3 0.2-0.3 0.4 0 0.3 0.2 0.5 0.4 0.6h0.1c0 0.3-0.1 0.5-0.3 0.6-0.7 0.5-1.3 1-2 1.4 0.1-0.2 0.2-0.4 0.2-0.7-0.2 0-0.3 0-0.4-0.1 0.1-0.1 0.2-0.1 0.3 0 0.3-0.3 0.2-0.5-0.3-0.4-0.1-0.3-0.1-0.6 0-0.8 0-0.2-0.2-0.4-0.3-0.5 0.2-0.3 0.5-0.4 0.9-0.5 0-0.3 0.1-0.5 0.3-0.7 0.1-0.2 0.2-0.4 0.4-0.6 0.1-0.2 0.3-0.3 0.5-0.4z"></path><path fill="#e2d563" d="m32.7 20c0 0.3 0 0.6-0.1 0.9v0.3c-0.2 0.4-0.3 0.9-0.4 1.4-0.2 0.1-0.3 0.4-0.4 0.6-0.3 0.8-0.6 1.6-0.9 2.4h-0.1c-0.2 0-0.3 0.1-0.4 0.2l-0.1-0.2c0.1-0.2 0.2-0.4 0.2-0.7 0.1-0.3 0.3-0.6 0.5-0.8 0.3-0.4 0.5-0.9 0.6-1.5 0-0.3 0.1-0.6 0.2-0.8 0.1-0.1 0.2-0.3 0.3-0.5 0-0.7 0.1-1.5 0.2-2.2 0.1-0.5 0.2-0.9 0.3-1.4 0.1 0.8 0.1 1.5 0.1 2.3z"></path><path fill="#414041" d="m32.6 22.7c0.1 0.1 0.2 0.2 0.4 0.2-0.1 0.1-0.2 0.1-0.3 0.1 0.1 0.4 0.3 0.7 0.7 0.9 0.1-0.1 0.1-0.2 0-0.3-0.3-0.4-0.3-0.5 0.2-0.1 0.2-0.3 0.2-0.2 0.2 0.2l-0.6 1c-0.1-0.3-0.1-0.5-0.1-0.8l-0.8 0.2v0.4c0.2-0.1 0.4 0 0.6 0.1 0 0-0.1 0.1-0.1 0.1 0.1 0.1 0.2 0.2 0.2 0.3-0.1 0.2-0.2 0.2-0.3 0.1-0.2-0.2-0.4-0.5-0.7-0.6-0.1 0.2-0.2 0.5-0.4 0.6 0-0.5 0.3-0.9 0.7-1.2 0-0.2 0.1-0.4 0.3-0.6-0.2-0.2-0.2-0.4 0-0.6z"></path><path fill="#958a61" d="m10.3 24.6c0.4 0.1 0.7 0.4 0.9 0.9-0.3-0.3-0.6-0.6-0.9-0.9z"></path><path fill="#9d8c4b" d="m13.4 24c0.6 0.3 1.2 0.6 1.7 0.9-0.3-0.1-0.6-0.2-1-0.2 0 0.2 0 0.3 0.1 0.4-0.4-0.1-0.7-0.2-1.1-0.4v-0.1c0.3 0.1 0.6 0.1 0.9 0l-0.6-0.6z"></path><path fill="#888785" d="m13.1 24.7c0.4 0.2 0.7 0.3 1.1 0.4h0.1c0.5 0.4 1 0.7 1.6 0.8 1.1 0 2.3 0 3.4 0 0 0.1 0 0.1-0.1 0.1-0.7 0.1-1.4 0.2-2.2 0.3 0.5 0.1 0.5 0.2 0 0.3 0.2 0 0.2 0.1 0 0.1 0-0.2-0.2-0.3-0.3-0.5 0 0.2 0 0.5 0 0.9 0.2-0.1 0.4-0.1 0.6 0 0.1 0.3 0.3 0.6 0.6 0.7-0.1 0.1-0.2 0.2-0.4 0.2 0.3 0 0.5 0.1 0.7 0.3 0.2 0.1 0.4 0.1 0.6 0.1v0.1c-1.1 0-2.2 0-3.3-0.2-0.3-0.1-0.6-0.1-0.8-0.2 0-0.1 0-0.2 0.1-0.2-0.2-0.3-0.5-0.5-0.8-0.6l-0.2-1h-0.4c0.1-0.6-0.1-1-0.7-1.2 0-0.2 0.2-0.4 0.4-0.4z"></path><path fill="#b4a96d" d="m24.7 24.4l-0.2 0.4c0.1 0.2 0.2 0.4 0.3 0.6-0.2-0.1-0.4-0.3-0.4-0.6 0-0.2 0.1-0.4 0.3-0.4z"></path><path fill="#9b8f57" d="m5.9 21.4c0.8 2.6 2.2 4.8 4.3 6.4l0.1 0.2c-0.1 0-0.2 0.1-0.3 0.2-0.6-0.3-1.2-0.8-1.6-1.3-0.5-0.7-1.1-1.4-1.8-2.1-0.3-0.7-0.6-1.3-1-2 0-0.2 0-0.3 0-0.5 0.1 0.2 0.2 0.2 0.2-0.1-0.2-0.5-0.3-1-0.3-1.6 0.1 0.3 0.3 0.6 0.4 0.8z"></path><path fill="#ab9234" d="m23 22.4c-0.2 0.2-0.2 0.4-0.2 0.6 0.2 0 0.4 0.1 0.5 0.2 0.1 0 0.3-0.1 0.4-0.1-0.2 0.2-0.3 0.4-0.4 0.6-0.6 0.5-1.2 1-2 1.4-0.5 0.1-0.9 0.3-1.3 0.5-1.3 0.2-2.6 0.3-3.9 0.1-0.6-0.1-1.2-0.3-1.8-0.6h-0.1c-0.1-0.1-0.1-0.2-0.1-0.4 0.4 0 0.7 0.1 1 0.2l1 0.2c0.1 0.1 0.2 0.2 0.4 0.2 1.2 0.1 2.5 0 3.7-0.3 0.3-0.1 0.5-0.2 0.8-0.4 0.6-0.3 1.2-0.7 1.7-1.1 0-0.3 0-0.6 0-0.9 0.1-0.1 0.2-0.2 0.3-0.2z"></path><path fill="#b6b5b6" d="m34.6 24c0 0.5-0.2 0.9-0.6 1.1 0.1-0.4 0.3-0.8 0.6-1.1z"></path><path fill="#938c76" d="m21 24.6c-0.3 0.2-0.5 0.3-0.8 0.4-1.2 0.3-2.5 0.4-3.7 0.3-0.2 0-0.3-0.1-0.4-0.2h0.9c1.1 0.1 2.2 0 3.2-0.3 0.2-0.1 0.5-0.2 0.8-0.2z"></path><path fill="#cbb547" d="m27.2 24c-0.1 0.4 0 0.6 0.4 0.6l-0.1 0.2c0.2 0 0.3 0.2 0.3 0.3l0.2-0.2c0.4 0.2 0.5 0.5 0.2 0.7 0.1 0.1 0.3 0.1 0.4 0-0.3 0.6-0.8 1.1-1.2 1.6-0.4 0-0.7-0.1-0.9-0.4-0.1 0-0.2 0.1-0.2 0.1l-0.5 0.4c-0.1 0-0.2-0.1-0.3-0.1-0.2 0.1-0.2 0.1 0 0.2-0.3 0.3-0.5 0.3-0.6-0.1 0.3-0.2 0.2-0.4-0.2-0.4 0.1-0.1 0.2-0.2 0.2-0.3 0.6-0.6 1.2-1.2 1.7-1.8 0.3-0.2 0.4-0.5 0.6-0.8z"></path><path fill="#838383" d="m33 25c0.1 0 0.2 0 0.4 0.1-0.1 0.3-0.3 0.6-0.4 0.9 0.1 0.2 0.2 0.3 0.4 0.4-0.1 0.2-0.2 0.3-0.4 0.4-0.7-0.1-1.4-0.1-2-0.2-0.1 0.1-0.2 0.2-0.3 0.2 0.2-0.6 0.5-1.1 0.9-1.7 0.2-0.1 0.3-0.4 0.4-0.6 0.3 0.1 0.5 0.4 0.7 0.6 0.1 0.1 0.2 0.1 0.3-0.1z"></path><path fill="#c7af49" d="m10.3 24.6c0.3 0.3 0.6 0.6 0.9 0.9 0 0.2 0.1 0.3 0.2 0.4 0.3 0.1 0.6 0.2 0.9 0.4v0.2c0.1 0.1 0.2 0.3 0.4 0.3 0.1 0.3 0.1 0.6 0 0.8-1.6-0.8-2.9-1.9-3.9-3.4-0.1-0.1-0.1-0.3 0-0.4 0.2-0.1 0.3-0.1 0.4-0.2 0.1-0.2 0.2-0.2 0.3-0.1 0.3 0.4 0.6 0.7 0.8 1.1z"></path><path fill="#9c9b9a" d="m22.1 24.9c0.1 0.1 0.3 0.3 0.3 0.5-0.1 0.2-0.1 0.5 0 0.8 0.5-0.1 0.6 0.1 0.3 0.4-0.1-0.1-0.2-0.1-0.3 0 0.1 0.1 0.2 0.1 0.4 0.1 0 0.3-0.1 0.5-0.2 0.7-0.4 0.1-0.8 0.2-1.1 0.4-0.4 0.2-0.9 0.3-1.3 0.4 0.3-0.2 0.3-0.3-0.1-0.2 0-0.3 0-0.6-0.1-0.8-0.2-0.2-0.5-0.4-0.8-0.6 0.6-0.2 0.5-0.3-0.1-0.4 0 0 0.1-0.1 0.1-0.2 0.1 0 0.1 0 0.1-0.1l0.7-0.3c0.2 0 0.4 0 0.6-0.1 0.5-0.2 1-0.4 1.5-0.6z"></path><path fill="#cdb74b" d="m7.3 21.7c-0.1 0.3 0 0.6 0.3 0.7 0.1 0.5 0.3 1 0.7 1.4 0.8 1.4 1.8 2.5 3.1 3.5 0 0.2 0.1 0.4 0.2 0.7 0-0.1 0.1-0.1 0.2-0.2 0 0.2 0 0.3 0.1 0.4 0.2 0.2 0.5 0.4 0.9 0.5 0 0.1 0.1 0.2 0.1 0.4 0.1-0.2 0.2-0.2 0.3 0 0 0.1 0.1 0.3 0.2 0.4-0.1 0.1-0.2 0.2-0.3 0.2 0.1 0 0.3 0.1 0.4 0.2l0.1-0.3c0.1 0.3 0 0.5 0 0.7-0.2-0.1-0.4-0.2-0.6-0.3-0.2 0.1-0.4 0.1-0.6 0.1-0.1-0.1-0.2-0.1-0.3-0.1-0.6-0.4-1.2-0.7-1.8-0.9-0.2-0.2-0.3-0.4-0.3-0.6v-0.3c0.1-0.1 0.2-0.2 0.3-0.2l-0.1-0.2c-2.1-1.6-3.5-3.8-4.3-6.4 0.1-0.8-0.3-1.1-1.1-0.9-0.2-1.2-0.3-2.5-0.2-3.8 0.2 0 0.4-0.1 0.6-0.1l0.1 0.4 0.1-0.2c0 0.3 0.1 0.5 0.2 0.7 0.1 0.1 0.2 0.1 0.2 0l0.4 0.7c0-0.2 0.1-0.3 0.2-0.1l0.1 2c0.1 0.1 0.1 0.2 0.2 0.3-0.2-0.1-0.3 0-0.4 0 0 0.3 0 0.5 0.1 0.8 0.1 0 0.3-0.1 0.3-0.2 0.2 0.3 0.3 0.5 0.6 0.7z"></path><path fill="#968850" d="m14.3 25.1c0.6 0.3 1.2 0.5 1.8 0.6 1.3 0.2 2.6 0.1 3.9-0.1l-0.7 0.3c-1.1 0-2.3 0-3.4 0-0.6-0.1-1.1-0.4-1.6-0.8z"></path><path fill="#a5975f" d="m11.2 25.5h0.1c0.4 0.2 0.7 0.5 1 0.8-0.3-0.2-0.6-0.3-0.9-0.4-0.1-0.1-0.2-0.2-0.2-0.4z"></path><path fill="#858485" d="m2.2 25.7c0.1 0.2 0.2 0.5 0.3 0.7-0.2-0.2-0.4-0.4-0.3-0.7z"></path><path fill="#adadad" d="m34 25.3c0 0.4-0.2 0.8-0.6 1.1 0.1-0.3 0.2-0.6 0.4-0.8 0-0.2 0.1-0.3 0.2-0.3z"></path><path fill="#939292" d="m19.2 26c0 0.1-0.1 0.2-0.1 0.2 0.6 0.1 0.7 0.2 0.1 0.4 0.3 0.2 0.6 0.4 0.8 0.6 0.1 0.2 0.1 0.5 0.1 0.8 0.4-0.1 0.4 0 0.1 0.2-0.2 0-0.4 0-0.6 0.2h-0.8c-0.2 0-0.4 0-0.6 0-0.2-0.3-0.4-0.4-0.7-0.4 0.2 0 0.3-0.1 0.4-0.2-0.3-0.1-0.5-0.4-0.6-0.7-0.2-0.1-0.4-0.1-0.6 0 0-0.4 0-0.7 0-0.9 0.1 0.2 0.3 0.3 0.3 0.5 0.2 0 0.2-0.1 0-0.1 0.5-0.1 0.5-0.2 0-0.3 0.8-0.1 1.5-0.2 2.2-0.3z"></path><path fill="#b19d4d" d="m26.6 24.8c-0.5 0.6-1.1 1.2-1.7 1.8h-0.1c0.2-0.2 0.1-0.2-0.1-0.2-1.1 0.9-2.4 1.5-3.8 1.8 0.2-0.1 0.4-0.2 0.6-0.4 0.3-0.2 0.7-0.3 1.1-0.4 0.7-0.4 1.3-0.9 2-1.4 0.2-0.1 0.3-0.3 0.3-0.6 0.1 0.1 0.2 0.3 0.2 0.4 0.5-0.3 0.9-0.7 1.3-1.1 0.1-0.2 0.2-0.1 0.2 0.1z"></path><path fill="#b1b0b1" d="m31.9 25.6c0.2 0.1 0.3 0.2 0.3 0.4 0.1-0.1 0.2-0.2 0.1-0.4h0.4v0.7h-1c0-0.3 0.1-0.5 0.2-0.7z"></path><path fill="#535353" d="m4.7 25.3c0.4 0.7 0.8 1.4 1.3 2.1 0.6 0.6 1.2 1.3 1.8 1.9-0.2-0.1-0.4-0.1-0.5-0.1-0.2-0.5-0.5-0.8-0.9-1-0.3 0.3-0.3 0.5 0 0.7l-0.2 0.1c0.3 0 0.4 0.1 0.5 0.3-0.2 0-0.3 0.1-0.3 0.2-0.2 0.2-0.2 0.5-0.2 0.7-0.2-0.1-0.3-0.2-0.5-0.3-1.3-1.4-2.4-3-3.2-4.6 0.7-0.1 1.4-0.1 2.2 0z"></path><path fill="#9f9f9f" d="m3.8 25.5h0.3v0.3c0.2 0 0.3 0 0.4 0.1 0.1 0.3 0.1 0.6 0.1 0.8-0.4 0.1-0.8 0-1.1-0.1-0.1-0.2-0.1-0.4 0-0.7 0.2-0.1 0.3-0.2 0.3-0.4z"></path><path fill="#191818" d="m3.7 14c-0.7 3-0.6 6 0.2 8.9 0.1 0.2 0.2 0.4 0.4 0.6 0.1 0.3 0.2 0.6 0.3 1 0.3 0.4 0.6 0.9 0.8 1.4 0.7 1.1 1.5 2 2.4 2.8 0.4 0.6 1 1.1 1.7 1.3 0 0.1 0 0.2 0.1 0.3 1.3 0.9 2.7 1.5 4.2 1.8 0 0.1 0.1 0.2 0.1 0.2 0.4 0.2 0.7 0.2 1.1 0.3h0.4c0 0 0.1 0.1 0.2 0.1 1.2 0.2 2.4 0.2 3.6 0.1h0.7c0.5-0.1 1-0.1 1.5 0-0.4 0.1-0.9 0.3-1.4 0.4-0.3 0-0.6 0.1-0.9 0-1.1 0.1-2.1 0-3.2-0.1-0.7-0.2-1.4-0.4-2.2-0.5-0.2-0.1-0.4-0.2-0.6-0.3-0.7-0.1-1.4-0.4-2-0.7-1.2-0.7-2.3-1.4-3.3-2.3-0.6-0.6-1.2-1.3-1.8-1.9-0.5-0.7-0.9-1.4-1.3-2.1-0.1-0.2-0.2-0.4-0.4-0.5-0.1-0.3-0.1-0.7-0.2-1-0.2 0.1-0.2 0.1-0.3 0 0-0.1 0.1-0.2 0.1-0.3-0.2-0.6-0.4-1.3-0.6-1.8-0.1-0.9-0.2-1.6-0.4-2.4-0.1-1.4 0-2.8 0.2-4.2 0.1-0.2 0.1-0.4 0-0.7 0.2-0.1 0.3-0.3 0.4-0.5 0.1 0 0.1 0 0.2 0.1z"></path><path fill="#9b9b9c" d="m33 26.8c-0.2 0.6-0.5 1.1-0.9 1.5-0.2-0.3-0.4-0.7-0.5-1-0.2-0.2-0.3-0.2-0.5 0 0.1 0.1 0.2 0.1 0.3 0.1 0.1 0.2 0.1 0.5 0 0.7-0.3 0.1-0.6 0.1-1 0.1v-0.8c0.2 0 0.3 0 0.4-0.1-0.2-0.1-0.2-0.2-0.3-0.4 0 0 0.1-0.1 0.2-0.1 0.1 0 0.2-0.1 0.3-0.2 0.6 0.1 1.3 0.1 2 0.2z"></path><path fill="#aaa280" d="m28.6 25.6h0.1c-0.1 0.4-0.3 0.8-0.6 1.1-0.2 0.3-0.4 0.5-0.7 0.6v-0.1c0.4-0.5 0.9-1 1.2-1.6z"></path><path fill="#b1a260" d="m26.3 26.9c0 0 0.1-0.1 0.2-0.1 0.2 0.3 0.5 0.4 0.9 0.4v0.1c-0.3-0.1-0.7 0-1 0.1-0.5 0.6-1 1-1.6 1.3-0.1 0.1-0.2 0-0.2 0 0.7-0.6 1.3-1.1 2-1.7-0.1-0.1-0.2-0.1-0.3-0.1z"></path><path fill="#c1c1c2" d="m2.5 26.4c0.4 0.7 0.8 1.4 1.3 2-0.8-0.5-1.2-1.1-1.3-2z"></path><path fill="#a3a2a3" d="m5.1 27.4h0.4v0.3h0.4c0 0.3 0 0.5-0.1 0.8-0.3 0-0.7 0-1 0-0.1-0.4 0-0.8 0.3-1.1z"></path><path fill="#b79b33" d="m24.8 26.6h0.1c0 0.1-0.1 0.2-0.2 0.3 0.4 0 0.5 0.2 0.2 0.4 0.1 0.4 0.3 0.4 0.6 0.1-0.2-0.1-0.2-0.1 0-0.2 0.1 0 0.2 0.1 0.3 0.1-0.5 0.6-1.2 1-1.9 1.3-0.3 0.1-0.5 0.2-0.8 0.4l-0.2-0.1c0.3-0.1 0.4-0.4 0.2-0.6-0.3 0.1-0.6 0.2-0.9 0.2 0.4-0.2 0.8-0.4 1.1-0.6 0.2 0 0.4 0 0.6 0-0.2-0.1-0.3-0.3-0.1-0.5 0.3-0.3 0.6-0.6 1-0.8z"></path><path fill="#a49865" d="m26.3 26.9c0.1 0 0.2 0 0.3 0.1-0.7 0.6-1.3 1.1-2 1.7 0 0 0.1 0.1 0.2 0-0.6 0.3-1.1 0.6-1.7 1-0.2 0.2-0.3 0.4-0.2 0.7h-0.2c0-0.3 0.1-0.6 0.3-0.8-0.1 0-0.2-0.1-0.3-0.2 0.4-0.2 0.8-0.4 1.2-0.8 0.7-0.3 1.4-0.7 1.9-1.3l0.5-0.4z"></path><path fill="#baa748" d="m30.5 24.9c0 0.3-0.1 0.5-0.2 0.7l0.1 0.2c0.1-0.1 0.2-0.2 0.4-0.2-0.1 0.2-0.2 0.5-0.3 0.8-0.3 0-0.4 0.2-0.5 0.5-0.5 0.7-1 1.2-1.6 1.7-0.1 0.1-0.3 0.2-0.3 0.4-0.4 0.1-0.7 0.4-0.9 0.8-0.1 0-0.2 0.1-0.4 0.1-0.2-0.1-0.2-0.2-0.1-0.4 0.4-0.2 0.7-0.4 0.9-0.8 0.4-0.4 0.9-0.9 1.3-1.4 0.3-0.5 0.6-0.9 1-1.3 0.1-0.4 0.4-0.8 0.6-1.1z"></path><path fill="#a3a19f" d="m27.4 27.3c0 0.1-0.1 0.2-0.2 0.2-0.2-0.1-0.3-0.1-0.5 0 0.3 0.2 0.3 0.4 0 0.6 0.2 0.1 0.3 0.3 0.4 0.5 0 0.2 0.3 0.1 0.7-0.2 0.1-0.2 0.2-0.3 0.2-0.4 0.3-0.3 0.6-0.5 0.9-0.7-0.4 0.5-0.9 1-1.3 1.4-1 0.8-2.1 1.5-3.1 2.2-0.6 0.1-1.1 0.3-1.6 0.7h-0.3c-0.5 0.1-0.9 0.1-1.3-0.2 0.2-0.1 0.3-0.3 0.2-0.5 0.6 0 1-0.2 1.4-0.5-0.1-0.3 0-0.5 0.2-0.7 0.6-0.4 1.1-0.7 1.7-1 0.6-0.3 1.1-0.7 1.6-1.3 0.3-0.1 0.7-0.2 1-0.1z"></path><path fill="#646364" d="m29.9 27.7c-0.1 0.1-0.1 0.2-0.1 0.4-0.3 0.2-0.5 0.3-0.7 0.5-0.2 0.3-0.4 0.5-0.6 0.7-0.2 0.2-0.5 0.4-0.8 0.6 0.7-0.8 1.4-1.5 2.2-2.2z"></path><path fill="#9d9c9e" d="m31.3 29.2c0.1 0.3 0 0.4-0.3 0.4 0-0.1-0.1-0.2-0.3-0.3-0.4 0.5-0.7 0.4-0.7-0.3-0.1-0.1-0.2-0.2-0.3-0.3-0.2 0.2-0.4 0.3-0.6 0.3v-0.4c0.2-0.2 0.4-0.3 0.7-0.5 0 0 0.1-0.1 0.1-0.1 0.2 0.1 0.4 0.3 0.5 0.6 0.3 0 0.5 0.1 0.7 0.1-0.1 0.2-0.2 0.3-0.2 0.5h0.4z"></path><path fill="#7d7c7d" d="m30.5 26.9c0.1 0.2 0.1 0.3 0.3 0.4-0.1 0.1-0.2 0.1-0.4 0.1v0.8c0.4 0 0.7 0 1-0.1 0.1-0.2 0.1-0.5 0-0.7-0.1 0-0.2 0-0.3-0.1 0.2-0.2 0.3-0.2 0.5 0 0.1 0.3 0.3 0.7 0.5 1-0.2 0.4-0.4 0.7-0.8 0.9h-0.4c0-0.2 0.1-0.3 0.2-0.5-0.2 0-0.4-0.1-0.7-0.1-0.1-0.3-0.3-0.5-0.5-0.6 0 0-0.1 0.1-0.1 0.1 0-0.2 0-0.3 0.1-0.4 0.1-0.3 0.3-0.6 0.6-0.8z"></path><path fill="#b3b2b3" d="m3.9 28.4c0.2 0.3 0.4 0.7 0.7 1-0.5-0.2-0.7-0.5-0.7-1z"></path><path fill="#9f8e4b" d="m9.2 23.6c-0.1 0.1-0.2 0.1-0.4 0.2-0.1 0.1-0.1 0.3 0 0.4 1 1.5 2.3 2.6 3.9 3.4 0.6 0.3 1.2 0.6 1.9 0.9 0.5 0.2 1 0.3 1.5 0.3 1.2 0.1 2.3 0.1 3.4-0.1 0.5 0 0.9-0.1 1.3-0.3-0.4-0.1-0.8-0.1-1.2 0 0.2-0.2 0.4-0.2 0.6-0.2 0.4-0.1 0.9-0.2 1.3-0.4-0.2 0.2-0.4 0.3-0.6 0.4 1.4-0.3 2.7-0.9 3.8-1.8 0.2 0 0.3 0 0.1 0.2-0.4 0.2-0.7 0.5-1 0.8-1.6 1-3.3 1.6-5.2 1.8-0.8 0-1.6 0-2.5-0.1-0.7-0.1-1.4-0.2-2.1-0.5-0.9-0.4-1.7-0.9-2.6-1.3-1.3-1-2.3-2.1-3.1-3.5 0.3-0.1 0.6-0.2 0.9-0.2z"></path><path fill="#b29c45" d="m12.3 26.5c0.2 0.1 0.5 0.1 0.7 0.1-0.1 0.3-0.1 0.6 0 0.9 0.6 0.2 1.1 0.4 1.7 0.6 0.2 0.1 0.5 0.1 0.8 0.2 1.1 0.3 2.2 0.4 3.3 0.2v-0.1h0.8c0.4-0.1 0.8-0.1 1.2 0-0.4 0.2-0.8 0.3-1.3 0.3-1.1 0.2-2.2 0.2-3.4 0.1-0.5 0-1-0.1-1.5-0.3-0.7-0.3-1.3-0.6-1.9-0.9 0.1-0.2 0.1-0.5 0-0.8-0.2 0-0.3-0.2-0.4-0.3z"></path><path fill="#a3945b" d="m15.5 28.3c1.1 0.2 2.2 0.2 3.3 0.2-1.1 0.2-2.2 0.1-3.3-0.2z"></path><path fill="#59542c" d="m28.4 28.6c0 0.3-0.1 0.4-0.3 0.4 0-0.2 0.2-0.3 0.3-0.4z"></path><path fill="#9c8f55" d="m10 28.5c0 0.2 0.1 0.4 0.3 0.6-0.4-0.1-0.5-0.3-0.3-0.6z"></path><path fill="#aa902f" d="m23.8 27.4c-0.2 0.2-0.1 0.4 0.1 0.5-0.2 0-0.4 0-0.6 0-0.3 0.2-0.7 0.4-1.1 0.6 0.3 0 0.6-0.1 0.9-0.2 0.2 0.2 0.1 0.5-0.2 0.6l0.2 0.1c0.3-0.2 0.5-0.3 0.8-0.4-0.4 0.4-0.8 0.6-1.2 0.8 0.1 0.1 0.2 0.2 0.3 0.2-0.2 0.2-0.3 0.5-0.3 0.8-0.6 0.2-1.2 0.4-1.8 0.6-0.5 0.1-0.9 0.1-1.4 0.1 0.2-0.2 0.4-0.2 0.7-0.3l-0.3-0.1c-0.4-0.4-0.7-0.8-1.2-1.1 0.2-0.1 0.3-0.2 0.5-0.2-0.2-0.2-0.4-0.2-0.6-0.2 1.9-0.2 3.6-0.8 5.2-1.8z"></path><path fill="#b5a455" d="m10.3 29.1c0.6 0.2 1.2 0.5 1.8 0.9-0.4-0.2-0.9-0.4-1.4-0.5-0.1-0.1-0.3-0.3-0.4-0.4z"></path><path fill="#1c1b17" d="m32.7 21.9v0.2c0 0.2-0.1 0.4-0.1 0.6-0.2 0.2-0.2 0.4 0 0.6-0.2 0.2-0.3 0.4-0.3 0.6-0.4 0.3-0.7 0.7-0.7 1.2-0.4 0.6-0.7 1.1-0.9 1.7-0.1 0-0.2 0.1-0.2 0.1-0.3 0.2-0.5 0.5-0.6 0.8-0.8 0.7-1.5 1.4-2.2 2.2l-0.2 0.1c-0.3 0.3-0.7 0.5-1 0.8-0.1-0.1-0.2 0-0.2 0.1-0.2 0-0.3 0-0.5-0.1 0.2 0 0.2-0.1 0.2-0.3l0.8-0.6c0.2 0 0.3-0.1 0.4-0.1 0.3-0.2 0.6-0.5 0.9-0.8 0.2 0 0.3-0.1 0.3-0.4 0.6-0.5 1.1-1 1.6-1.7 0.1-0.3 0.2-0.5 0.5-0.5 0.1-0.3 0.2-0.6 0.3-0.8h0.1c0.3-0.5 0.5-0.9 0.8-1.4 0.1-0.6 0.3-1.1 0.5-1.6 0.2-0.2 0.3-0.4 0.3-0.6l0.2-0.1z"></path><path fill="#635b2d" d="m28.1 29c-0.3 0.3-0.6 0.6-0.9 0.8 0.2-0.4 0.5-0.7 0.9-0.8z"></path><path fill="#5d5b46" d="m7.8 28.7c0.1 0 0.2 0 0.4 0.1 0.4 0.5 0.8 0.9 1.3 1.2-0.7-0.2-1.3-0.7-1.7-1.3z"></path><path fill="#c7ac42" d="m11.4 27.3c0.9 0.4 1.7 0.9 2.6 1.3 0.7 0.3 1.4 0.4 2.1 0.5 0.1 0.1 0.2 0.1 0.3 0.2-0.2 0-0.3 0.1-0.4 0.2 0.2 0 0.4 0.1 0.5 0.1 0.4 0.4 0.6 0.9 0.7 1.4 0.3 0 0.6 0 1 0-1.3 0.1-2.6 0-3.9-0.1-0.2 0-0.5-0.1-0.7-0.2-0.2 0-0.3-0.1-0.4-0.2-0.2-0.1-0.5-0.3-0.8-0.4 0.2 0 0.4 0 0.6-0.1 0.2 0.1 0.4 0.2 0.6 0.3 0-0.2 0.1-0.4 0-0.7l-0.1 0.3c-0.1-0.1-0.3-0.2-0.4-0.2 0.1 0 0.2-0.1 0.3-0.2-0.1-0.1-0.2-0.3-0.2-0.4-0.1-0.2-0.2-0.2-0.3 0 0-0.2-0.1-0.3-0.1-0.4-0.4-0.1-0.7-0.3-0.9-0.5-0.1-0.1-0.1-0.2-0.1-0.4-0.1 0.1-0.2 0.1-0.2 0.2-0.1-0.3-0.2-0.5-0.2-0.7z"></path><path fill="#b79c37" d="m16.1 29.1c0.9 0.1 1.7 0.1 2.5 0.1 0.2 0 0.4 0 0.6 0.2-0.2 0-0.3 0.1-0.5 0.2 0.5 0.3 0.8 0.7 1.2 1.1l0.3 0.1c-0.3 0.1-0.5 0.1-0.7 0.3 0 0.1-0.1 0.1-0.2 0.1-1.3 0-2.6 0-3.9-0.1-0.4 0-0.8 0-1.1-0.2 1.3 0.1 2.6 0.2 3.9 0.1-0.4 0-0.7 0-1 0-0.1-0.5-0.3-1-0.7-1.4-0.1 0-0.3-0.1-0.5-0.1 0.1-0.1 0.2-0.2 0.4-0.2-0.1-0.1-0.2-0.1-0.3-0.2z"></path><path fill="#5a5a5a" d="m7.8 29.3c1 0.9 2.1 1.6 3.3 2.3 0.1 0.1 0.2 0.2 0.4 0.2-0.1 0.3-0.2 0.5-0.4 0.8-0.1 0.2-0.1 0.4 0 0.6 0.6 0.4 1.2 0.6 1.9 0.7l0.2 0.2c-0.2 0.2-0.4 0.2-0.7 0-1.1-0.4-2.1-0.9-3.2-1.4l-0.2-0.3c-0.4-0.1-0.7-0.3-1.1-0.4-0.1-0.1-0.2-0.3-0.2-0.4-0.6-0.4-1.1-0.8-1.6-1.4 0-0.2 0-0.5 0.2-0.7v0.7c0.4 0 0.8 0 1.1-0.1 0.2-0.5 0.1-0.8-0.5-0.8 0.1-0.1 0-0.2-0.1-0.3-0.1 0.1-0.1 0.2-0.2 0.3-0.1-0.2-0.2-0.3-0.5-0.3l0.2-0.1c-0.3-0.2-0.3-0.4 0-0.7 0.4 0.2 0.7 0.5 0.9 1 0.1 0 0.3 0 0.5 0.1z"></path><path fill="#a4a3a4" d="m29.4 30.7c-0.2 0-0.4 0.2-0.5 0.4h-0.4c0.1-0.3 0-0.6-0.3-0.8-0.1 0.1-0.2 0.1-0.2 0.2 0.1 0.1 0.3 0.4 0.3 0.6-0.3 0.1-0.7 0.2-1 0.1l0.2-1.2 0.2-0.1c0.3-0.2 0.6-0.4 0.8-0.6 0.1 0 0.2 0 0.3 0.1 0.1-0.1 0.1-0.2 0.1-0.3h1v0.8h-1.2c0.1-0.2 0-0.3-0.1-0.4-0.1 0.6 0.2 0.9 0.8 0.8v0.4z"></path><path fill="#818181" d="m29.1 28.6v0.4c0.2 0 0.4-0.1 0.6-0.3 0.1 0.1 0.2 0.2 0.3 0.3 0 0.7 0.3 0.8 0.7 0.3 0.2 0.1 0.3 0.2 0.3 0.3-0.2 0.3-0.5 0.6-0.7 0.8 0-0.1 0-0.3-0.1-0.4-0.2 0.1-0.3 0.2-0.4 0.3l-0.4 0.4v-0.4c-0.6 0.1-0.9-0.2-0.8-0.8 0.1 0.1 0.2 0.2 0.1 0.4h1.2v-0.8h-1c0 0.1 0 0.2-0.1 0.3-0.1-0.1-0.2-0.1-0.3-0.1 0.2-0.2 0.4-0.4 0.6-0.7z"></path><path fill="#a0a0a1" d="m6.4 29.5c0-0.1 0.1-0.2 0.3-0.2 0.1-0.1 0.1-0.2 0.2-0.3 0.1 0.1 0.2 0.2 0.1 0.3 0.6 0 0.7 0.3 0.5 0.8-0.3 0.1-0.7 0.1-1.1 0.1v-0.7z"></path><path fill="#a39350" d="m12.1 30c0.1 0 0.2 0 0.3 0.1 0.3 0.1 0.6 0.3 0.8 0.4-0.5 0-0.8-0.2-1.1-0.5z"></path><path fill="#4e4d4e" d="m30.3 30.4c-0.1 0.2-0.2 0.3-0.3 0.4 0-0.3-0.1-0.4-0.2-0.5 0.1-0.1 0.2-0.2 0.4-0.3 0.1 0.1 0.1 0.3 0.1 0.4z"></path><path fill="#888" d="m27.5 30l-0.2 1.2c0.3 0.1 0.7 0 1-0.1 0-0.2-0.2-0.5-0.3-0.6 0-0.1 0.1-0.1 0.2-0.2 0.3 0.2 0.4 0.5 0.3 0.8h0.4c-0.5 0.3-0.9 0.6-1.3 1.1-0.2 0-0.4 0.1-0.7 0.3 0.2-0.3 0.5-0.5 0.7-0.6-0.2-0.1-0.3-0.2-0.5-0.1 0-0.4 0-0.8-0.1-1.3-0.2 0.1-0.3 0.2-0.5 0.3 0.3-0.3 0.7-0.5 1-0.8z"></path><path fill="#999899" d="m7.8 31.6c0-0.3 0-0.5 0.1-0.7 0.2-0.1 0.4-0.2 0.5-0.4 0.6 0.1 0.9 0.5 0.7 1.1-0.5 0.1-0.9 0.1-1.3 0z"></path><path fill="#968a5e" d="m24.5 30.9c-0.1 0.1-0.2 0.2-0.4 0.3-0.4 0.1-0.8 0.3-1.2 0.4 0.5-0.4 1-0.6 1.6-0.7z"></path><path fill="#a58f39" d="m27.6 28.7c-0.2 0.4-0.5 0.6-0.9 0.8-0.1 0.2-0.1 0.3 0.1 0.4l-0.8 0.6c-0.9 0.5-1.8 1-2.8 1.4-0.3 0.1-0.6 0.1-1 0.1 0.3-0.2 0.5-0.3 0.7-0.4 0.4-0.1 0.8-0.3 1.2-0.4 0.2-0.1 0.3-0.2 0.4-0.3 1-0.7 2.1-1.4 3.1-2.2z"></path><path fill="#8c8b89" d="m22.7 30.4h0.2c-0.4 0.3-0.8 0.5-1.4 0.5 0.1 0.2 0 0.4-0.2 0.5 0.4 0.3 0.8 0.3 1.3 0.2-0.5 0.2-0.9 0.4-1.4 0.5l-1.1 0.2h-0.8c-0.6 0.1-1.1 0-1.7 0-0.3-0.2-0.6-0.4-0.8-0.7 0.9-0.1 1.7-0.2 2.6-0.2 0.5-0.1 1-0.2 1.5-0.4 0.6-0.2 1.2-0.4 1.8-0.6z"></path><path fill="#878786" d="m25.8 31.2c-0.1 0.1-0.3 0.2-0.4 0.3 0.1 0 0.1 0.1 0.2 0.2-0.5 0.4-0.7 0.9-0.6 1.5 0.3 0 0.5 0 0.7-0.1 0 0.2-0.2 0.3-0.3 0.3-0.2 0-0.3 0.1-0.5 0.1 0-0.6 0-1.1 0-1.6-0.1-0.1-0.1-0.1-0.2-0.1-0.3-0.1-0.3-0.3 0-0.4 0.4-0.1 0.7-0.2 1.1-0.2z"></path><path fill="#7e7d77" d="m13.6 30.7c0.2 0.1 0.5 0.2 0.7 0.2 0.3 0.2 0.7 0.2 1.1 0.2 0 0.1 0.2 0.1 0.3 0.2 1.2 0.1 2.4 0 3.6-0.1 0.1 0 0.2 0 0.2-0.1 0.5 0 0.9 0 1.4-0.1-0.5 0.2-1 0.3-1.5 0.4-0.9 0-1.7 0.1-2.6 0.2 0.2 0.3 0.5 0.5 0.8 0.7 0.6 0 1.1 0.1 1.7 0-1.3 0.2-2.6 0.2-3.9 0-0.5-0.1-1-0.2-1.5-0.4 0-0.3-0.1-0.5-0.1-0.8-0.3-0.1-0.5-0.1-0.8-0.2 0.2 0 0.4-0.1 0.6-0.2z"></path><path fill="#96874c" d="m15.4 31.1c1.3 0.1 2.6 0.1 3.9 0.1-1.2 0.1-2.4 0.2-3.6 0.1-0.1-0.1-0.3-0.1-0.3-0.2z"></path><path fill="#d4d3d4" d="m30 30.8c-0.4 0.6-0.9 1.1-1.6 1.3 0.1-0.1 0.2-0.3 0.3-0.4 0.5-0.3 0.9-0.6 1.3-0.9z"></path><path fill="#a3a2a3" d="m26.9 32.5l-0.2 0.2c-0.5-0.1-1-0.2-1.6-0.1 0.3 0.2 0.5 0.3 0.7 0.5h-0.1c-0.2 0.1-0.4 0.1-0.7 0.1-0.1-0.6 0.1-1.1 0.6-1.5-0.1-0.1-0.1-0.2-0.2-0.2 0.1-0.1 0.3-0.2 0.4-0.3l0.5-0.3c0-0.1 0.1-0.2 0.2-0.1 0.2-0.1 0.3-0.2 0.5-0.3 0.1 0.5 0.1 0.9 0.1 1.3 0.2-0.1 0.3 0 0.5 0.1-0.2 0.1-0.5 0.3-0.7 0.6z"></path><path fill="#3b3a3b" d="m24.7 31.8c0.1 0 0.1 0 0.2 0.1 0 0.5 0 1 0 1.6 0.2 0 0.3-0.1 0.5-0.1-0.4 0.2-0.7 0.4-1.2 0.5 0.2-0.1 0.4-0.3 0.6-0.4 0-0.5 0-0.9-0.1-1.4h-0.3v0.6c-0.3-0.1-0.6-0.1-0.8 0 0.1 0.4 0 0.7-0.1 1.1-0.1-0.4-0.2-0.8-0.3-1.2v-0.1c0.1-0.1 0.2-0.1 0.4-0.2 0.4 0.1 0.7 0 0.8-0.5 0.1 0 0.2 0 0.3 0z"></path><path fill="#9c9c9d" d="m11.1 32.6c-0.4 0.2-0.8 0.2-1.3 0.1 0-0.1-0.1-0.2 0-0.4 0.1-0.2 0.3-0.3 0.5-0.3v-0.4h0.3c0 0.2 0.1 0.3 0.4 0.4 0.1 0.2 0.1 0.4 0.1 0.6z"></path><path fill="#908142" d="m22.6 31.6h0.3c-0.2 0.1-0.4 0.2-0.7 0.4 0.4 0 0.7 0 1-0.1-0.1 0.2-0.3 0.3-0.5 0.3-0.4 0-0.7 0.1-0.9 0.3-0.3 0-0.5 0.1-0.8 0.1l0.8-0.4c-0.2-0.1-0.4-0.1-0.6-0.1 0.5-0.1 0.9-0.3 1.4-0.5z"></path><path fill="#7b786c" d="m26 30.5c0 0.2 0 0.3-0.2 0.3 0.2 0.1 0.3 0.1 0.5 0.1l-0.5 0.3c-0.4 0-0.7 0.1-1.1 0.2-0.3 0.1-0.3 0.3 0 0.4-0.1 0-0.2 0-0.3 0-0.1 0.5-0.4 0.6-0.8 0.5 0.1-0.1 0.2-0.1 0.4-0.1v-0.3h-0.8c1-0.4 1.9-0.9 2.8-1.4z"></path><path fill="#a28e3e" d="m21.2 32.1c0.2 0 0.4 0 0.6 0.1l-0.8 0.4c-0.4 0-0.8 0-1.1 0.2h-0.7c-1 0-2 0-3.1-0.1 1.2-0.1 2.4-0.2 3.6-0.2 0.2 0 0.3-0.1 0.4-0.2l1.1-0.2z"></path><path fill="#837845" d="m13.9 31.9c0.5 0.2 1 0.3 1.5 0.4-0.2 0-0.3 0.1-0.4 0.3-0.4-0.1-0.7-0.1-1.1-0.3 0 0-0.1-0.1-0.1-0.2l0.1-0.2z"></path><path fill="#9e9d9c" d="m23.2 31.9h0.8v0.3c-0.2 0-0.3 0-0.4 0.1-0.2 0.1-0.3 0.1-0.4 0.2-0.2 0-0.4-0.1-0.5-0.3 0.2 0 0.4-0.1 0.5-0.3z"></path><path fill="#a7a6a7" d="m28.4 32.1c-0.1 0.2-0.3 0.3-0.6 0.4 0.2-0.3 0.3-0.4 0.6-0.4z"></path><path fill="#9e8e50" d="m15.4 32.3c1.3 0.2 2.6 0.2 3.9 0h0.8c-0.1 0.1-0.2 0.2-0.4 0.2-1.2 0-2.4 0.1-3.6 0.2-0.2 0-0.5-0.1-0.7-0.1h-0.4c0.1-0.2 0.2-0.3 0.4-0.3z"></path><path fill="#3d3a2e" d="m21.8 32.5c0.1-0.1 0.2 0 0.3 0-0.2 0.2-0.4 0.3-0.7 0.3-0.5-0.1-1-0.1-1.5 0 0.3-0.2 0.7-0.2 1.1-0.2 0.3 0 0.5-0.1 0.8-0.1z"></path><path fill="#737273" d="m26.7 32.7c-0.3 0.1-0.6 0.3-0.9 0.4-0.2-0.2-0.4-0.3-0.7-0.5 0.6-0.1 1.1 0 1.6 0.1z"></path><path fill="#565029" d="m15.4 32.6c0.2 0 0.5 0.1 0.7 0.1 1.1 0.1 2.1 0.1 3.1 0.1-1.2 0.1-2.4 0.1-3.6-0.1-0.1 0-0.2-0.1-0.2-0.1z"></path><path fill="#9c9c9c" d="m27.5 32.7c-0.2 0.3-0.5 0.4-0.9 0.5 0.2-0.3 0.5-0.4 0.9-0.5z"></path><path fill="#676767" d="m15.9 33.1c1.1 0.1 2.1 0.2 3.2 0.1l-2.6 0.3c-0.8-0.1-1.5-0.2-2.3-0.5l0.4-0.1c0.4 0.2 0.9 0.2 1.3 0.2z"></path><path fill="#151515" d="m29.8 30.3c0.1 0.1 0.2 0.2 0.2 0.5-0.4 0.3-0.8 0.6-1.3 0.9-0.1 0.1-0.2 0.3-0.3 0.4-0.3 0-0.4 0.1-0.6 0.4l-0.3 0.2c-0.4 0.1-0.7 0.2-0.9 0.5h-0.1c-0.4 0.1-0.8 0.3-1 0.6-0.6 0-1 0.2-1.4 0.6-0.7 0.2-1.5 0.3-2.2 0.5-0.4 0.1-0.7 0.1-1 0.3-0.1-0.1-0.2 0-0.3 0.1h-1.3c-1.2 0-2.3 0-3.5-0.1 0.4-0.1 0.7-0.2 1.1-0.2 0.6 0.2 1.2 0.2 1.7 0 0.2 0.1 0.3 0 0.5-0.1 0.4 0.2 0.7 0.1 1-0.2 0.5 0.2 1 0.1 1.4-0.1h0.3c0.8-0.2 1.6-0.4 2.4-0.7 0.5-0.1 0.8-0.3 1.2-0.5 0.1 0 0.3-0.1 0.3-0.3h0.1c0.3-0.1 0.6-0.3 0.9-0.4l0.2-0.2c0.3-0.2 0.5-0.3 0.7-0.3 0.4-0.5 0.8-0.8 1.3-1.1 0.1-0.2 0.3-0.4 0.5-0.4l0.4-0.4z"></path><path fill="#575657" d="m12.7 32.8c0.2 0.1 0.5 0.2 0.6 0.4-0.1 0.2-0.3 0.3-0.4 0.4-1 0-1-0.3-0.2-0.8z"></path><path fill="#575757" d="m21.5 34.6c-0.4 0.2-0.9 0.3-1.4 0.1 0.3-0.2 0.5-0.5 0.5-0.9-0.3 0-0.6 0-1-0.1-0.2 0.2-0.5 0.1-0.8-0.1 1.1-0.1 2.1-0.3 3.1-0.5v0.6c-0.3-0.1-0.6-0.2-0.9-0.2 0 0.3-0.1 0.7-0.2 1 0.2 0 0.5 0.1 0.7 0.1z"></path><path fill="#707070" d="m22.7 32.2c0.1 0.2 0.3 0.3 0.5 0.3v0.1c-0.2-0.1-0.5 0-0.6 0.2l0.2 0.2c-0.2 1.2-0.3 1.2-0.4 0-0.3 0-0.4 0.1-0.2 0.4 0 0.2-0.1 0.4-0.2 0.6-0.1-0.1-0.3-0.2-0.5-0.2 0.1 0.2 0 0.3-0.1 0.5-0.1-0.2-0.1-0.4-0.1-0.6-0.2 0.5 0 0.8 0.5 0.9h-0.3c-0.2 0-0.5-0.1-0.7-0.1 0.1-0.3 0.2-0.7 0.2-1 0.3 0 0.6 0.1 0.9 0.2v-0.6c-1 0.2-2 0.4-3.1 0.5 0.3 0.2 0.5 0.3 0.8 0.1 0.2 0.2 0.2 0.4 0 0.6 0-0.1-0.2-0.2-0.3-0.2 0 0.3-0.1 0.6-0.2 0.8-0.2 0.1-0.3 0.2-0.5 0.1 0-0.3 0.1-0.6 0.2-0.9l-0.1-0.3c-0.1 0.4-0.2 0.7-0.5 0.9 0-0.2-0.1-0.4-0.1-0.6l-0.5 0.6c-0.1-0.4 0.1-0.7 0.5-0.9-0.6-0.1-1.1-0.2-1.6-0.3l2.6-0.3c0.3 0.1 0.6 0 0.9 0 0.5-0.1 1-0.3 1.4-0.4 0.3 0 0.5-0.1 0.7-0.3-0.1 0-0.2-0.1-0.3 0 0.2-0.2 0.5-0.3 0.9-0.3z"></path><path fill="#808081" d="m26.5 33.2c-0.3 0.3-0.7 0.5-1 0.6 0.2-0.3 0.6-0.5 1-0.6z"></path><path fill="#cdcdce" d="m7.9 32.3c1 0.7 2 1.2 3 1.7-1-0.2-1.8-0.6-2.5-1.2-0.1 0.1-0.2 0.1-0.2 0.2-0.1-0.2-0.1-0.4-0.3-0.7z"></path><path fill="#3d3c3d" d="m13.1 32.3c0.2 0.1 0.4 0.2 0.6 0.3 0.8 0.1 1.5 0.3 2.2 0.5-0.4 0-0.9 0-1.3-0.2l-0.4 0.1c0.8 0.3 1.5 0.4 2.3 0.5 0.5 0.1 1 0.2 1.6 0.3-0.4 0.2-0.6 0.5-0.5 0.9l0.5-0.6c0 0.2 0.1 0.4 0.1 0.6 0.3-0.2 0.4-0.5 0.5-0.9l0.1 0.3c-0.1 0.3-0.2 0.6-0.2 0.9-0.5 0.2-1.1 0.2-1.7 0 0 0-0.1-0.1-0.1-0.2-0.2 0.1-0.3 0.1-0.5 0.1-0.7-0.2-1.4-0.3-2.2-0.4 0.2 0 0.3 0 0.5-0.1 0.3 0.1 0.6 0.1 0.9 0.1 0-0.5 0.2-0.6 0.4-0.1 0.3-0.1 0.4-0.3 0.2-0.6l-0.2 0.1c-0.1-0.2-0.2-0.2-0.4-0.2-0.2 0.3-0.3 0.4-0.5 0.6l-0.2-0.2c0.1-0.1 0.2-0.3 0.3-0.5l-0.1-0.1c-0.1 0-0.2 0.1-0.3 0.2 0-0.1-0.1-0.1-0.1-0.1-0.2 0.1-0.4 0.2-0.6 0.2 0.5-0.5 0.4-0.7-0.3-0.6 0.1 0.1 0.1 0.2 0 0.3-0.1-0.3-0.2-0.4-0.4-0.3-0.1-0.2-0.4-0.3-0.6-0.4 0-0.1 0.1-0.1 0.2-0.2-0.1 0-0.3-0.1-0.4-0.1 0.2-0.2 0.4-0.2 0.6-0.2z"></path><path fill="#5f5e5f" d="m14.6 34.4c-0.2-0.1-0.4-0.2-0.6-0.3 0.3-0.1 0.5-0.2 0.7-0.4 0.1-0.1 0.2-0.2 0.3-0.2l0.1 0.1c-0.1 0.2-0.2 0.4-0.3 0.5l0.2 0.2c0.2-0.2 0.3-0.3 0.5-0.6 0.2 0 0.3 0 0.4 0.2l0.2-0.1c0.2 0.3 0.1 0.5-0.2 0.6-0.2-0.5-0.4-0.4-0.4 0.1-0.3 0-0.6 0-0.9-0.1z"></path><path fill="#5f5f5f" d="m24.2 33.9c-0.8 0.3-1.6 0.5-2.4 0.7-0.5-0.1-0.7-0.4-0.5-0.9 0 0.2 0 0.4 0.1 0.6 0.1-0.2 0.2-0.3 0.1-0.5 0.2 0 0.4 0.1 0.5 0.2 0.1-0.2 0.2-0.4 0.2-0.6-0.2-0.3-0.1-0.4 0.2-0.4 0.1 1.2 0.2 1.2 0.4 0l-0.2-0.2c0.1-0.2 0.4-0.3 0.6-0.2 0.1 0.4 0.2 0.8 0.3 1.2 0.1-0.4 0.2-0.7 0.1-1.1 0.2-0.1 0.5-0.1 0.8 0v-0.6h0.3c0.1 0.5 0.1 0.9 0.1 1.4-0.2 0.1-0.4 0.3-0.6 0.4z"></path><path fill="#5a595a" d="m14 33.8c-0.2 0.2-0.4 0.3-0.7 0.2 0.3-0.1 0.3-0.2 0.1-0.4 0.1-0.1 0.2-0.1 0.3-0.1 0.1-0.1 0.1-0.2 0-0.3 0.7-0.1 0.8 0.1 0.3 0.6z"></path><path fill="#7e7d7e" d="m25.5 33.8c-0.5 0.2-0.9 0.4-1.4 0.6 0.4-0.4 0.8-0.6 1.4-0.6z"></path><path fill="#343434" d="m11.1 31.6c0.6 0.3 1.3 0.6 2 0.7-0.2 0-0.4 0-0.6 0.2 0.1 0 0.3 0.1 0.4 0.1-0.1 0.1-0.2 0.1-0.2 0.2-0.8 0.5-0.8 0.8 0.2 0.8 0.1-0.1 0.3-0.2 0.4-0.4 0.2-0.1 0.3 0 0.4 0.3-0.1 0-0.2 0-0.3 0.1 0.2 0.2 0.2 0.3-0.1 0.4 0.3 0.1 0.5 0 0.7-0.2 0.2 0 0.4-0.1 0.6-0.2 0 0 0.1 0 0.1 0.1-0.2 0.2-0.4 0.3-0.7 0.4 0.2 0.1 0.4 0.2 0.6 0.3-0.2 0.1-0.3 0.1-0.5 0.1 0.8 0.1 1.5 0.2 2.2 0.4 0.2 0 0.3 0 0.5-0.1 0 0.1 0.1 0.2 0.1 0.2-0.4 0-0.7 0.1-1.1 0.2 1.2 0.1 2.3 0.1 3.5 0.1-1 0.1-1.9 0.1-2.9 0.1-0.7-0.1-1.5-0.2-2.2-0.2v-0.2c0.5 0.1 1 0 1.5-0.1-0.7-0.1-1.4-0.2-2-0.2-0.4-0.2-0.8-0.4-1.2-0.6 0.3 0.2 0.5 0.2 0.7 0l-0.2-0.2c-0.7-0.1-1.3-0.3-1.9-0.7-0.1-0.2-0.1-0.4 0-0.6 0.2-0.3 0.3-0.5 0.4-0.8-0.2 0-0.3-0.1-0.4-0.2z"></path><path fill="#5b5a5b" d="m11.6 32.2c0.4 0.1 0.6 0.2 0.8 0.4-0.1 0.1-0.3 0.1-0.5 0 0.1 0.2 0.1 0.3 0.1 0.5-0.2 0.1-0.4 0-0.6-0.1 0.2-0.1 0.2-0.3 0-0.5 0.1-0.1 0.2-0.2 0.2-0.3z"></path><path fill="#b3b2b3" d="m11.3 34.1c0.3 0.1 0.5 0.2 0.8 0.3v0.1c-0.4 0-0.6-0.1-0.8-0.4z"></path><path fill="#898889" d="m19.6 33.7c0.4 0.1 0.7 0.1 1 0.1 0 0.4-0.2 0.7-0.5 0.9-0.2 0.1-0.3 0.1-0.5 0.1v-0.5c0.2-0.2 0.2-0.4 0-0.6z"></path><path fill="#5c5b5c" d="m12.1 34.4c0.5 0.1 1 0.2 1.5 0.4 0 0 0.1 0.1 0.1 0.1l-0.5-0.1c-0.4-0.1-0.7-0.2-1.1-0.3v-0.1z"></path><path fill="#6b6b6b" d="m16.6 33.8c0.1 0.1 0.3 0.1 0.4 0.2 0.2-0.1 0.3-0.1 0.5 0-0.1 0.5-0.5 0.7-1 0.7 0-0.3 0-0.6 0.1-0.9z"></path><path fill="#3b3a3b" d="m19.6 34.3v0.5c0.2 0 0.3 0 0.5-0.1-0.3 0.3-0.6 0.4-1 0.2 0.1-0.2 0.2-0.5 0.2-0.8 0.1 0 0.3 0.1 0.3 0.2z"></path><path fill="#ababac" d="m13.2 34.8l0.5 0.1c0.2 0 0.4 0 0.5 0.1v0.2c-0.3-0.1-0.6-0.1-0.9-0.2 0-0.1-0.1-0.1-0.1-0.2z"></path><path fill="#595859" d="m21.9 34.9c-0.3 0.2-0.7 0.3-1 0.3 0.3-0.2 0.6-0.2 1-0.3z"></path><path fill="#b4b3b4" d="m24.1 34.4c-1.1 0.5-2.2 0.8-3.5 0.9 0.1-0.1 0.2-0.2 0.3-0.1 0.3 0 0.7-0.1 1-0.3 0.7-0.2 1.5-0.3 2.2-0.5z"></path><path fill="#afaeaf" d="m19.3 35.3h1.3c-1.3 0.3-2.7 0.4-4.1 0.3-0.1-0.1-0.1-0.1-0.1-0.2 1 0 1.9 0 2.9-0.1z"></path></svg>