<?xml version="1.0"?><svg xmlns="http://www.w3.org/2000/svg" width="36" height="36" shape-rendering="geometricPrecision" text-rendering="geometricPrecision" image-rendering="optimizeQuality" fill-rule="evenodd" clip-rule="evenodd" viewBox="0 0 36 36"><path fill="#e4334e" d="m0 0h12.9c0 0.1 0 0.3 0 0.5 0 0.1 0 0.2-0.2 0.3 0 0.2 0.1 0.3 0.2 0.5 0 0.1 0 0.1-0.1 0.2-0.1-0.1-0.2-0.1-0.3-0.1 0 0.5 0 1 0 1.5-0.2 0.2-0.3 0.4-0.4 0.7l-0.4 0c0.1 0.2 0.1 0.3 0.1 0.4-0.1 0-0.2 0.1-0.2 0.3l-0.1-0.2c-0.1 0.1-0.3 0.2-0.5 0.3 0.2 0 0.3 0 0.5 0-0.2 0.4-0.4 0.9-0.7 1.3-0.1 0-0.3 0.1-0.4 0.1 0 0.1 0.1 0.1 0.1 0 0.1 0.3 0 0.5-0.2 0.7-0.1-0.1-0.2-0.1-0.3 0 0.1 0.2 0.1 0.4 0.1 0.6-0.3 0.5-0.6 1-0.8 1.5h-0.3v0.5c0.1 0 0.2 0 0.3 0.1-0.4 0.1-0.6 0.4-0.7 0.8-0.2 0-0.4 0-0.6 0.1 0.1 0.1 0.2 0.1 0.3 0.2 0 0.1 0 0.2-0.1 0.2-0.1 0.1-0.2 0.1-0.3-0.1-0.2 0.1-0.5 0.3-0.7 0.4v-0.5c-0.3 0-0.5 0-0.7 0l0.1-0.1c-0.1-0.1-0.2-0.2-0.3-0.3-0.1 0.1-0.2 0.1-0.4 0.1-0.5 0-1 0-1.5 0-0.1-0.1-0.2-0.3-0.2-0.5l0.2-2.2-0.3-0.2c-0.4 0-0.8 0-1.2 0.1 0-0.6-0.1-1.1-0.2-1.6-0.4 0.1-0.8 0.1-1.2 0.1-0.1-0.4-0.1-0.8-0.2-1.2 0.1-0.5 0.1-1.1 0.1-1.7-0.5 0-1 0-1.4 0v-2.8z"></path><path fill="#e43538" d="m23.3 0h5.3c0.2 0.3 0.5 0.6 0.9 0.8 0.1 0.1 0.1 0.2 0 0.4 0.2 0 0.3 0.1 0.5 0.3 0 0.2 0 0.3-0.2 0.4 0.2 0 0.3 0 0.3-0.1 0.5 0.8 1 1.7 1.5 2.4 0 0.1-0.1 0.1-0.1 0.1-0.4-0.5-0.7-0.8-1.2-1-0.3-0.4-0.5-0.8-0.7-1.2-0.1 0.1-0.1 0.2-0.2 0.3-0.2-0.2-0.4-0.4-0.5-0.6-0.1 0.1-0.1 0.2-0.1 0.2 0.4 0.4 0.8 0.8 1.1 1.1 0.3 0.5 0.6 1 1 1.5 0 0.1 0 0.2-0.1 0.3-0.6-0.7-1.3-1.4-2-2l0-0.1c-0.1-0.1-0.2-0.1-0.3-0.2 0-0.2-0.1-0.4-0.2-0.5-0.1 0.2-0.1 0.4-0.3 0.5 0.4 0.3 0.8 0.6 1.1 0.9 0 0-0.1 0.1-0.1 0.1 0.5 0.8 0.9 1.5 1.3 2.3-0.1 0.3 0 0.5 0.3 0.5 0.3 0.4 0.3 0.6-0.1 0.8-0.1 0-0.2 0-0.3 0-0.3-0.2-0.5-0.3-0.6-0.5 0.1-0.1 0.2-0.1 0.2-0.2-0.1-0.2-0.3-0.4-0.4-0.7-0.1 0.1-0.2 0.1-0.1 0-0.1-0.2-0.1-0.3-0.1-0.4-0.3-0.4-0.6-0.7-0.8-1-0.1-0.1-0.2-0.1-0.4 0-0.2-0.2-0.3-0.2-0.3 0.1 0.1 0.5 0.4 0.8 0.8 1 0 0.2 0 0.3-0.2 0.4l-0.4-0.4 0.1-0.1c-0.3-0.4-0.7-0.7-1.1-0.9l-0.1 0c0 0.1 0.1 0.2 0.2 0.3 0 0.3-0.1 0.7-0.2 1-0.1-0.1-0.2-0.1-0.3 0-0.1-0.1-0.1-0.2-0.2-0.4 0 0-0.1-0.1-0.2 0-0.1 0.1 0 0.2 0 0.3-0.2 0.1-0.2 0.3-0.1 0.5-0.2 0.5-0.2 1-0.1 1.5-0.2 0-0.3 0.1-0.2 0.2-0.3 0.1-0.5 0.2-0.7 0.3v-0.1c0-0.1-0.1-0.3-0.2-0.4 0-0.2 0-0.3-0.1-0.4 0.2-0.2 0.2-0.3 0-0.5 0.1-0.4 0.1-0.7 0.1-1.1 0 0.6 0.1 1.1 0.3 1.6 0.1 0.1 0.3 0.2 0.4 0.3 0-0.1 0.1-0.2 0.2-0.3l-0.1-0.1c0-0.5-0.1-0.8-0.4-1.1l-0.1 0.3c0-0.6-0.2-1.1-0.8-1.5 0.1 0 0.1-0.1 0.1-0.1-0.2-0.2-0.2-0.5-0.1-0.7 0.2 0.3 0.3 0.6 0.4 0.9 0.2 0.1 0.3 0.2 0.4 0.4l0.1-0.4 0.1 0.5c0.4 0.5 0.6 0.4 0.4-0.3 0.1-0.5 0.2-1 0.3-1.5-0.1-0.2-0.2-0.4-0.4-0.5 0 0.4-0.1 0.8-0.3 1.1 0.3 0.2 0.3 0.4 0 0.5-0.1-0.3-0.2-0.3-0.2 0.1-0.1-0.2 0-0.4 0.1-0.6-0.4 0-0.4-0.1-0.1-0.3l-0.2-0.1c-0.3 0.5-0.5 0.5-0.6-0.1 0.1-0.8 0.3-1.5 0.4-2.2l-0.3-0.6c-0.4 0.5-0.5 0.5-0.4-0.1 0-0.3-0.1-0.5-0.2-0.7 0 0.2-0.1 0.4-0.3 0.6 0.2 0.1 0.2 0.3 0.1 0.5 0.2 0.1 0.3 0.2 0.1 0.4-0.1-0.1-0.1-0.2-0.1-0.3h-0.2c0 0.1 0 0.3-0.1 0.4-0.2-0.3-0.3-0.6-0.3-0.9 0.1-0.2 0.2-0.3 0.3-0.5-0.1-0.1-0.1-0.3 0-0.4z"></path><path fill="#e3333c" d="m15.8 0h7.5c-0.1 0.1-0.1 0.3 0 0.4-0.1 0.2-0.2 0.3-0.3 0.5 0 0.3 0.1 0.6 0.3 0.9 0.1-0.1 0.1-0.3 0.1-0.4h0.2c0 0.1 0 0.2 0.1 0.3 0.2-0.2 0.1-0.3-0.1-0.4 0.1-0.2 0.1-0.4-0.1-0.5 0.2-0.2 0.3-0.4 0.3-0.6 0.1 0.2 0.2 0.4 0.2 0.7-0.1 0.6 0 0.6 0.4 0.1l0.3 0.6c-0.1 0.7-0.3 1.4-0.4 2.2 0.1 0.6 0.3 0.6 0.6 0.1l0.2 0.1c-0.3 0.2-0.3 0.3 0.1 0.3-0.1 0.2-0.2 0.4-0.1 0.6 0-0.4 0.1-0.4 0.2-0.1 0.3-0.1 0.3-0.3 0-0.5 0.2-0.3 0.3-0.7 0.3-1.1 0.2 0.1 0.3 0.3 0.4 0.5-0.1 0.5-0.2 1-0.3 1.5 0.2 0.7 0 0.8-0.4 0.3l-0.1-0.5-0.1 0.4c-0.1-0.2-0.2-0.3-0.4-0.4-0.1-0.3-0.2-0.6-0.4-0.9-0.1 0.2-0.1 0.5 0.1 0.7 0 0 0 0.1-0.1 0.2 0.6 0.3 0.8 0.8 0.8 1.4l0.1-0.3c0.3 0.3 0.4 0.6 0.4 1.1l0.1 0.1c-0.1 0.1-0.2 0.2-0.2 0.3-0.1-0.1-0.3-0.2-0.4-0.3-0.2-0.5-0.3-1-0.3-1.6 0 0.4 0 0.7-0.1 1.1 0.2 0.2 0.2 0.3 0 0.5 0.1 0.1 0.1 0.2 0.1 0.4l-0.2-0.1-0.2-0.4v-0.5c-0.1 0-0.2 0-0.2-0.1-0.2-0.3-0.3-0.6-0.3-0.9-0.3 0.1-0.4 0-0.4-0.3-0.4-0.2-0.7-0.5-1-0.8-0.2-0.1-0.3 0-0.4 0-0.1-0.2-0.3-0.2-0.5-0.1 0-0.1 0-0.1 0-0.2-0.7 0-1.3 0-1.8 0.2-0.2 0-0.3 0.1-0.4 0-0.2 0-0.5 0-0.7 0-0.1-0.2-0.2-0.4-0.4-0.5-0.1 0.1-0.1 0.1 0 0.2-0.3 0.1-0.6 0.2-0.9 0.3-0.1-0.1-0.1-0.1-0.2-0.2 0-0.7 0-1.4 0.1-2.1-0.1-1-0.1-1-0.2-0.1-0.1 0-0.2 0-0.3 0 0.1-0.2 0.2-0.4 0.3-0.7-0.2 0-0.3 0-0.4 0.1 0-0.1 0-0.2 0.1-0.3l-0.3-0.3c0 0.2-0.2 0.5-0.3 0.7-0.1-0.2-0.2-0.2-0.4-0.3-0.1-0.4-0.1-0.9 0-1.3z"></path><path fill="#e13156" d="m8.2 10.5l-0.1 0.3c-0.5 0.4-1.1 0.7-1.7 1-0.2 0.1-0.4 0.1-0.6 0-0.1 0.1-0.1 0.2 0 0.3-0.2 0.3-0.4 0.4-0.6 0.5-0.1 0.2-0.1 0.4-0.1 0.6-0.1 0.2-0.2 0.4-0.3 0.6-0.1 0.1-0.2 0.1-0.3 0.1 0 0.1 0 0.2 0 0.4-0.1 0.8-0.2 1.6-0.2 2.4 0.1-0.2 0.2-0.2 0.2 0 0 0.2-0.1 0.4-0.2 0.6 0.3 0.3 0.5 0.6 0.5 1 0.2 0.1 0.3 0.1 0.4 0 0.1 0.3 0.2 0.4 0.5 0.4v0.1c-0.1 0.1-0.2 0.3-0.3 0.5 0.2 0.1 0.3 0.1 0.4-0.1 0.3 0.4 0.5 0.8 0.6 1.4 0.1 0.1 0.2 0.2 0.3 0.2 0 0.2 0 0.4-0.2 0.5l0.1 0.1c-0.1 0.1-0.2 0.2-0.3 0.2 0-0.1 0-0.2-0.1-0.3-0.1-0.1-0.1-0.1-0.2 0-0.1 0.6-0.2 1.2-0.2 1.8-0.1-0.1-0.2-0.1-0.2 0.1 0.1 0.2 0.1 0.3 0.1 0.5-0.2-0.2-0.3-0.1-0.3 0.2-0.1 0.2-0.1 0.4 0 0.5 0-0.2 0.1-0.3 0.2-0.5l0 0.3c-0.1 0.6-0.2 1.2-0.2 1.9l-0.3 0.5-0.1 1.3 0-0.3c-0.1 0.3-0.1 0.6 0 1-0.2 1.2-0.4 2.5-0.7 3.8l-0.1-1.1c0.3-1.8 0.5-3.5 0.8-5.2 0 0.2 0.1 0.1 0.2-0.1-0.1-0.2-0.2-0.3-0.2-0.5 0.3-1.5 0.6-3.1 0.7-4.7 0.1 0.1 0.1 0.1 0.1-0.1 0 0 0-0.1-0.1-0.2l0.1-0.1c0.1 0.2 0.1 0.4 0.2 0.6 0.1-0.3 0-0.7-0.1-1-0.3 0.3-0.5 0.3-0.7 0l-0.1 0.1c0-0.1 0-0.1-0.1-0.2 0.1-0.2 0.1-0.4 0.2-0.6-0.1-0.1-0.2-0.2-0.4-0.2 0.1-0.1 0.2-0.2 0.3-0.4-0.2 0.1-0.3 0.2-0.5 0.2 0.1-0.3 0.1-0.5 0-0.7-0.1 0-0.2-0.1-0.3-0.2 0 0.5 0.1 0.9 0.4 1.3l0.1-0.1c0 0.3 0 0.5 0.1 0.8l-0.1 0.1c0-0.2-0.1-0.3-0.3-0.5l0.1-0.1c-0.3-0.2-0.4-0.1-0.3 0.3 0.1-0.1 0.1-0.2 0.2 0-0.2 0.1-0.2 0.2 0 0.3-0.1 0-0.1 0.2 0 0.4-0.1 0.3-0.1 0.7-0.2 1.1-0.1 0-0.2 0-0.2 0.1 0 0.2 0 0.5 0 0.8-0.1 0.1-0.1 0.2-0.2 0.2 0-0.1 0-0.2-0.1-0.3-0.1 0.2-0.1 0.4-0.1 0.6h0.4c-0.1 1.1-0.3 2.2-0.6 3.3 0 0.2 0 0.4 0.1 0.6-0.1 0.2-0.1 0.3-0.2 0.4h-0.6v-2.9c0.2 0 0.3 0 0.3-0.1 0.1-0.5 0.1-0.9 0.2-1.3-0.2 0-0.3 0-0.5 0 0-0.5 0-1 0-1.5l-1.4 0.1c0.1-1 0.1-1.9 0.1-2.6-0.1-0.1-0.1-0.2-0.2-0.3-0.4 0-0.9 0-1.3 0v-15.9c0.4 0 0.9 0 1.3 0 0.1 0.6 0.1 1.2 0 1.7 0.1 0.4 0.1 0.8 0.2 1.2 0.4 0 0.8 0 1.2-0.1 0.1 0.5 0.2 1 0.2 1.6 0.4-0.1 0.8-0.1 1.2-0.1l0.3 0.2-0.2 2.2c0 0.2 0.1 0.4 0.2 0.5 0.5 0 1 0 1.5 0 0.2 0 0.3 0 0.4-0.1 0.1 0.1 0.2 0.2 0.3 0.3l-0.1 0.1c0.2 0 0.4 0 0.7 0v0.5c0.2-0.1 0.5-0.3 0.7-0.4 0.1 0.2 0.2 0.2 0.3 0.1z"></path><path fill="#e53636" d="m28.6 0h7.4v7.2c-0.3 0.1-0.5 0.3-0.6 0.5 0-0.2-0.1-0.2-0.3-0.1 0 0.3-0.2 0.4-0.4 0.2 0 0.2-0.1 0.2-0.3 0.1l0.2-0.3-0.1-0.1c-0.2 0.1-0.3 0.3-0.4 0.5-0.4-0.1-0.4-0.2 0-0.2 0-0.2 0.1-0.4 0.2-0.6-0.1 0-0.3 0.1-0.5 0.3l0-0.1c0.2-0.4 0.4-0.7 0.7-1l0-0.1c-0.3 0.2-0.6 0.5-0.8 0.8-0.1 0.1-0.2 0.1-0.3 0.1v-0.3h-0.2v0.3c-0.2 0-0.4 0.1-0.5 0.2l-0.1-0.1c0.3-0.2 0.5-0.4 0.6-0.7-0.2-0.2-0.2-0.5-0.3-0.7-0.2 0.1-0.5 0.1-0.8 0l0.1-0.6c-0.1-0.2-0.3-0.3-0.5-0.3 0.1-0.1 0.2-0.1 0.2-0.2-0.2-0.1-0.4-0.3-0.4-0.5 0 0 0.1 0 0.1-0.1-0.5-0.7-1-1.6-1.5-2.4 0 0.1-0.1 0.1-0.3 0.1 0.2-0.1 0.2-0.2 0.2-0.4-0.2-0.2-0.3-0.3-0.5-0.3 0.1-0.2 0.1-0.3 0-0.4-0.4-0.2-0.7-0.5-0.9-0.8z"></path><path fill="#e23241" d="m12.9 0h2.9c-0.1 0.4-0.1 0.9 0 1.3 0.2 0.1 0.3 0.1 0.4 0.3 0.1-0.2 0.3-0.5 0.3-0.7l0.3 0.3c-0.1 0.1-0.1 0.2-0.1 0.3 0.1-0.1 0.2-0.1 0.4-0.1-0.1 0.3-0.2 0.5-0.3 0.7 0.1 0 0.2 0 0.3 0 0.1-0.9 0.1-0.9 0.2 0.1-0.1 0.7-0.1 1.4-0.1 2.1 0.1 0.1 0.1 0.1 0.2 0.2 0.3-0.1 0.6-0.2 0.9-0.3-0.1-0.1-0.1-0.1 0-0.2 0.2 0.1 0.3 0.3 0.4 0.5-0.2 0-0.2 0-0.1 0.2-0.3 0-0.5 0-0.7 0v-0.2c-0.2-0.1-0.4 0-0.5 0.1 0.2 0.2 0.2 0.4 0.3 0.7-0.2 0-0.4 0-0.5 0.1-0.1 0-0.2 0-0.2 0-0.3 0.3-0.5 0.5-0.8 0.7-0.2 0.1-0.3 0.1-0.4 0.1v0.2c-0.2 0-0.3 0-0.5 0.1-0.1 0-0.2 0-0.3 0.1 0-0.1-0.1-0.1-0.2-0.2-0.1 0.2-0.2 0.3-0.3 0.5-0.1-0.7-0.3-1.4-0.6-2l0 0.6c-0.1 0.2-0.2 0.2-0.4 0.2 0-0.3 0.1-0.3 0.2-0.1 0-0.4-0.1-0.4-0.3 0-0.2 0.1-0.3 0.1-0.5 0.1 0.1-0.3 0.1-0.7 0.1-1.1-0.1 0.1-0.2 0.2-0.3 0.2 0-0.2-0.1-0.4-0.1-0.6 0.1-0.2 0.1-0.4 0-0.6-0.1 0.2-0.2 0.5-0.1 0.7-0.2 0-0.5 0-0.7-0.1-0.1 0-0.1-0.1 0-0.2 0-0.1 0-0.2-0.1-0.4l0.4 0c0.1-0.3 0.2-0.5 0.4-0.7 0-0.5 0-1 0-1.5 0.1 0 0.2 0 0.3 0.1 0.1-0.1 0.1-0.1 0.1-0.2-0.1-0.2-0.2-0.3-0.2-0.5 0.2-0.1 0.2-0.2 0.2-0.3 0-0.2 0-0.4 0-0.5z"></path><path fill="#e33536" d="m31.5 4.3c0 0.2 0.2 0.4 0.4 0.5 0 0.1-0.1 0.1-0.2 0.1 0.2 0.1 0.4 0.2 0.5 0.4l-0.1 0.6c0.3 0.1 0.6 0.1 0.8 0 0.1 0.2 0.1 0.5 0.3 0.7-0.1 0.3-0.3 0.5-0.6 0.7l0.1 0.1c0.1-0.1 0.3-0.2 0.5-0.2v-0.3h0.2v0.3c0.1 0 0.2 0 0.3-0.1 0.2-0.3 0.5-0.6 0.8-0.8l0 0.1c-0.3 0.3-0.5 0.6-0.7 1l0 0.1c0.2-0.2 0.4-0.3 0.5-0.3-0.1 0.2-0.2 0.4-0.2 0.6-0.4 0-0.4 0.1 0 0.2 0.1-0.2 0.2-0.4 0.4-0.5l0.1 0.1-0.2 0.3c0.2 0.1 0.3 0.1 0.3-0.1 0.2 0.2 0.4 0.1 0.4-0.2 0.2-0.1 0.3-0.1 0.3 0.1 0.1-0.2 0.3-0.4 0.6-0.5v9.3c-0.3-0.1-0.5-0.3-0.8-0.5l-0.7-0.1 0.2-0.1c-0.4-0.4-0.7-0.7-1.2-1-0.4 0.1-0.9 0.3-1.3 0.5-0.2-0.2-0.3-0.1-0.3 0.1h-0.3c0 0.2 0.1 0.3 0.1 0.4-0.3 0-0.3 0.2-0.1 0.4 0.3 0.1 0.5 0 0.7 0 0 0.1 0.1 0.2 0.1 0.3l1.1 0.4c-0.3 0.2-0.6 0.2-0.8-0.2h-0.7c0.5-0.1 0.5-0.2 0-0.3-0.5 0-0.6 0.2-0.1 0.5 0 0 0 0.1 0 0.2-0.1-0.1-0.2-0.1-0.3-0.1-0.3 0.1-0.5 0.1-0.7 0.2 0 0.2 0.1 0.3 0.2 0.3-0.2 0.2-0.4 0.1-0.5-0.2-0.2-0.1-0.3-0.1-0.4-0.1-0.2-0.2-0.4-0.5-0.5-0.9 0-0.1 0-0.3 0.1-0.4 0 0.1 0.1 0.1 0.1 0l-0.3-0.2c0.2-0.1 0.3-0.3 0.2-0.5-0.2 0.2-0.4 0.1-0.4-0.2-0.1 0-0.1 0-0.1 0.1-0.1-0.2-0.1-0.4-0.3-0.6 0.1 0 0.1-0.1 0.2-0.1-0.1-0.1-0.1-0.3-0.1-0.4-0.1 0.2-0.1 0.2-0.2 0 0.1-0.2 0.1-0.3 0.1-0.5h-0.2v-0.2c-0.1-0.4-0.3-0.7-0.5-1-0.1 0-0.1 0-0.1-0.1 0-0.3-0.1-0.5-0.3-0.7 0-0.5-0.2-0.8-0.6-1 0.2-0.1 0.4-0.1 0.6-0.2 0.4 0.3 0.5 0.2 0.6-0.3 0.1 0.1 0.2 0 0.3-0.1 0.1-0.2 0.3-0.4 0.5-0.6-0.2-0.1-0.3-0.3-0.5-0.4 0.1-0.3 0.2-0.3 0.4-0.1l0.2-0.2 0.1 0.1c-0.2 0.1-0.2 0.3-0.2 0.4l0.1-0.1c0.1 0 0.2 0.1 0.3 0 0-0.1 0.1-0.3 0.2-0.4-0.3-0.2-0.5-0.4-0.8-0.6 0-0.1 0.1-0.2 0.2-0.2 0 0.1 0 0.2 0.1 0.3 0-0.2 0-0.4-0.1-0.5-0.1-0.1-0.1-0.2 0-0.3 0.1 0.2 0.3 0.5 0.4 0.8 0.4-0.2 0.6-0.5 0.5-0.9 0.1 0 0.2 0 0.3 0 0.4-0.2 0.4-0.4 0.1-0.8-0.3 0-0.4-0.2-0.3-0.5-0.4-0.8-0.8-1.5-1.3-2.3 0 0 0.1-0.1 0.1-0.1-0.3-0.3-0.7-0.6-1.1-0.9 0.2-0.1 0.2-0.3 0.3-0.5 0.1 0.1 0.2 0.3 0.2 0.5 0.1 0.1 0.2 0.1 0.3 0.2l0 0.1c0.7 0.6 1.4 1.3 2 2 0.1-0.1 0.1-0.2 0.1-0.3-0.4-0.5-0.7-1-1-1.5-0.3-0.3-0.7-0.7-1.1-1.1 0 0 0-0.1 0.1-0.2 0.1 0.2 0.3 0.4 0.5 0.6 0.1-0.1 0.1-0.2 0.2-0.3 0.2 0.4 0.4 0.8 0.7 1.2 0.5 0.2 0.8 0.5 1.2 1z"></path><path fill="#f0b3b2" d="m19.8 4.5c0.4-0.1 0.8 0 1.1 0-0.5 0-1 0.1-1.5 0.1v-0.1c0.1 0.1 0.2 0 0.4 0z"></path><path fill="#d2444e" d="m24.4 7.2c-0.5-1-1.2-1.7-2.1-2.3-0.5-0.1-0.9-0.3-1.4-0.4-0.3 0-0.7-0.1-1.1 0 0.5-0.2 1.1-0.2 1.8-0.2 0 0.1 0 0.1 0 0.2 0.2-0.1 0.4-0.1 0.5 0.1 0.1 0 0.2-0.1 0.4 0 0.3 0.3 0.6 0.6 1 0.8 0 0.3 0.1 0.4 0.3 0.3 0.1 0.3 0.2 0.6 0.4 0.9 0 0.1 0.1 0.1 0.2 0.1v0.5z"></path><path fill="#d53c47" d="m18.7 4.5c0.2 0 0.5 0 0.7 0v0.1c-0.4 0.1-0.7 0.2-1.1 0.4-0.1 0-0.2 0.1-0.3 0.3-0.8 0.3-1.5 0.7-2.2 1.1v-0.2c0.1 0 0.2 0 0.4-0.1 0.3-0.2 0.5-0.4 0.8-0.7 0 0 0.1 0 0.2 0 0.1-0.1 0.3-0.1 0.5-0.1-0.1-0.3-0.1-0.5-0.3-0.7 0.1-0.1 0.3-0.2 0.5-0.1v0.2c0.2 0 0.4 0 0.7 0-0.1-0.2-0.1-0.2 0.1-0.2z"></path><path fill="#e13146" d="m15.3 6.5c-0.1 0.2-0.4 0.4-0.7 0.4 0 0.1-0.1 0.2-0.1 0.3-0.1 0.1-0.3 0.2-0.5 0.2-0.5 0.3-1 0.5-1.5 0.6-0.2 0.2-0.4 0.3-0.6 0.1 0 0.1-0.1 0.2-0.1 0.2l-0.1-0.1c-0.3 0.2-0.3 0.5-0.2 0.8h-0.2c-0.2 0-0.5-0.1-0.7-0.2-0.2 0-0.3 0.1-0.3 0.3 0.1 0 0.2 0 0.3 0.1-0.4 0.4-0.8 0.5-1.3 0.5-0.1 0.2-0.1 0.2-0.2 0-0.1 0-0.2 0.1-0.3 0.1 0.1 0.1 0.1 0.2 0.1 0.4-0.2 0-0.3 0.1-0.4 0.2 0-0.2-0.1-0.2-0.2-0.1-0.1-0.1-0.2-0.1-0.3-0.2 0.2-0.1 0.4-0.1 0.6-0.1 0.1-0.4 0.3-0.7 0.7-0.8-0.1-0.1-0.2-0.1-0.3-0.1v-0.5h0.3c0.2-0.5 0.5-1 0.8-1.5 0-0.2 0-0.4-0.1-0.6 0.1-0.1 0.2-0.1 0.3 0 0.2-0.2 0.3-0.4 0.2-0.7 0 0.1-0.1 0.1-0.1 0 0.1 0 0.3-0.1 0.4-0.1 0.3-0.4 0.5-0.9 0.7-1.3-0.2 0-0.3 0-0.5 0 0.2-0.1 0.4-0.2 0.5-0.3l0.1 0.2c0-0.2 0.1-0.3 0.2-0.3-0.1 0.1-0.1 0.2 0 0.2 0.2 0.1 0.5 0.1 0.7 0.1-0.1-0.2 0-0.5 0.1-0.7 0.1 0.2 0.1 0.4 0 0.6 0 0.2 0.1 0.4 0.1 0.6 0.1 0 0.2-0.1 0.3-0.2 0 0.4 0 0.8-0.1 1.1 0.2 0 0.3 0 0.5-0.1 0.2-0.4 0.3-0.4 0.3 0-0.1-0.2-0.2-0.2-0.2 0.1 0.2 0 0.3 0 0.4-0.2l0-0.6c0.3 0.6 0.5 1.3 0.6 2 0.1-0.2 0.2-0.3 0.3-0.5 0.1 0.1 0.2 0.1 0.2 0.2 0.1-0.1 0.2-0.1 0.3-0.1z"></path><path fill="#e5353c" d="m30.2 7.2c0.1 0.4-0.1 0.7-0.5 0.9-0.1-0.3-0.3-0.6-0.4-0.8-0.1 0.1-0.1 0.2 0 0.3 0.1 0.1 0.1 0.3 0.1 0.5-0.1-0.1-0.1-0.2-0.1-0.3-0.1 0-0.2 0.1-0.2 0.2 0.3 0.2 0.5 0.4 0.8 0.6-0.1 0.1-0.2 0.3-0.2 0.4-0.1 0.1-0.2 0-0.3 0l-0.1 0.1c0-0.1 0-0.3 0.2-0.4l-0.1-0.1-0.2 0.2c-0.2-0.2-0.3-0.2-0.4 0.1 0.2 0.1 0.3 0.3 0.5 0.4-0.2 0.2-0.4 0.4-0.5 0.6-0.1 0.1-0.2 0.2-0.3 0.1-0.1 0.5-0.2 0.6-0.6 0.3-0.2 0.1-0.4 0.1-0.6 0.2 0.4 0.2 0.6 0.5 0.6 1-0.1-0.2-0.2-0.4-0.3-0.6-0.2-0.1-0.3-0.1-0.5-0.1 0-0.1-0.1-0.2-0.1-0.3-0.6 0-0.8-0.2-0.6-0.7h-0.3c0.1-0.1 0-0.2 0-0.3-0.1 0.1-0.2 0.1-0.2 0-0.1-0.1-0.1-0.2-0.1-0.4h-0.3l-0.5-0.9c0.2-0.1 0.4-0.2 0.7-0.3-0.1-0.1 0-0.2 0.2-0.2-0.1-0.5-0.1-1 0.1-1.5-0.1-0.2-0.1-0.4 0.1-0.5 0-0.1-0.1-0.2 0-0.3 0.1-0.1 0.2 0 0.2 0 0.1 0.2 0.1 0.3 0.2 0.4 0.1-0.1 0.2-0.1 0.3 0 0.1-0.3 0.2-0.7 0.2-1-0.1-0.1-0.2-0.2-0.2-0.3l0.1 0c0.4 0.2 0.8 0.5 1.1 0.9l-0.1 0.1 0.5 0.4c0.1-0.1 0.1-0.2 0.1-0.4-0.4-0.2-0.7-0.5-0.8-1 0-0.3 0.1-0.3 0.3-0.1 0.2-0.1 0.3-0.1 0.4 0 0.2 0.3 0.5 0.6 0.8 1 0 0.1 0 0.2 0.1 0.4-0.1 0.1 0 0.1 0.1 0 0.1 0.3 0.3 0.5 0.4 0.7 0 0.1-0.1 0.1-0.2 0.2 0.1 0.2 0.3 0.3 0.6 0.5z"></path><path fill="#fbf9f8" d="m18 5.3c-0.1 0.1-0.2 0.2-0.3 0.3 0.1 0.1 0.3 0.1 0.4-0.1 0.3-0.1 0.3 0 0.1 0.1 0.2 0.1 0.3 0.1 0.5 0.2-0.1 0.1-0.2 0.2-0.3 0.3 0.1 0 0.2 0.1 0.3 0.2v0.3c-2.5 1.5-5.1 3-7.6 4.4-0.9 0.5-1.8 1-2.7 1.5-1.5 1-2.1 2.5-1.7 4.3 0.3 0.8 0.7 1.6 1.1 2.3 1.8 2.9 3.5 5.9 5.2 8.8 0.5 0.7 1.2 1.2 1.9 1.5-0.2 0-0.3 0.1-0.4 0.2-0.2-0.2-0.3-0.1-0.4 0.1-0.2-0.2-0.5-0.2-0.8 0 0-0.3-0.2-0.3-0.4-0.3v0.3c0.1 0 0.2 0 0.3 0.1 0.1 0.1 0.1 0.1 0 0.2 0.3 0 0.3 0.1 0.1 0.2 0.2 0.5 0.5 0.8 1 1 0.2-0.3 0.3-0.2 0.3 0.2 0.9 0 1.7-0.1 2.5-0.2l-0.2 0.2c-0.8 0.1-1.6 0.1-2.4 0-0.2 0-0.4-0.1-0.6-0.2l-0.4-0.2c-0.5-0.3-0.9-0.7-1.3-1.1-0.2-0.4-0.4-0.8-0.7-1.1-0.3-0.7-0.7-1.4-1.1-2-0.5-1-1.1-1.9-1.6-2.8 0-0.1-0.1-0.2-0.2-0.2v-0.1c-0.4-0.9-0.9-1.7-1.4-2.5-0.5-0.9-0.9-1.7-1.5-2.4v-0.1c-0.4-0.7-0.7-1.3-1-2-0.2-1-0.2-1.9 0.1-2.9 0.1-0.2 0.2-0.4 0.3-0.6 0.3-0.6 0.8-1 1.3-1.4 0.6-0.3 1.2-0.6 1.7-1 0.6-0.3 1.2-0.6 1.8-0.9 0.5-0.3 1-0.6 1.4-0.9h0.2c0.9-0.5 1.7-1 2.5-1.6 0.2 0 0.4-0.1 0.5-0.2 0.5-0.2 0.9-0.5 1.3-0.8 0.7-0.4 1.4-0.8 2.2-1.1z"></path><path fill="#ffd6e1" d="m18.7 6.3c0.6 0.1 1.3 0.2 2 0.2-0.7 0-1.4 0-2 0.1v-0.3z"></path><path fill="#fbf9f9" d="m20.9 4.5c0.5 0.1 0.9 0.3 1.4 0.5 0.9 0.5 1.6 1.2 2.1 2.2l0.2 0.4c0.1 0.2 0.2 0.4 0.4 0.5v0.1l0.5 0.9c0.3 0.5 0.5 1 0.7 1.5 0.3 0 0.6 0 0.9 0.2 0.4 0.4 0.8 0.9 1.1 1.4 0 0.1 0 0.1 0.1 0.1 0.1 0.4 0.2 0.7 0.5 1v0.2c0 0.4-0.1 0.7-0.1 1 0.2 0.7 0.6 1.3 1 1.8 0.1 0.4 0.3 0.7 0.5 0.9 0.2 0.6 0.5 1 0.8 1.5 0.8 1.8 0.5 3.4-0.8 4.9-0.6 0.4-1.2 0.8-1.8 1.2-0.5 0.2-0.9 0.4-1.3 0.7-1.6 0.9-3.1 1.8-4.6 2.7-0.9 0.4-1.6 0.9-2.4 1.4-0.9 0.4-1.7 0.9-2.6 1.4-0.1 0.1-0.3 0.1-0.4 0.2-0.8 0.1-1.6 0.2-2.5 0.2 0-0.4-0.1-0.5-0.3-0.2-0.5-0.2-0.8-0.5-1-1 0.2-0.1 0.2-0.2-0.1-0.2 0.1-0.1 0.1-0.1 0-0.2-0.1-0.1-0.2-0.1-0.3-0.1v-0.3c0.2 0 0.4 0 0.4 0.3 0.3-0.2 0.6-0.2 0.8 0 0.1-0.2 0.2-0.3 0.4-0.1 0.1-0.1 0.2-0.2 0.4-0.2h0.6c0.2 0 0.5 0.1 0.7 0.1 0.4 0 0.7-0.1 1-0.2 3.4-1.9 6.8-3.9 10.1-5.9 1.4-0.6 2.2-1.8 2.2-3.4 0-0.5-0.1-1-0.3-1.5-0.7-1.1-1.3-2.2-2-3.3 0-1.4-0.4-2.6-1.5-3.5-0.2-0.1-0.4-0.2-0.6-0.2-0.7-1.2-1.4-2.4-2.1-3.5-0.6-0.8-1.4-1.3-2.3-1.5-0.7 0-1.4-0.1-2-0.2-0.1-0.1-0.2-0.2-0.3-0.2 0.1-0.1 0.2-0.2 0.3-0.3-0.2-0.1-0.3-0.1-0.5-0.2 0.2-0.1 0.2-0.2-0.1-0.1-0.1 0.2-0.3 0.2-0.4 0.1 0.1-0.1 0.2-0.2 0.3-0.3 0.1-0.2 0.2-0.3 0.3-0.4 0.4-0.1 0.7-0.2 1.1-0.3 0.5 0 1-0.1 1.5-0.1z"></path><path fill="#cd5360" d="m15.8 6.4c-0.4 0.3-0.8 0.6-1.3 0.8 0-0.1 0.1-0.2 0.1-0.3 0.3 0 0.6-0.2 0.7-0.4 0.2-0.1 0.3-0.1 0.5-0.1z"></path><path fill="#c74c6a" d="m20.7 6.5c0.9 0.2 1.7 0.7 2.3 1.5 0.7 1.1 1.4 2.3 2.1 3.5 0.2 0 0.4 0.1 0.6 0.2 1.1 0.9 1.5 2.1 1.5 3.5 0.7 1.1 1.3 2.2 2 3.3 0.2 0.5 0.3 1 0.3 1.5 0 1.6-0.8 2.8-2.2 3.4 0.2-0.1 0.1-0.1-0.1-0.1 1.6-1 2.2-2.4 1.9-4.2-0.7-1.3-1.4-2.6-2.2-3.8 0-0.5 0-0.9 0-1.4-0.3-0.6-0.7-1.3-1.1-1.8-0.3-0.2-0.6-0.3-0.9-0.3-0.6-1.3-1.4-2.5-2.1-3.7-1.2-1.3-2.5-1.6-4.1-1.2-2.5 1.4-5 2.9-7.4 4.3 0-0.1-0.1-0.2-0.2-0.2 2.5-1.4 5.1-2.9 7.6-4.4 0.6-0.1 1.3-0.1 2-0.1z"></path><path fill="#c75660" d="m24.6 7.6l0.2 0.1c0.1 0.1 0.2 0.3 0.2 0.4-0.2-0.1-0.3-0.3-0.4-0.5z"></path><path fill="#d23e52" d="m14 7.4c-0.8 0.6-1.6 1.1-2.5 1.6-0.1-0.3-0.1-0.6 0.2-0.8l0.1 0.1c0 0 0.1-0.1 0.1-0.2 0.2 0.2 0.4 0.1 0.6-0.1 0.5-0.1 1-0.3 1.5-0.6z"></path><path fill="#e12e56" d="m20.9 8.4c0.1 0.2 0.1 0.3 0.1 0.5-0.1-0.1-0.2-0.1-0.3 0 0.1 0.1 0.1 0.2 0.1 0.3 0 0.1-0.1 0.1-0.2 0-0.1 0.4 0 0.8 0.1 1.2 0.2-0.9 0.3-0.9 0.4 0-0.1 0.4-0.1 0.7 0.1 1.1 0.1-0.4 0.2-0.4 0.4 0 0 1.9 0.1 1.9 0.3 0 0-0.1 0-0.2 0.1-0.2 0.1 0.5 0.1 1.1 0 1.6h0.3c0-0.9 0.1-0.9 0.2 0h0.5c0 0.5 0 1 0 1.5h0.4c0-0.5 0-1 0.1-1.5 0.1-0.2 0.2-0.4 0.3-0.6-0.1 0-0.2-0.1-0.3-0.2 0.1-0.2 0.1-0.4 0.1-0.6 0.1 0 0.2 0 0.2 0.1 0.2 0.4 0.4 0.7 0.7 1 0.1 0 0.2-0.1 0.4 0-0.1 0-0.1 0.1-0.1 0.1-0.1 0.2-0.2 0.3-0.3 0.3-0.1 0.2-0.1 0.4 0 0.5 0.1 0.1 0.2 0.2 0.3 0.1 0 0.3 0.1 0.5 0.2 0.7-0.3 0.3-0.3 0.7-0.1 1.1 0.1-0.3 0.2-0.7 0.3-1 0.1 0.6 0.1 1.2 0.2 1.8 0-0.2 0-0.3 0-0.4h0.5c-0.1 0.4-0.1 0.8 0.1 1.2 0.1 0.1 0.1 0.1 0.2 0-0.1-0.2 0-0.4 0.2-0.6 0.1-0.1 0.2-0.1 0.2 0-0.3 0.5-0.3 1-0.1 1.6 0-0.5 0.1-0.9 0.2-1.3 0.1 0.2 0.1 0.3 0.3 0.4 0.1 0.1 0.2 0.1 0.3 0l0.9 1.6c0.2 0.4 0.2 0.9 0.3 1.3 0 0.5-0.1 0.9-0.2 1.3-0.1 0.4-0.4 0.8-0.8 1.1-0.8 0.4-1.6 0.9-2.3 1.3-0.2 0-0.4 0-0.5-0.2 0.3-0.2 0.6-0.3 0.9-0.5-0.3-0.4-0.6-0.7-1.1-1-0.1-0.1-0.1-0.3-0.1-0.4h-0.3c-0.1 0.9-0.1 0.9-0.1 0h-0.5c0-0.2 0-0.3-0.1-0.4 0.2-0.3 0.2-0.6 0-1l-1.1-0.2c0-0.5 0.1-1 0-1.6h-0.5c-0.1 0.2-0.2 0.3-0.4 0.3 0.1 0.2 0.1 0.4-0.1 0.6 0.2 0.1 0.3 0.4 0.2 0.6 0-0.2-0.1-0.3-0.3-0.4-0.1 0.1-0.1 0.2 0 0.3-0.4-0.2-0.5-0.1-0.5 0.3-0.1 0.1-0.2 0.2 0 0.3-0.3 0.2-0.5 0.3-0.6 0.5-0.1 0-0.2-0.1-0.3-0.1 1-1.5 2-3 3-4.5 0.2-0.1 0.2-0.3 0.2-0.5-0.2 0-0.3-0.1-0.5-0.2-0.4-0.3-0.8-0.6-1.2-0.9-0.2-0.2-0.5-0.3-0.8-0.3-0.4 0-0.7-0.1-1.1-0.1-0.1-0.2-0.3-0.2-0.5-0.3-0.5 0-1-0.1-1.5-0.3-0.6-0.1-1.1-0.2-1.7-0.4v-0.1c0.3 0 0.5 0 0.7-0.2-0.1-0.1-0.1-0.1-0.2-0.2-0.1 0-0.2 0.1-0.3 0.1-0.1-0.6-0.1-1.3-0.1-2-0.2 0-0.4-0.1-0.5-0.2-0.1 0.1-0.2 0.1-0.3-0.1-0.2 0.1-0.4 0.1-0.6 0l0.1-0.1c-0.1-0.1-0.2-0.1-0.3-0.2 0.9-0.6 1.9-1.2 2.9-1.7 0.1 0 0.3 0 0.4 0 0.3-0.2 0.6-0.4 0.9-0.5 0.2-0.1 0.3 0 0.4 0 0.1 0 0.3-0.1 0.4-0.1 0-0.1-0.1-0.2-0.2-0.3 0.4-0.1 0.7-0.2 1.1-0.3 0 0.3 0.2 0.3 0.5 0.2 0.1 0 0.3 0 0.4 0.1-0.1 0.1-0.2 0.3-0.3 0.4-0.1 0-0.3 0.1-0.5 0.1 0.2 0.2 0.5 0.3 0.7 0.2z"></path><path fill="#d33d4f" d="m11.3 9c-0.4 0.3-0.9 0.6-1.4 0.9-0.6 0.3-1.2 0.6-1.8 0.9l0.1-0.3c0.1 0 0.1-0.1 0.1-0.2 0.1-0.1 0.2-0.1 0.2 0.1 0.1-0.1 0.2-0.2 0.4-0.2 0-0.2 0-0.3-0.1-0.4 0.1 0 0.2-0.1 0.3-0.1 0.1 0.2 0.1 0.2 0.2 0 0.5 0 0.9-0.1 1.3-0.5-0.1-0.1-0.2-0.1-0.3-0.1 0-0.2 0.1-0.3 0.3-0.3 0.2 0.1 0.5 0.2 0.7 0.2z"></path><path fill="#ce4751" d="m25.5 9.1h0.3c0 0.2 0 0.3 0.1 0.4 0 0.1 0.1 0.1 0.2 0 0 0.1 0.1 0.2 0 0.3h0.3c-0.2 0.5 0 0.7 0.6 0.7 0 0.1 0.1 0.2 0.1 0.3-0.3-0.2-0.6-0.2-0.9-0.2-0.2-0.5-0.4-1-0.7-1.5z"></path><path fill="#c44e58" d="m27.1 10.8c0.2 0 0.3 0 0.5 0.1 0.1 0.2 0.2 0.4 0.3 0.6 0.2 0.2 0.3 0.4 0.3 0.7-0.3-0.5-0.7-1-1.1-1.4z"></path><path fill="#ca415e" d="m6.4 11.8c-0.5 0.4-1 0.8-1.3 1.4 0-0.2 0-0.4 0.1-0.6 0.2-0.1 0.4-0.2 0.6-0.4-0.1-0.2-0.1-0.3 0-0.4 0.2 0.1 0.4 0.1 0.6 0z"></path><path fill="#ca717b" d="m28.3 12.3c0.2 0.3 0.4 0.6 0.5 1-0.3-0.3-0.4-0.6-0.5-1z"></path><path fill="#fbf1f3" d="m27.2 23.3c-1.5 0.8-3 1.7-4.6 2.6 0-0.1-0.1-0.1-0.1-0.2 0-0.1 0-0.1 0-0.1-0.1-0.1-0.2-0.1-0.3-0.1 0.2-0.2 0.5-0.4 0.8-0.5 0.7-0.4 1.5-0.8 2.2-1.3 0.7-0.4 1.5-0.9 2.3-1.3 0.4-0.3 0.7-0.7 0.8-1.1 0.1-0.1 0.2-0.3 0.2-0.5 0.2-0.7 0.1-1.5-0.3-2.1l-0.9-1.6c-0.3-0.6-0.7-1.3-1.1-1.9 0-0.3 0.1-0.5 0.2-0.8-0.1-0.4-0.3-0.7-0.5-1-0.2-0.7-0.7-1.1-1.4-1.2-0.3-0.6-0.6-1.1-1-1.5 0.1-0.1 0-0.2-0.1-0.2-0.2-0.7-0.6-1.3-1-1.9-0.1-0.2-0.3-0.4-0.5-0.5-0.9-0.8-2-1-3.1-0.5-0.6 0.3-1.2 0.6-1.7 1-1 0.5-2 1.1-2.9 1.7-0.8 0.3-1.5 0.7-2.1 1.2-0.6 0.2-1.2 0.6-1.7 1-0.9 0.4-1.7 0.9-2.5 1.6 0 0 0 0.1 0 0.2l-0.1 0.1c-0.4 0.7-0.5 1.5-0.2 2.3 0 0.2 0.1 0.4 0.3 0.5 0.2 0.5 0.4 1 0.7 1.5 0.1 0.3 0.2 0.6 0.3 0.9h-0.3c0-0.4-0.1-0.6-0.5-0.6-0.6-0.8-1-1.8-1.3-2.8-0.1-1.3 0.4-2.3 1.3-3.2 1.1-0.6 2.1-1.2 3.2-1.8 2.4-1.4 4.9-2.9 7.4-4.3 1.6-0.4 2.9-0.1 4.1 1.2 0.7 1.2 1.5 2.4 2.1 3.7 0.3 0 0.6 0.1 0.9 0.3 0.4 0.5 0.8 1.2 1.1 1.8 0 0.5 0 0.9 0 1.4 0.8 1.2 1.5 2.5 2.2 3.8 0.3 1.8-0.3 3.2-1.9 4.2z"></path><path fill="#cf4554" d="m14.1 12.9c-0.6-0.2-0.8-0.1-0.7 0.6 0.2 0.2 0.3 0.5 0.3 0.9-0.1-0.2-0.2-0.3-0.3-0.5-0.1 0.4-0.2 0.4-0.3 0 0-0.1 0.1-0.1 0.1-0.2 0-0.3 0-0.6 0.1-1 0.3 0 0.5-0.1 0.8-0.1v0.3z"></path><path fill="#cc5768" d="m14.7 13c0.4 0 0.7 0 1 0.2v0.1c-0.4 0-0.7-0.1-1-0.3z"></path><path fill="#e02f5e" d="m24.8 12.7c0.2 0.1 0.4 0.1 0.6 0.1 0 0.3 0.2 0.5 0.5 0.6 0.2 0.3 0.4 0.6 0.5 1-0.1 0.3-0.2 0.5-0.2 0.8 0.4 0.6 0.8 1.3 1.1 1.9-0.1 0.1-0.2 0.1-0.3 0-0.2-0.1-0.2-0.2-0.3-0.4-0.1 0.4-0.2 0.8-0.2 1.3-0.2-0.6-0.2-1.1 0.1-1.6 0-0.1-0.1-0.1-0.2 0-0.2 0.2-0.3 0.4-0.2 0.6-0.1 0.1-0.1 0.1-0.2 0-0.2-0.4-0.2-0.8-0.1-1.2h-0.5c0 0.1 0 0.2 0 0.4-0.1-0.6-0.1-1.2-0.2-1.8-0.1 0.3-0.2 0.7-0.3 1-0.2-0.4-0.2-0.8 0.1-1.1-0.1-0.2-0.2-0.4-0.2-0.7-0.1 0.1-0.2 0-0.3-0.1-0.1-0.1-0.1-0.3 0-0.5 0.1 0 0.2-0.1 0.3-0.3z"></path><path fill="#e43346" d="m11.7 12c0.2 0.1 0.5 0.2 0.8 0.3l0.3-0.3c0.1 0.2 0.1 0.4-0.1 0.5l-0.5-0.2c-0.2 0.2-0.4 0.4-0.7 0.5 0.1 0.1 0.2 0.2 0.3 0.3 0.4-0.2 0.7-0.2 1.1-0.1 0.1 0.2 0.2 0.5 0.3 0.7 0 0.1-0.1 0.1-0.1 0.2 0.1 0.4 0.2 0.4 0.3 0 0.1 0.2 0.2 0.3 0.3 0.5 0 0.2 0 0.4-0.1 0.6 0.1 0.1 0.3 0.1 0.3 0.2 0.1 0.2 0.1 0.3 0.2 0.5l-0.2 0.2c0 0.2 0 0.4 0.1 0.6 0.1 0 0.2 0 0.3-0.1 0.1 0.2 0.1 0.3 0.1 0.5-0.1-0.1-0.2-0.1-0.2 0.2-0.1-0.1-0.3-0.2-0.4-0.3-0.1 0.1-0.1 0.1-0.3 0.1 0.1-0.1 0.1-0.3 0.1-0.5-0.2-0.1-0.2-0.2 0-0.3 0-0.1-0.1-0.1-0.2 0 0-0.1 0-0.2 0-0.3h-0.3c0-0.2 0-0.4-0.1-0.5-0.1 0.1-0.1 0.2-0.2 0.3 0.1 0.3 0.1 0.6 0.1 0.9-0.2-0.1-0.3-0.2-0.4-0.1 0.2 0.1 0.4 0.2 0.5 0.4-0.1 0.1-0.1 0.2-0.2 0.3-0.1-0.2-0.3-0.3-0.5-0.5l0.1 0c-0.2-0.2-0.5-0.4-0.7-0.5 0-0.1-0.1-0.2 0-0.3 0.1 0 0.2 0 0.3-0.1-0.1-0.2-0.3-0.3-0.4-0.4-0.1 0.1-0.2 0.3-0.3 0.4-0.3 0-0.6 0-0.9 0.1 0-0.4 0-0.7 0-1.1 0-0.2 0.1-0.3 0.2-0.4-0.1-0.2-0.3-0.4-0.5-0.5-0.1 0.1-0.2 0.2-0.3 0.2-0.1-0.2 0-0.4 0.2-0.4-0.1-0.1-0.2-0.1-0.3-0.1-0.1 0-0.2-0.1-0.4-0.1-0.3 0.2-0.3 0.4 0 0.6-0.3 0.2-0.4 0.1-0.4-0.3h-0.3c0 0.6-0.2 0.7-0.7 0.6 0-0.1 0-0.2 0-0.2 0.8-0.7 1.6-1.2 2.5-1.6 0.2 0 0.3 0 0.4 0.1 0.4-0.2 0.6-0.3 0.9-0.6z"></path><path fill="#d5445b" d="m12.1 11.5c-0.1 0.2-0.3 0.4-0.4 0.5-0.3 0.3-0.5 0.4-0.9 0.6-0.1-0.1-0.2-0.1-0.4-0.1 0.5-0.4 1.1-0.8 1.7-1z"></path><path fill="#e2324e" d="m14.2 10.3c0.1 0.1 0.2 0.1 0.3 0.2l-0.1 0.1c0.2 0.1 0.4 0.1 0.6 0 0.1 0.2 0.2 0.2 0.3 0.1 0.1 0.1 0.3 0.2 0.5 0.2 0 0.7 0 1.4 0.1 2 0.1 0 0.2-0.1 0.3-0.1 0.1 0.1 0.1 0.1 0.2 0.2-0.2 0.2-0.4 0.2-0.7 0.2-0.3-0.2-0.6-0.2-1-0.2-0.2 0-0.4 0-0.6-0.1v-0.3c-0.3 0-0.5 0.1-0.8 0.1-0.1 0.4-0.1 0.7-0.1 1-0.1-0.2-0.2-0.5-0.3-0.7-0.4-0.1-0.7-0.1-1.1 0.1-0.1-0.1-0.2-0.2-0.3-0.3 0.3-0.1 0.5-0.3 0.7-0.5l0.5 0.2c0.2-0.1 0.2-0.3 0.1-0.5l-0.3 0.3c-0.3-0.1-0.6-0.2-0.8-0.3 0.1-0.1 0.3-0.3 0.4-0.5 0.6-0.5 1.3-0.9 2.1-1.2z"></path><path fill="#cf4366" d="m23.5 10.7c0.4 0.4 0.7 0.9 1 1.5 0.7 0.1 1.2 0.5 1.4 1.2-0.3-0.1-0.5-0.3-0.5-0.6-0.2 0-0.4 0-0.6-0.1 0 0 0-0.1 0.1-0.1-0.2-0.1-0.3 0-0.4 0-0.3-0.3-0.5-0.6-0.7-1 0-0.1-0.1-0.1-0.2-0.1 0.1-0.1 0.1-0.2 0.1-0.2-0.1-0.2-0.2-0.4-0.2-0.6z"></path><path fill="#d33c62" d="m22.4 8.6c0.4 0.6 0.8 1.2 1 1.9-0.1 0-0.1-0.1-0.2-0.2 0 0.1-0.1 0.1-0.1 0.2-0.1-0.2-0.1-0.4-0.1-0.6-0.2 0-0.4-0.1-0.5-0.4 0 0 0-0.1 0-0.2-0.1-0.2-0.1-0.5-0.1-0.7z"></path><path fill="#e12d5d" d="m21.9 8.1c0.2 0.1 0.4 0.3 0.5 0.5 0 0.2 0 0.5 0.1 0.7 0 0.1 0 0.2 0 0.2 0.1 0.3 0.3 0.4 0.5 0.4 0 0.2 0 0.4 0.1 0.6 0-0.1 0.1-0.1 0.1-0.2 0.1 0.1 0.1 0.2 0.2 0.2 0.1 0 0.2 0.1 0.1 0.2 0 0.2 0.1 0.4 0.2 0.6 0 0 0 0.1-0.1 0.2 0 0.2 0 0.4-0.1 0.6 0.1 0.1 0.2 0.2 0.3 0.2-0.1 0.2-0.2 0.4-0.3 0.6-0.1 0.5-0.1 1-0.1 1.5h-0.4c0-0.5 0-1 0-1.5h-0.5c-0.1-0.9-0.2-0.9-0.2 0h-0.3c0.1-0.5 0.1-1.1 0-1.6-0.1 0-0.1 0.1-0.1 0.2-0.2 1.9-0.3 1.9-0.3 0-0.2-0.4-0.3-0.4-0.4 0-0.2-0.4-0.2-0.7-0.1-1.1-0.1-0.9-0.2-0.9-0.4 0-0.1-0.4-0.2-0.8-0.1-1.2 0.1 0.1 0.2 0.1 0.2 0 0-0.1 0-0.2-0.1-0.3 0.1-0.1 0.2-0.1 0.3 0 0-0.2 0-0.3-0.1-0.5 0.1-0.1 0.1-0.3 0.2-0.4 0 0.1 0 0.2 0.2 0.2 0.2 0 0.4 0 0.6-0.1z"></path><path fill="#d53a60" d="m21.9 8.1c-0.2 0.1-0.4 0.1-0.6 0.1-0.2 0-0.2-0.1-0.2-0.2-0.1 0.1-0.1 0.3-0.2 0.4-0.2 0.1-0.5 0-0.7-0.2 0.2 0 0.4-0.1 0.5-0.1 0.1-0.1 0.2-0.3 0.3-0.4-0.1-0.1-0.3-0.1-0.4-0.1-0.3 0.1-0.5 0.1-0.5-0.2-0.4 0.1-0.7 0.2-1.1 0.3 0.1 0.1 0.2 0.2 0.2 0.3-0.1 0-0.3 0.1-0.4 0.1-0.1 0-0.2-0.1-0.4 0-0.3 0.1-0.6 0.3-0.9 0.4-0.1 0.1-0.3 0.1-0.4 0.1 0.5-0.4 1.1-0.7 1.7-1 1.1-0.5 2.2-0.3 3.1 0.5z"></path><path fill="#e5363c" d="m15.3 21c0.2 0.3 0.4 0.3 0.7 0.1 0.1 0.2 0.1 0.4-0.1 0.6 0.1 0.1 0.2 0.1 0.3 0.1l-0.1 0.2 0.3 0.7-0.1 0.2c0.2 0.1 0.3 0.1 0.5 0.1 0 0.2 0 0.5 0 0.7 0.2 0.1 0.3 0.3 0.3 0.5 0.2 0 0.3 0.1 0.5 0.1 0 0.1 0.1 0.2 0.3 0.1v-0.4h0.2c0 0.1 0 0.2-0.1 0.3 0.2 0.1 0.3 0.2 0.5 0.1v-0.4h-0.3c0-0.3 0.1-0.5 0.4-0.4 0.2 0.4 0.3 0.7 0.3 1.1 0.2 0.1 0.3 0.3 0.5 0.5 0.1-0.2 0.2-0.1 0.1 0 0.1 0.2 0.2 0.3 0.3 0.4 0 0.1 0 0.2 0 0.2 0.1 0.1 0.2 0.1 0.3 0.1 0-0.1 0-0.2 0.1-0.3l0.4 0.3c-0.4 0.1-0.4 0.2 0 0.4-0.2 0-0.4 0.1-0.5 0.3-0.3-0.1-0.6 0.1-0.8 0.4-0.3 0-0.5 0.2-0.6 0.5-0.4 0.3-0.9 0.5-1.3 0.8-0.2 0.1-0.3 0.1-0.5 0.1-0.8 0.2-1.6 0.1-2.4-0.3-0.4-0.1-0.7-0.4-0.9-0.8-1-1.8-2.1-3.6-3.1-5.4 0.1-0.4-0.1-0.7-0.5-0.8-0.5-0.8-0.9-1.6-1.4-2.4-0.3-0.5-0.5-1-0.7-1.5 0-0.3-0.1-0.7-0.3-1 0.1-0.3 0.1-0.6 0-0.9 0.1-0.1 0.1-0.2 0.2-0.2 0 0 0.1 0 0.1 0.1 0.1 0.4 0.2 0.9 0.2 1.3l0.1-0.1c0 0.2 0.1 0.3 0.2 0.5-0.1 0.2-0.1 0.4 0.1 0.6 0.1-0.4 0.1-0.7 0.1-1.1l-0.1 0.3c-0.1-0.2-0.1-0.4-0.3-0.5 0.2-0.5 0.3-0.9 0.4-1.4 0 0.1 0.1 0.1 0.2 0-0.3-0.2-0.3-0.4 0-0.5 0.1 0.2 0.3 0.4 0.4 0.6-0.1 0-0.2 0-0.2 0.1 0.1 0 0.3 0.1 0.4 0.3 0.2-0.1 0.3-0.1 0.5 0.1-0.1 0.2-0.2 0.2-0.3 0.3l0.3 0.1c-0.2 0-0.4 0-0.5 0-0.1 0.2-0.1 0.4 0.1 0.5-0.3 0.1-0.2 0.2 0 0.2 0.3 0 0.5-0.1 0.7-0.3 0.4 0 0.8 0 1.2 0 0.1 0.1 0.2 0.2 0.1 0.4 0.3 0.1 0.5 0.3 0.6 0.6-0.2 0-0.4 0-0.6-0.1-0.1 0.2 0 0.4 0.1 0.6 0.4 0 0.8 0 1.2-0.1 0.1 0.1 0.2 0.3 0.1 0.4 0.8 0.4 1.1 1 0.7 2l0.1 0.1c0.2-0.1 0.4-0.1 0.5 0 0.2-0.2 0.4-0.2 0.5 0.2 0 0.3 0 0.6 0.2 0.8 0-0.1 0-0.2 0-0.3 0.2 0 0.3 0.1 0.4 0.2z"></path><path fill="#ce6078" d="m20.5 14.4c0.3 0 0.6 0.1 0.8 0.3-0.3-0.1-0.6-0.1-0.8-0.3z"></path><path fill="#f13e5b" d="m17 14.4c0 0.2 0.2 0.3 0.4 0.3 0.7 0 1.3 0.1 2 0.3 0.2 0.1 0.5 0.1 0.7 0.1 0.1 0 0.3 0 0.4 0 0.1 0.1 0.1 0.2 0 0.2-0.6 0.7-1.2 1.4-1.8 2-0.3-0.1-0.4 0-0.4 0.3-0.1 0-0.2 0-0.3-0.1-0.1-0.3-0.3-0.5-0.4-0.7-0.2-0.1-0.4-0.1-0.5 0-0.4-0.4-0.6-0.8-0.9-1.3 0-0.1-0.1-0.1-0.2 0l-1-1.2v-0.3c0.2 0 0.4 0 0.5 0.2 0.2-0.1 0.4-0.1 0.6 0-0.1 0-0.2 0.1-0.3 0.1 0.4 0 0.8 0 1.2 0.1z"></path><path fill="#fde1e6" d="m17.4 13.7c0.5 0.2 1 0.3 1.5 0.3 0.2 0.1 0.4 0.1 0.5 0.3-0.2 0-0.4 0-0.6 0l0.1 0.1c-0.1 0-0.1 0.1-0.2 0.1 0.2 0.1 0.4 0.1 0.6 0 0.1 0.2 0.2 0.3 0.4 0.4-0.6-0.1-1.2-0.2-1.7-0.5 0.1-0.1 0.4-0.1 0.7-0.2-0.4-0.1-0.7-0.2-1.1-0.3-0.1 0-0.2-0.1-0.2-0.2z"></path><path fill="#cd455c" d="m17 14.4c0.3 0 0.6 0 1 0 0.5 0.3 1.1 0.4 1.7 0.5 0.1 0 0.3 0.1 0.4 0.2-0.2 0-0.5 0-0.7-0.1-0.7-0.2-1.3-0.3-2-0.3-0.2 0-0.4-0.1-0.4-0.3z"></path><path fill="#d93c41" d="m28.8 13.5h0.2c0 0.2 0 0.3-0.1 0.5 0.1 0.2 0.1 0.2 0.2 0 0 0.1 0 0.3 0.1 0.4-0.1 0-0.1 0.1-0.2 0.1 0.2 0.2 0.2 0.4 0.3 0.6 0-0.1 0-0.1 0.1-0.1 0 0.3 0.2 0.4 0.4 0.2 0.1 0.2 0 0.4-0.2 0.5l0.3 0.2c0 0.1-0.1 0.1-0.1 0-0.1 0.1-0.1 0.3-0.1 0.4-0.4-0.5-0.8-1.1-1-1.8 0-0.3 0.1-0.6 0.1-1z"></path><path fill="#cb484d" d="m7.8 14.4l-0.2 0.9c0.1 0.3 0.1 0.6 0 0.9 0.2 0.3 0.3 0.7 0.3 1-0.2-0.1-0.3-0.3-0.3-0.5-0.3-0.8-0.2-1.6 0.2-2.3z"></path><path fill="#f2c9d3" d="m22.5 15.6c0.2 0.1 0.3 0.2 0.5 0.2 0 0.2 0 0.4-0.2 0.5-0.1-0.1-0.1-0.2 0-0.3 0-0.1-0.1-0.1-0.1 0-0.1-0.1-0.1-0.3-0.2-0.4z"></path><path fill="#e4353a" d="m36 16.5v8.8c-0.2 0-0.2 0.1-0.3 0.2-0.2-0.1-0.4-0.2-0.5-0.3l-0.1 0c0.1 0.1 0.2 0.2 0 0.3-0.2-0.1-0.4-0.1-0.6-0.2 0-0.1 0-0.3-0.2-0.4 0.1 0 0.2-0.1 0.2-0.2 0-0.2 0-0.5 0-0.7-0.1 0.2-0.2 0.2-0.3 0 0-0.1 0.1-0.2 0.2-0.3-0.1-0.1-0.3-0.1-0.4 0-0.2-0.2-0.3-0.1-0.5 0.1-0.5-0.3-0.4-0.4 0.1-0.5-0.4-0.4-0.9-0.7-1.5-0.8-0.2 0-0.4 0.1-0.6 0 0-0.3 0-0.6 0.1-0.9l0.2 0.3c-0.2 0-0.2 0.1-0.1 0.3 0.2 0.1 0.4 0.1 0.7 0 0-0.1 0-0.2 0-0.3l0.3 0.2c0.3-0.1 0.6-0.2 0.9-0.4-0.1 0-0.3-0.1-0.4-0.1-0.1-0.3-0.1-0.5-0.1-0.8-0.4 0.1-0.7 0.1-1 0 0-0.1 0.1-0.1 0.2-0.1 0.3 0.1 0.3 0 0.1-0.2 0.1-0.1 0.3-0.1 0.5 0 0.1-0.1 0.1-0.1-0.1-0.2 0.3 0 0.3-0.1 0-0.2 0.2-0.1 0.2-0.1 0.1-0.3-0.1 0-0.2-0.1-0.3-0.1-0.2 0.1-0.4 0.2-0.6 0.2-0.1-0.1-0.2-0.2-0.4-0.2-0.1-0.1-0.1-0.3 0-0.4 0.2 0 0.4 0.1 0.7 0.1l-0.4 0.1c-0.1 0.1-0.1 0.1 0 0.2 0.3-0.2 0.6-0.2 0.9 0 0.2-0.2 0.3-0.5 0.4-0.8 0.1-0.1 0.3-0.1 0.5-0.2-0.4-0.3-0.8-0.5-1.3-0.6 0.4-0.2 0.4-0.3 0-0.4-0.3 0.2-0.6 0.2-0.8-0.2-0.2 0.1-0.3 0-0.3-0.3h-0.4c0.2-0.1 0.4-0.1 0.7-0.2 0.1 0 0.2 0 0.3 0.1 0-0.1 0-0.2 0-0.2-0.5-0.3-0.4-0.5 0.1-0.5 0.5 0.1 0.5 0.2 0 0.3h0.7c0.2 0.4 0.5 0.4 0.8 0.2l-1.1-0.4c0-0.1-0.1-0.2-0.1-0.3-0.2 0-0.4 0.1-0.7 0-0.2-0.2-0.2-0.4 0.1-0.4 0-0.1-0.1-0.2-0.1-0.4h0.3c0-0.2 0.1-0.3 0.3-0.1 0.4-0.2 0.9-0.4 1.3-0.5 0.5 0.3 0.8 0.6 1.2 1l-0.2 0.1 0.7 0.1c0.3 0.2 0.5 0.4 0.8 0.5z"></path><path fill="#e53442" d="m14.4 16.9h0.2v2l0.6-0.2c0 0.2 0.1 0.4 0.1 0.6 0 0.3 0 0.6 0 0.9-0.2 0.1-0.3 0.1-0.4-0.1 0 0.2 0 0.4 0.1 0.6 0.1-0.2 0.2-0.3 0.3-0.3 0 0.2 0 0.4 0 0.6-0.1-0.1-0.2-0.2-0.4-0.2 0 0.1 0 0.2-0.1 0.3-0.1-0.2-0.1-0.5-0.1-0.8-0.1-0.4-0.3-0.4-0.5-0.2-0.1-0.1-0.3-0.1-0.5 0l-0.1-0.1c0.4-1 0.1-1.6-0.7-2 0.1-0.1 0-0.3-0.1-0.4-0.4 0.1-0.8 0.1-1.2 0.1-0.1-0.2-0.2-0.4-0.1-0.6 0.2 0.1 0.4 0.1 0.6 0.1-0.1-0.3-0.3-0.5-0.6-0.6 0.1-0.2 0-0.3-0.1-0.4-0.4 0-0.8 0-1.2 0-0.2 0.2-0.4 0.3-0.7 0.3-0.2 0-0.3-0.1 0-0.2-0.2-0.1-0.2-0.3-0.1-0.5 0.1 0 0.3 0 0.5-0.1l-0.3 0c0.1-0.1 0.2-0.1 0.3-0.3-0.2-0.2-0.3-0.2-0.5-0.1-0.1-0.2-0.3-0.3-0.4-0.3 0-0.1 0.1-0.1 0.2-0.2-0.1-0.1-0.3-0.3-0.4-0.5-0.3 0.1-0.3 0.3 0 0.5-0.1 0.1-0.2 0.1-0.2 0-0.1 0.5-0.2 0.9-0.4 1.4 0.2 0.1 0.2 0.3 0.3 0.5l0.1-0.3c0 0.4 0 0.7-0.1 1.1-0.2-0.2-0.2-0.4-0.1-0.6-0.1-0.2-0.2-0.3-0.2-0.5l-0.1 0.1c0-0.4-0.1-0.9-0.2-1.3 0-0.1-0.1-0.1-0.1-0.1-0.1 0-0.1 0.1-0.2 0.2l0.2-0.9 0.1-0.1c0.5 0.1 0.7 0 0.7-0.6h0.3c0 0.4 0.1 0.5 0.4 0.3-0.3-0.2-0.3-0.4 0-0.6 0.2 0 0.3 0.1 0.4 0.1 0.1 0 0.2 0 0.3 0.1-0.2 0-0.3 0.2-0.2 0.4 0.1 0 0.2-0.1 0.3-0.2 0.2 0.1 0.4 0.3 0.5 0.5-0.1 0.1-0.2 0.2-0.2 0.4 0 0.4 0 0.7 0 1.1 0.3-0.1 0.6-0.1 0.9-0.1 0.1-0.1 0.2-0.3 0.3-0.4 0.1 0.1 0.3 0.2 0.4 0.4-0.1 0.1-0.2 0.1-0.3 0.1-0.1 0.1 0 0.2 0 0.3 0.2 0.1 0.5 0.3 0.7 0.5l-0.1 0c0.2 0.2 0.4 0.3 0.5 0.5 0.1-0.1 0.1-0.2 0.2-0.3-0.1-0.2-0.3-0.3-0.5-0.4 0.1-0.1 0.2 0 0.4 0.1 0-0.3 0-0.6-0.1-0.9 0.1-0.1 0.1-0.2 0.2-0.3 0.1 0.1 0.1 0.3 0.1 0.5h0.3c0 0.1 0 0.2 0 0.3 0.1-0.1 0.2-0.1 0.2 0-0.2 0.1-0.2 0.2 0 0.3 0 0.2 0 0.4-0.1 0.5 0.2 0 0.2 0 0.3-0.1 0.1 0.1 0.3 0.2 0.4 0.3 0-0.3 0.1-0.3 0.2-0.2z"></path><path fill="#d54456" d="m13.7 14.4c0.2 0.3 0.3 0.6 0.5 0.9 0.1 0.6 0.3 1.1 0.4 1.6h-0.2c0-0.2 0-0.3-0.1-0.5-0.1 0.1-0.2 0.1-0.3 0.1-0.1-0.2-0.1-0.4-0.1-0.6l0.2-0.2c-0.1-0.2-0.1-0.3-0.2-0.5 0-0.1-0.2-0.1-0.3-0.2 0.1-0.2 0.1-0.4 0.1-0.6z"></path><path fill="#fbf0f1" d="m19.4 14.3c0.4 0 0.7 0.1 1.1 0.1 0.2 0.2 0.5 0.2 0.8 0.3 0.4 0.3 0.8 0.6 1.2 0.9 0.1 0.1 0.1 0.3 0.2 0.4 0-0.1 0.1-0.1 0.1 0-0.1 0.1-0.1 0.2 0 0.3-1 1.5-2 3-3 4.5-0.1 0.2-0.3 0.5-0.4 0.8-0.2 0.2-0.5 0.5-0.7 0.8-0.1 0.2-0.2 0.4-0.3 0.6-0.2 0.3-0.5 0.6-0.6 0.9-0.2 0.2-0.4 0.2-0.6 0.1-0.1-0.3-0.2-0.7-0.4-1-0.7-2.1-1.4-4.1-2.2-6.1-0.1-0.5-0.3-1-0.4-1.6v-0.2h0.2c0 0.2 0.1 0.3 0.2 0.4 0.3 1 0.7 2 1.2 3 0.3 1.2 0.7 2.3 1.2 3.4 0.1 0.3 0.2 0.6 0.2 0.9 0.1 0.1 0.2 0.1 0.3 0.1 0-0.4 0-0.9 0.1-1.3 0.1 0.1 0.2 0.3 0.2 0.6-0.1 0.2 0 0.4 0.1 0.5 0.1-0.2 0.3-0.5 0.4-0.7 0.8-1 1.5-2.1 2.2-3.2 0.4-0.5 0.8-1 1.1-1.6 0.1-0.1 0.2-0.2 0.4-0.4 0-0.1 0-0.1-0.1-0.2-0.3 0.1-0.5 0.3-0.8 0.5-0.6 0.2-1.3 0.6-1.9 0.9-0.3 0.1-0.6 0.3-0.9 0.4-0.4-0.2-0.4-0.3 0-0.4v-0.2l0.4-0.5c0.6-0.6 1.2-1.3 1.8-2 0.1 0 0.1-0.1 0-0.2-0.1 0-0.3 0-0.4 0-0.1-0.1-0.3-0.2-0.4-0.2-0.2-0.1-0.3-0.2-0.4-0.4-0.2 0.1-0.4 0.1-0.6 0 0.1 0 0.1-0.1 0.2-0.1l-0.1-0.1c0.2 0 0.4 0 0.6 0z"></path><path fill="#db3d5a" d="m20.1 17c-0.1 0-0.2 0-0.3-0.1 0 0 0.1-0.1 0-0.2 0.4-0.5 0.8-1 1.3-1.4 0.3 0.2 0.5 0.4 0.8 0.6 0.1 0.1 0.1 0.1 0 0.2-0.6 0.3-1.2 0.6-1.8 0.9z"></path><path fill="#c94d5f" d="m17.1 16.8c-0.4-0.4-0.8-0.8-1.1-1.3 0.1-0.1 0.2-0.1 0.2 0 0.3 0.5 0.5 0.9 0.9 1.3z"></path><path fill="#fbebed" d="m14.1 12.9c0.2 0.1 0.4 0.1 0.6 0.1 0.3 0.2 0.6 0.3 1 0.3 0.6 0.2 1.1 0.3 1.7 0.4 0 0.1 0.1 0.2 0.2 0.2 0.4 0.1 0.7 0.2 1.1 0.3-0.3 0.1-0.6 0.1-0.7 0.2-0.4 0-0.7 0-1 0-0.8-0.3-1.6-0.5-2.5-0.6 0.2 0.2 0.3 0.3 0.5 0.5l1 1.2c0.3 0.5 0.7 0.9 1.1 1.3 0.2 0.4 0.5 0.8 0.9 1.1 0.1 0 0.2 0 0.3-0.1v0.2c-0.4 0.1-0.4 0.2 0 0.4l-0.1 0.3c-0.1 0.9-0.2 1.9-0.2 2.9l-0.2 0.6c0-0.3-0.1-0.5-0.2-0.6-0.1 0.4-0.1 0.9-0.1 1.3-0.1 0-0.2 0-0.3-0.1 0.1-0.1 0.1-0.1 0.2-0.3 0.1-1.4 0.2-2.8 0.3-4.2-1.1-1.4-2.3-2.8-3.5-4.2 0.1 0.5 0.3 0.9 0.4 1.4-0.1-0.1-0.2-0.2-0.2-0.4h-0.2v0.2c-0.2-0.3-0.3-0.6-0.5-0.9 0-0.4-0.1-0.7-0.3-0.9-0.1-0.7 0.1-0.8 0.7-0.6z"></path><path fill="#cf415c" d="m17 14.4c-0.4-0.1-0.8-0.1-1.2-0.1 0.1 0 0.2-0.1 0.3-0.1-0.2-0.1-0.4-0.1-0.6 0-0.1-0.2-0.3-0.2-0.5-0.2v0.3c-0.2-0.2-0.3-0.3-0.5-0.5 0.9 0.1 1.7 0.3 2.5 0.6z"></path><path fill="#db4158" d="m18.7 17.3l-0.4 0.5c-0.1 0.1-0.2 0.1-0.3 0.1-0.4-0.3-0.7-0.7-0.9-1.1 0.1-0.1 0.3-0.1 0.5 0 0.1 0.2 0.3 0.4 0.4 0.7 0.1 0.1 0.2 0.1 0.3 0.1 0-0.3 0.1-0.4 0.4-0.3z"></path><path fill="#c7536f" d="m21.6 17.2v-0.2c-0.2 0-0.3 0-0.5 0.1 0.3-0.2 0.5-0.4 0.8-0.5 0.1 0.1 0.1 0.1 0.1 0.2-0.2 0.2-0.3 0.3-0.4 0.4z"></path><path fill="#c45169" d="m19.8 16.7c0.1 0.1 0 0.2 0 0.2 0.1 0.1 0.2 0.1 0.3 0.1-0.3 0.2-0.6 0.4-1 0.6-0.1-0.1-0.1-0.1 0-0.2 0.2-0.2 0.5-0.5 0.7-0.7z"></path><path fill="#d44761" d="m4.8 13.8c-0.3 1-0.3 1.9-0.1 2.9 0.3 0.7 0.6 1.3 1 2-0.3 0-0.4-0.1-0.5-0.4-0.1 0.1-0.2 0.1-0.4 0 0-0.4-0.2-0.7-0.5-1 0.1-0.2 0.2-0.4 0.2-0.6 0-0.2-0.1-0.2-0.2 0 0-0.8 0.1-1.6 0.2-2.4 0-0.2 0-0.3 0-0.4 0.1 0 0.2 0 0.3-0.1z"></path><path fill="#df3e58" d="m21.6 17.2c-0.3 0.6-0.7 1.1-1.1 1.6 0-0.2-0.1-0.3-0.2-0.5-0.1-0.1-0.2-0.1-0.2 0-0.1-0.1-0.1-0.2 0-0.3l-0.1 0c-0.3 0-0.5 0.1-0.8 0 0.6-0.3 1.3-0.7 1.9-0.9 0.2-0.1 0.3-0.1 0.5-0.1v0.2z"></path><path fill="#e1305b" d="m3.4 27.3c-0.1 1.6-0.2 3.2-0.6 4.8 0-0.7 0-1.3-0.1-1.9 0 0-0.1 0.1-0.1 0.2-0.2-0.2-0.5-0.3-0.8-0.2-0.1-0.7-0.1-1.5 0-2.2-0.1-0.1-0.1-0.2-0.2-0.3 0.2-0.1 0.2-0.3 0-0.5-0.1 0.2-0.2 0.2-0.3 0.1 0.3-0.2 0.2-0.3-0.1-0.3 0.1 0 0.2-0.1 0.2-0.2 0-0.3 0-0.6 0-0.9h-1.4v-7.2c0.4 0 0.9 0 1.4 0 0 0.1 0 0.2 0.1 0.3 0 0.7 0 1.6-0.1 2.6l1.4-0.1c0 0.5 0 1 0 1.5 0.2 0 0.3 0 0.5 0-0.1 0.4-0.1 0.8-0.1 1.3-0.1 0.1-0.2 0.1-0.4 0.1v2.9h0.6z"></path><path fill="#f13e59" d="m17 21.9c-0.5-1.1-0.9-2.2-1.2-3.4 0-0.3-0.1-0.6-0.2-0.9 0.2-0.3 0.1-0.5-0.3-0.5 0-0.2 0.1-0.3 0.1-0.4-0.1-0.2-0.3-0.5-0.3-0.8 0.2-0.3 0.3-0.2 0.3 0.1 0.3 0.2 0.5 0.4 0.6 0.8 0.4 0 0.6 0.3 0.7 0.7 0.1 0.2 0.4 0.4 0.6 0.5 0.2 0.7 0.3 1.4 0.2 2.1-0.1 0.7-0.2 1.4-0.3 2.1 0-0.1-0.1-0.2-0.2-0.3z"></path><path fill="#e3314e" d="m25.2 23.7c-0.7 0.5-1.5 0.9-2.2 1.3v-0.4c-0.3 0.1-0.6 0.1-0.9-0.1 0.2 0 0.3-0.1 0.4-0.2 0.1 0.1 0.2 0.1 0.3 0.1 0.2-0.4 0.2-0.9 0.2-1.4h-0.6c-0.1-0.4-0.3-0.7-0.7-0.8-0.1 0-0.1 0.1-0.1 0.2 0 0.2 0 0.4 0 0.6-0.2 0-0.4 0-0.5-0.1 0-0.1-0.1-0.3-0.2-0.4l-0.1 0.2c0-0.2-0.1-0.4-0.2-0.5 0.1-0.2 0.1-0.5 0.1-0.7 0.2 0 0.3 0 0.5 0.1 0.4-0.2 0.4-0.3 0.1-0.4-0.3 0.1-0.5 0.1-0.8 0 0 0.3 0 0.6-0.1 0.9l-0.2-0.1c-0.1 0.6-0.2 0.6-0.4 0.1 0.3-0.3 0.4-0.6 0.2-1 0 0.1-0.1 0.2-0.1 0.3 0-0.1-0.1-0.2-0.1-0.2-0.1 0.2-0.2 0.3-0.4 0.4 0.1-0.3 0.3-0.6 0.4-0.8 0.1 0 0.2 0.1 0.3 0.1 0.1-0.2 0.3-0.3 0.6-0.5-0.2-0.1-0.1-0.2 0-0.3 0-0.4 0.1-0.5 0.4-0.3 0-0.1 0-0.2 0.1-0.3 0.2 0.1 0.3 0.2 0.3 0.4 0.1-0.2 0-0.5-0.2-0.6 0.2-0.2 0.2-0.4 0.1-0.6 0.2 0 0.3-0.1 0.4-0.3h0.5c0.1 0.6 0 1.1 0 1.6l1.1 0.2c0.2 0.4 0.2 0.7 0 1 0.1 0.1 0.1 0.2 0.1 0.4h0.5c0 0.9 0 0.9 0.1 0h0.3c0 0.1 0 0.3 0.1 0.4 0.5 0.3 0.8 0.6 1.1 1-0.3 0.2-0.6 0.3-0.9 0.5 0.1 0.2 0.3 0.2 0.5 0.2z"></path><path fill="#ea4059" d="m20.5 18.8c-0.7 1.1-1.4 2.2-2.2 3.2-0.1 0-0.2 0.1-0.3 0.2 0-0.2-0.1-0.4 0-0.6 0-1 0.1-2 0.2-2.9l0.1-0.3c0.3-0.1 0.6-0.3 0.9-0.4 0.3 0.1 0.5 0 0.8 0l0.1 0c-0.1 0.1-0.1 0.2 0 0.3 0-0.1 0.1-0.1 0.2 0 0.1 0.2 0.2 0.3 0.2 0.5z"></path><path fill="#ce4356" d="m17.2 22.8c0-0.3-0.1-0.6-0.2-0.9 0.1 0.1 0.2 0.2 0.2 0.3 0.1-0.7 0.2-1.4 0.3-2.1 0.1-0.7 0-1.4-0.2-2.1-0.2-0.1-0.5-0.3-0.7-0.5 0-0.4-0.2-0.7-0.6-0.7-0.1-0.4-0.3-0.6-0.6-0.8 0-0.3-0.1-0.4-0.3-0.1 0 0.3 0.2 0.6 0.3 0.8 0 0.1-0.1 0.2-0.1 0.4 0.4 0 0.5 0.2 0.3 0.5 0.1 0.3 0.2 0.6 0.2 0.9-0.5-1-0.9-2-1.2-3-0.1-0.5-0.3-0.9-0.4-1.4 1.2 1.4 2.4 2.8 3.5 4.2-0.1 1.4-0.2 2.8-0.3 4.2-0.1 0.2-0.1 0.2-0.2 0.3z"></path><path fill="#cf5d76" d="m28.2 18.7c0.4 0.6 0.5 1.4 0.3 2.1 0 0.2-0.1 0.4-0.2 0.5 0.1-0.4 0.2-0.8 0.2-1.3-0.1-0.4-0.1-0.9-0.3-1.3z"></path><path fill="#d0435b" d="m5.7 18.8c0.6 0.7 1 1.5 1.5 2.4-0.2-0.1-0.3-0.1-0.4 0 0-0.1 0-0.3-0.1-0.4-0.1 0-0.2-0.1-0.3-0.2-0.1-0.6-0.3-1-0.6-1.4-0.1 0.2-0.2 0.2-0.4 0.1 0.1-0.2 0.2-0.4 0.3-0.5z"></path><path fill="#de3a48" d="m14.6 16.9c0.8 2 1.5 4 2.2 6.1-0.2 0-0.3 0-0.5-0.1l0.1-0.2-0.3-0.7 0.1-0.2c-0.1 0-0.2 0-0.3-0.1 0.2-0.2 0.2-0.4 0.1-0.6-0.3 0.2-0.5 0.2-0.7-0.1 0-0.2 0-0.4 0-0.6-0.1 0-0.2 0.1-0.3 0.3-0.1-0.2-0.1-0.4-0.1-0.6 0.1 0.2 0.2 0.2 0.4 0.1 0-0.3 0-0.6 0-0.9 0-0.2-0.1-0.4-0.1-0.6l-0.6 0.2v-2z"></path><path fill="#cb555c" d="m10 21.1c0.4 0.1 0.6 0.4 0.5 0.8-0.2-0.2-0.3-0.5-0.5-0.8z"></path><path fill="#e43347" d="m23 25c-0.3 0.1-0.6 0.3-0.8 0.5-0.7 0.4-1.4 0.8-2.1 1.1 0.1-0.2 0.3-0.3 0.5-0.3-0.4-0.2-0.4-0.3 0-0.4l-0.4-0.3c-0.1 0.1-0.1 0.2-0.1 0.3-0.1 0-0.2 0-0.3-0.1 0 0 0-0.1 0-0.2-0.1-0.1-0.2-0.2-0.3-0.4 0.1-0.1 0-0.2-0.2 0-0.1-0.2-0.2-0.4-0.4-0.5 0-0.4-0.1-0.7-0.3-1.1-0.3-0.1-0.4 0.1-0.4 0.4h0.3v0.4c-0.2 0.1-0.3 0-0.5-0.1 0.1-0.1 0.1-0.2 0.1-0.3h-0.2v0.4c-0.2 0.1-0.3 0-0.3-0.1 0.1-0.1 0.2-0.2 0.2-0.4 0.1-0.3 0.4-0.6 0.6-0.9 0.2-0.1 0.4-0.1 0.5 0 0.2-0.1 0.3-0.3 0.4-0.4-0.1-0.1-0.2-0.2-0.2-0.4 0.2-0.2 0.3-0.4 0.3-0.6 0.2-0.1 0.3-0.2 0.4-0.4 0 0 0.1 0.1 0.1 0.2 0-0.1 0.1-0.2 0.1-0.3 0.2 0.4 0.1 0.7-0.2 0.9 0.2 0.6 0.3 0.6 0.4 0l0.2 0.1c0.1-0.3 0.1-0.6 0.1-0.9 0.3 0.1 0.5 0.1 0.8 0 0.3 0.1 0.3 0.2-0.1 0.4-0.2-0.1-0.3-0.1-0.5-0.1 0 0.2 0 0.5-0.1 0.7 0.1 0.1 0.2 0.3 0.2 0.5l0.1-0.2c0.1 0.1 0.2 0.3 0.2 0.4 0.1 0.1 0.3 0.1 0.5 0.1 0-0.2 0-0.4 0-0.6 0-0.1 0-0.2 0.1-0.2 0.4 0.1 0.6 0.4 0.7 0.8h0.6c0 0.5 0 1-0.2 1.4-0.1 0-0.2 0-0.3-0.1-0.1 0.1-0.2 0.2-0.4 0.2 0.3 0.2 0.6 0.2 0.9 0.1v0.4z"></path><path fill="#de2f55" d="m6.7 20.8c0.1 0.1 0.1 0.3 0.1 0.4 0.1-0.1 0.2-0.1 0.4 0-0.1 0.6-0.1 1.2 0 1.8 0 0.2 0 0.5 0.1 0.7-0.1 0.2-0.1 0.5-0.1 0.8l0.5-0.2c0.3 0.8 0.4 1.6 0.1 2.5 0-0.3 0-0.6-0.1-0.9-0.6 3.3-1 6.7-1.4 10.1h-3.8c-0.1-1-0.1-2 0-2.9h0.3v-1c0.4-1.6 0.5-3.2 0.6-4.8 0.1-0.1 0.1-0.2 0.2-0.4-0.1-0.2-0.1-0.4-0.1-0.6 0.3-1.1 0.5-2.2 0.6-3.3h-0.4c0-0.2 0-0.4 0.1-0.6 0.1 0.1 0.1 0.2 0.1 0.3 0.1 0 0.1-0.1 0.2-0.2 0-0.3 0-0.6 0-0.8 0-0.1 0.1-0.1 0.2-0.1 0.1-0.4 0.1-0.8 0.2-1.1-0.1-0.2-0.1-0.4 0-0.4-0.2-0.1-0.2-0.2 0-0.3-0.1-0.2-0.1-0.1-0.2 0-0.1-0.4 0-0.5 0.3-0.3l-0.1 0.1c0.2 0.2 0.3 0.3 0.3 0.5l0.1-0.1c-0.1-0.3-0.1-0.5-0.1-0.8l-0.1 0.1c-0.3-0.4-0.4-0.8-0.4-1.3 0.1 0.1 0.2 0.2 0.3 0.2 0.1 0.2 0.1 0.4 0 0.7 0.2 0 0.3-0.1 0.5-0.2-0.1 0.2-0.2 0.3-0.3 0.4 0.2 0 0.3 0.1 0.4 0.2-0.1 0.2-0.1 0.4-0.2 0.6 0.1 0.1 0.1 0.1 0.1 0.2l0.1-0.1c0.2 0.3 0.4 0.3 0.7 0 0.1 0.3 0.2 0.7 0.1 1-0.1-0.2-0.1-0.4-0.2-0.6l-0.1 0.1c0.1 0.1 0.1 0.2 0.1 0.2 0 0.2 0 0.2-0.1 0.1-0.1 1.6-0.4 3.2-0.7 4.7 0 0.2 0.1 0.3 0.2 0.5-0.1 0.2-0.2 0.3-0.2 0.1-0.3 1.7-0.5 3.4-0.8 5.2l0.1 1.1c0.3-1.3 0.5-2.6 0.7-3.8-0.1-0.4-0.1-0.7 0-1l0 0.3 0.1-1.3 0.3-0.5c0-0.7 0.1-1.3 0.2-1.9l0-0.3c-0.1 0.2-0.2 0.3-0.2 0.5-0.1-0.1-0.1-0.3 0-0.5 0-0.3 0.1-0.4 0.3-0.2 0-0.2 0-0.3-0.1-0.5 0-0.2 0.1-0.2 0.2-0.1 0-0.6 0.1-1.2 0.2-1.8 0.1-0.1 0.1-0.1 0.2 0 0.1 0.1 0.1 0.2 0.1 0.3 0.1 0 0.2-0.1 0.3-0.2l-0.1-0.1c0.2-0.1 0.2-0.3 0.2-0.5z"></path><path fill="#c75f67" d="m18 21.6c-0.1 0.2 0 0.4 0 0.6 0.1-0.1 0.2-0.2 0.3-0.2-0.1 0.2-0.3 0.5-0.4 0.7-0.1-0.1-0.2-0.3-0.1-0.5l0.2-0.6z"></path><path fill="#d63e5a" d="m7.2 21.2c0.5 0.8 1 1.6 1.4 2.5-0.2 0-0.4-0.1-0.5-0.3l-0.1 0.1-0.1-0.3c-0.1 0.1-0.1 0.1-0.1-0.1 0.1-0.3 0-0.4-0.4-0.3l-0.1-0.1c0.3-0.8 0.2-0.8-0.1-0.1 0 0.1 0 0.3 0 0.4-0.1-0.6-0.1-1.2 0-1.8z"></path><path fill="#d14451" d="m31 18.7c0.2 0 0.3 0 0.5 0-0.1 0.1-0.1 0.3-0.1 0.4 0.2 1.2 0.2 2.3-0.1 3.4 0-0.1-0.1-0.1-0.2 0l-0.2 0.8c-0.2 0.1-0.5 0.3-0.7 0.3 1.3-1.5 1.6-3.1 0.8-4.9z"></path><path fill="#d64353" d="m19.4 21.6c0 0.2-0.1 0.4-0.3 0.6 0 0.2 0.1 0.3 0.2 0.4-0.1 0.1-0.2 0.3-0.4 0.4-0.1-0.1-0.3-0.1-0.5 0 0.1-0.2 0.2-0.4 0.3-0.6 0.2-0.3 0.5-0.6 0.7-0.8z"></path><path fill="#ca4d56" d="m11.1 11c0.1 0 0.2 0.1 0.2 0.2-1.1 0.6-2.1 1.2-3.2 1.9-0.9 0.8-1.4 1.8-1.3 3.1 0.3 1 0.7 2 1.3 2.8 1.8 3 3.5 5.9 5.1 8.9 0.6 0.7 1.4 1.1 2.3 1.2 0.4 0.1 0.8 0.1 1.2 0.1 0.1 0 0.2 0 0.3 0.1-0.5 0.1-1 0.1-1.5 0.1h-0.6c-0.7-0.3-1.4-0.8-1.9-1.5-1.7-2.9-3.4-5.9-5.2-8.8-0.4-0.7-0.8-1.5-1.1-2.3-0.4-1.8 0.2-3.3 1.7-4.3 0.9-0.5 1.8-1 2.7-1.5z"></path><path fill="#d8555d" d="m16.8 23c0.2 0.3 0.3 0.7 0.4 1 0.2 0.1 0.4 0.1 0.6-0.1 0 0.2-0.1 0.3-0.2 0.4-0.2 0-0.3-0.1-0.5-0.1 0-0.2-0.1-0.4-0.3-0.5 0-0.2 0-0.5 0-0.7z"></path><path fill="#d44a56" d="m30.2 23.6c-0.2 0.3-0.3 0.5-0.5 0.8-0.2 0-0.3 0-0.4 0-0.2 0.2-0.3 0.4-0.5 0.6-0.1-0.2-0.2-0.2-0.4-0.2 0.6-0.4 1.2-0.8 1.8-1.2z"></path><path fill="#cf4660" d="m8.6 23.8c0.1 0 0.2 0.1 0.2 0.2 0.5 0.9 1.1 1.8 1.6 2.8-0.3-0.2-0.5-0.4-0.9-0.6 0-0.2 0-0.4 0-0.6-0.2-0.1-0.3-0.3-0.4-0.6-0.1 0-0.1 0-0.2 0.1-0.1-0.2 0-0.4 0.1-0.6-0.3-0.2-0.4-0.4-0.4-0.7z"></path><path fill="#c74e61" d="m27.2 23.3c0.2 0 0.3 0 0.1 0.1-3.3 2-6.7 4-10.1 5.9h-0.2c-0.1-0.1-0.2-0.1-0.3-0.1 0.3-0.1 0.6-0.3 0.9-0.4 1.7-1 3.4-1.9 5-2.9 1.6-0.9 3.1-1.8 4.6-2.6z"></path><path fill="#d3424f" d="m27.1 25.5v0.3c-0.3 0-0.3 0-0.1 0.2-0.1 0.2-0.3 0.2-0.5 0.1-0.3 0.1-0.7 0.3-1 0.5-0.1 0.2-0.1 0.3-0.1 0.4-0.4 0.1-0.8 0.3-1.1 0.4 0.1 0.1 0.1 0.2 0.1 0.4h-0.2c0-0.1-0.1-0.1-0.1-0.1-0.2 0.4-0.5 0.4-0.8 0.2-0.3 0.1-0.6 0.2-0.8 0.3 1.5-0.9 3-1.8 4.6-2.7z"></path><path fill="#e12e5f" d="m0 25.9h1.4c0 0.3 0 0.6 0 0.9 0 0.1-0.1 0.2-0.2 0.2 0.3 0 0.4 0.1 0.1 0.3 0.1 0.1 0.2 0.1 0.3-0.1 0.2 0.2 0.2 0.4 0 0.5 0.1 0.1 0.1 0.2 0.2 0.3-0.1 0.7-0.1 1.5 0 2.2 0.3-0.1 0.6 0 0.8 0.2 0-0.1 0.1-0.2 0.1-0.2 0.1 0.6 0.1 1.2 0.1 1.9v1h-0.3c-0.1 0.9-0.1 1.9 0 2.9h-2.5v-10.1z"></path><path fill="#fcf2f0" d="m8.6 18.7c0.5 0.8 0.9 1.6 1.4 2.4 0.2 0.3 0.3 0.6 0.5 0.8 1 1.8 2.1 3.6 3.1 5.4 0.2 0.4 0.5 0.7 0.9 0.8 0.2 0.3 0.5 0.4 0.8 0.4 0.5 0.1 1 0.1 1.5 0 0 0 0.1 0 0.1-0.1 0.2 0 0.3 0 0.5-0.1 0.4-0.3 0.9-0.5 1.3-0.8 0.5-0.3 1-0.6 1.4-0.9 0.7-0.3 1.4-0.7 2.1-1.1 0.1 0 0.2 0 0.3 0.1 0 0 0 0 0 0.1 0 0.1 0.1 0.1 0.1 0.2-1.6 1-3.3 1.9-5 2.9-0.7 0.2-1.4 0.3-2.1 0.3-0.9-0.1-1.7-0.5-2.3-1.2-1.6-3-3.3-5.9-5.1-8.9 0.4 0 0.5 0.2 0.5 0.6h0.3c-0.1-0.3-0.2-0.6-0.3-0.9z"></path><path fill="#ce4650" d="m20.1 26.6c-0.4 0.3-0.9 0.6-1.4 0.9 0.1-0.3 0.3-0.5 0.6-0.5 0.2-0.3 0.5-0.5 0.8-0.4z"></path><path fill="#e4343e" d="m30.2 17.2c0.1 0 0.2 0 0.4 0.1 0.1 0.3 0.3 0.4 0.5 0.3-0.1-0.1-0.2-0.2-0.2-0.4h0.4c0 0.3 0.1 0.4 0.3 0.3 0.2 0.4 0.5 0.4 0.8 0.2 0.4 0.1 0.4 0.2 0 0.4 0.5 0.1 0.9 0.3 1.3 0.6-0.2 0.1-0.4 0.1-0.5 0.2-0.1 0.3-0.2 0.6-0.4 0.8-0.3-0.2-0.6-0.2-0.9 0-0.1-0.1-0.1-0.1 0-0.2l0.4-0.2c-0.3 0.1-0.5 0-0.7 0-0.1 0.1-0.1 0.3 0 0.4 0.2 0 0.3 0.1 0.4 0.2 0.2 0 0.4-0.1 0.6-0.2 0.1 0 0.2 0.1 0.3 0.1 0.1 0.2 0.1 0.2-0.1 0.3 0.3 0.1 0.3 0.2 0 0.2 0.2 0.1 0.2 0.1 0 0.2-0.1-0.1-0.3-0.1-0.4 0 0.2 0.2 0.2 0.3-0.1 0.2-0.1 0-0.2 0-0.2 0.1 0.3 0.1 0.6 0.1 1 0 0 0.3 0 0.5 0.1 0.8 0.1 0 0.3 0.1 0.4 0.1-0.3 0.2-0.6 0.3-0.9 0.4l-0.3-0.2c0 0.1 0 0.2 0 0.3-0.3 0.1-0.5 0.1-0.7 0-0.1-0.2-0.1-0.3 0.1-0.3l-0.2-0.3c-0.1 0.3-0.1 0.6-0.1 0.9 0.2 0.1 0.4 0 0.6 0 0.6 0.1 1.1 0.4 1.5 0.8-0.5 0.1-0.6 0.2-0.1 0.5 0.2-0.2 0.3-0.3 0.5-0.1 0.1-0.1 0.3-0.1 0.4 0-0.1 0.1-0.2 0.2-0.2 0.3 0.1 0.2 0.2 0.2 0.3 0 0 0.2 0 0.5 0 0.7 0 0.1-0.1 0.2-0.2 0.2 0.2 0.1 0.2 0.3 0.2 0.4 0.2 0.1 0.4 0.1 0.6 0.2 0.2-0.1 0.1-0.2 0-0.3l0.1 0c0.1 0.1 0.3 0.2 0.5 0.3 0.1-0.1 0.1-0.2 0.3-0.2v9.3c-0.3 0-0.5 0.1-0.7 0.2l-0.2-0.2 0.4 0-1.2-0.1c0.3-0.1 0.3-0.1 0.1-0.3-0.1 0.1-0.2 0.2-0.3 0.1 0.2-0.1 0.3-0.2 0.3-0.4 0.1-0.1 0.3-0.1 0.4-0.2-0.2-0.1-0.3-0.2-0.5-0.4l0.2-0.2c-0.3 0-0.5 0-0.8 0.1-0.6-0.1-0.8-0.4-0.4-1-0.2-0.1-0.3-0.3-0.2-0.6 0.4 0 0.4-0.1 0.1-0.2-0.1-0.1-0.1-0.3-0.1-0.4 0.2 0.1 0.5 0.1 0.7 0-0.2-0.1-0.4-0.2-0.6-0.2-0.1-0.1-0.2-0.2-0.3-0.3 0.5 0 0.9 0.1 1.3 0.4 0.1 0 0.3-0.1 0.5-0.2-0.2-0.3-0.6-0.5-1.1-0.6-0.1 0-0.2 0.1-0.2 0.2-0.4-0.1-0.4-0.2-0.1-0.3 0-0.1-0.1-0.1-0.2-0.1v-0.2c0.1 0 0.2-0.1 0.2-0.1-0.1-0.2-0.2-0.4-0.3-0.5l0.1-0.1c0.2 0.1 0.5 0.3 0.6 0.6 0.1-0.1 0.1-0.1 0.1-0.2 0.1 0.1 0.2 0.1 0.3 0-0.2-0.3-0.5-0.6-0.8-0.7-0.2 0.1-0.4 0.1-0.7 0.1l0.7-0.3c-0.2-0.2-0.4-0.2-0.7-0.1-0.1 0.1-0.1 0.2 0 0.2-0.1 0.1-0.1 0.1-0.2 0.2 0-0.1-0.1-0.2-0.2-0.2-0.2 0-0.4 0.1-0.6 0.1 0-0.1 0-0.2-0.1-0.2-0.1 0-0.2 0-0.3 0 0.1-0.1 0.3-0.1 0.4-0.1 0-0.1 0-0.2 0-0.4-0.1 0-0.2 0.1-0.3 0.1-0.1 0-0.1-0.1-0.2-0.2-0.3 0.3-0.7 0.3-1.1 0 0.3-0.1 0.6-0.3 0.9-0.5-0.2-0.1-0.4-0.1-0.6-0.1-0.3-0.2-0.2-0.3 0.1-0.3-0.1-0.2-0.2-0.3-0.4-0.5 0.2-0.1 0.2-0.2 0.1-0.4 0.3-0.2 0.6-0.3 1-0.2-0.1 0-0.2 0.1-0.3 0.2l0.2 0c0.4-0.1 0.8-0.2 1.2-0.3-0.2-0.2-0.3-0.3-0.5 0-0.1-0.2-0.1-0.4-0.1-0.6-0.3 0.1-0.5 0-0.7-0.1-0.2 0.1-0.3 0.1-0.5 0.1l0.2-0.1c-0.2-0.1-0.3 0-0.4 0.1 0-0.2 0-0.3 0-0.4-0.1 0-0.2 0-0.3 0l0.1 0.1c-0.5 0.2-0.7 0-0.7-0.5 0.1 0 0.2 0 0.4 0 0.2-0.3 0.3-0.5 0.5-0.8 0.2 0 0.5-0.2 0.7-0.3l0.2-0.8c0.1-0.1 0.2-0.1 0.2 0 0.3-1.1 0.3-2.2 0.1-3.4 0-0.1 0-0.3 0.1-0.4-0.2 0-0.3 0-0.5 0-0.3-0.5-0.6-0.9-0.8-1.5z"></path><path fill="#cd5a61" d="m14.5 28.1c0.8 0.4 1.6 0.5 2.4 0.3 0 0.1-0.1 0.1-0.1 0.1-0.5 0.1-1 0.1-1.5 0-0.3 0-0.6-0.1-0.8-0.4z"></path><path fill="#e33342" d="m29.3 24.4c0 0.5 0.2 0.7 0.7 0.5l-0.1-0.1c0.1 0 0.2 0 0.3 0 0 0.1 0 0.2 0 0.4 0.1-0.1 0.2-0.2 0.4-0.1l-0.2 0.1c0.2 0 0.3 0 0.5-0.1 0.2 0.1 0.4 0.2 0.7 0.1 0 0.2 0 0.4 0.1 0.6 0.2-0.3 0.3-0.2 0.5 0-0.4 0.1-0.8 0.2-1.2 0.3l-0.2 0c0.1-0.1 0.2-0.2 0.3-0.2-0.4-0.1-0.7 0-1 0.2 0.1 0.2 0.1 0.3-0.1 0.4 0.2 0.2 0.3 0.3 0.4 0.5-0.3 0-0.4 0.1-0.1 0.3 0.2 0 0.4 0 0.6 0.1-0.3 0.2-0.6 0.4-0.9 0.5 0.4 0.3 0.8 0.3 1.1 0 0.1 0.1 0.1 0.2 0.2 0.2 0.1 0 0.2-0.1 0.3-0.1 0 0.2 0 0.3 0 0.4-0.1 0-0.3 0-0.4 0.1 0.1 0 0.2 0 0.3 0 0.1 0 0.1 0.1 0.1 0.2 0 0-0.1 0.1-0.1 0.1 0.1 0.2 0.2 0.3 0.4 0.4l-0.4 0.2c0.5 0.5 0.4 0.7-0.3 0.6-0.2-0.1-0.4-0.3-0.6-0.4-0.1 0-0.2 0.1-0.4 0.1v0.4c-0.2 0-0.3 0-0.4 0.2-0.1-0.1-0.1-0.1-0.2-0.1l0.6 0.4c0.2-0.1 0.4-0.3 0.7-0.4-0.1-0.1-0.3-0.2-0.4-0.3-0.1 0 0-0.1 0.1-0.2 0.2 0.2 0.4 0.3 0.6 0.5 0.2 0.1 0.3 0.1 0.5 0-0.3 0.2-0.7 0.4-1.1 0.5 0.4 0 0.8 0 1.1-0.2l0.1 0.1c-0.1 0.1-0.3 0.1-0.4 0.2l0.1 0.1c-0.2-0.1-0.5 0-0.8 0.1-0.1-0.1-0.3-0.1-0.5-0.2-0.3 0.1-0.7 0.2-1 0.3l0.2 0.1c0.3-0.2 0.6-0.2 1-0.1-0.1 0.2 0 0.3 0.2 0.3 0.1 0.1 0 0.2 0 0.2-0.3-0.2-0.6-0.3-0.9-0.2 0.3 0.1 0.5 0.2 0.7 0.3-0.2 0.1-0.4 0.1-0.5-0.1-0.1 0.3-0.1 0.5-0.3 0.8 0-0.3-0.1-0.6-0.3-0.8-0.2-0.1-0.4-0.1-0.5 0-0.5-0.1-1-0.1-1.5 0 0-0.2 0-0.4 0.1-0.6 0.2 0.2 0.5 0.2 0.7 0-0.2 0-0.4 0-0.5-0.2-0.1 0.1-0.2 0.1-0.3 0.1 0-0.2 0-0.4 0.1-0.6 0-0.3-0.1-0.5-0.3-0.8 0.4-0.1 0.4-0.2 0.2-0.4-0.1 0.1-0.3 0.1-0.4 0-0.2 0.2-0.4 0.2-0.7 0.1 0.2-0.1 0.1-0.2 0-0.2-0.2 0.3-0.3 0.3-0.4 0 0-0.1 0.1-0.2 0.3-0.2-0.3-0.2-0.6-0.4-1-0.4-0.2 0.1-0.4 0.1-0.7 0.1v-0.4c-0.2 0-0.3 0.1-0.5 0.3 0-0.1-0.1-0.1-0.2-0.1 0.3-0.1 0.4-0.3 0.5-0.5h0.2c0-0.2 0-0.3-0.1-0.4 0.3-0.1 0.7-0.3 1.1-0.4 0-0.1 0-0.2 0.1-0.4 0.3-0.2 0.7-0.4 1.1-0.5 0.1 0.1 0.3 0.1 0.4-0.1-0.2-0.2-0.2-0.2 0.1-0.2v-0.3c0.4-0.3 0.8-0.5 1.3-0.7 0.2 0 0.3 0 0.4 0.2 0.2-0.2 0.3-0.4 0.5-0.6z"></path><path fill="#de2f54" d="m8.6 23.7v0.1c0 0.3 0.1 0.5 0.4 0.7-0.1 0.2-0.2 0.4-0.1 0.6 0.1-0.1 0.1-0.1 0.2-0.1 0.1 0.3 0.2 0.5 0.4 0.6 0 0.2 0 0.4 0 0.6 0.4 0.2 0.6 0.4 0.9 0.6 0.4 0.6 0.8 1.3 1.1 2 0 0.4 0.1 0.7 0.2 1.1 0-0.1 0.1-0.2 0.2-0.3 0.2 0.3 0.4 0.7 0.7 1 0.3 0.2 0.6 0.3 0.9 0.4l0.4 0.2c0 0.1 0.1 0.2 0.2 0.2 0.3 0.1 0.6 0.2 0.9 0.2 0.1 0.2 0.1 0.4 0 0.6 0-0.4-0.1-0.4-0.3-0.2 0.1 0.1 0.1 0.2 0.1 0.4-0.1 0.2-0.1 0.4-0.2 0.7h-0.2c0 0.3-0.1 0.6-0.4 0.9 0-0.1 0-0.1-0.1-0.1-0.2 0.2-0.3 0.4-0.3 0.6h0.3c0 0.3 0.1 0.5 0.4 0.6 0.1 0.3 0.1 0.6 0.1 0.9h-8.1c0.4-3.4 0.8-6.8 1.4-10.1 0.1 0.3 0.1 0.6 0.1 0.9 0.3-0.9 0.2-1.7-0.2-2.5l-0.4 0.2c0-0.3 0-0.6 0.1-0.8-0.1-0.2-0.1-0.5-0.1-0.7 0-0.1 0-0.3 0-0.4 0.3-0.7 0.4-0.7 0.1 0.1l0.1 0.1c0.4-0.1 0.5 0 0.4 0.3 0 0.2 0 0.2 0.1 0.1l0.1 0.3 0.1-0.1c0.1 0.2 0.3 0.3 0.5 0.3z"></path><path fill="#fcd8d8" d="m17.6 28.8c-0.3 0.1-0.6 0.3-0.9 0.4-0.4 0-0.8 0-1.2-0.1 0.7 0 1.4-0.1 2.1-0.3z"></path><path fill="#f6b8b6" d="m17 29.3h0.2c-0.3 0.1-0.6 0.2-1 0.2-0.2 0-0.5-0.1-0.7-0.1 0.5 0 1 0 1.5-0.1z"></path><path fill="#cf4962" d="m11.5 28.8c0.3 0.3 0.5 0.7 0.7 1.1 0.4 0.4 0.8 0.8 1.3 1.1-0.3-0.1-0.6-0.2-0.9-0.4-0.3-0.3-0.5-0.7-0.7-1-0.1 0.1-0.2 0.2-0.2 0.3-0.1-0.4-0.2-0.7-0.2-1.1z"></path><path fill="#d14155" d="m20.1 29.6c0 0.1 0.1 0.2 0.2 0.3l-0.1 0.1c-0.2-0.1-0.3-0.1-0.5 0-0.2 0-0.2 0.1 0 0.1-0.2 0.1-0.3 0.1-0.4 0.1-0.1 0.2-0.1 0.4-0.1 0.6-0.2 0-0.5 0-0.8-0.1-0.2 0.2-0.5 0.3-0.7 0.5-0.3 0.1-0.6 0.1-0.8 0.2l0.2-0.2c0.1-0.1 0.3-0.1 0.4-0.2 0.9-0.5 1.7-1 2.6-1.4z"></path><path fill="#e13146" d="m24.2 27.8c-0.1 0.2-0.2 0.4-0.5 0.5 0.1 0 0.2 0 0.2 0.1 0.2-0.2 0.3-0.3 0.5-0.3v0.4c0.3 0 0.5 0 0.7-0.1 0.4 0 0.7 0.2 1 0.4-0.2 0-0.3 0.1-0.3 0.2 0.1 0.3 0.2 0.3 0.4 0 0.1 0 0.2 0.1 0 0.2 0.3 0.1 0.5 0.1 0.7-0.1 0.1 0.1 0.3 0.1 0.4 0 0.2 0.2 0.2 0.3-0.2 0.4 0.2 0.3 0.3 0.5 0.3 0.8-0.1 0.2-0.1 0.4-0.1 0.6 0.1 0 0.2 0 0.3-0.1 0.1 0.2 0.3 0.2 0.5 0.3-0.2 0.1-0.5 0.1-0.7-0.1-0.1 0.2-0.1 0.4-0.1 0.6 0.5-0.1 1-0.1 1.5 0 0.1 0.2 0.3 0.4 0.5 0.6-0.2 0.1-0.4 0.1-0.5 0.2-0.1 0.2 0 0.3 0.1 0.4-0.2 0.2-0.4 0.3-0.7 0.5 0 0.3 0.2 0.5 0.6 0.4-0.1 0.3 0 0.5 0 0.8 0.2 0 0.3-0.1 0.4-0.3 0 0.3 0.1 0.3 0.3 0.2 0.3 0.1 0.5 0.2 0.8 0.2-0.1 0.3-0.1 0.5-0.1 0.8-0.1 0-0.2 0-0.3 0.1 0.1 0 0.2 0 0.3 0.1 0 0.1 0 0.2 0.1 0.4h-5.9c0.1-0.3 0.1-0.5 0-0.6 0.3 0 0.5 0 0.8 0 0.4-0.1 0.9-0.3 1.3-0.6-0.2 0-0.4-0.1-0.6-0.2-0.5-0.2-1-0.2-1.5-0.2l0.1-0.2c-0.1 0-0.3-0.1-0.5-0.1l0.2-0.1c-0.1 0-0.2-0.1-0.3-0.2-0.1 0.1-0.2 0-0.3-0.1l0.2-0.1c0.1 0 0.3 0.1 0.5 0.1 0.1 0.1 0.2 0.2 0.3 0.1-0.3-0.3-0.2-0.4 0.2-0.4-0.3-0.1-0.3-0.3-0.1-0.5-0.2-0.1-0.3-0.3-0.3-0.6-0.2-0.2-0.4-0.4-0.6-0.7-0.1 0.1-0.2 0.1-0.4 0.2 0.2 0.1 0.4 0.3 0.5 0.5l-0.1 0.1c-0.2-0.4-0.5-0.5-0.9-0.5 0.3-0.2 0.3-0.3-0.1-0.4-0.1 0.1-0.2 0.1-0.2 0.2 0 0.2 0 0.3-0.1 0.4 0.1 0.1 0.2 0.2 0.3 0.2-0.2 0-0.4 0-0.6 0-0.1 0.2-0.2 0.4-0.3 0.7-0.1 0.1-0.2 0.1-0.3 0.1 0-0.2 0-0.4-0.1-0.6-0.1 0.2-0.3 0.4-0.4 0.5 0.5 0.3 0.6 0.6 0.2 1-0.2 0-0.2-0.2 0-0.3-0.2-0.1-0.3 0-0.4 0.1-0.1-0.6-0.2-0.6-0.3 0-0.1 0-0.2 0-0.3 0 0.1 0.1 0.3 0.2 0.4 0.3-0.2 0.2-0.2 0.3 0.2 0.1 0.1 0.2 0.2 0.4 0.3 0.6 0.2 0.1 0.4 0 0.6-0.1-0.2 0-0.3-0.1-0.1-0.1 0.5-0.2 0.9-0.2 1.3-0.1 0 0.3-0.1 0.3-0.4 0.2-0.7 0.2-1.4 0.4-2.1 0.6-0.2 0.2-0.3 0.4-0.1 0.7h-0.9c0.3-0.5 0.6-1 1-1.4-0.1-0.1-0.2-0.1-0.3 0-0.1-0.2-0.1-0.4 0-0.5 0-0.1-0.1-0.1-0.2-0.2l0.7-0.8c-0.2 0-0.4 0-0.6-0.1 0.1-0.1 0.1-0.2-0.1-0.2 0.2-0.2 0.2-0.4 0.1-0.5-0.2 0.1-0.3 0.2-0.5 0.1 0.2-0.1 0.3-0.3 0.2-0.5 0.2 0 0.2 0 0.3-0.1 0.1-0.2 0.2-0.4 0.4-0.4 0.1-0.1 0-0.2-0.1-0.3-0.2 0.3-0.5 0.5-0.7 0.8-0.1-0.1-0.1-0.2-0.1-0.3h-0.9v-0.2c-0.2 0-0.3 0-0.3 0.1-0.3-0.2-0.4-0.2-0.4 0.1-0.1 0-0.3 0-0.5 0 0.3-0.3 0.6-0.6 0.9-0.9 0.3 0.1 0.6 0.1 0.8 0.1 0-0.2 0-0.4 0.1-0.6 0.1 0 0.2 0 0.4-0.1-0.2 0-0.2-0.1 0-0.1 0.2-0.1 0.3-0.1 0.5 0l0.1-0.1c-0.1-0.1-0.2-0.2-0.2-0.3 0.8-0.5 1.5-1 2.4-1.4 0.2-0.1 0.5-0.2 0.8-0.3 0.3 0.2 0.6 0.2 0.8-0.2 0 0 0.1 0 0.1 0.1z"></path><path fill="#d05366" d="m13.9 31.2c0.2 0.1 0.4 0.2 0.6 0.2 0.8 0.1 1.6 0.1 2.4 0-0.1 0.1-0.1 0.1-0.2 0.2-0.6 0-1.1 0-1.7 0-0.3 0-0.6-0.1-0.9-0.2-0.1 0-0.2-0.1-0.2-0.2z"></path><path fill="#de304a" d="m18.4 30.7c-0.3 0.3-0.6 0.6-0.9 0.9 0.2 0 0.4 0 0.5 0 0-0.3 0.1-0.3 0.4-0.1 0-0.1 0.1-0.1 0.3-0.1v0.2h0.9c0 0.1 0 0.2 0.1 0.3 0.2-0.3 0.5-0.5 0.7-0.8 0.1 0.1 0.2 0.2 0.1 0.3-0.2 0-0.3 0.2-0.4 0.4-0.1 0.1-0.1 0.1-0.3 0.1 0.1 0.2 0 0.4-0.2 0.5 0.2 0.1 0.3 0 0.5-0.1 0.1 0.1 0.1 0.3-0.1 0.5 0.2 0 0.2 0.1 0.1 0.2 0.2 0.1 0.4 0.1 0.6 0.1l-0.7 0.8c0.1 0.1 0.2 0.1 0.2 0.2-0.1 0.1-0.1 0.3 0 0.5 0.1-0.1 0.2-0.1 0.3 0-0.4 0.4-0.7 0.9-1 1.4h-5.1c0-0.3 0-0.6-0.1-0.9-0.3-0.1-0.4-0.3-0.4-0.6h-0.3c0-0.2 0.1-0.4 0.3-0.6 0.1 0 0.1 0 0.1 0.1 0.3-0.3 0.4-0.6 0.4-0.9h0.2c0.1-0.3 0.1-0.5 0.2-0.7 0-0.2 0-0.3-0.1-0.4 0.2-0.2 0.3-0.2 0.3 0.2 0.1-0.2 0.1-0.4 0-0.6 0.6 0 1.1 0 1.7 0 0.1-0.1 0.1-0.1 0.2-0.2 0.2-0.1 0.5-0.1 0.8-0.2 0.2-0.2 0.5-0.3 0.7-0.5z"></path><path fill="#e33342" d="m36 34.6v1.4h-5.7c-0.1-0.2-0.1-0.3-0.1-0.4-0.1-0.1-0.2-0.1-0.3-0.1 0.1-0.1 0.2-0.1 0.3-0.1 0-0.3 0-0.5 0.1-0.8-0.3 0-0.5-0.1-0.8-0.2-0.2 0.1-0.3 0.1-0.3-0.2-0.1 0.2-0.2 0.3-0.4 0.3 0-0.3-0.1-0.5 0-0.8-0.4 0.1-0.6-0.1-0.6-0.4 0.3-0.2 0.5-0.3 0.7-0.5-0.1-0.1-0.2-0.2-0.1-0.4 0.1-0.1 0.3-0.1 0.5-0.2-0.2-0.2-0.4-0.4-0.5-0.6 0.1-0.1 0.3-0.1 0.5 0 0.2 0.2 0.3 0.5 0.3 0.8 0.2-0.3 0.2-0.5 0.3-0.8 0.1 0.2 0.3 0.2 0.5 0.1-0.2-0.1-0.4-0.2-0.7-0.3 0.3-0.1 0.6 0 0.9 0.2 0 0 0.1-0.1 0-0.2-0.2 0-0.3-0.1-0.2-0.3-0.4-0.1-0.7-0.1-1 0.1l-0.2-0.1c0.3-0.1 0.7-0.2 1-0.3 0.2 0.1 0.4 0.1 0.5 0.2 0.3-0.1 0.6-0.2 0.8-0.1l-0.1-0.1c0.1-0.1 0.3-0.1 0.4-0.2l-0.1-0.1c-0.3 0.2-0.7 0.2-1.1 0.2 0.4-0.1 0.8-0.3 1.1-0.5-0.2 0.1-0.3 0.1-0.5 0-0.2-0.2-0.4-0.3-0.6-0.5-0.1 0.1-0.2 0.2-0.1 0.2 0.1 0.1 0.3 0.2 0.4 0.3-0.3 0.1-0.5 0.3-0.8 0.4l-0.5-0.4c0.1 0 0.1 0 0.2 0.1 0.1-0.2 0.2-0.2 0.4-0.2v-0.4c0.2 0 0.3-0.1 0.4-0.1 0.2 0.1 0.4 0.3 0.6 0.4 0.7 0.1 0.8-0.1 0.3-0.6l0.4-0.2c-0.2-0.1-0.3-0.2-0.4-0.4 0 0 0.1-0.1 0.1-0.1 0.2 0 0.4-0.1 0.6-0.1 0.1 0 0.2 0.1 0.2 0.2 0.1-0.1 0.1-0.1 0.2-0.2-0.1 0-0.1-0.1 0-0.2 0.3-0.1 0.5-0.1 0.7 0.1l-0.7 0.3c0.3 0 0.5 0 0.7-0.1 0.3 0.1 0.6 0.4 0.8 0.7-0.1 0.1-0.2 0.1-0.3 0 0 0.1 0 0.1-0.1 0.2-0.1-0.3-0.4-0.5-0.6-0.6l-0.1 0.1c0.1 0.1 0.2 0.3 0.3 0.5 0 0-0.1 0.1-0.2 0.1v0.2c0.1 0 0.2 0 0.2 0.1-0.3 0.1-0.3 0.2 0.1 0.3 0-0.1 0.1-0.2 0.2-0.2 0.5 0.1 0.9 0.3 1.1 0.6-0.2 0.1-0.4 0.2-0.5 0.2-0.4-0.3-0.8-0.4-1.3-0.4 0.1 0.1 0.2 0.2 0.3 0.3 0.2 0 0.4 0.1 0.6 0.2-0.2 0.1-0.5 0.1-0.7 0 0 0.1 0 0.3 0.1 0.4 0.3 0.1 0.3 0.2-0.1 0.2-0.1 0.3 0 0.5 0.2 0.6-0.4 0.6-0.2 0.9 0.4 1 0.3-0.1 0.5-0.1 0.8-0.1l-0.2 0.2c0.2 0.2 0.3 0.3 0.5 0.5-0.1 0-0.3 0-0.4 0.1 0 0.2-0.1 0.3-0.3 0.4 0.1 0.1 0.2 0 0.3-0.1 0.2 0.2 0.2 0.2-0.1 0.3l1.2 0.1-0.4 0.1 0.2 0.1c0.2-0.1 0.4-0.2 0.7-0.2z"></path><path fill="#e1324d" d="m24.4 36h-4c-0.2-0.3-0.1-0.5 0.1-0.7 0.7-0.2 1.4-0.4 2.1-0.6 0.3 0.1 0.4 0.1 0.4-0.2-0.4-0.1-0.8-0.1-1.3 0.1-0.2 0-0.1 0.1 0.1 0.1-0.2 0.1-0.4 0.2-0.6 0.1-0.1-0.2-0.2-0.4-0.3-0.6-0.4 0.2-0.4 0.1-0.2-0.1-0.1-0.1-0.3-0.2-0.4-0.3 0.1 0 0.2 0 0.3 0 0.1-0.6 0.2-0.6 0.3 0 0.1-0.1 0.2-0.2 0.4-0.1-0.2 0.1-0.2 0.3 0 0.3 0.4-0.4 0.3-0.7-0.2-1 0.1-0.1 0.3-0.3 0.4-0.5 0.1 0.2 0.1 0.4 0.1 0.6 0.1 0 0.2 0 0.3-0.1 0.1-0.3 0.2-0.5 0.3-0.7 0.2 0 0.4 0 0.6 0-0.1 0-0.2-0.1-0.3-0.2 0.1-0.1 0.1-0.2 0.1-0.4 0-0.1 0.1-0.1 0.2-0.2 0.4 0.1 0.4 0.2 0.1 0.4 0.4 0 0.7 0.1 0.9 0.5l0.1-0.1c-0.1-0.2-0.3-0.4-0.5-0.5 0.2-0.1 0.3-0.1 0.4-0.2 0.2 0.3 0.4 0.5 0.6 0.7 0 0.3 0.1 0.5 0.3 0.6-0.2 0.2-0.2 0.4 0.1 0.5-0.4 0-0.5 0.1-0.2 0.4-0.1 0.1-0.2 0-0.3-0.1-0.2 0-0.4-0.1-0.5-0.1l-0.2 0.1c0.1 0.1 0.2 0.2 0.3 0.1 0.1 0.1 0.2 0.2 0.3 0.2l-0.2 0.1c0.2 0 0.4 0.1 0.5 0.1l-0.1 0.2c0.5 0 1 0 1.5 0.2 0.2 0.1 0.4 0.2 0.6 0.2-0.4 0.3-0.9 0.5-1.3 0.6-0.3 0-0.5 0-0.8 0 0.1 0.1 0.1 0.3 0 0.6z"></path></svg>