<?xml version="1.0"?><svg xmlns="http://www.w3.org/2000/svg" width="36" height="36" shape-rendering="geometricPrecision" text-rendering="geometricPrecision" image-rendering="optimizeQuality" fill-rule="evenodd" clip-rule="evenodd" viewBox="0 0 36 36"><path fill="#f69d2d" d="m17.1 1.9c2.3-0.1 4.5 0.3 6.6 1.2 0.1 0.1 0.2 0.3 0.1 0.5-0.3 0.6-0.6 1.1-1 1.5-5.3 5.1-11.2 9.2-17.8 12.5-0.9 0.4-1.8 0.6-2.8 0.5-0.1-6 2.3-10.6 7.4-13.9 2.4-1.3 4.8-2.1 7.5-2.3z" opacity=".975"></path><path fill="#f69d2d" d="m25.8 4.1c1.9 1 3.5 2.3 4.7 4 0.1 0.3 0 0.6-0.1 0.8-1.1 1.5-2.3 2.8-3.6 4-5.7 4.9-11.9 9.1-18.6 12.4-0.9 0.4-1.8 0.8-2.8 1-0.4 0.1-0.8 0.1-1.1-0.1-1.2-1.8-1.9-3.8-2-5.9 0.2 0.3 0.5 0.4 0.9 0.2 2.4-0.7 4.8-1.8 7-3.2 4.5-2.7 8.7-5.8 12.7-9.1 1.1-1 2-2.1 2.8-3.3 0.1-0.3 0.1-0.5 0.1-0.8z" opacity=".969"></path><path fill="#f69d2d" d="m5.6 27.9c0.8 0 1.7-0.1 2.5-0.5 2.9-1.3 5.7-2.8 8.4-4.5 5.2-3.1 9.9-6.9 14.2-11.2 0.4-0.6 0.8-1.2 1.2-1.6 1.1 1.8 1.7 3.8 1.7 6l-0.3 0.6c-1 1.2-2.1 2.3-3.3 3.4-5.3 4.5-11 8.2-17.3 11.3-0.7 0.2-1.4 0.4-2.1 0.6-2-0.9-3.7-2.3-5-4.1z" opacity=".965"></path><path fill="#f69d2d" d="m33.7 18.2c0 5.1-2.1 9.3-6.2 12.6-4.7 3.2-9.7 3.9-15.1 2.1 1.6-0.3 3.1-0.9 4.5-1.7 5.2-2.8 10.1-6.2 14.5-10.1 1-0.8 1.7-1.8 2.3-2.9z" opacity=".954"></path><path fill="#f5a42c" d="m5.6 27.9c-0.1-0.2-0.1-0.2 0 0z" opacity=".031"></path></svg>