<svg xmlns="http://www.w3.org/2000/svg" width="256" height="256" viewBox="0 0 256 256" version="1.1">
	<path fill-opacity="0.247" d="M 110.500 16.448 C 72.290 22.421, 39.115 48.320, 23.912 84.046 C 17.479 99.164, 12.674 126.877, 16.099 129.108 C 27.354 136.443, 117.881 80.212, 155.500 42.520 C 165.718 32.282, 169.784 26.485, 168.710 23.687 C 168.378 22.821, 165.071 21.176, 161.361 20.030 C 145.809 15.226, 126.856 13.892, 110.500 16.448 M 185 32.890 C 185 35.708, 177.309 45.513, 168.390 54.066 C 128.114 92.685, 42.796 146.736, 21.434 147.165 C 18.734 147.219, 17 147.717, 17 148.438 C 17 151.345, 21.264 165.468, 24.353 172.793 C 29.229 184.352, 31.332 187, 35.642 187 C 54.696 187, 126.992 143.879, 177.991 102.095 C 199.883 84.159, 217 65.584, 217 59.764 C 217 56.970, 202.256 42.118, 193.416 36.007 C 189.432 33.253, 185.909 31, 185.587 31 C 185.264 31, 185 31.850, 185 32.890 M 224.010 76.980 C 221.067 82.749, 204.461 99.755, 189.500 112.323 C 157.224 139.435, 109.689 171.216, 77.500 187.204 C 61.349 195.226, 55.217 197.676, 47.220 199.306 L 40.939 200.586 49.220 208.658 C 58.433 217.639, 71.948 227, 75.702 227 C 86.072 227, 122.801 208.129, 156.500 185.486 C 195.507 159.276, 232.809 127.465, 238.364 115.673 C 240.078 112.034, 240.084 111.470, 238.486 104.173 C 236.727 96.142, 229.985 77.729, 227.618 74.492 C 226.329 72.729, 226.097 72.889, 224.010 76.980 M 236.500 137.797 C 231.890 144.189, 214.448 160.126, 198.500 172.519 C 160.854 201.772, 111.846 230.707, 94.500 233.921 L 90.500 234.662 96 236.373 C 110.277 240.814, 129.949 242.054, 145.672 239.504 C 170.097 235.543, 189.366 225.681, 207.125 208.054 C 225.969 189.349, 236.653 167.929, 239.983 142.178 C 240.646 137.050, 241.034 132.719, 240.844 132.553 C 240.655 132.386, 238.700 134.746, 236.500 137.797" stroke="none" fill="black" fill-rule="evenodd"/>
	<path fill-opacity="0.031" d="M 117 15.630 C 99.508 18.135, 89.909 20.940, 77.542 27.161 C 44.529 43.765, 22.018 75.022, 16.445 111.996 C 14.406 125.519, 14.519 128.641, 17.075 129.309 C 30.355 132.782, 100.642 90.532, 144.723 52.578 C 160.901 38.650, 171.241 25.746, 168.394 23.038 C 166.734 21.458, 153.562 17.902, 144 16.452 C 135.261 15.127, 123.099 14.757, 117 15.630 M 185 32.829 C 185 40.657, 154.892 68.565, 118.296 94.659 C 77.918 123.451, 34.955 146.807, 21.411 147.330 C 18.985 147.423, 17.008 147.950, 17.017 148.500 C 17.110 153.939, 25.076 175.993, 29.452 182.923 C 31.597 186.321, 32.563 187, 35.259 187 C 46.878 187, 84.858 167.701, 122.500 142.671 C 173.287 108.900, 217 70.503, 217 59.663 C 217 57.107, 200.305 40.545, 192.305 35.166 C 188.898 32.875, 185.860 31, 185.555 31 C 185.250 31, 185 31.823, 185 32.829 M 223.500 78.248 C 213.225 95.756, 159.782 138.683, 111.500 168.210 C 80.756 187.012, 53.242 199.949, 43.832 200.028 L 40.500 200.056 49.181 208.503 C 58.038 217.121, 71.840 227, 75.023 227 C 78.431 227, 90.597 222.740, 100.500 218.079 C 147.215 196.092, 227.503 136.576, 237.875 116.246 C 239.776 112.520, 239.807 111.918, 238.445 105.409 C 236.579 96.490, 232.612 84.863, 229.201 78.318 L 226.500 73.136 223.500 78.248 M 239.291 134.246 C 236.204 140.978, 212.630 162.415, 189.553 179.474 C 155.551 204.609, 113.402 229.141, 97 233.342 L 91.500 234.751 97 236.417 C 104.489 238.686, 120.100 240.988, 128 240.988 C 131.575 240.988, 138.777 240.343, 144.004 239.555 C 194.827 231.894, 233.709 192.125, 240.019 141.351 C 241.149 132.255, 240.976 130.571, 239.291 134.246" stroke="none" fill="black" fill-rule="evenodd"/>
	<path fill-opacity="0.076" d="M 117.500 15.699 C 97.671 17.498, 76.299 25.889, 59.671 38.404 C 34.089 57.657, 17.090 89.487, 15.826 120.500 L 15.500 128.500 21 128.396 C 36.720 128.098, 90.531 96.175, 133.693 61.543 C 155.605 43.961, 171.652 26.226, 168.482 23.093 C 166.640 21.273, 150.272 17.140, 140.666 16.069 C 131.372 15.033, 125.822 14.944, 117.500 15.699 M 185 32.793 C 185 36.010, 179.377 43.333, 169.261 53.292 C 129.812 92.129, 43.065 147.100, 20.689 147.442 C 16.886 147.500, 16.879 147.508, 17.515 151 C 18.705 157.536, 24.099 172.473, 27.807 179.500 C 31.068 185.682, 31.869 186.536, 34.656 186.806 C 51.956 188.486, 130.767 141.323, 181.594 98.874 C 193.298 89.100, 209.397 73.104, 213.187 67.484 C 218.085 60.221, 217.924 59.242, 210.523 51.248 C 204.430 44.666, 192.595 34.938, 187.250 32.117 C 185.297 31.086, 185 31.175, 185 32.793 M 223.991 77.727 C 214.714 95.225, 156.263 141.658, 104 173.048 C 79.987 187.470, 52.302 200, 44.448 200 C 43.102 200, 42 200.403, 42 200.896 C 42 201.389, 45.633 205.210, 50.073 209.386 C 58.640 217.446, 72.244 227, 75.152 227 C 82.114 227, 108.098 215.162, 130 202.010 C 177.689 173.376, 230.064 131.575, 237.771 115.997 C 239.438 112.629, 239.589 111.241, 238.779 106.766 C 237.435 99.347, 232.437 84.462, 229.208 78.265 L 226.481 73.029 223.991 77.727 M 239.235 134.384 C 234.992 143.696, 198.579 174.533, 166.526 195.958 C 137.060 215.653, 105.767 232.388, 94.972 234.223 L 92.500 234.643 95.160 235.762 C 106.312 240.456, 134.315 241.894, 150 238.578 C 199.911 228.025, 235.193 188.467, 240.375 137.250 C 240.667 134.363, 240.774 132, 240.613 132 C 240.453 132, 239.832 133.073, 239.235 134.384" stroke="none" fill="black" fill-rule="evenodd"/>
	<path fill-opacity="0.110" d="M 115.058 16.062 C 68.464 21.835, 30.123 55.802, 18.580 101.535 C 16.646 109.197, 14.672 126.660, 15.574 128.120 C 16.825 130.144, 25.281 128.427, 35.415 124.092 C 69.336 109.583, 126.943 70.151, 154.547 42.547 C 165.042 32.052, 169.360 26.102, 168.364 23.507 C 167.838 22.134, 160.340 19.658, 150.500 17.609 C 141.159 15.663, 124.240 14.924, 115.058 16.062 M 185 33.293 C 185 45.613, 122.078 96.419, 69 126.957 C 45.471 140.495, 25.437 148.890, 19.410 147.738 C 17.069 147.290, 16.939 147.470, 17.505 150.379 C 18.972 157.909, 24.370 173.069, 27.875 179.500 C 31.613 186.358, 31.770 186.499, 35.595 186.427 C 41.599 186.315, 49.952 183.295, 65.906 175.469 C 98.735 159.364, 146.841 127.521, 179 100.609 C 197.575 85.064, 211.841 70.439, 215.227 63.469 L 217.326 59.148 211.913 52.888 C 206.655 46.806, 194.322 36.356, 188.079 32.693 L 185 30.887 185 33.293 M 224.456 77.178 C 221.749 83.293, 199.705 105.088, 182 119.155 C 131.694 159.124, 69.499 196.218, 46.678 199.864 L 41.500 200.692 49.035 208.096 C 58.821 217.712, 71.376 226.405, 75.453 226.387 C 92.360 226.312, 153.644 190.167, 199.986 152.938 C 225.025 132.823, 239 117.795, 239 110.986 C 239 104.418, 233.063 85.633, 227.833 75.650 L 226.369 72.856 224.456 77.178 M 230.500 144.736 C 206.974 169.816, 153.384 207.798, 115.858 225.989 C 109.147 229.242, 101.484 232.460, 98.828 233.141 C 96.173 233.821, 94 234.669, 94 235.025 C 94 236.155, 108.136 239.146, 118.325 240.171 C 139.777 242.331, 165.617 236.491, 184.500 225.217 C 211.074 209.351, 229.151 185.399, 237.117 155.500 C 238.861 148.955, 240.769 134.913, 239.894 135.071 C 239.677 135.110, 235.450 139.459, 230.500 144.736" stroke="none" fill="black" fill-rule="evenodd"/>
</svg>