<svg xmlns="http://www.w3.org/2000/svg" version="1.1" width="400px" height="400px" style="shape-rendering:geometricPrecision; text-rendering:geometricPrecision; image-rendering:optimizeQuality; fill-rule:evenodd; clip-rule:evenodd" xmlns:xlink="http://www.w3.org/1999/xlink">
<g><path style="opacity:1" fill="#fefefe" d="M -0.5,-0.5 C 132.833,-0.5 266.167,-0.5 399.5,-0.5C 399.5,132.833 399.5,266.167 399.5,399.5C 266.167,399.5 132.833,399.5 -0.5,399.5C -0.5,266.167 -0.5,132.833 -0.5,-0.5 Z"/></g>
<g><path style="opacity:1" fill="#e2fbfb" d="M 205.5,117.5 C 205.167,117.5 204.833,117.5 204.5,117.5C 201.5,117.5 198.5,117.5 195.5,117.5C 154.833,117.5 114.167,117.5 73.5,117.5C 74.5893,115.883 76.256,115.05 78.5,115C 77.269,113.817 77.269,112.651 78.5,111.5C 116.363,112.164 154.196,112.83 192,113.5C 193.011,112.663 194.178,112.33 195.5,112.5C 196.05,116.339 197.05,116.339 198.5,112.5C 199.325,111.614 200.325,111.281 201.5,111.5C 201.5,113.167 201.5,114.833 201.5,116.5C 203.099,116.232 204.432,116.566 205.5,117.5 Z"/></g>
<g><path style="opacity:1" fill="#121212" d="M 297.5,115.5 C 301.167,115.5 304.833,115.5 308.5,115.5C 308.5,124.833 308.5,134.167 308.5,143.5C 319.972,142.927 324.472,136.927 322,125.5C 320.38,123.759 318.88,121.925 317.5,120C 318.222,117.259 319.888,116.259 322.5,117C 328.731,123.772 330.231,131.606 327,140.5C 319.629,150.92 309.795,154.087 297.5,150C 285.128,143.551 281.961,134.051 288,121.5C 290.843,118.837 294.009,116.837 297.5,115.5 Z"/></g>
<g><path style="opacity:1" fill="#f3f3f3" d="M 298.5,122.5 C 299.833,122.5 301.167,122.5 302.5,122.5C 302.5,129.5 302.5,136.5 302.5,143.5C 293.383,142.612 289.55,137.612 291,128.5C 293.109,125.878 295.609,123.878 298.5,122.5 Z"/></g>
<g><path style="opacity:1" fill="#22c4e1" d="M 204.5,117.5 C 204.833,117.5 205.167,117.5 205.5,117.5C 205.5,123.5 205.5,129.5 205.5,135.5C 187.5,135.5 169.5,135.5 151.5,135.5C 151.5,135.167 151.5,134.833 151.5,134.5C 164.85,134.833 178.183,134.499 191.5,133.5C 180.849,132.668 170.182,132.168 159.5,132C 157.966,131.077 156.299,130.577 154.5,130.5C 150.868,131.246 147.202,131.579 143.5,131.5C 143.5,130.5 143.5,129.5 143.5,128.5C 147.702,128.817 151.702,128.483 155.5,127.5C 156.833,127.5 158.167,127.5 159.5,127.5C 159.5,128.5 159.5,129.5 159.5,130.5C 170.167,130.5 180.833,130.5 191.5,130.5C 192.167,126.5 192.833,126.5 193.5,130.5C 194.5,130.5 195.5,130.5 196.5,130.5C 196.5,129.5 196.5,128.5 196.5,127.5C 197.833,127.5 199.167,127.5 200.5,127.5C 200.5,128.5 200.5,129.5 200.5,130.5C 201.5,130.5 202.5,130.5 203.5,130.5C 203.5,129.167 203.5,127.833 203.5,126.5C 162.337,125.501 121.003,125.168 79.5,125.5C 79.5,124.5 79.5,123.5 79.5,122.5C 121.159,123.402 162.825,123.735 204.5,123.5C 204.5,121.5 204.5,119.5 204.5,117.5 Z"/></g>
<g><path style="opacity:1" fill="#0dbff4" d="M 203.5,126.5 C 203.5,127.833 203.5,129.167 203.5,130.5C 202.5,130.5 201.5,130.5 200.5,130.5C 200.5,129.5 200.5,128.5 200.5,127.5C 199.167,127.5 197.833,127.5 196.5,127.5C 196.5,128.5 196.5,129.5 196.5,130.5C 195.5,130.5 194.5,130.5 193.5,130.5C 192.833,126.5 192.167,126.5 191.5,130.5C 180.833,130.5 170.167,130.5 159.5,130.5C 159.5,129.5 159.5,128.5 159.5,127.5C 158.167,127.5 156.833,127.5 155.5,127.5C 135.497,127.667 115.497,127.5 95.5,127C 131.498,126.5 167.498,126.333 203.5,126.5 Z"/></g>
<g><path style="opacity:1" fill="#11bfea" d="M 195.5,117.5 C 198.5,117.5 201.5,117.5 204.5,117.5C 204.5,119.5 204.5,121.5 204.5,123.5C 162.825,123.735 121.159,123.402 79.5,122.5C 79.5,123.5 79.5,124.5 79.5,125.5C 121.003,125.168 162.337,125.501 203.5,126.5C 167.498,126.333 131.498,126.5 95.5,127C 115.497,127.5 135.497,127.667 155.5,127.5C 151.702,128.483 147.702,128.817 143.5,128.5C 143.5,129.5 143.5,130.5 143.5,131.5C 147.202,131.579 150.868,131.246 154.5,130.5C 156.299,130.577 157.966,131.077 159.5,132C 170.182,132.168 180.849,132.668 191.5,133.5C 178.183,134.499 164.85,134.833 151.5,134.5C 149.08,134.292 146.747,134.626 144.5,135.5C 143.571,136.689 143.238,138.022 143.5,139.5C 144.5,139.5 145.5,139.5 146.5,139.5C 146.67,140.822 146.337,141.989 145.5,143C 146.448,143.483 147.448,143.649 148.5,143.5C 148.5,191.5 148.5,239.5 148.5,287.5C 147.5,287.5 146.5,287.5 145.5,287.5C 144.583,239.508 144.25,191.508 144.5,143.5C 143.5,143.5 142.5,143.5 141.5,143.5C 141.167,314.167 140.833,314.167 140.5,143.5C 139.167,143.5 137.833,143.5 136.5,143.5C 136.416,191.561 136.416,239.561 136.5,287.5C 135.5,287.5 134.5,287.5 133.5,287.5C 132.194,236.472 132.194,185.472 133.5,134.5C 131.142,132.976 129.309,130.976 128,128.5C 125.446,129.771 122.613,130.438 119.5,130.5C 104.393,130.754 89.3933,131.754 74.5,133.5C 75.0245,129.926 75.0245,126.426 74.5,123C 75.1733,118.097 76.6733,117.597 79,121.5C 117.785,120.187 156.618,120.187 195.5,121.5C 195.5,120.167 195.5,118.833 195.5,117.5 Z"/></g>
<g><path style="opacity:1" fill="#38c4e0" d="M 73.5,117.5 C 114.167,117.5 154.833,117.5 195.5,117.5C 195.5,118.833 195.5,120.167 195.5,121.5C 156.618,120.187 117.785,120.187 79,121.5C 76.6733,117.597 75.1733,118.097 74.5,123C 75.0245,126.426 75.0245,129.926 74.5,133.5C 89.3933,131.754 104.393,130.754 119.5,130.5C 122.613,130.438 125.446,129.771 128,128.5C 129.309,130.976 131.142,132.976 133.5,134.5C 132.194,185.472 132.194,236.472 133.5,287.5C 133.167,287.5 132.833,287.5 132.5,287.5C 132.852,284.927 132.352,282.594 131,280.5C 130.971,232.801 130.304,185.135 129,137.5C 128.5,187.499 128.333,237.499 128.5,287.5C 128.167,287.5 127.833,287.5 127.5,287.5C 127.5,236.833 127.5,186.167 127.5,135.5C 109.5,135.5 91.5,135.5 73.5,135.5C 73.5,129.5 73.5,123.5 73.5,117.5 Z"/></g>
<g><path style="opacity:1" fill="#eefdfc" d="M 73.5,117.5 C 73.5,123.5 73.5,129.5 73.5,135.5C 91.5,135.5 109.5,135.5 127.5,135.5C 127.5,186.167 127.5,236.833 127.5,287.5C 126.167,287.5 124.833,287.5 123.5,287.5C 123.5,239.5 123.5,191.5 123.5,143.5C 122.448,143.649 121.448,143.483 120.5,143C 121.833,142.333 123.167,141.667 124.5,141C 123.5,140.667 122.5,140.333 121.5,140C 114.5,139.833 107.5,139.667 100.5,139.5C 92.872,139.551 85.372,140.217 78,141.5C 73.1908,140.651 68.3575,139.984 63.5,139.5C 63.3338,133.158 63.5005,126.825 64,120.5C 64.6891,121.357 65.5224,122.023 66.5,122.5C 67.4274,120.887 68.2607,119.221 69,117.5C 70.4139,118.413 71.9139,118.413 73.5,117.5 Z"/></g>
<g><path style="opacity:1" fill="#2bb6c9" d="M 132.5,287.5 C 131.167,287.5 129.833,287.5 128.5,287.5C 128.333,237.499 128.5,187.499 129,137.5C 130.304,185.135 130.971,232.801 131,280.5C 132.352,282.594 132.852,284.927 132.5,287.5 Z"/></g>
<g><path style="opacity:1" fill="#09c3e9" d="M 145.5,287.5 C 142.5,287.5 139.5,287.5 136.5,287.5C 136.416,239.561 136.416,191.561 136.5,143.5C 137.833,143.5 139.167,143.5 140.5,143.5C 140.833,314.167 141.167,314.167 141.5,143.5C 142.5,143.5 143.5,143.5 144.5,143.5C 144.25,191.508 144.583,239.508 145.5,287.5 Z"/></g>
<g><path style="opacity:1" fill="#2fbbcd" d="M 151.5,134.5 C 151.5,134.833 151.5,135.167 151.5,135.5C 150.501,185.997 150.168,236.664 150.5,287.5C 149.833,287.5 149.167,287.5 148.5,287.5C 148.5,239.5 148.5,191.5 148.5,143.5C 147.448,143.649 146.448,143.483 145.5,143C 146.337,141.989 146.67,140.822 146.5,139.5C 145.5,139.5 144.5,139.5 143.5,139.5C 143.238,138.022 143.571,136.689 144.5,135.5C 146.747,134.626 149.08,134.292 151.5,134.5 Z"/></g>
<g><path style="opacity:1" fill="#c0fdfe" d="M 151.5,135.5 C 169.5,135.5 187.5,135.5 205.5,135.5C 189.675,136.496 173.675,136.83 157.5,136.5C 155.5,136.5 153.5,136.5 151.5,136.5C 151.832,187.003 151.499,237.336 150.5,287.5C 150.168,236.664 150.501,185.997 151.5,135.5 Z"/></g>
<g><path style="opacity:1" fill="#4d4d4d" d="M 267.5,161.5 C 287.66,160.503 307.993,160.17 328.5,160.5C 328.802,163.059 328.468,165.393 327.5,167.5C 327.5,165.5 327.5,163.5 327.5,161.5C 307.5,161.5 287.5,161.5 267.5,161.5 Z"/></g>
<g><path style="opacity:1" fill="#0d0d0d" d="M 267.5,161.5 C 287.5,161.5 307.5,161.5 327.5,161.5C 327.5,163.5 327.5,165.5 327.5,167.5C 326.325,167.281 325.325,167.614 324.5,168.5C 329.63,175.646 329.797,182.979 325,190.5C 315.602,196.605 305.435,198.105 294.5,195C 283.735,188.343 281.735,179.843 288.5,169.5C 289.043,169.44 289.376,169.107 289.5,168.5C 282.197,167.503 274.863,167.169 267.5,167.5C 267.5,165.5 267.5,163.5 267.5,161.5 Z"/></g>
<g><path style="opacity:1" fill="#f0fdf8" d="M 255.5,190.5 C 249.673,180.347 241.006,174.014 229.5,171.5C 220.384,169.184 211.051,168.851 201.5,170.5C 201.5,169.5 201.5,168.5 201.5,167.5C 197.682,167.586 194.016,166.919 190.5,165.5C 188.074,166.022 186.24,167.355 185,169.5C 183.107,168.804 181.274,167.97 179.5,167C 180.304,165.229 181.471,163.729 183,162.5C 187.349,162.679 191.849,162.679 196.5,162.5C 196.5,161.5 196.5,160.5 196.5,159.5C 200.182,159.335 203.848,159.501 207.5,160C 203.27,160.517 199.603,162.184 196.5,165C 207.49,166.5 218.49,166.667 229.5,165.5C 227.977,163.717 225.977,163.051 223.5,163.5C 223.5,162.167 223.5,160.833 223.5,159.5C 228.082,160.955 232.749,162.122 237.5,163C 238.973,163.71 239.64,164.876 239.5,166.5C 236.107,166.062 233.107,166.895 230.5,169C 233.359,169.553 236.192,169.386 239,168.5C 241.149,169.299 243.316,170.133 245.5,171C 249.451,177.136 252.785,183.636 255.5,190.5 Z"/></g>
<g><path style="opacity:1" fill="#686868" d="M 267.5,167.5 C 274.863,167.169 282.197,167.503 289.5,168.5C 289.376,169.107 289.043,169.44 288.5,169.5C 281.5,168.833 274.5,168.167 267.5,167.5 Z"/></g>
<g><path style="opacity:1" fill="#f8f8f8" d="M 295.5,168.5 C 303.174,168.334 310.841,168.5 318.5,169C 322.796,173.515 323.63,178.681 321,184.5C 314.617,189.266 307.451,190.766 299.5,189C 289.18,183.915 287.847,177.081 295.5,168.5 Z"/></g>
<g><path style="opacity:1" fill="#d7fafa" d="M 199.5,170.5 C 193.297,172.935 187.297,175.935 181.5,179.5C 181.64,177.876 180.973,176.71 179.5,176C 181.134,175.506 182.801,175.34 184.5,175.5C 184.281,174.325 184.614,173.325 185.5,172.5C 188.181,171.961 190.681,170.961 193,169.5C 195.099,170.287 197.266,170.62 199.5,170.5 Z"/></g>
<g><path style="opacity:1" fill="#1fc0e2" d="M 229.5,171.5 C 222.298,173.243 214.965,173.909 207.5,173.5C 207.5,174.5 207.5,175.5 207.5,176.5C 212.957,176.245 218.29,176.912 223.5,178.5C 218.167,179.833 212.833,179.833 207.5,178.5C 205.483,175.805 202.816,174.471 199.5,174.5C 196.479,175.276 193.479,176.109 190.5,177C 192.577,180.307 194.577,180.64 196.5,178C 198.235,177.349 199.902,177.515 201.5,178.5C 202.833,179.5 202.833,180.5 201.5,181.5C 199.5,182.833 197.5,184.167 195.5,185.5C 196.333,185.833 197.167,186.167 198,186.5C 200.911,184.63 204.077,183.13 207.5,182C 212.823,181.501 218.156,181.334 223.5,181.5C 223.5,182.833 223.5,184.167 223.5,185.5C 227.459,185.147 230.126,186.813 231.5,190.5C 227.621,188.729 223.621,187.229 219.5,186C 215.311,185.188 211.311,185.355 207.5,186.5C 203.158,186.278 199.491,187.611 196.5,190.5C 194.958,191.301 193.292,191.634 191.5,191.5C 188.753,191.187 186.086,191.52 183.5,192.5C 186.159,194.964 186.826,197.797 185.5,201C 180.514,201.916 175.514,202.25 170.5,202C 168.818,198.908 169.651,196.741 173,195.5C 173.844,193.537 173.344,192.204 171.5,191.5C 173.733,186.599 177.066,182.599 181.5,179.5C 187.297,175.935 193.297,172.935 199.5,170.5C 200.167,170.5 200.833,170.5 201.5,170.5C 211.051,168.851 220.384,169.184 229.5,171.5 Z"/></g>
<g><path style="opacity:1" fill="#11c0e8" d="M 229.5,171.5 C 241.006,174.014 249.673,180.347 255.5,190.5C 255.5,190.833 255.5,191.167 255.5,191.5C 255.5,192.167 255.5,192.833 255.5,193.5C 256.267,219.486 256.767,245.486 257,271.5C 257.855,276.92 259.022,282.253 260.5,287.5C 255.833,287.5 251.167,287.5 246.5,287.5C 246.997,283.838 245.831,280.838 243,278.5C 242.814,276.1 242.314,273.766 241.5,271.5C 239.286,273.963 236.952,274.129 234.5,272C 235.973,271.29 236.64,270.124 236.5,268.5C 234.24,269.139 232.24,270.306 230.5,272C 231.563,273.188 232.897,273.688 234.5,273.5C 234.5,274.833 234.5,276.167 234.5,277.5C 233.127,277.657 231.793,277.49 230.5,277C 229.522,275.025 228.189,273.358 226.5,272C 229.004,269.975 231.337,267.641 233.5,265C 235.479,264.316 237.146,264.816 238.5,266.5C 237.248,262.77 237.248,259.104 238.5,255.5C 238.5,247.5 238.5,239.5 238.5,231.5C 237.167,231.5 235.833,231.5 234.5,231.5C 234.389,230.883 234.056,230.383 233.5,230C 224.814,229.832 216.148,229.332 207.5,228.5C 212.73,227.03 218.063,226.363 223.5,226.5C 223.215,224.712 223.548,223.045 224.5,221.5C 225.85,222.95 227.516,223.617 229.5,223.5C 229.5,221.833 229.5,220.167 229.5,218.5C 230.833,218.5 232.167,218.5 233.5,218.5C 233.5,220.167 233.5,221.833 233.5,223.5C 234.5,223.5 235.5,223.5 236.5,223.5C 236.151,220.955 236.984,218.955 239,217.5C 239.498,214.183 239.665,210.85 239.5,207.5C 241.167,207.5 242.833,207.5 244.5,207.5C 244.174,204.689 243.341,202.022 242,199.5C 240.184,199.649 238.351,199.649 236.5,199.5C 235.087,196.339 233.42,193.339 231.5,190.5C 230.126,186.813 227.459,185.147 223.5,185.5C 223.5,184.167 223.5,182.833 223.5,181.5C 218.156,181.334 212.823,181.501 207.5,182C 204.077,183.13 200.911,184.63 198,186.5C 197.167,186.167 196.333,185.833 195.5,185.5C 197.5,184.167 199.5,182.833 201.5,181.5C 202.833,180.5 202.833,179.5 201.5,178.5C 199.902,177.515 198.235,177.349 196.5,178C 194.577,180.64 192.577,180.307 190.5,177C 193.479,176.109 196.479,175.276 199.5,174.5C 202.816,174.471 205.483,175.805 207.5,178.5C 212.833,179.833 218.167,179.833 223.5,178.5C 218.29,176.912 212.957,176.245 207.5,176.5C 207.5,175.5 207.5,174.5 207.5,173.5C 214.965,173.909 222.298,173.243 229.5,171.5 Z"/></g>
<g><path style="opacity:1" fill="#bef6f5" d="M 196.5,190.5 C 196.762,191.978 196.429,193.311 195.5,194.5C 193.709,195.924 191.875,197.258 190,198.5C 189.998,201.051 189.164,203.051 187.5,204.5C 188.097,199.847 189.43,195.514 191.5,191.5C 193.292,191.634 194.958,191.301 196.5,190.5 Z"/></g>
<g><path style="opacity:1" fill="#39bfd4" d="M 171.5,191.5 C 173.344,192.204 173.844,193.537 173,195.5C 169.651,196.741 168.818,198.908 170.5,202C 175.514,202.25 180.514,201.916 185.5,201C 186.826,197.797 186.159,194.964 183.5,192.5C 186.086,191.52 188.753,191.187 191.5,191.5C 189.43,195.514 188.097,199.847 187.5,204.5C 180.833,204.5 174.167,204.5 167.5,204.5C 166.862,199.471 168.195,195.137 171.5,191.5 Z"/></g>
<g><path style="opacity:1" fill="#111111" d="M 302.5,223.5 C 302.5,220.167 302.5,216.833 302.5,213.5C 300.585,213.216 298.919,213.549 297.5,214.5C 292.808,215.361 290.474,218.195 290.5,223C 290.073,228.345 292.406,231.512 297.5,232.5C 297.5,234.833 297.5,237.167 297.5,239.5C 292.556,239.398 289.056,237.065 287,232.5C 283.735,225.805 283.735,219.139 287,212.5C 288.938,209.894 291.438,208.061 294.5,207C 305.858,206.744 317.192,206.244 328.5,205.5C 328.663,207.857 328.497,210.19 328,212.5C 326.795,213.071 325.628,213.738 324.5,214.5C 328.255,219.571 329.422,225.237 328,231.5C 324.293,239.851 318.126,242.351 309.5,239C 304.764,234.974 302.431,229.807 302.5,223.5 Z"/></g>
<g><path style="opacity:1" fill="#d3fafc" d="M 255.5,191.5 C 257.48,192.848 258.647,194.848 259,197.5C 259.333,216.833 259.667,236.167 260,255.5C 260.249,266.912 261.082,278.246 262.5,289.5C 254.804,289.831 247.138,289.497 239.5,288.5C 236.451,287.283 233.451,286.283 230.5,285.5C 228.49,287.171 226.157,287.838 223.5,287.5C 223.5,287.167 223.5,286.833 223.5,286.5C 228.696,284.148 233.53,281.148 238,277.5C 239.261,281.062 240.094,284.729 240.5,288.5C 247.5,288.5 254.5,288.5 261.5,288.5C 260.571,282.868 259.738,277.202 259,271.5C 258.667,248.167 258.333,224.833 258,201.5C 257.454,198.621 256.621,195.954 255.5,193.5C 255.5,192.833 255.5,192.167 255.5,191.5 Z"/></g>
<g><path style="opacity:1" fill="#f5f5f5" d="M 307.5,214.5 C 318.437,212.938 323.27,217.605 322,228.5C 316.854,235.406 312.187,235.073 308,227.5C 307.501,223.179 307.334,218.846 307.5,214.5 Z"/></g>
<g><path style="opacity:1" fill="#949494" d="M 297.5,214.5 C 298.919,213.549 300.585,213.216 302.5,213.5C 302.5,216.833 302.5,220.167 302.5,223.5C 301.523,220.713 301.19,217.713 301.5,214.5C 300.167,214.5 298.833,214.5 297.5,214.5 Z"/></g>
<g><path style="opacity:1" fill="#d4fcfc" d="M 207.5,186.5 C 211.311,185.355 215.311,185.188 219.5,186C 223.621,187.229 227.621,188.729 231.5,190.5C 233.42,193.339 235.087,196.339 236.5,199.5C 237.413,205.441 237.746,211.441 237.5,217.5C 225.477,217.301 213.477,217.634 201.5,218.5C 201.918,217.778 202.584,217.278 203.5,217C 212.16,216.5 220.827,216.334 229.5,216.5C 231.833,216.5 234.167,216.5 236.5,216.5C 236.666,211.821 236.499,207.155 236,202.5C 233.135,196.471 231.469,196.471 231,202.5C 229.892,198.914 229.392,195.247 229.5,191.5C 225.419,190.305 221.419,188.805 217.5,187C 214.183,186.502 210.85,186.335 207.5,186.5 Z"/></g>
<g><path style="opacity:1" fill="#eefdf9" d="M 229.5,216.5 C 220.827,216.334 212.16,216.5 203.5,217C 202.584,217.278 201.918,217.778 201.5,218.5C 191.733,220.387 183.066,224.387 175.5,230.5C 175.5,230.833 175.5,231.167 175.5,231.5C 174.167,232.5 172.833,233.5 171.5,234.5C 171.56,231.979 170.894,229.646 169.5,227.5C 169.919,226.328 170.585,225.328 171.5,224.5C 175.145,223.713 178.812,223.546 182.5,224C 183.167,222.333 183.833,220.667 184.5,219C 186.81,218.503 189.143,218.337 191.5,218.5C 191.5,217.5 191.5,216.5 191.5,215.5C 196.31,214.905 200.976,213.738 205.5,212C 213.167,211.333 220.833,211.333 228.5,212C 229.38,213.356 229.714,214.856 229.5,216.5 Z"/></g>
<g><path style="opacity:1" fill="#28c0df" d="M 255.5,193.5 C 256.621,195.954 257.454,198.621 258,201.5C 258.333,224.833 258.667,248.167 259,271.5C 259.738,277.202 260.571,282.868 261.5,288.5C 254.5,288.5 247.5,288.5 240.5,288.5C 240.094,284.729 239.261,281.062 238,277.5C 233.53,281.148 228.696,284.148 223.5,286.5C 218.146,286.431 212.813,286.098 207.5,285.5C 207.5,284.5 207.5,283.5 207.5,282.5C 211.54,282.305 215.706,282.639 220,283.5C 222.77,282.455 225.603,281.788 228.5,281.5C 227.484,278.949 225.817,276.782 223.5,275C 218.16,274.566 212.827,274.733 207.5,275.5C 202.56,275.279 197.726,274.612 193,273.5C 191.812,274.563 191.312,275.897 191.5,277.5C 196.13,277.308 200.63,277.975 205,279.5C 211.157,278.039 217.324,277.706 223.5,278.5C 211.954,280.861 200.287,282.194 188.5,282.5C 190.208,277.095 188.208,273.928 182.5,273C 181.773,271.601 181.273,270.101 181,268.5C 179.989,267.663 178.822,267.33 177.5,267.5C 177.5,268.833 177.5,270.167 177.5,271.5C 176.167,271.5 174.833,271.5 173.5,271.5C 175.694,266.417 177.36,261.083 178.5,255.5C 180.292,258.747 181.792,262.08 183,265.5C 184.011,266.337 185.178,266.67 186.5,266.5C 184.735,257.495 183.068,248.495 181.5,239.5C 183.451,239.227 184.951,239.893 186,241.5C 186.5,241 187,240.5 187.5,240C 186.167,238.333 186.167,236.667 187.5,235C 189.833,234.667 192.167,234.333 194.5,234C 193.552,233.517 192.552,233.351 191.5,233.5C 191.214,231.723 190.547,230.056 189.5,228.5C 189.833,227.833 190.167,227.167 190.5,226.5C 191.842,228.005 193.508,228.672 195.5,228.5C 195.33,227.178 195.663,226.011 196.5,225C 193.906,223.399 191.239,223.233 188.5,224.5C 186.5,225.833 184.5,227.167 182.5,228.5C 183.95,229.85 184.617,231.516 184.5,233.5C 181.318,232.97 178.318,231.97 175.5,230.5C 183.066,224.387 191.733,220.387 201.5,218.5C 213.477,217.634 225.477,217.301 237.5,217.5C 237.746,211.441 237.413,205.441 236.5,199.5C 238.351,199.649 240.184,199.649 242,199.5C 243.341,202.022 244.174,204.689 244.5,207.5C 242.833,207.5 241.167,207.5 239.5,207.5C 239.665,210.85 239.498,214.183 239,217.5C 236.984,218.955 236.151,220.955 236.5,223.5C 235.5,223.5 234.5,223.5 233.5,223.5C 233.5,221.833 233.5,220.167 233.5,218.5C 232.167,218.5 230.833,218.5 229.5,218.5C 229.5,220.167 229.5,221.833 229.5,223.5C 227.516,223.617 225.85,222.95 224.5,221.5C 223.548,223.045 223.215,224.712 223.5,226.5C 218.063,226.363 212.73,227.03 207.5,228.5C 216.148,229.332 224.814,229.832 233.5,230C 234.056,230.383 234.389,230.883 234.5,231.5C 225.318,231.173 216.318,231.507 207.5,232.5C 201.517,233.275 196.184,235.608 191.5,239.5C 183.503,248.82 183.503,258.153 191.5,267.5C 193.578,270.051 196.244,271.884 199.5,273C 214.973,275.684 227.307,270.851 236.5,258.5C 237.401,257.71 238.068,256.71 238.5,255.5C 237.248,259.104 237.248,262.77 238.5,266.5C 237.146,264.816 235.479,264.316 233.5,265C 231.337,267.641 229.004,269.975 226.5,272C 228.189,273.358 229.522,275.025 230.5,277C 231.793,277.49 233.127,277.657 234.5,277.5C 234.5,276.167 234.5,274.833 234.5,273.5C 232.897,273.688 231.563,273.188 230.5,272C 232.24,270.306 234.24,269.139 236.5,268.5C 236.64,270.124 235.973,271.29 234.5,272C 236.952,274.129 239.286,273.963 241.5,271.5C 242.314,273.766 242.814,276.1 243,278.5C 245.831,280.838 246.997,283.838 246.5,287.5C 251.167,287.5 255.833,287.5 260.5,287.5C 259.022,282.253 257.855,276.92 257,271.5C 256.767,245.486 256.267,219.486 255.5,193.5 Z"/></g>
<g><path style="opacity:1" fill="#fafdfc" d="M 223.5,232.5 C 226.167,232.5 228.833,232.5 231.5,232.5C 229.774,237.25 228.774,242.25 228.5,247.5C 228.565,250.707 228.898,253.874 229.5,257C 227.387,258.837 225.554,261.004 224,263.5C 223.51,264.793 223.343,266.127 223.5,267.5C 221.712,267.215 220.045,267.548 218.5,268.5C 215.574,271.793 211.908,273.126 207.5,272.5C 205.5,272.333 203.5,272.167 201.5,272C 204.909,270.331 205.242,267.998 202.5,265C 199.312,266.847 195.645,267.681 191.5,267.5C 183.503,258.153 183.503,248.82 191.5,239.5C 194.917,239.204 198.084,238.204 201,236.5C 203.137,237.077 205.304,237.41 207.5,237.5C 207.5,236.5 207.5,235.5 207.5,234.5C 213.051,234.473 218.384,233.806 223.5,232.5 Z"/></g>
<g><path style="opacity:1" fill="#d8fcfb" d="M 207.5,232.5 C 212.833,232.5 218.167,232.5 223.5,232.5C 218.384,233.806 213.051,234.473 207.5,234.5C 207.5,235.5 207.5,236.5 207.5,237.5C 205.304,237.41 203.137,237.077 201,236.5C 198.084,238.204 194.917,239.204 191.5,239.5C 196.184,235.608 201.517,233.275 207.5,232.5 Z"/></g>
<g><path style="opacity:1" fill="#eefcf8" d="M 231.5,232.5 C 233.5,232.5 235.5,232.5 237.5,232.5C 237.745,241.208 237.411,249.874 236.5,258.5C 227.307,270.851 214.973,275.684 199.5,273C 196.244,271.884 193.578,270.051 191.5,267.5C 195.645,267.681 199.312,266.847 202.5,265C 205.242,267.998 204.909,270.331 201.5,272C 203.5,272.167 205.5,272.333 207.5,272.5C 211.908,273.126 215.574,271.793 218.5,268.5C 220.045,267.548 221.712,267.215 223.5,267.5C 223.343,266.127 223.51,264.793 224,263.5C 225.554,261.004 227.387,258.837 229.5,257C 228.898,253.874 228.565,250.707 228.5,247.5C 228.774,242.25 229.774,237.25 231.5,232.5 Z"/></g>
<g><path style="opacity:1" fill="#90edfa" d="M 207.5,232.5 C 216.318,231.507 225.318,231.173 234.5,231.5C 235.833,231.5 237.167,231.5 238.5,231.5C 238.5,239.5 238.5,247.5 238.5,255.5C 238.068,256.71 237.401,257.71 236.5,258.5C 237.411,249.874 237.745,241.208 237.5,232.5C 235.5,232.5 233.5,232.5 231.5,232.5C 228.833,232.5 226.167,232.5 223.5,232.5C 218.167,232.5 212.833,232.5 207.5,232.5 Z"/></g>
<g><path style="opacity:1" fill="#f5fefb" d="M 157.5,136.5 C 157.414,137.496 157.748,138.329 158.5,139C 157.107,140.171 156.273,141.671 156,143.5C 155.833,148.833 155.667,154.167 155.5,159.5C 156.164,202.136 156.164,244.803 155.5,287.5C 152.744,280.84 152.077,281.173 153.5,288.5C 152.636,290.197 151.303,291.363 149.5,292C 142.196,291.753 134.863,291.586 127.5,291.5C 127.5,290.167 127.5,288.833 127.5,287.5C 127.833,287.5 128.167,287.5 128.5,287.5C 129.833,287.5 131.167,287.5 132.5,287.5C 132.833,287.5 133.167,287.5 133.5,287.5C 134.5,287.5 135.5,287.5 136.5,287.5C 139.5,287.5 142.5,287.5 145.5,287.5C 146.5,287.5 147.5,287.5 148.5,287.5C 149.167,287.5 149.833,287.5 150.5,287.5C 151.499,237.336 151.832,187.003 151.5,136.5C 153.5,136.5 155.5,136.5 157.5,136.5 Z"/></g>
<g><path style="opacity:1" fill="#11bfeb" d="M 223.5,286.5 C 223.5,286.833 223.5,287.167 223.5,287.5C 222.5,287.5 221.5,287.5 220.5,287.5C 215.474,287.398 210.641,288.065 206,289.5C 200.604,288.232 195.104,287.399 189.5,287C 185.817,283.159 181.483,280.326 176.5,278.5C 175.673,276.838 174.507,275.505 173,274.5C 172.517,273.552 172.351,272.552 172.5,271.5C 171.5,271.5 170.5,271.5 169.5,271.5C 169.192,269.076 169.526,266.743 170.5,264.5C 171.167,264.833 171.833,265.167 172.5,265.5C 173.331,258.524 173.831,251.524 174,244.5C 174.333,244.167 174.667,243.833 175,243.5C 175.333,244.5 175.667,245.5 176,246.5C 176.497,244.19 176.663,241.857 176.5,239.5C 175.167,239.5 173.833,239.5 172.5,239.5C 172.5,238.167 172.5,236.833 172.5,235.5C 173.5,235.5 174.5,235.5 175.5,235.5C 175.5,234.167 175.5,232.833 175.5,231.5C 175.5,231.167 175.5,230.833 175.5,230.5C 178.318,231.97 181.318,232.97 184.5,233.5C 184.617,231.516 183.95,229.85 182.5,228.5C 184.5,227.167 186.5,225.833 188.5,224.5C 191.239,223.233 193.906,223.399 196.5,225C 195.663,226.011 195.33,227.178 195.5,228.5C 193.508,228.672 191.842,228.005 190.5,226.5C 190.167,227.167 189.833,227.833 189.5,228.5C 190.547,230.056 191.214,231.723 191.5,233.5C 192.552,233.351 193.552,233.517 194.5,234C 192.167,234.333 189.833,234.667 187.5,235C 186.167,236.667 186.167,238.333 187.5,240C 187,240.5 186.5,241 186,241.5C 184.951,239.893 183.451,239.227 181.5,239.5C 183.068,248.495 184.735,257.495 186.5,266.5C 185.178,266.67 184.011,266.337 183,265.5C 181.792,262.08 180.292,258.747 178.5,255.5C 177.36,261.083 175.694,266.417 173.5,271.5C 174.833,271.5 176.167,271.5 177.5,271.5C 177.5,270.167 177.5,268.833 177.5,267.5C 178.822,267.33 179.989,267.663 181,268.5C 181.273,270.101 181.773,271.601 182.5,273C 188.208,273.928 190.208,277.095 188.5,282.5C 200.287,282.194 211.954,280.861 223.5,278.5C 217.324,277.706 211.157,278.039 205,279.5C 200.63,277.975 196.13,277.308 191.5,277.5C 191.312,275.897 191.812,274.563 193,273.5C 197.726,274.612 202.56,275.279 207.5,275.5C 212.827,274.733 218.16,274.566 223.5,275C 225.817,276.782 227.484,278.949 228.5,281.5C 225.603,281.788 222.77,282.455 220,283.5C 215.706,282.639 211.54,282.305 207.5,282.5C 207.5,283.5 207.5,284.5 207.5,285.5C 212.813,286.098 218.146,286.431 223.5,286.5 Z"/></g>
<g><path style="opacity:1" fill="#1dc0df" d="M 175.5,231.5 C 175.5,232.833 175.5,234.167 175.5,235.5C 174.5,235.5 173.5,235.5 172.5,235.5C 172.5,236.833 172.5,238.167 172.5,239.5C 173.833,239.5 175.167,239.5 176.5,239.5C 176.663,241.857 176.497,244.19 176,246.5C 175.667,245.5 175.333,244.5 175,243.5C 174.667,243.833 174.333,244.167 174,244.5C 173.831,251.524 173.331,258.524 172.5,265.5C 171.833,265.167 171.167,264.833 170.5,264.5C 169.526,266.743 169.192,269.076 169.5,271.5C 169.167,271.5 168.833,271.5 168.5,271.5C 164.965,261.94 164.632,252.274 167.5,242.5C 168.394,239.608 169.728,236.941 171.5,234.5C 172.833,233.5 174.167,232.5 175.5,231.5 Z"/></g>
<g><path style="opacity:1" fill="#070707" d="M 296.5,257.5 C 306.653,258.494 316.986,258.828 327.5,258.5C 327.5,260.833 327.5,263.167 327.5,265.5C 313.5,265.5 299.5,265.5 285.5,265.5C 285.5,263.167 285.5,260.833 285.5,258.5C 286.873,258.657 288.207,258.49 289.5,258C 285.766,254.301 284.099,249.801 284.5,244.5C 286.833,244.5 289.167,244.5 291.5,244.5C 290.643,249.945 292.309,254.279 296.5,257.5 Z"/></g>
<g><path style="opacity:1" fill="#c1f8fc" d="M 167.5,242.5 C 164.632,252.274 164.965,261.94 168.5,271.5C 170.451,274.786 172.785,277.786 175.5,280.5C 173.052,278.716 170.385,277.382 167.5,276.5C 165.761,269.444 164.761,262.277 164.5,255C 164.667,251.833 164.833,248.667 165,245.5C 165.377,244.058 166.21,243.058 167.5,242.5 Z"/></g>
<g><path style="opacity:1" fill="#c3c3c3" d="M 296.5,257.5 C 307.167,257.5 317.833,257.5 328.5,257.5C 328.5,260.5 328.5,263.5 328.5,266.5C 313.99,266.829 299.657,266.496 285.5,265.5C 299.5,265.5 313.5,265.5 327.5,265.5C 327.5,263.167 327.5,260.833 327.5,258.5C 316.986,258.828 306.653,258.494 296.5,257.5 Z"/></g>
<g><path style="opacity:1" fill="#060606" d="M 285.5,274.5 C 287.167,274.5 288.833,274.5 290.5,274.5C 290.5,277.167 290.5,279.833 290.5,282.5C 300.681,282.827 310.681,282.494 320.5,281.5C 321.117,281.389 321.617,281.056 322,280.5C 322.495,278.527 322.662,276.527 322.5,274.5C 324.5,274.5 326.5,274.5 328.5,274.5C 329.429,279.765 328.096,284.265 324.5,288C 313.244,289.433 301.91,289.933 290.5,289.5C 290.5,292.167 290.5,294.833 290.5,297.5C 288.833,297.5 287.167,297.5 285.5,297.5C 285.5,294.833 285.5,292.167 285.5,289.5C 282.167,289.5 278.833,289.5 275.5,289.5C 275.5,287.167 275.5,284.833 275.5,282.5C 278.833,282.5 282.167,282.5 285.5,282.5C 285.5,279.833 285.5,277.167 285.5,274.5 Z"/></g>
<g><path style="opacity:1" fill="#a6a6a6" d="M 285.5,274.5 C 287.265,273.539 289.265,273.205 291.5,273.5C 291.5,276.167 291.5,278.833 291.5,281.5C 301.167,281.5 310.833,281.5 320.5,281.5C 310.681,282.494 300.681,282.827 290.5,282.5C 290.5,279.833 290.5,277.167 290.5,274.5C 288.833,274.5 287.167,274.5 285.5,274.5 Z"/></g>
<g><path style="opacity:1" fill="#ddfcfa" d="M 182.5,286.5 C 192.118,290.1 202.118,291.433 212.5,290.5C 212.389,291.117 212.056,291.617 211.5,292C 206.112,292.514 200.779,293.347 195.5,294.5C 191.454,293.428 187.454,292.262 183.5,291C 181.964,289.532 181.63,288.032 182.5,286.5 Z"/></g>
<g><path style="opacity:1" fill="#3ebccb" d="M 168.5,271.5 C 168.833,271.5 169.167,271.5 169.5,271.5C 170.5,271.5 171.5,271.5 172.5,271.5C 172.351,272.552 172.517,273.552 173,274.5C 174.507,275.505 175.673,276.838 176.5,278.5C 181.483,280.326 185.817,283.159 189.5,287C 195.104,287.399 200.604,288.232 206,289.5C 210.641,288.065 215.474,287.398 220.5,287.5C 218.11,289.02 215.443,290.02 212.5,290.5C 202.118,291.433 192.118,290.1 182.5,286.5C 180.167,284.5 177.833,282.5 175.5,280.5C 172.785,277.786 170.451,274.786 168.5,271.5 Z"/></g>
</svg>
