<svg xmlns="http://www.w3.org/2000/svg" width="400" height="400" viewBox="0 0 400 400" version="1.1">
	<path fill-opacity="0.286" d="M 298.667 116.411 C 288.868 119.091, 284.647 124.711, 285.260 134.263 C 285.683 140.860, 287.583 144.011, 293.783 148.396 C 297.163 150.787, 299.172 151.376, 305.302 151.769 C 314.523 152.361, 319.036 150.964, 324.023 145.977 C 331.203 138.797, 331.569 127.134, 324.854 119.487 C 321.235 115.365, 320.732 115.264, 319.088 118.336 C 317.998 120.372, 318.169 121.161, 320.419 124.476 C 325.197 131.516, 322.991 139.435, 315.364 142.621 C 313.549 143.380, 311.612 144, 311.060 144 C 310.447 144, 309.947 138.443, 309.777 129.750 L 309.500 115.500 306.500 115.295 C 304.850 115.182, 301.325 115.684, 298.667 116.411 M 74 127 L 74 136 101.500 136 L 129 136 129 212 L 129 288 140 288 L 151 288 151 212 L 151 136 178.500 136 L 206 136 206 127 L 206 118 140 118 L 74 118 74 127 M 298.603 124.523 C 296.460 125.262, 294.036 126.536, 293.217 127.355 C 291.070 129.502, 291.307 136.570, 293.614 139.159 C 295.522 141.301, 301.856 144.478, 302.645 143.689 C 302.880 143.453, 302.944 138.743, 302.786 133.221 L 302.500 123.182 298.603 124.523 M 268 165 L 268 169 278.485 169 L 288.971 169 286.989 172.250 C 284.185 176.848, 284.307 184.676, 287.250 189.043 C 288.488 190.879, 291.739 193.533, 294.476 194.941 C 298.637 197.081, 300.767 197.491, 307.476 197.448 C 319.548 197.369, 327.167 192.653, 329.097 184.066 C 330.167 179.302, 329.542 175.829, 326.790 171.250 L 324.837 168 326.918 168 C 328.631 168, 329 167.379, 329 164.500 L 329 161 298.500 161 L 268 161 268 165 M 294.073 171.635 C 291.087 175.431, 291.236 182.327, 294.372 185.463 C 300.606 191.697, 315.101 191.234, 320.664 184.623 C 322.738 182.158, 323.113 180.876, 322.687 177.701 C 322.399 175.557, 321.149 172.723, 319.908 171.402 C 317.797 169.155, 316.958 169, 306.898 169 C 296.473 169, 296.082 169.080, 294.073 171.635 M 203.500 170.994 C 192.085 172.695, 179.817 180.262, 173.497 189.500 C 170.263 194.228, 167.537 202.442, 168.621 204.196 C 168.894 204.638, 173.358 205, 178.540 205 L 187.962 205 188.609 202.250 C 191.095 191.694, 203.052 185.002, 217.145 186.279 C 230.661 187.505, 237.724 195.221, 238.728 209.856 L 239.267 217.720 221.883 218.265 C 196.189 219.071, 183.791 222.994, 174.261 233.332 C 166.549 241.699, 163.831 256.055, 167.695 268.018 C 170.056 275.329, 177.344 283.059, 185.805 287.226 C 192.242 290.397, 192.848 290.500, 204.976 290.500 C 216.936 290.500, 217.793 290.360, 224 287.385 C 227.575 285.672, 232.300 282.819, 234.500 281.046 L 238.500 277.821 240.044 283.160 L 241.588 288.500 252.294 288.784 C 258.182 288.940, 263 288.884, 263 288.660 C 263 288.435, 262.245 286.282, 261.323 283.876 C 259.903 280.169, 259.542 273.389, 258.965 239.500 C 258.587 217.324, 257.834 198.151, 257.275 196.472 C 250.652 176.580, 230.403 166.987, 203.500 170.994 M 309 206.940 C 291.382 207.577, 289.282 208.339, 286.585 215.080 C 282.487 225.322, 287.293 238.730, 295.577 240.167 C 297.139 240.437, 297.557 239.823, 297.801 236.899 C 298.049 233.946, 297.635 232.991, 295.507 231.596 C 291.832 229.189, 290.584 225.379, 291.958 220.766 C 293.148 216.771, 295.400 215, 299.288 215 C 301.575 215, 301.741 215.408, 302.342 222.518 C 303.030 230.652, 305.556 236.875, 309.209 239.434 C 310.548 240.372, 313.548 241, 316.689 241 C 321.330 241, 322.328 240.605, 325.368 237.566 C 330.743 232.191, 331.218 222.213, 326.354 216.839 C 324.688 214.998, 324.707 214.889, 326.806 214.340 C 328.590 213.874, 329 213.040, 329 209.883 C 329 206.467, 328.730 206.023, 326.750 206.190 C 325.512 206.294, 317.525 206.632, 309 206.940 M 308.056 219.750 C 308.175 229.724, 312.119 234.900, 318.030 232.840 C 323.528 230.923, 324.305 222.779, 319.486 217.579 C 317.592 215.535, 316.151 215, 312.548 215 L 308 215 308.056 219.750 M 212.500 232.635 C 211.400 232.857, 207.899 233.544, 204.720 234.162 C 189.982 237.027, 182.342 249.310, 187.548 261.768 C 191.196 270.500, 196.378 273.389, 208.500 273.453 C 216.339 273.494, 218.210 273.149, 223 270.777 C 229.214 267.700, 233.153 264.537, 236.622 259.834 C 238.823 256.852, 239 255.693, 239 244.306 L 239 232 226.750 232.116 C 220.012 232.180, 213.600 232.414, 212.500 232.635 M 285.252 249.541 C 285.533 252.038, 286.492 254.886, 287.382 255.869 C 289.366 258.062, 289.435 259, 287.609 259 C 286.762 259, 286.058 260.380, 285.807 262.531 C 285.580 264.472, 285.492 266.160, 285.612 266.281 C 285.732 266.401, 295.569 266.370, 307.473 266.212 L 329.116 265.924 328.808 262.212 L 328.500 258.500 314 258.317 C 306.025 258.216, 298.764 258.103, 297.865 258.067 C 295.381 257.965, 292.762 253.183, 292.821 248.858 C 292.875 245.004, 292.870 245, 288.807 245 L 284.740 245 285.252 249.541 M 285.899 274.684 C 285.843 275.133, 285.875 276.938, 285.971 278.695 C 286.143 281.876, 286.119 281.892, 280.822 282.195 L 275.500 282.500 275.193 286.196 L 274.886 289.892 280.193 290.196 L 285.500 290.500 285.500 294.251 C 285.500 297.816, 285.661 298.001, 288.750 298.001 C 291.875 298, 292 297.846, 292 294 L 292 290 307.566 290 C 316.804 290, 323.952 289.561, 325.150 288.920 C 328.073 287.355, 330.203 281.598, 329.414 277.393 C 328.812 274.186, 328.494 273.917, 325.629 274.196 C 323.529 274.400, 322.603 274.972, 322.812 275.936 C 322.983 276.725, 322.862 278.413, 322.543 279.686 C 321.968 281.975, 321.804 282, 307.041 282 L 292.121 282 291.810 278.250 C 291.541 274.994, 291.138 274.458, 288.750 274.184 C 287.238 274.010, 285.954 274.235, 285.899 274.684" stroke="none" fill="black" fill-rule="evenodd"/>
	<path fill-opacity="0.138" d="M 302.372 116.087 C 292.111 117.069, 286.209 121.963, 285.273 130.267 C 283.934 142.148, 291.982 150.667, 305.576 151.758 C 320.024 152.918, 329.141 145.277, 329.267 131.901 C 329.322 126.052, 328.135 123.144, 323.695 118.251 C 321.785 116.148, 321.537 116.109, 319.827 117.656 C 317.432 119.824, 317.516 120.636, 320.500 124.182 C 325.269 129.851, 323.137 139.134, 316.318 142.385 C 309.148 145.804, 309.086 145.701, 308.777 129.750 L 308.500 115.500 302.372 116.087 M 74 126.484 L 74 134.968 101.250 135.234 L 128.500 135.500 128.756 211.500 L 129.012 287.500 139.756 287.379 L 150.500 287.259 151 211.379 L 151.500 135.500 178.250 135.234 L 205 134.967 205 126.484 L 205 118 139.500 118 L 74 118 74 126.484 M 298.643 124.028 C 288.002 127.217, 289.409 140.210, 300.750 143.485 C 302.982 144.130, 303 144.052, 303 133.567 C 303 127.755, 302.663 123.039, 302.250 123.086 C 301.837 123.133, 300.214 123.557, 298.643 124.028 M 268 165 L 268 169 278.392 169 L 288.784 169 286.892 172.711 C 283.095 180.159, 285.620 189.748, 292.496 193.998 C 298.073 197.444, 308.271 198.644, 315.103 196.658 C 324.896 193.812, 329.231 188.617, 329.231 179.728 C 329.231 176.282, 328.596 173.944, 327.115 171.942 C 324.502 168.407, 324.490 168, 327 168 C 328.619 168, 329 167.333, 329 164.500 L 329 161 298.500 161 L 268 161 268 165 M 294.073 171.635 C 291.106 175.406, 291.201 182.928, 294.250 185.687 C 299.104 190.079, 308.776 191.274, 316.018 188.376 C 323.064 185.557, 325.172 177.735, 320.411 172.077 L 317.822 169 306.984 169 C 296.466 169, 296.084 169.078, 294.073 171.635 M 207 171.078 C 194.038 172.642, 184.903 177.042, 177.146 185.457 C 172.694 190.288, 169 197.537, 169 201.445 L 169 204 178.375 204 L 187.750 204 188.322 201.140 C 189.098 197.261, 193.277 192.508, 198.711 189.323 C 207.112 184.400, 223.453 185.068, 230.759 190.633 C 236.238 194.807, 238.383 200.211, 238.446 210 L 238.500 218.500 219.500 219.104 C 197.596 219.801, 191.312 221.273, 181.084 228.103 C 170.553 235.135, 166.534 243.161, 166.614 257 C 166.673 267.286, 169.088 273.198, 175.974 279.913 C 189.152 292.764, 212.496 294.709, 228.903 284.323 C 231.981 282.374, 235.465 279.895, 236.645 278.815 C 238.040 277.536, 239.021 277.225, 239.454 277.925 C 239.819 278.516, 239.913 279, 239.663 279 C 239.412 279, 239.752 281.137, 240.417 283.750 L 241.627 288.500 251.813 288.785 C 258.035 288.959, 262 288.686, 262 288.084 C 262 287.541, 261.261 284.488, 260.358 281.299 C 259.030 276.606, 258.583 268.063, 258.018 236.500 C 257.633 215.050, 256.903 196.375, 256.396 195 C 254.199 189.048, 250.748 183.928, 246.697 180.608 C 241.025 175.960, 232.477 172.234, 225.821 171.506 C 215.224 170.348, 213.395 170.307, 207 171.078 M 309.329 206.932 C 293.852 207.476, 293.042 207.607, 290.450 210 C 283.084 216.801, 283.139 230.402, 290.559 236.918 C 295.400 241.168, 298 241.045, 298 236.567 C 298 233.981, 297.493 232.974, 295.943 232.482 C 292.914 231.521, 290.594 225.975, 291.408 221.640 C 292.166 217.598, 295.168 215, 299.079 215 C 301.617 215, 301.737 215.261, 302.378 222.154 C 303.587 235.170, 307.956 241, 316.500 241 C 321.365 241, 325.626 238.623, 327.598 234.810 C 329.917 230.325, 329.696 222.845, 327.115 218.471 C 324.546 214.116, 324.552 214.351, 327 213.710 C 329.734 212.995, 329.970 205.899, 327.250 206.182 C 326.288 206.282, 318.223 206.620, 309.329 206.932 M 308 220.032 C 308 229.769, 312.385 235.325, 318.296 233.077 C 323.398 231.138, 324.231 223.106, 319.901 217.601 C 318.192 215.428, 317.044 215, 312.927 215 L 308 215 308 220.032 M 205.129 233.576 C 197.355 235.667, 193.408 237.771, 190.021 241.629 C 186.340 245.821, 185.645 248.418, 186.190 255.946 C 186.755 263.759, 190.429 269.417, 196.754 272.215 C 200.651 273.939, 202.787 274.179, 210.598 273.770 C 220.672 273.244, 225.927 271.081, 232.835 264.620 C 238.372 259.441, 239 257.345, 239 244.050 L 239 232 224.750 232.066 C 215.672 232.108, 208.551 232.656, 205.129 233.576 M 285 248.360 C 285 250.285, 286.055 253.276, 287.470 255.360 C 289.812 258.812, 289.838 259, 287.970 259 C 286.385 259, 286 259.685, 286 262.500 L 286 266 307.500 266 L 329 266 329 262.500 L 329 259 313.934 259 C 305.055 259, 298.040 258.556, 296.850 257.920 C 294.534 256.680, 292 251.253, 292 247.532 C 292 245.305, 291.579 245, 288.500 245 C 285.194 245, 285 245.187, 285 248.360 M 286 277.888 C 286 281.655, 285.789 281.949, 282.662 282.536 C 280.826 282.880, 278.463 283.013, 277.412 282.831 C 275.856 282.562, 275.443 283.188, 275.193 286.196 L 274.886 289.892 280.193 290.196 L 285.500 290.500 285.810 294.250 C 286.093 297.663, 286.385 298, 289.060 298 C 291.823 298, 292 297.760, 292 294 L 292 290 307.050 290 C 327.651 290, 329.638 288.807, 329.118 276.750 C 329.017 274.387, 328.577 274, 326 274 C 323.398 274, 322.998 274.365, 322.985 276.750 C 322.954 282.212, 322.333 282.432, 306.807 282.467 L 292.500 282.500 292 278.500 C 291.566 275.028, 291.137 274.458, 288.750 274.184 C 286.153 273.885, 286 274.092, 286 277.888" stroke="none" fill="black" fill-rule="evenodd"/>
	<path fill-opacity="0.554" d="M 294.073 118.651 C 289.728 120.816, 288.390 122.126, 286.762 125.805 C 281.385 137.962, 290.056 150.126, 305.205 151.678 C 315.085 152.690, 324.457 147.938, 327.649 140.298 C 329.757 135.254, 329.337 127.147, 326.734 122.596 C 323.704 117.301, 321.320 115.912, 319.490 118.375 C 318.264 120.024, 318.391 120.682, 320.549 123.857 C 326.322 132.352, 321.118 144, 311.550 144 L 309 144 309 130 L 309 116 304.196 116 C 301.004 116, 297.608 116.889, 294.073 118.651 M 296.887 124.604 C 288.951 127.900, 289.232 138.509, 297.357 142.365 C 299.252 143.264, 301.297 144, 301.901 144 C 302.630 144, 303 140.463, 303 133.500 C 303 121.985, 303.042 122.047, 296.887 124.604 M 268.189 164.735 L 268.500 168.500 278.686 168.784 L 288.872 169.069 286.958 173.284 C 281.100 186.188, 290.002 196.927, 306.601 196.978 C 317.052 197.010, 323.098 194.430, 327.222 188.177 C 329.673 184.459, 329.560 176.431, 326.996 172.226 C 324.558 168.227, 324.559 168.349, 326.948 167.724 C 328.380 167.349, 328.839 166.457, 328.677 164.357 L 328.458 161.500 298.168 161.235 L 267.878 160.970 268.189 164.735 M 293.924 171.581 C 290.777 174.931, 290.562 181.738, 293.500 185.033 C 299.739 192.030, 318.037 191.406, 321.967 184.062 C 324.276 179.746, 322.160 171.043, 318.455 169.621 C 317.565 169.280, 312.227 169, 306.593 169 C 296.873 169, 296.224 169.132, 293.924 171.581 M 310.451 206.951 C 297.462 207.395, 293.891 207.835, 291.722 209.259 C 286.477 212.702, 283.953 221.396, 285.995 228.982 C 287.346 233.998, 292.742 240, 295.900 240 C 297.633 240, 298 239.389, 298 236.500 C 298 234.575, 297.530 233, 296.955 233 C 296.380 233, 294.805 231.895, 293.455 230.545 C 290.290 227.381, 290.113 221.397, 293.073 217.635 C 294.662 215.614, 296.031 215, 298.947 215 L 302.749 215 303.186 223.327 C 303.851 235.995, 307.781 241, 317.062 241 C 320.165 241, 321.822 240.273, 324.669 237.665 C 327.816 234.781, 328.369 233.593, 328.760 228.885 C 329.172 223.917, 328.445 221.016, 325.219 214.750 C 325.007 214.338, 325.516 214, 326.349 214 C 328.045 214, 329.092 211.501, 328.630 208.554 C 328.256 206.166, 329.695 206.293, 310.451 206.951 M 308 220.299 C 308 227.343, 309.504 231.453, 312.597 232.862 C 316.267 234.534, 317.812 234.278, 320.545 231.545 C 323.701 228.390, 323.768 223.439, 320.716 218.898 C 318.672 215.857, 317.885 215.468, 313.216 215.198 L 308 214.895 308 220.299 M 285.460 246.065 C 284.400 247.779, 285.882 253.580, 288.099 256.399 L 290.145 259 288.073 259 C 286.368 259, 286 259.626, 286 262.520 L 286 266.040 307.250 265.770 L 328.500 265.500 328.500 262.500 L 328.500 259.500 314.500 259.257 C 306.800 259.123, 299.474 258.773, 298.219 258.480 C 295.277 257.792, 292.009 252.411, 292.004 248.250 C 292 245.321, 291.710 245, 289.059 245 C 287.441 245, 285.822 245.479, 285.460 246.065 M 286 279 L 286 283 281 283 L 276 283 276 286.500 L 276 290 281 290 L 286 290 286 294 C 286 297.574, 286.260 298, 288.440 298 C 290.537 298, 290.923 297.474, 291.190 294.250 L 291.500 290.500 307.840 290 L 324.179 289.500 326.590 286.694 C 328.354 284.640, 329 282.698, 329 279.444 C 329 275.173, 328.883 275, 326 275 C 323.341 275, 323 275.337, 323 277.965 C 323 282.481, 320.750 283.091, 305.263 282.778 L 291.500 282.500 291.500 278.749 C 291.500 275.324, 291.261 274.999, 288.750 274.999 C 286.208 275, 286 275.303, 286 279" stroke="none" fill="black" fill-rule="evenodd"/>
	<path fill-opacity="0.971" d="M 298.365 116.953 C 294.110 117.968, 289.284 121.550, 287.485 125.029 C 285.608 128.658, 285.565 137.263, 287.405 140.800 C 290.969 147.649, 297.737 151, 308.008 151 C 318.421 151, 324.143 147.690, 327.462 139.746 C 330.438 132.623, 329.041 124.888, 323.761 119.251 C 321.783 117.140, 321.542 117.105, 319.812 118.671 C 318.023 120.289, 318.026 120.399, 319.918 122.419 C 325.157 128.013, 324.924 136.104, 319.383 140.969 C 317.484 142.636, 315.384 144.006, 314.715 144.014 C 314.047 144.021, 312.488 144.299, 311.250 144.630 L 309 145.233 309 130.617 L 309 116 305.250 116.102 C 303.188 116.159, 300.089 116.541, 298.365 116.953 M 296.329 124.458 C 288.718 127.769, 289.120 138.425, 297.011 142.506 C 298.600 143.328, 300.823 144, 301.950 144 C 303.886 144, 304 143.418, 304 133.500 C 304 123.266, 303.943 123.001, 301.750 123.039 C 300.512 123.061, 298.073 123.699, 296.329 124.458 M 268 165 L 268 168 279 168 C 285.050 168, 290 168.214, 290 168.476 C 290 168.738, 289.102 170.425, 288.004 172.226 C 285.580 176.201, 285.351 183.844, 287.528 188.055 C 290.102 193.031, 296.422 196.263, 304.606 196.788 C 312.646 197.304, 317.804 196.020, 322.856 192.244 C 329.298 187.430, 330.774 177.704, 326.065 171.091 C 323.870 168.009, 323.870 168, 325.932 168 C 327.563 168, 328 167.366, 328 165 L 328 162 298 162 L 268 162 268 165 M 294.457 170.283 C 292.516 171.953, 291.661 173.827, 291.274 177.263 C 290.307 185.840, 295.729 190.125, 307.546 190.125 C 316.492 190.125, 322.568 186.555, 323.081 181 C 323.526 176.168, 322.976 174.125, 320.411 171.077 C 317.827 168.006, 317.803 168, 307.467 168 C 298.125 168, 296.852 168.224, 294.457 170.283 M 324.500 207 C 322.850 207.420, 315.515 207.817, 308.200 207.882 C 292.976 208.017, 290.220 208.910, 287.529 214.580 C 286.232 217.314, 285.889 220.027, 286.183 225.232 C 286.562 231.939, 286.743 232.370, 290.750 236.108 C 295.742 240.765, 297 240.960, 297 237.077 C 297 235.162, 295.965 233.119, 294 231.154 C 291.562 228.716, 291 227.317, 291 223.688 C 291 217.800, 293.283 215.040, 298.760 214.305 L 303 213.737 303 219.687 C 303 232.022, 306.995 239.158, 314.713 240.606 C 324.756 242.490, 331.760 231.516, 327.550 220.492 C 326.607 218.021, 325.422 216, 324.917 216 C 323.172 216, 324.008 214.231, 326 213.710 C 327.532 213.310, 328 212.346, 328 209.594 C 328 207.617, 327.887 206.053, 327.750 206.118 C 327.613 206.183, 326.150 206.580, 324.500 207 M 307.443 215.289 C 306.518 217.698, 308.859 230.187, 310.594 232.104 C 312.873 234.622, 318.033 234.549, 320.811 231.961 C 324.746 228.296, 323.019 217.686, 318.055 215.030 C 315.301 213.556, 308.040 213.733, 307.443 215.289 M 286.130 246.756 C 284.936 248.989, 287.098 255.601, 289.657 257.540 C 291.379 258.844, 291.319 258.938, 288.750 258.968 C 286.280 258.997, 286 259.356, 286 262.500 L 286 266 307 266 L 328 266 328 262.500 L 328 259 313.082 259 C 304.877 259, 297.435 258.720, 296.545 258.379 C 294.356 257.539, 292 252.759, 292 249.157 C 292 245.083, 287.919 243.415, 286.130 246.756 M 286 279 L 286 283 281 283 L 276 283 276 286.500 L 276 290 281 290 L 286 290 286 293.441 C 286 297.209, 286.969 298.333, 289.410 297.396 C 290.431 297.004, 291 295.572, 291 293.393 L 291 290 305.532 290 C 321.955 290, 326.325 288.905, 328.055 284.355 C 328.629 282.846, 328.963 280.237, 328.799 278.556 C 328.554 276.056, 328 275.442, 325.750 275.184 C 323.316 274.904, 323 275.197, 323 277.734 C 323 282.643, 321.835 283, 305.800 283 L 291 283 291 279 C 291 275.400, 290.750 275, 288.500 275 C 286.250 275, 286 275.400, 286 279" stroke="none" fill="black" fill-rule="evenodd"/>
</svg>