<?xml version="1.0"?><svg xmlns="http://www.w3.org/2000/svg" width="36" height="36" shape-rendering="geometricPrecision" text-rendering="geometricPrecision" image-rendering="optimizeQuality" fill-rule="evenodd" clip-rule="evenodd" viewBox="0 0 36 36"><path fill="#e1b45a" d="m24.1-0.1h0.3c-0.1 0.2-0.2 0.2-0.3 0z" opacity=".012"></path><path fill="#d6d57d" d="m24 0.2c0.4 0 0.8 0.2 1.2 0.4 0 0.1 0 0.1 0.1 0.1 0.3 0.2 0.5 0.4 0.7 0.7v0.2c-0.6-0.6-1.3-1.1-2-1.4z" opacity=".51"></path><path fill="#ec7903" d="m24 0.2c0.7 0.3 1.4 0.8 2 1.4 0 0.4 0.1 0.8 0.3 1.2-0.1 1.5-0.4 2.9-1.2 4.2 0 0.6 0 1.2 0 1.7 0.2 0.3 0.3 0.5 0.6 0.6 1.7 0.9 3.1 2.1 4.2 3.6 0.2 0.6 0.4 1.1 0.8 1.7 1.2 4.2 0.5 8.1-2.2 11.7-3.1 3.9-7.1 6-12.2 6.1 2.2-0.7 3.3-2.2 3.3-4.6l0.3-0.2c0.8-5 1.8-10 2.8-15.1 0-0.4 0-0.9 0-1.3-0.1-0.3-0.3-0.5-0.6-0.5-0.3-0.2-0.6-0.4-0.9-0.5-1.4 0-2.8 0.1-4.1 0.2-2.2-0.5-3.1-1.9-2.6-4.2 0.4-1.6 1.3-3 2.7-4.1 2-1.5 4.2-2.2 6.8-1.9z"></path><path fill="#ffd96b" d="m25.2 0.6c0.1-0.1 0.2-0.1 0.3 0.1 0 0-0.1 0-0.2 0-0.1 0-0.1 0-0.1-0.1z" opacity=".004"></path><path fill="#e7ac66" d="m18.9 0.7v0.1c-0.1 0-0.2 0.1-0.2 0.2-0.1 0-0.2 0-0.3-0.1 0.2-0.1 0.3-0.2 0.5-0.2z" opacity=".008"></path><path fill="#feff7f" d="m26.1 1.4c-0.1-0.1-0.1-0.1 0 0z" opacity=".016"></path><path fill="#e8b048" d="m17.9 1.4c-0.1 0-0.1 0-0.1 0.1-0.3 0-0.3-0.1 0-0.2 0 0 0.1 0 0.1 0.1z" opacity=".004"></path><path fill="#feffa9" d="m26.1 1.4c0.1 0.1 0.1 0.1 0 0z" opacity=".012"></path><path fill="#fa9a4b" d="m17.4 1.7c0 0-0.1 0.1-0.1 0.2-0.3-0.1-0.3-0.1 0-0.3 0.1 0 0.1 0.1 0.1 0.1z" opacity=".004"></path><path fill="#e2d176" d="m21.6-0.1h2l0.4 0.3c-2.6-0.3-4.8 0.4-6.8 1.9-1.4 1.1-2.3 2.5-2.7 4.1-0.5 2.3 0.4 3.7 2.6 4.2 1.3-0.1 2.7-0.2 4-0.2 0.4 0.1 0.7 0.3 0.9 0.5-1-0.4-2-0.4-3-0.1-1.2 0.2-2.3 0-3.4-0.5-0.2-0.3-0.5-0.5-0.8-0.7 0-0.1 0-0.1-0.1-0.1l-0.5-1.1c0-0.2 0-0.4-0.1-0.5 0-0.5 0-1 0.1-1.5 0.1-0.2 0.2-0.4 0.2-0.7 0.7-1.5 1.7-2.7 2.9-3.6 0.1 0 0.1-0.1 0.1-0.2 0.2 0 0.3-0.1 0.4-0.2 0.1 0 0.1 0 0.1-0.1 0.3-0.1 0.5-0.3 0.8-0.4 0.1 0 0.2-0.1 0.2-0.2 0.1 0 0.1 0 0-0.1 0-0.1 0.1-0.2 0.2-0.2l0.1 0.2c0.8-0.3 1.6-0.6 2.4-0.8z"></path><path fill="#e3f588" d="m26.6 2.9c-0.1-0.5 0-0.6 0.1-0.1 0.1 0.3 0.1 0.7 0 1.1 0-0.4-0.1-0.7-0.1-1z" opacity=".008"></path><path fill="#bfe65d" d="m26.3 4.8c0.2 0.1 0.2 0.2 0 0.3v-0.3z" opacity=".02"></path><path fill="#fffe57" d="m26.2 5.1h0.1c0 0.3-0.1 0.3-0.1 0z" opacity=".004"></path><path fill="#dffe77" d="m14.4 5.5h-0.1c0-0.3 0.1-0.3 0.1 0z" opacity=".02"></path><path fill="#fffea3" d="m14.3 5.5c0 0.1 0 0.2-0.1 0.3-0.1-0.1 0-0.3 0.1-0.3z" opacity=".012"></path><path fill="#ffe9d3" d="m26.1 5.7c0-0.1 0-0.2 0.1-0.2 0 0.1 0 0.1-0.1 0.2z" opacity=".004"></path><path fill="#eeed3b" d="m26 5.7h0.1c0 0.3-0.1 0.3-0.1 0z" opacity=".004"></path><path fill="#c6b574" d="m14.2 6.2h-0.1c0-0.4 0-0.4 0.1 0z" opacity=".02"></path><path fill="#959480" d="m25.9 6.2c0 0 0-0.1 0-0.2 0.1 0.1 0.1 0.2 0 0.2z" opacity=".008"></path><path fill="#f0edcb" d="m25.8 6.2h0.1c0 0.2 0 0.2-0.1 0.3v-0.3z" opacity=".004"></path><path fill="#e4f092" d="m14.1 6.2c0 0.2 0 0.3-0.1 0.5-0.1-0.2-0.1-0.3 0.1-0.5z" opacity=".012"></path><path fill="#937851" d="m25.7 6.5h0.1c0 0.2-0.1 0.4-0.2 0.6-0.1-0.1-0.1-0.2-0.1-0.3 0.1-0.1 0.2-0.2 0.2-0.3z" opacity=".004"></path><path fill="#3e4615" d="m13.8 6.8c0.2 0.2 0.2 0.5 0.1 0.8-0.1-0.3-0.1-0.5-0.1-0.8z" opacity=".004"></path><path fill="#dbd176" d="m26 1.6c0.1 0.1 0.2 0.2 0.3 0.4 0 0.3 0.1 0.6 0.3 0.9-0.1 0.6-0.1 1.3-0.3 1.9-0.1 0.1-0.1 0.2-0.1 0.3-0.1 0.2-0.2 0.4-0.2 0.6-0.2 0.1-0.2 0.3-0.2 0.5-0.1 0.1-0.2 0.2-0.2 0.3-0.1 0-0.1 0.2-0.1 0.3 0 0.1-0.1 0.2-0.1 0.3-0.1 0.6-0.1 1.1 0 1.6 0.2 0.4 0.4 0.6 0.8 0.7 0.4 0.3 0.9 0.6 1.4 0.8 0 0.1 0 0.1 0.1 0.1 0.2 0.2 0.4 0.4 0.6 0.6 0 0 0.1 0.1 0.2 0.1 0 0.1 0.2 0.2 0.3 0.3 0 0.1 0 0.1 0.1 0.1 0.4 0.5 0.7 1 1 1.5-1.1-1.5-2.5-2.7-4.3-3.6-0.2-0.1-0.3-0.3-0.5-0.6 0-0.5 0-1.1 0-1.7 0.8-1.3 1.1-2.7 1.2-4.2-0.2-0.4-0.3-0.8-0.3-1.2z" opacity=".723"></path><path fill="#cbbc65" d="m14.1 7.7v0.5c-0.2-0.2-0.2-0.3 0-0.5z" opacity=".012"></path><path fill="#e1ff6c" d="m14.1 8.2h0.1c-0.1 0.4-0.1 0.4-0.1 0z" opacity=".016"></path><path fill="#bebf7f" d="m26.2 9.3c0.2 0.1 0.2 0.1 0 0z" opacity=".016"></path><path fill="#c2b7ad" d="m14.7 9.3c0.1 0 0.2 0 0.2 0.1-0.1 0.3-0.2 0.3-0.3 0 0-0.1 0.1-0.1 0.1-0.1z" opacity=".004"></path><path fill="#ffc58d" d="m15.6 10.1v0.1c-0.3-0.1-0.3-0.1 0-0.1z" opacity=".012"></path><path fill="#feffa9" d="m15.6 10.2c0.2 0.1 0.2 0.1 0 0z" opacity=".012"></path><path fill="#ffd656" d="m27.6 10.2c0.1-0.2 0.2-0.1 0.3 0-0.1 0.1-0.1 0.1-0.2 0.1-0.1 0-0.1 0-0.1-0.1z" opacity=".008"></path><path fill="#cdc55f" d="m19 10.7v-0.1c0.9 0.1 0.9 0.1 0 0.1z" opacity=".012"></path><path fill="#f3f18d" d="m19 10.7c-0.6 0.2-1.2 0.2-1.9 0.1 0.6-0.1 1.3-0.1 1.9-0.1z" opacity=".008"></path><path fill="#c2b998" d="m28.4 10.9c0.1-0.2 0.2-0.2 0.3 0-0.1 0.1-0.2 0.1-0.2 0.1-0.1 0-0.2-0.1-0.2-0.1z" opacity=".004"></path><path fill="#7aef38" d="m22.3 11.1v0.2c-0.2-0.1-0.2-0.1 0-0.2z" opacity=".004"></path><path fill="#e3f48a" d="m28.9 11.4c-0.1 0-0.1 0-0.1-0.1 0-0.3 0.1-0.3 0.2 0 0 0.1 0 0.1-0.1 0.1z" opacity=".008"></path><path fill="#ccca81" d="m22.3 11.3h0.1v0.5c-0.1-0.2-0.2-0.3-0.1-0.5z" opacity=".016"></path><path fill="#c8dc90" d="m15.3 12c0.1-0.1 0.3-0.2 0.5-0.1-0.2 0.1-0.3 0.1-0.5 0.1z" opacity=".012"></path><path fill="#fefffe" d="m17.8 11.9c0.1 0 0.1 0.1 0 0.2 0-0.1 0-0.1 0-0.2z" opacity=".004"></path><path fill="#dfd882" d="m17.1 12.4v-0.3l-2.2 0.2c0.3-0.1 0.6-0.2 1-0.3l0.1 0.1c0.6-0.2 1.1-0.2 1.7-0.1-0.2 0.1-0.4 0.3-0.6 0.4z" opacity=".98"></path><path fill="#d9d475" d="m22.4 11.8h0.1v0.2c-0.1 0.1-0.1 0.3-0.1 0.5-0.2-0.2-0.2-0.5 0-0.7z" opacity=".008"></path><path fill="#ec7903" d="m17.1 12.4c-0.4 0.2-0.6 0.5-0.8 0.8-0.5 0.8-0.9 1.6-1.2 2.5-0.3 1.6-0.6 3.2-0.9 4.8-0.1 0.8-0.2 1.5-0.2 2.3-0.3 0.2-0.4 0.5-0.4 0.9-0.8 3.7-1.4 7.5-2.1 11.2-0.6 0-1.1-0.1-1.6-0.4l-2.4-1.1c-1.1-1.1-2-2.3-2.7-3.8-0.1-0.3-0.2-0.6-0.2-1-0.2-0.2-0.4-0.5-0.5-0.8v-0.1c-0.4-6.7 2.4-11.5 8.4-14.4 0.8-0.4 1.6-0.7 2.4-1l2.2-0.2v0.3z"></path><path fill="#ca9784" d="m30.2 13c0-0.1-0.1-0.1-0.2-0.1 0.1-0.3 0.1-0.3 0.3 0-0.1 0-0.1 0.1-0.1 0.1z" opacity=".008"></path><path fill="#bebf7f" d="m16.9 12.9c0.1 0.1 0.1 0.1 0 0z" opacity=".016"></path><path fill="#c2c099" d="m16.8 13h0.1c0 0.2-0.1 0.3-0.3 0.3v-0.2c0.1 0 0.2 0 0.2-0.1z" opacity=".004"></path><path fill="#feffa9" d="m16.5 13.3h0.2c-0.1 0.1-0.1 0.1-0.2 0z m-5.2 0.1c0.1 0.1 0.1 0.1 0 0z" opacity=".012"></path><path fill="#fffe44" d="m16.4 13.4h0.1c0 0.3 0 0.3-0.1 0z" opacity=".004"></path><path fill="#9b8b5e" d="m31.2 15h-0.1c0-0.4 0-0.4 0.1 0z" opacity=".016"></path><path fill="#e9c792" d="m15.8 14.8c0.1 0.1 0.1 0.2 0 0.3v-0.3z" opacity=".02"></path><path fill="#b8b771" d="m31.2 15c0.1 0.1 0.1 0.1 0 0.2 0 0-0.1-0.1 0-0.2z" opacity=".016"></path><path fill="#e2d1a8" d="m9 15.2c-0.1 0-0.1 0.1-0.1 0.2-0.3-0.1-0.3-0.1 0-0.3 0.1 0 0.1 0.1 0.1 0.1z" opacity=".004"></path><path fill="#bc855e" d="m15.6 15.1h0.2c-0.1 0.5-0.1 0.5-0.2 0z" opacity=".008"></path><path fill="#bfaf80" d="m15.5 15.6c0.2 0.1 0.2 0.2 0 0.3v-0.3z" opacity=".016"></path><path fill="#d7e36d" d="m15.4 15.9h0.1c0 0.6-0.1 0.6-0.1 0z" opacity=".016"></path><path fill="#ffdd79" d="m21.6 16.6c-0.1-0.2-0.1-0.4-0.1-0.6 0.1 0.2 0.1 0.4 0.1 0.6z" opacity=".012"></path><path fill="#f0d588" d="m15.3 17c0-0.1 0-0.3 0.1-0.4 0 0.2 0 0.3-0.1 0.4z" opacity=".012"></path><path fill="#e2d077" d="m15.2 17h0.1c0 0.2 0 0.4-0.1 0.5v-0.5z" opacity=".024"></path><path fill="#fe8" d="m21.4 17.7c-0.1-0.1-0.2-0.3-0.1-0.4 0.1 0.1 0.1 0.3 0.1 0.4z" opacity=".012"></path><path fill="#dfd18a" d="m31.6 19.6c0-0.8 0-1.7 0.1-2.6 0.1 0.9 0 1.8-0.1 2.6z" opacity=".02"></path><path fill="#e4cd71" d="m17.1 12.4l-0.2 0.5c-0.1 0-0.1 0-0.1 0.1-0.1 0-0.2 0-0.2 0.1 0 0-0.1 0.1-0.1 0.2 0 0-0.1 0.1-0.1 0.1-0.3 0.4-0.5 0.9-0.7 1.4-0.1 0.1-0.1 0.2-0.1 0.3-0.1 0.2-0.1 0.3-0.1 0.5-0.1 0.1-0.1 0.2-0.1 0.3-0.2 0.4-0.2 0.7-0.2 1.1-0.1 0.2-0.2 0.3-0.1 0.5-0.1 0.2-0.2 0.5-0.1 0.8-0.1 0.1-0.2 0.3-0.2 0.4-0.1 0.2-0.1 0.5-0.1 0.7-0.1 0.1-0.1 0.3-0.1 0.5-0.1 0.2-0.1 0.5-0.1 0.7-0.1 0.2-0.1 0.3-0.1 0.5-0.1 0.2-0.1 0.4-0.1 0.7-0.1 0.1-0.2 0.3-0.1 0.5-0.1 0.2-0.2 0.3-0.1 0.5h-0.2c0.1-0.8 0.2-1.5 0.3-2.3 0.3-1.6 0.6-3.2 0.9-4.8 0.3-0.9 0.7-1.7 1.2-2.5 0.2-0.3 0.4-0.6 0.8-0.8z"></path><path fill="#f0e460" d="m15.1 17.5h0.1c0 0.3 0 0.5-0.1 0.8v-0.8z" opacity=".008"></path><path fill="#ecf166" d="m21.3 18.5c-0.1 0.1-0.2 0.2-0.2 0.3 0-0.3 0-0.6 0.1-1 0.1 0.3 0.1 0.5 0.1 0.7z" opacity=".012"></path><path fill="#dfd0a2" d="m15 18.3h0.1c0 0.2 0 0.3-0.1 0.4v-0.4z" opacity=".02"></path><path fill="#e9c68c" d="m14.8 18.7h0.2c0 0.3 0 0.5-0.2 0.7v-0.7z" opacity=".012"></path><path fill="#f6f49b" d="m31.5 19.6h0.1c0 1.2-0.1 1.2-0.1 0z" opacity=".012"></path><path fill="#e7cf54" d="m5.3 19.7c-0.1 0.1-0.1 0.2-0.1 0.3-0.2-0.2-0.2-0.3 0-0.5 0.1 0.1 0.1 0.2 0.1 0.2z" opacity=".008"></path><path fill="#d6e57c" d="m14.7 19.4h0.2c-0.1 0.4-0.1 0.8-0.2 1.1-0.1-0.2-0.1-0.4-0.1-0.6 0.1-0.2 0.2-0.3 0.1-0.5z" opacity=".012"></path><path fill="#efff94" d="m20.8 20.8c-0.1-0.2-0.1-0.5 0-0.7 0 0.2 0 0.4 0 0.7z" opacity=".008"></path><path fill="#e9e974" d="m31.4 21c0-0.1 0-0.2 0-0.4 0.1 0.2 0.1 0.3 0 0.4z" opacity=".016"></path><path fill="#ffac8d" d="m4.7 20.9c-0.1-0.1-0.1-0.2 0-0.3 0 0.1 0 0.2 0 0.3z" opacity=".008"></path><path fill="#e7d381" d="m14.5 20.6c0.2 0.2 0.2 0.3 0 0.5v-0.5z" opacity=".016"></path><path fill="#dfd177" d="m14.8 12.3c-0.7 0.3-1.5 0.6-2.3 1-6 2.9-8.8 7.7-8.5 14.4l-0.2-0.4v-3.2c0.2-0.4 0.3-0.8 0.2-1.2 0.3-0.7 0.5-1.3 0.7-2 0.2-0.3 0.4-0.6 0.5-0.9 0.1-0.1 0.1-0.1 0.1-0.3 0.9-1.6 2.1-3.1 3.6-4.3 0.1 0 0.1-0.1 0.1-0.2 1.7-1.4 3.7-2.4 5.9-2.9z"></path><path fill="#d9d95d" d="m31.3 21h0.1c0 0.6-0.1 0.6-0.1 0z" opacity=".02"></path><path fill="#dcea9f" d="m14.4 21.1h0.1c0 0.6-0.1 0.6-0.1 0z" opacity=".02"></path><path fill="#cde879" d="m20.6 21.8c-0.1-0.2-0.2-0.3-0.1-0.5 0.1 0.2 0.1 0.3 0.1 0.5z" opacity=".012"></path><path fill="#e0dea0" d="m31.2 21.5c0.1 0.2 0.1 0.3 0 0.4v-0.4z" opacity=".016"></path><path fill="#9b8b5e" d="m31.1 21.9h0.1c0 0.1 0 0.2-0.1 0.3v-0.3z" opacity=".016"></path><path fill="#fd7" d="m14.3 21.8c0.1 0.2 0.1 0.3 0 0.5v-0.5z" opacity=".008"></path><path fill="#d9f682" d="m20.5 22.4h-0.1c0-0.6 0-0.6 0.1 0z" opacity=".012"></path><path fill="#f1bb55" d="m30.9 22.2h0.2c0 0.2-0.1 0.3-0.2 0.4v-0.4z" opacity=".008"></path><path fill="#c8db7d" d="m14.2 22.3h0.1c0 0.5-0.1 0.5-0.1 0z" opacity=".02"></path><path fill="#ccd68c" d="m4 22.9h-0.1c0.1-0.5 0.1-0.5 0.1 0z" opacity=".02"></path><path fill="#d5ff7f" d="m30.8 22.6h0.1c0 0.3 0 0.3-0.1 0z" opacity=".016"></path><path fill="#e0e29c" d="m20.4 22.4c0 0.2 0 0.3-0.1 0.5-0.1-0.2-0.1-0.3 0.1-0.5z" opacity=".012"></path><path fill="#c5b259" d="m3.8 22.9h0.1c0.1 0.2 0 0.3-0.1 0.4v-0.4z" opacity=".012"></path><path fill="#e7e474" d="m14.1 22.8c0.1 0.2 0.1 0.4 0 0.7v-0.7z" opacity=".012"></path><path fill="#dcf292" d="m14 23.5h0.1c0 0.1 0 0.3-0.1 0.4v-0.4z" opacity=".02"></path><path fill="#c5c570" d="m30.4 23.7c0.1 0.1 0.1 0.1 0 0.2v-0.2z" opacity=".012"></path><path fill="#fffe44" d="m30.3 23.9h0.1c0 0.1 0 0.2-0.1 0.2v-0.2z" opacity=".004"></path><path fill="#ffd681" d="m30.2 24.1h0.1c0 0.1-0.1 0.2-0.1 0.3v-0.3z" opacity=".008"></path><path fill="#e0bc7e" d="m13.8 23.9h0.2c0 0.3-0.1 0.6-0.2 0.8v-0.8z" opacity=".008"></path><path fill="#d4d57f" d="m30 24.4h0.2c-0.1 0-0.1 0-0.2 0z" opacity=".024"></path><path fill="#ffe2c5" d="m29.9 24.6c0.2 0.1 0.2 0.1 0 0.2v-0.2z" opacity=".004"></path><path fill="#ecea97" d="m13.7 24.7h0.1c0.1 0.2 0 0.3-0.1 0.4v-0.4z" opacity=".02"></path><path fill="#bebf7f" d="m29.8 24.8h0.1c0 0.1 0 0.1-0.1 0z" opacity=".016"></path><path fill="#ad8d73" d="m29.7 24.9h0.1c0 0.1 0 0.2-0.1 0.2v-0.2z" opacity=".008"></path><path fill="#d7ec7f" d="m13.6 25.1h0.1c0.1 0.3 0 0.5-0.1 0.7v-0.7z" opacity=".012"></path><path fill="#fffee2" d="m29.6 25.1h0.1c0 0.2 0 0.2-0.1 0.3v-0.3z" opacity=".004"></path><path fill="#a9aa54" d="m29.5 25.4h0.1c0 0-0.1 0-0.1 0z" opacity=".012"></path><path fill="#a9a88e" d="m29.4 25.5h0.1c0 0.1 0 0.2-0.1 0.2v-0.2z" opacity=".008"></path><path fill="#a9ffa9" d="m29.3 25.7h0.1c-0.1 0.1-0.1 0.1-0.1 0z" opacity=".012"></path><path fill="#c0b267" d="m13.5 25.8h0.1c0 0.2 0 0.3-0.1 0.5v-0.5z" opacity=".012"></path><path fill="#c7dd80" d="m19.7 26.5h-0.1c0-0.6 0.1-0.6 0.1 0z" opacity=".016"></path><path fill="#b5b461" d="m13.4 26.3h0.1c0 0.7-0.1 0.7-0.1 0z" opacity=".02"></path><path fill="#aaad71" d="m28.9 26.2c0.1 0.1 0.1 0.2-0.1 0.3v-0.2c0.1 0 0.1-0.1 0.1-0.1z" opacity=".008"></path><path fill="#a9aa54" d="m28.7 26.5h0.1c0 0.1-0.1 0.1-0.1 0z" opacity=".012"></path><path fill="#cac577" d="m19.6 26.5c0 0.1 0 0.3-0.1 0.4-0.1-0.1 0-0.3 0.1-0.4z" opacity=".012"></path><path fill="#cbcc65" d="m28.6 26.6h0.1c0 0.1-0.1 0.1-0.1 0z m-0.1 0.1h0.1c0 0.1-0.1 0.1-0.1 0z" opacity=".02"></path><path fill="#b1ffab" d="m28.4 26.8h0.1c0 0.1-0.1 0.2-0.1 0.3v-0.3z" opacity=".008"></path><path fill="#a9ffa9" d="m28.2 27.1h0.2c-0.1 0-0.1 0-0.2 0z" opacity=".012"></path><path fill="#bcaa6f" d="m13.3 27.5c0-0.1 0-0.3 0-0.4 0.1 0.1 0.1 0.3 0 0.4z" opacity=".016"></path><path fill="#cbcc65" d="m28.1 27.2h0.1c0 0 0 0-0.1 0z" opacity=".02"></path><path fill="#d1d264" d="m19.5 27.6h-0.1c0-0.6 0-0.6 0.1 0z" opacity=".012"></path><path fill="#feffa9" d="m28 27.3h0.1c0 0.1 0 0.1-0.1 0z" opacity=".012"></path><path fill="#e1cf74" d="m14 22.8v0.7c-0.2 0.1-0.2 0.2-0.2 0.4-0.1 0.2-0.1 0.5-0.1 0.8-0.1 0.1-0.1 0.3-0.1 0.4-0.1 0.2-0.1 0.5-0.1 0.7-0.1 0.1-0.1 0.3-0.1 0.5-0.1 0.4-0.2 0.8-0.2 1.2-0.3 0.8-0.4 1.6-0.5 2.4-0.1 0.1-0.1 0.2-0.1 0.4-0.1 0.3-0.1 0.5-0.1 0.8-0.1 0.1-0.2 0.3-0.1 0.5-0.1 0.2-0.2 0.4-0.1 0.6-0.1 0.2-0.2 0.3-0.2 0.5-0.1 0.4-0.2 0.8-0.2 1.2-0.1 0.1-0.1 0.3-0.1 0.5-0.1 0.2-0.1 0.4-0.2 0.6 0 0.2-0.1 0.3-0.2 0.3-0.4-0.2-0.8-0.3-1.2-0.4 0-0.1-0.2-0.1-0.3-0.1 0-0.1-0.1-0.1-0.2-0.1-0.3-0.2-0.7-0.3-1-0.4-0.4-0.3-0.7-0.5-1.1-0.7 0-0.1 0-0.1-0.1-0.1v-0.1l2.4 1.1c0.5 0.3 1 0.4 1.6 0.4 0.7-3.7 1.3-7.5 2.1-11.2 0-0.4 0.1-0.7 0.3-0.9z" opacity=".827"></path><path fill="#dfdd8f" d="m13.2 27.5h0.1c-0.1 0.6-0.1 0.6-0.1 0z" opacity=".02"></path><path fill="#e1d076" d="m22.1 10.7c0.3 0 0.5 0.2 0.6 0.5 0 0.4 0 0.9 0 1.3-1 5.1-2 10.1-2.8 15.1l-0.3 0.2c0 2.4-1.1 3.9-3.3 4.6 5.1-0.1 9.1-2.2 12.2-6.1 2.7-3.6 3.4-7.5 2.2-11.7-0.4-0.6-0.6-1.1-0.8-1.7h0.1c0.1 0 0.1 0 0.1 0.1 0.4 0.7 0.7 1.4 0.9 2 0.4 1.5 0.6 3.1 0.5 4.6-0.1 0.5-0.2 0.9-0.2 1.4-0.1 0.1-0.2 0.3-0.1 0.5-0.1 0.1-0.2 0.2-0.2 0.4-0.1 0.1-0.1 0.2-0.1 0.3-0.1 0.1-0.1 0.2-0.1 0.4-0.2 0.3-0.3 0.7-0.4 1.1-0.1 0-0.2 0.1-0.1 0.2-0.1 0-0.2 0.1-0.2 0.2 0 0.1-0.1 0.1-0.1 0.3-0.1 0-0.1 0.1-0.1 0.2-0.1 0-0.1 0.1-0.1 0.2-0.1 0-0.1 0-0.1 0.1-0.1 0.1-0.1 0.1-0.1 0.2-0.1 0.1-0.1 0.2-0.1 0.3-0.1 0-0.1 0-0.1 0.1-0.1 0-0.2 0.1-0.2 0.2-0.1 0.1-0.3 0.2-0.3 0.5-0.1 0-0.1 0-0.1 0.1-0.1 0-0.1 0.1-0.1 0.2-0.1 0-0.1 0-0.1 0.1-0.1 0-0.1 0-0.1 0.1-0.1 0-0.2 0.1-0.2 0.1 0 0.1-0.1 0.1-0.1 0.3 0 0-0.1 0-0.1 0.1-0.1 0-0.1 0-0.1 0.1-0.1 0-0.1 0-0.1 0.1-0.1 0-0.1 0-0.1 0.1-0.1 0-0.1 0-0.1 0.1-0.1 0-0.1 0.1-0.1 0.1-0.1 0-0.2 0.1-0.2 0.1 0 0-0.1 0.1-0.1 0.2 0 0-0.1 0-0.1 0.1-0.1 0-0.1 0-0.1 0.1-0.1 0-0.1 0-0.1 0.1-0.1 0-0.1 0-0.1 0.1-0.1 0-0.1 0-0.1 0.1-0.1 0-0.1 0.1-0.1 0.1-0.1 0-0.2 0.1-0.2 0.1 0 0-0.1 0.1-0.1 0.2 0 0-0.1 0-0.1 0.1-0.1 0-0.1 0-0.1 0.1-0.1 0-0.2 0-0.2 0.1-0.1 0-0.1 0-0.1 0.1-0.3 0.1-0.5 0.2-0.6 0.5-0.1-0.1-0.2 0-0.2 0.1-0.1 0-0.1 0-0.1 0.1-0.2 0-0.4 0.2-0.6 0.3-0.1 0-0.1 0.1-0.1 0.1-0.3 0.1-0.6 0.2-0.8 0.5-0.1 0-0.2 0-0.2 0.1-0.1 0-0.2 0-0.2 0.1-0.1 0-0.2 0-0.3 0.1-0.1 0-0.1 0-0.2 0.1-0.1 0-0.2 0-0.2 0.1-0.2 0-0.3 0.1-0.4 0.2-0.1-0.1-0.1 0-0.2 0.1-0.1-0.1-0.2 0-0.3 0.1-0.1 0-0.2 0-0.2 0.1-0.3 0-0.5 0.1-0.7 0.2-0.2 0-0.3 0-0.4 0.1-0.2 0-0.4 0-0.5 0.1-0.2 0-0.3 0.1-0.4 0.2-1.4 0.2-2.8 0.2-4.2 0.1 1.4-0.3 2.5-0.9 3.5-1.9 0.5-1 0.8-2 0.9-3.1 0.1-0.3 0.2-0.7 0.2-1.1 0.3-1.3 0.6-2.7 0.8-4.1 0.1-0.2 0.2-0.4 0.1-0.6 0.1-0.3 0.2-0.7 0.2-1 0.2-0.8 0.4-1.5 0.5-2.3 0.1-0.2 0.1-0.5 0.1-0.8 0.1-0.3 0.2-0.6 0.3-0.9-0.1-0.1-0.1-0.1-0.1-0.2 0.4-1.3 0.6-2.7 0.8-4.1 0.1-0.1 0.1-0.3 0.1-0.5 0.1-0.1 0.1-0.2 0-0.2 0-0.2 0-0.4-0.1-0.5 0-0.1 0-0.2-0.1-0.2l-0.3-0.4z" opacity=".541"></path><path fill="#dfd19b" d="m27.9 27.4h0.1c-0.3 0.5-0.7 0.9-1.2 1.2v-0.1c0.1 0 0.1 0 0.1-0.1 0.1 0 0.1 0 0.1-0.1 0.1 0 0.1 0 0.1-0.1 0.1 0 0.1-0.1 0.1-0.1 0.1 0 0.1-0.1 0.1-0.1 0.1 0 0.2-0.1 0.2-0.2 0 0 0.1 0 0.1-0.1 0 0 0.1 0 0.1-0.1 0.1 0 0.1 0 0.1-0.1 0.1 0 0.1 0 0.1-0.1z" opacity=".004"></path><path fill="#dedd80" d="m19.4 27.6c0 0.2-0.1 0.3-0.1 0.5-0.1-0.2-0.1-0.4 0.1-0.5z" opacity=".012"></path><path fill="#f3cb98" d="m3.8 28c0.1 0.1 0.2 0.2 0.1 0.4h-0.1v-0.4z" opacity=".012"></path><path d="m19.1 28.2c0.2 0.1 0.2 0.1 0 0z" opacity=".004"></path><path fill="#a2f581" d="m3.9 28.4h0.1c0 0.5 0 0.5-0.1 0z" opacity=".012"></path><path fill="#feaaa9" d="m26.7 28.6h0.1c0 0.1-0.1 0.1-0.1 0z" opacity=".012"></path><path fill="#feff7f" d="m26.6 28.7h0.1c-0.1 0.1-0.1 0.1-0.1 0z m-0.2 0.2h0.2c-0.1 0-0.1 0-0.2 0z" opacity=".016"></path><path fill="#bebf7f" d="m26.3 29h0.1c0 0 0 0-0.1 0z" opacity=".016"></path><path fill="#80ff7f" d="m26.2 29.1h0.1c0 0.1 0 0.1-0.1 0z" opacity=".008"></path><path fill="#b6ff6a" d="m4.3 29.1v0.3c-0.2-0.1-0.2-0.2 0-0.3z" opacity=".016"></path><path fill="#ffe9d3" d="m26 29.3v-0.1h0.2c0 0.1-0.1 0.1-0.2 0.1z" opacity=".004"></path><path fill="#cbcc65" d="m25.9 29.3h0.1c0 0.1-0.1 0.1-0.1 0z" opacity=".02"></path><path fill="#e4e1c4" d="m4.3 29.4h0.1v0.2c-0.1 0-0.1-0.1-0.1-0.2z" opacity=".004"></path><path fill="#d5d368" d="m4.4 29.6h0.1v0.3c-0.1-0.1-0.1-0.1-0.1-0.3z" opacity=".016"></path><path fill="#bebf7f" d="m25.3 29.8c0.2 0 0.2 0 0 0z" opacity=".016"></path><path fill="#fffe8e" d="m4.5 29.9h0.1c0 0.3-0.1 0.3-0.1 0z" opacity=".008"></path><path fill="#f3cd93" d="m12.7 29.9c0.2 0.1 0.2 0.3 0 0.4v-0.4z" opacity=".02"></path><path fill="#8bf15b" d="m25.1 29.9h0.2c-0.1 0.2-0.2 0.2-0.3 0.1 0.1 0 0.1-0.1 0.1-0.1z" opacity=".004"></path><path fill="#b1ff7f" d="m24.4 30.4v-0.1c0.3 0.1 0.3 0.1 0 0.1z" opacity=".008"></path><path fill="#bcc060" d="m4.8 30.3v0.2c-0.3-0.2-0.3-0.2 0-0.2z" opacity=".012"></path><path fill="#cdca6f" d="m12.6 30.3h0.1c0 0.9-0.1 0.9-0.1 0z" opacity=".016"></path><path fill="#bebf7f" d="m24.3 30.4h0.1c0 0.1 0 0.1-0.1 0z" opacity=".016"></path><path fill="#ffe371" d="m4.8 30.5h0.2v0.3c-0.1-0.1-0.2-0.1-0.2-0.3z" opacity=".008"></path><path fill="#feff7f" d="m5 30.8h0.1c-0.1 0-0.1 0-0.1 0z" opacity=".016"></path><path fill="#4e4032" d="m23.5 31v-0.1c0.3 0 0.3 0.1 0 0.1z" opacity=".004"></path><path fill="#ffd681" d="m23.3 31.1v-0.1h0.2c0 0.1-0.1 0.1-0.2 0.1z" opacity=".008"></path><path fill="#fffed5" d="m23.1 31.2v-0.1h0.2c-0.1 0.1-0.1 0.1-0.2 0.1z" opacity=".004"></path><path fill="#fffee2" d="m5.3 31.1c0 0.1 0 0.2-0.1 0.2 0-0.1 0-0.1 0.1-0.2z" opacity=".004"></path><path fill="#d7ffa2" d="m12.5 31.1c0.1 0.2 0.1 0.3 0 0.5v-0.5z" opacity=".016"></path><path fill="#ffd69b" d="m22.8 31.3v-0.1h0.3c-0.1 0.1-0.2 0.2-0.3 0.1z" opacity=".012"></path><path fill="#eae9d3" d="m22.6 31.4v-0.1h0.2c0 0.1-0.1 0.2-0.2 0.1z" opacity=".004"></path><path fill="#c5c570" d="m22.4 31.6v-0.2h0.2c0 0.1-0.1 0.2-0.2 0.2z" opacity=".012"></path><path fill="#a7e650" d="m5.5 31.4c0 0.1 0 0.2 0.1 0.2 0 0.2-0.1 0.2-0.2 0 0-0.1 0.1-0.1 0.1-0.2z" opacity=".004"></path><path fill="#ffe995" d="m22.1 31.7v-0.1h0.3c-0.1 0.1-0.2 0.1-0.3 0.1z" opacity=".008"></path><path fill="#cac963" d="m12.4 31.6h0.1c0 0.6-0.1 0.6-0.1 0z" opacity=".016"></path><path fill="#d5ff7f" d="m21.8 31.8v-0.1h0.3c-0.1 0.1-0.2 0.1-0.3 0.1z" opacity=".016"></path><path fill="#ff9063" d="m21.5 31.9v-0.1h0.3c-0.1 0.1-0.2 0.1-0.3 0.1z" opacity=".008"></path><path fill="#dfd073" d="m4 27.8c0.2 0.3 0.4 0.6 0.6 0.8 0 0.4 0.1 0.7 0.2 1 0.7 1.5 1.6 2.7 2.7 3.8-0.2-0.1-0.4-0.2-0.5-0.4 0-0.1-0.1-0.1-0.1-0.1-0.3-0.2-0.5-0.4-0.7-0.7 0 0 0-0.1-0.1-0.1 0-0.1-0.1-0.1-0.1-0.1-0.2-0.1-0.3-0.3-0.4-0.4-0.1 0-0.1-0.1-0.1-0.2 0-0.1-0.1-0.2-0.2-0.3-0.1-0.1-0.1-0.2-0.2-0.3 0-0.1-0.1-0.2-0.1-0.3 0-0.1-0.1-0.1-0.2-0.2 0-0.2-0.1-0.3-0.2-0.4 0-0.1 0-0.2-0.1-0.3 0-0.1 0-0.1-0.1-0.2 0-0.1 0-0.2-0.1-0.3 0-0.3-0.1-0.5-0.2-0.7v-0.6z"></path><path fill="#b8b863" d="m21.3 32v-0.1h0.2c-0.1 0.1-0.1 0.1-0.2 0.1z" opacity=".012"></path><path fill="#fffe8e" d="m21.3 32c-0.1 0.1-0.2 0.1-0.3 0.1 0.1-0.1 0.2-0.1 0.3-0.1z" opacity=".008"></path><path fill="#f0f080" d="m20.6 32.2v-0.1c0.3 0.1 0.3 0.1 0 0.1z" opacity=".008"></path><path fill="#a4cc66" d="m6 32c0 0 0.1 0 0.1 0.1 0.1 0 0.1 0.1 0.1 0.1-0.1 0.3-0.2 0.2-0.4-0.1 0.1 0 0.1-0.1 0.2-0.1z" opacity=".004"></path><path fill="#e1c977" d="m20.3 32.3v-0.1h0.3c-0.1 0.1-0.2 0.2-0.3 0.1z" opacity=".016"></path><path fill="#d0e5a1" d="m12.3 32.2c0.1 0.2 0.1 0.3 0 0.5v-0.5z" opacity=".016"></path><path fill="#f4f250" d="m19.7 32.5v-0.2h0.6c-0.2 0.2-0.4 0.2-0.6 0.2z" opacity=".004"></path><path fill="#d0c068" d="m19.4 32.5h0.3c-0.1 0.1-0.2 0.1-0.3 0z" opacity=".02"></path><path fill="#90ff76" d="m14.8 32.5c0.2 0 0.2 0.1 0.1 0.2 0-0.1-0.1-0.2-0.1-0.2z" opacity=".004"></path><path fill="#e1e180" d="m12.2 32.7h0.1c-0.1 0.6-0.1 0.6-0.1 0z" opacity=".024"></path><path fill="#f6ca7a" d="m6.9 32.9c0 0 0.1 0 0.1 0.1-0.1 0.2-0.2 0.1-0.4 0 0.1-0.1 0.2-0.1 0.3-0.1z" opacity=".012"></path><path fill="#bb7444" d="m7.5 33.5c0.1 0 0.2 0 0.2 0.1-0.2 0.1-0.3 0.1-0.4-0.1 0.1 0 0.2 0 0.2 0z" opacity=".016"></path><path fill="#f1ef88" d="m12 33.9c0-0.2 0-0.4 0.1-0.5 0.1 0.2 0.1 0.4-0.1 0.5z" opacity=".008"></path><path fill="#dfdd94" d="m11.9 33.9h0.1c0.1 0.2 0 0.3-0.1 0.5v-0.5z" opacity=".02"></path><path fill="#d5d368" d="m8.7 34.3c-0.1 0.1-0.2 0.1-0.3 0 0.1 0 0.2-0.1 0.3 0z" opacity=".016"></path><path fill="#ebf58e" d="m11.8 34.4h0.1c0 1-0.1 1-0.1 0z" opacity=".008"></path><path fill="#d1de50" d="m9.7 34.7c0 0.1 0.1 0.1 0.2 0.1-0.2 0.2-0.3 0.1-0.4 0 0-0.1 0.1-0.1 0.2-0.1z" opacity=".004"></path><path fill="#e8d58d" d="m10.2 34.9v0.1c-0.3 0-0.3 0 0-0.1z" opacity=".016"></path><path fill="#e2e18c" d="m10.2 35c0.1 0 0.2 0 0.3 0.1-0.1 0.1-0.2 0.1-0.3-0.1z" opacity=".012"></path><path fill="#d1bb5d" d="m11.4 35.3v0.1c-0.5-0.1-0.5-0.1 0-0.1z" opacity=".02"></path><path fill="#4f4e17" d="m11.4 35.4c0 0 0.1 0 0.2 0-0.1 0.1-0.2 0.1-0.2 0z" opacity=".004"></path></svg>