<svg xmlns="http://www.w3.org/2000/svg" version="1.1" width="251px" height="320px" style="shape-rendering:geometricPrecision; text-rendering:geometricPrecision; image-rendering:optimizeQuality; fill-rule:evenodd; clip-rule:evenodd" xmlns:xlink="http://www.w3.org/1999/xlink">
<g><path style="opacity:0.012" fill="#e1b45a" d="M 179.5,-0.5 C 180.5,-0.5 181.5,-0.5 182.5,-0.5C 181.5,0.833333 180.5,0.833333 179.5,-0.5 Z"/></g>
<g><path style="opacity:0.51" fill="#d6d57d" d="M 178.5,1.5 C 182.47,1.98413 186.136,3.31746 189.5,5.5C 189.5,6.16667 189.833,6.5 190.5,6.5C 192.833,8.16667 194.833,10.1667 196.5,12.5C 196.5,13.1667 196.5,13.8333 196.5,14.5C 191.088,9.14861 185.088,4.81528 178.5,1.5 Z"/></g>
<g><path style="opacity:1" fill="#ec7903" d="M 178.5,1.5 C 185.088,4.81528 191.088,9.14861 196.5,14.5C 197.016,17.8988 197.85,21.2321 199,24.5C 198.653,37.889 195.319,50.5556 189,62.5C 188.333,67.5 188.333,72.5 189,77.5C 190.122,79.6238 191.622,81.4571 193.5,83C 208.795,90.4603 221.462,100.96 231.5,114.5C 233.072,119.655 235.238,124.655 238,129.5C 249.01,167.433 242.676,202.1 219,233.5C 191.536,268.815 155.37,286.982 110.5,288C 130.002,281.503 139.836,268.003 140,247.5C 140.667,246.833 141.333,246.167 142,245.5C 149.693,200.724 158.027,156.057 167,111.5C 167.667,107.5 167.667,103.5 167,99.5C 166.125,96.7854 164.292,95.4521 161.5,95.5C 159.424,93.2862 156.758,91.7862 153.5,91C 141.474,91.0101 129.474,91.3435 117.5,92C 98.1524,87.5935 90.3191,75.4268 94,55.5C 98.1324,40.6876 106.299,28.5209 118.5,19C 136.027,5.11379 156.027,-0.719539 178.5,1.5 Z"/></g>
<g><path style="opacity:0.004" fill="#ffd96b" d="M 189.5,5.5 C 190.497,4.28749 191.497,4.45415 192.5,6C 191.906,6.46434 191.239,6.63101 190.5,6.5C 189.833,6.5 189.5,6.16667 189.5,5.5 Z"/></g>
<g><path style="opacity:0.008" fill="#e7ac66" d="M 133.5,6.5 C 133.5,6.83333 133.5,7.16667 133.5,7.5C 132.508,7.32842 131.842,7.66175 131.5,8.5C 130.761,8.63101 130.094,8.46434 129.5,8C 130.563,6.81181 131.897,6.31181 133.5,6.5 Z"/></g>
<g><path style="opacity:0.016" fill="#feff7f" d="M 197.5,12.5 C 196.833,11.1667 196.833,11.1667 197.5,12.5 Z"/></g>
<g><path style="opacity:0.004" fill="#e8b048" d="M 124.5,12.5 C 123.833,12.5 123.5,12.8333 123.5,13.5C 121.025,13.2533 121.025,12.5866 123.5,11.5C 124.107,11.6236 124.44,11.9569 124.5,12.5 Z"/></g>
<g><path style="opacity:0.012" fill="#feffa9" d="M 197.5,12.5 C 198.833,13.1667 198.833,13.1667 197.5,12.5 Z"/></g>
<g><path style="opacity:0.004" fill="#fa9a4b" d="M 120.5,15.5 C 119.833,15.5 119.5,15.8333 119.5,16.5C 117.025,16.2533 117.025,15.5866 119.5,14.5C 120.107,14.6236 120.44,14.9569 120.5,15.5 Z"/></g>
<g><path style="opacity:1" fill="#e2d176" d="M 157.5,-0.5 C 163.5,-0.5 169.5,-0.5 175.5,-0.5C 176.5,0.166667 177.5,0.833333 178.5,1.5C 156.027,-0.719539 136.027,5.11379 118.5,19C 106.299,28.5209 98.1324,40.6876 94,55.5C 90.3191,75.4268 98.1524,87.5935 117.5,92C 129.474,91.3435 141.474,91.0101 153.5,91C 156.758,91.7862 159.424,93.2862 161.5,95.5C 152.492,91.9937 143.492,91.6604 134.5,94.5C 123.94,95.6334 113.94,93.9667 104.5,89.5C 102.192,87.5293 99.8585,85.5293 97.5,83.5C 97.5,82.8333 97.1667,82.5 96.5,82.5C 94.8007,79.1013 93.134,75.768 91.5,72.5C 91.7678,70.901 91.4345,69.5676 90.5,68.5C 90.5865,64.1434 90.9198,59.81 91.5,55.5C 92.9238,53.4855 93.5905,51.1522 93.5,48.5C 99.606,35.7298 108.273,25.0632 119.5,16.5C 120.167,16.5 120.5,16.1667 120.5,15.5C 121.71,15.0679 122.71,14.4013 123.5,13.5C 124.167,13.5 124.5,13.1667 124.5,12.5C 127.004,11.4161 129.337,10.0828 131.5,8.5C 132.492,8.67158 133.158,8.33825 133.5,7.5C 134.833,7.16667 134.833,6.83333 133.5,6.5C 133.811,5.52216 134.478,4.85549 135.5,4.5C 135.833,5.16667 136.167,5.83333 136.5,6.5C 143.313,3.2423 150.313,0.908963 157.5,-0.5 Z"/></g>
<g><path style="opacity:0.008" fill="#e3f588" d="M 201.5,25.5 C 201.457,21.1074 201.957,20.7741 203,24.5C 203.667,27.8333 203.667,31.1667 203,34.5C 202.819,31.3054 202.319,28.3054 201.5,25.5 Z"/></g>
<g><path style="opacity:0.02" fill="#bfe65d" d="M 199.5,42.5 C 200.833,43.5 200.833,44.5 199.5,45.5C 199.5,44.5 199.5,43.5 199.5,42.5 Z"/></g>
<g><path style="opacity:0.004" fill="#fffe57" d="M 198.5,45.5 C 198.833,45.5 199.167,45.5 199.5,45.5C 199.167,48.1667 198.833,48.1667 198.5,45.5 Z"/></g>
<g><path style="opacity:0.02" fill="#dffe77" d="M 93.5,48.5 C 93.1667,48.5 92.8333,48.5 92.5,48.5C 92.8333,45.8333 93.1667,45.8333 93.5,48.5 Z"/></g>
<g><path style="opacity:0.012" fill="#fffea3" d="M 92.5,48.5 C 92.6495,49.552 92.4828,50.552 92,51.5C 91.2599,50.2506 91.4265,49.2506 92.5,48.5 Z"/></g>
<g><path style="opacity:0.004" fill="#ffe9d3" d="M 197.5,50.5 C 197.369,49.7611 197.536,49.0944 198,48.5C 198.692,49.4368 198.525,50.1034 197.5,50.5 Z"/></g>
<g><path style="opacity:0.004" fill="#eeed3b" d="M 196.5,50.5 C 196.833,50.5 197.167,50.5 197.5,50.5C 197.167,53.1667 196.833,53.1667 196.5,50.5 Z"/></g>
<g><path style="opacity:0.02" fill="#c6b574" d="M 91.5,55.5 C 91.1667,55.5 90.8333,55.5 90.5,55.5C 90.8333,51.5 91.1667,51.5 91.5,55.5 Z"/></g>
<g><path style="opacity:0.008" fill="#959480" d="M 195.5,55.5 C 195.369,54.7611 195.536,54.0944 196,53.5C 196.692,54.4368 196.525,55.1034 195.5,55.5 Z"/></g>
<g><path style="opacity:0.004" fill="#f0edcb" d="M 194.5,55.5 C 194.833,55.5 195.167,55.5 195.5,55.5C 195.672,56.4916 195.338,57.1583 194.5,57.5C 194.5,56.8333 194.5,56.1667 194.5,55.5 Z"/></g>
<g><path style="opacity:0.012" fill="#e4f092" d="M 90.5,55.5 C 90.6567,56.8734 90.49,58.2068 90,59.5C 89.235,57.9343 89.4017,56.6009 90.5,55.5 Z"/></g>
<g><path style="opacity:0.004" fill="#937851" d="M 193.5,57.5 C 193.833,57.5 194.167,57.5 194.5,57.5C 194.628,59.6547 194.128,61.6547 193,63.5C 192.517,62.552 192.351,61.552 192.5,60.5C 193.404,59.791 193.737,58.791 193.5,57.5 Z"/></g>
<g><path style="opacity:0.004" fill="#3e4615" d="M 88.5,60.5 C 89.6291,62.6282 89.7958,64.9615 89,67.5C 88.5034,65.1902 88.3367,62.8568 88.5,60.5 Z"/></g>
<g><path style="opacity:0.723" fill="#dbd176" d="M 196.5,14.5 C 197.79,15.0577 198.623,16.0577 199,17.5C 199.546,20.3791 200.379,23.0458 201.5,25.5C 201.353,31.2331 200.686,36.8998 199.5,42.5C 198.596,43.209 198.263,44.209 198.5,45.5C 197.069,46.7804 196.402,48.4471 196.5,50.5C 195.069,51.7804 194.402,53.4471 194.5,55.5C 193.662,55.8417 193.328,56.5084 193.5,57.5C 192.596,58.209 192.263,59.209 192.5,60.5C 191.732,61.2625 191.232,62.2625 191,63.5C 190.333,68.1667 190.333,72.8333 191,77.5C 192.662,80.5769 195.162,82.5769 198.5,83.5C 202.136,86.323 206.136,88.6563 210.5,90.5C 210.5,91.1667 210.833,91.5 211.5,91.5C 213.475,93.137 215.475,94.8036 217.5,96.5C 217.5,97.1667 217.833,97.5 218.5,97.5C 219.167,98.8333 220.167,99.8333 221.5,100.5C 221.5,101.167 221.833,101.5 222.5,101.5C 225.915,105.576 228.915,109.909 231.5,114.5C 221.462,100.96 208.795,90.4603 193.5,83C 191.622,81.4571 190.122,79.6238 189,77.5C 188.333,72.5 188.333,67.5 189,62.5C 195.319,50.5556 198.653,37.889 199,24.5C 197.85,21.2321 197.016,17.8988 196.5,14.5 Z"/></g>
<g><path style="opacity:0.012" fill="#cbbc65" d="M 90.5,68.5 C 90.5,69.8333 90.5,71.1667 90.5,72.5C 89.1667,71.1667 89.1667,69.8333 90.5,68.5 Z"/></g>
<g><path style="opacity:0.016" fill="#e1ff6c" d="M 90.5,72.5 C 90.8333,72.5 91.1667,72.5 91.5,72.5C 91.1667,76.5 90.8333,76.5 90.5,72.5 Z"/></g>
<g><path style="opacity:0.016" fill="#bebf7f" d="M 198.5,82.5 C 199.833,83.1667 199.833,83.1667 198.5,82.5 Z"/></g>
<g><path style="opacity:0.004" fill="#c2b7ad" d="M 96.5,82.5 C 97.1667,82.5 97.5,82.8333 97.5,83.5C 97.2533,85.9752 96.5866,85.9752 95.5,83.5C 95.6236,82.8933 95.9569,82.56 96.5,82.5 Z"/></g>
<g><path style="opacity:0.012" fill="#ffc58d" d="M 104.5,89.5 C 104.5,89.8333 104.5,90.1667 104.5,90.5C 101.833,90.1667 101.833,89.8333 104.5,89.5 Z"/></g>
<g><path style="opacity:0.012" fill="#feffa9" d="M 104.5,90.5 C 105.833,91.1667 105.833,91.1667 104.5,90.5 Z"/></g>
<g><path style="opacity:0.008" fill="#ffd656" d="M 210.5,90.5 C 211.497,89.2875 212.497,89.4542 213.5,91C 212.906,91.4643 212.239,91.631 211.5,91.5C 210.833,91.5 210.5,91.1667 210.5,90.5 Z"/></g>
<g><path style="opacity:0.012" fill="#cdc55f" d="M 134.5,95.5 C 134.5,95.1667 134.5,94.8333 134.5,94.5C 142.5,94.8333 142.5,95.1667 134.5,95.5 Z"/></g>
<g><path style="opacity:0.008" fill="#f3f18d" d="M 134.5,95.5 C 129.015,96.6517 123.349,96.8184 117.5,96C 123.157,95.5006 128.824,95.3339 134.5,95.5 Z"/></g>
<g><path style="opacity:0.004" fill="#c2b998" d="M 217.5,96.5 C 218.497,95.2875 219.497,95.4542 220.5,97C 219.906,97.4643 219.239,97.631 218.5,97.5C 217.833,97.5 217.5,97.1667 217.5,96.5 Z"/></g>
<g><path style="opacity:0.004" fill="#7aef38" d="M 163.5,98.5 C 163.5,99.1667 163.5,99.8333 163.5,100.5C 162.167,99.8333 162.167,99.1667 163.5,98.5 Z"/></g>
<g><path style="opacity:0.008" fill="#e3f48a" d="M 222.5,101.5 C 221.833,101.5 221.5,101.167 221.5,100.5C 221.747,98.0248 222.413,98.0248 223.5,100.5C 223.376,101.107 223.043,101.44 222.5,101.5 Z"/></g>
<g><path style="opacity:0.016" fill="#ccca81" d="M 163.5,100.5 C 163.833,100.5 164.167,100.5 164.5,100.5C 164.5,101.833 164.5,103.167 164.5,104.5C 163.566,103.432 163.232,102.099 163.5,100.5 Z"/></g>
<g><path style="opacity:0.012" fill="#c8dc90" d="M 101.5,106.5 C 102.601,105.402 103.934,105.235 105.5,106C 104.207,106.49 102.873,106.657 101.5,106.5 Z"/></g>
<g><path style="opacity:0.004" fill="#fefffe" d="M 123.5,105.5 C 124.525,105.897 124.692,106.563 124,107.5C 123.536,106.906 123.369,106.239 123.5,105.5 Z"/></g>
<g><path style="opacity:0.98" fill="#dfd882" d="M 117.5,110.5 C 117.5,109.5 117.5,108.5 117.5,107.5C 110.833,108.167 104.167,108.833 97.5,109.5C 100.521,108.32 103.687,107.32 107,106.5C 107.333,106.833 107.667,107.167 108,107.5C 112.735,105.721 117.568,105.387 122.5,106.5C 120.814,107.857 119.148,109.19 117.5,110.5 Z"/></g>
<g><path style="opacity:0.008" fill="#d9d475" d="M 164.5,104.5 C 164.833,104.5 165.167,104.5 165.5,104.5C 165.5,105.167 165.5,105.833 165.5,106.5C 164.549,107.919 164.216,109.585 164.5,111.5C 163.244,109.274 163.244,106.941 164.5,104.5 Z"/></g>
<g><path style="opacity:1" fill="#ec7903" d="M 117.5,110.5 C 114.236,111.927 111.736,114.261 110,117.5C 105.582,124.337 102.248,131.67 100,139.5C 97.1035,153.816 94.2701,168.149 91.5,182.5C 90.4665,189.135 89.7998,195.801 89.5,202.5C 87.5541,204.734 86.3874,207.401 86,210.5C 79.6683,243.836 73.5016,277.169 67.5,310.5C 62.6265,310.159 57.9599,308.992 53.5,307C 46.4469,303.473 39.4469,299.973 32.5,296.5C 22.2944,287.112 14.1278,276.112 8,263.5C 7.01237,260.576 6.3457,257.576 6,254.5C 4.21166,252.24 2.71166,249.907 1.5,247.5C 1.5,247.167 1.5,246.833 1.5,246.5C -1.65683,187.055 23.3432,144.222 76.5,118C 83.6432,115.08 90.6432,112.247 97.5,109.5C 104.167,108.833 110.833,108.167 117.5,107.5C 117.5,108.5 117.5,109.5 117.5,110.5 Z"/></g>
<g><path style="opacity:0.008" fill="#ca9784" d="M 233.5,115.5 C 233.5,114.833 233.167,114.5 232.5,114.5C 232.747,112.025 233.413,112.025 234.5,114.5C 234.376,115.107 234.043,115.44 233.5,115.5 Z"/></g>
<g><path style="opacity:0.016" fill="#bebf7f" d="M 115.5,114.5 C 116.833,115.167 116.833,115.167 115.5,114.5 Z"/></g>
<g><path style="opacity:0.004" fill="#c2c099" d="M 114.5,115.5 C 114.833,115.5 115.167,115.5 115.5,115.5C 115.573,117.027 114.906,118.027 113.5,118.5C 113.5,117.833 113.5,117.167 113.5,116.5C 114.167,116.5 114.5,116.167 114.5,115.5 Z"/></g>
<g><path style="opacity:0.012" fill="#feffa9" d="M 112.5,118.5 C 112.833,118.5 113.167,118.5 113.5,118.5C 113.315,119.17 112.981,119.17 112.5,118.5 Z"/></g>
<g><path style="opacity:0.012" fill="#feffa9" d="M 65.5,119.5 C 66.8333,120.167 66.8333,120.167 65.5,119.5 Z"/></g>
<g><path style="opacity:0.004" fill="#fffe44" d="M 111.5,119.5 C 111.833,119.5 112.167,119.5 112.5,119.5C 112.167,122.167 111.833,122.167 111.5,119.5 Z"/></g>
<g><path style="opacity:0.016" fill="#9b8b5e" d="M 242.5,133.5 C 242.167,133.5 241.833,133.5 241.5,133.5C 241.833,129.5 242.167,129.5 242.5,133.5 Z"/></g>
<g><path style="opacity:0.02" fill="#e9c792" d="M 105.5,131.5 C 106.833,132.5 106.833,133.5 105.5,134.5C 105.5,133.5 105.5,132.5 105.5,131.5 Z"/></g>
<g><path style="opacity:0.016" fill="#b8b771" d="M 242.5,133.5 C 243.525,133.897 243.692,134.563 243,135.5C 242.536,134.906 242.369,134.239 242.5,133.5 Z"/></g>
<g><path style="opacity:0.004" fill="#e2d1a8" d="M 45.5,135.5 C 44.8333,135.5 44.5,135.833 44.5,136.5C 42.0248,136.253 42.0248,135.587 44.5,134.5C 45.1067,134.624 45.44,134.957 45.5,135.5 Z"/></g>
<g><path style="opacity:0.008" fill="#bc855e" d="M 104.5,134.5 C 104.833,134.5 105.167,134.5 105.5,134.5C 105.167,138.5 104.833,138.5 104.5,134.5 Z"/></g>
<g><path style="opacity:0.016" fill="#bfaf80" d="M 103.5,138.5 C 104.833,139.5 104.833,140.5 103.5,141.5C 103.5,140.5 103.5,139.5 103.5,138.5 Z"/></g>
<g><path style="opacity:0.016" fill="#d7e36d" d="M 102.5,141.5 C 102.833,141.5 103.167,141.5 103.5,141.5C 103.167,146.833 102.833,146.833 102.5,141.5 Z"/></g>
<g><path style="opacity:0.012" fill="#ffdd79" d="M 157.5,147.5 C 156.387,146.054 156.22,144.387 157,142.5C 157.494,144.134 157.66,145.801 157.5,147.5 Z"/></g>
<g><path style="opacity:0.012" fill="#f0d588" d="M 101.5,151.5 C 101.343,150.127 101.51,148.793 102,147.5C 102.765,149.066 102.598,150.399 101.5,151.5 Z"/></g>
<g><path style="opacity:0.024" fill="#e2d077" d="M 100.5,151.5 C 100.833,151.5 101.167,151.5 101.5,151.5C 101.768,153.099 101.434,154.432 100.5,155.5C 100.5,154.167 100.5,152.833 100.5,151.5 Z"/></g>
<g><path style="opacity:0.012" fill="#ffee88" d="M 155.5,157.5 C 154.402,156.399 154.235,155.066 155,153.5C 155.49,154.793 155.657,156.127 155.5,157.5 Z"/></g>
<g><path style="opacity:0.02" fill="#dfd18a" d="M 246.5,174.5 C 246.334,166.826 246.5,159.159 247,151.5C 247.822,159.345 247.656,167.011 246.5,174.5 Z"/></g>
<g><path style="opacity:1" fill="#e4cd71" d="M 117.5,110.5 C 116.833,111.833 116.167,113.167 115.5,114.5C 114.833,114.5 114.5,114.833 114.5,115.5C 113.833,115.5 113.5,115.833 113.5,116.5C 112.662,116.842 112.328,117.508 112.5,118.5C 111.833,118.5 111.5,118.833 111.5,119.5C 108.46,122.914 106.46,126.914 105.5,131.5C 104.596,132.209 104.263,133.209 104.5,134.5C 103.566,135.568 103.232,136.901 103.5,138.5C 102.596,139.209 102.263,140.209 102.5,141.5C 100.989,144.544 100.322,147.878 100.5,151.5C 99.5655,152.568 99.2322,153.901 99.5,155.5C 98.5318,157.607 98.1984,159.941 98.5,162.5C 97.5655,163.568 97.2322,164.901 97.5,166.5C 96.5386,168.265 96.2053,170.265 96.5,172.5C 95.5655,173.568 95.2322,174.901 95.5,176.5C 94.5318,178.607 94.1984,180.941 94.5,183.5C 93.5655,184.568 93.2322,185.901 93.5,187.5C 92.5386,189.265 92.2053,191.265 92.5,193.5C 91.5489,194.919 91.2155,196.585 91.5,198.5C 90.5655,199.568 90.2322,200.901 90.5,202.5C 90.1667,202.5 89.8333,202.5 89.5,202.5C 89.7998,195.801 90.4665,189.135 91.5,182.5C 94.2701,168.149 97.1035,153.816 100,139.5C 102.248,131.67 105.582,124.337 110,117.5C 111.736,114.261 114.236,111.927 117.5,110.5 Z"/></g>
<g><path style="opacity:0.008" fill="#f0e460" d="M 99.5,155.5 C 99.8333,155.5 100.167,155.5 100.5,155.5C 100.802,158.059 100.468,160.393 99.5,162.5C 99.5,160.167 99.5,157.833 99.5,155.5 Z"/></g>
<g><path style="opacity:0.012" fill="#ecf166" d="M 154.5,164.5 C 153.732,165.263 153.232,166.263 153,167.5C 152.799,164.485 153.132,161.485 154,158.5C 154.495,160.473 154.662,162.473 154.5,164.5 Z"/></g>
<g><path style="opacity:0.02" fill="#dfd0a2" d="M 98.5,162.5 C 98.8333,162.5 99.1667,162.5 99.5,162.5C 99.7678,164.099 99.4345,165.432 98.5,166.5C 98.5,165.167 98.5,163.833 98.5,162.5 Z"/></g>
<g><path style="opacity:0.012" fill="#e9c68c" d="M 97.5,166.5 C 97.8333,166.5 98.1667,166.5 98.5,166.5C 98.7947,168.735 98.4614,170.735 97.5,172.5C 97.5,170.5 97.5,168.5 97.5,166.5 Z"/></g>
<g><path style="opacity:0.012" fill="#f6f49b" d="M 245.5,174.5 C 245.833,174.5 246.167,174.5 246.5,174.5C 246.167,185.167 245.833,185.167 245.5,174.5 Z"/></g>
<g><path style="opacity:0.008" fill="#e7cf54" d="M 12.5,175.5 C 11.6618,175.842 11.3284,176.508 11.5,177.5C 10.2035,176.151 10.3702,174.818 12,173.5C 12.4643,174.094 12.631,174.761 12.5,175.5 Z"/></g>
<g><path style="opacity:0.012" fill="#d6e57c" d="M 96.5,172.5 C 96.8333,172.5 97.1667,172.5 97.5,172.5C 97.3256,175.874 96.8256,179.207 96,182.5C 95.5045,180.527 95.3379,178.527 95.5,176.5C 96.4345,175.432 96.7678,174.099 96.5,172.5 Z"/></g>
<g><path style="opacity:0.008" fill="#efff94" d="M 150.5,184.5 C 149.378,182.712 149.211,180.712 150,178.5C 150.495,180.473 150.662,182.473 150.5,184.5 Z"/></g>
<g><path style="opacity:0.016" fill="#e9e974" d="M 244.5,186.5 C 244.351,185.448 244.517,184.448 245,183.5C 245.74,184.749 245.573,185.749 244.5,186.5 Z"/></g>
<g><path style="opacity:0.008" fill="#ffac8d" d="M 7.5,185.5 C 6.47498,185.103 6.30831,184.437 7,183.5C 7.46434,184.094 7.63101,184.761 7.5,185.5 Z"/></g>
<g><path style="opacity:0.016" fill="#e7d381" d="M 94.5,183.5 C 95.8333,184.833 95.8333,186.167 94.5,187.5C 94.5,186.167 94.5,184.833 94.5,183.5 Z"/></g>
<g><path style="opacity:1" fill="#dfd177" d="M 97.5,109.5 C 90.6432,112.247 83.6432,115.08 76.5,118C 23.3432,144.222 -1.65683,187.055 1.5,246.5C 0.833333,245.167 0.166667,243.833 -0.5,242.5C -0.5,233.167 -0.5,223.833 -0.5,214.5C 0.903408,211.091 1.57007,207.425 1.5,203.5C 3.67317,197.647 5.67317,191.647 7.5,185.5C 9.341,183.151 10.6743,180.485 11.5,177.5C 12.3382,177.158 12.6716,176.492 12.5,175.5C 20.9287,160.731 31.5953,147.731 44.5,136.5C 45.1667,136.5 45.5,136.167 45.5,135.5C 60.8258,122.846 78.1592,114.18 97.5,109.5 Z"/></g>
<g><path style="opacity:0.02" fill="#d9d95d" d="M 243.5,186.5 C 243.833,186.5 244.167,186.5 244.5,186.5C 244.167,191.833 243.833,191.833 243.5,186.5 Z"/></g>
<g><path style="opacity:0.02" fill="#dcea9f" d="M 93.5,187.5 C 93.8333,187.5 94.1667,187.5 94.5,187.5C 94.1667,192.833 93.8333,192.833 93.5,187.5 Z"/></g>
<g><path style="opacity:0.012" fill="#cde879" d="M 148.5,193.5 C 147.402,192.399 147.235,191.066 148,189.5C 148.49,190.793 148.657,192.127 148.5,193.5 Z"/></g>
<g><path style="opacity:0.016" fill="#e0dea0" d="M 242.5,191.5 C 243.833,192.5 243.833,193.5 242.5,194.5C 242.5,193.5 242.5,192.5 242.5,191.5 Z"/></g>
<g><path style="opacity:0.016" fill="#9b8b5e" d="M 241.5,194.5 C 241.833,194.5 242.167,194.5 242.5,194.5C 242.737,195.791 242.404,196.791 241.5,197.5C 241.5,196.5 241.5,195.5 241.5,194.5 Z"/></g>
<g><path style="opacity:0.008" fill="#ffdd77" d="M 92.5,193.5 C 93.8333,195.167 93.8333,196.833 92.5,198.5C 92.5,196.833 92.5,195.167 92.5,193.5 Z"/></g>
<g><path style="opacity:0.012" fill="#d9f682" d="M 147.5,199.5 C 147.167,199.5 146.833,199.5 146.5,199.5C 146.833,194.167 147.167,194.167 147.5,199.5 Z"/></g>
<g><path style="opacity:0.008" fill="#f1bb55" d="M 240.5,197.5 C 240.833,197.5 241.167,197.5 241.5,197.5C 241.737,198.791 241.404,199.791 240.5,200.5C 240.5,199.5 240.5,198.5 240.5,197.5 Z"/></g>
<g><path style="opacity:0.02" fill="#c8db7d" d="M 91.5,198.5 C 91.8333,198.5 92.1667,198.5 92.5,198.5C 92.1667,202.5 91.8333,202.5 91.5,198.5 Z"/></g>
<g><path style="opacity:0.02" fill="#ccd68c" d="M 1.5,203.5 C 1.16667,203.5 0.833333,203.5 0.5,203.5C 0.833333,199.5 1.16667,199.5 1.5,203.5 Z"/></g>
<g><path style="opacity:0.016" fill="#d5ff7f" d="M 239.5,200.5 C 239.833,200.5 240.167,200.5 240.5,200.5C 240.167,203.167 239.833,203.167 239.5,200.5 Z"/></g>
<g><path style="opacity:0.012" fill="#e0e29c" d="M 146.5,199.5 C 146.657,200.873 146.49,202.207 146,203.5C 145.235,201.934 145.402,200.601 146.5,199.5 Z"/></g>
<g><path style="opacity:0.012" fill="#c5b259" d="M -0.5,203.5 C -0.166667,203.5 0.166667,203.5 0.5,203.5C 0.767809,205.099 0.434475,206.432 -0.5,207.5C -0.5,206.167 -0.5,204.833 -0.5,203.5 Z"/></g>
<g><path style="opacity:0.012" fill="#e7e474" d="M 90.5,202.5 C 91.8333,204.5 91.8333,206.5 90.5,208.5C 90.5,206.5 90.5,204.5 90.5,202.5 Z"/></g>
<g><path style="opacity:0.02" fill="#dcf292" d="M 89.5,208.5 C 89.8333,208.5 90.1667,208.5 90.5,208.5C 90.7678,210.099 90.4345,211.432 89.5,212.5C 89.5,211.167 89.5,209.833 89.5,208.5 Z"/></g>
<g><path style="opacity:0.012" fill="#c5c570" d="M 235.5,210.5 C 236.833,211.167 236.833,211.833 235.5,212.5C 235.5,211.833 235.5,211.167 235.5,210.5 Z"/></g>
<g><path style="opacity:0.004" fill="#fffe44" d="M 234.5,212.5 C 234.833,212.5 235.167,212.5 235.5,212.5C 235.672,213.492 235.338,214.158 234.5,214.5C 234.5,213.833 234.5,213.167 234.5,212.5 Z"/></g>
<g><path style="opacity:0.008" fill="#ffd681" d="M 233.5,214.5 C 233.833,214.5 234.167,214.5 234.5,214.5C 234.672,215.492 234.338,216.158 233.5,216.5C 233.5,215.833 233.5,215.167 233.5,214.5 Z"/></g>
<g><path style="opacity:0.008" fill="#e0bc7e" d="M 88.5,212.5 C 88.8333,212.5 89.1667,212.5 89.5,212.5C 89.8016,215.059 89.4682,217.393 88.5,219.5C 88.5,217.167 88.5,214.833 88.5,212.5 Z"/></g>
<g><path style="opacity:0.024" fill="#d4d57f" d="M 232.5,216.5 C 232.833,216.5 233.167,216.5 233.5,216.5C 233.315,217.17 232.981,217.17 232.5,216.5 Z"/></g>
<g><path style="opacity:0.004" fill="#ffe2c5" d="M 231.5,218.5 C 232.833,219.167 232.833,219.833 231.5,220.5C 231.5,219.833 231.5,219.167 231.5,218.5 Z"/></g>
<g><path style="opacity:0.02" fill="#ecea97" d="M 87.5,219.5 C 87.8333,219.5 88.1667,219.5 88.5,219.5C 88.7678,221.099 88.4345,222.432 87.5,223.5C 87.5,222.167 87.5,220.833 87.5,219.5 Z"/></g>
<g><path style="opacity:0.016" fill="#bebf7f" d="M 230.5,220.5 C 230.833,220.5 231.167,220.5 231.5,220.5C 231.315,221.17 230.981,221.17 230.5,220.5 Z"/></g>
<g><path style="opacity:0.008" fill="#ad8d73" d="M 229.5,221.5 C 229.833,221.5 230.167,221.5 230.5,221.5C 230.672,222.492 230.338,223.158 229.5,223.5C 229.5,222.833 229.5,222.167 229.5,221.5 Z"/></g>
<g><path style="opacity:0.012" fill="#d7ec7f" d="M 86.5,223.5 C 86.8333,223.5 87.1667,223.5 87.5,223.5C 87.7947,225.735 87.4614,227.735 86.5,229.5C 86.5,227.5 86.5,225.5 86.5,223.5 Z"/></g>
<g><path style="opacity:0.004" fill="#fffee2" d="M 228.5,223.5 C 228.833,223.5 229.167,223.5 229.5,223.5C 229.672,224.492 229.338,225.158 228.5,225.5C 228.5,224.833 228.5,224.167 228.5,223.5 Z"/></g>
<g><path style="opacity:0.012" fill="#a9aa54" d="M 227.5,225.5 C 227.833,225.5 228.167,225.5 228.5,225.5C 228.315,226.17 227.981,226.17 227.5,225.5 Z"/></g>
<g><path style="opacity:0.008" fill="#a9a88e" d="M 226.5,226.5 C 226.833,226.5 227.167,226.5 227.5,226.5C 227.672,227.492 227.338,228.158 226.5,228.5C 226.5,227.833 226.5,227.167 226.5,226.5 Z"/></g>
<g><path style="opacity:0.012" fill="#a9ffa9" d="M 225.5,228.5 C 225.833,228.5 226.167,228.5 226.5,228.5C 226.315,229.17 225.981,229.17 225.5,228.5 Z"/></g>
<g><path style="opacity:0.012" fill="#c0b267" d="M 85.5,229.5 C 85.8333,229.5 86.1667,229.5 86.5,229.5C 86.7678,231.099 86.4345,232.432 85.5,233.5C 85.5,232.167 85.5,230.833 85.5,229.5 Z"/></g>
<g><path style="opacity:0.016" fill="#c7dd80" d="M 140.5,235.5 C 140.167,235.5 139.833,235.5 139.5,235.5C 139.833,230.167 140.167,230.167 140.5,235.5 Z"/></g>
<g><path style="opacity:0.02" fill="#b5b461" d="M 84.5,233.5 C 84.8333,233.5 85.1667,233.5 85.5,233.5C 85.1667,240.167 84.8333,240.167 84.5,233.5 Z"/></g>
<g><path style="opacity:0.008" fill="#aaad71" d="M 222.5,232.5 C 223.715,233.779 223.382,234.779 221.5,235.5C 221.5,234.833 221.5,234.167 221.5,233.5C 222.167,233.5 222.5,233.167 222.5,232.5 Z"/></g>
<g><path style="opacity:0.012" fill="#a9aa54" d="M 220.5,235.5 C 220.833,235.5 221.167,235.5 221.5,235.5C 221.315,236.17 220.981,236.17 220.5,235.5 Z"/></g>
<g><path style="opacity:0.012" fill="#cac577" d="M 139.5,235.5 C 139.657,236.873 139.49,238.207 139,239.5C 138.235,237.934 138.402,236.601 139.5,235.5 Z"/></g>
<g><path style="opacity:0.02" fill="#cbcc65" d="M 219.5,236.5 C 219.833,236.5 220.167,236.5 220.5,236.5C 220.315,237.17 219.981,237.17 219.5,236.5 Z"/></g>
<g><path style="opacity:0.02" fill="#cbcc65" d="M 218.5,237.5 C 218.833,237.5 219.167,237.5 219.5,237.5C 219.315,238.17 218.981,238.17 218.5,237.5 Z"/></g>
<g><path style="opacity:0.008" fill="#b1ffab" d="M 217.5,238.5 C 217.833,238.5 218.167,238.5 218.5,238.5C 218.672,239.492 218.338,240.158 217.5,240.5C 217.5,239.833 217.5,239.167 217.5,238.5 Z"/></g>
<g><path style="opacity:0.012" fill="#a9ffa9" d="M 216.5,240.5 C 216.833,240.5 217.167,240.5 217.5,240.5C 217.315,241.17 216.981,241.17 216.5,240.5 Z"/></g>
<g><path style="opacity:0.016" fill="#bcaa6f" d="M 83.5,244.5 C 83.3433,243.127 83.51,241.793 84,240.5C 84.765,242.066 84.5983,243.399 83.5,244.5 Z"/></g>
<g><path style="opacity:0.02" fill="#cbcc65" d="M 215.5,241.5 C 215.833,241.5 216.167,241.5 216.5,241.5C 216.315,242.17 215.981,242.17 215.5,241.5 Z"/></g>
<g><path style="opacity:0.012" fill="#d1d264" d="M 138.5,245.5 C 138.167,245.5 137.833,245.5 137.5,245.5C 137.833,240.167 138.167,240.167 138.5,245.5 Z"/></g>
<g><path style="opacity:0.012" fill="#feffa9" d="M 214.5,242.5 C 214.833,242.5 215.167,242.5 215.5,242.5C 215.315,243.17 214.981,243.17 214.5,242.5 Z"/></g>
<g><path style="opacity:0.827" fill="#e1cf74" d="M 89.5,202.5 C 89.5,204.5 89.5,206.5 89.5,208.5C 88.5655,209.568 88.2322,210.901 88.5,212.5C 87.5318,214.607 87.1984,216.941 87.5,219.5C 86.5655,220.568 86.2322,221.901 86.5,223.5C 85.5386,225.265 85.2053,227.265 85.5,229.5C 84.5655,230.568 84.2322,231.901 84.5,233.5C 83.3126,236.946 82.6459,240.613 82.5,244.5C 80.4207,251.235 79.0874,258.235 78.5,265.5C 77.5655,266.568 77.2322,267.901 77.5,269.5C 76.5318,271.607 76.1984,273.941 76.5,276.5C 75.5655,277.568 75.2322,278.901 75.5,280.5C 74.5386,282.265 74.2053,284.265 74.5,286.5C 73.5655,287.568 73.2322,288.901 73.5,290.5C 71.9177,293.876 71.2511,297.542 71.5,301.5C 70.5655,302.568 70.2322,303.901 70.5,305.5C 69.6909,307.292 69.1909,309.292 69,311.5C 68.5831,312.756 67.7498,313.423 66.5,313.5C 63.4498,311.899 60.1165,310.899 56.5,310.5C 55.791,309.596 54.791,309.263 53.5,309.5C 53.1583,308.662 52.4916,308.328 51.5,308.5C 48.7442,306.796 45.7442,305.463 42.5,304.5C 39.7089,302.265 36.7089,300.265 33.5,298.5C 33.5,297.833 33.1667,297.5 32.5,297.5C 32.5,297.167 32.5,296.833 32.5,296.5C 39.4469,299.973 46.4469,303.473 53.5,307C 57.9599,308.992 62.6265,310.159 67.5,310.5C 73.5016,277.169 79.6683,243.836 86,210.5C 86.3874,207.401 87.5541,204.734 89.5,202.5 Z"/></g>
<g><path style="opacity:0.02" fill="#dfdd8f" d="M 82.5,244.5 C 82.8333,244.5 83.1667,244.5 83.5,244.5C 83.1667,249.833 82.8333,249.833 82.5,244.5 Z"/></g>
<g><path style="opacity:0.541" fill="#e1d076" d="M 161.5,95.5 C 164.292,95.4521 166.125,96.7854 167,99.5C 167.667,103.5 167.667,107.5 167,111.5C 158.027,156.057 149.693,200.724 142,245.5C 141.333,246.167 140.667,246.833 140,247.5C 139.836,268.003 130.002,281.503 110.5,288C 155.37,286.982 191.536,268.815 219,233.5C 242.676,202.1 249.01,167.433 238,129.5C 235.238,124.655 233.072,119.655 231.5,114.5C 231.833,114.5 232.167,114.5 232.5,114.5C 233.167,114.5 233.5,114.833 233.5,115.5C 236.205,121.568 238.872,127.568 241.5,133.5C 244.969,146.932 246.303,160.598 245.5,174.5C 244.518,178.316 243.851,182.316 243.5,186.5C 242.549,187.919 242.216,189.585 242.5,191.5C 241.596,192.209 241.263,193.209 241.5,194.5C 240.596,195.209 240.263,196.209 240.5,197.5C 239.596,198.209 239.263,199.209 239.5,200.5C 237.654,203.54 236.321,206.873 235.5,210.5C 234.662,210.842 234.328,211.508 234.5,212.5C 233.662,212.842 233.328,213.508 233.5,214.5C 232.662,214.842 232.328,215.508 232.5,216.5C 231.662,216.842 231.328,217.508 231.5,218.5C 230.662,218.842 230.328,219.508 230.5,220.5C 229.833,220.5 229.5,220.833 229.5,221.5C 228.662,221.842 228.328,222.508 228.5,223.5C 227.662,223.842 227.328,224.508 227.5,225.5C 226.833,225.5 226.5,225.833 226.5,226.5C 225.662,226.842 225.328,227.508 225.5,228.5C 223.738,229.262 222.738,230.596 222.5,232.5C 221.833,232.5 221.5,232.833 221.5,233.5C 220.662,233.842 220.328,234.508 220.5,235.5C 219.833,235.5 219.5,235.833 219.5,236.5C 218.833,236.5 218.5,236.833 218.5,237.5C 217.833,237.5 217.5,237.833 217.5,238.5C 216.662,238.842 216.328,239.508 216.5,240.5C 215.833,240.5 215.5,240.833 215.5,241.5C 214.833,241.5 214.5,241.833 214.5,242.5C 213.833,242.5 213.5,242.833 213.5,243.5C 212.833,243.5 212.5,243.833 212.5,244.5C 211.833,244.5 211.5,244.833 211.5,245.5C 210.833,245.5 210.5,245.833 210.5,246.5C 209.833,246.5 209.5,246.833 209.5,247.5C 208.833,247.5 208.5,247.833 208.5,248.5C 207.833,248.5 207.5,248.833 207.5,249.5C 206.833,249.5 206.5,249.833 206.5,250.5C 205.833,250.5 205.5,250.833 205.5,251.5C 204.833,251.5 204.5,251.833 204.5,252.5C 203.833,252.5 203.5,252.833 203.5,253.5C 202.833,253.5 202.5,253.833 202.5,254.5C 201.833,254.5 201.5,254.833 201.5,255.5C 200.833,255.5 200.5,255.833 200.5,256.5C 199.833,256.5 199.5,256.833 199.5,257.5C 198.833,257.5 198.5,257.833 198.5,258.5C 197.508,258.328 196.842,258.662 196.5,259.5C 195.833,259.5 195.5,259.833 195.5,260.5C 193.246,261.124 191.579,262.457 190.5,264.5C 189.508,264.328 188.842,264.662 188.5,265.5C 187.833,265.5 187.5,265.833 187.5,266.5C 185.566,267.11 183.899,268.11 182.5,269.5C 181.833,269.5 181.5,269.833 181.5,270.5C 178.669,271.079 176.336,272.412 174.5,274.5C 173.508,274.328 172.842,274.662 172.5,275.5C 171.508,275.328 170.842,275.662 170.5,276.5C 169.508,276.328 168.842,276.662 168.5,277.5C 167.508,277.328 166.842,277.662 166.5,278.5C 165.508,278.328 164.842,278.662 164.5,279.5C 163.209,279.263 162.209,279.596 161.5,280.5C 160.508,280.328 159.842,280.662 159.5,281.5C 158.209,281.263 157.209,281.596 156.5,282.5C 155.508,282.328 154.842,282.662 154.5,283.5C 152.214,283.595 150.214,284.262 148.5,285.5C 147.209,285.263 146.209,285.596 145.5,286.5C 143.585,286.216 141.919,286.549 140.5,287.5C 139.209,287.263 138.209,287.596 137.5,288.5C 124.881,290.485 112.214,290.818 99.5,289.5C 111.76,287.12 122.26,281.453 131,272.5C 135.512,264.125 138.012,255.125 138.5,245.5C 140.011,242.456 140.678,239.122 140.5,235.5C 143.462,223.748 145.795,211.748 147.5,199.5C 148.828,197.556 149.161,195.556 148.5,193.5C 149.913,190.781 150.58,187.781 150.5,184.5C 152.433,178.078 153.766,171.411 154.5,164.5C 155.468,162.393 155.802,160.059 155.5,157.5C 156.563,154.783 157.563,151.949 158.5,149C 157.944,148.617 157.611,148.117 157.5,147.5C 160.753,135.796 163.087,123.796 164.5,111.5C 165.451,110.081 165.784,108.415 165.5,106.5C 166.833,105.833 166.833,105.167 165.5,104.5C 165.768,102.901 165.434,101.568 164.5,100.5C 164.672,99.5084 164.338,98.8417 163.5,98.5C 162.833,97.5 162.167,96.5 161.5,95.5 Z"/></g>
<g><path style="opacity:0.004" fill="#dfd19b" d="M 213.5,243.5 C 213.833,243.5 214.167,243.5 214.5,243.5C 211.833,248.167 208.167,251.833 203.5,254.5C 203.5,254.167 203.5,253.833 203.5,253.5C 204.167,253.5 204.5,253.167 204.5,252.5C 205.167,252.5 205.5,252.167 205.5,251.5C 206.167,251.5 206.5,251.167 206.5,250.5C 207.167,250.5 207.5,250.167 207.5,249.5C 208.167,249.5 208.5,249.167 208.5,248.5C 209.167,248.5 209.5,248.167 209.5,247.5C 210.167,247.5 210.5,247.167 210.5,246.5C 211.167,246.5 211.5,246.167 211.5,245.5C 212.167,245.5 212.5,245.167 212.5,244.5C 213.167,244.5 213.5,244.167 213.5,243.5 Z"/></g>
<g><path style="opacity:0.012" fill="#dedd80" d="M 137.5,245.5 C 137.657,246.873 137.49,248.207 137,249.5C 136.235,247.934 136.402,246.601 137.5,245.5 Z"/></g>
<g><path style="opacity:0.012" fill="#f3cb98" d="M -0.5,248.5 C 0.434475,249.568 0.767809,250.901 0.5,252.5C 0.166667,252.5 -0.166667,252.5 -0.5,252.5C -0.5,251.167 -0.5,249.833 -0.5,248.5 Z"/></g>
<g><path style="opacity:0.004" fill="#000000" d="M 135.5,250.5 C 136.833,251.167 136.833,251.167 135.5,250.5 Z"/></g>
<g><path style="opacity:0.012" fill="#a2f581" d="M 0.5,252.5 C 0.833333,252.5 1.16667,252.5 1.5,252.5C 1.16667,256.5 0.833333,256.5 0.5,252.5 Z"/></g>
<g><path style="opacity:0.012" fill="#feaaa9" d="M 202.5,254.5 C 202.833,254.5 203.167,254.5 203.5,254.5C 203.315,255.17 202.981,255.17 202.5,254.5 Z"/></g>
<g><path style="opacity:0.016" fill="#feff7f" d="M 201.5,255.5 C 201.833,255.5 202.167,255.5 202.5,255.5C 202.315,256.17 201.981,256.17 201.5,255.5 Z"/></g>
<g><path style="opacity:0.016" fill="#feff7f" d="M 200.5,256.5 C 200.833,256.5 201.167,256.5 201.5,256.5C 201.315,257.17 200.981,257.17 200.5,256.5 Z"/></g>
<g><path style="opacity:0.016" fill="#bebf7f" d="M 199.5,257.5 C 199.833,257.5 200.167,257.5 200.5,257.5C 200.315,258.17 199.981,258.17 199.5,257.5 Z"/></g>
<g><path style="opacity:0.008" fill="#80ff7f" d="M 198.5,258.5 C 198.833,258.5 199.167,258.5 199.5,258.5C 199.315,259.17 198.981,259.17 198.5,258.5 Z"/></g>
<g><path style="opacity:0.016" fill="#b6ff6a" d="M 3.5,258.5 C 3.5,259.5 3.5,260.5 3.5,261.5C 2.16667,260.5 2.16667,259.5 3.5,258.5 Z"/></g>
<g><path style="opacity:0.004" fill="#ffe9d3" d="M 196.5,260.5 C 196.5,260.167 196.5,259.833 196.5,259.5C 197.167,259.5 197.833,259.5 198.5,259.5C 198.158,260.338 197.492,260.672 196.5,260.5 Z"/></g>
<g><path style="opacity:0.02" fill="#cbcc65" d="M 195.5,260.5 C 195.833,260.5 196.167,260.5 196.5,260.5C 196.315,261.17 195.981,261.17 195.5,260.5 Z"/></g>
<g><path style="opacity:0.004" fill="#e4e1c4" d="M 3.5,261.5 C 3.83333,261.5 4.16667,261.5 4.5,261.5C 4.5,262.167 4.5,262.833 4.5,263.5C 3.66175,263.158 3.32842,262.492 3.5,261.5 Z"/></g>
<g><path style="opacity:0.016" fill="#d5d368" d="M 4.5,263.5 C 4.83333,263.5 5.16667,263.5 5.5,263.5C 5.5,264.167 5.5,264.833 5.5,265.5C 4.66175,265.158 4.32842,264.492 4.5,263.5 Z"/></g>
<g><path style="opacity:0.016" fill="#bebf7f" d="M 190.5,264.5 C 191.833,265.167 191.833,265.167 190.5,264.5 Z"/></g>
<g><path style="opacity:0.008" fill="#fffe8e" d="M 5.5,265.5 C 5.83333,265.5 6.16667,265.5 6.5,265.5C 6.16667,268.167 5.83333,268.167 5.5,265.5 Z"/></g>
<g><path style="opacity:0.02" fill="#f3cd93" d="M 78.5,265.5 C 79.8333,266.833 79.8333,268.167 78.5,269.5C 78.5,268.167 78.5,266.833 78.5,265.5 Z"/></g>
<g><path style="opacity:0.004" fill="#8bf15b" d="M 188.5,265.5 C 189.167,265.5 189.833,265.5 190.5,265.5C 189.779,267.382 188.779,267.715 187.5,266.5C 188.167,266.5 188.5,266.167 188.5,265.5 Z"/></g>
<g><path style="opacity:0.008" fill="#b1ff7f" d="M 182.5,270.5 C 182.5,270.167 182.5,269.833 182.5,269.5C 185.167,269.833 185.167,270.167 182.5,270.5 Z"/></g>
<g><path style="opacity:0.012" fill="#bcc060" d="M 8.5,269.5 C 8.5,270.167 8.5,270.833 8.5,271.5C 5.81326,269.606 5.81326,268.939 8.5,269.5 Z"/></g>
<g><path style="opacity:0.016" fill="#cdca6f" d="M 77.5,269.5 C 77.8333,269.5 78.1667,269.5 78.5,269.5C 78.1667,277.5 77.8333,277.5 77.5,269.5 Z"/></g>
<g><path style="opacity:0.016" fill="#bebf7f" d="M 181.5,270.5 C 181.833,270.5 182.167,270.5 182.5,270.5C 182.315,271.17 181.981,271.17 181.5,270.5 Z"/></g>
<g><path style="opacity:0.008" fill="#ffe371" d="M 8.5,271.5 C 8.83333,271.5 9.16667,271.5 9.5,271.5C 9.5,272.167 9.5,272.833 9.5,273.5C 8.66175,273.158 8.32842,272.492 8.5,271.5 Z"/></g>
<g><path style="opacity:0.016" fill="#feff7f" d="M 9.5,273.5 C 9.83333,273.5 10.1667,273.5 10.5,273.5C 10.3147,274.17 9.98135,274.17 9.5,273.5 Z"/></g>
<g><path style="opacity:0.004" fill="#4e4032" d="M 174.5,275.5 C 174.5,275.167 174.5,274.833 174.5,274.5C 177.167,274.833 177.167,275.167 174.5,275.5 Z"/></g>
<g><path style="opacity:0.008" fill="#ffd681" d="M 172.5,276.5 C 172.5,276.167 172.5,275.833 172.5,275.5C 173.167,275.5 173.833,275.5 174.5,275.5C 174.158,276.338 173.492,276.672 172.5,276.5 Z"/></g>
<g><path style="opacity:0.004" fill="#fffed5" d="M 170.5,277.5 C 170.5,277.167 170.5,276.833 170.5,276.5C 171.167,276.5 171.833,276.5 172.5,276.5C 172.158,277.338 171.492,277.672 170.5,277.5 Z"/></g>
<g><path style="opacity:0.004" fill="#fffee2" d="M 12.5,276.5 C 12.631,277.239 12.4643,277.906 12,278.5C 11.3083,277.563 11.475,276.897 12.5,276.5 Z"/></g>
<g><path style="opacity:0.016" fill="#d7ffa2" d="M 76.5,276.5 C 77.8333,277.833 77.8333,279.167 76.5,280.5C 76.5,279.167 76.5,277.833 76.5,276.5 Z"/></g>
<g><path style="opacity:0.012" fill="#ffd69b" d="M 168.5,278.5 C 168.5,278.167 168.5,277.833 168.5,277.5C 169.167,277.5 169.833,277.5 170.5,277.5C 170.158,278.338 169.492,278.672 168.5,278.5 Z"/></g>
<g><path style="opacity:0.004" fill="#eae9d3" d="M 166.5,279.5 C 166.5,279.167 166.5,278.833 166.5,278.5C 167.167,278.5 167.833,278.5 168.5,278.5C 168.158,279.338 167.492,279.672 166.5,279.5 Z"/></g>
<g><path style="opacity:0.012" fill="#c5c570" d="M 164.5,280.5 C 164.5,280.167 164.5,279.833 164.5,279.5C 165.167,279.5 165.833,279.5 166.5,279.5C 166.158,280.338 165.492,280.672 164.5,280.5 Z"/></g>
<g><path style="opacity:0.004" fill="#a7e650" d="M 14.5,279.5 C 14.5,280.167 14.8333,280.5 15.5,280.5C 15.2533,282.975 14.5866,282.975 13.5,280.5C 13.6236,279.893 13.9569,279.56 14.5,279.5 Z"/></g>
<g><path style="opacity:0.008" fill="#ffe995" d="M 161.5,281.5 C 161.5,281.167 161.5,280.833 161.5,280.5C 162.5,280.5 163.5,280.5 164.5,280.5C 163.791,281.404 162.791,281.737 161.5,281.5 Z"/></g>
<g><path style="opacity:0.016" fill="#cac963" d="M 75.5,280.5 C 75.8333,280.5 76.1667,280.5 76.5,280.5C 76.1667,285.833 75.8333,285.833 75.5,280.5 Z"/></g>
<g><path style="opacity:0.016" fill="#d5ff7f" d="M 159.5,282.5 C 159.5,282.167 159.5,281.833 159.5,281.5C 160.167,281.5 160.833,281.5 161.5,281.5C 161.158,282.338 160.492,282.672 159.5,282.5 Z"/></g>
<g><path style="opacity:0.008" fill="#ff9063" d="M 156.5,283.5 C 156.5,283.167 156.5,282.833 156.5,282.5C 157.5,282.5 158.5,282.5 159.5,282.5C 158.791,283.404 157.791,283.737 156.5,283.5 Z"/></g>
<g><path style="opacity:1" fill="#dfd073" d="M 1.5,247.5 C 2.71166,249.907 4.21166,252.24 6,254.5C 6.3457,257.576 7.01237,260.576 8,263.5C 14.1278,276.112 22.2944,287.112 32.5,296.5C 30.5887,295.925 28.922,294.925 27.5,293.5C 27.5,292.833 27.1667,292.5 26.5,292.5C 24.1667,290.833 22.1667,288.833 20.5,286.5C 20.5,285.833 20.1667,285.5 19.5,285.5C 19.5,284.833 19.1667,284.5 18.5,284.5C 17.4884,283.128 16.4884,281.795 15.5,280.5C 14.8333,280.5 14.5,280.167 14.5,279.5C 14.0679,278.29 13.4013,277.29 12.5,276.5C 12.0679,275.29 11.4013,274.29 10.5,273.5C 10.6716,272.508 10.3382,271.842 9.5,271.5C 9.67158,270.508 9.33825,269.842 8.5,269.5C 8.3404,267.847 7.67373,266.514 6.5,265.5C 6.67158,264.508 6.33825,263.842 5.5,263.5C 5.67158,262.508 5.33825,261.842 4.5,261.5C 4.73731,260.209 4.40397,259.209 3.5,258.5C 3.40505,256.214 2.73838,254.214 1.5,252.5C 1.5,250.833 1.5,249.167 1.5,247.5 Z"/></g>
<g><path style="opacity:0.012" fill="#b8b863" d="M 154.5,284.5 C 154.5,284.167 154.5,283.833 154.5,283.5C 155.167,283.5 155.833,283.5 156.5,283.5C 156.158,284.338 155.492,284.672 154.5,284.5 Z"/></g>
<g><path style="opacity:0.008" fill="#fffe8e" d="M 154.5,284.5 C 154.103,285.525 153.437,285.692 152.5,285C 153.094,284.536 153.761,284.369 154.5,284.5 Z"/></g>
<g><path style="opacity:0.008" fill="#f0f080" d="M 148.5,286.5 C 148.5,286.167 148.5,285.833 148.5,285.5C 151.167,285.833 151.167,286.167 148.5,286.5 Z"/></g>
<g><path style="opacity:0.004" fill="#a4cc66" d="M 18.5,284.5 C 19.1667,284.5 19.5,284.833 19.5,285.5C 20.1667,285.5 20.5,285.833 20.5,286.5C 19.7145,288.592 18.7145,288.259 17.5,285.5C 17.6236,284.893 17.9569,284.56 18.5,284.5 Z"/></g>
<g><path style="opacity:0.016" fill="#e1c977" d="M 145.5,287.5 C 145.5,287.167 145.5,286.833 145.5,286.5C 146.5,286.5 147.5,286.5 148.5,286.5C 147.791,287.404 146.791,287.737 145.5,287.5 Z"/></g>
<g><path style="opacity:0.016" fill="#d0e5a1" d="M 74.5,286.5 C 75.8333,287.833 75.8333,289.167 74.5,290.5C 74.5,289.167 74.5,287.833 74.5,286.5 Z"/></g>
<g><path style="opacity:0.004" fill="#f4f250" d="M 140.5,288.5 C 140.5,288.167 140.5,287.833 140.5,287.5C 142.167,287.5 143.833,287.5 145.5,287.5C 144.081,288.451 142.415,288.784 140.5,288.5 Z"/></g>
<g><path style="opacity:0.02" fill="#d0c068" d="M 137.5,288.5 C 138.5,288.5 139.5,288.5 140.5,288.5C 139.5,289.833 138.5,289.833 137.5,288.5 Z"/></g>
<g><path style="opacity:0.004" fill="#90ff76" d="M 97.5,288.5 C 98.525,288.897 98.6917,289.563 98,290.5C 97.5357,289.906 97.369,289.239 97.5,288.5 Z"/></g>
<g><path style="opacity:0.024" fill="#e1e180" d="M 73.5,290.5 C 73.8333,290.5 74.1667,290.5 74.5,290.5C 74.1667,295.833 73.8333,295.833 73.5,290.5 Z"/></g>
<g><path style="opacity:0.012" fill="#f6ca7a" d="M 26.5,292.5 C 27.1667,292.5 27.5,292.833 27.5,293.5C 26.5029,294.713 25.5029,294.546 24.5,293C 25.0944,292.536 25.7611,292.369 26.5,292.5 Z"/></g>
<g><path style="opacity:0.016" fill="#bb7444" d="M 32.5,297.5 C 33.1667,297.5 33.5,297.833 33.5,298.5C 32.5029,299.713 31.5029,299.546 30.5,298C 31.0944,297.536 31.7611,297.369 32.5,297.5 Z"/></g>
<g><path style="opacity:0.008" fill="#f1ef88" d="M 72.5,301.5 C 72.3398,299.801 72.5065,298.134 73,296.5C 73.7796,298.387 73.6129,300.054 72.5,301.5 Z"/></g>
<g><path style="opacity:0.02" fill="#dfdd94" d="M 71.5,301.5 C 71.8333,301.5 72.1667,301.5 72.5,301.5C 72.7678,303.099 72.4345,304.432 71.5,305.5C 71.5,304.167 71.5,302.833 71.5,301.5 Z"/></g>
<g><path style="opacity:0.016" fill="#d5d368" d="M 42.5,304.5 C 42.1034,305.525 41.4368,305.692 40.5,305C 41.0944,304.536 41.7611,304.369 42.5,304.5 Z"/></g>
<g><path style="opacity:0.008" fill="#ebf58e" d="M 70.5,305.5 C 70.8333,305.5 71.1667,305.5 71.5,305.5C 71.1667,314.833 70.8333,314.833 70.5,305.5 Z"/></g>
<g><path style="opacity:0.004" fill="#d1de50" d="M 51.5,308.5 C 51.8417,309.338 52.5084,309.672 53.5,309.5C 52.1512,310.797 50.8179,310.63 49.5,309C 50.0944,308.536 50.7611,308.369 51.5,308.5 Z"/></g>
<g><path style="opacity:0.016" fill="#e8d58d" d="M 56.5,310.5 C 56.5,310.833 56.5,311.167 56.5,311.5C 53.8333,311.167 53.8333,310.833 56.5,310.5 Z"/></g>
<g><path style="opacity:0.012" fill="#e2e18c" d="M 56.5,311.5 C 57.2389,311.369 57.9056,311.536 58.5,312C 57.5632,312.692 56.8966,312.525 56.5,311.5 Z"/></g>
<g><path style="opacity:0.02" fill="#d1bb5d" d="M 66.5,313.5 C 66.5,313.833 66.5,314.167 66.5,314.5C 62.5,314.167 62.5,313.833 66.5,313.5 Z"/></g>
<g><path style="opacity:0.004" fill="#4f4e17" d="M 66.5,314.5 C 67.2389,314.369 67.9056,314.536 68.5,315C 67.5632,315.692 66.8966,315.525 66.5,314.5 Z"/></g>
</svg>
