<?xml version="1.0" encoding="UTF-8"?>
<!DOCTYPE svg PUBLIC "-//W3C//DTD SVG 1.1//EN" "http://www.w3.org/Graphics/SVG/1.1/DTD/svg11.dtd">
<svg xmlns="http://www.w3.org/2000/svg" version="1.1" width="225px" height="225px" style="shape-rendering:geometricPrecision; text-rendering:geometricPrecision; image-rendering:optimizeQuality; fill-rule:evenodd; clip-rule:evenodd" xmlns:xlink="http://www.w3.org/1999/xlink">
<g><path style="opacity:1" fill="#969597" d="M -0.5,-0.5 C -0.166667,-0.5 0.166667,-0.5 0.5,-0.5C 0.16932,21.3398 0.502654,43.0064 1.5,64.5C 1.57298,66.0269 0.906316,67.0269 -0.5,67.5C -0.5,44.8333 -0.5,22.1667 -0.5,-0.5 Z"/></g>
<g><path style="opacity:1" fill="#fefefe" d="M 0.5,-0.5 C 40.5,-0.5 80.5,-0.5 120.5,-0.5C 119.833,10.1667 119.167,20.8333 118.5,31.5C 117.356,35.9637 116.69,40.6304 116.5,45.5C 81.8171,44.8401 47.4838,45.5068 13.5,47.5C 7.7818,51.9302 3.7818,57.5968 1.5,64.5C 0.502654,43.0064 0.16932,21.3398 0.5,-0.5 Z"/></g>
<g><path style="opacity:1" fill="#fcfcfc" d="M 138.5,-0.5 C 166.5,-0.5 194.5,-0.5 222.5,-0.5C 222.83,16.0085 222.496,32.3419 221.5,48.5C 221.586,47.5041 221.252,46.6708 220.5,46C 215.177,45.5006 209.844,45.334 204.5,45.5C 202.745,42.3197 200.745,39.3197 198.5,36.5C 193.116,27.4495 185.783,20.4495 176.5,15.5C 175.205,14.5116 173.872,13.5116 172.5,12.5C 166.954,9.56019 161.287,6.89352 155.5,4.5C 149.846,2.44467 144.18,0.778008 138.5,-0.5 Z"/></g>
<g><path style="opacity:1" fill="#282994" d="M 126.5,-0.5 C 130.5,-0.5 134.5,-0.5 138.5,-0.5C 144.18,0.778008 149.846,2.44467 155.5,4.5C 155.414,5.4959 155.748,6.32924 156.5,7C 156,7.16667 155.5,7.33333 155,7.5C 147.593,5.67288 140.093,5.17288 132.5,6C 131.549,9.05675 131.216,12.2234 131.5,15.5C 130.986,21.8217 130.653,28.155 130.5,34.5C 130.5,34.8333 130.5,35.1667 130.5,35.5C 130.167,35.5 129.833,35.5 129.5,35.5C 129.167,35.5 128.833,35.5 128.5,35.5C 128.666,31.4862 128.499,27.4862 128,23.5C 127.667,26.1667 127.333,28.8333 127,31.5C 126.894,27.5987 126.061,23.932 124.5,20.5C 125.286,17.0252 126.786,16.6919 129,19.5C 129.667,14.8333 129.667,10.1667 129,5.5C 128.667,5.16667 128.333,4.83333 128,4.5C 127.667,8.16667 127.333,11.8333 127,15.5C 126.501,10.1771 126.334,4.84372 126.5,-0.5 Z"/></g>
<g><path style="opacity:1" fill="#3c3a8c" d="M 155.5,4.5 C 161.287,6.89352 166.954,9.56019 172.5,12.5C 171.001,13.494 169.334,13.494 167.5,12.5C 166.5,12.5 165.5,12.5 164.5,12.5C 163.391,12.4431 162.391,12.1098 161.5,11.5C 157.52,9.52853 153.187,8.36186 148.5,8C 143.177,7.50065 137.844,7.33398 132.5,7.5C 132.5,10.1667 132.5,12.8333 132.5,15.5C 132.167,15.5 131.833,15.5 131.5,15.5C 131.216,12.2234 131.549,9.05675 132.5,6C 140.093,5.17288 147.593,5.67288 155,7.5C 155.5,7.33333 156,7.16667 156.5,7C 155.748,6.32924 155.414,5.4959 155.5,4.5 Z"/></g>
<g><path style="opacity:1" fill="#5d598e" d="M 167.5,12.5 C 169.334,13.494 171.001,13.494 172.5,12.5C 173.872,13.5116 175.205,14.5116 176.5,15.5C 176.565,15.9382 176.399,16.2716 176,16.5C 174.266,15.7511 172.433,15.2511 170.5,15C 169.058,14.6232 168.058,13.7899 167.5,12.5 Z"/></g>
<g><path style="opacity:1" fill="#b7b8b8" d="M 161.5,11.5 C 162.391,12.1098 163.391,12.4431 164.5,12.5C 164.821,14.0481 165.821,14.7148 167.5,14.5C 167.5,16.1667 167.5,17.8333 167.5,19.5C 170.518,19.3354 173.518,19.502 176.5,20C 176.167,20.3333 175.833,20.6667 175.5,21C 178.167,22.3333 180.167,24.3333 181.5,27C 182.449,27.6172 183.282,27.4506 184,26.5C 184.661,28.9156 186.161,30.5823 188.5,31.5C 190.703,33.2954 191.869,35.6288 192,38.5C 192.333,37.8333 192.667,37.1667 193,36.5C 195.218,40.2583 197.052,40.2583 198.5,36.5C 200.745,39.3197 202.745,42.3197 204.5,45.5C 194.833,45.5 185.167,45.5 175.5,45.5C 175.5,44.5 175.5,43.5 175.5,42.5C 173.801,42.6602 172.134,42.4935 170.5,42C 172.952,41.7105 175.285,41.0438 177.5,40C 173.021,38.5305 169.354,35.8638 166.5,32C 162.032,29.5971 157.699,26.9304 153.5,24C 147.02,20.5521 140.354,18.7187 133.5,18.5C 132.318,12.0172 134.985,9.01721 141.5,9.5C 148.173,10.1677 154.84,10.8344 161.5,11.5 Z"/></g>
<g><path style="opacity:1" fill="#848489" d="M 222.5,-0.5 C 222.833,-0.5 223.167,-0.5 223.5,-0.5C 223.5,16.8333 223.5,34.1667 223.5,51.5C 222.883,51.6107 222.383,51.944 222,52.5C 221.51,51.2068 221.343,49.8734 221.5,48.5C 222.496,32.3419 222.83,16.0085 222.5,-0.5 Z"/></g>
<g><path style="opacity:1" fill="#312f8c" d="M 120.5,-0.5 C 120.833,-0.5 121.167,-0.5 121.5,-0.5C 121.832,10.1874 121.499,20.8541 120.5,31.5C 119.824,32.6016 119.158,33.6016 118.5,34.5C 118.5,33.5 118.5,32.5 118.5,31.5C 119.167,20.8333 119.833,10.1667 120.5,-0.5 Z"/></g>
<g><path style="opacity:1" fill="#acaec2" d="M 161.5,11.5 C 154.84,10.8344 148.173,10.1677 141.5,9.5C 134.985,9.01721 132.318,12.0172 133.5,18.5C 133.508,26.4316 132.508,34.0983 130.5,41.5C 130.5,39.5 130.5,37.5 130.5,35.5C 130.5,35.1667 130.5,34.8333 130.5,34.5C 131.879,28.383 132.546,22.0497 132.5,15.5C 132.5,12.8333 132.5,10.1667 132.5,7.5C 137.844,7.33398 143.177,7.50065 148.5,8C 153.187,8.36186 157.52,9.52853 161.5,11.5 Z"/></g>
<g><path style="opacity:1" fill="#a8a8ac" d="M 164.5,12.5 C 165.5,12.5 166.5,12.5 167.5,12.5C 168.058,13.7899 169.058,14.6232 170.5,15C 172.433,15.2511 174.266,15.7511 176,16.5C 176.399,16.2716 176.565,15.9382 176.5,15.5C 185.783,20.4495 193.116,27.4495 198.5,36.5C 197.052,40.2583 195.218,40.2583 193,36.5C 192.667,37.1667 192.333,37.8333 192,38.5C 191.869,35.6288 190.703,33.2954 188.5,31.5C 186.161,30.5823 184.661,28.9156 184,26.5C 183.282,27.4506 182.449,27.6172 181.5,27C 180.167,24.3333 178.167,22.3333 175.5,21C 175.833,20.6667 176.167,20.3333 176.5,20C 173.518,19.502 170.518,19.3354 167.5,19.5C 167.5,17.8333 167.5,16.1667 167.5,14.5C 165.821,14.7148 164.821,14.0481 164.5,12.5 Z"/></g>
<g><path style="opacity:1" fill="#242699" d="M 121.5,-0.5 C 123.167,-0.5 124.833,-0.5 126.5,-0.5C 126.334,4.84372 126.501,10.1771 127,15.5C 127.333,11.8333 127.667,8.16667 128,4.5C 128.333,4.83333 128.667,5.16667 129,5.5C 129.667,10.1667 129.667,14.8333 129,19.5C 126.786,16.6919 125.286,17.0252 124.5,20.5C 126.061,23.932 126.894,27.5987 127,31.5C 127.333,28.8333 127.667,26.1667 128,23.5C 128.499,27.4862 128.666,31.4862 128.5,35.5C 128.54,38.8806 128.207,42.2139 127.5,45.5C 124.5,45.5 121.5,45.5 118.5,45.5C 118.5,43.8333 118.5,42.1667 118.5,40.5C 118.5,38.5 118.5,36.5 118.5,34.5C 119.158,33.6016 119.824,32.6016 120.5,31.5C 121.499,20.8541 121.832,10.1874 121.5,-0.5 Z"/></g>
<g><path style="opacity:1" fill="#cbcbcc" d="M 133.5,18.5 C 140.354,18.7187 147.02,20.5521 153.5,24C 157.699,26.9304 162.032,29.5971 166.5,32C 169.354,35.8638 173.021,38.5305 177.5,40C 175.285,41.0438 172.952,41.7105 170.5,42C 172.134,42.4935 173.801,42.6602 175.5,42.5C 175.5,43.5 175.5,44.5 175.5,45.5C 170.167,45.5 164.833,45.5 159.5,45.5C 149.833,45.5 140.167,45.5 130.5,45.5C 130.5,44.1667 130.5,42.8333 130.5,41.5C 132.508,34.0983 133.508,26.4316 133.5,18.5 Z"/></g>
<g><path style="opacity:1" fill="#8a8db8" d="M 131.5,15.5 C 131.833,15.5 132.167,15.5 132.5,15.5C 132.546,22.0497 131.879,28.383 130.5,34.5C 130.653,28.155 130.986,21.8217 131.5,15.5 Z"/></g>
<g><path style="opacity:1" fill="#51528c" d="M 118.5,31.5 C 118.5,32.5 118.5,33.5 118.5,34.5C 118.5,36.5 118.5,38.5 118.5,40.5C 117.539,42.2646 117.205,44.2646 117.5,46.5C 107.5,46.5 97.5,46.5 87.5,46.5C 84.8333,46.5 82.1667,46.5 79.5,46.5C 66.1667,46.5 52.8333,46.5 39.5,46.5C 36.8333,46.5 34.1667,46.5 31.5,46.5C 25.4093,46.2114 19.4093,46.5447 13.5,47.5C 47.4838,45.5068 81.8171,44.8401 116.5,45.5C 116.69,40.6304 117.356,35.9637 118.5,31.5 Z"/></g>
<g><path style="opacity:1" fill="#1d1c9f" d="M 39.5,46.5 C 52.8333,46.5 66.1667,46.5 79.5,46.5C 79.5,46.8333 79.5,47.1667 79.5,47.5C 76.7531,47.1866 74.0865,47.52 71.5,48.5C 71.1373,49.1835 70.8039,49.8501 70.5,50.5C 67.7555,51.0844 65.4221,52.4177 63.5,54.5C 60.9135,55.48 58.2469,55.8134 55.5,55.5C 55.5,56.5 55.5,57.5 55.5,58.5C 54.1779,58.33 53.0113,58.6634 52,59.5C 51.0766,58.2412 50.2432,56.9079 49.5,55.5C 48.7492,56.376 48.2492,57.376 48,58.5C 47.586,58.0426 47.086,57.7093 46.5,57.5C 42.7411,59.0889 40.2411,61.7556 39,65.5C 38.0862,64.3463 37.2529,64.513 36.5,66C 37.5,66.8333 38.5,67.6667 39.5,68.5C 38.7261,69.7112 37.8928,69.7112 37,68.5C 34.3231,70.8451 31.9897,73.5117 30,76.5C 29.6667,76.1667 29.3333,75.8333 29,75.5C 26.5787,77.5937 23.912,79.2604 21,80.5C 20.3645,81.9663 19.5312,83.2997 18.5,84.5C 19.1799,85.8599 19.8466,87.1932 20.5,88.5C 18.712,88.2148 17.0453,88.5481 15.5,89.5C 18.0865,90.48 20.7531,90.8134 23.5,90.5C 23.5,91.5 23.5,92.5 23.5,93.5C 21.901,93.2322 20.5676,93.5655 19.5,94.5C 18.1667,94.5 16.8333,94.5 15.5,94.5C 12.7778,92.3273 9.77782,91.9939 6.5,93.5C 6.19607,92.8501 5.86273,92.1835 5.5,91.5C 7.21986,90.066 9.21986,89.2326 11.5,89C 12.6405,88.2588 12.6405,87.4255 11.5,86.5C 16.1514,83.4636 20.1514,79.797 23.5,75.5C 23.0233,74.5224 22.3567,73.6891 21.5,73C 24.0643,71.1492 24.0643,69.3159 21.5,67.5C 22.7952,65.6721 23.7952,63.6721 24.5,61.5C 26.2581,60.8721 27.7581,59.8721 29,58.5C 29.414,58.9574 29.914,59.2907 30.5,59.5C 31.1667,57.5 31.8333,55.5 32.5,53.5C 35.9221,52.0785 38.2555,49.7451 39.5,46.5 Z"/></g>
<g><path style="opacity:1" fill="#6463a4" d="M 129.5,35.5 C 129.833,35.5 130.167,35.5 130.5,35.5C 130.5,37.5 130.5,39.5 130.5,41.5C 130.5,42.8333 130.5,44.1667 130.5,45.5C 140.167,45.5 149.833,45.5 159.5,45.5C 167.316,46.4924 175.316,46.8257 183.5,46.5C 178.946,47.0187 178.613,48.352 182.5,50.5C 185.303,49.5503 187.636,50.3837 189.5,53C 188.833,53.3333 188.167,53.6667 187.5,54C 190.251,56.1608 192.917,58.3275 195.5,60.5C 194.167,60.5 192.833,60.5 191.5,60.5C 190.448,60.3505 189.448,60.5172 188.5,61C 189.738,61.69 189.738,62.19 188.5,62.5C 186.956,62.2969 185.622,61.6302 184.5,60.5C 181.861,61.1365 179.528,60.3032 177.5,58C 175.866,57.5065 174.199,57.3398 172.5,57.5C 172.5,56.5 172.5,55.5 172.5,54.5C 175.999,54.741 176.332,53.9076 173.5,52C 171.564,51.187 169.564,50.687 167.5,50.5C 167.5,49.5 167.5,48.5 167.5,47.5C 163.143,47.5865 158.81,47.9198 154.5,48.5C 151.014,47.0475 147.347,46.3808 143.5,46.5C 138.833,46.5 134.167,46.5 129.5,46.5C 129.5,42.8333 129.5,39.1667 129.5,35.5 Z"/></g>
<g><path style="opacity:1" fill="#2b2a73" d="M 13.5,47.5 C 12.9524,49.3936 11.9524,51.0603 10.5,52.5C 11.09,53.7989 12.09,54.6322 13.5,55C 11.765,55.6514 10.0983,55.4847 8.5,54.5C 4.62037,58.3865 3.62037,62.8865 5.5,68C 3.86586,68.4935 2.19919,68.6602 0.5,68.5C 0.5,74.1667 0.5,79.8333 0.5,85.5C 0.166667,85.5 -0.166667,85.5 -0.5,85.5C -0.5,79.5 -0.5,73.5 -0.5,67.5C 0.906316,67.0269 1.57298,66.0269 1.5,64.5C 3.7818,57.5968 7.7818,51.9302 13.5,47.5 Z"/></g>
<g><path style="opacity:1" fill="#636395" d="M 183.5,46.5 C 194.167,46.8333 204.833,47.1667 215.5,47.5C 215.377,54.5293 215.71,61.5293 216.5,68.5C 213.418,66.9252 210.751,64.7585 208.5,62C 206.32,61.5812 204.154,61.7479 202,62.5C 199.774,61.9671 197.607,61.3004 195.5,60.5C 192.917,58.3275 190.251,56.1608 187.5,54C 188.167,53.6667 188.833,53.3333 189.5,53C 187.636,50.3837 185.303,49.5503 182.5,50.5C 178.613,48.352 178.946,47.0187 183.5,46.5 Z"/></g>
<g><path style="opacity:1" fill="#3230b7" d="M 79.5,47.5 C 79.5,48.8333 79.5,50.1667 79.5,51.5C 82.0488,51.6126 84.3821,50.9459 86.5,49.5C 87.3857,50.325 87.719,51.325 87.5,52.5C 90.2062,52.4249 92.8728,52.0916 95.5,51.5C 95.2866,54.475 94.2866,57.1416 92.5,59.5C 92.9377,60.5063 93.6043,60.5063 94.5,59.5C 95.4287,60.6888 95.762,62.0222 95.5,63.5C 92.9896,64.7834 90.3229,65.7834 87.5,66.5C 87.5,65.5 87.5,64.5 87.5,63.5C 84.8333,63.5 82.1667,63.5 79.5,63.5C 79.1667,63.5 78.8333,63.5 78.5,63.5C 79.8137,58.8557 78.6471,58.5223 75,62.5C 74.231,59.9009 74.3977,57.4009 75.5,55C 73.8739,55.1953 72.2072,55.1953 70.5,55C 71.8009,53.3845 71.8009,51.8845 70.5,50.5C 70.8039,49.8501 71.1373,49.1835 71.5,48.5C 74.0865,47.52 76.7531,47.1866 79.5,47.5 Z"/></g>
<g><path style="opacity:1" fill="#4e4ebc" d="M 128.5,35.5 C 128.833,35.5 129.167,35.5 129.5,35.5C 129.5,39.1667 129.5,42.8333 129.5,46.5C 130.209,47.404 131.209,47.7373 132.5,47.5C 132.67,48.8221 132.337,49.9887 131.5,51C 132.766,51.3095 133.933,51.8095 135,52.5C 135.497,54.8098 135.663,57.1432 135.5,59.5C 134.5,59.5 133.5,59.5 132.5,59.5C 132.5,60.8333 132.5,62.1667 132.5,63.5C 128.901,63.7381 128.567,62.7381 131.5,60.5C 128.732,57.5833 127.232,58.25 127,62.5C 126.617,61.944 126.117,61.6107 125.5,61.5C 126.12,57.4452 124.12,55.4452 119.5,55.5C 119.227,53.549 119.893,52.049 121.5,51C 120.23,50.1004 119.23,48.9337 118.5,47.5C 117.312,48.84 115.812,49.5066 114,49.5C 110.661,47.9564 107.161,47.2898 103.5,47.5C 97.9738,47.8214 92.6405,47.4881 87.5,46.5C 97.5,46.5 107.5,46.5 117.5,46.5C 117.205,44.2646 117.539,42.2646 118.5,40.5C 118.5,42.1667 118.5,43.8333 118.5,45.5C 121.5,45.5 124.5,45.5 127.5,45.5C 128.207,42.2139 128.54,38.8806 128.5,35.5 Z"/></g>
<g><path style="opacity:1" fill="#1f2086" d="M 31.5,46.5 C 32.2625,47.2679 33.2625,47.7679 34.5,48C 32.9571,49.8783 31.1238,51.3783 29,52.5C 28.3828,53.4491 28.5494,54.2825 29.5,55C 27.6711,55.2735 26.1711,56.1068 25,57.5C 24.6667,57.1667 24.3333,56.8333 24,56.5C 21.7965,60.4041 18.6298,63.2375 14.5,65C 12.7911,68.5606 10.1244,70.7273 6.5,71.5C 6.5,76.8333 6.5,82.1667 6.5,87.5C 5.5,87.5 4.5,87.5 3.5,87.5C 3.03108,90.3933 4.03108,92.3933 6.5,93.5C 9.77782,91.9939 12.7778,92.3273 15.5,94.5C 12.6038,95.7752 9.60375,95.7752 6.5,94.5C 5.16667,94.5 3.83333,94.5 2.5,94.5C 2.37133,92.7839 2.038,91.1172 1.5,89.5C 1.16667,88.1667 0.833333,86.8333 0.5,85.5C 0.5,79.8333 0.5,74.1667 0.5,68.5C 2.19919,68.6602 3.86586,68.4935 5.5,68C 3.62037,62.8865 4.62037,58.3865 8.5,54.5C 10.0983,55.4847 11.765,55.6514 13.5,55C 12.09,54.6322 11.09,53.7989 10.5,52.5C 11.9524,51.0603 12.9524,49.3936 13.5,47.5C 19.4093,46.5447 25.4093,46.2114 31.5,46.5 Z"/></g>
<g><path style="opacity:1" fill="#4240c4" d="M 79.5,46.5 C 82.1667,46.5 84.8333,46.5 87.5,46.5C 92.6405,47.4881 97.9738,47.8214 103.5,47.5C 103.881,48.9311 104.881,49.7645 106.5,50C 105.672,50.9147 104.672,51.5814 103.5,52C 105.9,53.0571 108.233,53.7238 110.5,54C 109.044,55.7448 107.711,57.5781 106.5,59.5C 106.808,60.3081 107.308,60.9747 108,61.5C 109,61.1667 110,60.8333 111,60.5C 111.029,62.9611 111.196,65.6278 111.5,68.5C 109.739,70.593 108.406,72.9264 107.5,75.5C 106.417,75.4606 105.417,75.1272 104.5,74.5C 103.678,76.1386 103.011,77.8053 102.5,79.5C 100.815,78.8163 99.8148,77.483 99.5,75.5C 100.706,73.4841 100.706,71.4841 99.5,69.5C 98.2798,68.2889 97.1131,68.2889 96,69.5C 95.6068,67.8008 96.1068,66.3008 97.5,65C 97.1639,63.9701 96.4972,63.4701 95.5,63.5C 95.762,62.0222 95.4287,60.6888 94.5,59.5C 93.6043,60.5063 92.9377,60.5063 92.5,59.5C 94.2866,57.1416 95.2866,54.475 95.5,51.5C 92.8728,52.0916 90.2062,52.4249 87.5,52.5C 87.719,51.325 87.3857,50.325 86.5,49.5C 84.3821,50.9459 82.0488,51.6126 79.5,51.5C 79.5,50.1667 79.5,48.8333 79.5,47.5C 79.5,47.1667 79.5,46.8333 79.5,46.5 Z"/></g>
<g><path style="opacity:1" fill="#4a4ac5" d="M 103.5,47.5 C 107.161,47.2898 110.661,47.9564 114,49.5C 115.812,49.5066 117.312,48.84 118.5,47.5C 119.23,48.9337 120.23,50.1004 121.5,51C 119.893,52.049 119.227,53.549 119.5,55.5C 124.12,55.4452 126.12,57.4452 125.5,61.5C 124.319,63.0672 122.653,63.9005 120.5,64C 120.085,66.0263 119.085,67.5263 117.5,68.5C 117.565,68.0618 117.399,67.7284 117,67.5C 115.582,70.001 114.582,69.6677 114,66.5C 113.292,67.3805 112.458,68.0472 111.5,68.5C 111.196,65.6278 111.029,62.9611 111,60.5C 110,60.8333 109,61.1667 108,61.5C 107.308,60.9747 106.808,60.3081 106.5,59.5C 107.711,57.5781 109.044,55.7448 110.5,54C 108.233,53.7238 105.9,53.0571 103.5,52C 104.672,51.5814 105.672,50.9147 106.5,50C 104.881,49.7645 103.881,48.9311 103.5,47.5 Z"/></g>
<g><path style="opacity:1" fill="#6c6c88" d="M 159.5,45.5 C 164.833,45.5 170.167,45.5 175.5,45.5C 185.167,45.5 194.833,45.5 204.5,45.5C 209.844,45.334 215.177,45.5006 220.5,46C 221.252,46.6708 221.586,47.5041 221.5,48.5C 221.343,49.8734 221.51,51.2068 222,52.5C 222.383,51.944 222.883,51.6107 223.5,51.5C 223.427,109.116 223.427,166.782 223.5,224.5C 223.167,224.5 222.833,224.5 222.5,224.5C 222.667,173.499 222.5,122.499 222,71.5C 220.897,74.98 219.731,78.3133 218.5,81.5C 218.833,78.1667 219.167,74.8333 219.5,71.5C 218.5,71.5 217.5,71.5 216.5,71.5C 216.5,70.5 216.5,69.5 216.5,68.5C 215.71,61.5293 215.377,54.5293 215.5,47.5C 204.833,47.1667 194.167,46.8333 183.5,46.5C 175.316,46.8257 167.316,46.4924 159.5,45.5 Z"/></g>
<g><path style="opacity:1" fill="#1f1dac" d="M 70.5,50.5 C 71.8009,51.8845 71.8009,53.3845 70.5,55C 72.2072,55.1953 73.8739,55.1953 75.5,55C 74.3977,57.4009 74.231,59.9009 75,62.5C 78.6471,58.5223 79.8137,58.8557 78.5,63.5C 76.9087,64.2189 75.4087,65.2189 74,66.5C 73.5831,65.244 72.7498,64.5774 71.5,64.5C 67.1127,62.9063 62.9461,63.573 59,66.5C 57.2729,66.3535 57.1062,65.6869 58.5,64.5C 55.2156,63.343 51.8823,63.1764 48.5,64C 46.4985,67.8463 43.4985,70.3463 39.5,71.5C 39.719,72.675 39.3857,73.675 38.5,74.5C 36.4796,76.0299 34.4796,76.6965 32.5,76.5C 31.6143,77.325 31.281,78.325 31.5,79.5C 30.448,79.3505 29.448,79.5172 28.5,80C 29.6405,80.7412 29.6405,81.5745 28.5,82.5C 30.5435,84.4606 29.8768,85.9606 26.5,87C 28.1667,87.3333 29.8333,87.6667 31.5,88C 27.8484,88.4986 24.1817,88.6653 20.5,88.5C 19.8466,87.1932 19.1799,85.8599 18.5,84.5C 19.5312,83.2997 20.3645,81.9663 21,80.5C 23.912,79.2604 26.5787,77.5937 29,75.5C 29.3333,75.8333 29.6667,76.1667 30,76.5C 31.9897,73.5117 34.3231,70.8451 37,68.5C 37.8928,69.7112 38.7261,69.7112 39.5,68.5C 38.5,67.6667 37.5,66.8333 36.5,66C 37.2529,64.513 38.0862,64.3463 39,65.5C 40.2411,61.7556 42.7411,59.0889 46.5,57.5C 47.086,57.7093 47.586,58.0426 48,58.5C 48.2492,57.376 48.7492,56.376 49.5,55.5C 50.2432,56.9079 51.0766,58.2412 52,59.5C 53.0113,58.6634 54.1779,58.33 55.5,58.5C 55.5,57.5 55.5,56.5 55.5,55.5C 58.2469,55.8134 60.9135,55.48 63.5,54.5C 65.4221,52.4177 67.7555,51.0844 70.5,50.5 Z"/></g>
<g><path style="opacity:1" fill="#6564c0" d="M 143.5,46.5 C 147.347,46.3808 151.014,47.0475 154.5,48.5C 156.042,49.1635 157.709,49.8302 159.5,50.5C 157.228,51.4853 154.895,52.3187 152.5,53C 156.052,53.8775 159.386,55.0442 162.5,56.5C 161.829,57.8471 161.829,59.0138 162.5,60C 164.896,60.8793 167.229,61.5459 169.5,62C 166.881,63.788 164.548,65.788 162.5,68C 164.115,70.5174 166.448,71.8507 169.5,72C 168.264,73.0848 166.931,73.9181 165.5,74.5C 164.833,74.8333 164.167,75.1667 163.5,75.5C 162.934,73.9217 161.934,72.5884 160.5,71.5C 159.833,72.1667 159.167,72.8333 158.5,73.5C 157.41,72.273 156.076,71.4396 154.5,71C 155.728,70.221 156.728,69.221 157.5,68C 156.077,67.9552 155.077,66.7885 154.5,64.5C 155.428,63.2322 155.595,61.8989 155,60.5C 153.197,60.9055 151.364,60.4055 149.5,59C 149.868,57.527 149.368,56.027 148,54.5C 147.617,55.056 147.117,55.3893 146.5,55.5C 146.119,54.0689 145.119,53.2355 143.5,53C 143.783,51.0759 145.116,49.4092 147.5,48C 145.942,47.79 144.609,47.29 143.5,46.5 Z"/></g>
<g><path style="opacity:1" fill="#7171a4" d="M 191.5,60.5 C 192.833,60.5 194.167,60.5 195.5,60.5C 197.607,61.3004 199.774,61.9671 202,62.5C 204.154,61.7479 206.32,61.5812 208.5,62C 210.751,64.7585 213.418,66.9252 216.5,68.5C 216.5,69.5 216.5,70.5 216.5,71.5C 217.5,71.5 218.5,71.5 219.5,71.5C 219.167,74.8333 218.833,78.1667 218.5,81.5C 215.858,86.4742 212.191,90.4742 207.5,93.5C 209.028,90.7097 210.695,88.0431 212.5,85.5C 211.005,83.8303 209.672,81.997 208.5,80C 207.552,79.5172 206.552,79.3505 205.5,79.5C 205.843,77.5168 205.176,76.1834 203.5,75.5C 202.766,74.2921 202.433,72.9587 202.5,71.5C 199.293,71.8764 196.627,70.8764 194.5,68.5C 195.729,67.7189 197.062,67.2189 198.5,67C 195.638,65.2646 193.304,63.0979 191.5,60.5 Z"/></g>
<g><path style="opacity:1" fill="#6a69b4" d="M 188.5,62.5 C 189.209,63.404 190.209,63.7373 191.5,63.5C 191.191,66.3455 189.525,67.8455 186.5,68C 188.068,71.6676 189.068,75.501 189.5,79.5C 188.1,78.9002 187.1,77.9002 186.5,76.5C 185.933,74.9705 185.267,73.4705 184.5,72C 181.518,71.502 178.518,71.3354 175.5,71.5C 175.328,69.5082 175.995,67.8415 177.5,66.5C 175.955,64.5604 173.955,63.3938 171.5,63C 172.5,62.6667 173.5,62.3333 174.5,62C 171.453,59.762 168.12,58.0953 164.5,57C 165.696,56.3457 165.696,55.8457 164.5,55.5C 163.817,55.8627 163.15,56.1961 162.5,56.5C 159.386,55.0442 156.052,53.8775 152.5,53C 154.895,52.3187 157.228,51.4853 159.5,50.5C 157.709,49.8302 156.042,49.1635 154.5,48.5C 158.81,47.9198 163.143,47.5865 167.5,47.5C 167.5,48.5 167.5,49.5 167.5,50.5C 169.564,50.687 171.564,51.187 173.5,52C 176.332,53.9076 175.999,54.741 172.5,54.5C 172.5,55.5 172.5,56.5 172.5,57.5C 174.199,57.3398 175.866,57.5065 177.5,58C 179.528,60.3032 181.861,61.1365 184.5,60.5C 185.622,61.6302 186.956,62.2969 188.5,62.5 Z"/></g>
<g><path style="opacity:1" fill="#5d5bc7" d="M 129.5,46.5 C 134.167,46.5 138.833,46.5 143.5,46.5C 144.609,47.29 145.942,47.79 147.5,48C 145.116,49.4092 143.783,51.0759 143.5,53C 145.119,53.2355 146.119,54.0689 146.5,55.5C 142.535,56.4841 142.535,57.4841 146.5,58.5C 146.023,59.4776 145.357,60.3109 144.5,61C 151.066,63.5137 150.733,65.5137 143.5,67C 146.133,68.6889 146.133,70.1889 143.5,71.5C 140.833,71.5 138.167,71.5 135.5,71.5C 135.5,68.8333 135.5,66.1667 135.5,63.5C 134.5,63.5 133.5,63.5 132.5,63.5C 132.5,62.1667 132.5,60.8333 132.5,59.5C 133.5,59.5 134.5,59.5 135.5,59.5C 135.663,57.1432 135.497,54.8098 135,52.5C 133.933,51.8095 132.766,51.3095 131.5,51C 132.337,49.9887 132.67,48.8221 132.5,47.5C 131.209,47.7373 130.209,47.404 129.5,46.5 Z"/></g>
<g><path style="opacity:1" fill="#212297" d="M 31.5,46.5 C 34.1667,46.5 36.8333,46.5 39.5,46.5C 38.2555,49.7451 35.9221,52.0785 32.5,53.5C 31.8333,55.5 31.1667,57.5 30.5,59.5C 29.914,59.2907 29.414,58.9574 29,58.5C 27.7581,59.8721 26.2581,60.8721 24.5,61.5C 23.7952,63.6721 22.7952,65.6721 21.5,67.5C 24.0643,69.3159 24.0643,71.1492 21.5,73C 22.3567,73.6891 23.0233,74.5224 23.5,75.5C 20.1514,79.797 16.1514,83.4636 11.5,86.5C 12.6405,87.4255 12.6405,88.2588 11.5,89C 9.21986,89.2326 7.21986,90.066 5.5,91.5C 5.86273,92.1835 6.19607,92.8501 6.5,93.5C 4.03108,92.3933 3.03108,90.3933 3.5,87.5C 4.5,87.5 5.5,87.5 6.5,87.5C 6.5,82.1667 6.5,76.8333 6.5,71.5C 10.1244,70.7273 12.7911,68.5606 14.5,65C 18.6298,63.2375 21.7965,60.4041 24,56.5C 24.3333,56.8333 24.6667,57.1667 25,57.5C 26.1711,56.1068 27.6711,55.2735 29.5,55C 28.5494,54.2825 28.3828,53.4491 29,52.5C 31.1238,51.3783 32.9571,49.8783 34.5,48C 33.2625,47.7679 32.2625,47.2679 31.5,46.5 Z"/></g>
<g><path style="opacity:1" fill="#3331cd" d="M 78.5,63.5 C 78.8333,63.5 79.1667,63.5 79.5,63.5C 79.5,66.1667 79.5,68.8333 79.5,71.5C 80.9778,71.238 82.3112,71.5713 83.5,72.5C 80.0763,77.6888 81.4096,80.6888 87.5,81.5C 87.5,83.5 87.5,85.5 87.5,87.5C 88.8734,87.3433 90.2068,87.51 91.5,88C 87.6952,89.7846 83.6952,90.618 79.5,90.5C 79.5,88.5 79.5,86.5 79.5,84.5C 78.1667,84.5 76.8333,84.5 75.5,84.5C 75.5,83.1667 75.5,81.8333 75.5,80.5C 73.269,81.6238 70.9357,82.1238 68.5,82C 69.1667,80 69.8333,78 70.5,76C 66.3115,75.3536 64.1448,77.1869 64,81.5C 63.879,79.2729 63.0456,77.4396 61.5,76C 62.3805,75.2917 63.0472,74.4584 63.5,73.5C 66.8957,73.3671 67.2291,72.3671 64.5,70.5C 66.9138,68.4063 69.2472,66.4063 71.5,64.5C 72.7498,64.5774 73.5831,65.244 74,66.5C 75.4087,65.2189 76.9087,64.2189 78.5,63.5 Z"/></g>
<g><path style="opacity:1" fill="#6b6ad4" d="M 163.5,75.5 C 162.713,77.1042 161.38,77.7709 159.5,77.5C 159.799,79.604 159.466,81.604 158.5,83.5C 156.45,84.0766 155.45,85.4099 155.5,87.5C 159.514,87.3345 163.514,87.5012 167.5,88C 162.136,88.1705 156.802,88.6705 151.5,89.5C 156.97,90.5087 162.303,91.5087 167.5,92.5C 167.5,92.8333 167.5,93.1667 167.5,93.5C 160.167,93.5 152.833,93.5 145.5,93.5C 147.292,92.6909 149.292,92.1909 151.5,92C 148.775,90.5833 146.108,90.0833 143.5,90.5C 144.665,89.4164 145.998,88.5831 147.5,88C 147.645,86.0843 147.145,84.251 146,82.5C 145.333,81.1667 144.667,81.1667 144,82.5C 143.501,78.8484 143.335,75.1817 143.5,71.5C 146.133,70.1889 146.133,68.6889 143.5,67C 150.733,65.5137 151.066,63.5137 144.5,61C 145.357,60.3109 146.023,59.4776 146.5,58.5C 142.535,57.4841 142.535,56.4841 146.5,55.5C 147.117,55.3893 147.617,55.056 148,54.5C 149.368,56.027 149.868,57.527 149.5,59C 151.364,60.4055 153.197,60.9055 155,60.5C 155.595,61.8989 155.428,63.2322 154.5,64.5C 155.077,66.7885 156.077,67.9552 157.5,68C 156.728,69.221 155.728,70.221 154.5,71C 156.076,71.4396 157.41,72.273 158.5,73.5C 159.167,72.8333 159.833,72.1667 160.5,71.5C 161.934,72.5884 162.934,73.9217 163.5,75.5 Z"/></g>
<g><path style="opacity:1" fill="#7474c7" d="M 186.5,76.5 C 184.801,76.3796 183.135,76.0463 181.5,75.5C 180.263,75.5565 179.263,76.0565 178.5,77C 179.662,77.8271 180.829,78.6604 182,79.5C 182.945,79.0946 183.612,78.428 184,77.5C 189.165,82.4447 187.998,84.4447 180.5,83.5C 180.354,85.9424 181.187,86.6091 183,85.5C 184.098,86.9675 185.598,87.8008 187.5,88C 186.672,88.9147 185.672,89.5814 184.5,90C 185.5,90.3333 186.5,90.6667 187.5,91C 184.834,92.0605 182.167,92.8939 179.5,93.5C 175.5,93.5 171.5,93.5 167.5,93.5C 167.5,93.1667 167.5,92.8333 167.5,92.5C 171.182,92.6653 174.848,92.4986 178.5,92C 176.655,90.5771 174.655,89.4104 172.5,88.5C 173.325,87.6143 174.325,87.281 175.5,87.5C 175.191,84.6545 173.525,83.1545 170.5,83C 171.476,80.8531 171.309,78.6864 170,76.5C 169.586,76.9574 169.086,77.2907 168.5,77.5C 167.452,76.452 166.452,75.452 165.5,74.5C 166.931,73.9181 168.264,73.0848 169.5,72C 166.448,71.8507 164.115,70.5174 162.5,68C 164.548,65.788 166.881,63.788 169.5,62C 167.229,61.5459 164.896,60.8793 162.5,60C 161.829,59.0138 161.829,57.8471 162.5,56.5C 163.15,56.1961 163.817,55.8627 164.5,55.5C 165.696,55.8457 165.696,56.3457 164.5,57C 168.12,58.0953 171.453,59.762 174.5,62C 173.5,62.3333 172.5,62.6667 171.5,63C 173.955,63.3938 175.955,64.5604 177.5,66.5C 175.995,67.8415 175.328,69.5082 175.5,71.5C 178.518,71.3354 181.518,71.502 184.5,72C 185.267,73.4705 185.933,74.9705 186.5,76.5 Z"/></g>
<g><path style="opacity:1" fill="#1f1eb8" d="M 71.5,64.5 C 69.2472,66.4063 66.9138,68.4063 64.5,70.5C 67.2291,72.3671 66.8957,73.3671 63.5,73.5C 61.7363,72.2878 60.0697,72.6212 58.5,74.5C 57.8333,73.8333 57.1667,73.1667 56.5,72.5C 53.1728,74.1664 49.8395,75.8331 46.5,77.5C 44.2155,76.584 43.0488,77.584 43,80.5C 40.4066,82.5486 37.9066,84.7152 35.5,87C 36.7932,87.49 38.1266,87.6567 39.5,87.5C 39.5,88.5 39.5,89.5 39.5,90.5C 40.552,90.3505 41.552,90.5172 42.5,91C 39.4776,91.0984 36.8109,91.9318 34.5,93.5C 30.8333,93.5 27.1667,93.5 23.5,93.5C 23.5,92.5 23.5,91.5 23.5,90.5C 20.7531,90.8134 18.0865,90.48 15.5,89.5C 17.0453,88.5481 18.712,88.2148 20.5,88.5C 24.1817,88.6653 27.8484,88.4986 31.5,88C 29.8333,87.6667 28.1667,87.3333 26.5,87C 29.8768,85.9606 30.5435,84.4606 28.5,82.5C 29.6405,81.5745 29.6405,80.7412 28.5,80C 29.448,79.5172 30.448,79.3505 31.5,79.5C 31.281,78.325 31.6143,77.325 32.5,76.5C 34.4796,76.6965 36.4796,76.0299 38.5,74.5C 39.3857,73.675 39.719,72.675 39.5,71.5C 43.4985,70.3463 46.4985,67.8463 48.5,64C 51.8823,63.1764 55.2156,63.343 58.5,64.5C 57.1062,65.6869 57.2729,66.3535 59,66.5C 62.9461,63.573 67.1127,62.9063 71.5,64.5 Z"/></g>
<g><path style="opacity:1" fill="#7677b7" d="M 191.5,60.5 C 193.304,63.0979 195.638,65.2646 198.5,67C 197.062,67.2189 195.729,67.7189 194.5,68.5C 196.627,70.8764 199.293,71.8764 202.5,71.5C 202.433,72.9587 202.766,74.2921 203.5,75.5C 202.167,75.5 200.833,75.5 199.5,75.5C 198.56,80.7765 200.226,84.9432 204.5,88C 202.975,89.0086 201.308,89.5086 199.5,89.5C 198.737,88.7321 197.737,88.2321 196.5,88C 197.428,87.6121 198.095,86.9454 198.5,86C 196.491,84.1768 195.157,82.0101 194.5,79.5C 192.833,79.5 191.167,79.5 189.5,79.5C 189.068,75.501 188.068,71.6676 186.5,68C 189.525,67.8455 191.191,66.3455 191.5,63.5C 190.209,63.7373 189.209,63.404 188.5,62.5C 189.738,62.19 189.738,61.69 188.5,61C 189.448,60.5172 190.448,60.3505 191.5,60.5 Z"/></g>
<g><path style="opacity:1" fill="#fdfdfd" d="M 222.5,224.5 C 191.833,224.5 161.167,224.5 130.5,224.5C 131.315,223.163 132.482,222.163 134,221.5C 134.183,218.635 134.683,215.969 135.5,213.5C 160.414,205.602 180.58,190.935 196,169.5C 208.048,152.031 215.382,132.697 218,111.5C 218.5,101.506 218.666,91.5056 218.5,81.5C 219.731,78.3133 220.897,74.98 222,71.5C 222.5,122.499 222.667,173.499 222.5,224.5 Z"/></g>
<g><path style="opacity:1" fill="#43444a" d="M 223.5,-0.5 C 223.833,-0.5 224.167,-0.5 224.5,-0.5C 224.5,74.5 224.5,149.5 224.5,224.5C 224.167,224.5 223.833,224.5 223.5,224.5C 223.427,166.782 223.427,109.116 223.5,51.5C 223.5,34.1667 223.5,16.8333 223.5,-0.5 Z"/></g>
<g><path style="opacity:1" fill="#4845db" d="M 79.5,63.5 C 82.1667,63.5 84.8333,63.5 87.5,63.5C 87.5,64.5 87.5,65.5 87.5,66.5C 90.3229,65.7834 92.9896,64.7834 95.5,63.5C 96.4972,63.4701 97.1639,63.9701 97.5,65C 96.1068,66.3008 95.6068,67.8008 96,69.5C 97.1131,68.2889 98.2798,68.2889 99.5,69.5C 100.706,71.4841 100.706,73.4841 99.5,75.5C 99.8148,77.483 100.815,78.8163 102.5,79.5C 103.268,80.2625 103.768,81.2625 104,82.5C 104.654,81.3044 105.154,81.3044 105.5,82.5C 105.64,84.2555 105.14,85.9222 104,87.5C 103.835,103.523 103.668,119.523 103.5,135.5C 103.725,147.58 104.725,159.58 106.5,171.5C 104.518,178.022 103.518,184.689 103.5,191.5C 101.167,191.5 98.8333,191.5 96.5,191.5C 96.7219,172.817 96.3885,154.15 95.5,135.5C 96.8333,135.5 98.1667,135.5 99.5,135.5C 99.1667,124.833 98.8333,114.167 98.5,103.5C 97.5,103.5 96.5,103.5 95.5,103.5C 94.0335,105.634 94.0335,102.801 95.5,95C 93.0426,93.4877 93.0426,92.1544 95.5,91C 95.1667,90.6667 94.8333,90.3333 94.5,90C 91.3062,90.7692 87.9729,91.2692 84.5,91.5C 82.6307,91.4932 80.964,91.1599 79.5,90.5C 83.6952,90.618 87.6952,89.7846 91.5,88C 90.2068,87.51 88.8734,87.3433 87.5,87.5C 87.5,85.5 87.5,83.5 87.5,81.5C 81.4096,80.6888 80.0763,77.6888 83.5,72.5C 82.3112,71.5713 80.9778,71.238 79.5,71.5C 79.5,68.8333 79.5,66.1667 79.5,63.5 Z"/></g>
<g><path style="opacity:1" fill="#4f4dde" d="M 107.5,75.5 C 106.737,78.1411 106.57,80.8078 107,83.5C 108.299,83.0338 109.799,83.0338 111.5,83.5C 111.945,100.827 112.278,118.16 112.5,135.5C 111.167,135.5 109.833,135.5 108.5,135.5C 109.722,147.501 109.722,159.501 108.5,171.5C 108.84,175.558 109.507,179.558 110.5,183.5C 111.318,180.893 111.818,178.226 112,175.5C 112.499,180.823 112.666,186.156 112.5,191.5C 111.127,191.343 109.793,191.51 108.5,192C 108.957,192.414 109.291,192.914 109.5,193.5C 108.131,195.053 106.798,195.72 105.5,195.5C 103.824,194.817 103.157,193.483 103.5,191.5C 103.518,184.689 104.518,178.022 106.5,171.5C 104.725,159.58 103.725,147.58 103.5,135.5C 103.668,119.523 103.835,103.523 104,87.5C 105.14,85.9222 105.64,84.2555 105.5,82.5C 105.154,81.3044 104.654,81.3044 104,82.5C 103.768,81.2625 103.268,80.2625 102.5,79.5C 103.011,77.8053 103.678,76.1386 104.5,74.5C 105.417,75.1272 106.417,75.4606 107.5,75.5 Z"/></g>
<g><path style="opacity:1" fill="#7776d7" d="M 165.5,74.5 C 166.452,75.452 167.452,76.452 168.5,77.5C 169.086,77.2907 169.586,76.9574 170,76.5C 171.309,78.6864 171.476,80.8531 170.5,83C 173.525,83.1545 175.191,84.6545 175.5,87.5C 174.325,87.281 173.325,87.6143 172.5,88.5C 174.655,89.4104 176.655,90.5771 178.5,92C 174.848,92.4986 171.182,92.6653 167.5,92.5C 162.303,91.5087 156.97,90.5087 151.5,89.5C 156.802,88.6705 162.136,88.1705 167.5,88C 163.514,87.5012 159.514,87.3345 155.5,87.5C 155.45,85.4099 156.45,84.0766 158.5,83.5C 159.466,81.604 159.799,79.604 159.5,77.5C 161.38,77.7709 162.713,77.1042 163.5,75.5C 164.167,75.1667 164.833,74.8333 165.5,74.5 Z"/></g>
<g><path style="opacity:1" fill="#7e7dc8" d="M 186.5,76.5 C 187.1,77.9002 188.1,78.9002 189.5,79.5C 191.167,79.5 192.833,79.5 194.5,79.5C 195.157,82.0101 196.491,84.1768 198.5,86C 198.095,86.9454 197.428,87.6121 196.5,88C 197.737,88.2321 198.737,88.7321 199.5,89.5C 201.158,90.1814 202.825,91.0147 204.5,92C 196.18,92.7811 187.847,93.2811 179.5,93.5C 182.167,92.8939 184.834,92.0605 187.5,91C 186.5,90.6667 185.5,90.3333 184.5,90C 185.672,89.5814 186.672,88.9147 187.5,88C 185.598,87.8008 184.098,86.9675 183,85.5C 181.187,86.6091 180.354,85.9424 180.5,83.5C 187.998,84.4447 189.165,82.4447 184,77.5C 183.612,78.428 182.945,79.0946 182,79.5C 180.829,78.6604 179.662,77.8271 178.5,77C 179.263,76.0565 180.263,75.5565 181.5,75.5C 183.135,76.0463 184.801,76.3796 186.5,76.5 Z"/></g>
<g><path style="opacity:1" fill="#605fe0" d="M 130.5,76.5 C 132.117,77.038 133.784,77.3713 135.5,77.5C 135.351,78.552 135.517,79.552 136,80.5C 136.893,79.2888 137.726,79.2888 138.5,80.5C 136.823,82.6759 134.989,84.6759 133,86.5C 132.276,105.514 132.443,124.514 133.5,143.5C 134.5,143.5 135.5,143.5 136.5,143.5C 136.147,151.58 135.147,159.58 133.5,167.5C 134.019,178.107 134.852,178.107 136,167.5C 136.497,170.146 136.664,172.813 136.5,175.5C 134.719,188.898 133.385,202.231 132.5,215.5C 132.136,204.913 131.136,204.913 129.5,215.5C 128.682,212.893 128.182,210.226 128,207.5C 127.676,209.569 126.842,209.902 125.5,208.5C 124.14,209.18 122.807,209.847 121.5,210.5C 120.372,207.788 118.706,205.455 116.5,203.5C 116.5,202.833 116.5,202.167 116.5,201.5C 117.458,201.953 118.292,202.619 119,203.5C 120.154,201.043 121.488,201.043 123,203.5C 123.492,202.451 123.326,201.451 122.5,200.5C 124.045,199.548 125.712,199.215 127.5,199.5C 127.296,196.455 127.296,193.621 127.5,191C 126.667,190.167 125.833,189.333 125,188.5C 124.5,181.508 124.334,174.508 124.5,167.5C 125.5,167.5 126.5,167.5 127.5,167.5C 127.139,159.4 126.139,151.4 124.5,143.5C 125.5,143.5 126.5,143.5 127.5,143.5C 127.5,132.833 127.5,122.167 127.5,111.5C 126.5,111.5 125.5,111.5 124.5,111.5C 124.5,108.833 124.5,106.167 124.5,103.5C 125.5,103.5 126.5,103.5 127.5,103.5C 126.652,95.5821 126.319,87.7487 126.5,80C 128.55,79.5838 129.884,78.4171 130.5,76.5 Z"/></g>
<g><path style="opacity:1" fill="#6564df" d="M 132.5,63.5 C 133.5,63.5 134.5,63.5 135.5,63.5C 135.5,66.1667 135.5,68.8333 135.5,71.5C 138.167,71.5 140.833,71.5 143.5,71.5C 143.335,75.1817 143.501,78.8484 144,82.5C 144.667,81.1667 145.333,81.1667 146,82.5C 147.145,84.251 147.645,86.0843 147.5,88C 145.998,88.5831 144.665,89.4164 143.5,90.5C 146.108,90.0833 148.775,90.5833 151.5,92C 149.292,92.1909 147.292,92.6909 145.5,93.5C 144.539,95.2646 144.205,97.2646 144.5,99.5C 143.631,101.717 143.298,104.05 143.5,106.5C 142.034,107.347 141.2,108.68 141,110.5C 140.558,114.906 139.725,119.239 138.5,123.5C 139.388,132.811 139.721,142.144 139.5,151.5C 139.269,159.505 138.935,167.505 138.5,175.5C 138.167,175.5 137.833,175.5 137.5,175.5C 137.167,175.5 136.833,175.5 136.5,175.5C 136.664,172.813 136.497,170.146 136,167.5C 134.852,178.107 134.019,178.107 133.5,167.5C 135.147,159.58 136.147,151.58 136.5,143.5C 135.5,143.5 134.5,143.5 133.5,143.5C 132.443,124.514 132.276,105.514 133,86.5C 134.989,84.6759 136.823,82.6759 138.5,80.5C 137.726,79.2888 136.893,79.2888 136,80.5C 135.517,79.552 135.351,78.552 135.5,77.5C 133.784,77.3713 132.117,77.038 130.5,76.5C 130.565,76.0618 130.399,75.7284 130,75.5C 125.319,78.4172 123.486,77.2505 124.5,72C 122.866,71.5065 121.199,71.3398 119.5,71.5C 118.448,71.6495 117.448,71.4828 116.5,71C 117.252,70.3292 117.586,69.4959 117.5,68.5C 119.085,67.5263 120.085,66.0263 120.5,64C 122.653,63.9005 124.319,63.0672 125.5,61.5C 126.117,61.6107 126.617,61.944 127,62.5C 127.232,58.25 128.732,57.5833 131.5,60.5C 128.567,62.7381 128.901,63.7381 132.5,63.5 Z"/></g>
<g><path style="opacity:1" fill="#7e7fb8" d="M 203.5,75.5 C 205.176,76.1834 205.843,77.5168 205.5,79.5C 206.552,79.3505 207.552,79.5172 208.5,80C 209.672,81.997 211.005,83.8303 212.5,85.5C 210.695,88.0431 209.028,90.7097 207.5,93.5C 205.052,94.4731 202.385,94.8064 199.5,94.5C 181.326,94.1699 163.326,94.5032 145.5,95.5C 145.5,96.8333 145.5,98.1667 145.5,99.5C 145.167,99.5 144.833,99.5 144.5,99.5C 144.205,97.2646 144.539,95.2646 145.5,93.5C 152.833,93.5 160.167,93.5 167.5,93.5C 171.5,93.5 175.5,93.5 179.5,93.5C 187.847,93.2811 196.18,92.7811 204.5,92C 202.825,91.0147 201.158,90.1814 199.5,89.5C 201.308,89.5086 202.975,89.0086 204.5,88C 200.226,84.9432 198.56,80.7765 199.5,75.5C 200.833,75.5 202.167,75.5 203.5,75.5 Z"/></g>
<g><path style="opacity:1" fill="#2523c9" d="M 63.5,73.5 C 63.0472,74.4584 62.3805,75.2917 61.5,76C 63.0456,77.4396 63.879,79.2729 64,81.5C 64.1448,77.1869 66.3115,75.3536 70.5,76C 69.8333,78 69.1667,80 68.5,82C 70.9357,82.1238 73.269,81.6238 75.5,80.5C 75.5,81.8333 75.5,83.1667 75.5,84.5C 76.8333,84.5 78.1667,84.5 79.5,84.5C 79.5,86.5 79.5,88.5 79.5,90.5C 74.1563,90.334 68.8229,90.5006 63.5,91C 65.8911,92.0349 68.2244,92.2015 70.5,91.5C 71.2975,91.9569 71.6309,92.6236 71.5,93.5C 59.1667,93.5 46.8333,93.5 34.5,93.5C 36.8109,91.9318 39.4776,91.0984 42.5,91C 41.552,90.5172 40.552,90.3505 39.5,90.5C 39.5,89.5 39.5,88.5 39.5,87.5C 38.1266,87.6567 36.7932,87.49 35.5,87C 37.9066,84.7152 40.4066,82.5486 43,80.5C 43.0488,77.584 44.2155,76.584 46.5,77.5C 49.8395,75.8331 53.1728,74.1664 56.5,72.5C 57.1667,73.1667 57.8333,73.8333 58.5,74.5C 60.0697,72.6212 61.7363,72.2878 63.5,73.5 Z"/></g>
<g><path style="opacity:1" fill="#4a45af" d="M 19.5,94.5 C 20.5676,93.5655 21.901,93.2322 23.5,93.5C 27.1667,93.5 30.8333,93.5 34.5,93.5C 46.8333,93.5 59.1667,93.5 71.5,93.5C 77.1764,93.3339 82.8431,93.5006 88.5,94C 89.4505,97.0567 89.7839,100.223 89.5,103.5C 89.1667,103.5 88.8333,103.5 88.5,103.5C 88.8064,100.615 88.4731,97.9479 87.5,95.5C 65.673,94.5026 43.673,94.1693 21.5,94.5C 20.8333,94.5 20.1667,94.5 19.5,94.5 Z"/></g>
<g><path style="opacity:1" fill="#c3c4e7" d="M 21.5,94.5 C 43.673,94.1693 65.673,94.5026 87.5,95.5C 71.5,95.5 55.5,95.5 39.5,95.5C 35.5,95.5 31.5,95.5 27.5,95.5C 25.2188,95.0773 23.5521,95.744 22.5,97.5C 21.8333,98.1667 21.1667,98.8333 20.5,99.5C 20.366,97.7085 20.6993,96.0418 21.5,94.5 Z"/></g>
<g><path style="opacity:1" fill="#cacaca" d="M 27.5,95.5 C 30.981,98.5166 32.981,102.517 33.5,107.5C 32.8333,110.167 32.1667,112.833 31.5,115.5C 34.6466,132.119 40.8133,147.452 50,161.5C 51.2419,162.872 52.7419,163.872 54.5,164.5C 56.1944,169.034 59.1944,172.534 63.5,175C 68.8333,177.667 74.1667,180.333 79.5,183C 74.3327,184.014 74.3327,185.18 79.5,186.5C 79.8294,189.228 79.1628,191.562 77.5,193.5C 76.2529,191.822 74.5862,190.489 72.5,189.5C 71.6143,188.675 71.281,187.675 71.5,186.5C 68.2791,185.889 65.2791,184.722 62.5,183C 60.3989,180.23 57.7323,178.23 54.5,177C 51.2539,173.418 47.9205,169.918 44.5,166.5C 42.9802,164.338 41.9802,162.005 41.5,159.5C 40.325,159.719 39.325,159.386 38.5,158.5C 37.1104,154.053 34.9438,150.053 32,146.5C 31.0693,141.266 29.4026,136.266 27,131.5C 26.3486,129.765 26.5153,128.098 27.5,126.5C 25.0326,122.186 24.0326,117.519 24.5,112.5C 24.5536,109.061 25.2203,105.894 26.5,103C 25.2396,101.887 24.073,101.72 23,102.5C 22.5065,100.866 22.3398,99.1992 22.5,97.5C 23.5521,95.744 25.2188,95.0773 27.5,95.5 Z"/></g>
<g><path style="opacity:1" fill="#dadbda" d="M 39.5,95.5 C 55.5,95.5 71.5,95.5 87.5,95.5C 88.4731,97.9479 88.8064,100.615 88.5,103.5C 87.5269,105.948 87.1936,108.615 87.5,111.5C 85.5539,116.396 84.8872,121.729 85.5,127.5C 85.1667,132.833 84.8333,138.167 84.5,143.5C 82.7582,148.106 81.5915,153.106 81,158.5C 79.9966,156.065 79.4966,156.398 79.5,159.5C 80.3645,165.468 80.6979,171.468 80.5,177.5C 76.3814,174.555 72.3814,171.389 68.5,168C 65.1897,168.229 63.3563,166.729 63,163.5C 61.2257,161.06 58.8924,159.394 56,158.5C 52.4378,151.266 48.4378,144.266 44,137.5C 43.301,131.511 42.801,125.511 42.5,119.5C 41.5,119.5 40.5,119.5 39.5,119.5C 39.5,111.5 39.5,103.5 39.5,95.5 Z"/></g>
<g><path style="opacity:1" fill="#dadbda" d="M 145.5,95.5 C 158.167,95.5 170.833,95.5 183.5,95.5C 183.5,106.167 183.5,116.833 183.5,127.5C 182.5,127.5 181.5,127.5 180.5,127.5C 180.664,130.187 180.497,132.854 180,135.5C 174.314,147.155 167.148,157.655 158.5,167C 157.167,167.333 155.833,167.667 154.5,168C 151.874,170.323 149.207,172.657 146.5,175C 144.19,175.497 141.857,175.663 139.5,175.5C 140.323,167.529 140.656,159.529 140.5,151.5C 140.669,146.819 141.002,142.152 141.5,137.5C 143.057,131.739 143.724,125.739 143.5,119.5C 143.5,118.167 143.5,116.833 143.5,115.5C 144.117,115.389 144.617,115.056 145,114.5C 145.499,109.511 145.666,104.511 145.5,99.5C 145.5,98.1667 145.5,96.8333 145.5,95.5 Z"/></g>
<g><path style="opacity:1" fill="#d1d1d1" d="M 183.5,95.5 C 185.5,95.5 187.5,95.5 189.5,95.5C 189.506,103.548 190.172,111.548 191.5,119.5C 191.841,124.536 190.341,128.87 187,132.5C 186.667,134.833 186.333,137.167 186,139.5C 181.699,145.769 178.199,152.436 175.5,159.5C 174.167,159.5 172.833,159.5 171.5,159.5C 170.738,163.269 169.071,166.602 166.5,169.5C 159.688,174.63 152.355,178.963 144.5,182.5C 143.667,181.5 142.833,180.5 142,179.5C 141.333,180.833 140.667,180.833 140,179.5C 139.51,178.207 139.343,176.873 139.5,175.5C 141.857,175.663 144.19,175.497 146.5,175C 149.207,172.657 151.874,170.323 154.5,168C 155.833,167.667 157.167,167.333 158.5,167C 167.148,157.655 174.314,147.155 180,135.5C 180.497,132.854 180.664,130.187 180.5,127.5C 181.5,127.5 182.5,127.5 183.5,127.5C 183.5,116.833 183.5,106.167 183.5,95.5 Z"/></g>
<g><path style="opacity:1" fill="#cacacc" d="M 145.5,95.5 C 163.326,94.5032 181.326,94.1699 199.5,94.5C 199.5,94.8333 199.5,95.1667 199.5,95.5C 198.963,104.159 198.463,112.826 198,121.5C 197.167,123.167 196.333,124.833 195.5,126.5C 196.575,129.438 196.741,132.438 196,135.5C 190.827,143.53 186.66,151.53 183.5,159.5C 182.5,159.5 181.5,159.5 180.5,159.5C 180.477,161.927 179.977,164.26 179,166.5C 176.968,169.525 174.301,171.858 171,173.5C 170.5,177.333 168.333,179.5 164.5,180C 163.12,181.925 161.62,183.759 160,185.5C 159.667,184.833 159.333,184.167 159,183.5C 154.899,188.358 149.732,191.025 143.5,191.5C 143.167,194.167 142.833,196.833 142.5,199.5C 141.167,199.5 139.833,199.5 138.5,199.5C 138.167,210.167 137.833,210.167 137.5,199.5C 138.166,191.517 138.499,183.517 138.5,175.5C 138.833,175.5 139.167,175.5 139.5,175.5C 139.343,176.873 139.51,178.207 140,179.5C 140.667,180.833 141.333,180.833 142,179.5C 142.833,180.5 143.667,181.5 144.5,182.5C 152.355,178.963 159.688,174.63 166.5,169.5C 169.071,166.602 170.738,163.269 171.5,159.5C 172.833,159.5 174.167,159.5 175.5,159.5C 178.199,152.436 181.699,145.769 186,139.5C 186.333,137.167 186.667,134.833 187,132.5C 190.341,128.87 191.841,124.536 191.5,119.5C 190.172,111.548 189.506,103.548 189.5,95.5C 187.5,95.5 185.5,95.5 183.5,95.5C 170.833,95.5 158.167,95.5 145.5,95.5 Z"/></g>
<g><path style="opacity:1" fill="#c0c0c0" d="M 199.5,95.5 C 202.167,95.5 204.833,95.5 207.5,95.5C 208.159,100.814 208.826,106.147 209.5,111.5C 209.038,116.031 208.371,120.531 207.5,125C 207.708,127.491 208.375,129.825 209.5,132C 209.333,132.5 209.167,133 209,133.5C 208,132.167 207,132.167 206,133.5C 203.588,144.084 199.255,153.751 193,162.5C 192.578,164.355 192.078,166.189 191.5,168C 189.15,170.683 186.483,173.016 183.5,175C 183.833,175.333 184.167,175.667 184.5,176C 181.527,177.765 179.36,180.265 178,183.5C 173.365,185.386 170.865,188.553 170.5,193C 169.004,193.507 167.837,193.007 167,191.5C 165.983,194.028 164.816,194.028 163.5,191.5C 163.06,192.698 162.727,193.865 162.5,195C 161.146,196.294 159.812,196.46 158.5,195.5C 156.483,196.174 154.817,197.341 153.5,199C 154.5,199.333 155.5,199.667 156.5,200C 156.167,200.333 155.833,200.667 155.5,201C 150.8,201.114 146.466,202.281 142.5,204.5C 142.5,202.833 142.5,201.167 142.5,199.5C 142.833,196.833 143.167,194.167 143.5,191.5C 149.732,191.025 154.899,188.358 159,183.5C 159.333,184.167 159.667,184.833 160,185.5C 161.62,183.759 163.12,181.925 164.5,180C 168.333,179.5 170.5,177.333 171,173.5C 174.301,171.858 176.968,169.525 179,166.5C 179.977,164.26 180.477,161.927 180.5,159.5C 181.5,159.5 182.5,159.5 183.5,159.5C 186.66,151.53 190.827,143.53 196,135.5C 196.741,132.438 196.575,129.438 195.5,126.5C 196.333,124.833 197.167,123.167 198,121.5C 198.463,112.826 198.963,104.159 199.5,95.5 Z"/></g>
<g><path style="opacity:1" fill="#d1d1d1" d="M 27.5,95.5 C 31.5,95.5 35.5,95.5 39.5,95.5C 39.5,103.5 39.5,111.5 39.5,119.5C 40.5,119.5 41.5,119.5 42.5,119.5C 42.801,125.511 43.301,131.511 44,137.5C 48.4378,144.266 52.4378,151.266 56,158.5C 58.8924,159.394 61.2257,161.06 63,163.5C 63.3563,166.729 65.1897,168.229 68.5,168C 72.3814,171.389 76.3814,174.555 80.5,177.5C 80.5,179.5 80.5,181.5 80.5,183.5C 80.5,184.5 80.5,185.5 80.5,186.5C 80.1667,186.5 79.8333,186.5 79.5,186.5C 74.3327,185.18 74.3327,184.014 79.5,183C 74.1667,180.333 68.8333,177.667 63.5,175C 59.1944,172.534 56.1944,169.034 54.5,164.5C 52.7419,163.872 51.2419,162.872 50,161.5C 40.8133,147.452 34.6466,132.119 31.5,115.5C 32.1667,112.833 32.8333,110.167 33.5,107.5C 32.981,102.517 30.981,98.5166 27.5,95.5 Z"/></g>
<g><path style="opacity:1" fill="#6467a7" d="M 19.5,94.5 C 20.1667,94.5 20.8333,94.5 21.5,94.5C 20.6993,96.0418 20.366,97.7085 20.5,99.5C 19.8333,100.167 19.1667,100.833 18.5,101.5C 18.6741,99.139 19.0074,96.8056 19.5,94.5 Z"/></g>
<g><path style="opacity:1" fill="#c5c4e9" d="M 144.5,99.5 C 144.833,99.5 145.167,99.5 145.5,99.5C 145.666,104.511 145.499,109.511 145,114.5C 144.617,115.056 144.117,115.389 143.5,115.5C 143.5,112.5 143.5,109.5 143.5,106.5C 143.298,104.05 143.631,101.717 144.5,99.5 Z"/></g>
<g><path style="opacity:1" fill="#bbbaeb" d="M 87.5,111.5 C 87.473,117.051 86.8063,122.384 85.5,127.5C 84.8872,121.729 85.5539,116.396 87.5,111.5 Z"/></g>
<g><path style="opacity:1" fill="#5b59df" d="M 119.5,71.5 C 121.199,71.3398 122.866,71.5065 124.5,72C 123.486,77.2505 125.319,78.4172 130,75.5C 130.399,75.7284 130.565,76.0618 130.5,76.5C 129.884,78.4171 128.55,79.5838 126.5,80C 126.319,87.7487 126.652,95.5821 127.5,103.5C 126.5,103.5 125.5,103.5 124.5,103.5C 124.5,106.167 124.5,108.833 124.5,111.5C 125.5,111.5 126.5,111.5 127.5,111.5C 127.5,122.167 127.5,132.833 127.5,143.5C 126.5,143.5 125.5,143.5 124.5,143.5C 126.139,151.4 127.139,159.4 127.5,167.5C 126.5,167.5 125.5,167.5 124.5,167.5C 124.334,174.508 124.5,181.508 125,188.5C 125.833,189.333 126.667,190.167 127.5,191C 127.296,193.621 127.296,196.455 127.5,199.5C 125.712,199.215 124.045,199.548 122.5,200.5C 123.326,201.451 123.492,202.451 123,203.5C 121.488,201.043 120.154,201.043 119,203.5C 118.292,202.619 117.458,201.953 116.5,201.5C 116.123,199.742 115.456,198.075 114.5,196.5C 115.498,193.972 116.331,193.972 117,196.5C 118.318,195.099 119.485,193.265 120.5,191C 119.079,176.52 119.413,162.02 121.5,147.5C 120.349,143.563 119.516,139.563 119,135.5C 118.667,122.167 118.333,108.833 118,95.5C 117.999,92.313 117.166,89.4797 115.5,87C 118.548,83.672 120.548,79.8386 121.5,75.5C 117.155,75.7019 116.488,74.3686 119.5,71.5 Z"/></g>
<g><path style="opacity:1" fill="#6d6dd5" d="M 143.5,106.5 C 143.5,109.5 143.5,112.5 143.5,115.5C 143.5,116.833 143.5,118.167 143.5,119.5C 142.054,125.274 141.388,131.274 141.5,137.5C 141.002,142.152 140.669,146.819 140.5,151.5C 140.167,151.5 139.833,151.5 139.5,151.5C 139.721,142.144 139.388,132.811 138.5,123.5C 139.725,119.239 140.558,114.906 141,110.5C 141.2,108.68 142.034,107.347 143.5,106.5 Z"/></g>
<g><path style="opacity:1" fill="#6f70a8" d="M 17.5,111.5 C 16.0463,123.898 16.3796,136.232 18.5,148.5C 19.1667,152.167 19.8333,155.833 20.5,159.5C 19.4415,158.4 18.6082,157.066 18,155.5C 15.8518,142.571 15.1851,129.571 16,116.5C 16.1981,114.618 16.6981,112.952 17.5,111.5 Z"/></g>
<g><path style="opacity:1" fill="#fbfcfc" d="M 1.5,89.5 C 2.038,91.1172 2.37133,92.7839 2.5,94.5C 3.83333,94.5 5.16667,94.5 6.5,94.5C 4.5232,108.086 4.0232,121.753 5,135.5C 6.38702,142.063 8.22036,148.396 10.5,154.5C 11.4925,157.823 12.4925,161.156 13.5,164.5C 13.427,166.027 14.0937,167.027 15.5,167.5C 21.3145,179.307 29.3145,189.307 39.5,197.5C 41.9181,200.547 44.9181,202.88 48.5,204.5C 55.7104,209.77 63.7104,213.437 72.5,215.5C 73.9187,216.451 75.5853,216.784 77.5,216.5C 77.2155,218.415 77.5489,220.081 78.5,221.5C 79.8717,222.512 81.205,223.512 82.5,224.5C 55.1667,224.5 27.8333,224.5 0.5,224.5C 0.167922,179.33 0.501255,134.33 1.5,89.5 Z"/></g>
<g><path style="opacity:1" fill="#b8bbe0" d="M 143.5,119.5 C 143.724,125.739 143.057,131.739 141.5,137.5C 141.388,131.274 142.054,125.274 143.5,119.5 Z"/></g>
<g><path style="opacity:1" fill="#bebebe" d="M 22.5,97.5 C 22.3398,99.1992 22.5065,100.866 23,102.5C 24.073,101.72 25.2396,101.887 26.5,103C 25.2203,105.894 24.5536,109.061 24.5,112.5C 24.0326,117.519 25.0326,122.186 27.5,126.5C 26.5153,128.098 26.3486,129.765 27,131.5C 29.4026,136.266 31.0693,141.266 32,146.5C 34.9438,150.053 37.1104,154.053 38.5,158.5C 39.325,159.386 40.325,159.719 41.5,159.5C 41.9802,162.005 42.9802,164.338 44.5,166.5C 47.9205,169.918 51.2539,173.418 54.5,177C 57.7323,178.23 60.3989,180.23 62.5,183C 65.2791,184.722 68.2791,185.889 71.5,186.5C 71.281,187.675 71.6143,188.675 72.5,189.5C 74.5862,190.489 76.2529,191.822 77.5,193.5C 77.5,201.167 77.5,208.833 77.5,216.5C 75.5853,216.784 73.9187,216.451 72.5,215.5C 73.7479,214.666 74.4146,213.333 74.5,211.5C 74.1667,210.167 73.8333,208.833 73.5,207.5C 61.4582,200.931 50.4582,193.098 40.5,184C 38.2511,183.137 36.4178,183.637 35,185.5C 33.513,184.747 33.3463,183.914 34.5,183C 33.5944,180.553 32.7611,178.053 32,175.5C 31.6667,176.5 31.3333,177.5 31,178.5C 30.7679,177.263 30.2679,176.263 29.5,175.5C 29.5499,173.41 28.5499,172.077 26.5,171.5C 24.5702,163.403 21.9035,155.736 18.5,148.5C 16.3796,136.232 16.0463,123.898 17.5,111.5C 17.6159,108.14 17.9492,104.807 18.5,101.5C 19.1667,100.833 19.8333,100.167 20.5,99.5C 21.1667,98.8333 21.8333,98.1667 22.5,97.5 Z"/></g>
<g><path style="opacity:1" fill="#959595" d="M -0.5,85.5 C -0.166667,85.5 0.166667,85.5 0.5,85.5C 0.833333,86.8333 1.16667,88.1667 1.5,89.5C 0.501255,134.33 0.167922,179.33 0.5,224.5C 0.166667,224.5 -0.166667,224.5 -0.5,224.5C -0.5,178.167 -0.5,131.833 -0.5,85.5 Z"/></g>
<g><path style="opacity:1" fill="#423edc" d="M 96.5,191.5 C 92.8649,191.656 92.5315,192.822 95.5,195C 93.1123,195.041 90.779,195.874 88.5,197.5C 87.6717,192.868 87.1717,188.202 87,183.5C 86.4932,188.889 85.6598,194.223 84.5,199.5C 84.1667,198.167 83.8333,196.833 83.5,195.5C 84.6276,189.344 84.6276,183.177 83.5,177C 84.4528,163.121 85.7861,149.287 87.5,135.5C 88.5,135.5 89.5,135.5 90.5,135.5C 90.3802,131.958 90.7135,128.458 91.5,125C 89.7362,117.957 89.0696,110.79 89.5,103.5C 89.7839,100.223 89.4505,97.0567 88.5,94C 82.8431,93.5006 77.1764,93.3339 71.5,93.5C 71.6309,92.6236 71.2975,91.9569 70.5,91.5C 68.2244,92.2015 65.8911,92.0349 63.5,91C 68.8229,90.5006 74.1563,90.334 79.5,90.5C 80.964,91.1599 82.6307,91.4932 84.5,91.5C 87.9729,91.2692 91.3062,90.7692 94.5,90C 94.8333,90.3333 95.1667,90.6667 95.5,91C 93.0426,92.1544 93.0426,93.4877 95.5,95C 94.0335,102.801 94.0335,105.634 95.5,103.5C 96.5,103.5 97.5,103.5 98.5,103.5C 98.8333,114.167 99.1667,124.833 99.5,135.5C 98.1667,135.5 96.8333,135.5 95.5,135.5C 96.3885,154.15 96.7219,172.817 96.5,191.5 Z"/></g>
<g><path style="opacity:1" fill="#5553de" d="M 117.5,68.5 C 117.586,69.4959 117.252,70.3292 116.5,71C 117.448,71.4828 118.448,71.6495 119.5,71.5C 116.488,74.3686 117.155,75.7019 121.5,75.5C 120.548,79.8386 118.548,83.672 115.5,87C 117.166,89.4797 117.999,92.313 118,95.5C 118.333,108.833 118.667,122.167 119,135.5C 119.516,139.563 120.349,143.563 121.5,147.5C 119.413,162.02 119.079,176.52 120.5,191C 119.485,193.265 118.318,195.099 117,196.5C 116.331,193.972 115.498,193.972 114.5,196.5C 115.456,198.075 116.123,199.742 116.5,201.5C 116.5,202.167 116.5,202.833 116.5,203.5C 115.766,204.708 115.433,206.041 115.5,207.5C 114.167,207.5 112.833,207.5 111.5,207.5C 111.719,208.675 111.386,209.675 110.5,210.5C 109.452,209.452 108.452,208.452 107.5,207.5C 106.297,204.827 106.297,202.16 107.5,199.5C 106.82,198.14 106.153,196.807 105.5,195.5C 106.798,195.72 108.131,195.053 109.5,193.5C 109.291,192.914 108.957,192.414 108.5,192C 109.793,191.51 111.127,191.343 112.5,191.5C 112.666,186.156 112.499,180.823 112,175.5C 111.818,178.226 111.318,180.893 110.5,183.5C 109.507,179.558 108.84,175.558 108.5,171.5C 109.722,159.501 109.722,147.501 108.5,135.5C 109.833,135.5 111.167,135.5 112.5,135.5C 112.278,118.16 111.945,100.827 111.5,83.5C 109.799,83.0338 108.299,83.0338 107,83.5C 106.57,80.8078 106.737,78.1411 107.5,75.5C 108.406,72.9264 109.739,70.593 111.5,68.5C 112.458,68.0472 113.292,67.3805 114,66.5C 114.582,69.6677 115.582,70.001 117,67.5C 117.399,67.7284 117.565,68.0618 117.5,68.5 Z"/></g>
<g><path style="opacity:1" fill="#c3c2e5" d="M 84.5,143.5 C 84.1568,157.076 82.8235,170.409 80.5,183.5C 80.5,181.5 80.5,179.5 80.5,177.5C 80.6979,171.468 80.3645,165.468 79.5,159.5C 79.4966,156.398 79.9966,156.065 81,158.5C 81.5915,153.106 82.7582,148.106 84.5,143.5 Z"/></g>
<g><path style="opacity:1" fill="#9696b4" d="M 18.5,148.5 C 21.9035,155.736 24.5702,163.403 26.5,171.5C 28.5499,172.077 29.5499,173.41 29.5,175.5C 29.5,176.5 29.5,177.5 29.5,178.5C 28.8333,178.167 28.1667,177.833 27.5,177.5C 24.3951,171.799 22.0618,165.799 20.5,159.5C 19.8333,155.833 19.1667,152.167 18.5,148.5 Z"/></g>
<g><path style="opacity:1" fill="#2b2c8f" d="M 6.5,94.5 C 9.60375,95.7752 12.6038,95.7752 15.5,94.5C 16.8333,94.5 18.1667,94.5 19.5,94.5C 19.0074,96.8056 18.6741,99.139 18.5,101.5C 17.9492,104.807 17.6159,108.14 17.5,111.5C 16.6981,112.952 16.1981,114.618 16,116.5C 15.1851,129.571 15.8518,142.571 18,155.5C 18.6082,157.066 19.4415,158.4 20.5,159.5C 22.0618,165.799 24.3951,171.799 27.5,177.5C 28.6805,179.693 29.6805,182.026 30.5,184.5C 30.9569,185.298 31.6236,185.631 32.5,185.5C 34.1667,187.5 35.8333,189.5 37.5,191.5C 38.4734,193.3 39.4734,195.134 40.5,197C 40.2716,197.399 39.9382,197.565 39.5,197.5C 29.3145,189.307 21.3145,179.307 15.5,167.5C 15.573,165.973 14.9063,164.973 13.5,164.5C 12.4925,161.156 11.4925,157.823 10.5,154.5C 8.22036,148.396 6.38702,142.063 5,135.5C 4.0232,121.753 4.5232,108.086 6.5,94.5 Z"/></g>
<g><path style="opacity:1" fill="#232699" d="M 10.5,154.5 C 10.4036,148.062 9.57028,141.729 8,135.5C 7.66667,135.833 7.33333,136.167 7,136.5C 7.08207,128.165 7.58207,119.831 8.5,111.5C 8.28009,107.9 7.61343,104.4 6.5,101C 6.58524,99.8926 6.91858,98.8926 7.5,98C 10.4816,97.502 13.4816,97.3354 16.5,97.5C 16.4599,102.193 16.1266,106.859 15.5,111.5C 14.5,111.5 13.5,111.5 12.5,111.5C 12.5,123.833 12.5,136.167 12.5,148.5C 15.1662,148.066 16.3329,149.066 16,151.5C 15.3457,150.304 14.8457,150.304 14.5,151.5C 19.012,160.657 17.6787,161.657 10.5,154.5 Z"/></g>
<g><path style="opacity:1" fill="#cacaec" d="M 139.5,151.5 C 139.833,151.5 140.167,151.5 140.5,151.5C 140.656,159.529 140.323,167.529 139.5,175.5C 139.167,175.5 138.833,175.5 138.5,175.5C 138.935,167.505 139.269,159.505 139.5,151.5 Z"/></g>
<g><path style="opacity:1" fill="#7c7da9" d="M 13.5,164.5 C 14.9063,164.973 15.573,165.973 15.5,167.5C 14.0937,167.027 13.427,166.027 13.5,164.5 Z"/></g>
<g><path style="opacity:1" fill="#5b5e9b" d="M 27.5,177.5 C 28.1667,177.833 28.8333,178.167 29.5,178.5C 30.7729,180.713 31.7729,183.046 32.5,185.5C 31.6236,185.631 30.9569,185.298 30.5,184.5C 29.6805,182.026 28.6805,179.693 27.5,177.5 Z"/></g>
<g><path style="opacity:1" fill="#afafb0" d="M 29.5,175.5 C 30.2679,176.263 30.7679,177.263 31,178.5C 31.3333,177.5 31.6667,176.5 32,175.5C 32.7611,178.053 33.5944,180.553 34.5,183C 33.3463,183.914 33.513,184.747 35,185.5C 36.4178,183.637 38.2511,183.137 40.5,184C 50.4582,193.098 61.4582,200.931 73.5,207.5C 73.8333,208.833 74.1667,210.167 74.5,211.5C 74.4146,213.333 73.7479,214.666 72.5,215.5C 63.7104,213.437 55.7104,209.77 48.5,204.5C 48.9382,204.565 49.2716,204.399 49.5,204C 48.2283,202.693 47.2283,201.193 46.5,199.5C 43.9194,196.312 40.9194,193.645 37.5,191.5C 35.8333,189.5 34.1667,187.5 32.5,185.5C 31.7729,183.046 30.7729,180.713 29.5,178.5C 29.5,177.5 29.5,176.5 29.5,175.5 Z"/></g>
<g><path style="opacity:1" fill="#b6b7da" d="M 137.5,175.5 C 137.833,175.5 138.167,175.5 138.5,175.5C 138.499,183.517 138.166,191.517 137.5,199.5C 136.833,202.167 136.167,204.833 135.5,207.5C 136.332,196.845 136.998,186.178 137.5,175.5 Z"/></g>
<g><path style="opacity:1" fill="#6966c3" d="M 136.5,175.5 C 136.833,175.5 137.167,175.5 137.5,175.5C 136.998,186.178 136.332,196.845 135.5,207.5C 135.5,209.5 135.5,211.5 135.5,213.5C 134.683,215.969 134.183,218.635 134,221.5C 132.482,222.163 131.315,223.163 130.5,224.5C 129.833,224.5 129.167,224.5 128.5,224.5C 129.048,222.468 130.381,221.468 132.5,221.5C 132.5,219.5 132.5,217.5 132.5,215.5C 133.385,202.231 134.719,188.898 136.5,175.5 Z"/></g>
<g><path style="opacity:1" fill="#b7b7b8" d="M 218.5,81.5 C 218.666,91.5056 218.5,101.506 218,111.5C 215.382,132.697 208.048,152.031 196,169.5C 180.58,190.935 160.414,205.602 135.5,213.5C 135.5,211.5 135.5,209.5 135.5,207.5C 136.167,204.833 136.833,202.167 137.5,199.5C 137.833,210.167 138.167,210.167 138.5,199.5C 139.833,199.5 141.167,199.5 142.5,199.5C 142.5,201.167 142.5,202.833 142.5,204.5C 146.466,202.281 150.8,201.114 155.5,201C 155.833,200.667 156.167,200.333 156.5,200C 155.5,199.667 154.5,199.333 153.5,199C 154.817,197.341 156.483,196.174 158.5,195.5C 159.812,196.46 161.146,196.294 162.5,195C 162.727,193.865 163.06,192.698 163.5,191.5C 164.816,194.028 165.983,194.028 167,191.5C 167.837,193.007 169.004,193.507 170.5,193C 170.865,188.553 173.365,185.386 178,183.5C 179.36,180.265 181.527,177.765 184.5,176C 184.167,175.667 183.833,175.333 183.5,175C 186.483,173.016 189.15,170.683 191.5,168C 192.078,166.189 192.578,164.355 193,162.5C 199.255,153.751 203.588,144.084 206,133.5C 207,132.167 208,132.167 209,133.5C 209.167,133 209.333,132.5 209.5,132C 208.375,129.825 207.708,127.491 207.5,125C 208.371,120.531 209.038,116.031 209.5,111.5C 208.826,106.147 208.159,100.814 207.5,95.5C 204.833,95.5 202.167,95.5 199.5,95.5C 199.5,95.1667 199.5,94.8333 199.5,94.5C 202.385,94.8064 205.052,94.4731 207.5,93.5C 212.191,90.4742 215.858,86.4742 218.5,81.5 Z"/></g>
<g><path style="opacity:1" fill="#b2b2d1" d="M 79.5,186.5 C 79.8333,186.5 80.1667,186.5 80.5,186.5C 80.5,188.167 80.5,189.833 80.5,191.5C 80.1667,196.833 79.8333,202.167 79.5,207.5C 78.5139,211.97 78.1805,216.637 78.5,221.5C 77.5489,220.081 77.2155,218.415 77.5,216.5C 77.5,208.833 77.5,201.167 77.5,193.5C 79.1628,191.562 79.8294,189.228 79.5,186.5 Z"/></g>
<g><path style="opacity:1" fill="#423ece" d="M 88.5,103.5 C 88.8333,103.5 89.1667,103.5 89.5,103.5C 89.0696,110.79 89.7362,117.957 91.5,125C 90.7135,128.458 90.3802,131.958 90.5,135.5C 89.5,135.5 88.5,135.5 87.5,135.5C 85.7861,149.287 84.4528,163.121 83.5,177C 84.6276,183.177 84.6276,189.344 83.5,195.5C 83.8333,196.833 84.1667,198.167 84.5,199.5C 85.6598,194.223 86.4932,188.889 87,183.5C 87.1717,188.202 87.6717,192.868 88.5,197.5C 90.779,195.874 93.1123,195.041 95.5,195C 92.5315,192.822 92.8649,191.656 96.5,191.5C 98.8333,191.5 101.167,191.5 103.5,191.5C 103.157,193.483 103.824,194.817 105.5,195.5C 106.153,196.807 106.82,198.14 107.5,199.5C 106.297,202.16 106.297,204.827 107.5,207.5C 105.058,207.354 104.391,208.187 105.5,210C 103.899,210.273 102.399,210.773 101,211.5C 100.586,211.043 100.086,210.709 99.5,210.5C 98.9426,212.718 98.9426,215.051 99.5,217.5C 98.1667,217.5 96.8333,217.5 95.5,217.5C 94.8166,215.824 93.4832,215.157 91.5,215.5C 91.6567,214.127 91.49,212.793 91,211.5C 90,211.167 89,210.833 88,210.5C 87.7674,208.22 86.934,206.22 85.5,204.5C 84.7193,205.737 83.7193,206.737 82.5,207.5C 81.8332,202.015 81.1665,196.681 80.5,191.5C 80.5,189.833 80.5,188.167 80.5,186.5C 80.5,185.5 80.5,184.5 80.5,183.5C 82.8235,170.409 84.1568,157.076 84.5,143.5C 84.8333,138.167 85.1667,132.833 85.5,127.5C 86.8063,122.384 87.473,117.051 87.5,111.5C 87.1936,108.615 87.5269,105.948 88.5,103.5 Z"/></g>
<g><path style="opacity:1" fill="#77759a" d="M 37.5,191.5 C 40.9194,193.645 43.9194,196.312 46.5,199.5C 47.2283,201.193 48.2283,202.693 49.5,204C 49.2716,204.399 48.9382,204.565 48.5,204.5C 44.9181,202.88 41.9181,200.547 39.5,197.5C 39.9382,197.565 40.2716,197.399 40.5,197C 39.4734,195.134 38.4734,193.3 37.5,191.5 Z"/></g>
<g><path style="opacity:1" fill="#3432bd" d="M 80.5,191.5 C 81.1665,196.681 81.8332,202.015 82.5,207.5C 83.7193,206.737 84.7193,205.737 85.5,204.5C 86.934,206.22 87.7674,208.22 88,210.5C 89,210.833 90,211.167 91,211.5C 91.49,212.793 91.6567,214.127 91.5,215.5C 93.4832,215.157 94.8166,215.824 95.5,217.5C 95.719,218.675 95.3857,219.675 94.5,220.5C 91.4165,220.12 88.9165,218.786 87,216.5C 85.6012,217.227 84.1012,217.727 82.5,218C 84.0589,218.98 85.7256,219.813 87.5,220.5C 87.1667,221.167 86.8333,221.833 86.5,222.5C 87.6016,223.176 88.6016,223.842 89.5,224.5C 87.8333,224.5 86.1667,224.5 84.5,224.5C 83.7659,223.292 83.4326,221.959 83.5,220.5C 82.1667,220.5 80.8333,220.5 79.5,220.5C 79.5,216.167 79.5,211.833 79.5,207.5C 79.8333,202.167 80.1667,196.833 80.5,191.5 Z"/></g>
<g><path style="opacity:1" fill="#4443c2" d="M 116.5,203.5 C 118.706,205.455 120.372,207.788 121.5,210.5C 121.804,211.15 122.137,211.817 122.5,212.5C 120.316,214.092 117.982,215.426 115.5,216.5C 115,217.5 114.5,218.5 114,219.5C 113.667,219.167 113.333,218.833 113,218.5C 110.887,220.271 111.053,221.771 113.5,223C 111.292,223.191 109.292,223.691 107.5,224.5C 101.5,224.5 95.5,224.5 89.5,224.5C 88.6016,223.842 87.6016,223.176 86.5,222.5C 86.8333,221.833 87.1667,221.167 87.5,220.5C 85.7256,219.813 84.0589,218.98 82.5,218C 84.1012,217.727 85.6012,217.227 87,216.5C 88.9165,218.786 91.4165,220.12 94.5,220.5C 95.3857,219.675 95.719,218.675 95.5,217.5C 96.8333,217.5 98.1667,217.5 99.5,217.5C 98.9426,215.051 98.9426,212.718 99.5,210.5C 100.086,210.709 100.586,211.043 101,211.5C 102.399,210.773 103.899,210.273 105.5,210C 104.391,208.187 105.058,207.354 107.5,207.5C 108.452,208.452 109.452,209.452 110.5,210.5C 111.386,209.675 111.719,208.675 111.5,207.5C 112.833,207.5 114.167,207.5 115.5,207.5C 115.433,206.041 115.766,204.708 116.5,203.5 Z"/></g>
<g><path style="opacity:1" fill="#4f4fc1" d="M 132.5,215.5 C 132.5,217.5 132.5,219.5 132.5,221.5C 130.381,221.468 129.048,222.468 128.5,224.5C 121.5,224.5 114.5,224.5 107.5,224.5C 109.292,223.691 111.292,223.191 113.5,223C 111.053,221.771 110.887,220.271 113,218.5C 113.333,218.833 113.667,219.167 114,219.5C 114.5,218.5 115,217.5 115.5,216.5C 117.982,215.426 120.316,214.092 122.5,212.5C 122.137,211.817 121.804,211.15 121.5,210.5C 122.807,209.847 124.14,209.18 125.5,208.5C 126.842,209.902 127.676,209.569 128,207.5C 128.182,210.226 128.682,212.893 129.5,215.5C 131.136,204.913 132.136,204.913 132.5,215.5 Z"/></g>
<g><path style="opacity:1" fill="#3e3aa3" d="M 79.5,207.5 C 79.5,211.833 79.5,216.167 79.5,220.5C 80.8333,220.5 82.1667,220.5 83.5,220.5C 83.4326,221.959 83.7659,223.292 84.5,224.5C 83.8333,224.5 83.1667,224.5 82.5,224.5C 81.205,223.512 79.8717,222.512 78.5,221.5C 78.1805,216.637 78.5139,211.97 79.5,207.5 Z"/></g>
</svg>
