<svg xmlns="http://www.w3.org/2000/svg" width="225" height="225" viewBox="0 0 225 225" version="1.1">
	<path fill-opacity="0.216" d="M 0.475 112.500 C 0.478 203.983, 0.576 212.552, 0.990 157.500 C 1.270 120.100, 1.725 90.625, 2 92 C 2.330 93.652, 3.278 94.610, 4.794 94.825 C 6.408 95.054, 6.936 95.646, 6.576 96.825 C 6.294 97.746, 5.548 102.775, 4.918 108 C -0.029 148.985, 20.220 190.323, 54 208.202 C 62.035 212.454, 73.372 217, 75.944 217 C 77.294 217, 77.961 217.813, 78.184 219.727 C 78.737 224.500, 81.278 224.971, 106.500 224.971 C 132.882 224.971, 134.214 224.671, 135 218.564 C 135.481 214.822, 135.733 214.594, 141.753 212.432 C 171.215 201.855, 200.168 171.949, 211.876 140 C 216.990 126.044, 218.347 118.129, 218.651 100.500 C 218.894 86.371, 219.278 82.655, 220.925 78.500 L 222.906 73.500 222.953 149.333 C 222.990 209.539, 223.258 225.081, 224.250 224.750 C 225.238 224.421, 225.553 200.830, 225.754 112.167 C 225.979 12.874, 225.836 0, 224.504 0 C 223.207 0, 222.996 3.399, 222.970 24.750 C 222.948 42.053, 222.633 48.973, 221.920 47.750 C 221.087 46.320, 219.474 46, 213.092 46 L 205.283 46 201.584 40.429 C 196.583 32.896, 183.942 19.816, 177.641 15.654 C 169.626 10.359, 161.504 6.291, 153.159 3.393 C 147.026 1.263, 143.059 0.635, 133.250 0.246 C 121.781 -0.210, 120.999 -0.122, 120.979 1.629 C 120.967 2.658, 120.076 12.725, 119 24 C 117.924 35.275, 117.033 44.837, 117.021 45.250 C 117.010 45.663, 93.923 46, 65.718 46 L 14.436 46 10.492 50.446 C 8.323 52.892, 5.306 57.218, 3.788 60.059 L 1.028 65.225 0.750 32.363 C 0.597 14.288, 0.473 50.350, 0.475 112.500 M 0.483 113 C 0.483 174.875, 0.603 200.188, 0.750 169.250 C 0.897 138.313, 0.897 87.688, 0.750 56.750 C 0.603 25.813, 0.483 51.125, 0.483 113 M 133.116 31.898 C 132.442 36.079, 131.640 40.962, 131.334 42.750 L 130.777 46 153.639 45.837 C 166.212 45.747, 174.025 45.391, 171 45.046 C 166.393 44.520, 165.987 44.327, 168.500 43.859 C 171.098 43.375, 170.897 43.264, 167 43.032 C 162.791 42.781, 162.694 42.714, 165.500 42 C 168.286 41.291, 168.180 41.221, 164 41.019 C 160.648 40.856, 160.094 40.634, 161.826 40.146 L 164.151 39.492 161.686 37.348 C 160.330 36.169, 158.270 34.903, 157.109 34.535 C 155.948 34.166, 154.500 32.934, 153.891 31.797 C 153.150 30.413, 152.550 30.110, 152.073 30.882 C 151.570 31.696, 149.972 31.295, 146.628 29.517 C 144.024 28.133, 141.355 26.997, 140.697 26.994 C 140.039 26.990, 138.339 26.382, 136.920 25.641 L 134.340 24.295 133.116 31.898 M 40.250 95.747 L 27 96.058 26.882 108.279 C 26.816 115.001, 26.874 120.950, 27.010 121.500 C 27.146 122.050, 27.360 123.850, 27.487 125.500 C 27.881 130.639, 29.186 135.329, 30.622 136.765 C 31.380 137.523, 32.010 139.348, 32.022 140.821 C 32.034 142.295, 32.924 144.625, 34 146 C 35.076 147.375, 35.966 148.886, 35.978 149.358 C 36.028 151.287, 40.563 160, 41.517 160 C 42.082 160, 43.434 161.688, 44.520 163.750 C 46.947 168.358, 47.317 168.750, 56.276 176.211 C 60.249 179.520, 63.650 182.626, 63.833 183.114 C 64.017 183.601, 65.142 184.014, 66.333 184.032 C 68.658 184.066, 71.979 186.151, 72.033 187.610 C 72.070 188.637, 79.168 192.165, 79.842 191.491 C 80.394 190.940, 82.923 164.452, 87.433 112 C 88.166 103.475, 88.567 96.162, 88.324 95.750 C 87.908 95.043, 70.317 95.042, 40.250 95.747 M 146.698 95.692 C 146.115 96.647, 144.448 113.087, 143.014 132 C 142.451 139.425, 141.770 147.075, 141.500 149 C 140.401 156.844, 137.974 190.308, 138.468 190.802 C 138.761 191.094, 139.053 190.696, 139.118 189.917 C 139.183 189.138, 139.580 189.850, 140 191.500 L 140.763 194.500 140.958 191.500 L 141.152 188.500 142.500 192 C 143.241 193.925, 143.882 194.753, 143.924 193.839 C 143.996 192.273, 151.228 188, 153.807 188 C 154.454 188, 155.545 187.100, 156.232 186 C 156.919 184.900, 158.203 184, 159.086 184 C 159.968 184, 161.546 183.054, 162.593 181.898 C 163.639 180.741, 165.749 179.147, 167.280 178.355 C 168.812 177.563, 169.838 176.547, 169.560 176.097 C 169.033 175.245, 176.558 168, 177.970 168 C 178.414 168, 179.082 166.375, 179.455 164.389 C 179.900 162.014, 180.794 160.605, 182.066 160.272 C 183.219 159.971, 184 158.901, 184 157.624 C 184 156.445, 184.837 154.959, 185.860 154.320 C 186.882 153.681, 188.012 151.435, 188.371 149.329 C 188.729 147.223, 190.367 143.732, 192.011 141.572 C 194.193 138.704, 195.002 136.544, 195.006 133.572 C 195.009 131.332, 195.446 127.925, 195.977 126 C 196.508 124.075, 197.142 116.537, 197.385 109.250 C 197.819 96.212, 197.791 95.999, 195.663 95.938 C 169.016 95.170, 147.083 95.060, 146.698 95.692 M 22.717 110.750 C 22.496 111.162, 22.649 112.625, 23.058 114 C 23.752 116.337, 23.807 116.288, 23.900 113.250 C 23.996 110.115, 23.555 109.183, 22.717 110.750" stroke="none" fill="black" fill-rule="evenodd"/>
	<path fill-opacity="0.500" d="M 119.584 21.620 C 118.621 33.654, 117.660 44.063, 117.448 44.750 C 117.146 45.729, 106.012 46, 66.168 46 L 15.274 46 10.664 50.928 C 8.128 53.639, 4.692 58.669, 3.027 62.105 C 0.257 67.824, 0 69.230, 0 78.677 C 0 84.378, 0.417 89, 0.930 89 C 1.442 89, 2.005 90.013, 2.180 91.250 C 2.356 92.487, 3.523 93.949, 4.774 94.498 C 6.843 95.405, 6.978 95.902, 6.274 99.998 C 5.848 102.474, 5.512 112.150, 5.527 121.500 C 5.550 136.761, 5.824 139.476, 8.198 148.044 C 9.653 153.293, 11.986 160.172, 13.383 163.332 C 17.342 172.283, 26.316 185.353, 33.296 192.333 C 38.836 197.873, 50.775 207, 52.482 207 C 52.807 207, 50.186 204.299, 46.656 200.997 C 39.636 194.430, 30.772 181.900, 26.496 172.500 C 17.287 152.254, 14.651 124.932, 19.790 103 L 21.548 95.500 55.274 95.237 L 89 94.973 89 97.123 C 89 99.637, 83.934 158.078, 80.724 192.584 C 78.126 220.523, 78.176 222.303, 81.600 223.864 C 84.932 225.382, 126.518 225.413, 130.857 223.900 C 132.726 223.248, 134.220 221.924, 134.522 220.650 C 134.803 219.468, 136.350 202.750, 137.961 183.500 C 139.571 164.250, 141.916 136.463, 143.172 121.750 L 145.456 95 177.146 95 L 208.836 95 213.061 90.250 C 215.412 87.606, 218.539 82.396, 220.114 78.500 L 222.942 71.500 222.971 148.250 C 222.990 198.731, 223.342 225, 224 225 C 225.026 225, 225.259 202.680, 225.309 99.500 C 225.348 18.004, 225.111 0, 224 0 C 223.360 0, 222.995 9.260, 222.985 25.750 C 222.973 47.167, 222.758 51.079, 221.706 49 L 220.441 46.500 175.210 46.240 L 129.980 45.980 130.479 42.240 C 130.754 40.183, 131.448 33.325, 132.021 27 C 132.594 20.675, 133.323 13.755, 133.641 11.621 L 134.219 7.743 142.704 8.431 C 155.422 9.463, 173.453 15.237, 182.456 21.160 C 184.618 22.582, 184.230 21.979, 181.119 19.079 C 175.490 13.833, 164.886 8.037, 153.500 3.985 C 145.999 1.315, 142.571 0.694, 132.917 0.260 L 121.335 -0.261 119.584 21.620 M 0.378 78 C 0.378 84.325, 0.541 86.912, 0.739 83.750 C 0.937 80.587, 0.937 75.412, 0.739 72.250 C 0.541 69.087, 0.378 71.675, 0.378 78" stroke="none" fill="black" fill-rule="evenodd"/>
	<path fill-opacity="0.060" d="M 121.557 1.250 C 121.347 1.938, 120.416 12.175, 119.487 24 C 118.559 35.825, 117.634 45.771, 117.431 46.103 C 117.229 46.434, 94.437 46.497, 66.782 46.243 L 16.500 45.780 12.374 49.362 C 8.729 52.526, 7.183 55.055, 0.836 68.236 C -0.571 71.158, -0.094 83.835, 1.619 89.073 C 2.775 92.609, 3.869 94.180, 5.452 94.577 C 7.649 95.129, 7.655 95.189, 6.255 102.317 C 4.117 113.199, 5.110 134.807, 8.315 147.119 C 13.917 168.643, 27.819 189.953, 43 200.287 L 47.500 203.351 42.309 197.797 C 24.278 178.509, 14.638 150.328, 16.380 122 C 16.735 116.225, 17.809 107.900, 18.766 103.500 L 20.506 95.500 55.316 95.237 L 90.126 94.974 89.560 99.237 C 89.248 101.582, 88.068 114.300, 86.937 127.500 C 85.806 140.700, 83.558 166.014, 81.941 183.753 C 80.323 201.493, 79 217.344, 79 218.978 C 79 224.358, 81.937 225, 106.546 225 C 132.628 225, 133.426 224.753, 134.477 216.341 C 134.998 212.168, 134.800 210.657, 133.572 209.429 C 132.143 208, 132 208.051, 132 209.988 C 132 211.159, 132.450 211.840, 133 211.500 C 133.550 211.160, 134 211.639, 134 212.563 C 134 213.945, 133.732 214.023, 132.500 213 C 131.260 211.971, 131 212.071, 131 213.578 C 131 215.076, 130.777 215.164, 129.750 214.075 C 128.750 213.015, 128.750 212.658, 129.750 212.292 C 130.438 212.040, 131 210.944, 131 209.858 C 131 208.771, 130.550 208.160, 130 208.500 C 129.450 208.840, 129 208.439, 129 207.609 C 129 206.779, 128.213 205.641, 127.250 205.080 C 126.263 204.505, 126.048 204.048, 126.758 204.030 C 128.454 203.989, 126.047 200, 124.327 200 C 123.671 200, 122.849 199.100, 122.500 198 C 122.151 196.900, 121.492 196, 121.036 196 C 120.580 196, 120.151 191.613, 120.084 186.250 C 120.016 180.888, 119.520 176.350, 118.980 176.167 C 117.707 175.734, 117.669 152, 118.943 152 C 119.461 152, 120.072 153.688, 120.302 155.750 C 120.531 157.813, 120.512 156.125, 120.260 152 C 120.009 147.875, 119.397 144.350, 118.901 144.167 C 117.638 143.700, 117.735 120, 119 120 C 119.550 120, 120 118.200, 120 116 C 120 113.800, 119.550 112, 119 112 C 118.450 112, 118 110.200, 118 108 C 118 105.800, 118.450 104, 119 104 C 119.600 104, 120 100, 120 94 C 120 88.500, 120.395 84, 120.879 84 C 121.795 84, 124.350 78.607, 124.014 77.383 C 123.908 76.996, 124.517 76.290, 125.369 75.813 C 126.220 75.337, 126.662 74.284, 126.351 73.474 C 126.040 72.663, 126.284 72, 126.893 72 C 127.502 72, 128.003 71.438, 128.006 70.750 C 128.010 70.063, 129.406 68.707, 131.109 67.738 C 133.108 66.600, 134.003 65.450, 133.635 64.491 C 133.249 63.485, 134.325 62.365, 136.979 61.011 C 139.132 59.913, 141.271 58.339, 141.732 57.514 C 142.194 56.688, 143.783 55.913, 145.262 55.790 C 146.741 55.668, 148.149 55.053, 148.391 54.424 C 148.632 53.795, 150.891 52.761, 153.410 52.127 C 155.930 51.492, 157.881 50.473, 157.746 49.862 C 157.611 49.250, 158.063 48.544, 158.750 48.292 C 159.438 48.040, 160 48.321, 160 48.917 C 160 49.514, 161.795 50, 164 50 C 166.200 50, 168 49.576, 168 49.057 C 168 48.539, 169.912 47.943, 172.250 47.732 C 174.588 47.522, 166.037 47.271, 153.250 47.175 L 130 47 130.003 43.250 C 130.008 37.232, 132.887 8.992, 133.616 7.812 C 135.313 5.067, 160.066 9.491, 171.871 14.650 C 179.621 18.036, 176.502 14.782, 167.796 10.397 C 153.700 3.298, 141.741 0.038, 129.719 0.015 C 124.352 0.005, 121.819 0.388, 121.557 1.250 M 223.985 26.250 C 223.976 41.470, 223.562 53.130, 223 54 C 222.254 55.154, 222.024 54.807, 222 52.500 C 221.983 50.850, 221.636 48.975, 221.227 48.334 C 220.514 47.212, 203.990 45.932, 204 47 C 204.003 47.275, 200.066 47.441, 195.252 47.370 C 190.439 47.298, 188.075 47.413, 190 47.626 C 193.800 48.045, 198.015 49.150, 207.860 52.305 C 213.105 53.987, 214.569 54.126, 216.214 53.098 C 217.845 52.080, 218.059 52.094, 217.383 53.176 C 216.928 53.904, 216.467 55.088, 216.358 55.806 C 216.196 56.880, 216.456 56.880, 217.830 55.806 C 218.749 55.088, 219.831 54.050, 220.235 53.500 C 220.695 52.873, 220.975 52.948, 220.985 53.700 C 220.993 54.360, 220.213 55.365, 219.250 55.932 C 217.725 56.831, 217.693 57.090, 219 57.945 C 220.096 58.663, 220.654 58.485, 221.075 57.286 C 222.963 51.904, 223.503 67.574, 224.011 142.500 L 224.573 225.500 224.787 112.750 C 224.904 50.737, 224.775 0, 224.500 0 C 224.225 0, 223.993 11.813, 223.985 26.250 M 180.750 47.662 C 181.438 47.940, 182.563 47.940, 183.250 47.662 C 183.938 47.385, 183.375 47.158, 182 47.158 C 180.625 47.158, 180.063 47.385, 180.750 47.662" stroke="none" fill="black" fill-rule="evenodd"/>
	<path fill-opacity="0.532" d="M 121.588 4.250 C 121.295 6.588, 120.584 14.800, 120.010 22.500 C 119.436 30.200, 118.706 38.638, 118.389 41.250 L 117.812 46 123.406 46 C 127.215 46, 129 45.601, 128.999 44.750 C 128.993 37.984, 132.539 7.331, 133.394 6.753 C 136.040 4.966, 160.556 8.971, 168.827 12.543 C 176.686 15.936, 172.234 12.673, 163.185 8.408 C 153.063 3.636, 138.473 0, 129.452 0 L 122.123 0 121.588 4.250 M 10.773 51.812 C 5.580 57.363, 5.020 58.323, 2.075 66.715 C -0.104 72.926, -0.595 82.696, 1.107 86 C 1.532 86.825, 2.144 88.753, 2.468 90.285 C 2.817 91.942, 3.994 93.427, 5.370 93.951 L 7.684 94.830 6.282 103.165 C 3.722 118.378, 5.832 141.831, 11.012 155.739 C 17.335 172.714, 28.749 189.175, 40.500 198.263 L 44.500 201.357 40.500 196.992 C 38.300 194.591, 35.938 192.004, 35.250 191.242 C 34.563 190.480, 34 189.471, 34 189 C 34 188.529, 33.346 187.489, 32.546 186.689 C 30.535 184.678, 23.258 170.062, 21 163.500 C 15.801 148.390, 14.185 122.925, 17.379 106.451 C 18.345 101.473, 19.489 96.826, 19.924 96.123 C 20.525 95.150, 27.722 94.735, 50.061 94.385 C 66.202 94.132, 79.607 93.727, 79.849 93.484 C 80.092 93.241, 79.213 92.612, 77.895 92.085 C 76.578 91.558, 75.950 91.091, 76.500 91.048 C 77.050 91.005, 76.825 90.533, 76 90 C 74.831 89.245, 75.107 89.027, 77.250 89.015 C 79.979 89, 80 88.949, 80 82.189 C 80 76.759, 80.406 74.941, 82 73.230 C 83.219 71.921, 84 69.701, 84 67.542 C 84 64.667, 84.376 64, 86 64 C 87.259 64, 88 63.333, 88 62.200 C 88 61.210, 88.481 59.919, 89.069 59.331 C 89.657 58.743, 90.258 57.415, 90.404 56.381 C 90.550 55.346, 91.869 53.913, 93.335 53.195 C 94.820 52.468, 96 51.055, 96 50.003 C 96 48.509, 96.886 48.035, 100.250 47.732 C 102.587 47.522, 84.424 47.271, 59.887 47.175 L 15.274 47 10.773 51.812 M 86.079 142.583 C 86.127 143.748, 86.364 143.985, 86.683 143.188 C 86.972 142.466, 86.936 141.603, 86.604 141.271 C 86.272 140.939, 86.036 141.529, 86.079 142.583 M 85.158 151 C 85.158 152.375, 85.385 152.938, 85.662 152.250 C 85.940 151.563, 85.940 150.438, 85.662 149.750 C 85.385 149.063, 85.158 149.625, 85.158 151 M 84.195 161.500 C 84.215 163.150, 84.439 163.704, 84.693 162.731 C 84.947 161.758, 84.930 160.408, 84.656 159.731 C 84.382 159.054, 84.175 159.850, 84.195 161.500 M 81.580 190.881 C 81.207 194.666, 81.210 198.989, 81.586 200.489 C 81.963 201.988, 81.828 203.504, 81.287 203.857 C 80.745 204.211, 80.013 208.356, 79.659 213.069 L 79.016 221.637 82.542 223.319 C 84.556 224.279, 88.305 224.966, 91.284 224.921 C 94.153 224.878, 95.925 224.611, 95.223 224.329 C 94.521 224.046, 93.049 222.057, 91.953 219.908 C 90.856 217.758, 89.616 216, 89.195 216 C 87.976 216, 85 210.393, 85 208.096 C 85 205.810, 83.456 205.245, 82.687 207.250 C 82.424 207.938, 82.365 202.988, 82.558 196.250 C 82.750 189.512, 82.761 184, 82.583 184 C 82.404 184, 81.953 187.097, 81.580 190.881 M 85 216.393 C 85 216.609, 85.698 217.054, 86.552 217.382 C 87.442 217.723, 87.843 217.555, 87.493 216.989 C 86.906 216.038, 85 215.583, 85 216.393 M 86 220 C 86 220.550, 86.450 221, 87 221 C 87.550 221, 88 220.550, 88 220 C 88 219.450, 87.550 219, 87 219 C 86.450 219, 86 219.450, 86 220" stroke="none" fill="black" fill-rule="evenodd"/>
</svg>