<svg xmlns="http://www.w3.org/2000/svg" width="256" height="256" viewBox="0 0 256 256" version="1.1">
	<path fill-opacity="0.271" d="M 136 60.785 L 136 109.571 153.974 119.035 C 163.860 124.241, 171.960 128.955, 171.974 129.510 C 171.988 130.066, 163.899 154.814, 153.998 184.505 C 144.097 214.197, 136.110 238.803, 136.248 239.187 C 136.387 239.570, 157.200 228.053, 182.500 213.594 C 230.857 185.958, 231.693 185.365, 233.984 177.118 C 235.387 172.067, 235.330 77.730, 233.921 72.656 C 233.334 70.541, 231.424 67.287, 229.677 65.423 C 226.492 62.027, 140.029 12, 137.344 12 C 136.237 12, 136 20.596, 136 60.785 M 78 41.629 C 53.525 55.660, 32.444 68.122, 31.153 69.320 C 29.862 70.519, 27.949 73.170, 26.903 75.210 C 25.105 78.716, 25 81.766, 25 130.500 C 25 179.292, 25.103 182.280, 26.908 185.790 C 27.958 187.830, 30.096 190.667, 31.658 192.094 C 33.221 193.520, 53.175 205.277, 76 218.221 C 122.048 244.334, 121.440 244, 122.934 244 C 123.674 244, 124 229.080, 124 195.222 L 124 146.444 105.575 136.687 L 87.150 126.930 90.036 118.395 C 91.622 113.700, 99.749 89.078, 108.095 63.680 C 116.441 38.281, 123.461 17.163, 123.694 16.750 C 123.927 16.337, 123.754 16.026, 123.309 16.058 C 122.864 16.091, 102.475 27.597, 78 41.629" stroke="none" fill="black" fill-rule="evenodd"/>
	<path fill-opacity="0.242" d="M 136.011 60.633 L 136.022 109.500 154.009 119 C 163.902 124.225, 171.997 128.916, 171.998 129.424 C 171.999 129.932, 163.880 154.850, 153.956 184.797 C 144.032 214.744, 136.045 239.366, 136.206 239.513 C 136.368 239.660, 157.200 227.974, 182.500 213.544 C 226.687 188.342, 228.618 187.117, 231.500 182.484 L 234.500 177.660 234.796 128.080 C 235.110 75.428, 234.879 72.165, 230.433 66.328 C 228.739 64.103, 214.851 55.631, 183.942 37.967 C 159.700 24.113, 138.996 12.550, 137.933 12.272 C 136.042 11.778, 136 12.819, 136.011 60.633 M 77.842 41.841 C 53.280 55.953, 32.179 68.400, 30.951 69.500 C 29.723 70.600, 27.891 73.300, 26.881 75.500 C 25.175 79.215, 25.044 83.129, 25.044 130.500 C 25.044 177.972, 25.172 181.777, 26.890 185.500 C 27.905 187.700, 29.808 190.485, 31.118 191.689 C 34.045 194.378, 120.939 244, 122.721 244 C 123.742 244, 123.998 234.182, 123.989 195.250 L 123.978 146.500 106.877 137.500 C 97.472 132.550, 89.149 128.050, 88.381 127.500 C 87.233 126.678, 90.263 116.672, 105.412 71.250 C 115.548 40.862, 123.539 16.041, 123.170 16.091 C 122.802 16.141, 102.404 27.728, 77.842 41.841" stroke="none" fill="black" fill-rule="evenodd"/>
	<path fill-opacity="0.141" d="M 78.494 41.622 C 53.747 55.714, 32.428 68.201, 31.118 69.372 C 28.072 72.094, 25.044 78.638, 25.044 82.500 C 25.044 87.386, 28.497 93.623, 33.013 96.894 C 35.304 98.554, 45.576 104.498, 55.839 110.104 C 66.103 115.709, 77.270 121.818, 80.655 123.680 L 86.809 127.065 105.324 71.533 C 115.506 40.990, 123.759 16, 123.663 16 C 123.567 16, 103.241 27.530, 78.494 41.622 M 154.299 184.236 C 144.288 214.593, 136.188 239.496, 136.299 239.575 C 136.489 239.712, 207.973 198.995, 222.405 190.530 C 230.489 185.788, 234.167 180.508, 234.167 173.643 C 234.167 168.345, 231.085 161.899, 227.273 159.221 C 222.964 156.195, 173.650 128.913, 172.681 129.020 C 172.581 129.031, 164.310 153.878, 154.299 184.236" stroke="none" fill="black" fill-rule="evenodd"/>
	<path fill-opacity="0.273" d="M 26.016 86.702 C 26.025 87.141, 27.050 89.297, 28.294 91.493 C 30.952 96.185, 34.558 98.488, 64.798 114.809 C 76.970 121.379, 86.447 125.917, 86.915 125.402 C 87.366 124.906, 88.439 122.372, 89.299 119.770 L 90.865 115.041 86.682 113.932 C 64.378 108.022, 36.425 96.053, 29.750 89.554 C 27.688 87.547, 26.007 86.263, 26.016 86.702 M 170.622 135.214 C 169.782 138.081, 169.201 140.535, 169.333 140.666 C 169.465 140.798, 174.731 142.471, 181.036 144.385 C 204.991 151.656, 222.206 159.383, 229.568 166.170 C 233.856 170.122, 233.949 170.155, 232.947 167.367 C 231.448 163.199, 229.018 160.624, 222.915 156.739 C 215.377 151.941, 174.643 130, 173.273 130 C 172.656 130, 171.463 132.346, 170.622 135.214" stroke="none" fill="black" fill-rule="evenodd"/>
</svg>