<?xml version="1.0"?><svg xmlns="http://www.w3.org/2000/svg" width="36" height="36" shape-rendering="geometricPrecision" text-rendering="geometricPrecision" image-rendering="optimizeQuality" fill-rule="evenodd" clip-rule="evenodd" viewBox="0 0 36 36"><path fill="#fbfcfb" d="m-0.1-0.1h36v36h-36v-36z"></path><path fill="#919190" d="m13.2 2.4v-0.1c0.3-0.1 0.5-0.1 0.8 0-0.3 0-0.5 0-0.8 0.1z"></path><path fill="#3b3b3c" d="m23.2 2.2c0.3 0 0.4 0.1 0.2 0.3-0.1-0.1-0.2-0.2-0.2-0.3z"></path><path fill="#7f7f7f" d="m30.8 2.2h0.3c-0.1 0.4-0.2 0.4-0.3 0z"></path><path fill="#a0a0a0" d="m3.3 2.4v-0.1c0.4-0.1 0.7-0.1 1-0.1 0.2 0.2 0.2 0.4 0 0.6-0.2-0.5-0.5-0.6-1-0.4z"></path><path fill="#545555" d="m4.9 2.2c0.1 0.2 0.2 0.5 0.2 0.8l-0.1 0.9c-0.1-0.6-0.1-1.1-0.1-1.7z"></path><path fill="#696a6b" d="m9.1 2.2c0.1 0.2 0.1 0.3-0.2 0.3 0-0.1 0.1-0.2 0.2-0.3z"></path><path fill="#121214" d="m13.2 2.3v0.1c-0.3 0.5-0.3 0.9 0 1.4v0.1c-0.3-0.2-0.5-0.5-0.4-0.9 0-0.3 0.1-0.6 0.4-0.7z"></path><path fill="#a6a6a6" d="m28 2.4v-0.1c0.3-0.1 0.6-0.1 1-0.1 0.1 0.2 0.1 0.4 0 0.6-0.3-0.5-0.6-0.6-1-0.4z"></path><path fill="#161718" d="m3.3 2.3v0.1c-0.2 0.4-0.3 0.9-0.1 1.4-0.3-0.2-0.4-0.4-0.3-0.7-0.1-0.4 0.1-0.6 0.4-0.8z"></path><path fill="#919293" d="m14.2 2.1c0.2 0.2 0.2 0.4 0.1 0.7-0.2-0.3-0.2-0.5-0.1-0.7z"></path><path fill="#121214" d="m28 2.3v0.1c-0.3 0.5-0.3 0.9 0 1.4v0.1c-0.5-0.3-0.6-0.7-0.4-1.3 0.1-0.1 0.2-0.2 0.4-0.3z"></path><path fill="#3b3c3c" d="m8.3 2.9c0.2 0 0.2 0.1 0.1 0.3-0.1-0.1-0.2-0.2-0.1-0.3z"></path><path fill="#eeefee" d="m12.8 3c-0.1 0.4 0.1 0.7 0.4 0.9v0.1c-0.1 0.1-0.2 0.3-0.3 0.4-0.1-0.1-0.2 0 0 0.2-0.2 0.1-0.3 0.1-0.5 0.2l-0.5-0.6c-0.2-0.1-0.4-0.1-0.6 0 0-0.1 0.1-0.2 0.1-0.3v-0.1c0.2-0.1 0.3-0.2 0.4-0.3 0-0.2 0-0.4 0.1-0.6-0.3 0.2-0.5 0.3-0.7 0.5-0.1-0.2-0.1-0.3-0.1-0.5-0.1 0-0.2 0-0.4 0 0.3 0.3 0.4 0.6 0.5 1 0 0.2-0.1 0.4-0.3 0.5-0.2-0.2-0.3-0.2-0.3 0.2 0.2 0 0.4-0.1 0.6-0.2-0.1 0.2-0.3 0.3-0.6 0.3-0.2 0-0.5-0.1-0.6-0.3 0.4-0.2 0.4-0.4 0-0.5 0 0 0 0 0.1-0.1-0.1-0.3-0.2-0.7-0.2-1-0.1 0.3-0.1 0.6-0.1 1 0-0.3-0.1-0.5-0.2-0.8-0.1 0-0.1 0.1-0.1 0.2-0.1-0.1-0.2-0.1-0.3-0.1 0-0.1-0.1-0.2-0.1-0.2-0.2 0.3-0.2 0.6 0 1 0 0 0.1-0.1 0.1-0.1 0 0 0.1 0 0.1 0.1-0.2 0.1-0.3 0.1-0.5 0.1 0.1-0.4 0-0.8-0.1-1.1 0.1-0.1 0.2-0.2 0.4-0.2-0.1 0-0.1-0.1-0.2-0.2 0.3 0 0.3-0.1 0.2-0.3 0.2-0.1 0.3-0.1 0.4 0.2 0-0.4 0.2-0.4 0.5-0.1 0.1 0.1 0.1 0.3 0.1 0.5 0.5 0.1 0.9 0 1.3-0.3 0.3 0 0.5-0.1 0.7-0.1 0.3 0.3 0.5 0.7 0.5 1.1 0-0.2 0.1-0.4 0.2-0.5z"></path><path fill="#060609" d="m10 3.9c-0.1 0-0.2-0.1-0.2-0.1 0-0.4 0-0.7 0.1-1 0 0.3 0.1 0.7 0.2 1-0.1 0.1-0.1 0.1-0.1 0.1z"></path><path fill="#f1f1f1" d="m19 3c0.1 0.2 0.1 0.5 0 0.8h-0.4v-0.8h0.4z"></path><path fill="#252526" d="m26.3 3c0 0 0.1 0 0.1 0.1 0.1 0.3 0.1 0.6 0.1 0.9-0.1 0-0.2 0-0.3-0.1 0.1-0.3 0.1-0.6 0.1-0.9z"></path><path fill="#1a1a1b" d="m5.5 3c0-0.2 0.1-0.2 0.2 0 0.1 0.3 0.1 0.6 0 0.9l-0.1-0.8c0-0.1-0.1-0.1-0.1-0.1z"></path><path fill="#121314" d="m7.9 2.9v0.1c0 0.3 0 0.6 0 0.9 0-0.3-0.1-0.7-0.2-1 0.1 0 0.1 0 0.2 0z"></path><path fill="#474746" d="m9.2 3.1v0.7c0 0-0.1 0.1-0.1 0.1-0.2-0.4-0.2-0.7 0-1 0 0 0.1 0.1 0.1 0.2z"></path><path fill="#cbcbca" d="m21.3 2.5c0.2 0.3 0.4 0.5 0.6 0.8 0.1-0.1 0.1-0.2 0.2-0.3 0 0.3 0.1 0.5 0.5 0.5 0.1 0.1 0.1 0.2 0.1 0.4-0.1 0.1-0.2 0.1-0.3 0.2-0.1-0.1-0.3-0.1-0.4-0.1 0-0.6-0.1-0.7-0.3-0.2 0-0.1 0-0.3-0.1-0.4-0.3 0-0.5-0.2-0.6-0.4 0.1-0.2 0.2-0.3 0.3-0.5z"></path><path fill="#0d0d0f" d="m24.2 3.1c-0.1 0.2-0.1 0.4-0.1 0.7-0.1-0.2-0.1-0.5-0.1-0.7 0.1-0.2 0.2-0.2 0.2 0z"></path><path fill="#0e0f11" d="m29.6 3.1c-0.1 0.2-0.1 0.4-0.1 0.7-0.1-0.3-0.1-0.5 0-0.8 0.1 0 0.1 0 0.1 0.1z"></path><path fill="#1b1c1d" d="m30.9 2.9c0.1 0.1 0.2 0.3 0.2 0.5l-0.1 0.5c-0.1-0.3-0.2-0.7-0.1-1z"></path><path fill="#232425" d="m11.2 3.4c0 0.2 0.1 0.3 0.2 0.4v0.1h-0.2c-0.1-0.4-0.2-0.7-0.5-1 0.2 0 0.3 0 0.4 0 0 0.2 0 0.3 0.1 0.5z"></path><path fill="#696969" d="m15.4 3.9h0.1c-0.1 0.1-0.1 0.1-0.3 0.1-0.5-0.1-0.6-0.4-0.5-0.9 0.1-0.1 0.2-0.2 0.3-0.2-0.1 0.3-0.1 0.6 0 0.9 0.1 0.1 0.2 0.1 0.4 0.1z"></path><path fill="#b3b3b2" d="m19.1 2.9c-0.1 0-0.1 0-0.1 0.1h-0.4v0.8h0.4c0 0 0 0.1 0.1 0.1-0.2 0.1-0.3 0.1-0.5 0.1v0.6h-0.3v-1.6c-0.1 0-0.1-0.1-0.1-0.1 0.3-0.2 0.6-0.2 0.9 0z"></path><path fill="#020304" d="m18.3 3c0-0.1 0-0.1 0.1-0.1 0.1 0.5 0.1 1 0 1.5 0-0.5 0-1-0.1-1.4z"></path><path fill="#323233" d="m30.3 3.8h-0.1c0-0.3 0-0.6 0.1-0.8 0.1 0.2 0.2 0.5 0 0.8z"></path><path fill="#7999aa" d="m11.4 3.8c-0.1-0.1-0.2-0.2-0.2-0.4 0.2-0.2 0.4-0.3 0.7-0.5-0.1 0.2-0.1 0.4-0.1 0.6-0.1 0.1-0.2 0.2-0.4 0.3z"></path><path fill="#323334" d="m19 3c0-0.1 0-0.1 0.1-0.1h0.1c0.1 0.3 0.1 0.6 0.1 0.9l-0.2 0.1c-0.1 0-0.1-0.1-0.1-0.1 0.1-0.3 0.1-0.6 0-0.8z"></path><path fill="#3a3c3d" d="m25.5 2.9c0.1 0 0.2 0 0.3 0.1-0.1 0.3-0.1 0.6-0.2 0.9-0.1-0.3-0.2-0.7-0.1-1z"></path><path fill="#8d8d8c" d="m23.6 3.8c0.1 0.2 0 0.2-0.3 0.2l-0.2-0.7c0.2-0.1 0.2-0.3 0-0.4 0.2-0.1 0.3-0.2 0.5-0.1v1z"></path><path fill="#303132" d="m24.8 3.9h-0.1c0.1-0.3 0.1-0.6 0.2-0.9 0.2 0.3 0.2 0.6-0.1 0.9z"></path><path fill="#8a8a89" d="m3.2 3.8c0.3 0.1 0.7 0.1 1 0-0.1 0.1-0.3 0.2-0.5 0.2-0.2 0-0.4-0.1-0.5-0.2z"></path><path fill="#616262" d="m6.7 4c-0.3 0-0.5-0.1-0.5-0.5 0.1 0 0.2 0 0.2-0.1 0.1 0.3 0.1 0.4 0.3 0.6z"></path><path fill="#939393" d="m13.2 3.8c0.3 0.1 0.6 0.1 0.9 0-0.3 0.2-0.6 0.2-0.9 0.2v-0.2z"></path><path fill="#818181" d="m24.2 3.1c0 0.2 0 0.4 0.1 0.7 0.1 0.1 0.2 0.1 0.4 0.1h0.1v0.1c-0.3 0-0.5 0-0.7-0.2 0-0.3 0-0.5 0.1-0.7z"></path><path fill="#929292" d="m28 3.8c0.3 0.1 0.6 0.1 0.9 0-0.3 0.2-0.6 0.2-0.9 0.1v-0.1z"></path><path fill="#8c8c8c" d="m29.6 3.1c0 0.2 0 0.4 0.1 0.7 0.2 0.1 0.3 0.1 0.5 0h0.1c-0.1 0.1-0.2 0.2-0.4 0.2-0.2 0-0.3-0.1-0.4-0.2 0-0.3 0-0.5 0.1-0.7z"></path><path fill="#828282" d="m31.7 2.9c0.1 0 0.2 0 0.2 0.1 0.1 0.3 0.1 0.6 0.2 0.9-0.2 0.1-0.4 0.1-0.5 0 0.1-0.3 0.1-0.7 0.1-1z"></path><path fill="#7d7d7d" d="m32.1 3c0.2-0.2 0.3-0.2 0.5 0 0.1 0.3 0.2 0.6 0.3 0.9-0.2 0.1-0.4 0.1-0.6 0 0.1-0.3 0.2-0.6 0.2-0.9h-0.4z"></path><path fill="#e2e2e2" d="m7 3c0.3-0.1 0.5-0.2 0.7-0.2 0.1 0 0.2 0 0.2 0.1-0.1 0-0.1 0-0.2 0 0.1 0.3 0.2 0.7 0.2 1 0-0.3 0-0.6 0-0.9 0.1 0.3 0.2 0.6 0.3 0.9l-0.7 0.1c0.2 0.1 0.3 0.1 0.5 0.2 0.2 0 0.2 0 0 0.2-0.3-0.3-0.5-0.3-0.8 0-0.2-0.1-0.3-0.3-0.5-0.4-0.2-0.2-0.2-0.3-0.3-0.6 0 0.1-0.1 0.1-0.2 0.1-0.1-0.1-0.1-0.2 0.2-0.2-0.2-0.2-0.1-0.4 0.1-0.5 0.2-0.1 0.4 0 0.5 0.2z"></path><path fill="#343638" d="m7 3c0.2 0.3 0.2 0.6 0 0.9-0.1-0.3-0.1-0.6 0-0.9z"></path><path fill="#faf9ef" d="m21.3 1.7c0-0.1-0.1-0.2-0.3-0.2-0.4 0.1-0.8 0.1-1.3 0 0.1 0.5-0.1 0.6-0.5 0.5-0.1 0.3-0.1 0.5 0 0.9h-0.1c-0.3-0.2-0.6-0.2-0.9 0 0 0 0 0.1 0.1 0.1v1.6h0.3v-0.6c0.2 0 0.3 0 0.5-0.1l0.2-0.1c0.1 0.1 0.1 0.2 0.2 0.4 0.1 0 0.2-0.1 0.2-0.2h0.4c0 0.1 0 0.2 0.2 0.3 0.1-0.1 0.1-0.2 0.1-0.3 0.2 0 0.3-0.1 0.4-0.2 0.3 0.2 0.8 0.3 1.2 0.5 0.1 0.1 0.1 0.1 0 0.2 0.1 0 0.3 0.1 0.4 0.2l0.1-0.3c0.2 0.2 0.3 0.4 0.4 0.6 0.1-0.1 0.1-0.2 0.2-0.3 0.1 0.2 0.2 0.4 0.1 0.6h-0.4c0.1 0.3 0.2 0.5 0.4 0.7-0.1 0.5-0.4 0.8-0.8 1.1l-0.2 0c0.3-0.1 0.3-0.2 0-0.3-0.1-0.3-0.2-0.4-0.5-0.5l-0.8-0.1c-0.2-0.4-0.2-0.8 0-1.2-0.1 0-0.3 0-0.4 0.1l0.1 0.1c-0.1 0-0.1 0.1-0.2 0.1-0.3-0.1-0.4-0.2-0.4-0.5 0 0-0.1 0.1-0.1 0.1l-0.3-0.3c-0.2 0.1-0.3 0.3-0.2 0.6-0.1 0.1-0.2 0.2-0.2 0.3 0.1 0.2 0.2 0.4 0.2 0.6h-0.6c0-0.3-0.1-0.6-0.2-0.9-0.1 0.1-0.3 0.2-0.4 0.3 0.1 0.3 0.1 0.5-0.1 0.7-0.3-0.4-0.7-0.5-1.2-0.3 0 0.2 0 0.5-0.1 0.7-0.2-0.1-0.4-0.2-0.7-0.1v0.5c0.3 0 0.5 0 0.8-0.1 0.1 0 0.2 0.1 0.3 0.2-0.4 0.1-0.7 0.2-1.1 0.3 0.1 0 0.2 0.1 0.3 0.2-0.2 0.2-0.3 0.4-0.3 0.7h-0.5c0-0.2 0.2-0.4 0.3-0.6 0-0.1-0.1-0.1-0.2-0.2 0.1 0 0.2-0.1 0.2-0.2-0.6-0.1-1.1-0.3-1.4-0.6l0.1-0.1c-0.2-0.2-0.3-0.5-0.4-0.8-0.3 0-0.6 0-0.9 0-0.2 0-0.3 0.1-0.5 0.2-0.1-0.1-0.2-0.2-0.3-0.4 0.3-0.2 0.6-0.3 0.9-0.3 0-0.2 0.1-0.4 0.3-0.5 0.2 0.1 0.3 0.3 0.5 0.4 0.1-0.1 0.2-0.3 0.2-0.5 0.1 0.1 0.3 0.1 0.4 0 0.1-0.3 0.3-0.5 0.4-0.7 0.2 0 0.2 0 0.3-0.1 0.2-0.3 0.3-0.6 0-0.9 0 0.3-0.1 0.6-0.1 0.9-0.2 0-0.3 0-0.4-0.1-0.1-0.3-0.1-0.6 0-0.9-0.1 0-0.2 0.1-0.3 0.2-0.1-0.1-0.2-0.1-0.4-0.2 0.1-0.3 0.2-0.3 0.3 0 0.2-0.4 0.2-0.8 0.2-1.2-0.1 0.1-0.2 0-0.3 0 0.2-0.2 0.4-0.3 0.7-0.4 1.9 0.1 3.9 0.1 5.8 0 0.2 0.1 0.4 0.2 0.5 0.4 0 0-0.1 0.1-0.2 0z"></path><path fill="#878786" d="m17.2 3c0.2-0.2 0.4-0.1 0.6 0.1 0 0.3 0.1 0.6 0.1 0.8-0.1 0.1-0.3 0.1-0.5 0 0.1-0.3 0.1-0.6 0.1-0.9h-0.3z"></path><path fill="#424343" d="m15.5 3.9h-0.1c0-0.3 0.1-0.6 0.1-0.9 0.3 0.3 0.2 0.6 0 0.9z"></path><path fill="#242527" d="m16.5 3c0.1-0.2 0.3-0.2 0.4 0 0.2 0.3 0.2 0.6 0 0.9-0.1-0.3-0.1-0.6-0.1-0.9h-0.3z"></path><path fill="#434343" d="m16.1 2.9c0.2 0.1 0.3 0.3 0.3 0.5l-0.1 0.5c-0.2-0.3-0.2-0.7-0.2-1z"></path><path fill="#8c8c8c" d="m11.2 3.9h0.2c0 0.1-0.1 0.2-0.1 0.3l-0.1 0.2c-0.2 0.1-0.4 0.2-0.6 0.2 0-0.4 0.1-0.4 0.3-0.2 0.2-0.1 0.3-0.3 0.3-0.5z"></path><path fill="#eeefed" d="m21.3 1.7c-0.1 0.1-0.1 0.1-0.2 0.2 0.5 0.1 0.6 0.3 0.2 0.6-0.1 0.2-0.2 0.3-0.3 0.5-0.1 0.3 0.1 0.5 0.4 0.5 0.1 0.1 0.2 0.2 0.2 0.4 0 0 0.1-0.1 0.1-0.1 0.2-0.5 0.3-0.4 0.3 0.2 0.1 0 0.3 0 0.4 0.1 0.1-0.1 0.2-0.1 0.3-0.2 0.2-0.4 0-0.6-0.4-0.7-0.1-0.1-0.1-0.2-0.1-0.3 0.1-0.2 0.2-0.2 0.4-0.1 0.1 0.2 0.3 0.4 0.5 0.5l0.2 0.7c0 1.1 0.1 2.2 0.3 3.3-0.2 0.4-0.1 0.6 0.4 0.5 0-0.3-0.1-0.4-0.3-0.5 0.1-0.2 0.2-0.2 0.3-0.1l0.4 0.4c0.2-0.1 0.3-0.1 0.5-0.1 0.1 0.2 0.1 0.4 0 0.5-0.2 0-0.5 0-0.8-0.1-0.5 0.3-0.8 0.1-0.8-0.5-0.2 0.2-0.4 0.2-0.5 0-0.5-0.1-0.9 0-1.3 0.4-0.2 0.1-0.5 0.2-0.7 0.1-0.3-0.2-0.5-0.3-0.8-0.1-0.5-0.2-1.1-0.3-1.6-0.3 0.1-0.2 0.3-0.2 0.5-0.2 0.6 0 1.1 0 1.7 0 0.1-0.3 0.2-0.7 0.4-0.9 0.3 0 0.4 0.1 0.5 0.3 0.1 0 0.2-0.1 0.3-0.1 0.1 0.1 0.2 0.2 0.4 0.2 0.3 0.1 0.3 0.2 0 0.3l0.2 0c0.4-0.3 0.7-0.6 0.8-1.1-0.2-0.2-0.3-0.4-0.4-0.7h0.4c0.1-0.2 0-0.4-0.1-0.6-0.1 0.1-0.1 0.2-0.2 0.3-0.1-0.2-0.2-0.4-0.4-0.6l-0.1 0.3c-0.1-0.1-0.3-0.2-0.4-0.2 0.1-0.1 0.1-0.1 0-0.2-0.4-0.2-0.9-0.3-1.2-0.5-0.2-0.3-0.3-0.5-0.4-0.8-0.1 0.3-0.1 0.7 0 1 0 0.1 0 0.2-0.1 0.3-0.2-0.1-0.2-0.2-0.2-0.3-0.2-0.2-0.3-0.3-0.3-0.6-0.2 0.2-0.2 0.4-0.1 0.6 0 0.1-0.1 0.2-0.2 0.2-0.1-0.2-0.1-0.3-0.2-0.4 0-0.3 0-0.6-0.1-0.9-0.1-0.4-0.1-0.6 0-0.9 0.4 0.1 0.6 0 0.5-0.5 0.5 0.1 0.9 0.1 1.3 0 0.2 0 0.3 0.1 0.3 0.2z"></path><path fill="#595958" d="m20.1 4h-0.4c-0.1-0.2-0.1-0.4 0.1-0.6 0 0.3 0.1 0.4 0.3 0.6z"></path><path fill="#55585c" d="m20.8 3.8c-0.1 0.1-0.2 0.2-0.4 0.2-0.1-0.3-0.1-0.7 0-1 0.1 0.3 0.2 0.5 0.4 0.8z"></path><path fill="#0b0b0d" d="m21 3c0.1 0.2 0.3 0.4 0.6 0.4 0.1 0.1 0.1 0.3 0.1 0.4 0 0-0.1 0.1-0.1 0.1 0-0.2-0.1-0.3-0.2-0.4-0.3 0-0.5-0.2-0.4-0.5z"></path><path fill="#1e1f20" d="m22.2 2.9c0 0.1 0 0.2 0.1 0.3 0.4 0.1 0.6 0.3 0.4 0.7 0-0.2 0-0.3-0.1-0.4-0.4 0-0.5-0.2-0.5-0.5 0-0.1 0-0.1 0.1-0.1z"></path><path fill="#1d2024" d="m19.5 2.2c0.2 0 0.3 0 0.4 0.1 0.1 0.3 0 0.6-0.1 0.9-0.5-0.2-0.6-0.6-0.3-1z"></path><path fill="#6d95aa" d="m26.7 5.1h0.5v0.5h-0.5v-0.5z"></path><path fill="#1e2837" d="m25.5 6.5c-0.2 0-0.3 0-0.4-0.1 0-0.4 0-0.7 0-1.1 0.3-0.1 0.5-0.1 0.7 0-0.1 0.4-0.2 0.8-0.3 1.2z"></path><path fill="#62aac5" d="m4.1 6.4h0.6c0 0.5-0.2 0.6-0.7 0.4 0-0.2 0-0.3 0.1-0.4z"></path><path fill="#3f4146" d="m26.2 6.7c0.2 0 0.2 0.1 0.1 0.2-0.1 0-0.2-0.1-0.1-0.2z"></path><path fill="#5ab3db" d="m21.5 6.7v0.4c-0.2 0.1-0.4 0-0.5-0.2 0.1-0.2 0.3-0.2 0.5-0.2z"></path><path fill="#73bbc5" d="m23.6 7.3h0.1c0.2 0.1 0.3 0.2 0.3 0.5-0.5 0.1-0.6-0.1-0.4-0.5z"></path><path fill="#5c656d" d="m11.3 7.4v0.3c-0.6-0.1-0.6-0.2 0-0.3z"></path><path fill="#32435a" d="m9.8 6.9v0.4c0.2 0.3 0.3 0.6 0.4 1-0.4-0.2-0.7-0.3-1.1-0.4-0.1-0.6 0.1-0.9 0.7-1z"></path><path fill="#fafaef" d="m12.5 9.2v0.1c-0.2 0-0.4 0-0.6-0.1-0.2-0.1-0.2-0.1 0-0.2-0.4 0-0.7-0.1-1-0.2-0.1 0.1-0.2 0.2-0.2 0.4-0.7 0.3-0.9 0.1-0.8-0.7l0.1-0.1c0.2 0.5 0.4 0.6 0.7 0.1 0.1 0.1 0.2 0.2 0.4 0.2l-0.1-0.1c0.3-0.3 0.4-0.5 0.3-0.9v-0.3c0.2-0.2 0.3-0.3 0.6-0.3-0.1-0.1-0.2-0.2-0.1-0.3 0.2 0.1 0.3 0.1 0.5 0.1-0.2-0.2-0.3-0.5-0.2-0.8 0.1 0 0.2-0.1 0.3-0.2l0.8 1.2c0 0 0.1 0 0.1-0.1 0.3 0.1 0.5 0.2 0.7 0.3-0.2 0.1-0.1 0.2 0.1 0.2-0.1 0.1-0.1 0.2-0.1 0.3-0.1-0.1-0.2-0.2-0.4-0.3l0.1 0.5c-0.2 0-0.4 0-0.6 0-0.1 0.2-0.1 0.3 0.1 0.4-0.2 0.1-0.3 0.2-0.5 0.3l0.2 0.3c-0.2 0-0.3 0.1-0.4 0.2z"></path><path fill="#7dacc4" d="m22.6 8.4v0.2c-0.2 0-0.3 0.1-0.4 0.1-0.2 0-0.3-0.1-0.3-0.2 0.2-0.1 0.4-0.2 0.7-0.1z"></path><path fill="#2e3b4f" d="m28.5 8.6c0.2 0 0.3 0.1 0.1 0.2-0.1 0-0.1-0.1-0.1-0.2z"></path><path fill="#f7f4ee" d="m24 3.1c0 0.2 0 0.5 0.1 0.7 0.2 0.2 0.4 0.2 0.7 0.2 0.1 0.3 0.2 0.4 0.3 0.1 0.1 0.2 0.3 0.3 0.5 0.4-0.3 0-0.3 0.1-0.2 0.3-0.2 0.1-0.3 0.3-0.3 0.5 0 0.4 0 0.7 0 1.1 0.1 0.1 0.2 0.1 0.4 0.1-0.1 0.1-0.2 0.3-0.4 0.5 0.1 0.1 0.2 0.2 0.4 0.3l-0.1 0.1c0.2-0.1 0.4 0 0.5 0.1-0.2 0.3-0.2 0.6 0 0.8-0.1 0.2-0.3 0.5-0.4 0.7 0.1 0.1 0.1 0.2 0.1 0.3 0 0.1 0 0.2-0.1 0.2-0.1-0.1-0.2-0.1-0.3 0-0.1-0.7-0.2-0.7-0.5-0.1v0.2c-0.2-0.4-0.3-0.4-0.6 0 0.3 0 0.3 0.1 0 0.2 0.1 0.2 0.3 0.4 0.5 0.5l-0.2 0.1 0.1 0.2c-0.5 0.4-0.7 0.3-0.8-0.3-0.3-0.2-0.6-0.4-0.9-0.7 0.2 0 0.5 0 0.8 0 0.1-0.2 0.1-0.3 0-0.5-0.5 0.1-1 0.1-1.5 0 0.2-0.2 0.3-0.3 0.5-0.5v-0.2c-0.1-0.1-0.1-0.1-0.2-0.2 0.3-0.1 0.4-0.3 0.4-0.5h-0.8v0.3c-0.2 0.1-0.5 0.1-0.7 0.3-0.2 0-0.4-0.2-0.5-0.4 0.2 0.1 0.5 0 0.7-0.1 0.4-0.4 0.8-0.5 1.3-0.4 0.1 0.2 0.3 0.2 0.5 0 0 0.6 0.3 0.8 0.8 0.5 0.3 0.1 0.6 0.1 0.8 0.1 0.1-0.1 0.1-0.3 0-0.5-0.2 0-0.3 0-0.5 0.1l-0.4-0.4c-0.1-0.1-0.2-0.1-0.3 0.1h-0.1c-0.2-1.1-0.3-2.2-0.3-3.3 0.3 0 0.4 0 0.3-0.2 0.2-0.2 0.3-0.4 0.4-0.7z"></path><path fill="#38536f" d="m6.1 9.2c0.3 0 0.6 0 0.8 0-0.1 0.3-0.1 0.6-0.1 0.9-0.6-0.1-0.8-0.4-0.7-0.9z"></path><path fill="#eef2ee" d="m12.5 5.6c0.1 0.2 0.2 0.3 0.3 0.4 0.2-0.1 0.3-0.2 0.5-0.2 0.3 0 0.6 0 0.9 0.1 0.1 0.2 0.2 0.5 0.4 0.7l-0.1 0.2c0.3 0.2 0.8 0.4 1.4 0.5 0 0.1-0.1 0.2-0.2 0.2 0.1 0.1 0.2 0.1 0.2 0.2-0.1 0.2-0.3 0.4-0.3 0.6-0.3 0.1-0.6 0.3-0.9 0.4-0.1 0.1-0.1 0.1-0.1 0.2-0.6 0.4-1.2 0.8-1.8 1.2-0.2 0.2-0.3 0.4-0.5 0.6-0.2 0.2-0.3 0.3-0.4 0.5-0.2 0.1-0.2 0.3-0.3 0.4-0.2 0.2-0.3 0.5-0.4 0.7l-0.2 0.2h-0.5c0-0.3-0.2-0.6-0.4-0.9 0-0.1 0-0.2 0.1-0.3 0.2 0.1 0.3 0.2 0.4 0.3 0.1 0 0.2-0.2 0.1-0.3 0.2 0 0.4 0 0.6-0.1-0.3-0.2-0.6-0.4-0.9-0.7 0.2-0.4 0.4-0.9 0.3-1.3 0-0.2 0.1-0.3 0.2-0.4 0.3 0.1 0.6 0.2 1 0.2-0.2 0.1-0.2 0.1 0 0.2 0.2 0.1 0.4 0.1 0.6 0.1 0.1 0.1 0.2 0.1 0.3 0-0.1-0.1-0.2-0.1-0.3-0.1 0.1-0.1 0.2-0.2 0.4-0.2l-0.2-0.3c0.2-0.1 0.3-0.2 0.5-0.3-0.2-0.1-0.2-0.2-0.1-0.4 0.2 0 0.4 0 0.6 0l-0.1-0.5c0.2 0.1 0.3 0.2 0.4 0.3 0-0.1 0-0.2 0.1-0.3-0.2 0-0.3-0.1-0.1-0.2-0.2-0.1-0.4-0.2-0.7-0.3 0 0.1-0.1 0.1-0.1 0.1l-0.8-1.2c-0.1 0.1-0.2 0.2-0.3 0.2-0.3 0-0.4-0.2-0.2-0.4 0.2-0.1 0.4-0.2 0.6-0.1z"></path><path fill="#4e5154" d="m12.1 9.5c0.3 0.1 0.3 0.2 0.2 0.3-0.2 0-0.2-0.2-0.2-0.3z"></path><path fill="#25364b" d="m12.5 9.2c0.1 0 0.2 0 0.3 0.1-0.1 0.1-0.2 0.1-0.3 0v-0.1z"></path><path fill="#34678e" d="m14.3 7.4c0.3 0 0.3 0.1 0.2 0.2-0.1-0.1-0.2-0.1-0.2-0.2z"></path><path fill="#24282b" d="m13.2 5.9c0.5 0 0.7 0.3 0.5 0.7-0.6 0.1-0.7-0.2-0.5-0.7z"></path><path fill="#45b8e9" d="m19.5 8.4c-1 0-1.9 0-2.9 0 0.1 0.2 0 0.3-0.2 0.3-0.2 0-0.3-0.1-0.3-0.2-0.1 0.1-0.1 0.2-0.2 0.3 0.2 0.1 0.4 0.1 0.6 0.2-0.1 0.1-0.2 0.2-0.1 0.4h0.3c0 0.2 0 0.4-0.2 0.5 0.1 0.1 0.2 0.2 0.3 0.3 0 0.3 0.1 0.4 0.2 0.1 0.1 0.1 0.2 0.3 0.3 0.3l2.9-0.1c0.1-0.1 0.1-0.2 0.1-0.3 0.2-0.2 0.3-0.2 0.5 0-0.2 0-0.3 0.1-0.4 0.2l0.7 0.1c0.7-0.1 1.3-0.1 2 0 0-0.1 0.1-0.2 0.1-0.2l0.5 0.4c-0.2 0.1-0.3 0.1-0.3 0.3-2-0.1-4-0.1-6.1 0-0.8-0.3-1.7-0.3-2.6-0.1-0.2 0.4-0.2 0.4-0.2 0-0.3 0.1-0.5 0.2-0.8 0.2-0.4-0.3-0.8-0.3-1.2-0.1-0.1-0.1-0.2-0.1-0.2-0.3 0.2-0.2 0.3-0.4 0.5-0.6 0.6-0.4 1.2-0.8 1.8-1.2 1.6-0.8 3.2-1 4.9-0.5z"></path><path fill="#39bbf7" d="m19.5 8.4c1.3 0.2 2.5 0.8 3.5 1.7 0 0.1-0.1 0.2-0.2 0.2-0.7-0.1-1.4-0.2-2-0.1-0.2-0.2-0.3-0.2-0.5 0-1.1 0-2.3 0-3.5 0-0.1-0.1-0.2-0.2-0.3-0.3 0.2-0.1 0.2-0.3 0.2-0.5h-0.3c-0.1-0.2 0-0.3 0.1-0.4-0.2-0.1-0.4-0.1-0.6-0.2 0.1-0.1 0.1-0.2 0.2-0.3 0 0.1 0.1 0.2 0.3 0.2 0.2 0 0.3-0.1 0.2-0.3 1 0 1.9 0 2.9 0z"></path><path fill="#edf3f4" d="m9.8 6.9c-0.6 0.1-0.8 0.4-0.7 1 0.4 0.1 0.7 0.2 1.1 0.4-0.1-0.4-0.2-0.7-0.4-1 0.2-0.1 0.3-0.2 0.4-0.3 0.4 0.1 0.7 0.2 1 0.2 0.1 0 0.1 0.1 0.1 0.2-0.6 0.1-0.6 0.2 0 0.3 0.1 0.4 0 0.6-0.3 0.9l0.1 0.1c-0.2 0-0.3-0.1-0.4-0.2-0.3 0.5-0.5 0.4-0.7-0.1l-0.1 0.1c-0.1 0.8 0.1 1 0.8 0.7 0.1 0.4-0.1 0.9-0.3 1.3 0.3 0.3 0.6 0.5 0.9 0.7-0.2 0.1-0.4 0.1-0.6 0.1 0.1 0.1 0 0.3-0.1 0.3-0.1-0.1-0.2-0.2-0.4-0.3-0.1 0.1-0.1 0.2-0.1 0.3 0.2 0.3 0.4 0.6 0.4 0.9h0.5c-0.3 0.7-0.5 1.4-0.6 2.1 0-0.2-0.1-0.3-0.3-0.3 0 0.2-0.1 0.4-0.2 0.6l-0.1-0.1c-0.1 0.1-0.3 0.1-0.4 0.2 0.2 0 0.3 0 0.4 0.1l-0.1 0.1c-0.2 0-0.4-0.1-0.6-0.2 0-0.2-0.1-0.5-0.2-0.7h-0.5c0 0.5 0.2 0.6 0.5 0.4-0.2 0.2-0.4 0.4-0.6 0.5 0 0.3 0.1 0.6 0.3 0.8-0.2 0.2-0.5 0.2-0.7 0-0.1 0.3 0 0.5 0.1 0.7 0.2-0.2 0.4-0.1 0.6 0.1 0.2 0.2 0.3 0.5 0.3 0.8 0.1 0.1 0.2 0.1 0.4 0.1 0 0.5-0.1 0.5-0.4 0.2-0.1 0.2-0.3 0.4-0.4 0.6 0.2 0.1 0.3 0.3 0.1 0.5 0.2 0 0.3 0.1 0.1 0.3 0.1 0.1 0.2 0.1 0.2 0.2 0 0.1 0 0.3 0 0.5-0.2 0-0.5 0-0.7 0 0 0.1 0.1 0.2 0.2 0.2 0.2-0.1 0.4-0.1 0.5 0-0.1 0-0.2 0.1-0.2 0.2-0.1 0-0.1-0.1-0.2-0.1-0.2 0.3-0.1 0.5 0.3 0.6 0.1-0.1 0.2-0.2 0.3-0.3 0.1 0.1 0.1 0.1 0 0.2 0.1 0 0.3 0 0.4 0.1-0.2 0-0.4 0.2-0.5 0.4l-0.1-0.1c-0.1 0.1-0.2 0.2-0.3 0.2-0.1 0.1-0.2 0.2-0.3 0.3l0.2 0.5 0.4-0.7c0.1 0.3 0.1 0.6 0 0.9-0.1-0.1-0.2-0.1-0.4 0 0 0.2 0 0.4 0 0.6 0.3-0.1 0.7-0.1 1.1 0-0.1 0.2-0.2 0.4-0.2 0.6-0.5-0.2-1-0.3-1.6-0.3 0-0.2 0-0.3 0.1-0.5 0.2 0.1 0.3 0.1 0.4-0.1-0.2 0-0.4-0.1-0.5-0.3 0.2 0.1 0.3 0.2 0.5 0.2v-0.5h-0.4c0-0.2 0.1-0.4 0.1-0.6 0.2-0.1 0.2-0.3 0-0.5 0.1-0.2 0.2-0.4 0.2-0.6h-0.5c0 0.2 0 0.4 0.1 0.6-0.2-0.2-0.4-0.2-0.7-0.2 0-0.5 0.1-0.6 0.5-0.5 0.1-0.1 0.2-0.2 0.2-0.3 0.2-0.2 0.4-0.3 0.7-0.3-0.1 0-0.2-0.1-0.3-0.2l0.2-0.1-0.2-0.3c0-0.2 0.1-0.2 0.1 0 0.1-0.3 0.1-0.6 0-0.8l0.1-0.2c0.3-0.7 0.1-1-0.6-0.9-0.3 0.3-0.3 0.6 0 0.9l-0.1 0.4c-0.3-0.2-0.4-0.5-0.4-0.9 0 0.1-0.1 0.2 0 0.3-0.2 0.1-0.4 0-0.6 0l0.1-0.1c-0.1-0.1-0.2-0.1-0.2-0.2 0.2-0.1 0.3-0.1 0.5 0v-1.1h-0.3v0.3c-0.1 0-0.1 0.1-0.2 0.1 0-0.4-0.3-0.5-0.6-0.2 0.2 0.2 0.1 0.3-0.2 0.1-0.1-0.1-0.3-0.3-0.5-0.5 0.2-0.1 0.3-0.2 0.5-0.2 0-0.1 0-0.2 0-0.3l0.2 0.1c0.2-0.1 0.3-0.3 0.4-0.5 0 0 0.1 0.1 0.2 0.2 0.1-0.1 0.2-0.2 0.3-0.3l-0.1-0.1 0.8-0.1c0.1-0.2 0-0.4-0.2-0.5l0.2-0.1c-0.3-0.3-0.5-0.5-0.7-0.8 0.2-0.5 0.4-0.5 0.7-0.3 0.1 0.3 0.1 0.5 0.2 0.7 0.2 0 0.4 0 0.6 0.1l0.1-0.1c-0.1-0.1-0.2-0.1-0.3-0.2-0.2-0.3-0.2-0.5 0.1-0.7-0.2-0.1-0.3-0.2-0.4-0.3 0.2 0.1 0.3 0.1 0.4-0.1-0.1-0.1-0.1-0.1-0.3-0.1 0.1-0.1 0.2-0.2 0.4-0.2 0-0.1 0-0.2 0.1-0.4-0.5-0.4-0.8-0.4-0.8 0.2-0.2 0-0.3-0.1-0.3-0.3 0.1-0.2 0.3-0.3 0.5-0.4-0.1-0.3 0-0.6 0.3-0.7v0.3c0.2 0 0.4 0 0.5-0.2-0.1-0.2-0.3-0.3-0.5-0.3h-0.4v-0.3c0.3 0 0.5-0.1 0.8-0.1 0-0.3 0-0.4 0.2-0.2 0.2-0.2 0.1-0.4-0.1-0.5-0.3 0.3-0.7 0.4-1.1 0.3-0.3-0.2-0.3-0.4 0-0.6-0.1-0.1-0.2-0.2-0.3-0.2 0.3-0.2 0.3-0.4 0-0.7 0.1 0 0.3-0.1 0.4-0.2 0-0.1 0-0.2 0-0.4-0.8-0.3-0.7-0.4 0.1-0.3 0-0.2 0-0.3-0.1-0.5-0.1 0.2-0.2 0.2-0.3 0 0.1-0.1 0.3-0.1 0.5-0.1 0.2 0.7 0.3 0.7 0.6 0.1 0.1 0.1 0.1 0.1 0.2 0.1 0-0.4 0.1-0.7 0.3-1.1 0.1 0.2 0.3 0.3 0.5 0.4v-0.4h-0.3v-0.4c0.1-0.1 0.2 0 0.3 0.1 0.1 0.2 0.3 0.4 0.5 0.6-0.2 0.1-0.3 0.3-0.4 0.4 0.1 0.1 0.2 0.1 0.2 0.2z"></path><path fill="#4c5761" d="m9.4 9.4c0.2-0.2 0.4-0.1 0.6 0.1-0.1 0.1-0.2 0.2-0.3 0.2-0.1-0.1-0.2-0.2-0.3-0.3z"></path><path fill="#303f54" d="m7.6 9.3c0.2-0.2 0.4-0.2 0.6 0.1-0.3 0.3-0.5 0.3-0.6-0.1z"></path><path fill="#28292a" d="m7.7 7.8c0.1-0.2 0.2-0.2 0.3-0.1 0 0.1-0.2 0.1-0.3 0.1z"></path><path fill="#333f52" d="m8.9 10.2c0.4 0.1 0.5 0.3 0.2 0.5-0.3-0.1-0.3-0.3-0.2-0.5z"></path><path fill="#6fccea" d="m13.7 10.2c0.8 0 1.7 0 2.7 0 0 0.1 0 0.2-0.1 0.3-0.9 0-1.8 0-2.6 0v-0.3z"></path><path fill="#71d1f0" d="m16.8 10.2c1.2 0 2.4 0 3.5 0 0 0.1 0 0.2-0.1 0.3l-2.9 0.1c-0.1 0-0.2-0.2-0.3-0.3-0.1 0.3-0.2 0.2-0.2-0.1z"></path><path fill="#79d6f4" d="m23 10.1c0.1 0 0.2 0.1 0.2 0.2 0 0-0.1 0.1-0.1 0.2-0.7-0.1-1.3-0.1-2 0l-0.7-0.1c0.1-0.1 0.2-0.2 0.4-0.2 0.6-0.1 1.3 0 2 0.1 0.1 0 0.2-0.1 0.2-0.2z"></path><path fill="#6a6a6a" d="m30.5 10.3c0.3 0 0.3 0.1 0.2 0.2-0.1 0-0.2-0.1-0.2-0.2z"></path><path fill="#484a4f" d="m9.8 10.4c0.3 0 0.3 0.1 0.2 0.2-0.1 0-0.2-0.1-0.2-0.2z"></path><path fill="#050813" d="m7 10.6c0.2 0 0.3 0.1 0.1 0.3 0-0.1-0.1-0.2-0.1-0.3z"></path><path fill="#2c333d" d="m8.2 10.7c0.2 0 0.4 0.1 0.5 0.3-0.1 0.2-0.3 0.2-0.5 0.2v-0.5z"></path><path fill="#70d0f0" d="m12.3 10.7c0 0.2 0.1 0.2 0.2 0.3 0.4-0.2 0.8-0.2 1.2 0.1 0.3 0 0.5-0.1 0.8-0.2 0 0.4 0 0.4 0.2 0 0.9-0.2 1.8-0.2 2.6 0.1 2.1-0.1 4.1-0.1 6.1 0 0-0.2 0.1-0.2 0.3-0.3 0.1 0 0.1 0.1 0.1 0.2 0 0.1-0.1 0.3-0.2 0.4-0.5-0.1-1-0.1-1.5 0-0.2 0-0.3-0.1-0.4-0.2-0.2 0-0.2 0.1 0 0.2l-0.3 0c-1.6 0-3.2 0-4.8 0-0.2 0-0.4-0.1-0.6-0.2-0.1 0.1-0.2 0.2-0.3 0.2-1.2 0-2.5 0-3.8-0.1 0.1-0.2 0.2-0.3 0.4-0.5z"></path><path fill="#3b526c" d="m9.5 11.2c0.1 0 0.2 0 0.3 0.1 0 0.7-0.1 0.8-0.4 0.1 0-0.1 0.1-0.1 0.1-0.2z"></path><path fill="#66a1c6" d="m4.6 11c0.2 0 0.5 0 0.7 0 0.2 0 0.2 0.1 0.3 0.2-0.3 0.2-0.6 0.3-0.9 0.4-0.3-0.1-0.3-0.3-0.1-0.6z"></path><path fill="#43b5e3" d="m23.8 10.9c0.2 0.2 0.3 0.4 0.4 0.6-1.1 0.1-2.2 0.2-3.4 0.3-0.8-0.1-1.7-0.1-2.6-0.3-0.6 0-1.2 0.1-1.8 0.3-0.4-0.1-0.8-0.2-1.2-0.3-1.2 0.1-2.4 0.2-3.6 0.1 0.1-0.1 0.1-0.3 0.3-0.4 1.3 0.1 2.6 0.1 3.8 0.1 0.1 0 0.2-0.1 0.3-0.2 0.2 0.1 0.4 0.2 0.7 0.2 1.5 0 3.1 0 4.7 0l0.3 0c-0.2-0.1-0.2-0.2 0-0.2 0.1 0.1 0.2 0.2 0.4 0.2 0.5-0.1 1-0.1 1.5 0 0.1-0.1 0.2-0.3 0.2-0.4z"></path><path fill="#68cbef" d="m24.2 11.5c0.2 0.2 0.4 0.4 0.5 0.7-0.1 0-0.1 0.1-0.2 0.1-0.2-0.4-0.4-0.4-0.6 0-0.1 0-0.2-0.2-0.3-0.3-0.9 0-1.8 0-2.7 0-0.6 0-1.2-0.1-1.8-0.2-0.6 0-1.1 0.1-1.6 0.2-0.5-0.3-0.9-0.3-1.4 0-0.5 0-0.9 0-1.4-0.1-0.3-0.2-0.5-0.2-0.7 0-0.7 0.1-1.3 0.1-2 0.1-0.1-0.1-0.2-0.1-0.3-0.1-0.2 0.1-0.3 0.3-0.5 0.4 0.1-0.2 0.2-0.5 0.4-0.7 1.2 0.1 2.4 0 3.6-0.1 0.4 0.1 0.8 0.2 1.2 0.3 0.6-0.2 1.2-0.3 1.8-0.3 0.9 0.2 1.8 0.2 2.6 0.3 1.2-0.1 2.3-0.2 3.4-0.3z"></path><path fill="#2c384d" d="m29.4 12.9c0.1-0.4 0.2-0.7 0.4-1 0.5-0.2 0.7 0 0.6 0.5-0.3 0.2-0.6 0.4-1 0.5z"></path><path fill="#76b2d0" d="m8.7 12.1c0.2 0 0.3 0 0.4 0.1 0.1 0.3 0.1 0.5-0.1 0.7-0.2-0.2-0.3-0.5-0.3-0.8z"></path><path fill="#37baf5" d="m12 12c-0.2 0.1-0.2 0.2 0 0.2 0.9-0.1 1.7-0.1 2.6-0.1-0.1 0.6-0.2 1.1-0.4 1.7-0.6 0.2-1.3 0.6-1.9 0.9-0.1 0.1-0.3 0.1-0.4 0.1-0.1 0.4-0.2 0.6-0.5 0.6-0.2 0.2-0.3 0.4-0.5 0.6l-0.3 0.8-0.1 0c0.1-0.9 0.2-1.9 0.3-3.1 0.1-0.3 0.3-0.3 0.3 0 0.1-0.4 0.2-0.5 0.4-0.1 0.1-0.1 0.2-0.2 0.2-0.4 0 0.1 0.1 0.3 0.2 0.4 0.1-0.3 0.2-0.5 0.4-0.7-0.1-0.1-0.1-0.2 0.1-0.2-0.2-0.2-0.4-0.3-0.6-0.3 0 0.3-0.1 0.6-0.3 0.9l-0.3-0.2c0-0.3 0-0.5 0-0.8 0.2-0.1 0.3-0.3 0.5-0.4 0.1 0 0.2 0 0.3 0.1z"></path><path fill="#425065" d="m8 12.7c0.2 0 0.2 0 0.3 0.1-0.1 0.2-0.2 0.2-0.4 0.1 0-0.1 0-0.2 0.1-0.2z"></path><path fill="#ecf3ef" d="m21.3 13c0.1 0.2 0.2 0.4 0.4 0.6 0 0.3 0.1 0.6 0.3 0.9l0.1 0.2c-0.2 0-0.4 0-0.5 0.2-0.1-0.2 0-0.3 0.2-0.4l-0.4-0.4c-0.1 0.2-0.4 0.3-0.6 0.4 0.1-0.5-0.1-0.8-0.6-0.8-0.1-0.1-0.1-0.2-0.1-0.4h-0.4c0.1-0.3 0.2-0.4 0.5-0.2-0.2-0.3-0.5-0.2-0.7 0-0.5-0.2-1-0.4-1.6-0.6-0.1-0.1-0.2-0.3-0.2-0.5 1.3 0.1 2.5 0.4 3.6 1z"></path><path fill="#84949f" d="m17.9 12.7v-0.2c0.6 0.2 1.1 0.4 1.6 0.6 0.2-0.2 0.5-0.3 0.7-0.1-0.3-0.1-0.4 0-0.5 0.3v0.3h-0.1c0-0.1-0.1-0.3-0.2-0.4-0.5-0.2-1-0.4-1.5-0.5z"></path><path fill="#6f6f6e" d="m8.9 13.2c0.3 0 0.3 0.1 0.2 0.2-0.1 0-0.2-0.1-0.2-0.2z"></path><path fill="#3b485c" d="m9.5 12.9h0.3c-0.1 0.6-0.2 0.6-0.3 0z"></path><path fill="#b2cdd7" d="m17.9 12.7c0.5 0.1 1 0.3 1.5 0.5 0.1 0.1 0.2 0.3 0.2 0.4-0.1 0.2-0.3 0.2-0.5 0.2-0.2-0.2-0.4-0.4-0.7-0.5-0.1-0.3-0.3-0.5-0.5-0.6z"></path><path fill="#436b94" d="m8.2 13.9c0-0.7 0.1-0.7 0.3-0.1-0.1 0.1-0.2 0.1-0.3 0.1z"></path><path fill="#35b7f1" d="m20.9 12c0.9 0 1.8 0 2.7 0 0.1 0.1 0.2 0.3 0.3 0.3 0.2-0.4 0.4-0.4 0.6 0 0.1 0 0.1-0.1 0.2-0.1v0.1c-0.1 0.5 0 0.9 0.4 1.1 0.2 1.2 0.4 2.4 0.4 3.6v0.2h-0.1l-0.3 0.3c0.1-0.2 0-0.4 0-0.6-0.4-0.4-0.8-0.9-1.3-1.2-0.7-0.8-1.4-1.5-2.1-2.1-0.2-0.2-0.3-0.4-0.4-0.6 0-0.1 0-0.2-0.1-0.3 0.1-0.1 0.2-0.2 0.3-0.2-0.3-0.1-0.6-0.1-1-0.2 0.2-0.1 0.3-0.2 0.4-0.3z"></path><path fill="#3fb2dd" d="m20.9 12c-0.1 0.1-0.2 0.2-0.4 0.3 0.4 0.1 0.7 0.1 1 0.2-0.1 0-0.2 0.1-0.3 0.2 0.1 0.1 0.1 0.2 0.1 0.3-1.1-0.6-2.3-0.9-3.6-1 0 0.2 0.1 0.4 0.2 0.5v0.2c0.2 0.1 0.4 0.3 0.5 0.6 0.3 0.1 0.5 0.3 0.7 0.5 0.1 0.2 0.2 0.4 0.4 0.5 0.3 0.2 0.6 0.5 0.8 0.8 0 0 0 0 0-0.1 0.2 0.2 0.5 0.5 0.7 0.7 0.4 0.5 0.8 0.9 1.3 1.2 0.5 0.5 0.9 1.1 1.4 1.6 0.1 0.1 0.3 0.2 0.4 0.3l-0.1 0.1c0.4 0 0.5 0.2 0.6 0.5 0 0.2 0 0.3-0.1 0.3h-0.3c-0.8-0.9-1.7-1.8-2.5-2.7-0.3-0.3-0.6-0.6-0.9-0.9-0.2-0.1-0.4-0.2-0.5-0.4-0.2-0.2-0.4-0.4-0.6-0.6 0 0.2-0.1 0.4-0.2 0.5 0-0.2 0-0.5 0-0.7l-0.5-0.5c-0.9-0.1-1.7-0.1-2.5 0-0.7 0.7-0.7 1.4-0.1 2.2 0.3 0.2 0.5 0.5 0.8 0.7-0.1 0-0.1 0-0.2 0 0.3 0.2 0.6 0.4 0.8 0.6 0.6 0.7 1.2 1.3 1.8 1.8-0.2 0.1-0.5 0.1-0.8 0l-0.9-0.9c-0.2-0.3-0.6-0.7-1.1-1-0.2-0.4-0.6-0.7-0.9-1-0.1 0-0.1 0.1-0.1 0.1-0.2-0.2-0.3-0.5-0.6-0.8-0.6-0.2-1.1-0.5-1.5-1-0.5 0.3-0.7 0.6-0.7 1-0.3-0.1-0.5-0.3-0.5-0.6 0.1-0.6 0.2-0.6 0.4-0.1l0.2-0.2c0-0.1-0.1-0.3-0.2-0.5 0.2-0.3 0.6-0.4 1-0.3-0.5 0.4-0.4 0.7 0.2 0.7 0.1 0.1 0.1 0.2 0.2 0.3 0-0.3 0.1-0.5 0.2-0.7 0.3-0.2 0.6-0.5 0.9-0.9 0.1 0 0.3 0 0.5-0.1l0.1 0.2c0.2-0.4 0.4-0.4 0.7 0l0.3-0.2c0.1-0.6 0.3-1.2 0.5-1.7 0.5-0.1 1-0.2 1.6-0.2 0.6 0.1 1.2 0.2 1.8 0.2z"></path><path fill="#346d8b" d="m19.6 13.6h0.1c0.2 0.5 0.4 1 0.6 1.4 0 0.1 0 0.1 0 0.1-0.2-0.3-0.5-0.6-0.8-0.8-0.2-0.1-0.3-0.3-0.4-0.5 0.2 0 0.4 0 0.5-0.2z"></path><path fill="#57bddd" d="m24.7 12.3c0.8 1.4 1.1 2.9 0.9 4.5 0 0.1 0 0.2-0.1 0.2 0-1.2-0.2-2.4-0.4-3.6-0.4-0.2-0.5-0.6-0.4-1.1z"></path><path fill="#ecf1f2" d="m20.4 5.3c0.1 0 0.1-0.1 0.2-0.1l-0.1-0.1c0.1-0.1 0.3-0.1 0.4-0.1-0.2 0.4-0.2 0.8 0 1.2l0.8 0.1c0.3 0.1 0.4 0.2 0.5 0.5-0.2 0-0.3-0.1-0.4-0.2-0.1 0-0.2 0.1-0.3 0.1-0.1-0.2-0.2-0.3-0.5-0.3-0.2 0.2-0.3 0.6-0.4 0.9-0.6 0-1.1 0-1.7 0-0.2 0-0.4 0-0.5 0.2 0.5 0 1.1 0.1 1.6 0.3 0.3-0.2 0.5-0.1 0.8 0.1 0.1 0.2 0.3 0.4 0.5 0.4 0.2-0.2 0.5-0.2 0.7-0.3v-0.3h0.8c0 0.2-0.1 0.4-0.4 0.5 0.1 0.1 0.1 0.1 0.2 0.2-0.3-0.1-0.5 0-0.7 0.1 0 0.1 0.1 0.2 0.3 0.2 0.1 0 0.2-0.1 0.4-0.1-0.2 0.2-0.3 0.3-0.5 0.5 0.5 0.1 1 0.1 1.5 0 0.1 0.2 0.1 0.3 0 0.5-0.3 0-0.6 0-0.8 0 0.3 0.3 0.6 0.5 0.9 0.7 0.1 0.6 0.3 0.7 0.8 0.3l-0.1-0.2 0.2-0.1c-0.2-0.1-0.4-0.3-0.5-0.5 0.3-0.1 0.3-0.2 0-0.2 0.3-0.4 0.4-0.4 0.6 0 0.3-0.1 0.3-0.1 0-0.2 0.3-0.6 0.4-0.6 0.5 0.1 0.1-0.1 0.2-0.1 0.3 0 0.1 0 0.1-0.1 0.1-0.2 0.2 0.1 0.4 0.1 0.6 0.1-0.2 0.3-0.3 0.6-0.4 0.9-0.5 0-0.6 0.2-0.1 0.6-0.2 0.1-0.3 0.3-0.4 0.5 0.1 0 0.1 0.1 0.2 0.1-0.3 0.1-0.3 0.3 0 0.4 0.1 0.6 0.5 0.8 1.1 0.6 0.3-0.4 0.3-0.7 0-1.1 0.1 0 0.2-0.1 0.3-0.2 0-0.3 0.1-0.5 0-0.8h-0.3c0 0.2 0.1 0.3 0.2 0.4-0.2 0.1-0.3 0.1-0.5 0.2-0.1-0.3-0.1-0.5-0.1-0.7 0.2-0.2 0.5-0.4 0.7-0.5 0.3 0.1 0.6 0.2 0.8 0.2 0.1-0.6-0.2-0.8-0.8-0.6 0 0-0.1-0.1-0.2-0.1-0.2 0.3-0.2 0.2-0.2-0.1h-0.3v-0.4c0.3 0.1 0.7 0.2 1.1 0.4 0.4-0.3 0.6-0.2 0.7 0.3-0.1 0.3-0.2 0.6-0.3 0.9 0.3 0 0.3 0.1 0.1 0.3 0.2 0 0.3 0.1 0.4 0 0-0.2 0.2-0.4 0.4-0.5-0.1-0.1-0.1-0.2 0-0.3 0.2-0.2 0.4-0.2 0.6-0.1-0.1 0.1-0.1 0.2-0.2 0.2 0.1 0.3 0.2 0.5 0.4 0.9-0.1 0.2-0.3 0.5-0.5 0.7-0.3-0.1-0.6-0.3-0.9-0.3l-0.4 0.2c0.2 0.1 0.2 0.1 0 0.2 0.6 0 1.2 0.2 1.7 0.4 0.1-0.2 0.3-0.2 0.5-0.2-0.2 0.3-0.3 0.6-0.4 1-0.1 0.1-0.2 0.1-0.3 0 0-0.3 0-0.6-0.1-0.8-0.2 0.2-0.4 0.2-0.6 0.2v-0.4h-0.4v0.3c-0.3-0.1-0.7-0.1-1.1 0 0.2 0.1 0.3 0.2 0.3 0.3 0 0.4 0.1 0.7 0.2 1-0.2 0.1-0.2 0.2 0.1 0.3 0.2-0.1 0.4-0.3 0.5-0.5 0.3 0.1 0.5 0.2 0.6 0.4 0 0.1 0.1 0.1 0.1 0.2 0.2-0.1 0.2-0.2 0-0.2 0.2-0.2 0.4-0.1 0.5 0.1-0.3 0.1-0.3 0.2 0 0.3 0.1 0 0.1-0.1 0.2-0.1 0-0.1 0.1-0.1 0.1-0.1 0.1 0.1 0.2 0.2 0.1 0.3h0.4v0.6c-0.3 0-0.5 0.2-0.7 0.3 0.3 0.2 0.2 0.3-0.1 0.4 0.1 0.2 0.1 0.4 0 0.6 0.1-0.4-0.1-0.6-0.5-0.4-0.1 0.2-0.1 0.4 0 0.6 0.1 0.1 0 0.1-0.1 0.2 0-0.3-0.1-0.6-0.2-0.8-0.1 0.2-0.3 0.3-0.4 0.4 0.2 0.1 0.2 0.2 0 0.4l0.2 0.2-0.1 0.1c-0.2-0.1-0.4-0.2-0.6-0.3-0.1 0.1-0.2 0.2-0.3 0.3l-0.1-0.2-0.3 0.2c-0.1-0.2-0.1-0.4-0.1-0.7h-0.3c0-0.2 0.1-0.4 0.3-0.6-0.1-0.1-0.2-0.1-0.2-0.3h0.3c-0.1-0.1-0.1-0.2 0-0.2-0.1-0.1-0.3-0.2-0.4-0.3 0-0.2 0.1-0.2 0.1 0 0.1-0.1 0.1-0.2 0-0.3 0.5 0 0.7-0.2 0.4-0.7-0.1 0-0.3 0-0.4 0 0 0.1 0 0.3 0.1 0.4l-0.2 0.1c-0.2-0.2-0.4-0.3-0.7-0.3 0 1 0 2-0.1 2.9 0.2-1.6-0.1-3.1-0.9-4.5v-0.1c-0.1-0.3-0.3-0.5-0.5-0.7-0.1-0.2-0.2-0.4-0.4-0.6 0-0.1 0-0.2-0.1-0.2l-0.5-0.4c0-0.1-0.1-0.2-0.2-0.2-1-0.9-2.2-1.5-3.5-1.7-1.7-0.5-3.3-0.3-4.9 0.5 0-0.1 0-0.1 0.1-0.2 0.3-0.1 0.6-0.3 0.9-0.4h0.5c0-0.3 0.1-0.5 0.3-0.6-0.1-0.2-0.2-0.3-0.3-0.3 0.4-0.1 0.7-0.2 1.1-0.3-0.1-0.1-0.2-0.2-0.3-0.2-0.3 0.1-0.5 0.1-0.8 0.1v-0.5c0.3-0.1 0.5 0 0.7 0.1 0.1-0.2 0.1-0.5 0.1-0.7 0.5-0.2 0.9-0.1 1.2 0.3 0.2-0.2 0.2-0.4 0.1-0.7 0.1-0.1 0.3-0.2 0.4-0.3 0.1 0.3 0.2 0.6 0.2 0.9h0.6c0-0.2-0.1-0.4-0.2-0.6 0-0.1 0.1-0.2 0.2-0.3-0.1-0.3 0-0.5 0.2-0.6l0.3 0.3c0 0 0.1-0.1 0.1-0.1 0 0.3 0.1 0.4 0.4 0.5z"></path><path fill="#696968" d="m28.6 13.7h0.1c0.2 0 0.2 0.1 0 0.2 0-0.1-0.1-0.1-0.1-0.2z"></path><path fill="#3f648b" d="m26.5 12.7c0.6-0.1 0.8 0.2 0.6 0.8-0.7 0-0.9-0.2-0.6-0.8z"></path><path fill="#5190b5" d="m28.4 12.3c-0.2 0-0.3 0-0.4-0.1v-0.3h0.4v0.4z"></path><path fill="#4fa4d6" d="m26.6 11.4c0.3 0.4 0.3 0.7 0 1.1-0.6 0.2-1 0-1.1-0.6v-0.3c0.1 0.1 0.2 0 0.2-0.1 0.3-0.1 0.6-0.1 0.9-0.1z"></path><path fill="#20242b" d="m25.5 11.5v0.4c-0.3-0.1-0.3-0.3 0-0.4z"></path><path fill="#94c3db" d="m26.6 11.4c-0.3 0-0.6 0-0.9 0.1-0.1-0.1-0.1-0.3 0-0.4 0.2 0.2 0.4 0.3 0.7 0.2-0.1-0.1-0.1-0.2-0.1-0.3 0.2-0.1 0.3-0.1 0.5-0.2-0.1-0.1-0.2-0.2-0.2-0.4h0.3c0.1 0.3 0 0.5 0 0.8-0.1 0.1-0.2 0.2-0.3 0.2z"></path><path fill="#658aa0" d="m28.5 10.6h0.6c0 0.6-0.2 0.7-0.6 0.4-0.1-0.2-0.1-0.3 0-0.4z"></path><path fill="#4c84ab" d="m26.9 9.8v-0.4c0.6-0.2 0.9 0 0.8 0.6-0.2 0-0.5-0.1-0.8-0.2z"></path><path fill="#0d1526" d="m24.7 9.4c0.3 0.1 0.3 0.1 0 0.2v-0.2z"></path><path fill="#4d4d4c" d="m19.6 6.9c0.2 0 0.3 0.1 0.1 0.2 0 0-0.1-0.1-0.1-0.2z"></path><path fill="#51a4be" d="m17.4 6h0.4v0.6c-0.5 0-0.6-0.1-0.4-0.6z"></path><path fill="#363c45" d="m20.4 5.3c0.1 0 0.2 0.1 0.2 0.2-0.1 0.2-0.2 0.3-0.2 0.5h-0.4c0-0.2 0.2-0.5 0.4-0.7z"></path><path fill="#528198" d="m19.5 5.2h0.4v0.5h-0.5c0-0.2 0-0.3 0.1-0.5z"></path><path fill="#475e7a" d="m30 14.8v-0.6c0.3-0.2 0.6-0.1 0.8 0.3-0.2 0.4-0.5 0.5-0.8 0.3z"></path><path fill="#76bfdc" d="m8.9 14.3v0.4c-0.3 0.2-0.5 0.1-0.5-0.4h0.5z"></path><path fill="#edf4e8" d="m19.5 15.6c-0.2 1-0.8 1.6-1.7 1.9-0.3 0-0.5-0.1-0.6-0.2-0.3-0.2-0.5-0.5-0.8-0.7-0.6-0.8-0.6-1.5 0.1-2.2 0.8-0.1 1.6-0.1 2.5 0l0.5 0.5c0 0.2 0 0.5 0 0.7z"></path><path fill="#355676" d="m29.4 14c0.2 0.2 0.2 0.4 0.2 0.7-0.3 0-0.4-0.1-0.5-0.4 0.2 0 0.3-0.1 0.3-0.3z"></path><path fill="#4b7ea0" d="m8.3 15.2h-0.4v-0.3h0.4v0.3z"></path><path fill="#f6eeab" d="m18.5 15c-0.3 0-0.6 0-0.9-0.1-0.2 0-0.3 0.1-0.3 0.2-0.2 0.3-0.3 0.5-0.4 0.8 0.1 0.1 0.1 0.3 0.1 0.5 0.2 0.1 0.2 0.2 0.3 0.4-0.3-0.1-0.4-0.4-0.5-0.7-0.1-0.3-0.1-0.6-0.3-0.9 0.1-0.2 0.2-0.2 0.3 0 0.2-0.1 0.3-0.3 0.5-0.5 0.4-0.1 0.8 0 1.2 0.3z"></path><path fill="#0b0c0e" d="m31.4 15c0.3 0 0.3 0.1 0.2 0.2-0.1 0-0.2-0.1-0.2-0.2z"></path><path fill="#39b2e6" d="m17.5 12c-0.2 0.5-0.4 1.1-0.5 1.7l-0.3 0.2c-0.3-0.4-0.5-0.4-0.7 0l-0.1-0.2c-0.2 0.1-0.4 0.1-0.5 0.1-0.3 0.4-0.6 0.7-0.9 0.9-0.1 0.2-0.2 0.4-0.2 0.7-0.1-0.1-0.1-0.2-0.2-0.3-0.6 0-0.7-0.3-0.2-0.7-0.4-0.1-0.8 0-1 0.3 0.1 0.2 0.2 0.4 0.2 0.5l-0.2 0.2c-0.2-0.5-0.3-0.5-0.4 0.1 0 0.3 0.2 0.5 0.5 0.6h0.1l0.3 0.3c0.4 0.4 0.7 0.9 0.8 1.4-0.1 0.1-0.1 0.1-0.2 0.1-0.2-0.1-0.3-0.2-0.4-0.3-0.4 0.2-0.7 0.5-0.9 0.8l-0.3-0.5-0.1 0.3 0.2 0.5 0 0.3c-0.1-0.2-0.2-0.3-0.2-0.5h-0.3c0 0.2-0.1 0.3-0.2 0.5 0-0.4-0.1-0.7-0.2-1.1-0.6 0.4-0.7 0.9-0.1 1.4 0 0.1 0 0.3 0 0.4h-0.1c-0.5-1-0.9-2.1-1.1-3.3 0-0.6 0-1.2 0.1-1.8 0.1-0.7 0.3-1.4 0.6-2.1l0.2-0.2c0 0.3 0 0.5 0 0.8l0.3 0.2c0.2-0.3 0.3-0.6 0.3-0.9 0.2 0 0.4 0.1 0.6 0.3-0.2 0-0.2 0.1-0.1 0.2-0.2 0.2-0.3 0.4-0.4 0.7-0.1-0.1-0.2-0.3-0.2-0.4 0 0.2-0.1 0.3-0.2 0.4-0.2-0.4-0.3-0.3-0.4 0.1 0-0.3-0.2-0.3-0.3 0-0.1 1.2-0.2 2.2-0.3 3.1l0.1 0 0.3-0.8c0.2-0.2 0.3-0.4 0.5-0.6 0.3 0 0.4-0.2 0.5-0.6 0.1 0 0.3 0 0.4-0.1 0.6-0.3 1.3-0.7 1.9-0.9 0.2-0.6 0.3-1.1 0.4-1.7-0.9 0-1.7 0-2.6 0.1-0.2 0-0.2-0.1 0-0.2 0.7 0 1.3 0 2-0.1 0.2-0.2 0.4-0.2 0.7 0 0.5 0.1 0.9 0.1 1.4 0.1 0.5-0.3 0.9-0.3 1.4 0z"></path><path fill="#f5e74a" d="m17.3 15.1c0.2 0 0.3 0 0.5 0.1-0.1 0-0.3 0.1-0.4 0.3 0 0.4 0 0.8 0 1.2 0-0.2-0.1-0.3-0.4-0.3 0-0.2 0-0.4-0.1-0.5 0.1-0.3 0.2-0.5 0.4-0.8z"></path><path fill="#faf3ca" d="m18.5 15c0.2 0.5 0.4 0.9 0.5 1.4-0.3 0.4-0.7 0.6-1.2 0.6 0.2-0.2 0.5-0.4 0.8-0.4 0.1-0.2 0-0.4-0.1-0.6-0.1 0.1-0.1 0.1-0.2 0.1-0.7 0.4-0.8 0.2-0.6-0.6 0.2-0.1 0.4-0.1 0.5 0.2 0.1 0.1 0.3 0.1 0.4 0.1 0-0.3 0-0.5-0.1-0.8z"></path><path fill="#4f5256" d="m7.8 15.6c0.2 0 0.3 0.1 0.1 0.2-0.1 0-0.1-0.1-0.1-0.2z"></path><path fill="#f0f4e2" d="m19.7 13.3h0.4c0 0.2 0 0.3 0.1 0.4 0.5 0 0.7 0.3 0.6 0.8 0.2-0.1 0.5-0.2 0.6-0.4l0.4 0.4c-0.2 0.1-0.3 0.2-0.2 0.4 0.1-0.2 0.3-0.2 0.5-0.2 0.3 0.3 0.6 0.7 0.9 1-0.2 0.3-0.4 0.5-0.7 0.7-0.4-0.3-0.8-0.5-1.3-0.7-0.2-0.2-0.5-0.5-0.7-0.7-0.2-0.4-0.4-0.9-0.6-1.4v-0.3z"></path><path fill="#2e667d" d="m20.3 15.7c-0.1 0.2-0.2 0.4-0.2 0.6-0.5 0.1-0.7 0.4-0.5 0.9 0.1 0 0.1 0.1 0.1 0.2-0.2 0.1-0.4 0.2-0.5 0.4 0.1 0.5 0 0.6-0.5 0.5-0.2-0.1-0.3-0.3-0.5-0.5-0.1 0.1-0.2 0.2-0.4 0.1-0.2-0.2-0.5-0.4-0.8-0.6 0.1 0 0.1 0 0.2 0 0.1 0.1 0.3 0.2 0.6 0.2 0.9-0.3 1.5-0.9 1.7-1.9 0.1-0.1 0.2-0.3 0.2-0.5 0.2 0.2 0.4 0.4 0.6 0.6z"></path><path fill="#282e39" d="m27.5 16.5c-0.1-0.2-0.1-0.3-0.1-0.5h0.4c0.1 0.3 0 0.5-0.3 0.5z"></path><path fill="#374355" d="m29.2 16.1c-0.1 0.1-0.3 0.2-0.5 0.2-0.1-0.2-0.1-0.4 0-0.6 0.4-0.2 0.6 0 0.5 0.4z"></path><path fill="#f9f8dc" d="m13.4 16.4l-0.3-0.3c0.2-0.2 0.4-0.4 0.7-0.6 0.1 0.1 0.1 0.2 0.1 0.3 1.2 0.1 1.4 0.5 0.5 1.2l-0.1-0.5c-0.1 0.1-0.2 0.2-0.3 0.2-0.2-0.2-0.3-0.3-0.6-0.3z"></path><path fill="#d8c575" d="m17.8 17c-0.2 0.1-0.4 0-0.5-0.2 0.5 0.1 0.8-0.1 1-0.7 0.1 0 0.1 0 0.2-0.1 0.1 0.2 0.2 0.4 0.1 0.6-0.3 0-0.6 0.2-0.8 0.4z"></path><path fill="#3193cf" d="m23.8 15.7c0.5 0.3 0.9 0.8 1.3 1.2 0 0.2 0.1 0.4 0 0.6v0.4h-0.4c-0.2-0.6-0.4-1.2-0.6-1.9l-0.1 0.1c-0.1-0.1-0.2-0.2-0.2-0.4z"></path><path fill="#1c2535" d="m26.9 16.1c0.5 0.2 0.5 0.3 0 0.4v-0.4z"></path><path fill="#e3cd58" d="m18.5 15c0.1 0.3 0.1 0.5 0.1 0.8-0.1 0-0.3 0-0.4-0.1-0.1-0.3-0.3-0.3-0.5-0.2-0.2 0.8-0.1 1 0.6 0.6-0.2 0.6-0.5 0.8-1 0.7-0.1-0.2-0.1-0.3-0.3-0.4 0.3 0 0.4 0.1 0.4 0.3 0-0.4 0-0.8 0-1.2 0.1-0.2 0.3-0.3 0.4-0.3-0.2-0.1-0.3-0.1-0.5-0.1 0-0.1 0.1-0.2 0.3-0.2 0.3 0.1 0.6 0.1 0.9 0.1z"></path><path fill="#6187a0" d="m7.1 16.9c-0.1 0.1-0.2 0-0.3-0.1v-0.3h0.3v0.4z"></path><path fill="#2e6880" d="m22.3 16.9c-0.5-0.3-0.9-0.7-1.3-1.2 0.5 0.2 0.9 0.4 1.3 0.7 0.3-0.2 0.5-0.4 0.7-0.7-0.3-0.3-0.6-0.7-0.9-1l-0.1-0.2c0-0.1 0-0.1 0.1-0.2 0 0.1 0.1 0.2 0.2 0.2l-0.1 0.1c0.7 0.5 1.1 1.2 1.5 1.9-0.3 0.1-0.4 0.4-0.4 0.7-0.3 0-0.5-0.1-0.7-0.4-0.1 0.1-0.2 0.1-0.3 0.1z"></path><path fill="#2c7490" d="m20.3 15.7c0.1 0.2 0.3 0.3 0.5 0.4-0.1 0.1-0.1 0.2-0.2 0.2 0.6 0.5 0.6 1.1 0.2 1.6 0.2 0.2 0.2 0.3 0 0.3l0.1 0.1c-0.2 0.1-0.3 0.3-0.3 0.4-0.1 0.2-0.2 0.2-0.2 0l-0.1 0.3c-0.1-0.2-0.2-0.3-0.3-0.4l-0.4 0.5c-0.3-0.2-0.6-0.5-0.9-0.8 0.5 0.1 0.6 0 0.5-0.5 0.1-0.2 0.3-0.3 0.5-0.4 0-0.1 0-0.2-0.1-0.2-0.2-0.5 0-0.8 0.5-0.9 0-0.2 0.1-0.4 0.2-0.6z"></path><path fill="#316f92" d="m16.8 17.8c-0.2 0-0.4 0-0.7 0.1 0-0.3-0.1-0.6-0.3-1 0 0 0-0.1 0.1-0.1 0.3 0.3 0.7 0.6 0.9 1z"></path><path fill="#2e7fa7" d="m20.8 16.1c0.3 0.3 0.6 0.6 0.9 0.9-0.1 0.2-0.1 0.3 0 0.4 0.3 0.1 0.4 0.3 0.2 0.5-0.1-0.1-0.2-0.1-0.4-0.1 0 0.4 0 0.8 0 1.2 0 0.1-0.1 0.2-0.2 0.2 0.1 0.2 0.1 0.2-0.1 0.3 0.2 0 0.3 0.1 0.3 0.2-0.6 0.1-1.2 0.1-1.9 0-0.6-0.5-1.2-1.1-1.8-1.8 0.2 0.1 0.3 0 0.4-0.1 0.2 0.2 0.3 0.4 0.5 0.5 0.3 0.3 0.6 0.6 0.9 0.8l0.4-0.5c0.1 0.1 0.2 0.2 0.2 0.4l0.2-0.3c0 0.2 0.1 0.2 0.2 0 0-0.1 0.1-0.3 0.3-0.4l-0.1-0.1c0.2 0 0.2-0.1 0-0.3 0.4-0.5 0.4-1.1-0.2-1.6 0.1 0 0.1-0.1 0.2-0.2z"></path><path fill="#396589" d="m8.4 18.1h-0.6c-0.3-0.3-0.3-0.6 0-0.9 0.7-0.1 0.9 0.2 0.6 0.9z"></path><path fill="#416485" d="m27.3 17.4h0.3v0.4h-0.3v-0.4z"></path><path fill="#3585ad" d="m21.7 13.6c0.7 0.6 1.4 1.3 2.1 2.1 0 0.2 0.1 0.3 0.2 0.4l0.1-0.1c0.2 0.7 0.4 1.3 0.6 1.9h0.4v-0.4l0.3-0.3c-0.1 0.5-0.2 1.1-0.4 1.6-0.1 0.3-0.2 0.5-0.4 0.6-0.1-0.3-0.2-0.5-0.6-0.5l0.1-0.1c-0.1-0.1-0.3-0.2-0.4-0.3-0.5-0.5-0.9-1.1-1.4-1.6 0.1 0 0.2 0 0.3-0.1 0.2 0.3 0.4 0.4 0.7 0.4 0-0.3 0.1-0.6 0.4-0.7-0.4-0.7-0.8-1.4-1.5-1.9l0.1-0.1c-0.1 0-0.2-0.1-0.2-0.2-0.1 0.1-0.1 0.1-0.1 0.2-0.2-0.3-0.3-0.6-0.3-0.9z"></path><path fill="#5c6871" d="m5.9 18.1c0.2 0 0.3 0 0.1 0.2-0.1-0.1-0.1-0.1-0.1-0.2z"></path><path fill="#edf4f0" d="m15.8 16.9c0.2 0.4 0.3 0.7 0.3 1v0.6c-0.3 0-0.5-0.2-0.7-0.4 0.1 0.3 0.3 0.5 0.6 0.6 0.1-0.1 0.3-0.1 0.4-0.2 0.5 0.2 1 0.4 1.5 0.6 0.5 0.3 0.4 0.5-0.2 0.5-0.9-0.1-1.7-0.3-2.6-0.6-0.4-0.3-0.7-0.7-0.9-1.2-0.1-0.5-0.4-1-0.8-1.4 0.3 0 0.4 0.1 0.6 0.3 0.1 0 0.2-0.1 0.3-0.2l0.1 0.5c0.9-0.7 0.7-1.1-0.5-1.2 0-0.1 0-0.2-0.1-0.3-0.3 0.2-0.5 0.4-0.7 0.6h-0.1c0-0.4 0.2-0.7 0.7-1 0.4 0.5 0.9 0.8 1.5 1 0.3 0.3 0.4 0.6 0.6 0.8z"></path><path fill="#359bc9" d="m21.7 17c0.8 0.9 1.7 1.8 2.5 2.7-0.8 0.1-1.7 0.1-2.7 0 0-0.1-0.1-0.2-0.3-0.2 0.2-0.1 0.2-0.1 0.1-0.3 0.1 0 0.2-0.1 0.2-0.2 0-0.4 0-0.8 0-1.2 0.2 0 0.3 0 0.4 0.1 0.2-0.2 0.1-0.4-0.2-0.5-0.1-0.1-0.1-0.2 0-0.4z"></path><path fill="#5fa2c8" d="m7.8 18.1h0.6l-0.1 0.2v0.3c-0.2 0.1-0.4 0-0.6-0.1l0.1-0.4z"></path><path fill="#adc1cb" d="m16.8 17.8c0.5 0.3 0.9 0.7 1.1 1v0.3c-0.5-0.2-1-0.4-1.5-0.6-0.1 0.1-0.3 0.1-0.4 0.2-0.3-0.1-0.5-0.3-0.6-0.6 0.2 0.2 0.4 0.4 0.7 0.4v-0.6c0.3-0.1 0.5-0.1 0.7-0.1z"></path><path fill="#3f4245" d="m10.1 19.1v-0.1c-0.1-0.2 0-0.3 0.1-0.4 0.3 0.3 0.2 0.5-0.1 0.5z"></path><path fill="#37b7f3" d="m14.2 17.8c0.2 0.5 0.5 0.9 0.9 1.2l0.7 0.7c-1 0-2 0-3 0.2-0.3-0.1-0.5-0.2-0.6-0.4-0.2 0.4-0.4 0.4-0.7 0.2 0-0.1 0-0.3 0-0.4-0.6-0.5-0.5-1 0.1-1.4 0.1 0.4 0.2 0.7 0.2 1.1 0.1-0.2 0.2-0.3 0.2-0.5h0.3c0 0.2 0.1 0.3 0.2 0.5l0-0.3-0.2-0.5 0.1-0.3 0.3 0.5c0.2-0.3 0.5-0.6 0.9-0.8 0.1 0.1 0.2 0.2 0.4 0.3 0.1 0 0.1 0 0.2-0.1z"></path><path fill="#2f6682" d="m17.9 18.8l0.9 0.9c-0.9 0.1-1.9 0.1-2.9 0h-0.1l-0.7-0.7c0.9 0.3 1.7 0.5 2.6 0.6 0.6 0 0.7-0.2 0.2-0.5v-0.3z"></path><path fill="#6a9ab1" d="m29.4 19.7c0.2 0 0.4 0 0.6 0.2-0.1 0.2-0.3 0.3-0.6 0.3v-0.5z"></path><path fill="#808a92" d="m8.9 20.2c0.1 0 0.2 0 0.3 0.1-0.2 0.1-0.3 0.1-0.5 0.1 0-0.1 0.1-0.2 0.2-0.2z"></path><path fill="#67b6d8" d="m15.9 19.7c1 0.1 2 0.1 2.9 0 0.3 0.1 0.6 0.1 0.8 0 0.7 0.1 1.3 0.1 1.9 0 1 0.1 1.9 0.1 2.7 0h0.3c-0.6 1-1.3 1.7-2.2 2.4-0.2 0.1-0.5 0.3-0.8 0.3-0.6 0.1-1.2 0-1.8 0l1.7-0.1c0.2-0.1 0.2-0.2 0-0.3-0.9 0.1-1.9 0.1-2.9 0-0.1 0-0.2 0-0.2-0.1 1-0.1 1.9-0.1 2.7-0.1-0.1-0.1-0.2-0.2-0.4-0.2l-0.9-0.1c0.3-0.1 0.5-0.1 0.7-0.2l-0.1-0.2c-0.5 0-1 0-1.6-0.1l0.2-0.1c0.9 0 1.8 0 2.7 0.1 0.6-0.1 1.2-0.2 1.7-0.3-0.4 0-0.9-0.1-1.4-0.2-1.4 0.1-2.8 0.1-4.1 0.1l-0.6-0.1c0.8-0.1 1.5-0.1 2.3-0.1l-0.2-0.3c-0.5 0-1 0-1.4-0.1-0.5 0.1-1.1 0.1-1.6 0.1l-0.4-0.4z"></path><path fill="#3989b4" d="m20.1 20c0.6 0.1 1.3 0.1 2 0.1-0.5 0.2-0.9 0.3-1.4 0.3-0.2-0.1-0.3-0.1-0.5-0.1-0.1-0.1-0.1-0.2-0.1-0.3z"></path><path fill="#3e4249" d="m30.5 20.2c0.3 0 0.3 0.1 0.2 0.2-0.1 0-0.2-0.1-0.2-0.2z"></path><path fill="#404f62" d="m8 21h-0.2c-0.1-0.2-0.1-0.4-0.1-0.6h0.5c0 0.2-0.1 0.4-0.2 0.6z"></path><path fill="#3f8ab3" d="m18.3 21.9c-0.2 0-0.4-0.1-0.6-0.2 0.6-0.1 1.2-0.2 1.8-0.2-0.2-0.1-0.5-0.1-0.7-0.2-0.4 0.1-0.9 0.1-1.3 0.1l-0.2-0.3 1.3-0.1-0.1-0.1c-0.6 0-1.2 0-1.8 0 0.1-0.1 0.1-0.2 0.1-0.3-0.2-0.2-0.4-0.4-0.5-0.5 0.5 0 1.1 0 1.6-0.1 0.4 0.1 0.9 0.1 1.4 0.1l0.2 0.3c-0.8 0-1.5 0-2.3 0.1l0.6 0.1c1.3 0 2.7 0 4.1-0.1 0.5 0.1 1 0.2 1.4 0.2-0.5 0.1-1.1 0.2-1.7 0.3-0.9-0.1-1.8-0.1-2.7-0.1l-0.2 0.1c0.6 0.1 1.1 0.1 1.6 0.1l0.1 0.2c-0.2 0.1-0.4 0.1-0.7 0.2l0.9 0.1c0.2 0 0.3 0.1 0.4 0.2-0.8 0-1.7 0-2.7 0.1z"></path><path fill="#525252" d="m4.8 20.8c0.2 0 0.2 0 0.1 0.2-0.1-0.1-0.1-0.1-0.1-0.2z"></path><path fill="#5f9bbd" d="m8.6 21.4h-0.3v-0.3h0.3v0.3z"></path><path fill="#5ac0eb" d="m15.8 19.7h0.1l0.4 0.4c0.1 0.1 0.3 0.3 0.5 0.5 0 0.1 0 0.2-0.1 0.3 0.6 0 1.2 0 1.8 0l0.1 0.1-1.3 0.2 0.2 0.2c0.4 0 0.9 0 1.3-0.1 0.2 0.1 0.5 0.1 0.7 0.2-0.6 0-1.2 0.1-1.8 0.2 0.2 0.1 0.4 0.2 0.6 0.2 0 0.1 0.1 0.1 0.2 0.1-0.3 0.2-0.2 0.3 0.2 0.4l-1.1 0.1c0.8 0.1 1.5 0.1 2.3 0.2l-0.9 0.1c0.2 0.1 0.3 0.2 0.5 0.3l-0.3 0.1c0.2 0 0.4 0 0.5 0-0.1 0.1-0.2 0.2-0.4 0.1-3.4 0.5-6-0.7-7.9-3.6h0.1c0.3 0.2 0.5 0.2 0.7-0.2 0.1 0.2 0.3 0.3 0.6 0.4 1-0.2 2-0.2 3-0.2z"></path><path fill="#7cd6f3" d="m16.7 20.9c0.1 0.1 0.3 0.1 0.5 0.1-1.1 0.1-2.1 0.1-3.2 0.2-0.4-0.1-0.8-0.1-1.2-0.2 1.3-0.1 2.6-0.1 3.9-0.1z"></path><path fill="#edf3f3" d="m26.6 18.4v0.3c-0.2 0-0.3 0.1-0.3 0.3 0.2-0.1 0.4-0.2 0.5-0.4 0.1 0.3 0.3 0.5 0.6 0.5 0 0.1 0 0.2 0 0.3 0.2-0.2 0.5-0.3 0.8-0.2-0.1 0.1-0.1 0.2-0.1 0.3 0.1 0 0.2 0.1 0.2 0.2 0.1-0.3 0.1-0.6 0.2-1 0.2 0.1 0.5 0.2 0.7 0.3-0.1 0.2 0 0.5 0.2 0.7v0.5c0.3 0 0.5-0.1 0.6-0.3 0.1 0.2 0 0.4-0.2 0.6-0.4-0.1-0.6-0.4-0.7-0.8-0.1 0.3-0.2 0.6-0.2 0.9-0.5 0.1-0.8 0-1.1-0.3-0.2 0.1-0.2 0.3 0 0.4-0.3 0.1-0.6 0.2-0.9 0.3 0 0.2 0.1 0.4 0.3 0.4 0.3 0 0.5-0.2 0.6-0.4l-0.2-0.1c0.3-0.1 0.6 0 0.9 0.1 0 0.1-0.1 0.1-0.1 0.2l0.7 0.2c0.1 0.3 0 0.4-0.4 0.4 0.1 0.3-0.1 0.5-0.4 0.5-0.3 0-0.7 0-1-0.1-0.7 0-0.9 0.3-0.6 0.9 0.1-0.1 0.2-0.1 0.4 0l0.2-0.3c0.3 0.1 0.6 0.1 0.9 0v0.4c-0.4 0.1-0.8 0.1-1.3 0.1v0.4c0.7 0 0.8 0.2 0.5 0.8-0.1 0.1-0.2 0.1-0.3 0.2-0.2-0.2-0.2-0.4-0.2-0.7-0.3 0-0.5 0-0.8 0-0.2-0.2-0.2-0.4-0.1-0.7-0.4 0.1-0.7 0.1-1.1 0.2 0.2 0.2 0.3 0.5 0.1 0.7-0.2 0-0.4-0.2-0.5-0.4 0 0 0 0.1 0 0.1-0.1-0.1-0.2-0.2-0.3-0.4-0.1 0-0.2 0-0.2 0.2-0.1-0.3 0-0.5 0.2-0.4 0.1 0 0.2-0.2 0.2-0.3 0.2 0.1 0.5 0.1 0.7 0.1 0.1-0.4-0.1-0.5-0.5-0.4 0-0.5 0.2-0.7 0.7-0.7 0.2-0.2 0.2-0.3 0-0.5-0.1 0.2-0.3 0.2-0.5 0.3-0.2 0-0.4-0.1-0.4-0.3 0.1-0.2 0.4-0.3 0.7-0.3 0-0.3-0.1-0.5-0.3-0.8-0.3 0.3-0.5 0.6-0.8 1 0.1 0 0.1 0.1 0.1 0.1-0.1 0-0.2-0.1-0.3-0.3-0.2 0.1-0.4 0.3-0.7 0.5 0.1 0.1 0.3 0.2 0.4 0.3 0.3-0.1 0.7-0.1 1 0-0.2 0.2-0.4 0.3-0.6 0.2h-0.6c-0.1 0-0.3-0.1-0.4-0.2-0.2 0.1-0.4 0.1-0.6 0.1 0.9-0.7 1.6-1.4 2.2-2.4 0.1 0 0.1-0.1 0.1-0.3 0.2-0.1 0.3-0.3 0.4-0.6 0.2-0.5 0.3-1.1 0.4-1.6h0.1c-0.1 0.2 0 0.4 0.1 0.6 0.1-0.1 0.2-0.1 0.3 0 0-0.1 0.1-0.2 0.1-0.4l-0.2-0.1c0.1-0.4 0.2-0.8 0.2-1.2 0.6 0.4 0.7 0.9 0.5 1.5-0.3-0.5-0.4-0.4-0.3 0.1 0.2 0.2 0.5 0.4 0.7 0.5 0 0.1-0.2 0.2-0.3 0.2z"></path><path fill="#74bcd9" d="m24.4 21.5h-0.3c0 0 0-0.1-0.1-0.1 0.3-0.4 0.5-0.7 0.8-1 0.2 0.3 0.3 0.5 0.3 0.8-0.3 0-0.6 0.1-0.7 0.3z"></path><path fill="#4e7897" d="m26.9 21c-0.2 0-0.5 0-0.7 0.1v-0.3h0.3c0.1-0.3 0.1-0.5 0-0.7 0.2 0.1 0.4 0.1 0.6 0.2 0 0.2-0.1 0.5-0.2 0.7z"></path><path fill="#2a4161" d="m28.4 20.1h0.3v0.4c-0.3 0.1-0.5-0.1-0.3-0.4z"></path><path fill="#3d5060" d="m25 20c0.4-0.1 0.5 0.1 0.5 0.4h-0.5v-0.4z"></path><path fill="#75b7d0" d="m28.1 19.5v0.5c-0.9-0.2-0.9-0.3 0-0.5z"></path><path fill="#7695a6" d="m26.3 19.2h0.3v0.3h-0.3v-0.3z"></path><path fill="#324861" d="m26.6 18.4c-0.1 0.1-0.2 0.2-0.3 0.2-0.1-0.1-0.3-0.1-0.5-0.1 0-0.2 0-0.3 0.1-0.4 0.3 0 0.5 0.1 0.7 0.3z"></path><path fill="#f8f8f6" d="m8.9 14.3c0.1 0.2 0.2 0.5 0.2 0.7 0.2 0.1 0.4 0.2 0.6 0.2l0.1-0.1c-0.1-0.1-0.2-0.1-0.4-0.1 0.1-0.1 0.3-0.1 0.4-0.2l0.1 0.1c0.1-0.2 0.2-0.4 0.2-0.6 0.2 0 0.3 0.1 0.3 0.3-0.1 0.6-0.1 1.2-0.1 1.8 0 0.5 0 1 0 1.5-0.1 0-0.1 0-0.2-0.1-0.1-0.5-0.1-1.1-0.2-1.7-0.2 0.1-0.4 0.2-0.5 0.4-0.7 0.7-0.6 1.1 0.4 1.2 0.1 0.3 0.1 0.6-0.1 0.9 0.1 0.1 0.2 0.2 0.4 0.4v0.1c-0.2 0.1-0.3 0.3-0.4 0.5h-0.3c0 0.2 0 0.3 0.1 0.4 0.2 0.2 0.4 0.3 0.6 0.4-0.2 0.4-0.3 0.7-0.3 1.1h0.9v0.5c0.3 0 0.4 0 0.6 0.2 0-0.1 0-0.1 0.1-0.2 0.2 0 0.4 0 0.6 0.2-0.6 0.5-1.2 0.6-1.9 0.2-0.3 0.1-0.4 0.3-0.4 0.6h-0.1c-0.4-0.1-0.8-0.1-1 0-0.1-0.2-0.1-0.4 0-0.6 0.1-0.1 0.2-0.1 0.3 0 0.1-0.3 0.1-0.6 0-0.9l-0.3 0.7-0.3-0.5c0.1-0.1 0.2-0.2 0.3-0.3 0.1 0 0.2-0.1 0.3-0.2l0.1 0.1c0.1-0.2 0.3-0.4 0.5-0.4-0.1-0.1-0.3-0.1-0.4-0.1 0.1-0.1 0.1-0.1 0-0.2-0.1 0.1-0.2 0.2-0.3 0.3-0.4-0.1-0.5-0.3-0.3-0.6 0.1 0 0.1 0.1 0.2 0.1 0.2 0 0.3 0 0.5-0.1-0.1-0.1-0.2-0.1-0.3-0.1-0.1-0.1-0.3-0.1-0.5 0-0.1 0-0.2-0.1-0.2-0.2 0.2 0 0.5 0 0.7 0 0-0.2 0-0.4 0-0.5 0-0.1-0.1-0.1-0.2-0.2 0.2-0.2 0.1-0.3-0.1-0.3 0.2-0.2 0.1-0.4-0.1-0.5 0.1-0.2 0.3-0.4 0.4-0.6 0.3 0.3 0.4 0.3 0.4-0.2-0.2 0-0.3 0-0.4-0.1 0-0.3-0.1-0.6-0.3-0.8-0.2-0.2-0.4-0.3-0.6-0.2-0.1-0.1-0.2-0.3-0.1-0.6 0.2 0.2 0.5 0.2 0.7 0-0.2-0.2-0.3-0.5-0.3-0.8 0.2-0.1 0.4-0.3 0.6-0.5v-0.4z"></path><path fill="#65b8df" d="m9.4 16.5h0.4v1.2c-1-0.1-1.1-0.5-0.4-1.2z"></path><path fill="#56595b" d="m9.3 15.6c0.2 0 0.2 0.1 0.1 0.2-0.1 0-0.1-0.1-0.1-0.2z"></path><path fill="#6c6c6c" d="m8.7 15c0.2 0 0.3 0.1 0.1 0.2-0.1 0-0.1-0.1-0.1-0.2z"></path><path fill="#4a89af" d="m9.2 14.3h0.3v0.5h-0.3v-0.5z"></path><path fill="#edf4f3" d="m10.3 16.4c0.2 1.2 0.6 2.3 1.1 3.3 1.9 2.9 4.5 4.1 7.9 3.6-0.1 0.2-0.1 0.3 0.1 0.4l0 0.2c-0.3 0.3-0.7 0.5-1 0.6 0 0.2 0.1 0.4 0.1 0.6h-0.3c-0.1 0.8-0.3 0.8-0.5 0h-0.4c0 0.2 0 0.4 0 0.6 0.1-0.2 0.2-0.3 0.4 0l-0.2 0.1c0.7 1.2 0.6 1.4-0.4 0.5-0.1-0.2-0.1-0.3-0.1-0.5h-0.5c0 0.2 0 0.4 0 0.6 0.2 0.1 0.4 0.2 0.5 0.3-0.1 0.1-0.2 0.1-0.4 0.1-0.1 0.1-0.1 0.2-0.2 0.3-0.1-0.2 0-0.3 0.1-0.4-0.1-0.1-0.2-0.1-0.2-0.2 0.1-0.1 0.1-0.2 0.1-0.3-0.2-0.1-0.3 0-0.4 0.2-0.1 0-0.2 0-0.3-0.1 0.1-0.2 0.1-0.5 0.1-0.8-0.3 0-0.5 0-0.8 0.2-0.1 0-0.2 0-0.3-0.1 0-0.1-0.1-0.3-0.1-0.4 0.2-0.3 0.3-0.7 0.1-1.1l0.2-0.1c-0.1-0.1-0.2-0.2-0.2-0.4-0.2-0.1-0.5-0.1-0.6 0l-0.1-0.4c-0.1 0.2-0.1 0.3-0.2 0.4-0.3 0.3-0.7 0.4-1 0.1v0.3c-0.2-0.1-0.3-0.3-0.3-0.5 0 0.1-0.1 0.1-0.2 0.2 0-0.1 0-0.3-0.1-0.4 0.2 0 0.4 0.1 0.6 0.3 0.1-0.2 0.2-0.4 0.4-0.5-0.6 0-1.4-0.1-2.1-0.3-0.2 0-0.3 0.1-0.4 0.2-0.3-0.3-0.6-0.3-1 0 0-0.3 0.1-0.5 0.4-0.6 0.7 0.4 1.3 0.3 1.9-0.2-0.2-0.2-0.4-0.2-0.6-0.2-0.1 0.1-0.1 0.1-0.1 0.2-0.2-0.2-0.3-0.2-0.6-0.2v-0.5h-0.9c0-0.4 0.1-0.7 0.3-1.1-0.2-0.1-0.4-0.2-0.6-0.4-0.1-0.1-0.1-0.2-0.1-0.4h0.3c0.1-0.2 0.2-0.4 0.4-0.5 0.3 0 0.4-0.2 0.1-0.5-0.1 0.1-0.2 0.2-0.1 0.4-0.2-0.2-0.3-0.3-0.4-0.4 0.2-0.3 0.2-0.6 0.1-0.9v-1.2h-0.4c0.1-0.2 0.3-0.3 0.5-0.4 0.1 0.6 0.1 1.2 0.2 1.7 0.1 0.1 0.1 0.1 0.2 0.1 0-0.5 0-1 0-1.5z"></path><path fill="#74858f" d="m10.3 21c0.3 0.1 0.3 0.2 0.2 0.4-0.1 0-0.1-0.1-0.1-0.2-0.2 0.1-0.3 0.1-0.4 0 0.1-0.1 0.2-0.1 0.3-0.2z"></path><path fill="#020304" d="m9.7 19.6c0.2 0 0.3 0.1 0.1 0.3 0-0.1-0.1-0.2-0.1-0.3z"></path><path fill="#84b8d3" d="m27.5 21.7h0.3v0.4h-0.3v-0.4z"></path><path fill="#446483" d="m8 21.5c0 0.2-0.1 0.4-0.1 0.6h0.4v0.5c-0.2 0-0.3-0.1-0.5-0.2-0.3-0.4-0.3-0.7 0.2-0.9z"></path><path fill="#3f536b" d="m25.7 21.9c0.4 0 0.5 0.2 0.5 0.5-0.5 0.1-0.7-0.1-0.5-0.5z"></path><path fill="#4f9ec5" d="m18.5 22c1 0.1 2 0.1 2.9 0 0.2 0.1 0.2 0.2 0 0.3l-1.7 0.1c0.6 0 1.2 0.1 1.8 0-0.5 0.4-1.1 0.7-1.8 0.8-0.1 0-0.3 0-0.5 0l0.3-0.1c-0.2-0.1-0.3-0.2-0.5-0.3l0.9-0.1c-0.8-0.1-1.5-0.1-2.3-0.2l1.1-0.1c-0.4-0.1-0.5-0.2-0.2-0.4z"></path><path fill="#75acc8" d="m31.2 22.6c0.5-0.1 0.6 0 0.5 0.5-0.2 0-0.3 0-0.5 0v-0.5z"></path><path fill="#f3f6f4" d="m7.8 20c0 0.1-0.1 0.2-0.2 0.3-0.4-0.1-0.5 0-0.5 0.5 0.3 0 0.5 0 0.7 0.2h0.2c0.2 0.2 0.2 0.4 0 0.5-0.5 0.2-0.5 0.5-0.2 0.9 0.1 0.2 0.3 0.3 0.5 0.3-0.1 0.2-0.2 0.2-0.4 0.1-0.1 0.2-0.1 0.3-0.1 0.5 0.6 0 1.1 0.1 1.6 0.3 0.1 0.1 0.2 0.1 0.4 0.2 0.2-0.1 0.5-0.2 0.7-0.2 0.1 0.4 0.2 0.4 0.4 0 0.3 0.1 0.5 0.3 0.6 0.6-0.1 0.1-0.2 0.2-0.2 0.3 0.1 0.1 0.3 0.1 0.5 0.1 0 0.2 0.2 0.3 0.4 0.2 0 0.1 0 0.2 0 0.3-0.2 0-0.3 0.1-0.4 0.2-0.3-0.1-0.5 0-0.6 0.3 0.2 0.2 0.4 0.2 0.7 0.2-0.1 0.2-0.3 0.3-0.6 0.2-0.3 0.1-0.3 0.2 0 0.3 0.3 0.1 0.6 0.1 0.9 0.3-0.3 0-0.6 0.2-0.9 0.3 0.4 0.1 0.8 0.3 1.1 0.5 0.1-0.1 0.2-0.1 0.4-0.1v0.3c-0.2 0-0.3 0-0.5-0.1-0.1 0.2-0.1 0.4-0.2 0.6 0.1 0.1 0.2 0.1 0.3 0.2-0.3 0-0.5 0.2-0.7 0.4l-0.5-0.1c0.2-0.1 0.2-0.2 0.1-0.3-0.2 0.1-0.4 0.1-0.6 0.2-0.1-0.5-0.3-1-0.5-1.4-0.2 0.1-0.3 0.2 0 0.4-0.1 0-0.2 0-0.4 0 0.1-0.2 0-0.3-0.1-0.5l0.4-0.1c-0.5-0.2-0.9-0.4-1.3-0.6l-0.1-0.3c0.2-0.2 0.2-0.4 0.2-0.6-0.1 0.1-0.2 0.1-0.2 0-0.1 0.1-0.1 0.2-0.2 0.3 0-0.5-0.2-0.7-0.6-0.4-0.1 0.1-0.1 0.3-0.1 0.5-0.2-0.1-0.3-0.3-0.3-0.5-0.1 0.1-0.2 0.2-0.2 0.3 0.1 0.3 0.1 0.6 0 0.9 0.3 0.3 0.2 0.6-0.1 0.9-0.2-0.4-0.5-0.5-1-0.5 0-0.4 0-0.9 0-1.4 0.1-0.3 0.1-0.3 0.2 0 0.2-0.2 0.2-0.3 0-0.4 0.1-0.1 0.2-0.2 0.4-0.1 0-0.2 0.1-0.4 0.2-0.6-0.1 0-0.1-0.1-0.2-0.2-0.1-0.1-0.1-0.3 0-0.5-0.1 0-0.2-0.1-0.3-0.1-0.2-0.2-0.2-0.4-0.1-0.6 0.1-0.1 0.2-0.1 0.2 0l0.2 0.5c0.1-0.1 0.2-0.2 0.3-0.2 0.1-0.3 0.2-0.6 0.5-0.8 0-0.2-0.2-0.3-0.3-0.3 0.1-0.1 0.2-0.3 0.1-0.4-0.3-0.6-0.7-0.8-1.3-0.6-0.1-0.3-0.1-0.7-0.1-1h0.7v-0.5h-0.9c0-0.9 0.4-1.2 1.2-0.7 0-0.2 0-0.3 0-0.4h0.4l-0.3 0.9c0.2 0 0.4 0 0.5 0.1-0.2 0.1-0.4 0.2-0.6 0.1 0 0.2 0 0.3 0.1 0.4 0.2-0.3 0.5-0.3 0.7-0.1z"></path><path fill="#495b73" d="m6.2 20.4h0.5v0.6c-0.5 0-0.7-0.1-0.5-0.6z"></path><path fill="#1e2026" d="m6.1 19.3c0.4 0 0.4 0.2 0.1 0.3-0.1-0.1-0.1-0.2-0.1-0.3z"></path><path fill="#464a51" d="m6.6 19.1c0.3 0.1 0.3 0.2 0.2 0.4-0.2-0.1-0.2-0.3-0.2-0.4z"></path><path fill="#64aad2" d="m10.7 23c0 0.2-0.1 0.4-0.2 0.6-0.2 0-0.5 0.1-0.7 0.2-0.2-0.1-0.3-0.1-0.4-0.2 0-0.2 0.1-0.4 0.2-0.6h0.1c0.4-0.3 0.7-0.3 1 0z"></path><path fill="#4b6179" d="m26.4 23.3h0.4c0 0.5-0.2 0.6-0.5 0.3 0-0.1 0-0.2 0.1-0.3z"></path><path fill="#4d6276" d="m10.3 24c0.4 0 0.4 0.2 0.1 0.4-0.1-0.1-0.1-0.2-0.1-0.4z"></path><path fill="#686868" d="m6.8 24.2c0-0.2 0.1-0.2 0.2-0.1 0 0.1-0.1 0.2-0.2 0.1z"></path><path fill="#393939" d="m11.5 24.2c0.2 0.1 0.3 0.2 0.3 0.4-0.2 0-0.4 0-0.5-0.1 0-0.1 0.1-0.2 0.2-0.3z"></path><path fill="#537487" d="m22.8 24c0.3 0.2 0.6 0.3 0.9 0.4 0 0.2-0.1 0.3-0.2 0.4-0.3-0.2-0.5-0.4-0.7-0.6v-0.2z"></path><path fill="#252931" d="m9.6 24.6c0.4 0.1 0.4 0.2 0 0.3v-0.3z"></path><path fill="#2e3339" d="m22.7 24.5c0.1 0.2 0.3 0.4 0.5 0.6 0 0.3 0 0.5 0 0.7l-0.1 0.1c-0.2-0.1-0.4-0.1-0.5-0.1-0.2-0.1-0.4-0.2-0.4-0.4 0.1-0.4 0.3-0.7 0.5-0.9z"></path><path fill="#3d4d66" d="m4.6 25.1c0.2 0.1 0.2 0.1 0.1 0.3-0.1-0.1-0.2-0.2-0.1-0.3z"></path><path fill="#4e5965" d="m10.7 25.1c0.3 0.1 0.3 0.1 0.2 0.3-0.1-0.1-0.2-0.2-0.2-0.3z"></path><path fill="#3576a2" d="m11.8 25.3c0.2 0.1 0.2 0.3 0.1 0.5-0.3 0-0.5 0-0.7-0.2 0.1-0.3 0.3-0.4 0.6-0.3z"></path><path fill="#4b6178" d="m28 25.4c0.3-0.1 0.4 0.1 0.4 0.4h-0.4v-0.4z"></path><path fill="#6ab9d8" d="m8.5 25.7c-0.2 0.1-0.4 0.2-0.7 0.1 0-0.2 0-0.4 0.1-0.5 0.4-0.3 0.6-0.1 0.6 0.4z"></path><path fill="#3e4045" d="m6.5 25.6c0.1 0 0.2 0.1 0.2 0.3-0.3 0-0.4-0.1-0.2-0.3z"></path><path fill="#1f5b83" d="m9.6 25.7h0.4v0.3h-0.4v-0.3z"></path><path fill="#66b7e4" d="m9.6 26h0.4v-0.3h-0.4c0.3-0.1 0.6-0.2 0.9-0.2 0 0.2 0.1 0.3 0.1 0.5-0.1 0.4-0.4 0.5-0.8 0.4-0.1-0.1-0.2-0.2-0.2-0.4z"></path><path fill="#515151" d="m11.3 26v0.3c-0.3-0.1-0.3-0.2 0-0.3z"></path><path fill="#f8f7ea" d="m24.1 21.5h0.3c0 0.2 0.2 0.3 0.4 0.3 0.2-0.1 0.4-0.1 0.5-0.3 0.2 0.2 0.2 0.3 0 0.5-0.5 0-0.7 0.2-0.7 0.7 0.4-0.1 0.6 0 0.5 0.4-0.2 0-0.5 0-0.7-0.1 0 0.1-0.1 0.3-0.2 0.3-0.2-0.1-0.3 0.1-0.2 0.4 0-0.2 0.1-0.2 0.2-0.2 0.1 0.2 0.2 0.3 0.3 0.4 0 0.2 0 0.4 0 0.6-0.5 0-0.9-0.2-1.1-0.6l-0.1 0.1c-0.2-0.2-0.2-0.4-0.2-0.7h-1c0 0.3 0 0.5 0.2 0.7 0.2-0.4 0.3-0.4 0.5 0v0.2c-0.1 0.1-0.2 0.2-0.1 0.3-0.2 0.2-0.4 0.5-0.5 0.9 0 0.2 0.2 0.3 0.4 0.4 0 0.1 0.1 0.2 0.3 0.1 0 0.2 0 0.4-0.1 0.5l-0.8 0.4 0.1 0.1c-0.2 0.2-0.4 0.5-0.3 0.8-0.3 0.1-0.5 0-0.7-0.2 0 0.6-0.1 1.1-0.1 1.7 0 0.2-0.1 0.3-0.2 0.4-0.2 0-0.4 0-0.6-0.1 0.4 0 0.6-0.2 0.6-0.6-0.2 0.5-0.6 0.6-1.2 0.4-0.2-0.4-0.2-0.8-0.1-1.2 0-0.2 0.2-0.4 0.4-0.5 0.4-0.1 0.7 0.1 0.9 0.5 0.1-0.2 0.1-0.4 0.1-0.6-0.4-0.1-0.7-0.1-1 0-0.2 0-0.3 0.1-0.4 0.1-0.2 0-0.4-0.1-0.5-0.3 0 0.1-0.1 0.2-0.3 0.2-0.3 0-0.6 0-0.9 0-0.2 0-0.5 0.1-0.6 0.3l-0.6-0.2c-0.3-0.1-0.7-0.2-1-0.2-0.1-0.1-0.1-0.2 0-0.3-0.2-0.1-0.4-0.1-0.6 0.1 0.1 0.1 0.1 0.3 0.1 0.4-0.2 0-0.3-0.1-0.4-0.3-0.3-0.1-0.6 0-0.8 0.1-0.1 0.1-0.2 0.2-0.3 0.3 0.1 0 0.2 0.1 0.4 0.3 0.2-0.3 0.4-0.3 0.3 0.2 0.1 0 0 0.1 0 0.1-0.1-0.2-0.3-0.3-0.5-0.2-0.1 0.2-0.2 0.4-0.2 0.6-0.1-0.3-0.1-0.6-0.3-1 0.4-0.4 0.3-0.6-0.3-0.5 0 0.2 0 0.4 0.1 0.5-0.1 0.3-0.1 0.6 0 0.9-0.1 0.1-0.2 0.2-0.3 0.1v-0.4h-0.4c-0.1-0.1-0.2-0.1-0.3-0.2 0.1-0.2 0.1-0.4 0.2-0.6 0.2 0.1 0.3 0.1 0.5 0.1v-0.3c-0.2 0-0.3 0-0.4 0.1-0.3-0.2-0.7-0.4-1.1-0.5 0.3-0.1 0.6-0.3 0.9-0.4-0.3-0.1-0.6-0.1-0.9-0.2v-0.3c0.3 0.1 0.5 0 0.6-0.2 0.1-0.2 0.1-0.4-0.1-0.5 0.1-0.1 0.2-0.2 0.4-0.2 0-0.1 0-0.2 0-0.3-0.2 0.1-0.4 0-0.4-0.2 0-0.2-0.1-0.3-0.3-0.4-0.1-0.3-0.3-0.5-0.6-0.6-0.2 0.4-0.3 0.4-0.4 0 0.1-0.2 0.2-0.4 0.2-0.6 0.1-0.1 0.2-0.2 0.4-0.2 0.7 0.2 1.5 0.3 2.1 0.3-0.2 0.1-0.3 0.3-0.4 0.5-0.2-0.2-0.4-0.3-0.6-0.3-0.1 0.1-0.2 0.1-0.2 0.3 0 0.2 0.1 0.3 0.3 0.1 0.1-0.1 0.2-0.1 0.2-0.2 0 0.2 0.1 0.4 0.3 0.5v-0.3c0.3 0.3 0.7 0.2 1-0.1 0.1-0.1 0.1-0.2 0.2-0.4l0.1 0.4c0.1-0.1 0.4-0.1 0.6 0 0 0.2 0.1 0.3 0.2 0.4l-0.2 0.1c0.2 0.4 0.1 0.8-0.1 1.1 0 0.1 0.1 0.3 0.1 0.4 0.1 0.1 0.2 0.1 0.3 0.1 0.3-0.2 0.5-0.2 0.8-0.2 0 0.3 0 0.6-0.1 0.8 0.1 0.1 0.2 0.1 0.3 0.1l0.3 0.1c0 0.1 0.1 0.1 0.2 0.2-0.1 0.1-0.2 0.2-0.1 0.4 0.1-0.1 0.1-0.2 0.2-0.3 0.2 0 0.3 0 0.4-0.1-0.1-0.1-0.3-0.2-0.5-0.3 0-0.2 0-0.4 0-0.6h0.5c0 0.2 0 0.3 0.1 0.5 1 0.9 1.1 0.7 0.4-0.5l0.2-0.2c-0.2-0.2-0.3-0.1-0.4 0.1 0-0.2 0-0.4 0-0.6h0.4c0.2 0.8 0.4 0.8 0.5 0h0.3c0-0.2-0.1-0.4-0.1-0.6 0.3-0.1 0.7-0.3 1-0.6l0-0.2c-0.2-0.1-0.2-0.2-0.1-0.4 0.2 0.1 0.3 0 0.4-0.1 0.7-0.1 1.3-0.4 1.8-0.8 0.3 0 0.6-0.2 0.8-0.3 0.2 0 0.4 0 0.6-0.1 0.1 0.1 0.3 0.2 0.4 0.2-0.1 0.2-0.1 0.4 0.2 0.5 0.2-0.1 0.4-0.2 0.4-0.5 0.2 0.1 0.4 0 0.6-0.2-0.3-0.1-0.7-0.1-1 0-0.1-0.1-0.3-0.2-0.4-0.3 0.3-0.2 0.5-0.4 0.7-0.5 0.1 0.2 0.2 0.3 0.3 0.3z"></path><path fill="#181819" d="m16.3 26.5l-0.3-0.1c0.1-0.2 0.2-0.3 0.4-0.2 0 0.1 0 0.2-0.1 0.3z"></path><path fill="#5c7a91" d="m20 25c0.2 0.1 0.4 0.1 0.6 0.1v0.4c-0.1 0-0.2 0-0.3-0.1-0.1 0.3-0.3 0.4-0.6 0.4 0-0.1-0.1-0.2-0.1-0.3 0.1-0.1 0.3-0.3 0.4-0.5z"></path><path fill="#3b5e8a" d="m16.6 25c0.3 0 0.5 0.1 0.4 0.5-0.3 0-0.4-0.1-0.4-0.5z"></path><path fill="#426e85" d="m14.9 25.1h0.3c0 0.5-0.2 0.5-0.3 0z"></path><path fill="#b3d9e5" d="m22 24.4c0.1 0.1 0.2 0.2 0.2 0.4-0.1 0.1-0.1 0.2-0.1 0.3-0.3 0.1-0.5-0.1-0.6-0.3 0.1-0.2 0.3-0.4 0.5-0.4z"></path><path fill="#43474d" d="m12.2 23.3c0.1 0.1 0.1 0.3 0.1 0.4-0.2 0.2-0.3 0.1-0.3-0.1 0-0.2 0.1-0.2 0.2-0.3z"></path><path fill="#516979" d="m13.8 23.6c-0.4-0.2-0.4-0.3 0-0.4v0.4z"></path><path fill="#75b1cb" d="m23.3 22.2h0.6c0 0.3-0.2 0.4-0.4 0.5-0.3-0.1-0.3-0.3-0.2-0.5z"></path><path fill="#559ac1" d="m8 26.8c0.4 0 0.6 0.1 0.6 0.5-0.6 0.2-0.7 0-0.6-0.5z"></path><path fill="#4a95b1" d="m13.3 27.7h-0.2c-0.1-0.1-0.1-0.3-0.1-0.5 0.6-0.1 0.7 0.1 0.3 0.5z"></path><path fill="#939392" d="m19.9 27.6v-0.1c0.3-0.1 0.6-0.1 1 0 0 0.2 0 0.4-0.1 0.6-0.2-0.4-0.5-0.6-0.9-0.5z"></path><path fill="#3d454c" d="m11.5 27.6c0.4 0 0.4 0.1 0.2 0.4-0.1-0.1-0.2-0.2-0.2-0.4z"></path><path fill="#1a1b1d" d="m19.9 27.5v0.1c-0.2 0.1-0.4 0.3-0.4 0.5-0.1 0.4-0.1 0.8 0.1 1.2-0.7-0.5-0.7-1.1-0.1-1.7 0.1 0 0.2-0.1 0.4-0.1z"></path><path fill="#283a52" d="m27.6 28.5c0.8 0 0.9 0.3 0.6 0.9-0.8 0.1-1-0.2-0.6-0.9z"></path><path fill="#939291" d="m20.2 29.5h-0.3l-0.3-0.2c0.6 0.2 1 0.1 1.2-0.4 0 0.4-0.2 0.6-0.6 0.6z"></path><path fill="#f5f3eb" d="m15.6 27.4l-0.2 0.2c-0.6 0.4-0.8 0.9-0.4 1.5 0.1 0.1 0.2 0.2 0.4 0.2-0.3-0.5-0.3-1 0-1.6 0.4-0.2 0.8-0.1 1.1 0.3 0.1-0.2 0.1-0.3 0.1-0.4l0.6 0.2c-0.3 0.5-0.3 0.9 0 1.4 0.1 0.1 0.2 0.1 0.3 0.1-0.2-0.4-0.3-0.8-0.2-1.2 0.1-0.3 0.3-0.4 0.5-0.5 0.4 0 0.6 0.1 0.8 0.4 0.2 0.1 0.3 0.1 0.5 0.1v-0.4c-0.2 0.1-0.3 0-0.4-0.2 0.2 0 0.3-0.1 0.3-0.2 0.1 0.2 0.3 0.3 0.5 0.3-0.6 0.6-0.6 1.2 0.1 1.7l0.3 0.2c-0.1 0.1-0.2 0.2-0.2 0.4-0.2-0.1-0.3 0-0.5 0.1 0 0 0 0.1 0.1 0.2-0.1 0-0.3 0-0.3 0.1-0.7-0.3-1.4-0.3-2.1 0-0.2-0.2-0.4-0.3-0.7-0.4-0.5 0.1-1.1 0.1-1.6 0-0.2-0.2-0.1-0.4 0.1-0.5-0.1-0.2-0.2-0.4-0.4-0.5 0.5-0.1 0.5-0.3 0-0.4 0.2-0.1 0.2-0.2 0-0.3 0.1-0.5-0.1-0.5-0.3-0.2-0.2-0.2-0.3-0.3-0.4-0.3 0.1-0.1 0.2-0.2 0.3-0.3 0.2-0.1 0.5-0.2 0.8-0.1 0.1 0.2 0.2 0.3 0.4 0.3 0-0.1 0-0.3-0.1-0.4 0.2-0.2 0.4-0.2 0.6-0.1-0.1 0.1-0.1 0.2 0 0.3z"></path><path fill="#9c9c99" d="m17.5 29.3c0.5 0.1 0.9 0 1.2-0.4 0.1 0.2-0.1 0.5-0.4 0.6-0.3 0.1-0.6 0-0.8-0.2z"></path><path fill="#a09f9a" d="m15.4 29.3c0.4 0.1 0.7 0 1-0.2l0.1 0.1c-0.4 0.4-0.7 0.4-1.1 0.1z"></path><path fill="#1d1e20" d="m17.8 27.5v0.1c-0.2 0.1-0.4 0.2-0.5 0.5-0.1 0.4 0 0.8 0.2 1.2-0.1 0-0.2 0-0.3-0.1-0.3-0.5-0.3-0.9 0-1.4 0.1-0.2 0.4-0.3 0.6-0.3z"></path><path fill="#18191a" d="m15.4 27.6v0.1c-0.3 0.6-0.3 1.1 0 1.6-0.2 0-0.3-0.1-0.4-0.2-0.4-0.6-0.2-1.1 0.4-1.5z"></path><path fill="#7c8c95" d="m18.7 27.5c0.1 0.2 0.2 0.3 0.4 0.2v0.4c-0.2 0-0.3 0-0.5-0.1-0.2-0.3-0.4-0.4-0.8-0.4v-0.1c0.3 0 0.6 0 0.9 0z"></path><path fill="#8e8e8c" d="m15.6 27.4c0.3 0 0.7 0.1 1 0.2 0 0.1 0 0.2-0.1 0.4-0.3-0.4-0.7-0.5-1.1-0.3v-0.1l0.2-0.2z"></path><path fill="#999998" d="m26 30.8c-0.9-0.6-2-0.6-3-0.1 0.4-0.4 0.9-0.6 1.5-0.6 0.6 0 1.1 0.2 1.5 0.7z"></path><path fill="#9e9e9d" d="m12.5 30.4c-0.7-0.1-1.4-0.1-2.1 0 0.7-0.4 1.4-0.4 2.1 0z"></path><path fill="#9b9b9b" d="m33 31.3c-0.2 0-0.4 0.1-0.4 0.3l-0.5-0.2c0.2 0 0.4-0.2 0.6-0.3-0.7-0.7-1.5-1-2.5-0.7-0.2 0-0.4 0.1-0.6 0.1 1-0.6 1.9-0.6 2.9 0.1 0.2 0.2 0.4 0.4 0.5 0.7z"></path><path fill="#989897" d="m6.5 30.7c-1-0.5-2-0.5-3 0 0.7-0.6 1.5-0.8 2.4-0.4 0.2 0 0.4 0.2 0.6 0.4z"></path><path fill="#898989" d="m12.5 30.4c0.4 0 0.6 0.2 0.7 0.5-0.2-0.1-0.5-0.3-0.7-0.5z"></path><path fill="#959595" d="m19 30.3c0.6 0.3 1.1 0.8 1.3 1.5-1-1.6-2.3-1.9-3.9-0.9 0-0.3 0.2-0.5 0.5-0.6 0.7-0.3 1.4-0.3 2.1 0z"></path><path fill="#888" d="m6.5 30.7c0.3 0 0.5 0.2 0.5 0.5-0.2-0.1-0.4-0.3-0.5-0.5z"></path><path fill="#919393" d="m29.6 30.5c-0.1 0.3-0.3 0.4-0.5 0.5 0.1-0.2 0.3-0.4 0.5-0.5z"></path><path fill="#858584" d="m3.5 30.7c-0.1 0.2-0.3 0.4-0.5 0.5 0.1-0.3 0.2-0.5 0.5-0.5z"></path><path fill="#888988" d="m13.2 30.9c0.3 0.1 0.4 0.3 0.5 0.5-0.3-0.1-0.4-0.3-0.5-0.5z"></path><path fill="#858584" d="m23 30.7c-0.2 0.2-0.4 0.4-0.7 0.6 0.1-0.3 0.4-0.5 0.7-0.6z"></path><path fill="#8d8d8d" d="m10.4 30.4c-1.3 1-1.7 2.2-1.1 3.7-0.7-1.3-0.4-2.5 0.7-3.5 0.1-0.1 0.2-0.1 0.4-0.2z"></path><path fill="#8b8b8b" d="m3 31.2c-0.4 0.8-0.5 1.6-0.4 2.4-0.2-0.5-0.2-1-0.1-1.5 0.1-0.3 0.2-0.6 0.5-0.9z"></path><path fill="#f4f4f4" d="m26 30.8c0.3 0 0.5 0 0.7 0.1-0.1 0.1-0.1 0.1-0.2 0.2 0.1 0.1 0.1 0.2 0.1 0.3 0.2 0.6 0.3 1.1 0.3 1.6-0.1 0.4-0.3 0.8-0.4 1.1-0.3 0.2-0.5 0.5-0.7 0.7-1 0.5-2 0.5-2.9-0.1 0-0.1 0.1-0.2 0.2-0.3 0.9 0 1.8-0.1 2.6-0.1 0.1-1 0.2-2 0.1-3.1-0.7 0-1.5 0-2.3-0.1-0.1 0.1-0.3 0.1-0.4 0.2-0.1 1-0.1 2-0.1 3-0.2 0.1-0.4 0.1-0.6 0-0.5-0.1-0.7-0.4-0.5-0.8 0.1 0.1 0.2 0.2 0.3 0.4l0-0.2c-0.2-0.6-0.3-1.3-0.1-1.9 0-0.2 0.1-0.4 0.2-0.5 0.3-0.2 0.5-0.4 0.7-0.6 1-0.5 2.1-0.5 3 0.1z"></path><path fill="#878787" d="m3.8 31.1c0.8 0 1.7 0 2.5 0.1 0.1 1.1 0.1 2.1-0.1 3.1-0.8 0.1-1.7 0.1-2.5 0-0.1-1.1-0.1-2.2 0.1-3.2z"></path><path fill="#a8a8a8" d="m32.1 31.4c-0.1 0.3-0.2 0.4-0.4 0.6-0.1-0.1-0.1-0.3 0-0.4-0.7-0.1-1.4 0-2.1 0.1-0.1 0.7-0.1 1.5-0.1 2.2-0.1-0.7-0.1-1.5 0-2.3l0.1-0.2 1.1-0.1c0.4 0 0.8 0.1 1.2 0.3 0.1-0.1 0.1-0.1 0.2-0.2z"></path><path fill="#868686" d="m12.4 32.1c0.1-0.1 0-0.3-0.1-0.4l-2.2-0.1c0.8-0.1 1.5-0.1 2.3 0 0.2 0.2 0.2 0.4 0 0.5z"></path><path fill="#898a89" d="m26.6 31.4c0.2 0.3 0.4 0.6 0.4 0.9 0.1 0.3 0.1 0.5-0.1 0.7 0-0.5-0.1-1-0.3-1.6z"></path><path fill="#898988" d="m30 32.1c0.1 0 0.3 0 0.4 0.1 0.2 0.2 0.4 0.3 0.6 0.4l-0.2 0.2c-0.2-0.2-0.4-0.4-0.6-0.6-0.4 0.5-0.5 0.5-0.2-0.1z"></path><path fill="#f3f3f3" d="m3.9 31.2c0.3 0 0.5 0.1 0.8 0.2 0.2-0.2 0.4-0.2 0.6-0.1-0.1 0-0.1 0.1 0 0.1 0.3-0.2 0.6-0.2 0.9-0.1 0.1 1 0.1 2-0.1 2.9-0.7 0.1-1.5 0.1-2.3-0.1-0.1-0.9 0-1.9 0.1-2.9z"></path><path fill="#a2a2a2" d="m4.1 31.8c0.6 0 1.1 0 1.7 0-1.1 0.1-1.1 0.2 0 0.3-0.2 0.1-0.4 0.2-0.6 0.2-0.3 0-0.7 0-1.1 0v-0.5z"></path><path fill="#f3f2f3" d="m4.3 31.9h0.4v0.3h-0.4v-0.3z"></path><path fill="#888" d="m25.7 34.3c-0.1 0-0.1-0.1-0.1-0.2 0.1-0.6 0.1-1.4 0.1-2.1h-2.6c0 0.7 0 1.5 0.1 2.1 0 0.1-0.1 0.2-0.2 0.2 0-1 0-2 0.1-3 0.1-0.1 0.3-0.1 0.4-0.2 0.8 0.1 1.6 0.1 2.3 0.1 0.1 1.1 0 2.1-0.1 3.1z"></path><path fill="#f1f0f0" d="m23.1 31.3c0.8 0 1.7 0 2.5 0 0.1 0.2 0.1 0.4 0.1 0.6-0.8 0-1.6 0-2.5-0.1-0.1-0.1-0.1-0.3-0.1-0.5z"></path><path fill="#a2a2a2" d="m29.1 31c-0.7 1-0.7 2-0.2 3.1-0.4-0.3-0.6-0.8-0.6-1.3 0.1-0.5 0.2-1 0.3-1.5 0.2-0.1 0.3-0.2 0.5-0.3z"></path><path fill="#848483" d="m20.3 31.8c0.4 0.9 0.3 1.8-0.4 2.6 0.2-0.4 0.3-0.8 0.5-1.2 0-0.4 0-0.9-0.1-1.4z"></path><path fill="#888" d="m33 31.3c0.2 0.2 0.4 0.4 0.4 0.7 0.1 0.6 0.1 1.1-0.1 1.7 0.1-0.8 0-1.6-0.3-2.4z"></path><path fill="#9c9c9b" d="m13.7 31.4c0.6 1 0.5 1.9-0.1 2.7 0.4-0.8 0.4-1.7 0.1-2.7z"></path><path fill="#a0a0a0" d="m15.9 31.1c0.1 0 0.1 0.1 0.1 0.1-0.1 0.2-0.3 0.5-0.4 0.7 0 0.6 0 1.3 0 1.9-0.4-0.9-0.3-1.9 0.3-2.7z"></path><path fill="#90908f" d="m32.6 31.6c0.1 0 0.1 0.2 0 0.3l-1.6 1.6c-0.3 0.1-0.5 0-0.5-0.4 0.1 0.2 0.3 0.3 0.5 0.2 0.6-0.5 1.1-1.1 1.6-1.7z"></path><path fill="#f5f5f5" d="m25.6 34.1h-2.4c-0.1-0.6-0.1-1.4-0.1-2.1h2.6c0 0.7 0 1.5-0.1 2.1z"></path><path fill="#878786" d="m23.5 32.9h0.5v0.3c-0.2 0.2-0.3 0.2-0.5 0 0.1 0.1 0.3 0 0.4-0.1-0.2 0-0.3-0.1-0.4-0.2z"></path><path fill="#c7c7c7" d="m24.9 32.3c0.2 0 0.3 0.1 0.5 0.2-0.2 0-0.3 0.1-0.5 0.2 0.2 0.1 0.4 0.1 0.6 0v0.7c-0.5-0.1-1-0.2-1.5-0.2v-0.3h-0.5c-0.2-0.2-0.2-0.4 0-0.6 0.4-0.1 0.9-0.1 1.4 0z"></path><path fill="#949494" d="m25.5 32.7c-0.2 0.1-0.4 0.1-0.6 0 0.2-0.1 0.3-0.2 0.5-0.2-0.2-0.1-0.3-0.2-0.5-0.2 0.4-0.2 0.6 0 0.6 0.4z"></path><path fill="#8e8e8e" d="m13 33.2c0.1 0.4 0.2 0.7 0.2 1.1-0.2-0.4-0.3-0.7-0.2-1.1z"></path><path fill="#8a8a89" d="m22.1 31.8c-0.2 0.6-0.1 1.3 0.1 2l0 0.1c-0.1-0.2-0.2-0.3-0.3-0.4 0-0.5 0-1 0-1.5 0.1-0.1 0.1-0.2 0.2-0.2z"></path><path fill="#bebebe" d="m5.5 32.6h0.4c0 0.4 0 0.8-0.1 1.2-0.5 0.2-1.1 0.2-1.6 0-0.1-0.2-0.1-0.4-0.1-0.7h0.5v-0.3c0.3 0 0.5 0.1 0.8 0.2 0.1-0.1 0.1-0.3 0.1-0.4z"></path><path fill="#979797" d="m12.4 32.1c-0.1 0.1-0.2 0.3-0.3 0.5l0.1 0.2c0-0.2 0.1-0.2 0.2-0.2 0.3 0.1 0.5 0.4 0.6 0.6-0.1 0-0.2-0.1-0.3-0.2l-0.2 0.2c-0.2-0.1-0.5-0.3-0.7-0.5 0 0.1 0 0.3 0.1 0.4 0.2 0.4 0.4 0.7 0.6 0.9-0.1-0.1-0.3-0.1-0.4-0.2-0.6 0.1-1.1 0.2-1.7 0.1 0-0.5 0-1-0.1-1.6-0.3-0.2-0.3-0.2 0-0.1 0.1-0.1 0.1-0.2 0-0.3 0.6 0 1.3 0 1.9 0-0.1 0.1-0.1 0.2-0.1 0.3 0.1-0.1 0.2-0.1 0.3-0.1z"></path><path fill="#f5f5f5" d="m11.9 33.1c-0.1 0.6-0.5 0.8-1 0.6-0.1-0.1-0.1-0.2-0.2-0.2-0.1-0.5-0.1-1-0.1-1.5h1.3c0 0.3-0.1 0.6-0.3 0.8 0 0.2 0.1 0.3 0.3 0.3z"></path><path fill="#8e8e8e" d="m11.2 32.1c0.2 0.1 0.2 0.2 0.1 0.4 0.3 0.2 0.3 0.4 0 0.6-0.4-0.1-0.4-0.2-0.1-0.4-0.3-0.2-0.3-0.4 0-0.6z"></path><path fill="#858585" d="m18.7 34.3c0.1-0.2 0.2-0.3 0.1-0.5h-1.8v0.3c-0.1-1-0.1-1.8 0-2.4h1.8c0.1-0.2 0-0.3-0.1-0.4l-1.5-0.1c0.5-0.1 1.1-0.1 1.7 0l0.1 1.5c0 0.6-0.1 1.1-0.3 1.6z"></path><path fill="#f0f0f0" d="m17 31.8h1.8v1.9h-1.8v-1.9z"></path><path fill="#a5a5a5" d="m17.7 32.2c0.5 0 0.7 0.1 0.6 0.6 0.1-0.1 0.1-0.2 0.1-0.3h0.3c0 0.2-0.1 0.4-0.3 0.5-0.1 0-0.3 0-0.4-0.1-0.3 0.2-0.5 0.3-0.8 0.3 0.1-0.2 0.3-0.3 0.5-0.3-0.1-0.3-0.1-0.5 0-0.7z"></path><path fill="#8c8c8b" d="m26.9 33c0.1 0.5-0.1 0.9-0.4 1.1 0.1-0.3 0.3-0.7 0.4-1.1z"></path><path fill="#f4f4f4" d="m18.7 34.3c-0.5 0-1.1-0.1-1.7-0.2v-0.3h1.8c0.1 0.2 0 0.3-0.1 0.5z"></path><path fill="#838382" d="m23.5 33.6c0.1-0.1 0.3-0.2 0.5-0.1v0.4c-0.6 0-0.7 0-0.1-0.2-0.1-0.1-0.3-0.1-0.4-0.1z"></path><path fill="#979796" d="m24.1 33.5h0.6v0.4h-0.6v-0.4z"></path><path fill="#9b9b9a" d="m7 31.2c0.4 0.4 0.6 0.9 0.6 1.5 0 0.6-0.2 1.2-0.6 1.7 0.1-0.3 0.2-0.6 0.3-0.9 0.1-0.8 0.1-1.6-0.3-2.3z"></path><path fill="#838382" d="m29.5 33.9c0.9 0.1 1.8 0.2 2.6 0.1l-1.3 0.1c-0.5 0-0.9 0-1.3-0.2z"></path><path fill="#7d7d7d" d="m2.6 33.6c0.2 0.3 0.4 0.6 0.6 0.9-0.4-0.2-0.5-0.5-0.6-0.9z"></path><path fill="#808080" d="m15.8 34c0.7 0.9 1.6 1.3 2.7 1.2-1.2 0.3-2.1-0.1-2.7-1.2z"></path><path fill="#b1b2b2" d="m23.2 34.1h2.4c0 0.1 0 0.2 0.1 0.2-0.8 0-1.7 0.1-2.6 0.1-0.1 0.1-0.2 0.2-0.2 0.3-0.3 0-0.4-0.2-0.5-0.4 0.2 0.1 0.4 0.1 0.6 0 0.1 0 0.2-0.1 0.2-0.2z"></path><path fill="#6e6e6e" d="m17 34.1c0.6 0.1 1.2 0.2 1.7 0.2-0.5 0.1-1 0.1-1.5 0-0.1 0-0.1-0.1-0.2-0.2z"></path><path fill="#7d7d7d" d="m28.9 34.1c0.2 0.2 0.4 0.5 0.6 0.7-0.3-0.1-0.5-0.3-0.6-0.7z"></path><path fill="#818181" d="m13.6 34.1c-0.2 0.4-0.4 0.6-0.7 0.7 0.2-0.2 0.4-0.5 0.7-0.7z"></path><path fill="#818180" d="m26.5 34.1c-0.1 0.4-0.3 0.6-0.7 0.7 0.2-0.2 0.4-0.5 0.7-0.7z"></path><path fill="#858585" d="m3.2 34.5c0.3 0.2 0.6 0.3 0.9 0.5 0.3 0.1 0.7 0.1 1 0.2 0.5-0.1 1-0.3 1.5-0.4-1 0.6-2 0.6-3.1 0.1-0.1-0.1-0.2-0.3-0.3-0.4z"></path><path fill="#8f8f8e" d="m12.9 34.8c-0.4 0.4-0.9 0.5-1.4 0.5-0.5 0-0.8-0.1-1.2-0.3 0.4 0 0.7 0.1 1.1 0.2 0.5-0.1 1-0.2 1.5-0.4z"></path><path fill="#8f8f8f" d="m22.9 34.7c0.9 0.6 1.9 0.6 2.9 0.1-0.1 0.2-0.4 0.4-0.7 0.4-0.6 0.1-1.2 0.1-1.8 0.1-0.1-0.1-0.2-0.2-0.3-0.2l0.1-0.1c-0.1-0.1-0.2-0.2-0.2-0.3z"></path><path fill="#848484" d="m29.5 34.8c0.5 0.2 0.9 0.3 1.4 0.4 0.4-0.1 0.8-0.1 1.2-0.2-0.6 0.3-1.3 0.3-2 0.2-0.2-0.1-0.4-0.2-0.6-0.4z"></path></svg>