<?xml version="1.0"?><svg xmlns="http://www.w3.org/2000/svg" width="36" height="36" shape-rendering="geometricPrecision" text-rendering="geometricPrecision" image-rendering="optimizeQuality" fill-rule="evenodd" clip-rule="evenodd" viewBox="0 0 36 36"><path fill="#080d10" d="m28.2 3.6c-0.6 0.3-0.8 0.7-0.8 1.4 1 0.8 1.9 1.7 2.6 2.7-5.2-5.5-11.3-6.9-18.4-4.3-3.2 1.5-5.7 3.8-7.5 6.8-0.1-0.2 0-0.4 0.2-0.6-0.2-0.1-0.4-0.2-0.6-0.4-0.1 0.1-0.3 0.2-0.5 0.2 0 0.1-0.1 0.3-0.2 0.4-0.2-0.1-0.5-0.1-0.8 0 4.1-7.1 10.3-10.2 18.5-9.4 2.8 0.5 5.3 1.5 7.5 3.2z" opacity=".983"></path><path fill="#e9eaea" d="m30 7.7c0.7 0.9 1.3 1.9 2 2.9 0.5 1.3 1 2.6 1.4 4 0.2 2 0.2 4 0 6-0.4 1.6-0.9 3.2-1.7 4.8-0.2 0-0.4 0-0.6-0.2 0.4-0.5 0.6-1.2 0.9-1.8 2.2-6.5 0.9-12.1-3.9-16.9-0.4-0.3-0.8-0.6-1.2-0.8-4.2-3.1-8.8-3.9-13.9-2.3-2.6 0.9-4.8 2.4-6.6 4.5-1 1.1-1.8 2.4-2.4 3.8-0.3 0.6-0.6 1.3-0.7 2-0.7 2.7-0.7 5.4 0 8 0.3 1.6 0.9 3 1.8 4.2 0.5 0.8 0.9 1.5 1.5 2.2 0.4 0.5 0.9 0.9 1.5 1.2 0.5 0.5 1 0.9 1.5 1.3 5 2.9 10.2 3.2 15.5 0.7 0.1 0.1 0.2 0.2 0.1 0.4-5.4 2.6-10.8 2.4-16-0.7-1.8-1.3-3.3-2.9-4.6-4.6-0.9-1.5-1.5-3.1-2-4.8-0.9-4-0.4-7.8 1.5-11.4 1.8-3 4.3-5.3 7.5-6.8 7.1-2.6 13.2-1.2 18.4 4.3z"></path><path fill="#0a0d12" d="m26.9 5.7c-0.3-0.1-0.5-0.2-0.7-0.4-0.3 0.5-0.2 0.8 0.4 1 0 0.4 0.1 0.9 0.3 1.3-0.2 0.6-0.3 1.3-0.3 2-0.1-0.1-0.2-0.1-0.4 0l3.6 2.4c0.1 1 0.1 1.9 0.1 2.8v5.4c0 1.1 0 2.1-0.1 3.2 0-3.8-0.1-7.5-0.2-11.2-3.8-2.7-7.7-5.3-11.6-7.9-1.6 1-3.3 2-4.9 3.1-0.5-0.1-0.9-0.4-1.1-0.9l-0.2 0.3c-0.1-0.2-0.2-0.4-0.2-0.7-0.2 0-0.4 0-0.6-0.1-0.2 0.1-0.3 0.2-0.5 0.4-0.1-0.3-0.2-0.5-0.4-0.7-0.4 0.2-0.9 0.3-1.5 0.3-0.7 0.7-1.4 1.3-2.2 1.9 1.8-2.1 4-3.6 6.6-4.5 5.1-1.6 9.7-0.8 13.9 2.3z"></path><path fill="#eceded" d="m29.6 12.2c0 3.8 0 7.6-0.1 11.4-1.2 0.6-2.3 1.4-3.3 2.2-2.8 1.8-5.5 3.6-8.3 5.5-0.7-0.6-1.5-1.1-2.4-1.6-3-2.1-6-4.1-9.1-6.1-0.1-3.8-0.2-7.6-0.1-11.4l0.5-0.6c0.2 0 0.3 0 0.3-0.1 1.8-1.2 3.5-2.3 5.2-3.6 0.3-0.1 0.6-0.3 0.8-0.5 1.6-1.1 3.3-2.1 4.9-3.1 3.9 2.6 7.8 5.2 11.6 7.9z"></path><path fill="#05231e" d="m28.2 3.6c0.7 0.4 1.4 0.9 2 1.5 0.4 0.3 0.7 0.7 0.9 1.2-0.1 0.2-0.3 0.1-0.3-0.2l-0.1 0.2c0.2 0.3 0.4 0.6 0.4 0.9-0.1 0.4-0.1 0.8 0 1.2l-0.2 0.2c0.5 0.6 0.8 1.3 1.1 2-0.7-1-1.3-2-2-2.9-0.7-1-1.6-1.9-2.6-2.7 0-0.7 0.2-1.1 0.8-1.4z"></path><path fill="#081416" d="m13.1 7.4c-0.2 0.2-0.5 0.4-0.8 0.5-0.2 0-0.2-0.1 0-0.2-0.2 0-0.5-0.1-0.7-0.2 0.3-0.1 0.3-0.2 0.1-0.4-0.4 0.2-0.8 0.2-1.2 0-0.3 0.1-0.6 0.2-1 0.3-0.1 0.3-0.2 0.7-0.4 1-0.5 0-0.6 0.2-0.3 0.5 0 0.2-0.1 0.4-0.3 0.5-0.3-0.3-0.7-0.4-1-0.3-0.4-0.3-0.7-0.5-1.1-0.7-0.2 0.1-0.3 0.2-0.4 0.4-0.7 0.9-1.4 1.9-2 2.9 0.6-1.4 1.4-2.7 2.4-3.8 0.8-0.6 1.5-1.2 2.2-1.9 0.6 0 1.1-0.1 1.5-0.3 0.2 0.2 0.3 0.4 0.4 0.7 0.2-0.2 0.3-0.3 0.5-0.4 0.2 0.1 0.4 0.1 0.6 0.1 0 0.3 0.1 0.5 0.2 0.7l0.2-0.3c0.2 0.5 0.6 0.8 1.1 0.9z"></path><path fill="#090d16" d="m17.5 5.1c0-0.1 0.1-0.1 0.1-0.1 0.2 0 0.3 0 0.5 0.1 1 0.6 1.9 1.3 2.8 2 0 0.1-0.1 0.2-0.2 0.2 0.3 0.2 0.6 0.2 0.8 0.1l0.2 0.2c0 0.2 0 0.3-0.1 0.5 0.1 0.2 0.2 0.3 0.3 0.1 0.4 0.4 0.6 0.4 0.6-0.1 0.6 0.2 0.6 0.5 0.1 0.7-0.3-0.1-0.6-0.2-0.9-0.3 0.1 0.2 0 0.4-0.3 0.4-0.5-0.2-1.1-0.4-1.6-0.7-0.3 0.1-0.5 0.3-0.8 0.4-0.2-0.5-0.3-0.5-0.4 0-0.3 0.2-0.7 0.4-1.1 0.5-0.5-0.1-0.9-0.3-1.3-0.5-0.2 0.1-0.4 0.1-0.6 0.2-0.1-0.2-0.3-0.4-0.5-0.5 0.3-0.1 0.3-0.2 0.2-0.4-0.3 0.1-0.5 0.3-0.7 0.5-0.2-0.2-0.4-0.4-0.6-0.5 0.2-0.2 0.3-0.4 0.4-0.6l3.1-2c0.2-0.1 0.2-0.1 0-0.2z"></path><path fill="#052b24" d="m31.1 6.3c2.4 2.4 3.8 5.4 4.3 8.8-0.4 0.1-0.7 0-1-0.3-0.5 0.3-0.8 0.2-1-0.2-0.4-1.4-0.9-2.7-1.4-4-0.3-0.7-0.6-1.4-1.1-2l0.2-0.2c-0.1-0.4-0.1-0.8 0-1.2 0-0.3-0.2-0.6-0.4-0.9l0.1-0.2c0 0.3 0.2 0.4 0.3 0.2z"></path><path fill="#091b1b" d="m12.3 7.9c-1.7 1.3-3.4 2.4-5.2 3.6-0.2-0.1-0.2-0.2 0-0.2 0.6-0.4 1.2-0.9 1.8-1.3-0.2-0.1-0.3 0-0.5 0.2-0.3-0.3-0.7-0.4-1.1-0.3-0.1-0.2-0.3-0.3-0.5-0.4-0.2 0.1-0.4 0.2-0.5 0.1 0.3-0.2 0.3-0.3-0.2-0.2 0-0.3 0-0.4-0.1-0.6 0.1-0.2 0.2-0.3 0.4-0.4 0.4 0.2 0.7 0.4 1.1 0.7 0.3-0.1 0.7 0 1 0.3 0.2-0.1 0.3-0.3 0.3-0.5-0.3-0.3-0.2-0.5 0.3-0.5 0.2-0.3 0.3-0.7 0.4-1 0.4-0.1 0.7-0.2 1-0.3 0.4 0.2 0.8 0.2 1.2 0 0.2 0.2 0.2 0.3-0.1 0.4 0.2 0.1 0.5 0.2 0.7 0.2-0.2 0.1-0.2 0.2 0 0.2z"></path><path fill="#0c1418" d="m27.9 11.6c-1-0.6-2.1-1.2-3.1-2-0.7 0.3-1.5 0.3-2.3 0-0.1 0.2-0.2 0.2-0.4 0.3l-0.9-0.3c-0.4 0.1-0.9 0.1-1.3 0-0.1 0.6-0.3 1.1-0.8 1.4-0.3-0.2-0.7-0.4-1-0.5l-0.2 0.1c0.6 0.3 0.5 0.3-0.1 0.2-0.3-0.1-0.7-0.3-1-0.5-0.1-0.1-0.2-0.2-0.1-0.4-0.5-0.2-0.9-0.4-1.4-0.5l0.4-0.1c-0.4-0.2-0.8-0.3-1.1-0.3-0.4-0.4-0.8-0.6-1.2-0.5-0.1-0.1-0.2-0.2-0.3-0.3-0.2 0.2-0.5 0.4-0.7 0.6-1 0.6-2 1.2-3 2 0-0.1-0.1-0.1 0-0.2 2.6-1.9 5.3-3.7 8.1-5.5 0.2 0.1 0.2 0.1 0 0.2l-3.1 2c-0.1 0.2-0.2 0.4-0.4 0.6 0.2 0.1 0.4 0.3 0.6 0.5 0.2-0.2 0.4-0.4 0.7-0.5 0.1 0.2 0.1 0.3-0.2 0.4 0.2 0.1 0.4 0.3 0.5 0.5 0.2-0.1 0.4-0.1 0.6-0.2 0.4 0.2 0.8 0.4 1.3 0.5 0.4-0.1 0.8-0.3 1.1-0.5 0.1-0.5 0.2-0.5 0.4 0 0.3-0.1 0.5-0.3 0.8-0.4 0.5 0.3 1.1 0.5 1.6 0.7 0.3 0 0.4-0.2 0.3-0.4 0.3 0.1 0.6 0.2 0.9 0.3 0.5-0.2 0.5-0.5-0.1-0.7 0 0.5-0.2 0.5-0.6 0.1-0.1 0.2-0.2 0.1-0.3-0.1 0.1-0.2 0.1-0.3 0.1-0.5l-0.2-0.2c-0.2 0.1-0.5 0.1-0.8-0.1 0.1 0 0.2-0.1 0.2-0.2-0.9-0.7-1.8-1.4-2.8-2-0.2-0.1-0.3-0.1-0.5-0.1 0.1-0.2 0.3-0.3 0.5-0.2 3.3 2.2 6.6 4.5 9.8 6.8z"></path><path fill="#07211e" d="m26.9 5.7c0.4 0.2 0.8 0.5 1.2 0.8 4.8 4.8 6.1 10.4 3.9 16.9-0.1 0-0.2-0.1-0.1-0.3 0.1-0.2 0.1-0.5 0-0.8h0.4c0-0.5 0.1-0.9 0.3-1.3-0.1-0.3-0.2-0.6-0.2-0.8h-0.4c0-0.7-0.1-1.3-0.4-1.8 0-0.1 0-0.2 0.1-0.3-0.2-0.2-0.4-0.4-0.7-0.6-0.1 0.1-0.2 0.2-0.2 0.3 0-0.7-0.3-1.2-0.7-1.7 0-0.4-0.1-0.9-0.2-1.3 0-0.9 0-1.8-0.1-2.8l-3.6-2.4c0.2-0.1 0.3-0.1 0.4 0 0-0.7 0.1-1.4 0.3-2-0.2-0.4-0.3-0.9-0.3-1.3-0.6-0.2-0.7-0.5-0.4-1 0.2 0.2 0.4 0.3 0.7 0.4z"></path><path fill="#071c1c" d="m27.9 11.6c-4 0.1-8.1 0.2-12.2 0.1-0.1-0.2-0.3-0.3-0.6-0.2v-0.5c-0.3 0-0.6-0.2-0.8-0.3l0.1-0.2c-0.1 0-0.3-0.2-0.4-0.3-0.1 0.1-0.2 0.2-0.2 0.3-0.1-0.2-0.1-0.5-0.2-0.7-0.5 0-0.9-0.3-1.3-0.7 0.1-0.1 0.2-0.2 0.1-0.3 0.2-0.2 0.5-0.4 0.7-0.6 0.1 0.1 0.2 0.2 0.3 0.3 0.4-0.1 0.8 0.1 1.2 0.5 0.3 0 0.7 0.1 1.1 0.3l-0.4 0.1c0.5 0.1 0.9 0.3 1.4 0.5-0.1 0.2 0 0.3 0.1 0.4 0.3 0.2 0.7 0.4 1 0.5 0.6 0.1 0.7 0.1 0.1-0.2l0.2-0.1c0.3 0.1 0.7 0.3 1 0.5 0.5-0.3 0.7-0.8 0.8-1.4 0.4 0.1 0.9 0.1 1.3 0l0.9 0.3c0.2-0.1 0.3-0.1 0.4-0.3 0.8 0.3 1.6 0.3 2.3 0 1 0.8 2.1 1.4 3.1 2z"></path><path fill="#062b24" d="m12.4 8.8c0.1 0.1 0 0.2-0.1 0.3 0.4 0.4 0.8 0.7 1.3 0.7 0.1 0.2 0.1 0.5 0.2 0.7 0-0.1 0.1-0.2 0.2-0.3 0.1 0.1 0.3 0.3 0.4 0.3l-0.1 0.2c0.2 0.1 0.5 0.3 0.8 0.3v0.5c0.3-0.1 0.5 0 0.6 0.2-2.7 0.1-5.3 0-7.9-0.1 0.5-0.4 1-0.7 1.6-1-0.1 0.1 0 0.1 0 0.2 1-0.8 2-1.4 3-2z"></path><path fill="#000402" d="m7.8 11.6c2.6 0.1 5.2 0.2 7.9 0.1 4.1 0.1 8.2 0 12.2-0.1 0.2 0 0.3 0.1 0.4 0.1-6.9 0.2-13.8 0.2-20.8 0l0.3-0.1z"></path><path fill="#416861" d="m7.5 11.7c7 0.2 13.9 0.2 20.8 0 0.1 0.1 0.2 0.2 0.3 0.3-1.6 0-3.3 0-4.9 0h-11.4c-1.7 0-3.4 0-5.1 0 0.1-0.1 0.2-0.2 0.3-0.3z"></path><path fill="#c3fffe" d="m12.3 12h11.4l-0.7 0.3h-9.6l-1.1-0.3z"></path><path fill="#7ea6a0" d="m13.4 12.3h9.6c2 0 3.9 0 5.9 0.1 0 0.1-0.1 0.2-0.1 0.2-7.2-0.2-14.4-0.2-21.6 0 0 0-0.1-0.1-0.1-0.2 2.1-0.1 4.2-0.1 6.3-0.1z"></path><path fill="#030a07" d="m7.2 12.6c7.2-0.2 14.4-0.2 21.6 0l-0.7 0.3c-0.1 0-0.2 0-0.2-0.1l0.3-0.1c-2.1-0.1-4.1-0.1-6.2-0.1h-6c-2.8 0-5.5 0-8.2 0.1 0.9 0.5 1.7 1.1 2.4 1.7-1-0.6-2-1.2-3-1.8z"></path><path fill="#152523" d="m4.1 10.2c-1.9 3.6-2.4 7.4-1.5 11.4-0.5 0-0.9-0.2-1.2-0.6l-0.1 0.2-0.2-0.5c-0.2 0.2-0.4 0.2-0.6 0.3-0.7-3.9-0.1-7.7 1.7-11.2 0.3-0.1 0.6-0.1 0.8 0 0.1-0.1 0.2-0.3 0.2-0.4 0.2 0 0.4-0.1 0.5-0.2 0.2 0.2 0.4 0.3 0.6 0.4-0.2 0.2-0.3 0.4-0.2 0.6z"></path><path fill="#0a201f" d="m16 12.6h6c-0.1 0.1-0.2 0.2-0.4 0.2 0.2 0.2 0.4 0.2 0.5 0.2 0 0.2-0.1 0.4-0.1 0.6 0.2 0.7 0.4 1.5 0.4 2.4l0.2 0.4c0.1-0.2 0.3-0.2 0.4 0-1.7 1.1-3.4 2.2-5.1 3.4-2.6-1.8-5.2-3.6-7.7-5.4 1.2 0.7 2.4 1.5 3.5 2.3 0.2-0.3 0.5-0.4 0.9-0.3v-0.4h0.4l-0.3 0.8c0.5-0.1 1-0.2 1.4-0.4 0.4 0.1 0.8 0.3 1.1 0.5 0.1-0.5 0.2-0.9 0.3-1.4-0.2-0.2-0.3-0.4-0.3-0.7l-0.2 0.3c-0.1-0.2 0-0.4 0.2-0.5-0.1-0.6-0.4-1.1-0.8-1.5 0 0 0.1-0.1 0.1-0.2h-0.5c0.1-0.1 0.1-0.2 0-0.3z"></path><path fill="#0b2623" d="m6 8.8c0.1 0.2 0.1 0.3 0.1 0.6 0.5-0.1 0.5 0 0.2 0.2 0.1 0.1 0.3 0 0.5-0.1 0.2 0.1 0.4 0.2 0.5 0.4 0.4-0.1 0.8 0 1.1 0.3 0.2-0.2 0.3-0.3 0.5-0.2-0.6 0.4-1.2 0.9-1.8 1.3-0.2 0-0.2 0.1 0 0.2 0 0.1-0.1 0.1-0.3 0.1-0.3 0-0.5 0.2-0.8 0.4 0 1 0 2 0 3l-0.4 0.4c0.1 0.1 0.1 0.2 0 0.3-0.2-0.2-0.5-0.3-0.7-0.3-0.2-0.5-0.4-0.9-0.8-1.1-0.1-1.1-0.4-1.2-0.7-0.3-0.1-0.1-0.1-0.2-0.1-0.3 0.1-0.7 0.4-1.4 0.7-2 0.6-1 1.3-2 2-2.9z"></path><path fill="#182826" d="m6 15v7.6c-0.2-0.2-0.2-0.4-0.2-0.6-0.3 0-0.6-0.1-0.7-0.4-0.2 0.3-0.3 0.5-0.4 0.8-0.4 0-0.7-0.2-1.1-0.3-0.1-0.2-0.2-0.3-0.2-0.5-0.1 0-0.1 0.1-0.1 0.1-0.7-2.6-0.7-5.3 0-8 0 0.1 0 0.2 0.1 0.3 0.3-0.9 0.6-0.8 0.7 0.3 0.4 0.2 0.6 0.6 0.8 1.1 0.2 0 0.5 0.1 0.7 0.3 0.1-0.1 0.1-0.2 0-0.3l0.4-0.4z"></path><path fill="#9ca6a4" d="m6.8 13.4c-0.1 3.2-0.2 6.5-0.1 9.7-0.2-3.2-0.2-6.5 0-9.8 0.1 0 0.1 0.1 0.1 0.1z"></path><path fill="#052a23" d="m22 12.6c2.1 0 4.1 0 6.2 0.1l-0.3 0.1c0 0.1 0.1 0.1 0.2 0.1-1.7 1.1-3.4 2.3-5.1 3.5-0.1-0.2-0.3-0.2-0.4 0l-0.2-0.4c0-0.9-0.2-1.7-0.4-2.4 0-0.2 0.1-0.4 0.1-0.6-0.1 0-0.3 0-0.5-0.2 0.2 0 0.3-0.1 0.4-0.2z"></path><path fill="#121917" d="m28.2 14.1c-0.2-0.1-0.2-0.2 0-0.3-0.1-0.1-0.2-0.1-0.3 0-1.2 0.9-2.5 1.7-3.8 2.4 1.5-1.2 3.1-2.2 4.8-3.1-0.3 0.3-0.5 0.7-0.7 1z"></path><path fill="#092a24" d="m16 12.6c0.1 0.1 0.1 0.2 0 0.3h0.5c0 0.1-0.1 0.2-0.1 0.2 0.4 0.4 0.7 0.9 0.8 1.5-0.2 0.1-0.3 0.3-0.2 0.5l0.2-0.3c0 0.3 0.1 0.5 0.3 0.7-0.1 0.5-0.2 0.9-0.3 1.4-0.3-0.2-0.7-0.4-1.1-0.5-0.4 0.2-0.9 0.3-1.4 0.4l0.3-0.8h-0.4v0.4c-0.4-0.1-0.7 0-0.9 0.3-1.1-0.8-2.3-1.6-3.5-2.3-0.7-0.6-1.5-1.2-2.4-1.7 2.7-0.1 5.4-0.1 8.2-0.1z"></path><path fill="#072a23" d="m28.2 14.1l-1.4 2.3c-0.7 1.1-1.5 2.3-2.3 3.4 0-0.1 0-0.2 0-0.2-0.1 0.2-0.2 0.3-0.3 0.4l-0.9-0.9c0.1-0.1 0.1-0.2 0.1-0.3-0.4-0.5-0.6-1.1-0.5-1.7 0.3-0.4 0.7-0.7 1.2-0.9 1.3-0.7 2.6-1.5 3.8-2.4 0.1-0.1 0.2-0.1 0.3 0-0.2 0.1-0.2 0.2 0 0.3z"></path><path fill="#000502" d="m6.8 11.6l-0.5 0.6c-0.1 4-0.2 7.4-0.3 10.4v-7.6c0-1 0-2 0-3 0.3-0.2 0.5-0.4 0.8-0.4z"></path><path fill="#132826" d="m7.1 14.1c0.6 0.8 1.2 1.6 1.7 2.4 0.1 0.4 0.3 0.7 0.6 1-0.2 0.2-0.2 0.4 0 0.6 0.9 1.2 1.6 2.5 2.3 3.8-0.3-0.2-0.6-0.2-0.9 0.1-0.4-0.1-0.4-0.2 0-0.3l-0.3-0.3c-0.4 0.2-0.8 0.2-1.3 0.1-0.3-0.2-0.6-0.2-1-0.3 0.5-0.1 0.5-0.1 0.1-0.2-0.2 0.1-0.4 0.1-0.6 0-0.1 0.4-0.2 0.3-0.2-0.1-0.2 0-0.3 0-0.5 0.1 0-0.2-0.1-0.3-0.2-0.4 0-2.2 0-4.4 0.1-6.6 0 0.1 0.1 0.1 0.2 0.1z"></path><path fill="#042f26" d="m25.5 19.3c0.5-0.9 1-1.8 1.6-2.6 0-0.1 0-0.2 0.1-0.2 0.1 0.2 0.1 0.2 0.2 0l1.6-2.5c0.1 3 0.1 6.1-0.1 9.1-0.6 0.4-1.3 0.9-1.9 1.3-0.4-0.6-0.8-1.2-1.2-1.8h-0.4c0-0.3-0.1-0.5-0.3-0.7l0.3-0.1c-0.3-0.2-0.6-0.4-0.9-0.6 0.4-0.6 0.7-1.2 1-1.9z"></path><path fill="#0e2221" d="m33.4 14.6c0.2 0.4 0.5 0.5 1 0.2 0.3 0.3 0.6 0.4 1 0.3 0.5 2.7 0.3 5.4-0.6 8-0.1-0.3-0.2-0.5-0.4-0.7h0.5c-0.2-0.5-0.6-0.8-1.2-0.9l0.3-0.1c-0.2-0.2-0.3-0.3-0.4-0.5l-0.1 0.3c-0.1-0.2-0.1-0.4-0.1-0.6 0.2-2 0.2-4 0-6z"></path><path fill="#0e2523" d="m14.6 18.1c-0.2 0-0.2 0.1 0 0.2 0.7 0.4 1.4 0.9 2.1 1.4-0.2 0.1-0.3 0.2-0.3 0.4 0.2 0.4 0.3 0.8 0.3 1.3-0.2 0.5-0.3 1-0.4 1.6-0.2 0.2-0.6 0.3-0.9 0.4-0.2 0.2-0.4 0.3-0.6 0.6-0.2-0.2-0.5-0.5-0.7-0.7l-0.2 0.3c-0.3-0.5-0.7-1.1-1-1.6-0.1-0.2-0.1-0.2-0.2 0-1.1-1.8-2.3-3.7-3.5-5.5-0.8-1.2-1.5-2.4-2.2-3.6 2.5 1.7 5 3.5 7.6 5.2z"></path><path fill="#062b24" d="m29.9 14.8c0.1 0.4 0.2 0.9 0.2 1.3 0.4 0.5 0.7 1 0.7 1.7 0-0.1 0.1-0.2 0.2-0.3 0.3 0.2 0.5 0.4 0.7 0.6-0.1 0.1-0.1 0.2-0.1 0.3 0.3 0.5 0.4 1.1 0.4 1.8h0.4c0 0.2 0.1 0.5 0.2 0.8-0.2 0.4-0.3 0.8-0.3 1.3h-0.4c0.1 0.3 0.1 0.6 0 0.8-0.7-1-1.3-1.9-2-2.9v-5.4z"></path><path fill="#07201e" d="m22.9 17.1c-0.1 0.6 0.1 1.2 0.5 1.7 0 0.1 0 0.2-0.1 0.3l0.9 0.9c0.1-0.1 0.2-0.2 0.3-0.4 0 0 0 0.1 0 0.2-0.7 1.3-1.4 2.6-2.4 3.8 0.1-0.1 0-0.2 0-0.2l-0.4 0.7c-0.2-0.2-0.3-0.4-0.4-0.7-0.6-0.1-1-0.5-1-1.1-0.3 0.1-0.4 0.1-0.4-0.3h-0.4c-0.1-0.3-0.1-0.5 0-0.8-0.4-0.3-0.6-0.7-0.9-1.1 0.2-0.1 0.3-0.2 0.2-0.3 1.3-1 2.7-1.9 4.1-2.7z"></path><path fill="#aeedea" d="m26.8 16.4c0 0.2 0.1 0.3 0.3 0.3-0.6 0.8-1.1 1.7-1.6 2.6l-3.9 5.9c-0.1-0.1-0.2-0.1-0.3-0.1 0.1-0.1 0.1-0.3 0.1-0.4 0.3-0.3 0.6-0.7 0.7-1.1 1-1.2 1.7-2.5 2.4-3.8 0.8-1.1 1.6-2.3 2.3-3.4z"></path><path fill="#0e1a1c" d="m14.6 18.1c1 0.6 2.1 1.3 3 2.1-0.1 2.1-0.1 4.3-0.2 6.4-0.5-0.2-1.1-0.4-1.6-0.7-0.1 0.3-0.1 0.5-0.1 0.7-0.4-0.5-0.8-1-1.1-1.6-0.7-1-1.3-2-1.9-3 0.1-0.2 0.1-0.2 0.2 0 0.3 0.5 0.7 1.1 1 1.6l0.2-0.3c0.2 0.2 0.5 0.5 0.7 0.7 0.2-0.3 0.4-0.4 0.6-0.6 0.3-0.1 0.7-0.2 0.9-0.4 0.1-0.6 0.2-1.1 0.4-1.6 0-0.5-0.1-0.9-0.3-1.3 0-0.2 0.1-0.3 0.3-0.4-0.7-0.5-1.4-1-2.1-1.4-0.2-0.1-0.2-0.2 0-0.2z"></path><path fill="#0b1a1c" d="m18.8 19.8c0.1 0.1 0 0.2-0.2 0.3 0.3 0.4 0.5 0.8 0.9 1.1-0.1 0.3-0.1 0.5 0 0.8h0.4c0 0.4 0.1 0.4 0.4 0.3 0 0.6 0.4 1 1 1.1 0.1 0.3 0.2 0.5 0.4 0.7l0.4-0.7c0 0 0.1 0.1 0 0.2-0.1 0.4-0.4 0.8-0.7 1.1 0.1-0.1 0-0.1 0-0.2l-0.6 0.9c-0.3-0.3-0.5-0.7-0.8-1 0 0.1 0 0.2 0 0.4-0.3-0.3-0.7-0.4-1.1-0.4-0.1 0.3-0.2 0.7-0.3 1l-0.2-0.2c0-1.7-0.1-3.5 0-5.2 0.1-0.1 0.2-0.2 0.4-0.2z"></path><path fill="#9da7a5" d="m29 13.4c0 0 0.1-0.1 0.2-0.1 0.2 3.3 0.2 6.6 0 9.8 0-3.2 0-6.5-0.2-9.7z"></path><path fill="#133b31" d="m29.6 12.2c0.1 3.7 0.2 7.4 0.2 11.2 0.1-1.1 0.1-2.1 0.1-3.2 0.7 1 1.3 1.9 2 2.9-0.1 0.2 0 0.3 0.1 0.3-0.3 0.6-0.5 1.3-0.9 1.8-1.1-0.1-2.2 0.1-3.2 0.6 0.2-0.3 0.5-0.5 0.9-0.8-0.3 0-0.5-0.2-0.6-0.4 0.4-0.3 0.8-0.6 1.3-0.8 0.1-0.1 0.1-0.2 0-0.2 0.1-3.8 0.1-7.6 0.1-11.4z"></path><path fill="#0a1d1c" d="m29 13.4c0.2 3.2 0.2 6.5 0.2 9.7-1.8 1.3-3.7 2.5-5.5 3.7-0.3 0.1-0.5 0.1-0.7 0-0.1-0.4-0.3-0.7-0.5-1-0.3 0.3-0.4 0.6-0.4 1h-0.4c0.1-0.3 0-0.5-0.3-0.7 0.2-0.2 0.4-0.4 0.5-0.6-0.1-0.1-0.2-0.1-0.3-0.1v-0.2l3.9-5.9c-0.3 0.7-0.6 1.3-1 1.9 0.3 0.2 0.6 0.4 0.9 0.6l-0.3 0.1c0.2 0.2 0.3 0.4 0.3 0.7h0.4c0.4 0.6 0.8 1.2 1.2 1.8 0.6-0.4 1.3-0.9 1.9-1.3 0.2-3 0.2-6.1 0.1-9.1l-1.6 2.5c-0.1 0.2-0.1 0.2-0.2 0 0.6-1 1.2-2 1.8-3.1z"></path><path fill="#0d2b24" d="m33.4 20.6c0 0.2 0 0.4 0.1 0.6l0.1-0.3c0.1 0.2 0.2 0.3 0.4 0.5l-0.3 0.1c0.6 0.1 1 0.4 1.2 0.9h-0.5c0.2 0.2 0.3 0.4 0.4 0.7-0.3 1.2-0.7 2.2-1.3 3.3-0.6-0.4-1.2-0.7-1.8-1 0.8-1.6 1.3-3.2 1.7-4.8z"></path><path fill="#adece9" d="m8.8 16.5c0.2 0.1 0.3 0.1 0.4 0 1.2 1.8 2.4 3.7 3.5 5.5 0.6 1 1.2 2 1.9 3-0.2 0-0.3 0.1-0.3 0.2-1.7-2.5-3.3-5.1-4.9-7.7-0.3-0.3-0.5-0.6-0.6-1z"></path><path fill="#2a2a25" d="m6.3 12.2c-0.1 3.8 0 7.6 0.1 11.4-0.2 0-0.2 0.1 0 0.2 1 0.7 1.9 1.3 3 1.9-0.3 0.2-0.4 0.4-0.3 0.7h-0.6c-0.5 0.1-1-0.1-1.3-0.5-0.7 0.2-1.4 0.2-2.1 0-0.9-1.2-1.5-2.6-1.8-4.2 0 0 0-0.1 0.1-0.1 0 0.2 0.1 0.3 0.2 0.5 0.4 0.1 0.7 0.3 1.1 0.3 0.1-0.3 0.2-0.5 0.4-0.8 0.1 0.3 0.4 0.4 0.7 0.4 0 0.2 0 0.4 0.2 0.6 0.1-3 0.2-6.4 0.3-10.4z"></path><path fill="#292722" d="m2.6 21.6c0.5 1.7 1.1 3.3 2 4.8-0.8-0.1-1.5-0.1-2.3 0-0.9-1.7-1.5-3.5-1.8-5.4 0.2-0.1 0.4-0.1 0.6-0.3l0.2 0.5 0.1-0.2c0.3 0.4 0.7 0.6 1.2 0.6z"></path><path fill="#686a6b" d="m18.2 20.2c0 3.2 0 6.4 0.2 9.5-0.1 0.2-0.2 0.2-0.3 0.3-0.1-3.3-0.1-6.6 0.1-9.8z"></path><path fill="#101316" d="m18.4 20c-0.1 1.7 0 3.5 0 5.2l0.2 0.2c0.1-0.3 0.2-0.7 0.3-1 0.4 0 0.8 0.1 1.1 0.4 0-0.2 0-0.3 0-0.4 0.3 0.3 0.5 0.7 0.8 1l0.6-0.9c0 0.1 0.1 0.1 0 0.2 0 0.1 0 0.3-0.1 0.4-1 1.5-2 3.1-2.9 4.6-0.2-3.1-0.2-6.3-0.2-9.5 0-0.1 0.1-0.2 0.2-0.2z"></path><path fill="#b40301" d="m31.1 25.2c0.2 0.2 0.4 0.2 0.6 0.2 0.6 0.3 1.2 0.6 1.8 1 1.8 1.4 2.3 3.2 1.8 5.5-0.8 2.3-2.5 3.6-5.1 3.7-1.6 0-3-0.6-4-1.9-0.4-0.6-0.8-1.3-1-2 0.1-0.2 0-0.3-0.1-0.4v-1.1c0.1-2 1.1-3.5 2.8-4.4 1-0.5 2.1-0.7 3.2-0.6z" opacity=".99"></path><path fill="#171717" d="m6.8 13.4c0.2 0.2 0.2 0.5 0.3 0.7-0.1 0-0.2 0-0.2-0.1-0.1 2.2-0.1 4.4-0.1 6.6 0 0.8 0 1.6 0.1 2.4 0.5 0.5 1.1 0.9 1.7 1.3 0-0.2 0.1-0.4 0.3-0.5 0.3 0.4 0.6 0.4 0.9 0 0.1 0.2 0.2 0.3 0.3 0.4 0.2 0 0.4 0.1 0.7 0.2 0.1 0.1 0.1 0.2 0 0.4 0.3-0.1 0.6-0.2 0.9-0.3 0 0.2 0 0.3-0.1 0.5 0.2 0.1 0.4 0.1 0.6 0 0.2 0.1 0.3 0.3 0.2 0.5 0.6 0.1 1.1-0.2 1.3-0.7-0.6-1-1.3-2-2-2.9-0.7-1.3-1.4-2.6-2.3-3.8-0.2-0.2-0.2-0.4 0-0.6 1.6 2.6 3.2 5.2 4.9 7.7 1.1 1.8 2.1 3.5 3.1 5.2-3.6-2.4-7.2-4.8-10.7-7.3-0.1-3.2 0-6.5 0.1-9.7z"></path><path fill="#192321" d="m6.8 20.6c0.1 0.1 0.2 0.2 0.2 0.4 0.2-0.1 0.3-0.1 0.5-0.1 0 0.4 0.1 0.5 0.2 0.1 0.2 0.1 0.4 0.1 0.6 0 0.4 0.1 0.4 0.1-0.1 0.2 0.4 0.1 0.7 0.1 1 0.3 0.5 0.1 0.9 0.1 1.3-0.1l0.3 0.3c-0.4 0.1-0.4 0.2 0 0.3 0.3-0.3 0.6-0.3 0.9-0.1 0.7 0.9 1.4 1.9 2 2.9-0.2 0.5-0.7 0.8-1.3 0.7 0.1-0.2 0-0.4-0.2-0.5-0.2 0.1-0.4 0.1-0.6 0 0.1-0.2 0.1-0.3 0.1-0.5-0.3 0.1-0.6 0.2-0.9 0.3 0.1-0.2 0.1-0.3 0-0.4-0.3-0.1-0.5-0.2-0.7-0.2-0.1-0.1-0.2-0.2-0.3-0.4-0.3 0.4-0.6 0.4-0.9 0-0.2 0.1-0.3 0.3-0.3 0.5-0.6-0.4-1.2-0.8-1.7-1.3-0.1-0.8-0.1-1.6-0.1-2.4z"></path><path fill="#2b1b18" d="m8.5 26.4c0.2 0.4 0.5 0.5 0.9 0.2 0.1 0.2 0.1 0.3 0.1 0.5h0.8c0.1 0.2 0 0.4-0.1 0.5-0.2-0.1-0.4-0.1-0.6 0 0.5 1.1 0.1 1.5-1 1.4-0.1 0.1-0.3 0.2-0.5 0.3-0.6-0.3-1.1-0.7-1.5-1.2-0.6-0.7-1-1.4-1.5-2.2 0.7 0.2 1.4 0.2 2.1 0 0.3 0.4 0.8 0.6 1.3 0.5z"></path><path fill="#131012" d="m17.6 20.2c0.1 3.2 0 6.4-0.1 9.5-0.6-1-1.2-2-1.8-3.1 0-0.2 0-0.4 0.1-0.7 0.5 0.3 1.1 0.5 1.6 0.7 0.1-2.1 0.1-4.3 0.2-6.4z"></path><path fill="#0f1c1d" d="m29.5 23.6c0.1 0 0.1 0.1 0 0.2-0.5 0.2-0.9 0.5-1.3 0.8 0.1 0.2 0.3 0.4 0.6 0.4-0.4 0.3-0.7 0.5-0.9 0.8-1.7 0.9-2.7 2.4-2.8 4.4-0.1 0-0.2 0.1-0.2 0.2-0.1-0.4-0.1-0.8 0-1.2-0.3-0.2-0.6-0.2-0.9 0-0.2-0.5-0.4-0.9-0.6-1.4 1-0.6 1.9-1.3 2.8-2 1-0.8 2.1-1.6 3.3-2.2z"></path><path fill="#9c9d9d" d="m17.6 20.2c0.2 3.2 0.2 6.4 0 9.7 0 0-0.1-0.1-0.1-0.2 0.1-3.1 0.2-6.3 0.1-9.5z"></path><path fill="#161617" d="m21.6 25.4c0.1 0 0.2 0 0.3 0.1-0.1 0.2-0.3 0.4-0.5 0.6 0.3 0.2 0.4 0.4 0.3 0.7h0.4c0-0.4 0.1-0.7 0.4-1 0.2 0.3 0.4 0.6 0.5 1 0.2 0.1 0.4 0.1 0.7 0-1.7 1.2-3.4 2.4-5.2 3.4 1.1-1.6 2.1-3.2 3.1-4.8z"></path><path fill="#221312" d="m6.4 23.6c3.1 2 6.1 4 9.1 6.1 0 0-0.1 0.1-0.1 0.1 0.3 0.2 0.6 0.4 0.8 0.6-0.3 0.3-0.6 0.6-0.9 0.9-0.7 0-1.3-0.3-1.7-0.9-0.3-0.1-0.6-0.1-0.9-0.2-0.8 0.4-1.6 0.5-2.4 0.1-0.3 0-0.5 0.1-0.7 0.3-0.5-0.4-1-0.8-1.5-1.3 0.2-0.1 0.4-0.2 0.5-0.3 1.1 0.1 1.5-0.3 1-1.4 0.2-0.1 0.4-0.1 0.6 0 0.1-0.1 0.2-0.3 0.1-0.5h-0.8c0-0.2 0-0.3-0.1-0.5-0.4 0.3-0.7 0.2-0.9-0.2h0.6c-0.1-0.3 0-0.5 0.3-0.7-1.1-0.6-2-1.2-3-1.9-0.2-0.1-0.2-0.2 0-0.2z"></path><path fill="#e8bbba" d="m26.1 29.3c0.9-0.1 1.7-0.2 2.7-0.1 0 0.2-0.1 0.3-0.2 0.4-0.8-0.3-1.6-0.4-2.5-0.3z"></path><path fill="#fbf6f6" d="m26.1 29.3c0.9-0.1 1.7 0 2.5 0.3h-1v2.4h-0.5v-2.4c-0.4 0.1-0.8 0-1-0.3z"></path><path fill="#faf1f1" d="m29 29.2c0.6 0 1.2 0 1.7 0.1 0.7 0.3 0.8 0.8 0.2 1.4 0.1 0 0.2 0.1 0.3 0.2 0.1 0.3 0.1 0.6 0.2 1-0.2 0.1-0.4 0.1-0.6 0 0-0.4-0.1-0.7-0.2-1-0.3 0-0.7-0.1-1 0v1.1h-0.6v-2.8z"></path><path fill="#f8e6e6" d="m32.7 29.2c0.9-0.3 1.5 0.1 1.7 1h-0.6c0-0.2 0-0.4-0.1-0.5-0.9-0.3-1.3 0-1.3 0.9 0 0.9 0.4 1.2 1.3 0.9 0.1-0.3 0.4-0.4 0.7-0.4 0 0.4-0.2 0.7-0.6 0.8-1.6 0.3-2.3-0.4-1.9-2 0.3-0.3 0.5-0.5 0.8-0.7z"></path><path fill="#2f1a15" d="m4.6 26.4c1.3 1.7 2.8 3.3 4.6 4.6-1 0.2-2 0.2-3.1 0-1.5-1.3-2.8-2.8-3.8-4.6 0.8-0.1 1.5-0.1 2.3 0z"></path><path fill="#b30b07" d="m29.6 29.6c0.3 0 0.7 0 1 0.1 0.2 0.2 0.2 0.4 0 0.7-0.3 0-0.7 0.1-1 0v-0.8z"></path><path fill="#0d0c0c" d="m26.2 25.8c-0.9 0.7-1.8 1.4-2.8 2 0.2 0.5 0.4 0.9 0.6 1.4 0.3-0.2 0.6-0.2 0.9 0-0.1 0.4-0.1 0.8 0 1.2 0-0.1 0.1-0.2 0.2-0.2v1.1c-5.3 2.5-10.5 2.2-15.5-0.7 0.2-0.2 0.4-0.3 0.7-0.3 0.8 0.4 1.6 0.3 2.4-0.1 0.3 0.1 0.6 0.1 0.9 0.2 0.4 0.6 1 0.9 1.7 0.9 0.3-0.3 0.6-0.6 0.9-0.9-0.2-0.2-0.5-0.4-0.8-0.6 0 0 0.1-0.1 0.1-0.1 0.9 0.5 1.7 1 2.4 1.6 2.8-1.9 5.5-3.7 8.3-5.5z"></path><path fill="#281613" d="m20.6 29.6c0.2 0.2 0.4 0.4 0.8 0.6 0.3-0.1 0.7-0.1 1.2 0-0.3 0.7-0.7 1.3-1.2 1.9-0.5 0.5-1.1 0.5-1.6 0.2-0.4-0.4-0.7-0.9-1-1.4 0.6-0.4 1.2-0.8 1.8-1.3z"></path><path fill="#060607" d="m6.1 31c1.1 0.2 2.1 0.2 3.1 0 5.2 3.1 10.6 3.3 16 0.7 0.2 0.7 0.6 1.4 1 2-6.5 3-12.8 2.5-18.8-1.5-0.5-0.3-0.9-0.7-1.3-1.2z"></path></svg>