<?xml version="1.0"?><svg xmlns="http://www.w3.org/2000/svg" width="36" height="36" shape-rendering="geometricPrecision" text-rendering="geometricPrecision" image-rendering="optimizeQuality" fill-rule="evenodd" clip-rule="evenodd" viewBox="0 0 36 36"><path fill="#fcfcfc" d="m-0.1-0.1h36v36h-36v-36z"></path><path fill="#253972" d="m24.4 10.6c0 0.8 0 1.6-0.2 2.3 0-2.8-1.3-4.9-3.7-6.3-3.4-1.5-6.4-0.8-8.8 2.1-1.5 2.3-1.7 4.6-0.7 7.1 0.6 1.4 1.6 2.5 2.9 3.2 0.4 0.3 0.9 0.4 1.3 0.6-2.9-0.5-5.1-2-6.3-4.8-1.6-4.9-0.1-8.4 4.4-10.8 3.8-1.1 7-0.2 9.5 2.7 0.9 1.2 1.4 2.5 1.6 3.9z"></path><path fill="#253871" d="m16.1 7.4c3.5-0.3 5.7 1.2 6.6 4.5 0.1 0.2 0.1 0.5 0 0.8-1-2.7-3-3.9-5.9-3.7-3.1 0.9-4.6 3-4.4 6.2-1.2-3.8 0-6.4 3.7-7.8z"></path><path fill="#545b86" d="m24.4 10.6c0.1 0.9 0.1 1.8-0.1 2.7-0.1-0.1-0.1-0.3-0.1-0.4 0.2-0.7 0.2-1.5 0.2-2.3z"></path><path fill="#ab6b76" d="m19.7 14.3c-0.4 0-0.8 0.1-1.1 0.3-0.1-0.1-0.1-0.2-0.1-0.4 0.4 0 0.9 0 1.2 0.1z"></path><path fill="#aa2020" d="m17.3 14.8c-0.2-0.1-0.5-0.2-0.7-0.1 0 1.1 0 2.2 0.1 3.2v0.6c-0.3 0.1-0.6 0-0.8-0.2v-0.2c0.1-1.1 0.2-2.3 0.1-3.4-0.3-0.1-0.5 0-0.8 0.1-0.5 0.2-0.6 0-0.3-0.5 1-0.1 2-0.1 3 0 0 0.2-0.1 0.4-0.2 0.6-0.1-0.1-0.3-0.1-0.4-0.1z"></path><path fill="#dfa5af" d="m26.8 14.3h-0.9c0.1 0.4 0 0.7-0.1 0.9v-1c0.4 0 0.8 0 1 0.1z"></path><path fill="#af1c1f" d="m25.8 15.2c0.1-0.2 0.2-0.5 0.1-0.9h0.9c-0.5 1.4-0.8 2.8-1.1 4.2-0.2 0-0.4 0-0.6-0.1-0.3-0.8-0.5-1.5-0.8-2.3-0.3 0.8-0.6 1.5-0.8 2.3-0.2 0.1-0.4 0.1-0.6 0.1-0.3-1.4-0.7-2.8-1.1-4.2 0.3-0.1 0.6-0.1 0.9-0.1 0 1.1 0.2 2.1 0.5 3.1 0.4-1 0.8-2 1.1-3 0.3 1 0.6 1.9 1 2.9 0.3-0.7 0.4-1.3 0.5-2z"></path><path fill="#dda1a7" d="m27.5 14.8c0.2-0.1 0.4-0.2 0.6-0.1 0 1.1 0 2.2-0.1 3.2v-3.1h-0.5z"></path><path fill="#fab7b8" d="m15.2 14.8c0.3-0.1 0.5-0.2 0.8-0.1 0.1 1.1 0 2.3-0.1 3.4v-3.3h-0.7z"></path><path fill="#c68889" d="m17.3 14.8h-0.6v3.1c-0.1-1-0.1-2.1-0.1-3.2 0.2-0.1 0.5 0 0.7 0.1z"></path><path fill="#b02022" d="m19.7 14.3c1.1 0.1 1.5 0.6 1.2 1.6-0.1 0.3-0.4 0.6-0.7 0.7 0.4 0.6 0.9 1.2 1.3 1.8-0.2 0.1-0.4 0.1-0.6 0.1-0.5-0.5-1-1-1.4-1.6 0-0.1-0.1-0.1-0.1-0.2-0.1 0.6-0.1 1.2 0 1.7v0.1h-0.8v-3.9c0.3-0.2 0.7-0.3 1.1-0.3z"></path><path fill="#f2b7bc" d="m19.5 16.9c-0.1 0.5-0.1 1-0.1 1.5-0.1-0.5-0.1-1.1 0-1.7 0 0.1 0.1 0.1 0.1 0.2z"></path><path fill="#f9f2f2" d="m19.3 14.7c0.9 0 1.2 0.5 0.8 1.3-0.2 0.3-0.5 0.5-0.8 0.5v-1.8z"></path><path fill="#aa1f21" d="m28 17.9c0.1-1 0.1-2.1 0.1-3.2-0.2-0.1-0.4 0-0.6 0.1h-0.3c-0.1-0.2 0-0.4 0.1-0.5 0.5-0.1 1-0.1 1.4-0.1 0 1.5-0.1 2.9-0.1 4.3-0.2 0.8-0.8 1.1-1.5 1 0.6-0.4 0.9-0.9 0.9-1.6z"></path><path fill="#dc8b90" d="m16.7 18.1c0.1 0.1 0.2 0.3 0.1 0.5h-1c0-0.1 0-0.2 0.1-0.3 0.2 0.2 0.5 0.3 0.8 0.2v-0.4z"></path><path fill="#d88a8b" d="m18.6 18.1v0.4h0.8c-0.3 0.1-0.6 0.2-0.9 0.1 0-0.2 0-0.4 0.1-0.5z"></path><path fill="#d3888c" d="m21.5 18.4c0.1 0 0.1 0 0.2 0.1-0.3 0.2-0.6 0.2-0.8 0 0.2 0 0.4 0 0.6-0.1z"></path><path fill="#e5e7ef" d="m31.8 22.2c-0.2 0.2-0.2 0.3-0.2 0.6 0.1 0.5 0.1 1.1 0 1.6 0 0.1 0.2 0.2 0.3 0.2-0.1 0.1-0.3 0.1-0.4 0-0.2 0.3-0.3 0.3-0.5 0 0.1 0 0.2 0 0.2-0.1-0.1-0.3-0.1-0.6 0-0.8h-0.3c-0.2-0.5-0.3-1-0.2-1.5 0.1 0.3 0.2 0.6 0.3 0.9-0.1-0.2 0-0.4 0.2-0.6 0-0.1 0-0.3-0.1-0.4l0.1-0.1c0.2 0.1 0.4 0.1 0.6 0.2z"></path><path fill="#222c64" d="m10 22.1h0.3v2.4c-0.2 0-0.3 0-0.4-0.1-0.1-0.4-0.3-0.8-0.5-1.1 0 0-0.1-0.1-0.2-0.2-0.1 0.4 0 0.8 0.1 1.1-0.1 0.3-0.3 0.3-0.5 0.1 0.1-0.3 0.2-0.5 0.1-0.8 0-0.4 0.1-0.8 0.3-1.1-0.1-0.1-0.3-0.1-0.4-0.1 0.2-0.1 0.3-0.1 0.5-0.1 0 0.2 0 0.3 0 0.5 0.2 0.2 0.3 0.4 0.4 0.6 0 0.2 0.1 0.3 0.2 0.4 0.1-0.5 0.1-1.1 0.1-1.6z"></path><path fill="#a3abcb" d="m16.5 22.1c0.2 0 0.4 0 0.5 0.1-0.1 0-0.2 0-0.3 0.1 0.1 0.4 0.2 0.8 0.1 1.2l-0.2-1.1c0-0.1-0.1-0.2-0.1-0.3z"></path><path fill="#323d77" d="m24.7 22.2c0.1 0 0.3 0 0.4 0.1 0 0.6 0.1 1.2 0 1.8h0.4c0.1-0.6 0.1-1.2 0.1-1.9h0.4c0.1 0.8 0 1.6-0.4 2.3 0 0-0.1 0.1-0.2 0.1-0.3-0.1-0.5-0.3-0.6-0.6-0.1-0.6-0.1-1.2-0.1-1.8z"></path><path fill="#29346b" d="m28.3 22.2c0.1 0.5 0.4 1 0.7 1.5 0.1-0.5 0.1-0.9 0-1.4 0.1-0.3 0.2-0.3 0.4 0-0.1 0.7-0.1 1.4 0 2.1-0.1 0.2-0.3 0.2-0.5 0-0.6-1.6-0.7-1.5-0.5 0.1-0.1 0.1-0.3 0.1-0.4 0 0-0.8-0.1-1.5 0-2.3h0.3z"></path><path fill="#b9bbe9" d="m10 22.1c0 0.5 0 1.1-0.1 1.6-0.1-0.1-0.2-0.2-0.2-0.4l0.3-1.2z"></path><path fill="#d1d5ea" d="m28.3 22.2c0.1 0 0.2 0 0.3 0.1 0.2 1.1 0.3 1.1 0.4 0 0.1 0.5 0.1 0.9 0 1.4-0.3-0.5-0.6-1-0.7-1.5z"></path><path fill="#252e67" d="m7.5 22.1c0.2 0 0.5 0 0.8 0.1 0.1 0.1 0.2 0.2 0.3 0.4 0 0.5 0 1-0.2 1.5-0.6 0.6-0.9 0.4-1.1-0.4-0.1-0.6 0-1.1 0.2-1.6z"></path><path fill="#e6e9f1" d="m7.8 22.3c0.4 0.1 0.6 0.4 0.5 0.8 0 0.3-0.1 0.6-0.2 0.9-0.1 0.2-0.2 0.2-0.3 0-0.3-0.6-0.3-1.1 0-1.7z"></path><path fill="#707690" d="m8.8 22.3c0.1 0 0.3 0 0.4 0.1-0.2 0.3-0.3 0.7-0.3 1.1-0.1-0.4-0.1-0.8-0.1-1.2z"></path><path fill="#2a316c" d="m4.4 24.2c0.2-0.5 0.2-1 0.2-1.5h-0.4c-0.1-0.1-0.1-0.2 0-0.3 0.4-0.1 0.8-0.2 1.1-0.3v0.3c-0.1 0-0.2 0.1-0.3 0.2-0.1 0.6-0.1 1.2-0.1 1.9-0.2 0-0.4-0.1-0.5-0.3z"></path><path fill="#adb2dc" d="m4.2 22.7h0.4c0 0.5 0 1-0.2 1.5 0.1-0.5 0-1-0.2-1.5z"></path><path fill="#30366c" d="m16.5 22.1c0 0.1 0.1 0.2 0.1 0.3-0.2 0-0.4 0.1-0.6 0.2-0.1 0.2-0.1 0.5-0.1 0.7h0.5v0.4h-0.5v0.3h0.6v0.4l-0.9 0.1v-2.3l0.9-0.1z"></path><path fill="#29336c" d="m16.8 23.5c0.1-0.4 0-0.8-0.1-1.2 0.1-0.1 0.2-0.1 0.3-0.1 0.1 0.3 0.2 0.5 0.2 0.8 0.2-0.2 0.4-0.5 0.5-0.8 0.1-0.1 0.2-0.1 0.3 0-0.2 0.4-0.4 0.8-0.6 1.3 0.3 0.2 0.6 0.5 0.9 0.8-0.1 0.1-0.2 0.2-0.4 0.3-0.1-0.4-0.3-0.6-0.7-0.8 0 0.2-0.1 0.4 0 0.7h-0.4v-1z"></path><path fill="#2d3670" d="m19.2 22.1c0.2 0 0.3 0 0.5 0.1 0.2 1.4 0.4 1.4 0.7 0 0.2-0.1 0.3-0.1 0.5 0.1-0.5 0.7-0.8 1.5-0.8 2.3-0.2 0-0.4-0.1-0.5-0.2 0.1-0.3 0.2-0.6 0.1-0.8-0.2-0.5-0.3-1-0.5-1.5z"></path><path fill="#2a366e" d="m5.7 22.1c0.4 0 0.8 0.1 1.2 0.1 0 0.2 0 0.3 0 0.5-0.3 0.3-0.5 0.6-0.7 0.9l0.9 0.6c0 0.2-0.1 0.2-0.2 0.3-0.3-0.2-0.5-0.4-0.8-0.6-0.1 0.1-0.1 0.3 0 0.5-0.1 0.1-0.3 0.1-0.4 0.1 0-0.8 0-1.6 0-2.4z"></path><path fill="#d4e2ec" d="m6.2 22.4c0.2 0 0.2 0.1 0.3 0.2-0.1 0.2-0.2 0.4-0.4 0.5-0.1-0.2-0.1-0.5 0.1-0.7z"></path><path fill="#7a7e97" d="m9.4 23.3c-0.1 0.3-0.2 0.6-0.1 0.9-0.1-0.3-0.2-0.7-0.1-1.1 0.1 0.1 0.2 0.2 0.2 0.2z"></path><path fill="#2b366e" d="m11.5 22.1c0.1 0 0.2 0 0.3 0.1 0.2 1.6 0.4 1.6 0.6-0.1 0.2 0 0.3 0 0.4 0.1 0.1 0.5 0.3 0.9 0.5 1.4 0.1-0.5 0.2-1 0.4-1.5 0.1 0 0.3 0 0.4 0.1-0.3 0.7-0.5 1.4-0.6 2.2-0.2 0.1-0.3 0.1-0.5 0-0.3-1.7-0.5-1.6-0.6 0.1-0.2 0.1-0.3 0.1-0.5 0-0.1-0.8-0.3-1.5-0.5-2.2 0.1 0 0.1-0.1 0.1-0.2z"></path><path fill="#010956" d="m14.3 22.3c0.1 0.8 0.2 1.5 0.4 2.2h-0.4v-2.2z"></path><path fill="#243069" d="m30.7 22.2c-0.1 0.5 0 1 0.2 1.5h0.3c-0.1 0.2-0.1 0.5 0 0.8 0 0.1-0.1 0.1-0.2 0.1-0.4-0.8-0.7-0.8-1.1 0-0.1-0.1-0.2-0.1-0.3-0.2 0.2-0.7 0.4-1.4 0.7-2.1 0.1-0.1 0.2-0.1 0.4-0.1z"></path><path fill="#cdd6e7" d="m30.3 23.1c0.2 0.2 0.3 0.4 0.2 0.7h-0.3c0-0.2 0-0.5 0.1-0.7z"></path><path fill="#2c3770" d="m14.7 24.5c-0.2-0.7-0.3-1.4-0.4-2.2 0.2-0.1 0.5-0.2 0.7-0.2 0.2 0 0.3 0.1 0.4 0.2-0.3 0.1-0.5 0.2-0.7 0.3 0 0.2 0 0.5 0 0.7 0.6 0.1 0.6 0.2 0 0.4 0 0.1 0 0.2 0 0.3 0.7 0.1 0.7 0.2 0 0.5z"></path><path fill="#3b457b" d="m18.4 22.1c0.1 0 0.3 0 0.4 0.1 0 0.6 0.1 1.2 0.2 1.8 0.1-0.1 0.2-0.1 0.4-0.1v0.5c-0.3 0-0.7 0-1 0.1v-2.4z"></path><path fill="#29346a" d="m23.5 22.1c0.4-0.1 0.7 0.1 0.9 0.6 0.1 0.6 0 1.1-0.2 1.7-0.5 0.3-0.9 0.2-1-0.5-0.2-0.6-0.1-1.2 0.3-1.8z"></path><path fill="#e2e5ef" d="m23.6 22.4c0.2 0 0.4 0.1 0.5 0.3 0.1 0.5 0 1.1-0.3 1.5-0.2-0.1-0.3-0.2-0.3-0.4-0.1-0.5 0-0.9 0.1-1.4z"></path><path fill="#29346c" d="m26.3 22.2c0.4 0.1 0.8 0.1 1.2 0 0 0.6-0.2 1-0.6 1.4 0.3 0.3 0.6 0.5 0.9 0.8 0 0.1-0.1 0.1-0.2 0.2-0.3-0.2-0.5-0.4-0.8-0.6-0.1 0.2-0.1 0.4-0.1 0.6h-0.3c0-0.8 0-1.6-0.1-2.4z"></path><path fill="#ccd6e7" d="m26.9 22.6c0.1-0.1 0.2 0 0.3 0.1l-0.5 0.6c-0.2-0.3-0.1-0.6 0.2-0.7z"></path><path fill="#283267" d="m22.4 22.1c0.3 0 0.4 0.1 0.5 0.2-0.1 0.7-0.2 1.5-0.2 2.2-0.1 0.1-0.2 0.1-0.4 0-0.2-0.2-0.4-0.4-0.5-0.7 0.1-0.1 0.3-0.1 0.4-0.1 0 0.1 0 0.3 0.1 0.4 0.1-0.6 0.2-1.3 0.1-2z"></path><path fill="#2a326d" d="m31.8 22.2c0.1 0.6 0.2 1.2 0.3 1.8 0.3-0.1 0.5 0 0.5 0.4-0.3-0.1-0.5 0-0.7 0.2-0.1 0-0.3-0.1-0.3-0.2 0.1-0.5 0.1-1.1 0-1.6 0-0.3 0-0.4 0.2-0.6z"></path></svg>