<?xml version="1.0"?><svg xmlns="http://www.w3.org/2000/svg" width="36" height="36" shape-rendering="geometricPrecision" text-rendering="geometricPrecision" image-rendering="optimizeQuality" fill-rule="evenodd" clip-rule="evenodd" viewBox="0 0 36 36"><path fill="#010101" d="m-0.1-0.1h36v36h-36v-36z"></path><path fill="#8d8d8d" d="m24 5.7c0 0.1 0 0.2-0.1 0.3h-0.4l0.1 0.1c-0.1 0.3-0.3 0.5-0.6 0.5-0.7-0.2-1.4-0.3-2-0.2l-0.2 0.1c0.1 0.1 0.1 0.2 0 0.2-0.3 0.1-0.6 0.1-0.8 0 0-0.1 0.1-0.1 0.2-0.2-1.4 0-2.7-0.1-4.1-0.1-0.6-0.1-1.1 0-1.6 0.2-0.1-0.1-0.2-0.1-0.2-0.2l-0.1 0.4c-0.1-0.3-0.1-0.5-0.2-0.8l-0.2 1.1c0-0.5 0-1-0.1-1.4-0.1-0.4-0.1-0.7 0-1.1 3.6-0.9 7-0.6 10.3 1.1z"></path><path fill="#838383" d="m13.7 5.7c0.1 0.4 0.1 0.9 0.1 1.4l0.2-1.1c0.1 0.3 0.1 0.5 0.2 0.8l0.1-0.4c0 0.1 0.1 0.1 0.2 0.2 0.5-0.2 1-0.3 1.6-0.2 1.4 0 2.7 0.1 4.1 0.1-0.1 0.1-0.2 0.1-0.2 0.2 0.2 0.1 0.5 0.1 0.8 0.1 0.1-0.1 0.1-0.2 0-0.3l0.2-0.1c0.6-0.1 1.3 0 2 0.2 0.3 0 0.5-0.2 0.6-0.5l-0.1-0.1h0.4c0.1-0.1 0.1-0.2 0.1-0.3 0.8 0.4 1.5 0.8 2 1.4-0.1 0.9-0.1 1.8 0 2.6 0.2 0.8 0.4 1.6 0.6 2.4 0 0.2-0.1 0.3-0.2 0.1-0.3-0.6-0.7-1.1-1.3-1.5-0.2-0.2-0.4-0.5-0.7-0.8-3.1-2.2-6.4-2.6-9.9-1.3-0.3 0.1-0.6 0.3-0.8 0.6-0.2 0-0.3 0.1-0.4 0.2l-0.1-0.1c0.2-0.3 0.3-0.5 0.3-0.8 0.1-0.9 0.2-1.9 0.2-2.8z"></path><path fill="#7b7b7b" d="m12.3 8.8c-0.3 0-0.5 0.2-0.5 0.6l-0.1-0.8c-0.2 0.1-0.2 0.3-0.1 0.5l-1.4 0.1c-0.5 0-1-0.1-1.4-0.3-0.1 0.2-0.2 0.4-0.4 0.5-0.1-0.1-0.1-0.1-0.1-0.2 0.8-1.2 1.6-2.5 2.4-3.7 0.3-0.7 0.5-1.4 0.6-2.2 0-0.4 0.1-0.8 0.2-1.2 1.1 2.1 1.4 4.4 0.8 6.7z"></path><path fill="#454545" d="m26 7.1c0.8 0.5 1.5 1.1 2 1.8-0.2 0.1-0.3 0-0.4 0l0.1-0.1c-0.2-0.2-0.4-0.3-0.6-0.3 0.3 0.2 0.3 0.3 0 0.4 0.1 0.1 0.2 0.2 0.3 0.3 0.1 0.5 0 0.5-0.3 0l-0.1 0.2c-0.1-0.2-0.3-0.3-0.4-0.3-0.2 0.2-0.4 0.4-0.6 0.6-0.1-0.8-0.1-1.7 0-2.6z"></path><path fill="#2a2a2a" d="m25.1 10.7c-0.1 0.2-0.1 0.3 0.1 0.5l0.1-0.1 0.6 0.6c-0.1 0.2-0.3 0.3-0.4 0.3 0.2 0.2 0.3 0.4 0.3 0.7-0.1-0.2-0.2-0.2-0.3-0.2-3.1-3.9-7.1-5-11.8-3.3 0.2-0.3 0.5-0.5 0.8-0.7 3.5-1.2 6.8-0.8 9.9 1.4 0.3 0.3 0.5 0.6 0.7 0.8z"></path><path fill="#3c3c3c" d="m11.3 3.3c-0.1 0.8-0.3 1.5-0.6 2.2-0.8 1.2-1.6 2.5-2.4 3.7-0.1 0-0.2 0.1-0.3 0.2-0.1 0.1-0.3 0.2-0.5 0.3 0-0.1-0.1-0.1-0.1-0.2 0.8-1.2 1.7-2.5 2.6-3.7 0.5-0.8 1-1.6 1.3-2.5z"></path><path fill="#323232" d="m28 8.9c0.8 0.9 1.5 1.9 2 3.1 0 0.2-0.1 0.2-0.2 0.1-0.1-0.4-0.3-0.7-0.5-1-0.2 0.3-0.5 0.4-0.8 0.2-0.3 0-0.4 0.1-0.6 0.2l-0.1-0.2c0 0.1-0.1 0.2-0.2 0.3-0.1-0.1-0.2-0.3-0.3-0.4-0.3 0.1-0.3 0.3-0.1 0.5-0.2 0.2-0.3 0.2-0.3-0.1-0.1 0.2-0.1 0.4-0.2 0.5h-0.1c-0.2-0.8-0.4-1.6-0.6-2.4 0.2-0.2 0.4-0.4 0.6-0.6 0.1 0 0.3 0.1 0.4 0.3l0.1-0.2c0.3 0.5 0.4 0.5 0.3 0-0.1-0.1-0.2-0.2-0.3-0.3 0.3-0.1 0.3-0.2 0-0.4 0.2 0 0.4 0.1 0.6 0.3l-0.1 0.1c0.1 0 0.2 0.1 0.4 0z"></path><path fill="#6f6f6f" d="m12.3 8.8c-0.4 1.6-1 3-2 4.3-0.2-0.1-0.2-0.2-0.3-0.3-0.1 0.3-0.1 0.3-0.2 0-0.2 0.3-0.4 0.3-0.5 0-0.1 0-0.2 0.1-0.3 0.2-0.6-0.1-1.2-0.2-1.9-0.1 0.1-0.1 0-0.2 0-0.4-0.5 0.3-0.7 0.2-0.6-0.4 0.2-0.7 0.6-1.3 1-1.8 0.2-0.3 0.4-0.6 0.5-0.9 0.1-0.1 0.2-0.2 0.3-0.2 0 0.1 0 0.1 0.1 0.2 0.2-0.1 0.3-0.3 0.4-0.5 0.4 0.2 0.9 0.3 1.4 0.3l1.4-0.1c-0.1-0.2-0.1-0.4 0.1-0.5l0.1 0.8c0-0.4 0.2-0.6 0.5-0.6z"></path><path fill="#c7c7c7" d="m13.8 10.3c2.3 0.4 4.6 1 6.8 1.6l1.6 1.3c0 0.1 0 0.2 0 0.4-1.7 2.1-3.3 4.3-4.9 6.5-0.1-0.1-0.3-0.3-0.3-0.5-1.1-3-2.2-6.1-3.3-9.1 0-0.1 0-0.1 0.1-0.2z"></path><path fill="#0b0b0b" d="m14.9 11.1c1.6 0.2 3.3 0.6 5 1.1-0.6 0.5-1.2 1-1.9 1.4-1-0.8-2.1-1.7-3.1-2.5z"></path><path fill="#232323" d="m30 12c0.7 1.3 1.1 2.8 1.1 4.4-0.1-0.7-0.2-1.4-0.4-2.1 0-0.4-0.2-0.8-0.7-1l-0.1 0.1c-0.1-0.2-0.2-0.2-0.4-0.1-0.3 0-0.6-0.2-0.8-0.4-0.1 0.1-0.2 0.3-0.3 0.5-0.1 0-0.2 0.1-0.3 0-0.1-0.6-0.3-0.7-0.6-0.1 0 0.2 0.1 0.3 0.2 0.4-0.1 0.2-0.1 0.3 0.1 0.2 0.1 0.1 0.2 0.3 0.3 0.4-0.1 0.2-0.1 0.3 0 0.5-0.7-0.8-1.1-1.7-1.4-2.7 0.1-0.1 0.1-0.3 0.2-0.5 0 0.3 0.1 0.3 0.3 0.1-0.2-0.2-0.2-0.4 0.1-0.5 0.1 0.1 0.2 0.3 0.3 0.4 0.1-0.1 0.2-0.2 0.2-0.3l0.1 0.2c0.2-0.1 0.3-0.2 0.6-0.2 0.3 0.2 0.6 0.1 0.8-0.2 0.2 0.3 0.4 0.6 0.5 1 0.1 0.1 0.2 0.1 0.2-0.1z"></path><path fill="#080808" d="m14.3 11.3c0.1-0.1 0.2-0.1 0.3 0l3.2 2.8c-0.2 1.5-0.4 3.1-0.6 4.7-0.8-2.1-1.6-4.3-2.3-6.5-0.2-0.4-0.3-0.7-0.6-1z"></path><path fill="#4b4b4b" d="m8 9.4c-0.1 0.3-0.3 0.6-0.5 0.9-0.4 0.5-0.8 1.1-1 1.8-0.2 0.4-0.3 0.7-0.5 1.1-0.2 0.2-0.3 0.5-0.4 0.8-0.1 0.1-0.2 0.1-0.4 0.1 0 0.2 0 0.3 0 0.5-0.1-0.2-0.2-0.2-0.3 0 0.4-1.9 1.3-3.6 2.5-5.1 0 0.1 0.1 0.1 0.1 0.2 0.2-0.1 0.4-0.2 0.5-0.3z"></path><path fill="#646464" d="m6.5 12.1c-0.1 0.6 0.1 0.7 0.6 0.4 0 0.2 0.1 0.3 0 0.4 0.7-0.1 1.3 0 1.9 0.1 0.1-0.1 0.2-0.2 0.3-0.2 0.1 0.3 0.3 0.3 0.5 0 0.1 0.3 0.1 0.3 0.2 0 0.1 0.1 0.1 0.2 0.3 0.3-0.6 1.1-1.1 2.3-1.4 3.5-0.3-0.1-0.6-0.2-0.9-0.4 0.3-0.1 0.3-0.2 0-0.3-0.6-0.1-1.3-0.1-2 0-0.1 0.2-0.2 0.2-0.4 0.2 0-1 0.1-1.9 0.4-2.9 0.2-0.4 0.3-0.7 0.5-1.1z"></path><path fill="#0a0a0a" d="m20.2 12.4c0.1 0 0.3 0 0.4 0.1 0.3 0.3 0.5 0.5 0.8 0.7-0.8 0.1-1.6 0.2-2.4 0.3 0.4-0.3 0.8-0.7 1.2-1.1z"></path><path fill="#171717" d="m30.7 14.3c-0.4 0.3-0.4 0.7-0.2 1.1l-0.1 0.1c-0.4-0.4-0.8-0.4-1.3-0.1l-0.2-0.6c-0.1 0-0.2 0.1-0.2 0.1-0.2-0.2-0.4-0.4-0.6-0.6-0.1-0.1-0.2-0.3-0.3-0.4-0.2 0.1-0.2 0-0.1-0.2-0.1-0.1-0.2-0.2-0.2-0.4 0.3-0.6 0.5-0.5 0.6 0.1 0.1 0.1 0.2 0 0.3 0 0.1-0.2 0.2-0.4 0.3-0.5 0.2 0.2 0.5 0.4 0.8 0.4 0.2-0.1 0.3-0.1 0.4 0.1l0.1-0.1c0.5 0.2 0.7 0.6 0.7 1z"></path><path fill="#0a0a0a" d="m21.1 13.7c0.4-0.1 0.4 0 0.2 0.3l-3.6 5c0.2-1.6 0.4-3.3 0.5-4.9 1-0.1 1.9-0.2 2.9-0.4z"></path><path fill="#414141" d="m25.1 10.7c0.6 0.4 1 0.9 1.3 1.5 0.5 1 1 2 1.2 3 0.1 0.6 0.1 1.2 0 1.8-0.1-0.4-0.2-0.4-0.4 0-0.1-0.2-0.2-0.5-0.2-0.9-0.1 0.1-0.1 0.2-0.1 0.3-0.3-1.4-0.7-2.6-1.4-3.9 0.1 0 0.2 0 0.3 0.2 0-0.3-0.1-0.5-0.3-0.7 0.1 0 0.3-0.1 0.4-0.3l-0.6-0.6-0.1 0.1c-0.2-0.2-0.2-0.3-0.1-0.5z"></path><path fill="#585858" d="m6 13.2c-0.3 1-0.4 1.9-0.4 2.9 0.2 0 0.3 0 0.4-0.2 0.7-0.1 1.4-0.1 2 0 0.3 0.1 0.3 0.2 0 0.3 0.3 0.2 0.6 0.3 0.9 0.4v2.5c0.1 0.6 0 0.7-0.4 0.3-0.2 0.1-0.4 0-0.4-0.3-0.3 0-0.5 0-0.8 0-0.4 0-0.7 0.1-0.9 0.3-0.2 0-0.4-0.1-0.6-0.1 0 0.1 0 0.2-0.1 0.3-0.2-0.4-0.3-0.9-0.3-1.4-0.1 0.1-0.2 0.1-0.2-0.1 0.2-0.7 0.4-1.3 0.6-1.8-0.1 0.1-0.3 0.2-0.5 0.3 0 0.2-0.1 0.5-0.1 0.8-0.2 0.1-0.3 0.1-0.3-0.1 0-0.2 0.1-0.3 0.2-0.4 0-0.1-0.1-0.2-0.2-0.2-0.1 0.5-0.2 1-0.2 1.5 0-0.6-0.1-1.1-0.1-1.6-0.1-0.7 0-1.4 0.3-2 0.1-0.2 0.2-0.2 0.3 0 0-0.2 0-0.3 0-0.5 0.2 0 0.3 0 0.4-0.1 0.1-0.3 0.2-0.6 0.4-0.8z"></path><path fill="#545454" d="m27.6 15.2c0.2 0.5 0.3 1 0.2 1.6 0 0.8 0 1.6-0.1 2.4-0.1 0.3-0.2 0.6-0.2 0.9 0.1 0.1 0.2 0.1 0.3-0.1 1 0 1.9-0.1 2.8-0.1 0 0 0.1 0.1 0.2 0.2 0.1-0.2 0.1-0.5 0.1-0.7 0.1 0.3 0.1 0.5 0.2 0.7-0.1 0.5-0.2 1-0.3 1.4-0.1 0-0.2-0.1-0.2-0.2 0 0.1-0.1 0.2-0.2 0.2-0.1-0.1-0.2-0.2-0.4-0.2-0.8 0-1.5 0-2.3 0.1-0.2 0.2-0.3 0.1-0.4-0.2-0.2 0.1-0.2 0.3-0.1 0.4-0.2 0.1-0.4 0.2-0.6 0.2 0-0.4-0.1-0.6-0.3-0.8 0.5-1.5 0.7-3 0.6-4.6 0-0.1 0-0.2 0.1-0.3 0 0.4 0.1 0.7 0.2 0.9 0.2-0.4 0.3-0.4 0.4 0 0.1-0.6 0.1-1.2 0-1.8z"></path><path fill="#5b5b5b" d="m26.6 12.1h0.1c0.3 1 0.7 1.9 1.4 2.7 0.6 1 1.5 1.9 2.6 2.5 0.2 0.1 0.4 0.2 0.6 0.2 0.1 0.9 0 1.7-0.2 2.6-0.1-0.2-0.1-0.4-0.2-0.7 0 0.2 0 0.5-0.1 0.7-0.1-0.1-0.2-0.2-0.2-0.2-0.9 0-1.8 0.1-2.8 0.1-0.1 0.2-0.2 0.2-0.4 0.1 0.1-0.3 0.2-0.6 0.3-0.9 0.1-0.8 0.1-1.6 0.1-2.4 0.1-0.6 0-1.1-0.2-1.6-0.2-1-0.7-2-1.2-3 0.1 0.2 0.2 0.1 0.2-0.1z"></path><path fill="#686868" d="m5.7 19.6c-0.1 0.2 0 0.4 0.1 0.6 0.3 1.3 0.7 2.5 1.3 3.6l0.7 1.3c-0.1 0-0.3 0-0.4-0.1-0.2-0.1-0.2-0.3 0-0.4-0.1-0.1-0.2-0.2-0.3-0.4-0.1 0.4-0.2 0.4-0.4 0.2-0.1 0-0.2 0.1-0.2 0.2-1-1.6-1.7-3.3-1.9-5.2 0-0.9-0.1-1.9 0-2.8 0 0.5 0.1 1 0.1 1.6 0-0.5 0.1-1 0.2-1.5 0.1 0 0.2 0.1 0.2 0.2-0.1 0.1-0.2 0.2-0.2 0.4 0 0.2 0.1 0.2 0.3 0.1 0-0.3 0.1-0.6 0.1-0.8 0.2-0.1 0.4-0.2 0.6-0.3-0.3 0.5-0.5 1.1-0.7 1.8 0 0.2 0.1 0.2 0.2 0.1 0 0.5 0.1 1 0.3 1.4z"></path><path fill="#484848" d="m8.9 19.1c0.2 1.1 0.6 2.3 1.2 3.3-0.1 0.2-0.3 0.3-0.4 0.4 0-0.2 0-0.5-0.1-0.7-0.2 0.1-0.2 0.3-0.1 0.4-0.1 0.1-0.2 0.1-0.3 0.3 0-0.2-0.1-0.3-0.3-0.4-0.6-0.7-1.3-1.5-2-2.2-0.4-0.1-0.7-0.3-1.1-0.3v0.3c-0.1-0.2-0.2-0.4-0.1-0.6 0.1-0.1 0.1-0.2 0.1-0.3 0.2 0 0.4 0.1 0.6 0.1 0.2-0.2 0.5-0.3 0.9-0.3 0.3 0 0.5 0 0.8 0 0 0.3 0.2 0.4 0.4 0.3 0.4 0.4 0.5 0.3 0.4-0.3z"></path><path fill="#565656" d="m22.8 20.8v0.2h-0.9v0.5c0 0.3 0 0.6-0.1 0.9 0-0.1-0.1-0.3-0.1-0.4 0.1-0.3 0.1-0.7 0.1-1-0.6 0-1.2 0-1.7-0.1l2.7-0.1z"></path><path fill="#0c0c0c" d="m22.8 21h1.8v2c-0.3 0-0.5 0-0.7 0.1-0.1 0.3-0.1 0.5-0.3 0.7 0-0.3-0.1-0.5-0.3-0.7-0.3-0.1-0.7-0.1-1.1-0.1v-1.5h-0.3v-0.5h0.9z"></path><path fill="#1f1f1f" d="m8.9 22.4c0.3 0.5 0.6 1 0.8 1.5-0.3-0.2-0.5-0.5-0.6-0.9 0 0.4-0.2 0.5-0.5 0.4 0.3-0.2 0.3-0.5 0-0.7-0.2 0.1-0.4 0.1-0.6 0l-0.4 0.4-0.5-0.4c0 0.3 0 0.7 0 1.1-0.6-1.1-1-2.3-1.3-3.6v-0.3c0.4 0 0.7 0.2 1.1 0.3 0.7 0.7 1.4 1.5 2 2.2z"></path><path fill="#f2f2f2" d="m13.4 21.5h0.5v0.5c0.1 0.1 0.1 0.3 0.2 0.4 0-0.2 0-0.5 0.1-0.7 0.1 0.7 0.2 1.4 0.1 2.1h-0.3c0-0.3-0.1-0.5-0.2-0.8 0 0.3 0 0.6 0 0.9h-0.4v-2.4z"></path><path fill="#e4e4e4" d="m18.6 21.9h-0.3v2h-0.4v-1.9c-0.2 0-0.3 0.1-0.5 0.2-0.2 0-0.3-0.1-0.4-0.2-0.1 0.2-0.1 0.3 0 0.5 0.6 0.2 0.7 0.5 0.6 1.1-0.7 0.5-1 0.4-1-0.5h0.3c0 0.2 0 0.3 0.1 0.4 0.2-0.2 0.2-0.4 0.2-0.6-0.3 0-0.4-0.1-0.5-0.2-0.1-0.3-0.1-0.6-0.1-0.8 0.3-0.5 0.6-0.5 1 0 0-0.1 0-0.2 0-0.4h1v0.4z"></path><path fill="#eee" d="m21.7 22c0 0.1 0.1 0.3 0.1 0.4 0.1-0.3 0.1-0.6 0.1-0.9h0.3v2.4c-0.1 0-0.3 0-0.4-0.1-0.2-0.8-0.3-0.7-0.3 0.1h-0.3v-2.4h0.5v0.5z"></path><path fill="#c8c8c8" d="m23.2 21.5c0.3 0.1 0.4 0.2 0.4 0.5 0.1-0.3 0.2-0.4 0.5-0.5 0.1 0.4 0 0.7-0.1 0.9-0.1-0.1-0.1-0.2-0.1-0.3-0.1 0.4-0.2 0.4-0.4 0.1 0 0.1-0.1 0.2-0.2 0.2-0.1-0.2-0.1-0.5-0.1-0.9z"></path><path fill="#3f3f3f" d="m11.8 24c-0.2 0-0.3-0.2-0.3-0.3-0.1-0.7-0.1-1.3 0-1.9 0.1-0.4 0.3-0.7 0.7-0.9 2.5-0.1 5-0.1 7.5 0-2.5 0-5.1 0.1-7.6 0.3-0.2 0.1-0.3 0.3-0.4 0.5-0.1 0.7-0.1 1.5 0.1 2.3z"></path><path fill="#c2c2c2" d="m22.4 21.7c0.2-0.2 0.5-0.2 0.7-0.1-0.1 0.2-0.3 0.5-0.3 0.8-0.1-0.3-0.2-0.5-0.4-0.7z"></path><path fill="#d6d6d6" d="m16.4 22.7c-0.1 0.8-0.3 0.8-0.5 0.1v-1.3h0.5v1.2z"></path><path fill="#e5e5e5" d="m19.7 22.8c0 0.3 0 0.7 0 1.1h-0.4c-0.1-1.3-0.2-1.3-0.2 0-0.2 0-0.3 0-0.4-0.2v-2.2c0.4 0 0.7 0.1 1 0.2 0 0.3 0.1 0.7 0 1.1z"></path><path fill="#e3e3e3" d="m12.9 21.5c0.1 0.1 0.2 0.2 0.3 0.4 0 0.5 0 1.1 0 1.7-0.3 0.4-0.6 0.4-0.9 0.1-0.1-0.6-0.1-1.1-0.1-1.7 0.1-0.4 0.3-0.5 0.7-0.5z"></path><path fill="#bbb" d="m14.5 23.5v0.4c-0.2 0-0.4 0-0.5-0.1h0.3c0.1-0.7 0-1.4-0.1-2.1-0.1 0.2-0.1 0.5-0.1 0.7-0.1-0.1-0.1-0.3-0.2-0.4 0.1-0.1 0.1-0.3 0.1-0.5h0.5v2z"></path><path fill="#494949" d="m30.8 21.5c-0.4 1.3-0.9 2.4-1.6 3.4-0.1-0.1-0.1-0.2 0-0.3-0.1 0-0.2 0-0.3-0.2-0.3 0.2-0.6 0.3-0.9 0.4 0.2 0 0.2 0.1 0 0.2-0.2-0.1-0.4-0.1-0.6 0-0.3-0.1-0.3-0.2 0-0.2-0.1-0.2-0.2-0.2-0.3-0.3 0.2-0.1 0.5-0.2 0.7-0.2-0.6-0.1-1.2-0.1-1.8 0 0.4 0 0.7 0.1 0.9 0.2-0.6 0.1-1.2 0.1-1.9 0.1-0.1 0.3-0.2 0.5-0.4 0.8 0-0.4 0.1-0.8 0.4-1.2 0.4-0.5 0.7-1 0.9-1.6 0.4-0.1 0.7-0.4 0.7-0.8 0.2 0 0.4-0.1 0.6-0.2-0.1-0.1-0.1-0.3 0.1-0.4 0.1 0.3 0.2 0.4 0.4 0.2 0.8-0.1 1.5-0.1 2.3-0.1 0.2 0 0.3 0.1 0.4 0.2 0.1 0 0.2-0.1 0.2-0.2 0 0.1 0.1 0.2 0.2 0.2z"></path><path fill="#e7e7e7" d="m21 23.6c-0.3 0.3-0.6 0.4-0.9 0.1-0.1-0.3-0.2-0.7-0.1-1-0.1-0.4 0-0.8 0.2-1.1 0.3-0.1 0.5 0 0.7 0.2 0.1 0.6 0.1 1.2 0.1 1.8z"></path><path fill="#141414" d="m9.7 23.9c0.4 0.8 0.7 1.6 0.9 2.5 0.1 0.5 0.1 1 0 1.6-0.4-0.3-0.8-0.7-1.2-1-0.6-0.6-1.1-1.2-1.6-1.9l-0.7-1.3c0-0.4 0-0.8 0-1.1l0.5 0.4 0.4-0.4c0.2 0.1 0.4 0.1 0.6 0 0.3 0.2 0.3 0.5 0 0.7 0.3 0.1 0.5 0 0.5-0.4 0.1 0.4 0.3 0.7 0.6 0.9z m3.7-2.4v2.4h0.4c0-0.3 0-0.6 0-0.9 0.1 0.3 0.2 0.5 0.2 0.8 0.1 0.1 0.3 0.1 0.5 0.1v-0.4l0.2-0.2c0.1 0.6 0.4 0.7 0.9 0.4 0.1 0 0.1-0.1 0.1-0.2 0.1-0.2 0.1-0.5 0.1-0.7h0.1c0.2 0.7 0.4 0.7 0.5-0.1l0.2-0.8c0 0.2 0 0.5 0.1 0.8 0.1 0.1 0.2 0.2 0.5 0.2 0 0.2 0 0.4-0.2 0.6-0.1-0.1-0.1-0.2-0.1-0.4h-0.3c0 0.9 0.3 1 1 0.5 0.1-0.6 0-0.9-0.6-1.1-0.1-0.2-0.1-0.3 0-0.5 0.1 0.1 0.2 0.2 0.4 0.2 0.2-0.1 0.3-0.2 0.5-0.2v1.9h0.5c0.1-0.6 0.1-1.2 0.2-1.8 0 0.6 0 1.1 0.1 1.6 0.1 0.2 0.2 0.2 0.4 0.2 0-1.3 0.1-1.3 0.2 0h0.4c0-0.4 0-0.8 0-1.1l0.3-0.1c-0.1 0.3 0 0.7 0.1 1 0.3 0.3 0.6 0.2 0.9-0.1 0.1-0.5 0.1-1.1 0.2-1.7v2h0.3c0-0.8 0.1-0.9 0.3-0.1 0.1 0.1 0.3 0.1 0.4 0.1v-0.8h0.6v1.4c-3.4 0-6.8 0-10.3-0.1-0.2 0-0.5-0.2-0.6-0.4 0.2-0.1 0.2-0.2 0-0.3-0.1-0.6-0.1-1.1 0-1.7l0.1 1.6c0.1-0.6 0.1-1.1 0.2-1.6 0 0.6 0 1.1 0.1 1.7 0.3 0.3 0.6 0.3 0.9-0.1 0-0.6 0-1.2 0-1.7-0.1-0.2-0.2-0.3-0.3-0.4-0.1 0-0.3-0.1-0.5-0.1 0.4-0.1 0.7-0.1 1 0.1z"></path><path fill="#2e2e2e" d="m15.7 22c0.1 0.2 0.1 0.5 0.1 0.8 0 0.2 0 0.5-0.1 0.7v-0.9c-0.2-0.1-0.4 0-0.6 0.1 0.2 0.2 0.3 0.5 0.3 0.8h-0.4v-1.5c0.3 0.1 0.5 0.1 0.7 0z m4.6 0h0.3v1.5h-0.3v-1.5z"></path><path fill="#626262" d="m18.6 21.9c-0.2 0.6-0.3 1.3-0.2 2h-0.1v-2h0.3z"></path><path fill="#464646" d="m19.1 21.9h0.3v0.7h-0.3v-0.7z"></path><path fill="#020202" d="m12.5 22c0.2 0.2 0.3 0.4 0.3 0.7l-0.1 0.8c-0.2-0.5-0.2-1-0.2-1.5z"></path><path fill="#e7e7e7" d="m15.7 22c-0.2 0.1-0.4 0.1-0.7 0v1.5h0.4c0-0.3-0.1-0.6-0.3-0.8 0.2-0.1 0.4-0.2 0.6-0.1v0.9c0 0.1 0 0.2-0.1 0.2-0.5 0.3-0.8 0.2-0.9-0.4 0-0.5 0-1 0-1.5 0.2-0.2 0.5-0.3 0.8-0.2 0.1 0.1 0.2 0.2 0.2 0.4z"></path><path fill="#b5b5b5" d="m15.9 23.5h0.5v0.4h-0.5v-0.4z"></path><path fill="#404040" d="m29.2 24.9c-0.8 1.3-1.7 2.5-2.6 3.6-0.1 0-0.1 0-0.1-0.1 0.2-0.2 0.3-0.5 0.2-0.7 0.1-0.1 0.1-0.2 0.2-0.3-0.3-0.2-0.6-0.1-0.8 0.2 0-0.1-0.1-0.2-0.2-0.2-0.3 0.1-0.6 0.1-0.9 0.2-0.3-0.1-0.5-0.1-0.8-0.2l-0.2 0.3c0.2 0.2 0.2 0.5 0.2 0.7-0.1-0.1-0.2-0.3-0.2-0.4-0.1 0.1-0.2 0.2-0.4 0.3 0.1-0.7 0.3-1.4 0.5-2 0.1-0.4 0.2-0.7 0.5-0.9 0.2-0.3 0.3-0.5 0.4-0.8 0.7 0 1.3 0 1.9-0.1-0.2-0.1-0.5-0.2-0.9-0.2 0.6-0.1 1.2-0.1 1.8 0-0.2 0-0.5 0.1-0.7 0.2 0.1 0.1 0.2 0.1 0.3 0.3-0.3 0-0.3 0.1 0.1 0.2 0.1-0.1 0.3-0.1 0.5 0 0.2-0.1 0.2-0.2 0-0.2 0.3-0.1 0.6-0.2 0.9-0.4 0.1 0.2 0.2 0.2 0.3 0.2-0.1 0.1-0.1 0.2 0 0.3z"></path><path fill="#414141" d="m22.8 20.8c0.6-0.1 1.3 0 1.9 0.1 0.1 0.7 0.1 1.4 0.1 2.1-0.2 0.1-0.5 0.1-0.7 0.2-0.1 0.2-0.2 0.5-0.3 0.7-0.1 0.1-0.2 0.1-0.3 0.1-0.1-0.3-0.1-0.5-0.3-0.8-0.1-0.1-0.2-0.1-0.3-0.1v1.5c-3.5 0-7.1 0-10.6-0.1-0.3 0-0.5-0.2-0.5-0.5h0.1c0.1 0.2 0.4 0.4 0.6 0.4 3.5 0.1 6.9 0.1 10.3 0.1v-1.4h-0.6v-0.1c0.4 0 0.8 0 1.1 0.1 0.2 0.2 0.3 0.4 0.3 0.7 0.2-0.2 0.2-0.4 0.3-0.7 0.2-0.1 0.4-0.1 0.7-0.1v-2h-1.8v-0.2z"></path><path fill="#363636" d="m10.1 22.4c1.4 2.4 3.5 3.9 6.3 4.5-0.3 0.2-0.5 0.4-0.8 0.6-0.2-0.2-0.1-0.4 0.2-0.5-0.4-0.1-0.7-0.2-1.1-0.2-0.2-0.1-0.3-0.2-0.4-0.3-0.1 0.2-0.3 0.2-0.5 0.3 0.2 0 0.4 0.1 0.5 0.2-0.6 0.1-1.2 0.1-1.8 0.2-0.3 0-0.6-0.1-0.9-0.3-0.1 0.2-0.1 0.3 0 0.4 0 0.3-0.1 0.4-0.4 0.5l-0.1 0c0.4-0.2 0.4-0.5 0.1-0.9l-0.2 0.3c0-0.4-0.1-0.6-0.4-0.8-0.2-0.9-0.5-1.7-0.9-2.5-0.2-0.5-0.5-1-0.8-1.5 0.2 0.1 0.3 0.2 0.3 0.4 0.1-0.2 0.2-0.2 0.3-0.3-0.1-0.1-0.1-0.3 0.1-0.4 0.1 0.2 0.1 0.5 0.1 0.7 0.1-0.1 0.3-0.2 0.4-0.4z"></path><path fill="#696969" d="m26.3 21c0.2 0.2 0.3 0.4 0.3 0.8 0 0.4-0.3 0.7-0.7 0.8-0.2 0.6-0.5 1.1-0.9 1.6-0.3 0.4-0.4 0.8-0.4 1.2-0.3 0.2-0.4 0.5-0.5 0.9-0.2 0.6-0.4 1.3-0.5 2-0.1 1.1-0.1 2.2 0 3.3-0.7-2.6-0.4-5 0.7-7.4 0.7-1 1.4-2.1 2-3.2z"></path><path fill="#2f2f2f" d="m22.1 29.1c0 0.3 0 0.7 0 1-0.1-0.6-0.1-1.1-0.3-1.7l-0.1 0.7c0-0.1-0.1-0.2 0-0.4-1.9-0.1-3.7-0.2-5.6-0.2-1.5 0-3 0.1-4.5 0.2-0.4-0.1-0.7-0.4-1-0.7 0.1-0.6 0.1-1.1 0-1.6 0.3 0.2 0.4 0.4 0.4 0.8l0.3-0.3c0.2 0.4 0.2 0.7-0.2 0.9l0.2 0c0.2-0.1 0.3-0.2 0.3-0.5-0.1-0.1-0.1-0.2 0-0.4 0.3 0.2 0.6 0.3 0.9 0.3 0.6-0.1 1.2-0.1 1.8-0.2-0.1-0.1-0.3-0.2-0.5-0.2 0.2-0.1 0.4-0.1 0.5-0.3 0.1 0.1 0.2 0.2 0.4 0.3 0.4 0 0.7 0.1 1.1 0.2-0.3 0.1-0.4 0.3-0.2 0.5 0.3-0.2 0.5-0.4 0.8-0.6 2.1 0.5 4.2 0.2 6.1-0.9-0.2 1-0.4 2.1-0.4 3.1z"></path><path fill="#323232" d="m26.6 28.5c-1.2 1.4-2 3-2.3 4.9-0.3-0.6-0.5-1.2-0.7-1.8-0.1-1.1-0.1-2.2 0-3.3 0.2-0.1 0.3-0.2 0.4-0.3 0 0.1 0.1 0.3 0.2 0.4 0-0.2 0-0.5-0.2-0.7l0.2-0.3c0.3 0.1 0.5 0.1 0.8 0.2 0.3-0.1 0.6-0.1 0.9-0.2 0.1 0 0.2 0.1 0.2 0.2 0.2-0.3 0.5-0.4 0.8-0.1-0.1 0-0.1 0.1-0.2 0.2 0.1 0.2 0 0.5-0.2 0.7 0 0.1 0 0.1 0.1 0.1z"></path><path fill="#282828" d="m22.1 29.1c0.1 0.4 0.2 0.9 0.1 1.4-0.6 0.3-1.3 0.4-2 0.4-2.9 0.2-5.6-0.4-8.1-1.8-0.1-0.1-0.3-0.3-0.5-0.4 1.5-0.1 3-0.2 4.5-0.2 1.9 0 3.7 0.1 5.6 0.2-0.1 0.2 0 0.3 0 0.4l0.1-0.7c0.2 0.6 0.2 1.1 0.3 1.7 0-0.3 0-0.7 0-1z"></path><path fill="#848484" d="m7.8 25.1c0.5 0.7 1 1.3 1.6 1.9 0.4 0.3 0.8 0.7 1.2 1 0.3 0.3 0.6 0.6 1 0.7 0.2 0.1 0.4 0.3 0.5 0.4 2.5 1.4 5.2 2 8.1 1.8 0.7 0 1.4-0.1 2-0.4 0.2 0.1 0.2 0.2 0 0.3-5.9 1.5-10.9-0.1-14.9-4.8-0.3-0.4-0.6-0.9-0.8-1.4 0-0.1 0.1-0.2 0.2-0.2 0.2 0.2 0.3 0.2 0.4-0.2 0.1 0.2 0.2 0.3 0.3 0.4-0.2 0.1-0.2 0.3 0 0.4 0.1 0.1 0.3 0.1 0.4 0.1z"></path></svg>