<?xml version="1.0" encoding="UTF-8"?>
<!DOCTYPE svg PUBLIC "-//W3C//DTD SVG 1.1//EN" "http://www.w3.org/Graphics/SVG/1.1/DTD/svg11.dtd">
<svg xmlns="http://www.w3.org/2000/svg" version="1.1" width="100px" height="100px" style="shape-rendering:geometricPrecision; text-rendering:geometricPrecision; image-rendering:optimizeQuality; fill-rule:evenodd; clip-rule:evenodd" xmlns:xlink="http://www.w3.org/1999/xlink">
<g><path style="opacity:1" fill="#5959dd" d="M -0.5,-0.5 C 3.16667,-0.5 6.83333,-0.5 10.5,-0.5C 13.0699,2.46062 16.0699,4.96062 19.5,7C 18.8333,7.33333 18.1667,7.66667 17.5,8C 19.7463,9.03949 21.913,10.2062 24,11.5C 25.6665,10.6598 25.8331,11.1598 24.5,13C 25.7155,15.0955 26.5488,14.9288 27,12.5C 28.3104,14.1322 28.8104,15.7988 28.5,17.5C 29.3914,18.5896 30.3914,18.5896 31.5,17.5C 33.0866,19.0851 33.9199,20.7518 34,22.5C 35.0113,21.6634 36.1779,21.33 37.5,21.5C 32.3951,24.8923 27.0618,28.059 21.5,31C 19.8446,32.4443 19.178,34.2776 19.5,36.5C 18.1235,35.444 17.2902,34.1107 17,32.5C 16.0862,33.6537 15.2529,33.487 14.5,32C 14.8333,31.6667 15.1667,31.3333 15.5,31C 14.3333,30.5 13.5,29.6667 13,28.5C 12.6667,29.1667 12.3333,29.8333 12,30.5C 7.99731,26.6516 3.83065,22.3183 -0.5,17.5C -0.5,11.5 -0.5,5.5 -0.5,-0.5 Z"/></g>
<g><path style="opacity:1" fill="#5b5ce3" d="M 10.5,-0.5 C 20.5,-0.5 30.5,-0.5 40.5,-0.5C 41.8361,1.01027 43.0027,2.67694 44,4.5C 44.6036,2.3143 45.7703,2.14763 47.5,4C 46.8333,4.33333 46.1667,4.66667 45.5,5C 47.2983,6.50528 49.1316,6.67194 51,5.5C 51.1667,5.83333 51.3333,6.16667 51.5,6.5C 50.624,7.25083 49.624,7.75083 48.5,8C 50.2464,8.47093 51.913,9.13759 53.5,10C 54.8333,10.6667 54.8333,11.3333 53.5,12C 56.5755,12.911 58.9089,14.7443 60.5,17.5C 61.723,18.6139 63.0563,18.7805 64.5,18C 64.1667,17.6667 63.8333,17.3333 63.5,17C 64.4162,16.6258 65.2496,16.1258 66,15.5C 67.008,17.259 68.508,18.4257 70.5,19C 69.1669,20.8402 69.3335,21.3402 71,20.5C 71.9476,22.5701 73.4476,24.0701 75.5,25C 74.3463,25.9138 74.513,26.7471 76,27.5C 76.3333,26.5 76.6667,25.5 77,24.5C 78.3029,26.9676 79.8029,29.301 81.5,31.5C 81.0688,32.2935 80.7355,33.1268 80.5,34C 82.1725,36.0048 83.8391,38.0048 85.5,40C 84.3463,40.9138 84.513,41.7471 86,42.5C 87.016,41.3659 87.6827,41.6992 88,43.5C 88.3333,43.1667 88.6667,42.8333 89,42.5C 90.3333,44.1667 91.6667,45.8333 93,47.5C 94.8402,46.1669 95.3402,46.3335 94.5,48C 96.0375,49.7073 97.7041,51.2073 99.5,52.5C 99.5,61.1667 99.5,69.8333 99.5,78.5C 96.5386,78.0739 94.3719,76.0739 93,72.5C 92,72.5 91,72.5 90,72.5C 87.3669,68.2669 83.8669,64.2669 79.5,60.5C 79.6665,51.1607 79.4998,41.8274 79,32.5C 69.5375,26.1856 59.7042,20.5189 49.5,15.5C 45.261,17.0847 41.261,19.0847 37.5,21.5C 36.1779,21.33 35.0113,21.6634 34,22.5C 33.9199,20.7518 33.0866,19.0851 31.5,17.5C 30.3914,18.5896 29.3914,18.5896 28.5,17.5C 28.8104,15.7988 28.3104,14.1322 27,12.5C 26.5488,14.9288 25.7155,15.0955 24.5,13C 25.8331,11.1598 25.6665,10.6598 24,11.5C 21.913,10.2062 19.7463,9.03949 17.5,8C 18.1667,7.66667 18.8333,7.33333 19.5,7C 16.0699,4.96062 13.0699,2.46062 10.5,-0.5 Z"/></g>
<g><path style="opacity:1" fill="#5c5fea" d="M 40.5,-0.5 C 60.1667,-0.5 79.8333,-0.5 99.5,-0.5C 99.5,17.1667 99.5,34.8333 99.5,52.5C 97.7041,51.2073 96.0375,49.7073 94.5,48C 95.3402,46.3335 94.8402,46.1669 93,47.5C 91.6667,45.8333 90.3333,44.1667 89,42.5C 88.6667,42.8333 88.3333,43.1667 88,43.5C 87.6827,41.6992 87.016,41.3659 86,42.5C 84.513,41.7471 84.3463,40.9138 85.5,40C 83.8391,38.0048 82.1725,36.0048 80.5,34C 80.7355,33.1268 81.0688,32.2935 81.5,31.5C 79.8029,29.301 78.3029,26.9676 77,24.5C 76.6667,25.5 76.3333,26.5 76,27.5C 74.513,26.7471 74.3463,25.9138 75.5,25C 73.4476,24.0701 71.9476,22.5701 71,20.5C 69.3335,21.3402 69.1669,20.8402 70.5,19C 68.508,18.4257 67.008,17.259 66,15.5C 65.2496,16.1258 64.4162,16.6258 63.5,17C 63.8333,17.3333 64.1667,17.6667 64.5,18C 63.0563,18.7805 61.723,18.6139 60.5,17.5C 58.9089,14.7443 56.5755,12.911 53.5,12C 54.8333,11.3333 54.8333,10.6667 53.5,10C 51.913,9.13759 50.2464,8.47093 48.5,8C 49.624,7.75083 50.624,7.25083 51.5,6.5C 51.3333,6.16667 51.1667,5.83333 51,5.5C 49.1316,6.67194 47.2983,6.50528 45.5,5C 46.1667,4.66667 46.8333,4.33333 47.5,4C 45.7703,2.14763 44.6036,2.3143 44,4.5C 43.0027,2.67694 41.8361,1.01027 40.5,-0.5 Z"/></g>
<g><path style="opacity:1" fill="#f7f7fd" d="M 79.5,60.5 C 79.6621,62.5273 79.4955,64.5273 79,66.5C 73.8536,69.9821 68.6869,73.3155 63.5,76.5C 58.8502,78.8249 54.1835,81.1582 49.5,83.5C 39.2958,78.4811 29.4625,72.8144 20,66.5C 19.5002,56.5056 19.3335,46.5056 19.5,36.5C 19.178,34.2776 19.8446,32.4443 21.5,31C 27.0618,28.059 32.3951,24.8923 37.5,21.5C 41.261,19.0847 45.261,17.0847 49.5,15.5C 59.7042,20.5189 69.5375,26.1856 79,32.5C 79.4998,41.8274 79.6665,51.1607 79.5,60.5 Z"/></g>
<g><path style="opacity:1" fill="#5c5cdf" d="M 73.5,55.5 C 70.5067,54.1666 68.1734,52.1666 66.5,49.5C 69.7106,45.287 68.7106,43.4536 63.5,44C 62.646,45.0217 61.646,45.8551 60.5,46.5C 59.6786,43.5535 59.1786,40.5535 59,37.5C 57.3333,36.1667 55.6667,36.1667 54,37.5C 53.5012,41.4862 53.3345,45.4862 53.5,49.5C 50.8333,49.5 48.1667,49.5 45.5,49.5C 45.6655,45.4862 45.4988,41.4862 45,37.5C 43.3333,36.1667 41.6667,36.1667 40,37.5C 39.6667,40.8333 39.3333,44.1667 39,47.5C 37.2894,44.4203 34.7894,43.2536 31.5,44C 30.7476,44.6708 30.4142,45.5041 30.5,46.5C 29.5268,44.7499 28.1935,43.2499 26.5,42C 27.7119,40.8932 27.3786,40.3932 25.5,40.5C 25.1043,37.9556 25.771,35.7889 27.5,34C 34.9618,30.0334 42.2951,25.8667 49.5,21.5C 57.416,26.0408 65.2493,30.7075 73,35.5C 73.4996,42.1583 73.6663,48.825 73.5,55.5 Z"/></g>
<g><path style="opacity:1" fill="#f6f6fd" d="M 66.5,49.5 C 64.2185,50.6082 62.0519,51.9415 60,53.5C 59.7822,56.4262 59.2822,59.2595 58.5,62C 56.8876,62.7203 55.3876,62.5536 54,61.5C 53.5045,59.5273 53.3379,57.5273 53.5,55.5C 50.8333,55.5 48.1667,55.5 45.5,55.5C 45.6621,57.5273 45.4955,59.5273 45,61.5C 43.6124,62.5536 42.1124,62.7203 40.5,62C 39.8747,59.1997 39.208,56.3664 38.5,53.5C 35.1956,51.8602 32.529,49.5269 30.5,46.5C 30.4142,45.5041 30.7476,44.6708 31.5,44C 34.7894,43.2536 37.2894,44.4203 39,47.5C 39.3333,44.1667 39.6667,40.8333 40,37.5C 41.6667,36.1667 43.3333,36.1667 45,37.5C 45.4988,41.4862 45.6655,45.4862 45.5,49.5C 48.1667,49.5 50.8333,49.5 53.5,49.5C 53.3345,45.4862 53.5012,41.4862 54,37.5C 55.6667,36.1667 57.3333,36.1667 59,37.5C 59.1786,40.5535 59.6786,43.5535 60.5,46.5C 61.646,45.8551 62.646,45.0217 63.5,44C 68.7106,43.4536 69.7106,45.287 66.5,49.5 Z"/></g>
<g><path style="opacity:1" fill="#5554d3" d="M -0.5,17.5 C 3.83065,22.3183 7.99731,26.6516 12,30.5C 12.3333,29.8333 12.6667,29.1667 13,28.5C 13.5,29.6667 14.3333,30.5 15.5,31C 15.1667,31.3333 14.8333,31.6667 14.5,32C 15.2529,33.487 16.0862,33.6537 17,32.5C 17.2902,34.1107 18.1235,35.444 19.5,36.5C 19.3335,46.5056 19.5002,56.5056 20,66.5C 29.4625,72.8144 39.2958,78.4811 49.5,83.5C 54.1835,81.1582 58.8502,78.8249 63.5,76.5C 63.1833,81.4127 65.6833,84.746 71,86.5C 71.3333,86.1667 71.6667,85.8333 72,85.5C 74.3213,87.9161 76.1547,90.5827 77.5,93.5C 77.8333,93.8333 78.1667,94.1667 78.5,94.5C 78.8333,93.8333 79.1667,93.1667 79.5,92.5C 81.4312,94.7158 83.0979,97.0492 84.5,99.5C 56.1667,99.5 27.8333,99.5 -0.5,99.5C -0.5,72.1667 -0.5,44.8333 -0.5,17.5 Z"/></g>
<g><path style="opacity:1" fill="#5959da" d="M 25.5,40.5 C 27.3786,40.3932 27.7119,40.8932 26.5,42C 28.1935,43.2499 29.5268,44.7499 30.5,46.5C 32.529,49.5269 35.1956,51.8602 38.5,53.5C 39.208,56.3664 39.8747,59.1997 40.5,62C 42.1124,62.7203 43.6124,62.5536 45,61.5C 45.4955,59.5273 45.6621,57.5273 45.5,55.5C 48.1667,55.5 50.8333,55.5 53.5,55.5C 53.3379,57.5273 53.5045,59.5273 54,61.5C 55.3876,62.5536 56.8876,62.7203 58.5,62C 59.2822,59.2595 59.7822,56.4262 60,53.5C 62.0519,51.9415 64.2185,50.6082 66.5,49.5C 68.1734,52.1666 70.5067,54.1666 73.5,55.5C 74.0065,59.0071 73.3398,62.1737 71.5,65C 64.0382,68.9666 56.7049,73.1333 49.5,77.5C 41.584,72.9592 33.7507,68.2925 26,63.5C 25.5003,55.8406 25.3336,48.1739 25.5,40.5 Z"/></g>
<g><path style="opacity:1" fill="#5859dc" d="M 79.5,60.5 C 83.8669,64.2669 87.3669,68.2669 90,72.5C 91,72.5 92,72.5 93,72.5C 94.3719,76.0739 96.5386,78.0739 99.5,78.5C 99.5,85.5 99.5,92.5 99.5,99.5C 94.5,99.5 89.5,99.5 84.5,99.5C 83.0979,97.0492 81.4312,94.7158 79.5,92.5C 79.1667,93.1667 78.8333,93.8333 78.5,94.5C 78.1667,94.1667 77.8333,93.8333 77.5,93.5C 76.1547,90.5827 74.3213,87.9161 72,85.5C 71.6667,85.8333 71.3333,86.1667 71,86.5C 65.6833,84.746 63.1833,81.4127 63.5,76.5C 68.6869,73.3155 73.8536,69.9821 79,66.5C 79.4955,64.5273 79.6621,62.5273 79.5,60.5 Z"/></g>
</svg>
