<?xml version="1.0"?><svg xmlns="http://www.w3.org/2000/svg" width="36" height="36" shape-rendering="geometricPrecision" text-rendering="geometricPrecision" image-rendering="optimizeQuality" fill-rule="evenodd" clip-rule="evenodd" viewBox="0 0 36 36"><path fill="#5959dd" d="m-0.2-0.2h4c0.9 1.1 2 2 3.2 2.7l-0.7 0.4c0.8 0.4 1.6 0.8 2.3 1.2 0.6-0.3 0.7-0.1 0.2 0.6 0.5 0.7 0.8 0.7 0.9-0.2 0.5 0.6 0.7 1.2 0.6 1.8 0.3 0.4 0.6 0.4 1 0 0.6 0.6 0.9 1.2 0.9 1.8 0.4-0.3 0.8-0.4 1.3-0.4-1.8 1.3-3.8 2.4-5.8 3.5-0.6 0.5-0.8 1.1-0.7 1.9-0.5-0.3-0.8-0.8-0.9-1.4-0.3 0.4-0.6 0.4-0.9-0.2l0.4-0.3c-0.4-0.2-0.7-0.5-0.9-0.9l-0.4 0.7c-1.4-1.4-2.9-3-4.5-4.7v-6.5z"></path><path fill="#5b5ce3" d="m3.8-0.2h10.8c0.5 0.6 0.9 1.2 1.2 1.8 0.3-0.8 0.7-0.8 1.3-0.2l-0.7 0.4c0.6 0.5 1.3 0.6 2 0.2l0.1 0.3c-0.3 0.3-0.6 0.5-1 0.6 0.6 0.1 1.2 0.4 1.8 0.7 0.4 0.2 0.4 0.5 0 0.7 1.1 0.3 1.9 1 2.5 2 0.4 0.4 0.9 0.5 1.4 0.2l-0.3-0.4c0.3-0.1 0.6-0.3 0.9-0.5 0.3 0.6 0.9 1 1.6 1.2-0.5 0.7-0.4 0.9 0.2 0.6 0.3 0.7 0.8 1.3 1.6 1.6-0.4 0.3-0.4 0.6 0.2 0.9l0.3-1.1c0.5 0.9 1 1.7 1.6 2.5-0.1 0.3-0.2 0.6-0.3 0.9 0.6 0.8 1.2 1.5 1.8 2.2-0.4 0.3-0.4 0.6 0.2 0.9 0.3-0.4 0.6-0.3 0.7 0.4l0.3-0.4 1.5 1.8c0.6-0.5 0.8-0.4 0.5 0.2 0.6 0.6 1.2 1.1 1.8 1.6v9.4c-1-0.2-1.8-0.9-2.3-2.2h-1.1c-0.9-1.5-2.2-3-3.8-4.3 0.1-3.4 0-6.7-0.2-10.1-3.4-2.3-6.9-4.3-10.6-6.1-1.5 0.6-2.9 1.3-4.3 2.1-0.5 0-0.9 0.1-1.3 0.4 0-0.6-0.3-1.2-0.9-1.8-0.4 0.4-0.7 0.4-1 0 0.1-0.6-0.1-1.2-0.6-1.8-0.1 0.9-0.4 0.9-0.9 0.2 0.5-0.7 0.4-0.9-0.2-0.6-0.7-0.4-1.5-0.8-2.3-1.2l0.7-0.4c-1.2-0.7-2.3-1.6-3.2-2.7z"></path><path fill="#5c5fea" d="m14.6-0.2h21.2v19.1c-0.6-0.5-1.2-1-1.8-1.6 0.3-0.6 0.1-0.7-0.5-0.2l-1.5-1.8-0.3 0.4c-0.1-0.7-0.4-0.8-0.7-0.4-0.6-0.3-0.6-0.6-0.2-0.9-0.6-0.7-1.2-1.4-1.8-2.2 0.1-0.3 0.2-0.6 0.3-0.9-0.6-0.8-1.1-1.6-1.6-2.5l-0.3 1.1c-0.6-0.3-0.6-0.6-0.2-0.9-0.8-0.3-1.3-0.9-1.6-1.6-0.6 0.3-0.7 0.1-0.2-0.6-0.7-0.2-1.3-0.6-1.6-1.2-0.3 0.2-0.6 0.4-0.9 0.5l0.3 0.4c-0.5 0.3-1 0.2-1.4-0.2-0.6-1-1.4-1.7-2.5-2 0.4-0.2 0.4-0.5 0-0.7-0.6-0.3-1.2-0.6-1.8-0.7 0.4-0.1 0.7-0.3 1-0.6l-0.1-0.3c-0.7 0.4-1.4 0.3-2-0.2l0.7-0.4c-0.6-0.6-1-0.6-1.3 0.2-0.3-0.6-0.7-1.2-1.2-1.8z"></path><path fill="#f7f7fd" d="m28.6 21.8c0.1 0.7 0 1.4-0.2 2.1-1.8 1.3-3.7 2.5-5.5 3.6l-5.1 2.6c-3.7-1.8-7.2-3.9-10.6-6.2-0.2-3.6-0.2-7.2-0.2-10.8-0.1-0.8 0.1-1.4 0.7-1.9 2-1.1 4-2.2 5.8-3.5 1.4-0.8 2.8-1.5 4.3-2.1 3.7 1.8 7.2 3.8 10.6 6.1 0.2 3.4 0.3 6.7 0.2 10.1z"></path><path fill="#5c5cdf" d="m26.5 20c-1.1-0.5-2-1.2-2.6-2.2 1.2-1.5 0.8-2.2-1-2-0.3 0.4-0.7 0.7-1.1 0.9-0.3-1-0.5-2.1-0.6-3.2-0.6-0.5-1.2-0.5-1.8 0-0.1 1.4-0.2 2.9-0.1 4.3h-2.9c0-1.4 0-2.9-0.2-4.3-0.6-0.5-1.2-0.5-1.8 0l-0.4 3.6c-0.6-1.1-1.5-1.5-2.7-1.3-0.2 0.3-0.4 0.6-0.3 0.9-0.4-0.6-0.9-1.1-1.5-1.6 0.5-0.4 0.4-0.6-0.3-0.5-0.2-0.9 0.1-1.7 0.7-2.4 2.7-1.4 5.3-2.9 7.9-4.5 2.9 1.7 5.7 3.4 8.5 5.1 0.2 2.4 0.2 4.8 0.2 7.2z"></path><path fill="#f6f6fd" d="m23.9 17.8c-0.8 0.4-1.6 0.9-2.3 1.5-0.1 1-0.3 2-0.5 3-0.6 0.3-1.2 0.2-1.7-0.2-0.1-0.7-0.2-1.4-0.1-2.1h-2.9c0 0.7 0 1.4-0.2 2.1-0.5 0.4-1 0.5-1.6 0.2-0.2-1-0.5-2-0.7-3-1.2-0.6-2.2-1.5-2.9-2.6-0.1-0.3 0.1-0.6 0.3-0.9 1.2-0.2 2.1 0.2 2.7 1.3l0.4-3.6c0.6-0.5 1.2-0.5 1.8 0 0.2 1.4 0.2 2.9 0.2 4.3h2.9c-0.1-1.4 0-2.9 0.1-4.3 0.6-0.5 1.2-0.5 1.8 0 0.1 1.1 0.3 2.2 0.6 3.2 0.4-0.2 0.8-0.5 1.1-0.9 1.8-0.2 2.2 0.5 1 2z"></path><path fill="#5554d3" d="m-0.2 6.3c1.6 1.7 3.1 3.3 4.5 4.7l0.4-0.7c0.2 0.4 0.5 0.7 0.9 0.9l-0.4 0.3c0.3 0.6 0.6 0.6 0.9 0.2 0.1 0.6 0.4 1.1 0.9 1.4 0 3.6 0 7.2 0.2 10.8 3.4 2.3 6.9 4.4 10.6 6.2l5.1-2.6c-0.2 1.8 0.7 3 2.7 3.6l0.3-0.3c0.9 0.8 1.5 1.8 2 2.9l0.4 0.3 0.3-0.7c0.7 0.8 1.3 1.6 1.8 2.5h-30.6v-29.5z"></path><path fill="#5959da" d="m9.2 14.6c0.7-0.1 0.8 0.1 0.3 0.5 0.6 0.5 1.1 1 1.5 1.6 0.7 1.1 1.7 2 2.9 2.6 0.2 1 0.5 2 0.7 3 0.6 0.3 1.1 0.2 1.6-0.2 0.2-0.7 0.2-1.4 0.2-2.1h2.9c-0.1 0.7 0 1.4 0.1 2.1 0.5 0.4 1.1 0.5 1.7 0.2 0.2-1 0.4-2 0.5-3 0.7-0.6 1.5-1.1 2.3-1.5 0.6 1 1.5 1.7 2.6 2.2 0.1 1.2-0.1 2.4-0.8 3.4-2.6 1.4-5.3 2.9-7.9 4.5-2.8-1.6-5.6-3.3-8.4-5-0.2-2.8-0.3-5.6-0.2-8.3z"></path><path fill="#5859dc" d="m28.6 21.8c1.6 1.3 2.9 2.8 3.8 4.3h1.1c0.5 1.3 1.3 2 2.3 2.2v7.5h-5.4c-0.5-0.9-1.1-1.7-1.8-2.5l-0.3 0.7-0.4-0.3c-0.5-1.1-1.1-2.1-2-2.9l-0.3 0.3c-2-0.6-2.9-1.8-2.7-3.6 1.8-1.1 3.7-2.3 5.5-3.6 0.2-0.7 0.3-1.4 0.2-2.1z"></path></svg>