<?xml version="1.0"?><svg xmlns="http://www.w3.org/2000/svg" width="36" height="36" shape-rendering="geometricPrecision" text-rendering="geometricPrecision" image-rendering="optimizeQuality" fill-rule="evenodd" clip-rule="evenodd" viewBox="0 0 36 36"><path fill="#020202" d="m-0.2-0.2h36v36h-36v-36z"></path><path fill="#f3f3f3" d="m16.7 8.8c1.8 0.5 3.5 1.3 5.1 2.4 0.4 1.8 0.4 3.6 0.2 5.5-1.6 0.9-3.2 1.7-4.7 2.6-1.7-0.7-3.3-1.6-4.9-2.6-0.4-1.7-0.5-3.5-0.2-5.4 1.6-0.8 3.1-1.6 4.5-2.5z"></path><path fill="#191919" d="m19.6 11.7c-1.4-0.1-2.9 0-4.3 0.2-0.4 0.2-0.4 0.4 0 0.5 1.5 0.4 3 0.5 4.7 0.4v4.3c-1.7 0.1-3.4 0-5.1-0.4l-0.3-2.7c-0.5-2.5 0.5-3.6 3-3l2.4 0.3c-0.1 0.3-0.2 0.4-0.4 0.4z"></path><path fill="#6f6f6f" d="m19.6 11.7c0.1 0.2 0.2 0.4 0.4 0.5-1.6 0.2-3.1 0.3-4.7 0.2-0.4-0.1-0.4-0.3 0-0.5 1.4-0.2 2.9-0.3 4.3-0.2z"></path><path fill="#9e9e9e" d="m19.3 13.5h-4v2.9c-0.4-1-0.5-2.1-0.4-3.3 1.6-0.1 3 0 4.4 0.4z"></path><path fill="#fefefe" d="m19.3 13.5v2.9h-4v-2.9h4z"></path><path fill="#dadada" d="m11.7 20.3c1.5-0.1 2.2 0.5 2.2 2-0.7 0.5-1.4 0.7-2.2 0.6v-2.6z"></path><path fill="#eee" d="m14.9 20.3c1.7 0.1 2.1 0.9 1.5 2.4-2.2 0.3-2.7-0.5-1.5-2.4z"></path><path fill="#161616" d="m14.9 21.1c1-0.2 1.4 0.2 1.3 1-1.3 0.6-1.7 0.2-1.3-1z"></path><path fill="#d6d6d6" d="m18.2 20.3c1.6 0.2 2.1 0.9 1.4 2.4-1.2 0.4-2 0-2.5-1.1 0.2-0.6 0.6-1 1.1-1.3z"></path><path fill="#0e0e0e" d="m17.8 21.1h1.5c0.1 0.6-0.2 1.1-0.8 1.4-0.5-0.3-0.8-0.8-0.7-1.4z"></path><path fill="#cbcbcb" d="m20.3 20.3c0.5 0.1 0.8 0.3 0.9 0.8 1.3-0.9 1.5-0.8 0.6 0.5 1 1.3 0.8 1.5-0.6 0.5-0.1 0.3-0.3 0.6-0.5 0.8-0.4-0.8-0.5-1.7-0.4-2.6z"></path><path fill="#181818" d="m12.4 21.8c0.7 0 0.8 0.3 0.4 0.7-0.3-0.2-0.4-0.4-0.4-0.7z"></path><path fill="#fafafa" d="m11.7 23.9c0.5-0.4 1.1-0.4 1.8-0.1-0.6 0.5-0.9 1.1-0.9 1.9 0-0.8-0.3-1.4-0.9-1.8z"></path><path fill="#ddd" d="m14.2 23.6c1.7-0.2 2.2 0.5 1.5 2-1.8 0.3-2.2-0.4-1.5-2z"></path><path fill="#f8f8f8" d="m18.9 23.6c1.6 0 1.7 0.1 0.4 0.5 0.9 0.2 0.9 0.5 0 0.9 1.4 0.6 1.2 0.8-0.4 0.7v-2.1z"></path><path fill="#dfdfdf" d="m21.8 24.7c-0.5 0.1-0.8 0.5-0.9 1-0.3-0.7-0.3-1.4 0.2-2.1 0.5 0.2 0.7 0.5 0.7 1.1z"></path><path fill="#090909" d="m14.6 23.9c0.5 0 0.9 0.2 1.1 0.8-0.5 0.4-1 0.4-1.5 0 0.2-0.3 0.3-0.5 0.4-0.8z"></path><path fill="#c6c6c6" d="m17.5 24.7c-0.3 0.3-0.5 0.6-0.8 1-0.4-0.7-0.4-1.4 0-2.1 0.5 0.2 1 0.3 1.5 0.2-0.3 0.2-0.6 0.5-0.7 0.9z"></path><path fill="#b4b4b4" d="m21.8 24.7c0.2-0.4 0.5-0.7 0.7-1.1 0.5 0.7 0.5 1.4 0 2.1-0.5-0.1-0.8-0.5-0.7-1z"></path><path fill="#c5c5c5" d="m17.5 24.7c0.4 0.2 0.7 0.5 1 0.9-0.7 0.1-1-0.2-1-0.9z"></path><path fill="#e0e0e0" d="m18.5 27.9c0.6-0.4 1.2-0.5 1.8-0.2-0.5 0.5-0.8 1.2-0.9 2 0-0.8-0.3-1.4-0.9-1.8z"></path><path fill="#9f9f9f" d="m16.4 27.5c1.6-0.1 2.2 0.6 1.6 2.2-0.4-0.9-0.8-0.9-1.3 0-0.3-0.7-0.4-1.4-0.3-2.2z"></path><path fill="#c8c8c8" d="m14.9 27.5c0.8 0.6 1.1 1.3 0.9 2.2-0.6-0.3-1.1-0.4-1.6-0.4 0.3-0.6 0.5-1.2 0.7-1.8z"></path></svg>