<svg xmlns="http://www.w3.org/2000/svg" width="100" height="100" viewBox="0 0 100 100" version="1.1">
	<path fill-opacity="0.243" d="M 0 50.009 L 0 100.018 50.250 99.759 L 100.500 99.500 100.759 49.750 L 101.019 -0 50.509 -0 L 0 0 0 50.009 M 0.464 50.500 C 0.464 78, 0.592 89.106, 0.749 75.180 C 0.906 61.255, 0.906 38.755, 0.749 25.180 C 0.592 11.606, 0.464 23, 0.464 50.500 M 41.250 28.659 L 35 32.180 35 39.523 L 35 46.866 41.624 50.383 L 48.247 53.901 55.124 50.438 L 62 46.975 62 39.500 L 62 32.025 55.025 28.513 C 51.189 26.581, 47.926 25.031, 47.775 25.070 C 47.624 25.108, 44.688 26.723, 41.250 28.659 M 41.035 32.934 C 40.466 33.998, 40 36.953, 40 39.500 C 40 47.102, 40.954 48, 49.035 48 L 56 48 56 42 L 56 36 49.250 35.823 L 42.500 35.647 49 35.073 C 54.141 34.620, 55.561 34.134, 55.794 32.750 C 56.050 31.222, 55.199 31, 49.079 31 C 43.173 31, 41.907 31.304, 41.035 32.934 M 43 42 L 43 46 48.500 46 L 54 46 54 42 L 54 38 48.500 38 L 43 38 43 42 M 33 61 C 33 63.511, 33.396 64, 35.433 64 C 37.489 64, 37.853 63.535, 37.781 61 C 37.711 58.543, 37.271 58, 35.348 58 C 33.406 58, 33 58.519, 33 61 M 40.387 59.433 C 39.314 62.231, 40.789 64.157, 43.744 63.817 C 45.933 63.565, 46.500 62.985, 46.500 61 C 46.500 59.015, 45.933 58.435, 43.744 58.183 C 41.947 57.976, 40.779 58.411, 40.387 59.433 M 49 59.500 C 48.007 60.697, 48.007 61.303, 49 62.500 C 51.522 65.539, 56.775 63.184, 55.410 59.627 C 54.627 57.585, 50.654 57.507, 49 59.500 M 57.015 60.941 C 57.001 64.162, 57.092 64.258, 58.429 62.441 C 59.760 60.632, 59.903 60.619, 60.536 62.250 C 60.909 63.212, 61.686 64, 62.262 64 C 62.838 64, 62.571 63.184, 61.669 62.186 C 60.353 60.733, 60.273 60.097, 61.264 58.985 C 62.318 57.800, 62.232 57.800, 60.674 58.984 C 59.112 60.171, 58.716 60.164, 57.939 58.936 C 57.291 57.912, 57.026 58.488, 57.015 60.941 M 34.813 59.683 C 35.534 59.972, 36.397 59.936, 36.729 59.604 C 37.061 59.272, 36.471 59.036, 35.417 59.079 C 34.252 59.127, 34.015 59.364, 34.813 59.683 M 41.175 60.669 C 41.599 62.870, 45.500 63.169, 45.500 61 C 45.500 60.175, 44.447 59.351, 43.161 59.169 C 41.347 58.912, 40.901 59.249, 41.175 60.669 M 50 61 C 50 62.333, 50.667 63, 52 63 C 53.333 63, 54 62.333, 54 61 C 54 59.667, 53.333 59, 52 59 C 50.667 59, 50 59.667, 50 61 M 34 62 C 34 62.550, 34.675 63, 35.500 63 C 36.325 63, 37 62.550, 37 62 C 37 61.450, 36.325 61, 35.500 61 C 34.675 61, 34 61.450, 34 62 M 33.649 66.765 C 34.281 67.169, 35.007 68.625, 35.263 70 L 35.728 72.500 35.864 69.833 C 35.939 68.367, 36.563 66.940, 37.250 66.662 C 37.938 66.385, 37.150 66.129, 35.500 66.094 C 33.850 66.059, 33.017 66.361, 33.649 66.765 M 39.667 66.667 C 38.400 67.933, 39.006 70.788, 40.678 71.430 C 42.802 72.245, 45.471 69.669, 44.668 67.578 C 44.060 65.994, 40.913 65.420, 39.667 66.667 M 46.015 68.372 C 46.003 70.643, 46.277 71.015, 47.324 70.146 C 48.193 69.425, 49.051 69.383, 49.824 70.024 C 50.663 70.721, 50.721 70.663, 50.024 69.824 C 49.378 69.045, 49.462 68.115, 50.274 67.074 C 51.367 65.671, 51.302 65.656, 49.674 66.936 C 48.087 68.183, 47.729 68.183, 46.939 66.936 C 46.271 65.880, 46.027 66.260, 46.015 68.372 M 53 69 C 53 71.479, 53.391 71.980, 55.250 71.884 C 56.943 71.797, 57.067 71.655, 55.750 71.311 C 53.749 70.788, 53.367 69.008, 55.250 68.985 C 56.144 68.974, 56.103 68.718, 55.105 68.086 C 53.984 67.376, 54.082 67.107, 55.605 66.717 C 57.211 66.306, 57.157 66.214, 55.250 66.116 C 53.391 66.020, 53 66.521, 53 69 M 58.136 69.095 C 58.236 71.584, 58.392 71.873, 58.717 70.168 C 59.142 67.934, 59.242 67.909, 61.080 69.573 C 62.932 71.249, 62.996 71.208, 62.884 68.405 C 62.811 66.572, 62.594 66.174, 62.296 67.325 C 61.848 69.059, 61.728 69.064, 59.912 67.420 C 58.064 65.748, 58.005 65.803, 58.136 69.095 M 40.190 68.750 C 40.376 69.713, 41.190 70.500, 42 70.500 C 42.810 70.500, 43.624 69.713, 43.810 68.750 C 44.046 67.522, 43.506 67, 42 67 C 40.494 67, 39.954 67.522, 40.190 68.750 M 41.135 79.602 C 40.470 81.063, 40.126 82.459, 40.371 82.705 C 40.617 82.950, 41.138 82.139, 41.531 80.902 L 42.245 78.654 43.664 81.077 L 45.083 83.500 44.429 81 C 43.414 77.118, 42.453 76.710, 41.135 79.602 M 49.444 79.444 C 49.603 80.886, 49.992 82.325, 50.310 82.643 C 50.627 82.961, 50.762 82.045, 50.609 80.609 C 50.455 79.172, 50.066 77.733, 49.743 77.410 C 49.421 77.087, 49.286 78.003, 49.444 79.444 M 54.116 79.750 C 54.205 81.858, 54.349 82.033, 54.732 80.500 C 55.007 79.400, 55.742 78.169, 56.366 77.765 C 57.086 77.299, 56.861 77.025, 55.750 77.015 C 54.476 77.004, 54.032 77.748, 54.116 79.750" stroke="none" fill="black" fill-rule="evenodd"/>
	<path fill-opacity="0.270" d="M 0 50.009 L 0 100.018 50.250 99.759 L 100.500 99.500 100.759 49.750 L 101.019 -0 50.509 -0 L 0 0 0 50.009 M 0.464 50.500 C 0.464 78, 0.592 89.106, 0.749 75.180 C 0.906 61.255, 0.906 38.755, 0.749 25.180 C 0.592 11.606, 0.464 23, 0.464 50.500 M 40.709 28.680 L 33.918 32.302 34.209 39.390 L 34.500 46.479 41.257 50.365 L 48.013 54.252 54.757 50.696 L 61.500 47.139 61.790 39.683 L 62.080 32.228 55.506 28.614 C 51.890 26.626, 48.609 25.013, 48.216 25.029 C 47.822 25.045, 44.444 26.688, 40.709 28.680 M 42.250 31.662 C 41.410 32.001, 41 34.564, 41 39.476 C 41 47.918, 41.087 48, 50.082 48 L 56 48 56 42.046 L 56 36.091 49.491 35.796 C 45.911 35.633, 42.982 35.050, 42.982 34.500 C 42.982 33.950, 45.911 33.367, 49.491 33.204 C 53.071 33.042, 56 32.479, 56 31.954 C 56 30.984, 44.534 30.741, 42.250 31.662 M 45.728 34.722 C 47.503 34.943, 50.653 34.946, 52.728 34.730 C 54.802 34.513, 53.350 34.333, 49.500 34.328 C 45.650 34.324, 43.952 34.501, 45.728 34.722 M 42.193 41.250 L 42.500 45.500 48.250 45.800 L 54 46.100 54 41.550 L 54 37 47.943 37 L 41.885 37 42.193 41.250 M 41.529 58.355 C 38.764 60.377, 39.968 63.500, 43.514 63.500 C 45.822 63.500, 46.571 63.004, 46.811 61.318 C 47.226 58.403, 43.965 56.574, 41.529 58.355 M 33 61 C 33 63.514, 33.395 64, 35.441 64 C 38.070 64, 39.646 62.518, 38.060 61.537 C 37.525 61.206, 37.341 60.275, 37.651 59.468 C 38.057 58.409, 37.488 58, 35.607 58 C 33.377 58, 33 58.434, 33 61 M 48.590 59.627 C 47.816 61.643, 49.654 64, 52 64 C 52.965 64, 54.268 63.382, 54.895 62.627 C 56.679 60.477, 55.130 58, 52 58 C 50.350 58, 48.960 58.663, 48.590 59.627 M 57 61 C 57 62.650, 57.450 64, 58 64 C 58.550 64, 59 63.460, 59 62.800 C 59 61.867, 59.267 61.867, 60.200 62.800 C 61.928 64.528, 63.479 64.282, 62.011 62.513 C 61.332 61.695, 61.078 60.232, 61.447 59.263 C 61.985 57.849, 61.869 57.748, 60.859 58.750 C 59.358 60.240, 57.620 60.424, 58.500 59 C 58.840 58.450, 58.641 58, 58.059 58 C 57.477 58, 57 59.350, 57 61 M 34.813 59.683 C 35.534 59.972, 36.397 59.936, 36.729 59.604 C 37.061 59.272, 36.471 59.036, 35.417 59.079 C 34.252 59.127, 34.015 59.364, 34.813 59.683 M 41.480 60.032 C 41.092 60.660, 41.245 61.645, 41.820 62.220 C 43.164 63.564, 46.297 62.392, 45.750 60.749 C 45.194 59.078, 42.364 58.602, 41.480 60.032 M 50 61 C 50 62.333, 50.667 63, 52 63 C 53.333 63, 54 62.333, 54 61 C 54 59.667, 53.333 59, 52 59 C 50.667 59, 50 59.667, 50 61 M 35 62 C 35 62.550, 35.450 63, 36 63 C 36.550 63, 37 62.550, 37 62 C 37 61.450, 36.550 61, 36 61 C 35.450 61, 35 61.450, 35 62 M 33.649 66.765 C 34.281 67.169, 35.007 68.625, 35.263 70 L 35.728 72.500 35.864 69.833 C 35.939 68.367, 36.563 66.940, 37.250 66.662 C 37.938 66.385, 37.150 66.129, 35.500 66.094 C 33.850 66.059, 33.017 66.361, 33.649 66.765 M 39.709 66.624 C 38.658 67.675, 38.850 70.789, 40.009 71.506 C 42.022 72.750, 45.128 70.911, 44.808 68.664 C 44.503 66.523, 41.151 65.182, 39.709 66.624 M 46 69 C 46 72.251, 47.485 73.087, 48.221 70.250 C 48.781 68.089, 48.140 66, 46.917 66 C 46.413 66, 46 67.350, 46 69 M 49 67.059 C 49 67.641, 49.450 67.840, 50 67.500 C 50.550 67.160, 51 66.684, 51 66.441 C 51 66.198, 50.550 66, 50 66 C 49.450 66, 49 66.477, 49 67.059 M 53 69 C 53 71.479, 53.391 71.980, 55.250 71.884 C 56.943 71.797, 57.067 71.655, 55.750 71.311 C 53.749 70.788, 53.367 69.008, 55.250 68.985 C 56.144 68.974, 56.103 68.718, 55.105 68.086 C 53.984 67.376, 54.082 67.107, 55.605 66.717 C 57.211 66.306, 57.157 66.214, 55.250 66.116 C 53.391 66.020, 53 66.521, 53 69 M 58.136 69.250 C 58.236 71.626, 58.389 71.891, 58.708 70.235 C 58.947 68.990, 59.556 68.225, 60.060 68.537 C 60.564 68.849, 60.709 68.406, 60.382 67.552 C 59.345 64.851, 57.995 65.873, 58.136 69.250 M 61.665 68.174 C 61.012 70.671, 61.708 72.298, 63.069 71.457 C 64.254 70.725, 64.295 66, 63.117 66 C 62.631 66, 61.977 66.978, 61.665 68.174 M 40.173 68.659 C 40.594 70.848, 43.500 71.157, 43.500 69.014 C 43.500 68.196, 42.672 67.368, 41.659 67.173 C 40.323 66.916, 39.916 67.323, 40.173 68.659 M 49.638 70.500 C 49.955 71.325, 50.671 72, 51.229 72 C 51.815 72, 51.718 71.365, 51 70.500 C 50.315 69.675, 49.599 69, 49.409 69 C 49.219 69, 49.322 69.675, 49.638 70.500 M 41.163 79.543 C 40.482 81.036, 40.185 82.518, 40.502 82.836 C 40.820 83.153, 41.353 82.364, 41.689 81.083 L 42.298 78.754 43.613 81.127 C 44.478 82.686, 44.941 82.966, 44.965 81.941 C 44.984 81.084, 44.415 79.582, 43.700 78.604 C 42.492 76.953, 42.312 77.019, 41.163 79.543 M 46.352 79.443 C 46.434 80.849, 46.890 81.999, 47.367 81.999 C 47.843 82, 47.998 81.100, 47.710 80 C 47.363 78.672, 47.680 78, 48.653 78 C 49.459 78, 49.842 78.446, 49.505 78.992 C 49.168 79.538, 49.342 80.775, 49.892 81.742 C 50.701 83.165, 50.834 82.928, 50.590 80.500 C 50.375 78.373, 49.693 77.411, 48.246 77.194 C 46.614 76.949, 46.234 77.401, 46.352 79.443 M 52.649 77.765 C 53.281 78.169, 54.007 79.625, 54.263 81 L 54.728 83.500 54.864 80.833 C 54.939 79.367, 55.563 77.940, 56.250 77.662 C 56.938 77.385, 56.150 77.129, 54.500 77.094 C 52.850 77.059, 52.017 77.361, 52.649 77.765 M 15.762 80.707 C 17.006 80.946, 18.806 80.937, 19.762 80.687 C 20.718 80.437, 19.700 80.241, 17.500 80.252 C 15.300 80.263, 14.518 80.468, 15.762 80.707" stroke="none" fill="black" fill-rule="evenodd"/>
	<path fill-opacity="0.390" d="M 0 50.009 L 0 100.018 50.250 99.759 L 100.500 99.500 100.759 49.750 L 101.019 -0 50.509 -0 L 0 0 0 50.009 M 0.464 50.500 C 0.464 78, 0.592 89.106, 0.749 75.180 C 0.906 61.255, 0.906 38.755, 0.749 25.180 C 0.592 11.606, 0.464 23, 0.464 50.500 M 40.750 28.563 L 34 32.028 34 39.522 L 34 47.016 41.374 50.665 L 48.747 54.313 55.414 50.585 L 62.082 46.857 61.791 39.274 L 61.500 31.692 55.500 28.358 C 52.200 26.524, 49.050 25.041, 48.500 25.061 C 47.950 25.082, 44.462 26.657, 40.750 28.563 M 42.250 31.662 C 41.408 32.002, 41 34.582, 41 39.564 C 41 48.034, 41.415 48.392, 50.566 47.812 L 55.500 47.500 55.799 41.797 L 56.097 36.094 49.539 35.797 C 41.071 35.414, 41.037 33.588, 49.491 33.204 C 53.071 33.042, 56 32.479, 56 31.954 C 56 30.984, 44.534 30.741, 42.250 31.662 M 45.728 34.722 C 47.503 34.943, 50.653 34.946, 52.728 34.730 C 54.802 34.513, 53.350 34.333, 49.500 34.328 C 45.650 34.324, 43.952 34.501, 45.728 34.722 M 42.193 41.250 L 42.500 45.500 48.250 45.800 L 54 46.100 54 41.550 L 54 37 47.943 37 L 41.885 37 42.193 41.250 M 33 60.566 C 33 63.867, 33.205 64.109, 35.750 63.816 C 38.010 63.556, 38.451 63.063, 38.225 61.044 C 37.944 58.532, 36.475 57.043, 34.250 57.015 C 33.481 57.006, 33 58.372, 33 60.566 M 40.759 58.714 C 38.629 61.068, 40.194 64, 43.581 64 C 46.416 64, 47.806 61.503, 46.302 59.114 C 44.848 56.805, 42.632 56.644, 40.759 58.714 M 49.569 58.326 C 48.281 59.267, 47.960 60.300, 48.463 61.883 C 49.031 63.672, 49.797 64.053, 52.327 63.807 C 56.051 63.445, 57.223 60.367, 54.418 58.316 C 52.181 56.681, 51.818 56.682, 49.569 58.326 M 57 60.378 C 57 62.370, 57.450 64, 58 64 C 58.550 64, 59 63.460, 59 62.800 C 59 61.867, 59.267 61.867, 60.200 62.800 C 61.980 64.580, 63.457 64.255, 61.933 62.419 C 60.899 61.174, 60.875 60.430, 61.819 58.919 C 62.478 57.863, 62.590 57, 62.067 57 C 61.545 57, 60.826 57.472, 60.470 58.049 C 60.027 58.765, 59.376 58.727, 58.411 57.926 C 57.241 56.955, 57 57.373, 57 60.378 M 41.500 60 C 40.663 61.354, 41.792 63, 43.559 63 C 44.352 63, 45 62.100, 45 61 C 45 58.930, 42.587 58.240, 41.500 60 M 50.190 60.750 C 50.376 61.712, 51.190 62.500, 52 62.500 C 52.810 62.500, 53.624 61.712, 53.810 60.750 C 54.046 59.522, 53.506 59, 52 59 C 50.494 59, 49.954 59.522, 50.190 60.750 M 35 62 C 35 62.550, 35.450 63, 36 63 C 36.550 63, 37 62.550, 37 62 C 37 61.450, 36.550 61, 36 61 C 35.450 61, 35 61.450, 35 62 M 33.649 66.765 C 34.281 67.169, 35.007 68.625, 35.263 70 L 35.728 72.500 35.864 69.833 C 35.939 68.367, 36.563 66.940, 37.250 66.662 C 37.938 66.385, 37.150 66.129, 35.500 66.094 C 33.850 66.059, 33.017 66.361, 33.649 66.765 M 39.040 67.452 C 37.993 68.713, 37.993 69.287, 39.040 70.548 C 41.045 72.964, 44.500 71.984, 44.500 69 C 44.500 66.016, 41.045 65.036, 39.040 67.452 M 46 69.125 C 46 70.706, 46.450 72, 47 72 C 47.550 72, 48 71.460, 48 70.800 C 48 69.867, 48.267 69.867, 49.200 70.800 C 50.928 72.528, 52.479 72.282, 51.011 70.513 C 50.332 69.695, 50.016 68.401, 50.309 67.638 C 50.673 66.690, 50.074 66.250, 48.421 66.250 C 46.421 66.250, 46 66.750, 46 69.125 M 53 69 C 53 71.453, 53.410 71.994, 55.250 71.970 C 57.352 71.941, 57.377 71.868, 55.630 70.853 C 54.120 69.976, 54.024 69.599, 55.130 68.898 C 56.259 68.183, 56.236 68.016, 55 67.945 C 53.990 67.887, 54.153 67.579, 55.500 67 C 57.408 66.180, 57.397 66.137, 55.250 66.070 C 53.401 66.013, 53 66.535, 53 69 M 58.070 69.250 C 58.123 71.670, 58.326 72.029, 58.867 70.653 C 59.527 68.976, 59.716 68.953, 60.920 70.403 C 62.925 72.820, 64 72.330, 64 69 C 64 67.350, 63.550 66, 63 66 C 62.450 66, 61.986 66.787, 61.970 67.750 C 61.941 69.417, 61.891 69.417, 60.920 67.750 C 59.318 64.999, 57.993 65.696, 58.070 69.250 M 40.446 68.087 C 40.077 68.685, 40.166 69.566, 40.645 70.045 C 41.828 71.228, 44.431 69.507, 43.569 68.112 C 42.696 66.698, 41.311 66.687, 40.446 68.087 M 41.075 79.315 C 40.484 80.863, 40 82.213, 40 82.315 C 40 82.417, 41.125 82.500, 42.500 82.500 C 45.329 82.500, 45.654 81.273, 43.575 78.441 C 42.200 76.569, 42.111 76.600, 41.075 79.315 M 46 80 C 46 83.022, 47.400 84.069, 48.341 81.750 C 48.722 80.809, 49.110 80.871, 49.909 82 C 50.747 83.186, 50.973 82.819, 50.985 80.250 C 50.998 77.446, 50.657 77, 48.500 77 C 46.389 77, 46 77.467, 46 80 M 52.649 77.765 C 53.281 78.169, 54.007 79.625, 54.263 81 L 54.728 83.500 54.864 80.833 C 54.939 79.367, 55.563 77.940, 56.250 77.662 C 56.938 77.385, 56.150 77.129, 54.500 77.094 C 52.850 77.059, 52.017 77.361, 52.649 77.765 M 13.280 80.736 C 15.909 80.943, 19.959 80.940, 22.280 80.731 C 24.601 80.521, 22.450 80.352, 17.500 80.355 C 12.550 80.358, 10.651 80.530, 13.280 80.736 M 75.728 80.722 C 77.503 80.943, 80.653 80.946, 82.728 80.730 C 84.802 80.513, 83.350 80.333, 79.500 80.328 C 75.650 80.324, 73.952 80.501, 75.728 80.722" stroke="none" fill="black" fill-rule="evenodd"/>
	<path fill-opacity="0.977" d="M 0 50.009 L 0 100.018 50.250 99.759 L 100.500 99.500 100.759 49.750 L 101.019 -0 50.509 -0 L 0 0 0 50.009 M 0.464 50.500 C 0.464 78, 0.592 89.106, 0.749 75.180 C 0.906 61.255, 0.906 38.755, 0.749 25.180 C 0.592 11.606, 0.464 23, 0.464 50.500 M 40.250 28.674 L 34 32.110 34 39.563 L 34 47.016 41.293 50.625 L 48.586 54.234 55.793 50.604 L 63 46.975 63 39.500 L 63 32.025 56.025 28.513 C 52.189 26.581, 48.476 25.054, 47.775 25.119 C 47.074 25.185, 43.688 26.784, 40.250 28.674 M 42.638 32.276 C 41.226 33.308, 40.951 34.789, 41.196 40.026 L 41.500 46.500 48.750 46.794 L 56 47.088 56 41.544 L 56 36 49.559 36 C 43.632 36, 40.797 34.872, 42.482 33.183 C 42.857 32.808, 45.940 32.231, 49.332 31.902 L 55.500 31.305 49.941 31.152 C 46.774 31.066, 43.632 31.549, 42.638 32.276 M 46.768 34.725 C 48.565 34.947, 51.265 34.943, 52.768 34.715 C 54.271 34.486, 52.800 34.304, 49.500 34.310 C 46.200 34.315, 44.971 34.502, 46.768 34.725 M 42 41.452 L 42 46 48.557 46 L 55.115 46 54.807 41.750 L 54.500 37.500 48.250 37.202 L 42 36.905 42 41.452 M 33 61.108 C 33 65.089, 33.086 65.196, 35.750 64.534 C 37.263 64.159, 38.649 63.439, 38.830 62.935 C 39.012 62.431, 39.854 62.711, 40.702 63.559 C 43.731 66.588, 48.658 62.854, 46.388 59.250 C 44.778 56.694, 42.453 56.597, 40.221 58.994 L 38.259 61.099 37.723 59.049 C 37.398 57.807, 36.363 57, 35.094 57 C 33.309 57, 33 57.605, 33 61.108 M 49.200 58.200 C 46.013 61.387, 49.963 66.161, 54 64 C 57.406 62.177, 55.927 57, 52 57 C 51.120 57, 49.860 57.540, 49.200 58.200 M 57.032 61.250 C 57.059 64.946, 57.233 65.277, 58.361 63.793 C 59.572 62.198, 59.767 62.196, 61.329 63.757 C 63.119 65.548, 63.572 64.453, 62.042 62.034 C 61.452 61.100, 61.509 60.092, 62.200 59.259 C 63.707 57.444, 62.386 56.435, 60.524 57.980 C 59.482 58.845, 59 58.890, 59 58.122 C 59 57.505, 58.550 57, 58 57 C 57.450 57, 57.014 58.913, 57.032 61.250 M 41.446 60.087 C 41.077 60.685, 41.236 61.636, 41.800 62.200 C 43.062 63.462, 45 62.396, 45 60.441 C 45 58.757, 42.426 58.501, 41.446 60.087 M 50.446 60.087 C 49.416 61.755, 51.733 63.667, 53.113 62.287 C 54.267 61.133, 53.545 59, 52 59 C 51.515 59, 50.816 59.489, 50.446 60.087 M 35 62 C 35 62.550, 35.477 63, 36.059 63 C 36.641 63, 36.840 62.550, 36.500 62 C 36.160 61.450, 35.684 61, 35.441 61 C 35.198 61, 35 61.450, 35 62 M 33.787 69 C 34.312 72.581, 36 73.025, 36 69.583 C 36 68.254, 36.563 66.940, 37.250 66.662 C 37.938 66.385, 37.340 66.122, 35.923 66.079 C 33.616 66.008, 33.393 66.314, 33.787 69 M 38.610 67.573 C 37.742 69.835, 39.839 72.166, 42.412 71.798 C 43.893 71.587, 44.500 70.773, 44.500 69 C 44.500 67.046, 43.927 66.434, 41.878 66.196 C 40.145 65.995, 39.037 66.462, 38.610 67.573 M 46 69.125 C 46 70.706, 46.450 72, 47 72 C 47.550 72, 48 71.460, 48 70.800 C 48 69.867, 48.267 69.867, 49.200 70.800 C 50.928 72.528, 52.479 72.282, 51.011 70.513 C 50.332 69.695, 50.016 68.401, 50.309 67.638 C 50.673 66.690, 50.074 66.250, 48.421 66.250 C 46.421 66.250, 46 66.750, 46 69.125 M 53 69 C 53 71.333, 53.444 72, 55 72 C 57.376 72, 57.569 70.712, 55.502 68.644 C 54.170 67.313, 54.198 67.095, 55.752 66.689 C 57.065 66.346, 56.941 66.203, 55.250 66.116 C 53.391 66.020, 53 66.521, 53 69 M 58 69 C 58 70.650, 58.450 72, 59 72 C 59.550 72, 60 71.460, 60 70.800 C 60 69.867, 60.267 69.867, 61.200 70.800 C 63.145 72.745, 64 72.196, 64 69 C 64 67.350, 63.550 66, 63 66 C 62.450 66, 62 66.540, 62 67.200 C 62 68.133, 61.733 68.133, 60.800 67.200 C 58.855 65.255, 58 65.804, 58 69 M 40.459 68.067 C 39.539 69.556, 40.606 70.365, 42.520 69.631 C 43.404 69.292, 43.847 68.561, 43.504 68.007 C 42.694 66.696, 41.289 66.723, 40.459 68.067 M 41.161 78.547 C 39.469 82.260, 39.617 82.478, 44.005 82.727 C 46.380 82.862, 48 82.508, 48 81.855 C 48 81.120, 48.498 81.168, 49.500 82 C 50.777 83.060, 51 82.796, 51 80.229 C 51 75.091, 46.074 74.683, 45.918 79.809 C 45.837 82.493, 45.833 82.491, 44.416 79.250 C 43.634 77.463, 42.843 76, 42.658 76 C 42.473 76, 41.799 77.146, 41.161 78.547 M 52 77 C 52 77.550, 52.450 78, 53 78 C 53.550 78, 54 79.125, 54 80.500 C 54 81.875, 54.450 83, 55 83 C 55.550 83, 56 81.875, 56 80.500 C 56 79.125, 56.477 78, 57.059 78 C 57.641 78, 57.840 77.550, 57.500 77 C 57.160 76.450, 55.784 76, 54.441 76 C 53.098 76, 52 76.450, 52 77 M 10.296 80.744 C 14.583 80.932, 21.333 80.931, 25.296 80.742 C 29.258 80.552, 25.750 80.399, 17.500 80.400 C 9.250 80.401, 6.008 80.556, 10.296 80.744 M 73.750 80.740 C 77.188 80.936, 82.813 80.936, 86.250 80.740 C 89.688 80.545, 86.875 80.385, 80 80.385 C 73.125 80.385, 70.313 80.545, 73.750 80.740" stroke="none" fill="black" fill-rule="evenodd"/>
</svg>