<?xml version="1.0"?><svg xmlns="http://www.w3.org/2000/svg" width="36" height="36" shape-rendering="geometricPrecision" text-rendering="geometricPrecision" image-rendering="optimizeQuality" fill-rule="evenodd" clip-rule="evenodd" viewBox="0 0 36 36"><path fill="#fefefe" d="m-0.1-0.1h36v36h-36v-36z"></path><path fill="#07080c" d="m16.6 4.7c6.5-0.2 11.1 2.6 13.8 8.4 1.6 5 0.8 9.6-2.5 13.7-4 4-8.7 5.3-14.1 3.8-5.3-2-8.3-5.7-9.1-11.3-0.3-6.2 2.3-10.8 7.8-13.6 1.4-0.5 2.7-0.9 4.1-1z"></path><path fill="#fcfcfc" d="m16.7 8.6c4.7-0.2 8 1.8 10 6 1.4 4.7 0.1 8.4-3.8 11.3-4.4 2.3-8.4 1.7-12-1.8-2.5-3.1-3-6.6-1.3-10.3 1.5-2.9 3.9-4.6 7.1-5.2z"></path><path fill="#07090c" d="m17 14.9c2.9-0.2 4.2 1 3.9 3.8-0.7 2-2.1 2.7-4.2 2.1-1.6-0.9-2.2-2.3-1.6-4.1 0.4-0.8 1.1-1.4 1.9-1.8z"></path></svg>