<svg xmlns="http://www.w3.org/2000/svg" version="1.1" width="320px" height="320px" style="shape-rendering:geometricPrecision; text-rendering:geometricPrecision; image-rendering:optimizeQuality; fill-rule:evenodd; clip-rule:evenodd" xmlns:xlink="http://www.w3.org/1999/xlink">
<g><path style="opacity:1" fill="#fefefe" d="M -0.5,-0.5 C 106.167,-0.5 212.833,-0.5 319.5,-0.5C 319.5,106.167 319.5,212.833 319.5,319.5C 212.833,319.5 106.167,319.5 -0.5,319.5C -0.5,212.833 -0.5,106.167 -0.5,-0.5 Z"/></g>
<g><path style="opacity:1" fill="#07080c" d="M 147.5,41.5 C 205.068,39.6339 245.901,64.6339 270,116.5C 284.781,161.252 277.448,201.919 248,238.5C 212.741,273.914 170.908,285.081 122.5,272C 75.758,254.578 48.9247,221.078 42,171.5C 39.2485,116.147 62.4151,75.9802 111.5,51C 123.22,46.2384 135.22,43.0717 147.5,41.5 Z"/></g>
<g><path style="opacity:1" fill="#fcfcfc" d="M 148.5,76.5 C 190.122,74.3783 219.622,92.0449 237,129.5C 249.781,171.159 238.614,204.659 203.5,230C 164.118,250.853 128.618,245.686 97,214.5C 74.3219,186.308 70.3219,155.641 85,122.5C 99.0162,97.2466 120.183,81.9133 148.5,76.5 Z"/></g>
<g><path style="opacity:1" fill="#07090c" d="M 151.5,132.5 C 176.519,130.353 188.019,141.686 186,166.5C 179.452,184.19 166.952,190.357 148.5,185C 134.109,176.857 129.276,164.69 134,148.5C 138.126,141.203 143.96,135.87 151.5,132.5 Z"/></g>
</svg>
