<svg xmlns="http://www.w3.org/2000/svg" width="256" height="256" viewBox="0 0 256 256" version="1.1">
	<path fill-opacity="0.231" d="M 109.500 4.583 C 97.664 6.411, 85.302 10.001, 75.557 14.442 C 66.967 18.357, 52.853 27.364, 49.226 31.246 C 46.966 33.665, 44.731 39.398, 45.679 40.345 C 45.952 40.618, 49.249 38.466, 53.006 35.564 C 71.890 20.973, 93.586 11.912, 116.281 9.138 C 125.820 7.972, 128.223 7.089, 128.586 4.612 C 128.885 2.577, 122.558 2.567, 109.500 4.583 M 171.393 12.582 C 171.727 13.452, 172 14.572, 172 15.071 C 172 15.570, 175.488 17.731, 179.750 19.875 C 194.989 27.538, 206.551 38.189, 220.049 57 C 229.952 70.801, 238.079 87.155, 241.722 100.612 C 244.183 109.704, 244.398 112.029, 244.398 129.500 C 244.398 146.923, 244.178 149.312, 241.750 158.277 C 230.699 199.076, 199.595 230.266, 158.621 241.640 C 147.280 244.787, 123.488 245.990, 111.233 244.035 C 93.400 241.191, 74.186 233.049, 59.795 222.239 C 47.461 212.974, 30.970 196.328, 25.618 187.742 C 19.580 178.054, 14.512 165.614, 11.790 153.796 C 8.998 141.680, 8.761 115.505, 11.341 104.162 C 14.884 88.581, 21.207 73.045, 28.412 62.218 C 32.932 55.426, 33.283 53.500, 30 53.500 C 27.978 53.500, 26.407 55.125, 21.782 62 C 12.220 76.216, 5.298 94.820, 2.912 112.719 C 1.352 124.422, 2.321 145.999, 4.912 157.288 C 8.885 174.593, 18.486 194.566, 26.327 201.835 C 43.298 217.568, 48.017 221.715, 54.336 226.446 C 67.622 236.393, 81.812 243.028, 99.773 247.690 C 109.450 250.201, 112.164 250.475, 127.500 250.487 C 140.200 250.497, 146.650 250.040, 153 248.680 C 177.933 243.342, 197.616 232.638, 215.625 214.627 C 230.078 200.172, 238.556 186.530, 245.123 167.161 C 253.336 142.939, 253.114 112.197, 244.539 86.461 C 240.420 74.100, 232.078 56.045, 227.812 50.258 C 216.367 34.734, 194.923 18.824, 176.849 12.447 C 171.622 10.602, 170.643 10.627, 171.393 12.582 M 116.264 13.718 C 117.784 13.947, 120.034 13.941, 121.264 13.704 C 122.494 13.467, 121.250 13.279, 118.500 13.286 C 115.750 13.294, 114.744 13.488, 116.264 13.718 M 103 15.178 C 88.141 18.361, 76.314 23.112, 64.952 30.463 C 57.391 35.353, 47.580 44.046, 45.747 47.476 C 45.152 48.589, 47.297 47.096, 50.514 44.159 C 65.390 30.570, 85.607 20.107, 105 15.959 C 109.675 14.959, 112.150 14.157, 110.500 14.177 C 108.850 14.198, 105.475 14.648, 103 15.178 M 35.822 58.250 C 33.094 60.436, 25.884 71.971, 21.805 80.675 C 15.850 93.383, 12.946 106.050, 12.562 121 C 12.386 127.875, 12.406 131.475, 12.608 129 C 14.901 100.830, 20.991 81.658, 33.334 63.750 C 38.167 56.739, 38.427 56.163, 35.822 58.250 M 40.250 72.747 C 29.837 73.042, 29 73.212, 29 75.033 C 29 76.789, 29.703 77, 35.564 77 C 42.110 77, 42.127 77.007, 41.913 79.750 C 41.795 81.263, 41.766 90.964, 41.849 101.309 C 41.967 116.032, 42.272 119.965, 43.250 119.412 C 44.250 118.848, 44.250 118.976, 43.250 120.053 C 42.472 120.892, 42 124.345, 42 129.200 L 42 137 35.500 137 C 30.389 137, 29 137.321, 29 138.500 C 29 139.717, 30.623 140, 37.607 140 C 44.861 140, 46.119 140.236, 45.607 141.500 C 45.273 142.325, 44.729 143.669, 44.398 144.486 C 43.517 146.664, 47.927 148, 56 148 C 64.483 148, 68.491 146.689, 67.506 144.236 C 67.122 143.281, 66.578 141.938, 66.297 141.250 C 65.984 140.484, 66.602 140, 67.893 140 C 69.099 140, 70 139.359, 70 138.500 C 70 137.567, 69.056 137, 67.500 137 L 65 137 65 112.125 C 65 82.976, 64.762 81.114, 60.846 79.636 C 58.515 78.756, 58 77.968, 58 75.281 C 58 72.202, 57.800 72.013, 54.750 72.214 C 52.962 72.331, 46.438 72.571, 40.250 72.747 M 92.500 73.877 C 85.203 78.425, 79.771 87.513, 78.065 98.032 C 76.296 108.934, 76.484 109.976, 80.250 110.150 C 83.275 110.289, 83.310 110.329, 80.750 110.716 C 78.407 111.071, 78.004 111.604, 78.024 114.316 C 78.083 122.309, 90.456 142.091, 97.482 145.424 C 102.397 147.757, 112.444 147.507, 116.583 144.948 C 121.357 141.998, 125.692 135.599, 128.207 127.789 C 129.410 124.055, 130.665 121, 130.996 121 C 131.327 121, 132.165 122.568, 132.858 124.485 C 134.845 129.978, 145.645 143.604, 149.440 145.405 C 154.397 147.757, 164.426 147.518, 168.583 144.948 C 172.998 142.220, 177.567 135.848, 179.596 129.590 C 181.829 122.702, 182.542 122.204, 184.539 126.135 C 187.777 132.509, 197.141 143.839, 200.482 145.424 C 205.360 147.739, 215.445 147.506, 219.525 144.984 C 226.224 140.844, 230.870 132.151, 233.039 119.700 C 234.433 111.695, 233.033 100.954, 229.624 93.500 C 227.132 88.051, 216.123 75.635, 211.800 73.398 C 208.311 71.592, 199.661 71.601, 196.200 73.415 C 190.151 76.584, 183.233 86.670, 181.508 94.835 L 180.804 98.170 178.559 93.325 C 176.084 87.982, 165.043 75.594, 160.800 73.398 C 157.311 71.592, 148.661 71.601, 145.200 73.415 C 138.396 76.980, 131.732 87.462, 130.127 97.126 C 129.636 100.082, 129.177 101.600, 129.107 100.500 C 128.705 94.152, 115.913 77.079, 108.800 73.398 C 104.864 71.360, 96.126 71.617, 92.500 73.877 M 97.655 76.829 C 96.745 77.835, 96 79.425, 96 80.364 C 96 81.741, 96.373 81.871, 97.934 81.035 C 98.998 80.466, 101.023 80, 102.434 80 C 105.161 80, 105.806 78.206, 103.800 76.200 C 102.067 74.467, 99.560 74.724, 97.655 76.829 M 149.655 76.829 C 148.745 77.835, 148 79.425, 148 80.364 C 148 81.741, 148.373 81.871, 149.934 81.035 C 150.998 80.466, 153.023 80, 154.434 80 C 157.161 80, 157.806 78.206, 155.800 76.200 C 154.067 74.467, 151.560 74.724, 149.655 76.829 M 200.655 76.829 C 199.745 77.835, 199 79.425, 199 80.364 C 199 81.741, 199.373 81.871, 200.934 81.035 C 201.998 80.466, 204.023 80, 205.434 80 C 208.161 80, 208.806 78.206, 206.800 76.200 C 205.067 74.467, 202.560 74.724, 200.655 76.829 M 213.079 76.583 C 213.127 77.748, 213.364 77.985, 213.683 77.188 C 213.972 76.466, 213.936 75.603, 213.604 75.271 C 213.272 74.939, 213.036 75.529, 213.079 76.583 M 212.158 85 C 212.158 86.375, 212.385 86.938, 212.662 86.250 C 212.940 85.563, 212.940 84.438, 212.662 83.750 C 212.385 83.063, 212.158 83.625, 212.158 85 M 104.125 85.349 C 101.994 87.917, 101 97.350, 101.014 114.886 C 101.027 132.561, 101.454 137, 103.141 137 C 105.540 137, 106.369 130.329, 106.778 107.750 C 107.199 84.483, 106.905 81.999, 104.125 85.349 M 156.125 85.349 C 153.994 87.917, 153 97.350, 153.014 114.886 C 153.027 132.561, 153.454 137, 155.141 137 C 157.540 137, 158.369 130.329, 158.778 107.750 C 159.199 84.483, 158.905 81.999, 156.125 85.349 M 207.125 85.349 C 204.994 87.917, 204 97.350, 204.014 114.886 C 204.027 132.561, 204.454 137, 206.141 137 C 206.641 137, 207.528 135.762, 208.112 134.250 C 210.260 128.692, 211.127 84, 209.087 84 C 208.624 84, 207.741 84.607, 207.125 85.349 M 136.813 98.683 C 137.534 98.972, 138.397 98.936, 138.729 98.604 C 139.061 98.272, 138.471 98.036, 137.417 98.079 C 136.252 98.127, 136.015 98.364, 136.813 98.683 M 86.269 111.693 C 87.242 111.947, 88.592 111.930, 89.269 111.656 C 89.946 111.382, 89.150 111.175, 87.500 111.195 C 85.850 111.215, 85.296 111.439, 86.269 111.693 M 255 126.622 C 255 136.533, 252.237 153.229, 248.820 163.967 C 236.906 201.400, 206.349 233.377, 170 246.447 C 148.026 254.348, 123.003 256.076, 98 251.420 C 95.727 250.996, 95.691 251.039, 97.604 251.891 C 103.403 254.473, 120.491 256.261, 133.895 255.689 C 154.652 254.803, 169.100 251.051, 187.081 241.877 C 221.182 224.477, 245.205 192.945, 253.649 154.500 C 255.220 147.349, 256.798 120, 255.640 120 C 255.288 120, 255 122.980, 255 126.622 M 106.887 139.882 C 103.159 141.552, 102.668 144, 106.060 144 C 107.756 144, 111.838 139.433, 110.885 138.601 C 110.673 138.416, 108.874 138.993, 106.887 139.882 M 158.887 139.882 C 155.159 141.552, 154.668 144, 158.060 144 C 159.756 144, 163.838 139.433, 162.885 138.601 C 162.673 138.416, 160.874 138.993, 158.887 139.882 M 209.887 139.882 C 206.159 141.552, 205.668 144, 209.060 144 C 210.756 144, 214.838 139.433, 213.885 138.601 C 213.673 138.416, 211.874 138.993, 209.887 139.882 M 37.630 160.250 C 36.450 164.653, 36.916 172, 38.375 172 C 39.131 172, 40.026 170.621, 40.363 168.935 C 41.051 165.497, 46.009 160, 48.423 160 C 49.804 160, 50 162.366, 50 179 L 50 198 46.500 198 C 44.575 198, 43 198.450, 43 199 C 43 199.611, 47.667 200, 55 200 C 62.333 200, 67 199.611, 67 199 C 67 198.450, 65.650 198, 64 198 L 61 198 61 178.933 L 61 159.865 63.250 160.555 C 66.696 161.611, 67.751 162.782, 69.583 167.579 C 70.512 170.010, 71.661 172, 72.136 172 C 72.611 172, 73 168.850, 73 165 L 73 158 55.617 158 C 38.435 158, 38.226 158.026, 37.630 160.250 M 80.500 174.954 C 77.440 176.220, 74.059 180.308, 72.990 184.035 C 71.669 188.642, 73.251 193.908, 77.050 197.548 C 79.855 200.236, 80.750 200.500, 87.046 200.500 C 93.484 200.500, 94.181 200.280, 97.143 197.319 C 99.756 194.705, 100.392 193.188, 100.704 188.819 C 101.155 182.510, 99.782 179.444, 95.088 176.280 C 91.568 173.908, 84.567 173.272, 80.500 174.954 M 106.250 174.732 C 102.034 175.112, 100.161 177, 104 177 C 105.873 177, 106 177.667, 106 187.500 C 106 197.333, 105.873 198, 104 198 C 102.900 198, 102 198.450, 102 199 C 102 199.588, 105.500 200, 110.500 200 C 115.500 200, 119 199.588, 119 199 C 119 198.450, 118.100 198, 117 198 C 115.201 198, 115.012 197.373, 115.118 191.750 C 115.293 182.533, 116.127 179.783, 119.279 178.036 C 123.230 175.846, 123.966 177.521, 123.985 188.750 C 123.999 197.338, 123.857 198, 122 198 C 120.900 198, 120 198.450, 120 199 C 120 199.588, 123.500 200, 128.500 200 C 133.500 200, 137 199.588, 137 199 C 137 198.450, 136.054 198, 134.897 198 C 132.896 198, 132.812 197.585, 133.147 189.412 C 133.461 181.776, 133.767 180.607, 135.901 178.879 C 137.222 177.809, 138.797 177.098, 139.401 177.298 C 140.078 177.522, 140.610 181.572, 140.785 187.831 C 141.026 196.430, 140.833 198, 139.535 198 C 138.691 198, 138 198.450, 138 199 C 138 199.588, 141.500 200, 146.500 200 C 151.500 200, 155 199.588, 155 199 C 155 198.450, 154.100 198, 153 198 C 151.133 198, 151 197.333, 151 188 C 151 179.333, 150.733 177.733, 149 176 C 146.259 173.259, 139.185 173.280, 135.675 176.041 L 133.081 178.081 131.041 176.041 C 127.992 172.992, 120.694 173.215, 117.455 176.455 L 115 178.909 115 176.455 C 115 173.835, 115.379 173.910, 106.250 174.732 M 161.819 175.482 C 156.372 178.549, 157.490 184.379, 163.415 183.801 C 166.204 183.529, 166.505 183.165, 166.552 180.004 C 166.590 177.400, 167.083 176.415, 168.485 176.145 C 171.118 175.638, 172.688 178.235, 172.212 182.312 C 171.824 185.633, 171.613 185.794, 166.776 186.435 C 160.220 187.305, 155.451 191.620, 156.453 195.775 C 156.814 197.274, 157.846 199.063, 158.746 199.750 C 161.049 201.509, 168.120 201.305, 170.839 199.400 C 172.932 197.934, 173.270 197.934, 174.890 199.400 C 176.906 201.225, 181.216 201.490, 184.066 199.965 C 186.498 198.663, 186.639 195.805, 184.250 196.206 C 182.711 196.465, 182.440 195.331, 182 186.795 C 181.694 180.852, 181.003 176.596, 180.218 175.813 C 178.266 173.868, 165.105 173.631, 161.819 175.482 M 190.750 174.728 C 187.196 175.100, 185.314 177, 188.500 177 C 189.738 177, 190 178.833, 190 187.500 C 190 196.167, 189.738 198, 188.500 198 C 187.675 198, 187 198.437, 187 198.971 C 187 199.560, 193.678 199.943, 204 199.946 C 214.382 199.949, 221 199.571, 221 198.975 C 221 198.439, 220.100 198, 219 198 C 217.133 198, 217 197.333, 217 188 C 217 179.333, 216.733 177.733, 215 176 C 212.299 173.299, 206.114 173.336, 202.635 176.073 L 200 178.145 200 176.073 C 200 173.890, 199.482 173.815, 190.750 174.728 M 84.200 177.200 C 82.302 179.098, 82.602 195.459, 84.571 197.429 C 86.387 199.244, 86.948 199.319, 89 198.020 C 90.163 197.283, 90.500 194.917, 90.500 187.498 C 90.500 180.077, 90.163 177.713, 89 176.978 C 86.980 175.702, 85.636 175.764, 84.200 177.200 M 202.635 179.073 C 200.161 181.019, 200 181.659, 200 189.573 L 200 198 204 198 L 208 198 208 189.082 C 208 180.212, 207.476 177, 206.028 177 C 205.611 177, 204.084 177.933, 202.635 179.073 M 168.250 189.031 C 165.595 190.098, 165.051 195.422, 167.500 196.362 C 170.425 197.484, 172 195.920, 172 191.893 C 172 187.768, 171.791 187.608, 168.250 189.031" stroke="none" fill="black" fill-rule="evenodd"/>
	<path fill-opacity="0.281" d="M 82.500 11.928 C 70.486 16.211, 56.460 24.813, 55.791 28.310 C 54.972 32.596, 56.001 33.101, 59.742 30.248 C 61.711 28.745, 69.213 24.559, 76.412 20.945 C 86.571 15.845, 89.572 13.885, 89.820 12.187 C 90.202 9.568, 89.219 9.534, 82.500 11.928 M 185 19.358 C 185 21.093, 186.389 22.641, 190.250 25.212 C 204.426 34.649, 214.449 45.422, 224.001 61.488 C 240.110 88.582, 245 104.384, 245 129.347 C 245 154.047, 239.471 172.670, 225.934 193.564 C 218.936 204.364, 201.886 220.939, 190.580 227.932 C 149.709 253.212, 98.102 250.986, 59.472 222.276 C 55.088 219.018, 50.858 215.567, 50.072 214.609 C 49.287 213.651, 45.608 210.903, 41.896 208.501 C 36.854 205.240, 33.841 202.285, 29.982 196.818 C 15.971 176.967, 9 154.510, 9 129.224 C 9 108.691, 12.245 93.926, 20.764 75.707 C 25.101 66.429, 25.251 65.824, 23.610 64.207 C 21.976 62.597, 21.789 62.614, 20.319 64.500 C 19.462 65.600, 16.597 71, 13.953 76.500 C -0.046 105.618, -1.678 140.940, 9.541 172 C 15.124 187.457, 17.240 190.491, 33.228 205.950 C 50.599 222.747, 57.414 228.401, 67.115 234.067 C 114.551 261.771, 175.258 254.126, 214.549 215.500 C 239.484 190.987, 252.174 158.626, 250.626 123.500 C 249.669 101.784, 245.048 86.085, 232.229 61 C 226.158 49.119, 223.616 45.265, 218.160 39.665 C 211.062 32.381, 203.329 26.444, 193.332 20.604 C 186.078 16.366, 185 16.205, 185 19.358 M 80.811 22.382 C 72.266 26.112, 66.603 29.289, 60.250 33.917 C 53.158 39.083, 55.500 39.135, 63.250 33.984 C 70.580 29.112, 86.011 21, 87.948 21 C 88.527 21, 89 20.550, 89 20 C 89 18.710, 89.657 18.519, 80.811 22.382 M 22.723 79.750 C 17.636 90.583, 14.376 101.791, 13.561 111.248 C 13.025 117.468, 13.030 117.460, 14.528 109.597 C 16.471 99.398, 21 85.936, 25.481 77.039 C 27.430 73.167, 28.637 70, 28.163 70 C 27.690 70, 25.241 74.388, 22.723 79.750 M 92.500 73.877 C 85.203 78.425, 79.771 87.513, 78.065 98.032 C 77.487 101.589, 77.012 104.950, 77.008 105.500 C 76.998 106.869, 92.283 106.932, 93.282 105.568 C 93.712 104.980, 93.937 106.053, 93.782 107.951 C 93.372 112.966, 89.066 115.325, 82.545 114.107 L 77.773 113.216 78.330 116.643 C 78.635 118.528, 80.032 122.574, 81.433 125.634 C 85.808 135.190, 101 148.372, 101 142.611 C 101 141.824, 102.471 140.947, 104.399 140.585 C 106.268 140.234, 108.925 139.060, 110.303 137.976 L 112.809 136.005 112.273 140.003 C 111.800 143.527, 111.976 144, 113.763 144 C 118.923 144, 125.910 132.961, 128.363 120.932 L 129.618 114.782 130.905 119.141 C 133.211 126.950, 137.288 133.119, 143.789 138.634 C 150.099 143.987, 153 145.240, 153 142.611 C 153 141.824, 154.471 140.947, 156.399 140.585 C 158.268 140.234, 160.925 139.060, 162.303 137.976 L 164.809 136.005 164.273 140.003 C 163.827 143.330, 164.026 144, 165.464 144 C 170.268 144, 176.042 136.133, 179.569 124.781 L 181.346 119.061 184.696 125.988 C 187.293 131.355, 189.518 134.162, 194.580 138.457 C 201.081 143.972, 204 145.260, 204 142.611 C 204 141.824, 205.471 140.947, 207.399 140.585 C 209.268 140.234, 211.925 139.060, 213.303 137.976 L 215.809 136.005 215.273 140.003 C 214.833 143.281, 215.036 144, 216.404 144 C 223.803 144, 232 127.444, 232 112.500 C 232 102.683, 229.478 95.100, 223.040 85.559 C 219.012 79.590, 217.541 78.068, 216.903 79.208 C 215.045 82.529, 210 109.694, 209.994 116.408 C 209.986 126.351, 208.379 135.242, 206.317 136.754 C 205.284 137.511, 204.246 137.646, 203.693 137.093 C 202.115 135.515, 201.620 107.282, 202.981 96.473 C 203.671 90.988, 204.296 85.600, 204.368 84.500 C 204.504 82.439, 203.068 82.136, 199.699 83.515 C 198.134 84.156, 197.988 83.877, 198.584 81.376 C 199.879 75.938, 204.266 73.197, 206.787 76.250 C 207.355 76.938, 208.270 79.075, 208.820 81 C 209.763 84.302, 209.825 84.146, 209.910 78.250 L 210 72 204.450 72 C 201.398 72, 197.686 72.637, 196.200 73.415 C 189.336 77.011, 182.635 87.616, 181.219 97.126 L 180.418 102.500 178.793 97.819 C 176.285 90.592, 169.206 80.713, 166.958 81.301 C 164.853 81.851, 162.584 79.655, 161.483 76 C 161.069 74.625, 160.229 73.169, 159.615 72.765 C 157.693 71.499, 148.026 71.935, 145.200 73.415 C 138.814 76.761, 131.849 87.242, 130.526 95.500 C 129.031 104.827, 128.938 104.922, 127.085 99 C 124.883 91.966, 118.077 81.523, 116.635 82.965 C 113.679 85.921, 109 81.442, 109 75.657 C 109 72.695, 107.412 71.999, 100.668 72.004 C 97.362 72.006, 94.419 72.681, 92.500 73.877 M 29 75 C 29 76.795, 29.667 77, 35.500 77 L 42 77 42 86.326 C 42 94.781, 42.216 95.854, 44.314 97.826 C 47.042 100.388, 49.544 100.632, 50.393 98.418 C 50.727 97.548, 51 91.473, 51 84.918 L 51 73 40 73 C 29.667 73, 29 73.121, 29 75 M 56.229 77.221 C 54.187 82.021, 51.538 98.263, 51.519 106.092 C 51.501 113.467, 51.364 113.889, 46.750 120.830 C 42.841 126.711, 42 128.775, 42 132.488 L 42 137 37.082 137 C 31.729 137, 29 137.711, 29 139.107 C 29 139.598, 33.245 140, 38.434 140 L 47.867 140 48.184 142.711 C 48.445 144.949, 49.153 145.556, 52.250 146.195 C 54.313 146.621, 57.688 146.621, 59.750 146.195 C 62.847 145.556, 63.555 144.949, 63.816 142.711 C 64.080 140.451, 64.621 140, 67.066 140 C 69.007 140, 70 139.492, 70 138.500 C 70 137.452, 68.944 137, 66.500 137 L 63 137 63 110.023 L 63 83.046 60.559 81.447 C 59.217 80.567, 57.953 78.644, 57.752 77.174 L 57.386 74.500 56.229 77.221 M 97.829 76.706 C 96.971 77.693, 95.960 79.794, 95.584 81.376 C 94.988 83.877, 95.134 84.156, 96.699 83.515 C 100.068 82.136, 101.504 82.439, 101.368 84.500 C 101.296 85.600, 100.671 90.988, 99.981 96.473 C 98.729 106.417, 99.052 134.658, 100.444 136.909 C 101.593 138.768, 104.776 136.298, 105.504 132.982 C 105.870 131.314, 106.469 126.063, 106.835 121.315 L 107.500 112.682 114 110.262 C 117.575 108.931, 121.287 107.600, 122.250 107.304 C 125.978 106.159, 123.744 105.395, 118.750 106.106 C 115.862 106.518, 112.083 106.887, 110.350 106.927 L 107.201 107 106.829 94.250 C 106.428 80.517, 105.072 75.729, 101.435 75.206 C 100.310 75.044, 98.687 75.719, 97.829 76.706 M 149.829 76.706 C 148.971 77.693, 147.960 79.794, 147.584 81.376 C 146.988 83.877, 147.134 84.156, 148.699 83.515 C 152.068 82.136, 153.504 82.439, 153.368 84.500 C 153.296 85.600, 152.671 90.988, 151.981 96.473 C 150.620 107.282, 151.115 135.515, 152.693 137.093 C 155.717 140.117, 158.981 130.410, 158.994 118.356 L 159 113.212 167.500 109.884 C 172.175 108.054, 176.001 106.319, 176.002 106.028 C 176.004 105.738, 172.226 105.644, 167.607 105.821 L 159.210 106.141 158.829 93.821 C 158.420 80.536, 157.024 75.722, 153.435 75.206 C 152.310 75.044, 150.687 75.719, 149.829 76.706 M 210.343 92.500 C 210.346 96.900, 210.522 98.576, 210.733 96.224 C 210.945 93.872, 210.942 90.272, 210.727 88.224 C 210.512 86.176, 210.339 88.100, 210.343 92.500 M 194.694 90.532 C 193.151 91.889, 190.843 93, 189.566 93 C 187.911 93, 186.873 93.892, 185.958 96.101 C 185.252 97.806, 183.636 100.731, 182.367 102.601 C 179.177 107.302, 181.972 107.214, 185.568 102.500 C 187.237 100.311, 189.088 99, 190.508 99 C 193.853 99, 196.718 96.007, 197.448 91.750 C 197.801 89.688, 197.958 88.014, 197.795 88.032 C 197.633 88.049, 196.237 89.174, 194.694 90.532 M 143.593 92.618 C 141.646 94.330, 139.899 95.023, 138.298 94.717 C 136.311 94.337, 135.559 94.954, 133.838 98.380 C 132.699 100.646, 131.075 103.287, 130.229 104.250 C 128.842 105.828, 128.846 106, 130.272 106 C 131.143 106, 132.710 104.913, 133.754 103.585 C 134.799 102.257, 137.479 100.679, 139.710 100.078 C 144.486 98.792, 145.592 97.629, 146.201 93.250 C 146.450 91.463, 146.619 90.014, 146.577 90.032 C 146.535 90.049, 145.192 91.213, 143.593 92.618 M 47.250 104.708 C 46.563 104.960, 46 105.749, 46 106.461 C 46 107.173, 45.325 108.315, 44.500 109 C 42.389 110.752, 42.617 111.703, 45.621 113.671 C 48.124 115.311, 48.306 115.302, 49.650 113.464 C 50.546 112.239, 50.827 110.442, 50.423 108.519 C 49.675 104.958, 48.949 104.085, 47.250 104.708 M 254.758 137.071 C 250.970 180.818, 223.037 221.037, 182.307 241.384 C 164.433 250.313, 148.184 253.937, 125.140 254.134 C 113.662 254.232, 110.830 254.474, 114.500 255.046 C 133.864 258.062, 162.750 253.368, 182.883 243.933 C 221.277 225.942, 248.397 189.367, 254.508 147.339 C 255.401 141.200, 255.989 134.450, 255.816 132.339 C 255.614 129.888, 255.232 131.600, 254.758 137.071 M 38 163.418 C 38 166.398, 37.703 169.610, 37.341 170.555 C 36.880 171.755, 37.101 172.133, 38.076 171.808 C 38.843 171.552, 39.881 169.910, 40.384 168.157 C 41.558 164.063, 45.328 160, 47.952 160 C 49.944 160, 50 160.519, 50 179 L 50 198 47 198 C 45.350 198, 44 198.450, 44 199 C 44 199.609, 48.500 200, 55.500 200 C 62.500 200, 67 199.609, 67 199 C 67 198.450, 65.650 198, 64 198 L 61 198 61 179 C 61 158.349, 61.125 157.951, 66.341 162.054 C 67.777 163.183, 69.484 165.883, 70.134 168.054 C 71.911 173.984, 73 172.824, 73 165 L 73 158 55.500 158 L 38 158 38 163.418 M 79.299 175.960 C 70.720 181.190, 71.074 194.884, 79.906 199.451 C 89.506 204.416, 100.997 197.902, 100.990 187.500 C 100.982 176.953, 88.532 170.329, 79.299 175.960 M 107.250 174.732 C 103.354 175.083, 101.030 177, 104.500 177 C 105.738 177, 106 178.833, 106 187.500 C 106 197.333, 105.873 198, 104 198 C 102.900 198, 102 198.450, 102 199 C 102 199.588, 105.500 200, 110.500 200 C 115.500 200, 119 199.588, 119 199 C 119 198.450, 118.054 198, 116.897 198 C 114.896 198, 114.812 197.585, 115.147 189.412 C 115.462 181.764, 115.764 180.609, 117.913 178.870 C 122.567 175.101, 123.471 176.469, 123.785 187.762 C 124.056 197.485, 123.968 198, 122.035 198 C 120.916 198, 120 198.450, 120 199 C 120 199.588, 123.500 200, 128.500 200 C 133.500 200, 137 199.588, 137 199 C 137 198.450, 136.100 198, 135 198 C 133.166 198, 133 197.333, 133 189.955 C 133 182.746, 133.255 181.654, 135.455 179.455 C 138.276 176.633, 140.519 176.303, 141.393 178.582 C 141.727 179.452, 142 184.177, 142 189.082 C 142 197.333, 141.850 198, 140 198 C 138.900 198, 138 198.450, 138 199 C 138 199.583, 141.333 200, 146 200 C 150.667 200, 154 199.583, 154 199 C 154 198.450, 153.377 198, 152.616 198 C 151.558 198, 151.139 195.667, 150.834 188.069 C 150.515 180.145, 150.056 177.720, 148.562 176.069 C 146.066 173.311, 139.797 173.296, 135.944 176.040 L 133.080 178.080 131.040 176.040 C 128.043 173.043, 121.986 173.299, 118.077 176.589 L 115 179.178 115 176.589 C 115 174.723, 114.511 174.049, 113.250 174.175 C 112.287 174.271, 109.588 174.522, 107.250 174.732 M 162.283 175.632 C 156.899 178.286, 157.047 184, 162.500 184 C 165.372 184, 167.097 181.931, 166.762 178.887 C 166.559 177.046, 167.041 176.429, 168.887 176.166 C 171.846 175.743, 172.965 177.405, 172.985 182.250 C 172.999 185.826, 172.848 186, 169.712 186 C 167.903 186, 164.416 187.012, 161.962 188.250 C 158.045 190.225, 157.463 190.946, 157.195 194.155 C 156.956 197.031, 157.376 198.150, 159.168 199.405 C 162.044 201.420, 166.246 201.441, 170.075 199.461 C 172.754 198.076, 173.270 198.076, 175.248 199.461 C 178.054 201.426, 180.961 201.416, 183.794 199.432 C 186.176 197.764, 185.934 195.704, 183.468 196.651 C 182.250 197.118, 181.998 195.790, 181.986 188.857 C 181.969 178.459, 181.462 176.531, 178.368 175.122 C 174.819 173.505, 166.032 173.783, 162.283 175.632 M 190.750 174.728 C 186.882 175.133, 185.443 177, 189 177 C 190.873 177, 191 177.667, 191 187.500 C 191 197.333, 190.873 198, 189 198 C 187.900 198, 187 198.450, 187 199 C 187 199.583, 190.333 200, 195 200 C 199.667 200, 203 199.583, 203 199 C 203 198.450, 202.325 198, 201.500 198 C 200.284 198, 200 196.389, 200 189.500 C 200 182.249, 200.303 180.697, 202.061 178.939 C 203.195 177.805, 204.883 177.022, 205.811 177.200 C 207.242 177.474, 207.544 179.086, 207.785 187.762 C 208.056 197.485, 207.968 198, 206.035 198 C 204.916 198, 204 198.450, 204 199 C 204 199.583, 207.333 200, 212 200 C 216.667 200, 220 199.583, 220 199 C 220 198.450, 219.325 198, 218.500 198 C 217.271 198, 217 196.273, 217 188.455 C 217 179.531, 216.832 178.741, 214.424 176.333 C 212.251 174.160, 211.218 173.842, 207.826 174.297 C 205.613 174.593, 202.723 175.851, 201.402 177.092 L 199 179.349 199 176.674 C 199 173.818, 199.141 173.851, 190.750 174.728 M 84.084 177.399 C 83.336 178.301, 83.025 182.088, 83.211 188.043 C 83.446 195.557, 83.828 197.494, 85.250 198.389 C 86.523 199.190, 87.477 199.190, 88.750 198.389 C 90.155 197.506, 90.557 195.585, 90.789 188.651 C 90.951 183.812, 90.605 179.131, 90.004 178.007 C 88.759 175.682, 85.764 175.375, 84.084 177.399 M 168.228 189.039 C 165.342 190.199, 164.541 192.274, 165.958 194.922 C 168.301 199.299, 173 196.393, 173 190.566 C 173 187.864, 171.972 187.535, 168.228 189.039 M 106.813 253.683 C 107.534 253.972, 108.397 253.936, 108.729 253.604 C 109.061 253.272, 108.471 253.036, 107.417 253.079 C 106.252 253.127, 106.015 253.364, 106.813 253.683" stroke="none" fill="black" fill-rule="evenodd"/>
	<path fill-opacity="0.241" d="M 198 26.369 C 198 28.197, 200.977 31.837, 209.293 40.176 C 218.752 49.661, 221.216 52.799, 224.467 59.500 C 226.602 63.900, 230.242 71.325, 232.557 76 C 242.811 96.710, 246.728 116.854, 244.940 139.678 C 242.389 172.241, 225.319 202.490, 197.964 222.925 C 164.963 247.577, 122.006 252.478, 82.780 236.068 C 74.670 232.675, 66.087 227.528, 57.172 220.710 C 52.831 217.391, 51.669 216.901, 50.907 218.068 C 48.731 221.394, 66.798 234.399, 82.917 241.109 C 106.672 250.999, 135.462 252.757, 161.587 245.914 C 200.455 235.734, 234.117 202.682, 245.451 163.571 C 249.449 149.776, 250.290 142.104, 249.733 124.500 C 248.855 96.773, 245.471 87.417, 220.350 43.276 C 217.987 39.124, 207.163 29.242, 201.091 25.693 L 198 23.887 198 26.369 M 92.500 73.877 C 85.213 78.418, 79.765 87.523, 78.082 97.973 C 77.514 101.498, 77.189 104.522, 77.359 104.692 C 77.529 104.862, 79.714 104.619, 82.215 104.152 C 85.418 103.554, 87.462 103.677, 89.128 104.569 C 90.784 105.455, 91.870 105.523, 92.747 104.795 C 93.716 103.991, 94 104.678, 94 107.827 C 94 111.287, 93.486 112.290, 90.578 114.509 C 87.419 116.918, 86.833 117.032, 82.977 115.994 C 80.678 115.375, 78.573 115.094, 78.297 115.369 C 77.428 116.239, 80.947 125.524, 83.927 130.224 C 91.075 141.496, 102.974 144.352, 111.521 136.847 L 115 133.793 115 136.896 C 115 138.603, 115.471 140, 116.048 140 C 118.023 140, 121.943 134.769, 124.189 129.135 C 127.156 121.695, 127.447 104.955, 124.732 97.920 C 122.782 92.869, 117.779 87.400, 116.072 88.455 C 113.697 89.924, 110.806 87.632, 108.139 82.167 C 103.516 72.692, 102.894 72, 99.009 72.004 C 97.079 72.006, 94.150 72.849, 92.500 73.877 M 144.500 73.877 C 137.906 77.986, 131.825 87.396, 130.526 95.500 C 130.173 97.700, 129.672 100.625, 129.412 102 C 128.669 105.928, 130.808 102.318, 132.078 97.500 C 133.529 91.995, 135.639 89.239, 137.204 90.804 C 140.372 93.972, 145.027 90.148, 147.173 82.615 C 148.660 77.395, 150.827 74.831, 153.435 75.206 C 156.902 75.704, 158.401 80.579, 158.824 92.725 L 159.214 103.950 162.857 104.645 C 164.861 105.028, 168.637 105.377, 171.249 105.420 C 173.861 105.464, 175.999 105.805, 175.999 106.177 C 176 106.830, 168.826 110.377, 162.395 112.903 C 159.326 114.108, 159.284 114.224, 158.664 122.946 C 158.320 127.799, 157.596 132.934, 157.054 134.357 C 156.094 136.884, 151.640 138.973, 150.226 137.559 C 149.463 136.797, 149.248 101.544, 149.954 93.005 C 150.328 88.485, 150.118 87.454, 148.774 87.195 C 147.509 86.951, 147.001 87.964, 146.520 91.690 C 145.666 98.304, 144.970 99.279, 139.871 101 C 137.427 101.825, 134.487 103.456, 133.339 104.625 C 132.190 105.794, 130.717 106.928, 130.066 107.145 C 128.339 107.720, 130.314 118.821, 133.305 125.355 C 140.424 140.906, 154.262 145.777, 164.250 136.249 L 167 133.626 167 136.813 C 167 140.684, 168.308 140.850, 171.519 137.385 C 176.227 132.305, 178.433 124.563, 178.468 113 C 178.515 97.619, 174.556 89.397, 165.730 86.544 C 163.257 85.745, 161.914 84.296, 160 80.359 C 158.625 77.532, 156.882 74.495, 156.128 73.609 C 154.266 71.426, 148.209 71.566, 144.500 73.877 M 195.500 73.851 C 188.872 78.039, 182.822 87.412, 181.526 95.500 C 181.173 97.700, 180.672 100.625, 180.412 102 C 179.631 106.130, 181.754 102.236, 183.475 96.381 C 185.227 90.421, 187.193 88.437, 190.954 88.831 C 193.150 89.062, 194.160 88.356, 196.329 85.079 C 197.798 82.859, 199 80.428, 199 79.676 C 199 77.817, 202.260 75, 204.412 75 C 205.377 75, 205.982 74.438, 205.756 73.750 C 205.083 71.702, 198.803 71.763, 195.500 73.851 M 29 75 C 29 76.795, 29.667 77, 35.500 77 L 42 77 42 83.662 C 42 88.994, 42.508 91.191, 44.542 94.662 C 48.689 101.737, 50.002 100.553, 49.989 89.750 C 49.983 84.662, 49.699 78.813, 49.358 76.750 L 48.738 73 38.869 73 C 29.667 73, 29 73.135, 29 75 M 12.136 81.005 C 0.373 107.311, -0.856 140.368, 8.862 169.082 C 13.627 183.161, 18.176 191, 21.582 191 C 22.780 191, 21.632 186.567, 18.528 179.206 C 5.791 149.005, 4.843 116.294, 15.834 86.267 C 18.723 78.375, 18.776 77.945, 17.114 75.892 C 15.399 73.774, 15.343 73.831, 12.136 81.005 M 97.742 76.732 C 96.836 77.733, 95.802 80.388, 95.443 82.632 C 94.884 86.128, 95.067 86.784, 96.720 87.216 C 98.519 87.687, 98.588 88.253, 97.748 95.610 C 96.814 103.790, 97.250 136.583, 98.306 137.640 C 99.625 138.959, 104.118 136.820, 105.022 134.442 C 105.545 133.066, 106.317 127.829, 106.737 122.805 L 107.500 113.670 115.449 110.487 C 123.496 107.266, 126.777 104.517, 121.330 105.560 C 119.774 105.858, 116.025 105.737, 113 105.291 L 107.500 104.479 106.955 92.989 C 106.367 80.608, 104.842 75.696, 101.435 75.206 C 100.310 75.044, 98.648 75.731, 97.742 76.732 M 57.136 78.101 C 57.061 78.432, 55.665 83.952, 54.033 90.369 C 51.563 100.085, 51.218 102.825, 51.971 106.767 C 52.846 111.346, 52.699 111.814, 47.438 121.150 C 44.099 127.076, 42 131.997, 42 133.900 C 42 136.809, 41.769 137.002, 38.250 137.035 C 36.188 137.055, 33.375 137.714, 32 138.500 C 29.708 139.810, 30.351 139.932, 39.715 139.965 C 48.886 139.996, 50.039 140.204, 51 142 C 51.792 143.479, 53.094 144, 56 144 C 58.906 144, 60.208 143.479, 61 142 C 61.794 140.516, 63.094 140, 66.035 140 C 68.893 140, 70 139.581, 70 138.500 C 70 137.389, 68.833 137, 65.500 137 L 61 137 61 110.550 C 61 88.890, 60.746 83.955, 59.596 83.300 C 58.824 82.860, 57.985 81.375, 57.732 80 C 57.479 78.625, 57.211 77.771, 57.136 78.101 M 217.993 82.517 C 213.305 94.849, 210.753 106.282, 209.947 118.566 C 209.476 125.753, 208.636 132.828, 208.080 134.289 C 207.095 136.880, 202.662 138.995, 201.226 137.559 C 200.463 136.797, 200.248 101.544, 200.954 93.005 C 201.328 88.485, 201.118 87.454, 199.774 87.195 C 198.516 86.953, 197.980 87.986, 197.444 91.690 C 196.582 97.646, 195.709 98.776, 191.343 99.595 C 189.256 99.987, 187.245 101.222, 186.268 102.713 C 185.379 104.071, 183.576 105.591, 182.264 106.090 C 180.070 106.924, 179.929 107.381, 180.518 111.749 C 183.720 135.463, 201.310 148.447, 214.521 136.847 L 218 133.793 218 136.896 C 218 140.687, 219.326 140.830, 222.519 137.385 C 227.365 132.156, 229.462 124.597, 229.423 112.500 C 229.389 102.150, 229.171 100.982, 225.736 92.730 C 223.728 87.906, 221.408 82.993, 220.581 81.813 L 219.078 79.666 217.993 82.517 M 20.111 86.111 C 19.495 87.878, 19.166 89.499, 19.380 89.713 C 19.594 89.927, 20.273 88.656, 20.889 86.889 C 21.505 85.122, 21.834 83.501, 21.620 83.287 C 21.406 83.073, 20.727 84.344, 20.111 86.111 M 16.079 98.583 C 16.127 99.748, 16.364 99.985, 16.683 99.188 C 16.972 98.466, 16.936 97.603, 16.604 97.271 C 16.272 96.939, 16.036 97.529, 16.079 98.583 M 15.079 102.583 C 15.127 103.748, 15.364 103.985, 15.683 103.188 C 15.972 102.466, 15.936 101.603, 15.604 101.271 C 15.272 100.939, 15.036 101.529, 15.079 102.583 M 14.079 107.583 C 14.127 108.748, 14.364 108.985, 14.683 108.188 C 14.972 107.466, 14.936 106.603, 14.604 106.271 C 14.272 105.939, 14.036 106.529, 14.079 107.583 M 47.027 109.467 C 45.645 111.133, 46.454 113, 48.559 113 C 50.120 113, 50.562 109.466, 49.113 108.570 C 48.626 108.269, 47.687 108.672, 47.027 109.467 M 253.079 150.583 C 253.127 151.748, 253.364 151.985, 253.683 151.188 C 253.972 150.466, 253.936 149.603, 253.604 149.271 C 253.272 148.939, 253.036 149.529, 253.079 150.583 M 251.539 157.703 C 251.154 159.792, 249.057 166.069, 246.881 171.654 C 231.228 211.817, 196.214 241.969, 153.500 252.068 C 146.429 253.740, 146.138 253.890, 151 253.363 C 164.815 251.864, 188.114 242.437, 201.673 232.860 C 221.544 218.824, 237.114 199.450, 245.891 177.836 C 249.964 167.808, 253.640 155.307, 252.772 154.439 C 252.480 154.146, 251.925 155.615, 251.539 157.703 M 38.058 165.250 L 38.115 172.500 40.463 167.336 C 42.751 162.303, 45.254 160, 48.434 160 C 49.800 160, 50 162.423, 50 179 L 50 198 47 198 C 45.350 198, 44 198.450, 44 199 C 44 199.609, 48.500 200, 55.500 200 C 62.500 200, 67 199.609, 67 199 C 67 198.450, 65.425 198, 63.500 198 L 60 198 60 179 L 60 160 62.411 160 C 65.310 160, 69.855 165.025, 70.678 169.140 C 71.724 174.370, 73 172.095, 73 165 L 73 158 55.500 158 L 38 158 38.058 165.250 M 81.173 175.471 C 72.394 179.422, 70.334 190.180, 77.067 196.913 C 87.381 207.227, 105.750 195.230, 99.353 182.358 C 95.862 175.333, 88.053 172.375, 81.173 175.471 M 108.250 174.737 C 105.362 174.939, 103 175.531, 103 176.052 C 103 176.574, 103.900 177, 105 177 C 106.873 177, 107 177.667, 107 187.500 C 107 197.333, 106.873 198, 105 198 C 103.900 198, 103 198.450, 103 199 C 103 199.583, 106.333 200, 111 200 C 115.667 200, 119 199.583, 119 199 C 119 198.450, 118.100 198, 117 198 C 115.157 198, 115 197.333, 115 189.500 C 115 182.249, 115.303 180.697, 117.061 178.939 C 118.210 177.790, 120.092 177.015, 121.311 177.189 C 123.378 177.483, 123.516 178.070, 123.785 187.750 C 124.026 196.422, 123.834 198, 122.535 198 C 121.691 198, 121 198.450, 121 199 C 121 199.578, 124.167 200, 128.500 200 C 132.833 200, 136 199.578, 136 199 C 136 198.450, 135.325 198, 134.500 198 C 133.287 198, 133 196.408, 133 189.674 C 133 182.169, 133.237 181.126, 135.411 179.084 C 136.737 177.838, 138.649 176.977, 139.661 177.171 C 141.281 177.481, 141.534 178.744, 141.785 187.762 C 142.056 197.485, 141.968 198, 140.035 198 C 138.916 198, 138 198.450, 138 199 C 138 199.583, 141.333 200, 146 200 C 150.667 200, 154 199.583, 154 199 C 154 198.450, 153.100 198, 152 198 C 150.128 198, 150 197.333, 150 187.622 C 150 175.657, 149.332 174.500, 142.427 174.500 C 139.342 174.500, 137.478 175.142, 135.694 176.818 L 133.227 179.136 130.537 176.446 C 128.247 174.156, 127.252 173.837, 123.826 174.297 C 121.613 174.593, 118.723 175.851, 117.402 177.092 L 115 179.349 115 176.674 C 115 175.203, 114.662 174.083, 114.250 174.185 C 113.838 174.287, 111.138 174.535, 108.250 174.737 M 164.686 174.958 C 160.682 176.243, 159 177.899, 159 180.555 C 159 184.374, 165.028 184.975, 166.440 181.296 C 166.767 180.444, 166.526 179.134, 165.905 178.385 C 164.533 176.732, 166.595 175.663, 170.177 176.171 C 172.170 176.453, 172.542 177.154, 172.799 181.102 L 173.098 185.704 167.358 186.857 C 161.248 188.084, 157 191.112, 157 194.240 C 157 200.128, 163.322 202.598, 169.779 199.232 C 173.549 197.267, 173.611 197.267, 175.980 199.185 C 178.590 201.298, 182.362 200.983, 184.964 198.434 C 186.246 197.179, 186.165 197, 184.321 197 C 181.493 197, 181 195.300, 181 185.541 C 181 179.565, 180.600 176.913, 179.569 176.057 C 177.697 174.503, 168.273 173.807, 164.686 174.958 M 192.250 174.737 C 189.363 174.939, 187 175.531, 187 176.052 C 187 176.574, 187.900 177, 189 177 C 190.873 177, 191 177.667, 191 187.500 C 191 197.333, 190.873 198, 189 198 C 187.900 198, 187 198.450, 187 199 C 187 199.583, 190.333 200, 195 200 C 199.667 200, 203 199.583, 203 199 C 203 198.450, 202.100 198, 201 198 C 199.170 198, 199 197.333, 199 190.135 C 199 183.641, 199.369 181.801, 201.115 179.580 C 202.470 177.858, 203.998 177.001, 205.365 177.196 C 207.364 177.481, 207.518 178.151, 207.785 187.750 C 208.026 196.422, 207.834 198, 206.535 198 C 205.691 198, 205 198.450, 205 199 C 205 199.578, 208.167 200, 212.500 200 C 216.833 200, 220 199.578, 220 199 C 220 198.450, 219.367 198, 218.594 198 C 217.502 198, 217.110 195.768, 216.844 188.034 C 216.459 176.892, 215.654 175.301, 209.931 174.383 C 207.297 173.960, 205.629 174.425, 202.750 176.386 L 199 178.940 199 176.470 C 199 175.111, 198.662 174.083, 198.250 174.185 C 197.838 174.287, 195.137 174.535, 192.250 174.737 M 83.430 177.321 C 83.151 178.048, 83.053 183.110, 83.212 188.571 C 83.488 198.078, 83.598 198.514, 85.805 198.827 C 90.070 199.431, 91 197.485, 91 187.959 C 91 183.122, 90.727 178.452, 90.393 177.582 C 89.650 175.645, 84.152 175.439, 83.430 177.321 M 166.518 189.625 C 164.531 191.611, 164.888 194.912, 167.250 196.393 C 169.945 198.082, 172.444 195.950, 172.810 191.649 C 173.091 188.345, 172.886 188, 170.632 188 C 169.263 188, 167.412 188.731, 166.518 189.625 M 138.264 254.718 C 139.784 254.947, 142.034 254.941, 143.264 254.704 C 144.494 254.467, 143.250 254.279, 140.500 254.286 C 137.750 254.294, 136.744 254.488, 138.264 254.718 M 126.762 255.707 C 128.006 255.946, 129.806 255.937, 130.762 255.687 C 131.718 255.437, 130.700 255.241, 128.500 255.252 C 126.300 255.263, 125.518 255.468, 126.762 255.707" stroke="none" fill="black" fill-rule="evenodd"/>
	<path fill-opacity="0.178" d="M 92.500 73.874 C 85.319 78.356, 79.727 87.583, 78.146 97.558 C 77.629 100.826, 77.304 103.608, 77.425 103.739 C 77.546 103.871, 79.554 103.229, 81.888 102.312 C 85.893 100.739, 86.300 100.746, 89.179 102.447 C 93.185 104.813, 93.574 104.072, 94.427 92.445 C 94.805 87.299, 95.452 81.831, 95.865 80.294 C 96.278 78.757, 96.365 76.263, 96.058 74.751 L 95.500 72.002 92.500 73.874 M 29 74.355 C 29 76.280, 31.199 77, 37.082 77 L 42 77 42 81.978 C 42 87.612, 46.447 98, 48.859 98 C 50.058 98, 50.194 96.437, 49.664 88.750 C 49.313 83.662, 48.651 78.150, 48.193 76.500 L 47.361 73.500 38.180 73.212 C 30.751 72.980, 29 73.198, 29 74.355 M 139.672 78.042 L 134.630 83.084 137.228 85.683 C 140.393 88.847, 142.589 88.261, 144.418 83.764 C 146.517 78.606, 147.290 73, 145.902 73 C 145.249 73, 142.445 75.269, 139.672 78.042 M 191.701 76.923 C 186.929 81.320, 186.913 81.357, 188.867 83.312 C 190.029 84.473, 191.500 85.022, 192.462 84.653 C 194.474 83.881, 197.221 77.555, 196.806 74.648 C 196.527 72.690, 196.075 72.892, 191.701 76.923 M 54.391 91.417 C 51.825 100.263, 51.429 102.914, 52.122 106.622 C 52.908 110.831, 52.617 111.796, 47.480 122.039 C 44.466 128.049, 42 133.874, 42 134.983 C 42 136.434, 41.340 137, 39.649 137 C 38.356 137, 35.769 137.563, 33.899 138.250 C 30.786 139.395, 31.553 139.542, 43 140 C 60.309 140.692, 70 140.107, 70 138.368 C 70 137.363, 68.413 137, 64.016 137 L 58.031 137 57.766 108.851 L 57.500 80.703 54.391 91.417 M 158.393 83.582 C 158.727 84.452, 159 88.897, 159 93.460 C 159 101.720, 159.013 101.763, 161.974 102.989 C 163.609 103.667, 167.322 104.284, 170.224 104.360 C 174.996 104.487, 175.531 104.283, 175.822 102.232 C 176.310 98.796, 169.747 90.399, 165.986 89.647 C 163.929 89.236, 162.290 87.911, 160.880 85.521 C 158.739 81.893, 157.320 80.786, 158.393 83.582 M 219.070 84.190 C 218.561 85.460, 216.985 89.401, 215.569 92.946 C 211.860 102.233, 210.223 110.118, 209.630 121.541 C 209.343 127.064, 208.650 132.789, 208.090 134.264 C 206.871 137.470, 202.526 138.954, 200.446 136.875 C 198.490 134.919, 197.043 123.496, 197.020 109.830 L 197 98.161 192.750 99.777 C 190.412 100.667, 187.081 102.603, 185.347 104.081 C 183.613 105.559, 181.674 106.942, 181.038 107.154 C 179.340 107.720, 181.344 118.888, 184.305 125.355 C 192.163 142.520, 206.680 146.123, 217.671 133.637 C 219.915 131.087, 222.199 129, 222.746 129 C 224.882 129, 226.499 119.376, 226.444 107 C 226.397 96.466, 226.033 93.599, 224.130 88.769 C 221.484 82.057, 220.340 81.022, 219.070 84.190 M 107 93.388 C 107 103.361, 107.451 103.868, 117.113 104.744 C 123.490 105.322, 124.817 104.306, 123.631 99.748 C 122.735 96.305, 117.221 91, 114.538 91 C 113.130 91, 111.133 89.759, 109.589 87.923 L 107 84.847 107 93.388 M 6.203 99.500 C 3.787 108.482, 3.003 116.091, 3.070 129.934 C 3.109 137.945, 3.467 145.330, 3.867 146.345 C 5.523 150.552, 7.223 142.263, 8.144 125.500 C 8.657 116.150, 9.196 106.814, 9.340 104.754 C 9.485 102.694, 9.080 99.769, 8.441 98.254 L 7.279 95.500 6.203 99.500 M 140.969 101.005 C 138.477 101.833, 135.191 103.491, 133.669 104.689 C 132.146 105.887, 130.446 107.018, 129.891 107.203 C 128.341 107.720, 130.510 119.250, 133.305 125.355 C 141.163 142.520, 155.680 146.123, 166.671 133.637 C 168.915 131.087, 171.182 129, 171.708 129 C 173.206 129, 175.025 122.205, 175.697 114.103 L 176.311 106.706 171.405 109.302 C 168.707 110.730, 164.883 112.544, 162.906 113.333 L 159.313 114.767 158.655 123.321 C 157.843 133.889, 156.810 136.758, 153.522 137.584 C 148.080 138.950, 147.016 135.565, 146.110 114 L 145.500 99.500 140.969 101.005 M 120 108.952 C 118.075 110.001, 114.427 111.602, 111.894 112.510 L 107.288 114.162 106.663 122.966 C 106.319 127.808, 105.596 132.934, 105.054 134.357 C 103.870 137.473, 99.493 138.921, 97.446 136.875 C 95.971 135.400, 94.053 124.360, 94.020 117.161 L 94 112.822 90.805 115.510 C 87.599 118.208, 84.731 118.446, 79.635 116.434 C 78.034 115.802, 77.870 116.038, 78.481 118.099 C 85.178 140.691, 102.075 147.946, 114.671 133.637 C 116.915 131.087, 119.182 129, 119.708 129 C 121.196 129, 123.024 122.224, 123.686 114.250 C 124.018 110.263, 124.111 107.010, 123.894 107.023 C 123.677 107.036, 121.925 107.904, 120 108.952 M 47.500 110 C 46.684 111.320, 47.880 113.192, 49.069 112.457 C 50.284 111.707, 50.276 109, 49.059 109 C 48.541 109, 47.840 109.450, 47.500 110 M 38 165 C 38 168.850, 38.190 172, 38.422 172 C 38.655 172, 39.385 170.313, 40.046 168.250 C 41.599 163.399, 44.742 160, 47.674 160 L 50 160 50 179 L 50 198 47 198 C 45.350 198, 44 198.450, 44 199 C 44 199.609, 48.500 200, 55.500 200 C 62.500 200, 67 199.609, 67 199 C 67 198.450, 65.425 198, 63.500 198 L 60 198 60 179 L 60 160 62.277 160 C 65.735 160, 68.714 162.590, 70.044 166.753 C 70.703 168.814, 71.637 170.927, 72.121 171.450 C 73.144 172.556, 73.310 165.802, 72.375 161.125 L 71.750 158 54.875 158 L 38 158 38 165 M 239.729 167.604 C 239.328 168.005, 239 169.023, 239 169.867 C 239 170.992, 239.296 171.104, 240.113 170.288 C 240.724 169.676, 241.053 168.657, 240.842 168.025 C 240.631 167.393, 240.130 167.203, 239.729 167.604 M 81.415 175.369 C 74.517 178.490, 71.473 186.256, 74.647 192.642 C 79.501 202.410, 91.933 203.536, 98.346 194.788 C 100.834 191.394, 100.990 184.160, 98.653 180.593 C 95.035 175.072, 87.273 172.719, 81.415 175.369 M 108.250 174.737 C 105.362 174.939, 103 175.531, 103 176.052 C 103 176.574, 103.900 177, 105 177 C 106.873 177, 107 177.667, 107 187.500 C 107 197.333, 106.873 198, 105 198 C 103.900 198, 103 198.450, 103 199 C 103 199.578, 106.167 200, 110.500 200 C 114.833 200, 118 199.578, 118 199 C 118 198.450, 117.298 198, 116.440 198 C 115.135 198, 114.900 196.565, 115.006 189.250 C 115.193 176.286, 115.077 173.981, 114.250 174.185 C 113.838 174.287, 111.138 174.535, 108.250 174.737 M 120.370 175.401 C 118.649 176.172, 116.907 177.342, 116.499 178.001 C 115.935 178.914, 116.248 178.938, 117.814 178.100 C 123.619 174.993, 125 177.400, 125 190.625 C 125 197.333, 124.819 198, 123 198 C 121.900 198, 121 198.450, 121 199 C 121 199.578, 124.167 200, 128.500 200 C 132.833 200, 136 199.578, 136 199 C 136 198.450, 135.044 198, 133.875 198 C 131.836 198, 131.768 197.646, 132.203 189.348 C 132.597 181.850, 132.962 180.449, 134.940 178.848 C 136.195 177.832, 138.297 177, 139.611 177 C 141.978 177, 142 177.096, 142 187.500 C 142 196.167, 141.738 198, 140.500 198 C 139.675 198, 139 198.450, 139 199 C 139 199.578, 142.167 200, 146.500 200 C 150.833 200, 154 199.578, 154 199 C 154 198.450, 153.100 198, 152 198 C 150.136 198, 150 197.333, 150 188.191 C 150 176.137, 149.121 174.500, 142.646 174.500 C 139.014 174.500, 137.532 175.074, 135.066 177.437 C 132.869 179.542, 132 179.931, 132 178.810 C 132 175.112, 125.362 173.167, 120.370 175.401 M 164.686 174.961 C 163.138 175.456, 161.226 176.398, 160.436 177.053 C 157.206 179.734, 160.005 184.768, 164.018 183.494 C 165.686 182.965, 166.065 182.156, 165.816 179.662 C 165.515 176.655, 165.671 176.500, 169 176.500 C 172.460 176.500, 172.503 176.554, 172.803 181.195 L 173.105 185.890 169.303 186.477 C 163.388 187.391, 158.661 190.155, 157.540 193.354 C 156.661 195.865, 156.875 196.496, 159.326 198.604 C 162.707 201.512, 164.428 201.586, 169.428 199.037 C 173.254 197.086, 173.294 197.086, 175.774 199.037 C 178.819 201.432, 179.876 201.475, 182.937 199.331 L 185.320 197.662 183.160 196.863 C 181.154 196.122, 181 195.386, 181 186.567 C 181 178.049, 180.791 176.958, 178.971 175.985 C 176.132 174.465, 168.046 173.886, 164.686 174.961 M 192.250 174.737 C 189.363 174.939, 187 175.531, 187 176.052 C 187 176.574, 187.900 177, 189 177 C 190.873 177, 191 177.667, 191 187.500 C 191 197.333, 190.873 198, 189 198 C 187.900 198, 187 198.450, 187 199 C 187 199.583, 190.333 200, 195 200 C 199.667 200, 203 199.583, 203 199 C 203 198.450, 202.100 198, 201 198 C 199.170 198, 199 197.333, 199 190.135 C 199 181.218, 201.111 177, 205.573 177 C 207.988 177, 208 177.050, 208 187.500 C 208 196.167, 207.738 198, 206.500 198 C 205.675 198, 205 198.450, 205 199 C 205 199.578, 208.167 200, 212.500 200 C 216.833 200, 220 199.578, 220 199 C 220 198.450, 219.100 198, 218 198 C 216.127 198, 216 197.333, 216 187.526 L 216 177.051 212.892 175.444 C 209.065 173.465, 205.481 174.209, 201.750 177.758 L 199 180.374 199 177.187 C 199 175.434, 198.662 174.083, 198.250 174.185 C 197.838 174.287, 195.137 174.535, 192.250 174.737 M 236.604 175.590 C 235.771 177.761, 236.999 179.609, 238.110 177.857 C 239.236 176.079, 239.235 174, 238.107 174 C 237.616 174, 236.939 174.716, 236.604 175.590 M 82.999 178.502 C 82.450 179.947, 82 183.997, 82 187.500 C 82 191.003, 82.450 195.053, 82.999 196.498 C 83.838 198.703, 84.522 199.076, 87.245 198.813 C 90.322 198.516, 90.535 198.231, 91.307 193.348 C 91.755 190.515, 91.756 185.565, 91.310 182.348 C 90.523 176.676, 90.401 176.491, 87.249 176.187 C 84.521 175.924, 83.838 176.296, 82.999 178.502 M 233.425 182.310 C 224.042 197.043, 218.372 204.603, 211.542 211.483 C 202.832 220.258, 201.623 222.355, 205.839 221.375 C 212.511 219.825, 234.872 192.678, 233.238 188.111 C 232.964 187.347, 233.150 186.974, 233.650 187.284 C 234.750 187.964, 236.925 181.497, 236.065 180.105 C 235.730 179.563, 234.542 180.556, 233.425 182.310 M 166.605 189.299 C 165.423 190.164, 164.941 191.586, 165.164 193.549 C 165.465 196.191, 165.867 196.500, 169 196.500 C 172.403 196.500, 172.509 196.382, 172.807 192.250 C 173.089 188.361, 172.914 188, 170.749 188 C 169.447 188, 167.583 188.585, 166.605 189.299 M 229.785 202.883 C 228.291 204.995, 223.859 210.161, 219.936 214.362 C 212.316 222.521, 211.796 224.939, 219.238 217.601 C 226.642 210.302, 235.255 198.975, 233.365 199.021 C 232.889 199.033, 231.278 200.771, 229.785 202.883" stroke="none" fill="black" fill-rule="evenodd"/>
</svg>