<svg xmlns="http://www.w3.org/2000/svg" version="1.1" width="256px" height="256px" style="shape-rendering:geometricPrecision; text-rendering:geometricPrecision; image-rendering:optimizeQuality; fill-rule:evenodd; clip-rule:evenodd" xmlns:xlink="http://www.w3.org/1999/xlink">
<g><path style="opacity:1" fill="#f0c012" d="M 140.5,2.5 C 138.833,2.5 137.167,2.5 135.5,2.5C 135.579,3.93047 135.246,5.26381 134.5,6.5C 130.687,7.16708 127.021,7.83374 123.5,8.5C 108.436,8.85002 94.1023,12.1834 80.5,18.5C 81.8333,16.1667 81.8333,13.8333 80.5,11.5C 99.7311,3.08632 119.731,0.0863197 140.5,2.5 Z"/></g>
<g><path style="opacity:0.996" fill="#fbd617" d="M 140.5,2.5 C 154.133,3.49137 167.133,6.8247 179.5,12.5C 179.107,15.5133 179.774,18.1799 181.5,20.5C 163.32,11.2636 143.987,7.26359 123.5,8.5C 127.021,7.83374 130.687,7.16708 134.5,6.5C 135.246,5.26381 135.579,3.93047 135.5,2.5C 137.167,2.5 138.833,2.5 140.5,2.5 Z"/></g>
<g><path style="opacity:1" fill="#fefefc" d="M 138.5,13.5 C 163.502,16.0471 185.502,25.3805 204.5,41.5C 211.564,47.5616 217.897,54.2283 223.5,61.5C 225.597,65.3723 227.931,69.039 230.5,72.5C 245.046,99.7729 248.546,128.44 241,158.5C 239.58,164.569 237.413,170.236 234.5,175.5C 232.848,171.656 230.515,168.156 227.5,165C 222.714,161.274 217.381,158.607 211.5,157C 176.104,156.376 140.771,155.709 105.5,155C 96.3194,153.967 87.986,150.8 80.5,145.5C 79.8333,147.5 79.1667,149.5 78.5,151.5C 77.8165,151.137 77.1499,150.804 76.5,150.5C 80.8285,142.509 78.4951,138.509 69.5,138.5C 69.1788,136.952 68.1788,136.285 66.5,136.5C 66.6666,117.497 66.4999,98.4971 66,79.5C 64.106,76.1558 61.2727,74.8224 57.5,75.5C 57.5,74.1667 57.5,72.8333 57.5,71.5C 54.1194,71.4595 50.7861,71.7929 47.5,72.5C 41.1667,72.5 34.8333,72.5 28.5,72.5C 28.5,73.8333 28.5,75.1667 28.5,76.5C 32.8333,76.5 37.1667,76.5 41.5,76.5C 41.5,80.8333 41.5,85.1667 41.5,89.5C 41.5,102.833 41.5,116.167 41.5,129.5C 41.5,131.833 41.5,134.167 41.5,136.5C 37.1667,136.5 32.8333,136.5 28.5,136.5C 28.5,137.5 28.5,138.5 28.5,139.5C 30.1667,139.5 31.8333,139.5 33.5,139.5C 32.6321,141.402 31.6321,143.235 30.5,145C 31.877,148.308 34.2104,150.475 37.5,151.5C 37.2172,152.289 36.7172,152.956 36,153.5C 33.6097,152.109 31.9431,150.109 31,147.5C 23.4651,154.941 20.6317,163.941 22.5,174.5C 16.6415,161.564 13.3081,147.898 12.5,133.5C 11.6549,109.539 17.6549,87.5393 30.5,67.5C 37.5551,56.3906 46.2218,46.724 56.5,38.5C 67.7076,29.2277 80.3743,22.5611 94.5,18.5C 108.788,14.0176 123.455,12.3509 138.5,13.5 Z"/></g>
<g><path style="opacity:0.998" fill="#c09007" d="M 80.5,11.5 C 81.8333,13.8333 81.8333,16.1667 80.5,18.5C 73.7195,21.0561 67.3862,24.3894 61.5,28.5C 59.4444,27.3777 58.1111,25.7111 57.5,23.5C 64.4026,18.2138 72.0692,14.2138 80.5,11.5 Z"/></g>
<g><path style="opacity:0.999" fill="#d8a70c" d="M 179.5,12.5 C 184.45,14.3084 189.117,16.6417 193.5,19.5C 193.034,23.162 193.701,26.4954 195.5,29.5C 190.825,26.4969 186.159,23.4969 181.5,20.5C 179.774,18.1799 179.107,15.5133 179.5,12.5 Z"/></g>
<g><path style="opacity:0.998" fill="#efc714" d="M 57.5,23.5 C 58.1111,25.7111 59.4444,27.3777 61.5,28.5C 44.3031,39.6949 30.9698,54.3616 21.5,72.5C 21.4208,71.0695 21.7542,69.7362 22.5,68.5C 21.0476,67.0603 20.0476,65.3936 19.5,63.5C 29.0517,47.2798 41.7183,33.9465 57.5,23.5 Z"/></g>
<g><path style="opacity:1" fill="#f5cc10" d="M 195.5,29.5 C 208.105,37.4297 217.438,48.0963 223.5,61.5C 217.897,54.2283 211.564,47.5616 204.5,41.5C 202.294,36.953 199.294,32.953 195.5,29.5 Z"/></g>
<g><path style="opacity:1" fill="#aa7a03" d="M 193.5,19.5 C 204.357,26.0207 214.024,34.0207 222.5,43.5C 221.957,43.56 221.624,43.8933 221.5,44.5C 225.046,52.679 229.713,60.0123 235.5,66.5C 235.5,66.8333 235.5,67.1667 235.5,67.5C 235.4,70.1085 236.067,72.4418 237.5,74.5C 234.946,70.4254 232.112,66.4254 229,62.5C 229.161,65.8318 229.661,69.1651 230.5,72.5C 227.931,69.039 225.597,65.3723 223.5,61.5C 217.438,48.0963 208.105,37.4297 195.5,29.5C 193.701,26.4954 193.034,23.162 193.5,19.5 Z"/></g>
<g><path style="opacity:1" fill="#f4cc25" d="M 56.5,35.5 C 56.5,36.5 56.5,37.5 56.5,38.5C 46.2218,46.724 37.5551,56.3906 30.5,67.5C 29.8333,67.5 29.1667,67.5 28.5,67.5C 32.3673,60.7861 36.8673,54.4528 42,48.5C 46.4062,43.5886 51.2395,39.2552 56.5,35.5 Z"/></g>
<g><path style="opacity:1" fill="#fffc22" d="M 123.5,8.5 C 143.987,7.26359 163.32,11.2636 181.5,20.5C 186.159,23.4969 190.825,26.4969 195.5,29.5C 199.294,32.953 202.294,36.953 204.5,41.5C 185.502,25.3805 163.502,16.0471 138.5,13.5C 129.676,12.3427 120.676,12.176 111.5,13C 104.86,13.7448 98.5268,15.2448 92.5,17.5C 79.1116,20.8608 67.1116,26.8608 56.5,35.5C 51.2395,39.2552 46.4062,43.5886 42,48.5C 36.8673,54.4528 32.3673,60.7861 28.5,67.5C 25.917,70.9974 23.5836,74.6641 21.5,78.5C 20.8333,78.1667 20.1667,77.8333 19.5,77.5C 19.8925,75.7162 20.5592,74.0495 21.5,72.5C 30.9698,54.3616 44.3031,39.6949 61.5,28.5C 67.3862,24.3894 73.7195,21.0561 80.5,18.5C 94.1023,12.1834 108.436,8.85002 123.5,8.5 Z"/></g>
<g><path style="opacity:1" fill="#cc9d16" d="M 92.5,17.5 C 93.4916,17.3284 94.1583,17.6618 94.5,18.5C 80.3743,22.5611 67.7076,29.2277 56.5,38.5C 56.5,37.5 56.5,36.5 56.5,35.5C 67.1116,26.8608 79.1116,20.8608 92.5,17.5 Z"/></g>
<g><path style="opacity:0.992" fill="#f7ca22" d="M 138.5,13.5 C 123.455,12.3509 108.788,14.0176 94.5,18.5C 94.1583,17.6618 93.4916,17.3284 92.5,17.5C 98.5268,15.2448 104.86,13.7448 111.5,13C 120.676,12.176 129.676,12.3427 138.5,13.5 Z"/></g>
<g><path style="opacity:1" fill="#e0aa08" d="M 222.5,43.5 C 225.392,46.271 228.058,49.271 230.5,52.5C 229.427,53.2506 229.26,54.2506 230,55.5C 232.358,58.8824 234.191,62.549 235.5,66.5C 229.713,60.0123 225.046,52.679 221.5,44.5C 221.624,43.8933 221.957,43.56 222.5,43.5 Z"/></g>
<g><path style="opacity:1" fill="#9a6a09" d="M 156.5,71.5 C 158.48,75.7088 160.147,80.0421 161.5,84.5C 165.956,84.6379 169.623,86.3045 172.5,89.5C 173.738,91.2143 174.405,93.2143 174.5,95.5C 175.299,98.4299 175.632,101.43 175.5,104.5C 174.033,104.894 172.533,105.227 171,105.5C 166.725,104.794 162.559,103.794 158.5,102.5C 158.5,97.1667 158.5,91.8333 158.5,86.5C 158.157,82.2793 156.823,78.4459 154.5,75C 149.07,74.9343 146.403,77.7676 146.5,83.5C 146.5,84.1667 146.5,84.8333 146.5,85.5C 146.5,86.1667 146.5,86.8333 146.5,87.5C 144.855,88.4787 143.521,89.812 142.5,91.5C 139.572,92.4841 136.572,92.8174 133.5,92.5C 133.154,96.8524 131.488,100.519 128.5,103.5C 129.219,101.236 129.552,98.9029 129.5,96.5C 131.338,85.6513 137.005,77.4846 146.5,72C 149.817,71.5017 153.15,71.335 156.5,71.5 Z"/></g>
<g><path style="opacity:1" fill="#895907" d="M 47.5,72.5 C 48.5554,78.4478 49.2221,84.4478 49.5,90.5C 49.1667,93.1667 48.8333,95.8333 48.5,98.5C 45.9163,95.6508 43.583,92.6508 41.5,89.5C 41.5,85.1667 41.5,80.8333 41.5,76.5C 37.1667,76.5 32.8333,76.5 28.5,76.5C 28.5,75.1667 28.5,73.8333 28.5,72.5C 34.8333,72.5 41.1667,72.5 47.5,72.5 Z"/></g>
<g><path style="opacity:1" fill="#885907" d="M 95.5,71.5 C 95.2155,73.4147 95.5489,75.0813 96.5,76.5C 95.6814,78.7722 95.0147,81.1055 94.5,83.5C 94.5,84.1667 94.5,84.8333 94.5,85.5C 93.7803,91.1377 93.447,96.8044 93.5,102.5C 92.7354,102.923 91.9021,103.257 91,103.5C 89.2799,102.277 87.4466,101.277 85.5,100.5C 82.4083,101.308 79.4083,102.308 76.5,103.5C 77.0508,91.6659 81.7174,81.8326 90.5,74C 92.1932,73.1534 93.8599,72.3201 95.5,71.5 Z"/></g>
<g><path style="opacity:1" fill="#d2d2c2" d="M 106.5,83.5 C 106.5,84.5 106.5,85.5 106.5,86.5C 104.827,87.343 103.66,88.6763 103,90.5C 102.27,105.518 102.436,120.518 103.5,135.5C 102.71,136.401 101.71,137.068 100.5,137.5C 99.4535,122.183 99.2868,106.849 100,91.5C 100.932,87.7439 102.099,84.0772 103.5,80.5C 99.8875,79.9238 96.8875,80.9238 94.5,83.5C 95.0147,81.1055 95.6814,78.7722 96.5,76.5C 98.1599,74.7516 100.16,74.2516 102.5,75C 104.329,77.6823 105.663,80.5156 106.5,83.5 Z"/></g>
<g><path style="opacity:1" fill="#d2d2c2" d="M 158.5,86.5 C 156.827,87.343 155.66,88.6763 155,90.5C 154.27,105.518 154.436,120.518 155.5,135.5C 154.71,136.401 153.71,137.068 152.5,137.5C 151.453,122.183 151.287,106.849 152,91.5C 152.932,87.7439 154.099,84.0772 155.5,80.5C 151.888,79.9238 148.888,80.9238 146.5,83.5C 146.403,77.7676 149.07,74.9343 154.5,75C 156.823,78.4459 158.157,82.2793 158.5,86.5 Z"/></g>
<g><path style="opacity:1" fill="#d2d2c2" d="M 203.5,74.5 C 205.017,74.5106 206.184,75.1772 207,76.5C 208.15,79.7679 208.984,83.1012 209.5,86.5C 207.827,87.343 206.66,88.6763 206,90.5C 205.27,105.518 205.436,120.518 206.5,135.5C 205.71,136.401 204.71,137.068 203.5,137.5C 202.453,122.183 202.287,106.849 203,91.5C 203.932,87.7439 205.099,84.0772 206.5,80.5C 202.888,79.9238 199.888,80.9238 197.5,83.5C 197.359,78.948 199.359,75.948 203.5,74.5 Z"/></g>
<g><path style="opacity:0.997" fill="#aa7c04" d="M 19.5,63.5 C 20.0476,65.3936 21.0476,67.0603 22.5,68.5C 21.7542,69.7362 21.4208,71.0695 21.5,72.5C 20.5592,74.0495 19.8925,75.7162 19.5,77.5C 17.2611,81.6491 15.2611,85.9825 13.5,90.5C 12.0785,87.7062 11.0785,84.7062 10.5,81.5C 12.4651,74.9031 15.4651,68.9031 19.5,63.5 Z"/></g>
<g><path style="opacity:1" fill="#d1ab14" d="M 107.5,72.5 C 111.12,74.4528 114.12,77.1195 116.5,80.5C 118.025,82.2163 119.025,84.2163 119.5,86.5C 113.634,87.9999 109.801,85.9999 108,80.5C 107.503,77.854 107.336,75.1873 107.5,72.5 Z"/></g>
<g><path style="opacity:1" fill="#e6e6d4" d="M 57.5,76.5 C 57.5,76.1667 57.5,75.8333 57.5,75.5C 61.2727,74.8224 64.106,76.1558 66,79.5C 66.4999,98.4971 66.6666,117.497 66.5,136.5C 65.8333,136.5 65.1667,136.5 64.5,136.5C 64.6666,117.83 64.4999,99.1637 64,80.5C 62.9745,77.3072 60.8078,75.9738 57.5,76.5 Z"/></g>
<g><path style="opacity:1" fill="#7d7d76" d="M 57.5,82.5 C 59.0174,82.5106 60.1841,83.1772 61,84.5C 61.4999,101.83 61.6666,119.163 61.5,136.5C 60.1667,136.5 58.8333,136.5 57.5,136.5C 57.5,118.5 57.5,100.5 57.5,82.5 Z"/></g>
<g><path style="opacity:1" fill="#b2b2a5" d="M 57.5,76.5 C 60.8078,75.9738 62.9745,77.3072 64,80.5C 64.4999,99.1637 64.6666,117.83 64.5,136.5C 63.5,136.5 62.5,136.5 61.5,136.5C 61.6666,119.163 61.4999,101.83 61,84.5C 60.1841,83.1772 59.0174,82.5106 57.5,82.5C 57.5,81.1667 57.5,79.8333 57.5,78.5C 57.5,77.8333 57.5,77.1667 57.5,76.5 Z"/></g>
<g><path style="opacity:1" fill="#c59c12" d="M 156.5,71.5 C 161.637,72.968 165.637,75.968 168.5,80.5C 170.644,83.122 171.977,86.122 172.5,89.5C 169.623,86.3045 165.956,84.6379 161.5,84.5C 160.147,80.0421 158.48,75.7088 156.5,71.5 Z"/></g>
<g><path style="opacity:1" fill="#a2720a" d="M 202.5,71.5 C 202.557,72.609 202.89,73.609 203.5,74.5C 199.359,75.948 197.359,78.948 197.5,83.5C 197.5,83.8333 197.5,84.1667 197.5,84.5C 195.21,88.7904 191.543,90.6238 186.5,90C 184.3,93.2948 182.966,96.9615 182.5,101C 181.87,102.31 180.87,103.144 179.5,103.5C 180.299,100.57 180.632,97.5701 180.5,94.5C 182.892,86.575 187.225,79.7417 193.5,74C 196.206,72.0924 199.206,71.259 202.5,71.5 Z"/></g>
<g><path style="opacity:1" fill="#825507" d="M 219.5,81.5 C 222.838,85.4916 224.838,90.1583 225.5,95.5C 228.092,108.793 225.758,121.127 218.5,132.5C 217.167,133.167 216.167,134.167 215.5,135.5C 205.321,142.851 195.988,141.851 187.5,132.5C 186.083,129.331 184.417,126.331 182.5,123.5C 182.405,121.214 181.738,119.214 180.5,117.5C 180.354,113.481 180.021,109.481 179.5,105.5C 184.688,101.738 190.354,98.7378 196.5,96.5C 195.966,109.606 196.8,122.606 199,135.5C 199.708,136.381 200.542,137.047 201.5,137.5C 202.167,137.5 202.833,137.5 203.5,137.5C 204.71,137.068 205.71,136.401 206.5,135.5C 208.018,132.466 208.851,129.133 209,125.5C 209.5,119.175 209.666,112.842 209.5,106.5C 211.656,97.7007 214.989,89.3674 219.5,81.5 Z"/></g>
<g><path style="opacity:1" fill="#835607" d="M 57.5,78.5 C 57.5,79.8333 57.5,81.1667 57.5,82.5C 57.5,100.5 57.5,118.5 57.5,136.5C 58.8333,136.5 60.1667,136.5 61.5,136.5C 62.5,136.5 63.5,136.5 64.5,136.5C 65.1667,136.5 65.8333,136.5 66.5,136.5C 68.1788,136.285 69.1788,136.952 69.5,138.5C 68.0813,139.451 66.4147,139.784 64.5,139.5C 58.5,139.5 52.5,139.5 46.5,139.5C 42.1667,139.5 37.8333,139.5 33.5,139.5C 31.8333,139.5 30.1667,139.5 28.5,139.5C 28.5,138.5 28.5,137.5 28.5,136.5C 32.8333,136.5 37.1667,136.5 41.5,136.5C 41.5,134.167 41.5,131.833 41.5,129.5C 45.712,123.59 49.3786,117.257 52.5,110.5C 51.7275,107.535 51.0608,104.535 50.5,101.5C 52.0295,93.4798 54.3628,85.8131 57.5,78.5 Z"/></g>
<g><path style="opacity:1" fill="#7b7b74" d="M 98.5,137.5 C 96.1725,136.264 95.0058,134.264 95,131.5C 93.9477,124.872 93.4477,118.206 93.5,111.5C 93.5,109.167 93.5,106.833 93.5,104.5C 93.5,103.833 93.5,103.167 93.5,102.5C 93.447,96.8044 93.7803,91.1377 94.5,85.5C 96.0418,84.6993 97.7085,84.366 99.5,84.5C 97.2893,102.123 96.956,119.789 98.5,137.5 Z"/></g>
<g><path style="opacity:1" fill="#ac7e0c" d="M 95.5,71.5 C 99.6002,71.2367 103.6,71.5701 107.5,72.5C 107.336,75.1873 107.503,77.854 108,80.5C 109.801,85.9999 113.634,87.9999 119.5,86.5C 120.677,88.6794 121.677,91.0128 122.5,93.5C 122.5,94.5 122.5,95.5 122.5,96.5C 120.967,94.6452 119.3,92.8119 117.5,91C 115.5,90.6667 113.5,90.3333 111.5,90C 109.563,87.9291 107.896,85.7625 106.5,83.5C 105.663,80.5156 104.329,77.6823 102.5,75C 100.16,74.2516 98.1599,74.7516 96.5,76.5C 95.5489,75.0813 95.2155,73.4147 95.5,71.5 Z"/></g>
<g><path style="opacity:1" fill="#7b7b74" d="M 150.5,137.5 C 148.172,136.264 147.006,134.264 147,131.5C 145.715,120.54 145.215,109.54 145.5,98.5C 145.423,94.7852 145.756,91.1185 146.5,87.5C 146.5,86.8333 146.5,86.1667 146.5,85.5C 148.042,84.6993 149.708,84.366 151.5,84.5C 149.289,102.123 148.956,119.789 150.5,137.5 Z"/></g>
<g><path style="opacity:1" fill="#7b7b74" d="M 201.5,137.5 C 200.542,137.047 199.708,136.381 199,135.5C 196.8,122.606 195.966,109.606 196.5,96.5C 196.724,92.8212 197.058,89.1545 197.5,85.5C 199.042,84.6993 200.708,84.366 202.5,84.5C 200.289,102.123 199.956,119.789 201.5,137.5 Z"/></g>
<g><path style="opacity:1" fill="#b1b1a4" d="M 116.5,80.5 C 118.017,80.5106 119.184,81.1772 120,82.5C 123.421,87.0707 126.588,91.7374 129.5,96.5C 129.552,98.9029 129.219,101.236 128.5,103.5C 128.5,104.5 128.5,105.5 128.5,106.5C 127.475,102.921 126.309,99.2541 125,95.5C 124.292,94.6195 123.458,93.9528 122.5,93.5C 121.677,91.0128 120.677,88.6794 119.5,86.5C 119.025,84.2163 118.025,82.2163 116.5,80.5 Z"/></g>
<g><path style="opacity:1" fill="#d9b416" d="M 202.5,71.5 C 206.905,71.0305 210.905,72.0305 214.5,74.5C 216.167,76.5 217.833,78.5 219.5,80.5C 219.5,80.8333 219.5,81.1667 219.5,81.5C 214.989,89.3674 211.656,97.7007 209.5,106.5C 209.5,99.8333 209.5,93.1667 209.5,86.5C 208.984,83.1012 208.15,79.7679 207,76.5C 206.184,75.1772 205.017,74.5106 203.5,74.5C 202.89,73.609 202.557,72.609 202.5,71.5 Z"/></g>
<g><path style="opacity:0.993" fill="#8e6201" d="M 10.5,81.5 C 11.0785,84.7062 12.0785,87.7062 13.5,90.5C 11.5363,96.3552 10.203,102.355 9.5,108.5C 8.02006,114.769 7.3534,121.269 7.5,128C 7.50101,132.347 7.83434,136.514 8.5,140.5C 8.5,142.833 8.5,145.167 8.5,147.5C 7.91523,153.178 7.24856,158.845 6.5,164.5C 4.24481,158.473 2.74481,152.14 2,145.5C -0.901067,123.236 1.93227,101.902 10.5,81.5 Z"/></g>
<g><path style="opacity:1" fill="#e1bf18" d="M 146.5,87.5 C 145.756,91.1185 145.423,94.7852 145.5,98.5C 141.878,99.6052 138.211,100.605 134.5,101.5C 133.069,103.938 131.069,105.604 128.5,106.5C 128.5,105.5 128.5,104.5 128.5,103.5C 131.488,100.519 133.154,96.8524 133.5,92.5C 136.572,92.8174 139.572,92.4841 142.5,91.5C 143.521,89.812 144.855,88.4787 146.5,87.5 Z"/></g>
<g><path style="opacity:1" fill="#dab516" d="M 197.5,84.5 C 197.5,84.8333 197.5,85.1667 197.5,85.5C 197.058,89.1545 196.724,92.8212 196.5,96.5C 190.354,98.7378 184.688,101.738 179.5,105.5C 179.5,104.833 179.5,104.167 179.5,103.5C 180.87,103.144 181.87,102.31 182.5,101C 182.966,96.9615 184.3,93.2948 186.5,90C 191.543,90.6238 195.21,88.7904 197.5,84.5 Z"/></g>
<g><path style="opacity:1" fill="#ebb809" d="M 235.5,67.5 C 236.885,68.5736 238.051,69.9069 239,71.5C 241.254,80.112 244.254,88.4453 248,96.5C 249.704,102.722 250.537,109.055 250.5,115.5C 247.654,102.057 243.821,88.7234 239,75.5C 238.617,74.944 238.117,74.6107 237.5,74.5C 236.067,72.4418 235.4,70.1085 235.5,67.5 Z"/></g>
<g><path style="opacity:1" fill="#97978d" d="M 219.5,81.5 C 219.5,81.1667 219.5,80.8333 219.5,80.5C 222.652,81.7791 224.652,84.1125 225.5,87.5C 235.188,106.937 233.188,125.103 219.5,142C 218.207,142.49 216.873,142.657 215.5,142.5C 215.5,140.167 215.5,137.833 215.5,135.5C 216.167,134.167 217.167,133.167 218.5,132.5C 218.5,134.167 218.5,135.833 218.5,137.5C 219.822,137.67 220.989,137.337 222,136.5C 229.06,126.563 231.394,115.563 229,103.5C 228.678,100.334 227.511,97.667 225.5,95.5C 224.838,90.1583 222.838,85.4916 219.5,81.5 Z"/></g>
<g><path style="opacity:1" fill="#c89812" d="M 28.5,67.5 C 29.1667,67.5 29.8333,67.5 30.5,67.5C 17.6549,87.5393 11.6549,109.539 12.5,133.5C 11.3443,126.011 11.1777,118.345 12,110.5C 14.2687,99.5308 17.4354,88.8642 21.5,78.5C 23.5836,74.6641 25.917,70.9974 28.5,67.5 Z"/></g>
<g><path style="opacity:1" fill="#d8b416" d="M 57.5,75.5 C 57.5,75.8333 57.5,76.1667 57.5,76.5C 57.5,77.1667 57.5,77.8333 57.5,78.5C 54.3628,85.8131 52.0295,93.4798 50.5,101.5C 51.0608,104.535 51.7275,107.535 52.5,110.5C 49.3786,117.257 45.712,123.59 41.5,129.5C 41.5,116.167 41.5,102.833 41.5,89.5C 43.583,92.6508 45.9163,95.6508 48.5,98.5C 48.8333,95.8333 49.1667,93.1667 49.5,90.5C 49.2221,84.4478 48.5554,78.4478 47.5,72.5C 50.7861,71.7929 54.1194,71.4595 57.5,71.5C 57.5,72.8333 57.5,74.1667 57.5,75.5 Z"/></g>
<g><path style="opacity:1" fill="#fcfcee" d="M 106.5,86.5 C 106.5,92.8333 106.5,99.1667 106.5,105.5C 106.5,107.833 106.5,110.167 106.5,112.5C 106.666,116.846 106.499,121.179 106,125.5C 105.851,129.133 105.018,132.466 103.5,135.5C 102.436,120.518 102.27,105.518 103,90.5C 103.66,88.6763 104.827,87.343 106.5,86.5 Z"/></g>
<g><path style="opacity:1" fill="#825407" d="M 145.5,98.5 C 145.215,109.54 145.715,120.54 147,131.5C 147.006,134.264 148.172,136.264 150.5,137.5C 151.167,137.5 151.833,137.5 152.5,137.5C 153.71,137.068 154.71,136.401 155.5,135.5C 157.924,128.505 158.924,121.172 158.5,113.5C 164.448,111.743 170.114,109.409 175.5,106.5C 175.036,115.889 172.369,124.556 167.5,132.5C 165.833,133.5 164.5,134.833 163.5,136.5C 153.401,142.748 144.401,141.414 136.5,132.5C 133.873,127.582 131.54,122.582 129.5,117.5C 129.802,114.941 129.468,112.607 128.5,110.5C 128.5,109.167 128.5,107.833 128.5,106.5C 131.069,105.604 133.069,103.938 134.5,101.5C 138.211,100.605 141.878,99.6052 145.5,98.5 Z"/></g>
<g><path style="opacity:1" fill="#fcfcee" d="M 158.5,86.5 C 158.5,91.8333 158.5,97.1667 158.5,102.5C 158.5,106.167 158.5,109.833 158.5,113.5C 158.924,121.172 157.924,128.505 155.5,135.5C 154.436,120.518 154.27,105.518 155,90.5C 155.66,88.6763 156.827,87.343 158.5,86.5 Z"/></g>
<g><path style="opacity:1" fill="#fcfcee" d="M 209.5,86.5 C 209.5,93.1667 209.5,99.8333 209.5,106.5C 209.666,112.842 209.5,119.175 209,125.5C 208.851,129.133 208.018,132.466 206.5,135.5C 205.436,120.518 205.27,105.518 206,90.5C 206.66,88.6763 207.827,87.343 209.5,86.5 Z"/></g>
<g><path style="opacity:1" fill="#a7a79b" d="M 100.5,137.5 C 99.8333,137.5 99.1667,137.5 98.5,137.5C 96.956,119.789 97.2893,102.123 99.5,84.5C 97.7085,84.366 96.0418,84.6993 94.5,85.5C 94.5,84.8333 94.5,84.1667 94.5,83.5C 96.8875,80.9238 99.8875,79.9238 103.5,80.5C 102.099,84.0772 100.932,87.7439 100,91.5C 99.2868,106.849 99.4535,122.183 100.5,137.5 Z"/></g>
<g><path style="opacity:1" fill="#a7a79b" d="M 152.5,137.5 C 151.833,137.5 151.167,137.5 150.5,137.5C 148.956,119.789 149.289,102.123 151.5,84.5C 149.708,84.366 148.042,84.6993 146.5,85.5C 146.5,84.8333 146.5,84.1667 146.5,83.5C 148.888,80.9238 151.888,79.9238 155.5,80.5C 154.099,84.0772 152.932,87.7439 152,91.5C 151.287,106.849 151.453,122.183 152.5,137.5 Z"/></g>
<g><path style="opacity:1" fill="#a7a79b" d="M 203.5,137.5 C 202.833,137.5 202.167,137.5 201.5,137.5C 199.956,119.789 200.289,102.123 202.5,84.5C 200.708,84.366 199.042,84.6993 197.5,85.5C 197.5,85.1667 197.5,84.8333 197.5,84.5C 197.5,84.1667 197.5,83.8333 197.5,83.5C 199.888,80.9238 202.888,79.9238 206.5,80.5C 205.099,84.0772 203.932,87.7439 203,91.5C 202.287,106.849 202.453,122.183 203.5,137.5 Z"/></g>
<g><path style="opacity:1" fill="#8f5f08" d="M 106.5,83.5 C 107.896,85.7625 109.563,87.9291 111.5,90C 113.5,90.3333 115.5,90.6667 117.5,91C 119.3,92.8119 120.967,94.6452 122.5,96.5C 123.388,99.0545 123.721,101.721 123.5,104.5C 117.894,105.407 112.227,105.74 106.5,105.5C 106.5,99.1667 106.5,92.8333 106.5,86.5C 106.5,85.5 106.5,84.5 106.5,83.5 Z"/></g>
<g><path style="opacity:1" fill="#b88d0f" d="M 93.5,102.5 C 93.5,103.167 93.5,103.833 93.5,104.5C 92.6009,105.472 91.4343,106.138 90,106.5C 85.5395,105.655 81.0395,105.322 76.5,105.5C 76.5,104.833 76.5,104.167 76.5,103.5C 79.4083,102.308 82.4083,101.308 85.5,100.5C 87.4466,101.277 89.2799,102.277 91,103.5C 91.9021,103.257 92.7354,102.923 93.5,102.5 Z"/></g>
<g><path style="opacity:1" fill="#7f7f77" d="M 122.5,93.5 C 123.458,93.9528 124.292,94.6195 125,95.5C 126.309,99.2541 127.475,102.921 128.5,106.5C 128.5,107.833 128.5,109.167 128.5,110.5C 128.722,122.676 124.722,133.176 116.5,142C 115.207,142.49 113.873,142.657 112.5,142.5C 112.5,140.167 112.5,137.833 112.5,135.5C 119.494,127.196 123.161,117.529 123.5,106.5C 123.5,105.833 123.5,105.167 123.5,104.5C 123.721,101.721 123.388,99.0545 122.5,96.5C 122.5,95.5 122.5,94.5 122.5,93.5 Z"/></g>
<g><path style="opacity:1" fill="#835607" d="M 123.5,106.5 C 123.161,117.529 119.494,127.196 112.5,135.5C 105.604,141.23 98.2705,141.896 90.5,137.5C 88.5,135.833 86.5,134.167 84.5,132.5C 81.0695,126.965 78.7361,120.965 77.5,114.5C 83.5469,116.717 88.8802,115.717 93.5,111.5C 93.4477,118.206 93.9477,124.872 95,131.5C 95.0058,134.264 96.1725,136.264 98.5,137.5C 99.1667,137.5 99.8333,137.5 100.5,137.5C 101.71,137.068 102.71,136.401 103.5,135.5C 105.018,132.466 105.851,129.133 106,125.5C 106.499,121.179 106.666,116.846 106.5,112.5C 112.119,110.503 117.786,108.503 123.5,106.5 Z"/></g>
<g><path style="opacity:1" fill="#e6c419" d="M 93.5,104.5 C 93.5,106.833 93.5,109.167 93.5,111.5C 88.8802,115.717 83.5469,116.717 77.5,114.5C 77.0371,111.518 76.7038,108.518 76.5,105.5C 81.0395,105.322 85.5395,105.655 90,106.5C 91.4343,106.138 92.6009,105.472 93.5,104.5 Z"/></g>
<g><path style="opacity:1" fill="#e2c018" d="M 123.5,104.5 C 123.5,105.167 123.5,105.833 123.5,106.5C 117.786,108.503 112.119,110.503 106.5,112.5C 106.5,110.167 106.5,107.833 106.5,105.5C 112.227,105.74 117.894,105.407 123.5,104.5 Z"/></g>
<g><path style="opacity:1" fill="#dbb717" d="M 158.5,102.5 C 162.559,103.794 166.725,104.794 171,105.5C 172.533,105.227 174.033,104.894 175.5,104.5C 175.5,105.167 175.5,105.833 175.5,106.5C 170.114,109.409 164.448,111.743 158.5,113.5C 158.5,109.833 158.5,106.167 158.5,102.5 Z"/></g>
<g><path style="opacity:1" fill="#9c9c91" d="M 168.5,80.5 C 170.017,80.5106 171.184,81.1772 172,82.5C 174.696,86.6803 177.53,90.6803 180.5,94.5C 180.632,97.5701 180.299,100.57 179.5,103.5C 179.5,104.167 179.5,104.833 179.5,105.5C 180.021,109.481 180.354,113.481 180.5,117.5C 179.103,127.102 175.436,135.602 169.5,143C 167.323,144.202 164.989,144.702 162.5,144.5C 162.401,141.763 162.735,139.096 163.5,136.5C 164.5,134.833 165.833,133.5 167.5,132.5C 167.5,134.167 167.5,135.833 167.5,137.5C 168.822,137.67 169.989,137.337 171,136.5C 173.614,131.606 175.947,126.606 178,121.5C 178.667,115.5 178.667,109.5 178,103.5C 177.678,100.334 176.511,97.667 174.5,95.5C 174.405,93.2143 173.738,91.2143 172.5,89.5C 171.977,86.122 170.644,83.122 168.5,80.5 Z"/></g>
<g><path style="opacity:1" fill="#fbec1b" d="M 19.5,77.5 C 20.1667,77.8333 20.8333,78.1667 21.5,78.5C 17.4354,88.8642 14.2687,99.5308 12,110.5C 11.1777,118.345 11.3443,126.011 12.5,133.5C 13.3081,147.898 16.6415,161.564 22.5,174.5C 26.8804,184.929 32.5471,194.595 39.5,203.5C 33.8525,200.018 29.3525,195.351 26,189.5C 21.7901,180.42 17.6234,171.42 13.5,162.5C 12.8826,162.389 12.3826,162.056 12,161.5C 11.5131,156.535 10.3464,151.868 8.5,147.5C 8.5,145.167 8.5,142.833 8.5,140.5C 8.38971,129.815 8.72304,119.148 9.5,108.5C 10.203,102.355 11.5363,96.3552 13.5,90.5C 15.2611,85.9825 17.2611,81.6491 19.5,77.5 Z"/></g>
<g><path style="opacity:1" fill="#cd9906" d="M 9.5,108.5 C 8.72304,119.148 8.38971,129.815 8.5,140.5C 7.83434,136.514 7.50101,132.347 7.5,128C 7.3534,121.269 8.02006,114.769 9.5,108.5 Z"/></g>
<g><path style="opacity:1" fill="#71716b" d="M 174.5,95.5 C 176.511,97.667 177.678,100.334 178,103.5C 178.667,109.5 178.667,115.5 178,121.5C 175.947,126.606 173.614,131.606 171,136.5C 169.989,137.337 168.822,137.67 167.5,137.5C 167.5,135.833 167.5,134.167 167.5,132.5C 172.369,124.556 175.036,115.889 175.5,106.5C 175.5,105.833 175.5,105.167 175.5,104.5C 175.632,101.43 175.299,98.4299 174.5,95.5 Z"/></g>
<g><path style="opacity:1" fill="#71716b" d="M 225.5,95.5 C 227.511,97.667 228.678,100.334 229,103.5C 231.394,115.563 229.06,126.563 222,136.5C 220.989,137.337 219.822,137.67 218.5,137.5C 218.5,135.833 218.5,134.167 218.5,132.5C 225.758,121.127 228.092,108.793 225.5,95.5 Z"/></g>
<g><path style="opacity:0.997" fill="#966b07" d="M 237.5,74.5 C 238.117,74.6107 238.617,74.944 239,75.5C 243.821,88.7234 247.654,102.057 250.5,115.5C 252.791,156.141 239.457,190.641 210.5,219C 207.935,221.08 205.268,222.913 202.5,224.5C 200.126,225.686 197.792,225.686 195.5,224.5C 199.833,220.5 204.167,216.5 208.5,212.5C 215.936,205.732 222.269,198.065 227.5,189.5C 230.358,185.117 232.692,180.45 234.5,175.5C 237.413,170.236 239.58,164.569 241,158.5C 248.546,128.44 245.046,99.7729 230.5,72.5C 229.661,69.1651 229.161,65.8318 229,62.5C 232.112,66.4254 234.946,70.4254 237.5,74.5 Z"/></g>
<g><path style="opacity:1" fill="#bbbbad" d="M 128.5,110.5 C 129.468,112.607 129.802,114.941 129.5,117.5C 128.231,127.463 124.565,136.296 118.5,144C 110.886,147.143 103.219,147.143 95.5,144C 93.2101,142.223 91.5434,140.056 90.5,137.5C 98.2705,141.896 105.604,141.23 112.5,135.5C 112.5,137.833 112.5,140.167 112.5,142.5C 113.873,142.657 115.207,142.49 116.5,142C 124.722,133.176 128.722,122.676 128.5,110.5 Z"/></g>
<g><path style="opacity:1" fill="#c4c4b5" d="M 225.5,87.5 C 228.624,89.7244 230.791,92.7244 232,96.5C 236.859,112.244 234.859,126.911 226,140.5C 214.929,149.63 203.762,149.797 192.5,141C 190.18,138.523 188.513,135.689 187.5,132.5C 195.988,141.851 205.321,142.851 215.5,135.5C 215.5,137.833 215.5,140.167 215.5,142.5C 216.873,142.657 218.207,142.49 219.5,142C 233.188,125.103 235.188,106.937 225.5,87.5 Z"/></g>
<g><path style="opacity:1" fill="#f4f4f5" d="M 234.5,175.5 C 232.692,180.45 230.358,185.117 227.5,189.5C 225.761,176.263 218.094,168.763 204.5,167C 187.864,165.421 171.197,165.254 154.5,166.5C 136.834,165.981 119.167,165.481 101.5,165C 97.0566,164.472 92.7232,163.472 88.5,162C 81.4081,158.454 74.4081,154.954 67.5,151.5C 70.3646,151.945 72.8646,151.278 75,149.5C 75.3826,150.056 75.8826,150.389 76.5,150.5C 77.1499,150.804 77.8165,151.137 78.5,151.5C 79.1667,149.5 79.8333,147.5 80.5,145.5C 87.986,150.8 96.3194,153.967 105.5,155C 140.771,155.709 176.104,156.376 211.5,157C 217.381,158.607 222.714,161.274 227.5,165C 230.515,168.156 232.848,171.656 234.5,175.5 Z"/></g>
<g><path style="opacity:1" fill="#e7e7d8" d="M 69.5,138.5 C 78.4951,138.509 80.8285,142.509 76.5,150.5C 75.8826,150.389 75.3826,150.056 75,149.5C 72.8646,151.278 70.3646,151.945 67.5,151.5C 61.1667,151.5 54.8333,151.5 48.5,151.5C 44.8333,151.5 41.1667,151.5 37.5,151.5C 34.2104,150.475 31.877,148.308 30.5,145C 31.6321,143.235 32.6321,141.402 33.5,139.5C 37.8333,139.5 42.1667,139.5 46.5,139.5C 46.336,145.929 49.5026,148.262 56,146.5C 62.5619,148.28 65.3952,145.947 64.5,139.5C 66.4147,139.784 68.0813,139.451 69.5,138.5 Z"/></g>
<g><path style="opacity:1" fill="#99998f" d="M 46.5,139.5 C 52.5,139.5 58.5,139.5 64.5,139.5C 65.3952,145.947 62.5619,148.28 56,146.5C 49.5026,148.262 46.336,145.929 46.5,139.5 Z"/></g>
<g><path style="opacity:1" fill="#f3f3e2" d="M 214.5,74.5 C 221.641,74.472 226.474,77.8053 229,84.5C 233.05,88.5987 235.716,93.5987 237,99.5C 240.999,119.484 235.832,136.318 221.5,150C 210.902,154.564 201.402,153.064 193,145.5C 189.995,141.003 186.828,136.669 183.5,132.5C 180.764,136.296 178.264,140.296 176,144.5C 164.876,154.697 153.543,155.03 142,145.5C 138.274,140.772 134.941,135.772 132,130.5C 128.965,137.192 124.798,143.026 119.5,148C 102.406,154.782 90.7394,149.616 84.5,132.5C 86.5,134.167 88.5,135.833 90.5,137.5C 91.5434,140.056 93.2101,142.223 95.5,144C 103.219,147.143 110.886,147.143 118.5,144C 124.565,136.296 128.231,127.463 129.5,117.5C 131.54,122.582 133.873,127.582 136.5,132.5C 141.389,144.547 150.389,149.381 163.5,147C 166.102,146.023 168.602,144.856 171,143.5C 173.092,140.319 175.425,137.319 178,134.5C 179.562,130.815 181.062,127.149 182.5,123.5C 184.417,126.331 186.083,129.331 187.5,132.5C 188.513,135.689 190.18,138.523 192.5,141C 203.762,149.797 214.929,149.63 226,140.5C 234.859,126.911 236.859,112.244 232,96.5C 230.791,92.7244 228.624,89.7244 225.5,87.5C 224.652,84.1125 222.652,81.7791 219.5,80.5C 217.833,78.5 216.167,76.5 214.5,74.5 Z"/></g>
<g><path style="opacity:1" fill="#c5c5b6" d="M 180.5,117.5 C 181.738,119.214 182.405,121.214 182.5,123.5C 181.062,127.149 179.562,130.815 178,134.5C 175.425,137.319 173.092,140.319 171,143.5C 168.602,144.856 166.102,146.023 163.5,147C 150.389,149.381 141.389,144.547 136.5,132.5C 144.401,141.414 153.401,142.748 163.5,136.5C 162.735,139.096 162.401,141.763 162.5,144.5C 164.989,144.702 167.323,144.202 169.5,143C 175.436,135.602 179.103,127.102 180.5,117.5 Z"/></g>
<g><path style="opacity:1" fill="#795403" d="M 37.5,157.5 C 38.1667,157.5 38.8333,157.5 39.5,157.5C 50.5,157.5 61.5,157.5 72.5,157.5C 72.5,158.5 72.5,159.5 72.5,160.5C 72.8226,164.226 72.4892,167.893 71.5,171.5C 70.3897,164.389 66.3897,160.389 59.5,159.5C 59.5,172.167 59.5,184.833 59.5,197.5C 61.8333,197.5 64.1667,197.5 66.5,197.5C 59.2395,199.465 51.5729,200.132 43.5,199.5C 44.9179,197.692 46.9179,197.025 49.5,197.5C 49.5,184.833 49.5,172.167 49.5,159.5C 46.495,159.253 43.995,160.253 42,162.5C 40.4725,165.417 39.1392,168.417 38,171.5C 37.5008,166.845 37.3342,162.179 37.5,157.5 Z"/></g>
<g><path style="opacity:1" fill="#e1e1e2" d="M 37.5,157.5 C 37.3342,162.179 37.5008,166.845 38,171.5C 39.1392,168.417 40.4725,165.417 42,162.5C 43.995,160.253 46.495,159.253 49.5,159.5C 49.5,172.167 49.5,184.833 49.5,197.5C 46.9179,197.025 44.9179,197.692 43.5,199.5C 40.0031,195.852 37.5031,191.519 36,186.5C 32.3461,176.498 32.8461,166.832 37.5,157.5 Z"/></g>
<g><path style="opacity:1" fill="#a97903" d="M 8.5,147.5 C 10.3464,151.868 11.5131,156.535 12,161.5C 12.3826,162.056 12.8826,162.389 13.5,162.5C 14.1491,166.951 15.3158,171.284 17,175.5C 20.3189,182.465 23.4855,189.465 26.5,196.5C 24.0712,196.415 22.0712,195.415 20.5,193.5C 19.8933,193.624 19.56,193.957 19.5,194.5C 15.8969,188.293 12.5636,181.96 9.5,175.5C 8.29668,171.89 7.29668,168.223 6.5,164.5C 7.24856,158.845 7.91523,153.178 8.5,147.5 Z"/></g>
<g><path style="opacity:1" fill="#7b560a" d="M 210.5,173.5 C 212.667,174.198 214.5,175.531 216,177.5C 216.5,184.158 216.666,190.825 216.5,197.5C 217.675,197.281 218.675,197.614 219.5,198.5C 215.217,199.492 210.884,199.826 206.5,199.5C 205.624,199.631 204.957,199.298 204.5,198.5C 205.325,197.614 206.325,197.281 207.5,197.5C 207.666,190.825 207.5,184.158 207,177.5C 203.117,175.995 200.45,177.329 199,181.5C 198.501,186.823 198.334,192.156 198.5,197.5C 199.978,197.238 201.311,197.571 202.5,198.5C 197.167,199.833 191.833,199.833 186.5,198.5C 187.689,197.571 189.022,197.238 190.5,197.5C 190.5,190.5 190.5,183.5 190.5,176.5C 189.022,176.762 187.689,176.429 186.5,175.5C 190.174,174.767 193.841,174.101 197.5,173.5C 198.298,175.078 198.798,176.744 199,178.5C 202.099,175.188 205.933,173.521 210.5,173.5 Z"/></g>
<g><path style="opacity:0.011" fill="#000013" d="M 247.5,174.5 C 250.84,188.003 251.006,201.67 248,215.5C 245.185,225.842 238.352,231.342 227.5,232C 218.88,233.252 210.213,233.752 201.5,233.5C 222.782,218.542 238.116,198.875 247.5,174.5 Z"/></g>
<g><path style="opacity:0.006" fill="#000014" d="M 9.5,175.5 C 12.5636,181.96 15.8969,188.293 19.5,194.5C 20.4746,196.795 21.8079,198.795 23.5,200.5C 32.1516,213.485 42.8183,224.485 55.5,233.5C 47.3658,233.244 39.3658,232.078 31.5,230C 25.457,227.432 21.6236,222.932 20,216.5C 18.7484,207.079 16.0817,198.079 12,189.5C 10.7139,184.904 9.88061,180.237 9.5,175.5 Z"/></g>
<g><path style="opacity:1" fill="#deab0a" d="M 13.5,162.5 C 17.6234,171.42 21.7901,180.42 26,189.5C 29.3525,195.351 33.8525,200.018 39.5,203.5C 42.4715,206.808 45.4715,210.141 48.5,213.5C 46.7615,212.566 45.0948,212.566 43.5,213.5C 49.9322,221.393 57.5988,227.893 66.5,233C 72.0534,235.608 77.3868,238.441 82.5,241.5C 68.2576,237.085 55.5909,229.918 44.5,220C 39.0137,212.014 32.347,205.18 24.5,199.5C 23.8933,199.624 23.56,199.957 23.5,200.5C 21.8079,198.795 20.4746,196.795 19.5,194.5C 19.56,193.957 19.8933,193.624 20.5,193.5C 22.0712,195.415 24.0712,196.415 26.5,196.5C 23.4855,189.465 20.3189,182.465 17,175.5C 15.3158,171.284 14.1491,166.951 13.5,162.5 Z"/></g>
<g><path style="opacity:1" fill="#e5e5e7" d="M 48.5,151.5 C 54.8333,151.5 61.1667,151.5 67.5,151.5C 74.4081,154.954 81.4081,158.454 88.5,162C 92.7232,163.472 97.0566,164.472 101.5,165C 119.167,165.481 136.834,165.981 154.5,166.5C 171.197,165.254 187.864,165.421 204.5,167C 218.094,168.763 225.761,176.263 227.5,189.5C 222.269,198.065 215.936,205.732 208.5,212.5C 208.44,211.957 208.107,211.624 207.5,211.5C 205.118,213.071 202.451,213.904 199.5,214C 155.798,215.126 112.132,214.46 68.5,212C 59.8144,211.884 52.1477,209.218 45.5,204C 44.7334,202.53 44.0668,201.03 43.5,199.5C 51.5729,200.132 59.2395,199.465 66.5,197.5C 76.629,200.211 86.9623,202.044 97.5,203C 122.364,203.181 147.197,203.681 172,204.5C 180.798,203.708 189.632,203.208 198.5,203C 201.599,202.613 204.266,201.446 206.5,199.5C 210.884,199.826 215.217,199.492 219.5,198.5C 218.675,197.614 217.675,197.281 216.5,197.5C 216.666,190.825 216.5,184.158 216,177.5C 214.5,175.531 212.667,174.198 210.5,173.5C 201.625,171.132 192.458,170.132 183,170.5C 155.832,171.538 128.665,171.371 101.5,170C 97.106,169.697 92.7727,169.03 88.5,168C 83.2724,165.272 77.9391,162.772 72.5,160.5C 72.5,159.5 72.5,158.5 72.5,157.5C 61.5,157.5 50.5,157.5 39.5,157.5C 42.0177,154.744 45.0177,152.744 48.5,151.5 Z"/></g>
<g><path style="opacity:1" fill="#d4d3d4" d="M 72.5,160.5 C 77.9391,162.772 83.2724,165.272 88.5,168C 92.7727,169.03 97.106,169.697 101.5,170C 128.665,171.371 155.832,171.538 183,170.5C 192.458,170.132 201.625,171.132 210.5,173.5C 205.933,173.521 202.099,175.188 199,178.5C 198.798,176.744 198.298,175.078 197.5,173.5C 193.841,174.101 190.174,174.767 186.5,175.5C 187.689,176.429 189.022,176.762 190.5,176.5C 190.5,183.5 190.5,190.5 190.5,197.5C 189.022,197.238 187.689,197.571 186.5,198.5C 191.833,199.833 197.167,199.833 202.5,198.5C 201.311,197.571 199.978,197.238 198.5,197.5C 198.334,192.156 198.501,186.823 199,181.5C 200.45,177.329 203.117,175.995 207,177.5C 207.5,184.158 207.666,190.825 207.5,197.5C 206.325,197.281 205.325,197.614 204.5,198.5C 204.957,199.298 205.624,199.631 206.5,199.5C 204.266,201.446 201.599,202.613 198.5,203C 189.632,203.208 180.798,203.708 172,204.5C 147.197,203.681 122.364,203.181 97.5,203C 86.9623,202.044 76.629,200.211 66.5,197.5C 64.1667,197.5 61.8333,197.5 59.5,197.5C 59.5,184.833 59.5,172.167 59.5,159.5C 66.3897,160.389 70.3897,164.389 71.5,171.5C 72.4892,167.893 72.8226,164.226 72.5,160.5 Z"/></g>
<g><path style="opacity:1" fill="#7a5507" d="M 166.5,173.5 C 171.413,173.003 175.913,174.003 180,176.5C 180.333,182.833 180.667,189.167 181,195.5C 182.205,196.071 183.372,196.738 184.5,197.5C 180.374,201.639 176.541,201.306 173,196.5C 168.69,200.429 163.857,201.262 158.5,199C 155.833,195.667 155.833,192.333 158.5,189C 162.96,187.008 167.627,185.841 172.5,185.5C 172.784,182.223 172.451,179.057 171.5,176C 168.947,175.149 166.614,175.482 164.5,177C 167.467,180.425 166.634,182.591 162,183.5C 159.019,182.557 158.019,180.557 159,177.5C 161.255,175.501 163.755,174.168 166.5,173.5 Z"/></g>
<g><path style="opacity:1" fill="#c9c6c7" d="M 167.5,187.5 C 169.167,187.5 170.833,187.5 172.5,187.5C 172.663,189.857 172.497,192.19 172,194.5C 168.187,197.589 165.687,196.755 164.5,192C 164.557,189.791 165.557,188.291 167.5,187.5 Z"/></g>
<g><path style="opacity:1" fill="#7b560b" d="M 112.5,173.5 C 114.117,174.589 114.95,176.256 115,178.5C 120.92,171.872 126.754,171.872 132.5,178.5C 137.49,172.931 142.99,172.264 149,176.5C 149.5,183.492 149.666,190.492 149.5,197.5C 150.978,197.238 152.311,197.571 153.5,198.5C 148.167,199.833 142.833,199.833 137.5,198.5C 138.689,197.571 140.022,197.238 141.5,197.5C 141.666,190.825 141.5,184.158 141,177.5C 137.518,175.923 134.852,176.923 133,180.5C 132.501,186.157 132.334,191.824 132.5,197.5C 133.675,197.281 134.675,197.614 135.5,198.5C 130.5,199.833 125.5,199.833 120.5,198.5C 121.325,197.614 122.325,197.281 123.5,197.5C 123.666,190.825 123.5,184.158 123,177.5C 119.518,175.923 116.852,176.923 115,180.5C 114.501,186.157 114.334,191.824 114.5,197.5C 115.978,197.238 117.311,197.571 118.5,198.5C 113.167,199.833 107.833,199.833 102.5,198.5C 103.689,197.571 105.022,197.238 106.5,197.5C 106.5,190.5 106.5,183.5 106.5,176.5C 105.022,176.762 103.689,176.429 102.5,175.5C 105.977,174.833 109.311,174.166 112.5,173.5 Z"/></g>
<g><path style="opacity:1" fill="#7b570d" d="M 83.5,173.5 C 97.799,174.265 102.632,181.265 98,194.5C 91.2389,201.628 83.9056,202.294 76,196.5C 69.4914,185.574 71.9914,177.907 83.5,173.5 Z"/></g>
<g><path style="opacity:1" fill="#d0d0d2" d="M 83.5,175.5 C 85.7925,175.244 87.9592,175.577 90,176.5C 90.6667,183.167 90.6667,189.833 90,196.5C 87.6025,199.054 85.2691,199.054 83,196.5C 82.2055,189.42 82.3722,182.42 83.5,175.5 Z"/></g>
<g><path style="opacity:1" fill="#f4f4f4" d="M 37.5,151.5 C 41.1667,151.5 44.8333,151.5 48.5,151.5C 45.0177,152.744 42.0177,154.744 39.5,157.5C 38.8333,157.5 38.1667,157.5 37.5,157.5C 32.8461,166.832 32.3461,176.498 36,186.5C 37.5031,191.519 40.0031,195.852 43.5,199.5C 44.0668,201.03 44.7334,202.53 45.5,204C 52.1477,209.218 59.8144,211.884 68.5,212C 112.132,214.46 155.798,215.126 199.5,214C 202.451,213.904 205.118,213.071 207.5,211.5C 208.107,211.624 208.44,211.957 208.5,212.5C 204.167,216.5 199.833,220.5 195.5,224.5C 194.833,224.5 194.167,224.5 193.5,224.5C 150.008,224.574 106.675,224.574 63.5,224.5C 58.2192,221.22 53.2192,217.553 48.5,213.5C 45.4715,210.141 42.4715,206.808 39.5,203.5C 32.5471,194.595 26.8804,184.929 22.5,174.5C 20.6317,163.941 23.4651,154.941 31,147.5C 31.9431,150.109 33.6097,152.109 36,153.5C 36.7172,152.956 37.2172,152.289 37.5,151.5 Z"/></g>
<g><path style="opacity:0.987" fill="#996d02" d="M 254.5,111.5 C 254.833,111.5 255.167,111.5 255.5,111.5C 255.5,122.833 255.5,134.167 255.5,145.5C 253.634,155.287 250.967,164.954 247.5,174.5C 238.116,198.875 222.782,218.542 201.5,233.5C 187.797,242.85 172.797,249.183 156.5,252.5C 157.9,251.9 158.9,250.9 159.5,249.5C 213.045,232.291 244.378,195.957 253.5,140.5C 254.498,130.856 254.832,121.19 254.5,111.5 Z"/></g>
<g><path style="opacity:1" fill="#fbeb11" d="M 230.5,52.5 C 243.725,69.9614 251.725,89.628 254.5,111.5C 254.832,121.19 254.498,130.856 253.5,140.5C 244.378,195.957 213.045,232.291 159.5,249.5C 141.339,253.45 123.005,254.45 104.5,252.5C 97.578,250.931 90.578,249.264 83.5,247.5C 73.6044,243.886 64.271,239.219 55.5,233.5C 42.8183,224.485 32.1516,213.485 23.5,200.5C 23.56,199.957 23.8933,199.624 24.5,199.5C 32.347,205.18 39.0137,212.014 44.5,220C 55.5909,229.918 68.2576,237.085 82.5,241.5C 119.352,255.642 155.018,253.142 189.5,234C 194.256,231.301 198.589,228.134 202.5,224.5C 205.268,222.913 207.935,221.08 210.5,219C 239.457,190.641 252.791,156.141 250.5,115.5C 250.537,109.055 249.704,102.722 248,96.5C 244.254,88.4453 241.254,80.112 239,71.5C 238.051,69.9069 236.885,68.5736 235.5,67.5C 235.5,67.1667 235.5,66.8333 235.5,66.5C 234.191,62.549 232.358,58.8824 230,55.5C 229.26,54.2506 229.427,53.2506 230.5,52.5 Z"/></g>
<g><path style="opacity:1" fill="#ab7c09" d="M 48.5,213.5 C 53.2192,217.553 58.2192,221.22 63.5,224.5C 96.1103,246.092 131.11,250.592 168.5,238C 177.502,234.503 185.835,230.003 193.5,224.5C 194.167,224.5 194.833,224.5 195.5,224.5C 197.792,225.686 200.126,225.686 202.5,224.5C 198.589,228.134 194.256,231.301 189.5,234C 155.018,253.142 119.352,255.642 82.5,241.5C 77.3868,238.441 72.0534,235.608 66.5,233C 57.5988,227.893 49.9322,221.393 43.5,213.5C 45.0948,212.566 46.7615,212.566 48.5,213.5 Z"/></g>
<g><path style="opacity:0.999" fill="#fdfcfb" d="M 193.5,224.5 C 185.835,230.003 177.502,234.503 168.5,238C 131.11,250.592 96.1103,246.092 63.5,224.5C 106.675,224.574 150.008,224.574 193.5,224.5 Z"/></g>
<g><path style="opacity:0.812" fill="#ebb80b" d="M 83.5,247.5 C 90.578,249.264 97.578,250.931 104.5,252.5C 103.167,252.5 101.833,252.5 100.5,252.5C 94.4482,251.813 88.7815,250.146 83.5,247.5 Z"/></g>
<g><path style="opacity:0.987" fill="#bb8904" d="M 159.5,249.5 C 158.9,250.9 157.9,251.9 156.5,252.5C 152.858,253.607 149.191,254.607 145.5,255.5C 134.167,255.5 122.833,255.5 111.5,255.5C 107.809,254.607 104.142,253.607 100.5,252.5C 101.833,252.5 103.167,252.5 104.5,252.5C 123.005,254.45 141.339,253.45 159.5,249.5 Z"/></g>
</svg>
