<?xml version="1.0"?><svg xmlns="http://www.w3.org/2000/svg" width="36" height="36" shape-rendering="geometricPrecision" text-rendering="geometricPrecision" image-rendering="optimizeQuality" fill-rule="evenodd" clip-rule="evenodd" viewBox="0 0 36 36"><path fill="#010101" d="m-0.2-0.2h36v27.7h-0.3c-5-8.8-10-17.5-15.2-26.2-0.1-0.3-0.2-0.6-0.5-0.8-6.7 11.5-13.3 22.9-20 34.2v-34.9z"></path><path fill="#fbfbfb" d="m20.3 1.3c5.2 8.7 10.2 17.4 15.2 26.2-2.5 0.4-5 0.5-7.6 0.4-2.7-4.4-5.4-8.8-7.9-13.3-0.2-2-0.4-4.1-0.4-6.1-0.1-2.5 0.2-4.9 0.7-7.2z"></path><path fill="#d7d7d7" d="m20.3 1.3c-0.5 2.3-0.8 4.7-0.7 7.2 0 2 0.2 4.1 0.4 6.1-3.1 4.5-5.8 9.2-8.3 14-0.8 1.1-1.5 2.2-2.2 3.4 3.2-1.4 6.3-3.1 9.4-5-1.1-0.2-2.2-0.2-3.2-0.2 1.3-0.3 2.8-0.5 4.3-0.3 0.1 0.6 0 1.2-0.4 1.8-3.8 2.3-7.6 4.5-11.5 6.6-2.8 0.2-5.5 0.3-8.3 0.2v-0.4c6.7-11.3 13.3-22.7 20-34.2 0.3 0.2 0.4 0.5 0.5 0.8z"></path><path fill="#020202" d="m20 14.6c2.5 4.5 5.2 8.9 7.9 13.3 2.6 0.4 5.2 0.5 7.9 0.4v7.5h-36v-0.7c2.8 0.1 5.5 0 8.3-0.2 3.9-2.1 7.7-4.3 11.5-6.6 0.4-0.6 0.5-1.2 0.4-1.8-1.5-0.2-3 0-4.3 0.3-1.4 0.5-2.7 1.1-4 1.8 2.5-4.8 5.2-9.5 8.3-14z"></path><path fill="#f9f9f9" d="m15.7 26.8c1 0 2.1 0 3.2 0.2-3.1 1.9-6.2 3.6-9.4 5 0.7-1.2 1.4-2.3 2.2-3.4 1.3-0.7 2.6-1.3 4-1.8z"></path><path fill="#acacac" d="m35.5 27.5h0.3v0.8c-2.7 0.1-5.3 0-7.9-0.4 2.6 0.1 5.1 0 7.6-0.4z"></path></svg>