<?xml version="1.0"?><svg xmlns="http://www.w3.org/2000/svg" width="36" height="36" shape-rendering="geometricPrecision" text-rendering="geometricPrecision" image-rendering="optimizeQuality" fill-rule="evenodd" clip-rule="evenodd" viewBox="0 0 36 36"><path fill="#fefcd7" d="m27.1 2.9c-0.3-0.1-0.6-0.3-0.9-0.4-5.4-2.7-10.8-2.8-16.2-0.2-0.1 0-0.2 0-0.2-0.1 0.7-0.4 1.4-0.7 2.1-0.9 4.9-1.8 9.7-1.4 14.4 1 0.3 0.1 0.5 0.3 0.8 0.6z"></path><path fill="#fbf774" d="m16.3-0.1h3.1c3.2 0.3 6.2 1.4 8.8 3.3 0 0.1-0.1 0.1-0.1 0.1-0.4-0.2-0.7-0.3-1-0.4-0.3-0.3-0.5-0.5-0.8-0.6-4.7-2.4-9.5-2.8-14.4-1-0.2-0.1-0.3-0.1-0.5-0.1 1.6-0.6 3.2-1 4.9-1.3z"></path><path fill="#fdfa46" d="m26.2 2.5c-0.5 0.2-0.9 0.1-1.1-0.3 0 0.1-0.1 0.2-0.2 0.2-0.1-0.2-0.3-0.2-0.5-0.1-0.1-0.2-0.4-0.3-0.6-0.3 0.1-0.1 0.1-0.2-0.1-0.3-0.3-0.1-0.5-0.1-0.7 0-0.3-0.1-0.6-0.2-0.8-0.3l-0.2 0.2c-0.1-0.1-0.3-0.2-0.4-0.4-0.3 0-0.6 0-0.9 0.1l-0.1-0.3c-0.4 0-0.7 0-1 0l-0.1 0.2c-0.5-0.2-1.1-0.3-1.6-0.1-0.2-0.1-0.3-0.2-0.5-0.3l-1.2 0.3c-0.2-0.1-0.3-0.1-0.4-0.1-0.3 0.1-0.5 0.2-0.7 0.3-0.1-0.1-0.1-0.2-0.3-0.2-0.1 0.3-0.4 0.4-0.9 0.2-0.9 0.3-1.8 0.6-2.8 1-0.1 0-0.3-0.1-0.5-0.1-0.4 0.3-0.9 0.6-1.3 1l-0.1-0.1c-0.2 0.3-0.6 0.5-0.9 0.6-0.2 0.1-0.4 0.3-0.6 0.6-0.5 0-0.9 0.3-1.3 0.7-0.1 0.1 0 0.2 0.1 0.3-0.4 0.1-0.7 0.3-1 0.4 1.3-1.4 2.8-2.5 4.5-3.4 5.4-2.6 10.8-2.5 16.2 0.2z"></path><path fill="#fcf760" d="m11.4 1.2c0.2 0 0.3 0 0.5 0.1-0.7 0.2-1.4 0.5-2.1 0.9-0.8 0.5-1.7 1-2.5 1.6-0.7 0.5-1.4 1.1-2.1 1.7l0.9-1.1c1.6-1.4 3.3-2.5 5.3-3.2z"></path><path fill="#fdf146" d="m26.2 2.5c0.3 0.1 0.6 0.3 0.9 0.4 0.3 0.4 0.8 0.7 1.3 0.9 0.6 0.5 1.1 1 1.7 1.5 0.5 0.6 1 1.1 1.5 1.7 0 0.1 0.1 0.1 0.2 0-0.3-0.6-0.3-0.7 0.2-0.2l0.9 1c0.3 0.4 0.4 0.7 0.6 1.1 0 0.2 0 0.2 0.1 0.3l-0.2 0.2c0.5 0.9 0.9 1.7 1 2.7-0.5-1.3-1.1-2.5-1.8-3.5-0.2 0.1-0.3 0.1-0.5 0.1 0-0.1 0-0.2-0.1-0.3l-0.7-0.4c-0.1 0.3-0.2 0.3-0.3 0-0.1 0.3-0.2 0.6-0.2 0.8-0.2-0.1-0.3-0.3-0.4-0.5-0.1 0-0.1 0.1-0.2 0.1-0.1-0.2-0.2-0.5-0.3-0.7 0 0.1-0.1 0.2-0.1 0.2-0.2-0.2-0.5-0.5-0.7-0.6-0.4 0-0.6-0.2-0.6-0.6-0.1 0-0.1-0.1-0.2-0.1-0.1-0.3-0.2-0.6-0.5-0.8-0.5-0.1-0.9-0.4-1.2-0.9 0.3-0.5 0.2-0.6-0.3-0.5l-0.1-0.9c0-0.2-0.2-0.3-0.4-0.4l0.1-0.1c-0.3-0.1-0.6-0.1-0.8-0.1l-0.1 0.3c0-0.2-0.1-0.3-0.2-0.4-0.1 0-0.1 0.1 0 0.2 0 0.2-0.1 0.3-0.2 0.4 0.1 0.2 0.2 0.2 0.3-0.1 0 0.2 0.1 0.3 0.2 0.4 0 0.1-0.1 0.2-0.2 0.3-0.6-0.2-1.2-0.5-1.8-0.9-0.9-0.1-1.8-0.3-2.7-0.6-0.1 0-0.2 0.1-0.3 0.1-1.2-0.1-2.5-0.3-3.7-0.4-0.3 0.1-0.7 0.3-1 0.4-0.1 0-0.2 0-0.3-0.1-0.1 0.2-0.2 0.3-0.3 0.3-0.3 0-0.5 0.1-0.8 0.2-0.1 0-0.1-0.1-0.2-0.1-0.2 0.1-0.4 0.2-0.7 0.2 0.2 0.1 0.2 0.2 0 0.3-0.7 0.3-1.4 0.5-2.1 0.6-0.2 0.3-0.5 0.4-0.8 0.3 0 0.3-0.1 0.3-0.2 0.1l0.1-0.1c-0.1-0.2-0.2-0.4-0.2-0.5-0.1 0.1-0.1 0.1-0.2 0-0.6 0.3-1.2 0.6-1.9 0.8-0.7 0.7-1.4 1.2-2.2 1.8-0.1-0.2-0.1-0.2-0.3-0.1-0.4 0.5-0.8 1-1.3 1.5 0.1 0 0.1 0.1 0.1 0.1-0.2 0.2-0.4 0.3-0.6 0.4 0.2 0.1 0.2 0.2 0.1 0.3-0.5 0.3-0.9 0.7-1.1 1.2l-0.1-0.2c0.4-0.7 0.8-1.4 1.3-2.1 0.1 0.1 0.2 0.1 0.3 0 0.3-0.4 0.6-0.9 0.9-1.3 0.1 0 0.1-0.1 0-0.2-0.3 0.3-0.5 0.6-0.7 0.9-0.1-0.1-0.1-0.3-0.1-0.4 0.1-0.2 0.2-0.3 0.3-0.4l0.8-0.6c-0.1 0.4-0.1 0.5 0.3 0.2 0.3-0.1 0.6-0.3 1-0.4-0.1-0.1-0.2-0.2-0.1-0.3 0.4-0.4 0.8-0.7 1.3-0.7 0.2-0.3 0.4-0.5 0.6-0.6 0.3-0.1 0.7-0.3 0.9-0.6l0.1 0.1c0.4-0.4 0.9-0.7 1.3-1 0.2 0 0.4 0.1 0.5 0.1 1-0.4 1.9-0.7 2.8-1 0.5 0.2 0.8 0.1 0.9-0.2 0.2 0 0.2 0.1 0.3 0.2 0.2-0.1 0.4-0.2 0.6-0.3 0.2 0 0.3 0 0.5 0.1l1.2-0.3c0.2 0.1 0.3 0.2 0.5 0.3 0.5-0.2 1.1-0.1 1.6 0.1l0.1-0.2c0.3 0 0.6 0 1 0l0.1 0.3c0.3-0.1 0.6-0.1 0.9-0.1 0.1 0.2 0.3 0.3 0.4 0.4l0.2-0.2c0.2 0.1 0.5 0.2 0.8 0.3 0.2-0.1 0.4-0.1 0.7 0 0.2 0.1 0.2 0.2 0.1 0.3 0.2 0 0.5 0.1 0.6 0.3 0.2-0.1 0.4-0.1 0.5 0.1 0.1 0 0.2-0.1 0.2-0.2 0.2 0.4 0.6 0.5 1.1 0.3z"></path><path fill="#f8ea45" d="m28.3 6.6c-1-0.6-1.9-1.2-2.8-1.9-0.4-0.3-0.9-0.4-1.4-0.4 0-0.1-0.1-0.2-0.3-0.3-0.2-0.2-0.5-0.3-0.8-0.4 0.1-0.1 0.1-0.1 0-0.2-0.1 0.1-0.2 0.1-0.3 0.1-2.1-0.6-4.2-0.9-6.4-0.7-0.7 0.1-1.4 0.3-2 0.5-1 0.2-2 0.5-2.9 1-0.3 0.2-0.5 0.4-0.8 0.6-0.2 0.2-0.4 0.2-0.6 0.2h-0.3c-0.3 0.1-0.6 0.2-0.9 0.2-0.2 0.2-0.4 0.4-0.6 0.5l0.1 0.2c-0.4 0.1-0.7 0.3-1 0.6-0.1-0.2-0.2-0.4-0.1-0.6 0.1 0.1 0.2 0.1 0.3 0 0.1-0.1 0.1-0.2 0-0.3 0 0.3-0.1 0.3-0.2 0-0.1 0.1-0.3 0.2-0.4 0.3l-0.2-0.2c-0.1 0.1-0.4 0.3-0.6 0.6l-0.1-0.2c-0.1 0.3-0.3 0.4-0.5 0.4-0.4 0.5-0.8 1-1.3 1.4-0.1 0-0.1 0-0.1-0.1 0 0 0-0.1-0.1-0.1 0.5-0.5 0.9-1 1.3-1.5 0.2-0.1 0.2-0.1 0.3 0.1 0.8-0.6 1.5-1.1 2.2-1.8 0.7-0.2 1.3-0.5 1.9-0.8 0.1 0.1 0.1 0.1 0.2 0 0 0.1 0.1 0.3 0.2 0.5l-0.1 0.1c0.1 0.2 0.2 0.2 0.2-0.1 0.3 0.1 0.6 0 0.8-0.3 0.7-0.1 1.4-0.3 2.1-0.6 0.2-0.1 0.2-0.2 0-0.3 0.3 0 0.5-0.1 0.7-0.2 0.1 0 0.1 0.1 0.2 0.1 0.3-0.1 0.5-0.2 0.8-0.2 0.1 0 0.2-0.1 0.3-0.3 0.1 0.1 0.2 0.1 0.3 0.1 0.3-0.1 0.7-0.3 1-0.4 1.2 0.1 2.5 0.3 3.7 0.4 0.1 0 0.2-0.1 0.3-0.1 0.9 0.3 1.8 0.5 2.7 0.6 0.6 0.4 1.2 0.7 1.8 0.9 0.1-0.1 0.2-0.2 0.2-0.3-0.1-0.1-0.2-0.2-0.2-0.4-0.1 0.3-0.2 0.3-0.3 0.1 0.1-0.1 0.2-0.2 0.2-0.4-0.1-0.1-0.1-0.2 0-0.2 0.1 0.1 0.2 0.2 0.2 0.4l0.1-0.3c0.2 0 0.5 0 0.8 0.1l-0.1 0.1c0.2 0.1 0.4 0.2 0.4 0.4l0.1 0.9c0.5-0.1 0.6 0 0.3 0.5 0.3 0.5 0.7 0.8 1.2 0.9 0.3 0.2 0.4 0.5 0.5 0.8z"></path><path fill="#ddc133" d="m24.1 4.3c-0.8-0.2-1.6-0.5-2.3-0.8-0.9-0.2-1.7-0.3-2.5-0.4-0.1-0.1-0.3-0.2-0.5-0.2-1.4-0.1-2.7 0.1-4 0.5-0.5 0.1-1.1 0.2-1.6 0.3-0.5 0.3-1.1 0.5-1.8 0.6 0.9-0.5 1.9-0.8 2.9-1 0.6-0.2 1.3-0.4 2-0.5 2.2-0.2 4.3 0.1 6.4 0.7 0.1 0 0.2 0 0.3-0.1 0.1 0.1 0.1 0.1 0 0.2 0.3 0.1 0.6 0.2 0.9 0.4 0.1 0.1 0.2 0.2 0.2 0.3z"></path><path fill="#fcf784" d="m27.1 2.9c0.3 0.1 0.6 0.2 1 0.4 0 0 0.1 0 0.1-0.1 0.4 0.1 0.7 0.3 0.9 0.7-0.2-0.1-0.4-0.2-0.6-0.4-0.1 0.1-0.1 0.2-0.1 0.3-0.5-0.2-1-0.5-1.3-0.9z"></path><path fill="#bc8b1e" d="m19.3 3.1c0.8 0.1 1.6 0.2 2.5 0.4 0.7 0.3 1.5 0.6 2.3 0.8 0.7 0.5 1.3 0.8 2.1 1.1 0.5 0.4 1.1 0.9 1.6 1.2 0.6 0.7 1.2 1.3 1.8 1.9 0.3 0.6 0.7 1.1 1.1 1.7 0 0.1 0.1 0.3 0.1 0.4 0.4 1.3 0.9 2.4 1.3 3.6-0.1 0.2-0.1 0.5-0.1 0.7l-0.4-1.2c-0.4-1.8-1.2-3.3-2.4-4.6-0.1-0.3-0.2-0.5-0.5-0.6-0.2-0.4-0.6-0.8-1-1l-0.5-0.7c0 0 0.1 0 0.1-0.1-0.2-0.1-0.3-0.2-0.4-0.4-1.6-1.2-3.3-2-5.2-2.6-0.2-0.1-0.4 0-0.5 0.1l-0.2-0.2c-1.1-0.3-2.1-0.3-3.1-0.2-0.1-0.1-0.1-0.2-0.3-0.2-0.5 0.1-1 0.1-1.5 0.1 1.1-0.2 2.1-0.2 3.2-0.2z"></path><path fill="#fbeb4e" d="m20.2 3.8c1.4 0.2 2.7 0.6 4 1.2 1 0.6 2 1.2 3 1.8l0.5 0.7c0 0.2 0.2 0.4 0.4 0.6l-0.4 0.2c0-0.2 0-0.3 0-0.5-0.2 0-0.5-0.2-0.6-0.4-0.3 0-0.5 0.2-0.7 0.3-0.6-0.2-1.1-0.1-1.7 0.2-0.2 0-0.3-0.1-0.4-0.3l-0.1 0.1c-0.1-0.1-0.3-0.1-0.4-0.2-0.2 0-0.2-0.1 0-0.2-0.5-0.1-0.9-0.2-1.4-0.3 0 0.8-0.1 0.8-0.2 0-0.1 0-0.2 0-0.3 0 0.1-0.2 0-0.3-0.2-0.4-0.2 0.1-0.3 0.1-0.5 0 0 0.3-0.1 0.3-0.4 0-0.2 0.1-0.2 0.2-0.2 0.4-0.1 0-0.2 0-0.3 0-0.1 0-0.2 0.1-0.3 0.1l-0.7-0.7c-0.2 0-0.3 0-0.4 0-0.1 0.2-0.1 0.4-0.1 0.6-0.2 0.1-0.4 0.3-0.5 0.6l-0.1-0.7c-0.2 0-0.3 0-0.4 0.2-0.1-0.1-0.1-0.2 0-0.2-0.6-0.1-0.7-0.3-0.2-0.6-0.2-0.2-0.5-0.2-0.7 0.1-0.2-0.2-0.5-0.3-0.9-0.3-0.5 0.1-1 0.1-1.4 0.1-0.1 0-0.2-0.1-0.3-0.2l-0.4 0.1c-0.1 0-0.2-0.1-0.3-0.3 0.2 0 0.4-0.2 0.5-0.6 0.2 0.2 0.3 0.1 0.2-0.2-0.1 0.1-0.1 0.1-0.2 0.1-0.1-0.3-0.1-0.6 0.1-0.9 0 0.1 0.1 0.1 0.1 0.1 1.1-0.4 2.1-0.6 3.2-0.6 0.9 0 1.8 0.1 2.7 0.1z"></path><path fill="#fdfc9c" d="m9.8 2.2c0 0.1 0.1 0.1 0.2 0.1-1.7 0.9-3.2 2-4.5 3.4-0.4 0.3-0.4 0.2-0.3-0.2 0.7-0.6 1.4-1.2 2.1-1.7 0.8-0.6 1.7-1.1 2.5-1.6z"></path><path fill="#c99a25" d="m19.3 3.1c-1.1 0-2.1 0-3.2 0.2 0.5 0 1 0 1.5-0.1 0.2 0 0.2 0.1 0.3 0.2 1-0.1 2-0.1 3.1 0.2l0.1 0.2c0.2-0.1 0.4-0.2 0.6-0.1 1.9 0.6 3.6 1.4 5.2 2.6 0.1 0.2 0.2 0.3 0.4 0.5 0 0-0.1 0-0.1 0-1-0.6-2-1.2-3-1.8-1.3-0.6-2.6-1-4-1.2-0.2-0.1-0.5-0.2-0.8-0.2-2.1-0.2-4.2 0-6.2 0.7-0.6 0.2-1.1 0.5-1.7 0.8h-0.1c0-0.2 0.1-0.4 0.4-0.5 1-0.5 2-0.8 3-1 0.1-0.1 0.1-0.1 0-0.2 1.3-0.4 2.6-0.6 4-0.5 0.2 0 0.4 0.1 0.5 0.2z"></path><path fill="#fcf751" d="m29.1 3.9c0.6 0.3 1.1 0.8 1.6 1.3 0 0.2 0.1 0.4 0.3 0.5-0.1 0.1-0.2 0.1-0.2 0-0.7-0.8-1.5-1.4-2.4-1.9 0-0.1 0-0.2 0.1-0.3 0.2 0.2 0.4 0.3 0.6 0.4z"></path><path fill="#f9ef83" d="m6.1 4.4l-0.9 1.1-0.8 0.6c0.5-0.6 1.1-1.2 1.7-1.7z" opacity=".902"></path><path fill="#f9e545" d="m9.7 5.1c-0.5 0.4-1 0.8-1.5 1.1-0.5 0.6-1 1.2-1.5 1.7-0.1 0.1-0.1 0.1-0.1 0.3-0.2-0.1-0.3 0-0.5 0.1-0.1 0.1-0.3 0.1-0.5 0-0.2 0.3-0.4 0.7-0.6 1-0.1-0.3-0.1-0.6 0.1-0.9-0.1-0.2-0.1-0.4-0.1-0.7-0.1 0.1-0.1 0.2-0.2 0.3-0.5 0.4-1 0.8-1.4 1.3 0 0.4-0.2 0.6-0.5 0.7-0.2 0.3-0.4 0.5-0.8 0.6-0.2 0.6-0.5 1.2-0.7 1.8-0.2 0.6-0.4 1.2-0.6 1.8 0.1-1 0.4-1.9 0.8-2.8 0-0.1-0.1-0.2-0.1-0.3-0.2 0.5-0.4 0.9-0.7 1.3 0.7-2.2 1.8-4.2 3.3-5.9 0 0.1 0 0.3 0.1 0.4 0.2-0.3 0.4-0.6 0.8-0.9 0 0.1 0 0.2 0 0.2-0.4 0.4-0.7 0.9-1 1.3-0.1 0.1-0.2 0.1-0.3 0-0.5 0.7-0.9 1.4-1.3 2.1l0.1 0.2c0.2-0.5 0.6-0.9 1.1-1.2 0.1-0.1 0.1-0.2-0.1-0.3 0.2-0.1 0.4-0.2 0.6-0.4 0 0.1 0 0.1 0.1 0.1 0.5-0.4 0.9-0.9 1.3-1.4 0.2 0 0.4-0.1 0.5-0.4l0.1 0.2c0.2-0.3 0.5-0.5 0.7-0.6l0.1 0.2c0.1-0.1 0.3-0.2 0.4-0.3 0.1 0.3 0.2 0.3 0.2 0 0.1 0.1 0.1 0.2 0 0.3-0.1 0.1-0.2 0.1-0.3 0-0.1 0.2 0 0.4 0.1 0.6 0.3-0.3 0.6-0.5 1-0.6l-0.1-0.2c0.2-0.1 0.4-0.3 0.6-0.5 0.3 0 0.6-0.1 0.9-0.2z"></path><path fill="#fcfa6e" d="m28.4 3.8c0.9 0.5 1.7 1.1 2.4 1.9 0 0.1 0.1 0.1 0.2 0-0.2-0.1-0.3-0.3-0.3-0.5 0.5 0.5 1 1 1.3 1.6-0.5-0.5-0.5-0.4-0.2 0.2-0.1 0.1-0.2 0.1-0.2 0-0.5-0.6-1-1.1-1.5-1.7-0.6-0.5-1.1-1-1.7-1.5z"></path><path fill="#dcc032" d="m9.7 5.1h0.3c-1.1 1-2.2 1.9-3.3 2.8 0.5-0.5 1-1.1 1.5-1.7 0.5-0.3 1-0.7 1.5-1.1z"></path><path fill="#f9e24e" d="m20.2 3.8c-0.9 0-1.8-0.1-2.6-0.1-1.2 0-2.2 0.2-3.3 0.6 0 0-0.1 0-0.1-0.1-0.2 0.3-0.2 0.6-0.1 0.9 0.1 0 0.1 0 0.2-0.1 0.1 0.3 0 0.4-0.2 0.2-0.1 0.4-0.3 0.6-0.5 0.7 0.1 0.1 0.2 0.2 0.4 0.2l0.3-0.1c0.1 0.1 0.2 0.2 0.3 0.2 0.4 0 0.9 0 1.4-0.1 0.4 0 0.7 0.1 0.9 0.3 0.2-0.3 0.5-0.3 0.7-0.1-0.5 0.3-0.4 0.5 0.2 0.6-0.1 0-0.1 0.1 0 0.2 0.1-0.2 0.2-0.2 0.4-0.2l0.1 0.7c0.1-0.3 0.3-0.5 0.5-0.6 0-0.2 0-0.4 0.1-0.6 0.1 0 0.2 0 0.4 0l0.7 0.7c0.1 0 0.2-0.1 0.3-0.1 0 0.1 0 0.2-0.1 0.2 0.2 0.2 0.3 0.4 0.4 0.7l0.1-0.1c0.4 0.1 0.7 0.3 1.1 0.5 0.1-0.3 0.3-0.3 0.5 0l0.1-0.3c0.2 0.2 0.4 0.3 0.7 0.3v0.6c0.3 0 0.5 0 0.7 0.2-0.1 0.1-0.1 0.2 0 0.2l-0.2 0.2c0.1 0 0.3 0.1 0.4 0.2l0.3-0.1c0.1 0.3 0.1 0.5 0.2 0.8 0.2 0.3 0.4 0.4 0.6 0.5 0 0.3-0.1 0.7-0.1 1.2 0 0.1-0.1 0.1-0.1 0-0.2 0.2-0.2 0.3 0 0.4-0.1 0-0.1 0.1-0.2 0.2 0.2 0.1 0.5 0.3 0.7 0.6-0.2 0.1-0.2 0.2 0 0.4 0.4 0 0.7 0.1 1 0.3 0.3 0.3 0.2 0.6 0 0.8-0.7 0-1.3 0-2 0-0.3-0.1-0.5-0.3-0.8-0.5 0 0.1-0.1 0.1-0.1 0.2-0.2-0.2-0.4-0.3-0.6-0.4-0.1-0.1-0.1-0.2-0.1-0.3-0.5-0.2-0.9-0.3-1.3-0.4-0.3 0.2-0.5 0.2-0.8 0-0.2 0.2-0.5 0.3-0.7 0.3-0.2-0.5-0.3-1.1-0.3-1.6-0.3 0.3-0.7 0.5-1 0.7-0.4-0.1-0.7-0.2-1-0.5-0.3 0.2-0.6 0.3-0.9 0.2-0.1-0.1-0.3-0.2-0.4-0.3-0.1 0.2-0.3 0.3-0.5 0.4-0.4 0-0.8 0-1.2 0.1 0-0.1 0-0.2 0.1-0.2 0.4 0 0.8-0.1 1.2-0.2 0.3-0.4 0.3-0.8 0-1.3 0-0.1 0.1-0.2 0.1-0.4 0.2-0.6 0-1-0.6-1.2-0.1-0.2 0-0.3 0.1-0.4l-1.3-0.1-0.8-0.9c-0.1 0.3-0.1 0.3-0.2 0l-0.1 0.3c-0.1-0.2-0.1-0.4 0-0.5-0.2 0-0.4 0-0.6-0.1-0.1 0.3-0.2 0.2-0.2-0.1-0.4 0-0.8 0-1.1 0l-0.3 0.2c-0.2-0.1-0.4-0.1-0.7-0.1 0.4-0.4 0.4-0.8 0.2-1.2 0.1-0.2 0.3-0.2 0.5 0 0.1-0.2 0.2-0.4 0.3-0.5-0.1-0.2-0.1-0.4-0.1-0.7 0.2 0.1 0.3 0 0.3-0.2 0.6-0.3 1.1-0.6 1.7-0.8 2-0.7 4.1-0.9 6.2-0.7 0.3 0 0.6 0.1 0.8 0.2z"></path><path fill="#dec032" d="m24.1 4.3c0.5 0 1 0.1 1.4 0.4 0.9 0.7 1.8 1.3 2.8 1.9 0.1 0 0.1 0.1 0.2 0.1 0 0.4 0.2 0.6 0.6 0.6 0 0.1 0 0.2 0 0.3 1.2 1.1 2.1 2.4 2.6 3.9l0.1-0.1c0.3 0.2 0.3 0.5 0.3 0.8 0.1 0.3 0.2 0.5 0.2 0.8-0.3-0.6-0.6-1.1-1-1.7 0-0.5-0.2-0.9-0.6-1.1-0.4-0.6-0.8-1.1-1.1-1.7-0.6-0.6-1.2-1.2-1.8-1.9-0.5-0.3-1.1-0.8-1.6-1.2-0.8-0.3-1.4-0.6-2.1-1.1z"></path><path fill="#c39222" d="m14.8 3.4c0.1 0.1 0.1 0.1 0 0.2-1 0.2-2 0.5-3 1-0.3 0.1-0.4 0.3-0.4 0.5-2.1 1-3.7 2.5-5 4.4-0.8 0.9-1.4 2-1.8 3.2-0.8 1.7-1.1 3.5-0.9 5.4-0.1 1 0 2 0.2 3-0.2-0.1-0.3-0.2-0.3-0.5-0.4-2.3-0.3-4.7 0.4-7 0-0.1-0.1-0.1-0.1-0.2 0.2-0.9 0.6-1.8 1.1-2.6-0.1-0.1-0.1-0.2 0-0.3 0.4-0.8 1-1.6 1.6-2.3 0-0.2 0-0.2 0.1-0.3 1.1-0.9 2.2-1.8 3.3-2.8 0.2 0 0.4 0 0.6-0.1 0.3-0.3 0.5-0.5 0.8-0.7 0.7-0.1 1.3-0.3 1.8-0.6 0.5-0.1 1.1-0.2 1.6-0.3z"></path><path fill="#f7dc3b" d="m6.1 8.3c-0.2 0.3-0.5 0.6-0.8 1-0.4 1-0.9 1.9-1.4 2.9 0 0.1-0.1 0.2-0.2 0.2 0.1-0.1 0.1-0.3 0-0.4 0.3-0.2 0.2-0.4-0.2-0.7 0.1-0.3 0.3-0.6 0.5-0.8-0.1-0.2-0.3-0.4-0.5-0.5-0.1 0.1-0.1 0.2 0 0.2-0.2 0.1-0.3 0.3-0.2 0.5-0.1 0.1-0.2 0-0.3-0.1-0.6 0.6-1 1.3-1.3 2.1-0.1-0.2-0.2-0.3-0.3-0.3 0.2-0.6 0.5-1.2 0.7-1.8 0.4-0.1 0.6-0.3 0.8-0.6 0.3-0.1 0.5-0.3 0.5-0.7 0.4-0.5 0.9-0.9 1.4-1.3 0.1-0.1 0.1-0.2 0.2-0.3 0 0.3 0 0.5 0.1 0.7-0.2 0.3-0.2 0.6-0.1 0.9 0.2-0.3 0.4-0.7 0.6-1 0.2 0.1 0.4 0.1 0.5 0z"></path><path fill="#eae3bf" d="m32.9 7.7c0.2 0.1 0.2 0.1 0 0z" opacity=".075"></path><path fill="#f9e347" d="m27.7 7.5c0.4 0.2 0.8 0.6 1 1 0.2 0.5 0 0.7-0.5 0.7-0.1 0.3-0.2 0.4-0.3 0.1-0.2 0.1-0.3 0.3-0.5 0.4-0.2 0.1-0.4 0-0.6-0.2-0.3 0.1-0.4 0.2-0.1 0.3l-0.2 0.1c0.1 0.1 0.1 0.2 0 0.3-0.2-0.3-0.3-0.4-0.5-0.5-0.1 0.2-0.2 0.4-0.4 0.5 0 0.2 0 0.4 0 0.5-0.2 0-0.3 0.1-0.5 0.2-0.2-0.1-0.4-0.2-0.6-0.5-0.1-0.3-0.1-0.5-0.2-0.8l-0.3 0.1c-0.1-0.1-0.3-0.2-0.4-0.2l0.2-0.2c-0.1 0-0.1-0.1 0-0.2-0.2-0.2-0.4-0.2-0.7-0.2v-0.6c-0.3 0-0.5-0.1-0.7-0.3l-0.1 0.3c-0.2-0.3-0.4-0.3-0.5 0-0.4-0.2-0.7-0.4-1.1-0.5l-0.1 0.1c-0.1-0.3-0.2-0.5-0.4-0.7 0.1 0 0.1-0.1 0.1-0.2 0.1 0 0.2 0 0.3 0 0-0.2 0-0.3 0.2-0.4 0.3 0.3 0.4 0.3 0.4 0 0.2 0.1 0.3 0.1 0.5 0 0.2 0.1 0.3 0.2 0.2 0.4 0.1 0 0.2 0 0.3 0 0.1 0.8 0.2 0.8 0.2 0 0.5 0.1 0.9 0.2 1.4 0.3-0.2 0.1-0.2 0.2 0 0.2 0.1 0.1 0.3 0.1 0.4 0.2l0.1-0.1c0.1 0.2 0.2 0.3 0.4 0.3 0.6-0.3 1.1-0.4 1.7-0.2 0.2-0.1 0.4-0.3 0.7-0.3 0.1 0.2 0.4 0.4 0.6 0.4 0 0.2 0 0.3 0 0.5l0.4-0.2c-0.2-0.2-0.4-0.4-0.4-0.6z"></path><path fill="#f8e157" d="m11.4 5.1h0.1c0 0.2-0.1 0.3-0.3 0.2 0 0.3 0 0.5 0.1 0.7-0.1 0.1-0.2 0.3-0.3 0.5-0.2-0.2-0.4-0.2-0.5 0 0.2 0.4 0.2 0.8-0.2 1.2 0.3 0 0.5 0 0.7 0.1l0.3-0.2c0.3 0 0.7 0 1.1 0 0 0.3 0.1 0.4 0.2 0.1 0.2 0.1 0.4 0.1 0.6 0.1-0.1 0.1-0.1 0.3 0 0.5l0.1-0.3c0.1 0.3 0.1 0.3 0.2 0l0.8 0.9 1.3 0.1c-0.1 0.1-0.2 0.2-0.1 0.4 0.6 0.2 0.8 0.6 0.6 1.2-0.1-0.7-0.4-0.8-1-0.4-0.1-0.1-0.2-0.1-0.2-0.2-0.6 0.1-1 0.4-1.3 1.1-0.1-0.1-0.2-0.1-0.3 0 0.1 0.2 0.2 0.3 0.4 0.4-0.2 0.2-0.3 0.4-0.4 0.6-0.3-0.1-0.6-0.3-0.8-0.7-0.2 0.1-0.3 0.2-0.3 0.4-0.1-0.2-0.2-0.3-0.3-0.3 0.1-0.2 0.1-0.4 0-0.6-0.2 0-0.2 0.1 0 0.2-0.4 0.4-0.4 0.3-0.3-0.2-0.3-0.1-0.4-0.3-0.2-0.5 0-0.2-0.1-0.3-0.1-0.3-0.2 0-0.3 0-0.4 0.1-0.2-0.3-0.3-0.3-0.3 0-0.2-0.3-0.3-0.3-0.5 0-0.2-0.4-0.6-0.4-1 0 0 0.2-0.1 0.4 0 0.5h-0.4c0-0.1 0-0.2 0-0.3-0.1 0.2-0.2 0.2-0.3 0 0 0.2-0.1 0.2-0.2 0.1 0 0.2-0.1 0.2-0.3 0.3l0.1 0.1c-0.1 0.2-0.3 0.3-0.5 0.4l0.2 0.1c-0.2 0-0.3 0.2-0.4 0.4-0.1-0.3-0.1-0.3-0.2 0 0.1 0.2 0.1 0.3 0.3 0.4-0.1 0.1-0.2 0.1-0.3 0-0.1 0.1-0.1 0.2 0 0.3-0.1 0.2-0.3 0.2-0.3-0.1l-0.2 0.3c0-0.2 0-0.4 0-0.5 0.2-0.3 0.3-0.5 0-0.8-0.1 0.1-0.2 0.1-0.2-0.1-0.1-0.1 0-0.3 0.1-0.4-0.2-0.2-0.4-0.2-0.5 0.1-0.1-0.1-0.2-0.2-0.3-0.2 0.1-0.1 0.3-0.1 0.4-0.3 0.1-0.3 0.2-0.6 0.3-1 1.3-1.9 2.9-3.4 5-4.4z"></path><path fill="#f8d937" d="m29.1 7.3c0.2 0.1 0.5 0.4 0.7 0.6 0 0 0.1-0.1 0.1-0.2 0.1 0.2 0.2 0.5 0.3 0.7 0.1 0 0.1-0.1 0.2-0.1 0.1 0.2 0.2 0.4 0.4 0.5 0-0.2 0.1-0.5 0.3-0.8 0 0.3 0.1 0.3 0.2 0l0.7 0.4c0.1 0.1 0.1 0.2 0.1 0.3 0.2 0 0.3 0 0.5-0.1 0.7 1 1.3 2.2 1.8 3.5-0.1-1-0.5-1.8-1-2.6l0.2-0.3c-0.1-0.1-0.1-0.1-0.1-0.3 0.5 0.7 0.8 1.5 1.1 2.3 0.2 0.8 0.4 1.6 0.8 2.4v0.5c-0.2 0.1-0.3 0.3-0.3 0.5-0.3-1-0.6-1.7-0.9-2.4-0.5-0.1-0.5-0.3-0.1-0.4-0.2-0.1-0.3-0.1-0.5 0-0.1-0.3-0.2-0.3-0.3 0h-0.4l-0.4 0.7c-0.1-0.1-0.2-0.2-0.4-0.3 0-0.3 0-0.6-0.3-0.8l-0.1 0.1c-0.5-1.5-1.4-2.8-2.6-3.9 0-0.1 0-0.2 0-0.3z"></path><path fill="#f7d83e" d="m28.7 8.5c0.3 0.1 0.4 0.3 0.5 0.6 0 0.2 0.1 0.4 0.3 0.6-0.1 0.1-0.1 0.1 0 0.3 0.3 0.4 0.7 1 1.2 1.5 0.1 0.1 0.1 0.3 0 0.5 0 0.1 0.1 0.1 0.2 0.2-0.2 0.1-0.5 0.2-0.7 0.3-0.1 0-0.1 0-0.2-0.1 0 0.2 0 0.3 0.2 0.3-0.2 0.2-0.3 0.4-0.3 0.6-0.3 0-0.5-0.2-0.6-0.6-0.2 0-0.4-0.1-0.6-0.2-0.5 0.2-1.1 0.2-1.8 0.2-0.1 0-0.3-0.1-0.3-0.3-0.3 0.3-0.4 0.3-0.4 0-0.1 0.1-0.2 0.2-0.2 0.3-0.1-0.2-0.3-0.4-0.4-0.6-0.2 0-0.4 0-0.6 0 0-0.5 0.1-0.9 0.1-1.2 0.2-0.1 0.3-0.2 0.5-0.2 0-0.1 0-0.3 0.1-0.5 0.1-0.1 0.2-0.3 0.3-0.5 0.2 0.1 0.3 0.2 0.5 0.5 0.1-0.1 0.1-0.2 0-0.3l0.2-0.1c-0.3-0.1-0.2-0.2 0.1-0.3 0.2 0.2 0.4 0.3 0.7 0.2 0.1-0.1 0.2-0.3 0.4-0.4 0.1 0.3 0.2 0.2 0.3-0.1 0.5 0 0.7-0.2 0.5-0.7z"></path><path fill="#f5d950" d="m6.4 9.5c-0.1 0.4-0.2 0.7-0.3 1-0.1 0.2-0.3 0.2-0.4 0.3 0.1 0 0.2 0.1 0.3 0.2 0.1-0.3 0.3-0.3 0.5-0.1-0.1 0.1-0.2 0.3-0.1 0.4 0 0.2 0.1 0.2 0.2 0.1 0.3 0.3 0.2 0.5 0 0.7 0 0.2 0 0.4 0 0.6l0.1-0.3c0.1 0.3 0.3 0.3 0.4 0.1-0.1-0.1-0.1-0.2 0-0.3 0.1 0.1 0.2 0.1 0.3-0.1-0.2 0-0.2-0.1-0.3-0.3 0.1-0.3 0.1-0.3 0.2 0 0.1-0.2 0.2-0.4 0.4-0.4l-0.2-0.2c0.2 0 0.4-0.1 0.5-0.3l-0.1-0.1c0.2-0.1 0.3-0.1 0.3-0.3 0.1 0.1 0.2 0.1 0.2-0.1 0.1 0.2 0.2 0.2 0.3 0 0 0.1 0 0.2 0 0.3h0.4c-0.1-0.1 0-0.3 0-0.5 0.4-0.4 0.8-0.4 1 0 0.2-0.3 0.3-0.3 0.5 0 0-0.3 0.1-0.3 0.3 0 0.1-0.1 0.2-0.1 0.3-0.1 0.1 0 0.2 0.1 0.2 0.2-0.2 0.3-0.1 0.5 0.2 0.6-0.1 0.5-0.1 0.6 0.3 0.2-0.2-0.1-0.2-0.2 0-0.2 0.1 0.2 0.1 0.4 0 0.6 0.1 0 0.2 0.1 0.2 0.3 0.1-0.2 0.2-0.3 0.4-0.4 0.2 0.4 0.5 0.6 0.8 0.7 0.1-0.2 0.2-0.4 0.4-0.6-0.2-0.1-0.3-0.2-0.4-0.4 0.1-0.1 0.2-0.1 0.3 0 0.3-0.7 0.7-1 1.2-1.1 0.1 0.1 0.2 0.1 0.3 0.2 0.6-0.4 0.9-0.3 1 0.4 0 0.2-0.1 0.3-0.1 0.4 0.3 0.5 0.3 0.9 0 1.3-0.4 0.1-0.8 0.2-1.2 0.2-0.1 0-0.1 0.1-0.1 0.2-0.1 0-0.3 0-0.4 0.1-0.1-0.2-0.2-0.2-0.4-0.3-0.3 0.2-0.6 0.4-0.9 0.5-0.4 0.1-0.8 0.1-1.2 0l-0.1 0.2c-0.2 0-0.3-0.1-0.5-0.1 0 0.3-0.2 0.4-0.5 0.3 0 0.3 0 0.4 0.2 0.6-0.4 0.4-0.9 0.7-1.3 0.9-0.2-0.1-0.4-0.1-0.5-0.1-0.6 0.2-1.1 0.4-1.5 0.7-0.3 0-0.7 0.1-1 0.2-0.2-0.1-0.3-0.2-0.5-0.4 0-0.3 0-0.6 0-1-0.2-0.1-0.2-0.2 0-0.2-0.2-0.3-0.1-0.6 0.3-0.8-0.2-0.3-0.3-0.5-0.4-0.8-0.2 0.2-0.3 0.2-0.5 0 0 0.4-0.2 0.5-0.4 0.2-0.3 0.1-0.5 0.4-0.5 0.6v-0.6c0.4-1.2 1-2.3 1.8-3.2z"></path><path fill="#f3db7c" d="m34.6 11.2c0.4 0.7 0.7 1.5 0.8 2.4-0.4-0.8-0.6-1.6-0.8-2.4z"></path><path fill="#fde047" d="m23.5 14.5c-0.4 0.1-0.7 0.1-1.1-0.1-0.1-0.4-0.2-0.4-0.2 0.1l-0.1-0.4c-0.2 0.1-0.3 0.1-0.4-0.1-0.4 0.1-0.9 0.1-1.3-0.1-0.3 0-0.5 0.2-0.7 0.4-0.1-0.1-0.2-0.1-0.3 0-0.3-0.2-0.5-0.3-0.8-0.4-0.2 0.1-0.3 0.2-0.4 0.3-0.1 0-0.2-0.1-0.2-0.2-0.2 0.1-0.4 0.3-0.6 0.5l-0.5-0.5c-0.5 0.2-1 0-1.5-0.3-0.3 0.3-0.7 0.4-1.1 0.5-0.2 0-0.4 0-0.5-0.2-0.1 0.1-0.2 0.1-0.2 0.2-0.5-0.1-1-0.3-1.5-0.5-0.4 0-0.7 0-1.1 0 0.1 0.2 0.1 0.3 0 0.4 0-0.1-0.1-0.1-0.1-0.1-0.2-0.2-0.2-0.3-0.2-0.6 0.3 0.1 0.5 0 0.6-0.3 0.1 0 0.2 0.1 0.4 0.1l0.1-0.2c0.4 0.1 0.8 0.1 1.2 0.1 0.3-0.2 0.6-0.4 0.9-0.6 0.2 0.1 0.3 0.1 0.4 0.3 0.1-0.1 0.3-0.1 0.4-0.1 0.4-0.1 0.8-0.1 1.2-0.1 0.2-0.1 0.4-0.2 0.5-0.4 0.1 0.1 0.3 0.2 0.4 0.3 0.3 0.1 0.6 0 0.9-0.2 0.3 0.3 0.6 0.4 1 0.5 0.3-0.2 0.7-0.4 1-0.7 0 0.5 0.1 1.1 0.3 1.6 0.2 0 0.5-0.1 0.7-0.3 0.3 0.2 0.5 0.2 0.8 0 0.4 0.1 0.8 0.2 1.3 0.4 0 0.1 0 0.2 0.1 0.3 0.2 0.1 0.4 0.2 0.6 0.4z"></path><path fill="#f4cf3a" d="m29.2 9.1c1.2 1.3 2 2.8 2.4 4.6-0.1 0.3-0.2 0.6-0.3 0.9l-0.1-0.1c-0.2 0.2-0.4 0.4-0.7 0.6 0.2 0.2 0.2 0.2 0 0.1-0.1 0.1-0.1 0.2-0.2 0.3-0.4-0.5-0.9-0.9-1.5-1.2-0.1-0.2-0.2-0.4-0.2-0.6-1.1-0.8-1.3-0.7-0.6 0.5 0 0.2 0 0.4 0.1 0.5-0.2 0.1-0.3 0.3-0.3 0.4-0.2-0.3-0.5-0.5-0.9-0.6-0.3 0.4-0.3 0.8 0 1.3 0.4 0.1 0.8 0.2 1.2 0.2h-5.9c-0.2-0.1-0.4-0.1-0.7-0.1l0.3-0.2c-0.1-0.1-0.2-0.2-0.1-0.3l0.1 0.1c0.3-0.3 0.6-0.4 1-0.6 0.3 0.3 0.5 0.3 0.8 0l0.3 0.3c0.7 0 1.3 0 1.9 0 0.2 0 0.5-0.1 0.7-0.2-0.1-0.1-0.1-0.1-0.1-0.2 0.2-0.2 0.3-0.5 0-0.8-0.3-0.2-0.6-0.3-1-0.3-0.2-0.2-0.2-0.3 0-0.4-0.2-0.3-0.5-0.5-0.7-0.6 0.1-0.1 0.1-0.2 0.2-0.2-0.2-0.1-0.2-0.2 0-0.4 0 0.1 0.1 0.1 0.1 0 0.2 0 0.4 0 0.6 0 0.1 0.2 0.3 0.4 0.4 0.6 0-0.1 0.1-0.2 0.2-0.3 0 0.3 0.1 0.3 0.4 0 0 0.2 0.2 0.3 0.3 0.3 0.7 0 1.3 0 1.8-0.2 0.2 0.1 0.4 0.2 0.6 0.2 0.1 0.4 0.3 0.6 0.6 0.6 0-0.2 0.1-0.4 0.3-0.6-0.2 0-0.2-0.1-0.2-0.3 0.1 0.1 0.1 0.1 0.2 0.1 0.2-0.1 0.5-0.2 0.7-0.4-0.1 0-0.2 0-0.2-0.1 0.1-0.2 0.1-0.4 0-0.5-0.5-0.5-0.9-1.1-1.2-1.5-0.1-0.2-0.1-0.2 0-0.3-0.2-0.2-0.3-0.4-0.3-0.6z"></path><path fill="#f4e084" d="m0.8 12.4c0 0.6-0.1 1.1-0.4 1.6 0-0.6 0.2-1.1 0.4-1.6z" opacity=".922"></path><path fill="#f7d332" d="m3.7 12.4c-0.2 0.3-0.5 0.6-0.7 0.9-0.2-0.2-0.3-0.5-0.4-0.8-0.3 0.2-0.3 0.4-0.2 0.6-0.2 0.1-0.3 0.2-0.5 0.3-0.2 0.5-0.4 0.9-0.5 1.4-0.1 0.2-0.3 0.4-0.4 0.5 0 0.1 0.1 0.2 0.1 0.3-0.2 0.4-0.4 0.7-0.5 1.1l-0.1-0.2c-0.1 0.2-0.1 0.4 0 0.5 0 0.2-0.1 0.4-0.2 0.5 0-0.4 0-0.9-0.1-1.2 0.1-0.8 0.2-1.5 0.2-2.3 0.3-0.5 0.4-1 0.4-1.6 0.3-0.4 0.5-0.8 0.7-1.3 0 0.1 0.1 0.2 0.1 0.3-0.4 0.9-0.7 1.8-0.8 2.8 0.2-0.6 0.4-1.2 0.6-1.8 0.1 0 0.2 0.1 0.3 0.3 0.3-0.8 0.7-1.5 1.3-2.1 0.1 0.1 0.2 0.2 0.3 0.1-0.1-0.2 0-0.4 0.2-0.5-0.1 0-0.1-0.1 0-0.2 0.2 0.1 0.4 0.3 0.5 0.5-0.2 0.2-0.4 0.5-0.5 0.7 0.4 0.4 0.5 0.6 0.2 0.8 0.1 0.1 0.1 0.3 0 0.4z"></path><path fill="#dba526" d="m30.7 10.2c0.4 0.2 0.6 0.6 0.6 1.1 0.4 0.6 0.7 1.1 1 1.7 0.4 1 0.7 2.1 0.8 3.1 0 0.8 0.1 1.6 0.3 2.3-0.2 0.6-0.3 1.3-0.3 1.9-0.1 0.7-0.3 1.4-0.4 2.1 0 0.2-0.1 0.3-0.2 0.3 0.1-0.3 0.1-0.6 0.1-0.9 0 0-0.1 0.1-0.1 0.1 0.2-0.9 0.4-1.9 0.5-2.8 0.1-0.8 0-1.5-0.1-2.3-0.1 0.6-0.1 1.2-0.2 1.8 0.1-2.7-0.5-5.3-1.7-7.7 0-0.1-0.1-0.2-0.2-0.3 0-0.1-0.1-0.3-0.1-0.4z"></path><path fill="#f3c82b" d="m35.4 14.1c0 0.2 0.1 0.3 0.2 0.5 0 0.9 0.1 1.8 0.2 2.8 0 0-0.1-0.1-0.1-0.1-0.1 0.1-0.1 0.3-0.1 0.4h-0.4c-0.1-0.7-0.3-1.3-0.5-1.9 0.1-0.2 0-0.4-0.2-0.5l0.1-0.1c-0.1-0.1-0.2-0.2-0.3-0.2 0-0.1 0.1-0.3 0.1-0.4h-0.5c0 0.2 0 0.4 0.1 0.6-0.1 0-0.2 0.1-0.3 0.2 0.1 0.1 0.1 0.2 0.1 0.4-0.1 0.4-0.2 0.9-0.3 1.4-0.2-0.4-0.3-0.7-0.4-1.1-0.1-1-0.4-2.1-0.8-3.1 0-0.3-0.1-0.5-0.2-0.8 0.2 0.1 0.3 0.2 0.4 0.3l0.3-0.7h0.5c0.1-0.3 0.2-0.3 0.3 0 0.2-0.1 0.3-0.1 0.5 0-0.4 0.1-0.4 0.3 0.1 0.4 0.3 0.7 0.6 1.4 0.9 2.4 0-0.2 0.1-0.4 0.3-0.5z"></path><path fill="#fcd740" d="m23.5 14.5c0-0.1 0.1-0.1 0.1-0.2 0.3 0.2 0.5 0.4 0.8 0.5 0.7 0 1.3 0 2 0 0 0.1 0 0.1 0.1 0.2-0.2 0.1-0.5 0.2-0.7 0.2-0.6 0-1.2 0-1.9 0l-0.3-0.3c-0.3 0.3-0.5 0.3-0.8 0-0.4 0.2-0.7 0.3-1 0.6l-0.1-0.1c-0.1 0.1 0 0.2 0.1 0.3l-0.3 0.2c0.3 0 0.5 0 0.7 0.1h-2.2c0.1-0.1 0.2-0.1 0.3-0.1l-0.2-0.1c0.1-0.2 0.2-0.4 0.3-0.5-0.2-0.1-0.4-0.2-0.3-0.5-0.5 0-1-0.1-1.5-0.1-0.2 0.4-0.4 0.5-0.7 0.2-0.4 0.4-0.9 0.6-1.5 0.7-0.7-0.1-1.2-0.4-1.3-1-0.4 0-0.7 0.1-1 0.3l-0.4-0.2c-0.1 0.2-0.4 0.4-0.7 0.4 0 0.1 0 0.3 0 0.4h-0.6c-0.2-0.6-0.4-0.6-0.8 0-0.2-0.2-0.5-0.2-0.7 0-0.1-0.1-0.2-0.2-0.2-0.4l-0.4 0.1c0-0.1 0-0.2 0-0.3 0.4-0.2 0.6-0.4 0.7-0.8 0.1-0.1 0.1-0.2 0-0.4 0.4 0 0.7 0 1.1 0 0.5 0.2 1 0.4 1.5 0.5 0-0.1 0.1-0.1 0.2-0.2 0.1 0.2 0.3 0.2 0.5 0.2 0.4-0.1 0.8-0.2 1.1-0.5 0.5 0.3 1 0.5 1.5 0.3l0.5 0.5c0.2-0.2 0.4-0.4 0.6-0.5 0 0.1 0.1 0.2 0.2 0.2 0.1-0.1 0.2-0.2 0.4-0.3 0.3 0.1 0.5 0.2 0.7 0.4 0.2-0.1 0.3-0.1 0.4 0 0.2-0.2 0.4-0.4 0.7-0.4 0.4 0.2 0.9 0.2 1.3 0.1 0.1 0.2 0.2 0.2 0.3 0.1l0.2 0.4c0-0.5 0.1-0.5 0.2-0.1 0.4 0.2 0.7 0.2 1.1 0.1z"></path><path fill="#edd17c" d="m35.4 13.6c0.1 0.3 0.2 0.6 0.2 1-0.1-0.2-0.2-0.3-0.2-0.5v-0.5z" opacity=".671"></path><path fill="#f0c52a" d="m3.7 12.4c-0.4 1.5-0.8 3.1-1.1 4.6 0.1 0.5 0.1 1.1 0 1.7 0 0.1-0.1 0.2-0.2 0.3l-0.7-0.7c0.1-0.3 0-0.5-0.2-0.7-0.2 0.2-0.2 0.5-0.2 0.7-0.1 0.1-0.3 0.1-0.5 0.3 0.2 0.2 0.2 0.5 0.1 0.8l-0.1-0.4c-0.2 1.6-0.3 1.6-0.6 0 0 0.2 0 0.4 0 0.6h-0.1c-0.1-1.1 0-2.2 0.1-3.3 0.1 0.3 0.1 0.8 0.1 1.2 0.1-0.1 0.2-0.3 0.2-0.5-0.1-0.1-0.1-0.3-0.1-0.5l0.2 0.2c0.1-0.4 0.3-0.7 0.5-1.1 0-0.1-0.1-0.2-0.1-0.3 0.1-0.1 0.3-0.3 0.3-0.5 0.2-0.5 0.4-0.9 0.6-1.4 0.2-0.1 0.3-0.2 0.5-0.3-0.1-0.2-0.1-0.4 0.2-0.6 0.1 0.3 0.2 0.6 0.4 0.8 0.2-0.3 0.5-0.6 0.7-0.9z"></path><path fill="#f7d03e" d="m10.9 14c0 0 0.1 0 0.1 0.1-0.1 0.4-0.3 0.6-0.6 0.8-0.1 0.1-0.1 0.2 0 0.3l0.3-0.1c0 0.2 0.1 0.3 0.2 0.4 0.2-0.2 0.5-0.2 0.7 0 0.4-0.6 0.6-0.6 0.8 0h0.6c0-0.1 0-0.3 0.1-0.4 0.2 0 0.5-0.2 0.6-0.4l0.4 0.2c0.3-0.2 0.6-0.3 1-0.3 0.1 0.6 0.6 0.9 1.3 1 0.6-0.1 1.1-0.3 1.5-0.7 0.3 0.3 0.5 0.2 0.7-0.2 0.5 0 1 0.1 1.5 0.1-0.1 0.3 0.1 0.4 0.3 0.5-0.1 0.1-0.2 0.3-0.3 0.4l0.2 0.2c-0.1 0-0.2 0-0.3 0.1h-13.2v0.5c-0.3-0.2-0.6-0.5-0.8-0.9-0.2 0.2-0.4 0.2-0.7 0.1 0.2-0.1 0.1-0.1-0.1-0.2 0.1-0.2 0.1-0.4 0-0.6l-0.1 0.2c-0.1-0.1-0.3-0.2-0.4-0.3l0.2-0.1c-0.2 0-0.3-0.1-0.5-0.2 0 0-0.1 0-0.1 0.1-0.1-0.5 0-0.9 0.3-1.3 0-0.2 0.2-0.5 0.5-0.6 0.2 0.3 0.4 0.2 0.4-0.2 0.2 0.2 0.3 0.2 0.5 0 0.1 0.3 0.2 0.5 0.4 0.8-0.4 0.2-0.5 0.5-0.3 0.8-0.2 0-0.2 0.1 0 0.2 0 0.4 0 0.7 0 1 0.2 0.2 0.3 0.3 0.5 0.4 0.3-0.1 0.7-0.2 1-0.2 0.4-0.3 0.9-0.5 1.5-0.7 0.1 0 0.3 0 0.5 0.1 0.4-0.2 0.9-0.5 1.3-0.9z"></path><path fill="#eec435" d="m31.6 13.7l0.4 1.2c0.2 1.2 0.2 2.5 0.2 3.7-0.1-0.1-0.1-0.2-0.2-0.3 0-0.5 0-0.9 0.1-1.4 0-0.1-0.1-0.2-0.2-0.4 0.1-0.1 0.1-0.2-0.1-0.2l0.2-0.1c-0.1-0.1-0.1-0.3-0.2-0.4-0.1 0-0.4 0-0.6 0 0 0.9-0.1 0.9-0.2 0-0.1 0.2-0.2 0.5 0 0.7-0.1 0.1-0.1 0.2-0.2 0.2v-0.7h-2.7c-0.4 0-0.8-0.1-1.2-0.2-0.3-0.5-0.3-0.9 0-1.3 0.4 0.1 0.7 0.3 0.9 0.6 0-0.1 0.1-0.3 0.3-0.4-0.1-0.1-0.1-0.3-0.1-0.5-0.7-1.2-0.5-1.3 0.6-0.5 0 0.2 0.1 0.4 0.2 0.6 0.6 0.3 1.1 0.7 1.5 1.2 0.1-0.1 0.1-0.2 0.2-0.3 0.2 0.1 0.2 0.1 0-0.1 0.3-0.2 0.5-0.4 0.7-0.6l0.1 0.1c0.1-0.3 0.2-0.6 0.3-0.9z"></path><path fill="#e0b12c" d="m6.6 8.2c-0.6 0.7-1.2 1.5-1.7 2.3 0 0.1 0 0.2 0.1 0.3-0.5 0.8-0.9 1.7-1.1 2.6-0.6 1.8-0.8 3.7-0.7 5.6-0.1-0.3-0.1-0.5-0.2-0.8 0 0.3 0 0.7 0 1.1l-0.2-0.3c-0.1-0.1-0.2-0.2-0.2-0.3 0.1-0.6 0.1-1.2 0-1.7 0.3-1.5 0.7-3.1 1.1-4.6 0.1 0 0.2-0.1 0.2-0.2 0.5-1 1-1.9 1.4-2.9 0.3-0.4 0.6-0.7 0.8-1 0.2-0.1 0.3-0.2 0.5-0.1z"></path><path fill="#ecb922" d="m35.8 17.4v2.2l-0.2 0.5c-0.2 0.6-0.4 1.3-0.6 2-0.2-0.2-0.3-0.5-0.2-0.8-0.1-0.6-0.1-1.1-0.2-1.7-0.1-0.2-0.2-0.4-0.4-0.6-0.1 0.2-0.3 0.4-0.5 0.6-0.1 0.3-0.2 0.6-0.2 0.9l-0.3 0.1c-0.1-0.1-0.1-0.2-0.1-0.3 0-0.6 0.1-1.3 0.3-1.9-0.2-0.7-0.3-1.5-0.3-2.3 0.1 0.4 0.2 0.7 0.4 1.1 0.1-0.5 0.2-1 0.3-1.4 0-0.2 0-0.3-0.1-0.4 0.1-0.1 0.2-0.2 0.3-0.2-0.1-0.2-0.1-0.4-0.1-0.6h0.5c0 0.1-0.1 0.3-0.1 0.4 0.1 0 0.2 0.1 0.3 0.2l-0.1 0.1c0.2 0.1 0.3 0.3 0.2 0.4 0.2 0.7 0.4 1.3 0.5 2h0.4c0-0.1 0-0.3 0.1-0.4 0 0 0.1 0.1 0.1 0.1z"></path><path fill="#d48d1e" d="m20 16h10.8v1.7h-0.8c0.2-0.1 0.4-0.1 0.7-0.1v-1.3c-7.9-0.2-15.8-0.2-23.8-0.2v0.8c0.1 0.3 0 0.5-0.1 0.7-0.5 0.1-1 0.2-1.6 0.1v-0.9h1.6v-0.8h13.2z"></path><path fill="#b95200" d="m30.7 16.3h-23.7c0.1 0.2 0 0.4-0.1 0.5v-0.7c8 0 15.9 0 23.8 0.2z"></path><path fill="#c66c01" d="m30.7 16.3v0.3c-7.8-0.1-15.6-0.2-23.3-0.1-0.1 0.2-0.2 0.3-0.3 0.4h-0.2v-0.1c0.1-0.1 0.2-0.3 0.1-0.5h23.7z"></path><path fill="#cf7b00" d="m30.7 16.6v1c-0.3 0-0.5 0-0.7 0.1v0.7h-0.8c-0.1 0.2-0.2 0.5-0.1 0.8h-5.5c0-0.3 0-0.6-0.1-0.8h-0.7v-0.8h-1.7v0.9h-0.7v0.8h-0.9v0.7h-5.6v-0.7h-0.8v-0.9h-0.7v-0.8h-0.9v-0.7h-4.4c0.1-0.1 0.2-0.2 0.3-0.4 7.7-0.1 15.5 0 23.3 0.1z"></path><path fill="#eaba32" d="m32 18.3c-0.2-0.1-0.5 0-0.7 0.1l0.3 0.2c-0.2 0.1-0.3 0.3-0.3 0.5-0.4 0.1-0.7 0.4-0.9 0.7 0.2 0.1 0.2 0.2 0 0.3-0.1 0.1-0.3 0.1-0.4 0-0.2 0.2-0.5 0.2-0.7-0.1l0.2-0.1c-0.1-0.1-0.1-0.1 0-0.2-0.1-0.1-0.3-0.2-0.3-0.4v-0.9h0.8v-0.7h0.8v-1c0.1 0 0.1-0.1 0.2-0.2-0.2-0.2-0.1-0.5 0.1-0.7 0 0.9 0.1 0.9 0.1 0 0.2 0 0.5 0 0.6 0 0.1 0.1 0.1 0.3 0.2 0.4l-0.2 0.1c0.2 0 0.2 0.1 0.1 0.2 0.1 0.2 0.2 0.3 0.2 0.4-0.1 0.5-0.1 0.9-0.1 1.4z"></path><path fill="#ebbc34" d="m4.6 12.7v0.6c-0.3 0.4-0.4 0.8-0.3 1.3 0-0.1 0.1-0.1 0.1-0.1 0.2 0.1 0.3 0.2 0.5 0.2l-0.2 0.2c0.1 0 0.3 0.1 0.4 0.2l0.1-0.2c0.1 0.2 0.1 0.4 0 0.6 0.2 0.1 0.3 0.1 0.1 0.3 0.3 0 0.5 0 0.7-0.2 0.2 0.4 0.5 0.7 0.8 0.9v0.3h-1.6v0.9c0.6 0.1 1.1 0 1.6-0.1 0.1-0.2 0.2-0.4 0.1-0.7h4.6v0.7c0.3 0.1 0.5 0.2 0.8 0.1 0 0.2 0 0.5 0 0.7-0.1-0.1-0.2-0.1-0.3 0 0.1 0.1 0.1 0.1 0.2 0.2-0.1 0.2-0.1 0.3-0.1 0.4 0.2 0.1 0.2 0.3 0.2 0.5-0.2 0-0.4 0-0.7 0.1 0 0.1-0.1 0.2-0.1 0.3-0.3-0.4-0.5-0.4-0.8-0.2 0.1 0.4 0.2 0.7 0.2 1.1-0.3 0.1-0.3 0.2-0.2 0.3-0.1 0.3-0.2 0.5-0.2 0.8-0.3 0-0.5-0.1-0.7-0.4l-0.1 0.2c-0.1-0.2 0-0.3 0.1-0.3-0.3 0-0.7 0-1.1-0.1-0.1-0.2-0.1-0.3 0-0.4-0.2-0.1-0.3-0.3-0.4-0.5l-0.1 0.1-0.8-0.5c0 0-0.1 0.1-0.1 0.1-0.2-0.2-0.3-0.4-0.4-0.6-0.2 0.4-0.3 0.4-0.6 0.2l-0.2 0.5c-0.1-0.1-0.3-0.1-0.4 0.1l0.2 0.1c-0.1 0-0.2 0.1-0.3 0.2-0.2-0.1-0.2-0.2 0-0.3-0.4-0.2-0.7-0.5-0.9-0.9-0.2-0.1-0.3-0.1-0.4 0.1l-0.1-1.1-0.2 0.8c0-0.1-0.1-0.1-0.2-0.2 0.2-0.1 0.2-0.3 0-0.4 0.1-0.3 0.1-0.4-0.1-0.5-0.2-1.9 0.1-3.7 0.9-5.4z"></path><path fill="#f1da83" d="m0.4 14c0 0.8-0.1 1.5-0.2 2.3-0.1 1.1-0.2 2.2-0.1 3.3h-0.2v-3.3c0.1-0.8 0.3-1.6 0.5-2.3z" opacity=".565"></path><path fill="#c76c00" d="m6.8 17.6h-1.5v-0.7h1.5v0.7z"></path><path fill="#eed483" d="m35.6 14.6c0.1 0.5 0.2 1.1 0.3 1.7v3.3h-0.1v-2.2c-0.1-1-0.2-1.9-0.2-2.8z" opacity=".435"></path><path fill="#be8219" d="m30.8 10.6c0.1 0.1 0.2 0.2 0.3 0.3 1.1 2.4 1.7 5 1.6 7.7 0 0.5 0 0.9-0.1 1.4 0-0.3 0-0.5-0.1-0.7-0.1 0.3-0.2 0.7-0.3 1 0 0.5 0 1 0 1.5 0 0 0 0.1-0.1 0.1-0.3 0.1-0.4 0.3-0.3 0.6-0.3 0.6-0.6 1.2-0.9 1.7 0-0.1 0-0.3 0-0.5 0.6-0.9 0.9-1.8 1-2.8 0.1-0.1 0.1-0.2 0.2-0.3 0-0.6 0.1-1.3 0.1-2 0-1.2 0-2.5-0.2-3.7 0-0.2 0-0.5 0.1-0.7-0.4-1.2-0.9-2.3-1.3-3.6z"></path><path fill="#da951b" d="m23.5 18.4c0.1 0.2 0.1 0.5 0.1 0.8h5.5c-0.1-0.3 0-0.6 0.1-0.8v0.9h-5.7v-0.9z"></path><path fill="#eeb42a" d="m11.5 17.6h0.9v0.8h0.7v0.9h0.8v0.7h5.6v-0.7h0.9v-0.8h0.7v-0.9h1.7v0.8h0.7v0.9h0.6c-0.4 0.1-0.7 0.4-1 0.7l-0.2-0.1c-0.1 0.1-0.3 0.2-0.4 0.4l-0.1-0.2c-0.1 0-0.1 0-0.1 0.1-0.3 0-0.5 0.1-0.6 0.4-0.2 0-0.3 0.1-0.4 0.3l-0.4-0.1c-0.1 0.2-0.3 0.2-0.4 0h-0.5c-0.2 0.1-0.3 0.3-0.5 0.6-0.1-0.1-0.1-0.2-0.1-0.3-0.8 0-1.6 0-2.4-0.1-0.3 0.3-0.3 0.3-0.2-0.1-0.2-0.1-0.4-0.2-0.6-0.4-0.2 0.2-0.4 0.3-0.6 0.1-0.1 0.2-0.3 0.4-0.5 0.5-0.1 0-0.3-0.1-0.5-0.1-0.1 0.1-0.3 0.2-0.5 0.3 0.3 0.1 0.3 0.1-0.1 0.1-0.4 0-0.4 0 0-0.1l-0.6-0.7-0.1 0.2c-0.2-0.2-0.4-0.5-0.5-0.7 0 0-0.1 0.1-0.1 0.1-0.1-0.3-0.2-0.5-0.4-0.7 0-0.2 0-0.4-0.2-0.5 0-0.1 0-0.2 0.1-0.4-0.1-0.1-0.1-0.1-0.2-0.2 0.1-0.1 0.2-0.1 0.3 0 0-0.2 0-0.5 0-0.7-0.3 0.1-0.5 0-0.8-0.1z"></path><path fill="#e6b133" d="m32 18.3c0.1 0.1 0.1 0.2 0.2 0.3 0 0.7-0.1 1.4-0.1 2-0.1 0.1-0.1 0.2-0.2 0.3-0.2-0.1-0.3-0.2-0.5-0.3 0.1 0.3 0 0.6-0.1 0.8l-0.1-0.6c-0.8 0.8-1.4 1.7-2 2.5-0.2-0.2-0.2-0.4 0.2-0.6 0.1 0.1 0.1 0.1 0.1-0.1 0-0.2-0.1-0.3-0.2-0.3 0.1-0.1 0.1-0.2-0.1-0.3l-0.1 0.1c-0.1-0.2-0.1-0.4-0.2-0.7-0.2 0.1-0.4 0.1-0.6 0.1-0.1 0-0.2-0.1-0.3-0.2 0.1 0.2 0 0.3-0.1 0.5-0.3-0.2-0.4-0.1-0.6 0.2-0.1 0-0.2-0.1-0.4-0.1-0.1 0.2-0.2 0.4-0.3 0.7-0.2 0.1-0.3 0.1-0.4-0.2-0.2 0.2-0.3 0.4-0.4 0.6-0.1-0.2-0.2-0.3-0.4-0.1 0-0.1 0-0.1 0-0.2 0-0.1 0.1-0.1 0.1-0.2-0.2-0.4-0.4-0.5-0.7-0.2l-0.2-0.4h-0.4c0 0.3-0.1 0.6-0.1 0.9l-0.1-0.5c-0.1 0.2-0.2 0.3-0.3 0.4-0.1-0.2-0.2-0.3-0.4-0.4 0.2-0.2 0.1-0.3-0.1-0.4-0.2-0.2-0.4-0.2-0.6 0-0.1-0.1-0.1-0.2-0.3-0.2-0.1 0-0.2 0.1-0.2 0.2-0.1-0.2-0.3-0.2-0.4-0.3 0.3-0.1 0.3-0.1 0-0.2 0-0.1 0.1-0.1 0.1-0.2 0-0.1 0-0.2 0-0.3l0.1 0.4c0-0.4 0.2-0.8 0.4-1.1 0-0.1 0-0.1 0.1-0.1l0.1 0.2c0.1-0.2 0.3-0.3 0.4-0.4l0.2 0.1c0.3-0.3 0.6-0.6 1-0.7h5.1c0 0.2 0.2 0.3 0.3 0.4-0.1 0.1-0.1 0.1 0 0.2l-0.2 0.1c0.2 0.3 0.5 0.3 0.7 0.1 0.1 0.1 0.3 0.1 0.4 0 0.2-0.1 0.2-0.2 0-0.3 0.2-0.3 0.5-0.6 0.9-0.7 0-0.2 0.1-0.4 0.3-0.5l-0.3-0.2c0.2-0.1 0.5-0.2 0.7-0.1z"></path><path fill="#e9b41f" d="m2.6 18.7c0 0.1 0.1 0.2 0.2 0.3-0.1 0.7 0 1.4 0.2 2.1-0.2 0.3-0.1 0.6 0.1 0.9l-0.1 0.2c0.1 0.2 0.2 0.4 0.2 0.6l-0.2-0.1c-0.1 0.2-0.3 0.2-0.5 0 0.1 0 0.1-0.1 0.1-0.1 0-0.2-0.1-0.4-0.1-0.6-0.1 0-0.1 0.1-0.2 0.1-0.2-0.2-0.3-0.5-0.3-0.8-0.1 0.2-0.1 0.2-0.2 0-0.2 0.3-0.2 0.6-0.1 0.9-0.2 0.3-0.2 0.7 0 1 0 0.1 0 0.2-0.1 0.3-0.1-0.2-0.2-0.2-0.3 0 0.3 0.2 0.4 0.5 0.3 0.9-0.3-0.4-0.4-0.8-0.5-1.3l-0.1 0.1c-0.1-0.6-0.2-1.1-0.5-1.7-0.2-0.6-0.3-1.2-0.3-1.9 0-0.2 0-0.4 0-0.6 0.3 1.6 0.4 1.6 0.6 0l0.1 0.4c0.1-0.3 0.1-0.6-0.1-0.8 0.2-0.2 0.4-0.2 0.6-0.3-0.1-0.2-0.1-0.5 0.1-0.7 0.2 0.2 0.3 0.4 0.2 0.7l0.7 0.7c0.1-0.1 0.2-0.2 0.2-0.3z"></path><path fill="#e5a819" d="m35.6 20.1c0 0.7-0.1 1.5-0.2 2.2-0.3 0.7-0.6 1.4-0.7 2.2 0 0.2 0 0.3-0.2 0.4 0-0.7-0.2-0.7-0.5-0.1-0.1-0.3 0-0.5 0.3-0.7-0.3-0.2-0.3-0.4-0.2-0.7l-0.2-0.5c0.1-0.4 0.1-0.8 0.1-1.3-0.1-0.2-0.2-0.2-0.4-0.1 0.1 0.2 0.1 0.4 0 0.5 0.2 0.1 0.3 0.2 0 0.3l-0.1-0.1c-0.2 0.3-0.4 0.5-0.6 0.9-0.3 0.2-0.4 0.1-0.4-0.3v-0.1c0.1 0 0.2-0.1 0.2-0.3 0.1-0.7 0.3-1.4 0.4-2.1 0 0.1 0 0.2 0.1 0.3l0.3-0.1c0-0.3 0.1-0.6 0.2-0.9 0.2-0.2 0.4-0.4 0.5-0.6 0.2 0.2 0.3 0.4 0.5 0.6 0 0.6 0 1.1 0.1 1.7-0.1 0.3 0 0.6 0.2 0.8 0.2-0.7 0.4-1.4 0.6-2z"></path><path fill="#e6b02b" d="m3.7 18.1c0.2 0.1 0.2 0.2 0.1 0.5 0.2 0.1 0.2 0.3 0 0.4 0.1 0.1 0.2 0.1 0.2 0.2l0.2-0.8 0.1 1.1c0.1-0.2 0.2-0.2 0.4-0.1 0.2 0.4 0.5 0.7 0.9 0.9-0.2 0.1-0.2 0.2 0 0.3 0.1-0.1 0.2-0.2 0.3-0.2l-0.2-0.1c0.1-0.2 0.3-0.2 0.4-0.1l0.2-0.5c0.3 0.2 0.4 0.2 0.6-0.2 0.1 0.2 0.2 0.4 0.4 0.6 0 0 0.1-0.1 0.1-0.1l0.8 0.5 0.1-0.1c0.1 0.2 0.2 0.4 0.4 0.5-0.1 0.1-0.1 0.3 0 0.4 0.4 0.1 0.8 0.1 1.1 0.1-0.1 0-0.2 0.1-0.1 0.3l0.1-0.2c0.2 0.3 0.4 0.4 0.7 0.4 0-0.3 0.1-0.5 0.2-0.8-0.1-0.1-0.1-0.2 0.2-0.3 0-0.4-0.1-0.7-0.2-1.1 0.3-0.2 0.5-0.2 0.8 0.2 0-0.1 0.1-0.2 0.1-0.3 0.3-0.1 0.5-0.1 0.7-0.1 0.2 0.2 0.3 0.4 0.4 0.7-0.2 0-0.2 0.1-0.3 0.2 0.1 0.3 0.1 0.6 0 0.9-0.1 0-0.2 0-0.3 0 0 0.1 0.1 0.1 0.1 0.2-0.4 0.1-0.5 0-0.2-0.3-0.1-0.3-0.3-0.3-0.4-0.1 0-0.1-0.1-0.2-0.2-0.3-0.1 0.3-0.3 0.6-0.4 0.9 0.2 0.3 0.5 0.5 0.9 0.6-0.1 0.5-0.1 0.9 0 1.3-0.3 0.3-0.6 0.3-0.9-0.1-0.1-0.3-0.3-0.6-0.5-0.8-0.2 0-0.4 0.1-0.5 0.3-0.1-0.3-0.3-0.3-0.4 0-0.3 0-0.6 0-0.8 0-0.3-0.3-0.6-0.7-0.9-1.1-0.2 0.1-0.3 0.1-0.5 0l0 0.1c0.3 0.1 0.3 0.2 0.1 0.4-0.3 0.1-0.7 0-1-0.1l-0.2 0.3c-0.5-0.4-1-0.8-1.5-1.2-0.2 0.1-0.3 0.2-0.5 0.1 0.1 0.3 0 0.4-0.1 0.6-0.1-0.3-0.3-0.6-0.3-1-0.2-1-0.3-2-0.2-3z"></path><path fill="#aa6312" d="m32.6 20c-0.1 0.6-0.3 1.2-0.4 1.8 0-0.5 0-1 0-1.5 0.1-0.3 0.2-0.7 0.3-1 0.1 0.2 0.1 0.4 0.1 0.7z"></path><path fill="#eccc79" d="m35.8 19.6c0 1-0.1 1.9-0.4 2.7 0.1-0.7 0.2-1.5 0.2-2.2l0.2-0.5z" opacity=".345"></path><path fill="#f1c142" d="m32.5 21.9c-0.3 1.2-0.8 2.3-1.4 3.4-0.2 0.4-0.5 0.8-0.8 1.2 0.1-0.3 0.2-0.5 0.2-0.8 0.7-1.2 1.3-2.5 1.6-3.8 0.1 0 0.1-0.1 0.1-0.1 0.1-0.6 0.3-1.2 0.4-1.8 0.1-0.5 0.1-0.9 0.1-1.4 0.1-0.6 0.1-1.2 0.2-1.8 0.1 0.8 0.2 1.5 0.1 2.3-0.1 0.9-0.3 1.9-0.5 2.8z"></path><path fill="#e4a723" d="m22.3 20.2c-0.2 0.3-0.4 0.7-0.4 1.1l-0.1-0.4c0 0.1 0 0.2 0 0.3-0.3 0-0.5 0-0.6 0-0.3 0.2-0.5 0.3-0.8 0.4l0.2 0.1c-0.1 0-0.3 0.1-0.4 0.2-0.1 0.2-0.3 0.5-0.4 0.8-0.1-0.3-0.2-0.5-0.2-0.8h-0.4c-0.2 1.2-0.4 1.2-0.6 0h-0.3c0 0.2 0 0.5 0.1 0.8v0.3c-0.4 0-0.7 0-1-0.1v-1.1h-0.4l-0.2 1.4v-0.9c-0.3 0.2-0.7 0.2-1 0.1-0.1 0.1-0.2 0.2-0.2 0.3-0.1 0.1-0.2 0.3-0.2 0.5 0 0-0.1-0.1 0-0.2-0.1-0.5-0.3-0.7-0.8-0.6-0.2 0-0.3 0.1-0.4 0.3-0.1 0.1-0.1 0.2-0.1 0.3-0.1-0.2-0.1-0.5-0.2-0.7-0.3-0.4-0.7-0.5-1.2-0.4-0.1 0.4-0.2 0.9-0.2 1.3l-0.1-0.4c-0.1 0.4-0.2 0.9-0.3 1.3 0.1 0.2 0.1 0.3 0.1 0.4-0.1 0.3-0.2 0.5-0.3 0.8 0 0.2 0 0.4 0 0.6 0.4 0 0.7 0.2 0.9 0.5-0.5 0.3-1 0.2-1.3-0.2 0 0-0.1 0-0.2 0.1-0.1-0.2-0.2-0.3-0.3-0.5l-0.1 0.1c-0.2-0.2-0.5-0.3-0.9-0.1-0.1 0-0.3-0.1-0.4-0.1l0.1-0.2c-0.2-0.1-0.3-0.3-0.2-0.5-0.1-0.1-0.2-0.1-0.3-0.2-0.4 0.1-0.9 0.2-1.3 0.2-0.2 0-0.3-0.1-0.4-0.1l0.1-0.1-0.3-0.2 0.1-0.1c-0.4 0-0.7-0.1-1-0.3-0.1 0.2-0.3 0.3-0.4 0.5 0.1 0.4 0.2 0.7 0.1 1.1-0.1-0.2-0.1-0.3-0.3-0.3-0.4-0.4-0.7-0.9-0.7-1.5-0.2-0.1-0.3-0.2-0.4-0.4-0.3-0.5-0.4-1-0.5-1.5 0.1-0.2 0.2-0.3 0.1-0.6 0.2 0.1 0.3 0 0.5-0.1 0.5 0.4 1 0.8 1.5 1.2l0.2-0.3c0.3 0.1 0.7 0.2 1 0.1 0.2-0.2 0.2-0.3-0.1-0.4l0-0.1c0.2 0.1 0.3 0.1 0.5 0 0.3 0.4 0.6 0.8 0.9 1.1 0.2 0 0.5 0 0.8 0 0.1-0.3 0.3-0.3 0.4 0 0.1-0.2 0.3-0.3 0.5-0.3 0.2 0.2 0.4 0.5 0.5 0.8 0.3 0.4 0.6 0.4 0.9 0.1-0.1-0.4-0.1-0.8 0-1.3-0.4-0.1-0.7-0.3-0.9-0.6 0.1-0.3 0.3-0.6 0.4-0.9 0.1 0.1 0.2 0.2 0.2 0.3 0.1-0.2 0.3-0.2 0.4 0.1-0.3 0.3-0.2 0.4 0.2 0.3 0-0.1-0.1-0.1-0.1-0.2 0.1 0 0.2 0 0.3 0 0.1-0.3 0.1-0.6 0-0.9 0.1-0.1 0.1-0.2 0.3-0.2 0 0 0.1-0.1 0.1-0.1 0.1 0.2 0.3 0.5 0.5 0.7l0.1-0.2 0.6 0.7c-0.4 0.1-0.4 0.1 0 0.1 0.4 0 0.4 0 0.1-0.1 0.2-0.1 0.4-0.2 0.5-0.3 0.2 0 0.4 0.1 0.5 0.1 0.2-0.1 0.4-0.3 0.5-0.5 0.2 0.2 0.4 0.1 0.6-0.1 0.2 0.2 0.4 0.3 0.6 0.4-0.1 0.4-0.1 0.4 0.2 0.1 0.8 0.1 1.6 0.1 2.4 0.1 0 0.1 0 0.2 0.1 0.3 0.2-0.3 0.3-0.5 0.5-0.6h0.5c0.1 0.2 0.3 0.2 0.4 0l0.4 0.1c0.1-0.2 0.2-0.3 0.4-0.3 0.1-0.3 0.3-0.4 0.6-0.4z"></path><path fill="#c86d02" d="m21.3 22h0.5c0 0.2 0.1 0.4 0.2 0.5 0 0.1-0.1 0.1-0.1 0.2-0.1 0.2-0.2 0.5-0.1 0.8h-0.4c0-0.5 0-1-0.1-1.5z"></path><path fill="#c86f04" d="m22.6 21.9v0.4c0.2 0 0.3 0.1 0.5 0.1 0.1 0.4 0.2 0.7 0.1 1.1h-0.3c0-0.3 0-0.5-0.1-0.7-0.1-0.2-0.2-0.2-0.3 0-0.1 0.2-0.1 0.4-0.1 0.7h-0.3v-1.6c0-0.1 0.1-0.2 0.2-0.2 0.2 0 0.2 0.1 0.3 0.2z"></path><path fill="#e1a730" d="m31.9 20.9c-0.1 1-0.4 1.9-1 2.8 0 0.2 0 0.4 0 0.5 0 0.1-0.1 0.2-0.1 0.2-0.3-0.2-0.5-0.3-0.6-0.5-0.5 0.1-0.5 0.2-0.2 0.5 0.1-0.2 0.2-0.2 0.3 0-0.2 0-0.4 0.1-0.5 0.3 0-0.1-0.1-0.3-0.3-0.3-0.4 0.5-0.8 1-1.3 1.5 0 0-0.1-0.1-0.1-0.1-0.2 0.1-0.3 0.3-0.4 0.5l-0.1-0.1c-0.1 0.3-0.3 0.5-0.6 0.6 0-0.1 0-0.3-0.1-0.4 0.3-0.2 0.4-0.4 0.4-0.6-0.1-0.2-0.2-0.4-0.4-0.5 0.2-0.1 0.4 0 0.6 0.1l0-0.2c-0.2-0.3-0.4-0.5-0.7-0.6l-0.1 0.2c0.1 0.1 0.1 0.1 0.2 0.1-0.1 0.2-0.3 0.2-0.4 0 0.1-0.2 0.1-0.4-0.1-0.5 0 0.1-0.1 0.2-0.2 0.4 0 0 0.1 0 0.2 0.1-0.2 0.2-0.2 0.4 0 0.6-0.2 0.1-0.3 0.3-0.5 0.4l0.1 0.1-0.4-0.1 0.1 0.1-0.4 0.4c-0.2 0.1-0.4 0.1-0.5 0-0.2-0.3-0.4-0.6-0.6-0.8 0.1-1-0.3-1.4-1.2-1.5-0.1-0.2-0.1-0.4-0.1-0.6h0.3c0.1-0.4 0-0.7-0.1-1.1-0.2 0-0.3-0.1-0.5-0.1v-0.4c0.2-0.2 0.4-0.2 0.6 0 0.2 0.1 0.3 0.2 0.1 0.4 0.2 0.1 0.3 0.2 0.4 0.4 0.1-0.1 0.2-0.2 0.3-0.4l0.1 0.5c0-0.3 0.1-0.6 0.1-0.9v1.6h0.4v-1.6l0.2 0.4c0.1 0.4 0.1 0.8 0.1 1.2h0.4c-0.1-0.3 0-0.6 0.1-0.8 0 0.1 0 0.1 0 0.2 0.2-0.2 0.3-0.1 0.4 0.1 0.1-0.2 0.2-0.4 0.4-0.6 0.1 0.3 0.2 0.3 0.4 0.2 0.1-0.3 0.2-0.5 0.3-0.7 0.2 0 0.3 0.1 0.4 0.1 0.2-0.3 0.3-0.4 0.6-0.2 0.1-0.2 0.2-0.3 0.1-0.5 0.1 0.1 0.2 0.2 0.4 0.2 0.1 0 0.3 0 0.5-0.1 0.1 0.3 0.1 0.5 0.2 0.7l0.2-0.1c0.1 0.1 0.1 0.2 0 0.3 0.1 0 0.2 0.1 0.2 0.3 0 0.2 0 0.2-0.1 0.1-0.4 0.2-0.4 0.4-0.1 0.6 0.5-0.8 1.1-1.7 1.9-2.5l0.1 0.6c0.1-0.2 0.2-0.5 0.1-0.8 0.2 0.1 0.3 0.2 0.5 0.3z"></path><path fill="#c66b00" d="m25.4 22.7c-0.1 0.2-0.2 0.5-0.1 0.8h-0.4c0-0.4 0-0.8-0.1-1.2 0.3-0.3 0.5-0.2 0.7 0.2 0 0.1-0.1 0.1-0.1 0.2z"></path><path fill="#c46700" d="m24.2 21.9h0.4v1.6h-0.4v-1.6z"></path><path fill="#ecd186" d="m0.1 19.6h0.1c0 0.7 0.1 1.3 0.3 1.9 0.1 0.8 0.2 1.6 0.5 2.3-0.6-1.3-0.9-2.7-0.9-4.2z" opacity=".671"></path><path fill="#eacd83" d="m35.4 22.3c-0.2 0.8-0.4 1.5-0.7 2.2 0.1-0.8 0.4-1.5 0.7-2.2z" opacity=".671"></path><path fill="#e09d13" d="m34.5 24.9c-0.2 0.3-0.4 0.6-0.5 0.9-0.2-0.1-0.2-0.1-0.3 0.1-0.2 0.2-0.4 0.3-0.6 0.4 0.3 0.2 0.3 0.4 0.1 0.6-0.1-0.1-0.1-0.2-0.1-0.3-0.2 0-0.3 0.1-0.4 0.2 0-0.1-0.1-0.2-0.1-0.4 0.1-0.1 0.3-0.2 0.4-0.4 0-0.3 0-0.7-0.1-1 0.2-0.2 0.2-0.5 0.2-0.8-0.3 0-0.4 0.1-0.1 0.2-0.5 0.4-1 0.9-1.4 1.4-0.2-0.2-0.1-0.3 0.1-0.4-0.1 0-0.1-0.1-0.1-0.1 0.3-0.9 0.6-1.7 0.9-2.5 0 0.4 0.1 0.5 0.4 0.3 0.2-0.4 0.4-0.6 0.6-0.9l0.1 0.1c0.3-0.1 0.2-0.2 0-0.3 0.1-0.1 0.1-0.3 0-0.5 0.2-0.1 0.3-0.1 0.4 0.1 0 0.5 0 0.9-0.1 1.3l0.2 0.5c-0.1 0.3-0.1 0.5 0.2 0.7-0.3 0.2-0.4 0.4-0.3 0.7 0.3-0.6 0.5-0.6 0.5 0.1z"></path><path fill="#de9d22" d="m21.8 21.2c0 0.1-0.1 0.1-0.1 0.2 0.3 0.1 0.3 0.1 0 0.2 0.1 0.1 0.3 0.1 0.4 0.3v1.1c-0.1 0.1-0.1 0.1-0.2 0.2 0-0.2 0-0.3 0-0.5 0-0.1 0.1-0.1 0.1-0.2-0.1-0.1-0.2-0.3-0.2-0.5h-0.5c-0.1-0.2-0.3-0.2-0.5-0.2-0.1 0.2 0 0.4 0.2 0.5h-0.2c-0.1 0.4-0.2 0.8-0.2 1.2-0.1-0.5-0.2-0.4-0.2 0.1l-0.9 0.3c0 0.3 0.1 0.5 0.4 0.6-0.4 0.1-0.7 0.1-0.9-0.1-0.1-0.1-0.2-0.2-0.2-0.4l-0.1 0.2c-0.4-0.7-0.7-0.7-0.9 0.2 0.1 0.2 0.2 0.3 0.4 0.5 0.5 0.1 1 0.1 1.5 0.1 0.2 0 0.4-0.1 0.6-0.2 0.6 0.2 1.2 0.4 1.8 0.7-0.1 0.2-0.2 0.5-0.4 0.8-0.2-0.3-0.5-0.5-0.8-0.5-0.1 0.2-0.2 0.4-0.1 0.7-0.3 0.1-0.4 0-0.4-0.3-0.5-0.2-0.9-0.5-1.3-0.8-0.3 0.1-0.3 0.3 0.1 0.4l-0.2 0.4-0.1-0.2c-0.1 0.4-0.2 0.7-0.3 0.9-0.3-0.1-0.5-0.1-0.8 0l-0.2 0.7-0.2-0.1c-0.2 0.3-0.4 0.3-0.6 0.1-0.3 0.1-0.5 0.2-0.8 0.2-0.6-0.1-1.2-0.3-1.9-0.5-0.3-0.3-0.7-0.5-1.1-0.7-0.2 0.1-0.4 0.2-0.6 0.3-0.3-0.2-0.5-0.2-0.8-0.1l-0.3-0.5c0.1-0.1 0.2-0.1 0.2-0.1 0.3 0.4 0.8 0.5 1.3 0.2-0.2-0.3-0.5-0.5-0.9-0.5 0-0.2 0-0.4 0-0.6 0.1-0.3 0.2-0.5 0.3-0.8 0-0.1 0-0.2-0.1-0.4 0.1-0.4 0.2-0.9 0.3-1.3l0.1 0.4c0-0.4 0.1-0.9 0.2-1.3v1.6c0.9 0.1 1.3-0.3 1.2-1.2 0.1 0.2 0.1 0.5 0.2 0.7 0-0.1 0-0.2 0.1-0.3 0 0.8 0.4 1 1 0.5l-0.1-0.1c-0.2 0.1-0.4 0.1-0.5 0 0.2-0.1 0.5-0.1 0.8-0.1-0.1 0.1 0 0.2 0 0.2 0-0.2 0.1-0.4 0.2-0.5-0.1 0.3 0 0.5 0.2 0.7 0.3 0 0.5 0 0.8 0.1 0.1-0.1 0.2-0.1 0.2-0.3l0.2-1.4v1.7h0.4v-0.6c0.3 0.1 0.6 0.1 1 0.1v-0.3c0.1 0.2 0.2 0.5 0.2 0.8 0.5-0.1 0.7-0.4 0.8-0.8 0.1 0.2 0.2 0.5 0.2 0.8h0.5c0-0.6 0.2-1 0.4-1.5-0.1-0.1-0.2-0.1-0.3-0.1 0.1-0.1 0.3-0.2 0.4-0.2l-0.2-0.1c0.3-0.1 0.5-0.2 0.7-0.4 0.2 0 0.4 0 0.7 0z"></path><path fill="#ca7407" d="m16.8 23.2c0 0.2-0.1 0.2-0.2 0.3-0.3-0.1-0.5-0.1-0.8-0.1-0.2-0.2-0.3-0.4-0.2-0.7 0-0.1 0.1-0.2 0.2-0.3 0.3 0.1 0.7 0.1 1-0.1v0.9z"></path><path fill="#c76d03" d="m15.4 23c-0.3 0-0.6 0-0.8 0.1 0.1 0.1 0.3 0.1 0.5 0l0.1 0.1c-0.6 0.5-1 0.3-1-0.5 0.1-0.2 0.2-0.3 0.4-0.3 0.5-0.1 0.7 0.1 0.8 0.6z"></path><path fill="#c66a01" d="m12.7 21.9c0.5-0.1 0.9 0 1.2 0.4 0.1 0.9-0.3 1.3-1.2 1.2v-1.6z"></path><path fill="#c97002" d="m20.2 21.9c0.1 0 0.2 0 0.3 0.1-0.2 0.5-0.4 0.9-0.4 1.5h-0.5c0-0.3-0.1-0.6-0.2-0.8-0.1 0.4-0.3 0.7-0.8 0.8 0-0.3-0.1-0.6-0.2-0.8-0.1-0.3-0.1-0.6-0.1-0.8h0.3c0.2 1.2 0.4 1.2 0.6 0h0.4c0 0.3 0.1 0.5 0.2 0.8 0.1-0.3 0.3-0.6 0.4-0.8z"></path><path fill="#e8a522" d="m13 22.2c0.3-0.1 0.5 0.1 0.6 0.4-0.1 0.4-0.3 0.5-0.6 0.5v-0.9z"></path><path fill="#c46800" d="m17 21.8h0.4v1.7h-0.4v-1.7z"></path><path fill="#e7aa1b" d="m2.8 19l0.2 0.3c0.1 1.2 0.4 2.5 0.7 3.7 0.3 0.5 0.6 1 0.7 1.6-0.1-0.2-0.2-0.2-0.3 0 0.1 0.2 0.2 0.4 0.3 0.7 0 0.3 0.1 0.5 0.4 0.7-0.1 0.2-0.1 0.3-0.1 0.5-0.2-0.2-0.4-0.4-0.5-0.7l-0.1 0.2c-0.4-0.1-0.8-0.3-1.2-0.3-0.1 0.1-0.1 0.1-0.1 0.2 0.1 0.2 0.2 0.4 0.3 0.6l-0.1 0.4c-0.1 0-0.2-0.1-0.3-0.2l-0.1 0.1c0-0.2-0.2-0.4-0.4-0.5l-0.2-0.1c-0.2-0.2-0.3-0.5-0.4-0.7-0.1-0.6-0.3-1.2-0.6-1.7-0.3-0.7-0.4-1.5-0.5-2.3 0.3 0.6 0.4 1.1 0.5 1.7l0.1-0.1c0.1 0.5 0.2 0.9 0.5 1.3 0.1-0.4 0-0.7-0.3-0.9 0.1-0.2 0.2-0.2 0.3 0 0.1-0.1 0.1-0.2 0.1-0.3-0.2-0.3-0.2-0.7 0-1-0.1-0.3-0.1-0.6 0.1-0.9 0.1 0.2 0.1 0.2 0.2 0 0 0.3 0.1 0.6 0.3 0.8 0.1 0 0.1-0.1 0.2-0.1 0 0.2 0.1 0.4 0.1 0.6 0 0 0 0.1-0.1 0.1 0.2 0.2 0.4 0.2 0.5 0l0.2 0.1c0-0.2-0.1-0.4-0.2-0.6l0.1-0.2c-0.2-0.3-0.3-0.6-0.1-0.9-0.2-0.7-0.3-1.4-0.2-2.1z"></path><path fill="#db9c2c" d="m30.8 24.4c-0.5 1.2-1.3 2.4-2.3 3.3-0.1 0.1-0.1 0.3-0.1 0.4-0.4 0-0.6 0.2-0.8 0.5-0.1 0.1-0.3 0.2-0.4 0.2-0.3 0.4-0.7 0.7-1 1 0-0.3-0.1-0.3-0.3-0.2-0.1 0-0.1 0-0.2-0.1 0.2-0.1 0.3-0.1 0.5-0.3-0.3 0-0.3-0.1-0.1-0.2 0.3 0.1 0.4 0 0.1-0.2l0.1-0.1-0.7-0.2c0.2-0.3 0.3-0.3 0.5 0 0.2 0 0.4-0.2 0.5-0.4-0.1-0.1-0.2-0.1-0.4-0.1-0.1 0.1-0.2 0.2-0.3 0.1l-0.2 0.2c-0.2-0.2-0.4-0.2-0.5 0-0.2-0.2-0.4-0.3-0.6-0.3 0.3 0 0.5-0.2 0.5-0.6-0.1-0.2-0.1-0.3 0.2-0.3-0.4-0.2-0.7-0.5-0.9-0.8-0.1-0.2-0.2-0.4-0.4-0.6 0.1-0.1 0.1-0.1 0.2-0.1 0.2 0.2 0.4 0.5 0.6 0.8 0.1 0.1 0.3 0.1 0.5 0l0.4-0.4-0.1-0.1 0.4 0.1-0.1-0.1c0.2-0.1 0.3-0.3 0.5-0.4-0.2-0.2-0.2-0.4 0-0.6-0.1-0.1-0.2-0.1-0.2-0.1 0.1-0.2 0.2-0.3 0.2-0.4 0.2 0.1 0.2 0.3 0.1 0.5 0.1 0.2 0.3 0.2 0.4 0-0.1 0-0.1 0-0.2-0.1l0.1-0.2c0.3 0.1 0.5 0.3 0.7 0.6l0 0.2c-0.2-0.1-0.4-0.2-0.6-0.1 0.2 0.1 0.3 0.3 0.4 0.5 0 0.2-0.1 0.4-0.4 0.6 0.1 0.1 0.1 0.3 0.1 0.4 0.3-0.1 0.5-0.3 0.6-0.6l0.1 0.1c0.1-0.2 0.2-0.4 0.4-0.5 0 0 0.1 0.1 0.1 0.1 0.5-0.5 0.9-1 1.3-1.5 0.2 0 0.3 0.2 0.3 0.3 0.1-0.2 0.3-0.3 0.5-0.3-0.1-0.2-0.2-0.2-0.3 0-0.3-0.3-0.3-0.4 0.2-0.5 0.1 0.2 0.3 0.3 0.6 0.5z"></path><path fill="#e8cb84" d="m1 23.8c0.3 0.5 0.5 1.1 0.6 1.7-0.3-0.5-0.5-1.1-0.6-1.7z" opacity=".565"></path><path fill="#e59f13" d="m4.4 25.3c0.8 1.1 1.6 2.3 2.4 3.4 0 0.1-0.1 0.3-0.2 0.4-0.1-0.1-0.2-0.1-0.2 0l0.1 0.2-0.8 0.7-0.1-0.1c0 0.1 0 0.3 0.1 0.4-0.2 0.1-0.3 0.2-0.2 0.4-0.2-0.2-0.4-0.3-0.6-0.4-0.2-0.2-0.4-0.4-0.6-0.7-0.1-0.2-0.3-0.5-0.5-0.7 0-0.2 0-0.4 0-0.6-0.2 0-0.3 0-0.5-0.1-0.1-0.2-0.2-0.4-0.4-0.5-0.2-0.1-0.3-0.3-0.4-0.5l-0.3-0.9c0.2 0.1 0.4 0.3 0.4 0.5l0.1-0.1c0.1 0.1 0.2 0.2 0.3 0.2l0.1-0.4c-0.1-0.2-0.2-0.4-0.3-0.6 0-0.1 0-0.1 0.1-0.2 0.4 0 0.8 0.2 1.2 0.3l0.1-0.2c0.1 0.3 0.3 0.5 0.5 0.7 0-0.2 0-0.3 0.1-0.5-0.3-0.2-0.4-0.4-0.4-0.7z"></path><path fill="#f4d157" d="m3.2 19c0.3 2.9 1.2 5.6 2.9 7.9l0.1 0.5c-0.6-0.9-1.2-1.8-1.8-2.8-0.1-0.6-0.4-1.1-0.7-1.6-0.3-1.2-0.6-2.5-0.7-3.7 0-0.4 0-0.8 0-1.1 0.1 0.3 0.1 0.5 0.2 0.8z"></path><path fill="#de9514" d="m32.5 22.7v0.1c-0.3 0.8-0.6 1.6-0.9 2.5 0 0 0 0.1 0.1 0.1-0.2 0.1-0.3 0.2-0.1 0.4 0.4-0.5 0.9-1 1.4-1.4-0.3-0.1-0.2-0.2 0.1-0.2 0 0.3 0 0.6-0.2 0.8 0.1 0.3 0.1 0.7 0.1 1-0.1 0.2-0.3 0.3-0.4 0.4 0 0.2 0.1 0.3 0.1 0.4 0.1-0.1 0.2-0.2 0.4-0.2 0 0.1 0 0.2 0.1 0.3 0.2-0.2 0.2-0.4-0.1-0.6 0.2-0.1 0.4-0.2 0.6-0.4 0.1 0.2 0.1 0.3 0.1 0.5-0.4 0.4-0.7 0.9-0.9 1.4-0.1 0.1-0.3 0.3-0.3 0.4-0.1 0.1-0.3 0.1-0.4 0.1 0 0.2 0 0.5-0.1 0.7-0.2 0.4-0.5 0.8-0.9 1.1 0-0.2 0-0.3-0.1-0.4 0.1-0.1 0.2-0.1 0.3-0.1v-0.3c-0.1 0-0.2 0-0.3 0l0.1-0.2c-0.2 0-0.3-0.1-0.4-0.2 0.2 0 0.2-0.1 0.1-0.2 0.1-0.1 0.1-0.2 0.2-0.3 0-0.1 0.1-0.1 0.2 0 0.3-0.5 0.4-1 0.4-1.6l-0.9 0.4c0-0.3-0.1-0.4-0.3-0.5 0.4-0.4 0.7-0.9 0.8-1.4 0 0-0.1-0.1-0.2 0 0.6-1.1 1.1-2.2 1.4-3.4 0 0 0.1-0.1 0.1-0.1 0 0.3 0 0.6-0.1 0.9z"></path><path fill="#e7b656" d="m34.5 24.9c-0.2 0.6-0.4 1-0.7 1.5 0-0.2 0-0.3-0.1-0.5 0.1-0.2 0.1-0.2 0.3-0.1 0.1-0.3 0.3-0.6 0.5-0.9z"></path><path fill="#dd991d" d="m21.3 22c0.1 0.5 0.1 1 0.1 1.5h0.4c-0.1-0.3 0-0.6 0.1-0.8 0 0.2 0 0.3 0 0.5 0.1-0.1 0.1-0.1 0.2-0.2v0.5h0.3c0-0.3 0-0.5 0.1-0.7 0.1-0.2 0.2-0.2 0.3 0 0.1 0.2 0.1 0.4 0.1 0.7 0 0.2 0 0.4 0 0.6 1 0.1 1.4 0.5 1.3 1.5-0.1 0-0.1 0-0.2 0.1 0.2 0.2 0.3 0.4 0.4 0.6-0.4-0.3-0.8-0.3-1.2 0.1-0.1-0.4-0.3-0.7-0.6-1-0.1 0.2-0.3 0.5-0.4 0.8-0.1 0.3-0.1 0.6-0.3 0.9-0.1 0-0.3-0.1-0.4-0.3 0 0.2 0 0.4-0.1 0.5-0.4 0.1-0.8 0.1-1.2 0-0.4-0.2-0.7-0.5-1-0.8-0.3 0.4-0.3 0.9 0 1.3-0.2 0.3-0.4 0.4-0.7 0.5-0.2-0.1-0.4-0.1-0.7-0.1 0 0.5-0.2 0.7-0.7 0.4-0.1 0.1-0.2 0.2-0.3 0.2 0.1 0.3 0 0.5-0.4 0.5-0.4 0-0.6-0.2-0.7-0.6l-0.2 0.3c-0.4-0.2-0.9-0.3-1.3-0.4l-0.4 0.1c-0.4-0.1-0.4-0.3 0-0.3-0.4-0.2-0.4-0.4-0.1-0.6-0.3-0.1-0.5-0.2-0.8-0.3-0.5 0.4-1.1 0.6-1.7 0.6 0 0.1 0 0.2 0 0.3 0.3-0.3 0.5-0.3 0.8 0-0.2 0.1-0.3 0.3-0.2 0.6-0.4 0-0.6-0.1-0.8-0.4-0.1 0.1-0.3 0.1-0.4 0.1-0.3-0.6-0.8-1.1-1.5-1.4-0.2 0.1-0.4 0-0.4-0.2-0.2 0-0.3 0.1-0.4 0.1l0.2 0.1c-0.2 0.2-0.4 0.4-0.5 0.7 0 0-0.1 0-0.2-0.1-0.3-0.3-0.6-0.7-0.9-1.1-0.1-0.1-0.3-0.2-0.4-0.2-0.3-0.3-0.6-0.7-0.7-1.1 0.2 0 0.2 0.1 0.3 0.3 0.1-0.4 0-0.7-0.1-1.1 0.1-0.2 0.3-0.3 0.4-0.5 0.3 0.2 0.6 0.3 1 0.3l-0.1 0.1 0.3 0.1-0.1 0.2c0.1 0 0.2 0.1 0.4 0.1 0.4 0 0.9-0.1 1.3-0.2 0.1 0.1 0.2 0.1 0.3 0.2-0.1 0.2 0 0.4 0.2 0.5l-0.1 0.1c0.1 0.1 0.3 0.2 0.4 0.2 0.4-0.2 0.7-0.1 0.9 0.1l0.1-0.1c0.1 0.2 0.2 0.3 0.3 0.5l0.3 0.5c0.3-0.1 0.5-0.1 0.8 0.1 0.2-0.1 0.4-0.2 0.6-0.3 0.4 0.2 0.8 0.4 1.1 0.7 0.7 0.2 1.3 0.4 1.9 0.5 0.3 0 0.5-0.1 0.8-0.2 0.2 0.2 0.4 0.2 0.6-0.1l0.1 0.1 0.3-0.7c0.3-0.1 0.5-0.1 0.8 0 0.1-0.2 0.2-0.5 0.3-0.9l0.1 0.2 0.2-0.4c-0.4-0.1-0.4-0.3-0.1-0.4 0.4 0.3 0.8 0.6 1.3 0.8 0 0.3 0.1 0.4 0.4 0.3-0.1-0.3 0-0.5 0.1-0.7 0.3 0 0.6 0.2 0.8 0.5 0.2-0.3 0.3-0.6 0.4-0.8-0.6-0.3-1.2-0.5-1.9-0.7-0.1 0.1-0.3 0.2-0.5 0.2-0.5 0-1 0-1.5-0.1-0.2-0.2-0.3-0.3-0.4-0.5 0.2-0.9 0.5-0.9 0.9-0.2l0.1-0.2c0 0.2 0.1 0.3 0.2 0.4 0.2 0.2 0.5 0.2 0.9 0.1-0.3-0.1-0.4-0.3-0.4-0.6l0.9-0.3c0-0.5 0.1-0.6 0.2-0.1 0-0.4 0.1-0.8 0.2-1.2v1.2h0.3c0-0.4 0-0.8-0.1-1.2-0.2-0.1-0.3-0.3-0.2-0.5 0.2 0 0.4 0 0.5 0.2z"></path><path fill="#c36600" d="m20.8 22.3h0.2c0.1 0.4 0.1 0.8 0.1 1.2h-0.3v-1.2z"></path><path fill="#e9cb7e" d="m2 26.2l0.2 0.1 0.3 0.9c-0.2-0.3-0.4-0.7-0.5-1z" opacity=".671"></path><path fill="#e8c981" d="m33.8 26.4c-0.1 0.4-0.3 0.8-0.6 1.2-0.1 0.1-0.2 0.2-0.3 0.2 0.2-0.5 0.5-1 0.9-1.4z" opacity=".565"></path><path fill="#da8d10" d="m31.1 25.3c0.1-0.1 0.2 0 0.2 0-0.1 0.5-0.4 1-0.8 1.4 0.2 0.1 0.3 0.2 0.3 0.5l0.9-0.4c0 0.6-0.1 1.1-0.4 1.6-0.1-0.1-0.2-0.1-0.3 0 0 0.1 0 0.2-0.1 0.3 0.1 0.1 0.1 0.2-0.1 0.2 0.1 0.1 0.2 0.2 0.4 0.2l-0.1 0.2c0.1 0 0.2 0 0.3 0v0.3c-0.1 0-0.2 0-0.3 0.1 0.1 0.1 0.1 0.2 0.1 0.4-0.2 0-0.3 0.1-0.4 0.2 0 0-0.1-0.1-0.1-0.1-0.1 0.1-0.2 0.3-0.2 0.5h-0.3c-0.1 0.2-0.2 0.5-0.3 0.7-0.3 0.3-0.6 0.5-0.9 0.7-0.2 0-0.4 0.1-0.5 0.2l-0.1-0.2c-0.1 0.1-0.1 0.1-0.2 0.1-0.2 0-0.5 0-0.7-0.1 0.4-0.2 0.8-0.5 1.2-0.8 0.2-0.4 0.4-0.8 0.7-1.3 0.2 0.1 0.3 0 0.4-0.2-0.1-0.1-0.2-0.2-0.4-0.2 0-0.3-0.2-0.4-0.5-0.1-0.1-0.1-0.3 0-0.4 0.2-0.2 0-0.4 0.1-0.7 0.2 0.5 0.3 0.4 0.3-0.1 0.2-0.6 0.2-1.2 0.5-1.8 1-0.2 0-0.3 0-0.5 0 0 0.4-0.1 0.4-0.2 0.1l-0.1 0.2c-0.1 0-0.2-0.1-0.3-0.1 2.2-1.1 4.1-2.8 5.5-4.8 0.3-0.4 0.6-0.8 0.8-1.2z"></path><path fill="#b46e12" d="m3.9 13.4c0 0.1 0.1 0.1 0.1 0.2-0.7 2.3-0.8 4.7-0.4 7 0 0.3 0.1 0.4 0.3 0.5 0 0.4 0.2 0.7 0.3 1 0.1 0.5 0.2 1 0.5 1.5 0.1 0.2 0.2 0.3 0.4 0.4 0 0.6 0.3 1.1 0.7 1.5 0.1 0.4 0.4 0.8 0.7 1.1 0.5 0.8 1.1 1.5 1.9 2.1 0 0 0.1 0 0.1-0.1 0.1 0.2 0.2 0.4 0.3 0.6 0.3 0.2 0.6 0.4 0.7 0.8-0.4-0.2-0.8-0.4-1.1-0.8-0.8-0.7-1.5-1.5-2.3-2.3-1.7-2.3-2.6-5-2.9-7.9-0.1-1.9 0.1-3.8 0.7-5.6z"></path><path fill="#d9921c" d="m24.4 26.3c0.2 0.3 0.5 0.6 0.9 0.8-0.3 0-0.3 0.1-0.2 0.3 0 0.4-0.2 0.6-0.5 0.6 0.2 0 0.4 0.1 0.6 0.3 0.1-0.2 0.3-0.2 0.4 0l0.3-0.2c0.1 0.1 0.2 0 0.3-0.1 0.2 0 0.3 0 0.4 0.1-0.1 0.2-0.3 0.4-0.5 0.4-0.2-0.3-0.3-0.3-0.5 0l0.7 0.2-0.1 0.1c0.3 0.2 0.2 0.3-0.1 0.2-0.2 0.1-0.2 0.2 0.1 0.2-0.2 0.2-0.3 0.2-0.5 0.3 0.1 0.1 0.1 0.1 0.2 0.1 0.2-0.1 0.3-0.1 0.3 0.2h-0.6v0.3c-0.2 0-0.4-0.1-0.6-0.2-0.1 0-0.2 0.1-0.4 0.1-0.1-0.2-0.3-0.3-0.6-0.3 0.3 0.2 0.3 0.4 0.1 0.6l-0.1-0.4c-0.2 0-0.4 0-0.5 0-0.8 0.3-1.5 0.5-2.3 0.6v-0.9h-0.6v0.4c-0.2 0-0.3 0-0.5-0.1 0.1-0.2 0.1-0.4-0.1-0.5l-0.5 0.1c-0.2-0.1-0.4-0.3-0.7-0.4-0.1 0-0.2 0.2-0.2 0.3l-0.2-0.2c-0.1 0.1-0.2 0.1-0.3 0-0.1 0.2-0.3 0.4-0.6 0.6l-0.1-0.3c0 0.3-0.2 0.6-0.5 0.8 0.1 0.1 0.1 0.3 0 0.5-0.2-0.2-0.2-0.3-0.1-0.5h-0.5c-0.1 0.2-0.2 0.2-0.3 0.1-0.2 0.2-0.2 0.3 0.1 0.3-0.4 0.1-0.4 0.2 0 0.2 0.2 0.1 0.2 0.2 0 0.2-0.2 0-0.4-0.2-0.6-0.3l-0.1 0.1c-0.4-0.3-0.7-0.3-1 0l-0.1-0.2c-0.2 0.1-0.4 0.1-0.6 0l-0.1 0.2c-0.2-0.2-0.3-0.3-0.6-0.5l-0.1 0.1c0-0.2-0.1-0.5-0.2-0.7-0.1-0.1-0.2-0.2-0.4-0.2 0-0.2 0-0.3 0-0.4-0.5 0.3-1 0.7-1.5 1 0-0.2-0.1-0.4-0.2-0.6-0.2 0.1-0.5 0-0.6-0.1 0.7-0.2 0.7-0.3 0-0.2-0.2-0.5-0.4-0.9-0.4-1.5l-0.2 0.6c-0.3-0.2-0.6-0.2-0.9 0 0.1-0.4 0-0.5-0.4-0.2-0.1-0.1-0.1-0.2-0.1-0.2 0.1-0.3 0.3-0.5 0.5-0.7l-0.2-0.1c0.1 0 0.2-0.1 0.4-0.1 0 0.2 0.2 0.3 0.4 0.2 0.7 0.3 1.2 0.8 1.5 1.4 0.1 0 0.3 0 0.4-0.1 0.2 0.3 0.4 0.4 0.8 0.4-0.1-0.3 0-0.5 0.2-0.7-0.3-0.2-0.5-0.2-0.8 0.1 0-0.1 0-0.2 0-0.3 0.6 0 1.2-0.2 1.7-0.6 0.3 0.1 0.5 0.2 0.8 0.3-0.3 0.2-0.3 0.4 0.1 0.5-0.4 0.1-0.4 0.3 0 0.4l0.4-0.1c0.4 0.1 0.9 0.2 1.3 0.4l0.2-0.3c0.1 0.4 0.3 0.6 0.7 0.6 0.4 0 0.5-0.2 0.4-0.5 0.1 0 0.2-0.1 0.3-0.2 0.5 0.3 0.7 0.1 0.7-0.4 0.3 0 0.5 0 0.7 0.1 0.3-0.1 0.5-0.2 0.7-0.5-0.3-0.4-0.3-0.9 0-1.3 0.3 0.3 0.6 0.6 1 0.8 0.4 0.1 0.8 0.1 1.2 0 0.1-0.1 0.1-0.3 0.1-0.5 0.1 0.2 0.3 0.3 0.4 0.3 0.2-0.3 0.2-0.6 0.3-0.9 0.1-0.3 0.3-0.6 0.4-0.8 0.3 0.3 0.5 0.6 0.6 1 0.4-0.4 0.8-0.4 1.2-0.1z"></path><path fill="#e6b559" d="m2.9 27.7c0.2 0.1 0.3 0.3 0.4 0.5 0.2 0.1 0.3 0.1 0.5 0.1 0 0.2 0 0.4 0 0.6 0.2 0.2 0.4 0.5 0.5 0.7-0.6-0.5-1.1-1.1-1.4-1.9z"></path><path fill="#e5b45b" d="m32.9 27.8c-0.2 0.5-0.4 0.9-0.8 1.2 0.1-0.2 0.1-0.5 0.1-0.7 0.1 0 0.3 0 0.4-0.1 0-0.1 0.2-0.3 0.3-0.4z"></path><path fill="#df9311" d="m4.4 24.6c0.6 1 1.2 1.9 1.8 2.8 0.9 1.2 2 2.2 3.2 3 0.4 0.3 0.8 0.5 1.2 0.7-0.4 0-0.8-0.2-1.1-0.6l-0.2 0.2c0.4 0.2 0.4 0.5 0.1 0.8 0 0 0.1 0.1 0.1 0.2-0.3 0.4-0.6 0.8-0.9 1.2l0.1 0.1h-0.4c0 0 0.1 0.1 0.1 0.1-0.4-0.1-0.8-0.3-1-0.6-0.2-0.3-0.3-0.4-0.6-0.5-0.3-0.1-0.5-0.3-0.7-0.6l-0.6-0.7c-0.1-0.2 0-0.3 0.2-0.4-0.1-0.1-0.1-0.3-0.1-0.4l0.1 0.1 0.8-0.7-0.1-0.2c0-0.1 0.1-0.1 0.2 0 0.1-0.1 0.2-0.3 0.2-0.4-0.8-1.1-1.6-2.3-2.4-3.4-0.1-0.3-0.2-0.5-0.3-0.7 0.1-0.2 0.2-0.2 0.3 0z"></path><path fill="#e5ae56" d="m31.2 30.1c-0.4 0.5-0.8 0.9-1.3 1.3 0.1-0.2 0.2-0.5 0.3-0.7h0.3c0-0.2 0.1-0.4 0.2-0.5 0 0 0.1 0.1 0.1 0.1 0.1-0.1 0.2-0.2 0.4-0.2z"></path><path fill="#e6c375" d="m4.9 30.3c0.2 0.1 0.4 0.2 0.6 0.4l0.6 0.7c-0.4-0.2-0.9-0.6-1.2-1.1z" opacity=".988"></path><path fill="#d48a16" d="m6.5 26.6c0.1 0 0.3 0.1 0.4 0.2 0.3 0.4 0.6 0.8 0.9 1.1 0.1 0.1 0.2 0.1 0.2 0.1 0 0 0 0.1 0.1 0.2 0.4-0.3 0.5-0.2 0.5 0.2 0.2-0.2 0.5-0.2 0.9 0l0.1-0.6c0 0.6 0.2 1 0.4 1.5 0.7-0.1 0.7 0 0 0.2 0.1 0.1 0.4 0.2 0.6 0.1 0.1 0.2 0.2 0.4 0.2 0.6 0.5-0.3 1-0.7 1.5-1 0 0.1 0 0.2 0 0.4 0.2 0 0.3 0.1 0.4 0.2 0.1 0.2 0.2 0.5 0.2 0.7l0.2-0.1c0.2 0.2 0.3 0.3 0.5 0.5l0.1-0.2c0.2 0.1 0.4 0.1 0.6 0l0.1 0.2c0.3-0.3 0.6-0.3 1 0l0.1-0.1c0.2 0.1 0.4 0.3 0.6 0.3 0.2 0 0.2-0.1 0-0.2-0.4 0-0.4-0.1 0-0.2-0.3 0-0.3-0.1-0.1-0.3 0.1 0.1 0.2 0.1 0.3-0.1h0.5c-0.1 0.2-0.1 0.3 0.1 0.5 0.1-0.2 0.1-0.4 0-0.5 0.3-0.2 0.5-0.5 0.5-0.8l0.2 0.3c0.2-0.2 0.4-0.4 0.5-0.6 0.1 0.1 0.2 0.1 0.4 0l0.1 0.2c0-0.1 0.1-0.3 0.2-0.3 0.3 0.1 0.5 0.3 0.7 0.4l0.5-0.1c0.2 0.1 0.2 0.3 0.1 0.5 0.2 0.1 0.3 0.1 0.5 0.1v-0.4h0.6v0.9c0.8-0.1 1.5-0.3 2.3-0.6 0.1 0 0.3 0 0.5 0l0.1 0.4c0.2-0.2 0.2-0.4-0.1-0.6 0.3 0 0.5 0.1 0.6 0.3 0.2 0 0.3-0.1 0.4-0.1 0.2 0.1 0.4 0.2 0.6 0.2v-0.3h0.6c-0.3 0.1-0.5 0.3-0.6 0.5-3.1 1.6-6.4 2.3-9.9 1.9-1.8-0.4-3.6-1-5.2-1.9-0.3-0.1-0.7-0.2-1-0.3-0.1-0.4-0.4-0.6-0.7-0.8-0.1-0.2-0.2-0.4-0.2-0.6-0.1 0.1-0.2 0.1-0.2 0.1-0.8-0.6-1.4-1.3-1.9-2.1z"></path><path fill="#f4d66c" d="m30.5 25.7c0 0.3-0.1 0.5-0.2 0.8-1.4 2-3.3 3.7-5.5 4.8-0.5 0.1-0.9 0.3-1.2 0.7-1.1 0.2-2.1 0.5-3.1 0.8-2.6 0.5-5.1 0.2-7.5-0.6-0.8-0.3-1.6-0.7-2.4-1.1-0.4-0.2-0.8-0.4-1.2-0.7-1.2-0.8-2.3-1.8-3.2-3l-0.1-0.5c0.8 0.8 1.5 1.6 2.3 2.4 0.3 0.3 0.7 0.5 1.1 0.7 0.5 0.5 1.1 0.8 1.8 1.2 0.4 0.1 0.7 0.3 1.1 0.4 0.4 0.2 0.7 0.4 1.2 0.5 2.1 0.6 4.2 0.7 6.4 0.5 4.5-0.7 8.1-3 10.5-6.9z"></path><path fill="#d48005" d="m28.2 32.2c0.1 0.2 0.1 0.3 0 0.5-0.3 0.1-0.5 0.2-0.7 0.4-0.3 0.3-0.6 0.5-0.9 0.6-0.4 0.1-0.8 0.2-1 0.6-0.2 0-0.4 0.1-0.6 0.2-0.2 0-0.5 0-0.6 0.2-0.2 0.1-0.5 0.2-0.7 0.2-0.5 0.1-0.9 0.2-1.4 0.4-0.1-0.1-0.2-0.2-0.4-0.3-0.6 0.2-1.2 0.3-1.8 0.3l-1.1 0.3 0.7 0.1c-1.6 0-3.3 0-4.9-0.1-0.2 0-0.3 0-0.5-0.1 0-0.1-0.2-0.1-0.3-0.2 0.5-0.1 0.5-0.1 0-0.2 0.1 0 0.2-0.1 0.3-0.2-0.1-0.2-0.3-0.5-0.5-0.7 0.2-0.3 0.5-0.6 0.9-0.8 0-0.1-0.1-0.3-0.1-0.4l0.3-0.2c0.5 0.2 1 0.3 1.6 0.4 1 0.1 2 0 3 0 0.4-0.1 0.7-0.2 1-0.4 1-0.3 2-0.6 3.1-0.8 0.3-0.4 0.7-0.6 1.2-0.7 0.1 0 0.2 0.1 0.3 0.1l0.1-0.2c0.1 0.3 0.2 0.3 0.2-0.1 0.2 0 0.3 0 0.5 0 0.6-0.5 1.2-0.8 1.8-1 0.5 0.1 0.6 0.1 0.1-0.2 0.3-0.1 0.5-0.2 0.7-0.2 0.1-0.2 0.3-0.3 0.4-0.2 0.3-0.3 0.5-0.2 0.5 0.1 0.2 0 0.3 0.1 0.4 0.2-0.1 0.2-0.2 0.3-0.4 0.2-0.3 0.5-0.5 0.9-0.7 1.3-0.4 0.3-0.8 0.6-1.2 0.8 0.2 0.1 0.5 0.1 0.7 0.1z"></path><path fill="#e3bd72" d="m6.8 32c0.3 0.1 0.4 0.2 0.6 0.5-0.3-0.1-0.5-0.3-0.6-0.5z" opacity=".988"></path><path fill="#da8c0f" d="m10.6 31.1c0.8 0.4 1.6 0.8 2.4 1.1 2.4 0.8 4.9 1.1 7.5 0.6-0.3 0.2-0.6 0.3-1 0.4-1 0-2 0.1-3 0-0.6-0.1-1.1-0.2-1.6-0.4l-0.3 0.2c0 0.1 0.1 0.3 0.1 0.4-0.4 0.2-0.7 0.5-0.9 0.8 0.2 0.2 0.4 0.5 0.5 0.7-0.1 0.1-0.2 0.2-0.3 0.2 0.5 0.1 0.5 0.1 0 0.2 0.1 0.1 0.3 0.1 0.3 0.2-1-0.1-2-0.4-3-0.8 0-0.2-0.2-0.2-0.3-0.2-0.5-0.1-0.9-0.3-1.3-0.6-0.4-0.3-0.8-0.6-1.3-0.8 0 0-0.1-0.1-0.1-0.1h0.4l-0.1-0.1c0.3-0.4 0.6-0.8 0.9-1.2 0-0.1-0.1-0.2-0.1-0.2 0.3-0.3 0.3-0.6-0.1-0.8l0.1-0.2c0.4 0.4 0.8 0.6 1.2 0.6z"></path><path fill="#b06810" d="m32.1 21.9c-0.3 1.3-0.9 2.6-1.6 3.8-2.4 3.9-6 6.2-10.5 6.9-1.8-0.1-3.5-0.2-5.3-0.4-0.8-0.2-1.5-0.4-2.3-0.6-0.4-0.1-0.7-0.3-1.1-0.4-0.7-0.4-1.3-0.7-1.8-1.2 0.3 0.1 0.7 0.2 1 0.3 1.6 0.9 3.4 1.5 5.2 1.9 3.5 0.4 6.8-0.3 9.9-1.9 0.1-0.2 0.3-0.4 0.6-0.5 0.3-0.3 0.7-0.6 1-1 0.1 0 0.3-0.1 0.4-0.2 0.2-0.3 0.4-0.5 0.8-0.5 0-0.1 0-0.3 0.1-0.4 1-0.9 1.8-2 2.3-3.3 0 0 0.1-0.1 0.1-0.2 0.3-0.5 0.6-1.1 0.9-1.7-0.1-0.3 0-0.5 0.3-0.6z"></path><path fill="#e3ab58" d="m29 32.1c-0.2 0.3-0.5 0.5-0.8 0.6 0.1-0.2 0.1-0.3 0-0.5 0.1 0 0.1 0 0.2-0.1l0.1 0.2c0.1-0.1 0.3-0.2 0.5-0.2z"></path><path fill="#a15810" d="m12.4 31.6c0.8 0.2 1.5 0.4 2.3 0.6 1.8 0.2 3.5 0.3 5.3 0.4-2.2 0.2-4.3 0.1-6.4-0.5-0.5-0.1-0.8-0.3-1.2-0.5z"></path><path fill="#e6c986" d="m28.2 32.7c-0.2 0.2-0.4 0.4-0.7 0.4 0.2-0.2 0.4-0.3 0.7-0.4z" opacity=".251"></path><path fill="#dfbe80" d="m26.6 33.7c-0.3 0.2-0.6 0.4-1 0.6 0.2-0.4 0.6-0.5 1-0.6z" opacity=".694"></path><path fill="#d9b067" d="m8.4 33.1c0.5 0.2 0.9 0.5 1.3 0.8-0.5-0.2-0.9-0.4-1.3-0.8z" opacity=".875"></path><path fill="#eae3bf" d="m9.3 33.9c0.1 0.1 0.1 0.1 0 0z m17.4 0c0.2 0.1 0.2 0.1 0 0z" opacity=".075"></path><path fill="#edd79c" d="m11 34.5c0.1 0 0.3 0 0.3 0.2-0.2 0-0.3-0.1-0.3-0.2z" opacity=".153"></path><path fill="#d6ae72" d="m25 34.5c0 0.1 0 0.1 0 0.2-0.2-0.1-0.4-0.1-0.6 0 0.1-0.2 0.4-0.2 0.6-0.2z" opacity=".345"></path><path fill="#d68c2f" d="m23.7 34.9c-0.2 0.1-0.4 0.2-0.6 0.3-1 0.2-2.1 0.5-3.1 0.7h-0.3c-0.2-0.1-0.4-0.1-0.6 0h-2.3c-0.7 0-1.3-0.2-2-0.3 1.6 0.1 3.3 0.1 4.9 0.1l-0.7-0.1 1.1-0.3c0.6 0 1.2-0.1 1.8-0.3 0.2 0.1 0.3 0.2 0.4 0.3 0.5-0.2 0.9-0.3 1.4-0.4z"></path></svg>