<?xml version="1.0" encoding="UTF-8"?>
<!DOCTYPE svg PUBLIC "-//W3C//DTD SVG 1.1//EN" "http://www.w3.org/Graphics/SVG/1.1/DTD/svg11.dtd">
<svg xmlns="http://www.w3.org/2000/svg" version="1.1" width="320px" height="320px" style="shape-rendering:geometricPrecision; text-rendering:geometricPrecision; image-rendering:optimizeQuality; fill-rule:evenodd; clip-rule:evenodd" xmlns:xlink="http://www.w3.org/1999/xlink">
<g><path style="opacity:1" fill="#fdfefe" d="M -0.5,-0.5 C 106.167,-0.5 212.833,-0.5 319.5,-0.5C 319.5,106.167 319.5,212.833 319.5,319.5C 212.833,319.5 106.167,319.5 -0.5,319.5C -0.5,212.833 -0.5,106.167 -0.5,-0.5 Z"/></g>
<g><path style="opacity:1" fill="#163067" d="M 72.5,52.5 C 80.1667,52.5 87.8333,52.5 95.5,52.5C 92.3586,53.3213 89.0252,53.8213 85.5,54C 86.938,54.2189 88.2713,54.7189 89.5,55.5C 87.1493,56.0118 85.1493,57.0118 83.5,58.5C 85.772,59.4853 88.1053,60.3187 90.5,61C 88.4233,61.1922 86.4233,61.6922 84.5,62.5C 85.7287,63.2811 87.062,63.7811 88.5,64C 77.4836,64.7998 77.1502,65.7998 87.5,67C 78.8748,68.2014 70.2081,68.7014 61.5,68.5C 64.6757,62.8106 68.3423,57.4773 72.5,52.5 Z"/></g>
<g><path style="opacity:1" fill="#19356e" d="M 223.5,52.5 C 223.082,53.2216 222.416,53.7216 221.5,54C 222.308,54.3076 222.975,54.8076 223.5,55.5C 219.356,56.0638 215.356,56.8971 211.5,58C 214.393,59.1488 217.393,59.6488 220.5,59.5C 220.64,61.1238 219.973,62.2904 218.5,63C 220.134,63.4935 221.801,63.6602 223.5,63.5C 223.421,64.9305 223.754,66.2638 224.5,67.5C 210.178,68.6661 195.845,68.8328 181.5,68C 188.666,66.7016 196,66.035 203.5,66C 196.542,64.936 189.542,64.2694 182.5,64C 187.397,62.9399 187.063,61.7732 181.5,60.5C 184.459,60.356 187.126,59.0226 189.5,56.5C 186.346,53.9067 182.679,52.9067 178.5,53.5C 191.462,52.4947 206.462,52.1614 223.5,52.5 Z"/></g>
<g><path style="opacity:1" fill="#2b5aa5" d="M 72.5,52.5 C 74.6074,51.5318 76.9407,51.1984 79.5,51.5C 134.669,51.1677 189.669,51.501 244.5,52.5C 237.5,52.5 230.5,52.5 223.5,52.5C 206.462,52.1614 191.462,52.4947 178.5,53.5C 176.611,54.322 174.611,55.1553 172.5,56C 175.553,56.1786 178.553,56.6786 181.5,57.5C 180.5,58.3333 179.5,59.1667 178.5,60C 179.345,61.5581 178.679,62.5581 176.5,63C 174.866,63.4935 173.199,63.6602 171.5,63.5C 171.5,65.5 171.5,67.5 171.5,69.5C 174.713,69.19 177.713,69.5233 180.5,70.5C 152.159,70.8331 123.825,70.4998 95.5,69.5C 100.802,68.6705 106.136,68.1705 111.5,68C 106.81,67.4971 102.143,66.8304 97.5,66C 96.5842,65.7216 95.9175,65.2216 95.5,64.5C 111.549,64.9215 127.549,64.4215 143.5,63C 138.136,62.8295 132.802,62.3295 127.5,61.5C 128.376,60.7492 129.376,60.2492 130.5,60C 134.821,59.501 139.154,59.3343 143.5,59.5C 143.5,58.5 143.5,57.5 143.5,56.5C 138.206,56.3178 138.206,55.8178 143.5,55C 132.659,54.8304 121.992,54.3304 111.5,53.5C 106.36,52.5119 101.026,52.1786 95.5,52.5C 87.8333,52.5 80.1667,52.5 72.5,52.5 Z"/></g>
<g><path style="opacity:1" fill="#173878" d="M 95.5,52.5 C 101.026,52.1786 106.36,52.5119 111.5,53.5C 108.022,53.1842 104.688,53.6842 101.5,55C 100.167,55.6667 100.167,56.3333 101.5,57C 97.8315,58.4085 97.8315,60.0751 101.5,62C 98.9488,62.0023 96.9488,62.8356 95.5,64.5C 95.9175,65.2216 96.5842,65.7216 97.5,66C 102.143,66.8304 106.81,67.4971 111.5,68C 106.136,68.1705 100.802,68.6705 95.5,69.5C 123.825,70.4998 152.159,70.8331 180.5,70.5C 205.833,70.5 231.167,70.5 256.5,70.5C 190.833,71.8333 125.167,71.8333 59.5,70.5C 59.8333,69.5 60.5,68.8333 61.5,68.5C 70.2081,68.7014 78.8748,68.2014 87.5,67C 77.1502,65.7998 77.4836,64.7998 88.5,64C 87.062,63.7811 85.7287,63.2811 84.5,62.5C 86.4233,61.6922 88.4233,61.1922 90.5,61C 88.1053,60.3187 85.772,59.4853 83.5,58.5C 85.1493,57.0118 87.1493,56.0118 89.5,55.5C 88.2713,54.7189 86.938,54.2189 85.5,54C 89.0252,53.8213 92.3586,53.3213 95.5,52.5 Z"/></g>
<g><path style="opacity:1" fill="#215ca4" d="M 111.5,53.5 C 121.992,54.3304 132.659,54.8304 143.5,55C 138.206,55.8178 138.206,56.3178 143.5,56.5C 143.5,57.5 143.5,58.5 143.5,59.5C 139.154,59.3343 134.821,59.501 130.5,60C 129.376,60.2492 128.376,60.7492 127.5,61.5C 132.802,62.3295 138.136,62.8295 143.5,63C 127.549,64.4215 111.549,64.9215 95.5,64.5C 96.9488,62.8356 98.9488,62.0023 101.5,62C 97.8315,60.0751 97.8315,58.4085 101.5,57C 100.167,56.3333 100.167,55.6667 101.5,55C 104.688,53.6842 108.022,53.1842 111.5,53.5 Z"/></g>
<g><path style="opacity:1" fill="#21478b" d="M 223.5,52.5 C 230.5,52.5 237.5,52.5 244.5,52.5C 248.5,58.5 252.5,64.5 256.5,70.5C 231.167,70.5 205.833,70.5 180.5,70.5C 177.713,69.5233 174.713,69.19 171.5,69.5C 171.5,67.5 171.5,65.5 171.5,63.5C 173.199,63.6602 174.866,63.4935 176.5,63C 178.679,62.5581 179.345,61.5581 178.5,60C 179.5,59.1667 180.5,58.3333 181.5,57.5C 178.553,56.6786 175.553,56.1786 172.5,56C 174.611,55.1553 176.611,54.322 178.5,53.5C 182.679,52.9067 186.346,53.9067 189.5,56.5C 187.126,59.0226 184.459,60.356 181.5,60.5C 187.063,61.7732 187.397,62.9399 182.5,64C 189.542,64.2694 196.542,64.936 203.5,66C 196,66.035 188.666,66.7016 181.5,68C 195.845,68.8328 210.178,68.6661 224.5,67.5C 223.754,66.2638 223.421,64.9305 223.5,63.5C 221.801,63.6602 220.134,63.4935 218.5,63C 219.973,62.2904 220.64,61.1238 220.5,59.5C 217.393,59.6488 214.393,59.1488 211.5,58C 215.356,56.8971 219.356,56.0638 223.5,55.5C 222.975,54.8076 222.308,54.3076 221.5,54C 222.416,53.7216 223.082,53.2216 223.5,52.5 Z"/></g>
<g><path style="opacity:1" fill="#dae4f0" d="M 69.5,48.5 C 127.998,47.501 186.664,47.1676 245.5,47.5C 250.161,55.4833 255.328,63.1499 261,70.5C 261.279,75.7227 259.446,80.0561 255.5,83.5C 255.167,82.1667 254.833,80.8333 254.5,79.5C 255.338,79.1583 255.672,78.4916 255.5,77.5C 257.048,77.1788 257.715,76.1788 257.5,74.5C 258.506,73.6043 258.506,72.9377 257.5,72.5C 257.672,71.5084 257.338,70.8417 256.5,70.5C 252.5,64.5 248.5,58.5 244.5,52.5C 189.669,51.501 134.669,51.1677 79.5,51.5C 134.335,50.8333 189.335,50.1667 244.5,49.5C 186.17,48.5 127.837,48.1667 69.5,48.5 Z"/></g>
<g><path style="opacity:1" fill="#92a1c2" d="M 59.5,70.5 C 125.167,71.8333 190.833,71.8333 256.5,70.5C 257.338,70.8417 257.672,71.5084 257.5,72.5C 191.163,72.8333 124.83,72.5 58.5,71.5C 58.6236,70.8933 58.9569,70.56 59.5,70.5 Z"/></g>
<g><path style="opacity:1" fill="#f6fbfb" d="M 69.5,48.5 C 127.837,48.1667 186.17,48.5 244.5,49.5C 189.335,50.1667 134.335,50.8333 79.5,51.5C 76.9407,51.1984 74.6074,51.5318 72.5,52.5C 68.3423,57.4773 64.6757,62.8106 61.5,68.5C 60.5,68.8333 59.8333,69.5 59.5,70.5C 58.9569,70.56 58.6236,70.8933 58.5,71.5C 124.83,72.5 191.163,72.8333 257.5,72.5C 258.506,72.9377 258.506,73.6043 257.5,74.5C 256.883,74.3893 256.383,74.056 256,73.5C 190.402,74.165 124.902,74.8316 59.5,75.5C 59.4326,76.9587 59.7659,78.2921 60.5,79.5C 60.5,81.5 60.5,83.5 60.5,85.5C 57.2866,81.7658 54.6199,77.5991 52.5,73C 57.9822,64.688 63.6489,56.5214 69.5,48.5 Z"/></g>
<g><path style="opacity:1" fill="#fef4e2" d="M 257.5,74.5 C 257.715,76.1788 257.048,77.1788 255.5,77.5C 255.5,77.1667 255.5,76.8333 255.5,76.5C 190.335,75.5009 125.002,75.1675 59.5,75.5C 124.902,74.8316 190.402,74.165 256,73.5C 256.383,74.056 256.883,74.3893 257.5,74.5 Z"/></g>
<g><path style="opacity:1" fill="#f0b077" d="M 59.5,75.5 C 125.002,75.1675 190.335,75.5009 255.5,76.5C 248.5,76.5 241.5,76.5 234.5,76.5C 182.833,76.5 131.167,76.5 79.5,76.5C 73.4632,76.1707 67.4632,76.5041 61.5,77.5C 62.2458,78.7362 62.5792,80.0695 62.5,81.5C 61.8333,80.8333 61.1667,80.1667 60.5,79.5C 59.7659,78.2921 59.4326,76.9587 59.5,75.5 Z"/></g>
<g><path style="opacity:1" fill="#f37f36" d="M 79.5,76.5 C 77.7078,77.3091 75.7078,77.8091 73.5,78C 80.8258,78.4997 88.1591,78.6663 95.5,78.5C 92.0381,79.4816 88.3714,79.815 84.5,79.5C 84.0423,82.3938 84.709,84.8938 86.5,87C 84.4172,88.3204 84.7506,89.6538 87.5,91C 81.4498,92.1971 75.4498,92.6971 69.5,92.5C 66.8906,88.9332 64.5572,85.2665 62.5,81.5C 62.5792,80.0695 62.2458,78.7362 61.5,77.5C 67.4632,76.5041 73.4632,76.1707 79.5,76.5 Z"/></g>
<g><path style="opacity:1" fill="#f58b3a" d="M 95.5,78.5 C 135.187,78.164 171.521,78.4973 204.5,79.5C 204.439,81.5922 203.439,83.0922 201.5,84C 203.83,85.0753 205.163,86.5753 205.5,88.5C 203.155,90.4047 200.488,91.5714 197.5,92C 199.246,92.4709 200.913,93.1376 202.5,94C 201.263,94.2321 200.263,94.7321 199.5,95.5C 188.833,95.5 178.167,95.5 167.5,95.5C 167.667,136.835 167.5,178.168 167,219.5C 166.209,220.745 165.709,222.078 165.5,223.5C 163.5,226.5 161.5,229.5 159.5,232.5C 158.579,231.019 157.412,229.686 156,228.5C 155.228,228.645 154.561,228.978 154,229.5C 153.505,226.469 153.671,223.469 154.5,220.5C 155.5,220.5 156.5,220.5 157.5,220.5C 157.669,215.959 157.002,215.626 155.5,219.5C 154.522,219.023 153.689,218.357 153,217.5C 152.182,179.315 152.348,141.148 153.5,103C 152.746,97.6284 151.413,92.795 149.5,88.5C 150.805,85.9469 151.805,83.2802 152.5,80.5C 139.179,79.334 125.846,79.1673 112.5,80C 112.275,82.7424 112.608,85.5757 113.5,88.5C 114.552,88.3505 115.552,88.5172 116.5,89C 115.167,89.3333 113.833,89.6667 112.5,90C 113.167,90.3333 113.833,90.6667 114.5,91C 112.231,91.7581 110.064,91.5914 108,90.5C 106.601,91.2266 105.101,91.7266 103.5,92C 106.226,92.1816 108.893,92.6816 111.5,93.5C 106.015,94.1668 100.681,94.8335 95.5,95.5C 87.4931,95.6664 79.4931,95.4997 71.5,95C 70.6195,94.2917 69.9528,93.4584 69.5,92.5C 75.4498,92.6971 81.4498,92.1971 87.5,91C 84.7506,89.6538 84.4172,88.3204 86.5,87C 84.709,84.8938 84.0423,82.3938 84.5,79.5C 88.3714,79.815 92.0381,79.4816 95.5,78.5 Z"/></g>
<g><path style="opacity:1" fill="#f69236" d="M 79.5,76.5 C 131.167,76.5 182.833,76.5 234.5,76.5C 233.884,78.4171 232.55,79.5838 230.5,80C 231.357,80.6891 232.023,81.5224 232.5,82.5C 231.289,83.7202 231.289,84.8869 232.5,86C 231.167,86.6667 230.167,87.6667 229.5,89C 230.833,89.6667 230.833,90.3333 229.5,91C 233.046,92.1737 236.713,92.8404 240.5,93C 241.252,93.6708 241.586,94.5041 241.5,95.5C 227.5,95.5 213.5,95.5 199.5,95.5C 200.263,94.7321 201.263,94.2321 202.5,94C 200.913,93.1376 199.246,92.4709 197.5,92C 200.488,91.5714 203.155,90.4047 205.5,88.5C 205.163,86.5753 203.83,85.0753 201.5,84C 203.439,83.0922 204.439,81.5922 204.5,79.5C 171.521,78.4973 135.187,78.164 95.5,78.5C 88.1591,78.6663 80.8258,78.4997 73.5,78C 75.7078,77.8091 77.7078,77.3091 79.5,76.5 Z"/></g>
<g><path style="opacity:1" fill="#30529a" d="M 247.5,45.5 C 254.375,54.2231 260.709,63.3897 266.5,73C 253.621,94.5946 240.621,116.095 227.5,137.5C 226.624,137.631 225.957,137.298 225.5,136.5C 226.127,135.583 226.461,134.583 226.5,133.5C 234.914,118.337 243.581,103.337 252.5,88.5C 254.25,87.3406 255.25,85.674 255.5,83.5C 259.446,80.0561 261.279,75.7227 261,70.5C 255.328,63.1499 250.161,55.4833 245.5,47.5C 187.001,46.6672 128.335,46.1672 69.5,46C 128.832,45.5 188.166,45.3333 247.5,45.5 Z"/></g>
<g><path style="opacity:1" fill="#f58737" d="M 234.5,76.5 C 241.5,76.5 248.5,76.5 255.5,76.5C 255.5,76.8333 255.5,77.1667 255.5,77.5C 255.672,78.4916 255.338,79.1583 254.5,79.5C 250.871,85.457 246.537,90.7903 241.5,95.5C 241.586,94.5041 241.252,93.6708 240.5,93C 236.713,92.8404 233.046,92.1737 229.5,91C 230.833,90.3333 230.833,89.6667 229.5,89C 230.167,87.6667 231.167,86.6667 232.5,86C 231.289,84.8869 231.289,83.7202 232.5,82.5C 232.023,81.5224 231.357,80.6891 230.5,80C 232.55,79.5838 233.884,78.4171 234.5,76.5 Z"/></g>
<g><path style="opacity:1" fill="#faf2e7" d="M 60.5,79.5 C 61.1667,80.1667 61.8333,80.8333 62.5,81.5C 64.5572,85.2665 66.8906,88.9332 69.5,92.5C 69.9528,93.4584 70.6195,94.2917 71.5,95C 79.4931,95.4997 87.4931,95.6664 95.5,95.5C 112.833,95.5 130.167,95.5 147.5,95.5C 147.5,136.833 147.5,178.167 147.5,219.5C 146.833,178.998 146.167,138.331 145.5,97.5C 144.224,102.682 143.557,102.682 143.5,97.5C 124.819,98.0009 106.152,98.0009 87.5,97.5C 84.3872,97.5623 81.5539,98.2289 79,99.5C 78.2753,98.9415 77.4419,98.6082 76.5,98.5C 74.6666,100.101 72.9999,101.768 71.5,103.5C 67.3346,97.8417 63.6679,91.8417 60.5,85.5C 60.5,83.5 60.5,81.5 60.5,79.5 Z"/></g>
<g><path style="opacity:1" fill="#fcfdfd" d="M 252.5,88.5 C 243.581,103.337 234.914,118.337 226.5,133.5C 203.467,169.731 180.967,206.397 159,243.5C 158.282,244.451 157.449,244.617 156.5,244C 154.601,241.012 152.601,238.179 150.5,235.5C 124.167,191.5 97.8333,147.5 71.5,103.5C 72.9999,101.768 74.6666,100.101 76.5,98.5C 77.4419,98.6082 78.2753,98.9415 79,99.5C 81.5539,98.2289 84.3872,97.5623 87.5,97.5C 106.152,98.0009 124.819,98.0009 143.5,97.5C 143.557,102.682 144.224,102.682 145.5,97.5C 146.167,138.331 146.833,178.998 147.5,219.5C 150.574,224.645 153.407,229.978 156,235.5C 158.658,236.694 159.824,235.694 159.5,232.5C 161.5,229.5 163.5,226.5 165.5,223.5C 166.5,223.5 167.5,223.5 168.5,223.5C 168.5,181.167 168.5,138.833 168.5,96.5C 193.842,96.8331 219.175,96.4998 244.5,95.5C 246.959,92.8976 249.626,90.5642 252.5,88.5 Z"/></g>
<g><path style="opacity:1" fill="#fcead6" d="M 254.5,79.5 C 254.833,80.8333 255.167,82.1667 255.5,83.5C 255.25,85.674 254.25,87.3406 252.5,88.5C 249.626,90.5642 246.959,92.8976 244.5,95.5C 219.175,96.4998 193.842,96.8331 168.5,96.5C 168.5,138.833 168.5,181.167 168.5,223.5C 167.5,223.5 166.5,223.5 165.5,223.5C 165.709,222.078 166.209,220.745 167,219.5C 167.5,178.168 167.667,136.835 167.5,95.5C 178.167,95.5 188.833,95.5 199.5,95.5C 213.5,95.5 227.5,95.5 241.5,95.5C 246.537,90.7903 250.871,85.457 254.5,79.5 Z"/></g>
<g><path style="opacity:1" fill="#f5943d" d="M 159.5,232.5 C 159.824,235.694 158.658,236.694 156,235.5C 153.407,229.978 150.574,224.645 147.5,219.5C 147.5,178.167 147.5,136.833 147.5,95.5C 130.167,95.5 112.833,95.5 95.5,95.5C 100.681,94.8335 106.015,94.1668 111.5,93.5C 108.893,92.6816 106.226,92.1816 103.5,92C 105.101,91.7266 106.601,91.2266 108,90.5C 110.064,91.5914 112.231,91.7581 114.5,91C 113.833,90.6667 113.167,90.3333 112.5,90C 113.833,89.6667 115.167,89.3333 116.5,89C 115.552,88.5172 114.552,88.3505 113.5,88.5C 112.608,85.5757 112.275,82.7424 112.5,80C 125.846,79.1673 139.179,79.334 152.5,80.5C 151.805,83.2802 150.805,85.9469 149.5,88.5C 151.413,92.795 152.746,97.6284 153.5,103C 152.348,141.148 152.182,179.315 153,217.5C 153.689,218.357 154.522,219.023 155.5,219.5C 157.002,215.626 157.669,215.959 157.5,220.5C 156.5,220.5 155.5,220.5 154.5,220.5C 153.671,223.469 153.505,226.469 154,229.5C 154.561,228.978 155.228,228.645 156,228.5C 157.412,229.686 158.579,231.019 159.5,232.5 Z"/></g>
<g><path style="opacity:1" fill="#1c2c6a" d="M 247.5,45.5 C 188.166,45.3333 128.832,45.5 69.5,46C 128.335,46.1672 187.001,46.6672 245.5,47.5C 186.664,47.1676 127.998,47.501 69.5,48.5C 63.6489,56.5214 57.9822,64.688 52.5,73C 54.6199,77.5991 57.2866,81.7658 60.5,85.5C 63.6679,91.8417 67.3346,97.8417 71.5,103.5C 97.8333,147.5 124.167,191.5 150.5,235.5C 149.295,233.862 147.962,233.529 146.5,234.5C 113.476,180.964 80.8089,127.13 48.5,73C 54.4271,63.4035 60.7604,54.0702 67.5,45C 127.668,44.1681 187.668,44.3347 247.5,45.5 Z"/></g>
<g><path style="opacity:1" fill="#2a4785" d="M 226.5,133.5 C 226.461,134.583 226.127,135.583 225.5,136.5C 225.957,137.298 226.624,137.631 227.5,137.5C 204.511,175.472 181.511,213.472 158.5,251.5C 157.833,252.833 157.167,252.833 156.5,251.5C 153.139,245.816 149.806,240.149 146.5,234.5C 147.962,233.529 149.295,233.862 150.5,235.5C 152.601,238.179 154.601,241.012 156.5,244C 157.449,244.617 158.282,244.451 159,243.5C 180.967,206.397 203.467,169.731 226.5,133.5 Z"/></g>
<g><path style="opacity:1" fill="#7a8caa" d="M 64.5,262.5 C 59.5,261.167 54.5,261.167 49.5,262.5C 48.9569,262.44 48.6236,262.107 48.5,261.5C 54.1667,260.167 59.8333,260.167 65.5,261.5C 65.3764,262.107 65.0431,262.44 64.5,262.5 Z"/></g>
<g><path style="opacity:1" fill="#748ab3" d="M 150.5,262.5 C 145.833,261.167 141.167,261.167 136.5,262.5C 136.5,266.167 136.5,269.833 136.5,273.5C 140.833,273.5 145.167,273.5 149.5,273.5C 145.03,274.486 140.363,274.819 135.5,274.5C 135.5,269.833 135.5,265.167 135.5,260.5C 140.875,260.172 146.208,260.505 151.5,261.5C 151.376,262.107 151.043,262.44 150.5,262.5 Z"/></g>
<g><path style="opacity:1" fill="#768ba7" d="M 154.5,261.5 C 156.81,260.836 159.31,260.503 162,260.5C 164.929,260.525 167.429,261.191 169.5,262.5C 169.167,262.5 168.833,262.5 168.5,262.5C 164.03,261.514 159.363,261.181 154.5,261.5 Z"/></g>
<g><path style="opacity:1" fill="#7d8aab" d="M 247.5,261.5 C 242.305,261.179 237.305,261.513 232.5,262.5C 231.711,262.217 231.044,261.717 230.5,261C 236.922,260.186 242.589,260.353 247.5,261.5 Z"/></g>
<g><path style="opacity:1" fill="#7a8fb3" d="M 250.5,261.5 C 255.68,260.185 261.014,260.185 266.5,261.5C 266.376,262.107 266.043,262.44 265.5,262.5C 260.695,261.513 255.695,261.179 250.5,261.5 Z"/></g>
<g><path style="opacity:1" fill="#0f2a69" d="M 68.5,262.5 C 73.3158,261.35 78.3158,261.184 83.5,262C 85.5477,263.226 85.881,264.726 84.5,266.5C 83.5,265.833 82.5,265.167 81.5,264.5C 78.5,263.167 75.5,263.167 72.5,264.5C 70.8007,264.473 69.4674,263.806 68.5,262.5 Z"/></g>
<g><path style="opacity:1" fill="#b4c5e2" d="M 126.5,261.5 C 125.167,261.5 123.833,261.5 122.5,261.5C 122.808,263.924 122.474,266.257 121.5,268.5C 120.478,268.145 119.811,267.478 119.5,266.5C 121.308,265.082 121.975,263.082 121.5,260.5C 123.415,260.216 125.081,260.549 126.5,261.5 Z"/></g>
<g><path style="opacity:1" fill="#0d2966" d="M 187.5,261.5 C 188.837,262.315 189.837,263.482 190.5,265C 190.272,265.399 189.938,265.565 189.5,265.5C 188.391,265.557 187.391,265.89 186.5,266.5C 186.586,265.504 186.252,264.671 185.5,264C 182.854,263.503 180.187,263.336 177.5,263.5C 176.791,262.596 175.791,262.263 174.5,262.5C 174.5,266.833 174.5,271.167 174.5,275.5C 173.514,271.03 173.181,266.363 173.5,261.5C 178.167,261.5 182.833,261.5 187.5,261.5 Z"/></g>
<g><path style="opacity:1" fill="#0a2466" d="M 227.5,261.5 C 228.167,261.5 228.5,261.833 228.5,262.5C 228.068,263.71 227.401,264.71 226.5,265.5C 226.389,264.883 226.056,264.383 225.5,264C 222.854,263.503 220.187,263.336 217.5,263.5C 217.167,263.5 216.833,263.5 216.5,263.5C 216.44,262.957 216.107,262.624 215.5,262.5C 214.818,263.243 214.151,263.909 213.5,264.5C 213.5,263.5 213.5,262.5 213.5,261.5C 218.167,261.5 222.833,261.5 227.5,261.5 Z"/></g>
<g><path style="opacity:1" fill="#0a2059" d="M 232.5,262.5 C 237.305,261.513 242.305,261.179 247.5,261.5C 246.01,263.28 244.01,263.946 241.5,263.5C 238.713,262.523 235.713,262.19 232.5,262.5 Z"/></g>
<g><path style="opacity:1" fill="#092561" d="M 136.5,262.5 C 141.167,261.167 145.833,261.167 150.5,262.5C 149.833,262.833 149.167,263.167 148.5,263.5C 145.5,263.5 142.5,263.5 139.5,263.5C 138.791,262.596 137.791,262.263 136.5,262.5 Z"/></g>
<g><path style="opacity:1" fill="#13296c" d="M 154.5,261.5 C 159.363,261.181 164.03,261.514 168.5,262.5C 164.702,263.483 160.702,263.817 156.5,263.5C 155.209,263.737 154.209,263.404 153.5,262.5C 153.5,261.833 153.833,261.5 154.5,261.5 Z"/></g>
<g><path style="opacity:1" fill="#0e2a67" d="M 250.5,261.5 C 255.695,261.179 260.695,261.513 265.5,262.5C 264.833,262.5 264.5,262.833 264.5,263.5C 260.5,263.5 256.5,263.5 252.5,263.5C 252.5,264.5 252.5,265.5 252.5,266.5C 251.732,265.737 251.232,264.737 251,263.5C 250.31,264.738 249.81,264.738 249.5,263.5C 249.833,262.833 250.167,262.167 250.5,261.5 Z"/></g>
<g><path style="opacity:1" fill="#cfdcec" d="M 187.5,261.5 C 182.833,261.5 178.167,261.5 173.5,261.5C 173.181,266.363 173.514,271.03 174.5,275.5C 176.913,274.32 177.913,272.32 177.5,269.5C 180.5,269.5 183.5,269.5 186.5,269.5C 184.031,270.317 181.365,270.817 178.5,271C 179.833,272.667 179.833,274.333 178.5,276C 176.527,276.495 174.527,276.662 172.5,276.5C 172.854,272.363 172.354,268.363 171,264.5C 169.961,265.244 169.461,266.244 169.5,267.5C 165.265,266.564 160.931,266.231 156.5,266.5C 156.5,265.5 156.5,264.5 156.5,263.5C 160.702,263.817 164.702,263.483 168.5,262.5C 168.833,262.5 169.167,262.5 169.5,262.5C 172.487,261.476 175.987,260.809 180,260.5C 182.69,260.503 185.19,260.836 187.5,261.5 Z"/></g>
<g><path style="opacity:1" fill="#e4eff5" d="M 177.5,263.5 C 180.187,263.336 182.854,263.503 185.5,264C 186.252,264.671 186.586,265.504 186.5,266.5C 183.5,266.5 180.5,266.5 177.5,266.5C 177.5,265.5 177.5,264.5 177.5,263.5 Z"/></g>
<g><path style="opacity:1" fill="#e2ecf6" d="M 81.5,264.5 C 80.4855,265.765 78.9855,266.431 77,266.5C 75.0145,266.431 73.5145,265.765 72.5,264.5C 75.5,263.167 78.5,263.167 81.5,264.5 Z"/></g>
<g><path style="opacity:1" fill="#aec3e3" d="M 139.5,263.5 C 142.5,263.5 145.5,263.5 148.5,263.5C 146.031,264.317 143.365,264.817 140.5,265C 143.482,265.498 146.482,265.665 149.5,265.5C 149.715,267.179 149.048,268.179 147.5,268.5C 147.611,267.883 147.944,267.383 148.5,267C 145.518,266.502 142.518,266.335 139.5,266.5C 139.5,265.5 139.5,264.5 139.5,263.5 Z"/></g>
<g><path style="opacity:1" fill="#1c529f" d="M 232.5,262.5 C 235.713,262.19 238.713,262.523 241.5,263.5C 240.834,266.689 240.167,270.023 239.5,273.5C 238.833,270.023 238.166,266.689 237.5,263.5C 235.585,263.784 233.919,263.451 232.5,262.5 Z"/></g>
<g><path style="opacity:1" fill="#adc9e7" d="M 264.5,263.5 C 261.023,264.323 257.356,264.823 253.5,265C 257.356,265.177 261.023,265.677 264.5,266.5C 260.5,266.5 256.5,266.5 252.5,266.5C 252.5,265.5 252.5,264.5 252.5,263.5C 256.5,263.5 260.5,263.5 264.5,263.5 Z"/></g>
<g><path style="opacity:1" fill="#a8bedb" d="M 49.5,262.5 C 51.3792,263.341 53.3792,263.675 55.5,263.5C 55.1832,267.702 55.5166,271.702 56.5,275.5C 56.44,276.043 56.1067,276.376 55.5,276.5C 54.5091,272.555 54.1758,268.555 54.5,264.5C 52.2188,264.923 50.5521,264.256 49.5,262.5 Z"/></g>
<g><path style="opacity:1" fill="#1c5396" d="M 249.5,263.5 C 249.81,264.738 250.31,264.738 251,263.5C 251.232,264.737 251.732,265.737 252.5,266.5C 256.5,266.5 260.5,266.5 264.5,266.5C 267.167,268.833 267.167,271.167 264.5,273.5C 259.305,273.821 254.305,273.487 249.5,272.5C 253.934,271.995 258.268,271.161 262.5,270C 258.687,268.738 254.687,268.071 250.5,268C 248.534,266.653 248.201,265.153 249.5,263.5 Z"/></g>
<g><path style="opacity:1" fill="#225496" d="M 153.5,262.5 C 154.209,263.404 155.209,263.737 156.5,263.5C 156.5,264.5 156.5,265.5 156.5,266.5C 160.931,266.231 165.265,266.564 169.5,267.5C 170.62,269.958 169.953,271.958 167.5,273.5C 162.637,273.819 157.97,273.486 153.5,272.5C 157.298,271.517 161.298,271.183 165.5,271.5C 165.5,270.5 165.5,269.5 165.5,268.5C 161.445,268.824 157.445,268.491 153.5,267.5C 151.016,265.631 151.016,263.964 153.5,262.5 Z"/></g>
<g><path style="opacity:1" fill="#345b95" d="M 194.5,260.5 C 198.884,260.174 203.217,260.508 207.5,261.5C 210.136,265.7 210.136,269.867 207.5,274C 194.313,277.346 189.979,272.846 194.5,260.5 Z"/></g>
<g><path style="opacity:1" fill="#97adcc" d="M 227.5,261.5 C 222.833,261.5 218.167,261.5 213.5,261.5C 213.5,262.5 213.5,263.5 213.5,264.5C 213.185,268.371 213.518,272.038 214.5,275.5C 214.44,276.043 214.107,276.376 213.5,276.5C 212.505,271.208 212.172,265.875 212.5,260.5C 217.695,260.179 222.695,260.513 227.5,261.5 Z"/></g>
<g><path style="opacity:1" fill="#2b558a" d="M 237.5,263.5 C 238.166,266.689 238.833,270.023 239.5,273.5C 240.167,270.023 240.834,266.689 241.5,263.5C 242.309,268.538 241.143,272.872 238,276.5C 237.501,272.179 237.334,267.846 237.5,263.5 Z"/></g>
<g><path style="opacity:1" fill="#175098" d="M 136.5,262.5 C 137.791,262.263 138.791,262.596 139.5,263.5C 139.5,264.5 139.5,265.5 139.5,266.5C 142.518,266.335 145.518,266.502 148.5,267C 147.944,267.383 147.611,267.883 147.5,268.5C 144.833,268.5 142.167,268.5 139.5,268.5C 139.5,269.5 139.5,270.5 139.5,271.5C 143.182,271.335 146.848,271.501 150.5,272C 149.944,272.383 149.611,272.883 149.5,273.5C 145.167,273.5 140.833,273.5 136.5,273.5C 136.5,269.833 136.5,266.167 136.5,262.5 Z"/></g>
<g><path style="opacity:1" fill="#3161a7" d="M 177.5,263.5 C 177.5,264.5 177.5,265.5 177.5,266.5C 180.5,266.5 183.5,266.5 186.5,266.5C 187.391,265.89 188.391,265.557 189.5,265.5C 189.262,267.404 188.262,268.738 186.5,269.5C 183.5,269.5 180.5,269.5 177.5,269.5C 177.913,272.32 176.913,274.32 174.5,275.5C 174.5,271.167 174.5,266.833 174.5,262.5C 175.791,262.263 176.791,262.596 177.5,263.5 Z"/></g>
<g><path style="opacity:1" fill="#3b67a3" d="M 228.5,262.5 C 229.267,263.172 229.934,264.005 230.5,265C 229.643,265.689 228.977,266.522 228.5,267.5C 230.171,269.51 230.838,271.843 230.5,274.5C 229.167,274.5 227.833,274.5 226.5,274.5C 226.714,272.856 226.38,271.356 225.5,270C 222.854,269.503 220.187,269.336 217.5,269.5C 217.784,271.415 217.451,273.081 216.5,274.5C 216.5,270.833 216.5,267.167 216.5,263.5C 216.833,263.5 217.167,263.5 217.5,263.5C 217.5,264.5 217.5,265.5 217.5,266.5C 220.713,266.81 223.713,266.477 226.5,265.5C 227.401,264.71 228.068,263.71 228.5,262.5 Z"/></g>
<g><path style="opacity:1" fill="#e0edf6" d="M 217.5,263.5 C 220.187,263.336 222.854,263.503 225.5,264C 226.056,264.383 226.389,264.883 226.5,265.5C 223.713,266.477 220.713,266.81 217.5,266.5C 217.5,265.5 217.5,264.5 217.5,263.5 Z"/></g>
<g><path style="opacity:1" fill="#2a5596" d="M 119.5,266.5 C 119.811,267.478 120.478,268.145 121.5,268.5C 122.474,266.257 122.808,263.924 122.5,261.5C 123.833,261.5 125.167,261.5 126.5,261.5C 126.5,265.833 126.5,270.167 126.5,274.5C 125.127,274.657 123.793,274.49 122.5,274C 120.268,271.265 117.601,269.098 114.5,267.5C 113.833,269.833 113.167,272.167 112.5,274.5C 111.833,274.833 111.167,275.167 110.5,275.5C 109.507,270.88 109.173,266.214 109.5,261.5C 113.337,262.085 116.67,263.752 119.5,266.5 Z"/></g>
<g><path style="opacity:1" fill="#2d5f9e" d="M 68.5,262.5 C 69.4674,263.806 70.8007,264.473 72.5,264.5C 73.5145,265.765 75.0145,266.431 77,266.5C 78.9855,266.431 80.4855,265.765 81.5,264.5C 82.5,265.167 83.5,265.833 84.5,266.5C 84.4326,267.959 84.7659,269.292 85.5,270.5C 85.5,271.5 85.5,272.5 85.5,273.5C 84.5,273.5 83.5,273.5 82.5,273.5C 82.7373,272.209 82.404,271.209 81.5,270.5C 78.7131,269.523 75.7131,269.19 72.5,269.5C 72.9231,272.288 71.9231,274.288 69.5,275.5C 68.5078,271.217 68.1744,266.884 68.5,262.5 Z"/></g>
<g><path style="opacity:1" fill="#bfcfea" d="M 196.5,263.5 C 199.833,263.5 203.167,263.5 206.5,263.5C 206.5,266.167 206.5,268.833 206.5,271.5C 203.167,271.5 199.833,271.5 196.5,271.5C 196.5,268.833 196.5,266.167 196.5,263.5 Z"/></g>
<g><path style="opacity:1" fill="#f9fdfc" d="M 197.5,264.5 C 200.167,264.5 202.833,264.5 205.5,264.5C 205.5,266.5 205.5,268.5 205.5,270.5C 202.833,270.5 200.167,270.5 197.5,270.5C 197.5,268.5 197.5,266.5 197.5,264.5 Z"/></g>
<g><path style="opacity:1" fill="#254689" d="M 49.5,262.5 C 54.5,261.167 59.5,261.167 64.5,262.5C 62.9582,263.301 61.2915,263.634 59.5,263.5C 59.8226,267.226 59.4892,270.893 58.5,274.5C 57.8165,274.863 57.1499,275.196 56.5,275.5C 55.5166,271.702 55.1832,267.702 55.5,263.5C 53.3792,263.675 51.3792,263.341 49.5,262.5 Z"/></g>
<g><path style="opacity:1" fill="#8ca9cc" d="M 81.5,270.5 C 82.404,271.209 82.7373,272.209 82.5,273.5C 83.5,273.5 84.5,273.5 85.5,273.5C 85.5,272.5 85.5,271.5 85.5,270.5C 86.4345,271.568 86.7678,272.901 86.5,274.5C 84.8333,274.5 83.1667,274.5 81.5,274.5C 81.5,273.167 81.5,271.833 81.5,270.5 Z"/></g>
<g><path style="opacity:1" fill="#335896" d="M 91.5,260.5 C 95.5138,260.334 99.5138,260.501 103.5,261C 107.5,265.333 107.5,269.667 103.5,274C 99.1287,274.828 94.7953,274.661 90.5,273.5C 87.6215,268.874 87.9549,264.541 91.5,260.5 Z"/></g>
<g><path style="opacity:1" fill="#bdd4ed" d="M 92.5,263.5 C 95.8333,263.5 99.1667,263.5 102.5,263.5C 102.5,266.167 102.5,268.833 102.5,271.5C 99.1667,271.5 95.8333,271.5 92.5,271.5C 92.5,268.833 92.5,266.167 92.5,263.5 Z"/></g>
<g><path style="opacity:1" fill="#fafcfc" d="M 93.5,264.5 C 96.1667,264.5 98.8333,264.5 101.5,264.5C 101.5,266.5 101.5,268.5 101.5,270.5C 98.8333,270.5 96.1667,270.5 93.5,270.5C 93.5,268.5 93.5,266.5 93.5,264.5 Z"/></g>
<g><path style="opacity:1" fill="#1c4b96" d="M 216.5,263.5 C 216.5,267.167 216.5,270.833 216.5,274.5C 215.833,274.833 215.167,275.167 214.5,275.5C 213.518,272.038 213.185,268.371 213.5,264.5C 214.151,263.909 214.818,263.243 215.5,262.5C 216.107,262.624 216.44,262.957 216.5,263.5 Z"/></g>
<g><path style="opacity:1" fill="#7e99b9" d="M 153.5,272.5 C 157.97,273.486 162.637,273.819 167.5,273.5C 162.35,274.651 157.016,274.817 151.5,274C 152.044,273.283 152.711,272.783 153.5,272.5 Z"/></g>
<g><path style="opacity:1" fill="#7e9bbe" d="M 249.5,272.5 C 254.305,273.487 259.305,273.821 264.5,273.5C 259.32,274.815 253.986,274.815 248.5,273.5C 248.624,272.893 248.957,272.56 249.5,272.5 Z"/></g>
</svg>
