<svg xmlns="http://www.w3.org/2000/svg" width="320" height="320" viewBox="0 0 320 320" version="1.1">
	<path fill-opacity="0.388" d="M 58.513 58.184 C 53.098 65.985, 48.667 72.857, 48.667 73.453 C 48.667 74.050, 62.756 97.705, 79.976 126.019 C 97.197 154.334, 121.611 194.488, 134.230 215.250 C 146.849 236.013, 157.509 253, 157.919 253 C 158.329 253, 163.778 244.563, 170.027 234.250 C 176.277 223.938, 200.713 183.775, 224.330 145 C 247.947 106.225, 267.274 74.050, 267.279 73.500 C 267.284 72.950, 262.881 66.088, 257.494 58.250 L 247.701 44 158.031 44 L 68.360 44 58.513 58.184 M 67.570 53 C 57.250 67.351, 53.806 73.054, 54.448 74.733 C 55.455 77.369, 157.418 244.993, 158 244.968 C 158.275 244.957, 161.513 239.897, 165.195 233.724 C 168.877 227.551, 192.319 188.975, 217.289 148 L 262.689 73.500 255.176 62.500 C 251.043 56.450, 246.971 50.687, 246.126 49.694 C 244.662 47.974, 240.452 47.903, 157.697 48.194 L 70.806 48.500 67.570 53 M 66.513 61.130 C 62.842 66.151, 59.601 70.876, 59.312 71.630 C 58.869 72.784, 74.451 73, 158.393 73 C 213.177 73, 258 72.771, 258 72.492 C 258 72.212, 255.006 67.487, 251.347 61.992 L 244.695 52 158.942 52 L 73.189 52 66.513 61.130 M 60.425 77.665 C 60.776 78.581, 63.412 83.072, 66.282 87.646 L 71.500 95.961 109.750 95.980 L 148 96 148 157.487 L 148 218.974 152.726 228.487 C 155.325 233.719, 157.698 238, 158 238 C 158.302 238, 160.675 233.719, 163.274 228.487 L 168 218.974 168 157.487 L 168 96 206.368 96 L 244.736 96 250.868 86.700 C 254.241 81.586, 257 77.086, 257 76.700 C 257 76.315, 212.627 76, 158.393 76 C 66.807 76, 59.832 76.119, 60.425 77.665 M 49.244 262.250 C 49.470 262.938, 50.857 263.642, 52.327 263.816 C 54.915 264.123, 55 264.339, 55 270.566 C 55 277.419, 55.081 277.562, 58.066 275.965 C 59.616 275.135, 60 273.844, 60 269.465 C 60 264.377, 60.164 264, 62.378 264 C 63.685 264, 65.315 263.325, 66 262.500 C 67.091 261.185, 66.109 261, 58.039 261 C 51.122 261, 48.935 261.311, 49.244 262.250 M 69 269.035 C 69 276.664, 69.098 277.018, 70.930 276.037 C 71.992 275.469, 73.004 273.991, 73.180 272.752 C 73.451 270.845, 74.112 270.500, 77.500 270.500 C 80.887 270.500, 81.549 270.845, 81.820 272.750 C 82.051 274.379, 82.810 275, 84.570 275 C 87.276 275, 87.726 273.136, 85.775 270.011 C 84.846 268.524, 84.830 267.770, 85.710 266.890 C 86.589 266.011, 86.495 265.159, 85.320 263.365 C 83.922 261.232, 83.047 261, 76.385 261 L 69 261 69 269.035 M 90.655 262.829 C 88.418 265.300, 88.517 271.253, 90.829 273.345 C 93.476 275.741, 103.124 275.626, 105.345 273.171 C 107.582 270.700, 107.483 264.747, 105.171 262.655 C 102.524 260.259, 92.876 260.374, 90.655 262.829 M 110 269.035 C 110 276.760, 110.077 277.029, 112 276 C 113.409 275.246, 114 273.906, 114 271.465 C 114 269.559, 114.291 268, 114.647 268 C 115.003 268, 117.216 269.575, 119.565 271.500 C 126.039 276.804, 127 276.352, 127 268 C 127 261.667, 126.810 261, 125 261 C 123.381 261, 123 261.667, 123 264.500 C 123 266.425, 122.709 268, 122.353 268 C 121.997 268, 119.784 266.425, 117.435 264.500 C 110.799 259.063, 110 259.550, 110 269.035 M 136 268 L 136 275 142.878 275 C 147.771 275, 150.114 274.567, 151 273.500 C 152.081 272.197, 151.513 272, 146.681 272 C 143.622 272, 140.840 271.550, 140.500 271 C 140.129 270.399, 141.423 270, 143.741 270 C 147.350 270, 150 268.645, 150 266.800 C 150 266.360, 147.660 266, 144.800 266 C 138.237 266, 139.538 264.244, 146.422 263.810 C 149.230 263.633, 151.520 262.963, 151.755 262.250 C 152.062 261.319, 150.103 261, 144.083 261 L 136 261 136 268 M 153.655 262.829 C 151.517 265.191, 151.569 266.300, 153.918 268.426 C 155.276 269.655, 157.169 270.079, 160.405 269.880 C 162.919 269.726, 164.986 270.027, 164.999 270.550 C 165.012 271.072, 162.580 271.634, 159.595 271.797 C 156.388 271.973, 153.673 272.689, 152.961 273.547 C 151.924 274.797, 152.869 275, 159.723 275 C 166.171 275, 168.005 274.651, 169.345 273.171 C 171.466 270.828, 171.430 269.700, 169.171 267.655 C 167.960 266.559, 165.576 266, 162.112 266 C 158.880 266, 157.118 265.618, 157.500 265 C 157.840 264.450, 160.511 264, 163.437 264 C 166.944 264, 169.179 263.489, 170 262.500 C 171.089 261.188, 170.246 261, 163.277 261 C 156.829 261, 154.995 261.349, 153.655 262.829 M 173.947 261.500 C 173.918 261.775, 173.895 265.150, 173.895 269 C 173.895 272.850, 173.918 276.241, 173.947 276.535 C 173.976 276.830, 174.900 276.589, 176 276 C 177.170 275.374, 178 273.906, 178 272.465 C 178 270.184, 178.362 270, 182.845 270 C 189.150 270, 192.061 267.350, 189.995 263.490 C 188.761 261.184, 188.120 261, 181.331 261 C 177.299 261, 173.976 261.225, 173.947 261.500 M 194.200 262.200 C 193.540 262.860, 193 265.470, 193 268 C 193 270.530, 193.540 273.140, 194.200 273.800 C 194.873 274.473, 198.099 275, 201.545 275 C 208.767 275, 211 273.305, 211 267.826 C 211 262.702, 208.600 261, 201.371 261 C 198.060 261, 194.865 261.535, 194.200 262.200 M 213.667 261.667 C 212.860 262.474, 212.764 277, 213.566 277 C 215.651 277, 218 274.567, 218 272.407 C 218 270.058, 218.292 269.906, 222.250 270.193 C 225.783 270.448, 226.554 270.880, 226.820 272.750 C 227.281 276.002, 231 275.832, 231 272.559 C 231 271.216, 230.528 269.826, 229.951 269.470 C 229.238 269.029, 229.286 268.361, 230.102 267.377 C 231.039 266.249, 231.012 265.391, 229.982 263.466 C 228.767 261.197, 228.090 261, 221.498 261 C 217.557 261, 214.033 261.300, 213.667 261.667 M 231.950 262.440 C 232.607 263.232, 234.125 264.019, 235.323 264.190 C 237.256 264.465, 237.533 265.202, 237.798 270.760 C 238.074 276.560, 238.235 276.944, 239.996 276.002 C 241.419 275.241, 241.972 273.669, 242.198 269.743 C 242.458 265.232, 242.804 264.457, 244.677 264.190 C 245.875 264.019, 247.393 263.232, 248.050 262.440 C 249.075 261.204, 247.933 261, 240 261 C 232.067 261, 230.925 261.204, 231.950 262.440 M 249.671 263.379 C 248.218 265.596, 248.262 265.894, 250.306 267.774 C 251.513 268.884, 253.850 269.790, 255.500 269.788 C 262.044 269.780, 263.395 270.005, 262.450 270.945 C 261.928 271.465, 258.836 272.027, 255.579 272.195 C 251.964 272.381, 249.497 272.987, 249.246 273.750 C 248.939 274.680, 250.874 275, 256.802 275 C 264.089 275, 264.903 274.797, 266.329 272.621 C 267.786 270.397, 267.738 270.102, 265.581 268.076 C 264.312 266.884, 262.875 265.983, 262.387 266.073 C 261.899 266.163, 259.498 266.184, 257.050 266.118 C 250.622 265.947, 253.203 264.177, 260.421 263.805 C 264.036 263.619, 266.503 263.013, 266.754 262.250 C 267.061 261.320, 265.126 261, 259.198 261 C 251.911 261, 251.097 261.203, 249.671 263.379 M 73.714 264.619 C 72.022 266.311, 73.288 267.094, 77.250 266.807 C 79.588 266.638, 81.500 266.050, 81.500 265.500 C 81.500 264.330, 74.765 263.568, 73.714 264.619 M 93.412 265.369 C 93.098 266.186, 92.990 267.900, 93.171 269.177 C 93.460 271.215, 94.053 271.500, 98 271.500 C 102.476 271.500, 102.500 271.481, 102.500 268 C 102.500 264.596, 102.383 264.492, 98.241 264.192 C 95.185 263.971, 93.821 264.304, 93.412 265.369 M 178 265.500 C 178 266.782, 178.877 267.052, 182.250 266.807 C 184.588 266.638, 186.500 266.050, 186.500 265.500 C 186.500 264.950, 184.588 264.362, 182.250 264.193 C 178.877 263.948, 178 264.218, 178 265.500 M 197.390 265.427 C 197.088 266.212, 196.990 267.900, 197.171 269.177 C 197.448 271.132, 198.174 271.549, 201.750 271.807 L 206 272.115 206 268.057 L 206 264 201.969 264 C 199.399 264, 197.739 264.518, 197.390 265.427 M 218 265.500 C 218 266.782, 218.877 267.052, 222.250 266.807 C 224.588 266.638, 226.500 266.050, 226.500 265.500 C 226.500 264.950, 224.588 264.362, 222.250 264.193 C 218.877 263.948, 218 264.218, 218 265.500" stroke="none" fill="black" fill-rule="evenodd"/>
	<path fill-opacity="0.455" d="M 58.895 58.250 C 53.789 65.537, 49.608 72.400, 49.605 73.500 C 49.602 74.600, 61.277 94.636, 75.550 118.025 C 89.822 141.414, 114.100 181.311, 129.500 206.687 C 150.440 241.191, 157.783 252.530, 158.624 251.662 C 159.242 251.023, 165.591 240.825, 172.733 229 C 185.538 207.798, 213.383 161.962, 248.855 103.694 C 258.835 87.300, 267 73.687, 267 73.443 C 267 73.198, 262.693 66.699, 257.429 58.999 L 247.859 45 158.019 45 L 68.179 45 58.895 58.250 M 68.918 50.281 C 68.048 51.502, 64.080 57.245, 60.101 63.045 L 52.866 73.591 105.047 159.545 C 133.747 206.820, 157.463 245.725, 157.751 246 C 158.039 246.275, 158.447 246.050, 158.659 245.500 C 158.871 244.950, 182.244 206.475, 210.599 160 C 238.953 113.525, 262.363 75.010, 262.621 74.412 C 262.879 73.813, 259.195 67.626, 254.434 60.662 L 245.779 48 158.140 48.031 L 70.500 48.063 68.918 50.281 M 66.299 61.994 L 59.098 72 158.084 72 C 252.068 72, 257.020 71.912, 256.079 70.250 C 255.534 69.287, 252.697 64.900, 249.776 60.500 L 244.464 52.500 158.982 52.244 L 73.500 51.989 66.299 61.994 M 50.500 263 C 50.840 263.550, 52.216 264, 53.559 264 C 55.879 264, 56 264.300, 56 270.083 C 56 277.902, 58.274 277.787, 59 269.931 C 59.408 265.515, 59.869 264.452, 61.500 264.162 C 62.600 263.966, 63.927 263.400, 64.450 262.903 C 65.020 262.362, 62.292 262, 57.641 262 C 52.723 262, 50.108 262.366, 50.500 263 M 69 269 C 69 272.850, 69.188 276, 69.418 276 C 71.383 276, 73 274.372, 73 272.393 C 73 270.216, 73.415 270, 77.594 270 C 81.346 270, 82.283 270.366, 82.710 272 C 82.998 273.100, 83.856 274, 84.617 274 C 86.203 274, 86.505 270.430, 84.997 269.498 C 84.334 269.088, 84.357 268.201, 85.067 266.875 C 86.974 263.312, 84.635 262, 76.378 262 L 69 262 69 269 M 90.200 263.200 C 88.546 264.854, 88.689 271.497, 90.410 272.925 C 91.272 273.641, 94.478 273.980, 98.660 273.798 L 105.500 273.500 106.046 268.746 C 106.347 266.129, 106.145 263.545, 105.596 262.996 C 104.178 261.578, 91.657 261.743, 90.200 263.200 M 110 269 C 110 272.850, 110.338 275.993, 110.750 275.985 C 112.721 275.944, 113.879 274.138, 114.176 270.641 L 114.500 266.809 119 270.395 C 125.685 275.722, 127 275.328, 127 268 C 127 262.667, 126.778 262, 125 262 C 123.381 262, 123 262.667, 123 265.500 C 123 267.425, 122.734 269, 122.409 269 C 122.084 269, 119.978 267.425, 117.729 265.500 C 115.480 263.575, 112.821 262, 111.820 262 C 110.233 262, 110 262.897, 110 269 M 136 268 L 136 274 142.941 274 C 146.759 274, 150.160 273.550, 150.500 273 C 150.884 272.379, 149.010 272, 145.559 272 C 141.284 272, 140 271.653, 140 270.500 C 140 269.420, 141.105 269, 143.941 269 C 146.109 269, 148.160 268.550, 148.500 268 C 148.878 267.389, 147.344 267, 144.559 267 C 141.173 267, 140 266.614, 140 265.500 C 140 264.369, 141.216 264, 144.941 264 C 147.659 264, 150.160 263.550, 150.500 263 C 150.891 262.367, 148.344 262, 143.559 262 L 136 262 136 268 M 153.297 263.896 C 151.488 266.792, 154.441 268.818, 161.012 269.189 C 168.408 269.608, 167.980 271.380, 160.332 272 C 151.269 272.735, 151.434 274, 160.593 274 C 167.291 274, 168.702 273.706, 169.703 272.104 C 171.512 269.208, 168.559 267.182, 161.988 266.811 C 154.821 266.405, 155.343 264.586, 162.738 264.195 C 171.839 263.713, 171.607 262, 162.441 262 C 155.710 262, 154.298 262.293, 153.297 263.896 M 174 269.083 C 174 274.302, 174.329 276.059, 175.250 275.756 C 175.938 275.530, 176.642 274.143, 176.816 272.673 C 177.115 270.150, 177.432 270, 182.451 270 C 186.903 270, 188.016 269.624, 189.282 267.692 C 192.031 263.496, 189.972 262, 181.450 262 L 174 262 174 269.083 M 194.200 263.200 C 193.540 263.860, 193 266.020, 193 268 C 193 272.985, 194.438 274, 201.500 274 C 208.562 274, 210 272.985, 210 268 C 210 266.020, 209.460 263.860, 208.800 263.200 C 207.234 261.634, 195.766 261.634, 194.200 263.200 M 214 269.083 C 214 274.302, 214.329 276.059, 215.250 275.756 C 215.938 275.530, 216.642 274.143, 216.816 272.673 C 217.112 270.180, 217.464 270, 222.066 270 C 226.641 270, 227.491 270.525, 227.154 273.143 C 227.109 273.496, 227.955 274.017, 229.036 274.299 C 231.318 274.896, 231.644 273.004, 229.775 270.011 C 228.835 268.506, 228.824 267.776, 229.728 266.872 C 230.543 266.057, 230.602 265.124, 229.918 263.847 C 229.092 262.304, 227.700 262, 221.465 262 L 214 262 214 269.083 M 232.500 263 C 232.840 263.550, 234.216 264, 235.559 264 C 237.881 264, 238 264.299, 238 270.107 C 238 275.265, 238.246 276.120, 239.582 275.607 C 240.452 275.273, 241.352 275, 241.582 275 C 241.812 275, 242 272.525, 242 269.500 C 242 264.335, 242.149 264, 244.441 264 C 245.784 264, 247.160 263.550, 247.500 263 C 247.893 262.365, 245.157 262, 240 262 C 234.843 262, 232.107 262.365, 232.500 263 M 250.053 263.436 C 249.168 264.502, 249.146 265.404, 249.966 266.936 C 250.892 268.667, 252.032 269, 257.035 269 C 261.671 269, 263 269.334, 263 270.500 C 263 271.665, 261.673 272, 257.059 272 C 253.791 272, 250.840 272.450, 250.500 273 C 250.109 273.632, 252.615 274, 257.319 274 C 265.691 274, 267.982 272.703, 266.034 269.064 C 265.108 267.333, 263.968 267, 258.965 267 C 254.329 267, 253 266.666, 253 265.500 C 253 264.335, 254.327 264, 258.941 264 C 262.209 264, 265.160 263.550, 265.500 263 C 266.545 261.309, 251.465 261.735, 250.053 263.436 M 73 266.057 C 73 267.859, 73.528 268.077, 77.241 267.807 C 80.335 267.583, 81.573 267.027, 81.815 265.750 C 82.092 264.290, 81.389 264, 77.573 264 C 73.624 264, 73 264.281, 73 266.057 M 93 268 L 93 272 98 272 L 103 272 103 268 L 103 264 98 264 L 93 264 93 268 M 177.479 265.034 C 176.298 266.946, 178.528 268.154, 182.618 267.818 C 185.261 267.602, 186.500 267.021, 186.500 266 C 186.500 264.149, 178.552 263.298, 177.479 265.034 M 197 268 L 197 272 202 272 L 207 272 207 268 L 207 264 202 264 L 197 264 197 268 M 217.479 265.034 C 216.298 266.946, 218.528 268.154, 222.618 267.818 C 225.261 267.602, 226.500 267.021, 226.500 266 C 226.500 264.149, 218.552 263.298, 217.479 265.034" stroke="none" fill="black" fill-rule="evenodd"/>
	<path fill-opacity="0.212" d="M 58.943 58.644 C 53.749 66.149, 49.372 72.606, 49.217 72.995 C 48.723 74.224, 81.045 126.513, 82.121 126.225 C 82.686 126.074, 82.867 126.406, 82.523 126.963 C 81.803 128.127, 125.721 200.609, 126.952 200.289 C 127.399 200.173, 127.705 200.837, 127.632 201.765 C 127.560 202.693, 128.040 203.463, 128.700 203.476 C 129.360 203.489, 130.485 204.153, 131.200 204.952 C 132.322 206.205, 132.261 206.222, 130.750 205.079 C 128.491 203.370, 128.527 204.763, 130.832 208.258 C 131.832 209.775, 133.026 210.675, 133.486 210.258 C 133.945 209.841, 134.021 210.024, 133.654 210.664 C 132.763 212.221, 142.940 229.155, 144.272 228.332 C 144.867 227.964, 145.009 228.176, 144.605 228.830 C 143.759 230.199, 153.911 247.173, 155.127 246.422 C 155.595 246.133, 155.747 246.495, 155.466 247.227 C 155.186 247.959, 155.632 249.444, 156.459 250.529 C 157.759 252.233, 158.099 252.297, 158.970 251 C 159.525 250.175, 159.764 248.914, 159.501 248.198 C 159.238 247.482, 159.426 247.145, 159.919 247.450 C 160.412 247.755, 164.296 242.266, 168.551 235.252 C 172.806 228.238, 180.126 216.200, 184.817 208.500 C 189.509 200.800, 193.997 193.375, 194.792 192 L 196.237 189.500 194.141 192 C 191.870 194.708, 191.318 193.740, 193.285 190.500 C 193.953 189.400, 195.073 188.500, 195.772 188.500 C 196.472 188.500, 198.197 186.475, 199.606 184 C 201.552 180.581, 201.671 180.101, 200.100 182 C 198.963 183.375, 197.770 185.287, 197.449 186.250 C 197.128 187.212, 196.430 188, 195.897 188 C 195.308 188, 195.348 187.218, 196 186 C 197.744 182.742, 196.330 183.723, 194.200 187.250 C 193.120 189.037, 185.158 202.112, 176.506 216.305 C 167.855 230.498, 161.016 242.350, 161.310 242.643 C 161.603 242.937, 162.536 241.900, 163.382 240.338 C 164.228 238.777, 164.938 237.962, 164.960 238.527 C 165.028 240.271, 161.918 244.067, 160.925 243.453 C 160.408 243.134, 159.716 243.577, 159.386 244.437 C 158.479 246.801, 157.221 246.328, 155.483 242.967 C 154.621 241.299, 153.515 240.182, 153.027 240.484 C 152.538 240.786, 151.813 240.506, 151.415 239.862 C 150.963 239.131, 151.124 238.959, 151.845 239.405 C 152.480 239.797, 153 239.834, 153 239.487 C 153 238.296, 147.757 229.910, 147.299 230.368 C 147.046 230.620, 147.605 232.103, 148.539 233.663 L 150.237 236.500 148.136 234 C 146.981 232.625, 146.238 230.939, 146.485 230.252 C 147.047 228.695, 143.091 221.826, 142.015 222.490 C 141.582 222.759, 140.613 222.195, 139.863 221.239 C 138.630 219.665, 138.666 219.630, 140.250 220.872 C 142.240 222.433, 142.479 221.763, 140.950 218.906 C 140.372 217.827, 139.477 217.205, 138.961 217.524 C 138.445 217.843, 138.253 217.505, 138.534 216.773 C 138.814 216.041, 138.322 214.556, 137.440 213.471 C 136.030 211.738, 135.906 211.718, 136.407 213.302 C 136.761 214.422, 136.577 214.857, 135.920 214.451 C 135.339 214.092, 135.112 213.150, 135.416 212.359 C 135.944 210.983, 130.169 201.240, 76.241 112.525 C 63.879 92.189, 53.555 75.004, 53.299 74.336 C 53.043 73.669, 56.758 67.470, 61.556 60.562 L 70.278 48 158.389 47.760 L 246.500 47.520 176.500 46.993 L 106.500 46.466 177.655 46.483 C 216.790 46.492, 248.601 46.163, 248.346 45.750 C 248.091 45.338, 207.495 45, 158.134 45 L 68.386 45 58.943 58.644 M 97.750 46.706 C 98.987 46.944, 101.013 46.944, 102.250 46.706 C 103.487 46.467, 102.475 46.272, 100 46.272 C 97.525 46.272, 96.513 46.467, 97.750 46.706 M 66.822 61.739 C 63.070 66.820, 60 71.208, 60 71.489 C 60 71.770, 104.438 71.906, 158.750 71.792 C 213.063 71.678, 250.975 71.321, 243 71 C 235.025 70.679, 230.075 70.291, 232 70.138 C 233.925 69.985, 236.400 69.473, 237.500 69 C 239.347 68.206, 239.309 68.128, 237 67.971 L 234.500 67.801 237 67 C 239.253 66.278, 239.289 66.190, 237.368 66.100 C 235.439 66.010, 235.235 65.426, 235.235 60 L 235.235 54 239.757 54 C 242.858 54, 244.724 54.550, 245.695 55.750 C 246.972 57.329, 247.004 57.281, 246.020 55.250 L 244.930 53 208.215 53.163 C 188.022 53.253, 173.975 53.629, 177 54 C 180.025 54.371, 181.772 54.747, 180.883 54.837 C 179.625 54.964, 179.341 55.891, 179.605 59 C 179.811 61.436, 179.516 63, 178.849 63 C 178.124 63, 178.175 63.506, 179 64.500 C 180.030 65.741, 179.922 66.012, 178.372 66.070 C 176.630 66.136, 176.639 66.200, 178.500 67 C 179.681 67.508, 179.920 67.888, 179.083 67.930 C 176.447 68.061, 179.012 69.366, 183.269 70.060 C 185.596 70.439, 166.800 70.772, 141.500 70.799 C 101.890 70.841, 95.986 70.661, 99 69.500 C 100.925 68.759, 101.825 68.111, 101 68.061 C 99.667 67.980, 99.667 67.862, 101 67 C 101.825 66.467, 102.009 66.024, 101.409 66.015 C 100.671 66.005, 100.554 64.460, 101.049 61.250 C 101.868 55.931, 101.622 55.079, 99.191 54.820 C 98.261 54.721, 100.875 54.362, 105 54.022 C 110.778 53.546, 108.040 53.300, 93.072 52.952 L 73.644 52.500 66.822 61.739 M 236.813 58.683 C 237.534 58.972, 238.397 58.936, 238.729 58.604 C 239.061 58.272, 238.471 58.036, 237.417 58.079 C 236.252 58.127, 236.015 58.364, 236.813 58.683 M 259 63.378 C 259 63.585, 259.788 64.373, 260.750 65.128 C 262.336 66.371, 262.371 66.336, 261.128 64.750 C 259.821 63.084, 259 62.555, 259 63.378 M 251.970 65.944 C 252.543 67.014, 253.505 68.194, 254.109 68.567 C 254.713 68.941, 254.434 68.066, 253.489 66.623 C 251.487 63.568, 250.451 63.105, 251.970 65.944 M 262.564 74.707 C 262.022 76.132, 262.136 76.247, 263.124 75.267 C 263.808 74.588, 264.115 73.781, 263.807 73.474 C 263.499 73.166, 262.940 73.721, 262.564 74.707 M 259 85 C 258.411 86.100, 258.155 87, 258.430 87 C 258.705 87, 259.411 86.100, 260 85 C 260.589 83.900, 260.845 83, 260.570 83 C 260.295 83, 259.589 83.900, 259 85 M 254 89 C 253.411 90.100, 253.155 91, 253.430 91 C 253.705 91, 254.411 90.100, 255 89 C 255.589 87.900, 255.845 87, 255.570 87 C 255.295 87, 254.589 87.900, 254 89 M 256 90 C 255.411 91.100, 255.155 92, 255.430 92 C 255.705 92, 256.411 91.100, 257 90 C 257.589 88.900, 257.845 88, 257.570 88 C 257.295 88, 256.589 88.900, 256 90 M 251 94 C 250.411 95.100, 250.155 96, 250.430 96 C 250.705 96, 251.411 95.100, 252 94 C 252.589 92.900, 252.845 92, 252.570 92 C 252.295 92, 251.589 92.900, 251 94 M 250 100 C 249.411 101.100, 249.155 102, 249.430 102 C 249.705 102, 250.411 101.100, 251 100 C 251.589 98.900, 251.845 98, 251.570 98 C 251.295 98, 250.589 98.900, 250 100 M 240 112 C 239.411 113.100, 239.155 114, 239.430 114 C 239.705 114, 240.411 113.100, 241 112 C 241.589 110.900, 241.845 110, 241.570 110 C 241.295 110, 240.589 110.900, 240 112 M 242 113 C 241.411 114.100, 241.155 115, 241.430 115 C 241.705 115, 242.411 114.100, 243 113 C 243.589 111.900, 243.845 111, 243.570 111 C 243.295 111, 242.589 111.900, 242 113 M 237 117 C 236.411 118.100, 236.155 119, 236.430 119 C 236.705 119, 237.411 118.100, 238 117 C 238.589 115.900, 238.845 115, 238.570 115 C 238.295 115, 237.589 115.900, 237 117 M 239.381 117.250 C 238.976 117.938, 238.002 119.625, 237.217 121 C 235.846 123.400, 235.856 123.420, 237.468 121.500 C 239.499 119.080, 241.250 116, 240.594 116 C 240.332 116, 239.786 116.563, 239.381 117.250 M 229 130 C 228.411 131.100, 228.155 132, 228.430 132 C 228.705 132, 229.411 131.100, 230 130 C 230.589 128.900, 230.845 128, 230.570 128 C 230.295 128, 229.589 128.900, 229 130 M 231 131 C 230.411 132.100, 230.155 133, 230.430 133 C 230.705 133, 231.411 132.100, 232 131 C 232.589 129.900, 232.845 129, 232.570 129 C 232.295 129, 231.589 129.900, 231 131 M 226 135 C 225.411 136.100, 225.155 137, 225.430 137 C 225.705 137, 226.411 136.100, 227 135 C 227.589 133.900, 227.845 133, 227.570 133 C 227.295 133, 226.589 133.900, 226 135 M 228 136 C 227.411 137.100, 227.155 138, 227.430 138 C 227.705 138, 228.411 137.100, 229 136 C 229.589 134.900, 229.845 134, 229.570 134 C 229.295 134, 228.589 134.900, 228 136 M 223 140 C 222.411 141.100, 222.155 142, 222.430 142 C 222.705 142, 223.411 141.100, 224 140 C 224.589 138.900, 224.845 138, 224.570 138 C 224.295 138, 223.589 138.900, 223 140 M 225.381 140.250 C 224.976 140.938, 224.002 142.625, 223.217 144 C 221.846 146.400, 221.856 146.420, 223.468 144.500 C 225.499 142.080, 227.250 139, 226.594 139 C 226.332 139, 225.786 139.563, 225.381 140.250 M 218 148 C 217.411 149.100, 217.155 150, 217.430 150 C 217.705 150, 218.411 149.100, 219 148 C 219.589 146.900, 219.845 146, 219.570 146 C 219.295 146, 218.589 146.900, 218 148 M 220 149 C 219.411 150.100, 219.155 151, 219.430 151 C 219.705 151, 220.411 150.100, 221 149 C 221.589 147.900, 221.845 147, 221.570 147 C 221.295 147, 220.589 147.900, 220 149 M 214.880 153.250 C 214.225 154.488, 213.036 156.625, 212.239 158 C 210.848 160.398, 210.857 160.419, 212.471 158.500 C 214.464 156.130, 217.261 151, 216.561 151 C 216.291 151, 215.535 152.012, 214.880 153.250 M 217 154 C 216.411 155.100, 216.155 156, 216.430 156 C 216.705 156, 217.411 155.100, 218 154 C 218.589 152.900, 218.845 152, 218.570 152 C 218.295 152, 217.589 152.900, 217 154 M 214 159 C 213.411 160.100, 213.155 161, 213.430 161 C 213.705 161, 214.411 160.100, 215 159 C 215.589 157.900, 215.845 157, 215.570 157 C 215.295 157, 214.589 157.900, 214 159 M 209 163 C 208.411 164.100, 208.155 165, 208.430 165 C 208.705 165, 209.411 164.100, 210 163 C 210.589 161.900, 210.845 161, 210.570 161 C 210.295 161, 209.589 161.900, 209 163 M 211 164 C 210.411 165.100, 210.155 166, 210.430 166 C 210.705 166, 211.411 165.100, 212 164 C 212.589 162.900, 212.845 162, 212.570 162 C 212.295 162, 211.589 162.900, 211 164 M 205.804 168.250 C 205.020 169.488, 203.367 172.300, 202.131 174.500 C 199.488 179.206, 202.374 175.542, 205.807 169.835 C 208.243 165.784, 208.241 164.405, 205.804 168.250 M 208.381 168.250 C 207.976 168.938, 207.002 170.625, 206.217 172 C 204.846 174.400, 204.856 174.420, 206.468 172.500 C 208.499 170.080, 210.250 167, 209.594 167 C 209.332 167, 208.786 167.563, 208.381 168.250 M 203 177 C 202.411 178.100, 202.155 179, 202.430 179 C 202.705 179, 203.411 178.100, 204 177 C 204.589 175.900, 204.845 175, 204.570 175 C 204.295 175, 203.589 175.900, 203 177 M 198 181 C 197.411 182.100, 197.155 183, 197.430 183 C 197.705 183, 198.411 182.100, 199 181 C 199.589 179.900, 199.845 179, 199.570 179 C 199.295 179, 198.589 179.900, 198 181 M 182.240 208.685 C 177.309 216.833, 171.382 226.581, 169.068 230.347 C 166.754 234.113, 165.068 237.402, 165.323 237.656 C 165.577 237.911, 167.199 235.729, 168.926 232.809 C 172.719 226.398, 179.343 215.581, 186.752 203.703 C 189.770 198.864, 192.006 194.672, 191.721 194.388 C 191.437 194.103, 187.170 200.537, 182.240 208.685 M 153 243 C 153 243.550, 153.477 244, 154.059 244 C 154.641 244, 154.840 243.550, 154.500 243 C 154.160 242.450, 153.684 242, 153.441 242 C 153.198 242, 153 242.450, 153 243 M 50.500 263 C 50.840 263.550, 52.216 264, 53.559 264 C 55.868 264, 56.009 264.337, 56.173 270.250 L 56.345 276.500 56.971 270 L 57.597 263.500 58.110 269.500 L 58.622 275.500 58.811 269.750 C 58.988 264.372, 59.158 264, 61.441 264 C 62.784 264, 64.160 263.550, 64.500 263 C 64.891 262.367, 62.324 262, 57.500 262 C 52.676 262, 50.109 262.367, 50.500 263 M 69 262.878 C 69 263.360, 69.675 264.315, 70.500 265 C 71.536 265.860, 72 265.898, 72 265.122 C 72 263.385, 81.508 263.702, 82.991 265.489 C 84.701 267.550, 86.250 266.335, 84.968 263.939 C 84.083 262.286, 82.828 262, 76.465 262 C 72.359 262, 69 262.395, 69 262.878 M 90.667 262.667 C 90.300 263.033, 90.029 264.271, 90.063 265.417 C 90.126 267.462, 90.142 267.464, 90.938 265.500 C 91.639 263.769, 92.506 263.546, 97.374 263.843 L 103 264.185 103.142 267.843 L 103.284 271.500 104 267.500 C 104.536 264.504, 104.781 264.128, 104.974 266 C 105.168 267.875, 105.349 268.050, 105.699 266.702 C 106.560 263.384, 104.159 262, 97.544 262 C 94.128 262, 91.033 262.300, 90.667 262.667 M 110.136 264.750 C 110.253 267.108, 110.334 267.179, 110.706 265.250 C 110.944 264.012, 111.584 263, 112.129 263 C 112.673 263, 112.871 263.400, 112.569 263.889 C 112.267 264.378, 113.703 266.046, 115.760 267.596 C 117.817 269.146, 118.882 269.646, 118.128 268.707 C 116.756 267.001, 117.752 266.333, 119.554 267.750 C 120.078 268.163, 118.931 267.054, 117.004 265.288 C 112.533 261.189, 109.950 260.987, 110.136 264.750 M 123.136 264.750 C 123.264 267.338, 123.299 267.358, 123.727 265.088 C 124.034 263.458, 124.431 263.080, 124.952 263.922 C 125.533 264.862, 125.871 264.779, 126.329 263.584 C 126.757 262.469, 126.354 262, 124.969 262 C 123.455 262, 123.031 262.635, 123.136 264.750 M 137.079 264.750 C 137.122 266.262, 137.402 266.887, 137.700 266.137 C 138.158 264.986, 138.377 264.986, 139.106 266.137 C 139.782 267.204, 139.973 267.120, 139.985 265.750 C 139.997 264.322, 140.908 264, 144.941 264 C 147.659 264, 150.160 263.550, 150.500 263 C 150.890 262.369, 148.510 262, 144.059 262 C 137.006 262, 137 262.002, 137.079 264.750 M 154.200 263.200 C 152.519 264.881, 152.705 266.532, 154.750 268.079 C 156.239 269.206, 156.313 269.194, 155.250 268.002 C 154.563 267.231, 154.007 265.903, 154.015 265.050 C 154.029 263.684, 154.146 263.678, 155 265 C 155.646 266, 155.974 266.083, 155.985 265.250 C 155.995 264.392, 157.863 264, 161.941 264 C 165.209 264, 168.160 263.550, 168.500 263 C 169.411 261.525, 155.683 261.717, 154.200 263.200 M 174.177 269.250 L 174.353 276.500 175 269.500 C 175.356 265.650, 175.778 263.625, 175.939 265 C 176.136 266.682, 176.376 266.956, 176.672 265.839 C 176.997 264.614, 178.508 264.090, 182.431 263.839 C 186.271 263.594, 187.621 263.834, 187.286 264.702 C 186.494 266.757, 187.989 268.254, 189.544 266.963 C 190.628 266.064, 190.663 265.433, 189.715 263.915 C 188.715 262.314, 187.328 262, 181.259 262 L 174 262 174.177 269.250 M 194.028 263.466 C 193.359 264.273, 193.043 265.510, 193.327 266.216 C 193.618 266.943, 193.883 266.632, 193.936 265.500 C 194.015 263.836, 194.193 263.752, 195 265 C 195.646 266, 195.974 266.083, 195.985 265.250 C 195.995 264.406, 197.755 264, 201.399 264 L 206.799 264 207.157 268.500 C 207.433 271.977, 207.172 273.018, 206.007 273.079 C 204.933 273.135, 204.869 273.306, 205.784 273.673 C 209.240 275.062, 211.794 266.194, 208.800 263.200 C 207.032 261.432, 195.544 261.639, 194.028 263.466 M 214.177 269.250 L 214.353 276.500 215 269.500 C 215.356 265.650, 215.778 263.625, 215.939 265 C 216.136 266.682, 216.376 266.956, 216.672 265.839 C 217.283 263.533, 227.790 262.718, 227.487 265 C 227.377 265.825, 227.482 265.932, 227.719 265.238 C 227.957 264.544, 228.575 264.237, 229.092 264.557 C 229.609 264.877, 229.731 265.627, 229.362 266.224 C 228.966 266.864, 229.155 267.022, 229.825 266.608 C 230.662 266.091, 230.640 265.396, 229.739 263.954 C 228.711 262.307, 227.378 262, 221.259 262 L 214 262 214.177 269.250 M 233.500 263 C 233.840 263.550, 235.216 264, 236.559 264 C 238.190 264, 239.023 264.580, 239.070 265.750 C 239.130 267.237, 239.262 267.200, 239.952 265.500 C 240.668 263.735, 240.818 263.853, 241.232 266.500 L 241.700 269.500 241.850 266.750 C 241.953 264.861, 242.548 263.995, 243.750 263.985 C 244.713 263.976, 246.175 263.533, 247 263 C 248.039 262.328, 246.102 262.026, 240.691 262.015 C 235.736 262.006, 233.108 262.365, 233.500 263 M 250.032 263.939 C 249.291 265.324, 249.325 266.083, 250.152 266.594 C 250.843 267.021, 251.039 266.872, 250.638 266.224 C 249.513 264.403, 252.027 263.668, 258.565 263.905 C 262.146 264.034, 265.082 263.677, 265.460 263.065 C 265.903 262.348, 263.663 262, 258.594 262 C 252.172 262, 250.918 262.284, 250.032 263.939 M 207.975 267.796 L 208.458 272.500 208.797 268.618 C 208.984 266.483, 208.767 264.367, 208.315 263.915 C 207.863 263.463, 207.710 265.210, 207.975 267.796 M 92.158 266 C 92.158 267.375, 92.385 267.938, 92.662 267.250 C 92.940 266.563, 92.940 265.438, 92.662 264.750 C 92.385 264.063, 92.158 264.625, 92.158 266 M 113 264.465 C 113 264.720, 114.013 265.469, 115.250 266.129 C 117.290 267.216, 117.372 267.172, 116.128 265.664 C 114.850 264.115, 113 263.406, 113 264.465 M 188 265.559 C 188 266.416, 188.457 266.835, 189.016 266.490 C 189.575 266.144, 189.774 265.443, 189.457 264.931 C 188.600 263.544, 188 263.802, 188 265.559 M 252.079 265.583 C 252.127 266.748, 252.364 266.985, 252.683 266.188 C 252.972 265.466, 252.936 264.603, 252.604 264.271 C 252.272 263.939, 252.036 264.529, 252.079 265.583 M 141 267.934 C 141 268.830, 147.609 268.724, 148.521 267.813 C 148.837 267.496, 147.275 267.212, 145.048 267.181 C 142.822 267.151, 141 267.489, 141 267.934 M 157.347 267.681 C 158.283 268.616, 168.923 268.684, 168.346 267.750 C 168.091 267.337, 165.359 267, 162.274 267 C 159.190 267, 156.973 267.306, 157.347 267.681 M 254 268.041 C 254 268.845, 264.021 268.312, 264.870 267.463 C 265.160 267.173, 262.833 267.020, 259.699 267.122 C 256.564 267.225, 254 267.638, 254 268.041 M 180.813 268.683 C 181.534 268.972, 182.397 268.936, 182.729 268.604 C 183.061 268.272, 182.471 268.036, 181.417 268.079 C 180.252 268.127, 180.015 268.364, 180.813 268.683 M 219.813 268.683 C 220.534 268.972, 221.397 268.936, 221.729 268.604 C 222.061 268.272, 221.471 268.036, 220.417 268.079 C 219.252 268.127, 219.015 268.364, 219.813 268.683 M 83.369 271.480 C 83.030 272.363, 83.034 273.367, 83.376 273.710 C 83.719 274.053, 84.032 273.471, 84.070 272.417 C 84.137 270.585, 84.179 270.589, 85 272.500 C 85.701 274.130, 85.872 274.188, 85.930 272.809 C 86.026 270.489, 84.128 269.503, 83.369 271.480 M 104.611 271.570 C 104.238 272.543, 103.249 273.037, 102.214 272.766 C 101.245 272.513, 98.438 272.630, 95.976 273.028 C 91.504 273.749, 91.505 273.750, 97.628 273.875 C 102.016 273.964, 104.114 273.568, 105.020 272.476 C 105.716 271.638, 106.051 270.718, 105.766 270.433 C 105.481 270.147, 104.961 270.659, 104.611 271.570 M 216.079 271.583 C 216.127 272.748, 216.364 272.985, 216.683 272.188 C 216.972 271.466, 216.936 270.603, 216.604 270.271 C 216.272 269.939, 216.036 270.529, 216.079 271.583 M 229.731 272.080 C 230.085 273.432, 230.538 273.886, 230.788 273.137 C 231.028 272.415, 230.750 271.350, 230.168 270.768 C 229.426 270.026, 229.296 270.417, 229.731 272.080 M 168.551 271.917 C 168.240 272.421, 165.041 272.725, 161.444 272.591 C 157.846 272.458, 154.715 272.653, 154.485 273.024 C 154.256 273.395, 157.130 273.788, 160.872 273.898 C 165.975 274.047, 167.996 273.709, 168.960 272.548 C 169.667 271.697, 169.991 271, 169.681 271 C 169.372 271, 168.863 271.413, 168.551 271.917 M 138.812 273.150 C 137.455 273.532, 139.263 273.842, 143.191 273.900 C 146.871 273.955, 150.091 273.663, 150.346 273.250 C 150.914 272.330, 142.003 272.253, 138.812 273.150 M 194.655 273.250 C 194.909 273.663, 195.991 274, 197.059 274 C 198.127 274, 199 273.663, 199 273.250 C 199 272.837, 197.918 272.500, 196.595 272.500 C 195.273 272.500, 194.400 272.837, 194.655 273.250 M 251.338 273.136 C 250.054 273.641, 250.630 273.881, 253.250 273.930 C 255.313 273.968, 257 273.578, 257 273.062 C 257 272.007, 254.110 272.044, 251.338 273.136 M 258.815 273.136 C 257.977 273.667, 258.860 273.975, 261.250 273.985 C 263.313 273.993, 265 273.827, 265 273.617 C 265 272.750, 260.032 272.364, 258.815 273.136 M 200.750 273.662 C 201.438 273.940, 202.563 273.940, 203.250 273.662 C 203.938 273.385, 203.375 273.158, 202 273.158 C 200.625 273.158, 200.063 273.385, 200.750 273.662 M 239.872 274.750 C 238.629 276.336, 238.664 276.371, 240.250 275.128 C 241.916 273.821, 242.445 273, 241.622 273 C 241.415 273, 240.627 273.788, 239.872 274.750" stroke="none" fill="black" fill-rule="evenodd"/>
	<path fill-opacity="0.866" d="M 98.750 45.749 C 115.937 45.903, 144.062 45.903, 161.250 45.749 C 178.438 45.596, 164.375 45.470, 130 45.470 C 95.625 45.470, 81.562 45.596, 98.750 45.749 M 60.408 56.750 C 50.969 70.401, 49.472 72.715, 51.194 71 C 53.177 69.025, 68.266 47, 67.636 47 C 67.368 47, 64.115 51.388, 60.408 56.750 M 68.802 48.750 C 66.428 51.503, 58.869 63, 59.432 63 C 59.711 63, 62.215 59.628, 64.996 55.506 L 70.053 48.012 146.276 47.750 L 222.500 47.487 146.405 47.244 C 74.999 47.015, 70.217 47.108, 68.802 48.750 M 69.435 58.250 C 67.370 61.138, 64.540 65.075, 63.146 67 C 61.751 68.925, 61.227 69.948, 61.981 69.274 C 63.064 68.306, 63.683 68.306, 64.926 69.274 C 66.277 70.326, 66.325 70.276, 65.268 68.919 C 64.238 67.598, 64.867 66.156, 69.086 60.169 C 71.864 56.226, 73.923 53, 73.662 53 C 73.401 53, 71.499 55.362, 69.435 58.250 M 76.269 53.693 C 77.242 53.947, 78.592 53.930, 79.269 53.656 C 79.946 53.382, 79.150 53.175, 77.500 53.195 C 75.850 53.215, 75.296 53.439, 76.269 53.693 M 202.250 53.716 C 203.762 53.945, 206.238 53.945, 207.750 53.716 C 209.262 53.487, 208.025 53.300, 205 53.300 C 201.975 53.300, 200.738 53.487, 202.250 53.716 M 55.048 68.430 C 51.544 73.523, 51.466 73.935, 53.516 76.559 C 54.931 78.370, 54.957 78.322, 53.901 75.848 C 52.907 73.520, 53.154 72.636, 55.932 68.598 C 57.672 66.069, 58.871 64, 58.596 64 C 58.321 64, 56.724 65.994, 55.048 68.430 M 69.750 71.746 C 75.388 71.924, 84.612 71.924, 90.250 71.746 C 95.888 71.568, 91.275 71.422, 80 71.422 C 68.725 71.422, 64.112 71.568, 69.750 71.746 M 191.812 71.748 C 200.233 71.916, 213.733 71.915, 221.812 71.748 C 229.890 71.580, 223 71.443, 206.500 71.443 C 190 71.444, 183.390 71.581, 191.812 71.748 M 52.074 78.500 C 53.309 80.700, 54.749 82.950, 55.274 83.500 C 56.772 85.069, 53.347 78.734, 51.490 76.500 C 50.576 75.400, 50.839 76.300, 52.074 78.500 M 56.202 81.250 C 56.989 82.487, 59.323 86.313, 61.389 89.750 C 63.455 93.188, 65.389 96, 65.687 96 C 65.986 96, 65.586 94.987, 64.798 93.750 C 64.011 92.513, 61.677 88.688, 59.611 85.250 C 57.545 81.813, 55.611 79, 55.313 79 C 55.014 79, 55.414 80.013, 56.202 81.250 M 58.206 88.585 C 59.468 90.832, 61.307 93.757, 62.294 95.085 C 63.281 96.413, 63.056 95.662, 61.794 93.415 C 60.532 91.168, 58.693 88.243, 57.706 86.915 C 56.719 85.587, 56.944 86.338, 58.206 88.585 M 67.310 99.500 C 68.155 101.150, 69.596 103.400, 70.510 104.500 C 71.424 105.600, 71.161 104.700, 69.926 102.500 C 67.201 97.646, 65.159 95.306, 67.310 99.500 M 65 100 C 65.589 101.100, 66.295 102, 66.570 102 C 66.845 102, 66.589 101.100, 66 100 C 65.411 98.900, 64.705 98, 64.430 98 C 64.155 98, 64.411 98.900, 65 100 M 68 105 C 68.589 106.100, 69.295 107, 69.570 107 C 69.845 107, 69.589 106.100, 69 105 C 68.411 103.900, 67.705 103, 67.430 103 C 67.155 103, 67.411 103.900, 68 105 M 73 109 C 73.589 110.100, 74.295 111, 74.570 111 C 74.845 111, 74.589 110.100, 74 109 C 73.411 107.900, 72.705 107, 72.430 107 C 72.155 107, 72.411 107.900, 73 109 M 72.206 111.585 C 73.468 113.832, 75.307 116.757, 76.294 118.085 C 77.281 119.413, 77.056 118.662, 75.794 116.415 C 74.532 114.168, 72.693 111.243, 71.706 109.915 C 70.719 108.587, 70.944 109.338, 72.206 111.585 M 75.872 113.500 C 76.412 114.600, 77.586 116.400, 78.482 117.500 L 80.110 119.500 79.128 117.500 C 78.588 116.400, 77.414 114.600, 76.518 113.500 L 74.890 111.500 75.872 113.500 M 81 122 C 81.589 123.100, 82.295 124, 82.570 124 C 82.845 124, 82.589 123.100, 82 122 C 81.411 120.900, 80.705 120, 80.430 120 C 80.155 120, 80.411 120.900, 81 122 M 84 127 C 84.589 128.100, 85.295 129, 85.570 129 C 85.845 129, 85.589 128.100, 85 127 C 84.411 125.900, 83.705 125, 83.430 125 C 83.155 125, 83.411 125.900, 84 127 M 82 128 C 82.589 129.100, 83.295 130, 83.570 130 C 83.845 130, 83.589 129.100, 83 128 C 82.411 126.900, 81.705 126, 81.430 126 C 81.155 126, 81.411 126.900, 82 128 M 85 133 C 85.589 134.100, 86.295 135, 86.570 135 C 86.845 135, 86.589 134.100, 86 133 C 85.411 131.900, 84.705 131, 84.430 131 C 84.155 131, 84.411 131.900, 85 133 M 89 135 C 89.589 136.100, 90.295 137, 90.570 137 C 90.845 137, 90.589 136.100, 90 135 C 89.411 133.900, 88.705 133, 88.430 133 C 88.155 133, 88.411 133.900, 89 135 M 88 138 C 88.589 139.100, 89.295 140, 89.570 140 C 89.845 140, 89.589 139.100, 89 138 C 88.411 136.900, 87.705 136, 87.430 136 C 87.155 136, 87.411 136.900, 88 138 M 92 140 C 92.589 141.100, 93.295 142, 93.570 142 C 93.845 142, 93.589 141.100, 93 140 C 92.411 138.900, 91.705 138, 91.430 138 C 91.155 138, 91.411 138.900, 92 140 M 95 145 C 95.589 146.100, 96.295 147, 96.570 147 C 96.845 147, 96.589 146.100, 96 145 C 95.411 143.900, 94.705 143, 94.430 143 C 94.155 143, 94.411 143.900, 95 145 M 98 150 C 98.589 151.100, 99.295 152, 99.570 152 C 99.845 152, 99.589 151.100, 99 150 C 98.411 148.900, 97.705 148, 97.430 148 C 97.155 148, 97.411 148.900, 98 150 M 96 151 C 96.589 152.100, 97.295 153, 97.570 153 C 97.845 153, 97.589 152.100, 97 151 C 96.411 149.900, 95.705 149, 95.430 149 C 95.155 149, 95.411 149.900, 96 151 M 101 155 C 101.589 156.100, 102.295 157, 102.570 157 C 102.845 157, 102.589 156.100, 102 155 C 101.411 153.900, 100.705 153, 100.430 153 C 100.155 153, 100.411 153.900, 101 155 M 99 156 C 99.589 157.100, 100.295 158, 100.570 158 C 100.845 158, 100.589 157.100, 100 156 C 99.411 154.900, 98.705 154, 98.430 154 C 98.155 154, 98.411 154.900, 99 156 M 102 161 C 102.589 162.100, 103.295 163, 103.570 163 C 103.845 163, 103.589 162.100, 103 161 C 102.411 159.900, 101.705 159, 101.430 159 C 101.155 159, 101.411 159.900, 102 161 M 112 173 C 112.589 174.100, 113.295 175, 113.570 175 C 113.845 175, 113.589 174.100, 113 173 C 112.411 171.900, 111.705 171, 111.430 171 C 111.155 171, 111.411 171.900, 112 173 M 110 174 C 110.589 175.100, 111.295 176, 111.570 176 C 111.845 176, 111.589 175.100, 111 174 C 110.411 172.900, 109.705 172, 109.430 172 C 109.155 172, 109.411 172.900, 110 174 M 115 178 C 115.589 179.100, 116.295 180, 116.570 180 C 116.845 180, 116.589 179.100, 116 178 C 115.411 176.900, 114.705 176, 114.430 176 C 114.155 176, 114.411 176.900, 115 178 M 116 184 C 116.589 185.100, 117.295 186, 117.570 186 C 117.845 186, 117.589 185.100, 117 184 C 116.411 182.900, 115.705 182, 115.430 182 C 115.155 182, 115.411 182.900, 116 184 M 126 196 C 126.589 197.100, 127.295 198, 127.570 198 C 127.845 198, 127.589 197.100, 127 196 C 126.411 194.900, 125.705 194, 125.430 194 C 125.155 194, 125.411 194.900, 126 196 M 129 201 C 129.589 202.100, 130.295 203, 130.570 203 C 130.845 203, 130.589 202.100, 130 201 C 129.411 199.900, 128.705 199, 128.430 199 C 128.155 199, 128.411 199.900, 129 201 M 127 202 C 127.589 203.100, 128.295 204, 128.570 204 C 128.845 204, 128.589 203.100, 128 202 C 127.411 200.900, 126.705 200, 126.430 200 C 126.155 200, 126.411 200.900, 127 202 M 50.243 262.577 C 51.082 263.415, 63.811 263.522, 64.636 262.698 C 65.019 262.314, 61.808 262, 57.500 262 C 53.192 262, 49.926 262.260, 50.243 262.577 M 69.214 262.547 C 70.013 263.346, 82.881 263.453, 83.666 262.667 C 84.033 262.300, 80.808 262, 76.500 262 C 72.192 262, 68.913 262.246, 69.214 262.547 M 92.300 262.633 C 92.648 262.982, 95.213 263.267, 98 263.267 C 100.787 263.267, 103.352 262.982, 103.700 262.633 C 104.048 262.285, 101.483 262, 98 262 C 94.517 262, 91.952 262.285, 92.300 262.633 M 110 262.383 C 110 262.594, 111.111 262.979, 112.470 263.239 C 113.828 263.499, 114.702 263.326, 114.411 262.856 C 113.899 262.027, 110 261.610, 110 262.383 M 123.813 262.683 C 124.534 262.972, 125.397 262.936, 125.729 262.604 C 126.061 262.272, 125.471 262.036, 124.417 262.079 C 123.252 262.127, 123.015 262.364, 123.813 262.683 M 137.275 262.608 C 138.007 263.340, 150.071 263.262, 150.812 262.521 C 151.099 262.234, 148.033 262, 144 262 C 139.967 262, 136.940 262.274, 137.275 262.608 M 154.636 262.780 C 154.370 263.210, 157.156 263.410, 160.827 263.226 C 170.128 262.760, 170.887 262.173, 162.309 262.079 C 158.354 262.036, 154.901 262.351, 154.636 262.780 M 174.015 263.750 C 174.027 265.039, 174.246 265.161, 174.846 264.215 C 175.390 263.357, 177.723 262.991, 181.847 263.115 C 185.249 263.217, 188.326 263.008, 188.683 262.650 C 189.041 262.293, 185.883 262, 181.667 262 C 175.026 262, 174.002 262.234, 174.015 263.750 M 194.653 262.750 C 194.397 263.163, 197.171 263.416, 200.817 263.313 C 204.694 263.204, 208.081 263.619, 208.974 264.313 C 210.309 265.351, 210.328 265.281, 209.128 263.750 C 208.079 262.413, 206.265 262, 201.437 262 C 197.961 262, 194.909 262.337, 194.653 262.750 M 214.015 263.750 C 214.026 264.934, 214.277 265.113, 214.791 264.304 C 215.210 263.645, 218.465 262.945, 222.026 262.746 L 228.500 262.385 221.250 262.193 C 214.933 262.025, 214.002 262.225, 214.015 263.750 M 233.363 262.778 C 233.881 263.616, 246.951 263.382, 247.814 262.520 C 248.100 262.234, 244.857 262, 240.608 262 C 236.359 262, 233.098 262.350, 233.363 262.778 M 250.652 262.750 C 250.396 263.163, 252.732 263.373, 255.843 263.217 C 265.610 262.730, 266.788 262.305, 258.809 262.150 C 254.579 262.067, 250.908 262.337, 250.652 262.750" stroke="none" fill="black" fill-rule="evenodd"/>
</svg>