<?xml version="1.0"?><svg xmlns="http://www.w3.org/2000/svg" width="36" height="36" shape-rendering="geometricPrecision" text-rendering="geometricPrecision" image-rendering="optimizeQuality" fill-rule="evenodd" clip-rule="evenodd" viewBox="0 0 36 36"><path fill="#fdfefe" d="m-0.1-0.1h36v36h-36v-36z"></path><path fill="#163067" d="m8.2 5.9h2.5c-0.3 0.1-0.7 0.2-1.1 0.2 0.2 0 0.3 0.1 0.5 0.1-0.3 0.1-0.5 0.2-0.7 0.4 0.2 0.1 0.5 0.2 0.8 0.3-0.3 0-0.5 0-0.7 0.1 0.1 0.1 0.3 0.2 0.5 0.2-1.3 0.1-1.3 0.2-0.2 0.3-0.9 0.2-1.9 0.2-2.9 0.2 0.4-0.6 0.8-1.2 1.3-1.8z"></path><path fill="#19356e" d="m25.1 5.9c0 0.1-0.1 0.1-0.2 0.2 0.1 0 0.2 0.1 0.2 0.1-0.4 0.1-0.9 0.2-1.3 0.3 0.3 0.2 0.7 0.2 1 0.2 0 0.2-0.1 0.3-0.2 0.4 0.2 0 0.4 0.1 0.5 0 0 0.2 0.1 0.4 0.2 0.5-1.7 0.1-3.3 0.1-4.9 0.1 0.8-0.2 1.6-0.3 2.5-0.3-0.8-0.1-1.6-0.2-2.4-0.2 0.6-0.1 0.5-0.3-0.1-0.4 0.4 0 0.7-0.2 0.9-0.4-0.3-0.3-0.7-0.4-1.2-0.4 1.4-0.1 3.1-0.1 5-0.1z"></path><path fill="#2b5aa5" d="m8.2 5.9c0.2-0.1 0.5-0.1 0.7-0.1 6.3 0 12.4 0 18.6 0.1h-2.4c-1.9 0-3.6 0-5 0.1-0.2 0.1-0.5 0.2-0.7 0.3 0.3 0 0.7 0.1 1 0.2l-0.3 0.3c0.1 0.1 0 0.2-0.2 0.3-0.2 0-0.4 0.1-0.6 0v0.7c0.4 0 0.7 0 1 0.1-3.2 0.1-6.4 0-9.6-0.1 0.6-0.1 1.2-0.1 1.8-0.1-0.5-0.1-1-0.2-1.5-0.3-0.1 0-0.2-0.1-0.3-0.1 1.8 0 3.6-0.1 5.4-0.2-0.6 0-1.2-0.1-1.8-0.2 0.1-0.1 0.3-0.1 0.4-0.1 0.5-0.1 1-0.1 1.4-0.1v-0.3c-0.6-0.1-0.6-0.1 0-0.2-1.2 0-2.4-0.1-3.6-0.2-0.5-0.1-1.1-0.1-1.8-0.1h-2.5z"></path><path fill="#173878" d="m10.7 5.9c0.7 0 1.3 0 1.8 0.1-0.3 0-0.7 0-1.1 0.2-0.1 0.1-0.1 0.1 0 0.2-0.4 0.2-0.4 0.4 0 0.6-0.3 0-0.5 0.1-0.7 0.3 0.1 0 0.2 0.1 0.3 0.1 0.5 0.1 1 0.2 1.5 0.2-0.6 0.1-1.2 0.1-1.8 0.2 3.2 0.1 6.4 0.2 9.6 0.1h8.6c-7.4 0.2-14.8 0.2-22.2 0 0-0.1 0.1-0.2 0.2-0.2 1 0 2 0 2.9-0.2-1.1-0.1-1.1-0.2 0.2-0.3-0.2 0-0.4-0.1-0.5-0.2 0.2-0.1 0.4-0.1 0.7-0.1-0.3-0.1-0.6-0.2-0.8-0.3 0.2-0.2 0.4-0.3 0.7-0.4-0.2 0-0.3-0.1-0.5-0.1 0.4 0 0.8-0.1 1.1-0.2z"></path><path fill="#215ca4" d="m12.5 6c1.2 0.1 2.4 0.2 3.6 0.2-0.6 0.1-0.6 0.1 0 0.2v0.3c-0.4 0-0.9 0-1.4 0.1-0.1 0-0.3 0-0.4 0.1 0.6 0.1 1.2 0.2 1.8 0.2-1.8 0.1-3.6 0.2-5.4 0.2 0.2-0.2 0.4-0.3 0.7-0.3-0.4-0.2-0.4-0.4 0-0.6-0.1-0.1-0.1-0.1 0-0.2 0.4-0.2 0.8-0.2 1.1-0.2z"></path><path fill="#21478b" d="m25.1 5.9h2.4l1.4 2h-8.6c-0.3-0.1-0.6-0.1-1-0.1v-0.7c0.2 0.1 0.4 0 0.6 0 0.2-0.1 0.3-0.2 0.2-0.3l0.3-0.3c-0.3-0.1-0.7-0.2-1-0.2 0.2-0.1 0.5-0.2 0.7-0.3 0.5 0 0.9 0.1 1.2 0.4-0.2 0.2-0.5 0.4-0.9 0.4 0.6 0.1 0.7 0.3 0.1 0.4 0.8 0 1.6 0.1 2.4 0.2-0.8 0-1.7 0.1-2.5 0.2 1.6 0.1 3.2 0.1 4.9 0-0.1-0.1-0.2-0.3-0.2-0.5-0.1 0.1-0.3 0-0.5 0 0.1-0.1 0.2-0.2 0.2-0.4-0.3 0-0.7 0-1-0.2 0.4-0.1 0.9-0.2 1.3-0.3 0 0-0.1-0.1-0.2-0.1 0.1-0.1 0.2-0.1 0.2-0.2z"></path><path fill="#dae4f0" d="m7.8 5.5c6.6-0.2 13.2-0.2 19.8-0.2 0.5 0.9 1.1 1.8 1.8 2.6 0 0.6-0.2 1.1-0.7 1.5l-0.1-0.5c0.1 0 0.2-0.1 0.1-0.2 0.2 0 0.3-0.1 0.3-0.3 0.1-0.1 0.1-0.2 0-0.2 0-0.2 0-0.2-0.1-0.3l-1.4-2c-6.2-0.1-12.3-0.1-18.6-0.1 6.2-0.1 12.4-0.2 18.6-0.2-6.6-0.1-13.1-0.2-19.7-0.1z"></path><path fill="#92a1c2" d="m6.7 7.9c7.4 0.2 14.8 0.2 22.2 0 0.1 0.1 0.1 0.1 0.1 0.3-7.5 0-15 0-22.4-0.2 0 0 0-0.1 0.1-0.1z"></path><path fill="#f6fbfb" d="m7.8 5.5c6.6-0.1 13.1 0 19.7 0.1-6.2 0-12.4 0.1-18.6 0.2-0.2 0-0.5 0-0.7 0.1-0.5 0.6-0.9 1.2-1.3 1.8-0.1 0-0.2 0.1-0.2 0.2-0.1 0-0.1 0.1-0.1 0.1 7.4 0.2 14.9 0.2 22.4 0.2 0.1 0 0.1 0.1 0 0.2-0.1 0-0.2-0.1-0.2-0.1-7.4 0-14.7 0.1-22.1 0.2 0 0.2 0 0.3 0.1 0.4v0.7c-0.4-0.4-0.7-0.9-0.9-1.4 0.6-0.9 1.3-1.8 1.9-2.7z"></path><path fill="#fef4e2" d="m29 8.4c0 0.2-0.1 0.3-0.3 0.3v-0.1c-7.3-0.1-14.6-0.1-22-0.1 7.4-0.1 14.7-0.2 22.1-0.2 0 0 0.1 0.1 0.2 0.1z"></path><path fill="#f0b077" d="m6.7 8.5c7.4 0 14.7 0 22 0.1h-19.8c-0.6 0-1.3 0-2 0.1 0.1 0.2 0.1 0.3 0.1 0.5l-0.2-0.3c-0.1-0.1-0.1-0.2-0.1-0.4z"></path><path fill="#f37f36" d="m8.9 8.6c-0.2 0.1-0.4 0.2-0.6 0.2 0.8 0 1.6 0 2.4 0-0.3 0.1-0.8 0.2-1.2 0.1 0 0.4 0 0.7 0.2 0.9-0.2 0.1-0.2 0.3 0.1 0.4-0.6 0.2-1.3 0.2-2 0.2-0.3-0.4-0.5-0.8-0.8-1.2 0-0.2 0-0.3-0.1-0.5 0.7-0.1 1.4-0.1 2-0.1z"></path><path fill="#f58b3a" d="m10.7 8.8c4.5 0 8.6 0 12.3 0.1 0 0.3-0.1 0.4-0.3 0.6 0.2 0.1 0.4 0.2 0.4 0.5-0.2 0.2-0.5 0.3-0.9 0.4 0.2 0 0.4 0.1 0.6 0.2-0.2 0-0.3 0.1-0.4 0.1h-3.6c0.1 4.7 0 9.3 0 14-0.1 0.1-0.2 0.3-0.2 0.4l-0.7 1.1c-0.1-0.2-0.2-0.4-0.3-0.5-0.1 0-0.2 0.1-0.3 0.1 0-0.3 0-0.7 0.1-1h0.3c0-0.5 0-0.5-0.2-0.1-0.1-0.1-0.2-0.1-0.3-0.2-0.1-4.3-0.1-8.6 0.1-12.9-0.1-0.6-0.3-1.2-0.5-1.6 0.2-0.3 0.3-0.6 0.4-0.9-1.5-0.2-3-0.2-4.5-0.1-0.1 0.3 0 0.6 0.1 1 0.1-0.1 0.2 0 0.3 0l-0.4 0.1 0.2 0.1c-0.3 0.1-0.5 0.1-0.8 0-0.1 0.1-0.3 0.1-0.5 0.2 0.4 0 0.7 0 0.9 0.1-0.6 0.1-1.2 0.2-1.8 0.2-0.9 0.1-1.8 0-2.7 0-0.1-0.1-0.1-0.2-0.2-0.3 0.7 0 1.4 0 2-0.2-0.3-0.1-0.3-0.3-0.1-0.4-0.2-0.2-0.2-0.5-0.2-0.9 0.4 0.1 0.9 0 1.2-0.1z"></path><path fill="#f69236" d="m8.9 8.6h17.5c-0.1 0.2-0.2 0.4-0.5 0.4 0.1 0.1 0.2 0.2 0.3 0.3-0.2 0.1-0.2 0.2 0 0.4-0.2 0.1-0.3 0.2-0.4 0.3 0.2 0.1 0.2 0.2 0 0.2 0.4 0.2 0.8 0.2 1.3 0.3 0 0 0.1 0.1 0.1 0.2h-4.8c0.1 0 0.2-0.1 0.4-0.1-0.2-0.1-0.4-0.2-0.6-0.2 0.4-0.1 0.7-0.2 0.9-0.4 0-0.3-0.2-0.4-0.4-0.5 0.2-0.2 0.3-0.3 0.3-0.6-3.7-0.1-7.8-0.1-12.3-0.1-0.8 0-1.6 0-2.4 0 0.2 0 0.4-0.1 0.6-0.2z"></path><path fill="#30529a" d="m27.8 5.1c0.8 1 1.5 2 2.2 3.1-1.5 2.4-2.9 4.9-4.4 7.3-0.1 0-0.2-0.1-0.2-0.1 0-0.1 0.1-0.3 0.1-0.4 0.9-1.7 1.9-3.4 2.9-5 0.2-0.2 0.3-0.4 0.3-0.6 0.5-0.4 0.7-0.9 0.7-1.5-0.7-0.8-1.3-1.7-1.8-2.6-6.6 0-13.2-0.1-19.8-0.1 6.7-0.1 13.4-0.1 20-0.1z"></path><path fill="#f58737" d="m26.4 8.6h2.3v0.1c0.1 0.1 0 0.2-0.1 0.2-0.4 0.7-0.9 1.3-1.4 1.8 0-0.1-0.1-0.2-0.1-0.2-0.5-0.1-0.9-0.1-1.3-0.3 0.2 0 0.2-0.1 0-0.2 0.1-0.1 0.2-0.2 0.4-0.3-0.2-0.2-0.2-0.3 0-0.4-0.1-0.1-0.2-0.2-0.3-0.3 0.3 0 0.4-0.2 0.5-0.4z"></path><path fill="#faf2e7" d="m6.8 8.9l0.2 0.3c0.3 0.4 0.5 0.8 0.8 1.2 0.1 0.1 0.1 0.2 0.2 0.3 0.9 0 1.8 0.1 2.7 0h5.9v14c-0.1-4.6-0.2-9.1-0.2-13.7-0.2 0.6-0.2 0.6-0.3 0-2.1 0-4.2 0-6.3 0-0.3 0-0.6 0.1-0.9 0.2-0.1-0.1-0.2-0.1-0.3-0.1-0.2 0.2-0.4 0.3-0.6 0.5-0.4-0.6-0.8-1.3-1.2-2v-0.7z"></path><path fill="#fcfdfd" d="m28.4 10c-1 1.6-2 3.3-2.9 5-2.6 4.1-5.1 8.2-7.6 12.4-0.1 0.1-0.2 0.1-0.3 0-0.2-0.3-0.4-0.6-0.7-0.9l-8.9-14.9c0.2-0.2 0.4-0.3 0.6-0.5 0.1 0 0.2 0 0.3 0.1 0.3-0.1 0.6-0.2 0.9-0.2 2.1 0 4.2 0 6.3 0 0.1 0.6 0.1 0.6 0.3 0 0 4.6 0.1 9.1 0.2 13.7 0.3 0.6 0.7 1.2 1 1.8 0.2 0.1 0.4 0 0.3-0.3l0.7-1.1h0.4v-14.2c2.8 0 5.7 0 8.5-0.2 0.3-0.2 0.6-0.5 0.9-0.7z"></path><path fill="#fcead6" d="m28.6 8.9l0.1 0.5c0 0.2-0.1 0.4-0.3 0.6-0.3 0.2-0.6 0.5-0.9 0.7-2.8 0.2-5.7 0.2-8.5 0.2v14.2h-0.4c0-0.1 0.1-0.3 0.2-0.4 0-4.7 0.1-9.3 0-14h8.4c0.5-0.5 1-1.1 1.4-1.8z"></path><path fill="#f5943d" d="m17.9 26.2c0.1 0.3-0.1 0.4-0.3 0.3-0.3-0.6-0.7-1.2-1-1.8v-14h-5.9c0.6 0 1.2-0.1 1.8-0.2-0.2-0.1-0.5-0.1-0.9-0.2 0.2 0 0.4 0 0.5-0.1 0.3 0.1 0.5 0.1 0.8 0l-0.2-0.1 0.4-0.1c-0.1 0-0.2-0.1-0.3 0-0.1-0.4-0.2-0.7-0.1-1 1.5-0.1 3-0.1 4.5 0.1-0.1 0.3-0.2 0.6-0.4 0.9 0.2 0.4 0.4 1 0.5 1.6-0.2 4.3-0.2 8.6-0.1 12.9 0.1 0.1 0.2 0.1 0.3 0.2 0.2-0.4 0.2-0.4 0.2 0.1h-0.3c-0.1 0.3-0.1 0.7-0.1 1 0.1 0 0.2-0.1 0.3-0.1 0.1 0.1 0.2 0.3 0.3 0.5z"></path><path fill="#1c2c6a" d="m27.8 5.1c-6.6 0-13.3 0-20 0.1 6.6 0 13.2 0.1 19.8 0.1-6.6 0-13.2 0-19.8 0.2-0.6 0.9-1.3 1.8-1.9 2.7 0.2 0.5 0.5 1 0.9 1.4 0.4 0.7 0.8 1.4 1.2 2l8.9 14.9c-0.1-0.2-0.3-0.2-0.4-0.1-3.7-6-7.4-12.1-11-18.2 0.6-1.1 1.3-2.1 2.1-3.1 6.8-0.1 13.5-0.1 20.2 0z"></path><path fill="#2a4785" d="m25.5 15c0 0.1-0.1 0.3-0.1 0.4 0 0 0.1 0.1 0.2 0.1-2.6 4.2-5.2 8.5-7.8 12.8 0 0.1-0.1 0.1-0.2 0-0.4-0.6-0.7-1.3-1.1-1.9 0.1-0.1 0.3-0.1 0.4 0.1 0.3 0.3 0.5 0.6 0.7 1 0.1 0 0.2 0 0.3-0.1 2.5-4.2 5-8.3 7.6-12.4z"></path><path fill="#7a8caa" d="m7.3 29.5c-0.6-0.1-1.2-0.1-1.7 0-0.1 0-0.1 0-0.1-0.1 0.6-0.1 1.2-0.1 1.9 0 0 0.1-0.1 0.1-0.1 0.1z"></path><path fill="#748ab3" d="m16.9 29.5c-0.5-0.1-1-0.1-1.5 0v1.3h1.4c-0.5 0.1-1 0.1-1.6 0.1v-1.6c0.6 0 1.2 0 1.8 0.1 0 0.1 0 0.1-0.1 0.1z"></path><path fill="#768ba7" d="m17.4 29.4c0.2-0.1 0.5-0.1 0.8-0.1 0.4 0 0.6 0.1 0.9 0.2h-0.1c-0.5-0.1-1.1-0.1-1.6-0.1z"></path><path fill="#7d8aab" d="m27.8 29.4c-0.5 0-1.1 0-1.6 0.1-0.1 0-0.2-0.1-0.3-0.1 0.8-0.1 1.4-0.1 1.9 0z"></path><path fill="#7a8fb3" d="m28.2 29.4c0.6-0.1 1.2-0.1 1.8 0 0 0.1-0.1 0.1-0.1 0.1-0.6-0.1-1.1-0.1-1.7-0.1z"></path><path fill="#0f2a69" d="m7.7 29.5c0.5-0.1 1.1-0.1 1.7 0 0.2 0.1 0.3 0.3 0.1 0.5l-0.3-0.2c-0.4-0.2-0.7-0.2-1 0-0.2 0-0.4-0.1-0.5-0.3z"></path><path fill="#b4c5e2" d="m14.2 29.4h-0.4c0 0.3 0 0.6-0.1 0.8-0.1 0-0.2-0.1-0.3-0.2 0.2-0.2 0.3-0.4 0.3-0.7 0.2 0 0.4 0 0.5 0.1z"></path><path fill="#0d2966" d="m21.1 29.4c0.1 0.1 0.3 0.2 0.3 0.4 0 0.1 0 0.1-0.1 0.1-0.1 0-0.2 0-0.3 0.1 0-0.1 0-0.2-0.1-0.3-0.3-0.1-0.6-0.1-0.9-0.1-0.1-0.1-0.2-0.1-0.4-0.1v1.5c-0.1-0.5-0.1-1-0.1-1.6h1.6z"></path><path fill="#0a2466" d="m25.6 29.4c0.1 0 0.1 0.1 0.1 0.1 0 0.2-0.1 0.3-0.2 0.4 0-0.1-0.1-0.2-0.1-0.2-0.3-0.1-0.6-0.1-0.9-0.1h-0.1c-0.1 0-0.1-0.1-0.2-0.1 0 0.1-0.1 0.2-0.2 0.3v-0.4h1.6z"></path><path fill="#0a2059" d="m26.2 29.5c0.5-0.1 1.1-0.1 1.6-0.1-0.1 0.2-0.3 0.3-0.6 0.2-0.3-0.1-0.7-0.1-1-0.1z"></path><path fill="#092561" d="m15.4 29.5c0.5-0.1 1-0.1 1.5 0l-0.2 0.1h-1c-0.1-0.1-0.2-0.1-0.3-0.1z"></path><path fill="#13296c" d="m17.4 29.4c0.5 0 1.1 0 1.6 0.1-0.5 0.1-0.9 0.2-1.4 0.1-0.1 0.1-0.3 0-0.3-0.1 0 0 0-0.1 0.1-0.1z"></path><path fill="#0e2a67" d="m28.2 29.4c0.6 0 1.1 0 1.7 0.1-0.1 0-0.1 0.1-0.1 0.1h-1.4v0.4c-0.1-0.1-0.1-0.2-0.2-0.4 0 0.2-0.1 0.2-0.1 0l0.1-0.2z"></path><path fill="#cfdcec" d="m21.1 29.4h-1.6c0 0.6 0 1.1 0.1 1.6 0.3-0.1 0.4-0.4 0.4-0.7h1c-0.3 0.1-0.6 0.2-0.9 0.2 0.1 0.2 0.1 0.4 0 0.5-0.2 0.1-0.5 0.1-0.7 0.1 0-0.5 0-0.9-0.2-1.3-0.1 0-0.1 0.2-0.1 0.3-0.5-0.1-1-0.1-1.5-0.1v-0.4c0.5 0.1 0.9 0 1.4-0.1h0.1c0.3-0.1 0.7-0.2 1.2-0.2 0.3 0 0.5 0 0.8 0.1z"></path><path fill="#e4eff5" d="m20 29.6c0.3 0 0.6 0 0.9 0.1 0.1 0.1 0.1 0.2 0.1 0.3h-1v-0.4z"></path><path fill="#e2ecf6" d="m9.2 29.8c-0.1 0.1-0.3 0.2-0.5 0.2-0.3 0-0.4-0.1-0.5-0.2 0.3-0.2 0.6-0.2 1 0z"></path><path fill="#aec3e3" d="m15.7 29.6h1c-0.3 0.1-0.6 0.2-0.9 0.2 0.3 0.1 0.7 0.1 1 0.1 0 0.2 0 0.3-0.2 0.3 0-0.1 0-0.1 0.1-0.2-0.3 0-0.7 0-1 0v-0.4z"></path><path fill="#1c529f" d="m26.2 29.5c0.3 0 0.7 0 1 0.1-0.1 0.4-0.2 0.8-0.3 1.2 0-0.4-0.1-0.8-0.2-1.2-0.2 0.1-0.4 0-0.5-0.1z"></path><path fill="#adc9e7" d="m29.8 29.6c-0.4 0.1-0.8 0.2-1.3 0.2 0.5 0 0.9 0.1 1.3 0.2h-1.4v-0.4h1.4z"></path><path fill="#a8bedb" d="m5.6 29.5c0.2 0.1 0.4 0.2 0.6 0.1 0 0.5 0 1 0.2 1.4-0.1 0.1-0.1 0.1-0.2 0.1-0.1-0.4-0.1-0.9-0.1-1.3-0.2 0-0.4-0.1-0.5-0.3z"></path><path fill="#1c5396" d="m28.1 29.6c0 0.2 0.1 0.2 0.1 0 0.1 0.2 0.1 0.3 0.2 0.4h1.4c0.3 0.2 0.3 0.5 0 0.8-0.6 0-1.2 0-1.7-0.1 0.5-0.1 1-0.2 1.4-0.3-0.4-0.2-0.8-0.2-1.3-0.3-0.2-0.1-0.3-0.3-0.1-0.5z"></path><path fill="#225496" d="m17.3 29.5c0 0.1 0.2 0.2 0.3 0.1v0.4c0.5 0 1 0 1.5 0.1 0.1 0.3 0 0.5-0.3 0.7-0.5 0-1 0-1.5-0.1 0.4-0.2 0.8-0.2 1.3-0.2v-0.3c-0.4 0-0.9 0-1.3-0.1-0.3-0.2-0.3-0.4 0-0.6z"></path><path fill="#345b95" d="m21.9 29.3c0.5 0 1 0 1.4 0.1 0.3 0.5 0.3 1 0 1.4-1.4 0.4-1.9-0.1-1.4-1.5z"></path><path fill="#97adcc" d="m25.6 29.4h-1.6v0.4c0 0.4 0 0.8 0.1 1.2 0 0.1 0 0.1-0.1 0.1-0.1-0.6-0.1-1.2-0.1-1.8 0.6 0 1.2 0 1.7 0.1z"></path><path fill="#2b558a" d="m26.7 29.6c0.1 0.4 0.2 0.8 0.2 1.2 0.1-0.4 0.2-0.8 0.3-1.2 0.1 0.6-0.1 1.1-0.4 1.5-0.1-0.5-0.1-1-0.1-1.5z"></path><path fill="#175098" d="m15.4 29.5c0.1 0 0.2 0 0.3 0.1v0.4c0.3 0 0.7 0 1 0-0.1 0.1-0.1 0.1-0.1 0.2h-0.9v0.3c0.4 0 0.8 0 1.2 0.1 0 0-0.1 0.1-0.1 0.2h-1.4v-1.3z"></path><path fill="#3161a7" d="m20 29.6v0.4h1c0.1-0.1 0.2-0.1 0.3-0.1 0 0.2-0.1 0.3-0.3 0.4h-1c0 0.3-0.1 0.6-0.4 0.7v-1.5c0.2 0 0.3 0 0.4 0.1z"></path><path fill="#3b67a3" d="m25.7 29.5c0.1 0.1 0.2 0.2 0.2 0.3-0.1 0.1-0.1 0.2-0.2 0.3 0.2 0.2 0.3 0.5 0.2 0.8h-0.4c0-0.2 0-0.4-0.1-0.5-0.3-0.1-0.6-0.1-0.9-0.1 0 0.2 0 0.4-0.1 0.6v-1.3h0.1v0.4c0.3 0 0.7 0 1-0.1 0.1-0.1 0.2-0.2 0.2-0.4z"></path><path fill="#e0edf6" d="m24.5 29.6c0.3 0 0.6 0 0.9 0.1 0 0 0.1 0.1 0.1 0.2-0.3 0.1-0.7 0.1-1 0.1v-0.4z"></path><path fill="#2a5596" d="m13.4 30c0.1 0.1 0.2 0.2 0.3 0.2 0.1-0.2 0.1-0.5 0.1-0.8h0.4v1.5c-0.1 0-0.3 0-0.4-0.1-0.3-0.3-0.6-0.5-0.9-0.7l-0.2 0.8-0.3 0.1c-0.1-0.5-0.1-1.1-0.1-1.6 0.5 0.1 0.8 0.3 1.1 0.6z"></path><path fill="#2d5f9e" d="m7.7 29.5c0.1 0.2 0.3 0.3 0.5 0.3 0.1 0.1 0.2 0.2 0.5 0.2 0.2 0 0.4-0.1 0.5-0.2l0.3 0.2c0 0.1 0 0.3 0.1 0.4v0.4h-0.3c0-0.2 0-0.3-0.1-0.4-0.3-0.1-0.7-0.1-1-0.1 0 0.3-0.1 0.6-0.4 0.7-0.1-0.5-0.1-1-0.1-1.5z"></path><path fill="#bfcfea" d="m22.1 29.6h1.1v0.9h-1.1v-0.9z"></path><path fill="#f9fdfc" d="m22.2 29.8h0.9v0.6h-0.9v-0.6z"></path><path fill="#254689" d="m5.6 29.5c0.5-0.1 1.1-0.1 1.7 0-0.2 0.1-0.4 0.2-0.6 0.1 0 0.5 0 0.9-0.1 1.3-0.1 0-0.2 0.1-0.2 0.1-0.2-0.4-0.2-0.9-0.2-1.4-0.2 0.1-0.4 0-0.6-0.1z"></path><path fill="#8ca9cc" d="m9.2 30.4c0.1 0.1 0.1 0.2 0.1 0.4h0.3v-0.4c0.1 0.2 0.2 0.3 0.1 0.5h-0.5v-0.5z"></path><path fill="#335896" d="m10.3 29.3c0.4 0 0.9 0 1.3 0.1 0.5 0.4 0.5 0.9 0 1.4-0.4 0.1-0.9 0.1-1.4 0-0.3-0.6-0.3-1 0.1-1.5z"></path><path fill="#bdd4ed" d="m10.4 29.6h1.1v0.9h-1.1v-0.9z"></path><path fill="#fafcfc" d="m10.5 29.8h0.9v0.6h-0.9v-0.6z"></path><path fill="#1c4b96" d="m24.4 29.6v1.3l-0.3 0.1c-0.1-0.4-0.1-0.8-0.1-1.2 0.1-0.1 0.2-0.2 0.2-0.3 0.1 0 0.1 0.1 0.2 0.1z"></path><path fill="#7e99b9" d="m17.3 30.7c0.5 0.1 1 0.1 1.5 0.1-0.5 0.1-1.1 0.1-1.8 0 0.1-0.1 0.2-0.1 0.3-0.1z"></path><path fill="#7e9bbe" d="m28.1 30.7c0.5 0.1 1.1 0.1 1.7 0.1-0.6 0.1-1.2 0.1-1.8 0 0-0.1 0-0.1 0.1-0.1z"></path></svg>