<?xml version="1.0"?><svg xmlns="http://www.w3.org/2000/svg" width="36" height="36" shape-rendering="geometricPrecision" text-rendering="geometricPrecision" image-rendering="optimizeQuality" fill-rule="evenodd" clip-rule="evenodd" viewBox="0 0 36 36"><path fill="#020202" d="m-0.1-0.1h36v36h-36v-36z"></path><path fill="#f2b879" d="m17.2 2.8c1.3-0.3 2 0.1 2.3 1.4-0.6 0-0.8 0.3-0.7 0.9-0.7-0.2-0.8-0.5-0.2-0.8-0.7-0.1-0.8-0.3-0.3-0.5-0.2-0.1-0.4-0.1-0.6-0.1-0.7-0.1-0.8-0.4-0.5-0.9z"></path><path fill="#f6ee37" d="m17.2 2.8c-0.3 0.5-0.2 0.8 0.5 0.9 0.1 0.6-0.2 1.1-0.7 1.4 0.6 0.2 0.9 0.7 0.9 1.3-0.8 0-0.8 0.1-0.2 0.5l-0.5 0.2c-0.4-0.2-0.7-0.6-0.9-1-0.3-0.1-0.6-0.2-0.9-0.4 0.3-1.1 0.9-2.1 1.8-2.9z"></path><path fill="#b3f2f1" d="m30.3 26c-0.5 0-1-0.1-1.4-0.3-0.3-0.2-0.3-0.3 0-0.5l-1.8-0.4c0.4-0.1 0.8-0.2 1.1-0.4l-0.4-0.2c-1.2 0.3-2.4 0.3-3.6 0-0.1-0.5 0-0.9 0.2-1.4 0.6-0.4 1.3-0.5 2-0.4 0.1 0.2 0.3 0.3 0.5 0.2 1.4 0.1 2.9 0.3 4.3 0.7 0.3-0.2 0.3-0.3 0-0.5-0.5-0.1-1.1-0.2-1.6-0.3 0.3-0.1 0.3-0.3 0-0.3-0.5 0.4-1 0.5-1.6 0.2 1.1-0.9 2.4-1.3 3.8-1.5-0.2-0.2-0.5-0.4-0.9-0.5-0.2 0.3-0.6 0.4-1 0.4-1.3 0-2.7-0.1-4.1-0.2-0.1-0.4 0.1-0.8 0.4-1 0.4-0.5 1-0.6 1.6-0.6 1 0 1.9 0 2.9 0.2l0.5-0.2c-0.3-0.2-0.6-0.3-0.9-0.3 0.4-0.1 0.9-0.3 1.3-0.5-1 0-2.1 0.2-3 0.6-0.3-0.1-0.5-0.2-0.6-0.5 0.2 0.1 0.3 0 0.5-0.1 0.6-0.9 1.4-1.7 2.2-2.4-0.1-0.4-0.3-0.4-0.6 0.1l-0.1-0.3c0.4-0.4 0.5-1 0.4-1.5-0.3 0.6-0.8 1-1.5 1.1-0.3-0.4-0.2-0.7 0.2-1-0.4-0.1-0.8 0.1-1 0.5-0.4-0.1-0.7-0.1-1 0 0.1-0.5 0.3-0.9 0.7-1.3 0.6-0.6 1.2-1.2 1.8-1.9-0.7 0.1-1.3 0.4-1.8 0.9l0.4 0.2c-0.2 0.2-0.3 0.3-0.4 0.6-0.9 0.8-1.5 1.8-2 2.9 0.1-1.3 0.7-2.4 1.8-3.3-0.8 0.1-1.4 0.5-1.8 1.2 0.1 0 0.1 0.2 0.2 0.3-0.4 0.8-0.8 1.5-1.2 2.2-0.4-1-0.1-1.8 0.7-2.3-0.1-0.3-0.1-0.5 0.2-0.8l1.9-2.4c-0.2-0.1-0.3-0.1-0.5 0-0.3 0.6-0.8 1.1-1.3 1.5-0.3 0.7-0.7 1.4-1.3 2-0.1-1.6 0.4-3 1.5-4.3-0.3-0.4-0.5-0.8-0.7-1.3 0 1.3-0.4 2.5-1.1 3.6-0.2-3.3-1.2-6.3-2.9-9.1 4.7 1.1 8.1 3.9 10.2 8.4 1.3 4 1.3 8 0 11.9-0.4 0.8-0.8 1.6-1.2 2.3z"></path><path fill="#4aa0ed" d="m13.8 4.2c-0.9 0.3-1.6 0.8-2.2 1.5 0-0.1-0.1-0.2-0.2-0.2-0.3 0.3-0.7 0.5-1 0.7-0.3-0.1-0.4-0.3-0.5-0.5-0.5 0.3-0.8 0.6-0.8 1.2-0.1 0.7-0.6 1-1.3 0.9 0-0.4-0.1-0.6-0.5-0.7 1.9-2.3 4.3-3.5 7.2-3.8-0.2 0.3-0.4 0.6-0.7 0.9z"></path><path fill="#f4eb37" d="m19.5 4.2c0.4 0.2 0.6 0.6 0.6 1.1l-0.6 1.8c-1.1-0.4-1.2-1-0.3-1.7-0.1-0.2-0.2-0.3-0.4-0.3-0.1-0.6 0.1-0.9 0.7-0.9z"></path><path fill="#0eae2d" d="m13.8 4.2c-0.6 1.3-1.1 2.6-1.5 4-0.3 0.1-0.5 0-0.7-0.2-0.6-0.8-0.6-1.5 0-2.3 0.6-0.7 1.3-1.2 2.2-1.5z"></path><path fill="#096415" d="m11.6 5.7c-0.6 0.8-0.6 1.5 0 2.3 0.2 0.2 0.4 0.3 0.7 0.2-0.4 1.1-0.7 2.2-0.9 3.4-0.5-0.5-0.9-1-1.2-1.7 0.3-0.4 0.2-0.7-0.2-1-0.3 0.5-0.5 0.5-0.7-0.2l0.5-0.7c-0.1-0.3-0.2-0.3-0.4 0-0.2-0.4-0.3-0.8-0.3-1.1 0-0.6 0.3-0.9 0.8-1.2 0.1 0.2 0.2 0.4 0.4 0.5 0.4-0.2 0.8-0.4 1.1-0.7 0.1 0 0.2 0.1 0.2 0.2z"></path><path fill="#cb710a" d="m17.7 3.7c0.2 0 0.4 0 0.6 0.1-0.5 0.2-0.4 0.4 0.3 0.5-0.6 0.3-0.5 0.6 0.2 0.8 0.2 0 0.3 0.1 0.4 0.3-0.9 0.7-0.8 1.3 0.3 1.7l0.6-1.8c0.5 0.7 0.8 1.4 0.9 2.2-0.1 0.7-0.5 1-1.2 1.2-0.1-0.3-0.3-0.5-0.6-0.5-0.4 0.2-0.8 0.3-1.3 0.2-0.2 0-0.3-0.1-0.5-0.2-0.2 0.7-0.7 1.3-1.3 1.8l-1.6-1.6c0.1-1 0.4-1.9 0.9-2.7 0.3 0.2 0.6 0.3 0.9 0.4 0.2 0.4 0.5 0.8 0.9 1l0.5-0.2c-0.6-0.4-0.6-0.5 0.2-0.5 0-0.6-0.3-1.1-0.9-1.3 0.5-0.3 0.8-0.8 0.7-1.4z"></path><path fill="#0f7d48" d="m9.1 6.9c0 0.3 0.1 0.7 0.4 1.1 0.1-0.3 0.2-0.3 0.3 0l-0.5 0.7c0.2 0.7 0.4 0.7 0.7 0.2 0.4 0.3 0.5 0.6 0.2 1 0.3 0.7 0.7 1.2 1.2 1.7 0 0.6-0.1 1.2-0.3 1.8-0.4 0-0.8 0-1.2 0.2l-0.3-0.2 0.4-0.5c-0.8 0.2-1.3-0.2-1.3-1.1-0.8 0-1.3-0.3-1.4-1.1 0-0.2 0.1-0.3 0.2-0.4-0.6-0.4-0.7-0.8-0.2-1.3-0.7-0.4-0.8-0.8-0.2-1.2 0-0.2-0.1-0.2-0.2-0.3 0-0.2 0.2-0.3 0.4-0.4 0.4 0.1 0.5 0.3 0.5 0.7 0.7 0.1 1.2-0.2 1.3-0.9z"></path><path fill="#469feb" d="m6.9 7.5c0.1 0.1 0.2 0.1 0.2 0.3-0.6 0.4-0.5 0.8 0.2 1.2-0.5 0.5-0.4 0.9 0.2 1.3-0.1 0.1-0.2 0.2-0.2 0.4-0.4 0-0.8 0-1.2-0.2-0.1 0.2-0.2 0.4-0.4 0.5 0.6 0.4 0.6 0.7 0 1.2 0.2 0 0.4 0.1 0.5 0.3 0 0.2 0 0.4-0.2 0.4-0.6-0.3-1.1-0.2-1.6 0.2 0.1 0.5 0.3 1.1 0.4 1.6 0.2 0.1 0.3 0.3 0.3 0.5-0.3 0.3-0.6 0.3-0.9 0-0.2 0.5-0.5 0.6-0.9 0.4-0.4 1-0.1 1.7 0.9 2.1-0.1 0.6-0.1 1.2 0 1.8-0.2-0.3-0.3-0.2-0.5 0.1 0.2 0.7 0.3 1.4 0.3 2.1 0.1 0.1 0.2 0.2 0.4 0.2 0.2 0.2 0.4 0.4 0.4 0.7 0.1 0.5 0 1-0.3 1.4-0.2-0.3-0.4-0.5-0.8-0.5-1.9-5.3-1.3-10.2 1.9-14.8 0.4-0.5 0.8-0.8 1.3-1.2z"></path><path fill="#faf132" d="m21 7.5c0.3 0.5 0.4 1.1 0.5 1.6v0.5c-0.2-0.1-0.5 0-0.7 0.1-0.4 0.8-1 1.2-1.8 1.4 0.1 0.2 0.3 0.3 0.5 0.4-0.6 0-0.7 0.3-0.5 0.7-0.5 0-0.7 0.2-0.4 0.6-0.3 0.2-0.4 0.4-0.5 0.7 0.1 0.5 0.4 0.8 0.9 1-0.7 0.4-1.1 1-1.3 1.8 0.3 0.2 0.7 0.3 1.1 0.4-0.9 0.2-0.9 0.5 0 0.7 0.2 0 0.4-0.2 0.5-0.4 0.3 1.5 0.5 1.5 0.7 0 0.3 0.2 0.5 0.5 0.8 0.7l-0.2 0.4c0.3 0.3 0.5 0.6 0.7 1l-0.7 0.3c0.2 0.2 0.5 0.5 0.7 0.7-0.1 0.6-0.3 0.9-0.7 0.7-0.4-0.3-0.8-0.5-1.4-0.7-0.1-0.5-0.1-1 0-1.4l-1.5-1.3-0.5 0.3c-0.3-0.5-0.6-0.9-0.9-1.3 0.5-0.2 0.5-0.5 0-0.9 0.1-0.2 0.1-0.4 0.2-0.5-0.6-0.4-1.1-0.2-1.3 0.5 0.1 0.2 0.2 0.4 0.4 0.5-0.2 0-0.4 0.1-0.6 0.3 0.2 0.2 0.5 0.4 0.6 0.7-0.1 0.2-0.3 0.2-0.5 0-0.3 0.1-0.4 0.2-0.4 0.4-0.3 0-0.6 0.2-0.7 0.5-0.1-0.5-0.4-0.8-0.8-0.9-0.1-1.1 0-2.3 0.1-3.4 0-0.2 0.2-0.3 0.3-0.4 0.2 0.2 0.3 0.5 0.5 0.9 0.3-0.2 0.7-0.3 1.1-0.1 0.2-0.3 0.3-0.5 0.2-0.8 0.2 0 0.5 0 0.7-0.1-0.4-0.2-0.7-0.4-0.9-0.6 0.1-0.2 0.3-0.3 0.4-0.3-0.1-0.1-0.3-0.2-0.4-0.4 0.2-0.5 0.2-0.9 0-1.2-0.6-0.1-0.9-0.3-1.1-0.8 0.1-0.5 0.2-0.9 0.4-1.4l1.6 1.6c0.6-0.5 1.1-1.1 1.3-1.8 0.2 0.1 0.3 0.2 0.5 0.2 0.1 0.6 0.3 1.1 0.7 1.6 0.4-0.1 0.7-0.3 1.1-0.4-0.4-0.4-0.5-0.9-0.5-1.4 0.3 0 0.5 0.2 0.6 0.5 0.7-0.2 1.1-0.5 1.2-1.2z"></path><path fill="#ae833e" d="m19.2 8.2c0 0.5 0.1 1 0.5 1.4-0.4 0.1-0.7 0.3-1.1 0.4-0.4-0.5-0.6-1-0.7-1.6 0.5 0.1 0.9 0 1.3-0.2z"></path><path fill="#696956" d="m25.8 16.1c-0.3 0.5-0.8 0.8-1.4 0.7-0.1-1.5-0.2-2.9-0.2-4.3 0.7-1.1 1.1-2.3 1.1-3.6 0.2 0.5 0.4 0.9 0.7 1.3-1.1 1.3-1.6 2.7-1.5 4.3 0.6-0.6 1-1.3 1.3-2 0.5-0.4 1-0.9 1.3-1.5 0.2-0.1 0.3-0.1 0.5 0l-1.9 2.4c-0.3 0.3-0.3 0.5-0.2 0.8-0.8 0.5-1.1 1.3-0.7 2.3 0.4-0.7 0.8-1.4 1.2-2.2-0.1-0.1-0.1-0.3-0.2-0.3 0.4-0.7 1-1.1 1.8-1.2-1.1 0.9-1.7 2-1.8 3.3z"></path><path fill="#c26201" d="m21.5 9.1c0.2 0.6 0.4 1.2 0.4 1.8-0.2 0-0.3 0.1-0.4 0.2 0.3 0.7 0.2 1.3-0.3 1.8-0.2-0.2-0.4-0.3-0.6-0.4-0.2 0-0.3 0-0.5-0.1 0.1-0.4 0.1-0.7 0-1.1 0.4-0.7 0.9-1.3 1.4-1.7v-0.5z"></path><path fill="#f49125" d="m14.1 9.8c0.2 0.5 0.5 0.7 1.1 0.8 0.2 0.3 0.2 0.7 0 1.2 0.1 0.2 0.3 0.3 0.4 0.4-0.1 0-0.3 0.1-0.4 0.3 0.2 0.2 0.5 0.4 0.9 0.6-0.2 0.1-0.5 0.1-0.7 0.1 0.1 0.3 0 0.5-0.2 0.8-0.4-0.2-0.8-0.1-1.1 0.1-0.2-0.4-0.3-0.7-0.5-0.9-0.1-0.6 0.1-1.1 0.5-1.5-0.3-0.7-0.3-1.3 0-1.9z"></path><path fill="#f78409" d="m21.5 9.6c-0.5 0.4-1 1-1.4 1.7 0.1 0.4 0.1 0.7 0 1.1 0.2 0.1 0.3 0.1 0.5 0.1 0.4 0.5 0.8 1.1 1 1.8 0.2 0.2 0.3 0.2 0.6 0.2 0.2 1.9 0.3 3.9 0.2 5.9-0.5 0.3-0.8 0.2-1.1-0.3-0.2-0.2-0.5-0.5-0.7-0.8l0.7-0.2c-0.2-0.4-0.4-0.7-0.7-1l0.2-0.4c-0.3-0.2-0.5-0.5-0.8-0.7-0.2 1.5-0.4 1.5-0.7 0-0.1 0.2-0.3 0.4-0.5 0.4-0.9-0.2-0.9-0.5 0-0.8-0.4 0-0.8-0.1-1.1-0.3 0.2-0.8 0.6-1.4 1.3-1.8-0.5-0.2-0.8-0.5-0.9-1 0.1-0.3 0.2-0.5 0.5-0.7-0.3-0.4-0.1-0.6 0.4-0.7-0.2-0.3-0.1-0.6 0.5-0.6-0.2-0.1-0.4-0.2-0.5-0.4 0.8-0.2 1.4-0.6 1.8-1.4 0.2-0.1 0.5-0.2 0.7-0.1z"></path><path fill="#ec9d3f" d="m21.9 10.9c0.2 0.5 0.3 1 0.3 1.6v2c-0.3 0-0.4 0-0.6-0.2-0.2-0.7-0.6-1.3-1-1.8 0.2 0.1 0.4 0.2 0.6 0.4 0.5-0.5 0.6-1.1 0.3-1.8 0.1-0.1 0.2-0.2 0.4-0.2z"></path><path fill="#6f6e58" d="m27.8 13.4v-0.2c0.1-0.3 0.2-0.4 0.4-0.6l-0.4-0.2c0.5-0.5 1.1-0.8 1.8-0.9-0.6 0.7-1.2 1.3-1.8 1.9z"></path><path fill="#0e984e" d="m6 12.9c0.3 0.5 0.8 0.9 1.3 1.2 0.3 0.4 0.5 0.8 0.7 1.3-0.3 0-0.5-0.1-0.7-0.2-0.2-0.3-0.2-0.6-0.2-0.9-0.7-0.2-1.4-0.2-2-0.1-0.2 0.1-0.3 0.3-0.3 0.5-0.1-0.5-0.3-1.1-0.4-1.7 0.5-0.3 1-0.4 1.6-0.1z"></path><path fill="#29aaa2" d="m6.2 12.5c0.2 0.3 0.5 0.6 0.8 0.9 0.2-0.3 0.4-0.3 0.6 0 0.2 0.3 0.1 0.5-0.3 0.7-0.5-0.3-1-0.7-1.3-1.2 0.2 0 0.2-0.2 0.2-0.4z"></path><path fill="#0ec75e" d="m7.3 10.7c0.1 0.8 0.6 1.1 1.4 1.1 0 0.9 0.5 1.3 1.3 1.1l-0.4 0.5 0.3 0.2c0.4-0.2 0.8-0.2 1.2-0.2v3.1c-0.5 0-1 0.1-1.5 0.1-0.2-0.4-0.4-0.8-0.6-1.2-0.4 0.3-0.7 0.3-1 0-0.2-0.5-0.4-0.9-0.7-1.3 0.4-0.2 0.5-0.4 0.4-0.7-0.3-0.3-0.5-0.3-0.7 0-0.3-0.3-0.6-0.6-0.8-0.9-0.1-0.2-0.3-0.3-0.5-0.4 0.6-0.4 0.6-0.7 0-1.1 0.2-0.1 0.3-0.3 0.4-0.5 0.4 0.2 0.8 0.2 1.2 0.2z"></path><path fill="#31f236" d="m7.3 15.2c-0.2 0.1-0.3 0.2-0.4 0.3 0.1 0.5 0.3 0.8 0.6 1.1-0.3 0.2-0.6 0.2-0.9 0.2 0.1-0.4 0-0.8-0.2-1.2-0.6 0.4-1.1 0.2-1.3-0.4 0-0.2-0.1-0.4-0.3-0.5 0-0.2 0.1-0.4 0.3-0.5 0.6-0.1 1.3-0.1 2 0.1 0 0.3 0 0.6 0.2 0.9z"></path><path fill="#9abfb5" d="m28.9 15.2v0.2c-0.7 0.5-1.4 1-2.2 1.4-0.1-0.2-0.2-0.3-0.3-0.5l0.7-0.9c-0.2-0.3-0.2-0.5 0-0.7 0.3-0.1 0.6-0.1 1 0 0.2-0.4 0.6-0.6 1-0.5-0.4 0.3-0.5 0.6-0.2 1z"></path><path fill="#b2efed" d="m28 18.3c-0.1 0-0.2 0.1-0.2 0.3-0.3 0.2-0.5 0.2-0.8 0-0.2 0.2-0.5 0.5-0.8 0.6l-0.2-0.3c0.1-0.8 0.3-1.5 0.7-2.1 0.8-0.4 1.5-0.9 2.2-1.4 0.3 0.1 0.6 0 0.8-0.2-0.2 1.2-0.8 2.3-1.7 3.1z"></path><path fill="#076712" d="m5.1 15.2c0.2 0.6 0.7 0.8 1.3 0.4 0.2 0.4 0.3 0.8 0.2 1.2 0.3 0 0.6 0 0.9-0.2-0.3-0.3-0.5-0.6-0.6-1.1 0.1-0.1 0.2-0.2 0.4-0.3 0.2 0.1 0.4 0.2 0.7 0.2 0.3 0.3 0.6 0.3 1 0 0.2 0.4 0.4 0.8 0.6 1.2 0.5 0 1-0.1 1.5-0.1v2.7c-0.1-0.1-0.3-0.3-0.4-0.5-0.5-0.1-0.9-0.2-1.4-0.4-0.1-0.4-0.4-0.6-0.9-0.6-0.2-0.2-0.5-0.4-0.9-0.5-1.1 0.2-2.2 0.4-3.3 0.5-1-0.4-1.3-1.1-0.9-2.1 0.4 0.2 0.7 0.1 0.9-0.4 0.3 0.3 0.6 0.3 0.9 0z"></path><path fill="#6d6a54" d="m28 18.3c0.9-0.8 1.5-1.9 1.7-3.1-0.2 0.2-0.5 0.3-0.8 0.2v-0.2c0.7-0.1 1.2-0.5 1.5-1.1 0.1 0.5 0 1.1-0.4 1.5l0.1 0.3c0.3-0.5 0.5-0.5 0.6-0.1-0.8 0.7-1.6 1.5-2.2 2.4-0.2 0.1-0.3 0.2-0.5 0.1z"></path><path fill="#f78203" d="m20.6 20.8c-0.2 0.4-0.4 0.8-0.7 1.1 0.1 0.3 0.3 0.5 0.5 0.7-0.2 0.2-0.4 0.3-0.7 0.3l0.7 0.6v0.9c-0.5 0.1-1.1 0.1-1.6-0.2-0.2 0.3-0.3 0.6-0.3 0.9-0.4-0.6-0.6-0.5-0.6 0.2-0.2-0.1-0.3-0.4-0.2-0.7-0.3 0.1-0.6 0-0.7-0.2l-0.5-0.4c0.3-0.3 0.2-0.5-0.2-0.6 0.2-0.3 0.3-0.6 0.1-1-0.3 0.3-0.5 0.3-0.8 0 0.3-0.9 0.1-1.1-0.6-0.5l-0.5-0.1c-0.1-0.4-0.4-0.7-0.7-1 0.1-0.3 0-0.6-0.2-0.9 0.6-0.1 1.1-0.4 1.6-0.8-0.6-0.4-0.8-1-0.5-1.7 0-0.2 0.1-0.3 0.4-0.4 0.2 0.2 0.4 0.2 0.5 0-0.1-0.3-0.4-0.5-0.6-0.7 0.2-0.2 0.4-0.3 0.6-0.3-0.2-0.1-0.3-0.3-0.4-0.5 0.2-0.7 0.7-0.9 1.3-0.5-0.1 0.1-0.1 0.3-0.2 0.5 0.5 0.4 0.5 0.7 0 0.9 0.3 0.4 0.6 0.8 0.9 1.3l0.5-0.3 1.5 1.3c-0.1 0.4-0.1 0.9 0 1.4 0.6 0.2 1 0.4 1.4 0.7z"></path><path fill="#13c268" d="m8.4 17.7c-0.6 0-1 0.3-1.3 0.8 0 0.3 0.1 0.4 0.3 0.1 0.2 0.3 0.4 0.4 0.8 0.4 0 0.3 0 0.6 0.2 0.9 0.5-0.2 0.6-0.1 0.3 0.5-0.5-0.2-0.9-0.5-1.2-0.8-0.4 0-0.9 0-1.3-0.1-0.2-0.6-0.3-0.6-0.5 0-0.5-0.3-1.1-0.2-1.5 0.2v-0.2c-0.1-0.6-0.1-1.2 0-1.8 1.1-0.1 2.2-0.3 3.3-0.5 0.4 0.1 0.7 0.3 0.9 0.5z"></path><path fill="#01f77a" d="m8.4 17.7c0.5 0 0.8 0.2 0.9 0.6 0.5 0.2 0.9 0.3 1.4 0.4 0.1 0.2 0.3 0.4 0.4 0.5v0.3c0.1 0.6 0 1.2-0.2 1.8-0.1 0.6-0.3 0.6-0.6 0-0.1 0.2-0.3 0.3-0.5 0.4-0.2-0.3-0.3-0.7-0.4-1.1-0.2-0.2-0.4-0.3-0.7-0.2 0.3-0.6 0.2-0.7-0.3-0.5-0.2-0.3-0.2-0.6-0.2-0.9-0.4 0-0.6-0.1-0.8-0.4-0.2 0.3-0.3 0.2-0.3-0.1 0.3-0.5 0.7-0.8 1.3-0.8z"></path><path fill="#ce6f02" d="m13.2 17c0.4 0.1 0.7 0.4 0.7 0.9 0.2-0.3 0.5-0.5 0.8-0.5-0.3 0.7-0.1 1.3 0.5 1.7-0.5 0.4-1 0.7-1.6 0.8-0.1-0.2-0.2-0.3-0.4-0.2v-2.7z"></path><path fill="#b3efed" d="m24.6 20.6v-2c0.3-0.6 0.7-1.1 1.3-1.4-0.2 1.1-0.4 2.3-0.6 3.4h-0.7z"></path><path fill="#71410d" d="m22.2 12.5c0.3 1.8 0.4 3.6 0.4 5.5 0 1.2-0.1 2.4-0.2 3.5v-1.1c0.1-2 0-4-0.2-5.9v-2z"></path><path fill="#7d8a78" d="m27.8 19v-0.4c0-0.2 0.1-0.3 0.2-0.3 0.1 0.3 0.3 0.4 0.6 0.5 0.9-0.4 2-0.6 3-0.6-0.4 0.2-0.9 0.4-1.3 0.5 0.3 0 0.6 0.1 0.9 0.3l-0.5 0.2c-1-0.2-1.9-0.2-2.9-0.2z"></path><path fill="#33f696" d="m5.7 19.5h0.5c-0.1 0.7 0.1 1.3 0.7 1.8-0.7-0.2-1.3-0.4-2-0.7-0.2 0-0.3 0.1-0.5 0.2-0.1-0.4-0.2-0.7-0.2-1.1 0.4-0.4 1-0.5 1.5-0.2z"></path><path fill="#2fa7d6" d="m6.2 19.5h-0.5c0.2-0.6 0.3-0.6 0.5 0z"></path><path fill="#04af14" d="m6.2 19.5c0.4 0.1 0.9 0.1 1.3 0.1 0.3 0.3 0.7 0.6 1.2 0.8 0.3-0.1 0.5 0 0.7 0.2 0.1 0.4 0.2 0.8 0.4 1.1l-0.2 0.9c-0.5 0-1-0.2-1.4-0.4-0.2-0.3-0.5-0.5-0.9-0.5-0.1-0.2-0.2-0.4-0.4-0.4-0.6-0.5-0.8-1.1-0.7-1.8z"></path><path fill="#c8b229" d="m13.2 19.7c0.2-0.1 0.3 0 0.4 0.2 0.2 0.3 0.3 0.6 0.2 0.9-0.1-0.1-0.2-0.2-0.3-0.4-0.1 0.6-0.1 1.2-0.1 1.8-0.2-0.8-0.3-1.6-0.2-2.5z"></path><path fill="#095437" d="m11.1 19.5c0.3 0.6 0.3 1.3 0 2 0-0.2 0-0.2-0.2-0.2 0.2-0.6 0.3-1.2 0.2-1.8z"></path><path fill="#22bf9d" d="m4.2 19.5v0.2c0 0.4 0.1 0.7 0.2 1.1-0.2 0.4-0.2 0.7 0 1.1-0.2 0-0.3-0.1-0.4-0.2 0-0.7-0.1-1.4-0.3-2.1 0.2-0.3 0.3-0.4 0.5-0.1z"></path><path fill="#533b22" d="m27.8 13.2v0.2c-0.4 0.4-0.6 0.8-0.7 1.3-0.2 0.2-0.2 0.4 0 0.7l-0.7 0.9c0.1 0.2 0.2 0.3 0.3 0.5-0.4 0.6-0.6 1.3-0.7 2.1l0.2 0.3c0.3-0.1 0.6-0.4 0.8-0.6 0.3 0.2 0.5 0.2 0.8 0v0.4c-0.6 0-1.2 0.1-1.6 0.6-0.3 0.2-0.5 0.6-0.4 1v0.4c-0.4 0.2-0.5 0.5-0.5 0.9l1.4 0.3c0 0.1-0.1 0.2-0.3 0.2-0.7-0.1-1.4 0-2 0.4v-0.9c0.4 0 0.6-0.3 0.7-0.8-0.1-0.2-0.2-0.3-0.5-0.3v-0.2h0.7c0.2-1.1 0.4-2.3 0.6-3.4-0.6 0.3-1 0.8-1.3 1.4 0.1-0.7 0-1.3-0.2-1.8 0.6 0.1 1.1-0.2 1.4-0.7 0.5-1.1 1.1-2.1 2-2.9z"></path><path fill="#81a39d" d="m24.6 20.8c0.3 0 0.4 0.1 0.5 0.3-0.1 0.5-0.3 0.8-0.7 0.8-0.1-0.4 0-0.8 0.2-1.1z"></path><path fill="#b7f7f6" d="m25.8 21c1.1 0 2.2 0.1 3.3 0.4-0.7 0.5-1.5 0.8-2.4 0.8l-1.4-0.3c0-0.4 0.1-0.7 0.5-0.9z"></path><path fill="#88a192" d="m28 22.4c-0.4-0.1-0.8 0-1.1 0.2-0.2 0.1-0.4 0-0.5-0.2 0.2 0 0.3-0.1 0.3-0.2 0.9 0 1.7-0.3 2.4-0.8-1.1-0.3-2.2-0.4-3.3-0.4v-0.4c1.4 0.1 2.8 0.2 4.1 0.2 0.4 0 0.8-0.1 1-0.4 0.4 0.1 0.7 0.3 0.9 0.5-1.4 0.2-2.7 0.6-3.8 1.5z"></path><path fill="#dca117" d="m21.3 20.1c0.3 0.5 0.6 0.6 1.1 0.3v1.1c0.1 0.6 0 1.1-0.2 1.6 0-0.8 0-1.5-0.2-2.3-0.4 0.5-1 0.8-1.6 0.9v0.9c-0.2-0.2-0.4-0.4-0.5-0.7 0.3-0.3 0.5-0.7 0.7-1.1 0.4 0.2 0.6-0.1 0.7-0.7z"></path><path fill="#f5ea33" d="m22.2 23.1l-0.5 2.4c-0.2 0.5-0.5 0.6-0.9 0.5 0.2 0.2 0.3 0.4 0.5 0.7-0.6 0-1.1-0.1-1.5-0.5-0.2 0.1-0.3 0.3-0.3 0.5-0.3 0-0.5-0.2-0.5-0.5 0.3-0.1 0.3-0.3 0-0.4-0.4-0.2-0.8-0.3-1.1-0.5 0-0.7 0.2-0.8 0.6-0.2 0-0.3 0.1-0.6 0.3-0.9 0.5 0.3 1.1 0.3 1.6 0.2v-0.9l-0.7-0.5c0.3-0.1 0.5-0.2 0.7-0.4v-0.9c0.6-0.1 1.2-0.4 1.7-0.9 0.1 0.8 0.1 1.5 0.1 2.3z"></path><path fill="#07c568" d="m6.9 21.3c0.2 0 0.3 0.2 0.4 0.4-0.4 0.6-0.3 1 0.2 1.4-0.8 0.6-1.5 0.4-2.1-0.5-0.2 0.3-0.4 0.3-0.6 0 0-0.3-0.2-0.5-0.4-0.7-0.2-0.4-0.2-0.8 0-1.1 0.2-0.1 0.3-0.2 0.5-0.2 0.7 0.3 1.3 0.5 2 0.7z"></path><path fill="#f0d628" d="m16.1 21.5c0.8 0.3 0.8 0.5 0 0.7v-0.7z"></path><path fill="#2b93b5" d="m7.3 21.7c0.4 0 0.7 0.2 0.9 0.5-0.1 0.4-0.3 0.7-0.7 0.9-0.5-0.4-0.6-0.8-0.2-1.4z"></path><path fill="#077e46" d="m8.2 22.2c0.4 0.2 0.9 0.4 1.4 0.4 0.1 0.5 0.2 1.1 0.4 1.6-0.3 0.3-0.3 0.5 0.1 0.7l0.2-0.3c0.1 1.2 0.5 1.4 1.1 0.5 0.1-0.4 0.2-0.8 0.2-1.1 0.1 1.1 0.4 2.2 0.7 3.3-0.4 0.4-0.8 0.8-1.2 1.3 0.3 0.1 0.5 0.1 0.7 0.1-0.3 0.6-0.9 1.1-1.6 1.3-0.4 0.1-0.7 0-1.1-0.2 0-0.6 0.1-1.1 0.2-1.7-0.2-0.1-0.4-0.1-0.6-0.1 0.4-0.3 0.6-0.8 0.6-1.3h0.9c-0.1-1.1-0.6-1.4-1.5-1.2-0.3 0-0.5-0.2-0.7-0.4-0.5 0.6-1 0.6-1.5 0-0.1 0.1-0.1 0.3-0.1 0.4-0.3-0.2-0.5-0.2-0.8 0-0.1-0.7-0.3-0.8-0.6-0.2l-0.3-0.4c-0.1 0-0.1 0.1-0.1 0.2-0.4-0.5-0.7-1-0.9-1.6 0.4 0 0.6 0.2 0.8 0.5 0.3-0.4 0.4-0.9 0.3-1.4 0.2 0.3 0.4 0.3 0.6 0 0.6 0.9 1.3 1.1 2.1 0.5 0.4-0.2 0.6-0.5 0.7-0.9z"></path><path fill="#f9ec35" d="m13.8 20.8c0.3 0.3 0.6 0.6 0.7 1l0.5 0.1c0.7-0.6 0.9-0.4 0.6 0.5-0.2-0.3-0.4-0.3-0.4 0.1 0.1 0.3 0.2 0.5 0.2 0.8-0.4-0.2-0.7-0.5-0.8-0.9-0.1 0.5-0.4 0.7-1 0.7-0.2-0.3-0.3-0.6-0.2-0.9 0-0.6 0-1.2 0.1-1.8 0.1 0.2 0.2 0.3 0.3 0.4z"></path><path fill="#68624b" d="m26.9 22.6c0.3-0.2 0.7-0.3 1.1-0.2 0.6 0.3 1.1 0.2 1.6-0.2 0.3 0 0.3 0.2 0 0.3 0.5 0.1 1.1 0.2 1.6 0.3 0.3 0.2 0.3 0.3 0 0.5-1.4-0.4-2.9-0.6-4.3-0.7z"></path><path fill="#01c15f" d="m10.9 21.3c0.2 0 0.2 0 0.2 0.2 0.3 0.8 0.5 1.6 0.5 2.5 0 0.3-0.1 0.7-0.2 1.1-0.6 0.9-1 0.7-1.1-0.5l-0.2 0.3c-0.4-0.2-0.4-0.4-0.1-0.7-0.2-0.5-0.3-1.1-0.4-1.6l0.2-0.9c0.2-0.1 0.4-0.2 0.5-0.4 0.3 0.6 0.5 0.6 0.6 0z"></path><path fill="#edb16b" d="m15.6 22.4c0.3 0.3 0.5 0.3 0.8 0 0.2 0.4 0.1 0.7-0.1 1 0.4 0.1 0.5 0.3 0.2 0.6-0.3-0.3-0.5-0.6-0.7-0.9-0.1 0.1-0.2 0.2-0.4 0.2 0-0.3-0.1-0.5-0.2-0.8 0-0.4 0.2-0.4 0.4-0.1z"></path><path fill="#c6680f" d="m15.4 23.3c0.2 0 0.3-0.1 0.4-0.2 0.2 0.3 0.4 0.6 0.7 0.9l0.5 0.4c-0.2 0-0.4 0.1-0.5 0.2-0.1 0.6-0.2 1.1-0.4 1.6-0.3-0.2-0.5-0.4-0.7-0.7-0.3 0.2-0.5 0.4-0.4 0.7-0.1 0.2-0.3 0.3-0.5 0.1-0.2-0.3-0.4-0.7-0.7-1-0.1-0.7-0.2-1.5-0.2-2.2 0.6 0 0.9-0.2 1-0.7 0.1 0.4 0.4 0.7 0.8 0.9z"></path><path fill="#492605" d="m17 24.4c0.1 0.2 0.4 0.3 0.7 0.2-0.1 0.3 0 0.6 0.2 0.7 0.3 0.2 0.7 0.3 1.1 0.5 0.3 0.1 0.3 0.3 0 0.4-0.2 0.6-0.3 1.3-0.1 2 0.4-0.4 0.6-0.9 0.6-1.5 0-0.2 0.1-0.4 0.3-0.5 0.4 0.4 0.9 0.5 1.5 0.5-0.1 0.6-0.2 1.2-0.5 1.8-0.2-1.2-0.6-1.2-1 0-0.5 1.1-0.7 2.2-0.3 3.3-0.3 0.7-0.9 1-1.6 0.9-0.7 0.1-1.2-0.1-1.6-0.6 0.3-1.3 0.3-2.5 0.1-3.9-0.3-0.6-0.8-0.8-1.4-0.5-0.2 0.1-0.3 0.3-0.3 0.5-0.2-0.2-0.3-0.5-0.4-0.9 0.5 0.1 0.9-0.1 1.1-0.5 0-0.3-0.2-0.5-0.4-0.6-0.1-0.3 0.1-0.5 0.4-0.7 0.2 0.3 0.4 0.5 0.7 0.7 0.2-0.5 0.3-1 0.4-1.6 0.1-0.1 0.3-0.2 0.5-0.2z"></path><path fill="#747a67" d="m24.2 24.2c1.2 0.3 2.4 0.3 3.6 0l0.4 0.2c-0.3 0.2-0.7 0.3-1.1 0.4l1.8 0.4c-0.3 0.2-0.3 0.3 0 0.4 0.4 0.3 0.9 0.4 1.4 0.4-0.1 0.3-0.3 0.5-0.5 0.7-0.8-0.8-1.8-1.4-2.9-1.7-0.9-0.3-1.8-0.4-2.7-0.4v-0.4z"></path><path fill="#3192e0" d="m6.4 25.5c0.4 0.4 0.7 0.9 0.9 1.4-0.3 0.1-0.3 0.3 0 0.6-0.5 0.5-0.3 0.7 0.6 0.7 0.3 0 0.5-0.1 0.8-0.2 0.2 0 0.4 0 0.6 0.1-0.1 0.6-0.2 1.1-0.2 1.7 0.4 0.2 0.7 0.3 1.1 0.2-0.1 0.4-0.3 0.5-0.6 0.5-2.2-1.3-3.9-3.1-5-5.4 0-0.1 0-0.2 0.1-0.2l0.3 0.4c0.3-0.5 0.5-0.5 0.6 0.2 0.3-0.2 0.5-0.2 0.8 0z"></path><path fill="#069416" d="m8.7 28c-0.3 0.1-0.5 0.2-0.8 0.2-0.9 0-1.1-0.2-0.6-0.8-0.3-0.2-0.3-0.4 0-0.5 0.4-0.4 0.8-0.5 1.4-0.5v-0.9c0.9-0.2 1.4 0.1 1.5 1.2h-0.9c0 0.5-0.2 1-0.6 1.3z"></path><path fill="#31e191" d="m8.7 25.5v0.9c-0.6 0-1 0.1-1.4 0.5-0.2-0.5-0.5-1-0.9-1.4 0-0.1 0-0.3 0.1-0.4 0.5 0.6 1 0.6 1.5 0 0.2 0.2 0.4 0.4 0.7 0.4z"></path><path fill="#a79725" d="m21.7 25.5c0 0.5-0.1 0.9-0.4 1.2-0.2-0.3-0.3-0.5-0.5-0.7 0.4 0.1 0.7 0 0.9-0.5z"></path><path fill="#ebb177" d="m13.8 25.3c0.3 0.3 0.5 0.7 0.7 1 0.2 0.2 0.4 0.1 0.5-0.1 0.2 0.1 0.4 0.3 0.4 0.6-0.2 0.4-0.6 0.6-1.1 0.5l-0.5-2z"></path><path fill="#f0b978" d="m19 26.2c0 0.3 0.2 0.5 0.5 0.5 0 0.6-0.2 1.1-0.6 1.5-0.2-0.7-0.1-1.4 0.1-2z"></path><path fill="#66624d" d="m24 25.5c-0.1 0.6 0 1.1 0.4 1.5 0.9 0 1.7 0.2 2.5 0.4l-1.8 0.3c0.4 0.2 0.6 0.5 0.4 0.9 0.4 0.2 0.5 0.4 0.4 0.8l-1.8-2.3c-0.1 0.8 0 1.6 0.4 2.3-0.6-0.5-0.9-1.2-0.9-2.1-0.1 0.2-0.2 0.2-0.3 0.3 0.3-0.7 0.5-1.4 0.7-2.1z"></path><path fill="#e9b077" d="m16.3 32.1c-0.7-1.2-1.2-2.5-1.6-3.9 0-0.2 0.1-0.4 0.3-0.5 0.6-0.3 1.1-0.1 1.4 0.5 0.2 1.4 0.2 2.6-0.1 3.9z"></path><path fill="#2889b2" d="m12.3 27.3v0.7c0 0.4-0.1 0.6-0.5 0.7-0.2 0-0.4 0-0.7-0.1 0.4-0.5 0.8-0.9 1.2-1.3z"></path><path fill="#eeb67c" d="m20.8 28.5c-0.3 1.1-0.8 2.2-1.3 3.3-0.4-1.1-0.2-2.2 0.3-3.3 0.4-1.2 0.8-1.2 1 0z"></path><path fill="#065d10" d="m12.3 28c0.4 0.6 0.6 1.3 0.6 2-0.3 0.3-0.7 0.3-1.1 0.3 0 0.4-0.1 0.8-0.4 1.1-0.7-0.2-1.3-0.5-1.8-0.9 0.3 0 0.5-0.1 0.6-0.5 0.7-0.2 1.3-0.7 1.6-1.3 0.4-0.1 0.5-0.3 0.5-0.7z"></path><path fill="#b0efee" d="m24.2 24.6c0.9 0 1.8 0.1 2.7 0.4 1.1 0.3 2.1 0.9 2.9 1.7-2.1 2.7-4.8 4.6-8.1 5.6l-0.2-0.2c0.7-1.5 1.3-3 1.8-4.5 0.1-0.1 0.2-0.1 0.3-0.3 0 0.9 0.3 1.6 0.9 2.1-0.4-0.7-0.5-1.5-0.4-2.3l1.8 2.3c0.1-0.4 0-0.6-0.4-0.8 0.2-0.4 0-0.7-0.4-0.9l1.8-0.3c-0.8-0.2-1.6-0.4-2.5-0.4-0.4-0.4-0.5-0.9-0.4-1.5-0.1-0.3 0-0.6 0.2-0.9z"></path><path fill="#3291e9" d="m12.9 30c1.6 2.5 1.1 2.9-1.5 1.4 0.3-0.3 0.4-0.7 0.4-1.1 0.4 0 0.8 0 1.1-0.3z"></path></svg>