<svg xmlns="http://www.w3.org/2000/svg" version="1.1" width="320px" height="320px" style="shape-rendering:geometricPrecision; text-rendering:geometricPrecision; image-rendering:optimizeQuality; fill-rule:evenodd; clip-rule:evenodd" xmlns:xlink="http://www.w3.org/1999/xlink">
<g><path style="opacity:1" fill="#fefefe" d="M -0.5,-0.5 C 106.167,-0.5 212.833,-0.5 319.5,-0.5C 319.5,106.167 319.5,212.833 319.5,319.5C 212.833,319.5 106.167,319.5 -0.5,319.5C -0.5,212.833 -0.5,106.167 -0.5,-0.5 Z"/></g>
<g><path style="opacity:1" fill="#c1b689" d="M 284.5,122.5 C 285.167,122.5 285.5,122.833 285.5,123.5C 280.833,123.5 276.167,123.5 271.5,123.5C 265.167,123.5 258.833,123.5 252.5,123.5C 252.5,125.833 252.5,128.167 252.5,130.5C 253.5,130.5 254.5,130.5 255.5,130.5C 261.026,130.179 266.36,130.512 271.5,131.5C 264.833,131.5 258.167,131.5 251.5,131.5C 251.5,128.5 251.5,125.5 251.5,122.5C 262.5,122.5 273.5,122.5 284.5,122.5 Z"/></g>
<g><path style="opacity:1" fill="#b4a572" d="M 177.5,123.5 C 188.167,122.167 198.833,122.167 209.5,123.5C 209.5,126.167 209.5,128.833 209.5,131.5C 202.167,131.5 194.833,131.5 187.5,131.5C 193.979,130.509 200.646,130.176 207.5,130.5C 207.5,128.5 207.5,126.5 207.5,124.5C 202.167,124.5 196.833,124.5 191.5,124.5C 187.03,123.514 182.363,123.181 177.5,123.5 Z"/></g>
<g><path style="opacity:1" fill="#796a2e" d="M 271.5,123.5 C 271.5,123.833 271.5,124.167 271.5,124.5C 266.167,124.5 260.833,124.5 255.5,124.5C 255.5,126.5 255.5,128.5 255.5,130.5C 254.5,130.5 253.5,130.5 252.5,130.5C 252.5,128.167 252.5,125.833 252.5,123.5C 258.833,123.5 265.167,123.5 271.5,123.5 Z"/></g>
<g><path style="opacity:1" fill="#a3a3a3" d="M 34.5,124.5 C 27.358,123.262 20.358,123.262 13.5,124.5C 13.5,138.167 13.5,151.833 13.5,165.5C 12.5041,151.343 12.1707,137.01 12.5,122.5C 19.175,122.334 25.8417,122.5 32.5,123C 33.4158,123.278 34.0825,123.778 34.5,124.5 Z"/></g>
<g><path style="opacity:1" fill="#797979" d="M 13.5,124.5 C 20.358,123.262 27.358,123.262 34.5,124.5C 40.6446,126.81 44.4779,131.143 46,137.5C 47.719,146.962 45.5524,155.295 39.5,162.5C 36.2964,163.901 32.9631,164.901 29.5,165.5C 24.8333,164.833 20.1667,164.167 15.5,163.5C 14.8333,150.5 14.1667,137.5 13.5,124.5 Z"/></g>
<g><path style="opacity:1" fill="#fdfdfd" d="M 35.5,127.5 C 39.2385,129.001 41.5718,131.667 42.5,135.5C 43.2295,140.13 43.5628,144.797 43.5,149.5C 42.3396,155.991 38.6729,160.324 32.5,162.5C 27.1667,162.5 21.8333,162.5 16.5,162.5C 16.5,150.5 16.5,138.5 16.5,126.5C 22.8778,126.295 29.2111,126.628 35.5,127.5 Z"/></g>
<g><path style="opacity:1" fill="#d3b453" d="M 161.5,125.5 C 163.558,126.933 165.892,127.6 168.5,127.5C 168.878,129.921 169.545,132.254 170.5,134.5C 169.883,134.389 169.383,134.056 169,133.5C 168.71,135.952 168.044,138.285 167,140.5C 166.196,136.355 164.363,132.688 161.5,129.5C 156.565,128.552 151.565,128.219 146.5,128.5C 146.247,134.873 146.581,141.206 147.5,147.5C 145.394,150.269 143.727,153.269 142.5,156.5C 141.914,156.291 141.414,155.957 141,155.5C 140.5,146.173 140.334,136.839 140.5,127.5C 147.335,125.742 154.335,125.075 161.5,125.5 Z"/></g>
<g><path style="opacity:1" fill="#575757" d="M 13.5,124.5 C 14.1667,137.5 14.8333,150.5 15.5,163.5C 20.1667,164.167 24.8333,164.833 29.5,165.5C 24.1667,165.5 18.8333,165.5 13.5,165.5C 13.5,151.833 13.5,138.167 13.5,124.5 Z"/></g>
<g><path style="opacity:1" fill="#e0e0e0" d="M 35.5,127.5 C 29.2111,126.628 22.8778,126.295 16.5,126.5C 16.5,138.5 16.5,150.5 16.5,162.5C 21.8333,162.5 27.1667,162.5 32.5,162.5C 27.0247,163.489 21.358,163.822 15.5,163.5C 15.5,150.833 15.5,138.167 15.5,125.5C 21.5092,125.334 27.5092,125.501 33.5,126C 34.4158,126.278 35.0825,126.778 35.5,127.5 Z"/></g>
<g><path style="opacity:1" fill="#c1a64f" d="M 191.5,124.5 C 196.833,124.5 202.167,124.5 207.5,124.5C 207.5,126.5 207.5,128.5 207.5,130.5C 200.646,130.176 193.979,130.509 187.5,131.5C 186.225,134.396 186.225,137.396 187.5,140.5C 187.5,140.833 187.5,141.167 187.5,141.5C 185.309,140.155 183.975,138.155 183.5,135.5C 182.667,136.5 181.833,137.5 181,138.5C 180.099,146.579 180.432,154.579 182,162.5C 184.081,163.333 186.248,163.333 188.5,162.5C 188.5,161.5 188.5,160.5 188.5,159.5C 189.5,159.5 190.5,159.5 191.5,159.5C 192.183,161.176 193.517,161.843 195.5,161.5C 195.5,162.5 195.5,163.5 195.5,164.5C 193.265,164.205 191.265,164.539 189.5,165.5C 186.167,165.5 182.833,165.5 179.5,165.5C 178.188,152.896 178.188,140.229 179.5,127.5C 183.04,124.885 187.04,123.885 191.5,124.5 Z"/></g>
<g><path style="opacity:1" fill="#b0933b" d="M 271.5,124.5 C 272.492,124.328 273.158,124.662 273.5,125.5C 272.503,125.47 271.836,125.97 271.5,127C 272.5,128.667 273.5,130.333 274.5,132C 274.022,133.642 273.022,134.809 271.5,135.5C 271.5,134.833 271.5,134.167 271.5,133.5C 271.5,132.833 271.5,132.167 271.5,131.5C 266.36,130.512 261.026,130.179 255.5,130.5C 255.5,128.5 255.5,126.5 255.5,124.5C 260.833,124.5 266.167,124.5 271.5,124.5 Z"/></g>
<g><path style="opacity:1" fill="#d0d0d0" d="M 80.5,123.5 C 81.404,124.209 81.7373,125.209 81.5,126.5C 72.8333,126.5 64.1667,126.5 55.5,126.5C 55.5,131.5 55.5,136.5 55.5,141.5C 63.6841,141.174 71.6841,141.508 79.5,142.5C 71.1667,142.5 62.8333,142.5 54.5,142.5C 54.5,136.833 54.5,131.167 54.5,125.5C 63.5645,126.136 72.2312,125.47 80.5,123.5 Z"/></g>
<g><path style="opacity:1" fill="#eee4bc" d="M 187.5,131.5 C 194.833,131.5 202.167,131.5 209.5,131.5C 202.352,132.492 195.019,132.825 187.5,132.5C 187.5,134.5 187.5,136.5 187.5,138.5C 194.584,137.874 201.25,138.541 207.5,140.5C 200.833,140.5 194.167,140.5 187.5,140.5C 186.225,137.396 186.225,134.396 187.5,131.5 Z"/></g>
<g><path style="opacity:1" fill="#c6c6c6" d="M 97.5,123.5 C 96.8509,137.873 97.5176,151.873 99.5,165.5C 99.1788,167.048 98.1788,167.715 96.5,167.5C 96.1707,152.657 96.504,137.99 97.5,123.5 Z"/></g>
<g><path style="opacity:1" fill="#ccc095" d="M 138.5,122.5 C 146.684,122.174 154.684,122.508 162.5,123.5C 154.5,123.5 146.5,123.5 138.5,123.5C 138.5,137.5 138.5,151.5 138.5,165.5C 137.504,151.677 137.171,137.677 137.5,123.5C 137.5,122.833 137.833,122.5 138.5,122.5 Z"/></g>
<g><path style="opacity:1" fill="#948241" d="M 162.5,123.5 C 164.81,124.325 166.81,125.658 168.5,127.5C 165.892,127.6 163.558,126.933 161.5,125.5C 154.629,124.187 147.629,124.187 140.5,125.5C 139.334,136.819 139.168,148.152 140,159.5C 141.101,161.394 142.434,162.061 144,161.5C 145.127,158.623 145.794,155.623 146,152.5C 146.383,151.944 146.883,151.611 147.5,151.5C 147.5,156.167 147.5,160.833 147.5,165.5C 144.5,165.5 141.5,165.5 138.5,165.5C 138.5,151.5 138.5,137.5 138.5,123.5C 146.5,123.5 154.5,123.5 162.5,123.5 Z"/></g>
<g><path style="opacity:1" fill="#b8a461" d="M 271.5,124.5 C 271.5,124.167 271.5,123.833 271.5,123.5C 276.167,123.5 280.833,123.5 285.5,123.5C 285.833,123.5 286.167,123.5 286.5,123.5C 286.664,126.187 286.497,128.854 286,131.5C 281.301,137.029 276.468,142.362 271.5,147.5C 273.278,143.518 275.778,139.851 279,136.5C 285.269,128.62 283.435,124.954 273.5,125.5C 273.158,124.662 272.492,124.328 271.5,124.5 Z"/></g>
<g><path style="opacity:1" fill="#9e9e9e" d="M 42.5,135.5 C 43.973,138.017 44.6397,140.85 44.5,144C 44.4944,146.033 44.1611,147.866 43.5,149.5C 43.5628,144.797 43.2295,140.13 42.5,135.5 Z"/></g>
<g><path style="opacity:1" fill="#7b7b7b" d="M 86.5,123.5 C 87.5,123.5 88.5,123.5 89.5,123.5C 89.5,137.5 89.5,151.5 89.5,165.5C 88.5,165.5 87.5,165.5 86.5,165.5C 86.5,151.5 86.5,137.5 86.5,123.5 Z"/></g>
<g><path style="opacity:1" fill="#969794" d="M 129.5,123.5 C 130.496,137.657 130.829,151.99 130.5,166.5C 128.901,166.768 127.568,166.434 126.5,165.5C 127.5,165.5 128.5,165.5 129.5,165.5C 129.5,151.5 129.5,137.5 129.5,123.5 Z"/></g>
<g><path style="opacity:1" fill="#82763e" d="M 168.5,127.5 C 170.825,128.655 171.992,130.655 172,133.5C 173.946,142.096 170.78,147.762 162.5,150.5C 158.167,150.5 153.833,150.5 149.5,150.5C 155.243,150.01 160.91,148.677 166.5,146.5C 169.925,143.238 171.258,139.238 170.5,134.5C 169.545,132.254 168.878,129.921 168.5,127.5 Z"/></g>
<g><path style="opacity:1" fill="#a79559" d="M 271.5,133.5 C 271.5,134.167 271.5,134.833 271.5,135.5C 266.167,142.167 260.833,148.833 255.5,155.5C 252.611,157.775 251.944,160.608 253.5,164C 260.492,164.5 267.492,164.666 274.5,164.5C 278.833,164.5 283.167,164.5 287.5,164.5C 288.568,165.434 289.901,165.768 291.5,165.5C 278.01,166.496 264.344,166.829 250.5,166.5C 250.335,163.482 250.502,160.482 251,157.5C 257.698,149.308 264.531,141.308 271.5,133.5 Z"/></g>
<g><path style="opacity:1" fill="#b29a48" d="M 161.5,125.5 C 154.335,125.075 147.335,125.742 140.5,127.5C 140.334,136.839 140.5,146.173 141,155.5C 141.414,155.957 141.914,156.291 142.5,156.5C 143.727,153.269 145.394,150.269 147.5,147.5C 146.581,141.206 146.247,134.873 146.5,128.5C 151.565,128.219 156.565,128.552 161.5,129.5C 164.363,132.688 166.196,136.355 167,140.5C 168.044,138.285 168.71,135.952 169,133.5C 169.383,134.056 169.883,134.389 170.5,134.5C 171.258,139.238 169.925,143.238 166.5,146.5C 160.91,148.677 155.243,150.01 149.5,150.5C 148.508,150.328 147.842,150.662 147.5,151.5C 146.883,151.611 146.383,151.944 146,152.5C 145.794,155.623 145.127,158.623 144,161.5C 142.434,162.061 141.101,161.394 140,159.5C 139.168,148.152 139.334,136.819 140.5,125.5C 147.629,124.187 154.629,124.187 161.5,125.5 Z"/></g>
<g><path style="opacity:1" fill="#d9cc9e" d="M 159.5,131.5 C 155.833,131.5 152.167,131.5 148.5,131.5C 148.5,135.167 148.5,138.833 148.5,142.5C 152.167,142.5 155.833,142.5 159.5,142.5C 155.702,143.483 151.702,143.817 147.5,143.5C 147.5,139.167 147.5,134.833 147.5,130.5C 151.702,130.183 155.702,130.517 159.5,131.5 Z"/></g>
<g><path style="opacity:1" fill="#fafaeb" d="M 159.5,131.5 C 160.209,132.404 161.209,132.737 162.5,132.5C 162.664,135.187 162.497,137.854 162,140.5C 161.005,141.066 160.172,141.733 159.5,142.5C 155.833,142.5 152.167,142.5 148.5,142.5C 148.5,138.833 148.5,135.167 148.5,131.5C 152.167,131.5 155.833,131.5 159.5,131.5 Z"/></g>
<g><path style="opacity:1" fill="#b39f5b" d="M 187.5,141.5 C 187.5,141.167 187.5,140.833 187.5,140.5C 194.167,140.5 200.833,140.5 207.5,140.5C 207.5,142.833 207.5,145.167 207.5,147.5C 200.5,147.5 193.5,147.5 186.5,147.5C 186.187,151.042 186.521,154.375 187.5,157.5C 195.019,157.175 202.352,157.508 209.5,158.5C 201.981,158.175 194.648,158.508 187.5,159.5C 186.504,159.586 185.671,159.252 185,158.5C 184.24,154.775 184.407,151.108 185.5,147.5C 186.025,146.808 186.692,146.308 187.5,146C 205.815,145.797 205.815,144.297 187.5,141.5 Z"/></g>
<g><path style="opacity:1" fill="#ddb95c" d="M 273.5,125.5 C 283.435,124.954 285.269,128.62 279,136.5C 275.778,139.851 273.278,143.518 271.5,147.5C 268.111,149.05 265.444,151.55 263.5,155C 262.026,156.316 260.359,157.316 258.5,158C 260.167,159 261.5,160.333 262.5,162C 259.854,162.497 257.187,162.664 254.5,162.5C 254.993,160.194 255.326,157.861 255.5,155.5C 260.833,148.833 266.167,142.167 271.5,135.5C 273.022,134.809 274.022,133.642 274.5,132C 273.5,130.333 272.5,128.667 271.5,127C 271.836,125.97 272.503,125.47 273.5,125.5 Z"/></g>
<g><path style="opacity:1" fill="#e0d3ab" d="M 207.5,147.5 C 201.021,148.491 194.354,148.824 187.5,148.5C 187.5,151.5 187.5,154.5 187.5,157.5C 186.521,154.375 186.187,151.042 186.5,147.5C 193.5,147.5 200.5,147.5 207.5,147.5 Z"/></g>
<g><path style="opacity:1" fill="#b1b1b1" d="M 80.5,123.5 C 71.1667,123.5 61.8333,123.5 52.5,123.5C 52.5,137.5 52.5,151.5 52.5,165.5C 51.5041,151.343 51.1707,137.01 51.5,122.5C 61.3478,122.173 71.0144,122.506 80.5,123.5 Z"/></g>
<g><path style="opacity:1" fill="#616161" d="M 80.5,123.5 C 72.2312,125.47 63.5645,126.136 54.5,125.5C 54.5,131.167 54.5,136.833 54.5,142.5C 62.8333,142.5 71.1667,142.5 79.5,142.5C 71.5671,144.468 63.2337,145.135 54.5,144.5C 54.5,151.167 54.5,157.833 54.5,164.5C 63.3494,164.174 72.0161,164.507 80.5,165.5C 71.1667,165.5 61.8333,165.5 52.5,165.5C 52.5,151.5 52.5,137.5 52.5,123.5C 61.8333,123.5 71.1667,123.5 80.5,123.5 Z"/></g>
<g><path style="opacity:1" fill="#8a7b3f" d="M 177.5,123.5 C 182.363,123.181 187.03,123.514 191.5,124.5C 187.04,123.885 183.04,124.885 179.5,127.5C 178.188,140.229 178.188,152.896 179.5,165.5C 178.833,165.5 178.167,165.5 177.5,165.5C 177.5,151.5 177.5,137.5 177.5,123.5 Z"/></g>
<g><path style="opacity:1" fill="#f9f9f8" d="M 177.5,165.5 C 177.5,166.167 177.833,166.5 178.5,166.5C 178.918,167.222 179.584,167.722 180.5,168C 185.333,168.167 190.167,168.333 195,168.5C 200.216,168.494 205.049,167.827 209.5,166.5C 209.833,166.5 210.167,166.5 210.5,166.5C 211.496,166.586 212.329,166.252 213,165.5C 213.708,166.381 214.542,167.047 215.5,167.5C 215.611,168.117 215.944,168.617 216.5,169C 227.546,169.788 238.546,169.622 249.5,168.5C 248.847,169.807 248.18,171.14 247.5,172.5C 250.387,174.679 253.554,175.012 257,173.5C 262.814,174.736 268.647,176.07 274.5,177.5C 275.944,176.019 276.611,176.352 276.5,178.5C 277.222,178.082 277.722,177.416 278,176.5C 279.319,178.487 281.152,179.654 283.5,180C 281.494,180.083 280.494,180.583 280.5,181.5C 277.021,184.552 276.687,187.886 279.5,191.5C 275.902,193.092 272.569,192.758 269.5,190.5C 269.631,189.761 269.464,189.094 269,188.5C 267.604,190.527 265.938,190.86 264,189.5C 263.257,187.559 263.424,185.726 264.5,184C 266.888,183.135 268.388,183.968 269,186.5C 268.851,181.413 266.685,180.413 262.5,183.5C 261.526,185.743 261.192,188.076 261.5,190.5C 260.947,192.552 259.947,192.885 258.5,191.5C 259.239,191.631 259.906,191.464 260.5,191C 259.167,188.333 259.167,185.667 260.5,183C 259.929,181.795 259.262,180.628 258.5,179.5C 255.368,180.978 252.035,181.978 248.5,182.5C 249.833,183.167 251.167,183.833 252.5,184.5C 251.577,186.924 250.077,188.924 248,190.5C 247.827,186.459 247.327,182.459 246.5,178.5C 245.52,181.086 245.187,183.753 245.5,186.5C 245.167,186.5 244.833,186.5 244.5,186.5C 244.262,184.596 243.262,183.262 241.5,182.5C 239.632,181.243 237.965,181.576 236.5,183.5C 235.824,182.398 235.158,181.398 234.5,180.5C 234.389,179.883 234.056,179.383 233.5,179C 230.854,178.503 228.187,178.336 225.5,178.5C 225.334,182.846 225.501,187.179 226,191.5C 226.198,189.618 226.698,187.952 227.5,186.5C 227.5,188.5 227.5,190.5 227.5,192.5C 226.5,192.5 225.5,192.5 224.5,192.5C 224.657,191.127 224.49,189.793 224,188.5C 222.984,189.634 222.317,189.301 222,187.5C 221.691,188.766 221.191,189.933 220.5,191C 219.563,191.692 218.897,191.525 218.5,190.5C 218.2,188.456 217.867,186.456 217.5,184.5C 215.09,180.568 212.59,180.568 210,184.5C 209.51,185.793 209.343,187.127 209.5,188.5C 209.167,188.5 208.833,188.5 208.5,188.5C 208.5,186.5 208.5,184.5 208.5,182.5C 207.041,182.567 205.708,182.234 204.5,181.5C 205.509,180.061 205.176,178.728 203.5,177.5C 203.089,178.262 202.923,179.262 203,180.5C 202.311,179.643 201.478,178.977 200.5,178.5C 200.704,179.529 200.204,180.529 199,181.5C 198.667,179.5 198.333,177.5 198,175.5C 197.259,176.641 196.425,176.641 195.5,175.5C 194.713,176.242 194.047,177.075 193.5,178C 190.768,178.413 188.101,179.08 185.5,180C 183.759,181.083 183.093,182.25 183.5,183.5C 177.954,180.01 175.287,181.677 175.5,188.5C 174.833,188.5 174.167,188.5 173.5,188.5C 174.323,186.545 174.49,184.545 174,182.5C 173,184.5 172,186.5 171,188.5C 170.632,181.712 168.799,181.045 165.5,186.5C 162.73,181.185 162.063,181.518 163.5,187.5C 162.549,188.919 162.216,190.585 162.5,192.5C 161.209,192.737 160.209,192.404 159.5,191.5C 160.748,190.666 161.415,189.333 161.5,187.5C 161.79,182.776 159.79,181.109 155.5,182.5C 154.749,181.624 154.249,180.624 154,179.5C 153.333,183.5 153.333,187.5 154,191.5C 154.186,188.964 154.686,186.631 155.5,184.5C 155.5,187.167 155.5,189.833 155.5,192.5C 153.801,192.473 152.467,191.806 151.5,190.5C 151.631,189.761 151.464,189.094 151,188.5C 149,191.167 147,191.167 145,188.5C 144.805,186.793 144.805,185.126 145,183.5C 143.731,184.905 143.231,186.571 143.5,188.5C 143.167,188.5 142.833,188.5 142.5,188.5C 142.562,184.269 140.562,181.935 136.5,181.5C 135.653,180.034 134.32,179.2 132.5,179C 136.589,178.474 140.256,177.807 143.5,177C 143.854,175.374 143.854,173.541 143.5,171.5C 140.348,172.041 137.848,171.041 136,168.5C 135.163,165.635 134.33,162.802 133.5,160C 134.094,159.536 134.761,159.369 135.5,159.5C 134.896,167.866 138.563,171.033 146.5,169C 147.252,168.329 147.586,167.496 147.5,166.5C 148.167,166.5 148.5,166.167 148.5,165.5C 151.081,162.416 152.081,158.75 151.5,154.5C 154.728,154.299 157.895,154.633 161,155.5C 162.714,154.924 163.881,153.757 164.5,152C 167.095,151.774 169.595,151.274 172,150.5C 173,151.5 174,152.5 175,153.5C 175.333,156.833 175.667,160.167 176,163.5C 176.278,164.416 176.778,165.082 177.5,165.5 Z"/></g>
<g><path style="opacity:1" fill="#d0c79c" d="M 149.5,150.5 C 153.833,150.5 158.167,150.5 162.5,150.5C 158.03,151.486 153.363,151.819 148.5,151.5C 148.5,156.167 148.5,160.833 148.5,165.5C 148.5,166.167 148.167,166.5 147.5,166.5C 144.287,166.81 141.287,166.477 138.5,165.5C 141.5,165.5 144.5,165.5 147.5,165.5C 147.5,160.833 147.5,156.167 147.5,151.5C 147.842,150.662 148.508,150.328 149.5,150.5 Z"/></g>
<g><path style="opacity:1" fill="#fbf7db" d="M 286.5,123.5 C 287.641,126.64 287.808,129.973 287,133.5C 281.654,138.512 276.654,143.846 272,149.5C 271.506,151.134 271.34,152.801 271.5,154.5C 280.506,154.334 289.506,154.5 298.5,155C 300.382,155.198 302.048,155.698 303.5,156.5C 299.5,156.5 295.5,156.5 291.5,156.5C 290.833,156.5 290.167,156.5 289.5,156.5C 282.687,155.509 275.687,155.175 268.5,155.5C 268.5,154.5 268.5,153.5 268.5,152.5C 269.248,150.668 270.248,149.001 271.5,147.5C 276.468,142.362 281.301,137.029 286,131.5C 286.497,128.854 286.664,126.187 286.5,123.5 Z"/></g>
<g><path style="opacity:1" fill="#bbbbbb" d="M 79.5,142.5 C 80.404,143.209 80.7373,144.209 80.5,145.5C 72.1667,145.5 63.8333,145.5 55.5,145.5C 55.5,151.5 55.5,157.5 55.5,163.5C 64.1922,163.169 72.8589,163.502 81.5,164.5C 81.3764,165.107 81.0431,165.44 80.5,165.5C 72.0161,164.507 63.3494,164.174 54.5,164.5C 54.5,157.833 54.5,151.167 54.5,144.5C 63.2337,145.135 71.5671,144.468 79.5,142.5 Z"/></g>
<g><path style="opacity:1" fill="#dcba59" d="M 187.5,141.5 C 205.815,144.297 205.815,145.797 187.5,146C 186.692,146.308 186.025,146.808 185.5,147.5C 184.407,151.108 184.24,154.775 185,158.5C 185.671,159.252 186.504,159.586 187.5,159.5C 187.833,159.5 188.167,159.5 188.5,159.5C 188.5,160.5 188.5,161.5 188.5,162.5C 186.248,163.333 184.081,163.333 182,162.5C 180.432,154.579 180.099,146.579 181,138.5C 181.833,137.5 182.667,136.5 183.5,135.5C 183.975,138.155 185.309,140.155 187.5,141.5 Z"/></g>
<g><path style="opacity:1" fill="#e1d8a5" d="M 268.5,152.5 C 268.5,153.5 268.5,154.5 268.5,155.5C 275.687,155.175 282.687,155.509 289.5,156.5C 283.471,156.425 277.471,156.759 271.5,157.5C 269.833,157.5 268.167,157.5 266.5,157.5C 265.624,157.631 264.957,157.298 264.5,156.5C 265.521,154.812 266.855,153.479 268.5,152.5 Z"/></g>
<g><path style="opacity:1" fill="#cac5a0" d="M 291.5,156.5 C 295.5,156.5 299.5,156.5 303.5,156.5C 304.675,156.281 305.675,156.614 306.5,157.5C 306.376,158.107 306.043,158.44 305.5,158.5C 300.742,159.154 296.075,158.487 291.5,156.5 Z"/></g>
<g><path style="opacity:1" fill="#6f6e70" d="M 97.5,123.5 C 98.9778,123.238 100.311,123.571 101.5,124.5C 109.806,136.639 118.306,148.639 127,160.5C 126.849,147.793 127.683,135.459 129.5,123.5C 129.5,137.5 129.5,151.5 129.5,165.5C 128.5,165.5 127.5,165.5 126.5,165.5C 118.647,153.114 110.314,141.114 101.5,129.5C 101.631,128.624 101.298,127.957 100.5,127.5C 99.5009,140.149 99.1676,152.816 99.5,165.5C 97.5176,151.873 96.8509,137.873 97.5,123.5 Z"/></g>
<g><path style="opacity:1" fill="#c6c6c6" d="M 101.5,129.5 C 100.833,141.5 100.167,153.5 99.5,165.5C 99.1676,152.816 99.5009,140.149 100.5,127.5C 101.298,127.957 101.631,128.624 101.5,129.5 Z"/></g>
<g><path style="opacity:1" fill="#a68f3d" d="M 266.5,157.5 C 268.167,157.5 269.833,157.5 271.5,157.5C 278.391,157.201 285.391,157.701 292.5,159C 292.957,159.414 293.291,159.914 293.5,160.5C 291.739,162.368 289.739,163.701 287.5,164.5C 283.167,164.5 278.833,164.5 274.5,164.5C 276.914,163.281 279.247,161.781 281.5,160C 275.5,159.667 269.5,159.333 263.5,159C 264.737,158.768 265.737,158.268 266.5,157.5 Z"/></g>
<g><path style="opacity:1" fill="#968133" d="M 191.5,159.5 C 196.833,159.5 202.167,159.5 207.5,159.5C 207.5,161.167 207.5,162.833 207.5,164.5C 204.615,164.194 201.948,164.527 199.5,165.5C 196.167,165.5 192.833,165.5 189.5,165.5C 191.265,164.539 193.265,164.205 195.5,164.5C 195.5,163.5 195.5,162.5 195.5,161.5C 193.517,161.843 192.183,161.176 191.5,159.5 Z"/></g>
<g><path style="opacity:1" fill="#fbfbf2" d="M 215.5,167.5 C 214.542,167.047 213.708,166.381 213,165.5C 212.329,166.252 211.496,166.586 210.5,166.5C 210.806,163.615 210.473,160.948 209.5,158.5C 202.352,157.508 195.019,157.175 187.5,157.5C 187.5,154.5 187.5,151.5 187.5,148.5C 194.354,148.824 201.021,148.491 207.5,147.5C 207.5,145.167 207.5,142.833 207.5,140.5C 201.25,138.541 194.584,137.874 187.5,138.5C 187.5,136.5 187.5,134.5 187.5,132.5C 195.019,132.825 202.352,132.492 209.5,131.5C 210.85,130.517 211.85,129.184 212.5,127.5C 213.192,128.025 213.692,128.692 214,129.5C 214.205,142.212 214.705,154.878 215.5,167.5 Z"/></g>
<g><path style="opacity:1" fill="#ccb05c" d="M 271.5,147.5 C 270.248,149.001 269.248,150.668 268.5,152.5C 266.855,153.479 265.521,154.812 264.5,156.5C 264.957,157.298 265.624,157.631 266.5,157.5C 265.737,158.268 264.737,158.768 263.5,159C 269.5,159.333 275.5,159.667 281.5,160C 279.247,161.781 276.914,163.281 274.5,164.5C 267.492,164.666 260.492,164.5 253.5,164C 251.944,160.608 252.611,157.775 255.5,155.5C 255.326,157.861 254.993,160.194 254.5,162.5C 257.187,162.664 259.854,162.497 262.5,162C 261.5,160.333 260.167,159 258.5,158C 260.359,157.316 262.026,156.316 263.5,155C 265.444,151.55 268.111,149.05 271.5,147.5 Z"/></g>
<g><path style="opacity:1" fill="#f5f4dc" d="M 177.5,123.5 C 177.5,137.5 177.5,151.5 177.5,165.5C 176.778,165.082 176.278,164.416 176,163.5C 175.667,160.167 175.333,156.833 175,153.5C 174,152.5 173,151.5 172,150.5C 169.595,151.274 167.095,151.774 164.5,152C 163.881,153.757 162.714,154.924 161,155.5C 157.895,154.633 154.728,154.299 151.5,154.5C 152.081,158.75 151.081,162.416 148.5,165.5C 148.5,160.833 148.5,156.167 148.5,151.5C 153.363,151.819 158.03,151.486 162.5,150.5C 170.78,147.762 173.946,142.096 172,133.5C 171.992,130.655 170.825,128.655 168.5,127.5C 166.81,125.658 164.81,124.325 162.5,123.5C 154.684,122.508 146.684,122.174 138.5,122.5C 138.791,121.351 139.624,120.684 141,120.5C 149.143,121.257 157.31,121.757 165.5,122C 166.891,123.02 168.391,123.853 170,124.5C 172.455,126.632 174.121,129.299 175,132.5C 174.93,129.008 175.763,126.008 177.5,123.5 Z"/></g>
<g><path style="opacity:1" fill="#b1a874" d="M 226.5,122.5 C 226.5,133.833 226.5,145.167 226.5,156.5C 225.414,156.38 224.747,155.713 224.5,154.5C 225.445,145.535 225.779,136.535 225.5,127.5C 225.5,126.167 225.5,124.833 225.5,123.5C 222.833,123.5 220.167,123.5 217.5,123.5C 217.5,137.5 217.5,151.5 217.5,165.5C 227.167,165.5 236.833,165.5 246.5,165.5C 246.5,163.167 246.5,160.833 246.5,158.5C 240.167,158.5 233.833,158.5 227.5,158.5C 227.5,158.167 227.5,157.833 227.5,157.5C 234.167,157.5 240.833,157.5 247.5,157.5C 247.5,160.5 247.5,163.5 247.5,166.5C 237.167,166.5 226.833,166.5 216.5,166.5C 216.5,152.167 216.5,137.833 216.5,123.5C 219.625,122.521 222.958,122.187 226.5,122.5 Z"/></g>
<g><path style="opacity:1" fill="#756630" d="M 289.5,156.5 C 290.167,156.5 290.833,156.5 291.5,156.5C 296.075,158.487 300.742,159.154 305.5,158.5C 304.5,158.833 303.833,159.5 303.5,160.5C 299.696,162.548 295.696,164.215 291.5,165.5C 289.901,165.768 288.568,165.434 287.5,164.5C 289.739,163.701 291.739,162.368 293.5,160.5C 293.291,159.914 292.957,159.414 292.5,159C 285.391,157.701 278.391,157.201 271.5,157.5C 277.471,156.759 283.471,156.425 289.5,156.5 Z"/></g>
<g><path style="opacity:1" fill="#62581c" d="M 187.5,159.5 C 194.648,158.508 201.981,158.175 209.5,158.5C 209.5,160.833 209.5,163.167 209.5,165.5C 206.167,165.5 202.833,165.5 199.5,165.5C 201.948,164.527 204.615,164.194 207.5,164.5C 207.5,162.833 207.5,161.167 207.5,159.5C 202.167,159.5 196.833,159.5 191.5,159.5C 190.5,159.5 189.5,159.5 188.5,159.5C 188.167,159.5 187.833,159.5 187.5,159.5 Z"/></g>
<g><path style="opacity:1" fill="#bfbfbf" d="M 39.5,162.5 C 38.1525,164.48 36.1525,165.647 33.5,166C 26.6536,166.821 19.987,166.654 13.5,165.5C 18.8333,165.5 24.1667,165.5 29.5,165.5C 32.9631,164.901 36.2964,163.901 39.5,162.5 Z"/></g>
<g><path style="opacity:1" fill="#bbb282" d="M 209.5,158.5 C 210.473,160.948 210.806,163.615 210.5,166.5C 210.167,166.5 209.833,166.5 209.5,166.5C 199.167,166.5 188.833,166.5 178.5,166.5C 177.833,166.5 177.5,166.167 177.5,165.5C 178.167,165.5 178.833,165.5 179.5,165.5C 182.833,165.5 186.167,165.5 189.5,165.5C 192.833,165.5 196.167,165.5 199.5,165.5C 202.833,165.5 206.167,165.5 209.5,165.5C 209.5,163.167 209.5,160.833 209.5,158.5 Z"/></g>
<g><path style="opacity:1" fill="#fcf9dc" d="M 178.5,166.5 C 188.833,166.5 199.167,166.5 209.5,166.5C 205.049,167.827 200.216,168.494 195,168.5C 190.167,168.333 185.333,168.167 180.5,168C 179.584,167.722 178.918,167.222 178.5,166.5 Z"/></g>
<g><path style="opacity:1" fill="#fdfbe6" d="M 137.5,123.5 C 137.171,137.677 137.504,151.677 138.5,165.5C 141.287,166.477 144.287,166.81 147.5,166.5C 147.586,167.496 147.252,168.329 146.5,169C 138.563,171.033 134.896,167.866 135.5,159.5C 136.821,148.628 136.821,137.628 135.5,126.5C 135.942,125.261 136.609,124.261 137.5,123.5 Z"/></g>
<g><path style="opacity:1" fill="#faf7df" d="M 284.5,122.5 C 273.5,122.5 262.5,122.5 251.5,122.5C 251.5,125.5 251.5,128.5 251.5,131.5C 258.167,131.5 264.833,131.5 271.5,131.5C 271.5,132.167 271.5,132.833 271.5,133.5C 264.531,141.308 257.698,149.308 251,157.5C 250.502,160.482 250.335,163.482 250.5,166.5C 264.344,166.829 278.01,166.496 291.5,165.5C 295.696,164.215 299.696,162.548 303.5,160.5C 303.5,161.833 303.5,163.167 303.5,164.5C 298.117,165.348 292.783,166.515 287.5,168C 274.838,168.5 262.171,168.667 249.5,168.5C 238.546,169.622 227.546,169.788 216.5,169C 215.944,168.617 215.611,168.117 215.5,167.5C 214.705,154.878 214.205,142.212 214,129.5C 213.692,128.692 213.192,128.025 212.5,127.5C 211.85,129.184 210.85,130.517 209.5,131.5C 209.5,128.833 209.5,126.167 209.5,123.5C 211.833,124.833 214.167,124.833 216.5,123.5C 216.5,137.833 216.5,152.167 216.5,166.5C 226.833,166.5 237.167,166.5 247.5,166.5C 247.5,163.5 247.5,160.5 247.5,157.5C 240.833,157.5 234.167,157.5 227.5,157.5C 226.833,157.5 226.5,157.167 226.5,156.5C 226.5,145.167 226.5,133.833 226.5,122.5C 227.541,133.324 228.208,144.324 228.5,155.5C 236.416,154.542 244.083,154.542 251.5,155.5C 251.756,153.208 251.423,151.041 250.5,149C 252.302,147.173 254.468,146.006 257,145.5C 256.402,142.839 256.568,140.173 257.5,137.5C 260.096,138.213 262.763,138.213 265.5,137.5C 265.67,136.178 265.337,135.011 264.5,134C 262.5,133.333 260.5,133.333 258.5,134C 252.79,137.655 249.124,135.989 247.5,129C 248.384,126.527 248.717,124.193 248.5,122C 257.733,120.72 267.066,120.053 276.5,120C 278.515,119.576 280.349,118.742 282,117.5C 283.876,118.619 284.709,120.286 284.5,122.5 Z"/></g>
<g><path style="opacity:1" fill="#887732" d="M 225.5,127.5 C 224.244,127.096 223.077,126.429 222,125.5C 221.05,126.022 220.216,126.689 219.5,127.5C 218.501,139.815 218.168,152.149 218.5,164.5C 224.659,164.784 230.659,163.951 236.5,162C 233.65,160.209 230.65,159.042 227.5,158.5C 233.833,158.5 240.167,158.5 246.5,158.5C 246.5,160.833 246.5,163.167 246.5,165.5C 236.833,165.5 227.167,165.5 217.5,165.5C 217.5,151.5 217.5,137.5 217.5,123.5C 220.167,123.5 222.833,123.5 225.5,123.5C 225.5,124.833 225.5,126.167 225.5,127.5 Z"/></g>
<g><path style="opacity:1" fill="#b9a04d" d="M 225.5,127.5 C 225.779,136.535 225.445,145.535 224.5,154.5C 224.747,155.713 225.414,156.38 226.5,156.5C 226.5,157.167 226.833,157.5 227.5,157.5C 227.5,157.833 227.5,158.167 227.5,158.5C 230.65,159.042 233.65,160.209 236.5,162C 230.659,163.951 224.659,164.784 218.5,164.5C 218.168,152.149 218.501,139.815 219.5,127.5C 220.216,126.689 221.05,126.022 222,125.5C 223.077,126.429 224.244,127.096 225.5,127.5 Z"/></g>
<g><path style="opacity:1" fill="#ddb859" d="M 222.5,130.5 C 223.783,133.58 224.45,136.914 224.5,140.5C 223.441,146.185 223.441,151.852 224.5,157.5C 225.364,159.197 226.697,160.363 228.5,161C 225.722,162.392 222.722,162.892 219.5,162.5C 219.334,152.828 219.5,143.161 220,133.5C 221.045,132.627 221.878,131.627 222.5,130.5 Z"/></g>
<g><path style="opacity:1" fill="#a1a1a1" d="M 136.5,181.5 C 140.562,181.935 142.562,184.269 142.5,188.5C 138.666,194.081 135.5,193.748 133,187.5C 132.781,188.938 132.281,190.271 131.5,191.5C 130.686,189.234 130.186,186.9 130,184.5C 128.667,183.167 127.333,183.167 126,184.5C 124.978,193.279 124.145,193.446 123.5,185C 123.833,182.833 124.167,180.667 124.5,178.5C 125.386,179.325 125.719,180.325 125.5,181.5C 129.182,180.725 131.682,182.059 133,185.5C 134.405,184.269 135.571,182.936 136.5,181.5 Z"/></g>
<g><path style="opacity:1" fill="#eaeaea" d="M 204.5,181.5 C 202.336,181.721 200.67,182.721 199.5,184.5C 199.672,183.508 199.338,182.842 198.5,182.5C 197.235,183.514 196.569,185.014 196.5,187C 196.569,188.986 197.235,190.486 198.5,191.5C 196.5,192.833 194.5,192.833 192.5,191.5C 190.633,191.366 188.633,191.699 186.5,192.5C 185.261,192.058 184.261,191.391 183.5,190.5C 183.631,189.761 183.464,189.094 183,188.5C 181.556,190.155 179.722,190.822 177.5,190.5C 178.833,188.167 178.833,185.833 177.5,183.5C 180.86,182.79 182.693,184.124 183,187.5C 183.49,186.207 183.657,184.873 183.5,183.5C 183.093,182.25 183.759,181.083 185.5,180C 188.101,179.08 190.768,178.413 193.5,178C 194.047,177.075 194.713,176.242 195.5,175.5C 196.425,176.641 197.259,176.641 198,175.5C 198.333,177.5 198.667,179.5 199,181.5C 200.204,180.529 200.704,179.529 200.5,178.5C 201.478,178.977 202.311,179.643 203,180.5C 202.923,179.262 203.089,178.262 203.5,177.5C 205.176,178.728 205.509,180.061 204.5,181.5 Z"/></g>
<g><path style="opacity:1" fill="#848484" d="M 80.5,179.5 C 81.3909,180.261 82.0576,181.261 82.5,182.5C 81.5947,185.705 81.2613,188.705 81.5,191.5C 80.157,187.463 79.8237,183.463 80.5,179.5 Z"/></g>
<g><path style="opacity:1" fill="#868686" d="M 192.5,191.5 C 192.74,188.421 192.407,185.421 191.5,182.5C 192.5,178.5 193.5,178.5 194.5,182.5C 193.205,185.366 193.205,188.199 194.5,191C 193.906,191.464 193.239,191.631 192.5,191.5 Z"/></g>
<g><path style="opacity:1" fill="#cbcbcb" d="M 234.5,180.5 C 235.158,181.398 235.824,182.398 236.5,183.5C 237.965,181.576 239.632,181.243 241.5,182.5C 241.539,183.583 241.873,184.583 242.5,185.5C 241.271,186.281 239.938,186.781 238.5,187C 243.678,188.853 243.344,190.02 237.5,190.5C 237.741,188.102 237.074,186.102 235.5,184.5C 235.167,184.5 234.833,184.5 234.5,184.5C 234.5,183.167 234.5,181.833 234.5,180.5 Z"/></g>
<g><path style="opacity:1" fill="#a0a0a0" d="M 276.5,178.5 C 276.826,182.884 276.492,187.217 275.5,191.5C 275.167,189.333 274.833,187.167 274.5,185C 274.533,182.39 275.2,180.223 276.5,178.5 Z"/></g>
<g><path style="opacity:1" fill="#f2f2f2" d="M 136.5,183.5 C 140.473,184.075 141.473,186.242 139.5,190C 134.4,189.887 133.4,187.721 136.5,183.5 Z"/></g>
<g><path style="opacity:1" fill="#adadad" d="M 99.5,178.5 C 102.999,178.259 103.332,179.092 100.5,181C 100.957,181.414 101.291,181.914 101.5,182.5C 100.915,185.503 100.248,188.503 99.5,191.5C 98.3661,187.169 98.3661,182.836 99.5,178.5 Z"/></g>
<g><path style="opacity:1" fill="#949494" d="M 159.5,191.5 C 159.5,188.833 159.5,186.167 159.5,183.5C 157.901,183.232 156.568,183.566 155.5,184.5C 154.686,186.631 154.186,188.964 154,191.5C 153.333,187.5 153.333,183.5 154,179.5C 154.249,180.624 154.749,181.624 155.5,182.5C 159.79,181.109 161.79,182.776 161.5,187.5C 161.415,189.333 160.748,190.666 159.5,191.5 Z"/></g>
<g><path style="opacity:1" fill="#999999" d="M 173.5,188.5 C 172.842,189.398 172.176,190.398 171.5,191.5C 170.316,189.954 169.316,188.287 168.5,186.5C 167.935,188.51 166.935,190.176 165.5,191.5C 163.889,190.68 163.222,189.346 163.5,187.5C 162.063,181.518 162.73,181.185 165.5,186.5C 168.799,181.045 170.632,181.712 171,188.5C 172,186.5 173,184.5 174,182.5C 174.49,184.545 174.323,186.545 173.5,188.5 Z"/></g>
<g><path style="opacity:1" fill="#8f8f8f" d="M 234.5,180.5 C 234.5,181.833 234.5,183.167 234.5,184.5C 234.389,185.117 234.056,185.617 233.5,186C 231.527,186.495 229.527,186.662 227.5,186.5C 226.698,187.952 226.198,189.618 226,191.5C 225.501,187.179 225.334,182.846 225.5,178.5C 228.187,178.336 230.854,178.503 233.5,179C 234.056,179.383 234.389,179.883 234.5,180.5 Z"/></g>
<g><path style="opacity:1" fill="#f8f8f8" d="M 227.5,180.5 C 231.241,179.599 233.241,180.932 233.5,184.5C 231.5,184.5 229.5,184.5 227.5,184.5C 227.5,183.167 227.5,181.833 227.5,180.5 Z"/></g>
<g><path style="opacity:1" fill="#a6a6a6" d="M 258.5,191.5 C 257.834,188.972 257.168,186.306 256.5,183.5C 253.976,185.19 251.976,187.357 250.5,190C 252.256,190.202 253.922,190.702 255.5,191.5C 252.894,192.652 250.227,192.818 247.5,192C 245.808,190.599 245.141,188.766 245.5,186.5C 245.187,183.753 245.52,181.086 246.5,178.5C 247.327,182.459 247.827,186.459 248,190.5C 250.077,188.924 251.577,186.924 252.5,184.5C 251.167,183.833 249.833,183.167 248.5,182.5C 252.035,181.978 255.368,180.978 258.5,179.5C 259.262,180.628 259.929,181.795 260.5,183C 259.167,185.667 259.167,188.333 260.5,191C 259.906,191.464 259.239,191.631 258.5,191.5 Z"/></g>
<g><path style="opacity:1" fill="#969696" d="M 269.5,190.5 C 266.833,193.167 264.167,193.167 261.5,190.5C 261.192,188.076 261.526,185.743 262.5,183.5C 266.685,180.413 268.851,181.413 269,186.5C 268.388,183.968 266.888,183.135 264.5,184C 263.424,185.726 263.257,187.559 264,189.5C 265.938,190.86 267.604,190.527 269,188.5C 269.464,189.094 269.631,189.761 269.5,190.5 Z"/></g>
<g><path style="opacity:1" fill="#8e8e8e" d="M 36.5,182.5 C 40.9704,182.03 41.4704,183.03 38,185.5C 37.6667,187.5 37.3333,189.5 37,191.5C 36.502,188.518 36.3354,185.518 36.5,182.5 Z"/></g>
<g><path style="opacity:1" fill="#9e9e9e" d="M 52.5,179.5 C 53.3909,180.261 54.0576,181.261 54.5,182.5C 53.4977,186.087 53.4977,189.421 54.5,192.5C 53.914,192.291 53.414,191.957 53,191.5C 52.1448,187.407 51.9781,183.407 52.5,179.5 Z"/></g>
<g><path style="opacity:1" fill="#989898" d="M 72.5,181.5 C 74.1439,181.286 75.6439,181.62 77,182.5C 77.2178,185.426 77.7178,188.26 78.5,191C 78.1667,191.167 77.8333,191.333 77.5,191.5C 76.5713,190.311 76.238,188.978 76.5,187.5C 74.8561,187.286 73.3561,187.62 72,188.5C 71.5439,189.744 72.0439,190.577 73.5,191C 69.8333,191.667 68.8333,190.333 70.5,187C 72.5,186.333 74.5,185.667 76.5,185C 74.5217,182.985 72.6884,183.152 71,185.5C 70.7003,183.934 71.2003,182.601 72.5,181.5 Z"/></g>
<g><path style="opacity:1" fill="#848484" d="M 185.5,182.5 C 189.554,182.21 190.054,182.877 187,184.5C 186.667,186.833 186.333,189.167 186,191.5C 185.502,188.518 185.335,185.518 185.5,182.5 Z"/></g>
<g><path style="opacity:1" fill="#8f8f8f" d="M 12.5,178.5 C 15.3719,181.209 17.5385,184.542 19,188.5C 23.6952,176.836 25.3618,177.836 24,191.5C 23.6667,188.833 23.3333,186.167 23,183.5C 22.1451,186.601 20.6451,189.268 18.5,191.5C 17.081,189.664 15.9143,187.664 15,185.5C 14.8078,187.577 14.3078,189.577 13.5,191.5C 12.5078,187.217 12.1744,182.884 12.5,178.5 Z"/></g>
<g><path style="opacity:1" fill="#818181" d="M 42.5,179.5 C 43.1646,181.369 43.8313,183.369 44.5,185.5C 45.916,183.861 47.5826,183.027 49.5,183C 45.8755,185.134 45.8755,187.467 49.5,190C 49.3333,190.5 49.1667,191 49,191.5C 47.647,190.315 46.4803,188.981 45.5,187.5C 44.0295,188.381 43.1962,189.714 43,191.5C 42.5012,187.514 42.3345,183.514 42.5,179.5 Z"/></g>
<g><path style="opacity:1" fill="#d1d1d1" d="M 217.5,184.5 C 217.867,186.456 218.2,188.456 218.5,190.5C 218.167,190.5 217.833,190.5 217.5,190.5C 216.047,190.071 214.381,189.904 212.5,190C 211.167,188 211.167,186 212.5,184C 214.888,183.135 216.388,183.968 217,186.5C 217.464,185.906 217.631,185.239 217.5,184.5 Z"/></g>
<g><path style="opacity:1" fill="#a7a7a7" d="M 271.5,178.5 C 272.8,180.223 273.467,182.39 273.5,185C 273.167,187.167 272.833,189.333 272.5,191.5C 271.508,187.217 271.174,182.884 271.5,178.5 Z"/></g>
<g><path style="opacity:1" fill="#989898" d="M 112.5,182.5 C 114.199,182.34 115.866,182.506 117.5,183C 116.584,183.374 115.75,183.874 115,184.5C 114.814,186.9 114.314,189.234 113.5,191.5C 112.516,188.572 112.183,185.572 112.5,182.5 Z"/></g>
<g><path style="opacity:1" fill="#ababab" d="M 198.5,182.5 C 198.5,185.5 198.5,188.5 198.5,191.5C 197.235,190.486 196.569,188.986 196.5,187C 196.569,185.014 197.235,183.514 198.5,182.5 Z"/></g>
<g><path style="opacity:1" fill="#9e9e9e" d="M 241.5,182.5 C 243.262,183.262 244.262,184.596 244.5,186.5C 243.95,191.229 241.45,192.896 237,191.5C 235.798,189.323 235.298,186.989 235.5,184.5C 237.074,186.102 237.741,188.102 237.5,190.5C 243.344,190.02 243.678,188.853 238.5,187C 239.938,186.781 241.271,186.281 242.5,185.5C 241.873,184.583 241.539,183.583 241.5,182.5 Z"/></g>
<g><path style="opacity:1" fill="#999999" d="M 280.5,181.5 C 284.734,181.062 286.401,182.728 285.5,186.5C 284.573,184.054 282.906,183.221 280.5,184C 279.424,185.726 279.257,187.559 280,189.5C 282.355,190.15 284.522,190.15 286.5,189.5C 284.585,192.226 282.251,192.893 279.5,191.5C 276.687,187.886 277.021,184.552 280.5,181.5 Z"/></g>
<g><path style="opacity:1" fill="#9e9e9e" d="M 66.5,179.5 C 67.7943,181.048 68.4609,183.048 68.5,185.5C 68.1667,187.5 67.8333,189.5 67.5,191.5C 66.7492,190.624 66.2492,189.624 66,188.5C 64.6045,192.306 62.1045,193.306 58.5,191.5C 57.7492,192.376 57.2492,193.376 57,194.5C 56.5012,190.514 56.3345,186.514 56.5,182.5C 60.63,180.599 63.7967,181.599 66,185.5C 66.4955,183.527 66.6621,181.527 66.5,179.5 Z"/></g>
<g><path style="opacity:1" fill="#f7f7f7" d="M 59.5,183.5 C 60.8221,183.33 61.9887,183.663 63,184.5C 63.4955,186.473 63.6621,188.473 63.5,190.5C 58.5904,190.424 57.2571,188.09 59.5,183.5 Z"/></g>
<g><path style="opacity:1" fill="#888888" d="M 89.5,182.5 C 90.3764,182.369 91.0431,182.702 91.5,183.5C 89.7123,185.576 88.0456,187.743 86.5,190C 88.1667,190.333 89.8333,190.667 91.5,191C 89.0982,191.814 86.7649,191.647 84.5,190.5C 86.6893,188.113 88.3559,185.447 89.5,182.5 Z"/></g>
<g><path style="opacity:1" fill="#919191" d="M 29.5,181.5 C 31.1439,181.286 32.6439,181.62 34,182.5C 34.498,185.482 34.6646,188.482 34.5,191.5C 31.6735,192.974 29.1735,192.64 27,190.5C 26.3162,189.216 26.4829,188.049 27.5,187C 29.6079,186.64 31.6079,185.973 33.5,185C 31.5217,182.985 29.6884,183.152 28,185.5C 27.7003,183.934 28.2003,182.601 29.5,181.5 Z"/></g>
<g><path style="opacity:1" fill="#f1f1f1" d="M 29.5,187.5 C 34.4948,187.151 34.8281,188.151 30.5,190.5C 28.1966,190.124 27.8632,189.124 29.5,187.5 Z"/></g>
<g><path style="opacity:1" fill="#9c9c9c" d="M 103.5,182.5 C 104.314,184.631 104.814,186.964 105,189.5C 106.333,190.833 107.667,190.833 109,189.5C 109.186,187.1 109.686,184.766 110.5,182.5C 111.484,185.428 111.817,188.428 111.5,191.5C 109.119,192.42 106.786,192.42 104.5,191.5C 103.516,188.572 103.183,185.572 103.5,182.5 Z"/></g>
<g><path style="opacity:1" fill="#989898" d="M 151.5,190.5 C 147.822,193.581 145.155,192.914 143.5,188.5C 143.231,186.571 143.731,184.905 145,183.5C 144.805,185.126 144.805,186.793 145,188.5C 147,191.167 149,191.167 151,188.5C 151.464,189.094 151.631,189.761 151.5,190.5 Z"/></g>
<g><path style="opacity:1" fill="#929292" d="M 183.5,183.5 C 183.657,184.873 183.49,186.207 183,187.5C 182.693,184.124 180.86,182.79 177.5,183.5C 178.833,185.833 178.833,188.167 177.5,190.5C 179.722,190.822 181.556,190.155 183,188.5C 183.464,189.094 183.631,189.761 183.5,190.5C 179.822,193.581 177.155,192.914 175.5,188.5C 175.287,181.677 177.954,180.01 183.5,183.5 Z"/></g>
<g><path style="opacity:1" fill="#909090" d="M 204.5,181.5 C 205.708,182.234 207.041,182.567 208.5,182.5C 208.5,184.5 208.5,186.5 208.5,188.5C 209.32,192.24 207.987,194.573 204.5,195.5C 202.681,195.658 201.348,194.991 200.5,193.5C 202.22,193.254 204.22,193.254 206.5,193.5C 206.935,190.387 205.935,189.721 203.5,191.5C 200.013,190.531 198.68,188.198 199.5,184.5C 200.67,182.721 202.336,181.721 204.5,181.5 Z"/></g>
<g><path style="opacity:1" fill="#f4f4f4" d="M 202.5,183.5 C 205.243,183.077 206.576,184.244 206.5,187C 204.556,191.503 202.89,191.503 201.5,187C 201.648,185.744 201.982,184.577 202.5,183.5 Z"/></g>
<g><path style="opacity:1" fill="#9b9b9b" d="M 217.5,184.5 C 217.631,185.239 217.464,185.906 217,186.5C 216.388,183.968 214.888,183.135 212.5,184C 211.167,186 211.167,188 212.5,190C 214.381,189.904 216.047,190.071 217.5,190.5C 214.088,193.369 211.421,192.703 209.5,188.5C 209.343,187.127 209.51,185.793 210,184.5C 212.59,180.568 215.09,180.568 217.5,184.5 Z"/></g>
</svg>
