<?xml version="1.0"?><svg xmlns="http://www.w3.org/2000/svg" width="36" height="36" shape-rendering="geometricPrecision" text-rendering="geometricPrecision" image-rendering="optimizeQuality" fill-rule="evenodd" clip-rule="evenodd" viewBox="0 0 36 36"><path fill="#0708fc" d="m14.2 0.1v-0.2h0.6c-0.2 0.2-0.4 0.2-0.6 0.2z" opacity=".034"></path><path fill="#0e0efc" d="m15.7-0.1h4.5c0.6 0.2 1.2 0.3 1.9 0.4 2.4 0.6 4.6 1.7 6.6 3.1 0.2 0.2 0.4 0.4 0.6 0.5 0.7 0.6 1.4 1.3 2 1.9 0 0.1 0.1 0.1 0.1 0.1 0 0.1 0.1 0.1 0.2 0.1 0 0.1 0 0.1 0.1 0.1 0 0.3 0.2 0.5 0.4 0.6 0 0.1 0.1 0.1 0.1 0.1 0.2 0.3 0.4 0.6 0.6 0.8 0 0.1 0 0.1 0.1 0.1v0.2c-0.3 0.1-0.5 0.3-0.7 0.5-0.1 0-0.2 0-0.2 0.1-0.9 0.4-1.7 0.9-2.5 1.5-0.1-0.2-0.3-0.3-0.4-0.4 0-0.2-0.1-0.3-0.2-0.3-0.1-0.1-0.2-0.2-0.3-0.2 0-0.3-0.1-0.4-0.3-0.5 0-0.1 0-0.1-0.1-0.1 0-0.1-0.1-0.1-0.1-0.1-0.1-0.2-0.3-0.4-0.5-0.5 0 0 0-0.1-0.1-0.1 0-0.1 0-0.1-0.1-0.1 0-0.1 0-0.1-0.1-0.1-0.1-0.2-0.3-0.3-0.5-0.3 0-0.1 0-0.2-0.1-0.2 0 0 0-0.1-0.1-0.1 0-0.1-0.2-0.2-0.3-0.2 0-0.1-0.1-0.1-0.1-0.1-0.1-0.2-0.2-0.2-0.4-0.2 0-0.2-0.1-0.3-0.3-0.3-0.2-0.2-0.5-0.3-0.8-0.4-0.1-0.2-0.2-0.2-0.3-0.2-0.1-0.1-0.2-0.2-0.3-0.1-0.1-0.2-0.3-0.3-0.5-0.3-0.2-0.2-0.5-0.3-0.8-0.3-0.8-0.4-1.7-0.6-2.6-0.7-0.7-0.1-1.5-0.2-2.3-0.2-0.7 0-1.5 0.1-2.2 0.2-0.4 0-0.8 0.1-1.1 0.2-0.2 0-0.4 0.1-0.5 0.2-0.1-0.1-0.2 0-0.3 0.1-0.2-0.1-0.3 0-0.4 0.1-0.1 0-0.2 0-0.3 0.1-0.2 0-0.4 0.1-0.6 0.2-0.1 0-0.1 0-0.2 0.1-0.2 0-0.4 0.1-0.5 0.3-0.2-0.1-0.2 0-0.3 0.1-0.1 0-0.3 0-0.3 0.2-0.1 0-0.2 0-0.2 0.1-0.1 0-0.2 0-0.3 0.1 0 0-0.1 0.1-0.1 0.1-0.1 0-0.2 0-0.2 0.1-0.2 0-0.3 0.1-0.3 0.3-0.2 0-0.3 0-0.4 0.2 0 0-0.1 0-0.1 0.1-0.2 0-0.3 0.1-0.3 0.2-0.1 0-0.1 0.1-0.1 0.1-0.1 0-0.1 0.1-0.1 0.2-0.3 0-0.4 0.1-0.5 0.3-0.1 0-0.1 0-0.1 0.1-0.1 0-0.1 0-0.1 0.1-0.1 0-0.1 0.1-0.1 0.1-0.1 0-0.1 0.1-0.1 0.1-0.1 0-0.2 0.1-0.2 0.2 0 0-0.1 0-0.1 0.1 0 0-0.1 0-0.1 0.1-0.1 0-0.1 0-0.1 0.1-0.1 0-0.1 0-0.1 0.1-0.2 0.1-0.3 0.2-0.3 0.5-0.1 0-0.2 0-0.2 0.1 0 0-0.1 0-0.1 0.1-0.1 0-0.2 0.1-0.2 0.3-0.1 0.1-0.3 0.2-0.4 0.4-1.1-0.8-2.3-1.4-3.4-2.1v-0.2c0.1 0 0.1 0 0.1-0.1 0.2-0.2 0.4-0.5 0.6-0.8 0 0 0.1 0 0.1-0.1 0.2-0.1 0.3-0.3 0.4-0.6 0.1 0 0.1 0 0.1-0.1 0.1 0 0.1 0 0.1-0.1 0.1 0 0.2 0 0.2-0.1 2.5-2.7 5.6-4.5 9.2-5.5 0.6-0.1 1.3-0.2 1.9-0.4z m-3.4 5.3l-0.2 0.3h-0.3c0.1-0.2 0.3-0.3 0.5-0.3z m11.3 0c0.2 0 0.4 0.1 0.5 0.3h-0.3l-0.2-0.3z m-12.1 0.4l-0.1 0.2h-0.2c0-0.2 0.2-0.2 0.3-0.2z m12.9 0c0.1 0 0.2 0 0.3 0.2h-0.2l-0.1-0.2z m-14 0.6c0 0.2-0.2 0.3-0.3 0.3 0-0.2 0.1-0.3 0.3-0.3z m15.1 0c0.2 0 0.3 0.1 0.3 0.3-0.2 0-0.3-0.1-0.3-0.3z m-15.4 0.3c-0.1 0.1-0.2 0.2-0.4 0.2 0.1-0.2 0.2-0.2 0.4-0.2z m15.7 0c0.2 0 0.3 0 0.4 0.2-0.2 0-0.3-0.1-0.4-0.2z m-16.2 0.3l-0.1 0.2h-0.2c0-0.1 0.1-0.2 0.3-0.2z m16.7 0c0.1 0 0.3 0.1 0.3 0.2h-0.2l-0.1-0.2z m-17.2 0.5l-0.3 0.3h-0.2c0.1-0.2 0.2-0.3 0.5-0.3z m17.7 0c0.2 0 0.4 0.1 0.5 0.3h-0.2l-0.3-0.3z m-19.2 1.3v0.2l-0.3 0.3c0-0.3 0.1-0.4 0.3-0.5z m20.7 0c0.2 0.1 0.3 0.2 0.3 0.5l-0.3-0.3v-0.2z m-21.3 0.7c0 0.2 0 0.3-0.2 0.3 0-0.2 0.1-0.3 0.2-0.3z m21.9 0c0.1 0 0.2 0.1 0.2 0.3-0.2 0-0.3-0.1-0.2-0.3z m-2-0.6c0 0.2-0.1 0.3-0.3 0.2 0.1-0.1 0.2-0.2 0.3-0.2z m-18 0c0.2 0 0.3 0.1 0.4 0.2-0.2 0.1-0.3 0-0.4-0.2z m17.5 0.4c-0.1 0.1-0.2 0.2-0.4 0.2 0.1-0.2 0.2-0.3 0.4-0.2z m-16.9 0c0.2-0.1 0.3 0 0.3 0.2-0.1 0-0.2-0.1-0.3-0.2z" opacity=".961"></path><path fill="#0708fc" d="m21.1-0.1h0.6v0.2c-0.3 0-0.4 0-0.6-0.2z" opacity=".034"></path><path fill="#0607fb" d="m21.7 0.1c0.3-0.1 0.6 0 0.9 0.1-0.2 0.1-0.3 0.1-0.5 0.1l-0.4-0.2z" opacity=".016"></path><path fill="#0708fb" d="m14.2 0.1l-0.4 0.2c-0.2 0-0.3 0-0.5-0.1 0.3-0.1 0.6-0.2 0.9-0.1z" opacity=".035"></path><path fill="#dddbff" d="m19 2.6c0.1-0.1 0.1-0.3 0.1-0.5-0.2 0-0.4 0-0.6-0.1 0.3 0 0.5 0 0.8 0 0.1 0.9-0.4 1.3-1.4 1-0.2 0-0.3-0.2-0.5-0.4-0.1-0.5 0-1.1 0.2-1.6 0.4-0.3 0.9-0.3 1.4-0.2 0.3 0.2 0.3 0.4 0.2 0.7-0.2-0.1-0.3-0.2-0.2-0.4-0.4 0-0.8 0-1.2 0-0.1 0.5-0.1 1 0 1.5 0.4 0.2 0.8 0.2 1.2 0z"></path><path fill="#dfdcff" d="m21.1 1.1c0.6 0 1.1 0.2 1.6 0.4-0.5 0.1-0.9 0.1-1.3-0.1-0.1 0.2-0.1 0.4-0.2 0.6 0.4 0.1 0.8 0.2 1.2 0.4-0.4 0.1-0.8 0.1-1.1-0.1-0.2 0.3-0.2 0.5-0.2 0.8 0.3 0 0.7 0.1 1 0.2 0.1 0.1 0.1 0.2-0.2 0.2-0.4-0.1-0.8-0.1-1.3-0.2 0.2-0.7 0.4-1.5 0.5-2.2z"></path><path fill="#b0b0fd" d="m19.3 2c-0.3 0-0.5 0-0.8 0 0.2 0.1 0.4 0.1 0.6 0.1 0 0.2 0 0.4-0.1 0.5v-0.4h-0.6v-0.3c0.3-0.1 0.6 0 0.9 0.1z"></path><path fill="#dcd9ff" d="m14.9 1c0.8 0 1.1 0.4 0.8 1.1 0.3 0.3 0.4 0.7 0.3 1.1h-0.3c0-0.3 0-0.5-0.1-0.7-0.4-0.1-0.7-0.1-1-0.1 0 0.4 0.1 0.7 0.1 1h-0.4c0-0.7-0.1-1.4-0.3-2 0.1-0.2 0.1-0.2 0.2-0.3 0.3 0 0.5-0.1 0.7-0.1z"></path><path fill="#201afc" d="m14.7 1.3c0.7-0.2 0.9 0.1 0.8 0.8-0.4 0-0.7 0-1 0.1 0-0.2-0.1-0.5-0.2-0.7 0.2-0.1 0.3-0.1 0.4-0.2z"></path><path fill="#e5e4ff" d="m12.1 1.7c0.2 0.1 0.3 0.2 0.1 0.3-0.3 0.2-0.7 0.3-1 0.5 0.1 0.2 0.2 0.4 0.3 0.6 0.4-0.3 0.7-0.4 1.2-0.3-0.4 0.2-0.8 0.4-1.2 0.6 0.2 0.2 0.3 0.4 0.4 0.6l1-0.5c0.1 0.1 0.2 0.2 0.2 0.3-0.5 0.2-1 0.4-1.6 0.5-0.2-0.7-0.4-1.4-0.6-2.1 0.4-0.1 0.8-0.3 1.2-0.5z"></path><path fill="#0605fc" d="m28.7 3.3c0.2 0.1 0.2 0.1 0 0z" opacity=".024"></path><path fill="#0504fd" d="m6.8 3.4c0.2 0.1 0.2 0.1 0 0z m22.2 0c0.1 0.1 0.1 0.1 0 0z" opacity=".012"></path><path fill="#0405fe" d="m29.3 3.8c0.2 0 0.2 0 0 0z" opacity=".02"></path><path fill="#0504fd" d="m6.2 3.9c0.2 0.1 0.2 0.1 0 0z m23.3 0c0.2 0.1 0.2 0.1 0 0z" opacity=".012"></path><path fill="#0405fd" d="m16.6 4.2c0.9-0.1 1.8-0.1 2.7 0-0.9 0-1.8 0-2.7 0z" opacity=".017"></path><path fill="#0405fd" d="m15.7 4.2c0.2 0 0.4 0 0.7 0.1-0.3 0.1-0.5 0-0.7-0.1z m4.5 0c-0.2 0.1-0.4 0.2-0.7 0.1 0.2-0.1 0.5-0.1 0.7-0.1z" opacity=".016"></path><path fill="#dbd8fe" d="m24.4 2.1c0.1 0 0.2 0 0.4 0.1 0.1 0.7 0.2 1.3 0.3 2 0.2-0.4 0.4-0.9 0.6-1.3 0.1-0.2 0.2-0.2 0.3 0-0.3 0.6-0.5 1.2-0.7 1.9-0.3 0-0.4-0.1-0.6-0.2l-0.2-2.1c-0.2 0.6-0.5 1.1-0.8 1.6l-0.1-0.2c0.2-0.6 0.5-1.2 0.8-1.8z"></path><path fill="#0405fd" d="m15.1 4.4c0.2-0.1 0.3-0.1 0.5 0-0.2 0-0.3 0.1-0.5 0z m5.2 0c0.1-0.1 0.3-0.1 0.5 0-0.2 0-0.3 0.1-0.5 0z" opacity=".019"></path><path fill="#0505fc" d="m14.6 4.6v-0.2c0.6 0.1 0.6 0.1 0 0.2z" opacity=".017"></path><path fill="#0506fd" d="m14.1 4.7v-0.1h0.5c-0.2 0.1-0.3 0.1-0.5 0.1z" opacity=".016"></path><path fill="#0608fc" d="m13.8 4.8v-0.1h0.3c-0.1 0.1-0.2 0.1-0.3 0.1z" opacity=".031"></path><path fill="#0707fc" d="m13.4 4.9v-0.1h0.4c-0.1 0.1-0.2 0.1-0.4 0.1z" opacity=".031"></path><path fill="#e3e1fe" d="m27.6 4c0.6 0.1 1.1 0.4 1.4 1-0.1 0.2-0.2 0.3-0.4 0.5 0.1-0.6-0.1-1-0.7-1.2-0.4 0.3-0.7 0.6-0.9 0.9 0 0.5 0.2 0.8 0.7 0.9 0.1 0 0.3-0.1 0.4-0.2 0 0.3-0.1 0.5-0.4 0.6-0.5-0.2-0.9-0.5-1.1-1 0.3-0.5 0.6-1 1-1.5z"></path><path fill="#0707fc" d="m13.1 5v-0.1h0.3c0 0.1-0.1 0.1-0.3 0.1z" opacity=".031"></path><path fill="#0505fd" d="m14.3 11.9c0-0.1-0.1-0.2-0.2-0.1 0.2-2.3 0.3-4.6 0.3-6.9 0.1 2.3 0.1 4.7-0.1 7z m7.5-0.1c-0.1-0.1-0.2 0-0.3 0.1-0.1-2.3-0.1-4.7 0-7 0 2.3 0.1 4.6 0.3 6.9z" opacity=".012"></path><path fill="#0707fc" d="m22.8 4.9v0.1c-0.5 0-0.5-0.1 0-0.1z" opacity=".031"></path><path fill="#0507fc" d="m13.1 5c0 0.1-0.1 0.1-0.2 0.1 0-0.1 0.1-0.1 0.2-0.1z" opacity=".02"></path><path fill="#0709fb" d="m22.8 5c0.1 0 0.1 0 0.2 0.1-0.1 0-0.2 0-0.2-0.1z" opacity=".039"></path><path fill="#0909fc" d="m12.5 5.1c0.1 0 0.2 0 0.3 0.1-0.1 0.1-0.2 0-0.3-0.1z" opacity=".031"></path><path fill="#0000fe" d="m21.3 5.1c-0.1 2.4-0.1 4.8 0 7.2 0 0.1 0 0.1-0.1 0.1-0.1-2.4-0.1-4.8-0.1-7.3h-6.3c0 2.5 0 4.9-0.1 7.3-0.1 0-0.1 0-0.1-0.1 0.1-2.4 0.1-4.8 0-7.2 1.1-0.1 2.2-0.2 3.3-0.2 1.2 0 2.3 0.1 3.4 0.2z"></path><path fill="#e2e1ff" d="m8.8 3.3c0.2 0 0.3 0 0.4 0.1l1.1 1.6c-0.1 0.1-0.2 0.1-0.3 0.1-0.3-0.4-0.6-0.8-0.9-1.2 0.1 0.5 0.2 1.1 0.4 1.7-0.1 0.2-0.2 0.2-0.4 0.1-0.5-0.3-1-0.6-1.5-0.9 0.4 0.5 0.7 0.9 1 1.4l-0.2 0.2c-0.4-0.6-0.8-1.2-1.3-1.8 0.1-0.1 0.3-0.2 0.4-0.3 0.5 0.4 1.1 0.8 1.6 1.2-0.1-0.6-0.2-1.2-0.4-1.8 0-0.2 0.1-0.3 0.1-0.4z"></path><path fill="#0606fc" d="m11.8 5.5h0.3c-0.2 0.1-0.4 0.2-0.7 0.3l0.1-0.2c0.1 0 0.2 0 0.3-0.1z" opacity=".012"></path><path fill="#0607fb" d="m23.8 5.5h0.3c0.1 0.1 0.1 0.1 0.3 0.1l0.1 0.2c-0.3-0.1-0.5-0.2-0.7-0.3z" opacity=".012"></path><path fill="#0505fd" d="m4.6 5.8c-0.1 0-0.2 0-0.2 0.1 0 0-0.1 0-0.1 0.1 0 0-0.1 0.1-0.1 0.1-0.1 0-0.1-0.1 0-0.2l0.3-0.3c0.1 0 0.1 0.1 0.1 0.2z" opacity=".016"></path><path fill="#0506fd" d="m31.7 6.1c-0.1 0-0.1 0-0.1-0.1-0.1 0-0.2 0-0.2-0.1 0 0-0.1 0-0.1-0.1 0-0.1 0-0.2 0.1-0.2l0.3 0.3c0.1 0.1 0.1 0.2 0 0.2z" opacity=".017"></path><path fill="#0507fc" d="m11 6v-0.1c0.3 0 0.3 0.1 0 0.1z" opacity=".02"></path><path fill="#0809fa" d="m10.7 6.1v-0.1h0.3c-0.1 0.1-0.1 0.2-0.3 0.1z" opacity=".039"></path><path fill="#0a0afd" d="m10.6 6.1h0.1c0 0.1 0 0.1-0.1 0z" opacity=".051"></path><path fill="#0506fd" d="m3.8 6.7c-0.1 0-0.1 0-0.1 0.1-0.2-0.1-0.2-0.2 0-0.3 0.1 0 0.1 0.1 0.1 0.2z m28.4 0.1c0 0-0.1 0-0.1-0.1 0-0.3 0.1-0.3 0.2 0 0 0.1 0 0.1-0.1 0.1z" opacity=".017"></path><path fill="#e1dfff" d="m5.6 5.9c0.1 0 0.2 0 0.3 0.1-0.3 0.3-0.5 0.6-0.8 1 0.2 0.2 0.3 0.3 0.6 0.3 0.2-0.2 0.4-0.4 0.5-0.7 0.2 0 0.3 0 0.4 0.1-0.2 0.3-0.5 0.5-0.7 0.8-0.1 0.1-0.1 0.2 0 0.3 0.2 0 0.3 0.1 0.5 0.2 0.2-0.3 0.5-0.6 0.8-0.9l0.2 0.2c-0.3 0.4-0.7 0.8-1 1.2-0.6-0.5-1.2-1-1.7-1.5 0.3-0.3 0.6-0.7 0.9-1.1z"></path><path fill="#e0deff" d="m30.1 5.9c0.2 0 0.3 0.1 0.3 0.2-0.1 0.4-0.2 0.7-0.3 1 0.4 0.1 0.9 0.1 1.3 0.1 0.1 0 0.1 0.1 0.2 0.2-0.6 0.1-1.1 0.1-1.6 0.1-0.2 0.3-0.5 0.5-0.7 0.7-0.1-0.1-0.1-0.3 0-0.4l0.5-0.4c0.1-0.5 0.2-1 0.3-1.5z"></path><path fill="#0607fc" d="m9.3 7h0.2c-0.1 0.2-0.2 0.3-0.3 0.1 0 0 0.1 0 0.1-0.1z m17.1 0h0.2c0.1 0 0.1 0.1 0.1 0.1-0.1 0.2-0.2 0.1-0.3-0.1z" opacity=".016"></path><path fill="#0606fc" d="m3.1 7.6c-0.1 0-0.1 0-0.1 0.1-0.2-0.1-0.1-0.2 0-0.3 0.1 0 0.1 0.1 0.1 0.2z" opacity=".016"></path><path fill="#0505fc" d="m33 7.7h-0.1c-0.1 0-0.1 0-0.1-0.1 0.1-0.3 0.2-0.2 0.2 0.1z" opacity=".018"></path><path fill="#0506fc" d="m8.6 7.6h0.2c-0.1 0.2-0.3 0.4-0.5 0.4v-0.1c0 0 0.1 0 0.1-0.1 0.1 0 0.1 0 0.1-0.1 0.1 0 0.1 0 0.1-0.1z" opacity=".016"></path><path fill="#0506fc" d="m27.1 7.6h0.2c0.1 0 0.1 0 0.1 0.1 0.1 0 0.1 0 0.1 0.1 0.1 0 0.1 0.1 0.1 0.1-0.2 0.1-0.4 0-0.5-0.3z" opacity=".017"></path><path fill="#0405fe" d="m33 7.7c0.2 0.1 0.2 0.2 0 0.2v-0.2z" opacity=".02"></path><path fill="#0504fd" d="m3 7.9c-0.1 0.1-0.1 0.1 0 0z m29.9 0h0.1c0 0.1 0 0.1-0.1 0z" opacity=".012"></path><path fill="#0909fc" d="m8.2 8h0.1c-0.1 0.1-0.1 0.1-0.1 0z m-5 0.3c-0.1-0.2-0.1-0.2 0 0z m4.8-0.1h0.2c-0.1 0-0.1 0-0.2 0z m24.7 0c0.1 0 0.1 0 0 0z" opacity=".031"></path><path fill="#0708fc" d="m3.2 8.3c0.1 0 0.2 0 0.2 0-0.1 0.1-0.1 0.1-0.2 0z" opacity=".031"></path><path fill="#0909fc" d="m7.9 8.3h0.1c0 0 0 0-0.1 0z" opacity=".031"></path><path fill="#0606fc" d="m8.5 8.5c-0.3-0.2-0.3-0.2 0.1-0.2 0.1 0.1 0.1 0.2-0.1 0.2z" opacity=".012"></path><path fill="#0606fc" d="m27.6 8.4c-0.1 0-0.2 0-0.2 0.1-0.2 0-0.3-0.1-0.1-0.2 0.1-0.1 0.2 0 0.3 0.1z" opacity=".024"></path><path fill="#0606fc" d="m32.5 8.4c0-0.1 0.1-0.2 0.2-0.1-0.1 0.1-0.1 0.1-0.2 0.1z" opacity=".012"></path><path fill="#0405fd" d="m7.8 8.4h0.1v0.2l-0.3 0.2v-0.2c0.1 0 0.1 0 0.1-0.1 0.1 0 0.1 0 0.1-0.1z" opacity=".016"></path><path fill="#0504fd" d="m27.6 8.4c0.2 0.1 0.2 0.1 0 0z" opacity=".012"></path><path fill="#0405fd" d="m28.1 8.4c0 0 0.1 0 0.1 0.1 0.1 0 0.1 0 0.1 0.1v0.2l-0.3-0.2c-0.1-0.1 0-0.2 0.1-0.2z" opacity=".016"></path><path fill="#0507fd" d="m32.2 8.5v-0.1h0.3c-0.1 0.1-0.2 0.1-0.3 0.1z" opacity=".02"></path><path fill="#0606fc" d="m32 8.5h0.2c-0.2 0.3-0.3 0.3-0.2 0z" opacity=".012"></path><path fill="#0504fd" d="m7.9 8.6c0.2 0.1 0.2 0.1 0 0z m20.1 0c-0.1 0.1-0.1 0.1 0 0z" opacity=".012"></path><path fill="#0405fe" d="m7.1 9.2c0.2 0 0.2 0 0 0z m-2.1 0.1c0.2 0.1 0.2 0.1 0 0z" opacity=".02"></path><path fill="#0504fd" d="m7.7 9.4c-0.1-0.2-0.1-0.2 0 0z m20.5-0.1c0.1 0.1 0.1 0.1 0 0z" opacity=".012"></path><path fill="#0405fe" d="m30.8 9.3c0.1 0.1 0.1 0.1 0 0z m-25.5 0.2c0-0.1 0-0.1 0 0z m25.2-0.1c0.2 0.1 0.2 0.1 0 0z" opacity=".02"></path><path fill="#0405fd" d="m5.3 9.5c0.1 0 0.2 0 0.3 0.1-0.1 0-0.2 0-0.3-0.1z" opacity=".016"></path><path fill="#0504fd" d="m7.6 9.6c-0.1-0.1-0.1-0.1 0 0z m20.7-0.1c0.1 0.1 0.1 0.1 0 0z" opacity=".012"></path><path fill="#0405fd" d="m30.5 9.5c0 0.1-0.1 0.1-0.2 0.1 0.1-0.1 0.2-0.1 0.2-0.1z" opacity=".016"></path><path fill="#0504fd" d="m7.5 9.8c-0.1-0.1-0.1-0.1 0 0z m21 0c-0.1-0.1-0.1-0.1 0 0z" opacity=".012"></path><path fill="#0909fc" d="m1.7 10c0.1-0.2 0.2-0.2 0.3-0.1-0.1 0.1-0.2 0.1-0.3 0.1z" opacity=".031"></path><path fill="#0504fd" d="m7.4 9.8c-0.1 0.1-0.1 0.1 0 0z m21.1 0c0.2 0.1 0.2 0.1 0 0z" opacity=".012"></path><path fill="#0909fc" d="m33.9 10c0.1-0.2 0.1-0.2 0.2-0.1 0 0.1-0.1 0.1-0.2 0.1z" opacity=".031"></path><path fill="#0504fd" d="m6.6 10c0.1 0 0.1 0 0 0z m22.7 0.1c-0.1-0.2-0.1-0.2 0 0z m-27.9 0c0.2 0 0.2 0 0 0z" opacity=".012"></path><path fill="#0a0bfc" d="m4.9 11.8c0.1 0.1 0.2 0.2 0.3 0.4-1.8 4.2-1.6 8.5 0.5 12.6 0.2 0.3 0.4 0.5 0.5 0.7 0 0.2 0.1 0.3 0.3 0.3 0 0.2 0 0.3 0.2 0.4 0.7 1 1.6 2 2.7 2.8 0 0.1 0.2 0.2 0.3 0.2 2.1 1.6 4.4 2.5 7 2.7v4h-1.1c-0.6-0.1-1.3-0.2-1.9-0.3-2.7-0.7-5.2-2-7.3-3.7 0-0.1-0.1-0.1-0.2-0.1 0-0.1 0-0.1-0.1-0.1-0.6-0.6-1.3-1.3-1.9-1.9 0-0.1 0-0.2-0.1-0.2-0.1-0.2-0.3-0.4-0.4-0.5 0-0.1-0.1-0.1-0.2-0.1 0.1-0.2 0-0.3-0.2-0.4 0 0 0-0.1-0.1-0.1-1.7-2.6-2.8-5.4-3.3-8.5v-4.1c0.3-2 0.9-3.9 1.7-5.7 0.1-0.1 0.2-0.2 0.4-0.1 0.9 0.6 1.9 1.1 2.9 1.7z" opacity=".967"></path><path fill="#0504fd" d="m6.6 10.1c-0.1 0.1-0.1 0.1-0.2 0 0 0 0.1 0 0.2 0z" opacity=".012"></path><path fill="#0405fe" d="m7.3 10.2c-0.1-0.2-0.1-0.2 0 0z m21.3-0.1c0.2 0 0.2 0 0 0z" opacity=".02"></path><path fill="#0504fd" d="m29.3 10.1c0.1 0 0.2 0 0.2 0-0.1 0.1-0.1 0.1-0.2 0z" opacity=".012"></path><path fill="#0c0dfc" d="m35.9 15.9v4.1c-0.4 2.8-1.3 5.4-2.8 7.8-0.3 0.4-0.5 0.8-0.8 1.2 0 0-0.1 0-0.1 0.1-0.1 0.1-0.2 0.2-0.3 0.4-0.1 0-0.1 0.1-0.1 0.1-0.1 0-0.1 0.1-0.1 0.2-0.3 0.1-0.4 0.3-0.5 0.5-0.1 0-0.1 0.1-0.1 0.1-0.1 0-0.1 0.1-0.1 0.1-0.1 0-0.1 0.1-0.1 0.2-0.1 0-0.1 0-0.1 0.1-0.1 0-0.1 0-0.1 0.1-0.1 0-0.2 0-0.2 0.1 0 0-0.1 0-0.1 0.1 0 0-0.1 0-0.1 0.1-0.2 0.1-0.4 0.2-0.5 0.5-0.1 0-0.2 0-0.2 0.1 0 0-0.1 0-0.1 0.1-2.1 1.7-4.6 3-7.3 3.7-0.6 0.1-1.3 0.2-1.9 0.3h-1.1v-4c2.6-0.2 4.9-1.1 7-2.7 0.9-0.7 1.8-1.5 2.6-2.4 0.3-0.4 0.6-0.9 0.8-1.3 1.8-2.7 2.5-5.6 2.2-8.8-0.1-1.6-0.5-3.1-1.1-4.5 1-0.8 2.2-1.5 3.4-2.1 0.6 0.9 1 1.8 1.2 2.9 0.3 1 0.5 2 0.6 2.9z" opacity=".963"></path><path fill="#0504fd" d="m1.4 10.2c0 0.1 0 0.1 0 0.2-0.1-0.1-0.1-0.2 0-0.2z m33.2 0.2c-0.1 0-0.1-0.1-0.1-0.2 0.1 0 0.1 0.1 0.1 0.2z" opacity=".012"></path><path fill="#0405fd" d="m29 10.6h-0.1c0-0.3 0-0.3 0.1 0z" opacity=".016"></path><path fill="#0504fd" d="m34.6 10.4c0.1 0.1 0.1 0.1 0 0.2 0 0 0-0.1 0-0.2z m-33.4 0.1c0.1 0.1 0.1 0.1 0 0z" opacity=".012"></path><path fill="#0405fe" d="m6.8 10.6c0.2 0.1 0.2 0.1 0 0z m22.2 0c0.1 0.1 0.1 0.1 0 0z" opacity=".02"></path><path fill="#0504fd" d="m1.1 10.7c0.1 0.1 0.1 0.1 0 0z m33.6 0c0.2 0.1 0.2 0.1 0 0z m-33.7 0.3c0.1 0 0.1 0 0 0z m33.8 0c0.2 0 0.2 0 0 0z m-34 0.3c0.2 0.1 0.2 0.1 0 0z m34.1 0c0.2 0.1 0.2 0.1 0 0z" opacity=".012"></path><path fill="#0605fc" d="m4.9 11.6c0.1 0.1 0.1 0.1 0 0z" opacity=".024"></path><path fill="#0405fe" d="m5.1 11.8c0.2 0 0.2 0 0 0z" opacity=".02"></path><path fill="#0506fc" d="m29.8 12h-0.2c0.1-0.3 0.1-0.3 0.2 0z" opacity=".022"></path><path fill="#0405fe" d="m30.7 11.8c0.1 0 0.1 0 0 0z" opacity=".02"></path><path fill="#0909fc" d="m29.8 12c0.1 0.1 0.1 0.1 0 0z" opacity=".031"></path><path fill="#0504fd" d="m5.5 12.1c0.1 0.1 0.1 0.1 0 0z m24.9 0.1c0-0.1 0-0.1 0 0z" opacity=".012"></path><path fill="#0405fd" d="m5.5 12.2c0 0.1-0.1 0.2-0.2 0.2 0-0.1 0.1-0.2 0.2-0.2z m24.9 0c0.1 0 0.2 0.1 0.1 0.2-0.1 0-0.1-0.1-0.1-0.2z m-25.1 0.2c0.1 0.1 0 0.2 0 0.3-0.1-0.1-0.1-0.2 0-0.3z m25.2 0c0.2 0.1 0.2 0.2 0.1 0.3-0.1-0.1-0.1-0.2-0.1-0.3z m-25.4 0.6c0-0.1 0-0.2 0.1-0.2 0.1 0.1 0 0.1-0.1 0.2z m25.7 0c-0.1-0.1-0.2-0.1-0.1-0.2 0.1 0 0.1 0.1 0.1 0.2z" opacity=".016"></path><path fill="#0405fe" d="m5.1 13c0 0.1 0 0.2 0 0.2-0.1-0.1-0.1-0.2 0-0.2z m25.7 0c0.1 0 0.1 0.1 0 0.2 0 0 0-0.1 0-0.2z m0.1 0.3c0.1 0.1 0.1 0.2 0 0.3 0-0.1 0-0.2 0-0.3z" opacity=".02"></path><path fill="#0607fb" d="m5.3 13.6c-0.2 0.1-0.2 0 0-0.3 0 0.1 0.1 0.2 0 0.3z m25.4 0.1c0-0.1-0.1-0.1-0.2-0.1 0.1-0.3 0.1-0.3 0.3 0 0 0-0.1 0.1-0.1 0.1z" opacity=".012"></path><path fill="#0504fd" d="m0.2 13.7c0.1 0 0.1 0 0 0z" opacity=".012"></path><path fill="#0405fe" d="m31 13.7c0.1 0 0.1 0.1 0.1 0.2-0.1-0.1-0.1-0.1-0.1-0.2z" opacity=".02"></path><path fill="#0504fd" d="m35.6 13.7c0.2 0 0.2 0 0 0z" opacity=".012"></path><path fill="#0406fd" d="m4.7 14c0.2 0.1 0.2 0.2 0.1 0.3-0.1 0-0.2-0.2-0.1-0.3z m26.4 0c0.1 0.1 0.1 0.2 0 0.3-0.1-0.1-0.1-0.2 0-0.3z" opacity=".02"></path><path fill="#0504fd" d="m0.1 14.1c0.1 0.1 0.1 0.1 0 0.2 0 0-0.1-0.1 0-0.2z m35.6 0c0.1 0.1 0.2 0.1 0.1 0.2-0.1 0-0.1-0.1-0.1-0.2z m-35.8 0.5c0.2 0.1 0.2 0.3 0 0.4v-0.4z m36 0v0.4c-0.1-0.1-0.1-0.3 0-0.4z" opacity=".012"></path><path fill="#d8d5ff" d="m33 16.7h0.4v0.3h-0.4c0 0.4 0 0.7 0.1 1.1 0.2 0.1 0.3 0.1 0.5 0l0.2-1.2c0.4-0.3 0.8-0.3 1.2 0.1 0.1 0.4 0.1 0.8 0 1.2-0.2 0.2-0.4 0.4-0.7 0.3v-0.3c0.1 0 0.2 0 0.3-0.1 0.1-0.4 0.1-0.7 0.1-1.1h-0.7c0.1 0.5 0 0.9-0.1 1.3-0.8 0.4-1.2 0.2-1.2-0.7-0.1-0.4 0-0.7 0.3-0.9z"></path><path fill="#8180fd" d="m1 17.4c0.7-0.1 1.4-0.2 2.2-0.1 0 0.1 0 0.3-0.1 0.4v-0.3h-2.1z"></path><path fill="#0506fc" d="m10.9 18.1c-0.2 0-0.3-0.1-0.2-0.3 0.1 0.1 0.1 0.2 0.2 0.3z m14.1 0c0.1-0.1 0.1-0.2 0.2-0.3 0.1 0.2 0 0.3-0.2 0.3z" opacity=".016"></path><path fill="#e9e7ff" d="m1 17.4h2.1v0.3c-0.6 0.2-1.1 0.5-1.7 0.9 0.6 0.2 1.1 0.4 1.7 0.6 0.1 0.1 0.1 0.3 0.1 0.4-0.7 0.1-1.5 0-2.2-0.1 0.6-0.1 1.2-0.1 1.8-0.2-0.6-0.1-1.1-0.3-1.6-0.5-0.2-0.1-0.3-0.3-0.1-0.5 0.5-0.2 0.9-0.4 1.4-0.6-0.5-0.1-1.1-0.1-1.7-0.2 0.1-0.1 0.1-0.1 0.2-0.1z"></path><path fill="#e2e0ff" d="m32.7 19.4c0.1 0.1 0.2 0.2 0.2 0.3-0.1 0.4-0.1 0.7-0.1 1.1h0.7c-0.1-0.4 0-0.8 0.2-1.2 0.1 0.4 0.1 0.9 0 1.3 0.3 0 0.5 0.1 0.8 0.1 0-0.5 0-0.9 0.2-1.3 0.1 0.6 0.1 1.1 0 1.6-0.7-0.1-1.5-0.2-2.2-0.3 0-0.5 0.1-1.1 0.2-1.6z"></path><path fill="#0504fd" d="m-0.1 21c0.2 0.1 0.2 0.2 0 0.3v-0.3z" opacity=".012"></path><path fill="#e1deff" d="m2.8 20.8c0.2-0.1 0.4 0 0.6 0.1 0.2 0.4 0.3 0.9 0.1 1.4-0.1-0.4-0.3-0.8-0.3-1.2-0.2 0-0.5 0-0.7 0.1 0.2 0.4 0.3 0.8 0.1 1.2-0.2-0.3-0.3-0.7-0.3-1.1-0.3 0-0.5 0-0.8 0.1 0.2 0.4 0.3 0.8 0.4 1.2-0.1 0.1-0.2 0.1-0.4 0.1-0.1-0.5-0.2-1.1-0.2-1.6 0.5-0.1 1-0.2 1.5-0.3z"></path><path fill="#0504fd" d="m35.9 21v0.3c-0.1-0.1-0.1-0.2 0-0.3z" opacity=".012"></path><path fill="#0506fd" d="m4.8 22c-0.2-0.2-0.2-0.4 0-0.6 0.1 0.2 0.1 0.4 0 0.6z m26.3 0c0-0.1 0-0.2-0.1-0.2 0-0.1 0-0.3 0-0.4 0.2 0.2 0.3 0.4 0.1 0.6z" opacity=".016"></path><path fill="#0504fd" d="m0.1 21.5c0.1 0.1 0.1 0.2 0 0.4 0-0.1-0.1-0.2 0-0.4z m35.6 0c0.1 0.1 0.2 0.2 0.1 0.4-0.1-0.1-0.1-0.2-0.1-0.4z" opacity=".012"></path><path fill="#0808fc" d="m30.9 21.8h0.1v0.2c-0.1 0-0.1-0.1-0.1-0.2z" opacity=".031"></path><path fill="#0505fc" d="m4.8 22c0.1 0.1 0.1 0.2 0.1 0.3-0.1 0-0.1-0.2-0.1-0.3z m26.2 0h0.1c0 0.1 0 0.3-0.1 0.3v-0.3z" opacity=".018"></path><path fill="#0504fd" d="m0.2 22.1c0.1 0.1 0.1 0.1 0 0.2 0 0 0-0.1 0-0.2z m35.4 0c0.1 0.1 0.1 0.1 0.1 0.2-0.1 0-0.1-0.1-0.1-0.2z" opacity=".012"></path><path fill="#0405fd" d="m4.9 22.3c0.1 0.1 0.1 0.2 0.1 0.4-0.1-0.1-0.1-0.2-0.1-0.4z m26.1 0c0 0.2 0 0.3-0.1 0.4 0-0.2 0-0.3 0.1-0.4z" opacity=".014"></path><path fill="#0405fd" d="m5 22.7c0.1 0 0.1 0.1 0.1 0.2-0.1-0.1-0.1-0.1-0.1-0.2z" opacity=".016"></path><path fill="#0507fc" d="m5.5 22.6v0.2c-0.2-0.1-0.2-0.2 0-0.2z m24.9 0c0.2 0 0.2 0.1 0 0.2v-0.2z" opacity=".02"></path><path fill="#0405fd" d="m30.9 22.7c0 0.1 0 0.1-0.1 0.2-0.1-0.1 0-0.2 0.1-0.2z" opacity=".016"></path><path fill="#0607fb" d="m5.5 22.8h0.1c0 0.1 0 0.1 0.1 0.1v0.2c-0.2 0-0.3-0.1-0.2-0.3z m24.8 0h0.1c0 0.2 0 0.3-0.2 0.3v-0.2c0.1 0 0.1 0 0.1-0.1z" opacity=".012"></path><path fill="#0405fd" d="m5.2 23.2c-0.1 0-0.1-0.1 0-0.2 0 0.1 0 0.1 0 0.2z m25.5 0c-0.1-0.1 0-0.1 0-0.2 0.1 0.1 0.1 0.2 0 0.2z m-25.5 0c0.1 0.1 0.2 0.2 0.1 0.3-0.1-0.1-0.1-0.2-0.1-0.3z" opacity=".016"></path><path fill="#0707fc" d="m5.7 23.1h0.1v0.2c-0.1 0-0.1-0.1-0.1-0.2z m24.4 0h0.1c0 0.1 0 0.2-0.1 0.2v-0.2z" opacity=".024"></path><path fill="#0405fd" d="m30.7 23.2c0 0.1 0 0.2-0.1 0.3-0.1-0.1-0.1-0.2 0.1-0.3z" opacity=".016"></path><path fill="#dfddff" d="m3.9 23.1c0.1 0 0.2 0 0.2 0.1 0.3 0.5 0.4 1 0.4 1.6-1.4 1.2-2.2 0.9-2.3-0.9 0.6-0.2 1.1-0.5 1.7-0.8z"></path><path fill="#0607fb" d="m5.8 23.3h0.1c0 0.3-0.1 0.3-0.1 0z m24.2 0h0.1c0 0.2 0 0.2-0.1 0.3v-0.3z" opacity=".012"></path><path fill="#0405fe" d="m5.3 23.6c0.2 0 0.2 0 0 0z" opacity=".02"></path><path fill="#090afa" d="m29.9 23.6h0.1c0 0-0.1 0-0.1 0z" opacity=".039"></path><path fill="#0405fe" d="m30.4 23.6c0.2 0 0.2 0 0 0z" opacity=".02"></path><path fill="#e2e0ff" d="m32.2 22.1c0.9 0.1 0.9 0.2 0.1 0.5-0.2 0.3-0.2 0.6-0.1 0.9 0.5 0.2 0.9 0.3 1.4 0.3 0.2-0.3 0.3-0.6 0.2-1-0.1 0-0.2 0-0.3 0v-0.4c0.6 0.1 0.8 0.4 0.6 1.1 0 0.4-0.3 0.7-0.7 0.6-1.7 0-2-0.7-1.2-2z"></path><path fill="#0504fd" d="m5.6 24c-0.1 0-0.2-0.1-0.1-0.2 0.1 0.1 0.1 0.1 0.1 0.2z" opacity=".012"></path><path fill="#0708fc" d="m6.1 23.7v0.2c-0.1-0.1-0.1-0.1 0-0.2z m23.7 0h0.1c0 0.1 0 0.2-0.1 0.2v-0.2z" opacity=".031"></path><path fill="#0504fd" d="m30.3 24c0-0.1 0-0.1 0.1-0.2 0.1 0.1 0 0.2-0.1 0.2z" opacity=".012"></path><path fill="#1b17fc" d="m3.5 23.6c0.2-0.1 0.4 0 0.5 0.1 0.5 0.8 0.2 1.3-0.7 1.4-0.2 0.1-0.4 0.1-0.5-0.1-0.2-0.3-0.3-0.6-0.3-0.9 0.4-0.1 0.7-0.3 1-0.5z"></path><path fill="#0504fd" d="m5.6 24c0.1 0.1 0.1 0.1 0.1 0.2-0.1 0-0.2-0.1-0.1-0.2z" opacity=".012"></path><path fill="#0507fd" d="m6.1 23.9h0.1v0.2c-0.1 0-0.1-0.1-0.1-0.2z m23.5 0h0.2c-0.1 0.3-0.1 0.3-0.2 0z" opacity=".02"></path><path fill="#0504fd" d="m30.3 24c0 0.1 0 0.2-0.1 0.2 0-0.1 0-0.1 0.1-0.2z" opacity=".012"></path><path fill="#090afa" d="m6.2 24.1h0.2c-0.1 0.1-0.1 0.1-0.2 0z" opacity=".039"></path><path fill="#0505fc" d="m14.3 24c0.2 2.3 0.2 4.6 0.1 7 0-2.3-0.1-4.5-0.2-6.8l0.1-0.2z m7.2 0l0.2 0.2c-0.1 2.3-0.2 4.5-0.2 6.8-0.1-2.4-0.1-4.7 0-7z" opacity=".012"></path><path fill="#0504fd" d="m0.7 24.2c0.2 0.1 0.2 0.1 0 0z m5 0c0.1 0.1 0.1 0.2 0.1 0.3-0.1-0.1-0.1-0.1-0.1-0.3z m24.5 0c0 0.2 0 0.2-0.1 0.3 0-0.1 0-0.2 0.1-0.3z m4.8 0c0.2 0.1 0.2 0.1 0 0z" opacity=".012"></path><path fill="#0909fc" d="m6.4 24.4c0.1 0 0.1 0 0 0z" opacity=".031"></path><path fill="#0504fd" d="m5.8 24.5c0.1 0 0.1 0 0 0z m24.3 0c-0.1 0-0.1 0 0 0z m-29.3 0.1c0.2 0.1 0.2 0.1 0 0z" opacity=".012"></path><path fill="#2420fd" d="m14.6 5.1c0.1 2.4 0.1 4.8 0 7.2-2-1.1-3.9-2.2-5.9-3.3-0.2-0.1-0.4 0-0.5 0.2l-2.9 5 6.3 3.7c-1.2 0.8-2.5 1.5-3.8 2.3-0.1 0.1-0.3 0.2-0.4 0.3-0.7 0.3-1.4 0.7-2.1 1.2 1 1.7 2 3.5 3.1 5.2 0.1 0.1 0.2 0.1 0.3 0 2-1.2 4-2.3 6-3.4 0.1 2.4 0.1 4.8 0.1 7.3h6.3c0-2.5 0-4.9 0.1-7.3 1.9 1.1 3.8 2.2 5.7 3.3 0.2 0.1 0.4 0.1 0.6 0.1 1.1-1.7 2.1-3.5 3-5.2-0.6-0.5-1.3-0.9-2-1.2-0.1-0.1-0.3-0.2-0.4-0.3-1.3-0.8-2.6-1.5-3.9-2.3l6.3-3.7c-0.9-1.7-2-3.5-3-5.3-0.1-0.1-0.1-0.1-0.2 0-2 1.2-4 2.3-6 3.4-0.1-2.4-0.1-4.8 0-7.2 0 2.3 0 4.7 0.1 7 0.1-0.1 0.1-0.1 0.1-0.2 0.2 0 0.2 0 0.3-0.1 0.5-0.3 1.1-0.6 1.5-0.9 0.2 0 0.3-0.1 0.4-0.3 0.1 0.1 0.2 0 0.2-0.1 0.2 0 0.3 0 0.3-0.2 0.2 0 0.4-0.1 0.5-0.2 0.2 0 0.3-0.1 0.3-0.3 0.2 0 0.4 0 0.5-0.2 0.1 0 0.1 0 0.1-0.1 0.2 0 0.3-0.1 0.4-0.2 0.2 0 0.3-0.1 0.4-0.2 0.1 0 0.2-0.1 0.2-0.2 0.2 0.1 0.3 0 0.3-0.2 0.2 0 0.4-0.1 0.5-0.2h0.2c0.2 0.3 0.3 0.6 0.6 0.9 0 0.1 0 0.2 0.1 0.2 0 0.1 0 0.2 0.1 0.2 0 0.2 0.1 0.3 0.2 0.4 0 0.2 0.1 0.3 0.3 0.4 0.2 0.5 0.4 1 0.7 1.4 0.3 0.5 0.6 1.1 0.9 1.6 0.1 0 0.2 0 0.2 0.1 0 0.2 0.1 0.4 0.2 0.6-2 1.2-4 2.5-6.1 3.6 0.1 0.1 0.1 0.2 0.2 0.2 1.9 1.1 3.8 2.2 5.8 3.3 0.1 0.1 0.1 0.2 0.1 0.4-0.3 0.2-0.4 0.4-0.5 0.8-0.1 0-0.1 0.1-0.1 0.2-0.1 0-0.1 0-0.1 0.1-0.1 0-0.1 0.1-0.1 0.2-0.1 0.1-0.1 0.1-0.1 0.2-0.1 0.1-0.2 0.2-0.1 0.3-0.1 0-0.1 0-0.1 0.1-0.1 0-0.2 0.1-0.2 0.2-0.2 0.2-0.3 0.5-0.4 0.8-0.1 0-0.1 0.1-0.1 0.2-0.2 0.1-0.3 0.2-0.2 0.4-0.1 0-0.2 0.1-0.2 0.2-0.1 0-0.1 0.1-0.1 0.2-0.1 0.1-0.2 0.2-0.2 0.3-0.1 0.1-0.1 0.2-0.1 0.3-0.1 0-0.1 0.1-0.1 0.2-0.2 0.2-0.4 0.5-0.5 0.8-0.1 0.1-0.2 0.1-0.3 0.1-1.3-0.8-2.6-1.6-3.9-2.3-0.2-0.2-0.4-0.3-0.6-0.3-0.2-0.2-0.5-0.4-0.8-0.4-0.1-0.2-0.3-0.4-0.6-0.4 0-0.1 0-0.1-0.1-0.2-0.1 2.4-0.1 4.8-0.1 7.2h-6.7c0-2.4 0-4.8-0.1-7.2-0.1 0.1-0.1 0.1-0.2 0.2-0.2 0-0.4 0.2-0.5 0.4-0.3 0-0.6 0.2-0.8 0.4-0.3 0-0.4 0.1-0.6 0.3-1.3 0.7-2.6 1.5-3.9 2.3-0.1 0-0.2 0-0.3-0.1-0.1-0.3-0.3-0.6-0.5-0.8 0-0.1 0-0.2-0.1-0.2 0-0.1 0-0.2-0.1-0.3 0-0.1-0.1-0.2-0.2-0.3 0-0.1-0.1-0.2-0.2-0.2 0-0.3-0.1-0.5-0.3-0.6 0-0.1 0-0.2-0.1-0.2 0-0.3-0.1-0.4-0.3-0.6 0-0.1-0.1-0.2-0.2-0.2 0.1-0.1 0-0.2-0.1-0.2 0-0.2-0.1-0.3-0.2-0.4 0-0.1 0-0.1-0.1-0.2 0-0.1 0-0.2-0.1-0.2-0.1 0-0.1 0-0.1-0.1 0-0.1 0-0.2-0.1-0.2-0.2-0.4-0.3-0.7-0.5-1l0.1-0.2c2-1.1 3.9-2.2 5.8-3.3 0.2-0.1 0.2-0.1 0.1-0.3-2.1-1.1-4-2.3-6-3.5 0.1-0.3 0.2-0.5 0.3-0.7 0.7-1.1 1.4-2.3 2-3.4 0.1-0.1 0.2-0.2 0.2-0.4 0.1 0 0.1-0.1 0.1-0.2 0.1 0 0.1-0.1 0.1-0.2 0.2-0.2 0.4-0.5 0.5-0.8 0.1-0.1 0.2-0.1 0.3-0.1 0.1 0.1 0.3 0.2 0.4 0.2 0.1 0.2 0.2 0.3 0.4 0.2 0 0.1 0.1 0.2 0.2 0.2 0.1 0.1 0.2 0.2 0.3 0.2 0.2 0.1 0.3 0.2 0.5 0.2 0 0.1 0 0.1 0.1 0.1 0.1 0.2 0.3 0.2 0.5 0.2 0 0.2 0.1 0.3 0.3 0.3 0.1 0.1 0.3 0.2 0.4 0.2 0.1 0.2 0.2 0.2 0.4 0.2 0 0.1 0.1 0.2 0.2 0.1 0.1 0.2 0.2 0.3 0.3 0.3 0.2 0.1 0.3 0.2 0.5 0.2 0.3 0.3 0.7 0.5 1.1 0.7 0.1 0.1 0.1 0.1 0.2 0.1 0.1 0.1 0.1 0.1 0.2 0.2 0.1-2.3 0.1-4.7 0.1-7z m7.5 19.3c0.3 0 0.6 0.2 0.8 0.4-0.3-0.1-0.6-0.2-0.8-0.4z m-8.3 0c-0.2 0.2-0.5 0.3-0.8 0.4 0.2-0.2 0.5-0.4 0.8-0.4z m7.7-0.4c0.3 0 0.5 0.2 0.6 0.4l-0.4-0.2-0.2-0.2z m-7.2 0l-0.1 0.2-0.4 0.2c0.1-0.2 0.3-0.4 0.5-0.4z m12.6-15.3c0 0.2-0.1 0.3-0.3 0.2 0.1-0.1 0.2-0.2 0.3-0.2z m-18 0c0.2 0 0.3 0.1 0.4 0.2-0.2 0.1-0.3 0-0.4-0.2z m14.8 1.9c-0.1 0.2-0.2 0.3-0.4 0.3 0.1-0.2 0.2-0.3 0.4-0.3z m-11.5 0c0.2 0 0.3 0.1 0.3 0.3-0.1 0-0.2-0.1-0.3-0.3z m12-0.3c0 0.2-0.1 0.2-0.3 0.2 0.1-0.1 0.2-0.2 0.3-0.2z m-12.6 0c0.2 0 0.3 0.1 0.4 0.2-0.2 0-0.3 0-0.4-0.2z m13.4-0.5c0 0.2-0.1 0.3-0.3 0.3 0-0.2 0.2-0.3 0.3-0.3z m-14.1 0c0.1 0 0.2 0.1 0.3 0.3-0.2 0-0.3-0.1-0.3-0.3z m15.5-0.7c-0.1 0.1-0.2 0.2-0.4 0.2 0.1-0.2 0.2-0.3 0.4-0.2z m-16.9 0c0.2-0.1 0.3 0 0.3 0.2-0.1 0-0.2-0.1-0.3-0.2z m3.5 15.7c-0.1 0.2-0.3 0.3-0.6 0.3 0.2-0.2 0.3-0.3 0.6-0.3z m9.9 0c0.2 0 0.4 0.1 0.6 0.3-0.3 0-0.5-0.1-0.6-0.3z"></path><path fill="#a5a5fd" d="m14.7 23.5c0-0.1 0-0.1 0.1-0.2 0.1 2.5 0.1 4.9 0.1 7.4h6.1c-0.1-2.5 0-4.9 0.1-7.4 0.1 0.1 0.1 0.1 0.1 0.2-0.1 2.4-0.1 4.8-0.1 7.3h-6.3c0-2.5 0-4.9-0.1-7.3z" opacity=".976"></path><path fill="#efeeff" d="m7.4 20.5c0.1 0 0.3 0 0.4 0.1-0.7 0.4-1.3 0.8-1.9 1.3 0.9 1.5 1.8 3.1 2.7 4.6 2-1.2 4.1-2.4 6.2-3.5 0.2 0 0.3 0.1 0.3 0.2v7.2h5.7v-7.2c0.1-0.2 0.3-0.2 0.5-0.1l6 3.4c0.9-1.5 1.8-3.1 2.7-4.6-0.6-0.5-1.3-0.9-1.9-1.3 0.1-0.1 0.2-0.1 0.4-0.1 0.7 0.3 1.4 0.7 2 1.2-0.9 1.7-1.9 3.5-3 5.2-0.2 0-0.4 0-0.6-0.1-1.9-1.1-3.8-2.2-5.7-3.3 0-0.1 0-0.1-0.1-0.2-0.1 2.5-0.2 4.9-0.1 7.4h-6.1c0-2.5 0-4.9-0.1-7.4-0.1 0.1-0.1 0.1-0.1 0.2-2 1.1-4 2.2-6 3.4-0.1 0.1-0.2 0.1-0.3 0-1.1-1.7-2.1-3.5-3.1-5.2 0.7-0.5 1.4-0.9 2.1-1.2z m14.7 3.9c0.3 0 0.6 0.2 0.8 0.4-0.3-0.1-0.6-0.2-0.8-0.4z m-8.3 0c-0.2 0.2-0.5 0.3-0.8 0.4 0.2-0.2 0.5-0.4 0.8-0.4z m7.7-0.4c0.3 0 0.5 0.2 0.6 0.4l-0.4-0.2-0.2-0.2z m-7.2 0l-0.1 0.2-0.4 0.2c0.1-0.2 0.3-0.4 0.5-0.4z m-1.3 0.8c-0.1 0.2-0.3 0.3-0.6 0.3 0.2-0.2 0.3-0.3 0.6-0.3z m9.9 0c0.2 0 0.4 0.1 0.6 0.3-0.3 0-0.5-0.1-0.6-0.3z"></path><path fill="#bcbcfd" d="m15.1 23.2c0.1 2.4 0.2 4.7 0.1 7.1h5.4c0-2.4 0-4.7 0.2-7.1v7.2h-5.7v-7.2z"></path><path fill="#c5c5fe" d="m27.2 20.1c0.3 0.2 0.6 0.3 0.9 0.1 0.1 0.1 0.3 0.2 0.4 0.3-0.2 0-0.3 0-0.4 0.1h-4.5c-1.1 0-2.3-0.1-3.4-0.2 1.2-0.1 2.3-0.1 3.5-0.2 1.2 0 2.3 0 3.5-0.1z"></path><path fill="#0d0dfc" d="m17.5 16v0.6c0 0.9 0.1 1.8 0.2 2.7 0.2 0.3 0.4 0.4 0.7 0.3 0.1-0.2 0.2-0.5 0.3-0.8 0.1 1.4 0.2 2.7 0.2 4.1 0.2 0.2 0.5 0.3 0.8 0.1 0.3-0.7 0.5-1.4 0.8-2.1l3-0.1c0 0 0.1-0.1 0.1-0.2h4.5c0.6 0.4 1.3 0.8 1.9 1.3-0.9 1.5-1.8 3.1-2.7 4.6l-6-3.4c-0.2-0.1-0.4-0.1-0.5 0.1-0.2 2.4-0.2 4.7-0.2 7.1h-5.4c0.1-2.4 0-4.7-0.1-7.1 0-0.1-0.1-0.2-0.3-0.2-2.1 1.1-4.2 2.3-6.2 3.5-0.9-1.5-1.8-3.1-2.7-4.6 0.6-0.5 1.2-0.9 1.9-1.3h4.6c0 0.1 0.1 0.2 0.1 0.2 1.1 0.1 2.1 0.1 3.1 0.1 0.2 2.8 0.3 5.7 0.5 8.5 0.2 0.3 0.5 0.3 0.8 0.1 0.2-3.9 0.3-7.8 0.4-11.8l0.2-1.7z m4.6 8.4c0.3 0 0.6 0.2 0.8 0.4-0.3-0.1-0.6-0.2-0.8-0.4z m-8.3 0c-0.2 0.2-0.5 0.3-0.8 0.4 0.2-0.2 0.5-0.4 0.8-0.4z m7.7-0.4c0.3 0 0.5 0.2 0.6 0.4l-0.4-0.2-0.2-0.2z m-7.2 0l-0.1 0.2-0.4 0.2c0.1-0.2 0.3-0.4 0.5-0.4z m-1.3 0.8c-0.1 0.2-0.3 0.3-0.6 0.3 0.2-0.2 0.3-0.3 0.6-0.3z m9.9 0c0.2 0 0.4 0.1 0.6 0.3-0.3 0-0.5-0.1-0.6-0.3z"></path><path fill="#bbbbfe" d="m12.4 20.6h-4.6c-0.1-0.1-0.3-0.1-0.4-0.1 0.1-0.1 0.3-0.2 0.4-0.3 0.3 0.2 0.6 0.1 0.9-0.1 1.2 0.1 2.4 0.1 3.6 0.1 1.3 0.1 2.5 0.1 3.8 0.2 0.1 2.2 0.2 4.3 0.4 6.4 0.2-6.6 0.4-13.3 0.7-20 0.4 3.8 0.7 7.6 1 11.5 0.2-1.2 0.4-2.3 0.8-3.4 0.2 2.4 0.3 4.8 0.5 7.2l0.2-0.4c0 0.3-0.1 0.7-0.3 1-0.2-2.3-0.4-4.7-0.5-7-0.2 1.2-0.5 2.3-0.8 3.5-0.3-3.3-0.6-6.7-0.8-10-0.3 6.6-0.5 13.3-0.8 20-0.2-2.9-0.4-5.8-0.6-8.7-1.2 0-2.3 0-3.5 0.1z"></path><path fill="#f4f3ff" d="m17.6 6.7c0.2 3.1 0.4 6.1 0.6 9.2h0.3v-0.9c0.1-0.6 0.4-0.7 0.8-0.3 0.2 1.9 0.3 3.9 0.4 5.8 0.1-0.2 0.2-0.4 0.4-0.5 0.9 0 1.8 0 2.7 0 0.1-0.6 0.1-1.1 0.1-1.7h-2.8c-0.1 0-0.1-0.1-0.2-0.1-0.1-1.1-0.1-2.1 0.1-3.1 1.1-0.1 2.3-0.1 3.5 0 0.3 0.3 0.2 0.5-0.2 0.8-0.9 0-1.8 0-2.7 0v1.6c1 0 1.9 0 2.9 0l0.1 0.2c0.1 0.8 0.1 1.7 0.1 2.5-1.2 0.1-2.3 0.1-3.5 0.2 1.1 0.1 2.3 0.2 3.4 0.2 0 0.1-0.1 0.2-0.1 0.2l-3 0.1c-0.3 0.7-0.5 1.4-0.8 2.1-0.3 0.2-0.6 0.1-0.8-0.1 0-1.4-0.1-2.7-0.2-4.1-0.1 0.3-0.2 0.6-0.3 0.8-0.3 0.1-0.5 0-0.7-0.3 0-0.9 0-1.8-0.2-2.7v-0.6c0-0.3 0-0.6-0.1-0.9l-0.1 0.1c0 0.9 0 1.7 0 2.5-0.1 4-0.2 7.9-0.4 11.8-0.3 0.2-0.6 0.2-0.8-0.1-0.2-2.8-0.3-5.7-0.5-8.5-1 0-2 0-3.1-0.1 0 0-0.1-0.1-0.1-0.2 1.2-0.1 2.3-0.1 3.5-0.1 0.2 2.9 0.4 5.8 0.6 8.7 0.3-6.7 0.5-13.4 0.8-20 0.2 3.3 0.5 6.7 0.8 10 0.3-1.2 0.6-2.3 0.8-3.5 0.1 2.3 0.3 4.7 0.4 7 0.3-0.3 0.4-0.7 0.4-1l-0.2 0.4c-0.2-2.4-0.3-4.8-0.5-7.2-0.4 1.1-0.6 2.2-0.8 3.4-0.3-3.9-0.6-7.7-1-11.5-0.3 6.7-0.5 13.4-0.7 20-0.2-2.1-0.3-4.2-0.4-6.4-1.3-0.1-2.5-0.1-3.8-0.2 0-1.7 0-3.4 0.1-5.1 1.2-0.1 2.4-0.1 3.6 0 0.2 0.3 0.2 0.5-0.1 0.7h-2.8c0 0.6 0 1.2 0.1 1.7 0.8 0 1.5 0 2.3 0 0.3 0.4 0.2 0.6-0.1 0.8h-2.3c0 0.6 0 1.1 0.1 1.7 1-0.1 2 0 3.1 0.1 0.2-4.5 0.4-8.9 0.5-13.4 0.3-0.5 0.5-0.5 0.8 0z"></path><path fill="#0e0efc" d="m20.8 12.7c0.1 0.2 0.3 0.2 0.5 0.1l6-3.4c0.9 1.5 1.8 3.1 2.7 4.6-2 1.2-4 2.4-6 3.5-0.3 0.4-0.2 0.7 0.2 0.9 1 0.6 2 1.2 3 1.7-1.2 0.1-2.3 0.1-3.5 0.1 0-0.8 0-1.7-0.1-2.5l-0.1-0.2c-1 0-1.9 0-2.9 0v-1.6c0.9 0 1.8 0 2.7 0 0.4-0.3 0.5-0.5 0.2-0.8-1.2-0.1-2.4-0.1-3.5 0-0.2 1-0.2 2-0.1 3.1 0.1 0 0.1 0.1 0.2 0.1 0.9 0.1 1.8 0.1 2.7 0.1v1.6c-0.9 0-1.8 0-2.7 0-0.2 0.1-0.3 0.3-0.4 0.5-0.1-1.9-0.2-3.9-0.3-5.8-0.5-0.4-0.8-0.3-0.9 0.3-0.1 0.2-0.1 0.4-0.2 0.6-0.2-3-0.4-6-0.7-8.9-0.3-0.5-0.5-0.5-0.8 0-0.1 4.5-0.3 8.9-0.5 13.4-1.1-0.1-2.1-0.2-3.1-0.1v-1.6c0.8 0 1.5 0 2.2-0.1 0.3-0.2 0.4-0.4 0.1-0.8-0.8 0-1.5 0-2.3 0v-1.6c0.9 0.1 1.8 0 2.7-0.1 0.3-0.2 0.3-0.4 0.1-0.7-1.2-0.1-2.4-0.1-3.6 0-0.1 1.7-0.1 3.4-0.1 5.1-1.2 0-2.4 0-3.6-0.1 1-0.6 2-1.1 2.9-1.7 0.5-0.2 0.6-0.5 0.3-0.8-2.1-1.2-4-2.4-6-3.6 0.9-1.5 1.8-3.1 2.7-4.6l6 3.4c0.2 0.1 0.4 0.1 0.5-0.1 0.1-2.4 0.2-4.7 0.1-7.1h5.4c0 2.4 0 4.7 0.2 7.1z m2.9-2.1c-0.1 0.2-0.2 0.3-0.4 0.3 0.1-0.2 0.2-0.3 0.4-0.3z m-11.5 0c0.2 0 0.3 0.1 0.3 0.3-0.1 0-0.2-0.1-0.3-0.3z m12-0.3c0 0.2-0.1 0.2-0.3 0.2 0.1-0.1 0.2-0.2 0.3-0.2z m-12.6 0c0.2 0 0.3 0.1 0.4 0.2-0.2 0-0.3 0-0.4-0.2z m13.4-0.5c0 0.2-0.1 0.3-0.3 0.3 0-0.2 0.2-0.3 0.3-0.3z m-14.1 0c0.1 0 0.2 0.1 0.3 0.3-0.2 0-0.3-0.1-0.3-0.3z"></path><path fill="#a9a9fe" d="m21.2 12.4c0 0.1 0 0.1-0.1 0.1-0.1-2.4-0.2-4.8-0.1-7.3h-6.1c0 2.5 0 4.9-0.1 7.3-0.1 0-0.1 0-0.1-0.1 0.1-2.4 0.1-4.8 0.1-7.3h6.3c0 2.5 0 4.9 0.1 7.3z" opacity=".977"></path><path fill="#ecebff" d="m21.2 12.4c0.1 0 0.1 0 0.1-0.1 2-1.1 4-2.2 6-3.4 0.1-0.1 0.1-0.1 0.2 0 1 1.8 2.1 3.6 3 5.3l-6.3 3.7c1.3 0.8 2.6 1.5 3.9 2.3-0.3 0.2-0.6 0.1-0.9-0.1-1-0.5-2-1.1-3-1.7-0.4-0.2-0.5-0.5-0.2-0.9 2-1.1 4-2.3 6-3.5-0.9-1.5-1.8-3.1-2.7-4.6l-6 3.4c-0.2 0.1-0.4 0.1-0.5-0.1v-7.2h-5.7v7.2c-0.1 0.2-0.3 0.2-0.5 0.1l-6-3.4c-0.9 1.5-1.8 3.1-2.7 4.6 2 1.2 3.9 2.4 6 3.5 0.3 0.4 0.2 0.7-0.3 0.9-0.9 0.6-1.9 1.1-2.9 1.7-0.3 0.2-0.6 0.3-0.9 0.1 1.3-0.8 2.6-1.5 3.8-2.3l-6.3-3.7 2.9-5c0.1-0.2 0.3-0.3 0.5-0.2 2 1.1 3.9 2.2 5.9 3.3 0 0.1 0 0.1 0.1 0.1 0 0.1 0 0.1 0.1 0.1 0.1-2.4 0.1-4.8 0.1-7.3h6.1c-0.1 2.5 0 4.9 0.1 7.3 0.1 0 0.1 0 0.1-0.1z m2.5-1.8c-0.1 0.2-0.2 0.3-0.4 0.3 0.1-0.2 0.2-0.3 0.4-0.3z m-11.5 0c0.2 0 0.3 0.1 0.3 0.3-0.1 0-0.2-0.1-0.3-0.3z m12-0.3c0 0.2-0.1 0.2-0.3 0.2 0.1-0.1 0.2-0.2 0.3-0.2z m-12.6 0c0.2 0 0.3 0.1 0.4 0.2-0.2 0-0.3 0-0.4-0.2z m13.4-0.5c0 0.2-0.1 0.3-0.3 0.3 0-0.2 0.2-0.3 0.3-0.3z m-14.1 0c0.1 0 0.2 0.1 0.3 0.3-0.2 0-0.3-0.1-0.3-0.3z m15.5-0.7c-0.1 0.1-0.2 0.2-0.4 0.2 0.1-0.2 0.2-0.3 0.4-0.2z m-16.9 0c0.2-0.1 0.3 0 0.3 0.2-0.1 0-0.2-0.1-0.3-0.2z"></path><path fill="#a5a4fd" d="m20.1 18.3h2.8c0 0.6 0 1.1-0.1 1.7v-1.6c-0.9 0-1.8 0-2.7-0.1z"></path><path fill="#9697fd" d="m15.4 18.3c-0.7 0.1-1.4 0.1-2.2 0.1v1.6c-0.1-0.6-0.1-1.1-0.1-1.7h2.3z"></path><path fill="#b9b6fe" d="m17.5 16.6c0.2 0.9 0.2 1.8 0.2 2.7-0.1-0.9-0.2-1.8-0.2-2.7z"></path><path fill="#a8a6fd" d="m17.5 16l-0.2 1.7c0-0.8 0-1.6 0-2.5l0.1-0.1c0.1 0.3 0.1 0.6 0.1 0.9z"></path><path fill="#8889fd" d="m15.9 15.8c-0.9 0.1-1.8 0.2-2.7 0.1v1.6c-0.1-0.5-0.1-1.1-0.1-1.7h2.8z"></path><path fill="#0605fc" d="m22.6 11.1c0.1 0.1 0.1 0.1 0 0z m-9.4 0c0.2 0.1 0.2 0.1 0 0z" opacity=".024"></path><path fill="#0909fc" d="m13 11c0.1 0 0.1 0 0 0z" opacity=".031"></path><path fill="#0607fc" d="m25.6 9.5c-0.1 0-0.1 0-0.1 0.1-0.3 0-0.3-0.1 0-0.2 0 0 0.1 0 0.1 0.1z m-15.3 0c0.1-0.1 0.2-0.1 0.3 0.1 0 0-0.1 0-0.2 0-0.1 0-0.1 0-0.1-0.1z" opacity=".012"></path><path fill="#bfbafe" d="m17.6 6.7c0.3 2.9 0.5 5.9 0.7 8.9 0.1-0.2 0.1-0.4 0.2-0.6v0.9h-0.3c-0.2-3.1-0.4-6.1-0.6-9.2z"></path><path fill="#b8b8fe" d="m20.8 12.7c-0.2-2.4-0.2-4.7-0.2-7.1h-5.4c0.1 2.4 0 4.7-0.1 7.1v-7.2h5.7v7.2z"></path><path fill="#3334fc" d="m15.4 5.7h5.1c0.1 2.3 0 4.6 0 7-0.1-2.3-0.1-4.6-0.1-6.9h-4.9c0 2.3 0 4.6-0.1 6.9 0-2.4-0.1-4.7 0-7z"></path><path fill="#0504fd" d="m34.9 24.6c0.2 0.1 0.2 0.1 0 0z m-29 0.1c0.2 0.1 0.2 0.1 0 0z m24 0c0.1 0.1 0.1 0.1 0 0z m-28.9 0.1c0.1 0.1 0.1 0.1 0 0z" opacity=".012"></path><path fill="#0606fc" d="m6.7 24.7v0.2c-0.2-0.1-0.2-0.1 0-0.2z m22.5 0c0.1 0.1 0.1 0.1 0 0.2v-0.2z" opacity=".012"></path><path fill="#0504fd" d="m34.8 24.8c0.2 0.1 0.2 0.1 0 0z m-28.8 0.1c0.2 0.1 0.2 0.1 0 0z" opacity=".012"></path><path fill="#0605fc" d="m6.7 24.9h0.1c0 0.1-0.1 0.1-0.1 0z m22.4 0h0.1c0 0.1-0.1 0.1-0.1 0z" opacity=".024"></path><path fill="#0504fd" d="m29.8 24.9c0.1 0.1 0.1 0.1 0 0z" opacity=".012"></path><path fill="#dbd8fe" d="m31.1 24.7c0.7 0.2 1.4 0.6 2 1-0.2 0.1-0.4 0.1-0.6 0l-1.2-0.6c-0.1-0.1-0.2-0.2-0.2-0.4z"></path><path fill="#0504fd" d="m1.2 25.3c-0.1-0.1-0.2-0.2-0.1-0.3 0.1 0.1 0.1 0.2 0.1 0.3z m33.5 0c0-0.1 0-0.2 0.1-0.3 0 0.1 0 0.2-0.1 0.3z" opacity=".012"></path><path fill="#0405fe" d="m6.8 25.1c0.2 0.1 0.2 0.1 0 0z m22.2 0c0.1 0.1 0.1 0.1 0 0z" opacity=".02"></path><path fill="#0504fd" d="m1.2 25.3c0.1 0 0.1 0.1 0.1 0.2-0.1-0.1-0.1-0.1-0.1-0.2z" opacity=".012"></path><path fill="#0405fe" d="m12.3 25.3c0.2 0 0.2 0 0 0z m11.2 0c0.1 0 0.1 0 0 0z" opacity=".02"></path><path fill="#0405fd" d="m28.9 25.3h0.1c0 0.1 0 0.1-0.1 0.2v-0.2z" opacity=".016"></path><path fill="#0504fd" d="m34.7 25.3c0 0.1 0 0.1-0.1 0.2 0-0.1 0-0.2 0.1-0.2z m-28.5 0.1c0.2 0 0.2 0 0 0z" opacity=".012"></path><path fill="#0405fd" d="m12.1 25.5c0-0.1 0.1-0.2 0.2-0.1 0 0.1-0.1 0.1-0.2 0.1z" opacity=".016"></path><path fill="#0405fe" d="m23.8 25.5c-0.1-0.2-0.1-0.2 0 0z" opacity=".02"></path><path fill="#0504fd" d="m29.6 25.5c0-0.2 0-0.2 0 0z m-28.3 0c0.1 0 0.1 0.1 0.1 0.2-0.1 0-0.1-0.1-0.1-0.2z" opacity=".012"></path><path fill="#0405fe" d="m7.1 25.5c0 0.1 0 0.1 0 0z" opacity=".02"></path><path fill="#0504fd" d="m11.9 25.6c0-0.1 0.1-0.1 0.2-0.1 0 0.1-0.1 0.1-0.2 0.1z m11.9-0.1c0.1 0 0.2 0 0.2 0.1-0.1 0-0.2 0-0.2-0.1z" opacity=".012"></path><path fill="#0405fe" d="m28.7 25.5h0.2c-0.1 0.1-0.1 0.1-0.2 0z" opacity=".02"></path><path fill="#0504fd" d="m34.6 25.5c0 0.1 0 0.2-0.1 0.2 0-0.1 0-0.2 0.1-0.2z" opacity=".012"></path><path fill="#0405fe" d="m11.9 25.6c-0.1 0.1-0.1 0.1 0 0z m12.1 0c0.2 0.1 0.2 0.1 0 0z" opacity=".02"></path><path fill="#0504fd" d="m1.4 25.7c0.1 0 0.1 0.1 0.1 0.2-0.1 0-0.1-0.1-0.1-0.2z m5.1 0c0.1 0.1 0.1 0.1 0 0z" opacity=".012"></path><path fill="#0405fe" d="m7.3 25.7c-0.1 0.1-0.1 0.1 0 0z m4.2 0c0.2 0.1 0.2 0.1 0 0z m12.9 0.1c-0.1-0.1-0.1-0.1 0 0z m4.2-0.1c0.2 0.1 0.2 0.1 0 0z" opacity=".02"></path><path fill="#0504fd" d="m34.5 25.7c0 0.1 0 0.2-0.1 0.2-0.1-0.1 0-0.2 0.1-0.2z" opacity=".012"></path><path fill="#0405fd" d="m11.3 25.9c0-0.1 0.1-0.1 0.2-0.1 0 0.1-0.1 0.2-0.2 0.1z m13.1-0.1c0.1 0 0.1 0 0.2 0.1-0.1 0.1-0.2 0-0.2-0.1z" opacity=".016"></path><path fill="#0504fd" d="m1.5 25.9c0.1 0.1 0.2 0.1 0.1 0.3-0.1-0.1-0.1-0.2-0.1-0.3z m5.9 0.1c-0.1-0.1-0.1-0.1 0 0z m3.7 0c0-0.1 0.1-0.1 0.2-0.1 0 0.1-0.1 0.2-0.2 0.1z m13.5-0.1c0.1 0 0.2 0 0.2 0.1-0.1 0.1-0.2 0-0.2-0.1z m3.9 0c0.2 0.1 0.2 0.1 0 0z m5.9 0c0 0.1 0 0.2-0.1 0.3-0.1-0.2 0-0.2 0.1-0.3z" opacity=".012"></path><path fill="#0405fe" d="m6.8 26.2c-0.1-0.2-0.1-0.2 0 0z" opacity=".02"></path><path fill="#0504fd" d="m7.4 26h0.1c0 0.1-0.1 0.1-0.1 0z m3.7 0c-0.1 0.1-0.1 0.1 0 0z m13.7 0c0.2 0.1 0.2 0.1 0 0z m3.6 0h0.1c0 0.2 0 0.2-0.1 0.3v-0.3z m-26.8 0.2c0.1 0 0.2 0.1 0.1 0.2-0.1-0.1-0.1-0.1-0.1-0.2z m5.2 0c0.2 0 0.2 0 0 0z m3.9 0c0.2 0 0.2 0 0 0z m14.4 0.1c0-0.2 0-0.2 0 0z m3.9-0.1c0.1 0 0.1 0 0 0z m5.3 0c0 0.1-0.1 0.1-0.2 0.2 0-0.1 0.1-0.2 0.2-0.2z m-26.7 0.1c-0.1 0-0.1 0 0 0z m2.9 0.1c0.1-0.1 0.1-0.2 0.2-0.1 0 0.1-0.1 0.1-0.2 0.1z m14.6-0.1c0.2-0.1 0.2 0 0.3 0.1-0.1 0-0.2 0-0.3-0.1z m3.2 0h0.1c0 0-0.1 0-0.1 0z m-26.6 0.1c0.1 0 0.2 0.1 0.2 0.2-0.1 0-0.2-0.1-0.2-0.2z m8.8 0c-0.1 0.1-0.1 0.1 0 0z m14.9 0c0.1 0.1 0.1 0.1 0 0z m8.7 0c0.1 0.1 0 0.2-0.1 0.2 0-0.1 0-0.2 0.1-0.2z m-26.4 0.1c-0.1 0.1-0.1 0.1 0 0z m2.5 0c0.1 0.1 0.1 0.1 0 0z m15.4 0c0.1 0.1 0.1 0.1 0 0z m2.6 0c0.1 0.1 0.1 0.1 0 0z" opacity=".012"></path><path fill="#0405fd" d="m1.9 26.6c0.1 0 0.1 0.1 0.1 0.2-0.1 0-0.2-0.1-0.1-0.2z" opacity=".016"></path><path fill="#0504fd" d="m10 26.6c0.1 0.1 0.1 0.1 0 0z m15.8 0c0.2 0.1 0.2 0.1 0 0z" opacity=".012"></path><path fill="#0405fd" d="m34 26.6c0.1 0.1 0 0.2-0.1 0.2 0-0.1 0-0.2 0.1-0.2z" opacity=".016"></path><path fill="#e2e0ff" d="m5.2 25.8c0.3 0.1 0.3 0.2 0 0.4-0.5 0.3-1 0.6-1.5 1-0.2-0.2-0.2-0.3 0-0.4 0.5-0.3 1-0.6 1.5-1z"></path><path fill="#0405fe" d="m2 26.8c0.1 0.1 0.1 0.1 0 0z m31.9 0c-0.1 0.1-0.1 0.1 0 0z m-31.8 0.3c0.1 0 0.1 0 0 0z m31.6 0c0.1 0 0.1 0 0 0z" opacity=".02"></path><path fill="#0504fd" d="m7.9 27.2c0.2 0 0.2 0 0 0z m19.9 0c0.2 0 0.2 0 0 0z m-19.3 0.2c0.1 0.1 0.1 0.1 0 0z m18.9 0c-0.1 0.1-0.1 0.1 0 0z" opacity=".012"></path><path fill="#e3e1ff" d="m30.4 25.8c0.2 0 0.3 0.1 0.4 0.2l1 1.5c0.1 0.2 0.1 0.3 0 0.4-0.8-0.1-1.5-0.3-2.2-0.5l-0.1-0.1 0.3-0.1c0.6 0.1 1.2 0.2 1.8 0.4-0.4-0.5-0.8-1-1.1-1.4-0.1-0.2-0.1-0.3-0.1-0.4z"></path><path fill="#0505fc" d="m33.1 27.8c0.3-0.1 0.3 0 0.1 0.3-0.1-0.1-0.1-0.2-0.1-0.3z" opacity=".017"></path><path fill="#e2e1fe" d="m5.9 27.2c0.6 0.1 1 0.4 1.1 1 0 0.3-0.1 0.4-0.3 0.5-0.1-0.2-0.1-0.4 0.1-0.5-0.2-0.6-0.6-0.8-1.1-0.5-0.3 0.2-0.5 0.5-0.7 0.8 0.1 0.2 0.2 0.5 0.5 0.6 0.2 0.1 0.3 0.1 0.5-0.1 0.1 0.1 0.2 0.2 0 0.4-0.4 0.2-0.8 0.1-1.1-0.3-0.2-0.3-0.3-0.6-0.2-0.9 0.4-0.4 0.8-0.8 1.2-1z"></path><path fill="#0606fc" d="m3.2 28.5c0.1 0 0.1 0.1 0.1 0.1 0 0.3-0.1 0.3-0.2 0 0 0 0-0.1 0.1-0.1z" opacity=".016"></path><path fill="#0504fd" d="m9.4 28.9c0.1 0 0.1 0 0 0z m0.3 0.2c0-0.2 0-0.2 0 0z m16.5-0.1c0.1 0 0.1 0 0 0z" opacity=".012"></path><path fill="#e5e4ff" d="m28.7 28.1c0.5 0.1 0.8 0.4 0.9 0.9 0.4 0 0.7 0.2 0.8 0.5l-0.1 0.1c-0.2-0.2-0.5-0.3-0.8-0.3-0.2 0.1-0.4 0.3-0.5 0.6 0.1 0.2 0.3 0.4 0.5 0.6-0.1 0.1-0.2 0.2-0.3 0.1l-1.5-1.5c0.4-0.3 0.7-0.7 1-1z"></path><path fill="#241dfc" d="m28.9 28.4c0.2 0.1 0.4 0.2 0.5 0.5-0.3 0.9-0.7 0.9-1.2 0.2 0.2-0.3 0.4-0.5 0.7-0.7z"></path><path fill="#0506fc" d="m3.5 29c0.1 0 0.2 0 0.2 0.1-0.1 0.3-0.1 0.3-0.3 0 0-0.1 0.1-0.1 0.1-0.1z" opacity=".017"></path><path fill="#0504fd" d="m9.7 29.1c0.2 0.1 0.2 0.1 0 0z m16.5 0v0.1c-0.1-0.1-0.1-0.1 0-0.1z" opacity=".012"></path><path fill="#0506fc" d="m32.3 29c0.2 0.1 0.2 0.2 0 0.3-0.1-0.1-0.1-0.1-0.1-0.2 0.1 0 0.1-0.1 0.1-0.1z" opacity=".017"></path><path fill="#0504fd" d="m10.1 29.3c-0.1-0.1-0.1-0.1 0 0z m15.7-0.1c0.2 0.1 0.2 0.1 0 0z m-15.7 0.1c0.1 0 0.2 0 0.2 0.1-0.1 0-0.2 0-0.2-0.1z m15.7 0c-0.1 0.1-0.1 0.1 0 0z m-15.5 0.1c0.1 0 0.1 0.1 0.1 0.1l-0.1-0.1z m15.2 0c0.1 0.1 0.1 0.1 0 0z m-15.1 0.1c0.1 0 0.2 0 0.2 0.1-0.1 0.1-0.2 0-0.2-0.1z m14.9 0.1c0-0.1 0.1-0.1 0.2-0.1-0.1 0.1-0.1 0.2-0.2 0.1z" opacity=".012"></path><path fill="#090afa" d="m31.9 29.5c0.1 0.1 0.1 0.1 0 0z" opacity=".039"></path><path fill="#0504fd" d="m10.6 29.6c0.2 0.1 0.2 0.1 0 0z m14.7 0c-0.1 0.1-0.1 0.1 0 0z" opacity=".012"></path><path fill="#0506fc" d="m4.1 29.6c0.1 0 0.1 0.1 0.1 0.2 0 0.2-0.1 0.2-0.2 0 0-0.1 0-0.1 0.1-0.2z" opacity=".018"></path><path fill="#0504fd" d="m11 29.9c-0.1-0.2-0.1-0.2 0 0z m13.9-0.1c0.2 0 0.2 0 0 0z" opacity=".012"></path><path fill="#0506fc" d="m31.8 29.6h0.1c-0.1 0.4-0.1 0.4-0.2 0.2 0 0 0.1-0.1 0.1-0.2z" opacity=".017"></path><path fill="#0504fd" d="m11 29.9c0.1-0.1 0.2 0 0.2 0.1-0.1 0-0.2 0-0.2-0.1z m13.7 0.1c0-0.1 0.1-0.2 0.2-0.1 0 0.1-0.1 0.1-0.2 0.1z" opacity=".012"></path><path fill="#0405fd" d="m11.2 30c0.1 0 0.2 0 0.2 0.1-0.1 0-0.2 0-0.2-0.1z m13.3 0.1c0-0.1 0.1-0.1 0.2-0.1 0 0.1-0.1 0.1-0.2 0.1z" opacity=".016"></path><path fill="#e4e2ff" d="m8.4 29.3c0.2 0.1 0.3 0.2 0.3 0.5-0.2 0.6-0.5 1.3-0.8 2-0.1-0.2-0.1-0.5 0-0.7-0.2-0.2-0.4-0.4-0.6-0.6-0.3 0-0.5 0-0.7 0.2l-0.1-0.2c0.6-0.4 1.2-0.8 1.9-1.2z"></path><path fill="#2e25fc" d="m8.2 29.8c0.1-0.1 0.1 0 0.2 0.1-0.1 0.9-0.4 1.1-1 0.4 0.3-0.2 0.5-0.3 0.8-0.5z"></path><path fill="#0405fd" d="m11.4 30.1c0.1 0 0.2 0 0.2 0.1-0.1 0-0.1 0-0.2-0.1z m12.8 0.1c0.1-0.1 0.2-0.1 0.3-0.1-0.1 0.1-0.1 0.1-0.3 0.1z m-12.6 0c0.2 0 0.2 0 0.3 0.1-0.1 0-0.2 0-0.3-0.1z m12.4 0.1c0.1-0.1 0.1-0.1 0.2-0.1 0 0.1-0.1 0.1-0.2 0.1z m-12.1 0c0.1 0 0.2 0 0.2 0.1-0.1 0.1-0.2 0-0.2-0.1z m11.9 0.1c0-0.1 0.1-0.1 0.2-0.1 0 0.1-0.1 0.2-0.2 0.1z" opacity=".016"></path><path fill="#0a0afd" d="m31.2 30.3c0.2 0.1 0.2 0.1 0 0z" opacity=".051"></path><path fill="#0405fd" d="m12.1 30.4c0.1 0 0.2 0 0.2 0.1-0.1 0.1-0.2 0-0.2-0.1z m11.5 0.1c0-0.1 0.1-0.1 0.2-0.1 0 0.1-0.1 0.2-0.2 0.1z" opacity=".016"></path><path fill="#0a0afd" d="m31.1 30.4h0.1c0 0.1 0 0.1-0.1 0z" opacity=".051"></path><path fill="#0405fe" d="m12.3 30.5c0.1 0 0.2 0.1 0.2 0.2-0.1 0-0.1-0.1-0.2-0.2z m11 0.2c0.1-0.1 0.2-0.2 0.3-0.2-0.1 0.1-0.1 0.2-0.3 0.2z" opacity=".02"></path><path fill="#0a0afd" d="m31 30.5h0.1c0 0.1-0.1 0.1-0.1 0z" opacity=".051"></path><path fill="#0505fc" d="m12.5 30.7c0.2-0.1 0.3 0 0.4 0.1-0.2 0-0.3 0-0.4-0.1z m10.5 0.1c0.1-0.1 0.2-0.2 0.3-0.1 0 0.1-0.1 0.1-0.3 0.1z" opacity=".016"></path><path fill="#0a0afd" d="m30.9 30.7h0.1c0 0-0.1 0-0.1 0z" opacity=".051"></path><path fill="#0506fc" d="m12.9 30.8c0.1-0.1 0.2 0 0.2 0.1-0.1 0-0.2 0-0.2-0.1z m9.9 0.1c0-0.1 0.1-0.2 0.2-0.1 0 0.1-0.1 0.1-0.2 0.1z" opacity=".022"></path><path fill="#0a0afd" d="m30.8 30.8h0.1c0 0-0.1 0-0.1 0z" opacity=".051"></path><path fill="#0607fc" d="m13.1 30.9c0.2 0 0.3 0 0.3 0.1-0.1 0-0.2 0-0.3-0.1z m9.3 0.1c0.1-0.1 0.2-0.1 0.4-0.1-0.1 0.1-0.2 0.1-0.4 0.1z" opacity=".031"></path><path fill="#e3e1ff" d="m26.8 29.8c0.1 0 0.2 0 0.3 0.1-0.4 0.3-0.7 0.6-0.9 0.9l0.3 0.4 1-0.7 0.1 0.2c-0.3 0.3-0.6 0.5-1 0.8 0.2 0.2 0.3 0.3 0.5 0.5 0.3-0.2 0.7-0.4 1-0.7l0.1 0.2c-0.4 0.4-0.8 0.7-1.2 1-0.5-0.6-0.9-1.2-1.3-1.8 0.4-0.3 0.8-0.6 1.1-0.9z"></path><path fill="#0a0afd" d="m30.7 30.9h0.1c-0.1 0.1-0.1 0.1-0.1 0z" opacity=".051"></path><path fill="#0608fc" d="m13.4 31c0.2 0 0.3 0 0.4 0.1-0.2 0-0.3 0-0.4-0.1z m8.7 0.1c0.1-0.1 0.2-0.1 0.3-0.1 0 0.1-0.1 0.1-0.3 0.1z" opacity=".031"></path><path fill="#0a0afd" d="m30.5 31h0.2c-0.1 0.1-0.1 0.1-0.2 0z" opacity=".051"></path><path fill="#0606fc" d="m13.8 31.1c0.2 0 0.3 0 0.4 0.1-0.1 0-0.3 0-0.4-0.1z" opacity=".018"></path><path fill="#0506fc" d="m21.7 31.2c0.1-0.1 0.2-0.1 0.4-0.1-0.1 0.1-0.3 0.1-0.4 0.1z" opacity=".012"></path><path fill="#0a0afd" d="m30.4 31.1h0.1c0 0.1 0 0.1-0.1 0z" opacity=".051"></path><path fill="#0505fc" d="m14.2 31.2h7.5c-0.3 0.2-0.6 0.3-0.9 0.2-1.9-0.1-3.8-0.1-5.7 0-0.3 0.1-0.6 0-0.9-0.2z" opacity=".013"></path><path fill="#0a0afd" d="m30.3 31.2h0.1c0 0.1 0 0.1-0.1 0z" opacity=".051"></path><path fill="#0606fc" d="m15.1 31.4c0.2 0 0.4 0 0.6 0.2-0.2 0-0.4 0-0.6-0.2z" opacity=".018"></path><path fill="#0707fc" d="m20.2 31.6c0.2-0.2 0.3-0.2 0.6-0.2-0.2 0.2-0.4 0.2-0.6 0.2z m-4.5 0c0.3-0.1 0.6 0 0.9 0.1-0.3 0-0.6 0-0.9-0.1z m3.6 0.1c0.3-0.1 0.6-0.2 0.9-0.1-0.3 0.1-0.6 0.1-0.9 0.1z" opacity=".031"></path><path fill="#0506fc" d="m6.1 31.7c0.1 0 0.1 0 0.1 0.1 0.1 0 0.2 0 0.2 0.1-0.2 0.1-0.4 0.1-0.5-0.2 0.1 0 0.1 0 0.2 0z" opacity=".018"></path><path fill="#0504fd" d="m16.6 31.7c0.1 0 0.1 0 0 0z m2.7 0c-0.1 0-0.1 0 0 0z" opacity=".012"></path><path fill="#0506fd" d="m29.8 31.7c0.2 0.1 0.2 0.2-0.2 0.3 0 0-0.1 0-0.1-0.1 0.1 0 0.1 0 0.1-0.1 0.1 0 0.2-0.1 0.2-0.1z" opacity=".017"></path><path fill="#dedcff" d="m10.1 30.7c0.2 0 0.2 0.1 0.1 0.3-0.2 0.4-0.5 0.8-0.7 1.3 0.2 0.2 0.5 0.5 0.8 0.6 0.1 0.1 0.1 0.2 0 0.3-0.4-0.2-0.9-0.5-1.2-0.7 0.3-0.6 0.6-1.2 1-1.8z"></path><path fill="#0405fd" d="m16.9 35.9h-0.1c0.1-5.4 0.1-5.4 0.1 0z m2.2 0h-0.1c0-5.4 0-5.4 0.1 0z" opacity=".019"></path><path fill="#e0ddff" d="m24.1 31.3c0.4 0 0.7 0.1 0.9 0.4l-0.1 0.1c-0.5-0.3-0.9-0.2-1.2 0.3 0 0.2 0.1 0.3 0.3 0.4 0.4-0.2 0.8-0.3 1.3-0.2 0.5 0.7 0.3 1.2-0.6 1.3-0.4 0.2-0.7 0.1-0.9-0.4l0.2-0.1c0.1 0.1 0.2 0.3 0.4 0.4 0.2-0.1 0.5-0.2 0.7-0.4 0.2-0.3 0.1-0.5-0.2-0.6-0.4 0.2-0.8 0.3-1.2 0.2-0.3-0.2-0.4-0.5-0.3-0.9 0.3-0.2 0.5-0.3 0.7-0.5z"></path><path fill="#0405fe" d="m8.3 33.5c-0.1-0.2-0.1-0.2 0 0z m19.3-0.1c0.2 0 0.2 0 0 0z" opacity=".02"></path><path fill="#0405fd" d="m8.3 33.5c0.1-0.1 0.2 0 0.2 0.1-0.1 0-0.2 0-0.2-0.1z m19.1 0.1c0-0.1 0.1-0.2 0.2-0.1 0 0.1-0.1 0.1-0.2 0.1z" opacity=".016"></path><path fill="#0405fe" d="m8.5 33.6c0.1 0 0.1 0 0.1 0.1l-0.1-0.1z m18.9 0c-0.1 0.1-0.1 0.1 0 0z" opacity=".02"></path><path fill="#0405fd" d="m8.6 33.7c0.1 0 0.2 0 0.2 0.1-0.1 0-0.2 0-0.2-0.1z m18.5 0.1c0-0.1 0.1-0.1 0.2-0.1-0.1 0.1-0.1 0.1-0.2 0.1z" opacity=".016"></path><path fill="#0504fd" d="m8.8 33.8c0.1 0 0.2 0 0.3 0.1-0.2 0-0.2 0-0.3-0.1z m18 0.1c0.1-0.1 0.1-0.1 0.3-0.1-0.1 0.1-0.2 0.1-0.3 0.1z m-17.7 0c0.1 0.1 0.1 0.1 0 0z m17.7 0c0 0.1 0 0.1 0 0z m-17.5 0.1c0.1 0.1 0.1 0.1 0 0z m17.2 0c0.1 0.1 0.1 0.1 0 0z m-16.9 0.3c-0.1-0.2-0.1-0.2 0 0z m16.7-0.2c0.1 0.1 0.1 0.1 0 0z m-16.7 0.2c0.1-0.1 0.2 0 0.2 0.1-0.1 0-0.1 0-0.2-0.1z m16.4 0.1c0.1-0.1 0.2-0.2 0.3-0.1-0.1 0.1-0.1 0.1-0.3 0.1z m-16.2 0c0.1 0 0.2 0 0.3 0-0.1 0.1-0.2 0.1-0.3 0z m16 0.1c0.1-0.1 0.1-0.2 0.2-0.1 0 0.1-0.1 0.1-0.2 0.1z m-15.6 0c0.1 0.1 0.1 0.1 0 0z m15.6 0c0 0.1-0.1 0.1-0.2 0 0.1 0 0.1 0 0.2 0z m-15.4 0.1c0.2 0.1 0.2 0.1 0 0z m15 0c0.1 0.1 0.1 0.1 0 0z m-14.8 0.1c0.2 0.1 0.2 0.1 0 0z m14.5 0c0.2 0.1 0.2 0.1 0 0z m-14.2 0.1c0.1 0.1 0.1 0.1 0 0z m14 0c0.2 0.1 0.2 0.1 0 0z m-11.2 0.8c-0.1 0.1-0.2 0.1-0.3 0.1 0.1-0.1 0.2-0.1 0.3-0.1z m8.5 0c0.1 0 0.2 0 0.2 0.1-0.1 0-0.1 0-0.2-0.1z m-8.3 0.2c0-0.1 0.1-0.1 0.2 0 0 0-0.1 0-0.2 0z m7.9 0c0-0.1 0.1-0.1 0.2 0-0.1 0-0.1 0-0.2 0z m-7.5 0.1c0.2-0.1 0.3-0.1 0.4 0h-0.4z m6.9 0c0.1-0.1 0.2-0.1 0.3 0h-0.3z" opacity=".012"></path></svg>