<?xml version="1.0"?><svg xmlns="http://www.w3.org/2000/svg" width="36" height="36" shape-rendering="geometricPrecision" text-rendering="geometricPrecision" image-rendering="optimizeQuality" fill-rule="evenodd" clip-rule="evenodd" viewBox="0 0 36 36"><path fill="#6800c4" d="m17.3 3.7l2.1 2.1c-0.6 0-1.2-0.1-1.8-0.1-0.6-0.7-1.2-1.3-1.9-1.8 0.5-0.1 1.1-0.2 1.6-0.2z" opacity=".954"></path><path fill="#6500cb" d="m17.3 3.7c0.7-0.1 1.3 0 2 0.1l2.7 2.6c-0.8-0.3-1.7-0.5-2.6-0.6l-2.1-2.1z" opacity=".947"></path><path fill="#6100d1" d="m19.3 3.8c0.6 0 1.2 0.1 1.8 0.2 1.5 1.4 2.9 2.8 4.4 4.2-1.1-0.7-2.3-1.3-3.5-1.8l-2.7-2.6z" opacity=".936"></path><path fill="#6b00be" d="m15.7 3.9c0.7 0.5 1.3 1.1 1.9 1.8-0.5 0.1-1 0.1-1.5 0.1-0.6-0.5-1.2-1.1-1.8-1.7 0.5-0.1 0.9-0.2 1.4-0.2z" opacity=".957"></path><path fill="#5f00d7" d="m21.1 4c0.8 0.2 1.5 0.4 2.2 0.7 2 1.9 4 3.8 6 5.6-0.2 0.4-0.6 0.5-1.2 0.4-0.2-0.3-0.5-0.6-0.8-0.8-0.6-0.6-1.2-1.1-1.8-1.7-1.5-1.4-2.9-2.8-4.4-4.2z" opacity=".971"></path><path fill="#6f00b8" d="m14.3 4.1c0.6 0.6 1.2 1.2 1.8 1.7-0.4 0.1-0.9 0.3-1.4 0.4-0.2-0.4-0.6-0.7-1-0.9-0.3-0.2-0.5-0.4-0.8-0.7 0.4-0.2 0.9-0.4 1.4-0.5z" opacity=".946"></path><path fill="#7200b1" d="m12.9 4.6c0.3 0.3 0.5 0.5 0.8 0.7l0.8 0.9c-0.5 0.2-1 0.4-1.5 0.6-0.5-0.5-1.1-1-1.5-1.6 0.4-0.3 0.9-0.5 1.4-0.6z" opacity=".944"></path><path fill="#5b00dc" d="m23.3 4.7c2.4 0.9 4.4 2.4 6 4.4 0.2 0.4 0.2 0.8 0 1.2-2-1.8-4-3.7-6-5.6z" opacity=".906"></path><path fill="#7500ac" d="m11.5 5.2c0.4 0.6 1 1.1 1.5 1.6l-0.7 0.2c-0.5-0.5-1-0.9-1.6-1.4 0.2-0.2 0.5-0.3 0.8-0.4z" opacity=".947"></path><path fill="#7000b6" d="m13.7 5.3c0.4 0.2 0.8 0.5 1 0.9h-0.2l-0.8-0.9z" opacity=".964"></path><path fill="#7700a9" d="m10.7 5.6c0.6 0.5 1.1 0.9 1.6 1.4-0.2 0.2-0.4 0.3-0.6 0.4-0.4-0.6-1-1.1-1.6-1.5 0.2-0.1 0.4-0.2 0.6-0.3z" opacity=".95"></path><path fill="#7900a5" d="m10.1 5.9c0.6 0.4 1.2 0.9 1.6 1.5-0.4 0.4-0.9 0.6-1.4 0.6-0.3-0.3-0.6-0.5-0.9-0.7-0.1-0.7 0.1-1.1 0.7-1.4z" opacity=".939"></path><path fill="#7b00a1" d="m9.4 7.3c0.3 0.2 0.6 0.4 0.9 0.7-0.5 0-0.8-0.2-0.9-0.7z" opacity=".699"></path><path fill="#800098" d="m8.8 8.6c0.4 0.3 0.7 0.6 1 0.9-0.7 0.1-1.3 0.4-1.7 1-0.4-0.3-0.7-0.6-1-1 0.4-0.6 1-0.9 1.7-0.9z" opacity=".916"></path><path fill="#7d009d" d="m8.8 8.6c0.5 0 0.9 0 1.3 0.1 0.4 0.4 0.7 0.7 1 1.1-0.4-0.1-0.9-0.2-1.3-0.3-0.3-0.3-0.6-0.6-1-0.9z" opacity=".895"></path><path fill="#7b00a0" d="m10.1 8.7c0.4 0.1 0.8 0.1 1.2 0.2 0.4 0.3 0.7 0.6 1 1-0.4 0-0.8-0.1-1.2-0.1-0.3-0.4-0.6-0.7-1-1.1z" opacity=".887"></path><path fill="#7900a5" d="m11.3 8.9c0.9 0.1 1.8 0.3 2.7 0.4l0.9 1.1c-0.8-0.2-1.7-0.3-2.6-0.5-0.3-0.4-0.6-0.7-1-1z" opacity=".886"></path><path fill="#7700a9" d="m14 9.3c0.3 0.1 0.6 0.1 0.9 0.1l1 1.1-1-0.1-0.9-1.1z" opacity=".897"></path><path fill="#7500ac" d="m14.9 9.4c0.5 0.1 0.9 0.2 1.4 0.3l0.9 1c-0.4 0-0.9-0.1-1.3-0.2l-1-1.1z" opacity=".882"></path><path fill="#820093" d="m7.1 9.5c0.3 0.4 0.6 0.7 1 1-0.1 0.3-0.1 0.6-0.2 1l-1.1-1c0-0.4 0.1-0.7 0.3-1z" opacity=".92"></path><path fill="#7200b1" d="m16.3 9.7c0.8 0.1 1.7 0.2 2.6 0.3 0.2 0.4 0.4 0.7 0.8 0.9l0.2 0.2c-0.9-0.1-1.8-0.2-2.7-0.4l-0.9-1z" opacity=".889"></path><path fill="#6100d3" d="m27.3 9.9c0.3 0.2 0.6 0.5 0.8 0.8-0.3-0.2-0.6-0.4-0.9-0.6 0-0.1 0.1-0.1 0.1-0.2z" opacity=".613"></path><path fill="#7000b6" d="m18.9 10l0.2 0.1 0.6 0.8c-0.4-0.2-0.6-0.5-0.8-0.9z" opacity=".942"></path><path fill="#6f00b8" d="m19.1 10.1c0.7 0.1 1.4 0.2 2.1 0.3 0.3 0.3 0.6 0.7 0.9 1.1-0.7-0.1-1.5-0.2-2.2-0.4l-0.2-0.2-0.6-0.8z" opacity=".9"></path><path fill="#6c00be" d="m21.2 10.4c0.7 0.1 1.3 0.2 2 0.3l1 1.1c-0.7-0.1-1.4-0.2-2.1-0.3-0.3-0.4-0.6-0.8-0.9-1.1z" opacity=".888"></path><path fill="#840090" d="m6.8 10.5l1.1 1c0 0.4 0.2 0.9 0.4 1.3l-1.4-1.1c-0.1-0.4-0.1-0.8-0.1-1.2z" opacity=".919"></path><path fill="#6800c4" d="m23.2 10.7c0.7 0.1 1.4 0.2 2.1 0.4 1.4 1.3 2.8 2.6 4.3 4-0.2 0.4-0.4 0.7-0.7 1-1-0.9-2-1.9-3-2.8 0.4-0.4 0.4-0.8 0-1.2-0.6-0.1-1.2-0.2-1.7-0.3l-1-1.1z" opacity=".952"></path><path fill="#6500ca" d="m25.3 11.1c0.8 0 1.6 0.2 2.4 0.4 0.7 0.8 1.6 1.6 2.5 2.2-0.1 0.6-0.3 1-0.6 1.4-1.5-1.4-2.9-2.7-4.3-4z" opacity=".969"></path><path fill="#6200d0" d="m27.7 11.5c1.5-0.1 2.4 0.7 2.5 2.2-0.9-0.6-1.8-1.4-2.5-2.2z" opacity=".923"></path><path fill="#86008c" d="m6.9 11.7l1.4 1.1c0.7 1.4 1.4 2.9 2 4.4-0.4-0.4-0.9-0.7-1.4-1.1-0.7-1.4-1.3-2.9-2-4.4z" opacity=".865"></path><path fill="#87008a" d="m6.3 13.5c-0.6-0.4-1-0.8-1.4-1.3 1.1-0.3 1.6 0.1 1.4 1.3z" opacity=".891"></path><path fill="#808" d="m4.9 12.2c0.4 0.5 0.8 0.9 1.4 1.3-0.1 0.4-0.2 0.7-0.4 1.1-0.6-0.5-1.1-0.9-1.6-1.5 0-0.4 0.2-0.7 0.6-0.9z" opacity=".939"></path><path fill="#800098" d="m13.4 12.8c1.2 1.2 2.5 2.4 3.8 3.6-0.6 0.3-1.2 0.6-1.9 0.8-1.4-1.4-2.8-2.7-4.3-3.9-0.2-0.5-0.1-0.7 0.3-0.9 0.7 0.1 1.4 0.2 2.1 0.4z" opacity=".974"></path><path fill="#7d009d" d="m13.4 12.8c0.4 0 0.8 0 1.2 0.1l3.3 3.2-0.7 0.3c-1.3-1.2-2.6-2.4-3.8-3.6z" opacity=".975"></path><path fill="#7b00a0" d="m14.6 12.9c0.4 0 0.9 0.1 1.3 0.2l2.8 2.7-0.8 0.3-3.3-3.2z" opacity=".959"></path><path fill="#8a0084" d="m4.3 13.1c0.5 0.6 1 1 1.6 1.5-0.1 0.4-0.2 0.9-0.3 1.3-0.6-0.5-1.1-1-1.7-1.6 0-0.4 0.1-0.8 0.4-1.2z" opacity=".94"></path><path fill="#7900a5" d="m15.9 13.1c0.8 0.1 1.7 0.2 2.5 0.3 0.6 0.6 1.1 1.2 1.7 1.8-0.5 0.2-1 0.4-1.4 0.6l-2.8-2.7z" opacity=".954"></path><path fill="#820093" d="m11 13.3c1.5 1.2 2.9 2.5 4.3 3.9-0.2 0.2-0.4 0.3-0.7 0.4-0.9-0.8-1.9-1.6-2.8-2.4-0.3-0.6-0.6-1.3-0.8-1.9z" opacity=".961"></path><path fill="#6b00be" d="m25.9 13.3c1 0.9 2 1.9 3 2.8-0.2 0.4-0.4 0.7-0.6 1-0.2-0.2-0.4-0.4-0.6-0.6 0-0.8-0.3-1.2-1.1-1-0.6-0.5-1.2-1.1-1.8-1.6 0.3-0.3 0.7-0.5 1.1-0.6z" opacity=".945"></path><path fill="#7700a9" d="m18.4 13.4c0.4 0.1 0.8 0.1 1.1 0.2 0.4 0.5 0.8 0.9 1.2 1.2-0.2 0.2-0.4 0.3-0.6 0.4-0.6-0.6-1.1-1.2-1.7-1.8z" opacity=".924"></path><path fill="#7500ac" d="m19.5 13.6c0.4 0 0.8 0.1 1.2 0.1 0.2 0.3 0.4 0.5 0.6 0.6-0.1 0.3-0.3 0.5-0.6 0.5-0.4-0.3-0.8-0.7-1.2-1.2z" opacity=".926"></path><path fill="#7300af" d="m20.7 13.7c0.5 0 0.7 0.2 0.6 0.6-0.2-0.1-0.4-0.3-0.6-0.6z" opacity=".704"></path><path fill="#6f00b8" d="m24.8 13.9c0.6 0.5 1.2 1.1 1.8 1.6-0.4 0.3-0.8 0.4-1.2 0.5-0.2-0.2-0.3-0.4-0.6-0.5-0.2 0-0.3-0.2-0.4-0.3-0.2-0.3-0.4-0.5-0.7-0.7 0.3-0.3 0.7-0.5 1.1-0.6z" opacity=".943"></path><path fill="#8d007f" d="m3.9 14.3c0.6 0.6 1.1 1.1 1.7 1.6-0.2 1.3-0.3 2.6-0.1 3.8-0.7-0.6-1.4-1.3-2.2-1.9 0-1.2 0.2-2.3 0.6-3.5z" opacity=".952"></path><path fill="#7200b1" d="m23.6 14.5c0.2 0.3 0.5 0.5 0.8 0.7 0.1 0.1 0.2 0.3 0.4 0.3 0.1 0.2 0.3 0.4 0.5 0.5-0.7 0.5-1.3 0.6-2.1 0.3-0.3-0.4-0.4-0.8-0.3-1.4 0.2-0.2 0.4-0.4 0.7-0.4z" opacity=".94"></path><path fill="#7000b6" d="m23.6 14.5h0.1c0.3 0.2 0.5 0.4 0.7 0.7-0.3-0.2-0.6-0.4-0.8-0.7z" opacity=".99"></path><path fill="#6500ca" d="m31.4 14.9c0.1 0.3 0.4 0.5 0.7 0.6 0.2 0.7 0.3 1.5 0.4 2.2-0.8-0.6-1.6-1.3-2.3-1.9 0.1-0.7 0.5-0.9 1.2-0.9z" opacity=".942"></path><path fill="#6300cf" d="m31.4 14.9c0.4 0.1 0.6 0.3 0.7 0.6-0.3-0.1-0.6-0.3-0.7-0.6z" opacity=".654"></path><path fill="#840090" d="m11.8 15.2c0.9 0.8 1.9 1.6 2.8 2.4-0.3 0.1-0.6 0.2-0.9 0.3-0.3-0.3-0.7-0.6-1-0.9-0.4-0.6-0.7-1.2-0.9-1.8z" opacity=".923"></path><path fill="#7000b6" d="m24.8 15.5c0.2 0.1 0.4 0.3 0.6 0.5h-0.1c-0.2-0.1-0.4-0.3-0.5-0.5z" opacity=".984"></path><path fill="#6800c4" d="m30.2 15.8c0.7 0.6 1.5 1.3 2.3 1.9 0 0.5 0 1-0.2 1.4l-2-1.6-0.1-1.7z" opacity=".942"></path><path fill="#808" d="m8.9 16.1c0.5 0.4 1 0.7 1.4 1.1 0.4 0.8 0.7 1.6 1 2.4-0.4-0.4-0.8-0.7-1.3-1.1-0.4-0.7-0.8-1.5-1.1-2.4z" opacity=".863"></path><path fill="#6f00b8" d="m27.7 16.5c0.2 0.2 0.4 0.4 0.6 0.6-0.2 0.4-0.4 0.8-0.8 1.1v-0.1c-0.1-0.3-0.3-0.5-0.6-0.6 0.2-0.4 0.5-0.7 0.8-1z" opacity=".876"></path><path fill="#85008e" d="m12.7 17c0.3 0.3 0.7 0.6 1 0.9-0.1 0.2-0.3 0.2-0.6 0.1-0.2-0.3-0.4-0.6-0.4-1z" opacity=".802"></path><path fill="#7000b6" d="m26.9 17.5c0.3 0.1 0.5 0.3 0.6 0.6-0.2-0.1-0.4-0.3-0.6-0.5v-0.1z" opacity=".965"></path><path fill="#6b00be" d="m30.3 17.5l2 1.6c0.1 0.5 0 1-0.1 1.5-0.6-0.5-1.3-1.1-1.9-1.6v-1.5z" opacity=".938"></path><path fill="#7200b1" d="m26.9 17.6c0.2 0.2 0.4 0.4 0.6 0.5v0.1c-0.2 0.4-0.4 0.8-0.7 1.2-0.3-0.1-0.5-0.3-0.7-0.5 0.2-0.5 0.5-0.9 0.8-1.3z" opacity=".878"></path><path fill="#8e007c" d="m3.3 17.8c0.8 0.6 1.5 1.3 2.2 1.9 0 0.3 0.1 0.6 0.1 0.9l-2.3-1.9v-0.9z" opacity=".947"></path><path fill="#7900a4" d="m22.9 19.5c-0.5-0.3-0.9-0.6-1.2-1 0.5-0.3 1-0.5 1.6-0.5 0.2 0.2 0.2 0.5 0.1 0.8-0.2 0.2-0.3 0.5-0.5 0.7z" opacity=".888"></path><path fill="#8a0084" d="m10 18.5c0.5 0.4 0.9 0.7 1.3 1.1 0.5 0.9 0.9 1.8 1.2 2.7-0.5-0.4-1-0.8-1.4-1.2-0.4-0.8-0.8-1.7-1.1-2.6z" opacity=".87"></path><path fill="#7b00a0" d="m21.7 18.5c0.3 0.4 0.7 0.7 1.2 1-0.1 0.3-0.3 0.5-0.5 0.6-0.5-0.4-0.9-0.8-1.3-1.3 0.1-0.1 0.3-0.2 0.6-0.3z" opacity=".933"></path><path fill="#910078" d="m3.3 18.7l2.3 1.9c0.8 3.3 2.6 6 5.4 8 1.1 0.6 2.2 1.2 3.4 1.7 0.4 1 0 1.5-1 1.7-2.9-2.9-5.9-5.7-9-8.4-0.7-1.6-1.1-3.2-1.1-4.9z" opacity=".942"></path><path fill="#7d009d" d="m21.1 18.8c0.4 0.5 0.8 0.9 1.3 1.3-0.1 0.2-0.2 0.4-0.4 0.6-0.6-0.4-1.2-1-1.7-1.6 0.2-0.1 0.5-0.3 0.8-0.3z" opacity=".946"></path><path fill="#7500ac" d="m26.1 18.9c0.2 0.2 0.4 0.4 0.7 0.5-0.1 0.3-0.3 0.5-0.5 0.7l-0.6-0.7c0.1-0.2 0.2-0.4 0.4-0.5z" opacity=".854"></path><path fill="#6f00b8" d="m30.3 19c0.6 0.5 1.3 1.1 1.9 1.6-0.1 0.4-0.2 0.9-0.3 1.3-0.3-0.2-0.6-0.4-0.9-0.6-0.1 0-0.2-0.1-0.2-0.2-0.2-0.3-0.4-0.5-0.6-0.6 0-0.5 0-1 0.1-1.5z" opacity=".953"></path><path fill="#800098" d="m20.3 19.1c0.5 0.6 1.1 1.2 1.7 1.6-0.3 0.6-0.7 1.2-1.2 1.7-0.7-0.9-1.5-1.7-2.4-2.4 0.6-0.4 1.3-0.6 1.9-0.9z" opacity=".957"></path><path fill="#7700a9" d="m25.7 19.4l0.6 0.7c0 0.2-0.1 0.4-0.3 0.5-0.2-0.3-0.4-0.5-0.6-0.6 0.1-0.2 0.2-0.4 0.3-0.6z" opacity=".87"></path><path fill="#820093" d="m18.4 20c0.9 0.7 1.7 1.5 2.4 2.4-0.1 0.3-0.2 0.5-0.5 0.7-0.9-0.9-1.8-1.8-2.7-2.8 0.2-0.1 0.5-0.2 0.8-0.3z" opacity=".967"></path><path fill="#7900a5" d="m25.4 20c0.2 0.1 0.4 0.3 0.6 0.6-0.2 0.4-0.4 0.8-0.7 1.2l-0.8-0.6c0.3-0.4 0.6-0.8 0.9-1.2z" opacity=".865"></path><path fill="#840090" d="m17.6 20.3c0.9 1 1.8 1.9 2.7 2.8 0 0.2-0.2 0.4-0.3 0.6l-3.1-3c0.2-0.2 0.4-0.3 0.7-0.4z" opacity=".968"></path><path fill="#7000b6" d="m30.1 20.6c0-0.1 0-0.1 0.1-0.1 0.2 0.1 0.4 0.3 0.6 0.6-0.3-0.1-0.5-0.3-0.7-0.5z" opacity=".925"></path><path fill="#7200b1" d="m30.1 20.6c0.2 0.2 0.4 0.4 0.7 0.5 0 0.1 0.1 0.2 0.2 0.2 0.3 0.3 0.5 0.6 0.9 0.8-0.2 0.6-0.4 1.1-0.6 1.6-0.5-0.6-1-1.1-1.6-1.6 0.1-0.5 0.3-1 0.4-1.5z" opacity=".939"></path><path fill="#86008c" d="m16.9 20.7l3.1 3c-0.4 0.5-0.7 1.1-1.1 1.6-1.3-1.2-2.6-2.4-4-3.6 0.1-0.2 0.2-0.3 0.3-0.3 0.5-0.3 1.1-0.5 1.7-0.7z" opacity=".974"></path><path fill="#8d007f" d="m11.1 21.1c0.4 0.4 0.9 0.8 1.4 1.2 1 2.2 2 4.4 3 6.7-0.5-0.4-1-0.8-1.4-1.2-1-2.2-2-4.5-3-6.7z" opacity=".865"></path><path fill="#7b00a0" d="m24.5 21.2l0.8 0.6c-0.1 0.2-0.2 0.4-0.4 0.6l-0.7-0.5c0.1-0.2 0.2-0.5 0.3-0.7z" opacity=".874"></path><path fill="#7000b6" d="m31 21.3c0.3 0.2 0.6 0.4 0.9 0.6v0.2c-0.4-0.2-0.6-0.5-0.9-0.8z" opacity=".961"></path><path fill="#808" d="m14.9 21.7c1.4 1.2 2.7 2.4 4 3.6-0.2 0.3-0.4 0.6-0.6 0.8-0.8-0.8-1.6-1.6-2.5-2.3-0.4-0.6-0.7-1.4-0.9-2.1z" opacity=".96"></path><path fill="#7d009d" d="m24.2 21.9l0.7 0.5c-0.1 0.2-0.3 0.4-0.5 0.6-0.2-0.2-0.4-0.4-0.6-0.6 0.1-0.2 0.2-0.4 0.4-0.5z" opacity=".876"></path><path fill="#7500ac" d="m29.7 22.1c0.6 0.5 1.1 1 1.6 1.6-0.1 0.2-0.2 0.4-0.3 0.6l-1.7-1.4c0.2-0.3 0.3-0.5 0.4-0.8z" opacity=".947"></path><path fill="#7f0098" d="m23.8 22.4c0.2 0.2 0.4 0.4 0.6 0.6-0.2 0.6-0.6 1.2-1.1 1.7-0.1-0.3-0.3-0.5-0.6-0.6 0.4-0.6 0.8-1.2 1.1-1.7z" opacity=".857"></path><path fill="#7700a9" d="m29.3 22.9l1.7 1.4c-0.1 0.2-0.2 0.4-0.3 0.6-0.5-0.6-1-1-1.6-1.4 0.1-0.2 0.2-0.4 0.2-0.6z" opacity=".947"></path><path fill="#7900a5" d="m29.1 23.5c0.6 0.4 1.1 0.8 1.6 1.4-0.2 0.5-0.4 0.9-0.8 1.2-0.4-0.5-1-0.9-1.5-1.3 0.3-0.4 0.5-0.9 0.7-1.3z" opacity=".943"></path><path fill="#920075" d="m4.4 23.6c3.1 2.7 6.1 5.5 9 8.4-4.3-1.4-7.3-4.2-9-8.4z" opacity=".939"></path><path fill="#8a0085" d="m15.8 23.8c0.9 0.7 1.7 1.5 2.5 2.3-0.2 0.4-0.4 0.7-0.8 0.8-0.2-0.2-0.3-0.3-0.5-0.4-0.5-0.9-0.9-1.8-1.2-2.7z" opacity=".915"></path><path fill="#820093" d="m22.7 24.1c0.3 0.1 0.5 0.3 0.6 0.6-0.1 0.2-0.2 0.5-0.4 0.7-0.2-0.3-0.4-0.4-0.6-0.5 0.1-0.3 0.3-0.6 0.4-0.8z" opacity=".871"></path><path fill="#7b00a0" d="m28.4 24.8c0.5 0.4 1.1 0.8 1.5 1.3 0 0.2-0.2 0.4-0.3 0.6-0.6-0.4-1.1-0.8-1.6-1.3 0.1-0.2 0.2-0.4 0.4-0.6z" opacity=".952"></path><path fill="#840090" d="m22.3 24.9c0.2 0.1 0.4 0.2 0.6 0.5-0.1 0.2-0.2 0.4-0.4 0.6-0.2-0.2-0.4-0.4-0.6-0.6 0.1-0.2 0.2-0.4 0.4-0.5z" opacity=".898"></path><path fill="#86008c" d="m21.9 25.4c0.2 0.2 0.4 0.4 0.6 0.6-0.3 0.6-0.7 1.1-1.1 1.7-0.1-0.3-0.3-0.5-0.6-0.6 0.4-0.6 0.7-1.2 1.1-1.7z" opacity=".856"></path><path fill="#7d009d" d="m28 25.4c0.5 0.5 1 0.9 1.6 1.3-0.2 0.2-0.3 0.4-0.5 0.6-0.5-0.5-1-0.9-1.6-1.3 0.2-0.2 0.3-0.4 0.5-0.6z" opacity=".939"></path><path fill="#800098" d="m27.5 26c0.6 0.4 1.1 0.8 1.6 1.3-0.4 0.6-0.8 1-1.3 1.4-0.5-0.4-1-0.9-1.5-1.4 0.4-0.4 0.8-0.9 1.2-1.3z" opacity=".937"></path><path fill="#8a0083" d="m17 26.5c0.2 0.1 0.3 0.2 0.5 0.4-0.4 0.1-0.6-0.1-0.5-0.4z" opacity=".646"></path><path fill="#808" d="m20.8 27.1c0.3 0.1 0.5 0.3 0.6 0.6-0.1 0.3-0.3 0.5-0.5 0.8-0.2-0.2-0.4-0.4-0.6-0.6 0.1-0.3 0.3-0.6 0.5-0.8z" opacity=".865"></path><path fill="#820093" d="m26.3 27.3c0.5 0.5 1 1 1.5 1.4-0.2 0.2-0.4 0.4-0.6 0.5-0.6-0.4-1.1-0.8-1.6-1.3 0.2-0.3 0.4-0.5 0.7-0.6z" opacity=".938"></path><path fill="#8e007c" d="m14.1 27.8c0.4 0.4 0.9 0.8 1.4 1.2 0.3 0.8 0.9 1.4 1.7 1.5 0.4 0.5 0.8 0.9 1.2 1.2-0.2 0.2-0.4 0.3-0.7 0.3-0.9-1.1-1.9-2-3-2.8-0.2-0.5-0.4-0.9-0.6-1.4z" opacity=".901"></path><path fill="#8a0084" d="m20.3 27.9c0.2 0.2 0.4 0.4 0.6 0.6-0.2 0.4-0.4 0.7-0.7 1-0.2-0.2-0.4-0.4-0.6-0.5 0.2-0.4 0.4-0.8 0.7-1.1z" opacity=".851"></path><path fill="#840090" d="m25.6 27.9c0.5 0.5 1 0.9 1.6 1.3-0.1 0.3-0.3 0.4-0.6 0.5-0.6-0.4-1.1-0.9-1.6-1.4 0.2-0.2 0.4-0.3 0.6-0.4z" opacity=".94"></path><path fill="#86008c" d="m25 28.3c0.5 0.5 1 1 1.6 1.4-0.5 0.5-1.1 0.8-1.7 1.1-0.5-0.5-1-1-1.6-1.5 0.6-0.3 1.2-0.7 1.7-1z" opacity=".938"></path><path fill="#8d007f" d="m19.6 29c0.2 0.1 0.4 0.3 0.6 0.5-0.3 0.5-0.6 1-0.9 1.5-0.2 0.3-0.5 0.6-0.9 0.7-0.4-0.3-0.8-0.7-1.2-1.2 0.5 0.1 1 0 1.5-0.3 0.3-0.4 0.6-0.8 0.9-1.2z" opacity=".886"></path><path fill="#90007a" d="m14.7 29.2c1.1 0.8 2.1 1.7 3 2.8-1 0.1-1.7-0.3-2.2-1.1-0.3-0.6-0.6-1.1-0.8-1.7z" opacity=".885"></path><path fill="#808" d="m23.3 29.3c0.6 0.5 1.1 1 1.6 1.5-0.3 0.2-0.6 0.4-1 0.5-0.5-0.6-1-1-1.6-1.5 0.3-0.2 0.7-0.3 1-0.5z" opacity=".947"></path><path fill="#8a0084" d="m22.3 29.8c0.6 0.5 1.1 0.9 1.6 1.5-0.3 0.2-0.7 0.3-1.2 0.4-0.5-0.5-1.1-1-1.6-1.5 0.3-0.2 0.7-0.3 1.2-0.4z" opacity=".951"></path><path fill="#8c0081" d="m21.1 30.2c0.5 0.5 1.1 1 1.6 1.5-0.7 0.5-1.4 0.6-2.2 0.3-0.5-0.5-0.5-1.1 0-1.6 0.1-0.2 0.3-0.2 0.6-0.2z" opacity=".91"></path></svg>