<svg xmlns="http://www.w3.org/2000/svg" version="1.1" width="300px" height="250px" style="shape-rendering:geometricPrecision; text-rendering:geometricPrecision; image-rendering:optimizeQuality; fill-rule:evenodd; clip-rule:evenodd" xmlns:xlink="http://www.w3.org/1999/xlink">
<g><path style="opacity:0.954" fill="#6800c4" d="M 144.5,5.5 C 150.167,11.5 155.833,17.5 161.5,23.5C 156.518,22.9466 151.518,22.6133 146.5,22.5C 141.796,16.7949 136.463,11.7949 130.5,7.5C 134.964,6.35626 139.63,5.68959 144.5,5.5 Z"/></g>
<g><path style="opacity:0.947" fill="#6500cb" d="M 144.5,5.5 C 149.927,5.21754 155.26,5.55087 160.5,6.5C 168.167,13.8333 175.833,21.1667 183.5,28.5C 176.316,26.2041 168.982,24.5374 161.5,23.5C 155.833,17.5 150.167,11.5 144.5,5.5 Z"/></g>
<g><path style="opacity:0.936" fill="#6100d1" d="M 160.5,6.5 C 165.613,6.43071 170.613,7.09738 175.5,8.5C 188.024,19.9354 200.358,31.6021 212.5,43.5C 203.3,37.7322 193.633,32.7322 183.5,28.5C 175.833,21.1667 168.167,13.8333 160.5,6.5 Z"/></g>
<g><path style="opacity:0.957" fill="#6b00be" d="M 130.5,7.5 C 136.463,11.7949 141.796,16.7949 146.5,22.5C 142.548,23.2721 138.548,23.6054 134.5,23.5C 129.474,18.8053 124.474,14.1387 119.5,9.5C 122.998,8.08317 126.665,7.4165 130.5,7.5 Z"/></g>
<g><path style="opacity:0.971" fill="#5f00d7" d="M 175.5,8.5 C 182.174,9.72598 188.507,11.726 194.5,14.5C 210.841,30.1733 227.507,45.5066 244.5,60.5C 242.109,63.917 238.775,65.2503 234.5,64.5C 232.548,61.8816 230.215,59.5482 227.5,57.5C 222.474,52.8053 217.474,48.1387 212.5,43.5C 200.358,31.6021 188.024,19.9354 175.5,8.5 Z"/></g>
<g><path style="opacity:0.946" fill="#6f00b8" d="M 119.5,9.5 C 124.474,14.1387 129.474,18.8053 134.5,23.5C 130.615,24.4901 126.615,25.4901 122.5,26.5C 120.431,23.4275 117.764,21.0941 114.5,19.5C 111.94,17.7267 109.607,15.7267 107.5,13.5C 111.216,11.5947 115.216,10.2613 119.5,9.5 Z"/></g>
<g><path style="opacity:0.944" fill="#7200b1" d="M 107.5,13.5 C 109.607,15.7267 111.94,17.7267 114.5,19.5C 116.5,21.8333 118.5,24.1667 120.5,26.5C 116.571,28.1485 112.571,29.8152 108.5,31.5C 103.86,27.5271 99.5271,23.1938 95.5,18.5C 99.1108,16.0692 103.111,14.4025 107.5,13.5 Z"/></g>
<g><path style="opacity:0.906" fill="#5b00dc" d="M 194.5,14.5 C 214.209,22.0365 230.709,34.0365 244,50.5C 245.735,53.7897 245.901,57.123 244.5,60.5C 227.507,45.5066 210.841,30.1733 194.5,14.5 Z"/></g>
<g><path style="opacity:0.947" fill="#7500ac" d="M 95.5,18.5 C 99.5271,23.1938 103.86,27.5271 108.5,31.5C 106.5,32.1667 104.5,32.8333 102.5,33.5C 98.1407,29.4718 93.8073,25.4718 89.5,21.5C 91.1815,19.9925 93.1815,18.9925 95.5,18.5 Z"/></g>
<g><path style="opacity:0.964" fill="#7000b6" d="M 114.5,19.5 C 117.764,21.0941 120.431,23.4275 122.5,26.5C 121.833,26.5 121.167,26.5 120.5,26.5C 118.5,24.1667 116.5,21.8333 114.5,19.5 Z"/></g>
<g><path style="opacity:0.95" fill="#7700a9" d="M 89.5,21.5 C 93.8073,25.4718 98.1407,29.4718 102.5,33.5C 101.035,34.7368 99.3684,35.7368 97.5,36.5C 93.7934,31.7923 89.4601,27.7923 84.5,24.5C 85.9649,23.2632 87.6316,22.2632 89.5,21.5 Z"/></g>
<g><path style="opacity:0.939" fill="#7900a5" d="M 84.5,24.5 C 89.4601,27.7923 93.7934,31.7923 97.5,36.5C 94.2441,39.7903 90.2441,41.457 85.5,41.5C 83.3932,39.2733 81.0599,37.2733 78.5,35.5C 77.09,30.1091 79.09,26.4424 84.5,24.5 Z"/></g>
<g><path style="opacity:0.699" fill="#7b00a1" d="M 78.5,35.5 C 81.0599,37.2733 83.3932,39.2733 85.5,41.5C 81.3355,41.5902 79.0021,39.5902 78.5,35.5 Z"/></g>
<g><path style="opacity:0.916" fill="#800098" d="M 73.5,46.5 C 76.4729,48.8062 79.1395,51.4728 81.5,54.5C 75.5593,55.1314 70.8926,57.7981 67.5,62.5C 64.5,60.1667 61.8333,57.5 59.5,54.5C 62.5976,49.2792 67.2643,46.6125 73.5,46.5 Z"/></g>
<g><path style="opacity:0.895" fill="#7d009d" d="M 73.5,46.5 C 77.1981,46.5524 80.8648,46.8857 84.5,47.5C 87.1156,50.4546 89.7823,53.4546 92.5,56.5C 88.8598,55.7265 85.1932,55.0599 81.5,54.5C 79.1395,51.4728 76.4729,48.8062 73.5,46.5 Z"/></g>
<g><path style="opacity:0.887" fill="#7b00a0" d="M 84.5,47.5 C 87.9055,47.9555 91.2389,48.6222 94.5,49.5C 97.4729,51.8062 100.14,54.4728 102.5,57.5C 99.1401,57.3841 95.8067,57.0508 92.5,56.5C 89.7823,53.4546 87.1156,50.4546 84.5,47.5 Z"/></g>
<g><path style="opacity:0.886" fill="#7900a5" d="M 94.5,49.5 C 101.866,50.2834 109.2,51.2834 116.5,52.5C 119.167,55.5 121.833,58.5 124.5,61.5C 117.105,60.3789 109.771,59.0456 102.5,57.5C 100.14,54.4728 97.4729,51.8062 94.5,49.5 Z"/></g>
<g><path style="opacity:0.897" fill="#7700a9" d="M 116.5,52.5 C 119.127,53.0916 121.794,53.4249 124.5,53.5C 127.167,56.5 129.833,59.5 132.5,62.5C 129.833,62.1667 127.167,61.8333 124.5,61.5C 121.833,58.5 119.167,55.5 116.5,52.5 Z"/></g>
<g><path style="opacity:0.882" fill="#7500ac" d="M 124.5,53.5 C 128.14,54.2735 131.807,54.9401 135.5,55.5C 138.167,58.5 140.833,61.5 143.5,64.5C 139.807,63.9401 136.14,63.2735 132.5,62.5C 129.833,59.5 127.167,56.5 124.5,53.5 Z"/></g>
<g><path style="opacity:0.92" fill="#820093" d="M 59.5,54.5 C 61.8333,57.5 64.5,60.1667 67.5,62.5C 66.9573,65.2184 66.2906,67.885 65.5,70.5C 62.5,67.8333 59.5,65.1667 56.5,62.5C 56.4152,59.3511 57.4152,56.6845 59.5,54.5 Z"/></g>
<g><path style="opacity:0.889" fill="#7200b1" d="M 135.5,55.5 C 142.806,56.6866 150.139,57.6866 157.5,58.5C 158.833,61.8333 161.167,64.1667 164.5,65.5C 164.833,66.1667 165.167,66.8333 165.5,67.5C 158.136,66.7171 150.803,65.7171 143.5,64.5C 140.833,61.5 138.167,58.5 135.5,55.5 Z"/></g>
<g><path style="opacity:0.613" fill="#6100d3" d="M 227.5,57.5 C 230.215,59.5482 232.548,61.8816 234.5,64.5C 231.732,62.9128 229.065,61.0795 226.5,59C 227.056,58.6174 227.389,58.1174 227.5,57.5 Z"/></g>
<g><path style="opacity:0.942" fill="#7000b6" d="M 157.5,58.5 C 158.167,58.8333 158.833,59.1667 159.5,59.5C 161.167,61.5 162.833,63.5 164.5,65.5C 161.167,64.1667 158.833,61.8333 157.5,58.5 Z"/></g>
<g><path style="opacity:0.9" fill="#6f00b8" d="M 159.5,59.5 C 165.18,60.0579 170.847,60.7245 176.5,61.5C 179.087,64.4291 181.754,67.4291 184.5,70.5C 177.954,70.0191 171.621,69.0191 165.5,67.5C 165.167,66.8333 164.833,66.1667 164.5,65.5C 162.833,63.5 161.167,61.5 159.5,59.5 Z"/></g>
<g><path style="opacity:0.888" fill="#6c00be" d="M 176.5,61.5 C 182.151,62.593 187.818,63.593 193.5,64.5C 196.167,67.5 198.833,70.5 201.5,73.5C 195.651,72.8041 189.984,71.8041 184.5,70.5C 181.754,67.4291 179.087,64.4291 176.5,61.5 Z"/></g>
<g><path style="opacity:0.919" fill="#840090" d="M 56.5,62.5 C 59.5,65.1667 62.5,67.8333 65.5,70.5C 66.0714,74.4578 67.4047,78.1244 69.5,81.5C 65.5,78.5 61.5,75.5 57.5,72.5C 56.5863,69.272 56.2529,65.9387 56.5,62.5 Z"/></g>
<g><path style="opacity:0.952" fill="#6800c4" d="M 193.5,64.5 C 199.374,65.0492 205.041,66.0492 210.5,67.5C 222.474,78.4717 234.474,89.4717 246.5,100.5C 245.241,104.025 243.241,107.025 240.5,109.5C 232.401,101.279 224.067,93.2785 215.5,85.5C 219.457,82.4629 219.457,79.2963 215.5,76C 210.794,75.2714 206.127,74.4381 201.5,73.5C 198.833,70.5 196.167,67.5 193.5,64.5 Z"/></g>
<g><path style="opacity:0.969" fill="#6500ca" d="M 210.5,67.5 C 217.392,67.8729 224.058,68.8729 230.5,70.5C 236.924,77.5327 243.924,83.8661 251.5,89.5C 251.154,93.8524 249.488,97.5191 246.5,100.5C 234.474,89.4717 222.474,78.4717 210.5,67.5 Z"/></g>
<g><path style="opacity:0.923" fill="#6200d0" d="M 230.5,70.5 C 243.645,70.3205 250.645,76.6538 251.5,89.5C 243.924,83.8661 236.924,77.5327 230.5,70.5 Z"/></g>
<g><path style="opacity:0.865" fill="#86008c" d="M 57.5,72.5 C 61.5,75.5 65.5,78.5 69.5,81.5C 75.1086,93.7168 80.4419,106.05 85.5,118.5C 82.1239,115.122 78.4572,112.122 74.5,109.5C 68.5968,97.355 62.9302,85.0217 57.5,72.5 Z"/></g>
<g><path style="opacity:0.891" fill="#87008a" d="M 52.5,87.5 C 47.8947,84.5643 43.8947,80.8976 40.5,76.5C 50.3252,73.995 54.3252,77.6616 52.5,87.5 Z"/></g>
<g><path style="opacity:0.939" fill="#880088" d="M 40.5,76.5 C 43.8947,80.8976 47.8947,84.5643 52.5,87.5C 51.696,90.5786 50.696,93.5786 49.5,96.5C 44.5389,92.8744 39.8722,88.8744 35.5,84.5C 35.7014,80.8698 37.368,78.2031 40.5,76.5 Z"/></g>
<g><path style="opacity:0.974" fill="#800098" d="M 111.5,81.5 C 121.865,91.8665 132.532,101.866 143.5,111.5C 138.459,114.351 133.125,116.684 127.5,118.5C 116.126,106.791 104.126,95.7912 91.5,85.5C 89.6676,82.0463 90.6676,79.713 94.5,78.5C 100.226,79.4119 105.893,80.4119 111.5,81.5 Z"/></g>
<g><path style="opacity:0.975" fill="#7d009d" d="M 111.5,81.5 C 114.881,81.4595 118.214,81.7929 121.5,82.5C 130.833,91.5 140.167,100.5 149.5,109.5C 147.5,110.167 145.5,110.833 143.5,111.5C 132.532,101.866 121.865,91.8665 111.5,81.5 Z"/></g>
<g><path style="opacity:0.959" fill="#7b00a0" d="M 121.5,82.5 C 125.36,82.8084 129.026,83.4751 132.5,84.5C 140.167,91.8333 147.833,99.1667 155.5,106.5C 153.5,107.5 151.5,108.5 149.5,109.5C 140.167,100.5 130.833,91.5 121.5,82.5 Z"/></g>
<g><path style="opacity:0.94" fill="#8a0084" d="M 35.5,84.5 C 39.8722,88.8744 44.5389,92.8744 49.5,96.5C 48.652,100.227 47.652,103.893 46.5,107.5C 41.8073,103.139 37.1406,98.8052 32.5,94.5C 32.7234,90.8379 33.7234,87.5046 35.5,84.5 Z"/></g>
<g><path style="opacity:0.954" fill="#7900a5" d="M 132.5,84.5 C 139.519,84.979 146.519,85.6456 153.5,86.5C 158.117,91.4536 162.784,96.4536 167.5,101.5C 163.496,103.169 159.496,104.836 155.5,106.5C 147.833,99.1667 140.167,91.8333 132.5,84.5 Z"/></g>
<g><path style="opacity:0.961" fill="#820093" d="M 91.5,85.5 C 104.126,95.7912 116.126,106.791 127.5,118.5C 125.819,120.008 123.819,121.008 121.5,121.5C 113.853,114.856 106.186,108.189 98.5,101.5C 95.6554,96.4693 93.3221,91.1359 91.5,85.5 Z"/></g>
<g><path style="opacity:0.945" fill="#6b00be" d="M 215.5,85.5 C 224.067,93.2785 232.401,101.279 240.5,109.5C 239.331,112.511 237.664,115.178 235.5,117.5C 234.167,115.5 232.5,113.833 230.5,112.5C 231.172,105.499 228.172,102.832 221.5,104.5C 216.526,99.8613 211.526,95.1947 206.5,90.5C 209.304,88.5954 212.304,86.9287 215.5,85.5 Z"/></g>
<g><path style="opacity:0.924" fill="#7700a9" d="M 153.5,86.5 C 156.61,87.0885 159.61,87.7552 162.5,88.5C 165.5,92.1667 168.833,95.5 172.5,98.5C 171.035,99.7368 169.368,100.737 167.5,101.5C 162.784,96.4536 158.117,91.4536 153.5,86.5 Z"/></g>
<g><path style="opacity:0.926" fill="#7500ac" d="M 162.5,88.5 C 165.881,88.4595 169.214,88.7929 172.5,89.5C 173.833,91.5 175.5,93.1667 177.5,94.5C 176.871,96.9971 175.204,98.3304 172.5,98.5C 168.833,95.5 165.5,92.1667 162.5,88.5 Z"/></g>
<g><path style="opacity:0.704" fill="#7300af" d="M 172.5,89.5 C 176.493,89.4804 178.159,91.1471 177.5,94.5C 175.5,93.1667 173.833,91.5 172.5,89.5 Z"/></g>
<g><path style="opacity:0.943" fill="#6f00b8" d="M 206.5,90.5 C 211.526,95.1947 216.526,99.8613 221.5,104.5C 218.46,106.346 215.127,107.679 211.5,108.5C 210.415,106.413 208.749,105.08 206.5,104.5C 205.167,103.833 204.167,102.833 203.5,101.5C 201.833,99.1667 199.833,97.1667 197.5,95.5C 200.008,93.0764 203.008,91.4097 206.5,90.5 Z"/></g>
<g><path style="opacity:0.952" fill="#8d007f" d="M 32.5,94.5 C 37.1406,98.8052 41.8073,103.139 46.5,107.5C 44.6875,118.135 44.3542,128.802 45.5,139.5C 39.7974,133.795 33.7974,128.462 27.5,123.5C 27.7898,113.468 29.4565,103.801 32.5,94.5 Z"/></g>
<g><path style="opacity:0.94" fill="#7200b1" d="M 196.5,95.5 C 198.239,98.2427 200.573,100.243 203.5,101.5C 204.167,102.833 205.167,103.833 206.5,104.5C 207.5,106.167 208.833,107.5 210.5,108.5C 205.31,112.361 199.644,113.194 193.5,111C 190.682,107.662 189.849,103.829 191,99.5C 192.432,97.5612 194.265,96.2279 196.5,95.5 Z"/></g>
<g><path style="opacity:0.99" fill="#7000b6" d="M 196.5,95.5 C 196.833,95.5 197.167,95.5 197.5,95.5C 199.833,97.1667 201.833,99.1667 203.5,101.5C 200.573,100.243 198.239,98.2427 196.5,95.5 Z"/></g>
<g><path style="opacity:0.942" fill="#6500ca" d="M 261.5,99.5 C 262.911,101.914 264.911,103.581 267.5,104.5C 269.075,110.274 270.075,116.274 270.5,122.5C 264.147,117.144 257.814,111.81 251.5,106.5C 252.691,101.229 256.024,98.8961 261.5,99.5 Z"/></g>
<g><path style="opacity:0.654" fill="#6300cf" d="M 261.5,99.5 C 264.732,99.7717 266.732,101.438 267.5,104.5C 264.911,103.581 262.911,101.914 261.5,99.5 Z"/></g>
<g><path style="opacity:0.923" fill="#840090" d="M 98.5,101.5 C 106.186,108.189 113.853,114.856 121.5,121.5C 119.351,122.736 117.018,123.736 114.5,124.5C 111.729,121.608 108.729,118.942 105.5,116.5C 102.603,111.833 100.27,106.833 98.5,101.5 Z"/></g>
<g><path style="opacity:0.984" fill="#7000b6" d="M 206.5,104.5 C 208.749,105.08 210.415,106.413 211.5,108.5C 211.167,108.5 210.833,108.5 210.5,108.5C 208.833,107.5 207.5,106.167 206.5,104.5 Z"/></g>
<g><path style="opacity:0.942" fill="#6800c4" d="M 251.5,106.5 C 257.814,111.81 264.147,117.144 270.5,122.5C 270.763,126.6 270.43,130.6 269.5,134.5C 263.833,129.833 258.167,125.167 252.5,120.5C 252.167,115.833 251.833,111.167 251.5,106.5 Z"/></g>
<g><path style="opacity:0.863" fill="#880088" d="M 74.5,109.5 C 78.4572,112.122 82.1239,115.122 85.5,118.5C 89.0107,124.861 92.0107,131.528 94.5,138.5C 91.1047,135.098 87.438,132.098 83.5,129.5C 79.739,123.234 76.739,116.567 74.5,109.5 Z"/></g>
<g><path style="opacity:0.876" fill="#6f00b8" d="M 230.5,112.5 C 232.5,113.833 234.167,115.5 235.5,117.5C 234.241,121.025 232.241,124.025 229.5,126.5C 229.5,126.167 229.5,125.833 229.5,125.5C 228.167,123.5 226.5,121.833 224.5,120.5C 226.147,117.527 228.147,114.86 230.5,112.5 Z"/></g>
<g><path style="opacity:0.802" fill="#85008e" d="M 105.5,116.5 C 108.729,118.942 111.729,121.608 114.5,124.5C 113.054,125.613 111.387,125.78 109.5,125C 107.218,122.603 105.884,119.769 105.5,116.5 Z"/></g>
<g><path style="opacity:0.965" fill="#7000b6" d="M 224.5,120.5 C 226.5,121.833 228.167,123.5 229.5,125.5C 227.251,124.92 225.585,123.587 224.5,121.5C 224.5,121.167 224.5,120.833 224.5,120.5 Z"/></g>
<g><path style="opacity:0.938" fill="#6b00be" d="M 252.5,120.5 C 258.167,125.167 263.833,129.833 269.5,134.5C 269.605,138.548 269.272,142.548 268.5,146.5C 263.186,142.19 257.852,137.857 252.5,133.5C 252.5,129.167 252.5,124.833 252.5,120.5 Z"/></g>
<g><path style="opacity:0.878" fill="#7200b1" d="M 224.5,121.5 C 225.585,123.587 227.251,124.92 229.5,125.5C 229.5,125.833 229.5,126.167 229.5,126.5C 227.89,130.1 225.89,133.434 223.5,136.5C 221.246,135.585 219.246,134.252 217.5,132.5C 219.446,128.561 221.779,124.894 224.5,121.5 Z"/></g>
<g><path style="opacity:0.947" fill="#8e007c" d="M 27.5,123.5 C 33.7974,128.462 39.7974,133.795 45.5,139.5C 46.2186,141.764 46.552,144.097 46.5,146.5C 40.1667,141.167 33.8333,135.833 27.5,130.5C 27.5,128.167 27.5,125.833 27.5,123.5 Z"/></g>
<g><path style="opacity:0.888" fill="#7900a4" d="M 190.5,137.5 C 186.878,135.213 183.545,132.547 180.5,129.5C 184.672,126.498 189.338,124.998 194.5,125C 195.591,127.064 195.758,129.231 195,131.5C 193.637,133.684 192.137,135.684 190.5,137.5 Z"/></g>
<g><path style="opacity:0.87" fill="#8a0084" d="M 83.5,129.5 C 87.438,132.098 91.1047,135.098 94.5,138.5C 98.0098,145.672 101.343,153.005 104.5,160.5C 100.208,157.543 96.2079,154.21 92.5,150.5C 88.9316,143.811 85.9316,136.811 83.5,129.5 Z"/></g>
<g><path style="opacity:0.933" fill="#7b00a0" d="M 180.5,129.5 C 183.545,132.547 186.878,135.213 190.5,137.5C 189.876,139.754 188.543,141.421 186.5,142.5C 182.425,139.091 178.758,135.425 175.5,131.5C 176.93,130.463 178.597,129.796 180.5,129.5 Z"/></g>
<g><path style="opacity:0.942" fill="#910078" d="M 27.5,130.5 C 33.8333,135.833 40.1667,141.167 46.5,146.5C 53.0292,174.507 68.0292,196.674 91.5,213C 100.828,218.247 110.328,223.081 120,227.5C 123.048,235.737 120.215,240.403 111.5,241.5C 87.2012,217.539 62.2012,194.205 36.5,171.5C 30.8475,158.543 27.8475,144.876 27.5,130.5 Z"/></g>
<g><path style="opacity:0.946" fill="#7d009d" d="M 175.5,131.5 C 178.758,135.425 182.425,139.091 186.5,142.5C 185.89,144.434 184.89,146.101 183.5,147.5C 178.206,143.873 173.539,139.54 169.5,134.5C 171.181,132.992 173.181,131.992 175.5,131.5 Z"/></g>
<g><path style="opacity:0.854" fill="#7500ac" d="M 217.5,132.5 C 219.246,134.252 221.246,135.585 223.5,136.5C 222.525,138.795 221.192,140.795 219.5,142.5C 217.833,140.5 216.167,138.5 214.5,136.5C 215.026,134.77 216.026,133.436 217.5,132.5 Z"/></g>
<g><path style="opacity:0.953" fill="#6f00b8" d="M 252.5,133.5 C 257.852,137.857 263.186,142.19 268.5,146.5C 267.866,150.373 266.866,154.039 265.5,157.5C 263.427,155.42 261.093,153.754 258.5,152.5C 257.5,152.167 256.833,151.5 256.5,150.5C 255.167,148.5 253.5,146.833 251.5,145.5C 251.646,141.481 251.979,137.481 252.5,133.5 Z"/></g>
<g><path style="opacity:0.957" fill="#800098" d="M 169.5,134.5 C 173.539,139.54 178.206,143.873 183.5,147.5C 180.645,152.557 177.312,157.223 173.5,161.5C 167.14,154.473 160.473,147.806 153.5,141.5C 158.531,138.655 163.864,136.322 169.5,134.5 Z"/></g>
<g><path style="opacity:0.87" fill="#7700a9" d="M 214.5,136.5 C 216.167,138.5 217.833,140.5 219.5,142.5C 218.974,144.23 217.974,145.564 216.5,146.5C 215.167,144.5 213.5,142.833 211.5,141.5C 212.263,139.632 213.263,137.965 214.5,136.5 Z"/></g>
<g><path style="opacity:0.967" fill="#820093" d="M 153.5,141.5 C 160.473,147.806 167.14,154.473 173.5,161.5C 172.66,163.853 171.326,165.853 169.5,167.5C 161.527,160.194 153.86,152.527 146.5,144.5C 148.649,143.264 150.982,142.264 153.5,141.5 Z"/></g>
<g><path style="opacity:0.865" fill="#7900a5" d="M 211.5,141.5 C 213.5,142.833 215.167,144.5 216.5,146.5C 215,150.173 213,153.506 210.5,156.5C 208.5,154.833 206.5,153.167 204.5,151.5C 206.846,148.129 209.179,144.796 211.5,141.5 Z"/></g>
<g><path style="opacity:0.968" fill="#840090" d="M 146.5,144.5 C 153.86,152.527 161.527,160.194 169.5,167.5C 168.89,169.434 167.89,171.101 166.5,172.5C 157.833,164.167 149.167,155.833 140.5,147.5C 142.181,145.992 144.181,144.992 146.5,144.5 Z"/></g>
<g><path style="opacity:0.925" fill="#7000b6" d="M 250.5,146.5 C 250.5,145.833 250.833,145.5 251.5,145.5C 253.5,146.833 255.167,148.5 256.5,150.5C 254.246,149.585 252.246,148.252 250.5,146.5 Z"/></g>
<g><path style="opacity:0.939" fill="#7200b1" d="M 250.5,146.5 C 252.246,148.252 254.246,149.585 256.5,150.5C 256.833,151.5 257.5,152.167 258.5,152.5C 260.5,155.167 262.833,157.5 265.5,159.5C 264.401,164.144 262.734,168.478 260.5,172.5C 256.473,167.806 252.14,163.473 247.5,159.5C 248.656,155.207 249.656,150.874 250.5,146.5 Z"/></g>
<g><path style="opacity:0.974" fill="#86008c" d="M 140.5,147.5 C 149.167,155.833 157.833,164.167 166.5,172.5C 163.734,177.045 160.734,181.378 157.5,185.5C 146.526,175.528 135.526,165.528 124.5,155.5C 124.953,154.542 125.619,153.708 126.5,153C 131.087,150.87 135.753,149.037 140.5,147.5 Z"/></g>
<g><path style="opacity:0.865" fill="#8d007f" d="M 92.5,150.5 C 96.2079,154.21 100.208,157.543 104.5,160.5C 112.832,179.162 121.166,197.828 129.5,216.5C 125.208,213.543 121.208,210.21 117.5,206.5C 108.796,188.078 100.463,169.411 92.5,150.5 Z"/></g>
<g><path style="opacity:0.874" fill="#7b00a0" d="M 204.5,151.5 C 206.5,153.167 208.5,154.833 210.5,156.5C 209.752,158.332 208.752,159.999 207.5,161.5C 205.5,160.167 203.5,158.833 201.5,157.5C 202.471,155.517 203.471,153.517 204.5,151.5 Z"/></g>
<g><path style="opacity:0.961" fill="#7000b6" d="M 258.5,152.5 C 261.093,153.754 263.427,155.42 265.5,157.5C 265.5,158.167 265.5,158.833 265.5,159.5C 262.833,157.5 260.5,155.167 258.5,152.5 Z"/></g>
<g><path style="opacity:0.96" fill="#880088" d="M 124.5,155.5 C 135.526,165.528 146.526,175.528 157.5,185.5C 156.189,188.135 154.522,190.469 152.5,192.5C 145.825,185.825 138.825,179.492 131.5,173.5C 128.072,167.969 125.739,161.969 124.5,155.5 Z"/></g>
<g><path style="opacity:0.876" fill="#7d009d" d="M 201.5,157.5 C 203.5,158.833 205.5,160.167 207.5,161.5C 206.396,163.389 205.063,165.055 203.5,166.5C 201.5,165.167 199.833,163.5 198.5,161.5C 199.026,159.77 200.026,158.436 201.5,157.5 Z"/></g>
<g><path style="opacity:0.947" fill="#7500ac" d="M 247.5,159.5 C 252.14,163.473 256.473,167.806 260.5,172.5C 260.107,174.284 259.441,175.95 258.5,177.5C 253.833,173.5 249.167,169.5 244.5,165.5C 245.514,163.426 246.514,161.426 247.5,159.5 Z"/></g>
<g><path style="opacity:0.857" fill="#7f0098" d="M 198.5,161.5 C 199.833,163.5 201.5,165.167 203.5,166.5C 201.281,171.709 198.281,176.376 194.5,180.5C 193.167,178.5 191.5,176.833 189.5,175.5C 192.514,170.797 195.514,166.13 198.5,161.5 Z"/></g>
<g><path style="opacity:0.947" fill="#7700a9" d="M 244.5,165.5 C 249.167,169.5 253.833,173.5 258.5,177.5C 257.737,179.368 256.737,181.035 255.5,182.5C 251.793,177.792 247.46,173.792 242.5,170.5C 243.441,168.95 244.107,167.284 244.5,165.5 Z"/></g>
<g><path style="opacity:0.943" fill="#7900a5" d="M 242.5,170.5 C 247.46,173.792 251.793,177.792 255.5,182.5C 254.502,186.505 252.502,189.839 249.5,192.5C 245.46,188.458 241.127,184.791 236.5,181.5C 238.754,177.993 240.754,174.327 242.5,170.5 Z"/></g>
<g><path style="opacity:0.939" fill="#920075" d="M 36.5,171.5 C 62.2012,194.205 87.2012,217.539 111.5,241.5C 75.5212,229.852 50.5212,206.519 36.5,171.5 Z"/></g>
<g><path style="opacity:0.915" fill="#8a0085" d="M 131.5,173.5 C 138.825,179.492 145.825,185.825 152.5,192.5C 151.241,196.108 148.908,198.441 145.5,199.5C 144.5,197.833 143.167,196.5 141.5,195.5C 137.656,188.473 134.323,181.14 131.5,173.5 Z"/></g>
<g><path style="opacity:0.871" fill="#820093" d="M 189.5,175.5 C 191.5,176.833 193.167,178.5 194.5,180.5C 193.66,182.853 192.326,184.853 190.5,186.5C 189.415,184.413 187.749,183.08 185.5,182.5C 186.584,179.996 187.917,177.663 189.5,175.5 Z"/></g>
<g><path style="opacity:0.952" fill="#7b00a0" d="M 236.5,181.5 C 241.127,184.791 245.46,188.458 249.5,192.5C 248.89,194.434 247.89,196.101 246.5,197.5C 241.873,194.209 237.54,190.542 233.5,186.5C 234.248,184.668 235.248,183.001 236.5,181.5 Z"/></g>
<g><path style="opacity:0.898" fill="#840090" d="M 185.5,182.5 C 187.749,183.08 189.415,184.413 190.5,186.5C 189.89,188.434 188.89,190.101 187.5,191.5C 185.5,190.167 183.833,188.5 182.5,186.5C 183.026,184.77 184.026,183.436 185.5,182.5 Z"/></g>
<g><path style="opacity:0.856" fill="#86008c" d="M 182.5,186.5 C 183.833,188.5 185.5,190.167 187.5,191.5C 184.996,196.515 181.996,201.181 178.5,205.5C 177.167,203.5 175.5,201.833 173.5,200.5C 176.514,195.797 179.514,191.13 182.5,186.5 Z"/></g>
<g><path style="opacity:0.939" fill="#7d009d" d="M 233.5,186.5 C 237.54,190.542 241.873,194.209 246.5,197.5C 245.396,199.389 244.063,201.055 242.5,202.5C 238.46,198.458 234.127,194.791 229.5,191.5C 230.604,189.611 231.937,187.945 233.5,186.5 Z"/></g>
<g><path style="opacity:0.937" fill="#800098" d="M 229.5,191.5 C 234.127,194.791 238.46,198.458 242.5,202.5C 239.542,207.126 235.876,211.126 231.5,214.5C 227.194,210.86 223.194,206.86 219.5,202.5C 222.862,198.808 226.195,195.141 229.5,191.5 Z"/></g>
<g><path style="opacity:0.646" fill="#8a0083" d="M 141.5,195.5 C 143.167,196.5 144.5,197.833 145.5,199.5C 142.5,199.833 141.167,198.5 141.5,195.5 Z"/></g>
<g><path style="opacity:0.865" fill="#880088" d="M 173.5,200.5 C 175.5,201.833 177.167,203.5 178.5,205.5C 177.42,207.996 176.086,210.33 174.5,212.5C 172.5,211.167 170.833,209.5 169.5,207.5C 170.079,204.669 171.412,202.336 173.5,200.5 Z"/></g>
<g><path style="opacity:0.938" fill="#820093" d="M 219.5,202.5 C 223.194,206.86 227.194,210.86 231.5,214.5C 230.055,216.063 228.389,217.396 226.5,218.5C 221.893,215.232 217.559,211.565 213.5,207.5C 214.891,205.11 216.891,203.443 219.5,202.5 Z"/></g>
<g><path style="opacity:0.901" fill="#8e007c" d="M 117.5,206.5 C 121.208,210.21 125.208,213.543 129.5,216.5C 131.623,223.625 136.29,227.958 143.5,229.5C 146.5,233.167 149.833,236.5 153.5,239.5C 151.786,240.738 149.786,241.405 147.5,241.5C 140.073,232.735 131.739,225.068 122.5,218.5C 120.836,214.504 119.169,210.504 117.5,206.5 Z"/></g>
<g><path style="opacity:0.851" fill="#8a0084" d="M 169.5,207.5 C 170.833,209.5 172.5,211.167 174.5,212.5C 172.853,215.473 170.853,218.14 168.5,220.5C 167.055,218.937 165.389,217.604 163.5,216.5C 164.759,212.975 166.759,209.975 169.5,207.5 Z"/></g>
<g><path style="opacity:0.94" fill="#840090" d="M 213.5,207.5 C 217.559,211.565 221.893,215.232 226.5,218.5C 225.421,220.543 223.754,221.876 221.5,222.5C 216.555,219.189 212.222,215.189 208.5,210.5C 210.001,209.248 211.668,208.248 213.5,207.5 Z"/></g>
<g><path style="opacity:0.938" fill="#86008c" d="M 208.5,210.5 C 212.222,215.189 216.555,219.189 221.5,222.5C 217.376,226.281 212.709,229.281 207.5,231.5C 203.141,227.472 198.807,223.472 194.5,219.5C 199.144,216.534 203.811,213.534 208.5,210.5 Z"/></g>
<g><path style="opacity:0.886" fill="#8d007f" d="M 163.5,216.5 C 165.389,217.604 167.055,218.937 168.5,220.5C 166.023,224.778 163.523,229.112 161,233.5C 158.894,236.118 156.394,238.118 153.5,239.5C 149.833,236.5 146.5,233.167 143.5,229.5C 147.621,230.175 151.621,229.342 155.5,227C 158.414,223.6 161.08,220.1 163.5,216.5 Z"/></g>
<g><path style="opacity:0.885" fill="#90007a" d="M 122.5,218.5 C 131.739,225.068 140.073,232.735 147.5,241.5C 139.55,242.108 133.384,239.108 129,232.5C 126.73,227.846 124.564,223.18 122.5,218.5 Z"/></g>
<g><path style="opacity:0.947" fill="#880088" d="M 194.5,219.5 C 198.807,223.472 203.141,227.472 207.5,231.5C 205.151,233.341 202.485,234.674 199.5,235.5C 195.128,231.126 190.461,227.126 185.5,223.5C 188.256,221.796 191.256,220.463 194.5,219.5 Z"/></g>
<g><path style="opacity:0.951" fill="#8a0084" d="M 185.5,223.5 C 190.461,227.126 195.128,231.126 199.5,235.5C 196.47,237.403 193.137,238.737 189.5,239.5C 184.807,235.139 180.141,230.805 175.5,226.5C 178.699,225.101 182.032,224.101 185.5,223.5 Z"/></g>
<g><path style="opacity:0.91" fill="#8c0081" d="M 175.5,226.5 C 180.141,230.805 184.807,235.139 189.5,239.5C 183.598,243.363 177.265,244.196 170.5,242C 166.514,237.373 166.514,232.706 170.5,228C 172.025,226.991 173.692,226.491 175.5,226.5 Z"/></g>
</svg>
