<svg xmlns="http://www.w3.org/2000/svg" width="320" height="278" viewBox="0 0 320 278" version="1.1">
	<path fill-opacity="0.420" d="M 0 139.003 L 0 278.006 160.250 277.753 L 320.500 277.500 320.754 138.750 L 321.007 0 160.504 0 L 0 0 0 139.003 M 0.486 139.500 C 0.486 215.950, 0.605 247.077, 0.750 208.672 C 0.895 170.266, 0.895 107.716, 0.750 69.672 C 0.605 31.627, 0.486 63.050, 0.486 139.500" stroke="none" fill="black" fill-rule="evenodd"/>
	<path fill-opacity="0.364" d="M 0 139.003 L 0 278.006 160.250 277.753 L 320.500 277.500 320.754 138.750 L 321.007 0 160.504 0 L 0 0 0 139.003 M 0.486 139.500 C 0.486 215.950, 0.605 247.077, 0.750 208.672 C 0.895 170.266, 0.895 107.716, 0.750 69.672 C 0.605 31.627, 0.486 63.050, 0.486 139.500 M 192.532 216.250 C 180.812 240.038, 171.324 259.614, 171.448 259.754 C 171.572 259.893, 192.110 247.712, 217.087 232.684 C 249.246 213.335, 262.583 204.797, 262.783 203.430 C 263.011 201.879, 258.397 198.705, 239.257 187.250 C 226.162 179.412, 215.087 173, 214.645 173 C 214.203 173, 204.252 192.462, 192.532 216.250" stroke="none" fill="black" fill-rule="evenodd"/>
	<path fill-opacity="0.224" d="M 0 139.003 L 0 278.006 160.250 277.753 L 320.500 277.500 320.754 138.750 L 321.007 0 160.504 0 L 0 0 0 139.003 M 0.486 139.500 C 0.486 215.950, 0.605 247.077, 0.750 208.672 C 0.895 170.266, 0.895 107.716, 0.750 69.672 C 0.605 31.627, 0.486 63.050, 0.486 139.500 M 169.078 31.733 C 168.353 43.155, 167.474 56.921, 167.125 62.325 L 166.491 72.149 189.798 86.158 L 213.106 100.167 226.303 92.344 C 255.551 75.007, 262.498 70.460, 262.770 68.472 C 262.991 66.852, 254.880 61.586, 217.380 39 C 192.267 23.875, 171.422 11.380, 171.058 11.233 C 170.694 11.086, 169.803 20.311, 169.078 31.733 M 243.105 100.523 C 227.488 109.563, 213.639 117.661, 212.331 118.519 C 209.964 120.070, 209.953 120.159, 210.226 136.742 L 210.500 153.407 221 159.535 C 265.567 185.544, 272.385 189.247, 273.926 188.275 C 275.316 187.398, 275.534 181.622, 275.787 138.891 C 275.944 112.276, 275.811 89.037, 275.491 87.250 C 275.098 85.056, 274.356 84.014, 273.205 84.043 C 272.267 84.066, 258.722 91.482, 243.105 100.523 M 189.075 185.661 L 166.650 199.266 159.382 199.657 C 142.042 200.592, 70.876 205.790, 70.518 206.148 C 70.302 206.365, 90.663 218.908, 115.765 234.021 C 158.060 259.486, 161.739 261.496, 165.953 261.450 C 170.101 261.403, 174.538 258.958, 216.500 233.589 C 241.800 218.294, 262.830 205.267, 263.234 204.640 C 263.637 204.013, 263.834 203.050, 263.671 202.500 C 263.201 200.910, 215.717 172.132, 213.500 172.092 C 212.400 172.073, 201.409 178.179, 189.075 185.661" stroke="none" fill="black" fill-rule="evenodd"/>
	<path fill-opacity="0.973" d="M 0 139.003 L 0 278.006 160.250 277.753 L 320.500 277.500 320.754 138.750 L 321.007 0 160.504 0 L 0 0 0 139.003 M 0.486 139.500 C 0.486 215.950, 0.605 247.077, 0.750 208.672 C 0.895 170.266, 0.895 107.716, 0.750 69.672 C 0.605 31.627, 0.486 63.050, 0.486 139.500 M 161.279 9.602 C 160.608 9.902, 136.533 24.295, 107.779 41.586 C 62.509 68.810, 55.433 73.384, 55 75.697 C 54.725 77.166, 54.725 104.042, 55 135.421 C 55.448 186.517, 55.666 192.505, 57.090 192.779 C 58.408 193.033, 102.555 167.274, 106.706 163.829 C 107.709 162.997, 108 156.381, 108 134.433 L 108 106.112 136.416 89.050 L 164.832 71.989 188.166 85.994 C 201 93.696, 212.167 99.999, 212.983 99.999 C 215.190 100, 263.036 71.069, 263.704 69.330 C 264.020 68.507, 263.428 67.034, 262.389 66.057 C 261.350 65.080, 240.036 52.012, 215.024 37.015 C 170.872 10.543, 165.411 7.757, 161.279 9.602 M 269.500 84.688 C 256.278 91.776, 190.233 130.542, 189.250 131.792 C 187.284 134.293, 187.712 139.773, 190.030 141.760 C 192.111 143.544, 210.188 154.189, 250.230 177.210 C 269.279 188.162, 273.206 190.074, 274.480 189.017 C 275.804 187.918, 276 181.147, 276 136.578 C 276 79.358, 276.217 81.088, 269.500 84.688 M 92 185.984 C 66.887 201.174, 64.902 202.893, 68.706 206.143 C 72.869 209.699, 161.048 262.060, 163.802 262.610 C 167.715 263.393, 168.797 262.800, 221 231.214 C 252.636 212.073, 263.575 204.974, 263.794 203.442 C 264.039 201.729, 260.188 199.032, 240.794 187.334 C 227.982 179.606, 216.453 172.735, 215.174 172.066 C 213.049 170.954, 210.832 172.066, 189.556 184.924 C 176.745 192.666, 165.784 199, 165.198 199 C 164.612 199, 154.035 192.933, 141.693 185.517 C 129.351 178.102, 118.634 171.838, 117.877 171.599 C 117.119 171.359, 105.475 177.832, 92 185.984" stroke="none" fill="black" fill-rule="evenodd"/>
</svg>