<?xml version="1.0"?><svg xmlns="http://www.w3.org/2000/svg" width="36" height="36" shape-rendering="geometricPrecision" text-rendering="geometricPrecision" image-rendering="optimizeQuality" fill-rule="evenodd" clip-rule="evenodd" viewBox="0 0 36 36"><path fill="#f9eae2" d="m0 0h36v36h-36v-36z"></path><path fill="#a88673" d="m25.1 14.3c-0.4 0.7-0.9 1.3-1.6 1.8-1.7-0.5-3 0-3.9 1.5-0.8 0-1.6 0-2.5 0-0.3-0.1-0.5-0.1-0.8-0.2 0 0 0 0 0 0.1-0.8-1.3-2-1.8-3.5-1.5-0.5-0.5-1-1.1-1.5-1.8-0.1 0-0.1 0-0.2 0 0-0.1 0-0.1 0-0.2-1.5-2.7-1.1-5.1 1.2-7.2 0.9-0.8 1.9-1.3 3.1-1.5 0.2 0 0.3 0.2 0.3 0.4 0 0.4-0.1 0.7-0.2 1.1-0.3 1 0.1 1.8 1.1 2.2 0.3 0.1 0.7 0.2 1 0.2 1.5 0 2.9 0.1 4.4 0.3 2.8 0.5 3.8 2.1 3.1 4.8z"></path><path fill="#9b7861" d="m11.1 14.2c0.1 0 0.1 0 0.2 0 0.5 0.7 1 1.3 1.5 1.8-1.8 0.7-2.5 1.9-2.1 3.9 0.7 1.7 1.9 2.3 3.7 2 1.6-0.7 2.3-1.8 2.2-3.5-0.1-0.3-0.2-0.6-0.3-0.9 0-0.1 0-0.1 0-0.1 0.3 0.1 0.5 0.1 0.8 0.2 0.9 0 1.7 0 2.5 0-0.6 1.6-0.2 2.9 1.1 3.9 1.5 0.8 2.8 0.6 4-0.6 1.1-1.6 0.9-3-0.5-4.4-0.2-0.1-0.4-0.3-0.7-0.4 0.7-0.5 1.2-1.1 1.6-1.8 2.5 0.9 3.6 2.7 3.2 5.3-0.7 1.4-1.8 2.5-3.3 3-1.8 0.8-3.6 1.2-5.5 1.2-1-0.6-2.1-0.6-3.1 0-2.3 0-4.5-0.6-6.5-1.7-1-0.5-1.7-1.3-2.2-2.3-0.1-0.1-0.2-0.1-0.3-0.1 0.1-0.1 0.1-0.1 0.2-0.1-0.4-2.2 0.4-3.9 2.3-5 0.4-0.2 0.8-0.3 1.2-0.4z"></path><path fill="#f8e9e1" d="m16.3 17.5c0.1 0.3 0.2 0.6 0.3 0.9 0.1 1.7-0.6 2.8-2.2 3.5-1.8 0.3-3-0.3-3.7-2-0.4-2 0.3-3.2 2.1-3.9 1.5-0.3 2.7 0.2 3.5 1.5z m7.2-1.4c0.3 0.1 0.5 0.3 0.7 0.4 1.4 1.4 1.6 2.8 0.5 4.4-1.2 1.2-2.5 1.4-4 0.6-1.3-1-1.7-2.3-1.1-3.9 0.9-1.5 2.2-2 3.9-1.5z"></path><path fill="#242021" d="m14.1 17.4c1.3 0 1.9 0.7 1.8 2-0.5 1-1.3 1.3-2.4 0.8-0.8-0.9-0.8-1.7 0.1-2.6l0.5-0.2z m7 0c1.3-0.1 1.9 0.6 1.9 1.8-0.4 1.1-1.2 1.5-2.3 1.1-0.8-0.8-0.9-1.6-0.2-2.5 0.2-0.1 0.4-0.3 0.6-0.4z"></path><path fill="#89664c" d="m28.3 19.6c1.1 0.2 1.8 0.9 2.1 2 0.8 3.9-0.6 6.5-4.4 7.9-1.5 0.5-3.1 0.8-4.7 0.9-3.5 0.5-6.9 0.2-10.3-0.7-1.7-0.4-3.1-1.3-4.4-2.5-1.1-1.3-1.5-2.8-1.3-4.5 0.1-1 0.5-1.9 1.2-2.6 0.3-0.2 0.6-0.4 0.9-0.4 0.1 0 0.2 0 0.3 0.1 0.5 1 1.2 1.8 2.2 2.3 2 1.1 4.2 1.7 6.5 1.7-1 1-1.2 2.1-0.6 3.4 0.7 0.9 1.6 1.3 2.8 1.1 1.4-0.5 2-1.5 1.9-3-0.2-0.6-0.5-1.1-1-1.5 1.9 0 3.7-0.4 5.5-1.2 1.5-0.5 2.6-1.6 3.3-3z"></path><path fill="#231f20" d="m19.5 23.8c0.5 0.4 0.8 0.9 1 1.5 0.1 1.5-0.5 2.5-1.9 3-1.2 0.2-2.1-0.2-2.8-1.1-0.6-1.3-0.4-2.4 0.6-3.4 1-0.6 2.1-0.6 3.1 0z"></path></svg>