<svg xmlns="http://www.w3.org/2000/svg" version="1.1" width="512px" height="512px" style="shape-rendering:geometricPrecision; text-rendering:geometricPrecision; image-rendering:optimizeQuality; fill-rule:evenodd; clip-rule:evenodd" xmlns:xlink="http://www.w3.org/1999/xlink">
<g><path style="opacity:1" fill="#f9eae2" d="M -0.5,-0.5 C 170.167,-0.5 340.833,-0.5 511.5,-0.5C 511.5,170.167 511.5,340.833 511.5,511.5C 340.833,511.5 170.167,511.5 -0.5,511.5C -0.5,340.833 -0.5,170.167 -0.5,-0.5 Z"/></g>
<g><path style="opacity:1" fill="#a88673" d="M 357.5,203.5 C 351.291,213.38 343.625,222.047 334.5,229.5C 310.113,221.515 291.446,228.515 278.5,250.5C 267.013,250.383 255.347,250.216 243.5,250C 239.55,249.538 235.716,248.704 232,247.5C 231.601,247.728 231.435,248.062 231.5,248.5C 219.82,230.824 203.487,223.824 182.5,227.5C 174.525,219.85 167.192,211.517 160.5,202.5C 159.675,201.614 158.675,201.281 157.5,201.5C 157.804,200.85 158.137,200.183 158.5,199.5C 136.465,161.022 141.799,126.855 174.5,97C 187.14,85.8474 201.807,78.6807 218.5,75.5C 222.317,75.6535 223.984,77.6535 223.5,81.5C 222.807,86.6075 221.64,91.6075 220,96.5C 216.291,111.58 221.457,122.08 235.5,128C 240.415,129.416 245.415,130.416 250.5,131C 271.218,131.552 291.885,132.885 312.5,135C 352.58,141.707 367.58,164.54 357.5,203.5 Z"/></g>
<g><path style="opacity:1" fill="#9b7861" d="M 157.5,201.5 C 158.675,201.281 159.675,201.614 160.5,202.5C 167.192,211.517 174.525,219.85 182.5,227.5C 156.172,236.819 146.005,255.153 152,282.5C 161.937,306.555 179.77,316.055 205.5,311C 227.749,302.01 237.916,285.51 236,261.5C 234.989,256.967 233.489,252.633 231.5,248.5C 231.435,248.062 231.601,247.728 232,247.5C 235.716,248.704 239.55,249.538 243.5,250C 255.347,250.216 267.013,250.383 278.5,250.5C 270.304,272.932 275.637,291.432 294.5,306C 315.417,316.652 334.251,313.819 351,297.5C 366.759,274.774 364.593,253.941 344.5,235C 341.3,232.901 337.967,231.067 334.5,229.5C 343.625,222.047 351.291,213.38 357.5,203.5C 392.725,216.274 407.725,241.274 402.5,278.5C 392.859,299.3 377.193,313.8 355.5,322C 330.48,332.304 304.48,337.804 277.5,338.5C 262.809,329.247 248.142,329.247 233.5,338.5C 200.543,338.344 169.543,330.511 140.5,315C 126.473,307.309 116.307,296.142 110,281.5C 108.67,280.418 107.17,279.751 105.5,279.5C 106.209,278.596 107.209,278.263 108.5,278.5C 102.349,246.968 113.349,223.468 141.5,208C 146.669,205.335 152.002,203.168 157.5,201.5 Z"/></g>
<g><path style="opacity:1" fill="#f8e9e1" d="M 231.5,248.5 C 233.489,252.633 234.989,256.967 236,261.5C 237.916,285.51 227.749,302.01 205.5,311C 179.77,316.055 161.937,306.555 152,282.5C 146.005,255.153 156.172,236.819 182.5,227.5C 203.487,223.824 219.82,230.824 231.5,248.5 Z"/></g>
<g><path style="opacity:1" fill="#f8e9e1" d="M 334.5,229.5 C 337.967,231.067 341.3,232.901 344.5,235C 364.593,253.941 366.759,274.774 351,297.5C 334.251,313.819 315.417,316.652 294.5,306C 275.637,291.432 270.304,272.932 278.5,250.5C 291.446,228.515 310.113,221.515 334.5,229.5 Z"/></g>
<g><path style="opacity:1" fill="#242021" d="M 200.5,247.5 C 219.382,247.544 227.882,256.877 226,275.5C 218.694,290.569 207.528,294.402 192.5,287C 180.209,274.573 180.542,262.573 193.5,251C 195.925,249.787 198.259,248.621 200.5,247.5 Z"/></g>
<g><path style="opacity:1" fill="#242021" d="M 300.5,247.5 C 318.895,246.729 327.728,255.396 327,273.5C 321.185,289.321 310.352,294.154 294.5,288C 282.427,277.204 281.427,265.537 291.5,253C 294.596,251.128 297.596,249.295 300.5,247.5 Z"/></g>
<g><path style="opacity:1" fill="#89664c" d="M 402.5,278.5 C 417.946,281.776 427.78,291.11 432,306.5C 444.126,362.422 423.293,399.922 369.5,419C 347.79,426.532 325.456,431.198 302.5,433C 253.149,438.942 204.482,435.609 156.5,423C 132.537,416.442 111.704,404.609 94,387.5C 78.8298,368.498 72.8298,346.831 76,322.5C 77.0395,308.259 82.5395,296.092 92.5,286C 96.3088,282.762 100.642,280.596 105.5,279.5C 107.17,279.751 108.67,280.418 110,281.5C 116.307,296.142 126.473,307.309 140.5,315C 169.543,330.511 200.543,338.344 233.5,338.5C 218.532,352.188 215.698,368.188 225,386.5C 234.76,400.091 247.927,405.258 264.5,402C 284.609,394.963 293.442,380.796 291,359.5C 288.481,351.104 283.981,344.104 277.5,338.5C 304.48,337.804 330.48,332.304 355.5,322C 377.193,313.8 392.859,299.3 402.5,278.5 Z"/></g>
<g><path style="opacity:1" fill="#231f20" d="M 277.5,338.5 C 283.981,344.104 288.481,351.104 291,359.5C 293.442,380.796 284.609,394.963 264.5,402C 247.927,405.258 234.76,400.091 225,386.5C 215.698,368.188 218.532,352.188 233.5,338.5C 248.142,329.247 262.809,329.247 277.5,338.5 Z"/></g>
</svg>
