<?xml version="1.0"?><svg xmlns="http://www.w3.org/2000/svg" width="36" height="36" shape-rendering="geometricPrecision" text-rendering="geometricPrecision" image-rendering="optimizeQuality" fill-rule="evenodd" clip-rule="evenodd" viewBox="0 0 36 36"><path fill="#edda6b" d="m15.7-0.1h2.9v0.9c0.3 0 0.5 0 0.7 0 0 0.1-0.1 0.1-0.2 0.1-1 0-1.9 0-2.9 0.1-1 0.2-2.1 0.4-3.2 0.6h-0.4v-0.8c1-0.4 2-0.7 3.1-0.9z" opacity=".9"></path><path fill="#c99c3a" d="m18.6-0.1h1.4c0.8 0.2 1.5 0.4 2.1 0.6 0 0.3 0.1 0.6 0.2 0.9-0.1 0.1-0.2 0.1-0.3 0.1-1-0.2-2-0.4-2.9-0.6 0.1 0 0.2 0 0.2-0.1-0.2 0-0.4 0-0.7 0v-0.9z" opacity=".948"></path><path fill="#d0a879" d="m22.1 0.5c0.6 0 1.1 0.2 1.6 0.4v1.1c-0.6-0.1-1.2-0.3-1.7-0.5 0.1 0 0.2 0 0.3-0.1-0.1-0.3-0.2-0.6-0.2-0.9z" opacity=".961"></path><path fill="#161410" d="m19.1 0.9c0.9 0.2 1.9 0.4 2.9 0.6 0.5 0.2 1.1 0.4 1.7 0.5 0.4 0.3 0.8 0.5 1.3 0.6 0.9 0.5 1.8 1 2.6 1.7 0.8 0.5 1.5 1.2 2.1 1.8 1.5 1.7 2.7 3.6 3.6 5.6 1.3 4.2 1.3 8.3 0 12.4-0.9 2.1-2.1 3.9-3.6 5.6-0.3 0.3-0.6 0.6-0.8 0.9-0.9 0.8-1.8 1.5-2.8 2.1-0.3 0.1-0.6 0.2-0.9 0.4-0.5 0.2-1 0.5-1.5 0.7-0.4 0.1-0.8 0.2-1.1 0.4-1.2 0.3-2.3 0.5-3.4 0.7-1.2 0.1-2.4 0-3.5-0.1-1.5-0.3-3-0.7-4.4-1.3-2.7-1.3-5-3.2-6.9-5.7-0.2-0.5-0.4-0.9-0.7-1.3l-1-2c-0.3-1-0.6-2.1-0.9-3.2-0.5-2.8-0.4-5.7 0.4-8.4 0.3-1.1 0.7-2.1 1.2-3.1 0.7-1.2 1.5-2.4 2.4-3.4 1.5-1.5 3.1-2.8 5-3.8 0.7-0.3 1.5-0.6 2.2-1 1.1-0.2 2.2-0.4 3.2-0.6 1-0.1 1.9-0.1 2.9-0.1z"></path><path fill="#f8f3ac" d="m12.6 0.8v0.8h0.4c-0.7 0.4-1.5 0.7-2.2 1-0.1-0.2-0.3-0.2-0.4 0-0.1-0.3-0.1-0.7-0.1-1 0.8-0.3 1.5-0.6 2.3-0.8z" opacity=".882"></path><path fill="#dcbcb5" d="m23.7 0.9c0.5 0.2 0.9 0.4 1.4 0.6 0 0.3 0 0.6 0.1 0.9-0.1 0-0.2 0.1-0.2 0.2-0.5-0.1-0.9-0.3-1.3-0.6v-1.1z" opacity=".95"></path><path fill="#dddad3" d="m15.8 1.6c0.2 0.1 0.3 0.3 0.3 0.5 0.1 0.3 0.1 0.5 0 0.6-0.2-0.3-0.3-0.7-0.3-1.1z"></path><path fill="#b4af96" d="m17.8 1.5c0.3-0.1 0.6 0 0.8 0.3l-0.1 0.1c-0.3-0.4-0.6-0.3-0.7 0.2 0 0.1 0.1 0.2 0.1 0.3 0.7 0.1 0.7 0.2 0 0.3-0.5-0.4-0.5-0.8-0.1-1.2z"></path><path fill="#c4c2c0" d="m14.8 1.9c0.5-0.3 0.8-0.1 0.9 0.5-0.4 0.8-0.8 0.8-1.1 0-0.1-0.2 0-0.4 0.2-0.5z"></path><path fill="#171616" d="m14.8 1.9c0.5 0.1 0.7 0.3 0.5 0.8-0.2 0-0.3 0.1-0.5 0v-0.8z"></path><path fill="#e8e6dc" d="m16.4 1.8c0.1-0.2 0.2-0.2 0.4-0.1 0.2 0.3 0.4 0.5 0.6 0.8l-0.2 0.1c-0.2-0.3-0.5-0.6-0.8-0.8z"></path><path fill="#71551f" d="m20.2 2.5c0-0.3 0-0.5-0.2-0.7 0-0.2 0.2-0.2 0.5-0.1 0.3 0.4 0.2 0.6-0.3 0.8z"></path><path fill="#c7c3be" d="m13.7 2c0.2 0 0.4 0 0.6 0.2-0.1 0-0.3 0.1-0.4 0.1-0.3 0.4-0.2 0.7 0.4 0.8-0.9 0.1-1.1-0.3-0.6-1.1z"></path><path fill="#9b8a56" d="m19.2 1.6c0.2 0.3 0.3 0.6 0.4 1l-0.1 0.1c-0.3-0.3-0.5-0.3-0.7 0-0.2-0.1-0.2-0.2 0-0.4 0.1 0 0.3-0.1 0.4-0.1-0.2-0.2-0.2-0.4 0-0.6z"></path><path fill="#e9bf72" d="m21 1.9c0.1 0 0.2 0 0.3 0.1-0.4 1.2-0.5 1.2-0.3-0.1z"></path><path fill="#c7bb93" d="m12.7 2.3c0.2 0 0.3 0 0.4 0.2-0.1 0-0.2 0-0.2 0.2 0 0.2 0.1 0.5 0.2 0.7l-0.1 0c-0.2-0.1-0.3-0.3-0.4-0.6l-0.4-0.1c0.2-0.2 0.3-0.3 0.5-0.4z"></path><path fill="#dbab3f" d="m20 1.8c0.2 0.2 0.2 0.4 0.2 0.7-0.1 0.3-0.2 0.3-0.3 0 0.1-0.2 0.1-0.5 0.1-0.7z"></path><path fill="#b5a6a6" d="m21.6 1.9c0.4 0.1 0.7 0.2 1 0.4-0.2 0.2-0.3 0.2-0.5 0l-0.4 0.9-0.1-0.2c0.1-0.2 0.2-0.5 0.3-0.7-0.4-0.1-0.5-0.2-0.3-0.4z"></path><path fill="#d9d0ca" d="m22.9 2.5c0.1 0.1 0.2 0.3 0.2 0.5l0 0.6c-0.3-0.4-0.3-0.8-0.2-1.1z"></path><path fill="#ebd4e7" d="m25.1 1.5c1 0.4 1.9 1 2.7 1.7-0.2 0.3-0.2 0.7-0.2 1.1-0.8-0.7-1.7-1.2-2.6-1.7 0-0.1 0.1-0.2 0.2-0.2-0.1-0.3-0.1-0.6-0.1-0.9z" opacity=".878"></path><path fill="#bcac5d" d="m11.6 2.7c0.7 0.2 0.7 0.3 0 0.5 0.1 0.1 0.3 0.1 0.4 0.2-0.3 0.1-0.3 0.2 0 0.3 0.2-0.1 0.3-0.1 0.4 0-0.2 0.2-0.5 0.3-0.8 0.3 0-0.3-0.1-0.6-0.3-0.9 0.1-0.1 0.2-0.3 0.3-0.4z"></path><path fill="#e7e5de" d="m19.2 3.2c-0.9 0.1-1.8 0.2-2.7 0.2 0.9 0 1.7 0.1 2.4 0.3-3.2-0.2-6.1 0.6-8.7 2.4-0.1 0-0.1 0.1-0.1 0.2-0.2 0.1-0.4 0.2-0.6 0.4-0.3 0.2-0.5 0.4-0.9 0.5 0.1-0.1 0-0.2-0.1-0.2-0.3 0.3-0.7 0.6-1.1 0.8 3.2-3.5 7.1-5 11.8-4.6z"></path><path fill="#ede3ad" d="m19.2 3.2c1 0 2 0.2 2.9 0.5-0.1 0.1-0.2 0.2-0.4 0.2 0.1 0.1 0.2 0.2 0.2 0.2-1-0.1-2-0.3-3-0.4-0.7-0.2-1.5-0.3-2.4-0.3 0.9 0 1.8-0.1 2.7-0.2z"></path><path fill="#d9c744" d="m10.2 3.7c0.4-0.1 0.8-0.1 1.1 0.3l-0.1 0.1c-0.3-0.1-0.7-0.3-1-0.4z"></path><path fill="#b8b094" d="m23.7 2.7c0.1 0 0.2 0.1 0.3 0.2-0.2 0.2-0.3 0.5-0.3 0.8 0.2 0 0.4 0 0.6 0-0.3 0.4-0.5 0.4-0.8 0 0-0.3 0-0.6 0.2-1z"></path><path fill="#eed8b9" d="m27.8 3.2c0.7 0.4 1.4 0.9 1.9 1.5v1.4c-0.6-0.6-1.3-1.3-2.1-1.8 0-0.4 0-0.8 0.2-1.1z" opacity=".846"></path><path fill="#78601b" d="m26.1 3.9v0.4c-0.2 0.1-0.4 0.3-0.5 0.6 0-0.4 0.2-0.8 0.5-1z"></path><path fill="#e0c244" d="m26.1 3.9c0.1 0 0.1 0 0.2 0.1 0.1 0.4 0.1 0.8-0.1 1.1-0.1-0.2-0.2-0.5-0.1-0.8v-0.4z"></path><path fill="#fbf5e6" d="m10.3 1.6c0 0.3 0 0.7 0.1 1 0.1-0.2 0.3-0.2 0.4 0-1.9 1-3.5 2.3-5 3.8-0.2-0.3-0.3-0.7-0.2-1.1 1.3-1.5 2.9-2.7 4.7-3.7z" opacity=".948"></path><path fill="#eadb7b" d="m27.1 4.6c0.1 0 0.2 0 0.3 0.1-1 1.1-1 1.1-0.3-0.1z"></path><path fill="#d0a547" d="m22.1 3.7c1.9 0.6 3.5 1.4 4.8 2.7 0 0-0.1 0-0.1 0.1 0.4 0.2 0.4 0.4 0.1 0.6-1.5-1.3-3.2-2.3-5-3 0 0-0.1-0.1-0.2-0.2 0.2 0 0.3-0.1 0.4-0.2z"></path><path fill="#cec5af" d="m8.1 5c0.3 0.1 0.6 0.4 0.8 0.7l0.3-0.4 0.2 0.1c-0.2 0.3-0.4 0.5-0.7 0.6-0.2-0.3-0.4-0.7-0.6-1z"></path><path fill="#c7bda1" d="m27.8 5.1c0.3 0.2 0.6 0.4 0.8 0.7-0.1 0.2-0.3 0.1-0.3-0.1-0.9 0.9-1 0.8-0.2-0.2-0.2-0.1-0.3-0.2-0.3-0.4z"></path><path fill="#d8d1cd" d="m7.5 5.7c0.4 0.1 0.7 0.2 1 0.4-0.5 0.2-0.8 0.1-1-0.4z"></path><path fill="#c8bbbc" d="m7 6c0.1 0.1 0.1 0.3 0 0.5l0.5 0.5-0.2 0.2c-0.5-0.3-0.7-0.7-0.3-1.2z"></path><path fill="#d3cfc9" d="m28.5 6.1c0.8 0.1 0.8 0.2 0.1 0.4-0.1 0.2-0.2 0.4-0.2 0.6-0.3-0.3-0.2-0.7 0.1-1z"></path><path fill="#0b0805" d="m18.9 3.7c1 0.1 2 0.3 3 0.4 1.8 0.7 3.5 1.7 5 3l1.2 1c1.5 1.8 2.6 4 3.3 6.3 0.1 0.6 0.2 1.1 0.2 1.7v0.4h-1.9c-0.1-1.5-0.5-2.9-1.2-4.2 0.6 1.4 0.9 2.9 1.1 4.5h0.8v0.4h-1.2c0-1.7-0.4-3.3-1.2-4.8 0.3 1 0.6 2 0.8 3 0.2 0.6 0.3 1.3 0.3 2 0.4 0.1 0.9 0.1 1.3 0.1v0.4c-0.4 0-0.9 0-1.3 0.2-0.1 1.1-0.3 2.1-0.6 3.2-0.4 1.1-0.9 2.2-1.4 3.2 1.4-1.9 2.1-4 2.1-6.3h1.2v0.4c-0.2 0-0.5 0-0.7 0.2-0.3 2.3-1.1 4.4-2.3 6.3-0.3 0.1-0.4 0.3-0.5 0.6-0.5 0.4-1 0.9-1.5 1.5-3.6 2.7-7.5 3.3-11.7 1.8-0.9-0.4-1.7-0.9-2.5-1.4-0.2-0.3-0.4-0.4-0.7-0.5-0.4-0.5-0.8-0.9-1.3-1.3-0.2-0.4-0.5-0.8-0.8-1.1-0.2-0.1-0.3-0.2-0.3-0.4-2-3.8-2.2-7.6-0.7-11.5 0-0.1-0.1-0.2-0.2-0.3l-1.5-0.6c-0.1-0.1-0.2-0.2-0.1-0.3 0.1-0.4 0.4-0.8 0.7-1.1 1 0.5 2 1 3.1 1.6-1.5 2.5-2 5.2-1.4 8.1 0.2 0.8 0.5 1.6 0.9 2.2 0 0.2 0.1 0.3 0.2 0.3 0.1 0.6 0.5 1.2 1 1.6 1.6 2.3 3.9 3.6 6.8 4 0.1 0.1 0.2 0.2 0.2 0.3-2.3-0.3-4.3-1.1-6.1-2.5 1.7 1.7 3.7 2.6 6.1 2.7 2.1 0.2 4.1-0.2 6-1.2 0.4-0.2 0.8-0.5 1-0.8 0.9-0.4 1.5-1 2-1.8 0.4-0.4 0.8-0.9 1-1.4 1.1-1.7 1.7-3.6 1.6-5.7-0.8-0.1-1.6-0.2-2.5-0.2 0.9-0.1 1.7-0.1 2.6-0.1 0-2-0.6-3.9-1.7-5.6-0.1-0.3-0.3-0.6-0.6-0.8-0.1-0.3-0.3-0.6-0.6-0.7-1.6-2.1-3.8-3.4-6.6-3.7-2.9-0.4-5.5 0.4-7.8 2.1-0.4-0.3-0.7-0.5-1-0.8-0.2-0.4-0.4-0.7-0.7-0.9-0.1-0.2-0.2-0.4-0.3-0.5 0.2-0.2 0.4-0.3 0.6-0.4 0.1 0.4 0.4 0.7 0.8 0.9-0.2-0.3-0.5-0.7-0.7-1.1 2.6-1.8 5.5-2.6 8.7-2.4z"></path><path fill="#755231" d="m24.3 7.5c-3.4-1.9-6.9-2.2-10.6-0.9-0.8 0.4-1.6 0.8-2.3 1.3-0.3-0.1-0.4-0.4-0.5-0.7 0.2 0.2 0.3 0.3 0.5 0.5 3.6-2.4 7.4-2.8 11.5-1.1 0.5 0.2 1 0.5 1.4 0.9z"></path><path fill="#755331" d="m10.8 7.7c0.2 0.1 0.4 0.3 0.7 0.5 4.5-2.9 9-2.8 13.5 0.4 0.5 0.5 1.1 1.1 1.6 1.7l0 0.2c-3.8-4.1-8.3-5.2-13.5-3-0.5 0.3-1.1 0.6-1.6 1-0.4-0.2-0.6-0.5-0.7-0.8z"></path><path fill="#d2bd6d" d="m16.2 4.7v0.2c0 0 0 0.1-0.1 0.2-0.4 0.1-0.8 0.1-1.1 0-0.7 0.4-1.5 0.6-2.3 0.8-0.5 0.4-1 0.7-1.4 1.1-0.5-0.4-0.5-0.8 0.2-1 0.6 0.1 1.2-0.2 1.5-0.7 0.4-0.2 0.7-0.3 1.1-0.2 0.6-0.2 1.2-0.4 1.9-0.7 0.1 0.1 0.2 0.2 0.2 0.3z"></path><path fill="#d1bd81" d="m26.6 8.2c-0.1 0-0.2 0.1-0.3 0.2-0.4-0.5-0.8-0.9-1.2-1.4-0.2-0.2-0.5-0.2-0.7-0.1-0.3-0.1-0.6-0.4-0.7-0.7-0.3-0.2-0.6-0.3-0.9-0.5-0.1 0.1-0.2 0.1-0.4 0.1-0.4-0.1-0.9-0.3-1.2-0.6-0.3-0.1-0.6 0-0.9 0.1-0.4-0.2-0.9-0.4-1.3-0.4-0.9 0.1-1.8 0.1-2.8 0v-0.2c0.6-0.1 1.1-0.2 1.7-0.4 0.6 0.3 1.2 0.3 1.9 0.1 0.6 0.3 1.2 0.5 1.9 0.7 0.1 0 0.2 0 0.3-0.1 0.6 0.4 1.3 0.8 1.9 1.1 0.2-0.1 0.4-0.1 0.6 0.1 0.3 0.4 0.6 0.7 1 1 0.7 0.1 1 0.4 1.1 1z"></path><path fill="#f8e5a5" d="m5.6 5.3c-0.1 0.4 0 0.8 0.2 1.1-0.9 1-1.7 2.2-2.4 3.4 0.1-0.4 0.2-0.7 0.4-1 0.1-0.5 0.1-1 0.1-1.6 0.4-0.7 1-1.4 1.7-1.9z" opacity=".909"></path><path fill="#7e5834" d="m10.2 6.1c0.2 0.4 0.5 0.8 0.7 1.1-0.4-0.2-0.7-0.5-0.8-0.9 0-0.1 0-0.2 0.1-0.2z"></path><path fill="#e4ba71" d="m6 7c0.3 0.1 0.7 0.4 1 0.7-0.1 0.1-0.2 0.1-0.3 0-0.3-0.2-0.5-0.5-0.7-0.7z"></path><path fill="#100c07" d="m9.5 6.7c0.1 0.1 0.2 0.3 0.3 0.5 0.1 0.4 0.3 0.7 0.7 0.9 0.2 0.4 0.5 0.8 1 1.1 3.6-2.6 7.4-2.9 11.5-1 1 0.7 2 1.4 2.9 2.3 0.1 0.3 0.3 0.5 0.6 0.7 0.3 0.2 0.5 0.5 0.6 0.8 0.9 1.7 1.4 3.6 1.4 5.5-0.2 0-0.3 0-0.4-0.1l0.1-0.1-2.5-0.1c0.6-0.1 1.3-0.1 1.9-0.1 0-2.4-0.8-4.4-2.5-6.1 0.4 0.5 0.7 1.1 1.1 1.6 0.3 0.6 0.6 1.2 0.7 1.8l-0.3 0.2c-0.3 0.1-0.6 0.1-0.9 0-0.4-1.1-1-2.1-1.8-2.9-0.1 0.1-0.1 0.2 0 0.3 0.7 0.7 1.2 1.5 1.5 2.4h-0.2c-0.1-0.4-0.3-0.8-0.6-1.1 0 0.3 0.1 0.6 0.4 0.9l-0.2 0.1c-0.6-1-0.7-0.9-0.3 0.1h-0.1c-0.2-0.4-0.4-0.7-0.7-1 0.1 0.4 0.2 0.7 0.4 1l-0.8 0.2c-0.3-0.7-0.7-1.2-1.3-1.6-1.1-1.1-2.5-1.7-4.1-1.7-1.3 0.1-2.4 0.5-3.3 1.3-0.6 0.3-1.1 0.8-1.6 1.3-0.1 0.1-0.1 0.2 0 0.4 0.2-0.3 0.3-0.5 0.6-0.6 0 0.2-0.1 0.3-0.2 0.4 0.1 0.2 0.2 0.2 0.3 0l0.3 0.2c-0.5 0.1-0.9 0.2-1.4 0.3 0 0 0.1 0.1 0.1 0.1 0.6-0.1 0.8 0.2 0.9 0.7 0 0.9 0 1.8-0.1 2.7-0.3-0.5-0.7-0.9-1.1-1.3-0.5-0.8-1-1.5-1.6-2.2-0.7-0.2-1.4-0.2-2.2 0 0.1 0 0.1 0.1 0.2 0.1 0.3 0 0.6 0.2 0.8 0.6 0.1 1.5 0.1 3.1 0 4.6-0.3 0.3-0.6 0.4-1 0.5 0.4 0.1 0.7 0.1 1 0.1 0 0.2 0.1 0.4 0.2 0.5 0.3 0.8 0.7 1.5 1.2 2.1-0.4-0.8-0.7-1.6-1.1-2.4 0.2-0.2 0.4-0.3 0.7-0.2-0.5 0.3-0.5 0.7-0.1 1.1 0.1-0.2 0.2-0.4 0.4-0.4 0-0.3 0-0.5-0.1-0.7-0.3-0.1-0.6-0.3-0.8-0.6-0.1-1.4-0.1-2.7 0-4.1 0.7 1 1.5 1.9 2.3 2.8 0.1 0.3 0.3 0.5 0.4 0.7-0.1 0-0.2 0.1-0.3 0.2 0.3 0.7 0.7 1.4 1.2 1.9 1 1.6 2.5 2.3 4.4 2.3 0.6 0 1.3-0.1 1.9-0.1v0.1c-2.7 0.7-4.9 0-6.8-2.1 1.2 1.7 2.8 2.6 5 2.7 0.6-0.1 1.2-0.2 1.8-0.5 0.3 0.1 0.6 0 0.8-0.2 1-0.6 1.7-1.3 2.3-2.2 0.6-0.3 0.6-0.7 0-0.9-0.2 0.1-0.4 0.1-0.6 0-0.4 0.9-1.1 1.6-2.1 1.9v-0.3c0.7-0.3 1.2-0.8 1.6-1.5 0.3-0.1 0.4-0.3 0.2-0.6-0.1 0.1-0.2 0.2-0.2 0.3h-0.2c0.1-0.1 0.1-0.3 0.2-0.5-0.1-0.1-0.2-0.2-0.3-0.3 0.2-0.1 0.2-0.3 0-0.4-0.2 0.2-0.4 0.6-0.4 0.9-1.6 1.7-3.3 2-5.4 1-0.2-0.2-0.4-0.5-0.6-0.7-0.1-0.1-0.1-0.2 0.1-0.3 0.8 1.1 1.9 1.6 3.3 1.4 0.5-0.1 1-0.3 1.3-0.7 0.7-0.2 1-0.7 1.1-1.4-0.1 0.1-0.3 0.2-0.4 0.3v-0.4c0-0.3 0.1-0.6 0.3-0.8-0.1-0.2-0.2-0.3-0.4 0 0 0.2-0.1 0.5 0 0.8-0.3 0.4-0.8 0.7-1.3 0.8 0.4-0.3 0.8-0.7 1.1-1.2-0.1 0-0.3 0-0.4 0 0 0.2-0.1 0.4-0.3 0.5 0.1-0.7 0-0.7-0.3 0-0.5 0.3-1 0.5-1.7 0.5h-0.1c0.9-0.1 1.6-0.6 2-1.4l-0.2-0.2c-0.4 0.9-1.1 1.3-2.1 1.1-0.2-0.4-0.4-1-0.4-1.5h1.1c0.6-0.1 0.6-0.2 0-0.3h-1.1c0-0.4 0-0.9 0.1-1.3 1.1-0.2 1.8 0.1 2.3 1 0.2-0.2 0.2-0.3 0-0.5-0.4-0.4-1-0.7-1.6-0.8 0.6-0.1 1.1 0 1.6 0.3l0.1 0c-0.1-0.1-0.2-0.2-0.2-0.4 0.4 0.2 0.7 0.4 0.8 0.9-0.2 0-0.3 0.1-0.3 0.4 0.2 0.2 0.4 0.1 0.5-0.2 0.1 0.3 0.1 0.5 0.1 0.7h0.5c0.2-0.1 0.2-0.3 0-0.5 0 0-0.1 0.1-0.1 0.1-0.3-0.6-0.8-1.1-1.3-1.6-0.5-0.2-1.1-0.4-1.7-0.5l0.3-0.1c0.7 0 1.3 0.3 1.9 0.7 0.1-0.1 0-0.3-0.2-0.4-0.3-0.1-0.6-0.3-0.8-0.5 0.9 0.2 1.5 0.8 1.7 1.7 0.1-0.1 0.2-0.1 0.2-0.3 0-0.3 0-0.6 0.1-0.9 0.1 0.1 0.2 0.2 0.4 0.2 0 0.4 0.2 0.6 0.4 0.9-0.4 2.9 0.9 4.3 3.8 4.1 0.5-0.1 1-0.4 1.4-0.7 0.1-0.1 0.1 0 0.1 0-0.3 1-0.7 2-1.1 2.9 0.4-0.5 0.7-1 0.9-1.7 0.2-0.6 0.4-1.2 0.5-1.9 0-0.1-0.1-0.2-0.1-0.3l-2-0.1c0.8-0.1 1.6-0.1 2.4-0.1-0.2 1.9-0.8 3.7-1.8 5.2 1.3-1.5 1.9-3.3 1.9-5.3-0.6 0-1.3 0-1.9-0.1 0.8-0.1 1.6-0.1 2.4 0-0.3 1.4-0.6 2.7-1 4 0.7-1.3 1.1-2.7 1.1-4.2-0.9 0.1-1.7 0-2.5-0.1 0.1 0 0.1-0.1 0.1-0.2 0.9 0.2 1.8 0.2 2.7 0.2-0.1 1.9-0.5 3.7-1.4 5.5-0.2 0.5-0.6 1-1 1.4-0.7 0.6-1.3 1.2-2 1.8-1.5 1-3.2 1.6-5 1.8l-0.3-0.1c1.6-0.3 3.1-0.8 4.5-1.6 0.3-0.2 0.5-0.4 0.7-0.7-1.5 1-3.1 1.6-4.8 1.9l-0.4-0.2c1.5-0.2 2.9-0.7 4.2-1.5 0.2-0.1 0.2-0.1 0-0.2-3.7 2-7.2 1.9-10.7-0.4 0.6 0.6 1.3 1 2.1 1.3 0.9 0.4 1.9 0.6 2.8 0.8-2 0-3.8-0.6-5.3-1.9-0.6-0.6-1.2-1.2-1.8-1.7-0.3-0.6-0.6-1.1-1-1.6-0.1 0-0.2-0.1-0.2-0.3-1.5-3.6-1.2-7 0.7-10.4-1-0.6-2.1-1.2-3.2-1.8 0.6-1.1 1.4-2.1 2.2-3 0.4-0.1 0.6-0.3 0.9-0.5z"></path><path fill="#88603a" d="m10.8 7.7c-0.4-0.2-0.6-0.5-0.7-0.9 0.3 0.2 0.5 0.5 0.7 0.9z"></path><path fill="#dab17a" d="m26.9 6.4c0.5 0.3 0.8 0.6 1.2 1-0.2 0.2-0.2 0.4 0 0.7l-1.2-1c0.3-0.2 0.3-0.4-0.1-0.6 0-0.1 0.1-0.1 0.1-0.1z"></path><path fill="#d5a63b" d="m5.7 7.7c0.1-0.2 0.2-0.2 0.4-0.2 0 0.2 0 0.3-0.1 0.4-0.1-0.1-0.2-0.2-0.3-0.2z"></path><path fill="#7c5734" d="m25.9 10.5c-0.9-0.9-1.9-1.6-2.9-2.3-4.1-1.9-7.9-1.6-11.5 1-0.5-0.3-0.8-0.7-1-1.1 0.3 0.3 0.6 0.5 1 0.8 2.3-1.7 4.9-2.5 7.8-2.1 2.8 0.3 5 1.6 6.6 3.7z"></path><path fill="#8b623b" d="m9.8 7.2c0.3 0.2 0.5 0.5 0.7 0.9-0.4-0.2-0.6-0.5-0.7-0.9z"></path><path fill="#c7c5c3" d="m29.3 7c0.2-0.1 0.4 0 0.6 0.1-0.3 0.1-0.5 0.2-0.6 0.4-0.1 0.3 0 0.4 0.3 0.4l0.5-0.5c0 0.4-0.1 0.7-0.6 0.8-0.7-0.3-0.8-0.7-0.2-1.2z"></path><path fill="#ddb03f" d="m5.4 7.9c0.1-0.1 0.2-0.1 0.3 0 0.3 0.2 0.5 0.4 0.5 0.7-0.3-0.2-0.5-0.4-0.8-0.7z"></path><path fill="#8c633b" d="m24.3 7.5c0.4 0.2 0.8 0.4 1.1 0.9-0.4-0.2-0.8-0.5-1.1-0.9z"></path><path fill="#b1afa0" d="m26.6 8.2c0.4 0.1 0.7 0.4 0.8 0.7-0.3-0.2-0.6-0.4-0.8-0.7z"></path><path fill="#e7e6e4" d="m30.3 7.9c0.2 0 0.3 0.1 0.2 0.3-0.3 0.2-0.5 0.3-0.7 0.6-0.1-0.1-0.2-0.2-0.2-0.3 0.3-0.1 0.6-0.3 0.7-0.6z"></path><path fill="#e0d282" d="m8.9 8.6h-0.4c-0.1-0.5 0.1-0.5 0.4 0z"></path><path fill="#7a5633" d="m16.4 7.2c2.5-0.3 4.9 0.3 7 1.7-0.8-0.3-1.6-0.6-2.4-1-2.9-0.9-5.7-0.5-8.3 1-0.1 0-0.1-0.1 0-0.2 1.2-0.7 2.4-1.1 3.7-1.5z"></path><path fill="#745433" d="m22.4 9.5c-2.7-1.4-5.5-1.5-8.3-0.2-0.3 0.2-0.6 0.4-0.8 0.6-0.2 0-0.3 0.1-0.4 0.2-0.2-0.1-0.2-0.2 0-0.3 2.4-1.6 4.9-2 7.7-1.2 0.7 0.1 1.3 0.4 1.8 0.9z"></path><path fill="#7d5936" d="m23.6 9.6c-3.8-2.3-7.5-2.2-11.2 0.2l-0.1-0.2c3.3-2.3 6.7-2.5 10.3-0.7 0.4 0.2 0.7 0.4 1 0.7z"></path><path fill="#875f39" d="m9.6 7.8c0.6 0.4 1.1 0.9 1.4 1.6-0.6-0.5-1-1-1.4-1.6z"></path><path fill="#d7c16d" d="m5 8.6c0.4 0 0.7 0.1 1 0.3-0.4 0.2-0.8 0.1-1-0.3z"></path><path fill="#443120" d="m8.5 8.6h0.4c1.3 0.9 2.5 1.8 3.8 2.7-0.2 0.7-0.6 1.3-1.1 1.8-0.2 0.2-0.4 0.4-0.5 0.6l-0.1-0.3c0.2-0.3 0.3-0.7 0.5-1.1 0.1-0.3 0.2-0.6 0.2-0.8-1.1-0.9-2.1-1.7-3.2-2.4 0.2-0.1 0.2-0.3 0-0.5z"></path><path fill="#7b5835" d="m23.4 10.8c-3.3-2.3-6.6-2.4-10.1-0.5-0.2-0.1-0.2-0.2 0-0.4 0.9-0.4 1.9-0.8 2.9-1 2.3-0.5 4.4-0.1 6.4 1.1 0.3 0.2 0.6 0.4 0.8 0.8z"></path><path fill="#ebe9da" d="m30.7 8.5c0.1 0 0.2 0 0.3 0.1-0.6 1.5-0.7 1.5-0.3-0.1z"></path><path fill="#dac678" d="m8.5 8.6c0.2 0.2 0.2 0.4 0 0.5-0.5-0.2-0.5-0.3 0-0.5z"></path><path fill="#f6e8a9" d="m8.6 7.2c-0.8 0.9-1.6 1.9-2.2 3-0.1 0-0.1 0-0.1 0.1-0.1 0-0.2 0-0.2-0.1 0.1-0.3 0.3-0.5 0.4-0.8 0-0.1-0.1-0.2-0.2-0.2 0.3-0.5 0.7-1 1.1-1.4 0.4-0.2 0.8-0.5 1.1-0.8 0.1 0 0.2 0.1 0.1 0.2z"></path><path fill="#e6d384" d="m8.6 9.6h-0.4c0-0.5 0.1-0.5 0.4 0z"></path><path fill="#8c633b" d="m25.4 8.4c0.6 0.3 1.2 0.9 1.5 1.5-0.5-0.5-1-1-1.5-1.5z"></path><path fill="#755331" d="m22.3 10.5c-2.3-1.3-4.7-1.4-7.2-0.6 0-0.1 0-0.1-0.1-0.1 1.7-0.8 3.4-0.9 5.2-0.4 0.8 0.2 1.5 0.6 2.1 1.1z"></path><path fill="#8d643c" d="m24.5 9.8c-0.2-0.1-0.5-0.3-0.7-0.5 0.4 0 0.6 0.2 0.7 0.5z"></path><path fill="#dec277" d="m27.4 8.9c0.6 0.2 1 0.6 0.9 1.3-0.4-0.2-0.7-0.5-1-0.8-0.1-0.2-0.1-0.3 0.1-0.5z"></path><path fill="#322519" d="m7.9 9.8c0.1-0.1 0.2-0.2 0.3-0.2h0.4c0.8 0.5 1.6 1.1 2.3 1.7l0.1 0.3-0.2 0.4c0-0.2-0.1-0.4-0.3-0.4h-0.3c-0.8-0.3-1.4-0.8-2-1.4 0.6 0.3 1.1 0.7 1.7 0.9-0.6-0.5-1.2-1-2-1.3z"></path><path fill="#8c633b" d="m22.4 9.5c0.6 0.2 1.1 0.5 1.4 1-0.5-0.3-1-0.6-1.4-1z"></path><path fill="#8e643c" d="m23.6 9.6c0.3 0.1 0.5 0.3 0.7 0.6-0.4-0.1-0.6-0.3-0.7-0.6z"></path><path fill="#7e5935" d="m24.5 9.8c0.5 0.1 0.7 0.4 0.9 0.8-0.3-0.2-0.6-0.5-0.9-0.8z"></path><path fill="#f4e4a3" d="m29.7 4.7c1.9 1.7 3.3 3.7 4.3 6.1-0.2 0.5-0.2 1.2-0.2 1.8-0.2-0.4-0.3-0.7-0.5-0.9-0.9-2-2.1-3.9-3.6-5.6v-1.4z" opacity=".926"></path><path fill="#fbda6d" d="m3.9 7.2c0 0.6 0 1.1-0.1 1.6-0.2 0.3-0.3 0.6-0.4 1-0.5 1-0.9 2-1.2 3.1-0.1-0.9-0.2-1.7-0.2-2.6 0.5-1.1 1.1-2.1 1.9-3.1z" opacity=".889"></path><path fill="#a69e81" d="m31 9.6c0.6-0.1 0.9 0.1 0.9 0.7l-0.1 0.2c-0.1-0.8-0.4-0.9-0.8-0.3 0 0.2 0.1 0.4 0.3 0.5-0.3 0-0.5-0.2-0.6-0.5 0.1-0.2 0.2-0.4 0.3-0.6z"></path><path fill="#c1ba9c" d="m4.4 9.2c0.2 0 0.2 0 0.3 0.2-0.3 0.2-0.3 0.4-0.1 0.7 0.3 0.1 0.5 0 0.6-0.3 0.1 0.5-0.2 0.7-0.8 0.6-0.3-0.4-0.3-0.8 0-1.2z"></path><path fill="#795533" d="m22.1 10.9c-2.7-1.5-5.4-1.5-8.1 0v-0.1c1.9-1.2 3.9-1.5 6-1 0.8 0.3 1.5 0.6 2.1 1.1z"></path><path fill="#775432" d="m14.4 11c0.6-0.4 1.3-0.7 2.1-0.9 3-0.5 5.4 0.5 7.3 2.8l0 0.1c-2.7-2.9-5.8-3.5-9.4-2z"></path><path fill="#936e44" d="m7.9 9.8c0.8 0.3 1.4 0.8 2 1.3-0.6-0.2-1.1-0.6-1.7-0.9l-0.3-0.4z"></path><path fill="#815b36" d="m24.3 10.2c0.4 0.1 0.7 0.4 0.8 0.8-0.3-0.2-0.6-0.5-0.8-0.8z"></path><path fill="#835c37" d="m26.9 9.9c0.4 0.3 0.7 0.7 0.9 1.1-0.4-0.3-0.7-0.7-0.9-1.1z"></path><path fill="#d3c694" d="m28.3 10.2c0.2 0.1 0.3 0.2 0.3 0.4-0.2 0-0.3-0.2-0.3-0.4z"></path><path fill="#825b37" d="m23.8 10.5c0.5 0.1 0.7 0.4 0.9 0.8-0.3-0.2-0.6-0.5-0.9-0.8z"></path><path fill="#bebbab" d="m3.7 10.3c0.4 0.1 0.7 0.3 1 0.5-0.4 0.2-0.8 0.3-1.3 0.3 0.2-0.2 0.5-0.4 0.7-0.4-0.2 0-0.3-0.2-0.4-0.4z"></path><path fill="#775432" d="m22.9 12.4c-2.5-1.9-5.2-2.3-8.2-1.1 2.6-1.4 5.1-1.2 7.6 0.5 0.2 0.2 0.4 0.4 0.6 0.6z"></path><path fill="#8b623b" d="m22.3 10.5c0.5 0.1 0.9 0.4 1.3 0.9-0.1 0.1-0.2 0.1-0.3 0-0.4-0.3-0.7-0.6-1-0.9z"></path><path fill="#89613a" d="m25.9 10.5c0.3 0.1 0.5 0.4 0.6 0.7-0.3-0.2-0.5-0.4-0.6-0.7z"></path><path fill="#9f8957" d="m15 9.8c0.1 0 0.1 0 0.1 0.1-0.5 0.2-1 0.4-1.4 0.8 0.1 0.1 0.2 0.1 0.3 0.1v0.1c0.1 0.1 0.2 0.2 0.4 0.1l-0.3 0.5c-0.3-0.2-0.6-0.4-0.8-0.7 0.5-0.5 1-0.8 1.7-1z"></path><path fill="#7c5835" d="m12.7 13.7c1.3-1.9 3-2.8 5.3-2.8 2.3 0 4 0.9 5.2 2.8-3.5-3.5-7-3.5-10.5 0z"></path><path fill="#835d37" d="m25.4 10.6c0.3 0.2 0.6 0.5 0.6 0.9-0.3-0.3-0.5-0.5-0.6-0.9z"></path><path fill="#8c633b" d="m23.4 10.8c0.5 0.2 0.9 0.5 1.2 0.9 0.1 0.1 0.1 0.2 0 0.3-0.4-0.4-0.8-0.8-1.2-1.2z"></path><path fill="#d8bc6d" d="m28.6 10.6c0.7 0.2 0.9 0.6 0.7 1.3-0.5-0.2-0.8-0.7-0.7-1.3z"></path><path fill="#d8c87f" d="m32 10.9c0.1 0 0.2 0 0.3 0.1-0.2 0.3-0.4 0.5-0.7 0.7l-0.2-0.1c0.2-0.2 0.4-0.5 0.6-0.7z"></path><path fill="#825b37" d="m8.8 12.3c-0.9-0.5-1.8-0.9-2.7-1.3 1 0.2 1.9 0.5 2.8 1 0.1 0.2 0 0.2-0.1 0.3z"></path><path fill="#97754a" d="m8.2 10.2c0.6 0.6 1.2 1.1 2 1.4 0.1 0.4 0 0.7-0.3 1-0.1-0.3-0.1-0.5 0.2-0.7-0.8-0.5-1.5-1-2.2-1.6 0.1-0.1 0.2-0.1 0.3-0.1z"></path><path fill="#775432" d="m22 13c-2.4-1.7-4.9-1.8-7.4-0.4 0.9-0.8 2-1.2 3.3-1.3 1.6 0 3 0.6 4.1 1.7z"></path><path fill="#8a613a" d="m22.1 10.9c0.8 0.4 1.5 1 2.1 1.7 0.1 0.1 0.1 0.2 0 0.3-0.7-0.7-1.4-1.4-2.1-2z"></path><path fill="#835d37" d="m27.8 11c0.3 0.3 0.5 0.6 0.5 1-0.3-0.3-0.4-0.6-0.5-1z"></path><path fill="#edddd8" d="m28.1 7.4c4.5 5 5.5 10.7 2.8 17-0.7 1.6-1.7 3-3 4.2 0-0.2 0-0.4-0.1-0.5 2.3-2.6 3.6-5.7 3.9-9.2v-2.1c0.1-0.3 0-0.5-0.1-0.7 0-0.6-0.1-1.1-0.2-1.7-0.7-2.3-1.8-4.5-3.3-6.3-0.2-0.3-0.2-0.5 0-0.7z"></path><path fill="#e6e5e1" d="m3.3 11.5c0.4 0.1 0.7 0.3 1 0.5-0.3 0.1-0.6 0-0.9-0.2-0.1-0.1-0.1-0.2-0.1-0.3z"></path><path fill="#7d5935" d="m24.7 11.3c0.2 0.2 0.4 0.3 0.6 0.6 0.1 0.1 0.1 0.2 0 0.3-0.3-0.3-0.5-0.5-0.6-0.9z"></path><path fill="#0d0804" d="m22 13c0.2 0.2 0.3 0.4 0.1 0.6-1.8-1.8-3.9-2.2-6.3-1.4-0.8 0.5-1.5 1-2.2 1.5l1-1.1c2.5-1.4 5-1.3 7.4 0.4z"></path><path fill="#dbb147" d="m32.7 12c-0.3 0-0.6 0.1-0.8 0.3l-0.2-0.1c0.3-0.2 0.5-0.4 0.9-0.5 0.1 0.1 0.1 0.2 0.1 0.3z"></path><path fill="#0a0906" d="m5.4 12c0.7 0.2 1.3 0.5 1.8 0.8-1.2 2.9-1.4 5.8-0.4 8.8 0.3 1 0.7 1.9 1.3 2.7 0 0.2 0.1 0.3 0.3 0.4 0.1 0.5 0.4 0.8 0.8 1.1 0.3 0.6 0.7 1 1.3 1.3 0.1 0.3 0.4 0.5 0.7 0.5 1.9 1.6 4.2 2.4 6.7 2.4 2.9 0 5.4-0.9 7.5-2.8 0.6-0.4 1.2-0.9 1.5-1.5 0.1-0.3 0.2-0.5 0.5-0.6 1.4-1.8 2.2-3.9 2.3-6.2h2c-0.3 3.5-1.6 6.6-3.9 9.2-1.3 1.2-2.7 2.2-4.2 2.9-1.3 0.5-2.6 0.9-3.8 1.1-0.4 0-0.6 0-0.9 0.2-3.9 0.1-7.3-1.1-10.3-3.7l-0.9-1.1c-1-1.1-1.8-2.4-2.4-3.7-1.2-3-1.5-6.2-0.8-9.4 0.2-0.8 0.5-1.6 0.9-2.4z"></path><path fill="#805d38" d="m22.1 13.6c0.2 0.2 0.4 0.4 0.5 0.7-1.9-2.2-4.2-2.8-6.9-1.8-0.6 0.3-1.1 0.7-1.6 1.2-0.2 0.1-0.3 0.2-0.4 0.4-0.1 0.2-0.2 0.2-0.3 0 0.1-0.1 0.2-0.2 0.2-0.4 0.7-0.5 1.4-1 2.2-1.5 2.4-0.8 4.5-0.4 6.3 1.4z"></path><path fill="#edebea" d="m3.2 12.2c0.5-0.1 0.7 0.1 0.7 0.5-0.2-0.2-0.5-0.3-0.9-0.3 0.1-0.1 0.1-0.1 0.2-0.2z"></path><path fill="#967547" d="m10.9 11.3c0.2 0 0.4 0.2 0.6 0.4-0.3 0.5-0.6 1-0.9 1.6-0.1 0.2-0.2 0.2-0.3 0 0.4-0.5 0.6-1 0.9-1.6 0 0-0.1-0.1-0.2-0.1l-0.1-0.3z"></path><path fill="#a47e2a" d="m32.7 12c0.2 0.2 0.1 0.4-0.1 0.6-0.2-0.1-0.3-0.1-0.3-0.2 0.2-0.1 0.3-0.2 0.4-0.4z"></path><path fill="#a08250" d="m10.5 11.6c0.2 0 0.3 0.2 0.3 0.4l-0.5 0.9c-0.1 0.2-0.2 0.2-0.2 0l0.5-1c0-0.1-0.1-0.2-0.1-0.3z"></path><path fill="#805b37" d="m25.7 14.6c-0.2 0-0.3-0.1-0.3-0.2-0.3-0.9-0.8-1.7-1.5-2.4-0.1-0.1-0.1-0.2 0-0.3 0.8 0.8 1.4 1.8 1.8 2.9z"></path><path fill="#0b0703" d="m22.6 14.3c0 0.2 0.1 0.4 0.3 0.5-0.2 0.3-0.4 0.5-0.8 0.6 0-0.4-0.2-0.7-0.5-0.8-0.1-0.4-0.2-0.6-0.6-0.6-1.9-1.6-3.8-1.7-5.9-0.3-0.3 0.1-0.4 0-0.3-0.3l-0.7 0.3c0.5-0.5 1-0.9 1.6-1.2 2.7-1 5-0.4 6.9 1.8z"></path><path fill="#7e5935" d="m14.7 11.3c-0.8 0.6-1.5 1.3-2.3 2 0.5-0.7 1.1-1.3 1.7-1.8l0.6-0.2z"></path><path fill="#835c37" d="m8.8 12.3c-0.1 0.3-0.2 0.6-0.4 0.8 0-0.3 0.1-0.6 0.4-0.8z"></path><path fill="#7d5a37" d="m21 14c-1.3-1-2.8-1.2-4.5-0.8-0.6 0.3-1.2 0.6-1.7 1.1l-0.1-0.2c0.1-0.1 0.3-0.3 0.4-0.4 2.1-1.4 4-1.3 5.9 0.3z"></path><path fill="#735131" d="m30.4 17.2v0.3c-0.4 0-0.9 0-1.3-0.1 0-0.7-0.1-1.4-0.3-2-0.2-1-0.5-2-0.8-3 0.8 1.5 1.2 3.1 1.2 4.8h1.2z"></path><path fill="#face39" d="m2 10.3c0 0.9 0.1 1.7 0.2 2.6-0.8 2.7-0.9 5.6-0.4 8.4 0.1 1.3 0.1 2.5 0.1 3.8-2.1-4.9-2.1-9.8 0.1-14.8z" opacity=".931"></path><path fill="#efedec" d="m2.9 12.7c0.3 0.2 0.6 0.4 1 0.4-0.5 0.3-0.9 0.2-1-0.4z"></path><path fill="#98774a" d="m14.6 12.6l-1 1.1c-0.3 0.1-0.4 0.3-0.6 0.6-0.1-0.2-0.1-0.3 0-0.4 0.5-0.5 1-1 1.6-1.3z"></path><path fill="#221b12" d="m21 14c0.4 0 0.5 0.2 0.6 0.6 0.1 0.3 0.3 0.6 0.5 0.8 0 0.4-0.2 0.7-0.5 1 0-0.4-0.1-0.7-0.4-0.9-0.2-0.3-0.4-0.6-0.5-0.9 0-0.2-0.1-0.2-0.2-0.2l-0.3-0.4c-1.6-1-3.1-0.9-4.7 0.1-0.5 0.5-1 1-1.4 1.6-0.1-0.2-0.1-0.4-0.1-0.6 0.1-0.3 0.3-0.4 0.6-0.5-0.7-0.1-1.3-0.1-1.9 0.1 0 0-0.1-0.1-0.1-0.1 0.5-0.1 0.9-0.2 1.4-0.3l-0.3-0.2c0.1-0.2 0.2-0.3 0.4-0.4l0.7-0.3c-0.1 0.3 0 0.4 0.3 0.3-0.1 0.1-0.3 0.3-0.4 0.4l0.1 0.2c0.5-0.5 1.1-0.8 1.7-1.1 1.7-0.4 3.2-0.2 4.5 0.8z"></path><path fill="#865f39" d="m22.9 12.4c0.3 0.3 0.6 0.6 0.8 1-0.4-0.2-0.7-0.5-0.8-1z"></path><path fill="#7e5935" d="m26.6 14.6c-0.4-0.6-0.7-1.3-0.9-2 0.5 0.6 0.8 1.2 0.9 2z"></path><path fill="#d9c681" d="m29.3 11.9c0.3 0.4 0.6 0.9 0.9 1.2 0.3 0.4 0.3 0.7 0 0.9-0.2 0-0.3 0-0.4-0.1-0.1-0.7-0.3-1.4-0.5-2z"></path><path fill="#b89040" d="m32.4 12.7c0.2 0 0.4 0 0.6 0.2-0.3 0.1-0.6 0.2-0.9 0.4-0.1-0.1-0.1-0.3-0.1-0.4 0.2 0 0.3 0 0.4-0.2z"></path><path fill="#765332" d="m9.5 25.2c-1.4-1.5-2.2-3.3-2.6-5.3-0.5-2.6-0.1-5 1-7.3-0.6-0.4-1.2-0.7-1.9-1-0.2-0.1-0.2-0.2-0.1-0.3 0.8 0.4 1.6 0.7 2.3 1.1-2 4.6-1.6 8.8 1.3 12.8z"></path><path fill="#faf4c2" d="m34 10.8c1.8 4.7 1.8 9.5 0 14.3-0.2-0.6-0.2-1.2-0.2-1.8-0.2 0.4-0.3 0.7-0.5 0.8 1.3-4.1 1.3-8.2 0-12.4 0.2 0.2 0.3 0.5 0.5 0.9 0-0.6 0-1.3 0.2-1.8z" opacity=".918"></path><path fill="#7c5c35" d="m20.2 14c-2.6-1-4.6-0.4-6.1 2 0 1.6-0.2 3.2-0.4 4.7 0.2 0.2 0.3 0.4 0.3 0.6-0.3-0.1-0.4-0.3-0.4-0.6-0.1-0.1 0-0.2 0.1-0.2l0.3-5.4c0 0.2 0 0.4 0.1 0.6 0.4-0.6 0.9-1.1 1.4-1.6 1.6-1 3.1-1.1 4.7-0.1z"></path><path fill="#765332" d="m6.4 10.2c1.1 0.6 2.2 1.2 3.2 1.8-1.9 3.4-2.2 6.8-0.7 10.4-0.4-0.6-0.7-1.4-0.9-2.2-0.6-2.9-0.1-5.6 1.4-8.1-1.1-0.6-2.1-1.1-3.1-1.6v-0.2c0-0.1 0-0.1 0.1-0.1z"></path><path fill="#43301f" d="m22 13c0.6 0.4 1 0.9 1.3 1.6-0.1 0.2-0.2 0.2-0.4 0.2-0.2-0.1-0.3-0.3-0.3-0.5-0.1-0.3-0.3-0.5-0.5-0.7 0.2-0.2 0.1-0.4-0.1-0.6z"></path><path fill="#997648" d="m12.4 13.3c-0.3 0.6-0.6 1.2-0.9 1.8l-0.2-0.2c0.3-0.6 0.7-1.2 1.1-1.6z"></path><path fill="#835d39" d="m23.7 13.4c0.3 0.3 0.5 0.6 0.7 1h-0.3c-0.2-0.3-0.3-0.6-0.4-1z"></path><path fill="#ceb7aa" d="m33 13.1c0.2 0.2 0.3 0.4 0.3 0.8-1.2 0.1-1.3 0-0.2-0.4-0.1-0.1-0.1-0.2-0.1-0.4z"></path><path fill="#91774d" d="m11.5 12.3c-0.2 0.4-0.3 0.8-0.5 1.1l0.1 0.3c0.1-0.2 0.3-0.4 0.5-0.6-0.1 0.4-0.3 0.8-0.4 1.1-0.4 0.1-0.5 0.1-0.3-0.2l-0.3-0.3c0.2-0.5 0.5-1 0.9-1.4z"></path><path fill="#735232" d="m20.5 14.6c-0.2 0.2-0.4 0.3-0.6 0.1 0.1 0 0.2 0 0.3-0.1-1.3-0.7-2.6-0.8-4-0.3 0.5-0.4 1.1-0.6 1.8-0.6 0.9 0.1 1.7 0.3 2.5 0.9z"></path><path fill="#825b37" d="m25.1 12.6c0.5 0.5 0.8 1.1 0.9 1.8l-0.9-1.8z"></path><path fill="#0e0803" d="m19.9 14.7c-0.3-0.2-0.5-0.3-0.8-0.3-1.7-0.5-3.1-0.1-4.1 1.4 0-0.1 0-0.3 0-0.4 0.4-0.4 0.8-0.8 1.2-1.1 1.4-0.5 2.7-0.4 4 0.3-0.1 0.1-0.2 0.1-0.3 0.1z"></path><path fill="#7f5a36" d="m14.8 13.4c1.3-1.1 2.8-1.4 4.5-1 1.5 0.4 2.6 1.2 3.2 2.6-2.1-2.7-4.7-3.2-7.7-1.6z"></path><path fill="#c6c2be" d="m2.7 13.3c0.1 0 0.2 0 0.3 0.1-0.4 0.5-0.3 0.8 0.4 0.7 0.1-0.2 0.2-0.4 0.2-0.5 0.2 0.5 0.1 0.7-0.5 0.8-0.7-0.2-0.8-0.6-0.4-1.1z"></path><path fill="#f0e1a3" d="m14 14.3c0-0.4 0.1-0.4 0.3-0.2-0.1 0.1-0.2 0.2-0.3 0.2z"></path><path fill="#9a7c4e" d="m12.7 13.7c-0.2 0.5-0.4 0.9-0.7 1.4-0.1-0.1-0.2-0.2 0-0.4 0.2-0.4 0.4-0.7 0.7-1z"></path><path fill="#7a5b3a" d="m25.2 14.4h-0.7c-0.4-1-0.3-1.1 0.3-0.1l0.2-0.1c-0.3-0.3-0.4-0.6-0.4-0.9 0.3 0.3 0.5 0.7 0.6 1.1z"></path><path fill="#616052" d="m10.8 14.6c-0.7-0.1-1.4 0-2 0.1-0.1 0-0.1-0.1-0.2-0.1 0.8-0.2 1.5-0.2 2.2 0z"></path><path fill="#90653d" d="m16.2 14.3c-0.4 0.3-0.8 0.7-1.2 1.1 0.2-0.6 0.6-0.9 1.2-1.1z"></path><path fill="#7a5533" d="m19.1 14.4h-1c-1.3-0.1-2.2 0.4-2.8 1.6-0.2 0.1-0.4 0.2-0.5 0.4 0.1-0.4 0-0.5-0.2-0.3 0-0.3 0.1-0.5 0.4-0.7 0 0.1 0 0.3 0 0.4 1-1.5 2.4-1.9 4.1-1.4z"></path><path fill="#19130e" d="m18.1 14.4c-0.3 0-0.5 0.1-0.7 0.2-0.4 0-0.6 0.2-0.9 0.4-0.1 0-0.3 0.1-0.4 0.3l-0.8 0.7c0.6-1.2 1.5-1.7 2.8-1.6z"></path><path fill="#ebded8" d="m18.1 14.4h1c0.3 0 0.5 0.1 0.8 0.3 0.2 0.2 0.4 0.1 0.6-0.1v-0.2c0.1 0 0.2 0 0.2 0.2-0.1 0.5-0.1 1.1 0 1.6 0 0.2-0.1 0.2-0.2 0.3-0.2-0.9-0.8-1.5-1.7-1.7-0.3 0-0.6 0-0.9 0.2l-0.3 0.1c0 0-0.1 0.1-0.1 0.2-0.1-0.2-0.2-0.5-0.1-0.7 0.2-0.1 0.4-0.2 0.7-0.2z"></path><path fill="#8a623a" d="m21.6 14.6c0.3 0.1 0.5 0.4 0.5 0.8-0.2-0.2-0.4-0.5-0.5-0.8z"></path><path fill="#efe6b2" d="m24.1 14.4h1.3c0 0.1 0.1 0.2 0.3 0.2 0.3 0.1 0.6 0.1 0.9 0l0.3-0.2c0.1 0.7 0 1.4-0.1 2-0.4-1.3-1.2-1.8-2.5-1.5-1 0.6-1.3 1.5-1.2 2.7 0 2.2 0.9 2.9 3 2.2 0.2-0.2 0.5-0.4 0.7-0.6 0.2 0.2 0.2 0.4 0 0.6-0.4 0.3-0.9 0.6-1.4 0.7-2.9 0.2-4.2-1.2-3.8-4.1 0.3-0.3 0.5-0.6 0.5-1 0.4-0.1 0.6-0.3 0.8-0.6 0.2 0 0.3 0 0.4-0.2l0.8-0.2z"></path><path fill="#080705" d="m26.8 16.4v0.1c-0.9 0.1-1.8 0-2.7-0.3 0 0.5 0.1 0.6 0.5 0.5 0.1 0.1 0.1 0.3 0.1 0.5 0.2 0.1 0.3 0 0.5-0.1 0 0.2 0.1 0.4 0 0.5 0.2 0.1 0.4 0 0.5-0.1 0.1 0.1 0.1 0.3 0.1 0.4 0 0.1 0 0.2-0.1 0.2 0-0.1-0.1-0.2-0.2-0.2l-0.3 0.6c-0.1-0.2-0.3-0.3-0.5-0.3 0 0.2 0 0.4-0.2 0.6-0.1-0.2-0.2-0.2-0.2 0.1 0 0.3 0.1 0.3 0.2 0.2 0.8-0.1 1.6 0 2.3 0.1-0.2 0.2-0.5 0.4-0.7 0.6-2.1 0.7-3 0-3-2.2-0.1-1.2 0.2-2.1 1.2-2.7 1.3-0.3 2.1 0.2 2.5 1.5z"></path><path fill="#e3dfde" d="m33.1 14.7c0.1 0 0.2 0 0.3 0.1-0.2 0.2-0.5 0.4-0.8 0.6-0.1-0.2-0.1-0.3 0.1-0.4 0.2-0.1 0.3-0.2 0.4-0.3z"></path><path fill="#cfc79f" d="m2.5 14.4c0.1 0.1 0.1 0.2 0 0.4 0.3 0 0.6 0.1 0.8 0.3-0.3 0.1-0.6 0.1-1 0 0-0.2 0-0.5 0.2-0.7z"></path><path fill="#835c37" d="m17.9 15c0.3-0.2 0.6-0.2 0.9-0.2 0.2 0.2 0.5 0.4 0.8 0.5 0.2 0.1 0.3 0.3 0.2 0.4-0.6-0.4-1.2-0.7-1.9-0.7z"></path><path fill="#f1e9bf" d="m8.8 14.7c0.6-0.1 1.3-0.2 2-0.1 0.6 0.7 1.1 1.4 1.6 2.2 0 0-0.1-0.1-0.2-0.1 0 0.4-0.1 0.9-0.2 1.4 0.2 0.1 0.3 0.3 0.3 0.5-0.8-0.9-1.6-1.8-2.3-2.8-0.1 1.4-0.1 2.7 0 4.1 0.2 0.3 0.5 0.5 0.8 0.6h-0.2c-0.3-0.1-0.5 0-0.7 0.2 0 0.2 0 0.3-0.1 0.3-0.1-0.1-0.2-0.3-0.2-0.5-0.3 0-0.6 0-1-0.1 0.4-0.1 0.7-0.2 1-0.5 0.1-1.5 0.1-3.1 0-4.6-0.2-0.4-0.5-0.6-0.8-0.6z"></path><path fill="#a9937b" d="m20.7 14.6c0.1 0.3 0.3 0.6 0.5 0.9-0.2 0-0.3-0.1-0.4-0.2-0.1 0.3-0.1 0.6-0.1 0.9-0.1-0.5-0.1-1.1 0-1.6z"></path><path fill="#0d0804" d="m19.1 15.8c-0.7-0.2-1.4-0.2-2 0 0-0.1 0.1-0.2 0.3-0.3 0.6-0.1 1.1 0 1.7 0.3z"></path><path fill="#f8e07c" d="m12.7 14.7c0.6-0.2 1.2-0.2 1.9-0.1-0.3 0.1-0.5 0.2-0.6 0.5l-0.3 5.4c0.1-1.8 0-3.4-0.1-5.1-0.1-0.5-0.3-0.8-0.9-0.7z"></path><path fill="#ebe2cf" d="m33 15.5c0.2 0 0.5 0 0.7 0.2-0.3 0.1-0.7 0.2-1 0.1 0.1-0.1 0.2-0.2 0.3-0.3z"></path><path fill="#d7b869" d="m30.2 14c0.1 0.4 0.3 0.8 0.6 1.1 0.1 0.3 0.1 0.7 0.1 1h-0.6c0-0.7-0.1-1.4-0.1-2.1z"></path><path fill="#6d4e2d" d="m16.1 15.3c-0.2 0.4-0.4 0.8-0.7 1.1-0.2 0.2-0.3 0.4-0.4 0.7 0-0.4 0.1-0.8 0.3-1.1l0.8-0.7z"></path><path fill="#d2aa76" d="m17.4 14.6c-0.1 0.2 0 0.5 0.1 0.7l-0.1 0.2c-0.2 0.1-0.3 0.2-0.3 0.3-0.1 0.1-0.2 0.3-0.2 0.4-0.1 0.4-0.1 0.9-0.1 1.3v0.3c0 0.5 0.2 1.1 0.4 1.5 0.1 0.2 0.2 0.3 0.3 0.5h0.1v0.1c-0.1 0.1-0.1 0.3-0.1 0.6-0.3-0.1-0.6-0.1-0.8-0.3 0-1.8 0-3.5-0.2-5.2 0.3-0.2 0.5-0.4 0.9-0.4z"></path><path fill="#7a5a36" d="m19.1 15.8c0 0.2 0.1 0.3 0.2 0.4l-0.1 0c-0.5-0.3-1-0.4-1.6-0.3 0.6 0.1 1.2 0.4 1.6 0.8 0.2 0.2 0.2 0.3 0 0.5-0.5-0.9-1.2-1.2-2.3-1 0-0.1 0.1-0.3 0.2-0.4 0.6-0.2 1.3-0.2 2 0z"></path><path fill="#7d603a" d="m17.6 15.1c0.6 0.1 1.2 0.3 1.7 0.5 0.5 0.5 1 1 1.3 1.6 0.1 0.2 0.1 0.3 0.1 0.4h-0.5c0-0.2 0-0.4-0.1-0.7-0.1 0.3-0.3 0.4-0.5 0.2 0.2-0.1 0.3-0.2 0.3-0.4-0.1-0.5-0.4-0.7-0.8-0.9-0.6-0.3-1.1-0.4-1.7-0.3l0.1-0.2c0-0.1 0.1-0.2 0.1-0.2z"></path><path fill="#e5d169" d="m2.6 16c0.1 0.1 0.3 0.3 0.6 0.4-0.4 0.2-0.7 0.1-1-0.1 0.2 0 0.3-0.1 0.4-0.3z"></path><path fill="#785c38" d="m8.6 14.8c0.2 0 0.3 0.1 0.3 0.2-0.2 0.4-0.3 0.9-0.3 1.4-0.1 0.9-0.1 1.9-0.1 2.8-0.1 0-0.1-0.1-0.2-0.1-0.1-1.5 0-2.9 0.3-4.3z"></path><path fill="#845d37" d="m21.2 15.5c0.3 0.2 0.4 0.5 0.4 0.9-0.2-0.3-0.4-0.5-0.4-0.9z"></path><path fill="#694c2d" d="m31.6 16.1c0.1 0.2 0.2 0.4 0.1 0.7h-0.6v1.1h0.6v1h-2c-0.1 2.3-0.9 4.4-2.3 6.2 1.2-1.9 2-4 2.3-6.3 0.2-0.2 0.5-0.2 0.7-0.2 0.2 0.2 0.4 0.2 0.6 0.2v-2.1c-0.2-0.1-0.4 0-0.6 0.1h-0.8c-0.2-1.6-0.5-3.1-1.1-4.5 0.7 1.3 1.1 2.7 1.2 4.2h1.9v-0.4z"></path><path fill="#786425" d="m3 17.1c-0.1-0.1-0.2-0.2-0.4-0.2-0.5-0.1-0.3-0.1 0.6 0-0.1 0.1-0.1 0.2-0.2 0.2z"></path><path fill="#e8d68a" d="m19.9 16.7c0 0.2-0.1 0.3-0.3 0.4 0-0.3 0.1-0.4 0.3-0.4z"></path><path fill="#775836" d="m25.1 11c1.7 1.7 2.5 3.7 2.5 6.1-0.6 0-1.3 0-1.9 0.1l2.5 0.1-0.1 0.1c0.1 0.1 0.2 0.1 0.4 0.1 0-1.9-0.5-3.8-1.4-5.5 1.1 1.7 1.7 3.6 1.7 5.6-0.9 0-1.7 0-2.6 0.1 0.9 0 1.7 0.1 2.5 0.2 0.1 2.1-0.5 4-1.6 5.7 0.9-1.8 1.3-3.6 1.4-5.5-0.9 0-1.8 0-2.7-0.2 0-0.1 0-0.3-0.1-0.4-0.1 0.1-0.3 0.2-0.5 0.1 0.1-0.1 0-0.3 0-0.5-0.2 0.1-0.3 0.2-0.5 0.1 0-0.2 0-0.4-0.1-0.5-0.4 0.1-0.5 0-0.5-0.5 0.9 0.3 1.8 0.4 2.7 0.3v-0.1c0.1-0.6 0.2-1.3 0.1-2-0.1-0.6-0.4-1.2-0.7-1.8-0.4-0.5-0.7-1.1-1.1-1.6z"></path><path fill="#130d06" d="m26.8 16.5c0.1 0.2 0.3 0.2 0.4 0-0.1-0.5-0.2-1.1-0.1-1.7 0.2 0.7 0.3 1.4 0.4 2.1-0.8 0.1-1.6 0-2.4-0.1 0.6-0.1 1.1-0.2 1.7-0.3z"></path><path fill="#735130" d="m26.8 12.6c0.8 1.2 1.2 2.5 1.4 3.9l-0.1 0.4c-0.3-1.5-0.7-2.9-1.3-4.3z"></path><path fill="#725030" d="m5.6 11.6c-0.1 0.1 0 0.2 0.1 0.3l1.5 0.6c0.1 0.1 0.2 0.2 0.2 0.3-1.5 3.9-1.3 7.7 0.7 11.5-0.6-0.8-1-1.7-1.3-2.7-1-3-0.8-5.9 0.4-8.8-0.5-0.3-1.1-0.6-1.8-0.8 0-0.2 0-0.3 0.2-0.4z"></path><path fill="#f2ea93" d="m20.7 17.6c0-0.1 0-0.2-0.1-0.4 0 0 0.1-0.1 0.1-0.1 0.2 0.2 0.2 0.4 0 0.5z"></path><path fill="#715030" d="m8.4 13.1c-1.3 3.5-1.1 6.9 0.4 10.2-1-1.7-1.6-3.6-1.6-5.6 0.1-1.6 0.4-3.1 1.2-4.6z"></path><path fill="#2a1e14" d="m31.7 16.8v1.1h-0.6v-1.1h0.6z"></path><path fill="#eddf42" d="m2.6 16.9c0.2 0 0.3 0.1 0.4 0.2-0.3 0.2-0.5 0.4-0.8 0.5l-0.2-0.1c0.3-0.1 0.5-0.3 0.6-0.6z"></path><path fill="#e0c985" d="m13.6 15.4c0.1 1.7 0.2 3.3 0.1 5.1-0.1 0-0.2 0.1-0.1 0.2-0.3-0.1-0.4-0.3-0.2-0.6-0.2-0.2-0.5-0.5-0.7-0.8-0.1-0.2-0.3-0.4-0.4-0.7 0-0.2-0.1-0.4-0.3-0.5 0.1-0.5 0.2-1 0.2-1.4 0.1 0 0.2 0.1 0.2 0.1 0.4 0.4 0.8 0.8 1.1 1.3 0.1-0.9 0.1-1.8 0.1-2.7z"></path><path fill="#694a2a" d="m16.8 17.5h1.1v0.3h-1.1v-0.3z"></path><path fill="#775432" d="m14.6 16.1c-0.4 1.1-0.4 2.3 0 3.4-0.4-0.5-0.5-1.1-0.5-1.7 0-0.6 0.1-1.2 0.5-1.7z"></path><path fill="#f5e289" d="m17.9 17.5c0.6 0.1 0.6 0.2 0 0.3v-0.3z"></path><path fill="#cabb7d" d="m11 18.1h-0.1c-0.1-0.2-0.1-0.4 0.1-0.6 0.2 0.2 0.2 0.4 0 0.6z"></path><path fill="#c99a42" d="m16.5 15c0.2 1.7 0.2 3.4 0.2 5.2-1.4-1-1.8-2.2-1.3-3.8 0.3-0.3 0.5-0.7 0.7-1.1 0.1-0.2 0.3-0.3 0.4-0.3z"></path><path fill="#e1c16c" d="m30.4 18.6v-1.8c0.2-0.1 0.4-0.2 0.6-0.1v2.1c-0.2 0-0.4 0-0.6-0.2z"></path><path fill="#67571d" d="m33.5 18.2c0 0.1 0 0.2-0.1 0.2-0.3 0-0.5-0.1-0.7-0.2 0.3-0.2 0.6-0.2 0.8 0z"></path><path fill="#765634" d="m25.7 18.1c0.8 0.1 1.6 0.2 2.5 0.1 0 1.5-0.4 2.9-1.1 4.2 0.4-1.3 0.7-2.6 1-4-0.8-0.1-1.6-0.1-2.4 0 0.6 0.1 1.3 0.1 1.9 0.1 0 2-0.6 3.8-1.9 5.3 1-1.5 1.6-3.3 1.8-5.2-0.8 0-1.6 0-2.4 0.1l2 0.1c0 0.1 0.1 0.2 0.1 0.3-0.1 0.7-0.3 1.3-0.5 1.9-0.2 0.7-0.5 1.2-0.9 1.7 0.4-0.9 0.8-1.9 1.1-2.9 0 0 0-0.1-0.1 0 0.2-0.2 0.2-0.4 0-0.6-0.7-0.1-1.5-0.2-2.3-0.1v-0.3c0.2-0.2 0.2-0.4 0.2-0.6 0.2 0 0.4 0.1 0.5 0.3l0.3-0.6c0.1 0 0.2 0.1 0.2 0.2z"></path><path fill="#e9da53" d="m33.5 18.2c0.2 0 0.3 0 0.3 0.2-0.1 0.1-0.2 0.3-0.4 0.4-0.2 0.1-0.4 0.1-0.6 0.1l0.6-0.5c0.1 0 0.1-0.1 0.1-0.2z"></path><path fill="#d3bd74" d="m11.6 18.8h-0.1c-0.2-0.2-0.2-0.4 0-0.6 0.1 0.2 0.1 0.4 0.1 0.6z"></path><path fill="#765734" d="m9.1 19.3h-0.2c-0.1-0.7-0.1-1.5 0-2.2 0-0.4 0.1-0.5 0.5-0.5-0.5 0.9-0.6 1.8-0.3 2.7z"></path><path fill="#9f8557" d="m20.6 19.2h-0.1c-0.1-0.3 0-0.6 0-0.8 0.2-0.3 0.3-0.2 0.4 0-0.2 0.2-0.3 0.5-0.3 0.8z"></path><path fill="#b0a26b" d="m24.5 18.8v0.3c-0.1 0.1-0.2 0.1-0.2-0.2 0-0.3 0.1-0.3 0.2-0.1z"></path><path fill="#dfc06e" d="m12.2 19.3h-0.2c-0.2-0.1-0.2-0.3 0-0.5 0.2 0.1 0.2 0.3 0.2 0.5z"></path><path fill="#897333" d="m33.4 18.8c0.1 0.1 0.2 0.2 0.4 0.2-0.3 0.1-0.7 0.1-1-0.1 0.2 0 0.4 0 0.6-0.1z"></path><path fill="#1f1810" d="m14.8 16.4c0.1-0.2 0.3-0.3 0.5-0.4-0.2 0.3-0.3 0.7-0.3 1.1 0.1-0.3 0.2-0.5 0.4-0.7-0.5 1.6-0.1 2.8 1.3 3.8 0.2 0.2 0.5 0.2 0.8 0.3 0.5 0.1 1 0.1 1.6 0 0.3-0.2 0.7-0.3 1.1-0.4 0.1-0.1 0.2-0.2 0.3-0.3 0.1 0 0.1 0.1 0 0.2-0.2 0.3-0.4 0.5-0.6 0.7-0.3 0.2-0.6 0.3-1 0.3 0.1-0.1 0.2-0.1 0.3-0.2-1.3 0.3-2.4 0-3.4-0.9l-0.1 0.1c0.2 0.2 0.4 0.4 0.5 0.6-0.3-0.1-0.6-0.4-0.9-0.7 0 0-0.1 0.1 0 0.1-0.2 0.1-0.2 0.2-0.1 0.3 0.2 0.2 0.4 0.5 0.6 0.7-0.6-0.3-1.1-0.8-1.2-1.5-0.4-1.1-0.4-2.3 0-3.4 0.2-0.2 0.3-0.1 0.2 0.3z"></path><path fill="#7c5834" d="m15 17.1c0 0.8 0.1 1.6 0.3 2.4-0.4-0.8-0.6-1.6-0.3-2.4z"></path><path fill="#67492b" d="m14.8 16.4c0 0.4-0.1 0.9-0.1 1.4 0 0.6 0.1 1.1 0.2 1.7-0.6-1.1-0.6-2.1-0.1-3.1z"></path><path fill="#967144" d="m17.5 19.8c-0.1-0.2-0.2-0.3-0.3-0.5 1 0.2 1.7-0.2 2.1-1.1l0.2 0.2c-0.4 0.8-1.1 1.3-2 1.4z"></path><path fill="#e4d079" d="m19.6 19.3h-0.3c0.3-0.7 0.4-0.7 0.3 0z"></path><path fill="#f0d65f" d="m6.3 9.2c0.1 0 0.2 0.1 0.2 0.2-0.1 0.3-0.3 0.5-0.4 0.8 0 0.1 0.1 0.1 0.2 0.1v0.2c-0.3 0.3-0.6 0.7-0.7 1.1-0.2 0.1-0.2 0.2-0.2 0.4-0.4 0.8-0.7 1.6-0.9 2.4-0.7 3.2-0.4 6.4 0.8 9.4 0 0.2 0 0.4-0.1 0.6-0.1-0.2-0.2-0.3-0.3-0.3-1.3-2.7-1.7-5.6-1.2-8.6 0.4-2.3 1.2-4.4 2.6-6.3z"></path><path fill="#714f30" d="m10.9 18.1h0.1c0.1 1 0.4 2.1 0.7 3.1-0.5-1-0.8-2-0.8-3.1z"></path><path fill="#d9ce89" d="m8.9 19.3h0.2c0.2 0.2 0.2 0.4 0 0.6-0.2-0.2-0.2-0.4-0.2-0.6z"></path><path fill="#7b5a35" d="m11 20.5c-0.2-0.4-0.4-0.9-0.5-1.4-0.1-0.7 0-1.4 0.1-2 0 1.1 0.2 2.2 0.4 3.4z"></path><path fill="#baad69" d="m32.7 19.3h1.1c0.1 0.4 0 0.7-0.3 0.9-0.1-0.1 0-0.3 0.2-0.4-0.2-0.3-0.4-0.3-0.5 0.1-0.1-0.2-0.2-0.3-0.4-0.2 0 0.1-0.1 0.3 0 0.5-0.3-0.3-0.3-0.6-0.1-0.9z"></path><path fill="#5d452c" d="m19.2 20c-0.5 0.2-1 0.2-1.6-0.1v-0.1c0.7 0 1.2-0.2 1.7-0.5h0.3c0.2-0.1 0.3-0.3 0.3-0.5 0.1 0 0.3 0 0.4 0-0.3 0.5-0.7 0.9-1.1 1.2z"></path><path fill="#d9d0b1" d="m2.2 20c0.4 0 0.7 0 1.1 0.2l-0.6 0.1c-0.2 0-0.4-0.1-0.5-0.3z"></path><path fill="#c9b371" d="m5.6 20.7h-0.3c-0.3-0.2-0.4-0.4-0.4-0.8 0.1-0.7 0.1-1.3-0.2-2 0.3-0.6 0.3-1.3 0.2-2 0.5-1 0.7-2 0.7-3 0.2 0 0.5 0 0.7 0.2-0.4 0.7-0.7 1.3-0.9 1.9 0.1 0.2 0.1 0.4 0.2 0.6-0.2 0.6-0.4 1.1-0.5 1.7 0.2 0.4 0.2 0.8 0 1.3 0.2 0.7 0.4 1.4 0.5 2.1z"></path><path fill="#967548" d="m19.9 20.7c0.2-0.2 0.4-0.4 0.6-0.7 0.1-0.1 0.1-0.2 0-0.2 0-0.1 0-0.2 0.1-0.2 0.1-0.1 0.3-0.2 0.4-0.3-0.1 0.7-0.4 1.2-1.1 1.4z"></path><path fill="#e5d07f" d="m21.9 20.6v-0.3c0-0.1 0.1-0.2 0.2-0.3 0.2 0.3 0.1 0.5-0.2 0.6z"></path><path fill="#e7d8d6" d="m20.5 19.2h0.1v0.4c-0.1 0-0.1 0.1-0.1 0.2-0.1 0.1-0.2 0.2-0.3 0.3-0.4 0.1-0.8 0.2-1.1 0.4-0.6 0.1-1.1 0.1-1.6 0 0-0.3 0-0.5 0.1-0.6 0.6 0.3 1.1 0.3 1.6 0.1 0.5-0.1 1-0.4 1.3-0.8z"></path><path fill="#a18653" d="m21.7 20.3l-0.5 0.4c0-0.2 0.1-0.4 0.2-0.6 0-0.2-0.1-0.3-0.2-0.1 0-0.3 0.2-0.7 0.4-0.9 0.2 0.1 0.2 0.3 0 0.4 0.1 0.1 0.2 0.2 0.3 0.3-0.1 0.2-0.1 0.4-0.2 0.5z"></path><path fill="#412f1e" d="m21.7 20.3h0.2v0.3c-0.4 0.7-0.9 1.2-1.6 1.5 0 0 0-0.1-0.1-0.1-0.1-0.2-0.2-0.3-0.3-0.4 0.4-0.3 0.9-0.5 1.3-0.9l0.5-0.4z"></path><path fill="#755231" d="m11.5 18.8h0.1c0.2 0.7 0.4 1.4 0.5 2.1-0.4-0.7-0.6-1.4-0.6-2.1z"></path><path fill="#7e5835" d="m14.6 20.3c1.2 1.5 2.7 2 4.6 1.6l0.1 0.2c-1.3 0.4-2.6 0.2-3.8-0.6-0.4-0.3-0.7-0.7-0.9-1.2z"></path><path fill="#0f0a05" d="m20.2 14l0.3 0.4v0.2c-0.8-0.6-1.6-0.8-2.5-0.9-0.7 0-1.3 0.2-1.8 0.6-0.6 0.2-1 0.5-1.2 1.1-0.3 0.2-0.4 0.4-0.4 0.7-0.4 0.5-0.5 1.1-0.5 1.7 0 0.6 0.1 1.2 0.5 1.7 0.1 0.7 0.6 1.2 1.2 1.5 1.5 1.1 3 1.1 4.5 0.1 0.4-0.3 0.7-0.7 0.9-1.1 0.1-0.2 0.2-0.1 0.2 0.1-0.1 0.2-0.2 0.4-0.2 0.6-0.4 0.4-0.9 0.6-1.3 0.9-0.3 0-0.5 0.1-0.7 0.3-1.9 0.4-3.4-0.1-4.6-1.6 0.2 0.5 0.5 0.9 0.9 1.2 1.2 0.8 2.5 1 3.8 0.6 0 0.2-0.1 0.3-0.2 0.3-1.3 0.3-2.6 0.1-3.7-0.5 0.4 0.3 0.9 0.6 1.4 0.7 0.9 0.1 1.8 0.1 2.7 0l0.1 0.3c-2.2 0.6-4 0.1-5.6-1.6 0-0.2-0.1-0.4-0.3-0.6 0.2-1.5 0.4-3.1 0.4-4.7 1.5-2.4 3.5-3 6.1-2z"></path><path fill="#835c37" d="m18.9 21c-0.9 0.1-1.8 0-2.7-0.4-0.1-0.2-0.3-0.4-0.5-0.6l0.1-0.1c1 0.9 2.1 1.2 3.4 0.9-0.1 0.1-0.2 0.1-0.3 0.2z"></path><path fill="#dec370" d="m14.6 20.3c-0.4-0.1-0.5-0.3-0.3-0.5 0.2 0.1 0.3 0.3 0.3 0.5z"></path><path fill="#9c8354" d="m23 21.4c0-0.1 0-0.2-0.1-0.4-0.1 0.1-0.2 0.2-0.3 0.3 0-0.2 0.1-0.4 0-0.6-0.5 0.9-1.3 1.5-2.1 2 0-0.1-0.1-0.1-0.2-0.1v-0.2c1-0.3 1.7-1 2.1-1.9 0.2 0.1 0.4 0.1 0.6 0 0.6 0.2 0.6 0.6 0 0.9z"></path><path fill="#d8cd89" d="m9.1 21.2h-0.3c-0.1-0.8 0-0.8 0.3 0z"></path><path fill="#856239" d="m12.7 19.3c0.2 0.8 0.5 1.5 0.9 2.1-0.5-0.5-0.9-1.2-1.2-1.9 0.1-0.1 0.2-0.2 0.3-0.2z"></path><path fill="#d3cecb" d="m3 20.6c0.2 0 0.3 0.1 0.2 0.3-0.2 0.1-0.3 0.3-0.5 0.4l-0.2-0.1c0.2-0.2 0.3-0.4 0.5-0.6z"></path><path fill="#e1d592" d="m9.6 21.3h-0.2c-0.1-0.7 0-0.7 0.2 0z"></path><path fill="#7c5734" d="m12 19.3h0.2c0.2 0.8 0.5 1.6 0.9 2.3-0.5-0.6-0.9-1.4-1.1-2.3z"></path><path fill="#130e08" d="m12.7 19.3c0.2 0.3 0.5 0.6 0.7 0.8-0.2 0.3-0.1 0.5 0.2 0.6 0 0.3 0.1 0.5 0.4 0.6 0.6 1 1.6 1.6 2.8 1.9 1 0.1 2 0.1 3-0.1v0.2c-2.5 0.6-4.5 0-6.2-1.9-0.4-0.6-0.7-1.3-0.9-2.1z"></path><path fill="#cfcab0" d="m32.6 20.6c0.3 0.1 0.6 0.2 0.9 0.1 0.1 0.3 0 0.5-0.1 0.7-0.2-0.1-0.2-0.2 0-0.3-0.4 0-0.7-0.2-0.8-0.5z"></path><path fill="#9c7948" d="m15.4 21.9c-0.5-0.3-0.9-0.6-1.2-1-0.1-0.2-0.1-0.3 0-0.4 0.4 0.5 0.8 0.9 1.2 1.4z"></path><path fill="#0f0a05" d="m16.2 20.6c0.9 0.4 1.8 0.5 2.7 0.4-0.6 0.2-1.2 0.2-1.8 0.1-0.4-0.1-0.7-0.2-0.9-0.5z"></path><path fill="#b69f69" d="m25.7 20.6c0.3 0.2 0.2 0.4-0.1 0.7-0.1-0.2 0-0.5 0.1-0.7z"></path><path fill="#e5cd7b" d="m23.7 21.3h-0.1c0-0.4 0.1-0.5 0.4-0.4-0.1 0.2-0.2 0.3-0.3 0.4z"></path><path fill="#a2905c" d="m10.6 20.5h0.2c0.1 0.2 0.1 0.4 0.1 0.7-0.2 0-0.3 0.2-0.4 0.4-0.4-0.4-0.4-0.8 0.1-1.1z"></path><path fill="#704f2f" d="m16.2 20.6c0.2 0.3 0.5 0.4 0.9 0.5 0.6 0.1 1.2 0.1 1.8-0.1 0.4 0 0.7-0.1 1-0.3-0.3 0.4-0.8 0.6-1.3 0.7-1.4 0.2-2.5-0.3-3.3-1.4-0.1 0 0-0.1 0-0.1 0.3 0.3 0.6 0.6 0.9 0.7z"></path><path fill="#0d0905" d="m22.6 21.3c-0.5 0.4-0.9 0.8-1.3 1.3-0.3 0.1-0.5 0.2-0.8 0.3v-0.2c0.8-0.5 1.6-1.1 2.1-2 0.1 0.2 0 0.4 0 0.6z"></path><path fill="#916e43" d="m25.1 23c0.5-0.9 0.9-1.8 1.3-2.7-0.2 1-0.6 1.9-1.3 2.7z"></path><path fill="#9f9b98" d="m5.3 20.7h0.3c-0.1 0.5 0.1 0.9 0.4 1.3h-0.4l-0.3-1.3z"></path><path fill="#825c37" d="m14 21.3c1.6 1.7 3.4 2.2 5.6 1.6l0.2 0.2c-1 0.2-2 0.2-3 0.1-1.2-0.3-2.2-0.9-2.8-1.9z"></path><path fill="#402e1e" d="m23 21.4c-0.6 0.9-1.3 1.6-2.3 2.2 0-0.3-0.1-0.5-0.2-0.7 0.3-0.1 0.5-0.2 0.8-0.3 0.6-0.3 1-0.7 1.3-1.3 0.1-0.1 0.2-0.2 0.3-0.3 0.1 0.2 0.1 0.3 0.1 0.4z"></path><path fill="#a38856" d="m24.5 22.3c0.1-0.4 0.3-0.7 0.5-1-0.2-0.1-0.3-0.1-0.4 0.1l-0.1-0.2c-0.1 0.1-0.2 0.2-0.4 0.2 0-0.4 0.1-0.5 0.5-0.4 0.1-0.1 0.1-0.2 0.2-0.3 0.2 0.2 0.3 0.2 0.4 0l0.2 0.3c-0.2 0.4-0.5 0.9-0.9 1.3z"></path><path fill="#815d39" d="m9.9 20.7c0.4 0.8 0.7 1.6 1.1 2.4-0.5-0.6-0.9-1.3-1.2-2.1 0.1 0 0.1-0.1 0.1-0.3z"></path><path fill="#845d38" d="m11.7 21.2c0.3 0.3 0.6 0.7 0.7 1.1-0.3-0.3-0.6-0.7-0.7-1.1z"></path><path fill="#8a613a" d="m12.9 22c-0.4-0.2-0.5-0.5-0.5-0.8 0.2 0.2 0.3 0.5 0.5 0.8z"></path><path fill="#755231" d="m21.2 20c-0.2 0.4-0.5 0.8-0.9 1.1-1.5 1-3 1-4.5-0.1 2.1 1 3.8 0.7 5.4-1z"></path><path fill="#efdb5a" d="m19.9 21.6c0.1 0.1 0.2 0.2 0.3 0.4-0.3 0-0.5 0.1-0.7 0.1h-0.2l-0.1-0.2c0.2-0.2 0.4-0.3 0.7-0.3z"></path><path fill="#88603a" d="m23.6 21.3h0.1c-0.1 0.3-0.3 0.6-0.6 0.7 0.1-0.3 0.3-0.5 0.5-0.7z"></path><path fill="#7d5836" d="m9.4 21.3h0.2c0.3 0.8 0.7 1.5 1.2 2.3-0.6-0.7-1.1-1.4-1.4-2.3z"></path><path fill="#8b623b" d="m22.6 21.3c-0.3 0.6-0.7 1-1.3 1.3 0.4-0.5 0.8-0.9 1.3-1.3z"></path><path fill="#88603a" d="m24.1 21.4c0 0.4-0.2 0.7-0.5 0.9 0.1-0.3 0.3-0.6 0.5-0.9z"></path><path fill="#775432" d="m30.4 17.9v0.3h-1.2c0 2.3-0.7 4.4-2.1 6.3 0.5-1 1-2.1 1.4-3.2 0.3-1.1 0.5-2.1 0.6-3.2 0.4-0.2 0.9-0.2 1.3-0.2z"></path><path fill="#e3d6d9" d="m3 21.9c0.2-0.1 0.4 0 0.6 0.1-0.3 0.2-0.7 0.3-1 0.1 0.2 0 0.3-0.1 0.4-0.2z"></path><path fill="#7d5936" d="m8.8 21.2h0.3c0.2 0.5 0.3 1 0.5 1.5-0.3-0.5-0.6-1-0.8-1.5z"></path><path fill="#d3bd83" d="m29.3 24c0.2-0.6 0.3-1.1 0.4-1.7 0.3-0.4 0.6-0.8 0.6-1.3-0.1-0.4-0.1-0.8 0-1.2h0.6c-0.2 0.7-0.5 1.4-0.7 2.1 0.1 0.1 0.2 0.2 0.2 0.2-0.3 0.7-0.7 1.3-1.1 1.9z"></path><path fill="#ddc482" d="m5.6 22h0.4c0.2 0.3 0.2 0.7 0.1 1 0.3 0.6 0.7 1.2 1.1 1.8 0 0.1-0.1 0.2-0.1 0.3-0.1 0-0.3 0-0.4-0.1-0.3-0.3-0.4-0.6-0.3-1-0.1-0.4-0.4-0.8-0.8-1.1l-0.2-0.7c0-0.1 0.1-0.2 0.2-0.2z"></path><path fill="#aaa6a4" d="m32.4 21.4c0.9 0.1 1.1 0.4 0.7 1.2 0-0.2-0.1-0.5-0.1-0.7-0.2-0.2-0.4-0.2-0.7 0 0-0.2 0-0.3 0.1-0.5z"></path><path fill="#efe2a8" d="m20.2 22c0.1 0 0.1 0.1 0.1 0.1v0.5c-0.3 0-0.5 0-0.7 0.3l-0.1-0.3v-0.5c0.2 0 0.4-0.1 0.7-0.1z"></path><path fill="#805b37" d="m15.4 21.9c1.1 0.6 2.4 0.8 3.7 0.5 0.1 0 0.2-0.1 0.2-0.3h0.2v0.5c-0.9 0.1-1.8 0.1-2.7 0-0.5-0.1-1-0.4-1.4-0.7z"></path><path fill="#8b623b" d="m12.4 22.3c0.7 0.6 1.3 1.1 1.9 1.7-0.8-0.4-1.4-1-1.9-1.7z m10.7-0.3c-0.4 0.7-0.9 1.2-1.7 1.6 0.6-0.6 1.2-1.1 1.7-1.6z"></path><path fill="#d1cfcd" d="m32.1 22.6c0.8 0 1.1 0.4 0.7 1-0.9 0.1-1.1-0.2-0.7-1z"></path><path fill="#cba96b" d="m3.3 22.7c0.7 0.1 0.7 0.3-0.1 0.4l-0.3-0.1c0.1-0.1 0.3-0.2 0.4-0.3z"></path><path fill="#855e39" d="m9.1 22.7c0.4 0.5 0.7 1 1 1.6-0.5-0.4-0.9-1-1-1.6z"></path><path fill="#0a0503" d="m12.2 22.6c0.4 0.7 1 1.3 1.8 1.7 0.1 0.1 0.2 0.3 0.4 0.4 0 0.1-0.1 0.1-0.1 0.1-1.1-0.6-1.9-1.4-2.5-2.5 0.1 0.1 0.2 0.2 0.4 0.3z"></path><path fill="#0f0a05" d="m24.5 22.3c-1.4 1.9-3.3 3.1-5.7 3.4-0.7 0.1-1.4 0.1-2-0.1 2.2 0.2 4.2-0.4 5.9-1.7 0.5-0.4 0.8-0.8 1.1-1.3-0.4 0.3-0.7 0.6-1.1 1-0.1 0.1-0.2 0.1-0.3 0 0.5-0.4 0.9-0.8 1.2-1.3 0.3-0.2 0.5-0.5 0.5-0.9 0.2 0 0.3-0.1 0.4-0.2l0.1 0.2c0.1-0.2 0.2-0.2 0.4-0.1-0.2 0.3-0.4 0.6-0.5 1z"></path><path fill="#835c37" d="m23.8 22.6c0.2-0.3 0.3-0.6 0.5-0.9 0 0.4-0.1 0.7-0.5 0.9z"></path><path fill="#131212" d="m32.1 22.9c0.5-0.1 0.7 0.1 0.7 0.5-0.2 0-0.4 0-0.7-0.1-0.1-0.1-0.1-0.3 0-0.4z"></path><path fill="#7d5835" d="m13.6 21.4c1.7 1.9 3.7 2.5 6.2 1.9l0.1 0.3c-0.6 0-1.3 0.1-1.9 0.1-1.9 0-3.4-0.7-4.4-2.3z"></path><path fill="#845d38" d="m26.8 22.7c0.1 0.4-0.1 0.7-0.4 1 0.1-0.4 0.2-0.7 0.4-1z"></path><path fill="#795533" d="m11 20.5c0.4 0.7 0.8 1.4 1.2 2.1-0.2-0.1-0.3-0.2-0.4-0.3 0.6 1.1 1.4 1.9 2.5 2.5v0.2c-1.7-0.9-2.8-2.1-3.4-3.8 0.1 0.1 0.3 0.3 0.4 0.5 0 0.2 0.1 0.2 0.2 0-0.3-0.4-0.4-0.8-0.5-1.2z"></path><path fill="#88603a" d="m12.2 22.6c0.6 0.5 1.2 1.1 1.8 1.7-0.8-0.4-1.4-1-1.8-1.7z"></path><path fill="#8b623b" d="m25.8 22.7c0 0.4-0.2 0.7-0.6 0.9 0.2-0.4 0.3-0.7 0.6-0.9z"></path><path fill="#865f39" d="m8.8 23.3c0.4 0.3 0.7 0.7 0.8 1.2-0.4-0.3-0.6-0.7-0.8-1.2z"></path><path fill="#89603a" d="m11.5 23c0.7 0.8 1.6 1.5 2.5 2.2-1.1-0.5-1.9-1.2-2.5-2.2z"></path><path fill="#e3c77a" d="m20.3 22.6c0.1 0 0.2 0 0.2 0.1v0.2c0.1 0.2 0.2 0.4 0.2 0.7-0.2 0.2-0.5 0.3-0.8 0.2v-0.2l-0.1-0.3v-0.2l-0.2-0.2c0.2-0.3 0.4-0.3 0.7-0.3z"></path><path fill="#8c633b" d="m22.9 24.7c0.5-0.6 1-1.2 1.6-1.7 0.1 0.1 0.1 0.2 0 0.3-0.5 0.5-1.1 1-1.6 1.4z"></path><path fill="#523b25" d="m25.1 23c-0.1 0.2-0.1 0.5-0.1 0.7 0.1-0.1 0.2-0.1 0.2-0.1-0.5 0.9-1.3 1.7-2.3 2.2 0.1-0.4-0.1-0.5-0.5-0.3 1-0.7 1.9-1.6 2.7-2.5z"></path><path fill="#765332" d="m13.1 21.6c1.9 2.1 4.1 2.8 6.8 2.1v0.1c-0.6 0.3-1.2 0.4-1.8 0.5-2.2-0.1-3.8-1-5-2.7z"></path><path fill="#a8822d" d="m3.2 23.4c0.4 0 0.5 0.1 0.1 0.3 0.3 0.1 0.5 0 0.8-0.1l0 0.1c-0.2 0.2-0.5 0.4-0.8 0.6-0.2-0.3-0.3-0.6-0.1-0.9z"></path><path fill="#8a623b" d="m10.8 23.6c0.3 0.2 0.5 0.4 0.7 0.8-0.4-0.2-0.6-0.5-0.7-0.8z"></path><path fill="#deddd8" d="m31.6 23.7c0.4 0.1 0.7 0.3 1 0.6l-0.1 0.1c-0.3-0.2-0.6-0.3-0.9-0.3v-0.4z"></path><path fill="#8c633b" d="m25.7 23.8c-0.1 0.3-0.3 0.6-0.5 0.7 0-0.3 0.1-0.5 0.5-0.7z"></path><path fill="#89613a" d="m11.2 24.8c-0.6-0.3-0.9-0.8-1.1-1.4 0.4 0.5 0.8 0.9 1.1 1.4z"></path><path fill="#815b37" d="m14.3 24c0.8 0.4 1.7 0.7 2.5 1-1-0.1-1.8-0.4-2.5-1z"></path><path fill="#ecd376" d="m4.1 24.1c0.3 0 0.3 0.1 0.3 0.3-0.2 0.2-0.4 0.4-0.6 0.6l-0.2-0.1c0.3-0.2 0.4-0.5 0.5-0.8z"></path><path fill="#735131" d="m12.9 22c2.4 2.6 5.3 3.1 8.5 1.6-2.1 1.4-4.4 1.4-6.7 0.2-0.8-0.5-1.4-1-1.8-1.8z"></path><path fill="#865e38" d="m8.4 24.7c0.3 0.3 0.6 0.7 0.8 1.1-0.4-0.3-0.7-0.6-0.8-1.1z"></path><path fill="#8a613a" d="m9.6 24.5c0.3 0.2 0.5 0.4 0.6 0.7-0.3-0.1-0.5-0.3-0.6-0.7z"></path><path fill="#815b37" d="m11.2 24.8c0.4 0.2 0.8 0.6 1.1 1-0.5-0.2-0.8-0.5-1.1-1z"></path><path fill="#875f39" d="m13.9 25.7c-0.6-0.2-1-0.5-1.5-0.9 0.6 0.1 1 0.4 1.5 0.9z"></path><path fill="#91663d" d="m25.8 24.3c0.1 0 0.2 0.1 0.1 0.2l-0.6 0.6c-0.1-0.1-0.1-0.2 0-0.3 0.2-0.1 0.4-0.3 0.5-0.5z"></path><path fill="#edebdb" d="m32 24.7c0.5 0 0.5 0.1 0 0.3-0.3 0.2-0.6 0.2-0.9 0 0.4 0 0.6-0.2 0.9-0.3z"></path><path fill="#f7d562" d="m1.8 21.3c0.3 1.1 0.6 2.2 0.9 3.2 0 0-0.1 0.1-0.1 0.2 0.3 0.8 0.3 1.6 0.3 2.4-0.4-0.6-0.7-1.3-1-2 0-1.3 0-2.5-0.1-3.8z" opacity=".921"></path><path fill="#d9c78d" d="m29.3 24c0.2 0.6 0 1-0.6 1.2-0.3 0.4-0.5 0.8-0.6 1.3-0.3 0.3-0.6 0.5-1 0.7 0.1-0.6 0.4-1.1 1-1.4 0.4-0.5 0.6-1.1 0.8-1.7 0.1-0.1 0.3-0.2 0.4-0.1z"></path><path fill="#c8c5b9" d="m7.1 25.1c0.3 0.2 0.5 0.5 0.7 0.8 0 0.1 0 0.2-0.1 0.2-0.3-0.3-0.4-0.7-0.6-1z"></path><path fill="#7a5634" d="m10.2 25.2c0.3 0.3 0.6 0.6 0.8 0.9-0.4-0.2-0.7-0.4-0.8-0.9z"></path><path fill="#bfb798" d="m30.9 25.4c0.6 0 0.9 0.3 0.7 1-0.1 0.2-0.3 0.3-0.5 0.1 0.6-0.5 0.5-0.7-0.2-0.8-0.1 0.2-0.2 0.3-0.2 0.5-0.1-0.3-0.1-0.6 0.2-0.8z"></path><path fill="#dfc57a" d="m14 24.3c0.5 0.1 0.9 0.3 1.3 0.7-0.2 0.3-0.4 0.6-0.5 0.9-0.4 0.2-0.7 0.1-0.9-0.2 0.2-0.2 0.3-0.4 0.4-0.7v-0.2c0 0 0.1 0 0.1-0.1-0.2-0.1-0.3-0.3-0.4-0.4z"></path><path fill="#8e643c" d="m24 25.4c0.1 0 0.2 0 0.3 0.1-0.2 0.2-0.5 0.4-0.7 0.4 0.1-0.2 0.3-0.3 0.4-0.5z"></path><path fill="#805b37" d="m26.1 25c-0.5 0.8-1.1 1.4-2 1.8 0.7-0.6 1.3-1.2 2-1.8z"></path><path fill="#7d5a36" d="m23.6 22.3c-0.3 0.5-0.7 0.9-1.2 1.3 0.1 0.1 0.2 0.1 0.3 0 0.4-0.4 0.7-0.7 1.1-1-0.3 0.5-0.6 0.9-1.1 1.3-1.7 1.3-3.7 1.9-5.9 1.7 0.6 0.2 1.3 0.2 2 0.1 2.4-0.3 4.3-1.5 5.7-3.4-1.2 2-3 3.2-5.3 3.6l-2.5 0.1c1.5 0.3 2.9 0.2 4.3-0.4l1.9-0.9c-0.8 0.7-1.8 1.2-2.9 1.5-1.1 0.1-2.3 0.2-3.5 0.2 0.9 0.3 1.9 0.3 2.8 0.2 1.1-0.2 2.1-0.6 3.1-1.1-1.3 1-2.8 1.4-4.5 1.4-0.6 0-1.2-0.1-1.7-0.3-0.1-0.5 0-1 0.3-1.5 1.9 0.5 3.7 0.2 5.4-0.9-0.8 0.3-1.6 0.6-2.4 0.8-0.9 0.1-1.8 0.1-2.7 0 2.7 0.2 5-0.7 6.8-2.7z"></path><path fill="#8c633b" d="m24 26.2c0.2-0.3 0.5-0.5 0.8-0.6-0.2 0.3-0.5 0.5-0.8 0.6z"></path><path fill="#815b37" d="m9.2 25.8c0.5 0.4 0.9 0.8 1.3 1.3-0.6-0.3-1-0.7-1.3-1.3z"></path><path fill="#c1bba0" d="m4 25.4c0.1 0 0.2 0 0.3 0.1-0.2 0.4-0.1 0.6 0.4 0.5 0.3-0.5 0.4-0.4 0.4 0.1-0.6 0.4-1 0.2-1.2-0.4 0-0.1 0.1-0.2 0.1-0.3z"></path><path fill="#fade83" d="m2.7 24.5l1 2c0 0-0.1 0.1-0.1 0.1 0.5 0.8 0.7 1.6 0.5 2.4-0.4-0.6-0.9-1.2-1.2-1.9 0-0.8 0-1.6-0.3-2.4 0-0.1 0.1-0.2 0.1-0.2z" opacity=".934"></path><path fill="#e2c675" d="m7.8 25.9c0.1 0 0.3 0.1 0.4 0.2 0.2 0.2 0.3 0.5 0.3 0.8-0.1 0-0.2 0.1-0.3 0.2-0.4-0.3-0.5-0.7-0.5-1 0.1 0 0.1-0.1 0.1-0.2z"></path><path fill="#8c633b" d="m9.5 25.2c0.6 0.5 1.1 1 1.5 1.6-0.6-0.4-1.1-0.9-1.5-1.6z"></path><path fill="#845d38" d="m26.9 25.7c-0.3 0.6-0.9 1.1-1.5 1.5 0.5-0.6 1-1.1 1.5-1.5z"></path><path fill="#bcb9a9" d="m5.1 26.2c0.2 0 0.3 0.1 0.3 0.2-0.2 0.5-0.1 0.7 0.3 0.6-0.7 0.7-0.9 0.6-0.8-0.4-0.1 0.3-0.2 0.3-0.3 0.2 0.2-0.2 0.4-0.4 0.5-0.6z"></path><path fill="#f2e395" d="m5.3 23.8c0.6 1.3 1.4 2.6 2.4 3.7-0.1 0.1-0.3 0.2-0.5 0.3-1-1.1-1.8-2.3-2.3-3.7 0.1 0 0.2 0.1 0.3 0.3 0.1-0.2 0.1-0.4 0.1-0.6z"></path><path fill="#765332" d="m11.5 24.4c3.4 3 7.2 3.5 11.4 1.4-3.2 2-6.4 2.1-9.6 0.2-0.7-0.4-1.3-0.9-1.8-1.6z"></path><path fill="#c8c5b0" d="m8.5 26.9c0.3 0.2 0.5 0.5 0.7 0.7-0.4-0.1-0.6-0.3-0.7-0.7z"></path><path fill="#c8b163" d="m29.9 27.1c0.1-0.1 0.3-0.2 0.5-0.2 0.3 0 0.5 0.1 0.6 0.3l-0.1 0.2c-0.3-0.2-0.7-0.3-1-0.3z"></path><path fill="#7f5c38" d="m10.1 24.3c0.6 0.5 1.2 1.1 1.8 1.7 1.5 1.3 3.3 1.9 5.3 1.9 0.1 0.3 0 0.5-0.1 0.7 0-0.1-0.1-0.2-0.2-0.3-2.9-0.4-5.2-1.7-6.8-4z"></path><path fill="#8e643d" d="m10.5 27.1c0.3 0.1 0.5 0.2 0.7 0.5-0.3 0-0.6-0.2-0.7-0.5z"></path><path fill="#e1e0dc" d="m6 27.1c0.1 0 0.2 0.1 0.3 0.3-1.2 0.7-1.3 0.6-0.3-0.3z"></path><path fill="#ebcd78" d="m9.2 27.6c0.4 0 0.6 0.2 0.9 0.5v0.4c-0.2 0.1-0.3 0.1-0.5 0-0.4-0.2-0.5-0.5-0.4-0.9z"></path><path fill="#7b5834" d="m12.3 25.8c3.5 2.3 7 2.4 10.7 0.4 0.2 0.1 0.2 0.1 0 0.2-1.3 0.8-2.7 1.3-4.2 1.5l0.4 0.2c1.7-0.3 3.3-0.9 4.8-1.9-0.2 0.3-0.4 0.5-0.7 0.7-1.4 0.8-2.9 1.3-4.5 1.6l0.3 0.1c1.8-0.2 3.5-0.8 5-1.8-0.2 0.3-0.6 0.6-1 0.8-1.9 1-3.9 1.4-6 1.2h1.5v-0.9h-1.4c-0.9-0.2-1.9-0.4-2.8-0.8-0.8-0.3-1.5-0.7-2.1-1.3z"></path><path fill="#ddcb8a" d="m25.7 28.5c0.1-0.7 0.4-1 1.1-0.9-0.1 0.5-0.3 0.9-0.9 1-0.1 0-0.1-0.1-0.2-0.1z"></path><path fill="#d6a839" d="m29.9 27.9c0-0.2-0.1-0.3-0.3-0.4l0.1-0.1c0.3 0.1 0.5 0.3 0.7 0.6-0.1 0-0.3 0-0.5-0.1z"></path><path fill="#7b5734" d="m11 26.1c1.8 1.4 3.8 2.2 6.1 2.5v0.2c-2.4-0.1-4.4-1-6.1-2.7z"></path><path fill="#b78b32" d="m29.9 27.9c0.1 0.2 0.2 0.3 0.3 0.4-0.3 0.2-0.4 0.1-0.5-0.2 0.1-0.1 0.1-0.2 0.2-0.2z"></path><path fill="#fbe7a8" d="m3.7 26.5c0.3 0.4 0.5 0.8 0.7 1.3 0.1 0.2 0.2 0.5 0.4 0.7 0.1 0.4 0.1 0.9 0.1 1.4-0.3-0.3-0.5-0.6-0.8-0.9 0.2-0.8 0-1.6-0.5-2.4 0 0 0.1-0.1 0.1-0.1z" opacity=".969"></path><path fill="#f1de99" d="m34 25.1c-1 2.3-2.4 4.3-4.3 6 0.1-0.4 0.1-0.9 0-1.4 1.5-1.7 2.7-3.5 3.6-5.6 0.2-0.1 0.3-0.4 0.5-0.8 0 0.6 0 1.2 0.2 1.8z" opacity=".925"></path><path fill="#c7c4c3" d="m6 27.8c1 0 1.2 0.3 0.5 1-0.5 0.2-0.7 0-0.8-0.5 0.1-0.2 0.2-0.4 0.3-0.5z"></path><path fill="#070706" d="m6.3 27.9c0.4 0.1 0.5 0.3 0.1 0.6-0.1 0.1-0.3 0.1-0.4 0.1 0-0.3 0.1-0.5 0.3-0.7z"></path><path fill="#f5ebc8" d="m7.7 27.5l0.9 1.1c0.3 0.3 0.6 0.7 0.9 0.9-0.2 0-0.5-0.1-0.7-0.2-0.7-0.4-1.2-0.9-1.6-1.5 0.2-0.1 0.4-0.2 0.5-0.3z"></path><path fill="#ebc078" d="m29 28.1c1.1 0.9 1.1 1-0.1 0.2 0.1-0.1 0.1-0.2 0.1-0.2z"></path><path fill="#d3cab0" d="m25.7 28.5c-0.1 0.2-0.3 0.4-0.6 0.4 0.1-0.2 0.3-0.4 0.6-0.4z"></path><path fill="#a69e77" d="m10.1 28.1c0.2 0.4 0.7 0.8 1.2 0.9-0.2 0.1-0.3 0.2-0.4 0.3-0.2-0.3-0.5-0.6-0.8-0.8v-0.4z"></path><path fill="#aca7a5" d="m6.7 29.5c-0.3-0.1-0.4-0.3-0.1-0.5 0.1 0.2 0.1 0.3 0.1 0.5z"></path><path fill="#7b5734" d="m11 26.8c4 2.8 8.2 3.1 12.6 0.9 1.1-0.7 2.1-1.6 3-2.6-0.7 1.1-1.7 2.1-2.9 2.7-3.8 2.2-7.6 2.2-11.4 0-0.5-0.2-0.9-0.6-1.3-1z"></path><path fill="#775432" d="m25.4 27.2c-2.1 1.9-4.6 2.8-7.5 2.8-2.5 0-4.8-0.8-6.7-2.4 0.8 0.5 1.6 1 2.5 1.4 4.2 1.5 8.1 0.9 11.7-1.8z"></path><path fill="#e7cc7a" d="m17.2 27.9h1.4v0.9h-1.5v-0.2c0.1-0.2 0.2-0.4 0.1-0.7z"></path><path fill="#d4c7c9" d="m28.5 28.6c0.3 0.2 0.6 0.5 0.8 0.8l-0.2 0.2-0.8-0.8c0.1 0 0.2-0.1 0.2-0.2z"></path><path fill="#e3d08c" d="m25.1 28.9c-0.2 0.5-0.5 0.8-1 1-0.1-0.1-0.2-0.1-0.3-0.2v-0.4c0.3-0.1 0.5-0.2 0.7-0.4 0.2 0.1 0.4 0.1 0.6 0z"></path><path fill="#d7d4ce" d="m6.7 29.5c0.4 0 0.7-0.2 0.9-0.6 0.1 0.6-0.1 0.9-0.8 0.8-0.1-0.1-0.1-0.2-0.1-0.2z"></path><path fill="#d0ba74" d="m11.3 29c0.5 0.3 1 0.6 1.4 1 0.4 0 0.8 0.1 1.2 0.2 0.1 0.2 0.1 0.4 0 0.7-0.6-0.1-0.9-0.3-1.2-0.7-0.4-0.3-0.8-0.5-1.2-0.4-0.3-0.1-0.5-0.3-0.6-0.5 0.1-0.1 0.2-0.2 0.4-0.3z"></path><path fill="#b2aa9e" d="m23.8 29.3v0.4c-0.3 0.3-0.6 0.5-0.9 0.6l-0.2-0.3c0.5 0 0.9-0.2 1.1-0.7z"></path><path fill="#cd9e42" d="m27.8 28.1c0.1 0.1 0.1 0.3 0.1 0.5-1.1 1.2-2.4 2.2-3.9 2.8-0.1-0.1-0.2-0.1-0.3-0.2 0.2-0.1 0.1-0.2-0.1-0.2 1.5-0.7 2.9-1.7 4.2-2.9z"></path><path fill="#dcd6d3" d="m27.5 29.6c0.3 0.1 0.6 0.2 0.8 0.4 0.2 0.1 0.2 0.2 0.1 0.3-0.4-0.2-0.7-0.4-0.9-0.7z"></path><path fill="#c2b99e" d="m8.1 29.6c0.1 0 0.2 0 0.3 0.1-0.2 0.2-0.4 0.5-0.6 0.7 0.5 0 0.5 0.1 0.1 0.3-0.4-0.2-0.5-0.5-0.5-0.8 0.1 0.1 0.2 0.2 0.2 0.3 0.2-0.2 0.4-0.4 0.5-0.6z"></path><path fill="#eeede8" d="m8.6 28.6c3 2.6 6.4 3.8 10.3 3.7-0.7 0.1-1.6 0.2-2.7 0.2 0.6 0 1 0.1 1.4 0.3-3.4 0-6.3-1.2-8.8-3.5 0.2 0.1 0.5 0.2 0.7 0.2-0.3-0.2-0.6-0.6-0.9-0.9z"></path><path fill="#ddbf6f" d="m22.7 30l0.2 0.3c-0.3 0.3-0.5 0.5-0.9 0.6-0.1-0.1-0.1-0.1-0.1-0.2l-0.2-0.3c0.3-0.2 0.6-0.4 1-0.4z"></path><path fill="#cac2ad" d="m27.1 29.9c0.2 0.1 0.5 0.4 0.6 0.7 0.1 0.1 0.1 0.2-0.1 0.3-0.1-0.2-0.2-0.4-0.4-0.5-0.2-0.1-0.4 0-0.6 0.2l-0.1-0.2c0.2-0.1 0.4-0.3 0.6-0.5z"></path><path fill="#a09692" d="m21.7 30.4l0.2 0.3c-0.5 0.1-0.9 0.2-1.3 0.3v-0.3c0.4 0 0.8-0.1 1.1-0.3z"></path><path fill="#e6d87a" d="m8.6 31.3l0.2-0.6c0.2-0.1 0.3-0.2 0.4-0.4 0.1 0.4-0.1 0.8-0.6 1z"></path><path fill="#846524" d="m13.9 30.2c0.3 0.3 0.7 0.5 1.2 0.5v0.3c-0.4-0.2-0.8-0.3-1.2-0.1 0.1-0.3 0.1-0.5 0-0.7z"></path><path fill="#edd8b2" d="m29.7 29.7c0.1 0.5 0.1 1 0 1.4-0.2 0.4-0.4 0.6-0.8 0.8 0-0.5 0-0.9 0-1.3 0.2-0.3 0.5-0.6 0.8-0.9z" opacity=".897"></path><path fill="#7e6d3e" d="m8.8 30.7l-0.2 0.6c-0.1-0.1-0.3-0.2-0.4-0.4 0.2 0 0.4-0.2 0.5-0.5 0.1 0.1 0.1 0.2 0.1 0.3z"></path><path fill="#cbb06c" d="m15.1 30.7c1.1 0.3 2.3 0.4 3.4 0.3v0.3c-0.2 0.1-0.4 0.2-0.6 0.3-0.5-0.2-1.1-0.3-1.6-0.5l-0.4 0.3c-0.4 0-0.6-0.1-0.8-0.4v-0.3z"></path><path fill="#a6969c" d="m18.5 31h1.1v0.1c-0.4 0.1-0.7 0.2-1.1 0.2v-0.3z"></path><path fill="#e1c372" d="m20.6 30.7v0.3c-0.2 0.3-0.5 0.4-0.8 0.4-0.2 0-0.2-0.1-0.2-0.3v-0.1c0.3-0.3 0.6-0.3 1-0.3z"></path><path fill="#deca40" d="m9.5 30.7c0.2 0.1 0.3 0.3 0.3 0.5 0.1 0.3 0.1 0.6 0 0.8-0.1 0-0.2-0.1-0.2-0.1-0.1-0.4-0.1-0.8-0.1-1.2z"></path><path fill="#faf4df" d="m4.4 27.8c1.9 2.5 4.2 4.4 6.9 5.7 0 0.1 0 0.1 0 0.2l-0.6-0.3c-0.1 0.3-0.1 0.7-0.1 1-2.2-1.1-4.2-2.6-5.7-4.5 0-0.5 0-1-0.1-1.4-0.2-0.2-0.3-0.5-0.4-0.7z" opacity=".91"></path><path fill="#e3d352" d="m25.1 32.3c-0.1-0.2-0.2-0.2-0.4-0.2-0.2-0.1-0.2-0.3 0-0.4 0.3 0.2 0.6 0.4 1 0.5-0.2 0.1-0.4 0.1-0.6 0.1z"></path><path fill="#eedad5" d="m28.9 30.6c0 0.4 0 0.8 0 1.3-0.3 0.4-0.8 0.7-1.3 0.9 0.1-0.3 0-0.6 0-0.9-0.5 0.4-1 0.7-1.5 0.8 1-0.6 1.9-1.3 2.8-2.1z" opacity=".956"></path><path fill="#ac9d5f" d="m23.8 31.9c0.2-0.1 0.3 0 0.5 0.1 0 0.3 0.2 0.6 0.4 0.8-0.3 0.3-0.6 0.3-0.9 0.2l0.5-0.3c-0.2 0-0.3-0.1-0.5-0.1 0.4-0.2 0.4-0.3 0-0.5-0.1 0.1-0.2 0.2-0.3 0.3-0.1-0.1-0.1-0.2 0-0.3 0.1 0 0.2-0.1 0.3-0.2z"></path><path fill="#e5d190" d="m23.6 31c0.2 0 0.3 0.1 0.1 0.2 0.1 0.1 0.2 0.1 0.3 0.2-1.1 0.6-2.2 0.9-3.4 1.2-0.3-0.2-0.5-0.2-0.8-0.3 0.9-0.1 0.9-0.1 0-0.2 1.2-0.2 2.5-0.6 3.8-1.1z"></path><path fill="#cfc6b1" d="m22.7 32.6c0.1-0.2 0.2-0.2 0.4 0 0.1 0.2 0.2 0.4 0.2 0.7 0.1-0.2 0.3-0.2 0.4-0.1-0.2 0.2-0.4 0.2-0.7 0.2 0-0.3-0.1-0.6-0.3-0.8z"></path><path fill="#f0ecca" d="m18.9 32.3c0.3-0.2 0.5-0.2 0.9-0.2 0.9 0.1 0.9 0.1 0 0.2 0.3 0.1 0.5 0.1 0.8 0.3-1 0.2-2 0.3-3 0.2-0.4-0.2-0.8-0.3-1.4-0.3 1.1 0 2-0.1 2.7-0.2z"></path><path fill="#705d25" d="m24.7 32.1c0.2 0 0.3 0 0.4 0.2 0 0.1-0.1 0.2-0.1 0.4-0.2-0.2-0.3-0.3-0.3-0.6z"></path><path fill="#c6be9d" d="m11.7 31.9c0.8 0.1 0.9 0.4 0.5 1.1-0.1 0.1-0.2 0.1-0.3 0 0.1-0.2 0.2-0.5 0.3-0.9-0.2 0-0.4 0.1-0.5 0.2-0.1-0.2-0.1-0.3 0-0.4z"></path><path fill="#60584e" d="m13.1 33.3c0-0.3-0.1-0.6-0.2-0.9-0.1 0.4-0.1 0.7 0.1 1 0 0.1 0 0.1-0.1 0.1-0.2-0.4-0.2-0.8-0.2-1.2h0.4c0 0.1 0.1 0.3 0.2 0.4 0.1-0.1 0.3-0.1 0.4-0.1-0.2 0.3-0.4 0.5-0.6 0.7z"></path><path fill="#ecd3f0" d="m27.6 32.8c-0.7 0.6-1.5 1.1-2.4 1.4v-1.1c0.3-0.2 0.6-0.3 0.9-0.4 0.5-0.1 1-0.4 1.5-0.8 0 0.3 0.1 0.6 0 0.9z" opacity=".889"></path><path fill="#fefbef" d="m13.1 33.3c0 0-0.1 0-0.1 0.1-0.2-0.3-0.2-0.6-0.1-1 0.1 0.3 0.2 0.6 0.2 0.9z"></path><path fill="#b5aaa9" d="m14 32.7c0.1 0 0.2 0 0.3 0.1-0.2 0.4-0.2 0.7 0.1 1-0.3 0.1-0.6 0.1-1-0.1 0.1-0.1 0.3-0.2 0.5-0.2 0-0.3 0-0.5 0.1-0.8z"></path><path fill="#bdbbb8" d="m20.6 32.8c0.7 0.2 0.9 0.6 0.6 1.2-0.8 0.2-1.1-0.1-0.8-0.9 0.1-0.1 0.2-0.2 0.2-0.3z"></path><path fill="#070707" d="m20.6 33.1h0.4c0.1 0.3 0 0.6-0.1 0.9-0.3-0.3-0.4-0.5-0.3-0.9z"></path><path fill="#ad8d3d" d="m16.2 33.1c0.3 0 0.5 0.1 0.6 0.3 0.1-0.1 0.3-0.1 0.4-0.1-0.1 0.3-0.3 0.4-0.5 0.5 0.1 0.1 0.1 0.3 0 0.4-0.2-0.3-0.4-0.7-0.5-1.1z"></path><path fill="#ebdfda" d="m14.8 33c0.2 0.3 0.2 0.6-0.1 1l-0.1-0.1c0.1-0.3 0.2-0.6 0.2-0.9z"></path><path fill="#d8d6cb" d="m19.8 33.1c0.2 0.3 0.3 0.6 0.4 1-0.1 0.1-0.3 0.2-0.4 0.1v-1.1z"></path><path fill="#bcb9b7" d="m21.6 32.7c0.8-0.1 1 0.3 0.7 1.1-0.2 0-0.5 0-0.7 0 0.7-0.1 0.8-0.4 0.4-0.9h-0.6c0.1 0 0.2-0.1 0.2-0.2z"></path><path fill="#cda560" d="m15.7 33.1c0.3 0.3 0.3 0.6 0.1 1-0.2-0.6-0.3-0.6-0.5 0-0.3-0.4-0.1-0.6 0.4-0.6v-0.4z"></path><path fill="#e6e4d4" d="m18.6 33.4c0.3 0.2 0.6 0.5 0.9 0.8-0.2 0.1-0.3 0.1-0.4 0-0.3-0.2-0.4-0.5-0.5-0.8z"></path><path fill="#debcae" d="m25.2 33.1v1.1c-0.4 0.3-0.9 0.6-1.4 0.7 0.1-0.3 0-0.7-0.1-1.1 0.5-0.2 1-0.5 1.5-0.7z" opacity=".941"></path><path fill="#b5ab83" d="m17.6 33.1c0.8 0.2 0.9 0.6 0.5 1.2-0.3 0.1-0.5 0.1-0.7-0.1 0.2 0 0.4 0 0.6-0.1 0.1-0.2 0.1-0.4 0-0.6-0.2-0.1-0.4-0.1-0.6-0.1 0.1-0.1 0.2-0.2 0.2-0.3z"></path><path fill="#f7f08f" d="m11.3 33.5c1.4 0.6 2.9 1 4.4 1.3-0.2 0.1-0.5 0.2-0.7 0.1v0.9c-1.5-0.3-3-0.8-4.4-1.4 0-0.3 0-0.7 0.1-1l0.6 0.3c0-0.1 0-0.1 0-0.2z" opacity=".875"></path><path fill="#d1a979" d="m23.7 33.8c0.1 0.4 0.2 0.8 0.1 1.1-0.3 0.2-0.7 0.3-1.1 0.3 0-0.3 0-0.6 0.2-0.9-0.1-0.1-0.2-0.1-0.3-0.1 0.3-0.2 0.7-0.3 1.1-0.4z" opacity=".913"></path><path fill="#e5cb5d" d="m15.7 34.8c1.1 0.1 2.3 0.2 3.5 0.1 0.1 0.2-0.1 0.3-0.6 0.2v0.8h-2.9c-0.2-0.1-0.5-0.2-0.7-0.1v-0.9c0.2 0.1 0.5 0 0.7-0.1z" opacity=".961"></path><path fill="#cba03e" d="m22.6 34.2c0.1 0 0.2 0 0.3 0.1-0.2 0.3-0.2 0.6-0.2 0.9-0.9 0.4-1.7 0.6-2.7 0.7h-1.4v-0.8c0.5 0.1 0.7 0 0.6-0.2 1.1-0.2 2.2-0.4 3.4-0.7z" opacity=".882"></path></svg>