<?xml version="1.0"?><svg xmlns="http://www.w3.org/2000/svg" width="36" height="36" shape-rendering="geometricPrecision" text-rendering="geometricPrecision" image-rendering="optimizeQuality" fill-rule="evenodd" clip-rule="evenodd" viewBox="0 0 36 36"><path d="m-0.1-0.1h36v36h-36v-36z"></path><path fill="#b35a1b" d="m23.5 3.7c-0.3 0.1-0.6 0.2-0.9 0.2 0 0.1 0.1 0.1 0.1 0.2h-0.1c-0.2 0-0.3-0.1-0.4-0.2 0.4-0.2 0.8-0.3 1.3-0.2z"></path><path fill="#fc6904" d="m23.5 3.7c0.2 1 0.3 2.1 0.2 3.2l-0.9-0.1c0-0.9 0-1.8-0.1-2.7 0-0.1-0.1-0.1-0.1-0.2 0.3 0 0.6-0.1 0.9-0.2z"></path><path fill="#f2690c" d="m12.8 4c0 0.6 0 1.3-0.1 1.9-0.6-0.2-1-0.7-1.1-1.2-0.2-0.1-0.4-0.2-0.6-0.1-0.1 0.4 0 0.7 0.1 1.1l1.6 1.2v0.4c-0.4-0.1-0.8-0.2-1.2-0.3-0.5-0.3-1-0.7-1.4-1.1-0.1-0.7-0.2-1.5-0.2-2.2-0.3-0.2-0.3-0.3-0.1-0.4 1 0.2 2 0.5 3 0.7z"></path><path fill="#c8692a" d="m11.6 4.7h-0.5v1c-0.1-0.4-0.2-0.7-0.1-1.1 0.2-0.1 0.4 0 0.6 0.1z"></path><path fill="#874d20" d="m12.8 4c0.1 0.5 0.1 0.9 0.1 1.5 0.6-0.1 1.2 0 1.8 0.1-0.6-0.1-1.2 0-1.7 0.1-0.1 0.1-0.2 0.2-0.3 0.3 0 0-0.1 0 0-0.1 0.1-0.6 0.1-1.3 0.1-1.9z"></path><path fill="#e16619" d="m23.5 3.7c0-0.1 0.1-0.2 0.3-0.2v3.5c-0.4 0.1-0.8 0.1-1.1 0.1v-3c0.1 0.9 0.1 1.8 0.1 2.7l0.9 0.1c0.1-1.1 0-2.2-0.2-3.2z"></path><path fill="#7e0304" d="m12.7 6.9c0.1 0.1 0.2 0.2 0.2 0.3-0.1 0.5-0.2 1-0.2 1.5-0.3 0.2-0.6 0.3-0.9 0.4l-1.7 0.2c-0.1-0.6 0-1.2 0.1-1.8 0.2 0.1 0.3 0.1 0.5 0.1 0.1 0.1 0.2 0.1 0.4 0.1v0.6h0.5c0.1-0.5 0-0.9-0.1-1.3 0.4 0.1 0.8 0.2 1.2 0.3v-0.4z"></path><path fill="#550c0d" d="m25.4 7.1c0.1 0.9 0.1 1.7 0.1 2.6-0.2 0-0.4 0-0.6-0.2h0.5v-2.4z"></path><path fill="#7c0304" d="m23.8 7v1.4h0.6c0-0.6 0.4-1 1-1.3v2.4h-0.5l-1.8-0.2c-0.1-0.1-0.3-0.2-0.4-0.1v-2.1c0.3 0 0.7 0 1.1-0.1z"></path><path fill="#5b0509" d="m10.7 7.6c-0.2 0-0.3 0-0.5-0.1-0.1 0.6-0.2 1.2-0.1 1.8l1.7-0.2c-0.5 0.2-0.9 0.3-1.4 0.4h-0.6c0-0.9 0-1.7 0.2-2.6 0.3 0.2 0.6 0.4 0.7 0.7z"></path><path fill="#420103" d="m18.8 9.3c1 0 2 0.2 3 0.5 0.3 0.2 0.5 0.4 0.7 0.7 0 0.5 0 1 0.1 1.5-0.2 0.3-0.4 0.7-0.6 1-0.1-0.4-0.3-0.7-0.5-1 0.7 0.2 1-0.1 0.8-0.8 0.1-0.7-0.1-1.1-0.8-1.1-1.1-0.5-2.4-0.6-3.6-0.5-0.3-0.1-0.5-0.2-0.9-0.2l-0.7 0.1c0.1 0.1 0.1 0.3 0.1 0.5l-0.3-0.3c0 0-0.1 0-0.1-0.1 0.1-0.1 0.2-0.2 0.1-0.3 1-0.1 1.9-0.1 2.7 0z"></path><path fill="#5a0102" d="m21.5 10.1c-0.2 0-0.5 0.1-0.7 0.1-0.7-0.2-1.3-0.3-1.8-0.2-0.2 0.2-0.2 0.4 0 0.6 0.2-0.3 0.3-0.2 0.3 0.1 0.3 0 0.6 0.1 0.8 0.3h-0.6c0 0.2-0.1 0.5-0.2 0.8-0.1-0.2-0.2-0.4-0.2-0.5h-0.3c0-0.1 0-0.1-0.1-0.1 0.1-0.1 0.2-0.3 0.1-0.5-0.3 0.1-0.5 0.4-0.6 0.7-0.2-0.3-0.4-0.7-0.6-1 0-0.2-0.1-0.2-0.3-0.2 0 0.3-0.1 0.4-0.4 0.5-0.2-0.2-0.4-0.4-0.5-0.7 0-0.2 0-0.4-0.1-0.5l0.7-0.1c0.4 0 0.6 0.1 0.9 0.2 1.2-0.1 2.5 0 3.6 0.5z"></path><path fill="#350203" d="m11.3 10.1c0-0.2 0-0.3-0.1-0.4 0.5 0 1.1 0 1.6 0 0 0.4 0.1 0.7 0.2 1.1-0.4 0.2-0.6 0.5-0.9 0.8-0.3-0.4-0.6-1-0.8-1.5z"></path><path fill="#ac4e1f" d="m16 9.6c0 0.1 0.1 0.1 0.1 0.1v0.5c0-0.1-0.1-0.1-0.1-0.2l-0.1 0.1c0.2 0.4 0.4 0.9 0.5 1.3 0 0.3-0.1 0.3-0.3 0.1-0.1-0.5-0.3-1-0.4-1.5 0-0.3 0.1-0.5 0.2-0.7 0.1 0.1 0.2 0.2 0.1 0.3z"></path><path fill="#690101" d="m21.5 10.1c0.7 0 0.9 0.4 0.8 1.1 0.2 0.7-0.1 1-0.8 0.8-0.2-0.3-0.4-0.6-0.7-0.8-0.1 0-0.2 0.1-0.3 0.2-0.1-0.1-0.3-0.2-0.4-0.3v-0.1c-0.2-0.2-0.5-0.3-0.8-0.3 0-0.4-0.1-0.4-0.3-0.1-0.2-0.2-0.2-0.4 0-0.6 0.5-0.1 1.1 0 1.8 0.2 0.2 0 0.5-0.1 0.7-0.1z"></path><path fill="#2d0203" d="m18.8 9.3c1.3-0.1 2.5 0 3.8 0.4 0.3 0.2 0.6 0.6 0.7 0.9v0.1c-0.2 0.4-0.5 0.8-0.7 1.3-0.1-0.5-0.1-1-0.1-1.5-0.2-0.3-0.4-0.5-0.7-0.7-1-0.3-2-0.5-3-0.5z"></path><path fill="#1a0404" d="m16.1 9.7l0.3 0.3c0.1 0.3 0.3 0.5 0.5 0.7 0.3-0.1 0.4-0.2 0.4-0.5 0.2 0 0.3 0 0.3 0.2-0.1 0-0.2 0.1-0.3 0.2 0 0.4 0 0.8 0 1.2-0.4-0.6-0.7-1.1-1.2-1.6v-0.5z"></path><path fill="#b65a20" d="m17.6 10.4c0.1 0.3 0.1 0.5 0.1 0.8-0.2-0.1-0.2-0.1-0.2 0.2 0.1 0.3 0.1 0.6 0.2 0.9l-0.1 0.2c-0.1-0.2-0.2-0.5-0.3-0.7 0-0.4 0-0.8 0-1.2 0.1-0.1 0.2-0.2 0.3-0.2z"></path><path fill="#1f0506" d="m17.6 10.4c0.2 0.3 0.4 0.7 0.6 1 0.1-0.3 0.3-0.6 0.6-0.7 0.1 0.2 0 0.4-0.1 0.5-0.3 0.4-0.4 0.9-0.4 1.5-0.1 0.1-0.2 0.3-0.2 0.5-0.1-0.5-0.1-1-0.1-1.6-0.1-0.1-0.1-0.3-0.3-0.4 0-0.3 0-0.5-0.1-0.8z"></path><path fill="#b15114" d="m11 9.7h0.2c0.1 0.1 0.1 0.2 0.1 0.4v1c0.1 0.8 0.1 1.7 0.1 2.6-0.1-0.5-0.2-0.9-0.3-1.4-0.1 1.5 0 2.9 0.1 4.3-0.2-2.3-0.3-4.5-0.2-6.9z"></path><path fill="#a1450f" d="m23.6 11c0 0.7 0 1.5-0.1 2.2 0 0.3-0.1 0.5-0.2 0.7 0-0.5 0.1-0.9 0.2-1.4-0.1-0.5 0-1 0.1-1.5z"></path><path fill="#9f8149" d="m13.3 15.4c-0.3-0.3-0.6-0.6-0.7-1.1-0.1-0.4-0.2-0.9-0.4-1.3 0-0.1 0-0.2-0.1-0.2-0.1-0.3-0.1-0.5-0.1-0.7 0.5 0.9 1 1.7 1.5 2.6 0 0.2 0 0.4 0.1 0.6-0.1 0.1-0.2 0.1-0.3 0.1z"></path><path fill="#760504" d="m14.9 9.8l0.3 0.6c0.1 0.1 0.1 0.1 0.2 0 0.3 0.4 0.5 0.7 0.7 1.1 0.2 0.2 0.3 0.2 0.3-0.1-0.1-0.4-0.3-0.9-0.5-1.3l0.1-0.1c0 0.1 0.1 0.1 0.1 0.2 0.5 0.5 0.8 1 1.2 1.6 0.1 0.2 0.2 0.5 0.3 0.7l0.1-0.2c-0.1-0.3-0.1-0.6-0.2-0.9 0-0.3 0-0.3 0.2-0.2 0.2 0.1 0.2 0.3 0.3 0.4 0 0.6 0 1.1 0.1 1.6 0-0.2 0.1-0.4 0.2-0.5-0.1 0.2 0 0.4 0.1 0.6 0.1-0.5 0.2-1 0.3-1.5 0.2 0.3 0.3 0.6 0.4 1 0.1 0.1 0.2 0.2 0.3 0.1 0.3 0.2 0.4 0.4 0.3 0.8 0.1 0 0 0.1 0 0.1-0.1-0.1-0.2-0.2-0.3-0.2l-0.2 0.5-0.5-0.4-0.2 1c-0.1-0.3-0.3-0.4-0.5-0.6 0 0.1-0.1 0.2-0.2 0.2l-0.2-0.3c-0.1 0.3-0.1 0.5-0.1 0.8-0.1 0.1-0.1 0.2-0.1 0.3l-0.8-0.2v0.7h-0.5c0-0.2-0.1-0.3-0.2-0.4 0-0.2 0-0.5-0.1-0.7 0.4 0.1 0.7 0.1 1.1-0.2-0.6-0.5-1.1-1.1-1.7-1.6-0.2-0.5-0.5-0.9-0.9-1.2l-0.1-0.2c0-0.1 0-0.2 0.1-0.3 0.3 0.5 0.7 0.9 1.3 1.1 0.1-0.1 0.1-0.1 0-0.2-0.2-0.2-0.3-0.4-0.5-0.6 0.2-0.1 0.2-0.3 0.1-0.4-0.4-0.3-0.5-0.7-0.3-1.1z"></path><path fill="#3a0304" d="m11.3 11.1c0.2 0 0.2 0.2 0.3 0.3 0 0.4 0.1 0.7 0.3 1-0.2 0.4-0.1 0.5 0.2 0.4 0.1 0 0.1 0.1 0.1 0.2-0.1 0.1-0.1 0.2-0.1 0.4 0 0.3 0.1 0.5 0.2 0.8-0.1 0.2-0.3 0.4-0.4 0.6l0 0.2c0.7 0.5 1.3 1.1 1.8 1.7 0.3 1.1 0.1 1.3-0.6 0.6-0.4-0.9-0.6-0.9-0.5 0-0.1-0.2-0.2-0.3-0.2-0.5-0.1 0.1-0.1 0.1-0.2 0.1-0.3-0.1-0.7-0.2-1-0.3h0.3c0.1-1 0-2-0.1-2.9 0-0.9 0-1.8-0.1-2.6z"></path><path fill="#ae8d4c" d="m22.8 12.2c0.1 0.2 0.1 0.4 0 0.6-0.1 0.3-0.2 0.6-0.4 1-0.3 0.2-0.4 0.6-0.4 1-0.2 0-0.3 0-0.4 0.1-0.1-0.1-0.1-0.2-0.1-0.3 0.4-0.8 0.8-1.6 1.3-2.4z"></path><path fill="#d96414" d="m23.8 16.6h-0.5v-2.7c0.1-0.2 0.2-0.4 0.2-0.7 0.1-0.7 0.1-1.5 0.1-2.2v-1.2h0.3c0 2.3 0 4.6-0.1 6.8z"></path><path fill="#260505" d="m22.8 12.2c0-0.1 0-0.1 0.1-0.1l0.2 0.4c0.1-0.1 0.2-0.3 0.2-0.4 0 0.2 0.1 0.3 0.2 0.4-0.1 0.5-0.2 0.9-0.2 1.4v0.9c-0.1 0.5-0.1 0.9-0.1 1.5-0.1-0.4-0.1-0.7-0.1-1.1l-0.1 0.4c-0.1-0.2-0.2-0.3-0.3-0.4 0.1-0.1 0.3-0.3 0.4-0.5l-0.1-0.1-0.3 0.2-0.1-0.2c0.2-0.6 0.3-1.2 0.2-1.8 0.1-0.2 0.1-0.4 0-0.6z"></path><path fill="#100303" d="m22.6 4.1h0.1v5.1c0.1-0.1 0.3 0 0.4 0.1-0.2 0-0.4 0-0.7 0 0.7 0.2 1 0.7 0.9 1.3-0.1-0.3-0.4-0.7-0.7-0.9-1.3-0.4-2.5-0.5-3.8-0.4-0.8-0.1-1.7-0.1-2.7 0 0.1 0.1 0 0.2-0.1 0.3 0.1-0.1 0-0.2-0.1-0.3-0.1 0.2-0.2 0.4-0.2 0.7 0.1 0.5 0.3 1 0.4 1.5-0.2-0.4-0.4-0.7-0.7-1.1-0.3-0.5-0.4-0.9-0.5-1.5-0.2 0.2-0.4 0.3-0.4 0.6-0.1 0.3-0.1 0.6 0.1 0.9 0 0.1 0 0.2 0 0.3 0.2 0.2 0.4 0.4 0.5 0.6 0.2 0.2 0.3 0.4 0.5 0.6 0.1 0.1 0.1 0.1 0 0.2-0.4-0.4-0.8-0.8-1.2-1.2-0.1-0.3-0.2-0.6-0.4-0.8-0.1 0.4-0.1 0.9 0 1.3 0.2 0.8 0.5 1.4 0.9 2 0.2 0.2 0.3 0.4 0.5 0.6-0.1 0.2-0.1 0.5 0 0.7 0.2 0.2 0.4 0.4 0.5 0.5 0.1 0.1 0.2 0.2 0.2 0.4 0.4 0.3 0.7 0.2 0.8-0.4 0.1 0.6 0.3 0.6 0.5 0.2 0.1-0.2 0.1-0.4 0.1-0.6 0.2 0 0.3 0.2 0.4 0.3 0-0.1 0.1-0.2 0.2-0.3 0.1 0.2 0.2 0.5 0.3 0.8 0.3-0.4 0.4-0.8 0.4-1.3h0.4c0 0.3 0 0.6 0 0.9 0.2-0.4 0.2-0.8 0.3-1.3 0.2 0.2 0.3 0.5 0.3 0.8 0.1-0.4 0.1-0.7-0.1-1 0.1-0.4 0-0.6-0.3-0.8-0.2-0.5-0.4-1-0.6-1.6h0.3c-0.1 0.3 0 0.5 0.3 0.7 0.3-0.2 0.4-0.5 0.3-0.9h0.4c0.1 0.1 0.3 0.2 0.4 0.3 0.1-0.1 0.2-0.2 0.3-0.2 0.3 0.2 0.5 0.5 0.7 0.8 0.2 0.3 0.4 0.6 0.5 1 0.2-0.3 0.4-0.7 0.6-1 0.2-0.5 0.5-0.9 0.7-1.3v1.4c0 0.1-0.1 0.3-0.2 0.4l-0.2-0.4c-0.1 0-0.1 0-0.1 0.1-0.5 0.8-0.9 1.6-1.3 2.4-0.1 0.1-0.2 0.2-0.3 0.4 0.1 0.1 0.3 0.2 0.5 0.3 0.4-0.4 0.7-0.9 0.7-1.5 0.2-0.4 0.3-0.7 0.4-1 0.1 0.6 0 1.2-0.2 1.8l0.1 0.2 0.3-0.2 0.1 0.1c-0.1 0.2-0.3 0.4-0.4 0.5-0.3 0.3-0.5 0.5-0.8 0.6 0-0.1 0-0.2-0.1-0.3-0.3 0.1-0.6 0.2-0.8 0.3-0.1 0-0.2 0-0.2 0.1-0.4 0.4-0.8 0.8-1.1 1.3-0.4 0.4-0.9 0.8-1.4 1.1-0.1-0.1-0.2-0.2-0.1-0.2 0.4-0.4 0.8-0.8 1.1-1.3-0.4-0.3-0.8-0.5-1.4-0.4-0.7-0.2-1.4-0.1-2.1 0.2-0.1 0.1-0.1 0.3-0.1 0.4 0.3 0.2 0.5 0.5 0.7 0.8l-0.3 0.1c-0.3-0.2-0.7-0.5-1-0.9-0.2-0.2-0.5-0.5-0.6-0.9-0.2-0.2-0.4-0.3-0.6-0.3-0.2-0.1-0.4-0.2-0.7-0.3 0-0.1 0.1-0.1 0.1-0.1 0.1 0 0.2 0 0.3-0.1-0.1-0.2-0.1-0.4-0.1-0.6-0.5-0.9-1-1.7-1.5-2.6 0 0.2 0 0.4 0.1 0.7-0.3 0.1-0.4 0-0.2-0.4-0.2-0.3-0.3-0.6-0.3-1-0.1-0.1-0.1-0.3-0.3-0.3v-1c0.2 0.5 0.5 1.1 0.8 1.5 0.3-0.3 0.5-0.6 0.9-0.8-0.1-0.4-0.2-0.7-0.2-1.1-0.5 0-1.1 0-1.6 0h-0.2c0 0 0.1-0.1 0.2-0.1-0.3-0.1-0.5-0.1-0.8-0.1 0.5-0.1 0.9-0.2 1.4-0.4 0.3-0.1 0.6-0.2 0.9-0.4 0-0.5 0.1-1 0.2-1.5 0-0.1-0.1-0.2-0.2-0.3l-1.6-1.2v-1h0.5c0.1 0.5 0.5 1 1.1 1.2-0.1 0.1 0 0.1 0 0.1 0.1-0.1 0.2-0.2 0.3-0.3v3.2c0.3 0.1 0.6 0 0.8-0.1 0.1-0.4 0.1-0.8 0.2-1.2h0.2v1.1c0.3-0.1 0.5-0.2 0.8-0.4 0-0.3 0-0.5 0-0.7v-1.9c0.1 0 0.1 0 0.2 0.1 0 0.6 0.1 1.3 0 1.9v1h0.9v-1c0-0.2 0-0.5 0.2-0.7 0.1 0.3 0.2 0.5 0.4 0.7 0.2 0.3 0.3 0.6 0.2 0.9h0.8v-0.9c0-0.7 0-1.3 0.1-2 0 0 0.1 0.1 0.1 0.1v1.9c0 0.4 0.1 0.7 0.3 1 0.6 0 1.2 0 1.8 0 0-0.5 0-0.9-0.1-1.3-0.2-0.1-0.4-0.2-0.6-0.4-0.1-0.1-0.2-0.1-0.3-0.1-0.1 0.3 0 0.5 0.2 0.7v0.6h-0.4v-2.1h0.4c0.1 0.4 0.3 0.7 0.8 0.7 0-0.4 0-0.7 0-1.1 0.1 0 0.1 0.1 0.2 0.1v3l0.9 0.1c-0.1-0.5 0-0.9 0.2-1.3 0.1 0.4 0.2 0.9 0.1 1.3h0.8v-3.2c0.1 1.1 0.2 2.1 0.2 3.2 0.2-1.6 0.2-3.2 0.2-4.8z"></path><path fill="#3f0203" d="m19.7 13.7c0.2 0.3 0.2 0.6 0.1 1 0-0.3-0.1-0.6-0.3-0.8-0.1 0.5-0.1 0.9-0.3 1.3 0-0.3 0-0.6 0-0.9h-0.4c0 0.5-0.1 0.9-0.4 1.3-0.1-0.3-0.2-0.6-0.3-0.8-0.1 0.1-0.2 0.2-0.2 0.3-0.1-0.1-0.2-0.3-0.4-0.3 0-0.3 0-0.5 0.1-0.8l0.2 0.3c0.1 0 0.2-0.1 0.2-0.2 0.2 0.2 0.4 0.3 0.5 0.6l0.2-1 0.5 0.4 0.2-0.5c0.1 0 0.2 0.1 0.3 0.2 0 0 0.1-0.1 0-0.1z"></path><path fill="#420304" d="m14.3 11.5c0.4 0.3 0.7 0.7 0.9 1.2 0.6 0.5 1.1 1.1 1.7 1.6-0.4 0.3-0.7 0.3-1.2 0.2 0.2 0.2 0.2 0.5 0.2 0.7-0.1-0.1-0.3-0.3-0.5-0.5-0.1-0.2-0.1-0.5 0-0.7-0.2-0.2-0.3-0.4-0.5-0.6l0.3-0.3c-0.4-0.5-0.7-1-0.9-1.6z"></path><path fill="#430607" d="m21.3 13.9c-0.2 0.4-0.4 0.7-0.5 1.1-0.1-0.2-0.2-0.4-0.2-0.7l-0.3 0.4c-0.1-0.3-0.2-0.6-0.2-0.9l0.2 0.2c0.2-0.2 0.3-0.4 0.5-0.6 0 0.2 0.1 0.4 0.2 0.5 0.1 0.1 0.2 0.1 0.3 0z"></path><path fill="#7a0705" d="m20.6 12.4h0.2c-0.1 0.2-0.1 0.3-0.1 0.5 0.1-0.2 0.3-0.4 0.3-0.6 0.1 0.1 0.2 0.2 0.3 0.4 0-0.1 0-0.2 0-0.3 0.1 0.3 0.2 0.6 0.2 0.9 0.1 0.3 0 0.5-0.2 0.6-0.1 0.1-0.2 0.1-0.3 0.1-0.1-0.2-0.2-0.4-0.2-0.6-0.2 0.2-0.3 0.4-0.5 0.6 0-0.3 0-0.6-0.1-0.8 0.1-0.4 0.1-0.7 0.2-1 0 0.1 0.1 0.3 0.2 0.3 0 0 0.1 0 0-0.1z"></path><path fill="#d26123" d="m20.2 11.5c0.3 0.3 0.4 0.6 0.4 0.9 0.1 0.1 0 0.1 0 0.1-0.1 0-0.2-0.2-0.2-0.3-0.1 0.3-0.1 0.6-0.2 1 0.1 0.2 0.1 0.5 0.1 0.8l-0.2-0.2c-0.1-0.4-0.2-0.7-0.4-1.1 0.1-0.1 0.2-0.2 0.3-0.2 0.1-0.2 0.1-0.6 0.2-1z"></path><path fill="#561601" d="m20.2 11.5c-0.1 0.4-0.1 0.8-0.2 1-0.1-0.3 0-0.7 0.1-1.1 0 0 0.1 0.1 0.1 0.1z"></path><path fill="#d7651a" d="m14.2 11.3l0.1 0.2c0.2 0.6 0.5 1.1 0.9 1.6l-0.3 0.3c-0.4-0.6-0.7-1.2-0.9-2 0-0.3 0-0.6 0.1-0.9 0 0.3 0 0.6 0.1 0.8z"></path><path fill="#c75b26" d="m21.3 12.4c0 0.1 0 0.2 0 0.3-0.1-0.2-0.2-0.3-0.3-0.4 0 0.2-0.2 0.4-0.3 0.6 0-0.2 0-0.3 0.1-0.5 0-0.8 0.2-0.8 0.5 0z"></path><path fill="#5d0606" d="m13.6 11c0.1 0.6 0.3 1.2 0.5 1.8l-0.1 0.2c-0.1-0.2-0.2-0.3-0.3-0.5 0 0.4 0 0.8 0.2 1.2-0.5-0.5-0.6-1.1-0.3-1.8-0.2-0.3-0.2-0.6 0-0.9z"></path><path fill="#b95725" d="m18.7 11.2c0.1 0 0.1 0 0.1 0.1 0.2 0.6 0.4 1.1 0.6 1.6-0.1 0.1-0.2 0-0.3-0.1-0.1-0.4-0.2-0.7-0.4-1-0.1 0.5-0.2 1-0.3 1.5-0.1-0.2-0.2-0.4-0.1-0.6 0-0.6 0.1-1.1 0.4-1.5z"></path><path fill="#c1591b" d="m13.6 11c-0.2 0.3-0.2 0.6 0 0.9-0.3 0.7-0.2 1.3 0.3 1.8 0.2 0.2 0.1 0.3-0.2 0.2-0.4-0.5-0.6-1-0.8-1.6-0.1-0.3 0-0.6 0.1-0.9 0.2 0.2 0.2 0.1 0.2-0.1-0.1-0.5-0.1-1 0-1.5 0.2 0.1 0.3 0.2 0.3 0.4 0.1 0.2 0.1 0.5 0.1 0.8z"></path><path fill="#3d0405" d="m20.1 11v0.1h-0.4c0.1 0.4 0 0.7-0.3 0.9-0.3-0.2-0.4-0.4-0.3-0.7 0 0.1 0.1 0.3 0.2 0.5 0.1-0.3 0.2-0.6 0.2-0.8h0.6z"></path><path fill="#d95b17" d="m14.9 9.8c-0.2 0.4-0.1 0.8 0.3 1.1 0.1 0.1 0.1 0.3-0.1 0.4-0.1-0.2-0.3-0.4-0.5-0.6 0-0.1 0-0.2 0-0.3 0-0.4 0.1-0.7 0.2-1.1 0.1 0.2 0.1 0.3 0.1 0.5z"></path><path fill="#b0511d" d="m15.6 12.1c-0.6-0.2-1-0.6-1.3-1.1-0.1 0.1-0.1 0.2-0.1 0.3-0.1-0.2-0.1-0.5-0.1-0.8-0.1 0.3-0.1 0.6-0.1 0.9-0.1-0.4-0.1-0.9 0-1.3 0.2 0.2 0.3 0.5 0.4 0.8 0.4 0.4 0.8 0.8 1.2 1.2z"></path><path fill="#b5602a" d="m15.4 10.4c-0.1 0.1-0.1 0.1-0.2 0l-0.3-0.6c0-0.2 0-0.3-0.1-0.5-0.1 0.4-0.2 0.7-0.2 1.1-0.2-0.3-0.2-0.6-0.1-0.9 0-0.3 0.2-0.4 0.4-0.6 0.1 0.6 0.2 1 0.5 1.5z"></path><path fill="#5b0405" d="m13 7.4c0.1 0 0.1 0 0.1 0.1 0 0.4 0 0.9 0.1 1.3 0.1-0.2 0.3-0.2 0.6-0.2v-1.1c0.1 0 0.2 0 0.2 0.1-0.1 0.4-0.1 0.8-0.2 1.2-0.2 0.1-0.5 0.2-0.8 0.1v-1.5z"></path><path fill="#4a0306" d="m21 7.5c0.1 0 0.2 0 0.3 0.1-0.2 0.4-0.3 0.8-0.2 1.3l-0.9-0.1v-1.2c0.1 0.3 0.1 0.7 0.1 1.1h0.7v-1.2z"></path><path fill="#480204" d="m15.2 7.7h0.2v0.9h0.6v-0.9h0.1v1h-0.9v-1z"></path><path fill="#7a0404" d="m19.9 7.4c0.1 0.4 0.1 0.8 0.1 1.3-0.6 0-1.2 0-1.8 0-0.2-0.3-0.3-0.6-0.3-1h0.9v0.5h0.4v-0.6c0.3 0 0.5 0 0.7-0.2z"></path><path fill="#7c0403" d="m16.7 7.7h1v0.9h-0.8c0.1-0.3 0-0.6-0.2-0.9z"></path><path fill="#780302" d="m15.4 7.7h0.6v0.9h-0.6v-0.9z"></path><path fill="#831304" d="m20.2 5.8c0.1 0.5 0.1 1.1 0.1 1.7h0.7v1.2h-0.7c0-0.4 0-0.8-0.1-1.1v-1.8z"></path><path fill="#690607" d="m14.2 7.6h0.8c0 0.2 0 0.4 0 0.7-0.3 0.2-0.5 0.3-0.8 0.4v-1.1z"></path><path fill="#7c0404" d="m22.2 7.3v1.6h-0.8c0.1-0.4 0-0.9-0.1-1.3-0.1-0.1-0.2-0.1-0.3-0.1 0.4-0.1 0.8-0.2 1.2-0.2z"></path><path fill="#7f0203" d="m13.1 7.5h0.7v1.1c-0.3 0-0.5 0-0.6 0.2-0.1-0.4-0.1-0.9-0.1-1.3z"></path><path fill="#ea671b" d="m19.3 7c0.2 0.2 0.4 0.3 0.6 0.4-0.2 0.2-0.4 0.2-0.7 0.2-0.2-0.3-0.2-0.4 0.1-0.6z"></path><path fill="#9d602a" d="m19.3 7c-0.3 0.2-0.3 0.3-0.1 0.6-0.2-0.2-0.3-0.4-0.2-0.7 0.1 0 0.2 0 0.3 0.1z"></path><path fill="#c15912" d="m22 5.6c-1.3 0-2.6 0-3.8 0.1v1.9h0.5c0-0.5 0-1 0.1-1.5v1.6h-0.9v-2.1c1.4-0.1 2.8-0.1 4.1 0z"></path><path fill="#e96912" d="m14.7 5.6c0.1 0 0.2 0 0.3 0.1v1.9h-0.1c0-0.6 0-1.2-0.1-1.8-0.5-0.1-1.1-0.2-1.7-0.1 0 0.3 0 0.6 0.1 0.9 0.2 0.1 0.3 0.3 0.4 0.5 0.2 0.1 0.5 0.2 0.7 0.4l0.3-1.6c0.1 0.6 0.1 1.1 0.1 1.7h-0.7c0-0.1-0.1-0.1-0.2-0.1h-0.7c0-0.1 0-0.1-0.1-0.1v-1.7c0.5-0.1 1.1-0.2 1.7-0.1z"></path><path fill="#ab5113" d="m17.9 5.6v0.2c0 0-0.1-0.1-0.1-0.1-0.1 0.7-0.1 1.3-0.1 2h-0.1v-2h-0.7c0 0.3 0 0.7 0 1-0.1-0.1-0.2-0.1-0.2-0.2 0.1-0.3 0.2-0.6 0.1-0.9h1.1z"></path><path fill="#b25719" d="m15 5.7c0.4-0.2 0.8-0.2 1.1 0h-0.7v1.9h0.6c0-0.2 0-0.5 0.1-0.7 0.1 0 0.1 0.1 0.2 0.1-0.2 0.2-0.2 0.5-0.2 0.7h-0.9c0.1-0.6 0-1.3 0-1.9-0.1-0.1-0.1-0.1-0.2-0.1z"></path><path fill="#f86a0a" d="m16.1 5.7c0.3 0.2 0.4 0.5 0.6 0.8 0 0.1 0.1 0.1 0.2 0.2 0-0.3 0-0.7 0-1h0.7v2h-0.9c-0.2-0.2-0.3-0.4-0.4-0.7-0.1 0-0.1-0.1-0.2-0.1-0.1 0.2-0.1 0.5-0.1 0.7h-0.6v-1.9h0.7z"></path><path fill="#f3690d" d="m22 5.6c0.1-0.1 0.2 0 0.2 0.1v1.6c-0.4 0-0.8 0.1-1.2 0.2h-0.7c0-0.6 0-1.2-0.1-1.7-0.1 0-0.1-0.1-0.2-0.1 0 0.4 0 0.7 0 1.1-0.5 0-0.7-0.3-0.8-0.7h-0.4c-0.1 0.5-0.1 1-0.1 1.5h-0.5v-1.9c1.2-0.1 2.5-0.1 3.8-0.1z"></path><path fill="#1b0504" d="m21.1 6.2h0.3c0 0.3 0 0.5 0 0.7-0.3-0.1-0.3-0.4-0.3-0.7z"></path><path fill="#fc6803" d="m14.9 7.6h-0.2c0-0.6 0-1.1-0.1-1.7l-0.3 1.6c-0.2-0.2-0.5-0.3-0.7-0.4-0.1-0.2-0.2-0.4-0.4-0.5-0.1-0.3-0.1-0.6-0.1-0.9 0.6-0.1 1.2 0 1.7 0.1 0.1 0.6 0.1 1.2 0.1 1.8z"></path><path fill="#c15e14" d="m13.9 6.7c-0.1-0.2-0.2-0.4-0.1-0.7h0.5v0.9c-0.2 0.1-0.3 0-0.4-0.2z"></path><path fill="#120001" d="m13.9 6.7c0.1 0.2 0.2 0.3 0.4 0.2v-0.9h-0.5c-0.1 0.3 0 0.5 0.1 0.7z"></path><path fill="#e5620e" d="m11.4 13.7c0.1 0.9 0.2 1.9 0.1 2.9h-0.3c-0.1-1.4-0.2-2.8-0.1-4.3 0.1 0.5 0.2 0.9 0.3 1.4z"></path><path fill="#77633c" d="m22.4 13.8c0 0.6-0.3 1.1-0.7 1.5-0.2-0.1-0.4-0.2-0.5-0.3 0.1-0.2 0.2-0.3 0.3-0.4 0 0.1 0 0.2 0.1 0.3 0.1-0.1 0.2-0.1 0.4-0.1 0-0.4 0.1-0.8 0.4-1z"></path><path fill="#400305" d="m17.5 14.8c0 0.2 0 0.4-0.1 0.6-0.2 0.4-0.4 0.4-0.5-0.2-0.1 0.6-0.4 0.7-0.8 0.4h0.5v-0.7l0.8 0.2c0-0.1 0-0.2 0.1-0.3z"></path><path fill="#350203" d="m22.7 15.2c0.1 0.1 0.2 0.2 0.2 0.4l0.2-0.4c0 0.4 0 0.7 0.1 1.1v0.5c0 0-0.1-0.1-0.2-0.1-0.1 0.2-0.3 0.2-0.4 0.2v0.4h-0.4c0-0.3 0.1-0.5 0.2-0.6l-0.1-0.2c0 0.2-0.2 0.3-0.3 0.4 0-0.3 0-0.6-0.1-0.9 0 0.1-0.1 0.1-0.1 0.1 0-0.1 0-0.2 0.1-0.3 0.3-0.1 0.5-0.3 0.8-0.6z"></path><path fill="#904f26" d="m23.3 14.8v1.8h0.4c-0.2 0.1-0.3 0.2-0.5 0.2v-0.5c0-0.6 0-1 0.1-1.5z"></path><path fill="#510204" d="m22 16.9c-0.1 0.4-0.4 0.6-0.7 0.8-0.2-0.6-0.1-1.2 0.5-1.6 0 0 0.1 0 0.1-0.1 0.1 0.3 0.1 0.6 0.1 0.9z"></path><path fill="#874919" d="m23.7 16.9c0-0.1 0.1-0.1 0.2-0.1 0 1.2 0 2.3-0.1 3.4 0-1.1 0-2.2-0.1-3.3z"></path><path fill="#fc6703" d="m23.7 20.3v0.1c-0.6 0.3-0.8 0.1-0.7-0.5v-0.2c0.2-0.5 0.3-1 0.3-1.6 0.1-0.2 0.2-0.4 0.3-0.6 0.1 0.9 0.1 1.9 0.1 2.8z"></path><path fill="#dc6719" d="m23.7 16.9c0.1 1.1 0.1 2.2 0.1 3.3 0 0.1 0 0.1-0.1 0.1 0-0.9 0-1.9-0.1-2.8-0.1 0.2-0.2 0.4-0.3 0.6 0 0.6-0.1 1.1-0.3 1.6 0-0.4 0-0.9 0.1-1.4 0-0.4 0-0.7 0.1-1 0.2-0.2 0.3-0.3 0.5-0.4z"></path><path fill="#3a0203" d="m23.1 18.3c-0.1 0.5-0.1 1-0.1 1.4v0.2c-0.7 1.3-1.5 2.6-2.4 3.9 0 0.1-0.2 0.2-0.3 0.3 0 0 0-0.1 0-0.1-0.2 0.2-0.3 0.3-0.5 0.4-0.1-0.3-0.1-0.6-0.1-0.8 0.1 0 0.2 0.1 0.3 0.1 0.2-0.2 0.3-0.3 0.5-0.4 0.1-0.1 0.2-0.2 0.1-0.4h0.4c0.3-0.7 0.6-1.5 0.8-2.3-0.1-0.1-0.1-0.2-0.3-0.2v-0.1c0.2-0.8 0.5-1.4 1.1-2 0.1 0 0.3 0 0.4 0.2 0-0.1 0-0.2 0.1-0.2z"></path><path fill="#1b0806" d="m11 9.7c-0.1 2.4 0 4.6 0.2 6.9 0.3 0.1 0.7 0.2 1 0.3 0.1 0 0.1 0 0.2-0.1 0 0.2 0.1 0.3 0.2 0.5-0.1-0.9 0.1-0.9 0.4 0 0.8 0.7 1 0.5 0.7-0.6-0.5-0.6-1.1-1.2-1.8-1.7l0-0.2c0.1-0.2 0.3-0.4 0.4-0.6-0.1-0.3-0.2-0.5-0.2-0.8 0-0.2 0-0.3 0.1-0.4 0.2 0.4 0.3 0.9 0.4 1.3 0.1 0.5 0.4 0.8 0.7 1.1 0 0-0.1 0-0.1 0.1 0.3 0.1 0.5 0.2 0.7 0.3-0.1 0-0.3 0-0.3 0.1 0.1 0.3 0.3 0.5 0.5 0.6 0.4 0.5 0.9 0.9 1.4 1.4-0.1 0-0.2 0.1-0.3 0.2 0.1 0.1 0.1 0.2 0 0.4-0.2 0-0.4-0.1-0.6-0.2 0-0.1 0.1-0.2 0.2-0.2-0.2-0.5-0.4-0.9-0.7-1.2-0.1-0.1-0.2 0-0.2 0.1 0.1 0.4 0.3 0.7 0.4 1 0 0 0 0.1-0.1 0.1-0.2-0.2-0.4-0.2-0.6 0 0.1 0.2 0.2 0.4 0.4 0.6 0.2 0.5 0.5 0.9 0.9 1.3l0.2-0.1c-0.1-0.4-0.3-0.7-0.5-0.9l0.1-0.2c0.2 0.2 0.3 0.2 0.5 0.3 0 0.3 0.1 0.6 0.4 0.8-0.3 0.1-0.5 0.2-0.8 0.3 0.3 0.1 0.5 0.1 0.8 0-0.2 0.2-0.3 0.3-0.6 0.3 0.4 0.2 0.8 0.1 1.1-0.3 0.3 0.1 0.5 0.1 0.8 0v0.7c0.4 0 0.7 0 1-0.1v-0.4c0.1-0.1 0.2-0.2 0.3-0.2 0.3 0.1 0.6 0.2 0.9 0.2v-0.3c0.2 0 0.3 0.1 0.4 0.2-0.2 0-0.2 0.2-0.2 0.3 0.2 0.1 0.4 0 0.6-0.1-0.1 0-0.2-0.1-0.3-0.2 0.2 0 0.3 0 0.5-0.1-0.3-0.1-0.5-0.2-0.8-0.3 0.3-0.2 0.5-0.5 0.6-0.9l0.4-0.4c0.1 0 0.2 0 0.2 0.1-0.4 0.4-0.6 0.8-0.8 1.3 0.2 0 0.4 0 0.6-0.1l0.6-1.2c0.2-0.2 0.5-0.5 0.6-0.8-0.7 0.1-1.4 0.4-2 0.8-0.1 0-0.1-0.1-0.1-0.2 0.1-0.1 0.1-0.2 0.1-0.3 0.1-0.1 0.2-0.2 0.1-0.3-0.1 0.2-0.2 0.2-0.3 0.1 0.5-0.6 1.1-1.1 1.7-1.5 0.2-0.2 0.3-0.4 0.3-0.7h-0.3c0.2-0.1 0.5-0.2 0.8-0.3 0.1 0.1 0.1 0.2 0.1 0.3-0.1 0.1-0.1 0.2-0.1 0.3-0.6 0.4-0.7 1-0.5 1.6 0.3-0.2 0.6-0.4 0.7-0.8 0.1-0.1 0.3-0.2 0.3-0.4l0.1 0.1c-0.1 0.2-0.2 0.4-0.2 0.7h0.4v-0.4c0.1 0 0.3 0 0.4-0.2 0.1 0 0.2 0.1 0.2 0.1 0.2 0 0.3-0.1 0.5-0.2h0.1l0.1 0.2c-0.1 0-0.2 0-0.2 0.1-0.2 0.1-0.3 0.2-0.5 0.4-0.1 0.3-0.1 0.6-0.1 1-0.1 0-0.1 0.1-0.2 0.2 0-0.2-0.2-0.2-0.3-0.2-0.6 0.6-0.9 1.2-1.1 2v0.1c0.1 0.1 0 0.2 0 0.4-0.5 0.5-1 0.8-1.8 0.7 0-0.1-0.1-0.1-0.3-0.1-0.1-0.1-0.2-0.1-0.3 0v1c0 0.1-0.1 0.1-0.1 0.2-0.1-0.2-0.2-0.4-0.4-0.5 0.1-0.7 0-0.7-0.4 0 0 0.2-0.1 0.4-0.1 0.6 0 0.1 0.1 0.2 0.2 0.2 0 0.1-0.1 0.2-0.2 0.2-0.2 0-0.3-0.1-0.3-0.3h-0.3c0 0.2 0 0.3-0.1 0.2-0.1-0.3-0.2-0.3-0.4 0 0 0.1-0.1 0.1-0.3 0.1-0.1-0.1-0.2-0.1-0.3-0.2-0.2 0.4-0.1 0.7 0.3 0.8 0.4 0.2 0.8 0.3 1.2 0.1 0 0.1-0.1 0.2-0.1 0.3-0.4 0.1-0.7 0-1.1-0.1-0.3 0.2-0.3 0.4 0 0.6 0.1 0 0.2 0.1 0.3 0.1 0.2 0.1 0.3 0.1 0.5 0.1 0.1 0.1 0.2 0.2 0.3 0.2-0.2 0.3-0.4 0.3-0.6 0.1-0.2-0.1-0.5-0.2-0.7-0.2v0.6c-0.1-0.1-0.2-0.2-0.4-0.2v-0.8c0.1-0.1 0.2-0.2 0.2-0.4-0.1-0.1-0.1-0.3-0.3-0.3 0.1-0.1 0.2-0.2 0.3-0.2-0.1-0.3-0.2-0.5-0.2-0.8h0.4c0.3 0.1 0.4 0 0.3-0.4-0.1-0.4-0.3-0.7-0.7-0.9 0-0.2 0.1-0.3 0.3-0.5-0.1 0-0.2 0-0.3 0 0.2-0.1 0.3-0.2 0.4-0.2 0.1-0.2 0.1-0.3 0-0.4-0.7 0.5-1.5 0.6-2.3 0.2-0.2-0.2-0.4-0.5-0.5-0.7-0.2-1.3-0.8-2.2-1.8-2.9l-0.1 0.1c1 1 1.6 2.1 1.8 3.5 0.4 0.5 0.8 0.7 1.4 0.7l0.1 0.2c-0.3 0.1-0.6 0-0.9 0-0.1-0.2-0.2-0.3-0.4-0.3-0.2-0.2-0.4-0.4-0.5-0.7-0.1-0.7-0.4-1.4-0.7-2.1-0.2-0.5-0.5-0.8-1-1.1-0.1-0.3-0.3-0.5-0.6-0.5-0.1 1.2 0 2.3 0.1 3.4 0 0.3 0.1 0.5 0.3 0.7 0.6 0.8 1.2 1.7 1.9 2.4-0.2 0-0.4 0.1-0.5 0.3-0.2-0.2-0.4-0.3-0.7-0.4-0.1-0.5-0.4-0.9-0.9-1.2-0.1-0.2-0.2-0.5-0.3-0.6l0.1-0.1c-0.2-0.2-0.4-0.3-0.6-0.1 0.2-0.1 0.2-0.2 0-0.3l0.2-0.1c-0.2-0.2-0.4-0.4-0.3-0.7 0.1 0 0.2 0 0.3-0.1l-0.1-0.1c0.1 0 0.2-0.1 0.3-0.2 0-3.3 0.1-6.7 0.2-10z"></path><path fill="#88805d" d="m15.6 19.9c0.1-0.1 0.2 0 0.2 0.1-0.1 0-0.2 0.1-0.2 0.2-0.3 0.1-0.5 0.1-0.8 0 0.3-0.1 0.5-0.2 0.8-0.3z"></path><path fill="#988c62" d="m19.3 19.9c0.3 0.1 0.5 0.2 0.8 0.4-0.2 0-0.3 0-0.5 0h-0.1c-0.1-0.1-0.2-0.2-0.4-0.2 0-0.2 0-0.2 0.2-0.2z"></path><path fill="#370304" d="m11.6 17.3c0.5 0.3 0.8 0.6 1 1.1 0.3 0.7 0.6 1.4 0.7 2.1-0.2-0.2-0.5-0.1-0.7 0.1 0-0.4 0-0.8-0.1-1.3-0.1 0.1-0.3 0.1-0.4 0 0.1-0.4 0.1-0.9 0-1.4-0.1 0.2-0.2 0.4-0.3 0.5l-0.2-1.1z"></path><path fill="#481107" d="m17.9 16.4c0.6-0.1 1 0.1 1.4 0.4-0.3 0.5-0.7 0.9-1.1 1.3-0.1 0 0 0.1 0.1 0.2 0.5-0.3 1-0.7 1.4-1.1 0 0 0.1 0 0.1 0.1 0.2-0.2 0.3-0.4 0.5-0.5 0.2-0.2 0.4-0.3 0.7-0.3-0.6 0.4-1.2 0.9-1.7 1.5 0.1 0.1 0.2 0.1 0.3-0.1 0.1 0.1 0 0.2-0.1 0.3-0.5 0.3-1 0.6-1.5 1 0 0.3 0.2 0.4 0.5 0.4 0.1-0.1 0.1-0.1 0.1-0.2l0.5 0.1c-0.1 0.2-0.2 0.4-0.4 0.5-0.1 0.1-0.2 0.1-0.4 0 0 0-0.1 0.1-0.1 0.2-0.1 0-0.2 0.1-0.3 0.2-0.2-0.2-0.5-0.2-0.9-0.2v0.6h0.9c-0.3 0.1-0.6 0.1-1 0.1v-0.7c-0.3 0.1-0.5 0.1-0.8 0-0.3 0.4-0.7 0.5-1.1 0.3 0.3 0 0.4-0.1 0.6-0.3 0-0.1 0.1-0.2 0.2-0.2 0-0.1-0.1-0.2-0.2-0.1-0.3-0.2-0.4-0.5-0.4-0.8 0.4 0.3 0.7 0.6 1 1 0.1-0.2 0.3-0.4 0.5-0.5 0.3-0.2 0.3-0.4 0-0.6-0.4-0.2-0.8-0.5-1.1-0.8-0.1 0.1-0.1 0.3 0 0.4-0.1 0.1-0.2 0.1-0.4 0v-0.1c0.1-0.2 0.1-0.3 0-0.4 0.1-0.1 0.2-0.2 0.3-0.2-0.5-0.5-1-0.9-1.4-1.4 0.4 0.2 0.7 0.4 1 0.7 0-0.1 0-0.1 0-0.2 0.3 0.4 0.7 0.7 1 0.9l0.3-0.1c-0.2-0.3-0.4-0.6-0.6-0.8-0.1-0.1-0.1-0.3 0-0.4 0.7-0.3 1.4-0.4 2.1-0.2z"></path><path fill="#a2834c" d="m16.1 21c-0.3 0.1-0.7 0.3-1.1 0.3-0.6 0-1-0.2-1.4-0.7-0.2-1.4-0.8-2.5-1.8-3.5l0.1-0.1c1 0.7 1.6 1.6 1.8 2.9 0.1 0.2 0.3 0.5 0.5 0.7 0.8 0.4 1.6 0.3 2.3-0.2 0.1 0.1 0.1 0.2 0 0.4-0.1 0-0.2 0.1-0.4 0.2z"></path><path fill="#391009" d="m19.9 19c-0.1 0.4-0.3 0.7-0.6 0.9-0.2 0-0.2 0-0.2 0.2v0.3c-0.3 0-0.6-0.1-0.9-0.2 0-0.1 0.1-0.2 0.1-0.2 0.2 0.1 0.3 0.1 0.4 0 0.2-0.1 0.3-0.3 0.4-0.5 0.2-0.2 0.5-0.4 0.8-0.5z"></path><path fill="#6f1909" d="m15.2 18.6c0.2 0.1 0.3 0.1 0.4 0 0.2 0.3 0.5 0.6 0.8 0.9 0.1 0.1 0.2 0.2 0.3 0.1-0.2 0.1-0.4 0.3-0.5 0.5-0.3-0.4-0.6-0.7-1-1-0.2-0.1-0.3-0.1-0.5-0.3l-0.1 0.2c0.2 0.2 0.4 0.5 0.5 0.9l-0.2 0.1c-0.4-0.4-0.7-0.8-0.9-1.3 0.1-0.1 0.2-0.2 0.4-0.3 0.3 0.1 0.6 0.2 0.8 0.2z"></path><path fill="#360506" d="m21.3 19.1c-0.1 0.2-0.2 0.5-0.2 0.8-0.2 0-0.4 0-0.6-0.1 0.3-0.4 0.5-0.7 0.8-1.1 0 0.1 0 0.3 0 0.4z"></path><path fill="#e76810" d="m19.5 18.2c0 0.1 0 0.2-0.1 0.3-0.3 0.3-0.5 0.6-0.8 0.9 0 0.1 0 0.1-0.1 0.2-0.3 0-0.5-0.1-0.5-0.4 0.5-0.4 1-0.7 1.5-1z"></path><path fill="#842914" d="m20.9 18.7c0-0.2 0.1-0.3 0.2-0.5l-0.1 0c-0.3 0.1-0.5 0.2-0.7 0.4l-0.4 0.4c-0.3 0.1-0.6 0.3-0.8 0.5l-0.5-0.1c0.3-0.3 0.5-0.6 0.8-0.9 0 0.1 0 0.2 0.1 0.2 0.6-0.4 1.3-0.7 2-0.8-0.1 0.3-0.4 0.6-0.6 0.8z"></path><path fill="#ea6910" d="m16.7 19.6c-0.1 0.1-0.2 0-0.3-0.1-0.3-0.3-0.6-0.6-0.8-0.9-0.1-0.1-0.1-0.3 0-0.4 0.3 0.3 0.7 0.6 1.1 0.8 0.3 0.2 0.3 0.4 0 0.6z"></path><path fill="#a3874e" d="m21.5 20.3c-0.6 1-1.5 1.3-2.7 0.7-0.2 0-0.4-0.2-0.5-0.4l0.1-0.2c0.7 0.5 1.5 0.5 2.2 0.2 0.5-0.4 0.7-0.9 0.7-1.5 0.4-0.8 0.8-1.4 1.5-1.9 0.1-0.1 0.1-0.1 0.2 0-0.9 0.9-1.4 1.9-1.5 3.1z"></path><path fill="#f76807" d="m11.8 19.7c0.2 0.3 0.3 0.6 0.4 0.9 0.2 0.4 0.1 0.7-0.1 0.9-0.2-0.2-0.4-0.5-0.7-0.6-0.2-0.2-0.3-0.4-0.3-0.7-0.1-0.9 0-1.8 0.1-2.7l0.3 0.2c0 0.7 0.1 1.4 0.3 2z"></path><path fill="#640504" d="m20.9 18.7l-0.6 1.2c-0.2 0.1-0.4 0.1-0.6 0.1 0.2-0.5 0.4-0.9 0.8-1.3 0-0.1-0.1-0.1-0.2-0.1 0.2-0.2 0.4-0.3 0.7-0.4l0.1 0c-0.1 0.2-0.2 0.3-0.2 0.5z"></path><path fill="#93391f" d="m14.2 18.1c0.1 0.1 0.2 0.1 0.4 0.2 0.2 0.1 0.4 0.2 0.6 0.2v0.1c-0.2 0-0.5-0.1-0.8-0.2-0.2 0.1-0.3 0.2-0.4 0.3-0.2-0.2-0.3-0.4-0.4-0.6 0.2-0.2 0.4-0.2 0.6 0z"></path><path fill="#6f0807" d="m20.6 17c0.2 0.1 0.3 0.2 0.3 0.4 0 0.2-0.1 0.4-0.3 0.5l-0.2-0.1c0.2-0.2 0.3-0.5 0.2-0.8z"></path><path fill="#4b0b0c" d="m14.6 18.3c-0.2-0.1-0.3-0.1-0.4-0.2 0.1 0 0.1-0.1 0.1-0.1-0.1-0.3-0.3-0.6-0.4-1 0-0.1 0.1-0.2 0.2-0.1 0.3 0.3 0.5 0.7 0.7 1.2-0.1 0-0.2 0.1-0.2 0.2z"></path><path fill="#c15411" d="m11.6 17.3l0.2 1.1v1.3c-0.2-0.6-0.3-1.3-0.3-2l-0.2-0.2c-0.2 0.9-0.3 1.8-0.2 2.7-0.1-1.1-0.2-2.2-0.1-3.4 0.3 0 0.5 0.2 0.6 0.5z"></path><path fill="#790303" d="m17.9 16.4c0.2 0.1 0.3 0.1 0.5 0.1 0.1 0.2 0.1 0.3 0.1 0.4-0.1 0-0.2 0-0.3 0.1 0.1 0.2 0.2 0.3 0.2 0.5-0.2 0.4-0.5 0.8-0.7 1.1-0.1 0.5-0.1 0.9-0.1 1.4h-0.3c-0.1-0.5-0.1-1-0.2-1.5-0.4-0.4-0.5-0.8-0.4-1.3-0.2-0.1-0.3-0.2-0.4-0.4 0.5-0.4 1-0.5 1.6-0.4z"></path><path fill="#a85121" d="m20.8 15.9c-0.2 0.3-0.4 0.6-0.5 0.9-0.2 0.1-0.3 0.3-0.5 0.5 0-0.1-0.1-0.1-0.1-0.1 0.3-0.5 0.7-0.9 1.1-1.3z"></path><path fill="#72100a" d="m21 15.8h0.3c0 0.3-0.1 0.5-0.3 0.7-0.3 0-0.5 0.1-0.7 0.3 0.1-0.3 0.3-0.6 0.5-0.9 0-0.1 0.1-0.1 0.2-0.1z"></path><path fill="#872812" d="m13.9 15.8c0.2 0 0.4 0.1 0.6 0.3 0.1 0.4 0.4 0.7 0.6 0.9 0 0.1 0 0.1 0 0.2-0.3-0.3-0.6-0.5-1-0.7-0.2-0.1-0.4-0.3-0.5-0.6 0-0.1 0.2-0.1 0.3-0.1z"></path><path fill="#5c0d09" d="m19.5 20.3h0.1c0.1 0.1 0.2 0.2 0.3 0.2-0.2 0.1-0.4 0.2-0.6 0.1 0-0.1 0-0.3 0.2-0.3z"></path><path fill="#7b0105" d="m17.9 20.4v0.4h-0.9v-0.6c0.4 0 0.7 0 0.9 0.2z"></path><path fill="#e76711" d="m23 19.9c-0.1 0.6 0.1 0.8 0.7 0.5-0.3 0.5-0.6 0.9-0.9 1.4-0.6 0.8-1.4 1.5-2.2 2.2v-0.2c0.9-1.3 1.7-2.6 2.4-3.9z"></path><path fill="#630606" d="m16.5 21c0.5 0 0.9 0.1 1.4 0.2 0.1-0.2 0.3-0.2 0.5-0.1-0.2 0.4-0.6 0.5-1 0.4-0.5 0.1-0.8-0.1-0.9-0.5z"></path><path fill="#de6313" d="m12.2 20.6c0.7 1.3 1.4 2.4 2.3 3.5-0.1 0.1-0.1 0.1-0.2 0.1-0.3-0.3-0.6-0.6-1-0.9-0.7-0.7-1.3-1.6-1.9-2.4 0.3 0.1 0.5 0.4 0.7 0.6 0.2-0.2 0.3-0.5 0.1-0.9z"></path><path fill="#620102" d="m21.5 20.4c0.2 0 0.2 0.1 0.3 0.2-0.2 0.8-0.5 1.6-0.8 2.3h-0.4c0.1 0.2 0 0.3-0.1 0.4-0.2 0.1-0.3 0.2-0.5 0.4-0.1 0-0.2-0.1-0.3-0.1v-2.1c0.8 0.1 1.3-0.2 1.8-0.7 0-0.2 0.1-0.3 0-0.4z"></path><path fill="#5d0503" d="m19.1 21.4c0.1 0.2 0.2 0.4 0.2 0.6l-0.1 0.6c0-0.1-0.1-0.1-0.1-0.2v-1z"></path><path fill="#9d8553" d="m18.6 22.1c-0.1 0.2-0.1 0.4-0.2 0.7-0.1 0-0.1 0-0.1 0.1-0.1 0-0.2-0.1-0.2-0.2 0-0.2 0.1-0.4 0.1-0.6 0.4-0.7 0.5-0.7 0.4 0z"></path><path fill="#4b0404" d="m13.3 20.5c0.1 0.3 0.3 0.5 0.5 0.7 0.2 0 0.3 0.1 0.4 0.3 0.3 0 0.6 0.1 0.9 0 0.2 1.1 0.1 2.2-0.1 3.3-0.3-0.1-0.5-0.3-0.7-0.6 0.1 0 0.1 0 0.2-0.1-0.9-1.1-1.6-2.2-2.3-3.5-0.1-0.3-0.2-0.6-0.4-0.9v-1.3c0.1-0.1 0.2-0.3 0.3-0.5 0.1 0.5 0.1 1 0 1.4 0.1 0.1 0.3 0.1 0.4 0 0.1 0.5 0.1 0.9 0.1 1.3 0.2-0.2 0.5-0.3 0.7-0.1z"></path><path fill="#6d0102" d="m13.8 21.2c0 0.6 0.2 0.8 0.8 0.7 0.1 0.4 0.1 0.9 0 1.3 0 0.1-0.1 0.1-0.1 0.1-0.1-0.3-0.3-0.6-0.7-0.9 0-0.3-0.2-0.7-0.4-1 0.1-0.1 0.2-0.2 0.4-0.2z"></path><path fill="#3b0506" d="m15.5 21.3c0.2 0 0.3 0.1 0.4 0.2 0 0.3 0 0.6-0.1 0.9l0.2 0.5c-0.1 0.3-0.3 0.6-0.5 0.9 0-0.8 0-1.7 0-2.5z"></path><path fill="#9a804a" d="m16.1 21.5c0.4 0.2 0.6 0.5 0.7 0.9 0.1 0.4 0 0.5-0.3 0.4-0.1-0.4-0.2-0.8-0.4-1.3z"></path><path fill="#640708" d="m17 21.9c0.3-0.1 0.6 0 0.8 0.1 0.2 0.6-0.1 0.8-0.6 0.6-0.1-0.2-0.2-0.5-0.2-0.7z"></path><path fill="#798560" d="m17.4 23h-0.4c0.2-0.3 0.3-0.3 0.4 0z"></path><path fill="#542a1a" d="m18.1 23.1c-0.5 0.2-0.9 0.2-1.4 0 0.2 0 0.3 0 0.3-0.1h0.4c0.1 0.1 0.1 0 0.1-0.2h0.3c0 0.2 0.1 0.3 0.3 0.3z"></path><path fill="#280704" d="m19.1 21.4c0.1-0.1 0.2-0.1 0.3 0 0 0.8 0 1.5-0.1 2.3-0.1-0.1-0.1-0.2-0.1-0.4h-0.4c0 0.2 0.1 0.4 0.2 0.6-0.3 0.4-0.3 0.8-0.3 1.2-0.1-0.4-0.1-0.9-0.1-1.4-0.1 0.1-0.2 0.1-0.3 0.1 0.1-0.2 0.3-0.4 0.4-0.5 0-0.3-0.1-0.4-0.3-0.5 0.1-0.3 0.1-0.5 0.2-0.7 0.2 0.1 0.3 0.3 0.4 0.5 0-0.1 0.1-0.1 0.1-0.2 0 0.1 0.1 0.1 0.1 0.2l0.1-0.6c0-0.2-0.1-0.4-0.2-0.6z"></path><path fill="#700306" d="m18.4 22.8c0.2 0.1 0.3 0.2 0.3 0.5-0.1 0.1-0.3 0.3-0.4 0.5h-0.4c-0.4 0.2-0.8 0.1-1.2-0.1-0.4-0.1-0.5-0.4-0.3-0.8 0.1 0.1 0.2 0.1 0.3 0.2 0.5 0.2 0.9 0.2 1.4 0 0.1 0 0.2-0.1 0.2-0.2 0-0.1 0-0.1 0.1-0.1z"></path><path fill="#450204" d="m16 23.8c0.2 0 0.2 0.2 0.3 0.3 0 0.2-0.1 0.3-0.2 0.4 0.1-0.6 0-0.7-0.3-0.3-0.1 0.4-0.1 0.8-0.1 1.2-0.1 0-0.2-0.1-0.3-0.3-0.2-0.6 0-1.1 0.6-1.3z"></path><path fill="#a35d2b" d="m20.6 23.8v0.2c-0.2 0.3-0.4 0.6-0.7 0.8-0.1-0.1-0.1-0.1 0-0.2 0.2-0.2 0.3-0.3 0.4-0.5 0.1-0.1 0.3-0.2 0.3-0.3z"></path><path fill="#f07810" d="m17 24.7c-0.1 0-0.2-0.1-0.3-0.1v-0.4c0.3 0 0.7 0.1 1 0.2 0 0.1 0 0.2-0.1 0.2-0.2 0.1-0.4 0.1-0.6 0.1z"></path><path fill="#a55616" d="m17.8 24.1c0.1 0 0.2 0.1 0.2 0.1 0-0.1 0.1-0.2 0.3-0.1 0.1 0.1 0.1 0.2 0 0.4-0.2 0.1-0.5 0.2-0.8 0.3-0.2 0-0.3 0-0.5-0.1 0.2 0 0.4 0 0.6-0.1 0.1 0 0.1-0.1 0.1-0.2-0.3-0.1-0.7-0.2-1-0.2v0.4c-0.3-0.2-0.3-0.4 0-0.6 0.4 0.1 0.7 0.2 1.1 0.1z"></path><path fill="#710305" d="m16.1 24.5v0.8c0 0.7-0.1 0.7-0.4 0.1 0-0.4 0-0.8 0.1-1.2 0.3-0.4 0.4-0.3 0.3 0.3z"></path><path fill="#3b0502" d="m19.1 24c0.2 0 0.3 0.1 0.4 0.2 0 0.3 0 0.6 0 0.9-0.1 0.1-0.1 0.2-0.2 0.3 0-0.5 0-1-0.2-1.4z"></path><path fill="#ea7516" d="m17.2 25.1c0.1 0.2 0.2 0.3 0.4 0.4-0.2 0.1-0.4 0.1-0.7 0.1-0.1 0-0.3 0-0.4-0.1v-0.6c0.2 0 0.5 0.1 0.7 0.2z"></path><path fill="#730405" d="m19 23.9c0 0 0.1 0 0.1 0.1 0.2 0.4 0.2 0.9 0.2 1.4-0.1 0.2-0.3 0.3-0.6 0.3v-0.6c0-0.4 0-0.8 0.3-1.2z"></path><path fill="#bb6116" d="m16.9 25.6c0.3 0 0.5 0 0.7-0.1-0.2-0.1-0.3-0.2-0.4-0.4 0.2 0.2 0.4 0.2 0.6-0.1 0.5-0.3 0.7-0.1 0.5 0.5-0.5 0.2-0.9 0.2-1.4 0.1z"></path><path fill="#905420" d="m16.7 26c0.5 0 1 0.1 1.6 0.2-0.1 0.3-0.2 0.3-0.4 0.1l-0.3 0.3c-0.2-0.1-0.3-0.1-0.4 0.1-0.1-0.1-0.2-0.2-0.2-0.3-0.1 0.2-0.2 0.2-0.4 0.2l0.2-0.3c-0.1-0.1-0.1-0.1-0.1-0.3z"></path></svg>