<?xml version="1.0" encoding="UTF-8"?>
<!DOCTYPE svg PUBLIC "-//W3C//DTD SVG 1.1//EN" "http://www.w3.org/Graphics/SVG/1.1/DTD/svg11.dtd">
<svg xmlns="http://www.w3.org/2000/svg" version="1.1" width="320px" height="320px" style="shape-rendering:geometricPrecision; text-rendering:geometricPrecision; image-rendering:optimizeQuality; fill-rule:evenodd; clip-rule:evenodd" xmlns:xlink="http://www.w3.org/1999/xlink">
<g><path style="opacity:1" fill="#000000" d="M -0.5,-0.5 C 106.167,-0.5 212.833,-0.5 319.5,-0.5C 319.5,106.167 319.5,212.833 319.5,319.5C 212.833,319.5 106.167,319.5 -0.5,319.5C -0.5,212.833 -0.5,106.167 -0.5,-0.5 Z"/></g>
<g><path style="opacity:1" fill="#b35a1b" d="M 208.5,32.5 C 206.046,33.6206 203.379,34.454 200.5,35C 201.056,35.3826 201.389,35.8826 201.5,36.5C 201.167,36.5 200.833,36.5 200.5,36.5C 199.357,36.0919 198.357,35.4252 197.5,34.5C 201.027,33.0787 204.694,32.4121 208.5,32.5 Z"/></g>
<g><path style="opacity:1" fill="#fc6904" d="M 208.5,32.5 C 210.473,41.7755 211.14,51.4422 210.5,61.5C 207.833,61.1667 205.167,60.8333 202.5,60.5C 202.826,52.3159 202.492,44.3159 201.5,36.5C 201.389,35.8826 201.056,35.3826 200.5,35C 203.379,34.454 206.046,33.6206 208.5,32.5 Z"/></g>
<g><path style="opacity:1" fill="#f2690c" d="M 113.5,35.5 C 113.786,41.2586 113.452,46.9252 112.5,52.5C 107.441,50.2284 104.441,46.5617 103.5,41.5C 101.735,40.5386 99.7354,40.2053 97.5,40.5C 97.1872,44.0419 97.5206,47.3752 98.5,50.5C 103.167,54.1667 107.833,57.8333 112.5,61.5C 112.5,62.5 112.5,63.5 112.5,64.5C 109.097,64.1489 105.763,63.4822 102.5,62.5C 98.0464,59.4264 93.713,56.0931 89.5,52.5C 88.6691,45.8581 88.1691,39.1915 88,32.5C 85.3172,31.4248 85.1505,30.4248 87.5,29.5C 96.2404,31.3801 104.907,33.3801 113.5,35.5 Z"/></g>
<g><path style="opacity:1" fill="#c8692a" d="M 103.5,41.5 C 101.833,41.5 100.167,41.5 98.5,41.5C 98.5,44.5 98.5,47.5 98.5,50.5C 97.5206,47.3752 97.1872,44.0419 97.5,40.5C 99.7354,40.2053 101.735,40.5386 103.5,41.5 Z"/></g>
<g><path style="opacity:1" fill="#874d20" d="M 113.5,35.5 C 114.485,39.6344 114.818,43.9677 114.5,48.5C 120.026,48.1786 125.36,48.5119 130.5,49.5C 125.305,49.1795 120.305,49.5128 115.5,50.5C 114.685,51.4293 113.852,52.4293 113,53.5C 112.601,53.2716 112.435,52.9382 112.5,52.5C 113.452,46.9252 113.786,41.2586 113.5,35.5 Z"/></g>
<g><path style="opacity:1" fill="#e16619" d="M 208.5,32.5 C 209.209,31.596 210.209,31.2627 211.5,31.5C 211.5,41.8333 211.5,52.1667 211.5,62.5C 208.193,63.0508 204.86,63.3841 201.5,63.5C 201.5,54.5 201.5,45.5 201.5,36.5C 202.492,44.3159 202.826,52.3159 202.5,60.5C 205.167,60.8333 207.833,61.1667 210.5,61.5C 211.14,51.4422 210.473,41.7755 208.5,32.5 Z"/></g>
<g><path style="opacity:1" fill="#7e0304" d="M 112.5,61.5 C 113.695,61.8656 114.361,62.699 114.5,64C 113.916,68.5014 113.249,73.0014 112.5,77.5C 110.19,79.4124 107.523,80.4124 104.5,80.5C 99.5,81.1667 94.5,81.8333 89.5,82.5C 89.1718,77.1254 89.5052,71.7921 90.5,66.5C 92.0709,67.3094 93.7376,67.6427 95.5,67.5C 96.209,68.404 97.209,68.7373 98.5,68.5C 98.5,70.1667 98.5,71.8333 98.5,73.5C 100.167,73.5 101.833,73.5 103.5,73.5C 103.756,69.7307 103.423,66.0641 102.5,62.5C 105.763,63.4822 109.097,64.1489 112.5,64.5C 112.5,63.5 112.5,62.5 112.5,61.5 Z"/></g>
<g><path style="opacity:1" fill="#550c0d" d="M 225.5,63.5 C 226.492,70.9818 226.825,78.6484 226.5,86.5C 224.447,86.5979 222.78,85.9313 221.5,84.5C 222.833,84.5 224.167,84.5 225.5,84.5C 225.5,77.5 225.5,70.5 225.5,63.5 Z"/></g>
<g><path style="opacity:1" fill="#7c0304" d="M 211.5,62.5 C 211.5,66.5 211.5,70.5 211.5,74.5C 213.167,74.5 214.833,74.5 216.5,74.5C 217.271,69.0581 220.271,65.3914 225.5,63.5C 225.5,70.5 225.5,77.5 225.5,84.5C 224.167,84.5 222.833,84.5 221.5,84.5C 216.167,83.8333 210.833,83.1667 205.5,82.5C 204.432,81.5655 203.099,81.2322 201.5,81.5C 201.5,75.5 201.5,69.5 201.5,63.5C 204.86,63.3841 208.193,63.0508 211.5,62.5 Z"/></g>
<g><path style="opacity:1" fill="#5b0509" d="M 95.5,67.5 C 93.7376,67.6427 92.0709,67.3094 90.5,66.5C 89.5052,71.7921 89.1718,77.1254 89.5,82.5C 94.5,81.8333 99.5,81.1667 104.5,80.5C 100.676,82.4412 96.6763,83.7746 92.5,84.5C 90.8333,84.5 89.1667,84.5 87.5,84.5C 87.1692,76.8045 87.5025,69.1378 88.5,61.5C 91.464,62.8079 93.7974,64.8079 95.5,67.5 Z"/></g>
<g><path style="opacity:1" fill="#420103" d="M 167.5,82.5 C 176.238,82.9211 184.904,84.4211 193.5,87C 196.237,88.6141 198.403,90.7808 200,93.5C 199.684,97.8801 199.851,102.213 200.5,106.5C 199.152,109.492 197.652,112.492 196,115.5C 194.59,112.426 193.09,109.426 191.5,106.5C 197.485,108.303 199.818,105.97 198.5,99.5C 199.52,93.4764 197.187,90.1431 191.5,89.5C 181.049,85.6035 170.216,84.2702 159,85.5C 156.787,84.2405 154.287,83.5738 151.5,83.5C 149.167,83.6667 146.833,83.8333 144.5,84C 145.38,85.3561 145.714,86.8561 145.5,88.5C 144.833,87.8333 144.167,87.1667 143.5,86.5C 142.833,86.5 142.5,86.1667 142.5,85.5C 143.404,84.791 143.737,83.791 143.5,82.5C 151.656,81.3715 159.656,81.3715 167.5,82.5 Z"/></g>
<g><path style="opacity:1" fill="#5a0102" d="M 191.5,89.5 C 189.192,89.9138 186.858,90.2471 184.5,90.5C 178.953,88.6477 173.62,87.981 168.5,88.5C 167.165,90.6472 167.331,92.6472 169,94.5C 170.908,91.6677 171.741,92.001 171.5,95.5C 174.152,95.4095 176.485,96.0762 178.5,97.5C 176.833,97.5 175.167,97.5 173.5,97.5C 173.301,99.9599 172.635,102.293 171.5,104.5C 170.828,103.051 170.161,101.718 169.5,100.5C 168.833,100.5 168.167,100.5 167.5,100.5C 167.5,99.8333 167.167,99.5 166.5,99.5C 167.234,98.2921 167.567,96.9587 167.5,95.5C 164.566,96.2894 162.732,98.2894 162,101.5C 160.434,98.248 158.601,95.248 156.5,92.5C 156.179,90.9519 155.179,90.2852 153.5,90.5C 153.756,92.9124 152.756,94.5791 150.5,95.5C 148.09,93.6737 146.423,91.3404 145.5,88.5C 145.714,86.8561 145.38,85.3561 144.5,84C 146.833,83.8333 149.167,83.6667 151.5,83.5C 154.287,83.5738 156.787,84.2405 159,85.5C 170.216,84.2702 181.049,85.6035 191.5,89.5 Z"/></g>
<g><path style="opacity:1" fill="#350203" d="M 100.5,89.5 C 100.443,88.391 100.11,87.391 99.5,86.5C 104.255,85.8774 108.922,85.8774 113.5,86.5C 114.204,89.7041 114.87,92.8708 115.5,96C 112.333,97.8333 109.833,100.333 108,103.5C 104.653,99.1317 102.153,94.465 100.5,89.5 Z"/></g>
<g><path style="opacity:1" fill="#ac4e1f" d="M 142.5,85.5 C 142.5,86.1667 142.833,86.5 143.5,86.5C 143.5,87.8333 143.5,89.1667 143.5,90.5C 142.778,90.0825 142.278,89.4158 142,88.5C 141.833,89 141.667,89.5 141.5,90C 143.517,93.5539 144.85,97.3873 145.5,101.5C 145.561,103.721 144.895,104.054 143.5,102.5C 142.162,97.8266 140.828,93.16 139.5,88.5C 139.365,86.192 140.031,84.192 141.5,82.5C 142.386,83.325 142.719,84.325 142.5,85.5 Z"/></g>
<g><path style="opacity:1" fill="#690101" d="M 191.5,89.5 C 197.187,90.1431 199.52,93.4764 198.5,99.5C 199.818,105.97 197.485,108.303 191.5,106.5C 189.516,104.015 187.35,101.682 185,99.5C 183.739,99.7591 182.739,100.426 182,101.5C 180.961,100.29 179.794,99.2899 178.5,98.5C 178.5,98.1667 178.5,97.8333 178.5,97.5C 176.485,96.0762 174.152,95.4095 171.5,95.5C 171.741,92.001 170.908,91.6677 169,94.5C 167.331,92.6472 167.165,90.6472 168.5,88.5C 173.62,87.981 178.953,88.6477 184.5,90.5C 186.858,90.2471 189.192,89.9138 191.5,89.5 Z"/></g>
<g><path style="opacity:1" fill="#2d0203" d="M 167.5,82.5 C 178.707,81.8994 189.707,83.0661 200.5,86C 203.654,88.3091 205.987,91.1425 207.5,94.5C 207.5,94.8333 207.5,95.1667 207.5,95.5C 204.917,98.9974 202.584,102.664 200.5,106.5C 199.851,102.213 199.684,97.8801 200,93.5C 198.403,90.7808 196.237,88.6141 193.5,87C 184.904,84.4211 176.238,82.9211 167.5,82.5 Z"/></g>
<g><path style="opacity:1" fill="#1a0404" d="M 143.5,86.5 C 144.167,87.1667 144.833,87.8333 145.5,88.5C 146.423,91.3404 148.09,93.6737 150.5,95.5C 152.756,94.5791 153.756,92.9124 153.5,90.5C 155.179,90.2852 156.179,90.9519 156.5,92.5C 155.25,92.5774 154.417,93.244 154,94.5C 153.502,97.8168 153.335,101.15 153.5,104.5C 150.587,99.5784 147.254,94.9117 143.5,90.5C 143.5,89.1667 143.5,87.8333 143.5,86.5 Z"/></g>
<g><path style="opacity:1" fill="#b65a20" d="M 156.5,92.5 C 156.993,94.8056 157.326,97.139 157.5,99.5C 155.899,98.3572 155.233,99.0239 155.5,101.5C 156.02,104.04 156.687,106.54 157.5,109C 157.167,109.833 156.833,110.667 156.5,111.5C 155.641,109 154.641,106.667 153.5,104.5C 153.335,101.15 153.502,97.8168 154,94.5C 154.417,93.244 155.25,92.5774 156.5,92.5 Z"/></g>
<g><path style="opacity:1" fill="#1f0506" d="M 156.5,92.5 C 158.601,95.248 160.434,98.248 162,101.5C 162.732,98.2894 164.566,96.2894 167.5,95.5C 167.567,96.9587 167.234,98.2921 166.5,99.5C 163.987,103.378 162.654,107.711 162.5,112.5C 161.837,114.042 161.17,115.709 160.5,117.5C 160.152,112.889 159.985,108.222 160,103.5C 159.52,101.867 158.687,100.534 157.5,99.5C 157.326,97.139 156.993,94.8056 156.5,92.5 Z"/></g>
<g><path style="opacity:1" fill="#b15114" d="M 97.5,86.5 C 98.1667,86.5 98.8333,86.5 99.5,86.5C 100.11,87.391 100.443,88.391 100.5,89.5C 100.5,92.5 100.5,95.5 100.5,98.5C 101.207,106.146 101.54,113.813 101.5,121.5C 100.673,117.637 99.8394,113.637 99,109.5C 98.1876,122.242 98.3542,134.909 99.5,147.5C 97.5117,127.527 96.8451,107.194 97.5,86.5 Z"/></g>
<g><path style="opacity:1" fill="#a1450f" d="M 209.5,97.5 C 209.666,104.175 209.5,110.842 209,117.5C 208.809,119.708 208.309,121.708 207.5,123.5C 207.505,119.466 207.838,115.466 208.5,111.5C 208.181,106.637 208.514,101.97 209.5,97.5 Z"/></g>
<g><path style="opacity:1" fill="#9f8149" d="M 118.5,136.5 C 115.389,134.314 113.222,131.314 112,127.5C 111.116,123.404 109.95,119.404 108.5,115.5C 108.672,114.508 108.338,113.842 107.5,113.5C 106.986,111.488 106.82,109.488 107,107.5C 111.08,115.329 115.413,122.996 120,130.5C 119.872,132.445 120.038,134.278 120.5,136C 119.906,136.464 119.239,136.631 118.5,136.5 Z"/></g>
<g><path style="opacity:1" fill="#760504" d="M 132.5,87.5 C 133.32,89.1401 134.153,90.8068 135,92.5C 135.69,93.7383 136.19,93.7383 136.5,92.5C 139.231,95.5628 141.564,98.8962 143.5,102.5C 144.895,104.054 145.561,103.721 145.5,101.5C 144.85,97.3873 143.517,93.5539 141.5,90C 141.667,89.5 141.833,89 142,88.5C 142.278,89.4158 142.778,90.0825 143.5,90.5C 147.254,94.9117 150.587,99.5784 153.5,104.5C 154.641,106.667 155.641,109 156.5,111.5C 156.833,110.667 157.167,109.833 157.5,109C 156.687,106.54 156.02,104.04 155.5,101.5C 155.233,99.0239 155.899,98.3572 157.5,99.5C 158.687,100.534 159.52,101.867 160,103.5C 159.985,108.222 160.152,112.889 160.5,117.5C 161.17,115.709 161.837,114.042 162.5,112.5C 162.201,114.604 162.534,116.604 163.5,118.5C 164.268,113.818 165.101,109.151 166,104.5C 167.908,107.215 169.241,110.215 170,113.5C 170.838,114.999 171.671,115.332 172.5,114.5C 174.818,116.185 175.818,118.519 175.5,121.5C 175.565,121.938 175.399,122.272 175,122.5C 174.311,121.643 173.478,120.977 172.5,120.5C 171.833,122.167 171.167,123.833 170.5,125.5C 169.167,124.167 167.833,122.833 166.5,121.5C 165.833,124.5 165.167,127.5 164.5,130.5C 163.479,128.381 161.979,126.714 160,125.5C 159.692,126.308 159.192,126.975 158.5,127.5C 157.667,126.5 156.833,125.5 156,124.5C 155.503,126.81 155.337,129.143 155.5,131.5C 154.596,132.209 154.263,133.209 154.5,134.5C 152.167,133.833 149.833,133.167 147.5,132.5C 147.5,134.5 147.5,136.5 147.5,138.5C 146.167,138.5 144.833,138.5 143.5,138.5C 143.218,137.222 142.551,136.222 141.5,135.5C 141.432,132.915 140.932,130.582 140,128.5C 143.587,129.768 147.087,129.434 150.5,127.5C 145.208,122.709 140.041,117.709 135,112.5C 133.209,108.561 130.709,105.228 127.5,102.5C 127.167,101.833 126.833,101.167 126.5,100.5C 126.351,99.448 126.517,98.448 127,97.5C 129.788,102.127 133.622,105.461 138.5,107.5C 139.525,107.103 139.692,106.437 139,105.5C 137.293,103.963 135.793,102.296 134.5,100.5C 135.598,99.3991 135.765,98.0657 135,96.5C 131.801,93.9591 130.968,90.9591 132.5,87.5 Z"/></g>
<g><path style="opacity:1" fill="#3a0304" d="M 100.5,98.5 C 101.79,99.0577 102.623,100.058 103,101.5C 103.056,104.78 103.889,107.78 105.5,110.5C 104.13,113.439 104.797,114.439 107.5,113.5C 108.338,113.842 108.672,114.508 108.5,115.5C 107.848,116.449 107.514,117.615 107.5,119C 107.693,121.504 108.359,123.837 109.5,126C 108.439,128.031 107.105,129.864 105.5,131.5C 105.667,132.167 105.833,132.833 106,133.5C 112.033,137.701 117.2,142.701 121.5,148.5C 124.368,158.507 122.534,160.174 116,153.5C 112.571,145.946 111.238,145.946 112,153.5C 110.956,152.377 110.29,151.044 110,149.5C 109.586,149.957 109.086,150.291 108.5,150.5C 105.485,149.182 102.485,148.182 99.5,147.5C 100.5,147.5 101.5,147.5 102.5,147.5C 102.826,138.651 102.493,129.984 101.5,121.5C 101.54,113.813 101.207,106.146 100.5,98.5 Z"/></g>
<g><path style="opacity:1" fill="#ae8d4c" d="M 202.5,108.5 C 203.494,109.999 203.494,111.666 202.5,113.5C 201.655,116.543 200.655,119.543 199.5,122.5C 196.835,124.835 195.502,127.835 195.5,131.5C 194.178,131.33 193.011,131.663 192,132.5C 191.517,131.552 191.351,130.552 191.5,129.5C 194.899,122.369 198.566,115.369 202.5,108.5 Z"/></g>
<g><path style="opacity:1" fill="#d96414" d="M 211.5,147.5 C 211.167,147.5 210.833,147.5 210.5,147.5C 209.5,147.5 208.5,147.5 207.5,147.5C 207.5,142.167 207.5,136.833 207.5,131.5C 207.5,128.833 207.5,126.167 207.5,123.5C 208.309,121.708 208.809,119.708 209,117.5C 209.5,110.842 209.666,104.175 209.5,97.5C 209.5,94.1667 209.5,90.8333 209.5,87.5C 210.5,87.5 211.5,87.5 212.5,87.5C 212.83,107.674 212.497,127.674 211.5,147.5 Z"/></g>
<g><path style="opacity:1" fill="#260505" d="M 202.5,108.5 C 202.56,107.957 202.893,107.624 203.5,107.5C 204.167,108.833 204.833,110.167 205.5,111.5C 206.172,110.051 206.839,108.718 207.5,107.5C 207.232,109.099 207.566,110.432 208.5,111.5C 207.838,115.466 207.505,119.466 207.5,123.5C 207.5,126.167 207.5,128.833 207.5,131.5C 206.515,135.634 206.182,139.968 206.5,144.5C 205.681,141.695 205.181,138.695 205,135.5C 204.667,136.5 204.333,137.5 204,138.5C 203.764,136.881 202.931,135.881 201.5,135.5C 202.81,133.852 204.143,132.186 205.5,130.5C 205.167,130.167 204.833,129.833 204.5,129.5C 203.5,130.167 202.5,130.833 201.5,131.5C 201.167,131 200.833,130.5 200.5,130C 202.591,124.461 203.258,118.961 202.5,113.5C 203.494,111.666 203.494,109.999 202.5,108.5 Z"/></g>
<g><path style="opacity:1" fill="#100303" d="M 200.5,36.5 C 200.833,36.5 201.167,36.5 201.5,36.5C 201.5,45.5 201.5,54.5 201.5,63.5C 201.5,69.5 201.5,75.5 201.5,81.5C 203.099,81.2322 204.432,81.5655 205.5,82.5C 203.473,82.3379 201.473,82.5045 199.5,83C 205.256,84.7046 207.923,88.5379 207.5,94.5C 205.987,91.1425 203.654,88.3091 200.5,86C 189.707,83.0661 178.707,81.8994 167.5,82.5C 159.656,81.3715 151.656,81.3715 143.5,82.5C 143.737,83.791 143.404,84.791 142.5,85.5C 142.719,84.325 142.386,83.325 141.5,82.5C 140.031,84.192 139.365,86.192 139.5,88.5C 140.828,93.16 142.162,97.8266 143.5,102.5C 141.564,98.8962 139.231,95.5628 136.5,92.5C 134.437,88.4259 133.103,84.0926 132.5,79.5C 130.364,80.4724 129.197,82.1391 129,84.5C 128.199,87.367 128.366,90.0336 129.5,92.5C 129.351,93.552 129.517,94.552 130,95.5C 131.707,97.0375 133.207,98.7041 134.5,100.5C 135.793,102.296 137.293,103.963 139,105.5C 139.692,106.437 139.525,107.103 138.5,107.5C 135.204,103.702 131.704,100.036 128,96.5C 127.361,93.8877 126.194,91.5543 124.5,89.5C 123.191,93.6493 123.191,97.6493 124.5,101.5C 125.966,108.023 128.632,114.023 132.5,119.5C 133.81,121.148 135.143,122.814 136.5,124.5C 135.617,126.48 135.783,128.48 137,130.5C 138.517,132.24 140.017,133.906 141.5,135.5C 142.551,136.222 143.218,137.222 143.5,138.5C 147.106,141.459 149.273,140.459 150,135.5C 151.001,140.181 152.667,140.515 155,136.5C 155.494,134.866 155.66,133.199 155.5,131.5C 157.074,131.937 158.241,132.937 159,134.5C 159.249,133.376 159.749,132.376 160.5,131.5C 161.868,133.637 162.868,135.97 163.5,138.5C 166.201,135.383 167.534,131.716 167.5,127.5C 168.5,127.5 169.5,127.5 170.5,127.5C 170.336,130.187 170.503,132.854 171,135.5C 172.19,131.619 172.857,127.619 173,123.5C 174.981,125.359 175.981,127.692 176,130.5C 176.805,127.304 176.638,124.304 175.5,121.5C 175.818,118.519 174.818,116.185 172.5,114.5C 170.262,110.027 168.595,105.36 167.5,100.5C 168.167,100.5 168.833,100.5 169.5,100.5C 169.077,103.288 170.077,105.288 172.5,106.5C 175.172,104.575 176.172,101.908 175.5,98.5C 176.5,98.5 177.5,98.5 178.5,98.5C 179.794,99.2899 180.961,100.29 182,101.5C 182.739,100.426 183.739,99.7591 185,99.5C 187.35,101.682 189.516,104.015 191.5,106.5C 193.09,109.426 194.59,112.426 196,115.5C 197.652,112.492 199.152,109.492 200.5,106.5C 202.584,102.664 204.917,98.9974 207.5,95.5C 207.5,99.5 207.5,103.5 207.5,107.5C 206.839,108.718 206.172,110.051 205.5,111.5C 204.833,110.167 204.167,108.833 203.5,107.5C 202.893,107.624 202.56,107.957 202.5,108.5C 198.566,115.369 194.899,122.369 191.5,129.5C 190.035,130.406 189.035,131.739 188.5,133.5C 189.767,134.027 191.1,134.86 192.5,136C 196.818,132.557 199.151,128.057 199.5,122.5C 200.655,119.543 201.655,116.543 202.5,113.5C 203.258,118.961 202.591,124.461 200.5,130C 200.833,130.5 201.167,131 201.5,131.5C 202.5,130.833 203.5,130.167 204.5,129.5C 204.833,129.833 205.167,130.167 205.5,130.5C 204.143,132.186 202.81,133.852 201.5,135.5C 199.445,137.555 197.112,139.221 194.5,140.5C 194.719,139.325 194.386,138.325 193.5,137.5C 190.984,138.33 188.65,139.33 186.5,140.5C 185.508,140.328 184.842,140.662 184.5,141.5C 181.205,144.808 178.205,148.474 175.5,152.5C 171.68,156.672 167.347,160.006 162.5,162.5C 161.479,161.998 161.312,161.332 162,160.5C 165.629,157.247 168.796,153.58 171.5,149.5C 168.162,146.329 164.162,144.995 159.5,145.5C 153.088,144.108 146.755,144.775 140.5,147.5C 139.572,148.768 139.405,150.101 140,151.5C 142.49,153.318 144.323,155.651 145.5,158.5C 144.833,158.833 144.167,159.167 143.5,159.5C 140.077,157.333 137.077,154.666 134.5,151.5C 132.132,149.129 130.132,146.462 128.5,143.5C 127.274,141.722 125.607,140.722 123.5,140.5C 121.594,139.518 119.594,138.518 117.5,137.5C 117.624,136.893 117.957,136.56 118.5,136.5C 119.239,136.631 119.906,136.464 120.5,136C 120.038,134.278 119.872,132.445 120,130.5C 115.413,122.996 111.08,115.329 107,107.5C 106.82,109.488 106.986,111.488 107.5,113.5C 104.797,114.439 104.13,113.439 105.5,110.5C 103.889,107.78 103.056,104.78 103,101.5C 102.623,100.058 101.79,99.0577 100.5,98.5C 100.5,95.5 100.5,92.5 100.5,89.5C 102.153,94.465 104.653,99.1317 108,103.5C 109.833,100.333 112.333,97.8333 115.5,96C 114.87,92.8708 114.204,89.7041 113.5,86.5C 108.922,85.8774 104.255,85.8774 99.5,86.5C 98.8333,86.5 98.1667,86.5 97.5,86.5C 97.9175,85.7784 98.5842,85.2784 99.5,85C 97.1902,84.5034 94.8568,84.3367 92.5,84.5C 96.6763,83.7746 100.676,82.4412 104.5,80.5C 107.523,80.4124 110.19,79.4124 112.5,77.5C 113.249,73.0014 113.916,68.5014 114.5,64C 114.361,62.699 113.695,61.8656 112.5,61.5C 107.833,57.8333 103.167,54.1667 98.5,50.5C 98.5,47.5 98.5,44.5 98.5,41.5C 100.167,41.5 101.833,41.5 103.5,41.5C 104.441,46.5617 107.441,50.2284 112.5,52.5C 112.435,52.9382 112.601,53.2716 113,53.5C 113.852,52.4293 114.685,51.4293 115.5,50.5C 115.5,55.5 115.5,60.5 115.5,65.5C 115.5,70.1667 115.5,74.8333 115.5,79.5C 118.119,79.7683 120.619,79.435 123,78.5C 123.177,74.6437 123.677,70.977 124.5,67.5C 125.167,67.5 125.833,67.5 126.5,67.5C 126.5,70.8333 126.5,74.1667 126.5,77.5C 128.835,76.5865 131.001,75.2532 133,73.5C 133.495,71.5273 133.662,69.5273 133.5,67.5C 133.5,61.8333 133.5,56.1667 133.5,50.5C 134.117,50.6107 134.617,50.944 135,51.5C 135.499,57.1569 135.666,62.8236 135.5,68.5C 135.5,71.5 135.5,74.5 135.5,77.5C 138.167,77.5 140.833,77.5 143.5,77.5C 143.5,74.5 143.5,71.5 143.5,68.5C 143.205,66.2646 143.539,64.2646 144.5,62.5C 145.475,64.7952 146.808,66.7952 148.5,68.5C 150.226,70.8201 150.893,73.4867 150.5,76.5C 152.833,76.5 155.167,76.5 157.5,76.5C 157.5,73.8333 157.5,71.1667 157.5,68.5C 157.334,62.4908 157.501,56.4908 158,50.5C 158.383,51.056 158.883,51.3893 159.5,51.5C 159.5,57.1667 159.5,62.8333 159.5,68.5C 159.02,71.6852 159.686,74.5185 161.5,77C 166.823,77.4994 172.156,77.666 177.5,77.5C 177.817,73.2984 177.483,69.2984 176.5,65.5C 174.668,64.7515 173.001,63.7515 171.5,62.5C 170.791,61.596 169.791,61.2627 168.5,61.5C 168.025,64.0821 168.692,66.0821 170.5,67.5C 170.5,69.1667 170.5,70.8333 170.5,72.5C 169.5,72.5 168.5,72.5 167.5,72.5C 167.5,71.1667 167.5,69.8333 167.5,68.5C 167.5,63.8333 167.5,59.1667 167.5,54.5C 168.5,54.5 169.5,54.5 170.5,54.5C 171.32,58.1003 173.653,60.1003 177.5,60.5C 177.335,57.1501 177.502,53.8168 178,50.5C 178.383,51.056 178.883,51.3893 179.5,51.5C 179.5,56.8333 179.5,62.1667 179.5,67.5C 179.5,71.1667 179.5,74.8333 179.5,78.5C 182.167,78.8333 184.833,79.1667 187.5,79.5C 186.911,75.0293 187.577,71.0293 189.5,67.5C 190.483,71.2984 190.817,75.2984 190.5,79.5C 192.833,79.5 195.167,79.5 197.5,79.5C 197.5,74.5 197.5,69.5 197.5,64.5C 197.5,59.8333 197.5,55.1667 197.5,50.5C 198.167,60.0083 198.833,69.675 199.5,79.5C 200.499,65.1821 200.833,50.8488 200.5,36.5 Z"/></g>
<g><path style="opacity:1" fill="#3f0203" d="M 175.5,121.5 C 176.638,124.304 176.805,127.304 176,130.5C 175.981,127.692 174.981,125.359 173,123.5C 172.857,127.619 172.19,131.619 171,135.5C 170.503,132.854 170.336,130.187 170.5,127.5C 169.5,127.5 168.5,127.5 167.5,127.5C 167.534,131.716 166.201,135.383 163.5,138.5C 162.868,135.97 161.868,133.637 160.5,131.5C 159.749,132.376 159.249,133.376 159,134.5C 158.241,132.937 157.074,131.937 155.5,131.5C 155.337,129.143 155.503,126.81 156,124.5C 156.833,125.5 157.667,126.5 158.5,127.5C 159.192,126.975 159.692,126.308 160,125.5C 161.979,126.714 163.479,128.381 164.5,130.5C 165.167,127.5 165.833,124.5 166.5,121.5C 167.833,122.833 169.167,124.167 170.5,125.5C 171.167,123.833 171.833,122.167 172.5,120.5C 173.478,120.977 174.311,121.643 175,122.5C 175.399,122.272 175.565,121.938 175.5,121.5 Z"/></g>
<g><path style="opacity:1" fill="#420304" d="M 127.5,102.5 C 130.709,105.228 133.209,108.561 135,112.5C 140.041,117.709 145.208,122.709 150.5,127.5C 147.087,129.434 143.587,129.768 140,128.5C 140.932,130.582 141.432,132.915 141.5,135.5C 140.017,133.906 138.517,132.24 137,130.5C 135.783,128.48 135.617,126.48 136.5,124.5C 135.143,122.814 133.81,121.148 132.5,119.5C 133.452,118.548 134.452,117.548 135.5,116.5C 131.779,112.386 129.112,107.719 127.5,102.5 Z"/></g>
<g><path style="opacity:1" fill="#430607" d="M 189.5,123.5 C 187.697,126.715 186.03,130.048 184.5,133.5C 183.692,131.577 183.192,129.577 183,127.5C 182,128.5 181,129.5 180,130.5C 179.178,127.883 178.678,125.216 178.5,122.5C 179.167,123.167 179.833,123.833 180.5,124.5C 181.832,122.868 183.165,121.201 184.5,119.5C 185.244,120.991 185.91,122.491 186.5,124C 187.577,124.47 188.577,124.303 189.5,123.5 Z"/></g>
<g><path style="opacity:1" fill="#7a0705" d="M 183.5,110.5 C 183.833,110.5 184.167,110.5 184.5,110.5C 183.972,111.847 183.805,113.181 184,114.5C 185.252,112.999 186.252,111.332 187,109.5C 187.915,110.328 188.581,111.328 189,112.5C 189.464,111.906 189.631,111.239 189.5,110.5C 190.529,112.948 191.196,115.614 191.5,118.5C 191.564,120.557 190.898,122.223 189.5,123.5C 188.577,124.303 187.577,124.47 186.5,124C 185.91,122.491 185.244,120.991 184.5,119.5C 183.165,121.201 181.832,122.868 180.5,124.5C 180.656,121.934 180.322,119.434 179.5,117C 180.185,114.205 180.685,111.372 181,108.5C 181.419,109.672 182.085,110.672 183,111.5C 183.399,111.272 183.565,110.938 183.5,110.5 Z"/></g>
<g><path style="opacity:1" fill="#d26123" d="M 179.5,102.5 C 181.891,104.615 183.224,107.281 183.5,110.5C 183.565,110.938 183.399,111.272 183,111.5C 182.085,110.672 181.419,109.672 181,108.5C 180.685,111.372 180.185,114.205 179.5,117C 180.322,119.434 180.656,121.934 180.5,124.5C 179.833,123.833 179.167,123.167 178.5,122.5C 178.007,119.188 177.007,116.021 175.5,113C 175.836,111.97 176.503,111.47 177.5,111.5C 178.243,109.091 178.909,106.091 179.5,102.5 Z"/></g>
<g><path style="opacity:1" fill="#561601" d="M 179.5,102.5 C 178.909,106.091 178.243,109.091 177.5,111.5C 177.18,108.102 177.513,104.768 178.5,101.5C 179.107,101.624 179.44,101.957 179.5,102.5 Z"/></g>
<g><path style="opacity:1" fill="#d7651a" d="M 126.5,100.5 C 126.833,101.167 127.167,101.833 127.5,102.5C 129.112,107.719 131.779,112.386 135.5,116.5C 134.452,117.548 133.452,118.548 132.5,119.5C 128.632,114.023 125.966,108.023 124.5,101.5C 124.336,98.8127 124.503,96.146 125,93.5C 125.186,96.0356 125.686,98.369 126.5,100.5 Z"/></g>
<g><path style="opacity:1" fill="#c75b26" d="M 189.5,110.5 C 189.631,111.239 189.464,111.906 189,112.5C 188.581,111.328 187.915,110.328 187,109.5C 186.252,111.332 185.252,112.999 184,114.5C 183.805,113.181 183.972,111.847 184.5,110.5C 185.111,102.921 186.778,102.921 189.5,110.5 Z"/></g>
<g><path style="opacity:1" fill="#5d0606" d="M 120.5,97.5 C 121.853,102.907 123.52,108.241 125.5,113.5C 125.167,114.167 124.833,114.833 124.5,115.5C 123.757,114.092 122.923,112.759 122,111.5C 121.54,114.962 122.04,118.296 123.5,121.5C 118.842,117.03 117.842,111.863 120.5,106C 119.39,103.001 119.39,100.168 120.5,97.5 Z"/></g>
<g><path style="opacity:1" fill="#b95725" d="M 166.5,99.5 C 167.167,99.5 167.5,99.8333 167.5,100.5C 168.595,105.36 170.262,110.027 172.5,114.5C 171.671,115.332 170.838,114.999 170,113.5C 169.241,110.215 167.908,107.215 166,104.5C 165.101,109.151 164.268,113.818 163.5,118.5C 162.534,116.604 162.201,114.604 162.5,112.5C 162.654,107.711 163.987,103.378 166.5,99.5 Z"/></g>
<g><path style="opacity:1" fill="#c1591b" d="M 120.5,97.5 C 119.39,100.168 119.39,103.001 120.5,106C 117.842,111.863 118.842,117.03 123.5,121.5C 124.927,123.9 124.427,124.567 122,123.5C 118.607,119.381 116.274,114.714 115,109.5C 114.182,106.773 114.348,104.106 115.5,101.5C 116.904,102.999 117.57,102.666 117.5,100.5C 116.287,96.1619 116.287,91.8285 117.5,87.5C 118.799,88.09 119.632,89.09 120,90.5C 120.497,92.8098 120.663,95.1432 120.5,97.5 Z"/></g>
<g><path style="opacity:1" fill="#3d0405" d="M 178.5,97.5 C 178.5,97.8333 178.5,98.1667 178.5,98.5C 177.5,98.5 176.5,98.5 175.5,98.5C 176.172,101.908 175.172,104.575 172.5,106.5C 170.077,105.288 169.077,103.288 169.5,100.5C 170.161,101.718 170.828,103.051 171.5,104.5C 172.635,102.293 173.301,99.9599 173.5,97.5C 175.167,97.5 176.833,97.5 178.5,97.5 Z"/></g>
<g><path style="opacity:1" fill="#d95b17" d="M 132.5,87.5 C 130.968,90.9591 131.801,93.9591 135,96.5C 135.765,98.0657 135.598,99.3991 134.5,100.5C 133.207,98.7041 131.707,97.0375 130,95.5C 129.517,94.552 129.351,93.552 129.5,92.5C 130.166,89.3107 130.833,85.9773 131.5,82.5C 132.452,84.0453 132.785,85.712 132.5,87.5 Z"/></g>
<g><path style="opacity:1" fill="#b0511d" d="M 138.5,107.5 C 133.622,105.461 129.788,102.127 127,97.5C 126.517,98.448 126.351,99.448 126.5,100.5C 125.686,98.369 125.186,96.0356 125,93.5C 124.503,96.146 124.336,98.8127 124.5,101.5C 123.191,97.6493 123.191,93.6493 124.5,89.5C 126.194,91.5543 127.361,93.8877 128,96.5C 131.704,100.036 135.204,103.702 138.5,107.5 Z"/></g>
<g><path style="opacity:1" fill="#b5602a" d="M 136.5,92.5 C 136.19,93.7383 135.69,93.7383 135,92.5C 134.153,90.8068 133.32,89.1401 132.5,87.5C 132.785,85.712 132.452,84.0453 131.5,82.5C 130.833,85.9773 130.166,89.3107 129.5,92.5C 128.366,90.0336 128.199,87.367 129,84.5C 129.197,82.1391 130.364,80.4724 132.5,79.5C 133.103,84.0926 134.437,88.4259 136.5,92.5 Z"/></g>
<g><path style="opacity:1" fill="#5b0405" d="M 115.5,65.5 C 116.167,65.5 116.5,65.8333 116.5,66.5C 116.334,70.5138 116.501,74.5138 117,78.5C 118.401,76.8078 120.234,76.1412 122.5,76.5C 122.5,73.1667 122.5,69.8333 122.5,66.5C 123.492,66.3284 124.158,66.6618 124.5,67.5C 123.677,70.977 123.177,74.6437 123,78.5C 120.619,79.435 118.119,79.7683 115.5,79.5C 115.5,74.8333 115.5,70.1667 115.5,65.5 Z"/></g>
<g><path style="opacity:1" fill="#4a0306" d="M 186.5,66.5 C 187.791,66.2627 188.791,66.596 189.5,67.5C 187.577,71.0293 186.911,75.0293 187.5,79.5C 184.833,79.1667 182.167,78.8333 179.5,78.5C 179.5,74.8333 179.5,71.1667 179.5,67.5C 180.479,70.6248 180.813,73.9581 180.5,77.5C 182.5,77.5 184.5,77.5 186.5,77.5C 186.5,73.8333 186.5,70.1667 186.5,66.5 Z"/></g>
<g><path style="opacity:1" fill="#480204" d="M 135.5,68.5 C 135.833,68.5 136.167,68.5 136.5,68.5C 136.5,71.1667 136.5,73.8333 136.5,76.5C 138.5,76.5 140.5,76.5 142.5,76.5C 142.5,73.8333 142.5,71.1667 142.5,68.5C 142.833,68.5 143.167,68.5 143.5,68.5C 143.5,71.5 143.5,74.5 143.5,77.5C 140.833,77.5 138.167,77.5 135.5,77.5C 135.5,74.5 135.5,71.5 135.5,68.5 Z"/></g>
<g><path style="opacity:1" fill="#7a0404" d="M 176.5,65.5 C 177.483,69.2984 177.817,73.2984 177.5,77.5C 172.156,77.666 166.823,77.4994 161.5,77C 159.686,74.5185 159.02,71.6852 159.5,68.5C 162.167,68.5 164.833,68.5 167.5,68.5C 167.5,69.8333 167.5,71.1667 167.5,72.5C 168.5,72.5 169.5,72.5 170.5,72.5C 170.5,70.8333 170.5,69.1667 170.5,67.5C 173.082,67.9746 175.082,67.3079 176.5,65.5 Z"/></g>
<g><path style="opacity:1" fill="#7c0403" d="M 148.5,68.5 C 151.167,68.5 153.833,68.5 156.5,68.5C 156.833,68.5 157.167,68.5 157.5,68.5C 157.5,71.1667 157.5,73.8333 157.5,76.5C 155.167,76.5 152.833,76.5 150.5,76.5C 150.893,73.4867 150.226,70.8201 148.5,68.5 Z"/></g>
<g><path style="opacity:1" fill="#780302" d="M 136.5,68.5 C 138.5,68.5 140.5,68.5 142.5,68.5C 142.5,71.1667 142.5,73.8333 142.5,76.5C 140.5,76.5 138.5,76.5 136.5,76.5C 136.5,73.8333 136.5,71.1667 136.5,68.5 Z"/></g>
<g><path style="opacity:1" fill="#831304" d="M 179.5,51.5 C 180.487,56.3054 180.821,61.3054 180.5,66.5C 182.5,66.5 184.5,66.5 186.5,66.5C 186.5,70.1667 186.5,73.8333 186.5,77.5C 184.5,77.5 182.5,77.5 180.5,77.5C 180.813,73.9581 180.479,70.6248 179.5,67.5C 179.5,62.1667 179.5,56.8333 179.5,51.5 Z"/></g>
<g><path style="opacity:1" fill="#690607" d="M 126.5,67.5 C 127.833,67.5 129.167,67.5 130.5,67.5C 131.167,67.5 131.833,67.5 132.5,67.5C 132.833,67.5 133.167,67.5 133.5,67.5C 133.662,69.5273 133.495,71.5273 133,73.5C 131.001,75.2532 128.835,76.5865 126.5,77.5C 126.5,74.1667 126.5,70.8333 126.5,67.5 Z"/></g>
<g><path style="opacity:1" fill="#7c0404" d="M 197.5,64.5 C 197.5,69.5 197.5,74.5 197.5,79.5C 195.167,79.5 192.833,79.5 190.5,79.5C 190.817,75.2984 190.483,71.2984 189.5,67.5C 188.791,66.596 187.791,66.2627 186.5,66.5C 190.061,65.7698 193.727,65.1031 197.5,64.5 Z"/></g>
<g><path style="opacity:1" fill="#7f0203" d="M 116.5,66.5 C 118.5,66.5 120.5,66.5 122.5,66.5C 122.5,69.8333 122.5,73.1667 122.5,76.5C 120.234,76.1412 118.401,76.8078 117,78.5C 116.501,74.5138 116.334,70.5138 116.5,66.5 Z"/></g>
<g><path style="opacity:1" fill="#ea671b" d="M 171.5,62.5 C 173.001,63.7515 174.668,64.7515 176.5,65.5C 175.082,67.3079 173.082,67.9746 170.5,67.5C 168.82,65.2736 169.153,63.6069 171.5,62.5 Z"/></g>
<g><path style="opacity:1" fill="#9d602a" d="M 171.5,62.5 C 169.153,63.6069 168.82,65.2736 170.5,67.5C 168.692,66.0821 168.025,64.0821 168.5,61.5C 169.791,61.2627 170.791,61.596 171.5,62.5 Z"/></g>
<g><path style="opacity:1" fill="#c15912" d="M 195.5,49.5 C 184.159,49.6337 172.826,49.9671 161.5,50.5C 161.5,56.1667 161.5,61.8333 161.5,67.5C 163.167,67.5 164.833,67.5 166.5,67.5C 166.182,62.9677 166.515,58.6344 167.5,54.5C 167.5,59.1667 167.5,63.8333 167.5,68.5C 164.833,68.5 162.167,68.5 159.5,68.5C 159.5,62.8333 159.5,57.1667 159.5,51.5C 159.5,50.8333 159.5,50.1667 159.5,49.5C 171.662,48.447 183.662,48.447 195.5,49.5 Z"/></g>
<g><path style="opacity:1" fill="#e96912" d="M 130.5,49.5 C 131.609,49.5569 132.609,49.8902 133.5,50.5C 133.5,56.1667 133.5,61.8333 133.5,67.5C 133.167,67.5 132.833,67.5 132.5,67.5C 132.666,62.1563 132.499,56.8229 132,51.5C 126.928,50.5286 121.762,50.1953 116.5,50.5C 116.187,53.2469 116.52,55.9135 117.5,58.5C 119.047,59.7682 120.047,61.4348 120.5,63.5C 123.032,64.1189 125.365,65.1189 127.5,66.5C 128.167,61.8333 128.833,57.1667 129.5,52.5C 130.494,57.456 130.827,62.456 130.5,67.5C 129.167,67.5 127.833,67.5 126.5,67.5C 125.833,67.5 125.167,67.5 124.5,67.5C 124.158,66.6618 123.492,66.3284 122.5,66.5C 120.5,66.5 118.5,66.5 116.5,66.5C 116.5,65.8333 116.167,65.5 115.5,65.5C 115.5,60.5 115.5,55.5 115.5,50.5C 120.305,49.5128 125.305,49.1795 130.5,49.5 Z"/></g>
<g><path style="opacity:1" fill="#ab5113" d="M 159.5,49.5 C 159.5,50.1667 159.5,50.8333 159.5,51.5C 158.883,51.3893 158.383,51.056 158,50.5C 157.501,56.4908 157.334,62.4908 157.5,68.5C 157.167,68.5 156.833,68.5 156.5,68.5C 156.5,62.5 156.5,56.5 156.5,50.5C 154.5,50.5 152.5,50.5 150.5,50.5C 150.665,53.5184 150.498,56.5184 150,59.5C 149.283,58.9558 148.783,58.2891 148.5,57.5C 149.473,55.0521 149.806,52.3854 149.5,49.5C 152.833,49.5 156.167,49.5 159.5,49.5 Z"/></g>
<g><path style="opacity:1" fill="#b25719" d="M 133.5,50.5 C 136.833,49.1667 140.167,49.1667 143.5,50.5C 141.167,50.5 138.833,50.5 136.5,50.5C 136.5,56.1667 136.5,61.8333 136.5,67.5C 138.5,67.5 140.5,67.5 142.5,67.5C 142.201,65.396 142.534,63.396 143.5,61.5C 144.107,61.6236 144.44,61.9569 144.5,62.5C 143.539,64.2646 143.205,66.2646 143.5,68.5C 143.167,68.5 142.833,68.5 142.5,68.5C 140.5,68.5 138.5,68.5 136.5,68.5C 136.167,68.5 135.833,68.5 135.5,68.5C 135.666,62.8236 135.499,57.1569 135,51.5C 134.617,50.944 134.117,50.6107 133.5,50.5 Z"/></g>
<g><path style="opacity:1" fill="#f86a0a" d="M 143.5,50.5 C 145.412,52.6572 147.079,54.9906 148.5,57.5C 148.783,58.2891 149.283,58.9558 150,59.5C 150.498,56.5184 150.665,53.5184 150.5,50.5C 152.5,50.5 154.5,50.5 156.5,50.5C 156.5,56.5 156.5,62.5 156.5,68.5C 153.833,68.5 151.167,68.5 148.5,68.5C 146.808,66.7952 145.475,64.7952 144.5,62.5C 144.44,61.9569 144.107,61.6236 143.5,61.5C 142.534,63.396 142.201,65.396 142.5,67.5C 140.5,67.5 138.5,67.5 136.5,67.5C 136.5,61.8333 136.5,56.1667 136.5,50.5C 138.833,50.5 141.167,50.5 143.5,50.5 Z"/></g>
<g><path style="opacity:1" fill="#f3690d" d="M 195.5,49.5 C 196.492,49.3284 197.158,49.6618 197.5,50.5C 197.5,55.1667 197.5,59.8333 197.5,64.5C 193.727,65.1031 190.061,65.7698 186.5,66.5C 184.5,66.5 182.5,66.5 180.5,66.5C 180.821,61.3054 180.487,56.3054 179.5,51.5C 178.883,51.3893 178.383,51.056 178,50.5C 177.502,53.8168 177.335,57.1501 177.5,60.5C 173.653,60.1003 171.32,58.1003 170.5,54.5C 169.5,54.5 168.5,54.5 167.5,54.5C 166.515,58.6344 166.182,62.9677 166.5,67.5C 164.833,67.5 163.167,67.5 161.5,67.5C 161.5,61.8333 161.5,56.1667 161.5,50.5C 172.826,49.9671 184.159,49.6337 195.5,49.5 Z"/></g>
<g><path style="opacity:1" fill="#1b0504" d="M 187.5,55.5 C 188.5,55.5 189.5,55.5 190.5,55.5C 190.662,57.5273 190.495,59.5273 190,61.5C 187.984,60.0448 187.151,58.0448 187.5,55.5 Z"/></g>
<g><path style="opacity:1" fill="#fc6803" d="M 132.5,67.5 C 131.833,67.5 131.167,67.5 130.5,67.5C 130.827,62.456 130.494,57.456 129.5,52.5C 128.833,57.1667 128.167,61.8333 127.5,66.5C 125.365,65.1189 123.032,64.1189 120.5,63.5C 120.047,61.4348 119.047,59.7682 117.5,58.5C 116.52,55.9135 116.187,53.2469 116.5,50.5C 121.762,50.1953 126.928,50.5286 132,51.5C 132.499,56.8229 132.666,62.1563 132.5,67.5 Z"/></g>
<g><path style="opacity:1" fill="#c15e14" d="M 123.5,59.5 C 122.539,57.7354 122.205,55.7354 122.5,53.5C 124.167,53.5 125.833,53.5 127.5,53.5C 127.5,56.1667 127.5,58.8333 127.5,61.5C 125.517,61.8432 124.183,61.1765 123.5,59.5 Z"/></g>
<g><path style="opacity:1" fill="#120001" d="M 123.5,59.5 C 124.183,61.1765 125.517,61.8432 127.5,61.5C 127.5,58.8333 127.5,56.1667 127.5,53.5C 125.833,53.5 124.167,53.5 122.5,53.5C 122.205,55.7354 122.539,57.7354 123.5,59.5 Z"/></g>
<g><path style="opacity:1" fill="#e5620e" d="M 101.5,121.5 C 102.493,129.984 102.826,138.651 102.5,147.5C 101.5,147.5 100.5,147.5 99.5,147.5C 98.3542,134.909 98.1876,122.242 99,109.5C 99.8394,113.637 100.673,117.637 101.5,121.5 Z"/></g>
<g><path style="opacity:1" fill="#77633c" d="M 199.5,122.5 C 199.151,128.057 196.818,132.557 192.5,136C 191.1,134.86 189.767,134.027 188.5,133.5C 189.035,131.739 190.035,130.406 191.5,129.5C 191.351,130.552 191.517,131.552 192,132.5C 193.011,131.663 194.178,131.33 195.5,131.5C 195.502,127.835 196.835,124.835 199.5,122.5 Z"/></g>
<g><path style="opacity:1" fill="#400305" d="M 155.5,131.5 C 155.66,133.199 155.494,134.866 155,136.5C 152.667,140.515 151.001,140.181 150,135.5C 149.273,140.459 147.106,141.459 143.5,138.5C 144.833,138.5 146.167,138.5 147.5,138.5C 147.5,136.5 147.5,134.5 147.5,132.5C 149.833,133.167 152.167,133.833 154.5,134.5C 154.263,133.209 154.596,132.209 155.5,131.5 Z"/></g>
<g><path style="opacity:1" fill="#350203" d="M 201.5,135.5 C 202.931,135.881 203.764,136.881 204,138.5C 204.333,137.5 204.667,136.5 205,135.5C 205.181,138.695 205.681,141.695 206.5,144.5C 206.5,146.167 206.5,147.833 206.5,149.5C 205.85,149.196 205.183,148.863 204.5,148.5C 203.476,149.853 202.143,150.52 200.5,150.5C 200.5,151.5 200.5,152.5 200.5,153.5C 199.5,153.5 198.5,153.5 197.5,153.5C 197.477,151.4 198.144,149.567 199.5,148C 199.167,147.5 198.833,147 198.5,146.5C 197.85,148.184 196.85,149.517 195.5,150.5C 195.664,147.813 195.497,145.146 195,142.5C 194.617,143.056 194.117,143.389 193.5,143.5C 193.557,142.391 193.89,141.391 194.5,140.5C 197.112,139.221 199.445,137.555 201.5,135.5 Z"/></g>
<g><path style="opacity:1" fill="#904f26" d="M 207.5,131.5 C 207.5,136.833 207.5,142.167 207.5,147.5C 208.5,147.5 209.5,147.5 210.5,147.5C 209.329,148.345 207.995,149.011 206.5,149.5C 206.5,147.833 206.5,146.167 206.5,144.5C 206.182,139.968 206.515,135.634 207.5,131.5 Z"/></g>
<g><path style="opacity:1" fill="#510204" d="M 195.5,150.5 C 194.24,153.596 192.074,155.929 189,157.5C 187.311,151.655 188.811,146.988 193.5,143.5C 194.117,143.389 194.617,143.056 195,142.5C 195.497,145.146 195.664,147.813 195.5,150.5 Z"/></g>
<g><path style="opacity:1" fill="#874919" d="M 210.5,150.5 C 210.842,149.662 211.508,149.328 212.5,149.5C 212.827,159.681 212.494,169.681 211.5,179.5C 211.827,169.652 211.494,159.986 210.5,150.5 Z"/></g>
<g><path style="opacity:1" fill="#fc6703" d="M 210.5,180.5 C 210.5,180.833 210.5,181.167 210.5,181.5C 205.621,184.278 203.621,182.611 204.5,176.5C 204.5,176.167 204.5,175.833 204.5,175.5C 206.285,170.933 207.118,165.933 207,160.5C 207.98,158.941 208.813,157.274 209.5,155.5C 210.498,163.807 210.831,172.14 210.5,180.5 Z"/></g>
<g><path style="opacity:1" fill="#dc6719" d="M 210.5,150.5 C 211.494,159.986 211.827,169.652 211.5,179.5C 211.5,180.167 211.167,180.5 210.5,180.5C 210.831,172.14 210.498,163.807 209.5,155.5C 208.813,157.274 207.98,158.941 207,160.5C 207.118,165.933 206.285,170.933 204.5,175.5C 204.467,171.131 204.8,166.798 205.5,162.5C 205.183,159.428 205.516,156.428 206.5,153.5C 207.569,152.09 208.903,151.09 210.5,150.5 Z"/></g>
<g><path style="opacity:1" fill="#3a0203" d="M 205.5,162.5 C 204.8,166.798 204.467,171.131 204.5,175.5C 204.5,175.833 204.5,176.167 204.5,176.5C 198.269,188.628 191.269,200.295 183.5,211.5C 182.728,212.694 181.728,213.694 180.5,214.5C 180.565,214.062 180.399,213.728 180,213.5C 178.846,214.743 177.512,215.743 176,216.5C 175.503,214.19 175.337,211.857 175.5,209.5C 176.265,209.923 177.098,210.257 178,210.5C 179.368,209.297 180.868,208.297 182.5,207.5C 183.429,206.311 183.762,204.978 183.5,203.5C 184.5,203.5 185.5,203.5 186.5,203.5C 189.297,196.945 191.63,190.111 193.5,183C 193.164,181.97 192.497,181.47 191.5,181.5C 191.5,181.167 191.5,180.833 191.5,180.5C 192.495,173.712 195.495,167.878 200.5,163C 202.108,162.342 203.275,162.842 204,164.5C 204.278,163.584 204.778,162.918 205.5,162.5 Z"/></g>
<g><path style="opacity:1" fill="#1b0806" d="M 97.5,86.5 C 96.8451,107.194 97.5117,127.527 99.5,147.5C 102.485,148.182 105.485,149.182 108.5,150.5C 109.086,150.291 109.586,149.957 110,149.5C 110.29,151.044 110.956,152.377 112,153.5C 111.238,145.946 112.571,145.946 116,153.5C 122.534,160.174 124.368,158.507 121.5,148.5C 117.2,142.701 112.033,137.701 106,133.5C 105.833,132.833 105.667,132.167 105.5,131.5C 107.105,129.864 108.439,128.031 109.5,126C 108.359,123.837 107.693,121.504 107.5,119C 107.514,117.615 107.848,116.449 108.5,115.5C 109.95,119.404 111.116,123.404 112,127.5C 113.222,131.314 115.389,134.314 118.5,136.5C 117.957,136.56 117.624,136.893 117.5,137.5C 119.594,138.518 121.594,139.518 123.5,140.5C 122.325,140.281 121.325,140.614 120.5,141.5C 121.534,143.841 123.201,145.507 125.5,146.5C 129.275,150.777 133.275,154.944 137.5,159C 136.692,159.308 136.025,159.808 135.5,160.5C 136.363,161.726 136.363,163.06 135.5,164.5C 133.421,164.029 131.421,163.363 129.5,162.5C 130.091,161.849 130.757,161.182 131.5,160.5C 129.893,156.788 127.893,153.288 125.5,150C 124.4,149.568 123.733,150.068 123.5,151.5C 124.528,154.519 125.861,157.352 127.5,160C 127.272,160.399 126.938,160.565 126.5,160.5C 124.46,159.481 122.46,159.481 120.5,160.5C 121.5,162.813 122.834,164.813 124.5,166.5C 126.096,170.982 128.763,174.649 132.5,177.5C 133.167,177.167 133.833,176.833 134.5,176.5C 133.656,173.322 131.989,170.655 129.5,168.5C 129.833,168.167 130.167,167.833 130.5,167.5C 132.075,168.456 133.742,169.123 135.5,169.5C 134.909,172.675 135.909,175.009 138.5,176.5C 136.258,177.648 133.924,178.648 131.5,179.5C 133.811,180.575 136.144,180.575 138.5,179.5C 137.319,181.067 135.653,181.901 133.5,182C 137.243,183.951 140.41,183.118 143,179.5C 145.432,180.45 147.932,180.45 150.5,179.5C 150.5,181.5 150.5,183.5 150.5,185.5C 153.713,185.81 156.713,185.477 159.5,184.5C 159.5,183.5 159.5,182.5 159.5,181.5C 159.833,180.5 160.5,179.833 161.5,179.5C 164.067,180.475 166.733,181.142 169.5,181.5C 169.5,180.5 169.5,179.5 169.5,178.5C 171.153,178.66 172.486,179.326 173.5,180.5C 171.952,180.821 171.285,181.821 171.5,183.5C 173.288,183.785 174.955,183.452 176.5,182.5C 175.757,181.818 175.091,181.151 174.5,180.5C 175.873,180.657 177.207,180.49 178.5,180C 176.216,178.738 173.882,177.572 171.5,176.5C 174.606,174.87 176.273,172.203 176.5,168.5C 177.833,167.5 179.167,166.5 180.5,165.5C 181.376,165.369 182.043,165.702 182.5,166.5C 178.921,169.405 176.588,173.071 175.5,177.5C 177.288,177.785 178.955,177.452 180.5,176.5C 182.178,173.145 183.844,169.811 185.5,166.5C 187.841,164.344 189.841,161.844 191.5,159C 184.889,160.216 178.723,162.716 173,166.5C 172.536,165.906 172.369,165.239 172.5,164.5C 173.11,163.609 173.443,162.609 173.5,161.5C 174.525,161.103 174.692,160.437 174,159.5C 173.282,160.451 172.449,160.617 171.5,160C 176.105,154.886 181.105,150.386 186.5,146.5C 188.539,145.089 189.539,143.089 189.5,140.5C 188.5,140.5 187.5,140.5 186.5,140.5C 188.65,139.33 190.984,138.33 193.5,137.5C 194.386,138.325 194.719,139.325 194.5,140.5C 193.89,141.391 193.557,142.391 193.5,143.5C 188.811,146.988 187.311,151.655 189,157.5C 192.074,155.929 194.24,153.596 195.5,150.5C 196.85,149.517 197.85,148.184 198.5,146.5C 198.833,147 199.167,147.5 199.5,148C 198.144,149.567 197.477,151.4 197.5,153.5C 198.5,153.5 199.5,153.5 200.5,153.5C 200.5,152.5 200.5,151.5 200.5,150.5C 202.143,150.52 203.476,149.853 204.5,148.5C 205.183,148.863 205.85,149.196 206.5,149.5C 207.995,149.011 209.329,148.345 210.5,147.5C 210.833,147.5 211.167,147.5 211.5,147.5C 211.833,148.167 212.167,148.833 212.5,149.5C 211.508,149.328 210.842,149.662 210.5,150.5C 208.903,151.09 207.569,152.09 206.5,153.5C 205.516,156.428 205.183,159.428 205.5,162.5C 204.778,162.918 204.278,163.584 204,164.5C 203.275,162.842 202.108,162.342 200.5,163C 195.495,167.878 192.495,173.712 191.5,180.5C 191.5,180.833 191.5,181.167 191.5,181.5C 191.649,182.552 191.483,183.552 191,184.5C 186.95,189.401 181.783,191.734 175.5,191.5C 174.791,190.596 173.791,190.263 172.5,190.5C 171.5,189.167 170.5,189.167 169.5,190.5C 169.5,193.5 169.5,196.5 169.5,199.5C 169.44,200.043 169.107,200.376 168.5,200.5C 167.943,198.668 166.943,197.335 165.5,196.5C 166.291,190.087 165.124,190.087 162,196.5C 161.399,198.137 160.899,199.803 160.5,201.5C 160.747,202.713 161.414,203.38 162.5,203.5C 162.5,204.833 161.833,205.5 160.5,205.5C 158.952,205.179 158.285,204.179 158.5,202.5C 157.5,202.5 156.5,202.5 155.5,202.5C 155.754,204.401 155.42,205.067 154.5,204.5C 153.5,201.833 152.5,201.833 151.5,204.5C 150.791,205.404 149.791,205.737 148.5,205.5C 147.518,204.859 146.518,204.193 145.5,203.5C 144.088,206.856 145.088,209.356 148.5,211C 152.075,212.742 155.741,212.908 159.5,211.5C 158.89,212.391 158.557,213.391 158.5,214.5C 155.091,214.751 151.758,214.417 148.5,213.5C 145.937,215.335 145.937,217.002 148.5,218.5C 149.391,219.11 150.391,219.443 151.5,219.5C 152.568,220.434 153.901,220.768 155.5,220.5C 156.29,221.401 157.29,222.068 158.5,222.5C 156.792,224.512 154.792,224.846 152.5,223.5C 150.685,222.37 148.685,221.704 146.5,221.5C 146.5,223.167 146.5,224.833 146.5,226.5C 145.778,225.449 144.778,224.782 143.5,224.5C 143.5,222.167 143.5,219.833 143.5,217.5C 144.147,216.726 144.48,215.726 144.5,214.5C 144.36,212.97 143.693,211.97 142.5,211.5C 143.091,210.849 143.757,210.182 144.5,209.5C 143.626,207.253 143.292,204.92 143.5,202.5C 144.5,202.5 145.5,202.5 146.5,202.5C 149.029,203.543 149.862,202.543 149,199.5C 148.364,195.86 146.531,193.194 143.5,191.5C 143.227,189.549 143.893,188.049 145.5,187C 144.906,186.536 144.239,186.369 143.5,186.5C 144.531,185.751 145.698,185.085 147,184.5C 147.749,183.365 147.583,182.365 146.5,181.5C 140.087,186.014 133.42,186.514 126.5,183C 124.383,181.269 122.883,179.102 122,176.5C 120.277,165.621 114.777,157.288 105.5,151.5C 105.167,151.667 104.833,151.833 104.5,152C 113.541,160.579 119.041,171.079 121,183.5C 124.213,187.524 128.38,189.524 133.5,189.5C 133.833,190.167 134.167,190.833 134.5,191.5C 131.813,191.664 129.146,191.497 126.5,191C 125.529,189.519 124.196,188.685 122.5,188.5C 120.71,186.728 119.377,184.728 118.5,182.5C 117.157,176.058 114.99,169.725 112,163.5C 110.084,159.415 107.25,156.081 103.5,153.5C 102.292,150.956 100.292,149.622 97.5,149.5C 97.1726,159.681 97.506,169.681 98.5,179.5C 98.9752,181.784 99.9752,183.784 101.5,185.5C 106.683,193.195 112.349,200.528 118.5,207.5C 116.61,207.297 115.11,207.963 114,209.5C 112.115,207.98 109.949,206.98 107.5,206.5C 106.35,201.69 103.683,198.023 99.5,195.5C 98.9661,193.386 97.9661,191.552 96.5,190C 96.8333,189.667 97.1667,189.333 97.5,189C 95.9452,187.354 94.2785,187.021 92.5,188C 93.8333,187.333 93.8333,186.667 92.5,186C 93.1667,185.667 93.8333,185.333 94.5,185C 92.085,183.535 91.085,181.368 91.5,178.5C 92.552,178.649 93.552,178.483 94.5,178C 94.1667,177.667 93.8333,177.333 93.5,177C 94.4162,176.626 95.2496,176.126 96,175.5C 96.1676,145.664 96.6676,115.997 97.5,86.5 Z"/></g>
<g><path style="opacity:1" fill="#88805d" d="M 138.5,176.5 C 139.376,176.369 140.043,176.702 140.5,177.5C 139.757,178.182 139.091,178.849 138.5,179.5C 136.144,180.575 133.811,180.575 131.5,179.5C 133.924,178.648 136.258,177.648 138.5,176.5 Z"/></g>
<g><path style="opacity:1" fill="#988c62" d="M 171.5,176.5 C 173.882,177.572 176.216,178.738 178.5,180C 177.207,180.49 175.873,180.657 174.5,180.5C 174.167,180.5 173.833,180.5 173.5,180.5C 172.486,179.326 171.153,178.66 169.5,178.5C 169.5,177.167 170.167,176.5 171.5,176.5 Z"/></g>
<g><path style="opacity:1" fill="#370304" d="M 103.5,153.5 C 107.25,156.081 110.084,159.415 112,163.5C 114.99,169.725 117.157,176.058 118.5,182.5C 116.009,180.832 113.842,181.166 112,183.5C 112.165,179.595 111.831,175.595 111,171.5C 109.951,172.517 108.784,172.684 107.5,172C 108.798,167.882 108.798,163.715 107.5,159.5C 106.943,161.332 105.943,162.665 104.5,163.5C 104.167,160.167 103.833,156.833 103.5,153.5 Z"/></g>
<g><path style="opacity:1" fill="#481107" d="M 159.5,145.5 C 164.162,144.995 168.162,146.329 171.5,149.5C 168.796,153.58 165.629,157.247 162,160.5C 161.312,161.332 161.479,161.998 162.5,162.5C 167.347,160.006 171.68,156.672 175.5,152.5C 175.435,152.938 175.601,153.272 176,153.5C 177.371,151.959 178.871,150.625 180.5,149.5C 182.012,147.683 184.012,146.683 186.5,146.5C 181.105,150.386 176.105,154.886 171.5,160C 172.449,160.617 173.282,160.451 174,159.5C 174.692,160.437 174.525,161.103 173.5,161.5C 168.879,164.282 164.379,167.282 160,170.5C 159.978,173.47 161.478,174.636 164.5,174C 165.056,173.617 165.389,173.117 165.5,172.5C 166.833,172.833 168.167,173.167 169.5,173.5C 168.748,175.1 167.748,176.6 166.5,178C 165.216,178.684 164.049,178.517 163,177.5C 162.283,178.044 161.783,178.711 161.5,179.5C 160.5,179.833 159.833,180.5 159.5,181.5C 157.2,179.798 154.533,179.132 151.5,179.5C 151.5,181.167 151.5,182.833 151.5,184.5C 154.167,184.5 156.833,184.5 159.5,184.5C 156.713,185.477 153.713,185.81 150.5,185.5C 150.5,183.5 150.5,181.5 150.5,179.5C 147.932,180.45 145.432,180.45 143,179.5C 140.41,183.118 137.243,183.951 133.5,182C 135.653,181.901 137.319,181.067 138.5,179.5C 139.091,178.849 139.757,178.182 140.5,177.5C 140.043,176.702 139.376,176.369 138.5,176.5C 135.909,175.009 134.909,172.675 135.5,169.5C 138.78,172.043 141.613,175.043 144,178.5C 145.196,176.714 146.696,175.381 148.5,174.5C 151.018,172.643 151.018,170.81 148.5,169C 144.742,167.077 141.409,164.577 138.5,161.5C 137.374,162.808 137.374,164.142 138.5,165.5C 137.652,166.625 136.652,166.625 135.5,165.5C 135.5,165.167 135.5,164.833 135.5,164.5C 136.363,163.06 136.363,161.726 135.5,160.5C 136.025,159.808 136.692,159.308 137.5,159C 133.275,154.944 129.275,150.777 125.5,146.5C 128.454,148.28 131.287,150.28 134,152.5C 134.399,152.272 134.565,151.938 134.5,151.5C 137.077,154.666 140.077,157.333 143.5,159.5C 144.167,159.167 144.833,158.833 145.5,158.5C 144.323,155.651 142.49,153.318 140,151.5C 139.405,150.101 139.572,148.768 140.5,147.5C 146.755,144.775 153.088,144.108 159.5,145.5 Z"/></g>
<g><path style="opacity:1" fill="#a2834c" d="M 143.5,186.5 C 140.301,187.899 136.968,188.899 133.5,189.5C 128.38,189.524 124.213,187.524 121,183.5C 119.041,171.079 113.541,160.579 104.5,152C 104.833,151.833 105.167,151.667 105.5,151.5C 114.777,157.288 120.277,165.621 122,176.5C 122.883,179.102 124.383,181.269 126.5,183C 133.42,186.514 140.087,186.014 146.5,181.5C 147.583,182.365 147.749,183.365 147,184.5C 145.698,185.085 144.531,185.751 143.5,186.5 Z"/></g>
<g><path style="opacity:1" fill="#391009" d="M 176.5,168.5 C 176.273,172.203 174.606,174.87 171.5,176.5C 170.167,176.5 169.5,177.167 169.5,178.5C 169.5,179.5 169.5,180.5 169.5,181.5C 166.733,181.142 164.067,180.475 161.5,179.5C 161.783,178.711 162.283,178.044 163,177.5C 164.049,178.517 165.216,178.684 166.5,178C 167.748,176.6 168.748,175.1 169.5,173.5C 171.875,171.776 174.208,170.11 176.5,168.5 Z"/></g>
<g><path style="opacity:1" fill="#6f1909" d="M 135.5,165.5 C 136.652,166.625 137.652,166.625 138.5,165.5C 140.816,168.095 143.149,170.761 145.5,173.5C 146.325,174.386 147.325,174.719 148.5,174.5C 146.696,175.381 145.196,176.714 144,178.5C 141.613,175.043 138.78,172.043 135.5,169.5C 133.742,169.123 132.075,168.456 130.5,167.5C 130.167,167.833 129.833,168.167 129.5,168.5C 131.989,170.655 133.656,173.322 134.5,176.5C 133.833,176.833 133.167,177.167 132.5,177.5C 128.763,174.649 126.096,170.982 124.5,166.5C 125.234,165.071 126.401,164.071 128,163.5C 130.433,164.479 132.933,165.145 135.5,165.5 Z"/></g>
<g><path style="opacity:1" fill="#360506" d="M 189.5,169.5 C 188.388,171.599 187.721,173.933 187.5,176.5C 185.801,176.66 184.134,176.494 182.5,176C 184.543,172.747 186.71,169.58 189,166.5C 189.483,167.448 189.649,168.448 189.5,169.5 Z"/></g>
<g><path style="opacity:1" fill="#e76810" d="M 173.5,161.5 C 173.443,162.609 173.11,163.609 172.5,164.5C 170.177,167.126 167.843,169.793 165.5,172.5C 165.389,173.117 165.056,173.617 164.5,174C 161.478,174.636 159.978,173.47 160,170.5C 164.379,167.282 168.879,164.282 173.5,161.5 Z"/></g>
<g><path style="opacity:1" fill="#842914" d="M 185.5,166.5 C 185.751,164.83 186.418,163.33 187.5,162C 187.167,161.833 186.833,161.667 186.5,161.5C 183.967,162.304 181.967,163.637 180.5,165.5C 179.167,166.5 177.833,167.5 176.5,168.5C 174.208,170.11 171.875,171.776 169.5,173.5C 168.167,173.167 166.833,172.833 165.5,172.5C 167.843,169.793 170.177,167.126 172.5,164.5C 172.369,165.239 172.536,165.906 173,166.5C 178.723,162.716 184.889,160.216 191.5,159C 189.841,161.844 187.841,164.344 185.5,166.5 Z"/></g>
<g><path style="opacity:1" fill="#ea6910" d="M 148.5,174.5 C 147.325,174.719 146.325,174.386 145.5,173.5C 143.149,170.761 140.816,168.095 138.5,165.5C 137.374,164.142 137.374,162.808 138.5,161.5C 141.409,164.577 144.742,167.077 148.5,169C 151.018,170.81 151.018,172.643 148.5,174.5 Z"/></g>
<g><path style="opacity:1" fill="#a3874e" d="M 191.5,180.5 C 185.56,189.439 177.56,191.606 167.5,187C 165.187,186.359 163.52,185.026 162.5,183C 162.833,182.5 163.167,182 163.5,181.5C 169.986,185.635 176.652,186.135 183.5,183C 187.722,179.505 189.722,175.005 189.5,169.5C 192.506,162.989 196.839,157.489 202.5,153C 203.167,152.333 203.833,152.333 204.5,153C 196.765,160.634 192.431,169.801 191.5,180.5 Z"/></g>
<g><path style="opacity:1" fill="#f76807" d="M 104.5,175.5 C 106.341,177.849 107.674,180.515 108.5,183.5C 110.101,186.423 109.768,189.09 107.5,191.5C 105.764,189.097 103.764,187.097 101.5,185.5C 99.9752,183.784 98.9752,181.784 98.5,179.5C 98.0989,171.415 98.5989,163.415 100,155.5C 100.667,156.167 101.333,156.833 102,157.5C 102.517,163.689 103.35,169.689 104.5,175.5 Z"/></g>
<g><path style="opacity:1" fill="#640504" d="M 185.5,166.5 C 183.844,169.811 182.178,173.145 180.5,176.5C 178.955,177.452 177.288,177.785 175.5,177.5C 176.588,173.071 178.921,169.405 182.5,166.5C 182.043,165.702 181.376,165.369 180.5,165.5C 181.967,163.637 183.967,162.304 186.5,161.5C 186.833,161.667 187.167,161.833 187.5,162C 186.418,163.33 185.751,164.83 185.5,166.5 Z"/></g>
<g><path style="opacity:1" fill="#93391f" d="M 126.5,160.5 C 127.29,161.401 128.29,162.068 129.5,162.5C 131.421,163.363 133.421,164.029 135.5,164.5C 135.5,164.833 135.5,165.167 135.5,165.5C 132.933,165.145 130.433,164.479 128,163.5C 126.401,164.071 125.234,165.071 124.5,166.5C 122.834,164.813 121.5,162.813 120.5,160.5C 122.46,159.481 124.46,159.481 126.5,160.5 Z"/></g>
<g><path style="opacity:1" fill="#6f0807" d="M 183.5,151.5 C 184.693,151.97 185.36,152.97 185.5,154.5C 185.695,156.725 184.861,158.391 183,159.5C 182.5,159.167 182,158.833 181.5,158.5C 182.946,156.382 183.613,154.049 183.5,151.5 Z"/></g>
<g><path style="opacity:1" fill="#4b0b0c" d="M 129.5,162.5 C 128.29,162.068 127.29,161.401 126.5,160.5C 126.938,160.565 127.272,160.399 127.5,160C 125.861,157.352 124.528,154.519 123.5,151.5C 123.733,150.068 124.4,149.568 125.5,150C 127.893,153.288 129.893,156.788 131.5,160.5C 130.757,161.182 130.091,161.849 129.5,162.5 Z"/></g>
<g><path style="opacity:1" fill="#c15411" d="M 103.5,153.5 C 103.833,156.833 104.167,160.167 104.5,163.5C 104.5,167.5 104.5,171.5 104.5,175.5C 103.35,169.689 102.517,163.689 102,157.5C 101.333,156.833 100.667,156.167 100,155.5C 98.5989,163.415 98.0989,171.415 98.5,179.5C 97.506,169.681 97.1726,159.681 97.5,149.5C 100.292,149.622 102.292,150.956 103.5,153.5 Z"/></g>
<g><path style="opacity:1" fill="#790303" d="M 159.5,145.5 C 160.609,146.29 161.942,146.79 163.5,147C 164.337,148.011 164.67,149.178 164.5,150.5C 163.325,150.281 162.325,150.614 161.5,151.5C 162.611,152.611 163.278,153.945 163.5,155.5C 161.582,159.004 159.416,162.337 157,165.5C 156.501,169.486 156.334,173.486 156.5,177.5C 155.5,177.5 154.5,177.5 153.5,177.5C 153.083,173.165 152.583,168.832 152,164.5C 148.5,161.159 147.333,157.159 148.5,152.5C 146.851,151.852 145.518,150.852 144.5,149.5C 148.918,146.151 153.918,144.817 159.5,145.5 Z"/></g>
<g><path style="opacity:1" fill="#a85121" d="M 184.5,141.5 C 182.757,143.924 181.424,146.591 180.5,149.5C 178.871,150.625 177.371,151.959 176,153.5C 175.601,153.272 175.435,152.938 175.5,152.5C 178.205,148.474 181.205,144.808 184.5,141.5 Z"/></g>
<g><path style="opacity:1" fill="#72100a" d="M 186.5,140.5 C 187.5,140.5 188.5,140.5 189.5,140.5C 189.539,143.089 188.539,145.089 186.5,146.5C 184.012,146.683 182.012,147.683 180.5,149.5C 181.424,146.591 182.757,143.924 184.5,141.5C 184.842,140.662 185.508,140.328 186.5,140.5 Z"/></g>
<g><path style="opacity:1" fill="#872812" d="M 123.5,140.5 C 125.607,140.722 127.274,141.722 128.5,143.5C 130.132,146.462 132.132,149.129 134.5,151.5C 134.565,151.938 134.399,152.272 134,152.5C 131.287,150.28 128.454,148.28 125.5,146.5C 123.201,145.507 121.534,143.841 120.5,141.5C 121.325,140.614 122.325,140.281 123.5,140.5 Z"/></g>
<g><path style="opacity:1" fill="#5c0d09" d="M 173.5,180.5 C 173.833,180.5 174.167,180.5 174.5,180.5C 175.091,181.151 175.757,181.818 176.5,182.5C 174.955,183.452 173.288,183.785 171.5,183.5C 171.285,181.821 171.952,180.821 173.5,180.5 Z"/></g>
<g><path style="opacity:1" fill="#7b0105" d="M 159.5,181.5 C 159.5,182.5 159.5,183.5 159.5,184.5C 156.833,184.5 154.167,184.5 151.5,184.5C 151.5,182.833 151.5,181.167 151.5,179.5C 154.533,179.132 157.2,179.798 159.5,181.5 Z"/></g>
<g><path style="opacity:1" fill="#e76711" d="M 204.5,176.5 C 203.621,182.611 205.621,184.278 210.5,181.5C 208.251,185.598 205.751,189.598 203,193.5C 196.996,200.671 190.496,207.338 183.5,213.5C 183.5,212.833 183.5,212.167 183.5,211.5C 191.269,200.295 198.269,188.628 204.5,176.5 Z"/></g>
<g><path style="opacity:1" fill="#630606" d="M 146.5,186.5 C 150.728,186.987 154.895,187.653 159,188.5C 160.241,186.579 161.741,186.246 163.5,187.5C 161.395,190.717 158.395,192.05 154.5,191.5C 150.203,192.172 147.537,190.506 146.5,186.5 Z"/></g>
<g><path style="opacity:1" fill="#de6313" d="M 108.5,183.5 C 114.382,194.245 121.049,204.579 128.5,214.5C 128.376,215.107 128.043,215.44 127.5,215.5C 124.455,212.782 121.455,210.116 118.5,207.5C 112.349,200.528 106.683,193.195 101.5,185.5C 103.764,187.097 105.764,189.097 107.5,191.5C 109.768,189.09 110.101,186.423 108.5,183.5 Z"/></g>
<g><path style="opacity:1" fill="#620102" d="M 191.5,181.5 C 192.497,181.47 193.164,181.97 193.5,183C 191.63,190.111 189.297,196.945 186.5,203.5C 185.5,203.5 184.5,203.5 183.5,203.5C 183.762,204.978 183.429,206.311 182.5,207.5C 180.868,208.297 179.368,209.297 178,210.5C 177.098,210.257 176.265,209.923 175.5,209.5C 175.5,203.5 175.5,197.5 175.5,191.5C 181.783,191.734 186.95,189.401 191,184.5C 191.483,183.552 191.649,182.552 191.5,181.5 Z"/></g>
<g><path style="opacity:1" fill="#5d0503" d="M 169.5,190.5 C 170.777,191.694 171.444,193.36 171.5,195.5C 171.333,197.167 171.167,198.833 171,200.5C 170.617,199.944 170.117,199.611 169.5,199.5C 169.5,196.5 169.5,193.5 169.5,190.5 Z"/></g>
<g><path style="opacity:1" fill="#9d8553" d="M 165.5,196.5 C 164.715,198.374 164.048,200.374 163.5,202.5C 162.833,202.5 162.5,202.833 162.5,203.5C 161.414,203.38 160.747,202.713 160.5,201.5C 160.899,199.803 161.399,198.137 162,196.5C 165.124,190.087 166.291,190.087 165.5,196.5 Z"/></g>
<g><path style="opacity:1" fill="#4b0404" d="M 118.5,182.5 C 119.377,184.728 120.71,186.728 122.5,188.5C 124.196,188.685 125.529,189.519 126.5,191C 129.146,191.497 131.813,191.664 134.5,191.5C 135.613,201.073 135.113,210.74 133,220.5C 130.809,219.167 128.976,217.5 127.5,215.5C 128.043,215.44 128.376,215.107 128.5,214.5C 121.049,204.579 114.382,194.245 108.5,183.5C 107.674,180.515 106.341,177.849 104.5,175.5C 104.5,171.5 104.5,167.5 104.5,163.5C 105.943,162.665 106.943,161.332 107.5,159.5C 108.798,163.715 108.798,167.882 107.5,172C 108.784,172.684 109.951,172.517 111,171.5C 111.831,175.595 112.165,179.595 112,183.5C 113.842,181.166 116.009,180.832 118.5,182.5 Z"/></g>
<g><path style="opacity:1" fill="#6d0102" d="M 122.5,188.5 C 122.513,193.528 124.846,195.528 129.5,194.5C 130.66,198.459 130.827,202.459 130,206.5C 129.586,206.957 129.086,207.291 128.5,207.5C 127.678,204.171 125.845,201.505 123,199.5C 122.351,196.295 121.185,193.295 119.5,190.5C 120.005,189.081 121.005,188.415 122.5,188.5 Z"/></g>
<g><path style="opacity:1" fill="#3b0506" d="M 137.5,189.5 C 139.124,189.36 140.29,190.027 141,191.5C 141.607,194.202 141.44,196.868 140.5,199.5C 141.167,200.833 141.833,202.167 142.5,203.5C 141.251,206.292 139.751,208.959 138,211.5C 137.5,204.174 137.334,196.841 137.5,189.5 Z"/></g>
<g><path style="opacity:1" fill="#9a804a" d="M 143.5,191.5 C 146.531,193.194 148.364,195.86 149,199.5C 149.862,202.543 149.029,203.543 146.5,202.5C 145.629,198.818 144.629,195.152 143.5,191.5 Z"/></g>
<g><path style="opacity:1" fill="#640708" d="M 151.5,194.5 C 153.924,194.192 156.257,194.526 158.5,195.5C 159.704,200.459 157.704,202.292 152.5,201C 151.577,198.959 151.244,196.792 151.5,194.5 Z"/></g>
<g><path style="opacity:1" fill="#798560" d="M 154.5,204.5 C 153.5,204.5 152.5,204.5 151.5,204.5C 152.5,201.833 153.5,201.833 154.5,204.5 Z"/></g>
<g><path style="opacity:1" fill="#542a1a" d="M 160.5,205.5 C 156.5,206.833 152.5,206.833 148.5,205.5C 149.791,205.737 150.791,205.404 151.5,204.5C 152.5,204.5 153.5,204.5 154.5,204.5C 155.42,205.067 155.754,204.401 155.5,202.5C 156.5,202.5 157.5,202.5 158.5,202.5C 158.285,204.179 158.952,205.179 160.5,205.5 Z"/></g>
<g><path style="opacity:1" fill="#280704" d="M 169.5,190.5 C 170.5,189.167 171.5,189.167 172.5,190.5C 172.83,197.2 172.497,203.866 171.5,210.5C 170.614,209.675 170.281,208.675 170.5,207.5C 169.5,207.5 168.5,207.5 167.5,207.5C 167.366,209.292 167.699,210.958 168.5,212.5C 166.586,215.684 165.92,219.351 166.5,223.5C 165.675,219.353 165.175,215.019 165,210.5C 164.329,211.252 163.496,211.586 162.5,211.5C 163.649,209.851 164.982,208.351 166.5,207C 166.302,204.815 165.302,203.315 163.5,202.5C 164.048,200.374 164.715,198.374 165.5,196.5C 166.943,197.335 167.943,198.668 168.5,200.5C 169.107,200.376 169.44,200.043 169.5,199.5C 170.117,199.611 170.617,199.944 171,200.5C 171.167,198.833 171.333,197.167 171.5,195.5C 171.444,193.36 170.777,191.694 169.5,190.5 Z"/></g>
<g><path style="opacity:1" fill="#700306" d="M 163.5,202.5 C 165.302,203.315 166.302,204.815 166.5,207C 164.982,208.351 163.649,209.851 162.5,211.5C 161.5,211.5 160.5,211.5 159.5,211.5C 155.741,212.908 152.075,212.742 148.5,211C 145.088,209.356 144.088,206.856 145.5,203.5C 146.518,204.193 147.518,204.859 148.5,205.5C 152.5,206.833 156.5,206.833 160.5,205.5C 161.833,205.5 162.5,204.833 162.5,203.5C 162.5,202.833 162.833,202.5 163.5,202.5 Z"/></g>
<g><path style="opacity:1" fill="#450204" d="M 142.5,211.5 C 143.693,211.97 144.36,212.97 144.5,214.5C 144.48,215.726 144.147,216.726 143.5,217.5C 144.187,212.067 143.021,211.401 140,215.5C 139.502,218.817 139.335,222.15 139.5,225.5C 138.25,225.423 137.417,224.756 137,223.5C 135.042,217.627 136.875,213.627 142.5,211.5 Z"/></g>
<g><path style="opacity:1" fill="#a35d2b" d="M 183.5,211.5 C 183.5,212.167 183.5,212.833 183.5,213.5C 181.539,215.963 179.372,218.297 177,220.5C 176.333,219.833 176.333,219.167 177,218.5C 178.376,217.295 179.542,215.962 180.5,214.5C 181.728,213.694 182.728,212.694 183.5,211.5 Z"/></g>
<g><path style="opacity:1" fill="#f07810" d="M 151.5,219.5 C 150.391,219.443 149.391,219.11 148.5,218.5C 148.5,217.5 148.5,216.5 148.5,215.5C 151.448,215.223 154.281,215.556 157,216.5C 157.617,217.449 157.451,218.282 156.5,219C 154.866,219.494 153.199,219.66 151.5,219.5 Z"/></g>
<g><path style="opacity:1" fill="#a55616" d="M 158.5,214.5 C 159.117,214.611 159.617,214.944 160,215.5C 160.423,214.044 161.256,213.544 162.5,214C 163.517,215.049 163.684,216.216 163,217.5C 160.55,218.642 158.05,219.642 155.5,220.5C 153.901,220.768 152.568,220.434 151.5,219.5C 153.199,219.66 154.866,219.494 156.5,219C 157.451,218.282 157.617,217.449 157,216.5C 154.281,215.556 151.448,215.223 148.5,215.5C 148.5,216.5 148.5,217.5 148.5,218.5C 145.937,217.002 145.937,215.335 148.5,213.5C 151.758,214.417 155.091,214.751 158.5,214.5 Z"/></g>
<g><path style="opacity:1" fill="#710305" d="M 143.5,217.5 C 143.5,219.833 143.5,222.167 143.5,224.5C 143.471,230.807 142.138,231.14 139.5,225.5C 139.335,222.15 139.502,218.817 140,215.5C 143.021,211.401 144.187,212.067 143.5,217.5 Z"/></g>
<g><path style="opacity:1" fill="#3b0502" d="M 169.5,213.5 C 171.124,213.36 172.29,214.027 173,215.5C 173.667,218.167 173.667,220.833 173,223.5C 172.722,224.416 172.222,225.082 171.5,225.5C 171.984,221.173 171.318,217.173 169.5,213.5 Z"/></g>
<g><path style="opacity:1" fill="#ea7516" d="M 152.5,223.5 C 153.335,224.943 154.668,225.943 156.5,226.5C 154.604,227.466 152.604,227.799 150.5,227.5C 149.041,227.567 147.708,227.234 146.5,226.5C 146.5,224.833 146.5,223.167 146.5,221.5C 148.685,221.704 150.685,222.37 152.5,223.5 Z"/></g>
<g><path style="opacity:1" fill="#730405" d="M 168.5,212.5 C 169.167,212.5 169.5,212.833 169.5,213.5C 171.318,217.173 171.984,221.173 171.5,225.5C 170.33,227.279 168.664,228.279 166.5,228.5C 166.5,226.833 166.5,225.167 166.5,223.5C 165.92,219.351 166.586,215.684 168.5,212.5 Z"/></g>
<g><path style="opacity:1" fill="#bb6116" d="M 150.5,227.5 C 152.604,227.799 154.604,227.466 156.5,226.5C 154.668,225.943 153.335,224.943 152.5,223.5C 154.792,224.846 156.792,224.512 158.5,222.5C 162.979,219.712 164.312,221.045 162.5,226.5C 158.48,228.509 154.48,228.842 150.5,227.5 Z"/></g>
<g><path style="opacity:1" fill="#905420" d="M 148.5,231.5 C 153.046,231.47 157.713,231.804 162.5,232.5C 161.649,235.612 160.483,235.946 159,233.5C 158.167,234.5 157.333,235.5 156.5,236.5C 155.094,235.332 153.928,235.665 153,237.5C 152.085,236.672 151.419,235.672 151,234.5C 150.275,236.158 149.108,236.658 147.5,236C 148.167,235.333 148.833,234.667 149.5,234C 148.748,233.329 148.414,232.496 148.5,231.5 Z"/></g>
</svg>
