<svg xmlns="http://www.w3.org/2000/svg" width="320" height="320" viewBox="0 0 320 320" version="1.1">
	<path fill-opacity="0.294" d="M -0 160.003 L -0 320.006 160.250 319.753 L 320.500 319.500 320.753 159.750 L 321.006 -0 160.503 -0 L 0 0 -0 160.003 M 0.488 160.500 C 0.488 248.500, 0.606 284.352, 0.750 240.171 C 0.894 195.990, 0.894 123.990, 0.750 80.171 C 0.606 36.352, 0.488 72.500, 0.488 160.500 M 157 61.441 C 157 63.334, 157.450 65.160, 158 65.500 C 158.604 65.873, 159 64.510, 159 62.059 C 159 59.827, 158.550 58, 158 58 C 157.450 58, 157 59.548, 157 61.441 M 147.451 70.078 C 140.066 81.776, 110 138.160, 110 140.311 C 110 141.175, 110.450 142.160, 111 142.500 C 111.550 142.840, 112 142.471, 112 141.681 C 112 140.890, 114.093 136.476, 116.652 131.872 C 123.312 119.885, 139.879 88.873, 144.537 79.673 C 146.717 75.368, 149.465 70.783, 150.645 69.484 C 152.659 67.267, 152.732 66, 150.846 66 C 150.394 66, 148.867 67.835, 147.451 70.078 M 162.730 71.644 C 164.377 73.765, 170.819 84.950, 177.045 96.500 C 183.270 108.050, 190.096 120.650, 192.212 124.500 C 200.989 140.469, 205.117 149.283, 204.233 150.167 C 203.700 150.700, 185.153 150.960, 159.729 150.791 C 135.754 150.631, 116.751 150.842, 117.499 151.261 C 118.248 151.679, 138.348 151.904, 162.167 151.761 C 201.426 151.524, 205.503 151.346, 205.789 149.856 C 206.072 148.390, 198.571 134.055, 171.687 84.683 C 167.250 76.534, 162.746 69.399, 161.677 68.827 C 160.233 68.054, 160.503 68.776, 162.730 71.644 M 168.500 104 C 168.139 104.584, 162.397 105.003, 154.691 105.008 C 141.640 105.016, 141.488 105.042, 140.354 107.488 C 139.314 109.729, 139.378 109.868, 141.038 108.980 C 143.909 107.443, 146.937 107.819, 150.154 110.110 L 153.117 112.220 152.809 123.465 C 152.522 133.894, 152.625 134.632, 154.221 133.633 C 155.666 132.728, 155.987 130.627, 156.221 120.528 L 156.500 108.500 162 108.206 C 166.715 107.955, 167.665 107.562, 168.656 105.456 C 169.799 103.028, 169.696 102.065, 168.500 104 M 107.250 151.259 C 104.912 152.433, 103 153.763, 103 154.214 C 103 154.665, 105.250 153.894, 108 152.500 C 110.750 151.106, 113 149.749, 113 149.483 C 113 148.639, 111.614 149.067, 107.250 151.259 M 146.043 169.448 C 145.241 170.414, 145.156 171.457, 145.787 172.585 C 146.568 173.979, 146.813 173.725, 147.193 171.137 C 147.720 167.549, 147.674 167.482, 146.043 169.448 M 17 172.059 C 17 172.641, 17.450 172.840, 18 172.500 C 18.550 172.160, 19 171.684, 19 171.441 C 19 171.198, 18.550 171, 18 171 C 17.450 171, 17 171.477, 17 172.059 M 28 172.059 C 28 172.641, 28.450 172.840, 29 172.500 C 29.550 172.160, 30 171.684, 30 171.441 C 30 171.198, 29.550 171, 29 171 C 28.450 171, 28 171.477, 28 172.059 M 118.137 171.911 C 117.210 172.487, 117.138 172.879, 117.912 173.137 C 118.681 173.394, 119.092 177.975, 119.178 187.258 C 119.287 198.937, 119.538 201, 120.853 201 C 122.056 201, 122.133 200.733, 121.200 199.800 C 119.724 198.324, 119.604 189.363, 121.049 188.470 C 121.752 188.035, 121.767 187.425, 121.097 186.616 C 120.546 185.953, 119.962 182.183, 119.798 178.238 C 119.559 172.481, 119.231 171.232, 118.137 171.911 M 131.777 173.557 C 133 174.413, 134 175.838, 134 176.723 C 134 177.609, 134.279 178.054, 134.620 177.713 C 134.961 177.372, 134.953 175.947, 134.601 174.547 C 134.158 172.782, 133.286 172, 131.758 172 L 129.555 172 131.777 173.557 M 146.305 188.163 C 146.261 194.578, 145.923 200.315, 145.554 200.913 C 144.785 202.157, 145.175 202.254, 147.444 201.383 C 148.559 200.955, 148.748 200.401, 148.060 199.572 C 147.515 198.916, 146.915 193.456, 146.727 187.439 L 146.384 176.500 146.305 188.163 M 186.711 178.767 C 185.609 179.984, 185.396 181.012, 186.035 182.023 C 186.782 183.204, 186.972 183.065, 186.985 181.333 C 186.993 180.142, 187.563 178.966, 188.250 178.720 C 188.938 178.475, 189.235 177.984, 188.911 177.631 C 188.586 177.277, 187.597 177.788, 186.711 178.767 M 38.675 179.658 C 38.313 180.020, 38.420 180.807, 38.913 181.408 C 39.405 182.009, 40.028 183.625, 40.296 185 C 40.568 186.400, 40.745 185.629, 40.696 183.250 C 40.612 179.169, 40.091 178.242, 38.675 179.658 M 50.274 179.831 C 49.598 180.249, 49.446 181.104, 49.914 181.860 C 50.541 182.875, 50.870 182.781, 51.384 181.441 C 52.183 179.359, 51.840 178.863, 50.274 179.831 M 87.648 179.761 C 87.389 180.180, 87.812 181.391, 88.589 182.452 C 89.932 184.290, 90 184.253, 90 181.691 C 90 179.157, 88.687 178.080, 87.648 179.761 M 101.198 181.710 C 103.587 184.254, 104.483 184.096, 103.592 181.290 C 103.267 180.266, 102.113 179.429, 101.028 179.429 C 99.112 179.429, 99.117 179.496, 101.198 181.710 M 170.714 179.654 C 170.419 180.132, 170.812 181.391, 171.589 182.452 C 172.586 183.816, 172.996 183.959, 172.985 182.941 C 172.963 180.925, 171.361 178.607, 170.714 179.654 M 203.143 179.890 C 202.309 180.419, 202.172 180.988, 202.788 181.369 C 203.340 181.710, 204.048 181.316, 204.364 180.494 C 205.026 178.767, 204.964 178.737, 203.143 179.890 M 218.208 179.676 C 217.371 180.012, 217.245 180.600, 217.851 181.347 C 218.364 181.981, 218.974 183.400, 219.206 184.500 C 219.474 185.777, 219.802 185.145, 220.112 182.750 C 220.606 178.940, 220.494 178.759, 218.208 179.676 M 247.625 179.798 C 247.354 180.237, 247.490 181.175, 247.927 181.882 C 248.507 182.821, 248.870 182.604, 249.268 181.085 C 249.794 179.073, 248.634 178.165, 247.625 179.798 M 263.303 179.792 C 262.606 180.235, 262.443 181.099, 262.914 181.861 C 263.513 182.831, 263.864 182.630, 264.268 181.085 C 264.567 179.938, 264.742 179.007, 264.656 179.015 C 264.570 179.024, 263.961 179.373, 263.303 179.792 M 277.648 179.761 C 277.389 180.180, 277.812 181.391, 278.589 182.452 C 279.932 184.290, 280 184.253, 280 181.691 C 280 179.157, 278.687 178.080, 277.648 179.761 M 289 179.927 C 289 180.252, 289.869 181.061, 290.930 181.724 C 291.992 182.387, 293.065 184.183, 293.315 185.715 C 293.565 187.247, 293.709 186.510, 293.635 184.078 C 293.518 180.251, 293.197 179.634, 291.250 179.495 C 290.012 179.407, 289 179.601, 289 179.927 M 304.583 179.866 C 304.288 180.343, 304.937 181.538, 306.024 182.521 C 308.001 184.311, 308.534 183.556, 307.393 180.582 C 306.727 178.846, 305.419 178.513, 304.583 179.866 M 73.500 182 C 74.495 183.100, 75.423 184, 75.561 184 C 75.700 184, 75.577 183.100, 75.290 182 C 75.002 180.900, 74.074 180, 73.228 180 C 71.934 180, 71.978 180.318, 73.500 182 M 231.811 182.039 C 233.015 183.160, 234 184.810, 234 185.706 C 234 186.601, 234.268 187.066, 234.595 186.738 C 234.922 186.411, 234.887 184.761, 234.516 183.072 C 234.023 180.827, 233.273 180, 231.732 180 L 229.623 180 231.811 182.039 M 76.158 188 C 76.158 189.375, 76.385 189.938, 76.662 189.250 C 76.940 188.563, 76.940 187.438, 76.662 186.750 C 76.385 186.063, 76.158 186.625, 76.158 188 M 219.195 189.500 C 219.215 191.150, 219.439 191.704, 219.693 190.731 C 219.947 189.758, 219.930 188.408, 219.656 187.731 C 219.382 187.054, 219.175 187.850, 219.195 189.500 M 40.232 191 C 40.232 192.925, 40.438 193.713, 40.689 192.750 C 40.941 191.787, 40.941 190.213, 40.689 189.250 C 40.438 188.287, 40.232 189.075, 40.232 191 M 59.115 192.101 C 58.977 195.216, 60.863 201, 62.016 201 C 62.467 201, 63.661 201.310, 64.668 201.689 C 65.767 202.102, 65.349 201.378, 63.624 199.882 C 61.834 198.329, 60.461 195.898, 59.989 193.443 C 59.439 190.586, 59.198 190.216, 59.115 192.101 M 159.872 191.750 C 158.603 193.369, 158.650 193.390, 160.500 192.033 C 161.600 191.226, 162.688 190.439, 162.917 190.283 C 163.146 190.127, 162.863 190, 162.289 190 C 161.715 190, 160.627 190.787, 159.872 191.750 M 234.079 191.583 C 234.127 192.748, 234.364 192.985, 234.683 192.188 C 234.972 191.466, 234.936 190.603, 234.604 190.271 C 234.272 189.939, 234.036 190.529, 234.079 191.583 M 39.905 198.099 C 39.503 201.190, 39.691 201.632, 41.239 201.227 C 42.429 200.916, 42.732 200.372, 42.129 199.628 C 41.626 199.008, 41.026 197.600, 40.794 196.500 C 40.518 195.187, 40.213 195.736, 39.905 198.099 M 249.457 198.686 C 250.330 202.162, 250.407 202.238, 252.664 201.831 C 254.275 201.541, 254.148 201.155, 251.626 198.688 L 248.752 195.876 249.457 198.686 M 17.789 199.321 C 17.416 201.275, 17.678 201.635, 19.186 201.241 C 20.728 200.838, 20.833 200.480, 19.804 199.128 C 19.123 198.233, 18.495 197.369, 18.408 197.208 C 18.320 197.047, 18.042 197.998, 17.789 199.321 M 104 199.559 C 104 200.966, 104.408 201.866, 104.906 201.558 C 105.404 201.250, 105.577 200.098, 105.289 198.999 C 104.570 196.247, 104 196.495, 104 199.559 M 203.789 199.321 C 203.416 201.275, 203.678 201.635, 205.186 201.241 C 206.728 200.838, 206.833 200.480, 205.804 199.128 C 205.123 198.233, 204.495 197.369, 204.408 197.208 C 204.320 197.047, 204.042 197.998, 203.789 199.321 M 218.760 199.475 C 218.259 202.096, 218.685 202.488, 220.665 201.228 C 221.539 200.672, 221.507 200.046, 220.536 198.719 C 219.342 197.085, 219.206 197.143, 218.760 199.475 M 234.352 199.308 C 234.445 200.835, 234.976 201.562, 235.776 201.256 C 236.795 200.865, 236.802 200.439, 235.808 199.133 C 235.125 198.235, 234.484 197.358, 234.385 197.185 C 234.285 197.012, 234.270 197.967, 234.352 199.308 M 308.079 199.219 C 308.018 201.304, 308.369 201.796, 309.584 201.329 C 310.455 200.995, 310.747 200.447, 310.234 200.111 C 309.720 199.775, 309.043 198.825, 308.729 198 C 308.393 197.118, 308.125 197.621, 308.079 199.219 M 73.564 199.707 C 73.022 201.132, 73.136 201.247, 74.124 200.267 C 74.808 199.588, 75.115 198.781, 74.807 198.474 C 74.499 198.166, 73.940 198.721, 73.564 199.707 M 88.754 199.834 C 88.360 201.339, 88.670 201.637, 90.211 201.234 C 91.288 200.953, 91.794 200.442, 91.335 200.100 C 90.876 199.757, 90.220 199.127, 89.877 198.699 C 89.534 198.271, 89.029 198.781, 88.754 199.834 M 159 200 C 159 201.381, 159.667 202, 161.155 202 C 163.247 202, 163.257 201.941, 161.500 200 C 160.505 198.900, 159.535 198, 159.345 198 C 159.155 198, 159 198.900, 159 200 M 172.015 198.628 C 172.046 200.348, 173.744 202.223, 174.364 201.220 C 174.702 200.674, 174.308 199.671, 173.489 198.991 C 172.670 198.311, 172.007 198.148, 172.015 198.628 M 187 200.010 C 187 201.333, 187.670 202, 189 202 C 190.100 202, 191 201.875, 191 201.722 C 191 201.569, 190.100 200.674, 189 199.732 C 187.096 198.102, 187 198.115, 187 200.010 M 263 199.441 C 263 201.055, 264.416 202.250, 265.292 201.375 C 266.072 200.595, 264.997 198, 263.893 198 C 263.402 198, 263 198.648, 263 199.441 M 278.730 199.925 C 278.386 201.239, 278.646 201.689, 279.550 201.342 C 280.278 201.063, 280.629 200.197, 280.330 199.417 C 279.609 197.539, 279.331 197.627, 278.730 199.925 M 293.658 200.449 C 293.287 201.416, 293.582 201.714, 294.545 201.344 C 295.339 201.040, 295.740 200.388, 295.435 199.895 C 294.669 198.655, 294.303 198.769, 293.658 200.449" stroke="none" fill="black" fill-rule="evenodd"/>
	<path fill-opacity="0.500" d="M -0 160.003 L -0 320.006 160.250 319.753 L 320.500 319.500 320.753 159.750 L 321.006 -0 160.503 -0 L 0 0 -0 160.003 M 0.488 160.500 C 0.488 248.500, 0.606 284.352, 0.750 240.171 C 0.894 195.990, 0.894 123.990, 0.750 80.171 C 0.606 36.352, 0.488 72.500, 0.488 160.500 M 156.403 58.058 C 156.701 65.588, 158.450 70.191, 161.449 71.342 C 162.180 71.623, 164.699 75.373, 167.047 79.676 C 169.395 83.979, 172.297 89.300, 173.496 91.500 C 191.563 124.653, 204 148.013, 204 148.793 C 204 149.329, 202.762 150.027, 201.250 150.346 C 197.625 151.109, 128.737 150.903, 123.213 150.113 C 112.486 148.579, 121.507 147.901, 151.693 147.973 C 169.673 148.016, 184.118 147.785, 183.793 147.459 C 183.467 147.133, 174.658 146.906, 164.217 146.953 C 144.958 147.040, 140.772 146.455, 139.645 143.517 C 138.515 140.572, 137.911 129.415, 138.758 127.126 C 139.795 124.323, 139.120 118, 137.784 118 C 137.235 118, 137.054 118.698, 137.382 119.552 C 137.723 120.442, 137.555 120.843, 136.989 120.493 C 135.484 119.563, 135.810 117, 137.433 117 C 139.490 117, 140.415 113.212, 138.833 111.260 C 138.024 110.263, 137.965 109.895, 138.681 110.324 C 139.330 110.714, 140.144 110.575, 140.490 110.016 C 141.542 108.314, 148.334 108.928, 150.750 110.944 C 152.809 112.661, 153 113.672, 153 122.851 C 153 128.460, 152.559 133.154, 152 133.500 C 149.892 134.803, 151.122 135.755, 153.492 134.656 C 155.949 133.516, 155.985 133.327, 155.992 121.250 L 156 109 161.839 109 C 167.174 109, 167.782 108.773, 168.877 106.371 C 170.214 103.436, 169.600 102, 167.783 103.817 C 166.996 104.604, 162.338 105, 153.867 105 C 142.013 105, 141.091 105.138, 140.500 107 C 139.532 110.050, 138.054 109.383, 138.290 106.002 C 138.471 103.423, 138.919 102.983, 141.500 102.852 L 144.500 102.700 141.503 102.260 C 137.694 101.700, 136.798 100.237, 138.591 97.502 C 139.370 96.313, 139.737 95.070, 139.406 94.739 C 138.597 93.930, 149.629 72.266, 152.747 68.540 C 155.202 65.607, 155.206 65.571, 153.168 64.662 C 152.036 64.157, 150.298 64.098, 149.305 64.531 C 148.312 64.963, 147.179 65.251, 146.786 65.171 C 146.393 65.090, 146.307 65.637, 146.595 66.387 C 146.952 67.317, 146.311 67.750, 144.577 67.750 C 142.963 67.750, 142.282 67.340, 142.710 66.625 C 143.081 66.006, 142.659 66.087, 141.773 66.805 C 140.888 67.522, 137.921 72.022, 135.181 76.805 C 132.441 81.587, 127.839 89.550, 124.955 94.500 C 115.177 111.281, 113.823 113.996, 115.198 114.063 C 115.914 114.098, 115.417 114.560, 114.094 115.089 C 111.764 116.021, 111.748 116.097, 113.594 117.494 C 114.683 118.318, 114.964 118.950, 114.250 118.968 C 113.563 118.986, 113 119.800, 113 120.777 C 113 121.755, 112.299 123.555, 111.443 124.777 C 110.587 126, 110.227 127, 110.643 127 C 111.059 127, 110.860 127.540, 110.200 128.200 C 109.540 128.860, 109.007 129.873, 109.015 130.450 C 109.024 131.028, 109.411 130.900, 109.876 130.166 C 110.558 129.091, 110.839 129.137, 111.325 130.404 C 111.664 131.288, 111.448 131.872, 110.832 131.738 C 110.229 131.607, 109.104 132.999, 108.332 134.831 C 107.560 136.663, 107.394 137.874, 107.964 137.522 C 109.252 136.726, 109.281 138.006, 108.022 139.999 C 107.337 141.082, 107.688 142.085, 109.287 143.611 L 111.500 145.723 113.161 142.611 L 114.821 139.500 114.661 143.744 C 114.534 147.089, 114.122 147.990, 112.715 147.994 C 111.733 147.997, 109.809 148.734, 108.440 149.631 C 107.070 150.529, 104.532 151.553, 102.800 151.907 C 99.226 152.638, 97.991 154.676, 100.531 155.650 C 101.522 156.030, 104.483 155.161, 107.640 153.562 C 112.312 151.196, 113.478 150.971, 116.175 151.911 C 119.508 153.073, 202.479 153.521, 205.418 152.393 C 206.288 152.059, 206.999 151.047, 206.998 150.143 C 206.997 148.105, 165.530 71.290, 162.877 68.410 C 160.754 66.105, 159 60.919, 159 56.948 C 159 55.537, 158.348 53.509, 157.551 52.441 C 156.250 50.698, 156.133 51.269, 156.403 58.058 M 151.245 54.250 C 150.218 55.534, 148.355 60.899, 149.249 60 C 150.088 59.156, 153.077 53, 152.648 53 C 152.426 53, 151.795 53.563, 151.245 54.250 M 144 61.059 C 144 61.641, 144.450 61.840, 145 61.500 C 145.550 61.160, 146 60.684, 146 60.441 C 146 60.198, 145.550 60, 145 60 C 144.450 60, 144 60.477, 144 61.059 M 142 71 C 142.589 72.100, 143.295 73, 143.570 73 C 143.845 73, 143.589 72.100, 143 71 C 142.411 69.900, 141.705 69, 141.430 69 C 141.155 69, 141.411 69.900, 142 71 M 144 70.059 C 144 70.641, 144.450 70.840, 145 70.500 C 145.550 70.160, 146 69.684, 146 69.441 C 146 69.198, 145.550 69, 145 69 C 144.450 69, 144 69.477, 144 70.059 M 167 87 C 167.589 88.100, 168.295 89, 168.570 89 C 168.845 89, 168.589 88.100, 168 87 C 167.411 85.900, 166.705 85, 166.430 85 C 166.155 85, 166.411 85.900, 167 87 M 173 98 C 173.589 99.100, 174.295 100, 174.570 100 C 174.845 100, 174.589 99.100, 174 98 C 173.411 96.900, 172.705 96, 172.430 96 C 172.155 96, 172.411 96.900, 173 98 M 177.564 106.293 C 177.940 107.279, 178.499 107.834, 178.807 107.526 C 179.115 107.219, 178.808 106.412, 178.124 105.733 C 177.136 104.753, 177.022 104.868, 177.564 106.293 M 180 111 C 180.589 112.100, 181.295 113, 181.570 113 C 181.845 113, 181.589 112.100, 181 111 C 180.411 109.900, 179.705 109, 179.430 109 C 179.155 109, 179.411 109.900, 180 111 M 109.964 120.164 C 108.819 122.397, 108.846 122.424, 110.574 120.774 C 111.568 119.824, 112.107 118.773, 111.771 118.438 C 111.436 118.103, 110.623 118.880, 109.964 120.164 M 136 140 C 136 140.550, 136.450 141, 137 141 C 137.550 141, 138 140.550, 138 140 C 138 139.450, 137.550 139, 137 139 C 136.450 139, 136 139.450, 136 140 M 103.282 143.311 C 100.911 146.792, 99.484 150, 100.308 150 C 100.942 150, 106.147 140.814, 105.742 140.409 C 105.584 140.251, 104.477 141.557, 103.282 143.311 M 197.149 145.626 C 195.489 147.476, 196.142 148.268, 198.967 147.831 C 200.812 147.545, 200.927 147.268, 199.803 145.811 C 198.647 144.311, 198.348 144.291, 197.149 145.626 M 222.500 160 C 222.160 160.550, 222.359 161, 222.941 161 C 223.523 161, 224 160.550, 224 160 C 224 159.450, 223.802 159, 223.559 159 C 223.316 159, 222.840 159.450, 222.500 160 M 144.653 168.867 C 142.976 169.527, 142.953 169.716, 144.403 170.920 C 145.728 172.019, 146 174.658, 146 186.429 L 146 200.614 143.250 201.789 L 140.500 202.965 143.875 202.482 C 145.731 202.217, 148.431 201.986, 149.875 201.970 C 152.344 201.941, 152.381 201.872, 150.500 200.805 C 149.400 200.181, 148.169 199.182, 147.765 198.585 C 146.478 196.684, 146.865 170.535, 148.200 169.200 C 149.594 167.806, 147.781 167.636, 144.653 168.867 M 203.077 170.731 C 201.836 173.455, 201.838 173.457, 203.916 171.576 C 206.066 169.631, 206.633 168, 205.161 168 C 204.699 168, 203.761 169.229, 203.077 170.731 M 7.261 170.875 C 5.852 171.799, 4.765 177, 5.981 177 C 6.541 177, 7 175.927, 7 174.617 C 7 169.854, 16.177 170.584, 17.396 175.443 C 17.754 176.867, 17.991 183.015, 17.925 189.106 L 17.803 200.179 14.651 201.642 L 11.500 203.104 15.500 202.563 C 17.700 202.265, 20.850 201.999, 22.500 201.972 L 25.500 201.922 22.222 200.497 L 18.943 199.073 19.222 185.380 C 19.473 173.013, 19.676 171.662, 21.324 171.422 C 24.575 170.947, 29 173.066, 29 175.098 C 29 176.144, 29.371 177, 29.825 177 C 30.279 177, 30.616 175.537, 30.575 173.750 L 30.500 170.500 19.357 170.375 C 13.229 170.306, 7.786 170.531, 7.261 170.875 M 117.638 170.683 C 114.807 171.149, 114.799 171.171, 116.888 172.634 C 118.858 174.014, 119 175.010, 119 187.473 L 119 200.833 116.250 201.926 C 113.552 202.999, 113.564 203.010, 116.875 202.510 C 118.731 202.229, 121.881 201.939, 123.875 201.864 C 126.252 201.775, 126.717 201.577, 125.225 201.291 C 122.106 200.692, 119.798 196.816, 120.181 192.821 C 120.487 189.638, 120.685 189.492, 124.965 189.304 C 130.919 189.042, 133.718 187.384, 135.058 183.324 C 136.127 180.085, 135.544 172.447, 134.163 171.607 C 132.985 170.890, 120.589 170.197, 117.638 170.683 M 121.250 171.718 C 119.591 172.314, 119.548 185.148, 121.200 186.800 C 123.178 188.778, 129.738 188.262, 132.055 185.945 C 135.004 182.996, 134.421 176.385, 130.988 173.833 C 128.456 171.950, 123.561 170.887, 121.250 171.718 M 187.667 172.667 C 187.300 173.033, 187 174.328, 187 175.544 C 187 176.760, 186.306 178.331, 185.458 179.035 C 184.388 179.923, 184.234 180.634, 184.958 181.358 C 185.531 181.931, 186 186.098, 186 190.618 C 186 201.430, 186.276 202.013, 191.357 201.944 L 195.500 201.887 192.065 200.694 C 187.912 199.251, 187.153 197.014, 187.355 186.819 L 187.500 179.500 190.659 179.802 C 192.396 179.968, 194.076 179.687, 194.391 179.177 C 194.706 178.667, 193.796 178.250, 192.368 178.250 C 189.388 178.250, 188.027 176.614, 188.739 173.889 C 189.246 171.950, 188.843 171.490, 187.667 172.667 M 38.750 178.689 C 36.604 179.250, 36.479 180.586, 38.500 181.362 C 39.685 181.816, 40 183.897, 40 191.276 C 40 200.511, 39.970 200.627, 37.250 201.789 L 34.500 202.965 37.875 202.482 C 39.731 202.217, 42.656 201.982, 44.375 201.961 L 47.500 201.922 44.099 200.446 L 40.698 198.970 41.339 188.485 C 41.692 182.718, 41.648 178.052, 41.240 178.116 C 40.833 178.180, 39.712 178.438, 38.750 178.689 M 48.578 178.968 C 46.421 179.260, 44.483 180.027, 44.271 180.671 C 44.020 181.435, 44.655 181.642, 46.092 181.266 C 47.509 180.895, 48.728 181.275, 49.497 182.327 C 50.566 183.788, 50.823 183.683, 51.885 181.353 C 52.539 179.917, 52.946 178.673, 52.787 178.588 C 52.629 178.504, 50.735 178.675, 48.578 178.968 M 61.932 180.914 C 58.874 183.972, 58.795 184.273, 59.161 191.514 C 59.594 200.090, 60.614 201.608, 66.578 202.554 C 70.009 203.098, 71.107 202.812, 73.503 200.751 C 75.914 198.677, 76.418 197.376, 76.788 192.257 C 77.314 184.988, 75.624 179, 73.047 179 C 72.059 179, 69.862 178.722, 68.165 178.383 C 65.598 177.870, 64.551 178.295, 61.932 180.914 M 87.750 178.757 C 85.800 179.191, 85.529 180.123, 86.938 181.550 C 87.454 182.072, 87.971 186.535, 88.086 191.468 L 88.296 200.436 85.398 201.763 C 82.507 203.088, 82.510 203.090, 86.500 202.556 C 88.700 202.263, 91.132 202.017, 91.905 202.011 C 92.993 202.002, 92.914 201.562, 91.554 200.060 C 90.079 198.430, 89.854 196.602, 90.149 188.643 C 90.342 183.431, 90.275 178.987, 90 178.767 C 89.725 178.548, 88.713 178.543, 87.750 178.757 M 162.400 178.722 C 160.634 179.970, 158.775 184, 159.965 184 C 160.534 184, 161 183.314, 161 182.475 C 161 179.873, 165.676 178.781, 169.143 180.574 C 171.923 182.011, 172.156 182.528, 171.958 186.821 C 171.581 194.989, 171.974 203.001, 172.750 202.985 C 173.162 202.976, 174.175 202.526, 175 201.985 C 176.057 201.291, 176.167 200.779, 175.373 200.250 C 174.718 199.814, 174.070 195.428, 173.828 189.789 C 173.599 184.448, 173.206 179.877, 172.955 179.632 C 172.015 178.713, 163.456 177.975, 162.400 178.722 M 202.750 178.689 C 200.648 179.239, 200.606 179.895, 202.513 182.415 C 203.519 183.744, 203.943 186.840, 203.901 192.543 L 203.841 200.756 200.670 201.863 L 197.500 202.970 200.875 202.485 C 202.731 202.218, 205.656 201.982, 207.375 201.960 L 210.500 201.920 207.661 200.382 L 204.822 198.843 205.161 188.420 C 205.348 182.688, 205.275 178.050, 205 178.115 C 204.725 178.179, 203.713 178.438, 202.750 178.689 M 217.750 178.689 C 215.612 179.248, 215.572 179.715, 217.500 181.643 C 218.607 182.749, 219 185.456, 219 191.963 C 219 200.643, 218.958 200.794, 216.382 201.440 C 212.226 202.483, 214.210 203.070, 219.460 202.350 C 224.237 201.696, 224.242 201.691, 221.971 199.978 C 219.793 198.335, 219.719 197.823, 220.253 188.131 C 220.560 182.559, 220.516 178.052, 220.156 178.116 C 219.795 178.180, 218.713 178.438, 217.750 178.689 M 247.117 178.867 C 244.960 179.472, 244.889 179.663, 246.367 180.890 C 247.583 181.898, 248 183.971, 248 188.997 C 248 192.711, 248.281 197.156, 248.625 198.875 C 249.231 201.905, 249.412 202, 254.566 202 C 257.490 202, 260.178 201.521, 260.539 200.936 C 260.979 200.226, 260.085 200.065, 257.848 200.452 C 255.470 200.864, 253.872 200.520, 252.334 199.266 C 250.479 197.753, 250.122 196.281, 249.844 189 C 249.665 184.325, 249.879 179.938, 250.319 179.250 C 251.184 177.897, 250.760 177.846, 247.117 178.867 M 262.750 178.689 C 260.787 179.202, 260.460 180.548, 262.058 181.536 C 262.687 181.925, 263.066 185.702, 262.992 190.845 C 262.811 203.484, 262.655 202.789, 265.542 202.237 C 267.830 201.799, 267.936 201.586, 266.598 200.108 C 265.023 198.368, 264.074 181.307, 265.430 179.113 C 266.139 177.966, 265.752 177.905, 262.750 178.689 M 277.750 178.757 C 275.800 179.191, 275.529 180.123, 276.938 181.550 C 277.454 182.072, 277.971 186.535, 278.086 191.468 L 278.296 200.436 275.398 201.763 C 272.507 203.088, 272.510 203.090, 276.500 202.556 C 278.700 202.263, 281.132 202.017, 281.905 202.011 C 282.993 202.002, 282.914 201.562, 281.554 200.060 C 280.079 198.430, 279.854 196.602, 280.149 188.643 C 280.342 183.431, 280.275 178.987, 280 178.767 C 279.725 178.548, 278.712 178.543, 277.750 178.757 M 65.352 180.066 C 61.993 181.308, 59.999 185.011, 60.015 189.973 C 60.034 195.797, 61.731 199.046, 65.573 200.610 C 73.241 203.732, 78.619 194.203, 74.608 184.603 C 73.050 180.875, 68.798 178.791, 65.352 180.066 M 93.434 180.107 C 92.966 180.865, 93.657 181.025, 95.625 180.615 C 97.636 180.196, 99.251 180.598, 101 181.950 C 103.351 183.769, 103.500 184.442, 103.500 193.255 C 103.500 202.483, 103.535 202.618, 105.792 202.188 C 107.884 201.789, 107.949 201.602, 106.542 200.047 C 105.483 198.876, 105 196.291, 105 191.796 C 105 188.196, 104.719 183.844, 104.375 182.125 C 103.779 179.144, 103.528 179, 98.934 179 C 96.285 179, 93.810 179.498, 93.434 180.107 M 223.434 180.107 C 222.959 180.876, 223.696 181.006, 225.847 180.534 C 228.380 179.977, 229.422 180.331, 231.570 182.479 C 234.076 184.986, 234.179 185.508, 233.848 194.041 C 233.515 202.591, 233.587 202.951, 235.500 202.364 C 238.346 201.492, 238.427 201.284, 236.619 199.476 C 235.431 198.288, 234.996 195.947, 234.986 190.679 C 234.965 179.608, 234.651 179, 228.942 179 C 226.289 179, 223.810 179.498, 223.434 180.107 M 283.410 180.146 C 282.915 180.946, 283.464 181.100, 285.230 180.657 C 287.001 180.213, 288.564 180.656, 290.445 182.135 C 293.067 184.198, 293.124 184.473, 292.816 193.638 C 292.563 201.140, 292.768 202.924, 293.832 202.514 C 294.564 202.231, 295.914 201.986, 296.832 201.968 C 298.251 201.941, 298.202 201.711, 296.504 200.428 C 294.761 199.111, 294.509 197.749, 294.516 189.710 C 294.521 184.633, 294.071 180.170, 293.513 179.765 C 291.900 178.595, 284.189 178.885, 283.410 180.146 M 296.872 180.687 C 295.651 182.188, 295.720 182.286, 297.500 181.574 C 301.505 179.971, 302.545 180.021, 305 181.935 C 307.350 183.768, 307.500 184.446, 307.500 193.255 C 307.500 202.483, 307.535 202.618, 309.792 202.188 C 311.884 201.789, 311.949 201.602, 310.542 200.047 C 309.483 198.876, 309 196.291, 309 191.796 C 309 188.196, 308.719 183.844, 308.375 182.125 C 307.780 179.151, 307.520 179, 302.997 179 C 299.748 179, 297.811 179.533, 296.872 180.687 M 160.455 191.455 C 157.953 193.957, 157.558 195.750, 158.630 199.750 C 159.133 201.627, 159.919 201.997, 163.367 201.985 C 165.640 201.976, 168.175 201.493, 169 200.910 C 170.125 200.115, 169.611 199.996, 166.947 200.433 C 164.208 200.883, 162.892 200.548, 161.197 198.969 C 159.989 197.843, 159 196.539, 159 196.072 C 159 194.063, 162.816 190.777, 166.024 190.022 L 169.500 189.205 166.205 189.102 C 163.945 189.032, 162.138 189.772, 160.455 191.455" stroke="none" fill="black" fill-rule="evenodd"/>
	<path fill-opacity="0.200" d="M -0 160.003 L -0 320.006 160.250 319.753 L 320.500 319.500 320.753 159.750 L 321.006 -0 160.503 -0 L 0 0 -0 160.003 M 0.488 160.500 C 0.488 248.500, 0.606 284.352, 0.750 240.171 C 0.894 195.990, 0.894 123.990, 0.750 80.171 C 0.606 36.352, 0.488 72.500, 0.488 160.500 M 154.242 43.250 C 153.690 43.938, 148.982 51.925, 143.779 61 C 134.811 76.644, 127.990 88.462, 104.535 129 C 98.966 138.625, 93.767 147.625, 92.982 149 C 92.197 150.375, 90.477 153.175, 89.160 155.223 C 84.520 162.437, 80.216 162, 155.969 162 C 216.389 162, 224 161.829, 224 160.469 C 224 159.627, 219.653 151.414, 214.340 142.219 C 209.027 133.024, 203.372 123.146, 201.775 120.269 C 200.177 117.392, 198.421 114.760, 197.871 114.420 C 196.927 113.837, 198.279 116.448, 206.973 132 C 208.972 135.575, 211.705 140.750, 213.048 143.500 C 214.390 146.250, 216.054 149.095, 216.744 149.821 C 217.435 150.548, 218 152.011, 218 153.071 C 218 154.132, 218.424 155, 218.943 155 C 220.256 155, 219.324 159.163, 217.773 160.223 C 217.071 160.704, 196.787 160.867, 172.500 160.588 C 148.300 160.310, 122.707 160.085, 115.626 160.087 C 104.790 160.090, 102.839 159.861, 103.308 158.641 C 103.714 157.581, 103.204 157.263, 101.408 157.461 C 100.057 157.609, 98.780 157.453, 98.571 157.115 C 98.361 156.777, 123.460 156.522, 154.345 156.549 L 210.500 156.599 158.596 156.049 C 114.748 155.585, 106.945 155.290, 108.324 154.146 C 109.222 153.401, 110.979 152.838, 112.228 152.895 C 120.959 153.293, 206.381 152.883, 207.099 152.439 C 208.936 151.304, 207.822 148.353, 200.362 134.591 C 196.161 126.841, 188.569 112.850, 183.491 103.500 C 178.414 94.150, 172.331 82.900, 169.975 78.500 C 167.619 74.100, 164.663 68.925, 163.407 67 C 162.150 65.075, 160.842 62.150, 160.500 60.500 C 159.970 57.944, 160.337 58.239, 162.986 62.500 C 166.169 67.619, 180.938 94.671, 192.740 117 C 196.373 123.875, 200.309 131.075, 201.486 133 C 202.663 134.925, 205.337 139.875, 207.428 144 C 211.423 151.881, 213 154.214, 213 152.244 C 213 151.608, 211.731 148.931, 210.180 146.294 C 207.205 141.237, 191.966 113.378, 182.943 96.500 C 180.003 91, 176.594 84.700, 175.369 82.500 C 174.143 80.300, 171.701 75.800, 169.941 72.500 C 165.643 64.437, 162.027 58.200, 159.293 54.131 C 158.047 52.279, 157.296 50.330, 157.624 49.800 C 157.951 49.269, 157.292 48.986, 156.155 49.169 C 155.020 49.351, 154.070 49.163, 154.045 48.750 C 153.862 45.715, 154.127 44.960, 155.155 45.595 C 155.870 46.038, 156.038 45.870, 155.595 45.155 C 155.203 44.520, 155.290 44, 155.789 44 C 156.288 44, 157.509 45.803, 158.503 48.006 C 159.496 50.209, 160.995 52.571, 161.833 53.256 C 162.672 53.940, 161.864 51.688, 160.039 48.250 C 156.588 41.748, 155.914 41.167, 154.242 43.250 M 151.710 56.914 C 149.579 60.521, 149.563 61.618, 151.627 62.410 C 154.156 63.381, 156.229 61.056, 155.494 58.074 C 154.505 54.067, 153.562 53.778, 151.710 56.914 M 154.171 68.097 C 152.321 71.060, 153.142 71.283, 155.297 68.402 C 156.285 67.081, 156.731 66, 156.287 66 C 155.844 66, 154.892 66.944, 154.171 68.097 M 155.925 69.624 C 154.654 71.185, 154.695 71.301, 156.302 70.699 C 157.388 70.291, 157.860 70.417, 157.491 71.015 C 157.154 71.561, 155.612 71.784, 154.065 71.512 C 151.469 71.054, 151.207 71.304, 150.655 74.758 C 150.326 76.816, 150.309 79.466, 150.618 80.648 C 150.927 81.829, 150.653 83.780, 150.009 84.983 C 148.684 87.459, 149.606 89.237, 151.039 86.971 C 152.381 84.848, 152.299 91.083, 150.938 94.664 C 150.188 96.636, 150.188 97.563, 150.938 97.813 C 151.522 98.007, 152 99.029, 152 100.083 C 152 101.589, 152.715 102, 155.337 102 L 158.673 102 158.524 96.250 C 158.441 93.088, 158.795 89.938, 159.309 89.250 C 159.955 88.387, 159.770 88, 158.711 88 C 156.771 88, 157.058 85.799, 159.288 83.569 C 161.397 81.460, 161.465 80.116, 159.500 79.362 C 158.675 79.045, 158 78.336, 158 77.786 C 158 77.236, 158.698 77.054, 159.552 77.382 C 160.406 77.709, 160.879 77.613, 160.604 77.168 C 160.329 76.724, 159.889 75.174, 159.626 73.724 C 159.363 72.274, 158.744 70.364, 158.249 69.481 C 157.433 68.022, 157.218 68.035, 155.925 69.624 M 162.576 75.324 C 163.175 76.896, 170.206 90.039, 182.466 112.500 C 192.125 130.197, 201 146.922, 201 147.426 C 201 147.742, 186.488 148.007, 168.750 148.015 C 149.656 148.024, 135.888 148.426, 135 149 C 134.015 149.636, 145.102 149.975, 167.281 149.985 C 197.276 149.998, 201.131 149.821, 201.674 148.407 C 202.211 147.007, 199.113 140.362, 191.696 127 C 190.627 125.075, 183.909 112.700, 176.767 99.500 C 164.864 77.501, 160.710 70.424, 162.576 75.324 M 176 77.443 C 176 78.429, 180.278 85.055, 180.665 84.669 C 180.894 84.440, 180.119 82.620, 178.942 80.626 C 176.999 77.333, 176 76.252, 176 77.443 M 155 91 C 155 91.550, 155.450 92, 156 92 C 156.550 92, 157 91.550, 157 91 C 157 90.450, 156.550 90, 156 90 C 155.450 90, 155 90.450, 155 91 M 184 91.878 C 184 92.360, 184.749 93.373, 185.664 94.128 C 187.172 95.372, 187.216 95.290, 186.129 93.250 C 184.889 90.923, 184 90.350, 184 91.878 M 191.097 103.750 C 194.870 110.438, 197 113.708, 197 112.810 C 197 111.852, 188.900 98, 188.340 98 C 188.072 98, 189.313 100.588, 191.097 103.750 M 139.100 106.250 C 139.192 109.247, 139.253 109.306, 139.893 107 C 140.580 104.521, 140.703 104.495, 154.543 103.957 L 168.500 103.414 153.750 103.207 L 139 103 139.100 106.250 M 170.250 104.541 C 169.563 105.297, 169 106.610, 169 107.458 C 169 108.676, 167.740 109, 163 109 L 157 109 156.882 120.250 C 156.816 126.438, 156.809 131.816, 156.866 132.203 C 156.922 132.589, 155.626 133.699, 153.984 134.668 C 152.343 135.638, 151 136.784, 151 137.216 C 151 138.489, 153.782 138.110, 154.417 136.750 C 154.883 135.750, 155.117 135.750, 155.583 136.750 C 155.904 137.438, 157.254 138, 158.583 138 C 160.957 138, 161.002 137.837, 161.101 128.750 C 161.157 123.662, 161.123 118.037, 161.025 116.250 L 160.847 113 166.923 113 C 173.316 113, 173.310 113.005, 173.187 107.610 C 173.105 104.011, 171.888 102.740, 170.250 104.541 M 141 110.455 C 141 112.053, 146.999 113.598, 149.492 112.641 C 150.780 112.147, 151 113.686, 151 123.198 C 151 129.322, 151.283 134.050, 151.629 133.704 C 151.976 133.358, 152.179 128.445, 152.083 122.787 C 151.923 113.486, 151.695 112.334, 149.703 110.772 C 146.943 108.608, 141 108.391, 141 110.455 M 158 111.059 C 158 111.641, 158.450 111.840, 159 111.500 C 159.550 111.160, 160 110.684, 160 110.441 C 160 110.198, 159.550 110, 159 110 C 158.450 110, 158 110.477, 158 111.059 M 183.207 124.193 C 182.543 124.857, 182.007 126.098, 182.015 126.950 C 182.029 128.319, 182.155 128.325, 183.096 127 C 183.917 125.845, 184.024 126.132, 183.562 128.250 C 182.804 131.722, 183.734 131.830, 185.030 128.421 C 186.244 125.228, 185.017 122.383, 183.207 124.193 M 185.182 130.500 C 184.555 131.875, 183.583 133, 183.021 133 C 182.460 133, 182 133.470, 182 134.044 C 182 134.618, 182.645 134.955, 183.434 134.794 C 184.919 134.490, 185 134.656, 185 138 C 185 139.385, 184.333 140, 182.833 140 C 180.348 140, 180.913 140.999, 183.658 141.458 C 184.671 141.627, 185.387 142.268, 185.250 142.883 C 185.113 143.497, 185.450 144, 186 144 C 186.550 144, 187 143.523, 187 142.941 C 187 142.359, 187.457 142.165, 188.016 142.510 C 188.575 142.856, 188.774 143.557, 188.457 144.069 C 188.141 144.581, 189.484 145, 191.441 145 C 195.031 145, 196.377 142.969, 193.830 141.395 C 193.045 140.910, 192.869 141.215, 193.293 142.321 C 193.835 143.734, 193.646 143.796, 191.976 142.753 C 190.054 141.553, 190.056 141.523, 192.077 140.776 C 194.329 139.943, 193.803 138, 191.324 138 C 190.245 138, 189.932 137.369, 190.304 135.945 C 190.699 134.435, 190.221 133.654, 188.500 133 C 186.779 132.346, 186.301 131.565, 186.696 130.055 C 187.438 127.218, 186.560 127.477, 185.182 130.500 M 179.079 137.583 C 179.127 138.748, 179.364 138.985, 179.683 138.188 C 179.972 137.466, 179.936 136.603, 179.604 136.271 C 179.272 135.939, 179.036 136.529, 179.079 137.583 M 150.917 139.417 C 150.339 139.995, 150.540 144.216, 151.164 144.601 C 151.624 144.886, 152.036 144.304, 152.079 143.309 C 152.125 142.260, 152.370 142.025, 152.662 142.750 C 153.261 144.234, 156 144.439, 156 143 C 156 142.450, 155.550 142, 155 142 C 154.450 142, 154 141.400, 154 140.667 C 154 139.679, 151.619 138.714, 150.917 139.417 M 148.079 141.583 C 148.127 142.748, 148.364 142.985, 148.683 142.188 C 148.972 141.466, 148.936 140.603, 148.604 140.271 C 148.272 139.939, 148.036 140.529, 148.079 141.583 M 158 142.500 C 158 143.367, 158.595 143.709, 159.500 143.362 C 160.325 143.045, 161 142.657, 161 142.500 C 161 142.343, 160.325 141.955, 159.500 141.638 C 158.595 141.291, 158 141.633, 158 142.500 M 103.438 146.121 C 101.507 149.853, 102.606 151.380, 106.002 149.686 C 109.168 148.108, 109.602 145.846, 107.046 144.256 C 105.267 143.149, 104.868 143.355, 103.438 146.121 M 130.500 149 C 130.840 149.550, 131.316 150, 131.559 150 C 131.802 150, 132 149.550, 132 149 C 132 148.450, 131.523 148, 130.941 148 C 130.359 148, 130.160 148.450, 130.500 149 M 140 169.167 C 140 169.625, 140.643 170, 141.429 170 C 142.214 170, 143.564 170.707, 144.429 171.571 C 145.707 172.850, 146 175.742, 146 187.071 L 146 201 143.559 201 C 142.216 201, 140.851 201.432, 140.525 201.959 C 140.165 202.542, 142.497 202.837, 146.463 202.709 C 153.493 202.484, 154.377 201.948, 150.577 200.217 C 148.201 199.135, 148.146 198.827, 147.814 184.806 C 147.627 176.938, 147.810 170.012, 148.221 169.417 C 148.723 168.689, 147.497 168.333, 144.484 168.333 C 142.018 168.333, 140 168.708, 140 169.167 M 202.954 170.086 C 201.472 172.855, 202.628 173.873, 204.479 171.427 C 206.190 169.165, 206.379 168, 205.035 168 C 204.505 168, 203.568 168.939, 202.954 170.086 M 29.593 169.740 C 29.216 170.117, 23.985 170.346, 17.970 170.249 C 8.147 170.089, 6.929 170.265, 6.016 171.970 C 4.743 174.349, 4.693 178, 5.934 178 C 6.447 178, 7.010 176.762, 7.184 175.250 C 7.461 172.843, 7.984 172.460, 11.382 172.182 C 13.517 172.007, 15.631 172.232, 16.080 172.682 C 16.530 173.132, 16.973 179.575, 17.065 187 C 17.232 200.491, 17.231 200.500, 14.866 200.835 C 13.565 201.019, 12.068 201.586, 11.540 202.095 C 10.949 202.664, 13.363 202.879, 17.812 202.654 C 21.790 202.453, 25.335 201.999, 25.689 201.644 C 26.043 201.290, 25.428 201, 24.322 201 C 19.913 201, 19 198.225, 19 184.833 L 19 172.324 22.676 172.186 C 26.841 172.029, 29 173.373, 29 176.122 C 29 177.155, 29.506 178, 30.125 178 C 30.829 178, 31.036 176.932, 30.679 175.146 C 30.365 173.576, 30.573 171.827, 31.141 171.259 C 31.778 170.622, 31.810 170.001, 31.227 169.640 C 30.705 169.318, 29.970 169.363, 29.593 169.740 M 116 170.938 C 114.075 171.377, 113.218 171.796, 114.095 171.868 C 114.972 171.941, 116.435 172.823, 117.345 173.829 C 118.702 175.328, 119 177.941, 119 188.329 L 119 201 116.559 201 C 115.216 201, 113.870 201.401, 113.567 201.891 C 113.261 202.386, 116.348 202.732, 120.508 202.668 C 124.629 202.606, 128 202.298, 128 201.984 C 128 201.670, 126.537 200.983, 124.750 200.457 C 121.677 199.552, 121.484 199.214, 121.198 194.250 C 121.019 191.148, 121.313 189, 121.916 189 C 122.478 189, 122.684 189.787, 122.374 190.750 C 122.032 191.815, 122.142 192.071, 122.656 191.405 C 123.377 190.469, 128.673 189.074, 132.694 188.760 C 133.351 188.709, 133.841 188.404, 133.783 188.083 C 133.725 187.762, 134.200 186.233, 134.839 184.685 C 136.371 180.972, 136.318 174.817, 134.735 172.653 C 133.271 170.650, 121.845 169.604, 116 170.938 M 120.842 178.900 C 121.236 186.500, 122.114 188, 126.168 188 C 131.579 188, 135.428 181.885, 133.379 176.545 C 132.482 174.208, 127.738 172.034, 123.851 172.177 L 120.500 172.300 120.842 178.900 M 186.813 175.250 C 186.552 177.958, 186.041 178.553, 183.750 178.816 C 180.436 179.198, 180.111 180.735, 183.250 181.180 C 185.383 181.483, 185.526 182.048, 186 192 L 186.500 202.500 190.700 202.736 C 193.009 202.866, 195.173 202.528, 195.509 201.986 C 195.844 201.444, 195.079 200.986, 193.809 200.968 C 189.112 200.903, 188.176 199.061, 187.826 189.193 L 187.500 179.995 191.250 179.998 C 193.313 179.999, 195 179.550, 195 179 C 195 178.450, 193.650 178, 192 178 C 189.333 178, 189 177.667, 189 175 C 189 170.959, 187.207 171.164, 186.813 175.250 M 37.705 178.721 L 34.910 179.142 37.205 180.946 C 39.312 182.603, 39.489 183.477, 39.362 191.625 C 39.235 199.838, 39.067 200.524, 37.112 200.820 C 32.430 201.528, 35.412 202.762, 41.500 202.636 C 45.075 202.561, 48 202.162, 48 201.750 C 48 201.338, 47.170 201, 46.155 201 C 41.731 201, 39.621 193.147, 41.877 185.074 C 42.770 181.878, 47.859 179.997, 49.188 182.371 C 50.269 184.304, 51.647 184.510, 51.714 182.750 C 51.740 182.063, 52.074 180.751, 52.455 179.835 C 53.058 178.387, 52.587 178.244, 48.824 178.735 C 46.446 179.046, 44.350 179.682, 44.167 180.150 C 43.607 181.578, 42 181.096, 42 179.500 C 42 178.675, 41.663 178.067, 41.250 178.150 C 40.837 178.232, 39.242 178.489, 37.705 178.721 M 61.539 180.553 C 58.478 183.855, 57.487 190.999, 59.258 197 C 60.478 201.135, 60.921 201.571, 64.720 202.377 C 70.255 203.550, 73.671 202.542, 75.364 199.236 C 79.006 192.118, 77.617 180.160, 73 178.888 C 67.605 177.402, 63.970 177.930, 61.539 180.553 M 86.500 178.910 C 83.517 179.579, 83.513 179.590, 85.750 180.827 C 87.837 181.980, 88 182.755, 88 191.535 C 88 200.237, 87.844 201, 86.059 201 C 84.991 201, 83.852 201.430, 83.528 201.955 C 83.173 202.529, 85.339 202.828, 88.960 202.705 C 92.272 202.592, 94.986 202.239, 94.991 201.919 C 94.996 201.599, 93.875 200.736, 92.500 200 C 90.159 198.747, 90 198.162, 90 190.806 C 90 183.294, 90.112 182.908, 92.565 181.975 C 100.222 179.064, 102.785 181.658, 103.074 192.613 C 103.192 197.074, 102.925 201.313, 102.480 202.032 C 101.890 202.987, 102.143 203.159, 103.418 202.670 C 104.378 202.301, 106.312 202, 107.717 202 L 110.270 202 107.635 199.927 C 105.175 197.992, 104.999 197.312, 104.985 189.677 C 104.976 185.180, 104.555 180.845, 104.049 180.045 C 102.990 178.370, 94.328 178.492, 92.250 180.211 C 91.339 180.965, 91 180.805, 91 179.622 C 91 178.730, 90.662 178.053, 90.250 178.118 C 89.838 178.183, 88.150 178.540, 86.500 178.910 M 160.578 180.192 C 159.710 181.431, 159 183.020, 159 183.723 C 159 185.793, 160.719 185.182, 161.316 182.899 C 161.666 181.563, 162.310 181.073, 163.087 181.554 C 163.868 182.037, 164.052 181.893, 163.595 181.155 C 162.520 179.414, 167.148 179.715, 169.777 181.557 C 171.342 182.653, 172 184.132, 172 186.557 C 172 188.451, 171.564 190, 171.031 190 C 170.499 190, 170.200 189.438, 170.367 188.750 C 170.535 188.063, 170.483 187.838, 170.253 188.250 C 170.022 188.662, 168.071 189, 165.917 189 C 160.223 189, 157.808 191.754, 158.197 197.803 L 158.500 202.500 163.394 202.306 C 166.086 202.199, 168.756 201.644, 169.327 201.073 C 170.933 199.467, 169.554 198.839, 166.760 199.901 C 163.461 201.155, 160 198.843, 160 195.384 C 160 193.930, 160.429 193.147, 161.025 193.515 C 161.588 193.864, 161.926 193.553, 161.775 192.824 C 161.576 191.865, 162.879 191.500, 166.500 191.500 L 171.500 191.500 171.548 196.715 C 171.604 202.794, 171.937 203.329, 174.969 202.207 C 176.992 201.459, 177.069 201.212, 175.707 199.850 C 174.604 198.747, 174.091 195.597, 173.843 188.414 L 173.500 178.500 167.828 178.219 C 162.903 177.975, 161.949 178.235, 160.578 180.192 M 200.529 180.500 C 202.710 182.314, 202.951 183.335, 203.121 191.500 L 203.309 200.500 200.654 200.816 C 195.266 201.459, 198.212 202.909, 204.497 202.708 C 208.070 202.594, 210.995 202.162, 210.997 201.750 C 210.999 201.338, 210.395 201, 209.655 201 C 206.313 201, 205 197.522, 205 188.671 C 205 183.557, 205.410 180, 206 180 C 206.550 180, 207 179.607, 207 179.126 C 207 178.645, 205.003 178.307, 202.562 178.376 L 198.125 178.500 200.529 180.500 M 216.724 178.719 C 214.001 179.130, 213.986 179.170, 215.922 180.819 C 217.570 182.223, 217.939 183.981, 218.165 191.493 C 218.413 199.760, 218.276 200.514, 216.467 200.840 C 213.354 201.401, 212.260 203.010, 215.050 202.926 C 218.425 202.824, 226.875 201.280, 224.905 201.125 C 224.028 201.056, 222.504 200.110, 221.519 199.021 C 220.035 197.381, 219.815 195.834, 220.233 189.985 C 220.511 186.104, 220.926 182.740, 221.157 182.510 C 221.387 182.280, 223.358 181.815, 225.538 181.476 C 231.890 180.489, 233.225 182.166, 233.785 191.844 C 234.092 197.158, 233.858 200.466, 233.109 201.368 C 232.160 202.512, 232.741 202.729, 236.480 202.625 L 240.998 202.500 238.499 200.667 C 236.364 199.100, 235.989 198.009, 235.926 193.167 C 235.885 190.050, 235.546 185.475, 235.173 183 L 234.495 178.500 229.497 178.851 C 226.749 179.045, 223.943 179.658, 223.262 180.214 C 222.385 180.930, 221.843 180.755, 221.405 179.613 C 221.064 178.726, 220.497 178.067, 220.143 178.150 C 219.789 178.232, 218.251 178.488, 216.724 178.719 M 246.083 178.882 L 242.666 179.500 245.333 180.919 C 247.872 182.270, 248 182.712, 248 190.104 C 248 200.939, 248.830 202.746, 253.665 202.446 C 255.774 202.316, 258.288 202.162, 259.250 202.104 C 260.212 202.047, 261 201.277, 261 200.393 C 261 199.361, 260.463 199.003, 259.500 199.393 C 258.675 199.727, 257.407 200.242, 256.682 200.537 C 255.957 200.833, 254.116 200.092, 252.590 198.892 C 249.860 196.745, 249.822 196.565, 250.158 187.355 C 250.346 182.209, 250.275 178.058, 250 178.131 C 249.725 178.204, 247.962 178.542, 246.083 178.882 M 261.038 178.882 L 257.576 179.500 260.369 180.765 C 263.154 182.027, 263.161 182.057, 262.987 191.265 C 262.891 196.344, 262.854 200.984, 262.906 201.575 C 263.001 202.660, 269.992 202.999, 269.997 201.919 C 269.999 201.599, 268.837 200.715, 267.415 199.955 C 264.855 198.585, 264.834 198.471, 265.165 188.284 C 265.349 182.627, 265.275 178.057, 265 178.131 C 264.725 178.204, 262.942 178.542, 261.038 178.882 M 276.038 178.882 L 272.576 179.500 275.288 180.729 C 277.961 181.940, 278 182.092, 278 191.479 C 278 200.237, 277.844 201, 276.059 201 C 274.991 201, 273.797 201.520, 273.404 202.156 C 272.886 202.994, 273.765 203.134, 276.595 202.667 C 278.743 202.312, 281.625 202.005, 283 201.984 L 285.500 201.947 282.750 200.242 C 280.131 198.618, 280 198.165, 280 190.744 C 280 183.298, 280.114 182.907, 282.565 181.975 C 290.627 178.910, 293.361 182.236, 292.853 194.493 C 292.572 201.289, 292.771 202.919, 293.832 202.511 C 294.564 202.230, 296.364 201.993, 297.832 201.985 L 300.500 201.971 298 200.708 C 295.635 199.515, 295.484 198.937, 295.210 190.027 C 295.050 184.847, 294.479 180.078, 293.941 179.429 C 292.817 178.075, 284.233 178.680, 282.250 180.253 C 281.356 180.962, 281 180.783, 281 179.622 C 281 178.730, 280.663 178.059, 280.250 178.132 C 279.837 178.204, 277.942 178.542, 276.038 178.882 M 303.500 178.741 C 297.945 179.310, 296 180.030, 296 181.519 C 296 183.202, 297.571 183.504, 298.500 182 C 299.491 180.396, 303.553 180.847, 305.258 182.750 C 307.032 184.731, 308.025 199.533, 306.543 201.930 C 305.881 203.002, 306.091 203.179, 307.418 202.670 C 308.378 202.301, 310.312 202, 311.717 202 L 314.270 202 311.735 200.006 C 309.417 198.183, 309.169 197.244, 308.850 189.055 C 308.657 184.128, 308.050 179.723, 307.500 179.266 C 306.950 178.808, 305.150 178.572, 303.500 178.741 M 63.882 180.750 C 63.816 181.162, 63.816 181.838, 63.882 182.250 C 63.947 182.662, 63.489 182.887, 62.863 182.750 C 61.163 182.376, 59.862 187.929, 60.528 192.722 C 61.211 197.639, 64.696 201, 69.112 201 C 73.162 201, 75.286 197.311, 75.286 190.279 C 75.286 185.396, 74.925 184.332, 72.587 182.321 C 70.056 180.144, 64.146 179.078, 63.882 180.750" stroke="none" fill="black" fill-rule="evenodd"/>
	<path fill-opacity="0.972" d="M -0 160.003 L -0 320.006 160.250 319.753 L 320.500 319.500 320.753 159.750 L 321.006 -0 160.503 -0 L 0 0 -0 160.003 M 0.488 160.500 C 0.488 248.500, 0.606 284.352, 0.750 240.171 C 0.894 195.990, 0.894 123.990, 0.750 80.171 C 0.606 36.352, 0.488 72.500, 0.488 160.500 M 145.015 58.212 C 139.874 67.170, 131.887 81.145, 127.267 89.268 C 122.151 98.260, 118.441 103.772, 117.778 103.363 C 117.123 102.958, 116.979 103.156, 117.416 103.863 C 117.831 104.536, 112.644 114.510, 105.244 127.268 C 86.863 158.956, 85.955 160.622, 86.681 161.347 C 87.760 162.427, 223.808 162.120, 224.477 161.037 C 224.805 160.507, 218.245 148.244, 209.900 133.787 C 201.555 119.329, 189.659 98.725, 183.466 88 C 177.272 77.275, 168.828 62.650, 164.701 55.500 C 160.574 48.350, 156.559 42.370, 155.780 42.212 C 154.872 42.027, 151.008 47.770, 145.015 58.212 M 151.607 57.582 C 150.801 59.682, 150.796 59.667, 152.363 59.667 C 153.192 59.667, 153.538 58.949, 153.246 57.833 C 152.660 55.590, 152.387 55.548, 151.607 57.582 M 163 64.941 C 163 65.459, 163.445 66.157, 163.989 66.493 C 164.555 66.843, 164.723 66.442, 164.382 65.552 C 163.717 63.820, 163 63.503, 163 64.941 M 139.158 106 C 139.158 107.375, 139.385 107.938, 139.662 107.250 C 139.940 106.563, 139.940 105.438, 139.662 104.750 C 139.385 104.063, 139.158 104.625, 139.158 106 M 169 106.950 C 169 108.623, 168.182 108.943, 163.250 109.200 L 157.500 109.500 157.220 121.682 C 156.977 132.218, 156.707 133.926, 155.220 134.316 C 153.962 134.647, 154.105 134.799, 155.750 134.884 C 157.970 134.998, 158 134.831, 158 122.500 L 158 110 164 110 C 169.733 110, 170 109.889, 170 107.500 C 170 106.125, 169.775 105, 169.500 105 C 169.225 105, 169 105.878, 169 106.950 M 144.750 109.662 C 145.438 109.940, 146.563 109.940, 147.250 109.662 C 147.938 109.385, 147.375 109.158, 146 109.158 C 144.625 109.158, 144.063 109.385, 144.750 109.662 M 151.195 115.500 C 151.215 117.150, 151.439 117.704, 151.693 116.731 C 151.947 115.758, 151.930 114.408, 151.656 113.731 C 151.382 113.054, 151.175 113.850, 151.195 115.500 M 151.336 126 C 151.336 130.125, 151.513 131.813, 151.728 129.750 C 151.944 127.688, 151.944 124.313, 151.728 122.250 C 151.513 120.188, 151.336 121.875, 151.336 126 M 159.286 123.500 C 159.294 126.250, 159.488 127.256, 159.718 125.736 C 159.947 124.216, 159.941 121.966, 159.704 120.736 C 159.467 119.506, 159.279 120.750, 159.286 123.500 M 158.638 135.500 C 158.322 136.325, 158.499 137, 159.031 137 C 159.564 137, 160 136.325, 160 135.500 C 160 134.675, 159.823 134, 159.607 134 C 159.391 134, 158.955 134.675, 158.638 135.500 M 103.733 146.252 C 103.412 147.089, 104.017 147.651, 105.347 147.751 C 106.517 147.839, 107.030 147.589, 106.487 147.194 C 105.944 146.800, 105.218 146.125, 104.874 145.695 C 104.529 145.265, 104.016 145.516, 103.733 146.252 M 209.346 150.177 C 209.640 151.099, 209.306 152.331, 208.604 152.914 C 207.771 153.605, 194.991 154.070, 171.913 154.250 L 136.500 154.526 174.785 154.763 C 216.506 155.021, 213.973 155.364, 209.939 150 C 208.967 148.707, 208.885 148.731, 209.346 150.177 M 113.250 154.735 C 115.862 154.941, 120.138 154.941, 122.750 154.735 C 125.362 154.529, 123.225 154.360, 118 154.360 C 112.775 154.360, 110.638 154.529, 113.250 154.735 M 128.750 154.662 C 129.438 154.940, 130.563 154.940, 131.250 154.662 C 131.938 154.385, 131.375 154.158, 130 154.158 C 128.625 154.158, 128.063 154.385, 128.750 154.662 M 140.667 167.667 C 139.535 168.798, 139.925 169.838, 141.607 170.177 C 143.004 170.458, 143.194 172.400, 143.058 184.988 C 142.933 196.487, 142.602 199.643, 141.450 200.288 C 140.653 200.734, 140 201.761, 140 202.569 C 140 203.650, 140.726 203.880, 142.750 203.438 C 144.776 202.996, 145.119 203.105, 144.052 203.851 C 143.020 204.572, 143.881 204.715, 147.052 204.349 C 149.498 204.067, 152.063 203.662, 152.750 203.449 C 154.664 202.857, 154.237 201.295, 152 200.710 C 150.110 200.216, 149.999 199.340, 149.985 184.844 C 149.968 168.391, 149.377 165.634, 146.384 168.064 C 145.279 168.962, 144.898 169.031, 145.367 168.250 C 145.884 167.389, 145.373 167, 143.726 167 C 142.410 167, 141.033 167.300, 140.667 167.667 M 201.067 168.874 C 199.936 170.989, 202.399 174, 205.261 174 C 207.759 174, 208.602 169.913, 206.431 168.326 C 203.927 166.495, 202.249 166.666, 201.067 168.874 M 5.608 169.297 C 4.214 170.317, 3.980 171.374, 4.515 174.228 C 5.317 178.506, 7.585 179.882, 8.594 176.703 C 9.925 172.511, 15.176 170.410, 16.393 173.582 C 16.727 174.452, 17 180.966, 17 188.057 L 17 200.950 14 200.350 C 11.429 199.836, 11 200.050, 11 201.850 C 11 203.667, 11.438 203.875, 14.250 203.391 C 16.833 202.946, 17.192 203.067, 16 203.981 C 14.745 204.944, 14.826 205.044, 16.500 204.596 C 17.600 204.302, 20.188 203.956, 22.250 203.827 C 26.842 203.538, 27.034 202.001, 22.728 200 L 19.500 198.500 19.452 185 L 19.404 171.500 19.734 184.482 C 20.190 202.449, 22 203.336, 22 185.592 L 22 171.783 24.740 172.471 C 27.600 173.189, 28.959 174.582, 28.985 176.823 C 29.008 178.798, 32.422 177.764, 32.827 175.659 C 33.435 172.504, 32.048 168.768, 30.490 169.365 C 29.706 169.666, 28.798 169.482, 28.473 168.956 C 28.148 168.430, 25.771 168.064, 23.191 168.142 L 18.500 168.284 22.500 169 L 26.500 169.716 22.250 169.858 C 19.896 169.937, 18 169.538, 18 168.965 C 18 168.251, 17.399 168.251, 16.066 168.965 C 15.002 169.534, 12.617 170, 10.766 170 C 8.915 170, 6.769 170.563, 5.998 171.250 C 4.812 172.308, 4.793 172.239, 5.876 170.804 C 6.608 169.833, 8.941 168.945, 11.328 168.728 L 15.500 168.349 11.441 168.175 C 9.209 168.079, 6.584 168.584, 5.608 169.297 M 113.989 169.411 C 112.543 170.857, 112.773 171.708, 114.750 172.223 C 116.328 172.634, 116.470 174.019, 116.196 186.339 C 115.949 197.448, 115.622 200, 114.446 200 C 113.642 200, 113 200.936, 113 202.107 C 113 203.522, 113.469 204.034, 114.429 203.666 C 115.215 203.364, 117.577 202.876, 119.679 202.580 C 122.447 202.191, 122.811 202.266, 121 202.851 C 118.656 203.607, 118.730 203.687, 122.180 204.120 C 124.204 204.374, 125.640 204.226, 125.371 203.791 C 125.102 203.356, 125.584 203, 126.441 203 C 128.822 203, 128.296 201.291, 125.715 200.643 C 124.014 200.216, 123.369 199.261, 123.190 196.904 C 122.763 191.313, 123.772 189.735, 127.347 190.402 C 131.255 191.132, 136.618 188.134, 138.025 184.434 C 139.949 179.373, 139.215 175.939, 135.451 172.389 C 132.066 169.197, 131.613 169.061, 125.701 169.462 C 120.603 169.808, 120.212 169.738, 123.500 169.065 C 127.161 168.317, 126.970 168.255, 121.239 168.335 C 117.795 168.383, 114.533 168.867, 113.989 169.411 M 202.459 169.067 C 202.096 169.653, 202.014 170.348, 202.276 170.610 C 202.538 170.872, 203.019 170.392, 203.345 169.543 C 204.021 167.781, 203.445 167.471, 202.459 169.067 M 204.564 171.707 C 204.022 173.132, 204.136 173.247, 205.124 172.267 C 205.808 171.588, 206.115 170.781, 205.807 170.474 C 205.499 170.166, 204.940 170.721, 204.564 171.707 M 121.180 178.775 C 121.008 185.736, 121.110 186.092, 123.565 187.025 C 126.859 188.277, 127.274 188.252, 126.410 186.855 C 125.922 186.065, 126.522 185.867, 128.345 186.215 C 130.028 186.537, 131.443 186.157, 132.244 185.168 C 132.935 184.315, 133.024 183.901, 132.442 184.248 C 131.756 184.658, 131.385 183.143, 131.385 179.932 C 131.385 174.536, 130.294 172.769, 126.785 172.487 C 123.682 172.237, 123.063 173.493, 122.835 180.500 L 122.640 186.500 122 179 L 121.360 171.500 121.180 178.775 M 148.395 185.500 C 148.396 193.200, 148.553 196.218, 148.743 192.206 C 148.934 188.195, 148.932 181.895, 148.741 178.206 C 148.549 174.518, 148.393 177.800, 148.395 185.500 M 185.182 174.500 C 184.555 175.875, 183.358 177, 182.521 177 C 181.667 177, 181 177.876, 181 179 C 181 180.100, 181.563 181, 182.250 181 C 183.158 181, 183.513 183.566, 183.548 190.369 C 183.598 200.215, 184.041 201.346, 188.864 203.927 C 191.923 205.564, 196 204.516, 196 202.092 C 196 201.064, 195.438 200.243, 194.750 200.269 C 190.481 200.427, 190.390 200.246, 190.124 191 L 189.864 182 192.373 182 C 193.753 182, 195.158 181.554, 195.495 181.008 C 196.513 179.361, 194.658 177.500, 192 177.500 C 190.625 177.500, 189.444 176.938, 189.375 176.250 C 189.306 175.563, 189.194 174.325, 189.125 173.500 C 188.927 171.123, 186.432 171.756, 185.182 174.500 M 15.392 187 C 15.392 194.425, 15.549 197.463, 15.742 193.750 C 15.934 190.037, 15.934 183.963, 15.742 180.250 C 15.549 176.537, 15.392 179.575, 15.392 187 M 31.079 175.583 C 31.127 176.748, 31.364 176.985, 31.683 176.188 C 31.972 175.466, 31.936 174.603, 31.604 174.271 C 31.272 173.939, 31.036 174.529, 31.079 175.583 M 136 179.365 C 136 182.215, 135.272 184.732, 133.902 186.615 L 131.805 189.500 134.402 186.694 C 136.389 184.549, 137 182.843, 137 179.444 C 137 177, 136.775 175, 136.500 175 C 136.225 175, 136 176.964, 136 179.365 M 68 177.075 C 70.195 177.844, 70.079 177.911, 67.044 177.619 C 64.775 177.400, 63.059 177.854, 62.044 178.940 C 60.897 180.169, 60.757 180.196, 61.500 179.047 C 62.395 177.663, 62.300 177.658, 60.595 179 C 54.842 183.530, 54.517 196.872, 60.064 200.757 C 61.147 201.516, 61.767 202.567, 61.442 203.093 C 61.117 203.619, 61.222 203.963, 61.676 203.856 C 62.129 203.750, 64.149 204.007, 66.165 204.427 C 70.834 205.400, 74.661 203.636, 77.713 199.102 C 80.640 194.753, 80.830 186.873, 78.114 182.420 C 76.163 179.219, 70.554 175.927, 67.349 176.100 C 65.957 176.175, 66.118 176.416, 68 177.075 M 160.869 177.460 C 157.107 179.575, 156.541 181.868, 159.210 184.182 L 161.450 186.125 163.995 183.006 C 165.589 181.053, 167.109 180.105, 168.060 180.469 C 169.943 181.192, 170.550 186.938, 168.766 187.152 C 168.070 187.236, 167.050 187.369, 166.500 187.449 C 165.950 187.528, 164.433 188.179, 163.129 188.896 C 161.708 189.677, 161.031 189.759, 161.438 189.100 C 161.812 188.495, 161.681 188, 161.148 188 C 159.788 188, 155 193.864, 155 195.530 C 155 198.662, 157.463 201.905, 161.082 203.537 C 164.680 205.159, 165.100 205.164, 167.467 203.614 C 168.860 202.701, 170.016 201.402, 170.035 200.727 C 170.055 200.052, 170.666 200.573, 171.393 201.885 C 172.247 203.425, 172.964 203.868, 173.417 203.135 C 173.802 202.511, 174.879 202.032, 175.809 202.070 C 177.188 202.128, 177.130 202.299, 175.500 203 C 173.728 203.762, 173.813 203.867, 176.250 203.930 C 178.994 204, 180.113 201.806, 178 200.500 C 177.450 200.160, 177 196.563, 177 192.506 C 177 188.449, 176.570 183.999, 176.045 182.617 C 174.103 177.511, 165.798 174.689, 160.869 177.460 M 185.020 177.476 C 184.231 178.426, 184.155 179, 184.819 179 C 186.027 179, 187.436 177.103, 186.743 176.409 C 186.491 176.158, 185.716 176.638, 185.020 177.476 M 226.244 176.665 C 225.553 176.943, 225.239 177.577, 225.546 178.074 C 225.853 178.571, 225.406 178.709, 224.552 178.382 C 223.698 178.054, 223 178.295, 223 178.916 C 223 179.629, 222.100 179.457, 220.565 178.450 C 217.994 176.766, 212.422 176.801, 212.612 178.500 C 212.674 179.050, 213.694 179.995, 214.880 180.601 C 216.065 181.207, 217.365 182.066, 217.768 182.511 C 218.170 182.956, 217.938 182.997, 217.250 182.601 C 216.289 182.049, 216 183.960, 216 190.858 C 216 197.094, 216.381 199.992, 217.250 200.353 C 217.938 200.639, 217.393 200.789, 216.041 200.687 C 214.551 200.574, 213.458 201.091, 213.266 202 C 213.015 203.192, 214.292 203.556, 219.475 203.772 C 224.563 203.984, 226 203.733, 226 202.629 C 226 201.851, 225.325 200.955, 224.500 200.638 C 223.365 200.203, 223 198.366, 223 193.096 C 223 183.864, 223.987 181.391, 227.648 181.452 L 230.500 181.500 231.123 192.500 C 231.465 198.550, 231.803 203.500, 231.874 203.500 C 231.944 203.500, 234.026 203.631, 236.501 203.790 C 239.875 204.008, 241 203.722, 241 202.647 C 241 201.859, 240.325 200.955, 239.500 200.638 C 238.321 200.186, 238 198.147, 238 191.120 C 238 182.362, 237.937 182.124, 234.923 179.589 C 233.231 178.165, 231.468 177, 231.005 177 C 230.542 177, 229.564 176.811, 228.832 176.579 C 228.099 176.348, 226.935 176.386, 226.244 176.665 M 34.500 178 C 33.713 179.273, 34.756 181.001, 36.309 180.998 C 37.170 180.996, 37.411 183.663, 37.178 190.632 C 36.880 199.553, 36.989 200.218, 38.648 199.582 C 39.633 199.204, 40.075 199.256, 39.629 199.697 C 39.184 200.139, 37.856 200.500, 36.678 200.500 C 35.418 200.500, 34.393 201.236, 34.188 202.289 C 33.896 203.780, 34.293 203.964, 36.568 203.394 C 38.106 203.008, 39.056 203.100, 38.743 203.604 C 38.435 204.102, 40.366 204.346, 43.094 204.153 C 48.155 203.796, 49.899 201.730, 46 200.710 C 44.233 200.248, 44.012 199.391, 44.100 193.344 C 44.155 189.580, 44.512 185.377, 44.894 184.005 C 45.781 180.815, 48.559 180.205, 49.300 183.039 C 49.948 185.518, 52.724 185.392, 54.351 182.809 C 56.031 180.141, 52.563 176.976, 48.095 177.100 C 44.831 177.190, 44.730 177.273, 47 178 L 49.500 178.801 46.750 178.900 C 45.237 178.955, 44 179.535, 44 180.189 C 44 180.842, 43.082 180.392, 41.961 179.189 C 39.852 176.925, 35.584 176.245, 34.500 178 M 82.520 177.967 C 82.191 178.499, 82.840 179.508, 83.961 180.208 C 85.759 181.331, 86 182.509, 86 190.191 C 86 196.670, 85.637 199.105, 84.581 199.700 C 83.800 200.140, 83.013 201.129, 82.831 201.897 C 82.579 202.961, 84.115 203.390, 89.250 203.692 C 94.715 204.013, 96 203.807, 96 202.612 C 96 201.799, 95.213 200.885, 94.250 200.581 C 92.711 200.093, 92.560 199.008, 93 191.561 C 93.537 182.463, 94.437 180.642, 98.135 181.165 C 100.398 181.486, 100.512 181.888, 100.771 190.500 C 101.158 203.392, 101.224 203.563, 105.888 203.838 C 110.212 204.094, 112.072 202.545, 109.679 200.683 C 108.573 199.823, 108.068 197.088, 107.829 190.663 C 107.522 182.412, 107.314 181.667, 104.694 179.413 C 101.273 176.471, 94.632 176.049, 93.159 178.681 C 92.278 180.255, 92.112 180.255, 90.538 178.681 C 88.719 176.862, 83.491 176.397, 82.520 177.967 M 133.232 180 C 133.232 181.925, 133.438 182.713, 133.689 181.750 C 133.941 180.787, 133.941 179.213, 133.689 178.250 C 133.438 177.287, 133.232 178.075, 133.232 180 M 164.269 177.693 C 165.242 177.947, 166.592 177.930, 167.269 177.656 C 167.946 177.382, 167.150 177.175, 165.500 177.195 C 163.850 177.215, 163.296 177.439, 164.269 177.693 M 198 178.261 C 198 179.100, 198.675 180.045, 199.500 180.362 C 200.673 180.812, 201.042 183.072, 201.191 190.719 L 201.383 200.500 202 191 L 202.617 181.500 202.809 191.317 C 202.987 200.475, 202.875 201.095, 201.141 200.545 C 200.068 200.204, 198.748 200.598, 198.019 201.477 C 197.324 202.315, 196.923 203.047, 197.128 203.104 C 198.124 203.384, 205.777 204.042, 207.839 204.026 C 212.262 203.991, 213.607 201.618, 209.750 200.654 C 207.584 200.113, 207.510 199.727, 207.770 190.296 C 207.919 184.908, 207.646 179.903, 207.164 179.174 C 206.682 178.445, 204.423 177.598, 202.144 177.293 C 198.854 176.851, 198 177.051, 198 178.261 M 242.701 178.337 C 242.315 179.342, 242.797 180.118, 244.051 180.516 C 245.788 181.067, 246 182.090, 246 189.914 C 246 196.994, 246.355 199.103, 247.834 200.809 C 251.604 205.155, 257.908 205.790, 260.714 202.104 C 261.638 200.892, 261.944 200.834, 261.968 201.867 C 261.988 202.736, 262.728 203.043, 264.001 202.710 C 265.171 202.404, 265.750 202.595, 265.395 203.170 C 265.037 203.750, 265.928 204.019, 267.566 203.827 C 270.821 203.444, 271.909 201.423, 269.305 200.597 C 267.714 200.093, 267.538 199, 267.822 191.367 C 268.255 179.717, 267.797 178.240, 263.499 177.434 C 261.583 177.074, 259.224 177.088, 258.258 177.464 C 256.655 178.088, 256.698 178.310, 258.750 179.985 C 260.701 181.576, 260.991 182.730, 260.930 188.660 C 260.837 197.668, 260.085 199.410, 256.205 199.605 C 251.034 199.865, 249.862 197.555, 250.254 187.874 L 250.593 179.500 250.796 188.191 C 250.908 192.971, 251.409 197.135, 251.909 197.444 C 252.849 198.025, 252.623 179.290, 251.679 178.346 C 251.397 178.063, 249.395 177.594, 247.232 177.304 C 244.250 176.904, 243.155 177.154, 242.701 178.337 M 273.406 178.152 C 273.015 178.785, 273.438 179.847, 274.347 180.512 C 275.658 181.470, 276 183.464, 276 190.138 C 276 197.376, 275.714 198.800, 273.957 200.304 C 270.970 202.862, 272.104 203.576, 279.090 203.536 C 285.209 203.501, 288.182 201.826, 284.305 200.598 C 282.701 200.090, 282.556 199.106, 283 191.763 C 283.275 187.218, 283.860 182.944, 284.300 182.264 C 285.069 181.078, 288.350 181.017, 289.502 182.168 C 289.806 182.472, 290.300 187.172, 290.600 192.611 C 291.125 202.116, 292.017 205.400, 293.446 203.087 C 293.816 202.489, 294.879 202.032, 295.809 202.070 C 297.188 202.128, 297.130 202.299, 295.500 203 C 293.814 203.724, 294.001 203.870, 296.691 203.930 C 300.572 204.015, 301.792 202.494, 299.028 201.015 C 297.282 200.081, 297.014 198.995, 297.100 193.215 C 297.244 183.468, 297.952 181.604, 301.534 181.547 L 304.500 181.500 304.771 190.500 C 305.084 200.940, 305.673 204.320, 307.029 203.482 C 307.563 203.152, 308 203.281, 308 203.768 C 308 204.910, 313.838 204.071, 314.612 202.818 C 314.936 202.295, 314.516 201.334, 313.679 200.683 C 312.573 199.823, 312.068 197.088, 311.829 190.663 C 311.522 182.412, 311.314 181.667, 308.694 179.413 C 305.020 176.253, 298.582 176.043, 296.983 179.032 L 295.896 181.063 293.313 179.032 C 290.296 176.659, 284.777 176.359, 283.023 178.472 C 281.947 179.768, 281.625 179.768, 280.329 178.472 C 278.577 176.720, 274.410 176.527, 273.406 178.152 M 36.813 178.683 C 37.534 178.972, 38.397 178.936, 38.729 178.604 C 39.061 178.272, 38.471 178.036, 37.417 178.079 C 36.252 178.127, 36.015 178.364, 36.813 178.683 M 85.813 178.683 C 86.534 178.972, 87.397 178.936, 87.729 178.604 C 88.061 178.272, 87.471 178.036, 86.417 178.079 C 85.252 178.127, 85.015 178.364, 85.813 178.683 M 118.232 181 C 118.232 182.925, 118.438 183.713, 118.689 182.750 C 118.941 181.787, 118.941 180.213, 118.689 179.250 C 118.438 178.287, 118.232 179.075, 118.232 181 M 159.980 179.524 C 159.284 180.362, 158.909 181.242, 159.145 181.479 C 159.382 181.715, 160.125 181.030, 160.796 179.955 C 162.248 177.630, 161.764 177.375, 159.980 179.524 M 200.750 178.662 C 201.438 178.940, 202.563 178.940, 203.250 178.662 C 203.938 178.385, 203.375 178.158, 202 178.158 C 200.625 178.158, 200.063 178.385, 200.750 178.662 M 215.750 178.662 C 216.438 178.940, 217.563 178.940, 218.250 178.662 C 218.938 178.385, 218.375 178.158, 217 178.158 C 215.625 178.158, 215.063 178.385, 215.750 178.662 M 245.750 178.662 C 246.438 178.940, 247.563 178.940, 248.250 178.662 C 248.938 178.385, 248.375 178.158, 247 178.158 C 245.625 178.158, 245.063 178.385, 245.750 178.662 M 260.750 178.662 C 261.438 178.940, 262.563 178.940, 263.250 178.662 C 263.938 178.385, 263.375 178.158, 262 178.158 C 260.625 178.158, 260.063 178.385, 260.750 178.662 M 275.813 178.683 C 276.534 178.972, 277.397 178.936, 277.729 178.604 C 278.061 178.272, 277.471 178.036, 276.417 178.079 C 275.252 178.127, 275.015 178.364, 275.813 178.683 M 52 181.559 C 52 182.416, 52.457 182.835, 53.016 182.490 C 53.575 182.144, 53.774 181.443, 53.457 180.931 C 52.600 179.544, 52 179.802, 52 181.559 M 65.326 182.583 C 62.922 184.987, 62.778 185.648, 63.241 192.119 C 63.514 195.943, 64.007 199.341, 64.336 199.670 C 65.408 200.742, 70 200.851, 70 199.805 C 70 199.245, 70.661 199.040, 71.468 199.349 C 72.275 199.659, 73.245 199.413, 73.622 198.802 C 74 198.191, 73.902 197.943, 73.405 198.250 C 72.892 198.566, 72.500 195.147, 72.500 190.368 C 72.500 183.953, 72.140 181.699, 71 180.979 C 68.778 179.574, 68.160 179.749, 65.326 182.583 M 162.028 181.466 C 161.359 182.273, 160.966 183.383, 161.155 183.934 C 161.345 184.484, 162.020 183.824, 162.656 182.467 C 163.974 179.654, 163.783 179.351, 162.028 181.466 M 188.360 189 C 188.360 194.225, 188.529 196.363, 188.735 193.750 C 188.941 191.137, 188.941 186.863, 188.735 184.250 C 188.529 181.637, 188.360 183.775, 188.360 189 M 191.269 180.693 C 192.242 180.947, 193.592 180.930, 194.269 180.656 C 194.946 180.382, 194.150 180.175, 192.500 180.195 C 190.850 180.215, 190.296 180.439, 191.269 180.693 M 205.360 189 C 205.360 194.225, 205.529 196.363, 205.735 193.750 C 205.941 191.137, 205.941 186.863, 205.735 184.250 C 205.529 181.637, 205.360 183.775, 205.360 189 M 265.365 189.500 C 265.368 195, 265.536 197.122, 265.738 194.216 C 265.941 191.311, 265.939 186.811, 265.734 184.216 C 265.528 181.622, 265.363 184, 265.365 189.500 M 86.819 191.502 C 86.643 196.728, 86.838 201.003, 87.250 201.002 C 87.662 201.001, 88 196.725, 88 191.500 C 88 186.275, 87.806 182, 87.569 182 C 87.331 182, 86.994 186.276, 86.819 191.502 M 90.624 183.539 C 90.281 184.432, 90.075 188.164, 90.166 191.832 L 90.331 198.500 90.956 190.500 C 91.628 181.892, 91.586 181.029, 90.624 183.539 M 105.349 190 C 105.349 194.675, 105.522 196.588, 105.732 194.250 C 105.943 191.912, 105.943 188.088, 105.732 185.750 C 105.522 183.412, 105.349 185.325, 105.349 190 M 174.355 190.500 C 174.352 195.450, 174.521 197.601, 174.731 195.280 C 174.940 192.959, 174.943 188.909, 174.736 186.280 C 174.530 183.651, 174.358 185.550, 174.355 190.500 M 221.195 184.500 C 221.215 186.150, 221.439 186.704, 221.693 185.731 C 221.947 184.758, 221.930 183.408, 221.656 182.731 C 221.382 182.054, 221.175 182.850, 221.195 184.500 M 261.992 190.205 C 261.721 194.992, 261.858 198.550, 262.295 198.110 C 262.732 197.670, 262.953 193.753, 262.786 189.405 L 262.483 181.500 261.992 190.205 M 276.819 191.502 C 276.643 196.728, 276.837 201.003, 277.250 201.002 C 277.663 201.001, 278 196.725, 278 191.500 C 278 186.275, 277.806 182, 277.569 182 C 277.331 182, 276.994 186.276, 276.819 191.502 M 280.624 183.539 C 280.281 184.432, 280.075 188.164, 280.166 191.832 L 280.331 198.500 280.956 190.500 C 281.628 181.892, 281.586 181.029, 280.624 183.539 M 309.349 190 C 309.349 194.675, 309.522 196.588, 309.732 194.250 C 309.943 191.912, 309.943 188.088, 309.732 185.750 C 309.522 183.412, 309.349 185.325, 309.349 190 M 42.232 186 C 42.232 187.925, 42.438 188.713, 42.689 187.750 C 42.941 186.787, 42.941 185.213, 42.689 184.250 C 42.438 183.287, 42.232 184.075, 42.232 186 M 171.232 186 C 171.232 187.925, 171.438 188.713, 171.689 187.750 C 171.941 186.787, 171.941 185.213, 171.689 184.250 C 171.438 183.287, 171.232 184.075, 171.232 186 M 185.355 191.500 C 185.352 196.450, 185.521 198.601, 185.731 196.280 C 185.940 193.959, 185.943 189.909, 185.736 187.280 C 185.530 184.651, 185.358 186.550, 185.355 191.500 M 247.343 190.500 C 247.346 194.900, 247.522 196.576, 247.733 194.224 C 247.945 191.872, 247.942 188.272, 247.727 186.224 C 247.512 184.176, 247.339 186.100, 247.343 190.500 M 295.349 191 C 295.349 195.675, 295.522 197.588, 295.732 195.250 C 295.943 192.912, 295.943 189.088, 295.732 186.750 C 295.522 184.412, 295.349 186.325, 295.349 191 M 58.079 185.583 C 58.127 186.748, 58.364 186.985, 58.683 186.188 C 58.972 185.466, 58.936 184.603, 58.604 184.271 C 58.272 183.939, 58.036 184.529, 58.079 185.583 M 61.158 186 C 61.158 187.375, 61.385 187.938, 61.662 187.250 C 61.940 186.563, 61.940 185.438, 61.662 184.750 C 61.385 184.063, 61.158 184.625, 61.158 186 M 77.079 185.583 C 77.127 186.748, 77.364 186.985, 77.683 186.188 C 77.972 185.466, 77.936 184.603, 77.604 184.271 C 77.272 183.939, 77.036 184.529, 77.079 185.583 M 102.349 192 C 102.349 196.675, 102.522 198.588, 102.732 196.250 C 102.943 193.912, 102.943 190.088, 102.732 187.750 C 102.522 185.412, 102.349 187.325, 102.349 192 M 306.355 192.500 C 306.352 197.450, 306.521 199.601, 306.731 197.280 C 306.940 194.959, 306.943 190.909, 306.736 188.280 C 306.530 185.651, 306.358 187.550, 306.355 192.500 M 74.079 186.583 C 74.127 187.748, 74.364 187.985, 74.683 187.188 C 74.972 186.466, 74.936 185.603, 74.604 185.271 C 74.272 184.939, 74.036 185.529, 74.079 186.583 M 118.232 188 C 118.232 189.925, 118.438 190.713, 118.689 189.750 C 118.941 188.787, 118.941 187.213, 118.689 186.250 C 118.438 185.287, 118.232 186.075, 118.232 188 M 217.328 191.500 C 217.333 195.350, 217.513 196.802, 217.730 194.728 C 217.946 192.653, 217.943 189.503, 217.722 187.728 C 217.501 185.952, 217.324 187.650, 217.328 191.500 M 236.336 192 C 236.336 196.125, 236.513 197.813, 236.728 195.750 C 236.944 193.688, 236.944 190.313, 236.728 188.250 C 236.513 186.188, 236.336 187.875, 236.336 192 M 292.343 193.500 C 292.346 197.900, 292.522 199.576, 292.733 197.224 C 292.945 194.872, 292.942 191.272, 292.727 189.224 C 292.512 187.176, 292.339 189.100, 292.343 193.500 M 38.300 192 C 38.300 195.025, 38.487 196.262, 38.716 194.750 C 38.945 193.238, 38.945 190.762, 38.716 189.250 C 38.487 187.738, 38.300 188.975, 38.300 192 M 57.195 190.500 C 57.215 192.150, 57.439 192.704, 57.693 191.731 C 57.947 190.758, 57.930 189.408, 57.656 188.731 C 57.382 188.054, 57.175 188.850, 57.195 190.500 M 78.195 190.500 C 78.215 192.150, 78.439 192.704, 78.693 191.731 C 78.947 190.758, 78.930 189.408, 78.656 188.731 C 78.382 188.054, 78.175 188.850, 78.195 190.500 M 60.079 190.583 C 60.127 191.748, 60.364 191.985, 60.683 191.188 C 60.972 190.466, 60.936 189.603, 60.604 189.271 C 60.272 188.939, 60.036 189.529, 60.079 190.583 M 121.300 194 C 121.300 197.025, 121.487 198.262, 121.716 196.750 C 121.945 195.238, 121.945 192.762, 121.716 191.250 C 121.487 189.738, 121.300 190.975, 121.300 194 M 158.035 191.934 C 157.466 192.998, 157.056 195.361, 157.125 197.184 C 157.246 200.397, 157.271 200.376, 157.910 196.500 C 158.273 194.300, 158.918 191.938, 159.344 191.250 C 159.770 190.563, 159.882 190, 159.594 190 C 159.306 190, 158.605 190.870, 158.035 191.934 M 163.699 192.780 C 162.765 193.813, 162 195.791, 162 197.177 C 162 199.290, 162.483 199.709, 165.001 199.781 C 168.220 199.872, 169.898 197.921, 170.132 193.816 C 170.226 192.157, 170.484 192.493, 171.041 195 L 171.818 198.500 171.659 195 C 171.517 191.872, 171.176 191.468, 168.449 191.201 C 166.445 191.005, 164.814 191.548, 163.699 192.780 M 117.975 196.204 C 117.710 198.790, 117.863 200.537, 118.315 200.085 C 118.767 199.633, 118.984 197.517, 118.797 195.382 L 118.458 191.500 117.975 196.204 M 160.384 193.442 C 160.080 194.234, 160.007 195.697, 160.223 196.692 C 160.467 197.821, 160.809 197.279, 161.134 195.250 C 161.678 191.844, 161.325 190.991, 160.384 193.442 M 61.079 195.583 C 61.127 196.748, 61.364 196.985, 61.683 196.188 C 61.972 195.466, 61.936 194.603, 61.604 194.271 C 61.272 193.939, 61.036 194.529, 61.079 195.583 M 74.079 195.583 C 74.127 196.748, 74.364 196.985, 74.683 196.188 C 74.972 195.466, 74.936 194.603, 74.604 194.271 C 74.272 193.939, 74.036 194.529, 74.079 195.583 M 77.079 195.583 C 77.127 196.748, 77.364 196.985, 77.683 196.188 C 77.972 195.466, 77.936 194.603, 77.604 194.271 C 77.272 193.939, 77.036 194.529, 77.079 195.583 M 75 200 C 74.411 201.100, 74.155 202, 74.430 202 C 74.705 202, 75.411 201.100, 76 200 C 76.589 198.900, 76.845 198, 76.570 198 C 76.295 198, 75.589 198.900, 75 200 M 144.564 199.707 C 144.022 201.132, 144.136 201.247, 145.124 200.267 C 145.808 199.588, 146.115 198.781, 145.807 198.474 C 145.499 198.166, 144.940 198.721, 144.564 199.707 M 233.079 199.583 C 233.127 200.748, 233.364 200.985, 233.683 200.188 C 233.972 199.466, 233.936 198.603, 233.604 198.271 C 233.272 197.939, 233.036 198.529, 233.079 199.583 M 18.750 202.662 C 19.438 202.940, 20.563 202.940, 21.250 202.662 C 21.938 202.385, 21.375 202.158, 20 202.158 C 18.625 202.158, 18.063 202.385, 18.750 202.662 M 40.813 202.683 C 41.534 202.972, 42.397 202.936, 42.729 202.604 C 43.061 202.272, 42.471 202.036, 41.417 202.079 C 40.252 202.127, 40.015 202.364, 40.813 202.683 M 89.813 202.683 C 90.534 202.972, 91.397 202.936, 91.729 202.604 C 92.061 202.272, 91.471 202.036, 90.417 202.079 C 89.252 202.127, 89.015 202.364, 89.813 202.683 M 105.750 202.662 C 106.438 202.940, 107.563 202.940, 108.250 202.662 C 108.938 202.385, 108.375 202.158, 107 202.158 C 105.625 202.158, 105.063 202.385, 105.750 202.662 M 146.750 202.662 C 147.438 202.940, 148.563 202.940, 149.250 202.662 C 149.938 202.385, 149.375 202.158, 148 202.158 C 146.625 202.158, 146.063 202.385, 146.750 202.662 M 204.750 202.662 C 205.438 202.940, 206.563 202.940, 207.250 202.662 C 207.938 202.385, 207.375 202.158, 206 202.158 C 204.625 202.158, 204.063 202.385, 204.750 202.662 M 219.750 202.662 C 220.438 202.940, 221.563 202.940, 222.250 202.662 C 222.938 202.385, 222.375 202.158, 221 202.158 C 219.625 202.158, 219.063 202.385, 219.750 202.662 M 235.813 202.683 C 236.534 202.972, 237.397 202.936, 237.729 202.604 C 238.061 202.272, 237.471 202.036, 236.417 202.079 C 235.252 202.127, 235.015 202.364, 235.813 202.683 M 279.813 202.683 C 280.534 202.972, 281.397 202.936, 281.729 202.604 C 282.061 202.272, 281.471 202.036, 280.417 202.079 C 279.252 202.127, 279.015 202.364, 279.813 202.683 M 309.750 202.662 C 310.438 202.940, 311.563 202.940, 312.250 202.662 C 312.938 202.385, 312.375 202.158, 311 202.158 C 309.625 202.158, 309.063 202.385, 309.750 202.662 M 67.269 203.693 C 68.242 203.947, 69.592 203.930, 70.269 203.656 C 70.946 203.382, 70.150 203.175, 68.500 203.195 C 66.850 203.215, 66.296 203.439, 67.269 203.693" stroke="none" fill="black" fill-rule="evenodd"/>
</svg>