<svg xmlns="http://www.w3.org/2000/svg" version="1.1" width="320px" height="320px" style="shape-rendering:geometricPrecision; text-rendering:geometricPrecision; image-rendering:optimizeQuality; fill-rule:evenodd; clip-rule:evenodd" xmlns:xlink="http://www.w3.org/1999/xlink">
<g><path style="opacity:1" fill="#000000" d="M -0.5,-0.5 C 106.167,-0.5 212.833,-0.5 319.5,-0.5C 319.5,106.167 319.5,212.833 319.5,319.5C 212.833,319.5 106.167,319.5 -0.5,319.5C -0.5,212.833 -0.5,106.167 -0.5,-0.5 Z"/></g>
<g><path style="opacity:1" fill="#3fc035" d="M 180.5,58.5 C 177.886,57.4552 175.22,56.9552 172.5,57C 173.71,58.0391 174.71,59.2058 175.5,60.5C 167.058,57.3378 158.391,56.6711 149.5,58.5C 150.609,57.71 151.942,57.21 153.5,57C 159.5,56.6667 165.5,56.3333 171.5,56C 170.672,55.0853 169.672,54.4186 168.5,54C 161.472,53.3255 154.472,53.4921 147.5,54.5C 148.263,53.7321 149.263,53.2321 150.5,53C 156.833,52.3333 163.167,52.3333 169.5,53C 173.519,54.3949 177.186,56.2283 180.5,58.5 Z"/></g>
<g><path style="opacity:1" fill="#3be22d" d="M 180.5,58.5 C 186.241,61.9057 190.574,66.5724 193.5,72.5C 192.199,77.7338 191.199,77.4004 190.5,71.5C 189.5,71.5 188.5,71.5 187.5,71.5C 184.099,67.096 180.099,63.4293 175.5,60.5C 174.71,59.2058 173.71,58.0391 172.5,57C 175.22,56.9552 177.886,57.4552 180.5,58.5 Z"/></g>
<g><path style="opacity:1" fill="#3bc52f" d="M 187.5,71.5 C 188.5,71.5 189.5,71.5 190.5,71.5C 191.199,77.4004 192.199,77.7338 193.5,72.5C 197.735,79.5115 199.235,87.1782 198,95.5C 197.79,97.0581 197.29,98.3915 196.5,99.5C 196.955,92.9861 196.455,86.6527 195,80.5C 194.667,85.5 194.333,90.5 194,95.5C 193.95,97.744 193.117,99.4107 191.5,100.5C 192.539,94.2033 192.706,87.8699 192,81.5C 190.768,78.0367 189.268,74.7034 187.5,71.5 Z"/></g>
<g><path style="opacity:1" fill="#42aa3c" d="M 125.5,75.5 C 122.872,84.8406 122.872,94.1739 125.5,103.5C 124.442,102.4 123.608,101.066 123,99.5C 122.333,93.1667 122.333,86.8333 123,80.5C 123.374,78.5087 124.207,76.842 125.5,75.5 Z"/></g>
<g><path style="opacity:1" fill="#2ef920" d="M 196.5,99.5 C 194.962,102.849 193.129,106.182 191,109.5C 190.825,106.843 190.992,104.176 191.5,101.5C 191.5,101.167 191.5,100.833 191.5,100.5C 193.117,99.4107 193.95,97.744 194,95.5C 194.333,90.5 194.667,85.5 195,80.5C 196.455,86.6527 196.955,92.9861 196.5,99.5 Z"/></g>
<g><path style="opacity:1" fill="#38e42b" d="M 149.5,58.5 C 127.483,69.4549 121.983,86.1216 133,108.5C 138.212,115.524 145.046,120.191 153.5,122.5C 153.5,123.833 153.5,125.167 153.5,126.5C 152.5,126.5 151.5,126.5 150.5,126.5C 149.5,126.5 148.5,126.5 147.5,126.5C 136.741,122.075 129.407,114.408 125.5,103.5C 122.872,94.1739 122.872,84.8406 125.5,75.5C 129.565,65.1017 136.899,58.1017 147.5,54.5C 154.472,53.4921 161.472,53.3255 168.5,54C 169.672,54.4186 170.672,55.0853 171.5,56C 165.5,56.3333 159.5,56.6667 153.5,57C 151.942,57.21 150.609,57.71 149.5,58.5 Z"/></g>
<g><path style="opacity:1" fill="#3dd431" d="M 196.5,99.5 C 194.657,109.006 189.657,116.339 181.5,121.5C 176.955,124.557 171.955,126.557 166.5,127.5C 166.5,125.5 166.5,123.5 166.5,121.5C 178.387,119.28 186.72,112.614 191.5,101.5C 190.992,104.176 190.825,106.843 191,109.5C 193.129,106.182 194.962,102.849 196.5,99.5 Z"/></g>
<g><path style="opacity:1" fill="#2e7129" d="M 153.5,122.5 C 154.451,123.919 154.784,125.585 154.5,127.5C 152.901,127.768 151.568,127.434 150.5,126.5C 151.5,126.5 152.5,126.5 153.5,126.5C 153.5,125.167 153.5,123.833 153.5,122.5 Z"/></g>
<g><path style="opacity:1" fill="#71ae6d" d="M 207.5,138.5 C 207.665,141.85 207.498,145.183 207,148.5C 206.817,145.635 206.317,142.969 205.5,140.5C 201.366,139.515 197.032,139.182 192.5,139.5C 188.526,154.731 184.859,170.064 181.5,185.5C 183.288,185.785 184.955,185.452 186.5,184.5C 187.167,182.5 187.833,180.5 188.5,178.5C 193.05,177.2 197.55,177.2 202,178.5C 202.497,180.81 202.663,183.143 202.5,185.5C 203.167,186.167 203.833,186.833 204.5,187.5C 203.167,187.5 201.833,187.5 200.5,187.5C 200.167,187.5 199.833,187.5 199.5,187.5C 199.5,185.167 199.5,182.833 199.5,180.5C 196.428,180.183 193.428,180.516 190.5,181.5C 189.833,183.167 189.167,184.833 188.5,186.5C 185.232,187.487 181.898,187.82 178.5,187.5C 180.428,178.053 182.761,168.719 185.5,159.5C 187.071,152.446 189.071,145.446 191.5,138.5C 196.986,137.185 202.32,137.185 207.5,138.5 Z"/></g>
<g><path style="opacity:1" fill="#88b972" d="M 142.5,141.5 C 141.662,141.842 141.328,142.508 141.5,143.5C 139.99,142.164 138.323,140.997 136.5,140C 130.509,139.501 124.509,139.334 118.5,139.5C 119.139,146.148 119.473,152.814 119.5,159.5C 118.539,161.265 118.205,163.265 118.5,165.5C 117.795,156.274 116.795,146.94 115.5,137.5C 122.508,137.334 129.508,137.5 136.5,138C 138.91,138.6 140.91,139.766 142.5,141.5 Z"/></g>
<g><path style="opacity:1" fill="#060c07" d="M 175.5,60.5 C 180.099,63.4293 184.099,67.096 187.5,71.5C 189.268,74.7034 190.768,78.0367 192,81.5C 192.706,87.8699 192.539,94.2033 191.5,100.5C 191.5,100.833 191.5,101.167 191.5,101.5C 186.72,112.614 178.387,119.28 166.5,121.5C 166.5,123.5 166.5,125.5 166.5,127.5C 171.955,126.557 176.955,124.557 181.5,121.5C 181.439,124.05 180.106,125.55 177.5,126C 171.464,128.668 165.464,130.335 159.5,131C 160.641,131.741 160.641,132.575 159.5,133.5C 166.78,134.066 173.947,135.066 181,136.5C 180.559,141.08 180.393,145.58 180.5,150C 181.029,151.559 181.696,153.059 182.5,154.5C 181.948,156.003 181.948,157.669 182.5,159.5C 183.5,159.5 184.5,159.5 185.5,159.5C 182.761,168.719 180.428,178.053 178.5,187.5C 181.898,187.82 185.232,187.487 188.5,186.5C 189.167,184.833 189.833,183.167 190.5,181.5C 193.428,180.516 196.428,180.183 199.5,180.5C 199.5,182.833 199.5,185.167 199.5,187.5C 198.566,186.432 198.232,185.099 198.5,183.5C 196.143,183.337 193.81,183.503 191.5,184C 190.884,186.179 189.717,188.012 188,189.5C 187.808,191.577 187.308,193.577 186.5,195.5C 184.31,194.252 183.977,192.586 185.5,190.5C 183.629,190.094 181.795,189.76 180,189.5C 179.5,189.833 179,190.167 178.5,190.5C 179.325,191.386 180.325,191.719 181.5,191.5C 181.338,193.527 181.505,195.527 182,197.5C 183.067,198.191 184.234,198.691 185.5,199C 184.594,200.699 184.261,202.533 184.5,204.5C 184.167,204.5 183.833,204.5 183.5,204.5C 181.807,200.628 179.474,197.128 176.5,194C 170.651,193.182 164.985,193.348 159.5,194.5C 158.17,200.798 157.503,207.465 157.5,214.5C 157.667,221.167 157.833,227.833 158,234.5C 158.383,235.056 158.883,235.389 159.5,235.5C 163.5,235.5 167.5,235.5 171.5,235.5C 173.858,235.747 175.858,235.081 177.5,233.5C 177.155,237.357 175.321,238.357 172,236.5C 170.674,236.755 169.674,237.422 169,238.5C 168.481,237.484 167.647,236.818 166.5,236.5C 160.579,237.381 154.579,237.048 148.5,235.5C 151.167,235.5 153.833,235.5 156.5,235.5C 154.578,221.385 151.578,207.551 147.5,194C 142.913,193.201 138.413,193.368 134,194.5C 131.84,208.098 130.34,221.765 129.5,235.5C 132.572,235.817 135.572,235.484 138.5,234.5C 139.309,232.929 139.643,231.262 139.5,229.5C 142.167,229.5 144.833,229.5 147.5,229.5C 147.5,231.167 147.5,232.833 147.5,234.5C 145.236,233.781 142.903,233.448 140.5,233.5C 140.5,234.5 140.5,235.5 140.5,236.5C 142.429,236.231 144.095,236.731 145.5,238C 144.5,238.167 143.5,238.333 142.5,238.5C 138.063,236.786 133.396,236.12 128.5,236.5C 128.726,233.751 128.393,231.084 127.5,228.5C 127.808,227.692 128.308,227.025 129,226.5C 129.765,220.183 130.265,213.849 130.5,207.5C 129.5,207.5 128.5,207.5 127.5,207.5C 127.5,202.833 127.5,198.167 127.5,193.5C 130.402,193.732 133.402,193.398 136.5,192.5C 138.286,192.304 139.619,191.471 140.5,190C 138.111,188.904 135.611,188.071 133,187.5C 132.369,188.872 131.702,190.205 131,191.5C 127.924,188.62 124.424,187.787 120.5,189C 120,188.5 119.5,188 119,187.5C 118.501,181.843 118.334,176.176 118.5,170.5C 119.327,175.651 119.827,180.984 120,186.5C 123.394,187.456 126.894,187.789 130.5,187.5C 130.279,181.732 130.279,176.065 130.5,170.5C 134.177,175.509 136.51,181.175 137.5,187.5C 141.167,187.5 144.833,187.5 148.5,187.5C 146.906,181.052 144.906,174.718 142.5,168.5C 144.53,164.959 146.363,161.292 148,157.5C 149.556,151.17 148.056,145.837 143.5,141.5C 143.5,140.167 143.5,138.833 143.5,137.5C 144.833,137.5 146.167,137.5 147.5,137.5C 147.5,136.5 147.5,135.5 147.5,134.5C 148.873,134.657 150.207,134.49 151.5,134C 150.542,132.853 150.875,131.853 152.5,131C 150.426,131.227 148.426,131.061 146.5,130.5C 146.167,130 145.833,129.5 145.5,129C 146.056,127.989 146.722,127.156 147.5,126.5C 148.5,126.5 149.5,126.5 150.5,126.5C 151.568,127.434 152.901,127.768 154.5,127.5C 154.784,125.585 154.451,123.919 153.5,122.5C 145.046,120.191 138.212,115.524 133,108.5C 121.983,86.1216 127.483,69.4549 149.5,58.5C 158.391,56.6711 167.058,57.3378 175.5,60.5 Z"/></g>
<g><path style="opacity:1" fill="#4d883f" d="M 163.5,147.5 C 168.305,146.513 173.305,146.179 178.5,146.5C 178.813,143.753 178.48,141.086 177.5,138.5C 177.593,140.11 177.26,141.776 176.5,143.5C 176.5,142.5 176.5,141.5 176.5,140.5C 169.167,140.5 161.833,140.5 154.5,140.5C 154.171,155.676 154.504,170.676 155.5,185.5C 155.167,186.167 154.833,186.833 154.5,187.5C 153.5,187.5 152.5,187.5 151.5,187.5C 151.5,170.833 151.5,154.167 151.5,137.5C 160.833,137.5 170.167,137.5 179.5,137.5C 179.5,140.833 179.5,144.167 179.5,147.5C 174.167,147.5 168.833,147.5 163.5,147.5 Z"/></g>
<g><path style="opacity:1" fill="#34872b" d="M 162.5,127.5 C 162.5,125.833 162.5,124.167 162.5,122.5C 160.833,122.5 159.167,122.5 157.5,122.5C 157.5,124.167 157.5,125.833 157.5,127.5C 156.539,125.735 156.205,123.735 156.5,121.5C 158.833,121.5 161.167,121.5 163.5,121.5C 163.795,123.735 163.461,125.735 162.5,127.5 Z"/></g>
<g><path style="opacity:1" fill="#3cee2d" d="M 162.5,127.5 C 160.833,127.5 159.167,127.5 157.5,127.5C 157.5,125.833 157.5,124.167 157.5,122.5C 159.167,122.5 160.833,122.5 162.5,122.5C 162.5,124.167 162.5,125.833 162.5,127.5 Z"/></g>
<g><path style="opacity:1" fill="#286b24" d="M 149.5,114.5 C 150.833,114.5 152.167,114.5 153.5,114.5C 153.5,115.5 153.5,116.5 153.5,117.5C 154.5,117.5 155.5,117.5 156.5,117.5C 155.432,118.434 154.099,118.768 152.5,118.5C 152.5,117.5 152.5,116.5 152.5,115.5C 151.209,115.737 150.209,115.404 149.5,114.5 Z"/></g>
<g><path style="opacity:1" fill="#43e835" d="M 167.5,111.5 C 168.833,111.5 170.167,111.5 171.5,111.5C 171.5,112.5 171.5,113.5 171.5,114.5C 170.167,114.5 168.833,114.5 167.5,114.5C 167.5,115.5 167.5,116.5 167.5,117.5C 165.517,117.843 164.183,117.176 163.5,115.5C 161.393,114.532 159.059,114.198 156.5,114.5C 156.5,115.5 156.5,116.5 156.5,117.5C 155.5,117.5 154.5,117.5 153.5,117.5C 153.5,116.5 153.5,115.5 153.5,114.5C 152.167,114.5 150.833,114.5 149.5,114.5C 149.5,113.5 149.5,112.5 149.5,111.5C 150.833,111.5 152.167,111.5 153.5,111.5C 153.5,110.5 153.5,109.5 153.5,108.5C 157.833,108.5 162.167,108.5 166.5,108.5C 166.263,109.791 166.596,110.791 167.5,111.5 Z"/></g>
<g><path style="opacity:1" fill="#115409" d="M 163.5,115.5 C 160.789,115.185 158.456,115.852 156.5,117.5C 156.5,116.5 156.5,115.5 156.5,114.5C 159.059,114.198 161.393,114.532 163.5,115.5 Z"/></g>
<g><path style="opacity:1" fill="#297c20" d="M 167.5,111.5 C 166.596,110.791 166.263,109.791 166.5,108.5C 162.167,108.5 157.833,108.5 153.5,108.5C 153.5,109.5 153.5,110.5 153.5,111.5C 152.167,111.5 150.833,111.5 149.5,111.5C 150.209,110.596 151.209,110.263 152.5,110.5C 152.5,109.5 152.5,108.5 152.5,107.5C 157.5,107.5 162.5,107.5 167.5,107.5C 167.5,108.833 167.5,110.167 167.5,111.5 Z"/></g>
<g><path style="opacity:1" fill="#459b3e" d="M 175.5,96.5 C 176.5,96.5 177.5,96.5 178.5,96.5C 178.5,98.8333 178.5,101.167 178.5,103.5C 177.5,103.5 176.5,103.5 175.5,103.5C 178.167,101.167 178.167,98.8333 175.5,96.5 Z"/></g>
<g><path style="opacity:1" fill="#3baf31" d="M 149.5,103.5 C 156.648,102.508 163.981,102.175 171.5,102.5C 171.5,103.5 171.5,104.5 171.5,105.5C 173.199,105.473 174.533,104.806 175.5,103.5C 175.5,104.5 175.5,105.5 175.5,106.5C 173.833,106.5 172.167,106.5 170.5,106.5C 170.5,105.5 170.5,104.5 170.5,103.5C 163.5,103.5 156.5,103.5 149.5,103.5 Z"/></g>
<g><path style="opacity:1" fill="#30f621" d="M 175.5,96.5 C 178.167,98.8333 178.167,101.167 175.5,103.5C 174.533,104.806 173.199,105.473 171.5,105.5C 171.5,104.5 171.5,103.5 171.5,102.5C 163.981,102.175 156.648,102.508 149.5,103.5C 149.5,104.5 149.5,105.5 149.5,106.5C 148.167,106.5 146.833,106.5 145.5,106.5C 145.715,104.821 145.048,103.821 143.5,103.5C 142.659,101.621 142.325,99.6208 142.5,97.5C 143.791,97.7373 144.791,97.404 145.5,96.5C 146.289,96.2172 146.956,95.7172 147.5,95C 157.091,93.9052 166.425,94.4052 175.5,96.5 Z"/></g>
<g><path style="opacity:1" fill="#153f14" d="M 134.5,91.5 C 135.404,92.209 135.737,93.209 135.5,94.5C 136.5,94.5 137.5,94.5 138.5,94.5C 138.5,93.5 138.5,92.5 138.5,91.5C 139.5,91.5 140.5,91.5 141.5,91.5C 140.909,92.1515 140.243,92.8182 139.5,93.5C 141.396,94.4656 143.396,94.7989 145.5,94.5C 145.5,95.1667 145.5,95.8333 145.5,96.5C 144.791,97.404 143.791,97.7373 142.5,97.5C 142.325,99.6208 142.659,101.621 143.5,103.5C 141.656,101.721 140.99,99.3878 141.5,96.5C 141.637,95.2201 139.303,94.8868 134.5,95.5C 134.5,94.1667 134.5,92.8333 134.5,91.5 Z"/></g>
<g><path style="opacity:1" fill="#43ae3c" d="M 175.5,96.5 C 166.425,94.4052 157.091,93.9052 147.5,95C 146.956,95.7172 146.289,96.2172 145.5,96.5C 145.5,95.8333 145.5,95.1667 145.5,94.5C 155.319,93.506 165.319,93.1726 175.5,93.5C 175.5,94.5 175.5,95.5 175.5,96.5 Z"/></g>
<g><path style="opacity:1" fill="#489b41" d="M 185.5,87.5 C 187.635,87.147 188.968,87.9803 189.5,90C 189.164,91.0299 188.497,91.5299 187.5,91.5C 187.473,89.8007 186.806,88.4674 185.5,87.5 Z"/></g>
<g><path style="opacity:1" fill="#2c7c27" d="M 135.5,85.5 C 135.5,86.5 135.5,87.5 135.5,88.5C 134.5,88.5 133.5,88.5 132.5,88.5C 132.5,89.5 132.5,90.5 132.5,91.5C 131.566,90.4324 131.232,89.099 131.5,87.5C 133.199,87.4729 134.533,86.8062 135.5,85.5 Z"/></g>
<g><path style="opacity:1" fill="#35ef25" d="M 146.5,67.5 C 147.209,68.404 148.209,68.7373 149.5,68.5C 149.5,69.5 149.5,70.5 149.5,71.5C 150.959,71.4326 152.292,71.7659 153.5,72.5C 153.821,74.0481 154.821,74.7148 156.5,74.5C 156.5,75.8333 156.5,77.1667 156.5,78.5C 158.948,79.4731 161.615,79.8064 164.5,79.5C 164.5,77.8333 164.5,76.1667 164.5,74.5C 167.99,72.9074 170.99,70.5741 173.5,67.5C 174.779,66.032 176.446,65.3653 178.5,65.5C 178.5,66.8333 178.5,68.1667 178.5,69.5C 177.209,69.2627 176.209,69.596 175.5,70.5C 175.5,71.1667 175.5,71.8333 175.5,72.5C 174.167,72.5 172.833,72.5 171.5,72.5C 171.5,73.5 171.5,74.5 171.5,75.5C 170.5,75.5 169.5,75.5 168.5,75.5C 168.263,76.791 168.596,77.791 169.5,78.5C 172.634,79.0351 175.634,80.0351 178.5,81.5C 179.5,81.5 180.5,81.5 181.5,81.5C 181.183,84.5465 182.516,86.2132 185.5,86.5C 185.5,86.8333 185.5,87.1667 185.5,87.5C 186.806,88.4674 187.473,89.8007 187.5,91.5C 185.988,93.3167 183.988,94.3167 181.5,94.5C 181.5,93.5 181.5,92.5 181.5,91.5C 180.167,91.5 178.833,91.5 177.5,91.5C 177.5,90.5 177.5,89.5 177.5,88.5C 165.833,88.5 154.167,88.5 142.5,88.5C 142.737,89.791 142.404,90.791 141.5,91.5C 140.5,91.5 139.5,91.5 138.5,91.5C 138.5,92.5 138.5,93.5 138.5,94.5C 137.5,94.5 136.5,94.5 135.5,94.5C 135.737,93.209 135.404,92.209 134.5,91.5C 133.833,91.5 133.167,91.5 132.5,91.5C 132.5,90.5 132.5,89.5 132.5,88.5C 133.5,88.5 134.5,88.5 135.5,88.5C 135.5,87.5 135.5,86.5 135.5,85.5C 136.209,84.596 137.209,84.2627 138.5,84.5C 138.5,83.5 138.5,82.5 138.5,81.5C 139.5,81.5 140.5,81.5 141.5,81.5C 144.584,79.8986 147.917,79.2319 151.5,79.5C 151.737,78.209 151.404,77.209 150.5,76.5C 149.5,76.5 148.5,76.5 147.5,76.5C 147.737,75.209 147.404,74.209 146.5,73.5C 145.016,70.8145 143.683,68.1478 142.5,65.5C 144.199,65.5271 145.533,66.1938 146.5,67.5 Z"/></g>
<g><path style="opacity:1" fill="#2e792b" d="M 181.5,81.5 C 182.532,83.3784 183.866,85.0451 185.5,86.5C 182.516,86.2132 181.183,84.5465 181.5,81.5 Z"/></g>
<g><path style="opacity:1" fill="#5c9e54" d="M 169.5,78.5 C 172.5,78.5 175.5,78.5 178.5,78.5C 178.5,79.5 178.5,80.5 178.5,81.5C 175.634,80.0351 172.634,79.0351 169.5,78.5 Z"/></g>
<g><path style="opacity:1" fill="#529649" d="M 150.5,76.5 C 151.404,77.209 151.737,78.209 151.5,79.5C 147.917,79.2319 144.584,79.8986 141.5,81.5C 141.5,80.5 141.5,79.5 141.5,78.5C 145.012,79.0545 148.012,78.3878 150.5,76.5 Z"/></g>
<g><path style="opacity:1" fill="#479035" d="M 175.5,72.5 C 174.791,73.404 173.791,73.7373 172.5,73.5C 172.5,74.5 172.5,75.5 172.5,76.5C 170.821,76.2852 169.821,76.9519 169.5,78.5C 168.596,77.791 168.263,76.791 168.5,75.5C 169.5,75.5 170.5,75.5 171.5,75.5C 171.5,74.5 171.5,73.5 171.5,72.5C 172.833,72.5 174.167,72.5 175.5,72.5 Z"/></g>
<g><path style="opacity:1" fill="#398b31" d="M 173.5,67.5 C 170.99,70.5741 167.99,72.9074 164.5,74.5C 164.5,76.1667 164.5,77.8333 164.5,79.5C 161.615,79.8064 158.948,79.4731 156.5,78.5C 158.833,78.5 161.167,78.5 163.5,78.5C 163.5,76.8333 163.5,75.1667 163.5,73.5C 166.211,72.305 168.544,70.4717 170.5,68C 171.448,67.5172 172.448,67.3505 173.5,67.5 Z"/></g>
<g><path style="opacity:1" fill="#31762e" d="M 146.5,67.5 C 147.833,67.5 149.167,67.5 150.5,67.5C 150.5,68.5 150.5,69.5 150.5,70.5C 152.179,70.2852 153.179,70.9519 153.5,72.5C 152.292,71.7659 150.959,71.4326 149.5,71.5C 149.5,70.5 149.5,69.5 149.5,68.5C 148.209,68.7373 147.209,68.404 146.5,67.5 Z"/></g>
<g><path style="opacity:1" fill="#46a43b" d="M 146.5,67.5 C 145.533,66.1938 144.199,65.5271 142.5,65.5C 143.683,68.1478 145.016,70.8145 146.5,73.5C 144.952,73.1788 144.285,72.1788 144.5,70.5C 143.5,70.5 142.5,70.5 141.5,70.5C 141.5,68.5 141.5,66.5 141.5,64.5C 143.167,64.5 144.833,64.5 146.5,64.5C 146.5,65.5 146.5,66.5 146.5,67.5 Z"/></g>
<g><path style="opacity:1" fill="#3a8731" d="M 175.5,70.5 C 176.209,69.596 177.209,69.2627 178.5,69.5C 178.5,68.1667 178.5,66.8333 178.5,65.5C 176.446,65.3653 174.779,66.032 173.5,67.5C 173.5,66.5 173.5,65.5 173.5,64.5C 175.5,64.5 177.5,64.5 179.5,64.5C 179.5,66.5 179.5,68.5 179.5,70.5C 178.167,70.5 176.833,70.5 175.5,70.5 Z"/></g>
<g><path style="opacity:1" fill="#76ad57" d="M 77.5,137.5 C 77.781,140.817 77.781,143.983 77.5,147C 73.5,147.333 69.5,147.667 65.5,148C 67.4167,150.409 69.4167,152.576 71.5,154.5C 73.0293,158.368 75.3626,161.701 78.5,164.5C 80.6686,168.171 82.8353,171.838 85,175.5C 85.8912,179.372 85.3912,183.038 83.5,186.5C 77.8722,187.495 72.2055,187.829 66.5,187.5C 65.5,187.5 64.5,187.5 63.5,187.5C 63.5,184.5 63.5,181.5 63.5,178.5C 67.1667,178.5 70.8333,178.5 74.5,178.5C 74.6495,177.448 74.4828,176.448 74,175.5C 67.4889,167.128 60.9889,158.794 54.5,150.5C 52.601,145.614 53.601,141.447 57.5,138C 64.1583,137.5 70.825,137.334 77.5,137.5 Z"/></g>
<g><path style="opacity:1" fill="#050407" d="M 78.5,164.5 C 75.3626,161.701 73.0293,158.368 71.5,154.5C 70.8505,152.565 70.5172,150.565 70.5,148.5C 77.1667,148.5 83.8333,148.5 90.5,148.5C 90.423,152.215 90.7564,155.881 91.5,159.5C 89.4078,159.561 87.9078,160.561 87,162.5C 86.8214,165.553 86.3214,168.553 85.5,171.5C 85.1357,167.152 82.8024,164.818 78.5,164.5 Z"/></g>
<g><path style="opacity:1" fill="#050c06" d="M 176.5,143.5 C 171.684,144.326 166.684,144.826 161.5,145C 160.531,149.737 160.197,154.57 160.5,159.5C 165.167,159.5 169.833,159.5 174.5,159.5C 174.5,161.167 174.5,162.833 174.5,164.5C 169.901,164.2 165.401,164.533 161,165.5C 160.501,170.489 160.334,175.489 160.5,180.5C 165.5,180.5 170.5,180.5 175.5,180.5C 175.5,182.167 175.5,183.833 175.5,185.5C 168.833,185.5 162.167,185.5 155.5,185.5C 154.504,170.676 154.171,155.676 154.5,140.5C 161.833,140.5 169.167,140.5 176.5,140.5C 176.5,141.5 176.5,142.5 176.5,143.5 Z"/></g>
<g><path style="opacity:1" fill="#427040" d="M 207.5,138.5 C 209.153,145.262 209.82,152.262 209.5,159.5C 208.683,157.031 208.183,154.365 208,151.5C 207.501,155.486 207.334,159.486 207.5,163.5C 206.416,156.017 205.749,148.35 205.5,140.5C 206.317,142.969 206.817,145.635 207,148.5C 207.498,145.183 207.665,141.85 207.5,138.5 Z"/></g>
<g><path style="opacity:1" fill="#87d26e" d="M 152.5,138.5 C 160.174,138.334 167.841,138.5 175.5,139C 168.174,139.5 160.841,139.666 153.5,139.5C 153.667,151.838 153.5,164.171 153,176.5C 152.5,163.838 152.333,151.171 152.5,138.5 Z"/></g>
<g><path style="opacity:1" fill="#0a0f0b" d="M 141.5,143.5 C 145.314,148.118 146.48,153.451 145,159.5C 142.714,162.104 140.881,164.937 139.5,168C 141.214,173.646 143.214,179.146 145.5,184.5C 143.604,185.466 141.604,185.799 139.5,185.5C 137.905,179.717 135.905,174.051 133.5,168.5C 131.604,167.534 129.604,167.201 127.5,167.5C 127.5,173.5 127.5,179.5 127.5,185.5C 125.833,185.5 124.167,185.5 122.5,185.5C 122.043,176.63 121.043,167.964 119.5,159.5C 119.473,152.814 119.139,146.148 118.5,139.5C 124.509,139.334 130.509,139.501 136.5,140C 138.323,140.997 139.99,142.164 141.5,143.5 Z"/></g>
<g><path style="opacity:1" fill="#72a651" d="M 126.5,144.5 C 135.916,143.75 140.083,148.083 139,157.5C 136.843,163.368 132.843,165.035 127,162.5C 125.261,156.505 125.094,150.505 126.5,144.5 Z"/></g>
<g><path style="opacity:1" fill="#060907" d="M 129.5,147.5 C 135.795,147.984 137.961,151.317 136,157.5C 134.419,160.553 132.086,161.22 129,159.5C 128.238,155.413 128.404,151.413 129.5,147.5 Z"/></g>
<g><path style="opacity:1" fill="#090d0b" d="M 57.5,140.5 C 63.5,140.5 69.5,140.5 75.5,140.5C 75.33,141.822 75.6634,142.989 76.5,144C 72.1794,144.499 67.8461,144.666 63.5,144.5C 63.3398,146.199 63.5065,147.866 64,149.5C 69.6667,157.167 75.3333,164.833 81,172.5C 82.731,176.629 82.8977,180.796 81.5,185C 76.1771,185.499 70.8437,185.666 65.5,185.5C 65.5,183.833 65.5,182.167 65.5,180.5C 69.5138,180.666 73.5138,180.499 77.5,180C 77.9574,179.586 78.2907,179.086 78.5,178.5C 72.9074,170.072 66.7408,162.072 60,154.5C 56.697,150.197 55.8637,145.53 57.5,140.5 Z"/></g>
<g><path style="opacity:1" fill="#7aae5b" d="M 79.5,137.5 C 90.505,137.333 101.505,137.5 112.5,138C 115.656,146.682 112.656,149.849 103.5,147.5C 105.163,160.803 106.496,174.136 107.5,187.5C 104.167,187.5 100.833,187.5 97.5,187.5C 95.8326,174.163 94.1659,160.83 92.5,147.5C 88.5,147.5 84.5,147.5 80.5,147.5C 79.9492,144.193 79.6159,140.86 79.5,137.5 Z"/></g>
<g><path style="opacity:1" fill="#42672f" d="M 110.5,140.5 C 111.451,141.919 111.784,143.585 111.5,145.5C 108.167,145.5 104.833,145.5 101.5,145.5C 104.287,144.523 107.287,144.19 110.5,144.5C 110.5,143.167 110.5,141.833 110.5,140.5 Z"/></g>
<g><path style="opacity:1" fill="#050907" d="M 110.5,140.5 C 110.5,141.833 110.5,143.167 110.5,144.5C 107.287,144.19 104.287,144.523 101.5,145.5C 101.492,158.445 102.825,171.445 105.5,184.5C 103.604,185.466 101.604,185.799 99.5,185.5C 98.0772,172.452 96.2438,159.452 94,146.5C 93.5,146 93,145.5 92.5,145C 89.1832,144.502 85.8499,144.335 82.5,144.5C 82.5,143.5 82.5,142.5 82.5,141.5C 91.6517,140.506 100.985,140.173 110.5,140.5 Z"/></g>
<g><path style="opacity:1" fill="#2c5412" d="M 110.5,140.5 C 100.985,140.173 91.6517,140.506 82.5,141.5C 81.9569,141.44 81.6236,141.107 81.5,140.5C 91.3254,139.177 100.992,139.177 110.5,140.5 Z"/></g>
<g><path style="opacity:1" fill="#165012" d="M 175.5,166.5 C 171.702,167.483 167.702,167.817 163.5,167.5C 163.806,170.385 163.473,173.052 162.5,175.5C 162.5,172.5 162.5,169.5 162.5,166.5C 166.833,166.5 171.167,166.5 175.5,166.5 Z"/></g>
<g><path style="opacity:1" fill="#090d08" d="M 205.5,140.5 C 205.749,148.35 206.416,156.017 207.5,163.5C 207.5,170.833 207.5,178.167 207.5,185.5C 205.833,185.5 204.167,185.5 202.5,185.5C 202.663,183.143 202.497,180.81 202,178.5C 197.55,177.2 193.05,177.2 188.5,178.5C 187.833,180.5 187.167,182.5 186.5,184.5C 184.955,185.452 183.288,185.785 181.5,185.5C 184.859,170.064 188.526,154.731 192.5,139.5C 197.032,139.182 201.366,139.515 205.5,140.5 Z"/></g>
<g><path style="opacity:1" fill="#0a1008" d="M 198.5,155.5 C 198.5,160.5 198.5,165.5 198.5,170.5C 196.833,170.5 195.167,170.5 193.5,170.5C 194.268,164.021 195.768,157.687 198,151.5C 198.49,152.793 198.657,154.127 198.5,155.5 Z"/></g>
<g><path style="opacity:1" fill="#9ec99e" d="M 199.5,146.5 C 199.81,149.713 199.477,152.713 198.5,155.5C 198.657,154.127 198.49,152.793 198,151.5C 195.768,157.687 194.268,164.021 193.5,170.5C 193.062,170.435 192.728,170.601 192.5,171C 194.119,171.236 195.119,172.069 195.5,173.5C 192.41,174.17 190.743,173.003 190.5,170C 192.538,162.887 194.371,155.72 196,148.5C 196.71,147.027 197.876,146.36 199.5,146.5 Z"/></g>
<g><path style="opacity:1" fill="#609b5c" d="M 199.5,146.5 C 201.097,155.283 201.764,164.283 201.5,173.5C 199.5,173.5 197.5,173.5 195.5,173.5C 195.119,172.069 194.119,171.236 192.5,171C 192.728,170.601 193.062,170.435 193.5,170.5C 195.167,170.5 196.833,170.5 198.5,170.5C 198.5,165.5 198.5,160.5 198.5,155.5C 199.477,152.713 199.81,149.713 199.5,146.5 Z"/></g>
<g><path style="opacity:1" fill="#064802" d="M 162.5,176.5 C 166.937,177.113 171.27,177.78 175.5,178.5C 170.706,179.097 166.373,178.43 162.5,176.5 Z"/></g>
<g><path style="opacity:1" fill="#6ab263" d="M 163.5,147.5 C 163.5,150.833 163.5,154.167 163.5,157.5C 167.514,157.334 171.514,157.501 175.5,158C 176.786,160.832 176.786,163.665 175.5,166.5C 171.167,166.5 166.833,166.5 162.5,166.5C 162.5,169.5 162.5,172.5 162.5,175.5C 162.5,175.833 162.5,176.167 162.5,176.5C 166.373,178.43 170.706,179.097 175.5,178.5C 177.388,180.988 178.055,183.988 177.5,187.5C 169.833,187.5 162.167,187.5 154.5,187.5C 154.833,186.833 155.167,186.167 155.5,185.5C 162.167,185.5 168.833,185.5 175.5,185.5C 175.5,183.833 175.5,182.167 175.5,180.5C 170.5,180.5 165.5,180.5 160.5,180.5C 160.334,175.489 160.501,170.489 161,165.5C 165.401,164.533 169.901,164.2 174.5,164.5C 174.5,162.833 174.5,161.167 174.5,159.5C 169.833,159.5 165.167,159.5 160.5,159.5C 160.197,154.57 160.531,149.737 161.5,145C 166.684,144.826 171.684,144.326 176.5,143.5C 177.26,141.776 177.593,140.11 177.5,138.5C 178.48,141.086 178.813,143.753 178.5,146.5C 173.305,146.179 168.305,146.513 163.5,147.5 Z"/></g>
<g><path style="opacity:1" fill="#4c9a49" d="M 246.5,187.5 C 244.167,187.5 241.833,187.5 239.5,187.5C 239.67,181.473 239.837,175.473 240,169.5C 238.02,172.604 236.52,175.937 235.5,179.5C 232.914,180.48 230.247,180.813 227.5,180.5C 227.823,176.774 227.489,173.107 226.5,169.5C 224.823,175.585 223.156,181.585 221.5,187.5C 218.5,187.5 215.5,187.5 212.5,187.5C 212.5,186.167 212.5,184.833 212.5,183.5C 215.009,169.459 217.842,155.459 221,141.5C 221.465,140.069 222.299,138.903 223.5,138C 226.817,137.502 230.15,137.335 233.5,137.5C 233.971,144.843 234.638,152.177 235.5,159.5C 238.555,152.389 241.888,145.389 245.5,138.5C 248.758,137.583 252.091,137.249 255.5,137.5C 254.642,153.695 252.309,169.695 248.5,185.5C 248.253,186.713 247.586,187.38 246.5,187.5 Z"/></g>
<g><path style="opacity:1" fill="#060c07" d="M 223.5,140.5 C 225.833,140.5 228.167,140.5 230.5,140.5C 231.827,149.104 232.493,157.771 232.5,166.5C 233.675,166.719 234.675,166.386 235.5,165.5C 239.423,157.578 243.256,149.578 247,141.5C 249.041,140.577 251.208,140.244 253.5,140.5C 251.073,155.487 248.74,170.487 246.5,185.5C 244.833,185.5 243.167,185.5 241.5,185.5C 242.506,176.783 243.84,168.116 245.5,159.5C 243.856,159.286 242.356,159.62 241,160.5C 238.205,166.417 235.705,172.417 233.5,178.5C 232.5,178.5 231.5,178.5 230.5,178.5C 229.628,172.211 229.295,165.878 229.5,159.5C 227.856,159.286 226.356,159.62 225,160.5C 223.648,168.573 221.981,176.573 220,184.5C 218.301,185.406 216.467,185.739 214.5,185.5C 217.662,170.521 220.662,155.521 223.5,140.5 Z"/></g>
<g><path style="opacity:1" fill="#6ea952" d="M 142.5,141.5 C 142.833,141.5 143.167,141.5 143.5,141.5C 148.056,145.837 149.556,151.17 148,157.5C 146.363,161.292 144.53,164.959 142.5,168.5C 144.906,174.718 146.906,181.052 148.5,187.5C 144.833,187.5 141.167,187.5 137.5,187.5C 136.51,181.175 134.177,175.509 130.5,170.5C 130.279,176.065 130.279,181.732 130.5,187.5C 126.894,187.789 123.394,187.456 120,186.5C 119.827,180.984 119.327,175.651 118.5,170.5C 118.5,168.833 118.5,167.167 118.5,165.5C 118.205,163.265 118.539,161.265 119.5,159.5C 121.043,167.964 122.043,176.63 122.5,185.5C 124.167,185.5 125.833,185.5 127.5,185.5C 127.5,179.5 127.5,173.5 127.5,167.5C 129.604,167.201 131.604,167.534 133.5,168.5C 135.905,174.051 137.905,179.717 139.5,185.5C 141.604,185.799 143.604,185.466 145.5,184.5C 143.214,179.146 141.214,173.646 139.5,168C 140.881,164.937 142.714,162.104 145,159.5C 146.48,153.451 145.314,148.118 141.5,143.5C 141.328,142.508 141.662,141.842 142.5,141.5 Z"/></g>
<g><path style="opacity:1" fill="#4fac4b" d="M 209.5,159.5 C 209.5,162.833 209.5,166.167 209.5,169.5C 209.5,175.5 209.5,181.5 209.5,187.5C 207.833,187.5 206.167,187.5 204.5,187.5C 203.833,186.833 203.167,186.167 202.5,185.5C 204.167,185.5 205.833,185.5 207.5,185.5C 207.5,178.167 207.5,170.833 207.5,163.5C 207.334,159.486 207.501,155.486 208,151.5C 208.183,154.365 208.683,157.031 209.5,159.5 Z"/></g>
<g><path style="opacity:1" fill="#1c4519" d="M 209.5,169.5 C 210.326,174.316 210.826,179.316 211,184.5C 211.383,183.944 211.883,183.611 212.5,183.5C 212.5,184.833 212.5,186.167 212.5,187.5C 215.5,187.5 218.5,187.5 221.5,187.5C 218.038,188.482 214.371,188.815 210.5,188.5C 206.958,188.813 203.625,188.479 200.5,187.5C 201.833,187.5 203.167,187.5 204.5,187.5C 206.167,187.5 207.833,187.5 209.5,187.5C 209.5,181.5 209.5,175.5 209.5,169.5 Z"/></g>
<g><path style="opacity:1" fill="#060b06" d="M 246.5,187.5 C 244.248,188.957 244.581,190.457 247.5,192C 253.681,192.172 259.681,192.672 265.5,193.5C 260.156,193.334 254.823,193.501 249.5,194C 246.417,194.786 244.251,196.619 243,199.5C 242.501,203.152 242.335,206.818 242.5,210.5C 240.178,212.586 238.178,215.086 236.5,218C 235.552,218.483 234.552,218.649 233.5,218.5C 239.902,212.626 241.569,205.626 238.5,197.5C 236.972,196.139 235.305,194.972 233.5,194C 227.833,193.333 222.167,193.333 216.5,194C 213.367,207.297 211.033,220.797 209.5,234.5C 208.833,233.833 208.167,233.167 207.5,232.5C 207.5,230.833 207.5,229.167 207.5,227.5C 203.833,227.5 200.167,227.5 196.5,227.5C 196.5,224.5 196.5,221.5 196.5,218.5C 200.182,218.665 203.848,218.499 207.5,218C 208.833,215.667 208.833,213.333 207.5,211C 204.183,210.502 200.85,210.335 197.5,210.5C 197.5,207.833 197.5,205.167 197.5,202.5C 202.167,202.5 206.833,202.5 211.5,202.5C 212.159,199.545 212.492,196.545 212.5,193.5C 214.379,193.607 214.712,193.107 213.5,192C 211.754,191.529 210.087,190.862 208.5,190C 209.416,189.722 210.082,189.222 210.5,188.5C 214.371,188.815 218.038,188.482 221.5,187.5C 223.156,181.585 224.823,175.585 226.5,169.5C 227.489,173.107 227.823,176.774 227.5,180.5C 230.247,180.813 232.914,180.48 235.5,179.5C 236.52,175.937 238.02,172.604 240,169.5C 239.837,175.473 239.67,181.473 239.5,187.5C 241.833,187.5 244.167,187.5 246.5,187.5 Z"/></g>
<g><path style="opacity:1" fill="#070e07" d="M 77.5,137.5 C 78.1667,137.5 78.8333,137.5 79.5,137.5C 79.6159,140.86 79.9492,144.193 80.5,147.5C 84.5,147.5 88.5,147.5 92.5,147.5C 94.1659,160.83 95.8326,174.163 97.5,187.5C 100.833,187.5 104.167,187.5 107.5,187.5C 105.889,189.095 103.889,190.261 101.5,191C 103.298,192.505 105.132,192.672 107,191.5C 107.995,192.066 108.828,192.733 109.5,193.5C 105.833,193.5 102.167,193.5 98.5,193.5C 98.2627,194.791 98.596,195.791 99.5,196.5C 103.692,207.742 107.692,219.075 111.5,230.5C 110.504,230.586 109.671,230.252 109,229.5C 108.411,231.863 106.911,232.863 104.5,232.5C 105.363,234.895 105.363,237.229 104.5,239.5C 101.807,237.73 98.8066,237.063 95.5,237.5C 93.7518,234.365 92.0852,231.032 90.5,227.5C 89.4174,229.792 89.4174,232.125 90.5,234.5C 90.378,236.994 89.378,237.661 87.5,236.5C 85.8333,237.167 84.1667,237.833 82.5,238.5C 80.8779,237.067 79.5446,235.401 78.5,233.5C 77.2528,235.006 77.2528,236.506 78.5,238C 77.2688,239.967 76.2688,239.801 75.5,237.5C 72.8929,236.682 70.2263,236.182 67.5,236C 66.5939,234.301 66.2606,232.467 66.5,230.5C 67.339,231.641 68.0057,232.974 68.5,234.5C 71.0865,235.48 73.7531,235.813 76.5,235.5C 73.9047,221.445 70.2381,207.779 65.5,194.5C 62.7131,193.523 59.7131,193.19 56.5,193.5C 58.9686,192.683 61.6353,192.183 64.5,192C 63.8333,191.667 63.1667,191.333 62.5,191C 67.1667,190.667 71.8333,190.333 76.5,190C 76.8333,189.667 77.1667,189.333 77.5,189C 73.6437,188.823 69.977,188.323 66.5,187.5C 72.2055,187.829 77.8722,187.495 83.5,186.5C 85.3912,183.038 85.8912,179.372 85,175.5C 82.8353,171.838 80.6686,168.171 78.5,164.5C 82.8024,164.818 85.1357,167.152 85.5,171.5C 86.3214,168.553 86.8214,165.553 87,162.5C 87.9078,160.561 89.4078,159.561 91.5,159.5C 90.7564,155.881 90.423,152.215 90.5,148.5C 83.8333,148.5 77.1667,148.5 70.5,148.5C 70.5172,150.565 70.8505,152.565 71.5,154.5C 69.4167,152.576 67.4167,150.409 65.5,148C 69.5,147.667 73.5,147.333 77.5,147C 77.781,143.983 77.781,140.817 77.5,137.5 Z"/></g>
<g><path style="opacity:1" fill="#3b621e" d="M 56.5,193.5 C 59.7131,193.19 62.7131,193.523 65.5,194.5C 62.8333,194.5 60.1667,194.5 57.5,194.5C 57.5,195.5 57.5,196.5 57.5,197.5C 56.5655,196.432 56.2322,195.099 56.5,193.5 Z"/></g>
<g><path style="opacity:1" fill="#7db263" d="M 97.5,201.5 C 96.5655,202.568 96.2322,203.901 96.5,205.5C 95.525,202.689 94.8583,199.689 94.5,196.5C 93.0222,196.238 91.6888,196.571 90.5,197.5C 91.4317,204.367 93.0984,211.033 95.5,217.5C 95.1667,218.5 94.5,219.167 93.5,219.5C 88.1787,212.205 82.8454,204.871 77.5,197.5C 76.1667,196.167 74.8333,196.167 73.5,197.5C 77.0058,209.359 80.0058,221.359 82.5,233.5C 83.8734,233.657 85.2068,233.49 86.5,233C 85.1849,229.261 84.1849,225.428 83.5,221.5C 84.1667,221.5 84.8333,221.5 85.5,221.5C 87.4422,225.939 88.4422,230.606 88.5,235.5C 86.1432,235.663 83.8098,235.497 81.5,235C 78.0865,223.951 74.9198,212.784 72,201.5C 71.5026,198.854 71.3359,196.187 71.5,193.5C 75.594,192.705 78.7607,194.038 81,197.5C 84.3333,202.833 87.6667,208.167 91,213.5C 89.7326,206.967 88.8992,200.3 88.5,193.5C 91.1873,193.336 93.854,193.503 96.5,194C 97.435,196.381 97.7683,198.881 97.5,201.5 Z"/></g>
<g><path style="opacity:1" fill="#284627" d="M 109.5,193.5 C 110.625,194.652 110.625,195.652 109.5,196.5C 109.389,195.883 109.056,195.383 108.5,195C 107,194.833 105.5,194.667 104,194.5C 102.014,194.569 100.514,195.235 99.5,196.5C 98.596,195.791 98.2627,194.791 98.5,193.5C 102.167,193.5 105.833,193.5 109.5,193.5 Z"/></g>
<g><path style="opacity:1" fill="#4c9549" d="M 265.5,193.5 C 265.149,196.238 264.482,198.904 263.5,201.5C 260.232,202.487 256.898,202.82 253.5,202.5C 254.654,209.103 255.987,215.603 257.5,222C 257.494,227.006 255.827,231.34 252.5,235C 246.843,235.499 241.176,235.666 235.5,235.5C 235.575,232.794 235.908,230.127 236.5,227.5C 240.167,227.5 243.833,227.5 247.5,227.5C 246.653,222.112 245.487,216.779 244,211.5C 243.617,210.944 243.117,210.611 242.5,210.5C 242.335,206.818 242.501,203.152 243,199.5C 244.251,196.619 246.417,194.786 249.5,194C 254.823,193.501 260.156,193.334 265.5,193.5 Z"/></g>
<g><path style="opacity:1" fill="#71a16d" d="M 159.5,194.5 C 164.985,193.348 170.651,193.182 176.5,194C 179.474,197.128 181.807,200.628 183.5,204.5C 183.5,205.833 182.833,206.5 181.5,206.5C 180.944,202.77 179.278,199.603 176.5,197C 171.177,196.501 165.844,196.334 160.5,196.5C 165.316,195.674 170.316,195.174 175.5,195C 170.177,194.501 164.844,194.334 159.5,194.5 Z"/></g>
<g><path style="opacity:1" fill="#5ba154" d="M 159.5,194.5 C 164.844,194.334 170.177,194.501 175.5,195C 170.316,195.174 165.316,195.674 160.5,196.5C 160.5,205.833 160.5,215.167 160.5,224.5C 159.518,227.962 159.185,231.629 159.5,235.5C 158.883,235.389 158.383,235.056 158,234.5C 157.833,227.833 157.667,221.167 157.5,214.5C 157.503,207.465 158.17,200.798 159.5,194.5 Z"/></g>
<g><path style="opacity:1" fill="#081008" d="M 249.5,196.5 C 253.833,196.5 258.167,196.5 262.5,196.5C 262.5,197.5 262.5,198.5 262.5,199.5C 258.818,199.335 255.152,199.501 251.5,200C 250.572,200.388 249.905,201.055 249.5,202C 251.813,208.921 253.813,215.921 255.5,223C 254.029,233.254 248.362,236.42 238.5,232.5C 238.709,231.914 239.043,231.414 239.5,231C 242.5,230.667 245.5,230.333 248.5,230C 249.624,229.161 250.291,227.994 250.5,226.5C 249.105,218.984 247.105,211.651 244.5,204.5C 244.672,200.807 246.339,198.141 249.5,196.5 Z"/></g>
<g><path style="opacity:1" fill="#77ae57" d="M 65.5,194.5 C 70.2381,207.779 73.9047,221.445 76.5,235.5C 73.7531,235.813 71.0865,235.48 68.5,234.5C 68.0057,232.974 67.339,231.641 66.5,230.5C 63.123,219.622 60.123,208.622 57.5,197.5C 57.5,196.5 57.5,195.5 57.5,194.5C 60.1667,194.5 62.8333,194.5 65.5,194.5 Z"/></g>
<g><path style="opacity:1" fill="#9bbf97" d="M 97.5,201.5 C 98.6874,204.946 99.3541,208.613 99.5,212.5C 99.4431,213.609 99.1098,214.609 98.5,215.5C 97.4192,212.373 96.7526,209.04 96.5,205.5C 96.2322,203.901 96.5655,202.568 97.5,201.5 Z"/></g>
<g><path style="opacity:1" fill="#0a110c" d="M 96.5,205.5 C 96.7526,209.04 97.4192,212.373 98.5,215.5C 98.9263,221.461 99.9263,227.294 101.5,233C 101,233.167 100.5,233.333 100,233.5C 95.2772,227.618 90.7772,221.618 86.5,215.5C 86.0107,212.676 84.344,211.343 81.5,211.5C 81.5399,214.988 82.2066,218.321 83.5,221.5C 84.1849,225.428 85.1849,229.261 86.5,233C 85.2068,233.49 83.8734,233.657 82.5,233.5C 80.0058,221.359 77.0058,209.359 73.5,197.5C 74.8333,196.167 76.1667,196.167 77.5,197.5C 82.8454,204.871 88.1787,212.205 93.5,219.5C 94.5,219.167 95.1667,218.5 95.5,217.5C 93.0984,211.033 91.4317,204.367 90.5,197.5C 91.6888,196.571 93.0222,196.238 94.5,196.5C 94.8583,199.689 95.525,202.689 96.5,205.5 Z"/></g>
<g><path style="opacity:1" fill="#7abf55" d="M 86.5,215.5 C 86.5,216.5 86.5,217.5 86.5,218.5C 85.596,219.209 85.2627,220.209 85.5,221.5C 84.8333,221.5 84.1667,221.5 83.5,221.5C 82.2066,218.321 81.5399,214.988 81.5,211.5C 84.344,211.343 86.0107,212.676 86.5,215.5 Z"/></g>
<g><path style="opacity:1" fill="#4b9649" d="M 212.5,193.5 C 212.492,196.545 212.159,199.545 211.5,202.5C 206.833,202.5 202.167,202.5 197.5,202.5C 197.5,205.167 197.5,207.833 197.5,210.5C 200.85,210.335 204.183,210.502 207.5,211C 208.833,213.333 208.833,215.667 207.5,218C 203.848,218.499 200.182,218.665 196.5,218.5C 196.5,221.5 196.5,224.5 196.5,227.5C 200.167,227.5 203.833,227.5 207.5,227.5C 207.5,229.167 207.5,230.833 207.5,232.5C 207.67,233.822 207.337,234.989 206.5,236C 199.586,236.811 192.752,236.645 186,235.5C 185.946,221.532 187.113,207.699 189.5,194C 197.159,193.5 204.826,193.334 212.5,193.5 Z"/></g>
<g><path style="opacity:1" fill="#070a06" d="M 195.5,212.5 C 198.689,213.166 202.023,213.833 205.5,214.5C 202.023,215.167 198.689,215.834 195.5,216.5C 194.223,217.694 193.556,219.36 193.5,221.5C 193.127,224.209 192.96,226.876 193,229.5C 197.08,230.3 201.247,230.8 205.5,231C 205.043,231.414 204.709,231.914 204.5,232.5C 199.208,233.495 193.875,233.828 188.5,233.5C 189.263,221.146 190.263,208.813 191.5,196.5C 197.5,196.5 203.5,196.5 209.5,196.5C 209.5,197.5 209.5,198.5 209.5,199.5C 205.154,199.334 200.821,199.501 196.5,200C 195.652,203.256 194.985,206.589 194.5,210C 194.528,211.07 194.861,211.903 195.5,212.5 Z"/></g>
<g><path style="opacity:1" fill="#11440e" d="M 195.5,212.5 C 199.167,212.5 202.833,212.5 206.5,212.5C 206.5,213.833 206.5,215.167 206.5,216.5C 202.833,216.5 199.167,216.5 195.5,216.5C 198.689,215.834 202.023,215.167 205.5,214.5C 202.023,213.833 198.689,213.166 195.5,212.5 Z"/></g>
<g><path style="opacity:1" fill="#0a110d" d="M 59.5,196.5 C 61.1667,196.5 62.8333,196.5 64.5,196.5C 67.6578,208.798 70.6578,221.131 73.5,233.5C 72.1667,233.5 70.8333,233.5 69.5,233.5C 66.3239,221.129 62.9906,208.796 59.5,196.5 Z"/></g>
<g><path style="opacity:1" fill="#6aa251" d="M 127.5,193.5 C 127.5,198.167 127.5,202.833 127.5,207.5C 126.412,216.799 125.746,226.133 125.5,235.5C 121.167,235.5 116.833,235.5 112.5,235.5C 112.371,233.784 112.038,232.117 111.5,230.5C 107.692,219.075 103.692,207.742 99.5,196.5C 100.514,195.235 102.014,194.569 104,194.5C 105.5,194.667 107,194.833 108.5,195C 109.056,195.383 109.389,195.883 109.5,196.5C 111.091,199.961 111.758,203.628 111.5,207.5C 109.712,204.452 108.212,201.118 107,197.5C 105.274,196.424 103.441,196.257 101.5,197C 106.928,208.785 111.262,220.952 114.5,233.5C 117.167,233.5 119.833,233.5 122.5,233.5C 123.302,221.147 124.302,208.813 125.5,196.5C 123.833,196.5 122.167,196.5 120.5,196.5C 120.823,203.022 120.49,209.355 119.5,215.5C 119.666,210.489 119.499,205.489 119,200.5C 118.814,203.036 118.314,205.369 117.5,207.5C 117.228,203.098 117.561,198.765 118.5,194.5C 121.428,193.516 124.428,193.183 127.5,193.5 Z"/></g>
<g><path style="opacity:1" fill="#4a9446" d="M 233.5,218.5 C 232.6,224 232.6,229.667 233.5,235.5C 230.428,235.817 227.428,235.484 224.5,234.5C 222.183,218.77 220.516,219.103 219.5,235.5C 215.958,235.813 212.625,235.479 209.5,234.5C 211.033,220.797 213.367,207.297 216.5,194C 222.167,193.333 227.833,193.333 233.5,194C 235.305,194.972 236.972,196.139 238.5,197.5C 241.569,205.626 239.902,212.626 233.5,218.5 Z"/></g>
<g><path style="opacity:1" fill="#080d08" d="M 218.5,196.5 C 223.844,196.334 229.177,196.501 234.5,197C 235.333,197.833 236.167,198.667 237,199.5C 239.209,206.949 237.043,212.616 230.5,216.5C 230.167,218.167 229.833,219.833 229.5,221.5C 230.023,225.489 230.356,229.489 230.5,233.5C 229.167,233.5 227.833,233.5 226.5,233.5C 226.494,228.785 225.994,224.118 225,219.5C 223,218.167 221,218.167 219,219.5C 217.714,224.096 216.881,228.763 216.5,233.5C 215.167,233.5 213.833,233.5 212.5,233.5C 214.393,221.141 216.393,208.808 218.5,196.5 Z"/></g>
<g><path style="opacity:1" fill="#4c9147" d="M 222.5,199.5 C 231.507,198.011 234.674,201.677 232,210.5C 230.471,211.729 229.304,213.229 228.5,215C 225.518,215.498 222.518,215.665 219.5,215.5C 220.074,210.055 221.074,204.721 222.5,199.5 Z"/></g>
<g><path style="opacity:1" fill="#081006" d="M 224.5,202.5 C 226.167,202.5 227.833,202.5 229.5,202.5C 229.789,205.649 229.289,208.649 228,211.5C 226.644,212.38 225.144,212.714 223.5,212.5C 223.253,209.061 223.586,205.728 224.5,202.5 Z"/></g>
<g><path style="opacity:1" fill="#091009" d="M 160.5,196.5 C 165.844,196.334 171.177,196.501 176.5,197C 179.278,199.603 180.944,202.77 181.5,206.5C 182.963,216.034 180.963,224.701 175.5,232.5C 174.311,233.429 172.978,233.762 171.5,233.5C 167.833,233.5 164.167,233.5 160.5,233.5C 160.5,230.5 160.5,227.5 160.5,224.5C 160.5,215.167 160.5,205.833 160.5,196.5 Z"/></g>
<g><path style="opacity:1" fill="#78a876" d="M 165.5,199.5 C 174.626,199.167 178.293,203.667 176.5,213C 176.878,218.456 175.878,223.622 173.5,228.5C 170.572,229.484 167.572,229.817 164.5,229.5C 164.242,219.461 164.576,209.461 165.5,199.5 Z"/></g>
<g><path style="opacity:1" fill="#050a06" d="M 167.5,202.5 C 173.339,202.441 175.672,205.441 174.5,211.5C 174.464,216.72 173.464,221.72 171.5,226.5C 170.311,227.429 168.978,227.762 167.5,227.5C 167.5,219.167 167.5,210.833 167.5,202.5 Z"/></g>
<g><path style="opacity:1" fill="#080e09" d="M 111.5,207.5 C 112.39,213.957 113.89,220.291 116,226.5C 117,227.833 118,227.833 119,226.5C 119.499,222.848 119.665,219.182 119.5,215.5C 120.49,209.355 120.823,203.022 120.5,196.5C 122.167,196.5 123.833,196.5 125.5,196.5C 124.302,208.813 123.302,221.147 122.5,233.5C 119.833,233.5 117.167,233.5 114.5,233.5C 111.262,220.952 106.928,208.785 101.5,197C 103.441,196.257 105.274,196.424 107,197.5C 108.212,201.118 109.712,204.452 111.5,207.5 Z"/></g>
<g><path style="opacity:1" fill="#78bd59" d="M 119.5,215.5 C 119.665,219.182 119.499,222.848 119,226.5C 118,227.833 117,227.833 116,226.5C 113.89,220.291 112.39,213.957 111.5,207.5C 112.497,207.47 113.164,207.97 113.5,209C 116.939,222.876 118.273,222.376 117.5,207.5C 118.314,205.369 118.814,203.036 119,200.5C 119.499,205.489 119.666,210.489 119.5,215.5 Z"/></g>
<g><path style="opacity:1" fill="#5ba350" d="M 148.5,235.5 C 147.833,235.5 147.5,235.167 147.5,234.5C 147.5,232.833 147.5,231.167 147.5,229.5C 144.833,229.5 142.167,229.5 139.5,229.5C 139.643,231.262 139.309,232.929 138.5,234.5C 135.572,235.484 132.572,235.817 129.5,235.5C 130.34,221.765 131.84,208.098 134,194.5C 138.413,193.368 142.913,193.201 147.5,194C 151.578,207.551 154.578,221.385 156.5,235.5C 153.833,235.5 151.167,235.5 148.5,235.5 Z"/></g>
<g><path style="opacity:1" fill="#080e0a" d="M 136.5,196.5 C 139.833,196.5 143.167,196.5 146.5,196.5C 148.726,208.853 151.059,221.187 153.5,233.5C 152.167,233.5 150.833,233.5 149.5,233.5C 150.174,228.174 147.841,225.841 142.5,226.5C 137.094,225.748 135.094,228.082 136.5,233.5C 135.167,233.5 133.833,233.5 132.5,233.5C 133.234,221.088 134.568,208.755 136.5,196.5 Z"/></g>
<g><path style="opacity:1" fill="#60aa52" d="M 139.5,200.5 C 140.822,200.33 141.989,200.663 143,201.5C 144.5,208.167 146,214.833 147.5,221.5C 147.392,222.442 147.059,223.275 146.5,224C 143.571,224.777 140.737,224.61 138,223.5C 137.705,215.785 138.205,208.119 139.5,200.5 Z"/></g>
<g><path style="opacity:1" fill="#061803" d="M 141.5,209.5 C 142.992,213.264 143.992,217.264 144.5,221.5C 143.167,221.5 141.833,221.5 140.5,221.5C 140.307,217.434 140.64,213.434 141.5,209.5 Z"/></g>
<g><path style="opacity:1" fill="#50984c" d="M 183.5,204.5 C 183.833,204.5 184.167,204.5 184.5,204.5C 186.067,215.23 183.733,224.896 177.5,233.5C 175.858,235.081 173.858,235.747 171.5,235.5C 171.5,234.833 171.5,234.167 171.5,233.5C 172.978,233.762 174.311,233.429 175.5,232.5C 180.963,224.701 182.963,216.034 181.5,206.5C 182.833,206.5 183.5,205.833 183.5,204.5 Z"/></g>
<g><path style="opacity:1" fill="#9cc89a" d="M 160.5,224.5 C 160.5,227.5 160.5,230.5 160.5,233.5C 164.167,233.5 167.833,233.5 171.5,233.5C 171.5,234.167 171.5,234.833 171.5,235.5C 167.5,235.5 163.5,235.5 159.5,235.5C 159.185,231.629 159.518,227.962 160.5,224.5 Z"/></g>
<g><path style="opacity:1" fill="#83b569" d="M 99.5,212.5 C 102.002,219.84 103.335,227.507 103.5,235.5C 101.473,235.662 99.4727,235.495 97.5,235C 94.0036,229.346 90.337,223.846 86.5,218.5C 86.5,217.5 86.5,216.5 86.5,215.5C 90.7772,221.618 95.2772,227.618 100,233.5C 100.5,233.333 101,233.167 101.5,233C 99.9263,227.294 98.9263,221.461 98.5,215.5C 99.1098,214.609 99.4431,213.609 99.5,212.5 Z"/></g>
<g><path style="opacity:1" fill="#577857" d="M 115.5,259.5 C 119.075,259.762 122.742,260.096 126.5,260.5C 125.078,262.965 124.078,265.631 123.5,268.5C 122.526,266.257 122.192,263.924 122.5,261.5C 120.396,261.201 118.396,261.534 116.5,262.5C 120.021,263.15 121.021,264.983 119.5,268C 112.833,267.987 112.833,267.321 119.5,266C 118.109,264.98 116.609,264.147 115,263.5C 114.421,262.072 114.588,260.738 115.5,259.5 Z"/></g>
<g><path style="opacity:1" fill="#527551" d="M 178.5,259.5 C 179.376,259.369 180.043,259.702 180.5,260.5C 182.92,268.481 183.92,268.148 183.5,259.5C 189.842,259.139 191.842,261.972 189.5,268C 185.984,268.789 182.651,268.289 179.5,266.5C 178.328,266.919 177.328,267.585 176.5,268.5C 176.167,268.167 175.833,267.833 175.5,267.5C 176.9,264.965 177.9,262.298 178.5,259.5 Z"/></g>
<g><path style="opacity:1" fill="#070d04" d="M 185.5,261.5 C 186.5,261.5 187.5,261.5 188.5,261.5C 188.5,263.167 188.5,264.833 188.5,266.5C 187.5,266.5 186.5,266.5 185.5,266.5C 185.5,264.833 185.5,263.167 185.5,261.5 Z"/></g>
<g><path style="opacity:1" fill="#447941" d="M 81.5,259.5 C 83.0931,260.348 84.2597,261.681 85,263.5C 85.9358,258.387 87.2691,258.387 89,263.5C 89.49,262.207 89.6567,260.873 89.5,259.5C 91.9124,259.244 93.5791,260.244 94.5,262.5C 95.1667,261.5 95.8333,260.5 96.5,259.5C 98.4207,264.492 99.4207,264.492 99.5,259.5C 102.388,259.22 103.888,260.553 104,263.5C 104.923,262.241 105.757,260.908 106.5,259.5C 107.833,263.5 109.167,263.5 110.5,259.5C 110.833,259.833 111.167,260.167 111.5,260.5C 110.811,262.444 110.311,264.444 110,266.5C 109.586,266.957 109.086,267.291 108.5,267.5C 107.667,266.5 106.833,265.5 106,264.5C 105.781,265.938 105.281,267.271 104.5,268.5C 103.333,266.833 102.167,265.167 101,263.5C 100.64,265.421 99.8064,267.088 98.5,268.5C 97.1667,265.833 95.8333,265.833 94.5,268.5C 93.066,266.78 92.2326,264.78 92,262.5C 90.9274,264.547 89.7607,266.547 88.5,268.5C 87.7189,267.271 87.2189,265.938 87,264.5C 86.0766,265.759 85.2432,267.092 84.5,268.5C 83.0383,265.653 82.0383,262.653 81.5,259.5 Z"/></g>
<g><path style="opacity:1" fill="#4c784b" d="M 127.5,259.5 C 129.467,259.261 131.301,259.594 133,260.5C 133.006,262.809 133.172,264.975 133.5,267C 133.167,267.5 132.833,268 132.5,268.5C 131.614,267.675 131.281,266.675 131.5,265.5C 130.5,265.5 129.5,265.5 128.5,265.5C 127.223,266.317 126.89,264.317 127.5,259.5 Z"/></g>
<g><path style="opacity:1" fill="#557654" d="M 134.5,259.5 C 140.697,259.325 141.363,260.325 136.5,262.5C 140.378,263.885 140.378,265.051 136.5,266C 137.938,266.219 139.271,266.719 140.5,267.5C 138.604,268.466 136.604,268.799 134.5,268.5C 134.5,265.5 134.5,262.5 134.5,259.5 Z"/></g>
<g><path style="opacity:1" fill="#557f52" d="M 198.5,259.5 C 200.467,259.261 202.301,259.594 204,260.5C 203.786,263.274 203.786,265.94 204,268.5C 203.167,267.5 202.333,266.5 201.5,265.5C 200.667,266.5 199.833,267.5 199,268.5C 198.502,265.518 198.335,262.518 198.5,259.5 Z"/></g>
<g><path style="opacity:1" fill="#4e824d" d="M 215.5,259.5 C 217.193,260.475 218.693,261.808 220,263.5C 220.219,262.062 220.719,260.729 221.5,259.5C 222.833,262.5 222.833,265.5 221.5,268.5C 220.139,266.972 218.972,265.305 218,263.5C 217.781,264.938 217.281,266.271 216.5,267.5C 215.52,264.914 215.187,262.247 215.5,259.5 Z"/></g>
<g><path style="opacity:1" fill="#446143" d="M 158.5,259.5 C 159.117,259.611 159.617,259.944 160,260.5C 160.818,263.227 160.652,265.894 159.5,268.5C 158.516,265.572 158.183,262.572 158.5,259.5 Z"/></g>
<g><path style="opacity:1" fill="#4e7c4b" d="M 223.5,259.5 C 227.555,259.176 231.555,259.509 235.5,260.5C 233.933,262.896 233.1,265.563 233,268.5C 232.503,266.19 232.337,263.857 232.5,261.5C 230.076,261.192 227.743,261.526 225.5,262.5C 229.378,263.885 229.378,265.051 225.5,266C 226.938,266.219 228.271,266.719 229.5,267.5C 227.604,268.466 225.604,268.799 223.5,268.5C 223.5,265.5 223.5,262.5 223.5,259.5 Z"/></g>
<g><path style="opacity:1" fill="#50804d" d="M 143.5,259.5 C 144.496,259.414 145.329,259.748 146,260.5C 146.735,262.871 147.568,265.205 148.5,267.5C 148.167,267.833 147.833,268.167 147.5,268.5C 145.684,265.936 143.851,265.936 142,268.5C 141.749,265.406 142.249,262.406 143.5,259.5 Z"/></g>
<g><path style="opacity:1" fill="#377131" d="M 149.5,259.5 C 151.284,260.574 152.451,262.24 153,264.5C 153.687,262.445 154.854,260.779 156.5,259.5C 157.833,262.5 157.833,265.5 156.5,268.5C 155.719,267.271 155.219,265.938 155,264.5C 153.649,265.961 152.149,267.294 150.5,268.5C 149.516,265.572 149.183,262.572 149.5,259.5 Z"/></g>
<g><path style="opacity:1" fill="#507a4e" d="M 166.5,259.5 C 170.038,259.215 171.871,260.882 172,264.5C 172.583,262.998 173.416,261.665 174.5,260.5C 175.13,263.316 174.464,265.982 172.5,268.5C 171.052,266.333 169.885,264 169,261.5C 168.814,263.9 168.314,266.234 167.5,268.5C 166.108,267.395 164.941,266.061 164,264.5C 163.781,265.938 163.281,267.271 162.5,268.5C 161.167,265.833 161.167,263.167 162.5,260.5C 164.197,261.364 165.363,262.697 166,264.5C 166.494,262.866 166.66,261.199 166.5,259.5 Z"/></g>
<g><path style="opacity:1" fill="#5f7c5e" d="M 207.5,259.5 C 212.658,260.484 212.658,261.317 207.5,262C 208.563,263.188 209.897,263.688 211.5,263.5C 211.678,268.453 209.678,269.619 205.5,267C 207.167,266.667 208.833,266.333 210.5,266C 205.717,265.138 204.717,262.972 207.5,259.5 Z"/></g>
<g><path style="opacity:1" fill="#537551" d="M 191.5,259.5 C 197.697,259.325 198.363,260.325 193.5,262.5C 197.378,263.885 197.378,265.051 193.5,266C 194.938,266.219 196.271,266.719 197.5,267.5C 195.604,268.466 193.604,268.799 191.5,268.5C 191.5,265.5 191.5,262.5 191.5,259.5 Z"/></g>
</svg>
