<svg xmlns="http://www.w3.org/2000/svg" version="1.1" width="256px" height="256px" style="shape-rendering:geometricPrecision; text-rendering:geometricPrecision; image-rendering:optimizeQuality; fill-rule:evenodd; clip-rule:evenodd" xmlns:xlink="http://www.w3.org/1999/xlink">
<g><path style="opacity:0.709" fill="#fe8910" d="M 111.5,-0.5 C 122.167,-0.5 132.833,-0.5 143.5,-0.5C 205.86,11.8604 243.194,49.1937 255.5,111.5C 255.5,122.167 255.5,132.833 255.5,143.5C 243.198,205.802 205.864,243.136 143.5,255.5C 132.833,255.5 122.167,255.5 111.5,255.5C 49.1357,243.136 11.8023,205.802 -0.5,143.5C -0.5,132.833 -0.5,122.167 -0.5,111.5C 11.8063,49.1937 49.1396,11.8604 111.5,-0.5 Z"/></g>
<g><path style="opacity:1" fill="#fff2e2" d="M 115.5,11.5 C 118.305,12.3195 121.305,12.8195 124.5,13C 123.332,14.4056 123.665,15.5723 125.5,16.5C 124.91,17.7989 123.91,18.6322 122.5,19C 123.466,21.9328 123.466,24.5994 122.5,27C 121.833,27.3333 121.167,27.6667 120.5,28C 121.337,29.0113 121.67,30.1779 121.5,31.5C 119.473,31.3379 117.473,31.5045 115.5,32C 121.681,32.1724 127.681,32.6724 133.5,33.5C 126.745,33.2066 120.078,33.5399 113.5,34.5C 67.822,43.8446 41.1554,71.5113 33.5,117.5C 32.257,124.692 32.257,132.025 33.5,139.5C 31.8828,141.121 30.7162,143.121 30,145.5C 28.8455,144.257 27.5122,143.257 26,142.5C 26.4087,144.225 26.2421,145.892 25.5,147.5C 24.7189,146.271 24.2189,144.938 24,143.5C 22.6667,146.167 21.3333,146.167 20,143.5C 17.8932,145.487 15.3932,146.82 12.5,147.5C 5.59912,94.1389 24.9325,53.3055 70.5,25C 84.3377,16.7777 99.3377,12.2777 115.5,11.5 Z"/></g>
<g><path style="opacity:1" fill="#fff2e2" d="M 244.5,134.5 C 243.518,138.316 242.851,142.316 242.5,146.5C 242.5,146.833 242.5,147.167 242.5,147.5C 239.968,146.264 237.468,144.931 235,143.5C 234.167,144.5 233.333,145.5 232.5,146.5C 230.907,144.34 229.24,144.173 227.5,146C 227.833,146.333 228.167,146.667 228.5,147C 226.925,146.621 225.425,146.788 224,147.5C 223.5,147 223,146.5 222.5,146C 222.493,144.417 222.826,142.751 223.5,141C 223,140.5 222.5,140 222,139.5C 221.667,141.167 221.333,142.833 221,144.5C 220.502,141.518 220.335,138.518 220.5,135.5C 220.5,133.167 220.5,130.833 220.5,128.5C 218.869,82.4169 196.202,51.9169 152.5,37C 146.189,35.6376 139.856,34.471 133.5,33.5C 127.681,32.6724 121.681,32.1724 115.5,32C 117.473,31.5045 119.473,31.3379 121.5,31.5C 121.67,30.1779 121.337,29.0113 120.5,28C 121.167,27.6667 121.833,27.3333 122.5,27C 123.466,24.5994 123.466,21.9328 122.5,19C 123.91,18.6322 124.91,17.7989 125.5,16.5C 123.665,15.5723 123.332,14.4056 124.5,13C 121.305,12.8195 118.305,12.3195 115.5,11.5C 176.654,8.83623 218.154,36.1696 240,93.5C 243.345,106.951 244.845,120.618 244.5,134.5 Z"/></g>
<g><path style="opacity:1" fill="#ed7f13" d="M 113.5,34.5 C 117.022,34.8703 120.022,36.3703 122.5,39C 121.269,40.1827 121.269,41.3493 122.5,42.5C 127.544,42.9734 131.211,43.6401 133.5,44.5C 121.365,43.8525 109.699,45.5192 98.5,49.5C 85.7704,53.0252 74.7704,59.3585 65.5,68.5C 46.8811,85.0713 36.2145,105.738 33.5,130.5C 33.5,126.167 33.5,121.833 33.5,117.5C 41.1554,71.5113 67.822,43.8446 113.5,34.5 Z"/></g>
<g><path style="opacity:1" fill="#ed861a" d="M 133.5,33.5 C 139.856,34.471 146.189,35.6376 152.5,37C 196.202,51.9169 218.869,82.4169 220.5,128.5C 215.654,93.6483 197.321,68.6483 165.5,53.5C 155.343,48.628 144.677,45.628 133.5,44.5C 131.211,43.6401 127.544,42.9734 122.5,42.5C 121.269,41.3493 121.269,40.1827 122.5,39C 120.022,36.3703 117.022,34.8703 113.5,34.5C 120.078,33.5399 126.745,33.2066 133.5,33.5 Z"/></g>
<g><path style="opacity:1" fill="#fd981c" d="M 133.5,44.5 C 144.677,45.628 155.343,48.628 165.5,53.5C 163.352,53.3894 163.019,54.056 164.5,55.5C 163.703,57.1315 162.703,58.6315 161.5,60C 162.167,60.6667 162.833,61.3333 163.5,62C 163.108,63.0105 162.441,63.5105 161.5,63.5C 162.167,64.5 162.833,65.5 163.5,66.5C 162.559,66.4895 161.892,66.9895 161.5,68C 161.735,68.8732 162.069,69.7065 162.5,70.5C 159.922,70.6767 159.922,71.8433 162.5,74C 161.594,75.6995 161.261,77.5328 161.5,79.5C 164.598,79.4125 164.932,79.9125 162.5,81C 163.056,81.3826 163.389,81.8826 163.5,82.5C 154.893,81.6202 149.393,85.2868 147,93.5C 149.188,111.443 143.355,126.11 129.5,137.5C 117.891,123.543 110.391,107.543 107,89.5C 105.27,87.5981 103.437,85.9314 101.5,84.5C 102.598,83.603 102.598,82.7697 101.5,82C 103.957,80.8456 103.957,79.5123 101.5,78C 102.167,76.6667 103.167,75.6667 104.5,75C 102.408,74.0475 102.075,72.7141 103.5,71C 102.692,70.6924 102.025,70.1924 101.5,69.5C 102.711,68.2798 102.711,67.1131 101.5,66C 103.878,65.0255 103.544,64.3589 100.5,64C 102.044,63.7104 103.377,63.0437 104.5,62C 103.949,60.6015 103.616,59.2682 103.5,58C 104.308,57.6924 104.975,57.1924 105.5,56.5C 104.738,56.0894 103.738,55.9227 102.5,56C 102.306,54.5701 102.306,53.0701 102.5,51.5C 101.051,50.8281 99.7175,50.1614 98.5,49.5C 109.699,45.5192 121.365,43.8525 133.5,44.5 Z"/></g>
<g><path style="opacity:1" fill="#fd9115" d="M 98.5,49.5 C 99.7175,50.1614 101.051,50.8281 102.5,51.5C 102.306,53.0701 102.306,54.5701 102.5,56C 103.738,55.9227 104.738,56.0894 105.5,56.5C 104.975,57.1924 104.308,57.6924 103.5,58C 103.616,59.2682 103.949,60.6015 104.5,62C 103.377,63.0437 102.044,63.7104 100.5,64C 103.544,64.3589 103.878,65.0255 101.5,66C 102.711,67.1131 102.711,68.2798 101.5,69.5C 102.025,70.1924 102.692,70.6924 103.5,71C 102.075,72.7141 102.408,74.0475 104.5,75C 103.167,75.6667 102.167,76.6667 101.5,78C 103.957,79.5123 103.957,80.8456 101.5,82C 102.598,82.7697 102.598,83.603 101.5,84.5C 89.9177,80.9581 82.9177,85.1248 80.5,97C 84.6503,117.461 92.9837,135.961 105.5,152.5C 96.3655,156.356 87.0321,159.523 77.5,162C 75.0038,163.331 73.0038,165.164 71.5,167.5C 70.0337,168.347 69.2004,169.68 69,171.5C 68.0975,170.299 66.9308,169.465 65.5,169C 66.1667,168.667 66.8333,168.333 67.5,168C 65.7174,166.933 65.2174,165.433 66,163.5C 66.8928,164.711 67.7261,164.711 68.5,163.5C 69.6398,161.073 69.6398,158.573 68.5,156C 69.3081,155.692 69.9747,155.192 70.5,154.5C 67.9218,154.323 67.9218,153.157 70.5,151C 68.8374,150.735 67.3374,151.235 66,152.5C 64.2215,150.983 64.7215,150.149 67.5,150C 66.0745,148.286 66.4078,146.953 68.5,146C 67.938,144.435 67.438,142.601 67,140.5C 67.8373,142.007 69.0039,142.507 70.5,142C 69.5,140.333 68.1667,139 66.5,138C 67.5,137.667 68.5,137.333 69.5,137C 69.0449,134.688 68.0449,132.688 66.5,131C 67,130.5 67.5,130 68,129.5C 68.8373,131.007 70.0039,131.507 71.5,131C 70.1667,129.667 68.8333,128.333 67.5,127C 68.8333,126 70.1667,125 71.5,124C 70.3279,123.581 69.3279,122.915 68.5,122C 70.229,120.211 70.8957,118.044 70.5,115.5C 65.1317,114.765 64.2984,112.432 68,108.5C 68.7175,109.451 69.5509,109.617 70.5,109C 69.6422,107.212 68.6422,105.378 67.5,103.5C 68.7161,102.904 70.0494,102.737 71.5,103C 69.9696,100.803 68.1363,99.97 66,100.5C 65.4484,97.5808 66.1151,94.9141 68,92.5C 68.3333,92.8333 68.6667,93.1667 69,93.5C 71.1272,91.4305 70.9606,89.5971 68.5,88C 68.7591,86.7387 69.4258,85.7387 70.5,85C 67.2834,82.6358 67.2834,80.9691 70.5,80C 69.1667,79 69.1667,78 70.5,77C 66.9903,77.82 66.157,76.6533 68,73.5C 68.414,73.9574 68.914,74.2907 69.5,74.5C 71.3799,71.8248 71.5466,69.1582 70,66.5C 68.9805,67.6872 67.8139,68.6872 66.5,69.5C 65.8933,69.3764 65.56,69.0431 65.5,68.5C 74.7704,59.3585 85.7704,53.0252 98.5,49.5 Z"/></g>
<g><path style="opacity:1" fill="#fe8e11" d="M 71.5,167.5 C 69.4691,172.429 69.1358,177.429 70.5,182.5C 69.1196,183.706 67.9529,183.373 67,181.5C 66.3076,182.025 65.8076,182.692 65.5,183.5C 66.6882,183.307 68.0215,183.807 69.5,185C 68.09,185.368 67.09,186.201 66.5,187.5C 67.7161,188.096 69.0494,188.263 70.5,188C 69.5419,189.147 69.8753,190.147 71.5,191C 69.8839,191.615 68.5505,192.615 67.5,194C 68.1667,194.333 68.8333,194.667 69.5,195C 67.9336,195.608 66.6002,196.442 65.5,197.5C 55.93,189.272 48.2633,179.605 42.5,168.5C 39.7614,161.285 37.4281,153.951 35.5,146.5C 34.74,141.18 34.0733,135.847 33.5,130.5C 36.2145,105.738 46.8811,85.0713 65.5,68.5C 65.56,69.0431 65.8933,69.3764 66.5,69.5C 67.8139,68.6872 68.9805,67.6872 70,66.5C 71.5466,69.1582 71.3799,71.8248 69.5,74.5C 68.914,74.2907 68.414,73.9574 68,73.5C 66.157,76.6533 66.9903,77.82 70.5,77C 69.1667,78 69.1667,79 70.5,80C 67.2834,80.9691 67.2834,82.6358 70.5,85C 69.4258,85.7387 68.7591,86.7387 68.5,88C 70.9606,89.5971 71.1272,91.4305 69,93.5C 68.6667,93.1667 68.3333,92.8333 68,92.5C 66.1151,94.9141 65.4484,97.5808 66,100.5C 68.1363,99.97 69.9696,100.803 71.5,103C 70.0494,102.737 68.7161,102.904 67.5,103.5C 68.6422,105.378 69.6422,107.212 70.5,109C 69.5509,109.617 68.7175,109.451 68,108.5C 64.2984,112.432 65.1317,114.765 70.5,115.5C 70.8957,118.044 70.229,120.211 68.5,122C 69.3279,122.915 70.3279,123.581 71.5,124C 70.1667,125 68.8333,126 67.5,127C 68.8333,128.333 70.1667,129.667 71.5,131C 70.0039,131.507 68.8373,131.007 68,129.5C 67.5,130 67,130.5 66.5,131C 68.0449,132.688 69.0449,134.688 69.5,137C 68.5,137.333 67.5,137.667 66.5,138C 68.1667,139 69.5,140.333 70.5,142C 69.0039,142.507 67.8373,142.007 67,140.5C 67.438,142.601 67.938,144.435 68.5,146C 66.4078,146.953 66.0745,148.286 67.5,150C 64.7215,150.149 64.2215,150.983 66,152.5C 67.3374,151.235 68.8374,150.735 70.5,151C 67.9218,153.157 67.9218,154.323 70.5,154.5C 69.9747,155.192 69.3081,155.692 68.5,156C 69.6398,158.573 69.6398,161.073 68.5,163.5C 67.7261,164.711 66.8928,164.711 66,163.5C 65.2174,165.433 65.7174,166.933 67.5,168C 66.8333,168.333 66.1667,168.667 65.5,169C 66.9308,169.465 68.0975,170.299 69,171.5C 69.2004,169.68 70.0337,168.347 71.5,167.5 Z"/></g>
<g><path style="opacity:1" fill="#f18410" d="M 118.5,72.5 C 129.078,72.2295 135.911,77.2295 139,87.5C 142.025,94.2073 143.858,101.207 144.5,108.5C 144.926,114.483 142.592,118.983 137.5,122C 129.847,125.003 123.681,123.17 119,116.5C 115.394,106.515 111.894,96.5151 108.5,86.5C 109.399,80.0154 112.732,75.3487 118.5,72.5 Z"/></g>
<g><path style="opacity:1" fill="#fda025" d="M 165.5,53.5 C 197.321,68.6483 215.654,93.6483 220.5,128.5C 220.5,130.833 220.5,133.167 220.5,135.5C 218.781,145.708 216.114,155.708 212.5,165.5C 202.469,187.197 186.469,202.863 164.5,212.5C 163.883,210.771 162.883,209.271 161.5,208C 161.684,205.724 161.684,203.39 161.5,201C 161.905,200.055 162.572,199.388 163.5,199C 162.549,198.282 162.383,197.449 163,196.5C 163.654,197.696 164.154,197.696 164.5,196.5C 161.305,195.171 160.972,193.505 163.5,191.5C 161.887,190.573 160.221,189.739 158.5,189C 159.448,188.517 160.448,188.351 161.5,188.5C 174.574,193.794 182.908,189.794 186.5,176.5C 186.21,171.752 184.21,167.919 180.5,165C 171.53,161.066 162.53,157.233 153.5,153.5C 164.383,141.066 171.55,126.733 175,110.5C 175.877,103.751 175.544,97.0839 174,90.5C 171.766,86.0912 168.266,83.4245 163.5,82.5C 163.389,81.8826 163.056,81.3826 162.5,81C 164.932,79.9125 164.598,79.4125 161.5,79.5C 161.261,77.5328 161.594,75.6995 162.5,74C 159.922,71.8433 159.922,70.6767 162.5,70.5C 162.069,69.7065 161.735,68.8732 161.5,68C 161.892,66.9895 162.559,66.4895 163.5,66.5C 162.833,65.5 162.167,64.5 161.5,63.5C 162.441,63.5105 163.108,63.0105 163.5,62C 162.833,61.3333 162.167,60.6667 161.5,60C 162.703,58.6315 163.703,57.1315 164.5,55.5C 163.019,54.056 163.352,53.3894 165.5,53.5 Z"/></g>
<g><path style="opacity:1" fill="#fef0d4" d="M 119.5,80.5 C 126.079,80.5589 130.246,83.8922 132,90.5C 134.539,96.284 136.372,102.284 137.5,108.5C 136.962,114.863 133.628,117.029 127.5,115C 126.299,114.097 125.465,112.931 125,111.5C 123.173,104.179 120.506,97.1788 117,90.5C 115.861,86.5789 116.695,83.2456 119.5,80.5 Z"/></g>
<g><path style="opacity:1" fill="#f18411" d="M 101.5,84.5 C 103.437,85.9314 105.27,87.5981 107,89.5C 110.391,107.543 117.891,123.543 129.5,137.5C 143.355,126.11 149.188,111.443 147,93.5C 149.393,85.2868 154.893,81.6202 163.5,82.5C 168.266,83.4245 171.766,86.0912 174,90.5C 175.544,97.0839 175.877,103.751 175,110.5C 171.55,126.733 164.383,141.066 153.5,153.5C 162.53,157.233 171.53,161.066 180.5,165C 184.21,167.919 186.21,171.752 186.5,176.5C 182.908,189.794 174.574,193.794 161.5,188.5C 150.338,184.17 139.505,178.837 129,172.5C 122.355,176.239 115.522,179.573 108.5,182.5C 98.6303,187.052 88.297,189.219 77.5,189C 74.6688,187.334 72.3355,185.168 70.5,182.5C 69.1358,177.429 69.4691,172.429 71.5,167.5C 73.0038,165.164 75.0038,163.331 77.5,162C 87.0321,159.523 96.3655,156.356 105.5,152.5C 92.9837,135.961 84.6503,117.461 80.5,97C 82.9177,85.1248 89.9177,80.9581 101.5,84.5 Z"/></g>
<g><path style="opacity:1" fill="#fef0d4" d="M 158.5,89.5 C 162.315,88.8285 165.149,90.1619 167,93.5C 168.572,118.356 159.738,138.69 140.5,154.5C 144.078,157.559 148.078,160.059 152.5,162C 160.167,165 167.833,168 175.5,171C 179.5,174.667 179.5,178.333 175.5,182C 172.167,182.667 168.833,182.667 165.5,182C 152.71,177.022 140.544,170.855 129,163.5C 115.644,171.426 101.477,177.592 86.5,182C 79.3333,182.833 76.1667,179.667 77,172.5C 78.1667,171.333 79.3333,170.167 80.5,169C 93.5162,165.83 105.85,160.996 117.5,154.5C 103.98,139.507 94.4802,122.174 89,102.5C 88.3333,99.5 88.3333,96.5 89,93.5C 93.3854,89.244 97.3854,89.5773 101,94.5C 104.245,115.663 113.745,133.33 129.5,147.5C 148.223,134.047 156.723,115.713 155,92.5C 156.145,91.3636 157.312,90.3636 158.5,89.5 Z"/></g>
<g><path style="opacity:1" fill="#fddab2" d="M 33.5,117.5 C 33.5,121.833 33.5,126.167 33.5,130.5C 34.0733,135.847 34.74,141.18 35.5,146.5C 34.0762,144.485 33.4095,142.152 33.5,139.5C 32.257,132.025 32.257,124.692 33.5,117.5 Z"/></g>
<g><path style="opacity:1" fill="#ffeedc" d="M 220.5,135.5 C 220.335,138.518 220.502,141.518 221,144.5C 221.333,142.833 221.667,141.167 222,139.5C 222.5,140 223,140.5 223.5,141C 222.826,142.751 222.493,144.417 222.5,146C 223,146.5 223.5,147 224,147.5C 225.425,146.788 226.925,146.621 228.5,147C 228.167,146.667 227.833,146.333 227.5,146C 229.24,144.173 230.907,144.34 232.5,146.5C 233.333,145.5 234.167,144.5 235,143.5C 237.468,144.931 239.968,146.264 242.5,147.5C 230.736,200.763 198.07,232.597 144.5,243C 90.3278,248.498 49.8278,227.665 23,180.5C 20.925,174.689 18.5917,169.022 16,163.5C 14.8294,158.153 13.6627,152.819 12.5,147.5C 15.3932,146.82 17.8932,145.487 20,143.5C 21.3333,146.167 22.6667,146.167 24,143.5C 24.2189,144.938 24.7189,146.271 25.5,147.5C 26.2421,145.892 26.4087,144.225 26,142.5C 27.5122,143.257 28.8455,144.257 30,145.5C 30.7162,143.121 31.8828,141.121 33.5,139.5C 33.4095,142.152 34.0762,144.485 35.5,146.5C 37.4281,153.951 39.7614,161.285 42.5,168.5C 40.665,167.878 39.4983,166.544 39,164.5C 38.6717,167.207 39.005,169.874 40,172.5C 57.7632,208.554 86.7632,227.554 127,229.5C 170.023,227.287 199.523,206.287 215.5,166.5C 215.124,164.197 214.124,163.863 212.5,165.5C 216.114,155.708 218.781,145.708 220.5,135.5 Z"/></g>
<g><path style="opacity:0.796" fill="#ffaf5c" d="M 244.5,134.5 C 244.917,138.817 244.25,142.817 242.5,146.5C 242.851,142.316 243.518,138.316 244.5,134.5 Z"/></g>
<g><path style="opacity:1" fill="#fff7ed" d="M 42.5,168.5 C 48.2633,179.605 55.93,189.272 65.5,197.5C 76.4453,207.307 89.112,213.974 103.5,217.5C 124.36,222.621 144.694,220.954 164.5,212.5C 186.469,202.863 202.469,187.197 212.5,165.5C 214.124,163.863 215.124,164.197 215.5,166.5C 199.523,206.287 170.023,227.287 127,229.5C 86.7632,227.554 57.7632,208.554 40,172.5C 39.005,169.874 38.6717,167.207 39,164.5C 39.4983,166.544 40.665,167.878 42.5,168.5 Z"/></g>
<g><path style="opacity:1" fill="#fd981d" d="M 161.5,188.5 C 160.448,188.351 159.448,188.517 158.5,189C 160.221,189.739 161.887,190.573 163.5,191.5C 160.972,193.505 161.305,195.171 164.5,196.5C 164.154,197.696 163.654,197.696 163,196.5C 162.383,197.449 162.549,198.282 163.5,199C 162.572,199.388 161.905,200.055 161.5,201C 161.684,203.39 161.684,205.724 161.5,208C 162.883,209.271 163.883,210.771 164.5,212.5C 144.694,220.954 124.36,222.621 103.5,217.5C 104.531,216.751 105.698,216.085 107,215.5C 108.133,217.211 109.633,217.711 111.5,217C 110.465,215.493 110.632,213.993 112,212.5C 113.131,213.604 113.965,213.271 114.5,211.5C 113.636,209.803 112.303,208.637 110.5,208C 111.833,207.333 111.833,206.667 110.5,206C 111.328,205.085 112.328,204.419 113.5,204C 112.366,202.984 112.699,202.317 114.5,202C 113.328,201.581 112.328,200.915 111.5,200C 113.032,199.3 114.032,198.134 114.5,196.5C 113.044,196.678 111.711,195.844 110.5,194C 112.883,193.935 113.55,193.102 112.5,191.5C 108.099,191.522 107.599,189.855 111,186.5C 111.914,187.654 112.747,187.487 113.5,186C 112.045,184.374 110.378,183.208 108.5,182.5C 115.522,179.573 122.355,176.239 129,172.5C 139.505,178.837 150.338,184.17 161.5,188.5 Z"/></g>
<g><path style="opacity:1" fill="#fd9319" d="M 70.5,182.5 C 72.3355,185.168 74.6688,187.334 77.5,189C 88.297,189.219 98.6303,187.052 108.5,182.5C 110.378,183.208 112.045,184.374 113.5,186C 112.747,187.487 111.914,187.654 111,186.5C 107.599,189.855 108.099,191.522 112.5,191.5C 113.55,193.102 112.883,193.935 110.5,194C 111.711,195.844 113.044,196.678 114.5,196.5C 114.032,198.134 113.032,199.3 111.5,200C 112.328,200.915 113.328,201.581 114.5,202C 112.699,202.317 112.366,202.984 113.5,204C 112.328,204.419 111.328,205.085 110.5,206C 111.833,206.667 111.833,207.333 110.5,208C 112.303,208.637 113.636,209.803 114.5,211.5C 113.965,213.271 113.131,213.604 112,212.5C 110.632,213.993 110.465,215.493 111.5,217C 109.633,217.711 108.133,217.211 107,215.5C 105.698,216.085 104.531,216.751 103.5,217.5C 89.112,213.974 76.4453,207.307 65.5,197.5C 66.6002,196.442 67.9336,195.608 69.5,195C 68.8333,194.667 68.1667,194.333 67.5,194C 68.5505,192.615 69.8839,191.615 71.5,191C 69.8753,190.147 69.5419,189.147 70.5,188C 69.0494,188.263 67.7161,188.096 66.5,187.5C 67.09,186.201 68.09,185.368 69.5,185C 68.0215,183.807 66.6882,183.307 65.5,183.5C 65.8076,182.692 66.3076,182.025 67,181.5C 67.9529,183.373 69.1196,183.706 70.5,182.5 Z"/></g>
</svg>
