<?xml version="1.0"?><svg xmlns="http://www.w3.org/2000/svg" width="36" height="36" shape-rendering="geometricPrecision" text-rendering="geometricPrecision" image-rendering="optimizeQuality" fill-rule="evenodd" clip-rule="evenodd" viewBox="0 0 36 36"><path fill="#fe8910" d="m15.7-0.1h4.5c8.7 1.8 14 7 15.7 15.8v4.5c-1.7 8.7-7 14-15.7 15.7h-4.5c-8.8-1.7-14-7-15.8-15.7v-4.5c1.8-8.8 7-14 15.8-15.8z" opacity=".709"></path><path fill="#fff2e2" d="m16.2 1.6c0.4 0.1 0.9 0.2 1.3 0.2-0.2 0.2-0.1 0.4 0.1 0.5 0 0.2-0.2 0.3-0.4 0.4 0.2 0.4 0.2 0.8 0 1.1l-0.3 0.1c0.2 0.2 0.2 0.3 0.2 0.5-0.3 0-0.6 0-0.9 0.1 0.9 0 1.8 0.1 2.6 0.2-1 0-1.9 0-2.8 0.2-6.5 1.3-10.2 5.2-11.3 11.6-0.2 1-0.2 2.1 0 3.1-0.2 0.2-0.4 0.5-0.5 0.9-0.1-0.2-0.3-0.4-0.5-0.5 0 0.3 0 0.5-0.1 0.7-0.1-0.1-0.2-0.3-0.2-0.5-0.2 0.4-0.4 0.4-0.6 0-0.3 0.3-0.6 0.4-1 0.5-1-7.5 1.7-13.2 8.1-17.2 2-1.1 4.1-1.8 6.3-1.9z m18.2 17.3c-0.2 0.6-0.2 1.1-0.3 1.7v0.1c-0.4-0.1-0.7-0.3-1.1-0.5l-0.3 0.4c-0.2-0.3-0.5-0.3-0.7-0.1l0.1 0.2c-0.2-0.1-0.4-0.1-0.6 0l-0.2-0.2c0-0.2 0-0.4 0.1-0.7l-0.2-0.2-0.1 0.7c-0.1-0.4-0.1-0.8-0.1-1.2v-1c-0.2-6.5-3.4-10.8-9.6-12.9-0.8-0.2-1.7-0.4-2.6-0.5-0.8-0.1-1.7-0.2-2.6-0.2 0.3-0.1 0.6-0.1 0.9-0.1 0-0.2 0-0.3-0.2-0.5l0.3-0.1c0.2-0.3 0.2-0.7 0-1.1 0.2-0.1 0.4-0.2 0.4-0.4-0.2-0.1-0.3-0.3-0.1-0.5-0.4 0-0.9-0.1-1.3-0.2 8.6-0.4 14.5 3.5 17.6 11.5 0.4 1.9 0.6 3.9 0.6 5.8z"></path><path fill="#ed7f13" d="m16 4.9c0.5 0 0.9 0.2 1.2 0.6-0.1 0.2-0.1 0.3 0 0.5 0.7 0 1.3 0.1 1.6 0.3-1.7-0.1-3.4 0.1-4.9 0.7-1.8 0.5-3.4 1.3-4.7 2.6-2.6 2.4-4.1 5.3-4.5 8.8v-1.9c1.1-6.4 4.8-10.3 11.3-11.6z"></path><path fill="#ed861a" d="m18.8 4.7c0.9 0.1 1.8 0.3 2.6 0.5 6.2 2.1 9.4 6.4 9.6 12.9-0.7-4.9-3.3-8.4-7.7-10.6-1.5-0.7-3-1.1-4.5-1.2-0.3-0.2-0.9-0.3-1.6-0.3-0.1-0.2-0.1-0.3 0-0.5-0.3-0.4-0.7-0.6-1.2-0.6 0.9-0.2 1.8-0.2 2.8-0.2z"></path><path fill="#fd981c" d="m18.8 6.3c1.5 0.1 3 0.5 4.5 1.2-0.3 0-0.4 0.1-0.2 0.3-0.1 0.2-0.2 0.4-0.4 0.6l0.3 0.3c-0.1 0.2-0.2 0.2-0.3 0.2l0.3 0.5c-0.1 0-0.2 0-0.3 0.2 0 0.1 0.1 0.2 0.2 0.3-0.4 0-0.4 0.2 0 0.5-0.2 0.2-0.2 0.5-0.2 0.8 0.4 0 0.5 0 0.2 0.2 0 0 0.1 0.1 0.1 0.2-1.2-0.1-2 0.4-2.3 1.5 0.3 2.6-0.5 4.6-2.5 6.2-1.6-1.9-2.7-4.2-3.2-6.7-0.2-0.3-0.5-0.5-0.7-0.7 0.1-0.1 0.1-0.3 0-0.4 0.3-0.1 0.3-0.3 0-0.5 0.1-0.2 0.2-0.4 0.4-0.5-0.3-0.1-0.3-0.3-0.1-0.5-0.2-0.1-0.3-0.1-0.3-0.2 0.1-0.2 0.1-0.4 0-0.5 0.3-0.2 0.3-0.2-0.2-0.3 0.2 0 0.4-0.1 0.6-0.3-0.1-0.2-0.1-0.4-0.1-0.5 0.1-0.1 0.2-0.2 0.2-0.3-0.1 0-0.2 0-0.4 0 0-0.2 0-0.4 0-0.7-0.2-0.1-0.4-0.1-0.5-0.2 1.5-0.6 3.2-0.8 4.9-0.7z"></path><path fill="#fd9115" d="m13.9 7c0.1 0.1 0.3 0.1 0.5 0.2 0 0.3 0 0.5 0 0.7 0.2 0 0.3 0 0.4 0 0 0.1-0.1 0.2-0.2 0.3 0 0.1 0 0.3 0.1 0.5-0.2 0.2-0.4 0.3-0.6 0.3 0.5 0.1 0.5 0.1 0.2 0.3 0.1 0.1 0.1 0.3 0 0.5 0 0.1 0.1 0.1 0.3 0.2-0.2 0.2-0.2 0.4 0.1 0.5-0.2 0.1-0.3 0.3-0.4 0.5 0.3 0.2 0.3 0.4 0 0.5 0.1 0.1 0.1 0.3 0 0.4-1.7-0.5-2.6 0.1-3 1.7 0.6 2.9 1.8 5.5 3.5 7.8-1.2 0.6-2.6 1-3.9 1.4-0.4 0.2-0.6 0.4-0.8 0.8-0.3 0.1-0.4 0.3-0.4 0.5-0.1-0.2-0.3-0.3-0.5-0.3l0.3-0.2c-0.3-0.1-0.3-0.3-0.2-0.6 0.1 0.2 0.2 0.2 0.3 0 0.2-0.3 0.2-0.7 0-1.1 0.1 0 0.2-0.1 0.3-0.2-0.3 0-0.3-0.2 0-0.5-0.2 0-0.4 0.1-0.6 0.2-0.3-0.2-0.2-0.3 0.2-0.3-0.2-0.2-0.2-0.4 0.1-0.6 0-0.2-0.1-0.4-0.2-0.7 0.1 0.2 0.3 0.2 0.5 0.2-0.1-0.3-0.3-0.5-0.5-0.6l0.4-0.1c-0.1-0.4-0.2-0.6-0.4-0.9l0.2-0.2c0.1 0.2 0.2 0.3 0.5 0.2l-0.6-0.5 0.6-0.5c-0.2 0-0.4-0.1-0.5-0.2 0.3-0.3 0.4-0.6 0.3-1-0.7-0.1-0.9-0.4-0.3-0.9 0.1 0.1 0.2 0.1 0.3 0-0.1-0.2-0.2-0.5-0.4-0.7 0.2-0.1 0.4-0.2 0.6-0.1-0.3-0.3-0.5-0.4-0.8-0.4-0.1-0.4 0-0.8 0.3-1.1l0.1 0.1c0.3-0.2 0.3-0.5-0.1-0.7 0.1-0.2 0.2-0.3 0.3-0.4-0.4-0.4-0.4-0.6 0-0.7-0.2-0.2-0.2-0.3 0-0.5-0.5 0.1-0.6 0-0.3-0.5 0 0.1 0.1 0.1 0.2 0.2 0.2-0.4 0.3-0.8 0-1.1-0.1 0.1-0.3 0.3-0.4 0.4-0.1 0-0.2-0.1-0.2-0.2 1.3-1.3 2.9-2.1 4.7-2.6z"></path><path fill="#fe8e11" d="m10.1 23.6c-0.3 0.6-0.4 1.4-0.2 2.1-0.2 0.1-0.3 0.1-0.5-0.2-0.1 0.1-0.1 0.2-0.2 0.3 0.2 0 0.4 0 0.6 0.2-0.2 0.1-0.4 0.2-0.4 0.4 0.1 0.1 0.3 0.1 0.5 0-0.1 0.2-0.1 0.3 0.2 0.5-0.3 0-0.5 0.2-0.6 0.4l0.3 0.1c-0.2 0.1-0.4 0.2-0.6 0.4-1.3-1.2-2.4-2.5-3.2-4.1-0.4-1-0.7-2.1-1-3.1-0.1-0.7-0.2-1.5-0.3-2.2 0.4-3.5 1.9-6.4 4.5-8.8 0 0.1 0.1 0.2 0.2 0.2 0.1-0.1 0.3-0.3 0.4-0.4 0.3 0.3 0.2 0.7 0 1.1-0.1-0.1-0.2-0.1-0.2-0.2-0.3 0.5-0.2 0.6 0.3 0.5-0.2 0.2-0.2 0.3 0 0.5-0.4 0.1-0.4 0.3 0 0.7-0.1 0.1-0.2 0.2-0.3 0.4 0.4 0.2 0.4 0.5 0.1 0.7l-0.1-0.1c-0.3 0.3-0.4 0.7-0.3 1.1 0.3 0 0.5 0.1 0.8 0.4-0.2-0.1-0.4 0-0.6 0.1 0.2 0.2 0.3 0.5 0.4 0.7-0.1 0.1-0.2 0.1-0.3 0-0.6 0.5-0.4 0.8 0.3 0.9 0.1 0.4 0 0.7-0.3 1 0.1 0.1 0.3 0.2 0.5 0.2l-0.6 0.5 0.6 0.5c-0.3 0.1-0.4 0-0.5-0.2l-0.2 0.2c0.2 0.3 0.3 0.5 0.4 0.9l-0.4 0.1c0.2 0.1 0.4 0.3 0.5 0.6-0.2 0-0.4 0-0.5-0.2 0.1 0.3 0.2 0.5 0.2 0.7-0.3 0.2-0.3 0.4-0.1 0.6-0.4 0-0.5 0.1-0.2 0.3 0.2-0.1 0.4-0.2 0.6-0.2-0.3 0.3-0.3 0.5 0 0.5-0.1 0.1-0.2 0.2-0.3 0.2 0.2 0.4 0.2 0.8 0 1.1-0.1 0.2-0.2 0.2-0.3 0-0.1 0.3-0.1 0.5 0.2 0.6l-0.3 0.2c0.2 0 0.4 0.1 0.5 0.3 0-0.2 0.1-0.4 0.4-0.5z"></path><path fill="#f18410" d="m16.7 10.2c1.5 0 2.4 0.7 2.8 2.1 0.5 0.9 0.7 1.9 0.8 3 0.1 0.8-0.2 1.4-1 1.9-1 0.4-1.9 0.1-2.6-0.8-0.5-1.4-1-2.8-1.4-4.2 0.1-0.9 0.6-1.6 1.4-2z"></path><path fill="#fda025" d="m23.3 7.5c4.4 2.2 7 5.7 7.7 10.6v1c-0.2 1.4-0.6 2.8-1.1 4.2-1.4 3-3.7 5.2-6.8 6.6-0.1-0.3-0.2-0.5-0.4-0.6 0-0.4 0-0.7 0-1 0.1-0.2 0.2-0.3 0.3-0.3-0.1-0.1-0.2-0.2-0.1-0.4 0.1 0.2 0.2 0.2 0.2 0-0.4-0.2-0.5-0.4-0.1-0.7-0.2-0.1-0.5-0.2-0.7-0.3 0.1-0.1 0.3-0.1 0.4-0.1 1.8 0.8 3 0.2 3.5-1.7 0-0.6-0.3-1.2-0.8-1.6-1.3-0.6-2.5-1.1-3.8-1.6 1.5-1.8 2.5-3.8 3-6.1 0.1-0.9 0.1-1.8-0.1-2.8-0.3-0.6-0.8-1-1.5-1.1 0-0.1-0.1-0.2-0.1-0.2 0.3-0.2 0.2-0.2-0.2-0.2 0-0.3 0-0.6 0.2-0.8-0.4-0.3-0.4-0.5 0-0.5-0.1-0.1-0.2-0.2-0.2-0.3 0.1-0.2 0.2-0.2 0.3-0.2l-0.3-0.5c0.1 0 0.2 0 0.3-0.2l-0.3-0.3c0.2-0.2 0.3-0.4 0.4-0.6-0.2-0.2-0.1-0.3 0.2-0.3z"></path><path fill="#fef0d4" d="m16.8 11.3c0.9 0 1.5 0.5 1.8 1.4 0.3 0.8 0.6 1.7 0.7 2.6 0 0.9-0.5 1.2-1.4 0.9-0.1-0.2-0.3-0.3-0.3-0.5-0.3-1-0.7-2-1.1-3-0.2-0.5-0.1-1 0.3-1.4z"></path><path fill="#f18411" d="m14.3 11.9c0.2 0.2 0.5 0.4 0.7 0.7 0.5 2.5 1.6 4.8 3.2 6.7 2-1.6 2.8-3.6 2.5-6.2 0.3-1.1 1.1-1.6 2.3-1.5 0.7 0.1 1.2 0.5 1.5 1.1 0.2 1 0.2 1.9 0.1 2.8-0.5 2.3-1.5 4.3-3 6.1 1.3 0.5 2.5 1 3.8 1.6 0.5 0.4 0.8 1 0.8 1.6-0.5 1.9-1.7 2.5-3.5 1.7-1.6-0.6-3.1-1.4-4.6-2.2-0.9 0.5-1.9 1-2.8 1.4-1.4 0.6-2.9 0.9-4.4 0.9-0.4-0.3-0.7-0.6-1-0.9-0.2-0.7-0.1-1.5 0.2-2.1 0.2-0.4 0.4-0.6 0.8-0.8 1.3-0.4 2.7-0.8 3.9-1.4-1.7-2.3-2.9-4.9-3.5-7.8 0.4-1.6 1.3-2.2 3-1.7z"></path><path fill="#fef0d4" d="m22.3 12.6c0.5-0.1 0.9 0.1 1.2 0.5 0.2 3.5-1 6.4-3.7 8.6 0.5 0.5 1 0.8 1.6 1.1l3.3 1.2c0.5 0.6 0.5 1.1 0 1.6-0.5 0.1-1 0.1-1.4 0-1.8-0.7-3.5-1.6-5.2-2.6-1.8 1.1-3.8 2-5.9 2.6-1 0.1-1.5-0.3-1.4-1.3l0.5-0.5c1.9-0.5 3.6-1.2 5.2-2.1-1.9-2.1-3.2-4.5-4-7.3-0.1-0.4-0.1-0.8 0-1.3 0.6-0.6 1.2-0.5 1.7 0.2 0.5 3 1.8 5.4 4 7.4 2.6-1.8 3.8-4.4 3.6-7.7 0.2-0.2 0.3-0.3 0.5-0.4z"></path><path fill="#fddab2" d="m4.7 16.5v1.9c0.1 0.7 0.2 1.5 0.3 2.2-0.2-0.3-0.3-0.6-0.3-1-0.2-1-0.2-2.1 0-3.1z"></path><path fill="#ffeedc" d="m31 19.1c0 0.4 0 0.8 0.1 1.2l0.1-0.7 0.2 0.2c-0.1 0.3-0.1 0.5-0.1 0.7l0.2 0.2c0.2-0.1 0.4-0.1 0.6 0l-0.1-0.2c0.2-0.2 0.5-0.2 0.7 0.1l0.3-0.4c0.4 0.2 0.7 0.4 1.1 0.5-1.7 7.5-6.2 12-13.8 13.5-7.6 0.7-13.3-2.2-17.1-8.8-0.3-0.8-0.6-1.6-0.9-2.4l-0.5-2.3c0.4-0.1 0.7-0.2 1-0.5 0.2 0.4 0.4 0.4 0.6 0 0 0.2 0.1 0.4 0.2 0.5 0.1-0.2 0.1-0.4 0.1-0.7 0.2 0.1 0.4 0.3 0.5 0.5 0.1-0.4 0.3-0.7 0.5-0.9 0 0.4 0.1 0.7 0.3 1 0.3 1 0.6 2.1 1 3.1-0.3-0.1-0.4-0.3-0.5-0.6-0.1 0.4 0 0.8 0.1 1.2 2.5 5 6.6 7.7 12.3 8 6-0.3 10.2-3.3 12.4-8.9 0-0.3-0.2-0.4-0.4-0.1 0.5-1.4 0.9-2.8 1.1-4.2z"></path><path fill="#ffaf5c" d="m34.4 18.9c0 0.6-0.1 1.2-0.3 1.7 0.1-0.6 0.1-1.1 0.3-1.7z" opacity=".796"></path><path fill="#fff7ed" d="m6 23.7c0.8 1.6 1.9 2.9 3.2 4.1 1.6 1.4 3.3 2.3 5.4 2.8 2.9 0.7 5.7 0.5 8.5-0.7 3.1-1.4 5.4-3.6 6.8-6.6 0.2-0.3 0.4-0.2 0.4 0.1-2.2 5.6-6.4 8.6-12.4 8.9-5.7-0.3-9.8-3-12.3-8-0.1-0.4-0.2-0.8-0.1-1.2 0.1 0.3 0.2 0.5 0.5 0.6z"></path><path fill="#fd981d" d="m22.7 26.5c-0.1 0-0.3 0-0.4 0.1 0.2 0.1 0.5 0.2 0.7 0.3-0.4 0.3-0.3 0.5 0.1 0.7 0 0.2-0.1 0.2-0.2 0-0.1 0.2 0 0.3 0.1 0.4-0.1 0-0.2 0.1-0.3 0.3 0 0.3 0 0.6 0 1 0.2 0.1 0.3 0.3 0.4 0.6-2.8 1.2-5.6 1.4-8.5 0.7 0.1-0.1 0.3-0.2 0.4-0.3 0.2 0.2 0.4 0.3 0.7 0.2-0.2-0.2-0.1-0.4 0.1-0.6 0.1 0.1 0.2 0.1 0.3-0.2-0.1-0.2-0.3-0.4-0.6-0.4 0.2-0.1 0.2-0.2 0-0.3 0.2-0.2 0.3-0.3 0.5-0.3-0.2-0.2-0.2-0.2 0.1-0.3-0.2-0.1-0.3-0.1-0.4-0.3 0.2-0.1 0.3-0.2 0.4-0.5-0.2 0.1-0.4-0.1-0.6-0.3 0.4 0 0.5-0.1 0.3-0.4-0.6 0-0.7-0.2-0.2-0.7 0.1 0.2 0.3 0.2 0.4 0-0.2-0.3-0.5-0.4-0.7-0.5 0.9-0.4 1.9-0.9 2.8-1.4 1.5 0.8 3 1.6 4.6 2.2z"></path><path fill="#fd9319" d="m9.9 25.7c0.3 0.3 0.6 0.6 1 0.9 1.5 0 3-0.3 4.4-0.9 0.2 0.1 0.5 0.2 0.7 0.5-0.1 0.2-0.3 0.2-0.4 0-0.5 0.5-0.4 0.7 0.2 0.7 0.2 0.3 0.1 0.4-0.3 0.4 0.2 0.2 0.4 0.4 0.6 0.3-0.1 0.3-0.2 0.4-0.4 0.5 0.1 0.2 0.2 0.2 0.4 0.3-0.3 0.1-0.3 0.1-0.1 0.3-0.2 0-0.3 0.1-0.5 0.3 0.2 0.1 0.2 0.2 0 0.3 0.3 0 0.5 0.2 0.6 0.4-0.1 0.3-0.2 0.3-0.3 0.2-0.2 0.2-0.3 0.4-0.1 0.6-0.3 0.1-0.5 0-0.7-0.2-0.1 0.1-0.3 0.2-0.4 0.3-2.1-0.5-3.8-1.4-5.4-2.8 0.2-0.2 0.4-0.3 0.6-0.4l-0.3-0.1c0.1-0.2 0.3-0.4 0.6-0.4-0.3-0.2-0.3-0.3-0.2-0.5-0.2 0.1-0.4 0.1-0.5 0 0-0.2 0.2-0.3 0.4-0.4-0.2-0.2-0.4-0.2-0.6-0.2 0.1-0.1 0.1-0.2 0.2-0.3 0.2 0.3 0.3 0.3 0.5 0.2z"></path></svg>