<svg xmlns="http://www.w3.org/2000/svg" width="320" height="320" viewBox="0 0 320 320" version="1.1">
	<path fill-opacity="0.231" d="M 148.500 5.385 C 122.655 9.675, 101.226 20.190, 83.091 37.482 C 52.826 66.342, 39.628 107.518, 47.483 148.574 C 49.475 158.986, 53.471 170.152, 59.071 180.957 C 63.768 190.018, 70.727 200.576, 71.519 199.841 C 71.721 199.653, 82.951 188.492, 96.475 175.039 L 121.065 150.578 119.126 146.039 C 115.911 138.512, 114.826 133.055, 114.859 124.573 C 115.002 88.006, 153.288 62.911, 186.327 77.729 L 192.153 80.342 217.169 55.326 L 242.184 30.311 234.103 25.127 C 218.616 15.192, 206.247 9.993, 189.500 6.377 C 179.726 4.267, 158.354 3.750, 148.500 5.385 M 235.124 74.376 L 210.763 98.752 213.525 105.626 C 216.871 113.957, 217.982 127.689, 215.991 136.125 C 211.631 154.607, 195.743 170.828, 178 174.915 C 167.643 177.300, 152.264 175.776, 144.107 171.556 L 140.714 169.801 115.913 194.587 C 102.273 208.219, 91.314 219.700, 91.562 220.100 C 91.809 220.499, 95.054 222.831, 98.774 225.282 C 139.836 252.334, 192.060 252.342, 232.727 225.305 C 282.798 192.014, 300.812 126.203, 274.554 72.500 C 269.483 62.130, 261.738 50, 260.187 50 C 259.801 50, 248.522 60.969, 235.124 74.376 M 179 110.572 C 179 116.280, 179.209 116.798, 183 120.500 C 185.200 122.648, 187 124.851, 187 125.395 C 187 125.939, 185.200 128.062, 183 130.114 C 180.559 132.390, 179 134.746, 179 136.159 C 179 138.245, 178.543 138.016, 174.367 133.841 L 169.735 129.209 173.117 126.186 C 176.045 123.570, 176.500 122.537, 176.500 118.500 C 176.500 114.496, 176.038 113.423, 173.234 110.918 C 170.028 108.053, 169.760 108, 158.484 108 L 147 108 147 112 C 147 114.889, 147.417 116, 148.500 116 C 149.759 116, 150 118.167, 150 129.500 L 150 143 154 143 L 158 143 158 136.277 L 158 129.554 164.775 136.277 C 170.647 142.103, 172.036 143, 175.192 143 C 177.195 143, 179.042 143.563, 179.298 144.250 C 179.571 144.987, 182.586 142.514, 186.638 138.230 L 193.514 130.960 200.480 137.980 C 204.312 141.841, 207.796 145, 208.223 145 C 208.650 145, 209 142.653, 209 139.784 C 209 134.919, 208.687 134.250, 204.337 129.835 L 199.674 125.101 204.337 120.504 C 208.756 116.148, 209 115.621, 209 110.453 C 209 107.454, 208.796 105, 208.548 105 C 208.299 105, 204.909 108.237, 201.015 112.193 L 193.936 119.386 186.468 111.968 L 179 104.550 179 110.572 M 121 112 L 121 116 125 116 L 129 116 129 128.297 L 129 140.594 133 144.500 L 137 148.406 137 132.203 L 137 116 141 116 L 145 116 145 112 L 145 108 133 108 L 121 108 121 112 M 158 118.500 C 158 120.989, 158.219 121.096, 162.750 120.805 C 166.732 120.549, 167.500 120.177, 167.500 118.500 C 167.500 116.823, 166.732 116.451, 162.750 116.195 C 158.219 115.904, 158 116.011, 158 118.500 M 25.344 247.005 C 15.977 248.941, 7.440 255.711, 3.386 264.419 C 0.055 271.572, 0.064 282.448, 3.407 289.627 C 4.720 292.448, 6.213 295.013, 6.724 295.329 C 7.235 295.645, 10.440 293.092, 13.846 289.656 C 19.848 283.600, 20.004 283.310, 18.932 280.234 C 17.459 276.009, 19.158 270.887, 23.144 267.532 C 26.988 264.298, 30.363 263.469, 34.508 264.741 C 37.698 265.720, 38.002 265.552, 44.022 259.478 L 50.240 253.204 47.870 251.653 C 41.292 247.350, 32.475 245.530, 25.344 247.005 M 126.100 272 C 118.216 285.750, 111.466 297, 111.101 297 C 110.736 297, 107.830 294.365, 104.642 291.144 L 98.847 285.288 102.415 283.183 C 106.444 280.806, 109.698 276.066, 110.608 271.250 C 111.645 265.766, 110.153 261.122, 105.861 256.465 C 100.673 250.837, 96.113 249.852, 76.953 250.221 L 62.500 250.500 62.204 257.250 C 61.913 263.893, 61.949 264, 64.454 264 L 67 264 67 286 L 67 308 73.500 308 L 80 308 80 297.500 C 80 291.725, 80.385 287, 80.855 287 C 81.325 287, 86.256 291.725, 91.813 297.500 L 101.917 308 111.456 308 L 120.996 308 123.748 303.478 C 125.262 300.991, 129.640 293.341, 133.477 286.478 C 137.315 279.615, 140.708 274, 141.017 274 C 141.719 274, 152 291.884, 152 293.106 C 152 293.598, 147.479 294, 141.954 294 L 131.909 294 132.204 300.750 L 132.500 307.500 153.429 307.771 C 164.940 307.920, 174.728 307.672, 175.181 307.219 C 175.633 306.767, 174.749 304.395, 173.217 301.948 C 171.684 299.502, 163.968 286.137, 156.070 272.250 C 148.172 258.363, 141.423 247, 141.072 247 C 140.721 247, 133.984 258.250, 126.100 272 M 194.147 251.059 C 185.562 252.778, 178.379 258.528, 173.755 267.384 C 170.504 273.609, 170.722 284.784, 174.227 291.563 C 179.764 302.274, 188.909 307.424, 202.475 307.472 L 210.500 307.500 210.796 300.750 L 211.091 294 203.796 293.998 C 192.004 293.996, 185 288.687, 185 279.753 C 185 270.727, 190.431 265.134, 200.043 264.262 L 206 263.722 206 268.361 L 206 273 213.033 273 L 220.066 273 219.783 261.750 L 219.500 250.500 209 250.344 C 203.225 250.258, 196.541 250.580, 194.147 251.059 M 223.720 250.712 C 223.475 251.146, 223.492 254.313, 223.758 257.750 C 224.165 263.029, 224.532 264, 226.120 264 C 227.903 264, 228 265.136, 228 286.021 L 228 308.042 247.750 307.771 L 267.500 307.500 267.789 298.750 L 268.078 290 261.039 290 C 254.667 290, 254 290.189, 254 292 C 254 293.778, 253.333 294, 248 294 C 243.967 294, 241.938 293.590, 241.812 292.750 C 241.709 292.063, 241.596 282.275, 241.562 271 L 241.500 250.500 232.832 250.212 C 228.065 250.054, 223.965 250.279, 223.720 250.712 M 271.684 250.649 C 271.308 251.025, 271 254.183, 271 257.667 C 271 263.756, 271.096 264, 273.500 264 L 276 264 276 286 L 276 308 298 308 L 320 308 320 299 L 320 290 313 290 C 306.667 290, 306 290.190, 306 292 C 306 293.844, 305.333 294, 297.473 294 L 288.947 294 289.223 279.250 L 289.500 264.500 304.795 264.224 L 320.090 263.947 319.795 257.224 L 319.500 250.500 295.934 250.232 C 282.973 250.085, 272.061 250.273, 271.684 250.649 M 48.269 264.298 C 42.794 269.885, 42.289 270.748, 43.172 273 C 43.711 274.375, 43.920 276.967, 43.637 278.760 C 42.442 286.331, 35.862 290.828, 27.940 289.490 C 24.023 288.828, 23.781 288.960, 18.468 294.655 C 15.468 297.870, 13.011 300.786, 13.007 301.135 C 12.991 302.510, 18.334 305.143, 24.337 306.717 C 30.225 308.261, 31.110 308.260, 37.440 306.698 C 46.053 304.573, 52.547 299.977, 56.707 293.063 C 60.940 286.027, 62.493 278.526, 61.080 271.939 C 60.004 266.919, 56.762 259.589, 55.188 258.616 C 54.725 258.330, 51.612 260.887, 48.269 264.298 M 80 268 L 80 272 87.981 272 C 95.671 272, 95.985 271.908, 96.593 269.487 C 97.664 265.219, 95.617 264, 87.378 264 L 80 264 80 268 M 293.412 273.369 C 293.123 274.122, 293.024 277.160, 293.193 280.119 L 293.500 285.500 297.907 285.815 C 302.130 286.117, 302.581 285.867, 308.657 279.844 C 312.146 276.387, 315 273.207, 315 272.779 C 315 272.350, 310.261 272, 304.469 272 C 296.477 272, 293.811 272.330, 293.412 273.369" stroke="none" fill="black" fill-rule="evenodd"/>
	<path fill-opacity="0.465" d="M 144.178 6.447 C 120.095 11.007, 93.835 25.364, 78.112 42.568 C 57.018 65.649, 46 93.931, 46 125 C 46 150.058, 52.454 171.430, 66.311 192.257 L 71.472 200.013 96.168 175.333 L 120.863 150.652 118.857 146.720 C 116.432 141.966, 114.041 131.192, 114.017 124.910 C 113.992 118.098, 117.594 105.280, 121.268 99.109 C 131.571 81.807, 149.993 72.011, 169.723 73.343 C 177.030 73.837, 181.983 75.252, 191.500 79.566 C 192.050 79.816, 203.525 68.974, 217 55.474 L 241.500 30.929 239 28.970 C 228.177 20.486, 209.563 11.633, 194.589 7.848 C 183.988 5.168, 155.163 4.367, 144.178 6.447 M 235.898 74.750 L 211.311 99.500 213.599 105 C 226.308 135.551, 206.805 170.406, 173.848 176.043 C 165.141 177.532, 153.677 176.278, 146.342 173.033 C 143.814 171.915, 141.238 171, 140.618 171 C 139.140 171, 95.416 216.109, 95.775 217.263 C 95.926 217.750, 95.639 217.895, 95.138 217.585 C 94.637 217.276, 93.704 217.652, 93.064 218.423 C 91.637 220.143, 95.048 222.940, 106.639 229.553 C 116.548 235.207, 127.821 239.578, 139.441 242.273 C 151.903 245.163, 178.714 245.368, 190.500 242.665 C 236.704 232.065, 271.352 198.542, 282.655 153.500 C 286.035 140.031, 286.920 118.488, 284.632 105.364 C 281.545 87.657, 275.122 71.478, 265.333 56.750 C 262.865 53.038, 260.765 50, 260.666 50 C 260.566 50, 249.421 61.137, 235.898 74.750 M 179.079 110.750 C 179.280 114.882, 179.903 116.118, 183.867 120.250 L 188.425 125 183.594 129.904 C 180.937 132.602, 179.068 135.302, 179.441 135.904 C 179.813 136.507, 179.831 137.464, 179.481 138.031 C 179.125 138.607, 176.661 136.736, 173.895 133.790 C 170.971 130.675, 169.445 128.352, 170.166 128.111 C 173.422 127.026, 176 122.991, 176 118.980 C 176 110.238, 172.340 108, 158.050 108 L 148 108 148 112 C 148 114.200, 148.450 116, 149 116 C 149.615 116, 150 121, 150 129 L 150 142 154 142 L 158 142 158 135.277 L 158 128.554 164.775 135.277 C 170.663 141.120, 172.030 142, 175.216 142 C 177.232 142, 179.188 142.496, 179.563 143.102 C 179.978 143.773, 182.932 141.537, 187.122 137.379 L 194 130.554 201 137.500 L 208 144.446 208 139.011 C 208 133.971, 207.694 133.264, 203.792 129.288 L 199.584 125 203.792 120.712 C 207.694 116.736, 208 116.029, 208 110.989 L 208 105.554 201 112.500 L 194 119.446 187.225 112.723 C 183.499 109.025, 180.090 106, 179.649 106 C 179.209 106, 178.953 108.138, 179.079 110.750 M 121 112 L 121 116 125 116 L 129 116 129 127.797 L 129 139.594 133 143.500 L 137 147.406 137 131.703 L 137 116 141 116 L 145 116 145 112 L 145 108 133 108 L 121 108 121 112 M 158 118.500 C 158 121.014, 158.183 121.094, 163.250 120.802 C 167.733 120.544, 168.500 120.208, 168.500 118.500 C 168.500 116.792, 167.733 116.456, 163.250 116.198 C 158.183 115.906, 158 115.986, 158 118.500 M 23 247.876 C 13.438 251.022, 6.394 257.657, 3.008 266.708 C 0.447 273.552, 0.457 280.475, 3.038 287.371 C 6.173 295.752, 6.874 295.909, 13.355 289.682 L 18.943 284.313 18.353 279.335 C 17.637 273.291, 19.599 268.857, 24.299 265.893 C 26.874 264.269, 28.589 263.977, 33.066 264.402 L 38.631 264.931 44.450 259.050 L 50.269 253.170 44.885 250.429 C 39.159 247.514, 28.041 246.217, 23 247.876 M 126.155 272.528 C 118.265 286.537, 111.502 298, 111.126 298 C 110.750 298, 107.628 295.160, 104.188 291.689 L 97.933 285.378 101.684 282.939 C 107.253 279.318, 110 274.655, 110 268.820 C 110 262.279, 107.991 257.858, 103.437 254.382 L 99.662 251.500 81.331 251.188 L 63 250.876 63 257.438 C 63 263.333, 63.203 264, 65 264 C 66.938 264, 67 264.667, 67 285.500 L 67 307 73.500 307 L 80 307 80 296.267 L 80 285.534 90.766 296.267 L 101.533 307 111.516 306.981 L 121.500 306.963 131 289.990 C 136.225 280.655, 140.725 273.013, 141 273.009 C 141.590 272.999, 152.352 291.848, 152.823 293.717 C 153.070 294.697, 150.770 295, 143.073 295 L 133 295 133 301 L 133 307 154.083 307 C 165.679 307, 175.017 306.610, 174.833 306.134 C 173.940 303.812, 141.433 247.046, 141 247.050 C 140.725 247.053, 134.045 258.518, 126.155 272.528 M 191.994 251.934 C 187.432 253.322, 183.546 255.787, 179.805 259.668 C 166.692 273.266, 170.452 295.426, 187.366 304.229 C 190.493 305.857, 193.813 306.483, 201 306.797 L 210.501 307.213 210.526 301.222 L 210.552 295.231 202.980 294.793 C 194.326 294.292, 190.598 292.545, 187.012 287.313 C 183.881 282.743, 183.711 275.213, 186.650 271.246 C 190.421 266.154, 194.732 264, 201.148 264 L 207 264 207 268 L 207 272 213 272 L 219 272 219 261.500 L 219 251 206.750 251.086 C 200.012 251.133, 193.372 251.515, 191.994 251.934 M 224 257.500 C 224 263.333, 224.205 264, 226 264 C 227.938 264, 228 264.667, 228 285.500 L 228 307 247.500 307 L 267 307 267 298.452 L 267 289.905 260.750 290.202 C 255.266 290.464, 254.500 290.745, 254.500 292.500 C 254.500 294.295, 253.833 294.500, 248 294.500 L 241.500 294.500 241.230 272.750 L 240.961 251 232.480 251 L 224 251 224 257.500 M 272 257.500 C 272 263.333, 272.205 264, 274 264 C 275.938 264, 276 264.667, 276 285.500 L 276 307 297.750 307.002 L 319.500 307.005 319.177 298.502 L 318.853 290 312.996 290 C 307.684 290, 307.109 290.209, 306.820 292.250 C 306.520 294.361, 305.961 294.518, 297.750 294.789 L 289 295.078 289 279.565 L 289 264.052 304.149 263.776 L 319.297 263.500 319.399 257.250 L 319.500 251 295.750 251 L 272 251 272 257.500 M 48.791 264.750 C 43.268 270.374, 43.156 270.600, 43.684 275.084 C 44.274 280.103, 42.770 284.087, 38.998 287.502 C 37.304 289.037, 35.293 289.523, 30.332 289.597 C 23.905 289.694, 23.845 289.721, 18.393 295.097 L 12.913 300.500 15.658 302.699 C 21.969 307.752, 35.701 308.228, 44.563 303.701 C 50.452 300.692, 54.977 296.134, 58.163 290 C 61.517 283.542, 61.516 270.564, 58.161 263.750 C 56.874 261.137, 55.510 259, 55.129 259 C 54.749 259, 51.897 261.587, 48.791 264.750 M 80 268.500 L 80 273 87.477 273 C 94.294 273, 95.095 272.785, 96.548 270.567 C 97.788 268.675, 97.896 267.675, 97.036 266.067 C 96.060 264.243, 94.992 264, 87.965 264 L 80 264 80 268.500 M 294 279 L 294 285 298.281 285 C 302.188 285, 303.083 284.474, 308.500 279 L 314.437 273 304.219 273 L 294 273 294 279" stroke="none" fill="black" fill-rule="evenodd"/>
	<path fill-opacity="0.047" d="M 145.437 6.510 C 97.894 15.219, 61.038 49.843, 49.232 96.888 C 46.870 106.299, 46.568 109.423, 46.563 124.500 C 46.559 134.998, 47.066 143.795, 47.888 147.500 C 49.657 155.477, 54.029 169.304, 54.601 168.732 C 54.851 168.482, 54.568 166.995, 53.973 165.428 C 52.735 162.172, 53.583 156.707, 54.976 158.961 C 55.438 159.708, 55.640 160.809, 55.425 161.409 C 55.211 162.009, 55.953 163.625, 57.075 165 L 59.115 167.500 58.541 164.500 C 58.225 162.850, 57.775 160.488, 57.541 159.250 C 57.065 156.738, 58.464 156.162, 59.362 158.500 C 60.014 160.200, 63 160.562, 63 158.941 C 63 158.359, 63.470 158.172, 64.044 158.527 C 64.618 158.882, 65.630 158.768, 66.294 158.275 C 67.699 157.229, 69.029 157.231, 70.681 158.282 C 71.330 158.695, 72.145 158.574, 72.492 158.014 C 72.918 157.323, 73.747 157.330, 75.061 158.032 C 76.511 158.809, 77.004 158.747, 77.015 157.785 C 77.026 156.882, 77.318 156.945, 78 158 C 78.862 159.333, 78.973 159.333, 79 158 C 79.022 156.929, 79.248 156.842, 79.792 157.697 C 80.271 158.450, 81.079 158.569, 81.973 158.017 C 82.804 157.503, 84.139 157.539, 85.196 158.105 C 86.499 158.802, 87.004 158.713, 87.015 157.785 C 87.027 156.797, 87.230 156.815, 87.894 157.863 C 88.623 159.014, 88.842 159.014, 89.300 157.863 C 89.709 156.835, 89.862 156.816, 89.921 157.785 C 89.977 158.696, 90.510 158.797, 91.750 158.134 C 92.713 157.619, 93.725 157.077, 94 156.930 C 94.275 156.782, 95.513 157.204, 96.750 157.866 C 98.541 158.825, 99.003 158.808, 99.015 157.785 C 99.027 156.765, 99.195 156.759, 99.826 157.753 C 100.278 158.465, 101.961 158.849, 103.729 158.643 C 109.919 157.922, 109.687 159.473, 102.455 167.167 L 95.562 174.500 103.460 167 C 112.515 158.402, 115.616 154.895, 115.225 153.695 C 115.074 153.231, 115.351 153.099, 115.842 153.402 C 116.332 153.705, 117.448 153.163, 118.322 152.197 C 119.782 150.584, 119.702 149.870, 117.354 143.470 C 112.279 129.639, 113.345 113.763, 120.234 100.603 C 126.782 88.093, 141.462 76.810, 154.953 73.917 C 163.694 72.042, 177.338 73.175, 185.376 76.443 L 192.251 79.238 203.637 67.630 C 209.899 61.246, 214.512 56.432, 213.889 56.933 C 213.266 57.434, 212.024 57.611, 211.128 57.328 C 209.913 56.942, 209.829 57.048, 210.797 57.744 C 213.602 59.760, 209.052 61.371, 199.670 61.682 C 194.627 61.849, 188.925 62.346, 187 62.786 C 185.075 63.226, 182.037 63.510, 180.250 63.418 C 178.463 63.326, 174.723 63.194, 171.941 63.125 C 169.159 63.056, 167.114 62.625, 167.397 62.167 C 167.680 61.708, 167.277 61.333, 166.500 61.333 C 165.723 61.333, 165.320 61.708, 165.603 62.167 C 165.886 62.625, 165.390 63, 164.500 63 C 163.610 63, 163.114 62.625, 163.397 62.167 C 163.680 61.708, 163.277 61.333, 162.500 61.333 C 161.723 61.333, 161.320 61.708, 161.603 62.167 C 161.886 62.625, 161.390 63, 160.500 63 C 159.610 63, 159.114 62.625, 159.397 62.167 C 159.680 61.708, 159.277 61.333, 158.500 61.333 C 157.723 61.333, 157.320 61.708, 157.603 62.167 C 157.886 62.625, 157.390 63, 156.500 63 C 155.610 63, 155.114 62.625, 155.397 62.167 C 155.680 61.708, 155.277 61.333, 154.500 61.333 C 153.723 61.333, 153.320 61.708, 153.603 62.167 C 153.886 62.625, 153.390 63, 152.500 63 C 151.575 63, 151.174 62.528, 151.564 61.896 C 151.939 61.289, 151.178 61.492, 149.873 62.347 C 147.562 63.862, 147.149 64, 144.941 64 C 144.359 64, 144.130 64.402, 144.434 64.893 C 144.749 65.403, 143.586 65.471, 141.724 65.051 C 138.346 64.289, 137.318 64.332, 132.219 65.452 C 130.553 65.818, 128.938 65.709, 128.630 65.211 C 128.322 64.713, 126.817 64.417, 125.285 64.553 C 123.753 64.690, 120.206 64.846, 117.403 64.901 C 113.158 64.983, 112.124 65.376, 111.220 67.250 C 110.606 68.523, 110.106 68.877, 110.068 68.065 C 110.030 67.276, 111.627 63.451, 113.616 59.565 C 128.280 30.917, 157.076 12.984, 188.378 13.008 C 201.009 13.017, 209.770 14.404, 217.500 17.618 C 226.682 21.436, 227.092 21.419, 219.719 17.524 C 210.531 12.670, 197.400 8.398, 185.973 6.544 C 174.722 4.720, 155.300 4.703, 145.437 6.510 M 235.726 74.828 L 211.122 99.500 213.011 103 C 214.050 104.925, 215.658 109.830, 216.584 113.901 C 222.716 140.851, 204.924 169.090, 177.781 175.489 C 166.798 178.079, 155.128 177.127, 145.086 172.822 L 140.613 170.905 134.233 177.286 C 130.618 180.900, 128.515 183.667, 129.382 183.667 C 130.223 183.667, 130.712 183.343, 130.467 182.947 C 129.820 181.899, 132.548 179.881, 133.425 180.759 C 133.833 181.166, 134.017 180.825, 133.833 180 C 133.621 179.042, 134.127 178.605, 135.234 178.790 C 136.439 178.992, 136.788 178.611, 136.377 177.540 C 135.522 175.312, 136.838 175.639, 140.757 178.628 C 143.441 180.675, 143.904 181.466, 142.851 182.204 C 141.799 182.942, 141.777 183.265, 142.750 183.659 C 143.438 183.938, 144 184.804, 144 185.583 C 144 186.363, 144.867 187, 145.927 187 C 146.988 187, 148.728 188.110, 149.795 189.466 C 150.862 190.822, 152.091 191.610, 152.527 191.216 C 152.962 190.822, 153.052 191.245, 152.727 192.156 C 152.380 193.127, 152.934 194.535, 154.067 195.561 C 155.130 196.523, 156 197.735, 156 198.254 C 156 198.773, 157.257 200.391, 158.793 201.849 C 160.329 203.307, 162.375 206.188, 163.340 208.250 C 164.305 210.313, 165.675 212, 166.386 212 C 167.598 212, 170 215.990, 170 218.002 C 170 219.445, 174.947 224, 176.514 224 C 177.453 224, 177.714 224.596, 177.281 225.750 C 176.756 227.151, 176.912 227.281, 178.063 226.405 C 180.356 224.658, 183.217 223.841, 182.397 225.166 C 181.962 225.870, 182.134 226.035, 182.845 225.595 C 183.480 225.203, 184 224.276, 184 223.535 C 184 222.680, 184.731 222.378, 186 222.710 C 187.118 223.003, 188 222.741, 188 222.117 C 188 221.502, 188.753 221, 189.672 221 C 190.592 221, 193.964 218.722, 197.166 215.937 C 200.368 213.152, 203.409 211.135, 203.924 211.453 C 204.440 211.772, 205.187 211.506, 205.585 210.862 C 206.037 210.131, 205.876 209.959, 205.155 210.405 C 204.520 210.797, 204 210.697, 204 210.181 C 204 208.913, 206.522 206.896, 207.342 207.509 C 207.704 207.779, 207.802 207.727, 207.560 207.393 C 207.318 207.060, 207.559 206.272, 208.094 205.643 C 208.630 205.015, 209.730 203.600, 210.540 202.500 C 211.913 200.635, 211.944 200.690, 211.006 203.315 C 209.724 206.902, 209.737 208, 211.059 208 C 211.641 208, 211.857 207.578, 211.538 207.061 C 211.219 206.545, 211.718 205.698, 212.646 205.178 C 213.869 204.494, 214.891 204.752, 216.356 206.117 C 217.467 207.153, 218.855 207.993, 219.439 207.985 C 220.022 207.976, 219.829 207.545, 219.008 207.026 C 217.881 206.313, 217.799 205.801, 218.671 204.929 C 220.057 203.543, 222 204.529, 222 206.618 C 222 207.443, 222.452 207.839, 223.004 207.498 C 223.556 207.157, 223.846 205.893, 223.649 204.689 C 223.453 203.485, 223.484 203.063, 223.719 203.750 C 224.112 204.898, 236.652 205.741, 243.841 205.103 C 245.285 204.975, 245.929 205.305, 245.522 205.964 C 245.159 206.552, 244.330 206.761, 243.681 206.430 C 243.031 206.098, 243.625 206.752, 245 207.883 C 247.296 209.771, 247.601 209.805, 248.740 208.293 C 249.421 207.387, 250.321 206.988, 250.739 207.406 C 251.157 207.823, 249.993 209.510, 248.154 211.154 C 246.314 212.798, 245.022 214.356, 245.283 214.616 C 246.128 215.461, 261.037 198.539, 260.555 197.282 C 260.298 196.612, 260.587 195.755, 261.198 195.378 C 261.925 194.929, 262.034 195.177, 261.514 196.095 C 261.076 196.868, 261.569 196.696, 262.609 195.714 C 264.259 194.155, 264.309 193.793, 263 192.870 C 261.734 191.977, 261.770 191.898, 263.229 192.366 C 266.606 193.450, 277.492 171.825, 281.787 155.500 C 291.117 120.039, 284.375 83.618, 262.969 53.828 L 260.330 50.155 235.726 74.828 M 216.872 53.750 C 215.629 55.336, 215.664 55.371, 217.250 54.128 C 218.916 52.821, 219.445 52, 218.622 52 C 218.415 52, 217.627 52.788, 216.872 53.750 M 200.613 65.183 C 200.902 65.650, 201.557 65.774, 202.069 65.457 C 203.377 64.649, 203.230 64.333, 201.544 64.333 C 200.743 64.333, 200.324 64.716, 200.613 65.183 M 200.526 112.965 L 193.552 120.002 186.776 113.278 L 180 106.554 180 111.489 C 180 115.941, 180.412 116.844, 184.206 120.709 L 188.411 124.995 184.591 128.907 C 182.189 131.367, 181.056 133.282, 181.540 134.064 C 182.036 134.868, 181.900 135.056, 181.155 134.595 C 180.382 134.118, 180.023 134.811, 180.070 136.691 C 180.120 138.667, 180.342 139.012, 180.820 137.854 C 181.401 136.448, 181.689 136.413, 182.796 137.611 C 183.877 138.781, 183.658 139.180, 181.481 140.007 C 177.748 141.427, 170.690 141.311, 171.595 139.845 C 172.068 139.082, 171.866 138.965, 171 139.500 C 170.118 140.045, 169.932 139.919, 170.430 139.114 C 170.857 138.422, 172.039 138.195, 173.235 138.575 C 174.932 139.113, 175.178 138.906, 174.608 137.421 C 173.965 135.746, 174.084 135.755, 176.207 137.540 C 177.609 138.720, 177.373 138.226, 175.597 136.270 C 174 134.511, 172.302 133.314, 171.822 133.610 C 171.343 133.906, 171.074 133.553, 171.225 132.824 C 171.376 132.096, 171.031 131.581, 170.458 131.681 C 168.381 132.041, 169.202 128.230, 171.462 127.021 C 176.671 124.232, 177.474 116.683, 173.084 111.766 L 170.168 108.500 159.084 108.162 L 148 107.823 148 111.912 C 148 114.649, 148.413 115.917, 149.250 115.750 C 150.189 115.562, 150.569 118.800, 150.779 128.750 L 151.058 142 154.779 141.840 C 158.471 141.681, 158.474 141.677, 155.250 141.277 C 152.766 140.968, 152 140.388, 152 138.814 C 152 137.012, 152.206 136.926, 153.654 138.128 C 154.563 138.882, 155.525 139.426, 155.792 139.335 C 157.072 138.901, 157.971 136.130, 157.985 132.576 L 158 128.651 160.324 130.835 C 161.602 132.036, 162.952 132.789, 163.324 132.509 C 163.696 132.229, 163.765 132.310, 163.477 132.689 C 163.190 133.068, 164.859 135.318, 167.186 137.689 C 170.870 141.443, 171.970 142, 175.708 142 C 178.069 142, 180 142.380, 180 142.845 C 180 143.310, 182.912 140.835, 186.471 137.345 C 190.030 133.855, 193.280 131, 193.692 131 C 194.105 131, 197.130 133.588, 200.415 136.750 C 203.700 139.912, 205.839 141.765, 205.169 140.867 C 204.199 139.569, 204.219 139.130, 205.266 138.728 C 206.117 138.402, 206.657 139.128, 206.794 140.781 C 207.177 145.414, 208 144.432, 208 139.341 C 208 135.409, 207.506 133.885, 205.676 132.165 C 204.398 130.964, 202.975 130.323, 202.515 130.741 C 202.056 131.158, 201.966 130.998, 202.316 130.384 C 202.666 129.770, 202.049 128.450, 200.945 127.450 C 198.953 125.647, 198.973 125.596, 203.526 120.973 C 207.934 116.499, 208.103 116.108, 207.808 111.121 L 207.500 105.928 200.526 112.965 M 121.190 111.750 C 121.484 115.310, 121.677 115.500, 125 115.500 L 128.500 115.500 129.366 126.844 C 130.223 138.073, 130.257 138.184, 132.616 137.733 C 134.685 137.338, 135.027 137.689, 135.207 140.389 C 135.321 142.100, 135.658 137.200, 135.957 129.500 L 136.500 115.500 140.250 115.561 C 143.938 115.622, 144 115.560, 144 111.811 L 144 108 132.440 108 L 120.879 108 121.190 111.750 M 158 118.555 L 158 122.110 162.648 121.805 C 171.448 121.228, 170.680 115, 161.809 115 C 158.111 115, 158 115.104, 158 118.555 M 183.613 137.183 C 183.902 137.650, 184.557 137.774, 185.069 137.457 C 186.377 136.649, 186.230 136.333, 184.544 136.333 C 183.743 136.333, 183.324 136.716, 183.613 137.183 M 130 140 C 130 140.550, 130.477 141, 131.059 141 C 131.641 141, 131.840 140.550, 131.500 140 C 131.160 139.450, 130.684 139, 130.441 139 C 130.198 139, 130 139.450, 130 140 M 115 144.059 C 115 144.641, 114.625 144.886, 114.167 144.603 C 113.708 144.320, 113.333 144.736, 113.333 145.528 C 113.333 146.518, 113.701 146.663, 114.509 145.993 C 115.155 145.456, 116.004 145.337, 116.395 145.728 C 116.786 146.119, 116.809 145.665, 116.446 144.720 C 115.704 142.785, 115 142.464, 115 144.059 M 133 143.378 C 133 143.585, 133.787 144.373, 134.750 145.128 C 136.336 146.371, 136.371 146.336, 135.128 144.750 C 133.821 143.084, 133 142.555, 133 143.378 M 112.459 154.067 C 112.096 154.653, 112.014 155.348, 112.276 155.610 C 112.538 155.872, 113.019 155.392, 113.345 154.543 C 114.021 152.781, 113.445 152.471, 112.459 154.067 M 51 156 C 51 156.550, 51.450 157, 52 157 C 52.550 157, 53 156.550, 53 156 C 53 155.450, 52.550 155, 52 155 C 51.450 155, 51 155.450, 51 156 M 104.490 161.016 C 104.144 161.575, 103.475 161.794, 103.003 161.502 C 102.531 161.210, 101.869 161.836, 101.534 162.893 C 100.413 166.424, 97.321 166.303, 97.882 162.750 C 97.947 162.338, 97.550 162, 97 162 C 95.620 162, 95.749 163.275, 97.352 165.467 C 98.666 167.263, 98.777 167.262, 101.257 165.408 C 103.667 163.606, 106.541 160, 105.567 160 C 105.320 160, 104.835 160.457, 104.490 161.016 M 55.031 170.500 C 55.031 171.050, 55.467 172.175, 56 173 C 56.533 173.825, 56.969 174.050, 56.969 173.500 C 56.969 172.950, 56.533 171.825, 56 171 C 55.467 170.175, 55.031 169.950, 55.031 170.500 M 138.569 175.111 C 139.036 175.867, 141.609 175.724, 142.438 174.896 C 142.710 174.623, 141.852 174.400, 140.531 174.400 C 139.210 174.400, 138.327 174.720, 138.569 175.111 M 138.510 185.016 C 138.856 185.575, 139.557 185.774, 140.069 185.457 C 141.456 184.600, 141.198 184, 139.441 184 C 138.584 184, 138.165 184.457, 138.510 185.016 M 123.872 187.750 C 122.629 189.336, 122.664 189.371, 124.250 188.128 C 125.213 187.373, 126 186.585, 126 186.378 C 126 185.555, 125.179 186.084, 123.872 187.750 M 217.500 191 C 217.160 191.550, 217.359 192, 217.941 192 C 218.523 192, 219 191.550, 219 191 C 219 190.450, 218.802 190, 218.559 190 C 218.316 190, 217.840 190.450, 217.500 191 M 214.872 195.750 C 213.629 197.336, 213.664 197.371, 215.250 196.128 C 216.916 194.821, 217.445 194, 216.622 194 C 216.415 194, 215.627 194.787, 214.872 195.750 M 256.924 200.750 L 254.500 203.500 257.250 201.076 C 258.762 199.742, 260 198.505, 260 198.326 C 260 197.541, 259.190 198.180, 256.924 200.750 M 250.708 204.337 C 251.078 204.934, 250.656 205.082, 249.664 204.701 C 248.577 204.284, 248 204.572, 248 205.531 C 248 206.339, 247.523 207, 246.941 207 C 246.359 207, 246.196 207.508, 246.579 208.128 C 247.054 208.896, 247.576 208.722, 248.213 207.585 C 248.781 206.569, 249.849 206.135, 250.933 206.479 C 251.931 206.795, 253.283 206.364, 254 205.500 C 255.092 204.184, 255.014 204.057, 253.477 204.647 C 252.373 205.071, 251.913 204.950, 252.292 204.337 C 252.633 203.785, 252.277 203.333, 251.500 203.333 C 250.723 203.333, 250.367 203.785, 250.708 204.337 M 231.500 209 C 231.840 209.550, 232.740 210, 233.500 210 C 234.260 210, 235.160 209.550, 235.500 209 C 235.852 208.431, 234.991 208, 233.500 208 C 232.009 208, 231.148 208.431, 231.500 209 M 243.250 209.662 C 241.366 210.422, 241.749 211.571, 243.886 211.571 C 245.013 211.571, 245.574 211.053, 245.279 210.286 C 245.008 209.579, 244.722 209.036, 244.643 209.079 C 244.564 209.122, 243.938 209.385, 243.250 209.662 M 240.924 217.750 L 238.500 220.500 241.250 218.076 C 243.820 215.810, 244.459 215, 243.674 215 C 243.495 215, 242.258 216.238, 240.924 217.750 M 165 219 C 165 219.550, 165.423 220, 165.941 220 C 166.459 220, 167.160 219.550, 167.500 219 C 167.840 218.450, 167.416 218, 166.559 218 C 165.702 218, 165 218.450, 165 219 M 234.861 222.059 L 232.500 224.119 235.250 222.444 C 236.762 221.523, 238 220.597, 238 220.385 C 238 219.604, 237.165 220.050, 234.861 222.059 M 172.601 227.164 C 172.856 227.576, 173.725 227.659, 174.532 227.349 C 176.568 226.568, 176.366 226.097, 174.069 226.270 C 173.007 226.350, 172.347 226.752, 172.601 227.164 M 105 228.393 C 105 228.609, 105.698 229.054, 106.552 229.382 C 107.442 229.723, 107.843 229.555, 107.493 228.989 C 106.906 228.038, 105 227.583, 105 228.393 M 109.083 230.365 C 109.313 230.565, 110.625 231.265, 112 231.920 C 114.357 233.042, 114.389 233.022, 112.559 231.555 C 110.966 230.279, 107.711 229.164, 109.083 230.365 M 220 231 C 219.099 231.582, 218.975 231.975, 219.691 231.985 C 220.346 231.993, 221.160 231.550, 221.500 231 C 222.267 229.758, 221.921 229.758, 220 231 M 216 233 C 215.099 233.582, 214.975 233.975, 215.691 233.985 C 216.346 233.993, 217.160 233.550, 217.500 233 C 218.267 231.758, 217.921 231.758, 216 233 M 118 235 C 118.825 235.533, 119.950 235.969, 120.500 235.969 C 121.050 235.969, 120.825 235.533, 120 235 C 119.175 234.467, 118.050 234.031, 117.500 234.031 C 116.950 234.031, 117.175 234.467, 118 235 M 123 237 C 123.825 237.533, 124.950 237.969, 125.500 237.969 C 126.050 237.969, 125.825 237.533, 125 237 C 124.175 236.467, 123.050 236.031, 122.500 236.031 C 121.950 236.031, 122.175 236.467, 123 237 M 127.813 238.683 C 128.534 238.972, 129.397 238.936, 129.729 238.604 C 130.061 238.272, 129.471 238.036, 128.417 238.079 C 127.252 238.127, 127.015 238.364, 127.813 238.683 M 138.813 241.683 C 139.534 241.972, 140.397 241.936, 140.729 241.604 C 141.061 241.272, 140.471 241.036, 139.417 241.079 C 138.252 241.127, 138.015 241.364, 138.813 241.683 M 190.813 241.683 C 191.534 241.972, 192.397 241.936, 192.729 241.604 C 193.061 241.272, 192.471 241.036, 191.417 241.079 C 190.252 241.127, 190.015 241.364, 190.813 241.683 M 143.813 242.683 C 144.534 242.972, 145.397 242.936, 145.729 242.604 C 146.061 242.272, 145.471 242.036, 144.417 242.079 C 143.252 242.127, 143.015 242.364, 143.813 242.683 M 186.813 242.683 C 187.534 242.972, 188.397 242.936, 188.729 242.604 C 189.061 242.272, 188.471 242.036, 187.417 242.079 C 186.252 242.127, 186.015 242.364, 186.813 242.683 M 150.269 243.693 C 151.242 243.947, 152.592 243.930, 153.269 243.656 C 153.946 243.382, 153.150 243.175, 151.500 243.195 C 149.850 243.215, 149.296 243.439, 150.269 243.693 M 178.250 243.689 C 179.213 243.941, 180.787 243.941, 181.750 243.689 C 182.713 243.438, 181.925 243.232, 180 243.232 C 178.075 243.232, 177.287 243.438, 178.250 243.689 M 161.776 244.733 C 164.128 244.945, 167.728 244.942, 169.776 244.727 C 171.824 244.512, 169.900 244.339, 165.500 244.343 C 161.100 244.346, 159.424 244.522, 161.776 244.733 M 22.324 248.439 C 17.336 249.999, 12.267 253.016, 9.308 256.188 C 6.236 259.479, 2.327 267.775, 1.524 272.705 C 0.650 278.073, 2.553 287.667, 4.492 287.667 C 5.273 287.667, 5.709 287.339, 5.462 286.938 C 5.214 286.537, 5.788 285.912, 6.737 285.548 C 7.686 285.183, 8.621 285.364, 8.816 285.949 C 9.011 286.534, 9.695 286.698, 10.335 286.314 C 10.976 285.930, 10.887 286.372, 10.137 287.297 C 9.387 288.222, 8.305 288.688, 7.732 288.334 C 7.113 287.952, 6.992 288.178, 7.435 288.894 C 8.183 290.105, 10.436 288.985, 12.196 286.529 C 12.578 285.995, 13.168 285.835, 13.507 286.174 C 14.471 287.137, 7.927 294.073, 6.745 293.342 C 6.095 292.941, 5.991 293.176, 6.473 293.957 C 7.029 294.857, 8.853 293.625, 12.781 289.698 L 18.305 284.173 18.403 277.651 C 18.489 271.863, 18.831 270.785, 21.443 268.059 C 25.034 264.312, 29.856 262.811, 34.253 264.072 C 37.140 264.901, 37.774 264.671, 40.484 261.810 C 42.143 260.058, 42.718 259.209, 41.763 259.924 C 40.807 260.639, 39.368 260.971, 38.564 260.663 C 37.582 260.286, 37.285 260.578, 37.658 261.551 C 38.386 263.447, 37.029 263.416, 35.610 261.503 C 34.699 260.276, 33.798 260.202, 30.593 261.094 C 28.444 261.692, 25.417 261.995, 23.867 261.767 C 22.317 261.540, 20.848 261.837, 20.603 262.427 C 20.358 263.017, 20.122 262.882, 20.079 262.128 C 20.012 260.968, 19.745 260.966, 18.356 262.119 C 17.091 263.169, 17.211 262.507, 18.877 259.241 C 21.760 253.589, 27.831 249.788, 35 249.145 C 39.374 248.753, 39.988 248.503, 38 247.926 C 34.056 246.780, 26.879 247.015, 22.324 248.439 M 129.703 266.917 C 123.817 277.322, 119 286.123, 119 286.476 C 119 286.829, 119.520 286.797, 120.155 286.405 C 120.876 285.959, 121.037 286.131, 120.585 286.862 C 120.187 287.506, 119.501 287.809, 119.059 287.537 C 118.618 287.264, 116.777 289.844, 114.968 293.270 C 112.278 298.367, 112.068 299.158, 113.816 297.616 C 114.991 296.580, 115.712 295.343, 115.417 294.866 C 114.607 293.555, 116.416 293.829, 117.947 295.250 C 119.041 296.266, 119.140 296.219, 118.475 295 C 117.847 293.850, 118.105 293.892, 119.579 295.179 C 121.019 296.437, 121.959 296.602, 123.326 295.838 C 125.967 294.360, 126.372 295.379, 124.548 298.907 C 123.668 300.608, 123.159 302, 123.416 302 C 123.672 302, 127.551 295.475, 132.034 287.500 C 136.517 279.525, 140.546 273, 140.987 273 C 141.428 273, 144.357 277.498, 147.497 282.995 C 150.637 288.493, 153.577 292.761, 154.031 292.481 C 154.485 292.200, 155.113 292.781, 155.427 293.771 C 155.742 294.761, 156.899 295.571, 157.999 295.571 C 159.461 295.571, 159.847 295.093, 159.434 293.792 C 159.024 292.501, 159.282 292.171, 160.371 292.589 C 161.198 292.906, 161.638 293.781, 161.349 294.532 C 160.957 295.555, 161.537 295.770, 163.656 295.386 C 165.894 294.980, 166.974 295.462, 168.815 297.686 C 170.845 300.140, 170.783 299.839, 168.327 295.336 C 166.450 291.891, 165.229 290.559, 164.662 291.336 C 164.133 292.060, 164.036 291.808, 164.405 290.669 C 165.083 288.581, 162.745 284.629, 161.500 285.756 C 161.049 286.165, 161 285.942, 161.392 285.260 C 162.081 284.062, 142.390 248, 141.047 248 C 140.695 248, 135.590 256.513, 129.703 266.917 M 63 257.406 C 63 263.320, 63.154 263.773, 65 263.290 C 66.856 262.804, 67 263.260, 67.005 269.633 C 67.012 281.283, 68.294 299.513, 68.970 297.586 C 69.419 296.306, 70.866 295.646, 73.805 295.382 C 77.596 295.040, 78.001 295.220, 78.015 297.252 C 78.028 299.067, 78.216 299.211, 78.994 298 C 79.523 297.175, 79.870 294.384, 79.763 291.799 C 79.656 289.213, 79.862 286.805, 80.219 286.447 C 80.577 286.090, 82.105 286.944, 83.617 288.345 C 85.128 289.747, 86.802 290.623, 87.337 290.292 C 87.871 289.961, 88.032 290.139, 87.693 290.687 C 87.355 291.235, 88.703 293.217, 90.689 295.092 C 92.675 296.966, 93.908 297.825, 93.428 297 C 92.131 294.768, 92.027 292.898, 93.242 293.650 C 94.899 294.674, 99 294.920, 99 293.995 C 99 293.540, 98.438 292.967, 97.750 292.723 C 97.063 292.480, 98.273 292.360, 100.439 292.457 C 102.896 292.567, 104.524 293.173, 104.765 294.067 C 105.079 295.229, 104.975 295.247, 104.214 294.165 C 102.864 292.242, 102.460 292.274, 100 294.500 C 98.785 295.600, 97.650 296.275, 97.478 296 C 97.307 295.725, 96.792 295.910, 96.333 296.410 C 95.865 296.922, 95.959 297.060, 96.548 296.726 C 97.124 296.399, 98.234 296.527, 99.014 297.009 C 99.883 297.546, 100.969 297.441, 101.814 296.739 C 104.210 294.751, 106.851 294.949, 108.453 297.236 C 109.304 298.451, 110 298.993, 110 298.441 C 110 296.835, 98.464 285.869, 97.641 286.692 C 97.230 287.103, 97.150 286.772, 97.463 285.957 C 97.776 285.141, 99.384 283.876, 101.036 283.144 C 102.688 282.413, 105.268 280.203, 106.770 278.232 C 109.104 275.168, 109.500 273.696, 109.498 268.074 C 109.496 262.741, 109.042 260.865, 107.096 258.133 C 102.797 252.100, 98.749 251.047, 79.750 251.022 L 63 251 63 257.406 M 190.615 252.639 C 180.300 255.806, 171.920 267.897, 172.044 279.432 C 172.098 284.433, 175.077 293.500, 176.667 293.500 C 177.308 293.500, 178.171 293.837, 178.583 294.250 C 178.996 294.663, 178.724 295, 177.980 295 C 176.384 295, 181.525 300.673, 184.500 302.196 C 185.600 302.759, 185.005 301.933, 183.177 300.360 L 179.855 297.500 183.177 295.564 C 186.303 293.742, 186.411 293.737, 185 295.477 C 183.612 297.189, 183.650 297.250, 185.500 296.294 C 186.600 295.725, 188.287 295.386, 189.250 295.541 C 190.213 295.696, 191 295.404, 191 294.892 C 191 294.381, 192.238 294.206, 193.750 294.504 L 196.500 295.046 194.021 293.970 C 192.657 293.379, 190.697 292.131, 189.666 291.197 C 188.634 290.264, 187.505 289.609, 187.156 289.741 C 186.807 289.874, 186.492 289.424, 186.456 288.741 C 186.420 288.059, 185.853 286.233, 185.195 284.685 C 183.473 280.628, 183.715 277.220, 186.071 272.353 C 188.877 266.556, 193.619 263.750, 200.845 263.610 L 206.500 263.500 206.807 267.750 L 207.115 272 213.057 272 L 219 272 219 261.500 L 219 251 207.250 251.070 C 199.834 251.114, 193.698 251.693, 190.615 252.639 M 224 256.930 C 224 262.319, 224.206 262.890, 226.250 263.180 C 228.480 263.497, 228.505 263.685, 229.031 284 C 229.324 295.275, 229.714 302.475, 229.900 300 C 230.085 297.525, 230.158 295.086, 230.062 294.581 C 229.966 294.075, 230.475 294.117, 231.194 294.674 C 231.912 295.231, 234.412 295.539, 236.750 295.359 C 240.237 295.091, 241.003 295.343, 241.015 296.766 C 241.026 297.939, 241.276 298.114, 241.789 297.307 C 242.207 296.650, 245.237 295.948, 248.524 295.746 L 254.500 295.378 247.750 295.189 L 241 295 241 273 L 241 251 232.500 251 L 224 251 224 256.930 M 272 256.930 C 272 262.319, 272.206 262.890, 274.250 263.180 C 276.468 263.495, 276.508 263.761, 277.034 282 C 277.328 292.175, 277.719 299.600, 277.903 298.500 C 278.087 297.400, 278.165 295.825, 278.077 295 C 277.979 294.082, 278.224 293.897, 278.708 294.524 C 279.831 295.977, 299.930 296.616, 307.250 295.431 C 310.381 294.924, 311 295.112, 311 296.567 C 311 298.192, 311.124 298.198, 312.829 296.655 C 313.835 295.745, 315.152 295, 315.755 295 C 316.359 295, 317.028 294.212, 317.241 293.250 C 317.455 292.288, 317.717 294.391, 317.823 297.926 C 318.090 306.734, 319 306.989, 319 298.255 L 319 291.178 312.998 290.839 C 307.312 290.518, 306.996 290.620, 306.998 292.788 C 307 295.027, 306.805 295.069, 297.750 294.788 C 292.663 294.629, 288.613 294.163, 288.750 293.750 C 288.887 293.337, 289 286.250, 289 278 L 289 263 304 263 L 319 263 319 257 L 319 251 295.500 251 L 272 251 272 256.930 M 49 264.493 L 43.500 270.070 43.834 275.904 C 44.142 281.260, 43.909 282.034, 40.993 285.355 C 37.298 289.564, 31.924 291.412, 27.268 290.077 C 24.792 289.367, 23.820 289.541, 22.575 290.917 C 21.112 292.534, 21.212 292.622, 24.042 292.207 C 26.247 291.883, 27 292.136, 26.790 293.131 C 26.630 293.884, 27.096 294.376, 27.825 294.225 C 28.682 294.047, 28.953 294.578, 28.592 295.725 C 28.195 296.983, 28.975 298.068, 31.266 299.451 C 35.824 302.201, 37.553 302.114, 40.689 298.977 C 43.425 296.242, 46.340 295.950, 45.358 298.510 C 44.982 299.490, 45.473 299.691, 47.171 299.254 C 49.336 298.696, 49.394 298.786, 48 300.538 C 46.720 302.146, 46.951 302.106, 49.575 300.268 C 55.836 295.881, 61 285.374, 61 277.023 C 61 272.294, 58.467 263.795, 56.241 261.058 L 54.500 258.917 49 264.493 M 80 268 L 80 273 87.429 273 C 95.300 273, 98 271.719, 98 267.985 C 98 264.717, 94.134 263, 86.777 263 L 80 263 80 268 M 294 279 L 294 285 298.281 285 C 302.188 285, 303.083 284.474, 308.500 279 L 314.437 273 304.219 273 L 294 273 294 279 M 15 285.059 C 15 285.641, 15.450 285.840, 16 285.500 C 16.550 285.160, 17 284.684, 17 284.441 C 17 284.198, 16.550 284, 16 284 C 15.450 284, 15 284.477, 15 285.059 M 260.687 290.741 C 255.376 291.072, 254.901 291.292, 255.187 293.282 C 255.557 295.856, 261.051 298.342, 261.749 296.250 C 261.979 295.563, 262.831 295, 263.642 295 C 264.454 295, 264.859 294.581, 264.543 294.069 C 264.226 293.557, 264.318 292.922, 264.745 292.657 C 265.173 292.393, 265.657 294.938, 265.820 298.313 C 266.244 307.111, 267 306.697, 267 297.667 C 267 293.450, 266.887 290.085, 266.750 290.189 C 266.613 290.293, 263.884 290.541, 260.687 290.741 M 312.397 293.167 C 312.114 293.625, 312.557 294, 313.382 294 C 314.207 294, 315.114 293.625, 315.397 293.167 C 315.680 292.708, 315.237 292.333, 314.412 292.333 C 313.587 292.333, 312.680 292.708, 312.397 293.167 M 51.490 295.016 C 51.144 295.575, 50.490 295.803, 50.036 295.522 C 49.581 295.241, 48.957 295.669, 48.648 296.474 C 48.340 297.278, 48.557 298.226, 49.131 298.581 C 50.366 299.344, 52.288 297.644, 52.601 295.510 C 52.858 293.764, 52.392 293.557, 51.490 295.016 M 143.750 294.746 L 133 295.068 133 301.034 L 133 307 154.167 307 C 165.808 307, 175.073 306.740, 174.755 306.421 C 174.436 306.103, 165.136 305.895, 154.088 305.958 L 134 306.074 134 301.037 L 134 296 143.941 296 C 149.490 296, 154.155 295.558, 154.500 295 C 154.840 294.450, 154.979 294.096, 154.809 294.212 C 154.639 294.329, 149.662 294.569, 143.750 294.746 M 202.750 295.740 L 209 296.095 209 301.002 L 209 305.909 202.250 306.258 L 195.500 306.608 202.750 306.804 L 210 307 210 301 L 210 295 203.250 295.193 L 196.500 295.385 202.750 295.740 M 190 298.059 C 190 298.641, 190.450 298.840, 191 298.500 C 191.550 298.160, 192 297.684, 192 297.441 C 192 297.198, 191.550 297, 191 297 C 190.450 297, 190 297.477, 190 298.059 M 201.750 297.662 C 202.438 297.940, 203.563 297.940, 204.250 297.662 C 204.938 297.385, 204.375 297.158, 203 297.158 C 201.625 297.158, 201.063 297.385, 201.750 297.662 M 44 303 C 43.099 303.582, 42.975 303.975, 43.691 303.985 C 44.346 303.993, 45.160 303.550, 45.500 303 C 46.267 301.758, 45.921 301.758, 44 303 M 23.813 305.683 C 24.534 305.972, 25.397 305.936, 25.729 305.604 C 26.061 305.272, 25.471 305.036, 24.417 305.079 C 23.252 305.127, 23.015 305.364, 23.813 305.683 M 36.750 305.662 C 37.438 305.940, 38.563 305.940, 39.250 305.662 C 39.938 305.385, 39.375 305.158, 38 305.158 C 36.625 305.158, 36.063 305.385, 36.750 305.662 M 111.500 306 L 101.500 306.613 111.191 306.806 C 116.792 306.918, 121.143 306.578, 121.500 306 C 121.840 305.450, 121.979 305.087, 121.809 305.194 C 121.639 305.300, 117 305.663, 111.500 306 M 191.813 305.683 C 192.534 305.972, 193.397 305.936, 193.729 305.604 C 194.061 305.272, 193.471 305.036, 192.417 305.079 C 191.252 305.127, 191.015 305.364, 191.813 305.683 M 29.250 306.689 C 30.212 306.941, 31.788 306.941, 32.750 306.689 C 33.712 306.438, 32.925 306.232, 31 306.232 C 29.075 306.232, 28.288 306.438, 29.250 306.689 M 70.750 306.723 C 72.537 306.945, 75.463 306.945, 77.250 306.723 C 79.037 306.502, 77.575 306.320, 74 306.320 C 70.425 306.320, 68.963 306.502, 70.750 306.723 M 238.250 306.746 C 243.613 306.925, 252.387 306.925, 257.750 306.746 C 263.113 306.566, 258.725 306.419, 248 306.419 C 237.275 306.419, 232.887 306.566, 238.250 306.746 M 287.250 306.746 C 293.163 306.923, 302.837 306.923, 308.750 306.746 C 314.663 306.569, 309.825 306.425, 298 306.425 C 286.175 306.425, 281.337 306.569, 287.250 306.746" stroke="none" fill="black" fill-rule="evenodd"/>
	<path fill-opacity="0.310" d="M 148.585 6.107 C 124.655 9.597, 100.721 21.325, 83.314 38.090 C 72.438 48.565, 60.377 64.934, 61.459 67.753 C 61.744 68.496, 61.586 68.862, 61.108 68.567 C 60.630 68.271, 58.900 70.835, 57.263 74.265 C 53.624 81.892, 52.420 85.477, 53.779 84.636 C 54.326 84.299, 55.007 84.917, 55.293 86.011 C 55.579 87.105, 55.457 88, 55.023 88 C 54.589 88, 53.998 88.901, 53.710 90.001 C 52.851 93.285, 54.616 91.348, 56.889 86.513 C 59.032 81.953, 61.254 80.311, 60.290 84 C 59.705 86.237, 62.464 86.916, 63.338 84.750 C 63.639 84.003, 63.874 84.205, 63.921 85.250 C 63.993 86.840, 65.459 87, 80 87 L 96 87 96.063 84.250 L 96.127 81.500 97.181 84 L 98.235 86.500 99.474 83.613 C 101.207 79.573, 102 81.511, 102.592 91.226 C 103.433 105.013, 104.963 115.621, 107.064 122.227 C 109.010 128.344, 116.058 144.275, 116.585 143.748 C 116.731 143.602, 116.216 140.787, 115.441 137.492 C 111.327 120.001, 115.837 103.171, 128.389 89.174 C 133.321 83.675, 133.549 83.285, 129.687 86.958 C 126.897 89.612, 124.988 90.826, 124.970 89.958 C 124.947 88.872, 124.676 88.952, 123.908 90.271 C 123.341 91.245, 122.486 91.800, 122.008 91.505 C 121.529 91.209, 120.813 91.494, 120.415 92.138 C 119.979 92.843, 120.123 93.042, 120.776 92.638 C 121.373 92.269, 122.120 92.385, 122.436 92.896 C 122.751 93.407, 122.220 93.673, 121.255 93.489 C 120.290 93.304, 119.163 93.119, 118.750 93.077 C 118.338 93.034, 118.053 92.662, 118.118 92.250 C 118.484 89.932, 117.480 89.399, 112.530 89.283 C 109.521 89.213, 106.596 88.869, 106.030 88.518 C 104.405 87.514, 104.821 81.807, 107.063 74.355 C 116.092 44.345, 140.331 21.460, 170.498 14.464 C 184.620 11.189, 205.212 12.137, 215.768 16.548 C 217.715 17.361, 219.483 17.851, 219.698 17.636 C 220.360 16.974, 202.876 10.343, 196 8.649 C 181.544 5.087, 162.556 4.069, 148.585 6.107 M 235.644 74.856 L 211.803 98.712 214.485 106.106 C 219.586 120.171, 218.902 134.174, 212.464 147.500 C 208.233 156.256, 202.694 162.703, 194.969 167.862 C 186.347 173.619, 179.017 176.092, 168 176.960 C 158.635 177.698, 158.600 177.711, 165.500 177.840 C 171.964 177.960, 183.873 175.905, 186.483 174.218 C 187.094 173.823, 186.736 174.287, 185.686 175.250 C 184.637 176.213, 182.955 177, 181.948 177 C 179.557 177, 178.326 178.990, 180.691 179.032 C 182.379 179.061, 182.370 179.162, 180.559 180.532 C 178.679 181.954, 178.694 182.004, 181.059 182.118 C 182.401 182.184, 183.893 182.165, 184.373 182.078 C 184.853 181.990, 184.988 182.589, 184.674 183.408 C 184.319 184.331, 184.843 185.133, 186.051 185.516 C 187.123 185.856, 188 186.934, 188 187.912 C 188 188.889, 189.124 190.996, 190.499 192.594 C 191.873 194.193, 192.998 196.318, 192.999 197.317 C 193 198.680, 193.501 198.976, 195 198.500 C 196.419 198.050, 197 198.320, 197 199.433 C 197 200.299, 197.839 201, 198.878 201 C 199.910 201, 201.293 201.648, 201.951 202.441 C 202.608 203.233, 203.844 203.613, 204.698 203.286 C 206.041 202.770, 206.025 203.031, 204.578 205.241 C 203.659 206.643, 201.923 208.048, 200.721 208.363 C 198.954 208.825, 198.778 209.178, 199.804 210.204 C 200.830 211.230, 202.110 210.325, 206.479 205.487 C 220.679 189.760, 228.736 166.702, 227.857 144.299 C 227.521 135.740, 227.609 135.254, 229.326 136.173 C 230.944 137.040, 231.025 136.915, 230.041 135.076 C 229.430 133.934, 228.495 133, 227.965 133 C 227.434 133, 227 132.255, 227 131.345 C 227 129.828, 227.158 129.833, 228.901 131.410 C 230.180 132.568, 231.022 132.773, 231.476 132.039 C 231.847 131.439, 233.579 130.976, 235.325 131.010 C 237.071 131.045, 246.766 131.046, 256.870 131.014 C 268.373 130.976, 275.715 131.348, 276.511 132.009 C 277.472 132.806, 278.040 132.323, 278.839 130.032 C 280.217 126.079, 280.581 126.208, 280.708 130.695 C 280.766 132.727, 281.491 134.886, 282.321 135.492 C 283.150 136.099, 284.046 137.923, 284.313 139.547 C 284.710 141.968, 284.776 141.834, 284.678 138.804 C 284.613 136.771, 284.884 134.783, 285.280 134.387 C 286.495 133.171, 286.068 117.032, 284.555 106.996 C 282.956 96.383, 279.394 84.292, 274.948 74.383 C 271.755 67.268, 261.540 51, 260.265 51 C 259.835 51, 248.756 61.735, 235.644 74.856 M 57.189 76.549 C 55.985 79.026, 55.004 81.604, 55.010 82.277 C 55.015 82.950, 56.150 81.072, 57.531 78.105 C 58.912 75.137, 59.893 72.560, 59.710 72.377 C 59.527 72.194, 58.392 74.071, 57.189 76.549 M 159.813 72.683 C 160.534 72.972, 161.397 72.936, 161.729 72.604 C 162.061 72.272, 161.471 72.036, 160.417 72.079 C 159.252 72.127, 159.015 72.364, 159.813 72.683 M 168.750 72.662 C 169.438 72.940, 170.563 72.940, 171.250 72.662 C 171.938 72.385, 171.375 72.158, 170 72.158 C 168.625 72.158, 168.063 72.385, 168.750 72.662 M 186 76.393 C 186 76.609, 186.698 77.054, 187.552 77.382 C 188.442 77.723, 188.843 77.555, 188.493 76.989 C 187.906 76.038, 186 75.583, 186 76.393 M 96 77.930 C 96 78.442, 94.987 79.056, 93.750 79.294 C 91.821 79.666, 91.892 79.747, 94.250 79.864 C 96.088 79.955, 97 79.503, 97 78.500 C 97 77.675, 96.775 77, 96.500 77 C 96.225 77, 96 77.419, 96 77.930 M 87.500 79.005 C 85.754 79.759, 85.840 79.850, 88.178 79.722 C 89.651 79.642, 90.637 79.221, 90.369 78.788 C 90.101 78.355, 89.796 78.032, 89.691 78.070 C 89.586 78.109, 88.600 78.529, 87.500 79.005 M 51.091 90.091 C 50.415 92.348, 50.045 94.379, 50.270 94.604 C 50.495 94.829, 51.233 93.166, 51.909 90.909 C 52.585 88.652, 52.955 86.621, 52.730 86.396 C 52.505 86.171, 51.767 87.834, 51.091 90.091 M 110.543 90.931 C 110.226 91.443, 110.425 92.144, 110.984 92.490 C 111.543 92.835, 112 92.416, 112 91.559 C 112 89.802, 111.400 89.544, 110.543 90.931 M 106.510 92.016 C 106.856 92.575, 107.557 92.774, 108.069 92.457 C 109.456 91.600, 109.198 91, 107.441 91 C 106.584 91, 106.165 91.457, 106.510 92.016 M 120.459 96.067 C 120.096 96.653, 120.014 97.348, 120.276 97.610 C 120.538 97.872, 121.019 97.392, 121.345 96.543 C 122.021 94.781, 121.445 94.471, 120.459 96.067 M 49.158 98 C 49.158 99.375, 49.385 99.938, 49.662 99.250 C 49.940 98.563, 49.940 97.438, 49.662 96.750 C 49.385 96.063, 49.158 96.625, 49.158 98 M 48.079 102.583 C 48.127 103.748, 48.364 103.985, 48.683 103.188 C 48.972 102.466, 48.936 101.603, 48.604 101.271 C 48.272 100.939, 48.036 101.529, 48.079 102.583 M 47.195 108.500 C 47.215 110.150, 47.439 110.704, 47.693 109.731 C 47.947 108.758, 47.930 107.408, 47.656 106.731 C 47.382 106.054, 47.175 106.850, 47.195 108.500 M 200.594 112.966 L 193.688 120.129 188.038 114.537 C 184.930 111.462, 182.003 109.296, 181.533 109.723 C 181.064 110.150, 180.984 109.969, 181.356 109.319 C 181.728 108.670, 181.575 107.856, 181.016 107.510 C 180.381 107.118, 180 108.702, 180 111.733 C 180 116.126, 180.405 116.981, 184.294 120.798 C 187.466 123.911, 188.881 124.719, 189.709 123.891 C 190.326 123.274, 192.106 122.627, 193.665 122.453 C 195.224 122.279, 197.525 121.904, 198.777 121.621 C 200.100 121.321, 200.804 121.508, 200.458 122.069 C 200.130 122.599, 199.373 122.731, 198.776 122.362 C 198.108 121.949, 197.981 122.159, 198.445 122.911 C 199.217 124.160, 199.429 124.026, 205.718 118.334 C 207.756 116.490, 208.065 115.400, 207.805 110.986 L 207.500 105.804 200.594 112.966 M 121.787 111.703 C 121.425 114.801, 121.545 114.915, 125.456 115.203 C 128.041 115.393, 129.410 115.951, 129.250 116.750 C 129.113 117.438, 129.372 118, 129.827 118 C 130.282 118, 130.475 119.463, 130.256 121.250 C 129.981 123.496, 130.150 124.081, 130.804 123.143 C 131.530 122.102, 131.925 122.069, 132.500 123 C 133.075 123.930, 133.451 123.896, 134.110 122.857 C 134.814 121.746, 134.999 121.772, 135.135 123 C 135.226 123.825, 135.570 122.475, 135.900 120 C 136.480 115.647, 136.622 115.490, 140.250 115.190 C 143.798 114.896, 144 114.694, 144 111.430 L 144 107.981 133.080 108.241 L 122.161 108.500 121.787 111.703 M 148 111.333 C 148 113.480, 148.567 115.004, 149.500 115.362 C 150.627 115.794, 151 117.604, 151 122.635 C 151 129.696, 151.734 131.012, 152.159 124.712 C 152.404 121.076, 152.969 120.302, 154.362 121.696 C 155.427 122.761, 158.098 123.155, 162.500 122.897 C 164.700 122.768, 167.698 122.671, 169.162 122.683 C 171.193 122.699, 171.680 122.324, 171.218 121.102 C 170.743 119.848, 171.023 119.908, 172.507 121.379 C 174.365 123.222, 174.349 123.303, 171.645 125.629 C 170.129 126.933, 169.324 128, 169.855 128 C 170.387 128, 171.987 126.615, 173.411 124.923 C 176.933 120.738, 176.873 115.968, 173.250 112.080 C 170.606 109.242, 170.065 109.104, 159.250 108.504 L 148 107.881 148 111.333 M 46.370 125 C 46.370 130.775, 46.535 133.137, 46.737 130.250 C 46.939 127.362, 46.939 122.638, 46.737 119.750 C 46.535 116.862, 46.370 119.225, 46.370 125 M 158 118.555 L 158 122.110 162.648 121.805 C 171.296 121.238, 171.048 115, 162.378 115 C 158.028 115, 158 115.023, 158 118.555 M 284.199 125.309 C 284.089 129.077, 283.595 131.868, 283.093 131.558 C 282.595 131.249, 282.430 131.928, 282.727 133.065 C 283.860 137.397, 285.082 133.060, 284.746 125.903 L 284.397 118.500 284.199 125.309 M 186.405 121.854 C 188.521 124.238, 189 124.456, 189 123.035 C 189 122.505, 187.988 121.539, 186.750 120.890 C 184.512 119.715, 184.510 119.720, 186.405 121.854 M 198 125.313 C 198 125.485, 199.463 126.948, 201.250 128.563 L 204.500 131.500 201.563 128.250 C 198.825 125.221, 198 124.540, 198 125.313 M 227.708 126.144 C 223.760 128.353, 227.235 128.972, 236.274 127.669 C 237.800 127.450, 239.257 127.607, 239.511 128.018 C 240.328 129.341, 272.198 129.093, 271.756 127.768 C 271.480 126.941, 265.541 126.553, 251.293 126.428 C 240.253 126.332, 230.823 126.008, 230.338 125.709 C 229.854 125.410, 228.670 125.605, 227.708 126.144 M 273.813 128.683 C 274.534 128.972, 275.397 128.936, 275.729 128.604 C 276.061 128.272, 275.471 128.036, 274.417 128.079 C 273.252 128.127, 273.015 128.364, 273.813 128.683 M 161 131.500 C 162.292 132.875, 163.574 134, 163.849 134 C 164.124 134, 163.292 132.875, 162 131.500 C 160.708 130.125, 159.426 129, 159.151 129 C 158.876 129, 159.708 130.125, 161 131.500 M 170.500 132 C 171.495 133.100, 172.535 134, 172.810 134 C 173.085 134, 172.495 133.100, 171.500 132 C 170.505 130.900, 169.465 130, 169.190 130 C 168.915 130, 169.505 130.900, 170.500 132 M 196.500 133 C 197.495 134.100, 198.535 135, 198.810 135 C 199.085 135, 198.495 134.100, 197.500 133 C 196.505 131.900, 195.465 131, 195.190 131 C 194.915 131, 195.505 131.900, 196.500 133 M 277 135 C 277 135.550, 277.450 136, 278 136 C 278.550 136, 279 135.550, 279 135 C 279 134.450, 278.550 134, 278 134 C 277.450 134, 277 134.450, 277 135 M 283.079 146.583 C 283.127 147.748, 283.364 147.985, 283.683 147.188 C 283.972 146.466, 283.936 145.603, 283.604 145.271 C 283.272 144.939, 283.036 145.529, 283.079 146.583 M 282.079 151.583 C 282.127 152.748, 282.364 152.985, 282.683 152.188 C 282.972 151.466, 282.936 150.603, 282.604 150.271 C 282.272 149.939, 282.036 150.529, 282.079 151.583 M 280.571 156.571 C 280.204 158.037, 280.096 159.429, 280.331 159.665 C 280.567 159.900, 281.061 158.894, 281.429 157.429 C 281.796 155.963, 281.904 154.571, 281.669 154.335 C 281.433 154.100, 280.939 155.106, 280.571 156.571 M 154.813 176.683 C 155.534 176.972, 156.397 176.936, 156.729 176.604 C 157.061 176.272, 156.471 176.036, 155.417 176.079 C 154.252 176.127, 154.015 176.364, 154.813 176.683 M 199.250 202.662 C 197.834 203.234, 197.530 206, 198.883 206 C 199.369 206, 200.002 205.100, 200.290 204 C 200.577 202.900, 200.742 202.036, 200.656 202.079 C 200.570 202.122, 199.938 202.385, 199.250 202.662 M 25.500 247.672 C 15.472 249.879, 6.098 257.683, 3.493 265.992 C 2.793 268.224, 2.883 268.342, 4.356 267.120 C 5.260 266.369, 6.001 266.148, 6.002 266.628 C 6.003 267.107, 7.651 267.618, 9.664 267.762 C 14.374 268.100, 15.976 269.496, 16.100 273.372 C 16.155 275.093, 16.560 277.625, 17 279 C 17.664 281.074, 17.818 280.728, 17.900 276.973 C 17.955 274.482, 18.680 271.474, 19.512 270.287 C 20.952 268.230, 20.905 268.150, 18.512 268.584 C 16.363 268.973, 16 268.668, 16 266.470 C 16 257.899, 25.831 249.126, 35.710 248.882 C 39.970 248.776, 40.168 248.679, 37.500 248 C 34.165 247.151, 28.562 246.998, 25.500 247.672 M 134 259.656 C 130.425 266.063, 127.643 271.957, 127.817 272.753 C 128.019 273.675, 127.690 273.927, 126.912 273.446 C 126.126 272.960, 125.949 273.108, 126.415 273.862 C 127.376 275.418, 129.282 274.177, 128.612 272.431 C 128.323 271.679, 128.518 270.798, 129.044 270.473 C 129.570 270.148, 130 270.387, 130 271.004 C 130 271.621, 131.012 271.985, 132.250 271.813 C 133.826 271.594, 134.400 271.949, 134.168 273 C 133.954 273.965, 134.756 273.636, 136.418 272.076 L 139 269.651 139.015 272.076 C 139.026 273.822, 139.272 274.119, 139.893 273.140 C 140.474 272.221, 142.226 271.896, 145.282 272.140 C 147.772 272.338, 149.620 272.194, 149.388 271.819 C 149.157 271.445, 149.394 270.875, 149.915 270.553 C 150.436 270.231, 151.149 270.432, 151.500 271 C 151.851 271.568, 152.557 271.774, 153.069 271.457 C 153.927 270.927, 154.436 272.351, 154.094 274.324 C 154.015 274.778, 154.412 274.864, 154.975 274.515 C 155.539 274.167, 156 274.273, 156 274.750 C 156 275.227, 156.706 276.491, 157.569 277.559 C 158.433 278.626, 157.887 277.170, 156.357 274.322 C 154.827 271.474, 153.272 269.332, 152.901 269.561 C 152.529 269.791, 152.288 269.421, 152.363 268.739 C 152.518 267.337, 142.007 247.998, 141.093 248.003 C 140.767 248.005, 137.575 253.249, 134 259.656 M 63 256.930 C 63 262.319, 63.206 262.890, 65.250 263.180 C 67.059 263.437, 67.598 264.297, 68 267.564 L 68.500 271.628 74.250 271.887 L 80 272.145 80 267.573 L 80 263 86.777 263 C 95.068 263, 98.481 264.847, 97.671 268.897 C 97.156 271.471, 97.283 271.546, 102.507 271.778 C 107.663 272.007, 107.889 271.909, 108.306 269.258 C 108.545 267.741, 108.602 268.525, 108.433 271 C 108.214 274.207, 108.375 274.925, 108.993 273.500 C 111.363 268.031, 107.581 255.310, 103.681 255.632 C 102.799 255.705, 102.173 255.277, 102.289 254.681 C 102.755 252.285, 95.301 251.112, 79.250 251.056 L 63 251 63 256.930 M 193.500 251.938 C 180.937 255.010, 171.689 266.919, 172.150 279.432 C 172.268 282.634, 172.377 282.861, 172.664 280.500 C 173.667 272.240, 174.146 270.621, 175.160 272.069 C 175.884 273.103, 176 272.668, 175.578 270.500 L 174.994 267.500 176.493 270.181 C 177.836 272.583, 178.320 272.769, 181.138 271.960 C 182.869 271.464, 184.621 271.266, 185.033 271.520 C 185.445 271.775, 186.482 270.913, 187.339 269.606 C 189.581 266.183, 196.798 263, 202.316 263 L 207 263 207 267.500 L 207 272 213 272 L 219 272 219 261.500 L 219 251 207.750 251.102 C 201.563 251.159, 195.150 251.535, 193.500 251.938 M 224 256.930 C 224 262.319, 224.206 262.890, 226.250 263.180 C 228.329 263.476, 228.543 264.146, 229.064 272 C 229.521 278.901, 229.665 279.465, 229.829 275 C 229.940 271.975, 230.361 270.004, 230.765 270.621 C 231.169 271.237, 233.300 271.626, 235.500 271.485 L 239.500 271.230 240.059 280.365 C 240.480 287.252, 240.664 284.763, 240.809 270.250 L 241 251 232.500 251 L 224 251 224 256.930 M 272 256.930 C 272 262.319, 272.206 262.890, 274.250 263.180 C 276.185 263.455, 276.582 264.271, 277.087 269 C 277.410 272.025, 277.751 273.825, 277.844 273 C 277.966 271.929, 279.429 271.432, 282.964 271.262 L 287.913 271.023 288.258 278.262 C 288.521 283.779, 288.650 282.826, 288.801 274.250 L 289 263 304 263 L 319 263 319 257 L 319 251 295.500 251 L 272 251 272 256.930 M 48.677 264.821 C 43.315 270.240, 43.060 270.722, 43.935 273.774 C 44.785 276.737, 44.394 279.581, 42.494 284.259 C 42.101 285.227, 39.999 287.080, 37.824 288.377 C 34.786 290.189, 34.244 290.880, 35.486 291.356 C 36.547 291.763, 36.861 291.584, 36.397 290.834 C 35.972 290.146, 36.133 289.964, 36.802 290.378 C 37.413 290.755, 37.631 291.798, 37.286 292.696 C 36.893 293.722, 37.060 294.081, 37.737 293.663 C 38.422 293.239, 38.623 293.725, 38.290 294.999 C 37.986 296.162, 38.259 297, 38.942 297 C 39.617 297, 39.798 297.533, 39.367 298.250 C 38.896 299.034, 39.274 298.966, 40.381 298.067 C 43.134 295.832, 46.054 289.337, 46.680 284.058 C 47.162 279.981, 47.533 279.327, 49.124 279.743 C 50.322 280.056, 51 279.709, 51 278.783 C 51 277.986, 51.655 277.333, 52.456 277.333 C 53.257 277.333, 53.680 277.708, 53.397 278.167 C 53.114 278.625, 53.246 279.034, 53.691 279.077 C 54.136 279.119, 55.288 279.304, 56.250 279.488 C 57.212 279.672, 58 279.413, 58 278.912 C 58 277.299, 59.835 277.941, 60.395 279.750 C 60.694 280.712, 60.729 278.646, 60.474 275.157 C 60.032 269.101, 57.288 260.914, 55.285 259.676 C 54.768 259.356, 51.794 261.672, 48.677 264.821 M 2.079 270.583 C 2.127 271.748, 2.364 271.985, 2.683 271.188 C 2.972 270.466, 2.936 269.603, 2.604 269.271 C 2.272 268.939, 2.036 269.529, 2.079 270.583 M 208 270.224 C 208 270.651, 209.800 271, 212 271 C 214.200 271, 216 270.822, 216 270.605 C 216 270.388, 214.200 270.038, 212 269.829 C 209.800 269.619, 208 269.797, 208 270.224 M 87.500 273 L 79.500 273.633 87.750 273.817 C 92.706 273.927, 96 273.601, 96 273 C 96 272.450, 95.888 272.083, 95.750 272.183 C 95.612 272.284, 91.900 272.652, 87.500 273 M 143.500 276 C 144.353 277.650, 145.276 279, 145.551 279 C 145.826 279, 145.353 277.650, 144.500 276 C 143.647 274.350, 142.724 273, 142.449 273 C 142.174 273, 142.647 274.350, 143.500 276 M 294.189 279.250 L 294.378 285.500 294.739 279.750 L 295.100 274 303.800 274.020 L 312.500 274.040 306.838 279.520 C 303.724 282.534, 301.488 285, 301.869 285 C 302.251 285, 305.234 282.300, 308.500 279 L 314.437 273 304.219 273 L 294 273 294.189 279.250 M 1.158 277 C 1.158 278.375, 1.385 278.938, 1.662 278.250 C 1.940 277.563, 1.940 276.438, 1.662 275.750 C 1.385 275.063, 1.158 275.625, 1.158 277 M 123.500 278 C 122.647 279.650, 122.174 281, 122.449 281 C 122.724 281, 123.647 279.650, 124.500 278 C 125.353 276.350, 125.826 275, 125.551 275 C 125.276 275, 124.353 276.350, 123.500 278 M 137 277 C 136.411 278.100, 136.155 279, 136.430 279 C 136.705 279, 137.411 278.100, 138 277 C 138.589 275.900, 138.845 275, 138.570 275 C 138.295 275, 137.589 275.900, 137 277 M 183.195 278.500 C 183.215 280.150, 183.439 280.704, 183.693 279.731 C 183.947 278.758, 183.930 277.408, 183.656 276.731 C 183.382 276.054, 183.175 276.850, 183.195 278.500 M 104.405 280.250 L 102.500 282.500 104.750 280.595 C 106.864 278.805, 107.455 278, 106.655 278 C 106.465 278, 105.453 279.012, 104.405 280.250 M 146.564 281.293 C 146.940 282.279, 147.499 282.834, 147.807 282.526 C 148.115 282.219, 147.808 281.412, 147.124 280.733 C 146.136 279.753, 146.022 279.868, 146.564 281.293 M 59.079 284.583 C 59.127 285.748, 59.364 285.985, 59.683 285.188 C 59.972 284.466, 59.936 283.603, 59.604 283.271 C 59.272 282.939, 59.036 283.529, 59.079 284.583 M 297.813 284.683 C 298.534 284.972, 299.397 284.936, 299.729 284.604 C 300.061 284.272, 299.471 284.036, 298.417 284.079 C 297.252 284.127, 297.015 284.364, 297.813 284.683" stroke="none" fill="black" fill-rule="evenodd"/>
</svg>