<svg xmlns="http://www.w3.org/2000/svg" width="320" height="320" viewBox="0 0 320 320" version="1.1">
	<path fill-opacity="0.243" d="M 84.385 111.240 C 82.798 112.472, 80.502 114.463, 79.282 115.663 C 76.612 118.290, 75.898 118.525, 64.742 120.448 C 59.925 121.278, 54.525 122.708, 52.742 123.627 C 45.764 127.220, 41.848 134.494, 41.218 145.031 C 40.530 156.553, 42.289 157.130, 59.500 151.023 C 64.450 149.266, 71.313 147.581, 74.750 147.278 C 80.588 146.763, 81 146.863, 81 148.804 C 81 149.947, 80.612 151.122, 80.137 151.415 C 79.663 151.709, 78.690 154.035, 77.976 156.585 C 75.945 163.840, 79.166 170.885, 84.553 170.968 C 86.079 170.992, 87.417 169.398, 89.771 164.750 L 92.936 158.500 93.165 164 C 93.586 174.093, 92.969 178.382, 90.755 180.750 C 88.239 183.442, 83.699 183.694, 79.098 181.399 C 73.429 178.571, 67.739 181.013, 64.085 187.842 C 62.937 189.986, 63.576 193, 65.178 193 C 65.709 193, 66.818 192.325, 67.643 191.500 C 69.706 189.437, 70.252 189.569, 73.843 193 C 75.569 194.650, 77.367 196, 77.839 196 C 78.310 196, 78.736 197.412, 78.785 199.137 C 78.834 200.862, 79.352 202.752, 79.937 203.337 C 80.522 203.922, 81 206.335, 81 208.700 C 81 213.401, 81.640 213.755, 86.033 211.483 C 90.022 209.420, 92 205.163, 92 198.638 C 92 193.686, 92.423 192.630, 96.527 187.338 C 103.217 178.710, 108.419 171.075, 111.063 166 C 112.970 162.341, 113.417 159.912, 113.454 153 C 113.495 145.494, 113.180 143.956, 110.766 139.849 C 108.106 135.324, 99.683 127, 97.764 127 C 97.238 127, 95.502 126.069, 93.904 124.932 C 91.478 123.204, 91.005 122.175, 91.032 118.682 C 91.049 116.382, 91.724 113.626, 92.532 112.559 C 94.714 109.674, 94.355 109, 90.635 109 C 88.675 109, 86.065 109.935, 84.385 111.240 M 187.536 127.710 C 182.129 129.581, 175 135.895, 175 138.811 C 175 139.808, 174.083 141.607, 172.963 142.810 C 171.552 144.324, 170.744 146.939, 170.336 151.307 C 168.796 167.796, 178.635 179.947, 194.904 181.648 C 202.444 182.436, 209.682 180.680, 214.995 176.772 L 219.172 173.701 214.959 169.850 C 212.643 167.733, 210.577 166, 210.370 166 C 210.163 166, 208.314 166.900, 206.261 168 C 201.637 170.478, 196.717 170.516, 191.500 168.115 C 186.563 165.842, 184.381 162.071, 184.085 155.302 C 183.804 148.887, 186.186 143.468, 190.420 140.886 C 194.240 138.556, 201.958 138.410, 206.168 140.587 C 209.208 142.159, 209.275 142.138, 213.119 138.384 C 215.253 136.300, 217 134.120, 217 133.540 C 217 132.960, 214.875 131.202, 212.277 129.633 C 206.154 125.934, 195.141 125.078, 187.536 127.710 M 241.640 126.667 C 233.588 128.038, 224.534 136.817, 222.210 145.503 C 218.055 161.038, 225.605 176.429, 239.388 180.523 C 248.589 183.255, 256.691 181.966, 262.527 176.842 L 266 173.793 266 176.896 L 266 180 272.500 180 L 279 180 279 153.500 L 279 127 272.500 127 L 266 127 266 130.048 L 266 133.096 261.518 130.012 C 257.946 127.555, 255.761 126.852, 250.768 126.554 C 247.320 126.348, 243.213 126.399, 241.640 126.667 M 127 153.500 L 127 180 133.500 180 L 140 180 140.056 165.250 C 140.090 156.578, 140.605 149.072, 141.306 147.035 C 143.609 140.351, 152.800 136.956, 159 140.500 C 162.551 142.530, 162.728 142.453, 165.061 137.881 C 166.567 134.929, 166.856 133.456, 166.081 132.681 C 165.306 131.906, 165 131.957, 165 132.859 C 165 133.551, 164.550 133.840, 164 133.500 C 163.450 133.160, 163 132.432, 163 131.882 C 163 131.332, 163.450 131.160, 164 131.500 C 164.550 131.840, 165.014 131.529, 165.030 130.809 C 165.049 130.011, 165.463 130.191, 166.092 131.271 C 167.119 133.035, 169 132.784, 169 130.882 C 169 130.332, 168.581 130.141, 168.069 130.457 C 167.557 130.774, 166.882 130.618, 166.568 130.110 C 166.255 129.603, 165.028 129.441, 163.843 129.751 C 162.462 130.112, 161.924 129.933, 162.345 129.251 C 162.764 128.573, 162.185 128.366, 160.751 128.680 C 158.943 129.076, 158.795 128.963, 160 128.102 C 161.124 127.299, 159.741 127.027, 154.478 127.015 C 148.103 127.001, 147.112 127.283, 143.728 130.073 C 140.512 132.724, 140 132.889, 140 131.273 C 140 128.175, 137.882 127, 132.300 127 L 127 127 127 153.500 M 66.294 130.326 C 62.168 131.837, 60.583 133.470, 61.336 135.433 C 62.511 138.496, 72.771 136.607, 75.058 132.906 C 77.263 129.339, 72.677 127.989, 66.294 130.326 M 160.500 131 C 160.840 131.550, 161.316 132, 161.559 132 C 161.802 132, 162 131.550, 162 131 C 162 130.450, 161.523 130, 160.941 130 C 160.359 130, 160.160 130.450, 160.500 131 M 244.286 139.109 C 236.531 141.351, 232.762 152.745, 236.928 161.352 C 239.845 167.377, 243.154 169.424, 250.018 169.448 C 259.699 169.481, 265 163.801, 265 153.394 C 265 148.773, 264.500 147.033, 262.368 144.238 C 258.118 138.666, 251.910 136.906, 244.286 139.109 M 177.500 145 C 178.495 146.100, 179.469 147, 179.663 147 C 179.858 147, 179.455 146.100, 178.768 145 C 178.081 143.900, 177.107 143, 176.604 143 C 176.102 143, 176.505 143.900, 177.500 145 M 181.459 148.067 C 181.096 148.653, 181.014 149.348, 181.276 149.610 C 181.538 149.872, 182.019 149.392, 182.345 148.543 C 183.021 146.781, 182.445 146.471, 181.459 148.067 M 63 158.868 C 57.307 160.307, 56.500 161.442, 56.500 168.012 C 56.500 173.721, 56.740 174.378, 59.830 177.140 C 65.371 182.091, 67.983 179.868, 70.103 168.399 C 71.771 159.378, 70.062 157.084, 63 158.868 M 202.813 171.683 C 203.534 171.972, 204.397 171.936, 204.729 171.604 C 205.061 171.272, 204.471 171.036, 203.417 171.079 C 202.252 171.127, 202.015 171.364, 202.813 171.683 M 205.554 176.969 C 203.703 177.630, 203.716 177.692, 205.803 178.238 C 207.010 178.554, 208.255 178.397, 208.568 177.890 C 208.882 177.382, 209.670 177.272, 210.319 177.644 C 210.969 178.016, 211.149 177.935, 210.721 177.465 C 209.665 176.305, 207.889 176.134, 205.554 176.969" stroke="none" fill="black" fill-rule="evenodd"/>
	<path fill-opacity="0.441" d="M 86.500 110.216 C 85.400 110.851, 83.899 111.969, 83.163 112.700 C 78.790 117.052, 75.002 118.940, 68.498 120.012 C 56.560 121.979, 53.219 123.121, 49.105 126.642 C 44.092 130.933, 41 138.722, 41 147.059 C 41 152.468, 41.240 153.152, 43.494 154.179 C 45.602 155.140, 47.908 154.671, 58.381 151.158 C 69.981 147.266, 79.488 145.822, 81.337 147.670 C 81.705 148.039, 81.273 149.461, 80.375 150.830 C 79.478 152.200, 78.529 156.061, 78.265 159.410 C 77.855 164.627, 78.105 165.902, 80.009 168.304 C 83.462 172.663, 85.879 171.601, 89.808 164 C 91.656 160.425, 93.242 157.425, 93.334 157.334 C 93.425 157.242, 93.584 161.263, 93.686 166.269 C 94.005 181.919, 90.514 185.932, 80 182 C 73.541 179.584, 70.816 180.129, 66.598 184.678 C 62.681 188.902, 63.624 195.519, 67.579 191.564 C 69.784 189.359, 71.519 189.617, 73.358 192.424 C 74.232 193.757, 75.859 195.138, 76.973 195.492 C 78.389 195.941, 79 197, 79 199.008 C 79 200.589, 79.450 202.160, 80 202.500 C 80.550 202.840, 81 205.341, 81 208.059 C 81 210.777, 81.210 213, 81.466 213 C 81.722 213, 83.507 212.249, 85.432 211.331 C 89.739 209.277, 91.998 204.815, 92.005 198.349 C 92.011 193.015, 92.285 192.504, 101.896 179.893 C 111.051 167.880, 113.351 162.407, 113.406 152.500 C 113.448 144.971, 113.238 144.170, 109.832 138.898 C 107.262 134.918, 104.194 131.953, 99.238 128.658 C 95.401 126.108, 91.713 123.359, 91.043 122.551 C 89.677 120.906, 90.377 116.190, 92.646 111.750 C 94.015 109.071, 93.979 109.001, 91.276 109.030 C 89.749 109.047, 87.600 109.580, 86.500 110.216 M 192 126.919 C 187.620 127.927, 184.081 129.474, 181.505 131.505 C 179.792 132.856, 179.721 133.213, 181.005 134.024 C 181.827 134.544, 182.055 134.976, 181.510 134.985 C 180.966 134.993, 181.857 136.238, 183.490 137.750 C 185.124 139.262, 186.919 140.381, 187.480 140.236 C 188.041 140.090, 187.825 140.542, 187 141.239 C 186.175 141.937, 185.353 143.181, 185.173 144.004 C 184.982 144.878, 186.059 144.342, 187.767 142.713 C 192.935 137.781, 200.955 136.946, 206.902 140.721 C 209.207 142.184, 209.466 142.076, 213.295 138.052 C 217.773 133.346, 217.647 132.916, 210.679 129.066 C 206.424 126.715, 197.397 125.678, 192 126.919 M 242.500 126.908 C 228.081 129.484, 219.174 143.754, 222.101 159.589 C 224.727 173.792, 233.385 181.209, 247.528 181.370 C 253.473 181.438, 255.277 181.028, 259.239 178.706 C 261.815 177.196, 264.376 175.182, 264.931 174.231 C 265.739 172.843, 265.945 173.244, 265.970 176.250 L 266 180 272.500 180 L 279 180 279 153.452 L 279 126.905 272.750 127.202 L 266.500 127.500 266 130.865 L 265.500 134.230 263.502 132.012 C 262.404 130.793, 260.379 129.219, 259.002 128.515 C 255.687 126.818, 247.477 126.019, 242.500 126.908 M 127 154 L 127 180 133.416 180 L 139.831 180 140.166 163.250 C 140.420 150.519, 140.858 145.960, 141.991 144.250 C 145.212 139.387, 154.233 137.518, 160.026 140.513 L 162.953 142.027 165.476 137.047 C 166.864 134.308, 167.979 131.714, 167.953 131.283 C 167.928 130.852, 166.772 132.682, 165.384 135.349 C 163.217 139.514, 162.554 140.095, 160.681 139.470 C 157.128 138.285, 149.088 137.745, 147.227 138.566 C 146.277 138.984, 145.275 139.373, 145 139.429 C 144.725 139.485, 143.938 139.888, 143.250 140.324 C 142.398 140.865, 142 140.463, 142 139.059 C 142 137.927, 141.433 137, 140.741 137 C 139.569 137, 136.381 132.952, 136.907 132.133 C 137.386 131.387, 130.886 128, 128.976 128 C 127.059 128, 127 128.773, 127 154 M 64.750 130.634 C 61.901 131.834, 61 132.789, 61 134.607 C 61 136.756, 61.433 137, 65.250 136.996 C 70.369 136.992, 76.290 133.755, 75.810 131.223 C 75.368 128.893, 69.612 128.586, 64.750 130.634 M 242.362 139.692 C 235.288 143.219, 232.512 155.980, 237.270 163.102 C 240.573 168.046, 245.361 170.229, 251.628 169.646 C 257.784 169.074, 259.832 167.911, 262.884 163.256 C 264.623 160.603, 265.200 158.299, 265.200 154.008 C 265.200 146.401, 262.081 141.172, 256.185 138.894 C 252.687 137.543, 245.886 137.936, 242.362 139.692 M 183.624 147.539 C 183.281 148.432, 183.029 149.689, 183.063 150.332 C 183.098 150.974, 183.558 150.422, 184.085 149.105 C 184.612 147.787, 184.864 146.531, 184.645 146.312 C 184.426 146.093, 183.966 146.645, 183.624 147.539 M 62.772 158.697 C 61.272 158.934, 59.090 160.337, 57.924 161.814 C 53.828 167.002, 57 177.721, 63.103 179.317 C 67.193 180.386, 70.341 173.049, 69.801 163.705 C 69.477 158.102, 68.942 157.721, 62.772 158.697 M 171.032 161 C 171.053 163.596, 174.939 171.214, 177.410 173.505 C 187.381 182.745, 202.495 184.292, 213.693 177.219 C 216.060 175.723, 217.997 174.160, 217.998 173.744 C 217.999 173.328, 216.167 174.315, 213.927 175.938 C 209.104 179.431, 200.576 181.438, 194.705 180.460 C 189.438 179.584, 183 177.070, 183 175.891 C 183 175.401, 182.489 175, 181.865 175 C 179.996 175, 175.877 169.931, 173.370 164.548 C 172.077 161.771, 171.025 160.175, 171.032 161" stroke="none" fill="black" fill-rule="evenodd"/>
	<path fill-opacity="0.268" d="M 85.866 111.220 C 80.337 116.518, 75.990 118.911, 69.960 119.976 C 57.965 122.094, 54.512 123.092, 50.848 125.499 C 45.778 128.830, 41.869 137.104, 41.245 145.824 C 40.775 152.394, 40.833 152.603, 43.485 153.811 C 45.882 154.904, 47.601 154.586, 57.854 151.155 C 72.141 146.373, 77.822 145.418, 80.466 147.352 C 82.360 148.736, 82.360 148.801, 80.479 151.629 C 79.117 153.678, 78.560 156.314, 78.535 160.836 C 78.505 166.350, 78.813 167.427, 80.913 169.128 C 82.240 170.204, 84.024 170.949, 84.879 170.785 C 85.733 170.620, 88.061 167.247, 90.051 163.289 L 93.669 156.093 93.787 166.244 C 93.933 178.660, 92.496 182.629, 87.520 183.562 C 85.406 183.959, 83.153 183.613, 81.171 182.589 C 75.960 179.894, 71.292 180.508, 67.400 184.400 C 64.090 187.710, 63.015 191.273, 64.964 192.477 C 65.493 192.805, 66.916 192.084, 68.124 190.876 C 70.309 188.691, 70.330 188.690, 71.930 190.665 C 72.814 191.757, 74.767 193.457, 76.269 194.441 C 77.771 195.425, 79 197.023, 79 197.993 C 79 198.962, 79.671 201.361, 80.490 203.322 C 81.310 205.283, 81.711 207.588, 81.383 208.444 C 81.055 209.300, 81.051 210.691, 81.375 211.535 C 81.894 212.886, 82.295 212.899, 84.734 211.637 C 89.521 209.162, 91.090 206.593, 91.624 200.353 C 92.358 191.783, 92.675 190.799, 95.759 187.500 C 97.302 185.850, 99.662 182.925, 101.005 181 C 102.347 179.075, 104.150 176.730, 105.011 175.788 C 105.872 174.847, 108.059 171.100, 109.870 167.461 C 112.502 162.171, 113.196 159.500, 113.331 154.142 C 113.508 147.105, 110.733 138.429, 108.706 139.682 C 108.129 140.039, 107.997 139.814, 108.401 139.160 C 109.408 137.532, 104.538 132.656, 96.966 127.711 C 91.079 123.866, 90.472 123.146, 90.185 119.667 C 89.998 117.396, 90.505 114.879, 91.435 113.459 C 93.607 110.145, 93.389 109.338, 90.926 111.567 C 89.603 112.764, 88.969 112.956, 89.176 112.097 C 89.630 110.211, 87.506 109.648, 85.866 111.220 M 193.625 128.783 C 194.794 129.727, 196.706 131.162, 197.875 131.971 C 201.006 134.138, 200.651 136.996, 197.250 137.015 C 195.738 137.024, 193.980 137.361, 193.344 137.765 C 192.708 138.169, 194.733 138.518, 197.844 138.540 C 200.955 138.562, 204.959 139.222, 206.742 140.007 C 209.925 141.406, 210.051 141.363, 213.572 137.629 C 215.545 135.538, 217.011 133.692, 216.830 133.528 C 216.648 133.364, 214.274 131.828, 211.554 130.115 C 207.128 127.327, 205.815 127.003, 199.054 127.033 C 191.755 127.065, 191.572 127.124, 193.625 128.783 M 236.557 129.047 C 231.433 131.603, 228.399 134.498, 225.273 139.813 C 223.210 143.320, 222.665 145.749, 222.356 152.813 C 222.142 157.707, 222.343 160.941, 222.817 160.219 C 223.425 159.290, 224.323 159.204, 226.078 159.905 C 228.232 160.766, 228.278 160.891, 226.500 161.036 C 224.805 161.175, 224.881 161.321, 227 162 C 228.375 162.440, 228.837 162.845, 228.027 162.900 C 227.008 162.969, 227.244 163.482, 228.794 164.568 C 230.026 165.431, 230.789 166.533, 230.490 167.016 C 230.191 167.500, 230.871 167.717, 232 167.500 C 233.129 167.283, 233.820 167.482, 233.535 167.943 C 233.250 168.404, 234.122 169.505, 235.473 170.391 C 238.949 172.668, 240.453 175.749, 238.964 177.543 C 237.629 179.152, 235.125 178.230, 231.250 174.701 C 228.789 172.459, 228.101 173.244, 230.459 175.602 C 233.634 178.777, 240.454 180.956, 247.282 180.978 C 254.864 181.003, 259.425 179.484, 263.244 175.665 C 265.962 172.947, 267 173.615, 267 178.082 C 267 179.760, 267.752 180, 273 180 L 279 180 279 154 L 279 128 273.107 128 C 266.913 128, 266.035 128.656, 265.970 133.332 C 265.942 135.270, 265.832 135.316, 264.931 133.769 C 264.376 132.818, 261.988 130.905, 259.623 129.519 C 254.008 126.229, 242.671 125.997, 236.557 129.047 M 64.323 130.613 C 60.419 132.538, 59.579 134.436, 61.696 136.553 C 63.404 138.261, 67.822 137.949, 72.570 135.786 C 75.080 134.642, 76.564 131.722, 75.506 130.009 C 74.563 128.483, 67.912 128.842, 64.323 130.613 M 245.941 138.197 C 241.576 139.315, 237.425 142.753, 236.039 146.398 C 234.319 150.922, 234.772 160.114, 236.886 163.580 C 240.658 169.766, 250.049 172.068, 257.270 168.576 C 263.037 165.787, 265.345 161.831, 265.428 154.594 C 265.564 142.584, 256.990 135.369, 245.941 138.197 M 127 164.500 L 127 180 133.500 180 L 140 180 140 170.434 C 140 160.607, 138.880 156.449, 136.480 157.369 C 135.122 157.890, 129 151.830, 129 149.965 C 129 149.434, 128.550 149, 128 149 C 127.376 149, 127 154.833, 127 164.500 M 64.073 158.729 C 55.691 160.306, 53.291 170.018, 59.700 176.427 C 65.255 181.982, 68.401 178.939, 69.679 166.771 C 70.239 161.440, 69.134 157.701, 67.128 158.136 C 66.782 158.211, 65.408 158.478, 64.073 158.729 M 223.031 163.500 C 223.031 164.050, 223.467 165.175, 224 166 C 224.533 166.825, 224.969 167.050, 224.969 166.500 C 224.969 165.950, 224.533 164.825, 224 164 C 223.467 163.175, 223.031 162.950, 223.031 163.500 M 225 168.878 C 225 169.360, 225.749 170.373, 226.664 171.128 C 228.172 172.372, 228.216 172.290, 227.129 170.250 C 225.889 167.923, 225 167.350, 225 168.878 M 239.611 177.820 C 239.286 178.346, 240.366 178.973, 242.010 179.215 C 243.655 179.456, 245 179.282, 245 178.827 C 245 178.372, 244.587 178, 244.082 178 C 243.577 178, 242.497 177.744, 241.683 177.432 C 240.869 177.119, 239.936 177.294, 239.611 177.820" stroke="none" fill="black" fill-rule="evenodd"/>
	<path fill-opacity="0.456" d="M 61.595 122.155 C 61.998 122.805, 61.873 123.040, 61.311 122.692 C 59.805 121.761, 53.581 123.755, 50.550 126.140 C 45.621 130.017, 43.009 135.477, 41.917 144.190 C 41.108 150.645, 41.166 152.489, 42.199 153.144 C 44.390 154.534, 48.776 154.101, 54.775 151.902 C 62.655 149.014, 73.876 146, 76.748 146 C 78.059 146, 80.029 146.480, 81.125 147.067 C 83.112 148.130, 83.112 148.145, 81.063 151.618 C 76.770 158.893, 77.477 167.529, 82.554 169.843 C 85.727 171.288, 87.670 169.241, 90.915 161.036 C 93.491 154.521, 95.460 154.027, 94.057 160.249 C 93.577 162.375, 93.607 165.756, 94.126 168.066 C 95.220 172.936, 93.796 179.204, 90.947 182.053 C 88.614 184.386, 85.204 184.530, 80.346 182.500 C 73.547 179.659, 69.544 180.766, 66.025 186.460 C 64.567 188.818, 64.154 190.452, 64.746 191.511 C 65.515 192.884, 65.848 192.826, 67.466 191.038 C 68.480 189.917, 69.617 189, 69.992 189 C 71.426 189, 79 196.996, 79 198.510 C 79 199.384, 79.719 201.489, 80.597 203.188 C 81.555 205.040, 81.965 207.423, 81.622 209.138 C 81.141 211.543, 81.377 212, 83.102 212 C 85.828 212, 90.971 206.753, 91.113 203.827 C 91.578 194.240, 92.308 191.138, 94.720 188.480 C 95.709 187.391, 98.077 184.475, 99.983 182 C 101.889 179.525, 103.745 177.275, 104.108 177 C 104.866 176.426, 111 165.228, 111 164.418 C 111 164.123, 110.438 164.233, 109.750 164.663 C 107.501 166.068, 106.429 165.794, 106.429 163.813 C 106.429 161.981, 106.505 161.970, 107.714 163.624 C 108.876 165.213, 109 165.118, 109 162.632 C 109 161.107, 108.567 160.149, 108.028 160.483 C 106.860 161.204, 102 158.195, 102 156.750 C 102 155.543, 96.794 150.463, 95.845 150.743 C 95.484 150.850, 93.921 149.264, 92.370 147.218 C 90.820 145.173, 87.402 141.341, 84.776 138.702 C 82.149 136.064, 80 133.476, 80 132.952 C 80 132.429, 79.550 132, 79 132 C 78.450 132, 78.113 132.506, 78.250 133.125 C 78.388 133.744, 77.825 134.453, 77 134.701 C 76.037 134.991, 75.897 134.856, 76.608 134.326 C 77.218 133.872, 77.590 132.678, 77.435 131.673 C 77.242 130.415, 77.615 130.022, 78.629 130.411 C 79.499 130.745, 79.840 130.550, 79.460 129.936 C 78.722 128.741, 76.524 129.213, 76.451 130.583 C 76.329 132.865, 74.774 135.978, 73.997 135.498 C 73.525 135.206, 72.887 135.374, 72.580 135.870 C 71.760 137.198, 65.515 138.167, 62.560 137.426 C 55.746 135.715, 62.819 129.010, 71.444 129.004 L 76.389 129 73 126.500 C 71.106 125.103, 70.249 123.962, 71.056 123.915 C 72.113 123.853, 63.593 121.372, 61.191 121.042 C 61.021 121.019, 61.203 121.520, 61.595 122.155 M 236.500 129.610 C 230.643 132.606, 227.833 134.921, 228.583 136.134 C 228.877 136.610, 228.738 137, 228.273 137 C 227.809 137, 227.429 137.867, 227.429 138.927 C 227.429 139.986, 227.859 140.587, 228.384 140.263 C 228.918 139.933, 229.072 140.370, 228.733 141.253 C 228.061 143.004, 230.566 144.511, 231.537 142.940 C 231.868 142.405, 232.579 142.240, 233.118 142.573 C 233.723 142.947, 233.601 143.780, 232.799 144.752 C 231.771 145.997, 231.761 146.413, 232.750 146.746 C 233.438 146.977, 234.010 147.917, 234.022 148.833 C 234.034 149.750, 234.881 148.657, 235.904 146.405 C 238.057 141.664, 242.824 138.327, 248.546 137.556 C 257.446 136.357, 264.684 142.540, 265.681 152.194 C 266.300 158.199, 264.717 162.855, 260.513 167.391 C 259.246 168.758, 258.500 170.185, 258.855 170.563 C 259.210 170.940, 258.375 170.956, 257 170.598 C 255.255 170.143, 255.557 170.497, 258 171.769 C 260.328 172.982, 261.746 173.242, 262.235 172.546 C 262.708 171.872, 262.975 171.961, 262.985 172.798 C 262.993 173.512, 261.762 175.262, 260.250 176.687 C 257.587 179.196, 257.579 179.237, 259.979 177.981 C 263.103 176.347, 265 174.470, 265 173.012 C 265 172.391, 265.450 172.160, 266 172.500 C 266.550 172.840, 267 174.666, 267 176.559 L 267 180 273 180 L 279 180 279 154 L 279 128 273 128 C 267.027 128, 267 128.013, 267 130.941 C 267 134.625, 265.548 135.621, 263.806 133.133 C 259.262 126.645, 245.711 124.897, 236.500 129.610 M 214.232 135 C 213.545 136.100, 213.329 137, 213.751 137 C 214.173 137, 215.081 136.100, 215.768 135 C 216.455 133.900, 216.671 133, 216.249 133 C 215.827 133, 214.919 133.900, 214.232 135 M 198.813 137.683 C 199.534 137.972, 200.397 137.936, 200.729 137.604 C 201.061 137.272, 200.471 137.036, 199.417 137.079 C 198.252 137.127, 198.015 137.364, 198.813 137.683 M 59.756 160.977 C 55.296 164.486, 55.297 172.024, 59.759 176.486 C 64.702 181.429, 67.562 179.408, 69.095 169.890 C 70.507 161.125, 69.828 159, 65.616 159 C 63.775 159, 61.138 159.890, 59.756 160.977 M 111.250 160.559 C 109.777 162.157, 109.654 163, 110.893 163 C 111.746 163, 113.343 159.991, 112.774 159.458 C 112.623 159.317, 111.938 159.812, 111.250 160.559 M 127 179.243 C 127 179.659, 130.037 179.939, 133.750 179.864 C 140.745 179.723, 139.967 179.303, 131.750 178.785 C 129.137 178.620, 127 178.826, 127 179.243" stroke="none" fill="black" fill-rule="evenodd"/>
</svg>