<?xml version="1.0"?><svg xmlns="http://www.w3.org/2000/svg" width="36" height="36" shape-rendering="geometricPrecision" text-rendering="geometricPrecision" image-rendering="optimizeQuality" fill-rule="evenodd" clip-rule="evenodd" viewBox="0 0 36 36"><path fill="#f4f4f4" d="m-0.1-0.1h36v36h-36v-36z"></path><path fill="#f5f3e4" d="m9.1 12.8l-0.2 0.2c-0.5 0.3-1 0.4-1.5 0.6-0.6-0.1-1.1 0-1.5 0.3-0.2 0.1-0.4 0.2-0.6 0.3 0-0.2 0-0.4 0.1-0.6l0.1 0.1 0.4-0.4 1.7-0.1c0.4-0.3 0.7-0.5 1.1-0.7 0.2 0.1 0.3 0.2 0.4 0.3z"></path><path fill="#808466" d="m31.3 14.3c-0.5 0-1 0.1-1.4 0.3v-0.3c0.5-0.1 0.9-0.1 1.4 0z"></path><path fill="#724c12" d="m8.9 13c0.2 0 0.4 0.1 0.6 0.2 0.2 0.4 0.3 0.7 0.4 1.1l0.8 0.8c0 0 0.1-0.1 0.2-0.1 0.5 0.5 1 1.1 1.4 1.8l0.1 0c0.1-0.2 0.2-0.4 0.1-0.7 0.3 0.5 0.3 1.1 0.2 1.6-0.1 0.1-0.2 0.1-0.3 0.1-0.3-0.2-0.7-0.4-1-0.7l0.2-0.1c-0.8-0.8-1.6-1.6-2.4-2.5-0.2 0-0.3 0-0.3 0.2l-0.1-0.1c0.1-0.2 0.1-0.5 0.1-0.7-0.1 0.1-0.2 0.1-0.2 0.1-0.4-0.3-0.8-0.5-1.3-0.4 0.5-0.2 1-0.3 1.5-0.6z"></path><path fill="#f3f2e9" d="m8.3 14.5c0.1 0 0.2 0.2 0.2 0.4-0.3 0.2-0.6 0.4-1 0.5h-0.7c0-0.5 0.2-0.8 0.7-0.9 0.2 0 0.5-0.1 0.8 0z"></path><path fill="#5f3d0c" d="m7.4 13.6c0.5-0.1 0.9 0.1 1.3 0.4 0 0 0.1 0 0.2-0.1 0 0.2 0 0.5-0.1 0.7l0.1 0.1c0-0.2 0.1-0.2 0.3-0.2 0.8 0.9 1.6 1.7 2.4 2.5l-0.2 0.1c0.3 0.3 0.7 0.5 1 0.7 0.1 0 0.2 0 0.3-0.1v0.2c-0.4 0.1-0.8 0.1-1.2-0.1-0.3-0.2-0.5-0.5-0.8-0.8l-0.1 0.3c0-0.2-0.1-0.3-0.2-0.5-0.5-0.3-0.8-0.8-1.1-1.3-0.2-0.2-0.3-0.2-0.4 0.1-0.1-0.1-0.3-0.2-0.4-0.1v-0.6c0-0.2-0.1-0.4-0.2-0.4-0.6-0.4-1.1-0.3-1.6 0.1-0.2 0.1-0.3 0.1-0.5 0.1v-0.4c-0.1 0.1-0.2 0-0.3-0.1 0.4-0.2 0.4-0.3 0-0.3 0.4-0.3 0.9-0.4 1.5-0.3z"></path><path fill="#3d2d08" d="m29.9 14.6c0.4-0.2 0.9-0.3 1.4-0.3v5.9h-1.3c0.3-0.1 0.6-0.2 1-0.3l-0.7-0.7c0.2 0 0.3-0.1 0.1-0.2-0.1 0-0.2-0.1-0.4-0.2l-0.1 0.2c0-0.2-0.1-0.3-0.1-0.4-0.2 0.1-0.3 0.1-0.5 0.1 0.1-0.2 0.2-0.4 0.4-0.6 0.4-1.9-0.4-2.7-2.2-2.6-0.5 0.2-0.9 0.6-1.1 1.1 0.1-0.4 0.1-0.8-0.1-1.1-0.1 0.2-0.2 0.2-0.4-0.1 0.4-0.1 0.5-0.4 0.3-0.7 0.2-0.2 0.4-0.3 0.6-0.4 0.7-0.1 1.4-0.1 2.1 0 0.3 0.1 0.7 0.4 0.9 0.7 0.1-0.1 0.1-0.3 0.1-0.4z"></path><path fill="#58430a" d="m26.2 14.7c0.2 0.3 0.1 0.6-0.3 0.7 0.2 0.3 0.3 0.3 0.4 0.1 0.2 0.3 0.2 0.7 0.1 1.1v0.3c-0.1 0.1-0.2 0.2-0.2 0.3-0.1-0.4-0.2-0.7-0.2-1.1h-1c0.2-0.6 0.6-1.1 1.2-1.4z"></path><path fill="#f4f4f1" d="m29.3 18.7c-0.3 0.2-0.5 0.3-0.8 0.4-0.7 0.1-1.3-0.1-1.8-0.6 0-0.2-0.1-0.4-0.3-0.6 0-0.3 0-0.6 0-1v-0.3c0.2-0.5 0.6-0.9 1.1-1.1 1.8-0.1 2.6 0.7 2.2 2.6-0.2 0.2-0.3 0.4-0.4 0.6z"></path><path fill="#7f591b" d="m12.5 16.1c0.1 0.3 0 0.5-0.1 0.7l-0.1 0c-0.4-0.7-0.9-1.3-1.4-1.8-0.1 0-0.2 0.1-0.2 0.1l-0.8-0.8c-0.1-0.4-0.2-0.7-0.4-1.1-0.2-0.1-0.4-0.2-0.6-0.2l0.2-0.2c0.2-0.2 0.4-0.4 0.6-0.5 0.3-0.1 0.6-0.1 0.8 0-0.3 0.5-0.4 0.9-0.3 1.5 0.7 0.4 1.3 0.9 1.8 1.3 0.3 0.3 0.5 0.6 0.5 1z"></path><path fill="#705412" d="m25 16.1h1c0 0.4 0.1 0.7 0.2 1.1 0-0.1 0.1-0.2 0.2-0.3 0 0.4 0 0.7 0 1 0.2 0.2 0.3 0.4 0.3 0.6-0.1 0-0.2-0.1-0.3-0.2l-0.1 0.1-0.1-0.7c-0.4-0.2-0.7-0.6-1-1-0.2 0.5-0.2 1-0.2 1.5-0.1-0.7-0.1-1.4 0-2.1z"></path><path fill="#422f0c" d="m5.9 13.9c0.4 0 0.4 0.1 0 0.3 0.1 0.1 0.2 0.2 0.3 0.1v0.4c0.2 0 0.3 0 0.5-0.1 0.5-0.4 1-0.5 1.6-0.1-0.3-0.1-0.6 0-0.8 0-0.5 0.1-0.7 0.4-0.7 0.9h0.7c-0.6 0.2-1 0-1.1-0.6-0.4 0.2-0.7 0.1-0.9-0.2-0.2 0.1-0.2 0.3-0.2 0.5 0.4-0.1 0.6 0.1 0.7 0.5 0.3 0.2 0.5 0.4 0.8 0.5 0.1-0.1 0.4-0.2 0.6-0.2 0.8 0 0.8 0.1 0.1 0.3 0.6 0.1 1.2 0.1 1.8 0.1 0.1 0.1 0.1 0.3 0.2 0.4-0.2 0.2-0.4 0.5-0.6 0.8 0 0.3 0.2 0.5 0.5 0.6 0.1 0.5 0.3 0.5 0.4 0.1-0.1-0.3 0-0.5 0.3-0.6 0.1 0 0.2 0.1 0.2 0.1-0.1 0.6-0.4 1.1-0.9 1.5-0.3-0.1-0.6-0.3-0.6-0.7-0.2-0.7 0-1.3 0.4-1.8l-0.1-0.2c-0.5 0-0.9 0-1.4 0-0.8 0.3-1.5 0.5-2.2 0.8-0.3 0.1-0.6 0.1-0.8-0.1-0.3-1.1 0-2.1 0.6-3 0.2-0.1 0.4-0.2 0.6-0.3z"></path><path fill="#533709" d="m7.5 15.4c0.4-0.1 0.7-0.3 1-0.5v0.6c0.1-0.1 0.3 0 0.4 0.1 0.1-0.3 0.2-0.3 0.4-0.1 0.3 0.5 0.6 1 1.1 1.3 0.1 0.2 0.2 0.3 0.2 0.5l0.1-0.3c0.3 0.3 0.5 0.6 0.8 0.8 0.4 0.2 0.8 0.2 1.2 0.1-0.1 0.5-0.3 0.8-0.6 1.2-0.3 0.1-0.4 0.3-0.5 0.6-0.1 0-0.2 0.1-0.3 0.2-0.7-0.8-0.8-0.7-0.6 0.4l-0.1 0c0-0.1-0.1-0.2-0.2-0.3 0.1-0.7 0.1-1.5 0.1-2.2l0-0.3c-0.1 0.1-0.1 0.2-0.2 0.2 0 0-0.1-0.1-0.2-0.1-0.3 0.1-0.4 0.3-0.3 0.6-0.1 0.4-0.3 0.4-0.4-0.1-0.3-0.1-0.5-0.3-0.5-0.6 0.2-0.3 0.4-0.6 0.6-0.8-0.1-0.1-0.1-0.3-0.2-0.4-0.6 0-1.2 0-1.8-0.1 0.7-0.2 0.7-0.3-0.1-0.3-0.2 0-0.5 0.1-0.6 0.2-0.3-0.1-0.5-0.3-0.8-0.5-0.1-0.4-0.3-0.6-0.7-0.5 0-0.2 0-0.4 0.2-0.5 0.2 0.3 0.5 0.4 0.9 0.2 0.1 0.6 0.5 0.8 1.1 0.6z"></path><path fill="#dfb52e" d="m20.2 14.8c0.2 0.3 0.4 0.7 0.7 1-0.1 0.1-0.2 0.3-0.1 0.5-0.2 0.4-0.3 0.8-0.2 1.3 0.1 0.5 0.4 0.8 0.8 1 0.1 0.1 0.1 0.2 0.1 0.4h-0.3c0 0.6 0.4 1.1 1 1.2l-1.7-0.2v-0.1c0-0.3-0.2-0.5-0.4-0.6l0.1-0.1c-0.3 0-0.4-0.2-0.3-0.5-0.1-0.1-0.1-0.1-0.2 0-0.1-0.2-0.2-0.3-0.4-0.4v-2.3c0-0.2 0.1-0.4 0.2-0.6l0.7-0.6z"></path><path fill="#82640e" d="m26.7 18.5c0.5 0.5 1.1 0.7 1.8 0.6 0.1 0 0.1 0.1 0.2 0.1l-0.1 0.2c0.2 0 0.3 0 0.5 0v0.6c-0.2-0.1-0.3 0-0.4 0.2h-0.1c-0.6 0-1.3 0-2-0.1-0.9-0.3-1.4-1-1.6-1.9 0-0.5 0-1 0.2-1.5 0.3 0.4 0.6 0.8 1 1l0.1 0.7 0.1-0.1c0.1 0.1 0.2 0.2 0.3 0.2z"></path><path fill="#3a2a0c" d="m7.3 17.7c0.1 0 0.3 0 0.5 0.1 0.1 0.8 0 1.5-0.3 2.2-0.9 0.1-1.3-0.3-1.3-1.2 0.1-0.7 0.4-1 1.1-1.1z"></path><path fill="#ecc124" d="m24 19.7c-0.5 0.3-1.1 0.5-1.8 0.5-0.6-0.1-1-0.6-1-1.2h0.3c0.2 0 0.4 0.1 0.7 0.1 0.5-0.1 1-0.2 1.5-0.2 0.1 0.2 0.2 0.4 0.4 0.5-0.1 0.1-0.1 0.2-0.1 0.3z"></path><path fill="#4f3b0d" d="m30 20.2c-0.1 0-0.1 0-0.1-0.1 0-0.2 0-0.5-0.1-0.7-0.3 0.4-0.6 0.7-1.1 0.8 0.1-0.2 0.2-0.3 0.4-0.2v-0.6c-0.2 0-0.3 0-0.5 0l0.1-0.2c-0.1 0-0.1-0.1-0.2-0.1 0.3-0.1 0.5-0.2 0.8-0.4 0.2 0 0.3 0 0.5-0.1 0 0.1 0.1 0.2 0.1 0.4l0.1-0.2c0.2 0.1 0.3 0.2 0.4 0.2 0.2 0.1 0.1 0.2-0.1 0.2l0.7 0.7c-0.4 0.1-0.7 0.2-1 0.3z"></path><path fill="#785219" d="m14.2 16.1c0.1 0.5 0.2 1 0.2 1.5l0.1-0.1c0.1 0.3 0.2 0.3 0.4 0 0.2 0.4 0.4 0.8 0.4 1.3 0.2-0.7 0.3-1.4 0.3-2.2 0-0.2 0.2-0.3 0.3-0.5-0.1 0.2-0.1 0.4-0.1 0.6-0.1 1.1-0.1 2.2-0.1 3.3-0.4 0.1-0.9 0.1-1.4 0.1 0.1-0.2 0-0.3-0.1-0.4v-3.6z"></path><path fill="#b39132" d="m19.3 18.3c0.2 0.1 0.3 0.2 0.4 0.4 0.1-0.1 0.1-0.1 0.2 0-0.1 0.3 0 0.5 0.3 0.5l-0.1 0.2c0.2 0 0.4 0.2 0.4 0.5-0.7-0.3-1.1-0.8-1.2-1.6z"></path><path fill="#3f2d11" d="m14.2 19.7c0.1 0.1 0.2 0.2 0.1 0.4 0.5 0 1 0 1.4-0.1-0.4 0.2-0.9 0.3-1.5 0.2v-0.5z"></path><path fill="#b59644" d="m24 19.7h0.1c-0.1 0.3-0.3 0.4-0.5 0.5-1.1 0.4-2.1 0.3-3.1-0.2l1.7 0.2c0.7 0 1.3-0.2 1.8-0.5z"></path><path fill="#f2efe0" d="m15.9 16.1h0.1c0.2 1.4 0.2 2.8-0.1 4.2-0.1 0.1-0.2 0.3-0.3 0.3-0.4-0.2-0.9-0.3-1.4-0.4 0.6 0.1 1.1 0 1.5-0.2 0-1.1 0-2.2 0.1-3.3 0-0.2 0-0.4 0.1-0.6z"></path><path fill="#f5f4ee" d="m29.9 14.3v0.3c0 0.1 0 0.3-0.1 0.4-0.2-0.3-0.6-0.6-0.9-0.7-0.7-0.1-1.4-0.1-2.1 0-0.2 0.1-0.4 0.2-0.6 0.4-0.6 0.3-1 0.8-1.2 1.4-0.1 0.7-0.1 1.4 0 2.1 0.2 0.9 0.7 1.6 1.6 1.9 0.3 0.2 0.7 0.3 1.1 0.3 0.4 0 0.7 0 0.9-0.2h0.1c0.5-0.1 0.8-0.4 1.1-0.8 0.1 0.2 0.1 0.5 0.1 0.7-0.4 0.1-0.8 0.2-1.2 0.3v0.6c0.4-0.1 0.8-0.2 1.2-0.2 0.4 0.1 0.8 0.1 1.2 0 0.2 0 0.4 0.1 0.5 0.3-0.8 0.1-1.5 0.1-2.2 0.2-0.2 0-0.4 0.1-0.5 0.2-1.6 0-3.2 0-4.8 0 0-0.2 0.1-0.3 0.3-0.5 0.6 0.1 1.2 0.1 1.8 0.1l-0.9-0.2c-0.1-0.1-0.2-0.2-0.2-0.4 0.4 0.1 0.7 0 0.9-0.3-0.8-0.3-1.6-0.3-2.4 0 0.2-0.1 0.4-0.2 0.5-0.5 0.4 0 0.4-0.2 0.3-0.5l-0.3-0.5c-0.2-0.1-0.4-0.2-0.6-0.4 0.1-0.1 0.3-0.2 0.5-0.1 0-1 0-1.9 0-2.7 0.1-0.2 0.2-0.4 0.4-0.5-0.4-0.3-0.7-0.6-1.1-0.8-1.3-0.5-2.5-0.2-3.5 0.7-0.1-0.3-0.2-0.4-0.5-0.2 0.2 0.2 0.2 0.4 0.2 0.7-0.1 0.2-0.2 0.4-0.2 0.6h-0.1c-0.2-0.1-0.3-0.1-0.5 0 0.1 0.2 0 0.4-0.1 0.6-0.2-0.1-0.2-0.3-0.2-0.5-0.2 0.1-0.3 0-0.3-0.2 0.1 0 0.2 0 0.2-0.1l0.5-1c0-0.1-0.1-0.2-0.2-0.2-0.1-0.2-0.4-0.4-0.7-0.4-0.4-0.1-0.8-0.1-1.2 0-0.1 0-0.2 0.1-0.3 0.1-0.2 0.1-0.4 0.2-0.5 0.3-0.2-0.1-0.3-0.2-0.3-0.3-0.5-0.1-0.9-0.1-1.3 0-0.1 0.6-0.1 1.2-0.1 1.8v3.6c-0.2-1.7-0.3-3.5-0.2-5.4l-0.3 5.4-0.1-1.8c0-1.2 0-2.4 0-3.6 0.1-0.2 0.2-0.4 0.4-0.6 0.6-0.1 1.2-0.2 1.9-0.3 0.3 0.2 0.6 0.3 0.9 0.6 0.6 0.1 1.1 0 1.5-0.4 0.1 0.2 0 0.3-0.2 0.4 0.3 0.2 0.6 0.2 0.9-0.2 1.6-0.1 1.7-0.4 0.2-1 0.3-0.1 0.6-0.2 1-0.1 0.4 0.3 0.9 0.4 1.3 0.5v0.4c0.8-0.1 1.5 0 2.3 0l0.3 0.3c0 0.1-0.1 0.1-0.1 0-0.1 0.2-0.1 0.4 0 0.6 0.4-0.1 0.8-0.1 1.1-0.2v-1.1h0.4c0 0.4 0 0.8 0 1.3 0.3 0.1 0.5 0.1 0.7-0.2 0.1-0.4 0.3-0.6 0.7-0.6v0.3c0.8 0 1.5 0 2.2 0.1 0.2 0.2 0.4 0.3 0.8 0.2z"></path><path fill="#786337" d="m26.6 20.1c0.7 0.1 1.4 0.1 2 0.1-0.2 0.2-0.5 0.2-0.9 0.2-0.4 0-0.8-0.1-1.1-0.3z"></path><path fill="#ceb542" d="m23.3 18.6c0.2 0 0.4 0 0.5 0.1 0.1 0.3 0.3 0.4 0.6 0.5 0.1 0.3 0.1 0.5-0.3 0.5h-0.1c0-0.1 0-0.2 0.1-0.3-0.2-0.1-0.3-0.3-0.4-0.5-0.5 0-1 0.1-1.5 0.2-0.3 0-0.5-0.1-0.7-0.1 0.7 0 1.3-0.1 1.8-0.4z"></path><path fill="#f2f8e4" d="m23.3 18.6c-0.5 0.3-1.1 0.4-1.8 0.4 0-0.2 0-0.3-0.1-0.4 0.2-0.1 0.4-0.2 0.7-0.2 0.4 0.1 0.8 0.1 1.2 0.2z"></path><path fill="#926a1a" d="m14.3 14.3c0 0.8 0.1 1.6 0.3 2.4 0.1-0.2 0.2-0.3 0.4-0.3 0.1 0.3 0.3 0.3 0.6 0.2 0 0.8-0.1 1.5-0.3 2.2 0-0.5-0.2-0.9-0.4-1.3-0.2 0.3-0.3 0.3-0.4 0l-0.1 0.1c0-0.5-0.1-1-0.2-1.5 0-0.6 0-1.2 0.1-1.8z"></path><path fill="#edc622" d="m19.6 15.5c0.3 0.2 0.7 0.4 1 0.5-0.1 0.7-0.2 1.4-0.2 2.1h-0.3c0-1.6-0.1-1.7-0.4-0.2 0-0.3-0.1-0.7-0.2-1.1-0.1-0.5-0.1-0.9 0.1-1.3z"></path><path fill="#d0b25b" d="m19.2 16h0.1v2.3c-0.2-0.4-0.3-0.7-0.2-1.1 0-0.4 0-0.8 0.1-1.2z"></path><path fill="#b0871e" d="m14.3 14.3h1.2c-0.1 0.5 0 0.7 0.4 0.7 0.2 0.1 0.2 0.3 0.2 0.5 0.6-0.1 1 0 1.5 0.1-0.6-0.1-1.2 0.1-1.6 0.5h-0.1c-0.1 0.2-0.3 0.3-0.3 0.5-0.3 0.1-0.5 0.1-0.6-0.2-0.2 0-0.3 0.1-0.4 0.3-0.2-0.8-0.3-1.6-0.3-2.4z"></path><path fill="#f3f3e8" d="m22.7 15.5c0.2 0.1 0.5 0.2 0.8 0.4 0.1-0.1 0.3-0.3 0.5-0.4 0 0.8 0 1.7 0 2.7-0.2-0.1-0.4 0-0.5 0.1 0.2 0.2 0.4 0.3 0.6 0.4l0.3 0.5c-0.3-0.1-0.5-0.2-0.6-0.5-0.1-0.1-0.3-0.1-0.5-0.1 0.1-0.2 0-0.4-0.2-0.5 0.2-0.2 0.3-0.5 0.3-0.8 0.1 0.2 0.1 0.4 0.1 0.6h0.3c0-0.6 0-1.2-0.1-1.8-0.8 0-1.5 0-2.3 0-0.2 0.6-0.2 1.2-0.1 1.7 0.2 0.1 0.2 0.3 0.2 0.5-0.1 0-0.2 0-0.3 0 0.1 0.1 0.2 0.2 0.2 0.3-0.4-0.2-0.7-0.5-0.8-1-0.1-0.5 0-0.9 0.2-1.3 0.2-0.2 0.4-0.4 0.5-0.6 0.5-0.2 0.9-0.3 1.4-0.2z"></path><path fill="#f5f4f5" d="m23.3 18.6c-0.4-0.1-0.8-0.1-1.2-0.2-0.3 0-0.5 0.1-0.7 0.2 0-0.1-0.1-0.2-0.2-0.3 0.1 0 0.2 0 0.3 0 0-0.2 0-0.4-0.2-0.5-0.1-0.5-0.1-1.1 0.1-1.7 0.8 0 1.5 0 2.3 0 0.1 0.6 0.1 1.2 0.1 1.8h-0.3c0-0.2 0-0.4-0.1-0.6 0 0.3-0.1 0.6-0.3 0.8 0.2 0.1 0.3 0.3 0.2 0.5z"></path><path fill="#84650b" d="m21.5 14.2c0.1 0.2 0.1 0.3 0.3 0.3 0.5 0 0.9 0.1 1.4 0.2 0 0.1-0.1 0.2-0.2 0.3 0.2 0 0.5 0 0.7 0 0 0.3-0.1 0.5-0.4 0.6-0.2-0.1-0.4-0.1-0.6-0.1-0.5-0.1-0.9 0-1.4 0.2 0.2-0.3 0.2-0.6 0.2-0.9-0.2-0.1-0.5-0.2-0.7-0.3 0.2-0.2 0.5-0.3 0.7-0.3z"></path><path fill="#ebc22d" d="m18.6 14.6c-0.1 0.2-0.1 0.4-0.1 0.6-0.1 0-0.3 0-0.4 0.1 0.1 0.1 0.1 0.2 0 0.3-0.2-0.1-0.3-0.2-0.5-0.3-0.5 0-1-0.1-1.3-0.5l0.2-0.3c0-0.1-0.1-0.1-0.1-0.2 0.1 0 0.2-0.1 0.3-0.1 0.4-0.1 0.8-0.1 1.2 0 0.3 0 0.6 0.2 0.7 0.4z"></path><path fill="#ab8a18" d="m20.8 14.5c0.2 0.1 0.5 0.2 0.7 0.3 0 0.3 0 0.6-0.2 0.9-0.1 0.2-0.3 0.4-0.5 0.6-0.1-0.2 0-0.4 0.1-0.5-0.3-0.3-0.5-0.7-0.7-1 0.2-0.2 0.3-0.3 0.6-0.3z"></path><path fill="#d2aa2d" d="m16.4 14.3c0 0.1 0.1 0.1 0.1 0.2l-0.2 0.3c0.3 0.4 0.8 0.5 1.3 0.5 0.2 0.1 0.3 0.2 0.5 0.3 0.1-0.1 0.1-0.2 0-0.3 0.1-0.1 0.3-0.1 0.4-0.1 0-0.2 0-0.4 0.1-0.6 0.1 0 0.2 0.1 0.2 0.2l-0.5 1c0 0.1-0.1 0.1-0.2 0.1-0.2-0.1-0.3-0.2-0.5-0.3-0.5-0.1-0.9-0.2-1.5-0.1 0-0.2 0-0.4-0.2-0.5 0.1-0.2 0.2-0.5 0.5-0.7z"></path><path fill="#745916" d="m23.3 14.2c0.4 0.2 0.7 0.5 1.1 0.8-0.2 0.1-0.3 0.3-0.4 0.5-0.2 0.1-0.4 0.3-0.5 0.4-0.3-0.2-0.6-0.3-0.8-0.4 0.2 0 0.4 0 0.6 0.1 0.3-0.1 0.4-0.3 0.4-0.6-0.2 0-0.5 0-0.7 0 0.1-0.1 0.2-0.2 0.2-0.3-0.5-0.1-0.9-0.2-1.4-0.2-0.2 0-0.2-0.1-0.3-0.3 0.6-0.1 1.2-0.1 1.8 0z"></path><path fill="#cebb5d" d="m14.3 14.3c0.4-0.1 0.8-0.1 1.3 0 0 0.1 0.1 0.2 0.3 0.3 0.1-0.1 0.3-0.2 0.5-0.3-0.3 0.2-0.4 0.5-0.5 0.7-0.4 0-0.5-0.2-0.4-0.7h-1.2z"></path><path fill="#f3efc9" d="m23.3 14.2c-0.6-0.1-1.2-0.1-1.8 0-0.2 0-0.5 0.1-0.7 0.3-0.3 0-0.4 0.1-0.6 0.3l-0.7 0.6c0-0.3 0-0.5-0.2-0.7 0.3-0.2 0.4-0.1 0.5 0.2 1-0.9 2.2-1.2 3.5-0.7z"></path><path fill="#3a2a0a" d="m12.1 19.1c-0.5 0.8-1.1 1.7-1.8 2.4 0 0.6 0 1.2-0.2 1.7-0.2 0.4-0.6 0.6-1 0.6 0.1-1.1-0.3-1.9-1.2-2.5-0.2 0.1-0.4 0.2-0.6 0.3-0.2-0.2-0.2-0.4-0.1-0.6 0.6-0.8 1.4-0.9 2.3-0.4 0.5 0 0.8-0.2 0.9-0.6 0.1 0.1 0.2 0.2 0.2 0.3l0.1 0c-0.2-1.1-0.1-1.2 0.6-0.4 0.1-0.1 0.2-0.2 0.3-0.2 0.1-0.3 0.2-0.5 0.5-0.6z"></path></svg>