<?xml version="1.0" encoding="UTF-8"?>
<!DOCTYPE svg PUBLIC "-//W3C//DTD SVG 1.1//EN" "http://www.w3.org/Graphics/SVG/1.1/DTD/svg11.dtd">
<svg xmlns="http://www.w3.org/2000/svg" version="1.1" width="320px" height="320px" style="shape-rendering:geometricPrecision; text-rendering:geometricPrecision; image-rendering:optimizeQuality; fill-rule:evenodd; clip-rule:evenodd" xmlns:xlink="http://www.w3.org/1999/xlink">
<g><path style="opacity:1" fill="#f4f4f4" d="M -0.5,-0.5 C 106.167,-0.5 212.833,-0.5 319.5,-0.5C 319.5,106.167 319.5,212.833 319.5,319.5C 212.833,319.5 106.167,319.5 -0.5,319.5C -0.5,212.833 -0.5,106.167 -0.5,-0.5 Z"/></g>
<g><path style="opacity:1" fill="#f5f3e4" d="M 80.5,113.5 C 80.1667,114.167 79.8333,114.833 79.5,115.5C 75.0205,117.796 70.3538,119.463 65.5,120.5C 60.7387,120.124 56.4054,121.124 52.5,123.5C 50.6675,124.248 49.0009,125.248 47.5,126.5C 47.3379,124.473 47.5045,122.473 48,120.5C 48.3333,120.833 48.6667,121.167 49,121.5C 50.1667,120.333 51.3333,119.167 52.5,118C 57.5,117.667 62.5,117.333 67.5,117C 70.7297,114.927 74.063,113.094 77.5,111.5C 78.7387,111.942 79.7387,112.609 80.5,113.5 Z"/></g>
<g><path style="opacity:1" fill="#808466" d="M 278.5,127.5 C 273.847,126.999 269.514,127.666 265.5,129.5C 265.5,128.833 265.5,128.167 265.5,127.5C 269.833,126.167 274.167,126.167 278.5,127.5 Z"/></g>
<g><path style="opacity:1" fill="#724c12" d="M 79.5,115.5 C 81.258,115.877 82.9246,116.544 84.5,117.5C 86.1602,120.647 87.3268,123.98 88,127.5C 90.3333,129.833 92.6667,132.167 95,134.5C 95.414,134.043 95.914,133.709 96.5,133.5C 101.358,138.194 105.691,143.361 109.5,149C 109.833,149.167 110.167,149.333 110.5,149.5C 111.466,147.604 111.799,145.604 111.5,143.5C 113.727,147.916 114.061,152.583 112.5,157.5C 111.85,157.804 111.183,158.137 110.5,158.5C 107.36,156.527 104.36,154.36 101.5,152C 102.167,151.667 102.833,151.333 103.5,151C 95.9387,143.86 88.6054,136.527 81.5,129C 80.2559,128.544 79.4226,129.044 79,130.5C 78.6667,130.167 78.3333,129.833 78,129.5C 78.8753,127.689 79.2086,125.689 79,123.5C 78.4387,124.022 77.772,124.355 77,124.5C 73.8347,121.338 70.0014,120.005 65.5,120.5C 70.3538,119.463 75.0205,117.796 79.5,115.5 Z"/></g>
<g><path style="opacity:1" fill="#f3f2e9" d="M 73.5,128.5 C 75.1042,129.287 75.7709,130.62 75.5,132.5C 72.878,134.644 69.878,135.977 66.5,136.5C 64.5,136.5 62.5,136.5 60.5,136.5C 60.1019,132.175 62.1019,129.675 66.5,129C 68.8098,128.503 71.1432,128.337 73.5,128.5 Z"/></g>
<g><path style="opacity:1" fill="#5f3d0c" d="M 65.5,120.5 C 70.0014,120.005 73.8347,121.338 77,124.5C 77.772,124.355 78.4387,124.022 79,123.5C 79.2086,125.689 78.8753,127.689 78,129.5C 78.3333,129.833 78.6667,130.167 79,130.5C 79.4226,129.044 80.2559,128.544 81.5,129C 88.6054,136.527 95.9387,143.86 103.5,151C 102.833,151.333 102.167,151.667 101.5,152C 104.36,154.36 107.36,156.527 110.5,158.5C 111.183,158.137 111.85,157.804 112.5,157.5C 112.5,158.167 112.5,158.833 112.5,159.5C 109.224,160.134 105.89,159.801 102.5,158.5C 99.9047,156.283 97.4047,153.949 95,151.5C 94.6667,152.167 94.3333,152.833 94,153.5C 93.7811,152.062 93.2811,150.729 92.5,149.5C 88.2654,146.433 84.932,142.6 82.5,138C 80.7703,136.148 79.6036,136.314 79,138.5C 77.9887,137.663 76.8221,137.33 75.5,137.5C 75.5,135.833 75.5,134.167 75.5,132.5C 75.7709,130.62 75.1042,129.287 73.5,128.5C 68.4686,125.659 63.8019,126.159 59.5,130C 58.2068,130.49 56.8734,130.657 55.5,130.5C 55.5,129.5 55.5,128.5 55.5,127.5C 54.325,127.719 53.325,127.386 52.5,126.5C 56.1021,124.678 56.1021,123.678 52.5,123.5C 56.4054,121.124 60.7387,120.124 65.5,120.5 Z"/></g>
<g><path style="opacity:1" fill="#3d2d08" d="M 265.5,129.5 C 269.514,127.666 273.847,126.999 278.5,127.5C 278.5,144.833 278.5,162.167 278.5,179.5C 274.5,179.5 270.5,179.5 266.5,179.5C 269.421,178.806 272.421,177.973 275.5,177C 273.5,175 271.5,173 269.5,171C 271.301,170.683 271.634,170.016 270.5,169C 269.234,168.691 268.067,168.191 267,167.5C 266.667,167.833 266.333,168.167 266,168.5C 265.751,167.376 265.251,166.376 264.5,165.5C 263.264,166.246 261.93,166.579 260.5,166.5C 261.391,164.391 262.558,162.391 264,160.5C 267.359,144.202 260.859,136.702 244.5,138C 239.721,139.795 236.388,142.962 234.5,147.5C 235.811,144.08 235.644,140.747 234,137.5C 233.043,139.709 231.876,139.543 230.5,137C 233.804,135.715 234.47,133.548 232.5,130.5C 234.382,129.249 236.382,128.082 238.5,127C 244.5,126.333 250.5,126.333 256.5,127C 259.88,128.371 262.713,130.538 265,133.5C 265.49,132.207 265.657,130.873 265.5,129.5 Z"/></g>
<g><path style="opacity:1" fill="#58430a" d="M 232.5,130.5 C 234.47,133.548 233.804,135.715 230.5,137C 231.876,139.543 233.043,139.709 234,137.5C 235.644,140.747 235.811,144.08 234.5,147.5C 234.5,148.5 234.5,149.5 234.5,150.5C 233.778,150.918 233.278,151.584 233,152.5C 232.047,149.568 231.547,146.568 231.5,143.5C 228.5,143.5 225.5,143.5 222.5,143.5C 224.147,137.875 227.48,133.541 232.5,130.5 Z"/></g>
<g><path style="opacity:1" fill="#f4f4f1" d="M 260.5,166.5 C 258.176,167.656 255.843,168.656 253.5,169.5C 247.343,170.224 242.01,168.557 237.5,164.5C 237.205,162.577 236.372,160.91 235,159.5C 234.502,156.518 234.335,153.518 234.5,150.5C 234.5,149.5 234.5,148.5 234.5,147.5C 236.388,142.962 239.721,139.795 244.5,138C 260.859,136.702 267.359,144.202 264,160.5C 262.558,162.391 261.391,164.391 260.5,166.5 Z"/></g>
<g><path style="opacity:1" fill="#7f591b" d="M 111.5,143.5 C 111.799,145.604 111.466,147.604 110.5,149.5C 110.167,149.333 109.833,149.167 109.5,149C 105.691,143.361 101.358,138.194 96.5,133.5C 95.914,133.709 95.414,134.043 95,134.5C 92.6667,132.167 90.3333,129.833 88,127.5C 87.3268,123.98 86.1602,120.647 84.5,117.5C 82.9246,116.544 81.258,115.877 79.5,115.5C 79.8333,114.833 80.1667,114.167 80.5,113.5C 82.34,111.832 84.34,110.332 86.5,109C 88.9018,108.186 91.2351,108.353 93.5,109.5C 90.6745,113.392 89.8412,117.725 91,122.5C 96.5122,126.257 101.846,130.257 107,134.5C 109.571,136.976 111.071,139.976 111.5,143.5 Z"/></g>
<g><path style="opacity:1" fill="#705412" d="M 222.5,143.5 C 225.5,143.5 228.5,143.5 231.5,143.5C 231.547,146.568 232.047,149.568 233,152.5C 233.278,151.584 233.778,150.918 234.5,150.5C 234.335,153.518 234.502,156.518 235,159.5C 236.372,160.91 237.205,162.577 237.5,164.5C 236.25,164.423 235.417,163.756 235,162.5C 234.667,162.833 234.333,163.167 234,163.5C 233.667,161.5 233.333,159.5 233,157.5C 229.333,155.167 226.333,152.167 224,148.5C 222.569,152.635 222.069,156.968 222.5,161.5C 221.194,155.599 221.194,149.599 222.5,143.5 Z"/></g>
<g><path style="opacity:1" fill="#422f0c" d="M 52.5,123.5 C 56.1021,123.678 56.1021,124.678 52.5,126.5C 53.325,127.386 54.325,127.719 55.5,127.5C 55.5,128.5 55.5,129.5 55.5,130.5C 56.8734,130.657 58.2068,130.49 59.5,130C 63.8019,126.159 68.4686,125.659 73.5,128.5C 71.1432,128.337 68.8098,128.503 66.5,129C 62.1019,129.675 60.1019,132.175 60.5,136.5C 62.5,136.5 64.5,136.5 66.5,136.5C 61.5374,138.444 58.204,136.778 56.5,131.5C 53.3147,133.037 50.648,132.37 48.5,129.5C 47.1375,131.012 46.8042,132.512 47.5,134C 50.5618,133.505 52.5618,135.005 53.5,138.5C 55.5765,140.288 57.7432,141.954 60,143.5C 61.6977,142.267 63.6977,141.6 66,141.5C 73.1579,141.33 73.3246,142.163 66.5,144C 72.0416,144.506 77.3749,144.84 82.5,145C 83.2931,146.085 83.9598,147.252 84.5,148.5C 82.3835,150.6 80.7169,152.933 79.5,155.5C 79.2555,158.519 80.5888,160.353 83.5,161C 84.6933,165.381 86.0267,165.548 87.5,161.5C 86.3487,159.191 87.182,157.524 90,156.5C 90.7648,156.57 91.2648,156.903 91.5,157.5C 90.5682,163.055 87.9015,167.388 83.5,170.5C 80.4672,169.633 78.6339,167.633 78,164.5C 76.6534,158.402 77.8201,152.902 81.5,148C 81.1667,147.667 80.8333,147.333 80.5,147C 76.5,146.333 72.5,146.333 68.5,147C 61.758,149.136 55.0914,151.469 48.5,154C 45.8604,154.839 43.5271,154.339 41.5,152.5C 39.3509,142.823 41.3509,134.156 47.5,126.5C 49.0009,125.248 50.6675,124.248 52.5,123.5 Z"/></g>
<g><path style="opacity:1" fill="#533709" d="M 66.5,136.5 C 69.878,135.977 72.878,134.644 75.5,132.5C 75.5,134.167 75.5,135.833 75.5,137.5C 76.8221,137.33 77.9887,137.663 79,138.5C 79.6036,136.314 80.7703,136.148 82.5,138C 84.932,142.6 88.2654,146.433 92.5,149.5C 93.2811,150.729 93.7811,152.062 94,153.5C 94.3333,152.833 94.6667,152.167 95,151.5C 97.4047,153.949 99.9047,156.283 102.5,158.5C 105.89,159.801 109.224,160.134 112.5,159.5C 111.579,163.299 109.912,166.632 107.5,169.5C 104.956,170.708 103.622,172.708 103.5,175.5C 102.178,175.33 101.011,175.663 100,176.5C 94.5788,169.794 93.0788,170.96 95.5,180C 95.1667,180.167 94.8333,180.333 94.5,180.5C 93.8243,179.398 93.1577,178.398 92.5,177.5C 93.0566,171.177 93.3899,164.844 93.5,158.5C 93.3333,157.5 93.1667,156.5 93,155.5C 92.7216,156.416 92.2216,157.082 91.5,157.5C 91.2648,156.903 90.7648,156.57 90,156.5C 87.182,157.524 86.3487,159.191 87.5,161.5C 86.0267,165.548 84.6933,165.381 83.5,161C 80.5888,160.353 79.2555,158.519 79.5,155.5C 80.7169,152.933 82.3835,150.6 84.5,148.5C 83.9598,147.252 83.2931,146.085 82.5,145C 77.3749,144.84 72.0416,144.506 66.5,144C 73.3246,142.163 73.1579,141.33 66,141.5C 63.6977,141.6 61.6977,142.267 60,143.5C 57.7432,141.954 55.5765,140.288 53.5,138.5C 52.5618,135.005 50.5618,133.505 47.5,134C 46.8042,132.512 47.1375,131.012 48.5,129.5C 50.648,132.37 53.3147,133.037 56.5,131.5C 58.204,136.778 61.5374,138.444 66.5,136.5 Z"/></g>
<g><path style="opacity:1" fill="#dfb52e" d="M 179.5,131.5 C 181.457,134.47 183.457,137.47 185.5,140.5C 184.754,141.736 184.421,143.07 184.5,144.5C 183.063,148.377 182.563,152.377 183,156.5C 183.916,160.908 186.416,163.908 190.5,165.5C 191.11,166.391 191.443,167.391 191.5,168.5C 190.5,168.5 189.5,168.5 188.5,168.5C 188.615,174.608 191.615,178.275 197.5,179.5C 192.5,178.833 187.5,178.167 182.5,177.5C 182.5,177.167 182.5,176.833 182.5,176.5C 181.977,174.292 180.644,172.792 178.5,172C 178.833,171.667 179.167,171.333 179.5,171C 176.732,170.292 175.899,168.792 177,166.5C 176.333,165.167 175.667,165.167 175,166.5C 174.34,164.676 173.173,163.343 171.5,162.5C 171.5,155.833 171.5,149.167 171.5,142.5C 171.971,140.421 172.637,138.421 173.5,136.5C 175.5,134.833 177.5,133.167 179.5,131.5 Z"/></g>
<g><path style="opacity:1" fill="#82640e" d="M 237.5,164.5 C 242.01,168.557 247.343,170.224 253.5,169.5C 253.918,170.222 254.584,170.722 255.5,171C 255.167,171.333 254.833,171.667 254.5,172C 255.793,172.49 257.127,172.657 258.5,172.5C 258.5,174.167 258.5,175.833 258.5,177.5C 256.821,177.285 255.821,177.952 255.5,179.5C 255.167,179.5 254.833,179.5 254.5,179.5C 248.455,179.697 242.455,179.363 236.5,178.5C 228.313,175.822 223.647,170.156 222.5,161.5C 222.069,156.968 222.569,152.635 224,148.5C 226.333,152.167 229.333,155.167 233,157.5C 233.333,159.5 233.667,161.5 234,163.5C 234.333,163.167 234.667,162.833 235,162.5C 235.417,163.756 236.25,164.423 237.5,164.5 Z"/></g>
<g><path style="opacity:1" fill="#3a2a0c" d="M 64.5,157.5 C 66.1439,157.286 67.6439,157.62 69,158.5C 70.0891,165.111 69.2558,171.444 66.5,177.5C 58.9591,178.467 55.2924,174.967 55.5,167C 56.0212,161.315 59.0212,158.148 64.5,157.5 Z"/></g>
<g><path style="opacity:1" fill="#ecc124" d="M 213.5,175.5 C 208.532,177.964 203.199,179.297 197.5,179.5C 191.615,178.275 188.615,174.608 188.5,168.5C 189.5,168.5 190.5,168.5 191.5,168.5C 193.134,169.161 194.967,169.494 197,169.5C 201.52,168.761 206.02,168.261 210.5,168C 211.167,170 212.5,171.333 214.5,172C 213.663,173.011 213.33,174.178 213.5,175.5 Z"/></g>
<g><path style="opacity:1" fill="#4f3b0d" d="M 266.5,179.5 C 265.833,179.5 265.5,179.167 265.5,178.5C 265.662,176.473 265.495,174.473 265,172.5C 262.651,175.926 259.484,178.26 255.5,179.5C 255.821,177.952 256.821,177.285 258.5,177.5C 258.5,175.833 258.5,174.167 258.5,172.5C 257.127,172.657 255.793,172.49 254.5,172C 254.833,171.667 255.167,171.333 255.5,171C 254.584,170.722 253.918,170.222 253.5,169.5C 255.843,168.656 258.176,167.656 260.5,166.5C 261.93,166.579 263.264,166.246 264.5,165.5C 265.251,166.376 265.751,167.376 266,168.5C 266.333,168.167 266.667,167.833 267,167.5C 268.067,168.191 269.234,168.691 270.5,169C 271.634,170.016 271.301,170.683 269.5,171C 271.5,173 273.5,175 275.5,177C 272.421,177.973 269.421,178.806 266.5,179.5 Z"/></g>
<g><path style="opacity:1" fill="#785219" d="M 126.5,143.5 C 127.325,147.647 127.825,151.981 128,156.5C 128.333,156.167 128.667,155.833 129,155.5C 130,158.167 131,158.167 132,155.5C 134.558,159.055 135.891,163.055 136,167.5C 137.596,160.923 138.43,154.256 138.5,147.5C 139.022,145.781 140.022,144.448 141.5,143.5C 140.852,145.086 140.352,146.753 140,148.5C 139.5,158.161 139.334,167.828 139.5,177.5C 135.6,178.43 131.6,178.763 127.5,178.5C 127.737,177.209 127.404,176.209 126.5,175.5C 126.5,164.833 126.5,154.167 126.5,143.5 Z"/></g>
<g><path style="opacity:1" fill="#b39132" d="M 171.5,162.5 C 173.173,163.343 174.34,164.676 175,166.5C 175.667,165.167 176.333,165.167 177,166.5C 175.899,168.792 176.732,170.292 179.5,171C 179.167,171.333 178.833,171.667 178.5,172C 180.644,172.792 181.977,174.292 182.5,176.5C 175.973,174.125 172.306,169.459 171.5,162.5 Z"/></g>
<g><path style="opacity:1" fill="#3f2d11" d="M 126.5,175.5 C 127.404,176.209 127.737,177.209 127.5,178.5C 131.6,178.763 135.6,178.43 139.5,177.5C 135.627,179.43 131.294,180.097 126.5,179.5C 126.5,178.167 126.5,176.833 126.5,175.5 Z"/></g>
<g><path style="opacity:1" fill="#b59644" d="M 213.5,175.5 C 213.833,175.5 214.167,175.5 214.5,175.5C 213.328,177.539 211.662,178.872 209.5,179.5C 200.084,182.722 191.084,182.056 182.5,177.5C 187.5,178.167 192.5,178.833 197.5,179.5C 203.199,179.297 208.532,177.964 213.5,175.5 Z"/></g>
<g><path style="opacity:1" fill="#f2efe0" d="M 141.5,143.5 C 141.833,143.5 142.167,143.5 142.5,143.5C 144.13,155.794 143.63,168.128 141,180.5C 140.581,181.672 139.915,182.672 139,183.5C 135.016,181.393 130.849,180.06 126.5,179.5C 131.294,180.097 135.627,179.43 139.5,177.5C 139.334,167.828 139.5,158.161 140,148.5C 140.352,146.753 140.852,145.086 141.5,143.5 Z"/></g>
<g><path style="opacity:1" fill="#f5f4ee" d="M 265.5,127.5 C 265.5,128.167 265.5,128.833 265.5,129.5C 265.657,130.873 265.49,132.207 265,133.5C 262.713,130.538 259.88,128.371 256.5,127C 250.5,126.333 244.5,126.333 238.5,127C 236.382,128.082 234.382,129.249 232.5,130.5C 227.48,133.541 224.147,137.875 222.5,143.5C 221.194,149.599 221.194,155.599 222.5,161.5C 223.647,170.156 228.313,175.822 236.5,178.5C 239.373,180.677 242.706,181.677 246.5,181.5C 249.486,181.618 252.152,180.952 254.5,179.5C 254.833,179.5 255.167,179.5 255.5,179.5C 259.484,178.26 262.651,175.926 265,172.5C 265.495,174.473 265.662,176.473 265.5,178.5C 262.136,179.561 258.803,180.561 255.5,181.5C 255.5,183.167 255.5,184.833 255.5,186.5C 258.78,185.631 262.113,184.964 265.5,184.5C 269.21,185.514 272.876,185.514 276.5,184.5C 278.23,185.026 279.564,186.026 280.5,187.5C 274.193,188.331 267.859,188.831 261.5,189C 259.579,189.36 257.912,190.194 256.5,191.5C 242.491,191.168 228.491,191.168 214.5,191.5C 214.227,189.549 214.893,188.049 216.5,187C 221.796,187.618 227.129,187.952 232.5,188C 229.828,187.166 227.161,186.332 224.5,185.5C 223.614,184.675 223.281,183.675 223.5,182.5C 226.665,183.036 229.331,182.203 231.5,180C 224.117,177.041 216.784,176.874 209.5,179.5C 211.662,178.872 213.328,177.539 214.5,175.5C 217.503,174.83 218.17,173.163 216.5,170.5C 215.847,169.193 215.18,167.86 214.5,166.5C 212.322,165.343 210.322,164.01 208.5,162.5C 210.045,161.548 211.712,161.215 213.5,161.5C 213.766,153.105 213.766,145.105 213.5,137.5C 214.09,135.903 215.09,134.569 216.5,133.5C 213.721,130.702 210.721,128.368 207.5,126.5C 195.736,122.157 185.236,124.157 176,132.5C 175.282,129.766 173.782,129.1 171.5,130.5C 173.104,132.179 173.771,134.179 173.5,136.5C 172.637,138.421 171.971,140.421 171.5,142.5C 171.167,142.5 170.833,142.5 170.5,142.5C 169.262,141.588 167.928,141.421 166.5,142C 167.102,143.904 166.602,145.737 165,147.5C 163.812,146.437 163.312,145.103 163.5,143.5C 161.821,143.715 160.821,143.048 160.5,141.5C 161.496,141.586 162.329,141.252 163,140.5C 164.5,137.5 166,134.5 167.5,131.5C 167.145,130.478 166.478,129.811 165.5,129.5C 164.025,127.59 162.025,126.424 159.5,126C 155.833,125.333 152.167,125.333 148.5,126C 147.263,126.232 146.263,126.732 145.5,127.5C 143.906,127.92 142.406,128.586 141,129.5C 139.831,128.991 138.998,128.158 138.5,127C 134.642,126.19 130.976,126.357 127.5,127.5C 126.512,132.64 126.179,137.974 126.5,143.5C 126.5,154.167 126.5,164.833 126.5,175.5C 124.679,159.865 123.845,143.865 124,127.5C 123.167,143.5 122.333,159.5 121.5,175.5C 121.167,170.167 120.833,164.833 120.5,159.5C 121.197,148.59 121.197,137.757 120.5,127C 121.453,125.045 122.787,123.378 124.5,122C 129.94,120.868 135.44,120.035 141,119.5C 144.094,120.629 146.927,122.129 149.5,124C 154.584,125.288 158.917,124.122 162.5,120.5C 163.571,122.325 162.904,123.492 160.5,124C 163.594,126.307 166.261,125.973 168.5,123C 183.424,121.83 184.091,118.83 170.5,114C 173.366,112.543 176.366,112.21 179.5,113C 183.213,115.2 187.213,116.7 191.5,117.5C 191.5,118.5 191.5,119.5 191.5,120.5C 198.175,120.334 204.842,120.5 211.5,121C 212.5,121.833 213.5,122.667 214.5,123.5C 214.154,124.696 213.654,124.696 213,123.5C 212.257,125.441 212.424,127.274 213.5,129C 216.675,128.13 220.008,127.63 223.5,127.5C 223.5,124.167 223.5,120.833 223.5,117.5C 224.5,117.5 225.5,117.5 226.5,117.5C 226.335,121.182 226.501,124.848 227,128.5C 229.044,129.772 230.878,129.439 232.5,127.5C 233.598,123.893 235.931,121.893 239.5,121.5C 239.5,122.5 239.5,123.5 239.5,124.5C 245.842,124.334 252.175,124.5 258.5,125C 260.303,127.103 262.636,127.936 265.5,127.5 Z"/></g>
<g><path style="opacity:1" fill="#786337" d="M 236.5,178.5 C 242.455,179.363 248.455,179.697 254.5,179.5C 252.152,180.952 249.486,181.618 246.5,181.5C 242.706,181.677 239.373,180.677 236.5,178.5 Z"/></g>
<g><path style="opacity:1" fill="#ceb542" d="M 207.5,165.5 C 208.93,165.421 210.264,165.754 211.5,166.5C 212.605,168.611 214.271,169.945 216.5,170.5C 218.17,173.163 217.503,174.83 214.5,175.5C 214.167,175.5 213.833,175.5 213.5,175.5C 213.33,174.178 213.663,173.011 214.5,172C 212.5,171.333 211.167,170 210.5,168C 206.02,168.261 201.52,168.761 197,169.5C 194.967,169.494 193.134,169.161 191.5,168.5C 197.269,169.068 202.602,168.068 207.5,165.5 Z"/></g>
<g><path style="opacity:1" fill="#f2f8e4" d="M 207.5,165.5 C 202.602,168.068 197.269,169.068 191.5,168.5C 191.443,167.391 191.11,166.391 190.5,165.5C 192.215,164.343 194.215,163.676 196.5,163.5C 200.172,164.177 203.838,164.844 207.5,165.5 Z"/></g>
<g><path style="opacity:1" fill="#926a1a" d="M 127.5,127.5 C 127.286,134.656 128.119,141.656 130,148.5C 130.347,146.82 131.347,145.82 133,145.5C 134.315,148.045 136.148,148.712 138.5,147.5C 138.43,154.256 137.596,160.923 136,167.5C 135.891,163.055 134.558,159.055 132,155.5C 131,158.167 130,158.167 129,155.5C 128.667,155.833 128.333,156.167 128,156.5C 127.825,151.981 127.325,147.647 126.5,143.5C 126.179,137.974 126.512,132.64 127.5,127.5 Z"/></g>
<g><path style="opacity:1" fill="#edc622" d="M 174.5,137.5 C 177.199,139.492 180.199,141.159 183.5,142.5C 181.843,148.373 181.177,154.373 181.5,160.5C 180.5,160.5 179.5,160.5 178.5,160.5C 179.063,146.522 177.896,146.189 175,159.5C 174.82,156.044 174.153,152.711 173,149.5C 172.191,145.305 172.691,141.305 174.5,137.5 Z"/></g>
<g><path style="opacity:1" fill="#d0b25b" d="M 170.5,142.5 C 170.833,142.5 171.167,142.5 171.5,142.5C 171.5,149.167 171.5,155.833 171.5,162.5C 169.981,159.474 169.315,156.141 169.5,152.5C 169.645,149.133 169.978,145.799 170.5,142.5 Z"/></g>
<g><path style="opacity:1" fill="#b0871e" d="M 127.5,127.5 C 130.833,127.5 134.167,127.5 137.5,127.5C 136.599,131.241 137.932,133.241 141.5,133.5C 142.806,134.467 143.473,135.801 143.5,137.5C 148.032,137.182 152.366,137.515 156.5,138.5C 150.743,137.448 146.076,139.115 142.5,143.5C 142.167,143.5 141.833,143.5 141.5,143.5C 140.022,144.448 139.022,145.781 138.5,147.5C 136.148,148.712 134.315,148.045 133,145.5C 131.347,145.82 130.347,146.82 130,148.5C 128.119,141.656 127.286,134.656 127.5,127.5 Z"/></g>
<g><path style="opacity:1" fill="#f3f3e8" d="M 201.5,137.5 C 203.901,138.539 206.235,139.873 208.5,141.5C 210.186,140.143 211.852,138.81 213.5,137.5C 213.766,145.105 213.766,153.105 213.5,161.5C 211.712,161.215 210.045,161.548 208.5,162.5C 210.322,164.01 212.322,165.343 214.5,166.5C 215.18,167.86 215.847,169.193 216.5,170.5C 214.271,169.945 212.605,168.611 211.5,166.5C 210.264,165.754 208.93,165.421 207.5,165.5C 207.773,163.549 207.107,162.049 205.5,161C 207.138,158.867 207.971,156.367 208,153.5C 208.495,155.473 208.662,157.473 208.5,159.5C 209.5,159.5 210.5,159.5 211.5,159.5C 211.828,154.125 211.495,148.792 210.5,143.5C 203.954,143.368 197.288,143.368 190.5,143.5C 188.683,148.337 188.183,153.337 189,158.5C 190.706,159.308 191.539,160.641 191.5,162.5C 190.448,162.351 189.448,162.517 188.5,163C 189.381,163.708 190.047,164.542 190.5,165.5C 186.416,163.908 183.916,160.908 183,156.5C 182.563,152.377 183.063,148.377 184.5,144.5C 186.5,143.167 188.167,141.5 189.5,139.5C 193.342,137.998 197.342,137.332 201.5,137.5 Z"/></g>
<g><path style="opacity:1" fill="#f5f4f5" d="M 207.5,165.5 C 203.838,164.844 200.172,164.177 196.5,163.5C 194.215,163.676 192.215,164.343 190.5,165.5C 190.047,164.542 189.381,163.708 188.5,163C 189.448,162.517 190.448,162.351 191.5,162.5C 191.539,160.641 190.706,159.308 189,158.5C 188.183,153.337 188.683,148.337 190.5,143.5C 197.288,143.368 203.954,143.368 210.5,143.5C 211.495,148.792 211.828,154.125 211.5,159.5C 210.5,159.5 209.5,159.5 208.5,159.5C 208.662,157.473 208.495,155.473 208,153.5C 207.971,156.367 207.138,158.867 205.5,161C 207.107,162.049 207.773,163.549 207.5,165.5 Z"/></g>
<g><path style="opacity:1" fill="#84650b" d="M 191.5,126.5 C 191.577,127.75 192.244,128.583 193.5,129C 197.871,129.172 202.204,129.672 206.5,130.5C 206.023,131.478 205.357,132.311 204.5,133C 206.473,133.495 208.473,133.662 210.5,133.5C 210.767,135.971 209.767,137.638 207.5,138.5C 205.547,137.844 203.547,137.511 201.5,137.5C 197.342,137.332 193.342,137.998 189.5,139.5C 190.774,137.007 191.44,134.341 191.5,131.5C 188.937,130.912 186.604,129.912 184.5,128.5C 186.588,127.061 188.921,126.394 191.5,126.5 Z"/></g>
<g><path style="opacity:1" fill="#ebc22d" d="M 165.5,129.5 C 164.85,131.435 164.517,133.435 164.5,135.5C 163.127,135.343 161.793,135.51 160.5,136C 161.711,136.893 161.711,137.726 160.5,138.5C 159.3,137.469 157.966,136.635 156.5,136C 151.717,136.232 147.717,134.732 144.5,131.5C 145.167,130.5 145.833,129.5 146.5,128.5C 146.376,127.893 146.043,127.56 145.5,127.5C 146.263,126.732 147.263,126.232 148.5,126C 152.167,125.333 155.833,125.333 159.5,126C 162.025,126.424 164.025,127.59 165.5,129.5 Z"/></g>
<g><path style="opacity:1" fill="#ab8a18" d="M 184.5,128.5 C 186.604,129.912 188.937,130.912 191.5,131.5C 191.44,134.341 190.774,137.007 189.5,139.5C 188.167,141.5 186.5,143.167 184.5,144.5C 184.421,143.07 184.754,141.736 185.5,140.5C 183.457,137.47 181.457,134.47 179.5,131.5C 180.922,130.075 182.589,129.075 184.5,128.5 Z"/></g>
<g><path style="opacity:1" fill="#d2aa2d" d="M 145.5,127.5 C 146.043,127.56 146.376,127.893 146.5,128.5C 145.833,129.5 145.167,130.5 144.5,131.5C 147.717,134.732 151.717,136.232 156.5,136C 157.966,136.635 159.3,137.469 160.5,138.5C 161.711,137.726 161.711,136.893 160.5,136C 161.793,135.51 163.127,135.343 164.5,135.5C 164.517,133.435 164.85,131.435 165.5,129.5C 166.478,129.811 167.145,130.478 167.5,131.5C 166,134.5 164.5,137.5 163,140.5C 162.329,141.252 161.496,141.586 160.5,141.5C 159.41,140.143 158.076,139.143 156.5,138.5C 152.366,137.515 148.032,137.182 143.5,137.5C 143.473,135.801 142.806,134.467 141.5,133.5C 142.203,131.127 143.536,129.127 145.5,127.5 Z"/></g>
<g><path style="opacity:1" fill="#745916" d="M 207.5,126.5 C 210.721,128.368 213.721,130.702 216.5,133.5C 215.09,134.569 214.09,135.903 213.5,137.5C 211.852,138.81 210.186,140.143 208.5,141.5C 206.235,139.873 203.901,138.539 201.5,137.5C 203.547,137.511 205.547,137.844 207.5,138.5C 209.767,137.638 210.767,135.971 210.5,133.5C 208.473,133.662 206.473,133.495 204.5,133C 205.357,132.311 206.023,131.478 206.5,130.5C 202.204,129.672 197.871,129.172 193.5,129C 192.244,128.583 191.577,127.75 191.5,126.5C 196.675,125.441 202.009,125.441 207.5,126.5 Z"/></g>
<g><path style="opacity:1" fill="#cebb5d" d="M 127.5,127.5 C 130.976,126.357 134.642,126.19 138.5,127C 138.998,128.158 139.831,128.991 141,129.5C 142.406,128.586 143.906,127.92 145.5,127.5C 143.536,129.127 142.203,131.127 141.5,133.5C 137.932,133.241 136.599,131.241 137.5,127.5C 134.167,127.5 130.833,127.5 127.5,127.5 Z"/></g>
<g><path style="opacity:1" fill="#f3efc9" d="M 207.5,126.5 C 202.009,125.441 196.675,125.441 191.5,126.5C 188.921,126.394 186.588,127.061 184.5,128.5C 182.589,129.075 180.922,130.075 179.5,131.5C 177.5,133.167 175.5,134.833 173.5,136.5C 173.771,134.179 173.104,132.179 171.5,130.5C 173.782,129.1 175.282,129.766 176,132.5C 185.236,124.157 195.736,122.157 207.5,126.5 Z"/></g>
<g><path style="opacity:1" fill="#3a2a0a" d="M 107.5,169.5 C 103.091,177.301 97.9239,184.634 92,191.5C 91.8272,196.584 91.1606,201.584 90,206.5C 87.7146,209.892 84.548,211.559 80.5,211.5C 81.5625,201.782 78.0625,194.448 70,189.5C 68.0654,190.518 66.2321,191.352 64.5,192C 63.4238,190.274 63.2571,188.441 64,186.5C 69.7606,179.506 76.5939,178.506 84.5,183.5C 88.6281,183.364 91.2948,181.364 92.5,177.5C 93.1577,178.398 93.8243,179.398 94.5,180.5C 94.8333,180.333 95.1667,180.167 95.5,180C 93.0788,170.96 94.5788,169.794 100,176.5C 101.011,175.663 102.178,175.33 103.5,175.5C 103.622,172.708 104.956,170.708 107.5,169.5 Z"/></g>
</svg>
