<svg xmlns="http://www.w3.org/2000/svg" width="256" height="256" viewBox="0 0 256 256" version="1.1">
	<path fill-opacity="0.263" d="M 105.555 2.614 C 44.583 13.621, 1 65.887, 1 128 C 1 198.726, 56.953 255, 127.276 255 C 143.239 255, 154.622 253.205, 168.873 248.441 C 220.563 231.161, 255 183.293, 255 128.724 C 255 112.761, 253.205 101.378, 248.441 87.127 C 233.664 42.925, 195.896 10.600, 149.619 2.546 C 138.575 0.623, 116.390 0.658, 105.555 2.614 M 117.500 11.632 C 108.664 12.584, 96.489 15.227, 89.688 17.670 C 50.615 31.707, 22.644 63.511, 13.589 104.195 C 13.259 105.677, 12.530 111.373, 11.967 116.851 C 9.520 140.702, 15.440 166.771, 28.256 188.578 C 35.637 201.137, 54.863 220.363, 67.422 227.744 C 99.408 246.542, 136.749 249.534, 171.608 236.091 C 189.625 229.143, 209.682 213.619, 221.843 197.210 C 231.937 183.590, 239.339 166.479, 242.579 149.275 C 244.585 138.621, 244.810 118.370, 243.038 108 C 235.036 61.192, 197.178 22.319, 151.075 13.574 C 142.542 11.955, 124.300 10.900, 117.500 11.632 M 107 36.893 C 79.395 42.977, 55.252 62.057, 42.966 87.500 C 36.114 101.689, 34.497 109.258, 34.523 127 C 34.543 139.956, 34.921 143.884, 36.828 150.933 C 47.763 191.363, 81.057 218.201, 123 220.397 C 128.925 220.708, 130.714 220.615, 127.755 220.152 C 122.209 219.284, 119.960 217.640, 121.800 215.800 C 122.460 215.140, 122.993 214.128, 122.985 213.550 C 122.976 212.973, 122.487 213.175, 121.898 214 C 121.037 215.205, 120.923 215.058, 121.319 213.251 C 121.590 212.014, 121.404 210.750, 120.906 210.442 C 120.408 210.134, 120.007 209.346, 120.015 208.691 C 120.026 207.894, 120.315 207.949, 120.890 208.857 C 121.552 209.900, 121.924 209.932, 122.503 208.995 C 122.917 208.325, 122.701 207.433, 122.021 207.013 C 121.140 206.469, 121.104 206.054, 121.896 205.564 C 122.664 205.090, 122.696 204.300, 122 203 C 121.281 201.656, 121.351 200.891, 122.247 200.311 C 123.033 199.802, 121.824 199.277, 119 198.900 C 114.832 198.345, 114.984 198.289, 121.068 198.150 C 137.066 197.784, 150.791 188.916, 154.041 176.846 L 155.077 173 163.289 172.978 C 174.527 172.948, 179.331 170.766, 182.140 164.417 C 186.160 155.328, 181.787 145.789, 172.952 144.376 L 169.060 143.754 171.697 139.255 C 173.396 136.355, 174.333 133.284, 174.333 130.617 C 174.333 126.991, 174.713 126.293, 177.392 124.989 C 186.208 120.698, 186.354 105.198, 177.623 100.496 L 174.351 98.734 176.176 95.156 C 179.259 89.108, 178.221 82.962, 173.234 77.734 C 167.855 72.096, 160.078 72.192, 152.870 77.984 C 149.499 80.693, 148.406 81, 142.127 81 C 135.562 81, 135.011 80.824, 133.081 78.114 C 130.988 75.175, 124.761 72.057, 120.730 71.930 C 118.595 71.862, 118.585 71.823, 120.500 71 C 121.600 70.527, 122.147 70.109, 121.715 70.070 C 121.283 70.032, 121.440 69.046, 122.065 67.879 C 122.862 66.389, 122.873 65.961, 122.100 66.438 C 121.480 66.822, 121 66.438, 121 65.559 C 121 64.702, 121.563 63.993, 122.250 63.985 C 123.053 63.975, 123.131 63.707, 122.468 63.235 C 121.901 62.831, 121.430 61.087, 121.422 59.360 C 121.411 56.989, 121.786 56.333, 122.954 56.685 C 124.010 57.003, 123.936 56.789, 122.717 56.008 C 121.311 55.105, 121.076 54.110, 121.606 51.288 C 122.129 48.501, 121.991 47.888, 120.984 48.510 C 120.083 49.066, 119.934 48.916, 120.491 48.014 C 121.707 46.047, 142.620 47.351, 151.826 49.967 C 167.631 54.459, 181.264 62.471, 192.897 74.103 C 207.564 88.771, 215.800 105.561, 219.334 128 C 219.550 129.375, 219.779 127.350, 219.842 123.500 C 219.905 119.650, 219.105 112.675, 218.064 108 C 210.512 74.081, 184.831 47.376, 150.500 37.743 C 140.117 34.830, 118.297 34.404, 107 36.893 M 119 80.704 C 116.742 81.496, 115 84.103, 115 86.691 C 115 88.993, 114.958 89, 101 89 C 88.333 89, 86.810 89.190, 85 91 C 83.900 92.100, 83 94.125, 83 95.500 C 83 96.875, 83.900 98.900, 85 100 C 86.810 101.810, 88.333 102, 101.070 102 C 115.088 102, 115.138 102.008, 114.820 104.250 C 114.502 106.485, 114.374 106.502, 95 106.752 C 76.544 106.990, 75.406 107.117, 73.750 109.113 C 71.630 111.667, 71.527 113.970, 73.417 116.559 C 74.705 118.324, 76.499 118.545, 93.167 119 L 111.500 119.500 104.544 122.781 C 98.195 125.775, 88.193 129.146, 77.295 131.965 C 74.982 132.563, 72.395 133.748, 71.545 134.598 C 69.396 136.746, 69.615 141.342, 71.967 143.470 C 75.392 146.570, 81.262 145.537, 98.270 138.845 L 108.040 135 126.020 135 C 149.196 135, 149.745 136.235, 128.500 140.576 C 118.778 142.563, 116.619 144.157, 117.475 148.719 L 118.091 152 97.700 152 C 79.216 152, 77.155 152.171, 75.655 153.829 C 73.726 155.960, 73.467 161.067, 75.200 162.800 C 76.077 163.677, 84.029 164, 104.731 164 C 135.693 164, 135.547 163.971, 132.834 169.689 C 132.076 171.286, 129.556 173.503, 127 174.821 C 121.364 177.729, 114.554 177.316, 106.376 173.572 C 99.727 170.528, 96.900 170.349, 94.655 172.829 C 92.489 175.223, 92.539 180.274, 94.750 182.270 C 95.713 183.139, 99.954 185.009, 104.176 186.425 C 114.220 189.794, 127.175 190.008, 134 186.919 C 142.610 183.022, 147 176.770, 147 168.407 L 147 164.058 160.213 163.779 L 173.427 163.500 174.963 160.750 C 176.346 158.276, 176.346 157.724, 174.963 155.250 L 173.426 152.500 156.987 152.224 C 147.946 152.072, 140.158 151.558, 139.681 151.081 C 139.191 150.591, 141.357 149.263, 144.657 148.030 C 158.568 142.832, 166 136.741, 166 130.538 C 166 128.064, 165.287 126.584, 163.365 125.073 C 160.978 123.195, 159.358 122.997, 146.115 122.967 L 131.500 122.933 133.861 120.967 C 136.018 119.169, 137.791 119, 154.456 119 C 170.851 119, 172.857 118.816, 174.345 117.171 C 176.274 115.040, 176.533 109.933, 174.800 108.200 C 174.030 107.430, 170.089 107, 163.800 107 C 158.410 107, 154 106.780, 154 106.510 C 154 106.241, 157.600 102.582, 162 98.378 C 170.367 90.384, 171.309 88.314, 168.443 84.223 C 165.972 80.695, 161.134 81.235, 157 85.500 L 153.608 89 140.804 89 C 128.917 89, 128 88.865, 128 87.111 C 128 83.231, 122.651 79.423, 119 80.704 M 128 104.500 C 128 107.838, 131.448 107.852, 135.500 104.531 L 138.500 102.072 133.250 102.036 C 128.307 102.002, 128 102.146, 128 104.500 M 105.813 196.683 C 106.534 196.972, 107.397 196.936, 107.729 196.604 C 108.061 196.272, 107.471 196.036, 106.417 196.079 C 105.252 196.127, 105.015 196.364, 105.813 196.683 M 135.269 219.693 C 136.242 219.947, 137.592 219.930, 138.269 219.656 C 138.946 219.382, 138.150 219.175, 136.500 219.195 C 134.850 219.215, 134.296 219.439, 135.269 219.693" stroke="none" fill="black" fill-rule="evenodd"/>
	<path fill-opacity="0.143" d="M 107.500 2.395 C 80.293 7.595, 56.328 19.920, 38.073 38.100 C 22.884 53.227, 10.536 74.902, 4.803 96.500 C 1.741 108.033, 1.617 109.260, 1.617 128 C 1.617 146.740, 1.741 147.967, 4.803 159.500 C 10.536 181.098, 22.884 202.773, 38.073 217.900 C 53.495 233.259, 74.920 245.469, 96.500 251.197 C 108.033 254.259, 109.260 254.383, 128 254.383 C 146.740 254.383, 147.967 254.259, 159.500 251.197 C 174.089 247.325, 192.177 238.720, 203.540 230.247 C 213.508 222.815, 227.073 208.721, 233.294 199.332 C 240.651 188.231, 247.791 172.308, 251.251 159.287 C 254.250 147.999, 254.383 146.674, 254.383 128 C 254.383 109.260, 254.259 108.033, 251.197 96.500 C 247.325 81.911, 238.720 63.823, 230.247 52.460 C 222.815 42.492, 208.721 28.927, 199.332 22.706 C 188.045 15.226, 172.323 8.205, 159.287 4.824 C 148.955 2.144, 145.463 1.723, 131 1.412 C 119.967 1.175, 112.181 1.501, 107.500 2.395 M 107.500 12.608 C 64.374 20.308, 27.564 53.402, 15.570 95.258 C 3.739 136.544, 15.046 180.113, 45.480 210.508 C 62.601 227.607, 81.745 237.846, 106.500 243.143 C 114.287 244.809, 141.660 244.817, 149.500 243.155 C 190.601 234.443, 222.690 207.486, 237.448 169.272 C 243.054 154.756, 244.491 145.891, 244.381 126.500 C 244.295 111.566, 243.968 108.308, 241.683 99.687 C 236.065 78.484, 226.742 62.047, 211.500 46.475 C 193.471 28.054, 172.363 16.787, 148.074 12.618 C 136.647 10.657, 118.454 10.652, 107.500 12.608 M 113.500 35.940 C 68.774 43.336, 36.064 79.374, 34.478 123 C 34.146 132.146, 34.211 132.701, 34.982 127.302 C 40.398 89.384, 67.384 58.929, 104.500 48.847 C 115.922 45.745, 139.026 45.723, 150.284 48.805 C 178.112 56.422, 200.552 75.434, 212.669 101.659 C 214.517 105.658, 216.890 112.434, 217.942 116.715 C 220.267 126.177, 220.531 124.307, 218.508 112.705 C 212.001 75.395, 184.852 46.518, 147.755 37.450 C 140.351 35.640, 120.583 34.769, 113.500 35.940 M 116.500 73.496 C 114.300 74.271, 111.375 76.228, 110 77.845 C 107.543 80.735, 107.304 80.791, 96 81.144 C 85.790 81.462, 84.123 81.771, 81.137 83.900 C 77.415 86.553, 75 91.314, 75 95.999 C 75 98.016, 74.402 99.273, 73.250 99.678 C 64.352 102.806, 61.555 116.475, 68.480 122.981 L 70.983 125.332 67.931 127.188 C 64.608 129.209, 61.987 134.323, 62.022 138.718 C 62.049 142.144, 65.506 150, 66.986 150 C 67.748 150, 67.763 150.575, 67.035 151.934 C 65.354 155.076, 65.828 162.206, 67.950 165.686 C 70.476 169.829, 73.295 171.319, 79.842 171.969 L 85.185 172.500 85.365 178 C 85.673 187.418, 89.553 190.681, 105.739 195.137 C 115.131 197.722, 127.412 197.900, 134 195.546 C 144.093 191.940, 151.738 184.400, 154.065 175.759 L 155.077 172 163.571 172 C 173.311 172, 177.794 170.525, 180.706 166.363 C 186.884 157.531, 182.454 146.266, 172.115 144.519 L 168.161 143.851 170.554 140.325 C 173.165 136.477, 174.512 131.227, 173.628 128.337 C 173.214 126.982, 173.894 126.107, 176.222 125 C 186.067 120.321, 186.387 105.376, 176.744 100.665 L 172.989 98.830 174.881 96.424 C 181.610 87.869, 174.701 74.015, 163.700 74.004 C 159.436 74, 155.427 75.766, 152.593 78.898 C 150.966 80.695, 149.548 81, 142.814 81 C 135.076 81, 134.886 80.939, 131.887 77.524 C 130.185 75.586, 127.213 73.598, 125.168 73.030 C 120.757 71.805, 121.402 71.770, 116.500 73.496 M 117.223 81.557 C 115.782 82.566, 115 84.149, 115 86.057 L 115 89 100.655 89 C 84.644 89, 83 89.631, 83 95.772 C 83 101.148, 85.492 102, 101.223 102 C 114.333 102, 115 102.097, 115 104 C 115 105.929, 114.333 106, 96.135 106 C 78.564 106, 77.089 106.142, 74.635 108.073 C 71.653 110.418, 71.270 113.512, 73.557 116.777 C 75.065 118.930, 75.684 119.002, 93.307 119.080 L 111.500 119.159 104.500 122.548 C 100.650 124.412, 91.905 127.540, 85.067 129.498 C 78.228 131.457, 72.041 133.551, 71.317 134.152 C 67.763 137.102, 71.271 146, 75.988 146 C 78.620 146, 95.410 140.593, 102.462 137.474 C 107.718 135.150, 109.115 135, 125.529 135 C 148.101 135, 148.538 136.530, 127.126 140.590 C 118.497 142.226, 116.594 143.817, 117.366 148.750 L 117.874 152 97.060 152 C 74.807 152, 74.790 152.004, 73.485 157.205 C 72.956 159.310, 73.366 160.457, 75.359 162.450 L 77.909 165 105.455 165 L 133 165 133 167.545 C 133 173.034, 123.971 177.808, 116.235 176.410 C 114.181 176.038, 109.719 174.634, 106.319 173.289 C 98.991 170.389, 96.389 170.574, 93.703 174.186 C 91.959 176.530, 91.863 177.254, 92.945 179.867 C 95.200 185.312, 113.428 190.867, 125.053 189.652 C 137.717 188.329, 146.004 180.972, 147 170.170 L 147.500 164.749 159.052 164.925 C 169.463 165.083, 170.870 164.890, 173.302 162.977 C 175.045 161.606, 175.995 159.907, 175.985 158.177 C 175.954 152.726, 175.397 152.540, 157.534 152 C 147.359 151.692, 141.044 151.115, 141.131 150.500 C 141.209 149.950, 143.853 148.530, 147.006 147.345 C 158.793 142.914, 166 136.493, 166 130.423 C 166 123.415, 160.822 121.545, 143.108 122.153 C 137.548 122.344, 132.998 122.325, 132.999 122.110 C 133 121.896, 133.787 121.123, 134.750 120.392 C 136.049 119.406, 141.138 119.051, 154.500 119.016 C 164.400 118.991, 172.995 118.639, 173.600 118.235 C 177.452 115.663, 177.172 109.233, 173.114 107.061 C 172.023 106.477, 167.389 105.995, 162.816 105.990 L 154.500 105.980 162.250 98.721 C 168.749 92.634, 170 90.953, 170 88.304 C 170 86.083, 169.218 84.530, 167.365 83.073 C 163.781 80.254, 163.016 80.399, 157.237 85 L 152.214 89 140.107 89 L 128 89 128 86.573 C 128 83.950, 123.846 80, 121.088 80 C 120.184 80, 118.445 80.701, 117.223 81.557 M 128 104 C 128 106.672, 132.584 106.672, 136 104 L 138.500 102.044 133.250 102.022 C 128.659 102.003, 128 102.251, 128 104" stroke="none" fill="black" fill-rule="evenodd"/>
	<path fill-opacity="0.081" d="M 110.863 2.004 C 57.189 10.535, 17.533 46.871, 4.284 99.661 C 0.285 115.596, 0.285 140.404, 4.284 156.339 C 11.930 186.806, 27.731 211.302, 51.133 228.968 C 102.705 267.902, 175.543 262.165, 219.686 215.694 C 246.665 187.292, 259.576 146.765, 253.527 109.470 C 246.104 63.700, 217.023 26.958, 174.864 10.081 C 160.650 4.391, 148.123 1.909, 131.500 1.488 C 123.250 1.279, 113.963 1.511, 110.863 2.004 M 116.220 11.030 C 100.357 12.645, 83.002 18.287, 69.500 26.220 C 39.612 43.778, 18.758 73.240, 12.373 106.929 C 10.412 117.276, 10.209 136.650, 11.954 147 C 14.571 162.524, 21.356 179.574, 30.460 193.500 C 35.517 201.237, 54.763 220.483, 62.500 225.540 C 82.930 238.895, 103.297 245.051, 127.500 245.186 C 148.777 245.305, 167.497 240.486, 185.500 230.256 C 195.721 224.447, 199.694 221.419, 209.335 212.085 C 223.146 198.715, 231.839 185.495, 238.323 168 C 243.287 154.605, 245.246 143.050, 245.187 127.500 C 245.095 103.343, 238.947 83.112, 225.351 62.232 C 220.535 54.836, 201.164 35.465, 193.768 30.649 C 170.045 15.202, 142.842 8.320, 116.220 11.030 M 124.264 35.718 C 125.784 35.947, 128.034 35.941, 129.264 35.704 C 130.494 35.467, 129.250 35.279, 126.500 35.286 C 123.750 35.294, 122.744 35.488, 124.264 35.718 M 105.286 38.001 C 65.641 48.391, 38.210 80.399, 34.584 120.500 L 34.042 126.500 35.412 120 C 41.353 91.814, 62.479 65.782, 89.350 53.537 C 96.813 50.136, 98.144 48.334, 95.614 45.058 C 94.752 43.942, 94.798 43.795, 95.817 44.409 C 96.703 44.941, 97.314 44.515, 97.682 43.108 C 98.038 41.747, 99.499 40.676, 101.865 40.044 C 106.405 38.830, 114.545 37.185, 118.500 36.682 C 120.526 36.424, 120.039 36.269, 117 36.205 C 114.525 36.153, 109.254 36.961, 105.286 38.001 M 135.762 36.707 C 137.006 36.946, 138.806 36.937, 139.762 36.687 C 140.718 36.437, 139.700 36.241, 137.500 36.252 C 135.300 36.263, 134.518 36.468, 135.762 36.707 M 143.813 37.683 C 144.534 37.972, 145.397 37.936, 145.729 37.604 C 146.061 37.272, 145.471 37.036, 144.417 37.079 C 143.252 37.127, 143.015 37.364, 143.813 37.683 M 148.813 38.683 C 149.534 38.972, 150.397 38.936, 150.729 38.604 C 151.061 38.272, 150.471 38.036, 149.417 38.079 C 148.252 38.127, 148.015 38.364, 148.813 38.683 M 114.198 74.673 C 112.382 75.568, 110.233 77.583, 109.422 79.150 L 107.949 82 96.425 82 C 82.480 82, 79.741 83.070, 76.826 89.660 C 75.670 92.274, 75.074 95.159, 75.412 96.507 C 75.900 98.449, 75.379 99.141, 72.276 100.668 C 67.712 102.916, 64.748 107.805, 64.819 112.970 C 64.879 117.330, 67.154 122.427, 69.667 123.834 C 71.113 124.643, 70.849 125.194, 67.681 127.975 C 61.578 133.334, 60.867 141.747, 65.968 148.232 C 67.623 150.336, 67.747 151.213, 66.820 154.234 C 63.730 164.305, 70.610 172, 82.704 172 C 86 172, 86.130 172.134, 85.518 174.916 C 84.652 178.863, 86.479 185.165, 89.239 187.743 C 93.742 191.950, 111.184 197, 121.213 197 C 136.953 197, 149.968 188.614, 153.249 176.357 L 154.358 172.214 164.429 171.821 C 175.507 171.390, 178.906 170.016, 181.551 164.901 C 183.433 161.262, 183.401 154.676, 181.483 150.967 C 179.763 147.641, 175.349 145.013, 170.969 144.707 C 167.466 144.462, 167.489 144.538, 169.861 141.154 C 172.514 137.371, 174.192 131.612, 173.474 128.751 C 172.958 126.695, 173.358 126.094, 175.963 125.015 C 182.584 122.273, 185.408 114.559, 182.475 107.228 C 180.827 103.110, 177.411 100, 174.535 100 C 172.585 100, 172.604 99.798, 174.919 95.807 C 178.499 89.639, 178.025 84.141, 173.481 79.111 C 167.738 72.754, 160.198 72.571, 153.135 78.616 C 149.419 81.797, 148.741 82, 141.841 81.994 C 134.845 81.988, 134.425 81.855, 132.904 79.181 C 129.741 73.619, 120.739 71.449, 114.198 74.673 M 116.073 82.635 C 114.933 84.084, 114 86.109, 114 87.135 C 114 88.865, 113 89, 100.155 89 C 84.740 89, 83 89.677, 83 95.674 C 83 101.245, 85.069 102, 100.329 102 C 113.333 102, 114 102.098, 114 104 C 114 105.930, 113.333 106, 95 106 C 77.333 106, 75.860 106.140, 74 108 C 71.385 110.615, 71.435 115.178, 74.105 117.595 C 76 119.310, 77.893 119.500, 93.055 119.500 C 102.320 119.500, 109.585 119.792, 109.200 120.150 C 107.480 121.747, 92.965 127.216, 84.164 129.584 C 71.792 132.913, 70 134.044, 70 138.523 C 70 142.623, 72.888 146, 76.395 146 C 79.620 146, 90.676 142.552, 100.762 138.401 L 109.023 135 126.012 135 C 135.684 135, 143 135.396, 143 135.920 C 143 136.780, 134.651 138.986, 125.500 140.543 C 119.308 141.598, 117 143.477, 117 147.465 L 117 150.883 96.910 151.192 C 77.177 151.495, 76.786 151.542, 74.910 153.861 C 72.455 156.895, 72.497 159.091, 75.073 162.365 L 77.145 165 105.073 165 L 133 165 133 167.364 C 133 170.581, 128.531 174.810, 124.290 175.605 C 118.617 176.670, 110.824 175.382, 104.670 172.364 C 99.304 169.732, 98.728 169.642, 96.237 171.040 C 92.683 173.035, 91.189 178.114, 93.237 181.239 C 95.566 184.794, 108.689 189.080, 119.247 189.735 C 127.597 190.252, 128.290 190.132, 134.492 187.078 C 138.066 185.319, 142.083 182.444, 143.420 180.690 C 146.094 177.179, 148.561 168.905, 147.645 166.518 C 147.144 165.211, 148.792 165, 159.531 165 C 170.667 165, 172.214 164.786, 174 163 C 176.333 160.667, 176.605 156.211, 174.583 153.441 C 173.305 151.691, 171.513 151.451, 156.333 151 C 140.408 150.527, 139.716 150.425, 143.500 149.113 C 153.707 145.576, 162.055 140.265, 165.064 135.397 C 167.626 131.251, 167.506 128.700, 164.588 125.306 C 162.177 122.502, 162.165 122.500, 147.436 122.153 C 126.470 121.659, 131.305 120.034, 153.795 120.015 L 172.091 120 174.657 117.434 C 176.733 115.358, 177.104 114.259, 176.598 111.684 C 175.651 106.860, 173.702 106, 163.721 106 L 154.823 106 162.916 98.250 C 167.367 93.987, 171.006 89.747, 171.004 88.827 C 170.997 86.059, 166.074 81, 163.389 81 C 161.940 81, 159.200 82.618, 156.616 85 L 152.276 89 140.138 89 L 128 89 128 86.500 C 128 80.402, 119.895 77.775, 116.073 82.635 M 128 104 C 128 105.486, 128.667 106, 130.592 106 C 132.018 106, 134.329 105.100, 135.727 104 L 138.270 102 133.135 102 C 128.667 102, 128 102.260, 128 104 M 107.500 143 C 105.592 143.820, 105.603 143.863, 107.750 143.930 C 108.987 143.968, 110 143.550, 110 143 C 110 142.450, 109.888 142.032, 109.750 142.070 C 109.612 142.109, 108.600 142.527, 107.500 143" stroke="none" fill="black" fill-rule="evenodd"/>
	<path fill-opacity="0.142" d="M 115.813 10.683 C 116.534 10.972, 117.397 10.936, 117.729 10.604 C 118.061 10.272, 117.471 10.036, 116.417 10.079 C 115.252 10.127, 115.015 10.364, 115.813 10.683 M 138.813 10.683 C 139.534 10.972, 140.397 10.936, 140.729 10.604 C 141.061 10.272, 140.471 10.036, 139.417 10.079 C 138.252 10.127, 138.015 10.364, 138.813 10.683 M 77 12 C 76.175 12.533, 75.950 12.969, 76.500 12.969 C 77.050 12.969, 78.175 12.533, 79 12 C 79.825 11.467, 80.050 11.031, 79.500 11.031 C 78.950 11.031, 77.825 11.467, 77 12 M 178 12.500 C 179.375 13.286, 180.950 13.929, 181.500 13.929 C 182.050 13.929, 181.375 13.286, 180 12.500 C 178.625 11.714, 177.050 11.071, 176.500 11.071 C 175.950 11.071, 176.625 11.714, 178 12.500 M 68.441 16.555 C 66.577 18.049, 66.589 18.067, 68.750 17.020 C 69.987 16.420, 71 15.720, 71 15.465 C 71 14.700, 70.481 14.921, 68.441 16.555 M 185 15.430 C 185 15.705, 185.900 16.411, 187 17 C 188.100 17.589, 189 17.845, 189 17.570 C 189 17.295, 188.100 16.589, 187 16 C 185.900 15.411, 185 15.155, 185 15.430 M 37.966 38.750 L 32.500 44.500 38.250 39.034 C 43.592 33.956, 44.458 33, 43.716 33 C 43.560 33, 40.972 35.587, 37.966 38.750 M 216.500 38 C 219.209 40.750, 221.650 43, 221.925 43 C 222.200 43, 220.209 40.750, 217.500 38 C 214.791 35.250, 212.350 33, 212.075 33 C 211.800 33, 213.791 35.250, 216.500 38 M 239 69 C 239.589 70.100, 240.295 71, 240.570 71 C 240.845 71, 240.589 70.100, 240 69 C 239.411 67.900, 238.705 67, 238.430 67 C 238.155 67, 238.411 67.900, 239 69 M 116.619 74.034 C 113.267 75.038, 109 78.757, 109 80.674 C 109 81.695, 106.463 82, 97.968 82 C 81.535 82, 77.030 84.591, 76.207 94.515 C 75.909 98.114, 75.306 100, 74.453 100 C 71.994 100, 67.034 105.153, 65.923 108.863 C 64.444 113.799, 66.144 120.181, 69.677 122.960 C 71.122 124.098, 72.124 125.167, 71.903 125.338 C 71.681 125.508, 70.070 126.635, 68.322 127.841 C 62.461 131.885, 61.422 142.926, 66.398 148.295 C 68.132 150.167, 68.463 151.208, 67.737 152.506 C 66.016 155.581, 67.408 164.740, 70.018 167.519 C 72.810 170.491, 79.132 172.402, 83.714 171.659 C 85.521 171.366, 87 171.213, 87 171.319 C 87 171.426, 86.584 172.964, 86.075 174.737 C 84.901 178.833, 86.388 184.479, 89.446 187.537 C 92.393 190.484, 109.559 195.993, 118 196.701 C 130.107 197.716, 144.096 192.167, 149.509 184.202 C 150.821 182.271, 152.456 178.498, 153.143 175.818 L 154.392 170.944 164.204 171.082 C 174.860 171.231, 177.418 170.344, 180.678 165.368 C 182.946 161.907, 182.913 154.042, 180.615 150.534 C 178.679 147.580, 173.512 145, 169.532 145 C 168.139 145, 167 144.550, 167 144 C 167 143.450, 167.367 143, 167.816 143 C 169.667 143, 173 135.068, 173 130.661 C 173 126.444, 173.262 125.969, 176.423 124.470 C 180.906 122.342, 183.393 117.183, 182.739 111.373 C 182.098 105.690, 179.818 102.369, 175.247 100.459 C 173.180 99.595, 171.995 98.595, 172.574 98.203 C 176.828 95.331, 178.278 87.373, 175.520 82.039 C 172.976 77.120, 169.344 75, 163.460 75 C 158.901 75, 157.624 75.473, 154 78.500 C 150.014 81.830, 149.440 82, 142.155 82 C 134.624 82, 134.455 81.944, 131.743 78.545 C 130.075 76.454, 127.509 74.680, 125.243 74.051 C 120.961 72.861, 120.539 72.861, 116.619 74.034 M 11.162 78.543 C 9.487 82.220, 9.807 83.005, 11.618 79.662 C 12.464 78.100, 12.969 76.636, 12.741 76.407 C 12.512 76.179, 11.802 77.140, 11.162 78.543 M 243.031 76.500 C 243.031 77.050, 243.467 78.175, 244 79 C 244.533 79.825, 244.969 80.050, 244.969 79.500 C 244.969 78.950, 244.533 77.825, 244 77 C 243.467 76.175, 243.031 75.950, 243.031 76.500 M 118.500 80.163 C 115.584 81.746, 114 84.059, 114 86.734 L 114 89.086 100.621 88.943 C 92.321 88.854, 86.441 89.229, 85.133 89.929 C 82.276 91.458, 81.330 95.716, 83.133 98.931 C 84.566 101.486, 84.652 101.501, 99.287 101.777 C 113.173 102.038, 114 102.164, 114 104.027 C 114 105.923, 113.246 106, 94.655 106 C 77.184 106, 75.150 106.177, 73.655 107.829 C 71.378 110.345, 71.555 115.555, 74 118 C 75.840 119.840, 77.341 120.001, 92.750 120.010 L 109.500 120.020 104.162 122.504 C 98.350 125.210, 84.856 129.470, 78.518 130.600 C 73.003 131.583, 68.556 136.094, 69.478 139.770 C 71.555 148.045, 75.994 148.214, 94.943 140.738 L 105.500 136.573 124.252 136.036 C 134.565 135.741, 143.003 135.776, 143.002 136.113 C 143 136.720, 124.201 141, 121.535 141 C 119.204 141, 115.819 146.143, 116.463 148.707 L 117.038 151 97.654 151 C 79.558 151, 78.095 151.138, 75.635 153.073 C 72.411 155.608, 72.122 160.122, 75 163 C 76.905 164.905, 78.333 165, 105 165 C 131.658 165, 133 165.089, 133 166.865 C 133 169.528, 129.579 173.518, 126.036 174.985 C 121.464 176.879, 112.455 175.807, 105.133 172.499 C 99.254 169.842, 98.564 169.734, 96.146 171.092 C 92.485 173.147, 91.141 177.380, 93.064 180.804 C 96.981 187.783, 123.177 192.680, 133.073 188.283 C 142.291 184.188, 148 176.828, 148 169.040 L 148 165 160.427 165 C 172.662 165, 172.887 164.959, 174.927 162.365 C 177.737 158.793, 177.542 155.572, 174.365 153.073 C 171.954 151.176, 170.360 150.996, 155.615 150.948 L 139.500 150.896 145.673 148.602 C 157.807 144.092, 167 136.381, 167 130.711 C 167 129.281, 165.915 126.849, 164.589 125.306 C 162.186 122.509, 162.131 122.499, 147.907 122.171 C 127.322 121.697, 132.465 120.034, 154.576 120.015 C 172.167 120, 172.710 119.938, 174.826 117.686 C 177.492 114.847, 177.663 109.910, 175.171 107.655 C 173.750 106.369, 171.303 106, 164.182 106 L 155.022 106 163.011 98.367 C 171.659 90.105, 172.456 88.121, 168.927 83.635 C 165.894 79.779, 161.542 80.072, 157.042 84.435 L 153.500 87.869 141 88.113 L 128.500 88.356 128.194 85.782 C 127.656 81.267, 122.245 78.130, 118.500 80.163 M 128.667 102.667 C 128.300 103.033, 128 103.933, 128 104.667 C 128 106.668, 132.450 106.273, 135.139 104.033 L 137.500 102.067 133.417 102.033 C 131.171 102.015, 129.033 102.300, 128.667 102.667 M 36.158 111 C 36.158 112.375, 36.385 112.938, 36.662 112.250 C 36.940 111.563, 36.940 110.438, 36.662 109.750 C 36.385 109.063, 36.158 109.625, 36.158 111 M 35.158 116 C 35.158 117.375, 35.385 117.938, 35.662 117.250 C 35.940 116.563, 35.940 115.438, 35.662 114.750 C 35.385 114.063, 35.158 114.625, 35.158 116 M 10.079 116.583 C 10.127 117.748, 10.364 117.985, 10.683 117.188 C 10.972 116.466, 10.936 115.603, 10.604 115.271 C 10.272 114.939, 10.036 115.529, 10.079 116.583 M 245.079 116.583 C 245.127 117.748, 245.364 117.985, 245.683 117.188 C 245.972 116.466, 245.936 115.603, 245.604 115.271 C 245.272 114.939, 245.036 115.529, 245.079 116.583 M 10.079 139.583 C 10.127 140.748, 10.364 140.985, 10.683 140.188 C 10.972 139.466, 10.936 138.603, 10.604 138.271 C 10.272 137.939, 10.036 138.529, 10.079 139.583 M 245.079 139.583 C 245.127 140.748, 245.364 140.985, 245.683 140.188 C 245.972 139.466, 245.936 138.603, 245.604 138.271 C 245.272 137.939, 245.036 138.529, 245.079 139.583 M 107.250 142.662 C 106.563 142.940, 106 143.610, 106 144.153 C 106 145.560, 110.261 144.751, 110.755 143.250 C 111.169 141.993, 109.572 141.725, 107.250 142.662 M 10.071 174.500 C 10.071 175.050, 10.714 176.625, 11.500 178 C 12.286 179.375, 12.929 180.050, 12.929 179.500 C 12.929 178.950, 12.286 177.375, 11.500 176 C 10.714 174.625, 10.071 173.950, 10.071 174.500 M 243.624 177.539 C 242.659 180.053, 242.943 180.702, 244.122 178.675 C 244.706 177.671, 244.973 176.639, 244.715 176.382 C 244.458 176.124, 243.966 176.645, 243.624 177.539 M 239 187 C 238.411 188.100, 238.155 189, 238.430 189 C 238.705 189, 239.411 188.100, 240 187 C 240.589 185.900, 240.845 185, 240.570 185 C 240.295 185, 239.589 185.900, 239 187 M 38 217.500 C 40.987 220.525, 43.657 223, 43.932 223 C 44.207 223, 41.987 220.525, 39 217.500 C 36.013 214.475, 33.343 212, 33.068 212 C 32.793 212, 35.013 214.475, 38 217.500 M 217 217.500 C 214.571 219.975, 212.809 222, 213.084 222 C 213.359 222, 215.571 219.975, 218 217.500 C 220.429 215.025, 222.191 213, 221.916 213 C 221.641 213, 219.429 215.025, 217 217.500 M 186.441 239.555 C 184.577 241.049, 184.589 241.067, 186.750 240.020 C 187.988 239.420, 189 238.720, 189 238.465 C 189 237.700, 188.481 237.921, 186.441 239.555 M 77 244 C 77.825 244.533, 78.950 244.969, 79.500 244.969 C 80.050 244.969, 79.825 244.533, 79 244 C 78.175 243.467, 77.050 243.031, 76.500 243.031 C 75.950 243.031, 76.175 243.467, 77 244 M 177 244 C 176.175 244.533, 175.950 244.969, 176.500 244.969 C 177.050 244.969, 178.175 244.533, 179 244 C 179.825 243.467, 180.050 243.031, 179.500 243.031 C 178.950 243.031, 177.825 243.467, 177 244" stroke="none" fill="black" fill-rule="evenodd"/>
</svg>