<svg xmlns="http://www.w3.org/2000/svg" width="256" height="256" viewBox="0 0 256 256" version="1.1">
	<path fill-opacity="0.322" d="M 67.324 72.045 C 46.410 76.180, 29.272 91.117, 22.263 111.319 C 18.812 121.267, 18.585 136.395, 21.734 146.500 C 27.532 165.101, 41.984 179.749, 60.223 185.511 L 68.103 188 127.648 188 C 192.363 188, 191.968 188.030, 203.448 182.255 C 214.364 176.763, 224.565 166.653, 230.062 155.878 C 235.617 144.989, 237.423 128.664, 234.463 116.103 C 230.756 100.378, 218.313 84.709, 203.902 77.617 C 190.823 71.180, 188.970 71.024, 127 71.127 C 96.475 71.178, 69.621 71.591, 67.324 72.045 M 64 82.928 C 55.098 85.753, 49.920 88.893, 43.455 95.388 C 33.013 105.878, 28.239 118.567, 29.305 133 C 30.610 150.668, 40.544 165.631, 56.154 173.440 C 67.039 178.886, 70.733 179.146, 132.040 178.770 C 183.043 178.457, 187.890 178.282, 192.358 176.584 C 208.861 170.314, 219.656 159.017, 224.388 143.068 C 226.236 136.843, 226.509 123.428, 224.910 117.500 C 221.810 106.012, 211.829 92.946, 202.112 87.657 C 189.481 80.783, 191.837 80.990, 127.593 81.091 C 75.251 81.173, 68.955 81.355, 64 82.928 M 58.750 107.055 C 56.741 108.254, 56.404 113.004, 58.200 114.800 C 58.860 115.460, 60.622 116, 62.115 116 C 63.608 116, 68.159 117.764, 72.228 119.920 C 84.470 126.406, 91.441 126.515, 101.629 120.380 C 110.576 114.993, 114.782 114.887, 124.063 119.820 C 136.467 126.412, 143.394 126.543, 153.629 120.380 C 161.267 115.781, 167.046 115.066, 172.500 118.047 C 185.186 124.980, 191.330 126.527, 194.318 123.540 C 198.030 119.827, 195.940 116.104, 189.463 114.894 C 186.829 114.402, 182.610 112.676, 180.087 111.058 C 174.533 107.497, 166.996 105.666, 161.537 106.551 C 159.317 106.911, 154.198 109.013, 150.162 111.221 C 143.823 114.691, 142.189 115.175, 138.162 114.778 C 135.330 114.500, 131.530 113.101, 128.480 111.216 C 118.248 104.889, 109.882 104.863, 98.377 111.124 C 90.170 115.590, 85.325 116.078, 79.984 112.977 C 70.293 107.349, 62.090 105.062, 58.750 107.055 M 58.200 136.200 C 57.540 136.860, 57 138.643, 57 140.161 C 57 142.576, 57.534 143.057, 61.250 143.993 C 63.587 144.581, 69.156 146.903, 73.624 149.151 C 81.236 152.983, 82.184 153.215, 88.687 152.848 C 94.598 152.514, 96.583 151.879, 102.064 148.572 C 110.916 143.230, 114.884 143.296, 125.500 148.957 C 133.215 153.071, 133.756 153.207, 140.687 152.766 C 146.795 152.377, 148.823 151.736, 154.187 148.498 C 162.368 143.561, 167.510 143.324, 174.584 147.558 C 181.314 151.586, 184.797 152.835, 189.550 152.924 C 194.072 153.009, 196 151.664, 196 148.422 C 196 145.504, 193.858 143.902, 188.654 142.930 C 186.275 142.485, 181.941 140.637, 179.022 138.823 C 174.583 136.064, 172.552 135.466, 166.591 135.165 C 159.858 134.825, 159.037 135.031, 151.685 138.902 C 141.358 144.342, 137.670 144.356, 127.500 139 C 120.931 135.540, 119.040 135, 113.500 135 C 107.960 135, 106.069 135.540, 99.500 139 C 93.971 141.912, 90.707 143, 87.500 143 C 84.293 143, 81.029 141.912, 75.500 139 C 67.595 134.837, 60.682 133.718, 58.200 136.200" stroke="none" fill="black" fill-rule="evenodd"/>
	<path fill-opacity="0.358" d="M 69.500 72.013 C 51.362 74.489, 33.629 87.519, 25.577 104.284 C 21.085 113.637, 19.806 119.465, 19.823 130.500 C 19.849 146.854, 26.691 162.185, 38.812 173.049 C 45.542 179.080, 58.106 185.408, 66.500 186.993 C 70.677 187.781, 90.428 188.024, 131.500 187.793 C 189.451 187.466, 190.604 187.421, 196.320 185.260 C 226.495 173.852, 242.399 142.111, 233.063 111.928 C 230.956 105.117, 225.716 96.162, 220.081 89.745 C 215.261 84.255, 204.487 77.504, 195.462 74.316 L 187.500 71.505 131.500 71.349 C 100.700 71.264, 72.800 71.562, 69.500 72.013 M 64.270 82.530 C 51.946 86.410, 39.931 96.297, 34.466 107.054 C 22.010 131.573, 31.451 161.288, 55.576 173.494 C 66.302 178.921, 67.009 178.975, 127.356 178.988 C 188.042 179.001, 189.345 178.899, 200.422 173.286 C 207.220 169.841, 217.987 158.857, 221.350 151.935 C 222.837 148.875, 224.783 142.800, 225.676 138.435 C 227.066 131.634, 227.119 129.428, 226.044 123 C 222.824 103.750, 209.913 88.451, 192.295 83.009 C 186.076 81.088, 183.208 81.004, 127.145 81.099 C 81.313 81.176, 67.576 81.489, 64.270 82.530 M 59.145 107.611 C 56.555 109.425, 56.327 113.585, 58.750 114.826 C 59.712 115.319, 62.226 115.987, 64.336 116.312 C 66.446 116.637, 70.486 118.387, 73.313 120.201 C 78.157 123.309, 78.976 123.500, 87.477 123.500 C 96.167 123.500, 96.722 123.361, 102.520 119.750 C 109.572 115.357, 115.332 114.796, 121 117.952 C 131.410 123.748, 132.982 124.213, 140.871 123.838 C 147.615 123.518, 149.198 123.042, 154.520 119.738 C 161.571 115.360, 167.337 114.801, 173 117.948 C 181.788 122.832, 184.783 123.957, 189.050 123.978 C 193.857 124.001, 196 122.731, 196 119.857 C 196 117.651, 192.283 115, 189.190 115 C 187.889 115, 184.052 113.451, 180.662 111.558 C 168.995 105.041, 160.626 105.022, 150.148 111.490 C 142.157 116.422, 137.659 116.298, 127.193 110.857 C 115.475 104.766, 108.381 105.083, 97.054 112.205 C 93.690 114.320, 91.366 115, 87.500 115 C 83.634 115, 81.310 114.320, 77.946 112.205 C 69.669 107, 62.513 105.252, 59.145 107.611 M 58.250 136.107 C 57.563 136.818, 57 138.380, 57 139.578 C 57 142.396, 58.574 143.575, 63.500 144.447 C 65.700 144.836, 69.584 146.482, 72.131 148.105 C 81.978 154.380, 92.578 154.288, 102.954 147.838 C 110.191 143.339, 116.618 143.287, 123.579 147.671 C 134.477 154.536, 142.144 154.615, 154.624 147.990 C 161.531 144.324, 163.044 143.883, 166.919 144.409 C 169.349 144.738, 173.399 146.329, 175.919 147.944 C 184.452 153.413, 194.090 154.443, 195.489 150.035 C 196.536 146.737, 194.387 144.241, 189.837 143.473 C 187.533 143.083, 182.240 140.967, 178.074 138.770 C 170.916 134.995, 170.129 134.802, 163.734 135.255 C 158.132 135.653, 155.916 136.385, 150.852 139.510 C 142.237 144.828, 136.568 144.807, 127.794 139.425 C 121.876 135.795, 121.018 135.563, 113.425 135.532 C 105.762 135.502, 105.028 135.699, 99.043 139.393 C 90.321 144.776, 84.757 144.820, 76.116 139.571 C 69.319 135.441, 60.540 133.740, 58.250 136.107" stroke="none" fill="black" fill-rule="evenodd"/>
	<path fill-opacity="0.468" d="M 63.227 73.432 C 45.809 77.699, 30.035 92.063, 23.376 109.720 C 20.226 118.071, 19.148 131.923, 20.927 141.184 C 24.747 161.069, 40.952 179.147, 60.458 185.285 C 67.404 187.470, 68.324 187.500, 128 187.500 C 188.228 187.500, 188.529 187.490, 195 185.241 C 212.285 179.234, 225.411 166.978, 231.385 151.268 C 243.287 119.969, 228.084 86.681, 196.432 74.738 C 190.547 72.518, 190.015 72.499, 129.500 72.320 C 82.529 72.182, 67.287 72.437, 63.227 73.432 M 70.347 81.095 C 51.150 84.302, 35.812 97.802, 30.308 116.334 C 28.499 122.427, 28.338 135.826, 29.999 141.997 C 33.317 154.319, 43.293 167.230, 53.789 172.786 C 65.675 179.078, 64.756 179.001, 127.432 178.994 C 163.585 178.991, 185.966 178.609, 188.500 177.952 C 214.919 171.101, 231.342 145.549, 225.875 119.799 C 221.682 100.050, 204.431 83.890, 184.500 81.040 C 175.984 79.823, 77.680 79.870, 70.347 81.095 M 57.882 109.360 C 56.868 111.585, 56.963 112.301, 58.496 113.996 C 59.494 115.098, 61.569 116, 63.107 116 C 64.646 116, 69.323 117.800, 73.500 120 C 80.056 123.453, 81.966 124, 87.462 124 C 92.966 124, 94.854 123.457, 101.380 120 C 106.949 117.049, 110.106 116, 113.417 116 C 116.720 116, 119.910 117.056, 125.500 120 C 132.007 123.427, 133.983 123.999, 139.298 123.990 C 145.319 123.981, 149.161 122.645, 158 117.488 C 159.375 116.686, 162.750 116.024, 165.500 116.017 C 169.479 116.008, 171.716 116.738, 176.455 119.596 C 183.867 124.065, 192.486 125.424, 194.650 122.464 C 196.440 120.015, 196.363 119.363, 194 117 C 192.860 115.860, 190.667 115, 188.901 115 C 187.081 115, 183.359 113.493, 179.886 111.349 C 174.872 108.254, 172.868 107.628, 166.735 107.237 C 159.791 106.795, 159.186 106.942, 151.702 110.888 C 141.173 116.441, 136.260 116.517, 127.745 111.262 C 122.525 108.040, 120.707 107.474, 114.594 107.169 C 107.897 106.835, 107.069 107.044, 99.785 110.907 C 89.440 116.396, 84.252 116.512, 76.037 111.442 C 71.942 108.914, 68.651 107.716, 64.676 107.306 C 59.357 106.757, 59.022 106.858, 57.882 109.360 M 58.615 136.527 C 57.727 137.416, 57 138.754, 57 139.500 C 57 141.619, 59.903 144, 62.486 144 C 63.775 144, 68.356 145.903, 72.665 148.228 C 79.793 152.074, 81.140 152.454, 87.593 152.438 C 94.032 152.423, 95.275 152.067, 101.093 148.567 C 110.663 142.811, 114.523 142.739, 124.500 148.132 C 131.823 152.090, 133.104 152.454, 139.640 152.438 C 146.169 152.422, 147.317 152.089, 153.054 148.548 C 162.321 142.828, 166.445 142.717, 176.251 147.923 C 180.514 150.187, 185.980 152.310, 188.398 152.641 C 192.312 153.178, 192.973 152.971, 194.420 150.763 C 196.412 147.723, 195.578 145.147, 192.390 144.491 C 191.075 144.221, 188.906 143.774, 187.569 143.498 C 186.231 143.222, 182.372 141.349, 178.993 139.336 C 173.473 136.048, 172.120 135.673, 165.674 135.645 C 159.105 135.617, 157.825 135.977, 150.500 139.904 C 140.539 145.244, 136.636 145.173, 127.174 139.481 C 121.457 136.042, 120.159 135.671, 113.674 135.620 C 107.064 135.569, 105.901 135.896, 98.877 139.782 C 90.176 144.596, 85.483 145.150, 79.984 142.011 C 71.633 137.243, 69.235 136.224, 64.865 135.587 C 61.276 135.064, 59.867 135.276, 58.615 136.527" stroke="none" fill="black" fill-rule="evenodd"/>
	<path fill-opacity="0.390" d="M 65.252 73.401 C 51.581 76.151, 35.452 87.547, 28.541 99.339 C 21.754 110.921, 18.889 125.834, 20.928 138.971 C 24.411 161.424, 41.739 180.199, 64.500 186.185 C 71.938 188.141, 183.176 188.083, 191 186.119 C 209.892 181.377, 225.341 167.239, 232.181 148.432 C 235.129 140.328, 235.815 124.730, 233.604 116.099 C 230.804 105.171, 226.209 97.206, 217.969 89 C 210.567 81.628, 205.381 78.394, 194.500 74.367 C 189.867 72.652, 185.172 72.503, 130.500 72.331 C 86.471 72.192, 69.915 72.464, 65.252 73.401 M 66.377 81.475 C 49.801 85.531, 36.293 98.115, 30.503 114.894 C 23.714 134.569, 32.181 158.798, 50.033 170.784 C 62.638 179.247, 61.307 179.114, 130.106 178.787 L 190.607 178.500 198.554 174.580 C 212.057 167.918, 221.895 156.179, 225.467 142.465 C 232.406 115.825, 216.047 88.395, 189.169 81.600 C 183.712 80.221, 175.154 80.015, 127.169 80.111 C 86.268 80.192, 70.141 80.554, 66.377 81.475 M 59.400 107.707 C 55.644 110.415, 57.632 114.526, 63.123 115.404 C 65.431 115.773, 70.026 117.745, 73.335 119.787 C 79.010 123.291, 79.805 123.497, 87.425 123.439 C 95 123.382, 95.897 123.136, 101.914 119.475 C 110.860 114.030, 116.024 114.041, 125.016 119.525 C 131.174 123.279, 131.902 123.476, 139.500 123.428 C 146.997 123.381, 147.903 123.132, 153.914 119.475 C 162.744 114.100, 168.054 114.059, 176.544 119.299 C 183.690 123.710, 192.318 124.897, 194.356 121.750 C 196.045 119.143, 194.025 116.657, 189.402 115.652 C 185.419 114.786, 184.835 114.523, 177 110.062 C 173.247 107.926, 171.254 107.506, 165 107.538 C 158.085 107.574, 157.009 107.877, 151.206 111.431 C 145.944 114.654, 144.026 115.286, 139.500 115.286 C 134.990 115.286, 133.037 114.648, 127.794 111.461 C 121.915 107.889, 120.973 107.634, 113.500 107.594 C 105.929 107.553, 105.162 107.758, 99.206 111.418 C 90.563 116.730, 85.014 116.784, 75.826 111.645 C 69.398 108.050, 61.538 106.166, 59.400 107.707 M 58.152 137.716 C 56.597 140.622, 59.259 144, 63.104 144 C 64.749 144, 69.416 145.823, 73.477 148.052 C 79.865 151.558, 81.708 152.108, 87.159 152.134 C 92.612 152.160, 94.513 151.616, 101.310 148.082 C 111.166 142.958, 116.426 142.641, 123.054 146.769 C 130.154 151.191, 132.697 152, 139.500 152 C 145.040 152, 146.931 151.460, 153.500 148 C 163.101 142.943, 168.452 142.644, 175.054 146.795 C 181.159 150.634, 184.839 152.017, 189.400 152.189 C 197.450 152.491, 197.434 145.150, 189.381 143.895 C 187.247 143.562, 182.350 141.608, 178.500 139.551 C 171.900 136.026, 171.071 135.833, 164 136.169 C 157.401 136.482, 155.777 136.974, 150.480 140.262 C 142.665 145.115, 136.607 145.393, 129.946 141.205 C 122.569 136.566, 119.625 135.749, 111.776 136.158 C 105.470 136.486, 103.698 137.034, 98.480 140.268 C 90.201 145.401, 84.861 145.433, 76.706 140.399 C 69.310 135.835, 59.888 134.472, 58.152 137.716" stroke="none" fill="black" fill-rule="evenodd"/>
</svg>