<svg xmlns="http://www.w3.org/2000/svg" width="100" height="100" viewBox="0 0 100 100" version="1.1">
	<path fill-opacity="0.341" d="M 16.392 4.791 C 13.089 7.670, 12.643 11.332, 15.903 8.811 C 16.835 8.090, 16.575 8.400, 15.326 9.500 C 14.076 10.600, 11.687 12.550, 10.019 13.833 C 8.299 15.155, 7.274 16.671, 7.652 17.333 C 8.020 17.975, 7.952 18.166, 7.502 17.759 C 7.052 17.351, 6.061 17.534, 5.300 18.166 C 4.253 19.035, 3.621 19.018, 2.708 18.098 C 1.761 17.145, 1.933 17.023, 3.500 17.535 C 4.894 17.991, 5.103 17.904, 4.192 17.249 C 3.189 16.529, 3.722 15.573, 6.476 13.155 C 8.453 11.420, 10.729 10, 11.535 10 C 12.341 10, 13 9.550, 13 9 C 13 7.396, 11.758 7.860, 7.568 11.031 C 0.177 16.623, -2.366 23.368, 2.459 24.579 L 4.917 25.196 3.074 30.048 L 1.230 34.900 5.623 35.200 L 10.015 35.500 6.080 41.036 C 2.072 46.676, 0.328 51.103, 1.419 52.869 C 1.782 53.457, 5.050 52.620, 9.544 50.790 C 13.679 49.106, 16.871 47.538, 16.639 47.306 C 16.406 47.073, 14.523 47.590, 12.455 48.455 C 10.386 49.319, 8.475 49.808, 8.208 49.541 C 7.433 48.766, 13.174 46.798, 17 46.528 C 22.853 46.113, 23.139 46.034, 22.507 45.011 C 22.157 44.445, 22.558 44.277, 23.448 44.618 C 24.578 45.052, 25 46.641, 25 50.459 C 25 54.332, 25.614 56.593, 27.348 59.102 C 28.640 60.971, 30.161 62.405, 30.729 62.290 C 31.297 62.174, 32.603 63.066, 33.631 64.272 C 35.209 66.124, 35.228 66.255, 33.750 65.110 C 32.697 64.295, 32 64.178, 32 64.819 C 32 65.969, 33.889 67.432, 35.500 67.530 C 36.050 67.564, 36.367 68.195, 36.204 68.932 C 36.042 69.670, 36.896 71.325, 38.102 72.609 C 40.205 74.847, 40.267 75.462, 39.599 87.472 L 38.903 100 41.364 100 C 43.354 100, 43.775 99.550, 43.565 97.645 C 43.410 96.226, 44.041 94.831, 45.153 94.136 C 46.817 93.097, 47 93.331, 47 96.492 C 47 98.944, 47.452 100, 48.500 100 C 49.668 100, 50 98.660, 50 93.941 C 50 90.609, 50.403 88.131, 50.895 88.435 C 52.199 89.241, 53.096 86.231, 52.391 83.421 C 51.768 80.940, 52.539 80.420, 54.753 81.826 C 55.990 82.612, 55.950 84.233, 54.485 92.712 C 54.084 95.028, 54.056 97.703, 54.421 98.656 C 54.981 100.113, 55.333 99.921, 56.644 97.444 C 57.501 95.825, 58.293 93.951, 58.405 93.279 C 58.517 92.607, 58.908 91.759, 59.273 91.394 C 59.638 91.028, 59.687 91.803, 59.380 93.115 C 59.074 94.427, 58.585 96.513, 58.295 97.750 C 57.821 99.770, 58.142 100, 61.427 100 C 63.775 100, 65.029 99.552, 64.925 98.750 C 64.836 98.063, 64.902 93.900, 65.073 89.500 L 65.383 81.500 66 91 L 66.617 100.500 66.812 91.500 C 66.957 84.825, 67.478 81.725, 68.827 79.500 C 69.828 77.850, 71.130 75.150, 71.721 73.500 C 72.312 71.850, 73.143 69.639, 73.568 68.586 C 74.152 67.139, 74.017 66.872, 73.015 67.490 C 72.128 68.039, 71.930 67.923, 72.415 67.138 C 72.813 66.494, 73.605 66.256, 74.176 66.609 C 74.846 67.023, 74.976 66.408, 74.542 64.875 C 74.023 63.044, 74.109 62.843, 74.919 64 C 75.497 64.825, 75.990 65.050, 76.015 64.500 C 76.040 63.950, 76.525 64.297, 77.092 65.271 C 77.659 66.245, 78.615 66.738, 79.216 66.367 C 79.838 65.982, 80.026 66.149, 79.651 66.755 C 78.801 68.131, 79.901 71, 81.278 71 C 81.864 71, 83.206 70.218, 84.262 69.263 C 86.088 67.611, 86.249 67.620, 87.590 69.454 C 88.366 70.515, 89 70.901, 89 70.313 C 89 69.725, 85.963 65.942, 82.250 61.908 C 76.747 55.928, 76.283 55.195, 79.739 57.944 C 82.070 59.799, 84.688 62.402, 85.558 63.728 C 87.029 65.974, 87.296 66.036, 89.440 64.631 C 91.609 63.210, 91.910 63.308, 94.621 66.311 L 97.500 69.500 94 66.523 L 90.500 63.546 93.718 66.972 C 95.488 68.856, 97.207 70.127, 97.537 69.796 C 97.868 69.465, 97.594 66.425, 96.928 63.040 C 96.010 58.373, 95.993 55.966, 96.859 53.077 C 98.261 48.396, 98.280 47.709, 96.984 48.510 C 96.425 48.856, 96.226 49.557, 96.543 50.069 C 96.859 50.581, 96.650 51, 96.078 51 C 95.506 51, 93.926 53.138, 92.566 55.750 C 91.206 58.362, 90.072 59.698, 90.047 58.717 C 90.021 57.736, 91.102 54.758, 92.449 52.100 L 94.899 47.267 89.699 46.642 C 86.840 46.298, 82.925 46.007, 81 45.993 C 79.075 45.980, 76.979 45.639, 76.341 45.235 C 75.704 44.831, 79.918 44.655, 85.706 44.844 C 93.788 45.109, 96.133 44.899, 95.814 43.941 C 95.517 43.050, 92.640 42.721, 85.752 42.790 C 77.491 42.872, 76.191 42.666, 76.693 41.359 C 77.168 40.121, 77.438 40.085, 78.124 41.166 C 78.656 42.006, 78.975 40.789, 78.985 37.885 C 79.003 32.353, 76.115 28, 72.427 28 C 70.768 28, 70 27.438, 70 26.223 C 70 25.245, 69.278 23.414, 68.395 22.154 C 67.148 20.373, 65.978 19.917, 63.145 20.108 C 61.140 20.243, 57.996 19.566, 56.157 18.603 C 54.318 17.640, 52.556 17.111, 52.240 17.426 C 51.925 17.742, 52.192 18, 52.833 18 C 53.475 18, 53.931 18.338, 53.846 18.750 C 53.761 19.163, 54.436 21.173, 55.346 23.218 C 57.266 27.535, 57.417 29, 55.941 29 C 55.359 29, 55.136 28.588, 55.447 28.085 C 55.758 27.582, 55.573 27.020, 55.035 26.835 C 54.498 26.651, 53.888 25.375, 53.680 24 C 53.472 22.619, 52.520 21.347, 51.555 21.158 C 50.187 20.891, 49.951 21.271, 50.471 22.908 C 50.897 24.252, 50.698 25, 49.912 25 C 49.063 25, 49.155 25.535, 50.212 26.750 C 51.049 27.712, 51.719 29.309, 51.701 30.298 C 51.671 31.886, 51.494 31.923, 50.185 30.613 C 48.603 29.031, 46.925 20.598, 47.931 19.286 C 48.262 18.854, 48.353 18.598, 48.133 18.717 C 47.912 18.837, 46.607 18.049, 45.231 16.967 C 43.856 15.885, 41.527 15, 40.056 15 C 37.050 15, 33.104 17.437, 34.252 18.585 C 34.663 18.997, 35 18.813, 35 18.176 C 35 17.486, 35.806 17.710, 37 18.732 C 38.100 19.674, 39 21.218, 39 22.163 C 39 23.109, 39.408 24.134, 39.906 24.442 C 41.242 25.268, 39.995 29, 38.383 29 C 37.623 29, 36.956 27.988, 36.901 26.750 C 36.621 20.344, 36.421 19.688, 34.666 19.426 C 32.583 19.115, 29.895 16.005, 30.409 14.500 C 30.596 13.950, 31.369 13.650, 32.125 13.833 C 32.881 14.017, 33.125 13.792, 32.667 13.333 C 32.208 12.875, 31.533 12.493, 31.167 12.485 C 30.800 12.476, 29.825 12.052, 29 11.543 C 27.678 10.726, 27.673 10.847, 28.952 12.558 C 29.994 13.953, 30.019 14.159, 29.041 13.289 C 27.374 11.808, 26.626 6.651, 28.221 7.636 C 28.877 8.042, 29.022 7.844, 28.585 7.138 C 28.187 6.494, 27.330 6.300, 26.681 6.706 C 24.751 7.912, 22.652 7.956, 21.284 6.821 C 20.578 6.235, 19.993 6.148, 19.985 6.628 C 19.976 7.107, 19.552 6.840, 19.042 6.034 C 18.454 5.104, 18.504 4.097, 19.180 3.284 C 20.862 1.257, 19.767 1.848, 16.392 4.791 M 15.063 12.199 C 12.303 13.564, 10.249 15.551, 8.936 18.126 C 7.849 20.257, 7.249 22, 7.602 22 C 7.956 22, 7.718 22.635, 7.074 23.411 C 5.674 25.098, 7.019 26.224, 8.983 25.010 C 10.140 24.295, 10.150 23.886, 9.044 22.553 C 7.934 21.216, 7.945 21.034, 9.109 21.443 C 9.920 21.727, 11.334 20.603, 12.500 18.747 C 13.600 16.996, 16.221 14.598, 18.325 13.418 C 23.519 10.505, 20.652 9.434, 15.063 12.199 M 37 17 C 37 17.550, 37.649 18, 38.443 18 C 39.237 18, 40.496 18.870, 41.241 19.934 C 43.031 22.489, 45.022 21.231, 43.906 18.250 C 43.288 16.596, 42.261 16, 40.032 16 C 38.365 16, 37 16.450, 37 17 M 1.279 21.489 C 1.413 22.582, 2.270 23.621, 3.183 23.797 C 4.439 24.039, 4.707 23.595, 4.283 21.974 C 3.907 20.538, 3.478 20.226, 2.982 21.029 C 2.425 21.930, 2.093 21.889, 1.639 20.863 C 1.291 20.077, 1.139 20.342, 1.279 21.489 M 20.200 21.200 C 18.744 22.656, 18.645 24.663, 19.989 25.493 C 20.574 25.854, 20.711 25.411, 20.326 24.407 C 19.917 23.340, 20.363 22.208, 21.529 21.355 C 22.548 20.610, 22.936 20, 22.391 20 C 21.846 20, 20.860 20.540, 20.200 21.200 M 25 20.393 C 25 20.609, 25.698 21.054, 26.552 21.382 C 27.442 21.723, 27.843 21.555, 27.493 20.989 C 26.906 20.038, 25 19.583, 25 20.393 M 60.436 24.491 C 60.075 26.416, 59.337 27.708, 58.791 27.371 C 58.223 27.020, 58.270 27.636, 58.900 28.814 C 60.205 31.252, 60.312 32.311, 59.181 31.612 C 58.730 31.333, 58.439 33.444, 58.532 36.303 C 58.626 39.161, 58.381 41.950, 57.988 42.500 C 56.987 43.900, 57.150 47, 58.226 47 C 58.716 47, 58.832 47.563, 58.483 48.250 C 58.133 48.938, 58.759 48.466, 59.874 47.201 C 60.988 45.937, 61.649 44.249, 61.343 43.451 C 61.037 42.653, 61.254 42, 61.826 42 C 62.806 42, 64.062 39.326, 64.634 36.019 C 64.776 35.204, 64.171 33.741, 63.291 32.769 C 62.410 31.796, 62.097 30.993, 62.595 30.985 C 63.093 30.976, 62.825 30.533, 62 30 C 60.822 29.239, 60.794 29.027, 61.872 29.015 C 62.988 29.003, 63.008 28.715, 61.981 27.477 C 60.910 26.186, 61.005 26.054, 62.609 26.612 C 64.356 27.219, 64.348 27.147, 62.500 25.666 C 60.514 24.074, 60.515 24.063, 62.683 24.032 C 64.005 24.013, 65.115 24.788, 65.500 26 C 65.849 27.100, 66.585 28, 67.135 28 C 67.699 28, 67.841 28.925, 67.460 30.125 C 67.006 31.555, 67.148 32.027, 67.893 31.566 C 69.306 30.693, 69.331 27.323, 67.932 26.458 C 67.344 26.095, 67.084 25.223, 67.354 24.521 C 67.894 23.112, 66.198 20.991, 64.550 21.015 C 63.972 21.024, 64.175 21.467, 65 22 C 65.901 22.582, 66.025 22.975, 65.309 22.985 C 64.654 22.993, 63.840 22.550, 63.500 22 C 62.298 20.055, 61.083 21.043, 60.436 24.491 M 24.688 22.696 C 24.406 23.152, 24.815 24.644, 25.596 26.013 L 27.016 28.500 26.367 25.500 C 25.604 21.971, 25.374 21.586, 24.688 22.696 M 23.733 29.124 C 24.412 29.808, 25.219 30.115, 25.526 29.807 C 25.834 29.499, 25.279 28.940, 24.293 28.564 C 22.868 28.022, 22.753 28.136, 23.733 29.124 M 39.750 29.689 C 38.788 29.941, 38 30.564, 38 31.073 C 38 32.383, 39.186 32.174, 41.441 30.468 C 43.384 28.998, 43.026 28.833, 39.750 29.689 M 71 29.777 C 71 30.205, 71.722 31.585, 72.603 32.844 C 74.115 35.002, 74.086 35.165, 72.103 35.683 C 70.947 35.986, 69.943 36.743, 69.874 37.367 C 69.804 37.990, 69.665 39.400, 69.565 40.500 C 69.465 41.600, 69.072 43.288, 68.691 44.250 C 67.132 48.196, 67.110 49, 68.560 49 C 69.434 49, 71.138 46.508, 72.652 43.017 C 74.272 39.281, 75.670 37.288, 76.373 37.709 C 77.202 38.205, 77.207 38.002, 76.394 36.942 C 75.786 36.149, 75.021 34.375, 74.694 33 C 74.128 30.621, 74.169 30.594, 75.550 32.441 C 76.347 33.509, 77 34.821, 77 35.358 C 77 35.894, 77.261 36.072, 77.581 35.752 C 78.275 35.058, 76.158 30.806, 74.600 29.765 C 73.144 28.793, 71 28.800, 71 29.777 M 26.980 31.524 C 26.284 32.362, 26.004 33.337, 26.357 33.691 C 26.711 34.044, 27 33.808, 27 33.167 C 27 32.525, 27.450 32, 28 32 C 28.550 32, 29 32.675, 29 33.500 C 29 34.325, 28.550 35, 28 35 C 27.450 35, 27 35.675, 27 36.500 C 27 37.325, 27.695 38, 28.544 38 C 29.455 38, 29.967 37.289, 29.794 36.265 C 29.574 34.965, 30.217 34.514, 32.359 34.467 C 33.931 34.432, 35.456 35.026, 35.748 35.786 C 36.187 36.929, 36.424 36.937, 37.124 35.834 C 38.769 33.239, 37.474 31.359, 33.490 30.556 C 30.733 30.001, 30.687 30.036, 32.895 30.998 C 34.213 31.573, 35.053 32.280, 34.763 32.570 C 33.890 33.444, 28.970 31.857, 29.566 30.893 C 30.503 29.377, 28.320 29.909, 26.980 31.524 M 46 31 C 45.175 31.533, 43.487 31.976, 42.250 31.985 C 40.704 31.995, 40 32.600, 40 33.918 C 40 34.973, 39.733 36.661, 39.406 37.668 C 38.987 38.958, 39.085 39.120, 39.736 38.216 C 41.001 36.459, 44.035 37.746, 43.278 39.719 C 42.360 42.111, 45.299 40.742, 46.589 38.177 C 47.188 36.986, 47.976 36.309, 48.339 36.673 C 48.703 37.036, 49 36.385, 49 35.226 C 49 34.066, 48.543 32.835, 47.984 32.490 C 47.425 32.144, 47.226 31.443, 47.543 30.931 C 48.267 29.758, 47.896 29.775, 46 31 M 54.615 35.615 C 54.249 38.732, 54.149 41.482, 54.392 41.726 C 54.636 41.969, 55.152 39.635, 55.538 36.538 C 55.925 33.442, 56.026 30.692, 55.762 30.428 C 55.498 30.164, 54.982 32.498, 54.615 35.615 M 5.250 31.718 C 0.497 32.607, 3.362 33.740, 12.015 34.394 C 16.973 34.768, 21.772 35.359, 22.679 35.707 C 23.686 36.093, 24.079 35.937, 23.688 35.305 C 23.337 34.736, 20.225 33.733, 16.774 33.078 C 13.323 32.422, 9.825 31.753, 9 31.592 C 8.175 31.430, 6.488 31.486, 5.250 31.718 M 21.733 39.124 C 22.412 39.808, 23.219 40.115, 23.526 39.807 C 23.834 39.499, 23.279 38.940, 22.293 38.564 C 20.868 38.022, 20.753 38.136, 21.733 39.124 M 29.684 38.650 C 29.346 38.987, 29.520 40.104, 30.070 41.131 C 30.820 42.533, 30.728 43, 29.702 43 C 27.908 43, 27.930 45.759, 29.730 46.450 C 30.498 46.745, 30.850 47.434, 30.511 47.981 C 30.154 48.560, 30.557 48.723, 31.474 48.372 C 32.612 47.935, 32.761 47.417, 32.008 46.510 C 30.270 44.416, 31.867 42.120, 34.828 42.456 C 38.459 42.868, 39.527 42.051, 37.323 40.545 C 35.015 38.967, 30.489 37.844, 29.684 38.650 M 6.471 42.626 C 5.133 44.070, 4.281 45.645, 4.578 46.126 C 4.875 46.607, 4.641 47, 4.059 47 C 3.477 47, 3 47.436, 3 47.969 C 3 49.798, 5.502 47.953, 7.784 44.440 C 9.112 42.396, 10.537 41.214, 11.189 41.617 C 11.871 42.038, 12.030 41.857, 11.595 41.155 C 10.493 39.371, 9.123 39.764, 6.471 42.626 M 50.923 40.750 C 50.639 43.540, 49.991 45.387, 49.106 45.934 C 48.489 46.316, 48.776 47.004, 49.828 47.660 C 51.384 48.632, 51.597 48.272, 51.766 44.376 C 51.871 41.969, 51.741 40, 51.478 40 C 51.215 40, 50.966 40.337, 50.923 40.750 M 40 42.059 C 40 42.641, 40.450 42.840, 41 42.500 C 41.550 42.160, 42 41.684, 42 41.441 C 42 41.198, 41.550 41, 41 41 C 40.450 41, 40 41.477, 40 42.059 M 44.269 42.693 C 45.242 42.947, 46.592 42.930, 47.269 42.656 C 47.946 42.382, 47.150 42.175, 45.500 42.195 C 43.850 42.215, 43.296 42.439, 44.269 42.693 M 32.543 43.931 C 32.226 44.443, 32.350 45.098, 32.817 45.387 C 33.284 45.676, 33.667 45.257, 33.667 44.456 C 33.667 42.770, 33.351 42.623, 32.543 43.931 M 32.500 49.773 C 29.025 50.505, 28.700 51.773, 32.089 51.378 C 33.873 51.170, 35.513 50.820, 35.733 50.600 C 36.479 49.854, 34.510 49.350, 32.500 49.773 M 76.257 51.237 C 76.125 52.996, 76.290 53.156, 77.029 51.987 C 78.185 50.159, 78.256 49, 77.213 49 C 76.780 49, 76.350 50.007, 76.257 51.237 M 3.507 50.989 C 3.157 51.555, 3.558 51.723, 4.448 51.382 C 6.180 50.717, 6.497 50, 5.059 50 C 4.541 50, 3.843 50.445, 3.507 50.989 M 42.298 51.631 C 42.645 51.979, 42.451 53.158, 41.865 54.252 C 41.151 55.586, 41.142 56.030, 41.839 55.600 C 42.410 55.247, 43.288 55.692, 43.790 56.588 C 44.629 58.088, 44.754 58.084, 45.344 56.546 C 46.191 54.338, 47.996 55.529, 48.015 58.309 C 48.028 60.090, 48.212 60.219, 49 59 C 49.758 57.827, 49.973 58.086, 49.985 60.191 C 49.993 61.671, 49.502 63.190, 48.893 63.566 C 48.121 64.043, 48.193 64.501, 49.131 65.081 C 50.788 66.105, 52.945 62.620, 52.894 59 C 52.862 56.714, 52.786 56.671, 52 58.500 C 51.274 60.189, 51.130 60.006, 51.070 57.325 C 51.002 54.249, 50.875 54.158, 46.994 54.435 C 43.965 54.651, 43.231 54.427, 43.985 53.518 C 45.030 52.259, 44.371 51, 42.667 51 C 42.117 51, 41.951 51.284, 42.298 51.631 M 80.031 51.500 C 80.031 52.050, 80.467 53.175, 81 54 C 81.533 54.825, 81.969 55.050, 81.969 54.500 C 81.969 53.950, 81.533 52.825, 81 52 C 80.467 51.175, 80.031 50.950, 80.031 51.500 M 31 53.210 C 31 53.645, 31.477 54, 32.059 54 C 32.641 54, 32.869 54.403, 32.565 54.895 C 31.418 56.750, 34.887 56.783, 36.561 54.933 C 37.523 53.870, 38.128 52.952, 37.905 52.894 C 35.884 52.365, 31 52.589, 31 53.210 M 66.500 56 C 67.495 57.100, 68.686 58, 69.145 58 C 69.605 58, 69.210 57.100, 68.268 56 C 67.326 54.900, 66.136 54, 65.623 54 C 65.110 54, 65.505 54.900, 66.500 56 M 37.600 56.600 C 37.244 57.527, 37.178 58.511, 37.453 58.786 C 37.728 59.061, 38.244 58.527, 38.600 57.600 C 38.956 56.673, 39.022 55.689, 38.747 55.414 C 38.472 55.139, 37.956 55.673, 37.600 56.600 M 93.494 57.009 C 92.750 58.213, 93.813 62, 94.894 62 C 95.312 62, 95.455 60.650, 95.213 59 C 94.739 55.767, 94.461 55.445, 93.494 57.009 M 32.333 58.595 C 32.333 60.170, 33.589 60.474, 34.435 59.105 C 34.740 58.612, 34.391 57.980, 33.661 57.700 C 32.931 57.420, 32.333 57.823, 32.333 58.595 M 46 60 C 46 61.100, 46.408 62, 46.906 62 C 47.405 62, 47.577 61.100, 47.290 60 C 47.002 58.900, 46.594 58, 46.383 58 C 46.173 58, 46 58.900, 46 60 M 54.861 58.500 C 54.511 59.050, 54.231 60.806, 54.238 62.402 C 54.248 64.743, 54.432 64.979, 55.191 63.624 C 56.216 61.792, 55.900 56.868, 54.861 58.500 M 58.583 58.866 C 58.152 59.563, 58.070 60.403, 58.400 60.733 C 59.295 61.628, 60.271 60.312, 59.787 58.862 C 59.449 57.846, 59.213 57.846, 58.583 58.866 M 67.475 60.796 C 67.764 61.548, 68 62.352, 68 62.582 C 68 63.851, 69.839 62.725, 70.234 61.214 C 70.559 59.969, 70.133 59.429, 68.826 59.429 C 67.650 59.429, 67.146 59.939, 67.475 60.796 M 62.333 65.456 C 62.333 66.257, 62.716 66.676, 63.183 66.387 C 63.650 66.098, 63.774 65.443, 63.457 64.931 C 62.649 63.623, 62.333 63.770, 62.333 65.456 M 81.515 66.024 C 81.800 66.485, 81.568 67.149, 81 67.500 C 80.432 67.851, 80.221 68.548, 80.530 69.049 C 81.101 69.973, 85 68.078, 85 66.876 C 85 66.523, 84.099 65.998, 82.999 65.710 C 81.898 65.422, 81.230 65.563, 81.515 66.024 M 63.405 68.250 L 61.500 70.500 63.750 68.595 C 65.914 66.763, 66.622 67.285, 66.094 70.324 C 66.015 70.778, 66.369 70.890, 66.881 70.573 C 67.915 69.935, 67.189 66, 66.038 66 C 65.638 66, 64.453 67.013, 63.405 68.250 M 39.813 67.683 C 40.534 67.972, 41.397 67.936, 41.729 67.604 C 42.061 67.272, 41.471 67.036, 40.417 67.079 C 39.252 67.127, 39.015 67.364, 39.813 67.683 M 42.475 69.960 C 42.829 70.532, 44.291 71, 45.726 71 C 48.860 71, 48.498 70.521, 44.666 69.601 C 42.808 69.154, 42.054 69.278, 42.475 69.960 M 56.559 70.532 C 55.491 71.339, 55.099 72, 55.686 72 C 56.274 72, 57.315 71.325, 58 70.500 C 59.557 68.624, 59.067 68.634, 56.559 70.532 M 65 75 C 63.625 76.076, 62.993 76.966, 63.595 76.978 C 64.197 76.990, 65.505 76.100, 66.500 75 C 68.780 72.480, 68.221 72.480, 65 75 M 58 74.861 C 58 75.335, 59.125 75.508, 60.500 75.245 C 61.875 74.982, 63 74.594, 63 74.383 C 63 74.173, 61.875 74, 60.500 74 C 59.125 74, 58 74.388, 58 74.861 M 44 78.393 C 44 78.609, 44.698 79.054, 45.552 79.382 C 46.442 79.723, 46.843 79.555, 46.493 78.989 C 45.906 78.038, 44 77.583, 44 78.393 M 56.980 88.524 C 56.284 89.362, 55.909 90.242, 56.145 90.479 C 56.382 90.715, 57.125 90.030, 57.796 88.955 C 59.248 86.630, 58.764 86.375, 56.980 88.524 M 47.079 89.583 C 47.127 90.748, 47.364 90.985, 47.683 90.188 C 47.972 89.466, 47.936 88.603, 47.604 88.271 C 47.272 87.939, 47.036 88.529, 47.079 89.583 M 40.158 97 C 40.158 98.375, 40.385 98.938, 40.662 98.250 C 40.940 97.563, 40.940 96.438, 40.662 95.750 C 40.385 95.063, 40.158 95.625, 40.158 97 M 45.158 98 C 45.158 99.375, 45.385 99.938, 45.662 99.250 C 45.940 98.563, 45.940 97.438, 45.662 96.750 C 45.385 96.063, 45.158 96.625, 45.158 98" stroke="none" fill="black" fill-rule="evenodd"/>
	<path fill-opacity="0.244" d="M 15.872 5.750 C 14.629 7.336, 14.664 7.371, 16.250 6.128 C 17.212 5.373, 18 4.585, 18 4.378 C 18 3.555, 17.179 4.084, 15.872 5.750 M 13.768 11.092 C 5.956 16.799, 3.660 19.797, 4.510 23.182 C 4.865 24.600, 4.287 27.499, 3.091 30.288 L 1.071 35 5.536 35 C 7.991 35, 10 35.273, 10 35.606 C 10 35.939, 8.712 37.852, 7.137 39.856 C 3.029 45.085, 0.808 49.819, 1.475 51.922 C 2.013 53.618, 2.570 53.532, 9.500 50.679 C 13.596 48.993, 16.789 47.456, 16.596 47.262 C 16.402 47.069, 13.245 48.111, 9.579 49.579 C 5.913 51.046, 2.682 52.015, 2.398 51.732 C 1.681 51.015, 4.554 44.383, 6.841 41.475 C 7.882 40.151, 9.057 39.390, 9.451 39.784 C 9.844 40.178, 10.017 39.825, 9.833 39 C 9.650 38.175, 10.046 37.607, 10.714 37.738 C 11.419 37.876, 11.687 37.348, 11.353 36.477 C 10.938 35.396, 11.239 35.155, 12.432 35.612 C 13.926 36.186, 13.937 36.412, 12.543 37.952 C 10.685 40.005, 10.515 41.409, 12.250 40.367 C 13.099 39.857, 13.060 40.158, 12.128 41.308 C 10.572 43.225, 9.513 43.597, 10.595 41.845 C 11.052 41.107, 10.868 40.963, 10.086 41.447 C 9.414 41.862, 9.100 42.817, 9.388 43.569 C 9.677 44.321, 9.413 45.245, 8.802 45.622 C 8.089 46.063, 7.952 45.805, 8.420 44.905 C 8.820 44.132, 8.440 44.374, 7.574 45.441 C 6.141 47.209, 5.512 49, 6.325 49 C 6.504 49, 9.982 47.867, 14.055 46.481 C 18.128 45.096, 22.032 44.182, 22.730 44.450 C 23.429 44.718, 24 44.501, 24 43.969 C 24 43.436, 24.675 43, 25.500 43 C 27.198 43, 27.511 41.434, 26 40.500 C 25.450 40.160, 25.012 39.346, 25.027 38.691 C 25.041 38.036, 25.820 38.737, 26.758 40.250 C 28.734 43.437, 30.468 43.898, 29.720 41.037 C 29.437 39.957, 29.835 38.552, 30.603 37.914 C 31.666 37.032, 32 37.041, 32 37.951 C 32 38.609, 32.787 38.995, 33.750 38.810 C 35.882 38.399, 36.101 35.500, 34 35.500 C 33.175 35.500, 32.213 35.105, 31.862 34.622 C 30.975 33.401, 28.818 34.896, 29.612 36.181 C 30.646 37.854, 27.829 38.972, 26.338 37.481 C 24.612 35.755, 24.644 35, 26.441 35 C 27.234 35, 28.207 34.474, 28.605 33.830 C 29.091 33.043, 28.783 32.869, 27.664 33.299 C 25.827 34.004, 25.565 33.236, 26.914 31.105 C 27.523 30.143, 28.994 29.867, 31.649 30.216 C 33.767 30.495, 36.400 30.367, 37.500 29.932 C 39.313 29.215, 39.266 29.133, 37 29.055 C 35.625 29.008, 34.950 28.639, 35.500 28.235 C 36.050 27.831, 36.468 25.587, 36.429 23.250 C 36.389 20.913, 36.637 19, 36.979 19 C 38.321 19, 39.815 21.317, 39.315 22.622 C 39.024 23.380, 39.284 24, 39.893 24 C 40.502 24, 41 25.125, 41 26.500 C 41 28.500, 41.500 29, 43.500 29 C 44.875 29, 46 28.475, 46 27.833 C 46 27.192, 46.337 27.003, 46.748 27.415 C 47.160 27.827, 46.598 28.858, 45.498 29.707 C 43.519 31.235, 43.520 31.245, 45.639 30.748 C 46.816 30.471, 48.391 30.633, 49.139 31.107 C 50.220 31.792, 50.231 31.973, 49.191 31.985 C 48.471 31.993, 48.176 32.476, 48.535 33.057 C 49.584 34.754, 48.243 38.396, 46.077 39.734 C 43.673 41.219, 40.912 40.394, 41.670 38.417 C 42.340 36.671, 40.389 36.514, 39.595 38.250 C 39.281 38.938, 39.300 37.925, 39.637 36 C 39.975 34.075, 40.757 32.169, 41.376 31.765 C 41.998 31.358, 42.054 31.031, 41.500 31.031 C 39.636 31.031, 38.331 32.489, 37.176 35.865 C 35.964 39.404, 36.363 41.150, 38.325 40.908 C 40.862 40.595, 42.088 41.049, 41.458 42.068 C 41.095 42.656, 40.145 42.886, 39.347 42.580 C 38.549 42.273, 38.142 42.421, 38.442 42.907 C 38.743 43.393, 38.339 44.040, 37.545 44.344 C 36.579 44.715, 36.287 44.416, 36.662 43.438 C 37.056 42.411, 36.746 42.160, 35.617 42.593 C 34.734 42.932, 34.241 43.581, 34.522 44.036 C 34.803 44.490, 34.606 45.125, 34.085 45.447 C 33.564 45.769, 32.813 45.506, 32.415 44.862 C 31.965 44.135, 32.124 43.959, 32.834 44.397 C 33.590 44.865, 33.761 44.541, 33.340 43.442 C 32.752 41.910, 32.627 41.915, 31.736 43.507 C 30.991 44.839, 31.392 45.808, 33.500 47.762 C 36.500 50.545, 35.614 51.931, 31.077 51.549 C 29.368 51.406, 28.607 50.698, 28.492 49.144 C 28.403 47.928, 28.816 47.124, 29.415 47.347 C 30.012 47.569, 30.387 48.256, 30.250 48.875 C 30.112 49.494, 31.012 49.990, 32.250 49.978 L 34.500 49.956 32 48 C 30.625 46.924, 29.163 46.034, 28.750 46.022 C 28.337 46.010, 28 45.339, 28 44.531 C 28 43.637, 27.414 43.288, 26.500 43.638 C 25.407 44.058, 25 45.777, 25 49.975 C 25 55.376, 25.320 56.151, 30.120 62.368 C 32.936 66.016, 35.464 69, 35.738 69 C 36.013 69, 35.036 67.425, 33.568 65.500 C 32.100 63.575, 31.319 62, 31.834 62 C 33.100 62, 36.342 67.064, 36.297 68.969 C 36.276 69.811, 37.171 71.503, 38.285 72.730 C 40.159 74.793, 40.273 75.917, 39.810 87.730 C 39.534 94.753, 39.622 98.475, 40.004 96 L 40.700 91.500 40.850 95.750 C 40.932 98.088, 41.399 100, 41.887 100 C 42.966 100, 43.771 94.997, 43.615 89.249 C 43.552 86.911, 43.781 84.999, 44.125 84.999 C 45.085 85, 46.017 90.756, 45.378 92.739 C 44.939 94.103, 45.033 94.189, 45.796 93.118 C 46.592 92.001, 46.905 92.125, 47.425 93.764 C 47.779 94.880, 48 96.177, 47.916 96.646 C 47.567 98.593, 48.069 100, 49.111 100 C 49.822 100, 50.006 98.827, 49.622 96.750 C 49.291 94.963, 49.428 92.150, 49.924 90.500 C 50.421 88.850, 50.874 87.950, 50.929 88.500 C 50.985 89.050, 51.433 88.864, 51.926 88.086 C 52.418 87.308, 52.568 85.116, 52.260 83.214 C 51.700 79.765, 51.705 79.760, 54.099 81.313 C 56.120 82.622, 56.880 82.663, 58.901 81.568 C 61.194 80.326, 61.217 80.219, 59.401 79.165 C 57.685 78.168, 57.670 78.058, 59.250 78.030 C 60.212 78.014, 61 78.436, 61 78.969 C 61 79.501, 61.675 79.678, 62.500 79.362 C 63.325 79.045, 64 79.200, 64 79.706 C 64 80.213, 62.504 81.214, 60.675 81.931 C 58.576 82.755, 56.948 84.299, 56.262 86.118 C 55.055 89.315, 55.539 89.727, 57.944 87.551 C 60.400 85.328, 62.231 86.981, 60.700 90.038 C 60.021 91.392, 59.474 94.075, 59.483 96 C 59.498 99.062, 59.813 99.500, 62 99.500 C 64.079 99.500, 64.442 99.088, 64.154 97.056 C 63.964 95.712, 64.187 91.662, 64.650 88.056 L 65.491 81.500 66.054 91 L 66.617 100.500 66.809 91.700 C 66.928 86.212, 67.560 81.817, 68.489 80.022 C 69.848 77.393, 69.826 77.103, 68.239 76.687 C 66.782 76.306, 66.824 76.210, 68.500 76.095 C 69.927 75.997, 71.373 74.101, 73.546 69.479 C 75.222 65.916, 76.289 63, 75.918 63 C 75.546 63, 74.677 64.364, 73.987 66.032 C 73.296 67.700, 72.530 68.863, 72.284 68.618 C 72.039 68.372, 72.371 67.176, 73.022 65.958 C 73.962 64.202, 73.929 63.574, 72.862 62.914 C 72.122 62.457, 71.121 62.479, 70.637 62.963 C 69.537 64.063, 66.811 63.115, 67.565 61.895 C 67.869 61.403, 67.657 61, 67.094 61 C 66.531 61, 65.537 60.004, 64.886 58.787 C 63.710 56.590, 63.720 56.587, 66.351 58.310 C 69.561 60.414, 69.787 59.466, 66.826 56.314 L 64.651 54 66.791 54 C 69.215 54, 71.452 57.379, 70.563 59.697 C 70.103 60.896, 70.525 61.133, 72.460 60.763 C 74.080 60.453, 75.536 60.935, 76.630 62.143 C 77.554 63.165, 77.929 64, 77.464 64 C 76.998 64, 77.491 64.708, 78.559 65.574 C 79.626 66.440, 79.893 66.836, 79.150 66.453 C 78.070 65.897, 78.021 66.171, 78.906 67.824 C 79.513 68.959, 80.571 70.225, 81.255 70.636 C 82.062 71.121, 82.008 70.778, 81.102 69.661 C 79.883 68.159, 79.948 67.754, 81.602 66.515 C 83.262 65.270, 83.656 65.298, 84.750 66.737 C 85.438 67.642, 86 67.895, 86 67.299 C 86 65.598, 76.918 55.933, 75.906 56.558 C 75.408 56.866, 75 56.615, 75 56 C 75 55.385, 74.438 55.206, 73.750 55.601 C 73.063 55.997, 72.818 55.968, 73.207 55.536 C 73.597 55.105, 72.922 53.874, 71.707 52.801 C 70.493 51.728, 71.679 52.284, 74.342 54.037 C 77.005 55.789, 80.770 58.615, 82.709 60.318 C 84.648 62.020, 87.186 63.558, 88.350 63.736 C 89.513 63.913, 92.048 65.507, 93.983 67.278 C 97.323 70.335, 97.306 70.289, 93.651 66.356 C 90.655 63.130, 89.757 61.318, 89.596 58.168 C 89.483 55.943, 89.726 54.331, 90.137 54.585 C 90.903 55.058, 94.568 48.205, 93.881 47.585 C 93.671 47.396, 89.737 46.956, 85.137 46.607 C 72.527 45.651, 72.554 44.419, 85.176 44.851 C 93.156 45.124, 96.067 44.918, 95.571 44.115 C 95.142 43.421, 91.288 43, 85.374 43 C 76.460 43, 75.903 42.880, 76.473 41.084 C 76.808 40.030, 76.609 38.877, 76.033 38.520 C 75.431 38.148, 74.106 39.920, 72.926 42.673 C 71.172 46.764, 68.009 51, 66.708 51 C 66.502 51, 66.333 50.325, 66.333 49.500 C 66.333 48.675, 66.694 48, 67.135 48 C 67.576 48, 67.676 47.319, 67.357 46.487 C 67.037 45.655, 67.332 44.305, 68.011 43.487 C 68.689 42.669, 68.910 42, 68.500 42 C 68.090 42, 68.202 41.437, 68.749 40.750 C 69.296 40.063, 69.616 38.712, 69.460 37.750 C 69.281 36.644, 69.819 36, 70.922 36 C 73.821 36, 74.135 34.773, 71.857 32.348 L 69.696 30.048 72.098 29.087 C 74.487 28.132, 74.488 28.126, 72.250 28.063 C 70.768 28.022, 70 27.382, 70 26.189 C 70 22.770, 66.208 19.907, 62.009 20.154 C 59.895 20.279, 57.472 19.807, 56.626 19.105 C 53.952 16.886, 53.156 18.808, 55.111 22.760 C 56.807 26.188, 56.879 27.382, 55.860 35.275 C 55.240 40.074, 54.369 44, 53.924 44 C 53.479 44, 53.292 44.922, 53.510 46.050 C 53.976 48.469, 51.582 49.728, 49.616 48.096 C 48.477 47.151, 48.513 46.407, 49.837 43.485 C 51.587 39.624, 53.524 38.710, 52.455 42.250 C 51.929 43.990, 52.050 44.240, 52.986 43.352 C 53.719 42.656, 54.253 38.912, 54.339 33.852 C 54.488 25.125, 54.163 22.987, 52.500 21.765 C 50.857 20.558, 49.504 20.904, 50.800 22.200 C 52.387 23.787, 52.349 26.295, 50.750 25.485 C 50.063 25.137, 50.333 25.530, 51.350 26.359 C 52.368 27.189, 52.927 28.309, 52.593 28.850 C 52.259 29.390, 52.456 31.068, 53.030 32.579 C 53.751 34.476, 53.753 35.647, 53.037 36.363 C 52.321 37.079, 52 36.612, 52 34.855 C 52 33.455, 51.100 31.495, 50 30.500 C 48.900 29.505, 48 27.725, 48 26.545 C 48 25.365, 47.438 23.794, 46.750 23.053 C 45.739 21.964, 45.768 21.860, 46.905 22.508 C 47.865 23.056, 48.075 22.931, 47.568 22.111 C 47.161 21.452, 47.414 20.145, 48.131 19.206 C 48.848 18.268, 49.051 17.823, 48.583 18.217 C 48.115 18.612, 46.607 18.049, 45.231 16.967 C 43.856 15.885, 42.003 15.029, 41.115 15.063 C 40.038 15.106, 40.249 15.428, 41.750 16.031 C 42.987 16.529, 44 17.652, 44 18.527 C 44 19.402, 44.445 19.843, 44.989 19.507 C 45.555 19.157, 45.723 19.558, 45.382 20.448 C 44.550 22.616, 42.275 22.383, 41 20 C 39.820 17.794, 37.027 17.373, 35.266 19.134 C 34.421 19.979, 33.318 19.407, 30.934 16.884 C 29.174 15.023, 28.084 14.123, 28.510 14.885 C 28.937 15.647, 27.846 15.207, 26.087 13.906 L 22.888 11.541 18.254 14.021 C 15.705 15.384, 13.418 17.175, 13.172 18 C 12.896 18.930, 13.824 18.549, 15.613 17 L 18.500 14.500 16.117 17.206 C 14.807 18.694, 13.259 19.819, 12.679 19.706 C 12.098 19.593, 10.736 21.904, 9.653 24.843 C 7.316 31.180, 7.338 31.204, 17.070 32.943 C 20.882 33.624, 24 34.647, 24 35.216 C 24 35.819, 22.814 36.013, 21.153 35.681 C 19.587 35.367, 14.838 34.797, 10.600 34.413 C 4.061 33.820, 2.997 33.472, 3.565 32.107 C 3.933 31.223, 5.033 27.938, 6.008 24.808 C 8.225 17.691, 11.074 13.626, 14.974 12.011 C 16.638 11.321, 18 10.376, 18 9.910 C 18 9.444, 18.629 9.304, 19.399 9.600 C 21.071 10.241, 22.145 8.852, 21.181 7.292 C 20.738 6.576, 18.104 7.926, 13.768 11.092 M 23.568 9.891 C 23.265 10.380, 24.138 11.516, 25.509 12.414 C 27.035 13.414, 28 13.614, 28 12.929 C 28 12.315, 27.062 11.567, 25.915 11.268 C 24.331 10.853, 24.151 10.520, 25.165 9.877 C 26.075 9.300, 26.121 9.026, 25.309 9.015 C 24.654 9.007, 23.870 9.401, 23.568 9.891 M 4.015 14.485 C 2.157 16.402, 0.831 18.124, 1.068 18.312 C 1.306 18.500, 3.015 16.932, 4.866 14.827 C 9.073 10.044, 8.530 9.826, 4.015 14.485 M 21.797 19.754 C 19.823 20.188, 18.684 23.013, 19.561 25.299 C 20.288 27.192, 24.931 30.402, 25.753 29.580 C 26.072 29.261, 25.782 29, 25.108 29 C 24.434 29, 24.167 28.539, 24.515 27.975 C 24.864 27.412, 24.553 27.074, 23.824 27.225 C 23.096 27.376, 22.624 26.904, 22.775 26.176 C 22.926 25.447, 22.636 25.107, 22.130 25.420 C 21.624 25.733, 20.957 25.329, 20.647 24.523 C 19.854 22.455, 22.574 20.076, 25.006 20.712 C 26.880 21.202, 26.909 21.346, 25.364 22.476 C 23.792 23.626, 23.798 23.864, 25.464 26.103 C 26.504 27.502, 27.005 27.785, 26.667 26.782 C 26.348 25.837, 26.525 24.794, 27.060 24.463 C 27.595 24.132, 27.738 23.385, 27.377 22.801 C 26.998 22.188, 27.307 21.946, 28.111 22.228 C 28.875 22.496, 29.438 23.449, 29.363 24.347 C 29.288 25.244, 29.625 25.732, 30.113 25.430 C 30.601 25.129, 31 25.434, 31 26.108 C 31 26.782, 31.286 27.047, 31.635 26.698 C 31.985 26.348, 31.559 24.976, 30.689 23.648 C 28.998 21.068, 24.593 19.139, 21.797 19.754 M 54.585 19.765 C 55.182 20.169, 56.181 21.400, 56.805 22.500 C 57.646 23.983, 57.947 24.099, 57.970 22.950 C 58.004 21.178, 56.105 18.993, 54.550 19.015 C 53.848 19.026, 53.859 19.274, 54.585 19.765 M 0 21.878 C 0 22.886, 2.892 25.483, 3.357 24.893 C 3.528 24.677, 2.842 23.712, 1.833 22.750 C 0.825 21.788, 0 21.395, 0 21.878 M 59.889 21.750 C 59.828 22.163, 59.861 23.512, 59.961 24.750 C 60.061 25.988, 59.645 27, 59.036 27 C 58.240 27, 58.229 27.560, 59 29 C 59.780 30.458, 59.760 31, 58.927 31 C 58.196 31, 58.018 31.934, 58.432 33.584 C 58.904 35.465, 58.751 35.964, 57.870 35.420 C 56.999 34.881, 56.881 35.207, 57.449 36.586 C 57.883 37.639, 58.183 38.950, 58.115 39.500 C 58.047 40.050, 57.818 41.903, 57.605 43.617 C 57.392 45.331, 57.568 47.302, 57.997 47.995 C 58.875 49.417, 60.982 48.512, 61.034 46.691 C 61.053 46.036, 61.889 43.765, 62.892 41.644 C 63.896 39.523, 64.655 36.823, 64.579 35.644 C 64.504 34.465, 64.905 33.169, 65.471 32.765 C 66.037 32.361, 65.375 32.017, 64 32 C 62.017 31.976, 61.810 31.769, 63 31 C 64.248 30.193, 64.164 30.015, 62.500 29.936 C 61.400 29.885, 61.065 29.614, 61.756 29.336 C 62.447 29.057, 62.714 28.347, 62.350 27.757 C 61.912 27.049, 62.503 26.903, 64.094 27.329 C 65.417 27.683, 66.838 27.979, 67.250 27.986 C 68.870 28.016, 67.892 30.001, 66.250 30.015 C 64.765 30.028, 64.726 30.173, 65.992 30.974 C 68.096 32.304, 69.378 30.640, 68.609 27.578 C 68.254 26.165, 67.934 24.669, 67.897 24.254 C 67.735 22.428, 65.532 21, 62.878 21 C 61.295 21, 59.950 21.337, 59.889 21.750 M 64 22.393 C 64 22.609, 64.698 23.054, 65.552 23.382 C 66.442 23.723, 66.843 23.555, 66.493 22.989 C 65.906 22.038, 64 21.583, 64 22.393 M 62.500 25 C 62.840 25.550, 63.316 26, 63.559 26 C 63.802 26, 64 25.550, 64 25 C 64 24.450, 63.523 24, 62.941 24 C 62.359 24, 62.160 24.450, 62.500 25 M 75.701 30.664 C 76.165 31.872, 75.977 32.104, 75.015 31.510 C 74.270 31.049, 73.903 31.086, 74.177 31.595 C 74.895 32.931, 77.673 39.268, 78.300 41 C 78.598 41.825, 78.878 40.790, 78.921 38.700 C 78.964 36.611, 78.313 33.573, 77.474 31.950 C 75.837 28.784, 74.649 27.922, 75.701 30.664 M 29 31.383 C 29 31.594, 30.125 31.982, 31.500 32.245 C 32.875 32.508, 34 32.335, 34 31.861 C 34 31.388, 32.875 31, 31.500 31 C 30.125 31, 29 31.173, 29 31.383 M 76.015 33.191 C 76.007 34.121, 76.450 35.160, 77 35.500 C 78.266 36.282, 78.266 34.958, 77 33 C 76.165 31.707, 76.029 31.734, 76.015 33.191 M 69.601 33.836 C 69.347 34.248, 70.007 34.650, 71.069 34.730 C 73.366 34.903, 73.568 34.432, 71.532 33.651 C 70.725 33.341, 69.856 33.424, 69.601 33.836 M 49.624 36.539 C 48.659 39.053, 48.943 39.702, 50.122 37.675 C 50.706 36.671, 50.973 35.639, 50.715 35.382 C 50.458 35.124, 49.966 35.645, 49.624 36.539 M 20.584 38.359 C 20.931 39.261, 21.916 40, 22.774 40 C 23.631 40, 24.146 39.873, 23.917 39.717 C 23.688 39.561, 22.702 38.823, 21.727 38.076 C 20.184 36.893, 20.036 36.930, 20.584 38.359 M 65.624 38.539 C 64.659 41.053, 64.943 41.702, 66.122 39.675 C 66.706 38.671, 66.973 37.639, 66.715 37.382 C 66.458 37.124, 65.966 37.645, 65.624 38.539 M 48 40.833 C 48 41.475, 46.763 42.061, 45.250 42.136 C 42.726 42.261, 42.694 42.309, 44.865 42.721 C 47.298 43.182, 49.900 41.567, 48.683 40.350 C 48.307 39.974, 48 40.192, 48 40.833 M 19 46 C 18.175 46.533, 17.950 46.969, 18.500 46.969 C 19.050 46.969, 20.175 46.533, 21 46 C 21.825 45.467, 22.050 45.031, 21.500 45.031 C 20.950 45.031, 19.825 45.467, 19 46 M 72.450 48.082 C 72.108 48.635, 72.389 49.764, 73.076 50.591 C 74.076 51.797, 74.487 51.838, 75.146 50.797 C 75.765 49.822, 75.973 49.920, 75.985 51.191 C 76.008 53.811, 77.483 54.099, 77.637 51.513 C 77.789 48.987, 73.602 46.218, 72.450 48.082 M 79.750 49.662 C 80.438 49.940, 81.563 49.940, 82.250 49.662 C 82.938 49.385, 82.375 49.158, 81 49.158 C 79.625 49.158, 79.063 49.385, 79.750 49.662 M 42 51.263 C 42 52.128, 41.699 53.622, 41.330 54.582 C 40.898 55.709, 41.045 56.090, 41.745 55.658 C 43.224 54.743, 43.936 57.099, 42.830 59.250 C 41.301 62.222, 42.921 61.179, 44.908 57.911 L 46.786 54.822 47.966 58.395 C 48.614 60.361, 48.869 62.838, 48.532 63.900 C 47.264 67.894, 50.093 67.012, 51.996 62.820 C 53.825 58.788, 54.671 59.277, 54.035 64 C 53.903 64.981, 54.163 65.154, 54.786 64.500 C 56.322 62.889, 57.073 56.005, 55.684 56.272 C 55.033 56.397, 54.169 56.950, 53.765 57.500 C 53.333 58.089, 53.018 57.883, 53 57 C 52.973 55.667, 52.862 55.667, 52 57 C 51.208 58.225, 51.028 58.108, 51.015 56.358 C 51.005 54.861, 50.172 54.010, 48.250 53.530 C 46.737 53.153, 44.712 52.134, 43.750 51.267 C 42.160 49.834, 42 49.834, 42 51.263 M 84.564 51.293 C 84.940 52.279, 85.499 52.834, 85.807 52.526 C 86.115 52.219, 85.808 51.412, 85.124 50.733 C 84.136 49.753, 84.022 49.868, 84.564 51.293 M 80.015 51.917 C 80.024 52.237, 80.411 53.101, 80.877 53.835 C 81.529 54.864, 81.837 54.731, 82.224 53.251 C 82.537 52.054, 82.214 51.333, 81.363 51.333 C 80.613 51.333, 80.007 51.596, 80.015 51.917 M 27.636 53.220 C 27.901 53.649, 29.329 54.007, 30.809 54.015 C 32.914 54.027, 33.173 54.242, 32 55 C 31 55.646, 30.917 55.974, 31.750 55.985 C 33.170 56.002, 33.007 58.128, 31.500 59.235 C 30.933 59.651, 31.247 59.976, 32.224 59.985 C 33.730 59.998, 37.072 55.333, 37.023 53.286 C 37.013 52.882, 34.789 52.527, 32.079 52.496 C 29.370 52.465, 27.371 52.791, 27.636 53.220 M 85 54.760 C 85 55.361, 84.213 56.059, 83.250 56.311 C 81.672 56.723, 81.666 56.779, 83.191 56.884 C 84.995 57.008, 86.599 55.266, 85.600 54.267 C 85.270 53.937, 85 54.159, 85 54.760 M 37.583 56.643 C 36.631 59.126, 37.681 59.465, 38.954 57.086 C 39.568 55.938, 39.653 55, 39.142 55 C 38.632 55, 37.930 55.739, 37.583 56.643 M 92.035 56.934 C 90.491 59.819, 90.765 61.480, 93.133 63.595 C 95.258 65.493, 95.263 65.490, 94.418 63 C 93.951 61.625, 93.554 59.263, 93.535 57.750 C 93.493 54.479, 93.382 54.418, 92.035 56.934 M 45.813 59.823 C 45.549 61.619, 45.712 63.322, 46.174 63.607 C 47.527 64.443, 48.149 61.577, 47.182 58.963 C 46.321 56.636, 46.276 56.664, 45.813 59.823 M 58.672 58.721 C 57.542 60.551, 57.008 67.113, 58.041 66.474 C 58.569 66.149, 59 65.271, 59 64.524 C 59 63.778, 59.474 63.009, 60.054 62.815 C 60.738 62.587, 60.795 61.621, 60.218 60.061 C 59.711 58.689, 59.048 58.114, 58.672 58.721 M 35 61 C 35 61.550, 35.702 62, 36.559 62 C 37.483 62, 37.827 62.470, 37.405 63.155 C 36.952 63.886, 37.131 64.037, 37.894 63.565 C 38.815 62.996, 38.823 62.491, 37.926 61.411 C 36.567 59.773, 35 59.553, 35 61 M 40.441 64.555 C 38.577 66.049, 38.589 66.067, 40.750 65.020 C 41.987 64.420, 43 63.720, 43 63.465 C 43 62.700, 42.481 62.921, 40.441 64.555 M 96.158 65 C 96.158 66.375, 96.385 66.938, 96.662 66.250 C 96.940 65.563, 96.940 64.438, 96.662 63.750 C 96.385 63.063, 96.158 63.625, 96.158 65 M 62 65.559 C 62 66.416, 62.457 66.835, 63.016 66.490 C 63.575 66.144, 63.774 65.443, 63.457 64.931 C 62.600 63.544, 62 63.802, 62 65.559 M 58.626 68.449 C 57.706 69.852, 56.375 71, 55.668 71 C 54.961 71, 53.509 71.682, 52.441 72.516 C 50.656 73.911, 50.741 73.935, 53.500 72.823 C 55.150 72.158, 57.243 70.996, 58.151 70.241 C 59.353 69.243, 59.993 69.180, 60.506 70.010 C 60.986 70.787, 62.004 70.409, 63.700 68.825 C 65.396 67.241, 66.079 66.987, 65.844 68.030 C 65.655 68.871, 65.950 69.629, 66.500 69.714 C 67.050 69.799, 67.345 69.111, 67.155 68.184 C 66.670 65.819, 66.419 65.705, 64.239 66.872 C 62.945 67.565, 61.975 67.575, 61.302 66.902 C 60.629 66.229, 59.745 66.740, 58.626 68.449 M 39.813 67.683 C 40.534 67.972, 41.397 67.936, 41.729 67.604 C 42.061 67.272, 41.471 67.036, 40.417 67.079 C 39.252 67.127, 39.015 67.364, 39.813 67.683 M 43.500 70.485 C 45.150 71.212, 46.920 71.547, 47.434 71.231 C 48.570 70.530, 45.263 69.136, 42.500 69.152 C 40.995 69.160, 41.243 69.490, 43.500 70.485 M 40.733 73.124 C 41.412 73.808, 42.219 74.115, 42.526 73.807 C 42.834 73.499, 42.279 72.940, 41.293 72.564 C 39.868 72.022, 39.753 72.136, 40.733 73.124 M 66.207 72.489 C 66.597 72.906, 65.922 74.077, 64.707 75.091 C 62.922 76.581, 62.814 76.940, 64.143 76.967 C 65.047 76.985, 66.063 76.278, 66.401 75.396 C 66.753 74.481, 67.657 74.038, 68.508 74.365 C 70.809 75.248, 70.273 74.212, 67.750 72.900 C 66.513 72.256, 65.818 72.071, 66.207 72.489 M 60.867 73.466 C 60.640 73.693, 59.154 74.114, 57.564 74.403 C 55.974 74.691, 54.184 75.441, 53.587 76.069 C 52.777 76.920, 53.391 77.024, 56 76.476 C 61.296 75.363, 63.466 74.406, 62.310 73.692 C 61.743 73.341, 61.094 73.240, 60.867 73.466 M 44.755 80.500 C 45.018 81.875, 45.856 83, 46.617 83 C 48.272 83, 48.330 82.486, 46.965 79.934 C 45.500 77.198, 44.188 77.534, 44.755 80.500 M 53.813 78.683 C 54.534 78.972, 55.397 78.936, 55.729 78.604 C 56.061 78.272, 55.471 78.036, 54.417 78.079 C 53.252 78.127, 53.015 78.364, 53.813 78.683 M 48.695 80.943 C 48.991 82.074, 49.591 83, 50.028 83 C 51.204 83, 50.505 79.668, 49.241 79.247 C 48.592 79.031, 48.373 79.711, 48.695 80.943 M 65 80 C 65 80.550, 65.423 81, 65.941 81 C 66.459 81, 67.160 80.550, 67.500 80 C 67.840 79.450, 67.416 79, 66.559 79 C 65.702 79, 65 79.450, 65 80 M 46.086 86 C 46.116 86.825, 46.527 88.400, 47 89.500 L 47.859 91.500 47.914 89.500 C 47.945 88.400, 47.533 86.825, 47 86 C 46.138 84.667, 46.037 84.667, 46.086 86 M 57.618 89.662 C 56.736 91.289, 56.033 91.860, 55.970 91 C 55.834 89.155, 54.160 92.740, 54.102 95 C 54.073 96.121, 54.435 96.009, 55.532 94.559 C 56.482 93.302, 57 93.097, 57 93.976 C 57 95.283, 58.449 94.527, 58.549 93.167 C 58.576 92.800, 58.955 91.454, 59.390 90.175 C 60.563 86.733, 59.390 86.393, 57.618 89.662" stroke="none" fill="black" fill-rule="evenodd"/>
	<path fill-opacity="0.347" d="M 13.592 11.284 C 6.486 16.355, 3.095 20.495, 4.718 22.118 C 5.534 22.934, 6.241 22.435, 7.375 20.242 C 8.225 18.598, 8.696 17.029, 8.422 16.755 C 7.773 16.106, 18.206 9.415, 19.307 9.775 C 19.770 9.926, 19.816 9.512, 19.410 8.855 C 18.902 8.033, 19.207 7.866, 20.388 8.319 C 21.407 8.710, 21.856 8.576, 21.493 7.989 C 20.565 6.487, 19.966 6.736, 13.592 11.284 M 27 13.500 C 28.292 14.875, 29.516 16, 29.721 16 C 30.552 16, 26.431 11.060, 25.576 11.031 C 25.067 11.014, 25.708 12.125, 27 13.500 M 20.244 12.664 C 19.553 12.943, 19.278 13.641, 19.633 14.215 C 20.002 14.812, 19.683 15.047, 18.889 14.765 C 16.984 14.086, 14.273 15.622, 12.923 18.144 C 12.125 19.635, 12.118 20.045, 12.900 19.562 C 14.414 18.626, 14.179 19.819, 11.928 24.500 C 10.870 26.700, 10.290 27.375, 10.639 26 C 10.989 24.625, 11.444 22.825, 11.652 22 C 12.159 19.985, 9.424 25.925, 8.584 28.662 C 8.029 30.472, 8.412 30.931, 10.938 31.486 C 12.597 31.851, 14.978 31.861, 16.228 31.509 C 18.082 30.987, 18.224 31.080, 17 32.019 C 15.810 32.931, 16.181 33.051, 18.800 32.599 C 20.846 32.246, 21.868 32.404, 21.491 33.015 C 21.156 33.557, 21.584 34, 22.441 34 C 23.298 34, 24 34.450, 24 35 C 24 35.550, 23.550 36, 23 36 C 21.564 36, 21.765 38.727, 23.250 39.399 C 23.938 39.710, 23.600 39.854, 22.500 39.719 C 21.400 39.583, 20.500 38.804, 20.500 37.986 C 20.500 36.030, 19.040 35.034, 16.143 35.015 C 14.574 35.005, 13.959 35.450, 14.303 36.347 C 14.587 37.087, 13.848 38.796, 12.660 40.144 C 11.472 41.492, 10.893 42.011, 11.372 41.297 C 11.852 40.584, 11.981 40, 11.658 40 C 10.957 40, 6 47.159, 6 48.171 C 6 48.560, 8.138 48.192, 10.750 47.354 C 16.312 45.569, 17.241 45.294, 18.255 45.139 C 18.670 45.075, 20.573 44.370, 22.483 43.572 C 24.540 42.712, 26.193 42.503, 26.537 43.060 C 26.857 43.577, 26.641 44, 26.059 44 C 24.542 44, 24.763 53.994, 26.346 57 C 27.071 58.375, 28.223 59.376, 28.906 59.225 C 29.590 59.074, 29.862 59.414, 29.512 59.981 C 28.692 61.307, 35.915 70.171, 37.179 69.389 C 37.704 69.065, 37.991 69.585, 37.817 70.546 C 37.643 71.507, 38.175 72.486, 39 72.722 C 40.333 73.104, 40.333 73.034, 39 72.091 C 36.716 70.476, 38.407 70.797, 41.636 72.592 C 43.941 73.874, 44.061 74.087, 42.250 73.686 C 40.389 73.273, 40 73.615, 40 75.659 C 40 77.019, 40.495 79.056, 41.100 80.186 C 41.958 81.790, 41.923 82.070, 40.940 81.463 C 39.952 80.852, 39.822 82.170, 40.334 87.593 C 40.692 91.392, 40.989 95.737, 40.993 97.250 C 41.004 101.468, 42.975 100.516, 43.065 96.250 C 43.311 84.523, 43.468 83.242, 44.603 83.678 C 45.250 83.926, 45.668 84.888, 45.533 85.815 C 45.398 86.742, 45.487 86.904, 45.731 86.175 C 46.073 85.157, 46.654 85.273, 48.233 86.675 C 50.247 88.461, 50.267 88.455, 49.181 86.381 C 48.570 85.216, 48.392 83.936, 48.785 83.536 C 49.178 83.137, 48.660 82.965, 47.634 83.155 C 45.853 83.484, 41.046 78.621, 42.105 77.561 C 42.902 76.764, 50.492 79.745, 50.625 80.907 C 50.694 81.508, 50.806 83.650, 50.875 85.667 C 50.944 87.683, 51.299 89.035, 51.664 88.669 C 52.029 88.304, 52.260 86.264, 52.176 84.135 L 52.025 80.265 56.043 80.729 C 58.353 80.996, 60.668 80.690, 61.487 80.011 C 62.271 79.360, 63.351 79.099, 63.887 79.430 C 64.423 79.762, 65.131 79.598, 65.459 79.066 C 66.558 77.288, 62.306 76.059, 56.876 76.586 C 51.510 77.106, 51.505 77.104, 54.327 75.481 C 58.227 73.238, 61.086 72.827, 62.813 74.260 C 63.998 75.244, 64.555 75.050, 65.759 73.236 C 66.576 72.006, 67.752 71.007, 68.372 71.015 C 68.992 71.024, 68.825 71.467, 68 72 C 66.780 72.789, 66.762 72.972, 67.905 72.985 C 69.038 72.997, 69 73.343, 67.706 74.773 C 65.656 77.037, 67.104 80.310, 69.208 78.170 C 69.919 77.448, 70.050 76.943, 69.500 77.047 C 67.308 77.463, 66.816 76.926, 68.039 75.453 C 69.070 74.210, 69.502 74.161, 70.227 75.203 C 70.813 76.044, 70.894 75.665, 70.458 74.125 C 70.088 72.818, 70.171 71.983, 70.643 72.269 C 71.114 72.554, 72.303 71.148, 73.284 69.144 L 75.068 65.500 73.107 67.978 C 71.856 69.561, 70.025 70.513, 68.043 70.613 C 65.311 70.750, 65.016 70.513, 65.583 68.635 C 66.220 66.523, 66.204 66.524, 64.075 68.750 C 62.891 69.987, 61.265 71.056, 60.461 71.125 C 58.565 71.287, 58.051 71.439, 54.685 72.834 C 50.391 74.613, 50.261 74.264, 54.038 71.102 C 55.942 69.508, 57.907 68.452, 58.405 68.756 C 58.902 69.060, 58.987 68.788, 58.594 68.151 C 58.111 67.370, 58.630 67.117, 60.189 67.371 C 61.460 67.579, 63.057 67.305, 63.737 66.762 C 65.174 65.617, 68.393 66.554, 67.575 67.879 C 67.271 68.371, 67.945 69.014, 69.072 69.309 C 70.546 69.694, 71.353 69.235, 71.944 67.672 C 72.395 66.478, 72.523 65.093, 72.228 64.595 C 71.933 64.098, 72.163 63.983, 72.741 64.340 C 73.981 65.106, 75.259 62.331, 74.435 60.660 C 74.120 60.022, 75.478 61.274, 77.453 63.442 C 80.708 67.016, 81.190 67.238, 82.606 65.823 C 84.022 64.407, 83.870 63.921, 80.980 60.630 C 77.965 57.196, 74.136 55.528, 75.515 58.250 C 75.863 58.938, 75.454 58.646, 74.606 57.603 C 73.138 55.797, 73.264 54, 74.859 54 C 75.267 54, 78.165 56.286, 81.299 59.079 C 84.434 61.873, 86.736 63.475, 86.415 62.640 C 86.095 61.805, 86.342 60.307, 86.964 59.311 C 87.945 57.741, 88.016 57.833, 87.500 60 C 86.984 62.167, 87.055 62.259, 88.036 60.689 C 88.658 59.693, 88.910 58.207, 88.595 57.387 C 88.226 56.426, 88.435 56.151, 89.181 56.612 C 89.962 57.095, 90.125 56.769, 89.681 55.612 C 89.290 54.593, 89.424 54.144, 90.011 54.507 C 90.990 55.112, 91.410 53.758, 91.052 51.150 C 90.950 50.407, 91.341 50.093, 91.922 50.452 C 92.585 50.862, 92.732 50.466, 92.319 49.388 C 91.872 48.224, 92.036 47.904, 92.830 48.395 C 93.474 48.793, 94 48.738, 94 48.274 C 94 47.809, 91.413 47.336, 88.250 47.221 C 81.163 46.964, 72.819 45.102, 73.538 43.939 C 73.831 43.464, 75.206 43.508, 76.601 44.038 C 77.992 44.567, 82.813 44.931, 87.315 44.847 L 95.500 44.694 86 43.701 C 76.408 42.699, 74.804 41.985, 75.650 39.091 C 75.906 38.216, 74.985 39.525, 73.603 42 C 70.826 46.973, 70.195 49.888, 72.250 48.246 C 72.962 47.677, 74.361 47.594, 75.500 48.053 C 76.600 48.497, 78.937 48.891, 80.693 48.930 C 84.641 49.017, 87.426 52.336, 85.917 55.155 C 84.497 57.808, 82.392 57.450, 77.134 53.658 C 71.233 49.403, 69.817 48.929, 67.676 50.495 C 66.069 51.670, 66.164 51.960, 68.912 54.273 C 70.549 55.650, 71.577 57.090, 71.195 57.472 C 70.813 57.854, 71.119 58.017, 71.875 57.833 C 72.631 57.650, 73.477 58.125, 73.755 58.889 C 74.106 59.855, 73.839 60.025, 72.880 59.447 C 71.722 58.750, 71.724 58.893, 72.893 60.332 C 73.658 61.276, 74.051 62.283, 73.764 62.569 C 72.866 63.467, 68.108 63.542, 68.121 62.659 C 68.138 61.514, 64.693 59.072, 63.822 59.610 C 63.436 59.848, 63.187 59.168, 63.268 58.097 C 63.384 56.548, 63.780 56.347, 65.207 57.111 C 67.240 58.199, 67.609 57.009, 65.800 55.200 C 64.867 54.267, 64.894 54, 65.922 54 C 66.947 54, 66.982 53.683, 66.074 52.589 C 65.260 51.608, 65.227 50.978, 65.968 50.520 C 66.553 50.158, 66.767 49.432, 66.442 48.907 C 65.573 47.500, 67.009 41.887, 68.070 42.543 C 68.569 42.852, 68.707 42.400, 68.377 41.539 C 68.046 40.679, 68.220 39.418, 68.762 38.737 C 69.305 38.057, 69.578 36.457, 69.370 35.181 C 69.046 33.197, 69.317 32.952, 71.246 33.479 C 73.190 34.011, 73.259 33.945, 71.750 32.998 C 69.500 31.587, 69.500 29.277, 71.750 28.689 C 73.417 28.254, 73.417 28.226, 71.750 28.116 C 70.765 28.051, 70 27.202, 70 26.174 C 70 24.012, 65.984 19.970, 63.936 20.070 C 63.062 20.113, 63.283 20.477, 64.500 21 C 65.728 21.527, 65.943 21.887, 65.059 21.930 C 64.010 21.981, 64.143 22.384, 65.548 23.411 C 66.609 24.188, 67.820 24.611, 68.239 24.352 C 69.180 23.771, 69.031 29.447, 68 33.500 C 67.407 35.832, 67.210 36.012, 67.118 34.309 C 66.961 31.392, 65.416 30.527, 65.343 33.315 C 65.311 34.517, 64.971 36.850, 64.586 38.500 L 63.886 41.500 65.408 39 C 67.124 36.180, 67.567 37.072, 65.950 40.094 C 65.372 41.173, 64.468 41.790, 63.941 41.464 C 63.414 41.138, 62.594 41.913, 62.117 43.186 C 61.582 44.617, 61.637 45.745, 62.261 46.143 C 62.830 46.505, 62.330 47.288, 61.114 47.939 C 58.605 49.282, 57.158 48.673, 57.053 46.230 C 57.012 45.279, 56.944 43.600, 56.903 42.500 C 56.861 41.400, 57.153 38.475, 57.551 36 C 57.949 33.525, 58.278 30.276, 58.282 28.781 C 58.287 27.285, 58.684 26.305, 59.166 26.603 C 59.648 26.901, 59.935 25.725, 59.802 23.990 C 59.652 22.011, 58.806 20.433, 57.531 19.754 C 55.841 18.854, 55.684 18.910, 56.595 20.086 C 58.282 22.265, 59.047 25, 57.969 25 C 57.436 25, 57 24.380, 57 23.622 C 57 22.865, 56.337 21.695, 55.527 21.022 C 54.311 20.013, 54.333 20.361, 55.654 23.008 C 57.061 25.828, 57.103 27.323, 56.006 35.358 C 55.320 40.386, 54.374 45.512, 53.904 46.750 C 52.940 49.289, 50.534 49.677, 48.481 47.624 C 47.312 46.455, 47.484 45.738, 49.621 42.874 C 51.006 41.018, 52.557 39.613, 53.069 39.750 C 53.581 39.888, 53.993 38.988, 53.985 37.750 C 53.972 35.931, 53.784 35.787, 53 37 C 52.235 38.184, 52.027 37.960, 52.015 35.941 C 52.007 34.534, 51.423 32.593, 50.717 31.628 C 49.572 30.062, 49.411 30.229, 49.213 33.187 C 49.041 35.748, 49.228 36.159, 50.039 35 C 50.872 33.807, 51.022 34.012, 50.770 36 C 50.595 37.375, 49.917 38.393, 49.262 38.262 C 48.567 38.123, 48.318 38.664, 48.663 39.563 C 49.271 41.149, 45.482 46, 43.635 46 C 43.075 46, 43.450 45.391, 44.468 44.647 C 46.211 43.373, 46.166 43.265, 43.689 42.791 C 42.041 42.476, 41.297 42.671, 41.694 43.314 C 42.066 43.916, 41.706 44.101, 40.823 43.762 C 39.996 43.445, 38.706 43.564, 37.957 44.027 C 37.208 44.489, 36.124 44.573, 35.548 44.212 C 33.881 43.169, 31.936 43.088, 32.554 44.088 C 32.864 44.590, 32.585 45, 31.933 45 C 31.282 45, 32.443 46.552, 34.513 48.448 L 38.277 51.896 36.553 55.529 C 35.605 57.527, 35.076 59.409, 35.377 59.710 C 35.679 60.012, 36.470 59.064, 37.135 57.603 C 38.352 54.932, 40.028 54.583, 40.781 56.844 C 41.005 57.514, 40.604 57.936, 39.890 57.781 C 38.402 57.458, 38.033 60.888, 39.357 62.750 C 40.794 64.773, 41.845 64.188, 41.553 61.528 C 41.403 60.168, 41.555 59.225, 41.891 59.432 C 42.226 59.639, 42.567 58.697, 42.648 57.339 C 42.730 55.981, 42.564 55.103, 42.279 55.387 C 41.741 55.926, 39 53.572, 39 52.571 C 39 52.257, 39.675 52, 40.500 52 C 41.325 52, 42 51.498, 42 50.885 C 42 50.169, 42.805 50.295, 44.250 51.236 C 45.487 52.042, 47.338 52.577, 48.362 52.423 C 49.532 52.248, 50.421 52.893, 50.751 54.157 C 51.103 55.502, 51.520 55.777, 52.008 54.987 C 52.551 54.109, 53.091 54.182, 54.107 55.269 C 55.305 56.552, 55.624 56.534, 56.688 55.117 C 57.720 53.741, 57.815 53.872, 57.325 56 C 56.776 58.388, 56.817 58.413, 58.243 56.570 C 59.704 54.681, 59.763 54.689, 60.968 56.940 C 61.949 58.773, 61.946 59.084, 60.954 58.472 C 60.025 57.897, 59.878 58.379, 60.377 60.368 C 60.857 62.280, 60.511 63.609, 59.150 65.069 C 57.488 66.853, 57.178 66.906, 56.638 65.500 C 56.280 64.567, 56.437 64.152, 57.014 64.509 C 57.576 64.856, 57.871 64.239, 57.695 63.087 C 57.269 60.293, 56 59.212, 56 61.642 C 56 62.729, 55.339 64.491, 54.532 65.559 C 53.088 67.467, 53.063 67.467, 53.032 65.576 C 53.002 63.780, 52.835 63.806, 50.531 65.971 C 49.173 67.247, 48.262 68.615, 48.507 69.012 C 48.752 69.408, 48.063 70.538, 46.976 71.521 C 45.889 72.505, 45 72.843, 45 72.272 C 45 71.701, 44.007 70.974, 42.794 70.656 C 40.199 69.978, 41.037 68.737, 44.250 68.500 C 45.488 68.409, 46.516 67.922, 46.535 67.417 C 46.555 66.913, 47.154 65.449, 47.866 64.164 C 48.579 62.880, 48.901 61.567, 48.581 61.248 C 48.261 60.928, 48 61.218, 48 61.892 C 48 62.566, 47.480 62.797, 46.845 62.405 C 46.200 62.005, 45.960 62.126, 46.302 62.679 C 46.637 63.222, 46.281 63.667, 45.510 63.667 C 44.479 63.667, 44.359 63.199, 45.054 61.899 C 45.574 60.927, 45.964 59.314, 45.921 58.316 C 45.868 57.091, 45.515 57.396, 44.838 59.250 C 44.285 60.763, 43.394 62, 42.858 62 C 42.321 62, 42.129 62.399, 42.430 62.887 C 42.731 63.374, 42.308 64.329, 41.489 65.009 C 40.307 65.990, 39.693 65.990, 38.511 65.009 C 37.692 64.329, 37.269 63.374, 37.570 62.887 C 37.871 62.399, 37.453 62, 36.641 62 C 35.828 62, 34.339 61.709, 33.332 61.353 C 31.833 60.823, 31.727 60.951, 32.750 62.053 C 33.438 62.794, 33.985 63.872, 33.967 64.450 C 33.948 65.027, 33.051 64.441, 31.972 63.146 C 30.893 61.851, 30.269 60.374, 30.585 59.863 C 30.900 59.352, 30.253 57.400, 29.147 55.524 C 27.488 52.712, 27.415 52.222, 28.732 52.727 C 29.746 53.116, 30.080 52.938, 29.647 52.238 C 29.273 51.633, 29.894 50.487, 31.028 49.693 C 32.806 48.447, 32.870 48.164, 31.493 47.636 C 30.615 47.299, 30.152 47.437, 30.464 47.942 C 30.777 48.448, 30.622 49.115, 30.121 49.425 C 29.082 50.067, 27.574 47.170, 27.905 45.170 C 28.026 44.438, 27.422 42.766, 26.562 41.455 C 24.759 38.703, 24.565 35.682, 26.017 32.969 C 26.866 31.382, 26.541 30.814, 24.046 29.524 C 18.957 26.892, 17.420 21.916, 21.091 19.951 C 25.223 17.740, 32 22.567, 32 27.723 C 32 29.259, 32.593 30, 33.821 30 C 35.338 30, 35.661 29.121, 35.753 24.750 C 35.837 20.720, 35.670 20.081, 35.031 22 C 34.265 24.304, 34.192 24.330, 34.100 22.335 C 34.038 20.997, 32.040 18.610, 28.869 16.085 C 23.832 12.074, 22.761 11.649, 20.244 12.664 M 15.443 16.418 C 14.376 17.198, 13.768 18.101, 14.091 18.424 C 14.414 18.748, 15.496 18.110, 16.494 17.006 C 18.619 14.659, 18.183 14.415, 15.443 16.418 M 43.295 17.250 C 45.252 19.079, 45.565 20.061, 44.970 22.500 C 44.566 24.150, 44.183 24.712, 44.118 23.750 C 44.053 22.788, 43.325 22, 42.500 22 C 41.675 22, 41 21.325, 41 20.500 C 41 19.675, 40.600 19, 40.111 19 C 38.560 19, 39.426 22.445, 41.334 23.866 C 42.652 24.847, 42.863 25.537, 42.084 26.316 C 40.333 28.067, 40.825 29, 43.500 29 C 45.176 29, 46.033 28.423, 46.100 27.250 C 46.167 26.072, 46.468 26.317, 47.023 28 C 47.631 29.848, 47.801 29.065, 47.673 25 C 47.538 20.722, 46.989 19, 45.198 17.250 C 43.933 16.012, 42.445 15, 41.893 15 C 41.340 15, 41.972 16.012, 43.295 17.250 M 5.954 19.086 C 5.340 20.233, 5.026 21.360, 5.257 21.590 C 5.487 21.820, 6.189 20.882, 6.816 19.504 C 8.194 16.480, 7.523 16.154, 5.954 19.086 M 30 18.378 C 30 18.585, 30.788 19.373, 31.750 20.128 C 33.336 21.371, 33.371 21.336, 32.128 19.750 C 30.821 18.084, 30 17.555, 30 18.378 M 21 23.282 C 21 26.298, 23.677 28.785, 27.816 29.613 C 30.564 30.163, 31 29.970, 31 28.207 C 31 24.909, 29.942 23.085, 28.376 23.686 C 27.479 24.030, 27.030 23.717, 27.209 22.873 C 27.399 21.976, 26.373 21.391, 24.250 21.187 C 21.396 20.911, 21 21.167, 21 23.282 M 24.213 24.798 C 24.269 26.745, 24.842 27.638, 26.097 27.732 C 27.585 27.844, 27.746 27.461, 27.014 25.537 C 26.527 24.255, 26.399 22.934, 26.731 22.603 C 27.062 22.271, 26.613 22, 25.734 22 C 24.629 22, 24.158 22.867, 24.213 24.798 M 33.158 27 C 33.158 28.375, 33.385 28.938, 33.662 28.250 C 33.940 27.563, 33.940 26.438, 33.662 25.750 C 33.385 25.063, 33.158 25.625, 33.158 27 M 13.564 27.293 C 13.940 28.279, 14.499 28.834, 14.807 28.526 C 15.115 28.219, 14.808 27.412, 14.124 26.733 C 13.136 25.753, 13.022 25.868, 13.564 27.293 M 62.333 28.286 C 62.333 29.035, 63.652 29.700, 65.400 29.834 C 68.687 30.084, 68.078 28.700, 64.417 27.598 C 63.044 27.185, 62.333 27.420, 62.333 28.286 M 2.564 31.707 C 2.022 33.132, 2.136 33.247, 3.124 32.267 C 3.808 31.588, 4.115 30.781, 3.807 30.474 C 3.499 30.166, 2.940 30.721, 2.564 31.707 M 11.813 30.683 C 12.534 30.972, 13.397 30.936, 13.729 30.604 C 14.061 30.272, 13.471 30.036, 12.417 30.079 C 11.252 30.127, 11.015 30.364, 11.813 30.683 M 2.750 34.706 C 3.988 34.944, 6.012 34.944, 7.250 34.706 C 8.488 34.467, 7.475 34.272, 5 34.272 C 2.525 34.272, 1.512 34.467, 2.750 34.706 M 30.271 36.050 C 30.181 37.247, 30.379 37.954, 30.712 37.622 C 31.044 37.289, 31.931 37.528, 32.682 38.151 C 33.434 38.775, 34.338 38.995, 34.693 38.640 C 35.048 38.286, 36.049 38.637, 36.919 39.421 C 38.291 40.659, 38.765 40.641, 40.500 39.289 C 42.110 38.035, 42.159 37.849, 40.750 38.334 C 39.714 38.691, 38.994 38.440, 38.985 37.719 C 38.974 36.864, 38.712 36.905, 38.110 37.857 C 37.510 38.803, 37.043 38.878, 36.566 38.107 C 36.190 37.498, 35.171 37, 34.301 37 C 33.432 37, 32.206 36.297, 31.578 35.437 C 30.587 34.083, 30.413 34.165, 30.271 36.050 M 78.252 37.500 C 78.263 39.700, 78.468 40.482, 78.707 39.238 C 78.946 37.994, 78.937 36.194, 78.687 35.238 C 78.437 34.282, 78.241 35.300, 78.252 37.500 M 7.872 38.750 C 6.629 40.336, 6.664 40.371, 8.250 39.128 C 9.916 37.821, 10.445 37, 9.622 37 C 9.415 37, 8.627 37.788, 7.872 38.750 M 26 38.831 C 26 39.826, 28.174 42, 29.169 42 C 29.591 42, 29.692 41.360, 29.391 40.577 C 28.796 39.026, 26 37.586, 26 38.831 M 45 41 C 42.673 41.745, 42.651 41.808, 44.691 41.900 C 45.896 41.955, 47.160 41.550, 47.500 41 C 47.840 40.450, 47.979 40.045, 47.809 40.100 C 47.639 40.155, 46.375 40.560, 45 41 M 5.278 42.250 C 3.779 44.188, 2.836 46, 3.326 46 C 3.570 46, 4.507 44.875, 5.408 43.500 C 7.094 40.927, 7 40.024, 5.278 42.250 M 8.459 45.067 C 8.096 45.653, 8.014 46.348, 8.276 46.610 C 8.538 46.872, 9.019 46.392, 9.345 45.543 C 10.021 43.781, 9.445 43.471, 8.459 45.067 M 33.597 44.844 C 33.251 45.404, 33.455 46.163, 34.050 46.531 C 35.588 47.481, 36.580 46.180, 35.296 44.896 C 34.578 44.178, 34.019 44.161, 33.597 44.844 M 27 48.941 C 27 49.459, 27.445 50.157, 27.989 50.493 C 28.555 50.843, 28.723 50.442, 28.382 49.552 C 27.717 47.820, 27 47.503, 27 48.941 M 9 50 C 8.175 50.533, 7.950 50.969, 8.500 50.969 C 9.050 50.969, 10.175 50.533, 11 50 C 11.825 49.467, 12.050 49.031, 11.500 49.031 C 10.950 49.031, 9.825 49.467, 9 50 M 1.015 50.781 C 0.993 52.647, 3.594 53.345, 5.689 52.036 C 7.267 51.050, 7.194 50.989, 5.125 51.559 C 3.605 51.978, 2.441 51.726, 1.890 50.857 C 1.230 49.814, 1.027 49.796, 1.015 50.781 M 78.058 51.430 C 77.111 52.571, 77.268 53.073, 78.837 53.913 C 80.559 54.834, 80.744 54.687, 80.328 52.733 C 79.868 50.577, 79.905 50.565, 81.394 52.397 C 82.242 53.441, 82.699 54.678, 82.409 55.147 C 82.119 55.616, 82.584 56, 83.441 56 C 84.479 56, 84.995 55.081, 84.985 53.250 C 84.973 51.107, 84.755 50.831, 84 52 C 83.128 53.349, 82.570 52.725, 82.882 50.750 C 83.092 49.418, 79.282 49.955, 78.058 51.430 M 69.756 51.664 C 70.447 51.943, 70.816 52.489, 70.576 52.878 C 70.335 53.267, 71.120 53.652, 72.319 53.734 C 74.447 53.880, 74.452 53.849, 72.559 52.442 C 71.491 51.649, 70.141 51.036, 69.559 51.079 C 68.976 51.122, 69.065 51.386, 69.756 51.664 M 91 59.800 C 91 61.669, 92.790 64, 94.226 64 C 94.680 64, 94.353 62.650, 93.500 61 C 91.726 57.569, 91 57.221, 91 59.800 M 77.500 61 C 77.840 61.550, 78.316 62, 78.559 62 C 78.802 62, 79 61.550, 79 61 C 79 60.450, 78.523 60, 77.941 60 C 77.359 60, 77.160 60.450, 77.500 61 M 62 65.559 C 62 66.416, 62.450 66.840, 63 66.500 C 63.550 66.160, 64 65.459, 64 64.941 C 64 64.423, 63.550 64, 63 64 C 62.450 64, 62 64.702, 62 65.559 M 34 65.755 C 34 66.305, 34.675 67.315, 35.500 68 C 36.337 68.694, 37 68.803, 37 68.245 C 37 67.695, 36.325 66.685, 35.500 66 C 34.663 65.306, 34 65.197, 34 65.755 M 40 67 C 38.781 67.788, 38.910 67.972, 40.691 67.985 C 41.896 67.993, 43.160 67.550, 43.500 67 C 44.287 65.727, 41.970 65.727, 40 67 M 54.490 68.016 C 54.144 68.575, 53.494 68.805, 53.044 68.527 C 52.595 68.249, 51.635 68.805, 50.912 69.761 C 49.822 71.202, 49.823 71.299, 50.920 70.328 C 51.648 69.684, 52.792 69.367, 53.462 69.624 C 54.132 69.881, 55.257 69.396, 55.962 68.546 C 56.754 67.591, 56.838 67, 56.181 67 C 55.597 67, 54.835 67.457, 54.490 68.016 M 46.269 74.693 C 47.242 74.947, 48.592 74.930, 49.269 74.656 C 49.946 74.382, 49.150 74.175, 47.500 74.195 C 45.850 74.215, 45.296 74.439, 46.269 74.693 M 54.500 79 C 57.289 80.198, 61 80.198, 61 79 C 61 78.450, 59.087 78.032, 56.750 78.070 C 53.458 78.125, 52.951 78.334, 54.500 79 M 64.733 80.718 C 63.211 80.948, 62.225 81.555, 62.542 82.068 C 62.859 82.581, 62.240 83, 61.166 83 C 60.092 83, 58.951 83.685, 58.629 84.523 C 58.157 85.753, 58.414 85.849, 59.962 85.020 C 62.312 83.763, 63.726 85.420, 62.038 87.455 C 61.252 88.402, 61.227 89.023, 61.959 89.474 C 63.014 90.127, 63.849 88.765, 64.501 85.328 C 64.691 84.323, 64.949 83.050, 65.074 82.500 C 65.198 81.950, 65.590 83.525, 65.943 86 L 66.585 90.500 67.043 85.249 C 67.294 82.362, 67.500 80.066, 67.500 80.149 C 67.500 80.232, 66.255 80.488, 64.733 80.718 M 58.081 88.849 C 57.486 89.960, 57.032 91.911, 57.070 93.184 C 57.124 94.940, 57.487 94.554, 58.574 91.587 C 60.133 87.333, 59.820 85.598, 58.081 88.849 M 61.012 92.977 C 60.163 94.564, 60.240 94.845, 61.400 94.400 C 63.082 93.755, 64.381 91, 63.004 91 C 62.490 91, 61.594 91.890, 61.012 92.977 M 66.272 96 C 66.272 98.475, 66.467 99.487, 66.706 98.250 C 66.944 97.013, 66.944 94.987, 66.706 93.750 C 66.467 92.513, 66.272 93.525, 66.272 96 M 39.232 97 C 39.232 98.925, 39.438 99.713, 39.689 98.750 C 39.941 97.787, 39.941 96.213, 39.689 95.250 C 39.438 94.287, 39.232 95.075, 39.232 97 M 61.926 95.250 C 61.094 98.047, 61.297 99.667, 62.478 99.667 C 63.500 99.667, 63.639 99.194, 62.981 97.965 C 62.480 97.029, 62.355 95.979, 62.702 95.631 C 63.049 95.284, 63.033 95, 62.667 95 C 62.300 95, 61.967 95.112, 61.926 95.250" stroke="none" fill="black" fill-rule="evenodd"/>
	<path fill-opacity="0.976" d="M 16.500 9.646 C 14.850 11.061, 14.175 11.877, 15 11.458 C 15.825 11.039, 17.259 10.045, 18.187 9.250 C 19.115 8.455, 20.422 8.143, 21.091 8.557 C 21.868 9.037, 22.051 8.891, 21.595 8.155 C 20.589 6.526, 19.901 6.728, 16.500 9.646 M 8.042 15.845 C 5.819 17.960, 4 20.183, 4 20.786 C 4 22.941, 5.920 23.017, 7.050 20.907 C 7.846 19.418, 7.862 18.967, 7.100 19.438 C 4.388 21.114, 6.371 17.891, 9.750 15.131 C 11.813 13.446, 13.181 12.052, 12.792 12.034 C 12.403 12.015, 10.265 13.730, 8.042 15.845 M 23.694 13.639 C 23.372 13.961, 21.622 14.341, 19.805 14.484 C 17.987 14.627, 16.493 15.139, 16.485 15.622 C 16.457 17.214, 14.878 19.043, 14 18.500 C 13.526 18.207, 12.813 18.494, 12.415 19.138 C 11.963 19.869, 12.124 20.041, 12.845 19.595 C 14.336 18.674, 14.303 19.030, 12.500 23.346 C 10.222 28.797, 10.538 29.671, 15.047 30.392 C 17.273 30.747, 18.892 31.367, 18.644 31.769 C 18.397 32.171, 19.838 32.500, 21.847 32.500 C 26.310 32.500, 26.536 31.160, 22.527 28.468 C 16.297 24.285, 19.313 17.230, 26.125 20.052 C 27.743 20.722, 29.901 22.330, 30.920 23.625 L 32.772 25.980 33.372 23.740 C 34.257 20.441, 34.101 19.296, 33 21 C 32.138 22.333, 32.016 22.333, 31.897 21 C 31.823 20.175, 31.816 19.163, 31.882 18.750 C 31.947 18.338, 31.437 18.113, 30.750 18.250 C 30.063 18.388, 29.494 17.744, 29.487 16.821 C 29.480 15.897, 29.131 14.798, 28.711 14.378 C 27.710 13.377, 24.438 12.895, 23.694 13.639 M 25.105 15.085 C 23.787 15.612, 22.961 16.295, 23.269 16.603 C 23.577 16.910, 24.708 16.691, 25.783 16.116 C 26.858 15.541, 28.093 15.392, 28.529 15.785 C 28.964 16.178, 28.997 15.938, 28.601 15.250 C 28.206 14.563, 27.796 14.029, 27.691 14.063 C 27.586 14.098, 26.422 14.558, 25.105 15.085 M 43.419 17.115 C 45.413 18.683, 46.005 19.912, 45.709 21.865 C 45.490 23.314, 45.499 23.932, 45.731 23.238 C 45.962 22.544, 46.516 22.201, 46.963 22.477 C 47.409 22.753, 47.712 22.196, 47.637 21.239 C 47.496 19.454, 43.200 15.003, 41.615 15.001 C 41.128 15.001, 41.940 15.952, 43.419 17.115 M 57.567 21.461 C 59.484 24.388, 59.667 24.490, 59.667 22.636 C 59.667 21.887, 58.820 20.744, 57.785 20.098 C 55.979 18.970, 55.970 19.025, 57.567 21.461 M 64.981 20.660 C 65.548 20.941, 65.790 21.531, 65.517 21.972 C 65.245 22.413, 65.652 23.296, 66.422 23.935 C 67.405 24.751, 68.019 24.778, 68.485 24.024 C 68.850 23.433, 68.573 23.074, 67.870 23.225 C 67.166 23.376, 66.570 22.863, 66.545 22.083 C 66.520 21.304, 65.926 20.550, 65.225 20.408 C 64.524 20.266, 64.414 20.380, 64.981 20.660 M 21.713 21.621 C 20.306 23.028, 21.037 25.577, 22.888 25.717 C 24.288 25.822, 24.645 25.360, 24.271 23.929 C 23.944 22.679, 24.277 22, 25.217 22 C 26.642 22, 26.812 22.497, 27.104 27.500 C 27.307 30.975, 31 31.031, 31 27.559 C 31 26.216, 30.480 24.797, 29.845 24.405 C 29.062 23.920, 28.963 24.142, 29.537 25.095 C 30.253 26.283, 30.128 26.292, 28.724 25.154 C 27.811 24.414, 27.162 23.289, 27.282 22.654 C 27.525 21.370, 22.834 20.500, 21.713 21.621 M 42 23 C 42 23.550, 42.450 24, 43 24 C 43.550 24, 44 23.550, 44 23 C 44 22.450, 43.550 22, 43 22 C 42.450 22, 42 22.450, 42 23 M 34.667 23.667 C 34.300 24.033, 34 25.683, 34 27.333 C 34 31.115, 35.149 30.128, 35.496 26.048 C 35.772 22.804, 35.709 22.624, 34.667 23.667 M 56.437 29.850 C 56.351 38.888, 54.315 47.761, 52.048 48.974 C 50.013 50.064, 46.500 47.590, 46.500 45.067 C 46.500 43.518, 39.260 42.770, 38.360 44.226 C 37.482 45.648, 41.074 46.287, 43.564 45.153 C 44.904 44.542, 46 44.281, 46 44.572 C 46 45.273, 39.421 48.004, 37.782 47.985 C 36.779 47.973, 36.790 47.785, 37.834 47.124 C 38.901 46.447, 38.841 46.153, 37.532 45.651 C 36.576 45.284, 36.150 45.434, 36.507 46.011 C 37.306 47.305, 35.432 47.272, 32.684 45.945 C 30.574 44.926, 30.566 44.943, 32.441 46.445 C 33.509 47.300, 34.746 48, 35.191 48 C 35.636 48, 36 48.723, 36 49.607 C 36 50.566, 36.559 50.999, 37.387 50.682 C 39.072 50.035, 38.433 53.319, 36.200 56.781 C 35.391 58.036, 34.939 59.273, 35.196 59.530 C 35.453 59.787, 36.265 58.873, 37.001 57.498 C 37.736 56.124, 38.738 55, 39.228 55 C 39.718 55, 39.866 54.592, 39.557 54.092 C 39.249 53.593, 39.334 52.276, 39.748 51.166 C 40.490 49.174, 40.555 49.172, 44.481 50.989 C 46.671 52.003, 48.811 52.617, 49.238 52.353 C 49.665 52.089, 50.299 52.614, 50.646 53.520 C 51.151 54.837, 51.448 54.900, 52.124 53.834 C 52.808 52.754, 52.972 52.749, 52.985 53.809 C 52.993 54.529, 53.450 54.840, 54 54.500 C 54.550 54.160, 55 54.385, 55 55 C 55 55.615, 55.457 55.835, 56.016 55.490 C 56.575 55.144, 56.731 54.373, 56.362 53.776 C 55.948 53.107, 56.160 52.981, 56.914 53.447 C 57.586 53.862, 57.907 54.801, 57.626 55.533 C 57.277 56.441, 57.774 56.736, 59.193 56.463 C 60.336 56.243, 61.494 55.839, 61.767 55.567 C 62.040 55.294, 63.138 55.539, 64.207 56.111 C 65.958 57.048, 66.041 56.945, 65.041 55.076 C 64.265 53.626, 64.253 53, 65 53 C 65.713 53, 65.755 52.411, 65.126 51.236 C 64.482 50.033, 64.662 48.364, 65.692 45.986 C 67.864 40.971, 68.968 36.996, 68.180 37.024 C 67.806 37.037, 66.518 39.282, 65.318 42.014 C 62.887 47.548, 58.610 50.576, 56.944 47.943 C 55.691 45.963, 55.771 44.740, 57.100 45.562 C 57.881 46.045, 57.907 45.696, 57.191 44.357 C 56.558 43.173, 56.504 40.803, 57.048 37.986 C 58.120 32.425, 58.210 25.877, 57.235 24.350 C 56.831 23.718, 56.472 26.193, 56.437 29.850 M 69.070 28.750 C 69.124 31.606, 69.325 32.027, 69.915 30.516 C 70.630 28.687, 70.274 25, 69.383 25 C 69.173 25, 69.032 26.688, 69.070 28.750 M 13 27.500 C 13 28.325, 13.402 29, 13.893 29 C 14.384 29, 15.045 28.325, 15.362 27.500 C 15.712 26.586, 15.363 26, 14.469 26 C 13.661 26, 13 26.675, 13 27.500 M 41.500 27 C 41.160 27.550, 41.332 28, 41.882 28 C 42.432 28, 43.160 27.550, 43.500 27 C 43.840 26.450, 43.668 26, 43.118 26 C 42.568 26, 41.840 26.450, 41.500 27 M 45.079 27.583 C 45.127 28.748, 45.364 28.985, 45.683 28.188 C 45.972 27.466, 45.936 26.603, 45.604 26.271 C 45.272 25.939, 45.036 26.529, 45.079 27.583 M 8.607 28.582 C 7.814 30.647, 7.841 31, 8.787 31 C 9.220 31, 9.642 30.100, 9.725 29 C 9.906 26.596, 9.436 26.420, 8.607 28.582 M 23.733 28.124 C 24.412 28.808, 25.219 29.115, 25.526 28.807 C 25.834 28.499, 25.279 27.940, 24.293 27.564 C 22.868 27.022, 22.753 27.136, 23.733 28.124 M 62.500 28 C 62.840 28.550, 63.879 28.993, 64.809 28.985 C 66.266 28.971, 66.293 28.835, 65 28 C 63.042 26.734, 61.718 26.734, 62.500 28 M 12.813 31.683 C 13.534 31.972, 14.397 31.936, 14.729 31.604 C 15.061 31.272, 14.471 31.036, 13.417 31.079 C 12.252 31.127, 12.015 31.364, 12.813 31.683 M 66.079 34.583 C 66.127 35.748, 66.364 35.985, 66.683 35.188 C 66.972 34.466, 66.936 33.603, 66.604 33.271 C 66.272 32.939, 66.036 33.529, 66.079 34.583 M 68.079 34.583 C 68.127 35.748, 68.364 35.985, 68.683 35.188 C 68.972 34.466, 68.936 33.603, 68.604 33.271 C 68.272 32.939, 68.036 33.529, 68.079 34.583 M 23.250 35.559 C 21.475 37.485, 21.703 39.013, 23.750 38.921 C 24.863 38.871, 25.030 38.653, 24.208 38.324 C 23.205 37.921, 23.181 37.486, 24.101 36.379 C 25.643 34.521, 24.882 33.787, 23.250 35.559 M 15.614 36.563 C 15.284 37.423, 14.550 37.840, 13.982 37.489 C 13.415 37.138, 13.015 37.222, 13.094 37.676 C 13.430 39.614, 12.935 41.078, 12.113 40.570 C 11.626 40.269, 10.613 40.778, 9.863 41.703 C 8.709 43.126, 8.712 43.256, 9.880 42.553 C 10.839 41.975, 11.106 42.145, 10.755 43.111 C 10.477 43.875, 9.710 44.376, 9.051 44.225 C 8.391 44.074, 8.136 44.412, 8.485 44.975 C 8.833 45.539, 9.793 46, 10.618 46 C 11.443 46, 11.862 45.586, 11.550 45.081 C 10.914 44.051, 13.941 40.608, 14.762 41.428 C 15.049 41.716, 14.662 42.702, 13.900 43.620 C 12.676 45.096, 12.746 45.223, 14.508 44.724 C 21.472 42.749, 25.905 41.816, 28.193 41.846 C 30.141 41.870, 29.598 39.444, 27.474 38.628 C 26.642 38.309, 26.296 38.607, 26.594 39.384 C 26.950 40.312, 26.223 40.540, 23.964 40.208 C 22.246 39.956, 20.572 39.019, 20.244 38.125 C 19.096 35.004, 16.543 34.143, 15.614 36.563 M 78.195 37.500 C 78.215 39.150, 78.439 39.704, 78.693 38.731 C 78.947 37.758, 78.930 36.408, 78.656 35.731 C 78.382 35.054, 78.175 35.850, 78.195 37.500 M 51.079 37.583 C 51.127 38.748, 51.364 38.985, 51.683 38.188 C 51.972 37.466, 51.936 36.603, 51.604 36.271 C 51.272 35.939, 51.036 36.529, 51.079 37.583 M 45.500 41 C 43.870 41.701, 43.812 41.872, 45.191 41.930 C 46.121 41.968, 47.160 41.550, 47.500 41 C 48.211 39.850, 48.176 39.850, 45.500 41 M 73.088 42.705 C 72.027 45.035, 72.099 45.599, 73.600 46.697 C 74.561 47.399, 76.957 48.229, 78.924 48.541 C 85.833 49.636, 88.546 52.634, 85.587 55.904 C 83.850 57.823, 83.598 57.843, 80.629 56.302 C 78.900 55.404, 78.059 54.489, 78.750 54.255 C 79.438 54.023, 80 53.233, 80 52.500 C 80 51.767, 80.563 50.940, 81.250 50.662 C 81.963 50.375, 81.708 50.124, 80.656 50.079 C 79.618 50.034, 78.587 50.864, 78.296 51.977 C 77.796 53.889, 77.633 53.869, 73.389 51.382 C 67.787 48.099, 67.699 48.853, 73.250 52.586 C 75.588 54.158, 78.776 56.472, 80.335 57.729 C 81.894 58.985, 83.581 59.759, 84.085 59.448 C 84.588 59.137, 85.036 59.696, 85.079 60.691 C 85.125 61.751, 85.368 61.980, 85.664 61.244 C 85.943 60.553, 86.540 60.216, 86.992 60.495 C 87.444 60.774, 87.609 60.215, 87.359 59.251 C 87.109 58.288, 87.602 56.600, 88.455 55.500 L 90.005 53.500 89.408 55.500 C 88.953 57.025, 89.049 57.165, 89.813 56.091 C 90.364 55.316, 90.555 54.004, 90.238 53.177 C 89.864 52.204, 90.070 51.925, 90.819 52.388 C 91.599 52.870, 91.762 52.544, 91.319 51.388 C 90.875 50.231, 91.038 49.905, 91.819 50.388 C 92.575 50.856, 92.771 50.566, 92.382 49.552 C 92.020 48.610, 90.550 47.994, 88.643 47.984 C 86.914 47.976, 82.925 47.363, 79.779 46.622 C 76.632 45.882, 73.820 45.514, 73.529 45.805 C 72.623 46.711, 72.949 44.964, 74.081 42.849 C 74.676 41.738, 74.974 40.640, 74.743 40.410 C 74.513 40.180, 73.769 41.213, 73.088 42.705 M 62.015 44.250 C 62.028 46.069, 62.216 46.213, 63 45 C 64.253 43.061, 64.253 42, 63 42 C 62.450 42, 62.007 43.013, 62.015 44.250 M 26.500 43.765 C 25.345 44.614, 25.310 49.032, 26.420 53.822 C 27.254 57.416, 27.827 57.496, 28.479 54.109 C 28.708 52.919, 28.512 52.183, 28.044 52.473 C 27.575 52.763, 27.274 50.750, 27.375 48 C 27.476 45.250, 27.545 43.007, 27.529 43.015 C 27.513 43.024, 27.050 43.361, 26.500 43.765 M 77 44.025 C 79.465 44.790, 94.726 45.342, 93.917 44.637 C 93.688 44.438, 89.225 44.044, 84 43.762 C 78.775 43.480, 75.625 43.599, 77 44.025 M 88.500 50 C 88.160 50.550, 88.359 51, 88.941 51 C 89.523 51, 90 50.550, 90 50 C 90 49.450, 89.802 49, 89.559 49 C 89.316 49, 88.840 49.450, 88.500 50 M 66.333 52.456 C 66.333 53.257, 66.744 53.658, 67.246 53.348 C 67.748 53.038, 70.484 55.195, 73.325 58.142 C 76.166 61.089, 78.863 63.376, 79.319 63.225 C 79.776 63.074, 79.920 63.321, 79.640 63.773 C 79.361 64.225, 79.536 65.249, 80.030 66.048 C 80.802 67.296, 81.164 67.264, 82.609 65.819 C 84.185 64.243, 84.087 63.933, 81.057 60.903 C 78.460 58.306, 77.646 57.948, 76.927 59.084 C 76.066 60.445, 75.544 59.586, 75.965 57.500 C 76.076 56.950, 75.833 56.834, 75.425 57.241 C 74.386 58.280, 71.881 56.002, 72.666 54.732 C 73.029 54.144, 72.828 53.988, 72.205 54.373 C 71.597 54.749, 70.612 54.143, 70.015 53.028 C 68.762 50.686, 66.333 50.309, 66.333 52.456 M 84 52.059 C 84 52.641, 83.577 52.857, 83.061 52.537 C 82.544 52.218, 82.190 52.866, 82.273 53.978 C 82.494 56.907, 85 56.468, 85 53.500 C 85 52.125, 84.775 51, 84.500 51 C 84.225 51, 84 51.477, 84 52.059 M 39.871 59.250 C 38.826 61.211, 38.866 61.341, 40.178 60.259 C 41.006 59.576, 42.004 59.337, 42.395 59.728 C 42.786 60.119, 42.809 59.665, 42.446 58.720 C 41.590 56.490, 41.311 56.548, 39.871 59.250 M 27 58.378 C 27 58.585, 27.788 59.373, 28.750 60.128 C 30.336 61.371, 30.371 61.336, 29.128 59.750 C 27.821 58.084, 27 57.555, 27 58.378 M 45.079 59.327 C 44.991 61.356, 39.798 67, 38.018 67 C 37.393 67, 37.144 66.577, 37.463 66.060 C 37.783 65.542, 37.050 64.192, 35.834 63.060 C 31.590 59.106, 31.918 61.046, 36.500 67 C 40.670 72.419, 44 74.639, 44 72 C 44 71.450, 43.341 71, 42.535 71 C 40.533 71, 38.605 67.366, 40.268 66.727 C 42.271 65.959, 43.519 66.134, 43.236 67.143 C 43.081 67.695, 43.757 67.665, 44.868 67.071 C 47.202 65.821, 48.584 62.839, 46.449 63.658 C 45.652 63.964, 45 64.642, 45 65.166 C 45 65.690, 44.555 65.843, 44.011 65.507 C 43.404 65.132, 43.633 63.963, 44.605 62.480 C 45.476 61.151, 45.956 59.487, 45.673 58.782 C 45.361 58.007, 45.127 58.222, 45.079 59.327 M 91 60.211 C 91 61.060, 91.749 62.373, 92.664 63.128 C 94.186 64.383, 94.217 64.287, 93.028 62 C 91.286 58.648, 91 58.395, 91 60.211 M 61 61.840 C 61 62.682, 59.987 64.474, 58.750 65.821 C 56.568 68.197, 56.564 68.238, 58.619 67.171 C 59.784 66.566, 61.021 66.355, 61.369 66.702 C 61.716 67.049, 62 66.385, 62 65.226 C 62 64.066, 62.461 62.833, 63.025 62.485 C 63.588 62.136, 63.985 62.222, 63.906 62.676 C 63.539 64.790, 64.130 66, 65.531 66 C 66.374 66, 67.322 66.675, 67.638 67.500 C 67.955 68.325, 69.121 69, 70.229 69 C 71.947 69, 72.053 69.232, 70.942 70.570 C 70.226 71.433, 68.820 71.925, 67.818 71.663 C 66.817 71.401, 66.245 71.588, 66.548 72.078 C 66.851 72.568, 68.180 72.880, 69.502 72.771 C 70.824 72.661, 71.700 72.367, 71.450 72.117 C 71.200 71.867, 71.784 70.761, 72.748 69.659 C 73.712 68.558, 74.045 67.919, 73.489 68.239 C 72.137 69.019, 69.869 67.128, 67.839 63.530 C 65.998 60.267, 61 59.032, 61 61.840 M 77.500 61 C 77.840 61.550, 78.568 62, 79.118 62 C 79.668 62, 79.840 61.550, 79.500 61 C 79.160 60.450, 78.432 60, 77.882 60 C 77.332 60, 77.160 60.450, 77.500 61 M 54.676 65.553 C 53.016 69.034, 50.480 69.603, 51.713 66.218 C 52.259 64.721, 52.057 64.748, 50.146 66.426 C 48.940 67.486, 48.316 68.611, 48.760 68.926 C 50.224 69.967, 49.488 72.505, 47.803 72.223 C 46.894 72.071, 45.869 72.403, 45.525 72.960 C 44.553 74.532, 50.572 73.510, 53.470 71.612 C 55.813 70.077, 57.232 68.121, 55.004 69.498 C 53.214 70.604, 49.930 70.923, 50.542 69.931 C 50.870 69.401, 51.550 69.222, 52.054 69.533 C 52.557 69.844, 53.803 68.728, 54.822 67.053 C 55.840 65.378, 56.996 64.329, 57.390 64.723 C 57.784 65.117, 57.809 64.665, 57.446 63.720 C 57.083 62.774, 56.693 62, 56.578 62 C 56.464 62, 55.608 63.599, 54.676 65.553 M 71 63.393 C 71 63.609, 71.675 64.045, 72.500 64.362 C 73.325 64.678, 74 64.501, 74 63.969 C 74 63.436, 73.325 63, 72.500 63 C 71.675 63, 71 63.177, 71 63.393 M 34 67.378 C 34 67.585, 34.788 68.373, 35.750 69.128 C 37.336 70.371, 37.371 70.336, 36.128 68.750 C 34.821 67.084, 34 66.555, 34 67.378 M 64.089 68.833 C 63.499 69.935, 61.550 71.146, 59.758 71.524 C 57.966 71.902, 54.982 72.916, 53.127 73.778 C 50.430 75.030, 48.776 75.144, 44.877 74.346 C 39.333 73.210, 39.011 73.697, 41.449 79.532 C 42.246 81.439, 42.471 83, 41.949 83 C 41.423 83, 41 86.866, 41 91.667 C 41 102.320, 41.753 102.313, 42.156 91.656 C 42.319 87.356, 42.784 83.634, 43.188 83.384 C 43.593 83.133, 43.418 81.818, 42.800 80.460 C 41.266 77.093, 41.990 76.732, 46.844 78.445 C 49.644 79.433, 51 79.553, 51 78.811 C 51 78.057, 53.390 77.892, 58.597 78.286 C 62.775 78.602, 65.912 78.579, 65.568 78.235 C 64.586 77.253, 61.897 76.873, 56.750 76.991 C 54.138 77.050, 52 76.863, 52 76.575 C 52 75.361, 58.165 73, 61.334 73 C 64.284 73, 64.841 72.613, 65.295 70.250 C 65.959 66.796, 65.480 66.234, 64.089 68.833 M 57.813 80.683 C 58.534 80.972, 59.397 80.936, 59.729 80.604 C 60.061 80.272, 59.471 80.036, 58.417 80.079 C 57.252 80.127, 57.015 80.364, 57.813 80.683 M 65.750 80.689 C 64.787 80.941, 64 81.579, 64 82.109 C 64 82.688, 64.795 82.645, 66 82 C 67.100 81.411, 68 80.720, 68 80.465 C 68 80.209, 67.888 80.052, 67.750 80.116 C 67.612 80.180, 66.713 80.438, 65.750 80.689 M 66.079 84.583 C 66.127 85.748, 66.364 85.985, 66.683 85.188 C 66.972 84.466, 66.936 83.603, 66.604 83.271 C 66.272 82.939, 66.036 83.529, 66.079 84.583 M 58.459 88.067 C 58.096 88.653, 58.014 89.348, 58.276 89.610 C 58.538 89.872, 59.019 89.392, 59.345 88.543 C 60.021 86.781, 59.445 86.471, 58.459 88.067 M 66.195 97.500 C 66.215 99.150, 66.439 99.704, 66.693 98.731 C 66.947 97.758, 66.930 96.408, 66.656 95.731 C 66.382 95.054, 66.175 95.850, 66.195 97.500 M 39.079 97.583 C 39.127 98.748, 39.364 98.985, 39.683 98.188 C 39.972 97.466, 39.936 96.603, 39.604 96.271 C 39.272 95.939, 39.036 96.529, 39.079 97.583" stroke="none" fill="black" fill-rule="evenodd"/>
</svg>