<?xml version="1.0"?><svg xmlns="http://www.w3.org/2000/svg" width="36" height="36" viewBox="0 0 36 36"><path fill-opacity=".341" d="m5.9 1.7c-1.2 1.1-1.3 2.4-0.2 1.5 0.4-0.3 0.3-0.2-0.2 0.2-0.4 0.4-1.3 1.1-1.9 1.6-0.6 0.5-1 1-0.8 1.2 0.1 0.3 0.1 0.3-0.1 0.2-0.2-0.2-0.5-0.1-0.8 0.1-0.4 0.4-0.6 0.3-0.9 0-0.4-0.3-0.3-0.4 0.3-0.2 0.5 0.2 0.5 0.1 0.2-0.1-0.4-0.2-0.2-0.6 0.8-1.5 0.7-0.6 1.6-1.1 1.9-1.1 0.2 0 0.5-0.2 0.5-0.4 0-0.5-0.5-0.4-2 0.8-2.6 2-3.6 4.4-1.8 4.8l0.9 0.3-0.7 1.7-0.7 1.8 1.6 0.1 1.6 0.1-1.4 2c-1.5 2-2.1 3.6-1.7 4.2 0.1 0.2 1.3-0.1 2.9-0.7 1.5-0.6 2.7-1.2 2.6-1.3-0.1-0.1-0.8 0.1-1.5 0.4-0.8 0.4-1.4 0.5-1.5 0.4-0.3-0.2 1.7-1 3.1-1 2.1-0.2 2.2-0.2 2-0.6-0.1-0.2 0-0.3 0.3-0.1 0.4 0.1 0.6 0.7 0.6 2.1 0 1.4 0.2 2.2 0.8 3.1 0.5 0.7 1.1 1.2 1.3 1.1 0.2 0 0.6 0.3 1 0.7 0.6 0.7 0.6 0.8 0.1 0.3-0.4-0.3-0.7-0.3-0.7-0.1 0 0.4 0.7 1 1.3 1 0.2 0 0.3 0.3 0.2 0.5 0 0.3 0.3 0.9 0.7 1.3 0.8 0.8 0.8 1.1 0.6 5.4l-0.3 4.5h0.9c0.7 0 0.9-0.2 0.8-0.8-0.1-0.6 0.2-1.1 0.6-1.3 0.6-0.4 0.6-0.3 0.6 0.8 0 0.9 0.2 1.3 0.6 1.3 0.4 0 0.5-0.5 0.5-2.2 0-1.2 0.1-2.1 0.3-2 0.5 0.3 0.8-0.8 0.6-1.8-0.3-0.9 0-1 0.8-0.5 0.5 0.2 0.4 0.8-0.1 3.9-0.1 0.8-0.1 1.8 0 2.1 0.2 0.5 0.3 0.5 0.8-0.4 0.3-0.6 0.6-1.3 0.6-1.5 0.1-0.3 0.2-0.6 0.3-0.7 0.2-0.1 0.2 0.1 0.1 0.6-0.1 0.5-0.3 1.2-0.4 1.7-0.2 0.7-0.1 0.8 1.1 0.8 0.9 0 1.3-0.2 1.3-0.4-0.1-0.3 0-1.8 0-3.4l0.1-2.9 0.3 3.5 0.2 3.4 0.1-3.3c0-2.4 0.2-3.5 0.7-4.3 0.3-0.6 0.8-1.5 1-2.1 0.2-0.6 0.5-1.4 0.7-1.8 0.2-0.5 0.1-0.6-0.2-0.4-0.3 0.2-0.4 0.2-0.2-0.1 0.1-0.3 0.4-0.3 0.6-0.2 0.2 0.1 0.3-0.1 0.1-0.6-0.2-0.7-0.1-0.8 0.2-0.4 0.2 0.3 0.4 0.4 0.4 0.2 0-0.2 0.1-0.1 0.4 0.3 0.2 0.3 0.5 0.5 0.7 0.4 0.2-0.1 0.3-0.1 0.2 0.1-0.3 0.5 0.1 1.6 0.6 1.6 0.2 0 0.7-0.3 1-0.7 0.7-0.6 0.8-0.6 1.2 0.1 0.3 0.4 0.5 0.5 0.5 0.3s-1.1-1.6-2.4-3c-2-2.2-2.1-2.4-0.9-1.4 0.8 0.6 1.8 1.6 2.1 2 0.5 0.9 0.6 0.9 1.4 0.4 0.8-0.5 0.9-0.5 1.9 0.6l1 1.1-1.3-1.1-1.2-1 1.1 1.2c0.7 0.7 1.3 1.1 1.4 1 0.1-0.1 0-1.2-0.2-2.4-0.3-1.7-0.3-2.6 0-3.6 0.5-1.7 0.5-1.9 0-1.6-0.2 0.1-0.3 0.3-0.1 0.5 0.1 0.2 0 0.4-0.2 0.4-0.2 0-0.8 0.7-1.3 1.7-0.5 0.9-0.9 1.4-0.9 1 0-0.3 0.4-1.4 0.9-2.3l0.9-1.8-1.9-0.2c-1-0.1-2.4-0.2-3.1-0.2-0.7 0-1.5-0.2-1.7-0.3-0.2-0.2 1.3-0.2 3.4-0.2 2.9 0.1 3.7 0.1 3.6-0.3-0.1-0.3-1.1-0.4-3.6-0.4-3 0-3.5 0-3.3-0.5 0.2-0.5 0.3-0.5 0.5-0.1 0.2 0.3 0.3-0.1 0.3-1.2 0-2-1-3.5-2.3-3.5-0.6 0-0.9-0.2-0.9-0.7 0-0.3-0.3-1-0.6-1.4-0.4-0.7-0.8-0.8-1.9-0.8-0.7 0.1-1.8-0.2-2.5-0.5-0.6-0.3-1.3-0.5-1.4-0.4-0.1 0.1 0 0.2 0.2 0.2 0.3 0 0.4 0.1 0.4 0.3 0 0.1 0.2 0.8 0.5 1.6 0.7 1.5 0.8 2 0.2 2-0.2 0-0.3-0.1-0.1-0.3 0.1-0.2 0-0.4-0.2-0.4-0.2-0.1-0.4-0.6-0.5-1.1 0-0.5-0.4-0.9-0.7-1-0.5-0.1-0.6 0.1-0.4 0.6 0.1 0.5 0.1 0.8-0.2 0.8-0.3 0-0.3 0.2 0.1 0.6 0.3 0.4 0.5 1 0.5 1.3 0 0.6-0.1 0.6-0.5 0.1-0.6-0.5-1.2-3.6-0.8-4.1 0.1-0.1 0.1-0.2 0-0.2 0 0.1-0.5-0.2-1-0.6-0.5-0.4-1.3-0.7-1.9-0.7-1.1 0-2.5 0.9-2.1 1.3 0.2 0.1 0.3 0.1 0.3-0.2 0-0.2 0.3-0.1 0.7 0.2 0.4 0.4 0.7 0.9 0.7 1.3 0 0.3 0.2 0.7 0.4 0.8 0.4 0.3 0 1.6-0.6 1.6-0.3 0-0.5-0.3-0.5-0.8-0.1-2.3-0.2-2.5-0.8-2.6-0.8-0.1-1.7-1.2-1.6-1.8 0.1-0.2 0.4-0.3 0.7-0.2 0.2 0 0.3 0 0.2-0.2-0.2-0.2-0.4-0.3-0.6-0.3-0.1 0-0.5-0.2-0.8-0.3-0.4-0.3-0.4-0.3 0 0.3 0.4 0.5 0.4 0.6 0.1 0.3-0.6-0.5-0.9-2.4-0.3-2.1 0.2 0.2 0.2 0.1 0.1-0.1-0.2-0.3-0.5-0.3-0.7-0.2-0.7 0.4-1.4 0.5-1.9 0.1-0.3-0.3-0.5-0.3-0.5-0.1 0 0.2-0.2 0.1-0.3-0.2-0.3-0.4-0.2-0.7 0-1 0.6-0.7 0.2-0.5-1 0.5m-0.5 2.7c-1 0.5-1.7 1.2-2.2 2.1-0.4 0.8-0.6 1.4-0.5 1.4 0.2 0 0.1 0.2-0.2 0.5-0.5 0.6 0 1 0.7 0.6 0.5-0.3 0.5-0.4 0.1-0.9-0.4-0.5-0.4-0.5 0-0.4 0.3 0.1 0.8-0.3 1.2-1 0.4-0.6 1.3-1.4 2.1-1.9 1.9-1 0.8-1.4-1.2-0.4m7.9 1.7c0 0.2 0.3 0.4 0.5 0.4 0.3 0 0.8 0.3 1 0.7 0.7 0.9 1.4 0.4 1-0.6-0.2-0.6-0.6-0.8-1.4-0.8-0.6 0-1.1 0.1-1.1 0.3m-12.8 1.6c0 0.4 0.3 0.8 0.6 0.9 0.5 0.1 0.6-0.1 0.4-0.7-0.1-0.5-0.2-0.6-0.4-0.3-0.2 0.3-0.3 0.3-0.5-0.1-0.1-0.3-0.2-0.2-0.1 0.2m6.8-0.1c-0.6 0.6-0.6 1.3-0.1 1.6 0.2 0.1 0.3-0.1 0.1-0.4-0.1-0.4 0-0.8 0.5-1.1 0.3-0.3 0.5-0.5 0.3-0.5-0.2 0-0.6 0.2-0.8 0.4m1.7-0.3c0 0.1 0.3 0.3 0.6 0.4 0.3 0.1 0.4 0.1 0.3-0.1-0.2-0.4-0.9-0.6-0.9-0.3m12.8 1.5c-0.2 0.7-0.4 1.2-0.6 1.1-0.2-0.2-0.2 0 0 0.5 0.5 0.9 0.5 1.2 0.1 1-0.2-0.1-0.3 0.6-0.2 1.7 0 1-0.1 2-0.2 2.2-0.4 0.5-0.3 1.6 0.1 1.6 0.1 0 0.2 0.2 0.1 0.5-0.2 0.2 0.1 0 0.5-0.4 0.4-0.5 0.6-1.1 0.5-1.4-0.1-0.2 0-0.5 0.2-0.5 0.3 0 0.8-0.9 1-2.1 0-0.3-0.2-0.9-0.5-1.2-0.3-0.4-0.4-0.6-0.3-0.6 0.2 0 0.1-0.2-0.2-0.4-0.4-0.3-0.4-0.4 0-0.4 0.4 0 0.4-0.1 0-0.5-0.4-0.5-0.3-0.5 0.2-0.3 0.7 0.2 0.7 0.2 0-0.4-0.7-0.5-0.7-0.5 0.1-0.5 0.4-0.1 0.8 0.2 1 0.7 0.1 0.4 0.4 0.7 0.6 0.7 0.2 0 0.2 0.3 0.1 0.7-0.2 0.6-0.1 0.7 0.1 0.6 0.5-0.4 0.6-1.6 0.1-1.9-0.3-0.1-0.4-0.4-0.3-0.7 0.2-0.5-0.4-1.2-1-1.2-0.2 0-0.1 0.1 0.2 0.3 0.3 0.2 0.4 0.4 0.1 0.4-0.2 0-0.5-0.2-0.6-0.4-0.5-0.7-0.9-0.3-1.1 0.9m-12.9-0.6c-0.1 0.1 0 0.7 0.3 1.2l0.5 0.9-0.2-1.1c-0.3-1.3-0.4-1.4-0.6-1m-0.4 2.3c0.3 0.2 0.6 0.3 0.7 0.2 0.1-0.1-0.1-0.3-0.5-0.4-0.5-0.2-0.5-0.2-0.2 0.2m5.8 0.2c-0.3 0.1-0.6 0.3-0.6 0.5 0 0.5 0.4 0.4 1.2-0.2 0.7-0.6 0.6-0.6-0.6-0.3m11.3 0c0 0.2 0.2 0.7 0.5 1.1 0.6 0.8 0.6 0.9-0.1 1-0.5 0.2-0.8 0.4-0.8 0.7-0.1 0.2-0.1 0.7-0.2 1.1s-0.1 1-0.3 1.3c-0.5 1.4-0.5 1.7 0 1.7 0.3 0 0.9-0.9 1.5-2.1 0.5-1.4 1-2.1 1.3-1.9 0.3 0.2 0.3 0.1 0-0.3-0.2-0.3-0.5-0.9-0.6-1.4-0.2-0.9-0.2-0.9 0.3-0.2 0.3 0.4 0.5 0.8 0.5 1 0 0.2 0.1 0.3 0.2 0.2 0.3-0.3-0.5-1.8-1-2.2-0.6-0.3-1.3-0.3-1.3 0m-15.9 0.6c-0.2 0.3-0.3 0.7-0.2 0.8 0.1 0.2 0.2 0.1 0.2-0.2 0-0.2 0.2-0.4 0.4-0.4s0.3 0.3 0.3 0.6-0.1 0.5-0.3 0.5-0.4 0.2-0.4 0.5 0.3 0.6 0.6 0.6c0.3 0 0.5-0.3 0.4-0.6-0.1-0.5 0.2-0.7 0.9-0.7 0.6 0 1.2 0.2 1.3 0.5 0.1 0.4 0.2 0.4 0.5 0 0.6-0.9 0.1-1.6-1.3-1.9-1-0.2-1.1-0.2-0.3 0.2 0.5 0.2 0.8 0.4 0.7 0.5-0.3 0.3-2.1-0.2-1.9-0.6 0.4-0.5-0.4-0.3-0.9 0.2m6.9-0.1c-0.3 0.2-0.9 0.3-1.4 0.3-0.5 0-0.8 0.2-0.8 0.7 0 0.4-0.1 1-0.2 1.4-0.2 0.4-0.1 0.5 0.1 0.2 0.5-0.7 1.6-0.2 1.3 0.5-0.4 0.9 0.7 0.4 1.2-0.6 0.2-0.4 0.5-0.6 0.6-0.5 0.1 0.1 0.2-0.1 0.2-0.5 0-0.4-0.1-0.9-0.3-1-0.2-0.1-0.3-0.4-0.2-0.6 0.3-0.4 0.1-0.4-0.5 0.1m3.1 1.6c-0.2 1.1-0.2 2.1-0.1 2.2 0.1 0.1 0.3-0.7 0.4-1.8 0.1-1.2 0.2-2.2 0.1-2.2-0.1-0.1-0.3 0.7-0.4 1.8m-17.8-1.4c-1.7 0.3-0.7 0.7 2.4 1 1.8 0.1 3.5 0.3 3.9 0.5 0.3 0.1 0.5 0 0.3-0.2-0.1-0.2-1.2-0.6-2.5-0.8-1.2-0.2-2.5-0.5-2.8-0.5-0.3-0.1-0.9-0.1-1.3 0m5.9 2.7c0.3 0.2 0.6 0.3 0.7 0.2 0.1-0.1-0.1-0.3-0.5-0.4-0.5-0.2-0.5-0.2-0.2 0.2m2.9-0.2c-0.1 0.1-0.1 0.5 0.1 0.9 0.3 0.5 0.3 0.7-0.1 0.7-0.7 0-0.6 1 0 1.2 0.3 0.1 0.4 0.4 0.3 0.6-0.1 0.2 0 0.2 0.3 0.1 0.4-0.1 0.5-0.3 0.2-0.7-0.6-0.7 0-1.5 1-1.4 1.3 0.1 1.7-0.2 0.9-0.7-0.8-0.6-2.4-1-2.7-0.7m-8.4 1.4c-0.5 0.6-0.8 1.1-0.7 1.3 0.2 0.2 0.1 0.3-0.1 0.3-0.2 0-0.4 0.2-0.4 0.4 0 0.6 0.9 0 1.7-1.3 0.5-0.7 1-1.2 1.2-1 0.3 0.1 0.3 0.1 0.2-0.2-0.4-0.6-0.9-0.5-1.9 0.5m16-0.6c-0.1 1-0.3 1.6-0.6 1.8-0.2 0.2-0.1 0.4 0.2 0.7 0.6 0.3 0.7 0.2 0.7-1.2 0.1-0.9 0-1.6-0.1-1.6-0.1 0-0.2 0.1-0.2 0.3m-3.9 0.4c0 0.3 0.2 0.3 0.4 0.2s0.3-0.3 0.3-0.4c0-0.1-0.1-0.1-0.3-0.1s-0.4 0.1-0.4 0.3m1.5 0.3c0.4 0.1 0.9 0.1 1.1 0 0.3-0.1 0-0.2-0.6-0.2-0.6 0-0.8 0.1-0.5 0.2m-4.2 0.4c-0.1 0.2-0.1 0.4 0.1 0.5 0.2 0.1 0.3 0 0.3-0.3 0-0.6-0.1-0.7-0.4-0.2m0 2.1c-1.3 0.3-1.4 0.7-0.1 0.6 0.6-0.1 1.2-0.2 1.3-0.3 0.2-0.3-0.5-0.4-1.2-0.3m15.8 0.5c-0.1 0.7 0 0.7 0.2 0.3 0.4-0.6 0.5-1.1 0.1-1.1-0.2 0-0.3 0.4-0.3 0.8m-26.2 0c-0.2 0.2 0 0.2 0.3 0.1 0.6-0.2 0.7-0.5 0.2-0.5-0.2 0-0.4 0.2-0.5 0.4m13.9 0.2c0.2 0.1 0.1 0.5-0.1 0.9-0.3 0.5-0.3 0.7 0 0.5 0.2-0.1 0.5 0 0.7 0.4 0.3 0.5 0.3 0.5 0.5 0 0.3-0.8 1-0.4 1 0.6 0 0.6 0.1 0.7 0.3 0.2 0.3-0.4 0.4-0.3 0.4 0.5 0 0.5-0.2 1-0.4 1.2-0.3 0.2-0.3 0.3 0.1 0.5 0.6 0.4 1.4-0.9 1.3-2.2 0-0.8 0-0.8-0.3-0.1-0.2 0.6-0.3 0.5-0.3-0.5 0-1.1-0.1-1.1-1.5-1-1.1 0.1-1.3 0-1.1-0.3 0.4-0.5 0.2-0.9-0.4-0.9-0.2 0-0.3 0.1-0.2 0.2m13.6-0.1c0 0.2 0.2 0.6 0.4 0.9 0.2 0.3 0.3 0.4 0.3 0.2s-0.1-0.6-0.3-0.9c-0.2-0.3-0.4-0.4-0.4-0.2m-17.6 0.7c0 0.1 0.1 0.2 0.3 0.2 0.3 0 0.3 0.2 0.2 0.4-0.4 0.6 0.9 0.6 1.5 0 0.3-0.4 0.5-0.7 0.4-0.8-0.7-0.1-2.4-0.1-2.4 0.2m12.7 1c0.4 0.4 0.8 0.7 1 0.7 0.2 0 0-0.3-0.3-0.7s-0.8-0.8-1-0.8c-0.2 0 0 0.4 0.3 0.8m-10.4 0.2c-0.1 0.3-0.1 0.7 0 0.8 0.1 0.1 0.3-0.1 0.4-0.5 0.1-0.3 0.1-0.7 0-0.8-0.1 0-0.2 0.1-0.4 0.5m20.2 0.1c-0.3 0.5 0.1 1.8 0.5 1.8 0.1 0 0.2-0.5 0.1-1.1-0.2-1.1-0.3-1.2-0.6-0.7m-22.1 0.6c0 0.6 0.5 0.7 0.8 0.2 0.1-0.2 0-0.4-0.3-0.5s-0.5 0-0.5 0.3m5 0.5c0 0.4 0.1 0.7 0.3 0.7 0.2 0 0.2-0.3 0.1-0.7-0.1-0.4-0.2-0.7-0.3-0.7-0.1 0-0.1 0.3-0.1 0.7m3.1-0.5c-0.1 0.2-0.2 0.8-0.2 1.4 0 0.8 0.1 0.9 0.4 0.4 0.3-0.7 0.2-2.4-0.2-1.8m1.4 0.1c-0.2 0.2-0.2 0.5-0.1 0.7 0.3 0.3 0.7-0.2 0.5-0.7-0.1-0.4-0.2-0.4-0.4 0m3.2 0.7c0.1 0.3 0.2 0.5 0.2 0.6 0 0.5 0.6 0.1 0.8-0.5 0.1-0.4-0.1-0.6-0.5-0.6-0.4 0-0.6 0.2-0.5 0.5m-1.9 1.7c0 0.3 0.2 0.4 0.3 0.3 0.2-0.1 0.3-0.3 0.1-0.5-0.2-0.5-0.4-0.4-0.4 0.2m6.9 0.2c0.1 0.1 0.1 0.4-0.1 0.5-0.2 0.1-0.3 0.4-0.2 0.6 0.2 0.3 1.6-0.4 1.6-0.8 0-0.2-0.3-0.3-0.7-0.4-0.4-0.1-0.7-0.1-0.6 0.1m-6.5 0.8l-0.7 0.8 0.8-0.7c0.8-0.7 1.1-0.5 0.9 0.6 0 0.2 0.1 0.2 0.3 0.1 0.3-0.2 0.1-1.6-0.3-1.6-0.2 0-0.6 0.3-1 0.8m-8.5-0.2c0.3 0.1 0.6 0.1 0.7-0.1 0.1-0.1-0.1-0.2-0.4-0.2-0.5 0.1-0.6 0.2-0.3 0.3m1 0.8c0.1 0.2 0.6 0.4 1.2 0.4 1.1 0 1-0.2-0.4-0.5-0.7-0.2-1-0.2-0.8 0.1m5.1 0.2c-0.4 0.3-0.6 0.5-0.4 0.5 0.3 0 0.6-0.2 0.9-0.5 0.5-0.7 0.4-0.7-0.5 0m3 1.6c-0.5 0.4-0.7 0.7-0.5 0.7 0.2 0 0.7-0.3 1-0.7 0.9-0.9 0.7-0.9-0.5 0m-2.5-0.1c0 0.2 0.4 0.3 0.9 0.2s0.9-0.2 0.9-0.3c0-0.1-0.4-0.2-0.9-0.2s-0.9 0.2-0.9 0.3m-5.1 1.3c0 0.1 0.3 0.3 0.6 0.4 0.3 0.1 0.5 0 0.3-0.2-0.2-0.3-0.9-0.5-0.9-0.2m4.7 3.7c-0.2 0.3-0.4 0.6-0.3 0.7 0.1 0.1 0.4-0.2 0.6-0.6 0.5-0.8 0.4-0.9-0.3-0.1m-3.6 0.3c0.1 0.5 0.2 0.6 0.3 0.3 0.1-0.3 0.1-0.6-0.1-0.7-0.1-0.1-0.2 0.1-0.2 0.4m-2.4 2.7c0 0.5 0 0.7 0.1 0.5 0.1-0.3 0.1-0.7 0-0.9-0.1-0.3-0.1-0.1-0.1 0.4m1.8 0.4c0 0.5 0 0.7 0.1 0.4 0.1-0.2 0.1-0.6 0-0.9-0.1-0.2-0.1 0-0.1 0.5" fill-rule="evenodd"></path><path fill-opacity=".244" d="m5.7 2.1c-0.4 0.5-0.4 0.6 0.1 0.1 0.4-0.3 0.7-0.5 0.7-0.6 0-0.3-0.3-0.1-0.8 0.5m-0.7 1.9c-2.9 2-3.7 3.1-3.4 4.3 0.2 0.6-0.1 1.6-0.5 2.6l-0.7 1.7h1.6c0.9 0 1.6 0.1 1.6 0.2 0 0.1-0.5 0.8-1 1.5-1.5 1.9-2.3 3.6-2.1 4.4 0.2 0.6 0.4 0.6 2.9-0.5 1.5-0.6 2.6-1.1 2.6-1.2-0.1-0.1-1.2 0.3-2.6 0.8-1.3 0.6-2.4 0.9-2.5 0.8-0.3-0.2 0.7-2.6 1.6-3.7 0.3-0.4 0.8-0.7 0.9-0.6 0.1 0.2 0.2 0 0.1-0.3 0-0.3 0.1-0.5 0.4-0.4 0.2 0 0.3-0.2 0.2-0.5-0.2-0.4-0.1-0.4 0.4-0.3 0.5 0.2 0.5 0.3 0 0.9-0.7 0.7-0.7 1.2-0.1 0.8 0.3-0.2 0.3 0 0 0.4-0.6 0.7-1 0.8-0.6 0.2 0.2-0.3 0.1-0.4-0.2-0.2-0.2 0.2-0.3 0.5-0.2 0.8 0.1 0.3 0 0.6-0.2 0.7-0.3 0.2-0.3 0.1-0.2-0.2 0.2-0.3 0-0.2-0.3 0.2-0.5 0.6-0.7 1.2-0.4 1.2 0 0 1.3-0.4 2.8-0.9 1.4-0.5 2.8-0.8 3.1-0.7 0.2 0.1 0.4 0 0.4-0.2 0-0.2 0.3-0.3 0.6-0.3 0.6 0 0.7-0.6 0.2-0.9-0.2-0.1-0.4-0.4-0.4-0.7 0-0.2 0.3 0 0.6 0.6 0.7 1.1 1.4 1.3 1.1 0.3-0.1-0.4 0-0.9 0.3-1.2 0.4-0.3 0.5-0.3 0.5 0.1 0 0.2 0.3 0.3 0.7 0.3 0.7-0.2 0.8-1.2 0-1.2-0.3 0-0.6-0.2-0.7-0.3-0.3-0.5-1.1 0.1-0.8 0.5 0.3 0.6-0.7 1-1.2 0.5-0.6-0.6-0.6-0.9 0-0.9 0.3 0 0.7-0.2 0.8-0.4 0.2-0.3 0.1-0.4-0.3-0.2-0.7 0.2-0.8 0-0.3-0.8 0.2-0.3 0.7-0.4 1.7-0.3 0.8 0.1 1.7 0 2.1-0.1 0.7-0.3 0.6-0.3-0.2-0.3-0.5-0.1-0.7-0.2-0.5-0.3 0.2-0.2 0.3-1 0.3-1.8 0-0.9 0.1-1.6 0.2-1.6 0.5 0 1 0.9 0.9 1.3-0.2 0.3-0.1 0.5 0.2 0.5 0.2 0 0.4 0.4 0.4 0.9 0 0.8 0.1 0.9 0.9 0.9 0.5 0 0.9-0.1 0.9-0.4 0-0.2 0.1-0.3 0.2-0.1 0.2 0.1 0 0.5-0.4 0.8-0.7 0.5-0.7 0.5 0 0.4 0.5-0.1 1-0.1 1.3 0.1 0.4 0.2 0.4 0.3 0 0.3-0.3 0-0.4 0.2-0.2 0.4 0.4 0.6-0.1 1.9-0.9 2.4-0.9 0.5-1.9 0.2-1.6-0.5 0.2-0.6-0.5-0.7-0.7 0-0.2 0.2-0.2-0.1 0-0.8 0.1-0.7 0.4-1.4 0.6-1.6 0.2-0.1 0.2-0.2 0-0.2-0.6 0-1.1 0.5-1.5 1.7-0.5 1.3-0.3 1.9 0.4 1.8 0.9-0.1 1.4 0.1 1.1 0.4-0.1 0.3-0.4 0.3-0.7 0.2-0.3-0.1-0.5 0-0.4 0.1 0.1 0.2 0 0.5-0.3 0.6-0.3 0.1-0.4 0-0.3-0.4 0.1-0.3 0-0.4-0.4-0.3-0.3 0.2-0.5 0.4-0.4 0.6 0.1 0.1 0.1 0.3-0.1 0.5-0.2 0.1-0.5 0-0.6-0.2-0.2-0.3-0.1-0.4 0.1-0.2 0.3 0.2 0.4 0 0.2-0.4-0.2-0.5-0.3-0.5-0.6 0.1-0.2 0.4-0.1 0.8 0.7 1.5 1 1 0.7 1.5-0.9 1.4-0.6-0.1-0.9-0.3-0.9-0.9-0.1-0.4 0.1-0.7 0.3-0.7 0.2 0.1 0.3 0.4 0.3 0.6-0.1 0.2 0.3 0.4 0.7 0.4l0.8 0-0.9-0.7c-0.5-0.4-1-0.7-1.2-0.7-0.1 0-0.2-0.3-0.2-0.6 0-0.3-0.2-0.4-0.6-0.3-0.4 0.2-0.5 0.8-0.5 2.3 0 1.9 0.1 2.2 1.8 4.5 1.1 1.3 2 2.3 2.1 2.3 0.1 0-0.3-0.5-0.8-1.2s-0.8-1.3-0.6-1.3c0.4 0 1.6 1.8 1.6 2.5 0 0.3 0.3 0.9 0.7 1.4 0.7 0.7 0.7 1.1 0.5 5.4-0.1 2.5 0 3.9 0.1 3l0.3-1.7 0 1.6c0 0.8 0.2 1.5 0.4 1.5 0.4 0 0.7-1.8 0.6-3.9 0-0.8 0.1-1.5 0.2-1.5 0.3 0 0.7 2.1 0.4 2.8-0.1 0.5-0.1 0.5 0.2 0.1 0.3-0.4 0.4-0.3 0.6 0.3 0.1 0.4 0.2 0.8 0.1 1-0.1 0.7 0.1 1.2 0.5 1.2 0.2 0 0.3-0.4 0.2-1.2-0.2-0.6-0.1-1.6 0.1-2.2 0.2-0.6 0.3-0.9 0.3-0.7 0.1 0.2 0.2 0.1 0.4-0.2 0.2-0.3 0.2-1.1 0.1-1.7-0.2-1.3-0.2-1.3 0.7-0.7 0.7 0.4 1 0.5 1.7 0.1 0.8-0.5 0.8-0.5 0.2-0.9-0.6-0.4-0.6-0.4-0.1-0.4 0.4 0 0.7 0.1 0.7 0.3 0 0.2 0.2 0.3 0.5 0.2 0.3-0.1 0.5-0.1 0.5 0.1 0 0.2-0.5 0.5-1.2 0.8-0.7 0.3-1.3 0.8-1.5 1.5-0.5 1.2-0.3 1.3 0.6 0.5 0.8-0.8 1.5-0.2 1 0.9-0.3 0.5-0.5 1.5-0.5 2.2 0 1.1 0.1 1.2 0.9 1.2 0.8 0 0.9-0.1 0.8-0.9-0.1-0.4 0-1.9 0.2-3.2l0.3-2.4 0.2 3.5 0.2 3.4 0.1-3.2c0-2 0.2-3.5 0.6-4.2 0.4-0.9 0.4-1-0.1-1.2-0.6-0.1-0.5-0.2 0.1-0.2 0.5 0 1-0.7 1.8-2.4 0.6-1.3 1-2.3 0.8-2.3-0.1 0-0.4 0.5-0.7 1.1-0.2 0.6-0.5 1-0.6 0.9-0.1-0.1 0.1-0.5 0.3-1 0.3-0.6 0.3-0.8-0.1-1.1-0.2-0.1-0.6-0.1-0.8 0.1-0.4 0.4-1.3 0-1.1-0.4 0.1-0.2 0.1-0.3-0.1-0.3-0.2 0-0.6-0.4-0.8-0.8-0.5-0.8-0.5-0.8 0.5-0.2 1.1 0.7 1.2 0.4 0.2-0.7l-0.8-0.9h0.7c0.9 0 1.7 1.3 1.4 2.1-0.2 0.4 0 0.5 0.7 0.4 0.6-0.1 1.1 0 1.5 0.5 0.3 0.3 0.5 0.6 0.3 0.6-0.2 0 0 0.3 0.4 0.6 0.4 0.3 0.5 0.5 0.2 0.3-0.4-0.2-0.4-0.1-0.1 0.5 0.2 0.4 0.6 0.9 0.9 1 0.2 0.2 0.2 0.1-0.1-0.3-0.4-0.6-0.4-0.7 0.2-1.2 0.6-0.4 0.7-0.4 1.1 0.1 0.3 0.4 0.5 0.4 0.5 0.2 0-0.6-3.3-4.1-3.7-3.8-0.2 0.1-0.3 0-0.3-0.2 0-0.3-0.2-0.3-0.5-0.2-0.2 0.2-0.3 0.1-0.1 0 0.1-0.2-0.1-0.6-0.6-1-0.4-0.4 0-0.2 1 0.5 0.9 0.6 2.3 1.6 3 2.2 0.7 0.6 1.6 1.2 2 1.2 0.4 0.1 1.3 0.7 2 1.3 1.2 1.1 1.2 1.1-0.1-0.3-1.1-1.2-1.4-1.8-1.4-3-0.1-0.8 0-1.3 0.1-1.2 0.3 0.1 1.6-2.3 1.4-2.6-0.1 0-1.5-0.2-3.2-0.3-4.5-0.4-4.5-0.8 0.1-0.7 2.8 0.1 3.9 0.1 3.7-0.2-0.1-0.3-1.5-0.4-3.7-0.4-3.2 0-3.4-0.1-3.2-0.7 0.2-0.4 0.1-0.8-0.1-0.9-0.2-0.2-0.7 0.5-1.1 1.5-0.7 1.4-1.8 3-2.3 3-0.1 0-0.1-0.3-0.1-0.6s0.1-0.5 0.3-0.5c0.1 0 0.2-0.3 0-0.6-0.1-0.3 0-0.8 0.3-1 0.2-0.3 0.3-0.6 0.2-0.6-0.2 0-0.1-0.2 0.1-0.4 0.1-0.3 0.3-0.8 0.2-1.1-0.1-0.4 0.1-0.6 0.5-0.6 1.1 0 1.2-0.5 0.4-1.4l-0.8-0.8 0.9-0.3c0.8-0.4 0.8-0.4 0-0.4-0.5 0-0.8-0.2-0.8-0.7 0-1.2-1.4-2.2-2.9-2.1-0.7 0-1.6-0.2-1.9-0.4-1-0.8-1.3-0.1-0.6 1.3 0.7 1.2 0.7 1.7 0.3 4.5-0.2 1.7-0.5 3.1-0.7 3.1-0.1 0-0.2 0.4-0.1 0.8 0.1 0.8-0.7 1.3-1.4 0.7-0.4-0.3-0.4-0.6 0-1.6 0.7-1.4 1.4-1.8 1-0.5-0.2 0.6-0.2 0.7 0.2 0.4 0.2-0.2 0.4-1.6 0.5-3.4 0-3.2-0.1-3.9-0.7-4.4-0.6-0.4-1.1-0.3-0.6 0.2 0.6 0.6 0.5 1.5 0 1.2-0.3-0.2-0.2 0 0.2 0.3 0.4 0.3 0.6 0.7 0.4 0.9-0.1 0.2 0 0.8 0.2 1.3 0.3 0.7 0.3 1.1 0 1.4-0.3 0.2-0.4 0.1-0.4-0.6 0-0.5-0.3-1.2-0.7-1.5-0.4-0.4-0.7-1-0.7-1.4 0-0.5-0.2-1-0.5-1.3-0.3-0.4-0.3-0.4 0.1-0.2 0.3 0.2 0.4 0.2 0.2-0.1-0.1-0.3 0-0.7 0.2-1.1 0.3-0.3 0.4-0.5 0.2-0.3-0.2 0.1-0.7-0.1-1.2-0.5-0.5-0.4-1.2-0.7-1.5-0.7-0.4 0-0.3 0.2 0.2 0.4 0.5 0.2 0.8 0.6 0.8 0.9 0 0.3 0.2 0.4 0.4 0.3 0.2-0.1 0.3 0 0.1 0.4-0.3 0.7-1.1 0.7-1.5-0.2-0.5-0.8-1.5-0.9-2.1-0.3-0.3 0.3-0.7 0.1-1.6-0.8-0.6-0.7-1-1-0.8-0.7 0.1 0.2-0.3 0.1-0.9-0.4l-1.2-0.8-1.6 0.8c-0.9 0.5-1.8 1.2-1.9 1.5-0.1 0.3 0.3 0.2 0.9-0.4l1.1-0.9-0.9 1c-0.5 0.5-1 0.9-1.2 0.9-0.2 0-0.7 0.8-1.1 1.8-0.9 2.3-0.9 2.3 2.6 3 1.4 0.2 2.5 0.6 2.5 0.8 0 0.2-0.4 0.3-1 0.1-0.5-0.1-2.3-0.3-3.8-0.4-2.3-0.2-2.7-0.3-2.5-0.8 0.1-0.4 0.5-1.5 0.9-2.7 0.8-2.5 1.8-4 3.2-4.6 0.6-0.2 1.1-0.6 1.1-0.7 0-0.2 0.2-0.3 0.5-0.1 0.6 0.2 1-0.3 0.6-0.9-0.1-0.2-1.1 0.3-2.6 1.4m3.5-0.4c-0.1 0.1 0.2 0.5 0.7 0.9 0.5 0.3 0.9 0.4 0.9 0.2 0-0.3-0.4-0.5-0.8-0.6-0.5-0.2-0.6-0.3-0.2-0.5 0.3-0.3 0.3-0.4 0-0.4-0.2 0-0.5 0.2-0.6 0.4m-7.1 1.6c-0.6 0.7-1.1 1.3-1 1.4 0.1 0.1 0.7-0.5 1.4-1.3 1.5-1.7 1.3-1.8-0.4-0.1m6.4 1.9c-0.7 0.2-1.1 1.2-0.8 2 0.3 0.7 2 1.8 2.3 1.5 0.1-0.1 0-0.2-0.3-0.2-0.2 0-0.3-0.1-0.2-0.3 0.2-0.2 0-0.4-0.2-0.3-0.3 0.1-0.5-0.1-0.4-0.4 0.1-0.2-0.1-0.4-0.2-0.2-0.2 0.1-0.5-0.1-0.6-0.4-0.3-0.7 0.7-1.6 1.6-1.3 0.7 0.1 0.7 0.2 0.1 0.6-0.5 0.4-0.5 0.5 0.1 1.3 0.3 0.5 0.5 0.6 0.4 0.2-0.1-0.3-0.1-0.7 0.1-0.8 0.2-0.1 0.3-0.4 0.2-0.6-0.2-0.2-0.1-0.3 0.2-0.2 0.3 0.1 0.5 0.4 0.5 0.8-0.1 0.3 0.1 0.5 0.2 0.4 0.2-0.2 0.4 0 0.4 0.2s0.1 0.3 0.2 0.2c0.1-0.1 0-0.6-0.4-1.1-0.6-0.9-2.1-1.6-3.2-1.4m11.9 0c0.2 0.2 0.5 0.6 0.8 1 0.3 0.5 0.4 0.6 0.4 0.2 0-0.7-0.7-1.5-1.3-1.5-0.2 0-0.2 0.1 0.1 0.3m-19.7 0.8c0 0.3 1 1.3 1.2 1.1 0.1-0.1-0.2-0.5-0.5-0.8-0.4-0.4-0.7-0.5-0.7-0.3m21.6-0.1c-0.1 0.2-0.1 0.7 0 1.1s-0.1 0.8-0.3 0.8c-0.3 0-0.3 0.2-0.1 0.7 0.3 0.6 0.3 0.8 0 0.8-0.2 0-0.3 0.3-0.2 0.9 0.2 0.7 0.2 0.8-0.2 0.7-0.3-0.2-0.3-0.1-0.1 0.4 0.1 0.4 0.2 0.8 0.2 1l-0.2 1.5c0 0.6 0 1.3 0.2 1.6 0.3 0.5 1.1 0.2 1.1-0.5 0-0.2 0.3-1 0.6-1.8 0.4-0.8 0.7-1.7 0.6-2.2 0-0.4 0.2-0.9 0.4-1 0.2-0.1-0.1-0.3-0.6-0.3-0.7 0-0.7-0.1-0.3-0.3 0.4-0.3 0.4-0.4-0.2-0.4-0.4 0-0.5-0.1-0.3-0.2 0.3-0.1 0.4-0.4 0.2-0.6-0.1-0.3 0.1-0.3 0.7-0.2 0.5 0.2 1 0.3 1.1 0.3 0.6 0 0.2 0.7-0.3 0.7-0.6 0-0.6 0.1-0.1 0.4 0.7 0.4 1.2-0.2 0.9-1.3-0.1-0.5-0.2-1-0.3-1.2 0-0.6-0.8-1.1-1.8-1.1-0.5 0-1 0.1-1 0.2m1.4 0.3c0 0 0.3 0.2 0.6 0.3 0.3 0.1 0.5 0.1 0.3-0.1-0.2-0.4-0.9-0.5-0.9-0.2m-0.5 0.9c0.1 0.2 0.3 0.4 0.4 0.4 0.1 0 0.1-0.2 0.1-0.4s-0.1-0.4-0.3-0.4c-0.3 0-0.3 0.2-0.2 0.4m4.8 2c0.1 0.5 0.1 0.6-0.3 0.3-0.3-0.1-0.4-0.1-0.3 0.1 0.3 0.5 1.3 2.7 1.5 3.4 0.1 0.3 0.2-0.1 0.2-0.9 0-0.7-0.2-1.8-0.5-2.4-0.6-1.1-1-1.4-0.6-0.5m-16.9 0.3c0 0.1 0.4 0.2 0.9 0.3 0.5 0.1 0.9 0 0.9-0.1 0-0.2-0.4-0.3-0.9-0.3s-0.9 0-0.9 0.1m17 0.6c0 0.4 0.1 0.8 0.3 0.9 0.5 0.3 0.5-0.2 0-0.9-0.3-0.5-0.3-0.5-0.3 0m-2.3 0.3c-0.1 0.1 0.1 0.3 0.5 0.3 0.8 0.1 0.9-0.1 0.2-0.4-0.3-0.1-0.7-0.1-0.7 0.1m-7.2 1c-0.4 0.9-0.3 1.1 0.1 0.4 0.3-0.4 0.3-0.8 0.3-0.9-0.1-0.1-0.3 0.1-0.4 0.5m-10.5 0.6c0.1 0.3 0.5 0.6 0.8 0.6 0.3 0 0.5 0 0.4-0.1-0.1-0.1-0.4-0.3-0.8-0.6-0.5-0.4-0.6-0.4-0.4 0.1m16.2 0.1c-0.3 0.9-0.2 1.1 0.2 0.4 0.2-0.4 0.3-0.8 0.2-0.8-0.1-0.1-0.3 0.1-0.4 0.4m-6.3 0.8c0 0.2-0.5 0.4-1 0.5-0.9 0-0.9 0-0.1 0.2 0.8 0.1 1.8-0.4 1.3-0.9-0.1-0.1-0.2 0-0.2 0.2m-10.5 1.9c-0.3 0.2-0.3 0.3-0.1 0.3s0.6-0.1 0.9-0.3c0.3-0.2 0.3-0.4 0.1-0.4s-0.6 0.2-0.9 0.4m19.3 0.7c-0.1 0.2 0 0.6 0.2 0.9 0.4 0.4 0.5 0.5 0.8 0.1 0.2-0.4 0.3-0.3 0.3 0.1 0 1 0.5 1.1 0.5 0.1 0.1-0.9-1.4-1.9-1.8-1.2m2.6 0.6c0.3 0.1 0.7 0.1 0.9 0 0.3-0.1 0.1-0.2-0.4-0.2s-0.7 0.1-0.5 0.2m-13.6 0.6c0 0.3-0.1 0.8-0.2 1.1-0.2 0.5-0.1 0.6 0.1 0.4 0.6-0.3 0.8 0.6 0.4 1.3-0.5 1.1 0.1 0.7 0.8-0.5l0.6-1.1 0.5 1.3c0.2 0.7 0.3 1.6 0.2 2-0.5 1.4 0.5 1.1 1.2-0.4 0.7-1.4 1-1.3 0.8 0.4-0.1 0.4 0 0.5 0.2 0.2 0.6-0.6 0.8-3 0.3-2.9-0.2 0-0.5 0.2-0.6 0.4-0.2 0.2-0.3 0.1-0.3-0.2 0-0.5-0.1-0.5-0.4 0-0.3 0.5-0.3 0.4-0.3-0.2 0-0.6-0.3-0.9-1-1-0.6-0.2-1.3-0.5-1.7-0.8-0.5-0.6-0.6-0.6-0.6 0m15.3 0c0.2 0.3 0.4 0.5 0.5 0.4 0.1-0.1 0-0.4-0.3-0.6-0.3-0.4-0.4-0.3-0.2 0.2m-1.6 0.2c0 0.1 0.1 0.4 0.3 0.7 0.3 0.4 0.4 0.3 0.5-0.2 0.1-0.5 0-0.7-0.3-0.7-0.3 0-0.5 0.1-0.5 0.2m-18.9 0.5c0.1 0.1 0.7 0.2 1.2 0.2 0.7 0 0.8 0.1 0.4 0.4-0.3 0.2-0.4 0.4-0.1 0.4 0.5 0 0.5 0.7-0.1 1.1-0.2 0.2-0.1 0.3 0.3 0.3 0.5 0 1.7-1.7 1.7-2.4 0-0.2-0.8-0.3-1.8-0.3-0.9 0-1.6 0.1-1.6 0.3m20.7 0.5c0 0.2-0.3 0.5-0.6 0.6-0.6 0.1-0.6 0.1-0.1 0.2 0.7 0 1.3-0.6 0.9-1-0.1-0.1-0.2 0-0.2 0.2m-17.1 0.7c-0.3 0.9 0.1 1 0.5 0.2 0.2-0.5 0.3-0.8 0.1-0.8s-0.4 0.3-0.6 0.6m19.6 0.1c-0.5 1-0.4 1.6 0.4 2.4 0.8 0.7 0.8 0.7 0.5-0.2-0.2-0.5-0.3-1.4-0.3-1.9 0-1.2-0.1-1.2-0.6-0.3m-16.6 1c-0.1 0.7 0 1.3 0.1 1.4 0.5 0.3 0.7-0.7 0.4-1.7-0.3-0.8-0.3-0.8-0.5 0.3m4.6-0.4c-0.4 0.7-0.6 3.1-0.2 2.8 0.2-0.1 0.3-0.4 0.3-0.7 0-0.2 0.2-0.5 0.4-0.6 0.3-0.1 0.3-0.4 0.1-1-0.2-0.5-0.4-0.7-0.6-0.5m-8.5 0.9c0 0.2 0.3 0.3 0.6 0.3 0.3 0 0.4 0.2 0.3 0.4-0.2 0.3-0.1 0.4 0.1 0.2 0.4-0.2 0.4-0.4 0.1-0.8-0.5-0.6-1.1-0.7-1.1-0.1m2 1.2c-0.7 0.6-0.7 0.6 0.1 0.2 0.4-0.2 0.8-0.5 0.8-0.6 0-0.2-0.2-0.1-0.9 0.4m20 0.2c0 0.5 0.1 0.7 0.2 0.4 0.1-0.2 0.1-0.6 0-0.9-0.1-0.2-0.2 0-0.2 0.5m-12.3 0.2c0 0.3 0.2 0.5 0.4 0.3 0.2-0.1 0.3-0.3 0.1-0.5-0.3-0.5-0.5-0.4-0.5 0.2m-1.2 1c-0.3 0.5-0.8 1-1.1 1-0.2 0-0.7 0.2-1.1 0.5-0.7 0.5-0.6 0.5 0.4 0.1 0.6-0.2 1.3-0.6 1.6-0.9 0.5-0.4 0.7-0.4 0.9-0.1 0.2 0.3 0.5 0.1 1.1-0.4 0.6-0.6 0.9-0.7 0.8-0.3-0.1 0.3 0 0.6 0.2 0.6 0.2 0 0.3-0.2 0.3-0.6-0.2-0.8-0.3-0.8-1.1-0.4-0.4 0.2-0.8 0.2-1 0-0.3-0.3-0.6-0.1-1 0.5m-6.8-0.2c0.3 0.1 0.6 0.1 0.7-0.1 0.1-0.1-0.1-0.2-0.5-0.2-0.4 0.1-0.5 0.2-0.2 0.3m1.4 1c0.6 0.2 1.2 0.4 1.4 0.2 0.4-0.2-0.8-0.7-1.8-0.7-0.5 0-0.5 0.1 0.4 0.5m-1 0.9c0.2 0.3 0.5 0.4 0.6 0.3 0.1-0.1-0.1-0.3-0.4-0.5-0.5-0.2-0.6-0.1-0.2 0.2m9.1-0.2c0.2 0.1-0.1 0.6-0.5 0.9-0.6 0.6-0.7 0.7-0.2 0.7 0.3 0 0.7-0.2 0.8-0.6 0.1-0.3 0.5-0.4 0.8-0.3 0.8 0.3 0.6-0.1-0.3-0.6-0.5-0.2-0.7-0.3-0.6-0.1m-1.9 0.3c-0.1 0.1-0.6 0.3-1.2 0.4-0.5 0.1-1.2 0.4-1.4 0.6-0.3 0.3-0.1 0.3 0.9 0.1 1.9-0.4 2.6-0.7 2.2-1-0.2-0.1-0.4-0.1-0.5-0.1m-5.8 2.6c0.1 0.5 0.4 0.9 0.7 0.9 0.6 0 0.6-0.2 0.1-1.1-0.5-1-1-0.9-0.8 0.2m3.3-0.7c0.2 0.1 0.5 0.1 0.7 0 0.1-0.1-0.1-0.2-0.5-0.2-0.4 0-0.5 0.1-0.2 0.2m-1.9 0.8c0.1 0.4 0.4 0.8 0.5 0.8 0.4 0 0.2-1.2-0.3-1.4-0.2 0-0.3 0.2-0.2 0.6m5.9-0.3c0 0.2 0.2 0.4 0.3 0.4 0.2 0 0.5-0.2 0.6-0.4 0.1-0.2 0-0.4-0.3-0.4-0.3 0-0.6 0.2-0.6 0.4m-6.8 2.2c0 0.3 0.1 0.8 0.3 1.2l0.3 0.7 0-0.7c0.1-0.4-0.1-0.9-0.3-1.2-0.3-0.5-0.3-0.5-0.3 0m4.1 1.3c-0.3 0.6-0.5 0.8-0.6 0.5 0-0.7-0.6 0.6-0.6 1.4 0 0.4 0.1 0.4 0.5-0.2 0.3-0.4 0.5-0.5 0.5-0.2 0 0.5 0.5 0.2 0.6-0.3 0-0.1 0.1-0.6 0.3-1 0.4-1.3 0-1.4-0.7-0.2" fill-rule="evenodd"></path><path fill-opacity=".347" d="m4.9 4.1c-2.6 1.8-3.8 3.3-3.2 3.9 0.3 0.3 0.5 0.1 1-0.7 0.3-0.6 0.4-1.2 0.3-1.3-0.2-0.2 3.6-2.6 4-2.5 0.1 0.1 0.1-0.1 0-0.3-0.2-0.3-0.1-0.4 0.3-0.2 0.4 0.1 0.6 0.1 0.4-0.1-0.3-0.6-0.5-0.5-2.8 1.2m4.8 0.8c0.5 0.5 0.9 0.9 1 0.9 0.3 0-1.2-1.8-1.5-1.8-0.2 0 0.1 0.4 0.5 0.9m-2.4-0.3c-0.3 0.1-0.4 0.3-0.2 0.5 0.1 0.2 0 0.3-0.3 0.2-0.7-0.2-1.7 0.3-2.1 1.2-0.3 0.6-0.3 0.7-0.1 0.5 0.6-0.3 0.5 0.1-0.3 1.8-0.4 0.8-0.6 1.1-0.5 0.6 0.2-0.5 0.3-1.2 0.4-1.5 0.2-0.7-0.8 1.4-1.1 2.4-0.2 0.7-0.1 0.8 0.8 1 0.6 0.2 1.5 0.2 1.9 0 0.7-0.1 0.8-0.1 0.3 0.2-0.4 0.4-0.3 0.4 0.7 0.2 0.7-0.1 1.1 0 0.9 0.2-0.1 0.2 0.1 0.3 0.4 0.3 0.3 0 0.5 0.2 0.5 0.4s-0.1 0.4-0.3 0.4c-0.5 0-0.5 0.9 0.1 1.2 0.2 0.1 0.1 0.1-0.3 0.1-0.4-0.1-0.7-0.3-0.7-0.6 0-0.7-0.5-1.1-1.6-1.1-0.6 0-0.8 0.2-0.7 0.5 0.2 0.3-0.1 0.9-0.5 1.4-0.5 0.4-0.7 0.6-0.5 0.4 0.2-0.3 0.2-0.5 0.1-0.5-0.3 0-2 2.6-2 2.9 0 0.2 0.7 0 1.7-0.3 2-0.6 2.3-0.7 2.7-0.7 0.1-0.1 0.8-0.3 1.5-0.6 0.7-0.3 1.3-0.4 1.5-0.2 0.1 0.2 0 0.3-0.2 0.3-0.6 0-0.5 3.6 0.1 4.7 0.2 0.5 0.7 0.9 0.9 0.8 0.3 0 0.3 0.1 0.2 0.3-0.3 0.5 2.3 3.7 2.8 3.4 0.2-0.1 0.3 0.1 0.2 0.4 0 0.3 0.1 0.7 0.4 0.8 0.5 0.1 0.5 0.1 0-0.2-0.8-0.6-0.2-0.5 1 0.1 0.8 0.5 0.9 0.6 0.2 0.4-0.7-0.1-0.8 0-0.8 0.7 0 0.5 0.2 1.3 0.4 1.7 0.3 0.5 0.3 0.6-0.1 0.4-0.3-0.2-0.4 0.3-0.2 2.2 0.1 1.4 0.3 3 0.3 3.5 0 1.5 0.7 1.2 0.7-0.4 0.1-4.2 0.1-4.6 0.6-4.5 0.2 0.1 0.3 0.5 0.3 0.8-0.1 0.3 0 0.4 0.1 0.1 0.1-0.3 0.3-0.3 0.9 0.2 0.7 0.6 0.7 0.6 0.3-0.1-0.2-0.4-0.3-0.9-0.1-1 0.1-0.2-0.1-0.2-0.5-0.2-0.6 0.2-2.3-1.6-1.9-2 0.2-0.3 3 0.8 3 1.2 0.1 0.2 0.1 1 0.1 1.7 0 0.8 0.2 1.3 0.3 1.1 0.1-0.1 0.2-0.8 0.2-1.6l-0.1-1.4 1.5 0.2c0.8 0.1 1.6-0.1 1.9-0.3 0.3-0.2 0.7-0.3 0.9-0.2 0.2 0.1 0.4 0.1 0.6-0.1 0.4-0.7-1.2-1.1-3.1-0.9-2 0.2-2 0.2-0.9-0.4 1.4-0.8 2.4-1 3-0.5 0.4 0.4 0.6 0.3 1.1-0.3 0.3-0.5 0.7-0.8 0.9-0.8 0.2 0 0.2 0.1-0.1 0.3-0.5 0.3-0.5 0.4-0.1 0.4 0.5 0 0.4 0.1 0 0.6-0.8 0.8-0.2 2 0.5 1.2 0.3-0.2 0.3-0.4 0.1-0.4-0.8 0.2-0.9 0-0.5-0.5 0.4-0.5 0.5-0.5 0.8-0.1 0.2 0.3 0.2 0.1 0.1-0.4-0.2-0.5-0.1-0.8 0-0.7 0.2 0.1 0.6-0.4 1-1.1l0.6-1.3-0.7 0.9c-0.4 0.5-1.1 0.9-1.8 0.9-1 0.1-1.1 0-0.9-0.7 0.2-0.8 0.2-0.8-0.5 0-0.5 0.5-1 0.9-1.3 0.9-0.7 0.1-0.9 0.1-2.1 0.6-1.6 0.7-1.6 0.5-0.2-0.6 0.6-0.6 1.3-1 1.5-0.8 0.2 0.1 0.2 0 0.1-0.3-0.2-0.2 0-0.3 0.6-0.2 0.4 0 1-0.1 1.2-0.3 0.6-0.4 1.7 0 1.4 0.4-0.1 0.2 0.2 0.4 0.6 0.6 0.5 0.1 0.8-0.1 1-0.6 0.2-0.5 0.2-1 0.1-1.1-0.1-0.2 0-0.3 0.2-0.1 0.4 0.2 0.9-0.8 0.6-1.4-0.1-0.2 0.4 0.3 1.1 1 1.2 1.3 1.3 1.4 1.8 0.9 0.5-0.5 0.5-0.7-0.5-1.9-1.1-1.2-2.5-1.8-2-0.8 0.1 0.2 0 0.1-0.3-0.3-0.6-0.6-0.5-1.3 0-1.3 0.2 0 1.2 0.9 2.4 1.9 1.1 1 1.9 1.6 1.8 1.3-0.1-0.4 0-0.9 0.2-1.2 0.4-0.6 0.4-0.6 0.2 0.2-0.2 0.8-0.2 0.8 0.2 0.2 0.2-0.3 0.3-0.8 0.2-1.1-0.1-0.4-0.1-0.5 0.2-0.3 0.3 0.2 0.3 0 0.2-0.4-0.2-0.3-0.1-0.5 0.1-0.4 0.4 0.2 0.5-0.2 0.4-1.2-0.1-0.3 0.1-0.4 0.3-0.2 0.2 0.1 0.3 0 0.1-0.4-0.1-0.4-0.1-0.6 0.2-0.4 0.3 0.2 0.4 0.1 0.4 0 0-0.2-0.9-0.4-2-0.4-2.6-0.1-5.6-0.8-5.3-1.2 0.1-0.2 0.6-0.1 1.1 0.1 0.5 0.1 2.2 0.3 3.8 0.2l3 0-3.4-0.4c-3.5-0.3-4.1-0.6-3.8-1.6 0.1-0.3-0.2 0.1-0.7 1-1 1.8-1.2 2.9-0.5 2.3 0.3-0.2 0.8-0.3 1.2-0.1 0.4 0.2 1.2 0.3 1.8 0.3 1.5 0 2.5 1.2 1.9 2.3-0.5 0.9-1.2 0.8-3.1-0.6-2.2-1.5-2.7-1.7-3.4-1.1-0.6 0.4-0.6 0.5 0.4 1.3 0.6 0.5 1 1.1 0.8 1.2-0.1 0.1 0 0.2 0.3 0.1 0.2 0 0.6 0.1 0.7 0.4 0.1 0.3 0 0.4-0.4 0.2-0.4-0.3-0.4-0.2 0 0.3 0.3 0.4 0.5 0.7 0.4 0.8-0.4 0.3-2.1 0.4-2.1 0.1 0-0.5-1.2-1.3-1.5-1.1-0.2 0-0.3-0.2-0.2-0.6 0-0.5 0.2-0.6 0.7-0.3 0.7 0.4 0.8-0.1 0.2-0.7-0.3-0.4-0.3-0.5 0-0.5 0.4 0 0.4-0.1 0.1-0.5-0.3-0.3-0.3-0.5-0.1-0.7 0.3-0.1 0.3-0.4 0.2-0.6-0.3-0.5 0.2-2.5 0.6-2.3 0.2 0.1 0.2 0 0.1-0.3-0.1-0.4 0-0.8 0.2-1.1 0.2-0.2 0.2-0.8 0.2-1.2-0.1-0.7 0-0.8 0.6-0.6 0.7 0.1 0.8 0.1 0.2-0.2-0.8-0.5-0.8-1.4 0-1.6 0.6-0.1 0.6-0.1 0-0.2-0.3 0-0.6-0.3-0.6-0.7 0-0.8-1.4-2.2-2.2-2.2-0.3 0-0.2 0.2 0.2 0.4 0.5 0.1 0.5 0.3 0.2 0.3-0.4 0-0.3 0.2 0.2 0.5 0.4 0.3 0.8 0.5 1 0.4 0.3-0.2 0.3 1.8-0.1 3.3-0.2 0.8-0.3 0.9-0.3 0.3-0.1-1.1-0.6-1.4-0.7-0.4 0 0.4-0.1 1.3-0.2 1.9l-0.3 1 0.5-0.9c0.7-1 0.8-0.7 0.2 0.4-0.2 0.4-0.5 0.6-0.7 0.5-0.2-0.1-0.5 0.2-0.6 0.6-0.2 0.6-0.2 1 0 1.1 0.2 0.1 0 0.4-0.4 0.7-0.9 0.4-1.4 0.2-1.5-0.7 0-0.3 0-0.9 0-1.3 0-0.4 0.1-1.4 0.2-2.3 0.2-0.9 0.3-2.1 0.3-2.6 0-0.6 0.1-0.9 0.3-0.8 0.2 0.1 0.3-0.3 0.2-1 0-0.7-0.3-1.2-0.8-1.5-0.6-0.3-0.7-0.3-0.3 0.1 0.6 0.8 0.9 1.8 0.5 1.8-0.2 0-0.4-0.2-0.4-0.5 0-0.3-0.2-0.7-0.5-0.9-0.4-0.4-0.4-0.3 0 0.7 0.5 1 0.6 1.5 0.2 4.4-0.3 1.8-0.6 3.7-0.8 4.1-0.3 0.9-1.2 1.1-1.9 0.3-0.5-0.4-0.4-0.6 0.4-1.7 0.5-0.6 1-1.1 1.2-1.1 0.2 0.1 0.3-0.3 0.3-0.7 0-0.7 0-0.7-0.3-0.3-0.3 0.4-0.4 0.4-0.4-0.4 0-0.5-0.2-1.2-0.4-1.5-0.5-0.6-0.5-0.5-0.6 0.5 0 1 0 1.1 0.3 0.7 0.3-0.4 0.4-0.4 0.3 0.4-0.1 0.5-0.3 0.8-0.6 0.8-0.2-0.1-0.3 0.1-0.2 0.4 0.2 0.6-1.1 2.4-1.8 2.4-0.2 0-0.1-0.3 0.3-0.5 0.6-0.5 0.6-0.5-0.3-0.7-0.6-0.1-0.8 0-0.7 0.2 0.1 0.2 0 0.3-0.3 0.2-0.3-0.2-0.8-0.1-1 0.1-0.3 0.1-0.7 0.1-0.9 0-0.6-0.4-1.3-0.4-1.1 0 0.1 0.2 0 0.3-0.2 0.3-0.2 0 0.2 0.6 0.9 1.2l1.4 1.3-0.6 1.3c-0.4 0.7-0.6 1.4-0.5 1.5 0.1 0.1 0.4-0.2 0.7-0.8 0.4-0.9 1-1.1 1.3-0.2 0.1 0.2-0.1 0.4-0.3 0.3-0.6-0.1-0.7 1.1-0.2 1.8 0.5 0.7 0.9 0.5 0.8-0.4-0.1-0.5 0-0.9 0.1-0.8 0.1 0.1 0.2-0.3 0.3-0.8 0-0.4-0.1-0.8-0.2-0.7-0.2 0.2-1.2-0.6-1.2-1 0-0.1 0.3-0.2 0.6-0.2s0.5-0.2 0.5-0.4c0-0.2 0.3-0.2 0.8 0.1 0.5 0.3 1.1 0.5 1.5 0.5 0.4-0.1 0.8 0.1 0.9 0.6 0.1 0.5 0.2 0.6 0.4 0.3 0.2-0.3 0.4-0.3 0.8 0.1 0.4 0.5 0.5 0.5 0.9-0.1 0.4-0.5 0.4-0.4 0.2 0.4-0.2 0.8-0.1 0.8 0.4 0.2 0.5-0.7 0.5-0.7 0.9 0.1 0.4 0.7 0.4 0.8 0 0.5-0.3-0.2-0.3 0-0.2 0.7 0.2 0.7 0.1 1.2-0.4 1.7-0.6 0.7-0.7 0.7-0.9 0.2-0.1-0.4-0.1-0.5 0.1-0.4 0.2 0.1 0.3-0.1 0.3-0.5-0.2-1-0.6-1.4-0.6-0.5 0 0.4-0.3 1-0.6 1.4-0.5 0.7-0.5 0.7-0.5 0 0-0.6-0.1-0.6-0.9 0.1-0.5 0.5-0.8 1-0.7 1.1 0.1 0.2-0.2 0.6-0.6 0.9-0.4 0.4-0.7 0.5-0.7 0.3 0-0.2-0.4-0.4-0.8-0.6-0.9-0.2-0.6-0.7 0.5-0.7 0.5-0.1 0.8-0.2 0.9-0.4 0-0.2 0.2-0.7 0.4-1.2 0.3-0.5 0.4-0.9 0.3-1.1-0.1-0.1-0.2 0-0.2 0.3s-0.2 0.3-0.4 0.2c-0.3-0.2-0.4-0.1-0.2 0.1 0.1 0.2 0 0.3-0.3 0.3-0.4 0-0.4-0.1-0.2-0.6 0.2-0.4 0.3-0.9 0.3-1.3 0-0.4-0.1-0.3-0.4 0.3-0.2 0.6-0.5 1-0.7 1-0.2 0-0.2 0.2-0.1 0.3 0.1 0.2-0.1 0.6-0.4 0.8-0.4 0.4-0.6 0.4-1 0-0.3-0.2-0.5-0.6-0.4-0.8 0.1-0.1 0-0.3-0.3-0.3-0.3 0-0.8-0.1-1.2-0.2-0.5-0.2-0.6-0.2-0.2 0.2 0.2 0.3 0.4 0.7 0.4 0.9 0 0.2-0.3 0-0.7-0.5-0.4-0.4-0.6-1-0.5-1.2 0.1-0.1-0.1-0.8-0.5-1.5-0.6-1-0.6-1.2-0.2-1 0.4 0.1 0.5 0.1 0.4-0.2-0.2-0.2 0.1-0.6 0.5-0.9 0.6-0.5 0.6-0.6 0.1-0.8-0.3-0.1-0.4 0-0.3 0.2 0.1 0.1 0 0.4-0.2 0.5-0.3 0.2-0.9-0.8-0.8-1.5 0.1-0.3-0.1-0.9-0.4-1.4-0.7-1-0.8-2.1-0.2-3 0.3-0.6 0.2-0.8-0.7-1.3-1.9-0.9-2.4-2.7-1.1-3.4 1.5-0.8 3.9 0.9 3.9 2.8 0 0.5 0.2 0.8 0.7 0.8 0.5 0 0.6-0.3 0.7-1.9 0-1.4-0.1-1.7-0.3-1-0.3 0.8-0.3 0.9-0.3 0.1 0-0.4-0.8-1.3-1.9-2.2-1.8-1.5-2.2-1.6-3.1-1.2m-1.7 1.3c-0.4 0.3-0.6 0.6-0.5 0.7 0.1 0.1 0.5-0.1 0.8-0.5 0.8-0.8 0.6-0.9-0.3-0.2m10 0.3c0.7 0.7 0.8 1 0.6 1.9-0.2 0.6-0.3 0.8-0.3 0.4 0-0.3-0.3-0.6-0.6-0.6-0.3 0-0.5-0.2-0.5-0.5s-0.2-0.6-0.4-0.6c-0.5 0-0.2 1.3 0.5 1.8 0.5 0.3 0.5 0.6 0.3 0.9-0.7 0.6-0.5 0.9 0.5 0.9 0.6 0 0.9-0.2 0.9-0.6 0-0.4 0.1-0.3 0.3 0.3 0.2 0.6 0.3 0.4 0.3-1.1-0.1-1.5-0.3-2.2-0.9-2.8-0.5-0.4-1-0.8-1.2-0.8-0.2 0 0 0.4 0.5 0.8m-13.5 0.7c-0.2 0.4-0.3 0.8-0.2 0.9 0.1 0.1 0.3-0.3 0.6-0.8 0.4-1.1 0.2-1.2-0.4-0.1m8.7-0.3c0 0.1 0.3 0.4 0.6 0.6 0.6 0.5 0.6 0.5 0.2-0.1-0.5-0.6-0.8-0.8-0.8-0.5m-3.2 1.8c0 1.1 0.9 2 2.4 2.3 1 0.2 1.2 0.1 1.2-0.5 0-1.2-0.4-1.9-1-1.7-0.3 0.2-0.5 0-0.4-0.3 0.1-0.3-0.3-0.5-1.1-0.6-1-0.1-1.1 0-1.1 0.8m1.1 0.5c0 0.7 0.2 1 0.7 1.1 0.5 0 0.6-0.1 0.3-0.8-0.2-0.5-0.2-0.9-0.1-1.1 0.1-0.1 0-0.2-0.3-0.2-0.4 0-0.6 0.3-0.6 1m3.2 0.8c0 0.5 0.1 0.7 0.2 0.5 0.1-0.3 0.1-0.7 0-0.9-0.1-0.3-0.2-0.1-0.2 0.4m-7 0.1c0.1 0.4 0.3 0.6 0.4 0.5 0.1-0.1 0-0.4-0.2-0.7-0.4-0.3-0.4-0.3-0.2 0.2m17.5 0.4c0 0.3 0.5 0.5 1.1 0.5 1.2 0.1 1-0.4-0.3-0.8-0.5-0.1-0.8 0-0.8 0.3m-21.5 1.2c-0.2 0.5-0.1 0.6 0.2 0.2 0.3-0.2 0.4-0.5 0.3-0.6-0.1-0.1-0.3 0.1-0.5 0.4m3.4-0.4c0.2 0.2 0.5 0.1 0.6 0 0.2-0.1-0.1-0.2-0.4-0.2-0.5 0-0.5 0.1-0.2 0.2m-3.3 1.5c0.4 0.1 1.2 0.1 1.6 0 0.5-0.1 0.1-0.2-0.8-0.2s-1.3 0.1-0.8 0.2m9.9 0.5c0 0.4 0 0.7 0.2 0.5 0.1-0.1 0.4 0 0.7 0.2 0.2 0.3 0.6 0.3 0.7 0.2 0.1-0.1 0.5 0 0.8 0.3 0.5 0.4 0.7 0.4 1.3-0.1 0.6-0.4 0.6-0.5 0.1-0.3-0.4 0.1-0.7 0-0.7-0.2 0-0.3-0.1-0.3-0.3 0-0.2 0.4-0.4 0.4-0.5 0.1-0.2-0.2-0.5-0.4-0.9-0.4-0.3 0-0.7-0.2-0.9-0.5-0.4-0.5-0.5-0.5-0.5 0.2m17.3 0.5c0 0.8 0 1.1 0.1 0.6 0.1-0.4 0.1-1.1 0-1.4s-0.1 0-0.1 0.8m-25.4 0.4c-0.4 0.6-0.4 0.6 0.2 0.2 0.6-0.5 0.8-0.8 0.5-0.8-0.1 0-0.4 0.3-0.7 0.7m6.6 0c0 0.3 0.7 1.1 1.1 1.1 0.2 0 0.2-0.2 0.1-0.5-0.2-0.6-1.2-1.1-1.2-0.6m6.8 0.8c-0.8 0.2-0.8 0.3-0.1 0.3 0.4 0 0.9-0.1 1-0.3 0.1-0.2 0.2-0.4 0.1-0.4l-1 0.4m-14.3 0.4c-0.5 0.7-0.9 1.4-0.7 1.4 0.1 0 0.4-0.4 0.7-0.9 0.7-1 0.6-1.3 0-0.5m1.1 1c-0.1 0.2-0.1 0.5 0 0.6 0.1 0.1 0.2-0.1 0.4-0.4 0.2-0.6 0-0.8-0.4-0.2m9.1-0.1c-0.1 0.2-0.1 0.5 0.2 0.7 0.5 0.3 0.9-0.2 0.4-0.6-0.3-0.3-0.5-0.3-0.6-0.1m-2.4 1.5c0 0.2 0.2 0.5 0.4 0.6 0.2 0.1 0.2 0 0.1-0.4-0.2-0.6-0.5-0.7-0.5-0.2m-6.5 0.4c-0.3 0.2-0.3 0.3-0.1 0.3s0.6-0.1 0.9-0.3c0.3-0.2 0.3-0.3 0.1-0.3s-0.6 0.1-0.9 0.3m-2.8 0.3c0 0.7 0.9 0.9 1.6 0.4 0.6-0.3 0.6-0.3-0.2-0.1-0.5 0.1-0.9 0-1.1-0.3-0.3-0.4-0.3-0.4-0.3 0m27.7 0.2c-0.3 0.4-0.3 0.6 0.3 0.9 0.6 0.3 0.7 0.3 0.5-0.4-0.1-0.8-0.1-0.8 0.4-0.1 0.3 0.3 0.5 0.8 0.4 1-0.1 0.1 0 0.3 0.3 0.3 0.4 0 0.6-0.4 0.6-1 0-0.8-0.1-0.9-0.4-0.5-0.3 0.5-0.5 0.3-0.4-0.4 0.1-0.5-1.3-0.3-1.7 0.2m-3 0.1c0.3 0.1 0.4 0.3 0.3 0.4-0.1 0.2 0.2 0.3 0.6 0.3 0.8 0.1 0.8 0.1 0.1-0.4-0.4-0.3-0.9-0.5-1.1-0.5-0.2 0-0.1 0.1 0.1 0.2m7.7 2.9c0 0.7 0.6 1.5 1.1 1.5 0.2 0 0.1-0.4-0.2-1-0.7-1.3-0.9-1.4-0.9-0.5m-4.9 0.5c0.1 0.2 0.3 0.3 0.4 0.3 0.1 0 0.1-0.1 0.1-0.3s-0.1-0.4-0.3-0.4c-0.3 0-0.3 0.2-0.2 0.4m-5.6 1.6c0 0.3 0.2 0.5 0.4 0.3 0.2-0.1 0.3-0.3 0.3-0.5 0-0.2-0.1-0.4-0.3-0.4s-0.4 0.3-0.4 0.6m-10.1 0.1c0 0.2 0.3 0.5 0.6 0.8 0.3 0.2 0.5 0.3 0.5 0.1 0-0.2-0.2-0.6-0.5-0.8-0.3-0.3-0.6-0.3-0.6-0.1m2.2 0.4c-0.4 0.3-0.4 0.4 0.2 0.4 0.5 0 0.9-0.2 1.1-0.4 0.2-0.4-0.6-0.4-1.3 0m5.2 0.4c-0.1 0.2-0.3 0.3-0.5 0.2-0.2-0.1-0.5 0.1-0.8 0.4-0.4 0.5-0.4 0.6 0 0.2 0.3-0.2 0.7-0.3 0.9-0.2 0.3 0.1 0.7-0.1 0.9-0.4 0.3-0.4 0.4-0.6 0.1-0.6-0.2 0-0.5 0.2-0.6 0.4m-2.9 2.4c0.3 0.1 0.8 0.1 1 0 0.3-0.1 0-0.2-0.6-0.2-0.6 0-0.8 0.1-0.4 0.2m2.9 1.5c1 0.5 2.4 0.5 2.4 0 0-0.2-0.7-0.3-1.6-0.3-1.2 0-1.3 0.1-0.8 0.3m3.7 0.7c-0.5 0-0.9 0.3-0.8 0.4 0.1 0.2-0.1 0.4-0.5 0.4s-0.8 0.2-0.9 0.5c-0.2 0.5-0.1 0.5 0.5 0.2 0.8-0.4 1.3 0.2 0.7 0.9-0.2 0.3-0.3 0.5 0 0.7 0.4 0.2 0.7-0.2 0.9-1.5 0.1-0.3 0.2-0.8 0.2-1 0.1-0.2 0.2 0.4 0.3 1.3l0.3 1.6 0.1-1.9c0.1-1 0.2-1.9 0.2-1.8 0 0-0.4 0.1-1 0.2m-2.4 2.9c-0.2 0.4-0.4 1.1-0.4 1.5 0.1 0.7 0.2 0.5 0.6-0.5 0.5-1.6 0.4-2.2-0.2-1m1.1 1.5c-0.3 0.5-0.3 0.6 0.1 0.5 0.6-0.2 1.1-1.2 0.6-1.2-0.2 0-0.5 0.3-0.7 0.7m1.9 1.1c0 0.9 0 1.2 0.1 0.8 0.1-0.5 0.1-1.2 0-1.6-0.1-0.5-0.1-0.1-0.1 0.8m-9.8 0.3c0 0.7 0.1 1 0.2 0.7 0.1-0.4 0.1-1 0-1.3-0.1-0.4-0.2-0.1-0.2 0.6m8.2-0.6c-0.3 1-0.2 1.6 0.2 1.6 0.4 0 0.4-0.2 0.2-0.6-0.2-0.4-0.3-0.7-0.1-0.9 0.1-0.1 0.1-0.2 0-0.2-0.2 0-0.3 0-0.3 0.1" fill-rule="evenodd"></path><path fill-opacity=".976" d="m5.9 3.5c-0.6 0.5-0.8 0.8-0.5 0.6 0.3-0.1 0.8-0.5 1.1-0.8 0.4-0.3 0.9-0.4 1.1-0.2 0.3 0.2 0.3 0.1 0.2-0.2-0.4-0.6-0.6-0.5-1.9 0.6m-3 2.2c-0.8 0.8-1.5 1.6-1.5 1.8 0 0.8 0.7 0.8 1.1 0 0.3-0.5 0.3-0.7 0.1-0.5-1 0.6-0.3-0.6 0.9-1.6 0.8-0.6 1.2-1.1 1.1-1.1-0.1 0-0.9 0.6-1.7 1.4m5.6-0.8c-0.1 0.1-0.7 0.3-1.4 0.3-0.6 0.1-1.2 0.3-1.2 0.4 0 0.6-0.5 1.3-0.9 1.1-0.1-0.1-0.4 0-0.5 0.2-0.2 0.3-0.1 0.3 0.1 0.2 0.6-0.4 0.5-0.2-0.1 1.3-0.8 2-0.7 2.3 0.9 2.5 0.8 0.2 1.4 0.4 1.3 0.5-0.1 0.2 0.4 0.3 1.2 0.3 1.6 0 1.7-0.5 0.2-1.5-2.2-1.5-1.1-4 1.3-3 0.6 0.3 1.4 0.8 1.7 1.3l0.7 0.9 0.2-0.9c0.3-1.1 0.3-1.6-0.1-0.9-0.3 0.4-0.4 0.4-0.4 0 0-0.3 0-0.7 0-0.9 0-0.1-0.2-0.2-0.4-0.1-0.3 0-0.5-0.2-0.5-0.5 0-0.4-0.1-0.8-0.3-0.9-0.3-0.4-1.5-0.6-1.8-0.3m0.5 0.5c-0.4 0.2-0.7 0.5-0.6 0.6 0.1 0.1 0.5 0 0.9-0.2s0.8-0.3 1-0.1c0.1 0.1 0.1 0 0-0.2-0.1-0.3-0.3-0.4-0.3-0.4-0.1 0-0.5 0.1-1 0.3m6.6 0.8c0.7 0.5 1 1 0.9 1.7-0.1 0.5-0.1 0.7 0 0.5 0-0.3 0.2-0.4 0.4-0.3 0.2 0.1 0.3-0.1 0.2-0.5 0-0.6-1.5-2.2-2.1-2.2-0.2 0 0.1 0.3 0.6 0.8m5.1 1.5c0.7 1.1 0.8 1.1 0.8 0.4 0-0.2-0.3-0.6-0.7-0.9-0.6-0.4-0.7-0.4-0.1 0.5m2.7-0.3c0.2 0.1 0.3 0.4 0.2 0.5-0.1 0.2 0 0.5 0.3 0.7 0.4 0.3 0.6 0.3 0.8 0 0.1-0.2 0-0.3-0.3-0.2-0.2 0-0.4-0.2-0.4-0.4-0.1-0.3-0.3-0.6-0.5-0.7-0.3 0-0.3 0-0.1 0.1m-15.6 0.4c-0.5 0.5-0.2 1.4 0.4 1.5 0.5 0 0.7-0.2 0.5-0.7-0.1-0.4 0-0.7 0.4-0.7 0.5 0 0.6 0.2 0.7 2 0 1.3 1.4 1.3 1.4 0 0-0.5-0.2-1-0.5-1.1-0.2-0.2-0.3-0.1-0.1 0.2 0.3 0.5 0.2 0.5-0.3 0.1-0.3-0.3-0.5-0.7-0.5-0.9 0.1-0.5-1.6-0.8-2-0.4m7.3 0.5c0 0.2 0.2 0.3 0.4 0.3s0.3-0.1 0.3-0.3-0.1-0.4-0.3-0.4-0.4 0.2-0.4 0.4m-2.6 0.2c-0.2 0.2-0.3 0.7-0.3 1.3 0 1.4 0.5 1 0.6-0.4 0.1-1.2 0.1-1.3-0.3-0.9m7.8 2.2c0 3.3-0.7 6.5-1.6 6.9-0.7 0.4-2-0.5-2-1.4 0-0.5-2.6-0.8-2.9-0.3-0.3 0.5 1 0.8 1.9 0.4 0.5-0.3 0.9-0.4 0.9-0.3 0 0.3-2.4 1.3-3 1.3-0.4 0-0.4-0.1 0-0.3 0.4-0.3 0.4-0.4-0.1-0.6-0.3-0.1-0.5 0-0.4 0.2 0.3 0.4-0.3 0.4-1.3-0.1-0.8-0.3-0.8-0.3-0.1 0.2 0.4 0.3 0.8 0.6 1 0.6 0.1 0 0.3 0.2 0.3 0.6 0 0.3 0.2 0.5 0.5 0.3 0.6-0.2 0.3 1-0.5 2.2-0.3 0.5-0.4 0.9-0.3 1 0.1 0.1 0.4-0.2 0.6-0.7 0.3-0.5 0.6-0.9 0.8-0.9 0.2 0 0.3-0.1 0.1-0.3-0.1-0.2 0-0.7 0.1-1.1 0.3-0.7 0.3-0.7 1.7 0 0.8 0.3 1.6 0.5 1.7 0.4 0.2 0 0.4 0.1 0.5 0.5 0.2 0.4 0.3 0.5 0.6 0.1 0.2-0.4 0.3-0.4 0.3 0 0 0.2 0.1 0.3 0.3 0.2 0.2-0.1 0.4 0 0.4 0.2s0.2 0.3 0.4 0.2c0.2-0.1 0.2-0.4 0.1-0.6-0.2-0.3-0.1-0.3 0.2-0.2 0.2 0.2 0.3 0.5 0.2 0.8-0.1 0.3 0.1 0.4 0.6 0.3 0.4-0.1 0.8-0.2 0.9-0.3 0.1-0.1 0.5 0 0.9 0.2 0.6 0.3 0.7 0.3 0.3-0.4-0.3-0.5-0.3-0.7 0-0.7 0.3 0 0.3-0.2 0-0.7-0.2-0.4-0.1-1 0.2-1.8 0.8-1.9 1.2-3.3 0.9-3.3-0.1 0-0.6 0.8-1 1.8-0.9 2-2.4 3.1-3 2.2-0.5-0.8-0.4-1.2 0.1-0.9 0.2 0.2 0.2 0.1 0-0.4-0.2-0.5-0.3-1.3-0.1-2.3 0.4-2 0.5-4.4 0.1-4.9-0.1-0.3-0.3 0.6-0.3 1.9m4.6-0.4c0 1.1 0.1 1.2 0.3 0.7 0.2-0.7 0.1-2-0.2-2-0.1 0-0.1 0.6-0.1 1.3m-20.2-0.4c0 0.3 0.1 0.5 0.3 0.5 0.2 0 0.4-0.2 0.5-0.5 0.2-0.3 0-0.5-0.3-0.5-0.3 0-0.5 0.2-0.5 0.5m10.2-0.2c-0.1 0.2 0 0.4 0.2 0.4s0.4-0.2 0.6-0.4c0.1-0.2 0-0.3-0.2-0.3s-0.4 0.1-0.6 0.3m1.3 0.2c0 0.4 0.1 0.5 0.2 0.2 0.1-0.2 0.1-0.5 0-0.6-0.1-0.2-0.2 0.1-0.2 0.4m-13.1 0.4c-0.3 0.7-0.3 0.9 0.1 0.9 0.1 0 0.3-0.4 0.3-0.8 0.1-0.8-0.1-0.9-0.4-0.1m5.4-0.2c0.3 0.3 0.6 0.4 0.7 0.3 0.1-0.1-0.1-0.3-0.5-0.5-0.5-0.2-0.5-0.1-0.2 0.2m14 0c0.1 0.2 0.5 0.3 0.8 0.3 0.6 0 0.6 0 0.1-0.3-0.7-0.5-1.2-0.5-0.9 0m-17.9 1.3c0.3 0.1 0.6 0.1 0.7 0 0.1-0.1-0.1-0.2-0.5-0.2-0.4 0-0.5 0.1-0.2 0.2m19.2 1c0 0.5 0.1 0.6 0.2 0.3 0.1-0.3 0.1-0.6 0-0.7-0.1-0.1-0.2 0.1-0.2 0.4m0.7 0c0 0.5 0.1 0.6 0.2 0.3 0.1-0.3 0.1-0.6 0-0.7-0.1-0.1-0.2 0.1-0.2 0.5m-16.1 0.3c-0.7 0.7-0.6 1.2 0.1 1.2 0.4 0 0.5-0.1 0.2-0.2-0.3-0.1-0.4-0.3 0-0.7 0.5-0.7 0.3-0.9-0.3-0.3m-2.8 0.4c-0.1 0.3-0.4 0.4-0.6 0.3-0.2-0.1-0.3-0.1-0.3 0.1 0.1 0.7 0 1.2-0.3 1-0.2-0.1-0.6 0.1-0.9 0.4-0.4 0.5-0.4 0.6 0.1 0.3 0.3-0.2 0.4-0.1 0.3 0.2-0.1 0.3-0.4 0.5-0.6 0.4-0.3 0-0.4 0.1-0.2 0.3 0.1 0.2 0.4 0.4 0.7 0.4s0.5-0.2 0.4-0.4c-0.3-0.3 0.8-1.6 1.1-1.3 0.1 0.1 0 0.5-0.3 0.8-0.4 0.5-0.4 0.6 0.2 0.4 2.5-0.7 4.1-1 4.9-1 0.8 0 0.6-0.9-0.2-1.2-0.3-0.1-0.4 0-0.3 0.3 0.1 0.3-0.2 0.4-1 0.3-0.6-0.1-1.2-0.5-1.3-0.8-0.4-1.1-1.3-1.4-1.7-0.5m22.6 0.3c0 0.6 0 0.8 0.1 0.4 0.1-0.3 0.1-0.8 0-1-0.1-0.3-0.2 0-0.1 0.6m-9.8 0c0 0.4 0.1 0.5 0.2 0.2 0.1-0.2 0.1-0.5 0-0.6-0.1-0.2-0.2 0.1-0.2 0.4m-2 1.3c-0.6 0.2-0.6 0.3-0.1 0.3 0.3 0 0.7-0.1 0.8-0.3 0.3-0.5 0.2-0.5-0.7 0m9.9 0.6c-0.4 0.8-0.3 1 0.2 1.4 0.3 0.3 1.2 0.6 1.9 0.7 2.5 0.4 3.5 1.4 2.4 2.6-0.6 0.7-0.7 0.7-1.8 0.2-0.6-0.4-0.9-0.7-0.7-0.8 0.3-0.1 0.5-0.3 0.5-0.6 0-0.3 0.2-0.6 0.4-0.7 0.3-0.1 0.2-0.2-0.2-0.2-0.3 0-0.7 0.3-0.8 0.7-0.2 0.7-0.3 0.7-1.8-0.2-2-1.2-2-0.9 0 0.4 0.8 0.6 2 1.4 2.5 1.9 0.6 0.4 1.2 0.7 1.4 0.6 0.2-0.1 0.3 0.1 0.3 0.4 0 0.4 0.1 0.5 0.2 0.2 0.1-0.2 0.4-0.3 0.5-0.2 0.2 0.1 0.2-0.1 0.1-0.5 0-0.3 0.1-0.9 0.4-1.3l0.6-0.7-0.2 0.7c-0.2 0.5-0.1 0.6 0.1 0.2 0.2-0.3 0.3-0.8 0.2-1.1-0.2-0.3-0.1-0.4 0.2-0.2 0.3 0.1 0.3 0 0.2-0.4-0.2-0.4-0.1-0.5 0.2-0.4 0.2 0.2 0.3 0.1 0.2-0.3-0.2-0.3-0.7-0.5-1.4-0.5-0.6 0-2-0.2-3.2-0.5-1.1-0.3-2.1-0.4-2.2-0.3-0.4 0.3-0.2-0.3 0.2-1.1 0.2-0.4 0.3-0.8 0.2-0.9-0.1 0-0.3 0.3-0.6 0.9m-4 0.5c0 0.7 0.1 0.7 0.4 0.3 0.4-0.7 0.4-1.1 0-1.1-0.2 0-0.4 0.4-0.4 0.8m-12.8-0.1c-0.4 0.3-0.4 1.9 0 3.6 0.3 1.3 0.5 1.3 0.8 0.1 0-0.4 0-0.7-0.2-0.6-0.2 0.1-0.3-0.6-0.2-1.6 0-1 0-1.8 0-1.8 0 0-0.2 0.1-0.4 0.3m18.2 0c0.9 0.3 6.4 0.5 6.1 0.3-0.1-0.1-1.7-0.2-3.6-0.3-1.8-0.1-3-0.1-2.5 0m4.2 2.2c-0.2 0.2-0.1 0.4 0.1 0.4 0.2 0 0.4-0.2 0.4-0.4s-0.1-0.4-0.2-0.4c0 0-0.2 0.2-0.3 0.4m-8 0.9c0 0.3 0.1 0.4 0.3 0.3 0.2-0.1 1.2 0.7 2.2 1.7 1 1.1 2 1.9 2.2 1.9 0.1-0.1 0.2 0 0.1 0.2-0.1 0.1-0.1 0.5 0.1 0.8 0.3 0.4 0.4 0.4 0.9-0.1 0.6-0.6 0.6-0.7-0.5-1.8-1-0.9-1.2-1-1.5-0.6-0.3 0.5-0.5 0.2-0.4-0.6 0.1-0.2 0-0.2-0.1-0.1-0.4 0.4-1.3-0.4-1-0.9 0.1-0.2 0-0.3-0.2-0.1-0.2 0.1-0.6-0.1-0.8-0.5-0.4-0.9-1.3-1-1.3-0.2m6.3-0.2c0 0.3-0.1 0.3-0.3 0.2-0.2-0.1-0.3 0.1-0.3 0.5 0.1 1.1 1 0.9 1-0.1 0-0.5-0.1-0.9-0.2-0.9s-0.2 0.1-0.2 0.3m-15.8 2.6c-0.4 0.7-0.4 0.8 0.1 0.4 0.3-0.3 0.6-0.3 0.8-0.2 0.1 0.1 0.1 0 0-0.4-0.3-0.8-0.4-0.7-0.9 0.2m-4.7-0.3c0 0.1 0.3 0.4 0.6 0.6 0.6 0.5 0.6 0.5 0.2-0.1-0.5-0.6-0.8-0.8-0.8-0.5m6.5 0.4c0 0.7-1.9 2.7-2.5 2.7-0.2 0-0.3-0.1-0.2-0.3 0.1-0.2-0.2-0.7-0.6-1.1-1.5-1.4-1.4-0.7 0.2 1.4 1.5 2 2.7 2.8 2.7 1.8 0-0.2-0.2-0.3-0.5-0.3-0.7 0-1.4-1.3-0.8-1.6 0.7-0.3 1.2-0.2 1.1 0.2-0.1 0.2 0.2 0.2 0.6-0.1 0.8-0.4 1.3-1.5 0.5-1.2-0.3 0.1-0.5 0.4-0.5 0.6s-0.2 0.2-0.4 0.1c-0.2-0.2-0.1-0.6 0.3-1.1 0.3-0.5 0.4-1.1 0.3-1.3-0.1-0.3-0.2-0.2-0.2 0.2m16.6 0.3c0 0.3 0.2 0.8 0.6 1 0.5 0.5 0.5 0.4 0.1-0.4-0.6-1.2-0.7-1.3-0.7-0.6m-10.8 0.6c0 0.3-0.4 0.9-0.8 1.4-0.8 0.9-0.8 0.9-0.1 0.5 0.4-0.2 0.9-0.3 1-0.2 0.1 0.1 0.2-0.1 0.2-0.5 0-0.4 0.2-0.9 0.4-1 0.2-0.1 0.3-0.1 0.3 0.1-0.1 0.7 0.1 1.2 0.6 1.2 0.3 0 0.6 0.2 0.8 0.5 0.1 0.3 0.5 0.5 0.9 0.5 0.6 0 0.6 0.1 0.2 0.6-0.2 0.3-0.7 0.5-1.1 0.4-0.3-0.1-0.6 0-0.4 0.1 0.1 0.2 0.5 0.3 1 0.3 0.5 0 0.8-0.1 0.7-0.2s0.1-0.5 0.5-0.9 0.5-0.6 0.3-0.5c-0.5 0.2-1.3-0.4-2.1-1.7-0.6-1.2-2.4-1.6-2.4-0.6m5.9-0.3c0.1 0.2 0.4 0.3 0.6 0.3s0.2-0.1 0.1-0.3c-0.1-0.2-0.4-0.4-0.6-0.4s-0.2 0.2-0.1 0.4m-8.2 1.6c-0.6 1.3-1.5 1.5-1.1 0.2 0.2-0.5 0.1-0.5-0.5 0.1-0.5 0.4-0.7 0.8-0.5 0.9 0.5 0.4 0.2 1.3-0.4 1.2-0.3-0.1-0.7 0.1-0.8 0.3-0.4 0.5 1.8 0.2 2.8-0.5 0.9-0.6 1.4-1.3 0.6-0.8-0.6 0.4-1.8 0.5-1.6 0.2 0.1-0.2 0.4-0.3 0.5-0.2 0.2 0.1 0.7-0.3 1-0.9 0.4-0.6 0.8-0.9 1-0.8 0.1 0.1 0.1 0 0-0.4-0.2-0.3-0.3-0.6-0.3-0.6-0.1 0-0.4 0.6-0.7 1.3m5.9-0.8c0 0.1 0.2 0.3 0.5 0.4 0.3 0.1 0.5 0 0.5-0.2 0-0.2-0.2-0.3-0.5-0.3s-0.5 0-0.5 0.1m-13.4 1.5c0 0 0.3 0.3 0.7 0.6 0.5 0.4 0.6 0.4 0.1-0.2-0.5-0.5-0.8-0.7-0.8-0.4m10.9 0.5c-0.2 0.4-0.9 0.8-1.6 0.9-0.6 0.2-1.7 0.5-2.4 0.9-0.9 0.4-1.5 0.5-2.9 0.2-2-0.4-2.2-0.3-1.3 1.8 0.3 0.7 0.4 1.3 0.2 1.3-0.2 0-0.3 1.4-0.3 3.1 0 3.8 0.2 3.8 0.4 0 0-1.6 0.2-2.9 0.3-3 0.2-0.1 0.1-0.5-0.1-1-0.5-1.2-0.3-1.4 1.5-0.8 1 0.4 1.5 0.4 1.5 0.2 0-0.3 0.8-0.4 2.7-0.2 1.5 0.1 2.6 0.1 2.5 0-0.3-0.4-1.3-0.5-3.2-0.5-0.9 0-1.7 0-1.7-0.1 0-0.5 2.2-1.3 3.4-1.3 1 0 1.2-0.2 1.4-1 0.2-1.3 0.1-1.5-0.4-0.5m-2.3 4.2c0.3 0.2 0.6 0.1 0.7 0 0.1-0.1-0.1-0.2-0.5-0.2-0.4 0-0.5 0.1-0.2 0.2m2.9 0c-0.4 0.1-0.7 0.4-0.7 0.6 0 0.2 0.3 0.2 0.8-0.1 0.4-0.2 0.7-0.4 0.7-0.5 0-0.1-0.1-0.2-0.1-0.2-0.1 0.1-0.4 0.2-0.7 0.2m0.1 1.4c0 0.5 0.1 0.6 0.2 0.3 0.1-0.3 0.1-0.6 0-0.7-0.1-0.1-0.2 0.1-0.2 0.4m-2.8 1.3c-0.1 0.2-0.1 0.5 0 0.6 0.1 0.1 0.2-0.1 0.4-0.4 0.2-0.7 0-0.8-0.4-0.2m2.8 3.4c0 0.6 0.1 0.8 0.2 0.4 0.1-0.3 0.1-0.8 0-1-0.1-0.3-0.2 0-0.2 0.6m-9.7 0c0 0.4 0.1 0.5 0.2 0.2 0.1-0.2 0.1-0.5 0-0.6-0.2-0.2-0.2 0.1-0.2 0.4" fill-rule="evenodd"></path></svg>