<?xml version="1.0"?><svg xmlns="http://www.w3.org/2000/svg" width="36" height="36" shape-rendering="geometricPrecision" text-rendering="geometricPrecision" image-rendering="optimizeQuality" fill-rule="evenodd" clip-rule="evenodd" viewBox="0 0 36 36"><path fill="#0c000e" d="m-0.1-0.1h36v36h-36v-36z"></path><path fill="#0b0109" d="m29.5 6h-0.7c-0.1-0.1-0.2-0.2-0.3-0.2-0.1-0.1-0.3-0.2-0.4-0.2 0.5-0.2 1.1-0.2 1.6-0.2v-0.4c-0.8 0.1-1.7 0.1-2.6 0.1 0 0.3-0.1 0.4-0.3 0.5v-0.5c-1.9 0.1-3.9 0-5.8 0-0.4-0.1-0.4-0.3-0.2-0.5 0.4 0.1 0.8 0.2 1.2 0.3 0.9-0.1 1.9-0.2 2.8-0.2v-2h2v2.2c0.4-0.1 0.8-0.2 1.3-0.3 0.4 0.1 0.8 0.1 1.3 0 0.3 0 0.5 0.1 0.8 0.3 0.4-0.2 0.6 0 0.5 0.5-0.5-0.1-0.7 0.1-0.7 0.6h-0.5z"></path><path fill="#0d0119" d="m28.5 5.8h-0.6c-5.9-0.1-11.8-0.2-17.7-0.1 2-0.2 4-0.4 6-0.4 1.3 0 2.5 0.1 3.8 0.3 0.9-0.3 1.9-0.3 2.9-0.3 1.3 0.1 2.6 0.2 3.9 0.3 0.2-0.1 0.3-0.2 0.3-0.5 0.9 0 1.8 0 2.6-0.1v0.4c-0.5 0-1.1 0-1.6 0.2 0.1 0 0.3 0.1 0.4 0.2z"></path><path fill="#4a7abf" d="m10.1 5.8c2.4 0 4.8 0 7.1 0.2-1.2-0.1-2.5 0-3.8 0.1 0.6 0.2 1.2 0.2 1.9 0.2v0.1h-5.1c0.4-0.1 0.8-0.2 1.3-0.3-0.5-0.1-1-0.2-1.4-0.3z"></path><path fill="#6271da" d="m17.2 6c0.6-0.1 1.3 0 1.9 0.1-1.3 0.2-2.6 0.2-3.8 0.2-0.7 0-1.3 0-1.9-0.2 1.3-0.1 2.6-0.2 3.8-0.1z"></path><path fill="#8940c8" d="m24.8 6v0.3c-5-0.1-5-0.2 0-0.3z"></path><path fill="#9f22b9" d="m24.8 6h4v0.1c0 0.1 0.1 0.2 0.2 0.3 0 0.1-0.1 0.2-0.2 0.1h-0.7v-0.1c-1.1-0.1-2.2-0.2-3.3-0.1v-0.3z"></path><path fill="#4c4084" d="m9.8 5.8c0.1-0.1 0.2-0.1 0.4-0.1 5.9-0.1 11.8 0 17.7 0.1h-7.9c-0.5-0.1-0.7 0.1-0.5 0.6h-4.2v-0.1c1.2 0 2.5 0 3.8-0.2-0.6-0.1-1.3-0.2-1.9-0.1-2.3-0.2-4.7-0.2-7.1-0.2h-0.3z"></path><path fill="#6e3497" d="m20 5.8h8.5c0.1 0 0.2 0.1 0.3 0.2h-4c-5 0.1-5 0.2 0 0.3 1.1-0.1 2.2 0 3.3 0.1h-7.9c0-0.2-0.1-0.4-0.2-0.6z"></path><path fill="#26063f" d="m20.2 6.4h7.9v0.1c-2.7-0.1-5.3 0-7.8 0.3-0.1-0.1-0.2-0.2-0.1-0.4z"></path><path fill="#270833" d="m28.8 6.1v-0.1h0.7c0.2 0.1 0.3 0.3 0.4 0.5-0.4-0.2-0.7-0.3-1.1-0.4z"></path><path fill="#0b000e" d="m9.8 6.5h9.4c0.3 0.7 0.4 1.5 0.5 2.3 0.4 0.5 0.7 1 0.9 1.5 0.1 0.3 0.2 0.5 0.4 0.7v0.3c0.2 0.3 0.2 0.6 0 0.9 0.3 0.1 0.6 0.3 0.9 0.5 0 0.4 0.1 0.8 0.2 1.2v0.2c-0.1 2-0.1 4-0.1 6.1h-0.7c0.1-2.1 0-4.2-0.1-6.3-0.2 0.7-0.2 1.4-0.2 2.2-0.6 0-1.2 0-1.8 0.1-0.1 0.6-0.2 1.2-0.1 1.9-0.4 0-0.6 0.1-0.5 0.5l-0.3 0c-0.5-0.2-0.9-0.4-1.4-0.5-0.1-1.3-0.1-2.6-0.1-3.8h0.4v-0.4c-0.3 0-0.5 0.1-0.7 0.4-0.2 1.3-0.1 2.5 0 3.8h-0.4c0-1.3 0-2.6 0.1-3.8 0.2-0.2 0.2-0.4-0.2-0.4 0-0.5-0.1-0.8-0.2-1.2h-0.1c-0.4-0.1-0.8-0.2-1.2-0.4-1 0-2 0.1-3 0.1-0.2 0-0.4 0.1-0.5 0.2l-1.9-0.3c0-0.1 0-0.2 0.1-0.2-0.5-0.1-0.8-0.4-0.8-0.9h-0.5c0-0.2-0.1-0.3-0.2-0.4-0.1-0.6-0.2-1.3-0.2-1.9 0.3-1.2 1-2 2.3-2.4z"></path><path fill="#61499a" d="m19.6 6.5c0.2 0.6 0.4 1.2 0.6 1.9 0.1-0.4 0.2-0.9 0.1-1.3 0.2 0.4 0.3 0.9 0.4 1.4h-0.4c0 0.3 0.1 0.7 0.2 1-0.6-0.9-0.9-1.9-0.9-3z"></path><path fill="#8d1b9c" d="m28.8 6.1c0.4 0.1 0.7 0.2 1.1 0.4 0.1 0.1 0.1 0.2 0.1 0.3v0.2c-0.1-0.1-0.3 0-0.4 0 0.2 0.1 0.3 0.3 0.3 0.5l-0.3-0.1c-0.2-0.4-0.5-0.6-0.8-0.9 0.1 0.1 0.2 0 0.2-0.1-0.1-0.1-0.2-0.2-0.2-0.3z"></path><path fill="#0a1526" d="m8.5 6.3c-0.5 0.4-0.9 0.9-1.3 1.4 0.1-0.4 0-0.7-0.2-1l0.1-0.2 0.4 0.3c0.4-0.2 0.7-0.4 1-0.5z"></path><path fill="#2f0637" d="m28.2 6.5h0.6c0.3 0.3 0.6 0.5 0.8 0.9-0.2 0-0.3-0.1-0.4-0.2-0.4-0.2-0.7-0.4-1-0.7z"></path><path fill="#360440" d="m30 7v-0.2c0.3 0 0.4 0.2 0.4 0.4h-0.1c0-0.1-0.1-0.2-0.3-0.2z"></path><path fill="#ad0fbe" d="m30 7c0.2 0 0.3 0.1 0.3 0.2 0 0.4-0.1 0.5-0.4 0.3 0-0.2-0.1-0.4-0.3-0.5 0.1 0 0.3-0.1 0.4 0z"></path><path fill="#7152c5" d="m20 5.8c0.1 0.2 0.2 0.4 0.2 0.6-0.1 0.2 0 0.3 0.1 0.4v0.3c0.1 0.4 0 0.9-0.1 1.3-0.2-0.7-0.4-1.3-0.6-1.9-0.1 0-0.1 0-0.1-0.1-0.2-0.5 0-0.7 0.5-0.6z"></path><path fill="#0c000e" d="m28.1 6.5h0.1c0.3 0.3 0.6 0.5 1 0.7-0.3 0.2-0.4 0.5-0.4 0.9 0.3-0.1 0.5 0.1 0.7 0.4 0.1 0.6 0.1 1.2 0 1.8 0 0.4-0.2 0.7-0.5 0.9l0.2 0.3c0.2-0.2 0.4-0.4 0.6-0.6 0.1 0 0.2 0.1 0.2 0.1-0.1 0.2-0.2 0.4-0.3 0.6-0.1 0-0.2 0.1-0.2 0.3-0.5 0.2-1 0.5-1.4 0.7h-0.3c-0.3 0-0.6-0.1-0.8-0.3-0.7 0.2-1.4 0.3-2.2 0.3l-1.9-0.1-0.5-0.2c0.1-0.2 0-0.4-0.3-0.4 0-0.2-0.1-0.4-0.2-0.6 0-0.2-0.1-0.3-0.3-0.4-0.1-0.5-0.3-0.9-0.6-1.3 0-0.4-0.1-0.7-0.3-1.1-0.1-0.5-0.2-1-0.4-1.4v-0.3c2.5-0.3 5.1-0.4 7.8-0.3z"></path><path fill="#4f0f51" d="m30 7.8c0.2 0.1 0.3 0.2 0.3 0.4-0.2 0-0.3-0.2-0.3-0.4z"></path><path fill="#400345" d="m30.4 7.2l0.5 0.3c0.4 0.9 0.5 1.9 0.2 2.8 0.1-0.5 0-1.1 0-1.7-0.2-0.4-0.5-0.9-0.7-1.4z"></path><path fill="#0a0f1f" d="m7.2 7.7c-0.4 1.1-0.5 2.3-0.1 3.5-0.2-0.1-0.3-0.2-0.3-0.4-0.2-0.6-0.3-1.3-0.3-1.9-0.1 0.2-0.3 0.2-0.4 0-0.2-0.3-0.2-0.5 0-0.8 0.2 0.2 0.4 0.4 0.7 0.5-0.1-0.5-0.2-1-0.4-1.4 0.2 0.2 0.5 0.3 0.8 0.5z"></path><path fill="#151336" d="m9.8 6.5c0.1-0.1 0.2-0.1 0.4-0.1h9.3c0 0.1 0 0.1 0.1 0.1 0 1.1 0.3 2.1 0.9 3l0.1 0.8c-0.2-0.5-0.5-1-0.9-1.5-0.1-0.8-0.2-1.6-0.5-2.3h-9.4z"></path><path fill="#180217" d="m29.2 7.2c0.1 0.1 0.2 0.2 0.4 0.2l0.3 0.1c0 0.2 0 0.3 0.1 0.3 0 0.2 0.1 0.4 0.3 0.4 0.2 0.7 0.2 1.3 0 1.9 0.1-0.5 0-0.8-0.2-1.2-0.1 0.6-0.1 1.2 0 1.7 0-0.1 0.1-0.1 0.2-0.1v0.4l-0.3 0.1c0 0-0.1-0.1-0.2-0.1-0.2 0.2-0.4 0.4-0.6 0.6l-0.2-0.3c0.3-0.2 0.5-0.5 0.5-0.9 0.1-0.6 0.1-1.2 0-1.8-0.2-0.3-0.4-0.5-0.7-0.4 0-0.4 0.1-0.7 0.4-0.9z"></path><path fill="#030c01" d="m30.3 10.1v0.4c-0.1 0-0.2 0-0.2 0.1-0.1-0.5-0.1-1.1 0-1.7 0.2 0.4 0.3 0.7 0.2 1.2z"></path><path fill="#6e4bb6" d="m20.7 8.5c0.2 0.4 0.3 0.7 0.3 1.1 0 0.2 0 0.2-0.1 0.3-0.2-0.1-0.3-0.2-0.4-0.4-0.1-0.3-0.2-0.7-0.2-1h0.4z"></path><path fill="#26506d" d="m7.5 8.9c0 0.6 0.1 1.3 0.2 1.9-0.3-0.6-0.4-1.2-0.2-1.9z"></path><path fill="#8e1094" d="m30.3 7.2h0.1c0.2 0.5 0.5 1 0.7 1.4 0 0.6 0.1 1.2 0 1.7h-0.1c-0.1-1.8-0.2-1.8-0.3 0-0.1 0.2-0.2 0.3-0.4 0.3v-0.5c0.2-0.6 0.2-1.2 0-1.9 0-0.2-0.1-0.3-0.3-0.4-0.1 0-0.1-0.1-0.1-0.3 0.3 0.2 0.4 0.1 0.4-0.3z"></path><path fill="#5e439c" d="m20.5 9.5c0.1 0.2 0.2 0.3 0.4 0.4 0.1-0.1 0.1-0.1 0.1-0.3 0.3 0.4 0.5 0.8 0.6 1.3-0.3-0.1-0.4-0.3-0.6-0.6-0.1 0.3-0.1 0.5 0 0.7-0.2-0.2-0.3-0.4-0.4-0.7l-0.1-0.8z"></path><path fill="#2f1552" d="m21.6 10.9c0.2 0.1 0.3 0.2 0.3 0.4-0.2 0-0.3-0.2-0.3-0.4z"></path><path fill="#470451" d="m30.3 10.9c-0.1 0.3-0.3 0.5-0.6 0.7 0.1-0.2 0.2-0.4 0.3-0.6l0.3-0.1z"></path><path fill="#0a1d3b" d="m7.9 11.2h0.5c0 0.5 0.3 0.8 0.8 0.9-0.1 0-0.1 0.1-0.1 0.2-0.5-0.2-0.9-0.6-1.2-1.1z"></path><path fill="#3c043c" d="m31 10.9c0 0.5-0.1 0.8-0.6 1 0.1-0.4 0.3-0.7 0.6-1z"></path><path fill="#3c9dce" d="m9.8 5.8h0.3c0.4 0.1 0.9 0.2 1.4 0.3-0.5 0.1-0.9 0.2-1.3 0.3-0.2 0-0.3 0-0.4 0.1-1.3 0.4-2 1.2-2.3 2.4-0.2 0.7-0.1 1.3 0.2 1.9 0.1 0.1 0.2 0.2 0.2 0.4 0.3 0.5 0.7 0.9 1.2 1.1 0.3 0.3 0.7 0.4 1.1 0.4l-0.4 0.4c-0.3 0-0.5 0-0.7-0.1-0.2 0-0.4-0.1-0.6-0.2-0.5-0.5-1-1-1.4-1.6-0.4-1.2-0.3-2.4 0.1-3.5 0.4-0.5 0.8-1 1.3-1.4 0.4-0.2 0.8-0.4 1.3-0.5z"></path><path fill="#703fa7" d="m21.6 10.9c0 0.2 0.1 0.4 0.3 0.4 0.1 0.2 0.2 0.4 0.2 0.6 0.1 0.2 0.2 0.3 0.3 0.4 0 0.2 0.1 0.3 0.2 0.4-0.3 2.9-0.4 5.8-0.5 8.7v-7.5c0.1-0.4 0-0.7 0-1-0.1-0.1-0.1-0.2-0.2-0.2-0.2-0.5-0.5-1-0.9-1.4v-0.3c-0.1-0.2-0.1-0.4 0-0.7 0.2 0.3 0.3 0.5 0.6 0.6z"></path><path fill="#221239" d="m21 11.3c0.4 0.4 0.7 0.9 0.9 1.4-0.3-0.2-0.6-0.4-0.9-0.5 0.2-0.3 0.2-0.6 0-0.9z"></path><path fill="#0b020b" d="m31.7 8.5c0 1.1-0.1 2.3-0.3 3.4l0.2 0.4c0.3-1.3 0.4-2.7 0.5-4.1-0.1-0.3-0.2-0.7-0.2-1.1-0.3-0.4-0.1-0.6 0.4-0.6 0.1 1 0.2 1 0.3 0h1.9v2h-2.1c0 1.9 0.1 3.9 0.2 5.8-1 0-1.8-0.1-2.7-0.3-0.5-0.2-0.9-0.3-1.4-0.4 0-0.1 0.1-0.2 0.1-0.3 0.5 0 0.9-0.3 1.1-0.7 0.5-0.1 0.7-0.3 0.7-0.7 0.5-0.2 0.6-0.5 0.6-1v-0.6h0.1c0.3-0.9 0.2-1.9-0.2-2.8-0.1-0.4 0-0.7 0.2-1 0.1 0.7 0.3 1.4 0.6 2z"></path><path fill="#160017" d="m31.9 7.1c0 0.4 0.1 0.8 0.2 1.1-0.1 1.4-0.2 2.8-0.5 4.1l-0.2-0.4c0.2-1.1 0.3-2.3 0.3-3.4 0.1-0.1 0.1-0.1 0.2-0.3-0.2-0.3-0.4-0.6-0.5-1 0.1-0.3 0.2-0.3 0.5-0.1z"></path><path fill="#180c41" d="m22.1 11.9c0.3 0 0.4 0.2 0.3 0.4-0.1-0.1-0.2-0.2-0.3-0.4z"></path><path fill="#310938" d="m29.5 11.9c-0.4 0.4-0.8 0.6-1.3 0.7h-0.1c0.4-0.2 0.9-0.5 1.4-0.7z"></path><path fill="#0b0c20" d="m15.7 12.7h-4.2c-0.1-0.1-0.3-0.1-0.5-0.1 0.1-0.1 0.3-0.2 0.5-0.2 1 0 2-0.1 3-0.1 0.4 0.2 0.8 0.3 1.2 0.4z"></path><path fill="#2c0447" d="m30.4 11.9c0 0.4-0.2 0.6-0.7 0.7 0.2-0.3 0.5-0.5 0.7-0.7z"></path><path fill="#0b2246" d="m9.1 12.3l1.9 0.3c0.2 0 0.4 0 0.5 0.1h-1.3c-0.4 0-0.8-0.1-1.1-0.4z"></path><path fill="#280333" d="m22.4 12.3l0.5 0.2 1.9 0.1c0.8 0 1.5-0.1 2.2-0.3 0.2 0.2 0.5 0.3 0.8 0.3-1.6 0.1-3.2 0.2-4.8 0.1h-0.4c-0.1-0.1-0.2-0.2-0.2-0.4z"></path><path fill="#6b2e87" d="m27.8 12.6h0.4c-0.1 0.1-0.2 0.2-0.3 0.2-0.4 0.1-0.7 0.1-1.1 0.1h-3.8v-0.2c1.6 0.1 3.2 0 4.8-0.1z"></path><path fill="#4786c5" d="m10.2 12.7h3.9l-2.6 0.6c-0.6 0-1.2 0-1.7-0.2l0.4-0.4z"></path><path fill="#240d3c" d="m21.9 12.7c0.1 0 0.1 0.1 0.2 0.2 0 0.3 0.1 0.6 0 1-0.1-0.4-0.2-0.8-0.2-1.2z"></path><path fill="#8e35c6" d="m23 12.9h3.8c-1.3 0.2-2.7 0.3-4.1 0.4-0.2-0.1-0.3-0.2-0.3-0.4h0.6z"></path><path fill="#9921aa" d="m31 10.3v0.6c-0.3 0.3-0.5 0.6-0.6 1-0.2 0.2-0.5 0.4-0.7 0.7-0.4 0.3-0.9 0.5-1.5 0.6-1.8 0.1-3.7 0.1-5.5 0.1 1.4-0.1 2.8-0.2 4.1-0.4 0.4 0 0.7 0 1.1-0.1 0.1 0 0.2-0.1 0.3-0.2 0.5-0.1 0.9-0.3 1.3-0.7 0-0.2 0.1-0.3 0.2-0.3 0.3-0.2 0.5-0.4 0.6-0.7v-0.3c0.2 0 0.3-0.1 0.4-0.3 0.1-1.8 0.2-1.8 0.3 0z"></path><path fill="#223d68" d="m9.1 13c0.2 0.1 0.4 0.1 0.7 0.1 0.5 0.2 1.1 0.2 1.7 0.2h3.3v0.1h-5.3c-0.2-0.1-0.3-0.2-0.4-0.4z"></path><path fill="#4c1d61" d="m29.7 12.6c-0.2 0.4-0.6 0.7-1.1 0.7-1.9 0.1-3.8 0.2-5.7 0.3v12.5c0 0.3-0.1 0.6-0.2 0.8v-13.6c1.8 0 3.7 0 5.5-0.1 0.6-0.1 1.1-0.3 1.5-0.6z"></path><path fill="#06061a" d="m9.5 13.4h5.3v0.6c-0.1-0.1-0.1-0.2-0.1-0.4h-0.4v0.4h-0.6c0-0.1-0.1-0.2-0.1-0.3-1-0.1-1.9-0.1-2.8 0-0.5 0-0.9-0.1-1.3-0.3z"></path><path fill="#16001a" d="m28.6 13.3c0 0.1-0.1 0.2-0.1 0.3 0.5 0.1 0.9 0.2 1.4 0.4 0 0.1 0.1 0.2 0.3 0.2l-0.5 0.1c-0.7-0.3-1.5-0.5-2.3-0.7-1.5 0-3-0.1-4.5 0 1.9-0.1 3.8-0.2 5.7-0.3z"></path><path fill="#090302" d="m14.8 14c0.2 4.2 0.2 8.5 0.2 12.8 0 1.1-0.1 1.1-0.4 0.1-0.3-0.4-0.2-0.8 0-1.2 0.1-3.8 0.1-7.6 0.1-11.4h-0.4c0.1 3.8 0 7.6-0.3 11.4-0.1-3.8-0.2-7.6-0.1-11.4-0.4 0-0.7-0.1-1-0.2 0.2-0.1 0.5-0.1 0.8-0.1h0.6v-0.4h0.4c0 0.2 0 0.3 0.1 0.4z"></path><path fill="#0f0018" d="m14.6 26.9c0 0.3-0.1 0.5-0.2 0.7-0.3-0.6-0.4-1.2-0.4-1.9 0.3-3.8 0.4-7.6 0.3-11.4h0.4c0 3.8 0 7.6-0.1 11.4-0.2 0.4-0.3 0.8 0 1.2z"></path><path fill="#5b72cc" d="m14.1 12.7h1.6c0 1.9 0 3.9 0.1 5.8 0.1 0.2 0.4 0.4 0.6 0.6 0.5 0.4 1.1 0.8 1.5 1.4-0.2 0-0.3 0.1-0.3 0.4-0.2-0.2-0.4-0.3-0.7-0.4-0.2-0.4-0.5-0.7-0.8-1-0.1-0.1-0.2 0-0.3 0.1-0.1 2.7-0.2 5.3-0.3 8-0.2-0.1-0.3-0.4-0.2-0.7v-13.6h-3.8l2.6-0.6z"></path><path fill="#4d5b98" d="m15.7 12.7h0.1c0 1.9 0 3.8 0.1 5.7 0.1 0.1 0.2 0.2 0.3 0.2l0.2 0.3v0.2c-0.2-0.2-0.5-0.4-0.6-0.6-0.1-1.9-0.1-3.9-0.1-5.8z"></path><path fill="#0f102d" d="m15.8 12.7c0.1 0.4 0.2 0.7 0.2 1.2 0.4 0 0.4 0.2 0.2 0.4-0.1 1.2-0.1 2.5-0.1 3.8h0.4c0.1 0 0.1 0 0.2 0.1-0.2 0.1-0.4 0.2-0.5 0.4-0.1 0-0.2-0.1-0.3-0.2-0.1-1.9-0.1-3.8-0.1-5.7z"></path><path fill="#303879" d="m14.8 13.4v-0.1h0.5v13.6c-0.1 0-0.2 0-0.2-0.1 0.1-4.5 0-9-0.3-13.4z"></path><path fill="#0b0109" d="m22 20.2v1.4h-1v-0.4h0.6v-0.6c-0.4 0.1-0.8 0-1.1-0.2 0.1-0.1 0.3-0.1 0.5-0.1v-2.2h-1.8c-0.1 0.7-0.1 1.3 0 2-0.1 0.4-0.3 0.5-0.7 0.5 0-0.2 0.1-0.4 0.3-0.6-0.3-0.1-0.6-0.1-0.9 0 0-0.3-0.3-0.5-0.7-0.5 0.1-0.4 0-0.7-0.1-1l-0.3 0.6c-0.1-0.1-0.3-0.2-0.4-0.2l-0.2-0.3c0.1-0.2 0.3-0.3 0.5-0.4-0.1-0.1-0.1-0.1-0.2-0.1-0.1-1.3-0.2-2.5 0-3.8 0.2-0.3 0.4-0.4 0.7-0.4v0.4h-0.4c0 1.2 0 2.5 0.1 3.8 0.5 0.1 0.9 0.3 1.4 0.5l0.3 0c-0.1-0.4 0.1-0.5 0.5-0.5-0.1-0.7 0-1.3 0.1-1.9 0.6-0.1 1.2-0.1 1.8-0.1 0-0.8 0-1.5 0.2-2.2 0.1 2.1 0.2 4.2 0.1 6.3h0.7z"></path><path fill="#8442bf" d="m22.6 12.7h0.4v0.2h-0.6c0 0.2 0.1 0.3 0.3 0.4v13.6c-0.1 0.3-0.1 0.5-0.1 0.7-0.3 0-0.5 0.2-0.5 0.5-0.1-0.5 0-0.9 0-1.3 0.2-1.5 0.2-3 0-4.5-0.7-0.2-1.4-0.3-2.2-0.4 0.1-0.2 0.3-0.2 0.4-0.2 0.7 0.1 1.3 0 1.8-0.3 0.1-2.9 0.2-5.8 0.5-8.7z"></path><path fill="#0c0010" d="m21 21.6c-0.2 0-0.4 0-0.5-0.2 0.1 0.1 0.3 0 0.4-0.1-0.4-0.4-0.9-0.6-1.5-0.7-0.1 0-0.2 0.1-0.2 0.3-0.2-0.1-0.5-0.2-0.7-0.2-0.1 0-0.1 0-0.1-0.1l-0.5-0.6c0.3-0.1 0.6-0.1 0.9 0-0.2 0.2-0.3 0.4-0.3 0.6 0.4 0 0.6-0.1 0.7-0.5-0.1-0.7-0.1-1.3 0-2h1.8v2.2c-0.2 0-0.4 0-0.5 0.1 0.3 0.2 0.7 0.3 1.1 0.2v0.6h-0.6v0.4z"></path><path fill="#03092a" d="m14.8 13.4c0.3 4.4 0.4 8.9 0.3 13.4h-0.1c0-4.3 0-8.6-0.2-12.8v-0.6z"></path><path fill="#0f0c2a" d="m17.9 20l0.5 0.6c-0.2 0-0.3-0.1-0.5-0.1-0.4-0.6-1-1-1.5-1.4v-0.2c0.1 0 0.3 0.1 0.4 0.2l0.3-0.6c0.1 0.3 0.2 0.6 0.1 1 0.4 0 0.7 0.2 0.7 0.5z"></path><path fill="#0c0304" d="m20.5 21.4c-0.5 0-0.9-0.2-1.3-0.5 0-0.2 0.1-0.3 0.2-0.3 0.6 0.1 1.1 0.3 1.5 0.7-0.1 0.1-0.3 0.2-0.4 0.1z"></path><path fill="#1b0d3e" d="m22.1 14.1v7.3c-0.5 0.3-1.1 0.4-1.8 0.3-0.6-0.3-1.2-0.6-1.8-1 0.2 0 0.5 0.1 0.7 0.2 0.4 0.3 0.8 0.5 1.3 0.5 0.1 0.2 0.3 0.2 0.5 0.2h1v-1.4c0-2.1 0-4.1 0.1-6.1z"></path><path fill="#110827" d="m16.9 20.5c0.3 0.1 0.5 0.2 0.7 0.4 0.3 0.3 0.7 0.5 1 0.7-0.2 0-0.4 0-0.6 0.1-0.1-0.1-0.1-0.2-0.1-0.4-0.3 0-0.5 0.1-0.8 0.1 0-0.3-0.1-0.6-0.2-0.9z"></path><path fill="#6d56b9" d="m17.9 20.5c0.2 0 0.3 0.1 0.5 0.1 0 0.1 0 0.1 0.1 0.1 0.6 0.4 1.2 0.7 1.8 1-0.1 0-0.3 0-0.4 0.2 0.8 0.1 1.5 0.2 2.2 0.4-0.8 0-1.6 0-2.3-0.2 0 0-0.1-0.1-0.2-0.1-0.2-0.2-0.6-0.4-1-0.4-0.3-0.2-0.7-0.4-1-0.7 0-0.3 0.1-0.4 0.3-0.4z"></path><path fill="#0c000f" d="m18.6 21.6c0.3 0.2 0.6 0.4 1 0.4 0.1 0 0.2 0.1 0.2 0.1 0.1 0.3 0.3 0.4 0.5 0.3 0.1 0.1 0.3 0.2 0.4 0.2l-0.2 0.2c0.2 0.1 0.4 0.2 0.5 0.3-0.6-0.1-1.2-0.1-1.8 0 0 0.2 0 0.4 0.1 0.6 0.6-0.1 1.2-0.2 1.7-0.1 0 1 0 2 0.1 3 0.1-0.3 0.3-0.6 0.5-0.9 0 0.4 0.2 0.7 0.4 0.9v0.2c-0.1 0.6-0.3 1.1-0.6 1.5-0.3 0.3-0.6 0.5-0.9 0.7-0.3 0.1-0.5 0.2-0.7 0.2-0.8 0-1.5 0-2.2-0.2 0.1-0.3 0-0.4-0.3-0.2-0.1-0.1-0.2-0.2-0.2-0.3 0.8-0.2 1.7-0.2 2.5-0.2v-0.4c-0.9 0.1-1.8 0-2.7-0.1 0.1-0.1 0.2-0.2 0.3-0.2-0.2-1.9-0.3-3.8-0.3-5.7 0.7 0 0.8-0.1 0.2-0.5 0.3 0 0.5-0.1 0.8-0.1 0 0.2 0 0.3 0.1 0.4 0.2-0.1 0.4-0.1 0.6-0.1z"></path><path fill="#181b3e" d="m16.9 20.5c-0.3-0.1-0.6-0.2-0.9-0.3v6.7c-0.2-2.4-0.2-4.8-0.2-7.3 0.1-0.1 0.2-0.2 0.3-0.1 0.3 0.3 0.6 0.6 0.8 1z"></path><path fill="#493e7d" d="m18.6 21.6c0.4 0 0.8 0.2 1 0.4-0.4 0-0.7-0.2-1-0.4z"></path><path fill="#3c2060" d="m19.8 22.1c0.7 0.2 1.5 0.2 2.3 0.2 0.2 1.5 0.2 3 0 4.5v-4.4h-1.8c-0.2 0.1-0.4 0-0.5-0.3z"></path><path fill="#0a0208" d="m22 26.6c-0.2-0.2-0.4-0.5-0.4-0.9-0.2 0.3-0.4 0.6-0.5 0.9-0.1-1-0.1-2-0.1-3-0.5-0.1-1.1 0-1.7 0.1-0.1-0.2-0.1-0.4-0.1-0.6 0.6-0.1 1.2-0.1 1.8 0 0.1 0.3 0.2 0.4 0.3 0.1-0.1-0.2-0.2-0.3-0.3-0.5 0.9-0.3 1.1 0 0.7 0.8 0.3 1 0.4 2.1 0.3 3.1z"></path><path fill="#110422" d="m20.3 22.4h1.8v4.4h-0.1v-0.2c0.1-1 0-2.1-0.3-3.1 0.4-0.8 0.2-1.1-0.7-0.8 0.1 0.2 0.2 0.3 0.3 0.5-0.1 0.3-0.2 0.2-0.3-0.1-0.1-0.1-0.3-0.2-0.5-0.3l0.2-0.2c-0.1 0-0.3-0.1-0.4-0.2z"></path><path fill="#0b020b" d="m16.9 20.5c0.1 0.3 0.2 0.6 0.2 0.9 0.6 0.4 0.5 0.5-0.2 0.5 0 1.9 0.1 3.8 0.3 5.7-0.1 0-0.2 0.1-0.3 0.2 0.9 0.1 1.8 0.2 2.7 0.1v0.4c-0.8 0-1.7 0-2.5 0.2-0.1-0.1-0.3-0.2-0.4-0.2-0.4-0.4-0.6-0.8-0.7-1.4v-6.7c0.3 0.1 0.6 0.2 0.9 0.3z"></path><path fill="#0e0019" d="m16.2 21h0.5v2.8h-0.5v-2.8z"></path><path fill="#613796" d="m22 26.8h0.1c0 0.4-0.1 0.8 0 1.3 0-0.3 0.2-0.5 0.5-0.5-0.1 0.2-0.2 0.3-0.2 0.5l-0.5 0.4c-0.1-0.3-0.2-0.4-0.5-0.2 0.3-0.4 0.5-0.9 0.6-1.5z"></path><path fill="#18082f" d="m22.9 26.1c0 0.5 0.1 1.1 0.1 1.7-0.2 0.1-0.3 0.2-0.6 0.3 0-0.2 0.1-0.3 0.2-0.5 0-0.2 0-0.4 0.1-0.7 0.1-0.2 0.2-0.5 0.2-0.8z"></path><path fill="#5963ba" d="m15.8 19.6c0 2.5 0 4.9 0.2 7.3 0.1 0.6 0.3 1 0.7 1.4 0.2 0.4 0.6 0.7 0.9 1-0.2 0-0.3 0.1-0.4 0.3-0.8-0.4-1.4-1.1-1.7-2 0.1-2.7 0.2-5.3 0.3-8z"></path><path fill="#44225c" d="m22.4 28.1c-0.1 0.3-0.2 0.5-0.5 0.7v-0.3l0.5-0.4z"></path><path fill="#7548c9" d="m21.9 28.5v0.3c0 0.1-0.1 0.1-0.2 0.1-0.1 0-0.3 0-0.4-0.1 0.1-0.2 0.1-0.3 0.1-0.5 0.3-0.2 0.4-0.1 0.5 0.2z"></path><path fill="#100c2b" d="m16.7 28.3c0.1 0 0.3 0.1 0.4 0.2 0 0.1 0.1 0.2 0.2 0.3 0.3-0.2 0.4-0.1 0.3 0.2 0.7 0.2 1.4 0.2 2.2 0.2-0.6 0.1-1.2 0.2-1.9 0.1h-0.3c-0.3-0.3-0.7-0.6-0.9-1z"></path><path fill="#27165a" d="m20.5 29c-0.2 0.2-0.3 0.4-0.6 0.4-0.7 0.1-1.3 0.1-2-0.1 0.7 0.1 1.3 0 1.9-0.1 0.2 0 0.4-0.1 0.7-0.2z"></path><path fill="#575394" d="m17.2 29.7v-0.1c0.3-0.1 0.6 0 0.7 0.3-0.2 0-0.5 0-0.7-0.2z"></path><path fill="#6a55b5" d="m21.4 28.3c0 0.2 0 0.3-0.1 0.5 0.1 0.1 0.3 0.1 0.4 0.1-0.3 0.3-0.7 0.6-1.1 0.8-0.7 0.3-1.5 0.4-2.2 0.3-0.2 0.1-0.4 0-0.5-0.1-0.1-0.3-0.4-0.4-0.7-0.3 0.1-0.2 0.2-0.3 0.4-0.3h0.3c0.7 0.2 1.3 0.2 2 0.1 0.3 0 0.4-0.2 0.6-0.4 0.3-0.2 0.6-0.4 0.9-0.7z"></path><path fill="#1e1544" d="m20.6 29.7c-0.1 0.3-0.3 0.5-0.6 0.5-0.6 0-1.1 0-1.6-0.2 0.7 0.1 1.5 0 2.2-0.3z"></path><path fill="#0b0425" d="m17.2 29.7c0.2 0.2 0.5 0.2 0.7 0.2 0.1 0.1 0.3 0.2 0.5 0.1 0.5 0.2 1 0.2 1.6 0.2-0.8 0.3-1.7 0.2-2.6-0.2-0.1 0-0.2-0.1-0.2-0.3z"></path></svg>