<?xml version="1.0"?><svg xmlns="http://www.w3.org/2000/svg" width="36" height="36" shape-rendering="geometricPrecision" text-rendering="geometricPrecision" image-rendering="optimizeQuality" fill-rule="evenodd" clip-rule="evenodd" viewBox="0 0 36 36"><path fill="#fefefe" d="m-0.1-0.1h36v36h-36v-36z"></path><path fill="#6a72f7" d="m9.6 7.7v-0.2c1.7 0 3.4 0 5.1 0.2 0 0-0.1 0.1-0.1 0.1-1.7-0.1-3.3-0.2-5-0.1z"></path><path fill="#f9fafd" d="m9.6 7.7c1.7-0.1 3.3 0 5 0.1l-1.7 2.5c-1.7 0.1-3.3 0-4.8-0.2 0.5-0.8 1.1-1.6 1.5-2.4z"></path><path fill="#f9f9fd" d="m26.2 7.7c0.6 0.7 1.1 1.5 1.6 2.4-1.6 0.2-3.2 0.3-4.8 0.2l-0.3-0.2c-0.4-0.8-0.9-1.6-1.4-2.3 1.6-0.1 3.3-0.2 4.9-0.1z"></path><path fill="#f6f6fc" d="m22.3 10.1c0.2 0.2 0.3 0.5 0.3 0.8-0.9 1.4-1.8 2.8-2.7 4.2l-1.6-2.7c0.6-1.5 1.4-3 2.3-4.4 0.1-0.1 0.3 0 0.4 0.1 0.4 0.7 0.8 1.3 1.3 2z"></path><path fill="#f7f8fd" d="m15.4 8.1c1.4 2.6 2.8 5.1 4.2 7.7-0.5 0.9-1 1.8-1.5 2.7-0.1 0.1-0.2 0.2-0.3 0.1-1.4-2.5-2.8-5.1-4.4-7.6-0.1-0.1-0.1-0.3 0-0.5 0.5-0.8 1.1-1.7 1.6-2.5 0.2-0.1 0.3-0.1 0.4 0.1z"></path><path fill="#6f76f9" d="m8.1 10.1c1.5 0.2 3.1 0.3 4.8 0.2-1.4 0.2-2.8 0.2-4.3 0.2h-0.7c0-0.2 0.1-0.3 0.2-0.4z"></path><path fill="#181ff4" d="m21.2 7.1c1.7 0 3.5 0 5.3 0.1 0.7 1.1 1.4 2.1 2 3.1 0.1 0.5 0 0.9-0.3 1.2-0.2 0-0.3-0.1-0.3-0.3-0.8-0.2-1.6-0.3-2.4-0.3l-2.5 0.1c-0.1 0-0.1 0.1-0.1 0.2-0.2 0-0.3-0.1-0.3-0.3 0-0.3-0.1-0.6-0.3-0.8 0.1-0.2 0.2-0.2 0.4 0l0.3 0.2c1.6 0.2 3.2 0.2 4.9 0.2 0-0.2 0-0.3-0.1-0.4-0.5-0.9-1-1.7-1.6-2.4-0.8-0.1-1.6-0.2-2.5-0.2-0.9 0-1.7 0.1-2.5 0.3h-0.6v-0.6c0.2 0.1 0.4 0 0.6-0.1z"></path><path fill="#7077f8" d="m27.8 10.1c0.1 0.1 0.1 0.2 0.1 0.4-1.7 0-3.3 0-4.9-0.2 1.6 0.1 3.2 0 4.8-0.2z"></path><path fill="#6b72f7" d="m26.2 7.7c-1.6-0.1-3.3 0-4.9 0.1h-0.1c0.8-0.2 1.6-0.3 2.5-0.3 0.9 0 1.7 0.1 2.5 0.2z"></path><path fill="#181ef5" d="m9.5 7.1c2 0 3.9 0 5.9 0.1 0 0.1 0.1 0.2 0.1 0.3 0.1 0.2 0 0.4-0.1 0.6-0.1-0.2-0.2-0.2-0.4-0.1-0.5 0.8-1.1 1.7-1.6 2.5-0.1 0.2-0.1 0.4 0 0.5 0.1 0.2 0 0.3 0 0.5-0.1-0.2-0.2-0.3-0.4-0.3 0-0.1-0.1-0.2-0.1-0.2-1.4-0.1-2.8-0.1-4.3-0.1-0.2-0.1-0.5-0.2-0.8-0.2 0.3 0 0.6-0.1 0.8-0.2 1.5 0 2.9 0 4.3-0.2l1.7-2.5c0 0 0.1-0.1 0.1-0.1-1.7-0.2-3.4-0.2-5.1-0.2-0.1-0.1-0.1-0.2-0.1-0.4z"></path><path fill="#f9f9fd" d="m8.6 10.9c1.5 0 2.9 0 4.3 0.1 0 0 0.1 0.1 0.1 0.2 1.4 2.6 2.9 5.1 4.5 7.6 0 0.1 0.1 0.3 0.1 0.4 0.1 2.7 0 5.5-0.1 8.2-3.2-5.5-6.4-10.9-9.6-16.4 0.3-0.1 0.5-0.1 0.7-0.1z m19.3 0.3c-3.2 5.3-6.4 10.7-9.5 16.2-0.2-2.7-0.2-5.5-0.2-8.2v-0.1c1.6-2.7 3.1-5.3 4.7-7.9 0-0.1 0-0.2 0.1-0.2l2.5-0.1c0.8 0 1.6 0.1 2.4 0.3z"></path><path fill="#3030f1" d="m13.4 11c1.6 2.5 3 5.1 4.4 7.6-0.2-0.2-0.3-0.1-0.3 0.2-1.6-2.5-3.1-5-4.5-7.6 0.2 0 0.3 0.1 0.4 0.3 0-0.2 0.1-0.3 0-0.5z"></path><path fill="#302ff1" d="m27.9 11.2c0 0.2 0.1 0.3 0.3 0.3-3.3 5.6-6.6 11.3-10 16.8 0-0.3 0-0.5-0.1-0.8 0.1 0 0.2 0 0.3-0.1 3.1-5.5 6.3-10.9 9.5-16.2z"></path><path fill="#2f2ff1" d="m21.2 7.1c-0.2 0.1-0.4 0.2-0.6 0.1v0.6h0.7c0.5 0.7 1 1.5 1.4 2.3-0.2-0.2-0.3-0.2-0.4 0-0.5-0.7-0.9-1.3-1.3-2-0.1-0.1-0.3-0.2-0.4-0.1-0.9 1.4-1.7 2.9-2.3 4.4l1.6 2.7c0.9-1.4 1.8-2.8 2.7-4.2 0 0.2 0.1 0.3 0.3 0.3-1.6 2.6-3.1 5.2-4.7 7.9-0.1-0.2-0.2-0.4-0.4-0.5 0.1 0.1 0.2 0 0.3-0.1 0.5-0.9 1-1.8 1.5-2.7-1.4-2.6-2.8-5.1-4.2-7.7 0.1-0.2 0.2-0.4 0.1-0.6 0.8 1.4 1.6 2.8 2.4 4.1 0.9-1.4 1.8-2.9 2.6-4.4 0.2-0.1 0.4-0.1 0.7-0.1z"></path><path fill="#7c82fd" d="m18.2 19.2c0 2.7 0 5.5 0.2 8.2-0.1 0.1-0.2 0.1-0.3 0.1-0.1-2.8 0-5.6 0.1-8.3z"></path><path fill="#888efc" d="m17.6 19.2c0.2 2.7 0.2 5.5 0.2 8.3-0.2 0-0.2 0-0.3-0.1 0.1-2.7 0.2-5.5 0.1-8.2z"></path><path fill="#0e19f3" d="m17.8 18.6c0.2 0.1 0.3 0.3 0.4 0.5v0.1c-0.1 2.7-0.2 5.5-0.1 8.3 0.1 0.3 0.1 0.5 0.1 0.8 0 0.2-0.1 0.4-0.3 0.5-0.2-0.3-0.4-0.6-0.5-0.9 0.2-0.1 0.3-0.2 0.4-0.4 0-2.8 0-5.6-0.2-8.3 0-0.1-0.1-0.3-0.1-0.4 0-0.3 0.1-0.4 0.3-0.2z"></path><path fill="#2c2df1" d="m9.5 7.1c0 0.2 0 0.3 0.1 0.4v0.2c-0.4 0.8-1 1.6-1.5 2.4-0.1 0.1-0.2 0.2-0.2 0.4h0.7c-0.2 0.1-0.5 0.2-0.8 0.2 0.3 0 0.6 0.1 0.8 0.2-0.2 0-0.4 0-0.7 0.1 3.2 5.5 6.4 10.9 9.6 16.4 0.1 0.1 0.1 0.1 0.3 0.1-0.1 0.2-0.2 0.3-0.4 0.4-3.4-5.6-6.8-11.2-10.1-16.9-0.1-0.2-0.1-0.4 0-0.7 0.7-1.1 1.4-2.1 2.2-3.2z"></path></svg>